0, 0, Header, 1, 3, 192
1, 0, Start_track
1, 0, Time_signature, 4, 2, 24, 8
1, 0, Tempo, 500000
1, 120040, End_track
2, 0, Start_track
2, 0, Text_t, "random instrument: random person i dunno whatev"
2, 0, Title_t, "Track 1"
2, 0, Note_on_c, 1, 55, 127
2, 0, Note_on_c, 1, 59, 127
2, 0, Note_on_c, 1, 62, 127
2, 0, Note_on_c, 1, 71, 127
2, 0, Note_on_c, 1, 79, 127
2, 40, Note_on_c, 1, 42, 127
2, 40, Note_on_c, 1, 49, 127
2, 40, Note_on_c, 1, 54, 127
2, 40, Note_off_c, 1, 55, 0
2, 40, Note_off_c, 1, 59, 0
2, 40, Note_off_c, 1, 62, 0
2, 40, Note_off_c, 1, 71, 0
2, 40, Note_off_c, 1, 79, 0
2, 40, Note_on_c, 1, 82, 127
2, 40, Note_on_c, 1, 88, 127
2, 40, Note_on_c, 1, 94, 127
2, 80, Note_off_c, 1, 42, 0
2, 80, Note_off_c, 1, 49, 0
2, 80, Note_off_c, 1, 54, 0
2, 80, Note_off_c, 1, 82, 0
2, 80, Note_off_c, 1, 88, 0
2, 80, Note_off_c, 1, 94, 0
2, 120, Note_on_c, 1, 58, 127
2, 120, Note_on_c, 1, 65, 127
2, 120, Note_on_c, 1, 70, 127
2, 120, Note_on_c, 1, 73, 127
2, 120, Note_on_c, 1, 80, 127
2, 160, Note_on_c, 1, 53, 127
2, 160, Note_on_c, 1, 56, 127
2, 160, Note_off_c, 1, 58, 0
2, 160, Note_on_c, 1, 63, 127
2, 160, Note_off_c, 1, 65, 0
2, 160, Note_off_c, 1, 70, 0
2, 160, Note_on_c, 1, 83, 127
2, 200, Note_on_c, 1, 33, 127
2, 200, Note_on_c, 1, 37, 127
2, 200, Note_on_c, 1, 40, 127
2, 200, Note_on_c, 1, 45, 127
2, 200, Note_off_c, 1, 53, 0
2, 200, Note_off_c, 1, 56, 0
2, 200, Note_on_c, 1, 57, 127
2, 200, Note_on_c, 1, 61, 127
2, 200, Note_off_c, 1, 63, 0
2, 200, Note_on_c, 1, 64, 127
2, 200, Note_off_c, 1, 73, 0
2, 200, Note_off_c, 1, 80, 0
2, 200, Note_off_c, 1, 83, 0
2, 240, Note_off_c, 1, 33, 0
2, 240, Note_off_c, 1, 37, 0
2, 240, Note_off_c, 1, 40, 0
2, 240, Note_off_c, 1, 45, 0
2, 240, Note_off_c, 1, 57, 0
2, 240, Note_on_c, 1, 58, 127
2, 240, Note_off_c, 1, 61, 0
2, 240, Note_on_c, 1, 66, 127
2, 240, Note_on_c, 1, 73, 127
2, 240, Note_on_c, 1, 85, 127
2, 280, Note_on_c, 1, 35, 127
2, 280, Note_off_c, 1, 58, 0
2, 280, Note_off_c, 1, 64, 0
2, 280, Note_off_c, 1, 66, 0
2, 280, Note_on_c, 1, 67, 127
2, 280, Note_off_c, 1, 73, 0
2, 280, Note_on_c, 1, 78, 127
2, 280, Note_on_c, 1, 79, 127
2, 280, Note_off_c, 1, 85, 0
2, 320, Note_off_c, 1, 35, 0
2, 320, Note_on_c, 1, 58, 127
2, 320, Note_on_c, 1, 64, 127
2, 320, Note_on_c, 1, 66, 127
2, 320, Note_off_c, 1, 67, 0
2, 320, Note_on_c, 1, 73, 127
2, 320, Note_off_c, 1, 78, 0
2, 320, Note_off_c, 1, 79, 0
2, 320, Note_on_c, 1, 85, 127
2, 360, Note_off_c, 1, 58, 0
2, 360, Note_off_c, 1, 64, 0
2, 360, Note_off_c, 1, 66, 0
2, 360, Note_off_c, 1, 73, 0
2, 360, Note_off_c, 1, 85, 0
2, 400, Note_on_c, 1, 58, 127
2, 400, Note_on_c, 1, 70, 127
2, 600, Note_off_c, 1, 58, 0
2, 600, Note_off_c, 1, 70, 0
2, 640, Note_on_c, 1, 55, 127
2, 640, Note_on_c, 1, 67, 127
2, 800, Note_off_c, 1, 55, 0
2, 800, Note_off_c, 1, 67, 0
2, 880, Note_on_c, 1, 50, 127
2, 880, Note_on_c, 1, 55, 127
2, 880, Note_on_c, 1, 58, 127
2, 880, Note_on_c, 1, 62, 127
2, 1280, Note_on_c, 1, 38, 127
2, 1280, Note_off_c, 1, 50, 0
2, 1280, Note_on_c, 1, 54, 127
2, 1280, Note_off_c, 1, 55, 0
2, 1280, Note_off_c, 1, 58, 0
2, 1320, Note_off_c, 1, 38, 0
2, 1320, Note_off_c, 1, 54, 0
2, 1320, Note_off_c, 1, 62, 0
2, 1360, Note_on_c, 1, 50, 127
2, 1360, Note_on_c, 1, 57, 127
2, 1360, Note_on_c, 1, 62, 127
2, 1360, Note_on_c, 1, 67, 127
2, 1360, Note_on_c, 1, 71, 127
2, 2080, Note_off_c, 1, 50, 0
2, 2080, Note_off_c, 1, 57, 0
2, 2080, Note_off_c, 1, 62, 0
2, 2080, Note_off_c, 1, 67, 0
2, 2080, Note_off_c, 1, 71, 0
2, 2120, Note_on_c, 1, 50, 127
2, 2120, Note_on_c, 1, 57, 127
2, 2120, Note_on_c, 1, 62, 127
2, 2120, Note_on_c, 1, 67, 127
2, 2120, Note_on_c, 1, 71, 127
2, 2280, Note_off_c, 1, 50, 0
2, 2280, Note_off_c, 1, 57, 0
2, 2280, Note_off_c, 1, 62, 0
2, 2280, Note_off_c, 1, 67, 0
2, 2280, Note_off_c, 1, 71, 0
2, 2320, Note_on_c, 1, 50, 127
2, 2320, Note_on_c, 1, 57, 127
2, 2320, Note_on_c, 1, 62, 127
2, 2320, Note_on_c, 1, 66, 127
2, 2320, Note_on_c, 1, 69, 127
2, 2640, Note_off_c, 1, 50, 0
2, 2640, Note_off_c, 1, 57, 0
2, 2640, Note_off_c, 1, 62, 0
2, 2640, Note_off_c, 1, 66, 0
2, 2640, Note_off_c, 1, 69, 0
2, 2680, Note_on_c, 1, 38, 127
2, 2680, Note_on_c, 1, 50, 127
2, 2680, Note_on_c, 1, 64, 127
2, 2680, Note_on_c, 1, 71, 127
2, 2720, Note_off_c, 1, 38, 0
2, 2720, Note_off_c, 1, 50, 0
2, 2720, Note_off_c, 1, 64, 0
2, 2720, Note_off_c, 1, 71, 0
2, 2760, Note_on_c, 1, 47, 127
2, 2760, Note_on_c, 1, 54, 127
2, 2760, Note_on_c, 1, 63, 127
2, 2760, Note_on_c, 1, 70, 127
2, 2840, Note_off_c, 1, 47, 0
2, 2840, Note_off_c, 1, 54, 0
2, 2840, Note_off_c, 1, 63, 0
2, 2840, Note_off_c, 1, 70, 0
2, 2880, Note_on_c, 1, 47, 127
2, 2880, Note_on_c, 1, 54, 127
2, 2880, Note_on_c, 1, 63, 127
2, 2880, Note_on_c, 1, 70, 127
2, 2920, Note_off_c, 1, 47, 0
2, 2920, Note_off_c, 1, 54, 0
2, 2920, Note_off_c, 1, 63, 0
2, 2920, Note_off_c, 1, 70, 0
2, 2960, Note_on_c, 1, 42, 127
2, 2960, Note_on_c, 1, 54, 127
2, 2960, Note_on_c, 1, 64, 127
2, 2960, Note_on_c, 1, 70, 127
2, 3000, Note_off_c, 1, 42, 0
2, 3000, Note_off_c, 1, 54, 0
2, 3000, Note_off_c, 1, 64, 0
2, 3000, Note_off_c, 1, 70, 0
2, 3080, Note_on_c, 1, 39, 127
2, 3080, Note_on_c, 1, 51, 127
2, 3080, Note_on_c, 1, 58, 127
2, 3080, Note_on_c, 1, 66, 127
2, 3160, Note_off_c, 1, 39, 0
2, 3160, Note_off_c, 1, 51, 0
2, 3160, Note_off_c, 1, 58, 0
2, 3160, Note_off_c, 1, 66, 0
2, 3200, Note_on_c, 1, 39, 127
2, 3200, Note_on_c, 1, 51, 127
2, 3200, Note_on_c, 1, 58, 127
2, 3200, Note_on_c, 1, 66, 127
2, 3240, Note_off_c, 1, 39, 0
2, 3240, Note_off_c, 1, 51, 0
2, 3240, Note_off_c, 1, 58, 0
2, 3240, Note_off_c, 1, 66, 0
2, 3280, Note_on_c, 1, 41, 127
2, 3280, Note_on_c, 1, 53, 127
2, 3280, Note_on_c, 1, 61, 127
2, 3280, Note_on_c, 1, 65, 127
2, 3280, Note_on_c, 1, 70, 127
2, 3320, Note_off_c, 1, 41, 0
2, 3320, Note_off_c, 1, 53, 0
2, 3320, Note_off_c, 1, 61, 0
2, 3320, Note_off_c, 1, 65, 0
2, 3320, Note_off_c, 1, 70, 0
2, 3400, Note_on_c, 1, 33, 127
2, 3400, Note_on_c, 1, 45, 127
2, 3400, Note_on_c, 1, 64, 127
2, 3400, Note_on_c, 1, 71, 127
2, 3440, Note_off_c, 1, 33, 0
2, 3440, Note_off_c, 1, 45, 0
2, 3440, Note_off_c, 1, 64, 0
2, 3440, Note_off_c, 1, 71, 0
2, 3480, Note_on_c, 1, 33, 127
2, 3480, Note_on_c, 1, 45, 127
2, 3480, Note_on_c, 1, 79, 127
2, 3520, Note_off_c, 1, 33, 0
2, 3520, Note_off_c, 1, 45, 0
2, 3520, Note_on_c, 1, 57, 127
2, 3520, Note_on_c, 1, 60, 127
2, 3520, Note_on_c, 1, 65, 127
2, 3520, Note_on_c, 1, 69, 127
2, 3520, Note_off_c, 1, 79, 0
2, 3520, Note_on_c, 1, 81, 127
2, 3520, Note_on_c, 1, 86, 127
2, 3560, Note_on_c, 1, 48, 127
2, 3560, Note_on_c, 1, 52, 127
2, 3560, Note_off_c, 1, 57, 0
2, 3560, Note_off_c, 1, 60, 0
2, 3560, Note_off_c, 1, 65, 0
2, 3560, Note_on_c, 1, 67, 127
2, 3560, Note_off_c, 1, 69, 0
2, 3560, Note_on_c, 1, 73, 127
2, 3560, Note_off_c, 1, 81, 0
2, 3560, Note_off_c, 1, 86, 0
2, 3600, Note_off_c, 1, 48, 0
2, 3600, Note_off_c, 1, 67, 0
2, 3600, Note_on_c, 1, 69, 127
2, 3600, Note_on_c, 1, 72, 127
2, 3600, Note_off_c, 1, 73, 0
2, 3600, Note_on_c, 1, 75, 127
2, 3600, Note_on_c, 1, 78, 127
2, 3640, Note_on_c, 1, 49, 127
2, 3640, Note_off_c, 1, 52, 0
2, 3640, Note_on_c, 1, 56, 127
2, 3640, Note_on_c, 1, 65, 127
2, 3640, Note_off_c, 1, 69, 0
2, 3640, Note_on_c, 1, 70, 127
2, 3640, Note_off_c, 1, 72, 0
2, 3640, Note_on_c, 1, 73, 127
2, 3640, Note_off_c, 1, 75, 0
2, 3640, Note_off_c, 1, 78, 0
2, 3680, Note_off_c, 1, 49, 0
2, 3680, Note_off_c, 1, 56, 0
2, 3680, Note_off_c, 1, 65, 0
2, 3680, Note_off_c, 1, 70, 0
2, 3680, Note_off_c, 1, 73, 0
2, 3720, Note_on_c, 1, 61, 127
2, 3720, Note_on_c, 1, 63, 127
2, 3720, Note_on_c, 1, 67, 127
2, 3720, Note_on_c, 1, 70, 127
2, 3720, Note_on_c, 1, 75, 127
2, 3720, Note_on_c, 1, 87, 127
2, 3760, Note_off_c, 1, 61, 0
2, 3760, Note_off_c, 1, 63, 0
2, 3760, Note_off_c, 1, 67, 0
2, 3760, Note_off_c, 1, 70, 0
2, 3760, Note_off_c, 1, 75, 0
2, 3760, Note_off_c, 1, 87, 0
2, 3800, Note_on_c, 1, 48, 127
2, 3800, Note_on_c, 1, 53, 127
2, 3800, Note_on_c, 1, 60, 127
2, 3800, Note_on_c, 1, 65, 127
2, 3800, Note_on_c, 1, 74, 127
2, 3800, Note_on_c, 1, 77, 127
2, 3840, Note_on_c, 1, 35, 127
2, 3840, Note_on_c, 1, 47, 127
2, 3840, Note_off_c, 1, 48, 0
2, 3840, Note_off_c, 1, 53, 0
2, 3840, Note_off_c, 1, 60, 0
2, 3840, Note_off_c, 1, 65, 0
2, 3840, Note_off_c, 1, 74, 0
2, 3840, Note_off_c, 1, 77, 0
2, 3840, Note_on_c, 1, 83, 127
2, 3840, Note_on_c, 1, 91, 127
2, 3840, Note_on_c, 1, 95, 127
2, 3880, Note_off_c, 1, 35, 0
2, 3880, Note_on_c, 1, 45, 127
2, 3880, Note_off_c, 1, 47, 0
2, 3880, Note_on_c, 1, 54, 127
2, 3880, Note_on_c, 1, 57, 127
2, 3880, Note_off_c, 1, 83, 0
2, 3880, Note_on_c, 1, 86, 127
2, 3880, Note_off_c, 1, 91, 0
2, 3880, Note_off_c, 1, 95, 0
2, 3920, Note_on_c, 1, 37, 127
2, 3920, Note_off_c, 1, 45, 0
2, 3920, Note_on_c, 1, 53, 127
2, 3920, Note_off_c, 1, 54, 0
2, 3920, Note_off_c, 1, 57, 0
2, 3920, Note_on_c, 1, 58, 127
2, 3920, Note_off_c, 1, 86, 0
2, 3960, Note_off_c, 1, 37, 0
2, 3960, Note_off_c, 1, 53, 0
2, 3960, Note_on_c, 1, 55, 127
2, 3960, Note_off_c, 1, 58, 0
2, 3960, Note_on_c, 1, 59, 127
2, 3960, Note_on_c, 1, 62, 127
2, 3960, Note_on_c, 1, 67, 127
2, 3960, Note_on_c, 1, 79, 127
2, 3960, Note_on_c, 1, 83, 127
2, 3960, Note_on_c, 1, 86, 127
2, 3960, Note_on_c, 1, 91, 127
2, 4000, Note_off_c, 1, 55, 0
2, 4000, Note_off_c, 1, 59, 0
2, 4000, Note_off_c, 1, 62, 0
2, 4000, Note_off_c, 1, 67, 0
2, 4000, Note_off_c, 1, 79, 0
2, 4000, Note_off_c, 1, 83, 0
2, 4000, Note_off_c, 1, 86, 0
2, 4000, Note_off_c, 1, 91, 0
2, 4040, Note_on_c, 1, 54, 127
2, 4040, Note_on_c, 1, 61, 127
2, 4040, Note_on_c, 1, 65, 127
2, 4040, Note_on_c, 1, 71, 127
2, 4040, Note_on_c, 1, 73, 127
2, 4040, Note_on_c, 1, 80, 127
2, 4120, Note_off_c, 1, 54, 0
2, 4120, Note_off_c, 1, 61, 0
2, 4120, Note_off_c, 1, 65, 0
2, 4120, Note_off_c, 1, 71, 0
2, 4120, Note_off_c, 1, 73, 0
2, 4120, Note_off_c, 1, 80, 0
2, 4160, Note_on_c, 1, 54, 127
2, 4160, Note_on_c, 1, 61, 127
2, 4160, Note_on_c, 1, 65, 127
2, 4160, Note_on_c, 1, 71, 127
2, 4160, Note_on_c, 1, 73, 127
2, 4160, Note_on_c, 1, 80, 127
2, 4240, Note_off_c, 1, 54, 0
2, 4240, Note_off_c, 1, 61, 0
2, 4240, Note_off_c, 1, 65, 0
2, 4240, Note_off_c, 1, 71, 0
2, 4240, Note_off_c, 1, 73, 0
2, 4240, Note_off_c, 1, 80, 0
2, 4280, Note_on_c, 1, 54, 127
2, 4280, Note_on_c, 1, 61, 127
2, 4280, Note_on_c, 1, 65, 127
2, 4280, Note_on_c, 1, 71, 127
2, 4280, Note_on_c, 1, 73, 127
2, 4280, Note_on_c, 1, 80, 127
2, 4320, Note_off_c, 1, 54, 0
2, 4320, Note_off_c, 1, 61, 0
2, 4320, Note_off_c, 1, 65, 0
2, 4320, Note_off_c, 1, 71, 0
2, 4320, Note_off_c, 1, 73, 0
2, 4320, Note_off_c, 1, 80, 0
2, 4360, Note_on_c, 1, 54, 127
2, 4360, Note_on_c, 1, 61, 127
2, 4360, Note_on_c, 1, 65, 127
2, 4360, Note_on_c, 1, 71, 127
2, 4360, Note_on_c, 1, 73, 127
2, 4360, Note_on_c, 1, 80, 127
2, 4440, Note_off_c, 1, 54, 0
2, 4440, Note_off_c, 1, 61, 0
2, 4440, Note_off_c, 1, 65, 0
2, 4440, Note_off_c, 1, 71, 0
2, 4440, Note_off_c, 1, 73, 0
2, 4440, Note_off_c, 1, 80, 0
2, 4480, Note_on_c, 1, 54, 127
2, 4480, Note_on_c, 1, 61, 127
2, 4480, Note_on_c, 1, 65, 127
2, 4480, Note_on_c, 1, 71, 127
2, 4480, Note_on_c, 1, 73, 127
2, 4480, Note_on_c, 1, 80, 127
2, 4600, Note_off_c, 1, 54, 0
2, 4600, Note_off_c, 1, 61, 0
2, 4600, Note_off_c, 1, 65, 0
2, 4600, Note_off_c, 1, 71, 0
2, 4600, Note_off_c, 1, 73, 0
2, 4600, Note_off_c, 1, 80, 0
2, 4640, Note_on_c, 1, 52, 127
2, 4640, Note_on_c, 1, 64, 127
2, 4640, Note_on_c, 1, 74, 127
2, 4640, Note_on_c, 1, 80, 127
2, 4640, Note_on_c, 1, 86, 127
2, 4680, Note_off_c, 1, 52, 0
2, 4680, Note_off_c, 1, 64, 0
2, 4680, Note_off_c, 1, 74, 0
2, 4680, Note_off_c, 1, 80, 0
2, 4680, Note_off_c, 1, 86, 0
2, 4760, Note_on_c, 1, 34, 127
2, 4760, Note_on_c, 1, 84, 127
2, 4760, Note_on_c, 1, 89, 127
2, 4760, Note_on_c, 1, 92, 127
2, 4760, Note_on_c, 1, 96, 127
2, 4800, Note_off_c, 1, 34, 0
2, 4800, Note_on_c, 1, 48, 127
2, 4800, Note_on_c, 1, 60, 127
2, 4800, Note_off_c, 1, 84, 0
2, 4800, Note_on_c, 1, 86, 127
2, 4800, Note_off_c, 1, 89, 0
2, 4800, Note_off_c, 1, 92, 0
2, 4800, Note_on_c, 1, 94, 127
2, 4800, Note_off_c, 1, 96, 0
2, 4800, Note_on_c, 1, 98, 127
2, 4840, Note_off_c, 1, 48, 0
2, 4840, Note_off_c, 1, 60, 0
2, 4840, Note_off_c, 1, 86, 0
2, 4840, Note_off_c, 1, 94, 0
2, 4840, Note_off_c, 1, 98, 0
2, 4880, Note_on_c, 1, 42, 127
2, 4880, Note_on_c, 1, 54, 127
2, 4880, Note_on_c, 1, 75, 127
2, 4880, Note_on_c, 1, 82, 127
2, 4880, Note_on_c, 1, 87, 127
2, 4920, Note_off_c, 1, 42, 0
2, 4920, Note_off_c, 1, 54, 0
2, 4920, Note_off_c, 1, 75, 0
2, 4920, Note_off_c, 1, 82, 0
2, 4920, Note_off_c, 1, 87, 0
2, 4960, Note_on_c, 1, 42, 127
2, 4960, Note_on_c, 1, 56, 127
2, 4960, Note_on_c, 1, 64, 127
2, 4960, Note_on_c, 1, 73, 127
2, 5000, Note_off_c, 1, 42, 0
2, 5000, Note_off_c, 1, 56, 0
2, 5000, Note_off_c, 1, 64, 0
2, 5000, Note_off_c, 1, 73, 0
2, 5040, Note_on_c, 1, 36, 127
2, 5040, Note_on_c, 1, 48, 127
2, 5040, Note_on_c, 1, 58, 127
2, 5040, Note_on_c, 1, 61, 127
2, 5040, Note_on_c, 1, 64, 127
2, 5080, Note_off_c, 1, 36, 0
2, 5080, Note_off_c, 1, 48, 0
2, 5080, Note_on_c, 1, 55, 127
2, 5080, Note_off_c, 1, 61, 0
2, 5080, Note_off_c, 1, 64, 0
2, 5080, Note_on_c, 1, 67, 127
2, 5080, Note_on_c, 1, 85, 127
2, 5080, Note_on_c, 1, 88, 127
2, 5080, Note_on_c, 1, 97, 127
2, 5120, Note_off_c, 1, 55, 0
2, 5120, Note_off_c, 1, 58, 0
2, 5120, Note_off_c, 1, 67, 0
2, 5120, Note_off_c, 1, 85, 0
2, 5120, Note_off_c, 1, 88, 0
2, 5120, Note_off_c, 1, 97, 0
2, 5160, Note_on_c, 1, 47, 127
2, 5160, Note_on_c, 1, 59, 127
2, 5200, Note_off_c, 1, 47, 0
2, 5200, Note_off_c, 1, 59, 0
2, 5240, Note_on_c, 1, 43, 127
2, 5240, Note_on_c, 1, 50, 127
2, 5240, Note_on_c, 1, 60, 127
2, 5240, Note_on_c, 1, 62, 127
2, 5240, Note_on_c, 1, 69, 127
2, 5280, Note_off_c, 1, 43, 0
2, 5280, Note_off_c, 1, 50, 0
2, 5280, Note_on_c, 1, 57, 127
2, 5280, Note_off_c, 1, 62, 0
2, 5280, Note_on_c, 1, 63, 127
2, 5280, Note_on_c, 1, 66, 127
2, 5280, Note_on_c, 1, 72, 127
2, 5280, Note_on_c, 1, 75, 127
2, 5280, Note_on_c, 1, 78, 127
2, 5320, Note_off_c, 1, 57, 0
2, 5320, Note_off_c, 1, 60, 0
2, 5320, Note_off_c, 1, 63, 0
2, 5320, Note_off_c, 1, 66, 0
2, 5320, Note_off_c, 1, 69, 0
2, 5320, Note_off_c, 1, 72, 0
2, 5320, Note_off_c, 1, 75, 0
2, 5320, Note_off_c, 1, 78, 0
2, 5360, Note_on_c, 1, 54, 127
2, 5360, Note_on_c, 1, 60, 127
2, 5360, Note_on_c, 1, 66, 127
2, 5360, Note_on_c, 1, 78, 127
2, 5400, Note_off_c, 1, 54, 0
2, 5400, Note_off_c, 1, 60, 0
2, 5400, Note_off_c, 1, 66, 0
2, 5400, Note_off_c, 1, 78, 0
2, 5440, Note_on_c, 1, 49, 127
2, 5440, Note_on_c, 1, 61, 127
2, 5440, Note_on_c, 1, 73, 127
2, 5440, Note_on_c, 1, 76, 127
2, 5440, Note_on_c, 1, 81, 127
2, 5480, Note_off_c, 1, 49, 0
2, 5480, Note_off_c, 1, 61, 0
2, 5480, Note_off_c, 1, 73, 0
2, 5480, Note_off_c, 1, 76, 0
2, 5480, Note_off_c, 1, 81, 0
2, 5520, Note_on_c, 1, 49, 127
2, 5520, Note_on_c, 1, 61, 127
2, 5520, Note_on_c, 1, 73, 127
2, 5520, Note_on_c, 1, 76, 127
2, 5520, Note_on_c, 1, 81, 127
2, 5560, Note_off_c, 1, 49, 0
2, 5560, Note_off_c, 1, 61, 0
2, 5560, Note_off_c, 1, 73, 0
2, 5560, Note_on_c, 1, 74, 127
2, 5560, Note_off_c, 1, 81, 0
2, 5560, Note_on_c, 1, 83, 127
2, 5600, Note_off_c, 1, 74, 0
2, 5600, Note_off_c, 1, 76, 0
2, 5600, Note_off_c, 1, 83, 0
2, 5640, Note_on_c, 1, 45, 127
2, 5640, Note_on_c, 1, 73, 127
2, 5640, Note_on_c, 1, 76, 127
2, 5640, Note_on_c, 1, 81, 127
2, 5680, Note_off_c, 1, 45, 0
2, 5720, Note_on_c, 1, 45, 127
2, 5760, Note_off_c, 1, 45, 0
2, 5760, Note_off_c, 1, 73, 0
2, 5760, Note_off_c, 1, 76, 0
2, 5760, Note_off_c, 1, 81, 0
2, 5800, Note_on_c, 1, 45, 127
2, 5880, Note_off_c, 1, 45, 0
2, 5920, Note_on_c, 1, 45, 127
2, 5920, Note_on_c, 1, 57, 127
2, 5920, Note_on_c, 1, 61, 127
2, 5920, Note_on_c, 1, 64, 127
2, 5960, Note_off_c, 1, 45, 0
2, 5960, Note_off_c, 1, 57, 0
2, 5960, Note_off_c, 1, 61, 0
2, 5960, Note_off_c, 1, 64, 0
2, 6000, Note_on_c, 1, 50, 127
2, 6000, Note_on_c, 1, 57, 127
2, 6000, Note_on_c, 1, 62, 127
2, 6000, Note_on_c, 1, 66, 127
2, 6080, Note_off_c, 1, 50, 0
2, 6080, Note_off_c, 1, 57, 0
2, 6080, Note_off_c, 1, 62, 0
2, 6080, Note_off_c, 1, 66, 0
2, 6120, Note_on_c, 1, 47, 127
2, 6120, Note_on_c, 1, 56, 127
2, 6120, Note_on_c, 1, 64, 127
2, 6120, Note_on_c, 1, 70, 127
2, 6160, Note_off_c, 1, 47, 0
2, 6160, Note_off_c, 1, 56, 0
2, 6160, Note_off_c, 1, 64, 0
2, 6160, Note_off_c, 1, 70, 0
2, 6200, Note_on_c, 1, 42, 127
2, 6200, Note_on_c, 1, 52, 127
2, 6200, Note_on_c, 1, 59, 127
2, 6200, Note_on_c, 1, 64, 127
2, 6240, Note_off_c, 1, 42, 0
2, 6240, Note_off_c, 1, 52, 0
2, 6240, Note_off_c, 1, 59, 0
2, 6240, Note_off_c, 1, 64, 0
2, 6280, Note_on_c, 1, 55, 127
2, 6280, Note_on_c, 1, 61, 127
2, 6280, Note_on_c, 1, 64, 127
2, 6280, Note_on_c, 1, 69, 127
2, 6280, Note_on_c, 1, 85, 127
2, 6320, Note_on_c, 1, 53, 127
2, 6320, Note_off_c, 1, 55, 0
2, 6320, Note_off_c, 1, 61, 0
2, 6320, Note_on_c, 1, 62, 127
2, 6320, Note_off_c, 1, 64, 0
2, 6320, Note_on_c, 1, 65, 127
2, 6320, Note_on_c, 1, 74, 127
2, 6320, Note_off_c, 1, 85, 0
2, 6360, Note_off_c, 1, 53, 0
2, 6360, Note_off_c, 1, 62, 0
2, 6360, Note_off_c, 1, 65, 0
2, 6360, Note_off_c, 1, 69, 0
2, 6360, Note_on_c, 1, 70, 127
2, 6360, Note_off_c, 1, 74, 0
2, 6360, Note_on_c, 1, 78, 127
2, 6360, Note_on_c, 1, 88, 127
2, 6400, Note_on_c, 1, 62, 127
2, 6400, Note_on_c, 1, 65, 127
2, 6400, Note_off_c, 1, 70, 0
2, 6400, Note_on_c, 1, 72, 127
2, 6400, Note_on_c, 1, 77, 127
2, 6400, Note_off_c, 1, 78, 0
2, 6400, Note_off_c, 1, 88, 0
2, 6440, Note_on_c, 1, 45, 127
2, 6440, Note_off_c, 1, 65, 0
2, 6440, Note_on_c, 1, 68, 127
2, 6440, Note_off_c, 1, 72, 0
2, 6440, Note_on_c, 1, 76, 127
2, 6440, Note_off_c, 1, 77, 0
2, 6480, Note_off_c, 1, 45, 0
2, 6480, Note_off_c, 1, 62, 0
2, 6480, Note_off_c, 1, 68, 0
2, 6480, Note_off_c, 1, 76, 0
2, 6520, Note_on_c, 1, 45, 127
2, 6560, Note_off_c, 1, 45, 0
2, 6560, Note_on_c, 1, 47, 127
2, 6600, Note_off_c, 1, 47, 0
2, 6640, Note_on_c, 1, 45, 127
2, 6720, Note_off_c, 1, 45, 0
2, 6760, Note_on_c, 1, 49, 127
2, 6760, Note_on_c, 1, 52, 127
2, 6760, Note_on_c, 1, 57, 127
2, 6760, Note_on_c, 1, 61, 127
2, 6760, Note_on_c, 1, 63, 127
2, 6800, Note_off_c, 1, 49, 0
2, 6800, Note_on_c, 1, 51, 127
2, 6800, Note_off_c, 1, 52, 0
2, 6800, Note_off_c, 1, 57, 0
2, 6800, Note_off_c, 1, 61, 0
2, 6800, Note_on_c, 1, 69, 127
2, 6800, Note_on_c, 1, 72, 127
2, 6800, Note_on_c, 1, 78, 127
2, 6800, Note_on_c, 1, 81, 127
2, 6800, Note_on_c, 1, 84, 127
2, 6840, Note_on_c, 1, 49, 127
2, 6840, Note_off_c, 1, 51, 0
2, 6840, Note_on_c, 1, 57, 127
2, 6840, Note_off_c, 1, 63, 0
2, 6840, Note_on_c, 1, 64, 127
2, 6840, Note_on_c, 1, 67, 127
2, 6840, Note_off_c, 1, 69, 0
2, 6840, Note_off_c, 1, 72, 0
2, 6840, Note_on_c, 1, 73, 127
2, 6840, Note_off_c, 1, 78, 0
2, 6840, Note_off_c, 1, 81, 0
2, 6840, Note_on_c, 1, 83, 127
2, 6840, Note_off_c, 1, 84, 0
2, 6880, Note_on_c, 1, 52, 127
2, 6880, Note_on_c, 1, 61, 127
2, 6880, Note_on_c, 1, 63, 127
2, 6880, Note_off_c, 1, 64, 0
2, 6880, Note_off_c, 1, 67, 0
2, 6880, Note_off_c, 1, 73, 0
2, 6880, Note_off_c, 1, 83, 0
2, 6920, Note_off_c, 1, 49, 0
2, 6920, Note_off_c, 1, 52, 0
2, 6920, Note_off_c, 1, 57, 0
2, 6920, Note_off_c, 1, 61, 0
2, 6920, Note_off_c, 1, 63, 0
2, 6960, Note_on_c, 1, 52, 127
2, 6960, Note_on_c, 1, 57, 127
2, 6960, Note_on_c, 1, 61, 127
2, 6960, Note_on_c, 1, 90, 127
2, 7040, Note_off_c, 1, 52, 0
2, 7040, Note_off_c, 1, 57, 0
2, 7040, Note_off_c, 1, 61, 0
2, 7040, Note_off_c, 1, 90, 0
2, 7080, Note_on_c, 1, 71, 127
2, 7080, Note_on_c, 1, 78, 127
2, 7080, Note_on_c, 1, 81, 127
2, 7080, Note_on_c, 1, 83, 127
2, 7080, Note_on_c, 1, 88, 127
2, 7200, Note_off_c, 1, 71, 0
2, 7200, Note_off_c, 1, 78, 0
2, 7200, Note_off_c, 1, 81, 0
2, 7200, Note_off_c, 1, 83, 0
2, 7200, Note_off_c, 1, 88, 0
2, 7240, Note_on_c, 1, 56, 127
2, 7240, Note_on_c, 1, 63, 127
2, 7240, Note_on_c, 1, 78, 127
2, 7240, Note_on_c, 1, 84, 127
2, 7280, Note_off_c, 1, 56, 0
2, 7280, Note_off_c, 1, 63, 0
2, 7280, Note_off_c, 1, 78, 0
2, 7280, Note_off_c, 1, 84, 0
2, 7320, Note_on_c, 1, 62, 127
2, 7320, Note_on_c, 1, 65, 127
2, 7320, Note_on_c, 1, 69, 127
2, 7320, Note_on_c, 1, 74, 127
2, 7320, Note_on_c, 1, 81, 127
2, 7320, Note_on_c, 1, 86, 127
2, 7360, Note_on_c, 1, 45, 127
2, 7360, Note_on_c, 1, 51, 127
2, 7360, Note_off_c, 1, 62, 0
2, 7360, Note_off_c, 1, 65, 0
2, 7360, Note_off_c, 1, 69, 0
2, 7360, Note_off_c, 1, 74, 0
2, 7360, Note_off_c, 1, 81, 0
2, 7360, Note_off_c, 1, 86, 0
2, 7400, Note_off_c, 1, 45, 0
2, 7400, Note_off_c, 1, 51, 0
2, 7440, Note_on_c, 1, 45, 127
2, 7440, Note_on_c, 1, 47, 127
2, 7440, Note_on_c, 1, 67, 127
2, 7480, Note_off_c, 1, 45, 0
2, 7480, Note_off_c, 1, 47, 0
2, 7480, Note_on_c, 1, 64, 127
2, 7480, Note_off_c, 1, 67, 0
2, 7480, Note_on_c, 1, 76, 127
2, 7480, Note_on_c, 1, 80, 127
2, 7480, Note_on_c, 1, 83, 127
2, 7480, Note_on_c, 1, 92, 127
2, 7520, Note_on_c, 1, 47, 127
2, 7520, Note_on_c, 1, 51, 127
2, 7520, Note_off_c, 1, 64, 0
2, 7520, Note_off_c, 1, 76, 0
2, 7520, Note_on_c, 1, 78, 127
2, 7520, Note_off_c, 1, 80, 0
2, 7520, Note_off_c, 1, 83, 0
2, 7520, Note_on_c, 1, 87, 127
2, 7520, Note_on_c, 1, 90, 127
2, 7520, Note_off_c, 1, 92, 0
2, 7560, Note_on_c, 1, 50, 127
2, 7560, Note_off_c, 1, 51, 0
2, 7560, Note_on_c, 1, 55, 127
2, 7560, Note_on_c, 1, 59, 127
2, 7560, Note_on_c, 1, 62, 127
2, 7560, Note_on_c, 1, 74, 127
2, 7560, Note_off_c, 1, 78, 0
2, 7560, Note_off_c, 1, 87, 0
2, 7560, Note_off_c, 1, 90, 0
2, 7600, Note_off_c, 1, 47, 0
2, 7600, Note_off_c, 1, 50, 0
2, 7600, Note_off_c, 1, 55, 0
2, 7600, Note_off_c, 1, 59, 0
2, 7600, Note_off_c, 1, 62, 0
2, 7600, Note_off_c, 1, 74, 0
2, 7640, Note_on_c, 1, 59, 127
2, 7640, Note_on_c, 1, 62, 127
2, 7640, Note_on_c, 1, 65, 127
2, 7640, Note_on_c, 1, 68, 127
2, 7640, Note_on_c, 1, 82, 127
2, 7640, Note_on_c, 1, 83, 127
2, 7680, Note_off_c, 1, 59, 0
2, 7680, Note_off_c, 1, 62, 0
2, 7680, Note_off_c, 1, 65, 0
2, 7680, Note_off_c, 1, 68, 0
2, 7680, Note_off_c, 1, 82, 0
2, 7680, Note_off_c, 1, 83, 0
2, 7720, Note_on_c, 1, 42, 127
2, 7720, Note_on_c, 1, 54, 127
2, 7720, Note_on_c, 1, 56, 127
2, 7720, Note_on_c, 1, 61, 127
2, 7720, Note_on_c, 1, 64, 127
2, 7800, Note_off_c, 1, 42, 0
2, 7800, Note_off_c, 1, 54, 0
2, 7800, Note_off_c, 1, 56, 0
2, 7800, Note_off_c, 1, 61, 0
2, 7800, Note_off_c, 1, 64, 0
2, 7840, Note_on_c, 1, 31, 127
2, 7840, Note_on_c, 1, 50, 127
2, 7840, Note_on_c, 1, 55, 127
2, 7840, Note_on_c, 1, 58, 127
2, 7880, Note_off_c, 1, 31, 0
2, 7880, Note_off_c, 1, 50, 0
2, 7880, Note_off_c, 1, 55, 0
2, 7880, Note_off_c, 1, 58, 0
2, 7920, Note_on_c, 1, 41, 127
2, 7920, Note_on_c, 1, 72, 127
2, 7920, Note_on_c, 1, 76, 127
2, 7960, Note_off_c, 1, 41, 0
2, 7960, Note_on_c, 1, 55, 127
2, 7960, Note_on_c, 1, 59, 127
2, 7960, Note_on_c, 1, 62, 127
2, 7960, Note_on_c, 1, 71, 127
2, 7960, Note_off_c, 1, 72, 0
2, 7960, Note_on_c, 1, 74, 127
2, 7960, Note_off_c, 1, 76, 0
2, 7960, Note_on_c, 1, 83, 127
2, 8000, Note_off_c, 1, 55, 0
2, 8000, Note_off_c, 1, 59, 0
2, 8000, Note_off_c, 1, 62, 0
2, 8000, Note_on_c, 1, 66, 127
2, 8000, Note_off_c, 1, 71, 0
2, 8000, Note_off_c, 1, 74, 0
2, 8000, Note_on_c, 1, 76, 127
2, 8000, Note_on_c, 1, 79, 127
2, 8040, Note_on_c, 1, 69, 127
2, 8040, Note_off_c, 1, 76, 0
2, 8040, Note_off_c, 1, 79, 0
2, 8040, Note_on_c, 1, 81, 127
2, 8080, Note_on_c, 1, 53, 127
2, 8080, Note_off_c, 1, 66, 0
2, 8080, Note_off_c, 1, 69, 0
2, 8080, Note_on_c, 1, 74, 127
2, 8120, Note_off_c, 1, 53, 0
2, 8120, Note_off_c, 1, 74, 0
2, 8120, Note_off_c, 1, 81, 0
2, 8120, Note_on_c, 1, 92, 127
2, 8120, Note_on_c, 1, 95, 127
2, 8120, Note_on_c, 1, 98, 127
2, 8160, Note_off_c, 1, 83, 0
2, 8160, Note_off_c, 1, 92, 0
2, 8160, Note_off_c, 1, 95, 0
2, 8160, Note_off_c, 1, 98, 0
2, 8200, Note_on_c, 1, 69, 127
2, 8200, Note_on_c, 1, 84, 127
2, 8200, Note_on_c, 1, 91, 127
2, 8240, Note_off_c, 1, 69, 0
2, 8240, Note_off_c, 1, 84, 0
2, 8240, Note_off_c, 1, 91, 0
2, 8280, Note_on_c, 1, 39, 127
2, 8280, Note_on_c, 1, 90, 127
2, 8280, Note_on_c, 1, 92, 127
2, 8320, Note_off_c, 1, 39, 0
2, 8320, Note_off_c, 1, 90, 0
2, 8320, Note_off_c, 1, 92, 0
2, 8400, Note_on_c, 1, 48, 127
2, 8400, Note_on_c, 1, 64, 127
2, 8400, Note_on_c, 1, 69, 127
2, 8400, Note_on_c, 1, 73, 127
2, 8440, Note_on_c, 1, 33, 127
2, 8440, Note_on_c, 1, 45, 127
2, 8440, Note_off_c, 1, 48, 0
2, 8440, Note_off_c, 1, 64, 0
2, 8440, Note_on_c, 1, 67, 127
2, 8440, Note_off_c, 1, 69, 0
2, 8440, Note_on_c, 1, 79, 127
2, 8480, Note_off_c, 1, 33, 0
2, 8480, Note_off_c, 1, 45, 0
2, 8480, Note_on_c, 1, 64, 127
2, 8480, Note_off_c, 1, 67, 0
2, 8480, Note_on_c, 1, 69, 127
2, 8480, Note_off_c, 1, 79, 0
2, 8560, Note_off_c, 1, 64, 0
2, 8560, Note_off_c, 1, 69, 0
2, 8560, Note_off_c, 1, 73, 0
2, 8600, Note_on_c, 1, 45, 127
2, 8600, Note_on_c, 1, 48, 127
2, 8600, Note_on_c, 1, 65, 127
2, 8600, Note_on_c, 1, 75, 127
2, 8640, Note_off_c, 1, 45, 0
2, 8640, Note_off_c, 1, 48, 0
2, 8640, Note_off_c, 1, 65, 0
2, 8640, Note_off_c, 1, 75, 0
2, 8680, Note_on_c, 1, 41, 127
2, 8680, Note_on_c, 1, 48, 127
2, 8680, Note_on_c, 1, 63, 127
2, 8680, Note_on_c, 1, 69, 127
2, 8680, Note_on_c, 1, 72, 127
2, 8680, Note_on_c, 1, 81, 127
2, 8680, Note_on_c, 1, 84, 127
2, 9120, Note_off_c, 1, 41, 0
2, 9120, Note_off_c, 1, 48, 0
2, 9120, Note_off_c, 1, 63, 0
2, 9120, Note_off_c, 1, 69, 0
2, 9120, Note_off_c, 1, 72, 0
2, 9120, Note_off_c, 1, 81, 0
2, 9120, Note_off_c, 1, 84, 0
2, 9160, Note_on_c, 1, 48, 127
2, 9160, Note_on_c, 1, 51, 127
2, 9160, Note_on_c, 1, 56, 127
2, 9160, Note_on_c, 1, 68, 127
2, 9200, Note_off_c, 1, 48, 0
2, 9200, Note_off_c, 1, 51, 0
2, 9200, Note_off_c, 1, 56, 0
2, 9200, Note_off_c, 1, 68, 0
2, 9200, Note_on_c, 1, 92, 127
2, 9200, Note_on_c, 1, 95, 127
2, 9200, Note_on_c, 1, 101, 127
2, 9240, Note_on_c, 1, 48, 127
2, 9240, Note_on_c, 1, 51, 127
2, 9240, Note_on_c, 1, 54, 127
2, 9240, Note_on_c, 1, 81, 127
2, 9240, Note_off_c, 1, 92, 0
2, 9240, Note_off_c, 1, 95, 0
2, 9240, Note_off_c, 1, 101, 0
2, 9280, Note_off_c, 1, 48, 0
2, 9280, Note_off_c, 1, 51, 0
2, 9280, Note_off_c, 1, 54, 0
2, 9280, Note_on_c, 1, 66, 127
2, 9280, Note_off_c, 1, 81, 0
2, 9320, Note_on_c, 1, 44, 127
2, 9320, Note_on_c, 1, 63, 127
2, 9320, Note_on_c, 1, 65, 127
2, 9320, Note_off_c, 1, 66, 0
2, 9320, Note_on_c, 1, 75, 127
2, 9440, Note_off_c, 1, 44, 0
2, 9440, Note_off_c, 1, 63, 0
2, 9440, Note_off_c, 1, 65, 0
2, 9440, Note_off_c, 1, 75, 0
2, 9480, Note_on_c, 1, 64, 127
2, 9480, Note_on_c, 1, 68, 127
2, 9480, Note_on_c, 1, 76, 127
2, 9480, Note_on_c, 1, 88, 127
2, 9520, Note_on_c, 1, 58, 127
2, 9520, Note_off_c, 1, 64, 0
2, 9520, Note_on_c, 1, 67, 127
2, 9520, Note_off_c, 1, 68, 0
2, 9520, Note_on_c, 1, 70, 127
2, 9520, Note_on_c, 1, 85, 127
2, 9520, Note_off_c, 1, 88, 0
2, 9560, Note_off_c, 1, 58, 0
2, 9560, Note_on_c, 1, 64, 127
2, 9560, Note_off_c, 1, 67, 0
2, 9560, Note_on_c, 1, 68, 127
2, 9560, Note_off_c, 1, 70, 0
2, 9560, Note_off_c, 1, 85, 0
2, 9560, Note_on_c, 1, 88, 127
2, 9880, Note_off_c, 1, 64, 0
2, 9880, Note_off_c, 1, 68, 0
2, 9880, Note_off_c, 1, 76, 0
2, 9880, Note_off_c, 1, 88, 0
2, 9920, Note_on_c, 1, 64, 127
2, 9920, Note_on_c, 1, 68, 127
2, 9920, Note_on_c, 1, 71, 127
2, 9920, Note_on_c, 1, 76, 127
2, 9920, Note_on_c, 1, 88, 127
2, 10400, Note_off_c, 1, 64, 0
2, 10400, Note_off_c, 1, 68, 0
2, 10400, Note_off_c, 1, 71, 0
2, 10400, Note_off_c, 1, 76, 0
2, 10400, Note_off_c, 1, 88, 0
2, 10440, Note_on_c, 1, 64, 127
2, 10440, Note_on_c, 1, 68, 127
2, 10440, Note_on_c, 1, 71, 127
2, 10440, Note_on_c, 1, 76, 127
2, 10440, Note_on_c, 1, 88, 127
2, 10680, Note_off_c, 1, 71, 0
2, 10720, Note_off_c, 1, 64, 0
2, 10720, Note_off_c, 1, 68, 0
2, 10720, Note_off_c, 1, 76, 0
2, 10720, Note_off_c, 1, 88, 0
2, 10760, Note_on_c, 1, 60, 127
2, 10760, Note_on_c, 1, 67, 127
2, 10760, Note_on_c, 1, 70, 127
2, 10760, Note_on_c, 1, 82, 127
2, 10800, Note_on_c, 1, 49, 127
2, 10800, Note_off_c, 1, 60, 0
2, 10800, Note_on_c, 1, 65, 127
2, 10800, Note_off_c, 1, 67, 0
2, 10800, Note_off_c, 1, 70, 0
2, 10800, Note_on_c, 1, 73, 127
2, 10800, Note_on_c, 1, 77, 127
2, 10800, Note_off_c, 1, 82, 0
2, 10840, Note_off_c, 1, 49, 0
2, 10840, Note_on_c, 1, 56, 127
2, 10840, Note_off_c, 1, 73, 0
2, 10840, Note_on_c, 1, 78, 127
2, 10880, Note_off_c, 1, 56, 0
2, 10880, Note_off_c, 1, 65, 0
2, 10880, Note_on_c, 1, 71, 127
2, 10880, Note_on_c, 1, 74, 127
2, 10880, Note_off_c, 1, 78, 0
2, 10880, Note_on_c, 1, 80, 127
2, 10880, Note_on_c, 1, 92, 127
2, 10920, Note_on_c, 1, 53, 127
2, 10920, Note_on_c, 1, 60, 127
2, 10920, Note_off_c, 1, 71, 0
2, 10920, Note_off_c, 1, 74, 0
2, 10920, Note_off_c, 1, 77, 0
2, 10920, Note_on_c, 1, 79, 127
2, 10920, Note_off_c, 1, 80, 0
2, 10920, Note_on_c, 1, 84, 127
2, 10920, Note_off_c, 1, 92, 0
2, 10960, Note_off_c, 1, 53, 0
2, 10960, Note_on_c, 1, 55, 127
2, 10960, Note_off_c, 1, 60, 0
2, 10960, Note_on_c, 1, 62, 127
2, 10960, Note_on_c, 1, 70, 127
2, 10960, Note_on_c, 1, 78, 127
2, 10960, Note_off_c, 1, 79, 0
2, 10960, Note_on_c, 1, 81, 127
2, 10960, Note_off_c, 1, 84, 0
2, 11000, Note_off_c, 1, 55, 0
2, 11000, Note_on_c, 1, 57, 127
2, 11000, Note_off_c, 1, 62, 0
2, 11000, Note_on_c, 1, 63, 127
2, 11000, Note_on_c, 1, 66, 127
2, 11000, Note_off_c, 1, 70, 0
2, 11000, Note_on_c, 1, 73, 127
2, 11000, Note_off_c, 1, 78, 0
2, 11000, Note_off_c, 1, 81, 0
2, 11000, Note_on_c, 1, 85, 127
2, 11040, Note_on_c, 1, 39, 127
2, 11040, Note_off_c, 1, 57, 0
2, 11040, Note_off_c, 1, 66, 0
2, 11040, Note_on_c, 1, 67, 127
2, 11040, Note_off_c, 1, 73, 0
2, 11040, Note_on_c, 1, 79, 127
2, 11040, Note_off_c, 1, 85, 0
2, 11080, Note_off_c, 1, 39, 0
2, 11080, Note_on_c, 1, 45, 127
2, 11080, Note_on_c, 1, 49, 127
2, 11080, Note_off_c, 1, 67, 0
2, 11080, Note_on_c, 1, 73, 127
2, 11080, Note_off_c, 1, 79, 0
2, 11120, Note_on_c, 1, 38, 127
2, 11120, Note_off_c, 1, 49, 0
2, 11120, Note_on_c, 1, 57, 127
2, 11120, Note_on_c, 1, 62, 127
2, 11120, Note_off_c, 1, 63, 0
2, 11120, Note_on_c, 1, 69, 127
2, 11120, Note_off_c, 1, 73, 0
2, 11160, Note_off_c, 1, 38, 0
2, 11160, Note_off_c, 1, 45, 0
2, 11160, Note_on_c, 1, 49, 127
2, 11160, Note_on_c, 1, 56, 127
2, 11160, Note_off_c, 1, 57, 0
2, 11160, Note_off_c, 1, 62, 0
2, 11160, Note_on_c, 1, 64, 127
2, 11160, Note_off_c, 1, 69, 0
2, 11160, Note_on_c, 1, 73, 127
2, 11200, Note_off_c, 1, 49, 0
2, 11200, Note_off_c, 1, 56, 0
2, 11200, Note_on_c, 1, 62, 127
2, 11200, Note_off_c, 1, 64, 0
2, 11200, Note_on_c, 1, 68, 127
2, 11200, Note_off_c, 1, 73, 0
2, 11200, Note_on_c, 1, 86, 127
2, 11200, Note_on_c, 1, 89, 127
2, 11240, Note_on_c, 1, 51, 127
2, 11240, Note_off_c, 1, 62, 0
2, 11240, Note_off_c, 1, 68, 0
2, 11240, Note_off_c, 1, 86, 0
2, 11240, Note_off_c, 1, 89, 0
2, 11240, Note_on_c, 1, 92, 127
2, 11240, Note_on_c, 1, 95, 127
2, 11280, Note_off_c, 1, 51, 0
2, 11280, Note_on_c, 1, 60, 127
2, 11280, Note_on_c, 1, 74, 127
2, 11280, Note_on_c, 1, 79, 127
2, 11280, Note_on_c, 1, 82, 127
2, 11280, Note_on_c, 1, 86, 127
2, 11280, Note_off_c, 1, 92, 0
2, 11280, Note_off_c, 1, 95, 0
2, 11320, Note_on_c, 1, 48, 127
2, 11320, Note_on_c, 1, 55, 127
2, 11320, Note_off_c, 1, 60, 0
2, 11320, Note_off_c, 1, 74, 0
2, 11320, Note_on_c, 1, 76, 127
2, 11320, Note_off_c, 1, 82, 0
2, 11320, Note_off_c, 1, 86, 0
2, 11320, Note_on_c, 1, 89, 127
2, 11360, Note_off_c, 1, 48, 0
2, 11360, Note_off_c, 1, 55, 0
2, 11360, Note_on_c, 1, 57, 127
2, 11360, Note_on_c, 1, 64, 127
2, 11360, Note_on_c, 1, 67, 127
2, 11360, Note_off_c, 1, 76, 0
2, 11360, Note_off_c, 1, 79, 0
2, 11360, Note_off_c, 1, 89, 0
2, 11360, Note_on_c, 1, 100, 127
2, 11400, Note_on_c, 1, 56, 127
2, 11400, Note_off_c, 1, 64, 0
2, 11400, Note_off_c, 1, 67, 0
2, 11400, Note_on_c, 1, 69, 127
2, 11400, Note_off_c, 1, 100, 0
2, 11440, Note_off_c, 1, 56, 0
2, 11440, Note_off_c, 1, 57, 0
2, 11440, Note_on_c, 1, 59, 127
2, 11440, Note_on_c, 1, 64, 127
2, 11440, Note_off_c, 1, 69, 0
2, 11440, Note_on_c, 1, 73, 127
2, 11440, Note_on_c, 1, 77, 127
2, 11480, Note_on_c, 1, 40, 127
2, 11480, Note_off_c, 1, 64, 0
2, 11480, Note_on_c, 1, 71, 127
2, 11480, Note_off_c, 1, 73, 0
2, 11480, Note_off_c, 1, 77, 0
2, 11480, Note_on_c, 1, 81, 127
2, 11520, Note_on_c, 1, 38, 127
2, 11520, Note_off_c, 1, 40, 0
2, 11520, Note_on_c, 1, 50, 127
2, 11520, Note_off_c, 1, 59, 0
2, 11520, Note_on_c, 1, 64, 127
2, 11520, Note_off_c, 1, 71, 0
2, 11520, Note_on_c, 1, 76, 127
2, 11520, Note_off_c, 1, 81, 0
2, 11520, Note_on_c, 1, 88, 127
2, 11560, Note_off_c, 1, 38, 0
2, 11560, Note_off_c, 1, 50, 0
2, 11560, Note_off_c, 1, 64, 0
2, 11560, Note_on_c, 1, 66, 127
2, 11560, Note_off_c, 1, 76, 0
2, 11560, Note_on_c, 1, 77, 127
2, 11560, Note_on_c, 1, 85, 127
2, 11560, Note_off_c, 1, 88, 0
2, 11560, Note_on_c, 1, 89, 127
2, 11600, Note_on_c, 1, 30, 127
2, 11600, Note_on_c, 1, 37, 127
2, 11600, Note_on_c, 1, 52, 127
2, 11600, Note_off_c, 1, 66, 0
2, 11600, Note_on_c, 1, 67, 127
2, 11600, Note_off_c, 1, 77, 0
2, 11600, Note_off_c, 1, 85, 0
2, 11600, Note_off_c, 1, 89, 0
2, 11640, Note_off_c, 1, 30, 0
2, 11640, Note_off_c, 1, 37, 0
2, 11640, Note_on_c, 1, 48, 127
2, 11640, Note_off_c, 1, 52, 0
2, 11640, Note_on_c, 1, 57, 127
2, 11640, Note_off_c, 1, 67, 0
2, 11640, Note_on_c, 1, 72, 127
2, 11640, Note_on_c, 1, 77, 127
2, 11680, Note_on_c, 1, 42, 127
2, 11680, Note_on_c, 1, 45, 127
2, 11680, Note_off_c, 1, 48, 0
2, 11680, Note_on_c, 1, 49, 127
2, 11680, Note_on_c, 1, 54, 127
2, 11680, Note_off_c, 1, 57, 0
2, 11680, Note_off_c, 1, 72, 0
2, 11680, Note_off_c, 1, 77, 0
2, 11680, Note_on_c, 1, 78, 127
2, 11680, Note_on_c, 1, 81, 127
2, 11720, Note_off_c, 1, 42, 0
2, 11720, Note_off_c, 1, 45, 0
2, 11720, Note_off_c, 1, 49, 0
2, 11720, Note_off_c, 1, 54, 0
2, 11720, Note_on_c, 1, 56, 127
2, 11720, Note_on_c, 1, 60, 127
2, 11720, Note_on_c, 1, 65, 127
2, 11720, Note_off_c, 1, 78, 0
2, 11720, Note_off_c, 1, 81, 0
2, 11720, Note_on_c, 1, 86, 127
2, 11760, Note_off_c, 1, 56, 0
2, 11760, Note_on_c, 1, 59, 127
2, 11760, Note_off_c, 1, 60, 0
2, 11760, Note_on_c, 1, 62, 127
2, 11760, Note_on_c, 1, 70, 127
2, 11760, Note_off_c, 1, 86, 0
2, 11760, Note_on_c, 1, 91, 127
2, 11800, Note_on_c, 1, 53, 127
2, 11800, Note_on_c, 1, 58, 127
2, 11800, Note_off_c, 1, 59, 0
2, 11800, Note_on_c, 1, 61, 127
2, 11800, Note_off_c, 1, 62, 0
2, 11800, Note_on_c, 1, 64, 127
2, 11800, Note_off_c, 1, 65, 0
2, 11800, Note_off_c, 1, 70, 0
2, 11800, Note_on_c, 1, 92, 127
2, 11800, Note_on_c, 1, 94, 127
2, 11840, Note_off_c, 1, 58, 0
2, 11840, Note_on_c, 1, 59, 127
2, 11840, Note_off_c, 1, 64, 0
2, 11840, Note_on_c, 1, 77, 127
2, 11840, Note_on_c, 1, 89, 127
2, 11840, Note_off_c, 1, 91, 0
2, 11840, Note_off_c, 1, 92, 0
2, 11840, Note_off_c, 1, 94, 0
2, 11880, Note_off_c, 1, 53, 0
2, 11880, Note_on_c, 1, 54, 127
2, 11880, Note_off_c, 1, 59, 0
2, 11880, Note_on_c, 1, 60, 127
2, 11880, Note_off_c, 1, 61, 0
2, 11880, Note_off_c, 1, 77, 0
2, 11880, Note_on_c, 1, 78, 127
2, 11880, Note_on_c, 1, 84, 127
2, 11880, Note_off_c, 1, 89, 0
2, 11920, Note_on_c, 1, 50, 127
2, 11920, Note_off_c, 1, 54, 0
2, 11920, Note_on_c, 1, 55, 127
2, 11920, Note_off_c, 1, 60, 0
2, 11920, Note_on_c, 1, 69, 127
2, 11920, Note_on_c, 1, 72, 127
2, 11920, Note_off_c, 1, 78, 0
2, 11920, Note_off_c, 1, 84, 0
2, 11960, Note_on_c, 1, 53, 127
2, 11960, Note_off_c, 1, 55, 0
2, 11960, Note_off_c, 1, 69, 0
2, 11960, Note_off_c, 1, 72, 0
2, 11960, Note_on_c, 1, 81, 127
2, 11960, Note_on_c, 1, 89, 127
2, 11960, Note_on_c, 1, 93, 127
2, 12000, Note_on_c, 1, 49, 127
2, 12000, Note_off_c, 1, 50, 0
2, 12000, Note_off_c, 1, 53, 0
2, 12000, Note_on_c, 1, 55, 127
2, 12000, Note_on_c, 1, 76, 127
2, 12000, Note_on_c, 1, 79, 127
2, 12000, Note_off_c, 1, 81, 0
2, 12000, Note_on_c, 1, 88, 127
2, 12000, Note_off_c, 1, 89, 0
2, 12000, Note_off_c, 1, 93, 0
2, 12040, Note_off_c, 1, 49, 0
2, 12040, Note_off_c, 1, 55, 0
2, 12040, Note_off_c, 1, 76, 0
2, 12040, Note_off_c, 1, 79, 0
2, 12040, Note_on_c, 1, 81, 127
2, 12040, Note_on_c, 1, 91, 127
2, 12040, Note_on_c, 1, 93, 127
2, 12080, Note_on_c, 1, 49, 127
2, 12080, Note_on_c, 1, 58, 127
2, 12080, Note_on_c, 1, 65, 127
2, 12080, Note_on_c, 1, 68, 127
2, 12080, Note_on_c, 1, 72, 127
2, 12080, Note_off_c, 1, 81, 0
2, 12080, Note_off_c, 1, 88, 0
2, 12080, Note_off_c, 1, 91, 0
2, 12080, Note_off_c, 1, 93, 0
2, 12240, Note_off_c, 1, 72, 0
2, 12240, Note_on_c, 1, 73, 127
2, 12280, Note_off_c, 1, 58, 0
2, 12280, Note_on_c, 1, 59, 127
2, 12280, Note_off_c, 1, 65, 0
2, 12280, Note_on_c, 1, 67, 127
2, 12280, Note_off_c, 1, 68, 0
2, 12280, Note_on_c, 1, 71, 127
2, 12280, Note_off_c, 1, 73, 0
2, 12320, Note_on_c, 1, 39, 127
2, 12320, Note_off_c, 1, 49, 0
2, 12320, Note_off_c, 1, 59, 0
2, 12320, Note_on_c, 1, 70, 127
2, 12320, Note_off_c, 1, 71, 0
2, 12320, Note_on_c, 1, 75, 127
2, 12320, Note_on_c, 1, 79, 127
2, 12320, Note_on_c, 1, 87, 127
2, 12360, Note_off_c, 1, 39, 0
2, 12360, Note_on_c, 1, 45, 127
2, 12360, Note_on_c, 1, 49, 127
2, 12360, Note_on_c, 1, 52, 127
2, 12360, Note_on_c, 1, 57, 127
2, 12360, Note_off_c, 1, 67, 0
2, 12360, Note_off_c, 1, 70, 0
2, 12360, Note_off_c, 1, 75, 0
2, 12360, Note_off_c, 1, 79, 0
2, 12360, Note_on_c, 1, 80, 127
2, 12360, Note_off_c, 1, 87, 0
2, 12400, Note_off_c, 1, 45, 0
2, 12400, Note_off_c, 1, 49, 0
2, 12400, Note_off_c, 1, 52, 0
2, 12400, Note_off_c, 1, 57, 0
2, 12400, Note_on_c, 1, 66, 127
2, 12400, Note_on_c, 1, 69, 127
2, 12400, Note_on_c, 1, 73, 127
2, 12400, Note_off_c, 1, 80, 0
2, 12400, Note_on_c, 1, 81, 127
2, 12400, Note_on_c, 1, 93, 127
2, 12440, Note_off_c, 1, 66, 0
2, 12440, Note_off_c, 1, 69, 0
2, 12440, Note_off_c, 1, 73, 0
2, 12440, Note_off_c, 1, 81, 0
2, 12440, Note_off_c, 1, 93, 0
2, 12480, Note_on_c, 1, 45, 127
2, 12480, Note_on_c, 1, 48, 127
2, 12480, Note_on_c, 1, 57, 127
2, 12480, Note_on_c, 1, 60, 127
2, 12480, Note_on_c, 1, 64, 127
2, 12520, Note_off_c, 1, 45, 0
2, 12520, Note_off_c, 1, 48, 0
2, 12520, Note_off_c, 1, 57, 0
2, 12520, Note_off_c, 1, 60, 0
2, 12520, Note_off_c, 1, 64, 0
2, 12560, Note_on_c, 1, 46, 127
2, 12560, Note_on_c, 1, 56, 127
2, 12560, Note_on_c, 1, 58, 127
2, 12560, Note_on_c, 1, 62, 127
2, 12560, Note_on_c, 1, 65, 127
2, 12760, Note_off_c, 1, 58, 0
2, 12880, Note_off_c, 1, 46, 0
2, 12920, Note_on_c, 1, 41, 127
2, 12920, Note_on_c, 1, 48, 127
2, 12920, Note_off_c, 1, 56, 0
2, 12920, Note_off_c, 1, 62, 0
2, 12920, Note_off_c, 1, 65, 0
2, 12920, Note_on_c, 1, 67, 127
2, 12920, Note_on_c, 1, 70, 127
2, 12960, Note_on_c, 1, 37, 127
2, 12960, Note_off_c, 1, 41, 0
2, 12960, Note_off_c, 1, 48, 0
2, 12960, Note_off_c, 1, 67, 0
2, 12960, Note_on_c, 1, 79, 127
2, 13000, Note_off_c, 1, 37, 0
2, 13000, Note_off_c, 1, 70, 0
2, 13000, Note_off_c, 1, 79, 0
2, 13040, Note_on_c, 1, 48, 127
2, 13040, Note_on_c, 1, 77, 127
2, 13040, Note_on_c, 1, 83, 127
2, 13040, Note_on_c, 1, 91, 127
2, 13080, Note_off_c, 1, 48, 0
2, 13080, Note_on_c, 1, 67, 127
2, 13080, Note_off_c, 1, 77, 0
2, 13080, Note_on_c, 1, 78, 127
2, 13080, Note_on_c, 1, 79, 127
2, 13080, Note_off_c, 1, 91, 0
2, 13120, Note_on_c, 1, 48, 127
2, 13120, Note_off_c, 1, 67, 0
2, 13120, Note_on_c, 1, 77, 127
2, 13120, Note_off_c, 1, 78, 0
2, 13120, Note_off_c, 1, 79, 0
2, 13120, Note_on_c, 1, 91, 127
2, 13160, Note_off_c, 1, 48, 0
2, 13160, Note_off_c, 1, 77, 0
2, 13160, Note_off_c, 1, 83, 0
2, 13160, Note_off_c, 1, 91, 0
2, 13200, Note_on_c, 1, 57, 127
2, 13200, Note_on_c, 1, 65, 127
2, 13200, Note_on_c, 1, 69, 127
2, 13200, Note_on_c, 1, 76, 127
2, 13360, Note_on_c, 1, 36, 127
2, 13360, Note_on_c, 1, 46, 127
2, 13360, Note_off_c, 1, 57, 0
2, 13360, Note_on_c, 1, 62, 127
2, 13360, Note_off_c, 1, 65, 0
2, 13360, Note_off_c, 1, 69, 0
2, 13360, Note_off_c, 1, 76, 0
2, 13400, Note_off_c, 1, 36, 0
2, 13400, Note_off_c, 1, 46, 0
2, 13400, Note_on_c, 1, 65, 127
2, 13400, Note_on_c, 1, 69, 127
2, 13400, Note_on_c, 1, 74, 127
2, 13440, Note_on_c, 1, 57, 127
2, 13440, Note_off_c, 1, 62, 0
2, 13440, Note_off_c, 1, 74, 0
2, 13440, Note_on_c, 1, 76, 127
2, 13600, Note_on_c, 1, 74, 127
2, 13600, Note_off_c, 1, 76, 0
2, 13640, Note_off_c, 1, 57, 0
2, 13640, Note_on_c, 1, 62, 127
2, 13680, Note_on_c, 1, 57, 127
2, 13680, Note_off_c, 1, 62, 0
2, 13680, Note_off_c, 1, 74, 0
2, 13680, Note_on_c, 1, 76, 127
2, 13760, Note_on_c, 1, 74, 127
2, 13760, Note_off_c, 1, 76, 0
2, 13800, Note_off_c, 1, 57, 0
2, 13800, Note_on_c, 1, 62, 127
2, 13880, Note_off_c, 1, 62, 0
2, 13920, Note_on_c, 1, 62, 127
2, 14120, Note_off_c, 1, 62, 0
2, 14120, Note_off_c, 1, 65, 0
2, 14120, Note_off_c, 1, 69, 0
2, 14120, Note_off_c, 1, 74, 0
2, 14160, Note_on_c, 1, 42, 127
2, 14160, Note_on_c, 1, 47, 127
2, 14160, Note_on_c, 1, 51, 127
2, 14160, Note_on_c, 1, 57, 127
2, 14160, Note_on_c, 1, 59, 127
2, 14480, Note_off_c, 1, 42, 0
2, 14480, Note_off_c, 1, 47, 0
2, 14480, Note_off_c, 1, 51, 0
2, 14480, Note_off_c, 1, 57, 0
2, 14480, Note_off_c, 1, 59, 0
2, 14520, Note_on_c, 1, 42, 127
2, 14520, Note_on_c, 1, 47, 127
2, 14520, Note_on_c, 1, 51, 127
2, 14520, Note_on_c, 1, 57, 127
2, 14520, Note_on_c, 1, 59, 127
2, 14960, Note_on_c, 1, 35, 127
2, 14960, Note_off_c, 1, 42, 0
2, 14960, Note_off_c, 1, 47, 0
2, 14960, Note_off_c, 1, 51, 0
2, 14960, Note_off_c, 1, 57, 0
2, 14960, Note_off_c, 1, 59, 0
2, 15000, Note_off_c, 1, 35, 0
2, 15000, Note_on_c, 1, 42, 127
2, 15000, Note_on_c, 1, 47, 127
2, 15000, Note_on_c, 1, 54, 127
2, 15000, Note_on_c, 1, 59, 127
2, 15000, Note_on_c, 1, 63, 127
2, 15040, Note_off_c, 1, 42, 0
2, 15040, Note_off_c, 1, 47, 0
2, 15040, Note_off_c, 1, 54, 0
2, 15040, Note_off_c, 1, 59, 0
2, 15040, Note_off_c, 1, 63, 0
2, 15080, Note_on_c, 1, 49, 127
2, 15080, Note_on_c, 1, 56, 127
2, 15080, Note_on_c, 1, 64, 127
2, 15240, Note_off_c, 1, 49, 0
2, 15240, Note_off_c, 1, 56, 0
2, 15240, Note_off_c, 1, 64, 0
2, 15280, Note_on_c, 1, 47, 127
2, 15280, Note_on_c, 1, 59, 127
2, 15280, Note_on_c, 1, 63, 127
2, 15280, Note_on_c, 1, 66, 127
2, 15400, Note_off_c, 1, 47, 0
2, 15400, Note_off_c, 1, 59, 0
2, 15400, Note_off_c, 1, 63, 0
2, 15400, Note_off_c, 1, 66, 0
2, 15440, Note_on_c, 1, 52, 127
2, 15440, Note_on_c, 1, 59, 127
2, 15440, Note_on_c, 1, 64, 127
2, 15440, Note_on_c, 1, 68, 127
2, 15640, Note_off_c, 1, 52, 0
2, 15640, Note_off_c, 1, 59, 0
2, 15640, Note_off_c, 1, 64, 0
2, 15640, Note_off_c, 1, 68, 0
2, 15680, Note_on_c, 1, 47, 127
2, 15680, Note_on_c, 1, 59, 127
2, 15680, Note_on_c, 1, 63, 127
2, 15680, Note_on_c, 1, 66, 127
2, 15800, Note_off_c, 1, 63, 0
2, 15800, Note_off_c, 1, 66, 0
2, 15840, Note_on_c, 1, 63, 127
2, 15840, Note_on_c, 1, 66, 127
2, 16000, Note_off_c, 1, 47, 0
2, 16000, Note_on_c, 1, 52, 127
2, 16000, Note_off_c, 1, 63, 0
2, 16000, Note_on_c, 1, 64, 127
2, 16000, Note_off_c, 1, 66, 0
2, 16000, Note_on_c, 1, 68, 127
2, 16080, Note_off_c, 1, 52, 0
2, 16080, Note_on_c, 1, 57, 127
2, 16080, Note_off_c, 1, 59, 0
2, 16080, Note_on_c, 1, 60, 127
2, 16080, Note_on_c, 1, 63, 127
2, 16080, Note_off_c, 1, 64, 0
2, 16080, Note_off_c, 1, 68, 0
2, 16080, Note_on_c, 1, 72, 127
2, 16080, Note_on_c, 1, 78, 127
2, 16080, Note_on_c, 1, 83, 127
2, 16120, Note_off_c, 1, 57, 0
2, 16120, Note_off_c, 1, 60, 0
2, 16120, Note_off_c, 1, 63, 0
2, 16120, Note_off_c, 1, 72, 0
2, 16120, Note_off_c, 1, 78, 0
2, 16120, Note_off_c, 1, 83, 0
2, 16160, Note_on_c, 1, 35, 127
2, 16160, Note_on_c, 1, 47, 127
2, 16160, Note_on_c, 1, 69, 127
2, 16160, Note_on_c, 1, 75, 127
2, 16160, Note_on_c, 1, 79, 127
2, 16240, Note_off_c, 1, 35, 0
2, 16240, Note_off_c, 1, 47, 0
2, 16240, Note_off_c, 1, 69, 0
2, 16240, Note_off_c, 1, 75, 0
2, 16240, Note_off_c, 1, 79, 0
2, 16280, Note_on_c, 1, 35, 127
2, 16280, Note_on_c, 1, 47, 127
2, 16280, Note_on_c, 1, 69, 127
2, 16280, Note_on_c, 1, 75, 127
2, 16360, Note_off_c, 1, 35, 0
2, 16360, Note_off_c, 1, 47, 0
2, 16360, Note_off_c, 1, 69, 0
2, 16360, Note_off_c, 1, 75, 0
2, 16400, Note_on_c, 1, 38, 127
2, 16400, Note_on_c, 1, 57, 127
2, 16400, Note_on_c, 1, 60, 127
2, 16400, Note_on_c, 1, 62, 127
2, 16400, Note_on_c, 1, 66, 127
2, 16440, Note_off_c, 1, 38, 0
2, 16440, Note_off_c, 1, 57, 0
2, 16440, Note_off_c, 1, 60, 0
2, 16440, Note_off_c, 1, 62, 0
2, 16440, Note_off_c, 1, 66, 0
2, 16480, Note_on_c, 1, 36, 127
2, 16520, Note_off_c, 1, 36, 0
2, 16520, Note_on_c, 1, 38, 127
2, 16520, Note_on_c, 1, 57, 127
2, 16520, Note_on_c, 1, 60, 127
2, 16520, Note_on_c, 1, 62, 127
2, 16520, Note_on_c, 1, 66, 127
2, 16600, Note_off_c, 1, 38, 0
2, 16600, Note_off_c, 1, 57, 0
2, 16600, Note_off_c, 1, 60, 0
2, 16600, Note_off_c, 1, 62, 0
2, 16600, Note_off_c, 1, 66, 0
2, 16640, Note_on_c, 1, 42, 127
2, 16640, Note_on_c, 1, 61, 127
2, 16640, Note_on_c, 1, 66, 127
2, 16640, Note_on_c, 1, 71, 127
2, 16960, Note_off_c, 1, 71, 0
2, 17000, Note_on_c, 1, 71, 127
2, 17080, Note_off_c, 1, 71, 0
2, 17120, Note_on_c, 1, 70, 127
2, 17200, Note_off_c, 1, 42, 0
2, 17200, Note_off_c, 1, 61, 0
2, 17200, Note_off_c, 1, 66, 0
2, 17200, Note_off_c, 1, 70, 0
2, 17240, Note_on_c, 1, 37, 127
2, 17240, Note_on_c, 1, 49, 127
2, 17240, Note_on_c, 1, 56, 127
2, 17240, Note_on_c, 1, 59, 127
2, 17240, Note_on_c, 1, 68, 127
2, 17280, Note_off_c, 1, 49, 0
2, 17280, Note_on_c, 1, 65, 127
2, 17280, Note_off_c, 1, 68, 0
2, 17320, Note_off_c, 1, 37, 0
2, 17320, Note_off_c, 1, 56, 0
2, 17320, Note_off_c, 1, 59, 0
2, 17320, Note_off_c, 1, 65, 0
2, 17360, Note_on_c, 1, 37, 127
2, 17360, Note_on_c, 1, 49, 127
2, 17360, Note_on_c, 1, 56, 127
2, 17360, Note_on_c, 1, 59, 127
2, 17360, Note_on_c, 1, 68, 127
2, 17400, Note_off_c, 1, 37, 0
2, 17400, Note_off_c, 1, 49, 0
2, 17400, Note_off_c, 1, 56, 0
2, 17400, Note_off_c, 1, 59, 0
2, 17400, Note_off_c, 1, 68, 0
2, 17440, Note_on_c, 1, 37, 127
2, 17440, Note_on_c, 1, 56, 127
2, 17440, Note_on_c, 1, 59, 127
2, 17440, Note_on_c, 1, 65, 127
2, 17680, Note_on_c, 1, 40, 127
2, 17680, Note_on_c, 1, 45, 127
2, 17680, Note_on_c, 1, 49, 127
2, 17680, Note_off_c, 1, 56, 0
2, 17680, Note_off_c, 1, 59, 0
2, 17680, Note_off_c, 1, 65, 0
2, 17720, Note_off_c, 1, 40, 0
2, 17720, Note_off_c, 1, 45, 0
2, 17720, Note_off_c, 1, 49, 0
2, 17720, Note_on_c, 1, 56, 127
2, 17720, Note_on_c, 1, 59, 127
2, 17720, Note_on_c, 1, 61, 127
2, 17760, Note_off_c, 1, 61, 0
2, 17760, Note_on_c, 1, 65, 127
2, 17840, Note_off_c, 1, 37, 0
2, 17840, Note_off_c, 1, 56, 0
2, 17840, Note_off_c, 1, 59, 0
2, 17840, Note_off_c, 1, 65, 0
2, 17880, Note_on_c, 1, 49, 127
2, 17880, Note_on_c, 1, 56, 127
2, 17880, Note_on_c, 1, 61, 127
2, 17880, Note_on_c, 1, 65, 127
2, 17880, Note_on_c, 1, 73, 127
2, 18280, Note_on_c, 1, 47, 127
2, 18280, Note_off_c, 1, 49, 0
2, 18280, Note_off_c, 1, 56, 0
2, 18280, Note_on_c, 1, 59, 127
2, 18280, Note_off_c, 1, 61, 0
2, 18280, Note_off_c, 1, 65, 0
2, 18280, Note_on_c, 1, 66, 127
2, 18280, Note_on_c, 1, 76, 127
2, 18320, Note_off_c, 1, 47, 0
2, 18320, Note_off_c, 1, 59, 0
2, 18320, Note_off_c, 1, 66, 0
2, 18320, Note_off_c, 1, 73, 0
2, 18320, Note_off_c, 1, 76, 0
2, 18360, Note_on_c, 1, 49, 127
2, 18360, Note_on_c, 1, 56, 127
2, 18360, Note_on_c, 1, 61, 127
2, 18360, Note_on_c, 1, 65, 127
2, 18360, Note_on_c, 1, 73, 127
2, 18600, Note_off_c, 1, 49, 0
2, 18600, Note_off_c, 1, 56, 0
2, 18600, Note_off_c, 1, 61, 0
2, 18600, Note_off_c, 1, 65, 0
2, 18600, Note_off_c, 1, 73, 0
2, 18640, Note_on_c, 1, 61, 127
2, 18760, Note_off_c, 1, 61, 0
2, 18800, Note_on_c, 1, 61, 127
2, 18920, Note_off_c, 1, 61, 0
2, 18960, Note_on_c, 1, 65, 127
2, 19000, Note_on_c, 1, 61, 127
2, 19160, Note_off_c, 1, 61, 0
2, 19200, Note_on_c, 1, 56, 127
2, 19240, Note_off_c, 1, 56, 0
2, 19240, Note_on_c, 1, 68, 127
2, 19360, Note_off_c, 1, 68, 0
2, 19400, Note_on_c, 1, 71, 127
2, 19440, Note_off_c, 1, 65, 0
2, 19560, Note_off_c, 1, 71, 0
2, 19600, Note_on_c, 1, 70, 127
2, 19640, Note_on_c, 1, 61, 127
2, 19640, Note_on_c, 1, 63, 127
2, 19640, Note_off_c, 1, 70, 0
2, 19680, Note_off_c, 1, 63, 0
2, 19800, Note_off_c, 1, 61, 0
2, 19840, Note_on_c, 1, 61, 127
2, 19840, Note_on_c, 1, 69, 127
2, 19960, Note_off_c, 1, 69, 0
2, 20040, Note_off_c, 1, 61, 0
2, 20080, Note_on_c, 1, 68, 127
2, 20080, Note_on_c, 1, 71, 127
2, 20240, Note_on_c, 1, 77, 127
2, 20280, Note_off_c, 1, 68, 0
2, 20280, Note_off_c, 1, 71, 0
2, 20280, Note_off_c, 1, 77, 0
2, 20320, Note_on_c, 1, 54, 127
2, 20320, Note_on_c, 1, 69, 127
2, 20320, Note_on_c, 1, 78, 127
2, 20360, Note_off_c, 1, 54, 0
2, 20400, Note_off_c, 1, 69, 0
2, 20400, Note_off_c, 1, 78, 0
2, 20440, Note_on_c, 1, 54, 127
2, 20440, Note_on_c, 1, 69, 127
2, 20440, Note_on_c, 1, 78, 127
2, 20480, Note_off_c, 1, 54, 0
2, 20600, Note_off_c, 1, 78, 0
2, 20640, Note_on_c, 1, 61, 127
2, 20640, Note_on_c, 1, 78, 127
2, 20680, Note_off_c, 1, 61, 0
2, 20720, Note_off_c, 1, 69, 0
2, 20720, Note_off_c, 1, 78, 0
2, 20760, Note_on_c, 1, 53, 127
2, 20760, Note_on_c, 1, 69, 127
2, 20760, Note_on_c, 1, 77, 127
2, 20880, Note_off_c, 1, 53, 0
2, 20880, Note_off_c, 1, 69, 0
2, 20880, Note_off_c, 1, 77, 0
2, 20960, Note_on_c, 1, 66, 127
2, 21080, Note_off_c, 1, 66, 0
2, 21120, Note_on_c, 1, 69, 127
2, 21480, Note_on_c, 1, 38, 127
2, 21480, Note_on_c, 1, 78, 127
2, 21520, Note_off_c, 1, 38, 0
2, 21520, Note_off_c, 1, 69, 0
2, 21520, Note_off_c, 1, 78, 0
2, 21560, Note_on_c, 1, 44, 127
2, 21560, Note_on_c, 1, 52, 127
2, 21560, Note_on_c, 1, 56, 127
2, 21560, Note_on_c, 1, 64, 127
2, 21560, Note_on_c, 1, 68, 127
2, 21560, Note_on_c, 1, 73, 127
2, 21560, Note_on_c, 1, 76, 127
2, 21880, Note_off_c, 1, 44, 0
2, 21880, Note_off_c, 1, 52, 0
2, 21880, Note_off_c, 1, 56, 0
2, 21880, Note_off_c, 1, 64, 0
2, 21880, Note_off_c, 1, 68, 0
2, 21880, Note_off_c, 1, 73, 0
2, 21880, Note_off_c, 1, 76, 0
2, 21920, Note_on_c, 1, 31, 127
2, 21920, Note_on_c, 1, 43, 127
2, 21920, Note_on_c, 1, 71, 127
2, 22080, Note_off_c, 1, 31, 0
2, 22080, Note_off_c, 1, 43, 0
2, 22080, Note_on_c, 1, 56, 127
2, 22080, Note_on_c, 1, 61, 127
2, 22080, Note_on_c, 1, 67, 127
2, 22080, Note_off_c, 1, 71, 0
2, 22120, Note_on_c, 1, 31, 127
2, 22120, Note_on_c, 1, 43, 127
2, 22120, Note_off_c, 1, 56, 0
2, 22120, Note_off_c, 1, 61, 0
2, 22120, Note_off_c, 1, 67, 0
2, 22120, Note_on_c, 1, 71, 127
2, 22280, Note_on_c, 1, 67, 127
2, 22480, Note_off_c, 1, 31, 0
2, 22480, Note_off_c, 1, 43, 0
2, 22480, Note_on_c, 1, 50, 127
2, 22480, Note_on_c, 1, 60, 127
2, 22480, Note_on_c, 1, 62, 127
2, 22480, Note_on_c, 1, 66, 127
2, 22480, Note_off_c, 1, 67, 0
2, 22480, Note_off_c, 1, 71, 0
2, 22520, Note_off_c, 1, 50, 0
2, 22520, Note_off_c, 1, 60, 0
2, 22520, Note_off_c, 1, 62, 0
2, 22520, Note_off_c, 1, 66, 0
2, 22600, Note_on_c, 1, 45, 127
2, 22600, Note_on_c, 1, 52, 127
2, 22600, Note_on_c, 1, 61, 127
2, 22600, Note_on_c, 1, 67, 127
2, 22600, Note_on_c, 1, 69, 127
2, 24320, Note_off_c, 1, 45, 0
2, 24320, Note_off_c, 1, 52, 0
2, 24320, Note_off_c, 1, 61, 0
2, 24320, Note_off_c, 1, 67, 0
2, 24320, Note_off_c, 1, 69, 0
2, 24400, Note_on_c, 1, 57, 127
2, 24480, Note_off_c, 1, 57, 0
2, 24480, Note_on_c, 1, 62, 127
2, 24520, Note_on_c, 1, 61, 127
2, 24520, Note_off_c, 1, 62, 0
2, 24600, Note_off_c, 1, 61, 0
2, 24600, Note_on_c, 1, 65, 127
2, 24640, Note_off_c, 1, 65, 0
2, 24640, Note_on_c, 1, 66, 127
2, 24720, Note_off_c, 1, 66, 0
2, 24760, Note_on_c, 1, 61, 127
2, 24800, Note_off_c, 1, 61, 0
2, 24800, Note_on_c, 1, 62, 127
2, 24840, Note_on_c, 1, 61, 127
2, 24840, Note_off_c, 1, 62, 0
2, 24880, Note_off_c, 1, 61, 0
2, 24880, Note_on_c, 1, 62, 127
2, 25160, Note_off_c, 1, 62, 0
2, 25200, Note_on_c, 1, 66, 127
2, 25240, Note_off_c, 1, 66, 0
2, 25240, Note_on_c, 1, 69, 127
2, 25960, Note_off_c, 1, 69, 0
2, 26000, Note_on_c, 1, 66, 127
2, 26040, Note_off_c, 1, 66, 0
2, 26080, Note_on_c, 1, 64, 127
2, 26160, Note_off_c, 1, 64, 0
2, 26200, Note_on_c, 1, 64, 127
2, 26440, Note_off_c, 1, 64, 0
2, 26480, Note_on_c, 1, 61, 127
2, 26840, Note_off_c, 1, 61, 0
2, 26880, Note_on_c, 1, 57, 127
2, 27320, Note_off_c, 1, 57, 0
2, 27360, Note_on_c, 1, 43, 127
2, 27360, Note_on_c, 1, 72, 127
2, 28320, Note_off_c, 1, 43, 0
2, 28320, Note_off_c, 1, 72, 0
2, 28360, Note_on_c, 1, 43, 127
2, 28360, Note_on_c, 1, 72, 127
2, 28640, Note_off_c, 1, 43, 0
2, 28640, Note_off_c, 1, 72, 0
2, 28640, Note_on_c, 1, 74, 127
2, 28680, Note_on_c, 1, 50, 127
2, 28680, Note_on_c, 1, 60, 127
2, 28680, Note_on_c, 1, 69, 127
2, 28680, Note_off_c, 1, 74, 0
2, 29120, Note_off_c, 1, 60, 0
2, 29160, Note_on_c, 1, 48, 127
2, 29160, Note_off_c, 1, 50, 0
2, 29160, Note_on_c, 1, 65, 127
2, 29600, Note_off_c, 1, 65, 0
2, 29600, Note_off_c, 1, 69, 0
2, 29640, Note_on_c, 1, 52, 127
2, 29640, Note_on_c, 1, 67, 127
2, 30000, Note_off_c, 1, 52, 0
2, 30000, Note_off_c, 1, 67, 0
2, 30040, Note_on_c, 1, 57, 127
2, 30440, Note_off_c, 1, 57, 0
2, 30480, Note_on_c, 1, 57, 127
2, 30640, Note_off_c, 1, 48, 0
2, 30640, Note_off_c, 1, 57, 0
2, 30680, Note_on_c, 1, 48, 127
2, 30680, Note_on_c, 1, 57, 127
2, 31120, Note_off_c, 1, 57, 0
2, 31160, Note_on_c, 1, 57, 127
2, 31360, Note_off_c, 1, 57, 0
2, 31360, Note_on_c, 1, 60, 127
2, 31560, Note_off_c, 1, 60, 0
2, 31600, Note_on_c, 1, 50, 127
2, 31720, Note_on_c, 1, 44, 127
2, 31720, Note_off_c, 1, 48, 0
2, 31720, Note_off_c, 1, 50, 0
2, 31720, Note_on_c, 1, 51, 127
2, 31720, Note_on_c, 1, 73, 127
2, 31720, Note_on_c, 1, 78, 127
2, 31760, Note_off_c, 1, 44, 0
2, 31760, Note_on_c, 1, 49, 127
2, 31760, Note_off_c, 1, 51, 0
2, 31760, Note_on_c, 1, 57, 127
2, 31760, Note_on_c, 1, 66, 127
2, 31760, Note_on_c, 1, 72, 127
2, 31760, Note_off_c, 1, 73, 0
2, 31760, Note_on_c, 1, 76, 127
2, 31760, Note_off_c, 1, 78, 0
2, 31800, Note_off_c, 1, 57, 0
2, 31800, Note_on_c, 1, 59, 127
2, 31800, Note_on_c, 1, 61, 127
2, 31800, Note_off_c, 1, 66, 0
2, 31800, Note_off_c, 1, 72, 0
2, 31800, Note_off_c, 1, 76, 0
2, 31840, Note_on_c, 1, 43, 127
2, 31840, Note_off_c, 1, 49, 0
2, 31840, Note_on_c, 1, 50, 127
2, 31840, Note_off_c, 1, 59, 0
2, 31840, Note_off_c, 1, 61, 0
2, 31840, Note_on_c, 1, 70, 127
2, 31840, Note_on_c, 1, 74, 127
2, 31840, Note_on_c, 1, 79, 127
2, 31960, Note_off_c, 1, 43, 0
2, 31960, Note_off_c, 1, 50, 0
2, 31960, Note_off_c, 1, 70, 0
2, 31960, Note_off_c, 1, 74, 0
2, 31960, Note_off_c, 1, 79, 0
2, 32000, Note_on_c, 1, 54, 127
2, 32000, Note_on_c, 1, 57, 127
2, 32040, Note_on_c, 1, 50, 127
2, 32040, Note_off_c, 1, 54, 0
2, 32040, Note_off_c, 1, 57, 0
2, 32040, Note_on_c, 1, 58, 127
2, 32040, Note_on_c, 1, 77, 127
2, 32080, Note_off_c, 1, 50, 0
2, 32080, Note_on_c, 1, 54, 127
2, 32080, Note_off_c, 1, 58, 0
2, 32080, Note_on_c, 1, 60, 127
2, 32080, Note_on_c, 1, 62, 127
2, 32080, Note_on_c, 1, 68, 127
2, 32080, Note_off_c, 1, 77, 0
2, 32120, Note_on_c, 1, 42, 127
2, 32120, Note_on_c, 1, 49, 127
2, 32120, Note_off_c, 1, 54, 0
2, 32120, Note_on_c, 1, 58, 127
2, 32120, Note_off_c, 1, 60, 0
2, 32120, Note_off_c, 1, 62, 0
2, 32120, Note_on_c, 1, 66, 127
2, 32120, Note_off_c, 1, 68, 0
2, 32120, Note_on_c, 1, 73, 127
2, 32120, Note_on_c, 1, 78, 127
2, 32120, Note_on_c, 1, 82, 127
2, 32120, Note_on_c, 1, 85, 127
2, 32440, Note_off_c, 1, 42, 0
2, 32440, Note_off_c, 1, 66, 0
2, 32440, Note_off_c, 1, 78, 0
2, 32440, Note_off_c, 1, 82, 0
2, 32440, Note_off_c, 1, 85, 0
2, 32480, Note_on_c, 1, 37, 127
2, 32480, Note_off_c, 1, 49, 0
2, 32480, Note_off_c, 1, 58, 0
2, 32480, Note_on_c, 1, 71, 127
2, 32480, Note_off_c, 1, 73, 0
2, 32480, Note_on_c, 1, 76, 127
2, 32480, Note_on_c, 1, 82, 127
2, 32520, Note_off_c, 1, 37, 0
2, 32520, Note_on_c, 1, 56, 127
2, 32520, Note_on_c, 1, 59, 127
2, 32520, Note_on_c, 1, 63, 127
2, 32520, Note_off_c, 1, 71, 0
2, 32520, Note_on_c, 1, 75, 127
2, 32520, Note_off_c, 1, 76, 0
2, 32520, Note_on_c, 1, 80, 127
2, 32520, Note_off_c, 1, 82, 0
2, 32560, Note_off_c, 1, 56, 0
2, 32560, Note_off_c, 1, 59, 0
2, 32560, Note_off_c, 1, 63, 0
2, 32560, Note_on_c, 1, 65, 127
2, 32560, Note_off_c, 1, 75, 0
2, 32560, Note_on_c, 1, 77, 127
2, 32560, Note_on_c, 1, 79, 127
2, 32560, Note_off_c, 1, 80, 0
2, 32560, Note_on_c, 1, 86, 127
2, 32560, Note_on_c, 1, 89, 127
2, 32600, Note_on_c, 1, 45, 127
2, 32600, Note_on_c, 1, 52, 127
2, 32600, Note_on_c, 1, 62, 127
2, 32600, Note_off_c, 1, 65, 0
2, 32600, Note_on_c, 1, 71, 127
2, 32600, Note_off_c, 1, 77, 0
2, 32600, Note_off_c, 1, 79, 0
2, 32600, Note_off_c, 1, 86, 0
2, 32600, Note_on_c, 1, 88, 127
2, 32600, Note_off_c, 1, 89, 0
2, 32640, Note_off_c, 1, 45, 0
2, 32640, Note_off_c, 1, 52, 0
2, 32640, Note_off_c, 1, 62, 0
2, 32640, Note_on_c, 1, 68, 127
2, 32640, Note_off_c, 1, 71, 0
2, 32640, Note_on_c, 1, 73, 127
2, 32640, Note_on_c, 1, 76, 127
2, 32640, Note_on_c, 1, 85, 127
2, 32640, Note_off_c, 1, 88, 0
2, 32680, Note_off_c, 1, 68, 0
2, 32680, Note_off_c, 1, 73, 0
2, 32680, Note_off_c, 1, 76, 0
2, 32680, Note_off_c, 1, 85, 0
2, 32720, Note_on_c, 1, 51, 127
2, 32720, Note_on_c, 1, 56, 127
2, 32720, Note_on_c, 1, 61, 127
2, 32720, Note_on_c, 1, 63, 127
2, 32720, Note_on_c, 1, 68, 127
2, 32720, Note_on_c, 1, 71, 127
2, 32760, Note_off_c, 1, 51, 0
2, 32760, Note_on_c, 1, 55, 127
2, 32760, Note_off_c, 1, 56, 0
2, 32760, Note_on_c, 1, 59, 127
2, 32760, Note_off_c, 1, 61, 0
2, 32760, Note_on_c, 1, 62, 127
2, 32760, Note_off_c, 1, 63, 0
2, 32760, Note_off_c, 1, 68, 0
2, 32760, Note_off_c, 1, 71, 0
2, 32760, Note_on_c, 1, 98, 127
2, 32800, Note_off_c, 1, 55, 0
2, 32800, Note_on_c, 1, 61, 127
2, 32800, Note_off_c, 1, 62, 0
2, 32800, Note_on_c, 1, 78, 127
2, 32800, Note_off_c, 1, 98, 0
2, 32840, Note_on_c, 1, 43, 127
2, 32840, Note_on_c, 1, 48, 127
2, 32840, Note_on_c, 1, 57, 127
2, 32840, Note_off_c, 1, 59, 0
2, 32840, Note_off_c, 1, 61, 0
2, 32840, Note_on_c, 1, 62, 127
2, 32840, Note_off_c, 1, 78, 0
2, 32880, Note_off_c, 1, 43, 0
2, 32880, Note_off_c, 1, 48, 0
2, 32880, Note_on_c, 1, 54, 127
2, 32880, Note_on_c, 1, 59, 127
2, 32880, Note_off_c, 1, 62, 0
2, 32920, Note_off_c, 1, 54, 0
2, 32920, Note_off_c, 1, 59, 0
2, 32920, Note_on_c, 1, 61, 127
2, 32920, Note_on_c, 1, 66, 127
2, 32920, Note_on_c, 1, 83, 127
2, 32920, Note_on_c, 1, 95, 127
2, 32960, Note_off_c, 1, 57, 0
2, 32960, Note_on_c, 1, 58, 127
2, 32960, Note_on_c, 1, 73, 127
2, 32960, Note_on_c, 1, 77, 127
2, 32960, Note_off_c, 1, 83, 0
2, 32960, Note_on_c, 1, 85, 127
2, 32960, Note_off_c, 1, 95, 0
2, 33000, Note_on_c, 1, 37, 127
2, 33000, Note_on_c, 1, 49, 127
2, 33000, Note_off_c, 1, 58, 0
2, 33000, Note_off_c, 1, 61, 0
2, 33000, Note_off_c, 1, 66, 0
2, 33000, Note_on_c, 1, 67, 127
2, 33000, Note_off_c, 1, 77, 0
2, 33000, Note_off_c, 1, 85, 0
2, 33040, Note_on_c, 1, 35, 127
2, 33040, Note_off_c, 1, 37, 0
2, 33040, Note_on_c, 1, 47, 127
2, 33040, Note_off_c, 1, 49, 0
2, 33040, Note_off_c, 1, 67, 0
2, 33040, Note_on_c, 1, 68, 127
2, 33040, Note_off_c, 1, 73, 0
2, 33040, Note_on_c, 1, 74, 127
2, 33040, Note_on_c, 1, 78, 127
2, 33040, Note_on_c, 1, 80, 127
2, 33080, Note_on_c, 1, 34, 127
2, 33080, Note_off_c, 1, 35, 0
2, 33080, Note_on_c, 1, 38, 127
2, 33080, Note_on_c, 1, 41, 127
2, 33080, Note_off_c, 1, 47, 0
2, 33080, Note_on_c, 1, 53, 127
2, 33080, Note_on_c, 1, 58, 127
2, 33080, Note_off_c, 1, 68, 0
2, 33080, Note_off_c, 1, 74, 0
2, 33080, Note_off_c, 1, 78, 0
2, 33080, Note_off_c, 1, 80, 0
2, 33120, Note_off_c, 1, 34, 0
2, 33120, Note_off_c, 1, 38, 0
2, 33120, Note_off_c, 1, 41, 0
2, 33120, Note_on_c, 1, 50, 127
2, 33120, Note_off_c, 1, 53, 0
2, 33120, Note_on_c, 1, 57, 127
2, 33120, Note_off_c, 1, 58, 0
2, 33120, Note_on_c, 1, 61, 127
2, 33120, Note_on_c, 1, 66, 127
2, 33120, Note_on_c, 1, 71, 127
2, 33160, Note_off_c, 1, 50, 0
2, 33160, Note_on_c, 1, 54, 127
2, 33160, Note_off_c, 1, 57, 0
2, 33160, Note_off_c, 1, 61, 0
2, 33160, Note_on_c, 1, 62, 127
2, 33160, Note_off_c, 1, 66, 0
2, 33160, Note_on_c, 1, 69, 127
2, 33160, Note_off_c, 1, 71, 0
2, 33160, Note_on_c, 1, 78, 127
2, 33160, Note_on_c, 1, 81, 127
2, 33200, Note_on_c, 1, 47, 127
2, 33200, Note_on_c, 1, 59, 127
2, 33200, Note_off_c, 1, 62, 0
2, 33200, Note_off_c, 1, 69, 0
2, 33200, Note_on_c, 1, 75, 127
2, 33200, Note_off_c, 1, 78, 0
2, 33200, Note_on_c, 1, 83, 127
2, 33200, Note_on_c, 1, 87, 127
2, 33240, Note_on_c, 1, 42, 127
2, 33240, Note_off_c, 1, 47, 0
2, 33240, Note_on_c, 1, 50, 127
2, 33240, Note_off_c, 1, 59, 0
2, 33240, Note_off_c, 1, 75, 0
2, 33240, Note_off_c, 1, 81, 0
2, 33240, Note_off_c, 1, 83, 0
2, 33240, Note_off_c, 1, 87, 0
2, 33280, Note_off_c, 1, 42, 0
2, 33280, Note_off_c, 1, 50, 0
2, 33280, Note_off_c, 1, 54, 0
2, 33280, Note_on_c, 1, 68, 127
2, 33280, Note_on_c, 1, 76, 127
2, 33280, Note_on_c, 1, 79, 127
2, 33280, Note_on_c, 1, 84, 127
2, 33320, Note_on_c, 1, 40, 127
2, 33320, Note_on_c, 1, 52, 127
2, 33320, Note_off_c, 1, 68, 0
2, 33320, Note_on_c, 1, 74, 127
2, 33320, Note_off_c, 1, 76, 0
2, 33320, Note_off_c, 1, 79, 0
2, 33360, Note_off_c, 1, 40, 0
2, 33360, Note_off_c, 1, 52, 0
2, 33360, Note_on_c, 1, 68, 127
2, 33360, Note_off_c, 1, 74, 0
2, 33360, Note_off_c, 1, 84, 0
2, 33360, Note_on_c, 1, 85, 127
2, 33400, Note_on_c, 1, 63, 127
2, 33400, Note_on_c, 1, 66, 127
2, 33400, Note_off_c, 1, 85, 0
2, 33400, Note_on_c, 1, 92, 127
2, 33440, Note_on_c, 1, 47, 127
2, 33440, Note_on_c, 1, 61, 127
2, 33440, Note_off_c, 1, 63, 0
2, 33440, Note_on_c, 1, 65, 127
2, 33440, Note_off_c, 1, 66, 0
2, 33440, Note_on_c, 1, 80, 127
2, 33440, Note_off_c, 1, 92, 0
2, 33480, Note_on_c, 1, 52, 127
2, 33480, Note_off_c, 1, 61, 0
2, 33480, Note_off_c, 1, 65, 0
2, 33480, Note_off_c, 1, 68, 0
2, 33480, Note_on_c, 1, 70, 127
2, 33480, Note_on_c, 1, 73, 127
2, 33480, Note_off_c, 1, 80, 0
2, 33520, Note_on_c, 1, 36, 127
2, 33520, Note_off_c, 1, 47, 0
2, 33520, Note_on_c, 1, 56, 127
2, 33520, Note_on_c, 1, 61, 127
2, 33520, Note_off_c, 1, 70, 0
2, 33520, Note_off_c, 1, 73, 0
2, 33560, Note_off_c, 1, 36, 0
2, 33560, Note_on_c, 1, 37, 127
2, 33560, Note_on_c, 1, 49, 127
2, 33560, Note_off_c, 1, 52, 0
2, 33560, Note_off_c, 1, 56, 0
2, 33560, Note_on_c, 1, 58, 127
2, 33560, Note_off_c, 1, 61, 0
2, 33560, Note_on_c, 1, 63, 127
2, 33560, Note_on_c, 1, 67, 127
2, 33600, Note_on_c, 1, 34, 127
2, 33600, Note_off_c, 1, 37, 0
2, 33600, Note_off_c, 1, 49, 0
2, 33600, Note_on_c, 1, 53, 127
2, 33600, Note_on_c, 1, 62, 127
2, 33600, Note_off_c, 1, 63, 0
2, 33600, Note_off_c, 1, 67, 0
2, 33600, Note_on_c, 1, 86, 127
2, 33640, Note_off_c, 1, 34, 0
2, 33640, Note_on_c, 1, 37, 127
2, 33640, Note_on_c, 1, 49, 127
2, 33640, Note_off_c, 1, 53, 0
2, 33640, Note_off_c, 1, 58, 0
2, 33640, Note_off_c, 1, 62, 0
2, 33640, Note_off_c, 1, 86, 0
2, 33640, Note_on_c, 1, 88, 127
2, 33640, Note_on_c, 1, 92, 127
2, 33640, Note_on_c, 1, 100, 127
2, 33680, Note_off_c, 1, 37, 0
2, 33680, Note_off_c, 1, 49, 0
2, 33680, Note_on_c, 1, 58, 127
2, 33680, Note_on_c, 1, 61, 127
2, 33680, Note_on_c, 1, 66, 127
2, 33680, Note_on_c, 1, 70, 127
2, 33680, Note_on_c, 1, 85, 127
2, 33680, Note_off_c, 1, 88, 0
2, 33680, Note_off_c, 1, 92, 0
2, 33680, Note_off_c, 1, 100, 0
2, 33720, Note_on_c, 1, 37, 127
2, 33720, Note_on_c, 1, 53, 127
2, 33720, Note_off_c, 1, 58, 0
2, 33720, Note_on_c, 1, 59, 127
2, 33720, Note_off_c, 1, 61, 0
2, 33720, Note_off_c, 1, 66, 0
2, 33720, Note_off_c, 1, 85, 0
2, 33760, Note_off_c, 1, 37, 0
2, 33760, Note_off_c, 1, 53, 0
2, 33760, Note_on_c, 1, 55, 127
2, 33760, Note_on_c, 1, 58, 127
2, 33760, Note_off_c, 1, 59, 0
2, 33760, Note_on_c, 1, 62, 127
2, 33760, Note_off_c, 1, 70, 0
2, 33760, Note_on_c, 1, 77, 127
2, 33800, Note_on_c, 1, 43, 127
2, 33800, Note_on_c, 1, 48, 127
2, 33800, Note_off_c, 1, 58, 0
2, 33800, Note_on_c, 1, 60, 127
2, 33800, Note_off_c, 1, 62, 0
2, 33800, Note_on_c, 1, 63, 127
2, 33800, Note_on_c, 1, 75, 127
2, 33800, Note_off_c, 1, 77, 0
2, 33800, Note_on_c, 1, 81, 127
2, 33800, Note_on_c, 1, 87, 127
2, 33840, Note_on_c, 1, 41, 127
2, 33840, Note_off_c, 1, 43, 0
2, 33840, Note_off_c, 1, 48, 0
2, 33840, Note_off_c, 1, 55, 0
2, 33840, Note_off_c, 1, 60, 0
2, 33840, Note_off_c, 1, 63, 0
2, 33840, Note_on_c, 1, 71, 127
2, 33840, Note_off_c, 1, 75, 0
2, 33840, Note_off_c, 1, 87, 0
2, 33880, Note_off_c, 1, 41, 0
2, 33880, Note_on_c, 1, 59, 127
2, 33880, Note_on_c, 1, 62, 127
2, 33880, Note_on_c, 1, 65, 127
2, 33880, Note_on_c, 1, 68, 127
2, 33880, Note_off_c, 1, 71, 0
2, 33880, Note_off_c, 1, 81, 0
2, 33880, Note_on_c, 1, 98, 127
2, 33920, Note_off_c, 1, 62, 0
2, 33920, Note_on_c, 1, 63, 127
2, 33920, Note_off_c, 1, 65, 0
2, 33920, Note_on_c, 1, 66, 127
2, 33920, Note_off_c, 1, 68, 0
2, 33920, Note_on_c, 1, 71, 127
2, 33920, Note_on_c, 1, 75, 127
2, 33920, Note_on_c, 1, 83, 127
2, 33920, Note_off_c, 1, 98, 0
2, 33960, Note_on_c, 1, 36, 127
2, 33960, Note_on_c, 1, 43, 127
2, 33960, Note_off_c, 1, 59, 0
2, 33960, Note_off_c, 1, 63, 0
2, 33960, Note_off_c, 1, 66, 0
2, 33960, Note_off_c, 1, 71, 0
2, 33960, Note_on_c, 1, 78, 127
2, 33960, Note_on_c, 1, 79, 127
2, 33960, Note_off_c, 1, 83, 0
2, 33960, Note_on_c, 1, 84, 127
2, 34000, Note_off_c, 1, 36, 0
2, 34000, Note_off_c, 1, 43, 0
2, 34000, Note_on_c, 1, 58, 127
2, 34000, Note_on_c, 1, 68, 127
2, 34000, Note_off_c, 1, 75, 0
2, 34000, Note_off_c, 1, 78, 0
2, 34000, Note_off_c, 1, 79, 0
2, 34000, Note_off_c, 1, 84, 0
2, 34000, Note_on_c, 1, 94, 127
2, 34000, Note_on_c, 1, 101, 127
2, 34040, Note_on_c, 1, 32, 127
2, 34040, Note_on_c, 1, 56, 127
2, 34040, Note_off_c, 1, 58, 0
2, 34040, Note_on_c, 1, 61, 127
2, 34040, Note_on_c, 1, 65, 127
2, 34040, Note_off_c, 1, 68, 0
2, 34040, Note_off_c, 1, 94, 0
2, 34040, Note_off_c, 1, 101, 0
2, 34080, Note_off_c, 1, 32, 0
2, 34080, Note_on_c, 1, 60, 127
2, 34080, Note_off_c, 1, 61, 0
2, 34080, Note_off_c, 1, 65, 0
2, 34080, Note_on_c, 1, 66, 127
2, 34080, Note_on_c, 1, 68, 127
2, 34080, Note_on_c, 1, 85, 127
2, 34120, Note_on_c, 1, 42, 127
2, 34120, Note_on_c, 1, 47, 127
2, 34120, Note_on_c, 1, 51, 127
2, 34120, Note_off_c, 1, 56, 0
2, 34120, Note_off_c, 1, 60, 0
2, 34120, Note_off_c, 1, 66, 0
2, 34120, Note_off_c, 1, 68, 0
2, 34120, Note_on_c, 1, 80, 127
2, 34120, Note_off_c, 1, 85, 0
2, 34160, Note_off_c, 1, 42, 0
2, 34160, Note_off_c, 1, 47, 0
2, 34160, Note_off_c, 1, 51, 0
2, 34160, Note_on_c, 1, 58, 127
2, 34160, Note_on_c, 1, 63, 127
2, 34160, Note_on_c, 1, 67, 127
2, 34160, Note_off_c, 1, 80, 0
2, 34160, Note_on_c, 1, 93, 127
2, 34200, Note_off_c, 1, 58, 0
2, 34200, Note_off_c, 1, 63, 0
2, 34200, Note_off_c, 1, 67, 0
2, 34200, Note_on_c, 1, 81, 127
2, 34200, Note_on_c, 1, 83, 127
2, 34200, Note_on_c, 1, 86, 127
2, 34200, Note_on_c, 1, 89, 127
2, 34240, Note_on_c, 1, 80, 127
2, 34240, Note_off_c, 1, 81, 0
2, 34240, Note_off_c, 1, 83, 0
2, 34240, Note_on_c, 1, 84, 127
2, 34240, Note_off_c, 1, 86, 0
2, 34240, Note_off_c, 1, 89, 0
2, 34240, Note_off_c, 1, 93, 0
2, 34240, Note_on_c, 1, 96, 127
2, 34240, Note_on_c, 1, 97, 127
2, 34280, Note_off_c, 1, 80, 0
2, 34280, Note_off_c, 1, 84, 0
2, 34280, Note_off_c, 1, 96, 0
2, 34280, Note_off_c, 1, 97, 0
2, 34320, Note_on_c, 1, 45, 127
2, 34720, Note_off_c, 1, 45, 0
2, 34760, Note_on_c, 1, 45, 127
2, 34840, Note_on_c, 1, 57, 127
2, 34840, Note_on_c, 1, 73, 127
2, 34840, Note_on_c, 1, 79, 127
2, 35080, Note_off_c, 1, 45, 0
2, 35080, Note_on_c, 1, 48, 127
2, 35080, Note_on_c, 1, 50, 127
2, 35080, Note_on_c, 1, 54, 127
2, 35080, Note_off_c, 1, 57, 0
2, 35080, Note_on_c, 1, 60, 127
2, 35080, Note_on_c, 1, 72, 127
2, 35080, Note_off_c, 1, 73, 0
2, 35080, Note_on_c, 1, 74, 127
2, 35080, Note_on_c, 1, 78, 127
2, 35080, Note_off_c, 1, 79, 0
2, 35080, Note_on_c, 1, 84, 127
2, 35120, Note_on_c, 1, 45, 127
2, 35120, Note_off_c, 1, 48, 0
2, 35120, Note_off_c, 1, 50, 0
2, 35120, Note_off_c, 1, 54, 0
2, 35120, Note_on_c, 1, 57, 127
2, 35120, Note_off_c, 1, 60, 0
2, 35120, Note_off_c, 1, 72, 0
2, 35120, Note_on_c, 1, 73, 127
2, 35120, Note_off_c, 1, 74, 0
2, 35120, Note_off_c, 1, 78, 0
2, 35120, Note_on_c, 1, 79, 127
2, 35120, Note_off_c, 1, 84, 0
2, 35320, Note_off_c, 1, 45, 0
2, 35320, Note_on_c, 1, 48, 127
2, 35320, Note_on_c, 1, 53, 127
2, 35320, Note_off_c, 1, 57, 0
2, 35320, Note_on_c, 1, 60, 127
2, 35320, Note_off_c, 1, 73, 0
2, 35320, Note_on_c, 1, 89, 127
2, 35320, Note_on_c, 1, 91, 127
2, 35360, Note_off_c, 1, 48, 0
2, 35360, Note_off_c, 1, 53, 0
2, 35360, Note_off_c, 1, 60, 0
2, 35360, Note_on_c, 1, 62, 127
2, 35360, Note_on_c, 1, 64, 127
2, 35360, Note_on_c, 1, 67, 127
2, 35360, Note_off_c, 1, 79, 0
2, 35360, Note_on_c, 1, 86, 127
2, 35360, Note_off_c, 1, 89, 0
2, 35360, Note_off_c, 1, 91, 0
2, 35400, Note_on_c, 1, 44, 127
2, 35400, Note_off_c, 1, 62, 0
2, 35400, Note_off_c, 1, 64, 0
2, 35400, Note_off_c, 1, 67, 0
2, 35400, Note_on_c, 1, 72, 127
2, 35400, Note_on_c, 1, 75, 127
2, 35400, Note_on_c, 1, 80, 127
2, 35400, Note_off_c, 1, 86, 0
2, 35440, Note_off_c, 1, 44, 0
2, 35440, Note_on_c, 1, 54, 127
2, 35440, Note_on_c, 1, 57, 127
2, 35440, Note_on_c, 1, 60, 127
2, 35440, Note_on_c, 1, 62, 127
2, 35440, Note_on_c, 1, 66, 127
2, 35440, Note_off_c, 1, 72, 0
2, 35440, Note_off_c, 1, 75, 0
2, 35440, Note_off_c, 1, 80, 0
2, 35440, Note_on_c, 1, 88, 127
2, 35480, Note_off_c, 1, 54, 0
2, 35480, Note_off_c, 1, 57, 0
2, 35480, Note_off_c, 1, 60, 0
2, 35480, Note_off_c, 1, 62, 0
2, 35480, Note_on_c, 1, 64, 127
2, 35480, Note_off_c, 1, 66, 0
2, 35480, Note_on_c, 1, 71, 127
2, 35480, Note_on_c, 1, 76, 127
2, 35480, Note_on_c, 1, 79, 127
2, 35480, Note_on_c, 1, 83, 127
2, 35480, Note_off_c, 1, 88, 0
2, 35480, Note_on_c, 1, 90, 127
2, 35520, Note_on_c, 1, 55, 127
2, 35520, Note_on_c, 1, 62, 127
2, 35520, Note_off_c, 1, 64, 0
2, 35520, Note_off_c, 1, 76, 0
2, 35520, Note_off_c, 1, 79, 0
2, 35520, Note_off_c, 1, 90, 0
2, 35560, Note_on_c, 1, 45, 127
2, 35560, Note_on_c, 1, 51, 127
2, 35560, Note_off_c, 1, 55, 0
2, 35560, Note_off_c, 1, 62, 0
2, 35560, Note_off_c, 1, 71, 0
2, 35560, Note_on_c, 1, 72, 127
2, 35560, Note_on_c, 1, 78, 127
2, 35560, Note_off_c, 1, 83, 0
2, 35560, Note_on_c, 1, 84, 127
2, 35640, Note_off_c, 1, 45, 0
2, 35640, Note_off_c, 1, 51, 0
2, 35640, Note_on_c, 1, 66, 127
2, 35640, Note_on_c, 1, 70, 127
2, 35640, Note_off_c, 1, 72, 0
2, 35640, Note_on_c, 1, 76, 127
2, 35640, Note_off_c, 1, 78, 0
2, 35640, Note_off_c, 1, 84, 0
2, 35640, Note_on_c, 1, 88, 127
2, 35640, Note_on_c, 1, 99, 127
2, 35680, Note_on_c, 1, 45, 127
2, 35680, Note_on_c, 1, 51, 127
2, 35680, Note_off_c, 1, 66, 0
2, 35680, Note_off_c, 1, 70, 0
2, 35680, Note_on_c, 1, 72, 127
2, 35680, Note_off_c, 1, 76, 0
2, 35680, Note_on_c, 1, 78, 127
2, 35680, Note_on_c, 1, 84, 127
2, 35680, Note_off_c, 1, 88, 0
2, 35680, Note_off_c, 1, 99, 0
2, 35720, Note_off_c, 1, 45, 0
2, 35720, Note_on_c, 1, 49, 127
2, 35720, Note_off_c, 1, 51, 0
2, 35720, Note_on_c, 1, 56, 127
2, 35720, Note_on_c, 1, 59, 127
2, 35720, Note_on_c, 1, 61, 127
2, 35720, Note_off_c, 1, 72, 0
2, 35720, Note_off_c, 1, 78, 0
2, 35720, Note_off_c, 1, 84, 0
2, 35760, Note_on_c, 1, 33, 127
2, 35760, Note_off_c, 1, 49, 0
2, 35760, Note_off_c, 1, 56, 0
2, 35760, Note_off_c, 1, 59, 0
2, 35760, Note_off_c, 1, 61, 0
2, 35760, Note_on_c, 1, 93, 127
2, 35800, Note_off_c, 1, 33, 0
2, 35800, Note_on_c, 1, 38, 127
2, 35800, Note_on_c, 1, 50, 127
2, 35800, Note_on_c, 1, 56, 127
2, 35800, Note_on_c, 1, 80, 127
2, 35800, Note_on_c, 1, 92, 127
2, 35800, Note_off_c, 1, 93, 0
2, 35840, Note_off_c, 1, 38, 0
2, 35840, Note_off_c, 1, 50, 0
2, 35840, Note_off_c, 1, 56, 0
2, 35840, Note_on_c, 1, 59, 127
2, 35840, Note_on_c, 1, 67, 127
2, 35840, Note_on_c, 1, 77, 127
2, 35840, Note_off_c, 1, 92, 0
2, 35880, Note_off_c, 1, 59, 0
2, 35880, Note_off_c, 1, 67, 0
2, 35880, Note_off_c, 1, 77, 0
2, 35880, Note_off_c, 1, 80, 0
2, 35920, Note_on_c, 1, 39, 127
2, 35920, Note_on_c, 1, 47, 127
2, 35920, Note_on_c, 1, 56, 127
2, 35920, Note_on_c, 1, 65, 127
2, 35960, Note_off_c, 1, 39, 0
2, 35960, Note_off_c, 1, 47, 0
2, 35960, Note_off_c, 1, 56, 0
2, 35960, Note_on_c, 1, 58, 127
2, 35960, Note_on_c, 1, 60, 127
2, 35960, Note_on_c, 1, 63, 127
2, 35960, Note_off_c, 1, 65, 0
2, 35960, Note_on_c, 1, 67, 127
2, 35960, Note_on_c, 1, 72, 127
2, 36000, Note_on_c, 1, 31, 127
2, 36000, Note_on_c, 1, 43, 127
2, 36000, Note_off_c, 1, 58, 0
2, 36000, Note_off_c, 1, 60, 0
2, 36000, Note_off_c, 1, 63, 0
2, 36000, Note_on_c, 1, 66, 127
2, 36000, Note_off_c, 1, 67, 0
2, 36000, Note_off_c, 1, 72, 0
2, 36000, Note_on_c, 1, 78, 127
2, 36040, Note_off_c, 1, 31, 0
2, 36040, Note_off_c, 1, 43, 0
2, 36040, Note_on_c, 1, 55, 127
2, 36040, Note_on_c, 1, 62, 127
2, 36040, Note_on_c, 1, 65, 127
2, 36040, Note_off_c, 1, 66, 0
2, 36040, Note_on_c, 1, 67, 127
2, 36040, Note_on_c, 1, 71, 127
2, 36040, Note_on_c, 1, 72, 127
2, 36040, Note_off_c, 1, 78, 0
2, 36080, Note_on_c, 1, 40, 127
2, 36080, Note_on_c, 1, 47, 127
2, 36080, Note_off_c, 1, 55, 0
2, 36080, Note_off_c, 1, 62, 0
2, 36080, Note_off_c, 1, 65, 0
2, 36080, Note_off_c, 1, 67, 0
2, 36080, Note_off_c, 1, 71, 0
2, 36080, Note_off_c, 1, 72, 0
2, 36080, Note_on_c, 1, 76, 127
2, 36080, Note_on_c, 1, 80, 127
2, 36080, Note_on_c, 1, 83, 127
2, 36120, Note_on_c, 1, 36, 127
2, 36120, Note_off_c, 1, 40, 0
2, 36120, Note_off_c, 1, 47, 0
2, 36120, Note_off_c, 1, 76, 0
2, 36120, Note_off_c, 1, 80, 0
2, 36120, Note_off_c, 1, 83, 0
2, 36120, Note_on_c, 1, 87, 127
2, 36120, Note_on_c, 1, 91, 127
2, 36120, Note_on_c, 1, 99, 127
2, 36160, Note_off_c, 1, 36, 0
2, 36160, Note_on_c, 1, 61, 127
2, 36160, Note_on_c, 1, 62, 127
2, 36160, Note_on_c, 1, 67, 127
2, 36160, Note_on_c, 1, 70, 127
2, 36160, Note_on_c, 1, 71, 127
2, 36160, Note_on_c, 1, 73, 127
2, 36160, Note_on_c, 1, 74, 127
2, 36160, Note_off_c, 1, 87, 0
2, 36160, Note_off_c, 1, 91, 0
2, 36160, Note_off_c, 1, 99, 0
2, 36200, Note_on_c, 1, 58, 127
2, 36200, Note_on_c, 1, 60, 127
2, 36200, Note_off_c, 1, 61, 0
2, 36200, Note_off_c, 1, 62, 0
2, 36200, Note_off_c, 1, 70, 0
2, 36200, Note_off_c, 1, 71, 0
2, 36200, Note_off_c, 1, 73, 0
2, 36200, Note_off_c, 1, 74, 0
2, 36200, Note_on_c, 1, 88, 127
2, 36240, Note_on_c, 1, 53, 127
2, 36240, Note_off_c, 1, 58, 0
2, 36240, Note_off_c, 1, 60, 0
2, 36240, Note_on_c, 1, 65, 127
2, 36240, Note_off_c, 1, 67, 0
2, 36240, Note_on_c, 1, 86, 127
2, 36240, Note_off_c, 1, 88, 0
2, 36240, Note_on_c, 1, 91, 127
2, 36280, Note_on_c, 1, 41, 127
2, 36280, Note_on_c, 1, 43, 127
2, 36280, Note_on_c, 1, 50, 127
2, 36280, Note_off_c, 1, 53, 0
2, 36280, Note_on_c, 1, 55, 127
2, 36280, Note_on_c, 1, 57, 127
2, 36280, Note_off_c, 1, 65, 0
2, 36280, Note_off_c, 1, 86, 0
2, 36280, Note_off_c, 1, 91, 0
2, 36320, Note_off_c, 1, 41, 0
2, 36320, Note_off_c, 1, 43, 0
2, 36320, Note_off_c, 1, 50, 0
2, 36320, Note_off_c, 1, 55, 0
2, 36320, Note_on_c, 1, 81, 127
2, 36320, Note_on_c, 1, 90, 127
2, 36320, Note_on_c, 1, 93, 127
2, 36360, Note_off_c, 1, 57, 0
2, 36360, Note_on_c, 1, 74, 127
2, 36360, Note_off_c, 1, 90, 0
2, 36400, Note_on_c, 1, 28, 127
2, 36400, Note_on_c, 1, 40, 127
2, 36400, Note_on_c, 1, 59, 127
2, 36400, Note_on_c, 1, 64, 127
2, 36400, Note_on_c, 1, 66, 127
2, 36400, Note_on_c, 1, 71, 127
2, 36400, Note_off_c, 1, 74, 0
2, 36400, Note_off_c, 1, 81, 0
2, 36400, Note_on_c, 1, 88, 127
2, 36400, Note_on_c, 1, 90, 127
2, 36400, Note_off_c, 1, 93, 0
2, 36440, Note_off_c, 1, 28, 0
2, 36440, Note_off_c, 1, 40, 0
2, 36440, Note_on_c, 1, 43, 127
2, 36440, Note_on_c, 1, 45, 127
2, 36440, Note_on_c, 1, 57, 127
2, 36440, Note_off_c, 1, 59, 0
2, 36440, Note_off_c, 1, 64, 0
2, 36440, Note_off_c, 1, 71, 0
2, 36440, Note_on_c, 1, 84, 127
2, 36440, Note_on_c, 1, 86, 127
2, 36440, Note_off_c, 1, 88, 0
2, 36440, Note_off_c, 1, 90, 0
2, 36480, Note_on_c, 1, 28, 127
2, 36480, Note_on_c, 1, 40, 127
2, 36480, Note_off_c, 1, 43, 0
2, 36480, Note_off_c, 1, 45, 0
2, 36480, Note_off_c, 1, 57, 0
2, 36480, Note_on_c, 1, 59, 127
2, 36480, Note_on_c, 1, 64, 127
2, 36480, Note_on_c, 1, 71, 127
2, 36480, Note_off_c, 1, 84, 0
2, 36480, Note_off_c, 1, 86, 0
2, 36480, Note_on_c, 1, 88, 127
2, 36480, Note_on_c, 1, 90, 127
2, 36560, Note_on_c, 1, 81, 127
2, 36560, Note_off_c, 1, 88, 0
2, 36560, Note_off_c, 1, 90, 0
2, 36560, Note_on_c, 1, 95, 127
2, 36640, Note_off_c, 1, 81, 0
2, 36640, Note_on_c, 1, 88, 127
2, 36640, Note_on_c, 1, 90, 127
2, 36640, Note_off_c, 1, 95, 0
2, 36680, Note_on_c, 1, 81, 127
2, 36680, Note_off_c, 1, 88, 0
2, 36680, Note_off_c, 1, 90, 0
2, 36680, Note_on_c, 1, 95, 127
2, 36800, Note_off_c, 1, 28, 0
2, 36800, Note_off_c, 1, 40, 0
2, 36800, Note_on_c, 1, 47, 127
2, 36800, Note_off_c, 1, 59, 0
2, 36800, Note_off_c, 1, 64, 0
2, 36800, Note_off_c, 1, 66, 0
2, 36800, Note_off_c, 1, 71, 0
2, 36800, Note_off_c, 1, 81, 0
2, 36800, Note_off_c, 1, 95, 0
2, 36840, Note_off_c, 1, 47, 0
2, 36880, Note_on_c, 1, 63, 127
2, 36880, Note_on_c, 1, 85, 127
2, 36880, Note_on_c, 1, 88, 127
2, 36880, Note_on_c, 1, 91, 127
2, 36920, Note_on_c, 1, 46, 127
2, 36920, Note_on_c, 1, 57, 127
2, 36920, Note_on_c, 1, 72, 127
2, 36920, Note_off_c, 1, 85, 0
2, 36920, Note_off_c, 1, 88, 0
2, 36920, Note_off_c, 1, 91, 0
2, 36960, Note_on_c, 1, 32, 127
2, 36960, Note_on_c, 1, 38, 127
2, 36960, Note_on_c, 1, 44, 127
2, 36960, Note_off_c, 1, 46, 0
2, 36960, Note_off_c, 1, 57, 0
2, 36960, Note_off_c, 1, 63, 0
2, 36960, Note_on_c, 1, 71, 127
2, 36960, Note_off_c, 1, 72, 0
2, 37000, Note_off_c, 1, 32, 0
2, 37000, Note_off_c, 1, 44, 0
2, 37000, Note_on_c, 1, 54, 127
2, 37000, Note_on_c, 1, 60, 127
2, 37000, Note_on_c, 1, 64, 127
2, 37040, Note_off_c, 1, 38, 0
2, 37040, Note_off_c, 1, 54, 0
2, 37040, Note_off_c, 1, 60, 0
2, 37040, Note_off_c, 1, 64, 0
2, 37040, Note_off_c, 1, 71, 0
2, 37040, Note_on_c, 1, 72, 127
2, 37040, Note_on_c, 1, 79, 127
2, 37040, Note_on_c, 1, 83, 127
2, 37080, Note_on_c, 1, 56, 127
2, 37080, Note_on_c, 1, 62, 127
2, 37080, Note_on_c, 1, 65, 127
2, 37080, Note_off_c, 1, 72, 0
2, 37080, Note_on_c, 1, 77, 127
2, 37080, Note_off_c, 1, 79, 0
2, 37080, Note_off_c, 1, 83, 0
2, 37080, Note_on_c, 1, 85, 127
2, 37200, Note_off_c, 1, 77, 0
2, 37200, Note_off_c, 1, 85, 0
2, 37200, Note_on_c, 1, 86, 127
2, 37240, Note_on_c, 1, 77, 127
2, 37240, Note_on_c, 1, 85, 127
2, 37240, Note_off_c, 1, 86, 0
2, 37280, Note_on_c, 1, 46, 127
2, 37280, Note_on_c, 1, 51, 127
2, 37280, Note_off_c, 1, 56, 0
2, 37280, Note_on_c, 1, 61, 127
2, 37280, Note_off_c, 1, 62, 0
2, 37280, Note_on_c, 1, 63, 127
2, 37280, Note_off_c, 1, 65, 0
2, 37280, Note_off_c, 1, 77, 0
2, 37280, Note_off_c, 1, 85, 0
2, 37320, Note_off_c, 1, 46, 0
2, 37320, Note_off_c, 1, 51, 0
2, 37320, Note_on_c, 1, 56, 127
2, 37320, Note_off_c, 1, 61, 0
2, 37320, Note_on_c, 1, 62, 127
2, 37320, Note_off_c, 1, 63, 0
2, 37320, Note_on_c, 1, 65, 127
2, 37320, Note_on_c, 1, 77, 127
2, 37320, Note_on_c, 1, 85, 127
2, 37360, Note_off_c, 1, 77, 0
2, 37360, Note_off_c, 1, 85, 0
2, 37360, Note_on_c, 1, 86, 127
2, 37400, Note_off_c, 1, 56, 0
2, 37400, Note_off_c, 1, 62, 0
2, 37400, Note_off_c, 1, 65, 0
2, 37400, Note_off_c, 1, 86, 0
2, 37440, Note_on_c, 1, 40, 127
2, 37440, Note_on_c, 1, 52, 127
2, 37440, Note_on_c, 1, 71, 127
2, 37440, Note_on_c, 1, 76, 127
2, 37440, Note_on_c, 1, 80, 127
2, 37800, Note_off_c, 1, 40, 0
2, 37800, Note_off_c, 1, 52, 0
2, 37800, Note_off_c, 1, 71, 0
2, 37800, Note_off_c, 1, 76, 0
2, 37800, Note_off_c, 1, 80, 0
2, 37840, Note_on_c, 1, 40, 127
2, 37840, Note_on_c, 1, 52, 127
2, 37840, Note_on_c, 1, 69, 127
2, 37840, Note_on_c, 1, 73, 127
2, 37840, Note_on_c, 1, 81, 127
2, 38200, Note_off_c, 1, 40, 0
2, 38200, Note_off_c, 1, 52, 0
2, 38200, Note_off_c, 1, 69, 0
2, 38200, Note_off_c, 1, 73, 0
2, 38200, Note_off_c, 1, 81, 0
2, 38240, Note_on_c, 1, 40, 127
2, 38240, Note_on_c, 1, 52, 127
2, 38240, Note_on_c, 1, 69, 127
2, 38240, Note_on_c, 1, 73, 127
2, 38240, Note_on_c, 1, 81, 127
2, 38560, Note_off_c, 1, 40, 0
2, 38560, Note_off_c, 1, 52, 0
2, 38560, Note_off_c, 1, 69, 0
2, 38560, Note_off_c, 1, 73, 0
2, 38560, Note_off_c, 1, 81, 0
2, 38600, Note_on_c, 1, 64, 127
2, 38600, Note_on_c, 1, 67, 127
2, 38600, Note_on_c, 1, 69, 127
2, 38600, Note_on_c, 1, 88, 127
2, 38640, Note_off_c, 1, 64, 0
2, 38640, Note_off_c, 1, 67, 0
2, 38640, Note_off_c, 1, 69, 0
2, 38640, Note_off_c, 1, 88, 0
2, 38680, Note_on_c, 1, 50, 127
2, 38680, Note_on_c, 1, 53, 127
2, 38680, Note_on_c, 1, 57, 127
2, 38680, Note_on_c, 1, 65, 127
2, 38680, Note_on_c, 1, 69, 127
2, 38680, Note_on_c, 1, 77, 127
2, 38760, Note_off_c, 1, 50, 0
2, 38760, Note_off_c, 1, 53, 0
2, 38760, Note_off_c, 1, 57, 0
2, 38760, Note_off_c, 1, 65, 0
2, 38760, Note_off_c, 1, 69, 0
2, 38760, Note_off_c, 1, 77, 0
2, 38800, Note_on_c, 1, 50, 127
2, 38800, Note_on_c, 1, 53, 127
2, 38800, Note_on_c, 1, 57, 127
2, 38800, Note_on_c, 1, 65, 127
2, 38800, Note_on_c, 1, 69, 127
2, 38800, Note_on_c, 1, 77, 127
2, 39120, Note_off_c, 1, 50, 0
2, 39120, Note_off_c, 1, 53, 0
2, 39120, Note_off_c, 1, 57, 0
2, 39120, Note_off_c, 1, 65, 0
2, 39120, Note_off_c, 1, 69, 0
2, 39120, Note_off_c, 1, 77, 0
2, 39160, Note_on_c, 1, 52, 127
2, 39160, Note_on_c, 1, 64, 127
2, 39160, Note_on_c, 1, 67, 127
2, 39160, Note_on_c, 1, 73, 127
2, 39160, Note_on_c, 1, 79, 127
2, 39200, Note_on_c, 1, 50, 127
2, 39200, Note_off_c, 1, 52, 0
2, 39200, Note_off_c, 1, 64, 0
2, 39200, Note_off_c, 1, 67, 0
2, 39200, Note_on_c, 1, 68, 127
2, 39200, Note_off_c, 1, 73, 0
2, 39200, Note_on_c, 1, 76, 127
2, 39200, Note_off_c, 1, 79, 0
2, 39240, Note_on_c, 1, 48, 127
2, 39240, Note_off_c, 1, 50, 0
2, 39240, Note_on_c, 1, 64, 127
2, 39240, Note_off_c, 1, 68, 0
2, 39240, Note_off_c, 1, 76, 0
2, 39240, Note_on_c, 1, 84, 127
2, 39240, Note_on_c, 1, 93, 127
2, 39280, Note_off_c, 1, 48, 0
2, 39280, Note_on_c, 1, 52, 127
2, 39280, Note_on_c, 1, 67, 127
2, 39280, Note_on_c, 1, 73, 127
2, 39280, Note_on_c, 1, 79, 127
2, 39280, Note_off_c, 1, 84, 0
2, 39280, Note_off_c, 1, 93, 0
2, 39320, Note_off_c, 1, 52, 0
2, 39320, Note_on_c, 1, 53, 127
2, 39320, Note_on_c, 1, 57, 127
2, 39320, Note_on_c, 1, 62, 127
2, 39320, Note_off_c, 1, 64, 0
2, 39320, Note_on_c, 1, 65, 127
2, 39320, Note_off_c, 1, 67, 0
2, 39320, Note_off_c, 1, 73, 0
2, 39320, Note_off_c, 1, 79, 0
2, 39320, Note_on_c, 1, 81, 127
2, 39320, Note_on_c, 1, 86, 127
2, 39360, Note_off_c, 1, 53, 0
2, 39360, Note_on_c, 1, 60, 127
2, 39360, Note_off_c, 1, 62, 0
2, 39360, Note_on_c, 1, 63, 127
2, 39360, Note_off_c, 1, 65, 0
2, 39360, Note_on_c, 1, 72, 127
2, 39360, Note_on_c, 1, 78, 127
2, 39360, Note_off_c, 1, 81, 0
2, 39360, Note_off_c, 1, 86, 0
2, 39400, Note_on_c, 1, 52, 127
2, 39400, Note_off_c, 1, 57, 0
2, 39400, Note_off_c, 1, 60, 0
2, 39400, Note_off_c, 1, 63, 0
2, 39400, Note_on_c, 1, 64, 127
2, 39400, Note_on_c, 1, 67, 127
2, 39400, Note_off_c, 1, 72, 0
2, 39400, Note_on_c, 1, 73, 127
2, 39400, Note_off_c, 1, 78, 0
2, 39400, Note_on_c, 1, 79, 127
2, 39480, Note_on_c, 1, 49, 127
2, 39480, Note_off_c, 1, 52, 0
2, 39480, Note_on_c, 1, 61, 127
2, 39480, Note_off_c, 1, 64, 0
2, 39480, Note_on_c, 1, 69, 127
2, 39480, Note_off_c, 1, 79, 0
2, 39520, Note_off_c, 1, 49, 0
2, 39520, Note_on_c, 1, 56, 127
2, 39520, Note_off_c, 1, 61, 0
2, 39520, Note_on_c, 1, 63, 127
2, 39520, Note_off_c, 1, 67, 0
2, 39520, Note_on_c, 1, 68, 127
2, 39520, Note_off_c, 1, 69, 0
2, 39520, Note_on_c, 1, 71, 127
2, 39520, Note_off_c, 1, 73, 0
2, 39520, Note_on_c, 1, 75, 127
2, 39520, Note_on_c, 1, 80, 127
2, 39520, Note_on_c, 1, 83, 127
2, 39560, Note_on_c, 1, 35, 127
2, 39560, Note_on_c, 1, 42, 127
2, 39560, Note_on_c, 1, 45, 127
2, 39560, Note_on_c, 1, 47, 127
2, 39560, Note_on_c, 1, 51, 127
2, 39560, Note_off_c, 1, 56, 0
2, 39560, Note_on_c, 1, 59, 127
2, 39560, Note_off_c, 1, 68, 0
2, 39560, Note_off_c, 1, 71, 0
2, 39560, Note_off_c, 1, 75, 0
2, 39560, Note_off_c, 1, 80, 0
2, 39560, Note_off_c, 1, 83, 0
2, 39960, Note_on_c, 1, 29, 127
2, 39960, Note_off_c, 1, 35, 0
2, 39960, Note_off_c, 1, 42, 0
2, 39960, Note_off_c, 1, 45, 0
2, 39960, Note_off_c, 1, 47, 0
2, 39960, Note_off_c, 1, 51, 0
2, 39960, Note_on_c, 1, 53, 127
2, 39960, Note_on_c, 1, 56, 127
2, 39960, Note_off_c, 1, 59, 0
2, 39960, Note_on_c, 1, 75, 127
2, 40000, Note_off_c, 1, 29, 0
2, 40000, Note_off_c, 1, 53, 0
2, 40000, Note_off_c, 1, 56, 0
2, 40000, Note_off_c, 1, 63, 0
2, 40000, Note_on_c, 1, 68, 127
2, 40000, Note_on_c, 1, 80, 127
2, 40000, Note_on_c, 1, 83, 127
2, 40000, Note_on_c, 1, 87, 127
2, 40000, Note_on_c, 1, 92, 127
2, 40040, Note_on_c, 1, 53, 127
2, 40040, Note_on_c, 1, 59, 127
2, 40040, Note_on_c, 1, 62, 127
2, 40040, Note_on_c, 1, 65, 127
2, 40040, Note_off_c, 1, 68, 0
2, 40040, Note_off_c, 1, 75, 0
2, 40040, Note_off_c, 1, 80, 0
2, 40040, Note_off_c, 1, 83, 0
2, 40040, Note_off_c, 1, 87, 0
2, 40040, Note_off_c, 1, 92, 0
2, 40040, Note_on_c, 1, 95, 127
2, 40080, Note_on_c, 1, 45, 127
2, 40080, Note_off_c, 1, 53, 0
2, 40080, Note_off_c, 1, 59, 0
2, 40080, Note_off_c, 1, 65, 0
2, 40080, Note_on_c, 1, 68, 127
2, 40080, Note_on_c, 1, 76, 127
2, 40080, Note_off_c, 1, 95, 0
2, 40120, Note_off_c, 1, 45, 0
2, 40120, Note_off_c, 1, 62, 0
2, 40120, Note_on_c, 1, 75, 127
2, 40120, Note_off_c, 1, 76, 0
2, 40120, Note_on_c, 1, 80, 127
2, 40120, Note_on_c, 1, 83, 127
2, 40120, Note_on_c, 1, 87, 127
2, 40120, Note_on_c, 1, 92, 127
2, 40360, Note_off_c, 1, 68, 0
2, 40360, Note_off_c, 1, 75, 0
2, 40360, Note_off_c, 1, 80, 0
2, 40360, Note_off_c, 1, 83, 0
2, 40360, Note_off_c, 1, 87, 0
2, 40360, Note_off_c, 1, 92, 0
2, 40400, Note_on_c, 1, 42, 127
2, 40400, Note_on_c, 1, 49, 127
2, 40400, Note_on_c, 1, 54, 127
2, 40400, Note_on_c, 1, 61, 127
2, 40400, Note_on_c, 1, 66, 127
2, 40400, Note_on_c, 1, 69, 127
2, 40920, Note_off_c, 1, 42, 0
2, 40920, Note_off_c, 1, 49, 0
2, 40920, Note_off_c, 1, 54, 0
2, 40920, Note_off_c, 1, 61, 0
2, 40920, Note_off_c, 1, 66, 0
2, 40920, Note_off_c, 1, 69, 0
2, 40960, Note_on_c, 1, 42, 127
2, 40960, Note_on_c, 1, 49, 127
2, 40960, Note_on_c, 1, 54, 127
2, 40960, Note_on_c, 1, 61, 127
2, 40960, Note_on_c, 1, 66, 127
2, 40960, Note_on_c, 1, 69, 127
2, 42880, Note_off_c, 1, 42, 0
2, 42880, Note_off_c, 1, 49, 0
2, 42880, Note_off_c, 1, 54, 0
2, 42880, Note_off_c, 1, 61, 0
2, 42880, Note_off_c, 1, 66, 0
2, 42880, Note_off_c, 1, 69, 0
2, 42920, Note_on_c, 1, 42, 127
2, 42920, Note_on_c, 1, 49, 127
2, 42920, Note_on_c, 1, 54, 127
2, 42920, Note_on_c, 1, 61, 127
2, 42920, Note_on_c, 1, 66, 127
2, 42920, Note_on_c, 1, 69, 127
2, 43240, Note_off_c, 1, 42, 0
2, 43240, Note_off_c, 1, 49, 0
2, 43240, Note_off_c, 1, 54, 0
2, 43240, Note_off_c, 1, 61, 0
2, 43240, Note_off_c, 1, 66, 0
2, 43240, Note_off_c, 1, 69, 0
2, 43280, Note_on_c, 1, 27, 127
2, 43280, Note_on_c, 1, 39, 127
2, 43280, Note_on_c, 1, 51, 127
2, 43280, Note_on_c, 1, 55, 127
2, 43280, Note_on_c, 1, 60, 127
2, 44080, Note_off_c, 1, 27, 0
2, 44080, Note_off_c, 1, 39, 0
2, 44080, Note_off_c, 1, 51, 0
2, 44080, Note_off_c, 1, 55, 0
2, 44080, Note_off_c, 1, 60, 0
2, 44080, Note_on_c, 1, 61, 127
2, 44080, Note_on_c, 1, 79, 127
2, 44080, Note_on_c, 1, 88, 127
2, 44080, Note_on_c, 1, 93, 127
2, 44120, Note_on_c, 1, 29, 127
2, 44120, Note_on_c, 1, 41, 127
2, 44120, Note_on_c, 1, 48, 127
2, 44120, Note_on_c, 1, 53, 127
2, 44120, Note_on_c, 1, 57, 127
2, 44120, Note_off_c, 1, 61, 0
2, 44120, Note_off_c, 1, 79, 0
2, 44120, Note_off_c, 1, 88, 0
2, 44120, Note_off_c, 1, 93, 0
2, 44520, Note_off_c, 1, 29, 0
2, 44520, Note_off_c, 1, 41, 0
2, 44520, Note_off_c, 1, 48, 0
2, 44520, Note_off_c, 1, 53, 0
2, 44520, Note_off_c, 1, 57, 0
2, 44560, Note_on_c, 1, 39, 127
2, 44560, Note_on_c, 1, 51, 127
2, 44560, Note_on_c, 1, 63, 127
2, 44560, Note_on_c, 1, 75, 127
2, 44680, Note_off_c, 1, 39, 0
2, 44680, Note_off_c, 1, 51, 0
2, 44680, Note_off_c, 1, 63, 0
2, 44680, Note_off_c, 1, 75, 0
2, 44720, Note_on_c, 1, 39, 127
2, 44720, Note_on_c, 1, 51, 127
2, 44720, Note_on_c, 1, 63, 127
2, 44720, Note_on_c, 1, 75, 127
2, 45440, Note_off_c, 1, 39, 0
2, 45440, Note_off_c, 1, 51, 0
2, 45440, Note_off_c, 1, 63, 0
2, 45440, Note_off_c, 1, 75, 0
2, 45480, Note_on_c, 1, 42, 127
2, 45480, Note_on_c, 1, 57, 127
2, 45480, Note_on_c, 1, 69, 127
2, 46120, Note_off_c, 1, 42, 0
2, 46120, Note_on_c, 1, 43, 127
2, 46120, Note_on_c, 1, 48, 127
2, 46120, Note_off_c, 1, 57, 0
2, 46120, Note_on_c, 1, 60, 127
2, 46120, Note_on_c, 1, 67, 127
2, 46120, Note_off_c, 1, 69, 0
2, 46320, Note_off_c, 1, 43, 0
2, 46320, Note_off_c, 1, 48, 0
2, 46320, Note_on_c, 1, 57, 127
2, 46320, Note_off_c, 1, 60, 0
2, 46320, Note_on_c, 1, 66, 127
2, 46320, Note_off_c, 1, 67, 0
2, 46320, Note_on_c, 1, 90, 127
2, 46320, Note_on_c, 1, 93, 127
2, 46360, Note_off_c, 1, 57, 0
2, 46360, Note_off_c, 1, 66, 0
2, 46360, Note_on_c, 1, 73, 127
2, 46360, Note_on_c, 1, 77, 127
2, 46360, Note_on_c, 1, 81, 127
2, 46360, Note_on_c, 1, 88, 127
2, 46360, Note_off_c, 1, 90, 0
2, 46360, Note_off_c, 1, 93, 0
2, 46400, Note_on_c, 1, 40, 127
2, 46400, Note_on_c, 1, 47, 127
2, 46400, Note_on_c, 1, 69, 127
2, 46400, Note_on_c, 1, 71, 127
2, 46400, Note_off_c, 1, 73, 0
2, 46400, Note_on_c, 1, 75, 127
2, 46400, Note_off_c, 1, 77, 0
2, 46400, Note_on_c, 1, 78, 127
2, 46400, Note_off_c, 1, 81, 0
2, 46400, Note_on_c, 1, 83, 127
2, 46400, Note_off_c, 1, 88, 0
2, 46440, Note_off_c, 1, 40, 0
2, 46440, Note_on_c, 1, 46, 127
2, 46440, Note_off_c, 1, 47, 0
2, 46440, Note_on_c, 1, 58, 127
2, 46440, Note_on_c, 1, 62, 127
2, 46440, Note_on_c, 1, 67, 127
2, 46440, Note_off_c, 1, 69, 0
2, 46440, Note_on_c, 1, 70, 127
2, 46440, Note_off_c, 1, 71, 0
2, 46440, Note_off_c, 1, 75, 0
2, 46440, Note_off_c, 1, 78, 0
2, 46440, Note_off_c, 1, 83, 0
2, 46480, Note_on_c, 1, 43, 127
2, 46480, Note_off_c, 1, 46, 0
2, 46480, Note_on_c, 1, 56, 127
2, 46480, Note_off_c, 1, 58, 0
2, 46480, Note_off_c, 1, 62, 0
2, 46480, Note_off_c, 1, 67, 0
2, 46480, Note_off_c, 1, 70, 0
2, 46480, Note_on_c, 1, 74, 127
2, 46480, Note_on_c, 1, 80, 127
2, 46520, Note_off_c, 1, 43, 0
2, 46520, Note_on_c, 1, 45, 127
2, 46520, Note_off_c, 1, 56, 0
2, 46520, Note_off_c, 1, 74, 0
2, 46520, Note_off_c, 1, 80, 0
2, 46520, Note_on_c, 1, 90, 127
2, 46520, Note_on_c, 1, 95, 127
2, 46520, Note_on_c, 1, 99, 127
2, 46560, Note_on_c, 1, 38, 127
2, 46560, Note_off_c, 1, 45, 0
2, 46560, Note_on_c, 1, 52, 127
2, 46560, Note_on_c, 1, 70, 127
2, 46560, Note_off_c, 1, 90, 0
2, 46560, Note_off_c, 1, 95, 0
2, 46560, Note_off_c, 1, 99, 0
2, 46600, Note_off_c, 1, 38, 0
2, 46600, Note_on_c, 1, 48, 127
2, 46600, Note_off_c, 1, 52, 0
2, 46600, Note_on_c, 1, 56, 127
2, 46600, Note_on_c, 1, 63, 127
2, 46600, Note_on_c, 1, 66, 127
2, 46600, Note_off_c, 1, 70, 0
2, 46600, Note_on_c, 1, 78, 127
2, 46640, Note_off_c, 1, 48, 0
2, 46640, Note_off_c, 1, 56, 0
2, 46640, Note_off_c, 1, 63, 0
2, 46640, Note_off_c, 1, 66, 0
2, 46640, Note_off_c, 1, 78, 0
2, 46680, Note_on_c, 1, 46, 127
2, 46680, Note_on_c, 1, 49, 127
2, 46680, Note_on_c, 1, 54, 127
2, 46680, Note_on_c, 1, 91, 127
2, 46720, Note_off_c, 1, 46, 0
2, 46720, Note_off_c, 1, 49, 0
2, 46720, Note_off_c, 1, 54, 0
2, 46720, Note_on_c, 1, 74, 127
2, 46720, Note_on_c, 1, 82, 127
2, 46720, Note_off_c, 1, 91, 0
2, 46720, Note_on_c, 1, 92, 127
2, 46720, Note_on_c, 1, 94, 127
2, 46760, Note_on_c, 1, 47, 127
2, 46760, Note_on_c, 1, 59, 127
2, 46760, Note_off_c, 1, 74, 0
2, 46760, Note_off_c, 1, 82, 0
2, 46760, Note_off_c, 1, 92, 0
2, 46760, Note_off_c, 1, 94, 0
2, 46800, Note_on_c, 1, 42, 127
2, 46800, Note_off_c, 1, 47, 0
2, 46800, Note_on_c, 1, 54, 127
2, 46800, Note_off_c, 1, 59, 0
2, 46800, Note_on_c, 1, 76, 127
2, 46800, Note_on_c, 1, 78, 127
2, 46840, Note_on_c, 1, 30, 127
2, 46840, Note_on_c, 1, 50, 127
2, 46840, Note_off_c, 1, 54, 0
2, 46840, Note_on_c, 1, 58, 127
2, 46840, Note_off_c, 1, 76, 0
2, 46840, Note_off_c, 1, 78, 0
2, 46880, Note_off_c, 1, 30, 0
2, 46880, Note_on_c, 1, 39, 127
2, 46880, Note_off_c, 1, 42, 0
2, 46880, Note_off_c, 1, 50, 0
2, 46880, Note_on_c, 1, 51, 127
2, 46880, Note_off_c, 1, 58, 0
2, 46880, Note_on_c, 1, 75, 127
2, 46880, Note_on_c, 1, 81, 127
2, 46880, Note_on_c, 1, 84, 127
2, 46920, Note_on_c, 1, 27, 127
2, 46920, Note_off_c, 1, 51, 0
2, 46920, Note_off_c, 1, 75, 0
2, 46920, Note_off_c, 1, 81, 0
2, 46920, Note_off_c, 1, 84, 0
2, 46920, Note_on_c, 1, 103, 127
2, 46960, Note_off_c, 1, 27, 0
2, 46960, Note_off_c, 1, 39, 0
2, 46960, Note_on_c, 1, 56, 127
2, 46960, Note_on_c, 1, 64, 127
2, 46960, Note_on_c, 1, 68, 127
2, 46960, Note_on_c, 1, 76, 127
2, 46960, Note_on_c, 1, 80, 127
2, 46960, Note_on_c, 1, 83, 127
2, 46960, Note_on_c, 1, 88, 127
2, 46960, Note_off_c, 1, 103, 0
2, 47000, Note_on_c, 1, 39, 127
2, 47000, Note_on_c, 1, 55, 127
2, 47000, Note_off_c, 1, 56, 0
2, 47000, Note_on_c, 1, 58, 127
2, 47000, Note_on_c, 1, 61, 127
2, 47000, Note_on_c, 1, 63, 127
2, 47000, Note_off_c, 1, 64, 0
2, 47000, Note_off_c, 1, 68, 0
2, 47000, Note_off_c, 1, 76, 0
2, 47000, Note_off_c, 1, 80, 0
2, 47000, Note_off_c, 1, 83, 0
2, 47000, Note_off_c, 1, 88, 0
2, 47040, Note_off_c, 1, 39, 0
2, 47040, Note_off_c, 1, 55, 0
2, 47040, Note_off_c, 1, 58, 0
2, 47040, Note_off_c, 1, 61, 0
2, 47040, Note_off_c, 1, 63, 0
2, 47040, Note_on_c, 1, 66, 127
2, 47040, Note_on_c, 1, 73, 127
2, 47040, Note_on_c, 1, 76, 127
2, 47040, Note_on_c, 1, 84, 127
2, 47080, Note_on_c, 1, 56, 127
2, 47080, Note_on_c, 1, 62, 127
2, 47080, Note_on_c, 1, 64, 127
2, 47080, Note_off_c, 1, 66, 0
2, 47080, Note_on_c, 1, 71, 127
2, 47080, Note_off_c, 1, 73, 0
2, 47080, Note_off_c, 1, 84, 0
2, 47120, Note_off_c, 1, 56, 0
2, 47120, Note_on_c, 1, 59, 127
2, 47120, Note_off_c, 1, 62, 0
2, 47120, Note_off_c, 1, 64, 0
2, 47120, Note_on_c, 1, 75, 127
2, 47120, Note_off_c, 1, 76, 0
2, 47120, Note_on_c, 1, 80, 127
2, 47120, Note_on_c, 1, 83, 127
2, 47160, Note_on_c, 1, 43, 127
2, 47160, Note_on_c, 1, 55, 127
2, 47160, Note_off_c, 1, 59, 0
2, 47160, Note_on_c, 1, 64, 127
2, 47160, Note_on_c, 1, 69, 127
2, 47160, Note_off_c, 1, 71, 0
2, 47160, Note_on_c, 1, 73, 127
2, 47160, Note_off_c, 1, 75, 0
2, 47160, Note_off_c, 1, 80, 0
2, 47160, Note_off_c, 1, 83, 0
2, 47200, Note_off_c, 1, 43, 0
2, 47200, Note_on_c, 1, 47, 127
2, 47200, Note_on_c, 1, 54, 127
2, 47200, Note_off_c, 1, 55, 0
2, 47200, Note_off_c, 1, 64, 0
2, 47200, Note_off_c, 1, 69, 0
2, 47200, Note_off_c, 1, 73, 0
2, 47200, Note_on_c, 1, 75, 127
2, 47200, Note_on_c, 1, 78, 127
2, 47240, Note_off_c, 1, 47, 0
2, 47240, Note_off_c, 1, 54, 0
2, 47240, Note_on_c, 1, 70, 127
2, 47240, Note_on_c, 1, 73, 127
2, 47240, Note_off_c, 1, 75, 0
2, 47240, Note_off_c, 1, 78, 0
2, 47240, Note_on_c, 1, 82, 127
2, 47240, Note_on_c, 1, 94, 127
2, 47240, Note_on_c, 1, 97, 127
2, 47280, Note_on_c, 1, 40, 127
2, 47280, Note_on_c, 1, 56, 127
2, 47280, Note_on_c, 1, 64, 127
2, 47280, Note_off_c, 1, 70, 0
2, 47280, Note_off_c, 1, 73, 0
2, 47280, Note_on_c, 1, 75, 127
2, 47280, Note_on_c, 1, 76, 127
2, 47280, Note_off_c, 1, 82, 0
2, 47280, Note_off_c, 1, 94, 0
2, 47280, Note_off_c, 1, 97, 0
2, 47320, Note_on_c, 1, 39, 127
2, 47320, Note_off_c, 1, 40, 0
2, 47320, Note_on_c, 1, 42, 127
2, 47320, Note_off_c, 1, 56, 0
2, 47320, Note_on_c, 1, 61, 127
2, 47320, Note_off_c, 1, 64, 0
2, 47320, Note_on_c, 1, 73, 127
2, 47320, Note_off_c, 1, 75, 0
2, 47320, Note_off_c, 1, 76, 0
2, 47360, Note_off_c, 1, 39, 0
2, 47360, Note_off_c, 1, 42, 0
2, 47360, Note_off_c, 1, 61, 0
2, 47360, Note_on_c, 1, 67, 127
2, 47360, Note_on_c, 1, 71, 127
2, 47360, Note_off_c, 1, 73, 0
2, 47360, Note_on_c, 1, 75, 127
2, 47360, Note_on_c, 1, 79, 127
2, 47400, Note_on_c, 1, 44, 127
2, 47400, Note_on_c, 1, 53, 127
2, 47400, Note_on_c, 1, 59, 127
2, 47400, Note_on_c, 1, 63, 127
2, 47400, Note_off_c, 1, 67, 0
2, 47400, Note_off_c, 1, 71, 0
2, 47400, Note_off_c, 1, 75, 0
2, 47400, Note_off_c, 1, 79, 0
2, 47440, Note_off_c, 1, 44, 0
2, 47440, Note_off_c, 1, 53, 0
2, 47440, Note_off_c, 1, 59, 0
2, 47440, Note_off_c, 1, 63, 0
2, 47440, Note_on_c, 1, 64, 127
2, 47440, Note_on_c, 1, 68, 127
2, 47440, Note_on_c, 1, 73, 127
2, 47440, Note_on_c, 1, 76, 127
2, 47440, Note_on_c, 1, 80, 127
2, 47440, Note_on_c, 1, 83, 127
2, 47480, Note_on_c, 1, 53, 127
2, 47480, Note_off_c, 1, 64, 0
2, 47480, Note_off_c, 1, 68, 0
2, 47480, Note_off_c, 1, 73, 0
2, 47480, Note_off_c, 1, 76, 0
2, 47480, Note_off_c, 1, 80, 0
2, 47480, Note_off_c, 1, 83, 0
2, 47480, Note_on_c, 1, 84, 127
2, 47480, Note_on_c, 1, 89, 127
2, 47480, Note_on_c, 1, 93, 127
2, 47520, Note_off_c, 1, 53, 0
2, 47520, Note_on_c, 1, 61, 127
2, 47520, Note_on_c, 1, 64, 127
2, 47520, Note_on_c, 1, 68, 127
2, 47520, Note_on_c, 1, 71, 127
2, 47520, Note_on_c, 1, 73, 127
2, 47520, Note_on_c, 1, 76, 127
2, 47520, Note_on_c, 1, 80, 127
2, 47520, Note_on_c, 1, 83, 127
2, 47520, Note_off_c, 1, 84, 0
2, 47520, Note_off_c, 1, 89, 0
2, 47520, Note_off_c, 1, 93, 0
2, 47640, Note_off_c, 1, 61, 0
2, 47640, Note_off_c, 1, 64, 0
2, 47640, Note_off_c, 1, 68, 0
2, 47640, Note_off_c, 1, 71, 0
2, 47640, Note_off_c, 1, 73, 0
2, 47640, Note_off_c, 1, 76, 0
2, 47640, Note_off_c, 1, 80, 0
2, 47640, Note_off_c, 1, 83, 0
2, 47680, Note_on_c, 1, 47, 127
2, 47680, Note_on_c, 1, 57, 127
2, 47680, Note_on_c, 1, 62, 127
2, 47680, Note_on_c, 1, 68, 127
2, 47680, Note_on_c, 1, 71, 127
2, 47800, Note_off_c, 1, 47, 0
2, 47800, Note_on_c, 1, 55, 127
2, 47800, Note_off_c, 1, 57, 0
2, 47800, Note_on_c, 1, 61, 127
2, 47800, Note_off_c, 1, 62, 0
2, 47800, Note_off_c, 1, 68, 0
2, 47800, Note_on_c, 1, 70, 127
2, 47800, Note_off_c, 1, 71, 0
2, 47800, Note_on_c, 1, 79, 127
2, 47800, Note_on_c, 1, 82, 127
2, 47840, Note_off_c, 1, 55, 0
2, 47840, Note_off_c, 1, 61, 0
2, 47840, Note_on_c, 1, 65, 127
2, 47840, Note_on_c, 1, 68, 127
2, 47840, Note_off_c, 1, 70, 0
2, 47840, Note_on_c, 1, 72, 127
2, 47840, Note_off_c, 1, 79, 0
2, 47840, Note_off_c, 1, 82, 0
2, 47840, Note_on_c, 1, 83, 127
2, 47880, Note_on_c, 1, 52, 127
2, 47880, Note_off_c, 1, 65, 0
2, 47880, Note_on_c, 1, 66, 127
2, 47880, Note_off_c, 1, 68, 0
2, 47880, Note_off_c, 1, 72, 0
2, 47880, Note_on_c, 1, 73, 127
2, 47880, Note_on_c, 1, 82, 127
2, 47880, Note_off_c, 1, 83, 0
2, 47880, Note_on_c, 1, 85, 127
2, 47920, Note_on_c, 1, 40, 127
2, 47920, Note_on_c, 1, 43, 127
2, 47920, Note_on_c, 1, 51, 127
2, 47920, Note_off_c, 1, 52, 0
2, 47920, Note_on_c, 1, 63, 127
2, 47920, Note_off_c, 1, 66, 0
2, 47920, Note_on_c, 1, 67, 127
2, 47920, Note_on_c, 1, 71, 127
2, 47920, Note_off_c, 1, 73, 0
2, 47920, Note_off_c, 1, 82, 0
2, 47920, Note_off_c, 1, 85, 0
2, 47960, Note_off_c, 1, 40, 0
2, 47960, Note_off_c, 1, 43, 0
2, 47960, Note_on_c, 1, 44, 127
2, 47960, Note_off_c, 1, 63, 0
2, 47960, Note_off_c, 1, 67, 0
2, 47960, Note_off_c, 1, 71, 0
2, 47960, Note_on_c, 1, 76, 127
2, 47960, Note_on_c, 1, 80, 127
2, 48000, Note_off_c, 1, 44, 0
2, 48000, Note_on_c, 1, 45, 127
2, 48000, Note_off_c, 1, 51, 0
2, 48000, Note_on_c, 1, 53, 127
2, 48000, Note_on_c, 1, 57, 127
2, 48000, Note_on_c, 1, 59, 127
2, 48000, Note_on_c, 1, 61, 127
2, 48000, Note_off_c, 1, 76, 0
2, 48000, Note_off_c, 1, 80, 0
2, 48040, Note_on_c, 1, 42, 127
2, 48040, Note_off_c, 1, 45, 0
2, 48040, Note_off_c, 1, 53, 0
2, 48040, Note_on_c, 1, 54, 127
2, 48040, Note_off_c, 1, 57, 0
2, 48040, Note_off_c, 1, 61, 0
2, 48040, Note_on_c, 1, 68, 127
2, 48080, Note_off_c, 1, 42, 0
2, 48080, Note_on_c, 1, 51, 127
2, 48080, Note_off_c, 1, 54, 0
2, 48080, Note_off_c, 1, 68, 0
2, 48080, Note_on_c, 1, 78, 127
2, 48120, Note_on_c, 1, 54, 127
2, 48120, Note_off_c, 1, 59, 0
2, 48120, Note_on_c, 1, 73, 127
2, 48120, Note_off_c, 1, 78, 0
2, 48240, Note_off_c, 1, 73, 0
2, 48280, Note_on_c, 1, 70, 127
2, 48520, Note_off_c, 1, 51, 0
2, 48520, Note_off_c, 1, 54, 0
2, 48520, Note_off_c, 1, 70, 0
2, 48560, Note_on_c, 1, 51, 127
2, 48560, Note_on_c, 1, 54, 127
2, 48600, Note_on_c, 1, 37, 127
2, 48600, Note_on_c, 1, 49, 127
2, 48600, Note_off_c, 1, 51, 0
2, 48600, Note_off_c, 1, 54, 0
2, 48600, Note_on_c, 1, 56, 127
2, 48600, Note_on_c, 1, 59, 127
2, 48600, Note_on_c, 1, 61, 127
2, 48600, Note_on_c, 1, 65, 127
2, 48960, Note_off_c, 1, 49, 0
2, 48960, Note_off_c, 1, 56, 0
2, 48960, Note_off_c, 1, 59, 0
2, 48960, Note_off_c, 1, 61, 0
2, 48960, Note_off_c, 1, 65, 0
2, 49000, Note_off_c, 1, 37, 0
2, 49000, Note_on_c, 1, 41, 127
2, 49000, Note_on_c, 1, 60, 127
2, 49000, Note_on_c, 1, 65, 127
2, 49000, Note_on_c, 1, 68, 127
2, 49840, Note_off_c, 1, 41, 0
2, 49840, Note_off_c, 1, 60, 0
2, 49840, Note_off_c, 1, 65, 0
2, 49840, Note_off_c, 1, 68, 0
2, 49880, Note_on_c, 1, 45, 127
2, 49880, Note_on_c, 1, 50, 127
2, 49880, Note_on_c, 1, 54, 127
2, 49880, Note_on_c, 1, 69, 127
2, 50080, Note_off_c, 1, 50, 0
2, 50080, Note_on_c, 1, 62, 127
2, 50120, Note_on_c, 1, 50, 127
2, 50160, Note_off_c, 1, 50, 0
2, 50160, Note_off_c, 1, 62, 0
2, 50160, Note_on_c, 1, 66, 127
2, 50200, Note_on_c, 1, 40, 127
2, 50200, Note_off_c, 1, 45, 0
2, 50200, Note_on_c, 1, 52, 127
2, 50200, Note_off_c, 1, 54, 0
2, 50200, Note_on_c, 1, 56, 127
2, 50200, Note_off_c, 1, 66, 0
2, 50200, Note_off_c, 1, 69, 0
2, 50200, Note_on_c, 1, 76, 127
2, 50200, Note_on_c, 1, 80, 127
2, 50200, Note_on_c, 1, 92, 127
2, 50240, Note_off_c, 1, 40, 0
2, 50240, Note_on_c, 1, 46, 127
2, 50240, Note_on_c, 1, 49, 127
2, 50240, Note_off_c, 1, 52, 0
2, 50240, Note_off_c, 1, 56, 0
2, 50240, Note_on_c, 1, 58, 127
2, 50240, Note_on_c, 1, 66, 127
2, 50240, Note_on_c, 1, 73, 127
2, 50240, Note_off_c, 1, 76, 0
2, 50240, Note_on_c, 1, 78, 127
2, 50240, Note_off_c, 1, 80, 0
2, 50240, Note_off_c, 1, 92, 0
2, 50280, Note_off_c, 1, 46, 0
2, 50280, Note_off_c, 1, 49, 0
2, 50280, Note_on_c, 1, 53, 127
2, 50280, Note_off_c, 1, 58, 0
2, 50280, Note_on_c, 1, 65, 127
2, 50280, Note_off_c, 1, 66, 0
2, 50280, Note_off_c, 1, 73, 0
2, 50280, Note_on_c, 1, 77, 127
2, 50280, Note_off_c, 1, 78, 0
2, 50280, Note_on_c, 1, 81, 127
2, 50280, Note_on_c, 1, 86, 127
2, 50280, Note_on_c, 1, 89, 127
2, 50320, Note_on_c, 1, 44, 127
2, 50320, Note_off_c, 1, 65, 0
2, 50320, Note_off_c, 1, 77, 0
2, 50320, Note_on_c, 1, 80, 127
2, 50320, Note_off_c, 1, 81, 0
2, 50320, Note_on_c, 1, 84, 127
2, 50320, Note_off_c, 1, 86, 0
2, 50640, Note_off_c, 1, 44, 0
2, 50640, Note_off_c, 1, 53, 0
2, 50640, Note_off_c, 1, 80, 0
2, 50640, Note_off_c, 1, 84, 0
2, 50640, Note_off_c, 1, 89, 0
2, 50680, Note_on_c, 1, 44, 127
2, 50680, Note_on_c, 1, 53, 127
2, 50680, Note_on_c, 1, 80, 127
2, 50680, Note_on_c, 1, 84, 127
2, 50680, Note_on_c, 1, 89, 127
2, 50720, Note_off_c, 1, 44, 0
2, 50720, Note_off_c, 1, 53, 0
2, 50720, Note_off_c, 1, 80, 0
2, 50720, Note_off_c, 1, 84, 0
2, 50720, Note_off_c, 1, 89, 0
2, 50760, Note_on_c, 1, 46, 127
2, 50760, Note_on_c, 1, 53, 127
2, 50760, Note_on_c, 1, 68, 127
2, 50760, Note_on_c, 1, 73, 127
2, 51160, Note_off_c, 1, 53, 0
2, 51160, Note_on_c, 1, 60, 127
2, 51160, Note_on_c, 1, 61, 127
2, 51160, Note_off_c, 1, 68, 0
2, 51200, Note_on_c, 1, 53, 127
2, 51200, Note_off_c, 1, 60, 0
2, 51200, Note_off_c, 1, 61, 0
2, 51200, Note_on_c, 1, 68, 127
2, 51200, Note_off_c, 1, 73, 0
2, 51200, Note_on_c, 1, 76, 127
2, 51600, Note_off_c, 1, 76, 0
2, 51640, Note_on_c, 1, 76, 127
2, 52000, Note_off_c, 1, 76, 0
2, 52040, Note_on_c, 1, 74, 127
2, 52440, Note_off_c, 1, 46, 0
2, 52440, Note_off_c, 1, 53, 0
2, 52440, Note_off_c, 1, 68, 0
2, 52440, Note_off_c, 1, 74, 0
2, 52520, Note_on_c, 1, 46, 127
2, 52520, Note_on_c, 1, 53, 127
2, 52520, Note_on_c, 1, 62, 127
2, 52520, Note_on_c, 1, 68, 127
2, 53320, Note_off_c, 1, 46, 0
2, 53320, Note_off_c, 1, 53, 0
2, 53320, Note_off_c, 1, 62, 0
2, 53360, Note_on_c, 1, 31, 127
2, 53360, Note_on_c, 1, 43, 127
2, 53360, Note_on_c, 1, 50, 127
2, 53360, Note_on_c, 1, 62, 127
2, 53360, Note_off_c, 1, 68, 0
2, 53360, Note_on_c, 1, 71, 127
2, 53360, Note_on_c, 1, 83, 127
2, 53400, Note_off_c, 1, 83, 0
2, 53440, Note_off_c, 1, 31, 0
2, 53440, Note_off_c, 1, 50, 0
2, 53440, Note_on_c, 1, 57, 127
2, 53440, Note_off_c, 1, 71, 0
2, 53480, Note_on_c, 1, 31, 127
2, 53480, Note_on_c, 1, 50, 127
2, 53480, Note_off_c, 1, 57, 0
2, 53480, Note_on_c, 1, 71, 127
2, 53520, Note_off_c, 1, 31, 0
2, 53520, Note_off_c, 1, 43, 0
2, 53520, Note_on_c, 1, 46, 127
2, 53520, Note_off_c, 1, 50, 0
2, 53520, Note_on_c, 1, 57, 127
2, 53520, Note_off_c, 1, 62, 0
2, 53520, Note_off_c, 1, 71, 0
2, 53520, Note_on_c, 1, 77, 127
2, 53520, Note_on_c, 1, 84, 127
2, 53560, Note_on_c, 1, 31, 127
2, 53560, Note_on_c, 1, 43, 127
2, 53560, Note_off_c, 1, 46, 0
2, 53560, Note_on_c, 1, 50, 127
2, 53560, Note_off_c, 1, 57, 0
2, 53560, Note_on_c, 1, 62, 127
2, 53560, Note_on_c, 1, 71, 127
2, 53560, Note_off_c, 1, 77, 0
2, 53560, Note_off_c, 1, 84, 0
2, 53600, Note_on_c, 1, 79, 127
2, 53720, Note_off_c, 1, 31, 0
2, 53720, Note_on_c, 1, 33, 127
2, 53720, Note_off_c, 1, 43, 0
2, 53720, Note_on_c, 1, 45, 127
2, 53720, Note_off_c, 1, 50, 0
2, 53720, Note_on_c, 1, 57, 127
2, 53720, Note_off_c, 1, 62, 0
2, 53720, Note_off_c, 1, 71, 0
2, 53720, Note_on_c, 1, 72, 127
2, 53720, Note_on_c, 1, 75, 127
2, 53720, Note_on_c, 1, 84, 127
2, 53720, Note_on_c, 1, 87, 127
2, 53720, Note_on_c, 1, 91, 127
2, 53720, Note_on_c, 1, 96, 127
2, 53760, Note_off_c, 1, 33, 0
2, 53760, Note_on_c, 1, 43, 127
2, 53760, Note_off_c, 1, 45, 0
2, 53760, Note_on_c, 1, 53, 127
2, 53760, Note_off_c, 1, 57, 0
2, 53760, Note_on_c, 1, 59, 127
2, 53760, Note_on_c, 1, 64, 127
2, 53760, Note_on_c, 1, 67, 127
2, 53760, Note_off_c, 1, 72, 0
2, 53760, Note_off_c, 1, 75, 0
2, 53760, Note_off_c, 1, 79, 0
2, 53760, Note_off_c, 1, 84, 0
2, 53760, Note_off_c, 1, 87, 0
2, 53760, Note_off_c, 1, 91, 0
2, 53760, Note_off_c, 1, 96, 0
2, 53960, Note_off_c, 1, 64, 0
2, 54000, Note_on_c, 1, 62, 127
2, 54120, Note_off_c, 1, 62, 0
2, 54160, Note_off_c, 1, 43, 0
2, 54160, Note_off_c, 1, 53, 0
2, 54160, Note_off_c, 1, 59, 0
2, 54160, Note_off_c, 1, 67, 0
2, 54200, Note_on_c, 1, 39, 127
2, 54200, Note_on_c, 1, 60, 127
2, 54200, Note_on_c, 1, 67, 127
2, 54520, Note_off_c, 1, 39, 0
2, 54520, Note_off_c, 1, 60, 0
2, 54520, Note_off_c, 1, 67, 0
2, 54560, Note_on_c, 1, 39, 127
2, 54560, Note_on_c, 1, 60, 127
2, 54560, Note_on_c, 1, 67, 127
2, 55040, Note_off_c, 1, 39, 0
2, 55040, Note_off_c, 1, 60, 0
2, 55040, Note_off_c, 1, 67, 0
2, 55080, Note_on_c, 1, 51, 127
2, 55080, Note_on_c, 1, 60, 127
2, 55080, Note_on_c, 1, 69, 127
2, 55080, Note_on_c, 1, 78, 127
2, 55480, Note_off_c, 1, 51, 0
2, 55480, Note_on_c, 1, 54, 127
2, 55480, Note_off_c, 1, 60, 0
2, 55520, Note_on_c, 1, 47, 127
2, 55520, Note_on_c, 1, 62, 127
2, 55520, Note_off_c, 1, 69, 0
2, 55520, Note_on_c, 1, 71, 127
2, 55520, Note_off_c, 1, 78, 0
2, 55520, Note_on_c, 1, 83, 127
2, 56240, Note_off_c, 1, 47, 0
2, 56240, Note_on_c, 1, 50, 127
2, 56240, Note_off_c, 1, 54, 0
2, 56240, Note_on_c, 1, 60, 127
2, 56240, Note_on_c, 1, 66, 127
2, 56240, Note_on_c, 1, 69, 127
2, 56240, Note_off_c, 1, 71, 0
2, 56240, Note_off_c, 1, 83, 0
2, 56280, Note_on_c, 1, 47, 127
2, 56280, Note_off_c, 1, 50, 0
2, 56280, Note_on_c, 1, 54, 127
2, 56280, Note_off_c, 1, 60, 0
2, 56280, Note_off_c, 1, 66, 0
2, 56280, Note_off_c, 1, 69, 0
2, 56280, Note_on_c, 1, 71, 127
2, 56280, Note_on_c, 1, 83, 127
2, 56320, Note_off_c, 1, 47, 0
2, 56320, Note_off_c, 1, 54, 0
2, 56320, Note_off_c, 1, 62, 0
2, 56320, Note_off_c, 1, 71, 0
2, 56320, Note_off_c, 1, 83, 0
2, 56360, Note_on_c, 1, 50, 127
2, 56360, Note_on_c, 1, 53, 127
2, 56360, Note_on_c, 1, 58, 127
2, 56360, Note_on_c, 1, 62, 127
2, 56360, Note_on_c, 1, 65, 127
2, 56400, Note_off_c, 1, 53, 0
2, 56400, Note_on_c, 1, 55, 127
2, 56400, Note_off_c, 1, 62, 0
2, 56400, Note_on_c, 1, 63, 127
2, 56400, Note_off_c, 1, 65, 0
2, 56440, Note_off_c, 1, 50, 0
2, 56440, Note_off_c, 1, 55, 0
2, 56440, Note_off_c, 1, 58, 0
2, 56440, Note_off_c, 1, 63, 0
2, 56480, Note_on_c, 1, 50, 127
2, 56480, Note_on_c, 1, 53, 127
2, 56480, Note_on_c, 1, 58, 127
2, 56480, Note_on_c, 1, 62, 127
2, 56480, Note_on_c, 1, 65, 127
2, 56560, Note_off_c, 1, 65, 0
2, 56600, Note_on_c, 1, 70, 127
2, 57200, Note_off_c, 1, 50, 0
2, 57200, Note_off_c, 1, 53, 0
2, 57200, Note_off_c, 1, 58, 0
2, 57200, Note_off_c, 1, 62, 0
2, 57200, Note_off_c, 1, 70, 0
2, 57240, Note_on_c, 1, 65, 127
2, 57240, Note_on_c, 1, 70, 127
2, 57240, Note_on_c, 1, 89, 127
2, 57280, Note_off_c, 1, 65, 0
2, 57280, Note_off_c, 1, 70, 0
2, 57280, Note_on_c, 1, 77, 127
2, 57280, Note_on_c, 1, 86, 127
2, 57280, Note_off_c, 1, 89, 0
2, 57400, Note_off_c, 1, 86, 0
2, 57400, Note_on_c, 1, 88, 127
2, 57440, Note_on_c, 1, 86, 127
2, 57440, Note_off_c, 1, 88, 0
2, 57600, Note_on_c, 1, 85, 127
2, 57600, Note_off_c, 1, 86, 0
2, 57640, Note_on_c, 1, 42, 127
2, 57640, Note_on_c, 1, 46, 127
2, 57640, Note_on_c, 1, 49, 127
2, 57640, Note_on_c, 1, 54, 127
2, 57640, Note_off_c, 1, 77, 0
2, 57640, Note_on_c, 1, 83, 127
2, 57640, Note_off_c, 1, 85, 0
2, 57680, Note_off_c, 1, 42, 0
2, 57680, Note_off_c, 1, 46, 0
2, 57680, Note_off_c, 1, 49, 0
2, 57680, Note_off_c, 1, 54, 0
2, 57680, Note_on_c, 1, 56, 127
2, 57680, Note_on_c, 1, 80, 127
2, 57680, Note_on_c, 1, 82, 127
2, 57680, Note_off_c, 1, 83, 0
2, 57720, Note_on_c, 1, 54, 127
2, 57720, Note_on_c, 1, 57, 127
2, 57720, Note_off_c, 1, 80, 0
2, 57720, Note_off_c, 1, 82, 0
2, 57720, Note_on_c, 1, 92, 127
2, 57720, Note_on_c, 1, 93, 127
2, 57720, Note_on_c, 1, 95, 127
2, 57760, Note_on_c, 1, 49, 127
2, 57760, Note_off_c, 1, 54, 0
2, 57760, Note_off_c, 1, 56, 0
2, 57760, Note_off_c, 1, 57, 0
2, 57760, Note_on_c, 1, 75, 127
2, 57760, Note_on_c, 1, 78, 127
2, 57760, Note_on_c, 1, 82, 127
2, 57760, Note_on_c, 1, 87, 127
2, 57760, Note_off_c, 1, 92, 0
2, 57760, Note_off_c, 1, 93, 0
2, 57760, Note_off_c, 1, 95, 0
2, 57800, Note_off_c, 1, 49, 0
2, 57800, Note_on_c, 1, 65, 127
2, 57800, Note_on_c, 1, 68, 127
2, 57800, Note_off_c, 1, 75, 0
2, 57800, Note_on_c, 1, 77, 127
2, 57800, Note_off_c, 1, 78, 0
2, 57800, Note_on_c, 1, 80, 127
2, 57800, Note_off_c, 1, 82, 0
2, 57800, Note_on_c, 1, 85, 127
2, 57800, Note_off_c, 1, 87, 0
2, 57840, Note_on_c, 1, 51, 127
2, 57840, Note_on_c, 1, 63, 127
2, 57840, Note_off_c, 1, 65, 0
2, 57840, Note_off_c, 1, 68, 0
2, 57840, Note_off_c, 1, 77, 0
2, 57840, Note_on_c, 1, 79, 127
2, 57840, Note_off_c, 1, 80, 0
2, 57880, Note_off_c, 1, 51, 0
2, 57880, Note_on_c, 1, 58, 127
2, 57880, Note_on_c, 1, 77, 127
2, 57880, Note_off_c, 1, 79, 0
2, 57880, Note_on_c, 1, 80, 127
2, 57880, Note_off_c, 1, 85, 0
2, 57920, Note_on_c, 1, 56, 127
2, 57920, Note_off_c, 1, 58, 0
2, 57920, Note_on_c, 1, 61, 127
2, 57920, Note_off_c, 1, 63, 0
2, 57920, Note_on_c, 1, 64, 127
2, 57920, Note_on_c, 1, 69, 127
2, 57920, Note_on_c, 1, 76, 127
2, 57920, Note_off_c, 1, 77, 0
2, 57920, Note_off_c, 1, 80, 0
2, 57920, Note_on_c, 1, 85, 127
2, 57960, Note_off_c, 1, 56, 0
2, 57960, Note_off_c, 1, 61, 0
2, 57960, Note_on_c, 1, 62, 127
2, 57960, Note_off_c, 1, 64, 0
2, 57960, Note_on_c, 1, 65, 127
2, 57960, Note_off_c, 1, 69, 0
2, 57960, Note_on_c, 1, 72, 127
2, 57960, Note_off_c, 1, 76, 0
2, 57960, Note_on_c, 1, 84, 127
2, 57960, Note_off_c, 1, 85, 0
2, 57960, Note_on_c, 1, 86, 127
2, 57960, Note_on_c, 1, 89, 127
2, 58000, Note_off_c, 1, 62, 0
2, 58000, Note_off_c, 1, 65, 0
2, 58000, Note_on_c, 1, 77, 127
2, 58000, Note_off_c, 1, 86, 0
2, 58040, Note_on_c, 1, 51, 127
2, 58040, Note_on_c, 1, 53, 127
2, 58040, Note_off_c, 1, 72, 0
2, 58040, Note_on_c, 1, 75, 127
2, 58040, Note_off_c, 1, 77, 0
2, 58040, Note_off_c, 1, 84, 0
2, 58040, Note_off_c, 1, 89, 0
2, 58080, Note_on_c, 1, 34, 127
2, 58080, Note_off_c, 1, 51, 0
2, 58080, Note_off_c, 1, 53, 0
2, 58080, Note_on_c, 1, 78, 127
2, 58080, Note_on_c, 1, 83, 127
2, 58080, Note_on_c, 1, 87, 127
2, 58120, Note_off_c, 1, 34, 0
2, 58120, Note_on_c, 1, 59, 127
2, 58120, Note_on_c, 1, 71, 127
2, 58120, Note_off_c, 1, 75, 0
2, 58120, Note_off_c, 1, 78, 0
2, 58120, Note_on_c, 1, 80, 127
2, 58120, Note_off_c, 1, 83, 0
2, 58120, Note_on_c, 1, 86, 127
2, 58120, Note_off_c, 1, 87, 0
2, 58120, Note_on_c, 1, 89, 127
2, 58120, Note_on_c, 1, 92, 127
2, 58160, Note_on_c, 1, 53, 127
2, 58160, Note_on_c, 1, 57, 127
2, 58160, Note_off_c, 1, 59, 0
2, 58160, Note_on_c, 1, 62, 127
2, 58160, Note_on_c, 1, 68, 127
2, 58160, Note_off_c, 1, 71, 0
2, 58160, Note_off_c, 1, 80, 0
2, 58160, Note_off_c, 1, 86, 0
2, 58160, Note_off_c, 1, 89, 0
2, 58160, Note_off_c, 1, 92, 0
2, 58200, Note_off_c, 1, 53, 0
2, 58200, Note_off_c, 1, 57, 0
2, 58200, Note_on_c, 1, 59, 127
2, 58200, Note_off_c, 1, 68, 0
2, 58200, Note_on_c, 1, 71, 127
2, 58200, Note_on_c, 1, 73, 127
2, 58200, Note_on_c, 1, 83, 127
2, 58240, Note_off_c, 1, 59, 0
2, 58240, Note_off_c, 1, 62, 0
2, 58240, Note_off_c, 1, 73, 0
2, 58240, Note_on_c, 1, 74, 127
2, 58240, Note_on_c, 1, 80, 127
2, 58240, Note_off_c, 1, 83, 0
2, 58280, Note_on_c, 1, 53, 127
2, 58280, Note_on_c, 1, 58, 127
2, 58280, Note_on_c, 1, 61, 127
2, 58280, Note_on_c, 1, 65, 127
2, 58280, Note_off_c, 1, 71, 0
2, 58280, Note_on_c, 1, 73, 127
2, 58280, Note_off_c, 1, 74, 0
2, 58280, Note_off_c, 1, 80, 0
2, 58280, Note_on_c, 1, 85, 127
2, 58520, Note_off_c, 1, 53, 0
2, 58520, Note_off_c, 1, 58, 0
2, 58520, Note_off_c, 1, 61, 0
2, 58520, Note_off_c, 1, 65, 0
2, 58520, Note_off_c, 1, 73, 0
2, 58520, Note_off_c, 1, 85, 0
2, 58560, Note_on_c, 1, 53, 127
2, 58560, Note_on_c, 1, 58, 127
2, 58560, Note_on_c, 1, 61, 127
2, 58560, Note_on_c, 1, 65, 127
2, 58560, Note_on_c, 1, 73, 127
2, 58560, Note_on_c, 1, 85, 127
2, 58640, Note_off_c, 1, 53, 0
2, 58640, Note_off_c, 1, 58, 0
2, 58640, Note_off_c, 1, 61, 0
2, 58640, Note_on_c, 1, 62, 127
2, 58640, Note_off_c, 1, 65, 0
2, 58640, Note_on_c, 1, 68, 127
2, 58640, Note_on_c, 1, 70, 127
2, 58640, Note_off_c, 1, 73, 0
2, 58640, Note_on_c, 1, 77, 127
2, 58640, Note_on_c, 1, 82, 127
2, 58640, Note_off_c, 1, 85, 0
2, 58640, Note_on_c, 1, 86, 127
2, 58640, Note_on_c, 1, 89, 127
2, 58680, Note_on_c, 1, 53, 127
2, 58680, Note_on_c, 1, 58, 127
2, 58680, Note_on_c, 1, 61, 127
2, 58680, Note_off_c, 1, 62, 0
2, 58680, Note_on_c, 1, 65, 127
2, 58680, Note_off_c, 1, 68, 0
2, 58680, Note_off_c, 1, 70, 0
2, 58680, Note_on_c, 1, 73, 127
2, 58680, Note_off_c, 1, 77, 0
2, 58680, Note_off_c, 1, 82, 0
2, 58680, Note_on_c, 1, 85, 127
2, 58680, Note_off_c, 1, 86, 0
2, 58680, Note_off_c, 1, 89, 0
2, 58720, Note_off_c, 1, 65, 0
2, 58920, Note_off_c, 1, 53, 0
2, 58920, Note_off_c, 1, 58, 0
2, 58920, Note_off_c, 1, 61, 0
2, 58920, Note_off_c, 1, 73, 0
2, 58920, Note_off_c, 1, 85, 0
2, 58960, Note_on_c, 1, 42, 127
2, 58960, Note_on_c, 1, 49, 127
2, 58960, Note_on_c, 1, 58, 127
2, 58960, Note_on_c, 1, 63, 127
2, 59360, Note_off_c, 1, 42, 0
2, 59360, Note_off_c, 1, 63, 0
2, 59400, Note_on_c, 1, 46, 127
2, 59400, Note_off_c, 1, 49, 0
2, 59400, Note_off_c, 1, 58, 0
2, 59400, Note_on_c, 1, 74, 127
2, 59400, Note_on_c, 1, 86, 127
2, 59400, Note_on_c, 1, 87, 127
2, 59440, Note_off_c, 1, 46, 0
2, 59440, Note_on_c, 1, 83, 127
2, 59440, Note_on_c, 1, 85, 127
2, 59440, Note_off_c, 1, 86, 0
2, 59440, Note_off_c, 1, 87, 0
2, 59480, Note_on_c, 1, 54, 127
2, 59480, Note_on_c, 1, 61, 127
2, 59480, Note_on_c, 1, 70, 127
2, 59480, Note_off_c, 1, 74, 0
2, 59480, Note_off_c, 1, 83, 0
2, 59480, Note_off_c, 1, 85, 0
2, 59480, Note_on_c, 1, 89, 127
2, 59520, Note_on_c, 1, 37, 127
2, 59520, Note_on_c, 1, 53, 127
2, 59520, Note_off_c, 1, 54, 0
2, 59520, Note_on_c, 1, 58, 127
2, 59520, Note_off_c, 1, 61, 0
2, 59520, Note_on_c, 1, 66, 127
2, 59520, Note_off_c, 1, 70, 0
2, 59520, Note_off_c, 1, 89, 0
2, 59560, Note_off_c, 1, 37, 0
2, 59560, Note_off_c, 1, 53, 0
2, 59560, Note_on_c, 1, 54, 127
2, 59560, Note_off_c, 1, 58, 0
2, 59560, Note_on_c, 1, 59, 127
2, 59560, Note_off_c, 1, 66, 0
2, 59560, Note_on_c, 1, 68, 127
2, 59560, Note_on_c, 1, 85, 127
2, 59600, Note_on_c, 1, 34, 127
2, 59600, Note_on_c, 1, 46, 127
2, 59600, Note_off_c, 1, 54, 0
2, 59600, Note_off_c, 1, 59, 0
2, 59600, Note_on_c, 1, 62, 127
2, 59600, Note_on_c, 1, 65, 127
2, 59600, Note_off_c, 1, 85, 0
2, 59640, Note_off_c, 1, 34, 0
2, 59640, Note_on_c, 1, 42, 127
2, 59640, Note_off_c, 1, 46, 0
2, 59640, Note_on_c, 1, 55, 127
2, 59640, Note_off_c, 1, 62, 0
2, 59640, Note_off_c, 1, 65, 0
2, 59640, Note_off_c, 1, 68, 0
2, 59640, Note_on_c, 1, 76, 127
2, 59640, Note_on_c, 1, 81, 127
2, 59680, Note_on_c, 1, 34, 127
2, 59680, Note_off_c, 1, 42, 0
2, 59680, Note_on_c, 1, 46, 127
2, 59680, Note_off_c, 1, 55, 0
2, 59680, Note_on_c, 1, 62, 127
2, 59680, Note_on_c, 1, 65, 127
2, 59680, Note_on_c, 1, 68, 127
2, 59680, Note_off_c, 1, 76, 0
2, 59680, Note_off_c, 1, 81, 0
2, 59760, Note_on_c, 1, 33, 127
2, 59760, Note_off_c, 1, 34, 0
2, 59760, Note_on_c, 1, 45, 127
2, 59760, Note_off_c, 1, 46, 0
2, 59760, Note_on_c, 1, 60, 127
2, 59760, Note_off_c, 1, 62, 0
2, 59760, Note_off_c, 1, 65, 0
2, 59760, Note_on_c, 1, 67, 127
2, 59760, Note_off_c, 1, 68, 0
2, 59800, Note_off_c, 1, 33, 0
2, 59800, Note_off_c, 1, 45, 0
2, 59800, Note_on_c, 1, 49, 127
2, 59800, Note_on_c, 1, 58, 127
2, 59800, Note_off_c, 1, 60, 0
2, 59800, Note_off_c, 1, 67, 0
2, 59840, Note_off_c, 1, 49, 0
2, 59840, Note_on_c, 1, 65, 127
2, 59840, Note_on_c, 1, 68, 127
2, 59840, Note_on_c, 1, 71, 127
2, 59840, Note_on_c, 1, 74, 127
2, 59840, Note_on_c, 1, 83, 127
2, 60240, Note_off_c, 1, 58, 0
2, 60240, Note_off_c, 1, 65, 0
2, 60240, Note_off_c, 1, 68, 0
2, 60240, Note_off_c, 1, 71, 0
2, 60240, Note_off_c, 1, 74, 0
2, 60240, Note_off_c, 1, 83, 0
2, 60280, Note_on_c, 1, 58, 127
2, 60280, Note_on_c, 1, 65, 127
2, 60280, Note_on_c, 1, 68, 127
2, 60280, Note_on_c, 1, 71, 127
2, 60280, Note_on_c, 1, 74, 127
2, 60280, Note_on_c, 1, 83, 127
2, 60680, Note_off_c, 1, 58, 0
2, 60680, Note_off_c, 1, 65, 0
2, 60680, Note_off_c, 1, 68, 0
2, 60680, Note_off_c, 1, 71, 0
2, 60680, Note_off_c, 1, 74, 0
2, 60680, Note_off_c, 1, 83, 0
2, 60720, Note_on_c, 1, 58, 127
2, 60720, Note_on_c, 1, 65, 127
2, 60720, Note_on_c, 1, 68, 127
2, 60720, Note_on_c, 1, 71, 127
2, 60720, Note_on_c, 1, 74, 127
2, 60720, Note_on_c, 1, 83, 127
2, 61120, Note_off_c, 1, 58, 0
2, 61120, Note_off_c, 1, 65, 0
2, 61120, Note_off_c, 1, 68, 0
2, 61120, Note_off_c, 1, 71, 0
2, 61120, Note_off_c, 1, 74, 0
2, 61120, Note_off_c, 1, 83, 0
2, 61160, Note_on_c, 1, 58, 127
2, 61160, Note_on_c, 1, 65, 127
2, 61160, Note_on_c, 1, 68, 127
2, 61160, Note_on_c, 1, 71, 127
2, 61160, Note_on_c, 1, 74, 127
2, 61160, Note_on_c, 1, 83, 127
2, 61960, Note_off_c, 1, 58, 0
2, 61960, Note_off_c, 1, 65, 0
2, 61960, Note_off_c, 1, 68, 0
2, 61960, Note_off_c, 1, 71, 0
2, 61960, Note_off_c, 1, 74, 0
2, 61960, Note_off_c, 1, 83, 0
2, 62000, Note_on_c, 1, 51, 127
2, 62000, Note_on_c, 1, 60, 127
2, 62000, Note_on_c, 1, 65, 127
2, 62000, Note_on_c, 1, 69, 127
2, 62560, Note_on_c, 1, 48, 127
2, 62560, Note_off_c, 1, 51, 0
2, 62560, Note_off_c, 1, 60, 0
2, 62560, Note_off_c, 1, 65, 0
2, 62560, Note_off_c, 1, 69, 0
2, 62600, Note_off_c, 1, 48, 0
2, 62600, Note_on_c, 1, 50, 127
2, 62600, Note_on_c, 1, 58, 127
2, 62600, Note_on_c, 1, 65, 127
2, 62600, Note_on_c, 1, 70, 127
2, 62760, Note_off_c, 1, 50, 0
2, 62760, Note_off_c, 1, 58, 0
2, 62760, Note_off_c, 1, 65, 0
2, 62760, Note_off_c, 1, 70, 0
2, 62800, Note_on_c, 1, 50, 127
2, 62800, Note_on_c, 1, 58, 127
2, 62800, Note_on_c, 1, 65, 127
2, 62800, Note_on_c, 1, 70, 127
2, 63040, Note_off_c, 1, 50, 0
2, 63040, Note_off_c, 1, 58, 0
2, 63040, Note_off_c, 1, 65, 0
2, 63040, Note_off_c, 1, 70, 0
2, 63280, Note_on_c, 1, 65, 127
2, 63680, Note_on_c, 1, 55, 127
2, 63680, Note_on_c, 1, 57, 127
2, 63680, Note_on_c, 1, 64, 127
2, 63680, Note_off_c, 1, 65, 0
2, 63680, Note_on_c, 1, 83, 127
2, 63720, Note_on_c, 1, 50, 127
2, 63720, Note_off_c, 1, 55, 0
2, 63720, Note_on_c, 1, 60, 127
2, 63720, Note_on_c, 1, 63, 127
2, 63720, Note_off_c, 1, 64, 0
2, 63720, Note_on_c, 1, 67, 127
2, 63720, Note_off_c, 1, 83, 0
2, 63760, Note_on_c, 1, 38, 127
2, 63760, Note_off_c, 1, 50, 0
2, 63760, Note_off_c, 1, 57, 0
2, 63760, Note_off_c, 1, 60, 0
2, 63760, Note_off_c, 1, 63, 0
2, 63760, Note_on_c, 1, 93, 127
2, 63800, Note_off_c, 1, 38, 0
2, 63800, Note_on_c, 1, 61, 127
2, 63800, Note_off_c, 1, 67, 0
2, 63800, Note_on_c, 1, 73, 127
2, 63800, Note_on_c, 1, 77, 127
2, 63800, Note_on_c, 1, 81, 127
2, 63800, Note_on_c, 1, 89, 127
2, 63800, Note_off_c, 1, 93, 0
2, 63840, Note_on_c, 1, 41, 127
2, 63840, Note_off_c, 1, 61, 0
2, 63840, Note_off_c, 1, 73, 0
2, 63840, Note_off_c, 1, 77, 0
2, 63840, Note_on_c, 1, 87, 127
2, 63880, Note_off_c, 1, 41, 0
2, 63880, Note_on_c, 1, 45, 127
2, 63880, Note_on_c, 1, 57, 127
2, 63880, Note_on_c, 1, 60, 127
2, 63880, Note_on_c, 1, 67, 127
2, 63880, Note_off_c, 1, 81, 0
2, 63880, Note_off_c, 1, 87, 0
2, 63880, Note_off_c, 1, 89, 0
2, 63920, Note_on_c, 1, 43, 127
2, 63920, Note_off_c, 1, 45, 0
2, 63920, Note_off_c, 1, 57, 0
2, 63920, Note_on_c, 1, 58, 127
2, 63920, Note_off_c, 1, 60, 0
2, 63920, Note_off_c, 1, 67, 0
2, 63920, Note_on_c, 1, 72, 127
2, 63960, Note_off_c, 1, 43, 0
2, 63960, Note_on_c, 1, 45, 127
2, 63960, Note_on_c, 1, 57, 127
2, 63960, Note_off_c, 1, 58, 0
2, 63960, Note_on_c, 1, 60, 127
2, 63960, Note_on_c, 1, 69, 127
2, 63960, Note_off_c, 1, 72, 0
2, 64000, Note_on_c, 1, 67, 127
2, 64000, Note_off_c, 1, 69, 0
2, 64080, Note_off_c, 1, 45, 0
2, 64080, Note_off_c, 1, 57, 0
2, 64080, Note_off_c, 1, 60, 0
2, 64080, Note_off_c, 1, 67, 0
2, 64120, Note_on_c, 1, 53, 127
2, 64120, Note_on_c, 1, 60, 127
2, 64120, Note_on_c, 1, 65, 127
2, 64120, Note_on_c, 1, 76, 127
2, 64600, Note_off_c, 1, 53, 0
2, 64600, Note_off_c, 1, 60, 0
2, 64600, Note_off_c, 1, 65, 0
2, 64600, Note_off_c, 1, 76, 0
2, 64640, Note_on_c, 1, 53, 127
2, 64640, Note_on_c, 1, 60, 127
2, 64640, Note_on_c, 1, 65, 127
2, 64640, Note_on_c, 1, 76, 127
2, 64960, Note_on_c, 1, 48, 127
2, 64960, Note_off_c, 1, 60, 0
2, 64960, Note_off_c, 1, 65, 0
2, 64960, Note_off_c, 1, 76, 0
2, 65000, Note_on_c, 1, 44, 127
2, 65000, Note_off_c, 1, 48, 0
2, 65000, Note_on_c, 1, 51, 127
2, 65000, Note_off_c, 1, 53, 0
2, 65000, Note_on_c, 1, 60, 127
2, 65000, Note_on_c, 1, 78, 127
2, 65000, Note_on_c, 1, 90, 127
2, 65320, Note_off_c, 1, 44, 0
2, 65320, Note_off_c, 1, 51, 0
2, 65320, Note_on_c, 1, 56, 127
2, 65320, Note_off_c, 1, 60, 0
2, 65320, Note_on_c, 1, 66, 127
2, 65320, Note_on_c, 1, 68, 127
2, 65320, Note_on_c, 1, 72, 127
2, 65320, Note_off_c, 1, 78, 0
2, 65320, Note_on_c, 1, 84, 127
2, 65320, Note_off_c, 1, 90, 0
2, 65360, Note_on_c, 1, 44, 127
2, 65360, Note_on_c, 1, 51, 127
2, 65360, Note_off_c, 1, 56, 0
2, 65360, Note_on_c, 1, 60, 127
2, 65360, Note_off_c, 1, 66, 0
2, 65360, Note_off_c, 1, 68, 0
2, 65360, Note_off_c, 1, 72, 0
2, 65360, Note_on_c, 1, 78, 127
2, 65360, Note_off_c, 1, 84, 0
2, 65360, Note_on_c, 1, 90, 127
2, 65560, Note_off_c, 1, 44, 0
2, 65560, Note_off_c, 1, 51, 0
2, 65560, Note_on_c, 1, 56, 127
2, 65560, Note_off_c, 1, 60, 0
2, 65560, Note_on_c, 1, 66, 127
2, 65560, Note_on_c, 1, 68, 127
2, 65560, Note_on_c, 1, 72, 127
2, 65560, Note_off_c, 1, 78, 0
2, 65560, Note_on_c, 1, 84, 127
2, 65560, Note_off_c, 1, 90, 0
2, 65600, Note_on_c, 1, 47, 127
2, 65600, Note_on_c, 1, 54, 127
2, 65600, Note_off_c, 1, 56, 0
2, 65600, Note_on_c, 1, 62, 127
2, 65600, Note_off_c, 1, 68, 0
2, 65600, Note_on_c, 1, 70, 127
2, 65600, Note_off_c, 1, 72, 0
2, 65600, Note_on_c, 1, 74, 127
2, 65600, Note_off_c, 1, 84, 0
2, 65640, Note_off_c, 1, 47, 0
2, 65640, Note_off_c, 1, 62, 0
2, 65640, Note_on_c, 1, 63, 127
2, 65640, Note_off_c, 1, 66, 0
2, 65640, Note_off_c, 1, 70, 0
2, 65640, Note_off_c, 1, 74, 0
2, 65640, Note_on_c, 1, 84, 127
2, 65640, Note_on_c, 1, 87, 127
2, 65680, Note_off_c, 1, 54, 0
2, 65680, Note_on_c, 1, 62, 127
2, 65680, Note_off_c, 1, 63, 0
2, 65680, Note_on_c, 1, 74, 127
2, 65680, Note_off_c, 1, 84, 0
2, 65680, Note_on_c, 1, 96, 127
2, 65680, Note_on_c, 1, 99, 127
2, 65720, Note_on_c, 1, 40, 127
2, 65720, Note_on_c, 1, 53, 127
2, 65720, Note_on_c, 1, 57, 127
2, 65720, Note_off_c, 1, 62, 0
2, 65720, Note_on_c, 1, 65, 127
2, 65720, Note_off_c, 1, 74, 0
2, 65720, Note_off_c, 1, 87, 0
2, 65720, Note_off_c, 1, 96, 0
2, 65720, Note_off_c, 1, 99, 0
2, 65760, Note_off_c, 1, 40, 0
2, 65760, Note_off_c, 1, 53, 0
2, 65760, Note_off_c, 1, 57, 0
2, 65760, Note_off_c, 1, 65, 0
2, 65800, Note_on_c, 1, 46, 127
2, 65800, Note_on_c, 1, 55, 127
2, 65800, Note_on_c, 1, 61, 127
2, 65800, Note_on_c, 1, 67, 127
2, 65880, Note_on_c, 1, 39, 127
2, 65880, Note_off_c, 1, 46, 0
2, 65880, Note_off_c, 1, 55, 0
2, 65880, Note_off_c, 1, 61, 0
2, 65880, Note_off_c, 1, 67, 0
2, 65880, Note_on_c, 1, 70, 127
2, 65880, Note_on_c, 1, 80, 127
2, 65880, Note_on_c, 1, 82, 127
2, 65920, Note_off_c, 1, 39, 0
2, 65920, Note_on_c, 1, 58, 127
2, 65920, Note_on_c, 1, 62, 127
2, 65920, Note_on_c, 1, 69, 127
2, 65920, Note_off_c, 1, 70, 0
2, 65920, Note_off_c, 1, 80, 0
2, 65920, Note_off_c, 1, 82, 0
2, 65960, Note_on_c, 1, 36, 127
2, 65960, Note_off_c, 1, 58, 0
2, 65960, Note_on_c, 1, 59, 127
2, 65960, Note_on_c, 1, 65, 127
2, 65960, Note_on_c, 1, 68, 127
2, 65960, Note_off_c, 1, 69, 0
2, 66000, Note_on_c, 1, 48, 127
2, 66000, Note_off_c, 1, 59, 0
2, 66000, Note_off_c, 1, 65, 0
2, 66000, Note_off_c, 1, 68, 0
2, 66000, Note_on_c, 1, 70, 127
2, 66000, Note_on_c, 1, 74, 127
2, 66040, Note_off_c, 1, 36, 0
2, 66040, Note_off_c, 1, 48, 0
2, 66040, Note_on_c, 1, 59, 127
2, 66040, Note_off_c, 1, 62, 0
2, 66040, Note_off_c, 1, 70, 0
2, 66040, Note_on_c, 1, 92, 127
2, 66080, Note_on_c, 1, 45, 127
2, 66080, Note_off_c, 1, 59, 0
2, 66080, Note_on_c, 1, 62, 127
2, 66080, Note_off_c, 1, 74, 0
2, 66080, Note_on_c, 1, 86, 127
2, 66080, Note_off_c, 1, 92, 0
2, 66120, Note_on_c, 1, 40, 127
2, 66120, Note_off_c, 1, 45, 0
2, 66120, Note_on_c, 1, 52, 127
2, 66120, Note_on_c, 1, 54, 127
2, 66120, Note_on_c, 1, 60, 127
2, 66120, Note_off_c, 1, 62, 0
2, 66120, Note_on_c, 1, 63, 127
2, 66120, Note_off_c, 1, 86, 0
2, 66160, Note_off_c, 1, 40, 0
2, 66160, Note_on_c, 1, 42, 127
2, 66160, Note_on_c, 1, 44, 127
2, 66160, Note_on_c, 1, 51, 127
2, 66160, Note_off_c, 1, 52, 0
2, 66160, Note_off_c, 1, 54, 0
2, 66160, Note_on_c, 1, 56, 127
2, 66160, Note_on_c, 1, 58, 127
2, 66160, Note_off_c, 1, 60, 0
2, 66160, Note_off_c, 1, 63, 0
2, 66200, Note_off_c, 1, 42, 0
2, 66200, Note_off_c, 1, 44, 0
2, 66200, Note_off_c, 1, 51, 0
2, 66200, Note_on_c, 1, 53, 127
2, 66200, Note_off_c, 1, 56, 0
2, 66200, Note_on_c, 1, 57, 127
2, 66200, Note_off_c, 1, 58, 0
2, 66240, Note_on_c, 1, 36, 127
2, 66240, Note_on_c, 1, 43, 127
2, 66240, Note_off_c, 1, 53, 0
2, 66240, Note_off_c, 1, 57, 0
2, 66240, Note_on_c, 1, 58, 127
2, 66600, Note_off_c, 1, 36, 0
2, 66600, Note_off_c, 1, 43, 0
2, 66600, Note_off_c, 1, 58, 0
2, 66640, Note_on_c, 1, 36, 127
2, 66640, Note_on_c, 1, 43, 127
2, 66640, Note_on_c, 1, 58, 127
2, 66680, Note_off_c, 1, 36, 0
2, 66680, Note_off_c, 1, 43, 0
2, 66680, Note_on_c, 1, 60, 127
2, 66680, Note_on_c, 1, 64, 127
2, 66720, Note_off_c, 1, 60, 0
2, 66720, Note_on_c, 1, 61, 127
2, 66720, Note_off_c, 1, 64, 0
2, 66720, Note_on_c, 1, 66, 127
2, 66720, Note_on_c, 1, 73, 127
2, 66720, Note_on_c, 1, 75, 127
2, 66840, Note_on_c, 1, 59, 127
2, 66840, Note_on_c, 1, 63, 127
2, 67080, Note_off_c, 1, 58, 0
2, 67080, Note_off_c, 1, 61, 0
2, 67080, Note_on_c, 1, 71, 127
2, 67080, Note_off_c, 1, 73, 0
2, 67080, Note_off_c, 1, 75, 0
2, 67120, Note_on_c, 1, 58, 127
2, 67120, Note_on_c, 1, 61, 127
2, 67120, Note_off_c, 1, 71, 0
2, 67120, Note_on_c, 1, 73, 127
2, 67120, Note_on_c, 1, 75, 127
2, 67880, Note_off_c, 1, 58, 0
2, 67880, Note_off_c, 1, 61, 0
2, 67880, Note_on_c, 1, 71, 127
2, 67880, Note_off_c, 1, 73, 0
2, 67880, Note_off_c, 1, 75, 0
2, 67920, Note_on_c, 1, 31, 127
2, 67920, Note_on_c, 1, 43, 127
2, 67920, Note_off_c, 1, 59, 0
2, 67920, Note_on_c, 1, 62, 127
2, 67920, Note_off_c, 1, 63, 0
2, 67920, Note_off_c, 1, 66, 0
2, 67920, Note_on_c, 1, 67, 127
2, 68280, Note_on_c, 1, 29, 127
2, 68280, Note_off_c, 1, 31, 0
2, 68280, Note_on_c, 1, 41, 127
2, 68280, Note_off_c, 1, 43, 0
2, 68280, Note_on_c, 1, 60, 127
2, 68280, Note_off_c, 1, 62, 0
2, 68280, Note_on_c, 1, 63, 127
2, 68280, Note_off_c, 1, 67, 0
2, 68280, Note_on_c, 1, 68, 127
2, 68280, Note_off_c, 1, 71, 0
2, 68320, Note_off_c, 1, 29, 0
2, 68320, Note_off_c, 1, 41, 0
2, 68320, Note_on_c, 1, 46, 127
2, 68320, Note_on_c, 1, 49, 127
2, 68320, Note_off_c, 1, 60, 0
2, 68320, Note_off_c, 1, 63, 0
2, 68320, Note_on_c, 1, 64, 127
2, 68320, Note_on_c, 1, 67, 127
2, 68320, Note_off_c, 1, 68, 0
2, 68360, Note_off_c, 1, 46, 0
2, 68360, Note_on_c, 1, 59, 127
2, 68360, Note_on_c, 1, 62, 127
2, 68360, Note_off_c, 1, 64, 0
2, 68360, Note_on_c, 1, 65, 127
2, 68360, Note_off_c, 1, 67, 0
2, 68360, Note_on_c, 1, 71, 127
2, 68640, Note_off_c, 1, 49, 0
2, 68640, Note_on_c, 1, 58, 127
2, 68640, Note_off_c, 1, 59, 0
2, 68640, Note_off_c, 1, 62, 0
2, 68640, Note_on_c, 1, 64, 127
2, 68640, Note_off_c, 1, 65, 0
2, 68640, Note_on_c, 1, 69, 127
2, 68640, Note_off_c, 1, 71, 0
2, 68640, Note_on_c, 1, 76, 127
2, 68640, Note_on_c, 1, 85, 127
2, 68640, Note_on_c, 1, 88, 127
2, 68680, Note_off_c, 1, 58, 0
2, 68680, Note_off_c, 1, 64, 0
2, 68680, Note_on_c, 1, 65, 127
2, 68680, Note_off_c, 1, 69, 0
2, 68680, Note_on_c, 1, 83, 127
2, 68680, Note_off_c, 1, 85, 0
2, 68680, Note_on_c, 1, 86, 127
2, 68720, Note_off_c, 1, 65, 0
2, 68720, Note_off_c, 1, 76, 0
2, 68720, Note_off_c, 1, 83, 0
2, 68720, Note_off_c, 1, 86, 0
2, 68720, Note_off_c, 1, 88, 0
2, 68800, Note_on_c, 1, 40, 127
2, 68800, Note_on_c, 1, 43, 127
2, 68800, Note_on_c, 1, 48, 127
2, 68800, Note_on_c, 1, 52, 127
2, 68800, Note_on_c, 1, 60, 127
2, 68800, Note_on_c, 1, 67, 127
2, 68800, Note_on_c, 1, 70, 127
2, 68800, Note_on_c, 1, 72, 127
2, 70200, Note_off_c, 1, 40, 0
2, 70200, Note_off_c, 1, 43, 0
2, 70200, Note_off_c, 1, 48, 0
2, 70200, Note_off_c, 1, 52, 0
2, 70200, Note_off_c, 1, 60, 0
2, 70200, Note_off_c, 1, 67, 0
2, 70200, Note_off_c, 1, 70, 0
2, 70200, Note_off_c, 1, 72, 0
2, 70240, Note_on_c, 1, 37, 127
2, 70240, Note_on_c, 1, 49, 127
2, 70240, Note_on_c, 1, 80, 127
2, 70240, Note_on_c, 1, 87, 127
2, 70280, Note_off_c, 1, 37, 0
2, 70280, Note_off_c, 1, 49, 0
2, 70280, Note_on_c, 1, 55, 127
2, 70280, Note_on_c, 1, 60, 127
2, 70280, Note_on_c, 1, 63, 127
2, 70280, Note_on_c, 1, 65, 127
2, 70280, Note_on_c, 1, 68, 127
2, 70280, Note_off_c, 1, 80, 0
2, 70280, Note_off_c, 1, 87, 0
2, 70320, Note_on_c, 1, 35, 127
2, 70320, Note_off_c, 1, 55, 0
2, 70320, Note_off_c, 1, 60, 0
2, 70320, Note_off_c, 1, 63, 0
2, 70320, Note_off_c, 1, 65, 0
2, 70320, Note_off_c, 1, 68, 0
2, 70320, Note_on_c, 1, 69, 127
2, 70320, Note_on_c, 1, 76, 127
2, 70360, Note_off_c, 1, 35, 0
2, 70360, Note_on_c, 1, 40, 127
2, 70360, Note_on_c, 1, 52, 127
2, 70360, Note_on_c, 1, 58, 127
2, 70360, Note_off_c, 1, 69, 0
2, 70360, Note_on_c, 1, 74, 127
2, 70360, Note_off_c, 1, 76, 0
2, 70400, Note_off_c, 1, 40, 0
2, 70400, Note_off_c, 1, 52, 0
2, 70400, Note_off_c, 1, 58, 0
2, 70400, Note_on_c, 1, 65, 127
2, 70400, Note_on_c, 1, 68, 127
2, 70400, Note_on_c, 1, 73, 127
2, 70400, Note_off_c, 1, 74, 0
2, 70400, Note_on_c, 1, 77, 127
2, 70400, Note_on_c, 1, 85, 127
2, 70440, Note_off_c, 1, 65, 0
2, 70440, Note_on_c, 1, 67, 127
2, 70440, Note_off_c, 1, 68, 0
2, 70440, Note_off_c, 1, 73, 0
2, 70440, Note_off_c, 1, 77, 0
2, 70440, Note_on_c, 1, 81, 127
2, 70440, Note_off_c, 1, 85, 0
2, 70440, Note_on_c, 1, 88, 127
2, 70440, Note_on_c, 1, 91, 127
2, 70480, Note_on_c, 1, 46, 127
2, 70480, Note_on_c, 1, 57, 127
2, 70480, Note_on_c, 1, 58, 127
2, 70480, Note_off_c, 1, 67, 0
2, 70480, Note_on_c, 1, 69, 127
2, 70480, Note_on_c, 1, 70, 127
2, 70480, Note_off_c, 1, 81, 0
2, 70480, Note_off_c, 1, 88, 0
2, 70480, Note_off_c, 1, 91, 0
2, 70520, Note_off_c, 1, 46, 0
2, 70520, Note_on_c, 1, 54, 127
2, 70520, Note_off_c, 1, 57, 0
2, 70520, Note_on_c, 1, 62, 127
2, 70520, Note_on_c, 1, 66, 127
2, 70520, Note_off_c, 1, 69, 0
2, 70520, Note_off_c, 1, 70, 0
2, 70520, Note_on_c, 1, 74, 127
2, 70560, Note_on_c, 1, 48, 127
2, 70560, Note_off_c, 1, 54, 0
2, 70560, Note_on_c, 1, 55, 127
2, 70560, Note_off_c, 1, 58, 0
2, 70560, Note_on_c, 1, 59, 127
2, 70560, Note_off_c, 1, 62, 0
2, 70560, Note_on_c, 1, 65, 127
2, 70560, Note_off_c, 1, 66, 0
2, 70600, Note_off_c, 1, 48, 0
2, 70600, Note_off_c, 1, 55, 0
2, 70600, Note_on_c, 1, 63, 127
2, 70600, Note_off_c, 1, 65, 0
2, 70600, Note_on_c, 1, 66, 127
2, 70600, Note_on_c, 1, 71, 127
2, 70600, Note_off_c, 1, 74, 0
2, 70600, Note_on_c, 1, 75, 127
2, 70600, Note_on_c, 1, 83, 127
2, 70640, Note_on_c, 1, 53, 127
2, 70640, Note_off_c, 1, 59, 0
2, 70640, Note_off_c, 1, 63, 0
2, 70640, Note_off_c, 1, 66, 0
2, 70640, Note_on_c, 1, 67, 127
2, 70640, Note_off_c, 1, 71, 0
2, 70640, Note_on_c, 1, 74, 127
2, 70640, Note_off_c, 1, 75, 0
2, 70640, Note_on_c, 1, 79, 127
2, 70640, Note_on_c, 1, 82, 127
2, 70640, Note_off_c, 1, 83, 0
2, 70680, Note_off_c, 1, 53, 0
2, 70680, Note_off_c, 1, 67, 0
2, 70680, Note_off_c, 1, 74, 0
2, 70680, Note_off_c, 1, 79, 0
2, 70680, Note_off_c, 1, 82, 0
2, 70720, Note_on_c, 1, 53, 127
2, 70720, Note_on_c, 1, 67, 127
2, 70720, Note_on_c, 1, 74, 127
2, 70720, Note_on_c, 1, 79, 127
2, 70720, Note_on_c, 1, 82, 127
2, 70840, Note_on_c, 1, 47, 127
2, 70840, Note_off_c, 1, 53, 0
2, 70840, Note_on_c, 1, 59, 127
2, 70840, Note_off_c, 1, 67, 0
2, 70840, Note_on_c, 1, 73, 127
2, 70840, Note_off_c, 1, 74, 0
2, 70840, Note_on_c, 1, 77, 127
2, 70840, Note_off_c, 1, 79, 0
2, 70840, Note_on_c, 1, 80, 127
2, 70840, Note_off_c, 1, 82, 0
2, 70840, Note_on_c, 1, 85, 127
2, 70880, Note_off_c, 1, 47, 0
2, 70880, Note_off_c, 1, 59, 0
2, 70880, Note_off_c, 1, 73, 0
2, 70880, Note_off_c, 1, 77, 0
2, 70880, Note_off_c, 1, 80, 0
2, 70880, Note_off_c, 1, 85, 0
2, 70920, Note_on_c, 1, 42, 127
2, 70920, Note_on_c, 1, 45, 127
2, 70920, Note_on_c, 1, 50, 127
2, 70920, Note_on_c, 1, 54, 127
2, 70920, Note_on_c, 1, 69, 127
2, 70920, Note_on_c, 1, 74, 127
2, 70920, Note_on_c, 1, 78, 127
2, 70920, Note_on_c, 1, 81, 127
2, 72120, Note_on_c, 1, 37, 127
2, 72120, Note_on_c, 1, 41, 127
2, 72120, Note_off_c, 1, 42, 0
2, 72120, Note_off_c, 1, 45, 0
2, 72120, Note_on_c, 1, 49, 127
2, 72120, Note_off_c, 1, 50, 0
2, 72120, Note_off_c, 1, 54, 0
2, 72120, Note_off_c, 1, 69, 0
2, 72120, Note_off_c, 1, 74, 0
2, 72120, Note_off_c, 1, 78, 0
2, 72120, Note_off_c, 1, 81, 0
2, 72160, Note_off_c, 1, 37, 0
2, 72160, Note_off_c, 1, 41, 0
2, 72160, Note_off_c, 1, 49, 0
2, 72160, Note_on_c, 1, 53, 127
2, 72160, Note_on_c, 1, 56, 127
2, 72160, Note_on_c, 1, 68, 127
2, 72160, Note_on_c, 1, 73, 127
2, 72160, Note_on_c, 1, 77, 127
2, 72160, Note_on_c, 1, 80, 127
2, 72200, Note_on_c, 1, 48, 127
2, 72560, Note_off_c, 1, 48, 0
2, 72560, Note_off_c, 1, 53, 0
2, 72560, Note_off_c, 1, 56, 0
2, 72560, Note_off_c, 1, 68, 0
2, 72560, Note_off_c, 1, 73, 0
2, 72560, Note_off_c, 1, 77, 0
2, 72560, Note_off_c, 1, 80, 0
2, 72600, Note_on_c, 1, 48, 127
2, 72600, Note_on_c, 1, 55, 127
2, 72600, Note_on_c, 1, 58, 127
2, 72600, Note_on_c, 1, 70, 127
2, 72600, Note_on_c, 1, 73, 127
2, 72600, Note_on_c, 1, 77, 127
2, 72600, Note_on_c, 1, 82, 127
2, 73000, Note_off_c, 1, 48, 0
2, 73000, Note_off_c, 1, 55, 0
2, 73000, Note_off_c, 1, 58, 0
2, 73000, Note_off_c, 1, 70, 0
2, 73000, Note_off_c, 1, 73, 0
2, 73000, Note_off_c, 1, 77, 0
2, 73000, Note_off_c, 1, 82, 0
2, 73040, Note_on_c, 1, 48, 127
2, 73040, Note_on_c, 1, 55, 127
2, 73040, Note_on_c, 1, 58, 127
2, 73040, Note_on_c, 1, 70, 127
2, 73040, Note_on_c, 1, 73, 127
2, 73040, Note_on_c, 1, 77, 127
2, 73040, Note_on_c, 1, 82, 127
2, 73200, Note_off_c, 1, 70, 0
2, 73200, Note_off_c, 1, 82, 0
2, 73240, Note_on_c, 1, 68, 127
2, 73240, Note_on_c, 1, 80, 127
2, 73400, Note_off_c, 1, 48, 0
2, 73400, Note_off_c, 1, 68, 0
2, 73400, Note_off_c, 1, 80, 0
2, 73440, Note_on_c, 1, 48, 127
2, 73440, Note_on_c, 1, 67, 127
2, 73440, Note_on_c, 1, 79, 127
2, 73640, Note_off_c, 1, 55, 0
2, 73640, Note_on_c, 1, 56, 127
2, 73640, Note_off_c, 1, 58, 0
2, 73640, Note_on_c, 1, 65, 127
2, 73640, Note_off_c, 1, 67, 0
2, 73640, Note_off_c, 1, 73, 0
2, 73640, Note_on_c, 1, 74, 127
2, 73640, Note_off_c, 1, 77, 0
2, 73640, Note_off_c, 1, 79, 0
2, 73680, Note_on_c, 1, 55, 127
2, 73680, Note_off_c, 1, 56, 0
2, 73680, Note_on_c, 1, 58, 127
2, 73680, Note_off_c, 1, 65, 0
2, 73680, Note_on_c, 1, 73, 127
2, 73680, Note_off_c, 1, 74, 0
2, 73680, Note_on_c, 1, 77, 127
2, 73840, Note_off_c, 1, 48, 0
2, 73840, Note_off_c, 1, 55, 0
2, 73840, Note_off_c, 1, 58, 0
2, 73840, Note_off_c, 1, 73, 0
2, 73840, Note_off_c, 1, 77, 0
2, 73880, Note_on_c, 1, 43, 127
2, 73880, Note_on_c, 1, 47, 127
2, 73880, Note_on_c, 1, 51, 127
2, 73880, Note_on_c, 1, 63, 127
2, 73880, Note_on_c, 1, 67, 127
2, 73880, Note_on_c, 1, 71, 127
2, 73920, Note_on_c, 1, 41, 127
2, 73920, Note_off_c, 1, 43, 0
2, 73920, Note_off_c, 1, 47, 0
2, 73920, Note_on_c, 1, 48, 127
2, 73920, Note_off_c, 1, 51, 0
2, 73920, Note_on_c, 1, 53, 127
2, 73920, Note_on_c, 1, 60, 127
2, 73920, Note_off_c, 1, 67, 0
2, 73920, Note_off_c, 1, 71, 0
2, 73920, Note_on_c, 1, 75, 127
2, 73920, Note_on_c, 1, 81, 127
2, 73920, Note_on_c, 1, 87, 127
2, 73960, Note_off_c, 1, 41, 0
2, 73960, Note_on_c, 1, 43, 127
2, 73960, Note_on_c, 1, 47, 127
2, 73960, Note_off_c, 1, 48, 0
2, 73960, Note_on_c, 1, 51, 127
2, 73960, Note_off_c, 1, 53, 0
2, 73960, Note_off_c, 1, 60, 0
2, 73960, Note_on_c, 1, 67, 127
2, 73960, Note_on_c, 1, 71, 127
2, 73960, Note_off_c, 1, 75, 0
2, 73960, Note_off_c, 1, 81, 0
2, 73960, Note_off_c, 1, 87, 0
2, 74000, Note_off_c, 1, 51, 0
2, 74000, Note_on_c, 1, 52, 127
2, 74000, Note_off_c, 1, 63, 0
2, 74000, Note_on_c, 1, 64, 127
2, 74040, Note_off_c, 1, 47, 0
2, 74040, Note_on_c, 1, 50, 127
2, 74040, Note_off_c, 1, 52, 0
2, 74040, Note_on_c, 1, 61, 127
2, 74040, Note_off_c, 1, 64, 0
2, 74040, Note_off_c, 1, 67, 0
2, 74040, Note_off_c, 1, 71, 0
2, 74040, Note_on_c, 1, 73, 127
2, 74080, Note_on_c, 1, 47, 127
2, 74080, Note_off_c, 1, 50, 0
2, 74080, Note_on_c, 1, 52, 127
2, 74080, Note_off_c, 1, 61, 0
2, 74080, Note_on_c, 1, 64, 127
2, 74080, Note_on_c, 1, 67, 127
2, 74080, Note_on_c, 1, 71, 127
2, 74080, Note_off_c, 1, 73, 0
2, 74240, Note_off_c, 1, 43, 0
2, 74240, Note_off_c, 1, 47, 0
2, 74240, Note_off_c, 1, 52, 0
2, 74240, Note_off_c, 1, 64, 0
2, 74240, Note_off_c, 1, 67, 0
2, 74240, Note_off_c, 1, 71, 0
2, 74280, Note_on_c, 1, 37, 127
2, 74280, Note_on_c, 1, 49, 127
2, 74280, Note_on_c, 1, 66, 127
2, 74280, Note_on_c, 1, 74, 127
2, 74680, Note_off_c, 1, 66, 0
2, 74680, Note_on_c, 1, 71, 127
2, 74720, Note_off_c, 1, 37, 0
2, 74720, Note_off_c, 1, 49, 0
2, 74720, Note_on_c, 1, 55, 127
2, 74720, Note_on_c, 1, 58, 127
2, 74720, Note_on_c, 1, 62, 127
2, 74720, Note_on_c, 1, 67, 127
2, 74720, Note_on_c, 1, 70, 127
2, 74720, Note_off_c, 1, 71, 0
2, 74720, Note_off_c, 1, 74, 0
2, 74760, Note_off_c, 1, 55, 0
2, 74760, Note_off_c, 1, 58, 0
2, 74760, Note_off_c, 1, 67, 0
2, 74760, Note_on_c, 1, 69, 127
2, 74760, Note_off_c, 1, 70, 0
2, 74760, Note_on_c, 1, 72, 127
2, 74760, Note_on_c, 1, 83, 127
2, 74800, Note_off_c, 1, 62, 0
2, 74800, Note_on_c, 1, 64, 127
2, 74800, Note_off_c, 1, 69, 0
2, 74800, Note_off_c, 1, 72, 0
2, 74800, Note_off_c, 1, 83, 0
2, 74800, Note_on_c, 1, 86, 127
2, 74800, Note_on_c, 1, 87, 127
2, 74800, Note_on_c, 1, 89, 127
2, 74800, Note_on_c, 1, 90, 127
2, 74840, Note_on_c, 1, 37, 127
2, 74840, Note_on_c, 1, 49, 127
2, 74840, Note_on_c, 1, 52, 127
2, 74840, Note_on_c, 1, 58, 127
2, 74840, Note_on_c, 1, 70, 127
2, 74840, Note_off_c, 1, 86, 0
2, 74840, Note_off_c, 1, 87, 0
2, 74840, Note_off_c, 1, 89, 0
2, 74840, Note_off_c, 1, 90, 0
2, 74880, Note_off_c, 1, 37, 0
2, 74880, Note_off_c, 1, 49, 0
2, 74880, Note_off_c, 1, 52, 0
2, 74880, Note_on_c, 1, 55, 127
2, 74880, Note_off_c, 1, 58, 0
2, 74880, Note_on_c, 1, 61, 127
2, 74880, Note_on_c, 1, 69, 127
2, 74880, Note_off_c, 1, 70, 0
2, 74880, Note_on_c, 1, 86, 127
2, 74920, Note_on_c, 1, 28, 127
2, 74920, Note_on_c, 1, 39, 127
2, 74920, Note_on_c, 1, 40, 127
2, 74920, Note_on_c, 1, 47, 127
2, 74920, Note_on_c, 1, 51, 127
2, 74920, Note_on_c, 1, 52, 127
2, 74920, Note_off_c, 1, 55, 0
2, 74920, Note_on_c, 1, 59, 127
2, 74920, Note_off_c, 1, 61, 0
2, 74920, Note_off_c, 1, 64, 0
2, 74920, Note_on_c, 1, 68, 127
2, 74920, Note_off_c, 1, 69, 0
2, 74920, Note_on_c, 1, 71, 127
2, 74920, Note_off_c, 1, 86, 0
2, 75040, Note_off_c, 1, 28, 0
2, 75040, Note_off_c, 1, 39, 0
2, 75040, Note_off_c, 1, 40, 0
2, 75040, Note_off_c, 1, 47, 0
2, 75040, Note_off_c, 1, 51, 0
2, 75040, Note_off_c, 1, 52, 0
2, 75040, Note_off_c, 1, 59, 0
2, 75040, Note_off_c, 1, 68, 0
2, 75040, Note_off_c, 1, 71, 0
2, 75120, Note_on_c, 1, 42, 127
2, 75120, Note_on_c, 1, 66, 127
2, 75120, Note_on_c, 1, 69, 127
2, 75120, Note_on_c, 1, 71, 127
2, 75160, Note_on_c, 1, 40, 127
2, 75160, Note_off_c, 1, 42, 0
2, 75160, Note_on_c, 1, 60, 127
2, 75160, Note_off_c, 1, 66, 0
2, 75160, Note_on_c, 1, 68, 127
2, 75160, Note_off_c, 1, 69, 0
2, 75160, Note_off_c, 1, 71, 0
2, 75200, Note_off_c, 1, 40, 0
2, 75200, Note_on_c, 1, 42, 127
2, 75200, Note_off_c, 1, 60, 0
2, 75200, Note_on_c, 1, 66, 127
2, 75200, Note_off_c, 1, 68, 0
2, 75200, Note_on_c, 1, 69, 127
2, 75200, Note_on_c, 1, 71, 127
2, 75240, Note_off_c, 1, 42, 0
2, 75240, Note_off_c, 1, 66, 0
2, 75240, Note_off_c, 1, 69, 0
2, 75240, Note_off_c, 1, 71, 0
2, 75280, Note_on_c, 1, 42, 127
2, 75280, Note_on_c, 1, 66, 127
2, 75280, Note_on_c, 1, 69, 127
2, 75280, Note_on_c, 1, 71, 127
2, 75320, Note_on_c, 1, 32, 127
2, 75320, Note_off_c, 1, 42, 0
2, 75320, Note_on_c, 1, 51, 127
2, 75320, Note_on_c, 1, 56, 127
2, 75320, Note_off_c, 1, 66, 0
2, 75320, Note_off_c, 1, 69, 0
2, 75320, Note_off_c, 1, 71, 0
2, 75360, Note_off_c, 1, 32, 0
2, 75360, Note_on_c, 1, 33, 127
2, 75360, Note_on_c, 1, 37, 127
2, 75360, Note_on_c, 1, 45, 127
2, 75360, Note_off_c, 1, 51, 0
2, 75360, Note_off_c, 1, 56, 0
2, 75360, Note_on_c, 1, 76, 127
2, 75360, Note_on_c, 1, 81, 127
2, 75360, Note_on_c, 1, 85, 127
2, 75360, Note_on_c, 1, 88, 127
2, 75400, Note_off_c, 1, 33, 0
2, 75400, Note_off_c, 1, 37, 0
2, 75400, Note_on_c, 1, 40, 127
2, 75400, Note_on_c, 1, 52, 127
2, 75400, Note_on_c, 1, 65, 127
2, 75400, Note_on_c, 1, 68, 127
2, 75400, Note_on_c, 1, 72, 127
2, 75400, Note_off_c, 1, 76, 0
2, 75400, Note_on_c, 1, 78, 127
2, 75400, Note_off_c, 1, 81, 0
2, 75400, Note_on_c, 1, 84, 127
2, 75400, Note_off_c, 1, 85, 0
2, 75400, Note_off_c, 1, 88, 0
2, 75440, Note_off_c, 1, 40, 0
2, 75440, Note_off_c, 1, 45, 0
2, 75440, Note_on_c, 1, 47, 127
2, 75440, Note_on_c, 1, 51, 127
2, 75440, Note_off_c, 1, 52, 0
2, 75440, Note_on_c, 1, 59, 127
2, 75440, Note_off_c, 1, 65, 0
2, 75440, Note_on_c, 1, 66, 127
2, 75440, Note_off_c, 1, 68, 0
2, 75440, Note_off_c, 1, 72, 0
2, 75440, Note_on_c, 1, 77, 127
2, 75440, Note_off_c, 1, 78, 0
2, 75440, Note_off_c, 1, 84, 0
2, 75480, Note_on_c, 1, 43, 127
2, 75480, Note_off_c, 1, 47, 0
2, 75480, Note_on_c, 1, 50, 127
2, 75480, Note_off_c, 1, 51, 0
2, 75480, Note_on_c, 1, 52, 127
2, 75480, Note_on_c, 1, 55, 127
2, 75480, Note_off_c, 1, 59, 0
2, 75480, Note_off_c, 1, 66, 0
2, 75520, Note_off_c, 1, 43, 0
2, 75520, Note_on_c, 1, 47, 127
2, 75520, Note_off_c, 1, 50, 0
2, 75520, Note_off_c, 1, 52, 0
2, 75520, Note_off_c, 1, 55, 0
2, 75520, Note_on_c, 1, 63, 127
2, 75520, Note_on_c, 1, 72, 127
2, 75520, Note_off_c, 1, 77, 0
2, 75560, Note_off_c, 1, 47, 0
2, 75560, Note_on_c, 1, 57, 127
2, 75560, Note_off_c, 1, 63, 0
2, 75560, Note_off_c, 1, 72, 0
2, 75560, Note_on_c, 1, 76, 127
2, 75560, Note_on_c, 1, 85, 127
2, 75560, Note_on_c, 1, 88, 127
2, 75600, Note_on_c, 1, 69, 127
2, 75600, Note_on_c, 1, 73, 127
2, 75600, Note_off_c, 1, 76, 0
2, 75600, Note_on_c, 1, 81, 127
2, 75600, Note_off_c, 1, 85, 0
2, 75600, Note_off_c, 1, 88, 0
2, 75640, Note_on_c, 1, 28, 127
2, 75640, Note_off_c, 1, 57, 0
2, 75640, Note_off_c, 1, 69, 0
2, 75640, Note_on_c, 1, 72, 127
2, 75640, Note_off_c, 1, 73, 0
2, 75640, Note_on_c, 1, 76, 127
2, 75640, Note_on_c, 1, 84, 127
2, 75680, Note_off_c, 1, 28, 0
2, 75680, Note_on_c, 1, 44, 127
2, 75680, Note_on_c, 1, 49, 127
2, 75680, Note_on_c, 1, 52, 127
2, 75680, Note_off_c, 1, 72, 0
2, 75680, Note_off_c, 1, 76, 0
2, 75680, Note_off_c, 1, 81, 0
2, 75680, Note_off_c, 1, 84, 0
2, 75720, Note_off_c, 1, 44, 0
2, 75720, Note_off_c, 1, 49, 0
2, 75720, Note_off_c, 1, 52, 0
2, 75720, Note_on_c, 1, 57, 127
2, 75720, Note_on_c, 1, 69, 127
2, 75720, Note_on_c, 1, 73, 127
2, 75720, Note_on_c, 1, 81, 127
2, 75760, Note_on_c, 1, 46, 127
2, 75760, Note_on_c, 1, 52, 127
2, 75760, Note_off_c, 1, 57, 0
2, 75760, Note_off_c, 1, 69, 0
2, 75760, Note_on_c, 1, 70, 127
2, 75760, Note_off_c, 1, 73, 0
2, 75760, Note_off_c, 1, 81, 0
2, 75760, Note_on_c, 1, 82, 127
2, 75800, Note_on_c, 1, 31, 127
2, 75800, Note_on_c, 1, 35, 127
2, 75800, Note_on_c, 1, 40, 127
2, 75800, Note_off_c, 1, 46, 0
2, 75800, Note_off_c, 1, 70, 0
2, 75800, Note_off_c, 1, 82, 0
2, 75840, Note_off_c, 1, 31, 0
2, 75840, Note_off_c, 1, 35, 0
2, 75840, Note_off_c, 1, 40, 0
2, 75840, Note_off_c, 1, 52, 0
2, 75840, Note_on_c, 1, 68, 127
2, 75840, Note_on_c, 1, 70, 127
2, 75840, Note_on_c, 1, 73, 127
2, 75840, Note_on_c, 1, 84, 127
2, 75880, Note_on_c, 1, 46, 127
2, 75880, Note_on_c, 1, 53, 127
2, 75880, Note_on_c, 1, 65, 127
2, 75880, Note_off_c, 1, 68, 0
2, 75880, Note_off_c, 1, 70, 0
2, 75880, Note_off_c, 1, 73, 0
2, 75880, Note_on_c, 1, 74, 127
2, 75880, Note_on_c, 1, 82, 127
2, 75880, Note_off_c, 1, 84, 0
2, 75880, Note_on_c, 1, 86, 127
2, 75920, Note_off_c, 1, 46, 0
2, 75920, Note_off_c, 1, 53, 0
2, 75920, Note_off_c, 1, 65, 0
2, 75920, Note_off_c, 1, 74, 0
2, 75920, Note_off_c, 1, 82, 0
2, 75920, Note_off_c, 1, 86, 0
2, 75960, Note_on_c, 1, 56, 127
2, 75960, Note_on_c, 1, 60, 127
2, 75960, Note_on_c, 1, 63, 127
2, 75960, Note_on_c, 1, 80, 127
2, 75960, Note_on_c, 1, 92, 127
2, 76520, Note_off_c, 1, 56, 0
2, 76520, Note_off_c, 1, 60, 0
2, 76520, Note_off_c, 1, 63, 0
2, 76520, Note_off_c, 1, 80, 0
2, 76520, Note_off_c, 1, 92, 0
2, 76560, Note_on_c, 1, 59, 127
2, 76560, Note_on_c, 1, 66, 127
2, 76560, Note_on_c, 1, 82, 127
2, 76560, Note_on_c, 1, 85, 127
2, 76920, Note_on_c, 1, 47, 127
2, 76920, Note_off_c, 1, 59, 0
2, 76920, Note_on_c, 1, 63, 127
2, 76920, Note_off_c, 1, 66, 0
2, 76920, Note_on_c, 1, 77, 127
2, 76920, Note_on_c, 1, 80, 127
2, 76920, Note_off_c, 1, 82, 0
2, 76920, Note_off_c, 1, 85, 0
2, 76960, Note_off_c, 1, 47, 0
2, 76960, Note_on_c, 1, 59, 127
2, 76960, Note_off_c, 1, 63, 0
2, 76960, Note_on_c, 1, 66, 127
2, 76960, Note_off_c, 1, 77, 0
2, 76960, Note_off_c, 1, 80, 0
2, 76960, Note_on_c, 1, 82, 127
2, 76960, Note_on_c, 1, 85, 127
2, 77120, Note_on_c, 1, 50, 127
2, 77120, Note_on_c, 1, 62, 127
2, 77120, Note_off_c, 1, 66, 0
2, 77120, Note_on_c, 1, 74, 127
2, 77120, Note_on_c, 1, 76, 127
2, 77120, Note_off_c, 1, 82, 0
2, 77120, Note_off_c, 1, 85, 0
2, 77160, Note_off_c, 1, 50, 0
2, 77160, Note_off_c, 1, 62, 0
2, 77160, Note_off_c, 1, 74, 0
2, 77160, Note_off_c, 1, 76, 0
2, 77160, Note_on_c, 1, 80, 127
2, 77160, Note_on_c, 1, 87, 127
2, 77160, Note_on_c, 1, 92, 127
2, 77200, Note_off_c, 1, 59, 0
2, 77200, Note_off_c, 1, 80, 0
2, 77200, Note_off_c, 1, 87, 0
2, 77200, Note_off_c, 1, 92, 0
2, 77280, Note_on_c, 1, 47, 127
2, 77280, Note_on_c, 1, 52, 127
2, 77280, Note_on_c, 1, 56, 127
2, 77280, Note_on_c, 1, 78, 127
2, 78040, Note_off_c, 1, 78, 0
2, 78080, Note_off_c, 1, 47, 0
2, 78080, Note_off_c, 1, 52, 0
2, 78080, Note_off_c, 1, 56, 0
2, 78120, Note_on_c, 1, 47, 127
2, 78440, Note_off_c, 1, 47, 0
2, 78440, Note_on_c, 1, 64, 127
2, 78440, Note_on_c, 1, 71, 127
2, 78440, Note_on_c, 1, 83, 127
2, 78440, Note_on_c, 1, 90, 127
2, 78480, Note_on_c, 1, 35, 127
2, 78480, Note_on_c, 1, 42, 127
2, 78480, Note_on_c, 1, 49, 127
2, 78480, Note_on_c, 1, 52, 127
2, 78480, Note_on_c, 1, 59, 127
2, 78480, Note_off_c, 1, 64, 0
2, 78480, Note_off_c, 1, 71, 0
2, 78480, Note_off_c, 1, 83, 0
2, 78480, Note_off_c, 1, 90, 0
2, 78520, Note_off_c, 1, 35, 0
2, 78520, Note_off_c, 1, 42, 0
2, 78520, Note_on_c, 1, 43, 127
2, 78520, Note_off_c, 1, 49, 0
2, 78520, Note_off_c, 1, 52, 0
2, 78520, Note_on_c, 1, 55, 127
2, 78520, Note_on_c, 1, 67, 127
2, 78520, Note_on_c, 1, 71, 127
2, 78560, Note_off_c, 1, 43, 0
2, 78560, Note_on_c, 1, 44, 127
2, 78560, Note_on_c, 1, 51, 127
2, 78560, Note_off_c, 1, 55, 0
2, 78560, Note_off_c, 1, 59, 0
2, 78560, Note_on_c, 1, 60, 127
2, 78560, Note_on_c, 1, 63, 127
2, 78560, Note_off_c, 1, 67, 0
2, 78560, Note_on_c, 1, 68, 127
2, 78560, Note_off_c, 1, 71, 0
2, 78560, Note_on_c, 1, 72, 127
2, 78600, Note_off_c, 1, 44, 0
2, 78600, Note_on_c, 1, 49, 127
2, 78600, Note_off_c, 1, 51, 0
2, 78600, Note_on_c, 1, 53, 127
2, 78600, Note_on_c, 1, 59, 127
2, 78600, Note_off_c, 1, 60, 0
2, 78600, Note_off_c, 1, 63, 0
2, 78600, Note_off_c, 1, 72, 0
2, 78600, Note_on_c, 1, 73, 127
2, 78640, Note_off_c, 1, 49, 0
2, 78640, Note_off_c, 1, 53, 0
2, 78640, Note_on_c, 1, 56, 127
2, 78640, Note_on_c, 1, 65, 127
2, 78640, Note_off_c, 1, 68, 0
2, 78640, Note_on_c, 1, 70, 127
2, 78640, Note_off_c, 1, 73, 0
2, 78640, Note_on_c, 1, 77, 127
2, 78680, Note_on_c, 1, 47, 127
2, 78680, Note_off_c, 1, 56, 0
2, 78680, Note_off_c, 1, 59, 0
2, 78680, Note_on_c, 1, 62, 127
2, 78680, Note_off_c, 1, 65, 0
2, 78680, Note_on_c, 1, 68, 127
2, 78680, Note_off_c, 1, 70, 0
2, 78680, Note_on_c, 1, 71, 127
2, 78680, Note_off_c, 1, 77, 0
2, 78680, Note_on_c, 1, 80, 127
2, 78720, Note_off_c, 1, 47, 0
2, 78720, Note_on_c, 1, 58, 127
2, 78720, Note_off_c, 1, 62, 0
2, 78720, Note_off_c, 1, 68, 0
2, 78720, Note_on_c, 1, 70, 127
2, 78720, Note_off_c, 1, 71, 0
2, 78720, Note_on_c, 1, 77, 127
2, 78720, Note_off_c, 1, 80, 0
2, 78720, Note_on_c, 1, 83, 127
2, 78760, Note_off_c, 1, 58, 0
2, 78760, Note_on_c, 1, 67, 127
2, 78760, Note_on_c, 1, 75, 127
2, 78760, Note_off_c, 1, 77, 0
2, 78760, Note_on_c, 1, 79, 127
2, 78760, Note_on_c, 1, 82, 127
2, 78760, Note_off_c, 1, 83, 0
2, 78760, Note_on_c, 1, 87, 127
2, 78760, Note_on_c, 1, 94, 127
2, 78920, Note_on_c, 1, 52, 127
2, 78920, Note_on_c, 1, 61, 127
2, 78920, Note_off_c, 1, 67, 0
2, 78920, Note_off_c, 1, 70, 0
2, 78920, Note_off_c, 1, 75, 0
2, 78920, Note_off_c, 1, 79, 0
2, 78920, Note_off_c, 1, 82, 0
2, 78920, Note_off_c, 1, 87, 0
2, 78920, Note_off_c, 1, 94, 0
2, 78960, Note_on_c, 1, 32, 127
2, 78960, Note_off_c, 1, 52, 0
2, 78960, Note_on_c, 1, 55, 127
2, 78960, Note_on_c, 1, 57, 127
2, 78960, Note_on_c, 1, 64, 127
2, 79280, Note_off_c, 1, 32, 0
2, 79280, Note_off_c, 1, 55, 0
2, 79280, Note_off_c, 1, 57, 0
2, 79280, Note_off_c, 1, 61, 0
2, 79280, Note_off_c, 1, 64, 0
2, 79320, Note_on_c, 1, 32, 127
2, 79320, Note_on_c, 1, 55, 127
2, 79320, Note_on_c, 1, 57, 127
2, 79320, Note_on_c, 1, 61, 127
2, 79320, Note_on_c, 1, 64, 127
2, 79360, Note_off_c, 1, 32, 0
2, 79360, Note_off_c, 1, 55, 0
2, 79360, Note_off_c, 1, 57, 0
2, 79360, Note_off_c, 1, 61, 0
2, 79360, Note_off_c, 1, 64, 0
2, 79360, Note_on_c, 1, 86, 127
2, 79400, Note_on_c, 1, 40, 127
2, 79400, Note_on_c, 1, 76, 127
2, 79400, Note_on_c, 1, 79, 127
2, 79400, Note_off_c, 1, 86, 0
2, 79400, Note_on_c, 1, 88, 127
2, 79560, Note_off_c, 1, 40, 0
2, 79560, Note_on_c, 1, 50, 127
2, 79600, Note_on_c, 1, 40, 127
2, 79600, Note_off_c, 1, 50, 0
2, 79680, Note_off_c, 1, 40, 0
2, 79720, Note_on_c, 1, 40, 127
2, 79760, Note_off_c, 1, 40, 0
2, 79760, Note_on_c, 1, 43, 127
2, 79760, Note_off_c, 1, 76, 0
2, 79760, Note_off_c, 1, 79, 0
2, 79760, Note_off_c, 1, 88, 0
2, 79800, Note_on_c, 1, 40, 127
2, 79800, Note_off_c, 1, 43, 0
2, 79800, Note_on_c, 1, 76, 127
2, 79800, Note_on_c, 1, 79, 127
2, 79800, Note_on_c, 1, 88, 127
2, 79840, Note_off_c, 1, 40, 0
2, 79840, Note_on_c, 1, 43, 127
2, 79880, Note_on_c, 1, 40, 127
2, 79880, Note_off_c, 1, 43, 0
2, 79960, Note_off_c, 1, 40, 0
2, 80000, Note_on_c, 1, 47, 127
2, 80160, Note_off_c, 1, 47, 0
2, 80160, Note_on_c, 1, 55, 127
2, 80160, Note_off_c, 1, 76, 0
2, 80160, Note_off_c, 1, 79, 0
2, 80160, Note_off_c, 1, 88, 0
2, 80200, Note_on_c, 1, 52, 127
2, 80200, Note_off_c, 1, 55, 0
2, 80200, Note_on_c, 1, 73, 127
2, 80200, Note_on_c, 1, 82, 127
2, 80200, Note_on_c, 1, 85, 127
2, 80240, Note_on_c, 1, 45, 127
2, 80240, Note_off_c, 1, 52, 0
2, 80240, Note_on_c, 1, 72, 127
2, 80240, Note_off_c, 1, 73, 0
2, 80240, Note_on_c, 1, 76, 127
2, 80240, Note_off_c, 1, 82, 0
2, 80240, Note_on_c, 1, 84, 127
2, 80240, Note_off_c, 1, 85, 0
2, 80280, Note_on_c, 1, 42, 127
2, 80280, Note_off_c, 1, 45, 0
2, 80280, Note_off_c, 1, 72, 0
2, 80280, Note_on_c, 1, 73, 127
2, 80280, Note_off_c, 1, 76, 0
2, 80280, Note_off_c, 1, 84, 0
2, 80280, Note_on_c, 1, 85, 127
2, 80320, Note_off_c, 1, 42, 0
2, 80320, Note_on_c, 1, 48, 127
2, 80320, Note_on_c, 1, 59, 127
2, 80320, Note_on_c, 1, 62, 127
2, 80320, Note_on_c, 1, 65, 127
2, 80320, Note_on_c, 1, 67, 127
2, 80320, Note_off_c, 1, 73, 0
2, 80320, Note_off_c, 1, 85, 0
2, 80360, Note_off_c, 1, 48, 0
2, 80360, Note_on_c, 1, 49, 127
2, 80360, Note_off_c, 1, 59, 0
2, 80360, Note_off_c, 1, 62, 0
2, 80360, Note_off_c, 1, 65, 0
2, 80360, Note_off_c, 1, 67, 0
2, 80360, Note_on_c, 1, 71, 127
2, 80360, Note_on_c, 1, 83, 127
2, 80400, Note_off_c, 1, 49, 0
2, 80400, Note_on_c, 1, 57, 127
2, 80400, Note_on_c, 1, 61, 127
2, 80400, Note_on_c, 1, 66, 127
2, 80400, Note_off_c, 1, 71, 0
2, 80400, Note_on_c, 1, 73, 127
2, 80400, Note_off_c, 1, 83, 0
2, 80400, Note_on_c, 1, 85, 127
2, 80560, Note_off_c, 1, 57, 0
2, 80560, Note_off_c, 1, 61, 0
2, 80560, Note_off_c, 1, 66, 0
2, 80600, Note_on_c, 1, 57, 127
2, 80600, Note_on_c, 1, 61, 127
2, 80600, Note_on_c, 1, 66, 127
2, 80800, Note_off_c, 1, 57, 0
2, 80800, Note_off_c, 1, 61, 0
2, 80800, Note_off_c, 1, 66, 0
2, 80840, Note_off_c, 1, 73, 0
2, 80840, Note_on_c, 1, 77, 127
2, 80840, Note_on_c, 1, 80, 127
2, 80840, Note_off_c, 1, 85, 0
2, 80840, Note_on_c, 1, 86, 127
2, 80840, Note_on_c, 1, 101, 127
2, 80880, Note_on_c, 1, 43, 127
2, 80880, Note_on_c, 1, 52, 127
2, 80880, Note_on_c, 1, 71, 127
2, 80880, Note_on_c, 1, 74, 127
2, 80880, Note_off_c, 1, 77, 0
2, 80880, Note_off_c, 1, 80, 0
2, 80880, Note_on_c, 1, 83, 127
2, 80880, Note_off_c, 1, 86, 0
2, 80880, Note_off_c, 1, 101, 0
2, 80920, Note_off_c, 1, 43, 0
2, 80920, Note_off_c, 1, 52, 0
2, 80920, Note_off_c, 1, 71, 0
2, 80920, Note_off_c, 1, 74, 0
2, 80920, Note_on_c, 1, 77, 127
2, 80920, Note_on_c, 1, 80, 127
2, 80920, Note_off_c, 1, 83, 0
2, 80920, Note_on_c, 1, 86, 127
2, 80920, Note_on_c, 1, 101, 127
2, 81000, Note_on_c, 1, 43, 127
2, 81000, Note_on_c, 1, 48, 127
2, 81000, Note_off_c, 1, 77, 0
2, 81000, Note_off_c, 1, 80, 0
2, 81000, Note_off_c, 1, 86, 0
2, 81000, Note_off_c, 1, 101, 0
2, 81040, Note_off_c, 1, 43, 0
2, 81040, Note_off_c, 1, 48, 0
2, 81040, Note_on_c, 1, 69, 127
2, 81040, Note_on_c, 1, 72, 127
2, 81040, Note_on_c, 1, 74, 127
2, 81040, Note_on_c, 1, 81, 127
2, 81040, Note_on_c, 1, 90, 127
2, 81120, Note_off_c, 1, 74, 0
2, 81160, Note_on_c, 1, 63, 127
2, 81160, Note_on_c, 1, 66, 127
2, 81160, Note_off_c, 1, 69, 0
2, 81160, Note_off_c, 1, 72, 0
2, 81160, Note_on_c, 1, 80, 127
2, 81160, Note_off_c, 1, 90, 0
2, 81200, Note_off_c, 1, 63, 0
2, 81200, Note_off_c, 1, 66, 0
2, 81200, Note_off_c, 1, 80, 0
2, 81200, Note_off_c, 1, 81, 0
2, 81240, Note_on_c, 1, 61, 127
2, 81240, Note_on_c, 1, 68, 127
2, 81240, Note_on_c, 1, 83, 127
2, 81240, Note_on_c, 1, 85, 127
2, 81440, Note_off_c, 1, 61, 0
2, 81440, Note_off_c, 1, 68, 0
2, 81440, Note_off_c, 1, 83, 0
2, 81440, Note_off_c, 1, 85, 0
2, 81480, Note_on_c, 1, 61, 127
2, 81520, Note_on_c, 1, 57, 127
2, 81520, Note_on_c, 1, 66, 127
2, 81520, Note_on_c, 1, 91, 127
2, 81640, Note_off_c, 1, 57, 0
2, 81640, Note_off_c, 1, 66, 0
2, 81640, Note_off_c, 1, 91, 0
2, 81680, Note_on_c, 1, 47, 127
2, 81680, Note_on_c, 1, 50, 127
2, 81680, Note_off_c, 1, 61, 0
2, 81680, Note_on_c, 1, 64, 127
2, 81880, Note_off_c, 1, 47, 0
2, 81880, Note_off_c, 1, 50, 0
2, 81880, Note_off_c, 1, 64, 0
2, 81920, Note_on_c, 1, 44, 127
2, 81920, Note_on_c, 1, 50, 127
2, 81920, Note_on_c, 1, 57, 127
2, 81920, Note_on_c, 1, 62, 127
2, 81920, Note_on_c, 1, 66, 127
2, 81920, Note_on_c, 1, 74, 127
2, 82720, Note_off_c, 1, 44, 0
2, 82720, Note_off_c, 1, 50, 0
2, 82720, Note_off_c, 1, 57, 0
2, 82720, Note_off_c, 1, 62, 0
2, 82720, Note_off_c, 1, 66, 0
2, 82720, Note_off_c, 1, 74, 0
2, 82760, Note_on_c, 1, 52, 127
2, 82760, Note_on_c, 1, 57, 127
2, 82760, Note_on_c, 1, 69, 127
2, 82760, Note_on_c, 1, 73, 127
2, 82760, Note_on_c, 1, 79, 127
2, 82760, Note_on_c, 1, 81, 127
2, 83160, Note_off_c, 1, 52, 0
2, 83160, Note_on_c, 1, 56, 127
2, 83160, Note_off_c, 1, 57, 0
2, 83160, Note_off_c, 1, 69, 0
2, 83160, Note_off_c, 1, 73, 0
2, 83160, Note_off_c, 1, 79, 0
2, 83160, Note_on_c, 1, 80, 127
2, 83160, Note_off_c, 1, 81, 0
2, 83160, Note_on_c, 1, 83, 127
2, 83160, Note_on_c, 1, 87, 127
2, 83160, Note_on_c, 1, 92, 127
2, 83360, Note_off_c, 1, 56, 0
2, 83360, Note_off_c, 1, 80, 0
2, 83360, Note_off_c, 1, 83, 0
2, 83360, Note_off_c, 1, 87, 0
2, 83360, Note_off_c, 1, 92, 0
2, 83400, Note_on_c, 1, 56, 127
2, 83400, Note_on_c, 1, 80, 127
2, 83400, Note_on_c, 1, 83, 127
2, 83400, Note_on_c, 1, 87, 127
2, 83400, Note_on_c, 1, 92, 127
2, 84440, Note_off_c, 1, 56, 0
2, 84440, Note_off_c, 1, 80, 0
2, 84440, Note_off_c, 1, 83, 0
2, 84440, Note_off_c, 1, 87, 0
2, 84440, Note_off_c, 1, 92, 0
2, 84480, Note_on_c, 1, 36, 127
2, 84480, Note_on_c, 1, 48, 127
2, 84480, Note_on_c, 1, 79, 127
2, 84480, Note_on_c, 1, 82, 127
2, 84480, Note_on_c, 1, 84, 127
2, 84480, Note_on_c, 1, 88, 127
2, 84520, Note_off_c, 1, 79, 0
2, 84520, Note_off_c, 1, 82, 0
2, 84520, Note_off_c, 1, 84, 0
2, 84520, Note_off_c, 1, 88, 0
2, 84560, Note_on_c, 1, 72, 127
2, 84560, Note_on_c, 1, 80, 127
2, 84600, Note_off_c, 1, 72, 0
2, 84600, Note_off_c, 1, 80, 0
2, 84640, Note_off_c, 1, 36, 0
2, 84640, Note_off_c, 1, 48, 0
2, 84640, Note_on_c, 1, 60, 127
2, 84640, Note_on_c, 1, 72, 127
2, 84640, Note_on_c, 1, 80, 127
2, 84640, Note_on_c, 1, 92, 127
2, 84680, Note_on_c, 1, 45, 127
2, 84680, Note_on_c, 1, 57, 127
2, 84680, Note_off_c, 1, 60, 0
2, 84680, Note_off_c, 1, 72, 0
2, 84680, Note_off_c, 1, 80, 0
2, 84680, Note_on_c, 1, 88, 127
2, 84680, Note_off_c, 1, 92, 0
2, 84680, Note_on_c, 1, 93, 127
2, 84680, Note_on_c, 1, 97, 127
2, 84680, Note_on_c, 1, 100, 127
2, 84720, Note_on_c, 1, 36, 127
2, 84720, Note_off_c, 1, 45, 0
2, 84720, Note_on_c, 1, 48, 127
2, 84720, Note_off_c, 1, 57, 0
2, 84720, Note_off_c, 1, 88, 0
2, 84720, Note_off_c, 1, 93, 0
2, 84720, Note_off_c, 1, 97, 0
2, 84720, Note_off_c, 1, 100, 0
2, 84760, Note_off_c, 1, 36, 0
2, 84760, Note_on_c, 1, 42, 127
2, 84760, Note_off_c, 1, 48, 0
2, 84760, Note_on_c, 1, 49, 127
2, 84760, Note_on_c, 1, 57, 127
2, 84760, Note_on_c, 1, 66, 127
2, 84840, Note_off_c, 1, 42, 0
2, 84840, Note_off_c, 1, 49, 0
2, 84840, Note_off_c, 1, 57, 0
2, 84840, Note_off_c, 1, 66, 0
2, 84880, Note_on_c, 1, 44, 127
2, 84880, Note_on_c, 1, 56, 127
2, 84880, Note_on_c, 1, 80, 127
2, 84880, Note_on_c, 1, 84, 127
2, 84920, Note_off_c, 1, 44, 0
2, 84920, Note_off_c, 1, 56, 0
2, 84920, Note_on_c, 1, 66, 127
2, 84920, Note_on_c, 1, 69, 127
2, 84920, Note_on_c, 1, 73, 127
2, 84920, Note_on_c, 1, 78, 127
2, 84920, Note_off_c, 1, 80, 0
2, 84920, Note_off_c, 1, 84, 0
2, 84920, Note_on_c, 1, 90, 127
2, 84920, Note_on_c, 1, 93, 127
2, 84920, Note_on_c, 1, 97, 127
2, 84920, Note_on_c, 1, 102, 127
2, 84960, Note_on_c, 1, 44, 127
2, 84960, Note_on_c, 1, 56, 127
2, 84960, Note_off_c, 1, 66, 0
2, 84960, Note_off_c, 1, 69, 0
2, 84960, Note_off_c, 1, 73, 0
2, 84960, Note_off_c, 1, 78, 0
2, 84960, Note_off_c, 1, 90, 0
2, 84960, Note_off_c, 1, 93, 0
2, 84960, Note_off_c, 1, 97, 0
2, 84960, Note_off_c, 1, 102, 0
2, 85000, Note_off_c, 1, 44, 0
2, 85000, Note_off_c, 1, 56, 0
2, 85000, Note_on_c, 1, 63, 127
2, 85000, Note_on_c, 1, 75, 127
2, 85000, Note_on_c, 1, 78, 127
2, 85000, Note_on_c, 1, 82, 127
2, 85040, Note_on_c, 1, 44, 127
2, 85040, Note_on_c, 1, 56, 127
2, 85040, Note_off_c, 1, 63, 0
2, 85040, Note_off_c, 1, 75, 0
2, 85040, Note_off_c, 1, 78, 0
2, 85040, Note_off_c, 1, 82, 0
2, 85080, Note_off_c, 1, 44, 0
2, 85080, Note_on_c, 1, 46, 127
2, 85080, Note_on_c, 1, 50, 127
2, 85080, Note_on_c, 1, 55, 127
2, 85080, Note_off_c, 1, 56, 0
2, 85080, Note_on_c, 1, 82, 127
2, 85400, Note_off_c, 1, 46, 0
2, 85400, Note_off_c, 1, 50, 0
2, 85400, Note_off_c, 1, 55, 0
2, 85400, Note_off_c, 1, 82, 0
2, 85440, Note_on_c, 1, 46, 127
2, 85440, Note_on_c, 1, 50, 127
2, 85440, Note_on_c, 1, 55, 127
2, 85480, Note_on_c, 1, 36, 127
2, 85480, Note_on_c, 1, 44, 127
2, 85480, Note_off_c, 1, 46, 0
2, 85480, Note_on_c, 1, 48, 127
2, 85480, Note_off_c, 1, 50, 0
2, 85480, Note_off_c, 1, 55, 0
2, 85480, Note_on_c, 1, 66, 127
2, 85480, Note_on_c, 1, 68, 127
2, 85520, Note_off_c, 1, 36, 0
2, 85520, Note_off_c, 1, 44, 0
2, 85520, Note_on_c, 1, 46, 127
2, 85520, Note_off_c, 1, 48, 0
2, 85520, Note_on_c, 1, 51, 127
2, 85520, Note_on_c, 1, 53, 127
2, 85520, Note_on_c, 1, 58, 127
2, 85520, Note_on_c, 1, 65, 127
2, 85520, Note_off_c, 1, 66, 0
2, 85520, Note_off_c, 1, 68, 0
2, 85520, Note_on_c, 1, 70, 127
2, 85520, Note_on_c, 1, 77, 127
2, 85680, Note_on_c, 1, 45, 127
2, 85680, Note_off_c, 1, 46, 0
2, 85680, Note_on_c, 1, 48, 127
2, 85680, Note_off_c, 1, 51, 0
2, 85680, Note_off_c, 1, 53, 0
2, 85680, Note_on_c, 1, 57, 127
2, 85680, Note_off_c, 1, 58, 0
2, 85680, Note_off_c, 1, 65, 0
2, 85680, Note_off_c, 1, 70, 0
2, 85680, Note_off_c, 1, 77, 0
2, 85720, Note_off_c, 1, 48, 0
2, 85720, Note_on_c, 1, 80, 127
2, 85720, Note_on_c, 1, 85, 127
2, 85720, Note_on_c, 1, 92, 127
2, 85760, Note_off_c, 1, 45, 0
2, 85760, Note_off_c, 1, 57, 0
2, 85760, Note_on_c, 1, 60, 127
2, 85760, Note_on_c, 1, 64, 127
2, 85760, Note_on_c, 1, 67, 127
2, 85760, Note_on_c, 1, 76, 127
2, 85760, Note_off_c, 1, 80, 0
2, 85760, Note_off_c, 1, 85, 0
2, 85760, Note_off_c, 1, 92, 0
2, 85800, Note_on_c, 1, 53, 127
2, 85800, Note_on_c, 1, 59, 127
2, 85800, Note_off_c, 1, 60, 0
2, 85800, Note_on_c, 1, 62, 127
2, 85800, Note_off_c, 1, 64, 0
2, 85800, Note_off_c, 1, 67, 0
2, 85800, Note_on_c, 1, 72, 127
2, 85800, Note_off_c, 1, 76, 0
2, 85840, Note_on_c, 1, 51, 127
2, 85840, Note_off_c, 1, 53, 0
2, 85840, Note_on_c, 1, 55, 127
2, 85840, Note_off_c, 1, 59, 0
2, 85840, Note_on_c, 1, 60, 127
2, 85840, Note_off_c, 1, 62, 0
2, 85840, Note_off_c, 1, 72, 0
2, 85840, Note_on_c, 1, 87, 127
2, 85880, Note_on_c, 1, 31, 127
2, 85880, Note_off_c, 1, 51, 0
2, 85880, Note_off_c, 1, 55, 0
2, 85880, Note_off_c, 1, 60, 0
2, 85880, Note_on_c, 1, 77, 127
2, 85880, Note_on_c, 1, 79, 127
2, 85880, Note_on_c, 1, 86, 127
2, 85880, Note_off_c, 1, 87, 0
2, 85880, Note_on_c, 1, 89, 127
2, 85920, Note_off_c, 1, 31, 0
2, 85920, Note_on_c, 1, 44, 127
2, 85920, Note_on_c, 1, 56, 127
2, 85920, Note_off_c, 1, 77, 0
2, 85920, Note_off_c, 1, 79, 0
2, 85920, Note_off_c, 1, 86, 0
2, 85920, Note_off_c, 1, 89, 0
2, 85960, Note_off_c, 1, 44, 0
2, 85960, Note_off_c, 1, 56, 0
2, 85960, Note_on_c, 1, 57, 127
2, 85960, Note_on_c, 1, 64, 127
2, 85960, Note_on_c, 1, 66, 127
2, 85960, Note_on_c, 1, 69, 127
2, 85960, Note_on_c, 1, 72, 127
2, 85960, Note_on_c, 1, 76, 127
2, 85960, Note_on_c, 1, 78, 127
2, 86000, Note_on_c, 1, 55, 127
2, 86000, Note_off_c, 1, 57, 0
2, 86000, Note_on_c, 1, 58, 127
2, 86000, Note_on_c, 1, 63, 127
2, 86000, Note_off_c, 1, 64, 0
2, 86000, Note_off_c, 1, 66, 0
2, 86000, Note_off_c, 1, 69, 0
2, 86000, Note_off_c, 1, 72, 0
2, 86000, Note_off_c, 1, 76, 0
2, 86000, Note_off_c, 1, 78, 0
2, 86000, Note_on_c, 1, 79, 127
2, 86000, Note_on_c, 1, 82, 127
2, 86040, Note_off_c, 1, 55, 0
2, 86040, Note_on_c, 1, 57, 127
2, 86040, Note_off_c, 1, 58, 0
2, 86040, Note_off_c, 1, 63, 0
2, 86040, Note_on_c, 1, 64, 127
2, 86040, Note_on_c, 1, 66, 127
2, 86040, Note_on_c, 1, 69, 127
2, 86040, Note_on_c, 1, 72, 127
2, 86040, Note_on_c, 1, 76, 127
2, 86040, Note_on_c, 1, 78, 127
2, 86040, Note_off_c, 1, 79, 0
2, 86040, Note_off_c, 1, 82, 0
2, 86080, Note_on_c, 1, 45, 127
2, 86080, Note_on_c, 1, 48, 127
2, 86080, Note_on_c, 1, 54, 127
2, 86080, Note_off_c, 1, 57, 0
2, 86080, Note_off_c, 1, 64, 0
2, 86080, Note_off_c, 1, 66, 0
2, 86080, Note_off_c, 1, 69, 0
2, 86080, Note_on_c, 1, 71, 127
2, 86080, Note_off_c, 1, 72, 0
2, 86080, Note_off_c, 1, 76, 0
2, 86080, Note_off_c, 1, 78, 0
2, 86120, Note_off_c, 1, 45, 0
2, 86120, Note_off_c, 1, 48, 0
2, 86120, Note_off_c, 1, 54, 0
2, 86120, Note_off_c, 1, 71, 0
2, 86160, Note_on_c, 1, 50, 127
2, 86160, Note_on_c, 1, 62, 127
2, 86160, Note_on_c, 1, 74, 127
2, 86160, Note_on_c, 1, 77, 127
2, 86160, Note_on_c, 1, 81, 127
2, 86160, Note_on_c, 1, 86, 127
2, 86520, Note_off_c, 1, 50, 0
2, 86520, Note_off_c, 1, 62, 0
2, 86520, Note_off_c, 1, 74, 0
2, 86520, Note_off_c, 1, 77, 0
2, 86520, Note_off_c, 1, 81, 0
2, 86520, Note_off_c, 1, 86, 0
2, 86560, Note_on_c, 1, 56, 127
2, 86560, Note_on_c, 1, 75, 127
2, 86560, Note_on_c, 1, 80, 127
2, 86560, Note_on_c, 1, 84, 127
2, 86720, Note_on_c, 1, 43, 127
2, 86720, Note_off_c, 1, 56, 0
2, 86720, Note_off_c, 1, 75, 0
2, 86720, Note_off_c, 1, 80, 0
2, 86720, Note_on_c, 1, 87, 127
2, 86760, Note_off_c, 1, 43, 0
2, 86760, Note_on_c, 1, 56, 127
2, 86760, Note_on_c, 1, 75, 127
2, 86760, Note_on_c, 1, 80, 127
2, 86760, Note_off_c, 1, 87, 0
2, 86880, Note_on_c, 1, 51, 127
2, 86880, Note_off_c, 1, 56, 0
2, 86880, Note_on_c, 1, 58, 127
2, 86880, Note_on_c, 1, 61, 127
2, 86880, Note_off_c, 1, 75, 0
2, 86880, Note_off_c, 1, 80, 0
2, 86880, Note_off_c, 1, 84, 0
2, 86880, Note_on_c, 1, 87, 127
2, 86920, Note_off_c, 1, 51, 0
2, 86920, Note_off_c, 1, 58, 0
2, 86920, Note_off_c, 1, 61, 0
2, 86920, Note_off_c, 1, 87, 0
2, 86960, Note_on_c, 1, 61, 127
2, 86960, Note_on_c, 1, 63, 127
2, 86960, Note_on_c, 1, 66, 127
2, 86960, Note_on_c, 1, 73, 127
2, 86960, Note_on_c, 1, 78, 127
2, 86960, Note_on_c, 1, 87, 127
2, 86960, Note_on_c, 1, 90, 127
2, 87280, Note_off_c, 1, 61, 0
2, 87280, Note_off_c, 1, 63, 0
2, 87280, Note_off_c, 1, 66, 0
2, 87280, Note_off_c, 1, 73, 0
2, 87280, Note_off_c, 1, 78, 0
2, 87280, Note_off_c, 1, 87, 0
2, 87280, Note_off_c, 1, 90, 0
2, 87320, Note_on_c, 1, 61, 127
2, 87320, Note_on_c, 1, 63, 127
2, 87320, Note_on_c, 1, 66, 127
2, 87320, Note_on_c, 1, 73, 127
2, 87320, Note_on_c, 1, 78, 127
2, 87320, Note_on_c, 1, 87, 127
2, 87320, Note_on_c, 1, 90, 127
2, 87400, Note_on_c, 1, 48, 127
2, 87400, Note_on_c, 1, 55, 127
2, 87400, Note_on_c, 1, 58, 127
2, 87400, Note_off_c, 1, 61, 0
2, 87400, Note_off_c, 1, 63, 0
2, 87400, Note_on_c, 1, 64, 127
2, 87400, Note_off_c, 1, 66, 0
2, 87400, Note_on_c, 1, 72, 127
2, 87400, Note_off_c, 1, 73, 0
2, 87400, Note_on_c, 1, 76, 127
2, 87400, Note_off_c, 1, 78, 0
2, 87400, Note_off_c, 1, 87, 0
2, 87400, Note_off_c, 1, 90, 0
2, 87440, Note_on_c, 1, 47, 127
2, 87440, Note_off_c, 1, 48, 0
2, 87440, Note_on_c, 1, 54, 127
2, 87440, Note_off_c, 1, 55, 0
2, 87440, Note_off_c, 1, 58, 0
2, 87440, Note_on_c, 1, 61, 127
2, 87440, Note_off_c, 1, 64, 0
2, 87440, Note_off_c, 1, 72, 0
2, 87440, Note_off_c, 1, 76, 0
2, 87440, Note_on_c, 1, 95, 127
2, 87480, Note_on_c, 1, 27, 127
2, 87480, Note_on_c, 1, 39, 127
2, 87480, Note_off_c, 1, 47, 0
2, 87480, Note_off_c, 1, 54, 0
2, 87480, Note_off_c, 1, 61, 0
2, 87480, Note_on_c, 1, 72, 127
2, 87480, Note_on_c, 1, 80, 127
2, 87480, Note_on_c, 1, 84, 127
2, 87480, Note_off_c, 1, 95, 0
2, 87520, Note_off_c, 1, 27, 0
2, 87520, Note_off_c, 1, 39, 0
2, 87520, Note_on_c, 1, 58, 127
2, 87520, Note_on_c, 1, 61, 127
2, 87520, Note_on_c, 1, 65, 127
2, 87520, Note_off_c, 1, 72, 0
2, 87520, Note_on_c, 1, 77, 127
2, 87520, Note_off_c, 1, 80, 0
2, 87520, Note_off_c, 1, 84, 0
2, 87560, Note_off_c, 1, 58, 0
2, 87560, Note_off_c, 1, 61, 0
2, 87560, Note_off_c, 1, 65, 0
2, 87560, Note_off_c, 1, 77, 0
2, 87560, Note_on_c, 1, 85, 127
2, 87560, Note_on_c, 1, 91, 127
2, 87600, Note_off_c, 1, 85, 0
2, 87600, Note_on_c, 1, 92, 127
2, 87600, Note_on_c, 1, 95, 127
2, 87600, Note_on_c, 1, 96, 127
2, 87640, Note_on_c, 1, 61, 127
2, 87640, Note_on_c, 1, 71, 127
2, 87640, Note_on_c, 1, 73, 127
2, 87640, Note_on_c, 1, 77, 127
2, 87640, Note_on_c, 1, 80, 127
2, 87640, Note_off_c, 1, 91, 0
2, 87640, Note_off_c, 1, 92, 0
2, 87640, Note_off_c, 1, 95, 0
2, 87640, Note_off_c, 1, 96, 0
2, 87680, Note_on_c, 1, 47, 127
2, 87680, Note_on_c, 1, 51, 127
2, 87680, Note_on_c, 1, 57, 127
2, 87680, Note_off_c, 1, 61, 0
2, 87680, Note_off_c, 1, 71, 0
2, 87680, Note_off_c, 1, 73, 0
2, 87680, Note_off_c, 1, 77, 0
2, 87680, Note_off_c, 1, 80, 0
2, 87720, Note_off_c, 1, 47, 0
2, 87720, Note_off_c, 1, 51, 0
2, 87720, Note_off_c, 1, 57, 0
2, 87720, Note_on_c, 1, 64, 127
2, 87720, Note_on_c, 1, 67, 127
2, 87720, Note_on_c, 1, 69, 127
2, 87720, Note_on_c, 1, 74, 127
2, 87760, Note_on_c, 1, 38, 127
2, 87760, Note_on_c, 1, 42, 127
2, 87760, Note_on_c, 1, 50, 127
2, 87760, Note_off_c, 1, 64, 0
2, 87760, Note_off_c, 1, 67, 0
2, 87760, Note_off_c, 1, 69, 0
2, 87760, Note_off_c, 1, 74, 0
2, 87760, Note_on_c, 1, 78, 127
2, 87760, Note_on_c, 1, 81, 127
2, 87760, Note_on_c, 1, 86, 127
2, 87760, Note_on_c, 1, 90, 127
2, 87800, Note_off_c, 1, 38, 0
2, 87800, Note_off_c, 1, 42, 0
2, 87800, Note_off_c, 1, 50, 0
2, 87800, Note_off_c, 1, 78, 0
2, 87800, Note_off_c, 1, 81, 0
2, 87800, Note_off_c, 1, 86, 0
2, 87800, Note_off_c, 1, 90, 0
2, 87840, Note_on_c, 1, 54, 127
2, 87840, Note_on_c, 1, 57, 127
2, 87840, Note_on_c, 1, 62, 127
2, 87840, Note_on_c, 1, 74, 127
2, 87840, Note_on_c, 1, 78, 127
2, 87840, Note_on_c, 1, 81, 127
2, 87840, Note_on_c, 1, 86, 127
2, 87880, Note_off_c, 1, 54, 0
2, 87880, Note_on_c, 1, 55, 127
2, 87880, Note_off_c, 1, 57, 0
2, 87880, Note_on_c, 1, 59, 127
2, 87880, Note_on_c, 1, 67, 127
2, 87880, Note_off_c, 1, 74, 0
2, 87880, Note_on_c, 1, 77, 127
2, 87880, Note_off_c, 1, 78, 0
2, 87880, Note_off_c, 1, 81, 0
2, 87880, Note_off_c, 1, 86, 0
2, 87880, Note_on_c, 1, 89, 127
2, 87920, Note_on_c, 1, 41, 127
2, 87920, Note_on_c, 1, 45, 127
2, 87920, Note_on_c, 1, 50, 127
2, 87920, Note_on_c, 1, 53, 127
2, 87920, Note_off_c, 1, 55, 0
2, 87920, Note_on_c, 1, 57, 127
2, 87920, Note_off_c, 1, 59, 0
2, 87920, Note_off_c, 1, 62, 0
2, 87920, Note_off_c, 1, 67, 0
2, 87920, Note_off_c, 1, 77, 0
2, 87920, Note_off_c, 1, 89, 0
2, 87960, Note_off_c, 1, 41, 0
2, 87960, Note_off_c, 1, 45, 0
2, 87960, Note_off_c, 1, 50, 0
2, 87960, Note_off_c, 1, 53, 0
2, 87960, Note_off_c, 1, 57, 0
2, 87960, Note_on_c, 1, 58, 127
2, 87960, Note_on_c, 1, 66, 127
2, 87960, Note_on_c, 1, 72, 127
2, 87960, Note_on_c, 1, 77, 127
2, 88000, Note_off_c, 1, 58, 0
2, 88000, Note_off_c, 1, 66, 0
2, 88000, Note_off_c, 1, 72, 0
2, 88000, Note_off_c, 1, 77, 0
2, 88000, Note_on_c, 1, 78, 127
2, 88000, Note_on_c, 1, 82, 127
2, 88000, Note_on_c, 1, 85, 127
2, 88000, Note_on_c, 1, 90, 127
2, 88040, Note_on_c, 1, 40, 127
2, 88040, Note_on_c, 1, 52, 127
2, 88040, Note_on_c, 1, 66, 127
2, 88040, Note_on_c, 1, 70, 127
2, 88040, Note_on_c, 1, 73, 127
2, 88040, Note_off_c, 1, 82, 0
2, 88040, Note_off_c, 1, 85, 0
2, 88040, Note_off_c, 1, 90, 0
2, 88360, Note_off_c, 1, 40, 0
2, 88360, Note_off_c, 1, 52, 0
2, 88360, Note_off_c, 1, 66, 0
2, 88360, Note_off_c, 1, 70, 0
2, 88360, Note_off_c, 1, 73, 0
2, 88360, Note_off_c, 1, 78, 0
2, 88440, Note_on_c, 1, 37, 127
2, 88440, Note_on_c, 1, 49, 127
2, 88440, Note_on_c, 1, 73, 127
2, 88440, Note_on_c, 1, 82, 127
2, 88440, Note_on_c, 1, 85, 127
2, 88640, Note_off_c, 1, 37, 0
2, 88640, Note_on_c, 1, 47, 127
2, 88640, Note_on_c, 1, 63, 127
2, 88640, Note_off_c, 1, 73, 0
2, 88640, Note_off_c, 1, 82, 0
2, 88640, Note_off_c, 1, 85, 0
2, 88680, Note_on_c, 1, 37, 127
2, 88680, Note_off_c, 1, 47, 0
2, 88680, Note_off_c, 1, 63, 0
2, 88680, Note_on_c, 1, 73, 127
2, 88680, Note_on_c, 1, 82, 127
2, 88680, Note_on_c, 1, 85, 127
2, 88720, Note_off_c, 1, 37, 0
2, 88720, Note_on_c, 1, 47, 127
2, 88720, Note_on_c, 1, 63, 127
2, 88720, Note_off_c, 1, 73, 0
2, 88720, Note_off_c, 1, 82, 0
2, 88720, Note_off_c, 1, 85, 0
2, 88800, Note_off_c, 1, 47, 0
2, 88800, Note_off_c, 1, 49, 0
2, 88800, Note_off_c, 1, 63, 0
2, 88840, Note_on_c, 1, 44, 127
2, 88840, Note_on_c, 1, 47, 127
2, 88840, Note_on_c, 1, 50, 127
2, 88840, Note_on_c, 1, 52, 127
2, 88840, Note_on_c, 1, 59, 127
2, 88840, Note_on_c, 1, 62, 127
2, 88840, Note_on_c, 1, 64, 127
2, 88920, Note_on_c, 1, 38, 127
2, 88920, Note_off_c, 1, 44, 0
2, 88920, Note_off_c, 1, 47, 0
2, 88920, Note_off_c, 1, 52, 0
2, 88920, Note_off_c, 1, 59, 0
2, 88920, Note_off_c, 1, 62, 0
2, 88920, Note_off_c, 1, 64, 0
2, 88920, Note_on_c, 1, 65, 127
2, 88920, Note_on_c, 1, 74, 127
2, 88960, Note_off_c, 1, 38, 0
2, 88960, Note_on_c, 1, 44, 127
2, 88960, Note_on_c, 1, 47, 127
2, 88960, Note_on_c, 1, 52, 127
2, 88960, Note_on_c, 1, 59, 127
2, 88960, Note_on_c, 1, 62, 127
2, 88960, Note_on_c, 1, 64, 127
2, 88960, Note_off_c, 1, 65, 0
2, 88960, Note_off_c, 1, 74, 0
2, 89000, Note_off_c, 1, 44, 0
2, 89000, Note_off_c, 1, 47, 0
2, 89000, Note_off_c, 1, 50, 0
2, 89000, Note_off_c, 1, 52, 0
2, 89000, Note_off_c, 1, 59, 0
2, 89000, Note_off_c, 1, 62, 0
2, 89000, Note_off_c, 1, 64, 0
2, 89000, Note_on_c, 1, 74, 127
2, 89000, Note_on_c, 1, 81, 127
2, 89000, Note_on_c, 1, 86, 127
2, 89040, Note_on_c, 1, 38, 127
2, 89040, Note_on_c, 1, 50, 127
2, 89040, Note_on_c, 1, 67, 127
2, 89040, Note_on_c, 1, 70, 127
2, 89040, Note_off_c, 1, 74, 0
2, 89040, Note_on_c, 1, 76, 127
2, 89040, Note_off_c, 1, 81, 0
2, 89040, Note_off_c, 1, 86, 0
2, 89240, Note_off_c, 1, 38, 0
2, 89240, Note_off_c, 1, 50, 0
2, 89240, Note_off_c, 1, 67, 0
2, 89240, Note_off_c, 1, 70, 0
2, 89240, Note_on_c, 1, 73, 127
2, 89240, Note_off_c, 1, 76, 0
2, 89240, Note_on_c, 1, 78, 127
2, 89240, Note_on_c, 1, 82, 127
2, 89240, Note_on_c, 1, 85, 127
2, 89280, Note_off_c, 1, 73, 0
2, 89280, Note_off_c, 1, 78, 0
2, 89280, Note_off_c, 1, 82, 0
2, 89280, Note_off_c, 1, 85, 0
2, 89320, Note_on_c, 1, 53, 127
2, 89320, Note_on_c, 1, 89, 127
2, 89320, Note_on_c, 1, 97, 127
2, 89360, Note_on_c, 1, 34, 127
2, 89360, Note_on_c, 1, 38, 127
2, 89360, Note_on_c, 1, 41, 127
2, 89360, Note_on_c, 1, 46, 127
2, 89360, Note_off_c, 1, 53, 0
2, 89360, Note_on_c, 1, 58, 127
2, 89360, Note_off_c, 1, 89, 0
2, 89360, Note_off_c, 1, 97, 0
2, 89400, Note_off_c, 1, 34, 0
2, 89400, Note_off_c, 1, 38, 0
2, 89400, Note_off_c, 1, 41, 0
2, 89400, Note_off_c, 1, 46, 0
2, 89400, Note_on_c, 1, 56, 127
2, 89400, Note_off_c, 1, 58, 0
2, 89400, Note_on_c, 1, 61, 127
2, 89400, Note_on_c, 1, 65, 127
2, 89400, Note_on_c, 1, 68, 127
2, 89400, Note_on_c, 1, 79, 127
2, 89440, Note_off_c, 1, 56, 0
2, 89440, Note_off_c, 1, 61, 0
2, 89440, Note_on_c, 1, 64, 127
2, 89440, Note_off_c, 1, 65, 0
2, 89440, Note_on_c, 1, 72, 127
2, 89440, Note_off_c, 1, 79, 0
2, 89440, Note_on_c, 1, 80, 127
2, 89440, Note_on_c, 1, 84, 127
2, 89480, Note_on_c, 1, 44, 127
2, 89480, Note_on_c, 1, 56, 127
2, 89480, Note_off_c, 1, 64, 0
2, 89480, Note_off_c, 1, 68, 0
2, 89480, Note_off_c, 1, 72, 0
2, 89480, Note_on_c, 1, 74, 127
2, 89480, Note_off_c, 1, 80, 0
2, 89480, Note_off_c, 1, 84, 0
2, 89480, Note_on_c, 1, 86, 127
2, 89520, Note_off_c, 1, 44, 0
2, 89520, Note_off_c, 1, 56, 0
2, 89520, Note_on_c, 1, 65, 127
2, 89520, Note_on_c, 1, 68, 127
2, 89520, Note_off_c, 1, 74, 0
2, 89520, Note_off_c, 1, 86, 0
2, 89520, Note_on_c, 1, 89, 127
2, 89520, Note_on_c, 1, 97, 127
2, 89560, Note_on_c, 1, 52, 127
2, 89560, Note_on_c, 1, 56, 127
2, 89560, Note_on_c, 1, 64, 127
2, 89560, Note_off_c, 1, 65, 0
2, 89560, Note_off_c, 1, 68, 0
2, 89560, Note_on_c, 1, 75, 127
2, 89560, Note_on_c, 1, 83, 127
2, 89560, Note_off_c, 1, 89, 0
2, 89560, Note_off_c, 1, 97, 0
2, 89600, Note_on_c, 1, 50, 127
2, 89600, Note_off_c, 1, 52, 0
2, 89600, Note_off_c, 1, 56, 0
2, 89600, Note_on_c, 1, 61, 127
2, 89600, Note_off_c, 1, 64, 0
2, 89600, Note_on_c, 1, 69, 127
2, 89600, Note_off_c, 1, 75, 0
2, 89600, Note_on_c, 1, 78, 127
2, 89600, Note_on_c, 1, 81, 127
2, 89600, Note_off_c, 1, 83, 0
2, 89640, Note_off_c, 1, 50, 0
2, 89640, Note_on_c, 1, 51, 127
2, 89640, Note_off_c, 1, 61, 0
2, 89640, Note_on_c, 1, 63, 127
2, 89640, Note_off_c, 1, 69, 0
2, 89640, Note_on_c, 1, 72, 127
2, 89640, Note_off_c, 1, 81, 0
2, 89640, Note_on_c, 1, 84, 127
2, 89680, Note_off_c, 1, 51, 0
2, 89680, Note_off_c, 1, 63, 0
2, 89680, Note_off_c, 1, 72, 0
2, 89680, Note_off_c, 1, 78, 0
2, 89680, Note_off_c, 1, 84, 0
2, 89720, Note_on_c, 1, 65, 127
2, 89720, Note_on_c, 1, 68, 127
2, 89720, Note_on_c, 1, 89, 127
2, 89720, Note_on_c, 1, 97, 127
2, 89760, Note_on_c, 1, 48, 127
2, 89760, Note_off_c, 1, 65, 0
2, 89760, Note_off_c, 1, 68, 0
2, 89760, Note_on_c, 1, 69, 127
2, 89760, Note_on_c, 1, 76, 127
2, 89760, Note_on_c, 1, 78, 127
2, 89760, Note_off_c, 1, 89, 0
2, 89760, Note_off_c, 1, 97, 0
2, 89800, Note_on_c, 1, 42, 127
2, 89800, Note_off_c, 1, 48, 0
2, 89800, Note_on_c, 1, 49, 127
2, 89800, Note_on_c, 1, 53, 127
2, 89800, Note_on_c, 1, 59, 127
2, 89800, Note_on_c, 1, 61, 127
2, 89800, Note_off_c, 1, 69, 0
2, 89800, Note_off_c, 1, 76, 0
2, 89800, Note_off_c, 1, 78, 0
2, 89800, Note_on_c, 1, 82, 127
2, 89800, Note_on_c, 1, 94, 127
2, 89840, Note_off_c, 1, 42, 0
2, 89840, Note_on_c, 1, 45, 127
2, 89840, Note_off_c, 1, 49, 0
2, 89840, Note_off_c, 1, 53, 0
2, 89840, Note_on_c, 1, 55, 127
2, 89840, Note_off_c, 1, 59, 0
2, 89840, Note_off_c, 1, 61, 0
2, 89840, Note_on_c, 1, 62, 127
2, 89840, Note_on_c, 1, 72, 127
2, 89840, Note_off_c, 1, 82, 0
2, 89840, Note_off_c, 1, 94, 0
2, 89880, Note_off_c, 1, 45, 0
2, 89880, Note_on_c, 1, 46, 127
2, 89880, Note_on_c, 1, 49, 127
2, 89880, Note_off_c, 1, 55, 0
2, 89880, Note_off_c, 1, 62, 0
2, 89880, Note_off_c, 1, 72, 0
2, 89880, Note_on_c, 1, 77, 127
2, 89880, Note_on_c, 1, 85, 127
2, 89880, Note_on_c, 1, 89, 127
2, 89920, Note_off_c, 1, 46, 0
2, 89920, Note_off_c, 1, 49, 0
2, 89920, Note_on_c, 1, 55, 127
2, 89920, Note_on_c, 1, 58, 127
2, 89920, Note_on_c, 1, 70, 127
2, 89920, Note_on_c, 1, 73, 127
2, 89920, Note_off_c, 1, 77, 0
2, 89920, Note_on_c, 1, 82, 127
2, 89920, Note_off_c, 1, 85, 0
2, 89920, Note_off_c, 1, 89, 0
2, 89960, Note_off_c, 1, 55, 0
2, 89960, Note_off_c, 1, 58, 0
2, 89960, Note_on_c, 1, 61, 127
2, 89960, Note_off_c, 1, 70, 0
2, 89960, Note_off_c, 1, 73, 0
2, 89960, Note_on_c, 1, 76, 127
2, 89960, Note_off_c, 1, 82, 0
2, 89960, Note_on_c, 1, 85, 127
2, 89960, Note_on_c, 1, 88, 127
2, 90000, Note_on_c, 1, 47, 127
2, 90000, Note_on_c, 1, 51, 127
2, 90000, Note_on_c, 1, 56, 127
2, 90000, Note_off_c, 1, 61, 0
2, 90000, Note_on_c, 1, 75, 127
2, 90000, Note_off_c, 1, 76, 0
2, 90000, Note_off_c, 1, 85, 0
2, 90000, Note_on_c, 1, 87, 127
2, 90000, Note_off_c, 1, 88, 0
2, 90040, Note_off_c, 1, 47, 0
2, 90040, Note_off_c, 1, 51, 0
2, 90040, Note_on_c, 1, 53, 127
2, 90040, Note_on_c, 1, 55, 127
2, 90040, Note_off_c, 1, 56, 0
2, 90040, Note_on_c, 1, 58, 127
2, 90040, Note_off_c, 1, 75, 0
2, 90040, Note_on_c, 1, 79, 127
2, 90040, Note_off_c, 1, 87, 0
2, 90080, Note_on_c, 1, 46, 127
2, 90080, Note_on_c, 1, 48, 127
2, 90080, Note_on_c, 1, 52, 127
2, 90080, Note_off_c, 1, 53, 0
2, 90080, Note_off_c, 1, 55, 0
2, 90080, Note_off_c, 1, 58, 0
2, 90080, Note_on_c, 1, 60, 127
2, 90080, Note_on_c, 1, 64, 127
2, 90080, Note_on_c, 1, 72, 127
2, 90080, Note_off_c, 1, 79, 0
2, 90120, Note_off_c, 1, 46, 0
2, 90120, Note_off_c, 1, 48, 0
2, 90120, Note_off_c, 1, 52, 0
2, 90120, Note_off_c, 1, 60, 0
2, 90120, Note_off_c, 1, 64, 0
2, 90120, Note_off_c, 1, 72, 0
2, 90160, Note_on_c, 1, 46, 127
2, 90160, Note_on_c, 1, 58, 127
2, 90160, Note_on_c, 1, 90, 127
2, 90160, Note_on_c, 1, 97, 127
2, 90160, Note_on_c, 1, 102, 127
2, 90200, Note_off_c, 1, 46, 0
2, 90200, Note_off_c, 1, 58, 0
2, 90200, Note_on_c, 1, 61, 127
2, 90200, Note_on_c, 1, 71, 127
2, 90200, Note_on_c, 1, 76, 127
2, 90200, Note_on_c, 1, 83, 127
2, 90200, Note_off_c, 1, 90, 0
2, 90200, Note_off_c, 1, 97, 0
2, 90200, Note_off_c, 1, 102, 0
2, 90240, Note_on_c, 1, 46, 127
2, 90240, Note_on_c, 1, 58, 127
2, 90240, Note_off_c, 1, 61, 0
2, 90240, Note_off_c, 1, 71, 0
2, 90240, Note_off_c, 1, 76, 0
2, 90240, Note_off_c, 1, 83, 0
2, 90240, Note_on_c, 1, 90, 127
2, 90240, Note_on_c, 1, 97, 127
2, 90240, Note_on_c, 1, 102, 127
2, 90280, Note_off_c, 1, 46, 0
2, 90280, Note_off_c, 1, 58, 0
2, 90280, Note_on_c, 1, 60, 127
2, 90280, Note_on_c, 1, 63, 127
2, 90280, Note_on_c, 1, 66, 127
2, 90280, Note_on_c, 1, 74, 127
2, 90280, Note_on_c, 1, 78, 127
2, 90280, Note_off_c, 1, 90, 0
2, 90280, Note_off_c, 1, 97, 0
2, 90280, Note_off_c, 1, 102, 0
2, 90320, Note_off_c, 1, 60, 0
2, 90320, Note_off_c, 1, 63, 0
2, 90320, Note_on_c, 1, 64, 127
2, 90320, Note_off_c, 1, 66, 0
2, 90320, Note_off_c, 1, 74, 0
2, 90320, Note_off_c, 1, 78, 0
2, 90320, Note_on_c, 1, 81, 127
2, 90320, Note_on_c, 1, 85, 127
2, 90320, Note_on_c, 1, 88, 127
2, 90360, Note_on_c, 1, 59, 127
2, 90360, Note_on_c, 1, 62, 127
2, 90360, Note_off_c, 1, 64, 0
2, 90360, Note_on_c, 1, 71, 127
2, 90360, Note_on_c, 1, 79, 127
2, 90360, Note_off_c, 1, 81, 0
2, 90360, Note_off_c, 1, 85, 0
2, 90360, Note_on_c, 1, 86, 127
2, 90360, Note_off_c, 1, 88, 0
2, 90360, Note_on_c, 1, 91, 127
2, 90400, Note_off_c, 1, 59, 0
2, 90400, Note_off_c, 1, 62, 0
2, 90400, Note_on_c, 1, 68, 127
2, 90400, Note_off_c, 1, 71, 0
2, 90400, Note_on_c, 1, 72, 127
2, 90400, Note_on_c, 1, 78, 127
2, 90400, Note_off_c, 1, 79, 0
2, 90400, Note_off_c, 1, 86, 0
2, 90400, Note_on_c, 1, 90, 127
2, 90400, Note_off_c, 1, 91, 0
2, 90400, Note_on_c, 1, 101, 127
2, 90440, Note_on_c, 1, 59, 127
2, 90440, Note_on_c, 1, 62, 127
2, 90440, Note_off_c, 1, 68, 0
2, 90440, Note_on_c, 1, 71, 127
2, 90440, Note_off_c, 1, 72, 0
2, 90440, Note_off_c, 1, 78, 0
2, 90440, Note_on_c, 1, 79, 127
2, 90440, Note_on_c, 1, 86, 127
2, 90440, Note_off_c, 1, 90, 0
2, 90440, Note_on_c, 1, 91, 127
2, 90440, Note_off_c, 1, 101, 0
2, 90480, Note_on_c, 1, 53, 127
2, 90480, Note_on_c, 1, 56, 127
2, 90480, Note_off_c, 1, 62, 0
2, 90480, Note_off_c, 1, 71, 0
2, 90480, Note_off_c, 1, 86, 0
2, 90480, Note_off_c, 1, 91, 0
2, 90520, Note_off_c, 1, 53, 0
2, 90520, Note_off_c, 1, 56, 0
2, 90520, Note_off_c, 1, 59, 0
2, 90520, Note_on_c, 1, 62, 127
2, 90520, Note_on_c, 1, 78, 127
2, 90520, Note_off_c, 1, 79, 0
2, 90520, Note_on_c, 1, 84, 127
2, 90560, Note_on_c, 1, 71, 127
2, 90560, Note_off_c, 1, 78, 0
2, 90560, Note_on_c, 1, 81, 127
2, 90560, Note_off_c, 1, 84, 0
2, 90560, Note_on_c, 1, 90, 127
2, 90720, Note_on_c, 1, 61, 127
2, 90720, Note_off_c, 1, 62, 0
2, 90720, Note_on_c, 1, 65, 127
2, 90720, Note_off_c, 1, 71, 0
2, 90720, Note_on_c, 1, 73, 127
2, 90720, Note_off_c, 1, 81, 0
2, 90720, Note_on_c, 1, 85, 127
2, 90720, Note_on_c, 1, 89, 127
2, 90720, Note_off_c, 1, 90, 0
2, 90760, Note_off_c, 1, 61, 0
2, 90760, Note_on_c, 1, 62, 127
2, 90760, Note_off_c, 1, 65, 0
2, 90760, Note_on_c, 1, 71, 127
2, 90760, Note_off_c, 1, 73, 0
2, 90760, Note_on_c, 1, 81, 127
2, 90760, Note_off_c, 1, 85, 0
2, 90760, Note_off_c, 1, 89, 0
2, 90760, Note_on_c, 1, 90, 127
2, 90960, Note_on_c, 1, 47, 127
2, 90960, Note_off_c, 1, 62, 0
2, 90960, Note_off_c, 1, 71, 0
2, 90960, Note_on_c, 1, 80, 127
2, 90960, Note_off_c, 1, 81, 0
2, 90960, Note_on_c, 1, 83, 127
2, 90960, Note_on_c, 1, 87, 127
2, 90960, Note_off_c, 1, 90, 0
2, 90960, Note_on_c, 1, 92, 127
2, 91000, Note_off_c, 1, 47, 0
2, 91000, Note_on_c, 1, 51, 127
2, 91000, Note_off_c, 1, 80, 0
2, 91000, Note_on_c, 1, 82, 127
2, 91000, Note_off_c, 1, 83, 0
2, 91000, Note_on_c, 1, 85, 127
2, 91000, Note_off_c, 1, 87, 0
2, 91000, Note_on_c, 1, 91, 127
2, 91000, Note_off_c, 1, 92, 0
2, 91040, Note_on_c, 1, 37, 127
2, 91040, Note_on_c, 1, 49, 127
2, 91040, Note_off_c, 1, 51, 0
2, 91040, Note_on_c, 1, 68, 127
2, 91040, Note_on_c, 1, 72, 127
2, 91040, Note_on_c, 1, 80, 127
2, 91040, Note_off_c, 1, 82, 0
2, 91040, Note_off_c, 1, 85, 0
2, 91040, Note_off_c, 1, 91, 0
2, 91120, Note_off_c, 1, 37, 0
2, 91120, Note_on_c, 1, 48, 127
2, 91120, Note_off_c, 1, 49, 0
2, 91120, Note_on_c, 1, 64, 127
2, 91120, Note_off_c, 1, 72, 0
2, 91120, Note_on_c, 1, 76, 127
2, 91120, Note_off_c, 1, 80, 0
2, 91160, Note_off_c, 1, 48, 0
2, 91160, Note_on_c, 1, 50, 127
2, 91160, Note_off_c, 1, 64, 0
2, 91160, Note_off_c, 1, 68, 0
2, 91160, Note_off_c, 1, 76, 0
2, 91160, Note_on_c, 1, 86, 127
2, 91160, Note_on_c, 1, 90, 127
2, 91160, Note_on_c, 1, 98, 127
2, 91200, Note_on_c, 1, 48, 127
2, 91200, Note_off_c, 1, 50, 0
2, 91200, Note_on_c, 1, 60, 127
2, 91200, Note_on_c, 1, 70, 127
2, 91200, Note_on_c, 1, 72, 127
2, 91200, Note_off_c, 1, 86, 0
2, 91200, Note_off_c, 1, 90, 0
2, 91200, Note_off_c, 1, 98, 0
2, 91240, Note_on_c, 1, 40, 127
2, 91240, Note_on_c, 1, 44, 127
2, 91240, Note_off_c, 1, 48, 0
2, 91240, Note_on_c, 1, 49, 127
2, 91240, Note_on_c, 1, 52, 127
2, 91240, Note_off_c, 1, 60, 0
2, 91240, Note_off_c, 1, 70, 0
2, 91240, Note_off_c, 1, 72, 0
2, 91240, Note_on_c, 1, 87, 127
2, 91240, Note_on_c, 1, 88, 127
2, 91240, Note_on_c, 1, 100, 127
2, 91280, Note_off_c, 1, 40, 0
2, 91280, Note_off_c, 1, 44, 0
2, 91280, Note_on_c, 1, 48, 127
2, 91280, Note_off_c, 1, 49, 0
2, 91280, Note_off_c, 1, 52, 0
2, 91280, Note_on_c, 1, 60, 127
2, 91280, Note_on_c, 1, 70, 127
2, 91280, Note_on_c, 1, 72, 127
2, 91280, Note_off_c, 1, 87, 0
2, 91280, Note_off_c, 1, 88, 0
2, 91280, Note_off_c, 1, 100, 0
2, 91320, Note_off_c, 1, 48, 0
2, 91320, Note_off_c, 1, 60, 0
2, 91320, Note_off_c, 1, 70, 0
2, 91320, Note_off_c, 1, 72, 0
2, 91360, Note_on_c, 1, 51, 127
2, 91360, Note_on_c, 1, 58, 127
2, 91360, Note_on_c, 1, 60, 127
2, 91360, Note_on_c, 1, 63, 127
2, 91360, Note_on_c, 1, 67, 127
2, 91360, Note_on_c, 1, 82, 127
2, 91400, Note_off_c, 1, 51, 0
2, 91400, Note_off_c, 1, 58, 0
2, 91400, Note_off_c, 1, 60, 0
2, 91400, Note_off_c, 1, 63, 0
2, 91400, Note_off_c, 1, 67, 0
2, 91400, Note_off_c, 1, 82, 0
2, 91440, Note_on_c, 1, 59, 127
2, 91440, Note_on_c, 1, 62, 127
2, 91440, Note_on_c, 1, 77, 127
2, 91440, Note_on_c, 1, 80, 127
2, 91840, Note_off_c, 1, 62, 0
2, 91840, Note_off_c, 1, 77, 0
2, 91880, Note_on_c, 1, 58, 127
2, 91880, Note_off_c, 1, 59, 0
2, 91880, Note_on_c, 1, 67, 127
2, 91880, Note_on_c, 1, 73, 127
2, 91880, Note_on_c, 1, 75, 127
2, 91880, Note_on_c, 1, 79, 127
2, 91880, Note_off_c, 1, 80, 0
2, 92240, Note_on_c, 1, 63, 127
2, 92240, Note_on_c, 1, 70, 127
2, 92240, Note_off_c, 1, 73, 0
2, 92240, Note_off_c, 1, 75, 0
2, 92240, Note_off_c, 1, 79, 0
2, 92280, Note_on_c, 1, 62, 127
2, 92280, Note_off_c, 1, 63, 0
2, 92280, Note_off_c, 1, 67, 0
2, 92280, Note_off_c, 1, 70, 0
2, 92280, Note_on_c, 1, 77, 127
2, 92280, Note_on_c, 1, 80, 127
2, 92680, Note_on_c, 1, 53, 127
2, 92680, Note_off_c, 1, 58, 0
2, 92680, Note_off_c, 1, 62, 0
2, 92680, Note_on_c, 1, 68, 127
2, 93440, Note_off_c, 1, 53, 0
2, 93440, Note_off_c, 1, 68, 0
2, 93440, Note_off_c, 1, 77, 0
2, 93440, Note_off_c, 1, 80, 0
2, 93480, Note_on_c, 1, 53, 127
2, 93480, Note_on_c, 1, 68, 127
2, 93480, Note_on_c, 1, 77, 127
2, 93480, Note_on_c, 1, 80, 127
2, 93560, Note_on_c, 1, 50, 127
2, 93560, Note_off_c, 1, 53, 0
2, 93560, Note_off_c, 1, 68, 0
2, 93560, Note_on_c, 1, 70, 127
2, 93560, Note_off_c, 1, 80, 0
2, 93600, Note_on_c, 1, 58, 127
2, 93600, Note_off_c, 1, 70, 0
2, 93600, Note_on_c, 1, 89, 127
2, 93920, Note_off_c, 1, 50, 0
2, 93920, Note_off_c, 1, 77, 0
2, 93920, Note_on_c, 1, 86, 127
2, 93920, Note_off_c, 1, 89, 0
2, 93920, Note_on_c, 1, 91, 127
2, 93960, Note_on_c, 1, 53, 127
2, 93960, Note_off_c, 1, 58, 0
2, 93960, Note_on_c, 1, 70, 127
2, 93960, Note_on_c, 1, 76, 127
2, 93960, Note_off_c, 1, 86, 0
2, 93960, Note_off_c, 1, 91, 0
2, 94000, Note_on_c, 1, 46, 127
2, 94000, Note_off_c, 1, 53, 0
2, 94000, Note_on_c, 1, 54, 127
2, 94000, Note_on_c, 1, 61, 127
2, 94000, Note_on_c, 1, 64, 127
2, 94000, Note_on_c, 1, 66, 127
2, 94000, Note_off_c, 1, 70, 0
2, 94000, Note_off_c, 1, 76, 0
2, 94280, Note_off_c, 1, 46, 0
2, 94280, Note_off_c, 1, 54, 0
2, 94280, Note_off_c, 1, 61, 0
2, 94280, Note_on_c, 1, 63, 127
2, 94280, Note_off_c, 1, 64, 0
2, 94280, Note_off_c, 1, 66, 0
2, 94280, Note_on_c, 1, 69, 127
2, 94280, Note_on_c, 1, 73, 127
2, 94280, Note_on_c, 1, 76, 127
2, 94280, Note_on_c, 1, 80, 127
2, 94320, Note_on_c, 1, 46, 127
2, 94320, Note_on_c, 1, 54, 127
2, 94320, Note_on_c, 1, 61, 127
2, 94320, Note_off_c, 1, 63, 0
2, 94320, Note_on_c, 1, 64, 127
2, 94320, Note_off_c, 1, 69, 0
2, 94320, Note_off_c, 1, 73, 0
2, 94320, Note_off_c, 1, 76, 0
2, 94320, Note_off_c, 1, 80, 0
2, 94360, Note_on_c, 1, 66, 127
2, 94760, Note_off_c, 1, 46, 0
2, 94760, Note_off_c, 1, 54, 0
2, 94760, Note_off_c, 1, 61, 0
2, 94760, Note_off_c, 1, 64, 0
2, 94760, Note_off_c, 1, 66, 0
2, 94760, Note_on_c, 1, 70, 127
2, 94800, Note_on_c, 1, 37, 127
2, 94800, Note_on_c, 1, 61, 127
2, 95200, Note_off_c, 1, 37, 0
2, 95200, Note_off_c, 1, 61, 0
2, 95200, Note_off_c, 1, 70, 0
2, 95240, Note_on_c, 1, 37, 127
2, 95240, Note_on_c, 1, 49, 127
2, 95240, Note_on_c, 1, 54, 127
2, 95240, Note_on_c, 1, 58, 127
2, 95240, Note_on_c, 1, 61, 127
2, 95400, Note_off_c, 1, 37, 0
2, 95400, Note_off_c, 1, 49, 0
2, 95400, Note_off_c, 1, 54, 0
2, 95400, Note_off_c, 1, 58, 0
2, 95400, Note_off_c, 1, 61, 0
2, 95440, Note_on_c, 1, 37, 127
2, 95440, Note_on_c, 1, 49, 127
2, 95440, Note_on_c, 1, 54, 127
2, 95440, Note_on_c, 1, 58, 127
2, 95440, Note_on_c, 1, 61, 127
2, 96040, Note_off_c, 1, 37, 0
2, 96040, Note_off_c, 1, 49, 0
2, 96040, Note_off_c, 1, 54, 0
2, 96040, Note_off_c, 1, 58, 0
2, 96040, Note_off_c, 1, 61, 0
2, 96080, Note_on_c, 1, 44, 127
2, 96080, Note_on_c, 1, 56, 127
2, 96080, Note_on_c, 1, 61, 127
2, 96080, Note_on_c, 1, 64, 127
2, 96680, Note_on_c, 1, 38, 127
2, 96680, Note_on_c, 1, 40, 127
2, 96680, Note_off_c, 1, 44, 0
2, 96680, Note_on_c, 1, 47, 127
2, 96680, Note_on_c, 1, 52, 127
2, 96680, Note_on_c, 1, 59, 127
2, 96680, Note_off_c, 1, 61, 0
2, 96720, Note_off_c, 1, 38, 0
2, 96720, Note_off_c, 1, 40, 0
2, 96720, Note_on_c, 1, 43, 127
2, 96720, Note_off_c, 1, 47, 0
2, 96720, Note_on_c, 1, 51, 127
2, 96720, Note_off_c, 1, 52, 0
2, 96720, Note_off_c, 1, 59, 0
2, 96720, Note_on_c, 1, 61, 127
2, 96720, Note_on_c, 1, 63, 127
2, 96720, Note_off_c, 1, 64, 0
2, 96720, Note_on_c, 1, 68, 127
2, 96760, Note_on_c, 1, 38, 127
2, 96760, Note_off_c, 1, 43, 0
2, 96760, Note_off_c, 1, 51, 0
2, 96760, Note_off_c, 1, 56, 0
2, 96760, Note_off_c, 1, 61, 0
2, 96760, Note_on_c, 1, 62, 127
2, 96760, Note_off_c, 1, 63, 0
2, 96760, Note_on_c, 1, 66, 127
2, 96760, Note_off_c, 1, 68, 0
2, 96760, Note_on_c, 1, 71, 127
2, 96800, Note_off_c, 1, 38, 0
2, 96800, Note_on_c, 1, 61, 127
2, 96800, Note_off_c, 1, 62, 0
2, 96800, Note_on_c, 1, 65, 127
2, 96800, Note_off_c, 1, 66, 0
2, 96800, Note_on_c, 1, 67, 127
2, 96800, Note_on_c, 1, 70, 127
2, 96800, Note_off_c, 1, 71, 0
2, 96800, Note_on_c, 1, 79, 127
2, 96800, Note_on_c, 1, 80, 127
2, 96840, Note_on_c, 1, 43, 127
2, 96840, Note_on_c, 1, 51, 127
2, 96840, Note_on_c, 1, 56, 127
2, 96840, Note_on_c, 1, 63, 127
2, 96840, Note_off_c, 1, 65, 0
2, 96840, Note_off_c, 1, 67, 0
2, 96840, Note_on_c, 1, 68, 127
2, 96840, Note_off_c, 1, 70, 0
2, 96840, Note_off_c, 1, 79, 0
2, 96840, Note_off_c, 1, 80, 0
2, 96880, Note_on_c, 1, 37, 127
2, 96880, Note_off_c, 1, 43, 0
2, 96880, Note_on_c, 1, 49, 127
2, 96880, Note_off_c, 1, 51, 0
2, 96880, Note_off_c, 1, 56, 0
2, 96880, Note_off_c, 1, 61, 0
2, 96880, Note_off_c, 1, 63, 0
2, 96880, Note_on_c, 1, 67, 127
2, 96880, Note_off_c, 1, 68, 0
2, 96880, Note_on_c, 1, 70, 127
2, 96920, Note_off_c, 1, 37, 0
2, 96920, Note_off_c, 1, 49, 0
2, 96920, Note_on_c, 1, 51, 127
2, 96920, Note_on_c, 1, 53, 127
2, 96920, Note_on_c, 1, 57, 127
2, 96920, Note_off_c, 1, 67, 0
2, 96920, Note_off_c, 1, 70, 0
2, 96920, Note_on_c, 1, 84, 127
2, 96960, Note_off_c, 1, 51, 0
2, 96960, Note_off_c, 1, 53, 0
2, 96960, Note_off_c, 1, 57, 0
2, 96960, Note_on_c, 1, 77, 127
2, 96960, Note_on_c, 1, 80, 127
2, 96960, Note_off_c, 1, 84, 0
2, 96960, Note_on_c, 1, 85, 127
2, 96960, Note_on_c, 1, 89, 127
2, 96960, Note_on_c, 1, 97, 127
2, 97000, Note_on_c, 1, 37, 127
2, 97000, Note_on_c, 1, 49, 127
2, 97000, Note_on_c, 1, 56, 127
2, 97000, Note_on_c, 1, 59, 127
2, 97000, Note_off_c, 1, 77, 0
2, 97000, Note_off_c, 1, 80, 0
2, 97000, Note_off_c, 1, 85, 0
2, 97000, Note_off_c, 1, 89, 0
2, 97000, Note_off_c, 1, 97, 0
2, 97040, Note_on_c, 1, 32, 127
2, 97040, Note_off_c, 1, 37, 0
2, 97040, Note_on_c, 1, 40, 127
2, 97040, Note_off_c, 1, 49, 0
2, 97040, Note_off_c, 1, 56, 0
2, 97040, Note_off_c, 1, 59, 0
2, 97040, Note_on_c, 1, 97, 127
2, 97080, Note_off_c, 1, 32, 0
2, 97080, Note_off_c, 1, 40, 0
2, 97080, Note_on_c, 1, 50, 127
2, 97080, Note_on_c, 1, 53, 127
2, 97080, Note_on_c, 1, 77, 127
2, 97080, Note_on_c, 1, 89, 127
2, 97080, Note_off_c, 1, 97, 0
2, 97120, Note_on_c, 1, 43, 127
2, 97120, Note_off_c, 1, 53, 0
2, 97120, Note_on_c, 1, 66, 127
2, 97120, Note_off_c, 1, 77, 0
2, 97120, Note_off_c, 1, 89, 0
2, 97160, Note_off_c, 1, 43, 0
2, 97160, Note_off_c, 1, 50, 0
2, 97160, Note_on_c, 1, 55, 127
2, 97160, Note_off_c, 1, 66, 0
2, 97160, Note_on_c, 1, 83, 127
2, 97160, Note_on_c, 1, 86, 127
2, 97160, Note_on_c, 1, 91, 127
2, 97160, Note_on_c, 1, 95, 127
2, 97280, Note_off_c, 1, 55, 0
2, 97280, Note_on_c, 1, 56, 127
2, 97280, Note_on_c, 1, 66, 127
2, 97280, Note_on_c, 1, 78, 127
2, 97280, Note_on_c, 1, 82, 127
2, 97280, Note_off_c, 1, 83, 0
2, 97280, Note_off_c, 1, 86, 0
2, 97280, Note_off_c, 1, 91, 0
2, 97280, Note_off_c, 1, 95, 0
2, 97320, Note_off_c, 1, 56, 0
2, 97320, Note_off_c, 1, 66, 0
2, 97320, Note_off_c, 1, 78, 0
2, 97320, Note_off_c, 1, 82, 0
2, 97400, Note_on_c, 1, 54, 127
2, 97400, Note_on_c, 1, 60, 127
2, 97400, Note_on_c, 1, 69, 127
2, 98200, Note_off_c, 1, 54, 0
2, 98200, Note_off_c, 1, 60, 0
2, 98200, Note_off_c, 1, 69, 0
2, 98240, Note_on_c, 1, 59, 127
2, 98240, Note_on_c, 1, 64, 127
2, 98240, Note_on_c, 1, 73, 127
2, 98880, Note_on_c, 1, 52, 127
2, 98880, Note_on_c, 1, 58, 127
2, 98880, Note_off_c, 1, 59, 0
2, 98880, Note_on_c, 1, 66, 127
2, 98880, Note_off_c, 1, 73, 0
2, 99040, Note_off_c, 1, 52, 0
2, 99040, Note_off_c, 1, 58, 0
2, 99040, Note_off_c, 1, 64, 0
2, 99080, Note_on_c, 1, 47, 127
2, 99080, Note_on_c, 1, 63, 127
2, 99080, Note_off_c, 1, 66, 0
2, 99080, Note_on_c, 1, 71, 127
2, 99120, Note_off_c, 1, 47, 0
2, 99120, Note_on_c, 1, 56, 127
2, 99120, Note_off_c, 1, 63, 0
2, 99120, Note_off_c, 1, 71, 0
2, 99120, Note_on_c, 1, 75, 127
2, 99120, Note_on_c, 1, 83, 127
2, 99160, Note_on_c, 1, 47, 127
2, 99160, Note_on_c, 1, 50, 127
2, 99160, Note_on_c, 1, 54, 127
2, 99160, Note_off_c, 1, 56, 0
2, 99160, Note_on_c, 1, 66, 127
2, 99160, Note_off_c, 1, 75, 0
2, 99160, Note_off_c, 1, 83, 0
2, 99200, Note_off_c, 1, 47, 0
2, 99200, Note_off_c, 1, 50, 0
2, 99200, Note_off_c, 1, 54, 0
2, 99200, Note_off_c, 1, 66, 0
2, 99240, Note_on_c, 1, 56, 127
2, 99240, Note_on_c, 1, 75, 127
2, 99240, Note_on_c, 1, 83, 127
2, 99520, Note_off_c, 1, 56, 0
2, 99520, Note_off_c, 1, 75, 0
2, 99520, Note_off_c, 1, 83, 0
2, 99560, Note_on_c, 1, 34, 127
2, 99560, Note_on_c, 1, 46, 127
2, 99560, Note_on_c, 1, 55, 127
2, 99560, Note_on_c, 1, 62, 127
2, 99600, Note_on_c, 1, 27, 127
2, 99600, Note_off_c, 1, 34, 0
2, 99600, Note_on_c, 1, 39, 127
2, 99600, Note_on_c, 1, 51, 127
2, 99600, Note_off_c, 1, 55, 0
2, 99600, Note_off_c, 1, 62, 0
2, 99600, Note_on_c, 1, 63, 127
2, 99600, Note_on_c, 1, 70, 127
2, 99600, Note_on_c, 1, 75, 127
2, 99640, Note_off_c, 1, 27, 0
2, 99640, Note_off_c, 1, 39, 0
2, 99640, Note_off_c, 1, 46, 0
2, 99640, Note_off_c, 1, 51, 0
2, 99640, Note_on_c, 1, 58, 127
2, 99640, Note_on_c, 1, 60, 127
2, 99640, Note_off_c, 1, 63, 0
2, 99640, Note_on_c, 1, 64, 127
2, 99640, Note_on_c, 1, 68, 127
2, 99640, Note_off_c, 1, 70, 0
2, 99640, Note_on_c, 1, 72, 127
2, 99640, Note_off_c, 1, 75, 0
2, 99680, Note_on_c, 1, 34, 127
2, 99680, Note_on_c, 1, 46, 127
2, 99680, Note_on_c, 1, 55, 127
2, 99680, Note_off_c, 1, 58, 0
2, 99680, Note_off_c, 1, 60, 0
2, 99680, Note_on_c, 1, 62, 127
2, 99680, Note_off_c, 1, 64, 0
2, 99680, Note_off_c, 1, 68, 0
2, 99680, Note_off_c, 1, 72, 0
2, 99720, Note_off_c, 1, 34, 0
2, 99720, Note_on_c, 1, 40, 127
2, 99720, Note_off_c, 1, 46, 0
2, 99720, Note_on_c, 1, 52, 127
2, 99720, Note_off_c, 1, 55, 0
2, 99720, Note_on_c, 1, 60, 127
2, 99720, Note_off_c, 1, 62, 0
2, 99720, Note_on_c, 1, 72, 127
2, 99720, Note_on_c, 1, 84, 127
2, 99720, Note_on_c, 1, 92, 127
2, 99720, Note_on_c, 1, 96, 127
2, 99760, Note_on_c, 1, 34, 127
2, 99760, Note_off_c, 1, 40, 0
2, 99760, Note_on_c, 1, 46, 127
2, 99760, Note_off_c, 1, 52, 0
2, 99760, Note_on_c, 1, 53, 127
2, 99760, Note_off_c, 1, 60, 0
2, 99760, Note_on_c, 1, 61, 127
2, 99760, Note_off_c, 1, 72, 0
2, 99760, Note_off_c, 1, 84, 0
2, 99760, Note_off_c, 1, 92, 0
2, 99760, Note_off_c, 1, 96, 0
2, 100160, Note_off_c, 1, 34, 0
2, 100160, Note_on_c, 1, 38, 127
2, 100160, Note_off_c, 1, 46, 0
2, 100160, Note_on_c, 1, 50, 127
2, 100160, Note_on_c, 1, 58, 127
2, 100160, Note_off_c, 1, 61, 0
2, 100160, Note_on_c, 1, 62, 127
2, 100200, Note_off_c, 1, 38, 0
2, 100200, Note_off_c, 1, 50, 0
2, 100200, Note_off_c, 1, 58, 0
2, 100200, Note_on_c, 1, 60, 127
2, 100200, Note_off_c, 1, 62, 0
2, 100200, Note_on_c, 1, 67, 127
2, 100200, Note_on_c, 1, 70, 127
2, 100200, Note_on_c, 1, 76, 127
2, 100800, Note_off_c, 1, 53, 0
2, 100800, Note_off_c, 1, 60, 0
2, 100800, Note_off_c, 1, 67, 0
2, 100800, Note_off_c, 1, 70, 0
2, 100800, Note_off_c, 1, 76, 0
2, 100840, Note_on_c, 1, 44, 127
2, 100840, Note_on_c, 1, 52, 127
2, 100840, Note_on_c, 1, 56, 127
2, 100840, Note_on_c, 1, 59, 127
2, 100840, Note_on_c, 1, 64, 127
2, 100840, Note_on_c, 1, 71, 127
2, 101160, Note_off_c, 1, 44, 0
2, 101160, Note_off_c, 1, 52, 0
2, 101160, Note_off_c, 1, 56, 0
2, 101160, Note_off_c, 1, 59, 0
2, 101160, Note_off_c, 1, 64, 0
2, 101160, Note_off_c, 1, 71, 0
2, 101200, Note_on_c, 1, 44, 127
2, 101200, Note_on_c, 1, 52, 127
2, 101200, Note_on_c, 1, 56, 127
2, 101200, Note_on_c, 1, 59, 127
2, 101200, Note_on_c, 1, 64, 127
2, 101200, Note_on_c, 1, 71, 127
2, 101680, Note_off_c, 1, 44, 0
2, 101680, Note_off_c, 1, 52, 0
2, 101680, Note_off_c, 1, 56, 0
2, 101680, Note_off_c, 1, 59, 0
2, 101680, Note_off_c, 1, 64, 0
2, 101680, Note_off_c, 1, 71, 0
2, 101720, Note_on_c, 1, 41, 127
2, 101720, Note_on_c, 1, 48, 127
2, 101720, Note_on_c, 1, 53, 127
2, 101720, Note_on_c, 1, 69, 127
2, 101720, Note_on_c, 1, 72, 127
2, 101720, Note_on_c, 1, 81, 127
2, 102040, Note_off_c, 1, 41, 0
2, 102040, Note_on_c, 1, 46, 127
2, 102040, Note_off_c, 1, 48, 0
2, 102040, Note_on_c, 1, 57, 127
2, 102040, Note_on_c, 1, 65, 127
2, 102040, Note_off_c, 1, 69, 0
2, 102040, Note_off_c, 1, 72, 0
2, 102040, Note_on_c, 1, 75, 127
2, 102040, Note_off_c, 1, 81, 0
2, 102080, Note_on_c, 1, 41, 127
2, 102080, Note_off_c, 1, 46, 0
2, 102080, Note_on_c, 1, 48, 127
2, 102080, Note_off_c, 1, 57, 0
2, 102080, Note_off_c, 1, 65, 0
2, 102080, Note_on_c, 1, 69, 127
2, 102080, Note_on_c, 1, 72, 127
2, 102080, Note_off_c, 1, 75, 0
2, 102080, Note_on_c, 1, 81, 127
2, 102480, Note_off_c, 1, 41, 0
2, 102480, Note_off_c, 1, 48, 0
2, 102480, Note_off_c, 1, 53, 0
2, 102480, Note_off_c, 1, 69, 0
2, 102480, Note_off_c, 1, 72, 0
2, 102480, Note_off_c, 1, 81, 0
2, 102520, Note_on_c, 1, 40, 127
2, 102520, Note_on_c, 1, 48, 127
2, 102520, Note_on_c, 1, 52, 127
2, 102520, Note_on_c, 1, 67, 127
2, 102520, Note_on_c, 1, 72, 127
2, 102520, Note_on_c, 1, 79, 127
2, 102880, Note_off_c, 1, 40, 0
2, 102880, Note_on_c, 1, 41, 127
2, 102880, Note_off_c, 1, 52, 0
2, 102880, Note_on_c, 1, 53, 127
2, 102880, Note_off_c, 1, 67, 0
2, 102880, Note_on_c, 1, 69, 127
2, 102880, Note_off_c, 1, 79, 0
2, 102880, Note_on_c, 1, 81, 127
2, 102920, Note_off_c, 1, 41, 0
2, 102920, Note_off_c, 1, 48, 0
2, 102920, Note_off_c, 1, 53, 0
2, 102920, Note_off_c, 1, 69, 0
2, 102920, Note_off_c, 1, 72, 0
2, 102920, Note_off_c, 1, 81, 0
2, 102960, Note_on_c, 1, 41, 127
2, 102960, Note_on_c, 1, 48, 127
2, 102960, Note_on_c, 1, 53, 127
2, 102960, Note_on_c, 1, 69, 127
2, 102960, Note_on_c, 1, 72, 127
2, 102960, Note_on_c, 1, 81, 127
2, 103040, Note_off_c, 1, 41, 0
2, 103040, Note_off_c, 1, 48, 0
2, 103040, Note_off_c, 1, 53, 0
2, 103040, Note_off_c, 1, 69, 0
2, 103040, Note_off_c, 1, 72, 0
2, 103040, Note_off_c, 1, 81, 0
2, 103080, Note_on_c, 1, 41, 127
2, 103080, Note_on_c, 1, 48, 127
2, 103080, Note_on_c, 1, 53, 127
2, 103080, Note_on_c, 1, 69, 127
2, 103080, Note_on_c, 1, 72, 127
2, 103080, Note_on_c, 1, 81, 127
2, 103760, Note_off_c, 1, 41, 0
2, 103760, Note_off_c, 1, 48, 0
2, 103760, Note_off_c, 1, 53, 0
2, 103760, Note_off_c, 1, 69, 0
2, 103760, Note_off_c, 1, 72, 0
2, 103760, Note_off_c, 1, 81, 0
2, 103800, Note_on_c, 1, 41, 127
2, 103800, Note_on_c, 1, 48, 127
2, 103800, Note_on_c, 1, 53, 127
2, 103800, Note_on_c, 1, 69, 127
2, 103800, Note_on_c, 1, 72, 127
2, 103800, Note_on_c, 1, 81, 127
2, 104360, Note_off_c, 1, 41, 0
2, 104360, Note_off_c, 1, 48, 0
2, 104360, Note_off_c, 1, 53, 0
2, 104360, Note_off_c, 1, 69, 0
2, 104360, Note_off_c, 1, 72, 0
2, 104360, Note_off_c, 1, 81, 0
2, 104400, Note_on_c, 1, 42, 127
2, 104400, Note_on_c, 1, 47, 127
2, 104400, Note_on_c, 1, 54, 127
2, 104400, Note_on_c, 1, 75, 127
2, 104400, Note_on_c, 1, 81, 127
2, 104400, Note_on_c, 1, 83, 127
2, 104400, Note_on_c, 1, 87, 127
2, 104800, Note_on_c, 1, 39, 127
2, 104800, Note_off_c, 1, 42, 0
2, 104800, Note_off_c, 1, 47, 0
2, 104800, Note_on_c, 1, 51, 127
2, 104800, Note_off_c, 1, 54, 0
2, 104800, Note_on_c, 1, 69, 127
2, 104800, Note_on_c, 1, 77, 127
2, 104800, Note_off_c, 1, 81, 0
2, 104800, Note_off_c, 1, 83, 0
2, 104800, Note_off_c, 1, 87, 0
2, 104840, Note_off_c, 1, 39, 0
2, 104840, Note_on_c, 1, 42, 127
2, 104840, Note_on_c, 1, 47, 127
2, 104840, Note_off_c, 1, 51, 0
2, 104840, Note_on_c, 1, 54, 127
2, 104840, Note_off_c, 1, 69, 0
2, 104840, Note_off_c, 1, 77, 0
2, 104840, Note_on_c, 1, 81, 127
2, 104840, Note_on_c, 1, 83, 127
2, 104840, Note_on_c, 1, 87, 127
2, 104960, Note_off_c, 1, 42, 0
2, 104960, Note_off_c, 1, 47, 0
2, 104960, Note_off_c, 1, 54, 0
2, 104960, Note_off_c, 1, 75, 0
2, 104960, Note_off_c, 1, 81, 0
2, 104960, Note_off_c, 1, 83, 0
2, 104960, Note_off_c, 1, 87, 0
2, 105000, Note_on_c, 1, 42, 127
2, 105000, Note_on_c, 1, 47, 127
2, 105000, Note_on_c, 1, 54, 127
2, 105000, Note_on_c, 1, 75, 127
2, 105000, Note_on_c, 1, 81, 127
2, 105000, Note_on_c, 1, 83, 127
2, 105000, Note_on_c, 1, 87, 127
2, 105040, Note_off_c, 1, 42, 0
2, 105040, Note_on_c, 1, 44, 127
2, 105040, Note_off_c, 1, 47, 0
2, 105040, Note_off_c, 1, 54, 0
2, 105040, Note_on_c, 1, 57, 127
2, 105040, Note_on_c, 1, 61, 127
2, 105040, Note_on_c, 1, 64, 127
2, 105040, Note_off_c, 1, 75, 0
2, 105040, Note_off_c, 1, 81, 0
2, 105040, Note_off_c, 1, 83, 0
2, 105040, Note_off_c, 1, 87, 0
2, 105080, Note_on_c, 1, 42, 127
2, 105080, Note_off_c, 1, 44, 0
2, 105080, Note_on_c, 1, 47, 127
2, 105080, Note_on_c, 1, 54, 127
2, 105080, Note_off_c, 1, 57, 0
2, 105080, Note_off_c, 1, 61, 0
2, 105080, Note_off_c, 1, 64, 0
2, 105080, Note_on_c, 1, 75, 127
2, 105080, Note_on_c, 1, 81, 127
2, 105080, Note_on_c, 1, 83, 127
2, 105080, Note_on_c, 1, 87, 127
2, 105240, Note_off_c, 1, 42, 0
2, 105240, Note_off_c, 1, 47, 0
2, 105240, Note_off_c, 1, 54, 0
2, 105240, Note_off_c, 1, 75, 0
2, 105240, Note_off_c, 1, 81, 0
2, 105240, Note_off_c, 1, 83, 0
2, 105240, Note_off_c, 1, 87, 0
2, 105280, Note_on_c, 1, 52, 127
2, 105280, Note_on_c, 1, 56, 127
2, 105280, Note_on_c, 1, 59, 127
2, 105280, Note_on_c, 1, 64, 127
2, 105280, Note_on_c, 1, 68, 127
2, 105280, Note_on_c, 1, 71, 127
2, 105640, Note_on_c, 1, 45, 127
2, 105640, Note_off_c, 1, 56, 0
2, 105640, Note_on_c, 1, 57, 127
2, 105640, Note_off_c, 1, 59, 0
2, 105640, Note_on_c, 1, 61, 127
2, 105640, Note_off_c, 1, 64, 0
2, 105640, Note_off_c, 1, 68, 0
2, 105640, Note_on_c, 1, 69, 127
2, 105640, Note_off_c, 1, 71, 0
2, 105640, Note_on_c, 1, 73, 127
2, 105680, Note_off_c, 1, 45, 0
2, 105680, Note_off_c, 1, 52, 0
2, 105680, Note_off_c, 1, 57, 0
2, 105680, Note_off_c, 1, 61, 0
2, 105680, Note_off_c, 1, 69, 0
2, 105680, Note_off_c, 1, 73, 0
2, 105720, Note_on_c, 1, 55, 127
2, 105720, Note_on_c, 1, 66, 127
2, 105720, Note_on_c, 1, 69, 127
2, 105720, Note_on_c, 1, 71, 127
2, 106080, Note_off_c, 1, 55, 0
2, 106080, Note_off_c, 1, 66, 0
2, 106080, Note_off_c, 1, 69, 0
2, 106080, Note_off_c, 1, 71, 0
2, 106120, Note_on_c, 1, 62, 127
2, 106120, Note_on_c, 1, 65, 127
2, 106120, Note_on_c, 1, 68, 127
2, 106120, Note_on_c, 1, 71, 127
2, 106440, Note_off_c, 1, 62, 0
2, 106440, Note_off_c, 1, 65, 0
2, 106440, Note_off_c, 1, 68, 0
2, 106440, Note_off_c, 1, 71, 0
2, 106520, Note_on_c, 1, 39, 127
2, 106520, Note_on_c, 1, 51, 127
2, 106520, Note_on_c, 1, 70, 127
2, 106520, Note_on_c, 1, 76, 127
2, 106520, Note_on_c, 1, 80, 127
2, 106880, Note_off_c, 1, 39, 0
2, 106880, Note_off_c, 1, 51, 0
2, 106880, Note_off_c, 1, 70, 0
2, 106880, Note_off_c, 1, 76, 0
2, 106880, Note_off_c, 1, 80, 0
2, 106960, Note_on_c, 1, 37, 127
2, 106960, Note_on_c, 1, 49, 127
2, 106960, Note_on_c, 1, 70, 127
2, 106960, Note_on_c, 1, 76, 127
2, 106960, Note_on_c, 1, 82, 127
2, 107000, Note_off_c, 1, 37, 0
2, 107000, Note_on_c, 1, 45, 127
2, 107000, Note_off_c, 1, 49, 0
2, 107000, Note_on_c, 1, 67, 127
2, 107000, Note_off_c, 1, 70, 0
2, 107000, Note_on_c, 1, 71, 127
2, 107000, Note_off_c, 1, 82, 0
2, 107040, Note_on_c, 1, 29, 127
2, 107040, Note_on_c, 1, 41, 127
2, 107040, Note_on_c, 1, 48, 127
2, 107040, Note_on_c, 1, 53, 127
2, 107040, Note_on_c, 1, 57, 127
2, 107040, Note_on_c, 1, 65, 127
2, 107040, Note_off_c, 1, 67, 0
2, 107040, Note_on_c, 1, 69, 127
2, 107040, Note_off_c, 1, 71, 0
2, 107040, Note_on_c, 1, 72, 127
2, 107040, Note_off_c, 1, 76, 0
2, 107040, Note_on_c, 1, 77, 127
2, 107080, Note_off_c, 1, 29, 0
2, 107080, Note_on_c, 1, 37, 127
2, 107080, Note_off_c, 1, 41, 0
2, 107080, Note_off_c, 1, 45, 0
2, 107080, Note_off_c, 1, 48, 0
2, 107080, Note_on_c, 1, 49, 127
2, 107080, Note_off_c, 1, 53, 0
2, 107080, Note_off_c, 1, 57, 0
2, 107080, Note_off_c, 1, 65, 0
2, 107080, Note_off_c, 1, 69, 0
2, 107080, Note_on_c, 1, 70, 127
2, 107080, Note_off_c, 1, 72, 0
2, 107080, Note_on_c, 1, 76, 127
2, 107080, Note_off_c, 1, 77, 0
2, 107080, Note_on_c, 1, 82, 127
2, 107120, Note_on_c, 1, 34, 127
2, 107120, Note_off_c, 1, 37, 0
2, 107120, Note_on_c, 1, 41, 127
2, 107120, Note_off_c, 1, 49, 0
2, 107120, Note_on_c, 1, 55, 127
2, 107120, Note_on_c, 1, 58, 127
2, 107120, Note_on_c, 1, 60, 127
2, 107120, Note_off_c, 1, 70, 0
2, 107120, Note_off_c, 1, 76, 0
2, 107120, Note_on_c, 1, 86, 127
2, 107160, Note_off_c, 1, 34, 0
2, 107160, Note_on_c, 1, 37, 127
2, 107160, Note_off_c, 1, 41, 0
2, 107160, Note_on_c, 1, 49, 127
2, 107160, Note_off_c, 1, 55, 0
2, 107160, Note_off_c, 1, 58, 0
2, 107160, Note_off_c, 1, 60, 0
2, 107160, Note_on_c, 1, 70, 127
2, 107160, Note_on_c, 1, 76, 127
2, 107160, Note_off_c, 1, 86, 0
2, 107200, Note_off_c, 1, 37, 0
2, 107200, Note_off_c, 1, 49, 0
2, 107200, Note_off_c, 1, 70, 0
2, 107200, Note_off_c, 1, 76, 0
2, 107200, Note_off_c, 1, 82, 0
2, 107200, Note_on_c, 1, 83, 127
2, 107200, Note_on_c, 1, 89, 127
2, 107200, Note_on_c, 1, 101, 127
2, 107240, Note_on_c, 1, 37, 127
2, 107240, Note_on_c, 1, 49, 127
2, 107240, Note_on_c, 1, 70, 127
2, 107240, Note_on_c, 1, 76, 127
2, 107240, Note_on_c, 1, 82, 127
2, 107240, Note_off_c, 1, 83, 0
2, 107240, Note_off_c, 1, 89, 0
2, 107240, Note_off_c, 1, 101, 0
2, 107280, Note_off_c, 1, 37, 0
2, 107280, Note_off_c, 1, 49, 0
2, 107280, Note_off_c, 1, 70, 0
2, 107280, Note_off_c, 1, 76, 0
2, 107280, Note_on_c, 1, 81, 127
2, 107280, Note_off_c, 1, 82, 0
2, 107280, Note_on_c, 1, 83, 127
2, 107280, Note_on_c, 1, 93, 127
2, 107280, Note_on_c, 1, 95, 127
2, 107320, Note_on_c, 1, 35, 127
2, 107320, Note_on_c, 1, 47, 127
2, 107320, Note_off_c, 1, 81, 0
2, 107320, Note_off_c, 1, 83, 0
2, 107320, Note_off_c, 1, 93, 0
2, 107320, Note_off_c, 1, 95, 0
2, 107360, Note_off_c, 1, 35, 0
2, 107360, Note_on_c, 1, 71, 127
2, 107360, Note_on_c, 1, 75, 127
2, 107360, Note_on_c, 1, 80, 127
2, 107720, Note_off_c, 1, 47, 0
2, 107720, Note_off_c, 1, 71, 0
2, 107720, Note_off_c, 1, 75, 0
2, 107720, Note_off_c, 1, 80, 0
2, 107760, Note_on_c, 1, 47, 127
2, 107760, Note_on_c, 1, 71, 127
2, 107760, Note_on_c, 1, 75, 127
2, 107760, Note_on_c, 1, 80, 127
2, 108120, Note_off_c, 1, 47, 0
2, 108120, Note_off_c, 1, 71, 0
2, 108120, Note_off_c, 1, 75, 0
2, 108120, Note_off_c, 1, 80, 0
2, 108160, Note_on_c, 1, 56, 127
2, 108160, Note_on_c, 1, 66, 127
2, 108160, Note_on_c, 1, 75, 127
2, 108160, Note_on_c, 1, 78, 127
2, 108560, Note_off_c, 1, 56, 0
2, 108560, Note_off_c, 1, 66, 0
2, 108560, Note_off_c, 1, 75, 0
2, 108560, Note_off_c, 1, 78, 0
2, 108600, Note_on_c, 1, 63, 127
2, 108600, Note_on_c, 1, 68, 127
2, 108600, Note_on_c, 1, 72, 127
2, 108600, Note_on_c, 1, 78, 127
2, 108600, Note_on_c, 1, 80, 127
2, 108600, Note_on_c, 1, 84, 127
2, 108960, Note_off_c, 1, 63, 0
2, 108960, Note_off_c, 1, 68, 0
2, 108960, Note_off_c, 1, 72, 0
2, 108960, Note_off_c, 1, 78, 0
2, 108960, Note_off_c, 1, 80, 0
2, 108960, Note_off_c, 1, 84, 0
2, 109040, Note_on_c, 1, 33, 127
2, 109040, Note_on_c, 1, 37, 127
2, 109040, Note_on_c, 1, 45, 127
2, 109040, Note_on_c, 1, 49, 127
2, 109040, Note_on_c, 1, 57, 127
2, 109040, Note_on_c, 1, 61, 127
2, 109800, Note_off_c, 1, 33, 0
2, 109800, Note_off_c, 1, 37, 0
2, 109800, Note_off_c, 1, 45, 0
2, 109800, Note_off_c, 1, 49, 0
2, 109800, Note_off_c, 1, 57, 0
2, 109800, Note_off_c, 1, 61, 0
2, 109840, Note_on_c, 1, 30, 127
2, 109840, Note_on_c, 1, 42, 127
2, 109840, Note_on_c, 1, 51, 127
2, 109840, Note_on_c, 1, 59, 127
2, 110240, Note_off_c, 1, 30, 0
2, 110240, Note_off_c, 1, 42, 0
2, 110280, Note_on_c, 1, 30, 127
2, 110280, Note_on_c, 1, 42, 127
2, 110520, Note_off_c, 1, 30, 0
2, 110520, Note_off_c, 1, 42, 0
2, 110520, Note_off_c, 1, 51, 0
2, 110520, Note_on_c, 1, 52, 127
2, 110520, Note_off_c, 1, 59, 0
2, 110520, Note_on_c, 1, 60, 127
2, 110520, Note_on_c, 1, 64, 127
2, 110520, Note_on_c, 1, 67, 127
2, 110560, Note_on_c, 1, 30, 127
2, 110560, Note_on_c, 1, 42, 127
2, 110560, Note_on_c, 1, 51, 127
2, 110560, Note_off_c, 1, 52, 0
2, 110560, Note_on_c, 1, 59, 127
2, 110560, Note_off_c, 1, 60, 0
2, 110560, Note_off_c, 1, 64, 0
2, 110560, Note_off_c, 1, 67, 0
2, 110640, Note_off_c, 1, 30, 0
2, 110640, Note_off_c, 1, 42, 0
2, 110640, Note_off_c, 1, 51, 0
2, 110640, Note_off_c, 1, 59, 0
2, 110680, Note_on_c, 1, 30, 127
2, 110680, Note_on_c, 1, 42, 127
2, 110680, Note_on_c, 1, 51, 127
2, 110680, Note_on_c, 1, 59, 127
2, 111080, Note_off_c, 1, 30, 0
2, 111080, Note_off_c, 1, 42, 0
2, 111080, Note_off_c, 1, 51, 0
2, 111080, Note_off_c, 1, 59, 0
2, 111120, Note_on_c, 1, 30, 127
2, 111120, Note_on_c, 1, 42, 127
2, 111120, Note_on_c, 1, 51, 127
2, 111120, Note_on_c, 1, 59, 127
2, 111520, Note_off_c, 1, 30, 0
2, 111520, Note_off_c, 1, 42, 0
2, 111520, Note_off_c, 1, 51, 0
2, 111520, Note_off_c, 1, 59, 0
2, 111560, Note_on_c, 1, 49, 127
2, 111560, Note_on_c, 1, 52, 127
2, 111560, Note_on_c, 1, 58, 127
2, 111560, Note_on_c, 1, 66, 127
2, 111920, Note_off_c, 1, 49, 0
2, 111920, Note_off_c, 1, 52, 0
2, 111920, Note_off_c, 1, 58, 0
2, 111920, Note_off_c, 1, 66, 0
2, 111960, Note_on_c, 1, 51, 127
2, 111960, Note_on_c, 1, 54, 127
2, 111960, Note_on_c, 1, 59, 127
2, 111960, Note_on_c, 1, 66, 127
2, 112760, Note_off_c, 1, 54, 0
2, 112760, Note_off_c, 1, 59, 0
2, 112760, Note_off_c, 1, 66, 0
2, 112800, Note_on_c, 1, 59, 127
2, 112800, Note_on_c, 1, 71, 127
2, 113080, Note_off_c, 1, 51, 0
2, 113080, Note_off_c, 1, 59, 0
2, 113080, Note_off_c, 1, 71, 0
2, 113120, Note_on_c, 1, 51, 127
2, 113120, Note_on_c, 1, 59, 127
2, 113120, Note_on_c, 1, 71, 127
2, 113200, Note_off_c, 1, 51, 0
2, 113200, Note_off_c, 1, 59, 0
2, 113200, Note_off_c, 1, 71, 0
2, 113240, Note_on_c, 1, 43, 127
2, 113240, Note_on_c, 1, 65, 127
2, 113240, Note_on_c, 1, 70, 127
2, 113320, Note_on_c, 1, 74, 127
2, 113400, Note_off_c, 1, 74, 0
2, 113600, Note_off_c, 1, 43, 0
2, 113600, Note_off_c, 1, 65, 0
2, 113600, Note_off_c, 1, 70, 0
2, 113640, Note_on_c, 1, 56, 127
2, 113640, Note_on_c, 1, 62, 127
2, 113640, Note_on_c, 1, 72, 127
2, 113640, Note_on_c, 1, 78, 127
2, 113800, Note_off_c, 1, 78, 0
2, 114000, Note_off_c, 1, 62, 0
2, 114040, Note_on_c, 1, 63, 127
2, 114240, Note_off_c, 1, 56, 0
2, 114280, Note_on_c, 1, 56, 127
2, 114280, Note_off_c, 1, 63, 0
2, 114280, Note_on_c, 1, 65, 127
2, 114280, Note_off_c, 1, 72, 0
2, 114280, Note_on_c, 1, 74, 127
2, 114400, Note_off_c, 1, 74, 0
2, 114440, Note_off_c, 1, 65, 0
2, 114480, Note_on_c, 1, 65, 127
2, 114480, Note_on_c, 1, 74, 127
2, 114840, Note_off_c, 1, 56, 0
2, 114840, Note_off_c, 1, 65, 0
2, 114840, Note_off_c, 1, 74, 0
2, 114880, Note_on_c, 1, 57, 127
2, 114880, Note_on_c, 1, 64, 127
2, 114880, Note_on_c, 1, 74, 127
2, 115280, Note_off_c, 1, 64, 0
2, 115280, Note_on_c, 1, 73, 127
2, 115280, Note_off_c, 1, 74, 0
2, 115320, Note_off_c, 1, 57, 0
2, 115320, Note_off_c, 1, 73, 0
2, 115360, Note_on_c, 1, 57, 127
2, 115360, Note_on_c, 1, 66, 127
2, 115360, Note_on_c, 1, 73, 127
2, 115520, Note_off_c, 1, 66, 0
2, 115560, Note_on_c, 1, 64, 127
2, 115720, Note_off_c, 1, 57, 0
2, 115720, Note_off_c, 1, 64, 0
2, 115720, Note_off_c, 1, 73, 0
2, 115760, Note_on_c, 1, 54, 127
2, 115760, Note_on_c, 1, 69, 127
2, 115760, Note_on_c, 1, 76, 127
2, 116120, Note_off_c, 1, 76, 0
2, 116160, Note_on_c, 1, 62, 127
2, 116160, Note_off_c, 1, 69, 0
2, 116160, Note_on_c, 1, 74, 127
2, 116520, Note_off_c, 1, 62, 0
2, 116520, Note_off_c, 1, 74, 0
2, 116560, Note_on_c, 1, 34, 127
2, 116560, Note_on_c, 1, 43, 127
2, 116560, Note_off_c, 1, 54, 0
2, 116560, Note_on_c, 1, 62, 127
2, 116600, Note_on_c, 1, 31, 127
2, 116600, Note_off_c, 1, 34, 0
2, 116600, Note_off_c, 1, 43, 0
2, 116600, Note_off_c, 1, 62, 0
2, 116600, Note_on_c, 1, 72, 127
2, 116600, Note_on_c, 1, 82, 127
2, 116640, Note_off_c, 1, 31, 0
2, 116640, Note_on_c, 1, 52, 127
2, 116640, Note_on_c, 1, 55, 127
2, 116640, Note_on_c, 1, 62, 127
2, 116640, Note_on_c, 1, 69, 127
2, 116640, Note_off_c, 1, 72, 0
2, 116640, Note_off_c, 1, 82, 0
2, 116680, Note_on_c, 1, 46, 127
2, 116680, Note_off_c, 1, 52, 0
2, 116680, Note_off_c, 1, 55, 0
2, 116680, Note_on_c, 1, 56, 127
2, 116680, Note_off_c, 1, 62, 0
2, 116680, Note_off_c, 1, 69, 0
2, 116680, Note_on_c, 1, 71, 127
2, 116680, Note_on_c, 1, 78, 127
2, 116720, Note_off_c, 1, 46, 0
2, 116720, Note_on_c, 1, 48, 127
2, 116720, Note_off_c, 1, 56, 0
2, 116720, Note_on_c, 1, 57, 127
2, 116720, Note_on_c, 1, 60, 127
2, 116720, Note_off_c, 1, 71, 0
2, 116720, Note_on_c, 1, 77, 127
2, 116720, Note_off_c, 1, 78, 0
2, 116760, Note_off_c, 1, 48, 0
2, 116760, Note_on_c, 1, 50, 127
2, 116760, Note_off_c, 1, 57, 0
2, 116760, Note_off_c, 1, 60, 0
2, 116760, Note_on_c, 1, 70, 127
2, 116760, Note_off_c, 1, 77, 0
2, 116760, Note_on_c, 1, 80, 127
2, 116800, Note_off_c, 1, 50, 0
2, 116800, Note_on_c, 1, 51, 127
2, 116800, Note_on_c, 1, 61, 127
2, 116800, Note_on_c, 1, 63, 127
2, 116800, Note_off_c, 1, 70, 0
2, 116800, Note_off_c, 1, 80, 0
2, 116800, Note_on_c, 1, 82, 127
2, 116880, Note_on_c, 1, 43, 127
2, 116880, Note_on_c, 1, 50, 127
2, 116880, Note_off_c, 1, 51, 0
2, 116880, Note_on_c, 1, 55, 127
2, 116880, Note_off_c, 1, 61, 0
2, 116880, Note_off_c, 1, 63, 0
2, 116920, Note_off_c, 1, 43, 0
2, 116920, Note_off_c, 1, 50, 0
2, 116920, Note_on_c, 1, 51, 127
2, 116920, Note_off_c, 1, 55, 0
2, 116920, Note_on_c, 1, 62, 127
2, 116920, Note_on_c, 1, 65, 127
2, 116920, Note_on_c, 1, 67, 127
2, 116920, Note_on_c, 1, 79, 127
2, 116920, Note_off_c, 1, 82, 0
2, 116960, Note_off_c, 1, 51, 0
2, 116960, Note_off_c, 1, 65, 0
2, 116960, Note_off_c, 1, 67, 0
2, 116960, Note_on_c, 1, 68, 127
2, 116960, Note_on_c, 1, 70, 127
2, 116960, Note_on_c, 1, 77, 127
2, 116960, Note_off_c, 1, 79, 0
2, 117000, Note_on_c, 1, 56, 127
2, 117000, Note_off_c, 1, 62, 0
2, 117000, Note_on_c, 1, 63, 127
2, 117000, Note_off_c, 1, 68, 0
2, 117000, Note_off_c, 1, 70, 0
2, 117000, Note_off_c, 1, 77, 0
2, 117000, Note_on_c, 1, 82, 127
2, 117000, Note_on_c, 1, 85, 127
2, 117040, Note_on_c, 1, 52, 127
2, 117040, Note_on_c, 1, 59, 127
2, 117040, Note_on_c, 1, 61, 127
2, 117040, Note_off_c, 1, 63, 0
2, 117040, Note_off_c, 1, 82, 0
2, 117040, Note_off_c, 1, 85, 0
2, 117040, Note_on_c, 1, 88, 127
2, 117080, Note_on_c, 1, 41, 127
2, 117080, Note_off_c, 1, 52, 0
2, 117080, Note_off_c, 1, 56, 0
2, 117080, Note_off_c, 1, 59, 0
2, 117080, Note_off_c, 1, 61, 0
2, 117080, Note_on_c, 1, 63, 127
2, 117080, Note_on_c, 1, 65, 127
2, 117080, Note_on_c, 1, 67, 127
2, 117080, Note_on_c, 1, 69, 127
2, 117080, Note_off_c, 1, 88, 0
2, 117120, Note_off_c, 1, 41, 0
2, 117120, Note_on_c, 1, 50, 127
2, 117120, Note_on_c, 1, 54, 127
2, 117120, Note_off_c, 1, 65, 0
2, 117120, Note_on_c, 1, 66, 127
2, 117120, Note_off_c, 1, 67, 0
2, 117120, Note_off_c, 1, 69, 0
2, 117120, Note_on_c, 1, 70, 127
2, 117160, Note_off_c, 1, 50, 0
2, 117160, Note_off_c, 1, 54, 0
2, 117160, Note_on_c, 1, 55, 127
2, 117160, Note_off_c, 1, 63, 0
2, 117160, Note_off_c, 1, 66, 0
2, 117160, Note_on_c, 1, 69, 127
2, 117160, Note_off_c, 1, 70, 0
2, 117160, Note_on_c, 1, 75, 127
2, 117160, Note_on_c, 1, 77, 127
2, 117160, Note_on_c, 1, 81, 127
2, 117200, Note_on_c, 1, 50, 127
2, 117200, Note_off_c, 1, 55, 0
2, 117200, Note_on_c, 1, 61, 127
2, 117200, Note_on_c, 1, 66, 127
2, 117200, Note_off_c, 1, 69, 0
2, 117200, Note_off_c, 1, 75, 0
2, 117200, Note_off_c, 1, 77, 0
2, 117200, Note_off_c, 1, 81, 0
2, 117240, Note_off_c, 1, 50, 0
2, 117240, Note_on_c, 1, 58, 127
2, 117240, Note_off_c, 1, 61, 0
2, 117240, Note_on_c, 1, 71, 127
2, 117240, Note_on_c, 1, 75, 127
2, 117280, Note_off_c, 1, 58, 0
2, 117280, Note_off_c, 1, 66, 0
2, 117280, Note_off_c, 1, 71, 0
2, 117280, Note_off_c, 1, 75, 0
2, 117320, Note_on_c, 1, 57, 127
2, 117320, Note_on_c, 1, 65, 127
2, 117320, Note_on_c, 1, 86, 127
2, 117320, Note_on_c, 1, 98, 127
2, 117360, Note_on_c, 1, 50, 127
2, 117360, Note_off_c, 1, 57, 0
2, 117360, Note_on_c, 1, 63, 127
2, 117360, Note_off_c, 1, 65, 0
2, 117360, Note_on_c, 1, 66, 127
2, 117360, Note_on_c, 1, 69, 127
2, 117360, Note_on_c, 1, 70, 127
2, 117360, Note_off_c, 1, 86, 0
2, 117360, Note_off_c, 1, 98, 0
2, 117400, Note_off_c, 1, 50, 0
2, 117400, Note_off_c, 1, 63, 0
2, 117400, Note_off_c, 1, 66, 0
2, 117400, Note_off_c, 1, 69, 0
2, 117400, Note_off_c, 1, 70, 0
2, 117440, Note_on_c, 1, 54, 127
2, 117440, Note_on_c, 1, 68, 127
2, 117440, Note_on_c, 1, 71, 127
2, 117440, Note_on_c, 1, 77, 127
2, 117800, Note_off_c, 1, 54, 0
2, 117840, Note_on_c, 1, 56, 127
2, 117840, Note_on_c, 1, 59, 127
2, 117840, Note_on_c, 1, 61, 127
2, 117840, Note_off_c, 1, 68, 0
2, 117840, Note_on_c, 1, 73, 127
2, 117840, Note_off_c, 1, 77, 0
2, 117880, Note_on_c, 1, 41, 127
2, 117880, Note_on_c, 1, 53, 127
2, 117880, Note_off_c, 1, 56, 0
2, 117880, Note_off_c, 1, 59, 0
2, 117880, Note_on_c, 1, 60, 127
2, 117880, Note_off_c, 1, 61, 0
2, 117880, Note_off_c, 1, 71, 0
2, 117920, Note_off_c, 1, 41, 0
2, 117920, Note_off_c, 1, 53, 0
2, 117920, Note_on_c, 1, 56, 127
2, 117920, Note_on_c, 1, 59, 127
2, 117920, Note_off_c, 1, 60, 0
2, 117920, Note_on_c, 1, 61, 127
2, 117920, Note_on_c, 1, 71, 127
2, 118200, Note_off_c, 1, 56, 0
2, 118200, Note_off_c, 1, 59, 0
2, 118200, Note_off_c, 1, 61, 0
2, 118200, Note_off_c, 1, 71, 0
2, 118200, Note_off_c, 1, 73, 0
2, 118240, Note_on_c, 1, 56, 127
2, 118240, Note_on_c, 1, 65, 127
2, 118240, Note_on_c, 1, 73, 127
2, 118240, Note_on_c, 1, 82, 127
2, 118600, Note_off_c, 1, 56, 0
2, 118600, Note_off_c, 1, 65, 0
2, 118600, Note_off_c, 1, 73, 0
2, 118640, Note_on_c, 1, 61, 127
2, 118640, Note_on_c, 1, 65, 127
2, 118640, Note_on_c, 1, 71, 127
2, 118640, Note_on_c, 1, 80, 127
2, 118640, Note_off_c, 1, 82, 0
2, 119040, Note_off_c, 1, 65, 0
2, 119040, Note_off_c, 1, 71, 0
2, 119040, Note_off_c, 1, 80, 0
2, 119080, Note_on_c, 1, 68, 127
2, 119080, Note_on_c, 1, 71, 127
2, 119080, Note_on_c, 1, 77, 127
2, 119440, Note_off_c, 1, 68, 0
2, 119440, Note_off_c, 1, 71, 0
2, 119440, Note_off_c, 1, 77, 0
2, 119480, Note_on_c, 1, 56, 127
2, 119480, Note_off_c, 1, 61, 0
2, 119480, Note_on_c, 1, 71, 127
2, 119480, Note_on_c, 1, 73, 127
2, 119480, Note_on_c, 1, 77, 127
2, 119520, Note_off_c, 1, 56, 0
2, 119520, Note_off_c, 1, 71, 0
2, 119520, Note_off_c, 1, 73, 0
2, 119520, Note_off_c, 1, 77, 0
2, 119560, Note_on_c, 1, 56, 127
2, 119560, Note_on_c, 1, 71, 127
2, 119560, Note_on_c, 1, 73, 127
2, 119560, Note_on_c, 1, 77, 127
2, 119680, Note_on_c, 1, 54, 127
2, 119680, Note_off_c, 1, 56, 0
2, 119680, Note_on_c, 1, 70, 127
2, 119680, Note_off_c, 1, 71, 0
2, 119680, Note_off_c, 1, 77, 0
2, 119680, Note_on_c, 1, 78, 127
2, 119920, Note_off_c, 1, 70, 0
2, 119920, Note_off_c, 1, 73, 0
2, 119920, Note_off_c, 1, 78, 0
2, 119960, Note_on_c, 1, 53, 127
2, 119960, Note_off_c, 1, 54, 0
2, 119960, Note_on_c, 1, 61, 127
2, 119960, Note_on_c, 1, 70, 127
2, 119960, Note_on_c, 1, 73, 127
2, 120000, Note_off_c, 1, 53, 0
2, 120000, Note_off_c, 1, 61, 0
2, 120000, Note_off_c, 1, 70, 0
2, 120000, Note_off_c, 1, 73, 0
2, 120040, End_track
3, 0, Start_track
3, 0, Title_t, "MIDI"
3, 1536, End_track
0, 0, End_of_file
