0, 0, Header, 1, 3, 192
1, 0, Start_track
1, 0, Time_signature, 4, 2, 24, 8
1, 0, Tempo, 500000
1, 120040, End_track
2, 0, Start_track
2, 0, Text_t, "random instrument: random person i dunno whatev"
2, 0, Title_t, "Track 1"
2, 0, Note_on_c, 1, 50, 127
2, 0, Note_on_c, 1, 57, 127
2, 0, Note_on_c, 1, 65, 127
2, 0, Note_on_c, 1, 69, 127
2, 0, Note_on_c, 1, 74, 127
2, 0, Note_on_c, 1, 77, 127
2, 0, Note_on_c, 1, 81, 127
2, 80, Note_off_c, 1, 50, 0
2, 80, Note_off_c, 1, 57, 0
2, 80, Note_off_c, 1, 65, 0
2, 80, Note_off_c, 1, 69, 0
2, 80, Note_off_c, 1, 74, 0
2, 80, Note_off_c, 1, 77, 0
2, 80, Note_off_c, 1, 81, 0
2, 120, Note_on_c, 1, 50, 127
2, 120, Note_on_c, 1, 57, 127
2, 120, Note_on_c, 1, 65, 127
2, 120, Note_on_c, 1, 69, 127
2, 120, Note_on_c, 1, 74, 127
2, 120, Note_on_c, 1, 77, 127
2, 120, Note_on_c, 1, 81, 127
2, 360, Note_off_c, 1, 50, 0
2, 360, Note_off_c, 1, 57, 0
2, 360, Note_off_c, 1, 65, 0
2, 360, Note_off_c, 1, 69, 0
2, 360, Note_off_c, 1, 74, 0
2, 360, Note_off_c, 1, 77, 0
2, 360, Note_off_c, 1, 81, 0
2, 400, Note_on_c, 1, 47, 127
2, 400, Note_on_c, 1, 59, 127
2, 400, Note_on_c, 1, 66, 127
2, 400, Note_on_c, 1, 71, 127
2, 400, Note_on_c, 1, 74, 127
2, 800, Note_off_c, 1, 47, 0
2, 800, Note_off_c, 1, 59, 0
2, 800, Note_off_c, 1, 66, 0
2, 800, Note_off_c, 1, 71, 0
2, 800, Note_off_c, 1, 74, 0
2, 840, Note_on_c, 1, 47, 127
2, 840, Note_on_c, 1, 63, 127
2, 840, Note_on_c, 1, 66, 127
2, 840, Note_on_c, 1, 71, 127
2, 960, Note_off_c, 1, 47, 0
2, 960, Note_off_c, 1, 63, 0
2, 960, Note_off_c, 1, 66, 0
2, 960, Note_off_c, 1, 71, 0
2, 3840, Note_on_c, 1, 59, 127
2, 3840, Note_on_c, 1, 64, 127
2, 3840, Note_on_c, 1, 68, 127
2, 3960, Note_off_c, 1, 59, 0
2, 3960, Note_off_c, 1, 64, 0
2, 3960, Note_off_c, 1, 68, 0
2, 4160, Note_on_c, 1, 62, 127
2, 4160, Note_on_c, 1, 64, 127
2, 4160, Note_on_c, 1, 68, 127
2, 4160, Note_on_c, 1, 71, 127
2, 4200, Note_off_c, 1, 62, 0
2, 4200, Note_off_c, 1, 64, 0
2, 4200, Note_off_c, 1, 68, 0
2, 4200, Note_off_c, 1, 71, 0
2, 4240, Note_on_c, 1, 62, 127
2, 4240, Note_on_c, 1, 64, 127
2, 4240, Note_on_c, 1, 68, 127
2, 4240, Note_on_c, 1, 71, 127
2, 4280, Note_off_c, 1, 62, 0
2, 4280, Note_off_c, 1, 64, 0
2, 4280, Note_off_c, 1, 68, 0
2, 4280, Note_off_c, 1, 71, 0
2, 4360, Note_on_c, 1, 62, 127
2, 4360, Note_on_c, 1, 64, 127
2, 4360, Note_on_c, 1, 68, 127
2, 4360, Note_on_c, 1, 71, 127
2, 4600, Note_off_c, 1, 62, 0
2, 4600, Note_off_c, 1, 64, 0
2, 4600, Note_off_c, 1, 68, 0
2, 4600, Note_off_c, 1, 71, 0
2, 4640, Note_on_c, 1, 57, 127
2, 4640, Note_on_c, 1, 61, 127
2, 4640, Note_on_c, 1, 64, 127
2, 4640, Note_on_c, 1, 69, 127
2, 4680, Note_off_c, 1, 57, 0
2, 4680, Note_off_c, 1, 61, 0
2, 4680, Note_off_c, 1, 64, 0
2, 4680, Note_off_c, 1, 69, 0
2, 4720, Note_on_c, 1, 57, 127
2, 4720, Note_on_c, 1, 61, 127
2, 4720, Note_on_c, 1, 64, 127
2, 4720, Note_on_c, 1, 69, 127
2, 4920, Note_off_c, 1, 57, 0
2, 4920, Note_off_c, 1, 61, 0
2, 4920, Note_off_c, 1, 64, 0
2, 4920, Note_off_c, 1, 69, 0
2, 4960, Note_on_c, 1, 50, 127
2, 4960, Note_on_c, 1, 62, 127
2, 4960, Note_on_c, 1, 66, 127
2, 4960, Note_on_c, 1, 71, 127
2, 5000, Note_off_c, 1, 50, 0
2, 5000, Note_off_c, 1, 62, 0
2, 5000, Note_off_c, 1, 66, 0
2, 5000, Note_off_c, 1, 71, 0
2, 5160, Note_on_c, 1, 48, 127
2, 5160, Note_on_c, 1, 55, 127
2, 5160, Note_on_c, 1, 60, 127
2, 5160, Note_on_c, 1, 64, 127
2, 5200, Note_off_c, 1, 48, 0
2, 5200, Note_off_c, 1, 55, 0
2, 5200, Note_off_c, 1, 60, 0
2, 5200, Note_off_c, 1, 64, 0
2, 5240, Note_on_c, 1, 43, 127
2, 5240, Note_on_c, 1, 50, 127
2, 5240, Note_on_c, 1, 60, 127
2, 5240, Note_on_c, 1, 62, 127
2, 5240, Note_on_c, 1, 69, 127
2, 5480, Note_off_c, 1, 43, 0
2, 5480, Note_off_c, 1, 50, 0
2, 5480, Note_off_c, 1, 60, 0
2, 5480, Note_off_c, 1, 62, 0
2, 5480, Note_off_c, 1, 69, 0
2, 5520, Note_on_c, 1, 41, 127
2, 5520, Note_on_c, 1, 53, 127
2, 5520, Note_on_c, 1, 77, 127
2, 5520, Note_on_c, 1, 81, 127
2, 5520, Note_on_c, 1, 84, 127
2, 5520, Note_on_c, 1, 89, 127
2, 5720, Note_off_c, 1, 41, 0
2, 5720, Note_off_c, 1, 53, 0
2, 5720, Note_off_c, 1, 77, 0
2, 5720, Note_off_c, 1, 81, 0
2, 5720, Note_off_c, 1, 84, 0
2, 5720, Note_off_c, 1, 89, 0
2, 5840, Note_on_c, 1, 65, 127
2, 5840, Note_on_c, 1, 70, 127
2, 5840, Note_on_c, 1, 78, 127
2, 5840, Note_on_c, 1, 85, 127
2, 5840, Note_on_c, 1, 90, 127
2, 5880, Note_on_c, 1, 52, 127
2, 5880, Note_on_c, 1, 57, 127
2, 5880, Note_on_c, 1, 60, 127
2, 5880, Note_on_c, 1, 69, 127
2, 5880, Note_off_c, 1, 70, 0
2, 5880, Note_on_c, 1, 77, 127
2, 5880, Note_off_c, 1, 78, 0
2, 5880, Note_off_c, 1, 85, 0
2, 5880, Note_off_c, 1, 90, 0
2, 5920, Note_off_c, 1, 52, 0
2, 5920, Note_off_c, 1, 57, 0
2, 5920, Note_off_c, 1, 60, 0
2, 5920, Note_off_c, 1, 65, 0
2, 5920, Note_off_c, 1, 69, 0
2, 5920, Note_off_c, 1, 77, 0
2, 6000, Note_on_c, 1, 44, 127
2, 6000, Note_on_c, 1, 56, 127
2, 6000, Note_on_c, 1, 78, 127
2, 6000, Note_on_c, 1, 80, 127
2, 6000, Note_on_c, 1, 84, 127
2, 6000, Note_on_c, 1, 87, 127
2, 6400, Note_off_c, 1, 44, 0
2, 6400, Note_off_c, 1, 56, 0
2, 6400, Note_off_c, 1, 78, 0
2, 6400, Note_off_c, 1, 80, 0
2, 6400, Note_off_c, 1, 84, 0
2, 6400, Note_off_c, 1, 87, 0
2, 6440, Note_on_c, 1, 72, 127
2, 6440, Note_on_c, 1, 76, 127
2, 6440, Note_on_c, 1, 79, 127
2, 6440, Note_on_c, 1, 82, 127
2, 6440, Note_on_c, 1, 84, 127
2, 6480, Note_off_c, 1, 72, 0
2, 6480, Note_off_c, 1, 76, 0
2, 6480, Note_off_c, 1, 79, 0
2, 6480, Note_off_c, 1, 82, 0
2, 6480, Note_off_c, 1, 84, 0
2, 6600, Note_on_c, 1, 41, 127
2, 6600, Note_on_c, 1, 53, 127
2, 6600, Note_on_c, 1, 56, 127
2, 6600, Note_on_c, 1, 73, 127
2, 6600, Note_on_c, 1, 80, 127
2, 6680, Note_off_c, 1, 41, 0
2, 6680, Note_off_c, 1, 53, 0
2, 6680, Note_off_c, 1, 73, 0
2, 6680, Note_off_c, 1, 80, 0
2, 6720, Note_off_c, 1, 56, 0
2, 6760, Note_on_c, 1, 49, 127
2, 6760, Note_on_c, 1, 52, 127
2, 6760, Note_on_c, 1, 57, 127
2, 6760, Note_on_c, 1, 61, 127
2, 6760, Note_on_c, 1, 63, 127
2, 6800, Note_off_c, 1, 49, 0
2, 6800, Note_on_c, 1, 51, 127
2, 6800, Note_off_c, 1, 52, 0
2, 6800, Note_off_c, 1, 57, 0
2, 6800, Note_off_c, 1, 61, 0
2, 6800, Note_on_c, 1, 69, 127
2, 6800, Note_on_c, 1, 72, 127
2, 6800, Note_on_c, 1, 78, 127
2, 6800, Note_on_c, 1, 81, 127
2, 6800, Note_on_c, 1, 84, 127
2, 6840, Note_on_c, 1, 42, 127
2, 6840, Note_on_c, 1, 49, 127
2, 6840, Note_off_c, 1, 51, 0
2, 6840, Note_on_c, 1, 61, 127
2, 6840, Note_off_c, 1, 63, 0
2, 6840, Note_on_c, 1, 66, 127
2, 6840, Note_off_c, 1, 69, 0
2, 6840, Note_on_c, 1, 70, 127
2, 6840, Note_off_c, 1, 72, 0
2, 6840, Note_off_c, 1, 78, 0
2, 6840, Note_off_c, 1, 81, 0
2, 6840, Note_on_c, 1, 82, 127
2, 6840, Note_off_c, 1, 84, 0
2, 6840, Note_on_c, 1, 85, 127
2, 6840, Note_on_c, 1, 90, 127
2, 6880, Note_off_c, 1, 42, 0
2, 6880, Note_off_c, 1, 49, 0
2, 6880, Note_off_c, 1, 61, 0
2, 6880, Note_off_c, 1, 66, 0
2, 6880, Note_off_c, 1, 70, 0
2, 6880, Note_off_c, 1, 82, 0
2, 6880, Note_off_c, 1, 85, 0
2, 6880, Note_off_c, 1, 90, 0
2, 7080, Note_on_c, 1, 44, 127
2, 7080, Note_on_c, 1, 53, 127
2, 7080, Note_on_c, 1, 56, 127
2, 7080, Note_on_c, 1, 73, 127
2, 7080, Note_on_c, 1, 85, 127
2, 7200, Note_off_c, 1, 44, 0
2, 7200, Note_off_c, 1, 53, 0
2, 7200, Note_off_c, 1, 56, 0
2, 7200, Note_off_c, 1, 73, 0
2, 7200, Note_off_c, 1, 85, 0
2, 7320, Note_on_c, 1, 44, 127
2, 7320, Note_on_c, 1, 53, 127
2, 7320, Note_on_c, 1, 56, 127
2, 7320, Note_on_c, 1, 73, 127
2, 7320, Note_on_c, 1, 85, 127
2, 7600, Note_off_c, 1, 44, 0
2, 7600, Note_off_c, 1, 53, 0
2, 7600, Note_off_c, 1, 56, 0
2, 7600, Note_off_c, 1, 73, 0
2, 7600, Note_off_c, 1, 85, 0
2, 7640, Note_on_c, 1, 48, 127
2, 7640, Note_on_c, 1, 55, 127
2, 7640, Note_on_c, 1, 60, 127
2, 7640, Note_on_c, 1, 67, 127
2, 7640, Note_on_c, 1, 76, 127
2, 7640, Note_on_c, 1, 79, 127
2, 7920, Note_off_c, 1, 48, 0
2, 7920, Note_off_c, 1, 55, 0
2, 7920, Note_off_c, 1, 60, 0
2, 7920, Note_off_c, 1, 67, 0
2, 7920, Note_off_c, 1, 76, 0
2, 7920, Note_off_c, 1, 79, 0
2, 7960, Note_on_c, 1, 48, 127
2, 7960, Note_on_c, 1, 55, 127
2, 7960, Note_on_c, 1, 60, 127
2, 7960, Note_on_c, 1, 67, 127
2, 7960, Note_on_c, 1, 76, 127
2, 7960, Note_on_c, 1, 79, 127
2, 8080, Note_off_c, 1, 48, 0
2, 8080, Note_off_c, 1, 55, 0
2, 8080, Note_off_c, 1, 60, 0
2, 8080, Note_off_c, 1, 67, 0
2, 8080, Note_off_c, 1, 76, 0
2, 8080, Note_off_c, 1, 79, 0
2, 8120, Note_on_c, 1, 48, 127
2, 8120, Note_on_c, 1, 55, 127
2, 8120, Note_on_c, 1, 60, 127
2, 8120, Note_on_c, 1, 67, 127
2, 8120, Note_on_c, 1, 76, 127
2, 8120, Note_on_c, 1, 79, 127
2, 8240, Note_off_c, 1, 48, 0
2, 8240, Note_off_c, 1, 55, 0
2, 8240, Note_off_c, 1, 60, 0
2, 8240, Note_off_c, 1, 67, 0
2, 8240, Note_off_c, 1, 76, 0
2, 8240, Note_off_c, 1, 79, 0
2, 8280, Note_on_c, 1, 48, 127
2, 8280, Note_on_c, 1, 55, 127
2, 8280, Note_on_c, 1, 60, 127
2, 8280, Note_on_c, 1, 67, 127
2, 8280, Note_on_c, 1, 76, 127
2, 8280, Note_on_c, 1, 79, 127
2, 8400, Note_off_c, 1, 48, 0
2, 8400, Note_off_c, 1, 55, 0
2, 8400, Note_off_c, 1, 60, 0
2, 8400, Note_off_c, 1, 67, 0
2, 8400, Note_off_c, 1, 76, 0
2, 8400, Note_off_c, 1, 79, 0
2, 8440, Note_on_c, 1, 48, 127
2, 8440, Note_on_c, 1, 55, 127
2, 8440, Note_on_c, 1, 60, 127
2, 8440, Note_on_c, 1, 67, 127
2, 8440, Note_on_c, 1, 76, 127
2, 8440, Note_on_c, 1, 79, 127
2, 8560, Note_off_c, 1, 48, 0
2, 8560, Note_off_c, 1, 55, 0
2, 8560, Note_off_c, 1, 60, 0
2, 8560, Note_off_c, 1, 67, 0
2, 8560, Note_off_c, 1, 76, 0
2, 8560, Note_off_c, 1, 79, 0
2, 8600, Note_on_c, 1, 48, 127
2, 8600, Note_on_c, 1, 55, 127
2, 8600, Note_on_c, 1, 60, 127
2, 8600, Note_on_c, 1, 67, 127
2, 8600, Note_on_c, 1, 76, 127
2, 8600, Note_on_c, 1, 79, 127
2, 8720, Note_off_c, 1, 48, 0
2, 8720, Note_off_c, 1, 55, 0
2, 8720, Note_off_c, 1, 60, 0
2, 8720, Note_off_c, 1, 67, 0
2, 8720, Note_off_c, 1, 76, 0
2, 8720, Note_off_c, 1, 79, 0
2, 8760, Note_on_c, 1, 48, 127
2, 8760, Note_on_c, 1, 55, 127
2, 8760, Note_on_c, 1, 60, 127
2, 8760, Note_on_c, 1, 67, 127
2, 8760, Note_on_c, 1, 76, 127
2, 8760, Note_on_c, 1, 79, 127
2, 8880, Note_off_c, 1, 48, 0
2, 8880, Note_off_c, 1, 55, 0
2, 8880, Note_off_c, 1, 60, 0
2, 8880, Note_off_c, 1, 67, 0
2, 8880, Note_off_c, 1, 76, 0
2, 8880, Note_off_c, 1, 79, 0
2, 8920, Note_on_c, 1, 48, 127
2, 8920, Note_on_c, 1, 55, 127
2, 8920, Note_on_c, 1, 60, 127
2, 8920, Note_on_c, 1, 67, 127
2, 8920, Note_on_c, 1, 76, 127
2, 8920, Note_on_c, 1, 79, 127
2, 9040, Note_off_c, 1, 48, 0
2, 9040, Note_off_c, 1, 55, 0
2, 9040, Note_off_c, 1, 60, 0
2, 9040, Note_off_c, 1, 67, 0
2, 9040, Note_off_c, 1, 76, 0
2, 9040, Note_off_c, 1, 79, 0
2, 9120, Note_on_c, 1, 48, 127
2, 9120, Note_on_c, 1, 55, 127
2, 9120, Note_on_c, 1, 60, 127
2, 9120, Note_on_c, 1, 67, 127
2, 9120, Note_on_c, 1, 76, 127
2, 9120, Note_on_c, 1, 79, 127
2, 9240, Note_off_c, 1, 48, 0
2, 9240, Note_off_c, 1, 55, 0
2, 9240, Note_off_c, 1, 60, 0
2, 9240, Note_off_c, 1, 67, 0
2, 9240, Note_off_c, 1, 76, 0
2, 9240, Note_off_c, 1, 79, 0
2, 9280, Note_on_c, 1, 48, 127
2, 9280, Note_on_c, 1, 55, 127
2, 9280, Note_on_c, 1, 60, 127
2, 9280, Note_on_c, 1, 67, 127
2, 9280, Note_on_c, 1, 76, 127
2, 9280, Note_on_c, 1, 79, 127
2, 9400, Note_off_c, 1, 48, 0
2, 9400, Note_off_c, 1, 55, 0
2, 9400, Note_off_c, 1, 60, 0
2, 9400, Note_off_c, 1, 67, 0
2, 9400, Note_off_c, 1, 76, 0
2, 9400, Note_off_c, 1, 79, 0
2, 9440, Note_on_c, 1, 48, 127
2, 9440, Note_on_c, 1, 55, 127
2, 9440, Note_on_c, 1, 60, 127
2, 9440, Note_on_c, 1, 67, 127
2, 9440, Note_on_c, 1, 76, 127
2, 9440, Note_on_c, 1, 79, 127
2, 9560, Note_off_c, 1, 48, 0
2, 9560, Note_off_c, 1, 55, 0
2, 9560, Note_off_c, 1, 60, 0
2, 9560, Note_off_c, 1, 67, 0
2, 9560, Note_off_c, 1, 76, 0
2, 9560, Note_off_c, 1, 79, 0
2, 9600, Note_on_c, 1, 48, 127
2, 9600, Note_on_c, 1, 55, 127
2, 9600, Note_on_c, 1, 60, 127
2, 9600, Note_on_c, 1, 67, 127
2, 9600, Note_on_c, 1, 76, 127
2, 9600, Note_on_c, 1, 79, 127
2, 9720, Note_off_c, 1, 48, 0
2, 9720, Note_off_c, 1, 55, 0
2, 9720, Note_off_c, 1, 60, 0
2, 9720, Note_off_c, 1, 67, 0
2, 9720, Note_off_c, 1, 76, 0
2, 9720, Note_off_c, 1, 79, 0
2, 9760, Note_on_c, 1, 48, 127
2, 9760, Note_on_c, 1, 55, 127
2, 9760, Note_on_c, 1, 60, 127
2, 9760, Note_on_c, 1, 67, 127
2, 9760, Note_on_c, 1, 76, 127
2, 9760, Note_on_c, 1, 79, 127
2, 9880, Note_off_c, 1, 48, 0
2, 9880, Note_off_c, 1, 55, 0
2, 9880, Note_off_c, 1, 60, 0
2, 9880, Note_off_c, 1, 67, 0
2, 9880, Note_off_c, 1, 76, 0
2, 9880, Note_off_c, 1, 79, 0
2, 9920, Note_on_c, 1, 48, 127
2, 9920, Note_on_c, 1, 55, 127
2, 9920, Note_on_c, 1, 60, 127
2, 9920, Note_on_c, 1, 67, 127
2, 9920, Note_on_c, 1, 76, 127
2, 9920, Note_on_c, 1, 79, 127
2, 10040, Note_off_c, 1, 48, 0
2, 10040, Note_off_c, 1, 55, 0
2, 10040, Note_off_c, 1, 60, 0
2, 10040, Note_off_c, 1, 67, 0
2, 10040, Note_off_c, 1, 76, 0
2, 10040, Note_off_c, 1, 79, 0
2, 10080, Note_on_c, 1, 48, 127
2, 10080, Note_on_c, 1, 55, 127
2, 10080, Note_on_c, 1, 60, 127
2, 10080, Note_on_c, 1, 67, 127
2, 10080, Note_on_c, 1, 76, 127
2, 10080, Note_on_c, 1, 79, 127
2, 10200, Note_off_c, 1, 48, 0
2, 10200, Note_off_c, 1, 55, 0
2, 10200, Note_off_c, 1, 60, 0
2, 10200, Note_off_c, 1, 67, 0
2, 10200, Note_off_c, 1, 76, 0
2, 10200, Note_off_c, 1, 79, 0
2, 10240, Note_on_c, 1, 48, 127
2, 10240, Note_on_c, 1, 55, 127
2, 10240, Note_on_c, 1, 60, 127
2, 10240, Note_on_c, 1, 67, 127
2, 10240, Note_on_c, 1, 75, 127
2, 10240, Note_on_c, 1, 79, 127
2, 10320, Note_off_c, 1, 55, 0
2, 10320, Note_off_c, 1, 60, 0
2, 10320, Note_off_c, 1, 67, 0
2, 10320, Note_off_c, 1, 75, 0
2, 10320, Note_on_c, 1, 76, 127
2, 10320, Note_on_c, 1, 84, 127
2, 10360, Note_off_c, 1, 48, 0
2, 10360, Note_off_c, 1, 76, 0
2, 10360, Note_off_c, 1, 79, 0
2, 10360, Note_off_c, 1, 84, 0
2, 10400, Note_on_c, 1, 48, 127
2, 10400, Note_on_c, 1, 55, 127
2, 10400, Note_on_c, 1, 60, 127
2, 10400, Note_on_c, 1, 67, 127
2, 10400, Note_on_c, 1, 75, 127
2, 10400, Note_on_c, 1, 79, 127
2, 10520, Note_off_c, 1, 48, 0
2, 10520, Note_off_c, 1, 55, 0
2, 10520, Note_off_c, 1, 60, 0
2, 10520, Note_off_c, 1, 67, 0
2, 10520, Note_off_c, 1, 75, 0
2, 10520, Note_off_c, 1, 79, 0
2, 10560, Note_on_c, 1, 48, 127
2, 10560, Note_on_c, 1, 55, 127
2, 10560, Note_on_c, 1, 60, 127
2, 10560, Note_on_c, 1, 67, 127
2, 10560, Note_on_c, 1, 75, 127
2, 10560, Note_on_c, 1, 79, 127
2, 10600, Note_off_c, 1, 67, 0
2, 10600, Note_off_c, 1, 75, 0
2, 10600, Note_on_c, 1, 76, 127
2, 10600, Note_off_c, 1, 79, 0
2, 10640, Note_off_c, 1, 48, 0
2, 10640, Note_off_c, 1, 55, 0
2, 10640, Note_off_c, 1, 60, 0
2, 10640, Note_off_c, 1, 76, 0
2, 10720, Note_on_c, 1, 48, 127
2, 10720, Note_on_c, 1, 55, 127
2, 10720, Note_on_c, 1, 60, 127
2, 10720, Note_on_c, 1, 67, 127
2, 10720, Note_on_c, 1, 75, 127
2, 10720, Note_on_c, 1, 79, 127
2, 10760, Note_off_c, 1, 67, 0
2, 10760, Note_off_c, 1, 75, 0
2, 10760, Note_on_c, 1, 76, 127
2, 10760, Note_off_c, 1, 79, 0
2, 10800, Note_off_c, 1, 48, 0
2, 10800, Note_off_c, 1, 55, 0
2, 10800, Note_off_c, 1, 60, 0
2, 10800, Note_off_c, 1, 76, 0
2, 10880, Note_on_c, 1, 48, 127
2, 10880, Note_on_c, 1, 55, 127
2, 10880, Note_on_c, 1, 60, 127
2, 10880, Note_on_c, 1, 67, 127
2, 10880, Note_on_c, 1, 76, 127
2, 10880, Note_on_c, 1, 79, 127
2, 11000, Note_off_c, 1, 48, 0
2, 11000, Note_off_c, 1, 55, 0
2, 11000, Note_off_c, 1, 60, 0
2, 11000, Note_off_c, 1, 67, 0
2, 11000, Note_off_c, 1, 76, 0
2, 11000, Note_off_c, 1, 79, 0
2, 11040, Note_on_c, 1, 48, 127
2, 11040, Note_on_c, 1, 55, 127
2, 11040, Note_on_c, 1, 60, 127
2, 11040, Note_on_c, 1, 67, 127
2, 11040, Note_on_c, 1, 76, 127
2, 11040, Note_on_c, 1, 79, 127
2, 11160, Note_off_c, 1, 48, 0
2, 11160, Note_off_c, 1, 55, 0
2, 11160, Note_off_c, 1, 60, 0
2, 11160, Note_off_c, 1, 67, 0
2, 11160, Note_off_c, 1, 76, 0
2, 11160, Note_off_c, 1, 79, 0
2, 11200, Note_on_c, 1, 40, 127
2, 11200, Note_on_c, 1, 51, 127
2, 11200, Note_on_c, 1, 59, 127
2, 11200, Note_on_c, 1, 66, 127
2, 11200, Note_on_c, 1, 69, 127
2, 11280, Note_off_c, 1, 40, 0
2, 11280, Note_off_c, 1, 51, 0
2, 11280, Note_off_c, 1, 59, 0
2, 11280, Note_off_c, 1, 66, 0
2, 11280, Note_off_c, 1, 69, 0
2, 11400, Note_on_c, 1, 40, 127
2, 11400, Note_on_c, 1, 51, 127
2, 11400, Note_on_c, 1, 59, 127
2, 11400, Note_on_c, 1, 66, 127
2, 11400, Note_on_c, 1, 69, 127
2, 11480, Note_off_c, 1, 40, 0
2, 11480, Note_off_c, 1, 51, 0
2, 11480, Note_off_c, 1, 59, 0
2, 11480, Note_off_c, 1, 66, 0
2, 11480, Note_off_c, 1, 69, 0
2, 11560, Note_on_c, 1, 40, 127
2, 11560, Note_on_c, 1, 51, 127
2, 11560, Note_on_c, 1, 59, 127
2, 11560, Note_on_c, 1, 66, 127
2, 11560, Note_on_c, 1, 69, 127
2, 11640, Note_off_c, 1, 40, 0
2, 11640, Note_off_c, 1, 51, 0
2, 11640, Note_off_c, 1, 59, 0
2, 11640, Note_off_c, 1, 66, 0
2, 11640, Note_off_c, 1, 69, 0
2, 11720, Note_on_c, 1, 40, 127
2, 11720, Note_on_c, 1, 51, 127
2, 11720, Note_on_c, 1, 59, 127
2, 11720, Note_on_c, 1, 66, 127
2, 11720, Note_on_c, 1, 69, 127
2, 11800, Note_off_c, 1, 40, 0
2, 11800, Note_off_c, 1, 51, 0
2, 11800, Note_off_c, 1, 59, 0
2, 11800, Note_off_c, 1, 66, 0
2, 11800, Note_off_c, 1, 69, 0
2, 11880, Note_on_c, 1, 48, 127
2, 11880, Note_on_c, 1, 69, 127
2, 11880, Note_on_c, 1, 75, 127
2, 11880, Note_on_c, 1, 78, 127
2, 11960, Note_off_c, 1, 69, 0
2, 11960, Note_off_c, 1, 75, 0
2, 12000, Note_off_c, 1, 48, 0
2, 12000, Note_off_c, 1, 78, 0
2, 12040, Note_on_c, 1, 48, 127
2, 12040, Note_on_c, 1, 69, 127
2, 12040, Note_on_c, 1, 75, 127
2, 12040, Note_on_c, 1, 78, 127
2, 12160, Note_off_c, 1, 48, 0
2, 12160, Note_off_c, 1, 69, 0
2, 12160, Note_off_c, 1, 75, 0
2, 12160, Note_off_c, 1, 78, 0
2, 12200, Note_on_c, 1, 48, 127
2, 12200, Note_on_c, 1, 69, 127
2, 12200, Note_on_c, 1, 75, 127
2, 12200, Note_on_c, 1, 78, 127
2, 12320, Note_off_c, 1, 48, 0
2, 12320, Note_off_c, 1, 69, 0
2, 12320, Note_off_c, 1, 75, 0
2, 12320, Note_off_c, 1, 78, 0
2, 12400, Note_on_c, 1, 48, 127
2, 12400, Note_on_c, 1, 72, 127
2, 12400, Note_on_c, 1, 75, 127
2, 12400, Note_on_c, 1, 79, 127
2, 12480, Note_off_c, 1, 48, 0
2, 12480, Note_off_c, 1, 72, 0
2, 12480, Note_off_c, 1, 75, 0
2, 12480, Note_off_c, 1, 79, 0
2, 12560, Note_on_c, 1, 48, 127
2, 12560, Note_on_c, 1, 72, 127
2, 12560, Note_on_c, 1, 75, 127
2, 12560, Note_on_c, 1, 79, 127
2, 12680, Note_off_c, 1, 48, 0
2, 12680, Note_off_c, 1, 72, 0
2, 12680, Note_off_c, 1, 75, 0
2, 12680, Note_off_c, 1, 79, 0
2, 12720, Note_on_c, 1, 48, 127
2, 12720, Note_on_c, 1, 72, 127
2, 12720, Note_on_c, 1, 75, 127
2, 12720, Note_on_c, 1, 79, 127
2, 12840, Note_off_c, 1, 48, 0
2, 12840, Note_off_c, 1, 72, 0
2, 12840, Note_off_c, 1, 75, 0
2, 12840, Note_off_c, 1, 79, 0
2, 12880, Note_on_c, 1, 48, 127
2, 12880, Note_on_c, 1, 72, 127
2, 12880, Note_on_c, 1, 75, 127
2, 12880, Note_on_c, 1, 79, 127
2, 13000, Note_off_c, 1, 48, 0
2, 13000, Note_off_c, 1, 72, 0
2, 13000, Note_off_c, 1, 75, 0
2, 13000, Note_off_c, 1, 79, 0
2, 13040, Note_on_c, 1, 48, 127
2, 13040, Note_on_c, 1, 77, 127
2, 13040, Note_on_c, 1, 83, 127
2, 13040, Note_on_c, 1, 91, 127
2, 13080, Note_off_c, 1, 48, 0
2, 13080, Note_on_c, 1, 67, 127
2, 13080, Note_off_c, 1, 77, 0
2, 13080, Note_on_c, 1, 78, 127
2, 13080, Note_on_c, 1, 79, 127
2, 13080, Note_off_c, 1, 91, 0
2, 13120, Note_on_c, 1, 62, 127
2, 13120, Note_off_c, 1, 67, 0
2, 13120, Note_on_c, 1, 77, 127
2, 13120, Note_off_c, 1, 78, 0
2, 13120, Note_off_c, 1, 79, 0
2, 13120, Note_on_c, 1, 91, 127
2, 13160, Note_off_c, 1, 62, 0
2, 13160, Note_off_c, 1, 77, 0
2, 13160, Note_off_c, 1, 83, 0
2, 13160, Note_off_c, 1, 91, 0
2, 13200, Note_on_c, 1, 57, 127
2, 13200, Note_on_c, 1, 65, 127
2, 13200, Note_on_c, 1, 69, 127
2, 13200, Note_on_c, 1, 76, 127
2, 13360, Note_off_c, 1, 57, 0
2, 13360, Note_off_c, 1, 65, 0
2, 13360, Note_off_c, 1, 69, 0
2, 13360, Note_off_c, 1, 76, 0
2, 13400, Note_on_c, 1, 62, 127
2, 13400, Note_on_c, 1, 65, 127
2, 13400, Note_on_c, 1, 69, 127
2, 13400, Note_on_c, 1, 74, 127
2, 13520, Note_off_c, 1, 62, 0
2, 13520, Note_off_c, 1, 65, 0
2, 13520, Note_off_c, 1, 69, 0
2, 13520, Note_off_c, 1, 74, 0
2, 13640, Note_on_c, 1, 62, 127
2, 13640, Note_on_c, 1, 65, 127
2, 13640, Note_on_c, 1, 69, 127
2, 13640, Note_on_c, 1, 74, 127
2, 13840, Note_off_c, 1, 62, 0
2, 13840, Note_off_c, 1, 65, 0
2, 13840, Note_off_c, 1, 69, 0
2, 13840, Note_off_c, 1, 74, 0
2, 13960, Note_on_c, 1, 64, 127
2, 13960, Note_on_c, 1, 67, 127
2, 13960, Note_on_c, 1, 72, 127
2, 14120, Note_on_c, 1, 52, 127
2, 14240, Note_off_c, 1, 52, 0
2, 14280, Note_off_c, 1, 72, 0
2, 14280, Note_on_c, 1, 74, 127
2, 14360, Note_off_c, 1, 64, 0
2, 14360, Note_off_c, 1, 67, 0
2, 14360, Note_off_c, 1, 74, 0
2, 14440, Note_on_c, 1, 67, 127
2, 14440, Note_on_c, 1, 71, 127
2, 14440, Note_on_c, 1, 74, 127
2, 14560, Note_off_c, 1, 67, 0
2, 14560, Note_off_c, 1, 71, 0
2, 14560, Note_off_c, 1, 74, 0
2, 14600, Note_on_c, 1, 67, 127
2, 14600, Note_on_c, 1, 72, 127
2, 14600, Note_on_c, 1, 76, 127
2, 14720, Note_off_c, 1, 67, 0
2, 14720, Note_off_c, 1, 72, 0
2, 14720, Note_off_c, 1, 76, 0
2, 14760, Note_on_c, 1, 67, 127
2, 14760, Note_on_c, 1, 72, 127
2, 14760, Note_on_c, 1, 76, 127
2, 14880, Note_off_c, 1, 67, 0
2, 14880, Note_off_c, 1, 72, 0
2, 14880, Note_off_c, 1, 76, 0
2, 14920, Note_on_c, 1, 67, 127
2, 14920, Note_on_c, 1, 72, 127
2, 14920, Note_on_c, 1, 76, 127
2, 15040, Note_off_c, 1, 67, 0
2, 15040, Note_off_c, 1, 72, 0
2, 15040, Note_off_c, 1, 76, 0
2, 15080, Note_on_c, 1, 67, 127
2, 15080, Note_on_c, 1, 74, 127
2, 15080, Note_on_c, 1, 77, 127
2, 15200, Note_off_c, 1, 74, 0
2, 15200, Note_off_c, 1, 77, 0
2, 15240, Note_off_c, 1, 67, 0
2, 15280, Note_on_c, 1, 67, 127
2, 15400, Note_off_c, 1, 67, 0
2, 15440, Note_on_c, 1, 67, 127
2, 15440, Note_on_c, 1, 72, 127
2, 15440, Note_on_c, 1, 76, 127
2, 15520, Note_off_c, 1, 67, 0
2, 15520, Note_off_c, 1, 72, 0
2, 15520, Note_off_c, 1, 76, 0
2, 15560, Note_on_c, 1, 67, 127
2, 15560, Note_on_c, 1, 72, 127
2, 15560, Note_on_c, 1, 76, 127
2, 15600, Note_off_c, 1, 67, 0
2, 15600, Note_off_c, 1, 72, 0
2, 15600, Note_off_c, 1, 76, 0
2, 15640, Note_on_c, 1, 68, 127
2, 15640, Note_on_c, 1, 74, 127
2, 15640, Note_on_c, 1, 76, 127
2, 15760, Note_off_c, 1, 68, 0
2, 15760, Note_off_c, 1, 74, 0
2, 15760, Note_off_c, 1, 76, 0
2, 15800, Note_on_c, 1, 67, 127
2, 15800, Note_on_c, 1, 72, 127
2, 15800, Note_on_c, 1, 76, 127
2, 15920, Note_off_c, 1, 67, 0
2, 15920, Note_off_c, 1, 72, 0
2, 15920, Note_off_c, 1, 76, 0
2, 15960, Note_on_c, 1, 72, 127
2, 15960, Note_on_c, 1, 75, 127
2, 15960, Note_on_c, 1, 79, 127
2, 16080, Note_off_c, 1, 72, 0
2, 16080, Note_off_c, 1, 75, 0
2, 16080, Note_off_c, 1, 79, 0
2, 16160, Note_on_c, 1, 48, 127
2, 16280, Note_off_c, 1, 48, 0
2, 16320, Note_on_c, 1, 64, 127
2, 16320, Note_on_c, 1, 71, 127
2, 16320, Note_on_c, 1, 74, 127
2, 16400, Note_off_c, 1, 64, 0
2, 16400, Note_off_c, 1, 71, 0
2, 16400, Note_off_c, 1, 74, 0
2, 16480, Note_on_c, 1, 70, 127
2, 16480, Note_on_c, 1, 73, 127
2, 16480, Note_on_c, 1, 79, 127
2, 16600, Note_off_c, 1, 70, 0
2, 16600, Note_off_c, 1, 73, 0
2, 16600, Note_off_c, 1, 79, 0
2, 16640, Note_on_c, 1, 67, 127
2, 16640, Note_on_c, 1, 74, 127
2, 16640, Note_on_c, 1, 77, 127
2, 16720, Note_off_c, 1, 74, 0
2, 16720, Note_off_c, 1, 77, 0
2, 16800, Note_on_c, 1, 72, 127
2, 16800, Note_on_c, 1, 75, 127
2, 16920, Note_off_c, 1, 72, 0
2, 16920, Note_off_c, 1, 75, 0
2, 16960, Note_on_c, 1, 72, 127
2, 16960, Note_on_c, 1, 76, 127
2, 17040, Note_off_c, 1, 76, 0
2, 17080, Note_off_c, 1, 67, 0
2, 17080, Note_off_c, 1, 72, 0
2, 17120, Note_on_c, 1, 67, 127
2, 17120, Note_on_c, 1, 71, 127
2, 17120, Note_on_c, 1, 74, 127
2, 17200, Note_off_c, 1, 67, 0
2, 17200, Note_off_c, 1, 71, 0
2, 17200, Note_off_c, 1, 74, 0
2, 17280, Note_on_c, 1, 67, 127
2, 17280, Note_on_c, 1, 71, 127
2, 17280, Note_on_c, 1, 74, 127
2, 17400, Note_off_c, 1, 67, 0
2, 17400, Note_off_c, 1, 71, 0
2, 17400, Note_off_c, 1, 74, 0
2, 17440, Note_on_c, 1, 67, 127
2, 17440, Note_on_c, 1, 72, 127
2, 17440, Note_on_c, 1, 76, 127
2, 17560, Note_off_c, 1, 67, 0
2, 17560, Note_off_c, 1, 72, 0
2, 17560, Note_off_c, 1, 76, 0
2, 17600, Note_on_c, 1, 67, 127
2, 17600, Note_on_c, 1, 72, 127
2, 17600, Note_on_c, 1, 75, 127
2, 17680, Note_off_c, 1, 67, 0
2, 17680, Note_off_c, 1, 72, 0
2, 17680, Note_off_c, 1, 75, 0
2, 17720, Note_on_c, 1, 67, 127
2, 17720, Note_on_c, 1, 72, 127
2, 17720, Note_on_c, 1, 75, 127
2, 17760, Note_off_c, 1, 72, 0
2, 17760, Note_off_c, 1, 75, 0
2, 17800, Note_on_c, 1, 72, 127
2, 17800, Note_on_c, 1, 75, 127
2, 17920, Note_off_c, 1, 75, 0
2, 17960, Note_on_c, 1, 75, 127
2, 18080, Note_off_c, 1, 72, 0
2, 18080, Note_off_c, 1, 75, 0
2, 18120, Note_off_c, 1, 67, 0
2, 18160, Note_on_c, 1, 67, 127
2, 18160, Note_on_c, 1, 71, 127
2, 18160, Note_on_c, 1, 74, 127
2, 18280, Note_off_c, 1, 67, 0
2, 18320, Note_on_c, 1, 65, 127
2, 18440, Note_off_c, 1, 65, 0
2, 18440, Note_off_c, 1, 71, 0
2, 18440, Note_off_c, 1, 74, 0
2, 18480, Note_on_c, 1, 67, 127
2, 18480, Note_on_c, 1, 71, 127
2, 18480, Note_on_c, 1, 74, 127
2, 18600, Note_off_c, 1, 67, 0
2, 18600, Note_off_c, 1, 71, 0
2, 18600, Note_off_c, 1, 74, 0
2, 18640, Note_on_c, 1, 67, 127
2, 18640, Note_on_c, 1, 72, 127
2, 18640, Note_on_c, 1, 76, 127
2, 18760, Note_off_c, 1, 67, 0
2, 18760, Note_off_c, 1, 72, 0
2, 18760, Note_off_c, 1, 76, 0
2, 18840, Note_on_c, 1, 59, 127
2, 18840, Note_on_c, 1, 74, 127
2, 18840, Note_on_c, 1, 77, 127
2, 18960, Note_off_c, 1, 59, 0
2, 19000, Note_on_c, 1, 59, 127
2, 19000, Note_on_c, 1, 67, 127
2, 19120, Note_off_c, 1, 59, 0
2, 19120, Note_off_c, 1, 67, 0
2, 19120, Note_off_c, 1, 74, 0
2, 19120, Note_off_c, 1, 77, 0
2, 19160, Note_on_c, 1, 60, 127
2, 19160, Note_on_c, 1, 72, 127
2, 19160, Note_on_c, 1, 75, 127
2, 19280, Note_off_c, 1, 60, 0
2, 19280, Note_off_c, 1, 72, 0
2, 19280, Note_off_c, 1, 75, 0
2, 19360, Note_on_c, 1, 65, 127
2, 19520, Note_on_c, 1, 69, 127
2, 19520, Note_on_c, 1, 72, 127
2, 19520, Note_on_c, 1, 77, 127
2, 19600, Note_off_c, 1, 65, 0
2, 19600, Note_off_c, 1, 69, 0
2, 19600, Note_off_c, 1, 72, 0
2, 19600, Note_off_c, 1, 77, 0
2, 19640, Note_on_c, 1, 65, 127
2, 19640, Note_on_c, 1, 69, 127
2, 19640, Note_on_c, 1, 72, 127
2, 19640, Note_on_c, 1, 77, 127
2, 19680, Note_off_c, 1, 65, 0
2, 19680, Note_off_c, 1, 69, 0
2, 19720, Note_on_c, 1, 65, 127
2, 19840, Note_off_c, 1, 65, 0
2, 19840, Note_off_c, 1, 77, 0
2, 19880, Note_on_c, 1, 69, 127
2, 19880, Note_off_c, 1, 72, 0
2, 19880, Note_on_c, 1, 75, 127
2, 19880, Note_on_c, 1, 78, 127
2, 20240, Note_on_c, 1, 62, 127
2, 20240, Note_on_c, 1, 74, 127
2, 20240, Note_off_c, 1, 75, 0
2, 20240, Note_on_c, 1, 77, 127
2, 20240, Note_off_c, 1, 78, 0
2, 20360, Note_off_c, 1, 62, 0
2, 20360, Note_off_c, 1, 69, 0
2, 20360, Note_off_c, 1, 77, 0
2, 20360, Note_on_c, 1, 79, 127
2, 20400, Note_on_c, 1, 69, 127
2, 20400, Note_on_c, 1, 70, 127
2, 20400, Note_on_c, 1, 77, 127
2, 20400, Note_off_c, 1, 79, 0
2, 20520, Note_off_c, 1, 69, 0
2, 20520, Note_off_c, 1, 70, 0
2, 20520, Note_off_c, 1, 74, 0
2, 20520, Note_off_c, 1, 77, 0
2, 20560, Note_on_c, 1, 68, 127
2, 20560, Note_on_c, 1, 71, 127
2, 20560, Note_on_c, 1, 74, 127
2, 20680, Note_off_c, 1, 68, 0
2, 20680, Note_off_c, 1, 71, 0
2, 20680, Note_off_c, 1, 74, 0
2, 20720, Note_on_c, 1, 67, 127
2, 20720, Note_on_c, 1, 70, 127
2, 20720, Note_on_c, 1, 75, 127
2, 20840, Note_off_c, 1, 67, 0
2, 20840, Note_off_c, 1, 70, 0
2, 20840, Note_off_c, 1, 75, 0
2, 20920, Note_on_c, 1, 65, 127
2, 20920, Note_on_c, 1, 69, 127
2, 21080, Note_on_c, 1, 50, 127
2, 21200, Note_off_c, 1, 50, 0
2, 21240, Note_on_c, 1, 50, 127
2, 21360, Note_off_c, 1, 50, 0
2, 21400, Note_on_c, 1, 50, 127
2, 21520, Note_off_c, 1, 50, 0
2, 21520, Note_off_c, 1, 65, 0
2, 21520, Note_off_c, 1, 69, 0
2, 21560, Note_on_c, 1, 50, 127
2, 21560, Note_on_c, 1, 65, 127
2, 21560, Note_on_c, 1, 69, 127
2, 21680, Note_off_c, 1, 50, 0
2, 21680, Note_off_c, 1, 65, 0
2, 21680, Note_off_c, 1, 69, 0
2, 21720, Note_on_c, 1, 50, 127
2, 21720, Note_on_c, 1, 65, 127
2, 21720, Note_on_c, 1, 69, 127
2, 21760, Note_off_c, 1, 50, 0
2, 21800, Note_on_c, 1, 50, 127
2, 21920, Note_off_c, 1, 50, 0
2, 21920, Note_off_c, 1, 69, 0
2, 21960, Note_on_c, 1, 55, 127
2, 21960, Note_on_c, 1, 71, 127
2, 22000, Note_off_c, 1, 55, 0
2, 22120, Note_on_c, 1, 56, 127
2, 22120, Note_off_c, 1, 65, 0
2, 22120, Note_on_c, 1, 66, 127
2, 22240, Note_off_c, 1, 56, 0
2, 22240, Note_on_c, 1, 65, 127
2, 22240, Note_off_c, 1, 66, 0
2, 22400, Note_off_c, 1, 71, 0
2, 22440, Note_on_c, 1, 69, 127
2, 22560, Note_off_c, 1, 65, 0
2, 22560, Note_off_c, 1, 69, 0
2, 22640, Note_on_c, 1, 67, 127
2, 22800, Note_on_c, 1, 48, 127
2, 22920, Note_off_c, 1, 48, 0
2, 22960, Note_on_c, 1, 48, 127
2, 23080, Note_off_c, 1, 48, 0
2, 23120, Note_on_c, 1, 55, 127
2, 23240, Note_off_c, 1, 55, 0
2, 23280, Note_on_c, 1, 70, 127
2, 23400, Note_off_c, 1, 70, 0
2, 23440, Note_off_c, 1, 67, 0
2, 23480, Note_on_c, 1, 64, 127
2, 23640, Note_off_c, 1, 64, 0
2, 23680, Note_on_c, 1, 64, 127
2, 23680, Note_on_c, 1, 67, 127
2, 23760, Note_off_c, 1, 67, 0
2, 23840, Note_on_c, 1, 60, 127
2, 23960, Note_off_c, 1, 60, 0
2, 24000, Note_on_c, 1, 67, 127
2, 24120, Note_off_c, 1, 67, 0
2, 24160, Note_on_c, 1, 71, 127
2, 24280, Note_off_c, 1, 71, 0
2, 24320, Note_on_c, 1, 67, 127
2, 24480, Note_off_c, 1, 64, 0
2, 24480, Note_off_c, 1, 67, 0
2, 24520, Note_on_c, 1, 64, 127
2, 24680, Note_on_c, 1, 67, 127
2, 24840, Note_off_c, 1, 67, 0
2, 24880, Note_on_c, 1, 72, 127
2, 25000, Note_off_c, 1, 72, 0
2, 25040, Note_on_c, 1, 76, 127
2, 25160, Note_off_c, 1, 64, 0
2, 25160, Note_off_c, 1, 76, 0
2, 25200, Note_on_c, 1, 55, 127
2, 25360, Note_on_c, 1, 60, 127
2, 25480, Note_off_c, 1, 60, 0
2, 25520, Note_on_c, 1, 64, 127
2, 25600, Note_off_c, 1, 64, 0
2, 25800, Note_off_c, 1, 55, 0
2, 25880, Note_on_c, 1, 58, 127
2, 26160, Note_off_c, 1, 58, 0
2, 26200, Note_on_c, 1, 58, 127
2, 26280, Note_on_c, 1, 64, 127
2, 26280, Note_on_c, 1, 67, 127
2, 26560, Note_off_c, 1, 58, 0
2, 26560, Note_on_c, 1, 66, 127
2, 26560, Note_off_c, 1, 67, 0
2, 26600, Note_on_c, 1, 59, 127
2, 26600, Note_off_c, 1, 66, 0
2, 26600, Note_on_c, 1, 67, 127
2, 26880, Note_off_c, 1, 59, 0
2, 26960, Note_off_c, 1, 64, 0
2, 26960, Note_off_c, 1, 67, 0
2, 26960, Note_on_c, 1, 72, 127
2, 26960, Note_on_c, 1, 76, 127
2, 26960, Note_on_c, 1, 79, 127
2, 27080, Note_off_c, 1, 76, 0
2, 27080, Note_off_c, 1, 79, 0
2, 27120, Note_on_c, 1, 81, 127
2, 27240, Note_off_c, 1, 72, 0
2, 27240, Note_off_c, 1, 81, 0
2, 27280, Note_on_c, 1, 72, 127
2, 27280, Note_on_c, 1, 76, 127
2, 27280, Note_on_c, 1, 79, 127
2, 27720, Note_off_c, 1, 72, 0
2, 27720, Note_off_c, 1, 76, 0
2, 27720, Note_off_c, 1, 79, 0
2, 27760, Note_on_c, 1, 72, 127
2, 27760, Note_on_c, 1, 76, 127
2, 27760, Note_on_c, 1, 79, 127
2, 28080, Note_off_c, 1, 72, 0
2, 28080, Note_off_c, 1, 76, 0
2, 28080, Note_off_c, 1, 79, 0
2, 28120, Note_on_c, 1, 72, 127
2, 28120, Note_on_c, 1, 76, 127
2, 28120, Note_on_c, 1, 79, 127
2, 28440, Note_on_c, 1, 82, 127
2, 28520, Note_off_c, 1, 72, 0
2, 28520, Note_off_c, 1, 76, 0
2, 28520, Note_off_c, 1, 79, 0
2, 28520, Note_off_c, 1, 82, 0
2, 28560, Note_on_c, 1, 72, 127
2, 28560, Note_on_c, 1, 76, 127
2, 28560, Note_on_c, 1, 79, 127
2, 28800, Note_off_c, 1, 72, 0
2, 28800, Note_off_c, 1, 76, 0
2, 28800, Note_off_c, 1, 79, 0
2, 28840, Note_on_c, 1, 72, 127
2, 28840, Note_on_c, 1, 76, 127
2, 28840, Note_on_c, 1, 79, 127
2, 29120, Note_on_c, 1, 48, 127
2, 29120, Note_on_c, 1, 55, 127
2, 29120, Note_off_c, 1, 72, 0
2, 29120, Note_off_c, 1, 76, 0
2, 29120, Note_off_c, 1, 79, 0
2, 29160, Note_off_c, 1, 48, 0
2, 29160, Note_off_c, 1, 55, 0
2, 29160, Note_on_c, 1, 71, 127
2, 29160, Note_on_c, 1, 74, 127
2, 29160, Note_on_c, 1, 77, 127
2, 29160, Note_on_c, 1, 79, 127
2, 29280, Note_off_c, 1, 71, 0
2, 29280, Note_off_c, 1, 74, 0
2, 29280, Note_off_c, 1, 77, 0
2, 29280, Note_off_c, 1, 79, 0
2, 29320, Note_on_c, 1, 71, 127
2, 29320, Note_on_c, 1, 74, 127
2, 29320, Note_on_c, 1, 77, 127
2, 29320, Note_on_c, 1, 79, 127
2, 29440, Note_off_c, 1, 71, 0
2, 29440, Note_off_c, 1, 74, 0
2, 29440, Note_off_c, 1, 77, 0
2, 29440, Note_off_c, 1, 79, 0
2, 29480, Note_on_c, 1, 69, 127
2, 29480, Note_on_c, 1, 72, 127
2, 29480, Note_on_c, 1, 77, 127
2, 29600, Note_off_c, 1, 69, 0
2, 29600, Note_off_c, 1, 72, 0
2, 29600, Note_off_c, 1, 77, 0
2, 29640, Note_on_c, 1, 67, 127
2, 29640, Note_on_c, 1, 72, 127
2, 29640, Note_on_c, 1, 76, 127
2, 29800, Note_off_c, 1, 67, 0
2, 29800, Note_off_c, 1, 72, 0
2, 29800, Note_off_c, 1, 76, 0
2, 29840, Note_on_c, 1, 70, 127
2, 29840, Note_on_c, 1, 74, 127
2, 29840, Note_on_c, 1, 79, 127
2, 29960, Note_off_c, 1, 70, 0
2, 29960, Note_off_c, 1, 74, 0
2, 29960, Note_off_c, 1, 79, 0
2, 30000, Note_on_c, 1, 67, 127
2, 30000, Note_on_c, 1, 74, 127
2, 30000, Note_on_c, 1, 77, 127
2, 30120, Note_off_c, 1, 67, 0
2, 30120, Note_off_c, 1, 74, 0
2, 30120, Note_off_c, 1, 77, 0
2, 30160, Note_on_c, 1, 69, 127
2, 30160, Note_on_c, 1, 74, 127
2, 30160, Note_on_c, 1, 77, 127
2, 30280, Note_off_c, 1, 69, 0
2, 30280, Note_off_c, 1, 74, 0
2, 30280, Note_off_c, 1, 77, 0
2, 30320, Note_on_c, 1, 71, 127
2, 30320, Note_on_c, 1, 74, 127
2, 30320, Note_on_c, 1, 79, 127
2, 30440, Note_off_c, 1, 71, 0
2, 30440, Note_off_c, 1, 74, 0
2, 30440, Note_off_c, 1, 79, 0
2, 30480, Note_on_c, 1, 67, 127
2, 30480, Note_on_c, 1, 72, 127
2, 30480, Note_on_c, 1, 76, 127
2, 30600, Note_off_c, 1, 76, 0
2, 30640, Note_off_c, 1, 67, 0
2, 30640, Note_off_c, 1, 72, 0
2, 30680, Note_on_c, 1, 67, 127
2, 30680, Note_on_c, 1, 72, 127
2, 30680, Note_on_c, 1, 76, 127
2, 30800, Note_off_c, 1, 67, 0
2, 30800, Note_off_c, 1, 72, 0
2, 30800, Note_off_c, 1, 76, 0
2, 30840, Note_on_c, 1, 67, 127
2, 30840, Note_on_c, 1, 74, 127
2, 30840, Note_on_c, 1, 77, 127
2, 31000, Note_off_c, 1, 74, 0
2, 31000, Note_off_c, 1, 77, 0
2, 31040, Note_on_c, 1, 60, 127
2, 31040, Note_on_c, 1, 75, 127
2, 31160, Note_off_c, 1, 60, 0
2, 31160, Note_off_c, 1, 67, 0
2, 31160, Note_off_c, 1, 75, 0
2, 31200, Note_on_c, 1, 55, 127
2, 31200, Note_on_c, 1, 71, 127
2, 31200, Note_on_c, 1, 74, 127
2, 31320, Note_off_c, 1, 55, 0
2, 31360, Note_on_c, 1, 60, 127
2, 31480, Note_off_c, 1, 60, 0
2, 31480, Note_off_c, 1, 71, 0
2, 31480, Note_off_c, 1, 74, 0
2, 31520, Note_on_c, 1, 55, 127
2, 31520, Note_on_c, 1, 72, 127
2, 31520, Note_on_c, 1, 76, 127
2, 31640, Note_off_c, 1, 72, 0
2, 31640, Note_off_c, 1, 76, 0
2, 31680, Note_on_c, 1, 71, 127
2, 31680, Note_on_c, 1, 76, 127
2, 31800, Note_off_c, 1, 55, 0
2, 31800, Note_off_c, 1, 71, 0
2, 31800, Note_off_c, 1, 76, 0
2, 31840, Note_on_c, 1, 47, 127
2, 31840, Note_on_c, 1, 71, 127
2, 31840, Note_on_c, 1, 74, 127
2, 31960, Note_off_c, 1, 71, 0
2, 31960, Note_off_c, 1, 74, 0
2, 32040, Note_on_c, 1, 64, 127
2, 32040, Note_on_c, 1, 67, 127
2, 32120, Note_off_c, 1, 64, 0
2, 32120, Note_off_c, 1, 67, 0
2, 32160, Note_off_c, 1, 47, 0
2, 32200, Note_on_c, 1, 52, 127
2, 32200, Note_on_c, 1, 67, 127
2, 32200, Note_on_c, 1, 71, 127
2, 32320, Note_off_c, 1, 52, 0
2, 32360, Note_on_c, 1, 43, 127
2, 32680, Note_off_c, 1, 43, 0
2, 32680, Note_off_c, 1, 67, 0
2, 32680, Note_off_c, 1, 71, 0
2, 32760, Note_on_c, 1, 57, 127
2, 32760, Note_on_c, 1, 60, 127
2, 32760, Note_on_c, 1, 69, 127
2, 32760, Note_on_c, 1, 72, 127
2, 33040, Note_off_c, 1, 57, 0
2, 33040, Note_off_c, 1, 60, 0
2, 33040, Note_off_c, 1, 69, 0
2, 33040, Note_off_c, 1, 72, 0
2, 33080, Note_on_c, 1, 43, 127
2, 33080, Note_on_c, 1, 67, 127
2, 33080, Note_on_c, 1, 71, 127
2, 33200, Note_off_c, 1, 43, 0
2, 33240, Note_on_c, 1, 50, 127
2, 33360, Note_off_c, 1, 50, 0
2, 33400, Note_on_c, 1, 43, 127
2, 33560, Note_on_c, 1, 50, 127
2, 33680, Note_off_c, 1, 67, 0
2, 33680, Note_off_c, 1, 71, 0
2, 33720, Note_off_c, 1, 43, 0
2, 33720, Note_off_c, 1, 50, 0
2, 33760, Note_on_c, 1, 71, 127
2, 33760, Note_on_c, 1, 74, 127
2, 33760, Note_on_c, 1, 79, 127
2, 33920, Note_on_c, 1, 67, 127
2, 33920, Note_on_c, 1, 70, 127
2, 33920, Note_off_c, 1, 71, 0
2, 33920, Note_off_c, 1, 79, 0
2, 33920, Note_on_c, 1, 81, 127
2, 34040, Note_off_c, 1, 67, 0
2, 34040, Note_off_c, 1, 70, 0
2, 34040, Note_on_c, 1, 71, 127
2, 34040, Note_on_c, 1, 79, 127
2, 34040, Note_off_c, 1, 81, 0
2, 34080, Note_on_c, 1, 69, 127
2, 34080, Note_off_c, 1, 71, 0
2, 34080, Note_on_c, 1, 72, 127
2, 34080, Note_off_c, 1, 74, 0
2, 34080, Note_on_c, 1, 76, 127
2, 34080, Note_off_c, 1, 79, 0
2, 34080, Note_on_c, 1, 88, 127
2, 34200, Note_on_c, 1, 65, 127
2, 34200, Note_off_c, 1, 72, 0
2, 34200, Note_off_c, 1, 76, 0
2, 34200, Note_off_c, 1, 88, 0
2, 34240, Note_off_c, 1, 65, 0
2, 34240, Note_off_c, 1, 69, 0
2, 34240, Note_on_c, 1, 71, 127
2, 34240, Note_on_c, 1, 74, 127
2, 34240, Note_on_c, 1, 81, 127
2, 34400, Note_off_c, 1, 71, 0
2, 34400, Note_off_c, 1, 74, 0
2, 34400, Note_off_c, 1, 81, 0
2, 34440, Note_on_c, 1, 71, 127
2, 34440, Note_on_c, 1, 74, 127
2, 34440, Note_on_c, 1, 79, 127
2, 34600, Note_on_c, 1, 43, 127
2, 34600, Note_on_c, 1, 50, 127
2, 34600, Note_on_c, 1, 59, 127
2, 34600, Note_on_c, 1, 62, 127
2, 34600, Note_on_c, 1, 67, 127
2, 34600, Note_off_c, 1, 71, 0
2, 34600, Note_off_c, 1, 74, 0
2, 34600, Note_off_c, 1, 79, 0
2, 34720, Note_off_c, 1, 43, 0
2, 34720, Note_off_c, 1, 50, 0
2, 34720, Note_off_c, 1, 59, 0
2, 34720, Note_off_c, 1, 62, 0
2, 34720, Note_off_c, 1, 67, 0
2, 34840, Note_on_c, 1, 45, 127
2, 34840, Note_on_c, 1, 57, 127
2, 34840, Note_on_c, 1, 73, 127
2, 34840, Note_on_c, 1, 79, 127
2, 35000, Note_off_c, 1, 45, 0
2, 35000, Note_on_c, 1, 50, 127
2, 35000, Note_off_c, 1, 73, 0
2, 35000, Note_on_c, 1, 74, 127
2, 35000, Note_on_c, 1, 78, 127
2, 35000, Note_off_c, 1, 79, 0
2, 35120, Note_off_c, 1, 50, 0
2, 35120, Note_off_c, 1, 74, 0
2, 35120, Note_off_c, 1, 78, 0
2, 35160, Note_on_c, 1, 50, 127
2, 35160, Note_on_c, 1, 74, 127
2, 35160, Note_on_c, 1, 78, 127
2, 35400, Note_off_c, 1, 74, 0
2, 35400, Note_off_c, 1, 78, 0
2, 35440, Note_on_c, 1, 55, 127
2, 35440, Note_off_c, 1, 57, 0
2, 35440, Note_on_c, 1, 59, 127
2, 35440, Note_on_c, 1, 62, 127
2, 35640, Note_off_c, 1, 50, 0
2, 35640, Note_off_c, 1, 55, 0
2, 35640, Note_off_c, 1, 62, 0
2, 35680, Note_on_c, 1, 50, 127
2, 35680, Note_off_c, 1, 59, 0
2, 35680, Note_on_c, 1, 60, 127
2, 35680, Note_on_c, 1, 69, 127
2, 35800, Note_off_c, 1, 50, 0
2, 35800, Note_off_c, 1, 60, 0
2, 35800, Note_off_c, 1, 69, 0
2, 35840, Note_on_c, 1, 55, 127
2, 35840, Note_on_c, 1, 60, 127
2, 35840, Note_on_c, 1, 69, 127
2, 36120, Note_off_c, 1, 55, 0
2, 36120, Note_off_c, 1, 60, 0
2, 36120, Note_off_c, 1, 69, 0
2, 36160, Note_on_c, 1, 62, 127
2, 36160, Note_on_c, 1, 72, 127
2, 36160, Note_on_c, 1, 81, 127
2, 36360, Note_on_c, 1, 79, 127
2, 36360, Note_off_c, 1, 81, 0
2, 36480, Note_off_c, 1, 62, 0
2, 36480, Note_off_c, 1, 72, 0
2, 36480, Note_off_c, 1, 79, 0
2, 36520, Note_on_c, 1, 55, 127
2, 36520, Note_on_c, 1, 71, 127
2, 36520, Note_on_c, 1, 79, 127
2, 36840, Note_off_c, 1, 55, 0
2, 36840, Note_off_c, 1, 71, 0
2, 36840, Note_off_c, 1, 79, 0
2, 36880, Note_on_c, 1, 55, 127
2, 36880, Note_on_c, 1, 71, 127
2, 36880, Note_on_c, 1, 79, 127
2, 36920, Note_on_c, 1, 65, 127
2, 37520, Note_off_c, 1, 55, 0
2, 37520, Note_off_c, 1, 65, 0
2, 37520, Note_off_c, 1, 71, 0
2, 37520, Note_off_c, 1, 79, 0
2, 37560, Note_on_c, 1, 55, 127
2, 37560, Note_on_c, 1, 67, 127
2, 37560, Note_on_c, 1, 71, 127
2, 37560, Note_on_c, 1, 76, 127
2, 37840, Note_off_c, 1, 67, 0
2, 37840, Note_off_c, 1, 71, 0
2, 37840, Note_off_c, 1, 76, 0
2, 37880, Note_off_c, 1, 55, 0
2, 37880, Note_on_c, 1, 59, 127
2, 37880, Note_on_c, 1, 67, 127
2, 37880, Note_on_c, 1, 74, 127
2, 37880, Note_on_c, 1, 79, 127
2, 38160, Note_off_c, 1, 67, 0
2, 38160, Note_off_c, 1, 74, 0
2, 38160, Note_off_c, 1, 79, 0
2, 38200, Note_on_c, 1, 47, 127
2, 38200, Note_off_c, 1, 59, 0
2, 38200, Note_on_c, 1, 67, 127
2, 38200, Note_on_c, 1, 71, 127
2, 38200, Note_on_c, 1, 76, 127
2, 38520, Note_off_c, 1, 47, 0
2, 38520, Note_off_c, 1, 67, 0
2, 38520, Note_off_c, 1, 71, 0
2, 38520, Note_off_c, 1, 76, 0
2, 38560, Note_on_c, 1, 59, 127
2, 38560, Note_on_c, 1, 67, 127
2, 38560, Note_on_c, 1, 71, 127
2, 38560, Note_on_c, 1, 76, 127
2, 38680, Note_off_c, 1, 76, 0
2, 38720, Note_on_c, 1, 76, 127
2, 38840, Note_off_c, 1, 59, 0
2, 38840, Note_off_c, 1, 67, 0
2, 38840, Note_off_c, 1, 71, 0
2, 38840, Note_off_c, 1, 76, 0
2, 38880, Note_on_c, 1, 59, 127
2, 38880, Note_on_c, 1, 65, 127
2, 38880, Note_on_c, 1, 74, 127
2, 38880, Note_on_c, 1, 80, 127
2, 39080, Note_off_c, 1, 59, 0
2, 39080, Note_off_c, 1, 65, 0
2, 39080, Note_off_c, 1, 74, 0
2, 39080, Note_off_c, 1, 80, 0
2, 39120, Note_on_c, 1, 59, 127
2, 39120, Note_on_c, 1, 65, 127
2, 39120, Note_on_c, 1, 74, 127
2, 39120, Note_on_c, 1, 80, 127
2, 39240, Note_on_c, 1, 62, 127
2, 39240, Note_off_c, 1, 65, 0
2, 39240, Note_on_c, 1, 71, 127
2, 39240, Note_off_c, 1, 80, 0
2, 39280, Note_off_c, 1, 62, 0
2, 39280, Note_on_c, 1, 66, 127
2, 39560, Note_off_c, 1, 66, 0
2, 39560, Note_off_c, 1, 71, 0
2, 39560, Note_off_c, 1, 74, 0
2, 39600, Note_on_c, 1, 66, 127
2, 39600, Note_on_c, 1, 71, 127
2, 39600, Note_on_c, 1, 74, 127
2, 39920, Note_off_c, 1, 59, 0
2, 39920, Note_off_c, 1, 66, 0
2, 39920, Note_off_c, 1, 71, 0
2, 39920, Note_off_c, 1, 74, 0
2, 39960, Note_on_c, 1, 59, 127
2, 39960, Note_on_c, 1, 66, 127
2, 39960, Note_on_c, 1, 74, 127
2, 40400, Note_off_c, 1, 59, 0
2, 40400, Note_on_c, 1, 65, 127
2, 40400, Note_off_c, 1, 66, 0
2, 40400, Note_on_c, 1, 67, 127
2, 40560, Note_off_c, 1, 65, 0
2, 40560, Note_off_c, 1, 67, 0
2, 40560, Note_off_c, 1, 74, 0
2, 40600, Note_on_c, 1, 57, 127
2, 40600, Note_on_c, 1, 60, 127
2, 40600, Note_on_c, 1, 64, 127
2, 40600, Note_on_c, 1, 72, 127
2, 41160, Note_off_c, 1, 57, 0
2, 41160, Note_off_c, 1, 60, 0
2, 41160, Note_off_c, 1, 64, 0
2, 41160, Note_off_c, 1, 72, 0
2, 41200, Note_on_c, 1, 57, 127
2, 41200, Note_on_c, 1, 60, 127
2, 41200, Note_on_c, 1, 64, 127
2, 41200, Note_on_c, 1, 72, 127
2, 41280, Note_off_c, 1, 57, 0
2, 41280, Note_off_c, 1, 60, 0
2, 41280, Note_off_c, 1, 72, 0
2, 41320, Note_on_c, 1, 52, 127
2, 41320, Note_on_c, 1, 59, 127
2, 41320, Note_on_c, 1, 68, 127
2, 41320, Note_on_c, 1, 71, 127
2, 41600, Note_off_c, 1, 52, 0
2, 41600, Note_off_c, 1, 59, 0
2, 41600, Note_off_c, 1, 64, 0
2, 41600, Note_off_c, 1, 68, 0
2, 41600, Note_off_c, 1, 71, 0
2, 41640, Note_on_c, 1, 46, 127
2, 41640, Note_on_c, 1, 74, 127
2, 41640, Note_on_c, 1, 76, 127
2, 41960, Note_off_c, 1, 76, 0
2, 42000, Note_on_c, 1, 45, 127
2, 42000, Note_off_c, 1, 46, 0
2, 42000, Note_on_c, 1, 77, 127
2, 42280, Note_off_c, 1, 45, 0
2, 42280, Note_off_c, 1, 77, 0
2, 42320, Note_on_c, 1, 45, 127
2, 42320, Note_on_c, 1, 77, 127
2, 42640, Note_off_c, 1, 45, 0
2, 42680, Note_on_c, 1, 45, 127
2, 42960, Note_off_c, 1, 45, 0
2, 42960, Note_off_c, 1, 77, 0
2, 43000, Note_on_c, 1, 57, 127
2, 43000, Note_on_c, 1, 60, 127
2, 43000, Note_on_c, 1, 65, 127
2, 43000, Note_off_c, 1, 74, 0
2, 43000, Note_on_c, 1, 76, 127
2, 43120, Note_off_c, 1, 57, 0
2, 43120, Note_off_c, 1, 60, 0
2, 43120, Note_off_c, 1, 65, 0
2, 43120, Note_off_c, 1, 76, 0
2, 43160, Note_on_c, 1, 57, 127
2, 43160, Note_on_c, 1, 60, 127
2, 43160, Note_on_c, 1, 65, 127
2, 43160, Note_on_c, 1, 76, 127
2, 43320, Note_off_c, 1, 57, 0
2, 43320, Note_off_c, 1, 60, 0
2, 43320, Note_off_c, 1, 65, 0
2, 43320, Note_on_c, 1, 75, 127
2, 43320, Note_off_c, 1, 76, 0
2, 43360, Note_on_c, 1, 58, 127
2, 43360, Note_on_c, 1, 72, 127
2, 43360, Note_off_c, 1, 75, 0
2, 43360, Note_on_c, 1, 76, 127
2, 43680, Note_off_c, 1, 58, 0
2, 43680, Note_off_c, 1, 76, 0
2, 43720, Note_on_c, 1, 58, 127
2, 43720, Note_on_c, 1, 76, 127
2, 44000, Note_off_c, 1, 58, 0
2, 44000, Note_off_c, 1, 72, 0
2, 44000, Note_off_c, 1, 76, 0
2, 44040, Note_on_c, 1, 60, 127
2, 44040, Note_on_c, 1, 72, 127
2, 44040, Note_on_c, 1, 76, 127
2, 44360, Note_off_c, 1, 60, 0
2, 44360, Note_off_c, 1, 72, 0
2, 44400, Note_on_c, 1, 62, 127
2, 44400, Note_on_c, 1, 65, 127
2, 44400, Note_on_c, 1, 72, 127
2, 44680, Note_off_c, 1, 62, 0
2, 44680, Note_off_c, 1, 65, 0
2, 44680, Note_off_c, 1, 72, 0
2, 44680, Note_off_c, 1, 76, 0
2, 44720, Note_on_c, 1, 48, 127
2, 44720, Note_on_c, 1, 58, 127
2, 44720, Note_on_c, 1, 64, 127
2, 44720, Note_on_c, 1, 65, 127
2, 44720, Note_on_c, 1, 72, 127
2, 45040, Note_off_c, 1, 48, 0
2, 45040, Note_on_c, 1, 50, 127
2, 45040, Note_off_c, 1, 58, 0
2, 45040, Note_off_c, 1, 64, 0
2, 45040, Note_off_c, 1, 65, 0
2, 45040, Note_off_c, 1, 72, 0
2, 45040, Note_on_c, 1, 77, 127
2, 45080, Note_on_c, 1, 57, 127
2, 45080, Note_on_c, 1, 65, 127
2, 45080, Note_on_c, 1, 74, 127
2, 45080, Note_off_c, 1, 77, 0
2, 45200, Note_off_c, 1, 50, 0
2, 45200, Note_off_c, 1, 57, 0
2, 45200, Note_off_c, 1, 65, 0
2, 45200, Note_off_c, 1, 74, 0
2, 45240, Note_on_c, 1, 50, 127
2, 45240, Note_on_c, 1, 57, 127
2, 45240, Note_on_c, 1, 65, 127
2, 45240, Note_on_c, 1, 74, 127
2, 45400, Note_off_c, 1, 50, 0
2, 45400, Note_off_c, 1, 57, 0
2, 45400, Note_off_c, 1, 65, 0
2, 45400, Note_off_c, 1, 74, 0
2, 45440, Note_on_c, 1, 48, 127
2, 45440, Note_on_c, 1, 67, 127
2, 45720, Note_off_c, 1, 67, 0
2, 45760, Note_on_c, 1, 67, 127
2, 46080, Note_off_c, 1, 48, 0
2, 46080, Note_off_c, 1, 67, 0
2, 46120, Note_on_c, 1, 50, 127
2, 46120, Note_on_c, 1, 60, 127
2, 46120, Note_on_c, 1, 66, 127
2, 46120, Note_on_c, 1, 81, 127
2, 46320, Note_off_c, 1, 81, 0
2, 46360, Note_on_c, 1, 78, 127
2, 46400, Note_off_c, 1, 78, 0
2, 46440, Note_on_c, 1, 74, 127
2, 46480, Note_off_c, 1, 74, 0
2, 46520, Note_on_c, 1, 72, 127
2, 46560, Note_off_c, 1, 72, 0
2, 46600, Note_on_c, 1, 78, 127
2, 46640, Note_off_c, 1, 78, 0
2, 46680, Note_on_c, 1, 74, 127
2, 46720, Note_off_c, 1, 74, 0
2, 46760, Note_on_c, 1, 75, 127
2, 46800, Note_off_c, 1, 75, 0
2, 46840, Note_on_c, 1, 75, 127
2, 46880, Note_off_c, 1, 75, 0
2, 46920, Note_on_c, 1, 75, 127
2, 46960, Note_off_c, 1, 75, 0
2, 47000, Note_on_c, 1, 76, 127
2, 47040, Note_off_c, 1, 76, 0
2, 47080, Note_off_c, 1, 50, 0
2, 47080, Note_off_c, 1, 60, 0
2, 47080, Note_off_c, 1, 66, 0
2, 47120, Note_on_c, 1, 43, 127
2, 47120, Note_on_c, 1, 50, 127
2, 47120, Note_on_c, 1, 59, 127
2, 47120, Note_on_c, 1, 65, 127
2, 47120, Note_on_c, 1, 77, 127
2, 47320, Note_off_c, 1, 77, 0
2, 47360, Note_off_c, 1, 43, 0
2, 47360, Note_off_c, 1, 50, 0
2, 47360, Note_off_c, 1, 59, 0
2, 47360, Note_off_c, 1, 65, 0
2, 47400, Note_on_c, 1, 43, 127
2, 47400, Note_on_c, 1, 50, 127
2, 47400, Note_on_c, 1, 59, 127
2, 47400, Note_on_c, 1, 65, 127
2, 47400, Note_on_c, 1, 77, 127
2, 47440, Note_off_c, 1, 77, 0
2, 47480, Note_on_c, 1, 74, 127
2, 47560, Note_off_c, 1, 74, 0
2, 47600, Note_on_c, 1, 71, 127
2, 47720, Note_off_c, 1, 43, 0
2, 47720, Note_off_c, 1, 50, 0
2, 47720, Note_off_c, 1, 59, 0
2, 47720, Note_off_c, 1, 65, 0
2, 47720, Note_on_c, 1, 67, 127
2, 47720, Note_off_c, 1, 71, 0
2, 47760, Note_on_c, 1, 48, 127
2, 47760, Note_on_c, 1, 55, 127
2, 47760, Note_on_c, 1, 64, 127
2, 47760, Note_off_c, 1, 67, 0
2, 47760, Note_on_c, 1, 72, 127
2, 48400, Note_off_c, 1, 55, 0
2, 48400, Note_off_c, 1, 64, 0
2, 48720, Note_off_c, 1, 48, 0
2, 49040, Note_off_c, 1, 72, 0
2, 49120, Note_on_c, 1, 72, 127
2, 49400, Note_off_c, 1, 72, 0
2, 49440, Note_on_c, 1, 74, 127
2, 49680, Note_off_c, 1, 74, 0
2, 49720, Note_on_c, 1, 74, 127
2, 50120, Note_off_c, 1, 74, 0
2, 50160, Note_on_c, 1, 74, 127
2, 50760, Note_off_c, 1, 74, 0
2, 50800, Note_on_c, 1, 76, 127
2, 51480, Note_off_c, 1, 76, 0
2, 51520, Note_on_c, 1, 74, 127
2, 51800, Note_off_c, 1, 74, 0
2, 51840, Note_on_c, 1, 79, 127
2, 51960, Note_off_c, 1, 79, 0
2, 52000, Note_on_c, 1, 79, 127
2, 52160, Note_off_c, 1, 79, 0
2, 52200, Note_on_c, 1, 44, 127
2, 52200, Note_on_c, 1, 51, 127
2, 52200, Note_on_c, 1, 56, 127
2, 52200, Note_on_c, 1, 71, 127
2, 52400, Note_on_c, 1, 63, 127
2, 52480, Note_off_c, 1, 63, 0
2, 52520, Note_on_c, 1, 68, 127
2, 52640, Note_on_c, 1, 63, 127
2, 52640, Note_off_c, 1, 68, 0
2, 52680, Note_off_c, 1, 63, 0
2, 52720, Note_on_c, 1, 63, 127
2, 52840, Note_off_c, 1, 44, 0
2, 52840, Note_off_c, 1, 51, 0
2, 52840, Note_off_c, 1, 56, 0
2, 52840, Note_off_c, 1, 63, 0
2, 52840, Note_off_c, 1, 71, 0
2, 52880, Note_on_c, 1, 67, 127
2, 53000, Note_off_c, 1, 67, 0
2, 53040, Note_on_c, 1, 55, 127
2, 53160, Note_off_c, 1, 55, 0
2, 53200, Note_on_c, 1, 60, 127
2, 53520, Note_off_c, 1, 60, 0
2, 53560, Note_on_c, 1, 51, 127
2, 53560, Note_on_c, 1, 56, 127
2, 53560, Note_on_c, 1, 60, 127
2, 53560, Note_on_c, 1, 63, 127
2, 53800, Note_off_c, 1, 51, 0
2, 53800, Note_off_c, 1, 56, 0
2, 53800, Note_off_c, 1, 60, 0
2, 53800, Note_off_c, 1, 63, 0
2, 53880, Note_on_c, 1, 56, 127
2, 53880, Note_on_c, 1, 60, 127
2, 53880, Note_on_c, 1, 63, 127
2, 53880, Note_on_c, 1, 66, 127
2, 54000, Note_off_c, 1, 56, 0
2, 54000, Note_off_c, 1, 60, 0
2, 54000, Note_off_c, 1, 63, 0
2, 54000, Note_off_c, 1, 66, 0
2, 54040, Note_on_c, 1, 56, 127
2, 54040, Note_on_c, 1, 60, 127
2, 54040, Note_on_c, 1, 63, 127
2, 54040, Note_on_c, 1, 66, 127
2, 54160, Note_off_c, 1, 56, 0
2, 54160, Note_off_c, 1, 60, 0
2, 54160, Note_off_c, 1, 63, 0
2, 54160, Note_off_c, 1, 66, 0
2, 54240, Note_on_c, 1, 56, 127
2, 54240, Note_on_c, 1, 60, 127
2, 54240, Note_on_c, 1, 63, 127
2, 54240, Note_on_c, 1, 66, 127
2, 54520, Note_off_c, 1, 56, 0
2, 54520, Note_off_c, 1, 60, 0
2, 54520, Note_off_c, 1, 63, 0
2, 54520, Note_off_c, 1, 66, 0
2, 54600, Note_on_c, 1, 53, 127
2, 54600, Note_on_c, 1, 60, 127
2, 54600, Note_on_c, 1, 65, 127
2, 54600, Note_on_c, 1, 68, 127
2, 54880, Note_off_c, 1, 53, 0
2, 54880, Note_off_c, 1, 60, 0
2, 54880, Note_off_c, 1, 65, 0
2, 54880, Note_off_c, 1, 68, 0
2, 54920, Note_on_c, 1, 65, 127
2, 54920, Note_on_c, 1, 72, 127
2, 54920, Note_on_c, 1, 81, 127
2, 54920, Note_on_c, 1, 89, 127
2, 55480, Note_off_c, 1, 65, 0
2, 55480, Note_off_c, 1, 72, 0
2, 55480, Note_off_c, 1, 81, 0
2, 55480, Note_off_c, 1, 89, 0
2, 55600, Note_on_c, 1, 53, 127
2, 55600, Note_on_c, 1, 60, 127
2, 55600, Note_on_c, 1, 65, 127
2, 55600, Note_on_c, 1, 68, 127
2, 55600, Note_on_c, 1, 72, 127
2, 55600, Note_on_c, 1, 77, 127
2, 56160, Note_off_c, 1, 53, 0
2, 56160, Note_off_c, 1, 60, 0
2, 56160, Note_off_c, 1, 65, 0
2, 56160, Note_off_c, 1, 68, 0
2, 56160, Note_off_c, 1, 72, 0
2, 56160, Note_off_c, 1, 77, 0
2, 56200, Note_on_c, 1, 53, 127
2, 56200, Note_on_c, 1, 60, 127
2, 56200, Note_on_c, 1, 65, 127
2, 56200, Note_on_c, 1, 68, 127
2, 56200, Note_on_c, 1, 72, 127
2, 56200, Note_on_c, 1, 77, 127
2, 56960, Note_off_c, 1, 53, 0
2, 56960, Note_off_c, 1, 60, 0
2, 56960, Note_off_c, 1, 65, 0
2, 56960, Note_off_c, 1, 68, 0
2, 56960, Note_off_c, 1, 72, 0
2, 56960, Note_off_c, 1, 77, 0
2, 57000, Note_on_c, 1, 41, 127
2, 57000, Note_on_c, 1, 80, 127
2, 57640, Note_off_c, 1, 41, 0
2, 57640, Note_off_c, 1, 80, 0
2, 57680, Note_on_c, 1, 49, 127
2, 57680, Note_on_c, 1, 58, 127
2, 57960, Note_off_c, 1, 58, 0
2, 58000, Note_on_c, 1, 56, 127
2, 58280, Note_off_c, 1, 49, 0
2, 58280, Note_off_c, 1, 56, 0
2, 58320, Note_on_c, 1, 44, 127
2, 58320, Note_on_c, 1, 63, 127
2, 58360, Note_off_c, 1, 44, 0
2, 58360, Note_off_c, 1, 63, 0
2, 58400, Note_on_c, 1, 44, 127
2, 58400, Note_on_c, 1, 63, 127
2, 58560, Note_off_c, 1, 63, 0
2, 58600, Note_on_c, 1, 65, 127
2, 58680, Note_off_c, 1, 44, 0
2, 58680, Note_off_c, 1, 65, 0
2, 58720, Note_on_c, 1, 48, 127
2, 58720, Note_on_c, 1, 65, 127
2, 59000, Note_off_c, 1, 48, 0
2, 59040, Note_on_c, 1, 44, 127
2, 59360, Note_off_c, 1, 44, 0
2, 59400, Note_on_c, 1, 56, 127
2, 59680, Note_off_c, 1, 56, 0
2, 59680, Note_off_c, 1, 65, 0
2, 59720, Note_on_c, 1, 53, 127
2, 59720, Note_on_c, 1, 61, 127
2, 60040, Note_off_c, 1, 53, 0
2, 60040, Note_off_c, 1, 61, 0
2, 60080, Note_on_c, 1, 38, 127
2, 60080, Note_on_c, 1, 62, 127
2, 60360, Note_off_c, 1, 38, 0
2, 60400, Note_on_c, 1, 46, 127
2, 60400, Note_on_c, 1, 60, 127
2, 60400, Note_off_c, 1, 62, 0
2, 60480, Note_off_c, 1, 46, 0
2, 60480, Note_off_c, 1, 60, 0
2, 60520, Note_on_c, 1, 46, 127
2, 60520, Note_on_c, 1, 60, 127
2, 60720, Note_off_c, 1, 46, 0
2, 60800, Note_on_c, 1, 44, 127
2, 61080, Note_off_c, 1, 44, 0
2, 61120, Note_on_c, 1, 51, 127
2, 61440, Note_off_c, 1, 51, 0
2, 61480, Note_on_c, 1, 51, 127
2, 61760, Note_off_c, 1, 51, 0
2, 61800, Note_on_c, 1, 48, 127
2, 61800, Note_off_c, 1, 60, 0
2, 61800, Note_on_c, 1, 63, 127
2, 62120, Note_off_c, 1, 48, 0
2, 62160, Note_on_c, 1, 45, 127
2, 62400, Note_off_c, 1, 45, 0
2, 62400, Note_off_c, 1, 63, 0
2, 62440, Note_on_c, 1, 45, 127
2, 62440, Note_on_c, 1, 63, 127
2, 62480, Note_off_c, 1, 45, 0
2, 62480, Note_off_c, 1, 63, 0
2, 62520, Note_on_c, 1, 46, 127
2, 62520, Note_on_c, 1, 62, 127
2, 62840, Note_off_c, 1, 46, 0
2, 62880, Note_on_c, 1, 46, 127
2, 63160, Note_off_c, 1, 46, 0
2, 63200, Note_on_c, 1, 34, 127
2, 63520, Note_off_c, 1, 34, 0
2, 63520, Note_off_c, 1, 62, 0
2, 63560, Note_on_c, 1, 46, 127
2, 63560, Note_on_c, 1, 62, 127
2, 63840, Note_off_c, 1, 46, 0
2, 63880, Note_on_c, 1, 43, 127
2, 64200, Note_off_c, 1, 43, 0
2, 64240, Note_on_c, 1, 45, 127
2, 64560, Note_off_c, 1, 45, 0
2, 64560, Note_off_c, 1, 62, 0
2, 64600, Note_on_c, 1, 62, 127
2, 64640, Note_on_c, 1, 46, 127
2, 64920, Note_off_c, 1, 46, 0
2, 64960, Note_on_c, 1, 43, 127
2, 65080, Note_off_c, 1, 43, 0
2, 65080, Note_on_c, 1, 45, 127
2, 65120, Note_on_c, 1, 43, 127
2, 65120, Note_off_c, 1, 45, 0
2, 65280, Note_off_c, 1, 62, 0
2, 65320, Note_on_c, 1, 58, 127
2, 65440, Note_off_c, 1, 58, 0
2, 65480, Note_on_c, 1, 67, 127
2, 65600, Note_off_c, 1, 43, 0
2, 65600, Note_off_c, 1, 67, 0
2, 65640, Note_on_c, 1, 46, 127
2, 65640, Note_on_c, 1, 52, 127
2, 65920, Note_off_c, 1, 46, 0
2, 65920, Note_off_c, 1, 52, 0
2, 65960, Note_on_c, 1, 50, 127
2, 65960, Note_on_c, 1, 59, 127
2, 66280, Note_off_c, 1, 50, 0
2, 66320, Note_on_c, 1, 60, 127
2, 66600, Note_off_c, 1, 59, 0
2, 66640, Note_off_c, 1, 60, 0
2, 66680, Note_on_c, 1, 58, 127
2, 66680, Note_on_c, 1, 60, 127
2, 66680, Note_on_c, 1, 64, 127
2, 67000, Note_off_c, 1, 58, 0
2, 67000, Note_off_c, 1, 60, 0
2, 67040, Note_on_c, 1, 33, 127
2, 67320, Note_off_c, 1, 64, 0
2, 67360, Note_on_c, 1, 64, 127
2, 67680, Note_off_c, 1, 64, 0
2, 67720, Note_on_c, 1, 57, 127
2, 67880, Note_off_c, 1, 57, 0
2, 67880, Note_on_c, 1, 64, 127
2, 68000, Note_off_c, 1, 33, 0
2, 68360, Note_off_c, 1, 64, 0
2, 68400, Note_on_c, 1, 65, 127
2, 68720, Note_off_c, 1, 65, 0
2, 68800, Note_on_c, 1, 64, 127
2, 69400, Note_off_c, 1, 64, 0
2, 69440, Note_on_c, 1, 34, 127
2, 69760, Note_off_c, 1, 34, 0
2, 70840, Note_on_c, 1, 67, 127
2, 71120, Note_off_c, 1, 67, 0
2, 71160, Note_on_c, 1, 69, 127
2, 71480, Note_off_c, 1, 69, 0
2, 71520, Note_on_c, 1, 47, 127
2, 71520, Note_on_c, 1, 67, 127
2, 71800, Note_off_c, 1, 47, 0
2, 71840, Note_on_c, 1, 50, 127
2, 72160, Note_off_c, 1, 50, 0
2, 72200, Note_on_c, 1, 59, 127
2, 72480, Note_off_c, 1, 59, 0
2, 72880, Note_on_c, 1, 50, 127
2, 73120, Note_off_c, 1, 50, 0
2, 73120, Note_off_c, 1, 67, 0
2, 73160, Note_on_c, 1, 50, 127
2, 73160, Note_on_c, 1, 67, 127
2, 73200, Note_off_c, 1, 50, 0
2, 73240, Note_on_c, 1, 43, 127
2, 73560, Note_off_c, 1, 43, 0
2, 73560, Note_off_c, 1, 67, 0
2, 73600, Note_on_c, 1, 71, 127
2, 74240, Note_off_c, 1, 71, 0
2, 74280, Note_on_c, 1, 74, 127
2, 74720, Note_on_c, 1, 55, 127
2, 74720, Note_on_c, 1, 58, 127
2, 74720, Note_on_c, 1, 62, 127
2, 74720, Note_on_c, 1, 67, 127
2, 74720, Note_on_c, 1, 70, 127
2, 74720, Note_off_c, 1, 74, 0
2, 75040, Note_off_c, 1, 55, 0
2, 75040, Note_off_c, 1, 58, 0
2, 75040, Note_off_c, 1, 62, 0
2, 75040, Note_off_c, 1, 67, 0
2, 75040, Note_off_c, 1, 70, 0
2, 75080, Note_on_c, 1, 55, 127
2, 75080, Note_on_c, 1, 58, 127
2, 75080, Note_on_c, 1, 62, 127
2, 75080, Note_on_c, 1, 67, 127
2, 75080, Note_on_c, 1, 70, 127
2, 75320, Note_off_c, 1, 55, 0
2, 75320, Note_off_c, 1, 58, 0
2, 75320, Note_off_c, 1, 62, 0
2, 75320, Note_off_c, 1, 67, 0
2, 75320, Note_off_c, 1, 70, 0
2, 75360, Note_on_c, 1, 79, 127
2, 75680, Note_on_c, 1, 55, 127
2, 75680, Note_on_c, 1, 76, 127
2, 76000, Note_off_c, 1, 55, 0
2, 76040, Note_on_c, 1, 62, 127
2, 76040, Note_on_c, 1, 71, 127
2, 76320, Note_off_c, 1, 62, 0
2, 76320, Note_off_c, 1, 71, 0
2, 76320, Note_off_c, 1, 79, 0
2, 76360, Note_on_c, 1, 58, 127
2, 76360, Note_on_c, 1, 64, 127
2, 76360, Note_on_c, 1, 73, 127
2, 76360, Note_off_c, 1, 76, 0
2, 76360, Note_on_c, 1, 79, 127
2, 76680, Note_on_c, 1, 57, 127
2, 76680, Note_off_c, 1, 58, 0
2, 76680, Note_off_c, 1, 64, 0
2, 76680, Note_off_c, 1, 79, 0
2, 76720, Note_on_c, 1, 63, 127
2, 76720, Note_on_c, 1, 72, 127
2, 76720, Note_off_c, 1, 73, 0
2, 76720, Note_on_c, 1, 78, 127
2, 76880, Note_on_c, 1, 54, 127
2, 76880, Note_off_c, 1, 57, 0
2, 76880, Note_on_c, 1, 69, 127
2, 76880, Note_off_c, 1, 72, 0
2, 76880, Note_on_c, 1, 75, 127
2, 76880, Note_off_c, 1, 78, 0
2, 77000, Note_off_c, 1, 54, 0
2, 77000, Note_off_c, 1, 63, 0
2, 77000, Note_off_c, 1, 69, 0
2, 77000, Note_off_c, 1, 75, 0
2, 77040, Note_on_c, 1, 38, 127
2, 77040, Note_on_c, 1, 50, 127
2, 77040, Note_on_c, 1, 73, 127
2, 77040, Note_on_c, 1, 79, 127
2, 77040, Note_on_c, 1, 81, 127
2, 77080, Note_on_c, 1, 34, 127
2, 77080, Note_off_c, 1, 38, 0
2, 77080, Note_on_c, 1, 41, 127
2, 77080, Note_on_c, 1, 46, 127
2, 77080, Note_off_c, 1, 50, 0
2, 77080, Note_on_c, 1, 70, 127
2, 77080, Note_off_c, 1, 73, 0
2, 77080, Note_on_c, 1, 77, 127
2, 77080, Note_off_c, 1, 79, 0
2, 77080, Note_off_c, 1, 81, 0
2, 77120, Note_off_c, 1, 34, 0
2, 77120, Note_off_c, 1, 41, 0
2, 77120, Note_off_c, 1, 46, 0
2, 77120, Note_off_c, 1, 70, 0
2, 77120, Note_off_c, 1, 77, 0
2, 77160, Note_on_c, 1, 57, 127
2, 77160, Note_on_c, 1, 65, 127
2, 77160, Note_on_c, 1, 74, 127
2, 77160, Note_on_c, 1, 79, 127
2, 77200, Note_on_c, 1, 38, 127
2, 77200, Note_on_c, 1, 50, 127
2, 77200, Note_off_c, 1, 57, 0
2, 77200, Note_off_c, 1, 65, 0
2, 77200, Note_on_c, 1, 69, 127
2, 77200, Note_off_c, 1, 74, 0
2, 77200, Note_off_c, 1, 79, 0
2, 77200, Note_on_c, 1, 81, 127
2, 77240, Note_off_c, 1, 38, 0
2, 77240, Note_on_c, 1, 43, 127
2, 77240, Note_off_c, 1, 50, 0
2, 77240, Note_on_c, 1, 51, 127
2, 77240, Note_on_c, 1, 59, 127
2, 77240, Note_on_c, 1, 67, 127
2, 77240, Note_off_c, 1, 69, 0
2, 77240, Note_on_c, 1, 79, 127
2, 77240, Note_off_c, 1, 81, 0
2, 77400, Note_off_c, 1, 43, 0
2, 77400, Note_off_c, 1, 51, 0
2, 77400, Note_off_c, 1, 59, 0
2, 77400, Note_off_c, 1, 67, 0
2, 77400, Note_off_c, 1, 79, 0
2, 77440, Note_on_c, 1, 37, 127
2, 77440, Note_on_c, 1, 41, 127
2, 77440, Note_on_c, 1, 46, 127
2, 77440, Note_on_c, 1, 49, 127
2, 77440, Note_on_c, 1, 58, 127
2, 77440, Note_on_c, 1, 61, 127
2, 77440, Note_on_c, 1, 65, 127
2, 77440, Note_on_c, 1, 70, 127
2, 77760, Note_off_c, 1, 37, 0
2, 77760, Note_off_c, 1, 41, 0
2, 77760, Note_off_c, 1, 46, 0
2, 77760, Note_off_c, 1, 49, 0
2, 77760, Note_on_c, 1, 53, 127
2, 77760, Note_off_c, 1, 58, 0
2, 77760, Note_on_c, 1, 60, 127
2, 77760, Note_off_c, 1, 61, 0
2, 77760, Note_on_c, 1, 69, 127
2, 77760, Note_off_c, 1, 70, 0
2, 77760, Note_on_c, 1, 81, 127
2, 77880, Note_off_c, 1, 81, 0
2, 77920, Note_on_c, 1, 81, 127
2, 78080, Note_off_c, 1, 53, 0
2, 78080, Note_off_c, 1, 60, 0
2, 78080, Note_off_c, 1, 65, 0
2, 78080, Note_off_c, 1, 69, 0
2, 78080, Note_off_c, 1, 81, 0
2, 78120, Note_on_c, 1, 79, 127
2, 78400, Note_off_c, 1, 79, 0
2, 78440, Note_on_c, 1, 64, 127
2, 78440, Note_on_c, 1, 71, 127
2, 78440, Note_on_c, 1, 83, 127
2, 78440, Note_on_c, 1, 90, 127
2, 78480, Note_on_c, 1, 57, 127
2, 78480, Note_off_c, 1, 64, 0
2, 78480, Note_off_c, 1, 71, 0
2, 78480, Note_on_c, 1, 72, 127
2, 78480, Note_off_c, 1, 83, 0
2, 78480, Note_on_c, 1, 84, 127
2, 78480, Note_on_c, 1, 88, 127
2, 78480, Note_off_c, 1, 90, 0
2, 78520, Note_off_c, 1, 57, 0
2, 78520, Note_on_c, 1, 59, 127
2, 78520, Note_on_c, 1, 62, 127
2, 78520, Note_on_c, 1, 67, 127
2, 78520, Note_off_c, 1, 72, 0
2, 78520, Note_on_c, 1, 79, 127
2, 78520, Note_off_c, 1, 84, 0
2, 78520, Note_on_c, 1, 86, 127
2, 78520, Note_off_c, 1, 88, 0
2, 78520, Note_on_c, 1, 89, 127
2, 78520, Note_on_c, 1, 91, 127
2, 78560, Note_on_c, 1, 38, 127
2, 78560, Note_off_c, 1, 59, 0
2, 78560, Note_on_c, 1, 60, 127
2, 78560, Note_on_c, 1, 66, 127
2, 78560, Note_off_c, 1, 67, 0
2, 78560, Note_off_c, 1, 79, 0
2, 78560, Note_off_c, 1, 86, 0
2, 78560, Note_off_c, 1, 89, 0
2, 78560, Note_off_c, 1, 91, 0
2, 78600, Note_off_c, 1, 38, 0
2, 78600, Note_on_c, 1, 50, 127
2, 78600, Note_on_c, 1, 56, 127
2, 78600, Note_on_c, 1, 58, 127
2, 78600, Note_off_c, 1, 60, 0
2, 78600, Note_off_c, 1, 62, 0
2, 78600, Note_off_c, 1, 66, 0
2, 78600, Note_on_c, 1, 79, 127
2, 78640, Note_off_c, 1, 50, 0
2, 78640, Note_on_c, 1, 54, 127
2, 78640, Note_off_c, 1, 56, 0
2, 78640, Note_off_c, 1, 58, 0
2, 78640, Note_on_c, 1, 60, 127
2, 78640, Note_on_c, 1, 62, 127
2, 78640, Note_on_c, 1, 68, 127
2, 78640, Note_off_c, 1, 79, 0
2, 78680, Note_on_c, 1, 50, 127
2, 78680, Note_off_c, 1, 54, 0
2, 78680, Note_on_c, 1, 56, 127
2, 78680, Note_on_c, 1, 58, 127
2, 78680, Note_off_c, 1, 60, 0
2, 78680, Note_off_c, 1, 62, 0
2, 78680, Note_off_c, 1, 68, 0
2, 78680, Note_on_c, 1, 79, 127
2, 78720, Note_on_c, 1, 36, 127
2, 78720, Note_off_c, 1, 50, 0
2, 78720, Note_off_c, 1, 56, 0
2, 78720, Note_on_c, 1, 61, 127
2, 78720, Note_on_c, 1, 64, 127
2, 78720, Note_on_c, 1, 67, 127
2, 78720, Note_off_c, 1, 79, 0
2, 78760, Note_off_c, 1, 36, 0
2, 78760, Note_on_c, 1, 48, 127
2, 78760, Note_off_c, 1, 58, 0
2, 78760, Note_off_c, 1, 61, 0
2, 78760, Note_off_c, 1, 64, 0
2, 78760, Note_off_c, 1, 67, 0
2, 78760, Note_on_c, 1, 105, 127
2, 78800, Note_off_c, 1, 48, 0
2, 78800, Note_on_c, 1, 60, 127
2, 78800, Note_on_c, 1, 62, 127
2, 78800, Note_on_c, 1, 83, 127
2, 78800, Note_off_c, 1, 105, 0
2, 78960, Note_off_c, 1, 60, 0
2, 78960, Note_off_c, 1, 62, 0
2, 78960, Note_on_c, 1, 67, 127
2, 78960, Note_on_c, 1, 80, 127
2, 78960, Note_off_c, 1, 83, 0
2, 78960, Note_on_c, 1, 86, 127
2, 78960, Note_on_c, 1, 89, 127
2, 78960, Note_on_c, 1, 92, 127
2, 79000, Note_on_c, 1, 60, 127
2, 79000, Note_on_c, 1, 62, 127
2, 79000, Note_off_c, 1, 67, 0
2, 79000, Note_off_c, 1, 80, 0
2, 79000, Note_on_c, 1, 83, 127
2, 79000, Note_off_c, 1, 86, 0
2, 79000, Note_off_c, 1, 89, 0
2, 79000, Note_off_c, 1, 92, 0
2, 79080, Note_off_c, 1, 60, 0
2, 79080, Note_off_c, 1, 62, 0
2, 79080, Note_off_c, 1, 83, 0
2, 79080, Note_on_c, 1, 90, 127
2, 79120, Note_on_c, 1, 48, 127
2, 79120, Note_on_c, 1, 88, 127
2, 79120, Note_off_c, 1, 90, 0
2, 79200, Note_off_c, 1, 48, 0
2, 79200, Note_off_c, 1, 88, 0
2, 79240, Note_on_c, 1, 48, 127
2, 79240, Note_on_c, 1, 88, 127
2, 79480, Note_off_c, 1, 48, 0
2, 79520, Note_on_c, 1, 45, 127
2, 79520, Note_off_c, 1, 88, 0
2, 79520, Note_on_c, 1, 91, 127
2, 79800, Note_on_c, 1, 85, 127
2, 79800, Note_off_c, 1, 91, 0
2, 79840, Note_off_c, 1, 85, 0
2, 79840, Note_on_c, 1, 91, 127
2, 80160, Note_off_c, 1, 91, 0
2, 80200, Note_on_c, 1, 79, 127
2, 80840, Note_off_c, 1, 79, 0
2, 80880, Note_on_c, 1, 36, 127
2, 80880, Note_off_c, 1, 45, 0
2, 80880, Note_on_c, 1, 79, 127
2, 81000, Note_on_c, 1, 77, 127
2, 81000, Note_off_c, 1, 79, 0
2, 81040, Note_off_c, 1, 77, 0
2, 81040, Note_on_c, 1, 79, 127
2, 81200, Note_off_c, 1, 36, 0
2, 81240, Note_off_c, 1, 79, 0
2, 81280, Note_on_c, 1, 67, 127
2, 81280, Note_on_c, 1, 79, 127
2, 81760, Note_off_c, 1, 67, 0
2, 81960, Note_on_c, 1, 46, 127
2, 82240, Note_off_c, 1, 46, 0
2, 82280, Note_on_c, 1, 50, 127
2, 82600, Note_off_c, 1, 50, 0
2, 82640, Note_on_c, 1, 58, 127
2, 82920, Note_off_c, 1, 58, 0
2, 82960, Note_on_c, 1, 67, 127
2, 83280, Note_off_c, 1, 67, 0
2, 83280, Note_off_c, 1, 79, 0
2, 83320, Note_on_c, 1, 79, 127
2, 83360, Note_on_c, 1, 75, 127
2, 83680, Note_off_c, 1, 75, 0
2, 83720, Note_on_c, 1, 67, 127
2, 84000, Note_off_c, 1, 67, 0
2, 84040, Note_on_c, 1, 70, 127
2, 84360, Note_off_c, 1, 70, 0
2, 84400, Note_on_c, 1, 75, 127
2, 84680, Note_off_c, 1, 75, 0
2, 84720, Note_on_c, 1, 46, 127
2, 84720, Note_on_c, 1, 54, 127
2, 84720, Note_on_c, 1, 61, 127
2, 84720, Note_on_c, 1, 64, 127
2, 84720, Note_on_c, 1, 66, 127
2, 84720, Note_off_c, 1, 79, 0
2, 85040, Note_on_c, 1, 65, 127
2, 85040, Note_off_c, 1, 66, 0
2, 85080, Note_off_c, 1, 65, 0
2, 85080, Note_on_c, 1, 66, 127
2, 85400, Note_off_c, 1, 46, 0
2, 85400, Note_off_c, 1, 54, 0
2, 85400, Note_off_c, 1, 61, 0
2, 85400, Note_off_c, 1, 64, 0
2, 85400, Note_off_c, 1, 66, 0
2, 85440, Note_on_c, 1, 46, 127
2, 85440, Note_on_c, 1, 54, 127
2, 85440, Note_on_c, 1, 61, 127
2, 85440, Note_on_c, 1, 64, 127
2, 85440, Note_on_c, 1, 66, 127
2, 86480, Note_off_c, 1, 46, 0
2, 86480, Note_off_c, 1, 54, 0
2, 86480, Note_off_c, 1, 61, 0
2, 86480, Note_on_c, 1, 63, 127
2, 86480, Note_off_c, 1, 64, 0
2, 86480, Note_off_c, 1, 66, 0
2, 86480, Note_on_c, 1, 70, 127
2, 86480, Note_on_c, 1, 75, 127
2, 86480, Note_on_c, 1, 78, 127
2, 86480, Note_on_c, 1, 82, 127
2, 86480, Note_on_c, 1, 90, 127
2, 86520, Note_on_c, 1, 36, 127
2, 86520, Note_off_c, 1, 63, 0
2, 86520, Note_on_c, 1, 65, 127
2, 86520, Note_on_c, 1, 74, 127
2, 86520, Note_off_c, 1, 75, 0
2, 86520, Note_off_c, 1, 78, 0
2, 86520, Note_off_c, 1, 82, 0
2, 86520, Note_off_c, 1, 90, 0
2, 86560, Note_off_c, 1, 36, 0
2, 86560, Note_off_c, 1, 65, 0
2, 86560, Note_off_c, 1, 70, 0
2, 86560, Note_off_c, 1, 74, 0
2, 86600, Note_on_c, 1, 63, 127
2, 86600, Note_on_c, 1, 89, 127
2, 86600, Note_on_c, 1, 91, 127
2, 86640, Note_on_c, 1, 29, 127
2, 86640, Note_on_c, 1, 34, 127
2, 86640, Note_off_c, 1, 63, 0
2, 86640, Note_on_c, 1, 66, 127
2, 86640, Note_off_c, 1, 89, 0
2, 86640, Note_off_c, 1, 91, 0
2, 86680, Note_off_c, 1, 29, 0
2, 86680, Note_off_c, 1, 34, 0
2, 86680, Note_on_c, 1, 50, 127
2, 86680, Note_on_c, 1, 57, 127
2, 86680, Note_on_c, 1, 60, 127
2, 86680, Note_off_c, 1, 66, 0
2, 86680, Note_on_c, 1, 67, 127
2, 86680, Note_on_c, 1, 86, 127
2, 86720, Note_on_c, 1, 43, 127
2, 86720, Note_off_c, 1, 50, 0
2, 86720, Note_off_c, 1, 57, 0
2, 86720, Note_off_c, 1, 60, 0
2, 86720, Note_off_c, 1, 67, 0
2, 86720, Note_on_c, 1, 84, 127
2, 86720, Note_off_c, 1, 86, 0
2, 86720, Note_on_c, 1, 87, 127
2, 86760, Note_off_c, 1, 43, 0
2, 86760, Note_on_c, 1, 57, 127
2, 86760, Note_on_c, 1, 69, 127
2, 86760, Note_off_c, 1, 84, 0
2, 86760, Note_off_c, 1, 87, 0
2, 86760, Note_on_c, 1, 90, 127
2, 86760, Note_on_c, 1, 93, 127
2, 86800, Note_on_c, 1, 55, 127
2, 86800, Note_off_c, 1, 57, 0
2, 86800, Note_on_c, 1, 60, 127
2, 86800, Note_on_c, 1, 63, 127
2, 86800, Note_on_c, 1, 66, 127
2, 86800, Note_off_c, 1, 69, 0
2, 86800, Note_on_c, 1, 74, 127
2, 86800, Note_off_c, 1, 90, 0
2, 86800, Note_off_c, 1, 93, 0
2, 86840, Note_on_c, 1, 38, 127
2, 86840, Note_on_c, 1, 45, 127
2, 86840, Note_on_c, 1, 53, 127
2, 86840, Note_off_c, 1, 55, 0
2, 86840, Note_on_c, 1, 57, 127
2, 86840, Note_off_c, 1, 60, 0
2, 86840, Note_on_c, 1, 62, 127
2, 86840, Note_off_c, 1, 63, 0
2, 86840, Note_on_c, 1, 65, 127
2, 86840, Note_off_c, 1, 66, 0
2, 86840, Note_on_c, 1, 69, 127
2, 86840, Note_off_c, 1, 74, 0
2, 86880, Note_off_c, 1, 45, 0
2, 86880, Note_on_c, 1, 52, 127
2, 86880, Note_off_c, 1, 53, 0
2, 86880, Note_off_c, 1, 62, 0
2, 86880, Note_off_c, 1, 65, 0
2, 86880, Note_off_c, 1, 69, 0
2, 86880, Note_on_c, 1, 76, 127
2, 86920, Note_off_c, 1, 38, 0
2, 86920, Note_on_c, 1, 48, 127
2, 86920, Note_off_c, 1, 52, 0
2, 86920, Note_off_c, 1, 57, 0
2, 86920, Note_on_c, 1, 59, 127
2, 86920, Note_on_c, 1, 67, 127
2, 86920, Note_on_c, 1, 71, 127
2, 86920, Note_on_c, 1, 74, 127
2, 86920, Note_off_c, 1, 76, 0
2, 86960, Note_off_c, 1, 48, 0
2, 86960, Note_off_c, 1, 59, 0
2, 86960, Note_on_c, 1, 61, 127
2, 86960, Note_on_c, 1, 63, 127
2, 86960, Note_on_c, 1, 66, 127
2, 86960, Note_off_c, 1, 67, 0
2, 86960, Note_off_c, 1, 71, 0
2, 86960, Note_on_c, 1, 73, 127
2, 86960, Note_off_c, 1, 74, 0
2, 86960, Note_on_c, 1, 78, 127
2, 86960, Note_on_c, 1, 87, 127
2, 86960, Note_on_c, 1, 90, 127
2, 87000, Note_off_c, 1, 61, 0
2, 87000, Note_off_c, 1, 63, 0
2, 87000, Note_off_c, 1, 66, 0
2, 87000, Note_on_c, 1, 67, 127
2, 87000, Note_on_c, 1, 72, 127
2, 87000, Note_off_c, 1, 73, 0
2, 87000, Note_on_c, 1, 76, 127
2, 87000, Note_off_c, 1, 78, 0
2, 87000, Note_off_c, 1, 87, 0
2, 87000, Note_on_c, 1, 88, 127
2, 87000, Note_off_c, 1, 90, 0
2, 87000, Note_on_c, 1, 96, 127
2, 87000, Note_on_c, 1, 100, 127
2, 87040, Note_on_c, 1, 43, 127
2, 87040, Note_on_c, 1, 51, 127
2, 87040, Note_on_c, 1, 59, 127
2, 87040, Note_off_c, 1, 72, 0
2, 87040, Note_on_c, 1, 75, 127
2, 87040, Note_off_c, 1, 76, 0
2, 87040, Note_off_c, 1, 88, 0
2, 87040, Note_off_c, 1, 96, 0
2, 87040, Note_off_c, 1, 100, 0
2, 87080, Note_on_c, 1, 35, 127
2, 87080, Note_on_c, 1, 42, 127
2, 87080, Note_off_c, 1, 43, 0
2, 87080, Note_off_c, 1, 51, 0
2, 87080, Note_off_c, 1, 59, 0
2, 87080, Note_on_c, 1, 64, 127
2, 87080, Note_on_c, 1, 70, 127
2, 87080, Note_on_c, 1, 73, 127
2, 87080, Note_off_c, 1, 75, 0
2, 87120, Note_off_c, 1, 35, 0
2, 87120, Note_off_c, 1, 42, 0
2, 87120, Note_on_c, 1, 51, 127
2, 87120, Note_on_c, 1, 55, 127
2, 87120, Note_on_c, 1, 58, 127
2, 87120, Note_on_c, 1, 63, 127
2, 87120, Note_off_c, 1, 64, 0
2, 87120, Note_off_c, 1, 67, 0
2, 87120, Note_off_c, 1, 70, 0
2, 87120, Note_off_c, 1, 73, 0
2, 87120, Note_on_c, 1, 75, 127
2, 87120, Note_on_c, 1, 87, 127
2, 87160, Note_on_c, 1, 48, 127
2, 87160, Note_off_c, 1, 51, 0
2, 87160, Note_off_c, 1, 58, 0
2, 87160, Note_off_c, 1, 63, 0
2, 87160, Note_on_c, 1, 70, 127
2, 87160, Note_on_c, 1, 72, 127
2, 87160, Note_off_c, 1, 75, 0
2, 87160, Note_off_c, 1, 87, 0
2, 87200, Note_off_c, 1, 48, 0
2, 87200, Note_on_c, 1, 49, 127
2, 87200, Note_off_c, 1, 55, 0
2, 87200, Note_on_c, 1, 56, 127
2, 87200, Note_on_c, 1, 64, 127
2, 87200, Note_off_c, 1, 70, 0
2, 87200, Note_on_c, 1, 71, 127
2, 87200, Note_off_c, 1, 72, 0
2, 87240, Note_on_c, 1, 35, 127
2, 87240, Note_off_c, 1, 49, 0
2, 87240, Note_off_c, 1, 56, 0
2, 87240, Note_off_c, 1, 64, 0
2, 87240, Note_off_c, 1, 71, 0
2, 87240, Note_on_c, 1, 78, 127
2, 87240, Note_on_c, 1, 81, 127
2, 87240, Note_on_c, 1, 84, 127
2, 87280, Note_off_c, 1, 35, 0
2, 87280, Note_on_c, 1, 50, 127
2, 87280, Note_on_c, 1, 76, 127
2, 87280, Note_off_c, 1, 78, 0
2, 87280, Note_off_c, 1, 84, 0
2, 87320, Note_on_c, 1, 39, 127
2, 87320, Note_on_c, 1, 42, 127
2, 87320, Note_off_c, 1, 50, 0
2, 87320, Note_on_c, 1, 66, 127
2, 87320, Note_on_c, 1, 70, 127
2, 87320, Note_off_c, 1, 76, 0
2, 87320, Note_off_c, 1, 81, 0
2, 87360, Note_off_c, 1, 39, 0
2, 87360, Note_off_c, 1, 42, 0
2, 87360, Note_on_c, 1, 46, 127
2, 87360, Note_on_c, 1, 53, 127
2, 87360, Note_off_c, 1, 66, 0
2, 87360, Note_off_c, 1, 70, 0
2, 87400, Note_off_c, 1, 46, 0
2, 87400, Note_on_c, 1, 58, 127
2, 87400, Note_on_c, 1, 70, 127
2, 87400, Note_on_c, 1, 72, 127
2, 87440, Note_on_c, 1, 47, 127
2, 87440, Note_off_c, 1, 53, 0
2, 87440, Note_on_c, 1, 54, 127
2, 87440, Note_off_c, 1, 58, 0
2, 87440, Note_on_c, 1, 61, 127
2, 87440, Note_off_c, 1, 70, 0
2, 87440, Note_off_c, 1, 72, 0
2, 87440, Note_on_c, 1, 95, 127
2, 87480, Note_off_c, 1, 47, 0
2, 87480, Note_off_c, 1, 54, 0
2, 87480, Note_off_c, 1, 61, 0
2, 87480, Note_on_c, 1, 78, 127
2, 87480, Note_on_c, 1, 85, 127
2, 87480, Note_on_c, 1, 90, 127
2, 87480, Note_off_c, 1, 95, 0
2, 87480, Note_on_c, 1, 97, 127
2, 87520, Note_on_c, 1, 58, 127
2, 87520, Note_on_c, 1, 61, 127
2, 87520, Note_on_c, 1, 64, 127
2, 87520, Note_on_c, 1, 67, 127
2, 87520, Note_off_c, 1, 78, 0
2, 87520, Note_on_c, 1, 84, 127
2, 87520, Note_off_c, 1, 85, 0
2, 87520, Note_off_c, 1, 90, 0
2, 87520, Note_off_c, 1, 97, 0
2, 87560, Note_on_c, 1, 38, 127
2, 87560, Note_on_c, 1, 44, 127
2, 87560, Note_on_c, 1, 48, 127
2, 87560, Note_off_c, 1, 58, 0
2, 87560, Note_on_c, 1, 60, 127
2, 87560, Note_off_c, 1, 61, 0
2, 87560, Note_off_c, 1, 64, 0
2, 87560, Note_on_c, 1, 66, 127
2, 87560, Note_off_c, 1, 67, 0
2, 87560, Note_on_c, 1, 68, 127
2, 87560, Note_off_c, 1, 84, 0
2, 87600, Note_on_c, 1, 29, 127
2, 87600, Note_off_c, 1, 38, 0
2, 87600, Note_off_c, 1, 44, 0
2, 87600, Note_off_c, 1, 48, 0
2, 87600, Note_off_c, 1, 60, 0
2, 87600, Note_off_c, 1, 66, 0
2, 87600, Note_off_c, 1, 68, 0
2, 87600, Note_on_c, 1, 84, 127
2, 87640, Note_off_c, 1, 29, 0
2, 87640, Note_on_c, 1, 66, 127
2, 87640, Note_on_c, 1, 70, 127
2, 87640, Note_on_c, 1, 73, 127
2, 87640, Note_on_c, 1, 76, 127
2, 87640, Note_off_c, 1, 84, 0
2, 87640, Note_on_c, 1, 91, 127
2, 87680, Note_on_c, 1, 30, 127
2, 87680, Note_on_c, 1, 42, 127
2, 87680, Note_off_c, 1, 66, 0
2, 87680, Note_off_c, 1, 70, 0
2, 87680, Note_off_c, 1, 73, 0
2, 87680, Note_off_c, 1, 76, 0
2, 87680, Note_on_c, 1, 82, 127
2, 87680, Note_on_c, 1, 85, 127
2, 87680, Note_on_c, 1, 90, 127
2, 87680, Note_off_c, 1, 91, 0
2, 87680, Note_on_c, 1, 94, 127
2, 87720, Note_off_c, 1, 30, 0
2, 87720, Note_off_c, 1, 42, 0
2, 87720, Note_on_c, 1, 64, 127
2, 87720, Note_on_c, 1, 67, 127
2, 87720, Note_on_c, 1, 69, 127
2, 87720, Note_on_c, 1, 74, 127
2, 87720, Note_off_c, 1, 82, 0
2, 87720, Note_off_c, 1, 85, 0
2, 87720, Note_off_c, 1, 90, 0
2, 87720, Note_off_c, 1, 94, 0
2, 87760, Note_on_c, 1, 37, 127
2, 87760, Note_off_c, 1, 64, 0
2, 87760, Note_on_c, 1, 66, 127
2, 87760, Note_off_c, 1, 67, 0
2, 87760, Note_off_c, 1, 69, 0
2, 87760, Note_on_c, 1, 70, 127
2, 87760, Note_on_c, 1, 73, 127
2, 87760, Note_off_c, 1, 74, 0
2, 87760, Note_on_c, 1, 77, 127
2, 87800, Note_off_c, 1, 37, 0
2, 87800, Note_on_c, 1, 56, 127
2, 87800, Note_on_c, 1, 59, 127
2, 87800, Note_on_c, 1, 62, 127
2, 87800, Note_on_c, 1, 64, 127
2, 87800, Note_off_c, 1, 66, 0
2, 87800, Note_off_c, 1, 70, 0
2, 87800, Note_on_c, 1, 71, 127
2, 87800, Note_off_c, 1, 73, 0
2, 87800, Note_on_c, 1, 74, 127
2, 87800, Note_off_c, 1, 77, 0
2, 87840, Note_on_c, 1, 35, 127
2, 87840, Note_on_c, 1, 42, 127
2, 87840, Note_on_c, 1, 54, 127
2, 87840, Note_off_c, 1, 56, 0
2, 87840, Note_on_c, 1, 61, 127
2, 87840, Note_off_c, 1, 62, 0
2, 87840, Note_off_c, 1, 64, 0
2, 87840, Note_off_c, 1, 71, 0
2, 87840, Note_off_c, 1, 74, 0
2, 87840, Note_on_c, 1, 83, 127
2, 87840, Note_on_c, 1, 87, 127
2, 87880, Note_off_c, 1, 35, 0
2, 87880, Note_off_c, 1, 42, 0
2, 87880, Note_on_c, 1, 50, 127
2, 87880, Note_on_c, 1, 52, 127
2, 87880, Note_off_c, 1, 54, 0
2, 87880, Note_on_c, 1, 55, 127
2, 87880, Note_on_c, 1, 57, 127
2, 87880, Note_off_c, 1, 59, 0
2, 87880, Note_off_c, 1, 61, 0
2, 87880, Note_off_c, 1, 83, 0
2, 87880, Note_on_c, 1, 85, 127
2, 87880, Note_off_c, 1, 87, 0
2, 87920, Note_on_c, 1, 48, 127
2, 87920, Note_off_c, 1, 50, 0
2, 87920, Note_off_c, 1, 52, 0
2, 87920, Note_off_c, 1, 55, 0
2, 87920, Note_off_c, 1, 57, 0
2, 87920, Note_on_c, 1, 58, 127
2, 87920, Note_on_c, 1, 72, 127
2, 87920, Note_on_c, 1, 74, 127
2, 87920, Note_off_c, 1, 85, 0
2, 87960, Note_off_c, 1, 48, 0
2, 87960, Note_off_c, 1, 58, 0
2, 87960, Note_on_c, 1, 64, 127
2, 87960, Note_off_c, 1, 72, 0
2, 87960, Note_on_c, 1, 73, 127
2, 87960, Note_off_c, 1, 74, 0
2, 87960, Note_on_c, 1, 76, 127
2, 87960, Note_on_c, 1, 79, 127
2, 87960, Note_on_c, 1, 82, 127
2, 87960, Note_on_c, 1, 85, 127
2, 88000, Note_off_c, 1, 64, 0
2, 88000, Note_on_c, 1, 72, 127
2, 88000, Note_off_c, 1, 73, 0
2, 88000, Note_off_c, 1, 76, 0
2, 88000, Note_off_c, 1, 85, 0
2, 88000, Note_on_c, 1, 89, 127
2, 88000, Note_on_c, 1, 96, 127
2, 88000, Note_on_c, 1, 101, 127
2, 88040, Note_on_c, 1, 42, 127
2, 88040, Note_on_c, 1, 64, 127
2, 88040, Note_on_c, 1, 66, 127
2, 88040, Note_on_c, 1, 70, 127
2, 88040, Note_off_c, 1, 72, 0
2, 88040, Note_on_c, 1, 75, 127
2, 88040, Note_on_c, 1, 78, 127
2, 88040, Note_off_c, 1, 79, 0
2, 88040, Note_off_c, 1, 82, 0
2, 88040, Note_off_c, 1, 89, 0
2, 88040, Note_off_c, 1, 96, 0
2, 88040, Note_off_c, 1, 101, 0
2, 88080, Note_off_c, 1, 42, 0
2, 88080, Note_on_c, 1, 57, 127
2, 88080, Note_on_c, 1, 61, 127
2, 88080, Note_off_c, 1, 64, 0
2, 88080, Note_off_c, 1, 66, 0
2, 88080, Note_on_c, 1, 67, 127
2, 88080, Note_off_c, 1, 70, 0
2, 88080, Note_off_c, 1, 75, 0
2, 88080, Note_off_c, 1, 78, 0
2, 88080, Note_on_c, 1, 84, 127
2, 88120, Note_on_c, 1, 31, 127
2, 88120, Note_on_c, 1, 36, 127
2, 88120, Note_off_c, 1, 57, 0
2, 88120, Note_off_c, 1, 61, 0
2, 88120, Note_on_c, 1, 76, 127
2, 88120, Note_on_c, 1, 79, 127
2, 88120, Note_off_c, 1, 84, 0
2, 88160, Note_off_c, 1, 31, 0
2, 88160, Note_off_c, 1, 36, 0
2, 88160, Note_off_c, 1, 67, 0
2, 88160, Note_off_c, 1, 76, 0
2, 88160, Note_off_c, 1, 79, 0
2, 88160, Note_on_c, 1, 90, 127
2, 88160, Note_on_c, 1, 91, 127
2, 88160, Note_on_c, 1, 95, 127
2, 88200, Note_on_c, 1, 43, 127
2, 88200, Note_on_c, 1, 45, 127
2, 88200, Note_on_c, 1, 48, 127
2, 88200, Note_on_c, 1, 50, 127
2, 88200, Note_on_c, 1, 54, 127
2, 88200, Note_on_c, 1, 69, 127
2, 88200, Note_off_c, 1, 90, 0
2, 88200, Note_off_c, 1, 91, 0
2, 88200, Note_off_c, 1, 95, 0
2, 88240, Note_off_c, 1, 43, 0
2, 88240, Note_off_c, 1, 45, 0
2, 88240, Note_on_c, 1, 47, 127
2, 88240, Note_off_c, 1, 48, 0
2, 88240, Note_off_c, 1, 50, 0
2, 88240, Note_off_c, 1, 54, 0
2, 88240, Note_off_c, 1, 69, 0
2, 88240, Note_on_c, 1, 96, 127
2, 88280, Note_off_c, 1, 47, 0
2, 88280, Note_on_c, 1, 57, 127
2, 88280, Note_on_c, 1, 66, 127
2, 88280, Note_on_c, 1, 69, 127
2, 88280, Note_on_c, 1, 88, 127
2, 88280, Note_on_c, 1, 90, 127
2, 88280, Note_off_c, 1, 96, 0
2, 88320, Note_off_c, 1, 57, 0
2, 88320, Note_off_c, 1, 66, 0
2, 88320, Note_off_c, 1, 69, 0
2, 88320, Note_on_c, 1, 83, 127
2, 88320, Note_on_c, 1, 86, 127
2, 88320, Note_off_c, 1, 88, 0
2, 88320, Note_on_c, 1, 89, 127
2, 88320, Note_off_c, 1, 90, 0
2, 88320, Note_on_c, 1, 92, 127
2, 88320, Note_on_c, 1, 95, 127
2, 88360, Note_on_c, 1, 44, 127
2, 88360, Note_on_c, 1, 63, 127
2, 88360, Note_on_c, 1, 68, 127
2, 88360, Note_on_c, 1, 73, 127
2, 88360, Note_on_c, 1, 75, 127
2, 88360, Note_off_c, 1, 83, 0
2, 88360, Note_off_c, 1, 86, 0
2, 88360, Note_off_c, 1, 89, 0
2, 88360, Note_off_c, 1, 92, 0
2, 88360, Note_off_c, 1, 95, 0
2, 88400, Note_off_c, 1, 44, 0
2, 88400, Note_on_c, 1, 59, 127
2, 88400, Note_off_c, 1, 63, 0
2, 88400, Note_on_c, 1, 71, 127
2, 88400, Note_off_c, 1, 73, 0
2, 88400, Note_off_c, 1, 75, 0
2, 88400, Note_on_c, 1, 83, 127
2, 88480, Note_off_c, 1, 59, 0
2, 88480, Note_off_c, 1, 68, 0
2, 88480, Note_off_c, 1, 71, 0
2, 88480, Note_off_c, 1, 83, 0
2, 88520, Note_on_c, 1, 59, 127
2, 88520, Note_on_c, 1, 68, 127
2, 88520, Note_on_c, 1, 71, 127
2, 88520, Note_on_c, 1, 83, 127
2, 88560, Note_on_c, 1, 56, 127
2, 88560, Note_off_c, 1, 59, 0
2, 88560, Note_on_c, 1, 66, 127
2, 88560, Note_off_c, 1, 68, 0
2, 88560, Note_off_c, 1, 71, 0
2, 88560, Note_on_c, 1, 80, 127
2, 88560, Note_off_c, 1, 83, 0
2, 88560, Note_on_c, 1, 88, 127
2, 88600, Note_off_c, 1, 56, 0
2, 88600, Note_on_c, 1, 59, 127
2, 88600, Note_off_c, 1, 66, 0
2, 88600, Note_on_c, 1, 68, 127
2, 88600, Note_on_c, 1, 71, 127
2, 88600, Note_off_c, 1, 80, 0
2, 88600, Note_on_c, 1, 83, 127
2, 88600, Note_off_c, 1, 88, 0
2, 88680, Note_off_c, 1, 59, 0
2, 88680, Note_off_c, 1, 68, 0
2, 88680, Note_off_c, 1, 71, 0
2, 88720, Note_on_c, 1, 59, 127
2, 88720, Note_on_c, 1, 68, 127
2, 88720, Note_on_c, 1, 71, 127
2, 89360, Note_off_c, 1, 59, 0
2, 89360, Note_off_c, 1, 68, 0
2, 89360, Note_off_c, 1, 71, 0
2, 89400, Note_on_c, 1, 59, 127
2, 89400, Note_on_c, 1, 68, 127
2, 89400, Note_on_c, 1, 71, 127
2, 90040, Note_off_c, 1, 59, 0
2, 90040, Note_off_c, 1, 68, 0
2, 90040, Note_off_c, 1, 71, 0
2, 90080, Note_on_c, 1, 64, 127
2, 90080, Note_on_c, 1, 67, 127
2, 90080, Note_on_c, 1, 79, 127
2, 90360, Note_off_c, 1, 83, 0
2, 90400, Note_off_c, 1, 64, 0
2, 90400, Note_off_c, 1, 67, 0
2, 90400, Note_off_c, 1, 79, 0
2, 90440, Note_on_c, 1, 64, 127
2, 90440, Note_on_c, 1, 67, 127
2, 90440, Note_on_c, 1, 79, 127
2, 90480, Note_on_c, 1, 84, 127
2, 90520, Note_off_c, 1, 84, 0
2, 90640, Note_on_c, 1, 84, 127
2, 90680, Note_off_c, 1, 84, 0
2, 90880, Note_off_c, 1, 79, 0
2, 90920, Note_on_c, 1, 76, 127
2, 91040, Note_off_c, 1, 64, 0
2, 91040, Note_off_c, 1, 76, 0
2, 91080, Note_off_c, 1, 67, 0
2, 91080, Note_on_c, 1, 69, 127
2, 91080, Note_on_c, 1, 75, 127
2, 91080, Note_on_c, 1, 84, 127
2, 91240, Note_on_c, 1, 67, 127
2, 91240, Note_off_c, 1, 69, 0
2, 91240, Note_off_c, 1, 75, 0
2, 91240, Note_on_c, 1, 76, 127
2, 91280, Note_off_c, 1, 67, 0
2, 91280, Note_on_c, 1, 69, 127
2, 91280, Note_on_c, 1, 75, 127
2, 91280, Note_off_c, 1, 76, 0
2, 91360, Note_off_c, 1, 69, 0
2, 91360, Note_off_c, 1, 75, 0
2, 91360, Note_on_c, 1, 83, 127
2, 91360, Note_off_c, 1, 84, 0
2, 91400, Note_on_c, 1, 67, 127
2, 91400, Note_on_c, 1, 76, 127
2, 91640, Note_off_c, 1, 83, 0
2, 91680, Note_on_c, 1, 83, 127
2, 91880, Note_on_c, 1, 74, 127
2, 91880, Note_off_c, 1, 76, 0
2, 91880, Note_off_c, 1, 83, 0
2, 91920, Note_on_c, 1, 83, 127
2, 91920, Note_on_c, 1, 86, 127
2, 92040, Note_off_c, 1, 83, 0
2, 92040, Note_off_c, 1, 86, 0
2, 92080, Note_off_c, 1, 67, 0
2, 92080, Note_on_c, 1, 69, 127
2, 92080, Note_on_c, 1, 72, 127
2, 92080, Note_off_c, 1, 74, 0
2, 92080, Note_on_c, 1, 76, 127
2, 92080, Note_on_c, 1, 84, 127
2, 92400, Note_off_c, 1, 84, 0
2, 92440, Note_on_c, 1, 84, 127
2, 92480, Note_off_c, 1, 69, 0
2, 92480, Note_off_c, 1, 72, 0
2, 92480, Note_off_c, 1, 76, 0
2, 92480, Note_off_c, 1, 84, 0
2, 92520, Note_on_c, 1, 69, 127
2, 92520, Note_on_c, 1, 72, 127
2, 92520, Note_on_c, 1, 76, 127
2, 92520, Note_on_c, 1, 84, 127
2, 92760, Note_off_c, 1, 84, 0
2, 92800, Note_on_c, 1, 60, 127
2, 93760, Note_off_c, 1, 69, 0
2, 93760, Note_off_c, 1, 72, 0
2, 93760, Note_off_c, 1, 76, 0
2, 93800, Note_on_c, 1, 66, 127
2, 93800, Note_on_c, 1, 75, 127
2, 93800, Note_on_c, 1, 81, 127
2, 94440, Note_on_c, 1, 57, 127
2, 94440, Note_off_c, 1, 60, 0
2, 94440, Note_off_c, 1, 66, 0
2, 94440, Note_on_c, 1, 72, 127
2, 94440, Note_off_c, 1, 75, 0
2, 94440, Note_off_c, 1, 81, 0
2, 94480, Note_on_c, 1, 66, 127
2, 94480, Note_on_c, 1, 76, 127
2, 94680, Note_off_c, 1, 57, 0
2, 94680, Note_off_c, 1, 66, 0
2, 94680, Note_off_c, 1, 72, 0
2, 94680, Note_off_c, 1, 76, 0
2, 94720, Note_on_c, 1, 57, 127
2, 94720, Note_on_c, 1, 66, 127
2, 94720, Note_on_c, 1, 72, 127
2, 94720, Note_on_c, 1, 76, 127
2, 95160, Note_off_c, 1, 66, 0
2, 95160, Note_off_c, 1, 72, 0
2, 95160, Note_off_c, 1, 76, 0
2, 95200, Note_on_c, 1, 67, 127
2, 95200, Note_on_c, 1, 73, 127
2, 95200, Note_on_c, 1, 76, 127
2, 95840, Note_off_c, 1, 67, 0
2, 95840, Note_off_c, 1, 73, 0
2, 95840, Note_off_c, 1, 76, 0
2, 95880, Note_off_c, 1, 57, 0
2, 95880, Note_on_c, 1, 62, 127
2, 95880, Note_on_c, 1, 66, 127
2, 95880, Note_on_c, 1, 74, 127
2, 95880, Note_on_c, 1, 81, 127
2, 96160, Note_on_c, 1, 64, 127
2, 96160, Note_off_c, 1, 66, 0
2, 96160, Note_on_c, 1, 79, 127
2, 96160, Note_off_c, 1, 81, 0
2, 96520, Note_off_c, 1, 64, 0
2, 96520, Note_off_c, 1, 74, 0
2, 96520, Note_off_c, 1, 79, 0
2, 96560, Note_on_c, 1, 69, 127
2, 96560, Note_on_c, 1, 72, 127
2, 96560, Note_on_c, 1, 81, 127
2, 96560, Note_on_c, 1, 82, 127
2, 96600, Note_on_c, 1, 79, 127
2, 96600, Note_off_c, 1, 81, 0
2, 96600, Note_off_c, 1, 82, 0
2, 96680, Note_off_c, 1, 62, 0
2, 96680, Note_off_c, 1, 69, 0
2, 96680, Note_off_c, 1, 72, 0
2, 96680, Note_off_c, 1, 79, 0
2, 96720, Note_on_c, 1, 62, 127
2, 96720, Note_on_c, 1, 69, 127
2, 96720, Note_on_c, 1, 72, 127
2, 96720, Note_on_c, 1, 79, 127
2, 96880, Note_off_c, 1, 62, 0
2, 96880, Note_off_c, 1, 69, 0
2, 96880, Note_off_c, 1, 72, 0
2, 96920, Note_on_c, 1, 67, 127
2, 96920, Note_on_c, 1, 74, 127
2, 96920, Note_off_c, 1, 79, 0
2, 96920, Note_on_c, 1, 82, 127
2, 98080, Note_off_c, 1, 74, 0
2, 98080, Note_off_c, 1, 82, 0
2, 98120, Note_on_c, 1, 72, 127
2, 98120, Note_on_c, 1, 84, 127
2, 98240, Note_off_c, 1, 72, 0
2, 98240, Note_off_c, 1, 84, 0
2, 98280, Note_on_c, 1, 74, 127
2, 98280, Note_on_c, 1, 83, 127
2, 98640, Note_off_c, 1, 67, 0
2, 98640, Note_off_c, 1, 74, 0
2, 98640, Note_off_c, 1, 83, 0
2, 98680, Note_on_c, 1, 67, 127
2, 98680, Note_on_c, 1, 74, 127
2, 98680, Note_on_c, 1, 83, 127
2, 98960, Note_off_c, 1, 83, 0
2, 99000, Note_on_c, 1, 47, 127
2, 99320, Note_off_c, 1, 47, 0
2, 99320, Note_off_c, 1, 74, 0
2, 99360, Note_on_c, 1, 58, 127
2, 99360, Note_on_c, 1, 74, 127
2, 100000, Note_off_c, 1, 58, 0
2, 100000, Note_off_c, 1, 74, 0
2, 100040, Note_on_c, 1, 58, 127
2, 100040, Note_on_c, 1, 74, 127
2, 101040, Note_off_c, 1, 58, 0
2, 101040, Note_off_c, 1, 67, 0
2, 101040, Note_off_c, 1, 74, 0
2, 101080, Note_on_c, 1, 67, 127
2, 101120, Note_on_c, 1, 58, 127
2, 101120, Note_on_c, 1, 74, 127
2, 101760, Note_off_c, 1, 58, 0
2, 101760, Note_off_c, 1, 67, 0
2, 101760, Note_off_c, 1, 74, 0
2, 101800, Note_on_c, 1, 45, 127
2, 101800, Note_on_c, 1, 64, 127
2, 101800, Note_on_c, 1, 73, 127
2, 102280, Note_off_c, 1, 73, 0
2, 102320, Note_on_c, 1, 52, 127
2, 102320, Note_on_c, 1, 60, 127
2, 102320, Note_off_c, 1, 64, 0
2, 102440, Note_off_c, 1, 52, 0
2, 102440, Note_off_c, 1, 60, 0
2, 102480, Note_off_c, 1, 45, 0
2, 102480, Note_on_c, 1, 64, 127
2, 102480, Note_on_c, 1, 76, 127
2, 102480, Note_on_c, 1, 80, 127
2, 102480, Note_on_c, 1, 84, 127
2, 102640, Note_off_c, 1, 76, 0
2, 102640, Note_off_c, 1, 84, 0
2, 102680, Note_on_c, 1, 76, 127
2, 102680, Note_on_c, 1, 84, 127
2, 102800, Note_off_c, 1, 76, 0
2, 102800, Note_off_c, 1, 80, 0
2, 102800, Note_off_c, 1, 84, 0
2, 102840, Note_on_c, 1, 57, 127
2, 102840, Note_on_c, 1, 69, 127
2, 102840, Note_on_c, 1, 73, 127
2, 102840, Note_on_c, 1, 76, 127
2, 103040, Note_off_c, 1, 57, 0
2, 103040, Note_off_c, 1, 64, 0
2, 103040, Note_off_c, 1, 69, 0
2, 103040, Note_off_c, 1, 73, 0
2, 103040, Note_off_c, 1, 76, 0
2, 103080, Note_on_c, 1, 57, 127
2, 103080, Note_on_c, 1, 64, 127
2, 103080, Note_on_c, 1, 69, 127
2, 103080, Note_on_c, 1, 73, 127
2, 103080, Note_on_c, 1, 76, 127
2, 103200, Note_off_c, 1, 57, 0
2, 103200, Note_off_c, 1, 64, 0
2, 103200, Note_off_c, 1, 69, 0
2, 103200, Note_off_c, 1, 73, 0
2, 103200, Note_off_c, 1, 76, 0
2, 103240, Note_on_c, 1, 38, 127
2, 103240, Note_on_c, 1, 62, 127
2, 103240, Note_on_c, 1, 66, 127
2, 103240, Note_on_c, 1, 69, 127
2, 103880, Note_off_c, 1, 38, 0
2, 103920, Note_on_c, 1, 50, 127
2, 104200, Note_off_c, 1, 50, 0
2, 104200, Note_off_c, 1, 62, 0
2, 104200, Note_off_c, 1, 66, 0
2, 104200, Note_off_c, 1, 69, 0
2, 104240, Note_on_c, 1, 45, 127
2, 104240, Note_on_c, 1, 61, 127
2, 104240, Note_on_c, 1, 67, 127
2, 105200, Note_off_c, 1, 45, 0
2, 105200, Note_off_c, 1, 61, 0
2, 105200, Note_off_c, 1, 67, 0
2, 105240, Note_on_c, 1, 45, 127
2, 105240, Note_on_c, 1, 61, 127
2, 105240, Note_on_c, 1, 67, 127
2, 105280, Note_off_c, 1, 45, 0
2, 105280, Note_off_c, 1, 61, 0
2, 105280, Note_off_c, 1, 67, 0
2, 105320, Note_on_c, 1, 45, 127
2, 105320, Note_on_c, 1, 61, 127
2, 105320, Note_on_c, 1, 67, 127
2, 106360, Note_off_c, 1, 45, 0
2, 106360, Note_off_c, 1, 61, 0
2, 106360, Note_off_c, 1, 67, 0
2, 106400, Note_on_c, 1, 45, 127
2, 106400, Note_on_c, 1, 61, 127
2, 106400, Note_on_c, 1, 67, 127
2, 107440, Note_off_c, 1, 45, 0
2, 107440, Note_off_c, 1, 61, 0
2, 107440, Note_off_c, 1, 67, 0
2, 107480, Note_on_c, 1, 45, 127
2, 107480, Note_on_c, 1, 61, 127
2, 107480, Note_on_c, 1, 67, 127
2, 107760, Note_off_c, 1, 45, 0
2, 107760, Note_off_c, 1, 61, 0
2, 107760, Note_off_c, 1, 67, 0
2, 107800, Note_on_c, 1, 51, 127
2, 107800, Note_on_c, 1, 58, 127
2, 107800, Note_on_c, 1, 67, 127
2, 107800, Note_on_c, 1, 72, 127
2, 107920, Note_off_c, 1, 72, 0
2, 107960, Note_on_c, 1, 70, 127
2, 109240, Note_off_c, 1, 58, 0
2, 109280, Note_off_c, 1, 51, 0
2, 109280, Note_off_c, 1, 67, 0
2, 109280, Note_off_c, 1, 70, 0
2, 109320, Note_on_c, 1, 51, 127
2, 109320, Note_on_c, 1, 58, 127
2, 109320, Note_on_c, 1, 67, 127
2, 109320, Note_on_c, 1, 70, 127
2, 111160, Note_off_c, 1, 51, 0
2, 111160, Note_off_c, 1, 58, 0
2, 111160, Note_off_c, 1, 67, 0
2, 111160, Note_off_c, 1, 70, 0
2, 111200, Note_on_c, 1, 51, 127
2, 111200, Note_on_c, 1, 61, 127
2, 111200, Note_on_c, 1, 67, 127
2, 111200, Note_on_c, 1, 72, 127
2, 111400, Note_off_c, 1, 51, 0
2, 111400, Note_off_c, 1, 61, 0
2, 111400, Note_off_c, 1, 67, 0
2, 111400, Note_off_c, 1, 72, 0
2, 111440, Note_on_c, 1, 51, 127
2, 111440, Note_on_c, 1, 61, 127
2, 111440, Note_on_c, 1, 67, 127
2, 111440, Note_on_c, 1, 72, 127
2, 111480, Note_off_c, 1, 72, 0
2, 111520, Note_on_c, 1, 70, 127
2, 111800, Note_off_c, 1, 61, 0
2, 111800, Note_off_c, 1, 70, 0
2, 111840, Note_on_c, 1, 60, 127
2, 111840, Note_on_c, 1, 72, 127
2, 112320, Note_off_c, 1, 60, 0
2, 112320, Note_off_c, 1, 72, 0
2, 112360, Note_on_c, 1, 60, 127
2, 113000, Note_off_c, 1, 60, 0
2, 113040, Note_on_c, 1, 58, 127
2, 113320, Note_off_c, 1, 51, 0
2, 113320, Note_off_c, 1, 58, 0
2, 113320, Note_off_c, 1, 67, 0
2, 113400, Note_on_c, 1, 46, 127
2, 113400, Note_on_c, 1, 62, 127
2, 113400, Note_on_c, 1, 65, 127
2, 113680, Note_off_c, 1, 46, 0
2, 113720, Note_on_c, 1, 56, 127
2, 114200, Note_off_c, 1, 56, 0
2, 114200, Note_off_c, 1, 62, 0
2, 114200, Note_off_c, 1, 65, 0
2, 114240, Note_on_c, 1, 55, 127
2, 114240, Note_on_c, 1, 63, 127
2, 114240, Note_on_c, 1, 67, 127
2, 114360, Note_off_c, 1, 55, 0
2, 114360, Note_off_c, 1, 63, 0
2, 114360, Note_off_c, 1, 67, 0
2, 114400, Note_on_c, 1, 56, 127
2, 114400, Note_on_c, 1, 65, 127
2, 114560, Note_off_c, 1, 56, 0
2, 114560, Note_off_c, 1, 65, 0
2, 114600, Note_on_c, 1, 58, 127
2, 114600, Note_on_c, 1, 61, 127
2, 114760, Note_on_c, 1, 68, 127
2, 114880, Note_off_c, 1, 58, 0
2, 114880, Note_off_c, 1, 61, 0
2, 114880, Note_off_c, 1, 68, 0
2, 114920, Note_on_c, 1, 56, 127
2, 114920, Note_on_c, 1, 60, 127
2, 114920, Note_on_c, 1, 65, 127
2, 115240, Note_off_c, 1, 56, 0
2, 115240, Note_off_c, 1, 60, 0
2, 115240, Note_off_c, 1, 65, 0
2, 115280, Note_on_c, 1, 55, 127
2, 115280, Note_on_c, 1, 58, 127
2, 115280, Note_on_c, 1, 63, 127
2, 115480, Note_off_c, 1, 55, 0
2, 115480, Note_off_c, 1, 58, 0
2, 115480, Note_off_c, 1, 63, 0
2, 115520, Note_on_c, 1, 55, 127
2, 115520, Note_on_c, 1, 58, 127
2, 115520, Note_on_c, 1, 63, 127
2, 116320, Note_off_c, 1, 55, 0
2, 116320, Note_off_c, 1, 58, 0
2, 116320, Note_off_c, 1, 63, 0
2, 116360, Note_on_c, 1, 63, 127
2, 116360, Note_on_c, 1, 72, 127
2, 116640, Note_off_c, 1, 63, 0
2, 116640, Note_off_c, 1, 72, 0
2, 116680, Note_on_c, 1, 62, 127
2, 116680, Note_on_c, 1, 65, 127
2, 117000, Note_off_c, 1, 62, 0
2, 117000, Note_off_c, 1, 65, 0
2, 117040, Note_on_c, 1, 62, 127
2, 117040, Note_on_c, 1, 65, 127
2, 117040, Note_on_c, 1, 70, 127
2, 117680, Note_off_c, 1, 62, 0
2, 117680, Note_off_c, 1, 65, 0
2, 117680, Note_off_c, 1, 70, 0
2, 117760, Note_on_c, 1, 60, 127
2, 117760, Note_on_c, 1, 63, 127
2, 117760, Note_on_c, 1, 70, 127
2, 118440, Note_off_c, 1, 60, 0
2, 118440, Note_off_c, 1, 63, 0
2, 118440, Note_off_c, 1, 70, 0
2, 118480, Note_on_c, 1, 61, 127
2, 118480, Note_on_c, 1, 65, 127
2, 118480, Note_on_c, 1, 70, 127
2, 118800, Note_off_c, 1, 61, 0
2, 118840, Note_on_c, 1, 61, 127
2, 118840, Note_on_c, 1, 68, 127
2, 118840, Note_off_c, 1, 70, 0
2, 118840, Note_on_c, 1, 78, 127
2, 118960, Note_off_c, 1, 78, 0
2, 119000, Note_on_c, 1, 78, 127
2, 119120, Note_off_c, 1, 61, 0
2, 119120, Note_off_c, 1, 65, 0
2, 119120, Note_off_c, 1, 68, 0
2, 119120, Note_off_c, 1, 78, 0
2, 119160, Note_on_c, 1, 60, 127
2, 119160, Note_on_c, 1, 65, 127
2, 119160, Note_on_c, 1, 69, 127
2, 119160, Note_on_c, 1, 75, 127
2, 119480, Note_off_c, 1, 60, 0
2, 119480, Note_off_c, 1, 65, 0
2, 119480, Note_off_c, 1, 69, 0
2, 119480, Note_off_c, 1, 75, 0
2, 119520, Note_on_c, 1, 58, 127
2, 119520, Note_on_c, 1, 65, 127
2, 119520, Note_on_c, 1, 70, 127
2, 119520, Note_on_c, 1, 74, 127
2, 119800, Note_off_c, 1, 58, 0
2, 119800, Note_off_c, 1, 65, 0
2, 119800, Note_off_c, 1, 70, 0
2, 119800, Note_on_c, 1, 72, 127
2, 119800, Note_off_c, 1, 74, 0
2, 119800, Note_on_c, 1, 77, 127
2, 119800, Note_on_c, 1, 89, 127
2, 119800, Note_on_c, 1, 93, 127
2, 119840, Note_off_c, 1, 72, 0
2, 119840, Note_off_c, 1, 77, 0
2, 119840, Note_off_c, 1, 89, 0
2, 119840, Note_off_c, 1, 93, 0
2, 119920, Note_on_c, 1, 58, 127
2, 119920, Note_on_c, 1, 62, 127
2, 119920, Note_on_c, 1, 70, 127
2, 119920, Note_on_c, 1, 77, 127
2, 120000, Note_off_c, 1, 58, 0
2, 120000, Note_off_c, 1, 62, 0
2, 120000, Note_off_c, 1, 70, 0
2, 120000, Note_off_c, 1, 77, 0
2, 120040, End_track
3, 0, Start_track
3, 0, Title_t, "MIDI"
3, 1536, End_track
0, 0, End_of_file
