0, 0, Header, 1, 3, 192
1, 0, Start_track
1, 0, Time_signature, 4, 2, 24, 8
1, 0, Tempo, 500000
1, 120040, End_track
2, 0, Start_track
2, 0, Text_t, "random instrument: random person i dunno whatev"
2, 0, Title_t, "Track 1"
2, 0, Note_on_c, 1, 55, 127
2, 0, Note_on_c, 1, 59, 127
2, 0, Note_on_c, 1, 62, 127
2, 0, Note_on_c, 1, 71, 127
2, 0, Note_on_c, 1, 79, 127
2, 40, Note_off_c, 1, 59, 0
2, 40, Note_off_c, 1, 62, 0
2, 40, Note_off_c, 1, 71, 0
2, 40, Note_on_c, 1, 72, 127
2, 40, Note_on_c, 1, 75, 127
2, 40, Note_on_c, 1, 84, 127
2, 80, Note_off_c, 1, 55, 0
2, 80, Note_off_c, 1, 72, 0
2, 80, Note_off_c, 1, 75, 0
2, 80, Note_off_c, 1, 79, 0
2, 80, Note_off_c, 1, 84, 0
2, 120, Note_on_c, 1, 58, 127
2, 120, Note_on_c, 1, 65, 127
2, 120, Note_on_c, 1, 70, 127
2, 120, Note_on_c, 1, 73, 127
2, 120, Note_on_c, 1, 80, 127
2, 160, Note_on_c, 1, 53, 127
2, 160, Note_on_c, 1, 56, 127
2, 160, Note_off_c, 1, 58, 0
2, 160, Note_on_c, 1, 63, 127
2, 160, Note_off_c, 1, 65, 0
2, 160, Note_off_c, 1, 70, 0
2, 160, Note_on_c, 1, 83, 127
2, 200, Note_on_c, 1, 33, 127
2, 200, Note_on_c, 1, 37, 127
2, 200, Note_on_c, 1, 40, 127
2, 200, Note_on_c, 1, 45, 127
2, 200, Note_off_c, 1, 53, 0
2, 200, Note_off_c, 1, 56, 0
2, 200, Note_on_c, 1, 57, 127
2, 200, Note_on_c, 1, 61, 127
2, 200, Note_off_c, 1, 63, 0
2, 200, Note_on_c, 1, 64, 127
2, 200, Note_off_c, 1, 73, 0
2, 200, Note_off_c, 1, 80, 0
2, 200, Note_off_c, 1, 83, 0
2, 240, Note_off_c, 1, 33, 0
2, 240, Note_off_c, 1, 37, 0
2, 240, Note_off_c, 1, 40, 0
2, 240, Note_off_c, 1, 45, 0
2, 240, Note_off_c, 1, 57, 0
2, 240, Note_on_c, 1, 58, 127
2, 240, Note_off_c, 1, 61, 0
2, 240, Note_on_c, 1, 66, 127
2, 240, Note_on_c, 1, 73, 127
2, 240, Note_on_c, 1, 85, 127
2, 360, Note_off_c, 1, 58, 0
2, 360, Note_off_c, 1, 64, 0
2, 360, Note_off_c, 1, 66, 0
2, 360, Note_off_c, 1, 73, 0
2, 360, Note_off_c, 1, 85, 0
2, 400, Note_on_c, 1, 58, 127
2, 400, Note_on_c, 1, 70, 127
2, 600, Note_off_c, 1, 58, 0
2, 600, Note_off_c, 1, 70, 0
2, 640, Note_on_c, 1, 55, 127
2, 640, Note_on_c, 1, 67, 127
2, 800, Note_off_c, 1, 55, 0
2, 800, Note_off_c, 1, 67, 0
2, 880, Note_on_c, 1, 50, 127
2, 880, Note_on_c, 1, 55, 127
2, 880, Note_on_c, 1, 58, 127
2, 880, Note_on_c, 1, 62, 127
2, 1440, Note_off_c, 1, 50, 0
2, 1440, Note_off_c, 1, 55, 0
2, 1440, Note_off_c, 1, 58, 0
2, 1440, Note_off_c, 1, 62, 0
2, 3840, Note_on_c, 1, 59, 127
2, 3840, Note_on_c, 1, 64, 127
2, 3840, Note_on_c, 1, 68, 127
2, 4040, Note_off_c, 1, 64, 0
2, 4040, Note_off_c, 1, 68, 0
2, 4080, Note_on_c, 1, 58, 127
2, 4080, Note_off_c, 1, 59, 0
2, 4080, Note_on_c, 1, 64, 127
2, 4080, Note_on_c, 1, 67, 127
2, 4320, Note_off_c, 1, 58, 0
2, 4320, Note_off_c, 1, 64, 0
2, 4320, Note_off_c, 1, 67, 0
2, 4360, Note_on_c, 1, 59, 127
2, 4360, Note_on_c, 1, 63, 127
2, 4360, Note_on_c, 1, 66, 127
2, 4840, Note_off_c, 1, 59, 0
2, 4840, Note_off_c, 1, 63, 0
2, 4840, Note_off_c, 1, 66, 0
2, 4880, Note_on_c, 1, 59, 127
2, 4880, Note_on_c, 1, 63, 127
2, 4880, Note_on_c, 1, 66, 127
2, 5320, Note_off_c, 1, 59, 0
2, 5320, Note_off_c, 1, 63, 0
2, 5320, Note_off_c, 1, 66, 0
2, 5360, Note_on_c, 1, 59, 127
2, 5360, Note_on_c, 1, 66, 127
2, 5360, Note_on_c, 1, 69, 127
2, 5720, Note_off_c, 1, 59, 0
2, 5720, Note_off_c, 1, 66, 0
2, 5720, Note_off_c, 1, 69, 0
2, 5760, Note_on_c, 1, 59, 127
2, 5760, Note_on_c, 1, 66, 127
2, 5760, Note_on_c, 1, 69, 127
2, 5840, Note_off_c, 1, 59, 0
2, 5840, Note_off_c, 1, 66, 0
2, 5840, Note_off_c, 1, 69, 0
2, 5880, Note_on_c, 1, 65, 127
2, 5880, Note_on_c, 1, 68, 127
2, 5880, Note_on_c, 1, 74, 127
2, 6400, Note_off_c, 1, 65, 0
2, 6400, Note_off_c, 1, 68, 0
2, 6400, Note_off_c, 1, 74, 0
2, 6440, Note_on_c, 1, 63, 127
2, 6440, Note_on_c, 1, 66, 127
2, 6440, Note_on_c, 1, 75, 127
2, 6880, Note_off_c, 1, 63, 0
2, 6880, Note_off_c, 1, 66, 0
2, 6880, Note_off_c, 1, 75, 0
2, 6920, Note_on_c, 1, 65, 127
2, 6920, Note_on_c, 1, 69, 127
2, 6920, Note_on_c, 1, 75, 127
2, 7400, Note_off_c, 1, 65, 0
2, 7400, Note_off_c, 1, 69, 0
2, 7400, Note_off_c, 1, 75, 0
2, 7440, Note_on_c, 1, 70, 127
2, 7440, Note_on_c, 1, 75, 127
2, 7440, Note_on_c, 1, 78, 127
2, 7800, Note_off_c, 1, 78, 0
2, 7800, Note_on_c, 1, 79, 127
2, 7840, Note_off_c, 1, 70, 0
2, 7840, Note_off_c, 1, 75, 0
2, 7840, Note_off_c, 1, 79, 0
2, 7880, Note_on_c, 1, 70, 127
2, 7880, Note_on_c, 1, 75, 127
2, 7880, Note_on_c, 1, 78, 127
2, 7920, Note_off_c, 1, 70, 0
2, 7920, Note_off_c, 1, 75, 0
2, 7920, Note_off_c, 1, 78, 0
2, 7960, Note_on_c, 1, 68, 127
2, 7960, Note_on_c, 1, 71, 127
2, 7960, Note_on_c, 1, 74, 127
2, 7960, Note_on_c, 1, 77, 127
2, 8440, Note_off_c, 1, 68, 0
2, 8440, Note_off_c, 1, 71, 0
2, 8440, Note_off_c, 1, 74, 0
2, 8440, Note_off_c, 1, 77, 0
2, 8480, Note_on_c, 1, 66, 127
2, 8480, Note_on_c, 1, 70, 127
2, 8480, Note_on_c, 1, 75, 127
2, 8920, Note_off_c, 1, 66, 0
2, 8920, Note_off_c, 1, 70, 0
2, 8920, Note_off_c, 1, 75, 0
2, 8960, Note_on_c, 1, 73, 127
2, 8960, Note_on_c, 1, 75, 127
2, 8960, Note_on_c, 1, 78, 127
2, 9080, Note_off_c, 1, 73, 0
2, 9400, Note_off_c, 1, 75, 0
2, 9400, Note_off_c, 1, 78, 0
2, 9440, Note_on_c, 1, 71, 127
2, 9440, Note_on_c, 1, 75, 127
2, 9440, Note_on_c, 1, 78, 127
2, 9800, Note_off_c, 1, 71, 0
2, 9800, Note_off_c, 1, 75, 0
2, 9800, Note_off_c, 1, 78, 0
2, 9840, Note_on_c, 1, 71, 127
2, 9840, Note_on_c, 1, 75, 127
2, 9840, Note_on_c, 1, 78, 127
2, 9920, Note_off_c, 1, 71, 0
2, 9920, Note_off_c, 1, 75, 0
2, 9920, Note_off_c, 1, 78, 0
2, 9960, Note_on_c, 1, 71, 127
2, 9960, Note_on_c, 1, 75, 127
2, 9960, Note_on_c, 1, 78, 127
2, 10400, Note_off_c, 1, 71, 0
2, 10400, Note_off_c, 1, 75, 0
2, 10400, Note_off_c, 1, 78, 0
2, 10440, Note_on_c, 1, 71, 127
2, 10440, Note_on_c, 1, 75, 127
2, 10440, Note_on_c, 1, 78, 127
2, 10880, Note_off_c, 1, 71, 0
2, 10880, Note_off_c, 1, 75, 0
2, 10880, Note_off_c, 1, 78, 0
2, 10920, Note_on_c, 1, 66, 127
2, 10920, Note_on_c, 1, 70, 127
2, 10920, Note_on_c, 1, 75, 127
2, 10920, Note_on_c, 1, 78, 127
2, 11200, Note_off_c, 1, 66, 0
2, 11200, Note_off_c, 1, 70, 0
2, 11200, Note_off_c, 1, 75, 0
2, 11200, Note_off_c, 1, 78, 0
2, 11240, Note_on_c, 1, 66, 127
2, 11240, Note_on_c, 1, 70, 127
2, 11240, Note_on_c, 1, 75, 127
2, 11240, Note_on_c, 1, 78, 127
2, 11360, Note_off_c, 1, 66, 0
2, 11360, Note_off_c, 1, 70, 0
2, 11360, Note_off_c, 1, 75, 0
2, 11360, Note_off_c, 1, 78, 0
2, 11400, Note_on_c, 1, 54, 127
2, 11400, Note_on_c, 1, 64, 127
2, 11400, Note_on_c, 1, 70, 127
2, 11400, Note_on_c, 1, 75, 127
2, 11440, Note_off_c, 1, 54, 0
2, 11440, Note_off_c, 1, 64, 0
2, 11440, Note_off_c, 1, 70, 0
2, 11440, Note_off_c, 1, 75, 0
2, 11520, Note_on_c, 1, 54, 127
2, 11520, Note_on_c, 1, 64, 127
2, 11520, Note_on_c, 1, 70, 127
2, 11520, Note_on_c, 1, 73, 127
2, 11800, Note_off_c, 1, 54, 0
2, 11800, Note_off_c, 1, 64, 0
2, 11800, Note_off_c, 1, 70, 0
2, 11800, Note_off_c, 1, 73, 0
2, 11880, Note_on_c, 1, 35, 127
2, 11880, Note_on_c, 1, 47, 127
2, 11880, Note_on_c, 1, 71, 127
2, 11880, Note_on_c, 1, 75, 127
2, 11880, Note_on_c, 1, 78, 127
2, 11880, Note_on_c, 1, 83, 127
2, 12120, Note_off_c, 1, 35, 0
2, 12120, Note_off_c, 1, 47, 0
2, 12120, Note_off_c, 1, 71, 0
2, 12120, Note_off_c, 1, 75, 0
2, 12120, Note_off_c, 1, 78, 0
2, 12120, Note_off_c, 1, 83, 0
2, 12160, Note_on_c, 1, 42, 127
2, 12160, Note_on_c, 1, 54, 127
2, 12160, Note_on_c, 1, 70, 127
2, 12160, Note_on_c, 1, 73, 127
2, 12160, Note_on_c, 1, 78, 127
2, 12160, Note_on_c, 1, 82, 127
2, 12200, Note_off_c, 1, 42, 0
2, 12200, Note_off_c, 1, 54, 0
2, 12200, Note_off_c, 1, 70, 0
2, 12200, Note_off_c, 1, 73, 0
2, 12200, Note_off_c, 1, 78, 0
2, 12200, Note_off_c, 1, 82, 0
2, 12280, Note_on_c, 1, 35, 127
2, 12280, Note_on_c, 1, 47, 127
2, 12280, Note_on_c, 1, 68, 127
2, 12280, Note_on_c, 1, 75, 127
2, 12280, Note_on_c, 1, 78, 127
2, 12280, Note_on_c, 1, 80, 127
2, 12320, Note_off_c, 1, 35, 0
2, 12320, Note_off_c, 1, 47, 0
2, 12320, Note_off_c, 1, 68, 0
2, 12320, Note_off_c, 1, 75, 0
2, 12320, Note_off_c, 1, 78, 0
2, 12320, Note_off_c, 1, 80, 0
2, 12440, Note_on_c, 1, 47, 127
2, 12440, Note_on_c, 1, 59, 127
2, 12440, Note_on_c, 1, 68, 127
2, 12440, Note_on_c, 1, 75, 127
2, 12440, Note_on_c, 1, 78, 127
2, 12440, Note_on_c, 1, 80, 127
2, 12680, Note_off_c, 1, 47, 0
2, 12680, Note_off_c, 1, 59, 0
2, 12680, Note_off_c, 1, 68, 0
2, 12680, Note_off_c, 1, 75, 0
2, 12680, Note_off_c, 1, 78, 0
2, 12680, Note_off_c, 1, 80, 0
2, 12720, Note_on_c, 1, 37, 127
2, 12720, Note_on_c, 1, 49, 127
2, 12720, Note_on_c, 1, 70, 127
2, 12720, Note_on_c, 1, 73, 127
2, 12720, Note_on_c, 1, 77, 127
2, 12720, Note_on_c, 1, 82, 127
2, 12960, Note_off_c, 1, 37, 0
2, 12960, Note_off_c, 1, 49, 0
2, 12960, Note_off_c, 1, 70, 0
2, 12960, Note_off_c, 1, 73, 0
2, 12960, Note_off_c, 1, 77, 0
2, 12960, Note_off_c, 1, 82, 0
2, 13000, Note_on_c, 1, 37, 127
2, 13000, Note_on_c, 1, 49, 127
2, 13000, Note_on_c, 1, 70, 127
2, 13000, Note_on_c, 1, 77, 127
2, 13000, Note_on_c, 1, 82, 127
2, 13240, Note_off_c, 1, 37, 0
2, 13240, Note_off_c, 1, 49, 0
2, 13240, Note_off_c, 1, 70, 0
2, 13240, Note_off_c, 1, 77, 0
2, 13240, Note_off_c, 1, 82, 0
2, 13280, Note_on_c, 1, 37, 127
2, 13280, Note_on_c, 1, 49, 127
2, 13280, Note_on_c, 1, 70, 127
2, 13280, Note_on_c, 1, 77, 127
2, 13280, Note_on_c, 1, 82, 127
2, 13800, Note_off_c, 1, 37, 0
2, 13800, Note_off_c, 1, 49, 0
2, 13800, Note_off_c, 1, 70, 0
2, 13800, Note_off_c, 1, 77, 0
2, 13800, Note_off_c, 1, 82, 0
2, 13880, Note_on_c, 1, 38, 127
2, 13880, Note_on_c, 1, 50, 127
2, 13880, Note_on_c, 1, 55, 127
2, 13880, Note_on_c, 1, 67, 127
2, 14120, Note_off_c, 1, 38, 0
2, 14120, Note_off_c, 1, 50, 0
2, 14120, Note_off_c, 1, 55, 0
2, 14120, Note_off_c, 1, 67, 0
2, 14160, Note_on_c, 1, 55, 127
2, 14160, Note_on_c, 1, 67, 127
2, 14400, Note_off_c, 1, 55, 0
2, 14400, Note_off_c, 1, 67, 0
2, 14440, Note_on_c, 1, 55, 127
2, 14440, Note_on_c, 1, 62, 127
2, 14440, Note_on_c, 1, 64, 127
2, 14440, Note_on_c, 1, 67, 127
2, 14480, Note_on_c, 1, 38, 127
2, 14480, Note_off_c, 1, 55, 0
2, 14480, Note_on_c, 1, 58, 127
2, 14480, Note_off_c, 1, 62, 0
2, 14480, Note_on_c, 1, 63, 127
2, 14480, Note_off_c, 1, 64, 0
2, 14520, Note_off_c, 1, 38, 0
2, 14520, Note_off_c, 1, 58, 0
2, 14520, Note_on_c, 1, 60, 127
2, 14520, Note_on_c, 1, 66, 127
2, 14520, Note_off_c, 1, 67, 0
2, 14520, Note_on_c, 1, 80, 127
2, 14560, Note_on_c, 1, 53, 127
2, 14560, Note_on_c, 1, 58, 127
2, 14560, Note_off_c, 1, 60, 0
2, 14560, Note_on_c, 1, 61, 127
2, 14560, Note_off_c, 1, 63, 0
2, 14560, Note_on_c, 1, 65, 127
2, 14560, Note_off_c, 1, 66, 0
2, 14560, Note_on_c, 1, 67, 127
2, 14560, Note_off_c, 1, 80, 0
2, 14600, Note_on_c, 1, 44, 127
2, 14600, Note_on_c, 1, 48, 127
2, 14600, Note_off_c, 1, 53, 0
2, 14600, Note_off_c, 1, 61, 0
2, 14600, Note_off_c, 1, 65, 0
2, 14600, Note_off_c, 1, 67, 0
2, 14600, Note_on_c, 1, 84, 127
2, 14600, Note_on_c, 1, 92, 127
2, 14600, Note_on_c, 1, 96, 127
2, 14640, Note_off_c, 1, 44, 0
2, 14640, Note_off_c, 1, 48, 0
2, 14640, Note_off_c, 1, 58, 0
2, 14640, Note_off_c, 1, 84, 0
2, 14640, Note_off_c, 1, 92, 0
2, 14640, Note_off_c, 1, 96, 0
2, 14720, Note_on_c, 1, 60, 127
2, 14720, Note_on_c, 1, 64, 127
2, 14720, Note_on_c, 1, 69, 127
2, 14720, Note_on_c, 1, 72, 127
2, 14720, Note_on_c, 1, 76, 127
2, 14720, Note_on_c, 1, 81, 127
2, 14960, Note_off_c, 1, 60, 0
2, 14960, Note_off_c, 1, 64, 0
2, 14960, Note_off_c, 1, 69, 0
2, 14960, Note_off_c, 1, 72, 0
2, 14960, Note_off_c, 1, 76, 0
2, 14960, Note_off_c, 1, 81, 0
2, 15000, Note_on_c, 1, 60, 127
2, 15000, Note_on_c, 1, 64, 127
2, 15000, Note_on_c, 1, 69, 127
2, 15000, Note_on_c, 1, 72, 127
2, 15000, Note_on_c, 1, 76, 127
2, 15000, Note_on_c, 1, 81, 127
2, 15240, Note_off_c, 1, 60, 0
2, 15240, Note_off_c, 1, 64, 0
2, 15240, Note_off_c, 1, 69, 0
2, 15240, Note_off_c, 1, 72, 0
2, 15240, Note_off_c, 1, 76, 0
2, 15240, Note_off_c, 1, 81, 0
2, 15280, Note_on_c, 1, 59, 127
2, 15280, Note_on_c, 1, 62, 127
2, 15280, Note_on_c, 1, 65, 127
2, 15280, Note_on_c, 1, 69, 127
2, 15280, Note_on_c, 1, 71, 127
2, 15280, Note_on_c, 1, 74, 127
2, 15280, Note_on_c, 1, 77, 127
2, 15280, Note_on_c, 1, 81, 127
2, 15840, Note_off_c, 1, 59, 0
2, 15840, Note_off_c, 1, 62, 0
2, 15840, Note_off_c, 1, 65, 0
2, 15840, Note_off_c, 1, 69, 0
2, 15840, Note_off_c, 1, 71, 0
2, 15840, Note_off_c, 1, 74, 0
2, 15840, Note_off_c, 1, 77, 0
2, 15840, Note_off_c, 1, 81, 0
2, 15920, Note_on_c, 1, 32, 127
2, 15920, Note_on_c, 1, 44, 127
2, 15920, Note_on_c, 1, 64, 127
2, 15920, Note_on_c, 1, 68, 127
2, 15920, Note_on_c, 1, 71, 127
2, 15920, Note_on_c, 1, 76, 127
2, 16000, Note_off_c, 1, 64, 0
2, 16000, Note_off_c, 1, 68, 0
2, 16000, Note_off_c, 1, 71, 0
2, 16000, Note_off_c, 1, 76, 0
2, 16040, Note_on_c, 1, 63, 127
2, 16040, Note_on_c, 1, 75, 127
2, 16160, Note_off_c, 1, 32, 0
2, 16160, Note_off_c, 1, 44, 0
2, 16160, Note_off_c, 1, 63, 0
2, 16160, Note_off_c, 1, 75, 0
2, 16200, Note_on_c, 1, 34, 127
2, 16200, Note_on_c, 1, 46, 127
2, 16200, Note_on_c, 1, 61, 127
2, 16200, Note_on_c, 1, 66, 127
2, 16200, Note_on_c, 1, 70, 127
2, 16200, Note_on_c, 1, 73, 127
2, 16440, Note_off_c, 1, 34, 0
2, 16440, Note_off_c, 1, 46, 0
2, 16440, Note_off_c, 1, 61, 0
2, 16440, Note_off_c, 1, 66, 0
2, 16440, Note_off_c, 1, 70, 0
2, 16440, Note_off_c, 1, 73, 0
2, 16480, Note_on_c, 1, 56, 127
2, 16480, Note_on_c, 1, 63, 127
2, 16480, Note_on_c, 1, 70, 127
2, 16480, Note_on_c, 1, 73, 127
2, 16480, Note_on_c, 1, 75, 127
2, 16480, Note_on_c, 1, 79, 127
2, 16480, Note_on_c, 1, 85, 127
2, 16520, Note_on_c, 1, 68, 127
2, 16520, Note_off_c, 1, 70, 0
2, 16520, Note_on_c, 1, 72, 127
2, 16520, Note_off_c, 1, 73, 0
2, 16520, Note_off_c, 1, 75, 0
2, 16520, Note_off_c, 1, 79, 0
2, 16520, Note_on_c, 1, 80, 127
2, 16520, Note_on_c, 1, 84, 127
2, 16520, Note_off_c, 1, 85, 0
2, 16720, Note_off_c, 1, 56, 0
2, 16720, Note_off_c, 1, 63, 0
2, 16720, Note_off_c, 1, 68, 0
2, 16720, Note_off_c, 1, 72, 0
2, 16720, Note_off_c, 1, 80, 0
2, 16720, Note_off_c, 1, 84, 0
2, 16760, Note_on_c, 1, 59, 127
2, 16760, Note_on_c, 1, 62, 127
2, 16760, Note_on_c, 1, 64, 127
2, 16760, Note_on_c, 1, 68, 127
2, 16760, Note_on_c, 1, 71, 127
2, 16760, Note_on_c, 1, 74, 127
2, 16760, Note_on_c, 1, 76, 127
2, 16760, Note_on_c, 1, 83, 127
2, 16800, Note_on_c, 1, 45, 127
2, 16800, Note_on_c, 1, 52, 127
2, 16800, Note_on_c, 1, 54, 127
2, 16800, Note_on_c, 1, 57, 127
2, 16800, Note_off_c, 1, 59, 0
2, 16800, Note_on_c, 1, 60, 127
2, 16800, Note_off_c, 1, 62, 0
2, 16800, Note_on_c, 1, 63, 127
2, 16800, Note_off_c, 1, 64, 0
2, 16800, Note_off_c, 1, 68, 0
2, 16800, Note_off_c, 1, 71, 0
2, 16800, Note_off_c, 1, 74, 0
2, 16800, Note_off_c, 1, 76, 0
2, 16800, Note_off_c, 1, 83, 0
2, 16840, Note_off_c, 1, 45, 0
2, 16840, Note_off_c, 1, 52, 0
2, 16840, Note_off_c, 1, 54, 0
2, 16840, Note_off_c, 1, 57, 0
2, 16840, Note_on_c, 1, 59, 127
2, 16840, Note_off_c, 1, 60, 0
2, 16840, Note_on_c, 1, 62, 127
2, 16840, Note_off_c, 1, 63, 0
2, 16840, Note_on_c, 1, 64, 127
2, 16840, Note_on_c, 1, 68, 127
2, 16840, Note_on_c, 1, 71, 127
2, 16840, Note_on_c, 1, 74, 127
2, 16840, Note_on_c, 1, 76, 127
2, 16840, Note_on_c, 1, 83, 127
2, 17000, Note_off_c, 1, 59, 0
2, 17000, Note_off_c, 1, 62, 0
2, 17000, Note_off_c, 1, 64, 0
2, 17000, Note_off_c, 1, 68, 0
2, 17000, Note_off_c, 1, 71, 0
2, 17000, Note_off_c, 1, 74, 0
2, 17000, Note_off_c, 1, 76, 0
2, 17000, Note_off_c, 1, 83, 0
2, 17040, Note_on_c, 1, 51, 127
2, 17040, Note_on_c, 1, 63, 127
2, 17040, Note_on_c, 1, 72, 127
2, 17040, Note_on_c, 1, 78, 127
2, 17040, Note_on_c, 1, 80, 127
2, 17040, Note_on_c, 1, 84, 127
2, 17560, Note_off_c, 1, 51, 0
2, 17560, Note_off_c, 1, 63, 0
2, 17560, Note_off_c, 1, 72, 0
2, 17560, Note_off_c, 1, 78, 0
2, 17560, Note_off_c, 1, 80, 0
2, 17560, Note_off_c, 1, 84, 0
2, 17600, Note_on_c, 1, 53, 127
2, 17600, Note_on_c, 1, 65, 127
2, 17600, Note_on_c, 1, 73, 127
2, 17600, Note_on_c, 1, 80, 127
2, 17600, Note_on_c, 1, 85, 127
2, 17840, Note_off_c, 1, 53, 0
2, 17840, Note_off_c, 1, 65, 0
2, 17840, Note_off_c, 1, 73, 0
2, 17840, Note_off_c, 1, 80, 0
2, 17840, Note_off_c, 1, 85, 0
2, 17880, Note_on_c, 1, 34, 127
2, 17880, Note_on_c, 1, 40, 127
2, 17880, Note_on_c, 1, 43, 127
2, 17880, Note_on_c, 1, 46, 127
2, 17880, Note_on_c, 1, 85, 127
2, 17880, Note_on_c, 1, 88, 127
2, 17880, Note_on_c, 1, 91, 127
2, 17880, Note_on_c, 1, 97, 127
2, 17920, Note_off_c, 1, 34, 0
2, 17920, Note_off_c, 1, 40, 0
2, 17920, Note_off_c, 1, 43, 0
2, 17920, Note_off_c, 1, 46, 0
2, 17920, Note_off_c, 1, 85, 0
2, 17920, Note_off_c, 1, 88, 0
2, 17920, Note_off_c, 1, 91, 0
2, 17920, Note_off_c, 1, 97, 0
2, 17960, Note_on_c, 1, 34, 127
2, 17960, Note_on_c, 1, 40, 127
2, 17960, Note_on_c, 1, 43, 127
2, 17960, Note_on_c, 1, 46, 127
2, 17960, Note_on_c, 1, 85, 127
2, 17960, Note_on_c, 1, 88, 127
2, 17960, Note_on_c, 1, 91, 127
2, 17960, Note_on_c, 1, 97, 127
2, 18160, Note_off_c, 1, 34, 0
2, 18160, Note_off_c, 1, 40, 0
2, 18160, Note_off_c, 1, 43, 0
2, 18160, Note_off_c, 1, 46, 0
2, 18160, Note_off_c, 1, 85, 0
2, 18160, Note_off_c, 1, 88, 0
2, 18160, Note_off_c, 1, 91, 0
2, 18160, Note_off_c, 1, 97, 0
2, 18200, Note_on_c, 1, 55, 127
2, 18200, Note_on_c, 1, 67, 127
2, 18200, Note_on_c, 1, 76, 127
2, 18200, Note_on_c, 1, 79, 127
2, 18200, Note_on_c, 1, 88, 127
2, 18240, Note_on_c, 1, 40, 127
2, 18240, Note_on_c, 1, 52, 127
2, 18240, Note_off_c, 1, 55, 0
2, 18240, Note_on_c, 1, 64, 127
2, 18240, Note_off_c, 1, 67, 0
2, 18240, Note_off_c, 1, 76, 0
2, 18240, Note_off_c, 1, 79, 0
2, 18240, Note_off_c, 1, 88, 0
2, 18280, Note_off_c, 1, 40, 0
2, 18280, Note_off_c, 1, 52, 0
2, 18280, Note_on_c, 1, 55, 127
2, 18280, Note_off_c, 1, 64, 0
2, 18280, Note_on_c, 1, 67, 127
2, 18360, Note_on_c, 1, 63, 127
2, 18360, Note_on_c, 1, 71, 127
2, 18360, Note_on_c, 1, 75, 127
2, 18400, Note_off_c, 1, 63, 0
2, 18400, Note_off_c, 1, 71, 0
2, 18400, Note_off_c, 1, 75, 0
2, 18440, Note_off_c, 1, 55, 0
2, 18440, Note_off_c, 1, 67, 0
2, 18480, Note_on_c, 1, 42, 127
2, 18480, Note_on_c, 1, 54, 127
2, 18480, Note_on_c, 1, 70, 127
2, 18480, Note_on_c, 1, 76, 127
2, 18480, Note_on_c, 1, 82, 127
2, 18720, Note_off_c, 1, 42, 0
2, 18720, Note_off_c, 1, 54, 0
2, 18720, Note_off_c, 1, 70, 0
2, 18720, Note_off_c, 1, 76, 0
2, 18720, Note_off_c, 1, 82, 0
2, 18760, Note_on_c, 1, 42, 127
2, 18760, Note_on_c, 1, 54, 127
2, 18760, Note_on_c, 1, 61, 127
2, 18760, Note_on_c, 1, 76, 127
2, 18760, Note_on_c, 1, 88, 127
2, 19000, Note_off_c, 1, 42, 0
2, 19000, Note_off_c, 1, 54, 0
2, 19000, Note_off_c, 1, 61, 0
2, 19000, Note_off_c, 1, 76, 0
2, 19000, Note_off_c, 1, 88, 0
2, 19040, Note_on_c, 1, 50, 127
2, 19040, Note_on_c, 1, 62, 127
2, 19040, Note_on_c, 1, 69, 127
2, 19040, Note_on_c, 1, 78, 127
2, 19040, Note_on_c, 1, 81, 127
2, 19280, Note_off_c, 1, 50, 0
2, 19280, Note_off_c, 1, 62, 0
2, 19280, Note_off_c, 1, 69, 0
2, 19280, Note_off_c, 1, 78, 0
2, 19280, Note_off_c, 1, 81, 0
2, 19320, Note_on_c, 1, 38, 127
2, 19320, Note_on_c, 1, 50, 127
2, 19320, Note_on_c, 1, 79, 127
2, 19320, Note_on_c, 1, 82, 127
2, 19320, Note_on_c, 1, 86, 127
2, 19320, Note_on_c, 1, 91, 127
2, 19560, Note_off_c, 1, 38, 0
2, 19560, Note_off_c, 1, 50, 0
2, 19560, Note_off_c, 1, 79, 0
2, 19560, Note_off_c, 1, 82, 0
2, 19560, Note_off_c, 1, 86, 0
2, 19560, Note_off_c, 1, 91, 0
2, 19600, Note_on_c, 1, 77, 127
2, 19600, Note_on_c, 1, 83, 127
2, 19600, Note_on_c, 1, 86, 127
2, 19600, Note_on_c, 1, 92, 127
2, 19840, Note_off_c, 1, 77, 0
2, 19840, Note_off_c, 1, 83, 0
2, 19840, Note_off_c, 1, 86, 0
2, 19840, Note_off_c, 1, 92, 0
2, 19880, Note_on_c, 1, 83, 127
2, 19880, Note_on_c, 1, 89, 127
2, 19880, Note_on_c, 1, 92, 127
2, 19880, Note_on_c, 1, 98, 127
2, 20120, Note_off_c, 1, 83, 0
2, 20120, Note_off_c, 1, 89, 0
2, 20120, Note_off_c, 1, 92, 0
2, 20120, Note_off_c, 1, 98, 0
2, 20160, Note_on_c, 1, 84, 127
2, 20160, Note_on_c, 1, 90, 127
2, 20160, Note_on_c, 1, 93, 127
2, 20160, Note_on_c, 1, 99, 127
2, 20200, Note_off_c, 1, 84, 0
2, 20200, Note_on_c, 1, 86, 127
2, 20200, Note_off_c, 1, 90, 0
2, 20200, Note_on_c, 1, 92, 127
2, 20200, Note_off_c, 1, 93, 0
2, 20200, Note_on_c, 1, 95, 127
2, 20200, Note_off_c, 1, 99, 0
2, 20200, Note_on_c, 1, 101, 127
2, 20280, Note_off_c, 1, 86, 0
2, 20280, Note_off_c, 1, 92, 0
2, 20280, Note_off_c, 1, 95, 0
2, 20280, Note_off_c, 1, 101, 0
2, 20320, Note_on_c, 1, 86, 127
2, 20320, Note_on_c, 1, 92, 127
2, 20320, Note_on_c, 1, 95, 127
2, 20320, Note_on_c, 1, 101, 127
2, 20360, Note_off_c, 1, 86, 0
2, 20360, Note_on_c, 1, 87, 127
2, 20360, Note_off_c, 1, 92, 0
2, 20360, Note_on_c, 1, 93, 127
2, 20360, Note_off_c, 1, 95, 0
2, 20360, Note_on_c, 1, 96, 127
2, 20360, Note_off_c, 1, 101, 0
2, 20360, Note_on_c, 1, 102, 127
2, 20440, Note_off_c, 1, 87, 0
2, 20440, Note_off_c, 1, 93, 0
2, 20440, Note_off_c, 1, 96, 0
2, 20440, Note_off_c, 1, 102, 0
2, 20480, Note_on_c, 1, 47, 127
2, 20480, Note_on_c, 1, 59, 127
2, 20480, Note_on_c, 1, 71, 127
2, 20480, Note_on_c, 1, 75, 127
2, 20480, Note_on_c, 1, 83, 127
2, 20720, Note_off_c, 1, 47, 0
2, 20720, Note_off_c, 1, 59, 0
2, 20720, Note_off_c, 1, 71, 0
2, 20720, Note_off_c, 1, 75, 0
2, 20720, Note_off_c, 1, 83, 0
2, 20760, Note_on_c, 1, 47, 127
2, 20760, Note_on_c, 1, 59, 127
2, 20760, Note_on_c, 1, 71, 127
2, 20760, Note_on_c, 1, 75, 127
2, 20760, Note_on_c, 1, 83, 127
2, 21000, Note_off_c, 1, 47, 0
2, 21000, Note_off_c, 1, 59, 0
2, 21000, Note_off_c, 1, 71, 0
2, 21000, Note_off_c, 1, 75, 0
2, 21000, Note_off_c, 1, 83, 0
2, 21040, Note_on_c, 1, 43, 127
2, 21040, Note_on_c, 1, 50, 127
2, 21040, Note_on_c, 1, 55, 127
2, 21040, Note_on_c, 1, 71, 127
2, 21040, Note_on_c, 1, 74, 127
2, 21040, Note_on_c, 1, 79, 127
2, 21040, Note_on_c, 1, 83, 127
2, 21280, Note_off_c, 1, 43, 0
2, 21280, Note_off_c, 1, 50, 0
2, 21280, Note_off_c, 1, 55, 0
2, 21280, Note_off_c, 1, 71, 0
2, 21280, Note_off_c, 1, 74, 0
2, 21280, Note_off_c, 1, 79, 0
2, 21280, Note_off_c, 1, 83, 0
2, 21320, Note_on_c, 1, 38, 127
2, 21320, Note_on_c, 1, 50, 127
2, 21320, Note_on_c, 1, 69, 127
2, 21320, Note_on_c, 1, 72, 127
2, 21320, Note_on_c, 1, 78, 127
2, 21320, Note_on_c, 1, 81, 127
2, 21560, Note_off_c, 1, 38, 0
2, 21560, Note_off_c, 1, 50, 0
2, 21560, Note_off_c, 1, 69, 0
2, 21560, Note_off_c, 1, 72, 0
2, 21560, Note_off_c, 1, 78, 0
2, 21560, Note_off_c, 1, 81, 0
2, 21600, Note_on_c, 1, 31, 127
2, 21600, Note_on_c, 1, 43, 127
2, 21600, Note_on_c, 1, 67, 127
2, 21600, Note_on_c, 1, 71, 127
2, 21600, Note_on_c, 1, 74, 127
2, 21600, Note_on_c, 1, 79, 127
2, 21840, Note_off_c, 1, 31, 0
2, 21840, Note_off_c, 1, 43, 0
2, 21840, Note_off_c, 1, 67, 0
2, 21840, Note_off_c, 1, 71, 0
2, 21840, Note_off_c, 1, 74, 0
2, 21840, Note_off_c, 1, 79, 0
2, 21880, Note_on_c, 1, 46, 127
2, 21880, Note_on_c, 1, 58, 127
2, 21880, Note_on_c, 1, 65, 127
2, 21880, Note_on_c, 1, 69, 127
2, 21880, Note_on_c, 1, 77, 127
2, 21920, Note_off_c, 1, 46, 0
2, 21920, Note_on_c, 1, 52, 127
2, 21920, Note_on_c, 1, 55, 127
2, 21920, Note_off_c, 1, 58, 0
2, 21920, Note_off_c, 1, 65, 0
2, 21920, Note_off_c, 1, 69, 0
2, 21920, Note_on_c, 1, 70, 127
2, 21920, Note_on_c, 1, 74, 127
2, 21920, Note_off_c, 1, 77, 0
2, 21920, Note_on_c, 1, 82, 127
2, 21960, Note_on_c, 1, 41, 127
2, 21960, Note_on_c, 1, 49, 127
2, 21960, Note_off_c, 1, 55, 0
2, 21960, Note_on_c, 1, 58, 127
2, 21960, Note_off_c, 1, 70, 0
2, 21960, Note_off_c, 1, 74, 0
2, 21960, Note_off_c, 1, 82, 0
2, 21960, Note_on_c, 1, 85, 127
2, 21960, Note_on_c, 1, 91, 127
2, 21960, Note_on_c, 1, 94, 127
2, 22000, Note_off_c, 1, 41, 0
2, 22000, Note_off_c, 1, 49, 0
2, 22000, Note_off_c, 1, 52, 0
2, 22000, Note_off_c, 1, 58, 0
2, 22000, Note_on_c, 1, 72, 127
2, 22000, Note_on_c, 1, 74, 127
2, 22000, Note_on_c, 1, 81, 127
2, 22000, Note_on_c, 1, 83, 127
2, 22000, Note_off_c, 1, 85, 0
2, 22000, Note_off_c, 1, 91, 0
2, 22000, Note_off_c, 1, 94, 0
2, 22040, Note_on_c, 1, 40, 127
2, 22040, Note_on_c, 1, 54, 127
2, 22040, Note_on_c, 1, 69, 127
2, 22040, Note_off_c, 1, 72, 0
2, 22040, Note_off_c, 1, 74, 0
2, 22040, Note_on_c, 1, 75, 127
2, 22040, Note_on_c, 1, 78, 127
2, 22040, Note_off_c, 1, 81, 0
2, 22080, Note_on_c, 1, 39, 127
2, 22080, Note_off_c, 1, 40, 0
2, 22080, Note_on_c, 1, 51, 127
2, 22080, Note_off_c, 1, 54, 0
2, 22080, Note_on_c, 1, 61, 127
2, 22080, Note_on_c, 1, 66, 127
2, 22080, Note_off_c, 1, 69, 0
2, 22080, Note_on_c, 1, 70, 127
2, 22080, Note_on_c, 1, 73, 127
2, 22080, Note_off_c, 1, 75, 0
2, 22080, Note_off_c, 1, 78, 0
2, 22080, Note_on_c, 1, 82, 127
2, 22080, Note_off_c, 1, 83, 0
2, 22120, Note_off_c, 1, 39, 0
2, 22120, Note_off_c, 1, 51, 0
2, 22120, Note_off_c, 1, 61, 0
2, 22120, Note_off_c, 1, 66, 0
2, 22120, Note_off_c, 1, 70, 0
2, 22120, Note_off_c, 1, 73, 0
2, 22120, Note_off_c, 1, 82, 0
2, 22160, Note_on_c, 1, 52, 127
2, 22160, Note_on_c, 1, 59, 127
2, 22160, Note_on_c, 1, 64, 127
2, 22160, Note_on_c, 1, 67, 127
2, 22160, Note_on_c, 1, 71, 127
2, 22160, Note_on_c, 1, 78, 127
2, 22600, Note_off_c, 1, 52, 0
2, 22600, Note_off_c, 1, 59, 0
2, 22600, Note_off_c, 1, 64, 0
2, 22600, Note_off_c, 1, 67, 0
2, 22600, Note_off_c, 1, 71, 0
2, 22600, Note_off_c, 1, 78, 0
2, 22640, Note_on_c, 1, 52, 127
2, 22640, Note_on_c, 1, 59, 127
2, 22640, Note_on_c, 1, 64, 127
2, 22640, Note_on_c, 1, 67, 127
2, 22640, Note_on_c, 1, 71, 127
2, 22640, Note_on_c, 1, 78, 127
2, 22720, Note_off_c, 1, 52, 0
2, 22720, Note_off_c, 1, 59, 0
2, 22720, Note_off_c, 1, 64, 0
2, 22720, Note_off_c, 1, 67, 0
2, 22720, Note_off_c, 1, 71, 0
2, 22720, Note_off_c, 1, 78, 0
2, 22760, Note_on_c, 1, 47, 127
2, 22760, Note_on_c, 1, 53, 127
2, 22760, Note_on_c, 1, 55, 127
2, 22760, Note_on_c, 1, 71, 127
2, 22760, Note_on_c, 1, 83, 127
2, 22800, Note_off_c, 1, 47, 0
2, 22800, Note_off_c, 1, 55, 0
2, 22800, Note_off_c, 1, 71, 0
2, 22800, Note_on_c, 1, 74, 127
2, 22800, Note_on_c, 1, 77, 127
2, 22800, Note_on_c, 1, 80, 127
2, 22800, Note_on_c, 1, 82, 127
2, 22800, Note_off_c, 1, 83, 0
2, 22840, Note_on_c, 1, 47, 127
2, 22840, Note_on_c, 1, 55, 127
2, 22840, Note_on_c, 1, 71, 127
2, 22840, Note_off_c, 1, 74, 0
2, 22840, Note_off_c, 1, 77, 0
2, 22840, Note_off_c, 1, 80, 0
2, 22840, Note_off_c, 1, 82, 0
2, 22840, Note_on_c, 1, 83, 127
2, 22880, Note_off_c, 1, 47, 0
2, 22880, Note_off_c, 1, 53, 0
2, 22880, Note_off_c, 1, 55, 0
2, 22880, Note_on_c, 1, 68, 127
2, 22880, Note_off_c, 1, 71, 0
2, 22880, Note_on_c, 1, 74, 127
2, 22880, Note_on_c, 1, 77, 127
2, 22880, Note_on_c, 1, 89, 127
2, 22880, Note_on_c, 1, 95, 127
2, 22920, Note_on_c, 1, 43, 127
2, 22920, Note_on_c, 1, 59, 127
2, 22920, Note_on_c, 1, 67, 127
2, 22920, Note_off_c, 1, 68, 0
2, 22920, Note_on_c, 1, 71, 127
2, 22920, Note_off_c, 1, 77, 0
2, 22920, Note_off_c, 1, 83, 0
2, 22920, Note_off_c, 1, 89, 0
2, 22920, Note_off_c, 1, 95, 0
2, 22960, Note_on_c, 1, 51, 127
2, 22960, Note_off_c, 1, 59, 0
2, 22960, Note_on_c, 1, 63, 127
2, 22960, Note_off_c, 1, 67, 0
2, 22960, Note_on_c, 1, 70, 127
2, 22960, Note_off_c, 1, 71, 0
2, 22960, Note_off_c, 1, 74, 0
2, 23000, Note_off_c, 1, 43, 0
2, 23000, Note_off_c, 1, 51, 0
2, 23000, Note_off_c, 1, 63, 0
2, 23000, Note_off_c, 1, 70, 0
2, 23040, Note_on_c, 1, 36, 127
2, 23040, Note_on_c, 1, 60, 127
2, 23040, Note_on_c, 1, 64, 127
2, 23040, Note_on_c, 1, 76, 127
2, 23280, Note_off_c, 1, 60, 0
2, 23280, Note_off_c, 1, 64, 0
2, 23320, Note_on_c, 1, 59, 127
2, 23320, Note_on_c, 1, 74, 127
2, 23560, Note_off_c, 1, 36, 0
2, 23560, Note_off_c, 1, 59, 0
2, 23560, Note_off_c, 1, 74, 0
2, 23600, Note_on_c, 1, 57, 127
2, 23600, Note_on_c, 1, 72, 127
2, 23800, Note_off_c, 1, 72, 0
2, 23800, Note_off_c, 1, 76, 0
2, 23840, Note_off_c, 1, 57, 0
2, 23880, Note_on_c, 1, 53, 127
2, 23880, Note_on_c, 1, 69, 127
2, 23880, Note_on_c, 1, 76, 127
2, 24080, Note_off_c, 1, 76, 0
2, 24120, Note_on_c, 1, 40, 127
2, 24120, Note_off_c, 1, 53, 0
2, 24120, Note_on_c, 1, 65, 127
2, 24360, Note_off_c, 1, 40, 0
2, 24360, Note_off_c, 1, 65, 0
2, 24360, Note_off_c, 1, 69, 0
2, 24400, Note_on_c, 1, 41, 127
2, 24400, Note_on_c, 1, 65, 127
2, 24400, Note_on_c, 1, 69, 127
2, 24640, Note_off_c, 1, 41, 0
2, 24640, Note_off_c, 1, 65, 0
2, 24640, Note_off_c, 1, 69, 0
2, 24720, Note_on_c, 1, 53, 127
2, 24720, Note_on_c, 1, 69, 127
2, 24720, Note_on_c, 1, 72, 127
2, 24960, Note_off_c, 1, 53, 0
2, 24960, Note_off_c, 1, 69, 0
2, 24960, Note_off_c, 1, 72, 0
2, 25000, Note_on_c, 1, 50, 127
2, 25000, Note_on_c, 1, 70, 127
2, 25200, Note_off_c, 1, 50, 0
2, 25280, Note_on_c, 1, 46, 127
2, 25280, Note_on_c, 1, 65, 127
2, 25440, Note_off_c, 1, 46, 0
2, 25480, Note_on_c, 1, 46, 127
2, 25520, Note_off_c, 1, 46, 0
2, 25560, Note_on_c, 1, 53, 127
2, 25560, Note_on_c, 1, 58, 127
2, 25560, Note_on_c, 1, 63, 127
2, 25560, Note_off_c, 1, 65, 0
2, 25560, Note_on_c, 1, 67, 127
2, 25560, Note_off_c, 1, 70, 0
2, 25800, Note_off_c, 1, 53, 0
2, 25800, Note_off_c, 1, 58, 0
2, 25800, Note_off_c, 1, 63, 0
2, 25800, Note_off_c, 1, 67, 0
2, 25840, Note_on_c, 1, 53, 127
2, 25840, Note_on_c, 1, 57, 127
2, 25840, Note_on_c, 1, 60, 127
2, 25840, Note_on_c, 1, 65, 127
2, 26080, Note_off_c, 1, 57, 0
2, 26080, Note_off_c, 1, 60, 0
2, 26080, Note_off_c, 1, 65, 0
2, 26120, Note_on_c, 1, 60, 127
2, 26120, Note_on_c, 1, 63, 127
2, 26120, Note_on_c, 1, 69, 127
2, 26360, Note_off_c, 1, 53, 0
2, 26360, Note_off_c, 1, 60, 0
2, 26360, Note_off_c, 1, 63, 0
2, 26360, Note_off_c, 1, 69, 0
2, 26400, Note_on_c, 1, 46, 127
2, 26400, Note_on_c, 1, 53, 127
2, 26400, Note_on_c, 1, 62, 127
2, 26400, Note_on_c, 1, 70, 127
2, 26640, Note_off_c, 1, 53, 0
2, 26640, Note_off_c, 1, 62, 0
2, 26640, Note_off_c, 1, 70, 0
2, 26680, Note_on_c, 1, 50, 127
2, 26680, Note_on_c, 1, 70, 127
2, 26840, Note_off_c, 1, 46, 0
2, 26840, Note_off_c, 1, 50, 0
2, 26840, Note_off_c, 1, 70, 0
2, 26880, Note_on_c, 1, 46, 127
2, 26880, Note_on_c, 1, 50, 127
2, 26880, Note_on_c, 1, 70, 127
2, 26960, Note_off_c, 1, 50, 0
2, 26960, Note_off_c, 1, 70, 0
2, 27000, Note_off_c, 1, 46, 0
2, 27000, Note_on_c, 1, 50, 127
2, 27000, Note_on_c, 1, 72, 127
2, 27240, Note_off_c, 1, 50, 0
2, 27240, Note_off_c, 1, 72, 0
2, 27280, Note_on_c, 1, 46, 127
2, 27280, Note_on_c, 1, 70, 127
2, 27280, Note_on_c, 1, 73, 127
2, 27480, Note_off_c, 1, 70, 0
2, 27480, Note_off_c, 1, 73, 0
2, 27520, Note_on_c, 1, 70, 127
2, 27520, Note_on_c, 1, 73, 127
2, 27760, Note_off_c, 1, 70, 0
2, 27760, Note_off_c, 1, 73, 0
2, 27800, Note_on_c, 1, 63, 127
2, 27800, Note_on_c, 1, 65, 127
2, 28000, Note_off_c, 1, 65, 0
2, 28040, Note_off_c, 1, 46, 0
2, 28040, Note_off_c, 1, 63, 0
2, 28080, Note_on_c, 1, 34, 127
2, 28080, Note_on_c, 1, 67, 127
2, 28080, Note_on_c, 1, 70, 127
2, 28280, Note_off_c, 1, 34, 0
2, 28280, Note_on_c, 1, 46, 127
2, 28280, Note_off_c, 1, 67, 0
2, 28280, Note_off_c, 1, 70, 0
2, 28320, Note_on_c, 1, 63, 127
2, 28560, Note_off_c, 1, 46, 0
2, 28560, Note_off_c, 1, 63, 0
2, 28600, Note_on_c, 1, 53, 127
2, 28600, Note_on_c, 1, 61, 127
2, 28600, Note_on_c, 1, 70, 127
2, 28840, Note_off_c, 1, 61, 0
2, 28840, Note_off_c, 1, 70, 0
2, 28880, Note_on_c, 1, 64, 127
2, 28880, Note_on_c, 1, 67, 127
2, 29000, Note_off_c, 1, 53, 0
2, 29040, Note_off_c, 1, 64, 0
2, 29040, Note_off_c, 1, 67, 0
2, 29080, Note_on_c, 1, 53, 127
2, 29080, Note_on_c, 1, 64, 127
2, 29080, Note_on_c, 1, 67, 127
2, 29160, Note_off_c, 1, 53, 0
2, 29160, Note_off_c, 1, 64, 0
2, 29160, Note_off_c, 1, 67, 0
2, 29200, Note_on_c, 1, 53, 127
2, 29200, Note_on_c, 1, 61, 127
2, 29200, Note_on_c, 1, 67, 127
2, 29400, Note_off_c, 1, 67, 0
2, 29400, Note_on_c, 1, 70, 127
2, 29440, Note_off_c, 1, 53, 0
2, 29440, Note_off_c, 1, 61, 0
2, 29440, Note_off_c, 1, 70, 0
2, 29480, Note_on_c, 1, 53, 127
2, 29480, Note_on_c, 1, 61, 127
2, 29480, Note_on_c, 1, 69, 127
2, 29720, Note_off_c, 1, 61, 0
2, 29720, Note_off_c, 1, 69, 0
2, 29760, Note_on_c, 1, 60, 127
2, 29760, Note_on_c, 1, 69, 127
2, 29960, Note_off_c, 1, 60, 0
2, 30000, Note_off_c, 1, 53, 0
2, 30000, Note_off_c, 1, 69, 0
2, 30040, Note_on_c, 1, 53, 127
2, 30040, Note_on_c, 1, 61, 127
2, 30040, Note_on_c, 1, 69, 127
2, 30280, Note_off_c, 1, 53, 0
2, 30280, Note_off_c, 1, 61, 0
2, 30280, Note_off_c, 1, 69, 0
2, 30320, Note_on_c, 1, 53, 127
2, 30320, Note_on_c, 1, 60, 127
2, 30320, Note_on_c, 1, 69, 127
2, 30520, Note_off_c, 1, 60, 0
2, 30560, Note_off_c, 1, 53, 0
2, 30560, Note_off_c, 1, 69, 0
2, 30600, Note_on_c, 1, 53, 127
2, 30600, Note_on_c, 1, 60, 127
2, 30600, Note_on_c, 1, 69, 127
2, 30800, Note_off_c, 1, 60, 0
2, 30840, Note_off_c, 1, 53, 0
2, 30840, Note_off_c, 1, 69, 0
2, 30840, Note_on_c, 1, 72, 127
2, 30880, Note_on_c, 1, 53, 127
2, 30880, Note_on_c, 1, 63, 127
2, 30880, Note_on_c, 1, 69, 127
2, 30880, Note_off_c, 1, 72, 0
2, 31120, Note_off_c, 1, 53, 0
2, 31120, Note_off_c, 1, 63, 0
2, 31120, Note_off_c, 1, 69, 0
2, 31200, Note_on_c, 1, 51, 127
2, 31200, Note_on_c, 1, 69, 127
2, 31400, Note_off_c, 1, 51, 0
2, 31440, Note_on_c, 1, 53, 127
2, 31440, Note_on_c, 1, 63, 127
2, 31680, Note_off_c, 1, 53, 0
2, 31680, Note_off_c, 1, 63, 0
2, 31680, Note_off_c, 1, 69, 0
2, 31720, Note_on_c, 1, 53, 127
2, 31720, Note_on_c, 1, 65, 127
2, 31720, Note_on_c, 1, 73, 127
2, 31960, Note_off_c, 1, 53, 0
2, 31960, Note_off_c, 1, 65, 0
2, 31960, Note_off_c, 1, 73, 0
2, 32000, Note_on_c, 1, 48, 127
2, 32000, Note_on_c, 1, 72, 127
2, 32240, Note_off_c, 1, 48, 0
2, 32280, Note_on_c, 1, 48, 127
2, 32280, Note_on_c, 1, 67, 127
2, 32520, Note_off_c, 1, 48, 0
2, 32520, Note_off_c, 1, 67, 0
2, 32560, Note_on_c, 1, 53, 127
2, 32560, Note_on_c, 1, 68, 127
2, 32800, Note_off_c, 1, 53, 0
2, 32800, Note_off_c, 1, 68, 0
2, 32800, Note_off_c, 1, 72, 0
2, 32840, Note_on_c, 1, 50, 127
2, 32840, Note_on_c, 1, 71, 127
2, 33040, Note_off_c, 1, 50, 0
2, 33080, Note_on_c, 1, 50, 127
2, 33240, Note_off_c, 1, 50, 0
2, 33240, Note_off_c, 1, 71, 0
2, 33280, Note_on_c, 1, 50, 127
2, 33280, Note_on_c, 1, 71, 127
2, 33360, Note_off_c, 1, 50, 0
2, 33400, Note_on_c, 1, 57, 127
2, 33400, Note_on_c, 1, 60, 127
2, 33640, Note_off_c, 1, 57, 0
2, 33640, Note_off_c, 1, 60, 0
2, 33640, Note_off_c, 1, 71, 0
2, 33680, Note_on_c, 1, 55, 127
2, 33680, Note_on_c, 1, 62, 127
2, 33680, Note_on_c, 1, 70, 127
2, 33920, Note_off_c, 1, 55, 0
2, 33920, Note_off_c, 1, 62, 0
2, 33920, Note_off_c, 1, 70, 0
2, 33960, Note_on_c, 1, 48, 127
2, 34160, Note_on_c, 1, 55, 127
2, 34200, Note_off_c, 1, 48, 0
2, 34200, Note_off_c, 1, 55, 0
2, 34240, Note_on_c, 1, 48, 127
2, 34240, Note_on_c, 1, 54, 127
2, 34240, Note_on_c, 1, 70, 127
2, 34280, Note_off_c, 1, 54, 0
2, 34280, Note_off_c, 1, 70, 0
2, 34360, Note_on_c, 1, 64, 127
2, 34360, Note_on_c, 1, 69, 127
2, 34400, Note_off_c, 1, 64, 0
2, 34400, Note_off_c, 1, 69, 0
2, 34480, Note_off_c, 1, 48, 0
2, 34520, Note_on_c, 1, 48, 127
2, 34520, Note_on_c, 1, 67, 127
2, 34520, Note_on_c, 1, 70, 127
2, 34600, Note_off_c, 1, 67, 0
2, 34600, Note_off_c, 1, 70, 0
2, 34640, Note_on_c, 1, 72, 127
2, 34720, Note_off_c, 1, 72, 0
2, 34760, Note_on_c, 1, 55, 127
2, 34760, Note_on_c, 1, 70, 127
2, 35000, Note_off_c, 1, 55, 0
2, 35000, Note_off_c, 1, 70, 0
2, 35040, Note_on_c, 1, 52, 127
2, 35040, Note_on_c, 1, 67, 127
2, 35280, Note_off_c, 1, 52, 0
2, 35280, Note_off_c, 1, 67, 0
2, 35320, Note_off_c, 1, 48, 0
2, 35360, Note_on_c, 1, 48, 127
2, 35360, Note_on_c, 1, 60, 127
2, 35600, Note_off_c, 1, 48, 0
2, 35600, Note_off_c, 1, 60, 0
2, 35640, Note_on_c, 1, 52, 127
2, 35640, Note_on_c, 1, 58, 127
2, 35640, Note_on_c, 1, 60, 127
2, 35640, Note_on_c, 1, 67, 127
2, 35840, Note_on_c, 1, 48, 127
2, 35840, Note_off_c, 1, 58, 0
2, 35840, Note_off_c, 1, 60, 0
2, 35840, Note_off_c, 1, 67, 0
2, 35880, Note_off_c, 1, 52, 0
2, 35880, Note_on_c, 1, 58, 127
2, 35880, Note_on_c, 1, 64, 127
2, 35880, Note_on_c, 1, 67, 127
2, 36120, Note_off_c, 1, 48, 0
2, 36120, Note_off_c, 1, 58, 0
2, 36120, Note_off_c, 1, 64, 0
2, 36120, Note_off_c, 1, 67, 0
2, 36160, Note_on_c, 1, 53, 127
2, 36160, Note_on_c, 1, 69, 127
2, 36400, Note_off_c, 1, 53, 0
2, 36400, Note_off_c, 1, 69, 0
2, 36440, Note_on_c, 1, 58, 127
2, 36440, Note_on_c, 1, 62, 127
2, 36440, Note_on_c, 1, 65, 127
2, 36440, Note_on_c, 1, 70, 127
2, 36680, Note_off_c, 1, 58, 0
2, 36680, Note_off_c, 1, 62, 0
2, 36680, Note_off_c, 1, 65, 0
2, 36680, Note_off_c, 1, 70, 0
2, 36720, Note_on_c, 1, 53, 127
2, 36720, Note_on_c, 1, 60, 127
2, 36720, Note_on_c, 1, 69, 127
2, 36720, Note_on_c, 1, 74, 127
2, 36960, Note_off_c, 1, 60, 0
2, 36960, Note_off_c, 1, 74, 0
2, 37000, Note_on_c, 1, 60, 127
2, 37000, Note_on_c, 1, 72, 127
2, 37240, Note_off_c, 1, 53, 0
2, 37240, Note_off_c, 1, 60, 0
2, 37240, Note_off_c, 1, 69, 0
2, 37240, Note_off_c, 1, 72, 0
2, 37280, Note_on_c, 1, 51, 127
2, 37280, Note_on_c, 1, 67, 127
2, 37280, Note_on_c, 1, 74, 127
2, 37480, Note_off_c, 1, 51, 0
2, 37480, Note_on_c, 1, 52, 127
2, 37480, Note_on_c, 1, 70, 127
2, 37480, Note_off_c, 1, 74, 0
2, 37520, Note_off_c, 1, 52, 0
2, 37520, Note_off_c, 1, 67, 0
2, 37520, Note_off_c, 1, 70, 0
2, 37600, Note_on_c, 1, 53, 127
2, 37600, Note_on_c, 1, 63, 127
2, 37600, Note_on_c, 1, 77, 127
2, 37800, Note_off_c, 1, 53, 0
2, 37800, Note_off_c, 1, 63, 0
2, 37800, Note_off_c, 1, 77, 0
2, 37840, Note_on_c, 1, 53, 127
2, 37840, Note_on_c, 1, 65, 127
2, 37840, Note_on_c, 1, 70, 127
2, 37880, Note_on_c, 1, 69, 127
2, 37880, Note_off_c, 1, 70, 0
2, 38080, Note_off_c, 1, 53, 0
2, 38080, Note_off_c, 1, 69, 0
2, 38120, Note_on_c, 1, 50, 127
2, 38120, Note_on_c, 1, 70, 127
2, 38360, Note_off_c, 1, 50, 0
2, 38360, Note_off_c, 1, 70, 0
2, 38400, Note_on_c, 1, 45, 127
2, 38400, Note_on_c, 1, 72, 127
2, 38640, Note_off_c, 1, 45, 0
2, 38640, Note_off_c, 1, 72, 0
2, 38680, Note_on_c, 1, 46, 127
2, 38680, Note_on_c, 1, 74, 127
2, 38920, Note_off_c, 1, 46, 0
2, 38920, Note_off_c, 1, 65, 0
2, 38920, Note_off_c, 1, 74, 0
2, 38960, Note_on_c, 1, 48, 127
2, 38960, Note_on_c, 1, 55, 127
2, 38960, Note_on_c, 1, 70, 127
2, 38960, Note_on_c, 1, 77, 127
2, 39200, Note_off_c, 1, 77, 0
2, 39240, Note_off_c, 1, 48, 0
2, 39240, Note_on_c, 1, 53, 127
2, 39240, Note_off_c, 1, 55, 0
2, 39240, Note_on_c, 1, 57, 127
2, 39240, Note_on_c, 1, 69, 127
2, 39240, Note_off_c, 1, 70, 0
2, 39240, Note_on_c, 1, 77, 127
2, 39480, Note_off_c, 1, 53, 0
2, 39480, Note_off_c, 1, 57, 0
2, 39480, Note_off_c, 1, 69, 0
2, 39480, Note_off_c, 1, 77, 0
2, 39520, Note_on_c, 1, 58, 127
2, 39520, Note_on_c, 1, 70, 127
2, 39520, Note_on_c, 1, 74, 127
2, 39520, Note_on_c, 1, 77, 127
2, 39640, Note_off_c, 1, 58, 0
2, 39640, Note_off_c, 1, 70, 0
2, 39640, Note_off_c, 1, 74, 0
2, 39640, Note_off_c, 1, 77, 0
2, 39680, Note_on_c, 1, 58, 127
2, 39680, Note_on_c, 1, 70, 127
2, 39680, Note_on_c, 1, 74, 127
2, 39680, Note_on_c, 1, 77, 127
2, 39800, Note_off_c, 1, 58, 0
2, 39800, Note_off_c, 1, 70, 0
2, 39800, Note_off_c, 1, 74, 0
2, 39800, Note_off_c, 1, 77, 0
2, 39840, Note_on_c, 1, 53, 127
2, 39840, Note_on_c, 1, 82, 127
2, 39840, Note_on_c, 1, 86, 127
2, 40040, Note_off_c, 1, 53, 0
2, 40080, Note_on_c, 1, 65, 127
2, 40080, Note_on_c, 1, 77, 127
2, 40080, Note_on_c, 1, 79, 127
2, 40080, Note_off_c, 1, 82, 0
2, 40080, Note_off_c, 1, 86, 0
2, 40120, Note_off_c, 1, 79, 0
2, 40320, Note_off_c, 1, 65, 0
2, 40320, Note_off_c, 1, 77, 0
2, 40360, Note_on_c, 1, 58, 127
2, 40360, Note_on_c, 1, 60, 127
2, 40360, Note_on_c, 1, 67, 127
2, 40360, Note_on_c, 1, 79, 127
2, 40880, Note_on_c, 1, 55, 127
2, 40880, Note_off_c, 1, 58, 0
2, 40880, Note_off_c, 1, 60, 0
2, 40880, Note_off_c, 1, 67, 0
2, 40880, Note_off_c, 1, 79, 0
2, 40920, Note_on_c, 1, 65, 127
2, 40920, Note_on_c, 1, 71, 127
2, 40920, Note_on_c, 1, 76, 127
2, 41000, Note_off_c, 1, 76, 0
2, 41040, Note_on_c, 1, 74, 127
2, 41160, Note_off_c, 1, 55, 0
2, 41160, Note_off_c, 1, 65, 0
2, 41160, Note_off_c, 1, 71, 0
2, 41160, Note_off_c, 1, 74, 0
2, 41200, Note_on_c, 1, 60, 127
2, 41200, Note_on_c, 1, 64, 127
2, 41200, Note_on_c, 1, 72, 127
2, 41280, Note_off_c, 1, 72, 0
2, 41320, Note_on_c, 1, 76, 127
2, 41400, Note_off_c, 1, 60, 0
2, 41440, Note_on_c, 1, 57, 127
2, 41440, Note_on_c, 1, 72, 127
2, 41560, Note_off_c, 1, 64, 0
2, 41560, Note_off_c, 1, 72, 0
2, 41560, Note_off_c, 1, 76, 0
2, 41600, Note_on_c, 1, 65, 127
2, 41600, Note_on_c, 1, 74, 127
2, 41600, Note_on_c, 1, 77, 127
2, 41680, Note_off_c, 1, 57, 0
2, 41680, Note_off_c, 1, 65, 0
2, 41680, Note_off_c, 1, 74, 0
2, 41680, Note_off_c, 1, 77, 0
2, 41760, Note_on_c, 1, 55, 127
2, 41760, Note_on_c, 1, 64, 127
2, 41760, Note_on_c, 1, 72, 127
2, 41760, Note_on_c, 1, 76, 127
2, 42120, Note_off_c, 1, 64, 0
2, 42120, Note_off_c, 1, 76, 0
2, 42160, Note_on_c, 1, 48, 127
2, 42160, Note_off_c, 1, 55, 0
2, 42160, Note_on_c, 1, 60, 127
2, 42160, Note_on_c, 1, 64, 127
2, 42280, Note_off_c, 1, 48, 0
2, 42280, Note_off_c, 1, 60, 0
2, 42280, Note_off_c, 1, 64, 0
2, 42280, Note_off_c, 1, 72, 0
2, 42320, Note_on_c, 1, 48, 127
2, 42320, Note_on_c, 1, 52, 127
2, 42320, Note_on_c, 1, 72, 127
2, 42440, Note_on_c, 1, 67, 127
2, 42520, Note_off_c, 1, 52, 0
2, 42520, Note_off_c, 1, 67, 0
2, 42520, Note_off_c, 1, 72, 0
2, 42560, Note_off_c, 1, 48, 0
2, 42560, Note_on_c, 1, 57, 127
2, 42560, Note_on_c, 1, 60, 127
2, 42560, Note_on_c, 1, 65, 127
2, 42560, Note_on_c, 1, 69, 127
2, 42800, Note_off_c, 1, 60, 0
2, 42800, Note_off_c, 1, 65, 0
2, 42800, Note_off_c, 1, 69, 0
2, 42840, Note_on_c, 1, 60, 127
2, 42840, Note_on_c, 1, 65, 127
2, 42840, Note_on_c, 1, 72, 127
2, 42920, Note_off_c, 1, 72, 0
2, 42960, Note_on_c, 1, 69, 127
2, 43080, Note_off_c, 1, 57, 0
2, 43080, Note_off_c, 1, 60, 0
2, 43080, Note_off_c, 1, 65, 0
2, 43080, Note_off_c, 1, 69, 0
2, 43120, Note_on_c, 1, 36, 127
2, 43120, Note_on_c, 1, 64, 127
2, 43120, Note_on_c, 1, 67, 127
2, 43120, Note_on_c, 1, 72, 127
2, 43480, Note_off_c, 1, 36, 0
2, 43480, Note_off_c, 1, 64, 0
2, 43480, Note_off_c, 1, 67, 0
2, 43480, Note_off_c, 1, 72, 0
2, 43520, Note_on_c, 1, 48, 127
2, 43520, Note_on_c, 1, 64, 127
2, 43520, Note_on_c, 1, 67, 127
2, 43520, Note_on_c, 1, 72, 127
2, 43600, Note_off_c, 1, 48, 0
2, 43600, Note_off_c, 1, 64, 0
2, 43600, Note_off_c, 1, 67, 0
2, 43600, Note_off_c, 1, 72, 0
2, 43640, Note_on_c, 1, 57, 127
2, 43640, Note_on_c, 1, 60, 127
2, 43640, Note_on_c, 1, 65, 127
2, 43640, Note_on_c, 1, 69, 127
2, 43640, Note_on_c, 1, 72, 127
2, 43880, Note_off_c, 1, 57, 0
2, 43880, Note_off_c, 1, 60, 0
2, 43880, Note_off_c, 1, 65, 0
2, 43880, Note_off_c, 1, 69, 0
2, 43880, Note_off_c, 1, 72, 0
2, 43920, Note_on_c, 1, 57, 127
2, 43920, Note_on_c, 1, 60, 127
2, 43920, Note_on_c, 1, 65, 127
2, 43920, Note_on_c, 1, 69, 127
2, 43920, Note_on_c, 1, 72, 127
2, 44200, Note_off_c, 1, 57, 0
2, 44200, Note_off_c, 1, 60, 0
2, 44200, Note_off_c, 1, 65, 0
2, 44200, Note_off_c, 1, 69, 0
2, 44200, Note_off_c, 1, 72, 0
2, 44240, Note_on_c, 1, 55, 127
2, 44240, Note_on_c, 1, 61, 127
2, 44240, Note_on_c, 1, 65, 127
2, 44240, Note_on_c, 1, 70, 127
2, 44480, Note_off_c, 1, 70, 0
2, 44520, Note_off_c, 1, 55, 0
2, 44520, Note_on_c, 1, 64, 127
2, 44520, Note_off_c, 1, 65, 0
2, 44520, Note_on_c, 1, 67, 127
2, 44520, Note_on_c, 1, 73, 127
2, 44520, Note_on_c, 1, 82, 127
2, 44560, Note_off_c, 1, 82, 0
2, 44640, Note_on_c, 1, 58, 127
2, 44640, Note_off_c, 1, 61, 0
2, 44640, Note_on_c, 1, 63, 127
2, 44640, Note_off_c, 1, 64, 0
2, 44640, Note_off_c, 1, 67, 0
2, 44640, Note_on_c, 1, 91, 127
2, 44680, Note_off_c, 1, 58, 0
2, 44680, Note_on_c, 1, 61, 127
2, 44680, Note_off_c, 1, 63, 0
2, 44680, Note_on_c, 1, 64, 127
2, 44680, Note_on_c, 1, 67, 127
2, 44680, Note_off_c, 1, 91, 0
2, 44720, Note_on_c, 1, 81, 127
2, 44760, Note_off_c, 1, 61, 0
2, 44760, Note_off_c, 1, 64, 0
2, 44760, Note_off_c, 1, 67, 0
2, 44760, Note_off_c, 1, 73, 0
2, 44760, Note_off_c, 1, 81, 0
2, 44800, Note_on_c, 1, 48, 127
2, 44800, Note_on_c, 1, 52, 127
2, 44800, Note_on_c, 1, 58, 127
2, 44800, Note_on_c, 1, 60, 127
2, 44800, Note_on_c, 1, 67, 127
2, 45160, Note_off_c, 1, 60, 0
2, 45160, Note_off_c, 1, 67, 0
2, 45560, Note_off_c, 1, 48, 0
2, 45560, Note_off_c, 1, 52, 0
2, 45560, Note_off_c, 1, 58, 0
2, 45600, Note_on_c, 1, 45, 127
2, 45600, Note_on_c, 1, 57, 127
2, 45840, Note_off_c, 1, 45, 0
2, 45840, Note_off_c, 1, 57, 0
2, 45880, Note_on_c, 1, 36, 127
2, 45880, Note_on_c, 1, 48, 127
2, 45880, Note_on_c, 1, 55, 127
2, 45880, Note_on_c, 1, 67, 127
2, 46040, Note_off_c, 1, 36, 0
2, 46040, Note_off_c, 1, 48, 0
2, 46040, Note_off_c, 1, 55, 0
2, 46040, Note_off_c, 1, 67, 0
2, 46080, Note_on_c, 1, 36, 127
2, 46080, Note_on_c, 1, 48, 127
2, 46080, Note_on_c, 1, 55, 127
2, 46080, Note_on_c, 1, 67, 127
2, 46160, Note_off_c, 1, 55, 0
2, 46200, Note_on_c, 1, 60, 127
2, 46440, Note_off_c, 1, 36, 0
2, 46440, Note_off_c, 1, 48, 0
2, 46440, Note_off_c, 1, 60, 0
2, 46440, Note_off_c, 1, 67, 0
2, 46480, Note_on_c, 1, 41, 127
2, 46480, Note_on_c, 1, 53, 127
2, 46480, Note_on_c, 1, 60, 127
2, 46480, Note_on_c, 1, 65, 127
2, 46480, Note_on_c, 1, 69, 127
2, 46680, Note_off_c, 1, 69, 0
2, 46960, Note_off_c, 1, 41, 0
2, 46960, Note_off_c, 1, 53, 0
2, 46960, Note_off_c, 1, 60, 0
2, 46960, Note_off_c, 1, 65, 0
2, 47000, Note_on_c, 1, 38, 127
2, 47000, Note_on_c, 1, 50, 127
2, 47000, Note_on_c, 1, 57, 127
2, 47000, Note_on_c, 1, 62, 127
2, 47000, Note_on_c, 1, 65, 127
2, 47520, Note_off_c, 1, 38, 0
2, 47520, Note_off_c, 1, 50, 0
2, 47520, Note_off_c, 1, 57, 0
2, 47520, Note_off_c, 1, 62, 0
2, 47520, Note_off_c, 1, 65, 0
2, 47560, Note_on_c, 1, 48, 127
2, 47560, Note_on_c, 1, 60, 127
2, 47560, Note_on_c, 1, 65, 127
2, 47560, Note_on_c, 1, 69, 127
2, 47760, Note_on_c, 1, 63, 127
2, 47760, Note_off_c, 1, 65, 0
2, 47800, Note_off_c, 1, 63, 0
2, 47800, Note_off_c, 1, 69, 0
2, 47840, Note_on_c, 1, 69, 127
2, 47840, Note_on_c, 1, 72, 127
2, 47840, Note_on_c, 1, 77, 127
2, 47840, Note_on_c, 1, 81, 127
2, 48040, Note_off_c, 1, 48, 0
2, 48040, Note_off_c, 1, 60, 0
2, 48040, Note_off_c, 1, 69, 0
2, 48040, Note_off_c, 1, 72, 0
2, 48040, Note_off_c, 1, 77, 0
2, 48040, Note_off_c, 1, 81, 0
2, 48120, Note_on_c, 1, 48, 127
2, 48120, Note_on_c, 1, 60, 127
2, 48120, Note_on_c, 1, 69, 127
2, 48120, Note_on_c, 1, 72, 127
2, 48120, Note_on_c, 1, 77, 127
2, 48120, Note_on_c, 1, 81, 127
2, 48360, Note_off_c, 1, 69, 0
2, 48360, Note_off_c, 1, 72, 0
2, 48360, Note_off_c, 1, 77, 0
2, 48360, Note_off_c, 1, 81, 0
2, 48400, Note_on_c, 1, 65, 127
2, 48400, Note_on_c, 1, 77, 127
2, 48640, Note_off_c, 1, 48, 0
2, 48640, Note_off_c, 1, 60, 0
2, 48640, Note_off_c, 1, 65, 0
2, 48640, Note_off_c, 1, 77, 0
2, 48680, Note_on_c, 1, 46, 127
2, 48680, Note_on_c, 1, 58, 127
2, 48680, Note_on_c, 1, 65, 127
2, 48680, Note_on_c, 1, 77, 127
2, 48920, Note_off_c, 1, 46, 0
2, 48920, Note_off_c, 1, 58, 0
2, 48920, Note_off_c, 1, 65, 0
2, 48920, Note_off_c, 1, 77, 0
2, 48960, Note_on_c, 1, 49, 127
2, 48960, Note_on_c, 1, 61, 127
2, 48960, Note_on_c, 1, 65, 127
2, 48960, Note_on_c, 1, 77, 127
2, 49200, Note_off_c, 1, 49, 0
2, 49200, Note_off_c, 1, 61, 0
2, 49200, Note_off_c, 1, 65, 0
2, 49200, Note_off_c, 1, 77, 0
2, 49240, Note_on_c, 1, 43, 127
2, 49240, Note_on_c, 1, 55, 127
2, 49240, Note_on_c, 1, 67, 127
2, 49240, Note_on_c, 1, 79, 127
2, 49720, Note_off_c, 1, 43, 0
2, 49720, Note_off_c, 1, 55, 0
2, 49720, Note_off_c, 1, 67, 0
2, 49720, Note_off_c, 1, 79, 0
2, 49760, Note_on_c, 1, 41, 127
2, 49760, Note_on_c, 1, 53, 127
2, 49760, Note_on_c, 1, 60, 127
2, 49760, Note_on_c, 1, 69, 127
2, 49760, Note_on_c, 1, 72, 127
2, 50000, Note_off_c, 1, 41, 0
2, 50000, Note_off_c, 1, 53, 0
2, 50000, Note_off_c, 1, 60, 0
2, 50000, Note_off_c, 1, 69, 0
2, 50000, Note_off_c, 1, 72, 0
2, 50040, Note_on_c, 1, 38, 127
2, 50040, Note_on_c, 1, 50, 127
2, 50040, Note_on_c, 1, 58, 127
2, 50040, Note_on_c, 1, 70, 127
2, 50120, Note_off_c, 1, 38, 0
2, 50120, Note_off_c, 1, 50, 0
2, 50120, Note_off_c, 1, 58, 0
2, 50120, Note_off_c, 1, 70, 0
2, 50160, Note_on_c, 1, 38, 127
2, 50160, Note_on_c, 1, 50, 127
2, 50160, Note_on_c, 1, 58, 127
2, 50160, Note_on_c, 1, 70, 127
2, 50280, Note_off_c, 1, 38, 0
2, 50280, Note_off_c, 1, 50, 0
2, 50280, Note_off_c, 1, 58, 0
2, 50280, Note_off_c, 1, 70, 0
2, 50320, Note_on_c, 1, 36, 127
2, 50320, Note_on_c, 1, 48, 127
2, 50320, Note_on_c, 1, 62, 127
2, 50320, Note_on_c, 1, 66, 127
2, 50320, Note_on_c, 1, 69, 127
2, 50320, Note_on_c, 1, 74, 127
2, 50560, Note_off_c, 1, 36, 0
2, 50560, Note_off_c, 1, 48, 0
2, 50560, Note_off_c, 1, 62, 0
2, 50560, Note_off_c, 1, 66, 0
2, 50560, Note_off_c, 1, 69, 0
2, 50560, Note_off_c, 1, 74, 0
2, 50600, Note_on_c, 1, 33, 127
2, 50600, Note_on_c, 1, 45, 127
2, 50600, Note_on_c, 1, 64, 127
2, 50600, Note_on_c, 1, 69, 127
2, 50600, Note_on_c, 1, 73, 127
2, 50600, Note_on_c, 1, 76, 127
2, 50840, Note_off_c, 1, 33, 0
2, 50840, Note_off_c, 1, 45, 0
2, 50840, Note_off_c, 1, 64, 0
2, 50840, Note_off_c, 1, 69, 0
2, 50840, Note_off_c, 1, 73, 0
2, 50840, Note_off_c, 1, 76, 0
2, 50880, Note_on_c, 1, 43, 127
2, 50880, Note_on_c, 1, 55, 127
2, 50880, Note_on_c, 1, 62, 127
2, 50880, Note_on_c, 1, 67, 127
2, 50880, Note_on_c, 1, 72, 127
2, 51120, Note_off_c, 1, 43, 0
2, 51120, Note_off_c, 1, 55, 0
2, 51120, Note_off_c, 1, 62, 0
2, 51120, Note_off_c, 1, 67, 0
2, 51120, Note_off_c, 1, 72, 0
2, 51160, Note_on_c, 1, 46, 127
2, 51160, Note_on_c, 1, 58, 127
2, 51160, Note_on_c, 1, 67, 127
2, 51160, Note_on_c, 1, 79, 127
2, 51360, Note_off_c, 1, 46, 0
2, 51360, Note_off_c, 1, 58, 0
2, 51360, Note_off_c, 1, 67, 0
2, 51360, Note_off_c, 1, 79, 0
2, 51440, Note_on_c, 1, 46, 127
2, 51440, Note_on_c, 1, 58, 127
2, 51440, Note_on_c, 1, 67, 127
2, 51440, Note_on_c, 1, 79, 127
2, 51640, Note_off_c, 1, 46, 0
2, 51640, Note_off_c, 1, 58, 0
2, 51640, Note_off_c, 1, 67, 0
2, 51640, Note_off_c, 1, 79, 0
2, 51680, Note_on_c, 1, 52, 127
2, 51680, Note_on_c, 1, 59, 127
2, 51680, Note_on_c, 1, 63, 127
2, 51680, Note_on_c, 1, 64, 127
2, 51680, Note_on_c, 1, 71, 127
2, 51680, Note_on_c, 1, 75, 127
2, 51680, Note_on_c, 1, 76, 127
2, 51920, Note_off_c, 1, 52, 0
2, 51920, Note_off_c, 1, 59, 0
2, 51920, Note_off_c, 1, 63, 0
2, 51920, Note_off_c, 1, 64, 0
2, 51920, Note_off_c, 1, 71, 0
2, 51920, Note_off_c, 1, 75, 0
2, 51920, Note_off_c, 1, 76, 0
2, 51960, Note_on_c, 1, 52, 127
2, 51960, Note_on_c, 1, 57, 127
2, 51960, Note_on_c, 1, 61, 127
2, 51960, Note_on_c, 1, 64, 127
2, 51960, Note_on_c, 1, 69, 127
2, 51960, Note_on_c, 1, 73, 127
2, 51960, Note_on_c, 1, 76, 127
2, 52120, Note_off_c, 1, 52, 0
2, 52120, Note_off_c, 1, 57, 0
2, 52120, Note_off_c, 1, 61, 0
2, 52120, Note_off_c, 1, 64, 0
2, 52120, Note_off_c, 1, 69, 0
2, 52120, Note_off_c, 1, 73, 0
2, 52120, Note_off_c, 1, 76, 0
2, 52160, Note_on_c, 1, 52, 127
2, 52160, Note_on_c, 1, 57, 127
2, 52160, Note_on_c, 1, 61, 127
2, 52160, Note_on_c, 1, 64, 127
2, 52160, Note_on_c, 1, 69, 127
2, 52160, Note_on_c, 1, 73, 127
2, 52160, Note_on_c, 1, 76, 127
2, 52240, Note_off_c, 1, 52, 0
2, 52240, Note_off_c, 1, 57, 0
2, 52240, Note_off_c, 1, 61, 0
2, 52240, Note_off_c, 1, 64, 0
2, 52240, Note_off_c, 1, 69, 0
2, 52240, Note_off_c, 1, 73, 0
2, 52240, Note_off_c, 1, 76, 0
2, 52280, Note_on_c, 1, 45, 127
2, 52280, Note_on_c, 1, 57, 127
2, 52280, Note_on_c, 1, 64, 127
2, 52280, Note_on_c, 1, 69, 127
2, 52280, Note_on_c, 1, 72, 127
2, 52520, Note_off_c, 1, 45, 0
2, 52520, Note_off_c, 1, 57, 0
2, 52520, Note_off_c, 1, 64, 0
2, 52520, Note_off_c, 1, 69, 0
2, 52520, Note_off_c, 1, 72, 0
2, 52560, Note_on_c, 1, 57, 127
2, 52560, Note_on_c, 1, 60, 127
2, 52560, Note_on_c, 1, 65, 127
2, 52560, Note_on_c, 1, 69, 127
2, 52560, Note_on_c, 1, 77, 127
2, 52560, Note_on_c, 1, 84, 127
2, 52600, Note_off_c, 1, 77, 0
2, 52800, Note_off_c, 1, 57, 0
2, 52800, Note_off_c, 1, 60, 0
2, 52800, Note_off_c, 1, 65, 0
2, 52800, Note_off_c, 1, 69, 0
2, 52800, Note_off_c, 1, 84, 0
2, 52840, Note_on_c, 1, 60, 127
2, 52840, Note_on_c, 1, 67, 127
2, 52840, Note_on_c, 1, 76, 127
2, 52840, Note_on_c, 1, 82, 127
2, 53040, Note_off_c, 1, 60, 0
2, 53040, Note_off_c, 1, 67, 0
2, 53040, Note_off_c, 1, 76, 0
2, 53040, Note_off_c, 1, 82, 0
2, 53080, Note_on_c, 1, 60, 127
2, 53080, Note_on_c, 1, 67, 127
2, 53080, Note_on_c, 1, 76, 127
2, 53080, Note_on_c, 1, 82, 127
2, 53320, Note_off_c, 1, 60, 0
2, 53320, Note_off_c, 1, 67, 0
2, 53320, Note_off_c, 1, 76, 0
2, 53320, Note_off_c, 1, 82, 0
2, 53360, Note_on_c, 1, 60, 127
2, 53360, Note_on_c, 1, 67, 127
2, 53360, Note_on_c, 1, 76, 127
2, 53360, Note_on_c, 1, 82, 127
2, 53600, Note_off_c, 1, 60, 0
2, 53600, Note_off_c, 1, 67, 0
2, 53600, Note_off_c, 1, 76, 0
2, 53600, Note_off_c, 1, 82, 0
2, 53640, Note_on_c, 1, 50, 127
2, 53640, Note_on_c, 1, 62, 127
2, 53640, Note_on_c, 1, 65, 127
2, 53640, Note_on_c, 1, 70, 127
2, 53880, Note_off_c, 1, 50, 0
2, 53880, Note_off_c, 1, 62, 0
2, 53880, Note_off_c, 1, 65, 0
2, 53880, Note_off_c, 1, 70, 0
2, 53920, Note_on_c, 1, 38, 127
2, 53920, Note_on_c, 1, 50, 127
2, 53920, Note_on_c, 1, 58, 127
2, 53920, Note_on_c, 1, 65, 127
2, 53920, Note_on_c, 1, 70, 127
2, 54160, Note_off_c, 1, 38, 0
2, 54160, Note_off_c, 1, 50, 0
2, 54160, Note_off_c, 1, 58, 0
2, 54160, Note_off_c, 1, 65, 0
2, 54160, Note_off_c, 1, 70, 0
2, 54240, Note_on_c, 1, 36, 127
2, 54240, Note_on_c, 1, 48, 127
2, 54240, Note_on_c, 1, 58, 127
2, 54240, Note_on_c, 1, 64, 127
2, 54440, Note_off_c, 1, 36, 0
2, 54440, Note_off_c, 1, 48, 0
2, 54440, Note_off_c, 1, 58, 0
2, 54440, Note_off_c, 1, 64, 0
2, 54480, Note_on_c, 1, 36, 127
2, 54480, Note_on_c, 1, 48, 127
2, 54480, Note_on_c, 1, 58, 127
2, 54480, Note_on_c, 1, 69, 127
2, 54720, Note_off_c, 1, 36, 0
2, 54720, Note_off_c, 1, 48, 0
2, 54720, Note_off_c, 1, 58, 0
2, 54720, Note_off_c, 1, 69, 0
2, 54760, Note_on_c, 1, 36, 127
2, 54760, Note_on_c, 1, 48, 127
2, 54760, Note_on_c, 1, 58, 127
2, 54760, Note_on_c, 1, 64, 127
2, 55000, Note_off_c, 1, 36, 0
2, 55000, Note_off_c, 1, 48, 0
2, 55000, Note_off_c, 1, 58, 0
2, 55000, Note_off_c, 1, 64, 0
2, 55040, Note_on_c, 1, 36, 127
2, 55040, Note_on_c, 1, 48, 127
2, 55040, Note_on_c, 1, 58, 127
2, 55040, Note_on_c, 1, 67, 127
2, 55280, Note_off_c, 1, 36, 0
2, 55280, Note_off_c, 1, 48, 0
2, 55280, Note_off_c, 1, 58, 0
2, 55280, Note_off_c, 1, 67, 0
2, 55320, Note_on_c, 1, 41, 127
2, 55320, Note_on_c, 1, 48, 127
2, 55320, Note_on_c, 1, 57, 127
2, 55320, Note_on_c, 1, 65, 127
2, 55520, Note_off_c, 1, 41, 0
2, 55520, Note_off_c, 1, 48, 0
2, 55520, Note_off_c, 1, 57, 0
2, 55520, Note_off_c, 1, 65, 0
2, 55560, Note_on_c, 1, 43, 127
2, 55560, Note_on_c, 1, 55, 127
2, 55560, Note_on_c, 1, 58, 127
2, 55560, Note_on_c, 1, 62, 127
2, 55560, Note_on_c, 1, 70, 127
2, 55800, Note_off_c, 1, 43, 0
2, 55800, Note_off_c, 1, 55, 0
2, 55800, Note_off_c, 1, 58, 0
2, 55800, Note_off_c, 1, 62, 0
2, 55800, Note_off_c, 1, 70, 0
2, 55840, Note_on_c, 1, 37, 127
2, 55840, Note_on_c, 1, 49, 127
2, 55840, Note_on_c, 1, 57, 127
2, 55840, Note_on_c, 1, 65, 127
2, 55840, Note_on_c, 1, 69, 127
2, 55960, Note_off_c, 1, 37, 0
2, 55960, Note_off_c, 1, 49, 0
2, 56000, Note_on_c, 1, 38, 127
2, 56000, Note_on_c, 1, 50, 127
2, 56080, Note_off_c, 1, 38, 0
2, 56080, Note_off_c, 1, 50, 0
2, 56080, Note_off_c, 1, 57, 0
2, 56080, Note_off_c, 1, 65, 0
2, 56080, Note_off_c, 1, 69, 0
2, 56120, Note_on_c, 1, 38, 127
2, 56120, Note_on_c, 1, 50, 127
2, 56120, Note_on_c, 1, 57, 127
2, 56120, Note_on_c, 1, 65, 127
2, 56120, Note_on_c, 1, 69, 127
2, 56160, Note_off_c, 1, 38, 0
2, 56160, Note_off_c, 1, 50, 0
2, 56160, Note_off_c, 1, 57, 0
2, 56160, Note_off_c, 1, 65, 0
2, 56160, Note_off_c, 1, 69, 0
2, 56200, Note_on_c, 1, 38, 127
2, 56200, Note_on_c, 1, 50, 127
2, 56200, Note_on_c, 1, 57, 127
2, 56200, Note_on_c, 1, 65, 127
2, 56200, Note_on_c, 1, 69, 127
2, 56240, Note_off_c, 1, 57, 0
2, 56240, Note_off_c, 1, 65, 0
2, 56240, Note_off_c, 1, 69, 0
2, 56280, Note_on_c, 1, 65, 127
2, 56280, Note_on_c, 1, 69, 127
2, 56360, Note_off_c, 1, 38, 0
2, 56360, Note_off_c, 1, 50, 0
2, 56360, Note_off_c, 1, 65, 0
2, 56360, Note_off_c, 1, 69, 0
2, 56400, Note_on_c, 1, 31, 127
2, 56400, Note_on_c, 1, 43, 127
2, 56400, Note_on_c, 1, 58, 127
2, 56400, Note_on_c, 1, 70, 127
2, 56640, Note_off_c, 1, 31, 0
2, 56640, Note_off_c, 1, 43, 0
2, 56640, Note_off_c, 1, 58, 0
2, 56640, Note_off_c, 1, 70, 0
2, 56680, Note_on_c, 1, 31, 127
2, 56680, Note_on_c, 1, 43, 127
2, 56680, Note_on_c, 1, 58, 127
2, 56680, Note_on_c, 1, 70, 127
2, 56920, Note_off_c, 1, 31, 0
2, 56920, Note_off_c, 1, 43, 0
2, 56920, Note_off_c, 1, 58, 0
2, 56920, Note_off_c, 1, 70, 0
2, 56960, Note_on_c, 1, 46, 127
2, 56960, Note_on_c, 1, 54, 127
2, 56960, Note_on_c, 1, 62, 127
2, 56960, Note_on_c, 1, 74, 127
2, 57440, Note_on_c, 1, 53, 127
2, 57440, Note_off_c, 1, 54, 0
2, 58000, Note_off_c, 1, 46, 0
2, 58000, Note_off_c, 1, 53, 0
2, 58000, Note_off_c, 1, 62, 0
2, 58000, Note_off_c, 1, 74, 0
2, 58040, Note_on_c, 1, 50, 127
2, 58040, Note_on_c, 1, 53, 127
2, 58040, Note_on_c, 1, 65, 127
2, 58040, Note_on_c, 1, 77, 127
2, 58240, Note_off_c, 1, 50, 0
2, 58240, Note_off_c, 1, 53, 0
2, 58240, Note_off_c, 1, 65, 0
2, 58240, Note_off_c, 1, 77, 0
2, 58320, Note_on_c, 1, 55, 127
2, 58320, Note_on_c, 1, 62, 127
2, 58320, Note_on_c, 1, 70, 127
2, 58320, Note_on_c, 1, 79, 127
2, 58560, Note_off_c, 1, 55, 0
2, 58560, Note_off_c, 1, 70, 0
2, 58560, Note_off_c, 1, 79, 0
2, 58600, Note_on_c, 1, 55, 127
2, 58600, Note_on_c, 1, 70, 127
2, 58840, Note_off_c, 1, 55, 0
2, 58840, Note_off_c, 1, 62, 0
2, 58840, Note_off_c, 1, 70, 0
2, 58880, Note_on_c, 1, 46, 127
2, 58880, Note_on_c, 1, 52, 127
2, 58880, Note_on_c, 1, 64, 127
2, 58880, Note_on_c, 1, 67, 127
2, 58880, Note_on_c, 1, 76, 127
2, 59000, Note_off_c, 1, 52, 0
2, 59000, Note_on_c, 1, 55, 127
2, 59040, Note_on_c, 1, 52, 127
2, 59040, Note_off_c, 1, 55, 0
2, 59080, Note_off_c, 1, 52, 0
2, 59120, Note_on_c, 1, 55, 127
2, 59360, Note_off_c, 1, 46, 0
2, 59360, Note_off_c, 1, 55, 0
2, 59360, Note_off_c, 1, 64, 0
2, 59360, Note_off_c, 1, 67, 0
2, 59360, Note_off_c, 1, 76, 0
2, 59400, Note_on_c, 1, 46, 127
2, 59400, Note_on_c, 1, 74, 127
2, 59400, Note_on_c, 1, 86, 127
2, 59400, Note_on_c, 1, 87, 127
2, 59440, Note_off_c, 1, 46, 0
2, 59440, Note_on_c, 1, 60, 127
2, 59440, Note_on_c, 1, 65, 127
2, 59440, Note_on_c, 1, 72, 127
2, 59440, Note_off_c, 1, 74, 0
2, 59440, Note_on_c, 1, 75, 127
2, 59440, Note_on_c, 1, 77, 127
2, 59440, Note_off_c, 1, 86, 0
2, 59440, Note_off_c, 1, 87, 0
2, 59480, Note_on_c, 1, 64, 127
2, 59480, Note_off_c, 1, 65, 0
2, 59480, Note_off_c, 1, 72, 0
2, 59480, Note_off_c, 1, 75, 0
2, 59480, Note_on_c, 1, 76, 127
2, 59480, Note_off_c, 1, 77, 0
2, 59480, Note_on_c, 1, 79, 127
2, 59480, Note_on_c, 1, 88, 127
2, 59520, Note_on_c, 1, 37, 127
2, 59520, Note_on_c, 1, 53, 127
2, 59520, Note_on_c, 1, 58, 127
2, 59520, Note_off_c, 1, 60, 0
2, 59520, Note_off_c, 1, 64, 0
2, 59520, Note_on_c, 1, 66, 127
2, 59520, Note_off_c, 1, 76, 0
2, 59520, Note_off_c, 1, 79, 0
2, 59520, Note_off_c, 1, 88, 0
2, 59560, Note_off_c, 1, 37, 0
2, 59560, Note_off_c, 1, 53, 0
2, 59560, Note_on_c, 1, 54, 127
2, 59560, Note_off_c, 1, 58, 0
2, 59560, Note_on_c, 1, 59, 127
2, 59560, Note_off_c, 1, 66, 0
2, 59560, Note_on_c, 1, 68, 127
2, 59560, Note_on_c, 1, 85, 127
2, 59600, Note_off_c, 1, 54, 0
2, 59600, Note_off_c, 1, 59, 0
2, 59600, Note_off_c, 1, 68, 0
2, 59600, Note_on_c, 1, 72, 127
2, 59600, Note_on_c, 1, 74, 127
2, 59600, Note_on_c, 1, 79, 127
2, 59600, Note_off_c, 1, 85, 0
2, 59600, Note_on_c, 1, 89, 127
2, 59600, Note_on_c, 1, 91, 127
2, 59600, Note_on_c, 1, 95, 127
2, 59640, Note_off_c, 1, 72, 0
2, 59640, Note_off_c, 1, 74, 0
2, 59640, Note_off_c, 1, 79, 0
2, 59640, Note_off_c, 1, 89, 0
2, 59640, Note_off_c, 1, 91, 0
2, 59640, Note_off_c, 1, 95, 0
2, 59680, Note_on_c, 1, 42, 127
2, 59680, Note_on_c, 1, 49, 127
2, 59680, Note_on_c, 1, 54, 127
2, 59680, Note_on_c, 1, 58, 127
2, 59680, Note_on_c, 1, 61, 127
2, 59680, Note_on_c, 1, 63, 127
2, 59880, Note_off_c, 1, 58, 0
2, 59880, Note_off_c, 1, 61, 0
2, 59880, Note_off_c, 1, 63, 0
2, 59920, Note_off_c, 1, 42, 0
2, 59920, Note_off_c, 1, 49, 0
2, 59920, Note_off_c, 1, 54, 0
2, 59960, Note_on_c, 1, 41, 127
2, 59960, Note_on_c, 1, 51, 127
2, 59960, Note_on_c, 1, 60, 127
2, 60160, Note_off_c, 1, 41, 0
2, 60160, Note_off_c, 1, 51, 0
2, 60160, Note_off_c, 1, 60, 0
2, 60280, Note_on_c, 1, 35, 127
2, 60280, Note_on_c, 1, 47, 127
2, 60280, Note_on_c, 1, 69, 127
2, 60280, Note_on_c, 1, 74, 127
2, 60280, Note_on_c, 1, 78, 127
2, 60480, Note_off_c, 1, 35, 0
2, 60480, Note_off_c, 1, 47, 0
2, 60480, Note_off_c, 1, 69, 0
2, 60480, Note_off_c, 1, 74, 0
2, 60480, Note_off_c, 1, 78, 0
2, 60520, Note_on_c, 1, 37, 127
2, 60520, Note_on_c, 1, 49, 127
2, 60520, Note_on_c, 1, 82, 127
2, 60520, Note_on_c, 1, 90, 127
2, 60520, Note_on_c, 1, 94, 127
2, 60760, Note_off_c, 1, 37, 0
2, 60760, Note_off_c, 1, 49, 0
2, 60800, Note_on_c, 1, 53, 127
2, 60800, Note_on_c, 1, 65, 127
2, 61040, Note_off_c, 1, 53, 0
2, 61040, Note_off_c, 1, 65, 0
2, 61040, Note_off_c, 1, 82, 0
2, 61040, Note_off_c, 1, 90, 0
2, 61040, Note_off_c, 1, 94, 0
2, 61080, Note_on_c, 1, 53, 127
2, 61080, Note_on_c, 1, 65, 127
2, 61080, Note_on_c, 1, 82, 127
2, 61080, Note_on_c, 1, 90, 127
2, 61080, Note_on_c, 1, 94, 127
2, 61320, Note_off_c, 1, 53, 0
2, 61320, Note_off_c, 1, 65, 0
2, 61320, Note_off_c, 1, 82, 0
2, 61320, Note_off_c, 1, 90, 0
2, 61320, Note_off_c, 1, 94, 0
2, 61360, Note_on_c, 1, 54, 127
2, 61360, Note_on_c, 1, 57, 127
2, 61360, Note_on_c, 1, 63, 127
2, 61360, Note_on_c, 1, 72, 127
2, 61360, Note_on_c, 1, 75, 127
2, 61360, Note_on_c, 1, 81, 127
2, 61360, Note_on_c, 1, 84, 127
2, 61840, Note_off_c, 1, 54, 0
2, 61840, Note_off_c, 1, 57, 0
2, 61840, Note_off_c, 1, 63, 0
2, 61840, Note_off_c, 1, 72, 0
2, 61840, Note_off_c, 1, 75, 0
2, 61840, Note_off_c, 1, 81, 0
2, 61840, Note_off_c, 1, 84, 0
2, 61880, Note_on_c, 1, 68, 127
2, 61880, Note_on_c, 1, 89, 127
2, 61880, Note_on_c, 1, 97, 127
2, 61920, Note_off_c, 1, 68, 0
2, 61920, Note_on_c, 1, 95, 127
2, 61920, Note_off_c, 1, 97, 0
2, 61920, Note_on_c, 1, 98, 127
2, 61960, Note_on_c, 1, 68, 127
2, 61960, Note_off_c, 1, 95, 0
2, 61960, Note_on_c, 1, 97, 127
2, 61960, Note_off_c, 1, 98, 0
2, 62000, Note_on_c, 1, 43, 127
2, 62000, Note_on_c, 1, 48, 127
2, 62000, Note_on_c, 1, 51, 127
2, 62000, Note_on_c, 1, 55, 127
2, 62000, Note_on_c, 1, 60, 127
2, 62000, Note_on_c, 1, 63, 127
2, 62000, Note_on_c, 1, 67, 127
2, 62000, Note_off_c, 1, 68, 0
2, 62000, Note_on_c, 1, 72, 127
2, 62000, Note_off_c, 1, 89, 0
2, 62000, Note_off_c, 1, 97, 0
2, 62040, Note_off_c, 1, 43, 0
2, 62040, Note_off_c, 1, 48, 0
2, 62040, Note_off_c, 1, 51, 0
2, 62040, Note_off_c, 1, 55, 0
2, 62040, Note_off_c, 1, 60, 0
2, 62040, Note_off_c, 1, 63, 0
2, 62040, Note_off_c, 1, 67, 0
2, 62040, Note_on_c, 1, 68, 127
2, 62040, Note_off_c, 1, 72, 0
2, 62040, Note_on_c, 1, 89, 127
2, 62040, Note_on_c, 1, 97, 127
2, 62080, Note_on_c, 1, 65, 127
2, 62080, Note_off_c, 1, 68, 0
2, 62080, Note_off_c, 1, 89, 0
2, 62120, Note_off_c, 1, 65, 0
2, 62120, Note_off_c, 1, 97, 0
2, 62160, Note_on_c, 1, 65, 127
2, 62160, Note_on_c, 1, 77, 127
2, 62160, Note_on_c, 1, 80, 127
2, 62160, Note_on_c, 1, 86, 127
2, 62160, Note_on_c, 1, 89, 127
2, 62320, Note_off_c, 1, 65, 0
2, 62320, Note_off_c, 1, 77, 0
2, 62320, Note_off_c, 1, 80, 0
2, 62320, Note_off_c, 1, 86, 0
2, 62320, Note_off_c, 1, 89, 0
2, 62360, Note_on_c, 1, 65, 127
2, 62360, Note_on_c, 1, 77, 127
2, 62360, Note_on_c, 1, 80, 127
2, 62360, Note_on_c, 1, 86, 127
2, 62360, Note_on_c, 1, 89, 127
2, 62680, Note_off_c, 1, 65, 0
2, 62720, Note_on_c, 1, 38, 127
2, 62720, Note_on_c, 1, 49, 127
2, 62720, Note_on_c, 1, 58, 127
2, 62720, Note_on_c, 1, 64, 127
2, 62720, Note_on_c, 1, 67, 127
2, 62720, Note_off_c, 1, 77, 0
2, 62720, Note_off_c, 1, 80, 0
2, 62720, Note_off_c, 1, 86, 0
2, 62720, Note_off_c, 1, 89, 0
2, 62960, Note_off_c, 1, 38, 0
2, 62960, Note_off_c, 1, 49, 0
2, 62960, Note_off_c, 1, 58, 0
2, 62960, Note_off_c, 1, 64, 0
2, 62960, Note_off_c, 1, 67, 0
2, 63000, Note_on_c, 1, 61, 127
2, 63000, Note_on_c, 1, 64, 127
2, 63000, Note_on_c, 1, 69, 127
2, 63000, Note_on_c, 1, 73, 127
2, 63000, Note_on_c, 1, 80, 127
2, 63000, Note_on_c, 1, 92, 127
2, 63040, Note_on_c, 1, 45, 127
2, 63040, Note_on_c, 1, 47, 127
2, 63040, Note_on_c, 1, 52, 127
2, 63040, Note_on_c, 1, 56, 127
2, 63040, Note_off_c, 1, 61, 0
2, 63040, Note_off_c, 1, 64, 0
2, 63040, Note_off_c, 1, 69, 0
2, 63040, Note_off_c, 1, 73, 0
2, 63040, Note_off_c, 1, 80, 0
2, 63040, Note_on_c, 1, 84, 127
2, 63040, Note_off_c, 1, 92, 0
2, 63080, Note_off_c, 1, 45, 0
2, 63080, Note_off_c, 1, 47, 0
2, 63080, Note_off_c, 1, 52, 0
2, 63080, Note_off_c, 1, 56, 0
2, 63080, Note_off_c, 1, 84, 0
2, 63280, Note_on_c, 1, 46, 127
2, 63280, Note_on_c, 1, 54, 127
2, 63280, Note_on_c, 1, 58, 127
2, 63280, Note_on_c, 1, 70, 127
2, 63280, Note_on_c, 1, 78, 127
2, 63280, Note_on_c, 1, 82, 127
2, 63520, Note_off_c, 1, 46, 0
2, 63520, Note_off_c, 1, 54, 0
2, 63520, Note_off_c, 1, 58, 0
2, 63520, Note_off_c, 1, 70, 0
2, 63520, Note_off_c, 1, 78, 0
2, 63520, Note_off_c, 1, 82, 0
2, 63560, Note_on_c, 1, 46, 127
2, 63560, Note_on_c, 1, 54, 127
2, 63560, Note_on_c, 1, 58, 127
2, 63560, Note_on_c, 1, 70, 127
2, 63560, Note_on_c, 1, 78, 127
2, 63560, Note_on_c, 1, 82, 127
2, 63800, Note_off_c, 1, 46, 0
2, 63800, Note_off_c, 1, 54, 0
2, 63800, Note_off_c, 1, 58, 0
2, 63800, Note_off_c, 1, 70, 0
2, 63800, Note_off_c, 1, 78, 0
2, 63800, Note_off_c, 1, 82, 0
2, 63840, Note_on_c, 1, 41, 127
2, 63840, Note_on_c, 1, 81, 127
2, 63840, Note_on_c, 1, 87, 127
2, 63840, Note_on_c, 1, 89, 127
2, 63880, Note_off_c, 1, 41, 0
2, 63880, Note_off_c, 1, 81, 0
2, 63880, Note_off_c, 1, 87, 0
2, 63880, Note_off_c, 1, 89, 0
2, 63960, Note_on_c, 1, 46, 127
2, 63960, Note_on_c, 1, 58, 127
2, 63960, Note_on_c, 1, 77, 127
2, 63960, Note_on_c, 1, 82, 127
2, 63960, Note_on_c, 1, 86, 127
2, 63960, Note_on_c, 1, 89, 127
2, 64000, Note_off_c, 1, 46, 0
2, 64000, Note_off_c, 1, 58, 0
2, 64000, Note_off_c, 1, 77, 0
2, 64000, Note_off_c, 1, 82, 0
2, 64000, Note_off_c, 1, 86, 0
2, 64000, Note_off_c, 1, 89, 0
2, 64120, Note_on_c, 1, 53, 127
2, 64120, Note_on_c, 1, 58, 127
2, 64120, Note_on_c, 1, 65, 127
2, 64120, Note_on_c, 1, 70, 127
2, 64120, Note_on_c, 1, 77, 127
2, 64120, Note_on_c, 1, 82, 127
2, 64320, Note_off_c, 1, 53, 0
2, 64320, Note_off_c, 1, 58, 0
2, 64320, Note_off_c, 1, 65, 0
2, 64320, Note_off_c, 1, 70, 0
2, 64320, Note_off_c, 1, 77, 0
2, 64320, Note_off_c, 1, 82, 0
2, 64360, Note_on_c, 1, 53, 127
2, 64360, Note_on_c, 1, 58, 127
2, 64360, Note_on_c, 1, 65, 127
2, 64360, Note_on_c, 1, 70, 127
2, 64360, Note_on_c, 1, 77, 127
2, 64360, Note_on_c, 1, 82, 127
2, 64400, Note_off_c, 1, 53, 0
2, 64400, Note_off_c, 1, 58, 0
2, 64400, Note_off_c, 1, 65, 0
2, 64400, Note_off_c, 1, 70, 0
2, 64400, Note_off_c, 1, 77, 0
2, 64400, Note_off_c, 1, 82, 0
2, 64440, Note_on_c, 1, 48, 127
2, 64440, Note_on_c, 1, 55, 127
2, 64440, Note_on_c, 1, 64, 127
2, 64440, Note_on_c, 1, 70, 127
2, 64440, Note_on_c, 1, 76, 127
2, 64680, Note_off_c, 1, 48, 0
2, 64680, Note_off_c, 1, 55, 0
2, 64680, Note_off_c, 1, 64, 0
2, 64680, Note_off_c, 1, 70, 0
2, 64680, Note_off_c, 1, 76, 0
2, 64720, Note_on_c, 1, 41, 127
2, 64720, Note_on_c, 1, 53, 127
2, 64720, Note_on_c, 1, 78, 127
2, 64960, Note_off_c, 1, 41, 0
2, 64960, Note_off_c, 1, 53, 0
2, 64960, Note_off_c, 1, 78, 0
2, 65000, Note_on_c, 1, 37, 127
2, 65000, Note_on_c, 1, 49, 127
2, 65000, Note_on_c, 1, 85, 127
2, 65000, Note_on_c, 1, 89, 127
2, 65000, Note_on_c, 1, 97, 127
2, 65240, Note_off_c, 1, 37, 0
2, 65240, Note_off_c, 1, 49, 0
2, 65240, Note_off_c, 1, 85, 0
2, 65240, Note_off_c, 1, 89, 0
2, 65240, Note_off_c, 1, 97, 0
2, 65280, Note_on_c, 1, 64, 127
2, 65280, Note_on_c, 1, 76, 127
2, 65280, Note_on_c, 1, 94, 127
2, 65480, Note_off_c, 1, 64, 0
2, 65480, Note_off_c, 1, 76, 0
2, 65480, Note_off_c, 1, 94, 0
2, 65520, Note_on_c, 1, 65, 127
2, 65520, Note_on_c, 1, 77, 127
2, 65520, Note_on_c, 1, 93, 127
2, 65760, Note_off_c, 1, 65, 0
2, 65760, Note_off_c, 1, 77, 0
2, 65760, Note_off_c, 1, 93, 0
2, 65800, Note_on_c, 1, 39, 127
2, 65800, Note_on_c, 1, 51, 127
2, 65800, Note_on_c, 1, 87, 127
2, 65800, Note_on_c, 1, 99, 127
2, 66040, Note_off_c, 1, 39, 0
2, 66040, Note_off_c, 1, 51, 0
2, 66040, Note_off_c, 1, 87, 0
2, 66040, Note_off_c, 1, 99, 0
2, 66080, Note_on_c, 1, 55, 127
2, 66080, Note_on_c, 1, 67, 127
2, 66080, Note_on_c, 1, 75, 127
2, 66080, Note_on_c, 1, 82, 127
2, 66080, Note_on_c, 1, 87, 127
2, 66280, Note_off_c, 1, 55, 0
2, 66280, Note_off_c, 1, 67, 0
2, 66280, Note_off_c, 1, 75, 0
2, 66280, Note_off_c, 1, 82, 0
2, 66280, Note_off_c, 1, 87, 0
2, 66400, Note_on_c, 1, 53, 127
2, 66400, Note_on_c, 1, 65, 127
2, 66400, Note_on_c, 1, 80, 127
2, 66400, Note_on_c, 1, 87, 127
2, 66400, Note_on_c, 1, 92, 127
2, 66600, Note_off_c, 1, 53, 0
2, 66600, Note_off_c, 1, 65, 0
2, 66600, Note_off_c, 1, 80, 0
2, 66600, Note_off_c, 1, 87, 0
2, 66600, Note_off_c, 1, 92, 0
2, 66680, Note_on_c, 1, 46, 127
2, 66680, Note_on_c, 1, 58, 127
2, 66680, Note_on_c, 1, 80, 127
2, 66680, Note_on_c, 1, 86, 127
2, 66680, Note_on_c, 1, 92, 127
2, 66920, Note_off_c, 1, 46, 0
2, 66920, Note_off_c, 1, 58, 0
2, 66920, Note_off_c, 1, 80, 0
2, 66920, Note_off_c, 1, 86, 0
2, 66920, Note_off_c, 1, 92, 0
2, 66960, Note_on_c, 1, 51, 127
2, 66960, Note_on_c, 1, 63, 127
2, 66960, Note_on_c, 1, 79, 127
2, 66960, Note_on_c, 1, 86, 127
2, 66960, Note_on_c, 1, 91, 127
2, 67200, Note_off_c, 1, 51, 0
2, 67200, Note_off_c, 1, 63, 0
2, 67200, Note_off_c, 1, 79, 0
2, 67200, Note_off_c, 1, 86, 0
2, 67200, Note_off_c, 1, 91, 0
2, 67240, Note_on_c, 1, 44, 127
2, 67240, Note_on_c, 1, 56, 127
2, 67240, Note_on_c, 1, 79, 127
2, 67240, Note_on_c, 1, 84, 127
2, 67240, Note_on_c, 1, 91, 127
2, 67440, Note_off_c, 1, 44, 0
2, 67440, Note_on_c, 1, 51, 127
2, 67440, Note_off_c, 1, 56, 0
2, 67440, Note_on_c, 1, 63, 127
2, 67440, Note_off_c, 1, 84, 0
2, 67440, Note_on_c, 1, 86, 127
2, 67480, Note_off_c, 1, 51, 0
2, 67480, Note_off_c, 1, 63, 0
2, 67480, Note_off_c, 1, 79, 0
2, 67480, Note_off_c, 1, 86, 0
2, 67480, Note_off_c, 1, 91, 0
2, 67520, Note_on_c, 1, 50, 127
2, 67520, Note_on_c, 1, 62, 127
2, 67520, Note_on_c, 1, 77, 127
2, 67520, Note_on_c, 1, 84, 127
2, 67520, Note_on_c, 1, 89, 127
2, 67720, Note_off_c, 1, 50, 0
2, 67720, Note_off_c, 1, 62, 0
2, 67720, Note_off_c, 1, 77, 0
2, 67720, Note_off_c, 1, 84, 0
2, 67720, Note_off_c, 1, 89, 0
2, 67800, Note_on_c, 1, 35, 127
2, 67800, Note_on_c, 1, 47, 127
2, 67800, Note_on_c, 1, 63, 127
2, 67800, Note_on_c, 1, 66, 127
2, 67800, Note_on_c, 1, 75, 127
2, 68040, Note_off_c, 1, 35, 0
2, 68040, Note_off_c, 1, 47, 0
2, 68040, Note_off_c, 1, 63, 0
2, 68040, Note_off_c, 1, 66, 0
2, 68040, Note_off_c, 1, 75, 0
2, 68080, Note_on_c, 1, 34, 127
2, 68080, Note_on_c, 1, 46, 127
2, 68080, Note_on_c, 1, 66, 127
2, 68080, Note_on_c, 1, 70, 127
2, 68080, Note_on_c, 1, 73, 127
2, 68080, Note_on_c, 1, 78, 127
2, 68320, Note_off_c, 1, 34, 0
2, 68320, Note_off_c, 1, 46, 0
2, 68320, Note_off_c, 1, 66, 0
2, 68320, Note_off_c, 1, 70, 0
2, 68320, Note_off_c, 1, 73, 0
2, 68320, Note_off_c, 1, 78, 0
2, 68400, Note_on_c, 1, 34, 127
2, 68400, Note_on_c, 1, 46, 127
2, 68400, Note_on_c, 1, 66, 127
2, 68400, Note_on_c, 1, 70, 127
2, 68400, Note_on_c, 1, 73, 127
2, 68400, Note_on_c, 1, 78, 127
2, 68560, Note_off_c, 1, 66, 0
2, 68560, Note_off_c, 1, 70, 0
2, 68560, Note_off_c, 1, 73, 0
2, 68560, Note_off_c, 1, 78, 0
2, 68600, Note_on_c, 1, 65, 127
2, 68600, Note_on_c, 1, 77, 127
2, 68640, Note_off_c, 1, 34, 0
2, 68640, Note_off_c, 1, 46, 0
2, 68640, Note_off_c, 1, 65, 0
2, 68640, Note_off_c, 1, 77, 0
2, 68680, Note_on_c, 1, 32, 127
2, 68680, Note_on_c, 1, 44, 127
2, 68680, Note_on_c, 1, 68, 127
2, 68680, Note_on_c, 1, 71, 127
2, 68680, Note_on_c, 1, 76, 127
2, 68680, Note_on_c, 1, 80, 127
2, 68800, Note_off_c, 1, 68, 0
2, 68800, Note_off_c, 1, 71, 0
2, 68800, Note_off_c, 1, 76, 0
2, 68800, Note_off_c, 1, 80, 0
2, 68840, Note_on_c, 1, 71, 127
2, 68840, Note_on_c, 1, 83, 127
2, 68920, Note_off_c, 1, 32, 0
2, 68920, Note_off_c, 1, 44, 0
2, 68920, Note_off_c, 1, 71, 0
2, 68920, Note_off_c, 1, 83, 0
2, 68960, Note_on_c, 1, 33, 127
2, 68960, Note_on_c, 1, 45, 127
2, 68960, Note_on_c, 1, 67, 127
2, 68960, Note_on_c, 1, 73, 127
2, 68960, Note_on_c, 1, 76, 127
2, 69200, Note_off_c, 1, 33, 0
2, 69200, Note_off_c, 1, 45, 0
2, 69200, Note_off_c, 1, 67, 0
2, 69200, Note_off_c, 1, 73, 0
2, 69200, Note_off_c, 1, 76, 0
2, 69240, Note_on_c, 1, 59, 127
2, 69240, Note_on_c, 1, 63, 127
2, 69240, Note_on_c, 1, 67, 127
2, 69240, Note_on_c, 1, 71, 127
2, 69240, Note_on_c, 1, 75, 127
2, 69240, Note_on_c, 1, 82, 127
2, 69480, Note_off_c, 1, 59, 0
2, 69480, Note_off_c, 1, 63, 0
2, 69480, Note_off_c, 1, 67, 0
2, 69480, Note_off_c, 1, 71, 0
2, 69480, Note_off_c, 1, 75, 0
2, 69480, Note_off_c, 1, 82, 0
2, 69520, Note_on_c, 1, 35, 127
2, 69520, Note_on_c, 1, 66, 127
2, 69520, Note_on_c, 1, 69, 127
2, 69520, Note_on_c, 1, 71, 127
2, 69520, Note_on_c, 1, 75, 127
2, 69560, Note_off_c, 1, 35, 0
2, 69560, Note_on_c, 1, 49, 127
2, 69560, Note_on_c, 1, 52, 127
2, 69560, Note_off_c, 1, 66, 0
2, 69560, Note_off_c, 1, 69, 0
2, 69560, Note_off_c, 1, 71, 0
2, 69560, Note_off_c, 1, 75, 0
2, 69560, Note_on_c, 1, 79, 127
2, 69560, Note_on_c, 1, 88, 127
2, 69560, Note_on_c, 1, 91, 127
2, 69600, Note_off_c, 1, 49, 0
2, 69600, Note_on_c, 1, 57, 127
2, 69600, Note_on_c, 1, 66, 127
2, 69600, Note_on_c, 1, 75, 127
2, 69600, Note_off_c, 1, 79, 0
2, 69600, Note_off_c, 1, 88, 0
2, 69600, Note_off_c, 1, 91, 0
2, 69640, Note_on_c, 1, 37, 127
2, 69640, Note_on_c, 1, 44, 127
2, 69640, Note_off_c, 1, 52, 0
2, 69640, Note_off_c, 1, 57, 0
2, 69640, Note_off_c, 1, 66, 0
2, 69640, Note_on_c, 1, 68, 127
2, 69640, Note_off_c, 1, 75, 0
2, 69640, Note_on_c, 1, 80, 127
2, 69640, Note_on_c, 1, 89, 127
2, 69680, Note_off_c, 1, 37, 0
2, 69680, Note_off_c, 1, 44, 0
2, 69680, Note_on_c, 1, 67, 127
2, 69680, Note_off_c, 1, 68, 0
2, 69680, Note_on_c, 1, 71, 127
2, 69680, Note_on_c, 1, 76, 127
2, 69680, Note_on_c, 1, 78, 127
2, 69680, Note_off_c, 1, 80, 0
2, 69680, Note_off_c, 1, 89, 0
2, 69720, Note_off_c, 1, 67, 0
2, 69720, Note_off_c, 1, 71, 0
2, 69720, Note_off_c, 1, 76, 0
2, 69720, Note_off_c, 1, 78, 0
2, 69760, Note_on_c, 1, 32, 127
2, 69760, Note_on_c, 1, 44, 127
2, 69760, Note_on_c, 1, 82, 127
2, 69760, Note_on_c, 1, 94, 127
2, 69960, Note_off_c, 1, 44, 0
2, 69960, Note_off_c, 1, 82, 0
2, 69960, Note_off_c, 1, 94, 0
2, 70000, Note_off_c, 1, 32, 0
2, 70040, Note_on_c, 1, 39, 127
2, 70040, Note_on_c, 1, 51, 127
2, 70040, Note_on_c, 1, 67, 127
2, 70040, Note_on_c, 1, 70, 127
2, 70040, Note_on_c, 1, 75, 127
2, 70040, Note_on_c, 1, 79, 127
2, 70200, Note_off_c, 1, 39, 0
2, 70200, Note_off_c, 1, 51, 0
2, 70200, Note_off_c, 1, 67, 0
2, 70200, Note_off_c, 1, 70, 0
2, 70200, Note_off_c, 1, 75, 0
2, 70200, Note_off_c, 1, 79, 0
2, 70320, Note_on_c, 1, 52, 127
2, 70320, Note_on_c, 1, 59, 127
2, 70320, Note_on_c, 1, 64, 127
2, 70320, Note_on_c, 1, 68, 127
2, 70320, Note_on_c, 1, 71, 127
2, 70320, Note_on_c, 1, 80, 127
2, 70400, Note_off_c, 1, 52, 0
2, 70400, Note_off_c, 1, 59, 0
2, 70400, Note_off_c, 1, 64, 0
2, 70400, Note_off_c, 1, 68, 0
2, 70400, Note_off_c, 1, 71, 0
2, 70400, Note_off_c, 1, 80, 0
2, 70440, Note_on_c, 1, 52, 127
2, 70440, Note_on_c, 1, 59, 127
2, 70440, Note_on_c, 1, 64, 127
2, 70440, Note_on_c, 1, 68, 127
2, 70440, Note_on_c, 1, 71, 127
2, 70440, Note_on_c, 1, 80, 127
2, 70560, Note_off_c, 1, 52, 0
2, 70560, Note_off_c, 1, 59, 0
2, 70560, Note_off_c, 1, 64, 0
2, 70560, Note_off_c, 1, 68, 0
2, 70560, Note_off_c, 1, 71, 0
2, 70560, Note_off_c, 1, 80, 0
2, 70640, Note_on_c, 1, 28, 127
2, 70640, Note_on_c, 1, 40, 127
2, 70640, Note_on_c, 1, 59, 127
2, 70640, Note_on_c, 1, 68, 127
2, 70640, Note_on_c, 1, 71, 127
2, 70840, Note_off_c, 1, 28, 0
2, 70840, Note_off_c, 1, 40, 0
2, 70840, Note_off_c, 1, 59, 0
2, 70840, Note_off_c, 1, 68, 0
2, 70840, Note_off_c, 1, 71, 0
2, 70920, Note_on_c, 1, 41, 127
2, 70920, Note_on_c, 1, 53, 127
2, 70920, Note_on_c, 1, 65, 127
2, 70920, Note_on_c, 1, 77, 127
2, 71120, Note_off_c, 1, 41, 0
2, 71120, Note_off_c, 1, 53, 0
2, 71120, Note_off_c, 1, 65, 0
2, 71120, Note_off_c, 1, 77, 0
2, 71160, Note_on_c, 1, 36, 127
2, 71160, Note_on_c, 1, 48, 127
2, 71160, Note_on_c, 1, 63, 127
2, 71160, Note_on_c, 1, 68, 127
2, 71160, Note_on_c, 1, 72, 127
2, 71400, Note_off_c, 1, 36, 0
2, 71400, Note_off_c, 1, 48, 0
2, 71400, Note_off_c, 1, 63, 0
2, 71400, Note_off_c, 1, 68, 0
2, 71400, Note_off_c, 1, 72, 0
2, 71440, Note_on_c, 1, 38, 127
2, 71440, Note_on_c, 1, 50, 127
2, 71440, Note_on_c, 1, 65, 127
2, 71440, Note_on_c, 1, 69, 127
2, 71440, Note_on_c, 1, 74, 127
2, 71600, Note_off_c, 1, 65, 0
2, 71600, Note_on_c, 1, 66, 127
2, 71680, Note_off_c, 1, 38, 0
2, 71680, Note_off_c, 1, 50, 0
2, 71680, Note_off_c, 1, 66, 0
2, 71680, Note_off_c, 1, 69, 0
2, 71680, Note_off_c, 1, 74, 0
2, 71720, Note_on_c, 1, 46, 127
2, 71720, Note_on_c, 1, 58, 127
2, 71720, Note_on_c, 1, 61, 127
2, 71720, Note_on_c, 1, 73, 127
2, 71960, Note_off_c, 1, 46, 0
2, 71960, Note_off_c, 1, 58, 0
2, 71960, Note_off_c, 1, 61, 0
2, 71960, Note_off_c, 1, 73, 0
2, 72000, Note_on_c, 1, 51, 127
2, 72000, Note_on_c, 1, 63, 127
2, 72000, Note_on_c, 1, 66, 127
2, 72000, Note_on_c, 1, 70, 127
2, 72000, Note_on_c, 1, 78, 127
2, 72240, Note_off_c, 1, 51, 0
2, 72240, Note_off_c, 1, 63, 0
2, 72240, Note_off_c, 1, 66, 0
2, 72240, Note_off_c, 1, 70, 0
2, 72240, Note_off_c, 1, 78, 0
2, 72280, Note_on_c, 1, 49, 127
2, 72280, Note_on_c, 1, 61, 127
2, 72280, Note_on_c, 1, 68, 127
2, 72280, Note_on_c, 1, 71, 127
2, 72280, Note_on_c, 1, 77, 127
2, 72280, Note_on_c, 1, 80, 127
2, 72520, Note_off_c, 1, 49, 0
2, 72520, Note_off_c, 1, 61, 0
2, 72520, Note_off_c, 1, 68, 0
2, 72520, Note_off_c, 1, 71, 0
2, 72520, Note_off_c, 1, 77, 0
2, 72520, Note_off_c, 1, 80, 0
2, 72560, Note_on_c, 1, 49, 127
2, 72560, Note_on_c, 1, 61, 127
2, 72560, Note_on_c, 1, 68, 127
2, 72560, Note_on_c, 1, 71, 127
2, 72560, Note_on_c, 1, 77, 127
2, 72560, Note_on_c, 1, 80, 127
2, 72640, Note_off_c, 1, 49, 0
2, 72640, Note_off_c, 1, 61, 0
2, 72640, Note_off_c, 1, 68, 0
2, 72640, Note_off_c, 1, 71, 0
2, 72640, Note_off_c, 1, 77, 0
2, 72640, Note_off_c, 1, 80, 0
2, 72680, Note_on_c, 1, 49, 127
2, 72680, Note_on_c, 1, 61, 127
2, 72680, Note_on_c, 1, 68, 127
2, 72680, Note_on_c, 1, 71, 127
2, 72680, Note_on_c, 1, 77, 127
2, 72680, Note_on_c, 1, 80, 127
2, 72800, Note_off_c, 1, 49, 0
2, 72800, Note_off_c, 1, 61, 0
2, 72800, Note_off_c, 1, 68, 0
2, 72800, Note_off_c, 1, 71, 0
2, 72800, Note_off_c, 1, 77, 0
2, 72800, Note_off_c, 1, 80, 0
2, 72840, Note_on_c, 1, 46, 127
2, 72840, Note_on_c, 1, 58, 127
2, 72840, Note_on_c, 1, 70, 127
2, 72840, Note_on_c, 1, 73, 127
2, 72840, Note_on_c, 1, 78, 127
2, 72840, Note_on_c, 1, 82, 127
2, 73080, Note_off_c, 1, 46, 0
2, 73080, Note_off_c, 1, 58, 0
2, 73080, Note_off_c, 1, 70, 0
2, 73080, Note_off_c, 1, 73, 0
2, 73080, Note_off_c, 1, 78, 0
2, 73080, Note_off_c, 1, 82, 0
2, 73120, Note_on_c, 1, 74, 127
2, 73120, Note_on_c, 1, 82, 127
2, 73120, Note_on_c, 1, 94, 127
2, 73120, Note_on_c, 1, 103, 127
2, 73360, Note_on_c, 1, 51, 127
2, 73360, Note_on_c, 1, 55, 127
2, 73360, Note_on_c, 1, 60, 127
2, 73360, Note_off_c, 1, 74, 0
2, 73360, Note_off_c, 1, 82, 0
2, 73360, Note_off_c, 1, 94, 0
2, 73360, Note_off_c, 1, 103, 0
2, 73400, Note_on_c, 1, 44, 127
2, 73400, Note_off_c, 1, 51, 0
2, 73400, Note_on_c, 1, 53, 127
2, 73400, Note_off_c, 1, 55, 0
2, 73400, Note_off_c, 1, 60, 0
2, 73400, Note_on_c, 1, 72, 127
2, 73400, Note_on_c, 1, 75, 127
2, 73400, Note_on_c, 1, 84, 127
2, 73560, Note_on_c, 1, 43, 127
2, 73560, Note_off_c, 1, 44, 0
2, 73600, Note_on_c, 1, 31, 127
2, 73600, Note_off_c, 1, 43, 0
2, 73600, Note_off_c, 1, 53, 0
2, 73600, Note_off_c, 1, 72, 0
2, 73600, Note_off_c, 1, 75, 0
2, 73600, Note_off_c, 1, 84, 0
2, 73640, Note_off_c, 1, 31, 0
2, 73640, Note_on_c, 1, 43, 127
2, 73640, Note_on_c, 1, 53, 127
2, 73640, Note_on_c, 1, 72, 127
2, 73640, Note_on_c, 1, 75, 127
2, 73640, Note_on_c, 1, 84, 127
2, 73880, Note_off_c, 1, 43, 0
2, 73880, Note_off_c, 1, 53, 0
2, 73880, Note_off_c, 1, 72, 0
2, 73880, Note_off_c, 1, 75, 0
2, 73880, Note_off_c, 1, 84, 0
2, 73920, Note_on_c, 1, 41, 127
2, 73920, Note_on_c, 1, 48, 127
2, 73920, Note_on_c, 1, 53, 127
2, 73920, Note_on_c, 1, 60, 127
2, 73920, Note_on_c, 1, 63, 127
2, 73920, Note_on_c, 1, 75, 127
2, 73920, Note_on_c, 1, 81, 127
2, 73920, Note_on_c, 1, 87, 127
2, 73960, Note_off_c, 1, 41, 0
2, 73960, Note_off_c, 1, 48, 0
2, 73960, Note_off_c, 1, 53, 0
2, 73960, Note_off_c, 1, 60, 0
2, 73960, Note_off_c, 1, 63, 0
2, 73960, Note_off_c, 1, 75, 0
2, 73960, Note_off_c, 1, 81, 0
2, 73960, Note_off_c, 1, 87, 0
2, 74040, Note_on_c, 1, 39, 127
2, 74040, Note_on_c, 1, 51, 127
2, 74040, Note_on_c, 1, 54, 127
2, 74040, Note_on_c, 1, 60, 127
2, 74080, Note_off_c, 1, 39, 0
2, 74080, Note_off_c, 1, 51, 0
2, 74080, Note_off_c, 1, 54, 0
2, 74080, Note_off_c, 1, 60, 0
2, 74200, Note_on_c, 1, 44, 127
2, 74200, Note_on_c, 1, 53, 127
2, 74200, Note_on_c, 1, 60, 127
2, 74200, Note_on_c, 1, 77, 127
2, 74200, Note_on_c, 1, 89, 127
2, 74440, Note_off_c, 1, 44, 0
2, 74440, Note_off_c, 1, 53, 0
2, 74440, Note_off_c, 1, 60, 0
2, 74440, Note_off_c, 1, 77, 0
2, 74440, Note_off_c, 1, 89, 0
2, 74480, Note_on_c, 1, 43, 127
2, 74480, Note_on_c, 1, 53, 127
2, 74480, Note_on_c, 1, 62, 127
2, 74480, Note_on_c, 1, 67, 127
2, 74480, Note_on_c, 1, 74, 127
2, 74720, Note_off_c, 1, 43, 0
2, 74720, Note_off_c, 1, 53, 0
2, 74720, Note_on_c, 1, 55, 127
2, 74720, Note_on_c, 1, 58, 127
2, 74720, Note_on_c, 1, 70, 127
2, 74720, Note_off_c, 1, 74, 0
2, 74760, Note_off_c, 1, 55, 0
2, 74760, Note_off_c, 1, 58, 0
2, 74760, Note_off_c, 1, 62, 0
2, 74760, Note_off_c, 1, 67, 0
2, 74760, Note_off_c, 1, 70, 0
2, 74800, Note_on_c, 1, 64, 127
2, 74800, Note_on_c, 1, 86, 127
2, 74800, Note_on_c, 1, 87, 127
2, 74800, Note_on_c, 1, 89, 127
2, 74800, Note_on_c, 1, 90, 127
2, 74840, Note_on_c, 1, 41, 127
2, 74840, Note_on_c, 1, 55, 127
2, 74840, Note_on_c, 1, 63, 127
2, 74840, Note_off_c, 1, 64, 0
2, 74840, Note_on_c, 1, 75, 127
2, 74840, Note_off_c, 1, 86, 0
2, 74840, Note_off_c, 1, 87, 0
2, 74840, Note_off_c, 1, 89, 0
2, 74840, Note_off_c, 1, 90, 0
2, 74880, Note_on_c, 1, 40, 127
2, 74880, Note_off_c, 1, 41, 0
2, 74880, Note_on_c, 1, 52, 127
2, 74880, Note_off_c, 1, 55, 0
2, 74880, Note_on_c, 1, 57, 127
2, 74880, Note_on_c, 1, 61, 127
2, 74880, Note_off_c, 1, 63, 0
2, 74880, Note_on_c, 1, 66, 127
2, 74880, Note_on_c, 1, 73, 127
2, 74880, Note_off_c, 1, 75, 0
2, 74880, Note_on_c, 1, 81, 127
2, 74880, Note_on_c, 1, 85, 127
2, 74920, Note_on_c, 1, 28, 127
2, 74920, Note_on_c, 1, 39, 127
2, 74920, Note_on_c, 1, 47, 127
2, 74920, Note_on_c, 1, 51, 127
2, 74920, Note_off_c, 1, 57, 0
2, 74920, Note_on_c, 1, 59, 127
2, 74920, Note_off_c, 1, 61, 0
2, 74920, Note_off_c, 1, 66, 0
2, 74920, Note_on_c, 1, 68, 127
2, 74920, Note_on_c, 1, 71, 127
2, 74920, Note_off_c, 1, 73, 0
2, 74920, Note_off_c, 1, 81, 0
2, 74920, Note_off_c, 1, 85, 0
2, 74960, Note_off_c, 1, 28, 0
2, 74960, Note_on_c, 1, 36, 127
2, 74960, Note_off_c, 1, 39, 0
2, 74960, Note_off_c, 1, 40, 0
2, 74960, Note_on_c, 1, 42, 127
2, 74960, Note_off_c, 1, 47, 0
2, 74960, Note_on_c, 1, 48, 127
2, 74960, Note_off_c, 1, 51, 0
2, 74960, Note_off_c, 1, 52, 0
2, 74960, Note_on_c, 1, 53, 127
2, 74960, Note_on_c, 1, 56, 127
2, 74960, Note_off_c, 1, 59, 0
2, 74960, Note_off_c, 1, 68, 0
2, 74960, Note_on_c, 1, 69, 127
2, 74960, Note_off_c, 1, 71, 0
2, 74960, Note_on_c, 1, 75, 127
2, 74960, Note_on_c, 1, 81, 127
2, 75000, Note_off_c, 1, 36, 0
2, 75000, Note_off_c, 1, 42, 0
2, 75000, Note_off_c, 1, 48, 0
2, 75000, Note_off_c, 1, 53, 0
2, 75000, Note_off_c, 1, 56, 0
2, 75000, Note_off_c, 1, 69, 0
2, 75000, Note_off_c, 1, 75, 0
2, 75000, Note_off_c, 1, 81, 0
2, 75040, Note_on_c, 1, 67, 127
2, 75040, Note_on_c, 1, 72, 127
2, 75040, Note_on_c, 1, 76, 127
2, 75040, Note_on_c, 1, 79, 127
2, 75160, Note_off_c, 1, 67, 0
2, 75160, Note_off_c, 1, 72, 0
2, 75160, Note_off_c, 1, 76, 0
2, 75160, Note_off_c, 1, 79, 0
2, 75200, Note_on_c, 1, 53, 127
2, 75200, Note_on_c, 1, 60, 127
2, 75200, Note_on_c, 1, 65, 127
2, 75200, Note_on_c, 1, 69, 127
2, 75200, Note_on_c, 1, 75, 127
2, 75280, Note_off_c, 1, 53, 0
2, 75280, Note_off_c, 1, 60, 0
2, 75280, Note_off_c, 1, 65, 0
2, 75280, Note_off_c, 1, 69, 0
2, 75280, Note_off_c, 1, 75, 0
2, 75320, Note_on_c, 1, 55, 127
2, 75320, Note_on_c, 1, 63, 127
2, 75320, Note_on_c, 1, 67, 127
2, 75320, Note_on_c, 1, 70, 127
2, 75320, Note_on_c, 1, 75, 127
2, 75320, Note_on_c, 1, 82, 127
2, 75440, Note_off_c, 1, 55, 0
2, 75440, Note_off_c, 1, 63, 0
2, 75440, Note_off_c, 1, 67, 0
2, 75440, Note_off_c, 1, 70, 0
2, 75440, Note_off_c, 1, 75, 0
2, 75440, Note_off_c, 1, 82, 0
2, 75480, Note_on_c, 1, 55, 127
2, 75480, Note_on_c, 1, 63, 127
2, 75480, Note_on_c, 1, 67, 127
2, 75480, Note_on_c, 1, 70, 127
2, 75480, Note_on_c, 1, 75, 127
2, 75480, Note_on_c, 1, 82, 127
2, 75560, Note_off_c, 1, 55, 0
2, 75560, Note_off_c, 1, 63, 0
2, 75560, Note_off_c, 1, 67, 0
2, 75560, Note_off_c, 1, 70, 0
2, 75560, Note_off_c, 1, 75, 0
2, 75560, Note_off_c, 1, 82, 0
2, 75600, Note_on_c, 1, 56, 127
2, 75600, Note_on_c, 1, 63, 127
2, 75600, Note_on_c, 1, 68, 127
2, 75600, Note_on_c, 1, 72, 127
2, 75600, Note_on_c, 1, 75, 127
2, 75600, Note_on_c, 1, 84, 127
2, 75800, Note_on_c, 1, 55, 127
2, 75800, Note_off_c, 1, 56, 0
2, 75800, Note_on_c, 1, 67, 127
2, 75800, Note_off_c, 1, 68, 0
2, 75800, Note_on_c, 1, 70, 127
2, 75800, Note_off_c, 1, 72, 0
2, 75800, Note_on_c, 1, 82, 127
2, 75800, Note_off_c, 1, 84, 0
2, 75840, Note_off_c, 1, 55, 0
2, 75840, Note_off_c, 1, 63, 0
2, 75840, Note_off_c, 1, 67, 0
2, 75840, Note_off_c, 1, 70, 0
2, 75840, Note_off_c, 1, 75, 0
2, 75840, Note_off_c, 1, 82, 0
2, 75880, Note_on_c, 1, 74, 127
2, 75880, Note_on_c, 1, 83, 127
2, 75880, Note_on_c, 1, 88, 127
2, 75880, Note_on_c, 1, 92, 127
2, 75880, Note_on_c, 1, 95, 127
2, 75960, Note_off_c, 1, 74, 0
2, 75960, Note_off_c, 1, 83, 0
2, 75960, Note_off_c, 1, 88, 0
2, 75960, Note_off_c, 1, 92, 0
2, 75960, Note_off_c, 1, 95, 0
2, 76000, Note_on_c, 1, 35, 127
2, 76000, Note_on_c, 1, 47, 127
2, 76000, Note_on_c, 1, 62, 127
2, 76000, Note_on_c, 1, 74, 127
2, 76040, Note_off_c, 1, 35, 0
2, 76040, Note_off_c, 1, 47, 0
2, 76040, Note_off_c, 1, 62, 0
2, 76040, Note_off_c, 1, 74, 0
2, 76120, Note_on_c, 1, 35, 127
2, 76120, Note_on_c, 1, 47, 127
2, 76120, Note_on_c, 1, 68, 127
2, 76120, Note_on_c, 1, 75, 127
2, 76120, Note_on_c, 1, 78, 127
2, 76120, Note_on_c, 1, 80, 127
2, 76360, Note_off_c, 1, 35, 0
2, 76360, Note_off_c, 1, 47, 0
2, 76360, Note_off_c, 1, 68, 0
2, 76360, Note_off_c, 1, 75, 0
2, 76360, Note_off_c, 1, 78, 0
2, 76360, Note_off_c, 1, 80, 0
2, 76400, Note_on_c, 1, 47, 127
2, 76400, Note_on_c, 1, 59, 127
2, 76400, Note_on_c, 1, 68, 127
2, 76400, Note_on_c, 1, 75, 127
2, 76400, Note_on_c, 1, 78, 127
2, 76400, Note_on_c, 1, 80, 127
2, 76640, Note_off_c, 1, 47, 0
2, 76640, Note_off_c, 1, 59, 0
2, 76640, Note_off_c, 1, 68, 0
2, 76640, Note_off_c, 1, 75, 0
2, 76640, Note_off_c, 1, 78, 0
2, 76640, Note_off_c, 1, 80, 0
2, 76680, Note_on_c, 1, 37, 127
2, 76680, Note_on_c, 1, 49, 127
2, 76680, Note_on_c, 1, 70, 127
2, 76680, Note_on_c, 1, 73, 127
2, 76680, Note_on_c, 1, 77, 127
2, 76680, Note_on_c, 1, 82, 127
2, 76840, Note_off_c, 1, 37, 0
2, 76840, Note_off_c, 1, 49, 0
2, 76840, Note_off_c, 1, 70, 0
2, 76840, Note_off_c, 1, 73, 0
2, 76840, Note_off_c, 1, 77, 0
2, 76840, Note_off_c, 1, 82, 0
2, 76880, Note_on_c, 1, 37, 127
2, 76880, Note_on_c, 1, 49, 127
2, 76880, Note_on_c, 1, 70, 127
2, 76880, Note_on_c, 1, 73, 127
2, 76880, Note_on_c, 1, 77, 127
2, 76880, Note_on_c, 1, 82, 127
2, 76960, Note_off_c, 1, 37, 0
2, 76960, Note_off_c, 1, 49, 0
2, 76960, Note_off_c, 1, 70, 0
2, 76960, Note_off_c, 1, 73, 0
2, 76960, Note_off_c, 1, 77, 0
2, 76960, Note_off_c, 1, 82, 0
2, 77000, Note_on_c, 1, 49, 127
2, 77000, Note_on_c, 1, 61, 127
2, 77000, Note_on_c, 1, 70, 127
2, 77000, Note_on_c, 1, 73, 127
2, 77000, Note_on_c, 1, 77, 127
2, 77000, Note_on_c, 1, 82, 127
2, 77160, Note_off_c, 1, 49, 0
2, 77160, Note_on_c, 1, 59, 127
2, 77160, Note_off_c, 1, 61, 0
2, 77160, Note_off_c, 1, 70, 0
2, 77160, Note_off_c, 1, 73, 0
2, 77160, Note_off_c, 1, 77, 0
2, 77160, Note_on_c, 1, 80, 127
2, 77160, Note_off_c, 1, 82, 0
2, 77160, Note_on_c, 1, 87, 127
2, 77160, Note_on_c, 1, 92, 127
2, 77200, Note_on_c, 1, 49, 127
2, 77200, Note_off_c, 1, 59, 0
2, 77200, Note_on_c, 1, 61, 127
2, 77200, Note_on_c, 1, 70, 127
2, 77200, Note_on_c, 1, 73, 127
2, 77200, Note_on_c, 1, 77, 127
2, 77200, Note_off_c, 1, 80, 0
2, 77200, Note_on_c, 1, 82, 127
2, 77200, Note_off_c, 1, 87, 0
2, 77200, Note_off_c, 1, 92, 0
2, 77240, Note_off_c, 1, 49, 0
2, 77240, Note_off_c, 1, 61, 0
2, 77240, Note_off_c, 1, 70, 0
2, 77240, Note_off_c, 1, 73, 0
2, 77240, Note_off_c, 1, 77, 0
2, 77240, Note_off_c, 1, 82, 0
2, 77280, Note_on_c, 1, 37, 127
2, 77280, Note_on_c, 1, 49, 127
2, 77280, Note_on_c, 1, 70, 127
2, 77280, Note_on_c, 1, 73, 127
2, 77280, Note_on_c, 1, 77, 127
2, 77280, Note_on_c, 1, 82, 127
2, 77520, Note_off_c, 1, 37, 0
2, 77520, Note_off_c, 1, 49, 0
2, 77520, Note_off_c, 1, 70, 0
2, 77520, Note_off_c, 1, 73, 0
2, 77520, Note_off_c, 1, 77, 0
2, 77520, Note_off_c, 1, 82, 0
2, 77560, Note_on_c, 1, 49, 127
2, 77560, Note_on_c, 1, 61, 127
2, 77560, Note_on_c, 1, 70, 127
2, 77560, Note_on_c, 1, 73, 127
2, 77560, Note_on_c, 1, 77, 127
2, 77560, Note_on_c, 1, 82, 127
2, 77760, Note_off_c, 1, 49, 0
2, 77760, Note_off_c, 1, 61, 0
2, 77760, Note_off_c, 1, 70, 0
2, 77760, Note_off_c, 1, 73, 0
2, 77760, Note_off_c, 1, 77, 0
2, 77760, Note_off_c, 1, 82, 0
2, 77800, Note_on_c, 1, 37, 127
2, 77800, Note_on_c, 1, 49, 127
2, 77800, Note_on_c, 1, 70, 127
2, 77800, Note_on_c, 1, 73, 127
2, 77800, Note_on_c, 1, 77, 127
2, 77800, Note_on_c, 1, 82, 127
2, 78040, Note_off_c, 1, 37, 0
2, 78040, Note_off_c, 1, 49, 0
2, 78040, Note_off_c, 1, 70, 0
2, 78040, Note_off_c, 1, 73, 0
2, 78040, Note_off_c, 1, 77, 0
2, 78040, Note_off_c, 1, 82, 0
2, 78080, Note_on_c, 1, 37, 127
2, 78080, Note_on_c, 1, 51, 127
2, 78080, Note_on_c, 1, 66, 127
2, 78080, Note_on_c, 1, 82, 127
2, 78320, Note_off_c, 1, 37, 0
2, 78320, Note_off_c, 1, 51, 0
2, 78320, Note_off_c, 1, 66, 0
2, 78320, Note_off_c, 1, 82, 0
2, 78360, Note_on_c, 1, 40, 127
2, 78360, Note_on_c, 1, 64, 127
2, 78360, Note_on_c, 1, 79, 127
2, 78600, Note_off_c, 1, 40, 0
2, 78600, Note_off_c, 1, 64, 0
2, 78640, Note_on_c, 1, 40, 127
2, 78640, Note_on_c, 1, 64, 127
2, 78880, Note_off_c, 1, 40, 0
2, 78880, Note_off_c, 1, 64, 0
2, 78880, Note_off_c, 1, 79, 0
2, 78960, Note_on_c, 1, 43, 127
2, 78960, Note_on_c, 1, 55, 127
2, 78960, Note_on_c, 1, 67, 127
2, 78960, Note_on_c, 1, 71, 127
2, 79200, Note_off_c, 1, 43, 0
2, 79200, Note_off_c, 1, 55, 0
2, 79200, Note_off_c, 1, 67, 0
2, 79200, Note_off_c, 1, 71, 0
2, 79240, Note_on_c, 1, 46, 127
2, 79240, Note_on_c, 1, 55, 127
2, 79240, Note_on_c, 1, 70, 127
2, 79240, Note_on_c, 1, 82, 127
2, 79280, Note_off_c, 1, 46, 0
2, 79280, Note_off_c, 1, 55, 0
2, 79280, Note_off_c, 1, 70, 0
2, 79280, Note_off_c, 1, 82, 0
2, 79360, Note_on_c, 1, 46, 127
2, 79360, Note_on_c, 1, 50, 127
2, 79360, Note_on_c, 1, 62, 127
2, 79400, Note_off_c, 1, 46, 0
2, 79400, Note_off_c, 1, 50, 0
2, 79400, Note_off_c, 1, 62, 0
2, 79520, Note_on_c, 1, 57, 127
2, 79520, Note_on_c, 1, 62, 127
2, 79520, Note_on_c, 1, 66, 127
2, 79600, Note_on_c, 1, 73, 127
2, 79640, Note_off_c, 1, 73, 0
2, 79680, Note_on_c, 1, 71, 127
2, 79720, Note_off_c, 1, 57, 0
2, 79720, Note_off_c, 1, 62, 0
2, 79720, Note_off_c, 1, 66, 0
2, 79720, Note_off_c, 1, 71, 0
2, 79760, Note_on_c, 1, 57, 127
2, 79760, Note_on_c, 1, 62, 127
2, 79760, Note_on_c, 1, 64, 127
2, 79760, Note_on_c, 1, 69, 127
2, 79760, Note_on_c, 1, 81, 127
2, 79800, Note_off_c, 1, 57, 0
2, 79800, Note_off_c, 1, 62, 0
2, 79800, Note_off_c, 1, 64, 0
2, 79800, Note_off_c, 1, 69, 0
2, 79800, Note_off_c, 1, 81, 0
2, 79920, Note_on_c, 1, 35, 127
2, 79920, Note_on_c, 1, 47, 127
2, 79920, Note_on_c, 1, 55, 127
2, 79920, Note_on_c, 1, 62, 127
2, 79920, Note_on_c, 1, 65, 127
2, 79920, Note_on_c, 1, 67, 127
2, 79960, Note_off_c, 1, 35, 0
2, 79960, Note_off_c, 1, 47, 0
2, 79960, Note_off_c, 1, 55, 0
2, 79960, Note_off_c, 1, 62, 0
2, 79960, Note_off_c, 1, 65, 0
2, 79960, Note_off_c, 1, 67, 0
2, 80040, Note_on_c, 1, 62, 127
2, 80040, Note_on_c, 1, 66, 127
2, 80040, Note_on_c, 1, 81, 127
2, 80040, Note_on_c, 1, 88, 127
2, 80080, Note_on_c, 1, 64, 127
2, 80080, Note_off_c, 1, 66, 0
2, 80080, Note_on_c, 1, 68, 127
2, 80080, Note_on_c, 1, 71, 127
2, 80080, Note_on_c, 1, 76, 127
2, 80080, Note_off_c, 1, 81, 0
2, 80080, Note_on_c, 1, 83, 127
2, 80080, Note_off_c, 1, 88, 0
2, 80120, Note_on_c, 1, 53, 127
2, 80120, Note_on_c, 1, 57, 127
2, 80120, Note_on_c, 1, 60, 127
2, 80120, Note_off_c, 1, 62, 0
2, 80120, Note_on_c, 1, 63, 127
2, 80120, Note_off_c, 1, 64, 0
2, 80120, Note_off_c, 1, 68, 0
2, 80120, Note_off_c, 1, 71, 0
2, 80120, Note_on_c, 1, 73, 127
2, 80120, Note_off_c, 1, 76, 0
2, 80120, Note_off_c, 1, 83, 0
2, 80160, Note_off_c, 1, 53, 0
2, 80160, Note_off_c, 1, 57, 0
2, 80160, Note_off_c, 1, 60, 0
2, 80160, Note_off_c, 1, 63, 0
2, 80160, Note_off_c, 1, 73, 0
2, 80160, Note_on_c, 1, 77, 127
2, 80160, Note_on_c, 1, 83, 127
2, 80160, Note_on_c, 1, 93, 127
2, 80200, Note_on_c, 1, 54, 127
2, 80200, Note_on_c, 1, 60, 127
2, 80200, Note_on_c, 1, 64, 127
2, 80200, Note_on_c, 1, 66, 127
2, 80200, Note_off_c, 1, 77, 0
2, 80200, Note_off_c, 1, 83, 0
2, 80200, Note_off_c, 1, 93, 0
2, 80240, Note_off_c, 1, 54, 0
2, 80240, Note_off_c, 1, 60, 0
2, 80240, Note_off_c, 1, 64, 0
2, 80240, Note_off_c, 1, 66, 0
2, 80320, Note_on_c, 1, 48, 127
2, 80320, Note_on_c, 1, 59, 127
2, 80320, Note_on_c, 1, 62, 127
2, 80320, Note_on_c, 1, 65, 127
2, 80320, Note_on_c, 1, 67, 127
2, 80360, Note_off_c, 1, 48, 0
2, 80360, Note_off_c, 1, 59, 0
2, 80360, Note_off_c, 1, 62, 0
2, 80360, Note_off_c, 1, 65, 0
2, 80360, Note_off_c, 1, 67, 0
2, 80440, Note_on_c, 1, 66, 127
2, 80440, Note_on_c, 1, 73, 127
2, 80440, Note_on_c, 1, 78, 127
2, 80440, Note_on_c, 1, 81, 127
2, 80440, Note_on_c, 1, 85, 127
2, 80440, Note_on_c, 1, 93, 127
2, 80480, Note_off_c, 1, 66, 0
2, 80480, Note_off_c, 1, 73, 0
2, 80480, Note_off_c, 1, 78, 0
2, 80480, Note_off_c, 1, 81, 0
2, 80480, Note_off_c, 1, 85, 0
2, 80480, Note_off_c, 1, 93, 0
2, 80600, Note_on_c, 1, 48, 127
2, 80600, Note_on_c, 1, 60, 127
2, 80600, Note_on_c, 1, 67, 127
2, 80600, Note_on_c, 1, 72, 127
2, 80600, Note_on_c, 1, 77, 127
2, 80600, Note_on_c, 1, 79, 127
2, 80800, Note_off_c, 1, 48, 0
2, 80800, Note_off_c, 1, 60, 0
2, 80800, Note_off_c, 1, 67, 0
2, 80800, Note_off_c, 1, 72, 0
2, 80800, Note_off_c, 1, 77, 0
2, 80800, Note_off_c, 1, 79, 0
2, 80840, Note_on_c, 1, 48, 127
2, 80840, Note_on_c, 1, 60, 127
2, 80840, Note_on_c, 1, 67, 127
2, 80840, Note_on_c, 1, 72, 127
2, 80840, Note_on_c, 1, 77, 127
2, 80840, Note_on_c, 1, 79, 127
2, 80880, Note_off_c, 1, 48, 0
2, 80880, Note_off_c, 1, 60, 0
2, 80880, Note_off_c, 1, 67, 0
2, 80880, Note_off_c, 1, 72, 0
2, 80880, Note_off_c, 1, 77, 0
2, 80880, Note_off_c, 1, 79, 0
2, 80920, Note_on_c, 1, 36, 127
2, 80920, Note_on_c, 1, 48, 127
2, 80920, Note_on_c, 1, 79, 127
2, 80920, Note_on_c, 1, 84, 127
2, 80920, Note_on_c, 1, 89, 127
2, 80920, Note_on_c, 1, 91, 127
2, 81040, Note_off_c, 1, 36, 0
2, 81040, Note_off_c, 1, 48, 0
2, 81040, Note_off_c, 1, 79, 0
2, 81040, Note_off_c, 1, 84, 0
2, 81040, Note_off_c, 1, 89, 0
2, 81040, Note_off_c, 1, 91, 0
2, 81080, Note_on_c, 1, 48, 127
2, 81080, Note_on_c, 1, 60, 127
2, 81080, Note_on_c, 1, 67, 127
2, 81080, Note_on_c, 1, 72, 127
2, 81080, Note_on_c, 1, 77, 127
2, 81080, Note_on_c, 1, 79, 127
2, 81160, Note_off_c, 1, 48, 0
2, 81160, Note_off_c, 1, 60, 0
2, 81160, Note_off_c, 1, 67, 0
2, 81160, Note_off_c, 1, 72, 0
2, 81160, Note_off_c, 1, 77, 0
2, 81160, Note_off_c, 1, 79, 0
2, 81200, Note_on_c, 1, 36, 127
2, 81200, Note_on_c, 1, 48, 127
2, 81200, Note_on_c, 1, 79, 127
2, 81200, Note_on_c, 1, 84, 127
2, 81200, Note_on_c, 1, 89, 127
2, 81200, Note_on_c, 1, 91, 127
2, 81440, Note_off_c, 1, 36, 0
2, 81440, Note_off_c, 1, 48, 0
2, 81440, Note_off_c, 1, 79, 0
2, 81440, Note_off_c, 1, 84, 0
2, 81440, Note_off_c, 1, 89, 0
2, 81440, Note_off_c, 1, 91, 0
2, 81480, Note_on_c, 1, 36, 127
2, 81480, Note_on_c, 1, 48, 127
2, 81480, Note_on_c, 1, 79, 127
2, 81480, Note_on_c, 1, 84, 127
2, 81480, Note_on_c, 1, 89, 127
2, 81480, Note_on_c, 1, 91, 127
2, 81680, Note_off_c, 1, 36, 0
2, 81680, Note_off_c, 1, 48, 0
2, 81680, Note_off_c, 1, 79, 0
2, 81680, Note_off_c, 1, 84, 0
2, 81680, Note_off_c, 1, 89, 0
2, 81680, Note_off_c, 1, 91, 0
2, 81760, Note_on_c, 1, 30, 127
2, 81760, Note_on_c, 1, 42, 127
2, 81760, Note_on_c, 1, 66, 127
2, 81760, Note_on_c, 1, 70, 127
2, 81800, Note_off_c, 1, 30, 0
2, 81800, Note_off_c, 1, 42, 0
2, 81800, Note_on_c, 1, 45, 127
2, 81800, Note_on_c, 1, 49, 127
2, 81800, Note_on_c, 1, 61, 127
2, 81800, Note_off_c, 1, 66, 0
2, 81800, Note_off_c, 1, 70, 0
2, 81800, Note_on_c, 1, 73, 127
2, 81840, Note_on_c, 1, 30, 127
2, 81840, Note_on_c, 1, 42, 127
2, 81840, Note_off_c, 1, 45, 0
2, 81840, Note_off_c, 1, 49, 0
2, 81840, Note_off_c, 1, 61, 0
2, 81840, Note_on_c, 1, 66, 127
2, 81840, Note_on_c, 1, 70, 127
2, 81840, Note_off_c, 1, 73, 0
2, 81960, Note_off_c, 1, 30, 0
2, 81960, Note_off_c, 1, 42, 0
2, 81960, Note_off_c, 1, 66, 0
2, 81960, Note_off_c, 1, 70, 0
2, 82000, Note_on_c, 1, 40, 127
2, 82040, Note_off_c, 1, 40, 0
2, 82080, Note_on_c, 1, 40, 127
2, 82120, Note_off_c, 1, 40, 0
2, 82160, Note_on_c, 1, 40, 127
2, 82200, Note_off_c, 1, 40, 0
2, 82240, Note_on_c, 1, 40, 127
2, 82280, Note_on_c, 1, 57, 127
2, 82280, Note_on_c, 1, 64, 127
2, 82520, Note_off_c, 1, 40, 0
2, 82520, Note_off_c, 1, 57, 0
2, 82520, Note_off_c, 1, 64, 0
2, 82560, Note_on_c, 1, 40, 127
2, 82560, Note_on_c, 1, 48, 127
2, 82560, Note_on_c, 1, 60, 127
2, 82600, Note_off_c, 1, 48, 0
2, 82600, Note_off_c, 1, 60, 0
2, 82680, Note_on_c, 1, 48, 127
2, 82680, Note_on_c, 1, 60, 127
2, 82720, Note_off_c, 1, 48, 0
2, 82720, Note_off_c, 1, 60, 0
2, 82800, Note_off_c, 1, 40, 0
2, 82840, Note_on_c, 1, 40, 127
2, 82880, Note_on_c, 1, 47, 127
2, 82880, Note_on_c, 1, 50, 127
2, 82880, Note_on_c, 1, 52, 127
2, 82880, Note_on_c, 1, 56, 127
2, 83040, Note_off_c, 1, 47, 0
2, 83040, Note_off_c, 1, 50, 0
2, 83040, Note_off_c, 1, 52, 0
2, 83040, Note_off_c, 1, 56, 0
2, 83120, Note_on_c, 1, 47, 127
2, 83120, Note_on_c, 1, 50, 127
2, 83120, Note_on_c, 1, 52, 127
2, 83120, Note_on_c, 1, 56, 127
2, 83280, Note_off_c, 1, 47, 0
2, 83280, Note_off_c, 1, 50, 0
2, 83280, Note_off_c, 1, 52, 0
2, 83280, Note_off_c, 1, 56, 0
2, 83400, Note_on_c, 1, 47, 127
2, 83400, Note_on_c, 1, 50, 127
2, 83400, Note_on_c, 1, 52, 127
2, 83400, Note_on_c, 1, 56, 127
2, 83560, Note_off_c, 1, 47, 0
2, 83560, Note_off_c, 1, 50, 0
2, 83560, Note_off_c, 1, 52, 0
2, 83560, Note_off_c, 1, 56, 0
2, 83680, Note_off_c, 1, 40, 0
2, 83680, Note_on_c, 1, 50, 127
2, 83680, Note_on_c, 1, 56, 127
2, 83680, Note_on_c, 1, 59, 127
2, 83680, Note_on_c, 1, 64, 127
2, 83680, Note_on_c, 1, 68, 127
2, 83880, Note_off_c, 1, 68, 0
2, 83920, Note_off_c, 1, 50, 0
2, 83920, Note_off_c, 1, 56, 0
2, 83920, Note_off_c, 1, 59, 0
2, 83920, Note_off_c, 1, 64, 0
2, 83960, Note_on_c, 1, 35, 127
2, 84200, Note_on_c, 1, 54, 127
2, 84200, Note_on_c, 1, 61, 127
2, 84440, Note_off_c, 1, 35, 0
2, 84440, Note_off_c, 1, 54, 0
2, 84440, Note_off_c, 1, 61, 0
2, 84480, Note_on_c, 1, 40, 127
2, 84760, Note_off_c, 1, 40, 0
2, 84800, Note_on_c, 1, 40, 127
2, 84800, Note_on_c, 1, 51, 127
2, 84800, Note_on_c, 1, 64, 127
2, 85000, Note_off_c, 1, 51, 0
2, 85000, Note_off_c, 1, 64, 0
2, 85040, Note_on_c, 1, 51, 127
2, 85040, Note_on_c, 1, 66, 127
2, 85160, Note_off_c, 1, 66, 0
2, 85200, Note_on_c, 1, 66, 127
2, 85280, Note_off_c, 1, 51, 0
2, 85280, Note_off_c, 1, 66, 0
2, 85320, Note_off_c, 1, 40, 0
2, 85320, Note_on_c, 1, 46, 127
2, 85320, Note_on_c, 1, 53, 127
2, 85320, Note_on_c, 1, 65, 127
2, 85320, Note_on_c, 1, 75, 127
2, 85320, Note_on_c, 1, 77, 127
2, 85360, Note_off_c, 1, 46, 0
2, 85360, Note_off_c, 1, 53, 0
2, 85360, Note_on_c, 1, 54, 127
2, 85360, Note_on_c, 1, 61, 127
2, 85360, Note_on_c, 1, 64, 127
2, 85360, Note_off_c, 1, 65, 0
2, 85360, Note_on_c, 1, 66, 127
2, 85360, Note_on_c, 1, 70, 127
2, 85360, Note_on_c, 1, 73, 127
2, 85360, Note_off_c, 1, 75, 0
2, 85360, Note_on_c, 1, 76, 127
2, 85360, Note_off_c, 1, 77, 0
2, 85360, Note_on_c, 1, 82, 127
2, 85400, Note_on_c, 1, 52, 127
2, 85400, Note_off_c, 1, 54, 0
2, 85400, Note_on_c, 1, 57, 127
2, 85400, Note_on_c, 1, 59, 127
2, 85400, Note_off_c, 1, 61, 0
2, 85400, Note_on_c, 1, 63, 127
2, 85400, Note_off_c, 1, 64, 0
2, 85400, Note_off_c, 1, 66, 0
2, 85400, Note_off_c, 1, 70, 0
2, 85400, Note_off_c, 1, 73, 0
2, 85400, Note_off_c, 1, 76, 0
2, 85400, Note_off_c, 1, 82, 0
2, 85440, Note_off_c, 1, 52, 0
2, 85440, Note_on_c, 1, 56, 127
2, 85440, Note_off_c, 1, 57, 0
2, 85440, Note_off_c, 1, 59, 0
2, 85440, Note_on_c, 1, 62, 127
2, 85440, Note_off_c, 1, 63, 0
2, 85440, Note_on_c, 1, 65, 127
2, 85440, Note_on_c, 1, 84, 127
2, 85440, Note_on_c, 1, 87, 127
2, 85440, Note_on_c, 1, 96, 127
2, 85480, Note_off_c, 1, 56, 0
2, 85480, Note_on_c, 1, 60, 127
2, 85480, Note_off_c, 1, 62, 0
2, 85480, Note_off_c, 1, 65, 0
2, 85480, Note_on_c, 1, 67, 127
2, 85480, Note_on_c, 1, 73, 127
2, 85480, Note_on_c, 1, 75, 127
2, 85480, Note_off_c, 1, 84, 0
2, 85480, Note_off_c, 1, 87, 0
2, 85480, Note_off_c, 1, 96, 0
2, 85520, Note_on_c, 1, 55, 127
2, 85520, Note_off_c, 1, 60, 0
2, 85520, Note_on_c, 1, 63, 127
2, 85520, Note_off_c, 1, 67, 0
2, 85520, Note_off_c, 1, 73, 0
2, 85520, Note_off_c, 1, 75, 0
2, 85520, Note_on_c, 1, 79, 127
2, 85520, Note_on_c, 1, 83, 127
2, 85520, Note_on_c, 1, 91, 127
2, 85560, Note_on_c, 1, 40, 127
2, 85560, Note_off_c, 1, 55, 0
2, 85560, Note_off_c, 1, 63, 0
2, 85560, Note_off_c, 1, 79, 0
2, 85560, Note_off_c, 1, 83, 0
2, 85560, Note_off_c, 1, 91, 0
2, 85600, Note_off_c, 1, 40, 0
2, 85600, Note_on_c, 1, 47, 127
2, 85600, Note_on_c, 1, 67, 127
2, 85600, Note_on_c, 1, 76, 127
2, 85600, Note_on_c, 1, 79, 127
2, 85800, Note_off_c, 1, 47, 0
2, 85800, Note_on_c, 1, 48, 127
2, 85800, Note_off_c, 1, 67, 0
2, 85800, Note_off_c, 1, 76, 0
2, 85800, Note_off_c, 1, 79, 0
2, 85840, Note_off_c, 1, 48, 0
2, 85840, Note_on_c, 1, 56, 127
2, 85840, Note_on_c, 1, 58, 127
2, 85840, Note_on_c, 1, 61, 127
2, 85840, Note_on_c, 1, 63, 127
2, 85840, Note_on_c, 1, 67, 127
2, 85840, Note_on_c, 1, 73, 127
2, 85840, Note_on_c, 1, 82, 127
2, 86080, Note_off_c, 1, 56, 0
2, 86080, Note_off_c, 1, 58, 0
2, 86080, Note_off_c, 1, 61, 0
2, 86080, Note_off_c, 1, 63, 0
2, 86080, Note_off_c, 1, 67, 0
2, 86080, Note_off_c, 1, 73, 0
2, 86080, Note_off_c, 1, 82, 0
2, 86120, Note_on_c, 1, 56, 127
2, 86120, Note_on_c, 1, 58, 127
2, 86120, Note_on_c, 1, 61, 127
2, 86120, Note_on_c, 1, 63, 127
2, 86120, Note_on_c, 1, 67, 127
2, 86120, Note_on_c, 1, 73, 127
2, 86120, Note_on_c, 1, 75, 127
2, 86360, Note_off_c, 1, 56, 0
2, 86360, Note_off_c, 1, 58, 0
2, 86360, Note_off_c, 1, 61, 0
2, 86360, Note_off_c, 1, 63, 0
2, 86360, Note_off_c, 1, 67, 0
2, 86360, Note_off_c, 1, 73, 0
2, 86360, Note_off_c, 1, 75, 0
2, 86400, Note_on_c, 1, 48, 127
2, 86400, Note_on_c, 1, 55, 127
2, 86400, Note_on_c, 1, 80, 127
2, 86440, Note_off_c, 1, 48, 0
2, 86440, Note_off_c, 1, 55, 0
2, 86440, Note_on_c, 1, 59, 127
2, 86440, Note_on_c, 1, 65, 127
2, 86440, Note_on_c, 1, 71, 127
2, 86440, Note_on_c, 1, 77, 127
2, 86440, Note_on_c, 1, 79, 127
2, 86440, Note_off_c, 1, 80, 0
2, 86440, Note_on_c, 1, 83, 127
2, 86480, Note_on_c, 1, 44, 127
2, 86480, Note_on_c, 1, 56, 127
2, 86480, Note_off_c, 1, 59, 0
2, 86480, Note_off_c, 1, 65, 0
2, 86480, Note_off_c, 1, 71, 0
2, 86480, Note_off_c, 1, 77, 0
2, 86480, Note_off_c, 1, 79, 0
2, 86480, Note_on_c, 1, 87, 127
2, 86480, Note_on_c, 1, 95, 127
2, 86520, Note_off_c, 1, 44, 0
2, 86520, Note_on_c, 1, 48, 127
2, 86520, Note_on_c, 1, 55, 127
2, 86520, Note_off_c, 1, 56, 0
2, 86520, Note_on_c, 1, 63, 127
2, 86520, Note_on_c, 1, 72, 127
2, 86520, Note_on_c, 1, 80, 127
2, 86520, Note_off_c, 1, 83, 0
2, 86520, Note_off_c, 1, 87, 0
2, 86520, Note_off_c, 1, 95, 0
2, 86560, Note_off_c, 1, 63, 0
2, 86560, Note_off_c, 1, 72, 0
2, 86600, Note_on_c, 1, 47, 127
2, 86600, Note_off_c, 1, 48, 0
2, 86600, Note_off_c, 1, 55, 0
2, 86600, Note_off_c, 1, 80, 0
2, 86640, Note_on_c, 1, 45, 127
2, 86640, Note_off_c, 1, 47, 0
2, 86640, Note_on_c, 1, 55, 127
2, 86640, Note_on_c, 1, 60, 127
2, 86640, Note_on_c, 1, 69, 127
2, 86720, Note_on_c, 1, 43, 127
2, 86720, Note_off_c, 1, 45, 0
2, 86720, Note_off_c, 1, 55, 0
2, 86720, Note_off_c, 1, 60, 0
2, 86720, Note_off_c, 1, 69, 0
2, 86720, Note_on_c, 1, 84, 127
2, 86720, Note_on_c, 1, 87, 127
2, 86760, Note_off_c, 1, 43, 0
2, 86760, Note_on_c, 1, 45, 127
2, 86760, Note_on_c, 1, 55, 127
2, 86760, Note_on_c, 1, 60, 127
2, 86760, Note_on_c, 1, 69, 127
2, 86760, Note_off_c, 1, 84, 0
2, 86760, Note_off_c, 1, 87, 0
2, 86840, Note_off_c, 1, 45, 0
2, 86840, Note_off_c, 1, 55, 0
2, 86840, Note_off_c, 1, 60, 0
2, 86840, Note_off_c, 1, 69, 0
2, 86880, Note_on_c, 1, 45, 127
2, 86880, Note_on_c, 1, 55, 127
2, 86880, Note_on_c, 1, 60, 127
2, 86880, Note_on_c, 1, 69, 127
2, 86920, Note_off_c, 1, 45, 0
2, 86920, Note_off_c, 1, 55, 0
2, 86920, Note_off_c, 1, 60, 0
2, 86920, Note_off_c, 1, 69, 0
2, 86960, Note_on_c, 1, 40, 127
2, 86960, Note_on_c, 1, 52, 127
2, 86960, Note_on_c, 1, 55, 127
2, 86960, Note_on_c, 1, 64, 127
2, 87200, Note_off_c, 1, 40, 0
2, 87200, Note_off_c, 1, 52, 0
2, 87200, Note_off_c, 1, 55, 0
2, 87200, Note_off_c, 1, 64, 0
2, 87240, Note_on_c, 1, 43, 127
2, 87240, Note_on_c, 1, 50, 127
2, 87240, Note_on_c, 1, 58, 127
2, 87240, Note_on_c, 1, 62, 127
2, 87440, Note_off_c, 1, 43, 0
2, 87440, Note_off_c, 1, 50, 0
2, 87440, Note_off_c, 1, 58, 0
2, 87440, Note_off_c, 1, 62, 0
2, 87480, Note_on_c, 1, 50, 127
2, 87480, Note_on_c, 1, 54, 127
2, 87480, Note_on_c, 1, 57, 127
2, 87480, Note_on_c, 1, 62, 127
2, 87480, Note_on_c, 1, 69, 127
2, 87720, Note_off_c, 1, 50, 0
2, 87720, Note_off_c, 1, 54, 0
2, 87720, Note_off_c, 1, 57, 0
2, 87720, Note_off_c, 1, 62, 0
2, 87720, Note_off_c, 1, 69, 0
2, 87760, Note_on_c, 1, 38, 127
2, 87760, Note_on_c, 1, 50, 127
2, 87760, Note_on_c, 1, 66, 127
2, 87760, Note_on_c, 1, 69, 127
2, 87760, Note_on_c, 1, 74, 127
2, 88000, Note_off_c, 1, 38, 0
2, 88000, Note_off_c, 1, 50, 0
2, 88000, Note_off_c, 1, 66, 0
2, 88000, Note_off_c, 1, 69, 0
2, 88000, Note_off_c, 1, 74, 0
2, 88040, Note_on_c, 1, 42, 127
2, 88040, Note_on_c, 1, 54, 127
2, 88040, Note_on_c, 1, 57, 127
2, 88040, Note_on_c, 1, 62, 127
2, 88040, Note_on_c, 1, 69, 127
2, 88280, Note_off_c, 1, 42, 0
2, 88280, Note_off_c, 1, 54, 0
2, 88280, Note_off_c, 1, 57, 0
2, 88280, Note_off_c, 1, 62, 0
2, 88280, Note_off_c, 1, 69, 0
2, 88320, Note_on_c, 1, 49, 127
2, 88320, Note_on_c, 1, 55, 127
2, 88320, Note_on_c, 1, 57, 127
2, 88320, Note_on_c, 1, 61, 127
2, 88320, Note_on_c, 1, 64, 127
2, 88320, Note_on_c, 1, 69, 127
2, 88520, Note_off_c, 1, 49, 0
2, 88520, Note_off_c, 1, 55, 0
2, 88520, Note_off_c, 1, 57, 0
2, 88520, Note_off_c, 1, 61, 0
2, 88520, Note_off_c, 1, 64, 0
2, 88520, Note_off_c, 1, 69, 0
2, 88560, Note_on_c, 1, 49, 127
2, 88560, Note_on_c, 1, 55, 127
2, 88560, Note_on_c, 1, 57, 127
2, 88560, Note_on_c, 1, 61, 127
2, 88560, Note_on_c, 1, 64, 127
2, 88560, Note_on_c, 1, 69, 127
2, 88800, Note_off_c, 1, 49, 0
2, 88800, Note_off_c, 1, 55, 0
2, 88800, Note_off_c, 1, 57, 0
2, 88800, Note_off_c, 1, 61, 0
2, 88800, Note_off_c, 1, 64, 0
2, 88800, Note_off_c, 1, 69, 0
2, 88880, Note_on_c, 1, 27, 127
2, 88880, Note_on_c, 1, 39, 127
2, 88880, Note_on_c, 1, 60, 127
2, 88880, Note_on_c, 1, 72, 127
2, 89080, Note_off_c, 1, 27, 0
2, 89080, Note_off_c, 1, 39, 0
2, 89080, Note_off_c, 1, 60, 0
2, 89080, Note_off_c, 1, 72, 0
2, 89120, Note_on_c, 1, 26, 127
2, 89120, Note_on_c, 1, 38, 127
2, 89120, Note_on_c, 1, 70, 127
2, 89640, Note_off_c, 1, 26, 0
2, 89640, Note_off_c, 1, 38, 0
2, 89640, Note_off_c, 1, 70, 0
2, 89680, Note_on_c, 1, 31, 127
2, 89680, Note_on_c, 1, 43, 127
2, 89680, Note_on_c, 1, 62, 127
2, 89680, Note_on_c, 1, 71, 127
2, 89880, Note_off_c, 1, 62, 0
2, 89880, Note_off_c, 1, 71, 0
2, 89920, Note_on_c, 1, 59, 127
2, 90160, Note_off_c, 1, 31, 0
2, 90160, Note_off_c, 1, 43, 0
2, 90160, Note_off_c, 1, 59, 0
2, 90200, Note_on_c, 1, 36, 127
2, 90200, Note_on_c, 1, 43, 127
2, 90200, Note_on_c, 1, 55, 127
2, 90200, Note_on_c, 1, 60, 127
2, 90200, Note_on_c, 1, 63, 127
2, 90920, Note_off_c, 1, 36, 0
2, 90920, Note_off_c, 1, 43, 0
2, 90920, Note_off_c, 1, 55, 0
2, 90920, Note_off_c, 1, 60, 0
2, 90920, Note_off_c, 1, 63, 0
2, 90960, Note_on_c, 1, 36, 127
2, 90960, Note_on_c, 1, 43, 127
2, 90960, Note_on_c, 1, 55, 127
2, 90960, Note_on_c, 1, 60, 127
2, 90960, Note_on_c, 1, 63, 127
2, 91240, Note_off_c, 1, 36, 0
2, 91240, Note_off_c, 1, 43, 0
2, 91240, Note_on_c, 1, 48, 127
2, 91240, Note_off_c, 1, 55, 0
2, 91240, Note_off_c, 1, 60, 0
2, 91240, Note_off_c, 1, 63, 0
2, 91280, Note_on_c, 1, 31, 127
2, 91280, Note_on_c, 1, 43, 127
2, 91280, Note_off_c, 1, 48, 0
2, 91280, Note_on_c, 1, 55, 127
2, 91280, Note_on_c, 1, 59, 127
2, 91280, Note_on_c, 1, 62, 127
2, 91760, Note_off_c, 1, 31, 0
2, 91760, Note_on_c, 1, 36, 127
2, 91760, Note_off_c, 1, 43, 0
2, 91760, Note_off_c, 1, 55, 0
2, 91760, Note_off_c, 1, 59, 0
2, 91760, Note_off_c, 1, 62, 0
2, 91800, Note_on_c, 1, 31, 127
2, 91800, Note_off_c, 1, 36, 0
2, 91800, Note_on_c, 1, 43, 127
2, 91800, Note_on_c, 1, 59, 127
2, 91800, Note_on_c, 1, 62, 127
2, 92040, Note_off_c, 1, 31, 0
2, 92040, Note_off_c, 1, 43, 0
2, 92040, Note_off_c, 1, 59, 0
2, 92040, Note_off_c, 1, 62, 0
2, 92080, Note_on_c, 1, 36, 127
2, 92080, Note_on_c, 1, 48, 127
2, 92080, Note_on_c, 1, 57, 127
2, 92080, Note_on_c, 1, 63, 127
2, 92080, Note_on_c, 1, 67, 127
2, 92080, Note_on_c, 1, 69, 127
2, 92560, Note_off_c, 1, 36, 0
2, 92560, Note_off_c, 1, 48, 0
2, 92560, Note_off_c, 1, 57, 0
2, 92560, Note_off_c, 1, 63, 0
2, 92560, Note_off_c, 1, 67, 0
2, 92560, Note_off_c, 1, 69, 0
2, 92600, Note_on_c, 1, 48, 127
2, 92600, Note_on_c, 1, 55, 127
2, 92600, Note_on_c, 1, 57, 127
2, 92600, Note_on_c, 1, 63, 127
2, 92600, Note_on_c, 1, 69, 127
2, 92600, Note_on_c, 1, 75, 127
2, 92600, Note_on_c, 1, 79, 127
2, 92600, Note_on_c, 1, 81, 127
2, 92680, Note_on_c, 1, 67, 127
2, 92680, Note_off_c, 1, 69, 0
2, 92680, Note_off_c, 1, 75, 0
2, 92680, Note_off_c, 1, 81, 0
2, 92720, Note_off_c, 1, 67, 0
2, 92720, Note_off_c, 1, 79, 0
2, 92760, Note_on_c, 1, 67, 127
2, 92760, Note_on_c, 1, 79, 127
2, 92800, Note_off_c, 1, 67, 0
2, 92800, Note_off_c, 1, 79, 0
2, 92840, Note_off_c, 1, 48, 0
2, 92840, Note_off_c, 1, 55, 0
2, 92840, Note_off_c, 1, 57, 0
2, 92840, Note_off_c, 1, 63, 0
2, 92880, Note_on_c, 1, 50, 127
2, 92880, Note_on_c, 1, 57, 127
2, 92880, Note_on_c, 1, 60, 127
2, 92880, Note_on_c, 1, 66, 127
2, 92880, Note_on_c, 1, 69, 127
2, 92880, Note_on_c, 1, 74, 127
2, 92880, Note_on_c, 1, 78, 127
2, 92880, Note_on_c, 1, 81, 127
2, 92920, Note_off_c, 1, 50, 0
2, 92920, Note_off_c, 1, 57, 0
2, 92920, Note_off_c, 1, 60, 0
2, 92920, Note_off_c, 1, 66, 0
2, 92920, Note_off_c, 1, 69, 0
2, 92920, Note_off_c, 1, 74, 0
2, 92920, Note_off_c, 1, 78, 0
2, 92920, Note_off_c, 1, 81, 0
2, 92960, Note_on_c, 1, 50, 127
2, 92960, Note_on_c, 1, 57, 127
2, 92960, Note_on_c, 1, 60, 127
2, 92960, Note_on_c, 1, 66, 127
2, 92960, Note_on_c, 1, 69, 127
2, 92960, Note_on_c, 1, 74, 127
2, 92960, Note_on_c, 1, 78, 127
2, 92960, Note_on_c, 1, 81, 127
2, 93000, Note_off_c, 1, 69, 0
2, 93000, Note_off_c, 1, 74, 0
2, 93000, Note_off_c, 1, 78, 0
2, 93000, Note_off_c, 1, 81, 0
2, 93040, Note_on_c, 1, 70, 127
2, 93040, Note_on_c, 1, 82, 127
2, 93120, Note_off_c, 1, 50, 0
2, 93120, Note_off_c, 1, 57, 0
2, 93120, Note_off_c, 1, 60, 0
2, 93120, Note_off_c, 1, 66, 0
2, 93120, Note_off_c, 1, 70, 0
2, 93120, Note_off_c, 1, 82, 0
2, 93160, Note_on_c, 1, 48, 127
2, 93160, Note_on_c, 1, 53, 127
2, 93160, Note_on_c, 1, 57, 127
2, 93160, Note_on_c, 1, 65, 127
2, 93160, Note_on_c, 1, 69, 127
2, 93280, Note_off_c, 1, 65, 0
2, 93280, Note_off_c, 1, 69, 0
2, 93320, Note_off_c, 1, 53, 0
2, 93320, Note_on_c, 1, 55, 127
2, 93320, Note_off_c, 1, 57, 0
2, 93320, Note_on_c, 1, 58, 127
2, 93320, Note_on_c, 1, 60, 127
2, 93320, Note_on_c, 1, 70, 127
2, 93400, Note_off_c, 1, 48, 0
2, 93400, Note_off_c, 1, 55, 0
2, 93400, Note_off_c, 1, 58, 0
2, 93400, Note_off_c, 1, 60, 0
2, 93400, Note_off_c, 1, 70, 0
2, 93440, Note_on_c, 1, 54, 127
2, 93440, Note_on_c, 1, 57, 127
2, 93440, Note_on_c, 1, 66, 127
2, 93440, Note_on_c, 1, 69, 127
2, 93680, Note_off_c, 1, 54, 0
2, 93680, Note_off_c, 1, 57, 0
2, 93680, Note_off_c, 1, 66, 0
2, 93680, Note_off_c, 1, 69, 0
2, 93720, Note_on_c, 1, 43, 127
2, 93720, Note_on_c, 1, 45, 127
2, 93720, Note_on_c, 1, 49, 127
2, 93720, Note_on_c, 1, 52, 127
2, 93720, Note_on_c, 1, 57, 127
2, 94200, Note_off_c, 1, 43, 0
2, 94200, Note_off_c, 1, 45, 0
2, 94200, Note_off_c, 1, 49, 0
2, 94200, Note_off_c, 1, 52, 0
2, 94200, Note_off_c, 1, 57, 0
2, 94240, Note_on_c, 1, 40, 127
2, 94240, Note_on_c, 1, 45, 127
2, 94240, Note_on_c, 1, 49, 127
2, 94240, Note_on_c, 1, 55, 127
2, 94240, Note_on_c, 1, 57, 127
2, 94760, Note_off_c, 1, 40, 0
2, 94760, Note_off_c, 1, 45, 0
2, 94760, Note_off_c, 1, 49, 0
2, 94760, Note_off_c, 1, 55, 0
2, 94760, Note_off_c, 1, 57, 0
2, 94800, Note_on_c, 1, 43, 127
2, 94800, Note_on_c, 1, 45, 127
2, 94800, Note_on_c, 1, 49, 127
2, 94800, Note_on_c, 1, 52, 127
2, 94800, Note_on_c, 1, 57, 127
2, 95160, Note_off_c, 1, 43, 0
2, 95160, Note_off_c, 1, 45, 0
2, 95160, Note_off_c, 1, 49, 0
2, 95160, Note_off_c, 1, 52, 0
2, 95160, Note_off_c, 1, 57, 0
2, 95200, Note_on_c, 1, 43, 127
2, 95200, Note_on_c, 1, 45, 127
2, 95200, Note_on_c, 1, 49, 127
2, 95200, Note_on_c, 1, 52, 127
2, 95200, Note_on_c, 1, 57, 127
2, 95320, Note_off_c, 1, 43, 0
2, 95320, Note_off_c, 1, 45, 0
2, 95320, Note_off_c, 1, 49, 0
2, 95320, Note_off_c, 1, 52, 0
2, 95320, Note_off_c, 1, 57, 0
2, 95360, Note_on_c, 1, 40, 127
2, 95360, Note_on_c, 1, 45, 127
2, 95360, Note_on_c, 1, 49, 127
2, 95360, Note_on_c, 1, 55, 127
2, 95360, Note_on_c, 1, 57, 127
2, 95880, Note_off_c, 1, 40, 0
2, 95880, Note_off_c, 1, 45, 0
2, 95880, Note_off_c, 1, 49, 0
2, 95880, Note_off_c, 1, 55, 0
2, 95880, Note_off_c, 1, 57, 0
2, 95920, Note_on_c, 1, 43, 127
2, 95920, Note_on_c, 1, 45, 127
2, 95920, Note_on_c, 1, 49, 127
2, 95920, Note_on_c, 1, 52, 127
2, 95920, Note_on_c, 1, 57, 127
2, 96400, Note_off_c, 1, 43, 0
2, 96400, Note_off_c, 1, 45, 0
2, 96400, Note_off_c, 1, 49, 0
2, 96400, Note_off_c, 1, 52, 0
2, 96400, Note_off_c, 1, 57, 0
2, 96440, Note_on_c, 1, 40, 127
2, 96440, Note_on_c, 1, 45, 127
2, 96440, Note_on_c, 1, 49, 127
2, 96440, Note_on_c, 1, 55, 127
2, 96440, Note_on_c, 1, 57, 127
2, 96960, Note_off_c, 1, 40, 0
2, 96960, Note_off_c, 1, 49, 0
2, 96960, Note_off_c, 1, 55, 0
2, 96960, Note_off_c, 1, 57, 0
2, 97000, Note_on_c, 1, 37, 127
2, 97000, Note_off_c, 1, 45, 0
2, 97000, Note_on_c, 1, 49, 127
2, 97000, Note_on_c, 1, 56, 127
2, 97000, Note_on_c, 1, 59, 127
2, 97240, Note_off_c, 1, 37, 0
2, 97240, Note_off_c, 1, 49, 0
2, 97240, Note_off_c, 1, 56, 0
2, 97240, Note_off_c, 1, 59, 0
2, 97280, Note_on_c, 1, 37, 127
2, 97280, Note_on_c, 1, 49, 127
2, 97280, Note_on_c, 1, 56, 127
2, 97280, Note_on_c, 1, 59, 127
2, 97520, Note_off_c, 1, 37, 0
2, 97520, Note_off_c, 1, 49, 0
2, 97520, Note_off_c, 1, 56, 0
2, 97520, Note_off_c, 1, 59, 0
2, 97560, Note_on_c, 1, 37, 127
2, 97560, Note_on_c, 1, 49, 127
2, 97560, Note_on_c, 1, 69, 127
2, 97560, Note_on_c, 1, 73, 127
2, 97560, Note_on_c, 1, 78, 127
2, 98040, Note_off_c, 1, 37, 0
2, 98040, Note_off_c, 1, 49, 0
2, 98040, Note_off_c, 1, 69, 0
2, 98040, Note_off_c, 1, 73, 0
2, 98040, Note_off_c, 1, 78, 0
2, 98080, Note_on_c, 1, 35, 127
2, 98080, Note_on_c, 1, 47, 127
2, 98080, Note_on_c, 1, 59, 127
2, 98320, Note_off_c, 1, 59, 0
2, 98360, Note_on_c, 1, 32, 127
2, 98360, Note_off_c, 1, 35, 0
2, 98360, Note_on_c, 1, 44, 127
2, 98360, Note_off_c, 1, 47, 0
2, 98360, Note_on_c, 1, 59, 127
2, 98560, Note_off_c, 1, 32, 0
2, 98560, Note_on_c, 1, 35, 127
2, 98560, Note_off_c, 1, 44, 0
2, 98560, Note_on_c, 1, 47, 127
2, 98560, Note_off_c, 1, 59, 0
2, 98600, Note_on_c, 1, 62, 127
2, 98840, Note_off_c, 1, 62, 0
2, 98880, Note_on_c, 1, 56, 127
2, 98880, Note_on_c, 1, 62, 127
2, 99080, Note_off_c, 1, 56, 0
2, 99120, Note_off_c, 1, 35, 0
2, 99120, Note_off_c, 1, 47, 0
2, 99120, Note_off_c, 1, 62, 0
2, 99120, Note_on_c, 1, 64, 127
2, 99160, Note_on_c, 1, 36, 127
2, 99160, Note_on_c, 1, 48, 127
2, 99240, Note_off_c, 1, 36, 0
2, 99240, Note_off_c, 1, 48, 0
2, 99240, Note_off_c, 1, 64, 0
2, 99280, Note_on_c, 1, 36, 127
2, 99280, Note_on_c, 1, 48, 127
2, 99280, Note_on_c, 1, 64, 127
2, 99400, Note_off_c, 1, 36, 0
2, 99400, Note_off_c, 1, 48, 0
2, 99440, Note_on_c, 1, 45, 127
2, 99440, Note_off_c, 1, 64, 0
2, 99440, Note_on_c, 1, 69, 127
2, 99440, Note_on_c, 1, 76, 127
2, 99680, Note_off_c, 1, 45, 0
2, 99680, Note_off_c, 1, 69, 0
2, 99680, Note_off_c, 1, 76, 0
2, 99720, Note_on_c, 1, 33, 127
2, 99720, Note_on_c, 1, 45, 127
2, 99720, Note_on_c, 1, 77, 127
2, 100000, Note_on_c, 1, 72, 127
2, 100200, Note_off_c, 1, 72, 0
2, 100200, Note_off_c, 1, 77, 0
2, 100240, Note_on_c, 1, 75, 127
2, 100480, Note_off_c, 1, 33, 0
2, 100480, Note_off_c, 1, 45, 0
2, 100480, Note_off_c, 1, 75, 0
2, 100520, Note_on_c, 1, 36, 127
2, 100520, Note_on_c, 1, 48, 127
2, 100520, Note_on_c, 1, 73, 127
2, 100760, Note_off_c, 1, 73, 0
2, 100800, Note_on_c, 1, 64, 127
2, 101000, Note_off_c, 1, 64, 0
2, 101040, Note_on_c, 1, 70, 127
2, 101280, Note_off_c, 1, 70, 0
2, 101320, Note_on_c, 1, 67, 127
2, 101480, Note_off_c, 1, 36, 0
2, 101480, Note_off_c, 1, 48, 0
2, 101480, Note_off_c, 1, 67, 0
2, 101520, Note_on_c, 1, 36, 127
2, 101520, Note_on_c, 1, 48, 127
2, 101520, Note_on_c, 1, 67, 127
2, 101600, Note_off_c, 1, 36, 0
2, 101600, Note_off_c, 1, 48, 0
2, 101600, Note_off_c, 1, 67, 0
2, 101640, Note_on_c, 1, 36, 127
2, 101640, Note_on_c, 1, 48, 127
2, 101640, Note_on_c, 1, 69, 127
2, 101880, Note_off_c, 1, 69, 0
2, 101920, Note_on_c, 1, 67, 127
2, 102120, Note_off_c, 1, 36, 0
2, 102120, Note_off_c, 1, 48, 0
2, 102120, Note_off_c, 1, 67, 0
2, 102160, Note_on_c, 1, 40, 127
2, 102160, Note_on_c, 1, 52, 127
2, 102160, Note_on_c, 1, 65, 127
2, 102400, Note_off_c, 1, 40, 0
2, 102400, Note_off_c, 1, 52, 0
2, 102400, Note_off_c, 1, 65, 0
2, 102440, Note_on_c, 1, 36, 127
2, 102440, Note_on_c, 1, 48, 127
2, 102440, Note_on_c, 1, 69, 127
2, 102680, Note_off_c, 1, 36, 0
2, 102680, Note_off_c, 1, 48, 0
2, 102680, Note_off_c, 1, 69, 0
2, 102720, Note_on_c, 1, 35, 127
2, 102720, Note_on_c, 1, 47, 127
2, 102720, Note_on_c, 1, 66, 127
2, 102720, Note_on_c, 1, 69, 127
2, 102920, Note_off_c, 1, 35, 0
2, 102920, Note_off_c, 1, 47, 0
2, 102920, Note_off_c, 1, 66, 0
2, 102920, Note_off_c, 1, 69, 0
2, 102960, Note_on_c, 1, 40, 127
2, 102960, Note_on_c, 1, 52, 127
2, 102960, Note_on_c, 1, 59, 127
2, 102960, Note_on_c, 1, 64, 127
2, 102960, Note_on_c, 1, 68, 127
2, 103200, Note_off_c, 1, 40, 0
2, 103200, Note_off_c, 1, 52, 0
2, 103200, Note_off_c, 1, 59, 0
2, 103200, Note_off_c, 1, 64, 0
2, 103200, Note_off_c, 1, 68, 0
2, 103240, Note_on_c, 1, 40, 127
2, 103240, Note_on_c, 1, 52, 127
2, 103240, Note_on_c, 1, 55, 127
2, 103440, Note_off_c, 1, 40, 0
2, 103440, Note_off_c, 1, 52, 0
2, 103440, Note_off_c, 1, 55, 0
2, 103560, Note_on_c, 1, 40, 127
2, 103560, Note_on_c, 1, 52, 127
2, 103560, Note_on_c, 1, 59, 127
2, 103560, Note_on_c, 1, 64, 127
2, 103560, Note_on_c, 1, 68, 127
2, 103760, Note_off_c, 1, 40, 0
2, 103760, Note_off_c, 1, 52, 0
2, 103760, Note_off_c, 1, 59, 0
2, 103760, Note_off_c, 1, 64, 0
2, 103760, Note_off_c, 1, 68, 0
2, 103800, Note_on_c, 1, 40, 127
2, 103800, Note_on_c, 1, 52, 127
2, 103800, Note_on_c, 1, 59, 127
2, 103800, Note_on_c, 1, 64, 127
2, 103800, Note_on_c, 1, 68, 127
2, 104040, Note_off_c, 1, 40, 0
2, 104040, Note_off_c, 1, 52, 0
2, 104040, Note_off_c, 1, 59, 0
2, 104040, Note_off_c, 1, 64, 0
2, 104040, Note_off_c, 1, 68, 0
2, 104080, Note_on_c, 1, 40, 127
2, 104080, Note_on_c, 1, 52, 127
2, 104080, Note_on_c, 1, 59, 127
2, 104080, Note_on_c, 1, 64, 127
2, 104080, Note_on_c, 1, 68, 127
2, 104280, Note_off_c, 1, 40, 0
2, 104280, Note_off_c, 1, 52, 0
2, 104280, Note_off_c, 1, 59, 0
2, 104280, Note_off_c, 1, 64, 0
2, 104280, Note_off_c, 1, 68, 0
2, 104320, Note_on_c, 1, 40, 127
2, 104320, Note_on_c, 1, 52, 127
2, 104320, Note_on_c, 1, 59, 127
2, 104320, Note_on_c, 1, 64, 127
2, 104320, Note_on_c, 1, 68, 127
2, 104560, Note_off_c, 1, 40, 0
2, 104560, Note_off_c, 1, 52, 0
2, 104560, Note_off_c, 1, 59, 0
2, 104560, Note_off_c, 1, 64, 0
2, 104560, Note_off_c, 1, 68, 0
2, 104600, Note_on_c, 1, 43, 127
2, 104600, Note_on_c, 1, 50, 127
2, 104600, Note_on_c, 1, 52, 127
2, 104600, Note_on_c, 1, 55, 127
2, 104600, Note_on_c, 1, 59, 127
2, 104600, Note_on_c, 1, 67, 127
2, 104680, Note_off_c, 1, 67, 0
2, 104720, Note_on_c, 1, 66, 127
2, 104800, Note_off_c, 1, 43, 0
2, 104800, Note_off_c, 1, 50, 0
2, 104800, Note_off_c, 1, 52, 0
2, 104800, Note_off_c, 1, 55, 0
2, 104800, Note_off_c, 1, 59, 0
2, 104800, Note_off_c, 1, 66, 0
2, 104840, Note_on_c, 1, 49, 127
2, 104840, Note_on_c, 1, 55, 127
2, 104840, Note_on_c, 1, 61, 127
2, 104840, Note_on_c, 1, 64, 127
2, 104880, Note_off_c, 1, 55, 0
2, 104880, Note_on_c, 1, 59, 127
2, 104880, Note_off_c, 1, 61, 0
2, 104880, Note_off_c, 1, 64, 0
2, 104880, Note_on_c, 1, 68, 127
2, 104880, Note_on_c, 1, 73, 127
2, 104880, Note_on_c, 1, 77, 127
2, 104920, Note_off_c, 1, 49, 0
2, 104920, Note_on_c, 1, 58, 127
2, 104920, Note_off_c, 1, 59, 0
2, 104920, Note_on_c, 1, 67, 127
2, 104920, Note_off_c, 1, 68, 0
2, 104920, Note_on_c, 1, 70, 127
2, 104920, Note_off_c, 1, 73, 0
2, 104920, Note_off_c, 1, 77, 0
2, 104920, Note_on_c, 1, 82, 127
2, 104920, Note_on_c, 1, 87, 127
2, 104920, Note_on_c, 1, 91, 127
2, 104960, Note_on_c, 1, 35, 127
2, 104960, Note_on_c, 1, 40, 127
2, 104960, Note_on_c, 1, 47, 127
2, 104960, Note_off_c, 1, 58, 0
2, 104960, Note_on_c, 1, 59, 127
2, 104960, Note_off_c, 1, 67, 0
2, 104960, Note_on_c, 1, 68, 127
2, 104960, Note_off_c, 1, 70, 0
2, 104960, Note_on_c, 1, 71, 127
2, 104960, Note_off_c, 1, 82, 0
2, 104960, Note_on_c, 1, 83, 127
2, 104960, Note_off_c, 1, 87, 0
2, 104960, Note_on_c, 1, 88, 127
2, 104960, Note_off_c, 1, 91, 0
2, 104960, Note_on_c, 1, 92, 127
2, 105000, Note_off_c, 1, 35, 0
2, 105000, Note_off_c, 1, 40, 0
2, 105000, Note_off_c, 1, 47, 0
2, 105000, Note_on_c, 1, 50, 127
2, 105000, Note_on_c, 1, 56, 127
2, 105000, Note_off_c, 1, 59, 0
2, 105000, Note_off_c, 1, 71, 0
2, 105000, Note_on_c, 1, 76, 127
2, 105000, Note_off_c, 1, 83, 0
2, 105000, Note_off_c, 1, 88, 0
2, 105000, Note_off_c, 1, 92, 0
2, 105040, Note_off_c, 1, 50, 0
2, 105040, Note_on_c, 1, 52, 127
2, 105040, Note_on_c, 1, 54, 127
2, 105040, Note_off_c, 1, 56, 0
2, 105040, Note_on_c, 1, 57, 127
2, 105040, Note_on_c, 1, 60, 127
2, 105040, Note_off_c, 1, 68, 0
2, 105040, Note_off_c, 1, 76, 0
2, 105040, Note_on_c, 1, 84, 127
2, 105080, Note_off_c, 1, 52, 0
2, 105080, Note_off_c, 1, 54, 0
2, 105080, Note_off_c, 1, 57, 0
2, 105080, Note_off_c, 1, 60, 0
2, 105080, Note_off_c, 1, 84, 0
2, 105120, Note_on_c, 1, 36, 127
2, 105120, Note_on_c, 1, 48, 127
2, 105120, Note_on_c, 1, 51, 127
2, 105120, Note_on_c, 1, 55, 127
2, 105120, Note_on_c, 1, 63, 127
2, 105360, Note_off_c, 1, 36, 0
2, 105360, Note_off_c, 1, 48, 0
2, 105360, Note_off_c, 1, 51, 0
2, 105360, Note_off_c, 1, 55, 0
2, 105360, Note_off_c, 1, 63, 0
2, 105400, Note_on_c, 1, 38, 127
2, 105400, Note_on_c, 1, 50, 127
2, 105400, Note_on_c, 1, 81, 127
2, 105400, Note_on_c, 1, 84, 127
2, 105400, Note_on_c, 1, 90, 127
2, 105440, Note_off_c, 1, 38, 0
2, 105440, Note_off_c, 1, 50, 0
2, 105520, Note_off_c, 1, 81, 0
2, 105520, Note_off_c, 1, 84, 0
2, 105520, Note_off_c, 1, 90, 0
2, 105560, Note_on_c, 1, 42, 127
2, 105560, Note_on_c, 1, 54, 127
2, 105560, Note_on_c, 1, 65, 127
2, 105560, Note_on_c, 1, 70, 127
2, 105560, Note_on_c, 1, 77, 127
2, 105600, Note_on_c, 1, 38, 127
2, 105600, Note_off_c, 1, 42, 0
2, 105600, Note_on_c, 1, 50, 127
2, 105600, Note_off_c, 1, 54, 0
2, 105600, Note_off_c, 1, 65, 0
2, 105600, Note_on_c, 1, 69, 127
2, 105600, Note_off_c, 1, 70, 0
2, 105600, Note_on_c, 1, 73, 127
2, 105600, Note_off_c, 1, 77, 0
2, 105640, Note_off_c, 1, 38, 0
2, 105640, Note_off_c, 1, 50, 0
2, 105640, Note_off_c, 1, 69, 0
2, 105640, Note_off_c, 1, 73, 0
2, 105680, Note_on_c, 1, 41, 127
2, 105680, Note_on_c, 1, 53, 127
2, 105680, Note_on_c, 1, 77, 127
2, 105680, Note_on_c, 1, 80, 127
2, 105680, Note_on_c, 1, 89, 127
2, 105880, Note_off_c, 1, 41, 0
2, 105880, Note_on_c, 1, 46, 127
2, 105880, Note_off_c, 1, 53, 0
2, 105880, Note_off_c, 1, 77, 0
2, 105880, Note_off_c, 1, 80, 0
2, 105880, Note_on_c, 1, 86, 127
2, 105880, Note_off_c, 1, 89, 0
2, 105880, Note_on_c, 1, 91, 127
2, 105920, Note_off_c, 1, 46, 0
2, 105920, Note_off_c, 1, 86, 0
2, 105920, Note_off_c, 1, 91, 0
2, 105960, Note_on_c, 1, 45, 127
2, 105960, Note_on_c, 1, 53, 127
2, 105960, Note_on_c, 1, 57, 127
2, 105960, Note_on_c, 1, 64, 127
2, 106000, Note_off_c, 1, 53, 0
2, 106000, Note_off_c, 1, 64, 0
2, 106000, Note_on_c, 1, 71, 127
2, 106000, Note_on_c, 1, 72, 127
2, 106000, Note_on_c, 1, 79, 127
2, 106040, Note_on_c, 1, 53, 127
2, 106040, Note_on_c, 1, 62, 127
2, 106040, Note_off_c, 1, 71, 0
2, 106040, Note_off_c, 1, 72, 0
2, 106040, Note_off_c, 1, 79, 0
2, 106080, Note_on_c, 1, 38, 127
2, 106080, Note_off_c, 1, 45, 0
2, 106080, Note_off_c, 1, 53, 0
2, 106080, Note_off_c, 1, 57, 0
2, 106080, Note_off_c, 1, 62, 0
2, 106080, Note_on_c, 1, 70, 127
2, 106080, Note_on_c, 1, 81, 127
2, 106120, Note_off_c, 1, 38, 0
2, 106120, Note_on_c, 1, 57, 127
2, 106120, Note_off_c, 1, 70, 0
2, 106120, Note_on_c, 1, 76, 127
2, 106120, Note_on_c, 1, 85, 127
2, 106120, Note_on_c, 1, 88, 127
2, 106160, Note_on_c, 1, 38, 127
2, 106160, Note_off_c, 1, 57, 0
2, 106160, Note_on_c, 1, 70, 127
2, 106160, Note_off_c, 1, 76, 0
2, 106160, Note_off_c, 1, 85, 0
2, 106160, Note_off_c, 1, 88, 0
2, 106200, Note_off_c, 1, 38, 0
2, 106200, Note_off_c, 1, 70, 0
2, 106200, Note_off_c, 1, 81, 0
2, 106240, Note_on_c, 1, 35, 127
2, 106240, Note_on_c, 1, 43, 127
2, 106240, Note_on_c, 1, 59, 127
2, 106280, Note_on_c, 1, 55, 127
2, 106280, Note_off_c, 1, 59, 0
2, 106360, Note_off_c, 1, 55, 0
2, 106360, Note_on_c, 1, 59, 127
2, 106400, Note_on_c, 1, 55, 127
2, 106400, Note_off_c, 1, 59, 0
2, 106440, Note_off_c, 1, 35, 0
2, 106440, Note_off_c, 1, 43, 0
2, 106440, Note_off_c, 1, 55, 0
2, 106480, Note_on_c, 1, 37, 127
2, 106480, Note_on_c, 1, 49, 127
2, 106480, Note_on_c, 1, 56, 127
2, 106480, Note_on_c, 1, 59, 127
2, 106480, Note_on_c, 1, 68, 127
2, 106520, Note_off_c, 1, 37, 0
2, 106520, Note_on_c, 1, 39, 127
2, 106520, Note_off_c, 1, 49, 0
2, 106520, Note_on_c, 1, 51, 127
2, 106520, Note_off_c, 1, 56, 0
2, 106520, Note_off_c, 1, 59, 0
2, 106520, Note_off_c, 1, 68, 0
2, 106520, Note_on_c, 1, 70, 127
2, 106520, Note_on_c, 1, 76, 127
2, 106520, Note_on_c, 1, 80, 127
2, 106560, Note_on_c, 1, 37, 127
2, 106560, Note_off_c, 1, 39, 0
2, 106560, Note_off_c, 1, 51, 0
2, 106560, Note_on_c, 1, 56, 127
2, 106560, Note_off_c, 1, 70, 0
2, 106560, Note_on_c, 1, 73, 127
2, 106560, Note_off_c, 1, 76, 0
2, 106560, Note_off_c, 1, 80, 0
2, 106600, Note_on_c, 1, 49, 127
2, 106600, Note_on_c, 1, 59, 127
2, 106600, Note_on_c, 1, 68, 127
2, 106600, Note_off_c, 1, 73, 0
2, 106720, Note_off_c, 1, 37, 0
2, 106720, Note_off_c, 1, 49, 0
2, 106720, Note_off_c, 1, 56, 0
2, 106720, Note_off_c, 1, 59, 0
2, 106720, Note_off_c, 1, 68, 0
2, 106760, Note_on_c, 1, 48, 127
2, 106760, Note_on_c, 1, 53, 127
2, 106760, Note_on_c, 1, 56, 127
2, 106760, Note_on_c, 1, 59, 127
2, 106760, Note_on_c, 1, 62, 127
2, 106760, Note_on_c, 1, 65, 127
2, 106760, Note_on_c, 1, 68, 127
2, 106760, Note_on_c, 1, 71, 127
2, 106760, Note_on_c, 1, 74, 127
2, 106840, Note_off_c, 1, 48, 0
2, 106840, Note_off_c, 1, 53, 0
2, 106840, Note_off_c, 1, 56, 0
2, 106840, Note_off_c, 1, 59, 0
2, 106840, Note_off_c, 1, 62, 0
2, 106840, Note_off_c, 1, 65, 0
2, 106840, Note_off_c, 1, 68, 0
2, 106840, Note_off_c, 1, 71, 0
2, 106840, Note_off_c, 1, 74, 0
2, 106840, Note_on_c, 1, 86, 127
2, 106840, Note_on_c, 1, 93, 127
2, 106840, Note_on_c, 1, 98, 127
2, 106840, Note_on_c, 1, 105, 127
2, 106880, Note_on_c, 1, 48, 127
2, 106880, Note_on_c, 1, 53, 127
2, 106880, Note_on_c, 1, 56, 127
2, 106880, Note_on_c, 1, 59, 127
2, 106880, Note_on_c, 1, 62, 127
2, 106880, Note_on_c, 1, 65, 127
2, 106880, Note_on_c, 1, 68, 127
2, 106880, Note_on_c, 1, 71, 127
2, 106880, Note_on_c, 1, 74, 127
2, 106880, Note_on_c, 1, 77, 127
2, 106880, Note_off_c, 1, 86, 0
2, 106880, Note_off_c, 1, 93, 0
2, 106880, Note_off_c, 1, 98, 0
2, 106880, Note_off_c, 1, 105, 0
2, 106960, Note_off_c, 1, 48, 0
2, 106960, Note_off_c, 1, 53, 0
2, 106960, Note_off_c, 1, 56, 0
2, 106960, Note_off_c, 1, 59, 0
2, 106960, Note_off_c, 1, 62, 0
2, 106960, Note_off_c, 1, 65, 0
2, 106960, Note_off_c, 1, 68, 0
2, 106960, Note_off_c, 1, 71, 0
2, 106960, Note_off_c, 1, 74, 0
2, 107120, Note_off_c, 1, 77, 0
2, 107160, Note_on_c, 1, 77, 127
2, 107240, Note_off_c, 1, 77, 0
2, 107280, Note_on_c, 1, 61, 127
2, 107280, Note_on_c, 1, 65, 127
2, 107280, Note_on_c, 1, 68, 127
2, 107280, Note_on_c, 1, 77, 127
2, 107480, Note_off_c, 1, 61, 0
2, 107480, Note_off_c, 1, 65, 0
2, 107480, Note_off_c, 1, 68, 0
2, 107480, Note_off_c, 1, 77, 0
2, 107520, Note_on_c, 1, 61, 127
2, 107520, Note_on_c, 1, 65, 127
2, 107520, Note_on_c, 1, 68, 127
2, 107520, Note_on_c, 1, 77, 127
2, 107560, Note_off_c, 1, 61, 0
2, 107560, Note_off_c, 1, 65, 0
2, 107560, Note_off_c, 1, 68, 0
2, 107560, Note_off_c, 1, 77, 0
2, 107600, Note_on_c, 1, 56, 127
2, 107600, Note_on_c, 1, 61, 127
2, 107600, Note_on_c, 1, 65, 127
2, 107600, Note_on_c, 1, 71, 127
2, 107600, Note_on_c, 1, 73, 127
2, 107800, Note_off_c, 1, 56, 0
2, 107800, Note_off_c, 1, 61, 0
2, 107800, Note_off_c, 1, 65, 0
2, 107800, Note_off_c, 1, 71, 0
2, 107800, Note_off_c, 1, 73, 0
2, 107840, Note_on_c, 1, 61, 127
2, 107840, Note_on_c, 1, 65, 127
2, 107840, Note_on_c, 1, 68, 127
2, 107840, Note_on_c, 1, 77, 127
2, 108080, Note_off_c, 1, 61, 0
2, 108080, Note_off_c, 1, 65, 0
2, 108080, Note_off_c, 1, 68, 0
2, 108080, Note_off_c, 1, 77, 0
2, 108120, Note_on_c, 1, 61, 127
2, 108120, Note_on_c, 1, 66, 127
2, 108120, Note_on_c, 1, 70, 127
2, 108120, Note_on_c, 1, 88, 127
2, 108320, Note_off_c, 1, 61, 0
2, 108320, Note_off_c, 1, 66, 0
2, 108320, Note_off_c, 1, 70, 0
2, 108320, Note_on_c, 1, 78, 127
2, 108320, Note_off_c, 1, 88, 0
2, 108360, Note_on_c, 1, 61, 127
2, 108360, Note_on_c, 1, 66, 127
2, 108360, Note_on_c, 1, 70, 127
2, 108360, Note_off_c, 1, 78, 0
2, 108360, Note_on_c, 1, 80, 127
2, 108600, Note_off_c, 1, 61, 0
2, 108600, Note_off_c, 1, 66, 0
2, 108600, Note_off_c, 1, 70, 0
2, 108600, Note_off_c, 1, 80, 0
2, 108640, Note_on_c, 1, 61, 127
2, 108640, Note_on_c, 1, 65, 127
2, 108640, Note_on_c, 1, 71, 127
2, 108640, Note_on_c, 1, 78, 127
2, 108840, Note_off_c, 1, 78, 0
2, 108880, Note_on_c, 1, 49, 127
2, 108880, Note_on_c, 1, 56, 127
2, 108880, Note_off_c, 1, 61, 0
2, 109120, Note_off_c, 1, 49, 0
2, 109120, Note_off_c, 1, 56, 0
2, 109120, Note_off_c, 1, 65, 0
2, 109120, Note_off_c, 1, 71, 0
2, 109160, Note_on_c, 1, 77, 127
2, 109520, Note_off_c, 1, 77, 0
2, 109560, Note_on_c, 1, 77, 127
2, 109600, Note_on_c, 1, 49, 127
2, 109680, Note_off_c, 1, 49, 0
2, 109720, Note_on_c, 1, 59, 127
2, 109800, Note_off_c, 1, 59, 0
2, 109840, Note_on_c, 1, 56, 127
2, 109960, Note_off_c, 1, 56, 0
2, 109960, Note_off_c, 1, 77, 0
2, 110000, Note_on_c, 1, 49, 127
2, 110000, Note_on_c, 1, 75, 127
2, 110080, Note_off_c, 1, 49, 0
2, 110240, Note_on_c, 1, 56, 127
2, 110240, Note_on_c, 1, 72, 127
2, 110360, Note_off_c, 1, 56, 0
2, 110400, Note_on_c, 1, 56, 127
2, 110480, Note_off_c, 1, 56, 0
2, 110480, Note_off_c, 1, 72, 0
2, 110480, Note_off_c, 1, 75, 0
2, 110520, Note_on_c, 1, 53, 127
2, 110520, Note_on_c, 1, 58, 127
2, 110520, Note_on_c, 1, 72, 127
2, 110760, Note_off_c, 1, 53, 0
2, 110760, Note_off_c, 1, 58, 0
2, 110800, Note_on_c, 1, 53, 127
2, 110800, Note_on_c, 1, 70, 127
2, 110800, Note_off_c, 1, 72, 0
2, 110800, Note_on_c, 1, 73, 127
2, 111000, Note_off_c, 1, 53, 0
2, 111000, Note_off_c, 1, 70, 0
2, 111000, Note_off_c, 1, 73, 0
2, 111040, Note_on_c, 1, 53, 127
2, 111040, Note_on_c, 1, 68, 127
2, 111040, Note_on_c, 1, 75, 127
2, 111280, Note_off_c, 1, 53, 0
2, 111280, Note_off_c, 1, 75, 0
2, 111320, Note_on_c, 1, 49, 127
2, 111320, Note_on_c, 1, 51, 127
2, 111320, Note_on_c, 1, 66, 127
2, 111320, Note_off_c, 1, 68, 0
2, 111320, Note_on_c, 1, 77, 127
2, 111520, Note_off_c, 1, 49, 0
2, 111520, Note_off_c, 1, 51, 0
2, 111520, Note_off_c, 1, 66, 0
2, 111520, Note_off_c, 1, 77, 0
2, 111560, Note_on_c, 1, 75, 127
2, 111640, Note_off_c, 1, 75, 0
2, 111680, Note_on_c, 1, 75, 127
2, 111880, Note_on_c, 1, 58, 127
2, 111880, Note_on_c, 1, 65, 127
2, 111880, Note_on_c, 1, 68, 127
2, 111960, Note_off_c, 1, 58, 0
2, 111960, Note_off_c, 1, 65, 0
2, 111960, Note_off_c, 1, 68, 0
2, 112120, Note_off_c, 1, 75, 0
2, 112160, Note_on_c, 1, 58, 127
2, 112160, Note_on_c, 1, 65, 127
2, 112160, Note_on_c, 1, 68, 127
2, 112160, Note_on_c, 1, 74, 127
2, 112240, Note_off_c, 1, 74, 0
2, 112280, Note_on_c, 1, 82, 127
2, 112360, Note_off_c, 1, 58, 0
2, 112360, Note_off_c, 1, 65, 0
2, 112360, Note_off_c, 1, 68, 0
2, 112360, Note_off_c, 1, 82, 0
2, 112400, Note_on_c, 1, 59, 127
2, 112400, Note_on_c, 1, 63, 127
2, 112400, Note_on_c, 1, 65, 127
2, 112400, Note_on_c, 1, 77, 127
2, 112640, Note_off_c, 1, 59, 0
2, 112640, Note_off_c, 1, 63, 0
2, 112640, Note_off_c, 1, 65, 0
2, 112680, Note_on_c, 1, 58, 127
2, 112680, Note_on_c, 1, 61, 127
2, 112680, Note_on_c, 1, 65, 127
2, 112680, Note_on_c, 1, 70, 127
2, 112680, Note_off_c, 1, 77, 0
2, 112760, Note_off_c, 1, 70, 0
2, 112800, Note_on_c, 1, 70, 127
2, 112880, Note_off_c, 1, 58, 0
2, 112880, Note_off_c, 1, 61, 0
2, 112880, Note_off_c, 1, 65, 0
2, 112880, Note_off_c, 1, 70, 0
2, 112920, Note_on_c, 1, 58, 127
2, 112920, Note_on_c, 1, 68, 127
2, 112920, Note_on_c, 1, 74, 127
2, 112920, Note_on_c, 1, 79, 127
2, 113120, Note_on_c, 1, 77, 127
2, 113120, Note_off_c, 1, 79, 0
2, 113160, Note_off_c, 1, 58, 0
2, 113160, Note_off_c, 1, 68, 0
2, 113160, Note_off_c, 1, 74, 0
2, 113160, Note_off_c, 1, 77, 0
2, 113200, Note_on_c, 1, 63, 127
2, 113200, Note_on_c, 1, 67, 127
2, 113200, Note_on_c, 1, 75, 127
2, 113400, Note_off_c, 1, 63, 0
2, 113400, Note_off_c, 1, 67, 0
2, 113400, Note_off_c, 1, 75, 0
2, 113440, Note_on_c, 1, 51, 127
2, 113680, Note_off_c, 1, 51, 0
2, 113720, Note_on_c, 1, 51, 127
2, 113720, Note_on_c, 1, 68, 127
2, 113720, Note_on_c, 1, 72, 127
2, 113880, Note_off_c, 1, 51, 0
2, 113880, Note_off_c, 1, 68, 0
2, 113880, Note_off_c, 1, 72, 0
2, 113920, Note_on_c, 1, 51, 127
2, 113920, Note_on_c, 1, 68, 127
2, 113920, Note_on_c, 1, 72, 127
2, 114000, Note_off_c, 1, 72, 0
2, 114040, Note_on_c, 1, 63, 127
2, 114040, Note_off_c, 1, 68, 0
2, 114040, Note_on_c, 1, 72, 127
2, 114240, Note_off_c, 1, 63, 0
2, 114240, Note_off_c, 1, 72, 0
2, 114280, Note_on_c, 1, 65, 127
2, 114280, Note_on_c, 1, 75, 127
2, 114440, Note_off_c, 1, 51, 0
2, 114440, Note_on_c, 1, 53, 127
2, 114520, Note_off_c, 1, 53, 0
2, 114520, Note_off_c, 1, 65, 0
2, 114520, Note_off_c, 1, 75, 0
2, 114560, Note_on_c, 1, 47, 127
2, 114560, Note_on_c, 1, 68, 127
2, 114560, Note_on_c, 1, 77, 127
2, 114800, Note_off_c, 1, 47, 0
2, 114800, Note_off_c, 1, 68, 0
2, 114800, Note_off_c, 1, 77, 0
2, 114840, Note_on_c, 1, 44, 127
2, 114840, Note_on_c, 1, 68, 127
2, 114840, Note_on_c, 1, 77, 127
2, 115040, Note_off_c, 1, 44, 0
2, 115040, Note_off_c, 1, 68, 0
2, 115040, Note_off_c, 1, 77, 0
2, 115080, Note_on_c, 1, 46, 127
2, 115080, Note_on_c, 1, 70, 127
2, 115080, Note_on_c, 1, 73, 127
2, 115120, Note_off_c, 1, 70, 0
2, 115160, Note_on_c, 1, 70, 127
2, 115200, Note_off_c, 1, 70, 0
2, 115240, Note_on_c, 1, 70, 127
2, 115320, Note_off_c, 1, 46, 0
2, 115320, Note_off_c, 1, 70, 0
2, 115320, Note_off_c, 1, 73, 0
2, 115360, Note_on_c, 1, 44, 127
2, 115360, Note_on_c, 1, 65, 127
2, 115360, Note_on_c, 1, 71, 127
2, 115600, Note_off_c, 1, 44, 0
2, 115600, Note_off_c, 1, 65, 0
2, 115600, Note_off_c, 1, 71, 0
2, 115640, Note_on_c, 1, 46, 127
2, 115640, Note_on_c, 1, 54, 127
2, 115640, Note_on_c, 1, 73, 127
2, 115840, Note_off_c, 1, 54, 0
2, 115840, Note_on_c, 1, 70, 127
2, 115840, Note_off_c, 1, 73, 0
2, 115880, Note_on_c, 1, 44, 127
2, 115880, Note_off_c, 1, 46, 0
2, 115880, Note_on_c, 1, 51, 127
2, 115880, Note_on_c, 1, 60, 127
2, 115880, Note_on_c, 1, 68, 127
2, 115880, Note_off_c, 1, 70, 0
2, 115880, Note_on_c, 1, 78, 127
2, 115960, Note_off_c, 1, 44, 0
2, 115960, Note_off_c, 1, 51, 0
2, 115960, Note_off_c, 1, 60, 0
2, 115960, Note_off_c, 1, 68, 0
2, 115960, Note_off_c, 1, 78, 0
2, 116000, Note_on_c, 1, 44, 127
2, 116000, Note_on_c, 1, 51, 127
2, 116000, Note_on_c, 1, 60, 127
2, 116000, Note_on_c, 1, 68, 127
2, 116000, Note_on_c, 1, 78, 127
2, 116160, Note_off_c, 1, 44, 0
2, 116160, Note_off_c, 1, 51, 0
2, 116160, Note_off_c, 1, 60, 0
2, 116160, Note_off_c, 1, 68, 0
2, 116160, Note_off_c, 1, 78, 0
2, 116200, Note_on_c, 1, 51, 127
2, 116200, Note_on_c, 1, 66, 127
2, 116200, Note_on_c, 1, 70, 127
2, 116440, Note_off_c, 1, 66, 0
2, 116440, Note_off_c, 1, 70, 0
2, 116480, Note_on_c, 1, 48, 127
2, 116480, Note_off_c, 1, 51, 0
2, 116480, Note_on_c, 1, 56, 127
2, 116480, Note_on_c, 1, 63, 127
2, 116480, Note_on_c, 1, 66, 127
2, 116680, Note_off_c, 1, 48, 0
2, 116680, Note_on_c, 1, 49, 127
2, 116680, Note_off_c, 1, 56, 0
2, 116680, Note_off_c, 1, 63, 0
2, 116680, Note_off_c, 1, 66, 0
2, 116720, Note_on_c, 1, 56, 127
2, 116720, Note_on_c, 1, 63, 127
2, 116720, Note_on_c, 1, 66, 127
2, 116960, Note_off_c, 1, 63, 0
2, 116960, Note_off_c, 1, 66, 0
2, 117000, Note_off_c, 1, 56, 0
2, 117000, Note_on_c, 1, 59, 127
2, 117000, Note_on_c, 1, 65, 127
2, 117000, Note_on_c, 1, 70, 127
2, 117240, Note_off_c, 1, 70, 0
2, 117280, Note_on_c, 1, 70, 127
2, 117360, Note_off_c, 1, 70, 0
2, 117400, Note_on_c, 1, 57, 127
2, 117400, Note_off_c, 1, 59, 0
2, 117400, Note_off_c, 1, 65, 0
2, 117400, Note_on_c, 1, 66, 127
2, 117480, Note_off_c, 1, 49, 0
2, 117480, Note_off_c, 1, 57, 0
2, 117480, Note_off_c, 1, 66, 0
2, 117520, Note_on_c, 1, 52, 127
2, 117520, Note_on_c, 1, 59, 127
2, 117520, Note_on_c, 1, 61, 127
2, 117760, Note_on_c, 1, 47, 127
2, 117760, Note_off_c, 1, 52, 0
2, 117760, Note_off_c, 1, 59, 0
2, 117760, Note_off_c, 1, 61, 0
2, 117800, Note_on_c, 1, 44, 127
2, 117800, Note_off_c, 1, 47, 0
2, 117800, Note_on_c, 1, 48, 127
2, 117800, Note_on_c, 1, 54, 127
2, 117800, Note_on_c, 1, 63, 127
2, 117880, Note_off_c, 1, 44, 0
2, 117880, Note_off_c, 1, 48, 0
2, 117880, Note_on_c, 1, 60, 127
2, 117880, Note_off_c, 1, 63, 0
2, 117920, Note_on_c, 1, 44, 127
2, 117920, Note_on_c, 1, 48, 127
2, 117920, Note_off_c, 1, 60, 0
2, 117920, Note_on_c, 1, 63, 127
2, 118040, Note_off_c, 1, 44, 0
2, 118040, Note_off_c, 1, 48, 0
2, 118040, Note_off_c, 1, 54, 0
2, 118040, Note_off_c, 1, 63, 0
2, 118120, Note_on_c, 1, 44, 127
2, 118120, Note_on_c, 1, 48, 127
2, 118120, Note_on_c, 1, 54, 127
2, 118120, Note_on_c, 1, 63, 127
2, 118600, Note_off_c, 1, 44, 0
2, 118600, Note_off_c, 1, 48, 0
2, 118640, Note_on_c, 1, 51, 127
2, 118640, Note_off_c, 1, 54, 0
2, 118640, Note_on_c, 1, 58, 127
2, 118640, Note_off_c, 1, 63, 0
2, 118640, Note_on_c, 1, 68, 127
2, 118640, Note_on_c, 1, 74, 127
2, 118640, Note_on_c, 1, 77, 127
2, 118840, Note_off_c, 1, 68, 0
2, 118840, Note_off_c, 1, 74, 0
2, 118840, Note_off_c, 1, 77, 0
2, 118880, Note_on_c, 1, 68, 127
2, 118880, Note_on_c, 1, 74, 127
2, 118880, Note_on_c, 1, 77, 127
2, 118920, Note_off_c, 1, 68, 0
2, 118920, Note_off_c, 1, 74, 0
2, 118920, Note_off_c, 1, 77, 0
2, 119120, Note_off_c, 1, 51, 0
2, 119120, Note_off_c, 1, 58, 0
2, 119160, Note_on_c, 1, 58, 127
2, 119160, Note_on_c, 1, 61, 127
2, 119160, Note_on_c, 1, 63, 127
2, 119160, Note_on_c, 1, 67, 127
2, 119160, Note_on_c, 1, 70, 127
2, 119320, Note_off_c, 1, 67, 0
2, 119320, Note_off_c, 1, 70, 0
2, 119400, Note_on_c, 1, 56, 127
2, 119400, Note_off_c, 1, 58, 0
2, 119400, Note_on_c, 1, 60, 127
2, 119400, Note_off_c, 1, 61, 0
2, 119400, Note_on_c, 1, 68, 127
2, 119440, Note_on_c, 1, 72, 127
2, 119640, Note_off_c, 1, 56, 0
2, 119640, Note_off_c, 1, 60, 0
2, 119640, Note_off_c, 1, 63, 0
2, 119640, Note_off_c, 1, 68, 0
2, 119640, Note_off_c, 1, 72, 0
2, 119680, Note_on_c, 1, 44, 127
2, 119680, Note_on_c, 1, 61, 127
2, 119680, Note_on_c, 1, 64, 127
2, 119920, Note_off_c, 1, 61, 0
2, 119920, Note_off_c, 1, 64, 0
2, 119960, Note_off_c, 1, 44, 0
2, 119960, Note_on_c, 1, 56, 127
2, 119960, Note_on_c, 1, 60, 127
2, 119960, Note_on_c, 1, 63, 127
2, 120000, Note_off_c, 1, 56, 0
2, 120000, Note_off_c, 1, 60, 0
2, 120000, Note_off_c, 1, 63, 0
2, 120040, End_track
3, 0, Start_track
3, 0, Title_t, "MIDI"
3, 1536, End_track
0, 0, End_of_file
