0, 0, Header, 1, 3, 192
1, 0, Start_track
1, 0, Time_signature, 4, 2, 24, 8
1, 0, Tempo, 500000
1, 120040, End_track
2, 0, Start_track
2, 0, Text_t, "random instrument: random person i dunno whatev"
2, 0, Title_t, "Track 1"
2, 0, Note_on_c, 1, 55, 127
2, 0, Note_on_c, 1, 59, 127
2, 0, Note_on_c, 1, 62, 127
2, 0, Note_on_c, 1, 71, 127
2, 0, Note_on_c, 1, 79, 127
2, 40, Note_off_c, 1, 59, 0
2, 40, Note_off_c, 1, 62, 0
2, 40, Note_off_c, 1, 71, 0
2, 40, Note_on_c, 1, 72, 127
2, 40, Note_on_c, 1, 75, 127
2, 40, Note_on_c, 1, 84, 127
2, 80, Note_off_c, 1, 55, 0
2, 80, Note_off_c, 1, 72, 0
2, 80, Note_off_c, 1, 75, 0
2, 80, Note_off_c, 1, 79, 0
2, 80, Note_off_c, 1, 84, 0
2, 120, Note_on_c, 1, 58, 127
2, 120, Note_on_c, 1, 65, 127
2, 120, Note_on_c, 1, 70, 127
2, 120, Note_on_c, 1, 73, 127
2, 120, Note_on_c, 1, 80, 127
2, 160, Note_on_c, 1, 53, 127
2, 160, Note_on_c, 1, 56, 127
2, 160, Note_off_c, 1, 58, 0
2, 160, Note_on_c, 1, 63, 127
2, 160, Note_off_c, 1, 65, 0
2, 160, Note_off_c, 1, 70, 0
2, 160, Note_on_c, 1, 83, 127
2, 200, Note_on_c, 1, 33, 127
2, 200, Note_on_c, 1, 37, 127
2, 200, Note_on_c, 1, 40, 127
2, 200, Note_on_c, 1, 45, 127
2, 200, Note_off_c, 1, 53, 0
2, 200, Note_off_c, 1, 56, 0
2, 200, Note_on_c, 1, 57, 127
2, 200, Note_on_c, 1, 61, 127
2, 200, Note_off_c, 1, 63, 0
2, 200, Note_on_c, 1, 64, 127
2, 200, Note_off_c, 1, 73, 0
2, 200, Note_off_c, 1, 80, 0
2, 200, Note_off_c, 1, 83, 0
2, 240, Note_off_c, 1, 33, 0
2, 240, Note_off_c, 1, 37, 0
2, 240, Note_off_c, 1, 40, 0
2, 240, Note_off_c, 1, 45, 0
2, 240, Note_off_c, 1, 57, 0
2, 240, Note_on_c, 1, 58, 127
2, 240, Note_off_c, 1, 61, 0
2, 240, Note_on_c, 1, 66, 127
2, 240, Note_on_c, 1, 73, 127
2, 240, Note_on_c, 1, 85, 127
2, 360, Note_off_c, 1, 58, 0
2, 360, Note_off_c, 1, 64, 0
2, 360, Note_off_c, 1, 66, 0
2, 360, Note_off_c, 1, 73, 0
2, 360, Note_off_c, 1, 85, 0
2, 400, Note_on_c, 1, 58, 127
2, 400, Note_on_c, 1, 70, 127
2, 600, Note_off_c, 1, 58, 0
2, 600, Note_off_c, 1, 70, 0
2, 640, Note_on_c, 1, 55, 127
2, 640, Note_on_c, 1, 67, 127
2, 800, Note_off_c, 1, 55, 0
2, 800, Note_off_c, 1, 67, 0
2, 880, Note_on_c, 1, 50, 127
2, 880, Note_on_c, 1, 55, 127
2, 880, Note_on_c, 1, 58, 127
2, 880, Note_on_c, 1, 62, 127
2, 1440, Note_off_c, 1, 50, 0
2, 1440, Note_off_c, 1, 55, 0
2, 1440, Note_off_c, 1, 58, 0
2, 1440, Note_off_c, 1, 62, 0
2, 3840, Note_on_c, 1, 59, 127
2, 3840, Note_on_c, 1, 64, 127
2, 3840, Note_on_c, 1, 68, 127
2, 4040, Note_off_c, 1, 64, 0
2, 4040, Note_off_c, 1, 68, 0
2, 4080, Note_on_c, 1, 58, 127
2, 4080, Note_off_c, 1, 59, 0
2, 4080, Note_on_c, 1, 64, 127
2, 4080, Note_on_c, 1, 67, 127
2, 4320, Note_off_c, 1, 58, 0
2, 4320, Note_off_c, 1, 64, 0
2, 4320, Note_off_c, 1, 67, 0
2, 4360, Note_on_c, 1, 59, 127
2, 4360, Note_on_c, 1, 63, 127
2, 4360, Note_on_c, 1, 66, 127
2, 4840, Note_off_c, 1, 59, 0
2, 4840, Note_off_c, 1, 63, 0
2, 4840, Note_off_c, 1, 66, 0
2, 4880, Note_on_c, 1, 59, 127
2, 4880, Note_on_c, 1, 63, 127
2, 4880, Note_on_c, 1, 66, 127
2, 5320, Note_off_c, 1, 59, 0
2, 5320, Note_off_c, 1, 63, 0
2, 5320, Note_off_c, 1, 66, 0
2, 5360, Note_on_c, 1, 59, 127
2, 5360, Note_on_c, 1, 66, 127
2, 5360, Note_on_c, 1, 69, 127
2, 5720, Note_off_c, 1, 59, 0
2, 5720, Note_off_c, 1, 66, 0
2, 5720, Note_off_c, 1, 69, 0
2, 5760, Note_on_c, 1, 59, 127
2, 5760, Note_on_c, 1, 66, 127
2, 5760, Note_on_c, 1, 69, 127
2, 5840, Note_off_c, 1, 59, 0
2, 5840, Note_off_c, 1, 66, 0
2, 5840, Note_off_c, 1, 69, 0
2, 5880, Note_on_c, 1, 65, 127
2, 5880, Note_on_c, 1, 68, 127
2, 5880, Note_on_c, 1, 74, 127
2, 6400, Note_off_c, 1, 65, 0
2, 6400, Note_off_c, 1, 68, 0
2, 6400, Note_off_c, 1, 74, 0
2, 6440, Note_on_c, 1, 63, 127
2, 6440, Note_on_c, 1, 66, 127
2, 6440, Note_on_c, 1, 75, 127
2, 6880, Note_off_c, 1, 63, 0
2, 6880, Note_off_c, 1, 66, 0
2, 6880, Note_off_c, 1, 75, 0
2, 6920, Note_on_c, 1, 65, 127
2, 6920, Note_on_c, 1, 69, 127
2, 6920, Note_on_c, 1, 75, 127
2, 7400, Note_off_c, 1, 65, 0
2, 7400, Note_off_c, 1, 69, 0
2, 7400, Note_off_c, 1, 75, 0
2, 7440, Note_on_c, 1, 70, 127
2, 7440, Note_on_c, 1, 75, 127
2, 7440, Note_on_c, 1, 78, 127
2, 7800, Note_off_c, 1, 78, 0
2, 7800, Note_on_c, 1, 79, 127
2, 7840, Note_off_c, 1, 70, 0
2, 7840, Note_off_c, 1, 75, 0
2, 7840, Note_off_c, 1, 79, 0
2, 7880, Note_on_c, 1, 70, 127
2, 7880, Note_on_c, 1, 75, 127
2, 7880, Note_on_c, 1, 78, 127
2, 7920, Note_off_c, 1, 70, 0
2, 7920, Note_off_c, 1, 75, 0
2, 7920, Note_off_c, 1, 78, 0
2, 7960, Note_on_c, 1, 68, 127
2, 7960, Note_on_c, 1, 71, 127
2, 7960, Note_on_c, 1, 74, 127
2, 7960, Note_on_c, 1, 77, 127
2, 8440, Note_off_c, 1, 68, 0
2, 8440, Note_off_c, 1, 71, 0
2, 8440, Note_off_c, 1, 74, 0
2, 8440, Note_off_c, 1, 77, 0
2, 8480, Note_on_c, 1, 66, 127
2, 8480, Note_on_c, 1, 70, 127
2, 8480, Note_on_c, 1, 75, 127
2, 8920, Note_off_c, 1, 66, 0
2, 8920, Note_off_c, 1, 70, 0
2, 8920, Note_off_c, 1, 75, 0
2, 8960, Note_on_c, 1, 73, 127
2, 8960, Note_on_c, 1, 75, 127
2, 8960, Note_on_c, 1, 78, 127
2, 9080, Note_off_c, 1, 73, 0
2, 9400, Note_off_c, 1, 75, 0
2, 9400, Note_off_c, 1, 78, 0
2, 9440, Note_on_c, 1, 71, 127
2, 9440, Note_on_c, 1, 75, 127
2, 9440, Note_on_c, 1, 78, 127
2, 9800, Note_off_c, 1, 71, 0
2, 9800, Note_off_c, 1, 75, 0
2, 9800, Note_off_c, 1, 78, 0
2, 9840, Note_on_c, 1, 71, 127
2, 9840, Note_on_c, 1, 75, 127
2, 9840, Note_on_c, 1, 78, 127
2, 9920, Note_off_c, 1, 71, 0
2, 9920, Note_off_c, 1, 75, 0
2, 9920, Note_off_c, 1, 78, 0
2, 9960, Note_on_c, 1, 71, 127
2, 9960, Note_on_c, 1, 75, 127
2, 9960, Note_on_c, 1, 78, 127
2, 10400, Note_off_c, 1, 71, 0
2, 10400, Note_off_c, 1, 75, 0
2, 10400, Note_off_c, 1, 78, 0
2, 10440, Note_on_c, 1, 71, 127
2, 10440, Note_on_c, 1, 75, 127
2, 10440, Note_on_c, 1, 78, 127
2, 10880, Note_off_c, 1, 71, 0
2, 10880, Note_off_c, 1, 75, 0
2, 10880, Note_off_c, 1, 78, 0
2, 10920, Note_on_c, 1, 66, 127
2, 10920, Note_on_c, 1, 70, 127
2, 10920, Note_on_c, 1, 75, 127
2, 10920, Note_on_c, 1, 78, 127
2, 11200, Note_off_c, 1, 66, 0
2, 11200, Note_off_c, 1, 70, 0
2, 11200, Note_off_c, 1, 75, 0
2, 11200, Note_off_c, 1, 78, 0
2, 11240, Note_on_c, 1, 66, 127
2, 11240, Note_on_c, 1, 70, 127
2, 11240, Note_on_c, 1, 75, 127
2, 11240, Note_on_c, 1, 78, 127
2, 11360, Note_off_c, 1, 66, 0
2, 11360, Note_off_c, 1, 70, 0
2, 11360, Note_off_c, 1, 75, 0
2, 11360, Note_off_c, 1, 78, 0
2, 11400, Note_on_c, 1, 54, 127
2, 11400, Note_on_c, 1, 64, 127
2, 11400, Note_on_c, 1, 70, 127
2, 11400, Note_on_c, 1, 75, 127
2, 11440, Note_off_c, 1, 54, 0
2, 11440, Note_off_c, 1, 64, 0
2, 11440, Note_off_c, 1, 70, 0
2, 11440, Note_off_c, 1, 75, 0
2, 11520, Note_on_c, 1, 54, 127
2, 11520, Note_on_c, 1, 64, 127
2, 11520, Note_on_c, 1, 70, 127
2, 11520, Note_on_c, 1, 73, 127
2, 11800, Note_off_c, 1, 54, 0
2, 11800, Note_off_c, 1, 64, 0
2, 11800, Note_off_c, 1, 70, 0
2, 11800, Note_off_c, 1, 73, 0
2, 11880, Note_on_c, 1, 35, 127
2, 11880, Note_on_c, 1, 47, 127
2, 11880, Note_on_c, 1, 71, 127
2, 11880, Note_on_c, 1, 75, 127
2, 11880, Note_on_c, 1, 78, 127
2, 11880, Note_on_c, 1, 83, 127
2, 12120, Note_off_c, 1, 35, 0
2, 12120, Note_off_c, 1, 47, 0
2, 12120, Note_off_c, 1, 71, 0
2, 12120, Note_off_c, 1, 75, 0
2, 12120, Note_off_c, 1, 78, 0
2, 12120, Note_off_c, 1, 83, 0
2, 12160, Note_on_c, 1, 42, 127
2, 12160, Note_on_c, 1, 54, 127
2, 12160, Note_on_c, 1, 70, 127
2, 12160, Note_on_c, 1, 73, 127
2, 12160, Note_on_c, 1, 78, 127
2, 12160, Note_on_c, 1, 82, 127
2, 12200, Note_off_c, 1, 42, 0
2, 12200, Note_off_c, 1, 54, 0
2, 12200, Note_off_c, 1, 70, 0
2, 12200, Note_off_c, 1, 73, 0
2, 12200, Note_off_c, 1, 78, 0
2, 12200, Note_off_c, 1, 82, 0
2, 12280, Note_on_c, 1, 35, 127
2, 12280, Note_on_c, 1, 47, 127
2, 12280, Note_on_c, 1, 68, 127
2, 12280, Note_on_c, 1, 75, 127
2, 12280, Note_on_c, 1, 78, 127
2, 12280, Note_on_c, 1, 80, 127
2, 12320, Note_off_c, 1, 35, 0
2, 12320, Note_off_c, 1, 47, 0
2, 12320, Note_off_c, 1, 68, 0
2, 12320, Note_off_c, 1, 75, 0
2, 12320, Note_off_c, 1, 78, 0
2, 12320, Note_off_c, 1, 80, 0
2, 12440, Note_on_c, 1, 47, 127
2, 12440, Note_on_c, 1, 59, 127
2, 12440, Note_on_c, 1, 68, 127
2, 12440, Note_on_c, 1, 75, 127
2, 12440, Note_on_c, 1, 78, 127
2, 12440, Note_on_c, 1, 80, 127
2, 12680, Note_off_c, 1, 47, 0
2, 12680, Note_off_c, 1, 59, 0
2, 12680, Note_off_c, 1, 68, 0
2, 12680, Note_off_c, 1, 75, 0
2, 12680, Note_off_c, 1, 78, 0
2, 12680, Note_off_c, 1, 80, 0
2, 12720, Note_on_c, 1, 37, 127
2, 12720, Note_on_c, 1, 49, 127
2, 12720, Note_on_c, 1, 70, 127
2, 12720, Note_on_c, 1, 73, 127
2, 12720, Note_on_c, 1, 77, 127
2, 12720, Note_on_c, 1, 82, 127
2, 12960, Note_off_c, 1, 37, 0
2, 12960, Note_off_c, 1, 49, 0
2, 12960, Note_off_c, 1, 70, 0
2, 12960, Note_off_c, 1, 73, 0
2, 12960, Note_off_c, 1, 77, 0
2, 12960, Note_off_c, 1, 82, 0
2, 13000, Note_on_c, 1, 37, 127
2, 13000, Note_on_c, 1, 49, 127
2, 13000, Note_on_c, 1, 70, 127
2, 13000, Note_on_c, 1, 77, 127
2, 13000, Note_on_c, 1, 82, 127
2, 13240, Note_off_c, 1, 37, 0
2, 13240, Note_off_c, 1, 49, 0
2, 13240, Note_off_c, 1, 70, 0
2, 13240, Note_off_c, 1, 77, 0
2, 13240, Note_off_c, 1, 82, 0
2, 13280, Note_on_c, 1, 37, 127
2, 13280, Note_on_c, 1, 49, 127
2, 13280, Note_on_c, 1, 70, 127
2, 13280, Note_on_c, 1, 77, 127
2, 13280, Note_on_c, 1, 82, 127
2, 13800, Note_off_c, 1, 37, 0
2, 13800, Note_off_c, 1, 49, 0
2, 13800, Note_off_c, 1, 70, 0
2, 13800, Note_off_c, 1, 77, 0
2, 13800, Note_off_c, 1, 82, 0
2, 13880, Note_on_c, 1, 38, 127
2, 13880, Note_on_c, 1, 50, 127
2, 13880, Note_on_c, 1, 55, 127
2, 13880, Note_on_c, 1, 67, 127
2, 14120, Note_off_c, 1, 38, 0
2, 14120, Note_off_c, 1, 50, 0
2, 14120, Note_off_c, 1, 55, 0
2, 14120, Note_off_c, 1, 67, 0
2, 14160, Note_on_c, 1, 55, 127
2, 14160, Note_on_c, 1, 67, 127
2, 14400, Note_off_c, 1, 55, 0
2, 14400, Note_off_c, 1, 67, 0
2, 14440, Note_on_c, 1, 55, 127
2, 14440, Note_on_c, 1, 62, 127
2, 14440, Note_on_c, 1, 64, 127
2, 14440, Note_on_c, 1, 67, 127
2, 14480, Note_on_c, 1, 38, 127
2, 14480, Note_off_c, 1, 55, 0
2, 14480, Note_on_c, 1, 58, 127
2, 14480, Note_off_c, 1, 62, 0
2, 14480, Note_on_c, 1, 63, 127
2, 14480, Note_off_c, 1, 64, 0
2, 14520, Note_off_c, 1, 38, 0
2, 14520, Note_off_c, 1, 58, 0
2, 14520, Note_on_c, 1, 60, 127
2, 14520, Note_on_c, 1, 66, 127
2, 14520, Note_off_c, 1, 67, 0
2, 14520, Note_on_c, 1, 80, 127
2, 14560, Note_on_c, 1, 53, 127
2, 14560, Note_on_c, 1, 58, 127
2, 14560, Note_off_c, 1, 60, 0
2, 14560, Note_on_c, 1, 61, 127
2, 14560, Note_off_c, 1, 63, 0
2, 14560, Note_on_c, 1, 65, 127
2, 14560, Note_off_c, 1, 66, 0
2, 14560, Note_on_c, 1, 67, 127
2, 14560, Note_off_c, 1, 80, 0
2, 14600, Note_on_c, 1, 44, 127
2, 14600, Note_on_c, 1, 48, 127
2, 14600, Note_off_c, 1, 53, 0
2, 14600, Note_off_c, 1, 61, 0
2, 14600, Note_off_c, 1, 65, 0
2, 14600, Note_off_c, 1, 67, 0
2, 14600, Note_on_c, 1, 84, 127
2, 14600, Note_on_c, 1, 92, 127
2, 14600, Note_on_c, 1, 96, 127
2, 14640, Note_off_c, 1, 44, 0
2, 14640, Note_off_c, 1, 48, 0
2, 14640, Note_off_c, 1, 58, 0
2, 14640, Note_off_c, 1, 84, 0
2, 14640, Note_off_c, 1, 92, 0
2, 14640, Note_off_c, 1, 96, 0
2, 14720, Note_on_c, 1, 60, 127
2, 14720, Note_on_c, 1, 64, 127
2, 14720, Note_on_c, 1, 69, 127
2, 14720, Note_on_c, 1, 72, 127
2, 14720, Note_on_c, 1, 76, 127
2, 14720, Note_on_c, 1, 81, 127
2, 14960, Note_off_c, 1, 60, 0
2, 14960, Note_off_c, 1, 64, 0
2, 14960, Note_off_c, 1, 69, 0
2, 14960, Note_off_c, 1, 72, 0
2, 14960, Note_off_c, 1, 76, 0
2, 14960, Note_off_c, 1, 81, 0
2, 15000, Note_on_c, 1, 60, 127
2, 15000, Note_on_c, 1, 64, 127
2, 15000, Note_on_c, 1, 69, 127
2, 15000, Note_on_c, 1, 72, 127
2, 15000, Note_on_c, 1, 76, 127
2, 15000, Note_on_c, 1, 81, 127
2, 15240, Note_off_c, 1, 60, 0
2, 15240, Note_off_c, 1, 64, 0
2, 15240, Note_off_c, 1, 69, 0
2, 15240, Note_off_c, 1, 72, 0
2, 15240, Note_off_c, 1, 76, 0
2, 15240, Note_off_c, 1, 81, 0
2, 15280, Note_on_c, 1, 59, 127
2, 15280, Note_on_c, 1, 62, 127
2, 15280, Note_on_c, 1, 65, 127
2, 15280, Note_on_c, 1, 69, 127
2, 15280, Note_on_c, 1, 71, 127
2, 15280, Note_on_c, 1, 74, 127
2, 15280, Note_on_c, 1, 77, 127
2, 15280, Note_on_c, 1, 81, 127
2, 15840, Note_off_c, 1, 59, 0
2, 15840, Note_off_c, 1, 62, 0
2, 15840, Note_off_c, 1, 65, 0
2, 15840, Note_off_c, 1, 69, 0
2, 15840, Note_off_c, 1, 71, 0
2, 15840, Note_off_c, 1, 74, 0
2, 15840, Note_off_c, 1, 77, 0
2, 15840, Note_off_c, 1, 81, 0
2, 15920, Note_on_c, 1, 32, 127
2, 15920, Note_on_c, 1, 44, 127
2, 15920, Note_on_c, 1, 64, 127
2, 15920, Note_on_c, 1, 68, 127
2, 15920, Note_on_c, 1, 71, 127
2, 15920, Note_on_c, 1, 76, 127
2, 16000, Note_off_c, 1, 64, 0
2, 16000, Note_off_c, 1, 68, 0
2, 16000, Note_off_c, 1, 71, 0
2, 16000, Note_off_c, 1, 76, 0
2, 16040, Note_on_c, 1, 63, 127
2, 16040, Note_on_c, 1, 75, 127
2, 16160, Note_off_c, 1, 32, 0
2, 16160, Note_off_c, 1, 44, 0
2, 16160, Note_off_c, 1, 63, 0
2, 16160, Note_off_c, 1, 75, 0
2, 16200, Note_on_c, 1, 34, 127
2, 16200, Note_on_c, 1, 46, 127
2, 16200, Note_on_c, 1, 61, 127
2, 16200, Note_on_c, 1, 66, 127
2, 16200, Note_on_c, 1, 70, 127
2, 16200, Note_on_c, 1, 73, 127
2, 16440, Note_off_c, 1, 34, 0
2, 16440, Note_off_c, 1, 46, 0
2, 16440, Note_off_c, 1, 61, 0
2, 16440, Note_off_c, 1, 66, 0
2, 16440, Note_off_c, 1, 70, 0
2, 16440, Note_off_c, 1, 73, 0
2, 16480, Note_on_c, 1, 56, 127
2, 16480, Note_on_c, 1, 63, 127
2, 16480, Note_on_c, 1, 70, 127
2, 16480, Note_on_c, 1, 73, 127
2, 16480, Note_on_c, 1, 75, 127
2, 16480, Note_on_c, 1, 79, 127
2, 16480, Note_on_c, 1, 85, 127
2, 16520, Note_on_c, 1, 68, 127
2, 16520, Note_off_c, 1, 70, 0
2, 16520, Note_on_c, 1, 72, 127
2, 16520, Note_off_c, 1, 73, 0
2, 16520, Note_off_c, 1, 75, 0
2, 16520, Note_off_c, 1, 79, 0
2, 16520, Note_on_c, 1, 80, 127
2, 16520, Note_on_c, 1, 84, 127
2, 16520, Note_off_c, 1, 85, 0
2, 16720, Note_off_c, 1, 56, 0
2, 16720, Note_off_c, 1, 63, 0
2, 16720, Note_off_c, 1, 68, 0
2, 16720, Note_off_c, 1, 72, 0
2, 16720, Note_off_c, 1, 80, 0
2, 16720, Note_off_c, 1, 84, 0
2, 16760, Note_on_c, 1, 59, 127
2, 16760, Note_on_c, 1, 62, 127
2, 16760, Note_on_c, 1, 64, 127
2, 16760, Note_on_c, 1, 68, 127
2, 16760, Note_on_c, 1, 71, 127
2, 16760, Note_on_c, 1, 74, 127
2, 16760, Note_on_c, 1, 76, 127
2, 16760, Note_on_c, 1, 83, 127
2, 16800, Note_on_c, 1, 45, 127
2, 16800, Note_on_c, 1, 52, 127
2, 16800, Note_on_c, 1, 54, 127
2, 16800, Note_on_c, 1, 57, 127
2, 16800, Note_off_c, 1, 59, 0
2, 16800, Note_on_c, 1, 60, 127
2, 16800, Note_off_c, 1, 62, 0
2, 16800, Note_on_c, 1, 63, 127
2, 16800, Note_off_c, 1, 64, 0
2, 16800, Note_off_c, 1, 68, 0
2, 16800, Note_off_c, 1, 71, 0
2, 16800, Note_off_c, 1, 74, 0
2, 16800, Note_off_c, 1, 76, 0
2, 16800, Note_off_c, 1, 83, 0
2, 16840, Note_off_c, 1, 45, 0
2, 16840, Note_off_c, 1, 52, 0
2, 16840, Note_off_c, 1, 54, 0
2, 16840, Note_off_c, 1, 57, 0
2, 16840, Note_on_c, 1, 59, 127
2, 16840, Note_off_c, 1, 60, 0
2, 16840, Note_on_c, 1, 62, 127
2, 16840, Note_off_c, 1, 63, 0
2, 16840, Note_on_c, 1, 64, 127
2, 16840, Note_on_c, 1, 68, 127
2, 16840, Note_on_c, 1, 71, 127
2, 16840, Note_on_c, 1, 74, 127
2, 16840, Note_on_c, 1, 76, 127
2, 16840, Note_on_c, 1, 83, 127
2, 17000, Note_off_c, 1, 59, 0
2, 17000, Note_off_c, 1, 62, 0
2, 17000, Note_off_c, 1, 64, 0
2, 17000, Note_off_c, 1, 68, 0
2, 17000, Note_off_c, 1, 71, 0
2, 17000, Note_off_c, 1, 74, 0
2, 17000, Note_off_c, 1, 76, 0
2, 17000, Note_off_c, 1, 83, 0
2, 17040, Note_on_c, 1, 51, 127
2, 17040, Note_on_c, 1, 63, 127
2, 17040, Note_on_c, 1, 72, 127
2, 17040, Note_on_c, 1, 78, 127
2, 17040, Note_on_c, 1, 80, 127
2, 17040, Note_on_c, 1, 84, 127
2, 17560, Note_off_c, 1, 51, 0
2, 17560, Note_off_c, 1, 63, 0
2, 17560, Note_off_c, 1, 72, 0
2, 17560, Note_off_c, 1, 78, 0
2, 17560, Note_off_c, 1, 80, 0
2, 17560, Note_off_c, 1, 84, 0
2, 17600, Note_on_c, 1, 53, 127
2, 17600, Note_on_c, 1, 65, 127
2, 17600, Note_on_c, 1, 73, 127
2, 17600, Note_on_c, 1, 80, 127
2, 17600, Note_on_c, 1, 85, 127
2, 17840, Note_off_c, 1, 53, 0
2, 17840, Note_off_c, 1, 65, 0
2, 17840, Note_off_c, 1, 73, 0
2, 17840, Note_off_c, 1, 80, 0
2, 17840, Note_off_c, 1, 85, 0
2, 17880, Note_on_c, 1, 34, 127
2, 17880, Note_on_c, 1, 40, 127
2, 17880, Note_on_c, 1, 43, 127
2, 17880, Note_on_c, 1, 46, 127
2, 17880, Note_on_c, 1, 85, 127
2, 17880, Note_on_c, 1, 88, 127
2, 17880, Note_on_c, 1, 91, 127
2, 17880, Note_on_c, 1, 97, 127
2, 17920, Note_off_c, 1, 34, 0
2, 17920, Note_off_c, 1, 40, 0
2, 17920, Note_off_c, 1, 43, 0
2, 17920, Note_off_c, 1, 46, 0
2, 17920, Note_off_c, 1, 85, 0
2, 17920, Note_off_c, 1, 88, 0
2, 17920, Note_off_c, 1, 91, 0
2, 17920, Note_off_c, 1, 97, 0
2, 17960, Note_on_c, 1, 34, 127
2, 17960, Note_on_c, 1, 40, 127
2, 17960, Note_on_c, 1, 43, 127
2, 17960, Note_on_c, 1, 46, 127
2, 17960, Note_on_c, 1, 85, 127
2, 17960, Note_on_c, 1, 88, 127
2, 17960, Note_on_c, 1, 91, 127
2, 17960, Note_on_c, 1, 97, 127
2, 18080, Note_off_c, 1, 34, 0
2, 18080, Note_off_c, 1, 40, 0
2, 18080, Note_off_c, 1, 43, 0
2, 18080, Note_off_c, 1, 46, 0
2, 18080, Note_on_c, 1, 52, 127
2, 18080, Note_on_c, 1, 55, 127
2, 18080, Note_on_c, 1, 76, 127
2, 18080, Note_on_c, 1, 79, 127
2, 18080, Note_off_c, 1, 85, 0
2, 18080, Note_off_c, 1, 88, 0
2, 18080, Note_off_c, 1, 91, 0
2, 18080, Note_off_c, 1, 97, 0
2, 18120, Note_on_c, 1, 34, 127
2, 18120, Note_on_c, 1, 40, 127
2, 18120, Note_on_c, 1, 43, 127
2, 18120, Note_on_c, 1, 46, 127
2, 18120, Note_off_c, 1, 52, 0
2, 18120, Note_off_c, 1, 55, 0
2, 18120, Note_off_c, 1, 76, 0
2, 18120, Note_off_c, 1, 79, 0
2, 18120, Note_on_c, 1, 85, 127
2, 18120, Note_on_c, 1, 88, 127
2, 18120, Note_on_c, 1, 91, 127
2, 18120, Note_on_c, 1, 97, 127
2, 18160, Note_off_c, 1, 34, 0
2, 18160, Note_off_c, 1, 40, 0
2, 18160, Note_off_c, 1, 43, 0
2, 18160, Note_off_c, 1, 46, 0
2, 18160, Note_off_c, 1, 85, 0
2, 18160, Note_off_c, 1, 88, 0
2, 18160, Note_off_c, 1, 91, 0
2, 18160, Note_off_c, 1, 97, 0
2, 18200, Note_on_c, 1, 55, 127
2, 18200, Note_on_c, 1, 67, 127
2, 18200, Note_on_c, 1, 76, 127
2, 18200, Note_on_c, 1, 79, 127
2, 18200, Note_on_c, 1, 88, 127
2, 18240, Note_on_c, 1, 40, 127
2, 18240, Note_on_c, 1, 52, 127
2, 18240, Note_off_c, 1, 55, 0
2, 18240, Note_on_c, 1, 64, 127
2, 18240, Note_off_c, 1, 67, 0
2, 18240, Note_off_c, 1, 76, 0
2, 18240, Note_off_c, 1, 79, 0
2, 18240, Note_off_c, 1, 88, 0
2, 18280, Note_off_c, 1, 40, 0
2, 18280, Note_off_c, 1, 52, 0
2, 18280, Note_on_c, 1, 55, 127
2, 18280, Note_off_c, 1, 64, 0
2, 18280, Note_on_c, 1, 67, 127
2, 18280, Note_on_c, 1, 76, 127
2, 18280, Note_on_c, 1, 79, 127
2, 18280, Note_on_c, 1, 88, 127
2, 18360, Note_off_c, 1, 76, 0
2, 18360, Note_off_c, 1, 79, 0
2, 18360, Note_off_c, 1, 88, 0
2, 18400, Note_on_c, 1, 62, 127
2, 18400, Note_off_c, 1, 67, 0
2, 18400, Note_on_c, 1, 71, 127
2, 18400, Note_on_c, 1, 79, 127
2, 18400, Note_on_c, 1, 83, 127
2, 18440, Note_off_c, 1, 55, 0
2, 18440, Note_off_c, 1, 62, 0
2, 18440, Note_off_c, 1, 71, 0
2, 18440, Note_off_c, 1, 79, 0
2, 18440, Note_off_c, 1, 83, 0
2, 18480, Note_on_c, 1, 61, 127
2, 18480, Note_on_c, 1, 70, 127
2, 18480, Note_on_c, 1, 73, 127
2, 18480, Note_on_c, 1, 82, 127
2, 18480, Note_on_c, 1, 85, 127
2, 18720, Note_off_c, 1, 61, 0
2, 18720, Note_off_c, 1, 70, 0
2, 18720, Note_off_c, 1, 73, 0
2, 18720, Note_off_c, 1, 82, 0
2, 18720, Note_off_c, 1, 85, 0
2, 18760, Note_on_c, 1, 42, 127
2, 18760, Note_on_c, 1, 54, 127
2, 18760, Note_on_c, 1, 61, 127
2, 18760, Note_on_c, 1, 76, 127
2, 18760, Note_on_c, 1, 88, 127
2, 19000, Note_off_c, 1, 42, 0
2, 19000, Note_off_c, 1, 54, 0
2, 19000, Note_off_c, 1, 61, 0
2, 19000, Note_off_c, 1, 76, 0
2, 19000, Note_off_c, 1, 88, 0
2, 19040, Note_on_c, 1, 36, 127
2, 19040, Note_on_c, 1, 48, 127
2, 19040, Note_on_c, 1, 66, 127
2, 19040, Note_on_c, 1, 69, 127
2, 19040, Note_on_c, 1, 75, 127
2, 19040, Note_on_c, 1, 78, 127
2, 19280, Note_off_c, 1, 36, 0
2, 19280, Note_off_c, 1, 48, 0
2, 19280, Note_off_c, 1, 66, 0
2, 19280, Note_off_c, 1, 69, 0
2, 19280, Note_off_c, 1, 75, 0
2, 19280, Note_off_c, 1, 78, 0
2, 19320, Note_on_c, 1, 38, 127
2, 19320, Note_on_c, 1, 50, 127
2, 19320, Note_on_c, 1, 79, 127
2, 19320, Note_on_c, 1, 82, 127
2, 19320, Note_on_c, 1, 86, 127
2, 19320, Note_on_c, 1, 91, 127
2, 19560, Note_off_c, 1, 38, 0
2, 19560, Note_off_c, 1, 50, 0
2, 19560, Note_off_c, 1, 79, 0
2, 19560, Note_off_c, 1, 82, 0
2, 19560, Note_off_c, 1, 86, 0
2, 19560, Note_off_c, 1, 91, 0
2, 19600, Note_on_c, 1, 42, 127
2, 19600, Note_on_c, 1, 54, 127
2, 19600, Note_on_c, 1, 73, 127
2, 19600, Note_on_c, 1, 78, 127
2, 19600, Note_on_c, 1, 82, 127
2, 19600, Note_on_c, 1, 85, 127
2, 19840, Note_off_c, 1, 42, 0
2, 19840, Note_off_c, 1, 54, 0
2, 19840, Note_off_c, 1, 73, 0
2, 19840, Note_off_c, 1, 78, 0
2, 19840, Note_off_c, 1, 82, 0
2, 19840, Note_off_c, 1, 85, 0
2, 19880, Note_on_c, 1, 42, 127
2, 19880, Note_on_c, 1, 54, 127
2, 19880, Note_on_c, 1, 73, 127
2, 19880, Note_on_c, 1, 78, 127
2, 19880, Note_on_c, 1, 82, 127
2, 19880, Note_on_c, 1, 85, 127
2, 20040, Note_off_c, 1, 42, 0
2, 20040, Note_off_c, 1, 54, 0
2, 20040, Note_off_c, 1, 73, 0
2, 20040, Note_off_c, 1, 78, 0
2, 20040, Note_off_c, 1, 82, 0
2, 20040, Note_off_c, 1, 85, 0
2, 20080, Note_on_c, 1, 42, 127
2, 20080, Note_on_c, 1, 54, 127
2, 20080, Note_on_c, 1, 73, 127
2, 20080, Note_on_c, 1, 78, 127
2, 20080, Note_on_c, 1, 82, 127
2, 20080, Note_on_c, 1, 85, 127
2, 20440, Note_off_c, 1, 42, 0
2, 20440, Note_off_c, 1, 54, 0
2, 20440, Note_off_c, 1, 73, 0
2, 20440, Note_off_c, 1, 78, 0
2, 20440, Note_off_c, 1, 82, 0
2, 20440, Note_off_c, 1, 85, 0
2, 20480, Note_on_c, 1, 47, 127
2, 20480, Note_on_c, 1, 54, 127
2, 20480, Note_on_c, 1, 59, 127
2, 20480, Note_on_c, 1, 63, 127
2, 20480, Note_on_c, 1, 71, 127
2, 20480, Note_on_c, 1, 75, 127
2, 20720, Note_off_c, 1, 47, 0
2, 20720, Note_off_c, 1, 54, 0
2, 20720, Note_off_c, 1, 59, 0
2, 20720, Note_off_c, 1, 63, 0
2, 20720, Note_off_c, 1, 71, 0
2, 20720, Note_off_c, 1, 75, 0
2, 20760, Note_on_c, 1, 51, 127
2, 20760, Note_on_c, 1, 59, 127
2, 20760, Note_on_c, 1, 63, 127
2, 20760, Note_on_c, 1, 66, 127
2, 20760, Note_on_c, 1, 71, 127
2, 20760, Note_on_c, 1, 78, 127
2, 21000, Note_off_c, 1, 51, 0
2, 21000, Note_off_c, 1, 59, 0
2, 21000, Note_off_c, 1, 63, 0
2, 21000, Note_off_c, 1, 66, 0
2, 21000, Note_off_c, 1, 71, 0
2, 21000, Note_off_c, 1, 78, 0
2, 21040, Note_on_c, 1, 43, 127
2, 21040, Note_on_c, 1, 50, 127
2, 21040, Note_on_c, 1, 55, 127
2, 21040, Note_on_c, 1, 71, 127
2, 21040, Note_on_c, 1, 74, 127
2, 21040, Note_on_c, 1, 79, 127
2, 21040, Note_on_c, 1, 83, 127
2, 21280, Note_off_c, 1, 43, 0
2, 21280, Note_off_c, 1, 50, 0
2, 21280, Note_off_c, 1, 55, 0
2, 21280, Note_off_c, 1, 71, 0
2, 21280, Note_off_c, 1, 74, 0
2, 21280, Note_off_c, 1, 79, 0
2, 21280, Note_off_c, 1, 83, 0
2, 21320, Note_on_c, 1, 38, 127
2, 21320, Note_on_c, 1, 50, 127
2, 21320, Note_on_c, 1, 69, 127
2, 21320, Note_on_c, 1, 72, 127
2, 21320, Note_on_c, 1, 78, 127
2, 21320, Note_on_c, 1, 81, 127
2, 21560, Note_off_c, 1, 38, 0
2, 21560, Note_off_c, 1, 50, 0
2, 21560, Note_off_c, 1, 69, 0
2, 21560, Note_off_c, 1, 72, 0
2, 21560, Note_off_c, 1, 78, 0
2, 21560, Note_off_c, 1, 81, 0
2, 21600, Note_on_c, 1, 31, 127
2, 21600, Note_on_c, 1, 43, 127
2, 21600, Note_on_c, 1, 67, 127
2, 21600, Note_on_c, 1, 71, 127
2, 21600, Note_on_c, 1, 74, 127
2, 21600, Note_on_c, 1, 79, 127
2, 21840, Note_off_c, 1, 31, 0
2, 21840, Note_off_c, 1, 43, 0
2, 21840, Note_off_c, 1, 67, 0
2, 21840, Note_off_c, 1, 71, 0
2, 21840, Note_off_c, 1, 74, 0
2, 21840, Note_off_c, 1, 79, 0
2, 21880, Note_on_c, 1, 46, 127
2, 21880, Note_on_c, 1, 58, 127
2, 21880, Note_on_c, 1, 65, 127
2, 21880, Note_on_c, 1, 69, 127
2, 21880, Note_on_c, 1, 77, 127
2, 21920, Note_on_c, 1, 41, 127
2, 21920, Note_off_c, 1, 46, 0
2, 21920, Note_on_c, 1, 48, 127
2, 21920, Note_on_c, 1, 55, 127
2, 21920, Note_on_c, 1, 57, 127
2, 21920, Note_off_c, 1, 58, 0
2, 21920, Note_off_c, 1, 65, 0
2, 21920, Note_on_c, 1, 67, 127
2, 21920, Note_off_c, 1, 69, 0
2, 21920, Note_off_c, 1, 77, 0
2, 21960, Note_off_c, 1, 41, 0
2, 21960, Note_off_c, 1, 48, 0
2, 21960, Note_off_c, 1, 55, 0
2, 21960, Note_off_c, 1, 57, 0
2, 21960, Note_off_c, 1, 67, 0
2, 22000, Note_on_c, 1, 45, 127
2, 22000, Note_on_c, 1, 53, 127
2, 22000, Note_on_c, 1, 56, 127
2, 22000, Note_on_c, 1, 58, 127
2, 22000, Note_on_c, 1, 62, 127
2, 22040, Note_off_c, 1, 45, 0
2, 22040, Note_off_c, 1, 53, 0
2, 22040, Note_off_c, 1, 56, 0
2, 22040, Note_off_c, 1, 58, 0
2, 22040, Note_on_c, 1, 60, 127
2, 22040, Note_off_c, 1, 62, 0
2, 22040, Note_on_c, 1, 67, 127
2, 22040, Note_on_c, 1, 76, 127
2, 22040, Note_on_c, 1, 82, 127
2, 22040, Note_on_c, 1, 88, 127
2, 22080, Note_on_c, 1, 34, 127
2, 22080, Note_on_c, 1, 37, 127
2, 22080, Note_on_c, 1, 42, 127
2, 22080, Note_on_c, 1, 46, 127
2, 22080, Note_on_c, 1, 58, 127
2, 22080, Note_off_c, 1, 60, 0
2, 22080, Note_on_c, 1, 61, 127
2, 22080, Note_on_c, 1, 66, 127
2, 22080, Note_off_c, 1, 67, 0
2, 22080, Note_on_c, 1, 70, 127
2, 22080, Note_off_c, 1, 76, 0
2, 22080, Note_off_c, 1, 82, 0
2, 22080, Note_off_c, 1, 88, 0
2, 22120, Note_off_c, 1, 34, 0
2, 22120, Note_off_c, 1, 37, 0
2, 22120, Note_off_c, 1, 42, 0
2, 22120, Note_off_c, 1, 46, 0
2, 22120, Note_on_c, 1, 54, 127
2, 22120, Note_off_c, 1, 58, 0
2, 22120, Note_on_c, 1, 63, 127
2, 22120, Note_off_c, 1, 66, 0
2, 22120, Note_off_c, 1, 70, 0
2, 22120, Note_on_c, 1, 82, 127
2, 22160, Note_off_c, 1, 54, 0
2, 22160, Note_off_c, 1, 61, 0
2, 22160, Note_off_c, 1, 63, 0
2, 22160, Note_off_c, 1, 82, 0
2, 22200, Note_on_c, 1, 43, 127
2, 22200, Note_on_c, 1, 50, 127
2, 22200, Note_on_c, 1, 60, 127
2, 22200, Note_on_c, 1, 62, 127
2, 22200, Note_on_c, 1, 67, 127
2, 22440, Note_off_c, 1, 43, 0
2, 22440, Note_off_c, 1, 50, 0
2, 22440, Note_off_c, 1, 60, 0
2, 22440, Note_off_c, 1, 62, 0
2, 22440, Note_off_c, 1, 67, 0
2, 22480, Note_on_c, 1, 48, 127
2, 22480, Note_on_c, 1, 52, 127
2, 22480, Note_on_c, 1, 55, 127
2, 22480, Note_on_c, 1, 58, 127
2, 22480, Note_on_c, 1, 64, 127
2, 22480, Note_on_c, 1, 67, 127
2, 22720, Note_off_c, 1, 48, 0
2, 22720, Note_off_c, 1, 52, 0
2, 22720, Note_off_c, 1, 55, 0
2, 22720, Note_off_c, 1, 58, 0
2, 22720, Note_off_c, 1, 64, 0
2, 22720, Note_off_c, 1, 67, 0
2, 22760, Note_on_c, 1, 47, 127
2, 22760, Note_on_c, 1, 53, 127
2, 22760, Note_on_c, 1, 55, 127
2, 22760, Note_on_c, 1, 71, 127
2, 22760, Note_on_c, 1, 83, 127
2, 22800, Note_off_c, 1, 55, 0
2, 22800, Note_on_c, 1, 62, 127
2, 22800, Note_off_c, 1, 71, 0
2, 22800, Note_on_c, 1, 74, 127
2, 22800, Note_off_c, 1, 83, 0
2, 22840, Note_on_c, 1, 55, 127
2, 22840, Note_off_c, 1, 62, 0
2, 22840, Note_on_c, 1, 68, 127
2, 22840, Note_off_c, 1, 74, 0
2, 22840, Note_on_c, 1, 80, 127
2, 22880, Note_off_c, 1, 53, 0
2, 22880, Note_off_c, 1, 55, 0
2, 22880, Note_on_c, 1, 62, 127
2, 22880, Note_off_c, 1, 68, 0
2, 22880, Note_on_c, 1, 74, 127
2, 22880, Note_off_c, 1, 80, 0
2, 22920, Note_on_c, 1, 43, 127
2, 22920, Note_off_c, 1, 47, 0
2, 22920, Note_on_c, 1, 59, 127
2, 22920, Note_off_c, 1, 62, 0
2, 22920, Note_on_c, 1, 67, 127
2, 22920, Note_on_c, 1, 71, 127
2, 22960, Note_on_c, 1, 34, 127
2, 22960, Note_on_c, 1, 38, 127
2, 22960, Note_off_c, 1, 43, 0
2, 22960, Note_on_c, 1, 46, 127
2, 22960, Note_on_c, 1, 52, 127
2, 22960, Note_off_c, 1, 59, 0
2, 22960, Note_on_c, 1, 62, 127
2, 22960, Note_on_c, 1, 64, 127
2, 22960, Note_off_c, 1, 67, 0
2, 22960, Note_off_c, 1, 71, 0
2, 22960, Note_off_c, 1, 74, 0
2, 23000, Note_off_c, 1, 34, 0
2, 23000, Note_off_c, 1, 38, 0
2, 23000, Note_off_c, 1, 46, 0
2, 23000, Note_off_c, 1, 52, 0
2, 23000, Note_off_c, 1, 62, 0
2, 23000, Note_off_c, 1, 64, 0
2, 23040, Note_on_c, 1, 52, 127
2, 23040, Note_on_c, 1, 62, 127
2, 23040, Note_on_c, 1, 83, 127
2, 23280, Note_off_c, 1, 52, 0
2, 23280, Note_off_c, 1, 62, 0
2, 23280, Note_off_c, 1, 83, 0
2, 23320, Note_on_c, 1, 52, 127
2, 23320, Note_on_c, 1, 62, 127
2, 23320, Note_on_c, 1, 83, 127
2, 23560, Note_off_c, 1, 52, 0
2, 23560, Note_off_c, 1, 62, 0
2, 23560, Note_off_c, 1, 83, 0
2, 23600, Note_on_c, 1, 52, 127
2, 23600, Note_on_c, 1, 62, 127
2, 23600, Note_on_c, 1, 83, 127
2, 23840, Note_off_c, 1, 52, 0
2, 23840, Note_off_c, 1, 62, 0
2, 23840, Note_off_c, 1, 83, 0
2, 23880, Note_on_c, 1, 45, 127
2, 23880, Note_on_c, 1, 52, 127
2, 23880, Note_on_c, 1, 55, 127
2, 23880, Note_on_c, 1, 61, 127
2, 24080, Note_off_c, 1, 45, 0
2, 24080, Note_off_c, 1, 52, 0
2, 24080, Note_off_c, 1, 55, 0
2, 24080, Note_off_c, 1, 61, 0
2, 24120, Note_on_c, 1, 45, 127
2, 24120, Note_on_c, 1, 52, 127
2, 24120, Note_on_c, 1, 55, 127
2, 24120, Note_on_c, 1, 61, 127
2, 24160, Note_off_c, 1, 45, 0
2, 24160, Note_off_c, 1, 52, 0
2, 24160, Note_off_c, 1, 55, 0
2, 24160, Note_off_c, 1, 61, 0
2, 24200, Note_on_c, 1, 50, 127
2, 24200, Note_on_c, 1, 74, 127
2, 24200, Note_on_c, 1, 86, 127
2, 24440, Note_off_c, 1, 50, 0
2, 24440, Note_off_c, 1, 74, 0
2, 24440, Note_off_c, 1, 86, 0
2, 24480, Note_on_c, 1, 43, 127
2, 24480, Note_on_c, 1, 74, 127
2, 24480, Note_on_c, 1, 86, 127
2, 24680, Note_off_c, 1, 43, 0
2, 24720, Note_off_c, 1, 74, 0
2, 24720, Note_off_c, 1, 86, 0
2, 24760, Note_on_c, 1, 62, 127
2, 24760, Note_on_c, 1, 68, 127
2, 24760, Note_on_c, 1, 73, 127
2, 24760, Note_on_c, 1, 86, 127
2, 24760, Note_on_c, 1, 90, 127
2, 24760, Note_on_c, 1, 92, 127
2, 25000, Note_off_c, 1, 86, 0
2, 25000, Note_off_c, 1, 90, 0
2, 25040, Note_on_c, 1, 80, 127
2, 25040, Note_on_c, 1, 88, 127
2, 25280, Note_off_c, 1, 62, 0
2, 25280, Note_off_c, 1, 68, 0
2, 25280, Note_off_c, 1, 73, 0
2, 25320, Note_on_c, 1, 62, 127
2, 25320, Note_on_c, 1, 68, 127
2, 25320, Note_on_c, 1, 71, 127
2, 25400, Note_off_c, 1, 62, 0
2, 25400, Note_off_c, 1, 68, 0
2, 25400, Note_off_c, 1, 71, 0
2, 25400, Note_off_c, 1, 80, 0
2, 25400, Note_off_c, 1, 88, 0
2, 25400, Note_off_c, 1, 92, 0
2, 25440, Note_on_c, 1, 85, 127
2, 25480, Note_on_c, 1, 88, 127
2, 25560, Note_off_c, 1, 85, 0
2, 25560, Note_off_c, 1, 88, 0
2, 25600, Note_on_c, 1, 87, 127
2, 25600, Note_on_c, 1, 90, 127
2, 25600, Note_on_c, 1, 92, 127
2, 25600, Note_on_c, 1, 95, 127
2, 25640, Note_off_c, 1, 87, 0
2, 25640, Note_off_c, 1, 90, 0
2, 25640, Note_off_c, 1, 92, 0
2, 25640, Note_on_c, 1, 93, 127
2, 25640, Note_off_c, 1, 95, 0
2, 25640, Note_on_c, 1, 96, 127
2, 25680, Note_on_c, 1, 57, 127
2, 25680, Note_on_c, 1, 65, 127
2, 25680, Note_on_c, 1, 69, 127
2, 25680, Note_on_c, 1, 84, 127
2, 25720, Note_on_c, 1, 56, 127
2, 25720, Note_off_c, 1, 57, 0
2, 25720, Note_off_c, 1, 65, 0
2, 25720, Note_off_c, 1, 69, 0
2, 25720, Note_on_c, 1, 73, 127
2, 25720, Note_on_c, 1, 80, 127
2, 25720, Note_on_c, 1, 83, 127
2, 25720, Note_off_c, 1, 84, 0
2, 25720, Note_off_c, 1, 93, 0
2, 25720, Note_off_c, 1, 96, 0
2, 25760, Note_on_c, 1, 51, 127
2, 25760, Note_off_c, 1, 56, 0
2, 25760, Note_on_c, 1, 59, 127
2, 25760, Note_off_c, 1, 73, 0
2, 25760, Note_off_c, 1, 80, 0
2, 25760, Note_off_c, 1, 83, 0
2, 25760, Note_on_c, 1, 92, 127
2, 25800, Note_on_c, 1, 46, 127
2, 25800, Note_on_c, 1, 49, 127
2, 25800, Note_off_c, 1, 51, 0
2, 25800, Note_off_c, 1, 59, 0
2, 25800, Note_on_c, 1, 61, 127
2, 25800, Note_on_c, 1, 66, 127
2, 25800, Note_off_c, 1, 92, 0
2, 25840, Note_off_c, 1, 46, 0
2, 25840, Note_off_c, 1, 49, 0
2, 25840, Note_off_c, 1, 61, 0
2, 25840, Note_off_c, 1, 66, 0
2, 25880, Note_on_c, 1, 62, 127
2, 25880, Note_on_c, 1, 85, 127
2, 25880, Note_on_c, 1, 97, 127
2, 25920, Note_on_c, 1, 59, 127
2, 25920, Note_off_c, 1, 62, 0
2, 25920, Note_off_c, 1, 85, 0
2, 25960, Note_off_c, 1, 59, 0
2, 25960, Note_off_c, 1, 97, 0
2, 26040, Note_on_c, 1, 64, 127
2, 26040, Note_on_c, 1, 79, 127
2, 26040, Note_on_c, 1, 91, 127
2, 26080, Note_on_c, 1, 60, 127
2, 26080, Note_off_c, 1, 64, 0
2, 26120, Note_off_c, 1, 60, 0
2, 26120, Note_on_c, 1, 64, 127
2, 26160, Note_off_c, 1, 64, 0
2, 26160, Note_off_c, 1, 79, 0
2, 26160, Note_off_c, 1, 91, 0
2, 26200, Note_on_c, 1, 66, 127
2, 26200, Note_on_c, 1, 90, 127
2, 26200, Note_on_c, 1, 93, 127
2, 26720, Note_off_c, 1, 66, 0
2, 26720, Note_off_c, 1, 90, 0
2, 26720, Note_off_c, 1, 93, 0
2, 26760, Note_on_c, 1, 64, 127
2, 26760, Note_on_c, 1, 90, 127
2, 26760, Note_on_c, 1, 93, 127
2, 26880, Note_off_c, 1, 64, 0
2, 26920, Note_on_c, 1, 66, 127
2, 27000, Note_off_c, 1, 66, 0
2, 27000, Note_off_c, 1, 90, 0
2, 27000, Note_off_c, 1, 93, 0
2, 27040, Note_on_c, 1, 66, 127
2, 27040, Note_on_c, 1, 90, 127
2, 27040, Note_on_c, 1, 93, 127
2, 27160, Note_off_c, 1, 66, 0
2, 27160, Note_off_c, 1, 90, 0
2, 27160, Note_off_c, 1, 93, 0
2, 27200, Note_on_c, 1, 66, 127
2, 27200, Note_on_c, 1, 90, 127
2, 27200, Note_on_c, 1, 93, 127
2, 27320, Note_off_c, 1, 66, 0
2, 27320, Note_off_c, 1, 90, 0
2, 27320, Note_off_c, 1, 93, 0
2, 27360, Note_on_c, 1, 67, 127
2, 27360, Note_on_c, 1, 88, 127
2, 27360, Note_on_c, 1, 91, 127
2, 27440, Note_off_c, 1, 67, 0
2, 27480, Note_on_c, 1, 71, 127
2, 27600, Note_off_c, 1, 71, 0
2, 27600, Note_off_c, 1, 88, 0
2, 27600, Note_off_c, 1, 91, 0
2, 27640, Note_on_c, 1, 64, 127
2, 27640, Note_on_c, 1, 90, 127
2, 27640, Note_on_c, 1, 93, 127
2, 27760, Note_off_c, 1, 64, 0
2, 27800, Note_on_c, 1, 66, 127
2, 27880, Note_off_c, 1, 66, 0
2, 27880, Note_off_c, 1, 90, 0
2, 27880, Note_off_c, 1, 93, 0
2, 27920, Note_on_c, 1, 68, 127
2, 27920, Note_on_c, 1, 76, 127
2, 27920, Note_on_c, 1, 85, 127
2, 27920, Note_on_c, 1, 88, 127
2, 28040, Note_off_c, 1, 68, 0
2, 28040, Note_off_c, 1, 76, 0
2, 28040, Note_off_c, 1, 85, 0
2, 28040, Note_off_c, 1, 88, 0
2, 28080, Note_on_c, 1, 68, 127
2, 28080, Note_on_c, 1, 76, 127
2, 28080, Note_on_c, 1, 85, 127
2, 28080, Note_on_c, 1, 88, 127
2, 28200, Note_off_c, 1, 68, 0
2, 28200, Note_off_c, 1, 76, 0
2, 28200, Note_off_c, 1, 85, 0
2, 28200, Note_off_c, 1, 88, 0
2, 28240, Note_on_c, 1, 61, 127
2, 28240, Note_on_c, 1, 79, 127
2, 28240, Note_on_c, 1, 88, 127
2, 28240, Note_on_c, 1, 91, 127
2, 28360, Note_off_c, 1, 61, 0
2, 28400, Note_on_c, 1, 57, 127
2, 28480, Note_off_c, 1, 57, 0
2, 28520, Note_on_c, 1, 61, 127
2, 28640, Note_off_c, 1, 61, 0
2, 28680, Note_on_c, 1, 48, 127
2, 28680, Note_on_c, 1, 76, 127
2, 28680, Note_off_c, 1, 79, 0
2, 28680, Note_on_c, 1, 82, 127
2, 28680, Note_on_c, 1, 84, 127
2, 28680, Note_off_c, 1, 91, 0
2, 28760, Note_off_c, 1, 48, 0
2, 28760, Note_off_c, 1, 76, 0
2, 28760, Note_off_c, 1, 82, 0
2, 28760, Note_off_c, 1, 84, 0
2, 28760, Note_off_c, 1, 88, 0
2, 28800, Note_on_c, 1, 56, 127
2, 28800, Note_on_c, 1, 66, 127
2, 28800, Note_on_c, 1, 68, 127
2, 28800, Note_on_c, 1, 83, 127
2, 28800, Note_on_c, 1, 87, 127
2, 28960, Note_on_c, 1, 78, 127
2, 28960, Note_off_c, 1, 83, 0
2, 28960, Note_on_c, 1, 85, 127
2, 28960, Note_off_c, 1, 87, 0
2, 29080, Note_off_c, 1, 56, 0
2, 29080, Note_off_c, 1, 66, 0
2, 29080, Note_off_c, 1, 68, 0
2, 29080, Note_off_c, 1, 78, 0
2, 29080, Note_off_c, 1, 85, 0
2, 29120, Note_on_c, 1, 57, 127
2, 29120, Note_on_c, 1, 66, 127
2, 29120, Note_on_c, 1, 69, 127
2, 29120, Note_on_c, 1, 87, 127
2, 29120, Note_on_c, 1, 90, 127
2, 29360, Note_off_c, 1, 87, 0
2, 29360, Note_off_c, 1, 90, 0
2, 29400, Note_on_c, 1, 85, 127
2, 29400, Note_on_c, 1, 88, 127
2, 29480, Note_off_c, 1, 85, 0
2, 29480, Note_off_c, 1, 88, 0
2, 29520, Note_on_c, 1, 85, 127
2, 29520, Note_on_c, 1, 88, 127
2, 29640, Note_off_c, 1, 57, 0
2, 29640, Note_off_c, 1, 66, 0
2, 29640, Note_off_c, 1, 69, 0
2, 29640, Note_off_c, 1, 85, 0
2, 29640, Note_off_c, 1, 88, 0
2, 29680, Note_on_c, 1, 57, 127
2, 29680, Note_on_c, 1, 66, 127
2, 29680, Note_on_c, 1, 69, 127
2, 29680, Note_on_c, 1, 83, 127
2, 29680, Note_on_c, 1, 87, 127
2, 29760, Note_off_c, 1, 57, 0
2, 29760, Note_off_c, 1, 66, 0
2, 29760, Note_off_c, 1, 69, 0
2, 29760, Note_off_c, 1, 83, 0
2, 29760, Note_off_c, 1, 87, 0
2, 29800, Note_on_c, 1, 58, 127
2, 29800, Note_on_c, 1, 66, 127
2, 29800, Note_on_c, 1, 70, 127
2, 29800, Note_on_c, 1, 78, 127
2, 29800, Note_on_c, 1, 85, 127
2, 29920, Note_off_c, 1, 58, 0
2, 29920, Note_off_c, 1, 66, 0
2, 29920, Note_off_c, 1, 70, 0
2, 29920, Note_off_c, 1, 78, 0
2, 29920, Note_off_c, 1, 85, 0
2, 29960, Note_on_c, 1, 55, 127
2, 29960, Note_on_c, 1, 62, 127
2, 29960, Note_on_c, 1, 79, 127
2, 29960, Note_on_c, 1, 83, 127
2, 29960, Note_on_c, 1, 91, 127
2, 30160, Note_off_c, 1, 55, 0
2, 30160, Note_off_c, 1, 62, 0
2, 30160, Note_off_c, 1, 79, 0
2, 30160, Note_off_c, 1, 83, 0
2, 30160, Note_off_c, 1, 91, 0
2, 30200, Note_on_c, 1, 55, 127
2, 30200, Note_on_c, 1, 62, 127
2, 30200, Note_on_c, 1, 79, 127
2, 30200, Note_on_c, 1, 83, 127
2, 30200, Note_on_c, 1, 91, 127
2, 30240, Note_off_c, 1, 55, 0
2, 30240, Note_off_c, 1, 62, 0
2, 30240, Note_off_c, 1, 79, 0
2, 30240, Note_on_c, 1, 80, 127
2, 30240, Note_on_c, 1, 88, 127
2, 30240, Note_off_c, 1, 91, 0
2, 30240, Note_on_c, 1, 92, 127
2, 30280, Note_on_c, 1, 51, 127
2, 30280, Note_on_c, 1, 58, 127
2, 30280, Note_on_c, 1, 65, 127
2, 30280, Note_on_c, 1, 68, 127
2, 30280, Note_on_c, 1, 72, 127
2, 30280, Note_off_c, 1, 80, 0
2, 30280, Note_off_c, 1, 83, 0
2, 30280, Note_off_c, 1, 88, 0
2, 30280, Note_off_c, 1, 92, 0
2, 30520, Note_off_c, 1, 51, 0
2, 30520, Note_off_c, 1, 58, 0
2, 30520, Note_off_c, 1, 65, 0
2, 30520, Note_off_c, 1, 68, 0
2, 30520, Note_off_c, 1, 72, 0
2, 30560, Note_on_c, 1, 39, 127
2, 30560, Note_on_c, 1, 43, 127
2, 30560, Note_on_c, 1, 51, 127
2, 30560, Note_on_c, 1, 60, 127
2, 30840, Note_off_c, 1, 39, 0
2, 30840, Note_off_c, 1, 43, 0
2, 30840, Note_off_c, 1, 51, 0
2, 30840, Note_off_c, 1, 60, 0
2, 30880, Note_on_c, 1, 49, 127
2, 30880, Note_on_c, 1, 56, 127
2, 30880, Note_on_c, 1, 64, 127
2, 30880, Note_on_c, 1, 75, 127
2, 30880, Note_on_c, 1, 76, 127
2, 31120, Note_on_c, 1, 44, 127
2, 31120, Note_off_c, 1, 49, 0
2, 31120, Note_off_c, 1, 56, 0
2, 31120, Note_off_c, 1, 64, 0
2, 31120, Note_off_c, 1, 75, 0
2, 31120, Note_off_c, 1, 76, 0
2, 31160, Note_off_c, 1, 44, 0
2, 31160, Note_on_c, 1, 72, 127
2, 31160, Note_on_c, 1, 77, 127
2, 31160, Note_on_c, 1, 81, 127
2, 31160, Note_on_c, 1, 85, 127
2, 31400, Note_off_c, 1, 72, 0
2, 31400, Note_off_c, 1, 77, 0
2, 31400, Note_off_c, 1, 81, 0
2, 31400, Note_off_c, 1, 85, 0
2, 31440, Note_on_c, 1, 60, 127
2, 31440, Note_on_c, 1, 64, 127
2, 31440, Note_on_c, 1, 67, 127
2, 31680, Note_off_c, 1, 60, 0
2, 31680, Note_off_c, 1, 64, 0
2, 31680, Note_off_c, 1, 67, 0
2, 31720, Note_on_c, 1, 61, 127
2, 31720, Note_on_c, 1, 64, 127
2, 31720, Note_on_c, 1, 82, 127
2, 31960, Note_off_c, 1, 61, 0
2, 31960, Note_off_c, 1, 64, 0
2, 31960, Note_off_c, 1, 82, 0
2, 32000, Note_on_c, 1, 56, 127
2, 32000, Note_on_c, 1, 68, 127
2, 32000, Note_on_c, 1, 76, 127
2, 32000, Note_on_c, 1, 78, 127
2, 32040, Note_off_c, 1, 56, 0
2, 32040, Note_off_c, 1, 68, 0
2, 32040, Note_off_c, 1, 76, 0
2, 32040, Note_off_c, 1, 78, 0
2, 32080, Note_on_c, 1, 54, 127
2, 32080, Note_on_c, 1, 60, 127
2, 32080, Note_on_c, 1, 62, 127
2, 32080, Note_on_c, 1, 68, 127
2, 32120, Note_on_c, 1, 53, 127
2, 32120, Note_off_c, 1, 54, 0
2, 32120, Note_off_c, 1, 62, 0
2, 32120, Note_off_c, 1, 68, 0
2, 32120, Note_on_c, 1, 80, 127
2, 32160, Note_off_c, 1, 53, 0
2, 32160, Note_on_c, 1, 56, 127
2, 32160, Note_off_c, 1, 60, 0
2, 32160, Note_on_c, 1, 61, 127
2, 32160, Note_on_c, 1, 68, 127
2, 32160, Note_on_c, 1, 76, 127
2, 32160, Note_off_c, 1, 80, 0
2, 32200, Note_off_c, 1, 61, 0
2, 32200, Note_off_c, 1, 76, 0
2, 32200, Note_on_c, 1, 79, 127
2, 32240, Note_on_c, 1, 53, 127
2, 32240, Note_off_c, 1, 56, 0
2, 32240, Note_on_c, 1, 60, 127
2, 32240, Note_off_c, 1, 68, 0
2, 32240, Note_off_c, 1, 79, 0
2, 32240, Note_on_c, 1, 80, 127
2, 32280, Note_off_c, 1, 53, 0
2, 32280, Note_off_c, 1, 60, 0
2, 32280, Note_on_c, 1, 81, 127
2, 32320, Note_on_c, 1, 52, 127
2, 32320, Note_on_c, 1, 64, 127
2, 32320, Note_on_c, 1, 69, 127
2, 32320, Note_on_c, 1, 72, 127
2, 32320, Note_off_c, 1, 80, 0
2, 32360, Note_off_c, 1, 52, 0
2, 32360, Note_on_c, 1, 60, 127
2, 32360, Note_off_c, 1, 64, 0
2, 32360, Note_off_c, 1, 69, 0
2, 32360, Note_off_c, 1, 81, 0
2, 32360, Note_on_c, 1, 83, 127
2, 32400, Note_on_c, 1, 52, 127
2, 32400, Note_off_c, 1, 60, 0
2, 32400, Note_on_c, 1, 64, 127
2, 32400, Note_on_c, 1, 69, 127
2, 32400, Note_on_c, 1, 81, 127
2, 32400, Note_off_c, 1, 83, 0
2, 32440, Note_on_c, 1, 57, 127
2, 32440, Note_on_c, 1, 59, 127
2, 32440, Note_on_c, 1, 63, 127
2, 32440, Note_off_c, 1, 64, 0
2, 32440, Note_off_c, 1, 69, 0
2, 32440, Note_off_c, 1, 72, 0
2, 32440, Note_off_c, 1, 81, 0
2, 32480, Note_off_c, 1, 57, 0
2, 32480, Note_off_c, 1, 59, 0
2, 32480, Note_off_c, 1, 63, 0
2, 32480, Note_on_c, 1, 64, 127
2, 32480, Note_on_c, 1, 69, 127
2, 32480, Note_on_c, 1, 72, 127
2, 32480, Note_on_c, 1, 81, 127
2, 32560, Note_off_c, 1, 52, 0
2, 32560, Note_off_c, 1, 64, 0
2, 32560, Note_off_c, 1, 69, 0
2, 32560, Note_off_c, 1, 72, 0
2, 32560, Note_off_c, 1, 81, 0
2, 32560, Note_on_c, 1, 105, 127
2, 32600, Note_on_c, 1, 65, 127
2, 32600, Note_on_c, 1, 70, 127
2, 32600, Note_on_c, 1, 92, 127
2, 32600, Note_off_c, 1, 105, 0
2, 32760, Note_on_c, 1, 80, 127
2, 32760, Note_on_c, 1, 82, 127
2, 32760, Note_on_c, 1, 86, 127
2, 32840, Note_off_c, 1, 80, 0
2, 32840, Note_off_c, 1, 82, 0
2, 32840, Note_off_c, 1, 86, 0
2, 32880, Note_on_c, 1, 59, 127
2, 32880, Note_off_c, 1, 65, 0
2, 32880, Note_off_c, 1, 70, 0
2, 32880, Note_on_c, 1, 76, 127
2, 32880, Note_on_c, 1, 84, 127
2, 32880, Note_off_c, 1, 92, 0
2, 33120, Note_off_c, 1, 59, 0
2, 33120, Note_off_c, 1, 76, 0
2, 33120, Note_off_c, 1, 84, 0
2, 33160, Note_on_c, 1, 59, 127
2, 33160, Note_on_c, 1, 76, 127
2, 33160, Note_on_c, 1, 84, 127
2, 33400, Note_off_c, 1, 59, 0
2, 33440, Note_on_c, 1, 58, 127
2, 33440, Note_on_c, 1, 61, 127
2, 33440, Note_on_c, 1, 65, 127
2, 33440, Note_on_c, 1, 70, 127
2, 33440, Note_on_c, 1, 73, 127
2, 33440, Note_off_c, 1, 76, 0
2, 33440, Note_on_c, 1, 77, 127
2, 33440, Note_on_c, 1, 82, 127
2, 33440, Note_off_c, 1, 84, 0
2, 33640, Note_off_c, 1, 58, 0
2, 33640, Note_off_c, 1, 61, 0
2, 33640, Note_off_c, 1, 65, 0
2, 33640, Note_off_c, 1, 70, 0
2, 33640, Note_off_c, 1, 73, 0
2, 33640, Note_off_c, 1, 77, 0
2, 33640, Note_off_c, 1, 82, 0
2, 33680, Note_on_c, 1, 75, 127
2, 33680, Note_on_c, 1, 84, 127
2, 33680, Note_on_c, 1, 87, 127
2, 33720, Note_on_c, 1, 42, 127
2, 33720, Note_on_c, 1, 50, 127
2, 33720, Note_on_c, 1, 54, 127
2, 33720, Note_on_c, 1, 74, 127
2, 33720, Note_off_c, 1, 75, 0
2, 33720, Note_on_c, 1, 83, 127
2, 33720, Note_off_c, 1, 84, 0
2, 33720, Note_on_c, 1, 86, 127
2, 33720, Note_off_c, 1, 87, 0
2, 33960, Note_off_c, 1, 42, 0
2, 33960, Note_off_c, 1, 50, 0
2, 33960, Note_off_c, 1, 54, 0
2, 34000, Note_on_c, 1, 58, 127
2, 34000, Note_on_c, 1, 68, 127
2, 34000, Note_off_c, 1, 74, 0
2, 34000, Note_off_c, 1, 83, 0
2, 34000, Note_off_c, 1, 86, 0
2, 34000, Note_on_c, 1, 94, 127
2, 34000, Note_on_c, 1, 101, 127
2, 34040, Note_on_c, 1, 50, 127
2, 34040, Note_on_c, 1, 57, 127
2, 34040, Note_off_c, 1, 58, 0
2, 34040, Note_on_c, 1, 60, 127
2, 34040, Note_on_c, 1, 62, 127
2, 34040, Note_off_c, 1, 68, 0
2, 34040, Note_on_c, 1, 86, 127
2, 34040, Note_off_c, 1, 94, 0
2, 34040, Note_off_c, 1, 101, 0
2, 34160, Note_off_c, 1, 50, 0
2, 34160, Note_off_c, 1, 57, 0
2, 34160, Note_off_c, 1, 60, 0
2, 34160, Note_off_c, 1, 62, 0
2, 34160, Note_off_c, 1, 86, 0
2, 34200, Note_on_c, 1, 50, 127
2, 34200, Note_on_c, 1, 57, 127
2, 34200, Note_on_c, 1, 60, 127
2, 34200, Note_on_c, 1, 62, 127
2, 34200, Note_on_c, 1, 86, 127
2, 34280, Note_off_c, 1, 50, 0
2, 34280, Note_off_c, 1, 57, 0
2, 34280, Note_off_c, 1, 60, 0
2, 34280, Note_off_c, 1, 62, 0
2, 34280, Note_off_c, 1, 86, 0
2, 34320, Note_on_c, 1, 60, 127
2, 34320, Note_on_c, 1, 72, 127
2, 34320, Note_on_c, 1, 92, 127
2, 34320, Note_on_c, 1, 101, 127
2, 34360, Note_on_c, 1, 51, 127
2, 34360, Note_off_c, 1, 60, 0
2, 34360, Note_on_c, 1, 63, 127
2, 34360, Note_off_c, 1, 72, 0
2, 34360, Note_on_c, 1, 90, 127
2, 34360, Note_off_c, 1, 92, 0
2, 34360, Note_on_c, 1, 96, 127
2, 34360, Note_off_c, 1, 101, 0
2, 34400, Note_off_c, 1, 51, 0
2, 34400, Note_off_c, 1, 63, 0
2, 34400, Note_off_c, 1, 90, 0
2, 34400, Note_off_c, 1, 96, 0
2, 34400, Note_on_c, 1, 104, 127
2, 34480, Note_on_c, 1, 47, 127
2, 34480, Note_on_c, 1, 77, 127
2, 34480, Note_on_c, 1, 91, 127
2, 34480, Note_off_c, 1, 104, 0
2, 34520, Note_on_c, 1, 35, 127
2, 34520, Note_off_c, 1, 47, 0
2, 34520, Note_on_c, 1, 54, 127
2, 34520, Note_on_c, 1, 59, 127
2, 34520, Note_on_c, 1, 64, 127
2, 34520, Note_on_c, 1, 68, 127
2, 34520, Note_on_c, 1, 71, 127
2, 34520, Note_off_c, 1, 77, 0
2, 34520, Note_off_c, 1, 91, 0
2, 34560, Note_off_c, 1, 35, 0
2, 34560, Note_off_c, 1, 54, 0
2, 34560, Note_off_c, 1, 59, 0
2, 34560, Note_off_c, 1, 64, 0
2, 34560, Note_off_c, 1, 68, 0
2, 34560, Note_off_c, 1, 71, 0
2, 34600, Note_on_c, 1, 37, 127
2, 34600, Note_on_c, 1, 44, 127
2, 34600, Note_on_c, 1, 89, 127
2, 34600, Note_on_c, 1, 92, 127
2, 34640, Note_off_c, 1, 37, 0
2, 34640, Note_off_c, 1, 44, 0
2, 34640, Note_on_c, 1, 64, 127
2, 34640, Note_on_c, 1, 69, 127
2, 34640, Note_on_c, 1, 72, 127
2, 34640, Note_on_c, 1, 77, 127
2, 34640, Note_on_c, 1, 84, 127
2, 34640, Note_off_c, 1, 89, 0
2, 34640, Note_off_c, 1, 92, 0
2, 34680, Note_on_c, 1, 37, 127
2, 34680, Note_on_c, 1, 44, 127
2, 34680, Note_off_c, 1, 64, 0
2, 34680, Note_off_c, 1, 69, 0
2, 34680, Note_off_c, 1, 72, 0
2, 34680, Note_off_c, 1, 77, 0
2, 34680, Note_off_c, 1, 84, 0
2, 34680, Note_on_c, 1, 89, 127
2, 34680, Note_on_c, 1, 92, 127
2, 34720, Note_off_c, 1, 44, 0
2, 34760, Note_on_c, 1, 44, 127
2, 34800, Note_off_c, 1, 44, 0
2, 34800, Note_on_c, 1, 61, 127
2, 34840, Note_off_c, 1, 37, 0
2, 34840, Note_off_c, 1, 61, 0
2, 34840, Note_off_c, 1, 89, 0
2, 34840, Note_off_c, 1, 92, 0
2, 34880, Note_on_c, 1, 37, 127
2, 34880, Note_on_c, 1, 49, 127
2, 34880, Note_on_c, 1, 61, 127
2, 34880, Note_on_c, 1, 73, 127
2, 34880, Note_on_c, 1, 81, 127
2, 34880, Note_on_c, 1, 93, 127
2, 35120, Note_off_c, 1, 37, 0
2, 35120, Note_off_c, 1, 49, 0
2, 35120, Note_off_c, 1, 61, 0
2, 35120, Note_off_c, 1, 73, 0
2, 35120, Note_off_c, 1, 81, 0
2, 35120, Note_off_c, 1, 93, 0
2, 35160, Note_on_c, 1, 37, 127
2, 35160, Note_on_c, 1, 49, 127
2, 35160, Note_on_c, 1, 66, 127
2, 35160, Note_on_c, 1, 69, 127
2, 35160, Note_on_c, 1, 81, 127
2, 35160, Note_on_c, 1, 93, 127
2, 35400, Note_off_c, 1, 37, 0
2, 35400, Note_off_c, 1, 49, 0
2, 35400, Note_off_c, 1, 66, 0
2, 35400, Note_off_c, 1, 69, 0
2, 35400, Note_off_c, 1, 81, 0
2, 35400, Note_off_c, 1, 93, 0
2, 35440, Note_on_c, 1, 36, 127
2, 35440, Note_on_c, 1, 48, 127
2, 35440, Note_on_c, 1, 81, 127
2, 35440, Note_on_c, 1, 93, 127
2, 35680, Note_off_c, 1, 36, 0
2, 35680, Note_off_c, 1, 48, 0
2, 35680, Note_off_c, 1, 81, 0
2, 35680, Note_off_c, 1, 93, 0
2, 35720, Note_on_c, 1, 61, 127
2, 35720, Note_on_c, 1, 68, 127
2, 35720, Note_on_c, 1, 71, 127
2, 35720, Note_on_c, 1, 77, 127
2, 35720, Note_on_c, 1, 83, 127
2, 35960, Note_off_c, 1, 61, 0
2, 35960, Note_off_c, 1, 68, 0
2, 35960, Note_off_c, 1, 71, 0
2, 35960, Note_off_c, 1, 77, 0
2, 35960, Note_off_c, 1, 83, 0
2, 36000, Note_on_c, 1, 54, 127
2, 36000, Note_on_c, 1, 62, 127
2, 36000, Note_on_c, 1, 65, 127
2, 36000, Note_on_c, 1, 71, 127
2, 36240, Note_off_c, 1, 54, 0
2, 36240, Note_off_c, 1, 62, 0
2, 36240, Note_off_c, 1, 65, 0
2, 36240, Note_off_c, 1, 71, 0
2, 36280, Note_on_c, 1, 43, 127
2, 36280, Note_on_c, 1, 55, 127
2, 36280, Note_on_c, 1, 62, 127
2, 36280, Note_on_c, 1, 67, 127
2, 36280, Note_on_c, 1, 71, 127
2, 36400, Note_off_c, 1, 43, 0
2, 36400, Note_off_c, 1, 55, 0
2, 36400, Note_off_c, 1, 62, 0
2, 36400, Note_off_c, 1, 67, 0
2, 36400, Note_off_c, 1, 71, 0
2, 36440, Note_on_c, 1, 43, 127
2, 36440, Note_on_c, 1, 55, 127
2, 36440, Note_on_c, 1, 62, 127
2, 36440, Note_on_c, 1, 67, 127
2, 36440, Note_on_c, 1, 71, 127
2, 36560, Note_off_c, 1, 43, 0
2, 36560, Note_off_c, 1, 55, 0
2, 36560, Note_off_c, 1, 62, 0
2, 36560, Note_off_c, 1, 67, 0
2, 36560, Note_off_c, 1, 71, 0
2, 36600, Note_on_c, 1, 45, 127
2, 36600, Note_on_c, 1, 57, 127
2, 36600, Note_on_c, 1, 64, 127
2, 36600, Note_on_c, 1, 67, 127
2, 36600, Note_on_c, 1, 72, 127
2, 36840, Note_off_c, 1, 45, 0
2, 36840, Note_off_c, 1, 57, 0
2, 36840, Note_off_c, 1, 64, 0
2, 36840, Note_off_c, 1, 67, 0
2, 36840, Note_off_c, 1, 72, 0
2, 36880, Note_on_c, 1, 45, 127
2, 36880, Note_on_c, 1, 57, 127
2, 36880, Note_on_c, 1, 64, 127
2, 36880, Note_on_c, 1, 67, 127
2, 36880, Note_on_c, 1, 72, 127
2, 37120, Note_off_c, 1, 45, 0
2, 37120, Note_off_c, 1, 57, 0
2, 37120, Note_off_c, 1, 64, 0
2, 37120, Note_off_c, 1, 67, 0
2, 37120, Note_off_c, 1, 72, 0
2, 37160, Note_on_c, 1, 48, 127
2, 37160, Note_on_c, 1, 58, 127
2, 37160, Note_on_c, 1, 60, 127
2, 37160, Note_on_c, 1, 79, 127
2, 37160, Note_on_c, 1, 84, 127
2, 37160, Note_on_c, 1, 88, 127
2, 37160, Note_on_c, 1, 91, 127
2, 37400, Note_off_c, 1, 48, 0
2, 37400, Note_off_c, 1, 58, 0
2, 37400, Note_off_c, 1, 60, 0
2, 37400, Note_off_c, 1, 79, 0
2, 37400, Note_off_c, 1, 84, 0
2, 37400, Note_off_c, 1, 88, 0
2, 37400, Note_off_c, 1, 91, 0
2, 37440, Note_on_c, 1, 38, 127
2, 37440, Note_on_c, 1, 50, 127
2, 37440, Note_on_c, 1, 70, 127
2, 37440, Note_on_c, 1, 74, 127
2, 37440, Note_on_c, 1, 78, 127
2, 37440, Note_on_c, 1, 82, 127
2, 37680, Note_off_c, 1, 38, 0
2, 37680, Note_off_c, 1, 50, 0
2, 37680, Note_off_c, 1, 70, 0
2, 37680, Note_off_c, 1, 74, 0
2, 37680, Note_off_c, 1, 78, 0
2, 37680, Note_off_c, 1, 82, 0
2, 37720, Note_on_c, 1, 38, 127
2, 37720, Note_on_c, 1, 50, 127
2, 37720, Note_on_c, 1, 70, 127
2, 37720, Note_on_c, 1, 74, 127
2, 37720, Note_on_c, 1, 78, 127
2, 37720, Note_on_c, 1, 82, 127
2, 37960, Note_off_c, 1, 38, 0
2, 37960, Note_off_c, 1, 50, 0
2, 37960, Note_off_c, 1, 70, 0
2, 37960, Note_off_c, 1, 74, 0
2, 37960, Note_off_c, 1, 78, 0
2, 37960, Note_off_c, 1, 82, 0
2, 38000, Note_on_c, 1, 38, 127
2, 38000, Note_on_c, 1, 43, 127
2, 38000, Note_on_c, 1, 50, 127
2, 38000, Note_on_c, 1, 55, 127
2, 38000, Note_on_c, 1, 59, 127
2, 38000, Note_on_c, 1, 62, 127
2, 38360, Note_off_c, 1, 62, 0
2, 38400, Note_on_c, 1, 62, 127
2, 38440, Note_off_c, 1, 38, 0
2, 38440, Note_off_c, 1, 43, 0
2, 38440, Note_off_c, 1, 50, 0
2, 38440, Note_off_c, 1, 55, 0
2, 38440, Note_off_c, 1, 59, 0
2, 38440, Note_off_c, 1, 62, 0
2, 38480, Note_on_c, 1, 38, 127
2, 38480, Note_on_c, 1, 43, 127
2, 38480, Note_on_c, 1, 50, 127
2, 38480, Note_on_c, 1, 55, 127
2, 38480, Note_on_c, 1, 59, 127
2, 38480, Note_on_c, 1, 62, 127
2, 38560, Note_off_c, 1, 38, 0
2, 38560, Note_off_c, 1, 43, 0
2, 38560, Note_off_c, 1, 50, 0
2, 38560, Note_off_c, 1, 55, 0
2, 38560, Note_off_c, 1, 59, 0
2, 38560, Note_off_c, 1, 62, 0
2, 38600, Note_on_c, 1, 38, 127
2, 38600, Note_on_c, 1, 43, 127
2, 38600, Note_on_c, 1, 50, 127
2, 38600, Note_on_c, 1, 55, 127
2, 38600, Note_on_c, 1, 59, 127
2, 38600, Note_on_c, 1, 62, 127
2, 38760, Note_off_c, 1, 62, 0
2, 38800, Note_on_c, 1, 62, 127
2, 38960, Note_off_c, 1, 59, 0
2, 38960, Note_off_c, 1, 62, 0
2, 39000, Note_on_c, 1, 59, 127
2, 39000, Note_on_c, 1, 62, 127
2, 39080, Note_off_c, 1, 59, 0
2, 39080, Note_off_c, 1, 62, 0
2, 39120, Note_off_c, 1, 38, 0
2, 39120, Note_off_c, 1, 43, 0
2, 39120, Note_off_c, 1, 50, 0
2, 39120, Note_off_c, 1, 55, 0
2, 39160, Note_on_c, 1, 52, 127
2, 39160, Note_on_c, 1, 64, 127
2, 39160, Note_on_c, 1, 67, 127
2, 39160, Note_on_c, 1, 73, 127
2, 39160, Note_on_c, 1, 79, 127
2, 39200, Note_off_c, 1, 52, 0
2, 39200, Note_on_c, 1, 59, 127
2, 39200, Note_on_c, 1, 62, 127
2, 39200, Note_off_c, 1, 64, 0
2, 39200, Note_on_c, 1, 65, 127
2, 39200, Note_on_c, 1, 66, 127
2, 39200, Note_off_c, 1, 67, 0
2, 39200, Note_off_c, 1, 73, 0
2, 39200, Note_on_c, 1, 74, 127
2, 39200, Note_on_c, 1, 77, 127
2, 39200, Note_on_c, 1, 78, 127
2, 39200, Note_off_c, 1, 79, 0
2, 39240, Note_off_c, 1, 59, 0
2, 39240, Note_on_c, 1, 60, 127
2, 39240, Note_off_c, 1, 62, 0
2, 39240, Note_off_c, 1, 65, 0
2, 39240, Note_off_c, 1, 66, 0
2, 39240, Note_on_c, 1, 71, 127
2, 39240, Note_off_c, 1, 74, 0
2, 39240, Note_off_c, 1, 77, 0
2, 39240, Note_off_c, 1, 78, 0
2, 39240, Note_on_c, 1, 79, 127
2, 39240, Note_on_c, 1, 83, 127
2, 39280, Note_on_c, 1, 59, 127
2, 39280, Note_off_c, 1, 60, 0
2, 39280, Note_on_c, 1, 62, 127
2, 39280, Note_on_c, 1, 65, 127
2, 39280, Note_on_c, 1, 66, 127
2, 39280, Note_off_c, 1, 71, 0
2, 39280, Note_on_c, 1, 74, 127
2, 39280, Note_on_c, 1, 77, 127
2, 39280, Note_on_c, 1, 78, 127
2, 39280, Note_off_c, 1, 79, 0
2, 39280, Note_off_c, 1, 83, 0
2, 39360, Note_on_c, 1, 57, 127
2, 39360, Note_off_c, 1, 59, 0
2, 39360, Note_on_c, 1, 60, 127
2, 39360, Note_off_c, 1, 62, 0
2, 39360, Note_on_c, 1, 63, 127
2, 39360, Note_off_c, 1, 65, 0
2, 39360, Note_off_c, 1, 66, 0
2, 39360, Note_on_c, 1, 72, 127
2, 39360, Note_off_c, 1, 74, 0
2, 39360, Note_off_c, 1, 77, 0
2, 39400, Note_on_c, 1, 29, 127
2, 39400, Note_on_c, 1, 41, 127
2, 39400, Note_on_c, 1, 51, 127
2, 39400, Note_on_c, 1, 59, 127
2, 39400, Note_off_c, 1, 60, 0
2, 39400, Note_off_c, 1, 63, 0
2, 39400, Note_off_c, 1, 72, 0
2, 39400, Note_off_c, 1, 78, 0
2, 39440, Note_off_c, 1, 29, 0
2, 39440, Note_off_c, 1, 41, 0
2, 39440, Note_on_c, 1, 42, 127
2, 39440, Note_on_c, 1, 54, 127
2, 39440, Note_off_c, 1, 57, 0
2, 39440, Note_off_c, 1, 59, 0
2, 39440, Note_on_c, 1, 60, 127
2, 39440, Note_on_c, 1, 66, 127
2, 39440, Note_on_c, 1, 69, 127
2, 39440, Note_on_c, 1, 72, 127
2, 39480, Note_on_c, 1, 29, 127
2, 39480, Note_on_c, 1, 41, 127
2, 39480, Note_off_c, 1, 42, 0
2, 39480, Note_off_c, 1, 54, 0
2, 39480, Note_on_c, 1, 57, 127
2, 39480, Note_on_c, 1, 59, 127
2, 39480, Note_off_c, 1, 60, 0
2, 39480, Note_off_c, 1, 66, 0
2, 39480, Note_off_c, 1, 69, 0
2, 39480, Note_off_c, 1, 72, 0
2, 39520, Note_off_c, 1, 29, 0
2, 39520, Note_off_c, 1, 41, 0
2, 39520, Note_on_c, 1, 47, 127
2, 39520, Note_off_c, 1, 51, 0
2, 39520, Note_on_c, 1, 56, 127
2, 39520, Note_off_c, 1, 57, 0
2, 39520, Note_off_c, 1, 59, 0
2, 39520, Note_on_c, 1, 65, 127
2, 39520, Note_on_c, 1, 68, 127
2, 39520, Note_on_c, 1, 77, 127
2, 39560, Note_on_c, 1, 35, 127
2, 39560, Note_on_c, 1, 42, 127
2, 39560, Note_on_c, 1, 45, 127
2, 39560, Note_on_c, 1, 51, 127
2, 39560, Note_off_c, 1, 56, 0
2, 39560, Note_on_c, 1, 59, 127
2, 39560, Note_on_c, 1, 63, 127
2, 39560, Note_off_c, 1, 65, 0
2, 39560, Note_off_c, 1, 68, 0
2, 39560, Note_off_c, 1, 77, 0
2, 39600, Note_off_c, 1, 35, 0
2, 39600, Note_off_c, 1, 42, 0
2, 39600, Note_off_c, 1, 45, 0
2, 39600, Note_off_c, 1, 47, 0
2, 39600, Note_off_c, 1, 51, 0
2, 39600, Note_off_c, 1, 59, 0
2, 39600, Note_on_c, 1, 60, 127
2, 39600, Note_off_c, 1, 63, 0
2, 39600, Note_on_c, 1, 65, 127
2, 39600, Note_on_c, 1, 89, 127
2, 39600, Note_on_c, 1, 96, 127
2, 39640, Note_off_c, 1, 60, 0
2, 39640, Note_off_c, 1, 65, 0
2, 39640, Note_off_c, 1, 89, 0
2, 39640, Note_off_c, 1, 96, 0
2, 39680, Note_on_c, 1, 39, 127
2, 39680, Note_on_c, 1, 51, 127
2, 39680, Note_on_c, 1, 71, 127
2, 39680, Note_on_c, 1, 78, 127
2, 39720, Note_off_c, 1, 71, 0
2, 39760, Note_on_c, 1, 70, 127
2, 39840, Note_off_c, 1, 70, 0
2, 39840, Note_on_c, 1, 71, 127
2, 39880, Note_on_c, 1, 70, 127
2, 39880, Note_off_c, 1, 71, 0
2, 39920, Note_off_c, 1, 70, 0
2, 39960, Note_off_c, 1, 39, 0
2, 39960, Note_on_c, 1, 40, 127
2, 39960, Note_on_c, 1, 43, 127
2, 39960, Note_on_c, 1, 46, 127
2, 39960, Note_on_c, 1, 49, 127
2, 39960, Note_off_c, 1, 51, 0
2, 39960, Note_on_c, 1, 52, 127
2, 39960, Note_off_c, 1, 78, 0
2, 39960, Note_on_c, 1, 85, 127
2, 39960, Note_on_c, 1, 88, 127
2, 39960, Note_on_c, 1, 91, 127
2, 39960, Note_on_c, 1, 94, 127
2, 39960, Note_on_c, 1, 97, 127
2, 40200, Note_off_c, 1, 40, 0
2, 40200, Note_off_c, 1, 43, 0
2, 40200, Note_off_c, 1, 46, 0
2, 40200, Note_off_c, 1, 49, 0
2, 40200, Note_off_c, 1, 52, 0
2, 40200, Note_off_c, 1, 85, 0
2, 40200, Note_off_c, 1, 88, 0
2, 40200, Note_off_c, 1, 91, 0
2, 40200, Note_off_c, 1, 94, 0
2, 40200, Note_off_c, 1, 97, 0
2, 40240, Note_on_c, 1, 41, 127
2, 40240, Note_on_c, 1, 53, 127
2, 40240, Note_on_c, 1, 56, 127
2, 40240, Note_on_c, 1, 63, 127
2, 40240, Note_on_c, 1, 68, 127
2, 40320, Note_off_c, 1, 41, 0
2, 40320, Note_on_c, 1, 43, 127
2, 40320, Note_on_c, 1, 51, 127
2, 40320, Note_off_c, 1, 53, 0
2, 40320, Note_on_c, 1, 55, 127
2, 40320, Note_off_c, 1, 56, 0
2, 40320, Note_on_c, 1, 58, 127
2, 40320, Note_off_c, 1, 68, 0
2, 40320, Note_on_c, 1, 70, 127
2, 40360, Note_off_c, 1, 43, 0
2, 40360, Note_off_c, 1, 51, 0
2, 40360, Note_off_c, 1, 55, 0
2, 40360, Note_off_c, 1, 58, 0
2, 40360, Note_off_c, 1, 63, 0
2, 40360, Note_off_c, 1, 70, 0
2, 40400, Note_on_c, 1, 48, 127
2, 40400, Note_on_c, 1, 58, 127
2, 40400, Note_on_c, 1, 65, 127
2, 40400, Note_on_c, 1, 67, 127
2, 40400, Note_on_c, 1, 69, 127
2, 40440, Note_on_c, 1, 41, 127
2, 40440, Note_off_c, 1, 48, 0
2, 40440, Note_on_c, 1, 53, 127
2, 40440, Note_on_c, 1, 56, 127
2, 40440, Note_off_c, 1, 58, 0
2, 40440, Note_on_c, 1, 63, 127
2, 40440, Note_off_c, 1, 65, 0
2, 40440, Note_off_c, 1, 67, 0
2, 40440, Note_on_c, 1, 68, 127
2, 40440, Note_off_c, 1, 69, 0
2, 40520, Note_off_c, 1, 41, 0
2, 40520, Note_off_c, 1, 53, 0
2, 40520, Note_off_c, 1, 56, 0
2, 40520, Note_off_c, 1, 63, 0
2, 40520, Note_off_c, 1, 68, 0
2, 40560, Note_on_c, 1, 41, 127
2, 40560, Note_on_c, 1, 53, 127
2, 40560, Note_on_c, 1, 56, 127
2, 40560, Note_on_c, 1, 63, 127
2, 40560, Note_on_c, 1, 68, 127
2, 40640, Note_off_c, 1, 41, 0
2, 40640, Note_on_c, 1, 51, 127
2, 40640, Note_off_c, 1, 53, 0
2, 40640, Note_on_c, 1, 60, 127
2, 40640, Note_off_c, 1, 63, 0
2, 40640, Note_off_c, 1, 68, 0
2, 40640, Note_on_c, 1, 74, 127
2, 40680, Note_on_c, 1, 41, 127
2, 40680, Note_off_c, 1, 51, 0
2, 40680, Note_on_c, 1, 53, 127
2, 40680, Note_off_c, 1, 60, 0
2, 40680, Note_on_c, 1, 63, 127
2, 40680, Note_on_c, 1, 68, 127
2, 40680, Note_off_c, 1, 74, 0
2, 40800, Note_off_c, 1, 41, 0
2, 40800, Note_off_c, 1, 53, 0
2, 40800, Note_off_c, 1, 56, 0
2, 40800, Note_off_c, 1, 63, 0
2, 40800, Note_off_c, 1, 68, 0
2, 40840, Note_on_c, 1, 41, 127
2, 40840, Note_on_c, 1, 53, 127
2, 40840, Note_on_c, 1, 56, 127
2, 40840, Note_on_c, 1, 63, 127
2, 40840, Note_on_c, 1, 68, 127
2, 40880, Note_off_c, 1, 41, 0
2, 40880, Note_off_c, 1, 53, 0
2, 40880, Note_off_c, 1, 56, 0
2, 40880, Note_off_c, 1, 63, 0
2, 40880, Note_off_c, 1, 68, 0
2, 40960, Note_on_c, 1, 43, 127
2, 40960, Note_on_c, 1, 51, 127
2, 40960, Note_on_c, 1, 55, 127
2, 40960, Note_on_c, 1, 58, 127
2, 40960, Note_on_c, 1, 63, 127
2, 40960, Note_on_c, 1, 70, 127
2, 41000, Note_off_c, 1, 43, 0
2, 41000, Note_off_c, 1, 51, 0
2, 41000, Note_off_c, 1, 55, 0
2, 41000, Note_off_c, 1, 58, 0
2, 41000, Note_off_c, 1, 63, 0
2, 41000, Note_off_c, 1, 70, 0
2, 41120, Note_on_c, 1, 44, 127
2, 41120, Note_on_c, 1, 51, 127
2, 41120, Note_on_c, 1, 56, 127
2, 41120, Note_on_c, 1, 60, 127
2, 41120, Note_on_c, 1, 63, 127
2, 41120, Note_on_c, 1, 72, 127
2, 41360, Note_off_c, 1, 44, 0
2, 41360, Note_off_c, 1, 51, 0
2, 41360, Note_off_c, 1, 56, 0
2, 41360, Note_off_c, 1, 60, 0
2, 41360, Note_off_c, 1, 63, 0
2, 41360, Note_off_c, 1, 72, 0
2, 41400, Note_on_c, 1, 49, 127
2, 41400, Note_on_c, 1, 56, 127
2, 41400, Note_on_c, 1, 59, 127
2, 41400, Note_on_c, 1, 63, 127
2, 41400, Note_on_c, 1, 68, 127
2, 41400, Note_on_c, 1, 75, 127
2, 41480, Note_on_c, 1, 71, 127
2, 41480, Note_off_c, 1, 75, 0
2, 41640, Note_off_c, 1, 49, 0
2, 41640, Note_off_c, 1, 56, 0
2, 41640, Note_off_c, 1, 59, 0
2, 41640, Note_off_c, 1, 63, 0
2, 41640, Note_off_c, 1, 68, 0
2, 41640, Note_off_c, 1, 71, 0
2, 41680, Note_on_c, 1, 37, 127
2, 41680, Note_on_c, 1, 49, 127
2, 41680, Note_on_c, 1, 71, 127
2, 41680, Note_on_c, 1, 77, 127
2, 41680, Note_on_c, 1, 83, 127
2, 41760, Note_off_c, 1, 37, 0
2, 41760, Note_off_c, 1, 49, 0
2, 41800, Note_on_c, 1, 41, 127
2, 41800, Note_on_c, 1, 53, 127
2, 41800, Note_off_c, 1, 71, 0
2, 41800, Note_off_c, 1, 77, 0
2, 41800, Note_off_c, 1, 83, 0
2, 41840, Note_on_c, 1, 37, 127
2, 41840, Note_off_c, 1, 41, 0
2, 41840, Note_on_c, 1, 49, 127
2, 41840, Note_off_c, 1, 53, 0
2, 41840, Note_on_c, 1, 71, 127
2, 41840, Note_on_c, 1, 77, 127
2, 41840, Note_on_c, 1, 83, 127
2, 41920, Note_off_c, 1, 37, 0
2, 41920, Note_off_c, 1, 49, 0
2, 41920, Note_off_c, 1, 71, 0
2, 41920, Note_off_c, 1, 77, 0
2, 41920, Note_off_c, 1, 83, 0
2, 41960, Note_on_c, 1, 37, 127
2, 41960, Note_on_c, 1, 49, 127
2, 41960, Note_on_c, 1, 71, 127
2, 41960, Note_on_c, 1, 77, 127
2, 41960, Note_on_c, 1, 83, 127
2, 42040, Note_off_c, 1, 37, 0
2, 42040, Note_off_c, 1, 49, 0
2, 42080, Note_on_c, 1, 37, 127
2, 42080, Note_on_c, 1, 49, 127
2, 42200, Note_off_c, 1, 37, 0
2, 42200, Note_off_c, 1, 49, 0
2, 42200, Note_off_c, 1, 71, 0
2, 42200, Note_off_c, 1, 77, 0
2, 42200, Note_off_c, 1, 83, 0
2, 42240, Note_on_c, 1, 39, 127
2, 42240, Note_on_c, 1, 49, 127
2, 42240, Note_on_c, 1, 55, 127
2, 42240, Note_on_c, 1, 64, 127
2, 42280, Note_on_c, 1, 34, 127
2, 42280, Note_off_c, 1, 39, 0
2, 42280, Note_on_c, 1, 46, 127
2, 42280, Note_off_c, 1, 49, 0
2, 42280, Note_off_c, 1, 55, 0
2, 42280, Note_on_c, 1, 56, 127
2, 42280, Note_off_c, 1, 64, 0
2, 42280, Note_on_c, 1, 75, 127
2, 42320, Note_off_c, 1, 34, 0
2, 42320, Note_off_c, 1, 46, 0
2, 42320, Note_on_c, 1, 54, 127
2, 42320, Note_off_c, 1, 56, 0
2, 42320, Note_on_c, 1, 61, 127
2, 42320, Note_on_c, 1, 70, 127
2, 42320, Note_off_c, 1, 75, 0
2, 42320, Note_on_c, 1, 78, 127
2, 42320, Note_on_c, 1, 85, 127
2, 42320, Note_on_c, 1, 90, 127
2, 42360, Note_on_c, 1, 51, 127
2, 42360, Note_off_c, 1, 54, 0
2, 42360, Note_on_c, 1, 60, 127
2, 42360, Note_off_c, 1, 61, 0
2, 42360, Note_on_c, 1, 63, 127
2, 42360, Note_on_c, 1, 69, 127
2, 42360, Note_off_c, 1, 70, 0
2, 42360, Note_on_c, 1, 75, 127
2, 42360, Note_off_c, 1, 78, 0
2, 42360, Note_off_c, 1, 85, 0
2, 42360, Note_off_c, 1, 90, 0
2, 42400, Note_off_c, 1, 51, 0
2, 42400, Note_off_c, 1, 60, 0
2, 42400, Note_off_c, 1, 63, 0
2, 42400, Note_off_c, 1, 69, 0
2, 42400, Note_off_c, 1, 75, 0
2, 42440, Note_on_c, 1, 49, 127
2, 42440, Note_on_c, 1, 53, 127
2, 42440, Note_on_c, 1, 58, 127
2, 42440, Note_on_c, 1, 59, 127
2, 42440, Note_on_c, 1, 70, 127
2, 42440, Note_on_c, 1, 73, 127
2, 42480, Note_on_c, 1, 33, 127
2, 42480, Note_on_c, 1, 45, 127
2, 42480, Note_off_c, 1, 49, 0
2, 42480, Note_off_c, 1, 53, 0
2, 42480, Note_off_c, 1, 58, 0
2, 42480, Note_off_c, 1, 59, 0
2, 42480, Note_off_c, 1, 70, 0
2, 42480, Note_off_c, 1, 73, 0
2, 42480, Note_on_c, 1, 76, 127
2, 42480, Note_on_c, 1, 81, 127
2, 42480, Note_on_c, 1, 85, 127
2, 42480, Note_on_c, 1, 88, 127
2, 42520, Note_off_c, 1, 33, 0
2, 42520, Note_off_c, 1, 45, 0
2, 42520, Note_off_c, 1, 76, 0
2, 42520, Note_off_c, 1, 81, 0
2, 42520, Note_off_c, 1, 85, 0
2, 42520, Note_off_c, 1, 88, 0
2, 42560, Note_on_c, 1, 63, 127
2, 42560, Note_on_c, 1, 66, 127
2, 42560, Note_on_c, 1, 72, 127
2, 42560, Note_on_c, 1, 81, 127
2, 42560, Note_on_c, 1, 84, 127
2, 42560, Note_on_c, 1, 92, 127
2, 42600, Note_on_c, 1, 42, 127
2, 42600, Note_on_c, 1, 62, 127
2, 42600, Note_off_c, 1, 63, 0
2, 42600, Note_off_c, 1, 66, 0
2, 42600, Note_on_c, 1, 71, 127
2, 42600, Note_off_c, 1, 72, 0
2, 42600, Note_off_c, 1, 81, 0
2, 42600, Note_on_c, 1, 83, 127
2, 42600, Note_off_c, 1, 84, 0
2, 42600, Note_off_c, 1, 92, 0
2, 42640, Note_on_c, 1, 36, 127
2, 42640, Note_off_c, 1, 42, 0
2, 42640, Note_on_c, 1, 43, 127
2, 42640, Note_off_c, 1, 71, 0
2, 42640, Note_off_c, 1, 83, 0
2, 42680, Note_off_c, 1, 36, 0
2, 42680, Note_off_c, 1, 43, 0
2, 42680, Note_on_c, 1, 49, 127
2, 42680, Note_off_c, 1, 62, 0
2, 42680, Note_on_c, 1, 68, 127
2, 42680, Note_on_c, 1, 72, 127
2, 42680, Note_on_c, 1, 78, 127
2, 42720, Note_on_c, 1, 43, 127
2, 42720, Note_off_c, 1, 49, 0
2, 42720, Note_on_c, 1, 51, 127
2, 42720, Note_on_c, 1, 55, 127
2, 42720, Note_off_c, 1, 68, 0
2, 42720, Note_off_c, 1, 72, 0
2, 42720, Note_on_c, 1, 75, 127
2, 42720, Note_off_c, 1, 78, 0
2, 42720, Note_on_c, 1, 82, 127
2, 42720, Note_on_c, 1, 87, 127
2, 42760, Note_off_c, 1, 43, 0
2, 42760, Note_off_c, 1, 51, 0
2, 42760, Note_on_c, 1, 61, 127
2, 42760, Note_on_c, 1, 64, 127
2, 42760, Note_off_c, 1, 75, 0
2, 42760, Note_off_c, 1, 82, 0
2, 42760, Note_off_c, 1, 87, 0
2, 42760, Note_on_c, 1, 100, 127
2, 42800, Note_off_c, 1, 55, 0
2, 42800, Note_off_c, 1, 61, 0
2, 42800, Note_off_c, 1, 64, 0
2, 42800, Note_off_c, 1, 100, 0
2, 42840, Note_on_c, 1, 44, 127
2, 42840, Note_on_c, 1, 58, 127
2, 42840, Note_on_c, 1, 70, 127
2, 43080, Note_off_c, 1, 58, 0
2, 43080, Note_off_c, 1, 70, 0
2, 43120, Note_on_c, 1, 49, 127
2, 43120, Note_on_c, 1, 53, 127
2, 43120, Note_on_c, 1, 65, 127
2, 43360, Note_off_c, 1, 49, 0
2, 43360, Note_off_c, 1, 53, 0
2, 43360, Note_off_c, 1, 65, 0
2, 43400, Note_off_c, 1, 44, 0
2, 43400, Note_on_c, 1, 49, 127
2, 43400, Note_on_c, 1, 70, 127
2, 43400, Note_on_c, 1, 73, 127
2, 43400, Note_on_c, 1, 78, 127
2, 43640, Note_off_c, 1, 49, 0
2, 43640, Note_off_c, 1, 70, 0
2, 43640, Note_off_c, 1, 73, 0
2, 43640, Note_off_c, 1, 78, 0
2, 43680, Note_on_c, 1, 68, 127
2, 43680, Note_on_c, 1, 70, 127
2, 43680, Note_on_c, 1, 72, 127
2, 43680, Note_on_c, 1, 75, 127
2, 43680, Note_on_c, 1, 82, 127
2, 43920, Note_on_c, 1, 44, 127
2, 43920, Note_off_c, 1, 68, 0
2, 43920, Note_off_c, 1, 70, 0
2, 43920, Note_off_c, 1, 72, 0
2, 43920, Note_off_c, 1, 75, 0
2, 43920, Note_on_c, 1, 76, 127
2, 43920, Note_off_c, 1, 82, 0
2, 43960, Note_off_c, 1, 44, 0
2, 43960, Note_on_c, 1, 68, 127
2, 43960, Note_on_c, 1, 70, 127
2, 43960, Note_on_c, 1, 72, 127
2, 43960, Note_on_c, 1, 75, 127
2, 43960, Note_off_c, 1, 76, 0
2, 43960, Note_on_c, 1, 82, 127
2, 44160, Note_on_c, 1, 43, 127
2, 44160, Note_on_c, 1, 55, 127
2, 44160, Note_on_c, 1, 63, 127
2, 44160, Note_off_c, 1, 68, 0
2, 44160, Note_off_c, 1, 72, 0
2, 44160, Note_on_c, 1, 73, 127
2, 44160, Note_off_c, 1, 75, 0
2, 44160, Note_off_c, 1, 82, 0
2, 44200, Note_off_c, 1, 43, 0
2, 44200, Note_off_c, 1, 55, 0
2, 44200, Note_off_c, 1, 63, 0
2, 44200, Note_off_c, 1, 70, 0
2, 44200, Note_off_c, 1, 73, 0
2, 44240, Note_on_c, 1, 52, 127
2, 44240, Note_on_c, 1, 64, 127
2, 44240, Note_on_c, 1, 68, 127
2, 44240, Note_on_c, 1, 76, 127
2, 44240, Note_on_c, 1, 83, 127
2, 44440, Note_off_c, 1, 52, 0
2, 44440, Note_off_c, 1, 64, 0
2, 44440, Note_off_c, 1, 68, 0
2, 44440, Note_off_c, 1, 76, 0
2, 44440, Note_off_c, 1, 83, 0
2, 44480, Note_on_c, 1, 52, 127
2, 44480, Note_on_c, 1, 64, 127
2, 44480, Note_on_c, 1, 68, 127
2, 44480, Note_on_c, 1, 76, 127
2, 44480, Note_on_c, 1, 83, 127
2, 44520, Note_off_c, 1, 52, 0
2, 44520, Note_on_c, 1, 59, 127
2, 44520, Note_off_c, 1, 64, 0
2, 44520, Note_off_c, 1, 68, 0
2, 44520, Note_off_c, 1, 76, 0
2, 44520, Note_on_c, 1, 92, 127
2, 44560, Note_on_c, 1, 52, 127
2, 44560, Note_off_c, 1, 59, 0
2, 44560, Note_on_c, 1, 64, 127
2, 44560, Note_on_c, 1, 68, 127
2, 44560, Note_on_c, 1, 76, 127
2, 44560, Note_on_c, 1, 82, 127
2, 44560, Note_off_c, 1, 83, 0
2, 44560, Note_off_c, 1, 92, 0
2, 44800, Note_off_c, 1, 52, 0
2, 44800, Note_off_c, 1, 64, 0
2, 44800, Note_off_c, 1, 68, 0
2, 44800, Note_off_c, 1, 76, 0
2, 44800, Note_off_c, 1, 82, 0
2, 44840, Note_on_c, 1, 51, 127
2, 44840, Note_on_c, 1, 63, 127
2, 44840, Note_on_c, 1, 70, 127
2, 44840, Note_on_c, 1, 75, 127
2, 44840, Note_on_c, 1, 78, 127
2, 45040, Note_off_c, 1, 51, 0
2, 45040, Note_off_c, 1, 63, 0
2, 45040, Note_off_c, 1, 70, 0
2, 45040, Note_off_c, 1, 75, 0
2, 45040, Note_off_c, 1, 78, 0
2, 45120, Note_on_c, 1, 58, 127
2, 45120, Note_on_c, 1, 62, 127
2, 45120, Note_on_c, 1, 65, 127
2, 45120, Note_on_c, 1, 72, 127
2, 45120, Note_on_c, 1, 77, 127
2, 45360, Note_off_c, 1, 72, 0
2, 45400, Note_on_c, 1, 72, 127
2, 45600, Note_off_c, 1, 72, 0
2, 45640, Note_on_c, 1, 39, 127
2, 45640, Note_on_c, 1, 46, 127
2, 45640, Note_off_c, 1, 58, 0
2, 45640, Note_off_c, 1, 62, 0
2, 45640, Note_off_c, 1, 65, 0
2, 45640, Note_on_c, 1, 75, 127
2, 45640, Note_off_c, 1, 77, 0
2, 45640, Note_on_c, 1, 79, 127
2, 45880, Note_off_c, 1, 39, 0
2, 45880, Note_off_c, 1, 46, 0
2, 45880, Note_off_c, 1, 75, 0
2, 45880, Note_off_c, 1, 79, 0
2, 45920, Note_on_c, 1, 39, 127
2, 45920, Note_on_c, 1, 46, 127
2, 45920, Note_on_c, 1, 75, 127
2, 45920, Note_on_c, 1, 79, 127
2, 46160, Note_off_c, 1, 39, 0
2, 46160, Note_off_c, 1, 46, 0
2, 46160, Note_off_c, 1, 75, 0
2, 46160, Note_off_c, 1, 79, 0
2, 46200, Note_on_c, 1, 49, 127
2, 46200, Note_on_c, 1, 56, 127
2, 46200, Note_on_c, 1, 64, 127
2, 46200, Note_on_c, 1, 71, 127
2, 46440, Note_off_c, 1, 49, 0
2, 46440, Note_off_c, 1, 56, 0
2, 46440, Note_off_c, 1, 64, 0
2, 46440, Note_off_c, 1, 71, 0
2, 46520, Note_on_c, 1, 36, 127
2, 46520, Note_on_c, 1, 44, 127
2, 46520, Note_on_c, 1, 48, 127
2, 46520, Note_on_c, 1, 63, 127
2, 46520, Note_on_c, 1, 75, 127
2, 46760, Note_off_c, 1, 63, 0
2, 46800, Note_on_c, 1, 66, 127
2, 47000, Note_off_c, 1, 66, 0
2, 47040, Note_off_c, 1, 36, 0
2, 47040, Note_on_c, 1, 42, 127
2, 47040, Note_off_c, 1, 44, 0
2, 47040, Note_on_c, 1, 51, 127
2, 47040, Note_on_c, 1, 56, 127
2, 47040, Note_off_c, 1, 75, 0
2, 47280, Note_off_c, 1, 42, 0
2, 47280, Note_off_c, 1, 48, 0
2, 47280, Note_off_c, 1, 51, 0
2, 47280, Note_off_c, 1, 56, 0
2, 47320, Note_on_c, 1, 42, 127
2, 47320, Note_on_c, 1, 48, 127
2, 47320, Note_on_c, 1, 51, 127
2, 47320, Note_on_c, 1, 56, 127
2, 48400, Note_off_c, 1, 42, 0
2, 48400, Note_on_c, 1, 44, 127
2, 48400, Note_off_c, 1, 48, 0
2, 48400, Note_off_c, 1, 56, 0
2, 48400, Note_on_c, 1, 60, 127
2, 48400, Note_on_c, 1, 63, 127
2, 48440, Note_on_c, 1, 42, 127
2, 48440, Note_off_c, 1, 44, 0
2, 48440, Note_on_c, 1, 48, 127
2, 48440, Note_on_c, 1, 56, 127
2, 48440, Note_off_c, 1, 60, 0
2, 48440, Note_off_c, 1, 63, 0
2, 48760, Note_off_c, 1, 42, 0
2, 48760, Note_off_c, 1, 48, 0
2, 48760, Note_off_c, 1, 51, 0
2, 48760, Note_off_c, 1, 56, 0
2, 48800, Note_on_c, 1, 42, 127
2, 48800, Note_on_c, 1, 48, 127
2, 48800, Note_on_c, 1, 51, 127
2, 48800, Note_on_c, 1, 56, 127
2, 49040, Note_off_c, 1, 42, 0
2, 49040, Note_off_c, 1, 48, 0
2, 49040, Note_off_c, 1, 51, 0
2, 49040, Note_off_c, 1, 56, 0
2, 49080, Note_on_c, 1, 75, 127
2, 49320, Note_off_c, 1, 75, 0
2, 49360, Note_on_c, 1, 73, 127
2, 49600, Note_off_c, 1, 73, 0
2, 49640, Note_on_c, 1, 51, 127
2, 49640, Note_on_c, 1, 61, 127
2, 49640, Note_on_c, 1, 70, 127
2, 49840, Note_off_c, 1, 70, 0
2, 49880, Note_on_c, 1, 72, 127
2, 50120, Note_on_c, 1, 39, 127
2, 50120, Note_off_c, 1, 61, 0
2, 50120, Note_on_c, 1, 67, 127
2, 50120, Note_off_c, 1, 72, 0
2, 50400, Note_off_c, 1, 39, 0
2, 50400, Note_off_c, 1, 51, 0
2, 50400, Note_off_c, 1, 67, 0
2, 50440, Note_on_c, 1, 56, 127
2, 50440, Note_on_c, 1, 60, 127
2, 50440, Note_on_c, 1, 68, 127
2, 50680, Note_off_c, 1, 56, 0
2, 50680, Note_off_c, 1, 60, 0
2, 50680, Note_off_c, 1, 68, 0
2, 50720, Note_on_c, 1, 51, 127
2, 50720, Note_on_c, 1, 56, 127
2, 50720, Note_on_c, 1, 60, 127
2, 50720, Note_on_c, 1, 63, 127
2, 50800, Note_off_c, 1, 51, 0
2, 50800, Note_off_c, 1, 56, 0
2, 50800, Note_off_c, 1, 60, 0
2, 50800, Note_off_c, 1, 63, 0
2, 50840, Note_on_c, 1, 51, 127
2, 50840, Note_on_c, 1, 56, 127
2, 50840, Note_on_c, 1, 60, 127
2, 50840, Note_on_c, 1, 63, 127
2, 50920, Note_off_c, 1, 56, 0
2, 50920, Note_off_c, 1, 60, 0
2, 50920, Note_off_c, 1, 63, 0
2, 50920, Note_on_c, 1, 68, 127
2, 51040, Note_on_c, 1, 60, 127
2, 51040, Note_on_c, 1, 63, 127
2, 51040, Note_off_c, 1, 68, 0
2, 51280, Note_off_c, 1, 51, 0
2, 51280, Note_off_c, 1, 60, 0
2, 51320, Note_on_c, 1, 51, 127
2, 51320, Note_on_c, 1, 60, 127
2, 51560, Note_off_c, 1, 51, 0
2, 51560, Note_off_c, 1, 60, 0
2, 51560, Note_off_c, 1, 63, 0
2, 51600, Note_on_c, 1, 44, 127
2, 51600, Note_on_c, 1, 68, 127
2, 51840, Note_off_c, 1, 44, 0
2, 51880, Note_on_c, 1, 51, 127
2, 51880, Note_on_c, 1, 60, 127
2, 52080, Note_off_c, 1, 68, 0
2, 52120, Note_on_c, 1, 63, 127
2, 52360, Note_off_c, 1, 51, 0
2, 52360, Note_off_c, 1, 60, 0
2, 52360, Note_off_c, 1, 63, 0
2, 52400, Note_on_c, 1, 44, 127
2, 52400, Note_on_c, 1, 68, 127
2, 52640, Note_off_c, 1, 44, 0
2, 52680, Note_on_c, 1, 51, 127
2, 52680, Note_on_c, 1, 60, 127
2, 52920, Note_off_c, 1, 68, 0
2, 52960, Note_on_c, 1, 63, 127
2, 53160, Note_off_c, 1, 51, 0
2, 53160, Note_off_c, 1, 60, 0
2, 53160, Note_off_c, 1, 63, 0
2, 53200, Note_on_c, 1, 51, 127
2, 53200, Note_on_c, 1, 60, 127
2, 53200, Note_on_c, 1, 63, 127
2, 53240, Note_off_c, 1, 51, 0
2, 53240, Note_off_c, 1, 60, 0
2, 53280, Note_on_c, 1, 51, 127
2, 53280, Note_on_c, 1, 60, 127
2, 53360, Note_on_c, 1, 79, 127
2, 53440, Note_on_c, 1, 43, 127
2, 53440, Note_off_c, 1, 51, 0
2, 53440, Note_on_c, 1, 53, 127
2, 53440, Note_on_c, 1, 58, 127
2, 53440, Note_off_c, 1, 60, 0
2, 53440, Note_off_c, 1, 63, 0
2, 53440, Note_on_c, 1, 65, 127
2, 53440, Note_off_c, 1, 79, 0
2, 53480, Note_off_c, 1, 43, 0
2, 53480, Note_on_c, 1, 51, 127
2, 53480, Note_off_c, 1, 53, 0
2, 53480, Note_off_c, 1, 58, 0
2, 53480, Note_on_c, 1, 60, 127
2, 53480, Note_on_c, 1, 63, 127
2, 53480, Note_off_c, 1, 65, 0
2, 53520, Note_off_c, 1, 51, 0
2, 53520, Note_off_c, 1, 60, 0
2, 53520, Note_off_c, 1, 63, 0
2, 53560, Note_on_c, 1, 51, 127
2, 53560, Note_on_c, 1, 56, 127
2, 53560, Note_on_c, 1, 60, 127
2, 53560, Note_on_c, 1, 63, 127
2, 53640, Note_off_c, 1, 51, 0
2, 53640, Note_off_c, 1, 56, 0
2, 53640, Note_off_c, 1, 60, 0
2, 53800, Note_on_c, 1, 51, 127
2, 53800, Note_on_c, 1, 60, 127
2, 54040, Note_off_c, 1, 51, 0
2, 54040, Note_off_c, 1, 60, 0
2, 54080, Note_on_c, 1, 51, 127
2, 54320, Note_off_c, 1, 51, 0
2, 54320, Note_off_c, 1, 63, 0
2, 54360, Note_on_c, 1, 32, 127
2, 54360, Note_on_c, 1, 75, 127
2, 54600, Note_off_c, 1, 32, 0
2, 54640, Note_on_c, 1, 32, 127
2, 54880, Note_off_c, 1, 32, 0
2, 54880, Note_off_c, 1, 75, 0
2, 54920, Note_on_c, 1, 51, 127
2, 54920, Note_on_c, 1, 59, 127
2, 54920, Note_on_c, 1, 69, 127
2, 54920, Note_on_c, 1, 75, 127
2, 54960, Note_off_c, 1, 59, 0
2, 54960, Note_off_c, 1, 75, 0
2, 55200, Note_on_c, 1, 47, 127
2, 55200, Note_off_c, 1, 51, 0
2, 55200, Note_on_c, 1, 57, 127
2, 55200, Note_on_c, 1, 63, 127
2, 55200, Note_on_c, 1, 67, 127
2, 55200, Note_off_c, 1, 69, 0
2, 55360, Note_off_c, 1, 47, 0
2, 55360, Note_off_c, 1, 57, 0
2, 55360, Note_off_c, 1, 63, 0
2, 55360, Note_off_c, 1, 67, 0
2, 55400, Note_on_c, 1, 47, 127
2, 55400, Note_on_c, 1, 57, 127
2, 55400, Note_on_c, 1, 63, 127
2, 55400, Note_on_c, 1, 67, 127
2, 55440, Note_on_c, 1, 56, 127
2, 55440, Note_off_c, 1, 57, 0
2, 55440, Note_off_c, 1, 63, 0
2, 55440, Note_off_c, 1, 67, 0
2, 55440, Note_on_c, 1, 68, 127
2, 55480, Note_off_c, 1, 47, 0
2, 55480, Note_off_c, 1, 56, 0
2, 55480, Note_off_c, 1, 68, 0
2, 55520, Note_on_c, 1, 48, 127
2, 55520, Note_on_c, 1, 54, 127
2, 55520, Note_on_c, 1, 64, 127
2, 55520, Note_on_c, 1, 69, 127
2, 55760, Note_off_c, 1, 48, 0
2, 55760, Note_off_c, 1, 69, 0
2, 55800, Note_on_c, 1, 47, 127
2, 55800, Note_off_c, 1, 54, 0
2, 55800, Note_on_c, 1, 62, 127
2, 55800, Note_off_c, 1, 64, 0
2, 55800, Note_on_c, 1, 68, 127
2, 55800, Note_on_c, 1, 71, 127
2, 55800, Note_on_c, 1, 74, 127
2, 55800, Note_on_c, 1, 78, 127
2, 56040, Note_off_c, 1, 78, 0
2, 56080, Note_on_c, 1, 77, 127
2, 56120, Note_off_c, 1, 77, 0
2, 56160, Note_on_c, 1, 77, 127
2, 56200, Note_off_c, 1, 77, 0
2, 56240, Note_on_c, 1, 77, 127
2, 56280, Note_on_c, 1, 53, 127
2, 56280, Note_off_c, 1, 77, 0
2, 56280, Note_on_c, 1, 80, 127
2, 56320, Note_off_c, 1, 53, 0
2, 56320, Note_off_c, 1, 80, 0
2, 56360, Note_on_c, 1, 53, 127
2, 56360, Note_on_c, 1, 80, 127
2, 56600, Note_off_c, 1, 47, 0
2, 56600, Note_off_c, 1, 53, 0
2, 56600, Note_on_c, 1, 57, 127
2, 56600, Note_off_c, 1, 62, 0
2, 56600, Note_on_c, 1, 63, 127
2, 56600, Note_on_c, 1, 65, 127
2, 56600, Note_off_c, 1, 68, 0
2, 56600, Note_off_c, 1, 71, 0
2, 56600, Note_off_c, 1, 74, 0
2, 56600, Note_off_c, 1, 80, 0
2, 56640, Note_on_c, 1, 42, 127
2, 56640, Note_off_c, 1, 57, 0
2, 56640, Note_on_c, 1, 59, 127
2, 56640, Note_off_c, 1, 65, 0
2, 56640, Note_on_c, 1, 75, 127
2, 56880, Note_off_c, 1, 42, 0
2, 56880, Note_off_c, 1, 59, 0
2, 56880, Note_off_c, 1, 63, 0
2, 56880, Note_off_c, 1, 75, 0
2, 56920, Note_on_c, 1, 37, 127
2, 56920, Note_on_c, 1, 54, 127
2, 56920, Note_on_c, 1, 59, 127
2, 56920, Note_on_c, 1, 63, 127
2, 57400, Note_off_c, 1, 37, 0
2, 57400, Note_off_c, 1, 54, 0
2, 57400, Note_off_c, 1, 59, 0
2, 57400, Note_off_c, 1, 63, 0
2, 57440, Note_on_c, 1, 37, 127
2, 57440, Note_on_c, 1, 54, 127
2, 57440, Note_on_c, 1, 59, 127
2, 57440, Note_on_c, 1, 63, 127
2, 57480, Note_off_c, 1, 37, 0
2, 57480, Note_off_c, 1, 54, 0
2, 57480, Note_off_c, 1, 59, 0
2, 57480, Note_off_c, 1, 63, 0
2, 57520, Note_on_c, 1, 49, 127
2, 57520, Note_on_c, 1, 55, 127
2, 57520, Note_on_c, 1, 64, 127
2, 57520, Note_on_c, 1, 70, 127
2, 58560, Note_off_c, 1, 49, 0
2, 58560, Note_off_c, 1, 55, 0
2, 58560, Note_off_c, 1, 64, 0
2, 58560, Note_off_c, 1, 70, 0
2, 58600, Note_on_c, 1, 41, 127
2, 58600, Note_on_c, 1, 60, 127
2, 58600, Note_on_c, 1, 68, 127
2, 59080, Note_off_c, 1, 41, 0
2, 59120, Note_on_c, 1, 34, 127
2, 59120, Note_on_c, 1, 46, 127
2, 59120, Note_on_c, 1, 58, 127
2, 59120, Note_off_c, 1, 60, 0
2, 59120, Note_on_c, 1, 61, 127
2, 59120, Note_on_c, 1, 67, 127
2, 59120, Note_off_c, 1, 68, 0
2, 59360, Note_off_c, 1, 34, 0
2, 59360, Note_off_c, 1, 46, 0
2, 59360, Note_on_c, 1, 56, 127
2, 59360, Note_off_c, 1, 58, 0
2, 59360, Note_off_c, 1, 61, 0
2, 59360, Note_off_c, 1, 67, 0
2, 59360, Note_on_c, 1, 72, 127
2, 59400, Note_on_c, 1, 48, 127
2, 59400, Note_off_c, 1, 56, 0
2, 59400, Note_on_c, 1, 60, 127
2, 59400, Note_on_c, 1, 63, 127
2, 59480, Note_on_c, 1, 44, 127
2, 59480, Note_off_c, 1, 48, 0
2, 59480, Note_on_c, 1, 70, 127
2, 59480, Note_off_c, 1, 72, 0
2, 59520, Note_off_c, 1, 44, 0
2, 59520, Note_off_c, 1, 60, 0
2, 59520, Note_off_c, 1, 63, 0
2, 59520, Note_off_c, 1, 70, 0
2, 59560, Note_on_c, 1, 48, 127
2, 59560, Note_on_c, 1, 60, 127
2, 59560, Note_on_c, 1, 63, 127
2, 59560, Note_on_c, 1, 72, 127
2, 59680, Note_off_c, 1, 48, 0
2, 59680, Note_off_c, 1, 60, 0
2, 59680, Note_off_c, 1, 63, 0
2, 59680, Note_off_c, 1, 72, 0
2, 59720, Note_on_c, 1, 46, 127
2, 59720, Note_on_c, 1, 53, 127
2, 59720, Note_on_c, 1, 68, 127
2, 59720, Note_on_c, 1, 75, 127
2, 60080, Note_off_c, 1, 75, 0
2, 60120, Note_on_c, 1, 56, 127
2, 60120, Note_on_c, 1, 65, 127
2, 60120, Note_on_c, 1, 74, 127
2, 60240, Note_off_c, 1, 46, 0
2, 60240, Note_off_c, 1, 53, 0
2, 60240, Note_off_c, 1, 56, 0
2, 60240, Note_off_c, 1, 65, 0
2, 60240, Note_off_c, 1, 68, 0
2, 60240, Note_off_c, 1, 74, 0
2, 60280, Note_on_c, 1, 46, 127
2, 60280, Note_on_c, 1, 53, 127
2, 60280, Note_on_c, 1, 56, 127
2, 60280, Note_on_c, 1, 65, 127
2, 60280, Note_on_c, 1, 68, 127
2, 60280, Note_on_c, 1, 74, 127
2, 60760, Note_off_c, 1, 46, 0
2, 60760, Note_off_c, 1, 53, 0
2, 60760, Note_off_c, 1, 56, 0
2, 60760, Note_off_c, 1, 65, 0
2, 60760, Note_off_c, 1, 68, 0
2, 60760, Note_off_c, 1, 74, 0
2, 60800, Note_on_c, 1, 32, 127
2, 60800, Note_on_c, 1, 59, 127
2, 60800, Note_on_c, 1, 67, 127
2, 60840, Note_off_c, 1, 32, 0
2, 60840, Note_off_c, 1, 59, 0
2, 60840, Note_on_c, 1, 66, 127
2, 60840, Note_off_c, 1, 67, 0
2, 60840, Note_on_c, 1, 79, 127
2, 60840, Note_on_c, 1, 83, 127
2, 60840, Note_on_c, 1, 91, 127
2, 60880, Note_on_c, 1, 77, 127
2, 60880, Note_off_c, 1, 79, 0
2, 60880, Note_off_c, 1, 83, 0
2, 60880, Note_on_c, 1, 85, 127
2, 60880, Note_on_c, 1, 89, 127
2, 60880, Note_off_c, 1, 91, 0
2, 60920, Note_on_c, 1, 61, 127
2, 60920, Note_off_c, 1, 66, 0
2, 60920, Note_off_c, 1, 77, 0
2, 60920, Note_on_c, 1, 82, 127
2, 60920, Note_off_c, 1, 85, 0
2, 60920, Note_on_c, 1, 94, 127
2, 60960, Note_on_c, 1, 51, 127
2, 60960, Note_on_c, 1, 78, 127
2, 60960, Note_on_c, 1, 81, 127
2, 60960, Note_off_c, 1, 82, 0
2, 60960, Note_off_c, 1, 89, 0
2, 60960, Note_off_c, 1, 94, 0
2, 61000, Note_on_c, 1, 48, 127
2, 61000, Note_off_c, 1, 51, 0
2, 61000, Note_on_c, 1, 56, 127
2, 61000, Note_off_c, 1, 61, 0
2, 61000, Note_on_c, 1, 75, 127
2, 61000, Note_off_c, 1, 78, 0
2, 61000, Note_off_c, 1, 81, 0
2, 61000, Note_on_c, 1, 83, 127
2, 61040, Note_on_c, 1, 40, 127
2, 61040, Note_off_c, 1, 48, 0
2, 61040, Note_on_c, 1, 52, 127
2, 61040, Note_off_c, 1, 56, 0
2, 61040, Note_on_c, 1, 57, 127
2, 61040, Note_on_c, 1, 60, 127
2, 61040, Note_on_c, 1, 65, 127
2, 61040, Note_off_c, 1, 75, 0
2, 61040, Note_off_c, 1, 83, 0
2, 61080, Note_off_c, 1, 40, 0
2, 61080, Note_on_c, 1, 44, 127
2, 61080, Note_on_c, 1, 51, 127
2, 61080, Note_off_c, 1, 52, 0
2, 61080, Note_off_c, 1, 57, 0
2, 61080, Note_off_c, 1, 65, 0
2, 61080, Note_on_c, 1, 75, 127
2, 61080, Note_on_c, 1, 80, 127
2, 61080, Note_on_c, 1, 84, 127
2, 61120, Note_on_c, 1, 68, 127
2, 61120, Note_on_c, 1, 87, 127
2, 61320, Note_off_c, 1, 75, 0
2, 61320, Note_off_c, 1, 80, 0
2, 61320, Note_off_c, 1, 84, 0
2, 61320, Note_off_c, 1, 87, 0
2, 61360, Note_on_c, 1, 75, 127
2, 61360, Note_on_c, 1, 80, 127
2, 61360, Note_on_c, 1, 84, 127
2, 61360, Note_on_c, 1, 87, 127
2, 61560, Note_off_c, 1, 44, 0
2, 61560, Note_off_c, 1, 51, 0
2, 61560, Note_off_c, 1, 60, 0
2, 61560, Note_off_c, 1, 68, 0
2, 61560, Note_off_c, 1, 75, 0
2, 61560, Note_off_c, 1, 80, 0
2, 61560, Note_off_c, 1, 84, 0
2, 61560, Note_off_c, 1, 87, 0
2, 61600, Note_on_c, 1, 44, 127
2, 61600, Note_on_c, 1, 51, 127
2, 61600, Note_on_c, 1, 60, 127
2, 61600, Note_on_c, 1, 68, 127
2, 61600, Note_on_c, 1, 75, 127
2, 61600, Note_on_c, 1, 80, 127
2, 61600, Note_on_c, 1, 84, 127
2, 61600, Note_on_c, 1, 87, 127
2, 61640, Note_off_c, 1, 75, 0
2, 61640, Note_off_c, 1, 80, 0
2, 61640, Note_off_c, 1, 84, 0
2, 61640, Note_off_c, 1, 87, 0
2, 61680, Note_on_c, 1, 75, 127
2, 61680, Note_on_c, 1, 80, 127
2, 61680, Note_on_c, 1, 84, 127
2, 61680, Note_on_c, 1, 87, 127
2, 61880, Note_off_c, 1, 75, 0
2, 61880, Note_off_c, 1, 80, 0
2, 61880, Note_off_c, 1, 84, 0
2, 61880, Note_off_c, 1, 87, 0
2, 61920, Note_on_c, 1, 75, 127
2, 61920, Note_on_c, 1, 80, 127
2, 61920, Note_on_c, 1, 84, 127
2, 61920, Note_on_c, 1, 87, 127
2, 62400, Note_off_c, 1, 75, 0
2, 62400, Note_off_c, 1, 80, 0
2, 62400, Note_off_c, 1, 84, 0
2, 62400, Note_off_c, 1, 87, 0
2, 62440, Note_on_c, 1, 75, 127
2, 62680, Note_off_c, 1, 60, 0
2, 62680, Note_off_c, 1, 75, 0
2, 62720, Note_on_c, 1, 80, 127
2, 62880, Note_off_c, 1, 44, 0
2, 62880, Note_off_c, 1, 51, 0
2, 62880, Note_off_c, 1, 68, 0
2, 62880, Note_off_c, 1, 80, 0
2, 63000, Note_on_c, 1, 48, 127
2, 63000, Note_on_c, 1, 55, 127
2, 63000, Note_on_c, 1, 63, 127
2, 63000, Note_on_c, 1, 75, 127
2, 63480, Note_off_c, 1, 75, 0
2, 63520, Note_on_c, 1, 31, 127
2, 63520, Note_on_c, 1, 43, 127
2, 63520, Note_off_c, 1, 48, 0
2, 63520, Note_off_c, 1, 55, 0
2, 63520, Note_on_c, 1, 58, 127
2, 63520, Note_on_c, 1, 62, 127
2, 63520, Note_off_c, 1, 63, 0
2, 63520, Note_on_c, 1, 67, 127
2, 63560, Note_off_c, 1, 31, 0
2, 63560, Note_off_c, 1, 43, 0
2, 63560, Note_off_c, 1, 58, 0
2, 63560, Note_off_c, 1, 62, 0
2, 63560, Note_off_c, 1, 67, 0
2, 63600, Note_on_c, 1, 31, 127
2, 63600, Note_on_c, 1, 43, 127
2, 63600, Note_on_c, 1, 58, 127
2, 63600, Note_on_c, 1, 62, 127
2, 63600, Note_on_c, 1, 67, 127
2, 64080, Note_off_c, 1, 31, 0
2, 64080, Note_off_c, 1, 43, 0
2, 64080, Note_off_c, 1, 58, 0
2, 64080, Note_off_c, 1, 62, 0
2, 64080, Note_off_c, 1, 67, 0
2, 64120, Note_on_c, 1, 37, 127
2, 64120, Note_on_c, 1, 44, 127
2, 64120, Note_on_c, 1, 52, 127
2, 64120, Note_on_c, 1, 56, 127
2, 64120, Note_on_c, 1, 61, 127
2, 65680, Note_off_c, 1, 37, 0
2, 65680, Note_off_c, 1, 44, 0
2, 65680, Note_off_c, 1, 52, 0
2, 65680, Note_off_c, 1, 56, 0
2, 65680, Note_off_c, 1, 61, 0
2, 65720, Note_on_c, 1, 37, 127
2, 65720, Note_on_c, 1, 44, 127
2, 65720, Note_on_c, 1, 52, 127
2, 65720, Note_on_c, 1, 56, 127
2, 65720, Note_on_c, 1, 61, 127
2, 66000, Note_off_c, 1, 37, 0
2, 66000, Note_off_c, 1, 44, 0
2, 66000, Note_off_c, 1, 52, 0
2, 66000, Note_off_c, 1, 56, 0
2, 66000, Note_off_c, 1, 61, 0
2, 66080, Note_on_c, 1, 54, 127
2, 66080, Note_on_c, 1, 63, 127
2, 66080, Note_on_c, 1, 71, 127
2, 67080, Note_off_c, 1, 54, 0
2, 67080, Note_off_c, 1, 63, 0
2, 67080, Note_off_c, 1, 71, 0
2, 67120, Note_on_c, 1, 42, 127
2, 67120, Note_on_c, 1, 54, 127
2, 67120, Note_on_c, 1, 64, 127
2, 67120, Note_on_c, 1, 70, 127
2, 67120, Note_on_c, 1, 73, 127
2, 67800, Note_off_c, 1, 42, 0
2, 67800, Note_off_c, 1, 54, 0
2, 67800, Note_on_c, 1, 58, 127
2, 67800, Note_on_c, 1, 61, 127
2, 67800, Note_off_c, 1, 64, 0
2, 67800, Note_on_c, 1, 67, 127
2, 67800, Note_off_c, 1, 70, 0
2, 67800, Note_off_c, 1, 73, 0
2, 67800, Note_on_c, 1, 76, 127
2, 67840, Note_off_c, 1, 58, 0
2, 67840, Note_off_c, 1, 61, 0
2, 67840, Note_off_c, 1, 67, 0
2, 67840, Note_off_c, 1, 76, 0
2, 67880, Note_on_c, 1, 42, 127
2, 67880, Note_on_c, 1, 54, 127
2, 67880, Note_on_c, 1, 64, 127
2, 67880, Note_on_c, 1, 70, 127
2, 67880, Note_on_c, 1, 73, 127
2, 68000, Note_off_c, 1, 73, 0
2, 68040, Note_on_c, 1, 75, 127
2, 68240, Note_off_c, 1, 42, 0
2, 68240, Note_off_c, 1, 54, 0
2, 68240, Note_off_c, 1, 64, 0
2, 68240, Note_off_c, 1, 70, 0
2, 68240, Note_on_c, 1, 73, 127
2, 68240, Note_off_c, 1, 75, 0
2, 68280, Note_on_c, 1, 54, 127
2, 68280, Note_on_c, 1, 71, 127
2, 68520, Note_off_c, 1, 54, 0
2, 68520, Note_off_c, 1, 71, 0
2, 68560, Note_on_c, 1, 47, 127
2, 68560, Note_on_c, 1, 54, 127
2, 68560, Note_on_c, 1, 63, 127
2, 68560, Note_on_c, 1, 66, 127
2, 68560, Note_on_c, 1, 71, 127
2, 68560, Note_off_c, 1, 73, 0
2, 69600, Note_off_c, 1, 47, 0
2, 69600, Note_off_c, 1, 54, 0
2, 69600, Note_off_c, 1, 63, 0
2, 69600, Note_off_c, 1, 66, 0
2, 69600, Note_off_c, 1, 71, 0
2, 69640, Note_on_c, 1, 52, 127
2, 69640, Note_on_c, 1, 64, 127
2, 69880, Note_off_c, 1, 52, 0
2, 69880, Note_off_c, 1, 64, 0
2, 70000, Note_on_c, 1, 58, 127
2, 70000, Note_on_c, 1, 73, 127
2, 70200, Note_off_c, 1, 58, 0
2, 70200, Note_off_c, 1, 73, 0
2, 70240, Note_on_c, 1, 56, 127
2, 70240, Note_on_c, 1, 71, 127
2, 70480, Note_off_c, 1, 56, 0
2, 70480, Note_off_c, 1, 71, 0
2, 70520, Note_on_c, 1, 47, 127
2, 70520, Note_on_c, 1, 59, 127
2, 70520, Note_on_c, 1, 64, 127
2, 70520, Note_on_c, 1, 68, 127
2, 71040, Note_off_c, 1, 59, 0
2, 71040, Note_off_c, 1, 64, 0
2, 71080, Note_on_c, 1, 57, 127
2, 71080, Note_on_c, 1, 63, 127
2, 71080, Note_on_c, 1, 66, 127
2, 71080, Note_off_c, 1, 68, 0
2, 71560, Note_off_c, 1, 47, 0
2, 71560, Note_off_c, 1, 57, 0
2, 71560, Note_off_c, 1, 63, 0
2, 71560, Note_off_c, 1, 66, 0
2, 71600, Note_on_c, 1, 54, 127
2, 71600, Note_on_c, 1, 66, 127
2, 71840, Note_off_c, 1, 54, 0
2, 71840, Note_off_c, 1, 66, 0
2, 71880, Note_on_c, 1, 47, 127
2, 71880, Note_on_c, 1, 54, 127
2, 71880, Note_on_c, 1, 63, 127
2, 71880, Note_on_c, 1, 66, 127
2, 71880, Note_on_c, 1, 71, 127
2, 72080, Note_off_c, 1, 71, 0
2, 72120, Note_on_c, 1, 71, 127
2, 72280, Note_off_c, 1, 47, 0
2, 72280, Note_off_c, 1, 54, 0
2, 72280, Note_off_c, 1, 63, 0
2, 72280, Note_off_c, 1, 66, 0
2, 72280, Note_off_c, 1, 71, 0
2, 72320, Note_on_c, 1, 47, 127
2, 72320, Note_on_c, 1, 54, 127
2, 72320, Note_on_c, 1, 63, 127
2, 72320, Note_on_c, 1, 66, 127
2, 72320, Note_on_c, 1, 71, 127
2, 72440, Note_off_c, 1, 47, 0
2, 72440, Note_off_c, 1, 54, 0
2, 72440, Note_off_c, 1, 63, 0
2, 72440, Note_off_c, 1, 66, 0
2, 72440, Note_off_c, 1, 71, 0
2, 72480, Note_on_c, 1, 47, 127
2, 72480, Note_on_c, 1, 54, 127
2, 72480, Note_on_c, 1, 63, 127
2, 72480, Note_on_c, 1, 66, 127
2, 72480, Note_on_c, 1, 71, 127
2, 73000, Note_off_c, 1, 63, 0
2, 73000, Note_off_c, 1, 66, 0
2, 73000, Note_off_c, 1, 71, 0
2, 73040, Note_on_c, 1, 90, 127
2, 73520, Note_off_c, 1, 47, 0
2, 73520, Note_off_c, 1, 54, 0
2, 73520, Note_off_c, 1, 90, 0
2, 73560, Note_on_c, 1, 46, 127
2, 73560, Note_on_c, 1, 50, 127
2, 73560, Note_on_c, 1, 58, 127
2, 73560, Note_on_c, 1, 62, 127
2, 73560, Note_on_c, 1, 65, 127
2, 73560, Note_on_c, 1, 70, 127
2, 73800, Note_off_c, 1, 50, 0
2, 73840, Note_on_c, 1, 53, 127
2, 74080, Note_off_c, 1, 46, 0
2, 74080, Note_off_c, 1, 53, 0
2, 74080, Note_off_c, 1, 58, 0
2, 74080, Note_off_c, 1, 62, 0
2, 74080, Note_off_c, 1, 70, 0
2, 74120, Note_on_c, 1, 46, 127
2, 74120, Note_on_c, 1, 51, 127
2, 74120, Note_on_c, 1, 60, 127
2, 74120, Note_off_c, 1, 65, 0
2, 74120, Note_on_c, 1, 69, 127
2, 74120, Note_on_c, 1, 72, 127
2, 74240, Note_off_c, 1, 46, 0
2, 74240, Note_off_c, 1, 51, 0
2, 74240, Note_on_c, 1, 56, 127
2, 74240, Note_off_c, 1, 60, 0
2, 74240, Note_on_c, 1, 68, 127
2, 74240, Note_off_c, 1, 69, 0
2, 74240, Note_off_c, 1, 72, 0
2, 74240, Note_on_c, 1, 74, 127
2, 74240, Note_on_c, 1, 77, 127
2, 74240, Note_on_c, 1, 80, 127
2, 74280, Note_on_c, 1, 46, 127
2, 74280, Note_on_c, 1, 51, 127
2, 74280, Note_off_c, 1, 56, 0
2, 74280, Note_on_c, 1, 60, 127
2, 74280, Note_off_c, 1, 68, 0
2, 74280, Note_on_c, 1, 69, 127
2, 74280, Note_on_c, 1, 72, 127
2, 74280, Note_off_c, 1, 74, 0
2, 74280, Note_off_c, 1, 77, 0
2, 74280, Note_off_c, 1, 80, 0
2, 74320, Note_on_c, 1, 44, 127
2, 74320, Note_off_c, 1, 46, 0
2, 74320, Note_off_c, 1, 51, 0
2, 74320, Note_on_c, 1, 59, 127
2, 74320, Note_off_c, 1, 60, 0
2, 74320, Note_on_c, 1, 63, 127
2, 74320, Note_on_c, 1, 68, 127
2, 74320, Note_off_c, 1, 69, 0
2, 74320, Note_off_c, 1, 72, 0
2, 74360, Note_on_c, 1, 35, 127
2, 74360, Note_off_c, 1, 44, 0
2, 74360, Note_on_c, 1, 47, 127
2, 74360, Note_off_c, 1, 59, 0
2, 74360, Note_off_c, 1, 63, 0
2, 74360, Note_on_c, 1, 64, 127
2, 74360, Note_off_c, 1, 68, 0
2, 74360, Note_on_c, 1, 76, 127
2, 74400, Note_off_c, 1, 35, 0
2, 74400, Note_off_c, 1, 47, 0
2, 74400, Note_off_c, 1, 64, 0
2, 74400, Note_off_c, 1, 76, 0
2, 74440, Note_on_c, 1, 61, 127
2, 74440, Note_on_c, 1, 67, 127
2, 74440, Note_on_c, 1, 69, 127
2, 74440, Note_on_c, 1, 73, 127
2, 74440, Note_on_c, 1, 78, 127
2, 74440, Note_on_c, 1, 81, 127
2, 74480, Note_on_c, 1, 54, 127
2, 74480, Note_on_c, 1, 59, 127
2, 74480, Note_off_c, 1, 61, 0
2, 74480, Note_off_c, 1, 67, 0
2, 74480, Note_off_c, 1, 73, 0
2, 74480, Note_off_c, 1, 78, 0
2, 74520, Note_on_c, 1, 39, 127
2, 74520, Note_on_c, 1, 47, 127
2, 74520, Note_on_c, 1, 63, 127
2, 74520, Note_off_c, 1, 69, 0
2, 74520, Note_off_c, 1, 81, 0
2, 74560, Note_off_c, 1, 39, 0
2, 74560, Note_on_c, 1, 45, 127
2, 74560, Note_off_c, 1, 47, 0
2, 74560, Note_on_c, 1, 49, 127
2, 74560, Note_on_c, 1, 52, 127
2, 74560, Note_off_c, 1, 54, 0
2, 74560, Note_on_c, 1, 57, 127
2, 74560, Note_off_c, 1, 59, 0
2, 74560, Note_off_c, 1, 63, 0
2, 74560, Note_on_c, 1, 74, 127
2, 74600, Note_on_c, 1, 43, 127
2, 74600, Note_off_c, 1, 45, 0
2, 74600, Note_off_c, 1, 49, 0
2, 74600, Note_on_c, 1, 50, 127
2, 74600, Note_off_c, 1, 52, 0
2, 74600, Note_on_c, 1, 55, 127
2, 74600, Note_off_c, 1, 57, 0
2, 74600, Note_on_c, 1, 59, 127
2, 74600, Note_off_c, 1, 74, 0
2, 74600, Note_on_c, 1, 95, 127
2, 74640, Note_off_c, 1, 43, 0
2, 74640, Note_off_c, 1, 50, 0
2, 74640, Note_off_c, 1, 55, 0
2, 74640, Note_off_c, 1, 59, 0
2, 74640, Note_off_c, 1, 95, 0
2, 74680, Note_on_c, 1, 47, 127
2, 74680, Note_on_c, 1, 51, 127
2, 74680, Note_on_c, 1, 59, 127
2, 74680, Note_on_c, 1, 66, 127
2, 74680, Note_on_c, 1, 71, 127
2, 74920, Note_off_c, 1, 51, 0
2, 74960, Note_on_c, 1, 54, 127
2, 75200, Note_off_c, 1, 47, 0
2, 75200, Note_off_c, 1, 54, 0
2, 75200, Note_off_c, 1, 59, 0
2, 75200, Note_off_c, 1, 66, 0
2, 75200, Note_off_c, 1, 71, 0
2, 75240, Note_on_c, 1, 42, 127
2, 75240, Note_on_c, 1, 51, 127
2, 75240, Note_on_c, 1, 59, 127
2, 75240, Note_on_c, 1, 66, 127
2, 75440, Note_off_c, 1, 51, 0
2, 75440, Note_off_c, 1, 59, 0
2, 75440, Note_off_c, 1, 66, 0
2, 75480, Note_on_c, 1, 51, 127
2, 75760, Note_off_c, 1, 42, 0
2, 75760, Note_on_c, 1, 46, 127
2, 75760, Note_off_c, 1, 51, 0
2, 75760, Note_on_c, 1, 52, 127
2, 75760, Note_on_c, 1, 70, 127
2, 75760, Note_on_c, 1, 82, 127
2, 76000, Note_off_c, 1, 70, 0
2, 76000, Note_off_c, 1, 82, 0
2, 76040, Note_off_c, 1, 46, 0
2, 76040, Note_on_c, 1, 47, 127
2, 76040, Note_on_c, 1, 49, 127
2, 76040, Note_off_c, 1, 52, 0
2, 76040, Note_on_c, 1, 68, 127
2, 76080, Note_off_c, 1, 49, 0
2, 76080, Note_on_c, 1, 59, 127
2, 76080, Note_off_c, 1, 68, 0
2, 76080, Note_on_c, 1, 91, 127
2, 76080, Note_on_c, 1, 100, 127
2, 76080, Note_on_c, 1, 103, 127
2, 76120, Note_off_c, 1, 47, 0
2, 76120, Note_on_c, 1, 52, 127
2, 76120, Note_on_c, 1, 57, 127
2, 76120, Note_off_c, 1, 59, 0
2, 76120, Note_on_c, 1, 61, 127
2, 76120, Note_on_c, 1, 64, 127
2, 76120, Note_on_c, 1, 81, 127
2, 76120, Note_on_c, 1, 85, 127
2, 76120, Note_on_c, 1, 88, 127
2, 76120, Note_off_c, 1, 91, 0
2, 76120, Note_on_c, 1, 93, 127
2, 76120, Note_off_c, 1, 100, 0
2, 76120, Note_off_c, 1, 103, 0
2, 76160, Note_on_c, 1, 47, 127
2, 76160, Note_on_c, 1, 49, 127
2, 76160, Note_off_c, 1, 52, 0
2, 76160, Note_off_c, 1, 57, 0
2, 76160, Note_off_c, 1, 61, 0
2, 76160, Note_off_c, 1, 64, 0
2, 76160, Note_on_c, 1, 68, 127
2, 76160, Note_off_c, 1, 81, 0
2, 76160, Note_off_c, 1, 85, 0
2, 76160, Note_off_c, 1, 88, 0
2, 76160, Note_off_c, 1, 93, 0
2, 76200, Note_off_c, 1, 49, 0
2, 76200, Note_on_c, 1, 56, 127
2, 76200, Note_on_c, 1, 59, 127
2, 76200, Note_on_c, 1, 66, 127
2, 76200, Note_off_c, 1, 68, 0
2, 76200, Note_on_c, 1, 71, 127
2, 76200, Note_on_c, 1, 78, 127
2, 76240, Note_off_c, 1, 56, 0
2, 76240, Note_off_c, 1, 59, 0
2, 76240, Note_off_c, 1, 66, 0
2, 76240, Note_off_c, 1, 71, 0
2, 76240, Note_off_c, 1, 78, 0
2, 76280, Note_off_c, 1, 47, 0
2, 76280, Note_on_c, 1, 55, 127
2, 76280, Note_on_c, 1, 62, 127
2, 76280, Note_on_c, 1, 67, 127
2, 76280, Note_on_c, 1, 80, 127
2, 76520, Note_off_c, 1, 55, 0
2, 76520, Note_off_c, 1, 62, 0
2, 76520, Note_off_c, 1, 67, 0
2, 76520, Note_off_c, 1, 80, 0
2, 76600, Note_on_c, 1, 50, 127
2, 76600, Note_on_c, 1, 54, 127
2, 76600, Note_on_c, 1, 57, 127
2, 76600, Note_on_c, 1, 74, 127
2, 76600, Note_on_c, 1, 78, 127
2, 76640, Note_on_c, 1, 44, 127
2, 76640, Note_on_c, 1, 49, 127
2, 76640, Note_off_c, 1, 50, 0
2, 76640, Note_off_c, 1, 54, 0
2, 76640, Note_off_c, 1, 57, 0
2, 76640, Note_on_c, 1, 59, 127
2, 76640, Note_on_c, 1, 71, 127
2, 76640, Note_off_c, 1, 74, 0
2, 76640, Note_off_c, 1, 78, 0
2, 76680, Note_on_c, 1, 41, 127
2, 76680, Note_off_c, 1, 44, 0
2, 76680, Note_on_c, 1, 56, 127
2, 76680, Note_off_c, 1, 59, 0
2, 76680, Note_on_c, 1, 68, 127
2, 76680, Note_off_c, 1, 71, 0
2, 76720, Note_off_c, 1, 41, 0
2, 76720, Note_on_c, 1, 44, 127
2, 76720, Note_off_c, 1, 49, 0
2, 76720, Note_on_c, 1, 50, 127
2, 76720, Note_off_c, 1, 56, 0
2, 76720, Note_on_c, 1, 72, 127
2, 76760, Note_off_c, 1, 44, 0
2, 76760, Note_on_c, 1, 48, 127
2, 76760, Note_off_c, 1, 50, 0
2, 76760, Note_on_c, 1, 59, 127
2, 76760, Note_off_c, 1, 68, 0
2, 76760, Note_off_c, 1, 72, 0
2, 76800, Note_on_c, 1, 39, 127
2, 76800, Note_off_c, 1, 48, 0
2, 76800, Note_off_c, 1, 59, 0
2, 76800, Note_on_c, 1, 64, 127
2, 76800, Note_on_c, 1, 74, 127
2, 76840, Note_on_c, 1, 37, 127
2, 76840, Note_off_c, 1, 39, 0
2, 76840, Note_on_c, 1, 46, 127
2, 76840, Note_off_c, 1, 64, 0
2, 76840, Note_off_c, 1, 74, 0
2, 76880, Note_off_c, 1, 37, 0
2, 76880, Note_off_c, 1, 46, 0
2, 76880, Note_on_c, 1, 47, 127
2, 76880, Note_on_c, 1, 59, 127
2, 76880, Note_on_c, 1, 67, 127
2, 76880, Note_on_c, 1, 74, 127
2, 77000, Note_off_c, 1, 67, 0
2, 77000, Note_off_c, 1, 74, 0
2, 77040, Note_on_c, 1, 67, 127
2, 77040, Note_on_c, 1, 74, 127
2, 77120, Note_off_c, 1, 47, 0
2, 77120, Note_off_c, 1, 59, 0
2, 77120, Note_off_c, 1, 67, 0
2, 77120, Note_off_c, 1, 74, 0
2, 77160, Note_on_c, 1, 59, 127
2, 77160, Note_on_c, 1, 80, 127
2, 77160, Note_on_c, 1, 87, 127
2, 77160, Note_on_c, 1, 92, 127
2, 77680, Note_off_c, 1, 59, 0
2, 77680, Note_on_c, 1, 72, 127
2, 77680, Note_on_c, 1, 79, 127
2, 77680, Note_off_c, 1, 80, 0
2, 77680, Note_on_c, 1, 84, 127
2, 77680, Note_on_c, 1, 91, 127
2, 77680, Note_off_c, 1, 92, 0
2, 77720, Note_on_c, 1, 34, 127
2, 77720, Note_on_c, 1, 46, 127
2, 77720, Note_off_c, 1, 72, 0
2, 77720, Note_on_c, 1, 77, 127
2, 77720, Note_off_c, 1, 79, 0
2, 77720, Note_off_c, 1, 84, 0
2, 77720, Note_off_c, 1, 91, 0
2, 77760, Note_off_c, 1, 34, 0
2, 77760, Note_on_c, 1, 45, 127
2, 77760, Note_off_c, 1, 46, 0
2, 77760, Note_on_c, 1, 59, 127
2, 77760, Note_on_c, 1, 62, 127
2, 77760, Note_on_c, 1, 71, 127
2, 77760, Note_off_c, 1, 77, 0
2, 77760, Note_off_c, 1, 87, 0
2, 77800, Note_on_c, 1, 53, 127
2, 77800, Note_on_c, 1, 57, 127
2, 77800, Note_off_c, 1, 59, 0
2, 77800, Note_off_c, 1, 62, 0
2, 77800, Note_on_c, 1, 69, 127
2, 77800, Note_off_c, 1, 71, 0
2, 77800, Note_on_c, 1, 77, 127
2, 77800, Note_on_c, 1, 81, 127
2, 77840, Note_on_c, 1, 39, 127
2, 77840, Note_on_c, 1, 44, 127
2, 77840, Note_off_c, 1, 45, 0
2, 77840, Note_off_c, 1, 53, 0
2, 77840, Note_on_c, 1, 56, 127
2, 77840, Note_off_c, 1, 57, 0
2, 77840, Note_off_c, 1, 69, 0
2, 77840, Note_on_c, 1, 80, 127
2, 77840, Note_off_c, 1, 81, 0
2, 77840, Note_on_c, 1, 87, 127
2, 77840, Note_on_c, 1, 89, 127
2, 77880, Note_off_c, 1, 39, 0
2, 77880, Note_off_c, 1, 44, 0
2, 77880, Note_off_c, 1, 56, 0
2, 77880, Note_on_c, 1, 61, 127
2, 77880, Note_on_c, 1, 64, 127
2, 77880, Note_on_c, 1, 67, 127
2, 77880, Note_on_c, 1, 70, 127
2, 77880, Note_off_c, 1, 77, 0
2, 77880, Note_off_c, 1, 80, 0
2, 77880, Note_off_c, 1, 87, 0
2, 77880, Note_on_c, 1, 88, 127
2, 77880, Note_off_c, 1, 89, 0
2, 77920, Note_off_c, 1, 61, 0
2, 77920, Note_off_c, 1, 64, 0
2, 77920, Note_off_c, 1, 67, 0
2, 77920, Note_off_c, 1, 70, 0
2, 77920, Note_off_c, 1, 88, 0
2, 77960, Note_on_c, 1, 38, 127
2, 77960, Note_on_c, 1, 50, 127
2, 77960, Note_on_c, 1, 55, 127
2, 77960, Note_on_c, 1, 58, 127
2, 77960, Note_on_c, 1, 61, 127
2, 77960, Note_on_c, 1, 67, 127
2, 78600, Note_off_c, 1, 38, 0
2, 78600, Note_off_c, 1, 50, 0
2, 78600, Note_off_c, 1, 55, 0
2, 78600, Note_off_c, 1, 58, 0
2, 78600, Note_off_c, 1, 61, 0
2, 78600, Note_off_c, 1, 67, 0
2, 78640, Note_on_c, 1, 38, 127
2, 78640, Note_on_c, 1, 50, 127
2, 78640, Note_on_c, 1, 55, 127
2, 78640, Note_on_c, 1, 58, 127
2, 78640, Note_on_c, 1, 61, 127
2, 78640, Note_on_c, 1, 67, 127
2, 78800, Note_off_c, 1, 38, 0
2, 78800, Note_off_c, 1, 50, 0
2, 78800, Note_off_c, 1, 55, 0
2, 78800, Note_off_c, 1, 58, 0
2, 78800, Note_off_c, 1, 61, 0
2, 78800, Note_off_c, 1, 67, 0
2, 78840, Note_on_c, 1, 59, 127
2, 78840, Note_on_c, 1, 64, 127
2, 78840, Note_on_c, 1, 68, 127
2, 78840, Note_on_c, 1, 71, 127
2, 78840, Note_on_c, 1, 76, 127
2, 78840, Note_on_c, 1, 80, 127
2, 78840, Note_on_c, 1, 83, 127
2, 78840, Note_on_c, 1, 88, 127
2, 79040, Note_off_c, 1, 59, 0
2, 79040, Note_off_c, 1, 64, 0
2, 79040, Note_off_c, 1, 68, 0
2, 79040, Note_off_c, 1, 71, 0
2, 79040, Note_off_c, 1, 76, 0
2, 79040, Note_off_c, 1, 80, 0
2, 79040, Note_off_c, 1, 83, 0
2, 79040, Note_off_c, 1, 88, 0
2, 79120, Note_on_c, 1, 59, 127
2, 79120, Note_on_c, 1, 64, 127
2, 79120, Note_on_c, 1, 68, 127
2, 79120, Note_on_c, 1, 71, 127
2, 79120, Note_on_c, 1, 76, 127
2, 79120, Note_on_c, 1, 80, 127
2, 79120, Note_on_c, 1, 83, 127
2, 79120, Note_on_c, 1, 88, 127
2, 79320, Note_off_c, 1, 59, 0
2, 79320, Note_off_c, 1, 64, 0
2, 79320, Note_off_c, 1, 68, 0
2, 79320, Note_off_c, 1, 71, 0
2, 79320, Note_off_c, 1, 76, 0
2, 79320, Note_off_c, 1, 80, 0
2, 79320, Note_off_c, 1, 83, 0
2, 79320, Note_off_c, 1, 88, 0
2, 79360, Note_on_c, 1, 59, 127
2, 79360, Note_on_c, 1, 64, 127
2, 79360, Note_on_c, 1, 68, 127
2, 79360, Note_on_c, 1, 71, 127
2, 79360, Note_on_c, 1, 76, 127
2, 79360, Note_on_c, 1, 80, 127
2, 79360, Note_on_c, 1, 83, 127
2, 79360, Note_on_c, 1, 88, 127
2, 79600, Note_off_c, 1, 59, 0
2, 79600, Note_off_c, 1, 64, 0
2, 79600, Note_off_c, 1, 68, 0
2, 79600, Note_off_c, 1, 71, 0
2, 79600, Note_off_c, 1, 76, 0
2, 79600, Note_off_c, 1, 80, 0
2, 79600, Note_off_c, 1, 83, 0
2, 79600, Note_off_c, 1, 88, 0
2, 79640, Note_on_c, 1, 41, 127
2, 79640, Note_on_c, 1, 53, 127
2, 79640, Note_on_c, 1, 56, 127
2, 79640, Note_on_c, 1, 61, 127
2, 79640, Note_on_c, 1, 65, 127
2, 79640, Note_on_c, 1, 68, 127
2, 80160, Note_off_c, 1, 41, 0
2, 80160, Note_off_c, 1, 53, 0
2, 80160, Note_off_c, 1, 56, 0
2, 80160, Note_off_c, 1, 61, 0
2, 80160, Note_off_c, 1, 65, 0
2, 80200, Note_on_c, 1, 41, 127
2, 80200, Note_on_c, 1, 53, 127
2, 80200, Note_off_c, 1, 68, 0
2, 80200, Note_on_c, 1, 73, 127
2, 80200, Note_on_c, 1, 80, 127
2, 80200, Note_on_c, 1, 83, 127
2, 80200, Note_on_c, 1, 85, 127
2, 80440, Note_off_c, 1, 41, 0
2, 80440, Note_off_c, 1, 53, 0
2, 80480, Note_on_c, 1, 41, 127
2, 80480, Note_on_c, 1, 53, 127
2, 80560, Note_off_c, 1, 41, 0
2, 80560, Note_off_c, 1, 53, 0
2, 80600, Note_on_c, 1, 41, 127
2, 80600, Note_on_c, 1, 53, 127
2, 80640, Note_off_c, 1, 41, 0
2, 80640, Note_on_c, 1, 42, 127
2, 80640, Note_off_c, 1, 53, 0
2, 80640, Note_on_c, 1, 54, 127
2, 80680, Note_off_c, 1, 42, 0
2, 80680, Note_off_c, 1, 54, 0
2, 80720, Note_off_c, 1, 73, 0
2, 80720, Note_off_c, 1, 80, 0
2, 80720, Note_off_c, 1, 83, 0
2, 80720, Note_off_c, 1, 85, 0
2, 80760, Note_on_c, 1, 73, 127
2, 80760, Note_on_c, 1, 80, 127
2, 80760, Note_on_c, 1, 83, 127
2, 80760, Note_on_c, 1, 85, 127
2, 80800, Note_on_c, 1, 61, 127
2, 80880, Note_off_c, 1, 61, 0
2, 80920, Note_on_c, 1, 61, 127
2, 81000, Note_off_c, 1, 61, 0
2, 81000, Note_off_c, 1, 73, 0
2, 81000, Note_off_c, 1, 85, 0
2, 81040, Note_on_c, 1, 39, 127
2, 81040, Note_on_c, 1, 46, 127
2, 81040, Note_on_c, 1, 51, 127
2, 81040, Note_on_c, 1, 54, 127
2, 81040, Note_on_c, 1, 58, 127
2, 81040, Note_off_c, 1, 80, 0
2, 81040, Note_off_c, 1, 83, 0
2, 81840, Note_on_c, 1, 38, 127
2, 81840, Note_off_c, 1, 39, 0
2, 81840, Note_on_c, 1, 41, 127
2, 81840, Note_off_c, 1, 46, 0
2, 81840, Note_on_c, 1, 49, 127
2, 81840, Note_off_c, 1, 51, 0
2, 81840, Note_on_c, 1, 52, 127
2, 81840, Note_off_c, 1, 54, 0
2, 81840, Note_on_c, 1, 55, 127
2, 81840, Note_off_c, 1, 58, 0
2, 81840, Note_on_c, 1, 61, 127
2, 81880, Note_off_c, 1, 38, 0
2, 81880, Note_off_c, 1, 41, 0
2, 81880, Note_on_c, 1, 47, 127
2, 81880, Note_off_c, 1, 49, 0
2, 81880, Note_off_c, 1, 55, 0
2, 81880, Note_on_c, 1, 59, 127
2, 81880, Note_off_c, 1, 61, 0
2, 81880, Note_on_c, 1, 64, 127
2, 81880, Note_on_c, 1, 73, 127
2, 81880, Note_on_c, 1, 76, 127
2, 81920, Note_off_c, 1, 47, 0
2, 81920, Note_on_c, 1, 49, 127
2, 81920, Note_off_c, 1, 52, 0
2, 81920, Note_off_c, 1, 59, 0
2, 81920, Note_off_c, 1, 64, 0
2, 81920, Note_on_c, 1, 71, 127
2, 81920, Note_off_c, 1, 73, 0
2, 81920, Note_off_c, 1, 76, 0
2, 81920, Note_on_c, 1, 77, 127
2, 81920, Note_on_c, 1, 80, 127
2, 81960, Note_off_c, 1, 49, 0
2, 81960, Note_off_c, 1, 71, 0
2, 81960, Note_off_c, 1, 77, 0
2, 81960, Note_off_c, 1, 80, 0
2, 82000, Note_on_c, 1, 49, 127
2, 82000, Note_on_c, 1, 54, 127
2, 82000, Note_on_c, 1, 76, 127
2, 82000, Note_on_c, 1, 78, 127
2, 82000, Note_on_c, 1, 82, 127
2, 82280, Note_off_c, 1, 82, 0
2, 82320, Note_on_c, 1, 85, 127
2, 82360, Note_off_c, 1, 85, 0
2, 82400, Note_on_c, 1, 85, 127
2, 82520, Note_off_c, 1, 49, 0
2, 82520, Note_off_c, 1, 54, 0
2, 82520, Note_off_c, 1, 76, 0
2, 82520, Note_off_c, 1, 78, 0
2, 82520, Note_off_c, 1, 85, 0
2, 82560, Note_on_c, 1, 51, 127
2, 82560, Note_on_c, 1, 54, 127
2, 82560, Note_on_c, 1, 85, 127
2, 82800, Note_off_c, 1, 51, 0
2, 82800, Note_off_c, 1, 54, 0
2, 82800, Note_off_c, 1, 85, 0
2, 82840, Note_on_c, 1, 51, 127
2, 82880, Note_on_c, 1, 54, 127
2, 82880, Note_on_c, 1, 78, 127
2, 82880, Note_on_c, 1, 83, 127
2, 83120, Note_off_c, 1, 51, 0
2, 83120, Note_off_c, 1, 54, 0
2, 83120, Note_off_c, 1, 78, 0
2, 83120, Note_off_c, 1, 83, 0
2, 83160, Note_on_c, 1, 46, 127
2, 83160, Note_on_c, 1, 54, 127
2, 83160, Note_on_c, 1, 76, 127
2, 83160, Note_on_c, 1, 78, 127
2, 83160, Note_on_c, 1, 85, 127
2, 83400, Note_off_c, 1, 46, 0
2, 83400, Note_off_c, 1, 54, 0
2, 83400, Note_off_c, 1, 76, 0
2, 83400, Note_off_c, 1, 78, 0
2, 83400, Note_off_c, 1, 85, 0
2, 83440, Note_on_c, 1, 46, 127
2, 83440, Note_on_c, 1, 54, 127
2, 83440, Note_on_c, 1, 76, 127
2, 83440, Note_on_c, 1, 78, 127
2, 83440, Note_on_c, 1, 85, 127
2, 83680, Note_off_c, 1, 46, 0
2, 83680, Note_off_c, 1, 54, 0
2, 83680, Note_off_c, 1, 76, 0
2, 83680, Note_off_c, 1, 78, 0
2, 83680, Note_off_c, 1, 85, 0
2, 83720, Note_on_c, 1, 47, 127
2, 83720, Note_on_c, 1, 54, 127
2, 83720, Note_on_c, 1, 75, 127
2, 83720, Note_on_c, 1, 78, 127
2, 83720, Note_on_c, 1, 87, 127
2, 84640, Note_off_c, 1, 87, 0
2, 84640, Note_on_c, 1, 88, 127
2, 84760, Note_off_c, 1, 47, 0
2, 84760, Note_off_c, 1, 54, 0
2, 84760, Note_off_c, 1, 75, 0
2, 84760, Note_off_c, 1, 78, 0
2, 84760, Note_off_c, 1, 88, 0
2, 84800, Note_on_c, 1, 47, 127
2, 84800, Note_on_c, 1, 54, 127
2, 84800, Note_on_c, 1, 75, 127
2, 84800, Note_on_c, 1, 78, 127
2, 84800, Note_on_c, 1, 88, 127
2, 84840, Note_off_c, 1, 47, 0
2, 84840, Note_off_c, 1, 54, 0
2, 84840, Note_off_c, 1, 75, 0
2, 84840, Note_on_c, 1, 87, 127
2, 84840, Note_off_c, 1, 88, 0
2, 84840, Note_on_c, 1, 90, 127
2, 84880, Note_on_c, 1, 44, 127
2, 84880, Note_on_c, 1, 56, 127
2, 84880, Note_off_c, 1, 78, 0
2, 84880, Note_on_c, 1, 80, 127
2, 84880, Note_on_c, 1, 84, 127
2, 84880, Note_off_c, 1, 87, 0
2, 84880, Note_off_c, 1, 90, 0
2, 84920, Note_off_c, 1, 44, 0
2, 84920, Note_on_c, 1, 58, 127
2, 84920, Note_on_c, 1, 61, 127
2, 84920, Note_on_c, 1, 65, 127
2, 84920, Note_off_c, 1, 80, 0
2, 84920, Note_on_c, 1, 82, 127
2, 84920, Note_off_c, 1, 84, 0
2, 84960, Note_on_c, 1, 44, 127
2, 84960, Note_off_c, 1, 58, 0
2, 84960, Note_off_c, 1, 61, 0
2, 84960, Note_off_c, 1, 65, 0
2, 84960, Note_off_c, 1, 82, 0
2, 85000, Note_off_c, 1, 44, 0
2, 85000, Note_off_c, 1, 56, 0
2, 85000, Note_on_c, 1, 63, 127
2, 85000, Note_on_c, 1, 75, 127
2, 85000, Note_on_c, 1, 78, 127
2, 85000, Note_on_c, 1, 82, 127
2, 85120, Note_off_c, 1, 75, 0
2, 85120, Note_off_c, 1, 78, 0
2, 85120, Note_off_c, 1, 82, 0
2, 85160, Note_off_c, 1, 63, 0
2, 85160, Note_on_c, 1, 67, 127
2, 85160, Note_on_c, 1, 79, 127
2, 85160, Note_on_c, 1, 82, 127
2, 85160, Note_on_c, 1, 85, 127
2, 85160, Note_on_c, 1, 91, 127
2, 85400, Note_off_c, 1, 67, 0
2, 85400, Note_off_c, 1, 79, 0
2, 85400, Note_off_c, 1, 82, 0
2, 85400, Note_off_c, 1, 85, 0
2, 85400, Note_off_c, 1, 91, 0
2, 85440, Note_on_c, 1, 45, 127
2, 85440, Note_on_c, 1, 54, 127
2, 85440, Note_on_c, 1, 60, 127
2, 85440, Note_on_c, 1, 64, 127
2, 85440, Note_on_c, 1, 66, 127
2, 85680, Note_off_c, 1, 45, 0
2, 85680, Note_off_c, 1, 54, 0
2, 85680, Note_off_c, 1, 60, 0
2, 85680, Note_off_c, 1, 64, 0
2, 85680, Note_off_c, 1, 66, 0
2, 85720, Note_on_c, 1, 47, 127
2, 85720, Note_on_c, 1, 54, 127
2, 85720, Note_on_c, 1, 63, 127
2, 85720, Note_on_c, 1, 66, 127
2, 85720, Note_on_c, 1, 75, 127
2, 86240, Note_off_c, 1, 47, 0
2, 86240, Note_off_c, 1, 54, 0
2, 86240, Note_off_c, 1, 63, 0
2, 86240, Note_off_c, 1, 66, 0
2, 86240, Note_off_c, 1, 75, 0
2, 86280, Note_on_c, 1, 65, 127
2, 86280, Note_on_c, 1, 68, 127
2, 86280, Note_on_c, 1, 71, 127
2, 86280, Note_on_c, 1, 73, 127
2, 86280, Note_on_c, 1, 83, 127
2, 86560, Note_off_c, 1, 65, 0
2, 86560, Note_off_c, 1, 68, 0
2, 86560, Note_off_c, 1, 71, 0
2, 86560, Note_off_c, 1, 73, 0
2, 86560, Note_off_c, 1, 83, 0
2, 86600, Note_on_c, 1, 35, 127
2, 86600, Note_on_c, 1, 51, 127
2, 86600, Note_on_c, 1, 54, 127
2, 86600, Note_on_c, 1, 59, 127
2, 86600, Note_on_c, 1, 63, 127
2, 86640, Note_off_c, 1, 35, 0
2, 86640, Note_on_c, 1, 45, 127
2, 86640, Note_off_c, 1, 51, 0
2, 86640, Note_off_c, 1, 54, 0
2, 86640, Note_on_c, 1, 55, 127
2, 86640, Note_off_c, 1, 59, 0
2, 86640, Note_on_c, 1, 60, 127
2, 86640, Note_off_c, 1, 63, 0
2, 86640, Note_on_c, 1, 69, 127
2, 86680, Note_off_c, 1, 45, 0
2, 86680, Note_off_c, 1, 55, 0
2, 86680, Note_off_c, 1, 60, 0
2, 86680, Note_off_c, 1, 69, 0
2, 86720, Note_on_c, 1, 43, 127
2, 86720, Note_on_c, 1, 84, 127
2, 86720, Note_on_c, 1, 87, 127
2, 86760, Note_on_c, 1, 42, 127
2, 86760, Note_off_c, 1, 43, 0
2, 86760, Note_on_c, 1, 47, 127
2, 86760, Note_on_c, 1, 50, 127
2, 86760, Note_on_c, 1, 54, 127
2, 86760, Note_on_c, 1, 59, 127
2, 86760, Note_on_c, 1, 62, 127
2, 86760, Note_on_c, 1, 66, 127
2, 86760, Note_off_c, 1, 84, 0
2, 86760, Note_off_c, 1, 87, 0
2, 86800, Note_on_c, 1, 37, 127
2, 86800, Note_off_c, 1, 42, 0
2, 86800, Note_off_c, 1, 47, 0
2, 86800, Note_off_c, 1, 50, 0
2, 86800, Note_off_c, 1, 54, 0
2, 86800, Note_off_c, 1, 59, 0
2, 86800, Note_off_c, 1, 62, 0
2, 86800, Note_off_c, 1, 66, 0
2, 86800, Note_on_c, 1, 92, 127
2, 86800, Note_on_c, 1, 101, 127
2, 86840, Note_off_c, 1, 37, 0
2, 86840, Note_on_c, 1, 44, 127
2, 86840, Note_on_c, 1, 54, 127
2, 86840, Note_on_c, 1, 69, 127
2, 86840, Note_on_c, 1, 72, 127
2, 86840, Note_on_c, 1, 75, 127
2, 86840, Note_on_c, 1, 78, 127
2, 86840, Note_on_c, 1, 81, 127
2, 86840, Note_off_c, 1, 92, 0
2, 86840, Note_off_c, 1, 101, 0
2, 86880, Note_on_c, 1, 38, 127
2, 86880, Note_off_c, 1, 44, 0
2, 86880, Note_on_c, 1, 52, 127
2, 86880, Note_off_c, 1, 54, 0
2, 86880, Note_on_c, 1, 57, 127
2, 86880, Note_off_c, 1, 69, 0
2, 86880, Note_off_c, 1, 72, 0
2, 86880, Note_off_c, 1, 75, 0
2, 86880, Note_on_c, 1, 76, 127
2, 86880, Note_off_c, 1, 78, 0
2, 86880, Note_off_c, 1, 81, 0
2, 86920, Note_off_c, 1, 38, 0
2, 86920, Note_off_c, 1, 52, 0
2, 86920, Note_on_c, 1, 56, 127
2, 86920, Note_off_c, 1, 57, 0
2, 86920, Note_on_c, 1, 62, 127
2, 86920, Note_on_c, 1, 65, 127
2, 86920, Note_on_c, 1, 71, 127
2, 86920, Note_on_c, 1, 74, 127
2, 86920, Note_off_c, 1, 76, 0
2, 86920, Note_on_c, 1, 86, 127
2, 87000, Note_off_c, 1, 56, 0
2, 87000, Note_off_c, 1, 62, 0
2, 87000, Note_off_c, 1, 65, 0
2, 87000, Note_on_c, 1, 67, 127
2, 87000, Note_off_c, 1, 71, 0
2, 87000, Note_on_c, 1, 72, 127
2, 87000, Note_off_c, 1, 74, 0
2, 87000, Note_on_c, 1, 76, 127
2, 87000, Note_off_c, 1, 86, 0
2, 87000, Note_on_c, 1, 88, 127
2, 87000, Note_on_c, 1, 96, 127
2, 87000, Note_on_c, 1, 100, 127
2, 87040, Note_on_c, 1, 56, 127
2, 87040, Note_on_c, 1, 62, 127
2, 87040, Note_on_c, 1, 65, 127
2, 87040, Note_off_c, 1, 67, 0
2, 87040, Note_on_c, 1, 71, 127
2, 87040, Note_off_c, 1, 72, 0
2, 87040, Note_on_c, 1, 74, 127
2, 87040, Note_off_c, 1, 76, 0
2, 87040, Note_on_c, 1, 86, 127
2, 87040, Note_off_c, 1, 88, 0
2, 87040, Note_off_c, 1, 96, 0
2, 87040, Note_off_c, 1, 100, 0
2, 87080, Note_off_c, 1, 74, 0
2, 87120, Note_on_c, 1, 35, 127
2, 87120, Note_on_c, 1, 39, 127
2, 87120, Note_on_c, 1, 47, 127
2, 87120, Note_on_c, 1, 53, 127
2, 87120, Note_off_c, 1, 56, 0
2, 87120, Note_off_c, 1, 62, 0
2, 87120, Note_on_c, 1, 63, 127
2, 87120, Note_off_c, 1, 71, 0
2, 87120, Note_off_c, 1, 86, 0
2, 87160, Note_off_c, 1, 35, 0
2, 87160, Note_off_c, 1, 39, 0
2, 87160, Note_off_c, 1, 47, 0
2, 87160, Note_off_c, 1, 53, 0
2, 87160, Note_off_c, 1, 63, 0
2, 87160, Note_off_c, 1, 65, 0
2, 87200, Note_on_c, 1, 47, 127
2, 87200, Note_on_c, 1, 54, 127
2, 87200, Note_on_c, 1, 71, 127
2, 87200, Note_on_c, 1, 80, 127
2, 87440, Note_off_c, 1, 71, 0
2, 87440, Note_off_c, 1, 80, 0
2, 87480, Note_on_c, 1, 71, 127
2, 87480, Note_on_c, 1, 80, 127
2, 87640, Note_off_c, 1, 71, 0
2, 87640, Note_on_c, 1, 76, 127
2, 87640, Note_off_c, 1, 80, 0
2, 87680, Note_on_c, 1, 71, 127
2, 87680, Note_off_c, 1, 76, 0
2, 87680, Note_on_c, 1, 80, 127
2, 87720, Note_off_c, 1, 71, 0
2, 87720, Note_off_c, 1, 80, 0
2, 87760, Note_on_c, 1, 70, 127
2, 87760, Note_on_c, 1, 76, 127
2, 87760, Note_on_c, 1, 85, 127
2, 88000, Note_off_c, 1, 47, 0
2, 88000, Note_off_c, 1, 54, 0
2, 88000, Note_off_c, 1, 70, 0
2, 88000, Note_off_c, 1, 76, 0
2, 88000, Note_off_c, 1, 85, 0
2, 88040, Note_on_c, 1, 47, 127
2, 88040, Note_on_c, 1, 54, 127
2, 88040, Note_on_c, 1, 75, 127
2, 88040, Note_on_c, 1, 83, 127
2, 88600, Note_off_c, 1, 75, 0
2, 88600, Note_off_c, 1, 83, 0
2, 88640, Note_on_c, 1, 75, 127
2, 88640, Note_on_c, 1, 83, 127
2, 88800, Note_off_c, 1, 47, 0
2, 88800, Note_off_c, 1, 54, 0
2, 88800, Note_off_c, 1, 75, 0
2, 88800, Note_off_c, 1, 83, 0
2, 88840, Note_on_c, 1, 47, 127
2, 88840, Note_on_c, 1, 54, 127
2, 88840, Note_on_c, 1, 75, 127
2, 88840, Note_on_c, 1, 83, 127
2, 89160, Note_off_c, 1, 47, 0
2, 89160, Note_off_c, 1, 54, 0
2, 89160, Note_off_c, 1, 75, 0
2, 89160, Note_off_c, 1, 83, 0
2, 89240, Note_on_c, 1, 47, 127
2, 89240, Note_on_c, 1, 55, 127
2, 89240, Note_on_c, 1, 62, 127
2, 89240, Note_on_c, 1, 67, 127
2, 89240, Note_on_c, 1, 74, 127
2, 89480, Note_off_c, 1, 47, 0
2, 89480, Note_off_c, 1, 55, 0
2, 89480, Note_off_c, 1, 62, 0
2, 89480, Note_off_c, 1, 67, 0
2, 89480, Note_off_c, 1, 74, 0
2, 89520, Note_on_c, 1, 35, 127
2, 89520, Note_on_c, 1, 42, 127
2, 89520, Note_on_c, 1, 47, 127
2, 89520, Note_on_c, 1, 71, 127
2, 89520, Note_on_c, 1, 75, 127
2, 89520, Note_on_c, 1, 83, 127
2, 90640, Note_off_c, 1, 35, 0
2, 90640, Note_off_c, 1, 42, 0
2, 90640, Note_off_c, 1, 47, 0
2, 90640, Note_off_c, 1, 71, 0
2, 90640, Note_off_c, 1, 75, 0
2, 90640, Note_off_c, 1, 83, 0
2, 90680, Note_on_c, 1, 51, 127
2, 90680, Note_on_c, 1, 54, 127
2, 90680, Note_on_c, 1, 66, 127
2, 90680, Note_on_c, 1, 71, 127
2, 90680, Note_on_c, 1, 78, 127
2, 90880, Note_off_c, 1, 51, 0
2, 90880, Note_off_c, 1, 54, 0
2, 90880, Note_off_c, 1, 66, 0
2, 90880, Note_off_c, 1, 71, 0
2, 90880, Note_off_c, 1, 78, 0
2, 90920, Note_on_c, 1, 51, 127
2, 90920, Note_on_c, 1, 54, 127
2, 90920, Note_on_c, 1, 66, 127
2, 90920, Note_on_c, 1, 71, 127
2, 90920, Note_on_c, 1, 78, 127
2, 91120, Note_off_c, 1, 66, 0
2, 91120, Note_off_c, 1, 71, 0
2, 91120, Note_off_c, 1, 78, 0
2, 91160, Note_on_c, 1, 66, 127
2, 91160, Note_on_c, 1, 78, 127
2, 91240, Note_off_c, 1, 51, 0
2, 91240, Note_off_c, 1, 54, 0
2, 91240, Note_off_c, 1, 66, 0
2, 91240, Note_off_c, 1, 78, 0
2, 91280, Note_on_c, 1, 35, 127
2, 91280, Note_on_c, 1, 47, 127
2, 91280, Note_on_c, 1, 59, 127
2, 91280, Note_on_c, 1, 63, 127
2, 91280, Note_on_c, 1, 66, 127
2, 91280, Note_on_c, 1, 69, 127
2, 91280, Note_on_c, 1, 71, 127
2, 91520, Note_off_c, 1, 35, 0
2, 91520, Note_on_c, 1, 40, 127
2, 91520, Note_off_c, 1, 47, 0
2, 91520, Note_on_c, 1, 52, 127
2, 91520, Note_off_c, 1, 59, 0
2, 91520, Note_off_c, 1, 63, 0
2, 91520, Note_on_c, 1, 64, 127
2, 91520, Note_off_c, 1, 66, 0
2, 91520, Note_on_c, 1, 68, 127
2, 91520, Note_off_c, 1, 69, 0
2, 91520, Note_off_c, 1, 71, 0
2, 91720, Note_on_c, 1, 59, 127
2, 91760, Note_off_c, 1, 59, 0
2, 91800, Note_off_c, 1, 40, 0
2, 91800, Note_off_c, 1, 52, 0
2, 91800, Note_off_c, 1, 64, 0
2, 91800, Note_off_c, 1, 68, 0
2, 91840, Note_on_c, 1, 42, 127
2, 91840, Note_on_c, 1, 54, 127
2, 91840, Note_on_c, 1, 61, 127
2, 91840, Note_on_c, 1, 66, 127
2, 91840, Note_on_c, 1, 70, 127
2, 92120, Note_off_c, 1, 42, 0
2, 92120, Note_off_c, 1, 54, 0
2, 92120, Note_off_c, 1, 61, 0
2, 92120, Note_off_c, 1, 66, 0
2, 92120, Note_off_c, 1, 70, 0
2, 92160, Note_on_c, 1, 45, 127
2, 92160, Note_on_c, 1, 63, 127
2, 92160, Note_on_c, 1, 66, 127
2, 92160, Note_on_c, 1, 71, 127
2, 92360, Note_off_c, 1, 45, 0
2, 92360, Note_off_c, 1, 63, 0
2, 92360, Note_off_c, 1, 66, 0
2, 92360, Note_off_c, 1, 71, 0
2, 92440, Note_on_c, 1, 47, 127
2, 92440, Note_on_c, 1, 59, 127
2, 92440, Note_on_c, 1, 63, 127
2, 92440, Note_on_c, 1, 71, 127
2, 92440, Note_on_c, 1, 75, 127
2, 92880, Note_off_c, 1, 47, 0
2, 92880, Note_off_c, 1, 59, 0
2, 92880, Note_off_c, 1, 63, 0
2, 92880, Note_off_c, 1, 71, 0
2, 92880, Note_off_c, 1, 75, 0
2, 92920, Note_on_c, 1, 47, 127
2, 92920, Note_on_c, 1, 59, 127
2, 92920, Note_on_c, 1, 63, 127
2, 92920, Note_on_c, 1, 71, 127
2, 92920, Note_on_c, 1, 75, 127
2, 93000, Note_off_c, 1, 47, 0
2, 93000, Note_on_c, 1, 52, 127
2, 93000, Note_off_c, 1, 63, 0
2, 93000, Note_on_c, 1, 64, 127
2, 93000, Note_off_c, 1, 71, 0
2, 93000, Note_off_c, 1, 75, 0
2, 93040, Note_on_c, 1, 46, 127
2, 93040, Note_on_c, 1, 56, 127
2, 93040, Note_off_c, 1, 59, 0
2, 93040, Note_off_c, 1, 64, 0
2, 93040, Note_on_c, 1, 68, 127
2, 93560, Note_off_c, 1, 46, 0
2, 93560, Note_off_c, 1, 52, 0
2, 93560, Note_off_c, 1, 56, 0
2, 93560, Note_off_c, 1, 68, 0
2, 93600, Note_on_c, 1, 46, 127
2, 93600, Note_on_c, 1, 52, 127
2, 93600, Note_on_c, 1, 55, 127
2, 93600, Note_on_c, 1, 67, 127
2, 93840, Note_off_c, 1, 46, 0
2, 93840, Note_off_c, 1, 52, 0
2, 93840, Note_off_c, 1, 55, 0
2, 93840, Note_off_c, 1, 67, 0
2, 93880, Note_on_c, 1, 47, 127
2, 93880, Note_on_c, 1, 54, 127
2, 93880, Note_on_c, 1, 75, 127
2, 93880, Note_on_c, 1, 78, 127
2, 93880, Note_on_c, 1, 83, 127
2, 94360, Note_off_c, 1, 83, 0
2, 94640, Note_on_c, 1, 71, 127
2, 94640, Note_off_c, 1, 78, 0
2, 94680, Note_off_c, 1, 71, 0
2, 94680, Note_on_c, 1, 78, 127
2, 95000, Note_off_c, 1, 47, 0
2, 95000, Note_off_c, 1, 54, 0
2, 95000, Note_off_c, 1, 75, 0
2, 95000, Note_off_c, 1, 78, 0
2, 95040, Note_on_c, 1, 37, 127
2, 95040, Note_on_c, 1, 61, 127
2, 95040, Note_on_c, 1, 70, 127
2, 95160, Note_off_c, 1, 37, 0
2, 95160, Note_off_c, 1, 61, 0
2, 95160, Note_off_c, 1, 70, 0
2, 95200, Note_on_c, 1, 37, 127
2, 95200, Note_on_c, 1, 61, 127
2, 95200, Note_on_c, 1, 70, 127
2, 95320, Note_off_c, 1, 37, 0
2, 95320, Note_off_c, 1, 61, 0
2, 95320, Note_off_c, 1, 70, 0
2, 95360, Note_on_c, 1, 44, 127
2, 95360, Note_on_c, 1, 55, 127
2, 95360, Note_on_c, 1, 63, 127
2, 95360, Note_on_c, 1, 70, 127
2, 95400, Note_on_c, 1, 68, 127
2, 95400, Note_off_c, 1, 70, 0
2, 95440, Note_off_c, 1, 68, 0
2, 95440, Note_on_c, 1, 70, 127
2, 95560, Note_on_c, 1, 61, 127
2, 95560, Note_off_c, 1, 63, 0
2, 95600, Note_off_c, 1, 55, 0
2, 95600, Note_on_c, 1, 59, 127
2, 95600, Note_off_c, 1, 61, 0
2, 95600, Note_on_c, 1, 63, 127
2, 95600, Note_on_c, 1, 68, 127
2, 95600, Note_off_c, 1, 70, 0
2, 95640, Note_off_c, 1, 44, 0
2, 95640, Note_on_c, 1, 54, 127
2, 95640, Note_on_c, 1, 58, 127
2, 95640, Note_off_c, 1, 59, 0
2, 95640, Note_off_c, 1, 63, 0
2, 95640, Note_on_c, 1, 66, 127
2, 95640, Note_off_c, 1, 68, 0
2, 95640, Note_on_c, 1, 73, 127
2, 95640, Note_on_c, 1, 76, 127
2, 95920, Note_on_c, 1, 45, 127
2, 95920, Note_on_c, 1, 52, 127
2, 95920, Note_off_c, 1, 54, 0
2, 95920, Note_on_c, 1, 57, 127
2, 95920, Note_off_c, 1, 58, 0
2, 95920, Note_on_c, 1, 62, 127
2, 95920, Note_on_c, 1, 64, 127
2, 95920, Note_off_c, 1, 66, 0
2, 95920, Note_off_c, 1, 73, 0
2, 95920, Note_off_c, 1, 76, 0
2, 97040, Note_off_c, 1, 45, 0
2, 97040, Note_off_c, 1, 52, 0
2, 97040, Note_off_c, 1, 57, 0
2, 97040, Note_off_c, 1, 62, 0
2, 97040, Note_off_c, 1, 64, 0
2, 97080, Note_on_c, 1, 45, 127
2, 97080, Note_on_c, 1, 52, 127
2, 97080, Note_on_c, 1, 57, 127
2, 97080, Note_on_c, 1, 62, 127
2, 97080, Note_on_c, 1, 64, 127
2, 98480, Note_off_c, 1, 45, 0
2, 98480, Note_off_c, 1, 52, 0
2, 98480, Note_off_c, 1, 57, 0
2, 98480, Note_off_c, 1, 62, 0
2, 98480, Note_off_c, 1, 64, 0
2, 98520, Note_on_c, 1, 40, 127
2, 98520, Note_on_c, 1, 52, 127
2, 98520, Note_on_c, 1, 56, 127
2, 98520, Note_on_c, 1, 64, 127
2, 98840, Note_off_c, 1, 40, 0
2, 98840, Note_off_c, 1, 52, 0
2, 98840, Note_off_c, 1, 56, 0
2, 98840, Note_off_c, 1, 64, 0
2, 98880, Note_on_c, 1, 40, 127
2, 98880, Note_on_c, 1, 52, 127
2, 98880, Note_on_c, 1, 56, 127
2, 98880, Note_on_c, 1, 64, 127
2, 99120, Note_off_c, 1, 40, 0
2, 99120, Note_off_c, 1, 52, 0
2, 99120, Note_off_c, 1, 56, 0
2, 99120, Note_off_c, 1, 64, 0
2, 99440, Note_on_c, 1, 81, 127
2, 100520, Note_off_c, 1, 81, 0
2, 100560, Note_on_c, 1, 80, 127
2, 100960, Note_off_c, 1, 80, 0
2, 101000, Note_on_c, 1, 80, 127
2, 101160, Note_off_c, 1, 80, 0
2, 101200, Note_on_c, 1, 59, 127
2, 101200, Note_on_c, 1, 63, 127
2, 101200, Note_on_c, 1, 78, 127
2, 102000, Note_off_c, 1, 59, 0
2, 102000, Note_off_c, 1, 63, 0
2, 102000, Note_off_c, 1, 78, 0
2, 102040, Note_on_c, 1, 42, 127
2, 102040, Note_on_c, 1, 51, 127
2, 102040, Note_on_c, 1, 60, 127
2, 102040, Note_on_c, 1, 69, 127
2, 102040, Note_on_c, 1, 72, 127
2, 102280, Note_off_c, 1, 51, 0
2, 102320, Note_on_c, 1, 54, 127
2, 102440, Note_off_c, 1, 54, 0
2, 102480, Note_on_c, 1, 54, 127
2, 102560, Note_on_c, 1, 51, 127
2, 102560, Note_off_c, 1, 54, 0
2, 102600, Note_off_c, 1, 42, 0
2, 102600, Note_off_c, 1, 51, 0
2, 102600, Note_off_c, 1, 60, 0
2, 102600, Note_off_c, 1, 69, 0
2, 102600, Note_off_c, 1, 72, 0
2, 102640, Note_on_c, 1, 42, 127
2, 102640, Note_on_c, 1, 51, 127
2, 102640, Note_on_c, 1, 60, 127
2, 102640, Note_on_c, 1, 69, 127
2, 102640, Note_on_c, 1, 72, 127
2, 102880, Note_off_c, 1, 51, 0
2, 102920, Note_on_c, 1, 54, 127
2, 103000, Note_off_c, 1, 54, 0
2, 103160, Note_off_c, 1, 42, 0
2, 103160, Note_off_c, 1, 60, 0
2, 103160, Note_off_c, 1, 69, 0
2, 103160, Note_off_c, 1, 72, 0
2, 103240, Note_on_c, 1, 38, 127
2, 103240, Note_on_c, 1, 62, 127
2, 103240, Note_on_c, 1, 66, 127
2, 103240, Note_on_c, 1, 69, 127
2, 103760, Note_off_c, 1, 38, 0
2, 103760, Note_off_c, 1, 62, 0
2, 103760, Note_off_c, 1, 66, 0
2, 103760, Note_off_c, 1, 69, 0
2, 105560, Note_on_c, 1, 45, 127
2, 105560, Note_on_c, 1, 57, 127
2, 105840, Note_off_c, 1, 45, 0
2, 105840, Note_off_c, 1, 57, 0
2, 105880, Note_on_c, 1, 46, 127
2, 105880, Note_on_c, 1, 86, 127
2, 105880, Note_on_c, 1, 91, 127
2, 105920, Note_on_c, 1, 45, 127
2, 105920, Note_off_c, 1, 46, 0
2, 105920, Note_on_c, 1, 47, 127
2, 105920, Note_on_c, 1, 57, 127
2, 105920, Note_on_c, 1, 63, 127
2, 105920, Note_on_c, 1, 66, 127
2, 105920, Note_on_c, 1, 71, 127
2, 105920, Note_on_c, 1, 75, 127
2, 105920, Note_off_c, 1, 86, 0
2, 105920, Note_off_c, 1, 91, 0
2, 105960, Note_off_c, 1, 47, 0
2, 105960, Note_on_c, 1, 53, 127
2, 105960, Note_off_c, 1, 63, 0
2, 105960, Note_on_c, 1, 64, 127
2, 105960, Note_off_c, 1, 66, 0
2, 105960, Note_off_c, 1, 71, 0
2, 105960, Note_off_c, 1, 75, 0
2, 106000, Note_on_c, 1, 41, 127
2, 106000, Note_off_c, 1, 53, 0
2, 106000, Note_off_c, 1, 57, 0
2, 106000, Note_on_c, 1, 61, 127
2, 106000, Note_on_c, 1, 67, 127
2, 106000, Note_on_c, 1, 69, 127
2, 106040, Note_off_c, 1, 41, 0
2, 106040, Note_off_c, 1, 45, 0
2, 106040, Note_on_c, 1, 50, 127
2, 106040, Note_on_c, 1, 57, 127
2, 106040, Note_on_c, 1, 60, 127
2, 106040, Note_off_c, 1, 61, 0
2, 106040, Note_off_c, 1, 64, 0
2, 106040, Note_on_c, 1, 66, 127
2, 106040, Note_off_c, 1, 67, 0
2, 106040, Note_off_c, 1, 69, 0
2, 106040, Note_on_c, 1, 74, 127
2, 106080, Note_on_c, 1, 47, 127
2, 106080, Note_off_c, 1, 50, 0
2, 106080, Note_off_c, 1, 60, 0
2, 106080, Note_off_c, 1, 66, 0
2, 106080, Note_off_c, 1, 74, 0
2, 106080, Note_on_c, 1, 87, 127
2, 106120, Note_off_c, 1, 47, 0
2, 106120, Note_off_c, 1, 57, 0
2, 106120, Note_on_c, 1, 82, 127
2, 106120, Note_on_c, 1, 86, 127
2, 106120, Note_off_c, 1, 87, 0
2, 106160, Note_on_c, 1, 39, 127
2, 106160, Note_on_c, 1, 42, 127
2, 106160, Note_on_c, 1, 45, 127
2, 106160, Note_on_c, 1, 48, 127
2, 106160, Note_on_c, 1, 78, 127
2, 106160, Note_off_c, 1, 82, 0
2, 106160, Note_off_c, 1, 86, 0
2, 106160, Note_on_c, 1, 90, 127
2, 106240, Note_off_c, 1, 39, 0
2, 106240, Note_off_c, 1, 42, 0
2, 106240, Note_off_c, 1, 45, 0
2, 106240, Note_off_c, 1, 48, 0
2, 106280, Note_on_c, 1, 39, 127
2, 106280, Note_on_c, 1, 42, 127
2, 106280, Note_on_c, 1, 45, 127
2, 106280, Note_on_c, 1, 48, 127
2, 106400, Note_off_c, 1, 39, 0
2, 106400, Note_off_c, 1, 42, 0
2, 106400, Note_off_c, 1, 45, 0
2, 106400, Note_off_c, 1, 48, 0
2, 106440, Note_on_c, 1, 51, 127
2, 106440, Note_on_c, 1, 59, 127
2, 106440, Note_off_c, 1, 78, 0
2, 106440, Note_off_c, 1, 90, 0
2, 106480, Note_on_c, 1, 36, 127
2, 106480, Note_on_c, 1, 48, 127
2, 106480, Note_off_c, 1, 51, 0
2, 106480, Note_on_c, 1, 52, 127
2, 106480, Note_on_c, 1, 55, 127
2, 106480, Note_off_c, 1, 59, 0
2, 106480, Note_on_c, 1, 60, 127
2, 106480, Note_on_c, 1, 64, 127
2, 106480, Note_on_c, 1, 67, 127
2, 106480, Note_on_c, 1, 72, 127
2, 106600, Note_off_c, 1, 48, 0
2, 106600, Note_off_c, 1, 52, 0
2, 106600, Note_off_c, 1, 55, 0
2, 106640, Note_on_c, 1, 48, 127
2, 106640, Note_on_c, 1, 52, 127
2, 106640, Note_on_c, 1, 55, 127
2, 106680, Note_off_c, 1, 48, 0
2, 106680, Note_off_c, 1, 52, 0
2, 106680, Note_off_c, 1, 55, 0
2, 106760, Note_off_c, 1, 36, 0
2, 106760, Note_on_c, 1, 48, 127
2, 106760, Note_on_c, 1, 53, 127
2, 106760, Note_on_c, 1, 56, 127
2, 106760, Note_on_c, 1, 59, 127
2, 106760, Note_off_c, 1, 60, 0
2, 106760, Note_on_c, 1, 62, 127
2, 106760, Note_off_c, 1, 64, 0
2, 106760, Note_on_c, 1, 65, 127
2, 106760, Note_off_c, 1, 67, 0
2, 106760, Note_on_c, 1, 68, 127
2, 106760, Note_on_c, 1, 71, 127
2, 106760, Note_off_c, 1, 72, 0
2, 106760, Note_on_c, 1, 74, 127
2, 106800, Note_on_c, 1, 36, 127
2, 106800, Note_off_c, 1, 53, 0
2, 106800, Note_off_c, 1, 56, 0
2, 106800, Note_on_c, 1, 58, 127
2, 106800, Note_off_c, 1, 59, 0
2, 106800, Note_on_c, 1, 60, 127
2, 106800, Note_off_c, 1, 62, 0
2, 106800, Note_on_c, 1, 64, 127
2, 106800, Note_off_c, 1, 65, 0
2, 106800, Note_on_c, 1, 67, 127
2, 106800, Note_off_c, 1, 68, 0
2, 106800, Note_off_c, 1, 71, 0
2, 106800, Note_on_c, 1, 72, 127
2, 106800, Note_off_c, 1, 74, 0
2, 106840, Note_off_c, 1, 36, 0
2, 106840, Note_off_c, 1, 48, 0
2, 106840, Note_off_c, 1, 58, 0
2, 106840, Note_off_c, 1, 60, 0
2, 106840, Note_off_c, 1, 64, 0
2, 106840, Note_off_c, 1, 67, 0
2, 106840, Note_off_c, 1, 72, 0
2, 106840, Note_on_c, 1, 86, 127
2, 106840, Note_on_c, 1, 93, 127
2, 106840, Note_on_c, 1, 98, 127
2, 106840, Note_on_c, 1, 105, 127
2, 106880, Note_off_c, 1, 86, 0
2, 106880, Note_off_c, 1, 93, 0
2, 106880, Note_off_c, 1, 98, 0
2, 106880, Note_off_c, 1, 105, 0
2, 106920, Note_on_c, 1, 36, 127
2, 106920, Note_on_c, 1, 60, 127
2, 106920, Note_on_c, 1, 64, 127
2, 106920, Note_on_c, 1, 67, 127
2, 106920, Note_on_c, 1, 72, 127
2, 106960, Note_on_c, 1, 35, 127
2, 106960, Note_off_c, 1, 36, 0
2, 106960, Note_on_c, 1, 52, 127
2, 106960, Note_off_c, 1, 60, 0
2, 106960, Note_off_c, 1, 67, 0
2, 106960, Note_off_c, 1, 72, 0
2, 107080, Note_off_c, 1, 35, 0
2, 107120, Note_on_c, 1, 36, 127
2, 107120, Note_off_c, 1, 52, 0
2, 107120, Note_off_c, 1, 64, 0
2, 107120, Note_on_c, 1, 91, 127
2, 107400, Note_off_c, 1, 36, 0
2, 107400, Note_off_c, 1, 91, 0
2, 107440, Note_on_c, 1, 41, 127
2, 107440, Note_on_c, 1, 86, 127
2, 107600, Note_off_c, 1, 86, 0
2, 107640, Note_off_c, 1, 41, 0
2, 107640, Note_on_c, 1, 43, 127
2, 107640, Note_on_c, 1, 77, 127
2, 107720, Note_on_c, 1, 34, 127
2, 107720, Note_on_c, 1, 39, 127
2, 107720, Note_on_c, 1, 41, 127
2, 107720, Note_off_c, 1, 43, 0
2, 107720, Note_on_c, 1, 46, 127
2, 107720, Note_on_c, 1, 51, 127
2, 107720, Note_on_c, 1, 53, 127
2, 107720, Note_on_c, 1, 58, 127
2, 107720, Note_on_c, 1, 61, 127
2, 107720, Note_on_c, 1, 65, 127
2, 107720, Note_on_c, 1, 70, 127
2, 107720, Note_off_c, 1, 77, 0
2, 107760, Note_off_c, 1, 34, 0
2, 107760, Note_off_c, 1, 39, 0
2, 107760, Note_off_c, 1, 41, 0
2, 107760, Note_off_c, 1, 46, 0
2, 107760, Note_off_c, 1, 51, 0
2, 107760, Note_off_c, 1, 53, 0
2, 107760, Note_on_c, 1, 55, 127
2, 107760, Note_off_c, 1, 58, 0
2, 107760, Note_on_c, 1, 60, 127
2, 107760, Note_off_c, 1, 61, 0
2, 107760, Note_on_c, 1, 64, 127
2, 107760, Note_off_c, 1, 65, 0
2, 107760, Note_off_c, 1, 70, 0
2, 107760, Note_on_c, 1, 72, 127
2, 107760, Note_on_c, 1, 81, 127
2, 107800, Note_off_c, 1, 60, 0
2, 107800, Note_on_c, 1, 62, 127
2, 107800, Note_off_c, 1, 64, 0
2, 107800, Note_on_c, 1, 65, 127
2, 107800, Note_off_c, 1, 72, 0
2, 107840, Note_on_c, 1, 61, 127
2, 107840, Note_off_c, 1, 62, 0
2, 107840, Note_off_c, 1, 65, 0
2, 107840, Note_on_c, 1, 76, 127
2, 107840, Note_off_c, 1, 81, 0
2, 107840, Note_on_c, 1, 83, 127
2, 107880, Note_on_c, 1, 41, 127
2, 107880, Note_on_c, 1, 48, 127
2, 107880, Note_on_c, 1, 53, 127
2, 107880, Note_off_c, 1, 55, 0
2, 107880, Note_on_c, 1, 57, 127
2, 107880, Note_off_c, 1, 61, 0
2, 107880, Note_off_c, 1, 76, 0
2, 107880, Note_on_c, 1, 77, 127
2, 107880, Note_off_c, 1, 83, 0
2, 107920, Note_on_c, 1, 38, 127
2, 107920, Note_off_c, 1, 41, 0
2, 107920, Note_off_c, 1, 48, 0
2, 107920, Note_off_c, 1, 53, 0
2, 107920, Note_off_c, 1, 57, 0
2, 107920, Note_on_c, 1, 62, 127
2, 107920, Note_on_c, 1, 66, 127
2, 107920, Note_on_c, 1, 71, 127
2, 107920, Note_on_c, 1, 74, 127
2, 107920, Note_off_c, 1, 77, 0
2, 107920, Note_on_c, 1, 83, 127
2, 107960, Note_off_c, 1, 38, 0
2, 107960, Note_on_c, 1, 52, 127
2, 107960, Note_on_c, 1, 54, 127
2, 107960, Note_on_c, 1, 58, 127
2, 107960, Note_off_c, 1, 62, 0
2, 107960, Note_on_c, 1, 64, 127
2, 107960, Note_off_c, 1, 66, 0
2, 107960, Note_off_c, 1, 71, 0
2, 107960, Note_off_c, 1, 74, 0
2, 107960, Note_off_c, 1, 83, 0
2, 108000, Note_off_c, 1, 52, 0
2, 108000, Note_off_c, 1, 54, 0
2, 108000, Note_off_c, 1, 58, 0
2, 108000, Note_off_c, 1, 64, 0
2, 108000, Note_on_c, 1, 83, 127
2, 108040, Note_on_c, 1, 49, 127
2, 108040, Note_on_c, 1, 55, 127
2, 108040, Note_on_c, 1, 58, 127
2, 108040, Note_on_c, 1, 61, 127
2, 108040, Note_off_c, 1, 83, 0
2, 108280, Note_off_c, 1, 49, 0
2, 108280, Note_off_c, 1, 55, 0
2, 108280, Note_off_c, 1, 58, 0
2, 108320, Note_off_c, 1, 61, 0
2, 108360, Note_on_c, 1, 59, 127
2, 108360, Note_on_c, 1, 61, 127
2, 108400, Note_off_c, 1, 61, 0
2, 108640, Note_on_c, 1, 55, 127
2, 108640, Note_off_c, 1, 59, 0
2, 108680, Note_on_c, 1, 35, 127
2, 108680, Note_on_c, 1, 47, 127
2, 108680, Note_off_c, 1, 55, 0
2, 108680, Note_on_c, 1, 64, 127
2, 108840, Note_off_c, 1, 35, 0
2, 108840, Note_off_c, 1, 47, 0
2, 108840, Note_on_c, 1, 48, 127
2, 108840, Note_off_c, 1, 64, 0
2, 108880, Note_off_c, 1, 48, 0
2, 108880, Note_on_c, 1, 58, 127
2, 108880, Note_on_c, 1, 61, 127
2, 108920, Note_off_c, 1, 58, 0
2, 108960, Note_on_c, 1, 55, 127
2, 108960, Note_on_c, 1, 57, 127
2, 108960, Note_off_c, 1, 61, 0
2, 109080, Note_off_c, 1, 55, 0
2, 109080, Note_off_c, 1, 57, 0
2, 109120, Note_on_c, 1, 55, 127
2, 109120, Note_on_c, 1, 57, 127
2, 109200, Note_off_c, 1, 55, 0
2, 109280, Note_off_c, 1, 57, 0
2, 109320, Note_on_c, 1, 55, 127
2, 109320, Note_on_c, 1, 60, 127
2, 109320, Note_on_c, 1, 64, 127
2, 109560, Note_off_c, 1, 60, 0
2, 109560, Note_off_c, 1, 64, 0
2, 109640, Note_on_c, 1, 64, 127
2, 109880, Note_off_c, 1, 55, 0
2, 109880, Note_off_c, 1, 64, 0
2, 109920, Note_on_c, 1, 48, 127
2, 109920, Note_on_c, 1, 55, 127
2, 109920, Note_on_c, 1, 72, 127
2, 110160, Note_off_c, 1, 48, 0
2, 110160, Note_off_c, 1, 55, 0
2, 110160, Note_off_c, 1, 72, 0
2, 110240, Note_on_c, 1, 55, 127
2, 110240, Note_on_c, 1, 60, 127
2, 110240, Note_on_c, 1, 62, 127
2, 110440, Note_off_c, 1, 62, 0
2, 110520, Note_on_c, 1, 64, 127
2, 110640, Note_on_c, 1, 63, 127
2, 110640, Note_off_c, 1, 64, 0
2, 110760, Note_off_c, 1, 55, 0
2, 110760, Note_off_c, 1, 60, 0
2, 110760, Note_off_c, 1, 63, 0
2, 110800, Note_on_c, 1, 55, 127
2, 110800, Note_on_c, 1, 59, 127
2, 110800, Note_on_c, 1, 62, 127
2, 111080, Note_off_c, 1, 55, 0
2, 111080, Note_off_c, 1, 59, 0
2, 111080, Note_off_c, 1, 62, 0
2, 111120, Note_on_c, 1, 55, 127
2, 111160, Note_on_c, 1, 62, 127
2, 111160, Note_on_c, 1, 65, 127
2, 111440, Note_off_c, 1, 55, 0
2, 111440, Note_off_c, 1, 62, 0
2, 111440, Note_off_c, 1, 65, 0
2, 111480, Note_on_c, 1, 43, 127
2, 111480, Note_on_c, 1, 50, 127
2, 111480, Note_on_c, 1, 59, 127
2, 111720, Note_off_c, 1, 43, 0
2, 111720, Note_off_c, 1, 50, 0
2, 111760, Note_on_c, 1, 50, 127
2, 111760, Note_on_c, 1, 54, 127
2, 111760, Note_off_c, 1, 59, 0
2, 111760, Note_on_c, 1, 62, 127
2, 112000, Note_off_c, 1, 50, 0
2, 112000, Note_off_c, 1, 62, 0
2, 112040, Note_off_c, 1, 54, 0
2, 112080, Note_on_c, 1, 48, 127
2, 112080, Note_on_c, 1, 55, 127
2, 112080, Note_on_c, 1, 60, 127
2, 112080, Note_on_c, 1, 64, 127
2, 112640, Note_off_c, 1, 48, 0
2, 112640, Note_off_c, 1, 55, 0
2, 112640, Note_off_c, 1, 60, 0
2, 112640, Note_off_c, 1, 64, 0
2, 112680, Note_on_c, 1, 47, 127
2, 112680, Note_on_c, 1, 59, 127
2, 112680, Note_on_c, 1, 62, 127
2, 112680, Note_on_c, 1, 67, 127
2, 112960, Note_off_c, 1, 47, 0
2, 112960, Note_off_c, 1, 59, 0
2, 112960, Note_off_c, 1, 62, 0
2, 112960, Note_off_c, 1, 67, 0
2, 113160, Note_on_c, 1, 43, 127
2, 113160, Note_on_c, 1, 55, 127
2, 113160, Note_on_c, 1, 59, 127
2, 113160, Note_on_c, 1, 64, 127
2, 113440, Note_off_c, 1, 43, 0
2, 113440, Note_off_c, 1, 55, 0
2, 113440, Note_off_c, 1, 59, 0
2, 113440, Note_off_c, 1, 64, 0
2, 113760, Note_on_c, 1, 43, 127
2, 113760, Note_on_c, 1, 61, 127
2, 113760, Note_on_c, 1, 64, 127
2, 113760, Note_on_c, 1, 70, 127
2, 113880, Note_off_c, 1, 43, 0
2, 113920, Note_on_c, 1, 43, 127
2, 113920, Note_off_c, 1, 61, 0
2, 113920, Note_off_c, 1, 64, 0
2, 113920, Note_off_c, 1, 70, 0
2, 113960, Note_off_c, 1, 43, 0
2, 114000, Note_on_c, 1, 43, 127
2, 114160, Note_off_c, 1, 43, 0
2, 114240, Note_on_c, 1, 43, 127
2, 114280, Note_on_c, 1, 52, 127
2, 114360, Note_off_c, 1, 43, 0
2, 114360, Note_off_c, 1, 52, 0
2, 114400, Note_on_c, 1, 39, 127
2, 114440, Note_off_c, 1, 39, 0
2, 114440, Note_on_c, 1, 40, 127
2, 114480, Note_off_c, 1, 40, 0
2, 114480, Note_on_c, 1, 43, 127
2, 114520, Note_off_c, 1, 43, 0
2, 114560, Note_on_c, 1, 46, 127
2, 114600, Note_off_c, 1, 46, 0
2, 114600, Note_on_c, 1, 58, 127
2, 114600, Note_on_c, 1, 61, 127
2, 114640, Note_off_c, 1, 61, 0
2, 114680, Note_off_c, 1, 58, 0
2, 114720, Note_on_c, 1, 52, 127
2, 114840, Note_off_c, 1, 52, 0
2, 114880, Note_on_c, 1, 50, 127
2, 115040, Note_off_c, 1, 50, 0
2, 115120, Note_on_c, 1, 54, 127
2, 115240, Note_off_c, 1, 54, 0
2, 115280, Note_on_c, 1, 55, 127
2, 115400, Note_off_c, 1, 55, 0
2, 115440, Note_on_c, 1, 47, 127
2, 115720, Note_off_c, 1, 47, 0
2, 115760, Note_on_c, 1, 43, 127
2, 115760, Note_on_c, 1, 55, 127
2, 115760, Note_on_c, 1, 67, 127
2, 115880, Note_off_c, 1, 43, 0
2, 115880, Note_off_c, 1, 55, 0
2, 115880, Note_off_c, 1, 67, 0
2, 115920, Note_on_c, 1, 42, 127
2, 115920, Note_on_c, 1, 54, 127
2, 115920, Note_on_c, 1, 66, 127
2, 116040, Note_off_c, 1, 42, 0
2, 116040, Note_off_c, 1, 54, 0
2, 116040, Note_off_c, 1, 66, 0
2, 116080, Note_on_c, 1, 43, 127
2, 116080, Note_on_c, 1, 55, 127
2, 116080, Note_on_c, 1, 67, 127
2, 116200, Note_off_c, 1, 43, 0
2, 116200, Note_off_c, 1, 55, 0
2, 116200, Note_off_c, 1, 67, 0
2, 116240, Note_on_c, 1, 38, 127
2, 116240, Note_on_c, 1, 46, 127
2, 116240, Note_on_c, 1, 62, 127
2, 116240, Note_on_c, 1, 74, 127
2, 116320, Note_off_c, 1, 46, 0
2, 116320, Note_off_c, 1, 62, 0
2, 116320, Note_off_c, 1, 74, 0
2, 116360, Note_off_c, 1, 38, 0
2, 116400, Note_on_c, 1, 38, 127
2, 116400, Note_on_c, 1, 50, 127
2, 116400, Note_on_c, 1, 70, 127
2, 116520, Note_off_c, 1, 38, 0
2, 116520, Note_off_c, 1, 50, 0
2, 116520, Note_off_c, 1, 70, 0
2, 116560, Note_on_c, 1, 34, 127
2, 116560, Note_on_c, 1, 43, 127
2, 116560, Note_on_c, 1, 62, 127
2, 116600, Note_off_c, 1, 34, 0
2, 116600, Note_off_c, 1, 43, 0
2, 116600, Note_on_c, 1, 65, 127
2, 116600, Note_on_c, 1, 100, 127
2, 116640, Note_on_c, 1, 52, 127
2, 116640, Note_on_c, 1, 55, 127
2, 116640, Note_off_c, 1, 65, 0
2, 116640, Note_on_c, 1, 69, 127
2, 116640, Note_off_c, 1, 100, 0
2, 116680, Note_off_c, 1, 52, 0
2, 116680, Note_off_c, 1, 55, 0
2, 116680, Note_off_c, 1, 62, 0
2, 116680, Note_off_c, 1, 69, 0
2, 116720, Note_on_c, 1, 63, 127
2, 116720, Note_on_c, 1, 79, 127
2, 116720, Note_on_c, 1, 91, 127
2, 116840, Note_off_c, 1, 63, 0
2, 116840, Note_off_c, 1, 79, 0
2, 116840, Note_off_c, 1, 91, 0
2, 116880, Note_on_c, 1, 43, 127
2, 116880, Note_on_c, 1, 50, 127
2, 116880, Note_on_c, 1, 55, 127
2, 116880, Note_on_c, 1, 82, 127
2, 116920, Note_off_c, 1, 43, 0
2, 116920, Note_off_c, 1, 50, 0
2, 116920, Note_off_c, 1, 55, 0
2, 116920, Note_on_c, 1, 59, 127
2, 116920, Note_off_c, 1, 82, 0
2, 116920, Note_on_c, 1, 83, 127
2, 116920, Note_on_c, 1, 84, 127
2, 116920, Note_on_c, 1, 88, 127
2, 116960, Note_off_c, 1, 59, 0
2, 116960, Note_off_c, 1, 83, 0
2, 116960, Note_off_c, 1, 84, 0
2, 116960, Note_off_c, 1, 88, 0
2, 117000, Note_on_c, 1, 56, 127
2, 117000, Note_on_c, 1, 63, 127
2, 117000, Note_on_c, 1, 82, 127
2, 117000, Note_on_c, 1, 85, 127
2, 117040, Note_off_c, 1, 56, 0
2, 117040, Note_off_c, 1, 63, 0
2, 117040, Note_off_c, 1, 82, 0
2, 117040, Note_off_c, 1, 85, 0
2, 117080, Note_on_c, 1, 41, 127
2, 117080, Note_on_c, 1, 63, 127
2, 117080, Note_on_c, 1, 65, 127
2, 117080, Note_on_c, 1, 67, 127
2, 117080, Note_on_c, 1, 69, 127
2, 117120, Note_off_c, 1, 41, 0
2, 117120, Note_on_c, 1, 48, 127
2, 117120, Note_on_c, 1, 60, 127
2, 117120, Note_off_c, 1, 63, 0
2, 117120, Note_off_c, 1, 65, 0
2, 117120, Note_off_c, 1, 67, 0
2, 117120, Note_off_c, 1, 69, 0
2, 117120, Note_on_c, 1, 76, 127
2, 117120, Note_on_c, 1, 88, 127
2, 117160, Note_off_c, 1, 48, 0
2, 117160, Note_on_c, 1, 55, 127
2, 117160, Note_off_c, 1, 60, 0
2, 117160, Note_on_c, 1, 69, 127
2, 117160, Note_on_c, 1, 75, 127
2, 117160, Note_off_c, 1, 76, 0
2, 117160, Note_on_c, 1, 77, 127
2, 117160, Note_on_c, 1, 81, 127
2, 117160, Note_off_c, 1, 88, 0
2, 117200, Note_off_c, 1, 55, 0
2, 117200, Note_off_c, 1, 69, 0
2, 117200, Note_off_c, 1, 75, 0
2, 117200, Note_off_c, 1, 77, 0
2, 117200, Note_off_c, 1, 81, 0
2, 117240, Note_on_c, 1, 32, 127
2, 117240, Note_on_c, 1, 52, 127
2, 117240, Note_on_c, 1, 55, 127
2, 117240, Note_on_c, 1, 58, 127
2, 117360, Note_off_c, 1, 32, 0
2, 117360, Note_off_c, 1, 52, 0
2, 117360, Note_off_c, 1, 55, 0
2, 117360, Note_off_c, 1, 58, 0
2, 117400, Note_on_c, 1, 50, 127
2, 117400, Note_on_c, 1, 58, 127
2, 117400, Note_on_c, 1, 64, 127
2, 117400, Note_on_c, 1, 67, 127
2, 117520, Note_off_c, 1, 50, 0
2, 117520, Note_off_c, 1, 58, 0
2, 117520, Note_off_c, 1, 64, 0
2, 117520, Note_off_c, 1, 67, 0
2, 117560, Note_on_c, 1, 55, 127
2, 117560, Note_on_c, 1, 58, 127
2, 117560, Note_on_c, 1, 72, 127
2, 117560, Note_on_c, 1, 79, 127
2, 117560, Note_on_c, 1, 84, 127
2, 117640, Note_off_c, 1, 55, 0
2, 117640, Note_off_c, 1, 58, 0
2, 117640, Note_on_c, 1, 67, 127
2, 117640, Note_off_c, 1, 72, 0
2, 117640, Note_on_c, 1, 73, 127
2, 117640, Note_on_c, 1, 78, 127
2, 117640, Note_off_c, 1, 84, 0
2, 117640, Note_on_c, 1, 85, 127
2, 117640, Note_on_c, 1, 90, 127
2, 117680, Note_off_c, 1, 67, 0
2, 117680, Note_off_c, 1, 73, 0
2, 117680, Note_off_c, 1, 78, 0
2, 117680, Note_off_c, 1, 79, 0
2, 117680, Note_off_c, 1, 85, 0
2, 117680, Note_off_c, 1, 90, 0
2, 117720, Note_on_c, 1, 61, 127
2, 117720, Note_on_c, 1, 73, 127
2, 117720, Note_on_c, 1, 78, 127
2, 117720, Note_on_c, 1, 89, 127
2, 117840, Note_off_c, 1, 61, 0
2, 117840, Note_off_c, 1, 73, 0
2, 117840, Note_off_c, 1, 78, 0
2, 117840, Note_off_c, 1, 89, 0
2, 117880, Note_on_c, 1, 41, 127
2, 117880, Note_on_c, 1, 53, 127
2, 117880, Note_on_c, 1, 60, 127
2, 117880, Note_on_c, 1, 73, 127
2, 118120, Note_off_c, 1, 41, 0
2, 118120, Note_off_c, 1, 53, 0
2, 118120, Note_on_c, 1, 57, 127
2, 118120, Note_off_c, 1, 60, 0
2, 118120, Note_on_c, 1, 69, 127
2, 118120, Note_on_c, 1, 71, 127
2, 118120, Note_off_c, 1, 73, 0
2, 118120, Note_on_c, 1, 75, 127
2, 118120, Note_on_c, 1, 78, 127
2, 118160, Note_off_c, 1, 57, 0
2, 118160, Note_off_c, 1, 69, 0
2, 118160, Note_off_c, 1, 71, 0
2, 118160, Note_off_c, 1, 75, 0
2, 118160, Note_off_c, 1, 78, 0
2, 118200, Note_on_c, 1, 47, 127
2, 118200, Note_on_c, 1, 55, 127
2, 118200, Note_on_c, 1, 59, 127
2, 118200, Note_on_c, 1, 67, 127
2, 118200, Note_on_c, 1, 71, 127
2, 118200, Note_on_c, 1, 76, 127
2, 118200, Note_on_c, 1, 79, 127
2, 118600, Note_off_c, 1, 47, 0
2, 118600, Note_off_c, 1, 55, 0
2, 118600, Note_off_c, 1, 59, 0
2, 118600, Note_off_c, 1, 67, 0
2, 118600, Note_off_c, 1, 71, 0
2, 118600, Note_off_c, 1, 76, 0
2, 118600, Note_off_c, 1, 79, 0
2, 118640, Note_on_c, 1, 55, 127
2, 118640, Note_on_c, 1, 62, 127
2, 118640, Note_on_c, 1, 65, 127
2, 118640, Note_on_c, 1, 67, 127
2, 118640, Note_on_c, 1, 71, 127
2, 118760, Note_off_c, 1, 55, 0
2, 118760, Note_off_c, 1, 62, 0
2, 118760, Note_off_c, 1, 65, 0
2, 118760, Note_off_c, 1, 67, 0
2, 118760, Note_off_c, 1, 71, 0
2, 118800, Note_on_c, 1, 64, 127
2, 118800, Note_on_c, 1, 72, 127
2, 118800, Note_on_c, 1, 81, 127
2, 118840, Note_on_c, 1, 79, 127
2, 118840, Note_off_c, 1, 81, 0
2, 118920, Note_off_c, 1, 64, 0
2, 118920, Note_off_c, 1, 72, 0
2, 118920, Note_off_c, 1, 79, 0
2, 118960, Note_on_c, 1, 64, 127
2, 118960, Note_on_c, 1, 72, 127
2, 118960, Note_on_c, 1, 79, 127
2, 119080, Note_off_c, 1, 64, 0
2, 119080, Note_off_c, 1, 72, 0
2, 119080, Note_off_c, 1, 79, 0
2, 119160, Note_on_c, 1, 59, 127
2, 119160, Note_on_c, 1, 67, 127
2, 119160, Note_on_c, 1, 74, 127
2, 119400, Note_off_c, 1, 59, 0
2, 119400, Note_off_c, 1, 67, 0
2, 119400, Note_off_c, 1, 74, 0
2, 119440, Note_on_c, 1, 59, 127
2, 119440, Note_on_c, 1, 67, 127
2, 119440, Note_on_c, 1, 74, 127
2, 119680, Note_off_c, 1, 59, 0
2, 119680, Note_off_c, 1, 67, 0
2, 119680, Note_off_c, 1, 74, 0
2, 119720, Note_on_c, 1, 59, 127
2, 119720, Note_on_c, 1, 67, 127
2, 119720, Note_on_c, 1, 74, 127
2, 120000, Note_off_c, 1, 59, 0
2, 120000, Note_off_c, 1, 67, 0
2, 120000, Note_off_c, 1, 74, 0
2, 120040, End_track
3, 0, Start_track
3, 0, Title_t, "MIDI"
3, 1536, End_track
0, 0, End_of_file
