0, 0, Header, 1, 3, 192
1, 0, Start_track
1, 0, Time_signature, 4, 2, 24, 8
1, 0, Tempo, 500000
1, 120040, End_track
2, 0, Start_track
2, 0, Text_t, "random instrument: random person i dunno whatev"
2, 0, Title_t, "Track 1"
2, 0, Note_on_c, 1, 50, 127
2, 0, Note_on_c, 1, 57, 127
2, 0, Note_on_c, 1, 65, 127
2, 0, Note_on_c, 1, 69, 127
2, 0, Note_on_c, 1, 74, 127
2, 0, Note_on_c, 1, 77, 127
2, 0, Note_on_c, 1, 81, 127
2, 80, Note_off_c, 1, 50, 0
2, 80, Note_off_c, 1, 57, 0
2, 80, Note_off_c, 1, 65, 0
2, 80, Note_off_c, 1, 69, 0
2, 80, Note_off_c, 1, 74, 0
2, 80, Note_off_c, 1, 77, 0
2, 80, Note_off_c, 1, 81, 0
2, 120, Note_on_c, 1, 50, 127
2, 120, Note_on_c, 1, 57, 127
2, 120, Note_on_c, 1, 65, 127
2, 120, Note_on_c, 1, 69, 127
2, 120, Note_on_c, 1, 74, 127
2, 120, Note_on_c, 1, 77, 127
2, 120, Note_on_c, 1, 81, 127
2, 360, Note_off_c, 1, 50, 0
2, 360, Note_off_c, 1, 57, 0
2, 360, Note_off_c, 1, 65, 0
2, 360, Note_off_c, 1, 69, 0
2, 360, Note_off_c, 1, 74, 0
2, 360, Note_off_c, 1, 77, 0
2, 360, Note_off_c, 1, 81, 0
2, 400, Note_on_c, 1, 47, 127
2, 400, Note_on_c, 1, 59, 127
2, 400, Note_on_c, 1, 66, 127
2, 400, Note_on_c, 1, 71, 127
2, 400, Note_on_c, 1, 74, 127
2, 800, Note_off_c, 1, 47, 0
2, 800, Note_off_c, 1, 59, 0
2, 800, Note_off_c, 1, 66, 0
2, 800, Note_off_c, 1, 71, 0
2, 800, Note_off_c, 1, 74, 0
2, 5160, Note_on_c, 1, 48, 127
2, 5160, Note_on_c, 1, 55, 127
2, 5160, Note_on_c, 1, 60, 127
2, 5160, Note_on_c, 1, 64, 127
2, 5480, Note_off_c, 1, 48, 0
2, 5480, Note_off_c, 1, 55, 0
2, 5480, Note_off_c, 1, 60, 0
2, 5480, Note_off_c, 1, 64, 0
2, 5520, Note_on_c, 1, 43, 127
2, 5520, Note_on_c, 1, 53, 127
2, 5520, Note_on_c, 1, 59, 127
2, 5520, Note_on_c, 1, 62, 127
2, 5760, Note_off_c, 1, 62, 0
2, 5800, Note_on_c, 1, 64, 127
2, 5880, Note_off_c, 1, 64, 0
2, 5920, Note_off_c, 1, 59, 0
2, 5920, Note_on_c, 1, 63, 127
2, 6040, Note_off_c, 1, 43, 0
2, 6040, Note_off_c, 1, 53, 0
2, 6040, Note_off_c, 1, 63, 0
2, 6080, Note_on_c, 1, 36, 127
2, 6080, Note_on_c, 1, 51, 127
2, 6080, Note_on_c, 1, 55, 127
2, 6080, Note_on_c, 1, 60, 127
2, 7000, Note_off_c, 1, 36, 0
2, 7000, Note_off_c, 1, 51, 0
2, 7000, Note_off_c, 1, 55, 0
2, 7000, Note_off_c, 1, 60, 0
2, 7040, Note_on_c, 1, 36, 127
2, 7040, Note_on_c, 1, 51, 127
2, 7040, Note_on_c, 1, 55, 127
2, 7040, Note_on_c, 1, 60, 127
2, 8640, Note_off_c, 1, 36, 0
2, 8640, Note_off_c, 1, 51, 0
2, 8640, Note_off_c, 1, 55, 0
2, 8640, Note_off_c, 1, 60, 0
2, 18240, Note_on_c, 1, 40, 127
2, 18240, Note_on_c, 1, 52, 127
2, 18240, Note_on_c, 1, 64, 127
2, 18600, Note_off_c, 1, 40, 0
2, 18600, Note_off_c, 1, 52, 0
2, 18600, Note_off_c, 1, 64, 0
2, 18640, Note_on_c, 1, 60, 127
2, 18640, Note_on_c, 1, 84, 127
2, 19280, Note_off_c, 1, 60, 0
2, 19280, Note_off_c, 1, 84, 0
2, 19320, Note_on_c, 1, 60, 127
2, 19320, Note_on_c, 1, 84, 127
2, 21760, Note_off_c, 1, 60, 0
2, 21760, Note_off_c, 1, 84, 0
2, 21800, Note_on_c, 1, 60, 127
2, 21800, Note_on_c, 1, 84, 127
2, 22560, Note_off_c, 1, 60, 0
2, 22560, Note_off_c, 1, 84, 0
2, 22600, Note_on_c, 1, 56, 127
2, 22600, Note_on_c, 1, 80, 127
2, 24200, Note_off_c, 1, 56, 0
2, 24200, Note_off_c, 1, 80, 0
2, 24240, Note_on_c, 1, 56, 127
2, 24240, Note_on_c, 1, 80, 127
2, 25240, Note_on_c, 1, 68, 127
2, 26160, Note_off_c, 1, 56, 0
2, 26160, Note_off_c, 1, 68, 0
2, 26160, Note_off_c, 1, 80, 0
2, 26200, Note_on_c, 1, 56, 127
2, 26200, Note_on_c, 1, 68, 127
2, 26200, Note_on_c, 1, 80, 127
2, 28360, Note_off_c, 1, 56, 0
2, 28360, Note_off_c, 1, 68, 0
2, 28360, Note_off_c, 1, 80, 0
2, 28400, Note_on_c, 1, 56, 127
2, 28400, Note_on_c, 1, 68, 127
2, 28400, Note_on_c, 1, 80, 127
2, 30280, Note_off_c, 1, 56, 0
2, 30280, Note_off_c, 1, 68, 0
2, 30280, Note_off_c, 1, 80, 0
2, 30320, Note_on_c, 1, 49, 127
2, 30320, Note_on_c, 1, 61, 127
2, 30320, Note_on_c, 1, 73, 127
2, 30640, Note_off_c, 1, 49, 0
2, 30640, Note_off_c, 1, 61, 0
2, 30640, Note_off_c, 1, 73, 0
2, 30680, Note_on_c, 1, 49, 127
2, 30680, Note_on_c, 1, 61, 127
2, 30680, Note_on_c, 1, 73, 127
2, 31400, Note_off_c, 1, 49, 0
2, 31400, Note_off_c, 1, 61, 0
2, 31400, Note_off_c, 1, 73, 0
2, 31440, Note_on_c, 1, 50, 127
2, 31440, Note_on_c, 1, 62, 127
2, 31440, Note_on_c, 1, 74, 127
2, 32880, Note_off_c, 1, 50, 0
2, 32880, Note_off_c, 1, 62, 0
2, 32880, Note_off_c, 1, 74, 0
2, 32920, Note_on_c, 1, 50, 127
2, 32920, Note_on_c, 1, 62, 127
2, 32920, Note_on_c, 1, 74, 127
2, 33200, Note_off_c, 1, 50, 0
2, 33200, Note_off_c, 1, 62, 0
2, 33200, Note_off_c, 1, 74, 0
2, 33240, Note_on_c, 1, 44, 127
2, 33240, Note_on_c, 1, 56, 127
2, 33240, Note_on_c, 1, 68, 127
2, 34560, Note_off_c, 1, 44, 0
2, 34560, Note_off_c, 1, 56, 0
2, 34560, Note_off_c, 1, 68, 0
2, 41560, Note_on_c, 1, 69, 127
2, 43240, Note_off_c, 1, 69, 0
2, 43320, Note_on_c, 1, 71, 127
2, 44640, Note_off_c, 1, 71, 0
2, 44680, Note_on_c, 1, 69, 127
2, 44960, Note_off_c, 1, 69, 0
2, 45000, Note_on_c, 1, 71, 127
2, 45120, Note_off_c, 1, 71, 0
2, 67200, Note_on_c, 1, 52, 127
2, 69880, Note_off_c, 1, 52, 0
2, 74720, Note_on_c, 1, 55, 127
2, 74720, Note_on_c, 1, 58, 127
2, 74720, Note_on_c, 1, 62, 127
2, 74720, Note_on_c, 1, 67, 127
2, 74720, Note_on_c, 1, 70, 127
2, 75440, Note_off_c, 1, 55, 0
2, 75440, Note_off_c, 1, 58, 0
2, 75440, Note_off_c, 1, 62, 0
2, 75440, Note_off_c, 1, 67, 0
2, 75440, Note_off_c, 1, 70, 0
2, 96600, Note_on_c, 1, 68, 127
2, 97320, Note_off_c, 1, 68, 0
2, 98080, Note_on_c, 1, 67, 127
2, 100200, Note_off_c, 1, 67, 0
2, 100240, Note_on_c, 1, 67, 127
2, 100480, Note_on_c, 1, 66, 127
2, 100480, Note_off_c, 1, 67, 0
2, 101760, Note_off_c, 1, 66, 0
2, 101800, Note_on_c, 1, 67, 127
2, 102360, Note_off_c, 1, 67, 0
2, 102440, Note_on_c, 1, 67, 127
2, 104040, Note_off_c, 1, 67, 0
2, 104040, Note_on_c, 1, 68, 127
2, 104360, Note_off_c, 1, 68, 0
2, 104400, Note_on_c, 1, 67, 127
2, 104560, Note_off_c, 1, 67, 0
2, 104600, Note_on_c, 1, 67, 127
2, 104960, Note_off_c, 1, 67, 0
2, 105000, Note_on_c, 1, 66, 127
2, 106280, Note_off_c, 1, 66, 0
2, 106320, Note_on_c, 1, 67, 127
2, 106360, Note_off_c, 1, 67, 0
2, 106400, Note_on_c, 1, 67, 127
2, 106760, Note_off_c, 1, 67, 0
2, 106800, Note_on_c, 1, 67, 127
2, 107480, Note_off_c, 1, 67, 0
2, 107520, Note_on_c, 1, 68, 127
2, 108080, Note_off_c, 1, 68, 0
2, 112120, Note_on_c, 1, 80, 127
2, 112280, Note_off_c, 1, 80, 0
2, 112320, Note_on_c, 1, 78, 127
2, 112440, Note_off_c, 1, 78, 0
2, 112480, Note_on_c, 1, 80, 127
2, 113600, Note_off_c, 1, 80, 0
2, 113640, Note_on_c, 1, 78, 127
2, 113960, Note_off_c, 1, 78, 0
2, 114040, Note_on_c, 1, 78, 127
2, 114360, Note_off_c, 1, 78, 0
2, 114400, Note_on_c, 1, 80, 127
2, 116960, Note_off_c, 1, 80, 0
2, 117000, Note_on_c, 1, 80, 127
2, 118840, Note_off_c, 1, 80, 0
2, 118880, Note_on_c, 1, 78, 127
2, 119440, Note_off_c, 1, 78, 0
2, 119520, Note_on_c, 1, 76, 127
2, 120000, Note_off_c, 1, 76, 0
2, 120040, End_track
3, 0, Start_track
3, 0, Title_t, "MIDI"
3, 1536, End_track
0, 0, End_of_file
