0, 0, Header, 1, 3, 192
1, 0, Start_track
1, 0, Time_signature, 4, 2, 24, 8
1, 0, Tempo, 500000
1, 120040, End_track
2, 0, Start_track
2, 0, Text_t, "random instrument: random person i dunno whatev"
2, 0, Title_t, "Track 1"
2, 0, Note_on_c, 1, 50, 127
2, 0, Note_on_c, 1, 57, 127
2, 0, Note_on_c, 1, 65, 127
2, 0, Note_on_c, 1, 69, 127
2, 0, Note_on_c, 1, 74, 127
2, 0, Note_on_c, 1, 77, 127
2, 0, Note_on_c, 1, 81, 127
2, 80, Note_off_c, 1, 50, 0
2, 80, Note_off_c, 1, 57, 0
2, 80, Note_off_c, 1, 65, 0
2, 80, Note_off_c, 1, 69, 0
2, 80, Note_off_c, 1, 74, 0
2, 80, Note_off_c, 1, 77, 0
2, 80, Note_off_c, 1, 81, 0
2, 120, Note_on_c, 1, 50, 127
2, 120, Note_on_c, 1, 57, 127
2, 120, Note_on_c, 1, 65, 127
2, 120, Note_on_c, 1, 69, 127
2, 120, Note_on_c, 1, 74, 127
2, 120, Note_on_c, 1, 77, 127
2, 120, Note_on_c, 1, 81, 127
2, 360, Note_off_c, 1, 50, 0
2, 360, Note_off_c, 1, 57, 0
2, 360, Note_off_c, 1, 65, 0
2, 360, Note_off_c, 1, 69, 0
2, 360, Note_off_c, 1, 74, 0
2, 360, Note_off_c, 1, 77, 0
2, 360, Note_off_c, 1, 81, 0
2, 400, Note_on_c, 1, 47, 127
2, 400, Note_on_c, 1, 59, 127
2, 400, Note_on_c, 1, 66, 127
2, 400, Note_on_c, 1, 71, 127
2, 400, Note_on_c, 1, 74, 127
2, 800, Note_off_c, 1, 47, 0
2, 800, Note_off_c, 1, 59, 0
2, 800, Note_off_c, 1, 66, 0
2, 800, Note_off_c, 1, 71, 0
2, 800, Note_off_c, 1, 74, 0
2, 5160, Note_on_c, 1, 48, 127
2, 5160, Note_on_c, 1, 55, 127
2, 5160, Note_on_c, 1, 60, 127
2, 5160, Note_on_c, 1, 64, 127
2, 5480, Note_off_c, 1, 48, 0
2, 5480, Note_off_c, 1, 55, 0
2, 5480, Note_off_c, 1, 60, 0
2, 5480, Note_off_c, 1, 64, 0
2, 5520, Note_on_c, 1, 43, 127
2, 5520, Note_on_c, 1, 53, 127
2, 5520, Note_on_c, 1, 59, 127
2, 5520, Note_on_c, 1, 62, 127
2, 5760, Note_off_c, 1, 62, 0
2, 5800, Note_on_c, 1, 64, 127
2, 5880, Note_off_c, 1, 64, 0
2, 5920, Note_off_c, 1, 59, 0
2, 5920, Note_on_c, 1, 63, 127
2, 6040, Note_off_c, 1, 43, 0
2, 6040, Note_off_c, 1, 53, 0
2, 6040, Note_off_c, 1, 63, 0
2, 6080, Note_on_c, 1, 36, 127
2, 6080, Note_on_c, 1, 51, 127
2, 6080, Note_on_c, 1, 55, 127
2, 6080, Note_on_c, 1, 60, 127
2, 7000, Note_off_c, 1, 36, 0
2, 7000, Note_off_c, 1, 51, 0
2, 7000, Note_off_c, 1, 55, 0
2, 7000, Note_off_c, 1, 60, 0
2, 7040, Note_on_c, 1, 36, 127
2, 7040, Note_on_c, 1, 51, 127
2, 7040, Note_on_c, 1, 55, 127
2, 7040, Note_on_c, 1, 60, 127
2, 8640, Note_off_c, 1, 36, 0
2, 8640, Note_off_c, 1, 51, 0
2, 8640, Note_off_c, 1, 55, 0
2, 8640, Note_off_c, 1, 60, 0
2, 18240, Note_on_c, 1, 40, 127
2, 18240, Note_on_c, 1, 52, 127
2, 18240, Note_on_c, 1, 64, 127
2, 18600, Note_off_c, 1, 40, 0
2, 18600, Note_off_c, 1, 52, 0
2, 18600, Note_off_c, 1, 64, 0
2, 18640, Note_on_c, 1, 60, 127
2, 18640, Note_on_c, 1, 84, 127
2, 19280, Note_off_c, 1, 60, 0
2, 19280, Note_off_c, 1, 84, 0
2, 19320, Note_on_c, 1, 60, 127
2, 19320, Note_on_c, 1, 84, 127
2, 21760, Note_off_c, 1, 60, 0
2, 21760, Note_off_c, 1, 84, 0
2, 21800, Note_on_c, 1, 60, 127
2, 21800, Note_on_c, 1, 84, 127
2, 22560, Note_off_c, 1, 60, 0
2, 22560, Note_off_c, 1, 84, 0
2, 22600, Note_on_c, 1, 56, 127
2, 22600, Note_on_c, 1, 80, 127
2, 24200, Note_off_c, 1, 56, 0
2, 24200, Note_off_c, 1, 80, 0
2, 24240, Note_on_c, 1, 56, 127
2, 24240, Note_on_c, 1, 80, 127
2, 25160, Note_off_c, 1, 56, 0
2, 25160, Note_off_c, 1, 80, 0
2, 25200, Note_on_c, 1, 61, 127
2, 25200, Note_on_c, 1, 85, 127
2, 25960, Note_off_c, 1, 61, 0
2, 25960, Note_off_c, 1, 85, 0
2, 26000, Note_on_c, 1, 56, 127
2, 26000, Note_on_c, 1, 80, 127
2, 26160, Note_off_c, 1, 56, 0
2, 26160, Note_off_c, 1, 80, 0
2, 26200, Note_on_c, 1, 56, 127
2, 26200, Note_on_c, 1, 80, 127
2, 27320, Note_off_c, 1, 56, 0
2, 27320, Note_off_c, 1, 80, 0
2, 27360, Note_on_c, 1, 66, 127
2, 27360, Note_on_c, 1, 90, 127
2, 28120, Note_off_c, 1, 66, 0
2, 28120, Note_off_c, 1, 90, 0
2, 28160, Note_on_c, 1, 64, 127
2, 28160, Note_on_c, 1, 88, 127
2, 28360, Note_off_c, 1, 64, 0
2, 28360, Note_off_c, 1, 88, 0
2, 28400, Note_on_c, 1, 64, 127
2, 28400, Note_on_c, 1, 88, 127
2, 28880, Note_off_c, 1, 64, 0
2, 28880, Note_off_c, 1, 88, 0
2, 28920, Note_on_c, 1, 62, 127
2, 28920, Note_on_c, 1, 86, 127
2, 30520, Note_on_c, 1, 60, 127
2, 30520, Note_off_c, 1, 62, 0
2, 30520, Note_on_c, 1, 84, 127
2, 30520, Note_off_c, 1, 86, 0
2, 30840, Note_off_c, 1, 60, 0
2, 30840, Note_on_c, 1, 62, 127
2, 30840, Note_off_c, 1, 84, 0
2, 30840, Note_on_c, 1, 86, 127
2, 30960, Note_off_c, 1, 62, 0
2, 30960, Note_off_c, 1, 86, 0
2, 31000, Note_on_c, 1, 62, 127
2, 31000, Note_on_c, 1, 86, 127
2, 33640, Note_off_c, 1, 62, 0
2, 33640, Note_off_c, 1, 86, 0
2, 33680, Note_on_c, 1, 62, 127
2, 33680, Note_on_c, 1, 86, 127
2, 34560, Note_off_c, 1, 62, 0
2, 34560, Note_off_c, 1, 86, 0
2, 34600, Note_on_c, 1, 62, 127
2, 34600, Note_on_c, 1, 86, 127
2, 35160, Note_on_c, 1, 60, 127
2, 35160, Note_off_c, 1, 62, 0
2, 35160, Note_on_c, 1, 84, 127
2, 35160, Note_off_c, 1, 86, 0
2, 35880, Note_off_c, 1, 60, 0
2, 35880, Note_off_c, 1, 84, 0
2, 35920, Note_on_c, 1, 62, 127
2, 35920, Note_on_c, 1, 86, 127
2, 36040, Note_off_c, 1, 62, 0
2, 36040, Note_off_c, 1, 86, 0
2, 36080, Note_on_c, 1, 62, 127
2, 36080, Note_on_c, 1, 86, 127
2, 36520, Note_off_c, 1, 62, 0
2, 36520, Note_off_c, 1, 86, 0
2, 36560, Note_on_c, 1, 62, 127
2, 36560, Note_on_c, 1, 86, 127
2, 38520, Note_off_c, 1, 62, 0
2, 38520, Note_off_c, 1, 86, 0
2, 38560, Note_on_c, 1, 62, 127
2, 38560, Note_on_c, 1, 86, 127
2, 38880, Note_off_c, 1, 62, 0
2, 38880, Note_off_c, 1, 86, 0
2, 38920, Note_on_c, 1, 62, 127
2, 38920, Note_on_c, 1, 86, 127
2, 40960, Note_off_c, 1, 62, 0
2, 40960, Note_off_c, 1, 86, 0
2, 41000, Note_on_c, 1, 62, 127
2, 41000, Note_on_c, 1, 86, 127
2, 43560, Note_off_c, 1, 62, 0
2, 43560, Note_off_c, 1, 86, 0
2, 43600, Note_on_c, 1, 62, 127
2, 43600, Note_on_c, 1, 86, 127
2, 43840, Note_off_c, 1, 62, 0
2, 43840, Note_on_c, 1, 64, 127
2, 43840, Note_off_c, 1, 86, 0
2, 43840, Note_on_c, 1, 88, 127
2, 43880, Note_on_c, 1, 62, 127
2, 43880, Note_off_c, 1, 64, 0
2, 43880, Note_on_c, 1, 86, 127
2, 43880, Note_off_c, 1, 88, 0
2, 44640, Note_off_c, 1, 62, 0
2, 44640, Note_off_c, 1, 86, 0
2, 44680, Note_on_c, 1, 62, 127
2, 44680, Note_on_c, 1, 86, 127
2, 45600, Note_off_c, 1, 62, 0
2, 45600, Note_off_c, 1, 86, 0
2, 45640, Note_on_c, 1, 62, 127
2, 45640, Note_on_c, 1, 86, 127
2, 46120, Note_on_c, 1, 61, 127
2, 46120, Note_off_c, 1, 62, 0
2, 46120, Note_on_c, 1, 85, 127
2, 46120, Note_off_c, 1, 86, 0
2, 46480, Note_off_c, 1, 61, 0
2, 46480, Note_off_c, 1, 85, 0
2, 46520, Note_on_c, 1, 57, 127
2, 46520, Note_on_c, 1, 81, 127
2, 47640, Note_off_c, 1, 57, 0
2, 47640, Note_off_c, 1, 81, 0
2, 47680, Note_on_c, 1, 57, 127
2, 47680, Note_on_c, 1, 81, 127
2, 48920, Note_off_c, 1, 57, 0
2, 48920, Note_off_c, 1, 81, 0
2, 48960, Note_on_c, 1, 57, 127
2, 48960, Note_on_c, 1, 81, 127
2, 49760, Note_off_c, 1, 57, 0
2, 49760, Note_off_c, 1, 81, 0
2, 49800, Note_on_c, 1, 57, 127
2, 49800, Note_on_c, 1, 81, 127
2, 51760, Note_on_c, 1, 45, 127
2, 51760, Note_off_c, 1, 57, 0
2, 51760, Note_on_c, 1, 69, 127
2, 51760, Note_off_c, 1, 81, 0
2, 51960, Note_off_c, 1, 45, 0
2, 51960, Note_off_c, 1, 69, 0
2, 52000, Note_on_c, 1, 45, 127
2, 52000, Note_on_c, 1, 69, 127
2, 54920, Note_off_c, 1, 45, 0
2, 54920, Note_off_c, 1, 69, 0
2, 54960, Note_on_c, 1, 45, 127
2, 54960, Note_on_c, 1, 69, 127
2, 55000, Note_on_c, 1, 52, 127
2, 55000, Note_on_c, 1, 57, 127
2, 55000, Note_on_c, 1, 61, 127
2, 55000, Note_on_c, 1, 64, 127
2, 56160, Note_off_c, 1, 69, 0
2, 56200, Note_on_c, 1, 68, 127
2, 56760, Note_off_c, 1, 45, 0
2, 56760, Note_off_c, 1, 52, 0
2, 56760, Note_off_c, 1, 57, 0
2, 56760, Note_off_c, 1, 61, 0
2, 56760, Note_off_c, 1, 64, 0
2, 56760, Note_off_c, 1, 68, 0
2, 56800, Note_on_c, 1, 45, 127
2, 56800, Note_on_c, 1, 52, 127
2, 56800, Note_on_c, 1, 57, 127
2, 56800, Note_on_c, 1, 61, 127
2, 56800, Note_on_c, 1, 64, 127
2, 56800, Note_on_c, 1, 68, 127
2, 56840, Note_off_c, 1, 68, 0
2, 56880, Note_on_c, 1, 69, 127
2, 57680, Note_off_c, 1, 69, 0
2, 57720, Note_on_c, 1, 68, 127
2, 58360, Note_off_c, 1, 68, 0
2, 58400, Note_on_c, 1, 69, 127
2, 59040, Note_off_c, 1, 45, 0
2, 59040, Note_off_c, 1, 52, 0
2, 59040, Note_off_c, 1, 57, 0
2, 59040, Note_off_c, 1, 61, 0
2, 59040, Note_off_c, 1, 64, 0
2, 59040, Note_off_c, 1, 69, 0
2, 59080, Note_on_c, 1, 45, 127
2, 59080, Note_on_c, 1, 52, 127
2, 59080, Note_on_c, 1, 57, 127
2, 59080, Note_on_c, 1, 61, 127
2, 59080, Note_on_c, 1, 64, 127
2, 59080, Note_on_c, 1, 69, 127
2, 60880, Note_off_c, 1, 69, 0
2, 60920, Note_on_c, 1, 68, 127
2, 61160, Note_off_c, 1, 45, 0
2, 61160, Note_off_c, 1, 52, 0
2, 61160, Note_off_c, 1, 57, 0
2, 61160, Note_off_c, 1, 61, 0
2, 61160, Note_off_c, 1, 64, 0
2, 61160, Note_off_c, 1, 68, 0
2, 61200, Note_on_c, 1, 45, 127
2, 61200, Note_on_c, 1, 52, 127
2, 61200, Note_on_c, 1, 57, 127
2, 61200, Note_on_c, 1, 61, 127
2, 61200, Note_on_c, 1, 64, 127
2, 61200, Note_on_c, 1, 68, 127
2, 61520, Note_off_c, 1, 68, 0
2, 61560, Note_on_c, 1, 69, 127
2, 63080, Note_off_c, 1, 45, 0
2, 63080, Note_off_c, 1, 52, 0
2, 63080, Note_off_c, 1, 57, 0
2, 63080, Note_off_c, 1, 61, 0
2, 63080, Note_off_c, 1, 64, 0
2, 63080, Note_off_c, 1, 69, 0
2, 67200, Note_on_c, 1, 52, 127
2, 69160, Note_off_c, 1, 52, 0
2, 74720, Note_on_c, 1, 55, 127
2, 74720, Note_on_c, 1, 58, 127
2, 74720, Note_on_c, 1, 62, 127
2, 74720, Note_on_c, 1, 67, 127
2, 74720, Note_on_c, 1, 70, 127
2, 75280, Note_off_c, 1, 62, 0
2, 75280, Note_off_c, 1, 67, 0
2, 75280, Note_off_c, 1, 70, 0
2, 75320, Note_on_c, 1, 70, 127
2, 75840, Note_off_c, 1, 58, 0
2, 75880, Note_on_c, 1, 54, 127
2, 75880, Note_off_c, 1, 55, 0
2, 75880, Note_on_c, 1, 60, 127
2, 75880, Note_on_c, 1, 69, 127
2, 75880, Note_off_c, 1, 70, 0
2, 76800, Note_off_c, 1, 54, 0
2, 76800, Note_off_c, 1, 60, 0
2, 76800, Note_off_c, 1, 69, 0
2, 76840, Note_on_c, 1, 54, 127
2, 76840, Note_on_c, 1, 60, 127
2, 76840, Note_on_c, 1, 69, 127
2, 77040, Note_off_c, 1, 54, 0
2, 77040, Note_off_c, 1, 60, 0
2, 77040, Note_off_c, 1, 69, 0
2, 77080, Note_on_c, 1, 55, 127
2, 77080, Note_on_c, 1, 58, 127
2, 77080, Note_on_c, 1, 70, 127
2, 77600, Note_off_c, 1, 58, 0
2, 77640, Note_on_c, 1, 48, 127
2, 77640, Note_off_c, 1, 55, 0
2, 77640, Note_on_c, 1, 60, 127
2, 78200, Note_off_c, 1, 48, 0
2, 78200, Note_off_c, 1, 60, 0
2, 78200, Note_off_c, 1, 70, 0
2, 78240, Note_on_c, 1, 53, 127
2, 78240, Note_on_c, 1, 57, 127
2, 78240, Note_on_c, 1, 69, 127
2, 78800, Note_off_c, 1, 57, 0
2, 78840, Note_on_c, 1, 57, 127
2, 78840, Note_off_c, 1, 69, 0
2, 78840, Note_on_c, 1, 72, 127
2, 79000, Note_off_c, 1, 53, 0
2, 79000, Note_off_c, 1, 57, 0
2, 79000, Note_off_c, 1, 72, 0
2, 79040, Note_on_c, 1, 53, 127
2, 79040, Note_on_c, 1, 57, 127
2, 79040, Note_on_c, 1, 72, 127
2, 79600, Note_off_c, 1, 72, 0
2, 79640, Note_on_c, 1, 72, 127
2, 79800, Note_off_c, 1, 72, 0
2, 79840, Note_on_c, 1, 69, 127
2, 80200, Note_off_c, 1, 57, 0
2, 80240, Note_on_c, 1, 60, 127
2, 81000, Note_off_c, 1, 53, 0
2, 81000, Note_off_c, 1, 60, 0
2, 81000, Note_off_c, 1, 69, 0
2, 81040, Note_on_c, 1, 53, 127
2, 81040, Note_on_c, 1, 57, 127
2, 81040, Note_on_c, 1, 69, 127
2, 81160, Note_off_c, 1, 53, 0
2, 81160, Note_off_c, 1, 57, 0
2, 81160, Note_off_c, 1, 69, 0
2, 81200, Note_on_c, 1, 53, 127
2, 81200, Note_on_c, 1, 57, 127
2, 81200, Note_on_c, 1, 69, 127
2, 81640, Note_off_c, 1, 57, 0
2, 81680, Note_on_c, 1, 60, 127
2, 82640, Note_off_c, 1, 53, 0
2, 82640, Note_off_c, 1, 60, 0
2, 82640, Note_off_c, 1, 69, 0
2, 82680, Note_on_c, 1, 50, 127
2, 82680, Note_on_c, 1, 58, 127
2, 82680, Note_on_c, 1, 70, 127
2, 83280, Note_off_c, 1, 50, 0
2, 83280, Note_off_c, 1, 58, 0
2, 83280, Note_off_c, 1, 70, 0
2, 83320, Note_on_c, 1, 50, 127
2, 83320, Note_on_c, 1, 58, 127
2, 83320, Note_on_c, 1, 70, 127
2, 83880, Note_off_c, 1, 50, 0
2, 83880, Note_off_c, 1, 58, 0
2, 83880, Note_off_c, 1, 70, 0
2, 112120, Note_on_c, 1, 80, 127
2, 112280, Note_off_c, 1, 80, 0
2, 112320, Note_on_c, 1, 78, 127
2, 112440, Note_off_c, 1, 78, 0
2, 112480, Note_on_c, 1, 80, 127
2, 113600, Note_off_c, 1, 80, 0
2, 113640, Note_on_c, 1, 78, 127
2, 115440, Note_off_c, 1, 78, 0
2, 115480, Note_on_c, 1, 78, 127
2, 118200, Note_off_c, 1, 78, 0
2, 118240, Note_on_c, 1, 78, 127
2, 118840, Note_off_c, 1, 78, 0
2, 118880, Note_on_c, 1, 76, 127
2, 120000, Note_off_c, 1, 76, 0
2, 120040, End_track
3, 0, Start_track
3, 0, Title_t, "MIDI"
3, 1536, End_track
0, 0, End_of_file
