0, 0, Header, 1, 3, 192
1, 0, Start_track
1, 0, Time_signature, 4, 2, 24, 8
1, 0, Tempo, 500000
1, 120040, End_track
2, 0, Start_track
2, 0, Text_t, "random instrument: random person i dunno whatev"
2, 0, Title_t, "Track 1"
2, 0, Note_on_c, 1, 55, 127
2, 0, Note_on_c, 1, 59, 127
2, 0, Note_on_c, 1, 62, 127
2, 0, Note_on_c, 1, 71, 127
2, 0, Note_on_c, 1, 79, 127
2, 40, Note_on_c, 1, 42, 127
2, 40, Note_on_c, 1, 49, 127
2, 40, Note_on_c, 1, 54, 127
2, 40, Note_off_c, 1, 55, 0
2, 40, Note_off_c, 1, 59, 0
2, 40, Note_off_c, 1, 62, 0
2, 40, Note_off_c, 1, 71, 0
2, 40, Note_off_c, 1, 79, 0
2, 40, Note_on_c, 1, 82, 127
2, 40, Note_on_c, 1, 88, 127
2, 40, Note_on_c, 1, 94, 127
2, 80, Note_off_c, 1, 42, 0
2, 80, Note_off_c, 1, 49, 0
2, 80, Note_off_c, 1, 54, 0
2, 80, Note_off_c, 1, 82, 0
2, 80, Note_off_c, 1, 88, 0
2, 80, Note_off_c, 1, 94, 0
2, 120, Note_on_c, 1, 58, 127
2, 120, Note_on_c, 1, 65, 127
2, 120, Note_on_c, 1, 70, 127
2, 120, Note_on_c, 1, 73, 127
2, 120, Note_on_c, 1, 80, 127
2, 160, Note_on_c, 1, 53, 127
2, 160, Note_on_c, 1, 56, 127
2, 160, Note_off_c, 1, 58, 0
2, 160, Note_on_c, 1, 63, 127
2, 160, Note_off_c, 1, 65, 0
2, 160, Note_off_c, 1, 70, 0
2, 160, Note_on_c, 1, 83, 127
2, 200, Note_on_c, 1, 33, 127
2, 200, Note_on_c, 1, 37, 127
2, 200, Note_on_c, 1, 40, 127
2, 200, Note_on_c, 1, 45, 127
2, 200, Note_off_c, 1, 53, 0
2, 200, Note_off_c, 1, 56, 0
2, 200, Note_on_c, 1, 57, 127
2, 200, Note_on_c, 1, 61, 127
2, 200, Note_off_c, 1, 63, 0
2, 200, Note_on_c, 1, 64, 127
2, 200, Note_off_c, 1, 73, 0
2, 200, Note_off_c, 1, 80, 0
2, 200, Note_off_c, 1, 83, 0
2, 240, Note_off_c, 1, 33, 0
2, 240, Note_off_c, 1, 37, 0
2, 240, Note_off_c, 1, 40, 0
2, 240, Note_off_c, 1, 45, 0
2, 240, Note_off_c, 1, 57, 0
2, 240, Note_on_c, 1, 58, 127
2, 240, Note_off_c, 1, 61, 0
2, 240, Note_on_c, 1, 66, 127
2, 240, Note_on_c, 1, 73, 127
2, 240, Note_on_c, 1, 85, 127
2, 360, Note_off_c, 1, 58, 0
2, 360, Note_off_c, 1, 64, 0
2, 360, Note_off_c, 1, 66, 0
2, 360, Note_off_c, 1, 73, 0
2, 360, Note_off_c, 1, 85, 0
2, 400, Note_on_c, 1, 58, 127
2, 400, Note_on_c, 1, 70, 127
2, 600, Note_off_c, 1, 58, 0
2, 600, Note_off_c, 1, 70, 0
2, 640, Note_on_c, 1, 55, 127
2, 640, Note_on_c, 1, 67, 127
2, 800, Note_off_c, 1, 55, 0
2, 800, Note_off_c, 1, 67, 0
2, 880, Note_on_c, 1, 50, 127
2, 880, Note_on_c, 1, 55, 127
2, 880, Note_on_c, 1, 58, 127
2, 880, Note_on_c, 1, 62, 127
2, 1440, Note_off_c, 1, 50, 0
2, 1440, Note_off_c, 1, 55, 0
2, 1440, Note_off_c, 1, 58, 0
2, 1440, Note_off_c, 1, 62, 0
2, 3640, Note_on_c, 1, 62, 127
2, 3640, Note_on_c, 1, 77, 127
2, 3640, Note_on_c, 1, 82, 127
2, 3960, Note_off_c, 1, 62, 0
2, 3960, Note_off_c, 1, 77, 0
2, 3960, Note_off_c, 1, 82, 0
2, 4360, Note_on_c, 1, 82, 127
2, 4640, Note_on_c, 1, 39, 127
2, 4640, Note_on_c, 1, 51, 127
2, 5000, Note_off_c, 1, 39, 0
2, 5000, Note_off_c, 1, 51, 0
2, 5000, Note_off_c, 1, 82, 0
2, 5360, Note_on_c, 1, 63, 127
2, 5360, Note_on_c, 1, 67, 127
2, 5360, Note_on_c, 1, 70, 127
2, 5720, Note_off_c, 1, 70, 0
2, 5760, Note_on_c, 1, 79, 127
2, 5840, Note_off_c, 1, 79, 0
2, 5880, Note_on_c, 1, 79, 127
2, 5960, Note_off_c, 1, 79, 0
2, 6000, Note_on_c, 1, 79, 127
2, 6080, Note_off_c, 1, 63, 0
2, 6080, Note_off_c, 1, 67, 0
2, 6080, Note_off_c, 1, 79, 0
2, 6120, Note_on_c, 1, 79, 127
2, 6520, Note_off_c, 1, 79, 0
2, 6520, Note_on_c, 1, 80, 127
2, 7040, Note_off_c, 1, 80, 0
2, 7080, Note_on_c, 1, 80, 127
2, 8960, Note_off_c, 1, 80, 0
2, 9000, Note_on_c, 1, 77, 127
2, 9120, Note_off_c, 1, 77, 0
2, 9160, Note_on_c, 1, 78, 127
2, 9320, Note_off_c, 1, 78, 0
2, 9400, Note_on_c, 1, 76, 127
2, 9400, Note_on_c, 1, 80, 127
2, 9520, Note_off_c, 1, 76, 0
2, 9520, Note_off_c, 1, 80, 0
2, 9560, Note_on_c, 1, 73, 127
2, 9720, Note_off_c, 1, 73, 0
2, 9760, Note_on_c, 1, 77, 127
2, 9880, Note_off_c, 1, 77, 0
2, 9920, Note_on_c, 1, 76, 127
2, 10080, Note_off_c, 1, 76, 0
2, 10120, Note_on_c, 1, 77, 127
2, 10240, Note_off_c, 1, 77, 0
2, 10280, Note_on_c, 1, 75, 127
2, 10440, Note_off_c, 1, 75, 0
2, 10480, Note_on_c, 1, 74, 127
2, 10600, Note_off_c, 1, 74, 0
2, 10640, Note_on_c, 1, 71, 127
2, 10960, Note_off_c, 1, 71, 0
2, 11000, Note_on_c, 1, 70, 127
2, 11160, Note_off_c, 1, 70, 0
2, 11400, Note_on_c, 1, 70, 127
2, 11520, Note_off_c, 1, 70, 0
2, 11560, Note_on_c, 1, 70, 127
2, 11800, Note_on_c, 1, 61, 127
2, 12120, Note_off_c, 1, 61, 0
2, 12120, Note_off_c, 1, 70, 0
2, 12160, Note_on_c, 1, 65, 127
2, 12160, Note_on_c, 1, 72, 127
2, 12440, Note_off_c, 1, 65, 0
2, 12440, Note_off_c, 1, 72, 0
2, 12480, Note_on_c, 1, 66, 127
2, 12480, Note_on_c, 1, 73, 127
2, 12800, Note_off_c, 1, 66, 0
2, 12800, Note_off_c, 1, 73, 0
2, 12840, Note_on_c, 1, 63, 127
2, 12840, Note_on_c, 1, 72, 127
2, 13160, Note_off_c, 1, 63, 0
2, 13160, Note_off_c, 1, 72, 0
2, 13200, Note_on_c, 1, 65, 127
2, 13200, Note_on_c, 1, 75, 127
2, 13480, Note_off_c, 1, 65, 0
2, 13480, Note_off_c, 1, 75, 0
2, 13520, Note_on_c, 1, 65, 127
2, 13520, Note_on_c, 1, 75, 127
2, 13560, Note_off_c, 1, 65, 0
2, 13560, Note_off_c, 1, 75, 0
2, 13600, Note_on_c, 1, 61, 127
2, 13600, Note_on_c, 1, 73, 127
2, 13920, Note_off_c, 1, 61, 0
2, 13920, Note_off_c, 1, 73, 0
2, 13960, Note_on_c, 1, 65, 127
2, 13960, Note_on_c, 1, 73, 127
2, 14280, Note_off_c, 1, 65, 0
2, 14280, Note_off_c, 1, 73, 0
2, 14320, Note_on_c, 1, 61, 127
2, 14320, Note_on_c, 1, 72, 127
2, 14640, Note_off_c, 1, 61, 0
2, 14640, Note_off_c, 1, 72, 0
2, 14680, Note_on_c, 1, 56, 127
2, 14680, Note_on_c, 1, 71, 127
2, 14680, Note_on_c, 1, 83, 127
2, 15000, Note_off_c, 1, 56, 0
2, 15000, Note_off_c, 1, 71, 0
2, 15000, Note_off_c, 1, 83, 0
2, 15040, Note_on_c, 1, 54, 127
2, 15040, Note_on_c, 1, 62, 127
2, 15040, Note_on_c, 1, 78, 127
2, 15200, Note_off_c, 1, 78, 0
2, 15240, Note_off_c, 1, 54, 0
2, 15240, Note_off_c, 1, 62, 0
2, 15400, Note_on_c, 1, 66, 127
2, 15400, Note_on_c, 1, 73, 127
2, 15560, Note_off_c, 1, 66, 0
2, 15560, Note_off_c, 1, 73, 0
2, 15600, Note_on_c, 1, 66, 127
2, 15600, Note_on_c, 1, 73, 127
2, 15760, Note_off_c, 1, 66, 0
2, 15760, Note_off_c, 1, 73, 0
2, 15800, Note_on_c, 1, 59, 127
2, 15800, Note_on_c, 1, 71, 127
2, 15800, Note_on_c, 1, 75, 127
2, 16120, Note_off_c, 1, 59, 0
2, 16120, Note_off_c, 1, 71, 0
2, 16120, Note_off_c, 1, 75, 0
2, 16160, Note_on_c, 1, 49, 127
2, 16160, Note_on_c, 1, 59, 127
2, 16160, Note_on_c, 1, 68, 127
2, 16840, Note_off_c, 1, 59, 0
2, 16840, Note_off_c, 1, 68, 0
2, 16880, Note_on_c, 1, 58, 127
2, 16880, Note_on_c, 1, 66, 127
2, 17200, Note_off_c, 1, 49, 0
2, 17200, Note_off_c, 1, 58, 0
2, 17200, Note_off_c, 1, 66, 0
2, 17240, Note_on_c, 1, 49, 127
2, 17240, Note_on_c, 1, 56, 127
2, 17240, Note_on_c, 1, 65, 127
2, 17560, Note_off_c, 1, 49, 0
2, 17560, Note_off_c, 1, 56, 0
2, 17560, Note_off_c, 1, 65, 0
2, 17600, Note_on_c, 1, 56, 127
2, 17600, Note_on_c, 1, 66, 127
2, 17600, Note_on_c, 1, 72, 127
2, 17600, Note_on_c, 1, 80, 127
2, 17760, Note_off_c, 1, 56, 0
2, 17760, Note_off_c, 1, 66, 0
2, 17760, Note_off_c, 1, 72, 0
2, 17760, Note_off_c, 1, 80, 0
2, 17800, Note_on_c, 1, 56, 127
2, 17800, Note_on_c, 1, 66, 127
2, 17800, Note_on_c, 1, 72, 127
2, 17800, Note_on_c, 1, 80, 127
2, 17840, Note_off_c, 1, 72, 0
2, 17840, Note_off_c, 1, 80, 0
2, 17880, Note_on_c, 1, 72, 127
2, 17880, Note_on_c, 1, 80, 127
2, 17960, Note_off_c, 1, 56, 0
2, 17960, Note_off_c, 1, 66, 0
2, 17960, Note_off_c, 1, 72, 0
2, 17960, Note_off_c, 1, 80, 0
2, 18000, Note_on_c, 1, 56, 127
2, 18000, Note_on_c, 1, 59, 127
2, 18000, Note_on_c, 1, 62, 127
2, 18000, Note_on_c, 1, 65, 127
2, 18000, Note_on_c, 1, 77, 127
2, 18320, Note_off_c, 1, 56, 0
2, 18320, Note_off_c, 1, 59, 0
2, 18320, Note_off_c, 1, 62, 0
2, 18320, Note_off_c, 1, 65, 0
2, 18320, Note_off_c, 1, 77, 0
2, 18360, Note_on_c, 1, 78, 127
2, 18600, Note_off_c, 1, 78, 0
2, 18640, Note_on_c, 1, 77, 127
2, 18680, Note_off_c, 1, 77, 0
2, 18720, Note_on_c, 1, 56, 127
2, 18720, Note_on_c, 1, 66, 127
2, 18720, Note_on_c, 1, 73, 127
2, 18920, Note_on_c, 1, 72, 127
2, 18920, Note_off_c, 1, 73, 0
2, 18960, Note_off_c, 1, 72, 0
2, 18960, Note_on_c, 1, 73, 127
2, 19040, Note_off_c, 1, 56, 0
2, 19040, Note_off_c, 1, 66, 0
2, 19040, Note_off_c, 1, 73, 0
2, 19080, Note_on_c, 1, 61, 127
2, 19080, Note_on_c, 1, 65, 127
2, 19080, Note_on_c, 1, 73, 127
2, 19360, Note_off_c, 1, 61, 0
2, 19360, Note_off_c, 1, 73, 0
2, 19400, Note_on_c, 1, 56, 127
2, 19400, Note_on_c, 1, 77, 127
2, 19720, Note_off_c, 1, 56, 0
2, 19720, Note_off_c, 1, 65, 0
2, 19720, Note_off_c, 1, 77, 0
2, 19800, Note_on_c, 1, 61, 127
2, 19800, Note_on_c, 1, 77, 127
2, 19960, Note_off_c, 1, 77, 0
2, 20120, Note_off_c, 1, 61, 0
2, 20160, Note_on_c, 1, 56, 127
2, 20160, Note_on_c, 1, 72, 127
2, 20160, Note_on_c, 1, 80, 127
2, 20480, Note_off_c, 1, 56, 0
2, 20480, Note_off_c, 1, 72, 0
2, 20480, Note_off_c, 1, 80, 0
2, 20520, Note_on_c, 1, 54, 127
2, 20520, Note_on_c, 1, 63, 127
2, 20520, Note_on_c, 1, 82, 127
2, 20640, Note_off_c, 1, 82, 0
2, 20680, Note_on_c, 1, 82, 127
2, 20840, Note_off_c, 1, 54, 0
2, 20840, Note_off_c, 1, 63, 0
2, 20840, Note_off_c, 1, 82, 0
2, 20880, Note_on_c, 1, 65, 127
2, 20880, Note_on_c, 1, 80, 127
2, 21200, Note_off_c, 1, 65, 0
2, 21240, Note_on_c, 1, 60, 127
2, 21240, Note_on_c, 1, 66, 127
2, 21560, Note_off_c, 1, 60, 0
2, 21560, Note_off_c, 1, 66, 0
2, 21560, Note_off_c, 1, 80, 0
2, 21600, Note_on_c, 1, 60, 127
2, 21600, Note_on_c, 1, 66, 127
2, 21600, Note_on_c, 1, 78, 127
2, 21880, Note_off_c, 1, 60, 0
2, 21880, Note_off_c, 1, 66, 0
2, 21880, Note_off_c, 1, 78, 0
2, 21920, Note_on_c, 1, 60, 127
2, 21920, Note_on_c, 1, 66, 127
2, 21920, Note_on_c, 1, 78, 127
2, 21960, Note_on_c, 1, 59, 127
2, 21960, Note_off_c, 1, 60, 0
2, 21960, Note_off_c, 1, 66, 0
2, 21960, Note_off_c, 1, 78, 0
2, 22000, Note_on_c, 1, 68, 127
2, 22000, Note_on_c, 1, 76, 127
2, 22000, Note_on_c, 1, 80, 127
2, 22320, Note_off_c, 1, 59, 0
2, 22320, Note_off_c, 1, 68, 0
2, 22320, Note_off_c, 1, 76, 0
2, 22320, Note_off_c, 1, 80, 0
2, 22360, Note_on_c, 1, 61, 127
2, 22360, Note_on_c, 1, 64, 127
2, 22360, Note_on_c, 1, 69, 127
2, 22360, Note_on_c, 1, 73, 127
2, 22360, Note_on_c, 1, 85, 127
2, 22480, Note_on_c, 1, 36, 127
2, 22480, Note_off_c, 1, 61, 0
2, 22480, Note_off_c, 1, 64, 0
2, 22480, Note_off_c, 1, 73, 0
2, 22480, Note_on_c, 1, 81, 127
2, 22480, Note_off_c, 1, 85, 0
2, 22520, Note_off_c, 1, 36, 0
2, 22520, Note_on_c, 1, 61, 127
2, 22520, Note_on_c, 1, 64, 127
2, 22520, Note_on_c, 1, 73, 127
2, 22640, Note_off_c, 1, 64, 0
2, 22640, Note_off_c, 1, 73, 0
2, 22680, Note_off_c, 1, 61, 0
2, 22680, Note_off_c, 1, 69, 0
2, 22680, Note_off_c, 1, 81, 0
2, 22720, Note_on_c, 1, 63, 127
2, 22720, Note_on_c, 1, 70, 127
2, 22720, Note_on_c, 1, 82, 127
2, 22720, Note_on_c, 1, 90, 127
2, 23040, Note_off_c, 1, 63, 0
2, 23040, Note_off_c, 1, 70, 0
2, 23040, Note_off_c, 1, 82, 0
2, 23040, Note_off_c, 1, 90, 0
2, 23080, Note_on_c, 1, 56, 127
2, 23080, Note_on_c, 1, 80, 127
2, 23080, Note_on_c, 1, 89, 127
2, 23360, Note_off_c, 1, 56, 0
2, 23440, Note_on_c, 1, 61, 127
2, 23440, Note_on_c, 1, 77, 127
2, 23440, Note_off_c, 1, 80, 0
2, 23440, Note_on_c, 1, 85, 127
2, 23440, Note_off_c, 1, 89, 0
2, 23760, Note_off_c, 1, 61, 0
2, 23760, Note_off_c, 1, 77, 0
2, 23760, Note_off_c, 1, 85, 0
2, 23800, Note_on_c, 1, 75, 127
2, 23800, Note_on_c, 1, 85, 127
2, 24000, Note_off_c, 1, 75, 0
2, 24000, Note_off_c, 1, 85, 0
2, 24040, Note_on_c, 1, 75, 127
2, 24040, Note_on_c, 1, 85, 127
2, 24160, Note_off_c, 1, 75, 0
2, 24160, Note_off_c, 1, 85, 0
2, 24200, Note_on_c, 1, 77, 127
2, 24200, Note_on_c, 1, 80, 127
2, 24200, Note_on_c, 1, 89, 127
2, 24560, Note_on_c, 1, 65, 127
2, 24560, Note_on_c, 1, 72, 127
2, 24560, Note_off_c, 1, 89, 0
2, 24880, Note_off_c, 1, 65, 0
2, 24880, Note_off_c, 1, 72, 0
2, 24880, Note_on_c, 1, 73, 127
2, 24880, Note_off_c, 1, 80, 0
2, 24880, Note_on_c, 1, 85, 127
2, 24920, Note_on_c, 1, 61, 127
2, 24920, Note_off_c, 1, 73, 0
2, 25240, Note_off_c, 1, 61, 0
2, 25240, Note_off_c, 1, 77, 0
2, 25240, Note_off_c, 1, 85, 0
2, 25280, Note_on_c, 1, 59, 127
2, 25280, Note_on_c, 1, 77, 127
2, 25280, Note_on_c, 1, 85, 127
2, 25600, Note_off_c, 1, 59, 0
2, 25640, Note_on_c, 1, 59, 127
2, 25640, Note_on_c, 1, 81, 127
2, 25960, Note_off_c, 1, 59, 0
2, 25960, Note_off_c, 1, 77, 0
2, 25960, Note_off_c, 1, 81, 0
2, 25960, Note_on_c, 1, 82, 127
2, 25960, Note_off_c, 1, 85, 0
2, 26000, Note_on_c, 1, 53, 127
2, 26000, Note_on_c, 1, 58, 127
2, 26000, Note_off_c, 1, 82, 0
2, 26000, Note_on_c, 1, 94, 127
2, 26000, Note_on_c, 1, 98, 127
2, 26040, Note_off_c, 1, 53, 0
2, 26040, Note_off_c, 1, 58, 0
2, 26040, Note_on_c, 1, 64, 127
2, 26040, Note_on_c, 1, 77, 127
2, 26040, Note_on_c, 1, 78, 127
2, 26040, Note_off_c, 1, 94, 0
2, 26040, Note_off_c, 1, 98, 0
2, 26080, Note_on_c, 1, 58, 127
2, 26080, Note_off_c, 1, 64, 0
2, 26080, Note_off_c, 1, 77, 0
2, 26080, Note_on_c, 1, 88, 127
2, 26120, Note_off_c, 1, 58, 0
2, 26120, Note_off_c, 1, 78, 0
2, 26120, Note_off_c, 1, 88, 0
2, 26200, Note_on_c, 1, 46, 127
2, 26200, Note_on_c, 1, 78, 127
2, 26200, Note_on_c, 1, 83, 127
2, 26240, Note_off_c, 1, 46, 0
2, 26240, Note_on_c, 1, 55, 127
2, 26240, Note_off_c, 1, 78, 0
2, 26240, Note_off_c, 1, 83, 0
2, 26240, Note_on_c, 1, 86, 127
2, 26240, Note_on_c, 1, 93, 127
2, 26280, Note_on_c, 1, 43, 127
2, 26280, Note_on_c, 1, 47, 127
2, 26280, Note_on_c, 1, 52, 127
2, 26280, Note_on_c, 1, 71, 127
2, 26280, Note_on_c, 1, 76, 127
2, 26280, Note_on_c, 1, 79, 127
2, 26280, Note_on_c, 1, 83, 127
2, 26280, Note_off_c, 1, 86, 0
2, 26280, Note_off_c, 1, 93, 0
2, 26320, Note_off_c, 1, 43, 0
2, 26320, Note_off_c, 1, 47, 0
2, 26320, Note_off_c, 1, 52, 0
2, 26320, Note_off_c, 1, 55, 0
2, 26320, Note_on_c, 1, 57, 127
2, 26320, Note_on_c, 1, 70, 127
2, 26320, Note_off_c, 1, 71, 0
2, 26320, Note_on_c, 1, 74, 127
2, 26320, Note_off_c, 1, 76, 0
2, 26320, Note_off_c, 1, 79, 0
2, 26320, Note_on_c, 1, 82, 127
2, 26320, Note_off_c, 1, 83, 0
2, 26360, Note_on_c, 1, 38, 127
2, 26360, Note_on_c, 1, 50, 127
2, 26360, Note_off_c, 1, 57, 0
2, 26360, Note_off_c, 1, 70, 0
2, 26360, Note_on_c, 1, 71, 127
2, 26360, Note_off_c, 1, 74, 0
2, 26360, Note_on_c, 1, 77, 127
2, 26360, Note_off_c, 1, 82, 0
2, 26360, Note_on_c, 1, 83, 127
2, 26400, Note_off_c, 1, 38, 0
2, 26400, Note_off_c, 1, 50, 0
2, 26400, Note_off_c, 1, 71, 0
2, 26400, Note_off_c, 1, 77, 0
2, 26400, Note_on_c, 1, 82, 127
2, 26400, Note_off_c, 1, 83, 0
2, 26400, Note_on_c, 1, 84, 127
2, 26440, Note_on_c, 1, 53, 127
2, 26440, Note_on_c, 1, 57, 127
2, 26440, Note_on_c, 1, 63, 127
2, 26440, Note_off_c, 1, 82, 0
2, 26440, Note_off_c, 1, 84, 0
2, 26440, Note_on_c, 1, 87, 127
2, 26760, Note_off_c, 1, 53, 0
2, 26760, Note_off_c, 1, 57, 0
2, 26760, Note_off_c, 1, 63, 0
2, 26760, Note_off_c, 1, 87, 0
2, 26800, Note_on_c, 1, 53, 127
2, 26800, Note_on_c, 1, 57, 127
2, 26800, Note_on_c, 1, 63, 127
2, 26800, Note_on_c, 1, 87, 127
2, 27120, Note_off_c, 1, 53, 0
2, 27120, Note_off_c, 1, 57, 0
2, 27120, Note_off_c, 1, 63, 0
2, 27120, Note_off_c, 1, 87, 0
2, 27160, Note_on_c, 1, 60, 127
2, 27160, Note_on_c, 1, 72, 127
2, 27160, Note_on_c, 1, 84, 127
2, 27160, Note_on_c, 1, 94, 127
2, 27240, Note_on_c, 1, 55, 127
2, 27240, Note_on_c, 1, 57, 127
2, 27240, Note_off_c, 1, 60, 0
2, 27240, Note_on_c, 1, 62, 127
2, 27240, Note_off_c, 1, 72, 0
2, 27240, Note_on_c, 1, 81, 127
2, 27240, Note_off_c, 1, 84, 0
2, 27240, Note_on_c, 1, 86, 127
2, 27240, Note_off_c, 1, 94, 0
2, 27280, Note_on_c, 1, 41, 127
2, 27280, Note_on_c, 1, 53, 127
2, 27280, Note_off_c, 1, 55, 0
2, 27280, Note_on_c, 1, 56, 127
2, 27280, Note_off_c, 1, 57, 0
2, 27280, Note_on_c, 1, 60, 127
2, 27280, Note_off_c, 1, 62, 0
2, 27280, Note_on_c, 1, 65, 127
2, 27280, Note_on_c, 1, 67, 127
2, 27280, Note_off_c, 1, 81, 0
2, 27280, Note_off_c, 1, 86, 0
2, 27320, Note_off_c, 1, 41, 0
2, 27320, Note_on_c, 1, 42, 127
2, 27320, Note_on_c, 1, 51, 127
2, 27320, Note_off_c, 1, 53, 0
2, 27320, Note_off_c, 1, 56, 0
2, 27320, Note_off_c, 1, 60, 0
2, 27320, Note_off_c, 1, 65, 0
2, 27320, Note_off_c, 1, 67, 0
2, 27320, Note_on_c, 1, 72, 127
2, 27320, Note_on_c, 1, 81, 127
2, 27360, Note_off_c, 1, 42, 0
2, 27360, Note_off_c, 1, 51, 0
2, 27360, Note_on_c, 1, 60, 127
2, 27360, Note_off_c, 1, 81, 0
2, 27360, Note_on_c, 1, 84, 127
2, 27360, Note_on_c, 1, 94, 127
2, 27440, Note_on_c, 1, 40, 127
2, 27440, Note_off_c, 1, 60, 0
2, 27440, Note_off_c, 1, 72, 0
2, 27440, Note_off_c, 1, 84, 0
2, 27440, Note_on_c, 1, 95, 127
2, 27480, Note_off_c, 1, 40, 0
2, 27480, Note_off_c, 1, 94, 0
2, 27480, Note_off_c, 1, 95, 0
2, 27520, Note_on_c, 1, 53, 127
2, 27520, Note_on_c, 1, 56, 127
2, 27520, Note_on_c, 1, 70, 127
2, 27520, Note_on_c, 1, 80, 127
2, 27560, Note_off_c, 1, 53, 0
2, 27560, Note_off_c, 1, 56, 0
2, 27560, Note_on_c, 1, 59, 127
2, 27560, Note_off_c, 1, 70, 0
2, 27560, Note_off_c, 1, 80, 0
2, 27560, Note_on_c, 1, 88, 127
2, 27560, Note_on_c, 1, 95, 127
2, 27560, Note_on_c, 1, 97, 127
2, 27600, Note_on_c, 1, 39, 127
2, 27600, Note_on_c, 1, 46, 127
2, 27600, Note_on_c, 1, 54, 127
2, 27600, Note_on_c, 1, 58, 127
2, 27600, Note_off_c, 1, 59, 0
2, 27600, Note_on_c, 1, 66, 127
2, 27600, Note_off_c, 1, 88, 0
2, 27600, Note_off_c, 1, 95, 0
2, 27600, Note_off_c, 1, 97, 0
2, 27640, Note_off_c, 1, 39, 0
2, 27640, Note_off_c, 1, 46, 0
2, 27640, Note_on_c, 1, 51, 127
2, 27640, Note_off_c, 1, 54, 0
2, 27640, Note_off_c, 1, 58, 0
2, 27640, Note_off_c, 1, 66, 0
2, 27640, Note_on_c, 1, 78, 127
2, 27640, Note_on_c, 1, 87, 127
2, 27680, Note_on_c, 1, 49, 127
2, 27680, Note_off_c, 1, 51, 0
2, 27680, Note_on_c, 1, 61, 127
2, 27680, Note_off_c, 1, 78, 0
2, 27680, Note_on_c, 1, 89, 127
2, 27720, Note_off_c, 1, 49, 0
2, 27720, Note_on_c, 1, 58, 127
2, 27720, Note_off_c, 1, 61, 0
2, 27720, Note_on_c, 1, 70, 127
2, 27720, Note_on_c, 1, 75, 127
2, 27720, Note_on_c, 1, 79, 127
2, 27720, Note_on_c, 1, 82, 127
2, 27720, Note_off_c, 1, 87, 0
2, 27720, Note_off_c, 1, 89, 0
2, 27760, Note_on_c, 1, 49, 127
2, 27760, Note_off_c, 1, 58, 0
2, 27760, Note_off_c, 1, 70, 0
2, 27760, Note_off_c, 1, 79, 0
2, 27800, Note_off_c, 1, 49, 0
2, 27800, Note_on_c, 1, 53, 127
2, 27800, Note_on_c, 1, 63, 127
2, 27800, Note_on_c, 1, 70, 127
2, 27800, Note_off_c, 1, 82, 0
2, 27840, Note_off_c, 1, 53, 0
2, 27840, Note_off_c, 1, 63, 0
2, 27840, Note_off_c, 1, 70, 0
2, 27840, Note_off_c, 1, 75, 0
2, 27880, Note_on_c, 1, 58, 127
2, 27880, Note_on_c, 1, 76, 127
2, 27880, Note_on_c, 1, 85, 127
2, 28200, Note_off_c, 1, 58, 0
2, 28200, Note_off_c, 1, 76, 0
2, 28240, Note_on_c, 1, 66, 127
2, 28240, Note_on_c, 1, 73, 127
2, 28240, Note_on_c, 1, 82, 127
2, 28240, Note_off_c, 1, 85, 0
2, 28240, Note_on_c, 1, 94, 127
2, 28560, Note_off_c, 1, 94, 0
2, 28600, Note_off_c, 1, 66, 0
2, 28600, Note_off_c, 1, 73, 0
2, 28600, Note_off_c, 1, 82, 0
2, 28640, Note_on_c, 1, 66, 127
2, 28640, Note_on_c, 1, 73, 127
2, 28640, Note_on_c, 1, 82, 127
2, 28640, Note_on_c, 1, 90, 127
2, 28920, Note_off_c, 1, 66, 0
2, 28920, Note_off_c, 1, 73, 0
2, 28920, Note_off_c, 1, 90, 0
2, 28960, Note_on_c, 1, 61, 127
2, 28960, Note_on_c, 1, 66, 127
2, 28960, Note_on_c, 1, 78, 127
2, 29280, Note_off_c, 1, 61, 0
2, 29280, Note_off_c, 1, 66, 0
2, 29280, Note_off_c, 1, 78, 0
2, 29280, Note_off_c, 1, 82, 0
2, 29320, Note_on_c, 1, 75, 127
2, 29320, Note_on_c, 1, 82, 127
2, 29320, Note_on_c, 1, 90, 127
2, 29600, Note_off_c, 1, 82, 0
2, 29600, Note_off_c, 1, 90, 0
2, 29680, Note_on_c, 1, 51, 127
2, 29680, Note_on_c, 1, 54, 127
2, 29680, Note_off_c, 1, 75, 0
2, 29680, Note_on_c, 1, 78, 127
2, 29680, Note_on_c, 1, 83, 127
2, 30000, Note_off_c, 1, 51, 0
2, 30000, Note_off_c, 1, 54, 0
2, 30000, Note_off_c, 1, 78, 0
2, 30000, Note_off_c, 1, 83, 0
2, 30040, Note_on_c, 1, 68, 127
2, 30040, Note_on_c, 1, 75, 127
2, 30040, Note_on_c, 1, 79, 127
2, 30040, Note_on_c, 1, 82, 127
2, 30320, Note_off_c, 1, 79, 0
2, 30320, Note_off_c, 1, 82, 0
2, 30320, Note_on_c, 1, 84, 127
2, 30320, Note_on_c, 1, 87, 127
2, 30360, Note_off_c, 1, 68, 0
2, 30360, Note_off_c, 1, 75, 0
2, 30360, Note_off_c, 1, 84, 0
2, 30360, Note_off_c, 1, 87, 0
2, 30400, Note_on_c, 1, 44, 127
2, 30400, Note_on_c, 1, 56, 127
2, 30400, Note_on_c, 1, 71, 127
2, 30400, Note_on_c, 1, 75, 127
2, 30400, Note_on_c, 1, 80, 127
2, 30400, Note_on_c, 1, 83, 127
2, 30640, Note_off_c, 1, 44, 0
2, 30640, Note_off_c, 1, 56, 0
2, 30640, Note_off_c, 1, 71, 0
2, 30640, Note_off_c, 1, 75, 0
2, 30640, Note_off_c, 1, 80, 0
2, 30640, Note_off_c, 1, 83, 0
2, 30680, Note_on_c, 1, 44, 127
2, 30680, Note_on_c, 1, 56, 127
2, 30680, Note_on_c, 1, 71, 127
2, 30680, Note_on_c, 1, 75, 127
2, 30680, Note_on_c, 1, 80, 127
2, 30680, Note_on_c, 1, 83, 127
2, 30720, Note_off_c, 1, 44, 0
2, 30720, Note_off_c, 1, 56, 0
2, 30720, Note_off_c, 1, 71, 0
2, 30720, Note_off_c, 1, 75, 0
2, 30720, Note_off_c, 1, 80, 0
2, 30720, Note_off_c, 1, 83, 0
2, 30760, Note_on_c, 1, 31, 127
2, 30760, Note_on_c, 1, 39, 127
2, 30760, Note_on_c, 1, 43, 127
2, 30760, Note_on_c, 1, 58, 127
2, 31080, Note_off_c, 1, 31, 0
2, 31080, Note_off_c, 1, 39, 0
2, 31080, Note_off_c, 1, 43, 0
2, 31080, Note_off_c, 1, 58, 0
2, 31120, Note_on_c, 1, 34, 127
2, 31120, Note_on_c, 1, 46, 127
2, 31120, Note_on_c, 1, 66, 127
2, 31120, Note_on_c, 1, 75, 127
2, 31440, Note_off_c, 1, 34, 0
2, 31440, Note_off_c, 1, 46, 0
2, 31440, Note_off_c, 1, 66, 0
2, 31440, Note_off_c, 1, 75, 0
2, 31480, Note_on_c, 1, 49, 127
2, 31480, Note_on_c, 1, 53, 127
2, 31480, Note_on_c, 1, 65, 127
2, 31480, Note_on_c, 1, 73, 127
2, 31800, Note_off_c, 1, 49, 0
2, 31800, Note_off_c, 1, 53, 0
2, 31800, Note_off_c, 1, 65, 0
2, 31800, Note_off_c, 1, 73, 0
2, 31840, Note_on_c, 1, 57, 127
2, 31840, Note_on_c, 1, 60, 127
2, 31840, Note_on_c, 1, 65, 127
2, 31840, Note_on_c, 1, 69, 127
2, 31840, Note_on_c, 1, 77, 127
2, 31840, Note_on_c, 1, 89, 127
2, 31880, Note_on_c, 1, 48, 127
2, 31880, Note_off_c, 1, 60, 0
2, 31880, Note_off_c, 1, 65, 0
2, 31880, Note_on_c, 1, 66, 127
2, 31880, Note_off_c, 1, 69, 0
2, 31880, Note_off_c, 1, 77, 0
2, 31880, Note_on_c, 1, 78, 127
2, 31880, Note_off_c, 1, 89, 0
2, 31920, Note_off_c, 1, 48, 0
2, 31920, Note_on_c, 1, 60, 127
2, 31920, Note_on_c, 1, 65, 127
2, 31920, Note_off_c, 1, 66, 0
2, 31920, Note_on_c, 1, 69, 127
2, 31920, Note_on_c, 1, 77, 127
2, 31920, Note_off_c, 1, 78, 0
2, 31920, Note_on_c, 1, 89, 127
2, 31960, Note_off_c, 1, 57, 0
2, 31960, Note_off_c, 1, 60, 0
2, 31960, Note_off_c, 1, 65, 0
2, 31960, Note_off_c, 1, 69, 0
2, 31960, Note_off_c, 1, 77, 0
2, 31960, Note_on_c, 1, 85, 127
2, 31960, Note_off_c, 1, 89, 0
2, 31960, Note_on_c, 1, 90, 127
2, 31960, Note_on_c, 1, 97, 127
2, 32000, Note_on_c, 1, 52, 127
2, 32000, Note_on_c, 1, 57, 127
2, 32000, Note_on_c, 1, 60, 127
2, 32000, Note_on_c, 1, 64, 127
2, 32000, Note_off_c, 1, 85, 0
2, 32000, Note_off_c, 1, 90, 0
2, 32000, Note_on_c, 1, 96, 127
2, 32000, Note_off_c, 1, 97, 0
2, 32160, Note_off_c, 1, 52, 0
2, 32160, Note_off_c, 1, 57, 0
2, 32160, Note_off_c, 1, 60, 0
2, 32160, Note_off_c, 1, 64, 0
2, 32160, Note_off_c, 1, 96, 0
2, 32200, Note_on_c, 1, 47, 127
2, 32200, Note_on_c, 1, 57, 127
2, 32200, Note_on_c, 1, 61, 127
2, 32200, Note_on_c, 1, 64, 127
2, 32200, Note_on_c, 1, 73, 127
2, 32320, Note_off_c, 1, 61, 0
2, 32320, Note_off_c, 1, 64, 0
2, 32320, Note_off_c, 1, 73, 0
2, 32360, Note_off_c, 1, 47, 0
2, 32360, Note_on_c, 1, 56, 127
2, 32360, Note_off_c, 1, 57, 0
2, 32360, Note_on_c, 1, 60, 127
2, 32360, Note_on_c, 1, 66, 127
2, 32360, Note_on_c, 1, 68, 127
2, 32360, Note_on_c, 1, 77, 127
2, 32360, Note_on_c, 1, 80, 127
2, 32400, Note_off_c, 1, 56, 0
2, 32400, Note_off_c, 1, 60, 0
2, 32400, Note_on_c, 1, 61, 127
2, 32400, Note_on_c, 1, 65, 127
2, 32400, Note_off_c, 1, 66, 0
2, 32400, Note_on_c, 1, 70, 127
2, 32400, Note_off_c, 1, 77, 0
2, 32400, Note_off_c, 1, 80, 0
2, 32400, Note_on_c, 1, 84, 127
2, 32400, Note_on_c, 1, 87, 127
2, 32440, Note_on_c, 1, 39, 127
2, 32440, Note_on_c, 1, 51, 127
2, 32440, Note_off_c, 1, 61, 0
2, 32440, Note_off_c, 1, 68, 0
2, 32440, Note_off_c, 1, 70, 0
2, 32440, Note_on_c, 1, 77, 127
2, 32440, Note_off_c, 1, 84, 0
2, 32440, Note_off_c, 1, 87, 0
2, 32440, Note_on_c, 1, 89, 127
2, 32480, Note_on_c, 1, 37, 127
2, 32480, Note_off_c, 1, 39, 0
2, 32480, Note_off_c, 1, 51, 0
2, 32480, Note_off_c, 1, 65, 0
2, 32480, Note_on_c, 1, 71, 127
2, 32480, Note_on_c, 1, 76, 127
2, 32480, Note_off_c, 1, 77, 0
2, 32480, Note_on_c, 1, 82, 127
2, 32480, Note_off_c, 1, 89, 0
2, 32520, Note_off_c, 1, 37, 0
2, 32520, Note_off_c, 1, 71, 0
2, 32520, Note_off_c, 1, 76, 0
2, 32520, Note_off_c, 1, 82, 0
2, 32560, Note_on_c, 1, 65, 127
2, 32560, Note_on_c, 1, 77, 127
2, 32560, Note_on_c, 1, 79, 127
2, 32560, Note_on_c, 1, 86, 127
2, 32560, Note_on_c, 1, 89, 127
2, 32600, Note_on_c, 1, 54, 127
2, 32600, Note_on_c, 1, 57, 127
2, 32600, Note_on_c, 1, 61, 127
2, 32600, Note_off_c, 1, 65, 0
2, 32600, Note_on_c, 1, 73, 127
2, 32600, Note_off_c, 1, 77, 0
2, 32600, Note_on_c, 1, 78, 127
2, 32600, Note_off_c, 1, 79, 0
2, 32600, Note_on_c, 1, 81, 127
2, 32600, Note_on_c, 1, 85, 127
2, 32600, Note_off_c, 1, 86, 0
2, 32600, Note_off_c, 1, 89, 0
2, 32640, Note_off_c, 1, 54, 0
2, 32640, Note_off_c, 1, 57, 0
2, 32640, Note_off_c, 1, 61, 0
2, 32640, Note_off_c, 1, 73, 0
2, 32640, Note_off_c, 1, 78, 0
2, 32640, Note_off_c, 1, 81, 0
2, 32640, Note_off_c, 1, 85, 0
2, 32680, Note_on_c, 1, 38, 127
2, 32680, Note_on_c, 1, 50, 127
2, 32680, Note_on_c, 1, 59, 127
2, 32680, Note_on_c, 1, 71, 127
2, 32680, Note_on_c, 1, 80, 127
2, 32680, Note_on_c, 1, 92, 127
2, 32720, Note_off_c, 1, 38, 0
2, 32720, Note_off_c, 1, 50, 0
2, 32720, Note_on_c, 1, 54, 127
2, 32720, Note_off_c, 1, 59, 0
2, 32720, Note_off_c, 1, 71, 0
2, 32720, Note_off_c, 1, 80, 0
2, 32720, Note_on_c, 1, 90, 127
2, 32720, Note_off_c, 1, 92, 0
2, 32720, Note_on_c, 1, 102, 127
2, 32760, Note_off_c, 1, 54, 0
2, 32760, Note_on_c, 1, 65, 127
2, 32760, Note_on_c, 1, 81, 127
2, 32760, Note_on_c, 1, 89, 127
2, 32760, Note_off_c, 1, 90, 0
2, 32760, Note_on_c, 1, 93, 127
2, 32760, Note_off_c, 1, 102, 0
2, 32840, Note_off_c, 1, 65, 0
2, 32880, Note_off_c, 1, 81, 0
2, 32880, Note_off_c, 1, 89, 0
2, 32880, Note_off_c, 1, 93, 0
2, 32920, Note_on_c, 1, 33, 127
2, 32920, Note_on_c, 1, 45, 127
2, 32920, Note_on_c, 1, 65, 127
2, 32920, Note_on_c, 1, 72, 127
2, 32920, Note_on_c, 1, 75, 127
2, 33240, Note_off_c, 1, 33, 0
2, 33240, Note_off_c, 1, 45, 0
2, 33240, Note_off_c, 1, 65, 0
2, 33240, Note_off_c, 1, 72, 0
2, 33240, Note_off_c, 1, 75, 0
2, 33280, Note_on_c, 1, 68, 127
2, 33280, Note_on_c, 1, 76, 127
2, 33280, Note_on_c, 1, 79, 127
2, 33280, Note_on_c, 1, 84, 127
2, 33320, Note_on_c, 1, 40, 127
2, 33320, Note_on_c, 1, 52, 127
2, 33320, Note_off_c, 1, 68, 0
2, 33320, Note_on_c, 1, 74, 127
2, 33320, Note_off_c, 1, 76, 0
2, 33320, Note_off_c, 1, 79, 0
2, 33360, Note_on_c, 1, 33, 127
2, 33360, Note_off_c, 1, 40, 0
2, 33360, Note_on_c, 1, 45, 127
2, 33360, Note_off_c, 1, 52, 0
2, 33360, Note_on_c, 1, 57, 127
2, 33360, Note_on_c, 1, 62, 127
2, 33360, Note_on_c, 1, 66, 127
2, 33360, Note_off_c, 1, 74, 0
2, 33360, Note_off_c, 1, 84, 0
2, 33400, Note_off_c, 1, 33, 0
2, 33400, Note_off_c, 1, 45, 0
2, 33400, Note_off_c, 1, 57, 0
2, 33400, Note_off_c, 1, 62, 0
2, 33400, Note_on_c, 1, 63, 127
2, 33400, Note_on_c, 1, 68, 127
2, 33400, Note_on_c, 1, 92, 127
2, 33440, Note_off_c, 1, 63, 0
2, 33440, Note_off_c, 1, 66, 0
2, 33440, Note_on_c, 1, 85, 127
2, 33440, Note_off_c, 1, 92, 0
2, 33480, Note_on_c, 1, 47, 127
2, 33480, Note_on_c, 1, 52, 127
2, 33480, Note_off_c, 1, 68, 0
2, 33480, Note_on_c, 1, 70, 127
2, 33480, Note_on_c, 1, 73, 127
2, 33480, Note_off_c, 1, 85, 0
2, 33560, Note_on_c, 1, 37, 127
2, 33560, Note_off_c, 1, 47, 0
2, 33560, Note_on_c, 1, 49, 127
2, 33560, Note_off_c, 1, 52, 0
2, 33560, Note_on_c, 1, 58, 127
2, 33560, Note_on_c, 1, 63, 127
2, 33560, Note_on_c, 1, 67, 127
2, 33560, Note_off_c, 1, 70, 0
2, 33560, Note_off_c, 1, 73, 0
2, 33600, Note_off_c, 1, 37, 0
2, 33600, Note_off_c, 1, 49, 0
2, 33600, Note_off_c, 1, 58, 0
2, 33600, Note_off_c, 1, 63, 0
2, 33600, Note_off_c, 1, 67, 0
2, 33640, Note_on_c, 1, 59, 127
2, 33640, Note_on_c, 1, 63, 127
2, 33640, Note_on_c, 1, 66, 127
2, 33640, Note_on_c, 1, 71, 127
2, 33640, Note_on_c, 1, 78, 127
2, 33640, Note_on_c, 1, 90, 127
2, 33960, Note_off_c, 1, 59, 0
2, 33960, Note_off_c, 1, 63, 0
2, 33960, Note_off_c, 1, 66, 0
2, 33960, Note_off_c, 1, 71, 0
2, 33960, Note_off_c, 1, 78, 0
2, 33960, Note_off_c, 1, 90, 0
2, 34000, Note_on_c, 1, 51, 127
2, 34000, Note_on_c, 1, 63, 127
2, 34000, Note_on_c, 1, 70, 127
2, 34000, Note_on_c, 1, 75, 127
2, 34000, Note_on_c, 1, 79, 127
2, 34000, Note_on_c, 1, 82, 127
2, 34120, Note_off_c, 1, 51, 0
2, 34120, Note_off_c, 1, 63, 0
2, 34120, Note_off_c, 1, 70, 0
2, 34120, Note_off_c, 1, 75, 0
2, 34120, Note_off_c, 1, 79, 0
2, 34120, Note_off_c, 1, 82, 0
2, 34160, Note_on_c, 1, 58, 127
2, 34160, Note_on_c, 1, 63, 127
2, 34160, Note_on_c, 1, 67, 127
2, 34160, Note_on_c, 1, 93, 127
2, 34320, Note_off_c, 1, 58, 0
2, 34320, Note_off_c, 1, 63, 0
2, 34320, Note_off_c, 1, 67, 0
2, 34320, Note_off_c, 1, 93, 0
2, 34360, Note_on_c, 1, 58, 127
2, 34360, Note_on_c, 1, 63, 127
2, 34360, Note_on_c, 1, 67, 127
2, 34360, Note_on_c, 1, 93, 127
2, 34480, Note_off_c, 1, 58, 0
2, 34480, Note_off_c, 1, 63, 0
2, 34480, Note_off_c, 1, 67, 0
2, 34480, Note_off_c, 1, 93, 0
2, 34520, Note_on_c, 1, 40, 127
2, 34520, Note_on_c, 1, 52, 127
2, 34520, Note_on_c, 1, 67, 127
2, 34520, Note_on_c, 1, 71, 127
2, 34520, Note_on_c, 1, 75, 127
2, 34640, Note_off_c, 1, 40, 0
2, 34640, Note_off_c, 1, 52, 0
2, 34640, Note_off_c, 1, 67, 0
2, 34640, Note_off_c, 1, 71, 0
2, 34640, Note_off_c, 1, 75, 0
2, 34680, Note_on_c, 1, 40, 127
2, 34680, Note_on_c, 1, 52, 127
2, 34680, Note_on_c, 1, 67, 127
2, 34680, Note_on_c, 1, 71, 127
2, 34680, Note_on_c, 1, 75, 127
2, 34880, Note_off_c, 1, 40, 0
2, 34880, Note_off_c, 1, 52, 0
2, 34880, Note_off_c, 1, 67, 0
2, 34880, Note_off_c, 1, 71, 0
2, 34880, Note_off_c, 1, 75, 0
2, 34920, Note_on_c, 1, 40, 127
2, 34920, Note_on_c, 1, 52, 127
2, 34920, Note_on_c, 1, 61, 127
2, 34920, Note_on_c, 1, 68, 127
2, 34920, Note_on_c, 1, 73, 127
2, 35240, Note_off_c, 1, 40, 0
2, 35240, Note_off_c, 1, 52, 0
2, 35240, Note_off_c, 1, 61, 0
2, 35240, Note_off_c, 1, 68, 0
2, 35240, Note_off_c, 1, 73, 0
2, 35280, Note_on_c, 1, 40, 127
2, 35280, Note_on_c, 1, 52, 127
2, 35280, Note_on_c, 1, 64, 127
2, 35280, Note_on_c, 1, 68, 127
2, 35280, Note_on_c, 1, 73, 127
2, 35600, Note_off_c, 1, 40, 0
2, 35600, Note_off_c, 1, 52, 0
2, 35600, Note_off_c, 1, 64, 0
2, 35600, Note_off_c, 1, 68, 0
2, 35600, Note_off_c, 1, 73, 0
2, 35640, Note_on_c, 1, 42, 127
2, 35640, Note_on_c, 1, 54, 127
2, 35640, Note_on_c, 1, 61, 127
2, 35640, Note_on_c, 1, 66, 127
2, 35640, Note_on_c, 1, 70, 127
2, 35920, Note_off_c, 1, 54, 0
2, 35920, Note_off_c, 1, 61, 0
2, 35920, Note_off_c, 1, 66, 0
2, 35920, Note_off_c, 1, 70, 0
2, 35960, Note_off_c, 1, 42, 0
2, 35960, Note_on_c, 1, 58, 127
2, 35960, Note_on_c, 1, 60, 127
2, 35960, Note_on_c, 1, 63, 127
2, 35960, Note_on_c, 1, 67, 127
2, 35960, Note_on_c, 1, 72, 127
2, 36000, Note_on_c, 1, 39, 127
2, 36000, Note_on_c, 1, 46, 127
2, 36000, Note_off_c, 1, 60, 0
2, 36000, Note_on_c, 1, 66, 127
2, 36000, Note_off_c, 1, 67, 0
2, 36040, Note_on_c, 1, 43, 127
2, 36040, Note_on_c, 1, 49, 127
2, 36040, Note_on_c, 1, 51, 127
2, 36040, Note_off_c, 1, 58, 0
2, 36040, Note_off_c, 1, 63, 0
2, 36040, Note_off_c, 1, 66, 0
2, 36040, Note_off_c, 1, 72, 0
2, 36040, Note_on_c, 1, 81, 127
2, 36040, Note_on_c, 1, 82, 127
2, 36080, Note_off_c, 1, 39, 0
2, 36080, Note_on_c, 1, 40, 127
2, 36080, Note_off_c, 1, 43, 0
2, 36080, Note_off_c, 1, 46, 0
2, 36080, Note_on_c, 1, 47, 127
2, 36080, Note_off_c, 1, 49, 0
2, 36080, Note_off_c, 1, 51, 0
2, 36080, Note_on_c, 1, 76, 127
2, 36080, Note_on_c, 1, 80, 127
2, 36080, Note_off_c, 1, 81, 0
2, 36080, Note_off_c, 1, 82, 0
2, 36080, Note_on_c, 1, 83, 127
2, 36120, Note_off_c, 1, 40, 0
2, 36120, Note_off_c, 1, 47, 0
2, 36120, Note_on_c, 1, 61, 127
2, 36120, Note_on_c, 1, 64, 127
2, 36120, Note_on_c, 1, 66, 127
2, 36120, Note_on_c, 1, 70, 127
2, 36120, Note_on_c, 1, 78, 127
2, 36120, Note_off_c, 1, 80, 0
2, 36120, Note_off_c, 1, 83, 0
2, 36160, Note_on_c, 1, 54, 127
2, 36160, Note_on_c, 1, 59, 127
2, 36160, Note_off_c, 1, 61, 0
2, 36160, Note_on_c, 1, 63, 127
2, 36160, Note_off_c, 1, 64, 0
2, 36160, Note_on_c, 1, 68, 127
2, 36160, Note_off_c, 1, 70, 0
2, 36160, Note_on_c, 1, 71, 127
2, 36160, Note_off_c, 1, 76, 0
2, 36160, Note_off_c, 1, 78, 0
2, 36200, Note_on_c, 1, 48, 127
2, 36200, Note_off_c, 1, 54, 0
2, 36200, Note_off_c, 1, 59, 0
2, 36200, Note_on_c, 1, 60, 127
2, 36200, Note_off_c, 1, 63, 0
2, 36200, Note_off_c, 1, 66, 0
2, 36200, Note_off_c, 1, 68, 0
2, 36200, Note_on_c, 1, 70, 127
2, 36200, Note_off_c, 1, 71, 0
2, 36200, Note_on_c, 1, 76, 127
2, 36200, Note_on_c, 1, 79, 127
2, 36200, Note_on_c, 1, 82, 127
2, 36240, Note_off_c, 1, 48, 0
2, 36240, Note_off_c, 1, 60, 0
2, 36240, Note_off_c, 1, 70, 0
2, 36240, Note_off_c, 1, 76, 0
2, 36240, Note_off_c, 1, 79, 0
2, 36240, Note_off_c, 1, 82, 0
2, 36320, Note_on_c, 1, 42, 127
2, 36320, Note_on_c, 1, 54, 127
2, 36320, Note_on_c, 1, 58, 127
2, 36320, Note_on_c, 1, 61, 127
2, 36320, Note_on_c, 1, 66, 127
2, 36640, Note_off_c, 1, 42, 0
2, 36640, Note_off_c, 1, 58, 0
2, 36640, Note_off_c, 1, 61, 0
2, 36640, Note_off_c, 1, 66, 0
2, 36680, Note_on_c, 1, 61, 127
2, 36680, Note_on_c, 1, 64, 127
2, 36680, Note_on_c, 1, 68, 127
2, 36680, Note_on_c, 1, 70, 127
2, 36680, Note_on_c, 1, 76, 127
2, 36680, Note_on_c, 1, 80, 127
2, 36800, Note_off_c, 1, 54, 0
2, 36800, Note_off_c, 1, 61, 0
2, 36800, Note_off_c, 1, 64, 0
2, 36800, Note_off_c, 1, 68, 0
2, 36800, Note_off_c, 1, 70, 0
2, 36800, Note_off_c, 1, 76, 0
2, 36800, Note_off_c, 1, 80, 0
2, 36840, Note_on_c, 1, 54, 127
2, 36840, Note_on_c, 1, 61, 127
2, 36840, Note_on_c, 1, 64, 127
2, 36840, Note_on_c, 1, 68, 127
2, 36840, Note_on_c, 1, 70, 127
2, 36840, Note_on_c, 1, 76, 127
2, 36840, Note_on_c, 1, 80, 127
2, 37000, Note_on_c, 1, 43, 127
2, 37000, Note_off_c, 1, 54, 0
2, 37000, Note_off_c, 1, 61, 0
2, 37000, Note_off_c, 1, 64, 0
2, 37000, Note_off_c, 1, 68, 0
2, 37000, Note_off_c, 1, 70, 0
2, 37000, Note_on_c, 1, 71, 127
2, 37000, Note_off_c, 1, 76, 0
2, 37000, Note_on_c, 1, 77, 127
2, 37000, Note_off_c, 1, 80, 0
2, 37000, Note_on_c, 1, 83, 127
2, 37040, Note_off_c, 1, 43, 0
2, 37040, Note_off_c, 1, 71, 0
2, 37040, Note_off_c, 1, 77, 0
2, 37040, Note_off_c, 1, 83, 0
2, 37080, Note_on_c, 1, 35, 127
2, 37080, Note_on_c, 1, 42, 127
2, 37080, Note_on_c, 1, 47, 127
2, 37080, Note_on_c, 1, 51, 127
2, 37080, Note_on_c, 1, 59, 127
2, 37720, Note_off_c, 1, 35, 0
2, 37720, Note_off_c, 1, 42, 0
2, 37720, Note_off_c, 1, 47, 0
2, 37720, Note_off_c, 1, 51, 0
2, 37720, Note_off_c, 1, 59, 0
2, 37760, Note_on_c, 1, 52, 127
2, 37760, Note_on_c, 1, 57, 127
2, 37760, Note_on_c, 1, 60, 127
2, 37760, Note_on_c, 1, 64, 127
2, 37760, Note_on_c, 1, 76, 127
2, 38080, Note_off_c, 1, 52, 0
2, 38080, Note_off_c, 1, 57, 0
2, 38080, Note_off_c, 1, 60, 0
2, 38080, Note_off_c, 1, 64, 0
2, 38080, Note_off_c, 1, 76, 0
2, 38120, Note_on_c, 1, 34, 127
2, 38120, Note_on_c, 1, 46, 127
2, 38120, Note_on_c, 1, 55, 127
2, 38120, Note_on_c, 1, 58, 127
2, 38120, Note_on_c, 1, 63, 127
2, 38120, Note_on_c, 1, 65, 127
2, 38160, Note_off_c, 1, 34, 0
2, 38160, Note_off_c, 1, 46, 0
2, 38160, Note_off_c, 1, 55, 0
2, 38160, Note_on_c, 1, 60, 127
2, 38160, Note_off_c, 1, 63, 0
2, 38160, Note_off_c, 1, 65, 0
2, 38160, Note_on_c, 1, 77, 127
2, 38160, Note_on_c, 1, 82, 127
2, 38160, Note_on_c, 1, 89, 127
2, 38200, Note_on_c, 1, 40, 127
2, 38200, Note_on_c, 1, 52, 127
2, 38200, Note_off_c, 1, 58, 0
2, 38200, Note_off_c, 1, 60, 0
2, 38200, Note_off_c, 1, 77, 0
2, 38200, Note_off_c, 1, 82, 0
2, 38200, Note_on_c, 1, 84, 127
2, 38200, Note_on_c, 1, 88, 127
2, 38200, Note_off_c, 1, 89, 0
2, 38200, Note_on_c, 1, 96, 127
2, 38240, Note_off_c, 1, 40, 0
2, 38240, Note_off_c, 1, 52, 0
2, 38240, Note_on_c, 1, 54, 127
2, 38240, Note_on_c, 1, 59, 127
2, 38240, Note_on_c, 1, 63, 127
2, 38240, Note_on_c, 1, 69, 127
2, 38240, Note_on_c, 1, 76, 127
2, 38240, Note_off_c, 1, 84, 0
2, 38240, Note_off_c, 1, 88, 0
2, 38240, Note_off_c, 1, 96, 0
2, 38280, Note_on_c, 1, 40, 127
2, 38280, Note_on_c, 1, 43, 127
2, 38280, Note_on_c, 1, 52, 127
2, 38280, Note_off_c, 1, 54, 0
2, 38280, Note_off_c, 1, 59, 0
2, 38280, Note_off_c, 1, 63, 0
2, 38280, Note_on_c, 1, 67, 127
2, 38280, Note_off_c, 1, 69, 0
2, 38280, Note_off_c, 1, 76, 0
2, 38320, Note_on_c, 1, 38, 127
2, 38320, Note_off_c, 1, 40, 0
2, 38320, Note_off_c, 1, 43, 0
2, 38320, Note_on_c, 1, 50, 127
2, 38320, Note_off_c, 1, 52, 0
2, 38320, Note_on_c, 1, 59, 127
2, 38320, Note_off_c, 1, 67, 0
2, 38320, Note_on_c, 1, 83, 127
2, 38320, Note_on_c, 1, 89, 127
2, 38320, Note_on_c, 1, 95, 127
2, 38360, Note_on_c, 1, 36, 127
2, 38360, Note_off_c, 1, 38, 0
2, 38360, Note_on_c, 1, 48, 127
2, 38360, Note_off_c, 1, 50, 0
2, 38360, Note_on_c, 1, 56, 127
2, 38360, Note_off_c, 1, 59, 0
2, 38360, Note_on_c, 1, 61, 127
2, 38360, Note_on_c, 1, 65, 127
2, 38360, Note_on_c, 1, 68, 127
2, 38360, Note_off_c, 1, 83, 0
2, 38360, Note_off_c, 1, 89, 0
2, 38360, Note_off_c, 1, 95, 0
2, 38400, Note_on_c, 1, 35, 127
2, 38400, Note_off_c, 1, 36, 0
2, 38400, Note_on_c, 1, 47, 127
2, 38400, Note_off_c, 1, 48, 0
2, 38400, Note_off_c, 1, 56, 0
2, 38400, Note_off_c, 1, 61, 0
2, 38400, Note_off_c, 1, 65, 0
2, 38400, Note_off_c, 1, 68, 0
2, 38400, Note_on_c, 1, 81, 127
2, 38400, Note_on_c, 1, 87, 127
2, 38400, Note_on_c, 1, 90, 127
2, 38400, Note_on_c, 1, 95, 127
2, 38440, Note_off_c, 1, 35, 0
2, 38440, Note_off_c, 1, 47, 0
2, 38440, Note_off_c, 1, 81, 0
2, 38440, Note_off_c, 1, 87, 0
2, 38440, Note_off_c, 1, 90, 0
2, 38440, Note_off_c, 1, 95, 0
2, 38480, Note_on_c, 1, 32, 127
2, 38480, Note_on_c, 1, 44, 127
2, 38480, Note_on_c, 1, 73, 127
2, 38480, Note_on_c, 1, 76, 127
2, 38480, Note_on_c, 1, 79, 127
2, 38560, Note_on_c, 1, 70, 127
2, 38560, Note_off_c, 1, 73, 0
2, 38560, Note_off_c, 1, 76, 0
2, 38600, Note_off_c, 1, 32, 0
2, 38600, Note_on_c, 1, 41, 127
2, 38600, Note_off_c, 1, 44, 0
2, 38600, Note_on_c, 1, 47, 127
2, 38600, Note_on_c, 1, 50, 127
2, 38600, Note_on_c, 1, 55, 127
2, 38600, Note_off_c, 1, 70, 0
2, 38600, Note_off_c, 1, 79, 0
2, 38640, Note_on_c, 1, 32, 127
2, 38640, Note_off_c, 1, 41, 0
2, 38640, Note_on_c, 1, 44, 127
2, 38640, Note_off_c, 1, 47, 0
2, 38640, Note_off_c, 1, 50, 0
2, 38640, Note_off_c, 1, 55, 0
2, 38640, Note_on_c, 1, 73, 127
2, 38640, Note_on_c, 1, 76, 127
2, 38640, Note_on_c, 1, 79, 127
2, 38680, Note_on_c, 1, 70, 127
2, 38680, Note_off_c, 1, 73, 0
2, 38680, Note_off_c, 1, 76, 0
2, 38720, Note_off_c, 1, 70, 0
2, 38720, Note_on_c, 1, 73, 127
2, 38720, Note_on_c, 1, 76, 127
2, 38800, Note_off_c, 1, 32, 0
2, 38800, Note_off_c, 1, 44, 0
2, 38800, Note_off_c, 1, 73, 0
2, 38800, Note_off_c, 1, 76, 0
2, 38800, Note_off_c, 1, 79, 0
2, 38880, Note_on_c, 1, 32, 127
2, 38880, Note_on_c, 1, 44, 127
2, 38880, Note_on_c, 1, 73, 127
2, 38880, Note_on_c, 1, 76, 127
2, 38880, Note_on_c, 1, 79, 127
2, 38920, Note_off_c, 1, 73, 0
2, 38920, Note_off_c, 1, 76, 0
2, 38960, Note_on_c, 1, 73, 127
2, 38960, Note_on_c, 1, 76, 127
2, 39000, Note_off_c, 1, 73, 0
2, 39000, Note_off_c, 1, 76, 0
2, 39040, Note_on_c, 1, 73, 127
2, 39040, Note_on_c, 1, 76, 127
2, 39120, Note_off_c, 1, 73, 0
2, 39120, Note_off_c, 1, 76, 0
2, 39160, Note_on_c, 1, 70, 127
2, 39160, Note_off_c, 1, 79, 0
2, 39200, Note_off_c, 1, 70, 0
2, 39200, Note_on_c, 1, 73, 127
2, 39200, Note_on_c, 1, 76, 127
2, 39200, Note_on_c, 1, 79, 127
2, 39280, Note_on_c, 1, 70, 127
2, 39280, Note_off_c, 1, 73, 0
2, 39280, Note_off_c, 1, 76, 0
2, 39360, Note_off_c, 1, 79, 0
2, 39400, Note_off_c, 1, 70, 0
2, 39400, Note_on_c, 1, 73, 127
2, 39400, Note_on_c, 1, 76, 127
2, 39400, Note_on_c, 1, 79, 127
2, 39440, Note_off_c, 1, 73, 0
2, 39440, Note_off_c, 1, 76, 0
2, 39480, Note_on_c, 1, 70, 127
2, 39520, Note_off_c, 1, 32, 0
2, 39520, Note_off_c, 1, 44, 0
2, 39520, Note_off_c, 1, 70, 0
2, 39520, Note_off_c, 1, 79, 0
2, 39560, Note_on_c, 1, 32, 127
2, 39560, Note_on_c, 1, 44, 127
2, 39560, Note_on_c, 1, 73, 127
2, 39560, Note_on_c, 1, 76, 127
2, 39560, Note_on_c, 1, 79, 127
2, 39640, Note_on_c, 1, 70, 127
2, 39640, Note_off_c, 1, 73, 0
2, 39640, Note_off_c, 1, 76, 0
2, 39720, Note_off_c, 1, 79, 0
2, 39760, Note_off_c, 1, 70, 0
2, 39760, Note_on_c, 1, 73, 127
2, 39760, Note_on_c, 1, 76, 127
2, 39760, Note_on_c, 1, 79, 127
2, 39840, Note_on_c, 1, 70, 127
2, 39840, Note_off_c, 1, 73, 0
2, 39840, Note_off_c, 1, 76, 0
2, 39880, Note_off_c, 1, 70, 0
2, 39880, Note_off_c, 1, 79, 0
2, 39920, Note_on_c, 1, 73, 127
2, 39920, Note_on_c, 1, 76, 127
2, 39920, Note_on_c, 1, 79, 127
2, 39960, Note_off_c, 1, 73, 0
2, 39960, Note_off_c, 1, 76, 0
2, 40000, Note_on_c, 1, 70, 127
2, 40040, Note_off_c, 1, 70, 0
2, 40080, Note_on_c, 1, 70, 127
2, 40120, Note_off_c, 1, 70, 0
2, 40200, Note_off_c, 1, 79, 0
2, 40200, Note_on_c, 1, 82, 127
2, 40240, Note_off_c, 1, 32, 0
2, 40240, Note_off_c, 1, 44, 0
2, 40240, Note_off_c, 1, 82, 0
2, 40280, Note_on_c, 1, 32, 127
2, 40280, Note_on_c, 1, 44, 127
2, 40280, Note_on_c, 1, 70, 127
2, 40440, Note_on_c, 1, 62, 127
2, 40440, Note_off_c, 1, 70, 0
2, 40440, Note_on_c, 1, 71, 127
2, 40480, Note_off_c, 1, 62, 0
2, 40480, Note_off_c, 1, 71, 0
2, 40520, Note_on_c, 1, 62, 127
2, 40520, Note_on_c, 1, 71, 127
2, 40600, Note_off_c, 1, 32, 0
2, 40600, Note_off_c, 1, 44, 0
2, 40600, Note_off_c, 1, 62, 0
2, 40600, Note_off_c, 1, 71, 0
2, 40640, Note_on_c, 1, 51, 127
2, 40640, Note_on_c, 1, 56, 127
2, 40640, Note_on_c, 1, 60, 127
2, 40640, Note_on_c, 1, 74, 127
2, 40760, Note_on_c, 1, 44, 127
2, 40760, Note_off_c, 1, 56, 0
2, 40760, Note_off_c, 1, 60, 0
2, 40760, Note_off_c, 1, 74, 0
2, 40800, Note_off_c, 1, 44, 0
2, 40800, Note_on_c, 1, 56, 127
2, 40800, Note_on_c, 1, 60, 127
2, 40800, Note_on_c, 1, 74, 127
2, 40880, Note_on_c, 1, 35, 127
2, 40880, Note_on_c, 1, 47, 127
2, 40880, Note_off_c, 1, 51, 0
2, 40880, Note_on_c, 1, 54, 127
2, 40880, Note_off_c, 1, 56, 0
2, 40880, Note_on_c, 1, 59, 127
2, 40880, Note_off_c, 1, 60, 0
2, 40880, Note_on_c, 1, 63, 127
2, 40880, Note_off_c, 1, 74, 0
2, 40880, Note_on_c, 1, 78, 127
2, 40920, Note_off_c, 1, 35, 0
2, 40920, Note_off_c, 1, 47, 0
2, 40920, Note_on_c, 1, 52, 127
2, 40920, Note_on_c, 1, 57, 127
2, 40920, Note_off_c, 1, 78, 0
2, 40920, Note_on_c, 1, 87, 127
2, 40960, Note_off_c, 1, 52, 0
2, 40960, Note_off_c, 1, 54, 0
2, 40960, Note_off_c, 1, 57, 0
2, 40960, Note_off_c, 1, 59, 0
2, 40960, Note_off_c, 1, 63, 0
2, 40960, Note_off_c, 1, 87, 0
2, 41040, Note_on_c, 1, 37, 127
2, 41040, Note_on_c, 1, 49, 127
2, 41040, Note_on_c, 1, 93, 127
2, 41160, Note_off_c, 1, 93, 0
2, 41200, Note_on_c, 1, 94, 127
2, 41320, Note_off_c, 1, 37, 0
2, 41320, Note_off_c, 1, 49, 0
2, 41320, Note_off_c, 1, 94, 0
2, 41360, Note_on_c, 1, 42, 127
2, 41360, Note_on_c, 1, 54, 127
2, 41360, Note_on_c, 1, 81, 127
2, 41360, Note_on_c, 1, 93, 127
2, 41680, Note_off_c, 1, 42, 0
2, 41680, Note_off_c, 1, 54, 0
2, 41680, Note_off_c, 1, 81, 0
2, 41680, Note_off_c, 1, 93, 0
2, 41720, Note_on_c, 1, 40, 127
2, 41720, Note_on_c, 1, 47, 127
2, 41720, Note_on_c, 1, 62, 127
2, 41720, Note_on_c, 1, 68, 127
2, 41720, Note_on_c, 1, 71, 127
2, 41720, Note_on_c, 1, 80, 127
2, 41720, Note_on_c, 1, 83, 127
2, 42400, Note_off_c, 1, 40, 0
2, 42400, Note_off_c, 1, 47, 0
2, 42400, Note_off_c, 1, 62, 0
2, 42400, Note_off_c, 1, 68, 0
2, 42400, Note_off_c, 1, 71, 0
2, 42400, Note_off_c, 1, 80, 0
2, 42400, Note_off_c, 1, 83, 0
2, 42440, Note_on_c, 1, 37, 127
2, 42440, Note_on_c, 1, 49, 127
2, 42440, Note_on_c, 1, 63, 127
2, 42440, Note_on_c, 1, 67, 127
2, 42440, Note_on_c, 1, 70, 127
2, 42760, Note_off_c, 1, 37, 0
2, 42760, Note_off_c, 1, 49, 0
2, 42760, Note_off_c, 1, 63, 0
2, 42760, Note_off_c, 1, 67, 0
2, 42760, Note_off_c, 1, 70, 0
2, 42800, Note_on_c, 1, 37, 127
2, 42800, Note_on_c, 1, 49, 127
2, 42800, Note_on_c, 1, 63, 127
2, 42800, Note_on_c, 1, 67, 127
2, 42800, Note_on_c, 1, 70, 127
2, 43120, Note_off_c, 1, 37, 0
2, 43120, Note_off_c, 1, 49, 0
2, 43120, Note_off_c, 1, 63, 0
2, 43120, Note_off_c, 1, 67, 0
2, 43120, Note_off_c, 1, 70, 0
2, 43200, Note_on_c, 1, 37, 127
2, 43200, Note_on_c, 1, 49, 127
2, 43200, Note_on_c, 1, 63, 127
2, 43200, Note_on_c, 1, 67, 127
2, 43200, Note_on_c, 1, 70, 127
2, 43480, Note_off_c, 1, 37, 0
2, 43480, Note_off_c, 1, 49, 0
2, 43480, Note_off_c, 1, 63, 0
2, 43480, Note_off_c, 1, 67, 0
2, 43480, Note_off_c, 1, 70, 0
2, 43520, Note_on_c, 1, 37, 127
2, 43520, Note_on_c, 1, 49, 127
2, 43520, Note_on_c, 1, 63, 127
2, 43520, Note_on_c, 1, 67, 127
2, 43520, Note_on_c, 1, 70, 127
2, 43840, Note_off_c, 1, 37, 0
2, 43840, Note_off_c, 1, 49, 0
2, 43840, Note_off_c, 1, 63, 0
2, 43840, Note_off_c, 1, 67, 0
2, 43840, Note_off_c, 1, 70, 0
2, 43880, Note_on_c, 1, 37, 127
2, 43880, Note_on_c, 1, 49, 127
2, 43880, Note_on_c, 1, 63, 127
2, 43880, Note_on_c, 1, 67, 127
2, 43880, Note_on_c, 1, 70, 127
2, 44200, Note_off_c, 1, 37, 0
2, 44200, Note_off_c, 1, 49, 0
2, 44200, Note_off_c, 1, 63, 0
2, 44200, Note_off_c, 1, 67, 0
2, 44200, Note_off_c, 1, 70, 0
2, 44240, Note_on_c, 1, 37, 127
2, 44240, Note_on_c, 1, 49, 127
2, 44240, Note_on_c, 1, 63, 127
2, 44240, Note_on_c, 1, 67, 127
2, 44240, Note_on_c, 1, 70, 127
2, 44560, Note_off_c, 1, 37, 0
2, 44560, Note_off_c, 1, 49, 0
2, 44560, Note_off_c, 1, 63, 0
2, 44560, Note_off_c, 1, 67, 0
2, 44560, Note_off_c, 1, 70, 0
2, 44600, Note_on_c, 1, 37, 127
2, 44600, Note_on_c, 1, 49, 127
2, 44600, Note_on_c, 1, 63, 127
2, 44600, Note_on_c, 1, 67, 127
2, 44600, Note_on_c, 1, 70, 127
2, 44920, Note_off_c, 1, 37, 0
2, 44920, Note_off_c, 1, 49, 0
2, 44920, Note_off_c, 1, 63, 0
2, 44920, Note_off_c, 1, 67, 0
2, 44920, Note_off_c, 1, 70, 0
2, 44960, Note_on_c, 1, 37, 127
2, 44960, Note_on_c, 1, 49, 127
2, 44960, Note_on_c, 1, 63, 127
2, 44960, Note_on_c, 1, 67, 127
2, 44960, Note_on_c, 1, 70, 127
2, 45280, Note_off_c, 1, 37, 0
2, 45280, Note_off_c, 1, 49, 0
2, 45280, Note_off_c, 1, 63, 0
2, 45280, Note_off_c, 1, 67, 0
2, 45280, Note_off_c, 1, 70, 0
2, 45320, Note_on_c, 1, 37, 127
2, 45320, Note_on_c, 1, 49, 127
2, 45320, Note_on_c, 1, 63, 127
2, 45320, Note_on_c, 1, 67, 127
2, 45320, Note_on_c, 1, 70, 127
2, 45440, Note_off_c, 1, 37, 0
2, 45440, Note_off_c, 1, 49, 0
2, 45440, Note_off_c, 1, 63, 0
2, 45440, Note_off_c, 1, 67, 0
2, 45440, Note_off_c, 1, 70, 0
2, 45480, Note_on_c, 1, 37, 127
2, 45480, Note_on_c, 1, 49, 127
2, 45480, Note_on_c, 1, 63, 127
2, 45480, Note_on_c, 1, 67, 127
2, 45480, Note_on_c, 1, 70, 127
2, 45640, Note_off_c, 1, 37, 0
2, 45640, Note_off_c, 1, 49, 0
2, 45640, Note_off_c, 1, 63, 0
2, 45640, Note_off_c, 1, 67, 0
2, 45640, Note_off_c, 1, 70, 0
2, 45680, Note_on_c, 1, 37, 127
2, 45680, Note_on_c, 1, 49, 127
2, 45680, Note_on_c, 1, 63, 127
2, 45680, Note_on_c, 1, 67, 127
2, 45680, Note_on_c, 1, 70, 127
2, 46000, Note_off_c, 1, 37, 0
2, 46000, Note_off_c, 1, 49, 0
2, 46000, Note_off_c, 1, 63, 0
2, 46000, Note_off_c, 1, 67, 0
2, 46000, Note_off_c, 1, 70, 0
2, 46040, Note_on_c, 1, 37, 127
2, 46040, Note_on_c, 1, 49, 127
2, 46040, Note_on_c, 1, 63, 127
2, 46040, Note_on_c, 1, 67, 127
2, 46040, Note_on_c, 1, 70, 127
2, 46360, Note_off_c, 1, 37, 0
2, 46360, Note_off_c, 1, 49, 0
2, 46360, Note_off_c, 1, 63, 0
2, 46360, Note_off_c, 1, 67, 0
2, 46360, Note_off_c, 1, 70, 0
2, 46400, Note_on_c, 1, 37, 127
2, 46400, Note_on_c, 1, 49, 127
2, 46400, Note_on_c, 1, 63, 127
2, 46400, Note_on_c, 1, 67, 127
2, 46400, Note_on_c, 1, 70, 127
2, 46720, Note_off_c, 1, 37, 0
2, 46720, Note_off_c, 1, 49, 0
2, 46720, Note_off_c, 1, 63, 0
2, 46720, Note_off_c, 1, 67, 0
2, 46720, Note_off_c, 1, 70, 0
2, 46760, Note_on_c, 1, 37, 127
2, 46760, Note_on_c, 1, 49, 127
2, 46760, Note_on_c, 1, 63, 127
2, 46760, Note_on_c, 1, 67, 127
2, 46760, Note_on_c, 1, 70, 127
2, 47080, Note_off_c, 1, 37, 0
2, 47080, Note_off_c, 1, 49, 0
2, 47080, Note_off_c, 1, 63, 0
2, 47080, Note_off_c, 1, 67, 0
2, 47080, Note_off_c, 1, 70, 0
2, 47120, Note_on_c, 1, 37, 127
2, 47120, Note_on_c, 1, 49, 127
2, 47120, Note_on_c, 1, 63, 127
2, 47120, Note_on_c, 1, 67, 127
2, 47120, Note_on_c, 1, 70, 127
2, 47440, Note_off_c, 1, 37, 0
2, 47440, Note_off_c, 1, 49, 0
2, 47440, Note_off_c, 1, 63, 0
2, 47440, Note_off_c, 1, 67, 0
2, 47440, Note_off_c, 1, 70, 0
2, 47480, Note_on_c, 1, 37, 127
2, 47480, Note_on_c, 1, 49, 127
2, 47480, Note_on_c, 1, 63, 127
2, 47480, Note_on_c, 1, 67, 127
2, 47480, Note_on_c, 1, 70, 127
2, 47600, Note_off_c, 1, 37, 0
2, 47600, Note_off_c, 1, 49, 0
2, 47600, Note_off_c, 1, 63, 0
2, 47600, Note_off_c, 1, 67, 0
2, 47600, Note_off_c, 1, 70, 0
2, 47640, Note_on_c, 1, 37, 127
2, 47640, Note_on_c, 1, 49, 127
2, 47640, Note_on_c, 1, 63, 127
2, 47640, Note_on_c, 1, 67, 127
2, 47640, Note_on_c, 1, 70, 127
2, 47800, Note_off_c, 1, 37, 0
2, 47800, Note_off_c, 1, 49, 0
2, 47800, Note_off_c, 1, 63, 0
2, 47800, Note_off_c, 1, 67, 0
2, 47800, Note_off_c, 1, 70, 0
2, 47840, Note_on_c, 1, 37, 127
2, 47840, Note_on_c, 1, 49, 127
2, 47840, Note_on_c, 1, 63, 127
2, 47840, Note_on_c, 1, 67, 127
2, 47840, Note_on_c, 1, 70, 127
2, 48160, Note_off_c, 1, 37, 0
2, 48160, Note_off_c, 1, 49, 0
2, 48160, Note_off_c, 1, 63, 0
2, 48160, Note_off_c, 1, 67, 0
2, 48160, Note_off_c, 1, 70, 0
2, 48200, Note_on_c, 1, 37, 127
2, 48200, Note_on_c, 1, 49, 127
2, 48200, Note_on_c, 1, 63, 127
2, 48200, Note_on_c, 1, 67, 127
2, 48200, Note_on_c, 1, 70, 127
2, 48520, Note_off_c, 1, 37, 0
2, 48520, Note_off_c, 1, 49, 0
2, 48520, Note_off_c, 1, 63, 0
2, 48520, Note_off_c, 1, 67, 0
2, 48520, Note_off_c, 1, 70, 0
2, 48560, Note_on_c, 1, 36, 127
2, 48560, Note_on_c, 1, 48, 127
2, 48560, Note_on_c, 1, 64, 127
2, 48560, Note_on_c, 1, 67, 127
2, 48560, Note_on_c, 1, 72, 127
2, 49240, Note_off_c, 1, 36, 0
2, 49240, Note_off_c, 1, 48, 0
2, 49240, Note_off_c, 1, 64, 0
2, 49240, Note_off_c, 1, 67, 0
2, 49240, Note_off_c, 1, 72, 0
2, 49280, Note_on_c, 1, 41, 127
2, 49280, Note_on_c, 1, 53, 127
2, 49280, Note_on_c, 1, 60, 127
2, 49280, Note_on_c, 1, 65, 127
2, 49280, Note_on_c, 1, 69, 127
2, 49400, Note_off_c, 1, 69, 0
2, 49440, Note_on_c, 1, 69, 127
2, 49600, Note_off_c, 1, 41, 0
2, 49600, Note_off_c, 1, 53, 0
2, 49600, Note_off_c, 1, 60, 0
2, 49600, Note_off_c, 1, 65, 0
2, 49600, Note_off_c, 1, 69, 0
2, 49640, Note_on_c, 1, 40, 127
2, 49640, Note_on_c, 1, 52, 127
2, 49640, Note_on_c, 1, 67, 127
2, 49640, Note_on_c, 1, 70, 127
2, 49640, Note_on_c, 1, 73, 127
2, 49640, Note_on_c, 1, 79, 127
2, 49760, Note_off_c, 1, 40, 0
2, 49760, Note_off_c, 1, 52, 0
2, 49760, Note_off_c, 1, 67, 0
2, 49760, Note_off_c, 1, 70, 0
2, 49760, Note_off_c, 1, 73, 0
2, 49760, Note_off_c, 1, 79, 0
2, 49800, Note_on_c, 1, 40, 127
2, 49800, Note_on_c, 1, 52, 127
2, 49800, Note_on_c, 1, 67, 127
2, 49800, Note_on_c, 1, 70, 127
2, 49800, Note_on_c, 1, 73, 127
2, 49800, Note_on_c, 1, 79, 127
2, 49960, Note_off_c, 1, 40, 0
2, 49960, Note_off_c, 1, 52, 0
2, 49960, Note_off_c, 1, 67, 0
2, 49960, Note_off_c, 1, 70, 0
2, 49960, Note_off_c, 1, 73, 0
2, 49960, Note_off_c, 1, 79, 0
2, 50000, Note_on_c, 1, 56, 127
2, 50000, Note_on_c, 1, 68, 127
2, 50000, Note_on_c, 1, 76, 127
2, 50000, Note_on_c, 1, 83, 127
2, 50000, Note_on_c, 1, 88, 127
2, 50320, Note_off_c, 1, 56, 0
2, 50320, Note_off_c, 1, 68, 0
2, 50320, Note_off_c, 1, 76, 0
2, 50320, Note_off_c, 1, 83, 0
2, 50320, Note_off_c, 1, 88, 0
2, 50360, Note_on_c, 1, 36, 127
2, 50360, Note_on_c, 1, 48, 127
2, 50360, Note_on_c, 1, 77, 127
2, 50360, Note_on_c, 1, 80, 127
2, 50360, Note_on_c, 1, 84, 127
2, 50360, Note_on_c, 1, 89, 127
2, 50480, Note_off_c, 1, 36, 0
2, 50480, Note_off_c, 1, 48, 0
2, 50520, Note_on_c, 1, 36, 127
2, 50520, Note_on_c, 1, 48, 127
2, 50560, Note_off_c, 1, 36, 0
2, 50560, Note_off_c, 1, 48, 0
2, 50560, Note_on_c, 1, 50, 127
2, 50560, Note_on_c, 1, 56, 127
2, 50560, Note_on_c, 1, 65, 127
2, 50560, Note_on_c, 1, 68, 127
2, 50560, Note_on_c, 1, 71, 127
2, 50560, Note_on_c, 1, 74, 127
2, 50560, Note_off_c, 1, 77, 0
2, 50560, Note_off_c, 1, 80, 0
2, 50560, Note_off_c, 1, 84, 0
2, 50560, Note_off_c, 1, 89, 0
2, 50600, Note_off_c, 1, 50, 0
2, 50600, Note_off_c, 1, 56, 0
2, 50600, Note_off_c, 1, 68, 0
2, 50600, Note_off_c, 1, 71, 0
2, 50600, Note_off_c, 1, 74, 0
2, 50600, Note_on_c, 1, 77, 127
2, 50600, Note_on_c, 1, 80, 127
2, 50600, Note_on_c, 1, 84, 127
2, 50600, Note_on_c, 1, 89, 127
2, 50640, Note_off_c, 1, 65, 0
2, 50680, Note_off_c, 1, 77, 0
2, 50680, Note_off_c, 1, 80, 0
2, 50680, Note_off_c, 1, 84, 0
2, 50680, Note_off_c, 1, 89, 0
2, 50720, Note_on_c, 1, 67, 127
2, 50720, Note_on_c, 1, 76, 127
2, 50720, Note_on_c, 1, 79, 127
2, 50720, Note_on_c, 1, 83, 127
2, 50720, Note_on_c, 1, 84, 127
2, 50760, Note_on_c, 1, 55, 127
2, 50760, Note_on_c, 1, 57, 127
2, 50760, Note_on_c, 1, 62, 127
2, 50760, Note_off_c, 1, 67, 0
2, 50760, Note_off_c, 1, 76, 0
2, 50760, Note_off_c, 1, 79, 0
2, 50760, Note_on_c, 1, 81, 127
2, 50760, Note_off_c, 1, 83, 0
2, 50760, Note_off_c, 1, 84, 0
2, 50760, Note_on_c, 1, 86, 127
2, 50800, Note_on_c, 1, 51, 127
2, 50800, Note_off_c, 1, 55, 0
2, 50800, Note_off_c, 1, 57, 0
2, 50800, Note_on_c, 1, 59, 127
2, 50800, Note_off_c, 1, 62, 0
2, 50800, Note_on_c, 1, 63, 127
2, 50800, Note_on_c, 1, 67, 127
2, 50800, Note_on_c, 1, 74, 127
2, 50800, Note_on_c, 1, 77, 127
2, 50800, Note_on_c, 1, 79, 127
2, 50800, Note_off_c, 1, 81, 0
2, 50800, Note_off_c, 1, 86, 0
2, 50840, Note_on_c, 1, 32, 127
2, 50840, Note_on_c, 1, 44, 127
2, 50840, Note_off_c, 1, 51, 0
2, 50840, Note_off_c, 1, 59, 0
2, 50840, Note_off_c, 1, 63, 0
2, 50840, Note_off_c, 1, 67, 0
2, 50840, Note_off_c, 1, 74, 0
2, 50840, Note_off_c, 1, 77, 0
2, 50840, Note_off_c, 1, 79, 0
2, 50840, Note_on_c, 1, 82, 127
2, 50840, Note_on_c, 1, 87, 127
2, 50840, Note_on_c, 1, 94, 127
2, 50880, Note_off_c, 1, 32, 0
2, 50880, Note_off_c, 1, 44, 0
2, 50880, Note_on_c, 1, 45, 127
2, 50880, Note_on_c, 1, 46, 127
2, 50880, Note_on_c, 1, 85, 127
2, 50880, Note_off_c, 1, 87, 0
2, 50880, Note_on_c, 1, 89, 127
2, 50880, Note_off_c, 1, 94, 0
2, 50920, Note_off_c, 1, 45, 0
2, 50920, Note_off_c, 1, 46, 0
2, 50920, Note_on_c, 1, 56, 127
2, 50920, Note_on_c, 1, 60, 127
2, 50920, Note_on_c, 1, 67, 127
2, 50920, Note_on_c, 1, 75, 127
2, 50920, Note_off_c, 1, 82, 0
2, 50920, Note_off_c, 1, 85, 0
2, 50920, Note_on_c, 1, 87, 127
2, 50920, Note_off_c, 1, 89, 0
2, 50960, Note_off_c, 1, 56, 0
2, 50960, Note_on_c, 1, 57, 127
2, 50960, Note_on_c, 1, 63, 127
2, 50960, Note_on_c, 1, 66, 127
2, 50960, Note_off_c, 1, 67, 0
2, 50960, Note_on_c, 1, 78, 127
2, 51000, Note_off_c, 1, 57, 0
2, 51000, Note_off_c, 1, 60, 0
2, 51000, Note_off_c, 1, 63, 0
2, 51000, Note_off_c, 1, 66, 0
2, 51000, Note_off_c, 1, 75, 0
2, 51000, Note_off_c, 1, 78, 0
2, 51000, Note_off_c, 1, 87, 0
2, 51040, Note_on_c, 1, 41, 127
2, 51040, Note_on_c, 1, 45, 127
2, 51040, Note_on_c, 1, 53, 127
2, 51360, Note_off_c, 1, 41, 0
2, 51360, Note_off_c, 1, 45, 0
2, 51360, Note_off_c, 1, 53, 0
2, 51400, Note_on_c, 1, 41, 127
2, 51400, Note_on_c, 1, 45, 127
2, 51400, Note_on_c, 1, 53, 127
2, 51720, Note_off_c, 1, 41, 0
2, 51720, Note_off_c, 1, 45, 0
2, 51720, Note_off_c, 1, 53, 0
2, 51800, Note_on_c, 1, 56, 127
2, 51800, Note_on_c, 1, 62, 127
2, 51800, Note_on_c, 1, 83, 127
2, 51800, Note_on_c, 1, 91, 127
2, 51840, Note_on_c, 1, 48, 127
2, 51840, Note_off_c, 1, 56, 0
2, 51840, Note_on_c, 1, 61, 127
2, 51840, Note_off_c, 1, 62, 0
2, 51840, Note_on_c, 1, 65, 127
2, 51840, Note_on_c, 1, 70, 127
2, 51840, Note_off_c, 1, 83, 0
2, 51840, Note_off_c, 1, 91, 0
2, 51880, Note_on_c, 1, 30, 127
2, 51880, Note_on_c, 1, 42, 127
2, 51880, Note_off_c, 1, 48, 0
2, 51880, Note_on_c, 1, 52, 127
2, 51880, Note_on_c, 1, 58, 127
2, 51880, Note_off_c, 1, 61, 0
2, 51880, Note_on_c, 1, 63, 127
2, 51880, Note_off_c, 1, 65, 0
2, 51880, Note_off_c, 1, 70, 0
2, 51920, Note_off_c, 1, 30, 0
2, 51920, Note_off_c, 1, 42, 0
2, 51920, Note_off_c, 1, 52, 0
2, 51920, Note_off_c, 1, 58, 0
2, 51920, Note_on_c, 1, 59, 127
2, 51920, Note_off_c, 1, 63, 0
2, 51920, Note_on_c, 1, 64, 127
2, 51920, Note_on_c, 1, 67, 127
2, 51920, Note_on_c, 1, 83, 127
2, 51920, Note_on_c, 1, 88, 127
2, 51960, Note_off_c, 1, 59, 0
2, 51960, Note_off_c, 1, 64, 0
2, 51960, Note_off_c, 1, 67, 0
2, 51960, Note_on_c, 1, 81, 127
2, 51960, Note_off_c, 1, 83, 0
2, 51960, Note_on_c, 1, 84, 127
2, 51960, Note_off_c, 1, 88, 0
2, 51960, Note_on_c, 1, 90, 127
2, 51960, Note_on_c, 1, 98, 127
2, 52000, Note_on_c, 1, 53, 127
2, 52000, Note_on_c, 1, 60, 127
2, 52000, Note_on_c, 1, 69, 127
2, 52000, Note_on_c, 1, 77, 127
2, 52000, Note_off_c, 1, 81, 0
2, 52000, Note_off_c, 1, 84, 0
2, 52000, Note_on_c, 1, 86, 127
2, 52000, Note_off_c, 1, 90, 0
2, 52000, Note_off_c, 1, 98, 0
2, 52040, Note_on_c, 1, 48, 127
2, 52040, Note_off_c, 1, 53, 0
2, 52040, Note_off_c, 1, 60, 0
2, 52040, Note_off_c, 1, 69, 0
2, 52040, Note_on_c, 1, 70, 127
2, 52040, Note_on_c, 1, 73, 127
2, 52040, Note_off_c, 1, 77, 0
2, 52040, Note_on_c, 1, 78, 127
2, 52040, Note_off_c, 1, 86, 0
2, 52080, Note_on_c, 1, 45, 127
2, 52080, Note_off_c, 1, 48, 0
2, 52080, Note_on_c, 1, 51, 127
2, 52080, Note_on_c, 1, 53, 127
2, 52080, Note_on_c, 1, 60, 127
2, 52080, Note_on_c, 1, 65, 127
2, 52080, Note_off_c, 1, 70, 0
2, 52080, Note_off_c, 1, 73, 0
2, 52080, Note_off_c, 1, 78, 0
2, 52120, Note_off_c, 1, 45, 0
2, 52120, Note_off_c, 1, 51, 0
2, 52120, Note_off_c, 1, 53, 0
2, 52120, Note_off_c, 1, 60, 0
2, 52120, Note_off_c, 1, 65, 0
2, 52160, Note_on_c, 1, 91, 127
2, 52160, Note_on_c, 1, 94, 127
2, 52160, Note_on_c, 1, 99, 127
2, 52200, Note_on_c, 1, 47, 127
2, 52200, Note_on_c, 1, 59, 127
2, 52200, Note_on_c, 1, 79, 127
2, 52200, Note_on_c, 1, 83, 127
2, 52200, Note_on_c, 1, 88, 127
2, 52200, Note_off_c, 1, 94, 0
2, 52200, Note_off_c, 1, 99, 0
2, 52240, Note_off_c, 1, 47, 0
2, 52240, Note_off_c, 1, 59, 0
2, 52240, Note_off_c, 1, 79, 0
2, 52240, Note_off_c, 1, 83, 0
2, 52240, Note_off_c, 1, 88, 0
2, 52240, Note_on_c, 1, 94, 127
2, 52240, Note_on_c, 1, 99, 127
2, 52440, Note_off_c, 1, 91, 0
2, 52440, Note_off_c, 1, 94, 0
2, 52440, Note_off_c, 1, 99, 0
2, 52520, Note_on_c, 1, 45, 127
2, 52520, Note_on_c, 1, 74, 127
2, 52520, Note_on_c, 1, 77, 127
2, 52520, Note_on_c, 1, 86, 127
2, 52640, Note_off_c, 1, 45, 0
2, 52680, Note_on_c, 1, 45, 127
2, 52800, Note_off_c, 1, 45, 0
2, 52840, Note_on_c, 1, 45, 127
2, 52880, Note_off_c, 1, 45, 0
2, 52920, Note_on_c, 1, 45, 127
2, 52960, Note_off_c, 1, 45, 0
2, 53040, Note_on_c, 1, 38, 127
2, 53040, Note_on_c, 1, 50, 127
2, 53040, Note_off_c, 1, 74, 0
2, 53040, Note_off_c, 1, 77, 0
2, 53040, Note_on_c, 1, 84, 127
2, 53040, Note_off_c, 1, 86, 0
2, 53040, Note_on_c, 1, 90, 127
2, 53040, Note_on_c, 1, 96, 127
2, 53160, Note_off_c, 1, 38, 0
2, 53160, Note_off_c, 1, 50, 0
2, 53160, Note_on_c, 1, 74, 127
2, 53160, Note_on_c, 1, 77, 127
2, 53160, Note_off_c, 1, 84, 0
2, 53160, Note_on_c, 1, 86, 127
2, 53160, Note_off_c, 1, 90, 0
2, 53160, Note_off_c, 1, 96, 0
2, 53200, Note_on_c, 1, 58, 127
2, 53200, Note_off_c, 1, 74, 0
2, 53200, Note_off_c, 1, 77, 0
2, 53200, Note_off_c, 1, 86, 0
2, 53200, Note_on_c, 1, 91, 127
2, 53200, Note_on_c, 1, 94, 127
2, 53360, Note_off_c, 1, 58, 0
2, 53360, Note_on_c, 1, 89, 127
2, 53360, Note_off_c, 1, 91, 0
2, 53360, Note_on_c, 1, 93, 127
2, 53360, Note_off_c, 1, 94, 0
2, 53400, Note_on_c, 1, 57, 127
2, 53400, Note_on_c, 1, 60, 127
2, 53400, Note_on_c, 1, 65, 127
2, 53400, Note_on_c, 1, 77, 127
2, 53400, Note_on_c, 1, 84, 127
2, 53400, Note_off_c, 1, 93, 0
2, 53520, Note_off_c, 1, 57, 0
2, 53520, Note_off_c, 1, 60, 0
2, 53520, Note_off_c, 1, 65, 0
2, 53520, Note_off_c, 1, 77, 0
2, 53520, Note_off_c, 1, 84, 0
2, 53520, Note_off_c, 1, 89, 0
2, 53560, Note_on_c, 1, 58, 127
2, 53560, Note_on_c, 1, 60, 127
2, 53680, Note_off_c, 1, 60, 0
2, 53880, Note_off_c, 1, 58, 0
2, 53920, Note_on_c, 1, 57, 127
2, 54040, Note_off_c, 1, 57, 0
2, 54080, Note_on_c, 1, 57, 127
2, 54280, Note_off_c, 1, 57, 0
2, 54320, Note_on_c, 1, 45, 127
2, 54320, Note_on_c, 1, 57, 127
2, 54320, Note_on_c, 1, 62, 127
2, 54320, Note_on_c, 1, 65, 127
2, 54640, Note_off_c, 1, 45, 0
2, 54640, Note_off_c, 1, 57, 0
2, 54640, Note_on_c, 1, 58, 127
2, 54640, Note_off_c, 1, 65, 0
2, 54680, Note_on_c, 1, 43, 127
2, 54680, Note_off_c, 1, 58, 0
2, 54680, Note_on_c, 1, 67, 127
2, 54680, Note_on_c, 1, 70, 127
2, 55000, Note_off_c, 1, 43, 0
2, 55000, Note_off_c, 1, 62, 0
2, 55000, Note_off_c, 1, 67, 0
2, 55000, Note_off_c, 1, 70, 0
2, 55040, Note_on_c, 1, 42, 127
2, 55040, Note_on_c, 1, 54, 127
2, 55040, Note_on_c, 1, 65, 127
2, 55040, Note_on_c, 1, 70, 127
2, 55360, Note_off_c, 1, 42, 0
2, 55360, Note_off_c, 1, 54, 0
2, 55360, Note_on_c, 1, 58, 127
2, 55360, Note_off_c, 1, 65, 0
2, 55360, Note_off_c, 1, 70, 0
2, 55400, Note_on_c, 1, 54, 127
2, 55400, Note_off_c, 1, 58, 0
2, 55400, Note_on_c, 1, 62, 127
2, 55400, Note_on_c, 1, 68, 127
2, 55400, Note_on_c, 1, 71, 127
2, 55680, Note_off_c, 1, 62, 0
2, 55680, Note_off_c, 1, 68, 0
2, 55680, Note_off_c, 1, 71, 0
2, 55760, Note_on_c, 1, 61, 127
2, 55760, Note_on_c, 1, 69, 127
2, 55760, Note_on_c, 1, 73, 127
2, 55880, Note_off_c, 1, 73, 0
2, 55920, Note_on_c, 1, 73, 127
2, 56080, Note_off_c, 1, 61, 0
2, 56080, Note_off_c, 1, 69, 0
2, 56080, Note_off_c, 1, 73, 0
2, 56120, Note_on_c, 1, 61, 127
2, 56120, Note_on_c, 1, 69, 127
2, 56120, Note_on_c, 1, 73, 127
2, 56240, Note_off_c, 1, 54, 0
2, 56240, Note_off_c, 1, 61, 0
2, 56240, Note_off_c, 1, 69, 0
2, 56240, Note_off_c, 1, 73, 0
2, 56280, Note_on_c, 1, 54, 127
2, 56320, Note_on_c, 1, 47, 127
2, 56320, Note_on_c, 1, 66, 127
2, 56320, Note_on_c, 1, 71, 127
2, 56320, Note_on_c, 1, 74, 127
2, 56440, Note_off_c, 1, 47, 0
2, 56440, Note_off_c, 1, 54, 0
2, 56440, Note_off_c, 1, 66, 0
2, 56440, Note_off_c, 1, 71, 0
2, 56440, Note_off_c, 1, 74, 0
2, 56480, Note_on_c, 1, 57, 127
2, 56840, Note_on_c, 1, 64, 127
2, 56840, Note_on_c, 1, 69, 127
2, 56840, Note_on_c, 1, 73, 127
2, 56840, Note_on_c, 1, 81, 127
2, 57000, Note_off_c, 1, 81, 0
2, 57160, Note_off_c, 1, 57, 0
2, 57160, Note_off_c, 1, 64, 0
2, 57160, Note_off_c, 1, 69, 0
2, 57160, Note_off_c, 1, 73, 0
2, 57200, Note_on_c, 1, 45, 127
2, 57200, Note_on_c, 1, 57, 127
2, 57200, Note_on_c, 1, 61, 127
2, 57200, Note_on_c, 1, 64, 127
2, 57200, Note_on_c, 1, 69, 127
2, 57480, Note_off_c, 1, 57, 0
2, 57480, Note_off_c, 1, 61, 0
2, 57480, Note_off_c, 1, 64, 0
2, 57520, Note_off_c, 1, 45, 0
2, 57520, Note_off_c, 1, 69, 0
2, 57560, Note_on_c, 1, 33, 127
2, 57560, Note_on_c, 1, 45, 127
2, 57560, Note_on_c, 1, 54, 127
2, 57560, Note_on_c, 1, 61, 127
2, 57560, Note_on_c, 1, 66, 127
2, 57800, Note_off_c, 1, 33, 0
2, 57800, Note_off_c, 1, 45, 0
2, 57880, Note_off_c, 1, 54, 0
2, 57880, Note_off_c, 1, 61, 0
2, 57880, Note_off_c, 1, 66, 0
2, 57920, Note_on_c, 1, 33, 127
2, 57920, Note_on_c, 1, 45, 127
2, 57920, Note_on_c, 1, 57, 127
2, 57920, Note_on_c, 1, 61, 127
2, 57920, Note_on_c, 1, 64, 127
2, 57920, Note_on_c, 1, 69, 127
2, 58240, Note_off_c, 1, 57, 0
2, 58240, Note_off_c, 1, 61, 0
2, 58240, Note_off_c, 1, 64, 0
2, 58240, Note_off_c, 1, 69, 0
2, 58280, Note_on_c, 1, 55, 127
2, 58280, Note_on_c, 1, 61, 127
2, 58280, Note_on_c, 1, 64, 127
2, 58480, Note_off_c, 1, 33, 0
2, 58480, Note_off_c, 1, 45, 0
2, 58480, Note_off_c, 1, 55, 0
2, 58480, Note_off_c, 1, 61, 0
2, 58480, Note_off_c, 1, 64, 0
2, 58520, Note_on_c, 1, 33, 127
2, 58520, Note_on_c, 1, 45, 127
2, 58520, Note_on_c, 1, 55, 127
2, 58520, Note_on_c, 1, 61, 127
2, 58520, Note_on_c, 1, 64, 127
2, 58560, Note_off_c, 1, 33, 0
2, 58560, Note_off_c, 1, 45, 0
2, 58600, Note_off_c, 1, 55, 0
2, 58600, Note_on_c, 1, 59, 127
2, 58600, Note_off_c, 1, 61, 0
2, 58600, Note_on_c, 1, 68, 127
2, 58600, Note_on_c, 1, 71, 127
2, 58600, Note_on_c, 1, 83, 127
2, 58640, Note_off_c, 1, 59, 0
2, 58640, Note_off_c, 1, 64, 0
2, 58640, Note_off_c, 1, 68, 0
2, 58640, Note_off_c, 1, 71, 0
2, 58640, Note_off_c, 1, 83, 0
2, 58680, Note_on_c, 1, 52, 127
2, 58680, Note_on_c, 1, 61, 127
2, 58680, Note_on_c, 1, 64, 127
2, 58680, Note_on_c, 1, 69, 127
2, 58680, Note_on_c, 1, 76, 127
2, 59000, Note_off_c, 1, 52, 0
2, 59000, Note_off_c, 1, 61, 0
2, 59000, Note_off_c, 1, 64, 0
2, 59000, Note_off_c, 1, 69, 0
2, 59000, Note_off_c, 1, 76, 0
2, 59040, Note_on_c, 1, 52, 127
2, 59040, Note_on_c, 1, 61, 127
2, 59040, Note_on_c, 1, 64, 127
2, 59040, Note_on_c, 1, 69, 127
2, 59040, Note_on_c, 1, 76, 127
2, 59360, Note_off_c, 1, 52, 0
2, 59360, Note_off_c, 1, 61, 0
2, 59360, Note_off_c, 1, 64, 0
2, 59360, Note_off_c, 1, 69, 0
2, 59360, Note_off_c, 1, 76, 0
2, 59400, Note_on_c, 1, 46, 127
2, 59400, Note_on_c, 1, 74, 127
2, 59400, Note_on_c, 1, 86, 127
2, 59400, Note_on_c, 1, 87, 127
2, 59440, Note_off_c, 1, 46, 0
2, 59440, Note_on_c, 1, 63, 127
2, 59440, Note_on_c, 1, 66, 127
2, 59440, Note_on_c, 1, 69, 127
2, 59440, Note_on_c, 1, 72, 127
2, 59440, Note_off_c, 1, 74, 0
2, 59440, Note_on_c, 1, 81, 127
2, 59440, Note_on_c, 1, 84, 127
2, 59440, Note_off_c, 1, 86, 0
2, 59440, Note_off_c, 1, 87, 0
2, 59480, Note_on_c, 1, 54, 127
2, 59480, Note_on_c, 1, 61, 127
2, 59480, Note_off_c, 1, 63, 0
2, 59480, Note_off_c, 1, 66, 0
2, 59480, Note_off_c, 1, 69, 0
2, 59480, Note_on_c, 1, 70, 127
2, 59480, Note_off_c, 1, 72, 0
2, 59480, Note_off_c, 1, 81, 0
2, 59480, Note_off_c, 1, 84, 0
2, 59480, Note_on_c, 1, 89, 127
2, 59520, Note_on_c, 1, 37, 127
2, 59520, Note_on_c, 1, 53, 127
2, 59520, Note_off_c, 1, 54, 0
2, 59520, Note_on_c, 1, 58, 127
2, 59520, Note_off_c, 1, 61, 0
2, 59520, Note_on_c, 1, 66, 127
2, 59520, Note_off_c, 1, 70, 0
2, 59520, Note_off_c, 1, 89, 0
2, 59560, Note_off_c, 1, 37, 0
2, 59560, Note_on_c, 1, 42, 127
2, 59560, Note_off_c, 1, 53, 0
2, 59560, Note_on_c, 1, 54, 127
2, 59560, Note_off_c, 1, 58, 0
2, 59560, Note_off_c, 1, 66, 0
2, 59560, Note_on_c, 1, 77, 127
2, 59560, Note_on_c, 1, 83, 127
2, 59560, Note_on_c, 1, 85, 127
2, 59560, Note_on_c, 1, 89, 127
2, 59600, Note_off_c, 1, 42, 0
2, 59600, Note_off_c, 1, 54, 0
2, 59600, Note_on_c, 1, 72, 127
2, 59600, Note_on_c, 1, 74, 127
2, 59600, Note_off_c, 1, 77, 0
2, 59600, Note_on_c, 1, 79, 127
2, 59600, Note_off_c, 1, 83, 0
2, 59600, Note_off_c, 1, 85, 0
2, 59600, Note_on_c, 1, 91, 127
2, 59600, Note_on_c, 1, 95, 127
2, 59640, Note_on_c, 1, 42, 127
2, 59640, Note_on_c, 1, 55, 127
2, 59640, Note_off_c, 1, 72, 0
2, 59640, Note_off_c, 1, 74, 0
2, 59640, Note_on_c, 1, 76, 127
2, 59640, Note_off_c, 1, 79, 0
2, 59640, Note_on_c, 1, 81, 127
2, 59640, Note_off_c, 1, 89, 0
2, 59640, Note_off_c, 1, 91, 0
2, 59640, Note_off_c, 1, 95, 0
2, 59680, Note_on_c, 1, 41, 127
2, 59680, Note_off_c, 1, 42, 0
2, 59680, Note_on_c, 1, 48, 127
2, 59680, Note_on_c, 1, 51, 127
2, 59680, Note_off_c, 1, 55, 0
2, 59680, Note_off_c, 1, 76, 0
2, 59680, Note_off_c, 1, 81, 0
2, 59680, Note_on_c, 1, 89, 127
2, 59720, Note_off_c, 1, 41, 0
2, 59720, Note_off_c, 1, 48, 0
2, 59720, Note_off_c, 1, 51, 0
2, 59720, Note_off_c, 1, 89, 0
2, 59760, Note_on_c, 1, 62, 127
2, 59760, Note_on_c, 1, 69, 127
2, 59760, Note_on_c, 1, 74, 127
2, 59760, Note_on_c, 1, 77, 127
2, 59760, Note_on_c, 1, 81, 127
2, 59760, Note_on_c, 1, 89, 127
2, 60040, Note_off_c, 1, 62, 0
2, 60040, Note_off_c, 1, 69, 0
2, 60040, Note_off_c, 1, 74, 0
2, 60040, Note_off_c, 1, 77, 0
2, 60040, Note_off_c, 1, 81, 0
2, 60040, Note_off_c, 1, 89, 0
2, 60080, Note_on_c, 1, 47, 127
2, 60080, Note_on_c, 1, 59, 127
2, 60080, Note_on_c, 1, 68, 127
2, 60080, Note_on_c, 1, 71, 127
2, 60080, Note_on_c, 1, 76, 127
2, 60080, Note_on_c, 1, 80, 127
2, 60240, Note_off_c, 1, 47, 0
2, 60240, Note_off_c, 1, 59, 0
2, 60240, Note_off_c, 1, 68, 0
2, 60240, Note_off_c, 1, 71, 0
2, 60240, Note_off_c, 1, 76, 0
2, 60240, Note_off_c, 1, 80, 0
2, 60280, Note_on_c, 1, 57, 127
2, 60280, Note_on_c, 1, 69, 127
2, 60280, Note_on_c, 1, 77, 127
2, 60280, Note_on_c, 1, 84, 127
2, 60400, Note_off_c, 1, 57, 0
2, 60400, Note_off_c, 1, 69, 0
2, 60400, Note_off_c, 1, 77, 0
2, 60400, Note_off_c, 1, 84, 0
2, 60440, Note_on_c, 1, 57, 127
2, 60440, Note_on_c, 1, 69, 127
2, 60440, Note_on_c, 1, 77, 127
2, 60440, Note_on_c, 1, 84, 127
2, 60600, Note_off_c, 1, 57, 0
2, 60600, Note_off_c, 1, 69, 0
2, 60600, Note_off_c, 1, 77, 0
2, 60600, Note_off_c, 1, 84, 0
2, 60640, Note_on_c, 1, 37, 127
2, 60640, Note_on_c, 1, 49, 127
2, 60640, Note_on_c, 1, 58, 127
2, 60640, Note_on_c, 1, 65, 127
2, 60640, Note_on_c, 1, 69, 127
2, 60760, Note_off_c, 1, 37, 0
2, 60760, Note_off_c, 1, 49, 0
2, 60760, Note_off_c, 1, 58, 0
2, 60760, Note_off_c, 1, 65, 0
2, 60760, Note_off_c, 1, 69, 0
2, 60800, Note_on_c, 1, 37, 127
2, 60800, Note_on_c, 1, 49, 127
2, 60800, Note_on_c, 1, 58, 127
2, 60800, Note_on_c, 1, 65, 127
2, 60800, Note_on_c, 1, 69, 127
2, 60920, Note_off_c, 1, 37, 0
2, 60920, Note_off_c, 1, 49, 0
2, 60920, Note_off_c, 1, 58, 0
2, 60920, Note_off_c, 1, 65, 0
2, 60920, Note_off_c, 1, 69, 0
2, 60960, Note_on_c, 1, 37, 127
2, 60960, Note_on_c, 1, 49, 127
2, 60960, Note_on_c, 1, 58, 127
2, 60960, Note_on_c, 1, 65, 127
2, 60960, Note_on_c, 1, 69, 127
2, 61000, Note_off_c, 1, 37, 0
2, 61000, Note_off_c, 1, 49, 0
2, 61000, Note_off_c, 1, 58, 0
2, 61000, Note_off_c, 1, 65, 0
2, 61000, Note_off_c, 1, 69, 0
2, 61040, Note_on_c, 1, 38, 127
2, 61040, Note_on_c, 1, 50, 127
2, 61040, Note_on_c, 1, 59, 127
2, 61040, Note_on_c, 1, 65, 127
2, 61040, Note_on_c, 1, 67, 127
2, 61160, Note_off_c, 1, 38, 0
2, 61160, Note_off_c, 1, 50, 0
2, 61160, Note_off_c, 1, 59, 0
2, 61160, Note_off_c, 1, 65, 0
2, 61160, Note_off_c, 1, 67, 0
2, 61200, Note_on_c, 1, 38, 127
2, 61200, Note_on_c, 1, 50, 127
2, 61200, Note_on_c, 1, 59, 127
2, 61200, Note_on_c, 1, 65, 127
2, 61200, Note_on_c, 1, 67, 127
2, 61520, Note_off_c, 1, 38, 0
2, 61520, Note_off_c, 1, 50, 0
2, 61520, Note_off_c, 1, 59, 0
2, 61520, Note_off_c, 1, 65, 0
2, 61520, Note_off_c, 1, 67, 0
2, 61560, Note_on_c, 1, 31, 127
2, 61560, Note_on_c, 1, 43, 127
2, 61560, Note_on_c, 1, 59, 127
2, 61560, Note_on_c, 1, 65, 127
2, 61560, Note_on_c, 1, 66, 127
2, 61760, Note_off_c, 1, 66, 0
2, 61760, Note_on_c, 1, 67, 127
2, 61880, Note_off_c, 1, 31, 0
2, 61880, Note_off_c, 1, 43, 0
2, 61880, Note_off_c, 1, 59, 0
2, 61880, Note_off_c, 1, 65, 0
2, 61880, Note_off_c, 1, 67, 0
2, 61920, Note_on_c, 1, 36, 127
2, 61920, Note_on_c, 1, 58, 127
2, 61920, Note_on_c, 1, 64, 127
2, 61920, Note_on_c, 1, 70, 127
2, 62040, Note_off_c, 1, 70, 0
2, 62080, Note_off_c, 1, 36, 0
2, 62080, Note_on_c, 1, 41, 127
2, 62080, Note_on_c, 1, 48, 127
2, 62080, Note_off_c, 1, 58, 0
2, 62080, Note_off_c, 1, 64, 0
2, 62080, Note_on_c, 1, 69, 127
2, 62080, Note_on_c, 1, 72, 127
2, 62240, Note_off_c, 1, 41, 0
2, 62240, Note_off_c, 1, 48, 0
2, 62240, Note_off_c, 1, 69, 0
2, 62240, Note_off_c, 1, 72, 0
2, 62280, Note_on_c, 1, 35, 127
2, 62280, Note_on_c, 1, 66, 127
2, 62280, Note_on_c, 1, 71, 127
2, 62280, Note_on_c, 1, 74, 127
2, 62320, Note_off_c, 1, 35, 0
2, 62320, Note_on_c, 1, 50, 127
2, 62320, Note_on_c, 1, 55, 127
2, 62320, Note_on_c, 1, 59, 127
2, 62320, Note_off_c, 1, 74, 0
2, 62360, Note_on_c, 1, 35, 127
2, 62360, Note_off_c, 1, 50, 0
2, 62360, Note_off_c, 1, 55, 0
2, 62360, Note_off_c, 1, 59, 0
2, 62360, Note_on_c, 1, 74, 127
2, 62400, Note_off_c, 1, 35, 0
2, 62440, Note_on_c, 1, 70, 127
2, 62440, Note_off_c, 1, 71, 0
2, 62440, Note_on_c, 1, 78, 127
2, 62480, Note_on_c, 1, 42, 127
2, 62480, Note_off_c, 1, 66, 0
2, 62480, Note_off_c, 1, 70, 0
2, 62480, Note_on_c, 1, 71, 127
2, 62480, Note_on_c, 1, 77, 127
2, 62480, Note_off_c, 1, 78, 0
2, 62520, Note_off_c, 1, 42, 0
2, 62520, Note_on_c, 1, 54, 127
2, 62520, Note_on_c, 1, 66, 127
2, 62520, Note_off_c, 1, 71, 0
2, 62520, Note_off_c, 1, 77, 0
2, 62520, Note_on_c, 1, 78, 127
2, 62560, Note_off_c, 1, 54, 0
2, 62560, Note_off_c, 1, 66, 0
2, 62560, Note_off_c, 1, 74, 0
2, 62560, Note_off_c, 1, 78, 0
2, 62600, Note_on_c, 1, 40, 127
2, 62600, Note_on_c, 1, 69, 127
2, 62600, Note_on_c, 1, 77, 127
2, 62600, Note_on_c, 1, 81, 127
2, 62760, Note_off_c, 1, 40, 0
2, 62760, Note_off_c, 1, 69, 0
2, 62760, Note_off_c, 1, 77, 0
2, 62760, Note_off_c, 1, 81, 0
2, 62800, Note_on_c, 1, 48, 127
2, 62800, Note_on_c, 1, 77, 127
2, 62800, Note_on_c, 1, 86, 127
2, 62800, Note_on_c, 1, 89, 127
2, 62920, Note_off_c, 1, 48, 0
2, 62920, Note_off_c, 1, 77, 0
2, 62920, Note_off_c, 1, 86, 0
2, 62920, Note_off_c, 1, 89, 0
2, 62960, Note_on_c, 1, 48, 127
2, 62960, Note_on_c, 1, 77, 127
2, 62960, Note_on_c, 1, 86, 127
2, 62960, Note_on_c, 1, 89, 127
2, 63040, Note_off_c, 1, 48, 0
2, 63040, Note_off_c, 1, 77, 0
2, 63040, Note_off_c, 1, 86, 0
2, 63040, Note_off_c, 1, 89, 0
2, 63080, Note_on_c, 1, 48, 127
2, 63080, Note_on_c, 1, 77, 127
2, 63080, Note_on_c, 1, 86, 127
2, 63080, Note_on_c, 1, 89, 127
2, 63120, Note_off_c, 1, 48, 0
2, 63120, Note_off_c, 1, 77, 0
2, 63120, Note_off_c, 1, 86, 0
2, 63120, Note_off_c, 1, 89, 0
2, 63160, Note_on_c, 1, 48, 127
2, 63160, Note_on_c, 1, 77, 127
2, 63160, Note_on_c, 1, 86, 127
2, 63160, Note_on_c, 1, 89, 127
2, 63320, Note_off_c, 1, 48, 0
2, 63320, Note_off_c, 1, 77, 0
2, 63320, Note_off_c, 1, 86, 0
2, 63320, Note_off_c, 1, 89, 0
2, 63360, Note_on_c, 1, 41, 127
2, 63360, Note_on_c, 1, 45, 127
2, 63360, Note_on_c, 1, 53, 127
2, 63520, Note_off_c, 1, 41, 0
2, 63520, Note_off_c, 1, 53, 0
2, 63520, Note_on_c, 1, 57, 127
2, 63520, Note_on_c, 1, 60, 127
2, 63520, Note_on_c, 1, 65, 127
2, 63520, Note_on_c, 1, 69, 127
2, 63520, Note_on_c, 1, 72, 127
2, 63520, Note_on_c, 1, 77, 127
2, 63520, Note_on_c, 1, 81, 127
2, 63560, Note_off_c, 1, 45, 0
2, 63560, Note_on_c, 1, 54, 127
2, 63560, Note_off_c, 1, 57, 0
2, 63560, Note_off_c, 1, 60, 0
2, 63560, Note_off_c, 1, 65, 0
2, 63560, Note_on_c, 1, 66, 127
2, 63560, Note_off_c, 1, 69, 0
2, 63560, Note_off_c, 1, 72, 0
2, 63560, Note_off_c, 1, 77, 0
2, 63560, Note_off_c, 1, 81, 0
2, 63560, Note_on_c, 1, 86, 127
2, 63560, Note_on_c, 1, 93, 127
2, 63600, Note_on_c, 1, 41, 127
2, 63600, Note_on_c, 1, 53, 127
2, 63600, Note_off_c, 1, 54, 0
2, 63600, Note_on_c, 1, 58, 127
2, 63600, Note_off_c, 1, 66, 0
2, 63600, Note_on_c, 1, 80, 127
2, 63600, Note_on_c, 1, 82, 127
2, 63600, Note_off_c, 1, 86, 0
2, 63600, Note_off_c, 1, 93, 0
2, 63600, Note_on_c, 1, 94, 127
2, 63640, Note_off_c, 1, 41, 0
2, 63640, Note_off_c, 1, 53, 0
2, 63640, Note_off_c, 1, 58, 0
2, 63640, Note_off_c, 1, 80, 0
2, 63640, Note_off_c, 1, 82, 0
2, 63640, Note_off_c, 1, 94, 0
2, 63680, Note_on_c, 1, 43, 127
2, 63680, Note_on_c, 1, 55, 127
2, 63680, Note_on_c, 1, 76, 127
2, 63680, Note_on_c, 1, 82, 127
2, 63720, Note_on_c, 1, 46, 127
2, 63720, Note_on_c, 1, 54, 127
2, 63720, Note_off_c, 1, 55, 0
2, 63720, Note_on_c, 1, 66, 127
2, 63720, Note_off_c, 1, 76, 0
2, 63720, Note_off_c, 1, 82, 0
2, 63760, Note_off_c, 1, 43, 0
2, 63760, Note_off_c, 1, 46, 0
2, 63760, Note_on_c, 1, 52, 127
2, 63760, Note_off_c, 1, 54, 0
2, 63760, Note_on_c, 1, 59, 127
2, 63760, Note_off_c, 1, 66, 0
2, 63760, Note_on_c, 1, 67, 127
2, 63760, Note_on_c, 1, 83, 127
2, 63800, Note_off_c, 1, 52, 0
2, 63800, Note_off_c, 1, 59, 0
2, 63800, Note_on_c, 1, 66, 127
2, 63800, Note_off_c, 1, 67, 0
2, 63800, Note_on_c, 1, 71, 127
2, 63800, Note_on_c, 1, 74, 127
2, 63800, Note_on_c, 1, 76, 127
2, 63800, Note_off_c, 1, 83, 0
2, 63840, Note_off_c, 1, 66, 0
2, 63840, Note_off_c, 1, 71, 0
2, 63840, Note_off_c, 1, 74, 0
2, 63840, Note_off_c, 1, 76, 0
2, 63880, Note_on_c, 1, 33, 127
2, 63880, Note_on_c, 1, 45, 127
2, 63880, Note_on_c, 1, 71, 127
2, 63880, Note_on_c, 1, 76, 127
2, 63880, Note_on_c, 1, 83, 127
2, 63920, Note_off_c, 1, 33, 0
2, 63920, Note_on_c, 1, 40, 127
2, 63920, Note_off_c, 1, 45, 0
2, 63920, Note_on_c, 1, 52, 127
2, 63920, Note_off_c, 1, 71, 0
2, 63920, Note_on_c, 1, 74, 127
2, 63920, Note_off_c, 1, 76, 0
2, 63920, Note_off_c, 1, 83, 0
2, 63920, Note_on_c, 1, 86, 127
2, 63960, Note_off_c, 1, 40, 0
2, 63960, Note_on_c, 1, 45, 127
2, 63960, Note_off_c, 1, 52, 0
2, 63960, Note_on_c, 1, 57, 127
2, 63960, Note_off_c, 1, 74, 0
2, 63960, Note_on_c, 1, 76, 127
2, 63960, Note_on_c, 1, 81, 127
2, 63960, Note_off_c, 1, 86, 0
2, 63960, Note_on_c, 1, 88, 127
2, 64000, Note_off_c, 1, 45, 0
2, 64000, Note_off_c, 1, 57, 0
2, 64000, Note_off_c, 1, 76, 0
2, 64000, Note_off_c, 1, 81, 0
2, 64000, Note_off_c, 1, 88, 0
2, 64040, Note_on_c, 1, 41, 127
2, 64040, Note_on_c, 1, 48, 127
2, 64040, Note_on_c, 1, 69, 127
2, 64040, Note_on_c, 1, 81, 127
2, 64160, Note_off_c, 1, 41, 0
2, 64160, Note_off_c, 1, 48, 0
2, 64200, Note_on_c, 1, 50, 127
2, 64200, Note_on_c, 1, 62, 127
2, 64200, Note_off_c, 1, 69, 0
2, 64200, Note_on_c, 1, 72, 127
2, 64200, Note_on_c, 1, 74, 127
2, 64200, Note_on_c, 1, 78, 127
2, 64360, Note_off_c, 1, 50, 0
2, 64360, Note_off_c, 1, 62, 0
2, 64360, Note_off_c, 1, 72, 0
2, 64360, Note_off_c, 1, 74, 0
2, 64360, Note_off_c, 1, 78, 0
2, 64360, Note_off_c, 1, 81, 0
2, 64400, Note_on_c, 1, 59, 127
2, 64400, Note_on_c, 1, 70, 127
2, 64400, Note_on_c, 1, 73, 127
2, 64400, Note_on_c, 1, 78, 127
2, 64520, Note_off_c, 1, 59, 0
2, 64520, Note_off_c, 1, 70, 0
2, 64520, Note_off_c, 1, 73, 0
2, 64520, Note_off_c, 1, 78, 0
2, 64560, Note_on_c, 1, 57, 127
2, 64560, Note_on_c, 1, 69, 127
2, 64560, Note_on_c, 1, 73, 127
2, 64560, Note_on_c, 1, 78, 127
2, 64720, Note_off_c, 1, 57, 0
2, 64720, Note_off_c, 1, 69, 0
2, 64720, Note_off_c, 1, 73, 0
2, 64720, Note_off_c, 1, 78, 0
2, 64760, Note_on_c, 1, 37, 127
2, 64760, Note_on_c, 1, 73, 127
2, 64760, Note_on_c, 1, 76, 127
2, 64880, Note_off_c, 1, 37, 0
2, 64880, Note_off_c, 1, 73, 0
2, 64880, Note_off_c, 1, 76, 0
2, 64920, Note_on_c, 1, 42, 127
2, 64920, Note_on_c, 1, 66, 127
2, 64920, Note_on_c, 1, 70, 127
2, 64920, Note_on_c, 1, 78, 127
2, 65040, Note_off_c, 1, 42, 0
2, 65040, Note_off_c, 1, 66, 0
2, 65040, Note_off_c, 1, 70, 0
2, 65040, Note_off_c, 1, 78, 0
2, 65160, Note_on_c, 1, 33, 127
2, 65160, Note_on_c, 1, 45, 127
2, 65160, Note_on_c, 1, 61, 127
2, 65160, Note_on_c, 1, 64, 127
2, 65160, Note_on_c, 1, 66, 127
2, 65280, Note_off_c, 1, 33, 0
2, 65280, Note_off_c, 1, 45, 0
2, 65280, Note_off_c, 1, 61, 0
2, 65280, Note_off_c, 1, 64, 0
2, 65280, Note_off_c, 1, 66, 0
2, 65320, Note_on_c, 1, 51, 127
2, 65320, Note_on_c, 1, 63, 127
2, 65320, Note_on_c, 1, 70, 127
2, 65320, Note_on_c, 1, 75, 127
2, 65320, Note_on_c, 1, 78, 127
2, 65440, Note_off_c, 1, 51, 0
2, 65440, Note_off_c, 1, 63, 0
2, 65440, Note_off_c, 1, 70, 0
2, 65440, Note_off_c, 1, 75, 0
2, 65440, Note_off_c, 1, 78, 0
2, 65480, Note_on_c, 1, 59, 127
2, 65480, Note_on_c, 1, 80, 127
2, 65480, Note_on_c, 1, 89, 127
2, 65480, Note_on_c, 1, 92, 127
2, 65640, Note_off_c, 1, 59, 0
2, 65640, Note_off_c, 1, 80, 0
2, 65640, Note_off_c, 1, 89, 0
2, 65640, Note_off_c, 1, 92, 0
2, 65680, Note_on_c, 1, 71, 127
2, 65680, Note_on_c, 1, 81, 127
2, 65680, Note_on_c, 1, 90, 127
2, 65680, Note_on_c, 1, 93, 127
2, 65800, Note_off_c, 1, 71, 0
2, 65800, Note_off_c, 1, 81, 0
2, 65800, Note_off_c, 1, 90, 0
2, 65800, Note_off_c, 1, 93, 0
2, 65840, Note_on_c, 1, 37, 127
2, 65840, Note_on_c, 1, 44, 127
2, 65840, Note_on_c, 1, 49, 127
2, 65840, Note_on_c, 1, 85, 127
2, 65840, Note_on_c, 1, 89, 127
2, 65840, Note_on_c, 1, 97, 127
2, 65960, Note_off_c, 1, 37, 0
2, 65960, Note_on_c, 1, 48, 127
2, 65960, Note_off_c, 1, 49, 0
2, 65960, Note_on_c, 1, 60, 127
2, 65960, Note_on_c, 1, 65, 127
2, 65960, Note_on_c, 1, 72, 127
2, 65960, Note_off_c, 1, 85, 0
2, 65960, Note_off_c, 1, 89, 0
2, 65960, Note_off_c, 1, 97, 0
2, 66000, Note_off_c, 1, 44, 0
2, 66000, Note_off_c, 1, 48, 0
2, 66000, Note_off_c, 1, 60, 0
2, 66000, Note_off_c, 1, 65, 0
2, 66000, Note_off_c, 1, 72, 0
2, 66040, Note_on_c, 1, 55, 127
2, 66040, Note_on_c, 1, 62, 127
2, 66040, Note_on_c, 1, 71, 127
2, 66040, Note_on_c, 1, 74, 127
2, 66040, Note_on_c, 1, 79, 127
2, 66160, Note_off_c, 1, 55, 0
2, 66160, Note_off_c, 1, 62, 0
2, 66160, Note_off_c, 1, 71, 0
2, 66160, Note_off_c, 1, 74, 0
2, 66160, Note_off_c, 1, 79, 0
2, 66200, Note_on_c, 1, 61, 127
2, 66200, Note_on_c, 1, 64, 127
2, 66200, Note_on_c, 1, 66, 127
2, 66200, Note_on_c, 1, 78, 127
2, 66200, Note_on_c, 1, 90, 127
2, 66240, Note_on_c, 1, 42, 127
2, 66240, Note_on_c, 1, 52, 127
2, 66240, Note_on_c, 1, 55, 127
2, 66240, Note_off_c, 1, 66, 0
2, 66240, Note_off_c, 1, 78, 0
2, 66240, Note_off_c, 1, 90, 0
2, 66280, Note_off_c, 1, 42, 0
2, 66280, Note_off_c, 1, 55, 0
2, 66280, Note_on_c, 1, 59, 127
2, 66280, Note_off_c, 1, 61, 0
2, 66280, Note_off_c, 1, 64, 0
2, 66280, Note_on_c, 1, 67, 127
2, 66280, Note_on_c, 1, 78, 127
2, 66280, Note_on_c, 1, 79, 127
2, 66320, Note_off_c, 1, 52, 0
2, 66320, Note_off_c, 1, 59, 0
2, 66320, Note_off_c, 1, 67, 0
2, 66320, Note_off_c, 1, 78, 0
2, 66320, Note_off_c, 1, 79, 0
2, 66360, Note_on_c, 1, 50, 127
2, 66360, Note_on_c, 1, 62, 127
2, 66360, Note_on_c, 1, 65, 127
2, 66360, Note_on_c, 1, 69, 127
2, 66360, Note_on_c, 1, 77, 127
2, 66520, Note_off_c, 1, 50, 0
2, 66520, Note_off_c, 1, 62, 0
2, 66520, Note_off_c, 1, 65, 0
2, 66520, Note_off_c, 1, 69, 0
2, 66520, Note_off_c, 1, 77, 0
2, 66560, Note_on_c, 1, 45, 127
2, 66560, Note_on_c, 1, 60, 127
2, 66560, Note_on_c, 1, 72, 127
2, 66680, Note_off_c, 1, 45, 0
2, 66680, Note_off_c, 1, 60, 0
2, 66680, Note_off_c, 1, 72, 0
2, 66720, Note_on_c, 1, 43, 127
2, 66720, Note_on_c, 1, 50, 127
2, 66720, Note_on_c, 1, 59, 127
2, 66720, Note_on_c, 1, 62, 127
2, 66720, Note_on_c, 1, 67, 127
2, 66880, Note_off_c, 1, 43, 0
2, 66880, Note_off_c, 1, 50, 0
2, 66880, Note_off_c, 1, 59, 0
2, 66880, Note_off_c, 1, 62, 0
2, 66880, Note_off_c, 1, 67, 0
2, 67080, Note_on_c, 1, 43, 127
2, 67080, Note_on_c, 1, 50, 127
2, 67080, Note_on_c, 1, 59, 127
2, 67080, Note_on_c, 1, 62, 127
2, 67200, Note_off_c, 1, 43, 0
2, 67200, Note_off_c, 1, 50, 0
2, 67200, Note_off_c, 1, 59, 0
2, 67200, Note_off_c, 1, 62, 0
2, 67240, Note_on_c, 1, 43, 127
2, 67240, Note_on_c, 1, 50, 127
2, 67240, Note_on_c, 1, 59, 127
2, 67240, Note_on_c, 1, 62, 127
2, 67280, Note_off_c, 1, 59, 0
2, 67280, Note_off_c, 1, 62, 0
2, 67320, Note_on_c, 1, 86, 127
2, 67400, Note_off_c, 1, 86, 0
2, 67440, Note_off_c, 1, 43, 0
2, 67440, Note_off_c, 1, 50, 0
2, 67480, Note_on_c, 1, 43, 127
2, 67480, Note_on_c, 1, 50, 127
2, 67480, Note_on_c, 1, 59, 127
2, 67480, Note_on_c, 1, 62, 127
2, 67480, Note_on_c, 1, 67, 127
2, 67600, Note_off_c, 1, 43, 0
2, 67600, Note_off_c, 1, 50, 0
2, 67600, Note_off_c, 1, 59, 0
2, 67600, Note_off_c, 1, 62, 0
2, 67600, Note_off_c, 1, 67, 0
2, 67840, Note_on_c, 1, 43, 127
2, 67840, Note_on_c, 1, 50, 127
2, 67840, Note_on_c, 1, 59, 127
2, 67840, Note_on_c, 1, 67, 127
2, 67960, Note_off_c, 1, 43, 0
2, 67960, Note_off_c, 1, 50, 0
2, 67960, Note_off_c, 1, 59, 0
2, 67960, Note_off_c, 1, 67, 0
2, 68160, Note_on_c, 1, 38, 127
2, 68200, Note_on_c, 1, 45, 127
2, 68480, Note_off_c, 1, 38, 0
2, 68480, Note_off_c, 1, 45, 0
2, 68520, Note_on_c, 1, 57, 127
2, 68520, Note_on_c, 1, 64, 127
2, 68520, Note_on_c, 1, 69, 127
2, 68520, Note_on_c, 1, 73, 127
2, 68520, Note_on_c, 1, 79, 127
2, 68840, Note_on_c, 1, 45, 127
2, 68840, Note_off_c, 1, 57, 0
2, 68840, Note_off_c, 1, 64, 0
2, 68840, Note_off_c, 1, 73, 0
2, 68840, Note_off_c, 1, 79, 0
2, 68880, Note_off_c, 1, 45, 0
2, 68880, Note_on_c, 1, 47, 127
2, 68880, Note_on_c, 1, 59, 127
2, 68880, Note_on_c, 1, 64, 127
2, 68880, Note_on_c, 1, 68, 127
2, 68880, Note_off_c, 1, 69, 0
2, 68880, Note_on_c, 1, 74, 127
2, 69040, Note_off_c, 1, 47, 0
2, 69040, Note_off_c, 1, 59, 0
2, 69040, Note_off_c, 1, 64, 0
2, 69040, Note_off_c, 1, 68, 0
2, 69040, Note_off_c, 1, 74, 0
2, 69120, Note_on_c, 1, 43, 127
2, 69120, Note_on_c, 1, 55, 127
2, 69120, Note_on_c, 1, 70, 127
2, 69120, Note_on_c, 1, 79, 127
2, 69160, Note_off_c, 1, 70, 0
2, 69160, Note_on_c, 1, 73, 127
2, 69160, Note_on_c, 1, 76, 127
2, 69160, Note_off_c, 1, 79, 0
2, 69160, Note_on_c, 1, 85, 127
2, 69200, Note_on_c, 1, 37, 127
2, 69200, Note_on_c, 1, 42, 127
2, 69200, Note_off_c, 1, 43, 0
2, 69200, Note_on_c, 1, 49, 127
2, 69200, Note_off_c, 1, 55, 0
2, 69200, Note_off_c, 1, 73, 0
2, 69200, Note_off_c, 1, 76, 0
2, 69200, Note_off_c, 1, 85, 0
2, 69200, Note_on_c, 1, 88, 127
2, 69240, Note_off_c, 1, 37, 0
2, 69240, Note_off_c, 1, 42, 0
2, 69240, Note_off_c, 1, 49, 0
2, 69240, Note_off_c, 1, 88, 0
2, 69280, Note_on_c, 1, 67, 127
2, 69280, Note_on_c, 1, 86, 127
2, 69280, Note_on_c, 1, 91, 127
2, 69280, Note_on_c, 1, 98, 127
2, 69560, Note_on_c, 1, 46, 127
2, 69560, Note_on_c, 1, 54, 127
2, 69560, Note_on_c, 1, 58, 127
2, 69560, Note_off_c, 1, 67, 0
2, 69560, Note_off_c, 1, 86, 0
2, 69560, Note_off_c, 1, 91, 0
2, 69560, Note_off_c, 1, 98, 0
2, 69600, Note_on_c, 1, 33, 127
2, 69600, Note_on_c, 1, 42, 127
2, 69600, Note_on_c, 1, 45, 127
2, 69600, Note_off_c, 1, 46, 0
2, 69600, Note_off_c, 1, 58, 0
2, 69600, Note_on_c, 1, 60, 127
2, 69600, Note_on_c, 1, 63, 127
2, 69920, Note_off_c, 1, 33, 0
2, 69920, Note_off_c, 1, 42, 0
2, 69920, Note_off_c, 1, 45, 0
2, 69920, Note_off_c, 1, 54, 0
2, 69920, Note_off_c, 1, 60, 0
2, 69920, Note_off_c, 1, 63, 0
2, 69960, Note_on_c, 1, 35, 127
2, 69960, Note_on_c, 1, 47, 127
2, 69960, Note_on_c, 1, 51, 127
2, 69960, Note_on_c, 1, 56, 127
2, 69960, Note_on_c, 1, 59, 127
2, 71480, Note_off_c, 1, 35, 0
2, 71480, Note_off_c, 1, 47, 0
2, 71480, Note_off_c, 1, 51, 0
2, 71480, Note_off_c, 1, 56, 0
2, 71480, Note_off_c, 1, 59, 0
2, 71520, Note_on_c, 1, 35, 127
2, 71520, Note_on_c, 1, 47, 127
2, 71520, Note_on_c, 1, 51, 127
2, 71520, Note_on_c, 1, 56, 127
2, 71520, Note_on_c, 1, 59, 127
2, 72440, Note_off_c, 1, 35, 0
2, 72440, Note_off_c, 1, 47, 0
2, 72440, Note_off_c, 1, 51, 0
2, 72440, Note_off_c, 1, 56, 0
2, 72440, Note_on_c, 1, 67, 127
2, 72440, Note_on_c, 1, 74, 127
2, 72440, Note_on_c, 1, 86, 127
2, 72480, Note_off_c, 1, 59, 0
2, 72480, Note_off_c, 1, 67, 0
2, 72480, Note_off_c, 1, 74, 0
2, 72480, Note_off_c, 1, 86, 0
2, 72520, Note_on_c, 1, 74, 127
2, 72520, Note_on_c, 1, 81, 127
2, 72800, Note_off_c, 1, 74, 0
2, 72800, Note_off_c, 1, 81, 0
2, 72840, Note_on_c, 1, 69, 127
2, 72840, Note_on_c, 1, 76, 127
2, 72840, Note_on_c, 1, 81, 127
2, 72840, Note_on_c, 1, 85, 127
2, 72840, Note_on_c, 1, 91, 127
2, 72920, Note_on_c, 1, 41, 127
2, 72920, Note_off_c, 1, 69, 0
2, 72920, Note_off_c, 1, 85, 0
2, 72920, Note_off_c, 1, 91, 0
2, 72960, Note_off_c, 1, 41, 0
2, 72960, Note_on_c, 1, 69, 127
2, 72960, Note_on_c, 1, 85, 127
2, 72960, Note_on_c, 1, 91, 127
2, 73040, Note_off_c, 1, 69, 0
2, 73040, Note_on_c, 1, 74, 127
2, 73040, Note_off_c, 1, 76, 0
2, 73040, Note_off_c, 1, 85, 0
2, 73040, Note_on_c, 1, 86, 127
2, 73040, Note_on_c, 1, 90, 127
2, 73040, Note_off_c, 1, 91, 0
2, 73160, Note_off_c, 1, 74, 0
2, 73160, Note_off_c, 1, 81, 0
2, 73160, Note_off_c, 1, 86, 0
2, 73160, Note_off_c, 1, 90, 0
2, 73200, Note_on_c, 1, 52, 127
2, 73200, Note_on_c, 1, 56, 127
2, 73200, Note_on_c, 1, 59, 127
2, 73200, Note_on_c, 1, 64, 127
2, 73200, Note_on_c, 1, 75, 127
2, 73200, Note_on_c, 1, 78, 127
2, 73240, Note_on_c, 1, 38, 127
2, 73240, Note_on_c, 1, 46, 127
2, 73240, Note_off_c, 1, 52, 0
2, 73240, Note_off_c, 1, 56, 0
2, 73240, Note_off_c, 1, 59, 0
2, 73240, Note_on_c, 1, 60, 127
2, 73240, Note_on_c, 1, 72, 127
2, 73240, Note_off_c, 1, 75, 0
2, 73240, Note_off_c, 1, 78, 0
2, 73280, Note_off_c, 1, 38, 0
2, 73280, Note_off_c, 1, 46, 0
2, 73280, Note_on_c, 1, 52, 127
2, 73280, Note_on_c, 1, 56, 127
2, 73280, Note_on_c, 1, 59, 127
2, 73280, Note_off_c, 1, 60, 0
2, 73280, Note_off_c, 1, 72, 0
2, 73280, Note_on_c, 1, 75, 127
2, 73280, Note_on_c, 1, 78, 127
2, 73360, Note_off_c, 1, 52, 0
2, 73360, Note_off_c, 1, 56, 0
2, 73360, Note_off_c, 1, 59, 0
2, 73360, Note_off_c, 1, 64, 0
2, 73360, Note_off_c, 1, 75, 0
2, 73360, Note_on_c, 1, 77, 127
2, 73360, Note_off_c, 1, 78, 0
2, 73360, Note_on_c, 1, 88, 127
2, 73360, Note_on_c, 1, 91, 127
2, 73400, Note_off_c, 1, 77, 0
2, 73400, Note_off_c, 1, 88, 0
2, 73400, Note_off_c, 1, 91, 0
2, 73440, Note_on_c, 1, 55, 127
2, 73440, Note_on_c, 1, 61, 127
2, 73440, Note_on_c, 1, 67, 127
2, 73440, Note_on_c, 1, 76, 127
2, 73440, Note_on_c, 1, 83, 127
2, 73480, Note_off_c, 1, 55, 0
2, 73480, Note_off_c, 1, 61, 0
2, 73480, Note_on_c, 1, 65, 127
2, 73480, Note_off_c, 1, 67, 0
2, 73480, Note_off_c, 1, 76, 0
2, 73480, Note_on_c, 1, 77, 127
2, 73480, Note_off_c, 1, 83, 0
2, 73480, Note_on_c, 1, 88, 127
2, 73480, Note_on_c, 1, 100, 127
2, 73520, Note_off_c, 1, 65, 0
2, 73520, Note_off_c, 1, 77, 0
2, 73520, Note_off_c, 1, 88, 0
2, 73520, Note_off_c, 1, 100, 0
2, 73560, Note_on_c, 1, 77, 127
2, 73560, Note_on_c, 1, 89, 127
2, 73560, Note_on_c, 1, 92, 127
2, 73880, Note_off_c, 1, 77, 0
2, 73880, Note_off_c, 1, 89, 0
2, 73880, Note_off_c, 1, 92, 0
2, 73920, Note_on_c, 1, 41, 127
2, 73920, Note_on_c, 1, 48, 127
2, 73920, Note_on_c, 1, 53, 127
2, 73920, Note_on_c, 1, 60, 127
2, 73920, Note_on_c, 1, 63, 127
2, 73920, Note_on_c, 1, 75, 127
2, 73920, Note_on_c, 1, 81, 127
2, 73920, Note_on_c, 1, 87, 127
2, 73960, Note_off_c, 1, 41, 0
2, 73960, Note_off_c, 1, 48, 0
2, 73960, Note_off_c, 1, 53, 0
2, 73960, Note_on_c, 1, 58, 127
2, 73960, Note_off_c, 1, 60, 0
2, 73960, Note_on_c, 1, 61, 127
2, 73960, Note_on_c, 1, 67, 127
2, 73960, Note_on_c, 1, 70, 127
2, 73960, Note_on_c, 1, 73, 127
2, 73960, Note_off_c, 1, 75, 0
2, 73960, Note_off_c, 1, 81, 0
2, 73960, Note_off_c, 1, 87, 0
2, 74000, Note_off_c, 1, 58, 0
2, 74000, Note_on_c, 1, 59, 127
2, 74000, Note_off_c, 1, 61, 0
2, 74000, Note_on_c, 1, 62, 127
2, 74000, Note_off_c, 1, 63, 0
2, 74000, Note_on_c, 1, 66, 127
2, 74000, Note_off_c, 1, 67, 0
2, 74000, Note_off_c, 1, 70, 0
2, 74000, Note_off_c, 1, 73, 0
2, 74000, Note_on_c, 1, 95, 127
2, 74040, Note_off_c, 1, 59, 0
2, 74040, Note_off_c, 1, 62, 0
2, 74040, Note_off_c, 1, 66, 0
2, 74040, Note_on_c, 1, 75, 127
2, 74040, Note_on_c, 1, 79, 127
2, 74040, Note_on_c, 1, 83, 127
2, 74040, Note_off_c, 1, 95, 0
2, 74080, Note_on_c, 1, 68, 127
2, 74080, Note_off_c, 1, 75, 0
2, 74080, Note_on_c, 1, 76, 127
2, 74080, Note_off_c, 1, 79, 0
2, 74080, Note_on_c, 1, 80, 127
2, 74080, Note_off_c, 1, 83, 0
2, 74080, Note_on_c, 1, 88, 127
2, 74080, Note_on_c, 1, 92, 127
2, 74240, Note_off_c, 1, 68, 0
2, 74240, Note_off_c, 1, 76, 0
2, 74240, Note_off_c, 1, 80, 0
2, 74240, Note_off_c, 1, 88, 0
2, 74240, Note_off_c, 1, 92, 0
2, 74280, Note_on_c, 1, 30, 127
2, 74280, Note_on_c, 1, 42, 127
2, 74280, Note_on_c, 1, 80, 127
2, 74480, Note_off_c, 1, 80, 0
2, 74520, Note_on_c, 1, 80, 127
2, 74560, Note_off_c, 1, 80, 0
2, 74640, Note_on_c, 1, 60, 127
2, 74640, Note_on_c, 1, 70, 127
2, 74680, Note_off_c, 1, 70, 0
2, 74720, Note_on_c, 1, 70, 127
2, 74880, Note_on_c, 1, 68, 127
2, 74880, Note_off_c, 1, 70, 0
2, 74920, Note_off_c, 1, 60, 0
2, 74920, Note_off_c, 1, 68, 0
2, 74960, Note_on_c, 1, 60, 127
2, 74960, Note_on_c, 1, 70, 127
2, 75280, Note_off_c, 1, 30, 0
2, 75280, Note_off_c, 1, 42, 0
2, 75280, Note_off_c, 1, 60, 0
2, 75280, Note_off_c, 1, 70, 0
2, 75320, Note_on_c, 1, 27, 127
2, 75320, Note_on_c, 1, 39, 127
2, 75320, Note_on_c, 1, 58, 127
2, 75560, Note_off_c, 1, 27, 0
2, 75560, Note_off_c, 1, 39, 0
2, 75560, Note_off_c, 1, 58, 0
2, 75600, Note_on_c, 1, 27, 127
2, 75600, Note_on_c, 1, 39, 127
2, 75600, Note_on_c, 1, 58, 127
2, 76040, Note_on_c, 1, 57, 127
2, 76040, Note_off_c, 1, 58, 0
2, 76360, Note_off_c, 1, 27, 0
2, 76360, Note_off_c, 1, 39, 0
2, 76360, Note_off_c, 1, 57, 0
2, 76400, Note_on_c, 1, 41, 127
2, 76400, Note_on_c, 1, 44, 127
2, 76400, Note_on_c, 1, 47, 127
2, 76400, Note_on_c, 1, 64, 127
2, 76440, Note_on_c, 1, 28, 127
2, 76440, Note_on_c, 1, 40, 127
2, 76440, Note_off_c, 1, 41, 0
2, 76440, Note_off_c, 1, 44, 0
2, 76440, Note_off_c, 1, 47, 0
2, 76440, Note_off_c, 1, 64, 0
2, 76440, Note_on_c, 1, 74, 127
2, 76480, Note_off_c, 1, 28, 0
2, 76480, Note_off_c, 1, 40, 0
2, 76480, Note_on_c, 1, 60, 127
2, 76480, Note_off_c, 1, 74, 0
2, 76480, Note_on_c, 1, 76, 127
2, 76480, Note_on_c, 1, 80, 127
2, 76480, Note_on_c, 1, 84, 127
2, 76480, Note_on_c, 1, 88, 127
2, 76520, Note_off_c, 1, 60, 0
2, 76520, Note_off_c, 1, 76, 0
2, 76520, Note_off_c, 1, 80, 0
2, 76520, Note_off_c, 1, 84, 0
2, 76520, Note_on_c, 1, 96, 127
2, 76520, Note_on_c, 1, 99, 127
2, 76520, Note_on_c, 1, 100, 127
2, 76560, Note_on_c, 1, 50, 127
2, 76560, Note_on_c, 1, 57, 127
2, 76560, Note_on_c, 1, 65, 127
2, 76560, Note_on_c, 1, 74, 127
2, 76560, Note_on_c, 1, 76, 127
2, 76560, Note_off_c, 1, 88, 0
2, 76560, Note_off_c, 1, 96, 0
2, 76560, Note_off_c, 1, 99, 0
2, 76560, Note_off_c, 1, 100, 0
2, 76600, Note_on_c, 1, 41, 127
2, 76600, Note_on_c, 1, 45, 127
2, 76600, Note_on_c, 1, 48, 127
2, 76600, Note_off_c, 1, 50, 0
2, 76600, Note_off_c, 1, 57, 0
2, 76600, Note_off_c, 1, 65, 0
2, 76600, Note_on_c, 1, 72, 127
2, 76600, Note_off_c, 1, 74, 0
2, 76600, Note_off_c, 1, 76, 0
2, 76640, Note_off_c, 1, 41, 0
2, 76640, Note_off_c, 1, 45, 0
2, 76640, Note_off_c, 1, 48, 0
2, 76640, Note_on_c, 1, 49, 127
2, 76640, Note_on_c, 1, 61, 127
2, 76640, Note_on_c, 1, 64, 127
2, 76640, Note_on_c, 1, 67, 127
2, 76640, Note_on_c, 1, 71, 127
2, 76640, Note_off_c, 1, 72, 0
2, 76680, Note_on_c, 1, 40, 127
2, 76680, Note_off_c, 1, 49, 0
2, 76680, Note_on_c, 1, 56, 127
2, 76680, Note_on_c, 1, 63, 127
2, 76680, Note_off_c, 1, 64, 0
2, 76680, Note_off_c, 1, 67, 0
2, 76680, Note_off_c, 1, 71, 0
2, 76680, Note_on_c, 1, 73, 127
2, 76720, Note_off_c, 1, 40, 0
2, 76720, Note_on_c, 1, 41, 127
2, 76720, Note_on_c, 1, 45, 127
2, 76720, Note_on_c, 1, 53, 127
2, 76720, Note_off_c, 1, 56, 0
2, 76720, Note_off_c, 1, 61, 0
2, 76720, Note_off_c, 1, 63, 0
2, 76720, Note_off_c, 1, 73, 0
2, 76760, Note_off_c, 1, 41, 0
2, 76760, Note_off_c, 1, 45, 0
2, 76760, Note_off_c, 1, 53, 0
2, 76760, Note_on_c, 1, 65, 127
2, 76760, Note_on_c, 1, 67, 127
2, 76760, Note_on_c, 1, 70, 127
2, 76760, Note_on_c, 1, 74, 127
2, 77080, Note_off_c, 1, 65, 0
2, 77080, Note_off_c, 1, 67, 0
2, 77080, Note_off_c, 1, 70, 0
2, 77080, Note_off_c, 1, 74, 0
2, 77120, Note_on_c, 1, 45, 127
2, 77120, Note_on_c, 1, 60, 127
2, 77120, Note_on_c, 1, 69, 127
2, 77120, Note_on_c, 1, 72, 127
2, 77320, Note_off_c, 1, 45, 0
2, 77320, Note_on_c, 1, 52, 127
2, 77320, Note_on_c, 1, 57, 127
2, 77320, Note_on_c, 1, 64, 127
2, 77360, Note_on_c, 1, 45, 127
2, 77360, Note_off_c, 1, 52, 0
2, 77360, Note_off_c, 1, 57, 0
2, 77360, Note_off_c, 1, 64, 0
2, 77440, Note_off_c, 1, 45, 0
2, 77480, Note_off_c, 1, 60, 0
2, 77480, Note_off_c, 1, 69, 0
2, 77480, Note_off_c, 1, 72, 0
2, 77520, Note_on_c, 1, 57, 127
2, 77520, Note_on_c, 1, 64, 127
2, 77520, Note_on_c, 1, 72, 127
2, 77520, Note_on_c, 1, 76, 127
2, 77520, Note_on_c, 1, 84, 127
2, 77640, Note_on_c, 1, 38, 127
2, 77640, Note_on_c, 1, 50, 127
2, 77640, Note_off_c, 1, 57, 0
2, 77640, Note_on_c, 1, 59, 127
2, 77640, Note_on_c, 1, 62, 127
2, 77640, Note_off_c, 1, 64, 0
2, 77640, Note_on_c, 1, 67, 127
2, 77640, Note_on_c, 1, 71, 127
2, 77640, Note_off_c, 1, 72, 0
2, 77640, Note_off_c, 1, 76, 0
2, 77640, Note_off_c, 1, 84, 0
2, 77680, Note_off_c, 1, 38, 0
2, 77680, Note_off_c, 1, 50, 0
2, 77680, Note_on_c, 1, 52, 127
2, 77680, Note_off_c, 1, 59, 0
2, 77680, Note_off_c, 1, 62, 0
2, 77680, Note_off_c, 1, 67, 0
2, 77680, Note_on_c, 1, 69, 127
2, 77680, Note_off_c, 1, 71, 0
2, 77680, Note_on_c, 1, 72, 127
2, 77680, Note_on_c, 1, 77, 127
2, 77680, Note_on_c, 1, 81, 127
2, 77720, Note_on_c, 1, 51, 127
2, 77720, Note_off_c, 1, 52, 0
2, 77720, Note_off_c, 1, 77, 0
2, 77720, Note_off_c, 1, 81, 0
2, 77760, Note_on_c, 1, 33, 127
2, 77760, Note_on_c, 1, 40, 127
2, 77760, Note_off_c, 1, 51, 0
2, 77760, Note_on_c, 1, 65, 127
2, 77760, Note_on_c, 1, 68, 127
2, 77760, Note_off_c, 1, 69, 0
2, 77760, Note_on_c, 1, 71, 127
2, 77760, Note_off_c, 1, 72, 0
2, 77760, Note_on_c, 1, 74, 127
2, 77800, Note_off_c, 1, 33, 0
2, 77800, Note_off_c, 1, 40, 0
2, 77800, Note_off_c, 1, 65, 0
2, 77800, Note_off_c, 1, 68, 0
2, 77800, Note_on_c, 1, 69, 127
2, 77800, Note_off_c, 1, 71, 0
2, 77800, Note_on_c, 1, 72, 127
2, 77800, Note_off_c, 1, 74, 0
2, 77840, Note_on_c, 1, 48, 127
2, 77840, Note_on_c, 1, 77, 127
2, 77840, Note_on_c, 1, 81, 127
2, 78120, Note_off_c, 1, 48, 0
2, 78120, Note_on_c, 1, 53, 127
2, 78160, Note_off_c, 1, 53, 0
2, 78160, Note_off_c, 1, 69, 0
2, 78160, Note_off_c, 1, 72, 0
2, 78160, Note_off_c, 1, 77, 0
2, 78160, Note_off_c, 1, 81, 0
2, 78200, Note_on_c, 1, 57, 127
2, 78200, Note_on_c, 1, 69, 127
2, 78200, Note_on_c, 1, 72, 127
2, 78200, Note_on_c, 1, 77, 127
2, 78200, Note_on_c, 1, 81, 127
2, 78520, Note_on_c, 1, 53, 127
2, 78520, Note_off_c, 1, 57, 0
2, 78520, Note_off_c, 1, 69, 0
2, 78520, Note_off_c, 1, 72, 0
2, 78520, Note_off_c, 1, 77, 0
2, 78520, Note_off_c, 1, 81, 0
2, 78560, Note_on_c, 1, 37, 127
2, 78560, Note_off_c, 1, 53, 0
2, 78560, Note_on_c, 1, 73, 127
2, 78560, Note_on_c, 1, 81, 127
2, 78560, Note_on_c, 1, 85, 127
2, 78600, Note_off_c, 1, 37, 0
2, 78600, Note_on_c, 1, 49, 127
2, 78600, Note_on_c, 1, 53, 127
2, 78600, Note_on_c, 1, 59, 127
2, 78600, Note_on_c, 1, 68, 127
2, 78600, Note_off_c, 1, 81, 0
2, 78600, Note_off_c, 1, 85, 0
2, 78640, Note_off_c, 1, 49, 0
2, 78640, Note_off_c, 1, 53, 0
2, 78640, Note_off_c, 1, 59, 0
2, 78640, Note_off_c, 1, 73, 0
2, 78640, Note_on_c, 1, 81, 127
2, 78640, Note_on_c, 1, 82, 127
2, 78680, Note_on_c, 1, 38, 127
2, 78680, Note_on_c, 1, 50, 127
2, 78680, Note_off_c, 1, 68, 0
2, 78680, Note_on_c, 1, 79, 127
2, 78680, Note_off_c, 1, 81, 0
2, 78680, Note_on_c, 1, 84, 127
2, 78680, Note_on_c, 1, 91, 127
2, 78720, Note_off_c, 1, 38, 0
2, 78720, Note_on_c, 1, 49, 127
2, 78720, Note_off_c, 1, 50, 0
2, 78720, Note_on_c, 1, 61, 127
2, 78720, Note_on_c, 1, 68, 127
2, 78720, Note_on_c, 1, 71, 127
2, 78720, Note_on_c, 1, 77, 127
2, 78720, Note_off_c, 1, 79, 0
2, 78720, Note_on_c, 1, 80, 127
2, 78720, Note_off_c, 1, 82, 0
2, 78720, Note_off_c, 1, 84, 0
2, 78720, Note_off_c, 1, 91, 0
2, 78840, Note_off_c, 1, 49, 0
2, 78840, Note_off_c, 1, 61, 0
2, 78840, Note_off_c, 1, 68, 0
2, 78840, Note_off_c, 1, 71, 0
2, 78840, Note_off_c, 1, 77, 0
2, 78840, Note_off_c, 1, 80, 0
2, 78880, Note_on_c, 1, 49, 127
2, 78880, Note_on_c, 1, 61, 127
2, 78880, Note_on_c, 1, 68, 127
2, 78880, Note_on_c, 1, 71, 127
2, 78880, Note_on_c, 1, 77, 127
2, 78880, Note_on_c, 1, 80, 127
2, 79200, Note_off_c, 1, 49, 0
2, 79200, Note_off_c, 1, 61, 0
2, 79200, Note_off_c, 1, 68, 0
2, 79200, Note_off_c, 1, 71, 0
2, 79200, Note_off_c, 1, 77, 0
2, 79200, Note_off_c, 1, 80, 0
2, 79240, Note_on_c, 1, 49, 127
2, 79240, Note_on_c, 1, 61, 127
2, 79240, Note_on_c, 1, 68, 127
2, 79240, Note_on_c, 1, 71, 127
2, 79240, Note_on_c, 1, 77, 127
2, 79240, Note_on_c, 1, 80, 127
2, 79560, Note_off_c, 1, 49, 0
2, 79560, Note_off_c, 1, 61, 0
2, 79560, Note_off_c, 1, 68, 0
2, 79560, Note_off_c, 1, 71, 0
2, 79560, Note_off_c, 1, 77, 0
2, 79560, Note_off_c, 1, 80, 0
2, 79640, Note_on_c, 1, 49, 127
2, 79640, Note_on_c, 1, 61, 127
2, 79640, Note_on_c, 1, 68, 127
2, 79640, Note_on_c, 1, 71, 127
2, 79640, Note_on_c, 1, 77, 127
2, 79640, Note_on_c, 1, 80, 127
2, 79920, Note_off_c, 1, 49, 0
2, 79920, Note_off_c, 1, 61, 0
2, 79920, Note_off_c, 1, 68, 0
2, 79920, Note_off_c, 1, 71, 0
2, 79920, Note_off_c, 1, 77, 0
2, 79920, Note_off_c, 1, 80, 0
2, 79960, Note_on_c, 1, 49, 127
2, 79960, Note_on_c, 1, 61, 127
2, 79960, Note_on_c, 1, 68, 127
2, 79960, Note_on_c, 1, 71, 127
2, 79960, Note_on_c, 1, 77, 127
2, 79960, Note_on_c, 1, 80, 127
2, 80280, Note_off_c, 1, 49, 0
2, 80280, Note_off_c, 1, 61, 0
2, 80280, Note_off_c, 1, 68, 0
2, 80280, Note_off_c, 1, 71, 0
2, 80280, Note_off_c, 1, 77, 0
2, 80280, Note_off_c, 1, 80, 0
2, 80320, Note_on_c, 1, 49, 127
2, 80320, Note_on_c, 1, 61, 127
2, 80320, Note_on_c, 1, 68, 127
2, 80320, Note_on_c, 1, 71, 127
2, 80320, Note_on_c, 1, 77, 127
2, 80320, Note_on_c, 1, 80, 127
2, 80640, Note_off_c, 1, 49, 0
2, 80640, Note_off_c, 1, 61, 0
2, 80640, Note_off_c, 1, 68, 0
2, 80640, Note_off_c, 1, 71, 0
2, 80640, Note_off_c, 1, 77, 0
2, 80640, Note_off_c, 1, 80, 0
2, 80680, Note_on_c, 1, 60, 127
2, 80680, Note_on_c, 1, 63, 127
2, 80680, Note_on_c, 1, 68, 127
2, 80680, Note_on_c, 1, 80, 127
2, 80680, Note_on_c, 1, 87, 127
2, 80680, Note_on_c, 1, 90, 127
2, 80680, Note_on_c, 1, 92, 127
2, 80840, Note_off_c, 1, 60, 0
2, 80840, Note_off_c, 1, 63, 0
2, 80840, Note_off_c, 1, 68, 0
2, 80840, Note_on_c, 1, 77, 127
2, 80840, Note_on_c, 1, 86, 127
2, 80840, Note_off_c, 1, 87, 0
2, 80840, Note_off_c, 1, 90, 0
2, 80840, Note_off_c, 1, 92, 0
2, 80840, Note_on_c, 1, 101, 127
2, 80880, Note_on_c, 1, 43, 127
2, 80880, Note_on_c, 1, 52, 127
2, 80880, Note_on_c, 1, 71, 127
2, 80880, Note_on_c, 1, 74, 127
2, 80880, Note_off_c, 1, 77, 0
2, 80880, Note_off_c, 1, 80, 0
2, 80880, Note_on_c, 1, 83, 127
2, 80880, Note_off_c, 1, 86, 0
2, 80880, Note_off_c, 1, 101, 0
2, 80920, Note_off_c, 1, 43, 0
2, 80920, Note_on_c, 1, 45, 127
2, 80920, Note_off_c, 1, 52, 0
2, 80920, Note_on_c, 1, 54, 127
2, 80920, Note_off_c, 1, 71, 0
2, 80920, Note_off_c, 1, 74, 0
2, 80920, Note_on_c, 1, 76, 127
2, 80920, Note_on_c, 1, 78, 127
2, 80920, Note_off_c, 1, 83, 0
2, 80960, Note_off_c, 1, 45, 0
2, 80960, Note_off_c, 1, 54, 0
2, 80960, Note_off_c, 1, 76, 0
2, 80960, Note_off_c, 1, 78, 0
2, 81000, Note_on_c, 1, 64, 127
2, 81000, Note_on_c, 1, 68, 127
2, 81000, Note_on_c, 1, 71, 127
2, 81000, Note_on_c, 1, 81, 127
2, 81320, Note_off_c, 1, 64, 0
2, 81320, Note_off_c, 1, 68, 0
2, 81320, Note_off_c, 1, 71, 0
2, 81320, Note_off_c, 1, 81, 0
2, 81360, Note_on_c, 1, 43, 127
2, 81360, Note_on_c, 1, 51, 127
2, 81360, Note_on_c, 1, 73, 127
2, 81360, Note_on_c, 1, 82, 127
2, 81440, Note_off_c, 1, 73, 0
2, 81480, Note_on_c, 1, 73, 127
2, 81560, Note_on_c, 1, 72, 127
2, 81560, Note_off_c, 1, 73, 0
2, 81680, Note_off_c, 1, 43, 0
2, 81680, Note_off_c, 1, 51, 0
2, 81680, Note_off_c, 1, 72, 0
2, 81680, Note_off_c, 1, 82, 0
2, 81760, Note_on_c, 1, 45, 127
2, 81760, Note_on_c, 1, 51, 127
2, 81760, Note_on_c, 1, 57, 127
2, 81760, Note_on_c, 1, 61, 127
2, 82040, Note_off_c, 1, 45, 0
2, 82040, Note_off_c, 1, 51, 0
2, 82040, Note_off_c, 1, 57, 0
2, 82040, Note_off_c, 1, 61, 0
2, 82080, Note_on_c, 1, 35, 127
2, 82080, Note_on_c, 1, 47, 127
2, 82080, Note_on_c, 1, 56, 127
2, 82080, Note_on_c, 1, 63, 127
2, 82080, Note_on_c, 1, 68, 127
2, 82400, Note_off_c, 1, 35, 0
2, 82400, Note_off_c, 1, 47, 0
2, 82400, Note_off_c, 1, 56, 0
2, 82400, Note_off_c, 1, 63, 0
2, 82400, Note_off_c, 1, 68, 0
2, 82440, Note_on_c, 1, 35, 127
2, 82440, Note_on_c, 1, 47, 127
2, 82440, Note_on_c, 1, 56, 127
2, 82440, Note_on_c, 1, 63, 127
2, 82440, Note_on_c, 1, 68, 127
2, 82760, Note_off_c, 1, 35, 0
2, 82760, Note_off_c, 1, 47, 0
2, 82760, Note_off_c, 1, 56, 0
2, 82760, Note_off_c, 1, 63, 0
2, 82760, Note_off_c, 1, 68, 0
2, 82800, Note_on_c, 1, 35, 127
2, 82800, Note_on_c, 1, 47, 127
2, 82800, Note_on_c, 1, 56, 127
2, 82800, Note_on_c, 1, 63, 127
2, 82800, Note_on_c, 1, 68, 127
2, 83080, Note_off_c, 1, 35, 0
2, 83080, Note_off_c, 1, 47, 0
2, 83080, Note_off_c, 1, 56, 0
2, 83080, Note_off_c, 1, 63, 0
2, 83080, Note_off_c, 1, 68, 0
2, 83120, Note_on_c, 1, 35, 127
2, 83120, Note_on_c, 1, 47, 127
2, 83120, Note_on_c, 1, 56, 127
2, 83120, Note_on_c, 1, 63, 127
2, 83120, Note_on_c, 1, 68, 127
2, 83440, Note_off_c, 1, 35, 0
2, 83440, Note_off_c, 1, 47, 0
2, 83440, Note_off_c, 1, 56, 0
2, 83440, Note_off_c, 1, 63, 0
2, 83440, Note_off_c, 1, 68, 0
2, 83480, Note_on_c, 1, 35, 127
2, 83480, Note_on_c, 1, 47, 127
2, 83480, Note_on_c, 1, 56, 127
2, 83480, Note_on_c, 1, 63, 127
2, 83480, Note_on_c, 1, 68, 127
2, 83720, Note_off_c, 1, 35, 0
2, 83720, Note_off_c, 1, 47, 0
2, 83760, Note_on_c, 1, 35, 127
2, 83760, Note_on_c, 1, 47, 127
2, 83800, Note_off_c, 1, 35, 0
2, 83800, Note_off_c, 1, 47, 0
2, 83800, Note_off_c, 1, 56, 0
2, 83800, Note_off_c, 1, 63, 0
2, 83800, Note_off_c, 1, 68, 0
2, 83880, Note_on_c, 1, 35, 127
2, 83880, Note_on_c, 1, 47, 127
2, 83880, Note_on_c, 1, 56, 127
2, 83880, Note_on_c, 1, 63, 127
2, 83880, Note_on_c, 1, 68, 127
2, 84000, Note_off_c, 1, 35, 0
2, 84000, Note_off_c, 1, 47, 0
2, 84040, Note_on_c, 1, 35, 127
2, 84040, Note_on_c, 1, 47, 127
2, 84160, Note_off_c, 1, 35, 0
2, 84160, Note_off_c, 1, 47, 0
2, 84160, Note_off_c, 1, 56, 0
2, 84160, Note_off_c, 1, 63, 0
2, 84160, Note_off_c, 1, 68, 0
2, 84200, Note_on_c, 1, 35, 127
2, 84200, Note_on_c, 1, 47, 127
2, 84200, Note_on_c, 1, 56, 127
2, 84200, Note_on_c, 1, 63, 127
2, 84200, Note_on_c, 1, 68, 127
2, 84520, Note_off_c, 1, 35, 0
2, 84520, Note_off_c, 1, 47, 0
2, 84520, Note_off_c, 1, 56, 0
2, 84520, Note_off_c, 1, 63, 0
2, 84520, Note_off_c, 1, 68, 0
2, 84560, Note_on_c, 1, 35, 127
2, 84560, Note_on_c, 1, 47, 127
2, 84560, Note_on_c, 1, 56, 127
2, 84560, Note_on_c, 1, 63, 127
2, 84560, Note_on_c, 1, 68, 127
2, 84880, Note_off_c, 1, 35, 0
2, 84880, Note_off_c, 1, 47, 0
2, 84880, Note_off_c, 1, 56, 0
2, 84880, Note_off_c, 1, 63, 0
2, 84880, Note_off_c, 1, 68, 0
2, 84920, Note_on_c, 1, 61, 127
2, 84920, Note_on_c, 1, 66, 127
2, 84920, Note_on_c, 1, 70, 127
2, 84920, Note_on_c, 1, 73, 127
2, 84920, Note_on_c, 1, 82, 127
2, 84920, Note_on_c, 1, 85, 127
2, 85200, Note_off_c, 1, 61, 0
2, 85200, Note_off_c, 1, 66, 0
2, 85200, Note_off_c, 1, 70, 0
2, 85200, Note_off_c, 1, 73, 0
2, 85200, Note_off_c, 1, 82, 0
2, 85200, Note_off_c, 1, 85, 0
2, 85240, Note_on_c, 1, 53, 127
2, 85240, Note_on_c, 1, 61, 127
2, 85240, Note_on_c, 1, 68, 127
2, 85240, Note_on_c, 1, 71, 127
2, 85240, Note_on_c, 1, 73, 127
2, 85560, Note_off_c, 1, 53, 0
2, 85560, Note_off_c, 1, 61, 0
2, 85560, Note_off_c, 1, 68, 0
2, 85560, Note_off_c, 1, 71, 0
2, 85560, Note_off_c, 1, 73, 0
2, 85600, Note_on_c, 1, 62, 127
2, 85600, Note_on_c, 1, 65, 127
2, 85600, Note_on_c, 1, 74, 127
2, 85600, Note_on_c, 1, 77, 127
2, 85600, Note_on_c, 1, 89, 127
2, 85920, Note_off_c, 1, 62, 0
2, 85920, Note_off_c, 1, 65, 0
2, 85920, Note_off_c, 1, 74, 0
2, 85920, Note_off_c, 1, 77, 0
2, 85920, Note_off_c, 1, 89, 0
2, 86000, Note_on_c, 1, 55, 127
2, 86000, Note_on_c, 1, 67, 127
2, 86000, Note_on_c, 1, 70, 127
2, 86000, Note_on_c, 1, 74, 127
2, 86000, Note_on_c, 1, 82, 127
2, 86280, Note_off_c, 1, 55, 0
2, 86280, Note_off_c, 1, 67, 0
2, 86280, Note_off_c, 1, 70, 0
2, 86280, Note_off_c, 1, 74, 0
2, 86280, Note_off_c, 1, 82, 0
2, 86320, Note_on_c, 1, 53, 127
2, 86320, Note_on_c, 1, 65, 127
2, 86320, Note_on_c, 1, 72, 127
2, 86320, Note_on_c, 1, 77, 127
2, 86320, Note_on_c, 1, 81, 127
2, 86320, Note_on_c, 1, 84, 127
2, 86640, Note_off_c, 1, 53, 0
2, 86640, Note_off_c, 1, 65, 0
2, 86640, Note_off_c, 1, 72, 0
2, 86640, Note_off_c, 1, 77, 0
2, 86640, Note_off_c, 1, 81, 0
2, 86640, Note_off_c, 1, 84, 0
2, 86680, Note_on_c, 1, 60, 127
2, 86680, Note_on_c, 1, 63, 127
2, 86680, Note_on_c, 1, 68, 127
2, 86680, Note_on_c, 1, 75, 127
2, 86680, Note_on_c, 1, 80, 127
2, 86960, Note_on_c, 1, 32, 127
2, 86960, Note_on_c, 1, 44, 127
2, 86960, Note_off_c, 1, 60, 0
2, 86960, Note_off_c, 1, 68, 0
2, 86960, Note_off_c, 1, 75, 0
2, 86960, Note_off_c, 1, 80, 0
2, 87000, Note_off_c, 1, 32, 0
2, 87000, Note_off_c, 1, 44, 0
2, 87000, Note_off_c, 1, 63, 0
2, 87040, Note_on_c, 1, 44, 127
2, 87040, Note_on_c, 1, 80, 127
2, 87040, Note_on_c, 1, 89, 127
2, 87040, Note_on_c, 1, 92, 127
2, 87680, Note_off_c, 1, 44, 0
2, 87680, Note_off_c, 1, 80, 0
2, 87680, Note_off_c, 1, 89, 0
2, 87680, Note_off_c, 1, 92, 0
2, 87720, Note_on_c, 1, 47, 127
2, 87720, Note_on_c, 1, 55, 127
2, 87720, Note_on_c, 1, 63, 127
2, 87720, Note_on_c, 1, 73, 127
2, 87760, Note_on_c, 1, 38, 127
2, 87760, Note_on_c, 1, 42, 127
2, 87760, Note_off_c, 1, 47, 0
2, 87760, Note_on_c, 1, 50, 127
2, 87760, Note_off_c, 1, 55, 0
2, 87760, Note_off_c, 1, 63, 0
2, 87760, Note_off_c, 1, 73, 0
2, 87760, Note_on_c, 1, 78, 127
2, 87760, Note_on_c, 1, 81, 127
2, 87760, Note_on_c, 1, 86, 127
2, 87760, Note_on_c, 1, 90, 127
2, 87800, Note_off_c, 1, 38, 0
2, 87800, Note_off_c, 1, 42, 0
2, 87800, Note_off_c, 1, 50, 0
2, 87800, Note_on_c, 1, 56, 127
2, 87800, Note_on_c, 1, 59, 127
2, 87800, Note_on_c, 1, 62, 127
2, 87800, Note_on_c, 1, 64, 127
2, 87800, Note_on_c, 1, 71, 127
2, 87800, Note_on_c, 1, 74, 127
2, 87800, Note_off_c, 1, 78, 0
2, 87800, Note_off_c, 1, 81, 0
2, 87800, Note_off_c, 1, 86, 0
2, 87800, Note_off_c, 1, 90, 0
2, 87840, Note_on_c, 1, 47, 127
2, 87840, Note_on_c, 1, 55, 127
2, 87840, Note_off_c, 1, 56, 0
2, 87840, Note_off_c, 1, 59, 0
2, 87840, Note_off_c, 1, 62, 0
2, 87840, Note_on_c, 1, 63, 127
2, 87840, Note_off_c, 1, 64, 0
2, 87840, Note_off_c, 1, 71, 0
2, 87840, Note_on_c, 1, 73, 127
2, 87840, Note_off_c, 1, 74, 0
2, 87880, Note_off_c, 1, 55, 0
2, 87880, Note_on_c, 1, 59, 127
2, 87880, Note_off_c, 1, 63, 0
2, 87880, Note_on_c, 1, 64, 127
2, 87880, Note_on_c, 1, 69, 127
2, 87880, Note_off_c, 1, 73, 0
2, 87920, Note_on_c, 1, 55, 127
2, 87920, Note_off_c, 1, 59, 0
2, 87920, Note_on_c, 1, 63, 127
2, 87920, Note_off_c, 1, 64, 0
2, 87920, Note_off_c, 1, 69, 0
2, 87920, Note_on_c, 1, 73, 127
2, 88040, Note_off_c, 1, 55, 0
2, 88040, Note_off_c, 1, 63, 0
2, 88040, Note_off_c, 1, 73, 0
2, 88080, Note_on_c, 1, 38, 127
2, 88080, Note_on_c, 1, 42, 127
2, 88080, Note_off_c, 1, 47, 0
2, 88080, Note_on_c, 1, 50, 127
2, 88080, Note_on_c, 1, 71, 127
2, 88080, Note_on_c, 1, 83, 127
2, 88280, Note_off_c, 1, 38, 0
2, 88280, Note_off_c, 1, 42, 0
2, 88280, Note_off_c, 1, 50, 0
2, 88280, Note_off_c, 1, 71, 0
2, 88280, Note_off_c, 1, 83, 0
2, 88320, Note_on_c, 1, 38, 127
2, 88320, Note_on_c, 1, 42, 127
2, 88320, Note_on_c, 1, 50, 127
2, 88320, Note_on_c, 1, 71, 127
2, 88320, Note_on_c, 1, 83, 127
2, 88440, Note_off_c, 1, 38, 0
2, 88440, Note_off_c, 1, 42, 0
2, 88440, Note_off_c, 1, 50, 0
2, 88440, Note_off_c, 1, 71, 0
2, 88440, Note_off_c, 1, 83, 0
2, 88480, Note_on_c, 1, 63, 127
2, 88480, Note_on_c, 1, 64, 127
2, 88480, Note_on_c, 1, 68, 127
2, 88480, Note_on_c, 1, 71, 127
2, 88480, Note_on_c, 1, 75, 127
2, 88520, Note_on_c, 1, 40, 127
2, 88520, Note_on_c, 1, 43, 127
2, 88520, Note_on_c, 1, 52, 127
2, 88520, Note_off_c, 1, 63, 0
2, 88520, Note_off_c, 1, 64, 0
2, 88520, Note_on_c, 1, 67, 127
2, 88520, Note_off_c, 1, 68, 0
2, 88520, Note_off_c, 1, 71, 0
2, 88520, Note_off_c, 1, 75, 0
2, 88560, Note_off_c, 1, 40, 0
2, 88560, Note_off_c, 1, 43, 0
2, 88560, Note_off_c, 1, 52, 0
2, 88560, Note_on_c, 1, 63, 127
2, 88560, Note_off_c, 1, 67, 0
2, 88560, Note_on_c, 1, 73, 127
2, 88560, Note_on_c, 1, 88, 127
2, 88600, Note_on_c, 1, 58, 127
2, 88600, Note_on_c, 1, 61, 127
2, 88600, Note_on_c, 1, 67, 127
2, 88600, Note_off_c, 1, 73, 0
2, 88600, Note_on_c, 1, 76, 127
2, 88600, Note_off_c, 1, 88, 0
2, 88640, Note_off_c, 1, 58, 0
2, 88640, Note_off_c, 1, 61, 0
2, 88640, Note_on_c, 1, 64, 127
2, 88640, Note_off_c, 1, 67, 0
2, 88640, Note_on_c, 1, 71, 127
2, 88640, Note_off_c, 1, 76, 0
2, 88680, Note_off_c, 1, 63, 0
2, 88680, Note_off_c, 1, 64, 0
2, 88680, Note_on_c, 1, 67, 127
2, 88680, Note_off_c, 1, 71, 0
2, 88680, Note_on_c, 1, 79, 127
2, 88680, Note_on_c, 1, 87, 127
2, 88720, Note_on_c, 1, 63, 127
2, 88720, Note_on_c, 1, 64, 127
2, 88720, Note_off_c, 1, 67, 0
2, 88720, Note_on_c, 1, 71, 127
2, 88720, Note_off_c, 1, 79, 0
2, 88720, Note_off_c, 1, 87, 0
2, 88800, Note_off_c, 1, 63, 0
2, 88800, Note_off_c, 1, 64, 0
2, 88800, Note_off_c, 1, 71, 0
2, 88840, Note_on_c, 1, 50, 127
2, 88840, Note_on_c, 1, 56, 127
2, 88840, Note_on_c, 1, 59, 127
2, 88840, Note_on_c, 1, 62, 127
2, 88840, Note_on_c, 1, 68, 127
2, 88840, Note_on_c, 1, 71, 127
2, 88880, Note_off_c, 1, 56, 0
2, 88880, Note_on_c, 1, 57, 127
2, 88880, Note_off_c, 1, 59, 0
2, 88880, Note_off_c, 1, 62, 0
2, 88880, Note_on_c, 1, 65, 127
2, 88880, Note_off_c, 1, 68, 0
2, 88880, Note_off_c, 1, 71, 0
2, 88880, Note_on_c, 1, 74, 127
2, 88880, Note_on_c, 1, 77, 127
2, 88880, Note_on_c, 1, 81, 127
2, 88880, Note_on_c, 1, 86, 127
2, 88920, Note_on_c, 1, 44, 127
2, 88920, Note_off_c, 1, 50, 0
2, 88920, Note_on_c, 1, 51, 127
2, 88920, Note_on_c, 1, 56, 127
2, 88920, Note_off_c, 1, 57, 0
2, 88920, Note_on_c, 1, 60, 127
2, 88920, Note_off_c, 1, 65, 0
2, 88920, Note_on_c, 1, 68, 127
2, 88920, Note_on_c, 1, 72, 127
2, 88920, Note_off_c, 1, 74, 0
2, 88920, Note_on_c, 1, 75, 127
2, 88920, Note_off_c, 1, 77, 0
2, 88920, Note_on_c, 1, 78, 127
2, 88920, Note_on_c, 1, 80, 127
2, 88920, Note_off_c, 1, 81, 0
2, 88920, Note_off_c, 1, 86, 0
2, 88960, Note_off_c, 1, 44, 0
2, 88960, Note_on_c, 1, 50, 127
2, 88960, Note_off_c, 1, 51, 0
2, 88960, Note_on_c, 1, 59, 127
2, 88960, Note_off_c, 1, 60, 0
2, 88960, Note_on_c, 1, 62, 127
2, 88960, Note_on_c, 1, 71, 127
2, 88960, Note_off_c, 1, 72, 0
2, 88960, Note_off_c, 1, 75, 0
2, 88960, Note_off_c, 1, 78, 0
2, 88960, Note_off_c, 1, 80, 0
2, 89120, Note_off_c, 1, 50, 0
2, 89120, Note_off_c, 1, 56, 0
2, 89120, Note_off_c, 1, 59, 0
2, 89120, Note_off_c, 1, 62, 0
2, 89120, Note_off_c, 1, 68, 0
2, 89120, Note_off_c, 1, 71, 0
2, 89200, Note_on_c, 1, 57, 127
2, 89200, Note_on_c, 1, 63, 127
2, 89200, Note_on_c, 1, 66, 127
2, 89200, Note_on_c, 1, 85, 127
2, 89200, Note_on_c, 1, 87, 127
2, 89240, Note_off_c, 1, 57, 0
2, 89240, Note_off_c, 1, 66, 0
2, 89240, Note_on_c, 1, 67, 127
2, 89240, Note_on_c, 1, 72, 127
2, 89240, Note_on_c, 1, 75, 127
2, 89240, Note_on_c, 1, 84, 127
2, 89240, Note_off_c, 1, 85, 0
2, 89240, Note_off_c, 1, 87, 0
2, 89280, Note_on_c, 1, 46, 127
2, 89280, Note_on_c, 1, 58, 127
2, 89280, Note_off_c, 1, 63, 0
2, 89280, Note_off_c, 1, 67, 0
2, 89280, Note_off_c, 1, 72, 0
2, 89280, Note_on_c, 1, 80, 127
2, 89280, Note_on_c, 1, 83, 127
2, 89280, Note_off_c, 1, 84, 0
2, 89280, Note_on_c, 1, 87, 127
2, 89320, Note_off_c, 1, 46, 0
2, 89320, Note_on_c, 1, 53, 127
2, 89320, Note_off_c, 1, 58, 0
2, 89320, Note_off_c, 1, 75, 0
2, 89320, Note_off_c, 1, 80, 0
2, 89320, Note_off_c, 1, 83, 0
2, 89320, Note_off_c, 1, 87, 0
2, 89320, Note_on_c, 1, 89, 127
2, 89320, Note_on_c, 1, 97, 127
2, 89360, Note_on_c, 1, 38, 127
2, 89360, Note_on_c, 1, 51, 127
2, 89360, Note_off_c, 1, 53, 0
2, 89360, Note_on_c, 1, 57, 127
2, 89360, Note_on_c, 1, 60, 127
2, 89360, Note_on_c, 1, 63, 127
2, 89360, Note_on_c, 1, 66, 127
2, 89360, Note_off_c, 1, 89, 0
2, 89360, Note_off_c, 1, 97, 0
2, 89400, Note_off_c, 1, 38, 0
2, 89400, Note_off_c, 1, 51, 0
2, 89400, Note_off_c, 1, 57, 0
2, 89400, Note_off_c, 1, 63, 0
2, 89400, Note_off_c, 1, 66, 0
2, 89400, Note_on_c, 1, 69, 127
2, 89400, Note_on_c, 1, 72, 127
2, 89400, Note_on_c, 1, 78, 127
2, 89400, Note_on_c, 1, 87, 127
2, 89440, Note_on_c, 1, 57, 127
2, 89440, Note_off_c, 1, 60, 0
2, 89440, Note_on_c, 1, 61, 127
2, 89440, Note_on_c, 1, 67, 127
2, 89440, Note_off_c, 1, 72, 0
2, 89440, Note_on_c, 1, 73, 127
2, 89440, Note_off_c, 1, 78, 0
2, 89440, Note_on_c, 1, 79, 127
2, 89440, Note_on_c, 1, 82, 127
2, 89440, Note_off_c, 1, 87, 0
2, 89480, Note_off_c, 1, 57, 0
2, 89480, Note_off_c, 1, 61, 0
2, 89480, Note_off_c, 1, 67, 0
2, 89480, Note_off_c, 1, 69, 0
2, 89480, Note_off_c, 1, 73, 0
2, 89480, Note_off_c, 1, 79, 0
2, 89480, Note_off_c, 1, 82, 0
2, 89520, Note_on_c, 1, 65, 127
2, 89520, Note_on_c, 1, 68, 127
2, 89520, Note_on_c, 1, 89, 127
2, 89520, Note_on_c, 1, 97, 127
2, 89560, Note_on_c, 1, 28, 127
2, 89560, Note_on_c, 1, 40, 127
2, 89560, Note_on_c, 1, 56, 127
2, 89560, Note_on_c, 1, 59, 127
2, 89560, Note_on_c, 1, 62, 127
2, 89560, Note_on_c, 1, 64, 127
2, 89560, Note_off_c, 1, 65, 0
2, 89560, Note_off_c, 1, 89, 0
2, 89560, Note_off_c, 1, 97, 0
2, 89600, Note_off_c, 1, 28, 0
2, 89600, Note_on_c, 1, 36, 127
2, 89600, Note_on_c, 1, 39, 127
2, 89600, Note_off_c, 1, 40, 0
2, 89600, Note_on_c, 1, 42, 127
2, 89600, Note_on_c, 1, 54, 127
2, 89600, Note_off_c, 1, 56, 0
2, 89600, Note_off_c, 1, 59, 0
2, 89600, Note_off_c, 1, 62, 0
2, 89600, Note_on_c, 1, 63, 127
2, 89600, Note_off_c, 1, 64, 0
2, 89600, Note_on_c, 1, 65, 127
2, 89600, Note_off_c, 1, 68, 0
2, 89640, Note_on_c, 1, 34, 127
2, 89640, Note_off_c, 1, 36, 0
2, 89640, Note_off_c, 1, 39, 0
2, 89640, Note_off_c, 1, 42, 0
2, 89640, Note_on_c, 1, 46, 127
2, 89640, Note_off_c, 1, 54, 0
2, 89640, Note_off_c, 1, 63, 0
2, 89640, Note_off_c, 1, 65, 0
2, 89640, Note_on_c, 1, 88, 127
2, 89640, Note_on_c, 1, 92, 127
2, 89640, Note_on_c, 1, 100, 127
2, 89680, Note_off_c, 1, 34, 0
2, 89680, Note_off_c, 1, 46, 0
2, 89680, Note_on_c, 1, 51, 127
2, 89680, Note_on_c, 1, 60, 127
2, 89680, Note_on_c, 1, 66, 127
2, 89680, Note_on_c, 1, 72, 127
2, 89680, Note_on_c, 1, 78, 127
2, 89680, Note_off_c, 1, 88, 0
2, 89680, Note_off_c, 1, 92, 0
2, 89680, Note_off_c, 1, 100, 0
2, 89720, Note_off_c, 1, 51, 0
2, 89720, Note_off_c, 1, 60, 0
2, 89720, Note_on_c, 1, 65, 127
2, 89720, Note_off_c, 1, 66, 0
2, 89720, Note_on_c, 1, 68, 127
2, 89720, Note_off_c, 1, 72, 0
2, 89720, Note_off_c, 1, 78, 0
2, 89720, Note_on_c, 1, 89, 127
2, 89720, Note_on_c, 1, 97, 127
2, 89760, Note_off_c, 1, 65, 0
2, 89760, Note_on_c, 1, 66, 127
2, 89760, Note_off_c, 1, 68, 0
2, 89760, Note_on_c, 1, 70, 127
2, 89760, Note_off_c, 1, 89, 0
2, 89800, Note_on_c, 1, 34, 127
2, 89800, Note_on_c, 1, 39, 127
2, 89800, Note_on_c, 1, 43, 127
2, 89800, Note_on_c, 1, 49, 127
2, 89800, Note_on_c, 1, 55, 127
2, 89800, Note_on_c, 1, 61, 127
2, 89800, Note_on_c, 1, 63, 127
2, 89800, Note_off_c, 1, 66, 0
2, 89800, Note_off_c, 1, 70, 0
2, 89800, Note_off_c, 1, 97, 0
2, 89840, Note_off_c, 1, 34, 0
2, 89840, Note_off_c, 1, 39, 0
2, 89840, Note_off_c, 1, 43, 0
2, 89840, Note_off_c, 1, 49, 0
2, 89840, Note_off_c, 1, 55, 0
2, 89840, Note_off_c, 1, 61, 0
2, 89840, Note_off_c, 1, 63, 0
2, 89840, Note_on_c, 1, 70, 127
2, 89880, Note_on_c, 1, 46, 127
2, 89880, Note_on_c, 1, 49, 127
2, 89880, Note_off_c, 1, 70, 0
2, 89880, Note_on_c, 1, 77, 127
2, 89880, Note_on_c, 1, 85, 127
2, 89880, Note_on_c, 1, 89, 127
2, 90160, Note_off_c, 1, 46, 0
2, 90160, Note_off_c, 1, 49, 0
2, 90160, Note_on_c, 1, 52, 127
2, 90160, Note_off_c, 1, 77, 0
2, 90160, Note_off_c, 1, 85, 0
2, 90160, Note_off_c, 1, 89, 0
2, 90200, Note_off_c, 1, 52, 0
2, 90240, Note_on_c, 1, 40, 127
2, 90240, Note_on_c, 1, 56, 127
2, 90240, Note_on_c, 1, 71, 127
2, 90240, Note_on_c, 1, 78, 127
2, 90280, Note_off_c, 1, 40, 0
2, 90280, Note_off_c, 1, 56, 0
2, 90280, Note_on_c, 1, 60, 127
2, 90280, Note_on_c, 1, 63, 127
2, 90280, Note_on_c, 1, 66, 127
2, 90280, Note_off_c, 1, 71, 0
2, 90280, Note_on_c, 1, 74, 127
2, 90320, Note_on_c, 1, 40, 127
2, 90320, Note_on_c, 1, 56, 127
2, 90320, Note_off_c, 1, 60, 0
2, 90320, Note_off_c, 1, 63, 0
2, 90320, Note_off_c, 1, 66, 0
2, 90320, Note_on_c, 1, 71, 127
2, 90320, Note_off_c, 1, 74, 0
2, 90360, Note_off_c, 1, 40, 0
2, 90360, Note_off_c, 1, 56, 0
2, 90360, Note_off_c, 1, 71, 0
2, 90360, Note_off_c, 1, 78, 0
2, 90400, Note_on_c, 1, 40, 127
2, 90400, Note_on_c, 1, 56, 127
2, 90400, Note_on_c, 1, 71, 127
2, 90400, Note_on_c, 1, 78, 127
2, 90560, Note_off_c, 1, 56, 0
2, 90560, Note_off_c, 1, 71, 0
2, 90560, Note_off_c, 1, 78, 0
2, 90600, Note_off_c, 1, 40, 0
2, 90600, Note_on_c, 1, 58, 127
2, 90600, Note_on_c, 1, 66, 127
2, 90600, Note_on_c, 1, 71, 127
2, 90600, Note_on_c, 1, 79, 127
2, 90920, Note_off_c, 1, 58, 0
2, 90920, Note_off_c, 1, 66, 0
2, 90920, Note_off_c, 1, 71, 0
2, 90920, Note_off_c, 1, 79, 0
2, 90960, Note_on_c, 1, 70, 127
2, 90960, Note_on_c, 1, 76, 127
2, 90960, Note_on_c, 1, 82, 127
2, 91280, Note_off_c, 1, 70, 0
2, 91280, Note_off_c, 1, 76, 0
2, 91280, Note_off_c, 1, 82, 0
2, 91320, Note_on_c, 1, 47, 127
2, 91320, Note_on_c, 1, 68, 127
2, 91320, Note_on_c, 1, 76, 127
2, 91320, Note_on_c, 1, 80, 127
2, 91960, Note_off_c, 1, 47, 0
2, 91960, Note_off_c, 1, 68, 0
2, 91960, Note_off_c, 1, 76, 0
2, 91960, Note_off_c, 1, 80, 0
2, 92000, Note_on_c, 1, 68, 127
2, 92000, Note_on_c, 1, 76, 127
2, 92000, Note_on_c, 1, 80, 127
2, 92120, Note_off_c, 1, 68, 0
2, 92160, Note_on_c, 1, 68, 127
2, 92320, Note_off_c, 1, 68, 0
2, 92320, Note_off_c, 1, 76, 0
2, 92360, Note_on_c, 1, 69, 127
2, 92360, Note_on_c, 1, 75, 127
2, 92360, Note_on_c, 1, 78, 127
2, 92360, Note_off_c, 1, 80, 0
2, 92360, Note_on_c, 1, 87, 127
2, 92360, Note_on_c, 1, 90, 127
2, 92480, Note_off_c, 1, 69, 0
2, 92480, Note_off_c, 1, 75, 0
2, 92480, Note_off_c, 1, 78, 0
2, 92480, Note_off_c, 1, 87, 0
2, 92480, Note_off_c, 1, 90, 0
2, 92520, Note_on_c, 1, 69, 127
2, 92520, Note_on_c, 1, 75, 127
2, 92520, Note_on_c, 1, 78, 127
2, 92560, Note_on_c, 1, 64, 127
2, 92560, Note_off_c, 1, 69, 0
2, 92560, Note_on_c, 1, 70, 127
2, 92560, Note_on_c, 1, 73, 127
2, 92560, Note_off_c, 1, 75, 0
2, 92560, Note_off_c, 1, 78, 0
2, 92560, Note_on_c, 1, 80, 127
2, 92680, Note_off_c, 1, 64, 0
2, 92680, Note_off_c, 1, 70, 0
2, 92680, Note_off_c, 1, 73, 0
2, 92680, Note_off_c, 1, 80, 0
2, 92720, Note_on_c, 1, 61, 127
2, 92720, Note_on_c, 1, 69, 127
2, 92720, Note_on_c, 1, 73, 127
2, 92720, Note_on_c, 1, 81, 127
2, 92880, Note_off_c, 1, 69, 0
2, 92880, Note_off_c, 1, 81, 0
2, 92920, Note_on_c, 1, 68, 127
2, 92920, Note_off_c, 1, 73, 0
2, 92920, Note_on_c, 1, 77, 127
2, 92920, Note_on_c, 1, 80, 127
2, 93400, Note_off_c, 1, 61, 0
2, 93400, Note_off_c, 1, 68, 0
2, 93400, Note_off_c, 1, 77, 0
2, 93400, Note_off_c, 1, 80, 0
2, 93440, Note_on_c, 1, 63, 127
2, 93440, Note_on_c, 1, 65, 127
2, 93440, Note_on_c, 1, 68, 127
2, 93440, Note_on_c, 1, 72, 127
2, 93440, Note_on_c, 1, 77, 127
2, 93760, Note_on_c, 1, 61, 127
2, 93760, Note_off_c, 1, 63, 0
2, 93760, Note_off_c, 1, 65, 0
2, 93760, Note_off_c, 1, 68, 0
2, 93760, Note_on_c, 1, 70, 127
2, 93760, Note_off_c, 1, 72, 0
2, 93760, Note_on_c, 1, 73, 127
2, 93760, Note_off_c, 1, 77, 0
2, 93800, Note_on_c, 1, 33, 127
2, 93800, Note_on_c, 1, 53, 127
2, 93800, Note_on_c, 1, 56, 127
2, 93800, Note_on_c, 1, 59, 127
2, 93800, Note_off_c, 1, 61, 0
2, 93800, Note_off_c, 1, 70, 0
2, 93800, Note_off_c, 1, 73, 0
2, 94120, Note_off_c, 1, 33, 0
2, 94120, Note_off_c, 1, 53, 0
2, 94120, Note_off_c, 1, 56, 0
2, 94120, Note_off_c, 1, 59, 0
2, 94160, Note_on_c, 1, 55, 127
2, 94160, Note_on_c, 1, 59, 127
2, 94160, Note_on_c, 1, 62, 127
2, 94160, Note_on_c, 1, 65, 127
2, 94160, Note_on_c, 1, 71, 127
2, 94160, Note_on_c, 1, 74, 127
2, 94160, Note_on_c, 1, 79, 127
2, 94200, Note_on_c, 1, 77, 127
2, 94200, Note_off_c, 1, 79, 0
2, 94240, Note_off_c, 1, 77, 0
2, 94240, Note_on_c, 1, 79, 127
2, 94280, Note_off_c, 1, 55, 0
2, 94280, Note_off_c, 1, 59, 0
2, 94280, Note_off_c, 1, 62, 0
2, 94280, Note_on_c, 1, 63, 127
2, 94280, Note_off_c, 1, 65, 0
2, 94280, Note_on_c, 1, 69, 127
2, 94280, Note_off_c, 1, 71, 0
2, 94280, Note_on_c, 1, 73, 127
2, 94280, Note_off_c, 1, 74, 0
2, 94280, Note_on_c, 1, 76, 127
2, 94280, Note_off_c, 1, 79, 0
2, 94280, Note_on_c, 1, 80, 127
2, 94320, Note_on_c, 1, 55, 127
2, 94320, Note_on_c, 1, 59, 127
2, 94320, Note_on_c, 1, 62, 127
2, 94320, Note_off_c, 1, 63, 0
2, 94320, Note_on_c, 1, 65, 127
2, 94320, Note_off_c, 1, 69, 0
2, 94320, Note_on_c, 1, 71, 127
2, 94320, Note_off_c, 1, 73, 0
2, 94320, Note_on_c, 1, 74, 127
2, 94320, Note_off_c, 1, 76, 0
2, 94320, Note_on_c, 1, 79, 127
2, 94320, Note_off_c, 1, 80, 0
2, 94440, Note_on_c, 1, 77, 127
2, 94440, Note_off_c, 1, 79, 0
2, 94480, Note_off_c, 1, 55, 0
2, 94480, Note_off_c, 1, 59, 0
2, 94480, Note_off_c, 1, 62, 0
2, 94480, Note_off_c, 1, 65, 0
2, 94480, Note_on_c, 1, 68, 127
2, 94480, Note_off_c, 1, 71, 0
2, 94480, Note_on_c, 1, 72, 127
2, 94480, Note_off_c, 1, 74, 0
2, 94480, Note_on_c, 1, 75, 127
2, 94480, Note_off_c, 1, 77, 0
2, 94520, Note_off_c, 1, 68, 0
2, 94520, Note_off_c, 1, 72, 0
2, 94520, Note_off_c, 1, 75, 0
2, 94560, Note_on_c, 1, 36, 127
2, 94560, Note_on_c, 1, 39, 127
2, 94560, Note_on_c, 1, 51, 127
2, 94560, Note_on_c, 1, 54, 127
2, 94560, Note_on_c, 1, 57, 127
2, 94560, Note_on_c, 1, 60, 127
2, 94600, Note_off_c, 1, 36, 0
2, 94600, Note_off_c, 1, 39, 0
2, 94600, Note_on_c, 1, 43, 127
2, 94600, Note_on_c, 1, 49, 127
2, 94600, Note_off_c, 1, 51, 0
2, 94600, Note_off_c, 1, 54, 0
2, 94600, Note_off_c, 1, 57, 0
2, 94600, Note_on_c, 1, 58, 127
2, 94600, Note_off_c, 1, 60, 0
2, 94600, Note_on_c, 1, 64, 127
2, 94600, Note_on_c, 1, 70, 127
2, 94640, Note_off_c, 1, 43, 0
2, 94640, Note_on_c, 1, 44, 127
2, 94640, Note_on_c, 1, 47, 127
2, 94640, Note_off_c, 1, 49, 0
2, 94640, Note_on_c, 1, 56, 127
2, 94640, Note_off_c, 1, 58, 0
2, 94640, Note_off_c, 1, 64, 0
2, 94640, Note_off_c, 1, 70, 0
2, 94640, Note_on_c, 1, 91, 127
2, 94680, Note_off_c, 1, 44, 0
2, 94680, Note_off_c, 1, 47, 0
2, 94680, Note_on_c, 1, 53, 127
2, 94680, Note_off_c, 1, 56, 0
2, 94680, Note_on_c, 1, 60, 127
2, 94680, Note_on_c, 1, 68, 127
2, 94680, Note_on_c, 1, 82, 127
2, 94680, Note_off_c, 1, 91, 0
2, 94720, Note_off_c, 1, 53, 0
2, 94720, Note_off_c, 1, 60, 0
2, 94720, Note_on_c, 1, 62, 127
2, 94720, Note_on_c, 1, 71, 127
2, 94720, Note_on_c, 1, 76, 127
2, 94720, Note_off_c, 1, 82, 0
2, 94720, Note_on_c, 1, 88, 127
2, 94760, Note_on_c, 1, 52, 127
2, 94760, Note_on_c, 1, 57, 127
2, 94760, Note_on_c, 1, 60, 127
2, 94760, Note_off_c, 1, 62, 0
2, 94760, Note_on_c, 1, 64, 127
2, 94760, Note_off_c, 1, 68, 0
2, 94760, Note_off_c, 1, 71, 0
2, 94760, Note_off_c, 1, 76, 0
2, 94760, Note_off_c, 1, 88, 0
2, 94760, Note_on_c, 1, 93, 127
2, 94800, Note_on_c, 1, 47, 127
2, 94800, Note_off_c, 1, 52, 0
2, 94800, Note_off_c, 1, 57, 0
2, 94800, Note_off_c, 1, 60, 0
2, 94800, Note_off_c, 1, 64, 0
2, 94800, Note_on_c, 1, 81, 127
2, 94800, Note_on_c, 1, 84, 127
2, 94800, Note_off_c, 1, 93, 0
2, 94840, Note_off_c, 1, 47, 0
2, 94840, Note_off_c, 1, 81, 0
2, 94840, Note_off_c, 1, 84, 0
2, 94880, Note_on_c, 1, 58, 127
2, 94880, Note_on_c, 1, 64, 127
2, 94880, Note_on_c, 1, 76, 127
2, 94880, Note_on_c, 1, 88, 127
2, 95200, Note_off_c, 1, 64, 0
2, 95240, Note_on_c, 1, 40, 127
2, 95240, Note_on_c, 1, 52, 127
2, 95240, Note_off_c, 1, 58, 0
2, 95240, Note_on_c, 1, 69, 127
2, 95240, Note_on_c, 1, 72, 127
2, 95240, Note_off_c, 1, 88, 0
2, 95560, Note_off_c, 1, 40, 0
2, 95560, Note_off_c, 1, 52, 0
2, 95560, Note_off_c, 1, 69, 0
2, 95560, Note_off_c, 1, 72, 0
2, 95560, Note_off_c, 1, 76, 0
2, 95600, Note_on_c, 1, 64, 127
2, 95600, Note_on_c, 1, 67, 127
2, 95600, Note_on_c, 1, 81, 127
2, 95600, Note_on_c, 1, 84, 127
2, 95600, Note_on_c, 1, 90, 127
2, 95680, Note_on_c, 1, 63, 127
2, 95680, Note_off_c, 1, 64, 0
2, 95680, Note_on_c, 1, 66, 127
2, 95680, Note_off_c, 1, 67, 0
2, 95720, Note_on_c, 1, 55, 127
2, 95720, Note_off_c, 1, 63, 0
2, 95720, Note_off_c, 1, 66, 0
2, 95720, Note_off_c, 1, 81, 0
2, 95720, Note_off_c, 1, 84, 0
2, 95720, Note_off_c, 1, 90, 0
2, 95720, Note_on_c, 1, 93, 127
2, 95720, Note_on_c, 1, 96, 127
2, 95760, Note_off_c, 1, 55, 0
2, 95760, Note_on_c, 1, 63, 127
2, 95760, Note_on_c, 1, 66, 127
2, 95760, Note_on_c, 1, 81, 127
2, 95760, Note_on_c, 1, 84, 127
2, 95760, Note_on_c, 1, 90, 127
2, 95760, Note_off_c, 1, 93, 0
2, 95760, Note_off_c, 1, 96, 0
2, 95800, Note_on_c, 1, 83, 127
2, 95800, Note_off_c, 1, 84, 0
2, 95800, Note_off_c, 1, 90, 0
2, 95840, Note_off_c, 1, 83, 0
2, 95840, Note_on_c, 1, 84, 127
2, 95840, Note_on_c, 1, 90, 127
2, 95880, Note_on_c, 1, 83, 127
2, 95880, Note_off_c, 1, 84, 0
2, 95880, Note_off_c, 1, 90, 0
2, 95920, Note_off_c, 1, 63, 0
2, 95920, Note_off_c, 1, 66, 0
2, 95920, Note_off_c, 1, 81, 0
2, 95920, Note_off_c, 1, 83, 0
2, 95960, Note_on_c, 1, 63, 127
2, 95960, Note_on_c, 1, 66, 127
2, 95960, Note_on_c, 1, 81, 127
2, 95960, Note_on_c, 1, 83, 127
2, 96240, Note_off_c, 1, 63, 0
2, 96240, Note_off_c, 1, 66, 0
2, 96240, Note_off_c, 1, 81, 0
2, 96280, Note_on_c, 1, 59, 127
2, 96280, Note_on_c, 1, 63, 127
2, 96280, Note_on_c, 1, 81, 127
2, 96360, Note_off_c, 1, 81, 0
2, 96400, Note_on_c, 1, 79, 127
2, 96440, Note_off_c, 1, 79, 0
2, 96480, Note_off_c, 1, 59, 0
2, 96480, Note_off_c, 1, 63, 0
2, 96480, Note_off_c, 1, 83, 0
2, 96520, Note_on_c, 1, 59, 127
2, 96520, Note_on_c, 1, 63, 127
2, 96520, Note_on_c, 1, 81, 127
2, 96520, Note_on_c, 1, 83, 127
2, 96560, Note_off_c, 1, 81, 0
2, 96600, Note_off_c, 1, 63, 0
2, 96600, Note_on_c, 1, 80, 127
2, 96600, Note_on_c, 1, 92, 127
2, 96640, Note_off_c, 1, 59, 0
2, 96640, Note_off_c, 1, 80, 0
2, 96640, Note_off_c, 1, 92, 0
2, 96680, Note_on_c, 1, 64, 127
2, 96680, Note_on_c, 1, 67, 127
2, 96680, Note_on_c, 1, 79, 127
2, 96800, Note_off_c, 1, 83, 0
2, 96840, Note_on_c, 1, 57, 127
2, 96840, Note_off_c, 1, 64, 0
2, 96840, Note_on_c, 1, 66, 127
2, 96840, Note_off_c, 1, 67, 0
2, 96840, Note_on_c, 1, 69, 127
2, 96840, Note_on_c, 1, 75, 127
2, 96840, Note_on_c, 1, 78, 127
2, 96840, Note_off_c, 1, 79, 0
2, 97000, Note_off_c, 1, 57, 0
2, 97000, Note_off_c, 1, 66, 0
2, 97000, Note_off_c, 1, 69, 0
2, 97000, Note_off_c, 1, 75, 0
2, 97000, Note_off_c, 1, 78, 0
2, 97040, Note_on_c, 1, 64, 127
2, 97040, Note_on_c, 1, 67, 127
2, 97040, Note_on_c, 1, 81, 127
2, 97040, Note_on_c, 1, 84, 127
2, 97040, Note_on_c, 1, 90, 127
2, 97160, Note_off_c, 1, 64, 0
2, 97160, Note_off_c, 1, 67, 0
2, 97200, Note_on_c, 1, 63, 127
2, 97200, Note_on_c, 1, 66, 127
2, 97360, Note_off_c, 1, 63, 0
2, 97360, Note_off_c, 1, 66, 0
2, 97360, Note_off_c, 1, 81, 0
2, 97360, Note_off_c, 1, 84, 0
2, 97360, Note_off_c, 1, 90, 0
2, 97400, Note_on_c, 1, 65, 127
2, 97400, Note_on_c, 1, 68, 127
2, 97400, Note_on_c, 1, 74, 127
2, 97400, Note_on_c, 1, 83, 127
2, 97560, Note_on_c, 1, 54, 127
2, 97560, Note_off_c, 1, 65, 0
2, 97560, Note_off_c, 1, 68, 0
2, 97560, Note_off_c, 1, 74, 0
2, 97560, Note_on_c, 1, 78, 127
2, 97560, Note_off_c, 1, 83, 0
2, 97560, Note_on_c, 1, 90, 127
2, 97560, Note_on_c, 1, 93, 127
2, 97600, Note_off_c, 1, 54, 0
2, 97600, Note_on_c, 1, 66, 127
2, 97600, Note_on_c, 1, 70, 127
2, 97600, Note_on_c, 1, 76, 127
2, 97600, Note_off_c, 1, 78, 0
2, 97600, Note_on_c, 1, 85, 127
2, 97600, Note_off_c, 1, 90, 0
2, 97600, Note_off_c, 1, 93, 0
2, 97640, Note_on_c, 1, 69, 127
2, 97640, Note_off_c, 1, 70, 0
2, 97640, Note_off_c, 1, 76, 0
2, 97640, Note_off_c, 1, 85, 0
2, 97640, Note_on_c, 1, 98, 127
2, 97680, Note_off_c, 1, 66, 0
2, 97680, Note_off_c, 1, 69, 0
2, 97680, Note_on_c, 1, 71, 127
2, 97680, Note_on_c, 1, 78, 127
2, 97680, Note_on_c, 1, 83, 127
2, 97680, Note_off_c, 1, 98, 0
2, 97720, Note_on_c, 1, 68, 127
2, 97720, Note_on_c, 1, 76, 127
2, 97720, Note_off_c, 1, 78, 0
2, 98040, Note_off_c, 1, 68, 0
2, 98040, Note_off_c, 1, 71, 0
2, 98040, Note_off_c, 1, 76, 0
2, 98040, Note_off_c, 1, 83, 0
2, 98080, Note_on_c, 1, 62, 127
2, 98080, Note_on_c, 1, 68, 127
2, 98080, Note_on_c, 1, 77, 127
2, 98080, Note_on_c, 1, 83, 127
2, 98400, Note_off_c, 1, 62, 0
2, 98400, Note_off_c, 1, 68, 0
2, 98400, Note_off_c, 1, 77, 0
2, 98400, Note_off_c, 1, 83, 0
2, 98440, Note_on_c, 1, 59, 127
2, 98440, Note_on_c, 1, 64, 127
2, 98440, Note_on_c, 1, 66, 127
2, 98440, Note_on_c, 1, 71, 127
2, 98440, Note_on_c, 1, 73, 127
2, 98560, Note_off_c, 1, 59, 0
2, 98560, Note_off_c, 1, 64, 0
2, 98560, Note_off_c, 1, 66, 0
2, 98560, Note_off_c, 1, 71, 0
2, 98560, Note_off_c, 1, 73, 0
2, 98600, Note_on_c, 1, 59, 127
2, 98600, Note_on_c, 1, 64, 127
2, 98600, Note_on_c, 1, 66, 127
2, 98600, Note_on_c, 1, 71, 127
2, 98600, Note_on_c, 1, 73, 127
2, 98760, Note_off_c, 1, 59, 0
2, 98760, Note_off_c, 1, 64, 0
2, 98760, Note_off_c, 1, 66, 0
2, 98760, Note_off_c, 1, 71, 0
2, 98760, Note_off_c, 1, 73, 0
2, 98800, Note_on_c, 1, 59, 127
2, 98800, Note_on_c, 1, 61, 127
2, 98800, Note_on_c, 1, 66, 127
2, 98800, Note_on_c, 1, 70, 127
2, 98800, Note_on_c, 1, 73, 127
2, 99040, Note_off_c, 1, 70, 0
2, 99120, Note_off_c, 1, 59, 0
2, 99120, Note_off_c, 1, 61, 0
2, 99120, Note_off_c, 1, 66, 0
2, 99120, Note_off_c, 1, 73, 0
2, 99160, Note_on_c, 1, 66, 127
2, 99160, Note_on_c, 1, 71, 127
2, 99160, Note_on_c, 1, 75, 127
2, 99160, Note_on_c, 1, 78, 127
2, 99480, Note_off_c, 1, 66, 0
2, 99480, Note_off_c, 1, 71, 0
2, 99480, Note_off_c, 1, 75, 0
2, 99480, Note_off_c, 1, 78, 0
2, 99520, Note_on_c, 1, 58, 127
2, 99520, Note_on_c, 1, 66, 127
2, 99520, Note_on_c, 1, 75, 127
2, 99520, Note_on_c, 1, 80, 127
2, 99800, Note_off_c, 1, 66, 0
2, 99800, Note_off_c, 1, 75, 0
2, 99840, Note_on_c, 1, 63, 127
2, 99840, Note_on_c, 1, 70, 127
2, 100000, Note_off_c, 1, 80, 0
2, 100040, Note_on_c, 1, 78, 127
2, 100160, Note_off_c, 1, 58, 0
2, 100160, Note_off_c, 1, 63, 0
2, 100160, Note_off_c, 1, 70, 0
2, 100160, Note_off_c, 1, 78, 0
2, 100200, Note_on_c, 1, 46, 127
2, 100200, Note_on_c, 1, 61, 127
2, 100200, Note_on_c, 1, 65, 127
2, 100200, Note_on_c, 1, 77, 127
2, 100520, Note_off_c, 1, 61, 0
2, 100520, Note_off_c, 1, 65, 0
2, 100560, Note_off_c, 1, 46, 0
2, 100560, Note_off_c, 1, 77, 0
2, 100600, Note_on_c, 1, 46, 127
2, 100600, Note_on_c, 1, 66, 127
2, 100600, Note_on_c, 1, 75, 127
2, 100600, Note_on_c, 1, 77, 127
2, 100880, Note_on_c, 1, 44, 127
2, 100880, Note_off_c, 1, 46, 0
2, 100880, Note_on_c, 1, 51, 127
2, 100880, Note_off_c, 1, 66, 0
2, 100880, Note_off_c, 1, 75, 0
2, 100880, Note_off_c, 1, 77, 0
2, 100920, Note_off_c, 1, 44, 0
2, 100920, Note_on_c, 1, 46, 127
2, 100920, Note_off_c, 1, 51, 0
2, 100920, Note_on_c, 1, 66, 127
2, 100920, Note_on_c, 1, 75, 127
2, 100920, Note_on_c, 1, 77, 127
2, 101240, Note_off_c, 1, 46, 0
2, 101240, Note_off_c, 1, 66, 0
2, 101240, Note_on_c, 1, 70, 127
2, 101240, Note_off_c, 1, 75, 0
2, 101240, Note_off_c, 1, 77, 0
2, 101280, Note_on_c, 1, 46, 127
2, 101280, Note_on_c, 1, 66, 127
2, 101280, Note_off_c, 1, 70, 0
2, 101280, Note_on_c, 1, 75, 127
2, 101280, Note_on_c, 1, 77, 127
2, 101480, Note_on_c, 1, 65, 127
2, 101480, Note_off_c, 1, 66, 0
2, 101480, Note_on_c, 1, 73, 127
2, 101480, Note_off_c, 1, 75, 0
2, 101520, Note_off_c, 1, 65, 0
2, 101520, Note_on_c, 1, 66, 127
2, 101520, Note_off_c, 1, 73, 0
2, 101520, Note_on_c, 1, 75, 127
2, 101600, Note_off_c, 1, 46, 0
2, 101600, Note_off_c, 1, 66, 0
2, 101600, Note_on_c, 1, 70, 127
2, 101600, Note_off_c, 1, 75, 0
2, 101600, Note_off_c, 1, 77, 0
2, 101640, Note_on_c, 1, 46, 127
2, 101640, Note_on_c, 1, 65, 127
2, 101640, Note_off_c, 1, 70, 0
2, 101640, Note_on_c, 1, 73, 127
2, 101640, Note_on_c, 1, 77, 127
2, 101960, Note_off_c, 1, 46, 0
2, 101960, Note_off_c, 1, 65, 0
2, 101960, Note_off_c, 1, 73, 0
2, 101960, Note_off_c, 1, 77, 0
2, 102000, Note_on_c, 1, 42, 127
2, 102000, Note_on_c, 1, 51, 127
2, 102000, Note_on_c, 1, 73, 127
2, 102120, Note_off_c, 1, 73, 0
2, 102160, Note_on_c, 1, 73, 127
2, 102280, Note_off_c, 1, 42, 0
2, 102280, Note_off_c, 1, 51, 0
2, 102280, Note_off_c, 1, 73, 0
2, 102320, Note_on_c, 1, 32, 127
2, 102320, Note_on_c, 1, 68, 127
2, 102520, Note_off_c, 1, 32, 0
2, 102520, Note_on_c, 1, 44, 127
2, 102520, Note_on_c, 1, 60, 127
2, 102520, Note_on_c, 1, 75, 127
2, 102640, Note_off_c, 1, 44, 0
2, 102640, Note_off_c, 1, 60, 0
2, 102640, Note_off_c, 1, 75, 0
2, 102680, Note_on_c, 1, 44, 127
2, 102680, Note_on_c, 1, 47, 127
2, 102840, Note_off_c, 1, 44, 0
2, 102840, Note_off_c, 1, 47, 0
2, 102840, Note_off_c, 1, 68, 0
2, 102880, Note_on_c, 1, 44, 127
2, 102880, Note_on_c, 1, 47, 127
2, 102880, Note_on_c, 1, 68, 127
2, 103040, Note_off_c, 1, 47, 0
2, 103040, Note_off_c, 1, 68, 0
2, 103080, Note_off_c, 1, 44, 0
2, 103080, Note_on_c, 1, 46, 127
2, 103080, Note_on_c, 1, 60, 127
2, 103080, Note_on_c, 1, 72, 127
2, 103200, Note_off_c, 1, 60, 0
2, 103200, Note_on_c, 1, 65, 127
2, 103200, Note_off_c, 1, 72, 0
2, 103200, Note_on_c, 1, 73, 127
2, 103240, Note_on_c, 1, 51, 127
2, 103240, Note_off_c, 1, 65, 0
2, 103240, Note_on_c, 1, 68, 127
2, 103240, Note_on_c, 1, 72, 127
2, 103240, Note_off_c, 1, 73, 0
2, 103280, Note_on_c, 1, 44, 127
2, 103280, Note_off_c, 1, 46, 0
2, 103280, Note_off_c, 1, 51, 0
2, 103280, Note_on_c, 1, 52, 127
2, 103280, Note_on_c, 1, 61, 127
2, 103280, Note_off_c, 1, 68, 0
2, 103280, Note_off_c, 1, 72, 0
2, 103280, Note_on_c, 1, 73, 127
2, 103320, Note_on_c, 1, 43, 127
2, 103320, Note_off_c, 1, 44, 0
2, 103320, Note_off_c, 1, 52, 0
2, 103320, Note_off_c, 1, 61, 0
2, 103320, Note_on_c, 1, 63, 127
2, 103320, Note_on_c, 1, 70, 127
2, 103320, Note_on_c, 1, 76, 127
2, 103360, Note_off_c, 1, 43, 0
2, 103360, Note_off_c, 1, 63, 0
2, 103360, Note_on_c, 1, 66, 127
2, 103360, Note_off_c, 1, 70, 0
2, 103360, Note_off_c, 1, 73, 0
2, 103360, Note_on_c, 1, 75, 127
2, 103360, Note_off_c, 1, 76, 0
2, 103360, Note_on_c, 1, 78, 127
2, 103360, Note_on_c, 1, 82, 127
2, 103360, Note_on_c, 1, 94, 127
2, 103400, Note_off_c, 1, 66, 0
2, 103400, Note_off_c, 1, 75, 0
2, 103400, Note_off_c, 1, 78, 0
2, 103400, Note_off_c, 1, 82, 0
2, 103400, Note_off_c, 1, 94, 0
2, 103440, Note_on_c, 1, 37, 127
2, 103440, Note_on_c, 1, 49, 127
2, 103440, Note_on_c, 1, 64, 127
2, 103440, Note_on_c, 1, 68, 127
2, 103440, Note_on_c, 1, 71, 127
2, 103640, Note_off_c, 1, 64, 0
2, 103640, Note_on_c, 1, 65, 127
2, 103720, Note_off_c, 1, 37, 0
2, 103720, Note_off_c, 1, 49, 0
2, 103720, Note_off_c, 1, 65, 0
2, 103720, Note_off_c, 1, 68, 0
2, 103720, Note_off_c, 1, 71, 0
2, 103760, Note_on_c, 1, 37, 127
2, 103760, Note_on_c, 1, 49, 127
2, 103760, Note_on_c, 1, 77, 127
2, 103960, Note_off_c, 1, 77, 0
2, 103960, Note_on_c, 1, 87, 127
2, 104000, Note_on_c, 1, 77, 127
2, 104000, Note_off_c, 1, 87, 0
2, 104040, Note_off_c, 1, 77, 0
2, 104040, Note_on_c, 1, 87, 127
2, 104080, Note_off_c, 1, 37, 0
2, 104080, Note_off_c, 1, 49, 0
2, 104080, Note_off_c, 1, 87, 0
2, 104120, Note_on_c, 1, 30, 127
2, 104120, Note_on_c, 1, 42, 127
2, 104120, Note_on_c, 1, 78, 127
2, 104440, Note_off_c, 1, 30, 0
2, 104440, Note_off_c, 1, 42, 0
2, 104480, Note_on_c, 1, 53, 127
2, 104480, Note_on_c, 1, 58, 127
2, 104480, Note_on_c, 1, 70, 127
2, 104480, Note_on_c, 1, 74, 127
2, 104480, Note_off_c, 1, 78, 0
2, 104480, Note_on_c, 1, 80, 127
2, 104480, Note_on_c, 1, 82, 127
2, 104760, Note_on_c, 1, 34, 127
2, 104760, Note_off_c, 1, 53, 0
2, 104760, Note_on_c, 1, 54, 127
2, 104760, Note_off_c, 1, 58, 0
2, 104760, Note_off_c, 1, 70, 0
2, 104760, Note_off_c, 1, 74, 0
2, 104760, Note_off_c, 1, 80, 0
2, 104760, Note_off_c, 1, 82, 0
2, 104800, Note_off_c, 1, 34, 0
2, 104800, Note_on_c, 1, 46, 127
2, 104800, Note_on_c, 1, 49, 127
2, 104800, Note_on_c, 1, 53, 127
2, 104800, Note_off_c, 1, 54, 0
2, 104800, Note_on_c, 1, 58, 127
2, 104840, Note_off_c, 1, 46, 0
2, 104840, Note_off_c, 1, 53, 0
2, 104840, Note_on_c, 1, 55, 127
2, 104840, Note_off_c, 1, 58, 0
2, 104840, Note_on_c, 1, 61, 127
2, 104840, Note_on_c, 1, 64, 127
2, 104880, Note_off_c, 1, 55, 0
2, 104880, Note_on_c, 1, 59, 127
2, 104880, Note_off_c, 1, 61, 0
2, 104880, Note_off_c, 1, 64, 0
2, 104880, Note_on_c, 1, 68, 127
2, 104880, Note_on_c, 1, 73, 127
2, 104880, Note_on_c, 1, 77, 127
2, 104920, Note_off_c, 1, 49, 0
2, 104920, Note_off_c, 1, 59, 0
2, 104920, Note_off_c, 1, 68, 0
2, 104920, Note_off_c, 1, 73, 0
2, 104920, Note_off_c, 1, 77, 0
2, 104960, Note_on_c, 1, 46, 127
2, 104960, Note_on_c, 1, 49, 127
2, 104960, Note_on_c, 1, 53, 127
2, 104960, Note_on_c, 1, 58, 127
2, 105000, Note_on_c, 1, 39, 127
2, 105000, Note_off_c, 1, 46, 0
2, 105000, Note_off_c, 1, 49, 0
2, 105000, Note_on_c, 1, 50, 127
2, 105000, Note_off_c, 1, 53, 0
2, 105000, Note_on_c, 1, 65, 127
2, 105040, Note_on_c, 1, 37, 127
2, 105040, Note_off_c, 1, 39, 0
2, 105040, Note_on_c, 1, 40, 127
2, 105040, Note_on_c, 1, 49, 127
2, 105040, Note_off_c, 1, 50, 0
2, 105040, Note_off_c, 1, 58, 0
2, 105040, Note_off_c, 1, 65, 0
2, 105040, Note_on_c, 1, 73, 127
2, 105040, Note_on_c, 1, 76, 127
2, 105040, Note_on_c, 1, 81, 127
2, 105040, Note_on_c, 1, 85, 127
2, 105160, Note_off_c, 1, 37, 0
2, 105160, Note_off_c, 1, 40, 0
2, 105160, Note_off_c, 1, 49, 0
2, 105160, Note_off_c, 1, 73, 0
2, 105160, Note_off_c, 1, 76, 0
2, 105160, Note_off_c, 1, 81, 0
2, 105160, Note_off_c, 1, 85, 0
2, 105200, Note_on_c, 1, 53, 127
2, 105200, Note_on_c, 1, 75, 127
2, 105400, Note_off_c, 1, 75, 0
2, 105440, Note_on_c, 1, 75, 127
2, 105520, Note_off_c, 1, 53, 0
2, 105520, Note_off_c, 1, 75, 0
2, 105560, Note_on_c, 1, 41, 127
2, 105560, Note_on_c, 1, 53, 127
2, 105560, Note_on_c, 1, 65, 127
2, 105560, Note_on_c, 1, 69, 127
2, 105560, Note_on_c, 1, 73, 127
2, 105600, Note_off_c, 1, 41, 0
2, 105600, Note_off_c, 1, 53, 0
2, 105600, Note_on_c, 1, 54, 127
2, 105600, Note_on_c, 1, 63, 127
2, 105600, Note_off_c, 1, 65, 0
2, 105600, Note_on_c, 1, 67, 127
2, 105600, Note_off_c, 1, 69, 0
2, 105600, Note_off_c, 1, 73, 0
2, 105600, Note_on_c, 1, 75, 127
2, 105640, Note_on_c, 1, 44, 127
2, 105640, Note_on_c, 1, 51, 127
2, 105640, Note_off_c, 1, 54, 0
2, 105640, Note_on_c, 1, 55, 127
2, 105640, Note_off_c, 1, 67, 0
2, 105640, Note_on_c, 1, 70, 127
2, 105640, Note_on_c, 1, 73, 127
2, 105640, Note_off_c, 1, 75, 0
2, 105680, Note_off_c, 1, 55, 0
2, 105680, Note_on_c, 1, 58, 127
2, 105680, Note_on_c, 1, 60, 127
2, 105680, Note_on_c, 1, 67, 127
2, 105680, Note_off_c, 1, 70, 0
2, 105680, Note_off_c, 1, 73, 0
2, 105720, Note_on_c, 1, 41, 127
2, 105720, Note_off_c, 1, 44, 0
2, 105720, Note_off_c, 1, 51, 0
2, 105720, Note_off_c, 1, 58, 0
2, 105720, Note_off_c, 1, 63, 0
2, 105720, Note_on_c, 1, 65, 127
2, 105720, Note_off_c, 1, 67, 0
2, 105720, Note_on_c, 1, 70, 127
2, 105760, Note_off_c, 1, 41, 0
2, 105760, Note_on_c, 1, 54, 127
2, 105760, Note_off_c, 1, 65, 0
2, 105760, Note_on_c, 1, 74, 127
2, 105800, Note_off_c, 1, 54, 0
2, 105800, Note_off_c, 1, 60, 0
2, 105800, Note_on_c, 1, 65, 127
2, 105800, Note_off_c, 1, 70, 0
2, 105800, Note_off_c, 1, 74, 0
2, 105800, Note_on_c, 1, 77, 127
2, 105800, Note_on_c, 1, 80, 127
2, 105800, Note_on_c, 1, 85, 127
2, 105840, Note_off_c, 1, 65, 0
2, 105840, Note_off_c, 1, 77, 0
2, 105840, Note_off_c, 1, 80, 0
2, 105840, Note_off_c, 1, 85, 0
2, 105880, Note_on_c, 1, 46, 127
2, 105880, Note_on_c, 1, 86, 127
2, 105880, Note_on_c, 1, 91, 127
2, 105920, Note_on_c, 1, 45, 127
2, 105920, Note_off_c, 1, 46, 0
2, 105920, Note_on_c, 1, 47, 127
2, 105920, Note_on_c, 1, 57, 127
2, 105920, Note_on_c, 1, 63, 127
2, 105920, Note_on_c, 1, 66, 127
2, 105920, Note_on_c, 1, 71, 127
2, 105920, Note_on_c, 1, 75, 127
2, 105920, Note_off_c, 1, 86, 0
2, 105920, Note_off_c, 1, 91, 0
2, 105960, Note_off_c, 1, 47, 0
2, 105960, Note_on_c, 1, 53, 127
2, 105960, Note_off_c, 1, 63, 0
2, 105960, Note_on_c, 1, 64, 127
2, 105960, Note_off_c, 1, 66, 0
2, 105960, Note_off_c, 1, 71, 0
2, 105960, Note_off_c, 1, 75, 0
2, 106000, Note_on_c, 1, 41, 127
2, 106000, Note_off_c, 1, 53, 0
2, 106000, Note_off_c, 1, 57, 0
2, 106000, Note_on_c, 1, 61, 127
2, 106000, Note_on_c, 1, 67, 127
2, 106000, Note_on_c, 1, 69, 127
2, 106040, Note_off_c, 1, 41, 0
2, 106040, Note_off_c, 1, 45, 0
2, 106040, Note_off_c, 1, 61, 0
2, 106040, Note_on_c, 1, 63, 127
2, 106040, Note_off_c, 1, 64, 0
2, 106040, Note_off_c, 1, 67, 0
2, 106040, Note_on_c, 1, 74, 127
2, 106040, Note_on_c, 1, 81, 127
2, 106080, Note_on_c, 1, 47, 127
2, 106080, Note_on_c, 1, 57, 127
2, 106080, Note_off_c, 1, 63, 0
2, 106080, Note_off_c, 1, 69, 0
2, 106080, Note_off_c, 1, 74, 0
2, 106080, Note_off_c, 1, 81, 0
2, 106080, Note_on_c, 1, 87, 127
2, 106120, Note_on_c, 1, 35, 127
2, 106120, Note_on_c, 1, 42, 127
2, 106120, Note_off_c, 1, 47, 0
2, 106120, Note_on_c, 1, 52, 127
2, 106120, Note_off_c, 1, 57, 0
2, 106120, Note_on_c, 1, 61, 127
2, 106120, Note_off_c, 1, 87, 0
2, 106160, Note_off_c, 1, 35, 0
2, 106160, Note_off_c, 1, 42, 0
2, 106160, Note_on_c, 1, 47, 127
2, 106160, Note_off_c, 1, 61, 0
2, 106160, Note_on_c, 1, 65, 127
2, 106160, Note_on_c, 1, 69, 127
2, 106160, Note_on_c, 1, 77, 127
2, 106200, Note_off_c, 1, 47, 0
2, 106200, Note_off_c, 1, 52, 0
2, 106200, Note_off_c, 1, 65, 0
2, 106200, Note_off_c, 1, 69, 0
2, 106200, Note_off_c, 1, 77, 0
2, 106240, Note_on_c, 1, 39, 127
2, 106240, Note_on_c, 1, 63, 127
2, 106240, Note_on_c, 1, 66, 127
2, 106240, Note_on_c, 1, 71, 127
2, 106520, Note_off_c, 1, 39, 0
2, 106520, Note_off_c, 1, 71, 0
2, 106520, Note_on_c, 1, 73, 127
2, 106560, Note_off_c, 1, 63, 0
2, 106560, Note_off_c, 1, 66, 0
2, 106560, Note_off_c, 1, 73, 0
2, 106600, Note_on_c, 1, 49, 127
2, 106600, Note_on_c, 1, 66, 127
2, 106600, Note_on_c, 1, 70, 127
2, 106960, Note_off_c, 1, 49, 0
2, 106960, Note_off_c, 1, 66, 0
2, 106960, Note_off_c, 1, 70, 0
2, 107000, Note_on_c, 1, 45, 127
2, 107000, Note_on_c, 1, 67, 127
2, 107000, Note_on_c, 1, 71, 127
2, 107000, Note_on_c, 1, 76, 127
2, 107240, Note_off_c, 1, 45, 0
2, 107240, Note_on_c, 1, 51, 127
2, 107240, Note_on_c, 1, 55, 127
2, 107240, Note_on_c, 1, 63, 127
2, 107240, Note_off_c, 1, 67, 0
2, 107240, Note_on_c, 1, 70, 127
2, 107240, Note_off_c, 1, 71, 0
2, 107240, Note_on_c, 1, 73, 127
2, 107240, Note_off_c, 1, 76, 0
2, 107280, Note_off_c, 1, 51, 0
2, 107280, Note_off_c, 1, 55, 0
2, 107280, Note_off_c, 1, 63, 0
2, 107280, Note_off_c, 1, 70, 0
2, 107280, Note_off_c, 1, 73, 0
2, 107320, Note_on_c, 1, 66, 127
2, 107320, Note_on_c, 1, 70, 127
2, 107320, Note_on_c, 1, 82, 127
2, 107640, Note_off_c, 1, 66, 0
2, 107640, Note_off_c, 1, 70, 0
2, 107680, Note_on_c, 1, 61, 127
2, 107680, Note_on_c, 1, 65, 127
2, 107680, Note_on_c, 1, 71, 127
2, 107680, Note_on_c, 1, 80, 127
2, 107680, Note_off_c, 1, 82, 0
2, 108000, Note_off_c, 1, 80, 0
2, 108040, Note_on_c, 1, 39, 127
2, 108040, Note_on_c, 1, 56, 127
2, 108040, Note_off_c, 1, 61, 0
2, 108040, Note_off_c, 1, 65, 0
2, 108040, Note_on_c, 1, 66, 127
2, 108040, Note_off_c, 1, 71, 0
2, 108040, Note_on_c, 1, 78, 127
2, 108320, Note_off_c, 1, 39, 0
2, 108320, Note_off_c, 1, 56, 0
2, 108320, Note_on_c, 1, 58, 127
2, 108320, Note_on_c, 1, 62, 127
2, 108320, Note_on_c, 1, 65, 127
2, 108320, Note_off_c, 1, 66, 0
2, 108320, Note_on_c, 1, 73, 127
2, 108320, Note_off_c, 1, 78, 0
2, 108360, Note_on_c, 1, 39, 127
2, 108360, Note_on_c, 1, 56, 127
2, 108360, Note_off_c, 1, 58, 0
2, 108360, Note_off_c, 1, 62, 0
2, 108360, Note_off_c, 1, 65, 0
2, 108360, Note_on_c, 1, 66, 127
2, 108360, Note_off_c, 1, 73, 0
2, 108360, Note_on_c, 1, 78, 127
2, 108400, Note_off_c, 1, 39, 0
2, 108400, Note_off_c, 1, 56, 0
2, 108400, Note_on_c, 1, 59, 127
2, 108400, Note_off_c, 1, 66, 0
2, 108400, Note_off_c, 1, 78, 0
2, 108400, Note_on_c, 1, 80, 127
2, 108400, Note_on_c, 1, 81, 127
2, 108440, Note_on_c, 1, 52, 127
2, 108440, Note_on_c, 1, 62, 127
2, 108440, Note_on_c, 1, 66, 127
2, 108440, Note_on_c, 1, 69, 127
2, 108440, Note_on_c, 1, 76, 127
2, 108440, Note_off_c, 1, 80, 0
2, 108440, Note_off_c, 1, 81, 0
2, 108480, Note_off_c, 1, 52, 0
2, 108480, Note_off_c, 1, 62, 0
2, 108480, Note_on_c, 1, 63, 127
2, 108480, Note_off_c, 1, 66, 0
2, 108480, Note_off_c, 1, 76, 0
2, 108480, Note_on_c, 1, 90, 127
2, 108480, Note_on_c, 1, 92, 127
2, 108520, Note_on_c, 1, 39, 127
2, 108520, Note_on_c, 1, 56, 127
2, 108520, Note_off_c, 1, 59, 0
2, 108520, Note_off_c, 1, 63, 0
2, 108520, Note_on_c, 1, 66, 127
2, 108520, Note_off_c, 1, 69, 0
2, 108520, Note_on_c, 1, 78, 127
2, 108520, Note_off_c, 1, 90, 0
2, 108520, Note_off_c, 1, 92, 0
2, 108560, Note_off_c, 1, 39, 0
2, 108560, Note_off_c, 1, 56, 0
2, 108560, Note_on_c, 1, 64, 127
2, 108560, Note_off_c, 1, 66, 0
2, 108560, Note_on_c, 1, 68, 127
2, 108560, Note_on_c, 1, 71, 127
2, 108560, Note_off_c, 1, 78, 0
2, 108560, Note_on_c, 1, 82, 127
2, 108680, Note_off_c, 1, 64, 0
2, 108680, Note_off_c, 1, 68, 0
2, 108680, Note_off_c, 1, 71, 0
2, 108680, Note_off_c, 1, 82, 0
2, 108720, Note_on_c, 1, 49, 127
2, 108720, Note_on_c, 1, 81, 127
2, 109000, Note_off_c, 1, 49, 0
2, 109000, Note_off_c, 1, 81, 0
2, 109040, Note_on_c, 1, 49, 127
2, 109040, Note_on_c, 1, 81, 127
2, 109080, Note_off_c, 1, 49, 0
2, 109080, Note_off_c, 1, 81, 0
2, 109120, Note_on_c, 1, 59, 127
2, 109120, Note_on_c, 1, 64, 127
2, 109120, Note_on_c, 1, 68, 127
2, 109120, Note_on_c, 1, 79, 127
2, 109400, Note_off_c, 1, 59, 0
2, 109400, Note_off_c, 1, 64, 0
2, 109400, Note_off_c, 1, 68, 0
2, 109400, Note_off_c, 1, 79, 0
2, 109400, Note_on_c, 1, 80, 127
2, 109440, Note_on_c, 1, 59, 127
2, 109440, Note_on_c, 1, 64, 127
2, 109440, Note_on_c, 1, 68, 127
2, 109440, Note_on_c, 1, 79, 127
2, 109440, Note_off_c, 1, 80, 0
2, 109760, Note_off_c, 1, 59, 0
2, 109760, Note_off_c, 1, 64, 0
2, 109760, Note_off_c, 1, 68, 0
2, 109760, Note_off_c, 1, 79, 0
2, 109760, Note_on_c, 1, 80, 127
2, 109800, Note_on_c, 1, 56, 127
2, 109800, Note_on_c, 1, 68, 127
2, 109800, Note_off_c, 1, 80, 0
2, 109800, Note_on_c, 1, 83, 127
2, 110120, Note_off_c, 1, 56, 0
2, 110120, Note_off_c, 1, 68, 0
2, 110120, Note_off_c, 1, 83, 0
2, 110160, Note_on_c, 1, 53, 127
2, 110160, Note_on_c, 1, 65, 127
2, 110160, Note_on_c, 1, 79, 127
2, 110480, Note_off_c, 1, 53, 0
2, 110480, Note_off_c, 1, 65, 0
2, 110480, Note_off_c, 1, 79, 0
2, 110520, Note_on_c, 1, 56, 127
2, 110520, Note_on_c, 1, 68, 127
2, 110520, Note_on_c, 1, 83, 127
2, 110800, Note_off_c, 1, 56, 0
2, 110800, Note_off_c, 1, 68, 0
2, 110800, Note_off_c, 1, 83, 0
2, 110840, Note_on_c, 1, 58, 127
2, 110840, Note_on_c, 1, 70, 127
2, 110840, Note_on_c, 1, 85, 127
2, 110960, Note_off_c, 1, 58, 0
2, 110960, Note_off_c, 1, 70, 0
2, 110960, Note_off_c, 1, 85, 0
2, 111000, Note_on_c, 1, 58, 127
2, 111000, Note_on_c, 1, 70, 127
2, 111000, Note_on_c, 1, 85, 127
2, 111200, Note_off_c, 1, 58, 0
2, 111200, Note_off_c, 1, 70, 0
2, 111200, Note_off_c, 1, 85, 0
2, 111240, Note_on_c, 1, 56, 127
2, 111240, Note_on_c, 1, 68, 127
2, 111240, Note_on_c, 1, 83, 127
2, 111560, Note_off_c, 1, 56, 0
2, 111560, Note_off_c, 1, 68, 0
2, 111560, Note_off_c, 1, 83, 0
2, 111600, Note_on_c, 1, 65, 127
2, 111600, Note_on_c, 1, 73, 127
2, 111600, Note_on_c, 1, 87, 127
2, 111720, Note_off_c, 1, 87, 0
2, 111760, Note_on_c, 1, 80, 127
2, 112240, Note_off_c, 1, 65, 0
2, 112240, Note_off_c, 1, 73, 0
2, 112240, Note_off_c, 1, 80, 0
2, 112280, Note_on_c, 1, 61, 127
2, 112280, Note_on_c, 1, 65, 127
2, 112280, Note_on_c, 1, 77, 127
2, 112280, Note_on_c, 1, 80, 127
2, 112600, Note_off_c, 1, 61, 0
2, 112600, Note_off_c, 1, 65, 0
2, 112600, Note_off_c, 1, 80, 0
2, 112640, Note_on_c, 1, 61, 127
2, 112640, Note_on_c, 1, 65, 127
2, 112640, Note_on_c, 1, 80, 127
2, 112960, Note_off_c, 1, 61, 0
2, 112960, Note_off_c, 1, 65, 0
2, 112960, Note_off_c, 1, 77, 0
2, 112960, Note_off_c, 1, 80, 0
2, 113040, Note_on_c, 1, 61, 127
2, 113040, Note_on_c, 1, 68, 127
2, 113040, Note_on_c, 1, 77, 127
2, 113040, Note_on_c, 1, 80, 127
2, 113320, Note_off_c, 1, 61, 0
2, 113320, Note_off_c, 1, 68, 0
2, 113320, Note_off_c, 1, 77, 0
2, 113320, Note_off_c, 1, 80, 0
2, 113360, Note_on_c, 1, 53, 127
2, 113360, Note_on_c, 1, 61, 127
2, 113360, Note_on_c, 1, 68, 127
2, 113360, Note_on_c, 1, 73, 127
2, 113680, Note_off_c, 1, 53, 0
2, 113680, Note_off_c, 1, 61, 0
2, 113680, Note_off_c, 1, 68, 0
2, 113680, Note_off_c, 1, 73, 0
2, 113720, Note_on_c, 1, 54, 127
2, 113720, Note_on_c, 1, 61, 127
2, 113720, Note_on_c, 1, 70, 127
2, 113880, Note_on_c, 1, 58, 127
2, 113880, Note_off_c, 1, 70, 0
2, 113880, Note_on_c, 1, 73, 127
2, 113960, Note_off_c, 1, 61, 0
2, 113960, Note_on_c, 1, 66, 127
2, 114000, Note_off_c, 1, 54, 0
2, 114000, Note_off_c, 1, 58, 0
2, 114000, Note_off_c, 1, 66, 0
2, 114040, Note_off_c, 1, 73, 0
2, 114040, Note_on_c, 1, 78, 127
2, 114080, Note_on_c, 1, 54, 127
2, 114080, Note_on_c, 1, 58, 127
2, 114080, Note_on_c, 1, 64, 127
2, 114080, Note_off_c, 1, 78, 0
2, 114360, Note_off_c, 1, 54, 0
2, 114360, Note_off_c, 1, 58, 0
2, 114360, Note_off_c, 1, 64, 0
2, 114400, Note_on_c, 1, 54, 127
2, 114400, Note_on_c, 1, 57, 127
2, 114400, Note_on_c, 1, 61, 127
2, 114400, Note_on_c, 1, 66, 127
2, 114400, Note_on_c, 1, 78, 127
2, 114720, Note_off_c, 1, 54, 0
2, 114720, Note_off_c, 1, 57, 0
2, 114720, Note_off_c, 1, 61, 0
2, 114720, Note_off_c, 1, 66, 0
2, 114720, Note_off_c, 1, 78, 0
2, 114760, Note_on_c, 1, 39, 127
2, 114760, Note_on_c, 1, 51, 127
2, 114760, Note_on_c, 1, 75, 127
2, 114760, Note_on_c, 1, 78, 127
2, 114760, Note_on_c, 1, 83, 127
2, 114760, Note_on_c, 1, 87, 127
2, 115080, Note_off_c, 1, 39, 0
2, 115080, Note_off_c, 1, 51, 0
2, 115080, Note_off_c, 1, 75, 0
2, 115080, Note_off_c, 1, 78, 0
2, 115080, Note_off_c, 1, 83, 0
2, 115080, Note_off_c, 1, 87, 0
2, 115160, Note_on_c, 1, 56, 127
2, 115160, Note_on_c, 1, 63, 127
2, 115160, Note_on_c, 1, 73, 127
2, 115160, Note_on_c, 1, 85, 127
2, 115440, Note_off_c, 1, 63, 0
2, 115480, Note_on_c, 1, 61, 127
2, 115720, Note_off_c, 1, 61, 0
2, 115800, Note_off_c, 1, 56, 0
2, 115800, Note_on_c, 1, 61, 127
2, 115800, Note_off_c, 1, 73, 0
2, 115800, Note_off_c, 1, 85, 0
2, 115840, Note_on_c, 1, 40, 127
2, 115840, Note_on_c, 1, 50, 127
2, 115840, Note_on_c, 1, 59, 127
2, 115840, Note_off_c, 1, 61, 0
2, 115840, Note_on_c, 1, 68, 127
2, 115840, Note_on_c, 1, 71, 127
2, 115880, Note_off_c, 1, 40, 0
2, 115880, Note_on_c, 1, 49, 127
2, 115880, Note_off_c, 1, 50, 0
2, 115920, Note_on_c, 1, 45, 127
2, 115920, Note_off_c, 1, 49, 0
2, 115920, Note_off_c, 1, 59, 0
2, 115920, Note_on_c, 1, 64, 127
2, 115920, Note_on_c, 1, 67, 127
2, 115920, Note_off_c, 1, 68, 0
2, 115920, Note_off_c, 1, 71, 0
2, 115920, Note_on_c, 1, 73, 127
2, 115920, Note_on_c, 1, 81, 127
2, 115960, Note_off_c, 1, 45, 0
2, 115960, Note_on_c, 1, 47, 127
2, 115960, Note_on_c, 1, 63, 127
2, 115960, Note_off_c, 1, 64, 0
2, 115960, Note_off_c, 1, 67, 0
2, 115960, Note_on_c, 1, 69, 127
2, 115960, Note_off_c, 1, 73, 0
2, 115960, Note_on_c, 1, 78, 127
2, 115960, Note_off_c, 1, 81, 0
2, 116000, Note_off_c, 1, 47, 0
2, 116000, Note_on_c, 1, 49, 127
2, 116000, Note_on_c, 1, 59, 127
2, 116000, Note_off_c, 1, 63, 0
2, 116000, Note_on_c, 1, 68, 127
2, 116000, Note_off_c, 1, 69, 0
2, 116000, Note_on_c, 1, 71, 127
2, 116000, Note_off_c, 1, 78, 0
2, 116120, Note_off_c, 1, 49, 0
2, 116120, Note_off_c, 1, 59, 0
2, 116120, Note_on_c, 1, 61, 127
2, 116120, Note_off_c, 1, 68, 0
2, 116120, Note_off_c, 1, 71, 0
2, 116160, Note_off_c, 1, 61, 0
2, 116200, Note_on_c, 1, 56, 127
2, 116200, Note_on_c, 1, 68, 127
2, 116200, Note_on_c, 1, 71, 127
2, 116480, Note_off_c, 1, 56, 0
2, 116480, Note_off_c, 1, 68, 0
2, 116520, Note_on_c, 1, 53, 127
2, 116520, Note_on_c, 1, 68, 127
2, 116840, Note_off_c, 1, 53, 0
2, 116840, Note_off_c, 1, 68, 0
2, 116880, Note_on_c, 1, 53, 127
2, 116880, Note_on_c, 1, 68, 127
2, 117200, Note_off_c, 1, 53, 0
2, 117200, Note_off_c, 1, 68, 0
2, 117240, Note_on_c, 1, 53, 127
2, 117240, Note_on_c, 1, 68, 127
2, 117360, Note_off_c, 1, 53, 0
2, 117360, Note_off_c, 1, 68, 0
2, 117360, Note_off_c, 1, 71, 0
2, 117400, Note_on_c, 1, 53, 127
2, 117400, Note_on_c, 1, 68, 127
2, 117400, Note_on_c, 1, 71, 127
2, 117560, Note_off_c, 1, 53, 0
2, 117560, Note_off_c, 1, 68, 0
2, 117560, Note_off_c, 1, 71, 0
2, 117600, Note_on_c, 1, 42, 127
2, 117600, Note_on_c, 1, 66, 127
2, 117600, Note_on_c, 1, 70, 127
2, 117920, Note_off_c, 1, 42, 0
2, 117920, Note_off_c, 1, 66, 0
2, 117920, Note_off_c, 1, 70, 0
2, 117960, Note_on_c, 1, 46, 127
2, 117960, Note_on_c, 1, 66, 127
2, 117960, Note_on_c, 1, 70, 127
2, 118280, Note_off_c, 1, 46, 0
2, 118280, Note_off_c, 1, 66, 0
2, 118280, Note_off_c, 1, 70, 0
2, 118320, Note_on_c, 1, 51, 127
2, 118320, Note_on_c, 1, 66, 127
2, 118320, Note_on_c, 1, 70, 127
2, 118640, Note_off_c, 1, 51, 0
2, 118640, Note_off_c, 1, 66, 0
2, 118640, Note_off_c, 1, 70, 0
2, 118640, Note_on_c, 1, 71, 127
2, 118680, Note_on_c, 1, 51, 127
2, 118680, Note_on_c, 1, 63, 127
2, 118680, Note_on_c, 1, 66, 127
2, 118960, Note_off_c, 1, 51, 0
2, 118960, Note_off_c, 1, 63, 0
2, 119000, Note_on_c, 1, 50, 127
2, 119000, Note_off_c, 1, 66, 0
2, 119000, Note_on_c, 1, 68, 127
2, 119320, Note_off_c, 1, 50, 0
2, 119320, Note_off_c, 1, 68, 0
2, 119320, Note_off_c, 1, 71, 0
2, 119360, Note_on_c, 1, 67, 127
2, 119360, Note_on_c, 1, 75, 127
2, 119520, Note_off_c, 1, 67, 0
2, 119520, Note_off_c, 1, 75, 0
2, 119560, Note_on_c, 1, 67, 127
2, 119560, Note_on_c, 1, 75, 127
2, 119720, Note_off_c, 1, 67, 0
2, 119720, Note_off_c, 1, 75, 0
2, 119760, Note_on_c, 1, 64, 127
2, 119760, Note_on_c, 1, 68, 127
2, 119760, Note_on_c, 1, 73, 127
2, 119760, Note_on_c, 1, 76, 127
2, 120000, Note_off_c, 1, 64, 0
2, 120000, Note_off_c, 1, 68, 0
2, 120000, Note_off_c, 1, 73, 0
2, 120000, Note_off_c, 1, 76, 0
2, 120040, End_track
3, 0, Start_track
3, 0, Title_t, "MIDI"
3, 1536, End_track
0, 0, End_of_file
