0, 0, Header, 1, 3, 192
1, 0, Start_track
1, 0, Time_signature, 4, 2, 24, 8
1, 0, Tempo, 500000
1, 120040, End_track
2, 0, Start_track
2, 0, Text_t, "random instrument: random person i dunno whatev"
2, 0, Title_t, "Track 1"
2, 0, Note_on_c, 1, 50, 127
2, 0, Note_on_c, 1, 57, 127
2, 0, Note_on_c, 1, 65, 127
2, 0, Note_on_c, 1, 69, 127
2, 0, Note_on_c, 1, 74, 127
2, 0, Note_on_c, 1, 77, 127
2, 0, Note_on_c, 1, 81, 127
2, 80, Note_off_c, 1, 50, 0
2, 80, Note_off_c, 1, 57, 0
2, 80, Note_off_c, 1, 65, 0
2, 80, Note_off_c, 1, 69, 0
2, 80, Note_off_c, 1, 74, 0
2, 80, Note_off_c, 1, 77, 0
2, 80, Note_off_c, 1, 81, 0
2, 120, Note_on_c, 1, 50, 127
2, 120, Note_on_c, 1, 57, 127
2, 120, Note_on_c, 1, 65, 127
2, 120, Note_on_c, 1, 69, 127
2, 120, Note_on_c, 1, 74, 127
2, 120, Note_on_c, 1, 77, 127
2, 120, Note_on_c, 1, 81, 127
2, 360, Note_off_c, 1, 50, 0
2, 360, Note_off_c, 1, 57, 0
2, 360, Note_off_c, 1, 65, 0
2, 360, Note_off_c, 1, 69, 0
2, 360, Note_off_c, 1, 74, 0
2, 360, Note_off_c, 1, 77, 0
2, 360, Note_off_c, 1, 81, 0
2, 400, Note_on_c, 1, 47, 127
2, 400, Note_on_c, 1, 59, 127
2, 400, Note_on_c, 1, 66, 127
2, 400, Note_on_c, 1, 71, 127
2, 400, Note_on_c, 1, 74, 127
2, 800, Note_off_c, 1, 47, 0
2, 800, Note_off_c, 1, 59, 0
2, 800, Note_off_c, 1, 66, 0
2, 800, Note_off_c, 1, 71, 0
2, 800, Note_off_c, 1, 74, 0
2, 840, Note_on_c, 1, 47, 127
2, 840, Note_on_c, 1, 63, 127
2, 840, Note_on_c, 1, 66, 127
2, 840, Note_on_c, 1, 71, 127
2, 960, Note_off_c, 1, 47, 0
2, 960, Note_off_c, 1, 63, 0
2, 960, Note_off_c, 1, 66, 0
2, 960, Note_off_c, 1, 71, 0
2, 3840, Note_on_c, 1, 59, 127
2, 3840, Note_on_c, 1, 64, 127
2, 3840, Note_on_c, 1, 68, 127
2, 3960, Note_off_c, 1, 59, 0
2, 3960, Note_off_c, 1, 64, 0
2, 3960, Note_off_c, 1, 68, 0
2, 4160, Note_on_c, 1, 62, 127
2, 4160, Note_on_c, 1, 64, 127
2, 4160, Note_on_c, 1, 68, 127
2, 4160, Note_on_c, 1, 71, 127
2, 4200, Note_off_c, 1, 62, 0
2, 4200, Note_off_c, 1, 64, 0
2, 4200, Note_off_c, 1, 68, 0
2, 4200, Note_off_c, 1, 71, 0
2, 4240, Note_on_c, 1, 62, 127
2, 4240, Note_on_c, 1, 64, 127
2, 4240, Note_on_c, 1, 68, 127
2, 4240, Note_on_c, 1, 71, 127
2, 4280, Note_off_c, 1, 62, 0
2, 4280, Note_off_c, 1, 64, 0
2, 4280, Note_off_c, 1, 68, 0
2, 4280, Note_off_c, 1, 71, 0
2, 4360, Note_on_c, 1, 62, 127
2, 4360, Note_on_c, 1, 64, 127
2, 4360, Note_on_c, 1, 68, 127
2, 4360, Note_on_c, 1, 71, 127
2, 4600, Note_off_c, 1, 62, 0
2, 4600, Note_off_c, 1, 64, 0
2, 4600, Note_off_c, 1, 68, 0
2, 4600, Note_off_c, 1, 71, 0
2, 4640, Note_on_c, 1, 57, 127
2, 4640, Note_on_c, 1, 61, 127
2, 4640, Note_on_c, 1, 64, 127
2, 4640, Note_on_c, 1, 69, 127
2, 4680, Note_off_c, 1, 57, 0
2, 4680, Note_off_c, 1, 61, 0
2, 4680, Note_off_c, 1, 64, 0
2, 4680, Note_off_c, 1, 69, 0
2, 4720, Note_on_c, 1, 57, 127
2, 4720, Note_on_c, 1, 61, 127
2, 4720, Note_on_c, 1, 64, 127
2, 4720, Note_on_c, 1, 69, 127
2, 4920, Note_off_c, 1, 57, 0
2, 4920, Note_off_c, 1, 61, 0
2, 4920, Note_off_c, 1, 64, 0
2, 4920, Note_off_c, 1, 69, 0
2, 4960, Note_on_c, 1, 50, 127
2, 4960, Note_on_c, 1, 62, 127
2, 4960, Note_on_c, 1, 66, 127
2, 4960, Note_on_c, 1, 71, 127
2, 5000, Note_off_c, 1, 50, 0
2, 5000, Note_off_c, 1, 62, 0
2, 5000, Note_off_c, 1, 66, 0
2, 5000, Note_off_c, 1, 71, 0
2, 5160, Note_on_c, 1, 48, 127
2, 5160, Note_on_c, 1, 55, 127
2, 5160, Note_on_c, 1, 60, 127
2, 5160, Note_on_c, 1, 64, 127
2, 5200, Note_off_c, 1, 48, 0
2, 5200, Note_off_c, 1, 55, 0
2, 5200, Note_off_c, 1, 60, 0
2, 5200, Note_off_c, 1, 64, 0
2, 5240, Note_on_c, 1, 43, 127
2, 5240, Note_on_c, 1, 50, 127
2, 5240, Note_on_c, 1, 60, 127
2, 5240, Note_on_c, 1, 62, 127
2, 5240, Note_on_c, 1, 69, 127
2, 5480, Note_off_c, 1, 43, 0
2, 5480, Note_off_c, 1, 50, 0
2, 5480, Note_off_c, 1, 60, 0
2, 5480, Note_off_c, 1, 62, 0
2, 5480, Note_off_c, 1, 69, 0
2, 5520, Note_on_c, 1, 41, 127
2, 5520, Note_on_c, 1, 53, 127
2, 5520, Note_on_c, 1, 77, 127
2, 5520, Note_on_c, 1, 81, 127
2, 5520, Note_on_c, 1, 84, 127
2, 5520, Note_on_c, 1, 89, 127
2, 5720, Note_off_c, 1, 41, 0
2, 5720, Note_off_c, 1, 53, 0
2, 5720, Note_off_c, 1, 77, 0
2, 5720, Note_off_c, 1, 81, 0
2, 5720, Note_off_c, 1, 84, 0
2, 5720, Note_off_c, 1, 89, 0
2, 5840, Note_on_c, 1, 65, 127
2, 5840, Note_on_c, 1, 70, 127
2, 5840, Note_on_c, 1, 78, 127
2, 5840, Note_on_c, 1, 85, 127
2, 5840, Note_on_c, 1, 90, 127
2, 5880, Note_on_c, 1, 52, 127
2, 5880, Note_on_c, 1, 57, 127
2, 5880, Note_on_c, 1, 60, 127
2, 5880, Note_on_c, 1, 69, 127
2, 5880, Note_off_c, 1, 70, 0
2, 5880, Note_on_c, 1, 77, 127
2, 5880, Note_off_c, 1, 78, 0
2, 5880, Note_off_c, 1, 85, 0
2, 5880, Note_off_c, 1, 90, 0
2, 5920, Note_off_c, 1, 52, 0
2, 5920, Note_off_c, 1, 57, 0
2, 5920, Note_off_c, 1, 60, 0
2, 5920, Note_off_c, 1, 65, 0
2, 5920, Note_off_c, 1, 69, 0
2, 5920, Note_off_c, 1, 77, 0
2, 6000, Note_on_c, 1, 44, 127
2, 6000, Note_on_c, 1, 56, 127
2, 6000, Note_on_c, 1, 78, 127
2, 6000, Note_on_c, 1, 80, 127
2, 6000, Note_on_c, 1, 84, 127
2, 6000, Note_on_c, 1, 87, 127
2, 6200, Note_on_c, 1, 42, 127
2, 6200, Note_off_c, 1, 44, 0
2, 6200, Note_on_c, 1, 52, 127
2, 6200, Note_off_c, 1, 56, 0
2, 6200, Note_on_c, 1, 59, 127
2, 6200, Note_on_c, 1, 64, 127
2, 6200, Note_off_c, 1, 78, 0
2, 6200, Note_off_c, 1, 80, 0
2, 6200, Note_off_c, 1, 84, 0
2, 6200, Note_off_c, 1, 87, 0
2, 6240, Note_off_c, 1, 42, 0
2, 6240, Note_on_c, 1, 44, 127
2, 6240, Note_off_c, 1, 52, 0
2, 6240, Note_on_c, 1, 56, 127
2, 6240, Note_off_c, 1, 59, 0
2, 6240, Note_off_c, 1, 64, 0
2, 6240, Note_on_c, 1, 78, 127
2, 6240, Note_on_c, 1, 80, 127
2, 6240, Note_on_c, 1, 84, 127
2, 6240, Note_on_c, 1, 87, 127
2, 6400, Note_off_c, 1, 44, 0
2, 6400, Note_off_c, 1, 56, 0
2, 6400, Note_off_c, 1, 78, 0
2, 6400, Note_off_c, 1, 80, 0
2, 6400, Note_off_c, 1, 84, 0
2, 6400, Note_off_c, 1, 87, 0
2, 6440, Note_on_c, 1, 44, 127
2, 6440, Note_on_c, 1, 56, 127
2, 6440, Note_on_c, 1, 78, 127
2, 6440, Note_on_c, 1, 80, 127
2, 6440, Note_on_c, 1, 84, 127
2, 6440, Note_on_c, 1, 87, 127
2, 6600, Note_off_c, 1, 44, 0
2, 6600, Note_off_c, 1, 56, 0
2, 6600, Note_off_c, 1, 78, 0
2, 6600, Note_off_c, 1, 80, 0
2, 6600, Note_off_c, 1, 84, 0
2, 6600, Note_off_c, 1, 87, 0
2, 6640, Note_on_c, 1, 36, 127
2, 6640, Note_on_c, 1, 48, 127
2, 6760, Note_off_c, 1, 36, 0
2, 6760, Note_off_c, 1, 48, 0
2, 6880, Note_on_c, 1, 36, 127
2, 6880, Note_on_c, 1, 48, 127
2, 6960, Note_off_c, 1, 36, 0
2, 6960, Note_off_c, 1, 48, 0
2, 7080, Note_on_c, 1, 35, 127
2, 7080, Note_on_c, 1, 47, 127
2, 7120, Note_off_c, 1, 35, 0
2, 7120, Note_on_c, 1, 36, 127
2, 7120, Note_off_c, 1, 47, 0
2, 7120, Note_on_c, 1, 48, 127
2, 7160, Note_off_c, 1, 36, 0
2, 7160, Note_off_c, 1, 48, 0
2, 7280, Note_on_c, 1, 41, 127
2, 7280, Note_on_c, 1, 53, 127
2, 7280, Note_on_c, 1, 57, 127
2, 7280, Note_on_c, 1, 60, 127
2, 7280, Note_on_c, 1, 65, 127
2, 7320, Note_off_c, 1, 41, 0
2, 7320, Note_off_c, 1, 53, 0
2, 7320, Note_off_c, 1, 57, 0
2, 7320, Note_off_c, 1, 60, 0
2, 7320, Note_off_c, 1, 65, 0
2, 7560, Note_on_c, 1, 44, 127
2, 7560, Note_on_c, 1, 56, 127
2, 7560, Note_on_c, 1, 60, 127
2, 7560, Note_on_c, 1, 72, 127
2, 7600, Note_off_c, 1, 44, 0
2, 7600, Note_off_c, 1, 56, 0
2, 7600, Note_off_c, 1, 60, 0
2, 7600, Note_off_c, 1, 72, 0
2, 7840, Note_on_c, 1, 55, 127
2, 7840, Note_on_c, 1, 62, 127
2, 7840, Note_on_c, 1, 65, 127
2, 7840, Note_on_c, 1, 77, 127
2, 7840, Note_on_c, 1, 86, 127
2, 7840, Note_on_c, 1, 89, 127
2, 8000, Note_on_c, 1, 60, 127
2, 8000, Note_off_c, 1, 62, 0
2, 8000, Note_on_c, 1, 64, 127
2, 8000, Note_off_c, 1, 65, 0
2, 8000, Note_on_c, 1, 76, 127
2, 8000, Note_off_c, 1, 77, 0
2, 8000, Note_on_c, 1, 84, 127
2, 8000, Note_off_c, 1, 86, 0
2, 8000, Note_on_c, 1, 88, 127
2, 8000, Note_off_c, 1, 89, 0
2, 8080, Note_off_c, 1, 55, 0
2, 8080, Note_off_c, 1, 60, 0
2, 8080, Note_off_c, 1, 64, 0
2, 8080, Note_off_c, 1, 76, 0
2, 8080, Note_off_c, 1, 84, 0
2, 8080, Note_off_c, 1, 88, 0
2, 8120, Note_on_c, 1, 55, 127
2, 8120, Note_on_c, 1, 60, 127
2, 8120, Note_on_c, 1, 64, 127
2, 8120, Note_on_c, 1, 76, 127
2, 8120, Note_on_c, 1, 84, 127
2, 8120, Note_on_c, 1, 88, 127
2, 8360, Note_off_c, 1, 55, 0
2, 8360, Note_off_c, 1, 60, 0
2, 8360, Note_off_c, 1, 64, 0
2, 8360, Note_off_c, 1, 76, 0
2, 8360, Note_off_c, 1, 84, 0
2, 8360, Note_off_c, 1, 88, 0
2, 8400, Note_on_c, 1, 55, 127
2, 8400, Note_on_c, 1, 60, 127
2, 8400, Note_on_c, 1, 64, 127
2, 8400, Note_on_c, 1, 76, 127
2, 8400, Note_on_c, 1, 84, 127
2, 8400, Note_on_c, 1, 88, 127
2, 8440, Note_off_c, 1, 55, 0
2, 8440, Note_off_c, 1, 60, 0
2, 8440, Note_off_c, 1, 64, 0
2, 8440, Note_off_c, 1, 76, 0
2, 8440, Note_off_c, 1, 84, 0
2, 8440, Note_off_c, 1, 88, 0
2, 8480, Note_on_c, 1, 57, 127
2, 8480, Note_on_c, 1, 60, 127
2, 8480, Note_on_c, 1, 72, 127
2, 8480, Note_on_c, 1, 81, 127
2, 8480, Note_on_c, 1, 84, 127
2, 8720, Note_off_c, 1, 57, 0
2, 8720, Note_off_c, 1, 60, 0
2, 8720, Note_off_c, 1, 72, 0
2, 8720, Note_off_c, 1, 81, 0
2, 8720, Note_off_c, 1, 84, 0
2, 8760, Note_on_c, 1, 57, 127
2, 8760, Note_on_c, 1, 60, 127
2, 8760, Note_on_c, 1, 72, 127
2, 8760, Note_on_c, 1, 81, 127
2, 8760, Note_on_c, 1, 84, 127
2, 8960, Note_off_c, 1, 57, 0
2, 8960, Note_off_c, 1, 60, 0
2, 8960, Note_off_c, 1, 72, 0
2, 8960, Note_off_c, 1, 81, 0
2, 8960, Note_off_c, 1, 84, 0
2, 9080, Note_on_c, 1, 57, 127
2, 9080, Note_on_c, 1, 60, 127
2, 9080, Note_on_c, 1, 72, 127
2, 9080, Note_on_c, 1, 81, 127
2, 9080, Note_on_c, 1, 84, 127
2, 9120, Note_off_c, 1, 57, 0
2, 9120, Note_off_c, 1, 60, 0
2, 9120, Note_off_c, 1, 72, 0
2, 9120, Note_off_c, 1, 81, 0
2, 9120, Note_off_c, 1, 84, 0
2, 9200, Note_on_c, 1, 57, 127
2, 9200, Note_on_c, 1, 60, 127
2, 9200, Note_on_c, 1, 72, 127
2, 9200, Note_on_c, 1, 81, 127
2, 9200, Note_on_c, 1, 84, 127
2, 9280, Note_off_c, 1, 57, 0
2, 9280, Note_off_c, 1, 60, 0
2, 9280, Note_off_c, 1, 72, 0
2, 9280, Note_off_c, 1, 81, 0
2, 9280, Note_off_c, 1, 84, 0
2, 9360, Note_on_c, 1, 57, 127
2, 9360, Note_on_c, 1, 60, 127
2, 9360, Note_on_c, 1, 72, 127
2, 9360, Note_on_c, 1, 81, 127
2, 9360, Note_on_c, 1, 84, 127
2, 9400, Note_off_c, 1, 57, 0
2, 9400, Note_off_c, 1, 60, 0
2, 9400, Note_off_c, 1, 72, 0
2, 9400, Note_off_c, 1, 81, 0
2, 9400, Note_off_c, 1, 84, 0
2, 9520, Note_on_c, 1, 57, 127
2, 9520, Note_on_c, 1, 60, 127
2, 9520, Note_on_c, 1, 72, 127
2, 9520, Note_on_c, 1, 81, 127
2, 9520, Note_on_c, 1, 84, 127
2, 9560, Note_off_c, 1, 57, 0
2, 9560, Note_off_c, 1, 60, 0
2, 9560, Note_off_c, 1, 72, 0
2, 9560, Note_off_c, 1, 81, 0
2, 9560, Note_off_c, 1, 84, 0
2, 9640, Note_on_c, 1, 53, 127
2, 9640, Note_on_c, 1, 57, 127
2, 9640, Note_on_c, 1, 59, 127
2, 9640, Note_on_c, 1, 62, 127
2, 9680, Note_off_c, 1, 53, 0
2, 9680, Note_off_c, 1, 57, 0
2, 9680, Note_off_c, 1, 59, 0
2, 9680, Note_off_c, 1, 62, 0
2, 9800, Note_on_c, 1, 38, 127
2, 9800, Note_on_c, 1, 50, 127
2, 9800, Note_on_c, 1, 83, 127
2, 9800, Note_on_c, 1, 95, 127
2, 9840, Note_off_c, 1, 38, 0
2, 9840, Note_off_c, 1, 50, 0
2, 9840, Note_off_c, 1, 83, 0
2, 9840, Note_off_c, 1, 95, 0
2, 9960, Note_on_c, 1, 36, 127
2, 9960, Note_on_c, 1, 48, 127
2, 9960, Note_on_c, 1, 84, 127
2, 9960, Note_on_c, 1, 96, 127
2, 10000, Note_off_c, 1, 36, 0
2, 10000, Note_off_c, 1, 48, 0
2, 10000, Note_off_c, 1, 84, 0
2, 10000, Note_off_c, 1, 96, 0
2, 10240, Note_on_c, 1, 46, 127
2, 10240, Note_on_c, 1, 58, 127
2, 10240, Note_on_c, 1, 74, 127
2, 10240, Note_on_c, 1, 82, 127
2, 10440, Note_off_c, 1, 46, 0
2, 10440, Note_off_c, 1, 58, 0
2, 10440, Note_off_c, 1, 74, 0
2, 10440, Note_off_c, 1, 82, 0
2, 10480, Note_on_c, 1, 46, 127
2, 10480, Note_on_c, 1, 58, 127
2, 10480, Note_on_c, 1, 74, 127
2, 10480, Note_on_c, 1, 82, 127
2, 10560, Note_off_c, 1, 46, 0
2, 10560, Note_off_c, 1, 58, 0
2, 10560, Note_off_c, 1, 74, 0
2, 10560, Note_off_c, 1, 82, 0
2, 10600, Note_on_c, 1, 41, 127
2, 10600, Note_on_c, 1, 53, 127
2, 10600, Note_on_c, 1, 60, 127
2, 10600, Note_on_c, 1, 70, 127
2, 10600, Note_on_c, 1, 72, 127
2, 10640, Note_on_c, 1, 40, 127
2, 10640, Note_off_c, 1, 41, 0
2, 10640, Note_on_c, 1, 52, 127
2, 10640, Note_off_c, 1, 53, 0
2, 10640, Note_off_c, 1, 60, 0
2, 10640, Note_off_c, 1, 70, 0
2, 10640, Note_off_c, 1, 72, 0
2, 10720, Note_off_c, 1, 40, 0
2, 10720, Note_on_c, 1, 41, 127
2, 10720, Note_off_c, 1, 52, 0
2, 10720, Note_on_c, 1, 53, 127
2, 10720, Note_on_c, 1, 60, 127
2, 10720, Note_on_c, 1, 70, 127
2, 10720, Note_on_c, 1, 72, 127
2, 10760, Note_on_c, 1, 40, 127
2, 10760, Note_off_c, 1, 41, 0
2, 10760, Note_on_c, 1, 52, 127
2, 10760, Note_off_c, 1, 53, 0
2, 10760, Note_off_c, 1, 60, 0
2, 10760, Note_off_c, 1, 70, 0
2, 10760, Note_off_c, 1, 72, 0
2, 10800, Note_on_c, 1, 67, 127
2, 10800, Note_on_c, 1, 69, 127
2, 10840, Note_off_c, 1, 40, 0
2, 10840, Note_off_c, 1, 52, 0
2, 10840, Note_off_c, 1, 67, 0
2, 10840, Note_off_c, 1, 69, 0
2, 10880, Note_on_c, 1, 36, 127
2, 10880, Note_on_c, 1, 48, 127
2, 10880, Note_on_c, 1, 63, 127
2, 10880, Note_on_c, 1, 67, 127
2, 10880, Note_on_c, 1, 72, 127
2, 10880, Note_on_c, 1, 75, 127
2, 11120, Note_off_c, 1, 36, 0
2, 11120, Note_off_c, 1, 48, 0
2, 11120, Note_off_c, 1, 63, 0
2, 11120, Note_off_c, 1, 67, 0
2, 11120, Note_off_c, 1, 72, 0
2, 11120, Note_off_c, 1, 75, 0
2, 11160, Note_on_c, 1, 36, 127
2, 11160, Note_on_c, 1, 48, 127
2, 11160, Note_on_c, 1, 68, 127
2, 11160, Note_on_c, 1, 75, 127
2, 11200, Note_off_c, 1, 36, 0
2, 11200, Note_off_c, 1, 48, 0
2, 11200, Note_off_c, 1, 68, 0
2, 11200, Note_off_c, 1, 75, 0
2, 11320, Note_on_c, 1, 41, 127
2, 11320, Note_on_c, 1, 53, 127
2, 11320, Note_on_c, 1, 65, 127
2, 11360, Note_off_c, 1, 41, 0
2, 11360, Note_off_c, 1, 53, 0
2, 11360, Note_off_c, 1, 65, 0
2, 11480, Note_on_c, 1, 41, 127
2, 11480, Note_on_c, 1, 53, 127
2, 11480, Note_on_c, 1, 57, 127
2, 11480, Note_on_c, 1, 60, 127
2, 11480, Note_on_c, 1, 65, 127
2, 11520, Note_on_c, 1, 32, 127
2, 11520, Note_off_c, 1, 41, 0
2, 11520, Note_on_c, 1, 44, 127
2, 11520, Note_on_c, 1, 51, 127
2, 11520, Note_off_c, 1, 53, 0
2, 11520, Note_off_c, 1, 57, 0
2, 11520, Note_off_c, 1, 60, 0
2, 11520, Note_on_c, 1, 63, 127
2, 11520, Note_off_c, 1, 65, 0
2, 11560, Note_off_c, 1, 32, 0
2, 11560, Note_on_c, 1, 41, 127
2, 11560, Note_off_c, 1, 44, 0
2, 11560, Note_off_c, 1, 51, 0
2, 11560, Note_on_c, 1, 53, 127
2, 11560, Note_on_c, 1, 57, 127
2, 11560, Note_on_c, 1, 60, 127
2, 11560, Note_off_c, 1, 63, 0
2, 11560, Note_on_c, 1, 65, 127
2, 11720, Note_off_c, 1, 41, 0
2, 11720, Note_off_c, 1, 53, 0
2, 11720, Note_off_c, 1, 57, 0
2, 11720, Note_off_c, 1, 60, 0
2, 11720, Note_off_c, 1, 65, 0
2, 11760, Note_on_c, 1, 59, 127
2, 11760, Note_on_c, 1, 62, 127
2, 11760, Note_on_c, 1, 65, 127
2, 11760, Note_on_c, 1, 70, 127
2, 11760, Note_on_c, 1, 91, 127
2, 11800, Note_on_c, 1, 53, 127
2, 11800, Note_on_c, 1, 58, 127
2, 11800, Note_off_c, 1, 59, 0
2, 11800, Note_on_c, 1, 61, 127
2, 11800, Note_off_c, 1, 62, 0
2, 11800, Note_on_c, 1, 64, 127
2, 11800, Note_off_c, 1, 65, 0
2, 11800, Note_off_c, 1, 70, 0
2, 11800, Note_on_c, 1, 92, 127
2, 11800, Note_on_c, 1, 94, 127
2, 11840, Note_off_c, 1, 58, 0
2, 11840, Note_on_c, 1, 59, 127
2, 11840, Note_off_c, 1, 64, 0
2, 11840, Note_on_c, 1, 77, 127
2, 11840, Note_on_c, 1, 89, 127
2, 11840, Note_off_c, 1, 91, 0
2, 11840, Note_off_c, 1, 92, 0
2, 11840, Note_off_c, 1, 94, 0
2, 11880, Note_on_c, 1, 47, 127
2, 11880, Note_on_c, 1, 50, 127
2, 11880, Note_off_c, 1, 53, 0
2, 11880, Note_on_c, 1, 55, 127
2, 11880, Note_off_c, 1, 61, 0
2, 11880, Note_on_c, 1, 62, 127
2, 11880, Note_on_c, 1, 74, 127
2, 11880, Note_off_c, 1, 77, 0
2, 11880, Note_off_c, 1, 89, 0
2, 11920, Note_off_c, 1, 47, 0
2, 11920, Note_off_c, 1, 59, 0
2, 11920, Note_off_c, 1, 62, 0
2, 11920, Note_on_c, 1, 69, 127
2, 11920, Note_on_c, 1, 72, 127
2, 11920, Note_off_c, 1, 74, 0
2, 11960, Note_on_c, 1, 29, 127
2, 11960, Note_on_c, 1, 34, 127
2, 11960, Note_on_c, 1, 37, 127
2, 11960, Note_on_c, 1, 41, 127
2, 11960, Note_off_c, 1, 50, 0
2, 11960, Note_on_c, 1, 53, 127
2, 11960, Note_off_c, 1, 55, 0
2, 11960, Note_on_c, 1, 58, 127
2, 11960, Note_on_c, 1, 61, 127
2, 11960, Note_on_c, 1, 65, 127
2, 11960, Note_off_c, 1, 69, 0
2, 11960, Note_off_c, 1, 72, 0
2, 12000, Note_off_c, 1, 29, 0
2, 12000, Note_off_c, 1, 34, 0
2, 12000, Note_off_c, 1, 37, 0
2, 12000, Note_off_c, 1, 41, 0
2, 12000, Note_off_c, 1, 53, 0
2, 12000, Note_off_c, 1, 58, 0
2, 12000, Note_off_c, 1, 61, 0
2, 12000, Note_off_c, 1, 65, 0
2, 12080, Note_on_c, 1, 49, 127
2, 12080, Note_on_c, 1, 58, 127
2, 12080, Note_on_c, 1, 65, 127
2, 12080, Note_on_c, 1, 68, 127
2, 12080, Note_on_c, 1, 72, 127
2, 12120, Note_off_c, 1, 72, 0
2, 12120, Note_on_c, 1, 73, 127
2, 12160, Note_off_c, 1, 73, 0
2, 12200, Note_on_c, 1, 72, 127
2, 12240, Note_off_c, 1, 72, 0
2, 12240, Note_on_c, 1, 73, 127
2, 12280, Note_on_c, 1, 72, 127
2, 12280, Note_off_c, 1, 73, 0
2, 12320, Note_off_c, 1, 49, 0
2, 12320, Note_off_c, 1, 58, 0
2, 12320, Note_off_c, 1, 65, 0
2, 12320, Note_off_c, 1, 68, 0
2, 12320, Note_off_c, 1, 72, 0
2, 12360, Note_on_c, 1, 58, 127
2, 12360, Note_on_c, 1, 62, 127
2, 12360, Note_on_c, 1, 65, 127
2, 12360, Note_on_c, 1, 70, 127
2, 12360, Note_on_c, 1, 74, 127
2, 12360, Note_on_c, 1, 77, 127
2, 12360, Note_on_c, 1, 82, 127
2, 12440, Note_off_c, 1, 58, 0
2, 12440, Note_off_c, 1, 62, 0
2, 12440, Note_off_c, 1, 65, 0
2, 12440, Note_off_c, 1, 70, 0
2, 12440, Note_off_c, 1, 74, 0
2, 12440, Note_off_c, 1, 77, 0
2, 12440, Note_off_c, 1, 82, 0
2, 12480, Note_on_c, 1, 58, 127
2, 12480, Note_on_c, 1, 62, 127
2, 12480, Note_on_c, 1, 65, 127
2, 12480, Note_on_c, 1, 70, 127
2, 12480, Note_on_c, 1, 74, 127
2, 12480, Note_on_c, 1, 77, 127
2, 12480, Note_on_c, 1, 82, 127
2, 12640, Note_off_c, 1, 58, 0
2, 12640, Note_off_c, 1, 62, 0
2, 12640, Note_off_c, 1, 65, 0
2, 12640, Note_off_c, 1, 70, 0
2, 12640, Note_off_c, 1, 74, 0
2, 12640, Note_off_c, 1, 77, 0
2, 12680, Note_on_c, 1, 58, 127
2, 12680, Note_on_c, 1, 62, 127
2, 12680, Note_on_c, 1, 65, 127
2, 12680, Note_on_c, 1, 70, 127
2, 12680, Note_on_c, 1, 74, 127
2, 12680, Note_on_c, 1, 77, 127
2, 12960, Note_off_c, 1, 58, 0
2, 12960, Note_off_c, 1, 62, 0
2, 12960, Note_off_c, 1, 65, 0
2, 12960, Note_off_c, 1, 70, 0
2, 12960, Note_off_c, 1, 74, 0
2, 12960, Note_off_c, 1, 77, 0
2, 12960, Note_off_c, 1, 82, 0
2, 13000, Note_on_c, 1, 58, 127
2, 13000, Note_on_c, 1, 62, 127
2, 13000, Note_on_c, 1, 65, 127
2, 13000, Note_on_c, 1, 70, 127
2, 13000, Note_on_c, 1, 74, 127
2, 13000, Note_on_c, 1, 77, 127
2, 13000, Note_on_c, 1, 82, 127
2, 13240, Note_off_c, 1, 58, 0
2, 13240, Note_off_c, 1, 62, 0
2, 13240, Note_off_c, 1, 65, 0
2, 13240, Note_off_c, 1, 70, 0
2, 13240, Note_off_c, 1, 74, 0
2, 13240, Note_off_c, 1, 77, 0
2, 13240, Note_off_c, 1, 82, 0
2, 13280, Note_on_c, 1, 58, 127
2, 13280, Note_on_c, 1, 62, 127
2, 13280, Note_on_c, 1, 65, 127
2, 13280, Note_on_c, 1, 70, 127
2, 13280, Note_on_c, 1, 74, 127
2, 13280, Note_on_c, 1, 77, 127
2, 13280, Note_on_c, 1, 82, 127
2, 13520, Note_off_c, 1, 58, 0
2, 13520, Note_off_c, 1, 62, 0
2, 13520, Note_off_c, 1, 65, 0
2, 13520, Note_off_c, 1, 70, 0
2, 13520, Note_off_c, 1, 74, 0
2, 13520, Note_off_c, 1, 77, 0
2, 13520, Note_off_c, 1, 82, 0
2, 13520, Note_on_c, 1, 84, 127
2, 13520, Note_on_c, 1, 86, 127
2, 13560, Note_on_c, 1, 58, 127
2, 13560, Note_on_c, 1, 62, 127
2, 13560, Note_on_c, 1, 65, 127
2, 13560, Note_on_c, 1, 70, 127
2, 13560, Note_on_c, 1, 74, 127
2, 13560, Note_on_c, 1, 77, 127
2, 13560, Note_on_c, 1, 82, 127
2, 13560, Note_off_c, 1, 84, 0
2, 13560, Note_off_c, 1, 86, 0
2, 13800, Note_off_c, 1, 58, 0
2, 13800, Note_off_c, 1, 62, 0
2, 13800, Note_off_c, 1, 65, 0
2, 13800, Note_off_c, 1, 70, 0
2, 13800, Note_off_c, 1, 74, 0
2, 13800, Note_off_c, 1, 77, 0
2, 13800, Note_off_c, 1, 82, 0
2, 13880, Note_on_c, 1, 58, 127
2, 13880, Note_on_c, 1, 62, 127
2, 13880, Note_on_c, 1, 65, 127
2, 13880, Note_on_c, 1, 70, 127
2, 13880, Note_on_c, 1, 74, 127
2, 13880, Note_on_c, 1, 77, 127
2, 13880, Note_on_c, 1, 82, 127
2, 14120, Note_off_c, 1, 58, 0
2, 14120, Note_off_c, 1, 62, 0
2, 14120, Note_off_c, 1, 65, 0
2, 14120, Note_off_c, 1, 70, 0
2, 14120, Note_off_c, 1, 74, 0
2, 14120, Note_off_c, 1, 77, 0
2, 14120, Note_off_c, 1, 82, 0
2, 14160, Note_on_c, 1, 58, 127
2, 14160, Note_on_c, 1, 62, 127
2, 14160, Note_on_c, 1, 65, 127
2, 14160, Note_on_c, 1, 70, 127
2, 14160, Note_on_c, 1, 74, 127
2, 14160, Note_on_c, 1, 77, 127
2, 14160, Note_on_c, 1, 82, 127
2, 14400, Note_off_c, 1, 58, 0
2, 14400, Note_off_c, 1, 62, 0
2, 14400, Note_off_c, 1, 65, 0
2, 14400, Note_off_c, 1, 70, 0
2, 14400, Note_off_c, 1, 74, 0
2, 14400, Note_off_c, 1, 77, 0
2, 14400, Note_off_c, 1, 82, 0
2, 14440, Note_on_c, 1, 58, 127
2, 14440, Note_on_c, 1, 62, 127
2, 14440, Note_on_c, 1, 65, 127
2, 14440, Note_on_c, 1, 70, 127
2, 14440, Note_on_c, 1, 74, 127
2, 14440, Note_on_c, 1, 77, 127
2, 14440, Note_on_c, 1, 82, 127
2, 14640, Note_off_c, 1, 58, 0
2, 14640, Note_off_c, 1, 62, 0
2, 14640, Note_off_c, 1, 65, 0
2, 14640, Note_off_c, 1, 70, 0
2, 14640, Note_off_c, 1, 74, 0
2, 14640, Note_off_c, 1, 77, 0
2, 14640, Note_off_c, 1, 82, 0
2, 14680, Note_on_c, 1, 58, 127
2, 14680, Note_on_c, 1, 62, 127
2, 14680, Note_on_c, 1, 65, 127
2, 14680, Note_on_c, 1, 70, 127
2, 14680, Note_on_c, 1, 74, 127
2, 14680, Note_on_c, 1, 77, 127
2, 14680, Note_on_c, 1, 82, 127
2, 15040, Note_off_c, 1, 58, 0
2, 15040, Note_off_c, 1, 62, 0
2, 15040, Note_off_c, 1, 65, 0
2, 15040, Note_off_c, 1, 70, 0
2, 15040, Note_off_c, 1, 74, 0
2, 15040, Note_off_c, 1, 77, 0
2, 15040, Note_off_c, 1, 82, 0
2, 15080, Note_on_c, 1, 58, 127
2, 15080, Note_on_c, 1, 62, 127
2, 15080, Note_on_c, 1, 65, 127
2, 15080, Note_on_c, 1, 70, 127
2, 15080, Note_on_c, 1, 74, 127
2, 15080, Note_on_c, 1, 77, 127
2, 15080, Note_on_c, 1, 82, 127
2, 15320, Note_off_c, 1, 58, 0
2, 15320, Note_off_c, 1, 62, 0
2, 15320, Note_off_c, 1, 65, 0
2, 15320, Note_off_c, 1, 70, 0
2, 15320, Note_off_c, 1, 74, 0
2, 15320, Note_off_c, 1, 77, 0
2, 15320, Note_off_c, 1, 82, 0
2, 15360, Note_on_c, 1, 58, 127
2, 15360, Note_on_c, 1, 62, 127
2, 15360, Note_on_c, 1, 65, 127
2, 15360, Note_on_c, 1, 70, 127
2, 15360, Note_on_c, 1, 74, 127
2, 15360, Note_on_c, 1, 77, 127
2, 15360, Note_on_c, 1, 82, 127
2, 15600, Note_off_c, 1, 58, 0
2, 15600, Note_off_c, 1, 62, 0
2, 15600, Note_off_c, 1, 65, 0
2, 15600, Note_off_c, 1, 70, 0
2, 15600, Note_off_c, 1, 74, 0
2, 15600, Note_off_c, 1, 77, 0
2, 15600, Note_off_c, 1, 82, 0
2, 15640, Note_on_c, 1, 58, 127
2, 15640, Note_on_c, 1, 62, 127
2, 15640, Note_on_c, 1, 65, 127
2, 15640, Note_on_c, 1, 70, 127
2, 15640, Note_on_c, 1, 74, 127
2, 15640, Note_on_c, 1, 77, 127
2, 15640, Note_on_c, 1, 82, 127
2, 15920, Note_off_c, 1, 58, 0
2, 15920, Note_off_c, 1, 62, 0
2, 15920, Note_off_c, 1, 65, 0
2, 15920, Note_off_c, 1, 70, 0
2, 15920, Note_off_c, 1, 74, 0
2, 15920, Note_off_c, 1, 77, 0
2, 15920, Note_off_c, 1, 82, 0
2, 15960, Note_on_c, 1, 58, 127
2, 15960, Note_on_c, 1, 62, 127
2, 15960, Note_on_c, 1, 65, 127
2, 15960, Note_on_c, 1, 70, 127
2, 15960, Note_on_c, 1, 74, 127
2, 15960, Note_on_c, 1, 77, 127
2, 15960, Note_on_c, 1, 82, 127
2, 16200, Note_off_c, 1, 58, 0
2, 16200, Note_off_c, 1, 62, 0
2, 16200, Note_off_c, 1, 65, 0
2, 16200, Note_off_c, 1, 70, 0
2, 16200, Note_off_c, 1, 74, 0
2, 16200, Note_off_c, 1, 77, 0
2, 16200, Note_off_c, 1, 82, 0
2, 16240, Note_on_c, 1, 58, 127
2, 16240, Note_on_c, 1, 62, 127
2, 16240, Note_on_c, 1, 65, 127
2, 16240, Note_on_c, 1, 70, 127
2, 16240, Note_on_c, 1, 74, 127
2, 16240, Note_on_c, 1, 77, 127
2, 16240, Note_on_c, 1, 82, 127
2, 16480, Note_off_c, 1, 58, 0
2, 16480, Note_off_c, 1, 62, 0
2, 16480, Note_off_c, 1, 65, 0
2, 16480, Note_off_c, 1, 70, 0
2, 16480, Note_off_c, 1, 74, 0
2, 16480, Note_off_c, 1, 77, 0
2, 16480, Note_off_c, 1, 82, 0
2, 16520, Note_on_c, 1, 58, 127
2, 16520, Note_on_c, 1, 62, 127
2, 16520, Note_on_c, 1, 65, 127
2, 16520, Note_on_c, 1, 70, 127
2, 16520, Note_on_c, 1, 74, 127
2, 16520, Note_on_c, 1, 77, 127
2, 16520, Note_on_c, 1, 82, 127
2, 16760, Note_off_c, 1, 58, 0
2, 16760, Note_off_c, 1, 62, 0
2, 16760, Note_off_c, 1, 65, 0
2, 16760, Note_off_c, 1, 70, 0
2, 16760, Note_off_c, 1, 74, 0
2, 16760, Note_off_c, 1, 77, 0
2, 16760, Note_off_c, 1, 82, 0
2, 16800, Note_on_c, 1, 58, 127
2, 16800, Note_on_c, 1, 62, 127
2, 16800, Note_on_c, 1, 65, 127
2, 16800, Note_on_c, 1, 70, 127
2, 16800, Note_on_c, 1, 74, 127
2, 16800, Note_on_c, 1, 77, 127
2, 16800, Note_on_c, 1, 82, 127
2, 17120, Note_off_c, 1, 58, 0
2, 17120, Note_off_c, 1, 62, 0
2, 17120, Note_off_c, 1, 65, 0
2, 17120, Note_off_c, 1, 70, 0
2, 17120, Note_off_c, 1, 74, 0
2, 17120, Note_off_c, 1, 77, 0
2, 17120, Note_off_c, 1, 82, 0
2, 17160, Note_on_c, 1, 58, 127
2, 17160, Note_on_c, 1, 62, 127
2, 17160, Note_on_c, 1, 65, 127
2, 17160, Note_on_c, 1, 70, 127
2, 17160, Note_on_c, 1, 74, 127
2, 17160, Note_on_c, 1, 77, 127
2, 17160, Note_on_c, 1, 82, 127
2, 17400, Note_off_c, 1, 58, 0
2, 17400, Note_off_c, 1, 62, 0
2, 17400, Note_off_c, 1, 65, 0
2, 17400, Note_off_c, 1, 70, 0
2, 17400, Note_off_c, 1, 74, 0
2, 17400, Note_off_c, 1, 77, 0
2, 17400, Note_off_c, 1, 82, 0
2, 17440, Note_on_c, 1, 58, 127
2, 17440, Note_on_c, 1, 62, 127
2, 17440, Note_on_c, 1, 65, 127
2, 17440, Note_on_c, 1, 70, 127
2, 17440, Note_on_c, 1, 74, 127
2, 17440, Note_on_c, 1, 77, 127
2, 17440, Note_on_c, 1, 82, 127
2, 17720, Note_off_c, 1, 58, 0
2, 17720, Note_off_c, 1, 62, 0
2, 17720, Note_off_c, 1, 65, 0
2, 17720, Note_off_c, 1, 70, 0
2, 17720, Note_off_c, 1, 74, 0
2, 17720, Note_off_c, 1, 77, 0
2, 17720, Note_off_c, 1, 82, 0
2, 17760, Note_on_c, 1, 58, 127
2, 17760, Note_on_c, 1, 62, 127
2, 17760, Note_on_c, 1, 65, 127
2, 17760, Note_on_c, 1, 70, 127
2, 17760, Note_on_c, 1, 74, 127
2, 17760, Note_on_c, 1, 77, 127
2, 17760, Note_on_c, 1, 82, 127
2, 18000, Note_off_c, 1, 58, 0
2, 18000, Note_off_c, 1, 62, 0
2, 18000, Note_off_c, 1, 65, 0
2, 18000, Note_off_c, 1, 70, 0
2, 18000, Note_off_c, 1, 74, 0
2, 18000, Note_off_c, 1, 77, 0
2, 18000, Note_off_c, 1, 82, 0
2, 18040, Note_on_c, 1, 58, 127
2, 18040, Note_on_c, 1, 62, 127
2, 18040, Note_on_c, 1, 65, 127
2, 18040, Note_on_c, 1, 70, 127
2, 18040, Note_on_c, 1, 74, 127
2, 18040, Note_on_c, 1, 77, 127
2, 18040, Note_on_c, 1, 82, 127
2, 18320, Note_off_c, 1, 58, 0
2, 18320, Note_off_c, 1, 62, 0
2, 18320, Note_off_c, 1, 65, 0
2, 18320, Note_off_c, 1, 70, 0
2, 18320, Note_off_c, 1, 74, 0
2, 18320, Note_off_c, 1, 77, 0
2, 18320, Note_off_c, 1, 82, 0
2, 18360, Note_on_c, 1, 33, 127
2, 18360, Note_on_c, 1, 45, 127
2, 18360, Note_on_c, 1, 86, 127
2, 18360, Note_on_c, 1, 90, 127
2, 18360, Note_on_c, 1, 93, 127
2, 18360, Note_on_c, 1, 98, 127
2, 18600, Note_off_c, 1, 33, 0
2, 18600, Note_off_c, 1, 45, 0
2, 18600, Note_off_c, 1, 86, 0
2, 18600, Note_off_c, 1, 90, 0
2, 18600, Note_off_c, 1, 93, 0
2, 18600, Note_off_c, 1, 98, 0
2, 18640, Note_on_c, 1, 33, 127
2, 18640, Note_on_c, 1, 45, 127
2, 18640, Note_on_c, 1, 86, 127
2, 18640, Note_on_c, 1, 90, 127
2, 18640, Note_on_c, 1, 93, 127
2, 18640, Note_on_c, 1, 98, 127
2, 18840, Note_off_c, 1, 33, 0
2, 18840, Note_off_c, 1, 45, 0
2, 18840, Note_off_c, 1, 86, 0
2, 18840, Note_off_c, 1, 90, 0
2, 18840, Note_off_c, 1, 93, 0
2, 18840, Note_off_c, 1, 98, 0
2, 18880, Note_on_c, 1, 33, 127
2, 18880, Note_on_c, 1, 45, 127
2, 18880, Note_on_c, 1, 86, 127
2, 18880, Note_on_c, 1, 90, 127
2, 18880, Note_on_c, 1, 93, 127
2, 18880, Note_on_c, 1, 98, 127
2, 18920, Note_off_c, 1, 33, 0
2, 18920, Note_off_c, 1, 45, 0
2, 18920, Note_off_c, 1, 86, 0
2, 18920, Note_off_c, 1, 90, 0
2, 18920, Note_off_c, 1, 93, 0
2, 18920, Note_off_c, 1, 98, 0
2, 18960, Note_on_c, 1, 33, 127
2, 18960, Note_on_c, 1, 45, 127
2, 18960, Note_on_c, 1, 86, 127
2, 18960, Note_on_c, 1, 90, 127
2, 18960, Note_on_c, 1, 93, 127
2, 18960, Note_on_c, 1, 98, 127
2, 19520, Note_off_c, 1, 33, 0
2, 19520, Note_off_c, 1, 45, 0
2, 19520, Note_off_c, 1, 86, 0
2, 19520, Note_off_c, 1, 90, 0
2, 19520, Note_off_c, 1, 93, 0
2, 19520, Note_off_c, 1, 98, 0
2, 19560, Note_on_c, 1, 39, 127
2, 19560, Note_on_c, 1, 42, 127
2, 19560, Note_on_c, 1, 51, 127
2, 19560, Note_on_c, 1, 69, 127
2, 19560, Note_on_c, 1, 72, 127
2, 19560, Note_on_c, 1, 81, 127
2, 19600, Note_off_c, 1, 39, 0
2, 19600, Note_off_c, 1, 42, 0
2, 19600, Note_off_c, 1, 51, 0
2, 19600, Note_off_c, 1, 69, 0
2, 19600, Note_off_c, 1, 72, 0
2, 19600, Note_off_c, 1, 81, 0
2, 19720, Note_on_c, 1, 39, 127
2, 19720, Note_on_c, 1, 42, 127
2, 19720, Note_on_c, 1, 51, 127
2, 19720, Note_on_c, 1, 69, 127
2, 19720, Note_on_c, 1, 72, 127
2, 19720, Note_on_c, 1, 81, 127
2, 19760, Note_off_c, 1, 39, 0
2, 19760, Note_off_c, 1, 42, 0
2, 19760, Note_off_c, 1, 51, 0
2, 19760, Note_off_c, 1, 69, 0
2, 19760, Note_off_c, 1, 72, 0
2, 19760, Note_off_c, 1, 81, 0
2, 19880, Note_on_c, 1, 52, 127
2, 19880, Note_on_c, 1, 60, 127
2, 19880, Note_on_c, 1, 64, 127
2, 19880, Note_on_c, 1, 67, 127
2, 19880, Note_on_c, 1, 72, 127
2, 19880, Note_on_c, 1, 79, 127
2, 20280, Note_off_c, 1, 52, 0
2, 20280, Note_off_c, 1, 60, 0
2, 20280, Note_off_c, 1, 64, 0
2, 20280, Note_off_c, 1, 67, 0
2, 20280, Note_off_c, 1, 72, 0
2, 20280, Note_off_c, 1, 79, 0
2, 20320, Note_on_c, 1, 50, 127
2, 20320, Note_on_c, 1, 55, 127
2, 20320, Note_on_c, 1, 65, 127
2, 20320, Note_on_c, 1, 71, 127
2, 20320, Note_on_c, 1, 77, 127
2, 20440, Note_off_c, 1, 50, 0
2, 20440, Note_off_c, 1, 55, 0
2, 20440, Note_off_c, 1, 65, 0
2, 20440, Note_off_c, 1, 71, 0
2, 20440, Note_off_c, 1, 77, 0
2, 20480, Note_on_c, 1, 48, 127
2, 20480, Note_on_c, 1, 55, 127
2, 20480, Note_on_c, 1, 64, 127
2, 20480, Note_on_c, 1, 72, 127
2, 20480, Note_on_c, 1, 76, 127
2, 20720, Note_off_c, 1, 48, 0
2, 20720, Note_off_c, 1, 55, 0
2, 20720, Note_off_c, 1, 64, 0
2, 20720, Note_off_c, 1, 72, 0
2, 20720, Note_off_c, 1, 76, 0
2, 20760, Note_on_c, 1, 43, 127
2, 20760, Note_on_c, 1, 55, 127
2, 20760, Note_on_c, 1, 62, 127
2, 20760, Note_on_c, 1, 71, 127
2, 20760, Note_on_c, 1, 74, 127
2, 20880, Note_off_c, 1, 43, 0
2, 20880, Note_off_c, 1, 55, 0
2, 20880, Note_off_c, 1, 62, 0
2, 20880, Note_off_c, 1, 71, 0
2, 20880, Note_off_c, 1, 74, 0
2, 20920, Note_on_c, 1, 43, 127
2, 20920, Note_on_c, 1, 55, 127
2, 20920, Note_on_c, 1, 62, 127
2, 20920, Note_on_c, 1, 71, 127
2, 20920, Note_on_c, 1, 74, 127
2, 21080, Note_off_c, 1, 43, 0
2, 21080, Note_off_c, 1, 55, 0
2, 21080, Note_off_c, 1, 62, 0
2, 21080, Note_off_c, 1, 71, 0
2, 21080, Note_off_c, 1, 74, 0
2, 21120, Note_on_c, 1, 42, 127
2, 21120, Note_on_c, 1, 54, 127
2, 21120, Note_on_c, 1, 69, 127
2, 21120, Note_on_c, 1, 72, 127
2, 21120, Note_on_c, 1, 75, 127
2, 21680, Note_off_c, 1, 42, 0
2, 21680, Note_off_c, 1, 54, 0
2, 21680, Note_off_c, 1, 69, 0
2, 21680, Note_off_c, 1, 72, 0
2, 21680, Note_off_c, 1, 75, 0
2, 21720, Note_on_c, 1, 39, 127
2, 21720, Note_on_c, 1, 51, 127
2, 21720, Note_on_c, 1, 72, 127
2, 21720, Note_on_c, 1, 78, 127
2, 21720, Note_on_c, 1, 84, 127
2, 21880, Note_off_c, 1, 39, 0
2, 21880, Note_off_c, 1, 51, 0
2, 21880, Note_off_c, 1, 72, 0
2, 21880, Note_off_c, 1, 78, 0
2, 21880, Note_off_c, 1, 84, 0
2, 21920, Note_on_c, 1, 34, 127
2, 21920, Note_on_c, 1, 46, 127
2, 21920, Note_on_c, 1, 49, 127
2, 21920, Note_on_c, 1, 61, 127
2, 22160, Note_off_c, 1, 34, 0
2, 22160, Note_off_c, 1, 46, 0
2, 22160, Note_off_c, 1, 49, 0
2, 22160, Note_off_c, 1, 61, 0
2, 22200, Note_on_c, 1, 49, 127
2, 22200, Note_on_c, 1, 53, 127
2, 22200, Note_on_c, 1, 61, 127
2, 22200, Note_on_c, 1, 68, 127
2, 22200, Note_on_c, 1, 73, 127
2, 22320, Note_off_c, 1, 53, 0
2, 22480, Note_off_c, 1, 49, 0
2, 22480, Note_off_c, 1, 61, 0
2, 22480, Note_off_c, 1, 68, 0
2, 22480, Note_off_c, 1, 73, 0
2, 22520, Note_on_c, 1, 40, 127
2, 22520, Note_on_c, 1, 47, 127
2, 22520, Note_on_c, 1, 52, 127
2, 22520, Note_on_c, 1, 64, 127
2, 22520, Note_on_c, 1, 68, 127
2, 22520, Note_on_c, 1, 71, 127
2, 22520, Note_on_c, 1, 76, 127
2, 22720, Note_off_c, 1, 40, 0
2, 22720, Note_off_c, 1, 47, 0
2, 22720, Note_off_c, 1, 52, 0
2, 22720, Note_off_c, 1, 64, 0
2, 22720, Note_off_c, 1, 68, 0
2, 22720, Note_off_c, 1, 71, 0
2, 22720, Note_off_c, 1, 76, 0
2, 22760, Note_on_c, 1, 40, 127
2, 22760, Note_on_c, 1, 47, 127
2, 22760, Note_on_c, 1, 52, 127
2, 22760, Note_on_c, 1, 64, 127
2, 22760, Note_on_c, 1, 68, 127
2, 22760, Note_on_c, 1, 71, 127
2, 22760, Note_on_c, 1, 76, 127
2, 22800, Note_off_c, 1, 40, 0
2, 22800, Note_off_c, 1, 47, 0
2, 22800, Note_off_c, 1, 52, 0
2, 22800, Note_off_c, 1, 64, 0
2, 22800, Note_off_c, 1, 68, 0
2, 22800, Note_off_c, 1, 71, 0
2, 22800, Note_off_c, 1, 76, 0
2, 22840, Note_on_c, 1, 41, 127
2, 22840, Note_on_c, 1, 48, 127
2, 22840, Note_on_c, 1, 61, 127
2, 22880, Note_off_c, 1, 61, 0
2, 22920, Note_on_c, 1, 63, 127
2, 22960, Note_off_c, 1, 63, 0
2, 23000, Note_on_c, 1, 31, 127
2, 23000, Note_off_c, 1, 41, 0
2, 23000, Note_on_c, 1, 43, 127
2, 23000, Note_off_c, 1, 48, 0
2, 23000, Note_on_c, 1, 52, 127
2, 23000, Note_on_c, 1, 64, 127
2, 23040, Note_off_c, 1, 31, 0
2, 23040, Note_on_c, 1, 41, 127
2, 23040, Note_off_c, 1, 43, 0
2, 23040, Note_on_c, 1, 48, 127
2, 23040, Note_off_c, 1, 52, 0
2, 23040, Note_off_c, 1, 64, 0
2, 23080, Note_off_c, 1, 41, 0
2, 23080, Note_off_c, 1, 48, 0
2, 23080, Note_on_c, 1, 65, 127
2, 23080, Note_on_c, 1, 74, 127
2, 23080, Note_on_c, 1, 77, 127
2, 23080, Note_on_c, 1, 86, 127
2, 23080, Note_on_c, 1, 89, 127
2, 23120, Note_off_c, 1, 65, 0
2, 23120, Note_off_c, 1, 74, 0
2, 23120, Note_off_c, 1, 77, 0
2, 23120, Note_off_c, 1, 86, 0
2, 23120, Note_off_c, 1, 89, 0
2, 23160, Note_on_c, 1, 41, 127
2, 23160, Note_on_c, 1, 51, 127
2, 23160, Note_on_c, 1, 62, 127
2, 23400, Note_off_c, 1, 41, 0
2, 23400, Note_off_c, 1, 51, 0
2, 23400, Note_off_c, 1, 62, 0
2, 23440, Note_on_c, 1, 37, 127
2, 23440, Note_on_c, 1, 49, 127
2, 23440, Note_on_c, 1, 68, 127
2, 23440, Note_on_c, 1, 71, 127
2, 23440, Note_on_c, 1, 77, 127
2, 23440, Note_on_c, 1, 80, 127
2, 23560, Note_on_c, 1, 30, 127
2, 23560, Note_off_c, 1, 37, 0
2, 23560, Note_on_c, 1, 42, 127
2, 23560, Note_off_c, 1, 49, 0
2, 23560, Note_on_c, 1, 66, 127
2, 23560, Note_off_c, 1, 68, 0
2, 23560, Note_on_c, 1, 70, 127
2, 23560, Note_off_c, 1, 71, 0
2, 23560, Note_on_c, 1, 73, 127
2, 23560, Note_off_c, 1, 77, 0
2, 23560, Note_on_c, 1, 78, 127
2, 23560, Note_off_c, 1, 80, 0
2, 23680, Note_off_c, 1, 30, 0
2, 23680, Note_off_c, 1, 42, 0
2, 23680, Note_off_c, 1, 66, 0
2, 23680, Note_off_c, 1, 70, 0
2, 23680, Note_off_c, 1, 73, 0
2, 23680, Note_off_c, 1, 78, 0
2, 23720, Note_on_c, 1, 37, 127
2, 23720, Note_on_c, 1, 49, 127
2, 23720, Note_on_c, 1, 68, 127
2, 23720, Note_on_c, 1, 77, 127
2, 23720, Note_on_c, 1, 80, 127
2, 23880, Note_off_c, 1, 68, 0
2, 23880, Note_off_c, 1, 77, 0
2, 23880, Note_off_c, 1, 80, 0
2, 23920, Note_on_c, 1, 68, 127
2, 23920, Note_on_c, 1, 77, 127
2, 23920, Note_on_c, 1, 80, 127
2, 24160, Note_off_c, 1, 37, 0
2, 24160, Note_off_c, 1, 49, 0
2, 24160, Note_off_c, 1, 68, 0
2, 24160, Note_off_c, 1, 77, 0
2, 24160, Note_off_c, 1, 80, 0
2, 24200, Note_on_c, 1, 54, 127
2, 24200, Note_on_c, 1, 58, 127
2, 24200, Note_on_c, 1, 61, 127
2, 24200, Note_on_c, 1, 66, 127
2, 24200, Note_on_c, 1, 70, 127
2, 24200, Note_on_c, 1, 73, 127
2, 24200, Note_on_c, 1, 78, 127
2, 24200, Note_on_c, 1, 82, 127
2, 24480, Note_off_c, 1, 58, 0
2, 24480, Note_on_c, 1, 64, 127
2, 24480, Note_off_c, 1, 66, 0
2, 24480, Note_off_c, 1, 73, 0
2, 24480, Note_on_c, 1, 76, 127
2, 24480, Note_off_c, 1, 78, 0
2, 24480, Note_off_c, 1, 82, 0
2, 24520, Note_on_c, 1, 58, 127
2, 24520, Note_off_c, 1, 64, 0
2, 24520, Note_on_c, 1, 66, 127
2, 24520, Note_on_c, 1, 73, 127
2, 24520, Note_off_c, 1, 76, 0
2, 24520, Note_on_c, 1, 78, 127
2, 24520, Note_on_c, 1, 82, 127
2, 24600, Note_off_c, 1, 54, 0
2, 24600, Note_off_c, 1, 58, 0
2, 24600, Note_off_c, 1, 61, 0
2, 24600, Note_off_c, 1, 66, 0
2, 24600, Note_off_c, 1, 70, 0
2, 24600, Note_off_c, 1, 73, 0
2, 24600, Note_off_c, 1, 78, 0
2, 24600, Note_off_c, 1, 82, 0
2, 24640, Note_on_c, 1, 54, 127
2, 24640, Note_on_c, 1, 58, 127
2, 24640, Note_on_c, 1, 61, 127
2, 24640, Note_on_c, 1, 66, 127
2, 24640, Note_on_c, 1, 70, 127
2, 24640, Note_on_c, 1, 73, 127
2, 24640, Note_on_c, 1, 78, 127
2, 24640, Note_on_c, 1, 82, 127
2, 24680, Note_off_c, 1, 54, 0
2, 24680, Note_off_c, 1, 58, 0
2, 24680, Note_off_c, 1, 61, 0
2, 24680, Note_off_c, 1, 66, 0
2, 24680, Note_off_c, 1, 70, 0
2, 24680, Note_off_c, 1, 73, 0
2, 24680, Note_off_c, 1, 78, 0
2, 24680, Note_off_c, 1, 82, 0
2, 24800, Note_on_c, 1, 50, 127
2, 24800, Note_on_c, 1, 53, 127
2, 24800, Note_on_c, 1, 56, 127
2, 24800, Note_on_c, 1, 58, 127
2, 24800, Note_on_c, 1, 79, 127
2, 24840, Note_off_c, 1, 50, 0
2, 24840, Note_off_c, 1, 53, 0
2, 24840, Note_off_c, 1, 56, 0
2, 24840, Note_off_c, 1, 58, 0
2, 24840, Note_off_c, 1, 79, 0
2, 25000, Note_on_c, 1, 39, 127
2, 25000, Note_on_c, 1, 46, 127
2, 25000, Note_on_c, 1, 56, 127
2, 25000, Note_on_c, 1, 58, 127
2, 25000, Note_on_c, 1, 65, 127
2, 25160, Note_off_c, 1, 39, 0
2, 25160, Note_off_c, 1, 46, 0
2, 25160, Note_off_c, 1, 56, 0
2, 25160, Note_off_c, 1, 58, 0
2, 25160, Note_off_c, 1, 65, 0
2, 25280, Note_on_c, 1, 43, 127
2, 25280, Note_on_c, 1, 55, 127
2, 25280, Note_on_c, 1, 67, 127
2, 25280, Note_on_c, 1, 79, 127
2, 25520, Note_off_c, 1, 43, 0
2, 25520, Note_off_c, 1, 55, 0
2, 25520, Note_off_c, 1, 67, 0
2, 25520, Note_off_c, 1, 79, 0
2, 25560, Note_on_c, 1, 41, 127
2, 25560, Note_on_c, 1, 53, 127
2, 25560, Note_on_c, 1, 65, 127
2, 25560, Note_on_c, 1, 77, 127
2, 25800, Note_off_c, 1, 41, 0
2, 25800, Note_off_c, 1, 53, 0
2, 25800, Note_off_c, 1, 65, 0
2, 25800, Note_off_c, 1, 77, 0
2, 25840, Note_on_c, 1, 43, 127
2, 25840, Note_on_c, 1, 55, 127
2, 25840, Note_on_c, 1, 67, 127
2, 25840, Note_on_c, 1, 79, 127
2, 26520, Note_off_c, 1, 43, 0
2, 26520, Note_off_c, 1, 55, 0
2, 26520, Note_off_c, 1, 67, 0
2, 26520, Note_off_c, 1, 79, 0
2, 26560, Note_on_c, 1, 43, 127
2, 26560, Note_on_c, 1, 55, 127
2, 26560, Note_on_c, 1, 67, 127
2, 26560, Note_on_c, 1, 79, 127
2, 26800, Note_off_c, 1, 43, 0
2, 26800, Note_off_c, 1, 55, 0
2, 26800, Note_off_c, 1, 67, 0
2, 26800, Note_off_c, 1, 79, 0
2, 26880, Note_on_c, 1, 43, 127
2, 26880, Note_on_c, 1, 55, 127
2, 26880, Note_on_c, 1, 67, 127
2, 26880, Note_on_c, 1, 79, 127
2, 27120, Note_off_c, 1, 43, 0
2, 27120, Note_off_c, 1, 55, 0
2, 27120, Note_off_c, 1, 67, 0
2, 27120, Note_off_c, 1, 79, 0
2, 27160, Note_on_c, 1, 44, 127
2, 27160, Note_on_c, 1, 56, 127
2, 27160, Note_on_c, 1, 68, 127
2, 27160, Note_on_c, 1, 80, 127
2, 27320, Note_off_c, 1, 44, 0
2, 27320, Note_off_c, 1, 56, 0
2, 27320, Note_off_c, 1, 68, 0
2, 27320, Note_off_c, 1, 80, 0
2, 27360, Note_on_c, 1, 46, 127
2, 27360, Note_on_c, 1, 58, 127
2, 27360, Note_on_c, 1, 70, 127
2, 27360, Note_on_c, 1, 82, 127
2, 27520, Note_off_c, 1, 46, 0
2, 27520, Note_off_c, 1, 58, 0
2, 27520, Note_off_c, 1, 70, 0
2, 27520, Note_off_c, 1, 82, 0
2, 27560, Note_on_c, 1, 46, 127
2, 27560, Note_on_c, 1, 58, 127
2, 27560, Note_on_c, 1, 70, 127
2, 27560, Note_on_c, 1, 82, 127
2, 27760, Note_off_c, 1, 46, 0
2, 27760, Note_off_c, 1, 58, 0
2, 27760, Note_off_c, 1, 70, 0
2, 27760, Note_off_c, 1, 82, 0
2, 27800, Note_on_c, 1, 45, 127
2, 27800, Note_on_c, 1, 57, 127
2, 27800, Note_on_c, 1, 69, 127
2, 27800, Note_on_c, 1, 81, 127
2, 28800, Note_off_c, 1, 45, 0
2, 28800, Note_off_c, 1, 57, 0
2, 28800, Note_off_c, 1, 69, 0
2, 28800, Note_off_c, 1, 81, 0
2, 28840, Note_on_c, 1, 45, 127
2, 28840, Note_on_c, 1, 57, 127
2, 28840, Note_on_c, 1, 69, 127
2, 28840, Note_on_c, 1, 81, 127
2, 31120, Note_off_c, 1, 45, 0
2, 31120, Note_off_c, 1, 57, 0
2, 31120, Note_off_c, 1, 69, 0
2, 31120, Note_off_c, 1, 81, 0
2, 31160, Note_on_c, 1, 45, 127
2, 31160, Note_on_c, 1, 57, 127
2, 31160, Note_on_c, 1, 69, 127
2, 31160, Note_on_c, 1, 81, 127
2, 31600, Note_off_c, 1, 45, 0
2, 31600, Note_off_c, 1, 57, 0
2, 31600, Note_off_c, 1, 69, 0
2, 31600, Note_off_c, 1, 81, 0
2, 31640, Note_on_c, 1, 45, 127
2, 31640, Note_on_c, 1, 57, 127
2, 31640, Note_on_c, 1, 69, 127
2, 31640, Note_on_c, 1, 81, 127
2, 32800, Note_off_c, 1, 45, 0
2, 32800, Note_off_c, 1, 57, 0
2, 32800, Note_off_c, 1, 69, 0
2, 32800, Note_off_c, 1, 81, 0
2, 32840, Note_on_c, 1, 45, 127
2, 32840, Note_on_c, 1, 57, 127
2, 32840, Note_on_c, 1, 69, 127
2, 32840, Note_on_c, 1, 81, 127
2, 33240, Note_off_c, 1, 45, 0
2, 33240, Note_off_c, 1, 57, 0
2, 33240, Note_off_c, 1, 69, 0
2, 33240, Note_off_c, 1, 81, 0
2, 33280, Note_on_c, 1, 45, 127
2, 33280, Note_on_c, 1, 57, 127
2, 33280, Note_on_c, 1, 69, 127
2, 33280, Note_on_c, 1, 81, 127
2, 33640, Note_off_c, 1, 45, 0
2, 33640, Note_off_c, 1, 57, 0
2, 33640, Note_off_c, 1, 69, 0
2, 33640, Note_off_c, 1, 81, 0
2, 33680, Note_on_c, 1, 43, 127
2, 33680, Note_on_c, 1, 55, 127
2, 33680, Note_on_c, 1, 67, 127
2, 33680, Note_on_c, 1, 79, 127
2, 34640, Note_off_c, 1, 67, 0
2, 34640, Note_off_c, 1, 79, 0
2, 34680, Note_on_c, 1, 62, 127
2, 34680, Note_on_c, 1, 71, 127
2, 34840, Note_off_c, 1, 43, 0
2, 34840, Note_on_c, 1, 45, 127
2, 34840, Note_off_c, 1, 55, 0
2, 34840, Note_on_c, 1, 57, 127
2, 34840, Note_off_c, 1, 62, 0
2, 34840, Note_off_c, 1, 71, 0
2, 34840, Note_on_c, 1, 73, 127
2, 34840, Note_on_c, 1, 79, 127
2, 34880, Note_off_c, 1, 45, 0
2, 34880, Note_off_c, 1, 57, 0
2, 34880, Note_on_c, 1, 62, 127
2, 34880, Note_off_c, 1, 73, 0
2, 34880, Note_on_c, 1, 74, 127
2, 34880, Note_off_c, 1, 79, 0
2, 35480, Note_off_c, 1, 62, 0
2, 35480, Note_off_c, 1, 74, 0
2, 35560, Note_on_c, 1, 62, 127
2, 35560, Note_on_c, 1, 74, 127
2, 35880, Note_off_c, 1, 62, 0
2, 35880, Note_off_c, 1, 74, 0
2, 35920, Note_on_c, 1, 61, 127
2, 35920, Note_on_c, 1, 73, 127
2, 36120, Note_off_c, 1, 61, 0
2, 36120, Note_off_c, 1, 73, 0
2, 36160, Note_on_c, 1, 59, 127
2, 36160, Note_on_c, 1, 71, 127
2, 36520, Note_off_c, 1, 59, 0
2, 36520, Note_off_c, 1, 71, 0
2, 36560, Note_on_c, 1, 62, 127
2, 36560, Note_on_c, 1, 74, 127
2, 36920, Note_off_c, 1, 62, 0
2, 36920, Note_off_c, 1, 74, 0
2, 36960, Note_on_c, 1, 61, 127
2, 36960, Note_on_c, 1, 73, 127
2, 37120, Note_off_c, 1, 61, 0
2, 37120, Note_off_c, 1, 73, 0
2, 37160, Note_on_c, 1, 62, 127
2, 37160, Note_on_c, 1, 74, 127
2, 37400, Note_off_c, 1, 62, 0
2, 37400, Note_off_c, 1, 74, 0
2, 37440, Note_on_c, 1, 63, 127
2, 37440, Note_on_c, 1, 75, 127
2, 37560, Note_off_c, 1, 63, 0
2, 37560, Note_off_c, 1, 75, 0
2, 37640, Note_on_c, 1, 59, 127
2, 37640, Note_on_c, 1, 71, 127
2, 38400, Note_off_c, 1, 59, 0
2, 38400, Note_off_c, 1, 71, 0
2, 38440, Note_on_c, 1, 57, 127
2, 38440, Note_on_c, 1, 69, 127
2, 38880, Note_off_c, 1, 57, 0
2, 38880, Note_off_c, 1, 69, 0
2, 38920, Note_on_c, 1, 59, 127
2, 38920, Note_on_c, 1, 71, 127
2, 39480, Note_off_c, 1, 59, 0
2, 39480, Note_off_c, 1, 71, 0
2, 39520, Note_on_c, 1, 38, 127
2, 39520, Note_on_c, 1, 50, 127
2, 39520, Note_on_c, 1, 64, 127
2, 39520, Note_on_c, 1, 68, 127
2, 39520, Note_on_c, 1, 71, 127
2, 39840, Note_off_c, 1, 38, 0
2, 39840, Note_off_c, 1, 50, 0
2, 39840, Note_off_c, 1, 64, 0
2, 39840, Note_off_c, 1, 68, 0
2, 39840, Note_off_c, 1, 71, 0
2, 39880, Note_on_c, 1, 38, 127
2, 39880, Note_on_c, 1, 50, 127
2, 39880, Note_on_c, 1, 64, 127
2, 39880, Note_on_c, 1, 68, 127
2, 39880, Note_on_c, 1, 71, 127
2, 40320, Note_off_c, 1, 38, 0
2, 40320, Note_off_c, 1, 50, 0
2, 40320, Note_off_c, 1, 64, 0
2, 40320, Note_off_c, 1, 68, 0
2, 40320, Note_off_c, 1, 71, 0
2, 40360, Note_on_c, 1, 37, 127
2, 40360, Note_on_c, 1, 49, 127
2, 40360, Note_on_c, 1, 64, 127
2, 40360, Note_on_c, 1, 69, 127
2, 40360, Note_on_c, 1, 73, 127
2, 40720, Note_off_c, 1, 37, 0
2, 40720, Note_off_c, 1, 49, 0
2, 40720, Note_off_c, 1, 64, 0
2, 40720, Note_off_c, 1, 69, 0
2, 40720, Note_off_c, 1, 73, 0
2, 40760, Note_on_c, 1, 35, 127
2, 40760, Note_on_c, 1, 47, 127
2, 40760, Note_on_c, 1, 64, 127
2, 40760, Note_on_c, 1, 71, 127
2, 40760, Note_on_c, 1, 74, 127
2, 40920, Note_off_c, 1, 35, 0
2, 40920, Note_off_c, 1, 47, 0
2, 40920, Note_off_c, 1, 64, 0
2, 40920, Note_off_c, 1, 71, 0
2, 40920, Note_off_c, 1, 74, 0
2, 40960, Note_on_c, 1, 35, 127
2, 40960, Note_on_c, 1, 47, 127
2, 40960, Note_on_c, 1, 64, 127
2, 40960, Note_on_c, 1, 71, 127
2, 40960, Note_on_c, 1, 74, 127
2, 41120, Note_off_c, 1, 35, 0
2, 41120, Note_off_c, 1, 47, 0
2, 41120, Note_off_c, 1, 64, 0
2, 41120, Note_off_c, 1, 71, 0
2, 41120, Note_off_c, 1, 74, 0
2, 41160, Note_on_c, 1, 37, 127
2, 41160, Note_on_c, 1, 49, 127
2, 41160, Note_on_c, 1, 64, 127
2, 41160, Note_on_c, 1, 69, 127
2, 41160, Note_on_c, 1, 73, 127
2, 41520, Note_off_c, 1, 37, 0
2, 41520, Note_off_c, 1, 49, 0
2, 41520, Note_off_c, 1, 64, 0
2, 41520, Note_off_c, 1, 69, 0
2, 41520, Note_off_c, 1, 73, 0
2, 41560, Note_on_c, 1, 40, 127
2, 41560, Note_on_c, 1, 52, 127
2, 41560, Note_on_c, 1, 69, 127
2, 41560, Note_on_c, 1, 76, 127
2, 41720, Note_off_c, 1, 40, 0
2, 41720, Note_off_c, 1, 52, 0
2, 41720, Note_off_c, 1, 69, 0
2, 41720, Note_off_c, 1, 76, 0
2, 41760, Note_on_c, 1, 40, 127
2, 41760, Note_on_c, 1, 52, 127
2, 41760, Note_on_c, 1, 69, 127
2, 41760, Note_on_c, 1, 76, 127
2, 41960, Note_off_c, 1, 40, 0
2, 41960, Note_off_c, 1, 52, 0
2, 41960, Note_off_c, 1, 69, 0
2, 41960, Note_off_c, 1, 76, 0
2, 42000, Note_on_c, 1, 35, 127
2, 42000, Note_on_c, 1, 47, 127
2, 42000, Note_on_c, 1, 55, 127
2, 42000, Note_on_c, 1, 62, 127
2, 42000, Note_on_c, 1, 67, 127
2, 42320, Note_off_c, 1, 67, 0
2, 42360, Note_off_c, 1, 35, 0
2, 42360, Note_off_c, 1, 47, 0
2, 42360, Note_off_c, 1, 55, 0
2, 42360, Note_off_c, 1, 62, 0
2, 42400, Note_on_c, 1, 35, 127
2, 42400, Note_on_c, 1, 47, 127
2, 42400, Note_on_c, 1, 55, 127
2, 42400, Note_on_c, 1, 62, 127
2, 42400, Note_on_c, 1, 67, 127
2, 42560, Note_off_c, 1, 55, 0
2, 42560, Note_off_c, 1, 62, 0
2, 42560, Note_off_c, 1, 67, 0
2, 42600, Note_on_c, 1, 55, 127
2, 42600, Note_on_c, 1, 62, 127
2, 42600, Note_on_c, 1, 65, 127
2, 42760, Note_off_c, 1, 35, 0
2, 42760, Note_off_c, 1, 47, 0
2, 42760, Note_off_c, 1, 55, 0
2, 42760, Note_off_c, 1, 62, 0
2, 42760, Note_off_c, 1, 65, 0
2, 42800, Note_on_c, 1, 43, 127
2, 42800, Note_on_c, 1, 55, 127
2, 42800, Note_on_c, 1, 71, 127
2, 42800, Note_on_c, 1, 74, 127
2, 42800, Note_on_c, 1, 79, 127
2, 42800, Note_on_c, 1, 83, 127
2, 43160, Note_off_c, 1, 43, 0
2, 43160, Note_off_c, 1, 55, 0
2, 43160, Note_off_c, 1, 71, 0
2, 43160, Note_off_c, 1, 74, 0
2, 43160, Note_off_c, 1, 79, 0
2, 43160, Note_off_c, 1, 83, 0
2, 43200, Note_on_c, 1, 43, 127
2, 43200, Note_on_c, 1, 55, 127
2, 43200, Note_on_c, 1, 71, 127
2, 43200, Note_on_c, 1, 74, 127
2, 43200, Note_on_c, 1, 79, 127
2, 43200, Note_on_c, 1, 83, 127
2, 43440, Note_off_c, 1, 43, 0
2, 43440, Note_off_c, 1, 55, 0
2, 43440, Note_off_c, 1, 71, 0
2, 43440, Note_off_c, 1, 74, 0
2, 43440, Note_off_c, 1, 79, 0
2, 43440, Note_off_c, 1, 83, 0
2, 43480, Note_on_c, 1, 36, 127
2, 43480, Note_on_c, 1, 48, 127
2, 43480, Note_on_c, 1, 69, 127
2, 43480, Note_on_c, 1, 76, 127
2, 43480, Note_on_c, 1, 79, 127
2, 43480, Note_on_c, 1, 81, 127
2, 43520, Note_off_c, 1, 36, 0
2, 43520, Note_off_c, 1, 48, 0
2, 43520, Note_off_c, 1, 69, 0
2, 43520, Note_off_c, 1, 76, 0
2, 43520, Note_off_c, 1, 79, 0
2, 43520, Note_off_c, 1, 81, 0
2, 43640, Note_on_c, 1, 43, 127
2, 43640, Note_on_c, 1, 50, 127
2, 43640, Note_on_c, 1, 55, 127
2, 43640, Note_on_c, 1, 71, 127
2, 43640, Note_on_c, 1, 74, 127
2, 43640, Note_on_c, 1, 79, 127
2, 43640, Note_on_c, 1, 83, 127
2, 44000, Note_off_c, 1, 43, 0
2, 44000, Note_off_c, 1, 50, 0
2, 44000, Note_off_c, 1, 55, 0
2, 44000, Note_off_c, 1, 71, 0
2, 44000, Note_off_c, 1, 74, 0
2, 44000, Note_off_c, 1, 79, 0
2, 44000, Note_off_c, 1, 83, 0
2, 44040, Note_on_c, 1, 38, 127
2, 44040, Note_on_c, 1, 50, 127
2, 44040, Note_on_c, 1, 69, 127
2, 44040, Note_on_c, 1, 72, 127
2, 44040, Note_on_c, 1, 78, 127
2, 44040, Note_on_c, 1, 81, 127
2, 44280, Note_off_c, 1, 38, 0
2, 44280, Note_off_c, 1, 50, 0
2, 44280, Note_off_c, 1, 69, 0
2, 44280, Note_off_c, 1, 72, 0
2, 44280, Note_off_c, 1, 78, 0
2, 44280, Note_off_c, 1, 81, 0
2, 44320, Note_on_c, 1, 31, 127
2, 44320, Note_on_c, 1, 43, 127
2, 44320, Note_on_c, 1, 67, 127
2, 44320, Note_on_c, 1, 71, 127
2, 44320, Note_on_c, 1, 74, 127
2, 44320, Note_on_c, 1, 79, 127
2, 44360, Note_off_c, 1, 31, 0
2, 44360, Note_off_c, 1, 43, 0
2, 44360, Note_off_c, 1, 67, 0
2, 44360, Note_off_c, 1, 71, 0
2, 44360, Note_off_c, 1, 74, 0
2, 44360, Note_off_c, 1, 79, 0
2, 44440, Note_on_c, 1, 31, 127
2, 44440, Note_on_c, 1, 43, 127
2, 44440, Note_on_c, 1, 67, 127
2, 44440, Note_on_c, 1, 71, 127
2, 44440, Note_on_c, 1, 74, 127
2, 44440, Note_on_c, 1, 79, 127
2, 44680, Note_off_c, 1, 31, 0
2, 44680, Note_off_c, 1, 43, 0
2, 44680, Note_off_c, 1, 67, 0
2, 44680, Note_off_c, 1, 71, 0
2, 44680, Note_off_c, 1, 74, 0
2, 44680, Note_off_c, 1, 79, 0
2, 44720, Note_on_c, 1, 31, 127
2, 44720, Note_on_c, 1, 43, 127
2, 44720, Note_on_c, 1, 67, 127
2, 44720, Note_on_c, 1, 71, 127
2, 44720, Note_on_c, 1, 74, 127
2, 44720, Note_on_c, 1, 79, 127
2, 44760, Note_off_c, 1, 31, 0
2, 44760, Note_off_c, 1, 43, 0
2, 44760, Note_off_c, 1, 67, 0
2, 44760, Note_off_c, 1, 71, 0
2, 44760, Note_off_c, 1, 74, 0
2, 44760, Note_off_c, 1, 79, 0
2, 44840, Note_on_c, 1, 31, 127
2, 44840, Note_on_c, 1, 43, 127
2, 44840, Note_on_c, 1, 67, 127
2, 44840, Note_on_c, 1, 71, 127
2, 44840, Note_on_c, 1, 74, 127
2, 44840, Note_on_c, 1, 79, 127
2, 45080, Note_off_c, 1, 31, 0
2, 45080, Note_off_c, 1, 43, 0
2, 45080, Note_off_c, 1, 67, 0
2, 45080, Note_off_c, 1, 71, 0
2, 45080, Note_off_c, 1, 74, 0
2, 45080, Note_off_c, 1, 79, 0
2, 45120, Note_on_c, 1, 31, 127
2, 45120, Note_on_c, 1, 43, 127
2, 45120, Note_on_c, 1, 67, 127
2, 45120, Note_on_c, 1, 71, 127
2, 45120, Note_on_c, 1, 74, 127
2, 45120, Note_on_c, 1, 79, 127
2, 45160, Note_off_c, 1, 31, 0
2, 45160, Note_off_c, 1, 43, 0
2, 45160, Note_off_c, 1, 67, 0
2, 45160, Note_off_c, 1, 71, 0
2, 45160, Note_off_c, 1, 74, 0
2, 45160, Note_off_c, 1, 79, 0
2, 45240, Note_on_c, 1, 31, 127
2, 45240, Note_on_c, 1, 43, 127
2, 45240, Note_on_c, 1, 67, 127
2, 45240, Note_on_c, 1, 71, 127
2, 45240, Note_on_c, 1, 74, 127
2, 45240, Note_on_c, 1, 79, 127
2, 45280, Note_off_c, 1, 31, 0
2, 45280, Note_off_c, 1, 43, 0
2, 45280, Note_off_c, 1, 67, 0
2, 45280, Note_off_c, 1, 71, 0
2, 45280, Note_off_c, 1, 74, 0
2, 45280, Note_off_c, 1, 79, 0
2, 45320, Note_on_c, 1, 31, 127
2, 45320, Note_on_c, 1, 43, 127
2, 45320, Note_on_c, 1, 67, 127
2, 45320, Note_on_c, 1, 71, 127
2, 45320, Note_on_c, 1, 74, 127
2, 45320, Note_on_c, 1, 79, 127
2, 45360, Note_off_c, 1, 31, 0
2, 45360, Note_off_c, 1, 43, 0
2, 45360, Note_off_c, 1, 67, 0
2, 45360, Note_off_c, 1, 71, 0
2, 45360, Note_off_c, 1, 74, 0
2, 45360, Note_off_c, 1, 79, 0
2, 45440, Note_on_c, 1, 31, 127
2, 45440, Note_on_c, 1, 43, 127
2, 45440, Note_on_c, 1, 67, 127
2, 45440, Note_on_c, 1, 71, 127
2, 45440, Note_on_c, 1, 74, 127
2, 45440, Note_on_c, 1, 79, 127
2, 45480, Note_off_c, 1, 31, 0
2, 45480, Note_off_c, 1, 43, 0
2, 45480, Note_off_c, 1, 67, 0
2, 45480, Note_off_c, 1, 71, 0
2, 45480, Note_off_c, 1, 74, 0
2, 45480, Note_off_c, 1, 79, 0
2, 45520, Note_on_c, 1, 31, 127
2, 45520, Note_on_c, 1, 43, 127
2, 45520, Note_on_c, 1, 67, 127
2, 45520, Note_on_c, 1, 71, 127
2, 45520, Note_on_c, 1, 74, 127
2, 45520, Note_on_c, 1, 79, 127
2, 45560, Note_off_c, 1, 31, 0
2, 45560, Note_off_c, 1, 43, 0
2, 45560, Note_off_c, 1, 67, 0
2, 45560, Note_off_c, 1, 71, 0
2, 45560, Note_off_c, 1, 74, 0
2, 45560, Note_off_c, 1, 79, 0
2, 45680, Note_on_c, 1, 31, 127
2, 45680, Note_on_c, 1, 43, 127
2, 45680, Note_on_c, 1, 67, 127
2, 45680, Note_on_c, 1, 71, 127
2, 45680, Note_on_c, 1, 74, 127
2, 45680, Note_on_c, 1, 79, 127
2, 46040, Note_off_c, 1, 31, 0
2, 46040, Note_off_c, 1, 43, 0
2, 46040, Note_off_c, 1, 67, 0
2, 46040, Note_off_c, 1, 71, 0
2, 46040, Note_off_c, 1, 74, 0
2, 46040, Note_off_c, 1, 79, 0
2, 46080, Note_on_c, 1, 38, 127
2, 46080, Note_on_c, 1, 78, 127
2, 46080, Note_on_c, 1, 81, 127
2, 46080, Note_on_c, 1, 84, 127
2, 46120, Note_off_c, 1, 38, 0
2, 46120, Note_off_c, 1, 78, 0
2, 46120, Note_off_c, 1, 81, 0
2, 46120, Note_off_c, 1, 84, 0
2, 46160, Note_on_c, 1, 38, 127
2, 46160, Note_on_c, 1, 78, 127
2, 46160, Note_on_c, 1, 81, 127
2, 46160, Note_on_c, 1, 84, 127
2, 46200, Note_off_c, 1, 38, 0
2, 46200, Note_off_c, 1, 78, 0
2, 46200, Note_off_c, 1, 81, 0
2, 46200, Note_off_c, 1, 84, 0
2, 46280, Note_on_c, 1, 38, 127
2, 46280, Note_on_c, 1, 78, 127
2, 46280, Note_on_c, 1, 81, 127
2, 46280, Note_on_c, 1, 84, 127
2, 46320, Note_off_c, 1, 38, 0
2, 46320, Note_off_c, 1, 78, 0
2, 46320, Note_off_c, 1, 81, 0
2, 46320, Note_off_c, 1, 84, 0
2, 46360, Note_on_c, 1, 38, 127
2, 46360, Note_on_c, 1, 78, 127
2, 46360, Note_on_c, 1, 81, 127
2, 46360, Note_on_c, 1, 84, 127
2, 46400, Note_off_c, 1, 38, 0
2, 46400, Note_off_c, 1, 78, 0
2, 46400, Note_off_c, 1, 81, 0
2, 46400, Note_off_c, 1, 84, 0
2, 46480, Note_on_c, 1, 38, 127
2, 46480, Note_on_c, 1, 78, 127
2, 46480, Note_on_c, 1, 81, 127
2, 46480, Note_on_c, 1, 84, 127
2, 46520, Note_off_c, 1, 38, 0
2, 46560, Note_on_c, 1, 59, 127
2, 46560, Note_on_c, 1, 62, 127
2, 46560, Note_on_c, 1, 71, 127
2, 46560, Note_off_c, 1, 78, 0
2, 46560, Note_on_c, 1, 79, 127
2, 46560, Note_off_c, 1, 81, 0
2, 46560, Note_off_c, 1, 84, 0
2, 46560, Note_on_c, 1, 86, 127
2, 46560, Note_on_c, 1, 91, 127
2, 46600, Note_off_c, 1, 59, 0
2, 46600, Note_off_c, 1, 62, 0
2, 46600, Note_off_c, 1, 71, 0
2, 46600, Note_on_c, 1, 78, 127
2, 46600, Note_off_c, 1, 79, 0
2, 46600, Note_on_c, 1, 81, 127
2, 46600, Note_on_c, 1, 84, 127
2, 46600, Note_off_c, 1, 86, 0
2, 46600, Note_off_c, 1, 91, 0
2, 46680, Note_on_c, 1, 42, 127
2, 46720, Note_off_c, 1, 42, 0
2, 46760, Note_on_c, 1, 42, 127
2, 46800, Note_off_c, 1, 42, 0
2, 46880, Note_on_c, 1, 42, 127
2, 47000, Note_off_c, 1, 42, 0
2, 47080, Note_on_c, 1, 42, 127
2, 47120, Note_off_c, 1, 42, 0
2, 47160, Note_on_c, 1, 43, 127
2, 47160, Note_on_c, 1, 55, 127
2, 47160, Note_on_c, 1, 64, 127
2, 47160, Note_on_c, 1, 69, 127
2, 47160, Note_on_c, 1, 73, 127
2, 47160, Note_off_c, 1, 78, 0
2, 47160, Note_off_c, 1, 81, 0
2, 47160, Note_off_c, 1, 84, 0
2, 47200, Note_off_c, 1, 43, 0
2, 47200, Note_off_c, 1, 55, 0
2, 47200, Note_off_c, 1, 64, 0
2, 47200, Note_off_c, 1, 69, 0
2, 47200, Note_off_c, 1, 73, 0
2, 47200, Note_on_c, 1, 78, 127
2, 47200, Note_on_c, 1, 81, 127
2, 47200, Note_on_c, 1, 84, 127
2, 47240, Note_off_c, 1, 78, 0
2, 47240, Note_off_c, 1, 81, 0
2, 47240, Note_off_c, 1, 84, 0
2, 47280, Note_on_c, 1, 32, 127
2, 47280, Note_on_c, 1, 44, 127
2, 47280, Note_on_c, 1, 56, 127
2, 47280, Note_on_c, 1, 66, 127
2, 47280, Note_on_c, 1, 70, 127
2, 47280, Note_on_c, 1, 75, 127
2, 47320, Note_off_c, 1, 32, 0
2, 47320, Note_off_c, 1, 44, 0
2, 47320, Note_off_c, 1, 56, 0
2, 47320, Note_off_c, 1, 66, 0
2, 47320, Note_off_c, 1, 70, 0
2, 47320, Note_off_c, 1, 75, 0
2, 47320, Note_on_c, 1, 80, 127
2, 47320, Note_on_c, 1, 84, 127
2, 47320, Note_on_c, 1, 89, 127
2, 47320, Note_on_c, 1, 92, 127
2, 47360, Note_on_c, 1, 67, 127
2, 47360, Note_on_c, 1, 71, 127
2, 47360, Note_on_c, 1, 75, 127
2, 47360, Note_on_c, 1, 79, 127
2, 47360, Note_off_c, 1, 80, 0
2, 47360, Note_off_c, 1, 84, 0
2, 47360, Note_off_c, 1, 89, 0
2, 47360, Note_off_c, 1, 92, 0
2, 47400, Note_off_c, 1, 67, 0
2, 47400, Note_off_c, 1, 71, 0
2, 47400, Note_off_c, 1, 75, 0
2, 47400, Note_off_c, 1, 79, 0
2, 47400, Note_on_c, 1, 80, 127
2, 47400, Note_on_c, 1, 84, 127
2, 47400, Note_on_c, 1, 89, 127
2, 47400, Note_on_c, 1, 92, 127
2, 47480, Note_on_c, 1, 72, 127
2, 47480, Note_on_c, 1, 76, 127
2, 47480, Note_off_c, 1, 80, 0
2, 47480, Note_on_c, 1, 82, 127
2, 47480, Note_off_c, 1, 84, 0
2, 47480, Note_on_c, 1, 86, 127
2, 47480, Note_off_c, 1, 89, 0
2, 47480, Note_off_c, 1, 92, 0
2, 47520, Note_on_c, 1, 48, 127
2, 47520, Note_on_c, 1, 60, 127
2, 47520, Note_off_c, 1, 72, 0
2, 47520, Note_off_c, 1, 76, 0
2, 47520, Note_on_c, 1, 78, 127
2, 47520, Note_on_c, 1, 81, 127
2, 47520, Note_off_c, 1, 82, 0
2, 47520, Note_off_c, 1, 86, 0
2, 47520, Note_on_c, 1, 87, 127
2, 47520, Note_on_c, 1, 90, 127
2, 47560, Note_off_c, 1, 48, 0
2, 47560, Note_on_c, 1, 50, 127
2, 47560, Note_on_c, 1, 55, 127
2, 47560, Note_on_c, 1, 59, 127
2, 47560, Note_off_c, 1, 60, 0
2, 47560, Note_on_c, 1, 62, 127
2, 47560, Note_on_c, 1, 65, 127
2, 47560, Note_off_c, 1, 78, 0
2, 47560, Note_off_c, 1, 81, 0
2, 47560, Note_off_c, 1, 87, 0
2, 47560, Note_off_c, 1, 90, 0
2, 47600, Note_on_c, 1, 39, 127
2, 47600, Note_off_c, 1, 50, 0
2, 47600, Note_off_c, 1, 55, 0
2, 47600, Note_on_c, 1, 57, 127
2, 47600, Note_off_c, 1, 59, 0
2, 47600, Note_on_c, 1, 60, 127
2, 47600, Note_off_c, 1, 62, 0
2, 47600, Note_on_c, 1, 63, 127
2, 47600, Note_off_c, 1, 65, 0
2, 47600, Note_on_c, 1, 67, 127
2, 47640, Note_off_c, 1, 39, 0
2, 47640, Note_off_c, 1, 57, 0
2, 47640, Note_off_c, 1, 60, 0
2, 47640, Note_off_c, 1, 63, 0
2, 47640, Note_off_c, 1, 67, 0
2, 47680, Note_on_c, 1, 47, 127
2, 47680, Note_on_c, 1, 57, 127
2, 47680, Note_on_c, 1, 62, 127
2, 47680, Note_on_c, 1, 68, 127
2, 47680, Note_on_c, 1, 71, 127
2, 47720, Note_off_c, 1, 47, 0
2, 47720, Note_off_c, 1, 57, 0
2, 47720, Note_off_c, 1, 62, 0
2, 47720, Note_off_c, 1, 68, 0
2, 47720, Note_off_c, 1, 71, 0
2, 47880, Note_on_c, 1, 51, 127
2, 47880, Note_on_c, 1, 57, 127
2, 47880, Note_on_c, 1, 60, 127
2, 47880, Note_on_c, 1, 63, 127
2, 47880, Note_on_c, 1, 69, 127
2, 47880, Note_on_c, 1, 72, 127
2, 47920, Note_off_c, 1, 51, 0
2, 47920, Note_off_c, 1, 57, 0
2, 47920, Note_off_c, 1, 60, 0
2, 47920, Note_off_c, 1, 63, 0
2, 47920, Note_off_c, 1, 69, 0
2, 47920, Note_off_c, 1, 72, 0
2, 47960, Note_on_c, 1, 47, 127
2, 47960, Note_on_c, 1, 59, 127
2, 47960, Note_on_c, 1, 83, 127
2, 47960, Note_on_c, 1, 87, 127
2, 47960, Note_on_c, 1, 90, 127
2, 47960, Note_on_c, 1, 95, 127
2, 48000, Note_off_c, 1, 47, 0
2, 48000, Note_off_c, 1, 59, 0
2, 48000, Note_off_c, 1, 83, 0
2, 48000, Note_off_c, 1, 87, 0
2, 48000, Note_off_c, 1, 90, 0
2, 48000, Note_off_c, 1, 95, 0
2, 48120, Note_on_c, 1, 38, 127
2, 48120, Note_on_c, 1, 50, 127
2, 48160, Note_on_c, 1, 69, 127
2, 48160, Note_on_c, 1, 74, 127
2, 48160, Note_on_c, 1, 78, 127
2, 48160, Note_on_c, 1, 81, 127
2, 48200, Note_off_c, 1, 69, 0
2, 48200, Note_off_c, 1, 74, 0
2, 48200, Note_off_c, 1, 78, 0
2, 48200, Note_off_c, 1, 81, 0
2, 48320, Note_off_c, 1, 38, 0
2, 48320, Note_on_c, 1, 42, 127
2, 48320, Note_off_c, 1, 50, 0
2, 48320, Note_on_c, 1, 54, 127
2, 48320, Note_on_c, 1, 64, 127
2, 48320, Note_on_c, 1, 67, 127
2, 48320, Note_on_c, 1, 76, 127
2, 48360, Note_off_c, 1, 42, 0
2, 48360, Note_off_c, 1, 54, 0
2, 48360, Note_on_c, 1, 55, 127
2, 48360, Note_on_c, 1, 58, 127
2, 48360, Note_off_c, 1, 67, 0
2, 48360, Note_on_c, 1, 77, 127
2, 48400, Note_on_c, 1, 38, 127
2, 48400, Note_on_c, 1, 50, 127
2, 48400, Note_off_c, 1, 55, 0
2, 48400, Note_off_c, 1, 58, 0
2, 48400, Note_off_c, 1, 64, 0
2, 48400, Note_off_c, 1, 76, 0
2, 48400, Note_off_c, 1, 77, 0
2, 48440, Note_on_c, 1, 36, 127
2, 48440, Note_off_c, 1, 38, 0
2, 48440, Note_on_c, 1, 48, 127
2, 48440, Note_off_c, 1, 50, 0
2, 48440, Note_on_c, 1, 66, 127
2, 48440, Note_on_c, 1, 78, 127
2, 48480, Note_off_c, 1, 36, 0
2, 48480, Note_on_c, 1, 38, 127
2, 48480, Note_off_c, 1, 48, 0
2, 48480, Note_on_c, 1, 50, 127
2, 48480, Note_off_c, 1, 66, 0
2, 48480, Note_off_c, 1, 78, 0
2, 48520, Note_off_c, 1, 38, 0
2, 48520, Note_off_c, 1, 50, 0
2, 48560, Note_on_c, 1, 43, 127
2, 48560, Note_on_c, 1, 55, 127
2, 48560, Note_on_c, 1, 84, 127
2, 48560, Note_on_c, 1, 87, 127
2, 48560, Note_on_c, 1, 96, 127
2, 48600, Note_on_c, 1, 38, 127
2, 48600, Note_off_c, 1, 43, 0
2, 48600, Note_on_c, 1, 50, 127
2, 48600, Note_off_c, 1, 55, 0
2, 48600, Note_off_c, 1, 84, 0
2, 48600, Note_off_c, 1, 87, 0
2, 48600, Note_off_c, 1, 96, 0
2, 48640, Note_off_c, 1, 38, 0
2, 48640, Note_on_c, 1, 43, 127
2, 48640, Note_off_c, 1, 50, 0
2, 48640, Note_on_c, 1, 55, 127
2, 48640, Note_on_c, 1, 84, 127
2, 48640, Note_on_c, 1, 87, 127
2, 48640, Note_on_c, 1, 96, 127
2, 48680, Note_on_c, 1, 38, 127
2, 48680, Note_off_c, 1, 43, 0
2, 48680, Note_on_c, 1, 50, 127
2, 48680, Note_off_c, 1, 55, 0
2, 48680, Note_off_c, 1, 84, 0
2, 48680, Note_off_c, 1, 87, 0
2, 48680, Note_off_c, 1, 96, 0
2, 48720, Note_off_c, 1, 38, 0
2, 48720, Note_off_c, 1, 50, 0
2, 48760, Note_on_c, 1, 43, 127
2, 48760, Note_on_c, 1, 55, 127
2, 48760, Note_on_c, 1, 84, 127
2, 48760, Note_on_c, 1, 87, 127
2, 48760, Note_on_c, 1, 96, 127
2, 48800, Note_off_c, 1, 43, 0
2, 48800, Note_off_c, 1, 55, 0
2, 48800, Note_off_c, 1, 84, 0
2, 48800, Note_off_c, 1, 87, 0
2, 48800, Note_off_c, 1, 96, 0
2, 48840, Note_on_c, 1, 43, 127
2, 48840, Note_on_c, 1, 55, 127
2, 48840, Note_on_c, 1, 84, 127
2, 48840, Note_on_c, 1, 87, 127
2, 48840, Note_on_c, 1, 96, 127
2, 48880, Note_off_c, 1, 43, 0
2, 48880, Note_off_c, 1, 55, 0
2, 48880, Note_off_c, 1, 84, 0
2, 48880, Note_off_c, 1, 87, 0
2, 48880, Note_off_c, 1, 96, 0
2, 48960, Note_on_c, 1, 43, 127
2, 48960, Note_on_c, 1, 55, 127
2, 48960, Note_on_c, 1, 84, 127
2, 48960, Note_on_c, 1, 87, 127
2, 48960, Note_on_c, 1, 96, 127
2, 49000, Note_off_c, 1, 84, 0
2, 49000, Note_off_c, 1, 87, 0
2, 49000, Note_off_c, 1, 96, 0
2, 49040, Note_on_c, 1, 84, 127
2, 49040, Note_on_c, 1, 87, 127
2, 49040, Note_on_c, 1, 96, 127
2, 49080, Note_off_c, 1, 84, 0
2, 49080, Note_off_c, 1, 87, 0
2, 49080, Note_off_c, 1, 96, 0
2, 49120, Note_off_c, 1, 43, 0
2, 49120, Note_off_c, 1, 55, 0
2, 49160, Note_on_c, 1, 47, 127
2, 49160, Note_on_c, 1, 59, 127
2, 49160, Note_on_c, 1, 67, 127
2, 49160, Note_on_c, 1, 79, 127
2, 49200, Note_off_c, 1, 47, 0
2, 49200, Note_off_c, 1, 59, 0
2, 49200, Note_off_c, 1, 67, 0
2, 49200, Note_off_c, 1, 79, 0
2, 49240, Note_on_c, 1, 47, 127
2, 49240, Note_on_c, 1, 59, 127
2, 49240, Note_on_c, 1, 67, 127
2, 49240, Note_on_c, 1, 79, 127
2, 49280, Note_off_c, 1, 47, 0
2, 49280, Note_off_c, 1, 59, 0
2, 49280, Note_off_c, 1, 67, 0
2, 49280, Note_off_c, 1, 79, 0
2, 49360, Note_on_c, 1, 47, 127
2, 49360, Note_on_c, 1, 59, 127
2, 49360, Note_on_c, 1, 67, 127
2, 49360, Note_on_c, 1, 79, 127
2, 49400, Note_on_c, 1, 43, 127
2, 49400, Note_off_c, 1, 47, 0
2, 49400, Note_on_c, 1, 55, 127
2, 49400, Note_off_c, 1, 59, 0
2, 49400, Note_off_c, 1, 67, 0
2, 49400, Note_off_c, 1, 79, 0
2, 49440, Note_off_c, 1, 43, 0
2, 49440, Note_on_c, 1, 47, 127
2, 49440, Note_off_c, 1, 55, 0
2, 49440, Note_on_c, 1, 59, 127
2, 49440, Note_on_c, 1, 67, 127
2, 49440, Note_on_c, 1, 79, 127
2, 49480, Note_on_c, 1, 43, 127
2, 49480, Note_off_c, 1, 47, 0
2, 49480, Note_on_c, 1, 55, 127
2, 49480, Note_off_c, 1, 59, 0
2, 49480, Note_off_c, 1, 67, 0
2, 49480, Note_off_c, 1, 79, 0
2, 49520, Note_off_c, 1, 43, 0
2, 49520, Note_off_c, 1, 55, 0
2, 49560, Note_on_c, 1, 31, 127
2, 49560, Note_on_c, 1, 43, 127
2, 49560, Note_on_c, 1, 61, 127
2, 49560, Note_on_c, 1, 73, 127
2, 49600, Note_off_c, 1, 31, 0
2, 49600, Note_off_c, 1, 43, 0
2, 49600, Note_off_c, 1, 61, 0
2, 49600, Note_off_c, 1, 73, 0
2, 49640, Note_on_c, 1, 40, 127
2, 49640, Note_on_c, 1, 55, 127
2, 49640, Note_on_c, 1, 71, 127
2, 49640, Note_on_c, 1, 79, 127
2, 49640, Note_on_c, 1, 83, 127
2, 49680, Note_off_c, 1, 40, 0
2, 49680, Note_off_c, 1, 55, 0
2, 49680, Note_off_c, 1, 71, 0
2, 49680, Note_off_c, 1, 79, 0
2, 49680, Note_off_c, 1, 83, 0
2, 49800, Note_on_c, 1, 40, 127
2, 49800, Note_on_c, 1, 52, 127
2, 49800, Note_on_c, 1, 62, 127
2, 49800, Note_on_c, 1, 74, 127
2, 49840, Note_off_c, 1, 40, 0
2, 49840, Note_off_c, 1, 52, 0
2, 49840, Note_off_c, 1, 62, 0
2, 49840, Note_off_c, 1, 74, 0
2, 49880, Note_on_c, 1, 40, 127
2, 49880, Note_on_c, 1, 52, 127
2, 49880, Note_on_c, 1, 62, 127
2, 49880, Note_on_c, 1, 74, 127
2, 49920, Note_off_c, 1, 40, 0
2, 49920, Note_off_c, 1, 52, 0
2, 49920, Note_off_c, 1, 62, 0
2, 49920, Note_off_c, 1, 74, 0
2, 50000, Note_on_c, 1, 42, 127
2, 50000, Note_on_c, 1, 81, 127
2, 50000, Note_on_c, 1, 84, 127
2, 50000, Note_on_c, 1, 87, 127
2, 50000, Note_on_c, 1, 93, 127
2, 50040, Note_off_c, 1, 42, 0
2, 50040, Note_off_c, 1, 81, 0
2, 50040, Note_off_c, 1, 84, 0
2, 50040, Note_off_c, 1, 87, 0
2, 50040, Note_off_c, 1, 93, 0
2, 50080, Note_on_c, 1, 51, 127
2, 50080, Note_on_c, 1, 81, 127
2, 50080, Note_on_c, 1, 84, 127
2, 50080, Note_on_c, 1, 87, 127
2, 50080, Note_on_c, 1, 93, 127
2, 50120, Note_off_c, 1, 51, 0
2, 50120, Note_off_c, 1, 81, 0
2, 50120, Note_off_c, 1, 84, 0
2, 50120, Note_off_c, 1, 87, 0
2, 50120, Note_off_c, 1, 93, 0
2, 50200, Note_on_c, 1, 42, 127
2, 50200, Note_on_c, 1, 81, 127
2, 50200, Note_on_c, 1, 84, 127
2, 50200, Note_on_c, 1, 87, 127
2, 50200, Note_on_c, 1, 93, 127
2, 50240, Note_off_c, 1, 42, 0
2, 50240, Note_off_c, 1, 81, 0
2, 50240, Note_off_c, 1, 84, 0
2, 50240, Note_off_c, 1, 87, 0
2, 50240, Note_off_c, 1, 93, 0
2, 50280, Note_on_c, 1, 59, 127
2, 50280, Note_on_c, 1, 64, 127
2, 50280, Note_on_c, 1, 74, 127
2, 50280, Note_on_c, 1, 86, 127
2, 50320, Note_off_c, 1, 59, 0
2, 50320, Note_off_c, 1, 64, 0
2, 50320, Note_off_c, 1, 74, 0
2, 50320, Note_off_c, 1, 86, 0
2, 50400, Note_on_c, 1, 42, 127
2, 50400, Note_on_c, 1, 81, 127
2, 50400, Note_on_c, 1, 84, 127
2, 50400, Note_on_c, 1, 87, 127
2, 50400, Note_on_c, 1, 93, 127
2, 50440, Note_off_c, 1, 42, 0
2, 50440, Note_off_c, 1, 81, 0
2, 50440, Note_off_c, 1, 84, 0
2, 50440, Note_off_c, 1, 87, 0
2, 50440, Note_off_c, 1, 93, 0
2, 50480, Note_on_c, 1, 81, 127
2, 50480, Note_on_c, 1, 84, 127
2, 50480, Note_on_c, 1, 87, 127
2, 50480, Note_on_c, 1, 93, 127
2, 50520, Note_off_c, 1, 81, 0
2, 50520, Note_off_c, 1, 84, 0
2, 50520, Note_off_c, 1, 87, 0
2, 50520, Note_off_c, 1, 93, 0
2, 50600, Note_on_c, 1, 41, 127
2, 50600, Note_on_c, 1, 49, 127
2, 50600, Note_on_c, 1, 53, 127
2, 50600, Note_on_c, 1, 57, 127
2, 50600, Note_on_c, 1, 61, 127
2, 50600, Note_on_c, 1, 65, 127
2, 50640, Note_off_c, 1, 41, 0
2, 50640, Note_off_c, 1, 49, 0
2, 50640, Note_off_c, 1, 53, 0
2, 50640, Note_off_c, 1, 57, 0
2, 50640, Note_off_c, 1, 61, 0
2, 50640, Note_off_c, 1, 65, 0
2, 50680, Note_on_c, 1, 67, 127
2, 50680, Note_on_c, 1, 79, 127
2, 50680, Note_on_c, 1, 91, 127
2, 50720, Note_off_c, 1, 67, 0
2, 50720, Note_off_c, 1, 79, 0
2, 50720, Note_off_c, 1, 91, 0
2, 50800, Note_on_c, 1, 57, 127
2, 50800, Note_on_c, 1, 62, 127
2, 50800, Note_on_c, 1, 66, 127
2, 50800, Note_on_c, 1, 96, 127
2, 50840, Note_on_c, 1, 54, 127
2, 50840, Note_off_c, 1, 57, 0
2, 50840, Note_off_c, 1, 66, 0
2, 50840, Note_on_c, 1, 81, 127
2, 50840, Note_off_c, 1, 96, 0
2, 50880, Note_off_c, 1, 54, 0
2, 50880, Note_on_c, 1, 57, 127
2, 50880, Note_on_c, 1, 66, 127
2, 50880, Note_off_c, 1, 81, 0
2, 50880, Note_on_c, 1, 96, 127
2, 50920, Note_off_c, 1, 96, 0
2, 50960, Note_on_c, 1, 47, 127
2, 50960, Note_on_c, 1, 50, 127
2, 50960, Note_on_c, 1, 56, 127
2, 50960, Note_off_c, 1, 57, 0
2, 50960, Note_off_c, 1, 62, 0
2, 50960, Note_off_c, 1, 66, 0
2, 50960, Note_on_c, 1, 71, 127
2, 50960, Note_on_c, 1, 80, 127
2, 51000, Note_on_c, 1, 31, 127
2, 51000, Note_on_c, 1, 43, 127
2, 51000, Note_off_c, 1, 47, 0
2, 51000, Note_off_c, 1, 50, 0
2, 51000, Note_off_c, 1, 56, 0
2, 51000, Note_on_c, 1, 70, 127
2, 51000, Note_off_c, 1, 71, 0
2, 51000, Note_off_c, 1, 80, 0
2, 51000, Note_on_c, 1, 82, 127
2, 51040, Note_off_c, 1, 70, 0
2, 51040, Note_off_c, 1, 82, 0
2, 51080, Note_on_c, 1, 67, 127
2, 51080, Note_on_c, 1, 70, 127
2, 51120, Note_off_c, 1, 31, 0
2, 51120, Note_off_c, 1, 43, 0
2, 51120, Note_off_c, 1, 67, 0
2, 51120, Note_off_c, 1, 70, 0
2, 51160, Note_on_c, 1, 31, 127
2, 51160, Note_on_c, 1, 43, 127
2, 51160, Note_on_c, 1, 67, 127
2, 51160, Note_on_c, 1, 70, 127
2, 51200, Note_off_c, 1, 31, 0
2, 51200, Note_off_c, 1, 43, 0
2, 51200, Note_off_c, 1, 67, 0
2, 51200, Note_off_c, 1, 70, 0
2, 51280, Note_on_c, 1, 31, 127
2, 51280, Note_on_c, 1, 43, 127
2, 51280, Note_on_c, 1, 67, 127
2, 51280, Note_on_c, 1, 70, 127
2, 51320, Note_off_c, 1, 31, 0
2, 51320, Note_off_c, 1, 43, 0
2, 51320, Note_off_c, 1, 67, 0
2, 51320, Note_off_c, 1, 70, 0
2, 51360, Note_on_c, 1, 31, 127
2, 51360, Note_on_c, 1, 43, 127
2, 51360, Note_on_c, 1, 67, 127
2, 51360, Note_on_c, 1, 70, 127
2, 51400, Note_off_c, 1, 31, 0
2, 51400, Note_off_c, 1, 43, 0
2, 51400, Note_off_c, 1, 67, 0
2, 51400, Note_off_c, 1, 70, 0
2, 51480, Note_on_c, 1, 31, 127
2, 51480, Note_on_c, 1, 43, 127
2, 51480, Note_on_c, 1, 67, 127
2, 51480, Note_on_c, 1, 70, 127
2, 51520, Note_off_c, 1, 31, 0
2, 51520, Note_off_c, 1, 43, 0
2, 51520, Note_off_c, 1, 67, 0
2, 51520, Note_off_c, 1, 70, 0
2, 51560, Note_on_c, 1, 31, 127
2, 51560, Note_on_c, 1, 43, 127
2, 51560, Note_on_c, 1, 67, 127
2, 51560, Note_on_c, 1, 70, 127
2, 51600, Note_off_c, 1, 31, 0
2, 51600, Note_off_c, 1, 43, 0
2, 51600, Note_off_c, 1, 67, 0
2, 51600, Note_off_c, 1, 70, 0
2, 51720, Note_on_c, 1, 31, 127
2, 51720, Note_on_c, 1, 43, 127
2, 51720, Note_on_c, 1, 67, 127
2, 51720, Note_on_c, 1, 70, 127
2, 51760, Note_off_c, 1, 31, 0
2, 51760, Note_off_c, 1, 43, 0
2, 51760, Note_off_c, 1, 67, 0
2, 51760, Note_off_c, 1, 70, 0
2, 51800, Note_on_c, 1, 31, 127
2, 51800, Note_on_c, 1, 43, 127
2, 51800, Note_on_c, 1, 67, 127
2, 51800, Note_on_c, 1, 70, 127
2, 51840, Note_off_c, 1, 67, 0
2, 51840, Note_off_c, 1, 70, 0
2, 51880, Note_on_c, 1, 67, 127
2, 51880, Note_on_c, 1, 70, 127
2, 51960, Note_off_c, 1, 31, 0
2, 51960, Note_off_c, 1, 43, 0
2, 51960, Note_off_c, 1, 67, 0
2, 51960, Note_off_c, 1, 70, 0
2, 52000, Note_on_c, 1, 31, 127
2, 52000, Note_on_c, 1, 43, 127
2, 52000, Note_on_c, 1, 67, 127
2, 52000, Note_on_c, 1, 70, 127
2, 52040, Note_off_c, 1, 31, 0
2, 52040, Note_off_c, 1, 43, 0
2, 52040, Note_off_c, 1, 67, 0
2, 52040, Note_off_c, 1, 70, 0
2, 52080, Note_on_c, 1, 31, 127
2, 52080, Note_on_c, 1, 43, 127
2, 52080, Note_on_c, 1, 67, 127
2, 52080, Note_on_c, 1, 70, 127
2, 52120, Note_off_c, 1, 31, 0
2, 52120, Note_off_c, 1, 43, 0
2, 52120, Note_off_c, 1, 67, 0
2, 52120, Note_off_c, 1, 70, 0
2, 52200, Note_on_c, 1, 31, 127
2, 52200, Note_on_c, 1, 43, 127
2, 52200, Note_on_c, 1, 67, 127
2, 52200, Note_on_c, 1, 70, 127
2, 52240, Note_off_c, 1, 67, 0
2, 52240, Note_off_c, 1, 70, 0
2, 52280, Note_on_c, 1, 67, 127
2, 52280, Note_on_c, 1, 70, 127
2, 52360, Note_off_c, 1, 31, 0
2, 52360, Note_off_c, 1, 43, 0
2, 52360, Note_off_c, 1, 67, 0
2, 52360, Note_off_c, 1, 70, 0
2, 52400, Note_on_c, 1, 31, 127
2, 52400, Note_on_c, 1, 43, 127
2, 52400, Note_on_c, 1, 67, 127
2, 52400, Note_on_c, 1, 70, 127
2, 52440, Note_off_c, 1, 31, 0
2, 52440, Note_off_c, 1, 43, 0
2, 52440, Note_off_c, 1, 67, 0
2, 52440, Note_off_c, 1, 70, 0
2, 52480, Note_on_c, 1, 31, 127
2, 52480, Note_on_c, 1, 43, 127
2, 52480, Note_on_c, 1, 67, 127
2, 52480, Note_on_c, 1, 70, 127
2, 52520, Note_off_c, 1, 31, 0
2, 52520, Note_off_c, 1, 43, 0
2, 52520, Note_off_c, 1, 67, 0
2, 52520, Note_off_c, 1, 70, 0
2, 52600, Note_on_c, 1, 31, 127
2, 52600, Note_on_c, 1, 43, 127
2, 52600, Note_on_c, 1, 67, 127
2, 52600, Note_on_c, 1, 70, 127
2, 52640, Note_off_c, 1, 67, 0
2, 52640, Note_off_c, 1, 70, 0
2, 52680, Note_on_c, 1, 67, 127
2, 52680, Note_on_c, 1, 70, 127
2, 52760, Note_off_c, 1, 67, 0
2, 52760, Note_off_c, 1, 70, 0
2, 52800, Note_on_c, 1, 67, 127
2, 52800, Note_on_c, 1, 70, 127
2, 52840, Note_off_c, 1, 31, 0
2, 52840, Note_off_c, 1, 43, 0
2, 52840, Note_off_c, 1, 67, 0
2, 52840, Note_off_c, 1, 70, 0
2, 52880, Note_on_c, 1, 31, 127
2, 52880, Note_on_c, 1, 43, 127
2, 52880, Note_on_c, 1, 67, 127
2, 52880, Note_on_c, 1, 70, 127
2, 52920, Note_off_c, 1, 31, 0
2, 52920, Note_off_c, 1, 43, 0
2, 52920, Note_off_c, 1, 67, 0
2, 52920, Note_off_c, 1, 70, 0
2, 53000, Note_on_c, 1, 31, 127
2, 53000, Note_on_c, 1, 43, 127
2, 53000, Note_on_c, 1, 67, 127
2, 53000, Note_on_c, 1, 70, 127
2, 53040, Note_off_c, 1, 31, 0
2, 53040, Note_off_c, 1, 43, 0
2, 53040, Note_off_c, 1, 67, 0
2, 53040, Note_off_c, 1, 70, 0
2, 53080, Note_on_c, 1, 31, 127
2, 53080, Note_on_c, 1, 43, 127
2, 53080, Note_on_c, 1, 67, 127
2, 53080, Note_on_c, 1, 70, 127
2, 53120, Note_off_c, 1, 31, 0
2, 53120, Note_off_c, 1, 43, 0
2, 53120, Note_off_c, 1, 67, 0
2, 53120, Note_off_c, 1, 70, 0
2, 53200, Note_on_c, 1, 31, 127
2, 53200, Note_on_c, 1, 43, 127
2, 53200, Note_on_c, 1, 58, 127
2, 53200, Note_on_c, 1, 70, 127
2, 53240, Note_off_c, 1, 31, 0
2, 53240, Note_off_c, 1, 43, 0
2, 53240, Note_off_c, 1, 58, 0
2, 53240, Note_off_c, 1, 70, 0
2, 53280, Note_on_c, 1, 33, 127
2, 53280, Note_on_c, 1, 45, 127
2, 53280, Note_on_c, 1, 66, 127
2, 53280, Note_on_c, 1, 69, 127
2, 53280, Note_on_c, 1, 73, 127
2, 53320, Note_off_c, 1, 33, 0
2, 53320, Note_off_c, 1, 45, 0
2, 53320, Note_off_c, 1, 66, 0
2, 53320, Note_off_c, 1, 69, 0
2, 53320, Note_off_c, 1, 73, 0
2, 53400, Note_on_c, 1, 33, 127
2, 53400, Note_on_c, 1, 45, 127
2, 53400, Note_on_c, 1, 66, 127
2, 53400, Note_on_c, 1, 75, 127
2, 53440, Note_off_c, 1, 33, 0
2, 53440, Note_off_c, 1, 45, 0
2, 53440, Note_off_c, 1, 66, 0
2, 53440, Note_off_c, 1, 75, 0
2, 53480, Note_on_c, 1, 33, 127
2, 53480, Note_on_c, 1, 45, 127
2, 53480, Note_on_c, 1, 66, 127
2, 53480, Note_on_c, 1, 75, 127
2, 53520, Note_off_c, 1, 33, 0
2, 53520, Note_off_c, 1, 45, 0
2, 53520, Note_off_c, 1, 66, 0
2, 53520, Note_off_c, 1, 75, 0
2, 53600, Note_on_c, 1, 33, 127
2, 53600, Note_on_c, 1, 45, 127
2, 53600, Note_on_c, 1, 66, 127
2, 53600, Note_on_c, 1, 75, 127
2, 53760, Note_off_c, 1, 33, 0
2, 53760, Note_off_c, 1, 45, 0
2, 53760, Note_off_c, 1, 66, 0
2, 53760, Note_off_c, 1, 75, 0
2, 53840, Note_on_c, 1, 33, 127
2, 53840, Note_on_c, 1, 45, 127
2, 53840, Note_on_c, 1, 66, 127
2, 53840, Note_on_c, 1, 75, 127
2, 54000, Note_off_c, 1, 33, 0
2, 54000, Note_off_c, 1, 45, 0
2, 54000, Note_off_c, 1, 66, 0
2, 54000, Note_off_c, 1, 75, 0
2, 54040, Note_on_c, 1, 33, 127
2, 54040, Note_on_c, 1, 45, 127
2, 54040, Note_on_c, 1, 66, 127
2, 54040, Note_on_c, 1, 75, 127
2, 54200, Note_off_c, 1, 33, 0
2, 54200, Note_off_c, 1, 45, 0
2, 54200, Note_off_c, 1, 66, 0
2, 54200, Note_off_c, 1, 75, 0
2, 54240, Note_on_c, 1, 46, 127
2, 54240, Note_on_c, 1, 58, 127
2, 54240, Note_on_c, 1, 88, 127
2, 54240, Note_on_c, 1, 94, 127
2, 54240, Note_on_c, 1, 97, 127
2, 54240, Note_on_c, 1, 100, 127
2, 54280, Note_off_c, 1, 46, 0
2, 54280, Note_off_c, 1, 58, 0
2, 54280, Note_off_c, 1, 88, 0
2, 54280, Note_off_c, 1, 94, 0
2, 54280, Note_off_c, 1, 97, 0
2, 54280, Note_off_c, 1, 100, 0
2, 54320, Note_on_c, 1, 34, 127
2, 54320, Note_on_c, 1, 46, 127
2, 54320, Note_on_c, 1, 61, 127
2, 54320, Note_on_c, 1, 68, 127
2, 54320, Note_on_c, 1, 73, 127
2, 54400, Note_off_c, 1, 34, 0
2, 54400, Note_off_c, 1, 46, 0
2, 54400, Note_off_c, 1, 61, 0
2, 54400, Note_off_c, 1, 68, 0
2, 54400, Note_off_c, 1, 73, 0
2, 54440, Note_on_c, 1, 52, 127
2, 54440, Note_on_c, 1, 64, 127
2, 54440, Note_on_c, 1, 67, 127
2, 54440, Note_on_c, 1, 79, 127
2, 54480, Note_off_c, 1, 52, 0
2, 54480, Note_off_c, 1, 64, 0
2, 54480, Note_off_c, 1, 67, 0
2, 54480, Note_off_c, 1, 79, 0
2, 54520, Note_on_c, 1, 49, 127
2, 54520, Note_on_c, 1, 61, 127
2, 54520, Note_on_c, 1, 65, 127
2, 54520, Note_on_c, 1, 77, 127
2, 54600, Note_off_c, 1, 49, 0
2, 54600, Note_off_c, 1, 61, 0
2, 54600, Note_off_c, 1, 65, 0
2, 54600, Note_off_c, 1, 77, 0
2, 54640, Note_on_c, 1, 49, 127
2, 54640, Note_on_c, 1, 61, 127
2, 54640, Note_on_c, 1, 65, 127
2, 54640, Note_on_c, 1, 77, 127
2, 54680, Note_off_c, 1, 49, 0
2, 54680, Note_off_c, 1, 61, 0
2, 54680, Note_off_c, 1, 65, 0
2, 54680, Note_off_c, 1, 77, 0
2, 54720, Note_on_c, 1, 50, 127
2, 54720, Note_on_c, 1, 62, 127
2, 54720, Note_on_c, 1, 65, 127
2, 54720, Note_on_c, 1, 77, 127
2, 54760, Note_off_c, 1, 50, 0
2, 54760, Note_off_c, 1, 62, 0
2, 54760, Note_off_c, 1, 65, 0
2, 54760, Note_off_c, 1, 77, 0
2, 54840, Note_on_c, 1, 50, 127
2, 54840, Note_on_c, 1, 62, 127
2, 54840, Note_on_c, 1, 65, 127
2, 54840, Note_on_c, 1, 77, 127
2, 54880, Note_off_c, 1, 50, 0
2, 54880, Note_off_c, 1, 62, 0
2, 54880, Note_off_c, 1, 65, 0
2, 54880, Note_off_c, 1, 77, 0
2, 54920, Note_on_c, 1, 50, 127
2, 54920, Note_on_c, 1, 62, 127
2, 54920, Note_on_c, 1, 65, 127
2, 54920, Note_on_c, 1, 77, 127
2, 54960, Note_off_c, 1, 50, 0
2, 54960, Note_off_c, 1, 62, 0
2, 54960, Note_off_c, 1, 65, 0
2, 54960, Note_off_c, 1, 77, 0
2, 55040, Note_on_c, 1, 45, 127
2, 55040, Note_on_c, 1, 57, 127
2, 55040, Note_on_c, 1, 69, 127
2, 55080, Note_off_c, 1, 45, 0
2, 55080, Note_off_c, 1, 57, 0
2, 55080, Note_off_c, 1, 69, 0
2, 55120, Note_on_c, 1, 55, 127
2, 55120, Note_on_c, 1, 61, 127
2, 55120, Note_on_c, 1, 64, 127
2, 55120, Note_on_c, 1, 76, 127
2, 55120, Note_on_c, 1, 85, 127
2, 55160, Note_off_c, 1, 55, 0
2, 55160, Note_off_c, 1, 61, 0
2, 55160, Note_off_c, 1, 64, 0
2, 55160, Note_off_c, 1, 76, 0
2, 55160, Note_off_c, 1, 85, 0
2, 55240, Note_on_c, 1, 52, 127
2, 55240, Note_on_c, 1, 76, 127
2, 55280, Note_off_c, 1, 52, 0
2, 55280, Note_off_c, 1, 76, 0
2, 55320, Note_on_c, 1, 50, 127
2, 55320, Note_on_c, 1, 74, 127
2, 55360, Note_off_c, 1, 50, 0
2, 55360, Note_off_c, 1, 74, 0
2, 55400, Note_on_c, 1, 57, 127
2, 55400, Note_on_c, 1, 74, 127
2, 55440, Note_off_c, 1, 57, 0
2, 55440, Note_off_c, 1, 74, 0
2, 55520, Note_on_c, 1, 57, 127
2, 55520, Note_on_c, 1, 74, 127
2, 55560, Note_off_c, 1, 57, 0
2, 55560, Note_off_c, 1, 74, 0
2, 55600, Note_on_c, 1, 45, 127
2, 55600, Note_on_c, 1, 76, 127
2, 55640, Note_off_c, 1, 45, 0
2, 55640, Note_off_c, 1, 76, 0
2, 55720, Note_on_c, 1, 45, 127
2, 55720, Note_on_c, 1, 88, 127
2, 55760, Note_off_c, 1, 45, 0
2, 55760, Note_off_c, 1, 88, 0
2, 55840, Note_on_c, 1, 57, 127
2, 55840, Note_on_c, 1, 76, 127
2, 55840, Note_on_c, 1, 79, 127
2, 55840, Note_on_c, 1, 81, 127
2, 55880, Note_off_c, 1, 57, 0
2, 55880, Note_off_c, 1, 76, 0
2, 55880, Note_off_c, 1, 79, 0
2, 55880, Note_off_c, 1, 81, 0
2, 55960, Note_on_c, 1, 48, 127
2, 55960, Note_on_c, 1, 93, 127
2, 55960, Note_on_c, 1, 96, 127
2, 56000, Note_off_c, 1, 48, 0
2, 56000, Note_off_c, 1, 93, 0
2, 56000, Note_off_c, 1, 96, 0
2, 56040, Note_on_c, 1, 38, 127
2, 56040, Note_on_c, 1, 91, 127
2, 56080, Note_off_c, 1, 38, 0
2, 56080, Note_off_c, 1, 91, 0
2, 56160, Note_on_c, 1, 49, 127
2, 56160, Note_on_c, 1, 76, 127
2, 56160, Note_on_c, 1, 82, 127
2, 56200, Note_off_c, 1, 49, 0
2, 56200, Note_off_c, 1, 76, 0
2, 56200, Note_off_c, 1, 82, 0
2, 56240, Note_on_c, 1, 55, 127
2, 56240, Note_on_c, 1, 76, 127
2, 56240, Note_on_c, 1, 82, 127
2, 56240, Note_on_c, 1, 88, 127
2, 56280, Note_off_c, 1, 55, 0
2, 56280, Note_off_c, 1, 76, 0
2, 56280, Note_off_c, 1, 82, 0
2, 56280, Note_off_c, 1, 88, 0
2, 56360, Note_on_c, 1, 38, 127
2, 56360, Note_on_c, 1, 86, 127
2, 56360, Note_on_c, 1, 94, 127
2, 56360, Note_on_c, 1, 98, 127
2, 56400, Note_off_c, 1, 38, 0
2, 56400, Note_on_c, 1, 50, 127
2, 56400, Note_on_c, 1, 55, 127
2, 56400, Note_on_c, 1, 58, 127
2, 56400, Note_on_c, 1, 63, 127
2, 56400, Note_off_c, 1, 86, 0
2, 56400, Note_off_c, 1, 94, 0
2, 56400, Note_off_c, 1, 98, 0
2, 56440, Note_on_c, 1, 38, 127
2, 56440, Note_off_c, 1, 50, 0
2, 56440, Note_off_c, 1, 55, 0
2, 56440, Note_off_c, 1, 58, 0
2, 56440, Note_off_c, 1, 63, 0
2, 56440, Note_on_c, 1, 86, 127
2, 56440, Note_on_c, 1, 94, 127
2, 56440, Note_on_c, 1, 98, 127
2, 56520, Note_off_c, 1, 38, 0
2, 56520, Note_off_c, 1, 86, 0
2, 56520, Note_off_c, 1, 94, 0
2, 56520, Note_off_c, 1, 98, 0
2, 56560, Note_on_c, 1, 46, 127
2, 56560, Note_on_c, 1, 84, 127
2, 56560, Note_on_c, 1, 93, 127
2, 56560, Note_on_c, 1, 96, 127
2, 56600, Note_off_c, 1, 46, 0
2, 56600, Note_off_c, 1, 84, 0
2, 56600, Note_off_c, 1, 93, 0
2, 56600, Note_off_c, 1, 96, 0
2, 56640, Note_on_c, 1, 50, 127
2, 56640, Note_on_c, 1, 82, 127
2, 56640, Note_on_c, 1, 91, 127
2, 56640, Note_on_c, 1, 94, 127
2, 56680, Note_off_c, 1, 50, 0
2, 56680, Note_off_c, 1, 82, 0
2, 56680, Note_off_c, 1, 91, 0
2, 56680, Note_off_c, 1, 94, 0
2, 56760, Note_on_c, 1, 50, 127
2, 56760, Note_on_c, 1, 82, 127
2, 56760, Note_on_c, 1, 91, 127
2, 56760, Note_on_c, 1, 94, 127
2, 56800, Note_off_c, 1, 50, 0
2, 56800, Note_off_c, 1, 82, 0
2, 56800, Note_off_c, 1, 91, 0
2, 56800, Note_off_c, 1, 94, 0
2, 56840, Note_on_c, 1, 50, 127
2, 56840, Note_on_c, 1, 82, 127
2, 56840, Note_on_c, 1, 91, 127
2, 56840, Note_on_c, 1, 94, 127
2, 56880, Note_off_c, 1, 50, 0
2, 56880, Note_off_c, 1, 82, 0
2, 56880, Note_off_c, 1, 91, 0
2, 56880, Note_off_c, 1, 94, 0
2, 56960, Note_on_c, 1, 45, 127
2, 56960, Note_on_c, 1, 57, 127
2, 56960, Note_on_c, 1, 63, 127
2, 56960, Note_on_c, 1, 69, 127
2, 56960, Note_on_c, 1, 73, 127
2, 56960, Note_on_c, 1, 75, 127
2, 57000, Note_off_c, 1, 45, 0
2, 57000, Note_off_c, 1, 57, 0
2, 57000, Note_off_c, 1, 63, 0
2, 57000, Note_off_c, 1, 69, 0
2, 57000, Note_off_c, 1, 73, 0
2, 57000, Note_off_c, 1, 75, 0
2, 57040, Note_on_c, 1, 58, 127
2, 57080, Note_off_c, 1, 58, 0
2, 57160, Note_on_c, 1, 43, 127
2, 57160, Note_on_c, 1, 55, 127
2, 57160, Note_on_c, 1, 85, 127
2, 57160, Note_on_c, 1, 89, 127
2, 57160, Note_on_c, 1, 97, 127
2, 57200, Note_off_c, 1, 43, 0
2, 57200, Note_off_c, 1, 55, 0
2, 57200, Note_off_c, 1, 85, 0
2, 57200, Note_off_c, 1, 89, 0
2, 57200, Note_off_c, 1, 97, 0
2, 57360, Note_on_c, 1, 43, 127
2, 57360, Note_on_c, 1, 55, 127
2, 57360, Note_on_c, 1, 85, 127
2, 57360, Note_on_c, 1, 89, 127
2, 57360, Note_on_c, 1, 97, 127
2, 57400, Note_off_c, 1, 43, 0
2, 57400, Note_off_c, 1, 55, 0
2, 57400, Note_off_c, 1, 85, 0
2, 57400, Note_off_c, 1, 89, 0
2, 57400, Note_off_c, 1, 97, 0
2, 57560, Note_on_c, 1, 25, 127
2, 57560, Note_on_c, 1, 37, 127
2, 57560, Note_on_c, 1, 49, 127
2, 57560, Note_on_c, 1, 53, 127
2, 57560, Note_on_c, 1, 56, 127
2, 57560, Note_on_c, 1, 61, 127
2, 57600, Note_off_c, 1, 25, 0
2, 57600, Note_off_c, 1, 37, 0
2, 57600, Note_off_c, 1, 49, 0
2, 57600, Note_off_c, 1, 53, 0
2, 57600, Note_off_c, 1, 56, 0
2, 57600, Note_off_c, 1, 61, 0
2, 58000, Note_on_c, 1, 36, 127
2, 58000, Note_on_c, 1, 43, 127
2, 58000, Note_on_c, 1, 48, 127
2, 58040, Note_off_c, 1, 36, 0
2, 58040, Note_off_c, 1, 43, 0
2, 58040, Note_off_c, 1, 48, 0
2, 58200, Note_on_c, 1, 38, 127
2, 58240, Note_off_c, 1, 38, 0
2, 58280, Note_on_c, 1, 50, 127
2, 58360, Note_off_c, 1, 50, 0
2, 58400, Note_on_c, 1, 45, 127
2, 58400, Note_on_c, 1, 50, 127
2, 58440, Note_off_c, 1, 45, 0
2, 58440, Note_off_c, 1, 50, 0
2, 58480, Note_on_c, 1, 55, 127
2, 58560, Note_off_c, 1, 55, 0
2, 58600, Note_on_c, 1, 62, 127
2, 58640, Note_off_c, 1, 62, 0
2, 58800, Note_on_c, 1, 28, 127
2, 58800, Note_on_c, 1, 40, 127
2, 58800, Note_on_c, 1, 68, 127
2, 58800, Note_on_c, 1, 73, 127
2, 58800, Note_on_c, 1, 76, 127
2, 58840, Note_off_c, 1, 28, 0
2, 58840, Note_off_c, 1, 40, 0
2, 58840, Note_off_c, 1, 68, 0
2, 58840, Note_off_c, 1, 73, 0
2, 58840, Note_off_c, 1, 76, 0
2, 59000, Note_on_c, 1, 64, 127
2, 59000, Note_on_c, 1, 76, 127
2, 59000, Note_on_c, 1, 93, 127
2, 59040, Note_off_c, 1, 64, 0
2, 59040, Note_off_c, 1, 76, 0
2, 59040, Note_off_c, 1, 93, 0
2, 59160, Note_on_c, 1, 38, 127
2, 59200, Note_off_c, 1, 38, 0
2, 59200, Note_on_c, 1, 50, 127
2, 59200, Note_on_c, 1, 66, 127
2, 59200, Note_on_c, 1, 69, 127
2, 59200, Note_on_c, 1, 74, 127
2, 59240, Note_off_c, 1, 50, 0
2, 59240, Note_off_c, 1, 66, 0
2, 59240, Note_off_c, 1, 69, 0
2, 59240, Note_off_c, 1, 74, 0
2, 59360, Note_on_c, 1, 45, 127
2, 59400, Note_on_c, 1, 42, 127
2, 59400, Note_off_c, 1, 45, 0
2, 59400, Note_on_c, 1, 50, 127
2, 59440, Note_off_c, 1, 42, 0
2, 59440, Note_off_c, 1, 50, 0
2, 59600, Note_on_c, 1, 38, 127
2, 59600, Note_on_c, 1, 45, 127
2, 59600, Note_on_c, 1, 50, 127
2, 59640, Note_off_c, 1, 38, 0
2, 59640, Note_off_c, 1, 45, 0
2, 59640, Note_off_c, 1, 50, 0
2, 60040, Note_on_c, 1, 53, 127
2, 60040, Note_on_c, 1, 58, 127
2, 60040, Note_on_c, 1, 62, 127
2, 60040, Note_on_c, 1, 65, 127
2, 60080, Note_off_c, 1, 53, 0
2, 60080, Note_off_c, 1, 58, 0
2, 60080, Note_off_c, 1, 62, 0
2, 60080, Note_off_c, 1, 65, 0
2, 60440, Note_on_c, 1, 38, 127
2, 60440, Note_on_c, 1, 50, 127
2, 60440, Note_on_c, 1, 54, 127
2, 60440, Note_on_c, 1, 57, 127
2, 60440, Note_on_c, 1, 62, 127
2, 61200, Note_off_c, 1, 38, 0
2, 61200, Note_off_c, 1, 54, 0
2, 61200, Note_off_c, 1, 57, 0
2, 61200, Note_off_c, 1, 62, 0
2, 61240, Note_on_c, 1, 57, 127
2, 61600, Note_off_c, 1, 57, 0
2, 61640, Note_on_c, 1, 57, 127
2, 61960, Note_off_c, 1, 50, 0
2, 61960, Note_off_c, 1, 57, 0
2, 62000, Note_on_c, 1, 50, 127
2, 62000, Note_on_c, 1, 57, 127
2, 62040, Note_off_c, 1, 57, 0
2, 62080, Note_off_c, 1, 50, 0
2, 62120, Note_on_c, 1, 43, 127
2, 62120, Note_on_c, 1, 50, 127
2, 62120, Note_on_c, 1, 59, 127
2, 62120, Note_on_c, 1, 62, 127
2, 62120, Note_on_c, 1, 67, 127
2, 62480, Note_off_c, 1, 43, 0
2, 62480, Note_off_c, 1, 50, 0
2, 62480, Note_off_c, 1, 59, 0
2, 62480, Note_off_c, 1, 62, 0
2, 62480, Note_off_c, 1, 67, 0
2, 64360, Note_on_c, 1, 50, 127
2, 64360, Note_on_c, 1, 57, 127
2, 64360, Note_on_c, 1, 60, 127
2, 64360, Note_on_c, 1, 66, 127
2, 64400, Note_off_c, 1, 50, 0
2, 64440, Note_on_c, 1, 50, 127
2, 64440, Note_off_c, 1, 66, 0
2, 64440, Note_on_c, 1, 69, 127
2, 64480, Note_on_c, 1, 66, 127
2, 64480, Note_off_c, 1, 69, 0
2, 64520, Note_off_c, 1, 50, 0
2, 64520, Note_off_c, 1, 57, 0
2, 64520, Note_off_c, 1, 60, 0
2, 64520, Note_off_c, 1, 66, 0
2, 64560, Note_on_c, 1, 50, 127
2, 64560, Note_on_c, 1, 57, 127
2, 64560, Note_on_c, 1, 60, 127
2, 64560, Note_on_c, 1, 69, 127
2, 64840, Note_off_c, 1, 69, 0
2, 64880, Note_on_c, 1, 69, 127
2, 64920, Note_off_c, 1, 50, 0
2, 64920, Note_off_c, 1, 57, 0
2, 64920, Note_off_c, 1, 60, 0
2, 64920, Note_off_c, 1, 69, 0
2, 64960, Note_on_c, 1, 50, 127
2, 64960, Note_on_c, 1, 57, 127
2, 64960, Note_on_c, 1, 60, 127
2, 64960, Note_on_c, 1, 69, 127
2, 65120, Note_off_c, 1, 69, 0
2, 65160, Note_on_c, 1, 72, 127
2, 65360, Note_off_c, 1, 50, 0
2, 65360, Note_off_c, 1, 57, 0
2, 65360, Note_off_c, 1, 60, 0
2, 65360, Note_off_c, 1, 72, 0
2, 65400, Note_on_c, 1, 46, 127
2, 65400, Note_on_c, 1, 55, 127
2, 65400, Note_on_c, 1, 67, 127
2, 65760, Note_off_c, 1, 46, 0
2, 65760, Note_off_c, 1, 55, 0
2, 65760, Note_off_c, 1, 67, 0
2, 65800, Note_on_c, 1, 46, 127
2, 65800, Note_on_c, 1, 55, 127
2, 65800, Note_on_c, 1, 61, 127
2, 65800, Note_on_c, 1, 67, 127
2, 65960, Note_off_c, 1, 46, 0
2, 65960, Note_off_c, 1, 55, 0
2, 65960, Note_off_c, 1, 61, 0
2, 65960, Note_off_c, 1, 67, 0
2, 66000, Note_on_c, 1, 46, 127
2, 66040, Note_on_c, 1, 57, 127
2, 66040, Note_on_c, 1, 63, 127
2, 66080, Note_off_c, 1, 63, 0
2, 66120, Note_on_c, 1, 65, 127
2, 66200, Note_off_c, 1, 46, 0
2, 66200, Note_off_c, 1, 57, 0
2, 66200, Note_off_c, 1, 65, 0
2, 66240, Note_on_c, 1, 46, 127
2, 66240, Note_on_c, 1, 58, 127
2, 66240, Note_on_c, 1, 62, 127
2, 66400, Note_off_c, 1, 62, 0
2, 66440, Note_on_c, 1, 67, 127
2, 66600, Note_off_c, 1, 46, 0
2, 66600, Note_off_c, 1, 58, 0
2, 66600, Note_off_c, 1, 67, 0
2, 66640, Note_on_c, 1, 48, 127
2, 66640, Note_on_c, 1, 57, 127
2, 66640, Note_on_c, 1, 65, 127
2, 67440, Note_off_c, 1, 57, 0
2, 67440, Note_off_c, 1, 65, 0
2, 67480, Note_on_c, 1, 58, 127
2, 67480, Note_on_c, 1, 64, 127
2, 67480, Note_on_c, 1, 69, 127
2, 67760, Note_off_c, 1, 69, 0
2, 67800, Note_on_c, 1, 67, 127
2, 67840, Note_off_c, 1, 67, 0
2, 67880, Note_off_c, 1, 48, 0
2, 67880, Note_off_c, 1, 58, 0
2, 67880, Note_off_c, 1, 64, 0
2, 67960, Note_on_c, 1, 41, 127
2, 67960, Note_on_c, 1, 57, 127
2, 67960, Note_on_c, 1, 65, 127
2, 68560, Note_off_c, 1, 57, 0
2, 68600, Note_on_c, 1, 57, 127
2, 68760, Note_off_c, 1, 41, 0
2, 68760, Note_off_c, 1, 57, 0
2, 68760, Note_off_c, 1, 65, 0
2, 70400, Note_on_c, 1, 68, 127
2, 70680, Note_off_c, 1, 68, 0
2, 70720, Note_on_c, 1, 70, 127
2, 70800, Note_on_c, 1, 68, 127
2, 71000, Note_off_c, 1, 68, 0
2, 71040, Note_on_c, 1, 68, 127
2, 71200, Note_off_c, 1, 70, 0
2, 71240, Note_on_c, 1, 62, 127
2, 71240, Note_on_c, 1, 65, 127
2, 71600, Note_off_c, 1, 62, 0
2, 71600, Note_off_c, 1, 65, 0
2, 71600, Note_off_c, 1, 68, 0
2, 71640, Note_on_c, 1, 66, 127
2, 71640, Note_on_c, 1, 70, 127
2, 71640, Note_on_c, 1, 75, 127
2, 71720, Note_off_c, 1, 66, 0
2, 71720, Note_off_c, 1, 70, 0
2, 71720, Note_off_c, 1, 75, 0
2, 71760, Note_on_c, 1, 66, 127
2, 71760, Note_on_c, 1, 70, 127
2, 71760, Note_on_c, 1, 75, 127
2, 72080, Note_off_c, 1, 75, 0
2, 72120, Note_on_c, 1, 76, 127
2, 72280, Note_off_c, 1, 76, 0
2, 72320, Note_on_c, 1, 75, 127
2, 72480, Note_off_c, 1, 66, 0
2, 72480, Note_off_c, 1, 70, 0
2, 72480, Note_off_c, 1, 75, 0
2, 72520, Note_on_c, 1, 66, 127
2, 72520, Note_on_c, 1, 71, 127
2, 72520, Note_on_c, 1, 77, 127
2, 73280, Note_off_c, 1, 77, 0
2, 73320, Note_on_c, 1, 77, 127
2, 73440, Note_off_c, 1, 77, 0
2, 73480, Note_on_c, 1, 77, 127
2, 73600, Note_off_c, 1, 71, 0
2, 73600, Note_off_c, 1, 77, 0
2, 73640, Note_off_c, 1, 66, 0
2, 73680, Note_on_c, 1, 66, 127
2, 73680, Note_on_c, 1, 70, 127
2, 73680, Note_on_c, 1, 78, 127
2, 73880, Note_off_c, 1, 78, 0
2, 73920, Note_on_c, 1, 78, 127
2, 74080, Note_off_c, 1, 78, 0
2, 74120, Note_on_c, 1, 77, 127
2, 74480, Note_off_c, 1, 77, 0
2, 74520, Note_on_c, 1, 78, 127
2, 74680, Note_off_c, 1, 78, 0
2, 74720, Note_on_c, 1, 55, 127
2, 74720, Note_on_c, 1, 58, 127
2, 74720, Note_on_c, 1, 62, 127
2, 74720, Note_off_c, 1, 66, 0
2, 74720, Note_on_c, 1, 67, 127
2, 74880, Note_off_c, 1, 55, 0
2, 74880, Note_off_c, 1, 58, 0
2, 74880, Note_off_c, 1, 62, 0
2, 74880, Note_off_c, 1, 67, 0
2, 74880, Note_off_c, 1, 70, 0
2, 74920, Note_on_c, 1, 57, 127
2, 74920, Note_on_c, 1, 72, 127
2, 75120, Note_off_c, 1, 57, 0
2, 75160, Note_on_c, 1, 54, 127
2, 75520, Note_off_c, 1, 72, 0
2, 75560, Note_off_c, 1, 54, 0
2, 75600, Note_on_c, 1, 54, 127
2, 75600, Note_on_c, 1, 72, 127
2, 75760, Note_off_c, 1, 72, 0
2, 75800, Note_on_c, 1, 63, 127
2, 76000, Note_off_c, 1, 63, 0
2, 76040, Note_on_c, 1, 63, 127
2, 76200, Note_off_c, 1, 54, 0
2, 76200, Note_off_c, 1, 63, 0
2, 76240, Note_on_c, 1, 58, 127
2, 76240, Note_on_c, 1, 67, 127
2, 76640, Note_on_c, 1, 56, 127
2, 76640, Note_off_c, 1, 58, 0
2, 76640, Note_on_c, 1, 65, 127
2, 76640, Note_off_c, 1, 67, 0
2, 76640, Note_on_c, 1, 68, 127
2, 76680, Note_off_c, 1, 68, 0
2, 76680, Note_on_c, 1, 73, 127
2, 76840, Note_off_c, 1, 65, 0
2, 76840, Note_off_c, 1, 73, 0
2, 76880, Note_on_c, 1, 63, 127
2, 76880, Note_on_c, 1, 72, 127
2, 77040, Note_off_c, 1, 56, 0
2, 77040, Note_off_c, 1, 63, 0
2, 77040, Note_off_c, 1, 72, 0
2, 77080, Note_on_c, 1, 53, 127
2, 77080, Note_on_c, 1, 61, 127
2, 77520, Note_on_c, 1, 72, 127
2, 77680, Note_off_c, 1, 53, 0
2, 77680, Note_off_c, 1, 61, 0
2, 77680, Note_off_c, 1, 72, 0
2, 77720, Note_on_c, 1, 53, 127
2, 77720, Note_on_c, 1, 61, 127
2, 77760, Note_on_c, 1, 70, 127
2, 77920, Note_off_c, 1, 70, 0
2, 77960, Note_on_c, 1, 49, 127
2, 77960, Note_off_c, 1, 53, 0
2, 77960, Note_off_c, 1, 61, 0
2, 77960, Note_on_c, 1, 65, 127
2, 77960, Note_on_c, 1, 68, 127
2, 77960, Note_on_c, 1, 77, 127
2, 78360, Note_off_c, 1, 49, 0
2, 78360, Note_on_c, 1, 61, 127
2, 78360, Note_off_c, 1, 68, 0
2, 78360, Note_off_c, 1, 77, 0
2, 78400, Note_on_c, 1, 56, 127
2, 78400, Note_on_c, 1, 70, 127
2, 78520, Note_off_c, 1, 56, 0
2, 78560, Note_on_c, 1, 68, 127
2, 78560, Note_off_c, 1, 70, 0
2, 78600, Note_on_c, 1, 56, 127
2, 78600, Note_off_c, 1, 68, 0
2, 78600, Note_on_c, 1, 70, 127
2, 78720, Note_off_c, 1, 56, 0
2, 78760, Note_on_c, 1, 49, 127
2, 78760, Note_on_c, 1, 56, 127
2, 78760, Note_on_c, 1, 68, 127
2, 78760, Note_off_c, 1, 70, 0
2, 78760, Note_on_c, 1, 73, 127
2, 78760, Note_on_c, 1, 77, 127
2, 79720, Note_off_c, 1, 49, 0
2, 79720, Note_off_c, 1, 56, 0
2, 79720, Note_off_c, 1, 61, 0
2, 79720, Note_off_c, 1, 65, 0
2, 79720, Note_off_c, 1, 68, 0
2, 79720, Note_off_c, 1, 73, 0
2, 79720, Note_off_c, 1, 77, 0
2, 79760, Note_on_c, 1, 49, 127
2, 79760, Note_on_c, 1, 56, 127
2, 79760, Note_on_c, 1, 61, 127
2, 79760, Note_on_c, 1, 65, 127
2, 79760, Note_on_c, 1, 68, 127
2, 79760, Note_on_c, 1, 73, 127
2, 79760, Note_on_c, 1, 77, 127
2, 80960, Note_off_c, 1, 49, 0
2, 80960, Note_off_c, 1, 56, 0
2, 80960, Note_off_c, 1, 61, 0
2, 80960, Note_off_c, 1, 65, 0
2, 80960, Note_off_c, 1, 68, 0
2, 80960, Note_off_c, 1, 73, 0
2, 80960, Note_off_c, 1, 77, 0
2, 81000, Note_on_c, 1, 56, 127
2, 81000, Note_on_c, 1, 61, 127
2, 81000, Note_on_c, 1, 65, 127
2, 81240, Note_on_c, 1, 73, 127
2, 81400, Note_off_c, 1, 73, 0
2, 81440, Note_on_c, 1, 49, 127
2, 81440, Note_on_c, 1, 54, 127
2, 81440, Note_off_c, 1, 56, 0
2, 81440, Note_on_c, 1, 59, 127
2, 81440, Note_off_c, 1, 65, 0
2, 81440, Note_on_c, 1, 68, 127
2, 81760, Note_off_c, 1, 54, 0
2, 81800, Note_off_c, 1, 49, 0
2, 81800, Note_off_c, 1, 59, 0
2, 81800, Note_off_c, 1, 61, 0
2, 81800, Note_off_c, 1, 68, 0
2, 81840, Note_on_c, 1, 42, 127
2, 81840, Note_on_c, 1, 49, 127
2, 81840, Note_on_c, 1, 54, 127
2, 81840, Note_on_c, 1, 58, 127
2, 81840, Note_on_c, 1, 61, 127
2, 81840, Note_on_c, 1, 66, 127
2, 81960, Note_off_c, 1, 42, 0
2, 81960, Note_off_c, 1, 49, 0
2, 81960, Note_off_c, 1, 54, 0
2, 81960, Note_off_c, 1, 58, 0
2, 81960, Note_off_c, 1, 61, 0
2, 81960, Note_off_c, 1, 66, 0
2, 82000, Note_on_c, 1, 42, 127
2, 82000, Note_on_c, 1, 49, 127
2, 82000, Note_on_c, 1, 54, 127
2, 82000, Note_on_c, 1, 58, 127
2, 82000, Note_on_c, 1, 61, 127
2, 82000, Note_on_c, 1, 66, 127
2, 83120, Note_off_c, 1, 42, 0
2, 83120, Note_off_c, 1, 49, 0
2, 83120, Note_off_c, 1, 54, 0
2, 83120, Note_off_c, 1, 58, 0
2, 83120, Note_off_c, 1, 61, 0
2, 83120, Note_off_c, 1, 66, 0
2, 84200, Note_on_c, 1, 54, 127
2, 84200, Note_on_c, 1, 61, 127
2, 84200, Note_on_c, 1, 70, 127
2, 84800, Note_off_c, 1, 61, 0
2, 84840, Note_on_c, 1, 51, 127
2, 84840, Note_off_c, 1, 54, 0
2, 84840, Note_on_c, 1, 60, 127
2, 84840, Note_on_c, 1, 66, 127
2, 84960, Note_off_c, 1, 70, 0
2, 85000, Note_on_c, 1, 48, 127
2, 85000, Note_on_c, 1, 58, 127
2, 85000, Note_off_c, 1, 60, 0
2, 85000, Note_on_c, 1, 63, 127
2, 85000, Note_off_c, 1, 66, 0
2, 85000, Note_on_c, 1, 70, 127
2, 85200, Note_off_c, 1, 48, 0
2, 85200, Note_on_c, 1, 49, 127
2, 85200, Note_off_c, 1, 51, 0
2, 85200, Note_on_c, 1, 57, 127
2, 85200, Note_off_c, 1, 58, 0
2, 85200, Note_off_c, 1, 63, 0
2, 85200, Note_on_c, 1, 64, 127
2, 85200, Note_off_c, 1, 70, 0
2, 85240, Note_off_c, 1, 49, 0
2, 85240, Note_off_c, 1, 57, 0
2, 85240, Note_on_c, 1, 59, 127
2, 85240, Note_on_c, 1, 69, 127
2, 85240, Note_on_c, 1, 83, 127
2, 85400, Note_off_c, 1, 69, 0
2, 85400, Note_off_c, 1, 83, 0
2, 85440, Note_on_c, 1, 45, 127
2, 85440, Note_on_c, 1, 57, 127
2, 85440, Note_off_c, 1, 59, 0
2, 85440, Note_on_c, 1, 60, 127
2, 85440, Note_off_c, 1, 64, 0
2, 85440, Note_on_c, 1, 66, 127
2, 85640, Note_off_c, 1, 45, 0
2, 85680, Note_on_c, 1, 45, 127
2, 86040, Note_off_c, 1, 45, 0
2, 86040, Note_off_c, 1, 57, 0
2, 86040, Note_off_c, 1, 60, 0
2, 86040, Note_off_c, 1, 66, 0
2, 86080, Note_on_c, 1, 45, 127
2, 86080, Note_on_c, 1, 57, 127
2, 86080, Note_on_c, 1, 60, 127
2, 86080, Note_on_c, 1, 66, 127
2, 86120, Note_off_c, 1, 45, 0
2, 86120, Note_off_c, 1, 57, 0
2, 86120, Note_off_c, 1, 60, 0
2, 86120, Note_off_c, 1, 66, 0
2, 86160, Note_on_c, 1, 45, 127
2, 86160, Note_on_c, 1, 57, 127
2, 86160, Note_on_c, 1, 60, 127
2, 86160, Note_on_c, 1, 66, 127
2, 86560, Note_off_c, 1, 45, 0
2, 86560, Note_off_c, 1, 57, 0
2, 86560, Note_off_c, 1, 60, 0
2, 86560, Note_off_c, 1, 66, 0
2, 86600, Note_on_c, 1, 50, 127
2, 86600, Note_on_c, 1, 57, 127
2, 86600, Note_on_c, 1, 62, 127
2, 86600, Note_on_c, 1, 66, 127
2, 87400, Note_off_c, 1, 50, 0
2, 87400, Note_off_c, 1, 57, 0
2, 87400, Note_off_c, 1, 62, 0
2, 87400, Note_off_c, 1, 66, 0
2, 87440, Note_on_c, 1, 45, 127
2, 87440, Note_on_c, 1, 57, 127
2, 87440, Note_on_c, 1, 61, 127
2, 87440, Note_on_c, 1, 64, 127
2, 87800, Note_off_c, 1, 45, 0
2, 87840, Note_on_c, 1, 45, 127
2, 88160, Note_off_c, 1, 57, 0
2, 88160, Note_off_c, 1, 61, 0
2, 88160, Note_off_c, 1, 64, 0
2, 88160, Note_on_c, 1, 69, 127
2, 88200, Note_off_c, 1, 45, 0
2, 88200, Note_off_c, 1, 69, 0
2, 88240, Note_on_c, 1, 69, 127
2, 88280, Note_on_c, 1, 49, 127
2, 88520, Note_off_c, 1, 69, 0
2, 88560, Note_on_c, 1, 64, 127
2, 88720, Note_off_c, 1, 49, 0
2, 88720, Note_off_c, 1, 64, 0
2, 88760, Note_on_c, 1, 38, 127
2, 88760, Note_on_c, 1, 61, 127
2, 89160, Note_off_c, 1, 38, 0
2, 89200, Note_on_c, 1, 38, 127
2, 89560, Note_off_c, 1, 38, 0
2, 89560, Note_off_c, 1, 61, 0
2, 89600, Note_on_c, 1, 37, 127
2, 89600, Note_on_c, 1, 61, 127
2, 89800, Note_off_c, 1, 37, 0
2, 89800, Note_off_c, 1, 61, 0
2, 89840, Note_on_c, 1, 61, 127
2, 90240, Note_off_c, 1, 61, 0
2, 90280, Note_on_c, 1, 61, 127
2, 91040, Note_off_c, 1, 61, 0
2, 91080, Note_on_c, 1, 58, 127
2, 91280, Note_off_c, 1, 58, 0
2, 91320, Note_on_c, 1, 61, 127
2, 91480, Note_off_c, 1, 61, 0
2, 91520, Note_on_c, 1, 64, 127
2, 91720, Note_off_c, 1, 64, 0
2, 91720, Note_on_c, 1, 65, 127
2, 92120, Note_off_c, 1, 65, 0
2, 92160, Note_on_c, 1, 45, 127
2, 92160, Note_on_c, 1, 52, 127
2, 92160, Note_on_c, 1, 61, 127
2, 92160, Note_on_c, 1, 64, 127
2, 92160, Note_on_c, 1, 73, 127
2, 92400, Note_off_c, 1, 45, 0
2, 92400, Note_off_c, 1, 52, 0
2, 92400, Note_off_c, 1, 61, 0
2, 92400, Note_off_c, 1, 64, 0
2, 92400, Note_off_c, 1, 73, 0
2, 92440, Note_on_c, 1, 45, 127
2, 92440, Note_on_c, 1, 52, 127
2, 92440, Note_on_c, 1, 61, 127
2, 92440, Note_on_c, 1, 64, 127
2, 92440, Note_on_c, 1, 73, 127
2, 92600, Note_off_c, 1, 61, 0
2, 92600, Note_off_c, 1, 64, 0
2, 92600, Note_off_c, 1, 73, 0
2, 92640, Note_on_c, 1, 62, 127
2, 92640, Note_on_c, 1, 64, 127
2, 92640, Note_on_c, 1, 74, 127
2, 92800, Note_off_c, 1, 45, 0
2, 92800, Note_off_c, 1, 52, 0
2, 92800, Note_off_c, 1, 62, 0
2, 92800, Note_off_c, 1, 64, 0
2, 92800, Note_off_c, 1, 74, 0
2, 92840, Note_on_c, 1, 50, 127
2, 92840, Note_on_c, 1, 52, 127
2, 92840, Note_on_c, 1, 61, 127
2, 92840, Note_on_c, 1, 64, 127
2, 92840, Note_on_c, 1, 73, 127
2, 93400, Note_off_c, 1, 52, 0
2, 93400, Note_off_c, 1, 61, 0
2, 93400, Note_off_c, 1, 64, 0
2, 93400, Note_off_c, 1, 73, 0
2, 93440, Note_on_c, 1, 49, 127
2, 93440, Note_off_c, 1, 50, 0
2, 93440, Note_on_c, 1, 52, 127
2, 93440, Note_on_c, 1, 59, 127
2, 93440, Note_on_c, 1, 64, 127
2, 93440, Note_on_c, 1, 71, 127
2, 94240, Note_off_c, 1, 52, 0
2, 94240, Note_off_c, 1, 59, 0
2, 94240, Note_off_c, 1, 64, 0
2, 94240, Note_off_c, 1, 71, 0
2, 94280, Note_off_c, 1, 49, 0
2, 94280, Note_on_c, 1, 63, 127
2, 94280, Note_on_c, 1, 69, 127
2, 94280, Note_on_c, 1, 73, 127
2, 94280, Note_on_c, 1, 76, 127
2, 94280, Note_on_c, 1, 80, 127
2, 94680, Note_off_c, 1, 63, 0
2, 94680, Note_off_c, 1, 69, 0
2, 94680, Note_off_c, 1, 73, 0
2, 94680, Note_off_c, 1, 76, 0
2, 94680, Note_off_c, 1, 80, 0
2, 94720, Note_on_c, 1, 52, 127
2, 94720, Note_on_c, 1, 61, 127
2, 94760, Note_on_c, 1, 30, 127
2, 94760, Note_on_c, 1, 42, 127
2, 94760, Note_off_c, 1, 52, 0
2, 94760, Note_off_c, 1, 61, 0
2, 94760, Note_on_c, 1, 90, 127
2, 94760, Note_on_c, 1, 94, 127
2, 94760, Note_on_c, 1, 97, 127
2, 94760, Note_on_c, 1, 102, 127
2, 96800, Note_off_c, 1, 30, 0
2, 96800, Note_off_c, 1, 42, 0
2, 96800, Note_off_c, 1, 90, 0
2, 96800, Note_off_c, 1, 94, 0
2, 96800, Note_off_c, 1, 97, 0
2, 96800, Note_off_c, 1, 102, 0
2, 96880, Note_on_c, 1, 43, 127
2, 96880, Note_on_c, 1, 74, 127
2, 97320, Note_on_c, 1, 50, 127
2, 97480, Note_off_c, 1, 74, 0
2, 97520, Note_on_c, 1, 71, 127
2, 97520, Note_on_c, 1, 74, 127
2, 97680, Note_off_c, 1, 71, 0
2, 97680, Note_off_c, 1, 74, 0
2, 97720, Note_on_c, 1, 79, 127
2, 97720, Note_on_c, 1, 83, 127
2, 97880, Note_off_c, 1, 79, 0
2, 97880, Note_off_c, 1, 83, 0
2, 97920, Note_on_c, 1, 74, 127
2, 97920, Note_on_c, 1, 81, 127
2, 98080, Note_off_c, 1, 74, 0
2, 98080, Note_off_c, 1, 81, 0
2, 98120, Note_on_c, 1, 67, 127
2, 98120, Note_on_c, 1, 76, 127
2, 98280, Note_off_c, 1, 67, 0
2, 98280, Note_off_c, 1, 76, 0
2, 98320, Note_on_c, 1, 41, 127
2, 98320, Note_off_c, 1, 43, 0
2, 98320, Note_off_c, 1, 50, 0
2, 98320, Note_on_c, 1, 53, 127
2, 98320, Note_on_c, 1, 74, 127
2, 98320, Note_on_c, 1, 86, 127
2, 98480, Note_off_c, 1, 41, 0
2, 98480, Note_on_c, 1, 43, 127
2, 98480, Note_on_c, 1, 50, 127
2, 98480, Note_off_c, 1, 53, 0
2, 98480, Note_off_c, 1, 74, 0
2, 98480, Note_off_c, 1, 86, 0
2, 98520, Note_on_c, 1, 38, 127
2, 98520, Note_off_c, 1, 43, 0
2, 98520, Note_on_c, 1, 46, 127
2, 98520, Note_on_c, 1, 70, 127
2, 98520, Note_on_c, 1, 77, 127
2, 98520, Note_on_c, 1, 80, 127
2, 98520, Note_on_c, 1, 82, 127
2, 98680, Note_off_c, 1, 38, 0
2, 98680, Note_on_c, 1, 43, 127
2, 98680, Note_off_c, 1, 46, 0
2, 98680, Note_off_c, 1, 70, 0
2, 98680, Note_off_c, 1, 77, 0
2, 98680, Note_off_c, 1, 80, 0
2, 98680, Note_off_c, 1, 82, 0
2, 98720, Note_off_c, 1, 43, 0
2, 98720, Note_on_c, 1, 45, 127
2, 98720, Note_on_c, 1, 47, 127
2, 98720, Note_off_c, 1, 50, 0
2, 98720, Note_on_c, 1, 51, 127
2, 98720, Note_on_c, 1, 54, 127
2, 98720, Note_on_c, 1, 59, 127
2, 98880, Note_off_c, 1, 45, 0
2, 98880, Note_off_c, 1, 47, 0
2, 98880, Note_off_c, 1, 51, 0
2, 98880, Note_off_c, 1, 54, 0
2, 98880, Note_off_c, 1, 59, 0
2, 98920, Note_on_c, 1, 48, 127
2, 98920, Note_on_c, 1, 61, 127
2, 98920, Note_on_c, 1, 73, 127
2, 98960, Note_off_c, 1, 48, 0
2, 98960, Note_off_c, 1, 61, 0
2, 98960, Note_off_c, 1, 73, 0
2, 99000, Note_on_c, 1, 40, 127
2, 99000, Note_on_c, 1, 60, 127
2, 99000, Note_on_c, 1, 72, 127
2, 99040, Note_off_c, 1, 40, 0
2, 99040, Note_on_c, 1, 48, 127
2, 99040, Note_off_c, 1, 60, 0
2, 99040, Note_on_c, 1, 61, 127
2, 99040, Note_off_c, 1, 72, 0
2, 99040, Note_on_c, 1, 73, 127
2, 99080, Note_on_c, 1, 42, 127
2, 99080, Note_on_c, 1, 47, 127
2, 99080, Note_off_c, 1, 48, 0
2, 99080, Note_on_c, 1, 51, 127
2, 99080, Note_off_c, 1, 61, 0
2, 99080, Note_on_c, 1, 63, 127
2, 99080, Note_on_c, 1, 71, 127
2, 99080, Note_off_c, 1, 73, 0
2, 99080, Note_on_c, 1, 75, 127
2, 99120, Note_off_c, 1, 42, 0
2, 99120, Note_on_c, 1, 46, 127
2, 99120, Note_off_c, 1, 47, 0
2, 99120, Note_off_c, 1, 51, 0
2, 99120, Note_on_c, 1, 60, 127
2, 99120, Note_off_c, 1, 63, 0
2, 99120, Note_off_c, 1, 71, 0
2, 99120, Note_on_c, 1, 72, 127
2, 99120, Note_off_c, 1, 75, 0
2, 99160, Note_on_c, 1, 41, 127
2, 99160, Note_off_c, 1, 46, 0
2, 99160, Note_off_c, 1, 60, 0
2, 99160, Note_off_c, 1, 72, 0
2, 99200, Note_off_c, 1, 41, 0
2, 99200, Note_on_c, 1, 43, 127
2, 99200, Note_on_c, 1, 60, 127
2, 99200, Note_on_c, 1, 72, 127
2, 99360, Note_off_c, 1, 43, 0
2, 99360, Note_off_c, 1, 60, 0
2, 99360, Note_off_c, 1, 72, 0
2, 99400, Note_on_c, 1, 43, 127
2, 99400, Note_on_c, 1, 62, 127
2, 99400, Note_on_c, 1, 74, 127
2, 100000, Note_off_c, 1, 43, 0
2, 100000, Note_on_c, 1, 45, 127
2, 100000, Note_on_c, 1, 50, 127
2, 100000, Note_on_c, 1, 60, 127
2, 100000, Note_off_c, 1, 62, 0
2, 100000, Note_on_c, 1, 72, 127
2, 100000, Note_off_c, 1, 74, 0
2, 100160, Note_off_c, 1, 45, 0
2, 100160, Note_off_c, 1, 50, 0
2, 100160, Note_off_c, 1, 60, 0
2, 100160, Note_off_c, 1, 72, 0
2, 100200, Note_on_c, 1, 38, 127
2, 100200, Note_on_c, 1, 50, 127
2, 100200, Note_on_c, 1, 62, 127
2, 100200, Note_on_c, 1, 74, 127
2, 100800, Note_off_c, 1, 38, 0
2, 100800, Note_off_c, 1, 50, 0
2, 100800, Note_off_c, 1, 62, 0
2, 100800, Note_off_c, 1, 74, 0
2, 100840, Note_on_c, 1, 31, 127
2, 100840, Note_on_c, 1, 43, 127
2, 100840, Note_on_c, 1, 55, 127
2, 101160, Note_off_c, 1, 31, 0
2, 101160, Note_off_c, 1, 43, 0
2, 101160, Note_off_c, 1, 55, 0
2, 101200, Note_on_c, 1, 31, 127
2, 101200, Note_on_c, 1, 43, 127
2, 101200, Note_on_c, 1, 55, 127
2, 101480, Note_off_c, 1, 31, 0
2, 101480, Note_off_c, 1, 43, 0
2, 101480, Note_off_c, 1, 55, 0
2, 101520, Note_on_c, 1, 31, 127
2, 101520, Note_on_c, 1, 43, 127
2, 101520, Note_on_c, 1, 55, 127
2, 102080, Note_off_c, 1, 31, 0
2, 102080, Note_off_c, 1, 43, 0
2, 102080, Note_off_c, 1, 55, 0
2, 102120, Note_on_c, 1, 29, 127
2, 102120, Note_on_c, 1, 41, 127
2, 102120, Note_on_c, 1, 53, 127
2, 102560, Note_off_c, 1, 29, 0
2, 102560, Note_off_c, 1, 41, 0
2, 102560, Note_on_c, 1, 43, 127
2, 102560, Note_off_c, 1, 53, 0
2, 102560, Note_on_c, 1, 56, 127
2, 102560, Note_on_c, 1, 59, 127
2, 102560, Note_on_c, 1, 62, 127
2, 102920, Note_off_c, 1, 56, 0
2, 102960, Note_on_c, 1, 55, 127
2, 103320, Note_off_c, 1, 43, 0
2, 103320, Note_off_c, 1, 55, 0
2, 103320, Note_off_c, 1, 59, 0
2, 103320, Note_off_c, 1, 62, 0
2, 103360, Note_on_c, 1, 43, 127
2, 103360, Note_on_c, 1, 55, 127
2, 103360, Note_on_c, 1, 59, 127
2, 103360, Note_on_c, 1, 62, 127
2, 103400, Note_off_c, 1, 43, 0
2, 103400, Note_off_c, 1, 55, 0
2, 103400, Note_off_c, 1, 59, 0
2, 103400, Note_off_c, 1, 62, 0
2, 103440, Note_on_c, 1, 36, 127
2, 103440, Note_on_c, 1, 48, 127
2, 103440, Note_on_c, 1, 60, 127
2, 104240, Note_off_c, 1, 36, 0
2, 104240, Note_off_c, 1, 48, 0
2, 104240, Note_off_c, 1, 60, 0
2, 104280, Note_on_c, 1, 33, 127
2, 104280, Note_on_c, 1, 45, 127
2, 104280, Note_on_c, 1, 57, 127
2, 104680, Note_off_c, 1, 57, 0
2, 104720, Note_on_c, 1, 61, 127
2, 104880, Note_off_c, 1, 61, 0
2, 104920, Note_on_c, 1, 67, 127
2, 105080, Note_off_c, 1, 67, 0
2, 105120, Note_off_c, 1, 33, 0
2, 105120, Note_on_c, 1, 37, 127
2, 105120, Note_off_c, 1, 45, 0
2, 105120, Note_on_c, 1, 49, 127
2, 105120, Note_on_c, 1, 63, 127
2, 105320, Note_off_c, 1, 63, 0
2, 105360, Note_off_c, 1, 37, 0
2, 105360, Note_off_c, 1, 49, 0
2, 105400, Note_on_c, 1, 37, 127
2, 105400, Note_on_c, 1, 49, 127
2, 105400, Note_on_c, 1, 66, 127
2, 105560, Note_off_c, 1, 66, 0
2, 105600, Note_on_c, 1, 66, 127
2, 105600, Note_on_c, 1, 69, 127
2, 105760, Note_off_c, 1, 66, 0
2, 105760, Note_off_c, 1, 69, 0
2, 105800, Note_on_c, 1, 61, 127
2, 106000, Note_off_c, 1, 61, 0
2, 106040, Note_on_c, 1, 67, 127
2, 106240, Note_on_c, 1, 58, 127
2, 106240, Note_on_c, 1, 64, 127
2, 106240, Note_off_c, 1, 67, 0
2, 106840, Note_off_c, 1, 37, 0
2, 106840, Note_off_c, 1, 49, 0
2, 106840, Note_off_c, 1, 58, 0
2, 106840, Note_off_c, 1, 64, 0
2, 106880, Note_on_c, 1, 37, 127
2, 106880, Note_on_c, 1, 49, 127
2, 106880, Note_on_c, 1, 57, 127
2, 106880, Note_on_c, 1, 64, 127
2, 107280, Note_on_c, 1, 35, 127
2, 107280, Note_off_c, 1, 37, 0
2, 107280, Note_on_c, 1, 47, 127
2, 107280, Note_off_c, 1, 49, 0
2, 107280, Note_off_c, 1, 57, 0
2, 107280, Note_off_c, 1, 64, 0
2, 107360, Note_on_c, 1, 60, 127
2, 107480, Note_off_c, 1, 35, 0
2, 107480, Note_off_c, 1, 47, 0
2, 107480, Note_off_c, 1, 60, 0
2, 107520, Note_on_c, 1, 35, 127
2, 107520, Note_on_c, 1, 47, 127
2, 107560, Note_on_c, 1, 60, 127
2, 107760, Note_off_c, 1, 60, 0
2, 107760, Note_on_c, 1, 64, 127
2, 108560, Note_off_c, 1, 35, 0
2, 108560, Note_off_c, 1, 47, 0
2, 108560, Note_off_c, 1, 64, 0
2, 108600, Note_on_c, 1, 31, 127
2, 108600, Note_on_c, 1, 43, 127
2, 108600, Note_on_c, 1, 55, 127
2, 108800, Note_off_c, 1, 55, 0
2, 108840, Note_on_c, 1, 59, 127
2, 109200, Note_off_c, 1, 59, 0
2, 109240, Note_off_c, 1, 31, 0
2, 109240, Note_on_c, 1, 32, 127
2, 109240, Note_off_c, 1, 43, 0
2, 109240, Note_on_c, 1, 60, 127
2, 109240, Note_on_c, 1, 63, 127
2, 109440, Note_off_c, 1, 32, 0
2, 109440, Note_off_c, 1, 60, 0
2, 109480, Note_off_c, 1, 63, 0
2, 109520, Note_on_c, 1, 51, 127
2, 109520, Note_on_c, 1, 54, 127
2, 109520, Note_on_c, 1, 66, 127
2, 109880, Note_off_c, 1, 51, 0
2, 109880, Note_off_c, 1, 54, 0
2, 109880, Note_off_c, 1, 66, 0
2, 109920, Note_on_c, 1, 52, 127
2, 109920, Note_on_c, 1, 54, 127
2, 109920, Note_on_c, 1, 68, 127
2, 110720, Note_off_c, 1, 52, 0
2, 110720, Note_off_c, 1, 54, 0
2, 110720, Note_off_c, 1, 68, 0
2, 110760, Note_on_c, 1, 51, 127
2, 110760, Note_on_c, 1, 54, 127
2, 110760, Note_on_c, 1, 66, 127
2, 111160, Note_off_c, 1, 51, 0
2, 111160, Note_off_c, 1, 54, 0
2, 111160, Note_off_c, 1, 66, 0
2, 111200, Note_on_c, 1, 49, 127
2, 111200, Note_on_c, 1, 61, 127
2, 111200, Note_on_c, 1, 64, 127
2, 111200, Note_on_c, 1, 70, 127
2, 111480, Note_off_c, 1, 49, 0
2, 111480, Note_off_c, 1, 61, 0
2, 111480, Note_off_c, 1, 64, 0
2, 111480, Note_off_c, 1, 70, 0
2, 111520, Note_on_c, 1, 49, 127
2, 111520, Note_on_c, 1, 61, 127
2, 111520, Note_on_c, 1, 64, 127
2, 111520, Note_on_c, 1, 70, 127
2, 111600, Note_off_c, 1, 49, 0
2, 111600, Note_off_c, 1, 61, 0
2, 111600, Note_off_c, 1, 64, 0
2, 111600, Note_off_c, 1, 70, 0
2, 111640, Note_on_c, 1, 39, 127
2, 111640, Note_on_c, 1, 63, 127
2, 111640, Note_on_c, 1, 67, 127
2, 112040, Note_off_c, 1, 63, 0
2, 112080, Note_off_c, 1, 39, 0
2, 112080, Note_on_c, 1, 49, 127
2, 112080, Note_on_c, 1, 63, 127
2, 112080, Note_on_c, 1, 70, 127
2, 112440, Note_off_c, 1, 49, 0
2, 112440, Note_on_c, 1, 51, 127
2, 112440, Note_off_c, 1, 63, 0
2, 112880, Note_off_c, 1, 51, 0
2, 112880, Note_off_c, 1, 67, 0
2, 112880, Note_off_c, 1, 70, 0
2, 112920, Note_on_c, 1, 44, 127
2, 113320, Note_on_c, 1, 51, 127
2, 113320, Note_on_c, 1, 60, 127
2, 113320, Note_on_c, 1, 66, 127
2, 113600, Note_off_c, 1, 44, 0
2, 113600, Note_off_c, 1, 51, 0
2, 113600, Note_off_c, 1, 60, 0
2, 113600, Note_off_c, 1, 66, 0
2, 113640, Note_on_c, 1, 44, 127
2, 113640, Note_on_c, 1, 51, 127
2, 113640, Note_on_c, 1, 60, 127
2, 113640, Note_on_c, 1, 66, 127
2, 113760, Note_off_c, 1, 51, 0
2, 113760, Note_off_c, 1, 66, 0
2, 113800, Note_on_c, 1, 51, 127
2, 113800, Note_on_c, 1, 63, 127
2, 114600, Note_off_c, 1, 44, 0
2, 114600, Note_off_c, 1, 51, 0
2, 114600, Note_off_c, 1, 60, 0
2, 114600, Note_off_c, 1, 63, 0
2, 114640, Note_on_c, 1, 39, 127
2, 114920, Note_off_c, 1, 39, 0
2, 114920, Note_on_c, 1, 41, 127
2, 114960, Note_on_c, 1, 39, 127
2, 114960, Note_off_c, 1, 41, 0
2, 115240, Note_off_c, 1, 39, 0
2, 115280, Note_on_c, 1, 39, 127
2, 115720, Note_on_c, 1, 46, 127
2, 115800, Note_off_c, 1, 39, 0
2, 115800, Note_off_c, 1, 46, 0
2, 115840, Note_on_c, 1, 39, 127
2, 115840, Note_on_c, 1, 46, 127
2, 116120, Note_off_c, 1, 39, 0
2, 116120, Note_off_c, 1, 46, 0
2, 116600, Note_on_c, 1, 35, 127
2, 117400, Note_off_c, 1, 35, 0
2, 117440, Note_on_c, 1, 35, 127
2, 118200, Note_off_c, 1, 35, 0
2, 118240, Note_on_c, 1, 35, 127
2, 118280, Note_off_c, 1, 35, 0
2, 118320, Note_on_c, 1, 35, 127
2, 119560, Note_off_c, 1, 35, 0
2, 120040, End_track
3, 0, Start_track
3, 0, Title_t, "MIDI"
3, 1536, End_track
0, 0, End_of_file
