0, 0, Header, 1, 3, 192
1, 0, Start_track
1, 0, Time_signature, 4, 2, 24, 8
1, 0, Tempo, 500000
1, 120040, End_track
2, 0, Start_track
2, 0, Text_t, "random instrument: random person i dunno whatev"
2, 0, Title_t, "Track 1"
2, 0, Note_on_c, 1, 50, 127
2, 0, Note_on_c, 1, 57, 127
2, 0, Note_on_c, 1, 65, 127
2, 0, Note_on_c, 1, 69, 127
2, 0, Note_on_c, 1, 74, 127
2, 0, Note_on_c, 1, 77, 127
2, 0, Note_on_c, 1, 81, 127
2, 80, Note_off_c, 1, 50, 0
2, 80, Note_off_c, 1, 57, 0
2, 80, Note_off_c, 1, 65, 0
2, 80, Note_off_c, 1, 69, 0
2, 80, Note_off_c, 1, 74, 0
2, 80, Note_off_c, 1, 77, 0
2, 80, Note_off_c, 1, 81, 0
2, 120, Note_on_c, 1, 50, 127
2, 120, Note_on_c, 1, 57, 127
2, 120, Note_on_c, 1, 65, 127
2, 120, Note_on_c, 1, 69, 127
2, 120, Note_on_c, 1, 74, 127
2, 120, Note_on_c, 1, 77, 127
2, 120, Note_on_c, 1, 81, 127
2, 360, Note_off_c, 1, 50, 0
2, 360, Note_off_c, 1, 57, 0
2, 360, Note_off_c, 1, 65, 0
2, 360, Note_off_c, 1, 69, 0
2, 360, Note_off_c, 1, 74, 0
2, 360, Note_off_c, 1, 77, 0
2, 360, Note_off_c, 1, 81, 0
2, 400, Note_on_c, 1, 47, 127
2, 400, Note_on_c, 1, 59, 127
2, 400, Note_on_c, 1, 66, 127
2, 400, Note_on_c, 1, 71, 127
2, 400, Note_on_c, 1, 74, 127
2, 800, Note_off_c, 1, 47, 0
2, 800, Note_off_c, 1, 59, 0
2, 800, Note_off_c, 1, 66, 0
2, 800, Note_off_c, 1, 71, 0
2, 800, Note_off_c, 1, 74, 0
2, 840, Note_on_c, 1, 47, 127
2, 840, Note_on_c, 1, 63, 127
2, 840, Note_on_c, 1, 66, 127
2, 840, Note_on_c, 1, 71, 127
2, 960, Note_off_c, 1, 47, 0
2, 960, Note_off_c, 1, 63, 0
2, 960, Note_off_c, 1, 66, 0
2, 960, Note_off_c, 1, 71, 0
2, 3840, Note_on_c, 1, 59, 127
2, 3840, Note_on_c, 1, 64, 127
2, 3840, Note_on_c, 1, 68, 127
2, 3960, Note_off_c, 1, 59, 0
2, 3960, Note_off_c, 1, 64, 0
2, 3960, Note_off_c, 1, 68, 0
2, 4160, Note_on_c, 1, 62, 127
2, 4160, Note_on_c, 1, 64, 127
2, 4160, Note_on_c, 1, 68, 127
2, 4160, Note_on_c, 1, 71, 127
2, 4200, Note_off_c, 1, 62, 0
2, 4200, Note_off_c, 1, 64, 0
2, 4200, Note_off_c, 1, 68, 0
2, 4200, Note_off_c, 1, 71, 0
2, 4240, Note_on_c, 1, 62, 127
2, 4240, Note_on_c, 1, 64, 127
2, 4240, Note_on_c, 1, 68, 127
2, 4240, Note_on_c, 1, 71, 127
2, 4320, Note_off_c, 1, 62, 0
2, 4320, Note_off_c, 1, 64, 0
2, 4320, Note_off_c, 1, 68, 0
2, 4320, Note_off_c, 1, 71, 0
2, 4360, Note_on_c, 1, 62, 127
2, 4360, Note_on_c, 1, 64, 127
2, 4360, Note_on_c, 1, 68, 127
2, 4360, Note_on_c, 1, 71, 127
2, 4480, Note_off_c, 1, 62, 0
2, 4480, Note_off_c, 1, 64, 0
2, 4480, Note_off_c, 1, 68, 0
2, 4480, Note_off_c, 1, 71, 0
2, 4520, Note_on_c, 1, 57, 127
2, 4520, Note_on_c, 1, 61, 127
2, 4520, Note_on_c, 1, 64, 127
2, 4520, Note_on_c, 1, 69, 127
2, 4640, Note_off_c, 1, 57, 0
2, 4640, Note_off_c, 1, 61, 0
2, 4640, Note_off_c, 1, 64, 0
2, 4640, Note_off_c, 1, 69, 0
2, 5160, Note_on_c, 1, 48, 127
2, 5160, Note_on_c, 1, 55, 127
2, 5160, Note_on_c, 1, 60, 127
2, 5160, Note_on_c, 1, 64, 127
2, 5400, Note_off_c, 1, 48, 0
2, 5400, Note_off_c, 1, 55, 0
2, 5400, Note_off_c, 1, 60, 0
2, 5400, Note_off_c, 1, 64, 0
2, 5440, Note_on_c, 1, 48, 127
2, 5440, Note_on_c, 1, 55, 127
2, 5440, Note_on_c, 1, 60, 127
2, 5440, Note_on_c, 1, 64, 127
2, 5640, Note_off_c, 1, 48, 0
2, 5640, Note_off_c, 1, 55, 0
2, 5640, Note_off_c, 1, 60, 0
2, 5640, Note_off_c, 1, 64, 0
2, 5680, Note_on_c, 1, 50, 127
2, 5680, Note_on_c, 1, 55, 127
2, 5680, Note_on_c, 1, 59, 127
2, 5680, Note_on_c, 1, 65, 127
2, 5920, Note_off_c, 1, 50, 0
2, 5920, Note_off_c, 1, 55, 0
2, 5920, Note_off_c, 1, 59, 0
2, 5920, Note_off_c, 1, 65, 0
2, 5960, Note_on_c, 1, 48, 127
2, 5960, Note_on_c, 1, 55, 127
2, 5960, Note_on_c, 1, 60, 127
2, 5960, Note_on_c, 1, 64, 127
2, 6480, Note_off_c, 1, 48, 0
2, 6480, Note_off_c, 1, 55, 0
2, 6480, Note_off_c, 1, 60, 0
2, 6480, Note_off_c, 1, 64, 0
2, 7280, Note_on_c, 1, 41, 127
2, 7280, Note_on_c, 1, 53, 127
2, 7280, Note_on_c, 1, 57, 127
2, 7280, Note_on_c, 1, 60, 127
2, 7280, Note_on_c, 1, 65, 127
2, 8000, Note_off_c, 1, 65, 0
2, 8040, Note_on_c, 1, 65, 127
2, 8440, Note_off_c, 1, 41, 0
2, 8440, Note_off_c, 1, 53, 0
2, 8440, Note_off_c, 1, 57, 0
2, 8440, Note_off_c, 1, 60, 0
2, 8440, Note_off_c, 1, 65, 0
2, 10040, Note_on_c, 1, 42, 127
2, 10040, Note_on_c, 1, 49, 127
2, 10120, Note_off_c, 1, 42, 0
2, 10120, Note_off_c, 1, 49, 0
2, 10360, Note_on_c, 1, 42, 127
2, 10360, Note_on_c, 1, 49, 127
2, 10560, Note_off_c, 1, 42, 0
2, 10560, Note_off_c, 1, 49, 0
2, 10840, Note_on_c, 1, 43, 127
2, 10840, Note_on_c, 1, 61, 127
2, 10840, Note_on_c, 1, 64, 127
2, 10840, Note_on_c, 1, 70, 127
2, 11040, Note_off_c, 1, 61, 0
2, 11040, Note_off_c, 1, 64, 0
2, 11040, Note_off_c, 1, 70, 0
2, 11080, Note_on_c, 1, 42, 127
2, 11080, Note_off_c, 1, 43, 0
2, 11120, Note_off_c, 1, 42, 0
2, 11160, Note_on_c, 1, 44, 127
2, 11160, Note_on_c, 1, 72, 127
2, 11160, Note_on_c, 1, 75, 127
2, 11360, Note_off_c, 1, 44, 0
2, 11360, Note_off_c, 1, 72, 0
2, 11360, Note_off_c, 1, 75, 0
2, 13400, Note_on_c, 1, 37, 127
2, 13400, Note_on_c, 1, 49, 127
2, 13840, Note_off_c, 1, 37, 0
2, 13840, Note_off_c, 1, 49, 0
2, 13880, Note_on_c, 1, 38, 127
2, 13880, Note_on_c, 1, 50, 127
2, 13880, Note_on_c, 1, 55, 127
2, 13880, Note_on_c, 1, 67, 127
2, 14640, Note_off_c, 1, 38, 0
2, 14640, Note_off_c, 1, 50, 0
2, 14640, Note_off_c, 1, 55, 0
2, 14640, Note_off_c, 1, 67, 0
2, 14680, Note_on_c, 1, 55, 127
2, 14680, Note_on_c, 1, 67, 127
2, 15120, Note_off_c, 1, 55, 0
2, 15120, Note_off_c, 1, 67, 0
2, 15200, Note_on_c, 1, 53, 127
2, 15200, Note_on_c, 1, 65, 127
2, 15240, Note_off_c, 1, 53, 0
2, 15240, Note_off_c, 1, 65, 0
2, 15280, Note_on_c, 1, 55, 127
2, 15280, Note_on_c, 1, 67, 127
2, 15560, Note_off_c, 1, 55, 0
2, 15560, Note_off_c, 1, 67, 0
2, 15600, Note_on_c, 1, 54, 127
2, 15600, Note_on_c, 1, 66, 127
2, 15840, Note_off_c, 1, 54, 0
2, 15840, Note_off_c, 1, 66, 0
2, 15880, Note_on_c, 1, 55, 127
2, 15880, Note_on_c, 1, 67, 127
2, 16120, Note_off_c, 1, 55, 0
2, 16120, Note_off_c, 1, 67, 0
2, 16160, Note_on_c, 1, 53, 127
2, 16160, Note_on_c, 1, 65, 127
2, 16400, Note_off_c, 1, 53, 0
2, 16400, Note_off_c, 1, 65, 0
2, 16440, Note_on_c, 1, 59, 127
2, 16440, Note_on_c, 1, 71, 127
2, 16880, Note_off_c, 1, 59, 0
2, 16880, Note_off_c, 1, 71, 0
2, 16920, Note_on_c, 1, 60, 127
2, 16920, Note_on_c, 1, 72, 127
2, 17160, Note_off_c, 1, 60, 0
2, 17160, Note_off_c, 1, 72, 0
2, 17240, Note_on_c, 1, 62, 127
2, 17240, Note_on_c, 1, 74, 127
2, 17320, Note_on_c, 1, 60, 127
2, 17320, Note_off_c, 1, 62, 0
2, 17320, Note_on_c, 1, 72, 127
2, 17320, Note_off_c, 1, 74, 0
2, 17360, Note_on_c, 1, 59, 127
2, 17360, Note_off_c, 1, 60, 0
2, 17360, Note_on_c, 1, 71, 127
2, 17360, Note_off_c, 1, 72, 0
2, 17400, Note_off_c, 1, 59, 0
2, 17400, Note_on_c, 1, 63, 127
2, 17400, Note_off_c, 1, 71, 0
2, 17400, Note_on_c, 1, 75, 127
2, 17440, Note_off_c, 1, 63, 0
2, 17440, Note_off_c, 1, 75, 0
2, 17480, Note_on_c, 1, 60, 127
2, 17480, Note_on_c, 1, 72, 127
2, 17960, Note_off_c, 1, 60, 0
2, 17960, Note_off_c, 1, 72, 0
2, 18000, Note_on_c, 1, 56, 127
2, 18000, Note_on_c, 1, 59, 127
2, 18000, Note_on_c, 1, 62, 127
2, 18000, Note_on_c, 1, 65, 127
2, 18000, Note_on_c, 1, 77, 127
2, 18640, Note_off_c, 1, 77, 0
2, 18680, Note_on_c, 1, 52, 127
2, 18680, Note_off_c, 1, 59, 0
2, 18680, Note_off_c, 1, 65, 0
2, 18680, Note_on_c, 1, 66, 127
2, 18760, Note_off_c, 1, 52, 0
2, 18760, Note_off_c, 1, 56, 0
2, 18760, Note_off_c, 1, 62, 0
2, 18760, Note_off_c, 1, 66, 0
2, 18800, Note_on_c, 1, 53, 127
2, 18800, Note_on_c, 1, 65, 127
2, 19040, Note_off_c, 1, 53, 0
2, 19040, Note_off_c, 1, 65, 0
2, 19080, Note_on_c, 1, 47, 127
2, 19080, Note_on_c, 1, 59, 127
2, 19280, Note_off_c, 1, 47, 0
2, 19280, Note_off_c, 1, 59, 0
2, 19320, Note_on_c, 1, 47, 127
2, 19320, Note_on_c, 1, 59, 127
2, 19600, Note_off_c, 1, 47, 0
2, 19600, Note_off_c, 1, 59, 0
2, 19640, Note_on_c, 1, 48, 127
2, 19640, Note_on_c, 1, 60, 127
2, 20320, Note_off_c, 1, 48, 0
2, 20320, Note_off_c, 1, 60, 0
2, 20400, Note_on_c, 1, 57, 127
2, 20400, Note_on_c, 1, 66, 127
2, 20520, Note_off_c, 1, 57, 0
2, 20520, Note_off_c, 1, 66, 0
2, 20560, Note_on_c, 1, 57, 127
2, 20560, Note_on_c, 1, 72, 127
2, 21280, Note_off_c, 1, 57, 0
2, 21280, Note_off_c, 1, 72, 0
2, 21360, Note_on_c, 1, 55, 127
2, 21360, Note_on_c, 1, 74, 127
2, 21400, Note_on_c, 1, 73, 127
2, 21400, Note_off_c, 1, 74, 0
2, 21520, Note_off_c, 1, 73, 0
2, 21560, Note_on_c, 1, 71, 127
2, 21600, Note_off_c, 1, 71, 0
2, 21640, Note_on_c, 1, 74, 127
2, 21720, Note_off_c, 1, 74, 0
2, 21760, Note_on_c, 1, 76, 127
2, 21880, Note_off_c, 1, 55, 0
2, 21880, Note_off_c, 1, 76, 0
2, 21920, Note_on_c, 1, 31, 127
2, 21920, Note_on_c, 1, 43, 127
2, 21920, Note_on_c, 1, 71, 127
2, 22080, Note_off_c, 1, 71, 0
2, 22120, Note_on_c, 1, 71, 127
2, 22160, Note_off_c, 1, 71, 0
2, 22240, Note_on_c, 1, 69, 127
2, 22280, Note_off_c, 1, 69, 0
2, 22320, Note_on_c, 1, 79, 127
2, 22360, Note_off_c, 1, 31, 0
2, 22360, Note_off_c, 1, 43, 0
2, 22360, Note_off_c, 1, 79, 0
2, 22400, Note_on_c, 1, 78, 127
2, 22440, Note_off_c, 1, 78, 0
2, 22480, Note_on_c, 1, 79, 127
2, 22520, Note_off_c, 1, 79, 0
2, 22560, Note_on_c, 1, 79, 127
2, 22600, Note_off_c, 1, 79, 0
2, 22640, Note_on_c, 1, 79, 127
2, 22680, Note_off_c, 1, 79, 0
2, 22760, Note_on_c, 1, 79, 127
2, 22800, Note_off_c, 1, 79, 0
2, 22840, Note_on_c, 1, 62, 127
2, 22840, Note_on_c, 1, 71, 127
2, 22880, Note_off_c, 1, 71, 0
2, 22920, Note_on_c, 1, 79, 127
2, 22960, Note_off_c, 1, 79, 0
2, 23000, Note_on_c, 1, 77, 127
2, 23040, Note_off_c, 1, 77, 0
2, 23080, Note_on_c, 1, 74, 127
2, 23120, Note_off_c, 1, 74, 0
2, 23160, Note_on_c, 1, 71, 127
2, 23200, Note_off_c, 1, 71, 0
2, 23240, Note_on_c, 1, 71, 127
2, 23280, Note_off_c, 1, 71, 0
2, 23320, Note_on_c, 1, 69, 127
2, 23360, Note_off_c, 1, 69, 0
2, 23400, Note_on_c, 1, 71, 127
2, 23440, Note_off_c, 1, 71, 0
2, 23480, Note_on_c, 1, 69, 127
2, 23520, Note_off_c, 1, 62, 0
2, 23520, Note_off_c, 1, 69, 0
2, 23560, Note_on_c, 1, 62, 127
2, 23600, Note_on_c, 1, 71, 127
2, 23640, Note_off_c, 1, 62, 0
2, 23640, Note_off_c, 1, 71, 0
2, 23680, Note_on_c, 1, 62, 127
2, 23680, Note_on_c, 1, 79, 127
2, 23760, Note_off_c, 1, 79, 0
2, 23800, Note_on_c, 1, 72, 127
2, 23840, Note_off_c, 1, 72, 0
2, 23880, Note_on_c, 1, 74, 127
2, 23920, Note_off_c, 1, 62, 0
2, 23920, Note_off_c, 1, 74, 0
2, 23960, Note_on_c, 1, 63, 127
2, 23960, Note_on_c, 1, 72, 127
2, 24000, Note_off_c, 1, 72, 0
2, 24040, Note_on_c, 1, 74, 127
2, 24080, Note_off_c, 1, 74, 0
2, 24120, Note_on_c, 1, 72, 127
2, 24160, Note_off_c, 1, 72, 0
2, 24160, Note_on_c, 1, 74, 127
2, 24240, Note_off_c, 1, 74, 0
2, 24280, Note_on_c, 1, 72, 127
2, 24320, Note_off_c, 1, 72, 0
2, 24400, Note_on_c, 1, 72, 127
2, 24440, Note_off_c, 1, 72, 0
2, 24480, Note_on_c, 1, 72, 127
2, 24520, Note_off_c, 1, 63, 0
2, 24520, Note_off_c, 1, 72, 0
2, 24560, Note_on_c, 1, 55, 127
2, 24560, Note_on_c, 1, 72, 127
2, 24640, Note_off_c, 1, 72, 0
2, 25160, Note_off_c, 1, 55, 0
2, 25200, Note_on_c, 1, 55, 127
2, 25640, Note_off_c, 1, 55, 0
2, 26800, Note_on_c, 1, 86, 127
2, 26840, Note_off_c, 1, 86, 0
2, 26880, Note_on_c, 1, 86, 127
2, 27240, Note_off_c, 1, 86, 0
2, 27280, Note_on_c, 1, 71, 127
2, 27280, Note_on_c, 1, 74, 127
2, 27280, Note_on_c, 1, 76, 127
2, 27320, Note_off_c, 1, 71, 0
2, 27320, Note_off_c, 1, 74, 0
2, 27320, Note_off_c, 1, 76, 0
2, 27360, Note_on_c, 1, 68, 127
2, 27360, Note_on_c, 1, 89, 127
2, 27400, Note_off_c, 1, 68, 0
2, 27400, Note_off_c, 1, 89, 0
2, 27440, Note_on_c, 1, 74, 127
2, 27440, Note_on_c, 1, 90, 127
2, 27480, Note_off_c, 1, 74, 0
2, 27480, Note_off_c, 1, 90, 0
2, 27520, Note_on_c, 1, 74, 127
2, 27520, Note_on_c, 1, 90, 127
2, 27560, Note_off_c, 1, 74, 0
2, 27560, Note_off_c, 1, 90, 0
2, 27600, Note_on_c, 1, 74, 127
2, 27600, Note_on_c, 1, 90, 127
2, 27640, Note_off_c, 1, 74, 0
2, 27640, Note_off_c, 1, 90, 0
2, 27680, Note_on_c, 1, 71, 127
2, 27680, Note_on_c, 1, 86, 127
2, 27720, Note_off_c, 1, 71, 0
2, 27720, Note_off_c, 1, 86, 0
2, 27760, Note_on_c, 1, 73, 127
2, 27760, Note_on_c, 1, 88, 127
2, 27800, Note_off_c, 1, 73, 0
2, 27800, Note_off_c, 1, 88, 0
2, 27840, Note_on_c, 1, 74, 127
2, 27840, Note_on_c, 1, 89, 127
2, 27880, Note_off_c, 1, 74, 0
2, 27880, Note_off_c, 1, 89, 0
2, 27920, Note_on_c, 1, 73, 127
2, 27920, Note_on_c, 1, 88, 127
2, 27960, Note_off_c, 1, 73, 0
2, 27960, Note_off_c, 1, 88, 0
2, 28000, Note_on_c, 1, 71, 127
2, 28000, Note_on_c, 1, 86, 127
2, 28040, Note_off_c, 1, 71, 0
2, 28040, Note_off_c, 1, 86, 0
2, 28080, Note_on_c, 1, 71, 127
2, 28080, Note_on_c, 1, 86, 127
2, 28120, Note_off_c, 1, 71, 0
2, 28120, Note_off_c, 1, 86, 0
2, 28160, Note_on_c, 1, 68, 127
2, 28160, Note_on_c, 1, 83, 127
2, 28240, Note_off_c, 1, 68, 0
2, 28240, Note_off_c, 1, 83, 0
2, 28280, Note_on_c, 1, 66, 127
2, 28280, Note_on_c, 1, 81, 127
2, 28320, Note_off_c, 1, 66, 0
2, 28320, Note_off_c, 1, 81, 0
2, 28400, Note_on_c, 1, 64, 127
2, 28400, Note_on_c, 1, 80, 127
2, 28440, Note_off_c, 1, 64, 0
2, 28440, Note_off_c, 1, 80, 0
2, 28480, Note_on_c, 1, 66, 127
2, 28480, Note_on_c, 1, 81, 127
2, 28520, Note_off_c, 1, 66, 0
2, 28520, Note_off_c, 1, 81, 0
2, 28560, Note_on_c, 1, 62, 127
2, 28560, Note_on_c, 1, 78, 127
2, 28600, Note_off_c, 1, 62, 0
2, 28600, Note_off_c, 1, 78, 0
2, 28640, Note_on_c, 1, 61, 127
2, 28640, Note_on_c, 1, 76, 127
2, 28680, Note_off_c, 1, 61, 0
2, 28680, Note_off_c, 1, 76, 0
2, 28720, Note_on_c, 1, 62, 127
2, 28720, Note_on_c, 1, 78, 127
2, 28760, Note_off_c, 1, 62, 0
2, 28760, Note_off_c, 1, 78, 0
2, 28800, Note_on_c, 1, 61, 127
2, 28800, Note_on_c, 1, 76, 127
2, 28840, Note_off_c, 1, 61, 0
2, 28840, Note_off_c, 1, 76, 0
2, 28880, Note_on_c, 1, 59, 127
2, 28880, Note_on_c, 1, 74, 127
2, 28920, Note_off_c, 1, 59, 0
2, 28920, Note_off_c, 1, 74, 0
2, 28960, Note_on_c, 1, 57, 127
2, 28960, Note_on_c, 1, 73, 127
2, 29000, Note_off_c, 1, 57, 0
2, 29000, Note_off_c, 1, 73, 0
2, 29040, Note_on_c, 1, 59, 127
2, 29040, Note_on_c, 1, 75, 127
2, 29080, Note_off_c, 1, 59, 0
2, 29080, Note_off_c, 1, 75, 0
2, 29120, Note_on_c, 1, 61, 127
2, 29120, Note_on_c, 1, 76, 127
2, 29160, Note_off_c, 1, 61, 0
2, 29160, Note_off_c, 1, 76, 0
2, 29200, Note_on_c, 1, 57, 127
2, 29200, Note_on_c, 1, 74, 127
2, 29280, Note_off_c, 1, 57, 0
2, 29280, Note_off_c, 1, 74, 0
2, 29320, Note_on_c, 1, 64, 127
2, 29320, Note_on_c, 1, 73, 127
2, 29360, Note_off_c, 1, 64, 0
2, 29360, Note_off_c, 1, 73, 0
2, 29400, Note_on_c, 1, 57, 127
2, 29400, Note_on_c, 1, 64, 127
2, 29400, Note_on_c, 1, 72, 127
2, 29440, Note_off_c, 1, 57, 0
2, 29440, Note_off_c, 1, 64, 0
2, 29440, Note_off_c, 1, 72, 0
2, 29480, Note_on_c, 1, 57, 127
2, 29480, Note_on_c, 1, 64, 127
2, 29480, Note_on_c, 1, 72, 127
2, 29520, Note_off_c, 1, 57, 0
2, 29520, Note_off_c, 1, 64, 0
2, 29520, Note_off_c, 1, 72, 0
2, 29560, Note_on_c, 1, 56, 127
2, 29560, Note_on_c, 1, 64, 127
2, 29560, Note_on_c, 1, 71, 127
2, 29600, Note_off_c, 1, 56, 0
2, 29600, Note_off_c, 1, 64, 0
2, 29600, Note_off_c, 1, 71, 0
2, 29640, Note_on_c, 1, 57, 127
2, 29640, Note_on_c, 1, 64, 127
2, 29640, Note_on_c, 1, 72, 127
2, 29680, Note_off_c, 1, 57, 0
2, 29680, Note_off_c, 1, 64, 0
2, 29680, Note_off_c, 1, 72, 0
2, 29720, Note_on_c, 1, 54, 127
2, 29720, Note_on_c, 1, 64, 127
2, 29720, Note_on_c, 1, 69, 127
2, 29800, Note_off_c, 1, 54, 0
2, 29800, Note_off_c, 1, 64, 0
2, 29800, Note_off_c, 1, 69, 0
2, 29840, Note_on_c, 1, 52, 127
2, 29840, Note_on_c, 1, 59, 127
2, 29840, Note_on_c, 1, 68, 127
2, 29880, Note_off_c, 1, 52, 0
2, 29880, Note_off_c, 1, 59, 0
2, 29880, Note_off_c, 1, 68, 0
2, 29920, Note_on_c, 1, 73, 127
2, 29960, Note_off_c, 1, 73, 0
2, 30000, Note_on_c, 1, 71, 127
2, 30080, Note_off_c, 1, 71, 0
2, 30120, Note_on_c, 1, 73, 127
2, 30200, Note_on_c, 1, 71, 127
2, 30240, Note_off_c, 1, 71, 0
2, 30240, Note_off_c, 1, 73, 0
2, 30280, Note_on_c, 1, 71, 127
2, 30280, Note_on_c, 1, 73, 127
2, 30400, Note_off_c, 1, 71, 0
2, 30400, Note_off_c, 1, 73, 0
2, 30440, Note_on_c, 1, 71, 127
2, 30440, Note_on_c, 1, 73, 127
2, 30720, Note_off_c, 1, 71, 0
2, 30720, Note_off_c, 1, 73, 0
2, 30760, Note_on_c, 1, 69, 127
2, 30760, Note_on_c, 1, 72, 127
2, 30800, Note_off_c, 1, 69, 0
2, 30800, Note_off_c, 1, 72, 0
2, 30840, Note_on_c, 1, 69, 127
2, 30840, Note_on_c, 1, 73, 127
2, 30880, Note_off_c, 1, 69, 0
2, 30880, Note_off_c, 1, 73, 0
2, 30920, Note_on_c, 1, 68, 127
2, 30920, Note_on_c, 1, 71, 127
2, 30960, Note_off_c, 1, 68, 0
2, 30960, Note_off_c, 1, 71, 0
2, 31000, Note_on_c, 1, 66, 127
2, 31000, Note_on_c, 1, 69, 127
2, 31040, Note_off_c, 1, 66, 0
2, 31040, Note_off_c, 1, 69, 0
2, 31080, Note_on_c, 1, 68, 127
2, 31080, Note_on_c, 1, 71, 127
2, 31120, Note_off_c, 1, 68, 0
2, 31120, Note_off_c, 1, 71, 0
2, 31160, Note_on_c, 1, 68, 127
2, 31160, Note_on_c, 1, 71, 127
2, 31320, Note_off_c, 1, 68, 0
2, 31320, Note_off_c, 1, 71, 0
2, 31360, Note_on_c, 1, 69, 127
2, 31360, Note_on_c, 1, 73, 127
2, 31400, Note_off_c, 1, 69, 0
2, 31400, Note_off_c, 1, 73, 0
2, 31440, Note_on_c, 1, 68, 127
2, 31440, Note_on_c, 1, 71, 127
2, 31480, Note_off_c, 1, 68, 0
2, 31480, Note_off_c, 1, 71, 0
2, 31520, Note_on_c, 1, 71, 127
2, 31520, Note_on_c, 1, 74, 127
2, 31560, Note_off_c, 1, 71, 0
2, 31560, Note_off_c, 1, 74, 0
2, 31600, Note_on_c, 1, 69, 127
2, 31600, Note_on_c, 1, 73, 127
2, 31640, Note_off_c, 1, 69, 0
2, 31640, Note_off_c, 1, 73, 0
2, 31680, Note_on_c, 1, 71, 127
2, 31680, Note_on_c, 1, 74, 127
2, 31720, Note_off_c, 1, 71, 0
2, 31720, Note_off_c, 1, 74, 0
2, 31760, Note_on_c, 1, 71, 127
2, 31760, Note_on_c, 1, 74, 127
2, 31800, Note_off_c, 1, 71, 0
2, 31800, Note_off_c, 1, 74, 0
2, 31880, Note_on_c, 1, 73, 127
2, 31880, Note_on_c, 1, 76, 127
2, 31920, Note_off_c, 1, 73, 0
2, 31920, Note_off_c, 1, 76, 0
2, 31960, Note_on_c, 1, 74, 127
2, 31960, Note_on_c, 1, 78, 127
2, 32000, Note_off_c, 1, 74, 0
2, 32000, Note_off_c, 1, 78, 0
2, 32040, Note_on_c, 1, 78, 127
2, 32040, Note_on_c, 1, 81, 127
2, 32080, Note_off_c, 1, 78, 0
2, 32080, Note_off_c, 1, 81, 0
2, 32120, Note_on_c, 1, 78, 127
2, 32120, Note_on_c, 1, 81, 127
2, 32160, Note_off_c, 1, 78, 0
2, 32160, Note_off_c, 1, 81, 0
2, 32200, Note_on_c, 1, 78, 127
2, 32200, Note_on_c, 1, 81, 127
2, 32240, Note_off_c, 1, 78, 0
2, 32240, Note_off_c, 1, 81, 0
2, 32280, Note_on_c, 1, 77, 127
2, 32280, Note_on_c, 1, 80, 127
2, 32320, Note_off_c, 1, 77, 0
2, 32320, Note_off_c, 1, 80, 0
2, 32400, Note_on_c, 1, 74, 127
2, 32400, Note_on_c, 1, 78, 127
2, 32440, Note_off_c, 1, 74, 0
2, 32440, Note_off_c, 1, 78, 0
2, 32480, Note_on_c, 1, 69, 127
2, 32480, Note_on_c, 1, 73, 127
2, 32520, Note_off_c, 1, 69, 0
2, 32520, Note_off_c, 1, 73, 0
2, 32560, Note_on_c, 1, 71, 127
2, 32560, Note_on_c, 1, 74, 127
2, 32600, Note_off_c, 1, 71, 0
2, 32600, Note_off_c, 1, 74, 0
2, 32640, Note_on_c, 1, 73, 127
2, 32640, Note_on_c, 1, 76, 127
2, 32680, Note_off_c, 1, 73, 0
2, 32680, Note_off_c, 1, 76, 0
2, 32720, Note_on_c, 1, 81, 127
2, 32800, Note_off_c, 1, 81, 0
2, 32840, Note_on_c, 1, 85, 127
2, 32880, Note_off_c, 1, 85, 0
2, 32920, Note_on_c, 1, 81, 127
2, 32960, Note_off_c, 1, 81, 0
2, 33000, Note_on_c, 1, 81, 127
2, 33040, Note_off_c, 1, 81, 0
2, 33080, Note_on_c, 1, 83, 127
2, 33120, Note_off_c, 1, 83, 0
2, 33160, Note_on_c, 1, 83, 127
2, 33200, Note_off_c, 1, 83, 0
2, 33240, Note_on_c, 1, 81, 127
2, 33280, Note_off_c, 1, 81, 0
2, 33320, Note_on_c, 1, 78, 127
2, 33360, Note_off_c, 1, 78, 0
2, 33400, Note_on_c, 1, 81, 127
2, 33440, Note_off_c, 1, 81, 0
2, 33480, Note_on_c, 1, 79, 127
2, 33520, Note_off_c, 1, 79, 0
2, 33560, Note_on_c, 1, 78, 127
2, 33600, Note_off_c, 1, 78, 0
2, 33680, Note_on_c, 1, 76, 127
2, 33720, Note_off_c, 1, 76, 0
2, 33760, Note_on_c, 1, 73, 127
2, 33800, Note_off_c, 1, 73, 0
2, 33840, Note_on_c, 1, 66, 127
2, 33840, Note_on_c, 1, 74, 127
2, 33880, Note_off_c, 1, 66, 0
2, 33880, Note_on_c, 1, 73, 127
2, 33880, Note_off_c, 1, 74, 0
2, 33920, Note_off_c, 1, 73, 0
2, 33920, Note_on_c, 1, 74, 127
2, 33960, Note_off_c, 1, 74, 0
2, 34000, Note_on_c, 1, 66, 127
2, 34000, Note_on_c, 1, 69, 127
2, 34040, Note_off_c, 1, 66, 0
2, 34040, Note_off_c, 1, 69, 0
2, 34080, Note_on_c, 1, 74, 127
2, 34120, Note_off_c, 1, 74, 0
2, 34200, Note_on_c, 1, 78, 127
2, 34240, Note_off_c, 1, 78, 0
2, 34280, Note_on_c, 1, 76, 127
2, 34320, Note_off_c, 1, 76, 0
2, 34360, Note_on_c, 1, 57, 127
2, 34360, Note_on_c, 1, 64, 127
2, 34360, Note_on_c, 1, 73, 127
2, 34400, Note_off_c, 1, 57, 0
2, 34400, Note_off_c, 1, 64, 0
2, 34400, Note_off_c, 1, 73, 0
2, 34440, Note_on_c, 1, 76, 127
2, 34480, Note_off_c, 1, 76, 0
2, 34520, Note_on_c, 1, 76, 127
2, 34560, Note_off_c, 1, 76, 0
2, 34600, Note_on_c, 1, 76, 127
2, 34640, Note_off_c, 1, 76, 0
2, 34680, Note_on_c, 1, 61, 127
2, 34680, Note_on_c, 1, 69, 127
2, 34800, Note_off_c, 1, 61, 0
2, 34800, Note_off_c, 1, 69, 0
2, 34840, Note_on_c, 1, 80, 127
2, 34880, Note_off_c, 1, 80, 0
2, 34920, Note_on_c, 1, 81, 127
2, 34960, Note_off_c, 1, 81, 0
2, 35000, Note_on_c, 1, 61, 127
2, 35000, Note_on_c, 1, 69, 127
2, 35040, Note_off_c, 1, 61, 0
2, 35040, Note_off_c, 1, 69, 0
2, 35080, Note_on_c, 1, 79, 127
2, 35160, Note_off_c, 1, 79, 0
2, 35200, Note_on_c, 1, 80, 127
2, 35240, Note_off_c, 1, 80, 0
2, 35280, Note_on_c, 1, 81, 127
2, 35320, Note_off_c, 1, 81, 0
2, 35360, Note_on_c, 1, 62, 127
2, 35360, Note_on_c, 1, 66, 127
2, 35400, Note_off_c, 1, 62, 0
2, 35400, Note_off_c, 1, 66, 0
2, 35440, Note_on_c, 1, 81, 127
2, 35520, Note_off_c, 1, 81, 0
2, 35560, Note_on_c, 1, 78, 127
2, 35600, Note_off_c, 1, 78, 0
2, 35640, Note_on_c, 1, 57, 127
2, 35640, Note_on_c, 1, 61, 127
2, 35680, Note_off_c, 1, 61, 0
2, 35720, Note_on_c, 1, 62, 127
2, 35760, Note_off_c, 1, 62, 0
2, 35800, Note_on_c, 1, 62, 127
2, 35840, Note_off_c, 1, 62, 0
2, 35880, Note_off_c, 1, 57, 0
2, 35920, Note_on_c, 1, 54, 127
2, 35920, Note_on_c, 1, 66, 127
2, 36000, Note_off_c, 1, 54, 0
2, 36000, Note_off_c, 1, 66, 0
2, 36040, Note_on_c, 1, 57, 127
2, 36040, Note_on_c, 1, 69, 127
2, 36080, Note_off_c, 1, 57, 0
2, 36080, Note_off_c, 1, 69, 0
2, 36160, Note_on_c, 1, 59, 127
2, 36160, Note_on_c, 1, 71, 127
2, 36200, Note_off_c, 1, 59, 0
2, 36200, Note_off_c, 1, 71, 0
2, 36240, Note_on_c, 1, 66, 127
2, 36240, Note_on_c, 1, 78, 127
2, 36280, Note_off_c, 1, 66, 0
2, 36280, Note_off_c, 1, 78, 0
2, 36320, Note_on_c, 1, 62, 127
2, 36320, Note_on_c, 1, 74, 127
2, 36360, Note_off_c, 1, 62, 0
2, 36360, Note_off_c, 1, 74, 0
2, 36400, Note_on_c, 1, 66, 127
2, 36400, Note_on_c, 1, 78, 127
2, 36440, Note_off_c, 1, 66, 0
2, 36440, Note_off_c, 1, 78, 0
2, 36480, Note_on_c, 1, 69, 127
2, 36480, Note_on_c, 1, 81, 127
2, 36520, Note_off_c, 1, 69, 0
2, 36520, Note_off_c, 1, 81, 0
2, 36560, Note_on_c, 1, 66, 127
2, 36560, Note_on_c, 1, 78, 127
2, 36600, Note_off_c, 1, 66, 0
2, 36600, Note_off_c, 1, 78, 0
2, 36640, Note_on_c, 1, 69, 127
2, 36640, Note_on_c, 1, 81, 127
2, 36680, Note_off_c, 1, 69, 0
2, 36680, Note_off_c, 1, 81, 0
2, 36720, Note_on_c, 1, 78, 127
2, 36720, Note_on_c, 1, 90, 127
2, 36800, Note_on_c, 1, 45, 127
2, 36800, Note_on_c, 1, 49, 127
2, 36800, Note_off_c, 1, 78, 0
2, 36800, Note_off_c, 1, 90, 0
2, 36920, Note_off_c, 1, 45, 0
2, 36920, Note_off_c, 1, 49, 0
2, 36960, Note_on_c, 1, 66, 127
2, 36960, Note_on_c, 1, 78, 127
2, 37000, Note_off_c, 1, 66, 0
2, 37000, Note_off_c, 1, 78, 0
2, 37040, Note_on_c, 1, 62, 127
2, 37040, Note_on_c, 1, 74, 127
2, 37080, Note_off_c, 1, 62, 0
2, 37080, Note_off_c, 1, 74, 0
2, 37120, Note_on_c, 1, 66, 127
2, 37120, Note_on_c, 1, 78, 127
2, 37160, Note_off_c, 1, 66, 0
2, 37160, Note_off_c, 1, 78, 0
2, 37200, Note_on_c, 1, 62, 127
2, 37200, Note_on_c, 1, 74, 127
2, 37240, Note_off_c, 1, 62, 0
2, 37240, Note_off_c, 1, 74, 0
2, 37280, Note_on_c, 1, 62, 127
2, 37280, Note_on_c, 1, 74, 127
2, 37400, Note_off_c, 1, 62, 0
2, 37400, Note_off_c, 1, 74, 0
2, 37440, Note_on_c, 1, 66, 127
2, 37440, Note_on_c, 1, 78, 127
2, 37520, Note_off_c, 1, 66, 0
2, 37520, Note_off_c, 1, 78, 0
2, 37560, Note_on_c, 1, 64, 127
2, 37560, Note_on_c, 1, 76, 127
2, 37680, Note_off_c, 1, 64, 0
2, 37680, Note_off_c, 1, 76, 0
2, 37720, Note_on_c, 1, 62, 127
2, 37720, Note_on_c, 1, 74, 127
2, 37960, Note_off_c, 1, 62, 0
2, 37960, Note_off_c, 1, 74, 0
2, 38000, Note_on_c, 1, 62, 127
2, 38000, Note_on_c, 1, 74, 127
2, 38200, Note_off_c, 1, 62, 0
2, 38200, Note_off_c, 1, 74, 0
2, 38240, Note_on_c, 1, 59, 127
2, 38240, Note_on_c, 1, 71, 127
2, 38520, Note_off_c, 1, 59, 0
2, 38520, Note_off_c, 1, 71, 0
2, 38560, Note_on_c, 1, 57, 127
2, 38560, Note_on_c, 1, 69, 127
2, 38840, Note_off_c, 1, 57, 0
2, 38840, Note_off_c, 1, 69, 0
2, 38880, Note_on_c, 1, 59, 127
2, 38880, Note_on_c, 1, 71, 127
2, 39160, Note_off_c, 1, 59, 0
2, 39160, Note_off_c, 1, 71, 0
2, 39200, Note_on_c, 1, 57, 127
2, 39200, Note_on_c, 1, 69, 127
2, 39440, Note_on_c, 1, 61, 127
2, 39480, Note_off_c, 1, 57, 0
2, 39480, Note_off_c, 1, 61, 0
2, 39480, Note_off_c, 1, 69, 0
2, 39520, Note_on_c, 1, 38, 127
2, 39520, Note_on_c, 1, 50, 127
2, 39520, Note_on_c, 1, 64, 127
2, 39520, Note_on_c, 1, 68, 127
2, 39520, Note_on_c, 1, 71, 127
2, 39840, Note_off_c, 1, 38, 0
2, 39840, Note_off_c, 1, 50, 0
2, 39840, Note_off_c, 1, 64, 0
2, 39840, Note_off_c, 1, 68, 0
2, 39840, Note_off_c, 1, 71, 0
2, 39880, Note_on_c, 1, 38, 127
2, 39880, Note_on_c, 1, 50, 127
2, 39880, Note_on_c, 1, 64, 127
2, 39880, Note_on_c, 1, 68, 127
2, 39880, Note_on_c, 1, 71, 127
2, 40000, Note_off_c, 1, 38, 0
2, 40000, Note_off_c, 1, 50, 0
2, 40000, Note_off_c, 1, 64, 0
2, 40000, Note_off_c, 1, 68, 0
2, 40000, Note_off_c, 1, 71, 0
2, 40040, Note_on_c, 1, 38, 127
2, 40040, Note_on_c, 1, 50, 127
2, 40040, Note_on_c, 1, 64, 127
2, 40040, Note_on_c, 1, 68, 127
2, 40040, Note_on_c, 1, 71, 127
2, 40200, Note_off_c, 1, 38, 0
2, 40200, Note_off_c, 1, 50, 0
2, 40200, Note_off_c, 1, 64, 0
2, 40200, Note_off_c, 1, 68, 0
2, 40200, Note_off_c, 1, 71, 0
2, 40240, Note_on_c, 1, 38, 127
2, 40240, Note_on_c, 1, 50, 127
2, 40240, Note_on_c, 1, 64, 127
2, 40240, Note_on_c, 1, 68, 127
2, 40240, Note_on_c, 1, 71, 127
2, 40560, Note_off_c, 1, 38, 0
2, 40560, Note_off_c, 1, 50, 0
2, 40560, Note_off_c, 1, 64, 0
2, 40560, Note_off_c, 1, 68, 0
2, 40560, Note_off_c, 1, 71, 0
2, 40600, Note_on_c, 1, 38, 127
2, 40600, Note_on_c, 1, 50, 127
2, 40600, Note_on_c, 1, 64, 127
2, 40600, Note_on_c, 1, 68, 127
2, 40600, Note_on_c, 1, 71, 127
2, 40880, Note_off_c, 1, 38, 0
2, 40880, Note_off_c, 1, 50, 0
2, 40880, Note_off_c, 1, 64, 0
2, 40880, Note_off_c, 1, 68, 0
2, 40880, Note_off_c, 1, 71, 0
2, 40920, Note_on_c, 1, 38, 127
2, 40920, Note_on_c, 1, 50, 127
2, 40920, Note_on_c, 1, 64, 127
2, 40920, Note_on_c, 1, 68, 127
2, 40920, Note_on_c, 1, 71, 127
2, 41240, Note_off_c, 1, 38, 0
2, 41240, Note_off_c, 1, 50, 0
2, 41240, Note_off_c, 1, 64, 0
2, 41240, Note_off_c, 1, 68, 0
2, 41240, Note_off_c, 1, 71, 0
2, 41280, Note_on_c, 1, 38, 127
2, 41280, Note_on_c, 1, 50, 127
2, 41280, Note_on_c, 1, 64, 127
2, 41280, Note_on_c, 1, 68, 127
2, 41280, Note_on_c, 1, 71, 127
2, 41560, Note_off_c, 1, 38, 0
2, 41560, Note_off_c, 1, 50, 0
2, 41560, Note_off_c, 1, 64, 0
2, 41560, Note_off_c, 1, 68, 0
2, 41560, Note_off_c, 1, 71, 0
2, 41600, Note_on_c, 1, 38, 127
2, 41600, Note_on_c, 1, 50, 127
2, 41600, Note_on_c, 1, 64, 127
2, 41600, Note_on_c, 1, 68, 127
2, 41600, Note_on_c, 1, 71, 127
2, 41920, Note_off_c, 1, 38, 0
2, 41920, Note_off_c, 1, 50, 0
2, 41920, Note_off_c, 1, 64, 0
2, 41920, Note_off_c, 1, 68, 0
2, 41920, Note_off_c, 1, 71, 0
2, 41960, Note_on_c, 1, 38, 127
2, 41960, Note_on_c, 1, 50, 127
2, 41960, Note_on_c, 1, 64, 127
2, 41960, Note_on_c, 1, 68, 127
2, 41960, Note_on_c, 1, 71, 127
2, 42160, Note_off_c, 1, 38, 0
2, 42160, Note_off_c, 1, 50, 0
2, 42160, Note_off_c, 1, 64, 0
2, 42160, Note_off_c, 1, 68, 0
2, 42160, Note_off_c, 1, 71, 0
2, 42200, Note_on_c, 1, 38, 127
2, 42200, Note_on_c, 1, 50, 127
2, 42200, Note_on_c, 1, 64, 127
2, 42200, Note_on_c, 1, 68, 127
2, 42200, Note_on_c, 1, 71, 127
2, 42480, Note_off_c, 1, 38, 0
2, 42480, Note_off_c, 1, 50, 0
2, 42480, Note_off_c, 1, 64, 0
2, 42480, Note_off_c, 1, 68, 0
2, 42480, Note_off_c, 1, 71, 0
2, 42520, Note_on_c, 1, 38, 127
2, 42520, Note_on_c, 1, 50, 127
2, 42520, Note_on_c, 1, 64, 127
2, 42520, Note_on_c, 1, 68, 127
2, 42520, Note_on_c, 1, 71, 127
2, 42640, Note_off_c, 1, 38, 0
2, 42640, Note_off_c, 1, 50, 0
2, 42640, Note_off_c, 1, 64, 0
2, 42640, Note_off_c, 1, 68, 0
2, 42640, Note_off_c, 1, 71, 0
2, 42680, Note_on_c, 1, 37, 127
2, 42680, Note_on_c, 1, 49, 127
2, 42680, Note_on_c, 1, 64, 127
2, 42680, Note_on_c, 1, 69, 127
2, 42680, Note_on_c, 1, 73, 127
2, 43000, Note_off_c, 1, 37, 0
2, 43000, Note_off_c, 1, 49, 0
2, 43000, Note_off_c, 1, 64, 0
2, 43000, Note_off_c, 1, 69, 0
2, 43000, Note_off_c, 1, 73, 0
2, 43040, Note_on_c, 1, 42, 127
2, 43040, Note_on_c, 1, 54, 127
2, 43040, Note_on_c, 1, 67, 127
2, 43320, Note_off_c, 1, 42, 0
2, 43320, Note_off_c, 1, 54, 0
2, 43320, Note_off_c, 1, 67, 0
2, 43360, Note_on_c, 1, 40, 127
2, 43360, Note_on_c, 1, 52, 127
2, 43360, Note_on_c, 1, 61, 127
2, 43360, Note_on_c, 1, 68, 127
2, 43360, Note_on_c, 1, 73, 127
2, 43640, Note_off_c, 1, 40, 0
2, 43640, Note_off_c, 1, 52, 0
2, 43640, Note_off_c, 1, 61, 0
2, 43640, Note_off_c, 1, 68, 0
2, 43640, Note_off_c, 1, 73, 0
2, 43680, Note_on_c, 1, 39, 127
2, 43680, Note_on_c, 1, 51, 127
2, 43680, Note_on_c, 1, 63, 127
2, 43680, Note_on_c, 1, 68, 127
2, 43680, Note_on_c, 1, 72, 127
2, 43680, Note_on_c, 1, 75, 127
2, 43840, Note_off_c, 1, 39, 0
2, 43840, Note_off_c, 1, 51, 0
2, 43880, Note_on_c, 1, 44, 127
2, 43880, Note_on_c, 1, 56, 127
2, 44000, Note_off_c, 1, 44, 0
2, 44000, Note_off_c, 1, 56, 0
2, 44000, Note_off_c, 1, 63, 0
2, 44000, Note_off_c, 1, 68, 0
2, 44000, Note_off_c, 1, 72, 0
2, 44000, Note_off_c, 1, 75, 0
2, 44040, Note_on_c, 1, 44, 127
2, 44040, Note_on_c, 1, 56, 127
2, 44040, Note_on_c, 1, 63, 127
2, 44040, Note_on_c, 1, 68, 127
2, 44040, Note_on_c, 1, 72, 127
2, 44040, Note_on_c, 1, 75, 127
2, 44160, Note_off_c, 1, 44, 0
2, 44160, Note_off_c, 1, 56, 0
2, 44160, Note_off_c, 1, 63, 0
2, 44160, Note_off_c, 1, 68, 0
2, 44160, Note_off_c, 1, 72, 0
2, 44160, Note_off_c, 1, 75, 0
2, 44200, Note_on_c, 1, 35, 127
2, 44200, Note_on_c, 1, 47, 127
2, 44200, Note_on_c, 1, 66, 127
2, 44200, Note_on_c, 1, 78, 127
2, 44360, Note_off_c, 1, 35, 0
2, 44360, Note_off_c, 1, 47, 0
2, 44360, Note_off_c, 1, 66, 0
2, 44360, Note_off_c, 1, 78, 0
2, 44440, Note_on_c, 1, 37, 127
2, 44440, Note_on_c, 1, 49, 127
2, 44440, Note_on_c, 1, 64, 127
2, 44440, Note_on_c, 1, 69, 127
2, 44440, Note_on_c, 1, 73, 127
2, 44440, Note_on_c, 1, 76, 127
2, 44560, Note_off_c, 1, 37, 0
2, 44560, Note_off_c, 1, 49, 0
2, 44560, Note_off_c, 1, 64, 0
2, 44560, Note_off_c, 1, 69, 0
2, 44560, Note_off_c, 1, 73, 0
2, 44560, Note_off_c, 1, 76, 0
2, 44600, Note_on_c, 1, 38, 127
2, 44600, Note_on_c, 1, 50, 127
2, 44600, Note_on_c, 1, 62, 127
2, 44600, Note_on_c, 1, 74, 127
2, 44720, Note_off_c, 1, 38, 0
2, 44720, Note_off_c, 1, 50, 0
2, 44720, Note_off_c, 1, 62, 0
2, 44720, Note_off_c, 1, 74, 0
2, 44760, Note_on_c, 1, 35, 127
2, 44760, Note_on_c, 1, 47, 127
2, 44760, Note_on_c, 1, 59, 127
2, 44760, Note_on_c, 1, 71, 127
2, 44960, Note_off_c, 1, 35, 0
2, 44960, Note_off_c, 1, 47, 0
2, 44960, Note_off_c, 1, 59, 0
2, 44960, Note_off_c, 1, 71, 0
2, 45000, Note_on_c, 1, 49, 127
2, 45000, Note_on_c, 1, 52, 127
2, 45000, Note_on_c, 1, 55, 127
2, 45000, Note_on_c, 1, 61, 127
2, 45000, Note_on_c, 1, 64, 127
2, 45000, Note_on_c, 1, 67, 127
2, 45040, Note_off_c, 1, 49, 0
2, 45040, Note_off_c, 1, 52, 0
2, 45040, Note_off_c, 1, 55, 0
2, 45040, Note_off_c, 1, 61, 0
2, 45040, Note_off_c, 1, 64, 0
2, 45040, Note_off_c, 1, 67, 0
2, 45080, Note_on_c, 1, 49, 127
2, 45080, Note_on_c, 1, 52, 127
2, 45080, Note_on_c, 1, 55, 127
2, 45080, Note_on_c, 1, 61, 127
2, 45080, Note_on_c, 1, 64, 127
2, 45080, Note_on_c, 1, 67, 127
2, 45120, Note_off_c, 1, 49, 0
2, 45120, Note_off_c, 1, 52, 0
2, 45120, Note_off_c, 1, 55, 0
2, 45120, Note_off_c, 1, 61, 0
2, 45120, Note_off_c, 1, 64, 0
2, 45120, Note_off_c, 1, 67, 0
2, 45240, Note_on_c, 1, 49, 127
2, 45240, Note_on_c, 1, 52, 127
2, 45240, Note_on_c, 1, 55, 127
2, 45240, Note_on_c, 1, 61, 127
2, 45240, Note_on_c, 1, 64, 127
2, 45240, Note_on_c, 1, 67, 127
2, 45280, Note_off_c, 1, 49, 0
2, 45280, Note_off_c, 1, 52, 0
2, 45280, Note_off_c, 1, 55, 0
2, 45280, Note_off_c, 1, 61, 0
2, 45280, Note_off_c, 1, 64, 0
2, 45280, Note_off_c, 1, 67, 0
2, 45440, Note_on_c, 1, 49, 127
2, 45440, Note_on_c, 1, 52, 127
2, 45440, Note_on_c, 1, 55, 127
2, 45440, Note_on_c, 1, 61, 127
2, 45440, Note_on_c, 1, 64, 127
2, 45440, Note_on_c, 1, 67, 127
2, 45560, Note_off_c, 1, 52, 0
2, 45560, Note_off_c, 1, 55, 0
2, 45560, Note_off_c, 1, 64, 0
2, 45560, Note_off_c, 1, 67, 0
2, 45600, Note_off_c, 1, 49, 0
2, 45600, Note_on_c, 1, 57, 127
2, 45600, Note_off_c, 1, 61, 0
2, 45600, Note_on_c, 1, 69, 127
2, 45600, Note_on_c, 1, 76, 127
2, 45600, Note_on_c, 1, 85, 127
2, 45600, Note_on_c, 1, 88, 127
2, 45720, Note_off_c, 1, 57, 0
2, 45720, Note_off_c, 1, 69, 0
2, 45720, Note_off_c, 1, 76, 0
2, 45720, Note_off_c, 1, 85, 0
2, 45720, Note_off_c, 1, 88, 0
2, 45760, Note_on_c, 1, 40, 127
2, 45760, Note_on_c, 1, 52, 127
2, 45760, Note_on_c, 1, 67, 127
2, 45760, Note_on_c, 1, 71, 127
2, 45760, Note_on_c, 1, 76, 127
2, 45760, Note_on_c, 1, 79, 127
2, 45880, Note_off_c, 1, 40, 0
2, 45880, Note_off_c, 1, 52, 0
2, 45880, Note_off_c, 1, 67, 0
2, 45880, Note_off_c, 1, 71, 0
2, 45880, Note_off_c, 1, 76, 0
2, 45880, Note_off_c, 1, 79, 0
2, 45920, Note_on_c, 1, 45, 127
2, 45920, Note_on_c, 1, 57, 127
2, 45920, Note_on_c, 1, 64, 127
2, 45920, Note_on_c, 1, 69, 127
2, 45920, Note_on_c, 1, 73, 127
2, 45920, Note_on_c, 1, 76, 127
2, 46080, Note_off_c, 1, 45, 0
2, 46080, Note_off_c, 1, 57, 0
2, 46080, Note_off_c, 1, 64, 0
2, 46080, Note_off_c, 1, 69, 0
2, 46080, Note_off_c, 1, 73, 0
2, 46080, Note_off_c, 1, 76, 0
2, 46120, Note_on_c, 1, 54, 127
2, 46120, Note_on_c, 1, 66, 127
2, 46120, Note_on_c, 1, 67, 127
2, 46120, Note_on_c, 1, 76, 127
2, 46160, Note_off_c, 1, 67, 0
2, 46200, Note_on_c, 1, 67, 127
2, 46240, Note_off_c, 1, 54, 0
2, 46240, Note_off_c, 1, 66, 0
2, 46240, Note_off_c, 1, 67, 0
2, 46240, Note_off_c, 1, 76, 0
2, 46280, Note_on_c, 1, 35, 127
2, 46280, Note_on_c, 1, 47, 127
2, 46280, Note_on_c, 1, 63, 127
2, 46280, Note_on_c, 1, 75, 127
2, 46400, Note_off_c, 1, 35, 0
2, 46400, Note_off_c, 1, 47, 0
2, 46400, Note_off_c, 1, 63, 0
2, 46400, Note_off_c, 1, 75, 0
2, 46440, Note_on_c, 1, 35, 127
2, 46440, Note_on_c, 1, 47, 127
2, 46440, Note_on_c, 1, 63, 127
2, 46440, Note_on_c, 1, 75, 127
2, 46560, Note_off_c, 1, 35, 0
2, 46560, Note_off_c, 1, 47, 0
2, 46560, Note_off_c, 1, 63, 0
2, 46560, Note_off_c, 1, 75, 0
2, 46600, Note_on_c, 1, 35, 127
2, 46600, Note_on_c, 1, 47, 127
2, 46600, Note_on_c, 1, 63, 127
2, 46600, Note_on_c, 1, 75, 127
2, 46640, Note_off_c, 1, 35, 0
2, 46640, Note_off_c, 1, 47, 0
2, 46640, Note_off_c, 1, 63, 0
2, 46640, Note_off_c, 1, 75, 0
2, 46680, Note_on_c, 1, 42, 127
2, 46680, Note_on_c, 1, 54, 127
2, 46680, Note_on_c, 1, 66, 127
2, 46680, Note_on_c, 1, 70, 127
2, 46680, Note_on_c, 1, 78, 127
2, 46800, Note_off_c, 1, 42, 0
2, 46800, Note_off_c, 1, 54, 0
2, 46800, Note_off_c, 1, 66, 0
2, 46800, Note_off_c, 1, 70, 0
2, 46800, Note_off_c, 1, 78, 0
2, 46840, Note_on_c, 1, 42, 127
2, 46840, Note_on_c, 1, 54, 127
2, 46840, Note_on_c, 1, 71, 127
2, 46840, Note_on_c, 1, 83, 127
2, 46960, Note_off_c, 1, 42, 0
2, 46960, Note_off_c, 1, 54, 0
2, 46960, Note_off_c, 1, 71, 0
2, 46960, Note_off_c, 1, 83, 0
2, 47000, Note_on_c, 1, 42, 127
2, 47000, Note_on_c, 1, 54, 127
2, 47000, Note_on_c, 1, 71, 127
2, 47000, Note_on_c, 1, 83, 127
2, 47160, Note_off_c, 1, 42, 0
2, 47160, Note_off_c, 1, 54, 0
2, 47160, Note_off_c, 1, 71, 0
2, 47160, Note_off_c, 1, 83, 0
2, 47200, Note_on_c, 1, 42, 127
2, 47200, Note_on_c, 1, 54, 127
2, 47200, Note_on_c, 1, 71, 127
2, 47200, Note_on_c, 1, 83, 127
2, 47320, Note_off_c, 1, 42, 0
2, 47320, Note_off_c, 1, 54, 0
2, 47320, Note_off_c, 1, 71, 0
2, 47320, Note_off_c, 1, 83, 0
2, 47360, Note_on_c, 1, 64, 127
2, 47360, Note_on_c, 1, 68, 127
2, 47360, Note_on_c, 1, 71, 127
2, 47360, Note_on_c, 1, 75, 127
2, 47480, Note_off_c, 1, 64, 0
2, 47480, Note_off_c, 1, 68, 0
2, 47480, Note_off_c, 1, 71, 0
2, 47480, Note_off_c, 1, 75, 0
2, 47520, Note_on_c, 1, 48, 127
2, 47520, Note_on_c, 1, 60, 127
2, 47520, Note_on_c, 1, 78, 127
2, 47520, Note_on_c, 1, 81, 127
2, 47520, Note_on_c, 1, 87, 127
2, 47520, Note_on_c, 1, 90, 127
2, 47640, Note_off_c, 1, 48, 0
2, 47640, Note_off_c, 1, 60, 0
2, 47640, Note_off_c, 1, 78, 0
2, 47640, Note_off_c, 1, 81, 0
2, 47640, Note_off_c, 1, 87, 0
2, 47640, Note_off_c, 1, 90, 0
2, 47680, Note_on_c, 1, 47, 127
2, 47680, Note_on_c, 1, 57, 127
2, 47680, Note_on_c, 1, 62, 127
2, 47680, Note_on_c, 1, 68, 127
2, 47680, Note_on_c, 1, 71, 127
2, 47800, Note_off_c, 1, 47, 0
2, 47800, Note_off_c, 1, 57, 0
2, 47800, Note_off_c, 1, 62, 0
2, 47800, Note_off_c, 1, 68, 0
2, 47800, Note_off_c, 1, 71, 0
2, 47840, Note_on_c, 1, 72, 127
2, 47840, Note_on_c, 1, 75, 127
2, 47840, Note_on_c, 1, 78, 127
2, 47840, Note_on_c, 1, 84, 127
2, 48000, Note_off_c, 1, 72, 0
2, 48000, Note_off_c, 1, 75, 0
2, 48000, Note_off_c, 1, 78, 0
2, 48000, Note_off_c, 1, 84, 0
2, 48040, Note_on_c, 1, 48, 127
2, 48040, Note_on_c, 1, 60, 127
2, 48040, Note_on_c, 1, 75, 127
2, 48040, Note_on_c, 1, 78, 127
2, 48080, Note_off_c, 1, 75, 0
2, 48080, Note_off_c, 1, 78, 0
2, 48120, Note_on_c, 1, 63, 127
2, 48120, Note_on_c, 1, 67, 127
2, 48120, Note_on_c, 1, 75, 127
2, 48160, Note_off_c, 1, 48, 0
2, 48160, Note_off_c, 1, 60, 0
2, 48160, Note_off_c, 1, 63, 0
2, 48160, Note_off_c, 1, 67, 0
2, 48160, Note_off_c, 1, 75, 0
2, 48200, Note_on_c, 1, 48, 127
2, 48200, Note_on_c, 1, 60, 127
2, 48200, Note_on_c, 1, 63, 127
2, 48200, Note_on_c, 1, 67, 127
2, 48200, Note_on_c, 1, 75, 127
2, 48320, Note_off_c, 1, 48, 0
2, 48320, Note_off_c, 1, 60, 0
2, 48320, Note_off_c, 1, 63, 0
2, 48320, Note_off_c, 1, 67, 0
2, 48320, Note_off_c, 1, 75, 0
2, 48360, Note_on_c, 1, 47, 127
2, 48360, Note_on_c, 1, 59, 127
2, 48360, Note_on_c, 1, 72, 127
2, 48480, Note_off_c, 1, 47, 0
2, 48480, Note_off_c, 1, 59, 0
2, 48480, Note_off_c, 1, 72, 0
2, 48520, Note_on_c, 1, 47, 127
2, 48520, Note_on_c, 1, 59, 127
2, 48520, Note_on_c, 1, 72, 127
2, 48680, Note_off_c, 1, 47, 0
2, 48680, Note_off_c, 1, 59, 0
2, 48680, Note_off_c, 1, 72, 0
2, 48760, Note_on_c, 1, 40, 127
2, 48760, Note_on_c, 1, 52, 127
2, 48760, Note_on_c, 1, 67, 127
2, 48760, Note_on_c, 1, 71, 127
2, 48760, Note_on_c, 1, 75, 127
2, 49040, Note_off_c, 1, 40, 0
2, 49040, Note_off_c, 1, 52, 0
2, 49040, Note_off_c, 1, 67, 0
2, 49040, Note_off_c, 1, 71, 0
2, 49040, Note_off_c, 1, 75, 0
2, 49080, Note_on_c, 1, 40, 127
2, 49080, Note_on_c, 1, 52, 127
2, 49080, Note_on_c, 1, 67, 127
2, 49080, Note_on_c, 1, 71, 127
2, 49080, Note_on_c, 1, 75, 127
2, 49200, Note_off_c, 1, 40, 0
2, 49200, Note_off_c, 1, 52, 0
2, 49200, Note_off_c, 1, 67, 0
2, 49200, Note_off_c, 1, 71, 0
2, 49200, Note_off_c, 1, 75, 0
2, 49240, Note_on_c, 1, 40, 127
2, 49240, Note_on_c, 1, 52, 127
2, 49240, Note_on_c, 1, 67, 127
2, 49240, Note_on_c, 1, 71, 127
2, 49240, Note_on_c, 1, 75, 127
2, 49360, Note_off_c, 1, 40, 0
2, 49360, Note_off_c, 1, 52, 0
2, 49360, Note_off_c, 1, 67, 0
2, 49360, Note_off_c, 1, 71, 0
2, 49360, Note_off_c, 1, 75, 0
2, 49400, Note_on_c, 1, 40, 127
2, 49400, Note_on_c, 1, 52, 127
2, 49400, Note_on_c, 1, 67, 127
2, 49400, Note_on_c, 1, 71, 127
2, 49400, Note_on_c, 1, 75, 127
2, 49680, Note_on_c, 1, 74, 127
2, 49680, Note_off_c, 1, 75, 0
2, 49720, Note_off_c, 1, 40, 0
2, 49720, Note_off_c, 1, 52, 0
2, 49720, Note_off_c, 1, 67, 0
2, 49720, Note_off_c, 1, 71, 0
2, 49720, Note_off_c, 1, 74, 0
2, 49760, Note_on_c, 1, 43, 127
2, 49760, Note_on_c, 1, 55, 127
2, 49760, Note_on_c, 1, 67, 127
2, 49760, Note_on_c, 1, 71, 127
2, 49760, Note_on_c, 1, 74, 127
2, 50040, Note_off_c, 1, 43, 0
2, 50040, Note_off_c, 1, 55, 0
2, 50040, Note_off_c, 1, 67, 0
2, 50040, Note_off_c, 1, 71, 0
2, 50040, Note_off_c, 1, 74, 0
2, 50080, Note_on_c, 1, 33, 127
2, 50080, Note_on_c, 1, 45, 127
2, 50080, Note_on_c, 1, 64, 127
2, 50080, Note_on_c, 1, 72, 127
2, 50080, Note_on_c, 1, 76, 127
2, 50240, Note_off_c, 1, 33, 0
2, 50240, Note_off_c, 1, 45, 0
2, 50240, Note_off_c, 1, 64, 0
2, 50240, Note_off_c, 1, 72, 0
2, 50240, Note_off_c, 1, 76, 0
2, 50280, Note_on_c, 1, 33, 127
2, 50280, Note_on_c, 1, 45, 127
2, 50280, Note_on_c, 1, 64, 127
2, 50280, Note_on_c, 1, 72, 127
2, 50280, Note_on_c, 1, 76, 127
2, 50400, Note_off_c, 1, 33, 0
2, 50400, Note_off_c, 1, 45, 0
2, 50400, Note_off_c, 1, 64, 0
2, 50400, Note_off_c, 1, 72, 0
2, 50400, Note_off_c, 1, 76, 0
2, 50440, Note_on_c, 1, 33, 127
2, 50440, Note_on_c, 1, 45, 127
2, 50440, Note_on_c, 1, 64, 127
2, 50440, Note_on_c, 1, 72, 127
2, 50440, Note_on_c, 1, 76, 127
2, 50560, Note_off_c, 1, 33, 0
2, 50560, Note_off_c, 1, 45, 0
2, 50560, Note_off_c, 1, 64, 0
2, 50560, Note_off_c, 1, 72, 0
2, 50560, Note_off_c, 1, 76, 0
2, 50600, Note_on_c, 1, 33, 127
2, 50600, Note_on_c, 1, 45, 127
2, 50600, Note_on_c, 1, 64, 127
2, 50600, Note_on_c, 1, 72, 127
2, 50600, Note_on_c, 1, 76, 127
2, 50720, Note_off_c, 1, 33, 0
2, 50720, Note_off_c, 1, 45, 0
2, 50720, Note_off_c, 1, 64, 0
2, 50720, Note_off_c, 1, 72, 0
2, 50720, Note_off_c, 1, 76, 0
2, 50760, Note_on_c, 1, 33, 127
2, 50760, Note_on_c, 1, 45, 127
2, 50760, Note_on_c, 1, 64, 127
2, 50760, Note_on_c, 1, 72, 127
2, 50760, Note_on_c, 1, 76, 127
2, 50920, Note_off_c, 1, 33, 0
2, 50920, Note_off_c, 1, 45, 0
2, 50920, Note_off_c, 1, 64, 0
2, 50920, Note_off_c, 1, 72, 0
2, 50920, Note_off_c, 1, 76, 0
2, 51000, Note_on_c, 1, 33, 127
2, 51000, Note_on_c, 1, 45, 127
2, 51000, Note_on_c, 1, 64, 127
2, 51000, Note_on_c, 1, 72, 127
2, 51000, Note_on_c, 1, 76, 127
2, 51120, Note_off_c, 1, 33, 0
2, 51120, Note_off_c, 1, 45, 0
2, 51120, Note_off_c, 1, 64, 0
2, 51120, Note_off_c, 1, 72, 0
2, 51120, Note_off_c, 1, 76, 0
2, 51160, Note_on_c, 1, 33, 127
2, 51160, Note_on_c, 1, 45, 127
2, 51160, Note_on_c, 1, 64, 127
2, 51160, Note_on_c, 1, 72, 127
2, 51160, Note_on_c, 1, 76, 127
2, 51280, Note_off_c, 1, 33, 0
2, 51280, Note_off_c, 1, 45, 0
2, 51280, Note_off_c, 1, 64, 0
2, 51280, Note_off_c, 1, 72, 0
2, 51280, Note_off_c, 1, 76, 0
2, 51320, Note_on_c, 1, 38, 127
2, 51320, Note_on_c, 1, 50, 127
2, 51320, Note_on_c, 1, 69, 127
2, 51320, Note_on_c, 1, 74, 127
2, 51320, Note_on_c, 1, 81, 127
2, 51440, Note_off_c, 1, 38, 0
2, 51440, Note_off_c, 1, 50, 0
2, 51440, Note_off_c, 1, 69, 0
2, 51440, Note_off_c, 1, 74, 0
2, 51440, Note_off_c, 1, 81, 0
2, 51480, Note_on_c, 1, 39, 127
2, 51480, Note_on_c, 1, 51, 127
2, 51480, Note_on_c, 1, 58, 127
2, 51480, Note_on_c, 1, 63, 127
2, 51480, Note_on_c, 1, 66, 127
2, 51640, Note_off_c, 1, 39, 0
2, 51640, Note_off_c, 1, 51, 0
2, 51640, Note_off_c, 1, 58, 0
2, 51640, Note_off_c, 1, 63, 0
2, 51640, Note_off_c, 1, 66, 0
2, 51680, Note_on_c, 1, 44, 127
2, 51680, Note_on_c, 1, 56, 127
2, 51680, Note_on_c, 1, 63, 127
2, 51680, Note_on_c, 1, 66, 127
2, 51680, Note_on_c, 1, 72, 127
2, 51800, Note_off_c, 1, 44, 0
2, 51800, Note_off_c, 1, 56, 0
2, 51800, Note_off_c, 1, 63, 0
2, 51800, Note_off_c, 1, 66, 0
2, 51800, Note_off_c, 1, 72, 0
2, 51840, Note_on_c, 1, 44, 127
2, 51840, Note_on_c, 1, 56, 127
2, 51840, Note_on_c, 1, 63, 127
2, 51840, Note_on_c, 1, 66, 127
2, 51840, Note_on_c, 1, 72, 127
2, 51960, Note_off_c, 1, 44, 0
2, 51960, Note_off_c, 1, 56, 0
2, 51960, Note_off_c, 1, 63, 0
2, 51960, Note_off_c, 1, 66, 0
2, 51960, Note_off_c, 1, 72, 0
2, 52000, Note_on_c, 1, 44, 127
2, 52000, Note_on_c, 1, 56, 127
2, 52000, Note_on_c, 1, 63, 127
2, 52000, Note_on_c, 1, 66, 127
2, 52000, Note_on_c, 1, 72, 127
2, 52120, Note_off_c, 1, 44, 0
2, 52120, Note_off_c, 1, 56, 0
2, 52120, Note_off_c, 1, 63, 0
2, 52120, Note_off_c, 1, 66, 0
2, 52120, Note_off_c, 1, 72, 0
2, 52160, Note_on_c, 1, 49, 127
2, 52160, Note_on_c, 1, 56, 127
2, 52160, Note_on_c, 1, 65, 127
2, 52160, Note_on_c, 1, 72, 127
2, 52280, Note_off_c, 1, 49, 0
2, 52280, Note_off_c, 1, 56, 0
2, 52280, Note_off_c, 1, 65, 0
2, 52360, Note_on_c, 1, 60, 127
2, 52480, Note_off_c, 1, 60, 0
2, 52480, Note_off_c, 1, 72, 0
2, 52520, Note_on_c, 1, 61, 127
2, 52520, Note_on_c, 1, 73, 127
2, 52640, Note_off_c, 1, 61, 0
2, 52640, Note_off_c, 1, 73, 0
2, 52680, Note_on_c, 1, 60, 127
2, 52680, Note_on_c, 1, 72, 127
2, 52800, Note_off_c, 1, 60, 0
2, 52800, Note_off_c, 1, 72, 0
2, 52840, Note_on_c, 1, 56, 127
2, 52840, Note_on_c, 1, 68, 127
2, 53000, Note_off_c, 1, 56, 0
2, 53000, Note_off_c, 1, 68, 0
2, 53040, Note_on_c, 1, 60, 127
2, 53040, Note_on_c, 1, 72, 127
2, 53160, Note_off_c, 1, 60, 0
2, 53160, Note_off_c, 1, 72, 0
2, 53240, Note_on_c, 1, 61, 127
2, 53240, Note_on_c, 1, 73, 127
2, 53520, Note_off_c, 1, 61, 0
2, 53520, Note_off_c, 1, 73, 0
2, 53560, Note_on_c, 1, 52, 127
2, 53560, Note_on_c, 1, 56, 127
2, 53560, Note_on_c, 1, 59, 127
2, 53560, Note_on_c, 1, 64, 127
2, 53560, Note_on_c, 1, 68, 127
2, 53560, Note_on_c, 1, 71, 127
2, 53720, Note_off_c, 1, 56, 0
2, 53720, Note_off_c, 1, 59, 0
2, 53720, Note_off_c, 1, 64, 0
2, 53720, Note_off_c, 1, 68, 0
2, 53720, Note_off_c, 1, 71, 0
2, 53720, Note_on_c, 1, 73, 127
2, 53760, Note_on_c, 1, 57, 127
2, 53760, Note_on_c, 1, 61, 127
2, 53760, Note_on_c, 1, 64, 127
2, 53760, Note_on_c, 1, 69, 127
2, 53880, Note_off_c, 1, 52, 0
2, 53880, Note_off_c, 1, 57, 0
2, 53880, Note_off_c, 1, 61, 0
2, 53880, Note_off_c, 1, 64, 0
2, 53880, Note_off_c, 1, 69, 0
2, 53880, Note_off_c, 1, 73, 0
2, 53920, Note_on_c, 1, 52, 127
2, 53920, Note_on_c, 1, 56, 127
2, 53920, Note_on_c, 1, 59, 127
2, 53920, Note_on_c, 1, 64, 127
2, 53920, Note_on_c, 1, 68, 127
2, 53920, Note_on_c, 1, 71, 127
2, 54040, Note_off_c, 1, 52, 0
2, 54040, Note_off_c, 1, 56, 0
2, 54040, Note_off_c, 1, 59, 0
2, 54040, Note_off_c, 1, 64, 0
2, 54040, Note_off_c, 1, 68, 0
2, 54040, Note_off_c, 1, 71, 0
2, 54080, Note_on_c, 1, 49, 127
2, 54080, Note_on_c, 1, 56, 127
2, 54080, Note_on_c, 1, 61, 127
2, 54080, Note_on_c, 1, 64, 127
2, 54080, Note_on_c, 1, 68, 127
2, 54200, Note_off_c, 1, 49, 0
2, 54200, Note_off_c, 1, 56, 0
2, 54200, Note_off_c, 1, 61, 0
2, 54200, Note_off_c, 1, 64, 0
2, 54200, Note_off_c, 1, 68, 0
2, 54240, Note_on_c, 1, 49, 127
2, 54240, Note_on_c, 1, 58, 127
2, 54240, Note_on_c, 1, 61, 127
2, 54240, Note_on_c, 1, 64, 127
2, 54240, Note_on_c, 1, 67, 127
2, 54240, Note_on_c, 1, 70, 127
2, 54520, Note_off_c, 1, 49, 0
2, 54520, Note_off_c, 1, 58, 0
2, 54560, Note_on_c, 1, 44, 127
2, 54560, Note_off_c, 1, 61, 0
2, 54560, Note_off_c, 1, 64, 0
2, 54560, Note_off_c, 1, 67, 0
2, 54560, Note_off_c, 1, 70, 0
2, 54600, Note_off_c, 1, 44, 0
2, 54600, Note_on_c, 1, 59, 127
2, 54600, Note_on_c, 1, 63, 127
2, 54600, Note_on_c, 1, 71, 127
2, 54720, Note_off_c, 1, 59, 0
2, 54720, Note_off_c, 1, 63, 0
2, 54720, Note_off_c, 1, 71, 0
2, 54760, Note_on_c, 1, 61, 127
2, 54760, Note_on_c, 1, 73, 127
2, 54880, Note_off_c, 1, 61, 0
2, 54880, Note_off_c, 1, 73, 0
2, 54920, Note_on_c, 1, 59, 127
2, 54920, Note_on_c, 1, 71, 127
2, 55080, Note_off_c, 1, 59, 0
2, 55080, Note_off_c, 1, 71, 0
2, 55120, Note_on_c, 1, 56, 127
2, 55120, Note_on_c, 1, 68, 127
2, 55240, Note_off_c, 1, 56, 0
2, 55240, Note_off_c, 1, 68, 0
2, 55320, Note_on_c, 1, 58, 127
2, 55320, Note_on_c, 1, 70, 127
2, 55600, Note_off_c, 1, 58, 0
2, 55600, Note_off_c, 1, 70, 0
2, 55640, Note_on_c, 1, 51, 127
2, 55640, Note_on_c, 1, 60, 127
2, 55640, Note_on_c, 1, 63, 127
2, 55640, Note_on_c, 1, 66, 127
2, 55640, Note_on_c, 1, 73, 127
2, 55640, Note_on_c, 1, 77, 127
2, 55800, Note_off_c, 1, 51, 0
2, 55800, Note_off_c, 1, 60, 0
2, 55800, Note_off_c, 1, 63, 0
2, 55800, Note_off_c, 1, 66, 0
2, 55800, Note_off_c, 1, 73, 0
2, 55800, Note_off_c, 1, 77, 0
2, 55840, Note_on_c, 1, 42, 127
2, 55840, Note_on_c, 1, 58, 127
2, 55840, Note_on_c, 1, 61, 127
2, 55840, Note_on_c, 1, 73, 127
2, 55960, Note_off_c, 1, 42, 0
2, 55960, Note_off_c, 1, 58, 0
2, 55960, Note_off_c, 1, 61, 0
2, 55960, Note_off_c, 1, 73, 0
2, 56000, Note_on_c, 1, 42, 127
2, 56000, Note_on_c, 1, 58, 127
2, 56000, Note_on_c, 1, 61, 127
2, 56000, Note_on_c, 1, 73, 127
2, 56120, Note_off_c, 1, 42, 0
2, 56120, Note_off_c, 1, 58, 0
2, 56120, Note_off_c, 1, 61, 0
2, 56120, Note_off_c, 1, 73, 0
2, 56160, Note_on_c, 1, 42, 127
2, 56160, Note_on_c, 1, 58, 127
2, 56160, Note_on_c, 1, 61, 127
2, 56160, Note_on_c, 1, 73, 127
2, 56320, Note_off_c, 1, 42, 0
2, 56320, Note_off_c, 1, 58, 0
2, 56320, Note_off_c, 1, 61, 0
2, 56320, Note_off_c, 1, 73, 0
2, 56360, Note_on_c, 1, 42, 127
2, 56360, Note_on_c, 1, 58, 127
2, 56360, Note_on_c, 1, 61, 127
2, 56360, Note_on_c, 1, 73, 127
2, 56480, Note_off_c, 1, 42, 0
2, 56480, Note_off_c, 1, 58, 0
2, 56480, Note_off_c, 1, 61, 0
2, 56480, Note_off_c, 1, 73, 0
2, 56520, Note_on_c, 1, 58, 127
2, 56520, Note_on_c, 1, 70, 127
2, 56520, Note_on_c, 1, 73, 127
2, 56520, Note_on_c, 1, 78, 127
2, 56520, Note_on_c, 1, 82, 127
2, 56640, Note_off_c, 1, 58, 0
2, 56640, Note_off_c, 1, 70, 0
2, 56640, Note_off_c, 1, 73, 0
2, 56640, Note_off_c, 1, 78, 0
2, 56640, Note_off_c, 1, 82, 0
2, 56680, Note_on_c, 1, 58, 127
2, 56680, Note_on_c, 1, 70, 127
2, 56680, Note_on_c, 1, 73, 127
2, 56680, Note_on_c, 1, 78, 127
2, 56680, Note_on_c, 1, 82, 127
2, 56800, Note_off_c, 1, 58, 0
2, 56800, Note_off_c, 1, 70, 0
2, 56800, Note_off_c, 1, 73, 0
2, 56800, Note_off_c, 1, 78, 0
2, 56800, Note_off_c, 1, 82, 0
2, 56840, Note_on_c, 1, 53, 127
2, 56840, Note_on_c, 1, 56, 127
2, 56840, Note_on_c, 1, 61, 127
2, 56840, Note_on_c, 1, 71, 127
2, 57000, Note_off_c, 1, 53, 0
2, 57000, Note_off_c, 1, 56, 0
2, 57000, Note_off_c, 1, 61, 0
2, 57000, Note_off_c, 1, 71, 0
2, 57040, Note_on_c, 1, 37, 127
2, 57040, Note_on_c, 1, 45, 127
2, 57040, Note_on_c, 1, 49, 127
2, 57040, Note_on_c, 1, 67, 127
2, 57040, Note_on_c, 1, 69, 127
2, 57160, Note_off_c, 1, 37, 0
2, 57160, Note_off_c, 1, 45, 0
2, 57160, Note_off_c, 1, 49, 0
2, 57160, Note_off_c, 1, 67, 0
2, 57160, Note_off_c, 1, 69, 0
2, 57200, Note_on_c, 1, 37, 127
2, 57200, Note_on_c, 1, 40, 127
2, 57200, Note_on_c, 1, 49, 127
2, 57320, Note_off_c, 1, 37, 0
2, 57320, Note_off_c, 1, 40, 0
2, 57320, Note_off_c, 1, 49, 0
2, 57360, Note_on_c, 1, 37, 127
2, 57360, Note_on_c, 1, 40, 127
2, 57360, Note_on_c, 1, 49, 127
2, 57520, Note_off_c, 1, 37, 0
2, 57520, Note_off_c, 1, 40, 0
2, 57520, Note_off_c, 1, 49, 0
2, 57600, Note_on_c, 1, 59, 127
2, 57600, Note_on_c, 1, 62, 127
2, 57600, Note_on_c, 1, 67, 127
2, 57600, Note_on_c, 1, 71, 127
2, 57600, Note_on_c, 1, 86, 127
2, 57720, Note_off_c, 1, 59, 0
2, 57720, Note_off_c, 1, 62, 0
2, 57720, Note_off_c, 1, 67, 0
2, 57720, Note_off_c, 1, 71, 0
2, 57720, Note_off_c, 1, 86, 0
2, 57760, Note_on_c, 1, 63, 127
2, 57760, Note_on_c, 1, 67, 127
2, 57760, Note_on_c, 1, 69, 127
2, 57760, Note_on_c, 1, 72, 127
2, 57880, Note_off_c, 1, 63, 0
2, 57880, Note_off_c, 1, 67, 0
2, 57880, Note_off_c, 1, 69, 0
2, 57880, Note_off_c, 1, 72, 0
2, 57920, Note_on_c, 1, 59, 127
2, 57920, Note_on_c, 1, 64, 127
2, 57920, Note_on_c, 1, 68, 127
2, 57920, Note_on_c, 1, 71, 127
2, 57920, Note_on_c, 1, 76, 127
2, 57920, Note_on_c, 1, 80, 127
2, 58080, Note_off_c, 1, 59, 0
2, 58080, Note_off_c, 1, 64, 0
2, 58080, Note_off_c, 1, 68, 0
2, 58080, Note_off_c, 1, 71, 0
2, 58080, Note_off_c, 1, 76, 0
2, 58080, Note_off_c, 1, 80, 0
2, 58120, Note_on_c, 1, 59, 127
2, 58120, Note_on_c, 1, 64, 127
2, 58120, Note_on_c, 1, 68, 127
2, 58120, Note_on_c, 1, 71, 127
2, 58120, Note_on_c, 1, 76, 127
2, 58120, Note_on_c, 1, 80, 127
2, 58240, Note_off_c, 1, 59, 0
2, 58240, Note_off_c, 1, 64, 0
2, 58240, Note_off_c, 1, 68, 0
2, 58240, Note_off_c, 1, 71, 0
2, 58240, Note_off_c, 1, 76, 0
2, 58240, Note_off_c, 1, 80, 0
2, 58280, Note_on_c, 1, 59, 127
2, 58280, Note_on_c, 1, 64, 127
2, 58280, Note_on_c, 1, 68, 127
2, 58280, Note_on_c, 1, 71, 127
2, 58280, Note_on_c, 1, 76, 127
2, 58280, Note_on_c, 1, 80, 127
2, 58400, Note_off_c, 1, 59, 0
2, 58400, Note_off_c, 1, 64, 0
2, 58400, Note_off_c, 1, 68, 0
2, 58400, Note_off_c, 1, 71, 0
2, 58400, Note_off_c, 1, 76, 0
2, 58400, Note_off_c, 1, 80, 0
2, 58440, Note_on_c, 1, 59, 127
2, 58440, Note_on_c, 1, 64, 127
2, 58440, Note_on_c, 1, 68, 127
2, 58440, Note_on_c, 1, 71, 127
2, 58440, Note_on_c, 1, 76, 127
2, 58440, Note_on_c, 1, 80, 127
2, 58560, Note_off_c, 1, 59, 0
2, 58560, Note_off_c, 1, 64, 0
2, 58560, Note_off_c, 1, 68, 0
2, 58560, Note_off_c, 1, 71, 0
2, 58560, Note_off_c, 1, 76, 0
2, 58560, Note_off_c, 1, 80, 0
2, 58640, Note_on_c, 1, 59, 127
2, 58640, Note_on_c, 1, 64, 127
2, 58640, Note_on_c, 1, 68, 127
2, 58640, Note_on_c, 1, 71, 127
2, 58640, Note_on_c, 1, 76, 127
2, 58640, Note_on_c, 1, 80, 127
2, 58720, Note_off_c, 1, 59, 0
2, 58720, Note_off_c, 1, 64, 0
2, 58720, Note_off_c, 1, 68, 0
2, 58720, Note_off_c, 1, 71, 0
2, 58720, Note_off_c, 1, 76, 0
2, 58720, Note_off_c, 1, 80, 0
2, 58800, Note_on_c, 1, 59, 127
2, 58800, Note_on_c, 1, 64, 127
2, 58800, Note_on_c, 1, 68, 127
2, 58800, Note_on_c, 1, 71, 127
2, 58800, Note_on_c, 1, 76, 127
2, 58800, Note_on_c, 1, 80, 127
2, 58920, Note_off_c, 1, 59, 0
2, 58920, Note_off_c, 1, 64, 0
2, 58920, Note_off_c, 1, 68, 0
2, 58920, Note_off_c, 1, 71, 0
2, 58920, Note_off_c, 1, 76, 0
2, 58920, Note_off_c, 1, 80, 0
2, 58960, Note_on_c, 1, 69, 127
2, 58960, Note_on_c, 1, 76, 127
2, 58960, Note_on_c, 1, 81, 127
2, 58960, Note_on_c, 1, 85, 127
2, 58960, Note_on_c, 1, 91, 127
2, 59080, Note_off_c, 1, 69, 0
2, 59080, Note_off_c, 1, 76, 0
2, 59080, Note_off_c, 1, 81, 0
2, 59080, Note_off_c, 1, 85, 0
2, 59080, Note_off_c, 1, 91, 0
2, 59160, Note_on_c, 1, 64, 127
2, 59160, Note_on_c, 1, 68, 127
2, 59160, Note_on_c, 1, 74, 127
2, 59160, Note_on_c, 1, 76, 127
2, 59160, Note_on_c, 1, 83, 127
2, 59280, Note_off_c, 1, 64, 0
2, 59280, Note_off_c, 1, 68, 0
2, 59280, Note_off_c, 1, 74, 0
2, 59280, Note_off_c, 1, 76, 0
2, 59280, Note_off_c, 1, 83, 0
2, 59320, Note_on_c, 1, 64, 127
2, 59320, Note_on_c, 1, 68, 127
2, 59320, Note_on_c, 1, 74, 127
2, 59320, Note_on_c, 1, 76, 127
2, 59320, Note_on_c, 1, 83, 127
2, 59440, Note_off_c, 1, 64, 0
2, 59440, Note_off_c, 1, 68, 0
2, 59440, Note_off_c, 1, 74, 0
2, 59440, Note_off_c, 1, 76, 0
2, 59440, Note_off_c, 1, 83, 0
2, 59560, Note_on_c, 1, 80, 127
2, 59560, Note_on_c, 1, 88, 127
2, 59560, Note_on_c, 1, 92, 127
2, 59680, Note_off_c, 1, 80, 0
2, 59680, Note_off_c, 1, 88, 0
2, 59680, Note_off_c, 1, 92, 0
2, 59720, Note_on_c, 1, 47, 127
2, 59720, Note_on_c, 1, 59, 127
2, 59720, Note_on_c, 1, 78, 127
2, 59720, Note_on_c, 1, 87, 127
2, 59720, Note_on_c, 1, 90, 127
2, 59760, Note_off_c, 1, 47, 0
2, 59760, Note_off_c, 1, 59, 0
2, 59760, Note_off_c, 1, 78, 0
2, 59760, Note_on_c, 1, 80, 127
2, 59760, Note_off_c, 1, 87, 0
2, 59760, Note_on_c, 1, 88, 127
2, 59760, Note_off_c, 1, 90, 0
2, 59760, Note_on_c, 1, 92, 127
2, 59840, Note_off_c, 1, 80, 0
2, 59840, Note_off_c, 1, 88, 0
2, 59840, Note_off_c, 1, 92, 0
2, 59880, Note_on_c, 1, 48, 127
2, 59880, Note_on_c, 1, 52, 127
2, 59880, Note_on_c, 1, 57, 127
2, 59880, Note_on_c, 1, 69, 127
2, 60000, Note_off_c, 1, 48, 0
2, 60000, Note_off_c, 1, 52, 0
2, 60000, Note_off_c, 1, 57, 0
2, 60000, Note_off_c, 1, 69, 0
2, 60240, Note_on_c, 1, 53, 127
2, 60240, Note_on_c, 1, 56, 127
2, 60240, Note_on_c, 1, 59, 127
2, 60240, Note_on_c, 1, 62, 127
2, 60240, Note_on_c, 1, 65, 127
2, 60240, Note_on_c, 1, 68, 127
2, 60240, Note_on_c, 1, 71, 127
2, 60240, Note_on_c, 1, 74, 127
2, 60520, Note_off_c, 1, 53, 0
2, 60520, Note_off_c, 1, 56, 0
2, 60520, Note_off_c, 1, 59, 0
2, 60520, Note_off_c, 1, 62, 0
2, 60520, Note_off_c, 1, 65, 0
2, 60520, Note_off_c, 1, 68, 0
2, 60520, Note_off_c, 1, 71, 0
2, 60520, Note_off_c, 1, 74, 0
2, 60560, Note_on_c, 1, 53, 127
2, 60560, Note_on_c, 1, 56, 127
2, 60560, Note_on_c, 1, 59, 127
2, 60560, Note_on_c, 1, 62, 127
2, 60560, Note_on_c, 1, 65, 127
2, 60560, Note_on_c, 1, 68, 127
2, 60560, Note_on_c, 1, 71, 127
2, 60560, Note_on_c, 1, 74, 127
2, 60880, Note_off_c, 1, 53, 0
2, 60880, Note_off_c, 1, 56, 0
2, 60880, Note_off_c, 1, 59, 0
2, 60880, Note_off_c, 1, 62, 0
2, 60880, Note_off_c, 1, 65, 0
2, 60880, Note_off_c, 1, 68, 0
2, 60880, Note_off_c, 1, 71, 0
2, 60880, Note_off_c, 1, 74, 0
2, 60920, Note_on_c, 1, 44, 127
2, 60920, Note_on_c, 1, 56, 127
2, 60920, Note_on_c, 1, 64, 127
2, 60920, Note_on_c, 1, 72, 127
2, 60920, Note_on_c, 1, 76, 127
2, 61040, Note_off_c, 1, 44, 0
2, 61040, Note_off_c, 1, 56, 0
2, 61040, Note_off_c, 1, 64, 0
2, 61040, Note_off_c, 1, 72, 0
2, 61040, Note_off_c, 1, 76, 0
2, 61080, Note_on_c, 1, 44, 127
2, 61080, Note_on_c, 1, 56, 127
2, 61080, Note_on_c, 1, 64, 127
2, 61080, Note_on_c, 1, 72, 127
2, 61080, Note_on_c, 1, 76, 127
2, 61200, Note_off_c, 1, 44, 0
2, 61200, Note_off_c, 1, 56, 0
2, 61200, Note_off_c, 1, 64, 0
2, 61200, Note_off_c, 1, 72, 0
2, 61200, Note_off_c, 1, 76, 0
2, 61240, Note_on_c, 1, 40, 127
2, 61240, Note_on_c, 1, 47, 127
2, 61240, Note_on_c, 1, 52, 127
2, 61240, Note_on_c, 1, 68, 127
2, 61240, Note_on_c, 1, 71, 127
2, 61240, Note_on_c, 1, 76, 127
2, 61240, Note_on_c, 1, 80, 127
2, 61400, Note_off_c, 1, 40, 0
2, 61400, Note_off_c, 1, 47, 0
2, 61400, Note_off_c, 1, 52, 0
2, 61400, Note_off_c, 1, 68, 0
2, 61400, Note_off_c, 1, 71, 0
2, 61400, Note_off_c, 1, 76, 0
2, 61400, Note_off_c, 1, 80, 0
2, 61440, Note_on_c, 1, 35, 127
2, 61440, Note_on_c, 1, 47, 127
2, 61440, Note_on_c, 1, 66, 127
2, 61440, Note_on_c, 1, 71, 127
2, 61440, Note_on_c, 1, 75, 127
2, 61440, Note_on_c, 1, 78, 127
2, 61560, Note_off_c, 1, 35, 0
2, 61560, Note_off_c, 1, 47, 0
2, 61560, Note_off_c, 1, 66, 0
2, 61560, Note_off_c, 1, 71, 0
2, 61560, Note_off_c, 1, 75, 0
2, 61560, Note_off_c, 1, 78, 0
2, 61640, Note_on_c, 1, 41, 127
2, 61640, Note_on_c, 1, 53, 127
2, 61640, Note_on_c, 1, 65, 127
2, 61640, Note_on_c, 1, 74, 127
2, 61640, Note_on_c, 1, 77, 127
2, 61760, Note_off_c, 1, 41, 0
2, 61760, Note_off_c, 1, 53, 0
2, 61760, Note_off_c, 1, 65, 0
2, 61760, Note_off_c, 1, 74, 0
2, 61760, Note_off_c, 1, 77, 0
2, 61800, Note_on_c, 1, 43, 127
2, 61800, Note_on_c, 1, 55, 127
2, 61800, Note_on_c, 1, 58, 127
2, 61800, Note_on_c, 1, 63, 127
2, 61800, Note_on_c, 1, 70, 127
2, 61960, Note_off_c, 1, 43, 0
2, 61960, Note_off_c, 1, 55, 0
2, 61960, Note_off_c, 1, 58, 0
2, 61960, Note_off_c, 1, 63, 0
2, 61960, Note_off_c, 1, 70, 0
2, 62000, Note_on_c, 1, 44, 127
2, 62000, Note_on_c, 1, 54, 127
2, 62000, Note_on_c, 1, 60, 127
2, 62000, Note_on_c, 1, 63, 127
2, 62000, Note_on_c, 1, 72, 127
2, 62120, Note_off_c, 1, 44, 0
2, 62120, Note_off_c, 1, 54, 0
2, 62120, Note_off_c, 1, 60, 0
2, 62120, Note_off_c, 1, 63, 0
2, 62120, Note_off_c, 1, 72, 0
2, 62160, Note_on_c, 1, 44, 127
2, 62160, Note_on_c, 1, 54, 127
2, 62160, Note_on_c, 1, 60, 127
2, 62160, Note_on_c, 1, 63, 127
2, 62160, Note_on_c, 1, 72, 127
2, 62280, Note_off_c, 1, 44, 0
2, 62280, Note_off_c, 1, 54, 0
2, 62280, Note_off_c, 1, 60, 0
2, 62280, Note_off_c, 1, 63, 0
2, 62280, Note_off_c, 1, 72, 0
2, 62320, Note_on_c, 1, 44, 127
2, 62320, Note_on_c, 1, 54, 127
2, 62320, Note_on_c, 1, 60, 127
2, 62320, Note_on_c, 1, 63, 127
2, 62320, Note_on_c, 1, 72, 127
2, 62480, Note_off_c, 1, 44, 0
2, 62480, Note_off_c, 1, 54, 0
2, 62480, Note_off_c, 1, 60, 0
2, 62480, Note_off_c, 1, 63, 0
2, 62480, Note_off_c, 1, 72, 0
2, 62680, Note_on_c, 1, 43, 127
2, 62680, Note_on_c, 1, 55, 127
2, 62680, Note_on_c, 1, 72, 127
2, 62680, Note_on_c, 1, 76, 127
2, 62680, Note_on_c, 1, 84, 127
2, 62800, Note_off_c, 1, 43, 0
2, 62800, Note_off_c, 1, 55, 0
2, 62800, Note_off_c, 1, 72, 0
2, 62800, Note_off_c, 1, 76, 0
2, 62800, Note_off_c, 1, 84, 0
2, 63000, Note_on_c, 1, 43, 127
2, 63000, Note_on_c, 1, 55, 127
2, 63000, Note_on_c, 1, 72, 127
2, 63000, Note_on_c, 1, 76, 127
2, 63000, Note_on_c, 1, 84, 127
2, 63160, Note_off_c, 1, 43, 0
2, 63160, Note_off_c, 1, 55, 0
2, 63160, Note_off_c, 1, 72, 0
2, 63160, Note_off_c, 1, 76, 0
2, 63160, Note_off_c, 1, 84, 0
2, 63360, Note_on_c, 1, 43, 127
2, 63360, Note_on_c, 1, 55, 127
2, 63360, Note_on_c, 1, 72, 127
2, 63360, Note_on_c, 1, 76, 127
2, 63360, Note_on_c, 1, 84, 127
2, 63480, Note_off_c, 1, 43, 0
2, 63480, Note_off_c, 1, 55, 0
2, 63480, Note_off_c, 1, 72, 0
2, 63480, Note_off_c, 1, 76, 0
2, 63480, Note_off_c, 1, 84, 0
2, 63520, Note_on_c, 1, 40, 127
2, 63520, Note_on_c, 1, 52, 127
2, 63520, Note_on_c, 1, 68, 127
2, 63520, Note_on_c, 1, 71, 127
2, 63520, Note_on_c, 1, 80, 127
2, 63600, Note_off_c, 1, 40, 0
2, 63600, Note_off_c, 1, 52, 0
2, 63600, Note_off_c, 1, 68, 0
2, 63600, Note_off_c, 1, 71, 0
2, 63600, Note_off_c, 1, 80, 0
2, 63640, Note_on_c, 1, 40, 127
2, 63640, Note_on_c, 1, 52, 127
2, 63640, Note_on_c, 1, 68, 127
2, 63640, Note_on_c, 1, 71, 127
2, 63640, Note_on_c, 1, 80, 127
2, 63680, Note_off_c, 1, 40, 0
2, 63680, Note_off_c, 1, 52, 0
2, 63680, Note_off_c, 1, 68, 0
2, 63680, Note_off_c, 1, 71, 0
2, 63680, Note_off_c, 1, 80, 0
2, 63920, Note_on_c, 1, 45, 127
2, 63920, Note_on_c, 1, 52, 127
2, 63920, Note_on_c, 1, 57, 127
2, 63920, Note_on_c, 1, 73, 127
2, 63920, Note_on_c, 1, 76, 127
2, 63920, Note_on_c, 1, 81, 127
2, 63920, Note_on_c, 1, 85, 127
2, 64200, Note_off_c, 1, 45, 0
2, 64200, Note_off_c, 1, 52, 0
2, 64200, Note_off_c, 1, 57, 0
2, 64200, Note_off_c, 1, 73, 0
2, 64200, Note_off_c, 1, 76, 0
2, 64200, Note_off_c, 1, 81, 0
2, 64200, Note_off_c, 1, 85, 0
2, 64240, Note_on_c, 1, 45, 127
2, 64240, Note_on_c, 1, 52, 127
2, 64240, Note_on_c, 1, 73, 127
2, 64240, Note_on_c, 1, 76, 127
2, 64240, Note_on_c, 1, 85, 127
2, 64560, Note_off_c, 1, 45, 0
2, 64560, Note_off_c, 1, 52, 0
2, 64560, Note_off_c, 1, 73, 0
2, 64560, Note_off_c, 1, 76, 0
2, 64560, Note_off_c, 1, 85, 0
2, 64600, Note_on_c, 1, 45, 127
2, 64600, Note_on_c, 1, 52, 127
2, 64600, Note_on_c, 1, 73, 127
2, 64600, Note_on_c, 1, 76, 127
2, 64600, Note_on_c, 1, 85, 127
2, 64880, Note_off_c, 1, 45, 0
2, 64880, Note_off_c, 1, 52, 0
2, 64880, Note_off_c, 1, 73, 0
2, 64880, Note_off_c, 1, 76, 0
2, 64880, Note_off_c, 1, 85, 0
2, 64920, Note_on_c, 1, 45, 127
2, 64920, Note_on_c, 1, 52, 127
2, 64920, Note_on_c, 1, 73, 127
2, 64920, Note_on_c, 1, 76, 127
2, 64920, Note_on_c, 1, 85, 127
2, 65040, Note_off_c, 1, 45, 0
2, 65040, Note_off_c, 1, 52, 0
2, 65040, Note_off_c, 1, 73, 0
2, 65040, Note_off_c, 1, 76, 0
2, 65040, Note_off_c, 1, 85, 0
2, 65080, Note_on_c, 1, 45, 127
2, 65080, Note_on_c, 1, 52, 127
2, 65080, Note_on_c, 1, 73, 127
2, 65080, Note_on_c, 1, 76, 127
2, 65080, Note_on_c, 1, 85, 127
2, 65400, Note_off_c, 1, 45, 0
2, 65400, Note_off_c, 1, 52, 0
2, 65400, Note_off_c, 1, 73, 0
2, 65400, Note_off_c, 1, 76, 0
2, 65400, Note_off_c, 1, 85, 0
2, 65440, Note_on_c, 1, 45, 127
2, 65440, Note_on_c, 1, 52, 127
2, 65440, Note_on_c, 1, 73, 127
2, 65440, Note_on_c, 1, 76, 127
2, 65440, Note_on_c, 1, 85, 127
2, 65560, Note_off_c, 1, 45, 0
2, 65560, Note_off_c, 1, 52, 0
2, 65560, Note_off_c, 1, 73, 0
2, 65560, Note_off_c, 1, 76, 0
2, 65560, Note_off_c, 1, 85, 0
2, 65600, Note_on_c, 1, 45, 127
2, 65600, Note_on_c, 1, 52, 127
2, 65600, Note_on_c, 1, 73, 127
2, 65600, Note_on_c, 1, 76, 127
2, 65600, Note_on_c, 1, 86, 127
2, 65760, Note_off_c, 1, 45, 0
2, 65760, Note_off_c, 1, 52, 0
2, 65760, Note_off_c, 1, 73, 0
2, 65760, Note_off_c, 1, 76, 0
2, 65760, Note_off_c, 1, 86, 0
2, 65840, Note_on_c, 1, 45, 127
2, 65840, Note_on_c, 1, 52, 127
2, 65840, Note_on_c, 1, 73, 127
2, 65840, Note_on_c, 1, 76, 127
2, 65840, Note_on_c, 1, 85, 127
2, 65960, Note_off_c, 1, 45, 0
2, 65960, Note_off_c, 1, 52, 0
2, 65960, Note_off_c, 1, 73, 0
2, 65960, Note_off_c, 1, 76, 0
2, 65960, Note_off_c, 1, 85, 0
2, 66000, Note_on_c, 1, 45, 127
2, 66000, Note_on_c, 1, 52, 127
2, 66000, Note_on_c, 1, 73, 127
2, 66000, Note_on_c, 1, 76, 127
2, 66000, Note_on_c, 1, 85, 127
2, 66120, Note_off_c, 1, 45, 0
2, 66120, Note_off_c, 1, 52, 0
2, 66120, Note_off_c, 1, 73, 0
2, 66120, Note_off_c, 1, 76, 0
2, 66120, Note_off_c, 1, 85, 0
2, 66160, Note_on_c, 1, 45, 127
2, 66160, Note_on_c, 1, 52, 127
2, 66160, Note_on_c, 1, 73, 127
2, 66160, Note_on_c, 1, 76, 127
2, 66160, Note_on_c, 1, 85, 127
2, 66280, Note_off_c, 1, 45, 0
2, 66280, Note_off_c, 1, 52, 0
2, 66280, Note_off_c, 1, 73, 0
2, 66280, Note_off_c, 1, 76, 0
2, 66280, Note_off_c, 1, 85, 0
2, 66320, Note_on_c, 1, 45, 127
2, 66320, Note_on_c, 1, 57, 127
2, 66320, Note_on_c, 1, 73, 127
2, 66320, Note_on_c, 1, 76, 127
2, 66320, Note_on_c, 1, 85, 127
2, 66480, Note_off_c, 1, 45, 0
2, 66480, Note_off_c, 1, 57, 0
2, 66480, Note_off_c, 1, 73, 0
2, 66480, Note_off_c, 1, 76, 0
2, 66480, Note_off_c, 1, 85, 0
2, 66520, Note_on_c, 1, 47, 127
2, 66520, Note_on_c, 1, 52, 127
2, 66520, Note_on_c, 1, 59, 127
2, 66520, Note_on_c, 1, 74, 127
2, 66520, Note_on_c, 1, 76, 127
2, 66520, Note_on_c, 1, 86, 127
2, 66640, Note_off_c, 1, 47, 0
2, 66640, Note_off_c, 1, 52, 0
2, 66640, Note_off_c, 1, 59, 0
2, 66640, Note_off_c, 1, 74, 0
2, 66640, Note_off_c, 1, 76, 0
2, 66640, Note_off_c, 1, 86, 0
2, 66680, Note_on_c, 1, 45, 127
2, 66680, Note_on_c, 1, 52, 127
2, 66680, Note_on_c, 1, 57, 127
2, 66680, Note_on_c, 1, 73, 127
2, 66680, Note_on_c, 1, 76, 127
2, 66680, Note_on_c, 1, 85, 127
2, 66800, Note_off_c, 1, 45, 0
2, 66800, Note_off_c, 1, 52, 0
2, 66800, Note_off_c, 1, 57, 0
2, 66800, Note_off_c, 1, 73, 0
2, 66800, Note_off_c, 1, 76, 0
2, 66800, Note_off_c, 1, 85, 0
2, 66840, Note_on_c, 1, 45, 127
2, 66840, Note_on_c, 1, 52, 127
2, 66840, Note_on_c, 1, 57, 127
2, 66840, Note_on_c, 1, 73, 127
2, 66840, Note_on_c, 1, 76, 127
2, 66840, Note_on_c, 1, 85, 127
2, 67160, Note_off_c, 1, 45, 0
2, 67160, Note_off_c, 1, 52, 0
2, 67160, Note_off_c, 1, 57, 0
2, 67160, Note_off_c, 1, 73, 0
2, 67160, Note_off_c, 1, 76, 0
2, 67160, Note_off_c, 1, 85, 0
2, 67200, Note_on_c, 1, 45, 127
2, 67200, Note_on_c, 1, 52, 127
2, 67200, Note_on_c, 1, 57, 127
2, 67200, Note_on_c, 1, 73, 127
2, 67200, Note_on_c, 1, 76, 127
2, 67200, Note_on_c, 1, 85, 127
2, 67320, Note_off_c, 1, 45, 0
2, 67320, Note_off_c, 1, 52, 0
2, 67320, Note_off_c, 1, 57, 0
2, 67320, Note_off_c, 1, 73, 0
2, 67320, Note_off_c, 1, 76, 0
2, 67320, Note_off_c, 1, 85, 0
2, 67360, Note_on_c, 1, 47, 127
2, 67360, Note_on_c, 1, 52, 127
2, 67360, Note_on_c, 1, 59, 127
2, 67360, Note_on_c, 1, 74, 127
2, 67360, Note_on_c, 1, 76, 127
2, 67360, Note_on_c, 1, 86, 127
2, 67480, Note_off_c, 1, 47, 0
2, 67480, Note_off_c, 1, 52, 0
2, 67480, Note_off_c, 1, 59, 0
2, 67480, Note_off_c, 1, 74, 0
2, 67480, Note_off_c, 1, 76, 0
2, 67480, Note_off_c, 1, 86, 0
2, 67520, Note_on_c, 1, 45, 127
2, 67520, Note_on_c, 1, 52, 127
2, 67520, Note_on_c, 1, 57, 127
2, 67520, Note_on_c, 1, 73, 127
2, 67520, Note_on_c, 1, 76, 127
2, 67520, Note_on_c, 1, 85, 127
2, 67680, Note_off_c, 1, 45, 0
2, 67680, Note_off_c, 1, 52, 0
2, 67680, Note_off_c, 1, 57, 0
2, 67680, Note_off_c, 1, 73, 0
2, 67680, Note_off_c, 1, 76, 0
2, 67680, Note_off_c, 1, 85, 0
2, 67720, Note_on_c, 1, 45, 127
2, 67720, Note_on_c, 1, 52, 127
2, 67720, Note_on_c, 1, 57, 127
2, 67720, Note_on_c, 1, 73, 127
2, 67720, Note_on_c, 1, 76, 127
2, 67720, Note_on_c, 1, 85, 127
2, 67840, Note_off_c, 1, 45, 0
2, 67840, Note_off_c, 1, 52, 0
2, 67840, Note_off_c, 1, 57, 0
2, 67840, Note_off_c, 1, 73, 0
2, 67840, Note_off_c, 1, 76, 0
2, 67840, Note_off_c, 1, 85, 0
2, 67920, Note_on_c, 1, 45, 127
2, 67920, Note_on_c, 1, 52, 127
2, 67920, Note_on_c, 1, 57, 127
2, 67920, Note_on_c, 1, 73, 127
2, 67920, Note_on_c, 1, 76, 127
2, 67920, Note_on_c, 1, 85, 127
2, 68040, Note_off_c, 1, 45, 0
2, 68040, Note_off_c, 1, 52, 0
2, 68040, Note_off_c, 1, 57, 0
2, 68040, Note_off_c, 1, 73, 0
2, 68040, Note_off_c, 1, 76, 0
2, 68040, Note_off_c, 1, 85, 0
2, 68080, Note_on_c, 1, 45, 127
2, 68080, Note_on_c, 1, 52, 127
2, 68080, Note_on_c, 1, 57, 127
2, 68080, Note_on_c, 1, 73, 127
2, 68080, Note_on_c, 1, 76, 127
2, 68080, Note_on_c, 1, 85, 127
2, 68240, Note_off_c, 1, 45, 0
2, 68240, Note_off_c, 1, 52, 0
2, 68240, Note_off_c, 1, 57, 0
2, 68240, Note_off_c, 1, 73, 0
2, 68240, Note_off_c, 1, 76, 0
2, 68240, Note_off_c, 1, 85, 0
2, 68280, Note_on_c, 1, 44, 127
2, 68280, Note_on_c, 1, 52, 127
2, 68280, Note_on_c, 1, 56, 127
2, 68280, Note_on_c, 1, 71, 127
2, 68280, Note_on_c, 1, 76, 127
2, 68280, Note_on_c, 1, 83, 127
2, 68400, Note_off_c, 1, 44, 0
2, 68400, Note_off_c, 1, 52, 0
2, 68400, Note_off_c, 1, 56, 0
2, 68400, Note_off_c, 1, 71, 0
2, 68400, Note_off_c, 1, 76, 0
2, 68400, Note_off_c, 1, 83, 0
2, 68440, Note_on_c, 1, 44, 127
2, 68440, Note_on_c, 1, 52, 127
2, 68440, Note_on_c, 1, 56, 127
2, 68440, Note_on_c, 1, 71, 127
2, 68440, Note_on_c, 1, 76, 127
2, 68440, Note_on_c, 1, 83, 127
2, 68560, Note_off_c, 1, 44, 0
2, 68560, Note_off_c, 1, 52, 0
2, 68560, Note_off_c, 1, 56, 0
2, 68560, Note_off_c, 1, 71, 0
2, 68560, Note_off_c, 1, 76, 0
2, 68560, Note_off_c, 1, 83, 0
2, 68600, Note_on_c, 1, 44, 127
2, 68600, Note_on_c, 1, 52, 127
2, 68600, Note_on_c, 1, 56, 127
2, 68600, Note_on_c, 1, 71, 127
2, 68600, Note_on_c, 1, 76, 127
2, 68600, Note_on_c, 1, 83, 127
2, 68920, Note_off_c, 1, 44, 0
2, 68920, Note_off_c, 1, 52, 0
2, 68920, Note_off_c, 1, 56, 0
2, 68920, Note_off_c, 1, 71, 0
2, 68920, Note_off_c, 1, 76, 0
2, 68920, Note_off_c, 1, 83, 0
2, 68960, Note_on_c, 1, 44, 127
2, 68960, Note_on_c, 1, 52, 127
2, 68960, Note_on_c, 1, 56, 127
2, 68960, Note_on_c, 1, 71, 127
2, 68960, Note_on_c, 1, 76, 127
2, 68960, Note_on_c, 1, 83, 127
2, 69080, Note_off_c, 1, 44, 0
2, 69080, Note_off_c, 1, 52, 0
2, 69080, Note_off_c, 1, 56, 0
2, 69080, Note_off_c, 1, 71, 0
2, 69080, Note_off_c, 1, 76, 0
2, 69080, Note_off_c, 1, 83, 0
2, 69120, Note_on_c, 1, 44, 127
2, 69120, Note_on_c, 1, 52, 127
2, 69120, Note_on_c, 1, 56, 127
2, 69120, Note_on_c, 1, 71, 127
2, 69120, Note_on_c, 1, 76, 127
2, 69120, Note_on_c, 1, 83, 127
2, 69280, Note_off_c, 1, 44, 0
2, 69280, Note_off_c, 1, 52, 0
2, 69280, Note_off_c, 1, 56, 0
2, 69280, Note_off_c, 1, 71, 0
2, 69280, Note_off_c, 1, 76, 0
2, 69280, Note_off_c, 1, 83, 0
2, 69320, Note_on_c, 1, 45, 127
2, 69320, Note_on_c, 1, 52, 127
2, 69320, Note_on_c, 1, 57, 127
2, 69320, Note_on_c, 1, 73, 127
2, 69320, Note_on_c, 1, 76, 127
2, 69320, Note_on_c, 1, 85, 127
2, 69440, Note_off_c, 1, 45, 0
2, 69440, Note_off_c, 1, 52, 0
2, 69440, Note_off_c, 1, 57, 0
2, 69440, Note_off_c, 1, 73, 0
2, 69440, Note_off_c, 1, 76, 0
2, 69440, Note_off_c, 1, 85, 0
2, 69480, Note_on_c, 1, 45, 127
2, 69480, Note_on_c, 1, 52, 127
2, 69480, Note_on_c, 1, 73, 127
2, 69480, Note_on_c, 1, 76, 127
2, 69480, Note_on_c, 1, 85, 127
2, 69600, Note_off_c, 1, 45, 0
2, 69600, Note_off_c, 1, 52, 0
2, 69600, Note_off_c, 1, 73, 0
2, 69600, Note_off_c, 1, 76, 0
2, 69600, Note_off_c, 1, 85, 0
2, 69640, Note_on_c, 1, 45, 127
2, 69640, Note_on_c, 1, 57, 127
2, 69640, Note_on_c, 1, 73, 127
2, 69640, Note_on_c, 1, 76, 127
2, 69640, Note_on_c, 1, 85, 127
2, 69760, Note_off_c, 1, 45, 0
2, 69760, Note_off_c, 1, 57, 0
2, 69760, Note_off_c, 1, 73, 0
2, 69760, Note_off_c, 1, 76, 0
2, 69760, Note_off_c, 1, 85, 0
2, 69800, Note_on_c, 1, 47, 127
2, 69800, Note_on_c, 1, 52, 127
2, 69800, Note_on_c, 1, 59, 127
2, 69800, Note_on_c, 1, 74, 127
2, 69800, Note_on_c, 1, 76, 127
2, 69800, Note_on_c, 1, 86, 127
2, 69960, Note_off_c, 1, 47, 0
2, 69960, Note_off_c, 1, 52, 0
2, 69960, Note_off_c, 1, 59, 0
2, 69960, Note_off_c, 1, 74, 0
2, 69960, Note_off_c, 1, 76, 0
2, 69960, Note_off_c, 1, 86, 0
2, 70040, Note_on_c, 1, 45, 127
2, 70040, Note_on_c, 1, 52, 127
2, 70040, Note_on_c, 1, 57, 127
2, 70040, Note_on_c, 1, 73, 127
2, 70040, Note_on_c, 1, 76, 127
2, 70040, Note_on_c, 1, 85, 127
2, 70160, Note_off_c, 1, 45, 0
2, 70160, Note_off_c, 1, 52, 0
2, 70160, Note_off_c, 1, 57, 0
2, 70160, Note_off_c, 1, 73, 0
2, 70160, Note_off_c, 1, 76, 0
2, 70160, Note_off_c, 1, 85, 0
2, 70200, Note_on_c, 1, 47, 127
2, 70200, Note_on_c, 1, 52, 127
2, 70200, Note_on_c, 1, 59, 127
2, 70200, Note_on_c, 1, 74, 127
2, 70200, Note_on_c, 1, 76, 127
2, 70200, Note_on_c, 1, 86, 127
2, 70320, Note_off_c, 1, 47, 0
2, 70320, Note_off_c, 1, 52, 0
2, 70320, Note_off_c, 1, 59, 0
2, 70320, Note_off_c, 1, 74, 0
2, 70320, Note_off_c, 1, 76, 0
2, 70320, Note_off_c, 1, 86, 0
2, 70360, Note_on_c, 1, 45, 127
2, 70360, Note_on_c, 1, 52, 127
2, 70360, Note_on_c, 1, 57, 127
2, 70360, Note_on_c, 1, 73, 127
2, 70360, Note_on_c, 1, 76, 127
2, 70360, Note_on_c, 1, 85, 127
2, 70480, Note_off_c, 1, 45, 0
2, 70480, Note_off_c, 1, 52, 0
2, 70480, Note_off_c, 1, 57, 0
2, 70480, Note_off_c, 1, 73, 0
2, 70480, Note_off_c, 1, 76, 0
2, 70480, Note_off_c, 1, 85, 0
2, 70520, Note_on_c, 1, 45, 127
2, 70520, Note_on_c, 1, 52, 127
2, 70520, Note_on_c, 1, 57, 127
2, 70520, Note_on_c, 1, 73, 127
2, 70520, Note_on_c, 1, 76, 127
2, 70520, Note_on_c, 1, 85, 127
2, 70680, Note_off_c, 1, 45, 0
2, 70680, Note_off_c, 1, 52, 0
2, 70680, Note_off_c, 1, 57, 0
2, 70680, Note_off_c, 1, 73, 0
2, 70680, Note_off_c, 1, 76, 0
2, 70680, Note_off_c, 1, 85, 0
2, 70720, Note_on_c, 1, 47, 127
2, 70720, Note_on_c, 1, 52, 127
2, 70720, Note_on_c, 1, 59, 127
2, 70720, Note_on_c, 1, 74, 127
2, 70720, Note_on_c, 1, 76, 127
2, 70720, Note_on_c, 1, 86, 127
2, 70840, Note_off_c, 1, 47, 0
2, 70840, Note_off_c, 1, 52, 0
2, 70840, Note_off_c, 1, 59, 0
2, 70840, Note_off_c, 1, 74, 0
2, 70840, Note_off_c, 1, 76, 0
2, 70840, Note_off_c, 1, 86, 0
2, 70880, Note_on_c, 1, 45, 127
2, 70880, Note_on_c, 1, 52, 127
2, 70880, Note_on_c, 1, 57, 127
2, 70880, Note_on_c, 1, 73, 127
2, 70880, Note_on_c, 1, 76, 127
2, 70880, Note_on_c, 1, 85, 127
2, 71000, Note_off_c, 1, 45, 0
2, 71000, Note_off_c, 1, 52, 0
2, 71000, Note_off_c, 1, 57, 0
2, 71000, Note_off_c, 1, 73, 0
2, 71000, Note_off_c, 1, 76, 0
2, 71000, Note_off_c, 1, 85, 0
2, 71040, Note_on_c, 1, 45, 127
2, 71040, Note_on_c, 1, 52, 127
2, 71040, Note_on_c, 1, 57, 127
2, 71040, Note_on_c, 1, 73, 127
2, 71040, Note_on_c, 1, 76, 127
2, 71040, Note_on_c, 1, 85, 127
2, 71360, Note_off_c, 1, 45, 0
2, 71360, Note_off_c, 1, 52, 0
2, 71360, Note_off_c, 1, 57, 0
2, 71360, Note_off_c, 1, 73, 0
2, 71360, Note_off_c, 1, 76, 0
2, 71360, Note_off_c, 1, 85, 0
2, 71400, Note_on_c, 1, 47, 127
2, 71400, Note_on_c, 1, 52, 127
2, 71400, Note_on_c, 1, 59, 127
2, 71400, Note_on_c, 1, 74, 127
2, 71400, Note_on_c, 1, 76, 127
2, 71400, Note_on_c, 1, 86, 127
2, 71520, Note_off_c, 1, 47, 0
2, 71520, Note_off_c, 1, 52, 0
2, 71520, Note_off_c, 1, 59, 0
2, 71520, Note_off_c, 1, 74, 0
2, 71520, Note_off_c, 1, 76, 0
2, 71520, Note_off_c, 1, 86, 0
2, 71560, Note_on_c, 1, 45, 127
2, 71560, Note_on_c, 1, 52, 127
2, 71560, Note_on_c, 1, 57, 127
2, 71560, Note_on_c, 1, 73, 127
2, 71560, Note_on_c, 1, 76, 127
2, 71560, Note_on_c, 1, 85, 127
2, 71680, Note_off_c, 1, 45, 0
2, 71680, Note_off_c, 1, 52, 0
2, 71680, Note_off_c, 1, 57, 0
2, 71680, Note_off_c, 1, 73, 0
2, 71680, Note_off_c, 1, 76, 0
2, 71680, Note_off_c, 1, 85, 0
2, 71720, Note_on_c, 1, 45, 127
2, 71720, Note_on_c, 1, 52, 127
2, 71720, Note_on_c, 1, 57, 127
2, 71720, Note_on_c, 1, 73, 127
2, 71720, Note_on_c, 1, 76, 127
2, 71720, Note_on_c, 1, 85, 127
2, 71880, Note_off_c, 1, 45, 0
2, 71880, Note_off_c, 1, 52, 0
2, 71880, Note_off_c, 1, 57, 0
2, 71880, Note_off_c, 1, 73, 0
2, 71880, Note_off_c, 1, 76, 0
2, 71880, Note_off_c, 1, 85, 0
2, 71920, Note_on_c, 1, 45, 127
2, 71920, Note_on_c, 1, 52, 127
2, 71920, Note_on_c, 1, 57, 127
2, 71920, Note_on_c, 1, 73, 127
2, 71920, Note_on_c, 1, 76, 127
2, 71920, Note_on_c, 1, 85, 127
2, 72040, Note_off_c, 1, 45, 0
2, 72040, Note_off_c, 1, 52, 0
2, 72040, Note_off_c, 1, 57, 0
2, 72040, Note_off_c, 1, 73, 0
2, 72040, Note_off_c, 1, 76, 0
2, 72040, Note_off_c, 1, 85, 0
2, 72120, Note_on_c, 1, 45, 127
2, 72120, Note_on_c, 1, 52, 127
2, 72120, Note_on_c, 1, 57, 127
2, 72120, Note_on_c, 1, 73, 127
2, 72120, Note_on_c, 1, 76, 127
2, 72120, Note_on_c, 1, 85, 127
2, 72440, Note_off_c, 1, 45, 0
2, 72440, Note_off_c, 1, 52, 0
2, 72440, Note_off_c, 1, 57, 0
2, 72440, Note_off_c, 1, 73, 0
2, 72440, Note_off_c, 1, 76, 0
2, 72440, Note_off_c, 1, 85, 0
2, 72480, Note_on_c, 1, 45, 127
2, 72480, Note_on_c, 1, 52, 127
2, 72480, Note_on_c, 1, 57, 127
2, 72480, Note_on_c, 1, 73, 127
2, 72480, Note_on_c, 1, 76, 127
2, 72480, Note_on_c, 1, 85, 127
2, 72600, Note_off_c, 1, 45, 0
2, 72600, Note_off_c, 1, 52, 0
2, 72600, Note_off_c, 1, 57, 0
2, 72600, Note_off_c, 1, 73, 0
2, 72600, Note_off_c, 1, 76, 0
2, 72600, Note_off_c, 1, 85, 0
2, 72640, Note_on_c, 1, 45, 127
2, 72640, Note_on_c, 1, 52, 127
2, 72640, Note_on_c, 1, 57, 127
2, 72640, Note_on_c, 1, 73, 127
2, 72640, Note_on_c, 1, 76, 127
2, 72640, Note_on_c, 1, 85, 127
2, 72760, Note_off_c, 1, 45, 0
2, 72760, Note_off_c, 1, 52, 0
2, 72760, Note_off_c, 1, 57, 0
2, 72760, Note_off_c, 1, 73, 0
2, 72760, Note_off_c, 1, 76, 0
2, 72760, Note_off_c, 1, 85, 0
2, 72800, Note_on_c, 1, 45, 127
2, 72800, Note_on_c, 1, 52, 127
2, 72800, Note_on_c, 1, 57, 127
2, 72800, Note_on_c, 1, 73, 127
2, 72800, Note_on_c, 1, 76, 127
2, 72800, Note_on_c, 1, 85, 127
2, 72960, Note_off_c, 1, 45, 0
2, 72960, Note_off_c, 1, 52, 0
2, 72960, Note_off_c, 1, 57, 0
2, 72960, Note_off_c, 1, 73, 0
2, 72960, Note_off_c, 1, 76, 0
2, 72960, Note_off_c, 1, 85, 0
2, 73000, Note_on_c, 1, 45, 127
2, 73000, Note_on_c, 1, 52, 127
2, 73000, Note_on_c, 1, 57, 127
2, 73000, Note_on_c, 1, 73, 127
2, 73000, Note_on_c, 1, 76, 127
2, 73000, Note_on_c, 1, 85, 127
2, 73120, Note_off_c, 1, 45, 0
2, 73120, Note_off_c, 1, 52, 0
2, 73120, Note_off_c, 1, 57, 0
2, 73120, Note_off_c, 1, 73, 0
2, 73120, Note_off_c, 1, 76, 0
2, 73120, Note_off_c, 1, 85, 0
2, 73160, Note_on_c, 1, 47, 127
2, 73160, Note_on_c, 1, 52, 127
2, 73160, Note_on_c, 1, 59, 127
2, 73160, Note_on_c, 1, 74, 127
2, 73160, Note_on_c, 1, 76, 127
2, 73160, Note_on_c, 1, 86, 127
2, 73280, Note_off_c, 1, 47, 0
2, 73280, Note_off_c, 1, 52, 0
2, 73280, Note_off_c, 1, 59, 0
2, 73280, Note_off_c, 1, 74, 0
2, 73280, Note_off_c, 1, 76, 0
2, 73280, Note_off_c, 1, 86, 0
2, 73320, Note_on_c, 1, 45, 127
2, 73320, Note_on_c, 1, 52, 127
2, 73320, Note_on_c, 1, 57, 127
2, 73320, Note_on_c, 1, 73, 127
2, 73320, Note_on_c, 1, 76, 127
2, 73320, Note_on_c, 1, 85, 127
2, 73440, Note_off_c, 1, 45, 0
2, 73440, Note_off_c, 1, 52, 0
2, 73440, Note_off_c, 1, 57, 0
2, 73440, Note_off_c, 1, 73, 0
2, 73440, Note_off_c, 1, 76, 0
2, 73440, Note_off_c, 1, 85, 0
2, 73480, Note_on_c, 1, 45, 127
2, 73480, Note_on_c, 1, 52, 127
2, 73480, Note_on_c, 1, 57, 127
2, 73480, Note_on_c, 1, 73, 127
2, 73480, Note_on_c, 1, 76, 127
2, 73480, Note_on_c, 1, 85, 127
2, 73640, Note_off_c, 1, 45, 0
2, 73640, Note_off_c, 1, 52, 0
2, 73640, Note_off_c, 1, 57, 0
2, 73640, Note_off_c, 1, 73, 0
2, 73640, Note_off_c, 1, 76, 0
2, 73640, Note_off_c, 1, 85, 0
2, 73680, Note_on_c, 1, 45, 127
2, 73680, Note_on_c, 1, 52, 127
2, 73680, Note_on_c, 1, 57, 127
2, 73680, Note_on_c, 1, 73, 127
2, 73680, Note_on_c, 1, 76, 127
2, 73680, Note_on_c, 1, 85, 127
2, 73800, Note_off_c, 1, 45, 0
2, 73800, Note_off_c, 1, 52, 0
2, 73800, Note_off_c, 1, 57, 0
2, 73800, Note_off_c, 1, 73, 0
2, 73800, Note_off_c, 1, 76, 0
2, 73800, Note_off_c, 1, 85, 0
2, 73840, Note_on_c, 1, 47, 127
2, 73840, Note_on_c, 1, 52, 127
2, 73840, Note_on_c, 1, 59, 127
2, 73840, Note_on_c, 1, 74, 127
2, 73840, Note_on_c, 1, 76, 127
2, 73840, Note_on_c, 1, 86, 127
2, 73960, Note_off_c, 1, 47, 0
2, 73960, Note_off_c, 1, 52, 0
2, 73960, Note_off_c, 1, 59, 0
2, 73960, Note_off_c, 1, 74, 0
2, 73960, Note_off_c, 1, 76, 0
2, 73960, Note_off_c, 1, 86, 0
2, 74000, Note_on_c, 1, 45, 127
2, 74000, Note_on_c, 1, 52, 127
2, 74000, Note_on_c, 1, 57, 127
2, 74000, Note_on_c, 1, 73, 127
2, 74000, Note_on_c, 1, 76, 127
2, 74000, Note_on_c, 1, 85, 127
2, 74080, Note_off_c, 1, 45, 0
2, 74080, Note_off_c, 1, 52, 0
2, 74080, Note_off_c, 1, 57, 0
2, 74080, Note_off_c, 1, 73, 0
2, 74080, Note_off_c, 1, 76, 0
2, 74080, Note_off_c, 1, 85, 0
2, 74120, Note_on_c, 1, 45, 127
2, 74120, Note_on_c, 1, 52, 127
2, 74120, Note_on_c, 1, 57, 127
2, 74120, Note_on_c, 1, 73, 127
2, 74120, Note_on_c, 1, 76, 127
2, 74120, Note_on_c, 1, 85, 127
2, 74160, Note_off_c, 1, 45, 0
2, 74160, Note_off_c, 1, 52, 0
2, 74160, Note_off_c, 1, 57, 0
2, 74160, Note_off_c, 1, 73, 0
2, 74160, Note_off_c, 1, 76, 0
2, 74160, Note_off_c, 1, 85, 0
2, 74200, Note_on_c, 1, 45, 127
2, 74200, Note_on_c, 1, 52, 127
2, 74200, Note_on_c, 1, 57, 127
2, 74200, Note_on_c, 1, 73, 127
2, 74200, Note_on_c, 1, 76, 127
2, 74200, Note_on_c, 1, 85, 127
2, 74360, Note_off_c, 1, 45, 0
2, 74360, Note_off_c, 1, 52, 0
2, 74360, Note_off_c, 1, 57, 0
2, 74360, Note_off_c, 1, 73, 0
2, 74360, Note_off_c, 1, 76, 0
2, 74360, Note_off_c, 1, 85, 0
2, 74400, Note_on_c, 1, 45, 127
2, 74400, Note_on_c, 1, 52, 127
2, 74400, Note_on_c, 1, 57, 127
2, 74400, Note_on_c, 1, 73, 127
2, 74400, Note_on_c, 1, 76, 127
2, 74400, Note_on_c, 1, 85, 127
2, 74520, Note_off_c, 1, 45, 0
2, 74520, Note_off_c, 1, 52, 0
2, 74520, Note_off_c, 1, 57, 0
2, 74520, Note_off_c, 1, 73, 0
2, 74520, Note_off_c, 1, 76, 0
2, 74520, Note_off_c, 1, 85, 0
2, 74560, Note_on_c, 1, 45, 127
2, 74560, Note_on_c, 1, 52, 127
2, 74560, Note_on_c, 1, 57, 127
2, 74560, Note_on_c, 1, 73, 127
2, 74560, Note_on_c, 1, 76, 127
2, 74560, Note_on_c, 1, 85, 127
2, 74680, Note_off_c, 1, 45, 0
2, 74680, Note_off_c, 1, 52, 0
2, 74680, Note_off_c, 1, 57, 0
2, 74680, Note_off_c, 1, 73, 0
2, 74680, Note_off_c, 1, 76, 0
2, 74680, Note_off_c, 1, 85, 0
2, 74720, Note_on_c, 1, 47, 127
2, 74720, Note_on_c, 1, 52, 127
2, 74720, Note_on_c, 1, 59, 127
2, 74720, Note_on_c, 1, 74, 127
2, 74720, Note_on_c, 1, 76, 127
2, 74720, Note_on_c, 1, 86, 127
2, 74880, Note_off_c, 1, 47, 0
2, 74880, Note_off_c, 1, 52, 0
2, 74880, Note_off_c, 1, 59, 0
2, 74880, Note_off_c, 1, 74, 0
2, 74880, Note_off_c, 1, 76, 0
2, 74880, Note_off_c, 1, 86, 0
2, 74920, Note_on_c, 1, 45, 127
2, 74920, Note_on_c, 1, 52, 127
2, 74920, Note_on_c, 1, 57, 127
2, 74920, Note_on_c, 1, 73, 127
2, 74920, Note_on_c, 1, 76, 127
2, 74920, Note_on_c, 1, 85, 127
2, 75040, Note_off_c, 1, 45, 0
2, 75040, Note_off_c, 1, 52, 0
2, 75040, Note_off_c, 1, 57, 0
2, 75040, Note_off_c, 1, 73, 0
2, 75040, Note_off_c, 1, 76, 0
2, 75040, Note_off_c, 1, 85, 0
2, 75080, Note_on_c, 1, 45, 127
2, 75080, Note_on_c, 1, 52, 127
2, 75080, Note_on_c, 1, 57, 127
2, 75080, Note_on_c, 1, 73, 127
2, 75080, Note_on_c, 1, 76, 127
2, 75080, Note_on_c, 1, 85, 127
2, 75200, Note_off_c, 1, 45, 0
2, 75200, Note_off_c, 1, 52, 0
2, 75200, Note_off_c, 1, 57, 0
2, 75200, Note_off_c, 1, 73, 0
2, 75200, Note_off_c, 1, 76, 0
2, 75200, Note_off_c, 1, 85, 0
2, 75240, Note_on_c, 1, 45, 127
2, 75240, Note_on_c, 1, 52, 127
2, 75240, Note_on_c, 1, 57, 127
2, 75240, Note_on_c, 1, 73, 127
2, 75240, Note_on_c, 1, 76, 127
2, 75240, Note_on_c, 1, 85, 127
2, 75400, Note_off_c, 1, 45, 0
2, 75400, Note_off_c, 1, 52, 0
2, 75400, Note_off_c, 1, 57, 0
2, 75400, Note_off_c, 1, 73, 0
2, 75400, Note_off_c, 1, 76, 0
2, 75400, Note_off_c, 1, 85, 0
2, 75440, Note_on_c, 1, 45, 127
2, 75440, Note_on_c, 1, 52, 127
2, 75440, Note_on_c, 1, 57, 127
2, 75440, Note_on_c, 1, 73, 127
2, 75440, Note_on_c, 1, 76, 127
2, 75440, Note_on_c, 1, 85, 127
2, 75560, Note_off_c, 1, 45, 0
2, 75560, Note_off_c, 1, 52, 0
2, 75560, Note_off_c, 1, 57, 0
2, 75560, Note_off_c, 1, 73, 0
2, 75560, Note_off_c, 1, 76, 0
2, 75560, Note_off_c, 1, 85, 0
2, 75600, Note_on_c, 1, 47, 127
2, 75600, Note_on_c, 1, 52, 127
2, 75600, Note_on_c, 1, 59, 127
2, 75600, Note_on_c, 1, 74, 127
2, 75600, Note_on_c, 1, 76, 127
2, 75600, Note_on_c, 1, 86, 127
2, 75720, Note_off_c, 1, 47, 0
2, 75720, Note_off_c, 1, 52, 0
2, 75720, Note_off_c, 1, 59, 0
2, 75720, Note_off_c, 1, 74, 0
2, 75720, Note_off_c, 1, 76, 0
2, 75720, Note_off_c, 1, 86, 0
2, 75760, Note_on_c, 1, 45, 127
2, 75760, Note_on_c, 1, 52, 127
2, 75760, Note_on_c, 1, 57, 127
2, 75760, Note_on_c, 1, 73, 127
2, 75760, Note_on_c, 1, 76, 127
2, 75760, Note_on_c, 1, 85, 127
2, 75920, Note_off_c, 1, 45, 0
2, 75920, Note_off_c, 1, 52, 0
2, 75920, Note_off_c, 1, 57, 0
2, 75920, Note_off_c, 1, 73, 0
2, 75920, Note_off_c, 1, 76, 0
2, 75920, Note_off_c, 1, 85, 0
2, 75960, Note_on_c, 1, 45, 127
2, 75960, Note_on_c, 1, 52, 127
2, 75960, Note_on_c, 1, 57, 127
2, 75960, Note_on_c, 1, 73, 127
2, 75960, Note_on_c, 1, 76, 127
2, 75960, Note_on_c, 1, 85, 127
2, 76080, Note_off_c, 1, 45, 0
2, 76080, Note_off_c, 1, 52, 0
2, 76080, Note_off_c, 1, 57, 0
2, 76080, Note_off_c, 1, 73, 0
2, 76080, Note_off_c, 1, 76, 0
2, 76080, Note_off_c, 1, 85, 0
2, 76120, Note_on_c, 1, 45, 127
2, 76120, Note_on_c, 1, 52, 127
2, 76120, Note_on_c, 1, 57, 127
2, 76120, Note_on_c, 1, 73, 127
2, 76120, Note_on_c, 1, 76, 127
2, 76120, Note_on_c, 1, 85, 127
2, 76240, Note_off_c, 1, 45, 0
2, 76240, Note_off_c, 1, 52, 0
2, 76240, Note_off_c, 1, 57, 0
2, 76240, Note_off_c, 1, 73, 0
2, 76240, Note_off_c, 1, 76, 0
2, 76240, Note_off_c, 1, 85, 0
2, 76320, Note_on_c, 1, 45, 127
2, 76320, Note_on_c, 1, 52, 127
2, 76320, Note_on_c, 1, 57, 127
2, 76320, Note_on_c, 1, 73, 127
2, 76320, Note_on_c, 1, 76, 127
2, 76320, Note_on_c, 1, 85, 127
2, 76440, Note_off_c, 1, 45, 0
2, 76440, Note_off_c, 1, 52, 0
2, 76440, Note_off_c, 1, 57, 0
2, 76440, Note_off_c, 1, 73, 0
2, 76440, Note_off_c, 1, 76, 0
2, 76440, Note_off_c, 1, 85, 0
2, 76480, Note_on_c, 1, 45, 127
2, 76480, Note_on_c, 1, 52, 127
2, 76480, Note_on_c, 1, 73, 127
2, 76480, Note_on_c, 1, 76, 127
2, 76480, Note_on_c, 1, 85, 127
2, 76640, Note_off_c, 1, 52, 0
2, 76680, Note_on_c, 1, 57, 127
2, 76800, Note_off_c, 1, 45, 0
2, 76800, Note_off_c, 1, 57, 0
2, 76800, Note_off_c, 1, 73, 0
2, 76800, Note_off_c, 1, 76, 0
2, 76800, Note_off_c, 1, 85, 0
2, 76840, Note_on_c, 1, 47, 127
2, 76840, Note_on_c, 1, 52, 127
2, 76840, Note_on_c, 1, 59, 127
2, 76840, Note_on_c, 1, 74, 127
2, 76840, Note_on_c, 1, 76, 127
2, 76840, Note_on_c, 1, 86, 127
2, 76960, Note_off_c, 1, 47, 0
2, 76960, Note_off_c, 1, 52, 0
2, 76960, Note_off_c, 1, 59, 0
2, 76960, Note_off_c, 1, 74, 0
2, 76960, Note_off_c, 1, 76, 0
2, 76960, Note_off_c, 1, 86, 0
2, 77000, Note_on_c, 1, 45, 127
2, 77000, Note_on_c, 1, 52, 127
2, 77000, Note_on_c, 1, 57, 127
2, 77000, Note_on_c, 1, 73, 127
2, 77000, Note_on_c, 1, 76, 127
2, 77000, Note_on_c, 1, 85, 127
2, 77160, Note_off_c, 1, 45, 0
2, 77160, Note_off_c, 1, 52, 0
2, 77160, Note_off_c, 1, 57, 0
2, 77160, Note_off_c, 1, 73, 0
2, 77160, Note_off_c, 1, 76, 0
2, 77160, Note_off_c, 1, 85, 0
2, 77200, Note_on_c, 1, 47, 127
2, 77200, Note_on_c, 1, 52, 127
2, 77200, Note_on_c, 1, 59, 127
2, 77200, Note_on_c, 1, 74, 127
2, 77200, Note_on_c, 1, 76, 127
2, 77200, Note_on_c, 1, 86, 127
2, 77320, Note_off_c, 1, 47, 0
2, 77320, Note_off_c, 1, 52, 0
2, 77320, Note_off_c, 1, 59, 0
2, 77320, Note_off_c, 1, 74, 0
2, 77320, Note_off_c, 1, 76, 0
2, 77320, Note_off_c, 1, 86, 0
2, 77360, Note_on_c, 1, 45, 127
2, 77360, Note_on_c, 1, 52, 127
2, 77360, Note_on_c, 1, 57, 127
2, 77360, Note_on_c, 1, 73, 127
2, 77360, Note_on_c, 1, 76, 127
2, 77360, Note_on_c, 1, 85, 127
2, 77480, Note_off_c, 1, 45, 0
2, 77480, Note_off_c, 1, 52, 0
2, 77480, Note_off_c, 1, 57, 0
2, 77480, Note_off_c, 1, 73, 0
2, 77480, Note_off_c, 1, 76, 0
2, 77480, Note_off_c, 1, 85, 0
2, 77520, Note_on_c, 1, 45, 127
2, 77520, Note_on_c, 1, 52, 127
2, 77520, Note_on_c, 1, 57, 127
2, 77520, Note_on_c, 1, 73, 127
2, 77520, Note_on_c, 1, 76, 127
2, 77520, Note_on_c, 1, 85, 127
2, 77680, Note_off_c, 1, 45, 0
2, 77680, Note_off_c, 1, 52, 0
2, 77680, Note_off_c, 1, 57, 0
2, 77680, Note_off_c, 1, 73, 0
2, 77680, Note_off_c, 1, 76, 0
2, 77680, Note_off_c, 1, 85, 0
2, 77720, Note_on_c, 1, 45, 127
2, 77720, Note_on_c, 1, 52, 127
2, 77720, Note_on_c, 1, 57, 127
2, 77720, Note_on_c, 1, 73, 127
2, 77720, Note_on_c, 1, 76, 127
2, 77720, Note_on_c, 1, 85, 127
2, 77840, Note_off_c, 1, 45, 0
2, 77840, Note_off_c, 1, 52, 0
2, 77840, Note_off_c, 1, 57, 0
2, 77840, Note_off_c, 1, 73, 0
2, 77840, Note_off_c, 1, 76, 0
2, 77840, Note_off_c, 1, 85, 0
2, 77880, Note_on_c, 1, 47, 127
2, 77880, Note_on_c, 1, 52, 127
2, 77880, Note_on_c, 1, 59, 127
2, 77880, Note_on_c, 1, 74, 127
2, 77880, Note_on_c, 1, 76, 127
2, 77880, Note_on_c, 1, 86, 127
2, 78000, Note_off_c, 1, 47, 0
2, 78000, Note_off_c, 1, 52, 0
2, 78000, Note_off_c, 1, 59, 0
2, 78000, Note_off_c, 1, 74, 0
2, 78000, Note_off_c, 1, 76, 0
2, 78000, Note_off_c, 1, 86, 0
2, 78040, Note_on_c, 1, 45, 127
2, 78040, Note_on_c, 1, 52, 127
2, 78040, Note_on_c, 1, 57, 127
2, 78040, Note_on_c, 1, 73, 127
2, 78040, Note_on_c, 1, 76, 127
2, 78040, Note_on_c, 1, 85, 127
2, 78160, Note_off_c, 1, 45, 0
2, 78160, Note_off_c, 1, 52, 0
2, 78160, Note_off_c, 1, 57, 0
2, 78160, Note_off_c, 1, 73, 0
2, 78160, Note_off_c, 1, 76, 0
2, 78160, Note_off_c, 1, 85, 0
2, 78200, Note_on_c, 1, 45, 127
2, 78200, Note_on_c, 1, 52, 127
2, 78200, Note_on_c, 1, 57, 127
2, 78200, Note_on_c, 1, 73, 127
2, 78200, Note_on_c, 1, 76, 127
2, 78200, Note_on_c, 1, 85, 127
2, 78240, Note_off_c, 1, 45, 0
2, 78240, Note_off_c, 1, 52, 0
2, 78240, Note_off_c, 1, 57, 0
2, 78240, Note_off_c, 1, 73, 0
2, 78240, Note_off_c, 1, 76, 0
2, 78240, Note_off_c, 1, 85, 0
2, 78280, Note_on_c, 1, 45, 127
2, 78280, Note_on_c, 1, 52, 127
2, 78280, Note_on_c, 1, 57, 127
2, 78280, Note_on_c, 1, 73, 127
2, 78280, Note_on_c, 1, 76, 127
2, 78280, Note_on_c, 1, 85, 127
2, 78400, Note_off_c, 1, 45, 0
2, 78400, Note_off_c, 1, 52, 0
2, 78400, Note_off_c, 1, 57, 0
2, 78400, Note_off_c, 1, 73, 0
2, 78400, Note_off_c, 1, 76, 0
2, 78400, Note_off_c, 1, 85, 0
2, 78440, Note_on_c, 1, 64, 127
2, 78440, Note_on_c, 1, 71, 127
2, 78440, Note_on_c, 1, 83, 127
2, 78440, Note_on_c, 1, 90, 127
2, 78480, Note_on_c, 1, 35, 127
2, 78480, Note_on_c, 1, 39, 127
2, 78480, Note_on_c, 1, 42, 127
2, 78480, Note_on_c, 1, 54, 127
2, 78480, Note_on_c, 1, 59, 127
2, 78480, Note_on_c, 1, 63, 127
2, 78480, Note_off_c, 1, 64, 0
2, 78480, Note_off_c, 1, 71, 0
2, 78480, Note_off_c, 1, 83, 0
2, 78480, Note_off_c, 1, 90, 0
2, 78520, Note_off_c, 1, 35, 0
2, 78520, Note_off_c, 1, 39, 0
2, 78520, Note_off_c, 1, 42, 0
2, 78520, Note_off_c, 1, 54, 0
2, 78520, Note_on_c, 1, 62, 127
2, 78520, Note_off_c, 1, 63, 0
2, 78520, Note_on_c, 1, 67, 127
2, 78520, Note_on_c, 1, 79, 127
2, 78520, Note_on_c, 1, 86, 127
2, 78520, Note_on_c, 1, 89, 127
2, 78520, Note_on_c, 1, 91, 127
2, 78560, Note_off_c, 1, 59, 0
2, 78560, Note_off_c, 1, 62, 0
2, 78560, Note_off_c, 1, 67, 0
2, 78560, Note_off_c, 1, 79, 0
2, 78560, Note_off_c, 1, 86, 0
2, 78560, Note_off_c, 1, 89, 0
2, 78560, Note_off_c, 1, 91, 0
2, 78600, Note_on_c, 1, 64, 127
2, 78600, Note_on_c, 1, 73, 127
2, 78600, Note_on_c, 1, 76, 127
2, 78600, Note_on_c, 1, 88, 127
2, 78760, Note_off_c, 1, 64, 0
2, 78760, Note_off_c, 1, 73, 0
2, 78760, Note_off_c, 1, 76, 0
2, 78760, Note_off_c, 1, 88, 0
2, 78800, Note_on_c, 1, 46, 127
2, 78800, Note_on_c, 1, 53, 127
2, 78800, Note_on_c, 1, 74, 127
2, 78800, Note_on_c, 1, 77, 127
2, 78800, Note_on_c, 1, 82, 127
2, 78920, Note_off_c, 1, 46, 0
2, 78920, Note_off_c, 1, 53, 0
2, 78920, Note_off_c, 1, 74, 0
2, 78920, Note_off_c, 1, 77, 0
2, 78920, Note_off_c, 1, 82, 0
2, 78960, Note_on_c, 1, 46, 127
2, 78960, Note_on_c, 1, 53, 127
2, 78960, Note_on_c, 1, 74, 127
2, 78960, Note_on_c, 1, 77, 127
2, 78960, Note_on_c, 1, 82, 127
2, 79080, Note_off_c, 1, 46, 0
2, 79080, Note_off_c, 1, 53, 0
2, 79080, Note_off_c, 1, 74, 0
2, 79080, Note_off_c, 1, 77, 0
2, 79080, Note_off_c, 1, 82, 0
2, 79120, Note_on_c, 1, 46, 127
2, 79120, Note_on_c, 1, 53, 127
2, 79120, Note_on_c, 1, 74, 127
2, 79120, Note_on_c, 1, 77, 127
2, 79120, Note_on_c, 1, 82, 127
2, 79280, Note_off_c, 1, 46, 0
2, 79280, Note_off_c, 1, 53, 0
2, 79280, Note_off_c, 1, 74, 0
2, 79280, Note_off_c, 1, 77, 0
2, 79280, Note_off_c, 1, 82, 0
2, 79320, Note_on_c, 1, 46, 127
2, 79320, Note_on_c, 1, 53, 127
2, 79320, Note_on_c, 1, 74, 127
2, 79320, Note_on_c, 1, 77, 127
2, 79320, Note_on_c, 1, 82, 127
2, 79440, Note_off_c, 1, 46, 0
2, 79440, Note_off_c, 1, 53, 0
2, 79440, Note_off_c, 1, 74, 0
2, 79440, Note_off_c, 1, 77, 0
2, 79440, Note_off_c, 1, 82, 0
2, 79480, Note_on_c, 1, 46, 127
2, 79480, Note_on_c, 1, 53, 127
2, 79480, Note_on_c, 1, 74, 127
2, 79480, Note_on_c, 1, 77, 127
2, 79480, Note_on_c, 1, 82, 127
2, 79600, Note_off_c, 1, 46, 0
2, 79600, Note_off_c, 1, 53, 0
2, 79600, Note_off_c, 1, 74, 0
2, 79600, Note_off_c, 1, 77, 0
2, 79600, Note_off_c, 1, 82, 0
2, 79640, Note_on_c, 1, 46, 127
2, 79640, Note_on_c, 1, 53, 127
2, 79640, Note_on_c, 1, 74, 127
2, 79640, Note_on_c, 1, 77, 127
2, 79640, Note_on_c, 1, 82, 127
2, 79800, Note_off_c, 1, 46, 0
2, 79800, Note_off_c, 1, 53, 0
2, 79800, Note_off_c, 1, 74, 0
2, 79800, Note_off_c, 1, 77, 0
2, 79800, Note_off_c, 1, 82, 0
2, 79840, Note_on_c, 1, 46, 127
2, 79840, Note_on_c, 1, 53, 127
2, 79840, Note_on_c, 1, 74, 127
2, 79840, Note_on_c, 1, 77, 127
2, 79840, Note_on_c, 1, 82, 127
2, 79960, Note_off_c, 1, 46, 0
2, 79960, Note_off_c, 1, 53, 0
2, 79960, Note_off_c, 1, 74, 0
2, 79960, Note_off_c, 1, 77, 0
2, 79960, Note_off_c, 1, 82, 0
2, 80000, Note_on_c, 1, 46, 127
2, 80000, Note_on_c, 1, 53, 127
2, 80000, Note_on_c, 1, 74, 127
2, 80000, Note_on_c, 1, 77, 127
2, 80000, Note_on_c, 1, 82, 127
2, 80120, Note_off_c, 1, 46, 0
2, 80120, Note_off_c, 1, 53, 0
2, 80120, Note_off_c, 1, 74, 0
2, 80120, Note_off_c, 1, 77, 0
2, 80120, Note_off_c, 1, 82, 0
2, 80160, Note_on_c, 1, 46, 127
2, 80160, Note_on_c, 1, 53, 127
2, 80160, Note_on_c, 1, 74, 127
2, 80160, Note_on_c, 1, 77, 127
2, 80160, Note_on_c, 1, 82, 127
2, 80240, Note_off_c, 1, 46, 0
2, 80240, Note_off_c, 1, 53, 0
2, 80240, Note_off_c, 1, 74, 0
2, 80240, Note_off_c, 1, 77, 0
2, 80240, Note_off_c, 1, 82, 0
2, 80280, Note_on_c, 1, 46, 127
2, 80280, Note_on_c, 1, 53, 127
2, 80280, Note_on_c, 1, 74, 127
2, 80280, Note_on_c, 1, 77, 127
2, 80280, Note_on_c, 1, 82, 127
2, 80320, Note_off_c, 1, 46, 0
2, 80320, Note_off_c, 1, 53, 0
2, 80320, Note_off_c, 1, 74, 0
2, 80320, Note_off_c, 1, 77, 0
2, 80320, Note_off_c, 1, 82, 0
2, 80360, Note_on_c, 1, 46, 127
2, 80360, Note_on_c, 1, 53, 127
2, 80360, Note_on_c, 1, 74, 127
2, 80360, Note_on_c, 1, 77, 127
2, 80360, Note_on_c, 1, 82, 127
2, 80520, Note_off_c, 1, 46, 0
2, 80520, Note_off_c, 1, 53, 0
2, 80520, Note_off_c, 1, 74, 0
2, 80520, Note_off_c, 1, 77, 0
2, 80520, Note_off_c, 1, 82, 0
2, 80560, Note_on_c, 1, 46, 127
2, 80560, Note_on_c, 1, 53, 127
2, 80560, Note_on_c, 1, 74, 127
2, 80560, Note_on_c, 1, 77, 127
2, 80560, Note_on_c, 1, 82, 127
2, 80680, Note_off_c, 1, 46, 0
2, 80680, Note_off_c, 1, 53, 0
2, 80680, Note_off_c, 1, 74, 0
2, 80680, Note_off_c, 1, 77, 0
2, 80680, Note_off_c, 1, 82, 0
2, 80720, Note_on_c, 1, 46, 127
2, 80720, Note_on_c, 1, 53, 127
2, 80720, Note_on_c, 1, 74, 127
2, 80720, Note_on_c, 1, 77, 127
2, 80720, Note_on_c, 1, 82, 127
2, 80840, Note_off_c, 1, 46, 0
2, 80840, Note_off_c, 1, 53, 0
2, 80840, Note_off_c, 1, 74, 0
2, 80840, Note_off_c, 1, 77, 0
2, 80840, Note_off_c, 1, 82, 0
2, 80880, Note_on_c, 1, 46, 127
2, 80880, Note_on_c, 1, 53, 127
2, 80880, Note_on_c, 1, 74, 127
2, 80880, Note_on_c, 1, 77, 127
2, 80880, Note_on_c, 1, 82, 127
2, 81040, Note_off_c, 1, 46, 0
2, 81040, Note_off_c, 1, 53, 0
2, 81040, Note_off_c, 1, 74, 0
2, 81040, Note_off_c, 1, 77, 0
2, 81040, Note_off_c, 1, 82, 0
2, 81080, Note_on_c, 1, 46, 127
2, 81080, Note_on_c, 1, 53, 127
2, 81080, Note_on_c, 1, 74, 127
2, 81080, Note_on_c, 1, 77, 127
2, 81080, Note_on_c, 1, 82, 127
2, 81200, Note_off_c, 1, 46, 0
2, 81200, Note_off_c, 1, 53, 0
2, 81200, Note_off_c, 1, 74, 0
2, 81200, Note_off_c, 1, 77, 0
2, 81200, Note_off_c, 1, 82, 0
2, 81240, Note_on_c, 1, 46, 127
2, 81240, Note_on_c, 1, 53, 127
2, 81240, Note_on_c, 1, 74, 127
2, 81240, Note_on_c, 1, 77, 127
2, 81240, Note_on_c, 1, 82, 127
2, 81360, Note_off_c, 1, 46, 0
2, 81360, Note_off_c, 1, 53, 0
2, 81360, Note_off_c, 1, 74, 0
2, 81360, Note_off_c, 1, 77, 0
2, 81360, Note_off_c, 1, 82, 0
2, 81400, Note_on_c, 1, 46, 127
2, 81400, Note_on_c, 1, 53, 127
2, 81400, Note_on_c, 1, 74, 127
2, 81400, Note_on_c, 1, 77, 127
2, 81400, Note_on_c, 1, 82, 127
2, 81560, Note_off_c, 1, 46, 0
2, 81560, Note_off_c, 1, 53, 0
2, 81560, Note_off_c, 1, 74, 0
2, 81560, Note_off_c, 1, 77, 0
2, 81560, Note_off_c, 1, 82, 0
2, 81600, Note_on_c, 1, 46, 127
2, 81600, Note_on_c, 1, 53, 127
2, 81600, Note_on_c, 1, 74, 127
2, 81600, Note_on_c, 1, 77, 127
2, 81600, Note_on_c, 1, 82, 127
2, 81720, Note_off_c, 1, 46, 0
2, 81720, Note_off_c, 1, 53, 0
2, 81720, Note_off_c, 1, 74, 0
2, 81720, Note_off_c, 1, 77, 0
2, 81720, Note_off_c, 1, 82, 0
2, 81760, Note_on_c, 1, 46, 127
2, 81760, Note_on_c, 1, 53, 127
2, 81760, Note_on_c, 1, 74, 127
2, 81760, Note_on_c, 1, 77, 127
2, 81760, Note_on_c, 1, 82, 127
2, 81880, Note_off_c, 1, 46, 0
2, 81880, Note_off_c, 1, 53, 0
2, 81880, Note_off_c, 1, 74, 0
2, 81880, Note_off_c, 1, 77, 0
2, 81880, Note_off_c, 1, 82, 0
2, 81920, Note_on_c, 1, 46, 127
2, 81920, Note_on_c, 1, 53, 127
2, 81920, Note_on_c, 1, 74, 127
2, 81920, Note_on_c, 1, 77, 127
2, 81920, Note_on_c, 1, 82, 127
2, 82080, Note_off_c, 1, 46, 0
2, 82080, Note_off_c, 1, 53, 0
2, 82080, Note_off_c, 1, 74, 0
2, 82080, Note_off_c, 1, 77, 0
2, 82080, Note_off_c, 1, 82, 0
2, 82120, Note_on_c, 1, 46, 127
2, 82120, Note_on_c, 1, 53, 127
2, 82120, Note_on_c, 1, 74, 127
2, 82120, Note_on_c, 1, 77, 127
2, 82120, Note_on_c, 1, 82, 127
2, 82240, Note_off_c, 1, 46, 0
2, 82240, Note_off_c, 1, 53, 0
2, 82240, Note_off_c, 1, 74, 0
2, 82240, Note_off_c, 1, 77, 0
2, 82240, Note_off_c, 1, 82, 0
2, 82280, Note_on_c, 1, 46, 127
2, 82280, Note_on_c, 1, 53, 127
2, 82280, Note_on_c, 1, 74, 127
2, 82280, Note_on_c, 1, 77, 127
2, 82280, Note_on_c, 1, 82, 127
2, 82400, Note_off_c, 1, 46, 0
2, 82400, Note_off_c, 1, 53, 0
2, 82400, Note_off_c, 1, 74, 0
2, 82400, Note_off_c, 1, 77, 0
2, 82400, Note_off_c, 1, 82, 0
2, 82440, Note_on_c, 1, 46, 127
2, 82440, Note_on_c, 1, 53, 127
2, 82440, Note_on_c, 1, 74, 127
2, 82440, Note_on_c, 1, 77, 127
2, 82440, Note_on_c, 1, 82, 127
2, 82480, Note_off_c, 1, 46, 0
2, 82480, Note_off_c, 1, 53, 0
2, 82480, Note_off_c, 1, 74, 0
2, 82480, Note_off_c, 1, 77, 0
2, 82480, Note_off_c, 1, 82, 0
2, 82520, Note_on_c, 1, 46, 127
2, 82520, Note_on_c, 1, 53, 127
2, 82520, Note_on_c, 1, 74, 127
2, 82520, Note_on_c, 1, 77, 127
2, 82520, Note_on_c, 1, 82, 127
2, 82640, Note_off_c, 1, 46, 0
2, 82640, Note_off_c, 1, 53, 0
2, 82640, Note_off_c, 1, 74, 0
2, 82640, Note_off_c, 1, 77, 0
2, 82640, Note_off_c, 1, 82, 0
2, 82680, Note_on_c, 1, 46, 127
2, 82680, Note_on_c, 1, 53, 127
2, 82680, Note_on_c, 1, 74, 127
2, 82680, Note_on_c, 1, 77, 127
2, 82680, Note_on_c, 1, 82, 127
2, 82800, Note_off_c, 1, 46, 0
2, 82800, Note_off_c, 1, 53, 0
2, 82800, Note_off_c, 1, 74, 0
2, 82800, Note_off_c, 1, 77, 0
2, 82800, Note_off_c, 1, 82, 0
2, 82840, Note_on_c, 1, 46, 127
2, 82840, Note_on_c, 1, 53, 127
2, 82840, Note_on_c, 1, 74, 127
2, 82840, Note_on_c, 1, 77, 127
2, 82840, Note_on_c, 1, 82, 127
2, 82960, Note_off_c, 1, 46, 0
2, 82960, Note_off_c, 1, 53, 0
2, 82960, Note_off_c, 1, 74, 0
2, 82960, Note_off_c, 1, 77, 0
2, 82960, Note_off_c, 1, 82, 0
2, 83000, Note_on_c, 1, 46, 127
2, 83000, Note_on_c, 1, 53, 127
2, 83000, Note_on_c, 1, 74, 127
2, 83000, Note_on_c, 1, 77, 127
2, 83000, Note_on_c, 1, 82, 127
2, 83160, Note_off_c, 1, 46, 0
2, 83160, Note_off_c, 1, 53, 0
2, 83160, Note_off_c, 1, 74, 0
2, 83160, Note_off_c, 1, 77, 0
2, 83160, Note_off_c, 1, 82, 0
2, 83200, Note_on_c, 1, 46, 127
2, 83200, Note_on_c, 1, 53, 127
2, 83200, Note_on_c, 1, 74, 127
2, 83200, Note_on_c, 1, 77, 127
2, 83200, Note_on_c, 1, 82, 127
2, 83320, Note_off_c, 1, 46, 0
2, 83320, Note_off_c, 1, 53, 0
2, 83320, Note_off_c, 1, 74, 0
2, 83320, Note_off_c, 1, 77, 0
2, 83320, Note_off_c, 1, 82, 0
2, 83360, Note_on_c, 1, 46, 127
2, 83360, Note_on_c, 1, 53, 127
2, 83360, Note_on_c, 1, 74, 127
2, 83360, Note_on_c, 1, 77, 127
2, 83360, Note_on_c, 1, 82, 127
2, 83480, Note_off_c, 1, 46, 0
2, 83480, Note_off_c, 1, 53, 0
2, 83480, Note_off_c, 1, 74, 0
2, 83480, Note_on_c, 1, 75, 127
2, 83480, Note_off_c, 1, 77, 0
2, 83480, Note_off_c, 1, 82, 0
2, 83520, Note_on_c, 1, 46, 127
2, 83520, Note_on_c, 1, 53, 127
2, 83520, Note_on_c, 1, 74, 127
2, 83520, Note_off_c, 1, 75, 0
2, 83520, Note_on_c, 1, 77, 127
2, 83520, Note_on_c, 1, 82, 127
2, 83680, Note_off_c, 1, 46, 0
2, 83680, Note_off_c, 1, 53, 0
2, 83680, Note_off_c, 1, 74, 0
2, 83680, Note_off_c, 1, 77, 0
2, 83680, Note_off_c, 1, 82, 0
2, 83720, Note_on_c, 1, 46, 127
2, 83720, Note_on_c, 1, 53, 127
2, 83720, Note_on_c, 1, 74, 127
2, 83720, Note_on_c, 1, 77, 127
2, 83720, Note_on_c, 1, 82, 127
2, 83840, Note_off_c, 1, 46, 0
2, 83840, Note_off_c, 1, 53, 0
2, 83840, Note_off_c, 1, 74, 0
2, 83840, Note_off_c, 1, 77, 0
2, 83840, Note_off_c, 1, 82, 0
2, 83880, Note_on_c, 1, 46, 127
2, 83880, Note_on_c, 1, 53, 127
2, 83880, Note_on_c, 1, 74, 127
2, 83880, Note_on_c, 1, 77, 127
2, 83880, Note_on_c, 1, 82, 127
2, 84000, Note_off_c, 1, 46, 0
2, 84000, Note_off_c, 1, 53, 0
2, 84000, Note_off_c, 1, 74, 0
2, 84000, Note_off_c, 1, 77, 0
2, 84000, Note_off_c, 1, 82, 0
2, 84040, Note_on_c, 1, 46, 127
2, 84040, Note_on_c, 1, 53, 127
2, 84040, Note_on_c, 1, 74, 127
2, 84040, Note_on_c, 1, 77, 127
2, 84040, Note_on_c, 1, 82, 127
2, 84200, Note_off_c, 1, 46, 0
2, 84200, Note_off_c, 1, 53, 0
2, 84200, Note_off_c, 1, 74, 0
2, 84200, Note_off_c, 1, 77, 0
2, 84200, Note_off_c, 1, 82, 0
2, 84240, Note_on_c, 1, 46, 127
2, 84240, Note_on_c, 1, 53, 127
2, 84240, Note_on_c, 1, 74, 127
2, 84240, Note_on_c, 1, 77, 127
2, 84240, Note_on_c, 1, 82, 127
2, 84360, Note_off_c, 1, 46, 0
2, 84360, Note_off_c, 1, 53, 0
2, 84360, Note_off_c, 1, 74, 0
2, 84360, Note_off_c, 1, 77, 0
2, 84360, Note_off_c, 1, 82, 0
2, 84400, Note_on_c, 1, 46, 127
2, 84400, Note_on_c, 1, 53, 127
2, 84400, Note_on_c, 1, 74, 127
2, 84400, Note_on_c, 1, 77, 127
2, 84400, Note_on_c, 1, 82, 127
2, 84480, Note_off_c, 1, 46, 0
2, 84480, Note_off_c, 1, 53, 0
2, 84480, Note_off_c, 1, 74, 0
2, 84480, Note_off_c, 1, 77, 0
2, 84480, Note_off_c, 1, 82, 0
2, 84520, Note_on_c, 1, 46, 127
2, 84520, Note_on_c, 1, 53, 127
2, 84520, Note_on_c, 1, 74, 127
2, 84520, Note_on_c, 1, 77, 127
2, 84520, Note_on_c, 1, 82, 127
2, 84560, Note_off_c, 1, 46, 0
2, 84560, Note_off_c, 1, 53, 0
2, 84560, Note_off_c, 1, 74, 0
2, 84560, Note_off_c, 1, 77, 0
2, 84560, Note_off_c, 1, 82, 0
2, 84600, Note_on_c, 1, 46, 127
2, 84600, Note_on_c, 1, 53, 127
2, 84600, Note_on_c, 1, 74, 127
2, 84600, Note_on_c, 1, 77, 127
2, 84600, Note_on_c, 1, 82, 127
2, 84760, Note_off_c, 1, 46, 0
2, 84760, Note_off_c, 1, 53, 0
2, 84760, Note_off_c, 1, 74, 0
2, 84760, Note_off_c, 1, 77, 0
2, 84760, Note_off_c, 1, 82, 0
2, 84800, Note_on_c, 1, 46, 127
2, 84800, Note_on_c, 1, 53, 127
2, 84800, Note_on_c, 1, 74, 127
2, 84800, Note_on_c, 1, 77, 127
2, 84800, Note_on_c, 1, 82, 127
2, 84920, Note_off_c, 1, 46, 0
2, 84920, Note_off_c, 1, 53, 0
2, 84920, Note_off_c, 1, 74, 0
2, 84920, Note_off_c, 1, 77, 0
2, 84920, Note_off_c, 1, 82, 0
2, 84960, Note_on_c, 1, 46, 127
2, 84960, Note_on_c, 1, 53, 127
2, 84960, Note_on_c, 1, 74, 127
2, 84960, Note_on_c, 1, 77, 127
2, 84960, Note_on_c, 1, 82, 127
2, 85080, Note_off_c, 1, 46, 0
2, 85080, Note_off_c, 1, 53, 0
2, 85080, Note_off_c, 1, 74, 0
2, 85080, Note_off_c, 1, 77, 0
2, 85080, Note_off_c, 1, 82, 0
2, 85120, Note_on_c, 1, 46, 127
2, 85120, Note_on_c, 1, 53, 127
2, 85120, Note_on_c, 1, 74, 127
2, 85120, Note_on_c, 1, 77, 127
2, 85120, Note_on_c, 1, 82, 127
2, 85280, Note_off_c, 1, 46, 0
2, 85280, Note_off_c, 1, 53, 0
2, 85280, Note_off_c, 1, 74, 0
2, 85280, Note_off_c, 1, 77, 0
2, 85280, Note_off_c, 1, 82, 0
2, 85320, Note_on_c, 1, 46, 127
2, 85320, Note_on_c, 1, 53, 127
2, 85320, Note_on_c, 1, 74, 127
2, 85320, Note_on_c, 1, 77, 127
2, 85320, Note_on_c, 1, 82, 127
2, 85440, Note_off_c, 1, 46, 0
2, 85440, Note_off_c, 1, 53, 0
2, 85440, Note_off_c, 1, 74, 0
2, 85440, Note_off_c, 1, 77, 0
2, 85440, Note_off_c, 1, 82, 0
2, 85480, Note_on_c, 1, 46, 127
2, 85480, Note_on_c, 1, 53, 127
2, 85480, Note_on_c, 1, 74, 127
2, 85480, Note_on_c, 1, 77, 127
2, 85480, Note_on_c, 1, 82, 127
2, 85600, Note_off_c, 1, 46, 0
2, 85600, Note_off_c, 1, 53, 0
2, 85600, Note_off_c, 1, 74, 0
2, 85600, Note_off_c, 1, 77, 0
2, 85600, Note_off_c, 1, 82, 0
2, 85640, Note_on_c, 1, 46, 127
2, 85640, Note_on_c, 1, 53, 127
2, 85640, Note_on_c, 1, 74, 127
2, 85640, Note_on_c, 1, 77, 127
2, 85640, Note_on_c, 1, 82, 127
2, 85800, Note_off_c, 1, 46, 0
2, 85800, Note_off_c, 1, 53, 0
2, 85800, Note_off_c, 1, 74, 0
2, 85800, Note_off_c, 1, 77, 0
2, 85800, Note_off_c, 1, 82, 0
2, 85840, Note_on_c, 1, 46, 127
2, 85840, Note_on_c, 1, 53, 127
2, 85840, Note_on_c, 1, 74, 127
2, 85840, Note_on_c, 1, 77, 127
2, 85840, Note_on_c, 1, 82, 127
2, 85960, Note_off_c, 1, 46, 0
2, 85960, Note_off_c, 1, 53, 0
2, 85960, Note_off_c, 1, 74, 0
2, 85960, Note_off_c, 1, 77, 0
2, 85960, Note_off_c, 1, 82, 0
2, 86000, Note_on_c, 1, 46, 127
2, 86000, Note_on_c, 1, 50, 127
2, 86000, Note_on_c, 1, 58, 127
2, 86000, Note_on_c, 1, 65, 127
2, 86000, Note_on_c, 1, 70, 127
2, 86120, Note_off_c, 1, 46, 0
2, 86120, Note_off_c, 1, 50, 0
2, 86120, Note_off_c, 1, 58, 0
2, 86120, Note_off_c, 1, 65, 0
2, 86120, Note_off_c, 1, 70, 0
2, 86160, Note_on_c, 1, 41, 127
2, 86160, Note_on_c, 1, 51, 127
2, 86160, Note_on_c, 1, 60, 127
2, 86160, Note_on_c, 1, 65, 127
2, 86160, Note_on_c, 1, 72, 127
2, 86280, Note_off_c, 1, 51, 0
2, 86320, Note_off_c, 1, 41, 0
2, 86320, Note_off_c, 1, 60, 0
2, 86320, Note_off_c, 1, 65, 0
2, 86320, Note_off_c, 1, 72, 0
2, 86360, Note_on_c, 1, 41, 127
2, 86360, Note_on_c, 1, 51, 127
2, 86360, Note_on_c, 1, 60, 127
2, 86360, Note_on_c, 1, 65, 127
2, 86360, Note_on_c, 1, 72, 127
2, 86480, Note_off_c, 1, 51, 0
2, 86520, Note_on_c, 1, 53, 127
2, 86600, Note_off_c, 1, 41, 0
2, 86600, Note_off_c, 1, 53, 0
2, 86600, Note_off_c, 1, 60, 0
2, 86600, Note_off_c, 1, 65, 0
2, 86600, Note_off_c, 1, 72, 0
2, 86640, Note_on_c, 1, 41, 127
2, 86640, Note_on_c, 1, 53, 127
2, 86640, Note_on_c, 1, 60, 127
2, 86640, Note_on_c, 1, 65, 127
2, 86640, Note_on_c, 1, 72, 127
2, 86680, Note_off_c, 1, 41, 0
2, 86680, Note_off_c, 1, 53, 0
2, 86680, Note_off_c, 1, 60, 0
2, 86680, Note_off_c, 1, 65, 0
2, 86680, Note_off_c, 1, 72, 0
2, 86720, Note_on_c, 1, 41, 127
2, 86720, Note_on_c, 1, 51, 127
2, 86720, Note_on_c, 1, 60, 127
2, 86720, Note_on_c, 1, 65, 127
2, 86720, Note_on_c, 1, 72, 127
2, 86840, Note_off_c, 1, 51, 0
2, 86920, Note_on_c, 1, 53, 127
2, 87000, Note_off_c, 1, 60, 0
2, 87000, Note_off_c, 1, 65, 0
2, 87000, Note_off_c, 1, 72, 0
2, 87040, Note_off_c, 1, 41, 0
2, 87040, Note_off_c, 1, 53, 0
2, 87080, Note_on_c, 1, 41, 127
2, 87080, Note_on_c, 1, 51, 127
2, 87080, Note_on_c, 1, 60, 127
2, 87080, Note_on_c, 1, 65, 127
2, 87080, Note_on_c, 1, 72, 127
2, 87200, Note_off_c, 1, 51, 0
2, 87240, Note_on_c, 1, 53, 127
2, 87360, Note_off_c, 1, 41, 0
2, 87360, Note_off_c, 1, 53, 0
2, 87360, Note_off_c, 1, 60, 0
2, 87360, Note_off_c, 1, 65, 0
2, 87360, Note_off_c, 1, 72, 0
2, 87400, Note_on_c, 1, 41, 127
2, 87400, Note_on_c, 1, 51, 127
2, 87400, Note_on_c, 1, 60, 127
2, 87400, Note_on_c, 1, 65, 127
2, 87400, Note_on_c, 1, 72, 127
2, 87560, Note_off_c, 1, 51, 0
2, 87600, Note_on_c, 1, 53, 127
2, 87720, Note_off_c, 1, 41, 0
2, 87720, Note_off_c, 1, 53, 0
2, 87720, Note_off_c, 1, 60, 0
2, 87720, Note_off_c, 1, 65, 0
2, 87720, Note_off_c, 1, 72, 0
2, 87760, Note_on_c, 1, 41, 127
2, 87760, Note_on_c, 1, 50, 127
2, 87760, Note_on_c, 1, 58, 127
2, 87760, Note_on_c, 1, 65, 127
2, 87760, Note_on_c, 1, 70, 127
2, 87880, Note_off_c, 1, 50, 0
2, 87920, Note_on_c, 1, 53, 127
2, 88040, Note_off_c, 1, 58, 0
2, 88040, Note_off_c, 1, 65, 0
2, 88040, Note_off_c, 1, 70, 0
2, 88080, Note_on_c, 1, 58, 127
2, 88080, Note_on_c, 1, 65, 127
2, 88080, Note_on_c, 1, 70, 127
2, 88400, Note_off_c, 1, 41, 0
2, 88400, Note_off_c, 1, 53, 0
2, 88400, Note_off_c, 1, 58, 0
2, 88400, Note_off_c, 1, 65, 0
2, 88400, Note_off_c, 1, 70, 0
2, 88440, Note_on_c, 1, 41, 127
2, 88440, Note_on_c, 1, 51, 127
2, 88440, Note_on_c, 1, 60, 127
2, 88440, Note_on_c, 1, 65, 127
2, 88440, Note_on_c, 1, 72, 127
2, 88560, Note_off_c, 1, 51, 0
2, 88600, Note_on_c, 1, 53, 127
2, 88680, Note_off_c, 1, 41, 0
2, 88680, Note_off_c, 1, 53, 0
2, 88680, Note_off_c, 1, 60, 0
2, 88680, Note_off_c, 1, 65, 0
2, 88680, Note_off_c, 1, 72, 0
2, 88720, Note_on_c, 1, 41, 127
2, 88720, Note_on_c, 1, 53, 127
2, 88720, Note_on_c, 1, 60, 127
2, 88720, Note_on_c, 1, 65, 127
2, 88720, Note_on_c, 1, 72, 127
2, 88760, Note_off_c, 1, 41, 0
2, 88760, Note_off_c, 1, 53, 0
2, 88760, Note_off_c, 1, 60, 0
2, 88760, Note_off_c, 1, 65, 0
2, 88760, Note_off_c, 1, 72, 0
2, 88800, Note_on_c, 1, 41, 127
2, 88800, Note_on_c, 1, 50, 127
2, 88800, Note_on_c, 1, 58, 127
2, 88800, Note_on_c, 1, 65, 127
2, 88800, Note_on_c, 1, 70, 127
2, 88960, Note_off_c, 1, 50, 0
2, 89000, Note_on_c, 1, 53, 127
2, 89120, Note_off_c, 1, 41, 0
2, 89120, Note_off_c, 1, 53, 0
2, 89120, Note_off_c, 1, 58, 0
2, 89120, Note_off_c, 1, 65, 0
2, 89120, Note_off_c, 1, 70, 0
2, 89160, Note_on_c, 1, 41, 127
2, 89160, Note_on_c, 1, 48, 127
2, 89160, Note_on_c, 1, 57, 127
2, 89160, Note_on_c, 1, 65, 127
2, 89160, Note_on_c, 1, 69, 127
2, 89280, Note_off_c, 1, 48, 0
2, 89320, Note_on_c, 1, 53, 127
2, 89440, Note_off_c, 1, 41, 0
2, 89440, Note_off_c, 1, 53, 0
2, 89440, Note_off_c, 1, 57, 0
2, 89440, Note_off_c, 1, 65, 0
2, 89440, Note_off_c, 1, 69, 0
2, 89480, Note_on_c, 1, 42, 127
2, 89480, Note_on_c, 1, 44, 127
2, 89480, Note_on_c, 1, 48, 127
2, 89480, Note_on_c, 1, 51, 127
2, 89480, Note_on_c, 1, 56, 127
2, 89680, Note_on_c, 1, 41, 127
2, 89680, Note_off_c, 1, 42, 0
2, 89680, Note_off_c, 1, 44, 0
2, 89680, Note_off_c, 1, 48, 0
2, 89680, Note_off_c, 1, 51, 0
2, 89680, Note_off_c, 1, 56, 0
2, 89680, Note_on_c, 1, 60, 127
2, 89680, Note_on_c, 1, 62, 127
2, 89680, Note_on_c, 1, 67, 127
2, 89800, Note_off_c, 1, 41, 0
2, 89800, Note_off_c, 1, 60, 0
2, 89800, Note_off_c, 1, 62, 0
2, 89800, Note_off_c, 1, 67, 0
2, 89840, Note_on_c, 1, 50, 127
2, 89840, Note_on_c, 1, 53, 127
2, 89840, Note_on_c, 1, 58, 127
2, 89840, Note_on_c, 1, 62, 127
2, 89960, Note_off_c, 1, 50, 0
2, 89960, Note_off_c, 1, 53, 0
2, 89960, Note_off_c, 1, 58, 0
2, 89960, Note_off_c, 1, 62, 0
2, 90000, Note_on_c, 1, 50, 127
2, 90000, Note_on_c, 1, 53, 127
2, 90000, Note_on_c, 1, 58, 127
2, 90000, Note_on_c, 1, 62, 127
2, 90120, Note_off_c, 1, 50, 0
2, 90120, Note_off_c, 1, 53, 0
2, 90120, Note_off_c, 1, 58, 0
2, 90120, Note_off_c, 1, 62, 0
2, 90160, Note_on_c, 1, 50, 127
2, 90160, Note_on_c, 1, 53, 127
2, 90160, Note_on_c, 1, 58, 127
2, 90160, Note_on_c, 1, 62, 127
2, 90480, Note_off_c, 1, 50, 0
2, 90480, Note_off_c, 1, 53, 0
2, 90480, Note_off_c, 1, 58, 0
2, 90480, Note_off_c, 1, 62, 0
2, 90520, Note_on_c, 1, 53, 127
2, 90520, Note_on_c, 1, 58, 127
2, 90520, Note_on_c, 1, 62, 127
2, 90520, Note_on_c, 1, 65, 127
2, 90760, Note_off_c, 1, 53, 0
2, 90760, Note_off_c, 1, 58, 0
2, 90760, Note_off_c, 1, 62, 0
2, 90760, Note_off_c, 1, 65, 0
2, 90800, Note_on_c, 1, 53, 127
2, 90800, Note_on_c, 1, 58, 127
2, 90800, Note_on_c, 1, 62, 127
2, 90800, Note_on_c, 1, 65, 127
2, 90840, Note_off_c, 1, 53, 0
2, 90840, Note_off_c, 1, 58, 0
2, 90840, Note_off_c, 1, 62, 0
2, 90840, Note_off_c, 1, 65, 0
2, 90880, Note_on_c, 1, 53, 127
2, 90880, Note_on_c, 1, 58, 127
2, 90880, Note_on_c, 1, 62, 127
2, 90880, Note_on_c, 1, 70, 127
2, 91040, Note_off_c, 1, 70, 0
2, 91160, Note_off_c, 1, 58, 0
2, 91160, Note_off_c, 1, 62, 0
2, 91200, Note_off_c, 1, 53, 0
2, 91240, Note_on_c, 1, 53, 127
2, 91240, Note_on_c, 1, 58, 127
2, 91240, Note_on_c, 1, 62, 127
2, 91240, Note_on_c, 1, 70, 127
2, 91360, Note_off_c, 1, 70, 0
2, 91400, Note_on_c, 1, 72, 127
2, 91480, Note_off_c, 1, 72, 0
2, 91520, Note_off_c, 1, 53, 0
2, 91520, Note_off_c, 1, 58, 0
2, 91520, Note_off_c, 1, 62, 0
2, 91520, Note_on_c, 1, 70, 127
2, 91760, Note_on_c, 1, 53, 127
2, 91760, Note_on_c, 1, 58, 127
2, 91760, Note_on_c, 1, 62, 127
2, 91760, Note_on_c, 1, 65, 127
2, 91760, Note_off_c, 1, 70, 0
2, 91760, Note_on_c, 1, 74, 127
2, 91880, Note_off_c, 1, 53, 0
2, 91880, Note_off_c, 1, 58, 0
2, 91880, Note_off_c, 1, 62, 0
2, 91880, Note_off_c, 1, 65, 0
2, 91880, Note_on_c, 1, 70, 127
2, 91880, Note_off_c, 1, 74, 0
2, 91920, Note_on_c, 1, 53, 127
2, 91920, Note_on_c, 1, 58, 127
2, 91920, Note_on_c, 1, 62, 127
2, 91920, Note_on_c, 1, 65, 127
2, 91920, Note_off_c, 1, 70, 0
2, 91920, Note_on_c, 1, 74, 127
2, 92040, Note_off_c, 1, 53, 0
2, 92040, Note_off_c, 1, 58, 0
2, 92040, Note_off_c, 1, 62, 0
2, 92040, Note_off_c, 1, 65, 0
2, 92080, Note_on_c, 1, 53, 127
2, 92080, Note_on_c, 1, 58, 127
2, 92080, Note_on_c, 1, 62, 127
2, 92080, Note_on_c, 1, 65, 127
2, 92200, Note_off_c, 1, 53, 0
2, 92200, Note_off_c, 1, 58, 0
2, 92200, Note_off_c, 1, 62, 0
2, 92200, Note_off_c, 1, 65, 0
2, 92240, Note_on_c, 1, 53, 127
2, 92240, Note_on_c, 1, 58, 127
2, 92240, Note_on_c, 1, 62, 127
2, 92240, Note_on_c, 1, 65, 127
2, 92400, Note_off_c, 1, 53, 0
2, 92400, Note_off_c, 1, 58, 0
2, 92400, Note_off_c, 1, 62, 0
2, 92400, Note_off_c, 1, 65, 0
2, 92440, Note_on_c, 1, 53, 127
2, 92440, Note_on_c, 1, 58, 127
2, 92440, Note_on_c, 1, 62, 127
2, 92440, Note_on_c, 1, 65, 127
2, 92560, Note_off_c, 1, 53, 0
2, 92560, Note_off_c, 1, 58, 0
2, 92560, Note_off_c, 1, 62, 0
2, 92560, Note_off_c, 1, 65, 0
2, 92560, Note_off_c, 1, 74, 0
2, 92600, Note_on_c, 1, 53, 127
2, 92600, Note_on_c, 1, 57, 127
2, 92600, Note_on_c, 1, 63, 127
2, 92600, Note_on_c, 1, 65, 127
2, 92600, Note_on_c, 1, 72, 127
2, 92840, Note_off_c, 1, 53, 0
2, 92840, Note_off_c, 1, 57, 0
2, 92840, Note_off_c, 1, 63, 0
2, 92840, Note_off_c, 1, 65, 0
2, 92840, Note_off_c, 1, 72, 0
2, 92880, Note_on_c, 1, 53, 127
2, 92880, Note_on_c, 1, 57, 127
2, 92880, Note_on_c, 1, 63, 127
2, 92880, Note_on_c, 1, 65, 127
2, 92880, Note_on_c, 1, 72, 127
2, 92920, Note_off_c, 1, 53, 0
2, 92920, Note_off_c, 1, 57, 0
2, 92920, Note_off_c, 1, 63, 0
2, 92920, Note_off_c, 1, 65, 0
2, 92920, Note_off_c, 1, 72, 0
2, 92960, Note_on_c, 1, 53, 127
2, 92960, Note_on_c, 1, 57, 127
2, 92960, Note_on_c, 1, 63, 127
2, 92960, Note_on_c, 1, 65, 127
2, 92960, Note_on_c, 1, 72, 127
2, 93240, Note_off_c, 1, 53, 0
2, 93240, Note_off_c, 1, 57, 0
2, 93240, Note_off_c, 1, 63, 0
2, 93240, Note_off_c, 1, 65, 0
2, 93240, Note_off_c, 1, 72, 0
2, 93240, Note_on_c, 1, 77, 127
2, 93280, Note_off_c, 1, 77, 0
2, 93320, Note_on_c, 1, 53, 127
2, 93320, Note_on_c, 1, 60, 127
2, 93320, Note_on_c, 1, 63, 127
2, 93320, Note_on_c, 1, 65, 127
2, 93440, Note_off_c, 1, 63, 0
2, 93440, Note_off_c, 1, 65, 0
2, 93480, Note_on_c, 1, 63, 127
2, 93480, Note_on_c, 1, 65, 127
2, 93520, Note_off_c, 1, 65, 0
2, 93560, Note_on_c, 1, 69, 127
2, 93600, Note_off_c, 1, 53, 0
2, 93600, Note_off_c, 1, 60, 0
2, 93600, Note_off_c, 1, 63, 0
2, 93600, Note_off_c, 1, 69, 0
2, 93640, Note_on_c, 1, 53, 127
2, 93640, Note_on_c, 1, 58, 127
2, 93640, Note_on_c, 1, 62, 127
2, 93640, Note_on_c, 1, 65, 127
2, 94280, Note_off_c, 1, 53, 0
2, 94280, Note_off_c, 1, 58, 0
2, 94280, Note_off_c, 1, 62, 0
2, 94280, Note_off_c, 1, 65, 0
2, 94320, Note_on_c, 1, 53, 127
2, 94320, Note_on_c, 1, 60, 127
2, 94320, Note_on_c, 1, 63, 127
2, 94320, Note_on_c, 1, 65, 127
2, 94440, Note_off_c, 1, 60, 0
2, 94440, Note_off_c, 1, 65, 0
2, 94440, Note_on_c, 1, 69, 127
2, 94480, Note_on_c, 1, 60, 127
2, 94640, Note_off_c, 1, 53, 0
2, 94640, Note_off_c, 1, 60, 0
2, 94640, Note_off_c, 1, 63, 0
2, 94640, Note_off_c, 1, 69, 0
2, 94680, Note_on_c, 1, 46, 127
2, 94680, Note_on_c, 1, 53, 127
2, 94680, Note_on_c, 1, 62, 127
2, 94680, Note_on_c, 1, 68, 127
2, 94920, Note_off_c, 1, 46, 0
2, 94920, Note_off_c, 1, 53, 0
2, 94920, Note_off_c, 1, 62, 0
2, 94920, Note_off_c, 1, 68, 0
2, 94960, Note_on_c, 1, 46, 127
2, 94960, Note_on_c, 1, 53, 127
2, 94960, Note_on_c, 1, 62, 127
2, 94960, Note_on_c, 1, 68, 127
2, 95000, Note_off_c, 1, 46, 0
2, 95000, Note_off_c, 1, 53, 0
2, 95000, Note_off_c, 1, 62, 0
2, 95000, Note_off_c, 1, 68, 0
2, 95040, Note_on_c, 1, 46, 127
2, 95040, Note_on_c, 1, 53, 127
2, 95040, Note_on_c, 1, 62, 127
2, 95040, Note_on_c, 1, 68, 127
2, 95680, Note_off_c, 1, 46, 0
2, 95680, Note_off_c, 1, 53, 0
2, 95680, Note_off_c, 1, 62, 0
2, 95680, Note_off_c, 1, 68, 0
2, 95680, Note_on_c, 1, 70, 127
2, 95880, Note_off_c, 1, 70, 0
2, 95880, Note_on_c, 1, 71, 127
2, 95920, Note_on_c, 1, 57, 127
2, 95920, Note_on_c, 1, 59, 127
2, 95920, Note_on_c, 1, 63, 127
2, 95920, Note_on_c, 1, 66, 127
2, 95920, Note_on_c, 1, 67, 127
2, 95920, Note_off_c, 1, 71, 0
2, 95960, Note_on_c, 1, 31, 127
2, 95960, Note_off_c, 1, 57, 0
2, 95960, Note_off_c, 1, 59, 0
2, 95960, Note_off_c, 1, 63, 0
2, 95960, Note_off_c, 1, 66, 0
2, 95960, Note_off_c, 1, 67, 0
2, 95960, Note_on_c, 1, 83, 127
2, 95960, Note_on_c, 1, 95, 127
2, 96000, Note_off_c, 1, 31, 0
2, 96000, Note_on_c, 1, 51, 127
2, 96000, Note_on_c, 1, 53, 127
2, 96000, Note_on_c, 1, 57, 127
2, 96000, Note_off_c, 1, 83, 0
2, 96000, Note_off_c, 1, 95, 0
2, 96040, Note_off_c, 1, 51, 0
2, 96040, Note_off_c, 1, 53, 0
2, 96040, Note_off_c, 1, 57, 0
2, 96080, Note_on_c, 1, 35, 127
2, 96080, Note_on_c, 1, 47, 127
2, 96080, Note_on_c, 1, 62, 127
2, 96080, Note_on_c, 1, 65, 127
2, 96080, Note_on_c, 1, 67, 127
2, 96200, Note_off_c, 1, 35, 0
2, 96200, Note_off_c, 1, 47, 0
2, 96200, Note_off_c, 1, 62, 0
2, 96200, Note_off_c, 1, 65, 0
2, 96200, Note_off_c, 1, 67, 0
2, 96240, Note_on_c, 1, 52, 127
2, 96240, Note_on_c, 1, 59, 127
2, 96240, Note_on_c, 1, 64, 127
2, 96240, Note_on_c, 1, 68, 127
2, 96400, Note_off_c, 1, 59, 0
2, 96400, Note_on_c, 1, 62, 127
2, 96400, Note_off_c, 1, 64, 0
2, 96440, Note_on_c, 1, 76, 127
2, 96520, Note_off_c, 1, 76, 0
2, 96560, Note_off_c, 1, 52, 0
2, 96560, Note_off_c, 1, 62, 0
2, 96560, Note_off_c, 1, 68, 0
2, 96600, Note_on_c, 1, 52, 127
2, 96600, Note_on_c, 1, 61, 127
2, 96600, Note_on_c, 1, 64, 127
2, 96600, Note_on_c, 1, 69, 127
2, 96960, Note_off_c, 1, 52, 0
2, 96960, Note_off_c, 1, 61, 0
2, 96960, Note_off_c, 1, 64, 0
2, 96960, Note_off_c, 1, 69, 0
2, 97000, Note_on_c, 1, 52, 127
2, 97000, Note_on_c, 1, 61, 127
2, 97000, Note_on_c, 1, 64, 127
2, 97000, Note_on_c, 1, 69, 127
2, 97280, Note_off_c, 1, 52, 0
2, 97280, Note_off_c, 1, 61, 0
2, 97280, Note_off_c, 1, 64, 0
2, 97280, Note_off_c, 1, 69, 0
2, 97320, Note_on_c, 1, 47, 127
2, 97320, Note_on_c, 1, 54, 127
2, 97320, Note_on_c, 1, 63, 127
2, 97320, Note_on_c, 1, 75, 127
2, 97600, Note_off_c, 1, 47, 0
2, 97600, Note_off_c, 1, 54, 0
2, 97600, Note_off_c, 1, 63, 0
2, 97600, Note_off_c, 1, 75, 0
2, 97680, Note_on_c, 1, 54, 127
2, 97680, Note_on_c, 1, 62, 127
2, 97680, Note_on_c, 1, 64, 127
2, 97800, Note_on_c, 1, 52, 127
2, 97800, Note_off_c, 1, 54, 0
2, 97800, Note_on_c, 1, 59, 127
2, 97800, Note_off_c, 1, 62, 0
2, 97800, Note_off_c, 1, 64, 0
2, 97800, Note_on_c, 1, 68, 127
2, 97840, Note_on_c, 1, 58, 127
2, 97840, Note_off_c, 1, 59, 0
2, 97840, Note_on_c, 1, 61, 127
2, 97840, Note_off_c, 1, 68, 0
2, 97840, Note_on_c, 1, 70, 127
2, 97960, Note_off_c, 1, 52, 0
2, 97960, Note_off_c, 1, 58, 0
2, 97960, Note_off_c, 1, 61, 0
2, 97960, Note_off_c, 1, 70, 0
2, 98000, Note_on_c, 1, 45, 127
2, 98000, Note_on_c, 1, 61, 127
2, 98000, Note_on_c, 1, 64, 127
2, 98000, Note_on_c, 1, 71, 127
2, 98280, Note_off_c, 1, 45, 0
2, 98280, Note_off_c, 1, 61, 0
2, 98280, Note_off_c, 1, 64, 0
2, 98280, Note_off_c, 1, 71, 0
2, 98360, Note_on_c, 1, 52, 127
2, 98360, Note_on_c, 1, 61, 127
2, 98360, Note_on_c, 1, 64, 127
2, 98360, Note_on_c, 1, 70, 127
2, 98640, Note_off_c, 1, 52, 0
2, 98640, Note_off_c, 1, 61, 0
2, 98640, Note_off_c, 1, 64, 0
2, 98640, Note_off_c, 1, 70, 0
2, 98680, Note_on_c, 1, 52, 127
2, 98680, Note_on_c, 1, 61, 127
2, 98680, Note_on_c, 1, 64, 127
2, 98680, Note_on_c, 1, 70, 127
2, 98960, Note_off_c, 1, 52, 0
2, 98960, Note_off_c, 1, 61, 0
2, 98960, Note_off_c, 1, 64, 0
2, 98960, Note_off_c, 1, 70, 0
2, 99040, Note_on_c, 1, 52, 127
2, 99040, Note_on_c, 1, 61, 127
2, 99040, Note_on_c, 1, 64, 127
2, 99040, Note_on_c, 1, 70, 127
2, 99160, Note_off_c, 1, 52, 0
2, 99160, Note_off_c, 1, 61, 0
2, 99160, Note_off_c, 1, 64, 0
2, 99160, Note_off_c, 1, 70, 0
2, 99200, Note_on_c, 1, 52, 127
2, 99200, Note_on_c, 1, 61, 127
2, 99200, Note_on_c, 1, 64, 127
2, 99200, Note_on_c, 1, 70, 127
2, 99360, Note_off_c, 1, 52, 0
2, 99360, Note_off_c, 1, 61, 0
2, 99360, Note_off_c, 1, 64, 0
2, 99360, Note_off_c, 1, 70, 0
2, 99400, Note_on_c, 1, 52, 127
2, 99400, Note_on_c, 1, 61, 127
2, 99400, Note_on_c, 1, 64, 127
2, 99400, Note_on_c, 1, 70, 127
2, 99680, Note_off_c, 1, 52, 0
2, 99680, Note_off_c, 1, 61, 0
2, 99680, Note_off_c, 1, 64, 0
2, 99680, Note_off_c, 1, 70, 0
2, 99760, Note_on_c, 1, 52, 127
2, 99760, Note_on_c, 1, 61, 127
2, 99760, Note_on_c, 1, 64, 127
2, 99760, Note_on_c, 1, 70, 127
2, 100040, Note_off_c, 1, 52, 0
2, 100040, Note_off_c, 1, 61, 0
2, 100040, Note_off_c, 1, 64, 0
2, 100040, Note_off_c, 1, 70, 0
2, 100120, Note_on_c, 1, 52, 127
2, 100120, Note_on_c, 1, 61, 127
2, 100120, Note_on_c, 1, 64, 127
2, 100120, Note_on_c, 1, 70, 127
2, 100400, Note_off_c, 1, 52, 0
2, 100400, Note_off_c, 1, 61, 0
2, 100400, Note_off_c, 1, 64, 0
2, 100400, Note_off_c, 1, 70, 0
2, 100440, Note_on_c, 1, 52, 127
2, 100440, Note_on_c, 1, 61, 127
2, 100440, Note_on_c, 1, 64, 127
2, 100440, Note_on_c, 1, 70, 127
2, 100720, Note_off_c, 1, 70, 0
2, 100760, Note_off_c, 1, 52, 0
2, 100760, Note_off_c, 1, 61, 0
2, 100760, Note_off_c, 1, 64, 0
2, 100800, Note_on_c, 1, 52, 127
2, 100800, Note_on_c, 1, 61, 127
2, 100800, Note_on_c, 1, 64, 127
2, 100800, Note_on_c, 1, 70, 127
2, 101080, Note_off_c, 1, 52, 0
2, 101080, Note_off_c, 1, 61, 0
2, 101080, Note_off_c, 1, 64, 0
2, 101080, Note_on_c, 1, 69, 127
2, 101080, Note_off_c, 1, 70, 0
2, 101120, Note_off_c, 1, 69, 0
2, 101200, Note_on_c, 1, 52, 127
2, 101200, Note_on_c, 1, 61, 127
2, 101200, Note_on_c, 1, 64, 127
2, 101200, Note_on_c, 1, 70, 127
2, 101480, Note_off_c, 1, 52, 0
2, 101480, Note_off_c, 1, 61, 0
2, 101480, Note_off_c, 1, 64, 0
2, 101480, Note_off_c, 1, 70, 0
2, 101520, Note_on_c, 1, 52, 127
2, 101520, Note_on_c, 1, 61, 127
2, 101520, Note_on_c, 1, 64, 127
2, 101520, Note_on_c, 1, 70, 127
2, 101800, Note_off_c, 1, 52, 0
2, 101800, Note_off_c, 1, 61, 0
2, 101800, Note_off_c, 1, 64, 0
2, 101800, Note_off_c, 1, 70, 0
2, 101880, Note_on_c, 1, 52, 127
2, 101880, Note_on_c, 1, 61, 127
2, 101880, Note_on_c, 1, 64, 127
2, 101880, Note_on_c, 1, 70, 127
2, 102160, Note_off_c, 1, 52, 0
2, 102160, Note_off_c, 1, 61, 0
2, 102160, Note_off_c, 1, 64, 0
2, 102160, Note_off_c, 1, 70, 0
2, 102240, Note_on_c, 1, 52, 127
2, 102240, Note_on_c, 1, 61, 127
2, 102240, Note_on_c, 1, 64, 127
2, 102240, Note_on_c, 1, 70, 127
2, 102520, Note_off_c, 1, 52, 0
2, 102520, Note_off_c, 1, 61, 0
2, 102520, Note_off_c, 1, 64, 0
2, 102520, Note_off_c, 1, 70, 0
2, 102560, Note_on_c, 1, 52, 127
2, 102560, Note_on_c, 1, 61, 127
2, 102560, Note_on_c, 1, 64, 127
2, 102560, Note_on_c, 1, 70, 127
2, 102840, Note_off_c, 1, 64, 0
2, 102880, Note_off_c, 1, 52, 0
2, 102880, Note_off_c, 1, 61, 0
2, 102880, Note_off_c, 1, 70, 0
2, 102920, Note_on_c, 1, 52, 127
2, 102920, Note_on_c, 1, 61, 127
2, 102920, Note_on_c, 1, 64, 127
2, 102920, Note_on_c, 1, 70, 127
2, 103200, Note_off_c, 1, 52, 0
2, 103200, Note_off_c, 1, 61, 0
2, 103200, Note_off_c, 1, 64, 0
2, 103200, Note_off_c, 1, 70, 0
2, 103320, Note_on_c, 1, 52, 127
2, 103320, Note_on_c, 1, 61, 127
2, 103320, Note_on_c, 1, 64, 127
2, 103320, Note_on_c, 1, 70, 127
2, 103600, Note_off_c, 1, 52, 0
2, 103600, Note_off_c, 1, 61, 0
2, 103600, Note_off_c, 1, 64, 0
2, 103600, Note_off_c, 1, 70, 0
2, 103640, Note_on_c, 1, 52, 127
2, 103640, Note_on_c, 1, 61, 127
2, 103640, Note_on_c, 1, 64, 127
2, 103640, Note_on_c, 1, 70, 127
2, 103960, Note_off_c, 1, 52, 0
2, 103960, Note_off_c, 1, 61, 0
2, 103960, Note_off_c, 1, 64, 0
2, 103960, Note_off_c, 1, 70, 0
2, 104000, Note_on_c, 1, 52, 127
2, 104000, Note_on_c, 1, 61, 127
2, 104000, Note_on_c, 1, 64, 127
2, 104000, Note_on_c, 1, 70, 127
2, 104280, Note_off_c, 1, 52, 0
2, 104280, Note_off_c, 1, 61, 0
2, 104280, Note_off_c, 1, 64, 0
2, 104280, Note_on_c, 1, 69, 127
2, 104280, Note_off_c, 1, 70, 0
2, 104320, Note_off_c, 1, 69, 0
2, 104360, Note_on_c, 1, 52, 127
2, 104360, Note_on_c, 1, 61, 127
2, 104360, Note_on_c, 1, 64, 127
2, 104360, Note_on_c, 1, 70, 127
2, 104640, Note_off_c, 1, 52, 0
2, 104640, Note_off_c, 1, 61, 0
2, 104640, Note_off_c, 1, 64, 0
2, 104640, Note_off_c, 1, 70, 0
2, 104680, Note_on_c, 1, 45, 127
2, 104680, Note_on_c, 1, 62, 127
2, 104680, Note_on_c, 1, 65, 127
2, 104880, Note_on_c, 1, 44, 127
2, 104880, Note_off_c, 1, 45, 0
2, 104880, Note_on_c, 1, 50, 127
2, 104880, Note_on_c, 1, 57, 127
2, 104880, Note_off_c, 1, 65, 0
2, 104880, Note_on_c, 1, 66, 127
2, 104880, Note_on_c, 1, 74, 127
2, 105000, Note_off_c, 1, 44, 0
2, 105000, Note_off_c, 1, 50, 0
2, 105000, Note_off_c, 1, 57, 0
2, 105000, Note_off_c, 1, 62, 0
2, 105000, Note_off_c, 1, 66, 0
2, 105000, Note_off_c, 1, 74, 0
2, 105040, Note_on_c, 1, 44, 127
2, 105040, Note_on_c, 1, 57, 127
2, 105040, Note_on_c, 1, 61, 127
2, 105040, Note_on_c, 1, 64, 127
2, 105160, Note_off_c, 1, 44, 0
2, 105160, Note_on_c, 1, 45, 127
2, 105160, Note_off_c, 1, 64, 0
2, 105160, Note_on_c, 1, 67, 127
2, 105200, Note_off_c, 1, 45, 0
2, 105200, Note_on_c, 1, 49, 127
2, 105200, Note_on_c, 1, 56, 127
2, 105200, Note_off_c, 1, 57, 0
2, 105200, Note_on_c, 1, 59, 127
2, 105200, Note_off_c, 1, 61, 0
2, 105200, Note_off_c, 1, 67, 0
2, 105200, Note_on_c, 1, 73, 127
2, 105200, Note_on_c, 1, 80, 127
2, 105240, Note_on_c, 1, 47, 127
2, 105240, Note_off_c, 1, 49, 0
2, 105240, Note_off_c, 1, 56, 0
2, 105240, Note_off_c, 1, 59, 0
2, 105240, Note_on_c, 1, 61, 127
2, 105240, Note_on_c, 1, 69, 127
2, 105240, Note_off_c, 1, 73, 0
2, 105240, Note_off_c, 1, 80, 0
2, 105240, Note_on_c, 1, 81, 127
2, 105280, Note_off_c, 1, 47, 0
2, 105280, Note_off_c, 1, 61, 0
2, 105280, Note_off_c, 1, 69, 0
2, 105280, Note_off_c, 1, 81, 0
2, 105320, Note_on_c, 1, 49, 127
2, 105320, Note_on_c, 1, 56, 127
2, 105320, Note_on_c, 1, 59, 127
2, 105320, Note_on_c, 1, 73, 127
2, 105320, Note_on_c, 1, 80, 127
2, 105360, Note_off_c, 1, 49, 0
2, 105360, Note_off_c, 1, 56, 0
2, 105360, Note_off_c, 1, 59, 0
2, 105360, Note_off_c, 1, 73, 0
2, 105360, Note_off_c, 1, 80, 0
2, 105400, Note_on_c, 1, 44, 127
2, 105400, Note_on_c, 1, 52, 127
2, 105400, Note_on_c, 1, 56, 127
2, 105400, Note_on_c, 1, 71, 127
2, 105720, Note_off_c, 1, 44, 0
2, 105720, Note_off_c, 1, 52, 0
2, 105720, Note_off_c, 1, 56, 0
2, 105720, Note_off_c, 1, 71, 0
2, 105760, Note_on_c, 1, 42, 127
2, 105760, Note_on_c, 1, 52, 127
2, 105760, Note_on_c, 1, 58, 127
2, 105760, Note_on_c, 1, 61, 127
2, 105760, Note_on_c, 1, 70, 127
2, 106040, Note_off_c, 1, 42, 0
2, 106040, Note_on_c, 1, 47, 127
2, 106040, Note_off_c, 1, 52, 0
2, 106040, Note_off_c, 1, 58, 0
2, 106040, Note_off_c, 1, 61, 0
2, 106040, Note_off_c, 1, 70, 0
2, 106080, Note_off_c, 1, 47, 0
2, 106120, Note_on_c, 1, 42, 127
2, 106120, Note_on_c, 1, 52, 127
2, 106120, Note_on_c, 1, 58, 127
2, 106120, Note_on_c, 1, 61, 127
2, 106120, Note_on_c, 1, 70, 127
2, 106360, Note_off_c, 1, 42, 0
2, 106360, Note_off_c, 1, 52, 0
2, 106360, Note_off_c, 1, 58, 0
2, 106360, Note_off_c, 1, 61, 0
2, 106360, Note_off_c, 1, 70, 0
2, 106440, Note_on_c, 1, 41, 127
2, 106440, Note_on_c, 1, 50, 127
2, 106440, Note_on_c, 1, 59, 127
2, 106440, Note_on_c, 1, 62, 127
2, 106440, Note_on_c, 1, 71, 127
2, 106760, Note_off_c, 1, 41, 0
2, 106760, Note_off_c, 1, 50, 0
2, 106760, Note_off_c, 1, 59, 0
2, 106760, Note_off_c, 1, 62, 0
2, 106760, Note_off_c, 1, 71, 0
2, 106800, Note_on_c, 1, 40, 127
2, 106800, Note_on_c, 1, 52, 127
2, 106800, Note_on_c, 1, 57, 127
2, 106800, Note_on_c, 1, 61, 127
2, 106800, Note_on_c, 1, 69, 127
2, 107080, Note_off_c, 1, 40, 0
2, 107080, Note_off_c, 1, 52, 0
2, 107080, Note_off_c, 1, 57, 0
2, 107080, Note_off_c, 1, 61, 0
2, 107080, Note_off_c, 1, 69, 0
2, 107160, Note_on_c, 1, 40, 127
2, 107160, Note_on_c, 1, 50, 127
2, 107160, Note_on_c, 1, 52, 127
2, 107160, Note_on_c, 1, 56, 127
2, 107160, Note_on_c, 1, 59, 127
2, 107160, Note_on_c, 1, 68, 127
2, 107280, Note_off_c, 1, 40, 0
2, 107280, Note_off_c, 1, 50, 0
2, 107280, Note_off_c, 1, 52, 0
2, 107280, Note_off_c, 1, 56, 0
2, 107280, Note_off_c, 1, 59, 0
2, 107280, Note_off_c, 1, 68, 0
2, 107320, Note_on_c, 1, 40, 127
2, 107320, Note_on_c, 1, 50, 127
2, 107320, Note_on_c, 1, 52, 127
2, 107320, Note_on_c, 1, 56, 127
2, 107320, Note_on_c, 1, 59, 127
2, 107320, Note_on_c, 1, 68, 127
2, 107440, Note_off_c, 1, 40, 0
2, 107440, Note_off_c, 1, 50, 0
2, 107440, Note_off_c, 1, 52, 0
2, 107440, Note_off_c, 1, 56, 0
2, 107440, Note_off_c, 1, 59, 0
2, 107440, Note_off_c, 1, 68, 0
2, 107520, Note_on_c, 1, 40, 127
2, 107520, Note_on_c, 1, 50, 127
2, 107520, Note_on_c, 1, 52, 127
2, 107520, Note_on_c, 1, 56, 127
2, 107520, Note_on_c, 1, 59, 127
2, 107520, Note_on_c, 1, 68, 127
2, 107800, Note_off_c, 1, 40, 0
2, 107800, Note_off_c, 1, 50, 0
2, 107800, Note_off_c, 1, 52, 0
2, 107800, Note_off_c, 1, 56, 0
2, 107800, Note_off_c, 1, 59, 0
2, 107800, Note_off_c, 1, 68, 0
2, 107880, Note_on_c, 1, 45, 127
2, 107880, Note_on_c, 1, 49, 127
2, 107880, Note_on_c, 1, 52, 127
2, 107880, Note_on_c, 1, 57, 127
2, 107880, Note_on_c, 1, 61, 127
2, 107880, Note_on_c, 1, 69, 127
2, 108520, Note_off_c, 1, 45, 0
2, 108520, Note_off_c, 1, 49, 0
2, 108520, Note_off_c, 1, 52, 0
2, 108520, Note_off_c, 1, 57, 0
2, 108520, Note_off_c, 1, 61, 0
2, 108520, Note_off_c, 1, 69, 0
2, 109480, Note_on_c, 1, 35, 127
2, 109480, Note_on_c, 1, 47, 127
2, 109760, Note_off_c, 1, 35, 0
2, 109760, Note_off_c, 1, 47, 0
2, 109840, Note_on_c, 1, 35, 127
2, 109840, Note_on_c, 1, 47, 127
2, 110120, Note_off_c, 1, 35, 0
2, 110120, Note_off_c, 1, 47, 0
2, 110200, Note_on_c, 1, 35, 127
2, 110200, Note_on_c, 1, 47, 127
2, 110480, Note_off_c, 1, 35, 0
2, 110480, Note_off_c, 1, 47, 0
2, 110560, Note_on_c, 1, 35, 127
2, 110560, Note_on_c, 1, 47, 127
2, 110840, Note_off_c, 1, 35, 0
2, 110840, Note_off_c, 1, 47, 0
2, 110920, Note_on_c, 1, 35, 127
2, 110920, Note_on_c, 1, 47, 127
2, 111160, Note_off_c, 1, 35, 0
2, 111160, Note_off_c, 1, 47, 0
2, 111240, Note_on_c, 1, 35, 127
2, 111240, Note_on_c, 1, 47, 127
2, 111520, Note_off_c, 1, 35, 0
2, 111520, Note_off_c, 1, 47, 0
2, 111640, Note_on_c, 1, 35, 127
2, 111640, Note_on_c, 1, 47, 127
2, 111920, Note_off_c, 1, 35, 0
2, 111920, Note_off_c, 1, 47, 0
2, 111960, Note_on_c, 1, 35, 127
2, 111960, Note_on_c, 1, 47, 127
2, 111960, Note_on_c, 1, 78, 127
2, 112240, Note_off_c, 1, 35, 0
2, 112240, Note_off_c, 1, 47, 0
2, 112240, Note_off_c, 1, 78, 0
2, 112320, Note_on_c, 1, 35, 127
2, 112320, Note_on_c, 1, 47, 127
2, 112320, Note_on_c, 1, 78, 127
2, 112680, Note_on_c, 1, 71, 127
2, 112680, Note_off_c, 1, 78, 0
2, 112680, Note_on_c, 1, 79, 127
2, 112960, Note_off_c, 1, 71, 0
2, 112960, Note_off_c, 1, 79, 0
2, 113320, Note_off_c, 1, 35, 0
2, 113320, Note_off_c, 1, 47, 0
2, 113360, Note_on_c, 1, 35, 127
2, 113360, Note_on_c, 1, 47, 127
2, 113640, Note_off_c, 1, 35, 0
2, 113640, Note_off_c, 1, 47, 0
2, 113680, Note_on_c, 1, 35, 127
2, 113680, Note_on_c, 1, 47, 127
2, 113800, Note_off_c, 1, 35, 0
2, 113800, Note_off_c, 1, 47, 0
2, 113840, Note_on_c, 1, 35, 127
2, 113840, Note_on_c, 1, 47, 127
2, 114000, Note_off_c, 1, 47, 0
2, 114080, Note_on_c, 1, 47, 127
2, 114360, Note_off_c, 1, 35, 0
2, 114360, Note_off_c, 1, 47, 0
2, 114400, Note_on_c, 1, 35, 127
2, 114400, Note_on_c, 1, 47, 127
2, 114680, Note_off_c, 1, 47, 0
2, 114760, Note_off_c, 1, 35, 0
2, 114760, Note_on_c, 1, 40, 127
2, 114760, Note_on_c, 1, 44, 127
2, 114760, Note_on_c, 1, 47, 127
2, 114760, Note_on_c, 1, 52, 127
2, 114760, Note_on_c, 1, 76, 127
2, 114760, Note_on_c, 1, 80, 127
2, 114760, Note_on_c, 1, 83, 127
2, 114760, Note_on_c, 1, 88, 127
2, 115040, Note_off_c, 1, 40, 0
2, 115040, Note_off_c, 1, 44, 0
2, 115040, Note_off_c, 1, 47, 0
2, 115040, Note_off_c, 1, 52, 0
2, 115040, Note_off_c, 1, 76, 0
2, 115040, Note_off_c, 1, 80, 0
2, 115040, Note_off_c, 1, 83, 0
2, 115040, Note_off_c, 1, 88, 0
2, 115080, Note_on_c, 1, 64, 127
2, 115080, Note_on_c, 1, 73, 127
2, 115080, Note_on_c, 1, 81, 127
2, 115080, Note_on_c, 1, 85, 127
2, 115360, Note_off_c, 1, 64, 0
2, 115360, Note_on_c, 1, 66, 127
2, 115360, Note_off_c, 1, 73, 0
2, 115360, Note_off_c, 1, 81, 0
2, 115360, Note_off_c, 1, 85, 0
2, 115400, Note_off_c, 1, 66, 0
2, 115440, Note_on_c, 1, 40, 127
2, 115440, Note_on_c, 1, 52, 127
2, 115440, Note_on_c, 1, 68, 127
2, 115680, Note_off_c, 1, 40, 0
2, 115680, Note_off_c, 1, 52, 0
2, 115680, Note_off_c, 1, 68, 0
2, 115720, Note_on_c, 1, 40, 127
2, 115720, Note_on_c, 1, 52, 127
2, 115720, Note_on_c, 1, 68, 127
2, 115760, Note_off_c, 1, 40, 0
2, 115760, Note_off_c, 1, 52, 0
2, 115760, Note_off_c, 1, 68, 0
2, 115800, Note_on_c, 1, 40, 127
2, 115800, Note_on_c, 1, 52, 127
2, 115800, Note_on_c, 1, 70, 127
2, 116120, Note_off_c, 1, 40, 0
2, 116120, Note_off_c, 1, 52, 0
2, 116120, Note_off_c, 1, 70, 0
2, 116160, Note_on_c, 1, 37, 127
2, 116160, Note_on_c, 1, 49, 127
2, 116160, Note_on_c, 1, 73, 127
2, 116440, Note_off_c, 1, 37, 0
2, 116440, Note_off_c, 1, 49, 0
2, 116440, Note_off_c, 1, 73, 0
2, 116520, Note_on_c, 1, 37, 127
2, 116520, Note_on_c, 1, 49, 127
2, 116520, Note_on_c, 1, 73, 127
2, 116800, Note_off_c, 1, 37, 0
2, 116800, Note_off_c, 1, 49, 0
2, 116800, Note_off_c, 1, 73, 0
2, 116840, Note_on_c, 1, 37, 127
2, 116840, Note_on_c, 1, 76, 127
2, 117040, Note_off_c, 1, 37, 0
2, 117040, Note_on_c, 1, 61, 127
2, 117040, Note_off_c, 1, 76, 0
2, 117040, Note_on_c, 1, 80, 127
2, 117040, Note_on_c, 1, 85, 127
2, 117040, Note_on_c, 1, 88, 127
2, 117120, Note_on_c, 1, 44, 127
2, 117120, Note_off_c, 1, 61, 0
2, 117120, Note_on_c, 1, 66, 127
2, 117120, Note_on_c, 1, 77, 127
2, 117120, Note_off_c, 1, 80, 0
2, 117120, Note_off_c, 1, 85, 0
2, 117120, Note_off_c, 1, 88, 0
2, 117160, Note_off_c, 1, 44, 0
2, 117160, Note_off_c, 1, 66, 0
2, 117160, Note_off_c, 1, 77, 0
2, 117200, Note_on_c, 1, 50, 127
2, 117200, Note_on_c, 1, 61, 127
2, 117200, Note_on_c, 1, 66, 127
2, 117480, Note_off_c, 1, 50, 0
2, 117480, Note_off_c, 1, 61, 0
2, 117520, Note_off_c, 1, 66, 0
2, 117600, Note_on_c, 1, 37, 127
2, 117600, Note_on_c, 1, 49, 127
2, 117600, Note_on_c, 1, 70, 127
2, 117760, Note_on_c, 1, 65, 127
2, 117760, Note_on_c, 1, 68, 127
2, 117840, Note_off_c, 1, 65, 0
2, 117840, Note_off_c, 1, 68, 0
2, 117840, Note_off_c, 1, 70, 0
2, 117840, Note_on_c, 1, 71, 127
2, 117880, Note_off_c, 1, 71, 0
2, 117920, Note_on_c, 1, 71, 127
2, 118240, Note_off_c, 1, 37, 0
2, 118240, Note_off_c, 1, 49, 0
2, 118240, Note_off_c, 1, 71, 0
2, 118280, Note_on_c, 1, 37, 127
2, 118280, Note_on_c, 1, 49, 127
2, 118280, Note_on_c, 1, 70, 127
2, 118440, Note_on_c, 1, 66, 127
2, 118560, Note_off_c, 1, 37, 0
2, 118560, Note_off_c, 1, 49, 0
2, 118560, Note_off_c, 1, 66, 0
2, 118560, Note_off_c, 1, 70, 0
2, 118600, Note_on_c, 1, 37, 127
2, 118600, Note_on_c, 1, 49, 127
2, 118600, Note_on_c, 1, 73, 127
2, 118800, Note_on_c, 1, 61, 127
2, 118880, Note_off_c, 1, 37, 0
2, 118880, Note_off_c, 1, 49, 0
2, 118880, Note_off_c, 1, 61, 0
2, 118920, Note_off_c, 1, 73, 0
2, 118960, Note_on_c, 1, 37, 127
2, 118960, Note_on_c, 1, 49, 127
2, 118960, Note_on_c, 1, 73, 127
2, 119120, Note_on_c, 1, 61, 127
2, 119240, Note_off_c, 1, 37, 0
2, 119240, Note_off_c, 1, 49, 0
2, 119240, Note_off_c, 1, 61, 0
2, 119280, Note_off_c, 1, 73, 0
2, 119320, Note_on_c, 1, 37, 127
2, 119320, Note_on_c, 1, 49, 127
2, 119320, Note_on_c, 1, 73, 127
2, 119480, Note_on_c, 1, 72, 127
2, 119480, Note_off_c, 1, 73, 0
2, 119600, Note_off_c, 1, 37, 0
2, 119600, Note_off_c, 1, 49, 0
2, 119600, Note_off_c, 1, 72, 0
2, 119680, Note_on_c, 1, 40, 127
2, 119680, Note_on_c, 1, 52, 127
2, 119680, Note_on_c, 1, 68, 127
2, 119960, Note_off_c, 1, 40, 0
2, 119960, Note_off_c, 1, 52, 0
2, 119960, Note_off_c, 1, 68, 0
2, 120040, End_track
3, 0, Start_track
3, 0, Title_t, "MIDI"
3, 1536, End_track
0, 0, End_of_file
