0, 0, Header, 1, 3, 192
1, 0, Start_track
1, 0, Time_signature, 4, 2, 24, 8
1, 0, Tempo, 500000
1, 120040, End_track
2, 0, Start_track
2, 0, Text_t, "random instrument: random person i dunno whatev"
2, 0, Title_t, "Track 1"
2, 0, Note_on_c, 1, 55, 127
2, 0, Note_on_c, 1, 59, 127
2, 0, Note_on_c, 1, 62, 127
2, 0, Note_on_c, 1, 71, 127
2, 0, Note_on_c, 1, 79, 127
2, 40, Note_on_c, 1, 42, 127
2, 40, Note_on_c, 1, 49, 127
2, 40, Note_on_c, 1, 54, 127
2, 40, Note_off_c, 1, 55, 0
2, 40, Note_off_c, 1, 59, 0
2, 40, Note_off_c, 1, 62, 0
2, 40, Note_off_c, 1, 71, 0
2, 40, Note_off_c, 1, 79, 0
2, 40, Note_on_c, 1, 82, 127
2, 40, Note_on_c, 1, 88, 127
2, 40, Note_on_c, 1, 94, 127
2, 80, Note_off_c, 1, 42, 0
2, 80, Note_off_c, 1, 49, 0
2, 80, Note_off_c, 1, 54, 0
2, 80, Note_off_c, 1, 82, 0
2, 80, Note_off_c, 1, 88, 0
2, 80, Note_off_c, 1, 94, 0
2, 120, Note_on_c, 1, 58, 127
2, 120, Note_on_c, 1, 65, 127
2, 120, Note_on_c, 1, 70, 127
2, 120, Note_on_c, 1, 73, 127
2, 120, Note_on_c, 1, 80, 127
2, 160, Note_on_c, 1, 53, 127
2, 160, Note_on_c, 1, 56, 127
2, 160, Note_off_c, 1, 58, 0
2, 160, Note_on_c, 1, 63, 127
2, 160, Note_off_c, 1, 65, 0
2, 160, Note_off_c, 1, 70, 0
2, 160, Note_on_c, 1, 83, 127
2, 200, Note_on_c, 1, 33, 127
2, 200, Note_on_c, 1, 37, 127
2, 200, Note_on_c, 1, 40, 127
2, 200, Note_on_c, 1, 45, 127
2, 200, Note_off_c, 1, 53, 0
2, 200, Note_off_c, 1, 56, 0
2, 200, Note_on_c, 1, 57, 127
2, 200, Note_on_c, 1, 61, 127
2, 200, Note_off_c, 1, 63, 0
2, 200, Note_on_c, 1, 64, 127
2, 200, Note_off_c, 1, 73, 0
2, 200, Note_off_c, 1, 80, 0
2, 200, Note_off_c, 1, 83, 0
2, 240, Note_off_c, 1, 33, 0
2, 240, Note_off_c, 1, 37, 0
2, 240, Note_off_c, 1, 40, 0
2, 240, Note_off_c, 1, 45, 0
2, 240, Note_off_c, 1, 57, 0
2, 240, Note_on_c, 1, 58, 127
2, 240, Note_off_c, 1, 61, 0
2, 240, Note_on_c, 1, 66, 127
2, 240, Note_on_c, 1, 73, 127
2, 240, Note_on_c, 1, 85, 127
2, 360, Note_off_c, 1, 58, 0
2, 360, Note_off_c, 1, 64, 0
2, 360, Note_off_c, 1, 66, 0
2, 360, Note_off_c, 1, 73, 0
2, 360, Note_off_c, 1, 85, 0
2, 400, Note_on_c, 1, 58, 127
2, 400, Note_on_c, 1, 70, 127
2, 600, Note_off_c, 1, 58, 0
2, 600, Note_off_c, 1, 70, 0
2, 640, Note_on_c, 1, 55, 127
2, 640, Note_on_c, 1, 67, 127
2, 800, Note_off_c, 1, 55, 0
2, 800, Note_off_c, 1, 67, 0
2, 880, Note_on_c, 1, 50, 127
2, 880, Note_on_c, 1, 55, 127
2, 880, Note_on_c, 1, 58, 127
2, 880, Note_on_c, 1, 62, 127
2, 1440, Note_off_c, 1, 50, 0
2, 1440, Note_off_c, 1, 55, 0
2, 1440, Note_off_c, 1, 58, 0
2, 1440, Note_off_c, 1, 62, 0
2, 3640, Note_on_c, 1, 62, 127
2, 3640, Note_on_c, 1, 77, 127
2, 3640, Note_on_c, 1, 82, 127
2, 3960, Note_off_c, 1, 62, 0
2, 3960, Note_off_c, 1, 77, 0
2, 3960, Note_off_c, 1, 82, 0
2, 4000, Note_on_c, 1, 62, 127
2, 4000, Note_on_c, 1, 68, 127
2, 4000, Note_on_c, 1, 77, 127
2, 4360, Note_off_c, 1, 62, 0
2, 4400, Note_on_c, 1, 65, 127
2, 4720, Note_off_c, 1, 65, 0
2, 4720, Note_off_c, 1, 68, 0
2, 4720, Note_off_c, 1, 77, 0
2, 4760, Note_on_c, 1, 48, 127
2, 4760, Note_on_c, 1, 70, 127
2, 4760, Note_on_c, 1, 74, 127
2, 5120, Note_off_c, 1, 48, 0
2, 5160, Note_on_c, 1, 50, 127
2, 5520, Note_off_c, 1, 50, 0
2, 5560, Note_off_c, 1, 70, 0
2, 5560, Note_off_c, 1, 74, 0
2, 5600, Note_on_c, 1, 50, 127
2, 5600, Note_on_c, 1, 70, 127
2, 5600, Note_on_c, 1, 74, 127
2, 5920, Note_off_c, 1, 50, 0
2, 5960, Note_on_c, 1, 46, 127
2, 6280, Note_off_c, 1, 46, 0
2, 6280, Note_on_c, 1, 73, 127
2, 6280, Note_off_c, 1, 74, 0
2, 6320, Note_on_c, 1, 51, 127
2, 6320, Note_on_c, 1, 67, 127
2, 6320, Note_off_c, 1, 73, 0
2, 6680, Note_off_c, 1, 51, 0
2, 6720, Note_on_c, 1, 51, 127
2, 6720, Note_off_c, 1, 70, 0
2, 6720, Note_on_c, 1, 73, 127
2, 7040, Note_off_c, 1, 51, 0
2, 7040, Note_off_c, 1, 67, 0
2, 7040, Note_off_c, 1, 73, 0
2, 7080, Note_on_c, 1, 58, 127
2, 7080, Note_on_c, 1, 61, 127
2, 7080, Note_on_c, 1, 68, 127
2, 7080, Note_on_c, 1, 75, 127
2, 7400, Note_off_c, 1, 58, 0
2, 7400, Note_off_c, 1, 61, 0
2, 7400, Note_off_c, 1, 68, 0
2, 7400, Note_off_c, 1, 75, 0
2, 7440, Note_on_c, 1, 58, 127
2, 7440, Note_on_c, 1, 61, 127
2, 7440, Note_on_c, 1, 68, 127
2, 7440, Note_on_c, 1, 75, 127
2, 7480, Note_off_c, 1, 58, 0
2, 7480, Note_off_c, 1, 61, 0
2, 7480, Note_off_c, 1, 68, 0
2, 7520, Note_on_c, 1, 58, 127
2, 7520, Note_on_c, 1, 67, 127
2, 7880, Note_off_c, 1, 58, 0
2, 7920, Note_on_c, 1, 48, 127
2, 7920, Note_on_c, 1, 74, 127
2, 7920, Note_off_c, 1, 75, 0
2, 8240, Note_off_c, 1, 48, 0
2, 8280, Note_on_c, 1, 48, 127
2, 8640, Note_off_c, 1, 48, 0
2, 8640, Note_off_c, 1, 67, 0
2, 8640, Note_off_c, 1, 74, 0
2, 8680, Note_on_c, 1, 51, 127
2, 8680, Note_on_c, 1, 67, 127
2, 8680, Note_on_c, 1, 75, 127
2, 9440, Note_off_c, 1, 51, 0
2, 9440, Note_off_c, 1, 67, 0
2, 9440, Note_off_c, 1, 75, 0
2, 9480, Note_on_c, 1, 51, 127
2, 9480, Note_on_c, 1, 67, 127
2, 9480, Note_on_c, 1, 75, 127
2, 10560, Note_off_c, 1, 51, 0
2, 10560, Note_off_c, 1, 67, 0
2, 10560, Note_off_c, 1, 75, 0
2, 10600, Note_on_c, 1, 63, 127
2, 10600, Note_on_c, 1, 67, 127
2, 10600, Note_on_c, 1, 70, 127
2, 11680, Note_off_c, 1, 63, 0
2, 11680, Note_off_c, 1, 67, 0
2, 11680, Note_off_c, 1, 70, 0
2, 11720, Note_on_c, 1, 63, 127
2, 11720, Note_on_c, 1, 67, 127
2, 11720, Note_on_c, 1, 70, 127
2, 12560, Note_off_c, 1, 63, 0
2, 12560, Note_off_c, 1, 67, 0
2, 12560, Note_off_c, 1, 70, 0
2, 13400, Note_on_c, 1, 37, 127
2, 13400, Note_on_c, 1, 49, 127
2, 14040, Note_off_c, 1, 37, 0
2, 14040, Note_off_c, 1, 49, 0
2, 14080, Note_on_c, 1, 37, 127
2, 14080, Note_on_c, 1, 49, 127
2, 14560, Note_off_c, 1, 37, 0
2, 14560, Note_off_c, 1, 49, 0
2, 14600, Note_on_c, 1, 34, 127
2, 14600, Note_on_c, 1, 46, 127
2, 15240, Note_off_c, 1, 34, 0
2, 15240, Note_off_c, 1, 46, 0
2, 15280, Note_on_c, 1, 33, 127
2, 15280, Note_on_c, 1, 45, 127
2, 16000, Note_off_c, 1, 33, 0
2, 16000, Note_off_c, 1, 45, 0
2, 16040, Note_on_c, 1, 34, 127
2, 16040, Note_on_c, 1, 46, 127
2, 16400, Note_off_c, 1, 34, 0
2, 16400, Note_off_c, 1, 46, 0
2, 16480, Note_on_c, 1, 63, 127
2, 16480, Note_on_c, 1, 67, 127
2, 17000, Note_off_c, 1, 63, 0
2, 17000, Note_off_c, 1, 67, 0
2, 17040, Note_on_c, 1, 65, 127
2, 17040, Note_on_c, 1, 71, 127
2, 17200, Note_off_c, 1, 65, 0
2, 17200, Note_off_c, 1, 71, 0
2, 17240, Note_on_c, 1, 67, 127
2, 17240, Note_on_c, 1, 74, 127
2, 17960, Note_off_c, 1, 67, 0
2, 17960, Note_off_c, 1, 74, 0
2, 18000, Note_on_c, 1, 67, 127
2, 18000, Note_on_c, 1, 70, 127
2, 18000, Note_on_c, 1, 82, 127
2, 18560, Note_off_c, 1, 82, 0
2, 18600, Note_off_c, 1, 67, 0
2, 18600, Note_off_c, 1, 70, 0
2, 18640, Note_on_c, 1, 67, 127
2, 18640, Note_on_c, 1, 70, 127
2, 18640, Note_on_c, 1, 82, 127
2, 19160, Note_off_c, 1, 67, 0
2, 19160, Note_off_c, 1, 70, 0
2, 19160, Note_off_c, 1, 82, 0
2, 19200, Note_on_c, 1, 65, 127
2, 19200, Note_on_c, 1, 80, 127
2, 19560, Note_off_c, 1, 65, 0
2, 19560, Note_off_c, 1, 80, 0
2, 19600, Note_on_c, 1, 67, 127
2, 19600, Note_on_c, 1, 82, 127
2, 19960, Note_off_c, 1, 67, 0
2, 19960, Note_off_c, 1, 82, 0
2, 20000, Note_on_c, 1, 68, 127
2, 20000, Note_on_c, 1, 84, 127
2, 20320, Note_off_c, 1, 68, 0
2, 20320, Note_off_c, 1, 84, 0
2, 20360, Note_on_c, 1, 67, 127
2, 20360, Note_on_c, 1, 82, 127
2, 20760, Note_off_c, 1, 67, 0
2, 20760, Note_off_c, 1, 82, 0
2, 20840, Note_on_c, 1, 65, 127
2, 20840, Note_on_c, 1, 81, 127
2, 20880, Note_on_c, 1, 80, 127
2, 20880, Note_off_c, 1, 81, 0
2, 20920, Note_off_c, 1, 80, 0
2, 20920, Note_on_c, 1, 81, 127
2, 21160, Note_off_c, 1, 65, 0
2, 21160, Note_off_c, 1, 81, 0
2, 21200, Note_on_c, 1, 67, 127
2, 21200, Note_on_c, 1, 82, 127
2, 21520, Note_off_c, 1, 67, 0
2, 21520, Note_off_c, 1, 82, 0
2, 21560, Note_on_c, 1, 68, 127
2, 21560, Note_on_c, 1, 72, 127
2, 21560, Note_on_c, 1, 84, 127
2, 21920, Note_off_c, 1, 68, 0
2, 21960, Note_on_c, 1, 63, 127
2, 22280, Note_off_c, 1, 63, 0
2, 22280, Note_off_c, 1, 72, 0
2, 22280, Note_off_c, 1, 84, 0
2, 22320, Note_on_c, 1, 67, 127
2, 22320, Note_on_c, 1, 70, 127
2, 22320, Note_on_c, 1, 82, 127
2, 22840, Note_off_c, 1, 70, 0
2, 22840, Note_off_c, 1, 82, 0
2, 22840, Note_on_c, 1, 84, 127
2, 22880, Note_on_c, 1, 70, 127
2, 22880, Note_on_c, 1, 82, 127
2, 22880, Note_off_c, 1, 84, 0
2, 23040, Note_off_c, 1, 67, 0
2, 23040, Note_off_c, 1, 70, 0
2, 23040, Note_off_c, 1, 82, 0
2, 23520, Note_on_c, 1, 84, 127
2, 23880, Note_on_c, 1, 64, 127
2, 24240, Note_off_c, 1, 64, 0
2, 24240, Note_off_c, 1, 84, 0
2, 24280, Note_on_c, 1, 67, 127
2, 24280, Note_on_c, 1, 82, 127
2, 24600, Note_off_c, 1, 67, 0
2, 24600, Note_off_c, 1, 82, 0
2, 24640, Note_on_c, 1, 68, 127
2, 24640, Note_on_c, 1, 84, 127
2, 24960, Note_off_c, 1, 68, 0
2, 24960, Note_off_c, 1, 84, 0
2, 25000, Note_on_c, 1, 67, 127
2, 25000, Note_on_c, 1, 82, 127
2, 25200, Note_off_c, 1, 67, 0
2, 25200, Note_off_c, 1, 82, 0
2, 25240, Note_on_c, 1, 67, 127
2, 25240, Note_on_c, 1, 82, 127
2, 25360, Note_off_c, 1, 67, 0
2, 25360, Note_off_c, 1, 82, 0
2, 25400, Note_on_c, 1, 63, 127
2, 25400, Note_on_c, 1, 80, 127
2, 25720, Note_off_c, 1, 63, 0
2, 25720, Note_off_c, 1, 80, 0
2, 25760, Note_on_c, 1, 67, 127
2, 25760, Note_on_c, 1, 81, 127
2, 26080, Note_off_c, 1, 67, 0
2, 26080, Note_off_c, 1, 81, 0
2, 26120, Note_on_c, 1, 60, 127
2, 26120, Note_on_c, 1, 80, 127
2, 26440, Note_off_c, 1, 60, 0
2, 26440, Note_off_c, 1, 80, 0
2, 26480, Note_on_c, 1, 64, 127
2, 26480, Note_on_c, 1, 86, 127
2, 26800, Note_off_c, 1, 64, 0
2, 26840, Note_on_c, 1, 67, 127
2, 27040, Note_off_c, 1, 86, 0
2, 27040, Note_on_c, 1, 89, 127
2, 27120, Note_off_c, 1, 67, 0
2, 27120, Note_off_c, 1, 89, 0
2, 27160, Note_on_c, 1, 67, 127
2, 27160, Note_on_c, 1, 89, 127
2, 27200, Note_off_c, 1, 67, 0
2, 27240, Note_on_c, 1, 60, 127
2, 27440, Note_on_c, 1, 87, 127
2, 27440, Note_off_c, 1, 89, 0
2, 27560, Note_off_c, 1, 60, 0
2, 27600, Note_on_c, 1, 66, 127
2, 27960, Note_off_c, 1, 66, 0
2, 28000, Note_on_c, 1, 65, 127
2, 28320, Note_off_c, 1, 65, 0
2, 28320, Note_off_c, 1, 87, 0
2, 28360, Note_on_c, 1, 66, 127
2, 28360, Note_on_c, 1, 83, 127
2, 28680, Note_off_c, 1, 66, 0
2, 28680, Note_off_c, 1, 83, 0
2, 28720, Note_on_c, 1, 75, 127
2, 28720, Note_on_c, 1, 84, 127
2, 29080, Note_off_c, 1, 75, 0
2, 29080, Note_off_c, 1, 84, 0
2, 29120, Note_on_c, 1, 56, 127
2, 29120, Note_on_c, 1, 75, 127
2, 29120, Note_on_c, 1, 84, 127
2, 29480, Note_off_c, 1, 56, 0
2, 29480, Note_off_c, 1, 75, 0
2, 29480, Note_off_c, 1, 84, 0
2, 29520, Note_on_c, 1, 63, 127
2, 29840, Note_off_c, 1, 63, 0
2, 29880, Note_on_c, 1, 72, 127
2, 29880, Note_on_c, 1, 80, 127
2, 30560, Note_off_c, 1, 72, 0
2, 30560, Note_off_c, 1, 80, 0
2, 30600, Note_on_c, 1, 58, 127
2, 30920, Note_off_c, 1, 58, 0
2, 30960, Note_on_c, 1, 68, 127
2, 30960, Note_on_c, 1, 79, 127
2, 31200, Note_off_c, 1, 68, 0
2, 31200, Note_off_c, 1, 79, 0
2, 31240, Note_on_c, 1, 68, 127
2, 31240, Note_on_c, 1, 79, 127
2, 31720, Note_off_c, 1, 68, 0
2, 31720, Note_off_c, 1, 79, 0
2, 31760, Note_on_c, 1, 63, 127
2, 31760, Note_on_c, 1, 79, 127
2, 32080, Note_off_c, 1, 63, 0
2, 32080, Note_off_c, 1, 79, 0
2, 32120, Note_on_c, 1, 61, 127
2, 32120, Note_on_c, 1, 77, 127
2, 32440, Note_off_c, 1, 61, 0
2, 32440, Note_off_c, 1, 77, 0
2, 32480, Note_on_c, 1, 67, 127
2, 32480, Note_on_c, 1, 79, 127
2, 32840, Note_off_c, 1, 67, 0
2, 32880, Note_on_c, 1, 58, 127
2, 33200, Note_off_c, 1, 58, 0
2, 33200, Note_off_c, 1, 79, 0
2, 33240, Note_on_c, 1, 61, 127
2, 33440, Note_off_c, 1, 61, 0
2, 33480, Note_on_c, 1, 61, 127
2, 33600, Note_off_c, 1, 61, 0
2, 33640, Note_on_c, 1, 65, 127
2, 33640, Note_on_c, 1, 79, 127
2, 33960, Note_off_c, 1, 65, 0
2, 33960, Note_off_c, 1, 79, 0
2, 34000, Note_on_c, 1, 59, 127
2, 34000, Note_on_c, 1, 75, 127
2, 34320, Note_off_c, 1, 59, 0
2, 34320, Note_off_c, 1, 75, 0
2, 34360, Note_on_c, 1, 58, 127
2, 34720, Note_off_c, 1, 58, 0
2, 34760, Note_on_c, 1, 58, 127
2, 35080, Note_off_c, 1, 58, 0
2, 35120, Note_on_c, 1, 63, 127
2, 35120, Note_on_c, 1, 82, 127
2, 35280, Note_off_c, 1, 82, 0
2, 35320, Note_off_c, 1, 63, 0
2, 35360, Note_on_c, 1, 63, 127
2, 35360, Note_on_c, 1, 84, 127
2, 35480, Note_off_c, 1, 63, 0
2, 35480, Note_off_c, 1, 84, 0
2, 35520, Note_on_c, 1, 58, 127
2, 35520, Note_on_c, 1, 82, 127
2, 35840, Note_off_c, 1, 82, 0
2, 35880, Note_on_c, 1, 82, 127
2, 36200, Note_off_c, 1, 58, 0
2, 36240, Note_on_c, 1, 63, 127
2, 37000, Note_on_c, 1, 58, 127
2, 37000, Note_off_c, 1, 63, 0
2, 37040, Note_on_c, 1, 81, 127
2, 37040, Note_off_c, 1, 82, 0
2, 37120, Note_off_c, 1, 81, 0
2, 37160, Note_off_c, 1, 58, 0
2, 37160, Note_on_c, 1, 62, 127
2, 37160, Note_on_c, 1, 82, 127
2, 37360, Note_off_c, 1, 62, 0
2, 37360, Note_on_c, 1, 65, 127
2, 37440, Note_off_c, 1, 65, 0
2, 37440, Note_off_c, 1, 82, 0
2, 37480, Note_on_c, 1, 65, 127
2, 37480, Note_on_c, 1, 82, 127
2, 37560, Note_on_c, 1, 62, 127
2, 37560, Note_off_c, 1, 65, 0
2, 37720, Note_off_c, 1, 62, 0
2, 37720, Note_off_c, 1, 82, 0
2, 37760, Note_on_c, 1, 63, 127
2, 37760, Note_on_c, 1, 85, 127
2, 38120, Note_off_c, 1, 85, 0
2, 38120, Note_on_c, 1, 86, 127
2, 38320, Note_off_c, 1, 86, 0
2, 38320, Note_on_c, 1, 87, 127
2, 38480, Note_off_c, 1, 63, 0
2, 38480, Note_off_c, 1, 87, 0
2, 38520, Note_on_c, 1, 63, 127
2, 38520, Note_on_c, 1, 86, 127
2, 38720, Note_off_c, 1, 86, 0
2, 38720, Note_on_c, 1, 87, 127
2, 38840, Note_off_c, 1, 63, 0
2, 38880, Note_on_c, 1, 55, 127
2, 39240, Note_off_c, 1, 55, 0
2, 39280, Note_on_c, 1, 58, 127
2, 39480, Note_off_c, 1, 58, 0
2, 39480, Note_off_c, 1, 87, 0
2, 39520, Note_on_c, 1, 58, 127
2, 39520, Note_on_c, 1, 87, 127
2, 39560, Note_on_c, 1, 85, 127
2, 39560, Note_off_c, 1, 87, 0
2, 39640, Note_off_c, 1, 58, 0
2, 39680, Note_on_c, 1, 63, 127
2, 40000, Note_off_c, 1, 63, 0
2, 40000, Note_off_c, 1, 85, 0
2, 40040, Note_on_c, 1, 83, 127
2, 40400, Note_on_c, 1, 56, 127
2, 40760, Note_off_c, 1, 56, 0
2, 40800, Note_on_c, 1, 65, 127
2, 41120, Note_off_c, 1, 65, 0
2, 41120, Note_off_c, 1, 83, 0
2, 41160, Note_on_c, 1, 63, 127
2, 41160, Note_on_c, 1, 83, 127
2, 41480, Note_off_c, 1, 63, 0
2, 41520, Note_on_c, 1, 58, 127
2, 41640, Note_off_c, 1, 58, 0
2, 41640, Note_off_c, 1, 83, 0
2, 41680, Note_on_c, 1, 58, 127
2, 41680, Note_on_c, 1, 83, 127
2, 41880, Note_off_c, 1, 58, 0
2, 41920, Note_on_c, 1, 61, 127
2, 41960, Note_off_c, 1, 83, 0
2, 42000, Note_on_c, 1, 82, 127
2, 42080, Note_off_c, 1, 82, 0
2, 42120, Note_on_c, 1, 83, 127
2, 42280, Note_off_c, 1, 61, 0
2, 42280, Note_off_c, 1, 83, 0
2, 42320, Note_on_c, 1, 87, 127
2, 42680, Note_on_c, 1, 59, 127
2, 43000, Note_off_c, 1, 59, 0
2, 43040, Note_on_c, 1, 63, 127
2, 43400, Note_off_c, 1, 63, 0
2, 43400, Note_off_c, 1, 87, 0
2, 43440, Note_on_c, 1, 61, 127
2, 43440, Note_on_c, 1, 83, 127
2, 43640, Note_off_c, 1, 61, 0
2, 43640, Note_off_c, 1, 83, 0
2, 43680, Note_on_c, 1, 61, 127
2, 43680, Note_on_c, 1, 83, 127
2, 43800, Note_off_c, 1, 61, 0
2, 43840, Note_on_c, 1, 56, 127
2, 44200, Note_off_c, 1, 56, 0
2, 44240, Note_on_c, 1, 61, 127
2, 44520, Note_off_c, 1, 61, 0
2, 44560, Note_on_c, 1, 59, 127
2, 44960, Note_off_c, 1, 59, 0
2, 44960, Note_on_c, 1, 64, 127
2, 45320, Note_on_c, 1, 54, 127
2, 45320, Note_off_c, 1, 64, 0
2, 45320, Note_on_c, 1, 82, 127
2, 45320, Note_off_c, 1, 83, 0
2, 45520, Note_off_c, 1, 54, 0
2, 45520, Note_on_c, 1, 63, 127
2, 45640, Note_off_c, 1, 63, 0
2, 45640, Note_off_c, 1, 82, 0
2, 45680, Note_on_c, 1, 63, 127
2, 45680, Note_on_c, 1, 82, 127
2, 45920, Note_on_c, 1, 56, 127
2, 45920, Note_off_c, 1, 63, 0
2, 45920, Note_off_c, 1, 82, 0
2, 45920, Note_on_c, 1, 85, 127
2, 46080, Note_off_c, 1, 56, 0
2, 46080, Note_on_c, 1, 58, 127
2, 46120, Note_off_c, 1, 58, 0
2, 46120, Note_on_c, 1, 61, 127
2, 46440, Note_off_c, 1, 85, 0
2, 46480, Note_off_c, 1, 61, 0
2, 46480, Note_on_c, 1, 63, 127
2, 46480, Note_on_c, 1, 81, 127
2, 46800, Note_off_c, 1, 63, 0
2, 46840, Note_on_c, 1, 66, 127
2, 47160, Note_off_c, 1, 66, 0
2, 47200, Note_on_c, 1, 59, 127
2, 47360, Note_off_c, 1, 81, 0
2, 47400, Note_on_c, 1, 80, 127
2, 47520, Note_off_c, 1, 59, 0
2, 47520, Note_off_c, 1, 80, 0
2, 47560, Note_on_c, 1, 63, 127
2, 47560, Note_on_c, 1, 78, 127
2, 47840, Note_off_c, 1, 63, 0
2, 47840, Note_off_c, 1, 78, 0
2, 47880, Note_on_c, 1, 63, 127
2, 47880, Note_on_c, 1, 78, 127
2, 48320, Note_off_c, 1, 63, 0
2, 48360, Note_on_c, 1, 61, 127
2, 48680, Note_off_c, 1, 61, 0
2, 48720, Note_on_c, 1, 63, 127
2, 49040, Note_off_c, 1, 63, 0
2, 49040, Note_off_c, 1, 78, 0
2, 49080, Note_on_c, 1, 59, 127
2, 49080, Note_on_c, 1, 76, 127
2, 49240, Note_off_c, 1, 76, 0
2, 49440, Note_on_c, 1, 76, 127
2, 49600, Note_off_c, 1, 76, 0
2, 49640, Note_on_c, 1, 74, 127
2, 49760, Note_off_c, 1, 74, 0
2, 49800, Note_off_c, 1, 59, 0
2, 49840, Note_on_c, 1, 59, 127
2, 49840, Note_on_c, 1, 80, 127
2, 50000, Note_off_c, 1, 80, 0
2, 50040, Note_on_c, 1, 78, 127
2, 50200, Note_off_c, 1, 59, 0
2, 50200, Note_off_c, 1, 78, 0
2, 50240, Note_on_c, 1, 64, 127
2, 50240, Note_on_c, 1, 80, 127
2, 50360, Note_off_c, 1, 80, 0
2, 50400, Note_on_c, 1, 76, 127
2, 50560, Note_off_c, 1, 76, 0
2, 50600, Note_on_c, 1, 75, 127
2, 50760, Note_off_c, 1, 75, 0
2, 50800, Note_on_c, 1, 76, 127
2, 50920, Note_off_c, 1, 76, 0
2, 50960, Note_off_c, 1, 64, 0
2, 50960, Note_on_c, 1, 68, 127
2, 50960, Note_on_c, 1, 75, 127
2, 51120, Note_off_c, 1, 75, 0
2, 51160, Note_on_c, 1, 73, 127
2, 51280, Note_off_c, 1, 73, 0
2, 51320, Note_on_c, 1, 80, 127
2, 51480, Note_off_c, 1, 80, 0
2, 51520, Note_off_c, 1, 68, 0
2, 51520, Note_on_c, 1, 70, 127
2, 51640, Note_off_c, 1, 70, 0
2, 51640, Note_on_c, 1, 71, 127
2, 51680, Note_on_c, 1, 65, 127
2, 51760, Note_off_c, 1, 65, 0
2, 51760, Note_off_c, 1, 71, 0
2, 51800, Note_on_c, 1, 65, 127
2, 51800, Note_on_c, 1, 71, 127
2, 51880, Note_off_c, 1, 71, 0
2, 51920, Note_on_c, 1, 80, 127
2, 52080, Note_off_c, 1, 65, 0
2, 52120, Note_on_c, 1, 59, 127
2, 52240, Note_off_c, 1, 80, 0
2, 52280, Note_on_c, 1, 80, 127
2, 52440, Note_off_c, 1, 59, 0
2, 52440, Note_off_c, 1, 80, 0
2, 52480, Note_on_c, 1, 64, 127
2, 52480, Note_on_c, 1, 76, 127
2, 52640, Note_off_c, 1, 76, 0
2, 52680, Note_on_c, 1, 75, 127
2, 52800, Note_off_c, 1, 75, 0
2, 52840, Note_on_c, 1, 73, 127
2, 53000, Note_off_c, 1, 73, 0
2, 53040, Note_on_c, 1, 76, 127
2, 53160, Note_off_c, 1, 64, 0
2, 53160, Note_off_c, 1, 76, 0
2, 53200, Note_on_c, 1, 68, 127
2, 53200, Note_on_c, 1, 75, 127
2, 53320, Note_off_c, 1, 75, 0
2, 53360, Note_on_c, 1, 75, 127
2, 53520, Note_off_c, 1, 75, 0
2, 53560, Note_on_c, 1, 73, 127
2, 53760, Note_off_c, 1, 68, 0
2, 53760, Note_off_c, 1, 73, 0
2, 53800, Note_on_c, 1, 68, 127
2, 53800, Note_on_c, 1, 73, 127
2, 53920, Note_off_c, 1, 68, 0
2, 53960, Note_on_c, 1, 64, 127
2, 54280, Note_off_c, 1, 64, 0
2, 54320, Note_on_c, 1, 68, 127
2, 54640, Note_off_c, 1, 68, 0
2, 54680, Note_on_c, 1, 64, 127
2, 55000, Note_off_c, 1, 64, 0
2, 55000, Note_off_c, 1, 73, 0
2, 55040, Note_on_c, 1, 68, 127
2, 55040, Note_on_c, 1, 75, 127
2, 55360, Note_off_c, 1, 68, 0
2, 55400, Note_on_c, 1, 60, 127
2, 55720, Note_off_c, 1, 60, 0
2, 55720, Note_off_c, 1, 75, 0
2, 55760, Note_on_c, 1, 68, 127
2, 55760, Note_on_c, 1, 75, 127
2, 55880, Note_off_c, 1, 68, 0
2, 55880, Note_off_c, 1, 75, 0
2, 55920, Note_on_c, 1, 68, 127
2, 55920, Note_on_c, 1, 75, 127
2, 56520, Note_off_c, 1, 68, 0
2, 56520, Note_off_c, 1, 75, 0
2, 56560, Note_on_c, 1, 73, 127
2, 56880, Note_off_c, 1, 73, 0
2, 56920, Note_on_c, 1, 69, 127
2, 56920, Note_on_c, 1, 73, 127
2, 57240, Note_off_c, 1, 69, 0
2, 57240, Note_off_c, 1, 73, 0
2, 57280, Note_on_c, 1, 68, 127
2, 57280, Note_on_c, 1, 71, 127
2, 57600, Note_off_c, 1, 68, 0
2, 57600, Note_off_c, 1, 71, 0
2, 58040, Note_on_c, 1, 57, 127
2, 58040, Note_on_c, 1, 61, 127
2, 58040, Note_on_c, 1, 78, 127
2, 58560, Note_off_c, 1, 57, 0
2, 58560, Note_on_c, 1, 70, 127
2, 58560, Note_off_c, 1, 78, 0
2, 58600, Note_on_c, 1, 60, 127
2, 58600, Note_off_c, 1, 61, 0
2, 58600, Note_on_c, 1, 78, 127
2, 58760, Note_off_c, 1, 60, 0
2, 58760, Note_off_c, 1, 70, 0
2, 58760, Note_off_c, 1, 78, 0
2, 58800, Note_on_c, 1, 68, 127
2, 58800, Note_on_c, 1, 76, 127
2, 58920, Note_off_c, 1, 68, 0
2, 58920, Note_off_c, 1, 76, 0
2, 59520, Note_on_c, 1, 56, 127
2, 59520, Note_on_c, 1, 61, 127
2, 59520, Note_on_c, 1, 78, 127
2, 59520, Note_on_c, 1, 85, 127
2, 59880, Note_off_c, 1, 56, 0
2, 59880, Note_off_c, 1, 61, 0
2, 59880, Note_off_c, 1, 78, 0
2, 59880, Note_off_c, 1, 85, 0
2, 59920, Note_on_c, 1, 66, 127
2, 59920, Note_on_c, 1, 68, 127
2, 59920, Note_on_c, 1, 78, 127
2, 60000, Note_off_c, 1, 66, 0
2, 60000, Note_off_c, 1, 68, 0
2, 60000, Note_off_c, 1, 78, 0
2, 60320, Note_on_c, 1, 66, 127
2, 60320, Note_on_c, 1, 69, 127
2, 60320, Note_on_c, 1, 83, 127
2, 60640, Note_off_c, 1, 66, 0
2, 60640, Note_off_c, 1, 69, 0
2, 60640, Note_off_c, 1, 83, 0
2, 60680, Note_on_c, 1, 63, 127
2, 60680, Note_on_c, 1, 71, 127
2, 60680, Note_on_c, 1, 78, 127
2, 61000, Note_off_c, 1, 63, 0
2, 61000, Note_off_c, 1, 71, 0
2, 61000, Note_off_c, 1, 78, 0
2, 61040, Note_on_c, 1, 60, 127
2, 61040, Note_on_c, 1, 68, 127
2, 61040, Note_on_c, 1, 76, 127
2, 61280, Note_off_c, 1, 60, 0
2, 61280, Note_off_c, 1, 68, 0
2, 61280, Note_off_c, 1, 76, 0
2, 61400, Note_on_c, 1, 60, 127
2, 61400, Note_on_c, 1, 68, 127
2, 61400, Note_on_c, 1, 75, 127
2, 61680, Note_off_c, 1, 60, 0
2, 61680, Note_off_c, 1, 68, 0
2, 61680, Note_off_c, 1, 75, 0
2, 61760, Note_on_c, 1, 56, 127
2, 61760, Note_on_c, 1, 68, 127
2, 61760, Note_on_c, 1, 72, 127
2, 62000, Note_off_c, 1, 56, 0
2, 62000, Note_off_c, 1, 68, 0
2, 62000, Note_off_c, 1, 72, 0
2, 62040, Note_on_c, 1, 56, 127
2, 62040, Note_on_c, 1, 68, 127
2, 62040, Note_on_c, 1, 72, 127
2, 62120, Note_off_c, 1, 56, 0
2, 62120, Note_off_c, 1, 68, 0
2, 62120, Note_off_c, 1, 72, 0
2, 62160, Note_on_c, 1, 68, 127
2, 62160, Note_on_c, 1, 75, 127
2, 62160, Note_on_c, 1, 77, 127
2, 62160, Note_on_c, 1, 80, 127
2, 62520, Note_off_c, 1, 68, 0
2, 62520, Note_off_c, 1, 75, 0
2, 62520, Note_off_c, 1, 77, 0
2, 62520, Note_off_c, 1, 80, 0
2, 62560, Note_on_c, 1, 48, 127
2, 62880, Note_off_c, 1, 48, 0
2, 62920, Note_on_c, 1, 49, 127
2, 62920, Note_on_c, 1, 66, 127
2, 62920, Note_on_c, 1, 72, 127
2, 62920, Note_on_c, 1, 75, 127
2, 63280, Note_off_c, 1, 49, 0
2, 63280, Note_off_c, 1, 66, 0
2, 63280, Note_off_c, 1, 72, 0
2, 63280, Note_off_c, 1, 75, 0
2, 63320, Note_on_c, 1, 49, 127
2, 63480, Note_on_c, 1, 73, 127
2, 63640, Note_off_c, 1, 49, 0
2, 63680, Note_on_c, 1, 52, 127
2, 64000, Note_off_c, 1, 52, 0
2, 64000, Note_off_c, 1, 73, 0
2, 64040, Note_on_c, 1, 75, 127
2, 64040, Note_on_c, 1, 83, 127
2, 64240, Note_off_c, 1, 75, 0
2, 64240, Note_off_c, 1, 83, 0
2, 64280, Note_on_c, 1, 75, 127
2, 64280, Note_on_c, 1, 83, 127
2, 64400, Note_off_c, 1, 75, 0
2, 64400, Note_off_c, 1, 83, 0
2, 64440, Note_on_c, 1, 49, 127
2, 64440, Note_on_c, 1, 57, 127
2, 64440, Note_on_c, 1, 69, 127
2, 64600, Note_on_c, 1, 48, 127
2, 64600, Note_off_c, 1, 49, 0
2, 64600, Note_off_c, 1, 69, 0
2, 64640, Note_off_c, 1, 48, 0
2, 64640, Note_on_c, 1, 55, 127
2, 64640, Note_off_c, 1, 57, 0
2, 64640, Note_on_c, 1, 60, 127
2, 64640, Note_on_c, 1, 64, 127
2, 64640, Note_on_c, 1, 93, 127
2, 64680, Note_on_c, 1, 30, 127
2, 64680, Note_on_c, 1, 46, 127
2, 64680, Note_off_c, 1, 55, 0
2, 64680, Note_off_c, 1, 60, 0
2, 64680, Note_off_c, 1, 64, 0
2, 64680, Note_off_c, 1, 93, 0
2, 64720, Note_off_c, 1, 30, 0
2, 64720, Note_off_c, 1, 46, 0
2, 64720, Note_on_c, 1, 55, 127
2, 64720, Note_on_c, 1, 60, 127
2, 64720, Note_on_c, 1, 63, 127
2, 64720, Note_on_c, 1, 66, 127
2, 64720, Note_on_c, 1, 93, 127
2, 64760, Note_off_c, 1, 55, 0
2, 64760, Note_off_c, 1, 60, 0
2, 64760, Note_off_c, 1, 63, 0
2, 64760, Note_off_c, 1, 66, 0
2, 64760, Note_on_c, 1, 77, 127
2, 64760, Note_on_c, 1, 80, 127
2, 64760, Note_on_c, 1, 87, 127
2, 64760, Note_off_c, 1, 93, 0
2, 64800, Note_off_c, 1, 77, 0
2, 64800, Note_off_c, 1, 80, 0
2, 64800, Note_off_c, 1, 87, 0
2, 64840, Note_on_c, 1, 55, 127
2, 64840, Note_on_c, 1, 60, 127
2, 64840, Note_on_c, 1, 64, 127
2, 64840, Note_on_c, 1, 88, 127
2, 65160, Note_off_c, 1, 55, 0
2, 65160, Note_on_c, 1, 57, 127
2, 65160, Note_off_c, 1, 60, 0
2, 65160, Note_off_c, 1, 64, 0
2, 65160, Note_off_c, 1, 88, 0
2, 65200, Note_on_c, 1, 56, 127
2, 65200, Note_off_c, 1, 57, 0
2, 65200, Note_on_c, 1, 64, 127
2, 65200, Note_on_c, 1, 72, 127
2, 65200, Note_on_c, 1, 81, 127
2, 65520, Note_off_c, 1, 56, 0
2, 65520, Note_off_c, 1, 64, 0
2, 65520, Note_off_c, 1, 72, 0
2, 65520, Note_off_c, 1, 81, 0
2, 65560, Note_on_c, 1, 45, 127
2, 65560, Note_on_c, 1, 79, 127
2, 65880, Note_off_c, 1, 45, 0
2, 65920, Note_on_c, 1, 55, 127
2, 65920, Note_on_c, 1, 70, 127
2, 66280, Note_off_c, 1, 55, 0
2, 66280, Note_off_c, 1, 70, 0
2, 66280, Note_off_c, 1, 79, 0
2, 66360, Note_on_c, 1, 54, 127
2, 66360, Note_on_c, 1, 76, 127
2, 66360, Note_on_c, 1, 84, 127
2, 66640, Note_on_c, 1, 29, 127
2, 66640, Note_on_c, 1, 36, 127
2, 66640, Note_on_c, 1, 51, 127
2, 66640, Note_off_c, 1, 54, 0
2, 66640, Note_on_c, 1, 57, 127
2, 66640, Note_off_c, 1, 76, 0
2, 66640, Note_off_c, 1, 84, 0
2, 66680, Note_off_c, 1, 29, 0
2, 66680, Note_off_c, 1, 36, 0
2, 66680, Note_on_c, 1, 48, 127
2, 66680, Note_off_c, 1, 51, 0
2, 66680, Note_off_c, 1, 57, 0
2, 66680, Note_on_c, 1, 77, 127
2, 66720, Note_off_c, 1, 48, 0
2, 66720, Note_on_c, 1, 57, 127
2, 66720, Note_on_c, 1, 62, 127
2, 66720, Note_off_c, 1, 77, 0
2, 66720, Note_on_c, 1, 78, 127
2, 66720, Note_on_c, 1, 81, 127
2, 67840, Note_off_c, 1, 57, 0
2, 67840, Note_off_c, 1, 62, 0
2, 67840, Note_off_c, 1, 78, 0
2, 67840, Note_off_c, 1, 81, 0
2, 67880, Note_on_c, 1, 81, 127
2, 68240, Note_on_c, 1, 62, 127
2, 68240, Note_on_c, 1, 65, 127
2, 68240, Note_on_c, 1, 69, 127
2, 68240, Note_off_c, 1, 81, 0
2, 68240, Note_on_c, 1, 82, 127
2, 68400, Note_off_c, 1, 62, 0
2, 68400, Note_off_c, 1, 65, 0
2, 68400, Note_off_c, 1, 69, 0
2, 68400, Note_off_c, 1, 82, 0
2, 68440, Note_on_c, 1, 62, 127
2, 68440, Note_on_c, 1, 65, 127
2, 68440, Note_on_c, 1, 69, 127
2, 68440, Note_on_c, 1, 82, 127
2, 68640, Note_off_c, 1, 62, 0
2, 68640, Note_off_c, 1, 65, 0
2, 68640, Note_off_c, 1, 69, 0
2, 68640, Note_off_c, 1, 82, 0
2, 68680, Note_on_c, 1, 66, 127
2, 68680, Note_on_c, 1, 76, 127
2, 68680, Note_on_c, 1, 82, 127
2, 69360, Note_off_c, 1, 66, 0
2, 69360, Note_off_c, 1, 76, 0
2, 69360, Note_off_c, 1, 82, 0
2, 69400, Note_on_c, 1, 53, 127
2, 69400, Note_on_c, 1, 61, 127
2, 69400, Note_on_c, 1, 65, 127
2, 69400, Note_on_c, 1, 73, 127
2, 69400, Note_on_c, 1, 81, 127
2, 69400, Note_on_c, 1, 85, 127
2, 69600, Note_off_c, 1, 53, 0
2, 69600, Note_on_c, 1, 54, 127
2, 69600, Note_off_c, 1, 61, 0
2, 69600, Note_on_c, 1, 62, 127
2, 69600, Note_off_c, 1, 65, 0
2, 69600, Note_on_c, 1, 66, 127
2, 69600, Note_on_c, 1, 71, 127
2, 69600, Note_off_c, 1, 73, 0
2, 69600, Note_on_c, 1, 83, 127
2, 69600, Note_off_c, 1, 85, 0
2, 69680, Note_on_c, 1, 52, 127
2, 69680, Note_off_c, 1, 54, 0
2, 69680, Note_off_c, 1, 62, 0
2, 69680, Note_off_c, 1, 71, 0
2, 69680, Note_on_c, 1, 74, 127
2, 69680, Note_off_c, 1, 83, 0
2, 69720, Note_off_c, 1, 52, 0
2, 69720, Note_off_c, 1, 66, 0
2, 69720, Note_off_c, 1, 74, 0
2, 69720, Note_off_c, 1, 81, 0
2, 69760, Note_on_c, 1, 65, 127
2, 69760, Note_on_c, 1, 71, 127
2, 69760, Note_on_c, 1, 82, 127
2, 70200, Note_off_c, 1, 65, 0
2, 70200, Note_off_c, 1, 71, 0
2, 70200, Note_off_c, 1, 82, 0
2, 70520, Note_on_c, 1, 61, 127
2, 70520, Note_on_c, 1, 71, 127
2, 70520, Note_on_c, 1, 77, 127
2, 70880, Note_off_c, 1, 61, 0
2, 70880, Note_off_c, 1, 71, 0
2, 70880, Note_off_c, 1, 77, 0
2, 70920, Note_on_c, 1, 66, 127
2, 70920, Note_on_c, 1, 74, 127
2, 70920, Note_on_c, 1, 77, 127
2, 71240, Note_off_c, 1, 66, 0
2, 71240, Note_on_c, 1, 71, 127
2, 71240, Note_off_c, 1, 74, 0
2, 71280, Note_on_c, 1, 66, 127
2, 71280, Note_off_c, 1, 71, 0
2, 71280, Note_on_c, 1, 74, 127
2, 71600, Note_off_c, 1, 66, 0
2, 71600, Note_off_c, 1, 74, 0
2, 71600, Note_off_c, 1, 77, 0
2, 71640, Note_on_c, 1, 61, 127
2, 71640, Note_on_c, 1, 71, 127
2, 71640, Note_on_c, 1, 78, 127
2, 72440, Note_off_c, 1, 61, 0
2, 72440, Note_off_c, 1, 71, 0
2, 72440, Note_off_c, 1, 78, 0
2, 72480, Note_on_c, 1, 61, 127
2, 72480, Note_on_c, 1, 71, 127
2, 72480, Note_on_c, 1, 78, 127
2, 73160, Note_on_c, 1, 77, 127
2, 73160, Note_off_c, 1, 78, 0
2, 73560, Note_off_c, 1, 61, 0
2, 73560, Note_off_c, 1, 71, 0
2, 73560, Note_off_c, 1, 77, 0
2, 73600, Note_on_c, 1, 66, 127
2, 73600, Note_on_c, 1, 70, 127
2, 73960, Note_on_c, 1, 78, 127
2, 74280, Note_off_c, 1, 78, 0
2, 74320, Note_on_c, 1, 77, 127
2, 74680, Note_off_c, 1, 77, 0
2, 74720, Note_on_c, 1, 55, 127
2, 74720, Note_on_c, 1, 58, 127
2, 74720, Note_on_c, 1, 62, 127
2, 74720, Note_off_c, 1, 66, 0
2, 74720, Note_on_c, 1, 67, 127
2, 74800, Note_off_c, 1, 55, 0
2, 74800, Note_off_c, 1, 58, 0
2, 74800, Note_off_c, 1, 62, 0
2, 74800, Note_off_c, 1, 67, 0
2, 74800, Note_off_c, 1, 70, 0
2, 74840, Note_on_c, 1, 55, 127
2, 74840, Note_on_c, 1, 58, 127
2, 74840, Note_on_c, 1, 62, 127
2, 74840, Note_on_c, 1, 67, 127
2, 74840, Note_on_c, 1, 70, 127
2, 75120, Note_off_c, 1, 55, 0
2, 75120, Note_off_c, 1, 58, 0
2, 75120, Note_off_c, 1, 62, 0
2, 75120, Note_off_c, 1, 67, 0
2, 75120, Note_on_c, 1, 74, 127
2, 75160, Note_on_c, 1, 41, 127
2, 75160, Note_on_c, 1, 49, 127
2, 75160, Note_on_c, 1, 57, 127
2, 75160, Note_on_c, 1, 61, 127
2, 75160, Note_off_c, 1, 70, 0
2, 75160, Note_on_c, 1, 73, 127
2, 75160, Note_off_c, 1, 74, 0
2, 75400, Note_off_c, 1, 41, 0
2, 75400, Note_off_c, 1, 57, 0
2, 75440, Note_off_c, 1, 49, 0
2, 75440, Note_off_c, 1, 61, 0
2, 75440, Note_on_c, 1, 63, 127
2, 75440, Note_on_c, 1, 66, 127
2, 75440, Note_on_c, 1, 71, 127
2, 75440, Note_off_c, 1, 73, 0
2, 75440, Note_on_c, 1, 75, 127
2, 75440, Note_on_c, 1, 87, 127
2, 75480, Note_off_c, 1, 63, 0
2, 75480, Note_off_c, 1, 66, 0
2, 75480, Note_off_c, 1, 71, 0
2, 75480, Note_off_c, 1, 75, 0
2, 75480, Note_off_c, 1, 87, 0
2, 75520, Note_on_c, 1, 49, 127
2, 75520, Note_on_c, 1, 61, 127
2, 75520, Note_on_c, 1, 73, 127
2, 76240, Note_off_c, 1, 49, 0
2, 76240, Note_off_c, 1, 61, 0
2, 76240, Note_off_c, 1, 73, 0
2, 76280, Note_on_c, 1, 43, 127
2, 76280, Note_on_c, 1, 55, 127
2, 76280, Note_on_c, 1, 67, 127
2, 76600, Note_off_c, 1, 43, 0
2, 76600, Note_off_c, 1, 55, 0
2, 76600, Note_off_c, 1, 67, 0
2, 76640, Note_on_c, 1, 41, 127
2, 76640, Note_on_c, 1, 53, 127
2, 76640, Note_on_c, 1, 65, 127
2, 76960, Note_off_c, 1, 41, 0
2, 76960, Note_off_c, 1, 53, 0
2, 76960, Note_off_c, 1, 65, 0
2, 77000, Note_on_c, 1, 41, 127
2, 77000, Note_on_c, 1, 53, 127
2, 77000, Note_on_c, 1, 65, 127
2, 77040, Note_off_c, 1, 41, 0
2, 77040, Note_off_c, 1, 53, 0
2, 77040, Note_off_c, 1, 65, 0
2, 77080, Note_on_c, 1, 49, 127
2, 77080, Note_on_c, 1, 61, 127
2, 77080, Note_on_c, 1, 73, 127
2, 77240, Note_off_c, 1, 49, 0
2, 77240, Note_off_c, 1, 61, 0
2, 77240, Note_off_c, 1, 73, 0
2, 77440, Note_on_c, 1, 44, 127
2, 77440, Note_on_c, 1, 56, 127
2, 77440, Note_on_c, 1, 68, 127
2, 77760, Note_off_c, 1, 44, 0
2, 77760, Note_off_c, 1, 56, 0
2, 77760, Note_off_c, 1, 68, 0
2, 77800, Note_on_c, 1, 49, 127
2, 77800, Note_on_c, 1, 61, 127
2, 77800, Note_on_c, 1, 73, 127
2, 78120, Note_off_c, 1, 49, 0
2, 78120, Note_off_c, 1, 61, 0
2, 78120, Note_off_c, 1, 73, 0
2, 78520, Note_on_c, 1, 57, 127
2, 78520, Note_on_c, 1, 61, 127
2, 78520, Note_on_c, 1, 66, 127
2, 78520, Note_on_c, 1, 68, 127
2, 78520, Note_on_c, 1, 80, 127
2, 78520, Note_on_c, 1, 81, 127
2, 78560, Note_on_c, 1, 42, 127
2, 78560, Note_on_c, 1, 49, 127
2, 78560, Note_off_c, 1, 57, 0
2, 78560, Note_on_c, 1, 58, 127
2, 78560, Note_off_c, 1, 61, 0
2, 78560, Note_off_c, 1, 68, 0
2, 78560, Note_on_c, 1, 73, 127
2, 78560, Note_on_c, 1, 78, 127
2, 78560, Note_off_c, 1, 80, 0
2, 78560, Note_off_c, 1, 81, 0
2, 78600, Note_off_c, 1, 42, 0
2, 78600, Note_on_c, 1, 53, 127
2, 78600, Note_off_c, 1, 58, 0
2, 78600, Note_on_c, 1, 59, 127
2, 78600, Note_off_c, 1, 66, 0
2, 78600, Note_on_c, 1, 68, 127
2, 78600, Note_off_c, 1, 78, 0
2, 78640, Note_off_c, 1, 49, 0
2, 78640, Note_off_c, 1, 53, 0
2, 78640, Note_off_c, 1, 59, 0
2, 78640, Note_off_c, 1, 73, 0
2, 78640, Note_on_c, 1, 81, 127
2, 78640, Note_on_c, 1, 82, 127
2, 78680, Note_on_c, 1, 50, 127
2, 78680, Note_on_c, 1, 54, 127
2, 78680, Note_on_c, 1, 57, 127
2, 78680, Note_on_c, 1, 62, 127
2, 78680, Note_on_c, 1, 66, 127
2, 78680, Note_off_c, 1, 68, 0
2, 78680, Note_on_c, 1, 69, 127
2, 78680, Note_on_c, 1, 74, 127
2, 78680, Note_on_c, 1, 78, 127
2, 78680, Note_off_c, 1, 81, 0
2, 78680, Note_off_c, 1, 82, 0
2, 78720, Note_off_c, 1, 50, 0
2, 78720, Note_off_c, 1, 54, 0
2, 78720, Note_off_c, 1, 57, 0
2, 78720, Note_off_c, 1, 62, 0
2, 78720, Note_off_c, 1, 66, 0
2, 78720, Note_off_c, 1, 69, 0
2, 78720, Note_off_c, 1, 74, 0
2, 78720, Note_on_c, 1, 76, 127
2, 78720, Note_on_c, 1, 77, 127
2, 78720, Note_off_c, 1, 78, 0
2, 78720, Note_on_c, 1, 80, 127
2, 78760, Note_on_c, 1, 54, 127
2, 78760, Note_on_c, 1, 71, 127
2, 78760, Note_off_c, 1, 76, 0
2, 78760, Note_off_c, 1, 80, 0
2, 78800, Note_off_c, 1, 54, 0
2, 78800, Note_off_c, 1, 71, 0
2, 78800, Note_off_c, 1, 77, 0
2, 78920, Note_on_c, 1, 51, 127
2, 78920, Note_on_c, 1, 70, 127
2, 78920, Note_on_c, 1, 76, 127
2, 78920, Note_on_c, 1, 78, 127
2, 78920, Note_on_c, 1, 82, 127
2, 78960, Note_on_c, 1, 44, 127
2, 78960, Note_on_c, 1, 50, 127
2, 78960, Note_off_c, 1, 51, 0
2, 78960, Note_on_c, 1, 58, 127
2, 78960, Note_off_c, 1, 70, 0
2, 78960, Note_off_c, 1, 76, 0
2, 78960, Note_off_c, 1, 78, 0
2, 78960, Note_off_c, 1, 82, 0
2, 78960, Note_on_c, 1, 89, 127
2, 78960, Note_on_c, 1, 98, 127
2, 78960, Note_on_c, 1, 101, 127
2, 79000, Note_off_c, 1, 44, 0
2, 79000, Note_off_c, 1, 50, 0
2, 79000, Note_on_c, 1, 51, 127
2, 79000, Note_off_c, 1, 58, 0
2, 79000, Note_on_c, 1, 70, 127
2, 79000, Note_on_c, 1, 76, 127
2, 79000, Note_on_c, 1, 78, 127
2, 79000, Note_on_c, 1, 82, 127
2, 79000, Note_off_c, 1, 89, 0
2, 79000, Note_off_c, 1, 98, 0
2, 79000, Note_off_c, 1, 101, 0
2, 79120, Note_on_c, 1, 28, 127
2, 79120, Note_on_c, 1, 40, 127
2, 79120, Note_on_c, 1, 47, 127
2, 79120, Note_off_c, 1, 51, 0
2, 79120, Note_on_c, 1, 52, 127
2, 79120, Note_on_c, 1, 56, 127
2, 79120, Note_off_c, 1, 70, 0
2, 79120, Note_off_c, 1, 76, 0
2, 79120, Note_off_c, 1, 78, 0
2, 79120, Note_off_c, 1, 82, 0
2, 79160, Note_off_c, 1, 28, 0
2, 79160, Note_off_c, 1, 40, 0
2, 79160, Note_off_c, 1, 47, 0
2, 79160, Note_off_c, 1, 52, 0
2, 79160, Note_off_c, 1, 56, 0
2, 79200, Note_on_c, 1, 66, 127
2, 79200, Note_on_c, 1, 70, 127
2, 79200, Note_on_c, 1, 73, 127
2, 79200, Note_on_c, 1, 76, 127
2, 79240, Note_off_c, 1, 66, 0
2, 79240, Note_off_c, 1, 70, 0
2, 79240, Note_off_c, 1, 73, 0
2, 79240, Note_off_c, 1, 76, 0
2, 79360, Note_on_c, 1, 27, 127
2, 79360, Note_on_c, 1, 30, 127
2, 79360, Note_on_c, 1, 34, 127
2, 79360, Note_on_c, 1, 39, 127
2, 79360, Note_on_c, 1, 51, 127
2, 79360, Note_on_c, 1, 54, 127
2, 79360, Note_on_c, 1, 58, 127
2, 79360, Note_on_c, 1, 63, 127
2, 79680, Note_off_c, 1, 27, 0
2, 79680, Note_off_c, 1, 30, 0
2, 79680, Note_off_c, 1, 34, 0
2, 79680, Note_off_c, 1, 39, 0
2, 79680, Note_off_c, 1, 51, 0
2, 79680, Note_off_c, 1, 54, 0
2, 79680, Note_off_c, 1, 58, 0
2, 79680, Note_off_c, 1, 63, 0
2, 79720, Note_on_c, 1, 27, 127
2, 79720, Note_on_c, 1, 30, 127
2, 79720, Note_on_c, 1, 34, 127
2, 79720, Note_on_c, 1, 39, 127
2, 79720, Note_on_c, 1, 51, 127
2, 79720, Note_on_c, 1, 54, 127
2, 79720, Note_on_c, 1, 58, 127
2, 79720, Note_on_c, 1, 63, 127
2, 80040, Note_off_c, 1, 27, 0
2, 80040, Note_off_c, 1, 30, 0
2, 80040, Note_off_c, 1, 34, 0
2, 80040, Note_off_c, 1, 39, 0
2, 80040, Note_off_c, 1, 51, 0
2, 80040, Note_off_c, 1, 54, 0
2, 80040, Note_off_c, 1, 58, 0
2, 80040, Note_off_c, 1, 63, 0
2, 80080, Note_on_c, 1, 27, 127
2, 80080, Note_on_c, 1, 30, 127
2, 80080, Note_on_c, 1, 34, 127
2, 80080, Note_on_c, 1, 39, 127
2, 80080, Note_on_c, 1, 51, 127
2, 80080, Note_on_c, 1, 54, 127
2, 80080, Note_on_c, 1, 58, 127
2, 80080, Note_on_c, 1, 63, 127
2, 80400, Note_off_c, 1, 27, 0
2, 80400, Note_off_c, 1, 30, 0
2, 80400, Note_off_c, 1, 34, 0
2, 80400, Note_off_c, 1, 39, 0
2, 80400, Note_off_c, 1, 51, 0
2, 80400, Note_off_c, 1, 54, 0
2, 80400, Note_off_c, 1, 58, 0
2, 80400, Note_off_c, 1, 63, 0
2, 80440, Note_on_c, 1, 66, 127
2, 80440, Note_on_c, 1, 73, 127
2, 80440, Note_on_c, 1, 78, 127
2, 80440, Note_on_c, 1, 81, 127
2, 80440, Note_on_c, 1, 85, 127
2, 80440, Note_on_c, 1, 93, 127
2, 80760, Note_off_c, 1, 66, 0
2, 80760, Note_off_c, 1, 73, 0
2, 80760, Note_off_c, 1, 78, 0
2, 80760, Note_off_c, 1, 81, 0
2, 80760, Note_off_c, 1, 85, 0
2, 80760, Note_off_c, 1, 93, 0
2, 80800, Note_on_c, 1, 58, 127
2, 80800, Note_on_c, 1, 67, 127
2, 80800, Note_on_c, 1, 70, 127
2, 80800, Note_on_c, 1, 82, 127
2, 80800, Note_on_c, 1, 91, 127
2, 80800, Note_on_c, 1, 94, 127
2, 81160, Note_off_c, 1, 58, 0
2, 81160, Note_off_c, 1, 67, 0
2, 81160, Note_off_c, 1, 70, 0
2, 81160, Note_off_c, 1, 82, 0
2, 81160, Note_off_c, 1, 91, 0
2, 81160, Note_off_c, 1, 94, 0
2, 81240, Note_on_c, 1, 56, 127
2, 81240, Note_on_c, 1, 60, 127
2, 81240, Note_on_c, 1, 63, 127
2, 81240, Note_on_c, 1, 96, 127
2, 81480, Note_off_c, 1, 56, 0
2, 81480, Note_off_c, 1, 60, 0
2, 81480, Note_off_c, 1, 63, 0
2, 81480, Note_off_c, 1, 96, 0
2, 81600, Note_on_c, 1, 38, 127
2, 81600, Note_on_c, 1, 50, 127
2, 81600, Note_on_c, 1, 84, 127
2, 81600, Note_on_c, 1, 90, 127
2, 81600, Note_on_c, 1, 93, 127
2, 81920, Note_off_c, 1, 38, 0
2, 81920, Note_on_c, 1, 58, 127
2, 81920, Note_on_c, 1, 65, 127
2, 81920, Note_on_c, 1, 74, 127
2, 81920, Note_off_c, 1, 84, 0
2, 81920, Note_off_c, 1, 90, 0
2, 81920, Note_off_c, 1, 93, 0
2, 81960, Note_off_c, 1, 50, 0
2, 81960, Note_off_c, 1, 58, 0
2, 81960, Note_on_c, 1, 61, 127
2, 81960, Note_off_c, 1, 65, 0
2, 81960, Note_on_c, 1, 71, 127
2, 81960, Note_on_c, 1, 73, 127
2, 81960, Note_off_c, 1, 74, 0
2, 81960, Note_on_c, 1, 77, 127
2, 82240, Note_off_c, 1, 61, 0
2, 82240, Note_on_c, 1, 63, 127
2, 82240, Note_off_c, 1, 77, 0
2, 82240, Note_on_c, 1, 78, 127
2, 82280, Note_off_c, 1, 63, 0
2, 82280, Note_off_c, 1, 71, 0
2, 82280, Note_off_c, 1, 73, 0
2, 82280, Note_off_c, 1, 78, 0
2, 82360, Note_on_c, 1, 46, 127
2, 82360, Note_on_c, 1, 53, 127
2, 82360, Note_on_c, 1, 58, 127
2, 82360, Note_on_c, 1, 61, 127
2, 82360, Note_on_c, 1, 65, 127
2, 82360, Note_on_c, 1, 73, 127
2, 83080, Note_off_c, 1, 46, 0
2, 83080, Note_off_c, 1, 53, 0
2, 83080, Note_off_c, 1, 58, 0
2, 83080, Note_off_c, 1, 61, 0
2, 83080, Note_off_c, 1, 65, 0
2, 83080, Note_off_c, 1, 73, 0
2, 83120, Note_on_c, 1, 50, 127
2, 83120, Note_on_c, 1, 55, 127
2, 83120, Note_on_c, 1, 57, 127
2, 83280, Note_off_c, 1, 50, 0
2, 83280, Note_off_c, 1, 55, 0
2, 83280, Note_off_c, 1, 57, 0
2, 83320, Note_on_c, 1, 50, 127
2, 83320, Note_on_c, 1, 55, 127
2, 83320, Note_on_c, 1, 57, 127
2, 83480, Note_off_c, 1, 50, 0
2, 83480, Note_off_c, 1, 55, 0
2, 83520, Note_on_c, 1, 50, 127
2, 83520, Note_on_c, 1, 55, 127
2, 83880, Note_off_c, 1, 50, 0
2, 83880, Note_off_c, 1, 55, 0
2, 83920, Note_on_c, 1, 49, 127
2, 83920, Note_on_c, 1, 52, 127
2, 83920, Note_on_c, 1, 61, 127
2, 84280, Note_off_c, 1, 49, 0
2, 84280, Note_off_c, 1, 52, 0
2, 84280, Note_off_c, 1, 57, 0
2, 84320, Note_on_c, 1, 32, 127
2, 84320, Note_on_c, 1, 44, 127
2, 84320, Note_on_c, 1, 49, 127
2, 84320, Note_on_c, 1, 52, 127
2, 84320, Note_off_c, 1, 61, 0
2, 84360, Note_off_c, 1, 32, 0
2, 84360, Note_off_c, 1, 44, 0
2, 84360, Note_off_c, 1, 49, 0
2, 84360, Note_off_c, 1, 52, 0
2, 84360, Note_on_c, 1, 56, 127
2, 84360, Note_on_c, 1, 75, 127
2, 84360, Note_on_c, 1, 92, 127
2, 84360, Note_on_c, 1, 96, 127
2, 84400, Note_on_c, 1, 45, 127
2, 84400, Note_off_c, 1, 56, 0
2, 84400, Note_off_c, 1, 75, 0
2, 84400, Note_on_c, 1, 78, 127
2, 84400, Note_on_c, 1, 81, 127
2, 84400, Note_on_c, 1, 87, 127
2, 84400, Note_on_c, 1, 90, 127
2, 84400, Note_off_c, 1, 92, 0
2, 84400, Note_off_c, 1, 96, 0
2, 84440, Note_on_c, 1, 32, 127
2, 84440, Note_on_c, 1, 44, 127
2, 84440, Note_off_c, 1, 45, 0
2, 84440, Note_on_c, 1, 49, 127
2, 84440, Note_on_c, 1, 52, 127
2, 84440, Note_off_c, 1, 78, 0
2, 84440, Note_off_c, 1, 81, 0
2, 84440, Note_off_c, 1, 87, 0
2, 84440, Note_off_c, 1, 90, 0
2, 84560, Note_off_c, 1, 44, 0
2, 84560, Note_off_c, 1, 49, 0
2, 84560, Note_off_c, 1, 52, 0
2, 84680, Note_off_c, 1, 32, 0
2, 84680, Note_on_c, 1, 56, 127
2, 84680, Note_on_c, 1, 61, 127
2, 84680, Note_on_c, 1, 63, 127
2, 84680, Note_on_c, 1, 68, 127
2, 85280, Note_off_c, 1, 61, 0
2, 85360, Note_off_c, 1, 56, 0
2, 85360, Note_off_c, 1, 63, 0
2, 85360, Note_off_c, 1, 68, 0
2, 85400, Note_on_c, 1, 56, 127
2, 85400, Note_on_c, 1, 63, 127
2, 85400, Note_on_c, 1, 68, 127
2, 85480, Note_on_c, 1, 61, 127
2, 85840, Note_off_c, 1, 56, 0
2, 85840, Note_off_c, 1, 61, 0
2, 85840, Note_off_c, 1, 63, 0
2, 85840, Note_on_c, 1, 65, 127
2, 85880, Note_on_c, 1, 54, 127
2, 85880, Note_on_c, 1, 61, 127
2, 85880, Note_off_c, 1, 65, 0
2, 85880, Note_off_c, 1, 68, 0
2, 85880, Note_on_c, 1, 69, 127
2, 85880, Note_on_c, 1, 74, 127
2, 86200, Note_off_c, 1, 54, 0
2, 86200, Note_on_c, 1, 58, 127
2, 86200, Note_off_c, 1, 61, 0
2, 86200, Note_off_c, 1, 69, 0
2, 86200, Note_on_c, 1, 73, 127
2, 86200, Note_off_c, 1, 74, 0
2, 86200, Note_on_c, 1, 80, 127
2, 86240, Note_on_c, 1, 41, 127
2, 86240, Note_on_c, 1, 47, 127
2, 86240, Note_on_c, 1, 50, 127
2, 86240, Note_on_c, 1, 53, 127
2, 86240, Note_off_c, 1, 58, 0
2, 86240, Note_on_c, 1, 59, 127
2, 86240, Note_on_c, 1, 71, 127
2, 86240, Note_off_c, 1, 73, 0
2, 86240, Note_off_c, 1, 80, 0
2, 86280, Note_off_c, 1, 41, 0
2, 86280, Note_off_c, 1, 47, 0
2, 86280, Note_off_c, 1, 50, 0
2, 86280, Note_off_c, 1, 53, 0
2, 86280, Note_on_c, 1, 64, 127
2, 86280, Note_off_c, 1, 71, 0
2, 86280, Note_on_c, 1, 74, 127
2, 86280, Note_on_c, 1, 78, 127
2, 86320, Note_on_c, 1, 42, 127
2, 86320, Note_on_c, 1, 63, 127
2, 86320, Note_off_c, 1, 64, 0
2, 86320, Note_on_c, 1, 66, 127
2, 86320, Note_on_c, 1, 71, 127
2, 86320, Note_off_c, 1, 74, 0
2, 86320, Note_off_c, 1, 78, 0
2, 86360, Note_off_c, 1, 42, 0
2, 86360, Note_on_c, 1, 49, 127
2, 86360, Note_on_c, 1, 53, 127
2, 86360, Note_on_c, 1, 58, 127
2, 86360, Note_off_c, 1, 59, 0
2, 86360, Note_on_c, 1, 61, 127
2, 86360, Note_off_c, 1, 63, 0
2, 86360, Note_off_c, 1, 66, 0
2, 86360, Note_on_c, 1, 70, 127
2, 86360, Note_off_c, 1, 71, 0
2, 86360, Note_on_c, 1, 72, 127
2, 86400, Note_on_c, 1, 48, 127
2, 86400, Note_off_c, 1, 49, 0
2, 86400, Note_off_c, 1, 53, 0
2, 86400, Note_on_c, 1, 55, 127
2, 86400, Note_off_c, 1, 58, 0
2, 86400, Note_off_c, 1, 61, 0
2, 86400, Note_off_c, 1, 70, 0
2, 86400, Note_off_c, 1, 72, 0
2, 86400, Note_on_c, 1, 80, 127
2, 86440, Note_off_c, 1, 48, 0
2, 86440, Note_on_c, 1, 51, 127
2, 86440, Note_on_c, 1, 54, 127
2, 86440, Note_off_c, 1, 55, 0
2, 86440, Note_on_c, 1, 59, 127
2, 86440, Note_on_c, 1, 63, 127
2, 86440, Note_on_c, 1, 66, 127
2, 86440, Note_on_c, 1, 78, 127
2, 86440, Note_off_c, 1, 80, 0
2, 86960, Note_on_c, 1, 32, 127
2, 86960, Note_on_c, 1, 44, 127
2, 86960, Note_off_c, 1, 51, 0
2, 86960, Note_off_c, 1, 54, 0
2, 86960, Note_off_c, 1, 59, 0
2, 86960, Note_off_c, 1, 66, 0
2, 86960, Note_off_c, 1, 78, 0
2, 87000, Note_off_c, 1, 32, 0
2, 87000, Note_off_c, 1, 44, 0
2, 87000, Note_off_c, 1, 63, 0
2, 87000, Note_on_c, 1, 67, 127
2, 87000, Note_on_c, 1, 72, 127
2, 87000, Note_on_c, 1, 76, 127
2, 87000, Note_on_c, 1, 88, 127
2, 87000, Note_on_c, 1, 96, 127
2, 87000, Note_on_c, 1, 100, 127
2, 87040, Note_on_c, 1, 46, 127
2, 87040, Note_on_c, 1, 62, 127
2, 87040, Note_on_c, 1, 65, 127
2, 87040, Note_off_c, 1, 67, 0
2, 87040, Note_on_c, 1, 68, 127
2, 87040, Note_on_c, 1, 70, 127
2, 87040, Note_off_c, 1, 72, 0
2, 87040, Note_on_c, 1, 74, 127
2, 87040, Note_off_c, 1, 76, 0
2, 87040, Note_off_c, 1, 88, 0
2, 87040, Note_off_c, 1, 96, 0
2, 87040, Note_off_c, 1, 100, 0
2, 87080, Note_on_c, 1, 35, 127
2, 87080, Note_on_c, 1, 42, 127
2, 87080, Note_off_c, 1, 46, 0
2, 87080, Note_off_c, 1, 62, 0
2, 87080, Note_on_c, 1, 64, 127
2, 87080, Note_off_c, 1, 65, 0
2, 87080, Note_on_c, 1, 67, 127
2, 87080, Note_off_c, 1, 68, 0
2, 87080, Note_on_c, 1, 73, 127
2, 87080, Note_off_c, 1, 74, 0
2, 87120, Note_off_c, 1, 35, 0
2, 87120, Note_on_c, 1, 54, 127
2, 87120, Note_on_c, 1, 63, 127
2, 87120, Note_off_c, 1, 64, 0
2, 87120, Note_off_c, 1, 67, 0
2, 87120, Note_off_c, 1, 70, 0
2, 87120, Note_on_c, 1, 72, 127
2, 87120, Note_off_c, 1, 73, 0
2, 87120, Note_on_c, 1, 75, 127
2, 87160, Note_off_c, 1, 42, 0
2, 87160, Note_off_c, 1, 54, 0
2, 87160, Note_off_c, 1, 63, 0
2, 87160, Note_off_c, 1, 72, 0
2, 87160, Note_off_c, 1, 75, 0
2, 87200, Note_on_c, 1, 44, 127
2, 87200, Note_on_c, 1, 56, 127
2, 87200, Note_on_c, 1, 65, 127
2, 87200, Note_on_c, 1, 68, 127
2, 87200, Note_on_c, 1, 80, 127
2, 87240, Note_off_c, 1, 44, 0
2, 87240, Note_on_c, 1, 46, 127
2, 87240, Note_on_c, 1, 58, 127
2, 87240, Note_on_c, 1, 64, 127
2, 87240, Note_off_c, 1, 65, 0
2, 87240, Note_on_c, 1, 73, 127
2, 87240, Note_off_c, 1, 80, 0
2, 87280, Note_on_c, 1, 43, 127
2, 87280, Note_off_c, 1, 46, 0
2, 87280, Note_on_c, 1, 48, 127
2, 87280, Note_off_c, 1, 56, 0
2, 87280, Note_off_c, 1, 58, 0
2, 87280, Note_off_c, 1, 64, 0
2, 87280, Note_off_c, 1, 68, 0
2, 87280, Note_on_c, 1, 70, 127
2, 87280, Note_off_c, 1, 73, 0
2, 87280, Note_on_c, 1, 82, 127
2, 87320, Note_off_c, 1, 43, 0
2, 87320, Note_off_c, 1, 48, 0
2, 87320, Note_on_c, 1, 59, 127
2, 87320, Note_off_c, 1, 70, 0
2, 87320, Note_on_c, 1, 73, 127
2, 87320, Note_on_c, 1, 74, 127
2, 87320, Note_off_c, 1, 82, 0
2, 87320, Note_on_c, 1, 86, 127
2, 87360, Note_on_c, 1, 31, 127
2, 87360, Note_on_c, 1, 38, 127
2, 87360, Note_on_c, 1, 43, 127
2, 87360, Note_off_c, 1, 59, 0
2, 87360, Note_on_c, 1, 67, 127
2, 87360, Note_off_c, 1, 73, 0
2, 87360, Note_off_c, 1, 74, 0
2, 87360, Note_off_c, 1, 86, 0
2, 87400, Note_off_c, 1, 31, 0
2, 87400, Note_on_c, 1, 32, 127
2, 87400, Note_off_c, 1, 38, 0
2, 87400, Note_off_c, 1, 43, 0
2, 87400, Note_on_c, 1, 44, 127
2, 87400, Note_off_c, 1, 67, 0
2, 87400, Note_on_c, 1, 71, 127
2, 87400, Note_on_c, 1, 80, 127
2, 87400, Note_on_c, 1, 83, 127
2, 87400, Note_on_c, 1, 88, 127
2, 87400, Note_on_c, 1, 92, 127
2, 87440, Note_off_c, 1, 32, 0
2, 87440, Note_off_c, 1, 44, 0
2, 87440, Note_on_c, 1, 47, 127
2, 87440, Note_on_c, 1, 54, 127
2, 87440, Note_on_c, 1, 61, 127
2, 87440, Note_off_c, 1, 71, 0
2, 87440, Note_off_c, 1, 80, 0
2, 87440, Note_off_c, 1, 83, 0
2, 87440, Note_off_c, 1, 88, 0
2, 87440, Note_off_c, 1, 92, 0
2, 87440, Note_on_c, 1, 95, 127
2, 87480, Note_on_c, 1, 44, 127
2, 87480, Note_on_c, 1, 46, 127
2, 87480, Note_off_c, 1, 47, 0
2, 87480, Note_off_c, 1, 54, 0
2, 87480, Note_off_c, 1, 61, 0
2, 87480, Note_on_c, 1, 62, 127
2, 87480, Note_on_c, 1, 74, 127
2, 87480, Note_off_c, 1, 95, 0
2, 87560, Note_on_c, 1, 38, 127
2, 87560, Note_off_c, 1, 46, 0
2, 87560, Note_on_c, 1, 48, 127
2, 87560, Note_on_c, 1, 60, 127
2, 87560, Note_off_c, 1, 62, 0
2, 87560, Note_on_c, 1, 66, 127
2, 87560, Note_on_c, 1, 68, 127
2, 87560, Note_off_c, 1, 74, 0
2, 87600, Note_off_c, 1, 38, 0
2, 87600, Note_off_c, 1, 44, 0
2, 87600, Note_on_c, 1, 47, 127
2, 87600, Note_off_c, 1, 48, 0
2, 87600, Note_off_c, 1, 60, 0
2, 87600, Note_off_c, 1, 66, 0
2, 87600, Note_off_c, 1, 68, 0
2, 87640, Note_off_c, 1, 47, 0
2, 87640, Note_on_c, 1, 52, 127
2, 87640, Note_on_c, 1, 62, 127
2, 87640, Note_on_c, 1, 64, 127
2, 87640, Note_on_c, 1, 71, 127
2, 87640, Note_on_c, 1, 76, 127
2, 87640, Note_on_c, 1, 80, 127
2, 88360, Note_off_c, 1, 52, 0
2, 88360, Note_off_c, 1, 62, 0
2, 88360, Note_off_c, 1, 64, 0
2, 88360, Note_off_c, 1, 71, 0
2, 88360, Note_off_c, 1, 76, 0
2, 88360, Note_off_c, 1, 80, 0
2, 88400, Note_on_c, 1, 40, 127
2, 88400, Note_on_c, 1, 44, 127
2, 88400, Note_on_c, 1, 52, 127
2, 89160, Note_off_c, 1, 40, 0
2, 89160, Note_off_c, 1, 44, 0
2, 89160, Note_off_c, 1, 52, 0
2, 89240, Note_on_c, 1, 44, 127
2, 89240, Note_on_c, 1, 58, 127
2, 89240, Note_on_c, 1, 61, 127
2, 89240, Note_on_c, 1, 63, 127
2, 89240, Note_on_c, 1, 67, 127
2, 89240, Note_on_c, 1, 70, 127
2, 89240, Note_on_c, 1, 73, 127
2, 89400, Note_on_c, 1, 51, 127
2, 89400, Note_off_c, 1, 61, 0
2, 89400, Note_off_c, 1, 63, 0
2, 89400, Note_off_c, 1, 67, 0
2, 89400, Note_off_c, 1, 70, 0
2, 89400, Note_off_c, 1, 73, 0
2, 89440, Note_on_c, 1, 31, 127
2, 89440, Note_on_c, 1, 43, 127
2, 89440, Note_off_c, 1, 44, 0
2, 89440, Note_on_c, 1, 50, 127
2, 89440, Note_off_c, 1, 51, 0
2, 89440, Note_off_c, 1, 58, 0
2, 89440, Note_on_c, 1, 59, 127
2, 89440, Note_on_c, 1, 62, 127
2, 89960, Note_off_c, 1, 31, 0
2, 89960, Note_off_c, 1, 43, 0
2, 89960, Note_off_c, 1, 50, 0
2, 89960, Note_off_c, 1, 59, 0
2, 89960, Note_off_c, 1, 62, 0
2, 90000, Note_on_c, 1, 47, 127
2, 90000, Note_on_c, 1, 51, 127
2, 90000, Note_on_c, 1, 56, 127
2, 90000, Note_on_c, 1, 75, 127
2, 90000, Note_on_c, 1, 87, 127
2, 90360, Note_off_c, 1, 47, 0
2, 90360, Note_off_c, 1, 51, 0
2, 90360, Note_off_c, 1, 56, 0
2, 90360, Note_on_c, 1, 61, 127
2, 90360, Note_on_c, 1, 64, 127
2, 90360, Note_on_c, 1, 68, 127
2, 90360, Note_on_c, 1, 73, 127
2, 90360, Note_off_c, 1, 75, 0
2, 90360, Note_on_c, 1, 76, 127
2, 90360, Note_off_c, 1, 87, 0
2, 90720, Note_off_c, 1, 61, 0
2, 90720, Note_off_c, 1, 64, 0
2, 90720, Note_off_c, 1, 68, 0
2, 90720, Note_off_c, 1, 73, 0
2, 90720, Note_off_c, 1, 76, 0
2, 90760, Note_on_c, 1, 36, 127
2, 90760, Note_on_c, 1, 43, 127
2, 90760, Note_on_c, 1, 48, 127
2, 90760, Note_on_c, 1, 52, 127
2, 91000, Note_off_c, 1, 36, 0
2, 91000, Note_on_c, 1, 37, 127
2, 91000, Note_off_c, 1, 43, 0
2, 91000, Note_off_c, 1, 48, 0
2, 91000, Note_on_c, 1, 49, 127
2, 91000, Note_off_c, 1, 52, 0
2, 91000, Note_on_c, 1, 56, 127
2, 91000, Note_on_c, 1, 61, 127
2, 91000, Note_on_c, 1, 65, 127
2, 91040, Note_off_c, 1, 37, 0
2, 91040, Note_off_c, 1, 49, 0
2, 91040, Note_off_c, 1, 56, 0
2, 91040, Note_off_c, 1, 61, 0
2, 91040, Note_off_c, 1, 65, 0
2, 91160, Note_on_c, 1, 55, 127
2, 91160, Note_on_c, 1, 58, 127
2, 91160, Note_on_c, 1, 62, 127
2, 91160, Note_on_c, 1, 74, 127
2, 91160, Note_on_c, 1, 86, 127
2, 91360, Note_off_c, 1, 55, 0
2, 91360, Note_off_c, 1, 58, 0
2, 91360, Note_off_c, 1, 62, 0
2, 91360, Note_off_c, 1, 74, 0
2, 91360, Note_off_c, 1, 86, 0
2, 91400, Note_on_c, 1, 55, 127
2, 91400, Note_on_c, 1, 58, 127
2, 91400, Note_on_c, 1, 62, 127
2, 91400, Note_on_c, 1, 74, 127
2, 91400, Note_on_c, 1, 86, 127
2, 92280, Note_off_c, 1, 55, 0
2, 92280, Note_off_c, 1, 58, 0
2, 92280, Note_off_c, 1, 62, 0
2, 92280, Note_off_c, 1, 74, 0
2, 92280, Note_off_c, 1, 86, 0
2, 92320, Note_on_c, 1, 51, 127
2, 92320, Note_on_c, 1, 58, 127
2, 92320, Note_on_c, 1, 63, 127
2, 92320, Note_on_c, 1, 67, 127
2, 92320, Note_on_c, 1, 70, 127
2, 92320, Note_on_c, 1, 79, 127
2, 93400, Note_off_c, 1, 51, 0
2, 93400, Note_off_c, 1, 58, 0
2, 93400, Note_off_c, 1, 63, 0
2, 93400, Note_off_c, 1, 67, 0
2, 93400, Note_off_c, 1, 70, 0
2, 93400, Note_off_c, 1, 79, 0
2, 93520, Note_on_c, 1, 51, 127
2, 93520, Note_on_c, 1, 58, 127
2, 93520, Note_on_c, 1, 63, 127
2, 93520, Note_on_c, 1, 67, 127
2, 93520, Note_on_c, 1, 74, 127
2, 93720, Note_off_c, 1, 51, 0
2, 93720, Note_on_c, 1, 53, 127
2, 93720, Note_off_c, 1, 58, 0
2, 93720, Note_off_c, 1, 63, 0
2, 93720, Note_on_c, 1, 65, 127
2, 93720, Note_off_c, 1, 67, 0
2, 93720, Note_on_c, 1, 70, 127
2, 93720, Note_on_c, 1, 82, 127
2, 93840, Note_off_c, 1, 53, 0
2, 93840, Note_off_c, 1, 65, 0
2, 93840, Note_off_c, 1, 70, 0
2, 93840, Note_off_c, 1, 74, 0
2, 93840, Note_off_c, 1, 82, 0
2, 93880, Note_on_c, 1, 51, 127
2, 93880, Note_on_c, 1, 58, 127
2, 93880, Note_on_c, 1, 63, 127
2, 93880, Note_on_c, 1, 67, 127
2, 93880, Note_on_c, 1, 75, 127
2, 95400, Note_off_c, 1, 51, 0
2, 95400, Note_off_c, 1, 58, 0
2, 95400, Note_off_c, 1, 63, 0
2, 95400, Note_off_c, 1, 67, 0
2, 95400, Note_off_c, 1, 75, 0
2, 95440, Note_on_c, 1, 51, 127
2, 95440, Note_on_c, 1, 58, 127
2, 95440, Note_on_c, 1, 63, 127
2, 95440, Note_on_c, 1, 67, 127
2, 95440, Note_on_c, 1, 70, 127
2, 95840, Note_off_c, 1, 51, 0
2, 95840, Note_off_c, 1, 58, 0
2, 95840, Note_off_c, 1, 63, 0
2, 95840, Note_off_c, 1, 67, 0
2, 95840, Note_off_c, 1, 70, 0
2, 95880, Note_on_c, 1, 51, 127
2, 95880, Note_on_c, 1, 58, 127
2, 95880, Note_on_c, 1, 63, 127
2, 95880, Note_on_c, 1, 67, 127
2, 95880, Note_on_c, 1, 70, 127
2, 96560, Note_off_c, 1, 51, 0
2, 96560, Note_off_c, 1, 58, 0
2, 96560, Note_off_c, 1, 63, 0
2, 96560, Note_off_c, 1, 67, 0
2, 96560, Note_off_c, 1, 70, 0
2, 96600, Note_on_c, 1, 51, 127
2, 96600, Note_on_c, 1, 58, 127
2, 96600, Note_on_c, 1, 63, 127
2, 96600, Note_on_c, 1, 67, 127
2, 96600, Note_on_c, 1, 74, 127
2, 96960, Note_off_c, 1, 74, 0
2, 96960, Note_on_c, 1, 75, 127
2, 97320, Note_on_c, 1, 47, 127
2, 97320, Note_off_c, 1, 51, 0
2, 97320, Note_on_c, 1, 54, 127
2, 97320, Note_off_c, 1, 58, 0
2, 97320, Note_off_c, 1, 67, 0
2, 97360, Note_off_c, 1, 47, 0
2, 97360, Note_off_c, 1, 54, 0
2, 97360, Note_off_c, 1, 63, 0
2, 97360, Note_off_c, 1, 75, 0
2, 97400, Note_on_c, 1, 54, 127
2, 97400, Note_on_c, 1, 60, 127
2, 97400, Note_on_c, 1, 69, 127
2, 97920, Note_off_c, 1, 54, 0
2, 97920, Note_off_c, 1, 60, 0
2, 97920, Note_off_c, 1, 69, 0
2, 97960, Note_on_c, 1, 54, 127
2, 97960, Note_on_c, 1, 60, 127
2, 97960, Note_on_c, 1, 69, 127
2, 98520, Note_off_c, 1, 60, 0
2, 98560, Note_on_c, 1, 57, 127
2, 98920, Note_off_c, 1, 54, 0
2, 98920, Note_off_c, 1, 57, 0
2, 98920, Note_off_c, 1, 69, 0
2, 98960, Note_on_c, 1, 53, 127
2, 98960, Note_on_c, 1, 65, 127
2, 98960, Note_on_c, 1, 70, 127
2, 99680, Note_off_c, 1, 53, 0
2, 99680, Note_off_c, 1, 65, 0
2, 99680, Note_off_c, 1, 70, 0
2, 99720, Note_on_c, 1, 53, 127
2, 99720, Note_on_c, 1, 65, 127
2, 99720, Note_on_c, 1, 70, 127
2, 99960, Note_off_c, 1, 53, 0
2, 99960, Note_off_c, 1, 65, 0
2, 99960, Note_off_c, 1, 70, 0
2, 100000, Note_on_c, 1, 53, 127
2, 100000, Note_on_c, 1, 65, 127
2, 100000, Note_on_c, 1, 70, 127
2, 100480, Note_off_c, 1, 65, 0
2, 100520, Note_on_c, 1, 65, 127
2, 100880, Note_on_c, 1, 50, 127
2, 100880, Note_off_c, 1, 53, 0
2, 100880, Note_off_c, 1, 65, 0
2, 100920, Note_off_c, 1, 50, 0
2, 100920, Note_on_c, 1, 53, 127
2, 100920, Note_on_c, 1, 62, 127
2, 101240, Note_off_c, 1, 62, 0
2, 101240, Note_off_c, 1, 70, 0
2, 101280, Note_on_c, 1, 60, 127
2, 101280, Note_on_c, 1, 70, 127
2, 101640, Note_off_c, 1, 53, 0
2, 101640, Note_on_c, 1, 69, 127
2, 101640, Note_off_c, 1, 70, 0
2, 101680, Note_on_c, 1, 53, 127
2, 102000, Note_off_c, 1, 53, 0
2, 102000, Note_off_c, 1, 60, 0
2, 102000, Note_off_c, 1, 69, 0
2, 102040, Note_on_c, 1, 58, 127
2, 102040, Note_on_c, 1, 69, 127
2, 102040, Note_on_c, 1, 70, 127
2, 102080, Note_off_c, 1, 58, 0
2, 102080, Note_off_c, 1, 69, 0
2, 102080, Note_off_c, 1, 70, 0
2, 102120, Note_on_c, 1, 47, 127
2, 102120, Note_on_c, 1, 55, 127
2, 102120, Note_on_c, 1, 58, 127
2, 102120, Note_on_c, 1, 73, 127
2, 102160, Note_off_c, 1, 47, 0
2, 102160, Note_off_c, 1, 55, 0
2, 102160, Note_on_c, 1, 69, 127
2, 102160, Note_on_c, 1, 70, 127
2, 102160, Note_off_c, 1, 73, 0
2, 102280, Note_on_c, 1, 54, 127
2, 102280, Note_on_c, 1, 56, 127
2, 102280, Note_off_c, 1, 58, 0
2, 102280, Note_on_c, 1, 59, 127
2, 102280, Note_on_c, 1, 63, 127
2, 102280, Note_off_c, 1, 69, 0
2, 102280, Note_off_c, 1, 70, 0
2, 102280, Note_on_c, 1, 85, 127
2, 102320, Note_off_c, 1, 54, 0
2, 102320, Note_off_c, 1, 56, 0
2, 102320, Note_on_c, 1, 58, 127
2, 102320, Note_off_c, 1, 59, 0
2, 102320, Note_off_c, 1, 63, 0
2, 102320, Note_on_c, 1, 69, 127
2, 102320, Note_on_c, 1, 70, 127
2, 102320, Note_off_c, 1, 85, 0
2, 102360, Note_on_c, 1, 46, 127
2, 102360, Note_on_c, 1, 49, 127
2, 102360, Note_off_c, 1, 58, 0
2, 102360, Note_on_c, 1, 64, 127
2, 102360, Note_off_c, 1, 69, 0
2, 102400, Note_off_c, 1, 46, 0
2, 102400, Note_off_c, 1, 49, 0
2, 102400, Note_on_c, 1, 58, 127
2, 102400, Note_on_c, 1, 60, 127
2, 102400, Note_off_c, 1, 64, 0
2, 102400, Note_on_c, 1, 65, 127
2, 102400, Note_off_c, 1, 70, 0
2, 102440, Note_on_c, 1, 55, 127
2, 102440, Note_off_c, 1, 60, 0
2, 102440, Note_off_c, 1, 65, 0
2, 102440, Note_on_c, 1, 73, 127
2, 102440, Note_on_c, 1, 79, 127
2, 102440, Note_on_c, 1, 85, 127
2, 102480, Note_off_c, 1, 55, 0
2, 102480, Note_on_c, 1, 66, 127
2, 102480, Note_off_c, 1, 73, 0
2, 102480, Note_off_c, 1, 79, 0
2, 102480, Note_on_c, 1, 81, 127
2, 102480, Note_off_c, 1, 85, 0
2, 102480, Note_on_c, 1, 93, 127
2, 102800, Note_off_c, 1, 66, 0
2, 102800, Note_off_c, 1, 81, 0
2, 102800, Note_off_c, 1, 93, 0
2, 102840, Note_off_c, 1, 58, 0
2, 102840, Note_on_c, 1, 65, 127
2, 102840, Note_on_c, 1, 82, 127
2, 102840, Note_on_c, 1, 86, 127
2, 103200, Note_off_c, 1, 65, 0
2, 103240, Note_on_c, 1, 62, 127
2, 103560, Note_off_c, 1, 62, 0
2, 103560, Note_off_c, 1, 82, 0
2, 103560, Note_off_c, 1, 86, 0
2, 103600, Note_on_c, 1, 65, 127
2, 103600, Note_on_c, 1, 74, 127
2, 103600, Note_on_c, 1, 84, 127
2, 103680, Note_on_c, 1, 82, 127
2, 103680, Note_off_c, 1, 84, 0
2, 103720, Note_off_c, 1, 82, 0
2, 103920, Note_off_c, 1, 74, 0
2, 103960, Note_on_c, 1, 53, 127
2, 103960, Note_on_c, 1, 58, 127
2, 103960, Note_on_c, 1, 62, 127
2, 103960, Note_off_c, 1, 65, 0
2, 104240, Note_off_c, 1, 53, 0
2, 104240, Note_off_c, 1, 58, 0
2, 104240, Note_off_c, 1, 62, 0
2, 104280, Note_on_c, 1, 53, 127
2, 104280, Note_on_c, 1, 58, 127
2, 104280, Note_on_c, 1, 62, 127
2, 104360, Note_off_c, 1, 53, 0
2, 104360, Note_off_c, 1, 58, 0
2, 104360, Note_off_c, 1, 62, 0
2, 104400, Note_on_c, 1, 53, 127
2, 104400, Note_on_c, 1, 58, 127
2, 104400, Note_on_c, 1, 62, 127
2, 104760, Note_off_c, 1, 58, 0
2, 104760, Note_off_c, 1, 62, 0
2, 104800, Note_on_c, 1, 46, 127
2, 104800, Note_on_c, 1, 49, 127
2, 104800, Note_on_c, 1, 58, 127
2, 105120, Note_off_c, 1, 46, 0
2, 105120, Note_off_c, 1, 49, 0
2, 105120, Note_off_c, 1, 53, 0
2, 105120, Note_off_c, 1, 58, 0
2, 105560, Note_on_c, 1, 41, 127
2, 105560, Note_on_c, 1, 53, 127
2, 105560, Note_on_c, 1, 65, 127
2, 105560, Note_on_c, 1, 69, 127
2, 105560, Note_on_c, 1, 73, 127
2, 105600, Note_on_c, 1, 32, 127
2, 105600, Note_on_c, 1, 39, 127
2, 105600, Note_off_c, 1, 41, 0
2, 105600, Note_on_c, 1, 42, 127
2, 105600, Note_on_c, 1, 51, 127
2, 105600, Note_off_c, 1, 53, 0
2, 105600, Note_on_c, 1, 54, 127
2, 105600, Note_on_c, 1, 58, 127
2, 105600, Note_off_c, 1, 65, 0
2, 105600, Note_off_c, 1, 69, 0
2, 105600, Note_off_c, 1, 73, 0
2, 105640, Note_off_c, 1, 32, 0
2, 105640, Note_off_c, 1, 39, 0
2, 105640, Note_off_c, 1, 42, 0
2, 105640, Note_off_c, 1, 51, 0
2, 105640, Note_off_c, 1, 58, 0
2, 105640, Note_on_c, 1, 59, 127
2, 105640, Note_on_c, 1, 63, 127
2, 105640, Note_on_c, 1, 71, 127
2, 105640, Note_on_c, 1, 78, 127
2, 105640, Note_on_c, 1, 83, 127
2, 105680, Note_off_c, 1, 54, 0
2, 105680, Note_on_c, 1, 57, 127
2, 105680, Note_off_c, 1, 59, 0
2, 105680, Note_off_c, 1, 63, 0
2, 105680, Note_on_c, 1, 65, 127
2, 105680, Note_on_c, 1, 70, 127
2, 105680, Note_off_c, 1, 71, 0
2, 105680, Note_on_c, 1, 73, 127
2, 105680, Note_on_c, 1, 77, 127
2, 105680, Note_off_c, 1, 78, 0
2, 105680, Note_off_c, 1, 83, 0
2, 105720, Note_off_c, 1, 57, 0
2, 105720, Note_on_c, 1, 61, 127
2, 105720, Note_off_c, 1, 65, 0
2, 105720, Note_off_c, 1, 70, 0
2, 105720, Note_on_c, 1, 71, 127
2, 105720, Note_off_c, 1, 73, 0
2, 105720, Note_off_c, 1, 77, 0
2, 105720, Note_on_c, 1, 87, 127
2, 105760, Note_off_c, 1, 71, 0
2, 105760, Note_on_c, 1, 72, 127
2, 105760, Note_on_c, 1, 89, 127
2, 105880, Note_on_c, 1, 46, 127
2, 105880, Note_off_c, 1, 61, 0
2, 105880, Note_off_c, 1, 72, 0
2, 105880, Note_on_c, 1, 86, 127
2, 105880, Note_off_c, 1, 87, 0
2, 105880, Note_off_c, 1, 89, 0
2, 105880, Note_on_c, 1, 91, 127
2, 105920, Note_off_c, 1, 46, 0
2, 105920, Note_off_c, 1, 86, 0
2, 105920, Note_off_c, 1, 91, 0
2, 105960, Note_on_c, 1, 45, 127
2, 105960, Note_on_c, 1, 53, 127
2, 105960, Note_on_c, 1, 57, 127
2, 105960, Note_on_c, 1, 64, 127
2, 106000, Note_on_c, 1, 41, 127
2, 106000, Note_off_c, 1, 53, 0
2, 106000, Note_off_c, 1, 57, 0
2, 106000, Note_on_c, 1, 61, 127
2, 106000, Note_on_c, 1, 67, 127
2, 106000, Note_on_c, 1, 69, 127
2, 106040, Note_off_c, 1, 41, 0
2, 106040, Note_on_c, 1, 53, 127
2, 106040, Note_on_c, 1, 57, 127
2, 106040, Note_off_c, 1, 61, 0
2, 106040, Note_on_c, 1, 62, 127
2, 106040, Note_off_c, 1, 64, 0
2, 106040, Note_off_c, 1, 67, 0
2, 106040, Note_off_c, 1, 69, 0
2, 106080, Note_on_c, 1, 38, 127
2, 106080, Note_off_c, 1, 45, 0
2, 106080, Note_off_c, 1, 53, 0
2, 106080, Note_off_c, 1, 57, 0
2, 106080, Note_off_c, 1, 62, 0
2, 106080, Note_on_c, 1, 70, 127
2, 106080, Note_on_c, 1, 81, 127
2, 106120, Note_off_c, 1, 38, 0
2, 106120, Note_on_c, 1, 45, 127
2, 106120, Note_on_c, 1, 53, 127
2, 106120, Note_on_c, 1, 57, 127
2, 106120, Note_off_c, 1, 70, 0
2, 106120, Note_off_c, 1, 81, 0
2, 106160, Note_off_c, 1, 45, 0
2, 106160, Note_off_c, 1, 53, 0
2, 106160, Note_off_c, 1, 57, 0
2, 106200, Note_on_c, 1, 38, 127
2, 106200, Note_on_c, 1, 50, 127
2, 106200, Note_on_c, 1, 58, 127
2, 106200, Note_on_c, 1, 79, 127
2, 106200, Note_on_c, 1, 82, 127
2, 106200, Note_on_c, 1, 94, 127
2, 106280, Note_off_c, 1, 38, 0
2, 106280, Note_on_c, 1, 45, 127
2, 106280, Note_off_c, 1, 50, 0
2, 106280, Note_on_c, 1, 57, 127
2, 106280, Note_off_c, 1, 58, 0
2, 106280, Note_off_c, 1, 82, 0
2, 106280, Note_on_c, 1, 85, 127
2, 106280, Note_on_c, 1, 91, 127
2, 106280, Note_off_c, 1, 94, 0
2, 106320, Note_off_c, 1, 45, 0
2, 106320, Note_off_c, 1, 57, 0
2, 106320, Note_off_c, 1, 79, 0
2, 106320, Note_off_c, 1, 85, 0
2, 106320, Note_off_c, 1, 91, 0
2, 106360, Note_on_c, 1, 40, 127
2, 106360, Note_on_c, 1, 52, 127
2, 106360, Note_on_c, 1, 80, 127
2, 106360, Note_on_c, 1, 86, 127
2, 106360, Note_on_c, 1, 92, 127
2, 107080, Note_off_c, 1, 40, 0
2, 107080, Note_off_c, 1, 52, 0
2, 107080, Note_off_c, 1, 80, 0
2, 107080, Note_off_c, 1, 86, 0
2, 107080, Note_off_c, 1, 92, 0
2, 107120, Note_on_c, 1, 40, 127
2, 107120, Note_on_c, 1, 52, 127
2, 107120, Note_on_c, 1, 80, 127
2, 107120, Note_on_c, 1, 86, 127
2, 107120, Note_on_c, 1, 92, 127
2, 107480, Note_off_c, 1, 40, 0
2, 107480, Note_off_c, 1, 52, 0
2, 107480, Note_off_c, 1, 80, 0
2, 107480, Note_off_c, 1, 86, 0
2, 107480, Note_off_c, 1, 92, 0
2, 107520, Note_on_c, 1, 40, 127
2, 107520, Note_on_c, 1, 52, 127
2, 107520, Note_on_c, 1, 80, 127
2, 107520, Note_on_c, 1, 86, 127
2, 107520, Note_on_c, 1, 92, 127
2, 108200, Note_off_c, 1, 40, 0
2, 108200, Note_off_c, 1, 52, 0
2, 108200, Note_off_c, 1, 80, 0
2, 108200, Note_off_c, 1, 86, 0
2, 108200, Note_off_c, 1, 92, 0
2, 108240, Note_on_c, 1, 40, 127
2, 108240, Note_on_c, 1, 52, 127
2, 108240, Note_on_c, 1, 80, 127
2, 108240, Note_on_c, 1, 86, 127
2, 108240, Note_on_c, 1, 92, 127
2, 108280, Note_off_c, 1, 40, 0
2, 108280, Note_off_c, 1, 52, 0
2, 108280, Note_off_c, 1, 80, 0
2, 108280, Note_off_c, 1, 86, 0
2, 108280, Note_off_c, 1, 92, 0
2, 108320, Note_on_c, 1, 33, 127
2, 108320, Note_on_c, 1, 45, 127
2, 108320, Note_on_c, 1, 81, 127
2, 108320, Note_on_c, 1, 85, 127
2, 108320, Note_on_c, 1, 93, 127
2, 108800, Note_off_c, 1, 33, 0
2, 108800, Note_on_c, 1, 38, 127
2, 108800, Note_off_c, 1, 45, 0
2, 108800, Note_on_c, 1, 50, 127
2, 108800, Note_off_c, 1, 85, 0
2, 108800, Note_on_c, 1, 86, 127
2, 108840, Note_on_c, 1, 33, 127
2, 108840, Note_off_c, 1, 38, 0
2, 108840, Note_on_c, 1, 45, 127
2, 108840, Note_off_c, 1, 50, 0
2, 108840, Note_on_c, 1, 85, 127
2, 108840, Note_off_c, 1, 86, 0
2, 109040, Note_off_c, 1, 33, 0
2, 109040, Note_off_c, 1, 45, 0
2, 109040, Note_off_c, 1, 81, 0
2, 109040, Note_off_c, 1, 85, 0
2, 109040, Note_off_c, 1, 93, 0
2, 109080, Note_on_c, 1, 45, 127
2, 109080, Note_on_c, 1, 52, 127
2, 109080, Note_on_c, 1, 57, 127
2, 109080, Note_on_c, 1, 69, 127
2, 109080, Note_on_c, 1, 73, 127
2, 109080, Note_on_c, 1, 81, 127
2, 109760, Note_on_c, 1, 40, 127
2, 109760, Note_off_c, 1, 45, 0
2, 109760, Note_off_c, 1, 52, 0
2, 109760, Note_on_c, 1, 54, 127
2, 109760, Note_off_c, 1, 57, 0
2, 109760, Note_on_c, 1, 61, 127
2, 109760, Note_off_c, 1, 81, 0
2, 109800, Note_off_c, 1, 40, 0
2, 109800, Note_off_c, 1, 54, 0
2, 109800, Note_off_c, 1, 61, 0
2, 109800, Note_off_c, 1, 69, 0
2, 109800, Note_off_c, 1, 73, 0
2, 109840, Note_on_c, 1, 60, 127
2, 109840, Note_on_c, 1, 74, 127
2, 109840, Note_on_c, 1, 78, 127
2, 109840, Note_on_c, 1, 81, 127
2, 109840, Note_on_c, 1, 86, 127
2, 109880, Note_on_c, 1, 59, 127
2, 109880, Note_off_c, 1, 60, 0
2, 109880, Note_on_c, 1, 68, 127
2, 109880, Note_on_c, 1, 71, 127
2, 109880, Note_off_c, 1, 74, 0
2, 109880, Note_off_c, 1, 78, 0
2, 109880, Note_off_c, 1, 81, 0
2, 109880, Note_off_c, 1, 86, 0
2, 109880, Note_on_c, 1, 95, 127
2, 109920, Note_on_c, 1, 52, 127
2, 109920, Note_on_c, 1, 66, 127
2, 109920, Note_off_c, 1, 68, 0
2, 109920, Note_on_c, 1, 69, 127
2, 109920, Note_off_c, 1, 71, 0
2, 109920, Note_off_c, 1, 95, 0
2, 109960, Note_off_c, 1, 52, 0
2, 109960, Note_off_c, 1, 59, 0
2, 109960, Note_on_c, 1, 62, 127
2, 109960, Note_off_c, 1, 66, 0
2, 109960, Note_on_c, 1, 67, 127
2, 109960, Note_off_c, 1, 69, 0
2, 109960, Note_on_c, 1, 79, 127
2, 109960, Note_on_c, 1, 86, 127
2, 109960, Note_on_c, 1, 91, 127
2, 110000, Note_off_c, 1, 67, 0
2, 110000, Note_on_c, 1, 68, 127
2, 110000, Note_on_c, 1, 70, 127
2, 110000, Note_off_c, 1, 79, 0
2, 110000, Note_on_c, 1, 81, 127
2, 110000, Note_on_c, 1, 82, 127
2, 110000, Note_on_c, 1, 83, 127
2, 110000, Note_off_c, 1, 86, 0
2, 110000, Note_off_c, 1, 91, 0
2, 110040, Note_on_c, 1, 55, 127
2, 110040, Note_off_c, 1, 62, 0
2, 110040, Note_off_c, 1, 68, 0
2, 110040, Note_off_c, 1, 70, 0
2, 110040, Note_on_c, 1, 75, 127
2, 110040, Note_on_c, 1, 79, 127
2, 110040, Note_off_c, 1, 81, 0
2, 110040, Note_off_c, 1, 83, 0
2, 110040, Note_on_c, 1, 87, 127
2, 110080, Note_on_c, 1, 37, 127
2, 110080, Note_on_c, 1, 42, 127
2, 110080, Note_on_c, 1, 49, 127
2, 110080, Note_off_c, 1, 55, 0
2, 110080, Note_on_c, 1, 70, 127
2, 110080, Note_off_c, 1, 75, 0
2, 110080, Note_off_c, 1, 79, 0
2, 110080, Note_off_c, 1, 82, 0
2, 110080, Note_off_c, 1, 87, 0
2, 110120, Note_off_c, 1, 37, 0
2, 110120, Note_off_c, 1, 42, 0
2, 110120, Note_off_c, 1, 49, 0
2, 110120, Note_on_c, 1, 58, 127
2, 110120, Note_on_c, 1, 62, 127
2, 110120, Note_on_c, 1, 65, 127
2, 110120, Note_on_c, 1, 68, 127
2, 110120, Note_on_c, 1, 95, 127
2, 110160, Note_off_c, 1, 58, 0
2, 110160, Note_off_c, 1, 62, 0
2, 110160, Note_off_c, 1, 65, 0
2, 110160, Note_off_c, 1, 68, 0
2, 110160, Note_off_c, 1, 70, 0
2, 110160, Note_off_c, 1, 95, 0
2, 110240, Note_on_c, 1, 43, 127
2, 110240, Note_on_c, 1, 50, 127
2, 110240, Note_on_c, 1, 55, 127
2, 110240, Note_on_c, 1, 71, 127
2, 110240, Note_on_c, 1, 74, 127
2, 110240, Note_on_c, 1, 83, 127
2, 110280, Note_off_c, 1, 43, 0
2, 110280, Note_off_c, 1, 50, 0
2, 110280, Note_off_c, 1, 55, 0
2, 110280, Note_off_c, 1, 71, 0
2, 110280, Note_off_c, 1, 74, 0
2, 110280, Note_off_c, 1, 83, 0
2, 110320, Note_on_c, 1, 43, 127
2, 110320, Note_on_c, 1, 50, 127
2, 110320, Note_on_c, 1, 55, 127
2, 110320, Note_on_c, 1, 71, 127
2, 110320, Note_on_c, 1, 74, 127
2, 110320, Note_on_c, 1, 83, 127
2, 110960, Note_off_c, 1, 43, 0
2, 110960, Note_off_c, 1, 50, 0
2, 110960, Note_off_c, 1, 55, 0
2, 110960, Note_off_c, 1, 71, 0
2, 110960, Note_off_c, 1, 74, 0
2, 110960, Note_off_c, 1, 83, 0
2, 111000, Note_on_c, 1, 54, 127
2, 111000, Note_on_c, 1, 56, 127
2, 111000, Note_on_c, 1, 63, 127
2, 111000, Note_on_c, 1, 72, 127
2, 111720, Note_off_c, 1, 54, 0
2, 111720, Note_off_c, 1, 56, 0
2, 111720, Note_off_c, 1, 63, 0
2, 111720, Note_off_c, 1, 72, 0
2, 111760, Note_on_c, 1, 38, 127
2, 111760, Note_on_c, 1, 50, 127
2, 111760, Note_on_c, 1, 57, 127
2, 111760, Note_on_c, 1, 60, 127
2, 112120, Note_off_c, 1, 38, 0
2, 112120, Note_off_c, 1, 50, 0
2, 112120, Note_off_c, 1, 57, 0
2, 112120, Note_off_c, 1, 60, 0
2, 112120, Note_on_c, 1, 69, 127
2, 112160, Note_on_c, 1, 37, 127
2, 112160, Note_on_c, 1, 49, 127
2, 112160, Note_on_c, 1, 57, 127
2, 112160, Note_on_c, 1, 64, 127
2, 112320, Note_off_c, 1, 37, 0
2, 112320, Note_off_c, 1, 49, 0
2, 112320, Note_off_c, 1, 57, 0
2, 112320, Note_off_c, 1, 64, 0
2, 112320, Note_off_c, 1, 69, 0
2, 112360, Note_on_c, 1, 37, 127
2, 112360, Note_on_c, 1, 49, 127
2, 112360, Note_on_c, 1, 57, 127
2, 112360, Note_on_c, 1, 64, 127
2, 112360, Note_on_c, 1, 69, 127
2, 112560, Note_off_c, 1, 57, 0
2, 112560, Note_off_c, 1, 64, 0
2, 112560, Note_off_c, 1, 69, 0
2, 112600, Note_off_c, 1, 37, 0
2, 112600, Note_on_c, 1, 40, 127
2, 112600, Note_off_c, 1, 49, 0
2, 112600, Note_on_c, 1, 52, 127
2, 112600, Note_on_c, 1, 66, 127
2, 112920, Note_off_c, 1, 40, 0
2, 112920, Note_off_c, 1, 52, 0
2, 112920, Note_off_c, 1, 66, 0
2, 112960, Note_on_c, 1, 56, 127
2, 112960, Note_on_c, 1, 71, 127
2, 113320, Note_off_c, 1, 56, 0
2, 113320, Note_off_c, 1, 71, 0
2, 113360, Note_on_c, 1, 57, 127
2, 113360, Note_on_c, 1, 73, 127
2, 114080, Note_off_c, 1, 57, 0
2, 114080, Note_off_c, 1, 73, 0
2, 114120, Note_on_c, 1, 45, 127
2, 114120, Note_on_c, 1, 52, 127
2, 114120, Note_on_c, 1, 61, 127
2, 114120, Note_on_c, 1, 67, 127
2, 114320, Note_off_c, 1, 45, 0
2, 114320, Note_off_c, 1, 52, 0
2, 114320, Note_off_c, 1, 61, 0
2, 114320, Note_off_c, 1, 67, 0
2, 114360, Note_on_c, 1, 45, 127
2, 114360, Note_on_c, 1, 52, 127
2, 114360, Note_on_c, 1, 61, 127
2, 114360, Note_on_c, 1, 67, 127
2, 114680, Note_off_c, 1, 52, 0
2, 114680, Note_off_c, 1, 61, 0
2, 114720, Note_off_c, 1, 45, 0
2, 114720, Note_on_c, 1, 53, 127
2, 114720, Note_on_c, 1, 59, 127
2, 114720, Note_on_c, 1, 65, 127
2, 114720, Note_off_c, 1, 67, 0
2, 114880, Note_off_c, 1, 53, 0
2, 114880, Note_off_c, 1, 59, 0
2, 114880, Note_off_c, 1, 65, 0
2, 114920, Note_on_c, 1, 45, 127
2, 114920, Note_on_c, 1, 48, 127
2, 114920, Note_on_c, 1, 53, 127
2, 114920, Note_on_c, 1, 57, 127
2, 114920, Note_on_c, 1, 64, 127
2, 114920, Note_on_c, 1, 76, 127
2, 115040, Note_off_c, 1, 45, 0
2, 115040, Note_off_c, 1, 48, 0
2, 115040, Note_off_c, 1, 53, 0
2, 115040, Note_off_c, 1, 57, 0
2, 115040, Note_off_c, 1, 64, 0
2, 115040, Note_on_c, 1, 72, 127
2, 115040, Note_off_c, 1, 76, 0
2, 115040, Note_on_c, 1, 78, 127
2, 115040, Note_on_c, 1, 81, 127
2, 115040, Note_on_c, 1, 84, 127
2, 115080, Note_on_c, 1, 64, 127
2, 115080, Note_off_c, 1, 72, 0
2, 115080, Note_on_c, 1, 73, 127
2, 115080, Note_off_c, 1, 78, 0
2, 115080, Note_off_c, 1, 84, 0
2, 115080, Note_on_c, 1, 85, 127
2, 115120, Note_on_c, 1, 34, 127
2, 115120, Note_on_c, 1, 38, 127
2, 115120, Note_on_c, 1, 41, 127
2, 115120, Note_on_c, 1, 46, 127
2, 115120, Note_on_c, 1, 58, 127
2, 115120, Note_off_c, 1, 64, 0
2, 115120, Note_off_c, 1, 73, 0
2, 115120, Note_off_c, 1, 81, 0
2, 115120, Note_off_c, 1, 85, 0
2, 115160, Note_off_c, 1, 34, 0
2, 115160, Note_off_c, 1, 38, 0
2, 115160, Note_off_c, 1, 41, 0
2, 115160, Note_off_c, 1, 46, 0
2, 115160, Note_off_c, 1, 58, 0
2, 115160, Note_on_c, 1, 61, 127
2, 115160, Note_on_c, 1, 66, 127
2, 115160, Note_on_c, 1, 78, 127
2, 115160, Note_on_c, 1, 88, 127
2, 115200, Note_on_c, 1, 36, 127
2, 115200, Note_on_c, 1, 43, 127
2, 115200, Note_off_c, 1, 61, 0
2, 115200, Note_off_c, 1, 66, 0
2, 115200, Note_on_c, 1, 67, 127
2, 115200, Note_on_c, 1, 76, 127
2, 115200, Note_off_c, 1, 78, 0
2, 115200, Note_off_c, 1, 88, 0
2, 115240, Note_off_c, 1, 36, 0
2, 115240, Note_off_c, 1, 43, 0
2, 115240, Note_off_c, 1, 67, 0
2, 115240, Note_on_c, 1, 73, 127
2, 115240, Note_off_c, 1, 76, 0
2, 115240, Note_on_c, 1, 79, 127
2, 115240, Note_on_c, 1, 82, 127
2, 115240, Note_on_c, 1, 85, 127
2, 115240, Note_on_c, 1, 88, 127
2, 115280, Note_on_c, 1, 50, 127
2, 115280, Note_on_c, 1, 59, 127
2, 115280, Note_on_c, 1, 69, 127
2, 115280, Note_off_c, 1, 73, 0
2, 115280, Note_on_c, 1, 74, 127
2, 115280, Note_on_c, 1, 78, 127
2, 115280, Note_off_c, 1, 79, 0
2, 115280, Note_off_c, 1, 82, 0
2, 115280, Note_off_c, 1, 85, 0
2, 115280, Note_off_c, 1, 88, 0
2, 115640, Note_off_c, 1, 50, 0
2, 115640, Note_off_c, 1, 59, 0
2, 115640, Note_on_c, 1, 62, 127
2, 115640, Note_on_c, 1, 66, 127
2, 115640, Note_off_c, 1, 74, 0
2, 115640, Note_off_c, 1, 78, 0
2, 115680, Note_on_c, 1, 45, 127
2, 115680, Note_on_c, 1, 52, 127
2, 115680, Note_off_c, 1, 62, 0
2, 115680, Note_off_c, 1, 66, 0
2, 115680, Note_off_c, 1, 69, 0
2, 115680, Note_on_c, 1, 78, 127
2, 116040, Note_off_c, 1, 78, 0
2, 116080, Note_on_c, 1, 76, 127
2, 116280, Note_off_c, 1, 45, 0
2, 116280, Note_off_c, 1, 52, 0
2, 116280, Note_off_c, 1, 76, 0
2, 116320, Note_on_c, 1, 45, 127
2, 116320, Note_on_c, 1, 52, 127
2, 116320, Note_on_c, 1, 76, 127
2, 116440, Note_off_c, 1, 52, 0
2, 116440, Note_on_c, 1, 55, 127
2, 116440, Note_on_c, 1, 64, 127
2, 116440, Note_on_c, 1, 69, 127
2, 116440, Note_on_c, 1, 73, 127
2, 116480, Note_on_c, 1, 52, 127
2, 116480, Note_off_c, 1, 55, 0
2, 116480, Note_on_c, 1, 61, 127
2, 116480, Note_off_c, 1, 64, 0
2, 116480, Note_off_c, 1, 69, 0
2, 116480, Note_off_c, 1, 73, 0
2, 116480, Note_off_c, 1, 76, 0
2, 116520, Note_on_c, 1, 79, 127
2, 116520, Note_on_c, 1, 81, 127
2, 116520, Note_on_c, 1, 93, 127
2, 116560, Note_off_c, 1, 79, 0
2, 116560, Note_off_c, 1, 81, 0
2, 116560, Note_off_c, 1, 93, 0
2, 116600, Note_on_c, 1, 76, 127
2, 116640, Note_off_c, 1, 76, 0
2, 116680, Note_on_c, 1, 76, 127
2, 116720, Note_off_c, 1, 76, 0
2, 116760, Note_on_c, 1, 76, 127
2, 116840, Note_off_c, 1, 76, 0
2, 116880, Note_on_c, 1, 81, 127
2, 117240, Note_off_c, 1, 45, 0
2, 117240, Note_off_c, 1, 52, 0
2, 117240, Note_off_c, 1, 61, 0
2, 117240, Note_on_c, 1, 62, 127
2, 117240, Note_on_c, 1, 64, 127
2, 117240, Note_on_c, 1, 71, 127
2, 117240, Note_off_c, 1, 81, 0
2, 117280, Note_on_c, 1, 51, 127
2, 117280, Note_on_c, 1, 53, 127
2, 117280, Note_off_c, 1, 62, 0
2, 117280, Note_on_c, 1, 63, 127
2, 117280, Note_off_c, 1, 64, 0
2, 117280, Note_on_c, 1, 65, 127
2, 117280, Note_off_c, 1, 71, 0
2, 117280, Note_on_c, 1, 77, 127
2, 117600, Note_off_c, 1, 51, 0
2, 117600, Note_off_c, 1, 53, 0
2, 117600, Note_off_c, 1, 77, 0
2, 117640, Note_on_c, 1, 57, 127
2, 117640, Note_on_c, 1, 61, 127
2, 117640, Note_off_c, 1, 63, 0
2, 117640, Note_on_c, 1, 68, 127
2, 117640, Note_on_c, 1, 77, 127
2, 117880, Note_off_c, 1, 57, 0
2, 117880, Note_off_c, 1, 61, 0
2, 117880, Note_on_c, 1, 62, 127
2, 117880, Note_off_c, 1, 65, 0
2, 117880, Note_on_c, 1, 66, 127
2, 117880, Note_off_c, 1, 68, 0
2, 117880, Note_on_c, 1, 69, 127
2, 117880, Note_off_c, 1, 77, 0
2, 117880, Note_on_c, 1, 86, 127
2, 117920, Note_on_c, 1, 46, 127
2, 117920, Note_on_c, 1, 50, 127
2, 117920, Note_on_c, 1, 55, 127
2, 117920, Note_off_c, 1, 62, 0
2, 117920, Note_off_c, 1, 66, 0
2, 117920, Note_off_c, 1, 69, 0
2, 117920, Note_on_c, 1, 73, 127
2, 117920, Note_off_c, 1, 86, 0
2, 117960, Note_off_c, 1, 46, 0
2, 117960, Note_off_c, 1, 50, 0
2, 117960, Note_off_c, 1, 55, 0
2, 117960, Note_on_c, 1, 62, 127
2, 117960, Note_off_c, 1, 73, 0
2, 117960, Note_on_c, 1, 78, 127
2, 117960, Note_on_c, 1, 90, 127
2, 118000, Note_on_c, 1, 60, 127
2, 118000, Note_off_c, 1, 62, 0
2, 118000, Note_on_c, 1, 66, 127
2, 118000, Note_on_c, 1, 69, 127
2, 118000, Note_on_c, 1, 75, 127
2, 118000, Note_off_c, 1, 78, 0
2, 118000, Note_off_c, 1, 90, 0
2, 118040, Note_on_c, 1, 57, 127
2, 118040, Note_off_c, 1, 69, 0
2, 118360, Note_on_c, 1, 56, 127
2, 118360, Note_off_c, 1, 57, 0
2, 118400, Note_off_c, 1, 56, 0
2, 118400, Note_off_c, 1, 60, 0
2, 118400, Note_off_c, 1, 66, 0
2, 118400, Note_off_c, 1, 75, 0
2, 118480, Note_on_c, 1, 57, 127
2, 118480, Note_on_c, 1, 62, 127
2, 118480, Note_on_c, 1, 66, 127
2, 118480, Note_on_c, 1, 71, 127
2, 119200, Note_off_c, 1, 57, 0
2, 119200, Note_off_c, 1, 62, 0
2, 119200, Note_off_c, 1, 66, 0
2, 119200, Note_off_c, 1, 71, 0
2, 119240, Note_on_c, 1, 64, 127
2, 119240, Note_on_c, 1, 67, 127
2, 119240, Note_on_c, 1, 73, 127
2, 119640, Note_off_c, 1, 64, 0
2, 119960, Note_off_c, 1, 67, 0
2, 119960, Note_off_c, 1, 73, 0
2, 120040, End_track
3, 0, Start_track
3, 0, Title_t, "MIDI"
3, 1536, End_track
0, 0, End_of_file
