0, 0, Header, 1, 3, 192
1, 0, Start_track
1, 0, Time_signature, 4, 2, 24, 8
1, 0, Tempo, 500000
1, 120040, End_track
2, 0, Start_track
2, 0, Text_t, "random instrument: random person i dunno whatev"
2, 0, Title_t, "Track 1"
2, 0, Note_on_c, 1, 55, 127
2, 0, Note_on_c, 1, 59, 127
2, 0, Note_on_c, 1, 62, 127
2, 0, Note_on_c, 1, 71, 127
2, 0, Note_on_c, 1, 79, 127
2, 40, Note_off_c, 1, 59, 0
2, 40, Note_off_c, 1, 62, 0
2, 40, Note_off_c, 1, 71, 0
2, 40, Note_on_c, 1, 72, 127
2, 40, Note_on_c, 1, 75, 127
2, 40, Note_on_c, 1, 84, 127
2, 80, Note_off_c, 1, 55, 0
2, 80, Note_off_c, 1, 72, 0
2, 80, Note_off_c, 1, 75, 0
2, 80, Note_off_c, 1, 79, 0
2, 80, Note_off_c, 1, 84, 0
2, 120, Note_on_c, 1, 58, 127
2, 120, Note_on_c, 1, 65, 127
2, 120, Note_on_c, 1, 70, 127
2, 120, Note_on_c, 1, 73, 127
2, 120, Note_on_c, 1, 80, 127
2, 160, Note_on_c, 1, 53, 127
2, 160, Note_on_c, 1, 56, 127
2, 160, Note_off_c, 1, 58, 0
2, 160, Note_on_c, 1, 63, 127
2, 160, Note_off_c, 1, 65, 0
2, 160, Note_off_c, 1, 70, 0
2, 160, Note_on_c, 1, 83, 127
2, 200, Note_on_c, 1, 33, 127
2, 200, Note_on_c, 1, 37, 127
2, 200, Note_on_c, 1, 40, 127
2, 200, Note_on_c, 1, 45, 127
2, 200, Note_off_c, 1, 53, 0
2, 200, Note_off_c, 1, 56, 0
2, 200, Note_on_c, 1, 57, 127
2, 200, Note_on_c, 1, 61, 127
2, 200, Note_off_c, 1, 63, 0
2, 200, Note_on_c, 1, 64, 127
2, 200, Note_off_c, 1, 73, 0
2, 200, Note_off_c, 1, 80, 0
2, 200, Note_off_c, 1, 83, 0
2, 240, Note_off_c, 1, 33, 0
2, 240, Note_off_c, 1, 37, 0
2, 240, Note_off_c, 1, 40, 0
2, 240, Note_off_c, 1, 45, 0
2, 240, Note_off_c, 1, 57, 0
2, 240, Note_on_c, 1, 58, 127
2, 240, Note_off_c, 1, 61, 0
2, 240, Note_on_c, 1, 66, 127
2, 240, Note_on_c, 1, 73, 127
2, 240, Note_on_c, 1, 85, 127
2, 360, Note_off_c, 1, 58, 0
2, 360, Note_off_c, 1, 64, 0
2, 360, Note_off_c, 1, 66, 0
2, 360, Note_off_c, 1, 73, 0
2, 360, Note_off_c, 1, 85, 0
2, 400, Note_on_c, 1, 58, 127
2, 400, Note_on_c, 1, 70, 127
2, 600, Note_off_c, 1, 58, 0
2, 600, Note_off_c, 1, 70, 0
2, 640, Note_on_c, 1, 55, 127
2, 640, Note_on_c, 1, 67, 127
2, 800, Note_off_c, 1, 55, 0
2, 800, Note_off_c, 1, 67, 0
2, 880, Note_on_c, 1, 50, 127
2, 880, Note_on_c, 1, 55, 127
2, 880, Note_on_c, 1, 58, 127
2, 880, Note_on_c, 1, 62, 127
2, 1440, Note_off_c, 1, 50, 0
2, 1440, Note_off_c, 1, 55, 0
2, 1440, Note_off_c, 1, 58, 0
2, 1440, Note_off_c, 1, 62, 0
2, 3840, Note_on_c, 1, 59, 127
2, 3840, Note_on_c, 1, 64, 127
2, 3840, Note_on_c, 1, 68, 127
2, 4040, Note_off_c, 1, 64, 0
2, 4040, Note_off_c, 1, 68, 0
2, 4080, Note_on_c, 1, 58, 127
2, 4080, Note_off_c, 1, 59, 0
2, 4080, Note_on_c, 1, 64, 127
2, 4080, Note_on_c, 1, 67, 127
2, 4320, Note_off_c, 1, 58, 0
2, 4320, Note_off_c, 1, 64, 0
2, 4320, Note_off_c, 1, 67, 0
2, 4360, Note_on_c, 1, 59, 127
2, 4360, Note_on_c, 1, 63, 127
2, 4360, Note_on_c, 1, 66, 127
2, 4840, Note_off_c, 1, 59, 0
2, 4840, Note_off_c, 1, 63, 0
2, 4840, Note_off_c, 1, 66, 0
2, 4880, Note_on_c, 1, 59, 127
2, 4880, Note_on_c, 1, 63, 127
2, 4880, Note_on_c, 1, 66, 127
2, 5320, Note_off_c, 1, 59, 0
2, 5320, Note_off_c, 1, 63, 0
2, 5320, Note_off_c, 1, 66, 0
2, 5360, Note_on_c, 1, 59, 127
2, 5360, Note_on_c, 1, 66, 127
2, 5360, Note_on_c, 1, 69, 127
2, 5720, Note_off_c, 1, 59, 0
2, 5720, Note_off_c, 1, 66, 0
2, 5720, Note_off_c, 1, 69, 0
2, 5760, Note_on_c, 1, 59, 127
2, 5760, Note_on_c, 1, 66, 127
2, 5760, Note_on_c, 1, 69, 127
2, 5840, Note_off_c, 1, 59, 0
2, 5840, Note_off_c, 1, 66, 0
2, 5840, Note_off_c, 1, 69, 0
2, 5880, Note_on_c, 1, 65, 127
2, 5880, Note_on_c, 1, 68, 127
2, 5880, Note_on_c, 1, 74, 127
2, 6400, Note_off_c, 1, 65, 0
2, 6400, Note_off_c, 1, 68, 0
2, 6400, Note_off_c, 1, 74, 0
2, 6440, Note_on_c, 1, 63, 127
2, 6440, Note_on_c, 1, 66, 127
2, 6440, Note_on_c, 1, 75, 127
2, 6880, Note_off_c, 1, 63, 0
2, 6880, Note_off_c, 1, 66, 0
2, 6880, Note_off_c, 1, 75, 0
2, 6920, Note_on_c, 1, 65, 127
2, 6920, Note_on_c, 1, 69, 127
2, 6920, Note_on_c, 1, 75, 127
2, 7400, Note_off_c, 1, 65, 0
2, 7400, Note_off_c, 1, 69, 0
2, 7400, Note_off_c, 1, 75, 0
2, 7440, Note_on_c, 1, 70, 127
2, 7440, Note_on_c, 1, 75, 127
2, 7440, Note_on_c, 1, 78, 127
2, 7800, Note_off_c, 1, 78, 0
2, 7800, Note_on_c, 1, 79, 127
2, 7840, Note_off_c, 1, 70, 0
2, 7840, Note_off_c, 1, 75, 0
2, 7840, Note_off_c, 1, 79, 0
2, 7880, Note_on_c, 1, 70, 127
2, 7880, Note_on_c, 1, 75, 127
2, 7880, Note_on_c, 1, 78, 127
2, 7920, Note_off_c, 1, 70, 0
2, 7920, Note_off_c, 1, 75, 0
2, 7920, Note_off_c, 1, 78, 0
2, 7960, Note_on_c, 1, 68, 127
2, 7960, Note_on_c, 1, 71, 127
2, 7960, Note_on_c, 1, 74, 127
2, 7960, Note_on_c, 1, 77, 127
2, 8440, Note_off_c, 1, 68, 0
2, 8440, Note_off_c, 1, 71, 0
2, 8440, Note_off_c, 1, 74, 0
2, 8440, Note_off_c, 1, 77, 0
2, 8480, Note_on_c, 1, 66, 127
2, 8480, Note_on_c, 1, 70, 127
2, 8480, Note_on_c, 1, 75, 127
2, 8920, Note_off_c, 1, 66, 0
2, 8920, Note_off_c, 1, 70, 0
2, 8920, Note_off_c, 1, 75, 0
2, 8960, Note_on_c, 1, 73, 127
2, 8960, Note_on_c, 1, 75, 127
2, 8960, Note_on_c, 1, 78, 127
2, 9080, Note_off_c, 1, 73, 0
2, 9240, Note_on_c, 1, 58, 127
2, 9440, Note_off_c, 1, 58, 0
2, 9440, Note_off_c, 1, 75, 0
2, 9440, Note_off_c, 1, 78, 0
2, 9480, Note_on_c, 1, 61, 127
2, 9480, Note_on_c, 1, 70, 127
2, 9480, Note_on_c, 1, 76, 127
2, 9480, Note_on_c, 1, 78, 127
2, 9520, Note_off_c, 1, 61, 0
2, 10000, Note_off_c, 1, 70, 0
2, 10000, Note_off_c, 1, 76, 0
2, 10000, Note_off_c, 1, 78, 0
2, 10080, Note_on_c, 1, 70, 127
2, 10080, Note_on_c, 1, 73, 127
2, 10080, Note_on_c, 1, 76, 127
2, 10080, Note_on_c, 1, 78, 127
2, 10320, Note_off_c, 1, 78, 0
2, 10360, Note_on_c, 1, 78, 127
2, 10480, Note_off_c, 1, 78, 0
2, 10560, Note_off_c, 1, 70, 0
2, 10560, Note_off_c, 1, 73, 0
2, 10560, Note_off_c, 1, 76, 0
2, 10600, Note_on_c, 1, 71, 127
2, 10600, Note_on_c, 1, 75, 127
2, 11360, Note_off_c, 1, 71, 0
2, 11360, Note_off_c, 1, 75, 0
2, 11400, Note_on_c, 1, 54, 127
2, 11400, Note_on_c, 1, 64, 127
2, 11400, Note_on_c, 1, 70, 127
2, 11400, Note_on_c, 1, 75, 127
2, 11480, Note_off_c, 1, 75, 0
2, 11520, Note_on_c, 1, 73, 127
2, 11960, Note_off_c, 1, 54, 0
2, 11960, Note_off_c, 1, 64, 0
2, 11960, Note_off_c, 1, 70, 0
2, 11960, Note_off_c, 1, 73, 0
2, 12040, Note_on_c, 1, 59, 127
2, 12040, Note_on_c, 1, 63, 127
2, 12040, Note_on_c, 1, 71, 127
2, 12240, Note_off_c, 1, 59, 0
2, 12240, Note_off_c, 1, 63, 0
2, 12240, Note_off_c, 1, 71, 0
2, 12280, Note_on_c, 1, 48, 127
2, 12280, Note_on_c, 1, 56, 127
2, 12280, Note_on_c, 1, 60, 127
2, 12280, Note_on_c, 1, 68, 127
2, 12320, Note_off_c, 1, 48, 0
2, 12320, Note_off_c, 1, 56, 0
2, 12320, Note_off_c, 1, 60, 0
2, 12320, Note_off_c, 1, 68, 0
2, 12360, Note_on_c, 1, 48, 127
2, 12360, Note_on_c, 1, 56, 127
2, 12360, Note_on_c, 1, 60, 127
2, 12360, Note_on_c, 1, 68, 127
2, 12400, Note_off_c, 1, 48, 0
2, 12400, Note_off_c, 1, 56, 0
2, 12400, Note_off_c, 1, 60, 0
2, 12400, Note_off_c, 1, 68, 0
2, 12440, Note_on_c, 1, 48, 127
2, 12440, Note_on_c, 1, 56, 127
2, 12440, Note_on_c, 1, 60, 127
2, 12440, Note_on_c, 1, 68, 127
2, 12480, Note_off_c, 1, 48, 0
2, 12480, Note_off_c, 1, 56, 0
2, 12480, Note_off_c, 1, 60, 0
2, 12480, Note_off_c, 1, 68, 0
2, 12520, Note_on_c, 1, 48, 127
2, 12520, Note_on_c, 1, 56, 127
2, 12520, Note_on_c, 1, 60, 127
2, 12520, Note_on_c, 1, 68, 127
2, 12560, Note_off_c, 1, 48, 0
2, 12560, Note_off_c, 1, 56, 0
2, 12560, Note_off_c, 1, 60, 0
2, 12560, Note_off_c, 1, 68, 0
2, 12600, Note_on_c, 1, 48, 127
2, 12600, Note_on_c, 1, 56, 127
2, 12600, Note_on_c, 1, 60, 127
2, 12600, Note_on_c, 1, 68, 127
2, 12640, Note_off_c, 1, 48, 0
2, 12640, Note_off_c, 1, 56, 0
2, 12640, Note_off_c, 1, 60, 0
2, 12640, Note_off_c, 1, 68, 0
2, 12680, Note_on_c, 1, 48, 127
2, 12680, Note_on_c, 1, 56, 127
2, 12680, Note_on_c, 1, 60, 127
2, 12680, Note_on_c, 1, 68, 127
2, 12720, Note_off_c, 1, 48, 0
2, 12720, Note_off_c, 1, 56, 0
2, 12720, Note_off_c, 1, 60, 0
2, 12720, Note_off_c, 1, 68, 0
2, 12760, Note_on_c, 1, 48, 127
2, 12760, Note_on_c, 1, 56, 127
2, 12760, Note_on_c, 1, 60, 127
2, 12760, Note_on_c, 1, 68, 127
2, 12800, Note_off_c, 1, 48, 0
2, 12800, Note_on_c, 1, 51, 127
2, 12800, Note_off_c, 1, 56, 0
2, 12800, Note_on_c, 1, 57, 127
2, 12800, Note_on_c, 1, 65, 127
2, 12800, Note_off_c, 1, 68, 0
2, 12840, Note_off_c, 1, 51, 0
2, 12840, Note_on_c, 1, 53, 127
2, 12840, Note_off_c, 1, 57, 0
2, 12840, Note_on_c, 1, 72, 127
2, 12880, Note_on_c, 1, 37, 127
2, 12880, Note_on_c, 1, 44, 127
2, 12880, Note_on_c, 1, 49, 127
2, 12880, Note_on_c, 1, 56, 127
2, 12880, Note_off_c, 1, 60, 0
2, 12880, Note_off_c, 1, 72, 0
2, 12960, Note_off_c, 1, 37, 0
2, 12960, Note_off_c, 1, 44, 0
2, 12960, Note_off_c, 1, 49, 0
2, 12960, Note_off_c, 1, 53, 0
2, 12960, Note_off_c, 1, 56, 0
2, 12960, Note_off_c, 1, 65, 0
2, 13000, Note_on_c, 1, 49, 127
2, 13000, Note_on_c, 1, 54, 127
2, 13000, Note_on_c, 1, 75, 127
2, 13040, Note_off_c, 1, 49, 0
2, 13040, Note_off_c, 1, 54, 0
2, 13040, Note_off_c, 1, 75, 0
2, 13080, Note_on_c, 1, 49, 127
2, 13080, Note_on_c, 1, 58, 127
2, 13080, Note_on_c, 1, 66, 127
2, 13080, Note_on_c, 1, 72, 127
2, 13080, Note_on_c, 1, 84, 127
2, 13120, Note_off_c, 1, 49, 0
2, 13120, Note_off_c, 1, 58, 0
2, 13120, Note_off_c, 1, 66, 0
2, 13120, Note_off_c, 1, 72, 0
2, 13120, Note_off_c, 1, 84, 0
2, 13160, Note_on_c, 1, 49, 127
2, 13160, Note_on_c, 1, 55, 127
2, 13160, Note_on_c, 1, 64, 127
2, 13160, Note_on_c, 1, 76, 127
2, 13200, Note_off_c, 1, 49, 0
2, 13200, Note_off_c, 1, 55, 0
2, 13200, Note_off_c, 1, 64, 0
2, 13200, Note_off_c, 1, 76, 0
2, 13240, Note_on_c, 1, 49, 127
2, 13240, Note_on_c, 1, 63, 127
2, 13240, Note_on_c, 1, 71, 127
2, 13280, Note_off_c, 1, 49, 0
2, 13280, Note_off_c, 1, 63, 0
2, 13280, Note_off_c, 1, 71, 0
2, 13320, Note_on_c, 1, 49, 127
2, 13320, Note_on_c, 1, 61, 127
2, 13320, Note_on_c, 1, 73, 127
2, 13360, Note_off_c, 1, 49, 0
2, 13360, Note_off_c, 1, 61, 0
2, 13360, Note_off_c, 1, 73, 0
2, 13400, Note_on_c, 1, 54, 127
2, 13400, Note_on_c, 1, 58, 127
2, 13400, Note_on_c, 1, 66, 127
2, 13400, Note_on_c, 1, 75, 127
2, 13440, Note_off_c, 1, 54, 0
2, 13440, Note_off_c, 1, 58, 0
2, 13440, Note_off_c, 1, 66, 0
2, 13440, Note_off_c, 1, 75, 0
2, 13480, Note_on_c, 1, 47, 127
2, 13480, Note_on_c, 1, 59, 127
2, 13480, Note_on_c, 1, 71, 127
2, 13560, Note_off_c, 1, 47, 0
2, 13560, Note_off_c, 1, 59, 0
2, 13560, Note_off_c, 1, 71, 0
2, 13600, Note_on_c, 1, 54, 127
2, 13600, Note_on_c, 1, 66, 127
2, 13600, Note_on_c, 1, 78, 127
2, 13640, Note_off_c, 1, 54, 0
2, 13640, Note_off_c, 1, 66, 0
2, 13640, Note_off_c, 1, 78, 0
2, 13680, Note_on_c, 1, 52, 127
2, 13680, Note_on_c, 1, 57, 127
2, 13680, Note_on_c, 1, 64, 127
2, 13680, Note_on_c, 1, 68, 127
2, 13680, Note_on_c, 1, 73, 127
2, 13680, Note_on_c, 1, 80, 127
2, 13720, Note_off_c, 1, 52, 0
2, 13720, Note_off_c, 1, 57, 0
2, 13720, Note_off_c, 1, 64, 0
2, 13720, Note_off_c, 1, 68, 0
2, 13720, Note_off_c, 1, 73, 0
2, 13720, Note_off_c, 1, 80, 0
2, 13760, Note_on_c, 1, 52, 127
2, 13760, Note_on_c, 1, 57, 127
2, 13760, Note_on_c, 1, 64, 127
2, 13760, Note_on_c, 1, 68, 127
2, 13760, Note_on_c, 1, 73, 127
2, 13760, Note_on_c, 1, 80, 127
2, 13800, Note_off_c, 1, 52, 0
2, 13800, Note_off_c, 1, 57, 0
2, 13800, Note_off_c, 1, 64, 0
2, 13800, Note_off_c, 1, 68, 0
2, 13800, Note_off_c, 1, 73, 0
2, 13800, Note_off_c, 1, 80, 0
2, 13840, Note_on_c, 1, 52, 127
2, 13840, Note_on_c, 1, 57, 127
2, 13840, Note_on_c, 1, 64, 127
2, 13840, Note_on_c, 1, 68, 127
2, 13840, Note_on_c, 1, 73, 127
2, 13840, Note_on_c, 1, 80, 127
2, 13880, Note_off_c, 1, 52, 0
2, 13880, Note_off_c, 1, 57, 0
2, 13880, Note_off_c, 1, 64, 0
2, 13880, Note_off_c, 1, 68, 0
2, 13880, Note_off_c, 1, 73, 0
2, 13880, Note_off_c, 1, 80, 0
2, 13920, Note_on_c, 1, 54, 127
2, 13920, Note_on_c, 1, 59, 127
2, 13920, Note_on_c, 1, 66, 127
2, 13920, Note_on_c, 1, 71, 127
2, 13960, Note_off_c, 1, 54, 0
2, 13960, Note_off_c, 1, 59, 0
2, 13960, Note_off_c, 1, 66, 0
2, 13960, Note_off_c, 1, 71, 0
2, 14000, Note_on_c, 1, 54, 127
2, 14000, Note_on_c, 1, 61, 127
2, 14000, Note_on_c, 1, 66, 127
2, 14000, Note_on_c, 1, 70, 127
2, 14040, Note_off_c, 1, 54, 0
2, 14040, Note_off_c, 1, 61, 0
2, 14040, Note_off_c, 1, 66, 0
2, 14040, Note_off_c, 1, 70, 0
2, 14160, Note_on_c, 1, 54, 127
2, 14160, Note_on_c, 1, 66, 127
2, 14240, Note_on_c, 1, 51, 127
2, 14240, Note_on_c, 1, 63, 127
2, 14280, Note_off_c, 1, 51, 0
2, 14280, Note_off_c, 1, 63, 0
2, 14320, Note_on_c, 1, 51, 127
2, 14320, Note_on_c, 1, 63, 127
2, 14360, Note_off_c, 1, 51, 0
2, 14360, Note_off_c, 1, 54, 0
2, 14360, Note_off_c, 1, 63, 0
2, 14360, Note_off_c, 1, 66, 0
2, 14400, Note_on_c, 1, 51, 127
2, 14400, Note_on_c, 1, 63, 127
2, 14400, Note_on_c, 1, 70, 127
2, 14400, Note_on_c, 1, 82, 127
2, 14440, Note_off_c, 1, 51, 0
2, 14440, Note_off_c, 1, 63, 0
2, 14440, Note_off_c, 1, 70, 0
2, 14440, Note_off_c, 1, 82, 0
2, 14480, Note_on_c, 1, 70, 127
2, 14480, Note_on_c, 1, 82, 127
2, 14520, Note_on_c, 1, 54, 127
2, 14520, Note_on_c, 1, 66, 127
2, 14520, Note_off_c, 1, 70, 0
2, 14520, Note_off_c, 1, 82, 0
2, 14560, Note_off_c, 1, 54, 0
2, 14560, Note_off_c, 1, 66, 0
2, 14600, Note_on_c, 1, 44, 127
2, 14600, Note_on_c, 1, 48, 127
2, 14600, Note_on_c, 1, 58, 127
2, 14600, Note_on_c, 1, 84, 127
2, 14600, Note_on_c, 1, 92, 127
2, 14600, Note_on_c, 1, 96, 127
2, 14640, Note_off_c, 1, 44, 0
2, 14640, Note_off_c, 1, 48, 0
2, 14640, Note_off_c, 1, 58, 0
2, 14640, Note_off_c, 1, 84, 0
2, 14640, Note_off_c, 1, 92, 0
2, 14640, Note_off_c, 1, 96, 0
2, 14680, Note_on_c, 1, 47, 127
2, 14680, Note_on_c, 1, 54, 127
2, 14680, Note_on_c, 1, 59, 127
2, 14680, Note_on_c, 1, 63, 127
2, 14680, Note_on_c, 1, 66, 127
2, 14720, Note_off_c, 1, 47, 0
2, 14720, Note_off_c, 1, 54, 0
2, 14720, Note_off_c, 1, 59, 0
2, 14720, Note_off_c, 1, 63, 0
2, 14720, Note_off_c, 1, 66, 0
2, 14760, Note_on_c, 1, 36, 127
2, 14760, Note_on_c, 1, 43, 127
2, 14760, Note_on_c, 1, 48, 127
2, 14760, Note_on_c, 1, 79, 127
2, 14760, Note_on_c, 1, 84, 127
2, 14760, Note_on_c, 1, 91, 127
2, 14800, Note_off_c, 1, 36, 0
2, 14800, Note_off_c, 1, 43, 0
2, 14800, Note_off_c, 1, 48, 0
2, 14800, Note_off_c, 1, 79, 0
2, 14800, Note_off_c, 1, 84, 0
2, 14800, Note_off_c, 1, 91, 0
2, 14840, Note_on_c, 1, 45, 127
2, 14840, Note_on_c, 1, 57, 127
2, 14840, Note_on_c, 1, 64, 127
2, 14840, Note_on_c, 1, 67, 127
2, 14840, Note_on_c, 1, 71, 127
2, 14880, Note_off_c, 1, 45, 0
2, 14880, Note_off_c, 1, 57, 0
2, 14880, Note_off_c, 1, 64, 0
2, 14880, Note_off_c, 1, 67, 0
2, 14880, Note_off_c, 1, 71, 0
2, 14920, Note_on_c, 1, 45, 127
2, 14920, Note_on_c, 1, 52, 127
2, 14920, Note_on_c, 1, 55, 127
2, 14920, Note_on_c, 1, 61, 127
2, 14920, Note_on_c, 1, 69, 127
2, 14920, Note_on_c, 1, 73, 127
2, 14960, Note_off_c, 1, 45, 0
2, 14960, Note_on_c, 1, 49, 127
2, 14960, Note_off_c, 1, 52, 0
2, 14960, Note_off_c, 1, 55, 0
2, 14960, Note_off_c, 1, 61, 0
2, 14960, Note_on_c, 1, 66, 127
2, 14960, Note_on_c, 1, 68, 127
2, 14960, Note_off_c, 1, 69, 0
2, 14960, Note_off_c, 1, 73, 0
2, 15160, Note_off_c, 1, 49, 0
2, 15160, Note_off_c, 1, 66, 0
2, 15160, Note_off_c, 1, 68, 0
2, 15200, Note_on_c, 1, 47, 127
2, 15200, Note_on_c, 1, 59, 127
2, 15200, Note_on_c, 1, 63, 127
2, 15200, Note_on_c, 1, 66, 127
2, 15240, Note_off_c, 1, 47, 0
2, 15240, Note_off_c, 1, 59, 0
2, 15240, Note_off_c, 1, 63, 0
2, 15240, Note_off_c, 1, 66, 0
2, 15280, Note_on_c, 1, 47, 127
2, 15280, Note_on_c, 1, 59, 127
2, 15280, Note_on_c, 1, 63, 127
2, 15280, Note_on_c, 1, 66, 127
2, 15320, Note_off_c, 1, 47, 0
2, 15320, Note_off_c, 1, 59, 0
2, 15320, Note_off_c, 1, 63, 0
2, 15320, Note_off_c, 1, 66, 0
2, 15360, Note_on_c, 1, 52, 127
2, 15360, Note_on_c, 1, 59, 127
2, 15360, Note_on_c, 1, 64, 127
2, 15360, Note_on_c, 1, 68, 127
2, 15440, Note_off_c, 1, 52, 0
2, 15440, Note_off_c, 1, 59, 0
2, 15440, Note_off_c, 1, 64, 0
2, 15440, Note_off_c, 1, 68, 0
2, 15480, Note_on_c, 1, 54, 127
2, 15480, Note_on_c, 1, 66, 127
2, 15560, Note_on_c, 1, 70, 127
2, 15560, Note_on_c, 1, 73, 127
2, 15600, Note_off_c, 1, 54, 0
2, 15600, Note_off_c, 1, 66, 0
2, 15600, Note_off_c, 1, 70, 0
2, 15600, Note_off_c, 1, 73, 0
2, 15640, Note_on_c, 1, 61, 127
2, 15640, Note_on_c, 1, 73, 127
2, 15680, Note_off_c, 1, 61, 0
2, 15680, Note_off_c, 1, 73, 0
2, 15720, Note_on_c, 1, 56, 127
2, 15720, Note_on_c, 1, 68, 127
2, 15720, Note_on_c, 1, 72, 127
2, 15720, Note_on_c, 1, 75, 127
2, 15760, Note_off_c, 1, 56, 0
2, 15760, Note_off_c, 1, 68, 0
2, 15760, Note_off_c, 1, 72, 0
2, 15760, Note_off_c, 1, 75, 0
2, 15800, Note_on_c, 1, 47, 127
2, 15800, Note_on_c, 1, 59, 127
2, 15800, Note_on_c, 1, 76, 127
2, 15800, Note_on_c, 1, 80, 127
2, 15840, Note_off_c, 1, 47, 0
2, 15840, Note_off_c, 1, 59, 0
2, 15840, Note_off_c, 1, 76, 0
2, 15840, Note_off_c, 1, 80, 0
2, 15880, Note_on_c, 1, 52, 127
2, 15880, Note_on_c, 1, 56, 127
2, 15880, Note_on_c, 1, 71, 127
2, 15880, Note_on_c, 1, 83, 127
2, 15920, Note_off_c, 1, 52, 0
2, 15920, Note_off_c, 1, 56, 0
2, 15920, Note_off_c, 1, 71, 0
2, 15920, Note_off_c, 1, 83, 0
2, 15960, Note_on_c, 1, 52, 127
2, 15960, Note_on_c, 1, 56, 127
2, 15960, Note_on_c, 1, 71, 127
2, 15960, Note_on_c, 1, 83, 127
2, 16000, Note_off_c, 1, 52, 0
2, 16000, Note_off_c, 1, 56, 0
2, 16000, Note_off_c, 1, 71, 0
2, 16000, Note_off_c, 1, 83, 0
2, 16040, Note_on_c, 1, 36, 127
2, 16040, Note_on_c, 1, 48, 127
2, 16040, Note_on_c, 1, 57, 127
2, 16040, Note_on_c, 1, 69, 127
2, 16080, Note_off_c, 1, 36, 0
2, 16080, Note_off_c, 1, 48, 0
2, 16080, Note_on_c, 1, 60, 127
2, 16080, Note_on_c, 1, 63, 127
2, 16080, Note_off_c, 1, 69, 0
2, 16080, Note_on_c, 1, 72, 127
2, 16080, Note_on_c, 1, 78, 127
2, 16080, Note_on_c, 1, 83, 127
2, 16120, Note_off_c, 1, 57, 0
2, 16120, Note_off_c, 1, 60, 0
2, 16120, Note_off_c, 1, 63, 0
2, 16120, Note_off_c, 1, 72, 0
2, 16120, Note_off_c, 1, 78, 0
2, 16120, Note_off_c, 1, 83, 0
2, 16200, Note_on_c, 1, 64, 127
2, 16200, Note_on_c, 1, 76, 127
2, 16240, Note_off_c, 1, 64, 0
2, 16240, Note_off_c, 1, 76, 0
2, 16280, Note_on_c, 1, 67, 127
2, 16280, Note_on_c, 1, 79, 127
2, 16360, Note_on_c, 1, 57, 127
2, 16360, Note_off_c, 1, 67, 0
2, 16360, Note_on_c, 1, 69, 127
2, 16360, Note_on_c, 1, 74, 127
2, 16360, Note_on_c, 1, 78, 127
2, 16360, Note_off_c, 1, 79, 0
2, 16400, Note_off_c, 1, 57, 0
2, 16400, Note_off_c, 1, 69, 0
2, 16400, Note_off_c, 1, 74, 0
2, 16400, Note_off_c, 1, 78, 0
2, 16440, Note_on_c, 1, 62, 127
2, 16440, Note_on_c, 1, 72, 127
2, 16480, Note_off_c, 1, 62, 0
2, 16480, Note_off_c, 1, 72, 0
2, 16520, Note_on_c, 1, 64, 127
2, 16520, Note_on_c, 1, 68, 127
2, 16520, Note_on_c, 1, 71, 127
2, 16520, Note_on_c, 1, 76, 127
2, 16560, Note_off_c, 1, 64, 0
2, 16560, Note_off_c, 1, 68, 0
2, 16560, Note_off_c, 1, 71, 0
2, 16560, Note_off_c, 1, 76, 0
2, 16600, Note_on_c, 1, 52, 127
2, 16600, Note_on_c, 1, 57, 127
2, 16600, Note_on_c, 1, 64, 127
2, 16600, Note_on_c, 1, 68, 127
2, 16600, Note_on_c, 1, 73, 127
2, 16600, Note_on_c, 1, 80, 127
2, 16640, Note_off_c, 1, 52, 0
2, 16640, Note_off_c, 1, 57, 0
2, 16640, Note_off_c, 1, 64, 0
2, 16640, Note_off_c, 1, 68, 0
2, 16640, Note_off_c, 1, 73, 0
2, 16640, Note_off_c, 1, 80, 0
2, 16680, Note_on_c, 1, 66, 127
2, 16680, Note_on_c, 1, 78, 127
2, 16720, Note_off_c, 1, 66, 0
2, 16720, Note_off_c, 1, 78, 0
2, 16760, Note_on_c, 1, 64, 127
2, 16760, Note_on_c, 1, 76, 127
2, 16800, Note_on_c, 1, 35, 127
2, 16800, Note_on_c, 1, 47, 127
2, 16800, Note_off_c, 1, 64, 0
2, 16800, Note_on_c, 1, 71, 127
2, 16800, Note_off_c, 1, 76, 0
2, 16800, Note_on_c, 1, 83, 127
2, 16840, Note_off_c, 1, 35, 0
2, 16840, Note_off_c, 1, 47, 0
2, 16840, Note_off_c, 1, 71, 0
2, 16840, Note_off_c, 1, 83, 0
2, 16880, Note_on_c, 1, 64, 127
2, 16880, Note_on_c, 1, 76, 127
2, 16960, Note_on_c, 1, 31, 127
2, 16960, Note_on_c, 1, 43, 127
2, 16960, Note_off_c, 1, 64, 0
2, 16960, Note_on_c, 1, 67, 127
2, 16960, Note_off_c, 1, 76, 0
2, 16960, Note_on_c, 1, 79, 127
2, 17000, Note_off_c, 1, 31, 0
2, 17000, Note_off_c, 1, 43, 0
2, 17000, Note_off_c, 1, 67, 0
2, 17000, Note_off_c, 1, 79, 0
2, 17040, Note_on_c, 1, 66, 127
2, 17040, Note_on_c, 1, 78, 127
2, 17080, Note_off_c, 1, 66, 0
2, 17080, Note_off_c, 1, 78, 0
2, 17120, Note_on_c, 1, 42, 127
2, 17120, Note_on_c, 1, 54, 127
2, 17120, Note_on_c, 1, 78, 127
2, 17120, Note_on_c, 1, 90, 127
2, 17160, Note_off_c, 1, 42, 0
2, 17160, Note_off_c, 1, 54, 0
2, 17160, Note_off_c, 1, 78, 0
2, 17160, Note_off_c, 1, 90, 0
2, 17200, Note_on_c, 1, 67, 127
2, 17200, Note_on_c, 1, 79, 127
2, 17240, Note_off_c, 1, 67, 0
2, 17240, Note_off_c, 1, 79, 0
2, 17280, Note_on_c, 1, 67, 127
2, 17280, Note_on_c, 1, 79, 127
2, 17320, Note_on_c, 1, 54, 127
2, 17320, Note_on_c, 1, 57, 127
2, 17320, Note_on_c, 1, 61, 127
2, 17320, Note_on_c, 1, 66, 127
2, 17320, Note_off_c, 1, 67, 0
2, 17320, Note_on_c, 1, 73, 127
2, 17320, Note_off_c, 1, 79, 0
2, 17320, Note_on_c, 1, 85, 127
2, 17360, Note_off_c, 1, 54, 0
2, 17360, Note_off_c, 1, 57, 0
2, 17360, Note_off_c, 1, 61, 0
2, 17360, Note_off_c, 1, 66, 0
2, 17360, Note_off_c, 1, 73, 0
2, 17360, Note_off_c, 1, 85, 0
2, 17400, Note_on_c, 1, 72, 127
2, 17400, Note_on_c, 1, 84, 127
2, 17440, Note_off_c, 1, 72, 0
2, 17440, Note_off_c, 1, 84, 0
2, 17480, Note_on_c, 1, 59, 127
2, 17480, Note_on_c, 1, 64, 127
2, 17480, Note_on_c, 1, 66, 127
2, 17480, Note_on_c, 1, 71, 127
2, 17480, Note_on_c, 1, 83, 127
2, 17680, Note_on_c, 1, 37, 127
2, 17680, Note_on_c, 1, 40, 127
2, 17680, Note_on_c, 1, 45, 127
2, 17680, Note_on_c, 1, 49, 127
2, 17680, Note_off_c, 1, 59, 0
2, 17680, Note_off_c, 1, 64, 0
2, 17680, Note_off_c, 1, 66, 0
2, 17680, Note_off_c, 1, 71, 0
2, 17680, Note_off_c, 1, 83, 0
2, 17720, Note_off_c, 1, 37, 0
2, 17720, Note_off_c, 1, 40, 0
2, 17720, Note_off_c, 1, 45, 0
2, 17720, Note_off_c, 1, 49, 0
2, 17720, Note_on_c, 1, 59, 127
2, 17720, Note_on_c, 1, 64, 127
2, 17720, Note_on_c, 1, 66, 127
2, 17720, Note_on_c, 1, 71, 127
2, 17720, Note_on_c, 1, 83, 127
2, 17880, Note_off_c, 1, 59, 0
2, 17880, Note_off_c, 1, 64, 0
2, 17880, Note_off_c, 1, 66, 0
2, 17880, Note_off_c, 1, 83, 0
2, 17920, Note_on_c, 1, 59, 127
2, 17920, Note_off_c, 1, 71, 0
2, 17920, Note_on_c, 1, 73, 127
2, 17920, Note_on_c, 1, 85, 127
2, 17960, Note_off_c, 1, 59, 0
2, 18000, Note_on_c, 1, 49, 127
2, 18040, Note_off_c, 1, 49, 0
2, 18080, Note_on_c, 1, 52, 127
2, 18080, Note_on_c, 1, 55, 127
2, 18080, Note_off_c, 1, 73, 0
2, 18080, Note_on_c, 1, 76, 127
2, 18080, Note_on_c, 1, 79, 127
2, 18080, Note_off_c, 1, 85, 0
2, 18120, Note_off_c, 1, 52, 0
2, 18120, Note_off_c, 1, 55, 0
2, 18120, Note_off_c, 1, 76, 0
2, 18120, Note_off_c, 1, 79, 0
2, 18160, Note_on_c, 1, 76, 127
2, 18160, Note_on_c, 1, 88, 127
2, 18200, Note_on_c, 1, 47, 127
2, 18200, Note_on_c, 1, 73, 127
2, 18200, Note_off_c, 1, 76, 0
2, 18200, Note_on_c, 1, 85, 127
2, 18200, Note_off_c, 1, 88, 0
2, 18240, Note_off_c, 1, 47, 0
2, 18280, Note_on_c, 1, 47, 127
2, 18280, Note_on_c, 1, 59, 127
2, 18280, Note_on_c, 1, 66, 127
2, 18280, Note_on_c, 1, 76, 127
2, 18280, Note_off_c, 1, 85, 0
2, 18360, Note_off_c, 1, 47, 0
2, 18360, Note_off_c, 1, 59, 0
2, 18360, Note_off_c, 1, 66, 0
2, 18360, Note_off_c, 1, 73, 0
2, 18360, Note_off_c, 1, 76, 0
2, 18400, Note_on_c, 1, 55, 127
2, 18400, Note_on_c, 1, 62, 127
2, 18400, Note_on_c, 1, 71, 127
2, 18400, Note_on_c, 1, 79, 127
2, 18400, Note_on_c, 1, 83, 127
2, 18440, Note_off_c, 1, 55, 0
2, 18440, Note_off_c, 1, 62, 0
2, 18440, Note_off_c, 1, 71, 0
2, 18440, Note_on_c, 1, 74, 127
2, 18440, Note_off_c, 1, 79, 0
2, 18440, Note_off_c, 1, 83, 0
2, 18440, Note_on_c, 1, 86, 127
2, 18480, Note_on_c, 1, 55, 127
2, 18480, Note_on_c, 1, 62, 127
2, 18480, Note_on_c, 1, 71, 127
2, 18480, Note_off_c, 1, 74, 0
2, 18480, Note_on_c, 1, 79, 127
2, 18480, Note_on_c, 1, 83, 127
2, 18480, Note_off_c, 1, 86, 0
2, 18600, Note_off_c, 1, 55, 0
2, 18600, Note_off_c, 1, 62, 0
2, 18600, Note_off_c, 1, 71, 0
2, 18600, Note_on_c, 1, 74, 127
2, 18600, Note_off_c, 1, 79, 0
2, 18600, Note_off_c, 1, 83, 0
2, 18600, Note_on_c, 1, 86, 127
2, 18640, Note_on_c, 1, 38, 127
2, 18640, Note_on_c, 1, 50, 127
2, 18680, Note_off_c, 1, 38, 0
2, 18680, Note_off_c, 1, 50, 0
2, 18720, Note_on_c, 1, 50, 127
2, 18720, Note_on_c, 1, 62, 127
2, 18720, Note_on_c, 1, 71, 127
2, 18720, Note_off_c, 1, 74, 0
2, 18720, Note_on_c, 1, 83, 127
2, 18720, Note_off_c, 1, 86, 0
2, 18760, Note_off_c, 1, 50, 0
2, 18760, Note_off_c, 1, 62, 0
2, 18760, Note_off_c, 1, 71, 0
2, 18760, Note_off_c, 1, 83, 0
2, 18800, Note_on_c, 1, 78, 127
2, 18800, Note_on_c, 1, 90, 127
2, 18880, Note_on_c, 1, 51, 127
2, 18880, Note_on_c, 1, 58, 127
2, 18880, Note_on_c, 1, 72, 127
2, 18880, Note_off_c, 1, 78, 0
2, 18880, Note_on_c, 1, 84, 127
2, 18880, Note_off_c, 1, 90, 0
2, 18920, Note_on_c, 1, 37, 127
2, 18920, Note_off_c, 1, 51, 0
2, 18920, Note_off_c, 1, 58, 0
2, 18920, Note_on_c, 1, 68, 127
2, 18920, Note_off_c, 1, 72, 0
2, 18920, Note_on_c, 1, 75, 127
2, 18920, Note_on_c, 1, 83, 127
2, 18920, Note_off_c, 1, 84, 0
2, 18960, Note_off_c, 1, 37, 0
2, 18960, Note_on_c, 1, 51, 127
2, 18960, Note_on_c, 1, 59, 127
2, 18960, Note_on_c, 1, 62, 127
2, 18960, Note_off_c, 1, 75, 0
2, 18960, Note_off_c, 1, 83, 0
2, 19000, Note_on_c, 1, 54, 127
2, 19000, Note_off_c, 1, 62, 0
2, 19000, Note_off_c, 1, 68, 0
2, 19000, Note_on_c, 1, 95, 127
2, 19040, Note_off_c, 1, 51, 0
2, 19040, Note_off_c, 1, 54, 0
2, 19040, Note_off_c, 1, 59, 0
2, 19040, Note_off_c, 1, 95, 0
2, 19080, Note_on_c, 1, 42, 127
2, 19080, Note_on_c, 1, 54, 127
2, 19080, Note_on_c, 1, 66, 127
2, 19080, Note_on_c, 1, 78, 127
2, 19120, Note_off_c, 1, 42, 0
2, 19120, Note_off_c, 1, 54, 0
2, 19120, Note_off_c, 1, 66, 0
2, 19120, Note_off_c, 1, 78, 0
2, 19160, Note_on_c, 1, 43, 127
2, 19160, Note_on_c, 1, 55, 127
2, 19160, Note_on_c, 1, 67, 127
2, 19160, Note_on_c, 1, 79, 127
2, 19200, Note_off_c, 1, 43, 0
2, 19200, Note_off_c, 1, 55, 0
2, 19200, Note_off_c, 1, 67, 0
2, 19200, Note_off_c, 1, 79, 0
2, 19240, Note_on_c, 1, 45, 127
2, 19240, Note_on_c, 1, 57, 127
2, 19240, Note_on_c, 1, 75, 127
2, 19240, Note_on_c, 1, 78, 127
2, 19240, Note_on_c, 1, 87, 127
2, 19280, Note_off_c, 1, 75, 0
2, 19280, Note_off_c, 1, 78, 0
2, 19280, Note_off_c, 1, 87, 0
2, 19320, Note_on_c, 1, 85, 127
2, 19360, Note_off_c, 1, 45, 0
2, 19360, Note_off_c, 1, 57, 0
2, 19360, Note_off_c, 1, 85, 0
2, 19400, Note_on_c, 1, 46, 127
2, 19400, Note_on_c, 1, 58, 127
2, 19400, Note_on_c, 1, 78, 127
2, 19400, Note_on_c, 1, 82, 127
2, 19400, Note_on_c, 1, 90, 127
2, 19440, Note_off_c, 1, 46, 0
2, 19440, Note_off_c, 1, 58, 0
2, 19440, Note_off_c, 1, 78, 0
2, 19440, Note_off_c, 1, 82, 0
2, 19440, Note_off_c, 1, 90, 0
2, 19480, Note_on_c, 1, 46, 127
2, 19480, Note_on_c, 1, 58, 127
2, 19480, Note_on_c, 1, 78, 127
2, 19480, Note_on_c, 1, 82, 127
2, 19480, Note_on_c, 1, 90, 127
2, 19520, Note_on_c, 1, 36, 127
2, 19520, Note_off_c, 1, 46, 0
2, 19520, Note_on_c, 1, 48, 127
2, 19520, Note_on_c, 1, 52, 127
2, 19520, Note_on_c, 1, 64, 127
2, 19520, Note_off_c, 1, 78, 0
2, 19520, Note_off_c, 1, 82, 0
2, 19520, Note_off_c, 1, 90, 0
2, 19560, Note_off_c, 1, 36, 0
2, 19560, Note_off_c, 1, 48, 0
2, 19560, Note_off_c, 1, 52, 0
2, 19560, Note_off_c, 1, 58, 0
2, 19560, Note_off_c, 1, 64, 0
2, 19600, Note_on_c, 1, 77, 127
2, 19600, Note_on_c, 1, 83, 127
2, 19600, Note_on_c, 1, 86, 127
2, 19600, Note_on_c, 1, 92, 127
2, 19640, Note_off_c, 1, 77, 0
2, 19640, Note_off_c, 1, 83, 0
2, 19640, Note_on_c, 1, 85, 127
2, 19640, Note_off_c, 1, 86, 0
2, 19640, Note_off_c, 1, 92, 0
2, 19640, Note_on_c, 1, 93, 127
2, 19640, Note_on_c, 1, 97, 127
2, 19680, Note_on_c, 1, 41, 127
2, 19680, Note_on_c, 1, 46, 127
2, 19680, Note_on_c, 1, 53, 127
2, 19680, Note_on_c, 1, 58, 127
2, 19680, Note_on_c, 1, 65, 127
2, 19680, Note_off_c, 1, 85, 0
2, 19680, Note_off_c, 1, 93, 0
2, 19680, Note_off_c, 1, 97, 0
2, 19720, Note_off_c, 1, 41, 0
2, 19720, Note_off_c, 1, 46, 0
2, 19720, Note_off_c, 1, 53, 0
2, 19720, Note_off_c, 1, 58, 0
2, 19720, Note_off_c, 1, 65, 0
2, 19760, Note_on_c, 1, 40, 127
2, 19760, Note_on_c, 1, 52, 127
2, 19760, Note_on_c, 1, 73, 127
2, 19760, Note_on_c, 1, 76, 127
2, 19760, Note_on_c, 1, 80, 127
2, 19760, Note_on_c, 1, 85, 127
2, 19800, Note_off_c, 1, 40, 0
2, 19800, Note_on_c, 1, 47, 127
2, 19800, Note_off_c, 1, 52, 0
2, 19800, Note_on_c, 1, 66, 127
2, 19800, Note_off_c, 1, 73, 0
2, 19800, Note_off_c, 1, 76, 0
2, 19800, Note_off_c, 1, 80, 0
2, 19800, Note_on_c, 1, 83, 127
2, 19800, Note_off_c, 1, 85, 0
2, 19840, Note_on_c, 1, 40, 127
2, 19840, Note_off_c, 1, 47, 0
2, 19840, Note_on_c, 1, 52, 127
2, 19840, Note_off_c, 1, 66, 0
2, 19840, Note_on_c, 1, 73, 127
2, 19840, Note_on_c, 1, 76, 127
2, 19840, Note_on_c, 1, 80, 127
2, 19840, Note_off_c, 1, 83, 0
2, 19840, Note_on_c, 1, 85, 127
2, 19880, Note_off_c, 1, 40, 0
2, 19880, Note_off_c, 1, 52, 0
2, 19880, Note_off_c, 1, 73, 0
2, 19880, Note_off_c, 1, 76, 0
2, 19880, Note_off_c, 1, 80, 0
2, 19880, Note_off_c, 1, 85, 0
2, 19920, Note_on_c, 1, 44, 127
2, 19920, Note_on_c, 1, 54, 127
2, 19920, Note_on_c, 1, 63, 127
2, 19920, Note_on_c, 1, 68, 127
2, 19920, Note_on_c, 1, 75, 127
2, 19960, Note_off_c, 1, 44, 0
2, 19960, Note_off_c, 1, 54, 0
2, 19960, Note_off_c, 1, 63, 0
2, 19960, Note_off_c, 1, 68, 0
2, 19960, Note_off_c, 1, 75, 0
2, 20000, Note_on_c, 1, 44, 127
2, 20000, Note_on_c, 1, 54, 127
2, 20000, Note_on_c, 1, 63, 127
2, 20000, Note_on_c, 1, 68, 127
2, 20000, Note_on_c, 1, 75, 127
2, 20040, Note_off_c, 1, 44, 0
2, 20040, Note_off_c, 1, 54, 0
2, 20040, Note_off_c, 1, 63, 0
2, 20040, Note_off_c, 1, 68, 0
2, 20040, Note_off_c, 1, 75, 0
2, 20080, Note_on_c, 1, 44, 127
2, 20080, Note_on_c, 1, 54, 127
2, 20080, Note_on_c, 1, 63, 127
2, 20080, Note_on_c, 1, 68, 127
2, 20080, Note_on_c, 1, 75, 127
2, 20120, Note_off_c, 1, 44, 0
2, 20120, Note_off_c, 1, 54, 0
2, 20120, Note_off_c, 1, 63, 0
2, 20120, Note_off_c, 1, 68, 0
2, 20120, Note_off_c, 1, 75, 0
2, 20160, Note_on_c, 1, 44, 127
2, 20160, Note_on_c, 1, 56, 127
2, 20160, Note_on_c, 1, 65, 127
2, 20160, Note_on_c, 1, 68, 127
2, 20160, Note_on_c, 1, 77, 127
2, 20360, Note_off_c, 1, 44, 0
2, 20360, Note_off_c, 1, 56, 0
2, 20360, Note_off_c, 1, 65, 0
2, 20360, Note_off_c, 1, 68, 0
2, 20360, Note_off_c, 1, 77, 0
2, 20400, Note_on_c, 1, 43, 127
2, 20400, Note_on_c, 1, 52, 127
2, 20400, Note_on_c, 1, 61, 127
2, 20400, Note_on_c, 1, 70, 127
2, 20400, Note_on_c, 1, 73, 127
2, 20440, Note_off_c, 1, 43, 0
2, 20440, Note_off_c, 1, 52, 0
2, 20440, Note_off_c, 1, 61, 0
2, 20440, Note_off_c, 1, 70, 0
2, 20440, Note_off_c, 1, 73, 0
2, 20480, Note_on_c, 1, 55, 127
2, 20480, Note_on_c, 1, 69, 127
2, 20480, Note_on_c, 1, 73, 127
2, 20480, Note_on_c, 1, 76, 127
2, 20520, Note_off_c, 1, 55, 0
2, 20520, Note_off_c, 1, 69, 0
2, 20520, Note_off_c, 1, 73, 0
2, 20520, Note_off_c, 1, 76, 0
2, 20560, Note_on_c, 1, 66, 127
2, 20560, Note_on_c, 1, 69, 127
2, 20560, Note_on_c, 1, 72, 127
2, 20560, Note_on_c, 1, 81, 127
2, 20600, Note_off_c, 1, 66, 0
2, 20600, Note_off_c, 1, 72, 0
2, 20600, Note_off_c, 1, 81, 0
2, 20640, Note_on_c, 1, 66, 127
2, 20640, Note_on_c, 1, 73, 127
2, 20640, Note_on_c, 1, 81, 127
2, 20680, Note_off_c, 1, 66, 0
2, 20680, Note_off_c, 1, 69, 0
2, 20680, Note_off_c, 1, 73, 0
2, 20680, Note_off_c, 1, 81, 0
2, 20720, Note_on_c, 1, 42, 127
2, 20720, Note_on_c, 1, 49, 127
2, 20720, Note_on_c, 1, 59, 127
2, 20720, Note_on_c, 1, 66, 127
2, 20720, Note_on_c, 1, 71, 127
2, 20760, Note_off_c, 1, 42, 0
2, 20760, Note_off_c, 1, 49, 0
2, 20760, Note_off_c, 1, 59, 0
2, 20760, Note_off_c, 1, 66, 0
2, 20760, Note_off_c, 1, 71, 0
2, 20800, Note_on_c, 1, 25, 127
2, 20800, Note_on_c, 1, 30, 127
2, 20800, Note_on_c, 1, 34, 127
2, 20800, Note_on_c, 1, 37, 127
2, 20800, Note_on_c, 1, 49, 127
2, 20800, Note_on_c, 1, 54, 127
2, 20800, Note_on_c, 1, 58, 127
2, 20800, Note_on_c, 1, 61, 127
2, 20840, Note_off_c, 1, 25, 0
2, 20840, Note_off_c, 1, 30, 0
2, 20840, Note_off_c, 1, 34, 0
2, 20840, Note_off_c, 1, 37, 0
2, 20840, Note_off_c, 1, 49, 0
2, 20840, Note_off_c, 1, 54, 0
2, 20840, Note_off_c, 1, 58, 0
2, 20840, Note_off_c, 1, 61, 0
2, 20880, Note_on_c, 1, 25, 127
2, 20880, Note_on_c, 1, 30, 127
2, 20880, Note_on_c, 1, 34, 127
2, 20880, Note_on_c, 1, 37, 127
2, 20880, Note_on_c, 1, 49, 127
2, 20880, Note_on_c, 1, 54, 127
2, 20880, Note_on_c, 1, 58, 127
2, 20880, Note_on_c, 1, 61, 127
2, 20960, Note_off_c, 1, 25, 0
2, 20960, Note_off_c, 1, 30, 0
2, 20960, Note_off_c, 1, 34, 0
2, 20960, Note_off_c, 1, 37, 0
2, 20960, Note_off_c, 1, 49, 0
2, 20960, Note_off_c, 1, 54, 0
2, 20960, Note_off_c, 1, 58, 0
2, 20960, Note_off_c, 1, 61, 0
2, 21000, Note_on_c, 1, 46, 127
2, 21000, Note_on_c, 1, 50, 127
2, 21000, Note_on_c, 1, 53, 127
2, 21000, Note_on_c, 1, 65, 127
2, 21000, Note_on_c, 1, 70, 127
2, 21000, Note_on_c, 1, 74, 127
2, 21040, Note_off_c, 1, 46, 0
2, 21040, Note_off_c, 1, 50, 0
2, 21040, Note_off_c, 1, 53, 0
2, 21040, Note_off_c, 1, 65, 0
2, 21040, Note_off_c, 1, 70, 0
2, 21040, Note_off_c, 1, 74, 0
2, 21080, Note_on_c, 1, 37, 127
2, 21080, Note_on_c, 1, 49, 127
2, 21080, Note_on_c, 1, 64, 127
2, 21080, Note_on_c, 1, 68, 127
2, 21080, Note_on_c, 1, 73, 127
2, 21120, Note_off_c, 1, 37, 0
2, 21120, Note_off_c, 1, 49, 0
2, 21120, Note_off_c, 1, 64, 0
2, 21120, Note_off_c, 1, 68, 0
2, 21120, Note_off_c, 1, 73, 0
2, 21160, Note_on_c, 1, 37, 127
2, 21160, Note_on_c, 1, 49, 127
2, 21160, Note_on_c, 1, 64, 127
2, 21160, Note_on_c, 1, 68, 127
2, 21160, Note_on_c, 1, 73, 127
2, 21200, Note_off_c, 1, 37, 0
2, 21200, Note_off_c, 1, 49, 0
2, 21200, Note_off_c, 1, 64, 0
2, 21200, Note_off_c, 1, 68, 0
2, 21200, Note_off_c, 1, 73, 0
2, 21240, Note_on_c, 1, 37, 127
2, 21240, Note_on_c, 1, 49, 127
2, 21240, Note_on_c, 1, 65, 127
2, 21240, Note_on_c, 1, 68, 127
2, 21240, Note_on_c, 1, 73, 127
2, 21280, Note_off_c, 1, 37, 0
2, 21280, Note_off_c, 1, 49, 0
2, 21280, Note_off_c, 1, 65, 0
2, 21280, Note_off_c, 1, 68, 0
2, 21280, Note_off_c, 1, 73, 0
2, 21320, Note_on_c, 1, 73, 127
2, 21320, Note_on_c, 1, 78, 127
2, 21320, Note_on_c, 1, 82, 127
2, 21320, Note_on_c, 1, 85, 127
2, 21360, Note_on_c, 1, 54, 127
2, 21360, Note_on_c, 1, 59, 127
2, 21360, Note_on_c, 1, 62, 127
2, 21360, Note_on_c, 1, 65, 127
2, 21360, Note_off_c, 1, 73, 0
2, 21360, Note_off_c, 1, 78, 0
2, 21360, Note_off_c, 1, 82, 0
2, 21360, Note_off_c, 1, 85, 0
2, 21360, Note_on_c, 1, 95, 127
2, 21400, Note_off_c, 1, 54, 0
2, 21400, Note_off_c, 1, 59, 0
2, 21400, Note_off_c, 1, 62, 0
2, 21400, Note_off_c, 1, 65, 0
2, 21400, Note_off_c, 1, 95, 0
2, 21440, Note_on_c, 1, 71, 127
2, 21440, Note_on_c, 1, 78, 127
2, 21440, Note_on_c, 1, 83, 127
2, 21440, Note_on_c, 1, 87, 127
2, 21440, Note_on_c, 1, 93, 127
2, 21480, Note_on_c, 1, 49, 127
2, 21480, Note_on_c, 1, 59, 127
2, 21480, Note_off_c, 1, 71, 0
2, 21480, Note_on_c, 1, 73, 127
2, 21480, Note_off_c, 1, 78, 0
2, 21480, Note_off_c, 1, 83, 0
2, 21480, Note_off_c, 1, 87, 0
2, 21480, Note_off_c, 1, 93, 0
2, 21520, Note_off_c, 1, 49, 0
2, 21520, Note_off_c, 1, 59, 0
2, 21520, Note_off_c, 1, 73, 0
2, 21520, Note_on_c, 1, 76, 127
2, 21520, Note_on_c, 1, 83, 127
2, 21520, Note_on_c, 1, 88, 127
2, 21520, Note_on_c, 1, 92, 127
2, 21560, Note_off_c, 1, 76, 0
2, 21560, Note_off_c, 1, 83, 0
2, 21560, Note_off_c, 1, 88, 0
2, 21560, Note_off_c, 1, 92, 0
2, 21600, Note_on_c, 1, 60, 127
2, 21600, Note_on_c, 1, 83, 127
2, 21600, Note_on_c, 1, 95, 127
2, 21640, Note_off_c, 1, 60, 0
2, 21640, Note_off_c, 1, 83, 0
2, 21640, Note_off_c, 1, 95, 0
2, 21680, Note_on_c, 1, 52, 127
2, 21680, Note_on_c, 1, 83, 127
2, 21680, Note_on_c, 1, 95, 127
2, 21720, Note_off_c, 1, 52, 0
2, 21720, Note_off_c, 1, 83, 0
2, 21720, Note_off_c, 1, 95, 0
2, 21760, Note_on_c, 1, 37, 127
2, 21760, Note_on_c, 1, 49, 127
2, 21760, Note_on_c, 1, 53, 127
2, 21760, Note_on_c, 1, 58, 127
2, 21760, Note_on_c, 1, 61, 127
2, 21880, Note_off_c, 1, 37, 0
2, 21880, Note_off_c, 1, 49, 0
2, 21880, Note_off_c, 1, 53, 0
2, 21880, Note_off_c, 1, 58, 0
2, 21880, Note_off_c, 1, 61, 0
2, 21920, Note_on_c, 1, 31, 127
2, 21920, Note_on_c, 1, 43, 127
2, 21920, Note_on_c, 1, 71, 127
2, 22000, Note_off_c, 1, 31, 0
2, 22000, Note_off_c, 1, 43, 0
2, 22000, Note_off_c, 1, 71, 0
2, 22040, Note_on_c, 1, 31, 127
2, 22040, Note_on_c, 1, 43, 127
2, 22040, Note_on_c, 1, 71, 127
2, 22080, Note_off_c, 1, 71, 0
2, 22080, Note_on_c, 1, 74, 127
2, 22120, Note_on_c, 1, 71, 127
2, 22120, Note_off_c, 1, 74, 0
2, 22160, Note_off_c, 1, 71, 0
2, 22160, Note_on_c, 1, 74, 127
2, 22200, Note_off_c, 1, 74, 0
2, 22240, Note_on_c, 1, 69, 127
2, 22280, Note_on_c, 1, 57, 127
2, 22280, Note_off_c, 1, 69, 0
2, 22320, Note_off_c, 1, 57, 0
2, 22320, Note_on_c, 1, 69, 127
2, 22360, Note_off_c, 1, 69, 0
2, 22360, Note_on_c, 1, 72, 127
2, 22400, Note_on_c, 1, 69, 127
2, 22400, Note_off_c, 1, 72, 0
2, 22440, Note_on_c, 1, 64, 127
2, 22440, Note_off_c, 1, 69, 0
2, 22480, Note_off_c, 1, 31, 0
2, 22480, Note_off_c, 1, 43, 0
2, 22520, Note_on_c, 1, 31, 127
2, 22520, Note_on_c, 1, 43, 127
2, 22520, Note_off_c, 1, 64, 0
2, 22520, Note_on_c, 1, 70, 127
2, 22560, Note_off_c, 1, 31, 0
2, 22560, Note_off_c, 1, 43, 0
2, 22560, Note_off_c, 1, 70, 0
2, 22600, Note_on_c, 1, 31, 127
2, 22600, Note_on_c, 1, 43, 127
2, 22600, Note_on_c, 1, 76, 127
2, 22600, Note_on_c, 1, 84, 127
2, 22600, Note_on_c, 1, 88, 127
2, 22640, Note_off_c, 1, 76, 0
2, 22640, Note_off_c, 1, 84, 0
2, 22640, Note_off_c, 1, 88, 0
2, 22680, Note_off_c, 1, 31, 0
2, 22680, Note_off_c, 1, 43, 0
2, 22680, Note_on_c, 1, 79, 127
2, 22680, Note_on_c, 1, 88, 127
2, 22680, Note_on_c, 1, 91, 127
2, 22720, Note_off_c, 1, 79, 0
2, 22720, Note_off_c, 1, 88, 0
2, 22720, Note_off_c, 1, 91, 0
2, 22760, Note_on_c, 1, 39, 127
2, 22760, Note_on_c, 1, 51, 127
2, 22760, Note_on_c, 1, 72, 127
2, 22760, Note_on_c, 1, 81, 127
2, 22760, Note_on_c, 1, 84, 127
2, 22800, Note_off_c, 1, 39, 0
2, 22800, Note_off_c, 1, 51, 0
2, 22800, Note_off_c, 1, 72, 0
2, 22800, Note_on_c, 1, 76, 127
2, 22800, Note_off_c, 1, 81, 0
2, 22800, Note_off_c, 1, 84, 0
2, 22800, Note_on_c, 1, 85, 127
2, 22800, Note_on_c, 1, 88, 127
2, 22840, Note_off_c, 1, 76, 0
2, 22840, Note_off_c, 1, 85, 0
2, 22840, Note_off_c, 1, 88, 0
2, 22880, Note_on_c, 1, 49, 127
2, 22880, Note_on_c, 1, 52, 127
2, 22880, Note_on_c, 1, 56, 127
2, 22880, Note_on_c, 1, 69, 127
2, 22880, Note_on_c, 1, 76, 127
2, 22880, Note_on_c, 1, 79, 127
2, 22880, Note_on_c, 1, 81, 127
2, 22920, Note_off_c, 1, 49, 0
2, 22920, Note_off_c, 1, 52, 0
2, 22920, Note_off_c, 1, 56, 0
2, 22920, Note_off_c, 1, 69, 0
2, 22920, Note_off_c, 1, 76, 0
2, 22920, Note_off_c, 1, 79, 0
2, 22920, Note_off_c, 1, 81, 0
2, 22960, Note_on_c, 1, 59, 127
2, 22960, Note_on_c, 1, 67, 127
2, 22960, Note_on_c, 1, 86, 127
2, 22960, Note_on_c, 1, 89, 127
2, 23000, Note_on_c, 1, 44, 127
2, 23000, Note_on_c, 1, 51, 127
2, 23000, Note_off_c, 1, 59, 0
2, 23000, Note_on_c, 1, 60, 127
2, 23000, Note_on_c, 1, 62, 127
2, 23000, Note_off_c, 1, 67, 0
2, 23000, Note_on_c, 1, 72, 127
2, 23000, Note_off_c, 1, 86, 0
2, 23000, Note_off_c, 1, 89, 0
2, 23040, Note_off_c, 1, 44, 0
2, 23040, Note_off_c, 1, 51, 0
2, 23040, Note_on_c, 1, 55, 127
2, 23040, Note_on_c, 1, 59, 127
2, 23040, Note_off_c, 1, 60, 0
2, 23040, Note_off_c, 1, 62, 0
2, 23040, Note_on_c, 1, 67, 127
2, 23040, Note_off_c, 1, 72, 0
2, 23040, Note_on_c, 1, 83, 127
2, 23080, Note_off_c, 1, 59, 0
2, 23080, Note_on_c, 1, 60, 127
2, 23080, Note_on_c, 1, 63, 127
2, 23080, Note_off_c, 1, 67, 0
2, 23080, Note_on_c, 1, 79, 127
2, 23080, Note_off_c, 1, 83, 0
2, 23080, Note_on_c, 1, 91, 127
2, 23120, Note_off_c, 1, 55, 0
2, 23120, Note_off_c, 1, 60, 0
2, 23120, Note_off_c, 1, 63, 0
2, 23120, Note_on_c, 1, 75, 127
2, 23120, Note_off_c, 1, 79, 0
2, 23120, Note_on_c, 1, 85, 127
2, 23120, Note_on_c, 1, 88, 127
2, 23120, Note_off_c, 1, 91, 0
2, 23160, Note_on_c, 1, 67, 127
2, 23160, Note_off_c, 1, 75, 0
2, 23160, Note_off_c, 1, 85, 0
2, 23160, Note_off_c, 1, 88, 0
2, 23200, Note_off_c, 1, 67, 0
2, 23200, Note_on_c, 1, 73, 127
2, 23200, Note_on_c, 1, 84, 127
2, 23200, Note_on_c, 1, 89, 127
2, 23200, Note_on_c, 1, 96, 127
2, 23240, Note_on_c, 1, 72, 127
2, 23240, Note_off_c, 1, 73, 0
2, 23240, Note_off_c, 1, 84, 0
2, 23240, Note_off_c, 1, 89, 0
2, 23240, Note_off_c, 1, 96, 0
2, 23280, Note_on_c, 1, 46, 127
2, 23280, Note_on_c, 1, 55, 127
2, 23280, Note_on_c, 1, 62, 127
2, 23280, Note_on_c, 1, 65, 127
2, 23280, Note_off_c, 1, 72, 0
2, 23280, Note_on_c, 1, 74, 127
2, 23320, Note_off_c, 1, 46, 0
2, 23320, Note_on_c, 1, 50, 127
2, 23320, Note_off_c, 1, 55, 0
2, 23320, Note_off_c, 1, 65, 0
2, 23320, Note_off_c, 1, 74, 0
2, 23320, Note_on_c, 1, 77, 127
2, 23320, Note_on_c, 1, 80, 127
2, 23320, Note_on_c, 1, 83, 127
2, 23320, Note_on_c, 1, 89, 127
2, 23360, Note_on_c, 1, 46, 127
2, 23360, Note_off_c, 1, 50, 0
2, 23360, Note_on_c, 1, 55, 127
2, 23360, Note_on_c, 1, 65, 127
2, 23360, Note_on_c, 1, 74, 127
2, 23360, Note_off_c, 1, 77, 0
2, 23360, Note_off_c, 1, 80, 0
2, 23360, Note_off_c, 1, 83, 0
2, 23360, Note_off_c, 1, 89, 0
2, 23400, Note_off_c, 1, 46, 0
2, 23400, Note_on_c, 1, 58, 127
2, 23400, Note_off_c, 1, 62, 0
2, 23400, Note_off_c, 1, 65, 0
2, 23400, Note_on_c, 1, 67, 127
2, 23400, Note_off_c, 1, 74, 0
2, 23400, Note_on_c, 1, 79, 127
2, 23400, Note_on_c, 1, 82, 127
2, 23440, Note_off_c, 1, 55, 0
2, 23440, Note_off_c, 1, 58, 0
2, 23440, Note_off_c, 1, 67, 0
2, 23440, Note_off_c, 1, 79, 0
2, 23440, Note_off_c, 1, 82, 0
2, 23480, Note_on_c, 1, 59, 127
2, 23480, Note_on_c, 1, 81, 127
2, 23480, Note_on_c, 1, 86, 127
2, 23480, Note_on_c, 1, 89, 127
2, 23480, Note_on_c, 1, 93, 127
2, 23680, Note_off_c, 1, 59, 0
2, 23680, Note_off_c, 1, 81, 0
2, 23680, Note_off_c, 1, 86, 0
2, 23680, Note_off_c, 1, 89, 0
2, 23680, Note_off_c, 1, 93, 0
2, 23720, Note_on_c, 1, 41, 127
2, 23720, Note_on_c, 1, 53, 127
2, 23720, Note_on_c, 1, 70, 127
2, 23720, Note_on_c, 1, 74, 127
2, 23720, Note_on_c, 1, 80, 127
2, 23720, Note_on_c, 1, 82, 127
2, 23840, Note_off_c, 1, 41, 0
2, 23840, Note_off_c, 1, 53, 0
2, 23840, Note_on_c, 1, 55, 127
2, 23840, Note_on_c, 1, 57, 127
2, 23840, Note_on_c, 1, 69, 127
2, 23840, Note_off_c, 1, 70, 0
2, 23840, Note_on_c, 1, 73, 127
2, 23840, Note_off_c, 1, 74, 0
2, 23840, Note_on_c, 1, 79, 127
2, 23840, Note_off_c, 1, 80, 0
2, 23840, Note_on_c, 1, 81, 127
2, 23840, Note_off_c, 1, 82, 0
2, 23880, Note_off_c, 1, 55, 0
2, 23880, Note_off_c, 1, 57, 0
2, 23880, Note_off_c, 1, 69, 0
2, 23880, Note_off_c, 1, 73, 0
2, 23880, Note_off_c, 1, 79, 0
2, 23880, Note_off_c, 1, 81, 0
2, 23920, Note_on_c, 1, 63, 127
2, 23920, Note_on_c, 1, 75, 127
2, 23920, Note_on_c, 1, 82, 127
2, 23920, Note_on_c, 1, 91, 127
2, 23920, Note_on_c, 1, 94, 127
2, 23960, Note_off_c, 1, 63, 0
2, 23960, Note_off_c, 1, 75, 0
2, 23960, Note_off_c, 1, 82, 0
2, 23960, Note_off_c, 1, 91, 0
2, 23960, Note_off_c, 1, 94, 0
2, 24000, Note_on_c, 1, 43, 127
2, 24000, Note_on_c, 1, 80, 127
2, 24000, Note_on_c, 1, 89, 127
2, 24000, Note_on_c, 1, 92, 127
2, 24040, Note_off_c, 1, 43, 0
2, 24040, Note_off_c, 1, 80, 0
2, 24040, Note_off_c, 1, 89, 0
2, 24040, Note_off_c, 1, 92, 0
2, 24080, Note_on_c, 1, 36, 127
2, 24080, Note_on_c, 1, 80, 127
2, 24080, Note_on_c, 1, 89, 127
2, 24080, Note_on_c, 1, 92, 127
2, 24160, Note_off_c, 1, 36, 0
2, 24160, Note_off_c, 1, 80, 0
2, 24160, Note_off_c, 1, 89, 0
2, 24160, Note_off_c, 1, 92, 0
2, 24200, Note_on_c, 1, 38, 127
2, 24200, Note_on_c, 1, 84, 127
2, 24200, Note_on_c, 1, 93, 127
2, 24200, Note_on_c, 1, 96, 127
2, 24240, Note_off_c, 1, 38, 0
2, 24240, Note_off_c, 1, 84, 0
2, 24240, Note_off_c, 1, 93, 0
2, 24240, Note_off_c, 1, 96, 0
2, 24280, Note_on_c, 1, 43, 127
2, 24280, Note_on_c, 1, 83, 127
2, 24280, Note_on_c, 1, 91, 127
2, 24280, Note_on_c, 1, 95, 127
2, 24320, Note_off_c, 1, 43, 0
2, 24320, Note_off_c, 1, 83, 0
2, 24320, Note_off_c, 1, 91, 0
2, 24320, Note_off_c, 1, 95, 0
2, 24360, Note_on_c, 1, 31, 127
2, 24360, Note_on_c, 1, 84, 127
2, 24360, Note_on_c, 1, 93, 127
2, 24360, Note_on_c, 1, 96, 127
2, 24400, Note_off_c, 1, 31, 0
2, 24400, Note_off_c, 1, 84, 0
2, 24400, Note_off_c, 1, 93, 0
2, 24400, Note_off_c, 1, 96, 0
2, 24440, Note_on_c, 1, 38, 127
2, 24440, Note_on_c, 1, 84, 127
2, 24440, Note_on_c, 1, 93, 127
2, 24440, Note_on_c, 1, 96, 127
2, 24480, Note_off_c, 1, 38, 0
2, 24520, Note_on_c, 1, 31, 127
2, 24560, Note_off_c, 1, 31, 0
2, 24600, Note_off_c, 1, 84, 0
2, 24600, Note_off_c, 1, 93, 0
2, 24600, Note_off_c, 1, 96, 0
2, 24640, Note_on_c, 1, 38, 127
2, 24640, Note_on_c, 1, 83, 127
2, 24640, Note_on_c, 1, 91, 127
2, 24640, Note_on_c, 1, 95, 127
2, 24720, Note_on_c, 1, 31, 127
2, 24720, Note_off_c, 1, 38, 0
2, 24760, Note_off_c, 1, 31, 0
2, 24760, Note_on_c, 1, 38, 127
2, 24800, Note_off_c, 1, 38, 0
2, 24800, Note_on_c, 1, 50, 127
2, 24800, Note_on_c, 1, 53, 127
2, 24800, Note_on_c, 1, 56, 127
2, 24800, Note_on_c, 1, 58, 127
2, 24800, Note_on_c, 1, 79, 127
2, 24800, Note_off_c, 1, 83, 0
2, 24800, Note_off_c, 1, 91, 0
2, 24800, Note_off_c, 1, 95, 0
2, 24840, Note_on_c, 1, 38, 127
2, 24840, Note_off_c, 1, 50, 0
2, 24840, Note_off_c, 1, 53, 0
2, 24840, Note_off_c, 1, 56, 0
2, 24840, Note_off_c, 1, 58, 0
2, 24840, Note_off_c, 1, 79, 0
2, 24840, Note_on_c, 1, 83, 127
2, 24840, Note_on_c, 1, 91, 127
2, 24840, Note_on_c, 1, 95, 127
2, 24880, Note_off_c, 1, 38, 0
2, 24880, Note_off_c, 1, 83, 0
2, 24880, Note_off_c, 1, 91, 0
2, 24880, Note_off_c, 1, 95, 0
2, 24920, Note_on_c, 1, 58, 127
2, 24920, Note_on_c, 1, 66, 127
2, 24920, Note_on_c, 1, 70, 127
2, 24920, Note_on_c, 1, 85, 127
2, 24920, Note_on_c, 1, 94, 127
2, 24920, Note_on_c, 1, 97, 127
2, 25120, Note_off_c, 1, 58, 0
2, 25120, Note_off_c, 1, 66, 0
2, 25120, Note_off_c, 1, 70, 0
2, 25120, Note_off_c, 1, 85, 0
2, 25120, Note_off_c, 1, 94, 0
2, 25120, Note_off_c, 1, 97, 0
2, 25160, Note_on_c, 1, 58, 127
2, 25160, Note_on_c, 1, 66, 127
2, 25160, Note_on_c, 1, 70, 127
2, 25160, Note_on_c, 1, 85, 127
2, 25160, Note_on_c, 1, 94, 127
2, 25160, Note_on_c, 1, 97, 127
2, 25320, Note_off_c, 1, 58, 0
2, 25320, Note_off_c, 1, 66, 0
2, 25320, Note_off_c, 1, 70, 0
2, 25320, Note_off_c, 1, 85, 0
2, 25320, Note_off_c, 1, 94, 0
2, 25320, Note_off_c, 1, 97, 0
2, 25360, Note_on_c, 1, 58, 127
2, 25360, Note_on_c, 1, 66, 127
2, 25360, Note_on_c, 1, 70, 127
2, 25360, Note_on_c, 1, 85, 127
2, 25360, Note_on_c, 1, 94, 127
2, 25360, Note_on_c, 1, 97, 127
2, 25560, Note_off_c, 1, 58, 0
2, 25560, Note_off_c, 1, 66, 0
2, 25560, Note_off_c, 1, 70, 0
2, 25560, Note_off_c, 1, 85, 0
2, 25560, Note_off_c, 1, 94, 0
2, 25560, Note_off_c, 1, 97, 0
2, 25600, Note_on_c, 1, 49, 127
2, 25600, Note_on_c, 1, 61, 127
2, 25600, Note_on_c, 1, 81, 127
2, 25600, Note_on_c, 1, 93, 127
2, 25640, Note_on_c, 1, 38, 127
2, 25640, Note_off_c, 1, 49, 0
2, 25640, Note_on_c, 1, 50, 127
2, 25640, Note_off_c, 1, 61, 0
2, 25640, Note_off_c, 1, 81, 0
2, 25640, Note_on_c, 1, 86, 127
2, 25640, Note_off_c, 1, 93, 0
2, 25640, Note_on_c, 1, 98, 127
2, 25680, Note_off_c, 1, 38, 0
2, 25680, Note_on_c, 1, 49, 127
2, 25680, Note_off_c, 1, 50, 0
2, 25680, Note_on_c, 1, 61, 127
2, 25680, Note_on_c, 1, 81, 127
2, 25680, Note_off_c, 1, 86, 0
2, 25680, Note_on_c, 1, 93, 127
2, 25680, Note_off_c, 1, 98, 0
2, 25720, Note_off_c, 1, 49, 0
2, 25720, Note_off_c, 1, 61, 0
2, 25720, Note_off_c, 1, 81, 0
2, 25720, Note_off_c, 1, 93, 0
2, 25760, Note_on_c, 1, 40, 127
2, 25760, Note_on_c, 1, 52, 127
2, 25760, Note_on_c, 1, 88, 127
2, 25760, Note_on_c, 1, 92, 127
2, 25760, Note_on_c, 1, 100, 127
2, 25800, Note_off_c, 1, 40, 0
2, 25800, Note_off_c, 1, 52, 0
2, 25800, Note_off_c, 1, 88, 0
2, 25800, Note_off_c, 1, 92, 0
2, 25800, Note_off_c, 1, 100, 0
2, 25840, Note_on_c, 1, 39, 127
2, 25840, Note_on_c, 1, 51, 127
2, 25840, Note_on_c, 1, 89, 127
2, 25840, Note_on_c, 1, 93, 127
2, 25840, Note_on_c, 1, 101, 127
2, 25920, Note_off_c, 1, 39, 0
2, 25920, Note_off_c, 1, 51, 0
2, 25920, Note_off_c, 1, 89, 0
2, 25920, Note_off_c, 1, 93, 0
2, 25920, Note_off_c, 1, 101, 0
2, 26000, Note_on_c, 1, 38, 127
2, 26000, Note_on_c, 1, 50, 127
2, 26000, Note_on_c, 1, 90, 127
2, 26000, Note_on_c, 1, 94, 127
2, 26000, Note_on_c, 1, 102, 127
2, 26040, Note_off_c, 1, 38, 0
2, 26040, Note_off_c, 1, 50, 0
2, 26040, Note_off_c, 1, 90, 0
2, 26040, Note_off_c, 1, 94, 0
2, 26040, Note_off_c, 1, 102, 0
2, 26120, Note_on_c, 1, 39, 127
2, 26120, Note_on_c, 1, 51, 127
2, 26120, Note_on_c, 1, 89, 127
2, 26120, Note_on_c, 1, 93, 127
2, 26120, Note_on_c, 1, 101, 127
2, 26160, Note_off_c, 1, 39, 0
2, 26160, Note_off_c, 1, 51, 0
2, 26160, Note_off_c, 1, 89, 0
2, 26160, Note_off_c, 1, 93, 0
2, 26160, Note_off_c, 1, 101, 0
2, 26200, Note_on_c, 1, 39, 127
2, 26200, Note_on_c, 1, 51, 127
2, 26200, Note_on_c, 1, 89, 127
2, 26200, Note_on_c, 1, 93, 127
2, 26200, Note_on_c, 1, 101, 127
2, 26240, Note_on_c, 1, 38, 127
2, 26240, Note_off_c, 1, 39, 0
2, 26240, Note_on_c, 1, 50, 127
2, 26240, Note_off_c, 1, 51, 0
2, 26240, Note_off_c, 1, 89, 0
2, 26240, Note_on_c, 1, 90, 127
2, 26240, Note_off_c, 1, 93, 0
2, 26240, Note_on_c, 1, 94, 127
2, 26240, Note_off_c, 1, 101, 0
2, 26240, Note_on_c, 1, 102, 127
2, 26280, Note_off_c, 1, 38, 0
2, 26280, Note_off_c, 1, 50, 0
2, 26280, Note_off_c, 1, 90, 0
2, 26280, Note_off_c, 1, 94, 0
2, 26280, Note_off_c, 1, 102, 0
2, 26320, Note_on_c, 1, 38, 127
2, 26320, Note_on_c, 1, 50, 127
2, 26320, Note_on_c, 1, 90, 127
2, 26320, Note_on_c, 1, 94, 127
2, 26320, Note_on_c, 1, 102, 127
2, 26360, Note_off_c, 1, 38, 0
2, 26360, Note_off_c, 1, 50, 0
2, 26360, Note_off_c, 1, 90, 0
2, 26360, Note_off_c, 1, 94, 0
2, 26360, Note_off_c, 1, 102, 0
2, 26400, Note_on_c, 1, 38, 127
2, 26400, Note_on_c, 1, 50, 127
2, 26400, Note_on_c, 1, 90, 127
2, 26400, Note_on_c, 1, 94, 127
2, 26400, Note_on_c, 1, 102, 127
2, 26440, Note_off_c, 1, 38, 0
2, 26440, Note_off_c, 1, 50, 0
2, 26440, Note_off_c, 1, 90, 0
2, 26440, Note_off_c, 1, 94, 0
2, 26440, Note_off_c, 1, 102, 0
2, 26480, Note_on_c, 1, 40, 127
2, 26480, Note_on_c, 1, 47, 127
2, 26480, Note_on_c, 1, 52, 127
2, 26480, Note_on_c, 1, 88, 127
2, 26480, Note_on_c, 1, 92, 127
2, 26480, Note_on_c, 1, 100, 127
2, 26520, Note_off_c, 1, 40, 0
2, 26520, Note_off_c, 1, 47, 0
2, 26520, Note_off_c, 1, 52, 0
2, 26520, Note_off_c, 1, 88, 0
2, 26520, Note_off_c, 1, 92, 0
2, 26520, Note_off_c, 1, 100, 0
2, 26560, Note_on_c, 1, 40, 127
2, 26560, Note_on_c, 1, 47, 127
2, 26560, Note_on_c, 1, 52, 127
2, 26560, Note_on_c, 1, 88, 127
2, 26560, Note_on_c, 1, 92, 127
2, 26560, Note_on_c, 1, 100, 127
2, 26600, Note_off_c, 1, 40, 0
2, 26600, Note_off_c, 1, 47, 0
2, 26600, Note_off_c, 1, 52, 0
2, 26600, Note_off_c, 1, 88, 0
2, 26600, Note_off_c, 1, 92, 0
2, 26600, Note_off_c, 1, 100, 0
2, 26640, Note_on_c, 1, 41, 127
2, 26640, Note_on_c, 1, 53, 127
2, 26640, Note_on_c, 1, 87, 127
2, 26640, Note_on_c, 1, 93, 127
2, 26640, Note_on_c, 1, 99, 127
2, 26720, Note_on_c, 1, 40, 127
2, 26720, Note_off_c, 1, 41, 0
2, 26720, Note_on_c, 1, 47, 127
2, 26720, Note_on_c, 1, 52, 127
2, 26720, Note_off_c, 1, 53, 0
2, 26720, Note_off_c, 1, 87, 0
2, 26720, Note_on_c, 1, 88, 127
2, 26720, Note_on_c, 1, 92, 127
2, 26720, Note_off_c, 1, 93, 0
2, 26720, Note_off_c, 1, 99, 0
2, 26720, Note_on_c, 1, 100, 127
2, 26760, Note_off_c, 1, 40, 0
2, 26760, Note_off_c, 1, 47, 0
2, 26760, Note_off_c, 1, 52, 0
2, 26760, Note_off_c, 1, 88, 0
2, 26760, Note_off_c, 1, 92, 0
2, 26760, Note_off_c, 1, 100, 0
2, 26800, Note_on_c, 1, 41, 127
2, 26800, Note_on_c, 1, 53, 127
2, 26800, Note_on_c, 1, 87, 127
2, 26800, Note_on_c, 1, 93, 127
2, 26800, Note_on_c, 1, 99, 127
2, 26840, Note_off_c, 1, 41, 0
2, 26840, Note_off_c, 1, 53, 0
2, 26840, Note_off_c, 1, 87, 0
2, 26840, Note_off_c, 1, 93, 0
2, 26840, Note_off_c, 1, 99, 0
2, 26880, Note_on_c, 1, 41, 127
2, 26880, Note_on_c, 1, 53, 127
2, 26880, Note_on_c, 1, 87, 127
2, 26880, Note_on_c, 1, 93, 127
2, 26880, Note_on_c, 1, 99, 127
2, 26960, Note_on_c, 1, 40, 127
2, 26960, Note_off_c, 1, 41, 0
2, 26960, Note_on_c, 1, 47, 127
2, 26960, Note_on_c, 1, 52, 127
2, 26960, Note_off_c, 1, 53, 0
2, 26960, Note_off_c, 1, 87, 0
2, 26960, Note_on_c, 1, 88, 127
2, 26960, Note_on_c, 1, 92, 127
2, 26960, Note_off_c, 1, 93, 0
2, 26960, Note_off_c, 1, 99, 0
2, 26960, Note_on_c, 1, 100, 127
2, 27000, Note_off_c, 1, 40, 0
2, 27000, Note_off_c, 1, 47, 0
2, 27000, Note_off_c, 1, 52, 0
2, 27000, Note_off_c, 1, 88, 0
2, 27000, Note_off_c, 1, 92, 0
2, 27000, Note_off_c, 1, 100, 0
2, 27040, Note_on_c, 1, 40, 127
2, 27040, Note_on_c, 1, 47, 127
2, 27040, Note_on_c, 1, 52, 127
2, 27040, Note_on_c, 1, 88, 127
2, 27040, Note_on_c, 1, 92, 127
2, 27040, Note_on_c, 1, 100, 127
2, 27120, Note_off_c, 1, 40, 0
2, 27120, Note_off_c, 1, 47, 0
2, 27120, Note_off_c, 1, 52, 0
2, 27120, Note_off_c, 1, 88, 0
2, 27120, Note_off_c, 1, 92, 0
2, 27120, Note_off_c, 1, 100, 0
2, 27200, Note_on_c, 1, 40, 127
2, 27200, Note_on_c, 1, 47, 127
2, 27200, Note_on_c, 1, 52, 127
2, 27200, Note_on_c, 1, 88, 127
2, 27200, Note_on_c, 1, 92, 127
2, 27200, Note_on_c, 1, 100, 127
2, 27280, Note_off_c, 1, 40, 0
2, 27280, Note_off_c, 1, 47, 0
2, 27280, Note_off_c, 1, 52, 0
2, 27280, Note_off_c, 1, 88, 0
2, 27280, Note_off_c, 1, 92, 0
2, 27280, Note_off_c, 1, 100, 0
2, 27360, Note_on_c, 1, 35, 127
2, 27360, Note_on_c, 1, 47, 127
2, 27360, Note_on_c, 1, 54, 127
2, 27360, Note_on_c, 1, 59, 127
2, 27360, Note_on_c, 1, 63, 127
2, 27360, Note_on_c, 1, 66, 127
2, 27400, Note_off_c, 1, 35, 0
2, 27400, Note_off_c, 1, 47, 0
2, 27400, Note_off_c, 1, 54, 0
2, 27400, Note_off_c, 1, 59, 0
2, 27400, Note_off_c, 1, 63, 0
2, 27400, Note_off_c, 1, 66, 0
2, 27520, Note_on_c, 1, 52, 127
2, 27520, Note_on_c, 1, 56, 127
2, 27520, Note_on_c, 1, 59, 127
2, 27520, Note_on_c, 1, 64, 127
2, 27520, Note_on_c, 1, 80, 127
2, 27520, Note_on_c, 1, 88, 127
2, 27520, Note_on_c, 1, 92, 127
2, 27600, Note_off_c, 1, 52, 0
2, 27600, Note_off_c, 1, 56, 0
2, 27600, Note_off_c, 1, 59, 0
2, 27600, Note_off_c, 1, 64, 0
2, 27600, Note_off_c, 1, 80, 0
2, 27600, Note_off_c, 1, 88, 0
2, 27600, Note_off_c, 1, 92, 0
2, 27640, Note_on_c, 1, 44, 127
2, 27640, Note_on_c, 1, 51, 127
2, 27640, Note_on_c, 1, 52, 127
2, 27640, Note_on_c, 1, 60, 127
2, 27640, Note_on_c, 1, 84, 127
2, 27680, Note_off_c, 1, 44, 0
2, 27680, Note_off_c, 1, 51, 0
2, 27680, Note_off_c, 1, 52, 0
2, 27680, Note_off_c, 1, 60, 0
2, 27680, Note_off_c, 1, 84, 0
2, 27720, Note_on_c, 1, 29, 127
2, 27720, Note_on_c, 1, 54, 127
2, 27760, Note_off_c, 1, 29, 0
2, 27760, Note_off_c, 1, 54, 0
2, 27800, Note_on_c, 1, 61, 127
2, 27800, Note_on_c, 1, 65, 127
2, 27800, Note_on_c, 1, 68, 127
2, 27800, Note_on_c, 1, 73, 127
2, 27800, Note_on_c, 1, 80, 127
2, 27800, Note_on_c, 1, 89, 127
2, 27800, Note_on_c, 1, 92, 127
2, 27840, Note_off_c, 1, 61, 0
2, 27840, Note_off_c, 1, 65, 0
2, 27840, Note_off_c, 1, 68, 0
2, 27840, Note_off_c, 1, 73, 0
2, 27840, Note_off_c, 1, 80, 0
2, 27840, Note_off_c, 1, 89, 0
2, 27840, Note_off_c, 1, 92, 0
2, 27880, Note_on_c, 1, 61, 127
2, 27880, Note_on_c, 1, 65, 127
2, 27880, Note_on_c, 1, 68, 127
2, 27880, Note_on_c, 1, 73, 127
2, 27880, Note_on_c, 1, 80, 127
2, 27880, Note_on_c, 1, 89, 127
2, 27880, Note_on_c, 1, 92, 127
2, 27960, Note_off_c, 1, 61, 0
2, 27960, Note_off_c, 1, 65, 0
2, 27960, Note_off_c, 1, 68, 0
2, 27960, Note_off_c, 1, 73, 0
2, 27960, Note_off_c, 1, 80, 0
2, 27960, Note_off_c, 1, 89, 0
2, 27960, Note_off_c, 1, 92, 0
2, 28000, Note_on_c, 1, 36, 127
2, 28000, Note_on_c, 1, 48, 127
2, 28000, Note_on_c, 1, 62, 127
2, 28000, Note_on_c, 1, 69, 127
2, 28000, Note_on_c, 1, 74, 127
2, 28120, Note_off_c, 1, 36, 0
2, 28120, Note_off_c, 1, 48, 0
2, 28120, Note_off_c, 1, 62, 0
2, 28120, Note_off_c, 1, 69, 0
2, 28120, Note_off_c, 1, 74, 0
2, 28200, Note_on_c, 1, 62, 127
2, 28200, Note_on_c, 1, 66, 127
2, 28200, Note_on_c, 1, 69, 127
2, 28200, Note_on_c, 1, 74, 127
2, 28200, Note_on_c, 1, 78, 127
2, 28200, Note_on_c, 1, 86, 127
2, 28240, Note_off_c, 1, 62, 0
2, 28240, Note_off_c, 1, 66, 0
2, 28240, Note_off_c, 1, 69, 0
2, 28240, Note_off_c, 1, 74, 0
2, 28240, Note_off_c, 1, 78, 0
2, 28240, Note_off_c, 1, 86, 0
2, 28320, Note_on_c, 1, 62, 127
2, 28320, Note_on_c, 1, 66, 127
2, 28320, Note_on_c, 1, 69, 127
2, 28320, Note_on_c, 1, 74, 127
2, 28320, Note_on_c, 1, 78, 127
2, 28320, Note_on_c, 1, 86, 127
2, 28360, Note_off_c, 1, 62, 0
2, 28360, Note_off_c, 1, 66, 0
2, 28360, Note_off_c, 1, 69, 0
2, 28360, Note_off_c, 1, 74, 0
2, 28360, Note_off_c, 1, 78, 0
2, 28360, Note_off_c, 1, 86, 0
2, 28400, Note_on_c, 1, 50, 127
2, 28400, Note_on_c, 1, 62, 127
2, 28400, Note_on_c, 1, 69, 127
2, 28400, Note_on_c, 1, 74, 127
2, 28400, Note_on_c, 1, 75, 127
2, 28600, Note_off_c, 1, 50, 0
2, 28600, Note_off_c, 1, 62, 0
2, 28600, Note_off_c, 1, 74, 0
2, 28600, Note_off_c, 1, 75, 0
2, 28640, Note_on_c, 1, 39, 127
2, 28640, Note_on_c, 1, 51, 127
2, 28640, Note_on_c, 1, 60, 127
2, 28640, Note_on_c, 1, 66, 127
2, 28640, Note_off_c, 1, 69, 0
2, 28640, Note_on_c, 1, 70, 127
2, 28640, Note_on_c, 1, 74, 127
2, 28680, Note_off_c, 1, 39, 0
2, 28680, Note_off_c, 1, 51, 0
2, 28680, Note_off_c, 1, 60, 0
2, 28680, Note_off_c, 1, 66, 0
2, 28680, Note_off_c, 1, 70, 0
2, 28680, Note_off_c, 1, 74, 0
2, 28760, Note_on_c, 1, 59, 127
2, 28760, Note_on_c, 1, 66, 127
2, 28760, Note_on_c, 1, 68, 127
2, 28760, Note_on_c, 1, 74, 127
2, 28760, Note_on_c, 1, 80, 127
2, 28800, Note_off_c, 1, 59, 0
2, 28800, Note_off_c, 1, 66, 0
2, 28800, Note_off_c, 1, 68, 0
2, 28800, Note_off_c, 1, 74, 0
2, 28800, Note_off_c, 1, 80, 0
2, 28920, Note_on_c, 1, 45, 127
2, 28920, Note_on_c, 1, 57, 127
2, 28920, Note_on_c, 1, 64, 127
2, 28920, Note_on_c, 1, 69, 127
2, 28920, Note_on_c, 1, 73, 127
2, 28960, Note_off_c, 1, 45, 0
2, 28960, Note_off_c, 1, 57, 0
2, 28960, Note_off_c, 1, 64, 0
2, 28960, Note_off_c, 1, 69, 0
2, 28960, Note_off_c, 1, 73, 0
2, 29080, Note_on_c, 1, 41, 127
2, 29080, Note_on_c, 1, 53, 127
2, 29080, Note_on_c, 1, 56, 127
2, 29080, Note_on_c, 1, 61, 127
2, 29080, Note_on_c, 1, 65, 127
2, 29080, Note_on_c, 1, 68, 127
2, 29120, Note_off_c, 1, 41, 0
2, 29120, Note_off_c, 1, 53, 0
2, 29120, Note_off_c, 1, 56, 0
2, 29120, Note_off_c, 1, 61, 0
2, 29120, Note_off_c, 1, 65, 0
2, 29120, Note_off_c, 1, 68, 0
2, 29200, Note_on_c, 1, 65, 127
2, 29200, Note_on_c, 1, 71, 127
2, 29200, Note_on_c, 1, 74, 127
2, 29200, Note_on_c, 1, 93, 127
2, 29440, Note_off_c, 1, 65, 0
2, 29440, Note_off_c, 1, 71, 0
2, 29440, Note_off_c, 1, 74, 0
2, 29440, Note_off_c, 1, 93, 0
2, 29480, Note_on_c, 1, 47, 127
2, 29480, Note_on_c, 1, 52, 127
2, 29480, Note_on_c, 1, 55, 127
2, 29480, Note_on_c, 1, 59, 127
2, 29480, Note_on_c, 1, 64, 127
2, 29480, Note_on_c, 1, 71, 127
2, 29520, Note_off_c, 1, 47, 0
2, 29520, Note_off_c, 1, 52, 0
2, 29520, Note_off_c, 1, 55, 0
2, 29520, Note_off_c, 1, 59, 0
2, 29520, Note_off_c, 1, 64, 0
2, 29520, Note_off_c, 1, 71, 0
2, 29560, Note_on_c, 1, 62, 127
2, 29560, Note_on_c, 1, 89, 127
2, 29600, Note_off_c, 1, 62, 0
2, 29600, Note_off_c, 1, 89, 0
2, 29640, Note_on_c, 1, 48, 127
2, 29640, Note_on_c, 1, 59, 127
2, 29640, Note_on_c, 1, 89, 127
2, 29680, Note_off_c, 1, 48, 0
2, 29680, Note_off_c, 1, 59, 0
2, 29680, Note_off_c, 1, 89, 0
2, 29720, Note_on_c, 1, 62, 127
2, 29720, Note_on_c, 1, 88, 127
2, 29760, Note_off_c, 1, 88, 0
2, 29760, Note_on_c, 1, 89, 127
2, 29800, Note_off_c, 1, 62, 0
2, 29800, Note_off_c, 1, 89, 0
2, 29840, Note_on_c, 1, 67, 127
2, 29840, Note_on_c, 1, 88, 127
2, 29880, Note_off_c, 1, 67, 0
2, 29880, Note_off_c, 1, 88, 0
2, 29920, Note_on_c, 1, 59, 127
2, 29920, Note_on_c, 1, 71, 127
2, 29920, Note_on_c, 1, 83, 127
2, 29920, Note_on_c, 1, 91, 127
2, 29960, Note_off_c, 1, 59, 0
2, 29960, Note_off_c, 1, 71, 0
2, 29960, Note_off_c, 1, 83, 0
2, 29960, Note_off_c, 1, 91, 0
2, 30000, Note_on_c, 1, 59, 127
2, 30000, Note_on_c, 1, 62, 127
2, 30000, Note_on_c, 1, 66, 127
2, 30000, Note_on_c, 1, 78, 127
2, 30000, Note_on_c, 1, 86, 127
2, 30040, Note_off_c, 1, 59, 0
2, 30040, Note_off_c, 1, 62, 0
2, 30040, Note_off_c, 1, 66, 0
2, 30040, Note_off_c, 1, 78, 0
2, 30040, Note_off_c, 1, 86, 0
2, 30080, Note_on_c, 1, 53, 127
2, 30080, Note_on_c, 1, 74, 127
2, 30080, Note_on_c, 1, 77, 127
2, 30080, Note_on_c, 1, 81, 127
2, 30080, Note_on_c, 1, 86, 127
2, 30120, Note_off_c, 1, 53, 0
2, 30120, Note_off_c, 1, 74, 0
2, 30120, Note_off_c, 1, 77, 0
2, 30120, Note_off_c, 1, 81, 0
2, 30120, Note_off_c, 1, 86, 0
2, 30160, Note_on_c, 1, 86, 127
2, 30160, Note_on_c, 1, 90, 127
2, 30160, Note_on_c, 1, 93, 127
2, 30160, Note_on_c, 1, 98, 127
2, 30200, Note_off_c, 1, 86, 0
2, 30200, Note_off_c, 1, 90, 0
2, 30200, Note_off_c, 1, 93, 0
2, 30200, Note_off_c, 1, 98, 0
2, 30240, Note_on_c, 1, 80, 127
2, 30240, Note_on_c, 1, 83, 127
2, 30240, Note_on_c, 1, 88, 127
2, 30240, Note_on_c, 1, 92, 127
2, 30280, Note_off_c, 1, 80, 0
2, 30280, Note_off_c, 1, 83, 0
2, 30280, Note_off_c, 1, 88, 0
2, 30280, Note_off_c, 1, 92, 0
2, 30320, Note_on_c, 1, 69, 127
2, 30320, Note_on_c, 1, 81, 127
2, 30360, Note_off_c, 1, 69, 0
2, 30360, Note_off_c, 1, 81, 0
2, 30400, Note_on_c, 1, 44, 127
2, 30400, Note_on_c, 1, 56, 127
2, 30400, Note_on_c, 1, 71, 127
2, 30400, Note_on_c, 1, 75, 127
2, 30400, Note_on_c, 1, 80, 127
2, 30400, Note_on_c, 1, 83, 127
2, 30440, Note_off_c, 1, 44, 0
2, 30440, Note_off_c, 1, 56, 0
2, 30440, Note_off_c, 1, 71, 0
2, 30440, Note_off_c, 1, 75, 0
2, 30440, Note_off_c, 1, 80, 0
2, 30440, Note_off_c, 1, 83, 0
2, 30640, Note_on_c, 1, 49, 127
2, 30640, Note_on_c, 1, 55, 127
2, 30640, Note_on_c, 1, 59, 127
2, 30640, Note_on_c, 1, 64, 127
2, 30640, Note_on_c, 1, 76, 127
2, 30680, Note_off_c, 1, 55, 0
2, 30680, Note_on_c, 1, 57, 127
2, 30680, Note_off_c, 1, 59, 0
2, 30680, Note_off_c, 1, 64, 0
2, 30680, Note_off_c, 1, 76, 0
2, 30720, Note_off_c, 1, 49, 0
2, 30720, Note_on_c, 1, 55, 127
2, 30720, Note_off_c, 1, 57, 0
2, 30720, Note_on_c, 1, 69, 127
2, 30720, Note_on_c, 1, 73, 127
2, 30720, Note_on_c, 1, 76, 127
2, 30720, Note_on_c, 1, 81, 127
2, 30760, Note_on_c, 1, 49, 127
2, 30760, Note_off_c, 1, 55, 0
2, 30760, Note_on_c, 1, 57, 127
2, 30760, Note_off_c, 1, 69, 0
2, 30760, Note_off_c, 1, 73, 0
2, 30760, Note_off_c, 1, 76, 0
2, 30760, Note_off_c, 1, 81, 0
2, 30920, Note_off_c, 1, 57, 0
2, 30920, Note_on_c, 1, 61, 127
2, 30920, Note_on_c, 1, 64, 127
2, 30920, Note_on_c, 1, 69, 127
2, 30920, Note_on_c, 1, 76, 127
2, 30960, Note_off_c, 1, 49, 0
2, 30960, Note_off_c, 1, 61, 0
2, 30960, Note_off_c, 1, 64, 0
2, 30960, Note_off_c, 1, 69, 0
2, 30960, Note_off_c, 1, 76, 0
2, 31000, Note_on_c, 1, 49, 127
2, 31000, Note_on_c, 1, 61, 127
2, 31000, Note_on_c, 1, 64, 127
2, 31000, Note_on_c, 1, 69, 127
2, 31000, Note_on_c, 1, 76, 127
2, 31040, Note_off_c, 1, 49, 0
2, 31040, Note_off_c, 1, 61, 0
2, 31040, Note_off_c, 1, 64, 0
2, 31040, Note_off_c, 1, 69, 0
2, 31040, Note_off_c, 1, 76, 0
2, 31080, Note_on_c, 1, 54, 127
2, 31080, Note_on_c, 1, 66, 127
2, 31080, Note_on_c, 1, 73, 127
2, 31080, Note_on_c, 1, 82, 127
2, 31080, Note_on_c, 1, 85, 127
2, 31120, Note_off_c, 1, 54, 0
2, 31120, Note_off_c, 1, 66, 0
2, 31120, Note_off_c, 1, 73, 0
2, 31120, Note_off_c, 1, 82, 0
2, 31120, Note_off_c, 1, 85, 0
2, 31160, Note_on_c, 1, 50, 127
2, 31160, Note_on_c, 1, 62, 127
2, 31160, Note_on_c, 1, 74, 127
2, 31160, Note_on_c, 1, 78, 127
2, 31160, Note_on_c, 1, 81, 127
2, 31200, Note_on_c, 1, 49, 127
2, 31200, Note_off_c, 1, 50, 0
2, 31200, Note_on_c, 1, 54, 127
2, 31200, Note_on_c, 1, 57, 127
2, 31200, Note_on_c, 1, 61, 127
2, 31200, Note_off_c, 1, 62, 0
2, 31200, Note_on_c, 1, 64, 127
2, 31200, Note_off_c, 1, 74, 0
2, 31200, Note_off_c, 1, 78, 0
2, 31200, Note_off_c, 1, 81, 0
2, 31240, Note_off_c, 1, 49, 0
2, 31240, Note_off_c, 1, 54, 0
2, 31240, Note_off_c, 1, 57, 0
2, 31240, Note_off_c, 1, 61, 0
2, 31240, Note_off_c, 1, 64, 0
2, 31320, Note_on_c, 1, 50, 127
2, 31320, Note_on_c, 1, 57, 127
2, 31320, Note_on_c, 1, 62, 127
2, 31320, Note_on_c, 1, 66, 127
2, 31320, Note_on_c, 1, 69, 127
2, 31320, Note_on_c, 1, 74, 127
2, 31360, Note_off_c, 1, 50, 0
2, 31360, Note_off_c, 1, 57, 0
2, 31360, Note_off_c, 1, 62, 0
2, 31360, Note_off_c, 1, 66, 0
2, 31360, Note_off_c, 1, 69, 0
2, 31360, Note_off_c, 1, 74, 0
2, 31440, Note_on_c, 1, 50, 127
2, 31440, Note_on_c, 1, 62, 127
2, 31440, Note_on_c, 1, 66, 127
2, 31480, Note_on_c, 1, 49, 127
2, 31480, Note_off_c, 1, 50, 0
2, 31480, Note_on_c, 1, 53, 127
2, 31480, Note_on_c, 1, 61, 127
2, 31480, Note_off_c, 1, 62, 0
2, 31480, Note_off_c, 1, 66, 0
2, 31480, Note_on_c, 1, 70, 127
2, 31480, Note_on_c, 1, 79, 127
2, 31480, Note_on_c, 1, 82, 127
2, 31520, Note_off_c, 1, 49, 0
2, 31520, Note_off_c, 1, 53, 0
2, 31520, Note_off_c, 1, 61, 0
2, 31520, Note_off_c, 1, 70, 0
2, 31520, Note_off_c, 1, 79, 0
2, 31520, Note_off_c, 1, 82, 0
2, 31560, Note_on_c, 1, 37, 127
2, 31560, Note_on_c, 1, 49, 127
2, 31560, Note_on_c, 1, 73, 127
2, 31560, Note_on_c, 1, 82, 127
2, 31560, Note_on_c, 1, 85, 127
2, 31600, Note_off_c, 1, 37, 0
2, 31600, Note_off_c, 1, 49, 0
2, 31600, Note_off_c, 1, 73, 0
2, 31600, Note_off_c, 1, 82, 0
2, 31600, Note_off_c, 1, 85, 0
2, 31640, Note_on_c, 1, 50, 127
2, 31640, Note_on_c, 1, 62, 127
2, 31640, Note_on_c, 1, 74, 127
2, 31640, Note_on_c, 1, 83, 127
2, 31680, Note_off_c, 1, 50, 0
2, 31680, Note_off_c, 1, 62, 0
2, 31680, Note_off_c, 1, 74, 0
2, 31680, Note_off_c, 1, 83, 0
2, 31720, Note_on_c, 1, 44, 127
2, 31720, Note_on_c, 1, 51, 127
2, 31720, Note_on_c, 1, 73, 127
2, 31720, Note_on_c, 1, 78, 127
2, 31760, Note_off_c, 1, 44, 0
2, 31760, Note_on_c, 1, 49, 127
2, 31760, Note_off_c, 1, 51, 0
2, 31760, Note_on_c, 1, 61, 127
2, 31760, Note_on_c, 1, 70, 127
2, 31760, Note_off_c, 1, 78, 0
2, 31800, Note_off_c, 1, 49, 0
2, 31800, Note_off_c, 1, 61, 0
2, 31800, Note_off_c, 1, 70, 0
2, 31800, Note_off_c, 1, 73, 0
2, 31840, Note_on_c, 1, 52, 127
2, 31840, Note_on_c, 1, 71, 127
2, 31840, Note_on_c, 1, 73, 127
2, 31880, Note_off_c, 1, 52, 0
2, 31880, Note_off_c, 1, 71, 0
2, 31880, Note_off_c, 1, 73, 0
2, 31920, Note_on_c, 1, 39, 127
2, 31920, Note_on_c, 1, 51, 127
2, 31920, Note_on_c, 1, 56, 127
2, 31920, Note_on_c, 1, 64, 127
2, 31920, Note_on_c, 1, 68, 127
2, 31960, Note_off_c, 1, 39, 0
2, 31960, Note_off_c, 1, 51, 0
2, 31960, Note_off_c, 1, 56, 0
2, 31960, Note_off_c, 1, 64, 0
2, 31960, Note_off_c, 1, 68, 0
2, 32000, Note_on_c, 1, 27, 127
2, 32000, Note_on_c, 1, 39, 127
2, 32000, Note_on_c, 1, 81, 127
2, 32000, Note_on_c, 1, 82, 127
2, 32040, Note_off_c, 1, 27, 0
2, 32040, Note_off_c, 1, 39, 0
2, 32040, Note_on_c, 1, 50, 127
2, 32040, Note_on_c, 1, 58, 127
2, 32040, Note_on_c, 1, 77, 127
2, 32040, Note_off_c, 1, 81, 0
2, 32040, Note_off_c, 1, 82, 0
2, 32080, Note_off_c, 1, 50, 0
2, 32080, Note_off_c, 1, 58, 0
2, 32080, Note_off_c, 1, 77, 0
2, 32120, Note_on_c, 1, 47, 127
2, 32120, Note_on_c, 1, 52, 127
2, 32120, Note_on_c, 1, 59, 127
2, 32120, Note_on_c, 1, 64, 127
2, 32120, Note_on_c, 1, 73, 127
2, 32120, Note_on_c, 1, 76, 127
2, 32160, Note_off_c, 1, 47, 0
2, 32160, Note_off_c, 1, 52, 0
2, 32160, Note_off_c, 1, 59, 0
2, 32160, Note_off_c, 1, 64, 0
2, 32160, Note_off_c, 1, 73, 0
2, 32160, Note_off_c, 1, 76, 0
2, 32200, Note_on_c, 1, 47, 127
2, 32200, Note_on_c, 1, 57, 127
2, 32200, Note_on_c, 1, 61, 127
2, 32200, Note_on_c, 1, 64, 127
2, 32200, Note_on_c, 1, 73, 127
2, 32240, Note_off_c, 1, 47, 0
2, 32240, Note_off_c, 1, 57, 0
2, 32240, Note_off_c, 1, 61, 0
2, 32240, Note_off_c, 1, 64, 0
2, 32240, Note_off_c, 1, 73, 0
2, 32280, Note_on_c, 1, 45, 127
2, 32280, Note_on_c, 1, 52, 127
2, 32280, Note_on_c, 1, 64, 127
2, 32280, Note_on_c, 1, 74, 127
2, 32640, Note_off_c, 1, 45, 0
2, 32640, Note_off_c, 1, 52, 0
2, 32640, Note_off_c, 1, 64, 0
2, 32640, Note_off_c, 1, 74, 0
2, 32720, Note_on_c, 1, 45, 127
2, 32720, Note_on_c, 1, 52, 127
2, 32720, Note_on_c, 1, 64, 127
2, 32720, Note_on_c, 1, 74, 127
2, 32960, Note_off_c, 1, 45, 0
2, 32960, Note_off_c, 1, 52, 0
2, 32960, Note_off_c, 1, 64, 0
2, 32960, Note_off_c, 1, 74, 0
2, 33000, Note_on_c, 1, 45, 127
2, 33000, Note_on_c, 1, 52, 127
2, 33000, Note_on_c, 1, 64, 127
2, 33000, Note_on_c, 1, 74, 127
2, 33200, Note_off_c, 1, 45, 0
2, 33200, Note_off_c, 1, 52, 0
2, 33200, Note_off_c, 1, 64, 0
2, 33200, Note_off_c, 1, 74, 0
2, 33240, Note_on_c, 1, 45, 127
2, 33240, Note_on_c, 1, 52, 127
2, 33240, Note_on_c, 1, 64, 127
2, 33240, Note_on_c, 1, 74, 127
2, 33440, Note_off_c, 1, 45, 0
2, 33440, Note_off_c, 1, 52, 0
2, 33440, Note_off_c, 1, 64, 0
2, 33440, Note_off_c, 1, 74, 0
2, 33480, Note_on_c, 1, 45, 127
2, 33480, Note_on_c, 1, 52, 127
2, 33480, Note_on_c, 1, 64, 127
2, 33480, Note_on_c, 1, 74, 127
2, 33640, Note_off_c, 1, 45, 0
2, 33640, Note_off_c, 1, 52, 0
2, 33640, Note_off_c, 1, 64, 0
2, 33640, Note_off_c, 1, 74, 0
2, 33680, Note_on_c, 1, 65, 127
2, 33680, Note_on_c, 1, 70, 127
2, 33680, Note_on_c, 1, 78, 127
2, 33680, Note_on_c, 1, 82, 127
2, 33880, Note_off_c, 1, 65, 0
2, 33880, Note_off_c, 1, 70, 0
2, 33880, Note_off_c, 1, 78, 0
2, 33880, Note_off_c, 1, 82, 0
2, 33920, Note_on_c, 1, 65, 127
2, 33920, Note_on_c, 1, 70, 127
2, 33920, Note_on_c, 1, 78, 127
2, 33920, Note_on_c, 1, 82, 127
2, 34120, Note_off_c, 1, 65, 0
2, 34120, Note_off_c, 1, 70, 0
2, 34120, Note_off_c, 1, 78, 0
2, 34120, Note_off_c, 1, 82, 0
2, 34160, Note_on_c, 1, 50, 127
2, 34160, Note_on_c, 1, 62, 127
2, 34160, Note_on_c, 1, 69, 127
2, 34160, Note_on_c, 1, 78, 127
2, 34160, Note_on_c, 1, 81, 127
2, 34360, Note_off_c, 1, 50, 0
2, 34360, Note_off_c, 1, 62, 0
2, 34360, Note_off_c, 1, 69, 0
2, 34360, Note_off_c, 1, 78, 0
2, 34360, Note_off_c, 1, 81, 0
2, 34400, Note_on_c, 1, 46, 127
2, 34400, Note_on_c, 1, 58, 127
2, 34400, Note_on_c, 1, 63, 127
2, 34400, Note_on_c, 1, 68, 127
2, 34400, Note_on_c, 1, 72, 127
2, 34440, Note_off_c, 1, 46, 0
2, 34440, Note_on_c, 1, 54, 127
2, 34440, Note_on_c, 1, 66, 127
2, 34440, Note_off_c, 1, 68, 0
2, 34440, Note_on_c, 1, 70, 127
2, 34440, Note_off_c, 1, 72, 0
2, 34440, Note_on_c, 1, 75, 127
2, 34440, Note_on_c, 1, 87, 127
2, 34480, Note_on_c, 1, 47, 127
2, 34480, Note_off_c, 1, 54, 0
2, 34480, Note_off_c, 1, 58, 0
2, 34480, Note_off_c, 1, 63, 0
2, 34480, Note_off_c, 1, 66, 0
2, 34480, Note_off_c, 1, 70, 0
2, 34480, Note_off_c, 1, 75, 0
2, 34480, Note_on_c, 1, 77, 127
2, 34480, Note_off_c, 1, 87, 0
2, 34480, Note_on_c, 1, 91, 127
2, 34520, Note_on_c, 1, 35, 127
2, 34520, Note_off_c, 1, 47, 0
2, 34520, Note_on_c, 1, 54, 127
2, 34520, Note_on_c, 1, 59, 127
2, 34520, Note_on_c, 1, 64, 127
2, 34520, Note_on_c, 1, 68, 127
2, 34520, Note_on_c, 1, 71, 127
2, 34520, Note_off_c, 1, 77, 0
2, 34520, Note_off_c, 1, 91, 0
2, 34560, Note_off_c, 1, 35, 0
2, 34560, Note_on_c, 1, 44, 127
2, 34560, Note_on_c, 1, 48, 127
2, 34560, Note_off_c, 1, 54, 0
2, 34560, Note_off_c, 1, 59, 0
2, 34560, Note_off_c, 1, 64, 0
2, 34560, Note_off_c, 1, 68, 0
2, 34560, Note_off_c, 1, 71, 0
2, 34560, Note_on_c, 1, 72, 127
2, 34560, Note_on_c, 1, 74, 127
2, 34560, Note_on_c, 1, 84, 127
2, 34600, Note_off_c, 1, 44, 0
2, 34600, Note_off_c, 1, 48, 0
2, 34600, Note_off_c, 1, 72, 0
2, 34600, Note_off_c, 1, 74, 0
2, 34600, Note_off_c, 1, 84, 0
2, 34640, Note_on_c, 1, 64, 127
2, 34640, Note_on_c, 1, 69, 127
2, 34640, Note_on_c, 1, 72, 127
2, 34640, Note_on_c, 1, 77, 127
2, 34640, Note_on_c, 1, 84, 127
2, 34800, Note_off_c, 1, 64, 0
2, 34800, Note_off_c, 1, 69, 0
2, 34800, Note_off_c, 1, 72, 0
2, 34800, Note_off_c, 1, 77, 0
2, 34800, Note_off_c, 1, 84, 0
2, 34840, Note_on_c, 1, 45, 127
2, 34840, Note_on_c, 1, 57, 127
2, 34840, Note_on_c, 1, 73, 127
2, 34840, Note_on_c, 1, 79, 127
2, 34880, Note_off_c, 1, 45, 0
2, 34880, Note_off_c, 1, 57, 0
2, 34880, Note_off_c, 1, 73, 0
2, 34880, Note_off_c, 1, 79, 0
2, 34920, Note_on_c, 1, 45, 127
2, 34920, Note_on_c, 1, 57, 127
2, 34920, Note_on_c, 1, 73, 127
2, 34920, Note_on_c, 1, 79, 127
2, 35320, Note_off_c, 1, 45, 0
2, 35320, Note_off_c, 1, 57, 0
2, 35320, Note_off_c, 1, 73, 0
2, 35320, Note_off_c, 1, 79, 0
2, 35360, Note_on_c, 1, 50, 127
2, 35360, Note_on_c, 1, 57, 127
2, 35360, Note_on_c, 1, 74, 127
2, 35360, Note_on_c, 1, 78, 127
2, 35600, Note_off_c, 1, 50, 0
2, 35600, Note_off_c, 1, 57, 0
2, 35600, Note_off_c, 1, 74, 0
2, 35600, Note_off_c, 1, 78, 0
2, 35640, Note_on_c, 1, 66, 127
2, 35640, Note_on_c, 1, 70, 127
2, 35640, Note_on_c, 1, 76, 127
2, 35640, Note_on_c, 1, 88, 127
2, 35640, Note_on_c, 1, 99, 127
2, 35680, Note_off_c, 1, 66, 0
2, 35680, Note_off_c, 1, 70, 0
2, 35680, Note_off_c, 1, 76, 0
2, 35680, Note_off_c, 1, 88, 0
2, 35680, Note_off_c, 1, 99, 0
2, 35720, Note_on_c, 1, 48, 127
2, 35720, Note_on_c, 1, 57, 127
2, 35720, Note_on_c, 1, 63, 127
2, 35720, Note_on_c, 1, 66, 127
2, 35720, Note_on_c, 1, 72, 127
2, 35720, Note_on_c, 1, 78, 127
2, 35760, Note_off_c, 1, 48, 0
2, 35760, Note_off_c, 1, 57, 0
2, 35760, Note_off_c, 1, 63, 0
2, 35760, Note_off_c, 1, 66, 0
2, 35760, Note_off_c, 1, 72, 0
2, 35760, Note_off_c, 1, 78, 0
2, 35800, Note_on_c, 1, 57, 127
2, 35800, Note_on_c, 1, 59, 127
2, 35800, Note_on_c, 1, 81, 127
2, 35800, Note_on_c, 1, 83, 127
2, 35840, Note_off_c, 1, 57, 0
2, 35840, Note_off_c, 1, 59, 0
2, 35840, Note_off_c, 1, 81, 0
2, 35840, Note_off_c, 1, 83, 0
2, 35920, Note_on_c, 1, 49, 127
2, 35920, Note_on_c, 1, 57, 127
2, 35920, Note_on_c, 1, 67, 127
2, 35920, Note_on_c, 1, 69, 127
2, 35920, Note_on_c, 1, 79, 127
2, 35960, Note_off_c, 1, 49, 0
2, 35960, Note_off_c, 1, 57, 0
2, 35960, Note_on_c, 1, 58, 127
2, 35960, Note_on_c, 1, 60, 127
2, 35960, Note_on_c, 1, 63, 127
2, 35960, Note_off_c, 1, 69, 0
2, 35960, Note_on_c, 1, 72, 127
2, 35960, Note_off_c, 1, 79, 0
2, 36000, Note_off_c, 1, 58, 0
2, 36000, Note_off_c, 1, 60, 0
2, 36000, Note_off_c, 1, 63, 0
2, 36000, Note_off_c, 1, 67, 0
2, 36000, Note_off_c, 1, 72, 0
2, 36040, Note_on_c, 1, 37, 127
2, 36040, Note_on_c, 1, 42, 127
2, 36040, Note_on_c, 1, 49, 127
2, 36040, Note_on_c, 1, 58, 127
2, 36040, Note_on_c, 1, 61, 127
2, 36040, Note_on_c, 1, 66, 127
2, 36080, Note_off_c, 1, 37, 0
2, 36080, Note_off_c, 1, 42, 0
2, 36080, Note_off_c, 1, 49, 0
2, 36080, Note_off_c, 1, 58, 0
2, 36080, Note_off_c, 1, 61, 0
2, 36080, Note_off_c, 1, 66, 0
2, 36160, Note_on_c, 1, 61, 127
2, 36160, Note_on_c, 1, 62, 127
2, 36160, Note_on_c, 1, 67, 127
2, 36160, Note_on_c, 1, 70, 127
2, 36160, Note_on_c, 1, 71, 127
2, 36160, Note_on_c, 1, 73, 127
2, 36160, Note_on_c, 1, 74, 127
2, 36200, Note_off_c, 1, 61, 0
2, 36200, Note_off_c, 1, 62, 0
2, 36200, Note_off_c, 1, 67, 0
2, 36200, Note_off_c, 1, 70, 0
2, 36200, Note_off_c, 1, 71, 0
2, 36200, Note_off_c, 1, 73, 0
2, 36200, Note_off_c, 1, 74, 0
2, 36240, Note_on_c, 1, 42, 127
2, 36240, Note_on_c, 1, 53, 127
2, 36240, Note_on_c, 1, 63, 127
2, 36240, Note_on_c, 1, 66, 127
2, 36240, Note_on_c, 1, 75, 127
2, 36280, Note_off_c, 1, 42, 0
2, 36280, Note_off_c, 1, 53, 0
2, 36280, Note_off_c, 1, 63, 0
2, 36280, Note_off_c, 1, 66, 0
2, 36280, Note_off_c, 1, 75, 0
2, 36320, Note_on_c, 1, 57, 127
2, 36320, Note_on_c, 1, 81, 127
2, 36320, Note_on_c, 1, 90, 127
2, 36320, Note_on_c, 1, 93, 127
2, 36360, Note_off_c, 1, 57, 0
2, 36360, Note_on_c, 1, 74, 127
2, 36360, Note_off_c, 1, 90, 0
2, 36400, Note_on_c, 1, 47, 127
2, 36400, Note_on_c, 1, 59, 127
2, 36400, Note_on_c, 1, 62, 127
2, 36400, Note_on_c, 1, 64, 127
2, 36400, Note_on_c, 1, 68, 127
2, 36400, Note_off_c, 1, 74, 0
2, 36400, Note_off_c, 1, 81, 0
2, 36400, Note_off_c, 1, 93, 0
2, 36440, Note_off_c, 1, 47, 0
2, 36440, Note_on_c, 1, 49, 127
2, 36440, Note_off_c, 1, 59, 0
2, 36440, Note_off_c, 1, 62, 0
2, 36440, Note_off_c, 1, 64, 0
2, 36440, Note_off_c, 1, 68, 0
2, 36440, Note_on_c, 1, 80, 127
2, 36440, Note_on_c, 1, 88, 127
2, 36440, Note_on_c, 1, 92, 127
2, 36480, Note_off_c, 1, 49, 0
2, 36480, Note_off_c, 1, 80, 0
2, 36480, Note_off_c, 1, 88, 0
2, 36480, Note_off_c, 1, 92, 0
2, 36600, Note_on_c, 1, 61, 127
2, 36600, Note_on_c, 1, 68, 127
2, 36600, Note_on_c, 1, 77, 127
2, 36600, Note_on_c, 1, 84, 127
2, 36640, Note_off_c, 1, 61, 0
2, 36640, Note_off_c, 1, 68, 0
2, 36640, Note_off_c, 1, 77, 0
2, 36640, Note_off_c, 1, 84, 0
2, 36680, Note_on_c, 1, 52, 127
2, 36680, Note_on_c, 1, 57, 127
2, 36680, Note_on_c, 1, 64, 127
2, 36680, Note_on_c, 1, 67, 127
2, 36680, Note_on_c, 1, 69, 127
2, 36680, Note_on_c, 1, 73, 127
2, 36680, Note_on_c, 1, 79, 127
2, 36840, Note_off_c, 1, 52, 0
2, 36840, Note_off_c, 1, 57, 0
2, 36840, Note_off_c, 1, 64, 0
2, 36840, Note_off_c, 1, 67, 0
2, 36840, Note_off_c, 1, 69, 0
2, 36840, Note_off_c, 1, 73, 0
2, 36840, Note_off_c, 1, 79, 0
2, 36880, Note_on_c, 1, 63, 127
2, 36880, Note_on_c, 1, 85, 127
2, 36880, Note_on_c, 1, 88, 127
2, 36880, Note_on_c, 1, 91, 127
2, 36920, Note_off_c, 1, 63, 0
2, 36920, Note_off_c, 1, 85, 0
2, 36920, Note_off_c, 1, 88, 0
2, 36920, Note_off_c, 1, 91, 0
2, 36960, Note_on_c, 1, 32, 127
2, 36960, Note_on_c, 1, 38, 127
2, 36960, Note_on_c, 1, 44, 127
2, 36960, Note_on_c, 1, 71, 127
2, 37000, Note_off_c, 1, 32, 0
2, 37000, Note_off_c, 1, 38, 0
2, 37000, Note_off_c, 1, 44, 0
2, 37000, Note_off_c, 1, 71, 0
2, 37040, Note_on_c, 1, 81, 127
2, 37040, Note_on_c, 1, 84, 127
2, 37040, Note_on_c, 1, 86, 127
2, 37040, Note_on_c, 1, 93, 127
2, 37080, Note_off_c, 1, 81, 0
2, 37080, Note_off_c, 1, 84, 0
2, 37080, Note_off_c, 1, 86, 0
2, 37080, Note_off_c, 1, 93, 0
2, 37120, Note_on_c, 1, 72, 127
2, 37120, Note_on_c, 1, 84, 127
2, 37120, Note_on_c, 1, 90, 127
2, 37120, Note_on_c, 1, 93, 127
2, 37120, Note_on_c, 1, 99, 127
2, 37160, Note_off_c, 1, 72, 0
2, 37160, Note_off_c, 1, 84, 0
2, 37160, Note_off_c, 1, 90, 0
2, 37160, Note_off_c, 1, 93, 0
2, 37160, Note_off_c, 1, 99, 0
2, 37200, Note_on_c, 1, 44, 127
2, 37200, Note_on_c, 1, 56, 127
2, 37200, Note_on_c, 1, 82, 127
2, 37200, Note_on_c, 1, 86, 127
2, 37200, Note_on_c, 1, 94, 127
2, 37280, Note_off_c, 1, 44, 0
2, 37280, Note_off_c, 1, 56, 0
2, 37280, Note_off_c, 1, 82, 0
2, 37280, Note_off_c, 1, 86, 0
2, 37280, Note_off_c, 1, 94, 0
2, 37320, Note_on_c, 1, 56, 127
2, 37320, Note_on_c, 1, 71, 127
2, 37320, Note_on_c, 1, 76, 127
2, 37320, Note_on_c, 1, 83, 127
2, 37360, Note_off_c, 1, 56, 0
2, 37360, Note_off_c, 1, 71, 0
2, 37360, Note_off_c, 1, 76, 0
2, 37360, Note_off_c, 1, 83, 0
2, 37400, Note_on_c, 1, 38, 127
2, 37400, Note_on_c, 1, 42, 127
2, 37400, Note_on_c, 1, 50, 127
2, 37400, Note_on_c, 1, 66, 127
2, 37400, Note_on_c, 1, 74, 127
2, 37400, Note_on_c, 1, 78, 127
2, 37440, Note_off_c, 1, 38, 0
2, 37440, Note_off_c, 1, 42, 0
2, 37440, Note_off_c, 1, 50, 0
2, 37440, Note_off_c, 1, 66, 0
2, 37440, Note_off_c, 1, 74, 0
2, 37440, Note_off_c, 1, 78, 0
2, 37480, Note_on_c, 1, 38, 127
2, 37480, Note_on_c, 1, 42, 127
2, 37480, Note_on_c, 1, 50, 127
2, 37480, Note_on_c, 1, 66, 127
2, 37480, Note_on_c, 1, 74, 127
2, 37480, Note_on_c, 1, 78, 127
2, 37640, Note_off_c, 1, 38, 0
2, 37640, Note_off_c, 1, 42, 0
2, 37640, Note_off_c, 1, 50, 0
2, 37640, Note_off_c, 1, 66, 0
2, 37640, Note_off_c, 1, 74, 0
2, 37640, Note_off_c, 1, 78, 0
2, 37760, Note_on_c, 1, 52, 127
2, 37760, Note_on_c, 1, 57, 127
2, 37760, Note_on_c, 1, 60, 127
2, 37760, Note_on_c, 1, 64, 127
2, 37760, Note_on_c, 1, 76, 127
2, 37840, Note_off_c, 1, 52, 0
2, 37840, Note_off_c, 1, 57, 0
2, 37840, Note_off_c, 1, 60, 0
2, 37840, Note_off_c, 1, 64, 0
2, 37840, Note_off_c, 1, 76, 0
2, 37920, Note_on_c, 1, 52, 127
2, 37920, Note_on_c, 1, 60, 127
2, 37920, Note_on_c, 1, 64, 127
2, 37920, Note_on_c, 1, 67, 127
2, 37920, Note_on_c, 1, 72, 127
2, 37920, Note_on_c, 1, 79, 127
2, 38000, Note_off_c, 1, 52, 0
2, 38000, Note_off_c, 1, 60, 0
2, 38000, Note_off_c, 1, 64, 0
2, 38000, Note_off_c, 1, 67, 0
2, 38000, Note_off_c, 1, 72, 0
2, 38000, Note_off_c, 1, 79, 0
2, 38040, Note_on_c, 1, 52, 127
2, 38040, Note_on_c, 1, 60, 127
2, 38040, Note_on_c, 1, 64, 127
2, 38040, Note_on_c, 1, 67, 127
2, 38040, Note_on_c, 1, 72, 127
2, 38040, Note_on_c, 1, 79, 127
2, 38240, Note_off_c, 1, 52, 0
2, 38240, Note_off_c, 1, 60, 0
2, 38240, Note_off_c, 1, 64, 0
2, 38240, Note_off_c, 1, 67, 0
2, 38240, Note_off_c, 1, 72, 0
2, 38240, Note_off_c, 1, 79, 0
2, 38280, Note_on_c, 1, 52, 127
2, 38280, Note_on_c, 1, 60, 127
2, 38280, Note_on_c, 1, 64, 127
2, 38280, Note_on_c, 1, 67, 127
2, 38280, Note_on_c, 1, 72, 127
2, 38280, Note_on_c, 1, 79, 127
2, 38520, Note_off_c, 1, 52, 0
2, 38520, Note_off_c, 1, 60, 0
2, 38520, Note_off_c, 1, 64, 0
2, 38520, Note_off_c, 1, 67, 0
2, 38520, Note_off_c, 1, 72, 0
2, 38520, Note_off_c, 1, 79, 0
2, 38560, Note_on_c, 1, 43, 127
2, 38560, Note_on_c, 1, 55, 127
2, 38560, Note_on_c, 1, 67, 127
2, 38560, Note_on_c, 1, 79, 127
2, 38640, Note_off_c, 1, 43, 0
2, 38640, Note_off_c, 1, 55, 0
2, 38640, Note_off_c, 1, 67, 0
2, 38640, Note_off_c, 1, 79, 0
2, 38680, Note_on_c, 1, 60, 127
2, 38680, Note_on_c, 1, 67, 127
2, 38680, Note_on_c, 1, 72, 127
2, 38680, Note_on_c, 1, 76, 127
2, 38880, Note_off_c, 1, 60, 0
2, 38880, Note_off_c, 1, 67, 0
2, 38880, Note_off_c, 1, 72, 0
2, 38880, Note_off_c, 1, 76, 0
2, 38920, Note_on_c, 1, 62, 127
2, 38920, Note_on_c, 1, 65, 127
2, 38920, Note_on_c, 1, 67, 127
2, 38920, Note_on_c, 1, 73, 127
2, 38920, Note_on_c, 1, 76, 127
2, 38960, Note_on_c, 1, 57, 127
2, 38960, Note_off_c, 1, 67, 0
2, 38960, Note_off_c, 1, 73, 0
2, 38960, Note_on_c, 1, 74, 127
2, 38960, Note_off_c, 1, 76, 0
2, 38960, Note_on_c, 1, 77, 127
2, 39000, Note_off_c, 1, 57, 0
2, 39000, Note_off_c, 1, 62, 0
2, 39000, Note_off_c, 1, 65, 0
2, 39000, Note_off_c, 1, 74, 0
2, 39000, Note_off_c, 1, 77, 0
2, 39040, Note_on_c, 1, 57, 127
2, 39040, Note_on_c, 1, 62, 127
2, 39040, Note_on_c, 1, 65, 127
2, 39040, Note_on_c, 1, 74, 127
2, 39040, Note_on_c, 1, 77, 127
2, 39160, Note_off_c, 1, 57, 0
2, 39160, Note_off_c, 1, 62, 0
2, 39160, Note_off_c, 1, 65, 0
2, 39160, Note_off_c, 1, 77, 0
2, 39200, Note_on_c, 1, 51, 127
2, 39200, Note_on_c, 1, 57, 127
2, 39200, Note_on_c, 1, 60, 127
2, 39200, Note_on_c, 1, 63, 127
2, 39200, Note_on_c, 1, 69, 127
2, 39200, Note_on_c, 1, 72, 127
2, 39200, Note_off_c, 1, 74, 0
2, 39240, Note_on_c, 1, 48, 127
2, 39240, Note_off_c, 1, 51, 0
2, 39240, Note_off_c, 1, 57, 0
2, 39240, Note_off_c, 1, 60, 0
2, 39240, Note_off_c, 1, 63, 0
2, 39240, Note_on_c, 1, 64, 127
2, 39240, Note_off_c, 1, 69, 0
2, 39240, Note_off_c, 1, 72, 0
2, 39240, Note_on_c, 1, 84, 127
2, 39240, Note_on_c, 1, 93, 127
2, 39280, Note_off_c, 1, 48, 0
2, 39280, Note_off_c, 1, 64, 0
2, 39280, Note_off_c, 1, 84, 0
2, 39280, Note_off_c, 1, 93, 0
2, 39320, Note_on_c, 1, 53, 127
2, 39320, Note_on_c, 1, 57, 127
2, 39320, Note_on_c, 1, 62, 127
2, 39320, Note_on_c, 1, 65, 127
2, 39320, Note_on_c, 1, 81, 127
2, 39320, Note_on_c, 1, 86, 127
2, 39360, Note_off_c, 1, 53, 0
2, 39360, Note_off_c, 1, 57, 0
2, 39360, Note_off_c, 1, 62, 0
2, 39360, Note_off_c, 1, 65, 0
2, 39360, Note_off_c, 1, 81, 0
2, 39360, Note_off_c, 1, 86, 0
2, 39440, Note_on_c, 1, 34, 127
2, 39440, Note_on_c, 1, 46, 127
2, 39440, Note_on_c, 1, 67, 127
2, 39440, Note_on_c, 1, 74, 127
2, 39440, Note_on_c, 1, 77, 127
2, 39440, Note_on_c, 1, 79, 127
2, 39640, Note_off_c, 1, 34, 0
2, 39640, Note_off_c, 1, 46, 0
2, 39640, Note_off_c, 1, 67, 0
2, 39640, Note_off_c, 1, 74, 0
2, 39640, Note_off_c, 1, 77, 0
2, 39640, Note_off_c, 1, 79, 0
2, 39680, Note_on_c, 1, 46, 127
2, 39680, Note_on_c, 1, 58, 127
2, 39680, Note_on_c, 1, 67, 127
2, 39680, Note_on_c, 1, 74, 127
2, 39680, Note_on_c, 1, 77, 127
2, 39680, Note_on_c, 1, 79, 127
2, 39840, Note_off_c, 1, 46, 0
2, 39840, Note_off_c, 1, 58, 0
2, 39840, Note_off_c, 1, 67, 0
2, 39840, Note_off_c, 1, 74, 0
2, 39840, Note_off_c, 1, 77, 0
2, 39840, Note_off_c, 1, 79, 0
2, 39880, Note_on_c, 1, 39, 127
2, 39880, Note_on_c, 1, 43, 127
2, 39880, Note_on_c, 1, 46, 127
2, 39880, Note_on_c, 1, 51, 127
2, 39880, Note_on_c, 1, 79, 127
2, 39880, Note_on_c, 1, 82, 127
2, 39880, Note_on_c, 1, 87, 127
2, 39880, Note_on_c, 1, 91, 127
2, 40120, Note_off_c, 1, 39, 0
2, 40120, Note_off_c, 1, 43, 0
2, 40120, Note_off_c, 1, 46, 0
2, 40120, Note_off_c, 1, 51, 0
2, 40120, Note_off_c, 1, 79, 0
2, 40120, Note_off_c, 1, 82, 0
2, 40120, Note_off_c, 1, 87, 0
2, 40120, Note_off_c, 1, 91, 0
2, 40160, Note_on_c, 1, 50, 127
2, 40160, Note_on_c, 1, 55, 127
2, 40160, Note_on_c, 1, 58, 127
2, 40160, Note_on_c, 1, 62, 127
2, 40160, Note_on_c, 1, 67, 127
2, 40160, Note_on_c, 1, 69, 127
2, 40200, Note_on_c, 1, 38, 127
2, 40200, Note_on_c, 1, 45, 127
2, 40200, Note_off_c, 1, 50, 0
2, 40200, Note_off_c, 1, 55, 0
2, 40200, Note_off_c, 1, 58, 0
2, 40200, Note_on_c, 1, 66, 127
2, 40200, Note_off_c, 1, 67, 0
2, 40200, Note_off_c, 1, 69, 0
2, 40240, Note_off_c, 1, 38, 0
2, 40240, Note_off_c, 1, 45, 0
2, 40240, Note_on_c, 1, 47, 127
2, 40240, Note_on_c, 1, 61, 127
2, 40240, Note_off_c, 1, 62, 0
2, 40240, Note_off_c, 1, 66, 0
2, 40240, Note_on_c, 1, 70, 127
2, 40240, Note_on_c, 1, 73, 127
2, 40280, Note_on_c, 1, 50, 127
2, 40280, Note_on_c, 1, 53, 127
2, 40280, Note_on_c, 1, 56, 127
2, 40280, Note_on_c, 1, 59, 127
2, 40280, Note_off_c, 1, 61, 0
2, 40280, Note_off_c, 1, 70, 0
2, 40280, Note_off_c, 1, 73, 0
2, 40320, Note_on_c, 1, 38, 127
2, 40320, Note_on_c, 1, 45, 127
2, 40320, Note_off_c, 1, 47, 0
2, 40320, Note_off_c, 1, 50, 0
2, 40320, Note_off_c, 1, 53, 0
2, 40320, Note_off_c, 1, 56, 0
2, 40320, Note_on_c, 1, 57, 127
2, 40320, Note_off_c, 1, 59, 0
2, 40320, Note_on_c, 1, 71, 127
2, 40360, Note_off_c, 1, 57, 0
2, 40360, Note_on_c, 1, 62, 127
2, 40360, Note_off_c, 1, 71, 0
2, 40400, Note_off_c, 1, 38, 0
2, 40400, Note_off_c, 1, 45, 0
2, 40400, Note_on_c, 1, 48, 127
2, 40400, Note_on_c, 1, 58, 127
2, 40400, Note_off_c, 1, 62, 0
2, 40400, Note_on_c, 1, 65, 127
2, 40400, Note_on_c, 1, 67, 127
2, 40400, Note_on_c, 1, 69, 127
2, 40440, Note_off_c, 1, 48, 0
2, 40440, Note_on_c, 1, 50, 127
2, 40440, Note_on_c, 1, 57, 127
2, 40440, Note_off_c, 1, 58, 0
2, 40440, Note_on_c, 1, 60, 127
2, 40440, Note_on_c, 1, 64, 127
2, 40440, Note_off_c, 1, 65, 0
2, 40440, Note_off_c, 1, 69, 0
2, 40440, Note_on_c, 1, 74, 127
2, 40480, Note_on_c, 1, 41, 127
2, 40480, Note_on_c, 1, 53, 127
2, 40480, Note_off_c, 1, 57, 0
2, 40480, Note_off_c, 1, 60, 0
2, 40480, Note_off_c, 1, 64, 0
2, 40480, Note_off_c, 1, 67, 0
2, 40480, Note_off_c, 1, 74, 0
2, 40480, Note_on_c, 1, 77, 127
2, 40520, Note_off_c, 1, 41, 0
2, 40520, Note_off_c, 1, 50, 0
2, 40520, Note_on_c, 1, 51, 127
2, 40520, Note_off_c, 1, 53, 0
2, 40520, Note_on_c, 1, 57, 127
2, 40520, Note_on_c, 1, 60, 127
2, 40520, Note_on_c, 1, 66, 127
2, 40520, Note_off_c, 1, 77, 0
2, 40520, Note_on_c, 1, 91, 127
2, 40520, Note_on_c, 1, 103, 127
2, 40560, Note_on_c, 1, 35, 127
2, 40560, Note_on_c, 1, 41, 127
2, 40560, Note_on_c, 1, 47, 127
2, 40560, Note_off_c, 1, 51, 0
2, 40560, Note_off_c, 1, 57, 0
2, 40560, Note_off_c, 1, 60, 0
2, 40560, Note_on_c, 1, 62, 127
2, 40560, Note_off_c, 1, 66, 0
2, 40560, Note_off_c, 1, 91, 0
2, 40560, Note_off_c, 1, 103, 0
2, 40600, Note_off_c, 1, 35, 0
2, 40600, Note_off_c, 1, 41, 0
2, 40600, Note_off_c, 1, 47, 0
2, 40600, Note_off_c, 1, 62, 0
2, 40640, Note_on_c, 1, 59, 127
2, 40640, Note_on_c, 1, 103, 127
2, 40680, Note_off_c, 1, 59, 0
2, 40680, Note_on_c, 1, 91, 127
2, 40680, Note_off_c, 1, 103, 0
2, 40720, Note_on_c, 1, 42, 127
2, 40720, Note_on_c, 1, 57, 127
2, 40720, Note_on_c, 1, 62, 127
2, 40720, Note_on_c, 1, 69, 127
2, 40720, Note_on_c, 1, 70, 127
2, 40720, Note_off_c, 1, 91, 0
2, 40760, Note_on_c, 1, 39, 127
2, 40760, Note_off_c, 1, 42, 0
2, 40760, Note_on_c, 1, 53, 127
2, 40760, Note_off_c, 1, 57, 0
2, 40760, Note_off_c, 1, 62, 0
2, 40760, Note_off_c, 1, 69, 0
2, 40760, Note_off_c, 1, 70, 0
2, 40760, Note_on_c, 1, 80, 127
2, 40800, Note_off_c, 1, 39, 0
2, 40800, Note_off_c, 1, 53, 0
2, 40800, Note_on_c, 1, 55, 127
2, 40800, Note_on_c, 1, 74, 127
2, 40800, Note_off_c, 1, 80, 0
2, 40800, Note_on_c, 1, 86, 127
2, 40840, Note_on_c, 1, 54, 127
2, 40840, Note_off_c, 1, 55, 0
2, 40840, Note_on_c, 1, 61, 127
2, 40840, Note_on_c, 1, 70, 127
2, 40840, Note_off_c, 1, 74, 0
2, 40840, Note_on_c, 1, 77, 127
2, 40840, Note_on_c, 1, 80, 127
2, 40840, Note_off_c, 1, 86, 0
2, 40880, Note_on_c, 1, 32, 127
2, 40880, Note_on_c, 1, 35, 127
2, 40880, Note_on_c, 1, 44, 127
2, 40880, Note_off_c, 1, 54, 0
2, 40880, Note_off_c, 1, 61, 0
2, 40880, Note_off_c, 1, 70, 0
2, 40880, Note_on_c, 1, 73, 127
2, 40880, Note_on_c, 1, 76, 127
2, 40880, Note_off_c, 1, 77, 0
2, 40880, Note_off_c, 1, 80, 0
2, 40880, Note_on_c, 1, 82, 127
2, 40880, Note_on_c, 1, 83, 127
2, 40920, Note_off_c, 1, 32, 0
2, 40920, Note_off_c, 1, 35, 0
2, 40920, Note_off_c, 1, 44, 0
2, 40920, Note_on_c, 1, 52, 127
2, 40920, Note_on_c, 1, 54, 127
2, 40920, Note_on_c, 1, 57, 127
2, 40920, Note_on_c, 1, 59, 127
2, 40920, Note_on_c, 1, 63, 127
2, 40920, Note_off_c, 1, 73, 0
2, 40920, Note_off_c, 1, 76, 0
2, 40920, Note_off_c, 1, 82, 0
2, 40920, Note_off_c, 1, 83, 0
2, 40920, Note_on_c, 1, 87, 127
2, 40960, Note_off_c, 1, 52, 0
2, 40960, Note_off_c, 1, 57, 0
2, 40960, Note_off_c, 1, 59, 0
2, 40960, Note_on_c, 1, 61, 127
2, 40960, Note_off_c, 1, 63, 0
2, 40960, Note_on_c, 1, 70, 127
2, 40960, Note_on_c, 1, 77, 127
2, 40960, Note_on_c, 1, 80, 127
2, 40960, Note_off_c, 1, 87, 0
2, 41000, Note_on_c, 1, 39, 127
2, 41000, Note_on_c, 1, 51, 127
2, 41000, Note_on_c, 1, 57, 127
2, 41000, Note_off_c, 1, 61, 0
2, 41000, Note_off_c, 1, 70, 0
2, 41000, Note_off_c, 1, 77, 0
2, 41000, Note_off_c, 1, 80, 0
2, 41040, Note_on_c, 1, 37, 127
2, 41040, Note_off_c, 1, 39, 0
2, 41040, Note_on_c, 1, 49, 127
2, 41040, Note_off_c, 1, 51, 0
2, 41040, Note_off_c, 1, 54, 0
2, 41040, Note_off_c, 1, 57, 0
2, 41040, Note_on_c, 1, 93, 127
2, 41080, Note_off_c, 1, 37, 0
2, 41080, Note_off_c, 1, 49, 0
2, 41080, Note_off_c, 1, 93, 0
2, 41120, Note_on_c, 1, 98, 127
2, 41160, Note_on_c, 1, 40, 127
2, 41160, Note_on_c, 1, 52, 127
2, 41160, Note_on_c, 1, 56, 127
2, 41160, Note_on_c, 1, 59, 127
2, 41160, Note_on_c, 1, 64, 127
2, 41160, Note_on_c, 1, 68, 127
2, 41160, Note_on_c, 1, 76, 127
2, 41160, Note_on_c, 1, 80, 127
2, 41160, Note_on_c, 1, 88, 127
2, 41160, Note_off_c, 1, 98, 0
2, 41200, Note_off_c, 1, 40, 0
2, 41200, Note_off_c, 1, 52, 0
2, 41200, Note_on_c, 1, 55, 127
2, 41200, Note_off_c, 1, 56, 0
2, 41200, Note_off_c, 1, 64, 0
2, 41200, Note_on_c, 1, 65, 127
2, 41200, Note_off_c, 1, 68, 0
2, 41200, Note_off_c, 1, 76, 0
2, 41200, Note_on_c, 1, 77, 127
2, 41200, Note_off_c, 1, 80, 0
2, 41200, Note_on_c, 1, 83, 127
2, 41200, Note_off_c, 1, 88, 0
2, 41200, Note_on_c, 1, 89, 127
2, 41240, Note_on_c, 1, 36, 127
2, 41240, Note_on_c, 1, 43, 127
2, 41240, Note_on_c, 1, 48, 127
2, 41240, Note_on_c, 1, 52, 127
2, 41240, Note_off_c, 1, 55, 0
2, 41240, Note_off_c, 1, 59, 0
2, 41240, Note_on_c, 1, 64, 127
2, 41240, Note_off_c, 1, 65, 0
2, 41240, Note_on_c, 1, 67, 127
2, 41240, Note_off_c, 1, 77, 0
2, 41240, Note_off_c, 1, 83, 0
2, 41240, Note_off_c, 1, 89, 0
2, 41280, Note_off_c, 1, 36, 0
2, 41280, Note_off_c, 1, 43, 0
2, 41280, Note_on_c, 1, 46, 127
2, 41280, Note_off_c, 1, 48, 0
2, 41280, Note_off_c, 1, 52, 0
2, 41280, Note_on_c, 1, 56, 127
2, 41280, Note_off_c, 1, 64, 0
2, 41280, Note_off_c, 1, 67, 0
2, 41280, Note_on_c, 1, 86, 127
2, 41320, Note_off_c, 1, 46, 0
2, 41320, Note_on_c, 1, 49, 127
2, 41320, Note_on_c, 1, 53, 127
2, 41320, Note_on_c, 1, 61, 127
2, 41320, Note_on_c, 1, 75, 127
2, 41320, Note_off_c, 1, 86, 0
2, 41360, Note_off_c, 1, 49, 0
2, 41360, Note_off_c, 1, 53, 0
2, 41360, Note_off_c, 1, 56, 0
2, 41360, Note_off_c, 1, 61, 0
2, 41360, Note_on_c, 1, 67, 127
2, 41360, Note_off_c, 1, 75, 0
2, 41360, Note_on_c, 1, 88, 127
2, 41360, Note_on_c, 1, 97, 127
2, 41400, Note_off_c, 1, 67, 0
2, 41400, Note_on_c, 1, 79, 127
2, 41400, Note_off_c, 1, 88, 0
2, 41400, Note_off_c, 1, 97, 0
2, 41400, Note_on_c, 1, 103, 127
2, 41400, Note_on_c, 1, 104, 127
2, 41440, Note_on_c, 1, 43, 127
2, 41440, Note_on_c, 1, 48, 127
2, 41440, Note_on_c, 1, 73, 127
2, 41440, Note_off_c, 1, 79, 0
2, 41440, Note_on_c, 1, 82, 127
2, 41440, Note_on_c, 1, 85, 127
2, 41440, Note_off_c, 1, 103, 0
2, 41440, Note_off_c, 1, 104, 0
2, 41480, Note_off_c, 1, 43, 0
2, 41480, Note_off_c, 1, 48, 0
2, 41480, Note_off_c, 1, 73, 0
2, 41480, Note_off_c, 1, 82, 0
2, 41480, Note_off_c, 1, 85, 0
2, 41480, Note_on_c, 1, 91, 127
2, 41480, Note_on_c, 1, 103, 127
2, 41520, Note_on_c, 1, 40, 127
2, 41520, Note_on_c, 1, 45, 127
2, 41520, Note_on_c, 1, 52, 127
2, 41520, Note_on_c, 1, 84, 127
2, 41520, Note_on_c, 1, 89, 127
2, 41520, Note_off_c, 1, 91, 0
2, 41520, Note_off_c, 1, 103, 0
2, 41560, Note_off_c, 1, 40, 0
2, 41560, Note_off_c, 1, 45, 0
2, 41560, Note_on_c, 1, 48, 127
2, 41560, Note_off_c, 1, 52, 0
2, 41560, Note_on_c, 1, 53, 127
2, 41560, Note_on_c, 1, 56, 127
2, 41560, Note_on_c, 1, 59, 127
2, 41560, Note_on_c, 1, 62, 127
2, 41560, Note_on_c, 1, 65, 127
2, 41560, Note_on_c, 1, 68, 127
2, 41560, Note_on_c, 1, 71, 127
2, 41560, Note_on_c, 1, 74, 127
2, 41560, Note_on_c, 1, 77, 127
2, 41560, Note_off_c, 1, 84, 0
2, 41560, Note_off_c, 1, 89, 0
2, 41600, Note_off_c, 1, 48, 0
2, 41600, Note_off_c, 1, 53, 0
2, 41600, Note_off_c, 1, 56, 0
2, 41600, Note_off_c, 1, 59, 0
2, 41600, Note_off_c, 1, 62, 0
2, 41600, Note_off_c, 1, 65, 0
2, 41600, Note_off_c, 1, 68, 0
2, 41600, Note_off_c, 1, 71, 0
2, 41600, Note_off_c, 1, 74, 0
2, 41600, Note_off_c, 1, 77, 0
2, 41640, Note_on_c, 1, 46, 127
2, 41640, Note_on_c, 1, 74, 127
2, 41640, Note_on_c, 1, 76, 127
2, 41680, Note_off_c, 1, 46, 0
2, 41680, Note_off_c, 1, 74, 0
2, 41720, Note_on_c, 1, 47, 127
2, 41760, Note_off_c, 1, 47, 0
2, 41760, Note_on_c, 1, 59, 127
2, 41760, Note_on_c, 1, 77, 127
2, 41800, Note_off_c, 1, 59, 0
2, 41800, Note_off_c, 1, 77, 0
2, 41840, Note_on_c, 1, 55, 127
2, 41840, Note_on_c, 1, 74, 127
2, 41880, Note_off_c, 1, 55, 0
2, 41880, Note_off_c, 1, 74, 0
2, 41920, Note_on_c, 1, 55, 127
2, 41920, Note_on_c, 1, 74, 127
2, 41960, Note_on_c, 1, 67, 127
2, 41960, Note_on_c, 1, 71, 127
2, 41960, Note_off_c, 1, 74, 0
2, 41960, Note_off_c, 1, 76, 0
2, 41960, Note_on_c, 1, 79, 127
2, 42000, Note_off_c, 1, 55, 0
2, 42000, Note_off_c, 1, 71, 0
2, 42040, Note_on_c, 1, 47, 127
2, 42080, Note_off_c, 1, 47, 0
2, 42120, Note_on_c, 1, 59, 127
2, 42160, Note_on_c, 1, 55, 127
2, 42160, Note_off_c, 1, 59, 0
2, 42200, Note_off_c, 1, 55, 0
2, 42200, Note_on_c, 1, 64, 127
2, 42200, Note_off_c, 1, 67, 0
2, 42200, Note_on_c, 1, 72, 127
2, 42200, Note_on_c, 1, 76, 127
2, 42200, Note_off_c, 1, 79, 0
2, 42200, Note_on_c, 1, 84, 127
2, 42240, Note_on_c, 1, 55, 127
2, 42240, Note_off_c, 1, 64, 0
2, 42240, Note_on_c, 1, 67, 127
2, 42240, Note_off_c, 1, 72, 0
2, 42240, Note_off_c, 1, 76, 0
2, 42240, Note_on_c, 1, 79, 127
2, 42240, Note_off_c, 1, 84, 0
2, 42280, Note_off_c, 1, 55, 0
2, 42320, Note_on_c, 1, 50, 127
2, 42320, Note_off_c, 1, 67, 0
2, 42320, Note_on_c, 1, 72, 127
2, 42320, Note_on_c, 1, 76, 127
2, 42320, Note_off_c, 1, 79, 0
2, 42360, Note_off_c, 1, 50, 0
2, 42360, Note_on_c, 1, 59, 127
2, 42360, Note_on_c, 1, 67, 127
2, 42360, Note_off_c, 1, 72, 0
2, 42360, Note_on_c, 1, 79, 127
2, 42400, Note_off_c, 1, 59, 0
2, 42400, Note_off_c, 1, 67, 0
2, 42400, Note_off_c, 1, 76, 0
2, 42400, Note_off_c, 1, 79, 0
2, 42440, Note_on_c, 1, 52, 127
2, 42440, Note_on_c, 1, 71, 127
2, 42440, Note_on_c, 1, 79, 127
2, 42480, Note_on_c, 1, 43, 127
2, 42480, Note_on_c, 1, 50, 127
2, 42480, Note_off_c, 1, 52, 0
2, 42480, Note_on_c, 1, 55, 127
2, 42480, Note_off_c, 1, 71, 0
2, 42480, Note_on_c, 1, 74, 127
2, 42480, Note_off_c, 1, 79, 0
2, 42480, Note_on_c, 1, 83, 127
2, 42480, Note_on_c, 1, 86, 127
2, 42520, Note_off_c, 1, 43, 0
2, 42520, Note_off_c, 1, 50, 0
2, 42520, Note_off_c, 1, 55, 0
2, 42520, Note_off_c, 1, 74, 0
2, 42520, Note_off_c, 1, 83, 0
2, 42520, Note_off_c, 1, 86, 0
2, 42560, Note_on_c, 1, 59, 127
2, 42560, Note_on_c, 1, 62, 127
2, 42560, Note_on_c, 1, 67, 127
2, 42560, Note_on_c, 1, 71, 127
2, 42560, Note_on_c, 1, 76, 127
2, 42600, Note_off_c, 1, 76, 0
2, 42600, Note_on_c, 1, 79, 127
2, 42720, Note_on_c, 1, 74, 127
2, 42720, Note_off_c, 1, 79, 0
2, 42800, Note_off_c, 1, 59, 0
2, 42800, Note_off_c, 1, 62, 0
2, 42800, Note_off_c, 1, 67, 0
2, 42800, Note_off_c, 1, 71, 0
2, 42800, Note_off_c, 1, 74, 0
2, 42840, Note_on_c, 1, 52, 127
2, 42840, Note_on_c, 1, 76, 127
2, 42880, Note_on_c, 1, 69, 127
2, 42920, Note_off_c, 1, 52, 0
2, 42920, Note_off_c, 1, 69, 0
2, 42920, Note_off_c, 1, 76, 0
2, 42960, Note_on_c, 1, 57, 127
2, 42960, Note_on_c, 1, 74, 127
2, 43040, Note_on_c, 1, 60, 127
2, 43040, Note_on_c, 1, 64, 127
2, 43040, Note_on_c, 1, 72, 127
2, 43040, Note_off_c, 1, 74, 0
2, 43080, Note_off_c, 1, 60, 0
2, 43080, Note_off_c, 1, 64, 0
2, 43080, Note_off_c, 1, 72, 0
2, 43080, Note_on_c, 1, 76, 127
2, 43120, Note_off_c, 1, 57, 0
2, 43120, Note_on_c, 1, 60, 127
2, 43120, Note_on_c, 1, 64, 127
2, 43120, Note_off_c, 1, 76, 0
2, 43120, Note_on_c, 1, 88, 127
2, 43160, Note_on_c, 1, 57, 127
2, 43160, Note_on_c, 1, 72, 127
2, 43160, Note_off_c, 1, 88, 0
2, 43200, Note_off_c, 1, 57, 0
2, 43200, Note_off_c, 1, 72, 0
2, 43200, Note_on_c, 1, 88, 127
2, 43240, Note_off_c, 1, 60, 0
2, 43240, Note_off_c, 1, 64, 0
2, 43240, Note_off_c, 1, 88, 0
2, 43320, Note_on_c, 1, 52, 127
2, 43320, Note_on_c, 1, 57, 127
2, 43320, Note_on_c, 1, 72, 127
2, 43360, Note_off_c, 1, 52, 0
2, 43360, Note_off_c, 1, 57, 0
2, 43400, Note_on_c, 1, 60, 127
2, 43400, Note_on_c, 1, 64, 127
2, 43480, Note_off_c, 1, 60, 0
2, 43480, Note_off_c, 1, 64, 0
2, 43480, Note_off_c, 1, 72, 0
2, 43520, Note_on_c, 1, 53, 127
2, 43520, Note_on_c, 1, 74, 127
2, 43600, Note_on_c, 1, 71, 127
2, 43600, Note_off_c, 1, 74, 0
2, 43640, Note_off_c, 1, 53, 0
2, 43640, Note_on_c, 1, 57, 127
2, 43640, Note_off_c, 1, 71, 0
2, 43640, Note_on_c, 1, 72, 127
2, 43680, Note_on_c, 1, 56, 127
2, 43680, Note_off_c, 1, 57, 0
2, 43680, Note_on_c, 1, 64, 127
2, 43680, Note_on_c, 1, 71, 127
2, 43680, Note_off_c, 1, 72, 0
2, 43720, Note_off_c, 1, 56, 0
2, 43720, Note_off_c, 1, 64, 0
2, 43760, Note_on_c, 1, 54, 127
2, 43760, Note_on_c, 1, 59, 127
2, 43760, Note_on_c, 1, 63, 127
2, 43840, Note_off_c, 1, 54, 0
2, 43840, Note_off_c, 1, 59, 0
2, 43840, Note_off_c, 1, 63, 0
2, 43880, Note_on_c, 1, 55, 127
2, 43880, Note_on_c, 1, 59, 127
2, 43880, Note_on_c, 1, 64, 127
2, 43920, Note_off_c, 1, 55, 0
2, 43920, Note_off_c, 1, 59, 0
2, 43920, Note_off_c, 1, 64, 0
2, 43960, Note_on_c, 1, 57, 127
2, 43960, Note_on_c, 1, 60, 127
2, 43960, Note_on_c, 1, 64, 127
2, 43960, Note_off_c, 1, 71, 0
2, 43960, Note_on_c, 1, 72, 127
2, 44120, Note_on_c, 1, 69, 127
2, 44120, Note_off_c, 1, 72, 0
2, 44280, Note_off_c, 1, 57, 0
2, 44280, Note_off_c, 1, 60, 0
2, 44280, Note_off_c, 1, 64, 0
2, 44280, Note_off_c, 1, 69, 0
2, 44320, Note_on_c, 1, 52, 127
2, 44320, Note_on_c, 1, 59, 127
2, 44320, Note_on_c, 1, 64, 127
2, 44320, Note_on_c, 1, 68, 127
2, 44320, Note_on_c, 1, 71, 127
2, 44560, Note_off_c, 1, 52, 0
2, 44560, Note_off_c, 1, 59, 0
2, 44560, Note_off_c, 1, 64, 0
2, 44560, Note_off_c, 1, 68, 0
2, 44560, Note_off_c, 1, 71, 0
2, 44600, Note_on_c, 1, 57, 127
2, 44600, Note_on_c, 1, 60, 127
2, 44600, Note_on_c, 1, 64, 127
2, 44600, Note_on_c, 1, 72, 127
2, 44680, Note_off_c, 1, 57, 0
2, 44680, Note_off_c, 1, 60, 0
2, 44680, Note_off_c, 1, 64, 0
2, 44680, Note_off_c, 1, 72, 0
2, 44720, Note_on_c, 1, 50, 127
2, 44720, Note_on_c, 1, 74, 127
2, 44800, Note_off_c, 1, 50, 0
2, 44840, Note_on_c, 1, 57, 127
2, 44840, Note_on_c, 1, 60, 127
2, 44840, Note_on_c, 1, 64, 127
2, 44840, Note_on_c, 1, 69, 127
2, 44840, Note_off_c, 1, 74, 0
2, 44880, Note_on_c, 1, 52, 127
2, 44880, Note_off_c, 1, 57, 0
2, 44880, Note_off_c, 1, 60, 0
2, 44880, Note_on_c, 1, 63, 127
2, 44880, Note_off_c, 1, 64, 0
2, 44880, Note_on_c, 1, 66, 127
2, 44880, Note_off_c, 1, 69, 0
2, 44960, Note_off_c, 1, 52, 0
2, 44960, Note_off_c, 1, 63, 0
2, 44960, Note_off_c, 1, 66, 0
2, 45000, Note_on_c, 1, 52, 127
2, 45000, Note_on_c, 1, 68, 127
2, 45080, Note_off_c, 1, 52, 0
2, 45120, Note_on_c, 1, 57, 127
2, 45120, Note_on_c, 1, 60, 127
2, 45120, Note_on_c, 1, 64, 127
2, 45120, Note_off_c, 1, 68, 0
2, 45120, Note_on_c, 1, 69, 127
2, 45240, Note_off_c, 1, 57, 0
2, 45240, Note_off_c, 1, 60, 0
2, 45280, Note_on_c, 1, 57, 127
2, 45280, Note_on_c, 1, 60, 127
2, 45360, Note_off_c, 1, 57, 0
2, 45360, Note_off_c, 1, 60, 0
2, 45360, Note_off_c, 1, 64, 0
2, 45360, Note_off_c, 1, 69, 0
2, 45440, Note_on_c, 1, 58, 127
2, 45440, Note_on_c, 1, 61, 127
2, 45440, Note_on_c, 1, 88, 127
2, 45440, Note_on_c, 1, 100, 127
2, 45520, Note_off_c, 1, 58, 0
2, 45520, Note_off_c, 1, 61, 0
2, 45520, Note_on_c, 1, 64, 127
2, 45520, Note_on_c, 1, 76, 127
2, 45520, Note_off_c, 1, 88, 0
2, 45520, Note_off_c, 1, 100, 0
2, 45560, Note_on_c, 1, 58, 127
2, 45560, Note_on_c, 1, 61, 127
2, 45560, Note_off_c, 1, 64, 0
2, 45560, Note_off_c, 1, 76, 0
2, 45560, Note_on_c, 1, 88, 127
2, 45560, Note_on_c, 1, 100, 127
2, 45680, Note_off_c, 1, 58, 0
2, 45680, Note_off_c, 1, 61, 0
2, 45720, Note_on_c, 1, 57, 127
2, 45720, Note_on_c, 1, 60, 127
2, 45720, Note_on_c, 1, 64, 127
2, 45720, Note_on_c, 1, 81, 127
2, 45720, Note_off_c, 1, 88, 0
2, 45720, Note_off_c, 1, 100, 0
2, 45760, Note_off_c, 1, 81, 0
2, 45760, Note_on_c, 1, 84, 127
2, 45800, Note_off_c, 1, 57, 0
2, 45800, Note_off_c, 1, 60, 0
2, 45800, Note_off_c, 1, 64, 0
2, 45840, Note_on_c, 1, 51, 127
2, 45840, Note_on_c, 1, 61, 127
2, 45840, Note_on_c, 1, 63, 127
2, 45840, Note_off_c, 1, 84, 0
2, 45840, Note_on_c, 1, 91, 127
2, 46000, Note_on_c, 1, 87, 127
2, 46000, Note_off_c, 1, 91, 0
2, 46040, Note_off_c, 1, 51, 0
2, 46040, Note_on_c, 1, 53, 127
2, 46040, Note_on_c, 1, 57, 127
2, 46040, Note_on_c, 1, 60, 127
2, 46040, Note_off_c, 1, 61, 0
2, 46040, Note_off_c, 1, 63, 0
2, 46040, Note_on_c, 1, 65, 127
2, 46040, Note_on_c, 1, 69, 127
2, 46040, Note_on_c, 1, 72, 127
2, 46040, Note_on_c, 1, 81, 127
2, 46040, Note_off_c, 1, 87, 0
2, 46080, Note_off_c, 1, 53, 0
2, 46080, Note_off_c, 1, 57, 0
2, 46080, Note_off_c, 1, 60, 0
2, 46080, Note_on_c, 1, 62, 127
2, 46080, Note_off_c, 1, 65, 0
2, 46080, Note_on_c, 1, 68, 127
2, 46080, Note_off_c, 1, 69, 0
2, 46080, Note_off_c, 1, 72, 0
2, 46080, Note_off_c, 1, 81, 0
2, 46080, Note_on_c, 1, 82, 127
2, 46080, Note_on_c, 1, 89, 127
2, 46120, Note_off_c, 1, 62, 0
2, 46120, Note_on_c, 1, 65, 127
2, 46120, Note_off_c, 1, 68, 0
2, 46120, Note_on_c, 1, 74, 127
2, 46120, Note_on_c, 1, 79, 127
2, 46120, Note_off_c, 1, 82, 0
2, 46120, Note_on_c, 1, 83, 127
2, 46120, Note_off_c, 1, 89, 0
2, 46160, Note_on_c, 1, 59, 127
2, 46160, Note_on_c, 1, 62, 127
2, 46160, Note_on_c, 1, 67, 127
2, 46160, Note_off_c, 1, 74, 0
2, 46160, Note_off_c, 1, 79, 0
2, 46160, Note_off_c, 1, 83, 0
2, 46160, Note_on_c, 1, 91, 127
2, 46200, Note_off_c, 1, 59, 0
2, 46200, Note_off_c, 1, 62, 0
2, 46200, Note_off_c, 1, 65, 0
2, 46200, Note_on_c, 1, 84, 127
2, 46200, Note_on_c, 1, 86, 127
2, 46200, Note_off_c, 1, 91, 0
2, 46240, Note_on_c, 1, 59, 127
2, 46240, Note_off_c, 1, 67, 0
2, 46240, Note_on_c, 1, 71, 127
2, 46240, Note_off_c, 1, 84, 0
2, 46240, Note_off_c, 1, 86, 0
2, 46240, Note_on_c, 1, 93, 127
2, 46280, Note_off_c, 1, 59, 0
2, 46280, Note_off_c, 1, 71, 0
2, 46280, Note_on_c, 1, 91, 127
2, 46280, Note_off_c, 1, 93, 0
2, 46320, Note_on_c, 1, 57, 127
2, 46320, Note_on_c, 1, 66, 127
2, 46320, Note_on_c, 1, 90, 127
2, 46320, Note_off_c, 1, 91, 0
2, 46320, Note_on_c, 1, 93, 127
2, 46360, Note_on_c, 1, 61, 127
2, 46360, Note_off_c, 1, 66, 0
2, 46360, Note_on_c, 1, 78, 127
2, 46360, Note_on_c, 1, 81, 127
2, 46360, Note_on_c, 1, 85, 127
2, 46360, Note_off_c, 1, 90, 0
2, 46360, Note_off_c, 1, 93, 0
2, 46400, Note_on_c, 1, 38, 127
2, 46400, Note_off_c, 1, 57, 0
2, 46400, Note_on_c, 1, 60, 127
2, 46400, Note_off_c, 1, 61, 0
2, 46400, Note_on_c, 1, 66, 127
2, 46400, Note_on_c, 1, 71, 127
2, 46400, Note_off_c, 1, 78, 0
2, 46400, Note_off_c, 1, 81, 0
2, 46400, Note_off_c, 1, 85, 0
2, 46440, Note_off_c, 1, 38, 0
2, 46440, Note_on_c, 1, 56, 127
2, 46440, Note_off_c, 1, 60, 0
2, 46440, Note_on_c, 1, 61, 127
2, 46440, Note_on_c, 1, 64, 127
2, 46440, Note_off_c, 1, 66, 0
2, 46440, Note_on_c, 1, 69, 127
2, 46440, Note_off_c, 1, 71, 0
2, 46440, Note_on_c, 1, 76, 127
2, 46440, Note_on_c, 1, 85, 127
2, 46480, Note_off_c, 1, 56, 0
2, 46480, Note_off_c, 1, 61, 0
2, 46480, Note_off_c, 1, 64, 0
2, 46480, Note_off_c, 1, 69, 0
2, 46480, Note_on_c, 1, 72, 127
2, 46480, Note_off_c, 1, 76, 0
2, 46480, Note_on_c, 1, 81, 127
2, 46480, Note_on_c, 1, 84, 127
2, 46480, Note_off_c, 1, 85, 0
2, 46480, Note_on_c, 1, 96, 127
2, 46480, Note_on_c, 1, 101, 127
2, 46480, Note_on_c, 1, 103, 127
2, 46520, Note_on_c, 1, 41, 127
2, 46520, Note_off_c, 1, 72, 0
2, 46520, Note_on_c, 1, 76, 127
2, 46520, Note_off_c, 1, 84, 0
2, 46520, Note_on_c, 1, 88, 127
2, 46520, Note_off_c, 1, 96, 0
2, 46520, Note_off_c, 1, 101, 0
2, 46520, Note_off_c, 1, 103, 0
2, 46560, Note_off_c, 1, 41, 0
2, 46560, Note_on_c, 1, 54, 127
2, 46560, Note_on_c, 1, 61, 127
2, 46560, Note_on_c, 1, 66, 127
2, 46560, Note_on_c, 1, 70, 127
2, 46560, Note_on_c, 1, 73, 127
2, 46560, Note_off_c, 1, 76, 0
2, 46560, Note_on_c, 1, 78, 127
2, 46560, Note_off_c, 1, 81, 0
2, 46560, Note_on_c, 1, 82, 127
2, 46560, Note_on_c, 1, 85, 127
2, 46560, Note_off_c, 1, 88, 0
2, 46600, Note_on_c, 1, 48, 127
2, 46600, Note_off_c, 1, 54, 0
2, 46600, Note_on_c, 1, 56, 127
2, 46600, Note_off_c, 1, 61, 0
2, 46600, Note_on_c, 1, 63, 127
2, 46600, Note_off_c, 1, 70, 0
2, 46600, Note_off_c, 1, 73, 0
2, 46600, Note_off_c, 1, 82, 0
2, 46600, Note_off_c, 1, 85, 0
2, 46640, Note_off_c, 1, 48, 0
2, 46640, Note_off_c, 1, 56, 0
2, 46640, Note_on_c, 1, 60, 127
2, 46640, Note_off_c, 1, 78, 0
2, 46640, Note_on_c, 1, 89, 127
2, 46680, Note_off_c, 1, 60, 0
2, 46680, Note_off_c, 1, 63, 0
2, 46680, Note_off_c, 1, 66, 0
2, 46680, Note_on_c, 1, 72, 127
2, 46680, Note_on_c, 1, 75, 127
2, 46680, Note_on_c, 1, 76, 127
2, 46680, Note_off_c, 1, 89, 0
2, 46720, Note_on_c, 1, 56, 127
2, 46720, Note_off_c, 1, 72, 0
2, 46720, Note_off_c, 1, 75, 0
2, 46720, Note_off_c, 1, 76, 0
2, 46720, Note_on_c, 1, 84, 127
2, 46720, Note_on_c, 1, 89, 127
2, 46760, Note_off_c, 1, 56, 0
2, 46760, Note_off_c, 1, 84, 0
2, 46760, Note_off_c, 1, 89, 0
2, 46760, Note_on_c, 1, 95, 127
2, 46760, Note_on_c, 1, 98, 127
2, 46760, Note_on_c, 1, 102, 127
2, 46800, Note_on_c, 1, 42, 127
2, 46800, Note_on_c, 1, 54, 127
2, 46800, Note_on_c, 1, 76, 127
2, 46800, Note_on_c, 1, 78, 127
2, 46800, Note_off_c, 1, 95, 0
2, 46800, Note_off_c, 1, 98, 0
2, 46800, Note_off_c, 1, 102, 0
2, 46840, Note_off_c, 1, 42, 0
2, 46840, Note_off_c, 1, 54, 0
2, 46840, Note_on_c, 1, 56, 127
2, 46840, Note_on_c, 1, 61, 127
2, 46840, Note_on_c, 1, 64, 127
2, 46840, Note_on_c, 1, 67, 127
2, 46840, Note_off_c, 1, 76, 0
2, 46840, Note_off_c, 1, 78, 0
2, 46840, Note_on_c, 1, 82, 127
2, 46880, Note_off_c, 1, 56, 0
2, 46880, Note_off_c, 1, 61, 0
2, 46880, Note_off_c, 1, 64, 0
2, 46880, Note_off_c, 1, 67, 0
2, 46880, Note_on_c, 1, 72, 127
2, 46880, Note_on_c, 1, 76, 127
2, 46880, Note_off_c, 1, 82, 0
2, 46880, Note_on_c, 1, 84, 127
2, 46880, Note_on_c, 1, 88, 127
2, 46920, Note_on_c, 1, 57, 127
2, 46920, Note_on_c, 1, 60, 127
2, 46920, Note_on_c, 1, 63, 127
2, 46920, Note_on_c, 1, 66, 127
2, 46920, Note_on_c, 1, 75, 127
2, 46920, Note_off_c, 1, 76, 0
2, 46920, Note_on_c, 1, 78, 127
2, 46920, Note_off_c, 1, 84, 0
2, 46920, Note_off_c, 1, 88, 0
2, 46960, Note_off_c, 1, 57, 0
2, 46960, Note_off_c, 1, 60, 0
2, 46960, Note_off_c, 1, 63, 0
2, 46960, Note_off_c, 1, 66, 0
2, 46960, Note_off_c, 1, 72, 0
2, 46960, Note_off_c, 1, 75, 0
2, 46960, Note_off_c, 1, 78, 0
2, 47000, Note_on_c, 1, 48, 127
2, 47000, Note_on_c, 1, 74, 127
2, 47040, Note_off_c, 1, 48, 0
2, 47040, Note_on_c, 1, 56, 127
2, 47040, Note_off_c, 1, 74, 0
2, 47040, Note_on_c, 1, 75, 127
2, 47080, Note_off_c, 1, 56, 0
2, 47080, Note_on_c, 1, 59, 127
2, 47080, Note_on_c, 1, 72, 127
2, 47080, Note_off_c, 1, 75, 0
2, 47120, Note_off_c, 1, 72, 0
2, 47120, Note_on_c, 1, 74, 127
2, 47160, Note_off_c, 1, 59, 0
2, 47160, Note_on_c, 1, 64, 127
2, 47160, Note_on_c, 1, 72, 127
2, 47160, Note_off_c, 1, 74, 0
2, 47200, Note_off_c, 1, 64, 0
2, 47240, Note_off_c, 1, 72, 0
2, 47240, Note_on_c, 1, 76, 127
2, 47240, Note_on_c, 1, 77, 127
2, 47320, Note_off_c, 1, 76, 0
2, 47320, Note_off_c, 1, 77, 0
2, 47320, Note_on_c, 1, 81, 127
2, 47360, Note_on_c, 1, 79, 127
2, 47360, Note_off_c, 1, 81, 0
2, 47400, Note_off_c, 1, 79, 0
2, 47480, Note_on_c, 1, 72, 127
2, 47480, Note_on_c, 1, 77, 127
2, 47520, Note_off_c, 1, 72, 0
2, 47520, Note_on_c, 1, 73, 127
2, 47520, Note_on_c, 1, 74, 127
2, 47520, Note_off_c, 1, 77, 0
2, 47560, Note_off_c, 1, 73, 0
2, 47560, Note_on_c, 1, 75, 127
2, 47600, Note_on_c, 1, 65, 127
2, 47600, Note_on_c, 1, 69, 127
2, 47600, Note_off_c, 1, 74, 0
2, 47600, Note_off_c, 1, 75, 0
2, 47640, Note_off_c, 1, 65, 0
2, 47640, Note_off_c, 1, 69, 0
2, 47640, Note_on_c, 1, 72, 127
2, 47640, Note_on_c, 1, 77, 127
2, 47680, Note_on_c, 1, 47, 127
2, 47680, Note_on_c, 1, 57, 127
2, 47680, Note_on_c, 1, 62, 127
2, 47680, Note_on_c, 1, 68, 127
2, 47680, Note_on_c, 1, 71, 127
2, 47680, Note_off_c, 1, 72, 0
2, 47680, Note_off_c, 1, 77, 0
2, 47720, Note_off_c, 1, 47, 0
2, 47720, Note_on_c, 1, 49, 127
2, 47720, Note_on_c, 1, 55, 127
2, 47720, Note_off_c, 1, 57, 0
2, 47720, Note_on_c, 1, 59, 127
2, 47720, Note_off_c, 1, 62, 0
2, 47720, Note_on_c, 1, 67, 127
2, 47720, Note_off_c, 1, 68, 0
2, 47720, Note_off_c, 1, 71, 0
2, 47760, Note_on_c, 1, 43, 127
2, 47760, Note_on_c, 1, 48, 127
2, 47760, Note_off_c, 1, 49, 0
2, 47760, Note_off_c, 1, 55, 0
2, 47760, Note_off_c, 1, 59, 0
2, 47760, Note_off_c, 1, 67, 0
2, 47760, Note_on_c, 1, 72, 127
2, 47800, Note_off_c, 1, 43, 0
2, 47800, Note_off_c, 1, 48, 0
2, 47800, Note_on_c, 1, 55, 127
2, 47800, Note_on_c, 1, 61, 127
2, 47800, Note_on_c, 1, 70, 127
2, 47800, Note_off_c, 1, 72, 0
2, 47800, Note_on_c, 1, 79, 127
2, 47800, Note_on_c, 1, 82, 127
2, 47840, Note_off_c, 1, 55, 0
2, 47840, Note_off_c, 1, 61, 0
2, 47840, Note_on_c, 1, 69, 127
2, 47840, Note_off_c, 1, 70, 0
2, 47840, Note_on_c, 1, 72, 127
2, 47840, Note_on_c, 1, 74, 127
2, 47840, Note_on_c, 1, 78, 127
2, 47840, Note_off_c, 1, 79, 0
2, 47840, Note_off_c, 1, 82, 0
2, 47880, Note_on_c, 1, 52, 127
2, 47880, Note_on_c, 1, 66, 127
2, 47880, Note_off_c, 1, 69, 0
2, 47880, Note_off_c, 1, 72, 0
2, 47880, Note_on_c, 1, 73, 127
2, 47880, Note_off_c, 1, 74, 0
2, 47880, Note_off_c, 1, 78, 0
2, 47880, Note_on_c, 1, 82, 127
2, 47880, Note_on_c, 1, 85, 127
2, 47920, Note_on_c, 1, 34, 127
2, 47920, Note_on_c, 1, 41, 127
2, 47920, Note_on_c, 1, 46, 127
2, 47920, Note_off_c, 1, 52, 0
2, 47920, Note_off_c, 1, 66, 0
2, 47920, Note_off_c, 1, 73, 0
2, 47920, Note_off_c, 1, 82, 0
2, 47920, Note_on_c, 1, 90, 127
2, 47960, Note_off_c, 1, 34, 0
2, 47960, Note_off_c, 1, 41, 0
2, 47960, Note_off_c, 1, 46, 0
2, 47960, Note_on_c, 1, 56, 127
2, 47960, Note_on_c, 1, 62, 127
2, 47960, Note_on_c, 1, 68, 127
2, 47960, Note_on_c, 1, 80, 127
2, 47960, Note_off_c, 1, 85, 0
2, 47960, Note_on_c, 1, 86, 127
2, 47960, Note_off_c, 1, 90, 0
2, 48000, Note_on_c, 1, 48, 127
2, 48000, Note_on_c, 1, 50, 127
2, 48000, Note_on_c, 1, 53, 127
2, 48000, Note_on_c, 1, 55, 127
2, 48000, Note_off_c, 1, 56, 0
2, 48000, Note_off_c, 1, 62, 0
2, 48000, Note_off_c, 1, 68, 0
2, 48000, Note_on_c, 1, 79, 127
2, 48000, Note_off_c, 1, 80, 0
2, 48000, Note_off_c, 1, 86, 0
2, 48040, Note_off_c, 1, 48, 0
2, 48040, Note_off_c, 1, 50, 0
2, 48040, Note_off_c, 1, 53, 0
2, 48040, Note_off_c, 1, 55, 0
2, 48040, Note_on_c, 1, 67, 127
2, 48040, Note_on_c, 1, 73, 127
2, 48040, Note_off_c, 1, 79, 0
2, 48040, Note_on_c, 1, 82, 127
2, 48040, Note_on_c, 1, 94, 127
2, 48080, Note_off_c, 1, 67, 0
2, 48080, Note_off_c, 1, 73, 0
2, 48080, Note_off_c, 1, 82, 0
2, 48080, Note_on_c, 1, 83, 127
2, 48080, Note_on_c, 1, 84, 127
2, 48080, Note_off_c, 1, 94, 0
2, 48120, Note_on_c, 1, 54, 127
2, 48120, Note_on_c, 1, 63, 127
2, 48120, Note_off_c, 1, 83, 0
2, 48120, Note_off_c, 1, 84, 0
2, 48120, Note_on_c, 1, 88, 127
2, 48160, Note_on_c, 1, 47, 127
2, 48160, Note_off_c, 1, 54, 0
2, 48160, Note_on_c, 1, 59, 127
2, 48160, Note_off_c, 1, 63, 0
2, 48160, Note_on_c, 1, 83, 127
2, 48200, Note_off_c, 1, 47, 0
2, 48200, Note_on_c, 1, 54, 127
2, 48200, Note_off_c, 1, 59, 0
2, 48200, Note_on_c, 1, 63, 127
2, 48200, Note_off_c, 1, 83, 0
2, 48280, Note_on_c, 1, 61, 127
2, 48280, Note_off_c, 1, 63, 0
2, 48320, Note_off_c, 1, 61, 0
2, 48320, Note_on_c, 1, 63, 127
2, 48360, Note_off_c, 1, 54, 0
2, 48360, Note_on_c, 1, 70, 127
2, 48360, Note_on_c, 1, 73, 127
2, 48360, Note_on_c, 1, 85, 127
2, 48360, Note_off_c, 1, 88, 0
2, 48360, Note_on_c, 1, 94, 127
2, 48360, Note_on_c, 1, 97, 127
2, 48400, Note_on_c, 1, 47, 127
2, 48400, Note_on_c, 1, 52, 127
2, 48400, Note_on_c, 1, 69, 127
2, 48400, Note_off_c, 1, 70, 0
2, 48400, Note_off_c, 1, 73, 0
2, 48400, Note_off_c, 1, 85, 0
2, 48400, Note_off_c, 1, 94, 0
2, 48400, Note_off_c, 1, 97, 0
2, 48440, Note_off_c, 1, 47, 0
2, 48440, Note_off_c, 1, 52, 0
2, 48440, Note_on_c, 1, 54, 127
2, 48440, Note_on_c, 1, 61, 127
2, 48440, Note_off_c, 1, 63, 0
2, 48440, Note_off_c, 1, 69, 0
2, 48440, Note_on_c, 1, 88, 127
2, 48480, Note_off_c, 1, 61, 0
2, 48480, Note_on_c, 1, 63, 127
2, 48520, Note_off_c, 1, 54, 0
2, 48520, Note_off_c, 1, 63, 0
2, 48520, Note_on_c, 1, 83, 127
2, 48520, Note_off_c, 1, 88, 0
2, 48520, Note_on_c, 1, 92, 127
2, 48520, Note_on_c, 1, 94, 127
2, 48560, Note_on_c, 1, 47, 127
2, 48560, Note_on_c, 1, 59, 127
2, 48560, Note_on_c, 1, 73, 127
2, 48560, Note_on_c, 1, 80, 127
2, 48560, Note_off_c, 1, 83, 0
2, 48560, Note_off_c, 1, 92, 0
2, 48560, Note_off_c, 1, 94, 0
2, 48760, Note_off_c, 1, 47, 0
2, 48760, Note_off_c, 1, 59, 0
2, 48760, Note_off_c, 1, 73, 0
2, 48760, Note_on_c, 1, 78, 127
2, 48760, Note_off_c, 1, 80, 0
2, 48760, Note_on_c, 1, 81, 127
2, 48800, Note_on_c, 1, 29, 127
2, 48800, Note_on_c, 1, 34, 127
2, 48800, Note_on_c, 1, 38, 127
2, 48800, Note_on_c, 1, 41, 127
2, 48800, Note_on_c, 1, 48, 127
2, 48800, Note_on_c, 1, 51, 127
2, 48800, Note_on_c, 1, 56, 127
2, 48800, Note_on_c, 1, 63, 127
2, 48800, Note_on_c, 1, 72, 127
2, 48800, Note_on_c, 1, 75, 127
2, 48800, Note_off_c, 1, 78, 0
2, 48800, Note_off_c, 1, 81, 0
2, 48840, Note_off_c, 1, 29, 0
2, 48840, Note_off_c, 1, 38, 0
2, 48840, Note_off_c, 1, 41, 0
2, 48840, Note_on_c, 1, 46, 127
2, 48840, Note_off_c, 1, 48, 0
2, 48840, Note_off_c, 1, 51, 0
2, 48840, Note_off_c, 1, 63, 0
2, 48840, Note_on_c, 1, 68, 127
2, 48840, Note_off_c, 1, 72, 0
2, 48840, Note_off_c, 1, 75, 0
2, 48840, Note_on_c, 1, 80, 127
2, 48880, Note_on_c, 1, 33, 127
2, 48880, Note_off_c, 1, 34, 0
2, 48880, Note_on_c, 1, 39, 127
2, 48880, Note_on_c, 1, 45, 127
2, 48880, Note_off_c, 1, 46, 0
2, 48880, Note_off_c, 1, 56, 0
2, 48880, Note_off_c, 1, 68, 0
2, 48880, Note_on_c, 1, 72, 127
2, 48880, Note_off_c, 1, 80, 0
2, 48920, Note_off_c, 1, 33, 0
2, 48920, Note_off_c, 1, 39, 0
2, 48920, Note_off_c, 1, 45, 0
2, 48920, Note_off_c, 1, 72, 0
2, 48920, Note_on_c, 1, 76, 127
2, 48920, Note_on_c, 1, 79, 127
2, 48920, Note_on_c, 1, 82, 127
2, 48920, Note_on_c, 1, 88, 127
2, 48960, Note_on_c, 1, 49, 127
2, 48960, Note_off_c, 1, 76, 0
2, 48960, Note_off_c, 1, 79, 0
2, 48960, Note_on_c, 1, 80, 127
2, 48960, Note_on_c, 1, 85, 127
2, 48960, Note_off_c, 1, 88, 0
2, 48960, Note_on_c, 1, 92, 127
2, 49000, Note_off_c, 1, 49, 0
2, 49000, Note_off_c, 1, 80, 0
2, 49000, Note_off_c, 1, 82, 0
2, 49000, Note_off_c, 1, 85, 0
2, 49000, Note_off_c, 1, 92, 0
2, 49040, Note_on_c, 1, 48, 127
2, 49040, Note_on_c, 1, 55, 127
2, 49040, Note_on_c, 1, 62, 127
2, 49040, Note_on_c, 1, 65, 127
2, 49040, Note_on_c, 1, 71, 127
2, 49040, Note_on_c, 1, 79, 127
2, 49040, Note_on_c, 1, 86, 127
2, 49080, Note_off_c, 1, 48, 0
2, 49080, Note_off_c, 1, 55, 0
2, 49080, Note_off_c, 1, 62, 0
2, 49080, Note_off_c, 1, 65, 0
2, 49080, Note_off_c, 1, 71, 0
2, 49080, Note_on_c, 1, 76, 127
2, 49080, Note_off_c, 1, 79, 0
2, 49080, Note_on_c, 1, 80, 127
2, 49080, Note_on_c, 1, 88, 127
2, 49120, Note_on_c, 1, 62, 127
2, 49120, Note_on_c, 1, 64, 127
2, 49120, Note_on_c, 1, 65, 127
2, 49120, Note_off_c, 1, 80, 0
2, 49120, Note_off_c, 1, 86, 0
2, 49120, Note_off_c, 1, 88, 0
2, 49160, Note_on_c, 1, 56, 127
2, 49160, Note_on_c, 1, 61, 127
2, 49160, Note_off_c, 1, 62, 0
2, 49160, Note_off_c, 1, 65, 0
2, 49160, Note_on_c, 1, 71, 127
2, 49160, Note_off_c, 1, 76, 0
2, 49200, Note_on_c, 1, 49, 127
2, 49200, Note_off_c, 1, 56, 0
2, 49200, Note_on_c, 1, 58, 127
2, 49200, Note_off_c, 1, 61, 0
2, 49200, Note_off_c, 1, 64, 0
2, 49200, Note_on_c, 1, 69, 127
2, 49200, Note_on_c, 1, 73, 127
2, 49240, Note_on_c, 1, 41, 127
2, 49240, Note_on_c, 1, 46, 127
2, 49240, Note_off_c, 1, 49, 0
2, 49240, Note_on_c, 1, 53, 127
2, 49240, Note_off_c, 1, 58, 0
2, 49240, Note_off_c, 1, 69, 0
2, 49240, Note_off_c, 1, 71, 0
2, 49240, Note_off_c, 1, 73, 0
2, 49240, Note_on_c, 1, 87, 127
2, 49280, Note_off_c, 1, 41, 0
2, 49280, Note_off_c, 1, 46, 0
2, 49280, Note_on_c, 1, 52, 127
2, 49280, Note_off_c, 1, 53, 0
2, 49280, Note_on_c, 1, 56, 127
2, 49280, Note_on_c, 1, 59, 127
2, 49280, Note_on_c, 1, 61, 127
2, 49280, Note_on_c, 1, 80, 127
2, 49280, Note_off_c, 1, 87, 0
2, 49320, Note_on_c, 1, 24, 127
2, 49320, Note_on_c, 1, 36, 127
2, 49320, Note_off_c, 1, 52, 0
2, 49320, Note_off_c, 1, 56, 0
2, 49320, Note_off_c, 1, 59, 0
2, 49320, Note_off_c, 1, 61, 0
2, 49320, Note_on_c, 1, 69, 127
2, 49320, Note_on_c, 1, 75, 127
2, 49320, Note_off_c, 1, 80, 0
2, 49360, Note_off_c, 1, 24, 0
2, 49360, Note_off_c, 1, 36, 0
2, 49360, Note_on_c, 1, 46, 127
2, 49360, Note_off_c, 1, 69, 0
2, 49360, Note_off_c, 1, 75, 0
2, 49360, Note_on_c, 1, 89, 127
2, 49360, Note_on_c, 1, 94, 127
2, 49400, Note_off_c, 1, 46, 0
2, 49400, Note_on_c, 1, 65, 127
2, 49400, Note_on_c, 1, 69, 127
2, 49400, Note_on_c, 1, 75, 127
2, 49400, Note_on_c, 1, 84, 127
2, 49400, Note_off_c, 1, 89, 0
2, 49400, Note_off_c, 1, 94, 0
2, 49440, Note_off_c, 1, 65, 0
2, 49440, Note_off_c, 1, 69, 0
2, 49440, Note_off_c, 1, 75, 0
2, 49440, Note_off_c, 1, 84, 0
2, 49480, Note_on_c, 1, 33, 127
2, 49480, Note_on_c, 1, 40, 127
2, 49480, Note_on_c, 1, 43, 127
2, 49480, Note_on_c, 1, 45, 127
2, 49480, Note_on_c, 1, 49, 127
2, 49480, Note_on_c, 1, 57, 127
2, 49480, Note_on_c, 1, 61, 127
2, 49520, Note_off_c, 1, 33, 0
2, 49520, Note_off_c, 1, 40, 0
2, 49520, Note_off_c, 1, 43, 0
2, 49520, Note_off_c, 1, 45, 0
2, 49520, Note_off_c, 1, 49, 0
2, 49520, Note_off_c, 1, 57, 0
2, 49520, Note_off_c, 1, 61, 0
2, 49520, Note_on_c, 1, 63, 127
2, 49520, Note_on_c, 1, 81, 127
2, 49520, Note_on_c, 1, 93, 127
2, 49560, Note_on_c, 1, 57, 127
2, 49560, Note_off_c, 1, 63, 0
2, 49560, Note_on_c, 1, 73, 127
2, 49560, Note_on_c, 1, 76, 127
2, 49560, Note_off_c, 1, 93, 0
2, 49760, Note_off_c, 1, 57, 0
2, 49760, Note_on_c, 1, 69, 127
2, 49760, Note_off_c, 1, 73, 0
2, 49760, Note_off_c, 1, 76, 0
2, 49760, Note_off_c, 1, 81, 0
2, 49800, Note_on_c, 1, 57, 127
2, 49960, Note_off_c, 1, 57, 0
2, 49960, Note_off_c, 1, 69, 0
2, 50000, Note_on_c, 1, 64, 127
2, 50000, Note_on_c, 1, 69, 127
2, 50400, Note_off_c, 1, 64, 0
2, 50400, Note_off_c, 1, 69, 0
2, 50440, Note_on_c, 1, 56, 127
2, 50440, Note_on_c, 1, 71, 127
2, 50600, Note_off_c, 1, 56, 0
2, 50640, Note_on_c, 1, 59, 127
2, 50800, Note_off_c, 1, 59, 0
2, 50800, Note_off_c, 1, 71, 0
2, 50840, Note_on_c, 1, 64, 127
2, 50840, Note_on_c, 1, 67, 127
2, 51000, Note_off_c, 1, 64, 0
2, 51040, Note_on_c, 1, 48, 127
2, 51040, Note_off_c, 1, 67, 0
2, 51040, Note_on_c, 1, 69, 127
2, 51120, Note_off_c, 1, 48, 0
2, 51160, Note_on_c, 1, 57, 127
2, 51360, Note_off_c, 1, 57, 0
2, 51360, Note_on_c, 1, 60, 127
2, 51360, Note_off_c, 1, 69, 0
2, 51360, Note_on_c, 1, 72, 127
2, 51400, Note_off_c, 1, 60, 0
2, 51400, Note_off_c, 1, 72, 0
2, 51480, Note_on_c, 1, 59, 127
2, 51480, Note_on_c, 1, 71, 127
2, 51640, Note_off_c, 1, 59, 0
2, 51680, Note_on_c, 1, 57, 127
2, 51840, Note_off_c, 1, 57, 0
2, 51880, Note_on_c, 1, 49, 127
2, 52040, Note_off_c, 1, 49, 0
2, 52080, Note_on_c, 1, 52, 127
2, 52240, Note_off_c, 1, 52, 0
2, 52240, Note_off_c, 1, 71, 0
2, 52280, Note_on_c, 1, 53, 127
2, 52280, Note_on_c, 1, 69, 127
2, 52440, Note_off_c, 1, 53, 0
2, 52440, Note_off_c, 1, 69, 0
2, 52480, Note_on_c, 1, 65, 127
2, 52480, Note_on_c, 1, 69, 127
2, 52640, Note_off_c, 1, 65, 0
2, 52640, Note_off_c, 1, 69, 0
2, 52840, Note_on_c, 1, 40, 127
2, 52920, Note_off_c, 1, 40, 0
2, 52960, Note_on_c, 1, 53, 127
2, 53040, Note_off_c, 1, 53, 0
2, 53080, Note_on_c, 1, 59, 127
2, 53160, Note_off_c, 1, 59, 0
2, 53200, Note_on_c, 1, 57, 127
2, 53240, Note_off_c, 1, 57, 0
2, 53240, Note_on_c, 1, 65, 127
2, 53280, Note_on_c, 1, 57, 127
2, 53280, Note_off_c, 1, 65, 0
2, 53400, Note_off_c, 1, 57, 0
2, 53440, Note_on_c, 1, 65, 127
2, 53480, Note_on_c, 1, 57, 127
2, 53480, Note_off_c, 1, 65, 0
2, 53480, Note_on_c, 1, 74, 127
2, 53640, Note_off_c, 1, 57, 0
2, 53680, Note_on_c, 1, 64, 127
2, 53840, Note_off_c, 1, 64, 0
2, 53840, Note_off_c, 1, 74, 0
2, 53880, Note_on_c, 1, 74, 127
2, 53920, Note_on_c, 1, 57, 127
2, 53960, Note_on_c, 1, 55, 127
2, 53960, Note_off_c, 1, 57, 0
2, 54000, Note_off_c, 1, 55, 0
2, 54000, Note_on_c, 1, 57, 127
2, 54080, Note_off_c, 1, 57, 0
2, 54120, Note_on_c, 1, 64, 127
2, 54280, Note_off_c, 1, 64, 0
2, 54320, Note_on_c, 1, 57, 127
2, 54480, Note_off_c, 1, 57, 0
2, 54520, Note_on_c, 1, 56, 127
2, 54680, Note_off_c, 1, 56, 0
2, 54720, Note_on_c, 1, 59, 127
2, 54880, Note_off_c, 1, 59, 0
2, 54920, Note_on_c, 1, 64, 127
2, 55080, Note_off_c, 1, 64, 0
2, 55080, Note_off_c, 1, 74, 0
2, 55120, Note_on_c, 1, 57, 127
2, 55120, Note_on_c, 1, 73, 127
2, 55280, Note_off_c, 1, 57, 0
2, 55320, Note_on_c, 1, 61, 127
2, 55480, Note_off_c, 1, 61, 0
2, 55520, Note_on_c, 1, 57, 127
2, 55680, Note_off_c, 1, 57, 0
2, 55720, Note_on_c, 1, 61, 127
2, 55760, Note_off_c, 1, 61, 0
2, 55760, Note_off_c, 1, 73, 0
2, 55800, Note_on_c, 1, 61, 127
2, 55800, Note_on_c, 1, 73, 127
2, 55920, Note_off_c, 1, 61, 0
2, 55960, Note_on_c, 1, 52, 127
2, 56120, Note_off_c, 1, 52, 0
2, 56120, Note_off_c, 1, 73, 0
2, 56160, Note_on_c, 1, 57, 127
2, 56160, Note_on_c, 1, 69, 127
2, 56320, Note_off_c, 1, 57, 0
2, 56320, Note_off_c, 1, 69, 0
2, 56360, Note_on_c, 1, 59, 127
2, 56360, Note_on_c, 1, 68, 127
2, 56520, Note_off_c, 1, 59, 0
2, 56520, Note_off_c, 1, 68, 0
2, 56560, Note_on_c, 1, 57, 127
2, 56560, Note_on_c, 1, 69, 127
2, 56720, Note_off_c, 1, 57, 0
2, 56720, Note_off_c, 1, 69, 0
2, 56760, Note_on_c, 1, 64, 127
2, 56760, Note_on_c, 1, 76, 127
2, 56920, Note_off_c, 1, 64, 0
2, 56920, Note_off_c, 1, 76, 0
2, 56960, Note_on_c, 1, 66, 127
2, 56960, Note_on_c, 1, 78, 127
2, 57120, Note_off_c, 1, 66, 0
2, 57120, Note_off_c, 1, 78, 0
2, 57160, Note_on_c, 1, 64, 127
2, 57160, Note_on_c, 1, 76, 127
2, 57840, Note_off_c, 1, 64, 0
2, 57840, Note_off_c, 1, 76, 0
2, 57880, Note_on_c, 1, 64, 127
2, 57880, Note_on_c, 1, 76, 127
2, 58560, Note_off_c, 1, 64, 0
2, 58560, Note_off_c, 1, 76, 0
2, 58600, Note_on_c, 1, 64, 127
2, 58600, Note_on_c, 1, 76, 127
2, 59000, Note_off_c, 1, 64, 0
2, 59000, Note_off_c, 1, 76, 0
2, 59040, Note_on_c, 1, 60, 127
2, 59040, Note_on_c, 1, 72, 127
2, 59200, Note_off_c, 1, 60, 0
2, 59200, Note_off_c, 1, 72, 0
2, 59240, Note_on_c, 1, 64, 127
2, 59240, Note_on_c, 1, 76, 127
2, 59400, Note_off_c, 1, 64, 0
2, 59400, Note_off_c, 1, 76, 0
2, 59440, Note_on_c, 1, 64, 127
2, 59440, Note_on_c, 1, 76, 127
2, 59840, Note_off_c, 1, 64, 0
2, 59840, Note_off_c, 1, 76, 0
2, 59920, Note_on_c, 1, 75, 127
2, 59920, Note_on_c, 1, 78, 127
2, 59920, Note_on_c, 1, 84, 127
2, 59920, Note_on_c, 1, 90, 127
2, 59920, Note_on_c, 1, 92, 127
2, 59960, Note_on_c, 1, 57, 127
2, 59960, Note_on_c, 1, 60, 127
2, 59960, Note_on_c, 1, 64, 127
2, 59960, Note_off_c, 1, 75, 0
2, 59960, Note_off_c, 1, 78, 0
2, 59960, Note_on_c, 1, 83, 127
2, 59960, Note_off_c, 1, 84, 0
2, 59960, Note_off_c, 1, 90, 0
2, 59960, Note_off_c, 1, 92, 0
2, 60000, Note_off_c, 1, 57, 0
2, 60000, Note_off_c, 1, 60, 0
2, 60000, Note_off_c, 1, 64, 0
2, 60000, Note_on_c, 1, 75, 127
2, 60000, Note_on_c, 1, 78, 127
2, 60000, Note_off_c, 1, 83, 0
2, 60000, Note_on_c, 1, 84, 127
2, 60000, Note_on_c, 1, 90, 127
2, 60000, Note_on_c, 1, 92, 127
2, 60040, Note_off_c, 1, 75, 0
2, 60040, Note_off_c, 1, 78, 0
2, 60040, Note_off_c, 1, 84, 0
2, 60040, Note_off_c, 1, 90, 0
2, 60040, Note_off_c, 1, 92, 0
2, 60120, Note_on_c, 1, 43, 127
2, 60120, Note_on_c, 1, 48, 127
2, 60120, Note_on_c, 1, 52, 127
2, 60120, Note_on_c, 1, 76, 127
2, 60160, Note_off_c, 1, 43, 0
2, 60160, Note_off_c, 1, 48, 0
2, 60160, Note_on_c, 1, 51, 127
2, 60160, Note_off_c, 1, 52, 0
2, 60160, Note_on_c, 1, 58, 127
2, 60160, Note_on_c, 1, 63, 127
2, 60160, Note_on_c, 1, 66, 127
2, 60160, Note_on_c, 1, 75, 127
2, 60160, Note_off_c, 1, 76, 0
2, 60160, Note_on_c, 1, 78, 127
2, 60200, Note_on_c, 1, 43, 127
2, 60200, Note_on_c, 1, 48, 127
2, 60200, Note_off_c, 1, 51, 0
2, 60200, Note_on_c, 1, 52, 127
2, 60200, Note_off_c, 1, 58, 0
2, 60200, Note_off_c, 1, 63, 0
2, 60200, Note_off_c, 1, 66, 0
2, 60200, Note_off_c, 1, 75, 0
2, 60200, Note_on_c, 1, 76, 127
2, 60200, Note_off_c, 1, 78, 0
2, 60280, Note_off_c, 1, 43, 0
2, 60280, Note_off_c, 1, 48, 0
2, 60280, Note_off_c, 1, 52, 0
2, 60280, Note_on_c, 1, 62, 127
2, 60280, Note_on_c, 1, 65, 127
2, 60280, Note_on_c, 1, 68, 127
2, 60280, Note_on_c, 1, 71, 127
2, 60280, Note_off_c, 1, 76, 0
2, 60320, Note_on_c, 1, 44, 127
2, 60320, Note_on_c, 1, 57, 127
2, 60320, Note_on_c, 1, 61, 127
2, 60320, Note_off_c, 1, 62, 0
2, 60320, Note_off_c, 1, 65, 0
2, 60320, Note_off_c, 1, 71, 0
2, 60880, Note_off_c, 1, 44, 0
2, 60880, Note_off_c, 1, 57, 0
2, 60880, Note_off_c, 1, 61, 0
2, 60880, Note_off_c, 1, 68, 0
2, 60920, Note_on_c, 1, 77, 127
2, 60920, Note_on_c, 1, 78, 127
2, 60920, Note_on_c, 1, 85, 127
2, 60920, Note_on_c, 1, 87, 127
2, 60960, Note_on_c, 1, 51, 127
2, 60960, Note_on_c, 1, 61, 127
2, 60960, Note_off_c, 1, 77, 0
2, 60960, Note_on_c, 1, 81, 127
2, 60960, Note_off_c, 1, 85, 0
2, 60960, Note_off_c, 1, 87, 0
2, 61000, Note_on_c, 1, 49, 127
2, 61000, Note_off_c, 1, 51, 0
2, 61000, Note_on_c, 1, 58, 127
2, 61000, Note_off_c, 1, 61, 0
2, 61000, Note_on_c, 1, 72, 127
2, 61000, Note_off_c, 1, 78, 0
2, 61000, Note_off_c, 1, 81, 0
2, 61040, Note_on_c, 1, 43, 127
2, 61040, Note_off_c, 1, 49, 0
2, 61040, Note_on_c, 1, 54, 127
2, 61040, Note_off_c, 1, 58, 0
2, 61040, Note_on_c, 1, 69, 127
2, 61080, Note_off_c, 1, 43, 0
2, 61080, Note_off_c, 1, 54, 0
2, 61080, Note_off_c, 1, 69, 0
2, 61080, Note_off_c, 1, 72, 0
2, 61080, Note_on_c, 1, 80, 127
2, 61080, Note_on_c, 1, 82, 127
2, 61120, Note_on_c, 1, 51, 127
2, 61120, Note_on_c, 1, 56, 127
2, 61120, Note_on_c, 1, 68, 127
2, 61120, Note_on_c, 1, 72, 127
2, 61120, Note_off_c, 1, 82, 0
2, 61280, Note_off_c, 1, 51, 0
2, 61280, Note_off_c, 1, 56, 0
2, 61280, Note_off_c, 1, 68, 0
2, 61280, Note_off_c, 1, 72, 0
2, 61280, Note_off_c, 1, 80, 0
2, 61320, Note_on_c, 1, 41, 127
2, 61320, Note_on_c, 1, 47, 127
2, 61320, Note_on_c, 1, 53, 127
2, 61320, Note_on_c, 1, 80, 127
2, 61320, Note_on_c, 1, 86, 127
2, 61320, Note_on_c, 1, 92, 127
2, 61480, Note_off_c, 1, 41, 0
2, 61480, Note_off_c, 1, 47, 0
2, 61480, Note_off_c, 1, 53, 0
2, 61480, Note_off_c, 1, 80, 0
2, 61480, Note_off_c, 1, 86, 0
2, 61480, Note_off_c, 1, 92, 0
2, 61520, Note_on_c, 1, 41, 127
2, 61520, Note_on_c, 1, 53, 127
2, 61520, Note_on_c, 1, 65, 127
2, 61520, Note_on_c, 1, 68, 127
2, 61520, Note_on_c, 1, 73, 127
2, 61520, Note_on_c, 1, 77, 127
2, 61720, Note_off_c, 1, 41, 0
2, 61720, Note_on_c, 1, 44, 127
2, 61720, Note_off_c, 1, 53, 0
2, 61720, Note_on_c, 1, 56, 127
2, 61720, Note_on_c, 1, 63, 127
2, 61720, Note_off_c, 1, 65, 0
2, 61720, Note_on_c, 1, 72, 127
2, 61720, Note_off_c, 1, 73, 0
2, 61720, Note_on_c, 1, 75, 127
2, 61720, Note_off_c, 1, 77, 0
2, 61960, Note_off_c, 1, 44, 0
2, 61960, Note_off_c, 1, 56, 0
2, 61960, Note_off_c, 1, 63, 0
2, 61960, Note_off_c, 1, 68, 0
2, 61960, Note_off_c, 1, 72, 0
2, 61960, Note_off_c, 1, 75, 0
2, 62000, Note_on_c, 1, 44, 127
2, 62000, Note_on_c, 1, 56, 127
2, 62000, Note_on_c, 1, 63, 127
2, 62000, Note_on_c, 1, 68, 127
2, 62000, Note_on_c, 1, 72, 127
2, 62000, Note_on_c, 1, 75, 127
2, 62320, Note_off_c, 1, 63, 0
2, 62320, Note_off_c, 1, 68, 0
2, 62320, Note_off_c, 1, 72, 0
2, 62320, Note_off_c, 1, 75, 0
2, 62360, Note_on_c, 1, 63, 127
2, 62360, Note_on_c, 1, 68, 127
2, 62360, Note_on_c, 1, 72, 127
2, 62360, Note_on_c, 1, 75, 127
2, 62920, Note_off_c, 1, 68, 0
2, 62960, Note_on_c, 1, 68, 127
2, 63120, Note_off_c, 1, 44, 0
2, 63120, Note_off_c, 1, 56, 0
2, 63120, Note_off_c, 1, 63, 0
2, 63120, Note_off_c, 1, 68, 0
2, 63120, Note_off_c, 1, 72, 0
2, 63120, Note_off_c, 1, 75, 0
2, 63160, Note_on_c, 1, 42, 127
2, 63160, Note_on_c, 1, 54, 127
2, 63160, Note_on_c, 1, 61, 127
2, 63160, Note_on_c, 1, 70, 127
2, 63160, Note_on_c, 1, 73, 127
2, 63520, Note_off_c, 1, 42, 0
2, 63520, Note_off_c, 1, 54, 0
2, 63520, Note_off_c, 1, 61, 0
2, 63520, Note_off_c, 1, 70, 0
2, 63520, Note_off_c, 1, 73, 0
2, 63560, Note_on_c, 1, 47, 127
2, 63560, Note_on_c, 1, 54, 127
2, 63560, Note_on_c, 1, 62, 127
2, 63560, Note_on_c, 1, 71, 127
2, 63560, Note_on_c, 1, 74, 127
2, 63880, Note_off_c, 1, 47, 0
2, 63880, Note_off_c, 1, 54, 0
2, 63880, Note_off_c, 1, 62, 0
2, 63880, Note_off_c, 1, 71, 0
2, 63880, Note_off_c, 1, 74, 0
2, 63920, Note_on_c, 1, 47, 127
2, 63920, Note_on_c, 1, 54, 127
2, 63920, Note_on_c, 1, 62, 127
2, 63920, Note_on_c, 1, 71, 127
2, 63920, Note_on_c, 1, 74, 127
2, 63960, Note_off_c, 1, 47, 0
2, 63960, Note_off_c, 1, 54, 0
2, 63960, Note_off_c, 1, 62, 0
2, 63960, Note_off_c, 1, 71, 0
2, 63960, Note_off_c, 1, 74, 0
2, 64000, Note_on_c, 1, 42, 127
2, 64000, Note_on_c, 1, 54, 127
2, 64000, Note_on_c, 1, 61, 127
2, 64000, Note_on_c, 1, 70, 127
2, 64000, Note_on_c, 1, 73, 127
2, 64360, Note_off_c, 1, 42, 0
2, 64360, Note_off_c, 1, 54, 0
2, 64360, Note_off_c, 1, 61, 0
2, 64360, Note_off_c, 1, 70, 0
2, 64360, Note_off_c, 1, 73, 0
2, 64400, Note_on_c, 1, 59, 127
2, 64400, Note_on_c, 1, 70, 127
2, 64400, Note_on_c, 1, 73, 127
2, 64400, Note_on_c, 1, 78, 127
2, 64760, Note_off_c, 1, 59, 0
2, 64760, Note_off_c, 1, 70, 0
2, 64760, Note_off_c, 1, 73, 0
2, 64760, Note_off_c, 1, 78, 0
2, 64800, Note_on_c, 1, 59, 127
2, 64800, Note_on_c, 1, 66, 127
2, 64800, Note_on_c, 1, 71, 127
2, 64800, Note_on_c, 1, 76, 127
2, 64960, Note_off_c, 1, 76, 0
2, 65000, Note_on_c, 1, 75, 127
2, 65160, Note_off_c, 1, 59, 0
2, 65160, Note_off_c, 1, 66, 0
2, 65160, Note_off_c, 1, 71, 0
2, 65160, Note_off_c, 1, 75, 0
2, 65200, Note_on_c, 1, 63, 127
2, 65200, Note_on_c, 1, 68, 127
2, 65200, Note_on_c, 1, 73, 127
2, 65200, Note_on_c, 1, 77, 127
2, 65320, Note_off_c, 1, 77, 0
2, 65360, Note_on_c, 1, 79, 127
2, 65560, Note_off_c, 1, 63, 0
2, 65560, Note_off_c, 1, 68, 0
2, 65560, Note_off_c, 1, 73, 0
2, 65560, Note_off_c, 1, 79, 0
2, 65640, Note_on_c, 1, 47, 127
2, 65640, Note_on_c, 1, 59, 127
2, 65640, Note_on_c, 1, 66, 127
2, 65640, Note_on_c, 1, 71, 127
2, 65640, Note_on_c, 1, 75, 127
2, 65800, Note_off_c, 1, 59, 0
2, 65840, Note_on_c, 1, 59, 127
2, 66000, Note_off_c, 1, 47, 0
2, 66000, Note_off_c, 1, 59, 0
2, 66000, Note_off_c, 1, 66, 0
2, 66000, Note_off_c, 1, 71, 0
2, 66000, Note_off_c, 1, 75, 0
2, 66040, Note_on_c, 1, 41, 127
2, 66040, Note_on_c, 1, 53, 127
2, 66040, Note_on_c, 1, 62, 127
2, 66040, Note_on_c, 1, 68, 127
2, 66040, Note_on_c, 1, 70, 127
2, 66400, Note_off_c, 1, 41, 0
2, 66400, Note_off_c, 1, 53, 0
2, 66400, Note_off_c, 1, 62, 0
2, 66400, Note_off_c, 1, 68, 0
2, 66400, Note_off_c, 1, 70, 0
2, 66440, Note_on_c, 1, 34, 127
2, 66440, Note_on_c, 1, 46, 127
2, 66440, Note_on_c, 1, 62, 127
2, 66440, Note_on_c, 1, 68, 127
2, 66440, Note_on_c, 1, 69, 127
2, 66600, Note_off_c, 1, 69, 0
2, 66640, Note_on_c, 1, 70, 127
2, 66800, Note_off_c, 1, 34, 0
2, 66800, Note_off_c, 1, 46, 0
2, 66800, Note_off_c, 1, 62, 0
2, 66800, Note_off_c, 1, 68, 0
2, 66800, Note_off_c, 1, 70, 0
2, 66840, Note_on_c, 1, 39, 127
2, 66840, Note_on_c, 1, 61, 127
2, 66840, Note_on_c, 1, 67, 127
2, 66840, Note_on_c, 1, 73, 127
2, 67000, Note_off_c, 1, 73, 0
2, 67200, Note_off_c, 1, 39, 0
2, 67200, Note_on_c, 1, 52, 127
2, 67200, Note_off_c, 1, 61, 0
2, 67200, Note_off_c, 1, 67, 0
2, 67240, Note_on_c, 1, 44, 127
2, 67240, Note_off_c, 1, 52, 0
2, 67240, Note_on_c, 1, 63, 127
2, 67240, Note_on_c, 1, 68, 127
2, 67240, Note_on_c, 1, 71, 127
2, 67600, Note_off_c, 1, 44, 0
2, 67600, Note_off_c, 1, 63, 0
2, 67600, Note_off_c, 1, 68, 0
2, 67600, Note_off_c, 1, 71, 0
2, 67680, Note_on_c, 1, 44, 127
2, 67680, Note_on_c, 1, 63, 127
2, 67680, Note_on_c, 1, 68, 127
2, 67680, Note_on_c, 1, 71, 127
2, 68040, Note_off_c, 1, 44, 0
2, 68040, Note_off_c, 1, 63, 0
2, 68040, Note_off_c, 1, 68, 0
2, 68040, Note_off_c, 1, 71, 0
2, 68080, Note_on_c, 1, 56, 127
2, 68080, Note_on_c, 1, 64, 127
2, 68080, Note_on_c, 1, 73, 127
2, 68080, Note_on_c, 1, 76, 127
2, 68440, Note_off_c, 1, 56, 0
2, 68440, Note_off_c, 1, 64, 0
2, 68440, Note_off_c, 1, 73, 0
2, 68440, Note_off_c, 1, 76, 0
2, 68480, Note_on_c, 1, 58, 127
2, 68480, Note_on_c, 1, 63, 127
2, 68480, Note_on_c, 1, 73, 127
2, 68480, Note_on_c, 1, 78, 127
2, 68840, Note_off_c, 1, 63, 0
2, 68840, Note_off_c, 1, 73, 0
2, 68840, Note_off_c, 1, 78, 0
2, 68880, Note_on_c, 1, 63, 127
2, 68880, Note_on_c, 1, 73, 127
2, 68880, Note_on_c, 1, 78, 127
2, 69240, Note_off_c, 1, 58, 0
2, 69240, Note_off_c, 1, 63, 0
2, 69240, Note_off_c, 1, 73, 0
2, 69240, Note_off_c, 1, 78, 0
2, 69280, Note_on_c, 1, 58, 127
2, 69280, Note_on_c, 1, 65, 127
2, 69280, Note_on_c, 1, 73, 127
2, 69280, Note_on_c, 1, 77, 127
2, 69640, Note_off_c, 1, 58, 0
2, 69640, Note_off_c, 1, 65, 0
2, 69640, Note_off_c, 1, 73, 0
2, 69640, Note_off_c, 1, 77, 0
2, 69720, Note_on_c, 1, 58, 127
2, 69720, Note_on_c, 1, 61, 127
2, 69720, Note_on_c, 1, 73, 127
2, 69720, Note_on_c, 1, 77, 127
2, 70080, Note_off_c, 1, 58, 0
2, 70080, Note_off_c, 1, 61, 0
2, 70120, Note_on_c, 1, 53, 127
2, 70120, Note_on_c, 1, 58, 127
2, 70120, Note_on_c, 1, 61, 127
2, 70120, Note_on_c, 1, 65, 127
2, 70120, Note_on_c, 1, 70, 127
2, 70120, Note_off_c, 1, 77, 0
2, 70480, Note_off_c, 1, 53, 0
2, 70480, Note_off_c, 1, 58, 0
2, 70480, Note_off_c, 1, 61, 0
2, 70480, Note_off_c, 1, 65, 0
2, 70480, Note_off_c, 1, 70, 0
2, 70480, Note_off_c, 1, 73, 0
2, 70520, Note_on_c, 1, 58, 127
2, 70520, Note_on_c, 1, 61, 127
2, 70520, Note_on_c, 1, 65, 127
2, 70520, Note_on_c, 1, 73, 127
2, 70680, Note_off_c, 1, 58, 0
2, 70680, Note_off_c, 1, 61, 0
2, 70680, Note_off_c, 1, 65, 0
2, 70680, Note_off_c, 1, 73, 0
2, 70720, Note_on_c, 1, 51, 127
2, 70720, Note_on_c, 1, 58, 127
2, 70720, Note_on_c, 1, 63, 127
2, 70720, Note_on_c, 1, 67, 127
2, 70720, Note_on_c, 1, 72, 127
2, 70880, Note_off_c, 1, 51, 0
2, 70880, Note_off_c, 1, 58, 0
2, 70880, Note_off_c, 1, 63, 0
2, 70880, Note_off_c, 1, 67, 0
2, 70880, Note_off_c, 1, 72, 0
2, 70920, Note_on_c, 1, 51, 127
2, 70920, Note_on_c, 1, 66, 127
2, 70920, Note_on_c, 1, 70, 127
2, 70920, Note_on_c, 1, 78, 127
2, 71280, Note_off_c, 1, 51, 0
2, 71280, Note_off_c, 1, 66, 0
2, 71280, Note_off_c, 1, 70, 0
2, 71280, Note_off_c, 1, 78, 0
2, 71320, Note_on_c, 1, 54, 127
2, 71320, Note_on_c, 1, 66, 127
2, 71320, Note_on_c, 1, 70, 127
2, 71320, Note_on_c, 1, 73, 127
2, 71480, Note_off_c, 1, 54, 0
2, 71480, Note_off_c, 1, 66, 0
2, 71480, Note_off_c, 1, 70, 0
2, 71480, Note_off_c, 1, 73, 0
2, 71520, Note_on_c, 1, 53, 127
2, 71520, Note_on_c, 1, 66, 127
2, 71520, Note_on_c, 1, 70, 127
2, 71520, Note_on_c, 1, 74, 127
2, 71680, Note_off_c, 1, 53, 0
2, 71680, Note_off_c, 1, 66, 0
2, 71680, Note_off_c, 1, 70, 0
2, 71680, Note_off_c, 1, 74, 0
2, 71760, Note_on_c, 1, 51, 127
2, 71760, Note_on_c, 1, 66, 127
2, 71760, Note_on_c, 1, 71, 127
2, 71760, Note_on_c, 1, 75, 127
2, 71920, Note_off_c, 1, 51, 0
2, 71960, Note_on_c, 1, 47, 127
2, 72000, Note_off_c, 1, 47, 0
2, 72040, Note_on_c, 1, 47, 127
2, 72080, Note_off_c, 1, 47, 0
2, 72120, Note_on_c, 1, 46, 127
2, 72200, Note_off_c, 1, 46, 0
2, 72240, Note_on_c, 1, 47, 127
2, 72320, Note_off_c, 1, 47, 0
2, 72320, Note_off_c, 1, 66, 0
2, 72320, Note_off_c, 1, 71, 0
2, 72320, Note_off_c, 1, 75, 0
2, 72360, Note_on_c, 1, 49, 127
2, 72360, Note_on_c, 1, 65, 127
2, 72360, Note_on_c, 1, 71, 127
2, 72360, Note_on_c, 1, 75, 127
2, 72760, Note_on_c, 1, 70, 127
2, 72760, Note_off_c, 1, 71, 0
2, 72760, Note_on_c, 1, 73, 127
2, 72760, Note_off_c, 1, 75, 0
2, 72920, Note_off_c, 1, 49, 0
2, 72920, Note_off_c, 1, 65, 0
2, 72920, Note_off_c, 1, 70, 0
2, 72920, Note_off_c, 1, 73, 0
2, 72960, Note_on_c, 1, 39, 127
2, 72960, Note_on_c, 1, 64, 127
2, 72960, Note_on_c, 1, 68, 127
2, 73120, Note_off_c, 1, 39, 0
2, 73160, Note_on_c, 1, 44, 127
2, 73320, Note_off_c, 1, 44, 0
2, 73360, Note_on_c, 1, 39, 127
2, 73520, Note_off_c, 1, 39, 0
2, 73560, Note_on_c, 1, 39, 127
2, 73720, Note_off_c, 1, 39, 0
2, 73760, Note_on_c, 1, 37, 127
2, 73840, Note_off_c, 1, 37, 0
2, 73840, Note_off_c, 1, 64, 0
2, 73840, Note_off_c, 1, 68, 0
2, 73880, Note_on_c, 1, 37, 127
2, 73880, Note_on_c, 1, 64, 127
2, 73880, Note_on_c, 1, 68, 127
2, 73960, Note_off_c, 1, 37, 0
2, 74000, Note_on_c, 1, 39, 127
2, 74160, Note_off_c, 1, 39, 0
2, 74200, Note_on_c, 1, 40, 127
2, 74360, Note_off_c, 1, 40, 0
2, 74400, Note_on_c, 1, 44, 127
2, 74560, Note_off_c, 1, 44, 0
2, 74600, Note_on_c, 1, 35, 127
2, 74600, Note_on_c, 1, 59, 127
2, 74600, Note_off_c, 1, 64, 0
2, 74600, Note_on_c, 1, 71, 127
2, 74760, Note_off_c, 1, 35, 0
2, 74800, Note_on_c, 1, 51, 127
2, 74800, Note_off_c, 1, 59, 0
2, 74800, Note_on_c, 1, 66, 127
2, 74800, Note_off_c, 1, 68, 0
2, 74800, Note_on_c, 1, 75, 127
2, 74880, Note_on_c, 1, 50, 127
2, 74880, Note_off_c, 1, 51, 0
2, 74920, Note_off_c, 1, 50, 0
2, 74920, Note_on_c, 1, 51, 127
2, 74960, Note_off_c, 1, 51, 0
2, 74960, Note_off_c, 1, 66, 0
2, 74960, Note_off_c, 1, 71, 0
2, 74960, Note_off_c, 1, 75, 0
2, 75000, Note_on_c, 1, 40, 127
2, 75000, Note_on_c, 1, 64, 127
2, 75000, Note_on_c, 1, 68, 127
2, 75160, Note_off_c, 1, 64, 0
2, 75160, Note_off_c, 1, 68, 0
2, 75200, Note_on_c, 1, 47, 127
2, 75200, Note_on_c, 1, 64, 127
2, 75200, Note_on_c, 1, 68, 127
2, 75360, Note_off_c, 1, 40, 0
2, 75360, Note_off_c, 1, 47, 0
2, 75360, Note_off_c, 1, 64, 0
2, 75400, Note_on_c, 1, 47, 127
2, 75400, Note_on_c, 1, 71, 127
2, 75560, Note_off_c, 1, 47, 0
2, 75560, Note_off_c, 1, 68, 0
2, 75560, Note_off_c, 1, 71, 0
2, 75600, Note_on_c, 1, 56, 127
2, 75600, Note_on_c, 1, 59, 127
2, 75600, Note_on_c, 1, 64, 127
2, 75600, Note_on_c, 1, 68, 127
2, 75760, Note_off_c, 1, 56, 0
2, 75760, Note_off_c, 1, 59, 0
2, 75760, Note_off_c, 1, 64, 0
2, 75760, Note_off_c, 1, 68, 0
2, 75800, Note_on_c, 1, 47, 127
2, 75800, Note_on_c, 1, 54, 127
2, 75800, Note_on_c, 1, 63, 127
2, 75800, Note_on_c, 1, 69, 127
2, 75840, Note_off_c, 1, 54, 0
2, 75840, Note_off_c, 1, 63, 0
2, 75840, Note_off_c, 1, 69, 0
2, 75920, Note_on_c, 1, 54, 127
2, 75920, Note_on_c, 1, 61, 127
2, 75920, Note_on_c, 1, 66, 127
2, 75960, Note_off_c, 1, 47, 0
2, 75960, Note_off_c, 1, 54, 0
2, 75960, Note_off_c, 1, 61, 0
2, 75960, Note_off_c, 1, 66, 0
2, 76040, Note_on_c, 1, 47, 127
2, 76040, Note_on_c, 1, 49, 127
2, 76040, Note_on_c, 1, 68, 127
2, 76080, Note_off_c, 1, 68, 0
2, 76120, Note_on_c, 1, 69, 127
2, 76160, Note_off_c, 1, 69, 0
2, 76200, Note_off_c, 1, 49, 0
2, 76240, Note_on_c, 1, 37, 127
2, 76240, Note_off_c, 1, 47, 0
2, 76240, Note_on_c, 1, 53, 127
2, 76240, Note_on_c, 1, 59, 127
2, 76400, Note_off_c, 1, 37, 0
2, 76400, Note_off_c, 1, 53, 0
2, 76400, Note_off_c, 1, 59, 0
2, 76440, Note_on_c, 1, 72, 127
2, 76440, Note_on_c, 1, 84, 127
2, 76440, Note_on_c, 1, 89, 127
2, 76440, Note_on_c, 1, 93, 127
2, 76440, Note_on_c, 1, 96, 127
2, 76520, Note_off_c, 1, 72, 0
2, 76520, Note_off_c, 1, 84, 0
2, 76520, Note_off_c, 1, 89, 0
2, 76520, Note_off_c, 1, 93, 0
2, 76520, Note_off_c, 1, 96, 0
2, 76560, Note_on_c, 1, 70, 127
2, 76600, Note_off_c, 1, 70, 0
2, 76640, Note_on_c, 1, 44, 127
2, 76640, Note_on_c, 1, 49, 127
2, 76640, Note_on_c, 1, 59, 127
2, 76640, Note_on_c, 1, 71, 127
2, 76800, Note_off_c, 1, 49, 0
2, 76800, Note_on_c, 1, 51, 127
2, 76800, Note_off_c, 1, 59, 0
2, 76800, Note_off_c, 1, 71, 0
2, 76840, Note_off_c, 1, 44, 0
2, 76840, Note_on_c, 1, 47, 127
2, 76840, Note_on_c, 1, 49, 127
2, 76840, Note_off_c, 1, 51, 0
2, 76840, Note_on_c, 1, 69, 127
2, 77000, Note_off_c, 1, 47, 0
2, 77000, Note_off_c, 1, 49, 0
2, 77000, Note_off_c, 1, 69, 0
2, 77040, Note_on_c, 1, 47, 127
2, 77040, Note_on_c, 1, 51, 127
2, 77040, Note_on_c, 1, 69, 127
2, 77080, Note_off_c, 1, 69, 0
2, 77120, Note_on_c, 1, 69, 127
2, 77200, Note_off_c, 1, 47, 0
2, 77200, Note_off_c, 1, 69, 0
2, 77240, Note_on_c, 1, 49, 127
2, 77240, Note_off_c, 1, 51, 0
2, 77240, Note_on_c, 1, 52, 127
2, 77240, Note_on_c, 1, 68, 127
2, 77400, Note_off_c, 1, 49, 0
2, 77400, Note_off_c, 1, 52, 0
2, 77400, Note_off_c, 1, 68, 0
2, 77440, Note_on_c, 1, 41, 127
2, 77440, Note_on_c, 1, 62, 127
2, 77440, Note_on_c, 1, 68, 127
2, 77800, Note_off_c, 1, 41, 0
2, 77800, Note_off_c, 1, 62, 0
2, 77800, Note_off_c, 1, 68, 0
2, 77840, Note_on_c, 1, 37, 127
2, 77840, Note_on_c, 1, 58, 127
2, 77840, Note_on_c, 1, 66, 127
2, 78080, Note_off_c, 1, 37, 0
2, 78120, Note_off_c, 1, 58, 0
2, 78120, Note_off_c, 1, 66, 0
2, 78160, Note_on_c, 1, 42, 127
2, 78160, Note_on_c, 1, 58, 127
2, 78160, Note_on_c, 1, 66, 127
2, 78200, Note_off_c, 1, 42, 0
2, 78240, Note_off_c, 1, 58, 0
2, 78280, Note_on_c, 1, 37, 127
2, 78280, Note_off_c, 1, 66, 0
2, 78280, Note_on_c, 1, 68, 127
2, 78280, Note_on_c, 1, 72, 127
2, 78320, Note_off_c, 1, 68, 0
2, 78320, Note_off_c, 1, 72, 0
2, 78360, Note_off_c, 1, 37, 0
2, 78360, Note_on_c, 1, 44, 127
2, 78360, Note_on_c, 1, 70, 127
2, 78360, Note_on_c, 1, 73, 127
2, 78400, Note_off_c, 1, 44, 0
2, 78400, Note_on_c, 1, 50, 127
2, 78400, Note_on_c, 1, 69, 127
2, 78400, Note_off_c, 1, 70, 0
2, 78440, Note_off_c, 1, 50, 0
2, 78440, Note_off_c, 1, 69, 0
2, 78440, Note_off_c, 1, 73, 0
2, 78480, Note_on_c, 1, 32, 127
2, 78480, Note_on_c, 1, 44, 127
2, 78480, Note_on_c, 1, 78, 127
2, 78480, Note_on_c, 1, 84, 127
2, 78480, Note_on_c, 1, 87, 127
2, 78480, Note_on_c, 1, 90, 127
2, 78640, Note_off_c, 1, 32, 0
2, 78640, Note_on_c, 1, 37, 127
2, 78640, Note_off_c, 1, 44, 0
2, 78640, Note_on_c, 1, 66, 127
2, 78640, Note_off_c, 1, 78, 0
2, 78640, Note_off_c, 1, 84, 0
2, 78640, Note_off_c, 1, 87, 0
2, 78640, Note_off_c, 1, 90, 0
2, 78680, Note_off_c, 1, 37, 0
2, 78680, Note_on_c, 1, 44, 127
2, 78680, Note_on_c, 1, 56, 127
2, 78680, Note_off_c, 1, 66, 0
2, 78680, Note_on_c, 1, 78, 127
2, 78680, Note_on_c, 1, 84, 127
2, 78680, Note_on_c, 1, 87, 127
2, 78680, Note_on_c, 1, 90, 127
2, 78840, Note_off_c, 1, 44, 0
2, 78840, Note_off_c, 1, 56, 0
2, 78840, Note_off_c, 1, 78, 0
2, 78840, Note_off_c, 1, 84, 0
2, 78840, Note_off_c, 1, 87, 0
2, 78840, Note_off_c, 1, 90, 0
2, 78880, Note_on_c, 1, 49, 127
2, 78880, Note_on_c, 1, 77, 127
2, 79040, Note_off_c, 1, 49, 0
2, 79040, Note_off_c, 1, 77, 0
2, 79080, Note_on_c, 1, 54, 127
2, 79080, Note_on_c, 1, 78, 127
2, 79240, Note_off_c, 1, 54, 0
2, 79240, Note_off_c, 1, 78, 0
2, 79280, Note_on_c, 1, 42, 127
2, 79440, Note_off_c, 1, 42, 0
2, 79480, Note_on_c, 1, 49, 127
2, 79600, Note_on_c, 1, 77, 127
2, 79640, Note_off_c, 1, 49, 0
2, 79640, Note_off_c, 1, 77, 0
2, 79680, Note_on_c, 1, 65, 127
2, 79680, Note_on_c, 1, 73, 127
2, 79840, Note_off_c, 1, 65, 0
2, 79840, Note_off_c, 1, 73, 0
2, 79880, Note_on_c, 1, 52, 127
2, 79920, Note_off_c, 1, 52, 0
2, 79920, Note_on_c, 1, 54, 127
2, 80000, Note_on_c, 1, 73, 127
2, 80040, Note_off_c, 1, 54, 0
2, 80040, Note_off_c, 1, 73, 0
2, 80080, Note_on_c, 1, 49, 127
2, 80080, Note_on_c, 1, 79, 127
2, 80160, Note_off_c, 1, 79, 0
2, 80200, Note_on_c, 1, 75, 127
2, 80240, Note_off_c, 1, 49, 0
2, 80240, Note_off_c, 1, 75, 0
2, 80320, Note_on_c, 1, 42, 127
2, 80320, Note_on_c, 1, 78, 127
2, 80480, Note_off_c, 1, 42, 0
2, 80480, Note_off_c, 1, 78, 0
2, 80520, Note_on_c, 1, 42, 127
2, 80520, Note_on_c, 1, 70, 127
2, 80520, Note_on_c, 1, 73, 127
2, 80600, Note_off_c, 1, 70, 0
2, 80600, Note_off_c, 1, 73, 0
2, 80680, Note_off_c, 1, 42, 0
2, 80720, Note_on_c, 1, 42, 127
2, 80720, Note_on_c, 1, 69, 127
2, 80800, Note_off_c, 1, 69, 0
2, 80840, Note_on_c, 1, 73, 127
2, 80880, Note_off_c, 1, 42, 0
2, 80880, Note_off_c, 1, 73, 0
2, 80920, Note_on_c, 1, 49, 127
2, 80920, Note_on_c, 1, 73, 127
2, 80920, Note_on_c, 1, 78, 127
2, 80960, Note_off_c, 1, 73, 0
2, 80960, Note_off_c, 1, 78, 0
2, 81000, Note_on_c, 1, 68, 127
2, 81080, Note_off_c, 1, 49, 0
2, 81080, Note_off_c, 1, 68, 0
2, 81120, Note_on_c, 1, 42, 127
2, 81120, Note_on_c, 1, 70, 127
2, 81120, Note_on_c, 1, 73, 127
2, 81200, Note_off_c, 1, 70, 0
2, 81200, Note_off_c, 1, 73, 0
2, 81240, Note_on_c, 1, 30, 127
2, 81240, Note_off_c, 1, 42, 0
2, 81240, Note_on_c, 1, 70, 127
2, 81240, Note_on_c, 1, 77, 127
2, 81280, Note_off_c, 1, 30, 0
2, 81280, Note_off_c, 1, 70, 0
2, 81280, Note_off_c, 1, 77, 0
2, 81320, Note_on_c, 1, 42, 127
2, 81320, Note_on_c, 1, 70, 127
2, 81320, Note_on_c, 1, 73, 127
2, 81480, Note_off_c, 1, 42, 0
2, 81480, Note_off_c, 1, 70, 0
2, 81480, Note_off_c, 1, 73, 0
2, 81520, Note_on_c, 1, 44, 127
2, 81560, Note_on_c, 1, 42, 127
2, 81560, Note_off_c, 1, 44, 0
2, 81600, Note_off_c, 1, 42, 0
2, 81600, Note_on_c, 1, 44, 127
2, 81680, Note_off_c, 1, 44, 0
2, 81720, Note_on_c, 1, 42, 127
2, 81720, Note_on_c, 1, 81, 127
2, 81800, Note_off_c, 1, 81, 0
2, 81840, Note_on_c, 1, 83, 127
2, 81880, Note_off_c, 1, 42, 0
2, 81880, Note_off_c, 1, 83, 0
2, 81920, Note_on_c, 1, 61, 127
2, 81920, Note_on_c, 1, 80, 127
2, 81960, Note_off_c, 1, 80, 0
2, 82000, Note_on_c, 1, 77, 127
2, 82040, Note_off_c, 1, 77, 0
2, 82040, Note_on_c, 1, 80, 127
2, 82080, Note_off_c, 1, 61, 0
2, 82080, Note_off_c, 1, 80, 0
2, 82120, Note_on_c, 1, 66, 127
2, 82120, Note_on_c, 1, 82, 127
2, 82200, Note_off_c, 1, 82, 0
2, 82240, Note_on_c, 1, 80, 127
2, 82280, Note_off_c, 1, 66, 0
2, 82280, Note_off_c, 1, 80, 0
2, 82360, Note_on_c, 1, 46, 127
2, 82360, Note_on_c, 1, 70, 127
2, 82440, Note_on_c, 1, 61, 127
2, 82440, Note_off_c, 1, 70, 0
2, 82480, Note_off_c, 1, 61, 0
2, 82480, Note_on_c, 1, 66, 127
2, 82520, Note_off_c, 1, 66, 0
2, 82560, Note_on_c, 1, 35, 127
2, 82560, Note_off_c, 1, 46, 0
2, 82560, Note_on_c, 1, 78, 127
2, 82600, Note_off_c, 1, 35, 0
2, 82600, Note_on_c, 1, 47, 127
2, 82600, Note_off_c, 1, 78, 0
2, 82640, Note_on_c, 1, 46, 127
2, 82640, Note_off_c, 1, 47, 0
2, 82640, Note_on_c, 1, 66, 127
2, 82720, Note_off_c, 1, 46, 0
2, 82720, Note_off_c, 1, 66, 0
2, 82760, Note_on_c, 1, 61, 127
2, 82760, Note_on_c, 1, 76, 127
2, 82800, Note_off_c, 1, 76, 0
2, 82840, Note_on_c, 1, 78, 127
2, 82920, Note_off_c, 1, 61, 0
2, 82920, Note_off_c, 1, 78, 0
2, 82960, Note_on_c, 1, 66, 127
2, 82960, Note_on_c, 1, 78, 127
2, 83000, Note_off_c, 1, 78, 0
2, 83040, Note_on_c, 1, 83, 127
2, 83080, Note_off_c, 1, 83, 0
2, 83120, Note_off_c, 1, 66, 0
2, 83160, Note_on_c, 1, 61, 127
2, 83160, Note_on_c, 1, 78, 127
2, 83320, Note_off_c, 1, 61, 0
2, 83320, Note_off_c, 1, 78, 0
2, 83360, Note_on_c, 1, 66, 127
2, 83360, Note_on_c, 1, 85, 127
2, 83400, Note_off_c, 1, 85, 0
2, 83440, Note_on_c, 1, 85, 127
2, 83520, Note_off_c, 1, 66, 0
2, 83520, Note_off_c, 1, 85, 0
2, 83560, Note_on_c, 1, 59, 127
2, 83560, Note_on_c, 1, 63, 127
2, 83560, Note_on_c, 1, 95, 127
2, 83640, Note_on_c, 1, 90, 127
2, 83640, Note_off_c, 1, 95, 0
2, 83720, Note_off_c, 1, 59, 0
2, 83720, Note_off_c, 1, 63, 0
2, 83720, Note_off_c, 1, 90, 0
2, 83760, Note_on_c, 1, 45, 127
2, 83760, Note_on_c, 1, 57, 127
2, 83760, Note_on_c, 1, 69, 127
2, 83760, Note_on_c, 1, 73, 127
2, 83800, Note_off_c, 1, 69, 0
2, 83800, Note_off_c, 1, 73, 0
2, 83840, Note_off_c, 1, 45, 0
2, 83840, Note_off_c, 1, 57, 0
2, 83840, Note_on_c, 1, 69, 127
2, 83840, Note_on_c, 1, 81, 127
2, 83840, Note_on_c, 1, 85, 127
2, 83920, Note_off_c, 1, 69, 0
2, 83920, Note_off_c, 1, 81, 0
2, 83920, Note_off_c, 1, 85, 0
2, 83960, Note_on_c, 1, 46, 127
2, 83960, Note_on_c, 1, 58, 127
2, 83960, Note_on_c, 1, 85, 127
2, 84000, Note_off_c, 1, 85, 0
2, 84040, Note_on_c, 1, 85, 127
2, 84120, Note_off_c, 1, 46, 0
2, 84120, Note_off_c, 1, 58, 0
2, 84120, Note_off_c, 1, 85, 0
2, 84160, Note_on_c, 1, 59, 127
2, 84160, Note_on_c, 1, 63, 127
2, 84160, Note_on_c, 1, 80, 127
2, 84200, Note_off_c, 1, 80, 0
2, 84240, Note_on_c, 1, 78, 127
2, 84320, Note_off_c, 1, 59, 0
2, 84320, Note_off_c, 1, 63, 0
2, 84320, Note_off_c, 1, 78, 0
2, 84400, Note_on_c, 1, 75, 127
2, 84560, Note_off_c, 1, 75, 0
2, 84600, Note_on_c, 1, 78, 127
2, 84760, Note_off_c, 1, 78, 0
2, 84800, Note_on_c, 1, 49, 127
2, 84800, Note_on_c, 1, 61, 127
2, 84800, Note_on_c, 1, 77, 127
2, 84960, Note_off_c, 1, 77, 0
2, 85000, Note_on_c, 1, 75, 127
2, 85160, Note_off_c, 1, 75, 0
2, 85200, Note_on_c, 1, 77, 127
2, 85360, Note_off_c, 1, 77, 0
2, 85400, Note_on_c, 1, 85, 127
2, 85440, Note_off_c, 1, 85, 0
2, 85480, Note_on_c, 1, 48, 127
2, 85480, Note_off_c, 1, 49, 0
2, 85480, Note_on_c, 1, 60, 127
2, 85480, Note_off_c, 1, 61, 0
2, 85480, Note_on_c, 1, 83, 127
2, 85560, Note_off_c, 1, 48, 0
2, 85560, Note_off_c, 1, 60, 0
2, 85560, Note_off_c, 1, 83, 0
2, 85600, Note_on_c, 1, 66, 127
2, 85600, Note_on_c, 1, 73, 127
2, 85600, Note_on_c, 1, 76, 127
2, 85600, Note_on_c, 1, 83, 127
2, 85760, Note_off_c, 1, 66, 0
2, 85760, Note_off_c, 1, 73, 0
2, 85760, Note_off_c, 1, 76, 0
2, 85760, Note_off_c, 1, 83, 0
2, 85800, Note_on_c, 1, 66, 127
2, 85800, Note_on_c, 1, 73, 127
2, 85800, Note_on_c, 1, 76, 127
2, 85800, Note_on_c, 1, 82, 127
2, 86360, Note_off_c, 1, 66, 0
2, 86360, Note_off_c, 1, 73, 0
2, 86360, Note_off_c, 1, 76, 0
2, 86360, Note_off_c, 1, 82, 0
2, 86400, Note_on_c, 1, 68, 127
2, 86400, Note_on_c, 1, 71, 127
2, 86400, Note_on_c, 1, 80, 127
2, 86560, Note_off_c, 1, 68, 0
2, 86560, Note_off_c, 1, 71, 0
2, 86560, Note_off_c, 1, 80, 0
2, 86640, Note_on_c, 1, 45, 127
2, 86640, Note_on_c, 1, 55, 127
2, 86640, Note_on_c, 1, 60, 127
2, 86640, Note_on_c, 1, 69, 127
2, 86840, Note_off_c, 1, 45, 0
2, 86840, Note_on_c, 1, 50, 127
2, 86840, Note_on_c, 1, 62, 127
2, 87200, Note_off_c, 1, 50, 0
2, 87200, Note_off_c, 1, 55, 0
2, 87200, Note_off_c, 1, 60, 0
2, 87200, Note_off_c, 1, 62, 0
2, 87200, Note_off_c, 1, 69, 0
2, 87240, Note_on_c, 1, 49, 127
2, 87240, Note_on_c, 1, 56, 127
2, 87240, Note_on_c, 1, 61, 127
2, 87240, Note_on_c, 1, 64, 127
2, 87240, Note_on_c, 1, 68, 127
2, 87240, Note_on_c, 1, 75, 127
2, 87600, Note_off_c, 1, 49, 0
2, 87600, Note_off_c, 1, 56, 0
2, 87600, Note_off_c, 1, 61, 0
2, 87600, Note_off_c, 1, 64, 0
2, 87600, Note_off_c, 1, 68, 0
2, 87600, Note_off_c, 1, 75, 0
2, 87640, Note_on_c, 1, 52, 127
2, 87640, Note_on_c, 1, 62, 127
2, 87640, Note_on_c, 1, 64, 127
2, 87640, Note_on_c, 1, 71, 127
2, 87640, Note_on_c, 1, 76, 127
2, 87640, Note_on_c, 1, 80, 127
2, 88200, Note_off_c, 1, 52, 0
2, 88200, Note_off_c, 1, 62, 0
2, 88200, Note_off_c, 1, 64, 0
2, 88200, Note_off_c, 1, 71, 0
2, 88200, Note_off_c, 1, 76, 0
2, 88200, Note_off_c, 1, 80, 0
2, 88240, Note_on_c, 1, 52, 127
2, 88240, Note_on_c, 1, 62, 127
2, 88240, Note_on_c, 1, 64, 127
2, 88240, Note_on_c, 1, 71, 127
2, 88240, Note_on_c, 1, 76, 127
2, 88240, Note_on_c, 1, 80, 127
2, 88400, Note_off_c, 1, 52, 0
2, 88400, Note_off_c, 1, 62, 0
2, 88400, Note_off_c, 1, 64, 0
2, 88400, Note_off_c, 1, 71, 0
2, 88400, Note_off_c, 1, 76, 0
2, 88400, Note_off_c, 1, 80, 0
2, 88440, Note_on_c, 1, 56, 127
2, 88440, Note_on_c, 1, 59, 127
2, 88440, Note_on_c, 1, 62, 127
2, 88440, Note_on_c, 1, 65, 127
2, 88440, Note_on_c, 1, 68, 127
2, 88440, Note_on_c, 1, 80, 127
2, 88600, Note_off_c, 1, 56, 0
2, 88600, Note_off_c, 1, 59, 0
2, 88600, Note_off_c, 1, 62, 0
2, 88600, Note_off_c, 1, 65, 0
2, 88600, Note_off_c, 1, 68, 0
2, 88600, Note_off_c, 1, 80, 0
2, 88680, Note_on_c, 1, 65, 127
2, 88680, Note_on_c, 1, 72, 127
2, 88680, Note_on_c, 1, 74, 127
2, 88680, Note_on_c, 1, 81, 127
2, 88680, Note_on_c, 1, 84, 127
2, 88680, Note_on_c, 1, 86, 127
2, 88840, Note_off_c, 1, 65, 0
2, 88840, Note_off_c, 1, 72, 0
2, 88840, Note_off_c, 1, 74, 0
2, 88840, Note_off_c, 1, 81, 0
2, 88840, Note_off_c, 1, 84, 0
2, 88840, Note_off_c, 1, 86, 0
2, 88880, Note_on_c, 1, 67, 127
2, 88880, Note_on_c, 1, 72, 127
2, 88880, Note_on_c, 1, 76, 127
2, 88880, Note_on_c, 1, 79, 127
2, 88880, Note_on_c, 1, 84, 127
2, 88880, Note_on_c, 1, 88, 127
2, 89040, Note_off_c, 1, 67, 0
2, 89040, Note_off_c, 1, 72, 0
2, 89040, Note_off_c, 1, 76, 0
2, 89040, Note_off_c, 1, 79, 0
2, 89040, Note_off_c, 1, 84, 0
2, 89040, Note_off_c, 1, 88, 0
2, 89080, Note_on_c, 1, 37, 127
2, 89080, Note_on_c, 1, 49, 127
2, 89080, Note_on_c, 1, 54, 127
2, 89080, Note_on_c, 1, 57, 127
2, 89080, Note_on_c, 1, 61, 127
2, 89080, Note_on_c, 1, 66, 127
2, 89080, Note_on_c, 1, 69, 127
2, 89080, Note_on_c, 1, 73, 127
2, 89240, Note_off_c, 1, 37, 0
2, 89240, Note_off_c, 1, 49, 0
2, 89240, Note_off_c, 1, 54, 0
2, 89240, Note_off_c, 1, 57, 0
2, 89240, Note_off_c, 1, 61, 0
2, 89240, Note_off_c, 1, 66, 0
2, 89240, Note_off_c, 1, 69, 0
2, 89240, Note_off_c, 1, 73, 0
2, 89280, Note_on_c, 1, 46, 127
2, 89280, Note_on_c, 1, 52, 127
2, 89280, Note_on_c, 1, 55, 127
2, 89280, Note_on_c, 1, 64, 127
2, 89280, Note_on_c, 1, 67, 127
2, 89280, Note_on_c, 1, 73, 127
2, 89640, Note_off_c, 1, 46, 0
2, 89640, Note_off_c, 1, 52, 0
2, 89640, Note_off_c, 1, 55, 0
2, 89640, Note_off_c, 1, 64, 0
2, 89640, Note_off_c, 1, 67, 0
2, 89640, Note_off_c, 1, 73, 0
2, 89680, Note_on_c, 1, 35, 127
2, 89680, Note_on_c, 1, 47, 127
2, 89680, Note_on_c, 1, 56, 127
2, 89680, Note_on_c, 1, 64, 127
2, 89680, Note_on_c, 1, 68, 127
2, 89840, Note_off_c, 1, 35, 0
2, 89840, Note_off_c, 1, 47, 0
2, 89840, Note_off_c, 1, 56, 0
2, 89840, Note_off_c, 1, 64, 0
2, 89840, Note_off_c, 1, 68, 0
2, 89880, Note_on_c, 1, 36, 127
2, 89880, Note_on_c, 1, 48, 127
2, 89880, Note_on_c, 1, 57, 127
2, 89880, Note_on_c, 1, 64, 127
2, 89880, Note_on_c, 1, 68, 127
2, 90240, Note_off_c, 1, 36, 0
2, 90240, Note_off_c, 1, 48, 0
2, 90240, Note_off_c, 1, 57, 0
2, 90240, Note_off_c, 1, 64, 0
2, 90240, Note_off_c, 1, 68, 0
2, 90280, Note_on_c, 1, 37, 127
2, 90280, Note_on_c, 1, 49, 127
2, 90280, Note_on_c, 1, 58, 127
2, 90280, Note_on_c, 1, 64, 127
2, 90280, Note_on_c, 1, 66, 127
2, 90640, Note_off_c, 1, 37, 0
2, 90640, Note_off_c, 1, 49, 0
2, 90640, Note_off_c, 1, 58, 0
2, 90640, Note_off_c, 1, 64, 0
2, 90640, Note_off_c, 1, 66, 0
2, 90720, Note_on_c, 1, 30, 127
2, 90720, Note_on_c, 1, 42, 127
2, 90720, Note_on_c, 1, 58, 127
2, 90720, Note_on_c, 1, 64, 127
2, 90720, Note_on_c, 1, 65, 127
2, 90920, Note_off_c, 1, 65, 0
2, 90960, Note_on_c, 1, 65, 127
2, 91080, Note_off_c, 1, 30, 0
2, 91080, Note_off_c, 1, 42, 0
2, 91080, Note_off_c, 1, 58, 0
2, 91080, Note_off_c, 1, 64, 0
2, 91080, Note_off_c, 1, 65, 0
2, 91120, Note_on_c, 1, 39, 127
2, 91120, Note_on_c, 1, 51, 127
2, 91120, Note_on_c, 1, 66, 127
2, 91120, Note_on_c, 1, 70, 127
2, 91120, Note_on_c, 1, 73, 127
2, 91280, Note_off_c, 1, 66, 0
2, 91320, Note_on_c, 1, 67, 127
2, 91480, Note_off_c, 1, 39, 0
2, 91480, Note_off_c, 1, 51, 0
2, 91480, Note_off_c, 1, 67, 0
2, 91480, Note_off_c, 1, 70, 0
2, 91480, Note_off_c, 1, 73, 0
2, 91520, Note_on_c, 1, 32, 127
2, 91520, Note_on_c, 1, 44, 127
2, 91520, Note_on_c, 1, 70, 127
2, 91520, Note_on_c, 1, 73, 127
2, 91640, Note_off_c, 1, 70, 0
2, 91680, Note_on_c, 1, 68, 127
2, 91880, Note_off_c, 1, 32, 0
2, 91880, Note_off_c, 1, 44, 0
2, 91880, Note_off_c, 1, 68, 0
2, 91880, Note_off_c, 1, 73, 0
2, 91920, Note_on_c, 1, 44, 127
2, 91920, Note_on_c, 1, 56, 127
2, 91920, Note_on_c, 1, 63, 127
2, 91920, Note_on_c, 1, 72, 127
2, 91960, Note_off_c, 1, 63, 0
2, 92000, Note_on_c, 1, 63, 127
2, 92040, Note_off_c, 1, 63, 0
2, 92080, Note_on_c, 1, 60, 127
2, 92240, Note_off_c, 1, 56, 0
2, 92240, Note_off_c, 1, 60, 0
2, 92280, Note_on_c, 1, 51, 127
2, 92280, Note_on_c, 1, 63, 127
2, 92440, Note_off_c, 1, 44, 0
2, 92440, Note_off_c, 1, 51, 0
2, 92440, Note_off_c, 1, 63, 0
2, 92440, Note_off_c, 1, 72, 0
2, 92480, Note_on_c, 1, 44, 127
2, 92480, Note_on_c, 1, 51, 127
2, 92480, Note_on_c, 1, 60, 127
2, 92480, Note_on_c, 1, 72, 127
2, 92640, Note_off_c, 1, 44, 0
2, 92640, Note_off_c, 1, 51, 0
2, 92640, Note_off_c, 1, 60, 0
2, 92640, Note_off_c, 1, 72, 0
2, 92680, Note_on_c, 1, 44, 127
2, 92680, Note_on_c, 1, 53, 127
2, 92680, Note_on_c, 1, 56, 127
2, 92680, Note_on_c, 1, 68, 127
2, 92840, Note_off_c, 1, 44, 0
2, 92840, Note_off_c, 1, 53, 0
2, 92840, Note_off_c, 1, 56, 0
2, 92840, Note_off_c, 1, 68, 0
2, 92880, Note_on_c, 1, 44, 127
2, 92880, Note_on_c, 1, 53, 127
2, 92880, Note_on_c, 1, 56, 127
2, 92880, Note_on_c, 1, 68, 127
2, 93080, Note_off_c, 1, 44, 0
2, 93080, Note_off_c, 1, 53, 0
2, 93080, Note_off_c, 1, 56, 0
2, 93080, Note_off_c, 1, 68, 0
2, 93120, Note_on_c, 1, 42, 127
2, 93120, Note_on_c, 1, 58, 127
2, 93120, Note_on_c, 1, 66, 127
2, 93120, Note_on_c, 1, 73, 127
2, 93480, Note_off_c, 1, 42, 0
2, 93480, Note_off_c, 1, 58, 0
2, 93480, Note_off_c, 1, 66, 0
2, 93480, Note_off_c, 1, 73, 0
2, 93520, Note_on_c, 1, 48, 127
2, 93520, Note_on_c, 1, 54, 127
2, 93520, Note_on_c, 1, 63, 127
2, 93520, Note_on_c, 1, 75, 127
2, 93880, Note_off_c, 1, 63, 0
2, 93880, Note_off_c, 1, 75, 0
2, 93920, Note_off_c, 1, 48, 0
2, 93920, Note_on_c, 1, 49, 127
2, 93920, Note_on_c, 1, 53, 127
2, 93920, Note_off_c, 1, 54, 0
2, 93920, Note_on_c, 1, 61, 127
2, 93920, Note_on_c, 1, 73, 127
2, 94280, Note_off_c, 1, 49, 0
2, 94280, Note_off_c, 1, 53, 0
2, 94280, Note_off_c, 1, 61, 0
2, 94280, Note_off_c, 1, 73, 0
2, 94320, Note_on_c, 1, 36, 127
2, 94320, Note_on_c, 1, 48, 127
2, 94320, Note_on_c, 1, 63, 127
2, 94320, Note_on_c, 1, 65, 127
2, 94440, Note_off_c, 1, 36, 0
2, 94440, Note_off_c, 1, 48, 0
2, 94440, Note_on_c, 1, 53, 127
2, 94440, Note_on_c, 1, 58, 127
2, 94440, Note_off_c, 1, 63, 0
2, 94440, Note_off_c, 1, 65, 0
2, 94440, Note_on_c, 1, 67, 127
2, 94440, Note_on_c, 1, 85, 127
2, 94480, Note_off_c, 1, 53, 0
2, 94480, Note_off_c, 1, 58, 0
2, 94480, Note_off_c, 1, 67, 0
2, 94480, Note_off_c, 1, 85, 0
2, 94520, Note_on_c, 1, 51, 127
2, 94520, Note_on_c, 1, 56, 127
2, 94520, Note_on_c, 1, 66, 127
2, 94520, Note_on_c, 1, 72, 127
2, 94680, Note_off_c, 1, 51, 0
2, 94680, Note_off_c, 1, 56, 0
2, 94680, Note_off_c, 1, 66, 0
2, 94680, Note_off_c, 1, 72, 0
2, 94720, Note_on_c, 1, 49, 127
2, 94720, Note_on_c, 1, 56, 127
2, 94720, Note_on_c, 1, 65, 127
2, 94720, Note_on_c, 1, 73, 127
2, 94880, Note_off_c, 1, 49, 0
2, 94880, Note_off_c, 1, 56, 0
2, 94880, Note_off_c, 1, 65, 0
2, 94880, Note_off_c, 1, 73, 0
2, 94920, Note_on_c, 1, 49, 127
2, 94920, Note_on_c, 1, 56, 127
2, 94920, Note_on_c, 1, 61, 127
2, 94920, Note_on_c, 1, 65, 127
2, 94920, Note_on_c, 1, 68, 127
2, 94920, Note_on_c, 1, 73, 127
2, 95080, Note_off_c, 1, 49, 0
2, 95080, Note_off_c, 1, 56, 0
2, 95080, Note_off_c, 1, 61, 0
2, 95080, Note_off_c, 1, 65, 0
2, 95080, Note_off_c, 1, 68, 0
2, 95080, Note_off_c, 1, 73, 0
2, 95160, Note_on_c, 1, 48, 127
2, 95160, Note_on_c, 1, 56, 127
2, 95160, Note_on_c, 1, 78, 127
2, 95320, Note_off_c, 1, 48, 0
2, 95320, Note_off_c, 1, 56, 0
2, 95320, Note_off_c, 1, 78, 0
2, 95360, Note_on_c, 1, 51, 127
2, 95360, Note_on_c, 1, 60, 127
2, 95360, Note_on_c, 1, 69, 127
2, 95360, Note_on_c, 1, 78, 127
2, 95520, Note_off_c, 1, 51, 0
2, 95520, Note_off_c, 1, 60, 0
2, 95520, Note_off_c, 1, 69, 0
2, 95520, Note_off_c, 1, 78, 0
2, 95560, Note_on_c, 1, 51, 127
2, 95560, Note_on_c, 1, 60, 127
2, 95560, Note_on_c, 1, 69, 127
2, 95560, Note_on_c, 1, 78, 127
2, 95920, Note_off_c, 1, 51, 0
2, 95920, Note_off_c, 1, 60, 0
2, 95920, Note_off_c, 1, 69, 0
2, 95920, Note_off_c, 1, 78, 0
2, 95960, Note_on_c, 1, 51, 127
2, 95960, Note_on_c, 1, 60, 127
2, 95960, Note_on_c, 1, 69, 127
2, 95960, Note_on_c, 1, 78, 127
2, 96200, Note_off_c, 1, 60, 0
2, 96200, Note_off_c, 1, 69, 0
2, 96200, Note_off_c, 1, 78, 0
2, 96240, Note_on_c, 1, 61, 127
2, 96240, Note_on_c, 1, 67, 127
2, 96320, Note_off_c, 1, 51, 0
2, 96320, Note_off_c, 1, 61, 0
2, 96320, Note_off_c, 1, 67, 0
2, 96360, Note_on_c, 1, 52, 127
2, 96360, Note_on_c, 1, 62, 127
2, 96360, Note_on_c, 1, 66, 127
2, 96360, Note_on_c, 1, 71, 127
2, 96520, Note_off_c, 1, 66, 0
2, 96520, Note_on_c, 1, 68, 127
2, 96520, Note_off_c, 1, 71, 0
2, 96560, Note_on_c, 1, 73, 127
2, 96600, Note_off_c, 1, 73, 0
2, 96640, Note_on_c, 1, 71, 127
2, 96720, Note_off_c, 1, 52, 0
2, 96720, Note_off_c, 1, 62, 0
2, 96720, Note_off_c, 1, 68, 0
2, 96720, Note_off_c, 1, 71, 0
2, 96760, Note_on_c, 1, 38, 127
2, 96760, Note_on_c, 1, 62, 127
2, 96760, Note_on_c, 1, 66, 127
2, 96760, Note_on_c, 1, 71, 127
2, 96920, Note_off_c, 1, 38, 0
2, 96960, Note_on_c, 1, 49, 127
2, 97120, Note_off_c, 1, 49, 0
2, 97120, Note_off_c, 1, 62, 0
2, 97160, Note_off_c, 1, 66, 0
2, 97160, Note_off_c, 1, 71, 0
2, 97200, Note_on_c, 1, 52, 127
2, 97200, Note_on_c, 1, 62, 127
2, 97200, Note_on_c, 1, 66, 127
2, 97200, Note_on_c, 1, 71, 127
2, 97560, Note_off_c, 1, 52, 0
2, 97560, Note_off_c, 1, 62, 0
2, 97560, Note_off_c, 1, 66, 0
2, 97560, Note_off_c, 1, 71, 0
2, 97600, Note_on_c, 1, 54, 127
2, 97600, Note_on_c, 1, 58, 127
2, 97600, Note_on_c, 1, 64, 127
2, 97600, Note_on_c, 1, 66, 127
2, 97840, Note_off_c, 1, 58, 0
2, 97840, Note_off_c, 1, 64, 0
2, 97840, Note_off_c, 1, 66, 0
2, 98000, Note_on_c, 1, 59, 127
2, 98000, Note_on_c, 1, 68, 127
2, 98000, Note_on_c, 1, 71, 127
2, 98160, Note_off_c, 1, 59, 0
2, 98160, Note_off_c, 1, 68, 0
2, 98160, Note_off_c, 1, 71, 0
2, 98200, Note_on_c, 1, 52, 127
2, 98200, Note_on_c, 1, 63, 127
2, 98360, Note_off_c, 1, 52, 0
2, 98360, Note_off_c, 1, 54, 0
2, 98360, Note_off_c, 1, 63, 0
2, 98400, Note_on_c, 1, 52, 127
2, 98400, Note_on_c, 1, 54, 127
2, 98400, Note_on_c, 1, 63, 127
2, 98440, Note_off_c, 1, 54, 0
2, 98440, Note_on_c, 1, 58, 127
2, 98440, Note_off_c, 1, 63, 0
2, 98480, Note_on_c, 1, 66, 127
2, 98520, Note_on_c, 1, 51, 127
2, 98520, Note_off_c, 1, 52, 0
2, 98520, Note_on_c, 1, 54, 127
2, 98520, Note_off_c, 1, 58, 0
2, 98520, Note_off_c, 1, 66, 0
2, 98560, Note_off_c, 1, 51, 0
2, 98560, Note_on_c, 1, 53, 127
2, 98560, Note_off_c, 1, 54, 0
2, 98560, Note_on_c, 1, 59, 127
2, 98600, Note_on_c, 1, 35, 127
2, 98600, Note_on_c, 1, 39, 127
2, 98600, Note_on_c, 1, 42, 127
2, 98600, Note_off_c, 1, 53, 0
2, 98600, Note_on_c, 1, 54, 127
2, 98600, Note_on_c, 1, 63, 127
2, 98640, Note_on_c, 1, 30, 127
2, 98640, Note_off_c, 1, 35, 0
2, 98640, Note_on_c, 1, 37, 127
2, 98640, Note_off_c, 1, 39, 0
2, 98640, Note_off_c, 1, 54, 0
2, 98640, Note_off_c, 1, 59, 0
2, 98640, Note_off_c, 1, 63, 0
2, 98640, Note_on_c, 1, 81, 127
2, 98640, Note_on_c, 1, 85, 127
2, 98680, Note_off_c, 1, 30, 0
2, 98680, Note_off_c, 1, 37, 0
2, 98680, Note_off_c, 1, 42, 0
2, 98680, Note_on_c, 1, 46, 127
2, 98680, Note_on_c, 1, 53, 127
2, 98680, Note_on_c, 1, 62, 127
2, 98680, Note_on_c, 1, 68, 127
2, 98680, Note_on_c, 1, 74, 127
2, 98680, Note_off_c, 1, 81, 0
2, 98680, Note_off_c, 1, 85, 0
2, 98720, Note_off_c, 1, 46, 0
2, 98720, Note_off_c, 1, 53, 0
2, 98720, Note_on_c, 1, 54, 127
2, 98720, Note_on_c, 1, 59, 127
2, 98720, Note_on_c, 1, 66, 127
2, 98720, Note_off_c, 1, 68, 0
2, 98720, Note_off_c, 1, 74, 0
2, 98760, Note_off_c, 1, 54, 0
2, 98760, Note_off_c, 1, 59, 0
2, 98760, Note_off_c, 1, 62, 0
2, 98760, Note_off_c, 1, 66, 0
2, 98800, Note_on_c, 1, 47, 127
2, 98800, Note_on_c, 1, 51, 127
2, 98800, Note_on_c, 1, 54, 127
2, 98800, Note_on_c, 1, 71, 127
2, 98800, Note_on_c, 1, 75, 127
2, 98800, Note_on_c, 1, 83, 127
2, 99160, Note_off_c, 1, 47, 0
2, 99160, Note_off_c, 1, 51, 0
2, 99160, Note_off_c, 1, 54, 0
2, 99160, Note_off_c, 1, 71, 0
2, 99160, Note_off_c, 1, 75, 0
2, 99160, Note_off_c, 1, 83, 0
2, 99440, Note_on_c, 1, 47, 127
2, 99440, Note_on_c, 1, 54, 127
2, 99440, Note_on_c, 1, 59, 127
2, 99440, Note_on_c, 1, 63, 127
2, 99440, Note_on_c, 1, 66, 127
2, 99440, Note_on_c, 1, 71, 127
2, 99440, Note_on_c, 1, 75, 127
2, 100000, Note_off_c, 1, 47, 0
2, 100000, Note_off_c, 1, 54, 0
2, 100000, Note_off_c, 1, 59, 0
2, 100000, Note_off_c, 1, 63, 0
2, 100000, Note_off_c, 1, 66, 0
2, 100000, Note_off_c, 1, 71, 0
2, 100000, Note_off_c, 1, 75, 0
2, 100040, Note_on_c, 1, 35, 127
2, 100240, Note_on_c, 1, 59, 127
2, 100280, Note_off_c, 1, 59, 0
2, 100400, Note_off_c, 1, 35, 0
2, 100440, Note_on_c, 1, 47, 127
2, 100440, Note_on_c, 1, 52, 127
2, 100440, Note_on_c, 1, 71, 127
2, 100800, Note_off_c, 1, 47, 0
2, 100800, Note_off_c, 1, 52, 0
2, 100800, Note_off_c, 1, 71, 0
2, 100840, Note_on_c, 1, 47, 127
2, 100840, Note_on_c, 1, 54, 127
2, 100840, Note_on_c, 1, 63, 127
2, 100840, Note_on_c, 1, 71, 127
2, 101200, Note_off_c, 1, 63, 0
2, 101200, Note_off_c, 1, 71, 0
2, 101240, Note_on_c, 1, 90, 127
2, 101400, Note_off_c, 1, 90, 0
2, 101440, Note_on_c, 1, 90, 127
2, 101520, Note_off_c, 1, 54, 0
2, 101520, Note_on_c, 1, 73, 127
2, 101520, Note_off_c, 1, 90, 0
2, 101560, Note_on_c, 1, 54, 127
2, 101560, Note_on_c, 1, 69, 127
2, 101560, Note_off_c, 1, 73, 0
2, 101600, Note_off_c, 1, 47, 0
2, 101600, Note_off_c, 1, 54, 0
2, 101600, Note_off_c, 1, 69, 0
2, 101680, Note_on_c, 1, 47, 127
2, 101680, Note_on_c, 1, 52, 127
2, 101680, Note_on_c, 1, 56, 127
2, 101680, Note_on_c, 1, 59, 127
2, 102440, Note_off_c, 1, 47, 0
2, 102440, Note_off_c, 1, 52, 0
2, 102440, Note_off_c, 1, 56, 0
2, 102440, Note_off_c, 1, 59, 0
2, 102480, Note_on_c, 1, 43, 127
2, 102480, Note_on_c, 1, 55, 127
2, 102480, Note_on_c, 1, 59, 127
2, 102480, Note_on_c, 1, 64, 127
2, 102840, Note_off_c, 1, 43, 0
2, 102840, Note_off_c, 1, 55, 0
2, 102840, Note_off_c, 1, 59, 0
2, 102840, Note_off_c, 1, 64, 0
2, 102880, Note_on_c, 1, 39, 127
2, 102880, Note_on_c, 1, 51, 127
2, 102880, Note_on_c, 1, 54, 127
2, 102880, Note_on_c, 1, 60, 127
2, 103240, Note_off_c, 1, 39, 0
2, 103240, Note_off_c, 1, 51, 0
2, 103240, Note_off_c, 1, 54, 0
2, 103240, Note_off_c, 1, 60, 0
2, 103280, Note_on_c, 1, 44, 127
2, 103280, Note_on_c, 1, 51, 127
2, 103280, Note_on_c, 1, 56, 127
2, 103280, Note_on_c, 1, 59, 127
2, 103280, Note_on_c, 1, 63, 127
2, 103280, Note_on_c, 1, 68, 127
2, 103280, Note_on_c, 1, 71, 127
2, 103640, Note_off_c, 1, 44, 0
2, 103640, Note_off_c, 1, 51, 0
2, 103640, Note_off_c, 1, 56, 0
2, 103640, Note_off_c, 1, 59, 0
2, 103640, Note_off_c, 1, 63, 0
2, 103640, Note_off_c, 1, 68, 0
2, 103640, Note_off_c, 1, 71, 0
2, 103720, Note_on_c, 1, 47, 127
2, 103720, Note_on_c, 1, 54, 127
2, 103720, Note_on_c, 1, 73, 127
2, 103720, Note_on_c, 1, 76, 127
2, 103880, Note_on_c, 1, 35, 127
2, 103880, Note_on_c, 1, 57, 127
2, 103880, Note_on_c, 1, 61, 127
2, 103880, Note_off_c, 1, 73, 0
2, 103880, Note_off_c, 1, 76, 0
2, 103920, Note_off_c, 1, 35, 0
2, 103920, Note_off_c, 1, 57, 0
2, 103920, Note_off_c, 1, 61, 0
2, 103920, Note_on_c, 1, 73, 127
2, 103920, Note_on_c, 1, 76, 127
2, 104080, Note_off_c, 1, 47, 0
2, 104080, Note_off_c, 1, 54, 0
2, 104080, Note_off_c, 1, 73, 0
2, 104080, Note_off_c, 1, 76, 0
2, 104120, Note_on_c, 1, 61, 127
2, 104120, Note_on_c, 1, 65, 127
2, 104120, Note_on_c, 1, 73, 127
2, 104120, Note_on_c, 1, 80, 127
2, 104480, Note_off_c, 1, 61, 0
2, 104480, Note_off_c, 1, 65, 0
2, 104480, Note_off_c, 1, 73, 0
2, 104480, Note_off_c, 1, 80, 0
2, 104520, Note_on_c, 1, 63, 127
2, 104520, Note_on_c, 1, 70, 127
2, 104520, Note_on_c, 1, 78, 127
2, 104520, Note_on_c, 1, 87, 127
2, 104760, Note_off_c, 1, 87, 0
2, 104800, Note_on_c, 1, 82, 127
2, 104840, Note_off_c, 1, 82, 0
2, 104840, Note_on_c, 1, 84, 127
2, 104880, Note_off_c, 1, 63, 0
2, 104880, Note_off_c, 1, 70, 0
2, 104880, Note_off_c, 1, 78, 0
2, 104880, Note_off_c, 1, 84, 0
2, 104920, Note_on_c, 1, 59, 127
2, 104920, Note_on_c, 1, 66, 127
2, 104920, Note_on_c, 1, 87, 127
2, 105160, Note_on_c, 1, 83, 127
2, 105160, Note_off_c, 1, 87, 0
2, 105200, Note_off_c, 1, 83, 0
2, 105200, Note_on_c, 1, 87, 127
2, 105280, Note_off_c, 1, 59, 0
2, 105280, Note_off_c, 1, 66, 0
2, 105280, Note_off_c, 1, 87, 0
2, 105320, Note_on_c, 1, 57, 127
2, 105320, Note_on_c, 1, 69, 127
2, 105320, Note_on_c, 1, 72, 127
2, 105320, Note_on_c, 1, 84, 127
2, 105680, Note_off_c, 1, 57, 0
2, 105680, Note_off_c, 1, 69, 0
2, 105680, Note_off_c, 1, 72, 0
2, 105680, Note_off_c, 1, 84, 0
2, 105760, Note_on_c, 1, 54, 127
2, 105760, Note_on_c, 1, 66, 127
2, 105760, Note_on_c, 1, 69, 127
2, 105760, Note_on_c, 1, 81, 127
2, 105920, Note_on_c, 1, 45, 127
2, 105920, Note_on_c, 1, 47, 127
2, 105920, Note_off_c, 1, 54, 0
2, 105920, Note_on_c, 1, 57, 127
2, 105920, Note_on_c, 1, 63, 127
2, 105920, Note_off_c, 1, 69, 0
2, 105920, Note_on_c, 1, 71, 127
2, 105920, Note_on_c, 1, 75, 127
2, 105920, Note_off_c, 1, 81, 0
2, 105960, Note_off_c, 1, 45, 0
2, 105960, Note_off_c, 1, 47, 0
2, 105960, Note_on_c, 1, 54, 127
2, 105960, Note_off_c, 1, 57, 0
2, 105960, Note_off_c, 1, 63, 0
2, 105960, Note_on_c, 1, 69, 127
2, 105960, Note_off_c, 1, 71, 0
2, 105960, Note_off_c, 1, 75, 0
2, 105960, Note_on_c, 1, 81, 127
2, 106120, Note_off_c, 1, 54, 0
2, 106120, Note_off_c, 1, 66, 0
2, 106120, Note_off_c, 1, 69, 0
2, 106120, Note_off_c, 1, 81, 0
2, 106160, Note_on_c, 1, 54, 127
2, 106160, Note_on_c, 1, 66, 127
2, 106160, Note_on_c, 1, 81, 127
2, 106400, Note_off_c, 1, 81, 0
2, 106440, Note_on_c, 1, 76, 127
2, 106440, Note_on_c, 1, 78, 127
2, 106520, Note_off_c, 1, 76, 0
2, 106520, Note_off_c, 1, 78, 0
2, 106560, Note_on_c, 1, 76, 127
2, 106560, Note_on_c, 1, 78, 127
2, 106600, Note_off_c, 1, 76, 0
2, 106600, Note_off_c, 1, 78, 0
2, 106640, Note_on_c, 1, 78, 127
2, 106720, Note_off_c, 1, 78, 0
2, 106760, Note_on_c, 1, 87, 127
2, 106800, Note_off_c, 1, 87, 0
2, 106840, Note_on_c, 1, 80, 127
2, 106880, Note_off_c, 1, 80, 0
2, 106920, Note_off_c, 1, 54, 0
2, 106920, Note_off_c, 1, 66, 0
2, 106960, Note_on_c, 1, 51, 127
2, 106960, Note_on_c, 1, 63, 127
2, 106960, Note_on_c, 1, 76, 127
2, 107000, Note_off_c, 1, 76, 0
2, 107040, Note_on_c, 1, 76, 127
2, 107080, Note_off_c, 1, 76, 0
2, 107160, Note_on_c, 1, 76, 127
2, 107200, Note_off_c, 1, 76, 0
2, 107240, Note_on_c, 1, 73, 127
2, 107320, Note_off_c, 1, 51, 0
2, 107320, Note_off_c, 1, 63, 0
2, 107320, Note_off_c, 1, 73, 0
2, 107360, Note_on_c, 1, 59, 127
2, 107360, Note_on_c, 1, 71, 127
2, 107360, Note_on_c, 1, 75, 127
2, 107400, Note_off_c, 1, 71, 0
2, 107400, Note_on_c, 1, 74, 127
2, 107400, Note_off_c, 1, 75, 0
2, 107440, Note_on_c, 1, 71, 127
2, 107440, Note_off_c, 1, 74, 0
2, 107440, Note_on_c, 1, 75, 127
2, 107520, Note_off_c, 1, 71, 0
2, 107520, Note_off_c, 1, 75, 0
2, 107560, Note_on_c, 1, 79, 127
2, 107600, Note_off_c, 1, 79, 0
2, 107640, Note_on_c, 1, 71, 127
2, 107640, Note_on_c, 1, 79, 127
2, 107720, Note_off_c, 1, 59, 0
2, 107720, Note_off_c, 1, 71, 0
2, 107720, Note_off_c, 1, 79, 0
2, 107800, Note_on_c, 1, 51, 127
2, 107800, Note_on_c, 1, 74, 127
2, 107800, Note_on_c, 1, 80, 127
2, 107960, Note_off_c, 1, 51, 0
2, 107960, Note_on_c, 1, 68, 127
2, 107960, Note_on_c, 1, 71, 127
2, 107960, Note_off_c, 1, 74, 0
2, 108160, Note_off_c, 1, 68, 0
2, 108160, Note_off_c, 1, 71, 0
2, 108160, Note_off_c, 1, 80, 0
2, 108200, Note_on_c, 1, 59, 127
2, 108200, Note_on_c, 1, 71, 127
2, 108200, Note_on_c, 1, 76, 127
2, 108200, Note_on_c, 1, 80, 127
2, 108360, Note_off_c, 1, 76, 0
2, 108360, Note_off_c, 1, 80, 0
2, 108400, Note_off_c, 1, 71, 0
2, 108400, Note_on_c, 1, 80, 127
2, 108400, Note_on_c, 1, 81, 127
2, 108560, Note_off_c, 1, 59, 0
2, 108560, Note_off_c, 1, 80, 0
2, 108560, Note_off_c, 1, 81, 0
2, 108600, Note_on_c, 1, 63, 127
2, 108600, Note_on_c, 1, 68, 127
2, 108600, Note_on_c, 1, 72, 127
2, 108600, Note_on_c, 1, 75, 127
2, 108600, Note_on_c, 1, 80, 127
2, 108760, Note_off_c, 1, 63, 0
2, 108760, Note_off_c, 1, 68, 0
2, 108760, Note_off_c, 1, 72, 0
2, 108760, Note_off_c, 1, 75, 0
2, 108760, Note_off_c, 1, 80, 0
2, 108800, Note_on_c, 1, 51, 127
2, 108800, Note_on_c, 1, 71, 127
2, 108800, Note_on_c, 1, 75, 127
2, 108800, Note_on_c, 1, 80, 127
2, 108960, Note_off_c, 1, 51, 0
2, 108960, Note_on_c, 1, 56, 127
2, 108960, Note_off_c, 1, 71, 0
2, 108960, Note_off_c, 1, 75, 0
2, 108960, Note_off_c, 1, 80, 0
2, 109000, Note_on_c, 1, 51, 127
2, 109000, Note_off_c, 1, 56, 0
2, 109000, Note_on_c, 1, 71, 127
2, 109000, Note_on_c, 1, 75, 127
2, 109000, Note_on_c, 1, 80, 127
2, 109160, Note_off_c, 1, 51, 0
2, 109160, Note_off_c, 1, 71, 0
2, 109160, Note_off_c, 1, 75, 0
2, 109160, Note_off_c, 1, 80, 0
2, 109200, Note_on_c, 1, 51, 127
2, 109200, Note_on_c, 1, 68, 127
2, 109200, Note_on_c, 1, 83, 127
2, 109240, Note_off_c, 1, 68, 0
2, 109240, Note_off_c, 1, 83, 0
2, 109280, Note_on_c, 1, 75, 127
2, 109360, Note_off_c, 1, 51, 0
2, 109360, Note_off_c, 1, 75, 0
2, 109400, Note_on_c, 1, 51, 127
2, 109400, Note_on_c, 1, 71, 127
2, 109400, Note_on_c, 1, 75, 127
2, 109400, Note_on_c, 1, 80, 127
2, 109440, Note_off_c, 1, 51, 0
2, 109480, Note_on_c, 1, 51, 127
2, 109560, Note_off_c, 1, 51, 0
2, 109600, Note_on_c, 1, 51, 127
2, 109640, Note_off_c, 1, 51, 0
2, 109680, Note_on_c, 1, 51, 127
2, 109760, Note_off_c, 1, 51, 0
2, 109760, Note_off_c, 1, 71, 0
2, 109760, Note_off_c, 1, 75, 0
2, 109760, Note_off_c, 1, 80, 0
2, 109800, Note_on_c, 1, 51, 127
2, 109800, Note_on_c, 1, 71, 127
2, 109800, Note_on_c, 1, 75, 127
2, 109800, Note_on_c, 1, 80, 127
2, 109840, Note_off_c, 1, 51, 0
2, 109840, Note_off_c, 1, 71, 0
2, 109840, Note_off_c, 1, 75, 0
2, 109840, Note_off_c, 1, 80, 0
2, 109880, Note_on_c, 1, 71, 127
2, 109880, Note_on_c, 1, 75, 127
2, 109880, Note_on_c, 1, 80, 127
2, 109920, Note_on_c, 1, 51, 127
2, 110000, Note_off_c, 1, 51, 0
2, 110040, Note_on_c, 1, 55, 127
2, 110040, Note_off_c, 1, 71, 0
2, 110040, Note_on_c, 1, 79, 127
2, 110040, Note_off_c, 1, 80, 0
2, 110040, Note_on_c, 1, 82, 127
2, 110040, Note_on_c, 1, 87, 127
2, 110080, Note_off_c, 1, 55, 0
2, 110080, Note_on_c, 1, 71, 127
2, 110080, Note_off_c, 1, 79, 0
2, 110080, Note_on_c, 1, 80, 127
2, 110080, Note_off_c, 1, 82, 0
2, 110080, Note_off_c, 1, 87, 0
2, 110120, Note_on_c, 1, 55, 127
2, 110120, Note_on_c, 1, 67, 127
2, 110120, Note_on_c, 1, 70, 127
2, 110120, Note_off_c, 1, 71, 0
2, 110120, Note_on_c, 1, 79, 127
2, 110120, Note_off_c, 1, 80, 0
2, 110200, Note_off_c, 1, 55, 0
2, 110200, Note_off_c, 1, 67, 0
2, 110200, Note_off_c, 1, 70, 0
2, 110200, Note_off_c, 1, 75, 0
2, 110200, Note_off_c, 1, 79, 0
2, 110240, Note_on_c, 1, 40, 127
2, 110240, Note_on_c, 1, 79, 127
2, 110240, Note_on_c, 1, 83, 127
2, 110400, Note_off_c, 1, 40, 0
2, 110440, Note_on_c, 1, 58, 127
2, 110440, Note_off_c, 1, 79, 0
2, 110440, Note_on_c, 1, 80, 127
2, 110440, Note_off_c, 1, 83, 0
2, 110440, Note_on_c, 1, 84, 127
2, 110600, Note_off_c, 1, 58, 0
2, 110600, Note_off_c, 1, 80, 0
2, 110600, Note_off_c, 1, 84, 0
2, 110640, Note_on_c, 1, 54, 127
2, 110640, Note_on_c, 1, 63, 127
2, 110640, Note_on_c, 1, 75, 127
2, 110640, Note_on_c, 1, 82, 127
2, 110640, Note_on_c, 1, 87, 127
2, 110800, Note_off_c, 1, 54, 0
2, 110800, Note_off_c, 1, 63, 0
2, 110840, Note_on_c, 1, 52, 127
2, 110840, Note_on_c, 1, 64, 127
2, 110840, Note_on_c, 1, 67, 127
2, 110840, Note_on_c, 1, 72, 127
2, 110840, Note_off_c, 1, 75, 0
2, 110840, Note_on_c, 1, 76, 127
2, 110840, Note_on_c, 1, 79, 127
2, 110840, Note_off_c, 1, 82, 0
2, 110840, Note_off_c, 1, 87, 0
2, 110960, Note_off_c, 1, 52, 0
2, 110960, Note_off_c, 1, 64, 0
2, 111000, Note_off_c, 1, 67, 0
2, 111000, Note_off_c, 1, 72, 0
2, 111000, Note_off_c, 1, 76, 0
2, 111000, Note_off_c, 1, 79, 0
2, 111040, Note_on_c, 1, 36, 127
2, 111040, Note_on_c, 1, 43, 127
2, 111040, Note_on_c, 1, 48, 127
2, 111040, Note_on_c, 1, 63, 127
2, 111040, Note_on_c, 1, 70, 127
2, 111040, Note_on_c, 1, 75, 127
2, 111400, Note_off_c, 1, 36, 0
2, 111400, Note_on_c, 1, 40, 127
2, 111400, Note_off_c, 1, 43, 0
2, 111400, Note_off_c, 1, 48, 0
2, 111400, Note_off_c, 1, 63, 0
2, 111400, Note_off_c, 1, 70, 0
2, 111400, Note_off_c, 1, 75, 0
2, 111440, Note_on_c, 1, 37, 127
2, 111440, Note_off_c, 1, 40, 0
2, 111440, Note_on_c, 1, 49, 127
2, 111440, Note_on_c, 1, 64, 127
2, 111440, Note_on_c, 1, 68, 127
2, 111440, Note_on_c, 1, 73, 127
2, 111440, Note_on_c, 1, 76, 127
2, 111800, Note_off_c, 1, 37, 0
2, 111800, Note_off_c, 1, 49, 0
2, 111800, Note_off_c, 1, 64, 0
2, 111800, Note_off_c, 1, 68, 0
2, 111800, Note_off_c, 1, 73, 0
2, 111800, Note_off_c, 1, 76, 0
2, 111840, Note_on_c, 1, 37, 127
2, 111840, Note_on_c, 1, 49, 127
2, 111840, Note_on_c, 1, 64, 127
2, 111840, Note_on_c, 1, 68, 127
2, 111840, Note_on_c, 1, 73, 127
2, 111840, Note_on_c, 1, 76, 127
2, 112000, Note_off_c, 1, 37, 0
2, 112000, Note_off_c, 1, 49, 0
2, 112000, Note_off_c, 1, 64, 0
2, 112000, Note_off_c, 1, 68, 0
2, 112000, Note_off_c, 1, 73, 0
2, 112000, Note_off_c, 1, 76, 0
2, 112040, Note_on_c, 1, 37, 127
2, 112040, Note_on_c, 1, 49, 127
2, 112040, Note_on_c, 1, 64, 127
2, 112040, Note_on_c, 1, 68, 127
2, 112040, Note_on_c, 1, 73, 127
2, 112040, Note_on_c, 1, 76, 127
2, 112240, Note_off_c, 1, 37, 0
2, 112240, Note_off_c, 1, 49, 0
2, 112240, Note_off_c, 1, 64, 0
2, 112240, Note_off_c, 1, 68, 0
2, 112240, Note_off_c, 1, 73, 0
2, 112240, Note_off_c, 1, 76, 0
2, 112280, Note_on_c, 1, 34, 127
2, 112280, Note_on_c, 1, 46, 127
2, 112280, Note_on_c, 1, 79, 127
2, 112280, Note_on_c, 1, 85, 127
2, 112280, Note_on_c, 1, 91, 127
2, 112440, Note_off_c, 1, 34, 0
2, 112440, Note_off_c, 1, 46, 0
2, 112480, Note_on_c, 1, 41, 127
2, 112480, Note_on_c, 1, 53, 127
2, 112480, Note_on_c, 1, 60, 127
2, 112480, Note_on_c, 1, 72, 127
2, 112480, Note_off_c, 1, 79, 0
2, 112480, Note_on_c, 1, 81, 127
2, 112480, Note_off_c, 1, 85, 0
2, 112480, Note_off_c, 1, 91, 0
2, 112480, Note_on_c, 1, 93, 127
2, 112640, Note_off_c, 1, 41, 0
2, 112640, Note_off_c, 1, 53, 0
2, 112640, Note_off_c, 1, 60, 0
2, 112640, Note_off_c, 1, 72, 0
2, 112640, Note_off_c, 1, 81, 0
2, 112640, Note_off_c, 1, 93, 0
2, 112680, Note_on_c, 1, 41, 127
2, 112680, Note_on_c, 1, 53, 127
2, 112680, Note_on_c, 1, 57, 127
2, 112680, Note_on_c, 1, 77, 127
2, 112680, Note_on_c, 1, 81, 127
2, 112680, Note_on_c, 1, 93, 127
2, 113040, Note_off_c, 1, 41, 0
2, 113040, Note_off_c, 1, 53, 0
2, 113040, Note_off_c, 1, 57, 0
2, 113040, Note_off_c, 1, 77, 0
2, 113040, Note_off_c, 1, 81, 0
2, 113040, Note_off_c, 1, 93, 0
2, 113080, Note_on_c, 1, 35, 127
2, 113080, Note_on_c, 1, 71, 127
2, 113080, Note_on_c, 1, 79, 127
2, 113080, Note_on_c, 1, 83, 127
2, 113240, Note_off_c, 1, 35, 0
2, 113280, Note_on_c, 1, 35, 127
2, 113400, Note_off_c, 1, 35, 0
2, 113480, Note_on_c, 1, 47, 127
2, 113600, Note_off_c, 1, 71, 0
2, 113600, Note_off_c, 1, 79, 0
2, 113600, Note_off_c, 1, 83, 0
2, 113640, Note_off_c, 1, 47, 0
2, 113680, Note_on_c, 1, 64, 127
2, 113680, Note_on_c, 1, 69, 127
2, 113680, Note_on_c, 1, 91, 127
2, 113840, Note_off_c, 1, 64, 0
2, 113840, Note_off_c, 1, 69, 0
2, 113840, Note_off_c, 1, 91, 0
2, 113880, Note_on_c, 1, 63, 127
2, 113880, Note_on_c, 1, 66, 127
2, 113880, Note_on_c, 1, 82, 127
2, 113880, Note_on_c, 1, 87, 127
2, 113880, Note_on_c, 1, 90, 127
2, 114040, Note_off_c, 1, 63, 0
2, 114040, Note_off_c, 1, 66, 0
2, 114080, Note_on_c, 1, 63, 127
2, 114080, Note_on_c, 1, 66, 127
2, 114120, Note_off_c, 1, 63, 0
2, 114120, Note_off_c, 1, 66, 0
2, 114120, Note_off_c, 1, 82, 0
2, 114120, Note_off_c, 1, 87, 0
2, 114120, Note_off_c, 1, 90, 0
2, 114160, Note_on_c, 1, 63, 127
2, 114160, Note_on_c, 1, 66, 127
2, 114160, Note_on_c, 1, 82, 127
2, 114160, Note_on_c, 1, 87, 127
2, 114160, Note_on_c, 1, 90, 127
2, 114280, Note_off_c, 1, 63, 0
2, 114280, Note_off_c, 1, 66, 0
2, 114480, Note_off_c, 1, 82, 0
2, 114480, Note_off_c, 1, 87, 0
2, 114480, Note_off_c, 1, 90, 0
2, 114520, Note_on_c, 1, 64, 127
2, 114520, Note_on_c, 1, 80, 127
2, 114520, Note_on_c, 1, 88, 127
2, 114680, Note_off_c, 1, 64, 0
2, 114680, Note_off_c, 1, 80, 0
2, 114680, Note_off_c, 1, 88, 0
2, 114720, Note_on_c, 1, 64, 127
2, 114720, Note_on_c, 1, 80, 127
2, 114720, Note_on_c, 1, 88, 127
2, 114880, Note_off_c, 1, 64, 0
2, 114880, Note_off_c, 1, 80, 0
2, 114880, Note_off_c, 1, 88, 0
2, 114920, Note_on_c, 1, 71, 127
2, 114920, Note_on_c, 1, 75, 127
2, 114920, Note_on_c, 1, 90, 127
2, 115080, Note_off_c, 1, 71, 0
2, 115080, Note_off_c, 1, 75, 0
2, 115080, Note_off_c, 1, 90, 0
2, 115120, Note_on_c, 1, 71, 127
2, 115120, Note_on_c, 1, 75, 127
2, 115120, Note_on_c, 1, 90, 127
2, 115280, Note_off_c, 1, 71, 0
2, 115280, Note_off_c, 1, 75, 0
2, 115280, Note_off_c, 1, 90, 0
2, 115320, Note_on_c, 1, 71, 127
2, 115320, Note_on_c, 1, 75, 127
2, 115320, Note_on_c, 1, 80, 127
2, 115680, Note_off_c, 1, 71, 0
2, 115680, Note_off_c, 1, 75, 0
2, 115680, Note_off_c, 1, 80, 0
2, 115720, Note_on_c, 1, 59, 127
2, 115720, Note_on_c, 1, 63, 127
2, 115720, Note_on_c, 1, 78, 127
2, 115720, Note_on_c, 1, 83, 127
2, 115880, Note_off_c, 1, 63, 0
2, 115880, Note_off_c, 1, 78, 0
2, 115880, Note_off_c, 1, 83, 0
2, 115920, Note_on_c, 1, 56, 127
2, 115920, Note_on_c, 1, 68, 127
2, 115920, Note_on_c, 1, 71, 127
2, 116080, Note_off_c, 1, 56, 0
2, 116080, Note_off_c, 1, 59, 0
2, 116080, Note_off_c, 1, 68, 0
2, 116080, Note_off_c, 1, 71, 0
2, 116120, Note_on_c, 1, 59, 127
2, 116120, Note_on_c, 1, 66, 127
2, 116120, Note_on_c, 1, 71, 127
2, 116120, Note_on_c, 1, 75, 127
2, 116360, Note_off_c, 1, 59, 0
2, 116360, Note_off_c, 1, 66, 0
2, 116360, Note_off_c, 1, 71, 0
2, 116360, Note_off_c, 1, 75, 0
2, 116400, Note_on_c, 1, 59, 127
2, 116400, Note_on_c, 1, 66, 127
2, 116400, Note_on_c, 1, 71, 127
2, 116400, Note_on_c, 1, 75, 127
2, 116520, Note_off_c, 1, 59, 0
2, 116520, Note_off_c, 1, 66, 0
2, 116520, Note_off_c, 1, 71, 0
2, 116520, Note_off_c, 1, 75, 0
2, 116560, Note_on_c, 1, 54, 127
2, 116560, Note_on_c, 1, 66, 127
2, 116560, Note_on_c, 1, 68, 127
2, 116560, Note_on_c, 1, 71, 127
2, 116720, Note_off_c, 1, 54, 0
2, 116720, Note_off_c, 1, 68, 0
2, 116760, Note_on_c, 1, 59, 127
2, 116760, Note_on_c, 1, 75, 127
2, 116920, Note_off_c, 1, 59, 0
2, 116920, Note_off_c, 1, 66, 0
2, 116920, Note_off_c, 1, 71, 0
2, 116920, Note_off_c, 1, 75, 0
2, 116960, Note_on_c, 1, 56, 127
2, 116960, Note_on_c, 1, 64, 127
2, 116960, Note_on_c, 1, 70, 127
2, 116960, Note_on_c, 1, 73, 127
2, 117120, Note_off_c, 1, 64, 0
2, 117160, Note_on_c, 1, 54, 127
2, 117160, Note_off_c, 1, 56, 0
2, 117160, Note_on_c, 1, 64, 127
2, 117320, Note_off_c, 1, 54, 0
2, 117320, Note_off_c, 1, 64, 0
2, 117320, Note_off_c, 1, 70, 0
2, 117320, Note_off_c, 1, 73, 0
2, 117360, Note_on_c, 1, 54, 127
2, 117360, Note_on_c, 1, 63, 127
2, 117360, Note_on_c, 1, 71, 127
2, 117360, Note_on_c, 1, 78, 127
2, 117520, Note_off_c, 1, 63, 0
2, 117520, Note_off_c, 1, 78, 0
2, 117560, Note_on_c, 1, 63, 127
2, 117560, Note_on_c, 1, 78, 127
2, 117720, Note_off_c, 1, 54, 0
2, 117720, Note_off_c, 1, 63, 0
2, 117720, Note_off_c, 1, 71, 0
2, 117720, Note_off_c, 1, 78, 0
2, 117760, Note_on_c, 1, 54, 127
2, 117760, Note_on_c, 1, 71, 127
2, 117760, Note_on_c, 1, 75, 127
2, 117760, Note_on_c, 1, 78, 127
2, 118120, Note_off_c, 1, 75, 0
2, 118120, Note_off_c, 1, 78, 0
2, 118160, Note_on_c, 1, 63, 127
2, 118160, Note_on_c, 1, 66, 127
2, 118160, Note_on_c, 1, 75, 127
2, 118520, Note_off_c, 1, 54, 0
2, 118520, Note_off_c, 1, 63, 0
2, 118520, Note_off_c, 1, 66, 0
2, 118520, Note_off_c, 1, 71, 0
2, 118520, Note_off_c, 1, 75, 0
2, 118600, Note_on_c, 1, 53, 127
2, 118600, Note_on_c, 1, 73, 127
2, 118600, Note_on_c, 1, 79, 127
2, 118600, Note_on_c, 1, 82, 127
2, 118720, Note_off_c, 1, 53, 0
2, 119000, Note_on_c, 1, 56, 127
2, 119000, Note_on_c, 1, 65, 127
2, 119000, Note_off_c, 1, 82, 0
2, 119000, Note_on_c, 1, 84, 127
2, 119360, Note_off_c, 1, 56, 0
2, 119360, Note_off_c, 1, 65, 0
2, 119360, Note_on_c, 1, 68, 127
2, 119360, Note_off_c, 1, 73, 0
2, 119360, Note_on_c, 1, 74, 127
2, 119360, Note_off_c, 1, 79, 0
2, 119360, Note_on_c, 1, 80, 127
2, 119360, Note_off_c, 1, 84, 0
2, 119400, Note_on_c, 1, 56, 127
2, 119400, Note_on_c, 1, 65, 127
2, 119400, Note_off_c, 1, 68, 0
2, 119400, Note_on_c, 1, 73, 127
2, 119400, Note_off_c, 1, 74, 0
2, 119400, Note_on_c, 1, 79, 127
2, 119400, Note_off_c, 1, 80, 0
2, 119400, Note_on_c, 1, 84, 127
2, 119760, Note_off_c, 1, 56, 0
2, 119760, Note_off_c, 1, 65, 0
2, 119760, Note_off_c, 1, 84, 0
2, 119800, Note_on_c, 1, 72, 127
2, 119800, Note_off_c, 1, 73, 0
2, 119800, Note_on_c, 1, 77, 127
2, 119800, Note_off_c, 1, 79, 0
2, 119800, Note_on_c, 1, 89, 127
2, 119800, Note_on_c, 1, 93, 127
2, 120000, Note_off_c, 1, 72, 0
2, 120000, Note_off_c, 1, 77, 0
2, 120000, Note_off_c, 1, 89, 0
2, 120000, Note_off_c, 1, 93, 0
2, 120040, End_track
3, 0, Start_track
3, 0, Title_t, "MIDI"
3, 1536, End_track
0, 0, End_of_file
