0, 0, Header, 1, 3, 192
1, 0, Start_track
1, 0, Time_signature, 4, 2, 24, 8
1, 0, Tempo, 500000
1, 120040, End_track
2, 0, Start_track
2, 0, Text_t, "random instrument: random person i dunno whatev"
2, 0, Title_t, "Track 1"
2, 0, Note_on_c, 1, 50, 127
2, 0, Note_on_c, 1, 57, 127
2, 0, Note_on_c, 1, 65, 127
2, 0, Note_on_c, 1, 69, 127
2, 0, Note_on_c, 1, 74, 127
2, 0, Note_on_c, 1, 77, 127
2, 0, Note_on_c, 1, 81, 127
2, 80, Note_off_c, 1, 50, 0
2, 80, Note_off_c, 1, 57, 0
2, 80, Note_off_c, 1, 65, 0
2, 80, Note_off_c, 1, 69, 0
2, 80, Note_off_c, 1, 74, 0
2, 80, Note_off_c, 1, 77, 0
2, 80, Note_off_c, 1, 81, 0
2, 120, Note_on_c, 1, 50, 127
2, 120, Note_on_c, 1, 57, 127
2, 120, Note_on_c, 1, 65, 127
2, 120, Note_on_c, 1, 69, 127
2, 120, Note_on_c, 1, 74, 127
2, 120, Note_on_c, 1, 77, 127
2, 120, Note_on_c, 1, 81, 127
2, 360, Note_off_c, 1, 50, 0
2, 360, Note_off_c, 1, 57, 0
2, 360, Note_off_c, 1, 65, 0
2, 360, Note_off_c, 1, 69, 0
2, 360, Note_off_c, 1, 74, 0
2, 360, Note_off_c, 1, 77, 0
2, 360, Note_off_c, 1, 81, 0
2, 400, Note_on_c, 1, 47, 127
2, 400, Note_on_c, 1, 59, 127
2, 400, Note_on_c, 1, 66, 127
2, 400, Note_on_c, 1, 71, 127
2, 400, Note_on_c, 1, 74, 127
2, 800, Note_off_c, 1, 47, 0
2, 800, Note_off_c, 1, 59, 0
2, 800, Note_off_c, 1, 66, 0
2, 800, Note_off_c, 1, 71, 0
2, 800, Note_off_c, 1, 74, 0
2, 840, Note_on_c, 1, 47, 127
2, 840, Note_on_c, 1, 63, 127
2, 840, Note_on_c, 1, 66, 127
2, 840, Note_on_c, 1, 71, 127
2, 960, Note_off_c, 1, 47, 0
2, 960, Note_off_c, 1, 63, 0
2, 960, Note_off_c, 1, 66, 0
2, 960, Note_off_c, 1, 71, 0
2, 3840, Note_on_c, 1, 59, 127
2, 3840, Note_on_c, 1, 64, 127
2, 3840, Note_on_c, 1, 68, 127
2, 3960, Note_off_c, 1, 59, 0
2, 3960, Note_off_c, 1, 64, 0
2, 3960, Note_off_c, 1, 68, 0
2, 4280, Note_on_c, 1, 61, 127
2, 4280, Note_on_c, 1, 64, 127
2, 4280, Note_on_c, 1, 68, 127
2, 4320, Note_off_c, 1, 61, 0
2, 4320, Note_off_c, 1, 64, 0
2, 4320, Note_off_c, 1, 68, 0
2, 4520, Note_on_c, 1, 61, 127
2, 4520, Note_on_c, 1, 64, 127
2, 4520, Note_on_c, 1, 71, 127
2, 4560, Note_off_c, 1, 61, 0
2, 4560, Note_off_c, 1, 64, 0
2, 4560, Note_off_c, 1, 71, 0
2, 4800, Note_on_c, 1, 47, 127
2, 4800, Note_on_c, 1, 73, 127
2, 4800, Note_on_c, 1, 81, 127
2, 4840, Note_off_c, 1, 47, 0
2, 4840, Note_off_c, 1, 73, 0
2, 4840, Note_off_c, 1, 81, 0
2, 5840, Note_on_c, 1, 64, 127
2, 5840, Note_on_c, 1, 88, 127
2, 6520, Note_off_c, 1, 64, 0
2, 6520, Note_off_c, 1, 88, 0
2, 6560, Note_on_c, 1, 62, 127
2, 6560, Note_on_c, 1, 86, 127
2, 7040, Note_off_c, 1, 62, 0
2, 7040, Note_off_c, 1, 86, 0
2, 7080, Note_on_c, 1, 64, 127
2, 7080, Note_on_c, 1, 88, 127
2, 7200, Note_off_c, 1, 64, 0
2, 7200, Note_off_c, 1, 88, 0
2, 7240, Note_on_c, 1, 62, 127
2, 7240, Note_on_c, 1, 86, 127
2, 7360, Note_off_c, 1, 62, 0
2, 7360, Note_off_c, 1, 86, 0
2, 7440, Note_on_c, 1, 67, 127
2, 7440, Note_on_c, 1, 91, 127
2, 7880, Note_on_c, 1, 64, 127
2, 7880, Note_off_c, 1, 67, 0
2, 7880, Note_on_c, 1, 88, 127
2, 7880, Note_off_c, 1, 91, 0
2, 7920, Note_off_c, 1, 64, 0
2, 7920, Note_on_c, 1, 67, 127
2, 7920, Note_off_c, 1, 88, 0
2, 7920, Note_on_c, 1, 91, 127
2, 8160, Note_on_c, 1, 65, 127
2, 8160, Note_off_c, 1, 67, 0
2, 8160, Note_on_c, 1, 89, 127
2, 8160, Note_off_c, 1, 91, 0
2, 8200, Note_on_c, 1, 64, 127
2, 8200, Note_off_c, 1, 65, 0
2, 8200, Note_on_c, 1, 88, 127
2, 8200, Note_off_c, 1, 89, 0
2, 8480, Note_off_c, 1, 64, 0
2, 8480, Note_off_c, 1, 88, 0
2, 8520, Note_on_c, 1, 62, 127
2, 8520, Note_on_c, 1, 86, 127
2, 9040, Note_off_c, 1, 62, 0
2, 9040, Note_off_c, 1, 86, 0
2, 9080, Note_on_c, 1, 60, 127
2, 9080, Note_on_c, 1, 84, 127
2, 9480, Note_off_c, 1, 60, 0
2, 9480, Note_off_c, 1, 84, 0
2, 9520, Note_on_c, 1, 60, 127
2, 9520, Note_on_c, 1, 84, 127
2, 9800, Note_off_c, 1, 84, 0
2, 9840, Note_on_c, 1, 84, 127
2, 10800, Note_off_c, 1, 60, 0
2, 10800, Note_on_c, 1, 64, 127
2, 10800, Note_off_c, 1, 84, 0
2, 10800, Note_on_c, 1, 88, 127
2, 11360, Note_off_c, 1, 64, 0
2, 11360, Note_off_c, 1, 88, 0
2, 11440, Note_on_c, 1, 67, 127
2, 11440, Note_on_c, 1, 91, 127
2, 11960, Note_off_c, 1, 67, 0
2, 11960, Note_off_c, 1, 91, 0
2, 12000, Note_on_c, 1, 64, 127
2, 12000, Note_on_c, 1, 88, 127
2, 12240, Note_off_c, 1, 64, 0
2, 12240, Note_off_c, 1, 88, 0
2, 12280, Note_on_c, 1, 62, 127
2, 12280, Note_on_c, 1, 86, 127
2, 13080, Note_off_c, 1, 62, 0
2, 13080, Note_off_c, 1, 86, 0
2, 13120, Note_on_c, 1, 60, 127
2, 13120, Note_on_c, 1, 84, 127
2, 13480, Note_off_c, 1, 60, 0
2, 13480, Note_off_c, 1, 84, 0
2, 13520, Note_on_c, 1, 60, 127
2, 13520, Note_on_c, 1, 84, 127
2, 15120, Note_off_c, 1, 60, 0
2, 15120, Note_off_c, 1, 84, 0
2, 15160, Note_on_c, 1, 59, 127
2, 15160, Note_on_c, 1, 83, 127
2, 15240, Note_off_c, 1, 59, 0
2, 15240, Note_off_c, 1, 83, 0
2, 15280, Note_on_c, 1, 60, 127
2, 15280, Note_on_c, 1, 84, 127
2, 15520, Note_off_c, 1, 60, 0
2, 15520, Note_off_c, 1, 84, 0
2, 15560, Note_on_c, 1, 60, 127
2, 15560, Note_on_c, 1, 84, 127
2, 17640, Note_off_c, 1, 60, 0
2, 17640, Note_off_c, 1, 84, 0
2, 17680, Note_on_c, 1, 60, 127
2, 17680, Note_on_c, 1, 84, 127
2, 18800, Note_off_c, 1, 60, 0
2, 18800, Note_off_c, 1, 84, 0
2, 18840, Note_on_c, 1, 62, 127
2, 18840, Note_on_c, 1, 86, 127
2, 19760, Note_off_c, 1, 62, 0
2, 19760, Note_off_c, 1, 86, 0
2, 19800, Note_on_c, 1, 62, 127
2, 19800, Note_on_c, 1, 86, 127
2, 20520, Note_off_c, 1, 62, 0
2, 20520, Note_off_c, 1, 86, 0
2, 20560, Note_on_c, 1, 60, 127
2, 20560, Note_on_c, 1, 84, 127
2, 21400, Note_off_c, 1, 60, 0
2, 21400, Note_off_c, 1, 84, 0
2, 21440, Note_on_c, 1, 62, 127
2, 21440, Note_on_c, 1, 86, 127
2, 22000, Note_off_c, 1, 62, 0
2, 22000, Note_off_c, 1, 86, 0
2, 22040, Note_on_c, 1, 62, 127
2, 22040, Note_on_c, 1, 86, 127
2, 24280, Note_off_c, 1, 62, 0
2, 24280, Note_off_c, 1, 86, 0
2, 24320, Note_on_c, 1, 64, 127
2, 24320, Note_on_c, 1, 88, 127
2, 24560, Note_off_c, 1, 64, 0
2, 24560, Note_off_c, 1, 88, 0
2, 24600, Note_on_c, 1, 64, 127
2, 24600, Note_on_c, 1, 88, 127
2, 24640, Note_off_c, 1, 64, 0
2, 24640, Note_off_c, 1, 88, 0
2, 24680, Note_on_c, 1, 62, 127
2, 24680, Note_on_c, 1, 86, 127
2, 24920, Note_off_c, 1, 62, 0
2, 24920, Note_off_c, 1, 86, 0
2, 24960, Note_on_c, 1, 60, 127
2, 24960, Note_on_c, 1, 84, 127
2, 25240, Note_off_c, 1, 60, 0
2, 25240, Note_off_c, 1, 84, 0
2, 25280, Note_on_c, 1, 62, 127
2, 25280, Note_on_c, 1, 86, 127
2, 25520, Note_off_c, 1, 62, 0
2, 25520, Note_off_c, 1, 86, 0
2, 25560, Note_on_c, 1, 60, 127
2, 25560, Note_on_c, 1, 84, 127
2, 25840, Note_off_c, 1, 60, 0
2, 25840, Note_off_c, 1, 84, 0
2, 25880, Note_on_c, 1, 60, 127
2, 25880, Note_on_c, 1, 84, 127
2, 26120, Note_off_c, 1, 60, 0
2, 26120, Note_off_c, 1, 84, 0
2, 26160, Note_on_c, 1, 53, 127
2, 26160, Note_on_c, 1, 87, 127
2, 26400, Note_off_c, 1, 53, 0
2, 26400, Note_off_c, 1, 87, 0
2, 26440, Note_on_c, 1, 61, 127
2, 26440, Note_on_c, 1, 85, 127
2, 26480, Note_off_c, 1, 85, 0
2, 26520, Note_on_c, 1, 85, 127
2, 26560, Note_off_c, 1, 61, 0
2, 26560, Note_off_c, 1, 85, 0
2, 26600, Note_on_c, 1, 61, 127
2, 26600, Note_on_c, 1, 85, 127
2, 26680, Note_off_c, 1, 85, 0
2, 26720, Note_on_c, 1, 60, 127
2, 26720, Note_off_c, 1, 61, 0
2, 26720, Note_on_c, 1, 84, 127
2, 26760, Note_off_c, 1, 60, 0
2, 26760, Note_off_c, 1, 84, 0
2, 26800, Note_on_c, 1, 58, 127
2, 26800, Note_on_c, 1, 82, 127
2, 26920, Note_off_c, 1, 82, 0
2, 26960, Note_off_c, 1, 58, 0
2, 26960, Note_on_c, 1, 60, 127
2, 26960, Note_on_c, 1, 84, 127
2, 27040, Note_off_c, 1, 60, 0
2, 27040, Note_off_c, 1, 84, 0
2, 27080, Note_on_c, 1, 58, 127
2, 27080, Note_on_c, 1, 82, 127
2, 27160, Note_off_c, 1, 82, 0
2, 27200, Note_on_c, 1, 82, 127
2, 27320, Note_off_c, 1, 58, 0
2, 27320, Note_off_c, 1, 82, 0
2, 27360, Note_on_c, 1, 60, 127
2, 27360, Note_on_c, 1, 84, 127
2, 27640, Note_off_c, 1, 60, 0
2, 27640, Note_off_c, 1, 84, 0
2, 27680, Note_on_c, 1, 53, 127
2, 27680, Note_on_c, 1, 82, 127
2, 27720, Note_on_c, 1, 77, 127
2, 27720, Note_off_c, 1, 82, 0
2, 27760, Note_off_c, 1, 53, 0
2, 27760, Note_off_c, 1, 77, 0
2, 27800, Note_on_c, 1, 57, 127
2, 27800, Note_on_c, 1, 81, 127
2, 27920, Note_off_c, 1, 57, 0
2, 27920, Note_off_c, 1, 81, 0
2, 27960, Note_on_c, 1, 53, 127
2, 27960, Note_on_c, 1, 77, 127
2, 28040, Note_off_c, 1, 53, 0
2, 28040, Note_off_c, 1, 77, 0
2, 28080, Note_on_c, 1, 53, 127
2, 28080, Note_on_c, 1, 77, 127
2, 28200, Note_off_c, 1, 53, 0
2, 28200, Note_off_c, 1, 77, 0
2, 28240, Note_on_c, 1, 58, 127
2, 28240, Note_on_c, 1, 82, 127
2, 28360, Note_off_c, 1, 58, 0
2, 28360, Note_off_c, 1, 82, 0
2, 28400, Note_on_c, 1, 65, 127
2, 28400, Note_on_c, 1, 89, 127
2, 28520, Note_off_c, 1, 65, 0
2, 28520, Note_off_c, 1, 89, 0
2, 28600, Note_on_c, 1, 53, 127
2, 28600, Note_on_c, 1, 77, 127
2, 28680, Note_off_c, 1, 53, 0
2, 28680, Note_off_c, 1, 77, 0
2, 28720, Note_on_c, 1, 65, 127
2, 28720, Note_on_c, 1, 89, 127
2, 28840, Note_off_c, 1, 65, 0
2, 28840, Note_off_c, 1, 89, 0
2, 28880, Note_on_c, 1, 60, 127
2, 28880, Note_on_c, 1, 84, 127
2, 29000, Note_off_c, 1, 60, 0
2, 29000, Note_off_c, 1, 84, 0
2, 29040, Note_on_c, 1, 65, 127
2, 29040, Note_on_c, 1, 89, 127
2, 29160, Note_off_c, 1, 65, 0
2, 29160, Note_off_c, 1, 89, 0
2, 29200, Note_on_c, 1, 63, 127
2, 29200, Note_on_c, 1, 87, 127
2, 29280, Note_off_c, 1, 63, 0
2, 29280, Note_off_c, 1, 87, 0
2, 29320, Note_on_c, 1, 65, 127
2, 29320, Note_on_c, 1, 89, 127
2, 29440, Note_off_c, 1, 65, 0
2, 29440, Note_off_c, 1, 89, 0
2, 29480, Note_on_c, 1, 60, 127
2, 29480, Note_on_c, 1, 84, 127
2, 29600, Note_off_c, 1, 60, 0
2, 29600, Note_off_c, 1, 84, 0
2, 29640, Note_on_c, 1, 63, 127
2, 29640, Note_on_c, 1, 87, 127
2, 29760, Note_off_c, 1, 63, 0
2, 29760, Note_off_c, 1, 87, 0
2, 29800, Note_on_c, 1, 53, 127
2, 29800, Note_on_c, 1, 77, 127
2, 29880, Note_off_c, 1, 53, 0
2, 29880, Note_off_c, 1, 77, 0
2, 29920, Note_on_c, 1, 65, 127
2, 29920, Note_on_c, 1, 89, 127
2, 30040, Note_off_c, 1, 65, 0
2, 30040, Note_off_c, 1, 89, 0
2, 30080, Note_on_c, 1, 53, 127
2, 30080, Note_on_c, 1, 77, 127
2, 30200, Note_off_c, 1, 53, 0
2, 30200, Note_off_c, 1, 77, 0
2, 30240, Note_on_c, 1, 65, 127
2, 30240, Note_on_c, 1, 89, 127
2, 30360, Note_off_c, 1, 65, 0
2, 30360, Note_off_c, 1, 89, 0
2, 30400, Note_on_c, 1, 58, 127
2, 30400, Note_on_c, 1, 82, 127
2, 30480, Note_off_c, 1, 58, 0
2, 30480, Note_off_c, 1, 82, 0
2, 30520, Note_on_c, 1, 60, 127
2, 30520, Note_on_c, 1, 84, 127
2, 30640, Note_off_c, 1, 60, 0
2, 30640, Note_off_c, 1, 84, 0
2, 30680, Note_on_c, 1, 41, 127
2, 30680, Note_on_c, 1, 53, 127
2, 30680, Note_on_c, 1, 65, 127
2, 30800, Note_off_c, 1, 41, 0
2, 30800, Note_off_c, 1, 53, 0
2, 30800, Note_off_c, 1, 65, 0
2, 30840, Note_on_c, 1, 41, 127
2, 30840, Note_on_c, 1, 53, 127
2, 30840, Note_on_c, 1, 65, 127
2, 31000, Note_off_c, 1, 41, 0
2, 31000, Note_off_c, 1, 53, 0
2, 31000, Note_off_c, 1, 65, 0
2, 31040, Note_on_c, 1, 50, 127
2, 31040, Note_on_c, 1, 62, 127
2, 31040, Note_on_c, 1, 74, 127
2, 31600, Note_off_c, 1, 50, 0
2, 31600, Note_off_c, 1, 62, 0
2, 31600, Note_off_c, 1, 74, 0
2, 31640, Note_on_c, 1, 46, 127
2, 31640, Note_on_c, 1, 58, 127
2, 31640, Note_on_c, 1, 70, 127
2, 31880, Note_off_c, 1, 46, 0
2, 31880, Note_off_c, 1, 58, 0
2, 31880, Note_off_c, 1, 70, 0
2, 31920, Note_on_c, 1, 46, 127
2, 31920, Note_on_c, 1, 58, 127
2, 31920, Note_on_c, 1, 70, 127
2, 32200, Note_off_c, 1, 46, 0
2, 32200, Note_off_c, 1, 58, 0
2, 32200, Note_off_c, 1, 70, 0
2, 32240, Note_on_c, 1, 41, 127
2, 32240, Note_on_c, 1, 53, 127
2, 32240, Note_on_c, 1, 65, 127
2, 32760, Note_off_c, 1, 41, 0
2, 32760, Note_off_c, 1, 53, 0
2, 32760, Note_off_c, 1, 65, 0
2, 32800, Note_on_c, 1, 50, 127
2, 32800, Note_on_c, 1, 62, 127
2, 32800, Note_on_c, 1, 74, 127
2, 32880, Note_off_c, 1, 50, 0
2, 32880, Note_off_c, 1, 62, 0
2, 32880, Note_off_c, 1, 74, 0
2, 32920, Note_on_c, 1, 50, 127
2, 32920, Note_on_c, 1, 62, 127
2, 32920, Note_on_c, 1, 74, 127
2, 33640, Note_off_c, 1, 50, 0
2, 33640, Note_off_c, 1, 62, 0
2, 33640, Note_off_c, 1, 74, 0
2, 33680, Note_on_c, 1, 46, 127
2, 33680, Note_on_c, 1, 58, 127
2, 33680, Note_on_c, 1, 70, 127
2, 33960, Note_off_c, 1, 46, 0
2, 33960, Note_off_c, 1, 58, 0
2, 33960, Note_off_c, 1, 70, 0
2, 34000, Note_on_c, 1, 41, 127
2, 34000, Note_on_c, 1, 53, 127
2, 34000, Note_on_c, 1, 65, 127
2, 34520, Note_off_c, 1, 41, 0
2, 34520, Note_off_c, 1, 53, 0
2, 34520, Note_off_c, 1, 65, 0
2, 34560, Note_on_c, 1, 50, 127
2, 34560, Note_on_c, 1, 55, 127
2, 34560, Note_on_c, 1, 60, 127
2, 34560, Note_on_c, 1, 63, 127
2, 34600, Note_off_c, 1, 50, 0
2, 34600, Note_off_c, 1, 55, 0
2, 34600, Note_off_c, 1, 60, 0
2, 34600, Note_off_c, 1, 63, 0
2, 34640, Note_on_c, 1, 51, 127
2, 34640, Note_on_c, 1, 55, 127
2, 34720, Note_off_c, 1, 51, 0
2, 34720, Note_on_c, 1, 60, 127
2, 34720, Note_on_c, 1, 63, 127
2, 34760, Note_on_c, 1, 51, 127
2, 34760, Note_off_c, 1, 60, 0
2, 34760, Note_off_c, 1, 63, 0
2, 34800, Note_off_c, 1, 51, 0
2, 34800, Note_on_c, 1, 60, 127
2, 34800, Note_on_c, 1, 63, 127
2, 34840, Note_off_c, 1, 55, 0
2, 34840, Note_off_c, 1, 60, 0
2, 34840, Note_off_c, 1, 63, 0
2, 34920, Note_on_c, 1, 51, 127
2, 34920, Note_on_c, 1, 55, 127
2, 35160, Note_off_c, 1, 51, 0
2, 35160, Note_off_c, 1, 55, 0
2, 35200, Note_on_c, 1, 54, 127
2, 35200, Note_on_c, 1, 57, 127
2, 35440, Note_off_c, 1, 54, 0
2, 35440, Note_off_c, 1, 57, 0
2, 35480, Note_on_c, 1, 55, 127
2, 35480, Note_on_c, 1, 58, 127
2, 35760, Note_off_c, 1, 55, 0
2, 35760, Note_off_c, 1, 58, 0
2, 35800, Note_on_c, 1, 57, 127
2, 35800, Note_on_c, 1, 60, 127
2, 36040, Note_off_c, 1, 57, 0
2, 36040, Note_off_c, 1, 60, 0
2, 36080, Note_on_c, 1, 55, 127
2, 36080, Note_on_c, 1, 58, 127
2, 36360, Note_off_c, 1, 55, 0
2, 36360, Note_off_c, 1, 58, 0
2, 36400, Note_on_c, 1, 57, 127
2, 36400, Note_on_c, 1, 60, 127
2, 36640, Note_off_c, 1, 57, 0
2, 36640, Note_off_c, 1, 60, 0
2, 36680, Note_on_c, 1, 55, 127
2, 36680, Note_on_c, 1, 58, 127
2, 36920, Note_off_c, 1, 55, 0
2, 36920, Note_off_c, 1, 58, 0
2, 36960, Note_on_c, 1, 55, 127
2, 36960, Note_on_c, 1, 58, 127
2, 37000, Note_off_c, 1, 55, 0
2, 37000, Note_off_c, 1, 58, 0
2, 37040, Note_on_c, 1, 57, 127
2, 37040, Note_on_c, 1, 60, 127
2, 37280, Note_off_c, 1, 57, 0
2, 37280, Note_off_c, 1, 60, 0
2, 37320, Note_on_c, 1, 55, 127
2, 37320, Note_on_c, 1, 58, 127
2, 37600, Note_off_c, 1, 55, 0
2, 37600, Note_off_c, 1, 58, 0
2, 37640, Note_on_c, 1, 57, 127
2, 37640, Note_on_c, 1, 60, 127
2, 37920, Note_off_c, 1, 57, 0
2, 37920, Note_off_c, 1, 60, 0
2, 37960, Note_on_c, 1, 55, 127
2, 37960, Note_on_c, 1, 58, 127
2, 38200, Note_off_c, 1, 55, 0
2, 38200, Note_off_c, 1, 58, 0
2, 38240, Note_on_c, 1, 53, 127
2, 38240, Note_on_c, 1, 57, 127
2, 38520, Note_off_c, 1, 53, 0
2, 38520, Note_off_c, 1, 57, 0
2, 38560, Note_on_c, 1, 52, 127
2, 38560, Note_on_c, 1, 55, 127
2, 38800, Note_off_c, 1, 52, 0
2, 38800, Note_off_c, 1, 55, 0
2, 38840, Note_on_c, 1, 46, 127
2, 38840, Note_on_c, 1, 58, 127
2, 39120, Note_off_c, 1, 46, 0
2, 39120, Note_off_c, 1, 58, 0
2, 39200, Note_on_c, 1, 55, 127
2, 39200, Note_on_c, 1, 58, 127
2, 39440, Note_off_c, 1, 55, 0
2, 39440, Note_off_c, 1, 58, 0
2, 39480, Note_on_c, 1, 57, 127
2, 39480, Note_on_c, 1, 60, 127
2, 39720, Note_off_c, 1, 57, 0
2, 39720, Note_off_c, 1, 60, 0
2, 39760, Note_on_c, 1, 46, 127
2, 39760, Note_on_c, 1, 58, 127
2, 40040, Note_off_c, 1, 46, 0
2, 40040, Note_off_c, 1, 58, 0
2, 40080, Note_on_c, 1, 45, 127
2, 40080, Note_on_c, 1, 63, 127
2, 40080, Note_on_c, 1, 74, 127
2, 40320, Note_off_c, 1, 45, 0
2, 40320, Note_off_c, 1, 63, 0
2, 40320, Note_off_c, 1, 74, 0
2, 40360, Note_on_c, 1, 54, 127
2, 40360, Note_on_c, 1, 66, 127
2, 40600, Note_off_c, 1, 54, 0
2, 40600, Note_off_c, 1, 66, 0
2, 40680, Note_on_c, 1, 48, 127
2, 40680, Note_on_c, 1, 53, 127
2, 40680, Note_on_c, 1, 60, 127
2, 40680, Note_on_c, 1, 65, 127
2, 40920, Note_off_c, 1, 48, 0
2, 40920, Note_off_c, 1, 53, 0
2, 40920, Note_off_c, 1, 60, 0
2, 40920, Note_off_c, 1, 65, 0
2, 40960, Note_on_c, 1, 41, 127
2, 40960, Note_on_c, 1, 53, 127
2, 40960, Note_on_c, 1, 65, 127
2, 41200, Note_off_c, 1, 41, 0
2, 41200, Note_off_c, 1, 53, 0
2, 41200, Note_off_c, 1, 65, 0
2, 41240, Note_on_c, 1, 41, 127
2, 41240, Note_on_c, 1, 58, 127
2, 41240, Note_on_c, 1, 62, 127
2, 41280, Note_off_c, 1, 41, 0
2, 41280, Note_off_c, 1, 58, 0
2, 41280, Note_off_c, 1, 62, 0
2, 41320, Note_on_c, 1, 41, 127
2, 41320, Note_on_c, 1, 58, 127
2, 41320, Note_on_c, 1, 62, 127
2, 41560, Note_off_c, 1, 41, 0
2, 41560, Note_off_c, 1, 58, 0
2, 41560, Note_off_c, 1, 62, 0
2, 41600, Note_on_c, 1, 41, 127
2, 41600, Note_on_c, 1, 58, 127
2, 41600, Note_on_c, 1, 62, 127
2, 41840, Note_off_c, 1, 41, 0
2, 41840, Note_off_c, 1, 58, 0
2, 41840, Note_off_c, 1, 62, 0
2, 41880, Note_on_c, 1, 48, 127
2, 41880, Note_on_c, 1, 65, 127
2, 41880, Note_on_c, 1, 70, 127
2, 41920, Note_off_c, 1, 65, 0
2, 41920, Note_off_c, 1, 70, 0
2, 41960, Note_on_c, 1, 64, 127
2, 41960, Note_on_c, 1, 69, 127
2, 42040, Note_off_c, 1, 64, 0
2, 42040, Note_off_c, 1, 69, 0
2, 42080, Note_on_c, 1, 69, 127
2, 42120, Note_off_c, 1, 48, 0
2, 42120, Note_off_c, 1, 69, 0
2, 42160, Note_on_c, 1, 48, 127
2, 42160, Note_on_c, 1, 55, 127
2, 42160, Note_on_c, 1, 64, 127
2, 42280, Note_off_c, 1, 55, 0
2, 42280, Note_off_c, 1, 64, 0
2, 42440, Note_on_c, 1, 58, 127
2, 42680, Note_off_c, 1, 58, 0
2, 42720, Note_on_c, 1, 60, 127
2, 43000, Note_off_c, 1, 48, 0
2, 43000, Note_off_c, 1, 60, 0
2, 43040, Note_on_c, 1, 53, 127
2, 43040, Note_on_c, 1, 61, 127
2, 43040, Note_on_c, 1, 65, 127
2, 43080, Note_off_c, 1, 61, 0
2, 43080, Note_on_c, 1, 62, 127
2, 43080, Note_off_c, 1, 65, 0
2, 43080, Note_on_c, 1, 70, 127
2, 43120, Note_on_c, 1, 61, 127
2, 43120, Note_off_c, 1, 62, 0
2, 43120, Note_off_c, 1, 70, 0
2, 43160, Note_off_c, 1, 61, 0
2, 43200, Note_on_c, 1, 65, 127
2, 43280, Note_off_c, 1, 65, 0
2, 43320, Note_off_c, 1, 53, 0
2, 43320, Note_on_c, 1, 54, 127
2, 43320, Note_on_c, 1, 58, 127
2, 43320, Note_on_c, 1, 60, 127
2, 43360, Note_off_c, 1, 54, 0
2, 43360, Note_off_c, 1, 60, 0
2, 43360, Note_on_c, 1, 62, 127
2, 43400, Note_off_c, 1, 58, 0
2, 43400, Note_off_c, 1, 62, 0
2, 43440, Note_on_c, 1, 58, 127
2, 43440, Note_on_c, 1, 62, 127
2, 43520, Note_on_c, 1, 70, 127
2, 43600, Note_off_c, 1, 58, 0
2, 43600, Note_off_c, 1, 62, 0
2, 43600, Note_off_c, 1, 70, 0
2, 43640, Note_on_c, 1, 57, 127
2, 43640, Note_on_c, 1, 65, 127
2, 43640, Note_on_c, 1, 72, 127
2, 43880, Note_off_c, 1, 57, 0
2, 43880, Note_off_c, 1, 65, 0
2, 43880, Note_off_c, 1, 72, 0
2, 43920, Note_on_c, 1, 60, 127
2, 43920, Note_on_c, 1, 65, 127
2, 43920, Note_on_c, 1, 72, 127
2, 44200, Note_off_c, 1, 60, 0
2, 44200, Note_off_c, 1, 65, 0
2, 44200, Note_off_c, 1, 72, 0
2, 44240, Note_on_c, 1, 55, 127
2, 44240, Note_on_c, 1, 61, 127
2, 44240, Note_on_c, 1, 65, 127
2, 44240, Note_on_c, 1, 70, 127
2, 44480, Note_off_c, 1, 55, 0
2, 44480, Note_off_c, 1, 61, 0
2, 44480, Note_off_c, 1, 65, 0
2, 44480, Note_off_c, 1, 70, 0
2, 44520, Note_on_c, 1, 59, 127
2, 44520, Note_on_c, 1, 83, 127
2, 44520, Note_on_c, 1, 92, 127
2, 44760, Note_off_c, 1, 59, 0
2, 44760, Note_off_c, 1, 83, 0
2, 44760, Note_off_c, 1, 92, 0
2, 44800, Note_on_c, 1, 60, 127
2, 44800, Note_on_c, 1, 63, 127
2, 44800, Note_on_c, 1, 66, 127
2, 44800, Note_on_c, 1, 70, 127
2, 45040, Note_off_c, 1, 70, 0
2, 45080, Note_off_c, 1, 60, 0
2, 45080, Note_off_c, 1, 63, 0
2, 45080, Note_off_c, 1, 66, 0
2, 45120, Note_on_c, 1, 42, 127
2, 45120, Note_on_c, 1, 65, 127
2, 45120, Note_on_c, 1, 68, 127
2, 45320, Note_off_c, 1, 65, 0
2, 45320, Note_off_c, 1, 68, 0
2, 45360, Note_off_c, 1, 42, 0
2, 45440, Note_on_c, 1, 42, 127
2, 45440, Note_on_c, 1, 64, 127
2, 45440, Note_on_c, 1, 66, 127
2, 45680, Note_off_c, 1, 42, 0
2, 45680, Note_off_c, 1, 64, 0
2, 45680, Note_off_c, 1, 66, 0
2, 45720, Note_on_c, 1, 44, 127
2, 45720, Note_on_c, 1, 51, 127
2, 45720, Note_on_c, 1, 60, 127
2, 45720, Note_on_c, 1, 63, 127
2, 45720, Note_on_c, 1, 72, 127
2, 45960, Note_off_c, 1, 44, 0
2, 45960, Note_off_c, 1, 51, 0
2, 45960, Note_off_c, 1, 60, 0
2, 45960, Note_off_c, 1, 63, 0
2, 45960, Note_off_c, 1, 72, 0
2, 46000, Note_on_c, 1, 44, 127
2, 46000, Note_on_c, 1, 51, 127
2, 46000, Note_on_c, 1, 60, 127
2, 46000, Note_on_c, 1, 63, 127
2, 46000, Note_on_c, 1, 72, 127
2, 46280, Note_off_c, 1, 44, 0
2, 46280, Note_off_c, 1, 51, 0
2, 46280, Note_off_c, 1, 60, 0
2, 46280, Note_off_c, 1, 63, 0
2, 46280, Note_off_c, 1, 72, 0
2, 46320, Note_on_c, 1, 57, 127
2, 46320, Note_on_c, 1, 66, 127
2, 46320, Note_on_c, 1, 90, 127
2, 46320, Note_on_c, 1, 93, 127
2, 46360, Note_off_c, 1, 57, 0
2, 46360, Note_off_c, 1, 66, 0
2, 46360, Note_off_c, 1, 90, 0
2, 46360, Note_off_c, 1, 93, 0
2, 46440, Note_on_c, 1, 31, 127
2, 46440, Note_on_c, 1, 43, 127
2, 46440, Note_on_c, 1, 53, 127
2, 46440, Note_on_c, 1, 56, 127
2, 46440, Note_on_c, 1, 59, 127
2, 46440, Note_on_c, 1, 61, 127
2, 46480, Note_off_c, 1, 31, 0
2, 46480, Note_off_c, 1, 43, 0
2, 46480, Note_off_c, 1, 53, 0
2, 46480, Note_off_c, 1, 56, 0
2, 46480, Note_off_c, 1, 59, 0
2, 46480, Note_off_c, 1, 61, 0
2, 46600, Note_on_c, 1, 44, 127
2, 46600, Note_on_c, 1, 56, 127
2, 46600, Note_on_c, 1, 59, 127
2, 46600, Note_on_c, 1, 68, 127
2, 46600, Note_on_c, 1, 71, 127
2, 46880, Note_off_c, 1, 44, 0
2, 46880, Note_off_c, 1, 56, 0
2, 46880, Note_off_c, 1, 59, 0
2, 46880, Note_off_c, 1, 68, 0
2, 46880, Note_off_c, 1, 71, 0
2, 46920, Note_on_c, 1, 57, 127
2, 46920, Note_on_c, 1, 60, 127
2, 46920, Note_on_c, 1, 63, 127
2, 46920, Note_on_c, 1, 66, 127
2, 46920, Note_on_c, 1, 72, 127
2, 46920, Note_on_c, 1, 75, 127
2, 46920, Note_on_c, 1, 78, 127
2, 47160, Note_off_c, 1, 57, 0
2, 47160, Note_off_c, 1, 60, 0
2, 47160, Note_off_c, 1, 63, 0
2, 47160, Note_off_c, 1, 66, 0
2, 47160, Note_off_c, 1, 72, 0
2, 47160, Note_off_c, 1, 75, 0
2, 47160, Note_off_c, 1, 78, 0
2, 47200, Note_on_c, 1, 47, 127
2, 47200, Note_on_c, 1, 54, 127
2, 47200, Note_on_c, 1, 75, 127
2, 47200, Note_on_c, 1, 78, 127
2, 47240, Note_off_c, 1, 78, 0
2, 47280, Note_on_c, 1, 78, 127
2, 47400, Note_off_c, 1, 47, 0
2, 47400, Note_off_c, 1, 54, 0
2, 47400, Note_off_c, 1, 75, 0
2, 47400, Note_off_c, 1, 78, 0
2, 47440, Note_on_c, 1, 47, 127
2, 47440, Note_on_c, 1, 54, 127
2, 47440, Note_on_c, 1, 75, 127
2, 47440, Note_on_c, 1, 78, 127
2, 47480, Note_off_c, 1, 47, 0
2, 47480, Note_off_c, 1, 54, 0
2, 47480, Note_off_c, 1, 75, 0
2, 47480, Note_off_c, 1, 78, 0
2, 47520, Note_on_c, 1, 48, 127
2, 47520, Note_on_c, 1, 60, 127
2, 47520, Note_on_c, 1, 78, 127
2, 47520, Note_on_c, 1, 81, 127
2, 47520, Note_on_c, 1, 87, 127
2, 47520, Note_on_c, 1, 90, 127
2, 47800, Note_off_c, 1, 48, 0
2, 47800, Note_off_c, 1, 60, 0
2, 47800, Note_off_c, 1, 78, 0
2, 47800, Note_off_c, 1, 81, 0
2, 47800, Note_off_c, 1, 87, 0
2, 47800, Note_off_c, 1, 90, 0
2, 47840, Note_on_c, 1, 33, 127
2, 47840, Note_on_c, 1, 45, 127
2, 47840, Note_on_c, 1, 66, 127
2, 47840, Note_on_c, 1, 72, 127
2, 47840, Note_on_c, 1, 75, 127
2, 47960, Note_off_c, 1, 75, 0
2, 48000, Note_off_c, 1, 33, 0
2, 48000, Note_on_c, 1, 37, 127
2, 48000, Note_on_c, 1, 44, 127
2, 48000, Note_off_c, 1, 45, 0
2, 48000, Note_off_c, 1, 66, 0
2, 48000, Note_off_c, 1, 72, 0
2, 48000, Note_on_c, 1, 77, 127
2, 48040, Note_on_c, 1, 33, 127
2, 48040, Note_off_c, 1, 37, 0
2, 48040, Note_off_c, 1, 44, 0
2, 48040, Note_on_c, 1, 45, 127
2, 48040, Note_on_c, 1, 66, 127
2, 48040, Note_on_c, 1, 72, 127
2, 48040, Note_off_c, 1, 77, 0
2, 48080, Note_off_c, 1, 33, 0
2, 48080, Note_off_c, 1, 45, 0
2, 48080, Note_off_c, 1, 66, 0
2, 48080, Note_off_c, 1, 72, 0
2, 48120, Note_on_c, 1, 58, 127
2, 48120, Note_on_c, 1, 64, 127
2, 48120, Note_on_c, 1, 68, 127
2, 48120, Note_on_c, 1, 80, 127
2, 48120, Note_on_c, 1, 92, 127
2, 48160, Note_on_c, 1, 48, 127
2, 48160, Note_off_c, 1, 58, 0
2, 48160, Note_on_c, 1, 60, 127
2, 48160, Note_off_c, 1, 64, 0
2, 48160, Note_off_c, 1, 68, 0
2, 48160, Note_on_c, 1, 73, 127
2, 48160, Note_off_c, 1, 80, 0
2, 48160, Note_off_c, 1, 92, 0
2, 48240, Note_on_c, 1, 42, 127
2, 48240, Note_off_c, 1, 48, 0
2, 48240, Note_off_c, 1, 60, 0
2, 48240, Note_off_c, 1, 73, 0
2, 48240, Note_on_c, 1, 79, 127
2, 48240, Note_on_c, 1, 80, 127
2, 48280, Note_off_c, 1, 42, 0
2, 48280, Note_on_c, 1, 58, 127
2, 48280, Note_on_c, 1, 72, 127
2, 48280, Note_on_c, 1, 75, 127
2, 48280, Note_off_c, 1, 79, 0
2, 48280, Note_off_c, 1, 80, 0
2, 48280, Note_on_c, 1, 81, 127
2, 48320, Note_on_c, 1, 37, 127
2, 48320, Note_on_c, 1, 44, 127
2, 48320, Note_on_c, 1, 56, 127
2, 48320, Note_off_c, 1, 58, 0
2, 48320, Note_on_c, 1, 61, 127
2, 48320, Note_off_c, 1, 72, 0
2, 48320, Note_off_c, 1, 75, 0
2, 48320, Note_off_c, 1, 81, 0
2, 48360, Note_off_c, 1, 37, 0
2, 48360, Note_off_c, 1, 44, 0
2, 48360, Note_off_c, 1, 56, 0
2, 48360, Note_off_c, 1, 61, 0
2, 48400, Note_on_c, 1, 33, 127
2, 48400, Note_on_c, 1, 45, 127
2, 48400, Note_on_c, 1, 66, 127
2, 48400, Note_on_c, 1, 72, 127
2, 48400, Note_on_c, 1, 76, 127
2, 48640, Note_off_c, 1, 33, 0
2, 48640, Note_off_c, 1, 45, 0
2, 48640, Note_off_c, 1, 66, 0
2, 48640, Note_off_c, 1, 72, 0
2, 48640, Note_off_c, 1, 76, 0
2, 48680, Note_on_c, 1, 33, 127
2, 48680, Note_on_c, 1, 45, 127
2, 48680, Note_on_c, 1, 66, 127
2, 48680, Note_on_c, 1, 72, 127
2, 48680, Note_on_c, 1, 76, 127
2, 48920, Note_off_c, 1, 33, 0
2, 48920, Note_off_c, 1, 45, 0
2, 48920, Note_off_c, 1, 66, 0
2, 48920, Note_off_c, 1, 72, 0
2, 48920, Note_off_c, 1, 76, 0
2, 48960, Note_on_c, 1, 66, 127
2, 48960, Note_on_c, 1, 72, 127
2, 48960, Note_on_c, 1, 75, 127
2, 48960, Note_on_c, 1, 81, 127
2, 49200, Note_off_c, 1, 66, 0
2, 49200, Note_off_c, 1, 72, 0
2, 49200, Note_off_c, 1, 75, 0
2, 49200, Note_off_c, 1, 81, 0
2, 49240, Note_on_c, 1, 41, 127
2, 49240, Note_on_c, 1, 46, 127
2, 49240, Note_on_c, 1, 53, 127
2, 49240, Note_on_c, 1, 87, 127
2, 49440, Note_off_c, 1, 41, 0
2, 49440, Note_off_c, 1, 46, 0
2, 49440, Note_off_c, 1, 53, 0
2, 49440, Note_off_c, 1, 87, 0
2, 49480, Note_on_c, 1, 41, 127
2, 49480, Note_on_c, 1, 46, 127
2, 49480, Note_on_c, 1, 53, 127
2, 49480, Note_on_c, 1, 87, 127
2, 49840, Note_off_c, 1, 41, 0
2, 49840, Note_off_c, 1, 46, 0
2, 49840, Note_off_c, 1, 53, 0
2, 49840, Note_off_c, 1, 87, 0
2, 49880, Note_on_c, 1, 38, 127
2, 49880, Note_on_c, 1, 45, 127
2, 49880, Note_on_c, 1, 53, 127
2, 49880, Note_on_c, 1, 86, 127
2, 49880, Note_on_c, 1, 98, 127
2, 51440, Note_off_c, 1, 38, 0
2, 51440, Note_off_c, 1, 45, 0
2, 51440, Note_off_c, 1, 53, 0
2, 51440, Note_off_c, 1, 86, 0
2, 51440, Note_off_c, 1, 98, 0
2, 51480, Note_on_c, 1, 38, 127
2, 51480, Note_on_c, 1, 45, 127
2, 51480, Note_on_c, 1, 53, 127
2, 51480, Note_on_c, 1, 86, 127
2, 51480, Note_on_c, 1, 98, 127
2, 51880, Note_off_c, 1, 38, 0
2, 51880, Note_off_c, 1, 45, 0
2, 51880, Note_off_c, 1, 53, 0
2, 51880, Note_off_c, 1, 86, 0
2, 51880, Note_off_c, 1, 98, 0
2, 52960, Note_on_c, 1, 51, 127
2, 52960, Note_on_c, 1, 55, 127
2, 52960, Note_on_c, 1, 58, 127
2, 52960, Note_on_c, 1, 63, 127
2, 52960, Note_on_c, 1, 67, 127
2, 52960, Note_on_c, 1, 70, 127
2, 52960, Note_on_c, 1, 75, 127
2, 53400, Note_off_c, 1, 51, 0
2, 53400, Note_off_c, 1, 55, 0
2, 53400, Note_off_c, 1, 58, 0
2, 53400, Note_off_c, 1, 63, 0
2, 53400, Note_off_c, 1, 67, 0
2, 53400, Note_off_c, 1, 70, 0
2, 53400, Note_off_c, 1, 75, 0
2, 54720, Note_on_c, 1, 37, 127
2, 54720, Note_on_c, 1, 61, 127
2, 54800, Note_off_c, 1, 37, 0
2, 54800, Note_off_c, 1, 61, 0
2, 54840, Note_on_c, 1, 49, 127
2, 54840, Note_on_c, 1, 73, 127
2, 54960, Note_off_c, 1, 49, 0
2, 54960, Note_off_c, 1, 73, 0
2, 55000, Note_on_c, 1, 42, 127
2, 55000, Note_on_c, 1, 78, 127
2, 55120, Note_off_c, 1, 42, 0
2, 55120, Note_off_c, 1, 78, 0
2, 55160, Note_on_c, 1, 58, 127
2, 55160, Note_on_c, 1, 66, 127
2, 55280, Note_off_c, 1, 58, 0
2, 55280, Note_off_c, 1, 66, 0
2, 55320, Note_on_c, 1, 58, 127
2, 55320, Note_on_c, 1, 66, 127
2, 55440, Note_off_c, 1, 58, 0
2, 55440, Note_off_c, 1, 66, 0
2, 55920, Note_on_c, 1, 33, 127
2, 55920, Note_on_c, 1, 57, 127
2, 56000, Note_off_c, 1, 57, 0
2, 56040, Note_on_c, 1, 57, 127
2, 56160, Note_off_c, 1, 33, 0
2, 56160, Note_off_c, 1, 57, 0
2, 56200, Note_on_c, 1, 33, 127
2, 56200, Note_on_c, 1, 57, 127
2, 56520, Note_off_c, 1, 33, 0
2, 56520, Note_off_c, 1, 57, 0
2, 59120, Note_on_c, 1, 78, 127
2, 60080, Note_off_c, 1, 78, 0
2, 60120, Note_on_c, 1, 73, 127
2, 60240, Note_off_c, 1, 73, 0
2, 60280, Note_on_c, 1, 72, 127
2, 60400, Note_off_c, 1, 72, 0
2, 60440, Note_on_c, 1, 73, 127
2, 60680, Note_off_c, 1, 73, 0
2, 60720, Note_on_c, 1, 73, 127
2, 61000, Note_off_c, 1, 73, 0
2, 61040, Note_on_c, 1, 73, 127
2, 61160, Note_off_c, 1, 73, 0
2, 61200, Note_on_c, 1, 71, 127
2, 61320, Note_off_c, 1, 71, 0
2, 61360, Note_on_c, 1, 69, 127
2, 61480, Note_off_c, 1, 69, 0
2, 61560, Note_on_c, 1, 69, 127
2, 61840, Note_off_c, 1, 69, 0
2, 61880, Note_on_c, 1, 78, 127
2, 62160, Note_off_c, 1, 78, 0
2, 62200, Note_on_c, 1, 43, 127
2, 62200, Note_on_c, 1, 76, 127
2, 62320, Note_off_c, 1, 76, 0
2, 62360, Note_on_c, 1, 69, 127
2, 62400, Note_off_c, 1, 69, 0
2, 62440, Note_on_c, 1, 69, 127
2, 62480, Note_off_c, 1, 43, 0
2, 62480, Note_off_c, 1, 69, 0
2, 62520, Note_on_c, 1, 43, 127
2, 62520, Note_on_c, 1, 73, 127
2, 62560, Note_off_c, 1, 73, 0
2, 62680, Note_on_c, 1, 76, 127
2, 62720, Note_off_c, 1, 76, 0
2, 62760, Note_on_c, 1, 72, 127
2, 62800, Note_off_c, 1, 43, 0
2, 62800, Note_off_c, 1, 72, 0
2, 62840, Note_on_c, 1, 73, 127
2, 63080, Note_off_c, 1, 73, 0
2, 63120, Note_on_c, 1, 74, 127
2, 63400, Note_off_c, 1, 74, 0
2, 63440, Note_on_c, 1, 76, 127
2, 63720, Note_off_c, 1, 76, 0
2, 63760, Note_on_c, 1, 52, 127
2, 63760, Note_on_c, 1, 64, 127
2, 63880, Note_off_c, 1, 52, 0
2, 63880, Note_off_c, 1, 64, 0
2, 63920, Note_on_c, 1, 52, 127
2, 63920, Note_on_c, 1, 64, 127
2, 64080, Note_off_c, 1, 52, 0
2, 64080, Note_off_c, 1, 64, 0
2, 64120, Note_on_c, 1, 57, 127
2, 64120, Note_on_c, 1, 69, 127
2, 64400, Note_off_c, 1, 57, 0
2, 64400, Note_off_c, 1, 69, 0
2, 64440, Note_on_c, 1, 49, 127
2, 64440, Note_on_c, 1, 57, 127
2, 64440, Note_on_c, 1, 69, 127
2, 64680, Note_off_c, 1, 57, 0
2, 64680, Note_off_c, 1, 69, 0
2, 64720, Note_on_c, 1, 57, 127
2, 64720, Note_on_c, 1, 69, 127
2, 65000, Note_off_c, 1, 49, 0
2, 65000, Note_off_c, 1, 57, 0
2, 65000, Note_off_c, 1, 69, 0
2, 65040, Note_on_c, 1, 50, 127
2, 65040, Note_on_c, 1, 57, 127
2, 65040, Note_on_c, 1, 66, 127
2, 65080, Note_off_c, 1, 66, 0
2, 65120, Note_on_c, 1, 66, 127
2, 65200, Note_on_c, 1, 54, 127
2, 65200, Note_off_c, 1, 57, 0
2, 65240, Note_off_c, 1, 54, 0
2, 65240, Note_on_c, 1, 57, 127
2, 65240, Note_off_c, 1, 66, 0
2, 65280, Note_on_c, 1, 66, 127
2, 65320, Note_off_c, 1, 50, 0
2, 65320, Note_off_c, 1, 57, 0
2, 65320, Note_off_c, 1, 66, 0
2, 65360, Note_on_c, 1, 57, 127
2, 65360, Note_on_c, 1, 66, 127
2, 65640, Note_off_c, 1, 66, 0
2, 65680, Note_on_c, 1, 62, 127
2, 65680, Note_on_c, 1, 78, 127
2, 65800, Note_off_c, 1, 78, 0
2, 65840, Note_off_c, 1, 62, 0
2, 65840, Note_on_c, 1, 64, 127
2, 65840, Note_on_c, 1, 81, 127
2, 65880, Note_off_c, 1, 64, 0
2, 65880, Note_off_c, 1, 81, 0
2, 65920, Note_on_c, 1, 61, 127
2, 65920, Note_on_c, 1, 76, 127
2, 65960, Note_off_c, 1, 61, 0
2, 65960, Note_off_c, 1, 76, 0
2, 66000, Note_on_c, 1, 64, 127
2, 66000, Note_on_c, 1, 73, 127
2, 66040, Note_off_c, 1, 57, 0
2, 66040, Note_off_c, 1, 64, 0
2, 66040, Note_off_c, 1, 73, 0
2, 66080, Note_on_c, 1, 57, 127
2, 66080, Note_on_c, 1, 64, 127
2, 66160, Note_off_c, 1, 64, 0
2, 66200, Note_on_c, 1, 64, 127
2, 66200, Note_on_c, 1, 79, 127
2, 66280, Note_off_c, 1, 64, 0
2, 66360, Note_on_c, 1, 62, 127
2, 66400, Note_off_c, 1, 79, 0
2, 66440, Note_off_c, 1, 62, 0
2, 66440, Note_on_c, 1, 79, 127
2, 66480, Note_on_c, 1, 62, 127
2, 66480, Note_on_c, 1, 77, 127
2, 66480, Note_off_c, 1, 79, 0
2, 66520, Note_off_c, 1, 77, 0
2, 66560, Note_on_c, 1, 77, 127
2, 66600, Note_off_c, 1, 57, 0
2, 66600, Note_off_c, 1, 77, 0
2, 66640, Note_on_c, 1, 55, 127
2, 66640, Note_on_c, 1, 79, 127
2, 66680, Note_off_c, 1, 79, 0
2, 66720, Note_on_c, 1, 77, 127
2, 66760, Note_off_c, 1, 77, 0
2, 66800, Note_on_c, 1, 74, 127
2, 66840, Note_off_c, 1, 55, 0
2, 66840, Note_off_c, 1, 74, 0
2, 66880, Note_on_c, 1, 50, 127
2, 66880, Note_on_c, 1, 74, 127
2, 66920, Note_off_c, 1, 50, 0
2, 66920, Note_off_c, 1, 62, 0
2, 66920, Note_off_c, 1, 74, 0
2, 66960, Note_on_c, 1, 55, 127
2, 66960, Note_on_c, 1, 61, 127
2, 67200, Note_on_c, 1, 52, 127
2, 67200, Note_off_c, 1, 55, 0
2, 67200, Note_off_c, 1, 61, 0
2, 67240, Note_on_c, 1, 50, 127
2, 67240, Note_off_c, 1, 52, 0
2, 67240, Note_on_c, 1, 59, 127
2, 67240, Note_on_c, 1, 67, 127
2, 67480, Note_off_c, 1, 67, 0
2, 67520, Note_off_c, 1, 59, 0
2, 67520, Note_on_c, 1, 60, 127
2, 67520, Note_on_c, 1, 66, 127
2, 67680, Note_off_c, 1, 60, 0
2, 67720, Note_on_c, 1, 57, 127
2, 67800, Note_off_c, 1, 50, 0
2, 67800, Note_off_c, 1, 57, 0
2, 67800, Note_off_c, 1, 66, 0
2, 67840, Note_on_c, 1, 50, 127
2, 67840, Note_on_c, 1, 57, 127
2, 67840, Note_on_c, 1, 66, 127
2, 67880, Note_off_c, 1, 66, 0
2, 67880, Note_on_c, 1, 67, 127
2, 67920, Note_on_c, 1, 66, 127
2, 67920, Note_off_c, 1, 67, 0
2, 68000, Note_off_c, 1, 66, 0
2, 68000, Note_on_c, 1, 67, 127
2, 68040, Note_on_c, 1, 66, 127
2, 68040, Note_off_c, 1, 67, 0
2, 68080, Note_off_c, 1, 66, 0
2, 68080, Note_on_c, 1, 67, 127
2, 68120, Note_off_c, 1, 67, 0
2, 68160, Note_on_c, 1, 66, 127
2, 68240, Note_off_c, 1, 50, 0
2, 68240, Note_off_c, 1, 57, 0
2, 68240, Note_off_c, 1, 66, 0
2, 68280, Note_on_c, 1, 50, 127
2, 68280, Note_on_c, 1, 57, 127
2, 68280, Note_on_c, 1, 71, 127
2, 68320, Note_on_c, 1, 66, 127
2, 68320, Note_off_c, 1, 71, 0
2, 68360, Note_off_c, 1, 66, 0
2, 68360, Note_on_c, 1, 71, 127
2, 68400, Note_off_c, 1, 71, 0
2, 68440, Note_on_c, 1, 62, 127
2, 68480, Note_off_c, 1, 50, 0
2, 68480, Note_off_c, 1, 57, 0
2, 68480, Note_off_c, 1, 62, 0
2, 68480, Note_on_c, 1, 66, 127
2, 68520, Note_on_c, 1, 74, 127
2, 68560, Note_off_c, 1, 74, 0
2, 68600, Note_on_c, 1, 74, 127
2, 68680, Note_off_c, 1, 74, 0
2, 68720, Note_on_c, 1, 73, 127
2, 68760, Note_off_c, 1, 73, 0
2, 68800, Note_on_c, 1, 74, 127
2, 68840, Note_off_c, 1, 74, 0
2, 68880, Note_on_c, 1, 74, 127
2, 68920, Note_off_c, 1, 74, 0
2, 68960, Note_on_c, 1, 69, 127
2, 69040, Note_off_c, 1, 69, 0
2, 69080, Note_on_c, 1, 62, 127
2, 69080, Note_off_c, 1, 66, 0
2, 69120, Note_on_c, 1, 71, 127
2, 69160, Note_off_c, 1, 71, 0
2, 69200, Note_on_c, 1, 69, 127
2, 69240, Note_off_c, 1, 69, 0
2, 69280, Note_on_c, 1, 69, 127
2, 69320, Note_off_c, 1, 69, 0
2, 69360, Note_on_c, 1, 69, 127
2, 69400, Note_off_c, 1, 62, 0
2, 69400, Note_off_c, 1, 69, 0
2, 69440, Note_on_c, 1, 61, 127
2, 69440, Note_on_c, 1, 69, 127
2, 69520, Note_off_c, 1, 69, 0
2, 69560, Note_on_c, 1, 76, 127
2, 69640, Note_on_c, 1, 69, 127
2, 69640, Note_off_c, 1, 76, 0
2, 69680, Note_off_c, 1, 69, 0
2, 69720, Note_off_c, 1, 61, 0
2, 69720, Note_on_c, 1, 62, 127
2, 69720, Note_on_c, 1, 78, 127
2, 69840, Note_off_c, 1, 62, 0
2, 69840, Note_off_c, 1, 78, 0
2, 69880, Note_on_c, 1, 57, 127
2, 69880, Note_on_c, 1, 81, 127
2, 70000, Note_off_c, 1, 57, 0
2, 70000, Note_off_c, 1, 81, 0
2, 70040, Note_on_c, 1, 50, 127
2, 70200, Note_off_c, 1, 50, 0
2, 70280, Note_on_c, 1, 62, 127
2, 70280, Note_on_c, 1, 66, 127
2, 70560, Note_off_c, 1, 62, 0
2, 70560, Note_off_c, 1, 66, 0
2, 70600, Note_on_c, 1, 62, 127
2, 70600, Note_on_c, 1, 66, 127
2, 70880, Note_off_c, 1, 62, 0
2, 70880, Note_off_c, 1, 66, 0
2, 70920, Note_on_c, 1, 49, 127
2, 70920, Note_on_c, 1, 52, 127
2, 71200, Note_off_c, 1, 49, 0
2, 71200, Note_off_c, 1, 52, 0
2, 71240, Note_on_c, 1, 44, 127
2, 71240, Note_on_c, 1, 54, 127
2, 71520, Note_off_c, 1, 44, 0
2, 71520, Note_off_c, 1, 54, 0
2, 71560, Note_on_c, 1, 47, 127
2, 71560, Note_on_c, 1, 65, 127
2, 71680, Note_off_c, 1, 65, 0
2, 71720, Note_on_c, 1, 55, 127
2, 71840, Note_off_c, 1, 47, 0
2, 71840, Note_off_c, 1, 55, 0
2, 71880, Note_on_c, 1, 47, 127
2, 71880, Note_on_c, 1, 62, 127
2, 72000, Note_off_c, 1, 47, 0
2, 72000, Note_off_c, 1, 62, 0
2, 74720, Note_on_c, 1, 55, 127
2, 74720, Note_on_c, 1, 58, 127
2, 74720, Note_on_c, 1, 62, 127
2, 74720, Note_on_c, 1, 67, 127
2, 74720, Note_on_c, 1, 70, 127
2, 75120, Note_off_c, 1, 62, 0
2, 75120, Note_off_c, 1, 67, 0
2, 75120, Note_off_c, 1, 70, 0
2, 75160, Note_on_c, 1, 70, 127
2, 75400, Note_off_c, 1, 70, 0
2, 75560, Note_off_c, 1, 55, 0
2, 75560, Note_off_c, 1, 58, 0
2, 75760, Note_on_c, 1, 76, 127
2, 75920, Note_on_c, 1, 67, 127
2, 76200, Note_off_c, 1, 67, 0
2, 76200, Note_off_c, 1, 76, 0
2, 76240, Note_on_c, 1, 70, 127
2, 76240, Note_on_c, 1, 79, 127
2, 76360, Note_off_c, 1, 70, 0
2, 76360, Note_off_c, 1, 79, 0
2, 76600, Note_on_c, 1, 79, 127
2, 76600, Note_on_c, 1, 82, 127
2, 76720, Note_off_c, 1, 79, 0
2, 76720, Note_off_c, 1, 82, 0
2, 76760, Note_on_c, 1, 91, 127
2, 76920, Note_on_c, 1, 63, 127
2, 77040, Note_off_c, 1, 63, 0
2, 77080, Note_on_c, 1, 71, 127
2, 77200, Note_off_c, 1, 71, 0
2, 77200, Note_off_c, 1, 91, 0
2, 77240, Note_on_c, 1, 70, 127
2, 77240, Note_on_c, 1, 86, 127
2, 77360, Note_off_c, 1, 70, 0
2, 77360, Note_off_c, 1, 86, 0
2, 77400, Note_on_c, 1, 74, 127
2, 77400, Note_on_c, 1, 89, 127
2, 77520, Note_off_c, 1, 74, 0
2, 77520, Note_off_c, 1, 89, 0
2, 77560, Note_on_c, 1, 76, 127
2, 77560, Note_on_c, 1, 91, 127
2, 77800, Note_off_c, 1, 76, 0
2, 78120, Note_off_c, 1, 91, 0
2, 78520, Note_on_c, 1, 67, 127
2, 78680, Note_on_c, 1, 51, 127
2, 78960, Note_off_c, 1, 51, 0
2, 78960, Note_off_c, 1, 67, 0
2, 79000, Note_on_c, 1, 79, 127
2, 79280, Note_off_c, 1, 79, 0
2, 79320, Note_on_c, 1, 50, 127
2, 79320, Note_on_c, 1, 66, 127
2, 79440, Note_off_c, 1, 50, 0
2, 79440, Note_off_c, 1, 66, 0
2, 79480, Note_on_c, 1, 75, 127
2, 79600, Note_off_c, 1, 75, 0
2, 79640, Note_on_c, 1, 76, 127
2, 79760, Note_off_c, 1, 76, 0
2, 79800, Note_on_c, 1, 74, 127
2, 79920, Note_off_c, 1, 74, 0
2, 79960, Note_on_c, 1, 76, 127
2, 80080, Note_off_c, 1, 76, 0
2, 80120, Note_on_c, 1, 59, 127
2, 80120, Note_on_c, 1, 67, 127
2, 80240, Note_off_c, 1, 59, 0
2, 80240, Note_off_c, 1, 67, 0
2, 80280, Note_on_c, 1, 79, 127
2, 80400, Note_off_c, 1, 79, 0
2, 80440, Note_on_c, 1, 83, 127
2, 80560, Note_off_c, 1, 83, 0
2, 80600, Note_on_c, 1, 84, 127
2, 80720, Note_off_c, 1, 84, 0
2, 80800, Note_on_c, 1, 83, 127
2, 80880, Note_off_c, 1, 83, 0
2, 80920, Note_on_c, 1, 79, 127
2, 81040, Note_off_c, 1, 79, 0
2, 81080, Note_on_c, 1, 60, 127
2, 81080, Note_on_c, 1, 64, 127
2, 81200, Note_off_c, 1, 60, 0
2, 81200, Note_off_c, 1, 64, 0
2, 81240, Note_on_c, 1, 84, 127
2, 81360, Note_off_c, 1, 84, 0
2, 81400, Note_on_c, 1, 64, 127
2, 81480, Note_off_c, 1, 64, 0
2, 81520, Note_on_c, 1, 84, 127
2, 81640, Note_off_c, 1, 84, 0
2, 81680, Note_on_c, 1, 64, 127
2, 81680, Note_on_c, 1, 72, 127
2, 81800, Note_off_c, 1, 64, 0
2, 81800, Note_off_c, 1, 72, 0
2, 81840, Note_on_c, 1, 88, 127
2, 81960, Note_off_c, 1, 88, 0
2, 82000, Note_on_c, 1, 64, 127
2, 82160, Note_on_c, 1, 74, 127
2, 82280, Note_off_c, 1, 64, 0
2, 82280, Note_off_c, 1, 74, 0
2, 82320, Note_on_c, 1, 69, 127
2, 82320, Note_on_c, 1, 84, 127
2, 82440, Note_off_c, 1, 69, 0
2, 82440, Note_off_c, 1, 84, 0
2, 82480, Note_on_c, 1, 72, 127
2, 82480, Note_on_c, 1, 88, 127
2, 82600, Note_off_c, 1, 72, 0
2, 82600, Note_off_c, 1, 88, 0
2, 82640, Note_on_c, 1, 69, 127
2, 82640, Note_on_c, 1, 85, 127
2, 82720, Note_off_c, 1, 69, 0
2, 82720, Note_off_c, 1, 85, 0
2, 82760, Note_on_c, 1, 75, 127
2, 82760, Note_on_c, 1, 84, 127
2, 82840, Note_off_c, 1, 75, 0
2, 82840, Note_off_c, 1, 84, 0
2, 82880, Note_on_c, 1, 75, 127
2, 82880, Note_on_c, 1, 84, 127
2, 82920, Note_off_c, 1, 75, 0
2, 82920, Note_off_c, 1, 84, 0
2, 82960, Note_on_c, 1, 79, 127
2, 82960, Note_on_c, 1, 88, 127
2, 83080, Note_off_c, 1, 79, 0
2, 83080, Note_off_c, 1, 88, 0
2, 83120, Note_on_c, 1, 79, 127
2, 83120, Note_on_c, 1, 88, 127
2, 83240, Note_off_c, 1, 79, 0
2, 83240, Note_off_c, 1, 88, 0
2, 83600, Note_on_c, 1, 52, 127
2, 83600, Note_on_c, 1, 55, 127
2, 83720, Note_off_c, 1, 52, 0
2, 83720, Note_off_c, 1, 55, 0
2, 83760, Note_on_c, 1, 71, 127
2, 83760, Note_on_c, 1, 74, 127
2, 83760, Note_on_c, 1, 86, 127
2, 83840, Note_on_c, 1, 68, 127
2, 83840, Note_off_c, 1, 74, 0
2, 83840, Note_on_c, 1, 83, 127
2, 83840, Note_off_c, 1, 86, 0
2, 83880, Note_off_c, 1, 68, 0
2, 83880, Note_off_c, 1, 71, 0
2, 83880, Note_off_c, 1, 83, 0
2, 83920, Note_on_c, 1, 69, 127
2, 83920, Note_on_c, 1, 72, 127
2, 83920, Note_on_c, 1, 84, 127
2, 83960, Note_on_c, 1, 67, 127
2, 83960, Note_off_c, 1, 69, 0
2, 83960, Note_on_c, 1, 71, 127
2, 83960, Note_off_c, 1, 72, 0
2, 83960, Note_on_c, 1, 83, 127
2, 83960, Note_off_c, 1, 84, 0
2, 84000, Note_off_c, 1, 67, 0
2, 84000, Note_off_c, 1, 71, 0
2, 84000, Note_off_c, 1, 83, 0
2, 84040, Note_on_c, 1, 64, 127
2, 84040, Note_on_c, 1, 71, 127
2, 84040, Note_on_c, 1, 83, 127
2, 84160, Note_off_c, 1, 64, 0
2, 84160, Note_off_c, 1, 71, 0
2, 84160, Note_off_c, 1, 83, 0
2, 84200, Note_on_c, 1, 69, 127
2, 84200, Note_on_c, 1, 72, 127
2, 84200, Note_on_c, 1, 84, 127
2, 84240, Note_off_c, 1, 84, 0
2, 84280, Note_on_c, 1, 66, 127
2, 84280, Note_off_c, 1, 72, 0
2, 84280, Note_on_c, 1, 81, 127
2, 84320, Note_off_c, 1, 66, 0
2, 84320, Note_on_c, 1, 72, 127
2, 84320, Note_off_c, 1, 81, 0
2, 84360, Note_on_c, 1, 88, 127
2, 84400, Note_off_c, 1, 88, 0
2, 84440, Note_on_c, 1, 75, 127
2, 84480, Note_off_c, 1, 69, 0
2, 84480, Note_off_c, 1, 72, 0
2, 84480, Note_off_c, 1, 75, 0
2, 84520, Note_on_c, 1, 85, 127
2, 84600, Note_off_c, 1, 85, 0
2, 84640, Note_on_c, 1, 86, 127
2, 84760, Note_off_c, 1, 86, 0
2, 84800, Note_on_c, 1, 69, 127
2, 84800, Note_on_c, 1, 84, 127
2, 84840, Note_off_c, 1, 69, 0
2, 84840, Note_off_c, 1, 84, 0
2, 84880, Note_on_c, 1, 69, 127
2, 84880, Note_on_c, 1, 84, 127
2, 84960, Note_off_c, 1, 69, 0
2, 84960, Note_off_c, 1, 84, 0
2, 85000, Note_on_c, 1, 66, 127
2, 85000, Note_on_c, 1, 88, 127
2, 85120, Note_off_c, 1, 66, 0
2, 85120, Note_off_c, 1, 88, 0
2, 85160, Note_on_c, 1, 69, 127
2, 85160, Note_on_c, 1, 88, 127
2, 85200, Note_off_c, 1, 88, 0
2, 85240, Note_on_c, 1, 87, 127
2, 85280, Note_off_c, 1, 69, 0
2, 85280, Note_off_c, 1, 87, 0
2, 85320, Note_on_c, 1, 88, 127
2, 85400, Note_on_c, 1, 68, 127
2, 85440, Note_off_c, 1, 68, 0
2, 85440, Note_off_c, 1, 88, 0
2, 85480, Note_on_c, 1, 69, 127
2, 85480, Note_on_c, 1, 91, 127
2, 85600, Note_off_c, 1, 69, 0
2, 85600, Note_off_c, 1, 91, 0
2, 85640, Note_on_c, 1, 69, 127
2, 85640, Note_on_c, 1, 91, 127
2, 85760, Note_off_c, 1, 69, 0
2, 85760, Note_off_c, 1, 91, 0
2, 85800, Note_on_c, 1, 68, 127
2, 85800, Note_on_c, 1, 90, 127
2, 85920, Note_off_c, 1, 68, 0
2, 85920, Note_off_c, 1, 90, 0
2, 85960, Note_on_c, 1, 64, 127
2, 85960, Note_on_c, 1, 88, 127
2, 86080, Note_off_c, 1, 64, 0
2, 86080, Note_off_c, 1, 88, 0
2, 86120, Note_on_c, 1, 69, 127
2, 86120, Note_on_c, 1, 87, 127
2, 86200, Note_off_c, 1, 69, 0
2, 86200, Note_off_c, 1, 87, 0
2, 86240, Note_on_c, 1, 67, 127
2, 86240, Note_on_c, 1, 91, 127
2, 86360, Note_off_c, 1, 67, 0
2, 86360, Note_off_c, 1, 91, 0
2, 86400, Note_on_c, 1, 69, 127
2, 86400, Note_on_c, 1, 84, 127
2, 86520, Note_off_c, 1, 69, 0
2, 86520, Note_off_c, 1, 84, 0
2, 86560, Note_on_c, 1, 69, 127
2, 86560, Note_on_c, 1, 84, 127
2, 86680, Note_off_c, 1, 69, 0
2, 86680, Note_off_c, 1, 84, 0
2, 86720, Note_on_c, 1, 60, 127
2, 86720, Note_on_c, 1, 80, 127
2, 86800, Note_off_c, 1, 60, 0
2, 86800, Note_off_c, 1, 80, 0
2, 86840, Note_on_c, 1, 60, 127
2, 86840, Note_on_c, 1, 80, 127
2, 86880, Note_off_c, 1, 60, 0
2, 86880, Note_off_c, 1, 80, 0
2, 86920, Note_on_c, 1, 64, 127
2, 86920, Note_on_c, 1, 80, 127
2, 87040, Note_off_c, 1, 64, 0
2, 87040, Note_off_c, 1, 80, 0
2, 87080, Note_on_c, 1, 60, 127
2, 87200, Note_off_c, 1, 60, 0
2, 87240, Note_on_c, 1, 64, 127
2, 87360, Note_off_c, 1, 64, 0
2, 87400, Note_on_c, 1, 60, 127
2, 87400, Note_on_c, 1, 69, 127
2, 87520, Note_off_c, 1, 60, 0
2, 87520, Note_off_c, 1, 69, 0
2, 87560, Note_on_c, 1, 71, 127
2, 87680, Note_off_c, 1, 71, 0
2, 87720, Note_on_c, 1, 72, 127
2, 87840, Note_off_c, 1, 72, 0
2, 87880, Note_on_c, 1, 59, 127
2, 87880, Note_on_c, 1, 71, 127
2, 88000, Note_off_c, 1, 59, 0
2, 88000, Note_off_c, 1, 71, 0
2, 88040, Note_on_c, 1, 81, 127
2, 88160, Note_off_c, 1, 81, 0
2, 88200, Note_on_c, 1, 71, 127
2, 88320, Note_off_c, 1, 71, 0
2, 88360, Note_on_c, 1, 54, 127
2, 88360, Note_on_c, 1, 81, 127
2, 88480, Note_off_c, 1, 54, 0
2, 88480, Note_off_c, 1, 81, 0
2, 88520, Note_on_c, 1, 57, 127
2, 88520, Note_on_c, 1, 75, 127
2, 88640, Note_off_c, 1, 57, 0
2, 88640, Note_off_c, 1, 75, 0
2, 88680, Note_on_c, 1, 66, 127
2, 88800, Note_off_c, 1, 66, 0
2, 88840, Note_on_c, 1, 69, 127
2, 88880, Note_off_c, 1, 69, 0
2, 88920, Note_on_c, 1, 69, 127
2, 89000, Note_off_c, 1, 69, 0
2, 89040, Note_on_c, 1, 53, 127
2, 89040, Note_on_c, 1, 77, 127
2, 89160, Note_off_c, 1, 53, 0
2, 89160, Note_off_c, 1, 77, 0
2, 89200, Note_on_c, 1, 54, 127
2, 89200, Note_on_c, 1, 69, 127
2, 89320, Note_off_c, 1, 54, 0
2, 89320, Note_off_c, 1, 69, 0
2, 89360, Note_on_c, 1, 81, 127
2, 89480, Note_off_c, 1, 81, 0
2, 89520, Note_on_c, 1, 82, 127
2, 89640, Note_off_c, 1, 82, 0
2, 89680, Note_on_c, 1, 69, 127
2, 89800, Note_off_c, 1, 69, 0
2, 89840, Note_on_c, 1, 80, 127
2, 89960, Note_off_c, 1, 80, 0
2, 90000, Note_on_c, 1, 70, 127
2, 90120, Note_off_c, 1, 70, 0
2, 90160, Note_on_c, 1, 81, 127
2, 90280, Note_off_c, 1, 81, 0
2, 90320, Note_on_c, 1, 53, 127
2, 90320, Note_on_c, 1, 69, 127
2, 90440, Note_off_c, 1, 53, 0
2, 90440, Note_off_c, 1, 69, 0
2, 90480, Note_on_c, 1, 57, 127
2, 90600, Note_off_c, 1, 57, 0
2, 90640, Note_on_c, 1, 53, 127
2, 90760, Note_off_c, 1, 53, 0
2, 90800, Note_on_c, 1, 88, 127
2, 90920, Note_off_c, 1, 88, 0
2, 91000, Note_on_c, 1, 55, 127
2, 91120, Note_off_c, 1, 55, 0
2, 91160, Note_on_c, 1, 88, 127
2, 91280, Note_off_c, 1, 88, 0
2, 91320, Note_on_c, 1, 67, 127
2, 91320, Note_on_c, 1, 90, 127
2, 91440, Note_off_c, 1, 67, 0
2, 91440, Note_off_c, 1, 90, 0
2, 91480, Note_on_c, 1, 64, 127
2, 91480, Note_on_c, 1, 86, 127
2, 91600, Note_off_c, 1, 64, 0
2, 91600, Note_off_c, 1, 86, 0
2, 91640, Note_on_c, 1, 69, 127
2, 91640, Note_on_c, 1, 85, 127
2, 91760, Note_off_c, 1, 69, 0
2, 91760, Note_off_c, 1, 85, 0
2, 91800, Note_on_c, 1, 74, 127
2, 91800, Note_on_c, 1, 90, 127
2, 91920, Note_off_c, 1, 74, 0
2, 91920, Note_off_c, 1, 90, 0
2, 91960, Note_on_c, 1, 73, 127
2, 91960, Note_on_c, 1, 88, 127
2, 92080, Note_off_c, 1, 73, 0
2, 92080, Note_off_c, 1, 88, 0
2, 92120, Note_on_c, 1, 71, 127
2, 92120, Note_on_c, 1, 86, 127
2, 92240, Note_off_c, 1, 71, 0
2, 92240, Note_off_c, 1, 86, 0
2, 92280, Note_on_c, 1, 69, 127
2, 92280, Note_on_c, 1, 87, 127
2, 92400, Note_off_c, 1, 69, 0
2, 92400, Note_off_c, 1, 87, 0
2, 92440, Note_on_c, 1, 68, 127
2, 92440, Note_on_c, 1, 86, 127
2, 92520, Note_off_c, 1, 68, 0
2, 92520, Note_off_c, 1, 86, 0
2, 92560, Note_on_c, 1, 69, 127
2, 92560, Note_on_c, 1, 85, 127
2, 92680, Note_off_c, 1, 69, 0
2, 92680, Note_off_c, 1, 85, 0
2, 92720, Note_on_c, 1, 68, 127
2, 92720, Note_on_c, 1, 83, 127
2, 92840, Note_off_c, 1, 68, 0
2, 92840, Note_off_c, 1, 83, 0
2, 92920, Note_on_c, 1, 69, 127
2, 93040, Note_off_c, 1, 69, 0
2, 93080, Note_on_c, 1, 68, 127
2, 93080, Note_on_c, 1, 83, 127
2, 93200, Note_off_c, 1, 68, 0
2, 93200, Note_off_c, 1, 83, 0
2, 93240, Note_on_c, 1, 71, 127
2, 93360, Note_off_c, 1, 71, 0
2, 93400, Note_on_c, 1, 61, 127
2, 93400, Note_on_c, 1, 81, 127
2, 93520, Note_off_c, 1, 61, 0
2, 93520, Note_off_c, 1, 81, 0
2, 93560, Note_on_c, 1, 69, 127
2, 93680, Note_off_c, 1, 69, 0
2, 93720, Note_on_c, 1, 62, 127
2, 93720, Note_on_c, 1, 83, 127
2, 93840, Note_off_c, 1, 62, 0
2, 93840, Note_off_c, 1, 83, 0
2, 93880, Note_on_c, 1, 71, 127
2, 94000, Note_off_c, 1, 71, 0
2, 94040, Note_on_c, 1, 61, 127
2, 94040, Note_on_c, 1, 81, 127
2, 94160, Note_off_c, 1, 61, 0
2, 94160, Note_off_c, 1, 81, 0
2, 94200, Note_on_c, 1, 69, 127
2, 94320, Note_off_c, 1, 69, 0
2, 94360, Note_on_c, 1, 71, 127
2, 94480, Note_off_c, 1, 71, 0
2, 94520, Note_on_c, 1, 66, 127
2, 94520, Note_on_c, 1, 81, 127
2, 94600, Note_off_c, 1, 66, 0
2, 94600, Note_off_c, 1, 81, 0
2, 94640, Note_on_c, 1, 68, 127
2, 94640, Note_on_c, 1, 83, 127
2, 94760, Note_off_c, 1, 68, 0
2, 94760, Note_off_c, 1, 83, 0
2, 94800, Note_on_c, 1, 69, 127
2, 94920, Note_off_c, 1, 69, 0
2, 94960, Note_on_c, 1, 88, 127
2, 95080, Note_off_c, 1, 88, 0
2, 95160, Note_on_c, 1, 70, 127
2, 95160, Note_on_c, 1, 88, 127
2, 95280, Note_off_c, 1, 70, 0
2, 95280, Note_off_c, 1, 88, 0
2, 95320, Note_on_c, 1, 88, 127
2, 95480, Note_on_c, 1, 61, 127
2, 95600, Note_off_c, 1, 61, 0
2, 95640, Note_on_c, 1, 69, 127
2, 95760, Note_off_c, 1, 69, 0
2, 95760, Note_off_c, 1, 88, 0
2, 95800, Note_on_c, 1, 66, 127
2, 95800, Note_on_c, 1, 86, 127
2, 95880, Note_off_c, 1, 66, 0
2, 95920, Note_on_c, 1, 68, 127
2, 96040, Note_off_c, 1, 68, 0
2, 96040, Note_off_c, 1, 86, 0
2, 96080, Note_on_c, 1, 66, 127
2, 96080, Note_on_c, 1, 86, 127
2, 96120, Note_off_c, 1, 86, 0
2, 96200, Note_off_c, 1, 66, 0
2, 96240, Note_on_c, 1, 69, 127
2, 96240, Note_on_c, 1, 87, 127
2, 96280, Note_off_c, 1, 87, 0
2, 96320, Note_on_c, 1, 87, 127
2, 96360, Note_off_c, 1, 69, 0
2, 96360, Note_off_c, 1, 87, 0
2, 96400, Note_on_c, 1, 71, 127
2, 96400, Note_on_c, 1, 86, 127
2, 96440, Note_off_c, 1, 86, 0
2, 96480, Note_on_c, 1, 88, 127
2, 96520, Note_off_c, 1, 71, 0
2, 96520, Note_off_c, 1, 88, 0
2, 96560, Note_on_c, 1, 73, 127
2, 96560, Note_on_c, 1, 85, 127
2, 96600, Note_on_c, 1, 68, 127
2, 96600, Note_off_c, 1, 73, 0
2, 96600, Note_off_c, 1, 85, 0
2, 96640, Note_on_c, 1, 83, 127
2, 96680, Note_off_c, 1, 68, 0
2, 96680, Note_off_c, 1, 83, 0
2, 96720, Note_on_c, 1, 69, 127
2, 96720, Note_on_c, 1, 85, 127
2, 96760, Note_off_c, 1, 85, 0
2, 96840, Note_off_c, 1, 69, 0
2, 96880, Note_on_c, 1, 69, 127
2, 96880, Note_on_c, 1, 86, 127
2, 96920, Note_off_c, 1, 86, 0
2, 97000, Note_off_c, 1, 69, 0
2, 97080, Note_on_c, 1, 69, 127
2, 97080, Note_on_c, 1, 85, 127
2, 97160, Note_off_c, 1, 85, 0
2, 97200, Note_off_c, 1, 69, 0
2, 97240, Note_on_c, 1, 59, 127
2, 97240, Note_on_c, 1, 86, 127
2, 97360, Note_off_c, 1, 59, 0
2, 97360, Note_off_c, 1, 86, 0
2, 97400, Note_on_c, 1, 68, 127
2, 97400, Note_on_c, 1, 86, 127
2, 97440, Note_off_c, 1, 86, 0
2, 97480, Note_on_c, 1, 83, 127
2, 97520, Note_off_c, 1, 68, 0
2, 97520, Note_off_c, 1, 83, 0
2, 97560, Note_on_c, 1, 69, 127
2, 97560, Note_on_c, 1, 85, 127
2, 97600, Note_off_c, 1, 85, 0
2, 97640, Note_on_c, 1, 87, 127
2, 97680, Note_off_c, 1, 69, 0
2, 97680, Note_off_c, 1, 87, 0
2, 97720, Note_on_c, 1, 64, 127
2, 97720, Note_on_c, 1, 88, 127
2, 97760, Note_off_c, 1, 88, 0
2, 97800, Note_on_c, 1, 87, 127
2, 97840, Note_off_c, 1, 64, 0
2, 97840, Note_off_c, 1, 87, 0
2, 97880, Note_on_c, 1, 69, 127
2, 97880, Note_on_c, 1, 85, 127
2, 97920, Note_off_c, 1, 85, 0
2, 97960, Note_on_c, 1, 87, 127
2, 98000, Note_off_c, 1, 69, 0
2, 98000, Note_off_c, 1, 87, 0
2, 98040, Note_on_c, 1, 69, 127
2, 98040, Note_on_c, 1, 85, 127
2, 98080, Note_off_c, 1, 85, 0
2, 98120, Note_on_c, 1, 88, 127
2, 98160, Note_off_c, 1, 69, 0
2, 98160, Note_off_c, 1, 88, 0
2, 98200, Note_on_c, 1, 68, 127
2, 98200, Note_on_c, 1, 83, 127
2, 98240, Note_off_c, 1, 83, 0
2, 98280, Note_on_c, 1, 87, 127
2, 98320, Note_off_c, 1, 68, 0
2, 98320, Note_off_c, 1, 87, 0
2, 98360, Note_on_c, 1, 62, 127
2, 98360, Note_on_c, 1, 86, 127
2, 98480, Note_off_c, 1, 62, 0
2, 98480, Note_off_c, 1, 86, 0
2, 98520, Note_on_c, 1, 69, 127
2, 98520, Note_on_c, 1, 85, 127
2, 98560, Note_off_c, 1, 85, 0
2, 98640, Note_off_c, 1, 69, 0
2, 98640, Note_on_c, 1, 85, 127
2, 98680, Note_on_c, 1, 64, 127
2, 98720, Note_off_c, 1, 64, 0
2, 98840, Note_on_c, 1, 61, 127
2, 98920, Note_off_c, 1, 61, 0
2, 98920, Note_off_c, 1, 85, 0
2, 98960, Note_on_c, 1, 61, 127
2, 98960, Note_on_c, 1, 85, 127
2, 99000, Note_off_c, 1, 61, 0
2, 99040, Note_on_c, 1, 64, 127
2, 99160, Note_off_c, 1, 64, 0
2, 99160, Note_off_c, 1, 85, 0
2, 99200, Note_on_c, 1, 61, 127
2, 99320, Note_off_c, 1, 61, 0
2, 99360, Note_on_c, 1, 65, 127
2, 99480, Note_off_c, 1, 65, 0
2, 99520, Note_on_c, 1, 57, 127
2, 99520, Note_on_c, 1, 85, 127
2, 99640, Note_off_c, 1, 57, 0
2, 99680, Note_on_c, 1, 64, 127
2, 99800, Note_off_c, 1, 64, 0
2, 99800, Note_off_c, 1, 85, 0
2, 99840, Note_on_c, 1, 59, 127
2, 99840, Note_on_c, 1, 83, 127
2, 99960, Note_off_c, 1, 59, 0
2, 100000, Note_on_c, 1, 68, 127
2, 100120, Note_off_c, 1, 68, 0
2, 100120, Note_off_c, 1, 83, 0
2, 100160, Note_on_c, 1, 54, 127
2, 100280, Note_off_c, 1, 54, 0
2, 100320, Note_on_c, 1, 69, 127
2, 100320, Note_on_c, 1, 85, 127
2, 100440, Note_off_c, 1, 69, 0
2, 100480, Note_on_c, 1, 64, 127
2, 100560, Note_off_c, 1, 64, 0
2, 100600, Note_on_c, 1, 69, 127
2, 100720, Note_off_c, 1, 69, 0
2, 100720, Note_off_c, 1, 85, 0
2, 100760, Note_on_c, 1, 64, 127
2, 100760, Note_on_c, 1, 87, 127
2, 100880, Note_off_c, 1, 64, 0
2, 100880, Note_off_c, 1, 87, 0
2, 100920, Note_on_c, 1, 69, 127
2, 100920, Note_on_c, 1, 85, 127
2, 101040, Note_off_c, 1, 69, 0
2, 101040, Note_off_c, 1, 85, 0
2, 101120, Note_on_c, 1, 73, 127
2, 101120, Note_on_c, 1, 81, 127
2, 101240, Note_off_c, 1, 73, 0
2, 101240, Note_off_c, 1, 81, 0
2, 101280, Note_on_c, 1, 68, 127
2, 101400, Note_off_c, 1, 68, 0
2, 101440, Note_on_c, 1, 73, 127
2, 101440, Note_on_c, 1, 81, 127
2, 101560, Note_off_c, 1, 73, 0
2, 101560, Note_off_c, 1, 81, 0
2, 101600, Note_on_c, 1, 71, 127
2, 101840, Note_off_c, 1, 71, 0
2, 101880, Note_on_c, 1, 73, 127
2, 101880, Note_on_c, 1, 81, 127
2, 101920, Note_off_c, 1, 81, 0
2, 102000, Note_off_c, 1, 73, 0
2, 102040, Note_on_c, 1, 76, 127
2, 102040, Note_on_c, 1, 85, 127
2, 102160, Note_off_c, 1, 76, 0
2, 102160, Note_off_c, 1, 85, 0
2, 102200, Note_on_c, 1, 69, 127
2, 102320, Note_off_c, 1, 69, 0
2, 102360, Note_on_c, 1, 93, 127
2, 102480, Note_off_c, 1, 93, 0
2, 102520, Note_on_c, 1, 69, 127
2, 102520, Note_on_c, 1, 87, 127
2, 102640, Note_off_c, 1, 69, 0
2, 102640, Note_off_c, 1, 87, 0
2, 102680, Note_on_c, 1, 69, 127
2, 102800, Note_off_c, 1, 69, 0
2, 102840, Note_on_c, 1, 90, 127
2, 102920, Note_off_c, 1, 90, 0
2, 102960, Note_on_c, 1, 61, 127
2, 102960, Note_on_c, 1, 92, 127
2, 103040, Note_off_c, 1, 61, 0
2, 103040, Note_off_c, 1, 92, 0
2, 103080, Note_on_c, 1, 61, 127
2, 103080, Note_on_c, 1, 92, 127
2, 103120, Note_off_c, 1, 61, 0
2, 103120, Note_off_c, 1, 92, 0
2, 103160, Note_on_c, 1, 73, 127
2, 103280, Note_off_c, 1, 73, 0
2, 103320, Note_on_c, 1, 61, 127
2, 103320, Note_on_c, 1, 85, 127
2, 103440, Note_off_c, 1, 61, 0
2, 103440, Note_off_c, 1, 85, 0
2, 103480, Note_on_c, 1, 73, 127
2, 103920, Note_off_c, 1, 73, 0
2, 103960, Note_on_c, 1, 57, 127
2, 103960, Note_on_c, 1, 69, 127
2, 103960, Note_on_c, 1, 73, 127
2, 104080, Note_off_c, 1, 57, 0
2, 104080, Note_off_c, 1, 69, 0
2, 104080, Note_off_c, 1, 73, 0
2, 104280, Note_on_c, 1, 69, 127
2, 104560, Note_off_c, 1, 69, 0
2, 104600, Note_on_c, 1, 73, 127
2, 104760, Note_on_c, 1, 69, 127
2, 104920, Note_on_c, 1, 81, 127
2, 105040, Note_off_c, 1, 69, 0
2, 105040, Note_off_c, 1, 73, 0
2, 105040, Note_off_c, 1, 81, 0
2, 105080, Note_on_c, 1, 69, 127
2, 105080, Note_on_c, 1, 74, 127
2, 105080, Note_on_c, 1, 86, 127
2, 105200, Note_off_c, 1, 69, 0
2, 105200, Note_off_c, 1, 74, 0
2, 105200, Note_off_c, 1, 86, 0
2, 105240, Note_on_c, 1, 69, 127
2, 105240, Note_on_c, 1, 74, 127
2, 105240, Note_on_c, 1, 86, 127
2, 105520, Note_off_c, 1, 74, 0
2, 105520, Note_on_c, 1, 81, 127
2, 105520, Note_off_c, 1, 86, 0
2, 105560, Note_on_c, 1, 74, 127
2, 105560, Note_off_c, 1, 81, 0
2, 105560, Note_on_c, 1, 86, 127
2, 105680, Note_off_c, 1, 69, 0
2, 105680, Note_off_c, 1, 74, 0
2, 105680, Note_off_c, 1, 86, 0
2, 105720, Note_on_c, 1, 85, 127
2, 105840, Note_off_c, 1, 85, 0
2, 105880, Note_on_c, 1, 62, 127
2, 105880, Note_on_c, 1, 66, 127
2, 105880, Note_on_c, 1, 83, 127
2, 105920, Note_off_c, 1, 83, 0
2, 105960, Note_on_c, 1, 83, 127
2, 106000, Note_off_c, 1, 62, 0
2, 106000, Note_off_c, 1, 66, 0
2, 106000, Note_off_c, 1, 83, 0
2, 106040, Note_on_c, 1, 57, 127
2, 106040, Note_on_c, 1, 66, 127
2, 106040, Note_on_c, 1, 81, 127
2, 106080, Note_off_c, 1, 81, 0
2, 106120, Note_on_c, 1, 83, 127
2, 106160, Note_off_c, 1, 57, 0
2, 106160, Note_off_c, 1, 66, 0
2, 106160, Note_off_c, 1, 83, 0
2, 106200, Note_on_c, 1, 62, 127
2, 106200, Note_on_c, 1, 66, 127
2, 106200, Note_on_c, 1, 85, 127
2, 106240, Note_off_c, 1, 85, 0
2, 106280, Note_on_c, 1, 86, 127
2, 106320, Note_off_c, 1, 62, 0
2, 106320, Note_off_c, 1, 66, 0
2, 106320, Note_off_c, 1, 86, 0
2, 106360, Note_on_c, 1, 57, 127
2, 106360, Note_on_c, 1, 61, 127
2, 106360, Note_on_c, 1, 85, 127
2, 106400, Note_off_c, 1, 85, 0
2, 106440, Note_off_c, 1, 61, 0
2, 106440, Note_on_c, 1, 76, 127
2, 106440, Note_on_c, 1, 85, 127
2, 106480, Note_off_c, 1, 57, 0
2, 106480, Note_off_c, 1, 76, 0
2, 106480, Note_off_c, 1, 85, 0
2, 106520, Note_on_c, 1, 57, 127
2, 106520, Note_on_c, 1, 67, 127
2, 106520, Note_on_c, 1, 85, 127
2, 107080, Note_on_c, 1, 50, 127
2, 107080, Note_off_c, 1, 57, 0
2, 107080, Note_on_c, 1, 59, 127
2, 107080, Note_off_c, 1, 67, 0
2, 107080, Note_off_c, 1, 85, 0
2, 107120, Note_on_c, 1, 79, 127
2, 107160, Note_off_c, 1, 50, 0
2, 107160, Note_off_c, 1, 59, 0
2, 107160, Note_off_c, 1, 79, 0
2, 107200, Note_on_c, 1, 50, 127
2, 107200, Note_on_c, 1, 59, 127
2, 107200, Note_on_c, 1, 79, 127
2, 107440, Note_off_c, 1, 50, 0
2, 107440, Note_off_c, 1, 59, 0
2, 107440, Note_off_c, 1, 79, 0
2, 107480, Note_on_c, 1, 56, 127
2, 107480, Note_on_c, 1, 62, 127
2, 107480, Note_on_c, 1, 76, 127
2, 107720, Note_off_c, 1, 76, 0
2, 107760, Note_on_c, 1, 59, 127
2, 107760, Note_off_c, 1, 62, 0
2, 107760, Note_on_c, 1, 78, 127
2, 108040, Note_off_c, 1, 56, 0
2, 108040, Note_off_c, 1, 59, 0
2, 108040, Note_off_c, 1, 78, 0
2, 108080, Note_on_c, 1, 76, 127
2, 108360, Note_off_c, 1, 76, 0
2, 108400, Note_on_c, 1, 59, 127
2, 108400, Note_on_c, 1, 80, 127
2, 108400, Note_on_c, 1, 81, 127
2, 108520, Note_off_c, 1, 80, 0
2, 108560, Note_on_c, 1, 80, 127
2, 108600, Note_off_c, 1, 80, 0
2, 108640, Note_on_c, 1, 78, 127
2, 108640, Note_on_c, 1, 80, 127
2, 108640, Note_off_c, 1, 81, 0
2, 108720, Note_off_c, 1, 78, 0
2, 108760, Note_on_c, 1, 81, 127
2, 108800, Note_off_c, 1, 81, 0
2, 108840, Note_on_c, 1, 81, 127
2, 108880, Note_off_c, 1, 81, 0
2, 108920, Note_on_c, 1, 81, 127
2, 108960, Note_off_c, 1, 59, 0
2, 108960, Note_on_c, 1, 78, 127
2, 108960, Note_off_c, 1, 81, 0
2, 109000, Note_on_c, 1, 59, 127
2, 109000, Note_off_c, 1, 80, 0
2, 109200, Note_off_c, 1, 78, 0
2, 109240, Note_off_c, 1, 59, 0
2, 109280, Note_on_c, 1, 59, 127
2, 109280, Note_on_c, 1, 81, 127
2, 109320, Note_off_c, 1, 59, 0
2, 109320, Note_off_c, 1, 81, 0
2, 109360, Note_on_c, 1, 64, 127
2, 109360, Note_on_c, 1, 80, 127
2, 109640, Note_off_c, 1, 64, 0
2, 109640, Note_off_c, 1, 80, 0
2, 109680, Note_on_c, 1, 53, 127
2, 109680, Note_on_c, 1, 71, 127
2, 109680, Note_on_c, 1, 80, 127
2, 109800, Note_off_c, 1, 53, 0
2, 109800, Note_off_c, 1, 71, 0
2, 109800, Note_off_c, 1, 80, 0
2, 110000, Note_on_c, 1, 59, 127
2, 110000, Note_on_c, 1, 69, 127
2, 110000, Note_on_c, 1, 71, 127
2, 110000, Note_on_c, 1, 78, 127
2, 110160, Note_off_c, 1, 59, 0
2, 110160, Note_off_c, 1, 69, 0
2, 110160, Note_off_c, 1, 71, 0
2, 110160, Note_off_c, 1, 78, 0
2, 110320, Note_on_c, 1, 59, 127
2, 110320, Note_on_c, 1, 69, 127
2, 110320, Note_on_c, 1, 71, 127
2, 110320, Note_on_c, 1, 78, 127
2, 110520, Note_off_c, 1, 59, 0
2, 110520, Note_off_c, 1, 69, 0
2, 110520, Note_off_c, 1, 71, 0
2, 110520, Note_off_c, 1, 78, 0
2, 110640, Note_on_c, 1, 59, 127
2, 110640, Note_on_c, 1, 69, 127
2, 110640, Note_on_c, 1, 71, 127
2, 110640, Note_on_c, 1, 78, 127
2, 110840, Note_off_c, 1, 71, 0
2, 110840, Note_off_c, 1, 78, 0
2, 110880, Note_on_c, 1, 75, 127
2, 110920, Note_off_c, 1, 59, 0
2, 110920, Note_off_c, 1, 69, 0
2, 110920, Note_off_c, 1, 75, 0
2, 110960, Note_on_c, 1, 64, 127
2, 110960, Note_on_c, 1, 68, 127
2, 110960, Note_on_c, 1, 76, 127
2, 111000, Note_off_c, 1, 76, 0
2, 111040, Note_on_c, 1, 74, 127
2, 111080, Note_off_c, 1, 74, 0
2, 111120, Note_on_c, 1, 74, 127
2, 111160, Note_off_c, 1, 74, 0
2, 111200, Note_on_c, 1, 83, 127
2, 111240, Note_off_c, 1, 64, 0
2, 111240, Note_off_c, 1, 68, 0
2, 111240, Note_off_c, 1, 83, 0
2, 111280, Note_on_c, 1, 83, 127
2, 111320, Note_off_c, 1, 83, 0
2, 111360, Note_on_c, 1, 80, 127
2, 111440, Note_off_c, 1, 80, 0
2, 111480, Note_on_c, 1, 76, 127
2, 111520, Note_off_c, 1, 76, 0
2, 111560, Note_on_c, 1, 75, 127
2, 111600, Note_off_c, 1, 75, 0
2, 111640, Note_on_c, 1, 57, 127
2, 111640, Note_on_c, 1, 64, 127
2, 111640, Note_on_c, 1, 74, 127
2, 111880, Note_off_c, 1, 74, 0
2, 111920, Note_on_c, 1, 73, 127
2, 112040, Note_off_c, 1, 64, 0
2, 112040, Note_off_c, 1, 73, 0
2, 112080, Note_on_c, 1, 73, 127
2, 112120, Note_off_c, 1, 73, 0
2, 112160, Note_on_c, 1, 64, 127
2, 112200, Note_off_c, 1, 57, 0
2, 112200, Note_off_c, 1, 64, 0
2, 112240, Note_on_c, 1, 59, 127
2, 112240, Note_on_c, 1, 64, 127
2, 112240, Note_on_c, 1, 68, 127
2, 112240, Note_on_c, 1, 76, 127
2, 112360, Note_off_c, 1, 76, 0
2, 112400, Note_on_c, 1, 74, 127
2, 112520, Note_off_c, 1, 59, 0
2, 112520, Note_off_c, 1, 68, 0
2, 112520, Note_off_c, 1, 74, 0
2, 112560, Note_on_c, 1, 57, 127
2, 112560, Note_on_c, 1, 69, 127
2, 112560, Note_on_c, 1, 73, 127
2, 112680, Note_off_c, 1, 57, 0
2, 112680, Note_off_c, 1, 64, 0
2, 112680, Note_off_c, 1, 69, 0
2, 112680, Note_off_c, 1, 73, 0
2, 112720, Note_on_c, 1, 52, 127
2, 112720, Note_on_c, 1, 69, 127
2, 112720, Note_on_c, 1, 73, 127
2, 112840, Note_off_c, 1, 52, 0
2, 112840, Note_off_c, 1, 69, 0
2, 112840, Note_off_c, 1, 73, 0
2, 112880, Note_on_c, 1, 64, 127
2, 112880, Note_on_c, 1, 68, 127
2, 112880, Note_on_c, 1, 71, 127
2, 112960, Note_off_c, 1, 64, 0
2, 112960, Note_off_c, 1, 68, 0
2, 112960, Note_off_c, 1, 71, 0
2, 113200, Note_on_c, 1, 57, 127
2, 113200, Note_on_c, 1, 72, 127
2, 113200, Note_on_c, 1, 76, 127
2, 113320, Note_off_c, 1, 57, 0
2, 113320, Note_off_c, 1, 72, 0
2, 113320, Note_off_c, 1, 76, 0
2, 113520, Note_on_c, 1, 57, 127
2, 113520, Note_on_c, 1, 60, 127
2, 113520, Note_on_c, 1, 69, 127
2, 113520, Note_on_c, 1, 76, 127
2, 113640, Note_off_c, 1, 76, 0
2, 113680, Note_on_c, 1, 76, 127
2, 113800, Note_off_c, 1, 57, 0
2, 113800, Note_off_c, 1, 60, 0
2, 113800, Note_off_c, 1, 69, 0
2, 113800, Note_off_c, 1, 76, 0
2, 113840, Note_on_c, 1, 57, 127
2, 113840, Note_on_c, 1, 60, 127
2, 113840, Note_on_c, 1, 69, 127
2, 113840, Note_on_c, 1, 76, 127
2, 114120, Note_off_c, 1, 57, 0
2, 114120, Note_off_c, 1, 60, 0
2, 114120, Note_off_c, 1, 69, 0
2, 114120, Note_off_c, 1, 76, 0
2, 114160, Note_on_c, 1, 57, 127
2, 114160, Note_on_c, 1, 61, 127
2, 114160, Note_on_c, 1, 69, 127
2, 114160, Note_on_c, 1, 73, 127
2, 114400, Note_off_c, 1, 57, 0
2, 114400, Note_off_c, 1, 61, 0
2, 114400, Note_off_c, 1, 69, 0
2, 114400, Note_off_c, 1, 73, 0
2, 114440, Note_on_c, 1, 46, 127
2, 114600, Note_off_c, 1, 46, 0
2, 114760, Note_on_c, 1, 52, 127
2, 114760, Note_on_c, 1, 64, 127
2, 114760, Note_on_c, 1, 69, 127
2, 114760, Note_on_c, 1, 72, 127
2, 115000, Note_off_c, 1, 52, 0
2, 115000, Note_off_c, 1, 64, 0
2, 115000, Note_off_c, 1, 69, 0
2, 115000, Note_off_c, 1, 72, 0
2, 115040, Note_on_c, 1, 57, 127
2, 115040, Note_on_c, 1, 64, 127
2, 115040, Note_on_c, 1, 69, 127
2, 115040, Note_on_c, 1, 72, 127
2, 115320, Note_off_c, 1, 57, 0
2, 115320, Note_off_c, 1, 64, 0
2, 115320, Note_off_c, 1, 69, 0
2, 115320, Note_off_c, 1, 72, 0
2, 115400, Note_on_c, 1, 45, 127
2, 115520, Note_off_c, 1, 45, 0
2, 115720, Note_on_c, 1, 57, 127
2, 115720, Note_on_c, 1, 61, 127
2, 115720, Note_on_c, 1, 64, 127
2, 115880, Note_on_c, 1, 69, 127
2, 115960, Note_off_c, 1, 57, 0
2, 115960, Note_off_c, 1, 61, 0
2, 115960, Note_off_c, 1, 64, 0
2, 115960, Note_off_c, 1, 69, 0
2, 116000, Note_on_c, 1, 57, 127
2, 116000, Note_on_c, 1, 61, 127
2, 116120, Note_off_c, 1, 57, 0
2, 116120, Note_off_c, 1, 61, 0
2, 116160, Note_on_c, 1, 57, 127
2, 116160, Note_on_c, 1, 61, 127
2, 116160, Note_on_c, 1, 64, 127
2, 116440, Note_off_c, 1, 57, 0
2, 116440, Note_off_c, 1, 61, 0
2, 116440, Note_off_c, 1, 64, 0
2, 116480, Note_on_c, 1, 45, 127
2, 116640, Note_on_c, 1, 57, 127
2, 116640, Note_on_c, 1, 61, 127
2, 116640, Note_on_c, 1, 66, 127
2, 116880, Note_off_c, 1, 57, 0
2, 116880, Note_off_c, 1, 61, 0
2, 116880, Note_off_c, 1, 66, 0
2, 116920, Note_on_c, 1, 57, 127
2, 116920, Note_on_c, 1, 61, 127
2, 116920, Note_on_c, 1, 66, 127
2, 117200, Note_off_c, 1, 45, 0
2, 117200, Note_off_c, 1, 57, 0
2, 117200, Note_off_c, 1, 61, 0
2, 117200, Note_off_c, 1, 66, 0
2, 117240, Note_on_c, 1, 33, 127
2, 117480, Note_off_c, 1, 33, 0
2, 117760, Note_on_c, 1, 61, 127
2, 117880, Note_on_c, 1, 54, 127
2, 117880, Note_on_c, 1, 60, 127
2, 117880, Note_off_c, 1, 61, 0
2, 118040, Note_off_c, 1, 54, 0
2, 118040, Note_off_c, 1, 60, 0
2, 118080, Note_on_c, 1, 54, 127
2, 118080, Note_on_c, 1, 61, 127
2, 118200, Note_off_c, 1, 54, 0
2, 118200, Note_off_c, 1, 61, 0
2, 118400, Note_on_c, 1, 69, 127
2, 118400, Note_on_c, 1, 78, 127
2, 118640, Note_off_c, 1, 69, 0
2, 118640, Note_off_c, 1, 78, 0
2, 118680, Note_on_c, 1, 57, 127
2, 118680, Note_on_c, 1, 76, 127
2, 118720, Note_off_c, 1, 76, 0
2, 118760, Note_on_c, 1, 76, 127
2, 118800, Note_off_c, 1, 76, 0
2, 118840, Note_on_c, 1, 76, 127
2, 118880, Note_off_c, 1, 76, 0
2, 118920, Note_on_c, 1, 78, 127
2, 118960, Note_off_c, 1, 57, 0
2, 118960, Note_off_c, 1, 78, 0
2, 119000, Note_on_c, 1, 66, 127
2, 119000, Note_on_c, 1, 74, 127
2, 119000, Note_on_c, 1, 78, 127
2, 119280, Note_off_c, 1, 66, 0
2, 119280, Note_off_c, 1, 74, 0
2, 119280, Note_off_c, 1, 78, 0
2, 119320, Note_on_c, 1, 45, 127
2, 119440, Note_off_c, 1, 45, 0
2, 119640, Note_on_c, 1, 45, 127
2, 119640, Note_on_c, 1, 57, 127
2, 119640, Note_on_c, 1, 69, 127
2, 119760, Note_off_c, 1, 45, 0
2, 119760, Note_off_c, 1, 57, 0
2, 119760, Note_off_c, 1, 69, 0
2, 119800, Note_on_c, 1, 45, 127
2, 119800, Note_on_c, 1, 57, 127
2, 119800, Note_on_c, 1, 69, 127
2, 119960, Note_off_c, 1, 45, 0
2, 119960, Note_off_c, 1, 57, 0
2, 119960, Note_off_c, 1, 69, 0
2, 120040, End_track
3, 0, Start_track
3, 0, Title_t, "MIDI"
3, 1536, End_track
0, 0, End_of_file
