0, 0, Header, 1, 3, 192
1, 0, Start_track
1, 0, Time_signature, 4, 2, 24, 8
1, 0, Tempo, 500000
1, 120040, End_track
2, 0, Start_track
2, 0, Text_t, "random instrument: random person i dunno whatev"
2, 0, Title_t, "Track 1"
2, 0, Note_on_c, 1, 55, 127
2, 0, Note_on_c, 1, 59, 127
2, 0, Note_on_c, 1, 62, 127
2, 0, Note_on_c, 1, 71, 127
2, 0, Note_on_c, 1, 79, 127
2, 40, Note_on_c, 1, 42, 127
2, 40, Note_on_c, 1, 49, 127
2, 40, Note_on_c, 1, 54, 127
2, 40, Note_off_c, 1, 55, 0
2, 40, Note_off_c, 1, 59, 0
2, 40, Note_off_c, 1, 62, 0
2, 40, Note_off_c, 1, 71, 0
2, 40, Note_off_c, 1, 79, 0
2, 40, Note_on_c, 1, 82, 127
2, 40, Note_on_c, 1, 88, 127
2, 40, Note_on_c, 1, 94, 127
2, 80, Note_off_c, 1, 42, 0
2, 80, Note_off_c, 1, 49, 0
2, 80, Note_off_c, 1, 54, 0
2, 80, Note_off_c, 1, 82, 0
2, 80, Note_off_c, 1, 88, 0
2, 80, Note_off_c, 1, 94, 0
2, 120, Note_on_c, 1, 58, 127
2, 120, Note_on_c, 1, 65, 127
2, 120, Note_on_c, 1, 70, 127
2, 120, Note_on_c, 1, 73, 127
2, 120, Note_on_c, 1, 80, 127
2, 160, Note_on_c, 1, 53, 127
2, 160, Note_on_c, 1, 56, 127
2, 160, Note_off_c, 1, 58, 0
2, 160, Note_on_c, 1, 63, 127
2, 160, Note_off_c, 1, 65, 0
2, 160, Note_off_c, 1, 70, 0
2, 160, Note_on_c, 1, 83, 127
2, 200, Note_on_c, 1, 33, 127
2, 200, Note_on_c, 1, 37, 127
2, 200, Note_on_c, 1, 40, 127
2, 200, Note_on_c, 1, 45, 127
2, 200, Note_off_c, 1, 53, 0
2, 200, Note_off_c, 1, 56, 0
2, 200, Note_on_c, 1, 57, 127
2, 200, Note_on_c, 1, 61, 127
2, 200, Note_off_c, 1, 63, 0
2, 200, Note_on_c, 1, 64, 127
2, 200, Note_off_c, 1, 73, 0
2, 200, Note_off_c, 1, 80, 0
2, 200, Note_off_c, 1, 83, 0
2, 240, Note_off_c, 1, 33, 0
2, 240, Note_off_c, 1, 37, 0
2, 240, Note_off_c, 1, 40, 0
2, 240, Note_off_c, 1, 45, 0
2, 240, Note_off_c, 1, 57, 0
2, 240, Note_on_c, 1, 58, 127
2, 240, Note_off_c, 1, 61, 0
2, 240, Note_on_c, 1, 66, 127
2, 240, Note_on_c, 1, 73, 127
2, 240, Note_on_c, 1, 85, 127
2, 280, Note_on_c, 1, 35, 127
2, 280, Note_off_c, 1, 58, 0
2, 280, Note_off_c, 1, 64, 0
2, 280, Note_off_c, 1, 66, 0
2, 280, Note_on_c, 1, 67, 127
2, 280, Note_off_c, 1, 73, 0
2, 280, Note_on_c, 1, 78, 127
2, 280, Note_on_c, 1, 79, 127
2, 280, Note_off_c, 1, 85, 0
2, 320, Note_off_c, 1, 35, 0
2, 320, Note_on_c, 1, 58, 127
2, 320, Note_on_c, 1, 64, 127
2, 320, Note_on_c, 1, 66, 127
2, 320, Note_off_c, 1, 67, 0
2, 320, Note_on_c, 1, 73, 127
2, 320, Note_off_c, 1, 78, 0
2, 320, Note_off_c, 1, 79, 0
2, 320, Note_on_c, 1, 85, 127
2, 360, Note_off_c, 1, 58, 0
2, 360, Note_off_c, 1, 64, 0
2, 360, Note_off_c, 1, 66, 0
2, 360, Note_off_c, 1, 73, 0
2, 360, Note_off_c, 1, 85, 0
2, 400, Note_on_c, 1, 58, 127
2, 400, Note_on_c, 1, 70, 127
2, 600, Note_off_c, 1, 58, 0
2, 600, Note_off_c, 1, 70, 0
2, 640, Note_on_c, 1, 55, 127
2, 640, Note_on_c, 1, 67, 127
2, 800, Note_off_c, 1, 55, 0
2, 800, Note_off_c, 1, 67, 0
2, 880, Note_on_c, 1, 50, 127
2, 880, Note_on_c, 1, 55, 127
2, 880, Note_on_c, 1, 58, 127
2, 880, Note_on_c, 1, 62, 127
2, 1280, Note_on_c, 1, 38, 127
2, 1280, Note_off_c, 1, 50, 0
2, 1280, Note_on_c, 1, 54, 127
2, 1280, Note_off_c, 1, 55, 0
2, 1280, Note_off_c, 1, 58, 0
2, 1320, Note_off_c, 1, 38, 0
2, 1320, Note_off_c, 1, 54, 0
2, 1320, Note_off_c, 1, 62, 0
2, 1360, Note_on_c, 1, 50, 127
2, 1360, Note_on_c, 1, 57, 127
2, 1360, Note_on_c, 1, 62, 127
2, 1360, Note_on_c, 1, 67, 127
2, 1360, Note_on_c, 1, 71, 127
2, 2080, Note_off_c, 1, 50, 0
2, 2080, Note_off_c, 1, 57, 0
2, 2080, Note_off_c, 1, 62, 0
2, 2080, Note_off_c, 1, 67, 0
2, 2080, Note_off_c, 1, 71, 0
2, 2120, Note_on_c, 1, 50, 127
2, 2120, Note_on_c, 1, 57, 127
2, 2120, Note_on_c, 1, 62, 127
2, 2120, Note_on_c, 1, 67, 127
2, 2120, Note_on_c, 1, 71, 127
2, 2280, Note_off_c, 1, 50, 0
2, 2280, Note_off_c, 1, 57, 0
2, 2280, Note_off_c, 1, 62, 0
2, 2280, Note_off_c, 1, 67, 0
2, 2280, Note_off_c, 1, 71, 0
2, 2320, Note_on_c, 1, 50, 127
2, 2320, Note_on_c, 1, 57, 127
2, 2320, Note_on_c, 1, 62, 127
2, 2320, Note_on_c, 1, 66, 127
2, 2320, Note_on_c, 1, 69, 127
2, 2640, Note_off_c, 1, 50, 0
2, 2640, Note_off_c, 1, 57, 0
2, 2640, Note_off_c, 1, 62, 0
2, 2640, Note_off_c, 1, 66, 0
2, 2640, Note_off_c, 1, 69, 0
2, 2680, Note_on_c, 1, 38, 127
2, 2680, Note_on_c, 1, 50, 127
2, 2680, Note_on_c, 1, 64, 127
2, 2680, Note_on_c, 1, 71, 127
2, 2720, Note_off_c, 1, 38, 0
2, 2720, Note_off_c, 1, 50, 0
2, 2720, Note_off_c, 1, 64, 0
2, 2720, Note_off_c, 1, 71, 0
2, 2760, Note_on_c, 1, 47, 127
2, 2760, Note_on_c, 1, 54, 127
2, 2760, Note_on_c, 1, 63, 127
2, 2760, Note_on_c, 1, 70, 127
2, 2840, Note_off_c, 1, 47, 0
2, 2840, Note_off_c, 1, 54, 0
2, 2840, Note_off_c, 1, 63, 0
2, 2840, Note_off_c, 1, 70, 0
2, 2880, Note_on_c, 1, 47, 127
2, 2880, Note_on_c, 1, 54, 127
2, 2880, Note_on_c, 1, 63, 127
2, 2880, Note_on_c, 1, 70, 127
2, 2920, Note_off_c, 1, 47, 0
2, 2920, Note_off_c, 1, 54, 0
2, 2920, Note_off_c, 1, 63, 0
2, 2920, Note_off_c, 1, 70, 0
2, 2960, Note_on_c, 1, 42, 127
2, 2960, Note_on_c, 1, 54, 127
2, 2960, Note_on_c, 1, 64, 127
2, 2960, Note_on_c, 1, 70, 127
2, 3000, Note_off_c, 1, 42, 0
2, 3000, Note_off_c, 1, 54, 0
2, 3000, Note_off_c, 1, 64, 0
2, 3000, Note_off_c, 1, 70, 0
2, 3080, Note_on_c, 1, 39, 127
2, 3080, Note_on_c, 1, 51, 127
2, 3080, Note_on_c, 1, 58, 127
2, 3080, Note_on_c, 1, 66, 127
2, 3160, Note_off_c, 1, 39, 0
2, 3160, Note_off_c, 1, 51, 0
2, 3160, Note_off_c, 1, 58, 0
2, 3160, Note_off_c, 1, 66, 0
2, 3200, Note_on_c, 1, 39, 127
2, 3200, Note_on_c, 1, 51, 127
2, 3200, Note_on_c, 1, 58, 127
2, 3200, Note_on_c, 1, 66, 127
2, 3240, Note_off_c, 1, 39, 0
2, 3240, Note_off_c, 1, 51, 0
2, 3240, Note_off_c, 1, 58, 0
2, 3240, Note_off_c, 1, 66, 0
2, 3280, Note_on_c, 1, 41, 127
2, 3280, Note_on_c, 1, 53, 127
2, 3280, Note_on_c, 1, 61, 127
2, 3280, Note_on_c, 1, 65, 127
2, 3280, Note_on_c, 1, 70, 127
2, 3320, Note_off_c, 1, 41, 0
2, 3320, Note_off_c, 1, 53, 0
2, 3320, Note_off_c, 1, 61, 0
2, 3320, Note_off_c, 1, 65, 0
2, 3320, Note_off_c, 1, 70, 0
2, 3400, Note_on_c, 1, 33, 127
2, 3400, Note_on_c, 1, 45, 127
2, 3400, Note_on_c, 1, 64, 127
2, 3400, Note_on_c, 1, 71, 127
2, 3440, Note_off_c, 1, 33, 0
2, 3440, Note_off_c, 1, 45, 0
2, 3440, Note_off_c, 1, 64, 0
2, 3440, Note_off_c, 1, 71, 0
2, 3480, Note_on_c, 1, 33, 127
2, 3480, Note_on_c, 1, 45, 127
2, 3480, Note_on_c, 1, 79, 127
2, 3520, Note_off_c, 1, 33, 0
2, 3520, Note_off_c, 1, 45, 0
2, 3520, Note_on_c, 1, 57, 127
2, 3520, Note_on_c, 1, 60, 127
2, 3520, Note_on_c, 1, 65, 127
2, 3520, Note_on_c, 1, 69, 127
2, 3520, Note_off_c, 1, 79, 0
2, 3520, Note_on_c, 1, 81, 127
2, 3520, Note_on_c, 1, 86, 127
2, 3560, Note_on_c, 1, 48, 127
2, 3560, Note_on_c, 1, 52, 127
2, 3560, Note_off_c, 1, 57, 0
2, 3560, Note_off_c, 1, 60, 0
2, 3560, Note_off_c, 1, 65, 0
2, 3560, Note_on_c, 1, 67, 127
2, 3560, Note_off_c, 1, 69, 0
2, 3560, Note_on_c, 1, 73, 127
2, 3560, Note_off_c, 1, 81, 0
2, 3560, Note_off_c, 1, 86, 0
2, 3600, Note_off_c, 1, 48, 0
2, 3600, Note_off_c, 1, 67, 0
2, 3600, Note_on_c, 1, 69, 127
2, 3600, Note_on_c, 1, 72, 127
2, 3600, Note_off_c, 1, 73, 0
2, 3600, Note_on_c, 1, 75, 127
2, 3600, Note_on_c, 1, 78, 127
2, 3640, Note_on_c, 1, 49, 127
2, 3640, Note_off_c, 1, 52, 0
2, 3640, Note_on_c, 1, 56, 127
2, 3640, Note_on_c, 1, 65, 127
2, 3640, Note_off_c, 1, 69, 0
2, 3640, Note_on_c, 1, 70, 127
2, 3640, Note_off_c, 1, 72, 0
2, 3640, Note_on_c, 1, 73, 127
2, 3640, Note_off_c, 1, 75, 0
2, 3640, Note_off_c, 1, 78, 0
2, 3680, Note_off_c, 1, 49, 0
2, 3680, Note_off_c, 1, 56, 0
2, 3680, Note_off_c, 1, 65, 0
2, 3680, Note_off_c, 1, 70, 0
2, 3680, Note_off_c, 1, 73, 0
2, 3720, Note_on_c, 1, 61, 127
2, 3720, Note_on_c, 1, 63, 127
2, 3720, Note_on_c, 1, 67, 127
2, 3720, Note_on_c, 1, 70, 127
2, 3720, Note_on_c, 1, 75, 127
2, 3720, Note_on_c, 1, 87, 127
2, 3760, Note_off_c, 1, 61, 0
2, 3760, Note_off_c, 1, 63, 0
2, 3760, Note_off_c, 1, 67, 0
2, 3760, Note_off_c, 1, 70, 0
2, 3760, Note_off_c, 1, 75, 0
2, 3760, Note_off_c, 1, 87, 0
2, 3800, Note_on_c, 1, 48, 127
2, 3800, Note_on_c, 1, 53, 127
2, 3800, Note_on_c, 1, 60, 127
2, 3800, Note_on_c, 1, 65, 127
2, 3800, Note_on_c, 1, 74, 127
2, 3800, Note_on_c, 1, 77, 127
2, 3840, Note_on_c, 1, 35, 127
2, 3840, Note_on_c, 1, 47, 127
2, 3840, Note_off_c, 1, 48, 0
2, 3840, Note_off_c, 1, 53, 0
2, 3840, Note_off_c, 1, 60, 0
2, 3840, Note_off_c, 1, 65, 0
2, 3840, Note_off_c, 1, 74, 0
2, 3840, Note_off_c, 1, 77, 0
2, 3840, Note_on_c, 1, 83, 127
2, 3840, Note_on_c, 1, 91, 127
2, 3840, Note_on_c, 1, 95, 127
2, 3880, Note_off_c, 1, 35, 0
2, 3880, Note_on_c, 1, 45, 127
2, 3880, Note_off_c, 1, 47, 0
2, 3880, Note_on_c, 1, 54, 127
2, 3880, Note_on_c, 1, 57, 127
2, 3880, Note_off_c, 1, 83, 0
2, 3880, Note_on_c, 1, 86, 127
2, 3880, Note_off_c, 1, 91, 0
2, 3880, Note_off_c, 1, 95, 0
2, 3920, Note_on_c, 1, 37, 127
2, 3920, Note_off_c, 1, 45, 0
2, 3920, Note_on_c, 1, 53, 127
2, 3920, Note_off_c, 1, 54, 0
2, 3920, Note_off_c, 1, 57, 0
2, 3920, Note_on_c, 1, 58, 127
2, 3920, Note_off_c, 1, 86, 0
2, 3960, Note_off_c, 1, 37, 0
2, 3960, Note_off_c, 1, 53, 0
2, 3960, Note_on_c, 1, 55, 127
2, 3960, Note_off_c, 1, 58, 0
2, 3960, Note_on_c, 1, 59, 127
2, 3960, Note_on_c, 1, 62, 127
2, 3960, Note_on_c, 1, 67, 127
2, 3960, Note_on_c, 1, 79, 127
2, 3960, Note_on_c, 1, 83, 127
2, 3960, Note_on_c, 1, 86, 127
2, 3960, Note_on_c, 1, 91, 127
2, 4000, Note_off_c, 1, 55, 0
2, 4000, Note_off_c, 1, 59, 0
2, 4000, Note_off_c, 1, 62, 0
2, 4000, Note_off_c, 1, 67, 0
2, 4000, Note_off_c, 1, 79, 0
2, 4000, Note_off_c, 1, 83, 0
2, 4000, Note_off_c, 1, 86, 0
2, 4000, Note_off_c, 1, 91, 0
2, 4040, Note_on_c, 1, 54, 127
2, 4040, Note_on_c, 1, 61, 127
2, 4040, Note_on_c, 1, 65, 127
2, 4040, Note_on_c, 1, 71, 127
2, 4040, Note_on_c, 1, 73, 127
2, 4040, Note_on_c, 1, 80, 127
2, 4120, Note_off_c, 1, 54, 0
2, 4120, Note_off_c, 1, 61, 0
2, 4120, Note_off_c, 1, 65, 0
2, 4120, Note_off_c, 1, 71, 0
2, 4120, Note_off_c, 1, 73, 0
2, 4120, Note_off_c, 1, 80, 0
2, 4160, Note_on_c, 1, 54, 127
2, 4160, Note_on_c, 1, 61, 127
2, 4160, Note_on_c, 1, 65, 127
2, 4160, Note_on_c, 1, 71, 127
2, 4160, Note_on_c, 1, 73, 127
2, 4160, Note_on_c, 1, 80, 127
2, 4240, Note_off_c, 1, 54, 0
2, 4240, Note_off_c, 1, 61, 0
2, 4240, Note_off_c, 1, 65, 0
2, 4240, Note_off_c, 1, 71, 0
2, 4240, Note_off_c, 1, 73, 0
2, 4240, Note_off_c, 1, 80, 0
2, 4280, Note_on_c, 1, 54, 127
2, 4280, Note_on_c, 1, 61, 127
2, 4280, Note_on_c, 1, 65, 127
2, 4280, Note_on_c, 1, 71, 127
2, 4280, Note_on_c, 1, 73, 127
2, 4280, Note_on_c, 1, 80, 127
2, 4320, Note_off_c, 1, 54, 0
2, 4320, Note_off_c, 1, 61, 0
2, 4320, Note_off_c, 1, 65, 0
2, 4320, Note_off_c, 1, 71, 0
2, 4320, Note_off_c, 1, 73, 0
2, 4320, Note_off_c, 1, 80, 0
2, 4360, Note_on_c, 1, 54, 127
2, 4360, Note_on_c, 1, 61, 127
2, 4360, Note_on_c, 1, 65, 127
2, 4360, Note_on_c, 1, 71, 127
2, 4360, Note_on_c, 1, 73, 127
2, 4360, Note_on_c, 1, 80, 127
2, 4440, Note_off_c, 1, 54, 0
2, 4440, Note_off_c, 1, 61, 0
2, 4440, Note_off_c, 1, 65, 0
2, 4440, Note_off_c, 1, 71, 0
2, 4440, Note_off_c, 1, 73, 0
2, 4440, Note_off_c, 1, 80, 0
2, 4480, Note_on_c, 1, 54, 127
2, 4480, Note_on_c, 1, 61, 127
2, 4480, Note_on_c, 1, 65, 127
2, 4480, Note_on_c, 1, 71, 127
2, 4480, Note_on_c, 1, 73, 127
2, 4480, Note_on_c, 1, 80, 127
2, 4600, Note_off_c, 1, 54, 0
2, 4600, Note_off_c, 1, 61, 0
2, 4600, Note_off_c, 1, 65, 0
2, 4600, Note_off_c, 1, 71, 0
2, 4600, Note_off_c, 1, 73, 0
2, 4600, Note_off_c, 1, 80, 0
2, 4640, Note_on_c, 1, 52, 127
2, 4640, Note_on_c, 1, 64, 127
2, 4640, Note_on_c, 1, 74, 127
2, 4640, Note_on_c, 1, 80, 127
2, 4640, Note_on_c, 1, 86, 127
2, 4680, Note_off_c, 1, 52, 0
2, 4680, Note_off_c, 1, 64, 0
2, 4680, Note_off_c, 1, 74, 0
2, 4680, Note_off_c, 1, 80, 0
2, 4680, Note_off_c, 1, 86, 0
2, 4760, Note_on_c, 1, 34, 127
2, 4760, Note_on_c, 1, 84, 127
2, 4760, Note_on_c, 1, 89, 127
2, 4760, Note_on_c, 1, 92, 127
2, 4760, Note_on_c, 1, 96, 127
2, 4800, Note_off_c, 1, 34, 0
2, 4800, Note_on_c, 1, 48, 127
2, 4800, Note_on_c, 1, 60, 127
2, 4800, Note_off_c, 1, 84, 0
2, 4800, Note_on_c, 1, 86, 127
2, 4800, Note_off_c, 1, 89, 0
2, 4800, Note_off_c, 1, 92, 0
2, 4800, Note_on_c, 1, 94, 127
2, 4800, Note_off_c, 1, 96, 0
2, 4800, Note_on_c, 1, 98, 127
2, 4840, Note_off_c, 1, 48, 0
2, 4840, Note_off_c, 1, 60, 0
2, 4840, Note_off_c, 1, 86, 0
2, 4840, Note_off_c, 1, 94, 0
2, 4840, Note_off_c, 1, 98, 0
2, 4880, Note_on_c, 1, 42, 127
2, 4880, Note_on_c, 1, 54, 127
2, 4880, Note_on_c, 1, 75, 127
2, 4880, Note_on_c, 1, 82, 127
2, 4880, Note_on_c, 1, 87, 127
2, 4920, Note_off_c, 1, 42, 0
2, 4920, Note_off_c, 1, 54, 0
2, 4920, Note_off_c, 1, 75, 0
2, 4920, Note_off_c, 1, 82, 0
2, 4920, Note_off_c, 1, 87, 0
2, 4960, Note_on_c, 1, 42, 127
2, 4960, Note_on_c, 1, 56, 127
2, 4960, Note_on_c, 1, 64, 127
2, 4960, Note_on_c, 1, 73, 127
2, 5000, Note_off_c, 1, 42, 0
2, 5000, Note_off_c, 1, 56, 0
2, 5000, Note_off_c, 1, 64, 0
2, 5000, Note_off_c, 1, 73, 0
2, 5040, Note_on_c, 1, 36, 127
2, 5040, Note_on_c, 1, 48, 127
2, 5040, Note_on_c, 1, 58, 127
2, 5040, Note_on_c, 1, 61, 127
2, 5040, Note_on_c, 1, 64, 127
2, 5080, Note_off_c, 1, 36, 0
2, 5080, Note_off_c, 1, 48, 0
2, 5080, Note_on_c, 1, 55, 127
2, 5080, Note_off_c, 1, 61, 0
2, 5080, Note_off_c, 1, 64, 0
2, 5080, Note_on_c, 1, 67, 127
2, 5080, Note_on_c, 1, 85, 127
2, 5080, Note_on_c, 1, 88, 127
2, 5080, Note_on_c, 1, 97, 127
2, 5120, Note_off_c, 1, 55, 0
2, 5120, Note_off_c, 1, 58, 0
2, 5120, Note_off_c, 1, 67, 0
2, 5120, Note_off_c, 1, 85, 0
2, 5120, Note_off_c, 1, 88, 0
2, 5120, Note_off_c, 1, 97, 0
2, 5160, Note_on_c, 1, 47, 127
2, 5160, Note_on_c, 1, 59, 127
2, 5200, Note_off_c, 1, 47, 0
2, 5200, Note_off_c, 1, 59, 0
2, 5240, Note_on_c, 1, 43, 127
2, 5240, Note_on_c, 1, 50, 127
2, 5240, Note_on_c, 1, 60, 127
2, 5240, Note_on_c, 1, 62, 127
2, 5240, Note_on_c, 1, 69, 127
2, 5280, Note_off_c, 1, 43, 0
2, 5280, Note_off_c, 1, 50, 0
2, 5280, Note_on_c, 1, 57, 127
2, 5280, Note_off_c, 1, 62, 0
2, 5280, Note_on_c, 1, 63, 127
2, 5280, Note_on_c, 1, 66, 127
2, 5280, Note_on_c, 1, 72, 127
2, 5280, Note_on_c, 1, 75, 127
2, 5280, Note_on_c, 1, 78, 127
2, 5320, Note_off_c, 1, 57, 0
2, 5320, Note_off_c, 1, 60, 0
2, 5320, Note_off_c, 1, 63, 0
2, 5320, Note_off_c, 1, 66, 0
2, 5320, Note_off_c, 1, 69, 0
2, 5320, Note_off_c, 1, 72, 0
2, 5320, Note_off_c, 1, 75, 0
2, 5320, Note_off_c, 1, 78, 0
2, 5360, Note_on_c, 1, 54, 127
2, 5360, Note_on_c, 1, 60, 127
2, 5360, Note_on_c, 1, 66, 127
2, 5360, Note_on_c, 1, 78, 127
2, 5400, Note_off_c, 1, 54, 0
2, 5400, Note_off_c, 1, 60, 0
2, 5400, Note_off_c, 1, 66, 0
2, 5400, Note_off_c, 1, 78, 0
2, 5440, Note_on_c, 1, 49, 127
2, 5440, Note_on_c, 1, 61, 127
2, 5440, Note_on_c, 1, 73, 127
2, 5440, Note_on_c, 1, 76, 127
2, 5440, Note_on_c, 1, 81, 127
2, 5480, Note_off_c, 1, 49, 0
2, 5480, Note_off_c, 1, 61, 0
2, 5480, Note_off_c, 1, 73, 0
2, 5480, Note_off_c, 1, 76, 0
2, 5480, Note_off_c, 1, 81, 0
2, 5520, Note_on_c, 1, 49, 127
2, 5520, Note_on_c, 1, 61, 127
2, 5520, Note_on_c, 1, 73, 127
2, 5520, Note_on_c, 1, 76, 127
2, 5520, Note_on_c, 1, 81, 127
2, 5560, Note_off_c, 1, 49, 0
2, 5560, Note_off_c, 1, 61, 0
2, 5560, Note_off_c, 1, 73, 0
2, 5560, Note_on_c, 1, 74, 127
2, 5560, Note_off_c, 1, 81, 0
2, 5560, Note_on_c, 1, 83, 127
2, 5600, Note_off_c, 1, 74, 0
2, 5600, Note_off_c, 1, 76, 0
2, 5600, Note_off_c, 1, 83, 0
2, 5640, Note_on_c, 1, 45, 127
2, 5640, Note_on_c, 1, 73, 127
2, 5640, Note_on_c, 1, 76, 127
2, 5640, Note_on_c, 1, 81, 127
2, 5680, Note_off_c, 1, 45, 0
2, 5720, Note_on_c, 1, 45, 127
2, 5760, Note_off_c, 1, 45, 0
2, 5760, Note_off_c, 1, 73, 0
2, 5760, Note_off_c, 1, 76, 0
2, 5760, Note_off_c, 1, 81, 0
2, 5800, Note_on_c, 1, 45, 127
2, 5880, Note_off_c, 1, 45, 0
2, 5920, Note_on_c, 1, 45, 127
2, 5920, Note_on_c, 1, 57, 127
2, 5920, Note_on_c, 1, 61, 127
2, 5920, Note_on_c, 1, 64, 127
2, 5960, Note_off_c, 1, 45, 0
2, 5960, Note_off_c, 1, 57, 0
2, 5960, Note_off_c, 1, 61, 0
2, 5960, Note_off_c, 1, 64, 0
2, 6000, Note_on_c, 1, 50, 127
2, 6000, Note_on_c, 1, 57, 127
2, 6000, Note_on_c, 1, 62, 127
2, 6000, Note_on_c, 1, 66, 127
2, 6080, Note_off_c, 1, 50, 0
2, 6080, Note_off_c, 1, 57, 0
2, 6080, Note_off_c, 1, 62, 0
2, 6080, Note_off_c, 1, 66, 0
2, 6120, Note_on_c, 1, 47, 127
2, 6120, Note_on_c, 1, 56, 127
2, 6120, Note_on_c, 1, 64, 127
2, 6120, Note_on_c, 1, 70, 127
2, 6160, Note_off_c, 1, 47, 0
2, 6160, Note_off_c, 1, 56, 0
2, 6160, Note_off_c, 1, 64, 0
2, 6160, Note_off_c, 1, 70, 0
2, 6200, Note_on_c, 1, 42, 127
2, 6200, Note_on_c, 1, 52, 127
2, 6200, Note_on_c, 1, 59, 127
2, 6200, Note_on_c, 1, 64, 127
2, 6240, Note_off_c, 1, 42, 0
2, 6240, Note_off_c, 1, 52, 0
2, 6240, Note_off_c, 1, 59, 0
2, 6240, Note_off_c, 1, 64, 0
2, 6280, Note_on_c, 1, 55, 127
2, 6280, Note_on_c, 1, 61, 127
2, 6280, Note_on_c, 1, 64, 127
2, 6280, Note_on_c, 1, 69, 127
2, 6280, Note_on_c, 1, 85, 127
2, 6320, Note_on_c, 1, 53, 127
2, 6320, Note_off_c, 1, 55, 0
2, 6320, Note_off_c, 1, 61, 0
2, 6320, Note_on_c, 1, 62, 127
2, 6320, Note_off_c, 1, 64, 0
2, 6320, Note_on_c, 1, 65, 127
2, 6320, Note_on_c, 1, 74, 127
2, 6320, Note_off_c, 1, 85, 0
2, 6360, Note_off_c, 1, 53, 0
2, 6360, Note_off_c, 1, 62, 0
2, 6360, Note_off_c, 1, 65, 0
2, 6360, Note_off_c, 1, 69, 0
2, 6360, Note_on_c, 1, 70, 127
2, 6360, Note_off_c, 1, 74, 0
2, 6360, Note_on_c, 1, 78, 127
2, 6360, Note_on_c, 1, 88, 127
2, 6400, Note_on_c, 1, 62, 127
2, 6400, Note_on_c, 1, 65, 127
2, 6400, Note_off_c, 1, 70, 0
2, 6400, Note_on_c, 1, 72, 127
2, 6400, Note_on_c, 1, 77, 127
2, 6400, Note_off_c, 1, 78, 0
2, 6400, Note_off_c, 1, 88, 0
2, 6440, Note_on_c, 1, 45, 127
2, 6440, Note_off_c, 1, 65, 0
2, 6440, Note_on_c, 1, 68, 127
2, 6440, Note_off_c, 1, 72, 0
2, 6440, Note_on_c, 1, 76, 127
2, 6440, Note_off_c, 1, 77, 0
2, 6480, Note_off_c, 1, 45, 0
2, 6480, Note_off_c, 1, 62, 0
2, 6480, Note_off_c, 1, 68, 0
2, 6480, Note_off_c, 1, 76, 0
2, 6520, Note_on_c, 1, 45, 127
2, 6560, Note_off_c, 1, 45, 0
2, 6560, Note_on_c, 1, 47, 127
2, 6600, Note_off_c, 1, 47, 0
2, 6640, Note_on_c, 1, 45, 127
2, 6720, Note_off_c, 1, 45, 0
2, 6760, Note_on_c, 1, 49, 127
2, 6760, Note_on_c, 1, 52, 127
2, 6760, Note_on_c, 1, 57, 127
2, 6760, Note_on_c, 1, 61, 127
2, 6760, Note_on_c, 1, 63, 127
2, 6800, Note_off_c, 1, 49, 0
2, 6800, Note_on_c, 1, 51, 127
2, 6800, Note_off_c, 1, 52, 0
2, 6800, Note_off_c, 1, 57, 0
2, 6800, Note_off_c, 1, 61, 0
2, 6800, Note_on_c, 1, 69, 127
2, 6800, Note_on_c, 1, 72, 127
2, 6800, Note_on_c, 1, 78, 127
2, 6800, Note_on_c, 1, 81, 127
2, 6800, Note_on_c, 1, 84, 127
2, 6840, Note_on_c, 1, 49, 127
2, 6840, Note_off_c, 1, 51, 0
2, 6840, Note_on_c, 1, 57, 127
2, 6840, Note_off_c, 1, 63, 0
2, 6840, Note_on_c, 1, 64, 127
2, 6840, Note_on_c, 1, 67, 127
2, 6840, Note_off_c, 1, 69, 0
2, 6840, Note_off_c, 1, 72, 0
2, 6840, Note_on_c, 1, 73, 127
2, 6840, Note_off_c, 1, 78, 0
2, 6840, Note_off_c, 1, 81, 0
2, 6840, Note_on_c, 1, 83, 127
2, 6840, Note_off_c, 1, 84, 0
2, 6880, Note_on_c, 1, 52, 127
2, 6880, Note_on_c, 1, 61, 127
2, 6880, Note_on_c, 1, 63, 127
2, 6880, Note_off_c, 1, 64, 0
2, 6880, Note_off_c, 1, 67, 0
2, 6880, Note_off_c, 1, 73, 0
2, 6880, Note_off_c, 1, 83, 0
2, 6920, Note_off_c, 1, 49, 0
2, 6920, Note_off_c, 1, 52, 0
2, 6920, Note_off_c, 1, 57, 0
2, 6920, Note_off_c, 1, 61, 0
2, 6920, Note_off_c, 1, 63, 0
2, 6960, Note_on_c, 1, 52, 127
2, 6960, Note_on_c, 1, 57, 127
2, 6960, Note_on_c, 1, 61, 127
2, 6960, Note_on_c, 1, 90, 127
2, 7040, Note_off_c, 1, 52, 0
2, 7040, Note_off_c, 1, 57, 0
2, 7040, Note_off_c, 1, 61, 0
2, 7040, Note_off_c, 1, 90, 0
2, 7080, Note_on_c, 1, 71, 127
2, 7080, Note_on_c, 1, 78, 127
2, 7080, Note_on_c, 1, 81, 127
2, 7080, Note_on_c, 1, 83, 127
2, 7080, Note_on_c, 1, 88, 127
2, 7200, Note_off_c, 1, 71, 0
2, 7200, Note_off_c, 1, 78, 0
2, 7200, Note_off_c, 1, 81, 0
2, 7200, Note_off_c, 1, 83, 0
2, 7200, Note_off_c, 1, 88, 0
2, 7240, Note_on_c, 1, 56, 127
2, 7240, Note_on_c, 1, 63, 127
2, 7240, Note_on_c, 1, 78, 127
2, 7240, Note_on_c, 1, 84, 127
2, 7280, Note_off_c, 1, 56, 0
2, 7280, Note_off_c, 1, 63, 0
2, 7280, Note_off_c, 1, 78, 0
2, 7280, Note_off_c, 1, 84, 0
2, 7320, Note_on_c, 1, 62, 127
2, 7320, Note_on_c, 1, 65, 127
2, 7320, Note_on_c, 1, 69, 127
2, 7320, Note_on_c, 1, 74, 127
2, 7320, Note_on_c, 1, 81, 127
2, 7320, Note_on_c, 1, 86, 127
2, 7360, Note_on_c, 1, 45, 127
2, 7360, Note_on_c, 1, 51, 127
2, 7360, Note_off_c, 1, 62, 0
2, 7360, Note_off_c, 1, 65, 0
2, 7360, Note_off_c, 1, 69, 0
2, 7360, Note_off_c, 1, 74, 0
2, 7360, Note_off_c, 1, 81, 0
2, 7360, Note_off_c, 1, 86, 0
2, 7400, Note_off_c, 1, 45, 0
2, 7400, Note_off_c, 1, 51, 0
2, 7440, Note_on_c, 1, 45, 127
2, 7440, Note_on_c, 1, 47, 127
2, 7440, Note_on_c, 1, 67, 127
2, 7480, Note_off_c, 1, 45, 0
2, 7480, Note_off_c, 1, 47, 0
2, 7480, Note_on_c, 1, 64, 127
2, 7480, Note_off_c, 1, 67, 0
2, 7480, Note_on_c, 1, 76, 127
2, 7480, Note_on_c, 1, 80, 127
2, 7480, Note_on_c, 1, 83, 127
2, 7480, Note_on_c, 1, 92, 127
2, 7520, Note_on_c, 1, 47, 127
2, 7520, Note_on_c, 1, 51, 127
2, 7520, Note_off_c, 1, 64, 0
2, 7520, Note_off_c, 1, 76, 0
2, 7520, Note_on_c, 1, 78, 127
2, 7520, Note_off_c, 1, 80, 0
2, 7520, Note_off_c, 1, 83, 0
2, 7520, Note_on_c, 1, 87, 127
2, 7520, Note_on_c, 1, 90, 127
2, 7520, Note_off_c, 1, 92, 0
2, 7560, Note_on_c, 1, 50, 127
2, 7560, Note_off_c, 1, 51, 0
2, 7560, Note_on_c, 1, 55, 127
2, 7560, Note_on_c, 1, 59, 127
2, 7560, Note_on_c, 1, 62, 127
2, 7560, Note_on_c, 1, 74, 127
2, 7560, Note_off_c, 1, 78, 0
2, 7560, Note_off_c, 1, 87, 0
2, 7560, Note_off_c, 1, 90, 0
2, 7600, Note_off_c, 1, 47, 0
2, 7600, Note_off_c, 1, 50, 0
2, 7600, Note_off_c, 1, 55, 0
2, 7600, Note_off_c, 1, 59, 0
2, 7600, Note_off_c, 1, 62, 0
2, 7600, Note_off_c, 1, 74, 0
2, 7640, Note_on_c, 1, 59, 127
2, 7640, Note_on_c, 1, 62, 127
2, 7640, Note_on_c, 1, 65, 127
2, 7640, Note_on_c, 1, 68, 127
2, 7640, Note_on_c, 1, 82, 127
2, 7640, Note_on_c, 1, 83, 127
2, 7680, Note_off_c, 1, 59, 0
2, 7680, Note_off_c, 1, 62, 0
2, 7680, Note_off_c, 1, 65, 0
2, 7680, Note_off_c, 1, 68, 0
2, 7680, Note_off_c, 1, 82, 0
2, 7680, Note_off_c, 1, 83, 0
2, 7720, Note_on_c, 1, 42, 127
2, 7720, Note_on_c, 1, 54, 127
2, 7720, Note_on_c, 1, 56, 127
2, 7720, Note_on_c, 1, 61, 127
2, 7720, Note_on_c, 1, 64, 127
2, 7800, Note_off_c, 1, 42, 0
2, 7800, Note_off_c, 1, 54, 0
2, 7800, Note_off_c, 1, 56, 0
2, 7800, Note_off_c, 1, 61, 0
2, 7800, Note_off_c, 1, 64, 0
2, 7840, Note_on_c, 1, 31, 127
2, 7840, Note_on_c, 1, 50, 127
2, 7840, Note_on_c, 1, 55, 127
2, 7840, Note_on_c, 1, 58, 127
2, 7880, Note_off_c, 1, 31, 0
2, 7880, Note_off_c, 1, 50, 0
2, 7880, Note_off_c, 1, 55, 0
2, 7880, Note_off_c, 1, 58, 0
2, 7920, Note_on_c, 1, 41, 127
2, 7920, Note_on_c, 1, 72, 127
2, 7920, Note_on_c, 1, 76, 127
2, 7960, Note_off_c, 1, 41, 0
2, 7960, Note_on_c, 1, 55, 127
2, 7960, Note_on_c, 1, 59, 127
2, 7960, Note_on_c, 1, 62, 127
2, 7960, Note_on_c, 1, 71, 127
2, 7960, Note_off_c, 1, 72, 0
2, 7960, Note_on_c, 1, 74, 127
2, 7960, Note_off_c, 1, 76, 0
2, 7960, Note_on_c, 1, 83, 127
2, 8000, Note_off_c, 1, 55, 0
2, 8000, Note_off_c, 1, 59, 0
2, 8000, Note_off_c, 1, 62, 0
2, 8000, Note_on_c, 1, 66, 127
2, 8000, Note_off_c, 1, 71, 0
2, 8000, Note_off_c, 1, 74, 0
2, 8000, Note_on_c, 1, 76, 127
2, 8000, Note_on_c, 1, 79, 127
2, 8040, Note_on_c, 1, 69, 127
2, 8040, Note_off_c, 1, 76, 0
2, 8040, Note_off_c, 1, 79, 0
2, 8040, Note_on_c, 1, 81, 127
2, 8080, Note_on_c, 1, 53, 127
2, 8080, Note_off_c, 1, 66, 0
2, 8080, Note_off_c, 1, 69, 0
2, 8080, Note_on_c, 1, 74, 127
2, 8120, Note_off_c, 1, 53, 0
2, 8120, Note_off_c, 1, 74, 0
2, 8120, Note_off_c, 1, 81, 0
2, 8120, Note_on_c, 1, 92, 127
2, 8120, Note_on_c, 1, 95, 127
2, 8120, Note_on_c, 1, 98, 127
2, 8160, Note_off_c, 1, 83, 0
2, 8160, Note_off_c, 1, 92, 0
2, 8160, Note_off_c, 1, 95, 0
2, 8160, Note_off_c, 1, 98, 0
2, 8200, Note_on_c, 1, 69, 127
2, 8200, Note_on_c, 1, 84, 127
2, 8200, Note_on_c, 1, 91, 127
2, 8240, Note_off_c, 1, 69, 0
2, 8240, Note_off_c, 1, 84, 0
2, 8240, Note_off_c, 1, 91, 0
2, 8280, Note_on_c, 1, 39, 127
2, 8280, Note_on_c, 1, 90, 127
2, 8280, Note_on_c, 1, 92, 127
2, 8320, Note_off_c, 1, 39, 0
2, 8320, Note_off_c, 1, 90, 0
2, 8320, Note_off_c, 1, 92, 0
2, 8400, Note_on_c, 1, 48, 127
2, 8400, Note_on_c, 1, 64, 127
2, 8400, Note_on_c, 1, 69, 127
2, 8400, Note_on_c, 1, 73, 127
2, 8440, Note_on_c, 1, 33, 127
2, 8440, Note_on_c, 1, 45, 127
2, 8440, Note_off_c, 1, 48, 0
2, 8440, Note_off_c, 1, 64, 0
2, 8440, Note_on_c, 1, 67, 127
2, 8440, Note_off_c, 1, 69, 0
2, 8440, Note_on_c, 1, 79, 127
2, 8480, Note_off_c, 1, 33, 0
2, 8480, Note_off_c, 1, 45, 0
2, 8480, Note_on_c, 1, 64, 127
2, 8480, Note_off_c, 1, 67, 0
2, 8480, Note_on_c, 1, 69, 127
2, 8480, Note_off_c, 1, 79, 0
2, 8560, Note_off_c, 1, 64, 0
2, 8560, Note_off_c, 1, 69, 0
2, 8560, Note_off_c, 1, 73, 0
2, 8600, Note_on_c, 1, 45, 127
2, 8600, Note_on_c, 1, 48, 127
2, 8600, Note_on_c, 1, 65, 127
2, 8600, Note_on_c, 1, 75, 127
2, 8640, Note_off_c, 1, 45, 0
2, 8640, Note_off_c, 1, 48, 0
2, 8640, Note_off_c, 1, 65, 0
2, 8640, Note_off_c, 1, 75, 0
2, 8680, Note_on_c, 1, 41, 127
2, 8680, Note_on_c, 1, 48, 127
2, 8680, Note_on_c, 1, 63, 127
2, 8680, Note_on_c, 1, 69, 127
2, 8680, Note_on_c, 1, 72, 127
2, 8680, Note_on_c, 1, 81, 127
2, 8680, Note_on_c, 1, 84, 127
2, 9120, Note_off_c, 1, 41, 0
2, 9120, Note_off_c, 1, 48, 0
2, 9120, Note_off_c, 1, 63, 0
2, 9120, Note_off_c, 1, 69, 0
2, 9120, Note_off_c, 1, 72, 0
2, 9120, Note_off_c, 1, 81, 0
2, 9120, Note_off_c, 1, 84, 0
2, 9160, Note_on_c, 1, 48, 127
2, 9160, Note_on_c, 1, 51, 127
2, 9160, Note_on_c, 1, 56, 127
2, 9160, Note_on_c, 1, 68, 127
2, 9200, Note_off_c, 1, 48, 0
2, 9200, Note_off_c, 1, 51, 0
2, 9200, Note_off_c, 1, 56, 0
2, 9200, Note_off_c, 1, 68, 0
2, 9200, Note_on_c, 1, 92, 127
2, 9200, Note_on_c, 1, 95, 127
2, 9200, Note_on_c, 1, 101, 127
2, 9240, Note_on_c, 1, 48, 127
2, 9240, Note_on_c, 1, 51, 127
2, 9240, Note_on_c, 1, 54, 127
2, 9240, Note_on_c, 1, 81, 127
2, 9240, Note_off_c, 1, 92, 0
2, 9240, Note_off_c, 1, 95, 0
2, 9240, Note_off_c, 1, 101, 0
2, 9280, Note_off_c, 1, 48, 0
2, 9280, Note_off_c, 1, 51, 0
2, 9280, Note_off_c, 1, 54, 0
2, 9280, Note_on_c, 1, 66, 127
2, 9280, Note_off_c, 1, 81, 0
2, 9320, Note_on_c, 1, 44, 127
2, 9320, Note_on_c, 1, 63, 127
2, 9320, Note_on_c, 1, 65, 127
2, 9320, Note_off_c, 1, 66, 0
2, 9320, Note_on_c, 1, 75, 127
2, 9440, Note_off_c, 1, 44, 0
2, 9440, Note_off_c, 1, 63, 0
2, 9440, Note_off_c, 1, 65, 0
2, 9440, Note_off_c, 1, 75, 0
2, 9480, Note_on_c, 1, 64, 127
2, 9480, Note_on_c, 1, 68, 127
2, 9480, Note_on_c, 1, 76, 127
2, 9480, Note_on_c, 1, 88, 127
2, 9520, Note_on_c, 1, 58, 127
2, 9520, Note_off_c, 1, 64, 0
2, 9520, Note_on_c, 1, 67, 127
2, 9520, Note_off_c, 1, 68, 0
2, 9520, Note_on_c, 1, 70, 127
2, 9520, Note_on_c, 1, 85, 127
2, 9520, Note_off_c, 1, 88, 0
2, 9560, Note_off_c, 1, 58, 0
2, 9560, Note_on_c, 1, 64, 127
2, 9560, Note_off_c, 1, 67, 0
2, 9560, Note_on_c, 1, 68, 127
2, 9560, Note_off_c, 1, 70, 0
2, 9560, Note_off_c, 1, 85, 0
2, 9560, Note_on_c, 1, 88, 127
2, 9880, Note_off_c, 1, 64, 0
2, 9880, Note_off_c, 1, 68, 0
2, 9880, Note_off_c, 1, 76, 0
2, 9880, Note_off_c, 1, 88, 0
2, 9920, Note_on_c, 1, 64, 127
2, 9920, Note_on_c, 1, 68, 127
2, 9920, Note_on_c, 1, 71, 127
2, 9920, Note_on_c, 1, 76, 127
2, 9920, Note_on_c, 1, 88, 127
2, 10400, Note_off_c, 1, 64, 0
2, 10400, Note_off_c, 1, 68, 0
2, 10400, Note_off_c, 1, 71, 0
2, 10400, Note_off_c, 1, 76, 0
2, 10400, Note_off_c, 1, 88, 0
2, 10440, Note_on_c, 1, 64, 127
2, 10440, Note_on_c, 1, 68, 127
2, 10440, Note_on_c, 1, 71, 127
2, 10440, Note_on_c, 1, 76, 127
2, 10440, Note_on_c, 1, 88, 127
2, 10680, Note_off_c, 1, 71, 0
2, 10720, Note_off_c, 1, 64, 0
2, 10720, Note_off_c, 1, 68, 0
2, 10720, Note_off_c, 1, 76, 0
2, 10720, Note_off_c, 1, 88, 0
2, 10760, Note_on_c, 1, 64, 127
2, 10760, Note_on_c, 1, 71, 127
2, 10760, Note_on_c, 1, 80, 127
2, 10760, Note_on_c, 1, 88, 127
2, 11120, Note_on_c, 1, 59, 127
2, 11120, Note_off_c, 1, 64, 0
2, 11120, Note_on_c, 1, 79, 127
2, 11120, Note_off_c, 1, 80, 0
2, 11120, Note_off_c, 1, 88, 0
2, 11160, Note_off_c, 1, 59, 0
2, 11160, Note_on_c, 1, 64, 127
2, 11160, Note_off_c, 1, 79, 0
2, 11160, Note_on_c, 1, 80, 127
2, 11160, Note_on_c, 1, 88, 127
2, 11520, Note_off_c, 1, 64, 0
2, 11520, Note_off_c, 1, 71, 0
2, 11520, Note_off_c, 1, 80, 0
2, 11520, Note_off_c, 1, 88, 0
2, 11560, Note_on_c, 1, 64, 127
2, 11560, Note_on_c, 1, 71, 127
2, 11560, Note_on_c, 1, 80, 127
2, 11560, Note_on_c, 1, 83, 127
2, 12240, Note_off_c, 1, 64, 0
2, 12240, Note_off_c, 1, 71, 0
2, 12240, Note_off_c, 1, 80, 0
2, 12240, Note_off_c, 1, 83, 0
2, 12280, Note_on_c, 1, 49, 127
2, 12280, Note_on_c, 1, 59, 127
2, 12280, Note_on_c, 1, 67, 127
2, 12280, Note_on_c, 1, 71, 127
2, 12320, Note_on_c, 1, 45, 127
2, 12320, Note_off_c, 1, 49, 0
2, 12320, Note_on_c, 1, 52, 127
2, 12320, Note_on_c, 1, 57, 127
2, 12320, Note_off_c, 1, 59, 0
2, 12320, Note_off_c, 1, 67, 0
2, 12320, Note_off_c, 1, 71, 0
2, 12320, Note_on_c, 1, 84, 127
2, 12360, Note_off_c, 1, 45, 0
2, 12360, Note_off_c, 1, 52, 0
2, 12360, Note_off_c, 1, 57, 0
2, 12360, Note_off_c, 1, 84, 0
2, 12400, Note_on_c, 1, 45, 127
2, 12400, Note_on_c, 1, 50, 127
2, 12400, Note_on_c, 1, 66, 127
2, 12400, Note_on_c, 1, 69, 127
2, 12400, Note_on_c, 1, 74, 127
2, 12400, Note_on_c, 1, 78, 127
2, 12440, Note_off_c, 1, 45, 0
2, 12440, Note_off_c, 1, 50, 0
2, 12440, Note_off_c, 1, 66, 0
2, 12440, Note_on_c, 1, 67, 127
2, 12440, Note_off_c, 1, 69, 0
2, 12440, Note_off_c, 1, 74, 0
2, 12440, Note_on_c, 1, 76, 127
2, 12440, Note_off_c, 1, 78, 0
2, 12440, Note_on_c, 1, 79, 127
2, 12440, Note_on_c, 1, 86, 127
2, 12480, Note_on_c, 1, 45, 127
2, 12480, Note_on_c, 1, 48, 127
2, 12480, Note_on_c, 1, 57, 127
2, 12480, Note_on_c, 1, 60, 127
2, 12480, Note_on_c, 1, 64, 127
2, 12480, Note_off_c, 1, 67, 0
2, 12480, Note_off_c, 1, 76, 0
2, 12480, Note_off_c, 1, 79, 0
2, 12480, Note_off_c, 1, 86, 0
2, 12520, Note_off_c, 1, 45, 0
2, 12520, Note_off_c, 1, 57, 0
2, 12520, Note_on_c, 1, 59, 127
2, 12520, Note_off_c, 1, 60, 0
2, 12520, Note_off_c, 1, 64, 0
2, 12520, Note_on_c, 1, 77, 127
2, 12560, Note_on_c, 1, 41, 127
2, 12560, Note_on_c, 1, 45, 127
2, 12560, Note_on_c, 1, 53, 127
2, 12560, Note_off_c, 1, 59, 0
2, 12560, Note_off_c, 1, 77, 0
2, 12560, Note_on_c, 1, 81, 127
2, 12560, Note_on_c, 1, 93, 127
2, 12600, Note_off_c, 1, 41, 0
2, 12600, Note_off_c, 1, 45, 0
2, 12600, Note_off_c, 1, 48, 0
2, 12600, Note_on_c, 1, 52, 127
2, 12600, Note_off_c, 1, 53, 0
2, 12600, Note_on_c, 1, 59, 127
2, 12600, Note_on_c, 1, 61, 127
2, 12600, Note_off_c, 1, 81, 0
2, 12600, Note_on_c, 1, 86, 127
2, 12600, Note_off_c, 1, 93, 0
2, 12640, Note_on_c, 1, 41, 127
2, 12640, Note_off_c, 1, 52, 0
2, 12640, Note_off_c, 1, 59, 0
2, 12640, Note_on_c, 1, 66, 127
2, 12640, Note_on_c, 1, 69, 127
2, 12640, Note_off_c, 1, 86, 0
2, 12680, Note_on_c, 1, 40, 127
2, 12680, Note_off_c, 1, 41, 0
2, 12680, Note_on_c, 1, 47, 127
2, 12680, Note_off_c, 1, 61, 0
2, 12680, Note_off_c, 1, 66, 0
2, 12680, Note_off_c, 1, 69, 0
2, 12680, Note_on_c, 1, 71, 127
2, 12680, Note_on_c, 1, 80, 127
2, 12680, Note_on_c, 1, 83, 127
2, 12720, Note_off_c, 1, 40, 0
2, 12720, Note_off_c, 1, 47, 0
2, 12720, Note_off_c, 1, 71, 0
2, 12720, Note_off_c, 1, 80, 0
2, 12720, Note_off_c, 1, 83, 0
2, 12760, Note_on_c, 1, 67, 127
2, 12760, Note_on_c, 1, 83, 127
2, 12760, Note_on_c, 1, 88, 127
2, 13200, Note_off_c, 1, 67, 0
2, 13200, Note_on_c, 1, 76, 127
2, 13240, Note_on_c, 1, 67, 127
2, 13240, Note_off_c, 1, 76, 0
2, 13680, Note_off_c, 1, 83, 0
2, 13680, Note_off_c, 1, 88, 0
2, 13720, Note_on_c, 1, 55, 127
2, 13720, Note_on_c, 1, 71, 127
2, 13720, Note_on_c, 1, 74, 127
2, 14120, Note_off_c, 1, 55, 0
2, 14120, Note_off_c, 1, 67, 0
2, 14120, Note_off_c, 1, 71, 0
2, 14120, Note_off_c, 1, 74, 0
2, 14160, Note_on_c, 1, 52, 127
2, 14160, Note_on_c, 1, 59, 127
2, 14160, Note_on_c, 1, 64, 127
2, 14160, Note_on_c, 1, 67, 127
2, 14160, Note_on_c, 1, 71, 127
2, 14360, Note_off_c, 1, 52, 0
2, 14360, Note_off_c, 1, 59, 0
2, 14360, Note_off_c, 1, 64, 0
2, 14360, Note_off_c, 1, 67, 0
2, 14360, Note_off_c, 1, 71, 0
2, 14400, Note_on_c, 1, 52, 127
2, 14400, Note_on_c, 1, 59, 127
2, 14400, Note_on_c, 1, 64, 127
2, 14400, Note_on_c, 1, 67, 127
2, 14400, Note_on_c, 1, 71, 127
2, 14800, Note_on_c, 1, 79, 127
2, 15040, Note_off_c, 1, 52, 0
2, 15040, Note_off_c, 1, 59, 0
2, 15040, Note_off_c, 1, 64, 0
2, 15040, Note_off_c, 1, 67, 0
2, 15040, Note_off_c, 1, 71, 0
2, 15040, Note_off_c, 1, 79, 0
2, 15080, Note_on_c, 1, 52, 127
2, 15080, Note_on_c, 1, 59, 127
2, 15080, Note_on_c, 1, 63, 127
2, 15080, Note_on_c, 1, 69, 127
2, 15080, Note_on_c, 1, 71, 127
2, 15080, Note_on_c, 1, 79, 127
2, 15320, Note_off_c, 1, 79, 0
2, 15880, Note_off_c, 1, 52, 0
2, 15880, Note_off_c, 1, 59, 0
2, 15880, Note_off_c, 1, 63, 0
2, 15880, Note_off_c, 1, 69, 0
2, 15880, Note_off_c, 1, 71, 0
2, 15920, Note_on_c, 1, 47, 127
2, 15920, Note_on_c, 1, 52, 127
2, 15920, Note_on_c, 1, 56, 127
2, 15920, Note_on_c, 1, 71, 127
2, 16280, Note_off_c, 1, 47, 0
2, 16280, Note_off_c, 1, 52, 0
2, 16280, Note_off_c, 1, 56, 0
2, 16280, Note_off_c, 1, 71, 0
2, 16320, Note_on_c, 1, 47, 127
2, 16320, Note_on_c, 1, 52, 127
2, 16320, Note_on_c, 1, 56, 127
2, 16320, Note_on_c, 1, 71, 127
2, 16560, Note_off_c, 1, 47, 0
2, 16560, Note_off_c, 1, 52, 0
2, 16560, Note_off_c, 1, 56, 0
2, 16600, Note_on_c, 1, 47, 127
2, 16600, Note_on_c, 1, 56, 127
2, 16600, Note_on_c, 1, 65, 127
2, 16600, Note_off_c, 1, 71, 0
2, 16600, Note_on_c, 1, 74, 127
2, 16960, Note_on_c, 1, 28, 127
2, 16960, Note_on_c, 1, 40, 127
2, 16960, Note_on_c, 1, 44, 127
2, 16960, Note_on_c, 1, 52, 127
2, 16960, Note_on_c, 1, 64, 127
2, 16960, Note_off_c, 1, 65, 0
2, 16960, Note_on_c, 1, 68, 127
2, 16960, Note_on_c, 1, 71, 127
2, 16960, Note_off_c, 1, 74, 0
2, 16960, Note_on_c, 1, 76, 127
2, 17000, Note_off_c, 1, 28, 0
2, 17000, Note_off_c, 1, 40, 0
2, 17000, Note_off_c, 1, 44, 0
2, 17000, Note_off_c, 1, 47, 0
2, 17000, Note_off_c, 1, 52, 0
2, 17000, Note_off_c, 1, 56, 0
2, 17000, Note_off_c, 1, 64, 0
2, 17000, Note_off_c, 1, 68, 0
2, 17000, Note_off_c, 1, 71, 0
2, 17000, Note_off_c, 1, 76, 0
2, 17040, Note_on_c, 1, 47, 127
2, 17040, Note_on_c, 1, 59, 127
2, 17040, Note_on_c, 1, 64, 127
2, 17040, Note_on_c, 1, 67, 127
2, 17440, Note_off_c, 1, 47, 0
2, 17440, Note_off_c, 1, 59, 0
2, 17480, Note_on_c, 1, 52, 127
2, 17480, Note_on_c, 1, 66, 127
2, 17480, Note_off_c, 1, 67, 0
2, 17480, Note_on_c, 1, 68, 127
2, 17520, Note_on_c, 1, 38, 127
2, 17520, Note_off_c, 1, 52, 0
2, 17520, Note_on_c, 1, 58, 127
2, 17520, Note_on_c, 1, 62, 127
2, 17520, Note_off_c, 1, 64, 0
2, 17520, Note_off_c, 1, 66, 0
2, 17520, Note_off_c, 1, 68, 0
2, 17520, Note_on_c, 1, 70, 127
2, 17560, Note_off_c, 1, 38, 0
2, 17560, Note_on_c, 1, 47, 127
2, 17560, Note_on_c, 1, 57, 127
2, 17560, Note_off_c, 1, 58, 0
2, 17560, Note_on_c, 1, 59, 127
2, 17560, Note_off_c, 1, 62, 0
2, 17560, Note_on_c, 1, 63, 127
2, 17560, Note_on_c, 1, 69, 127
2, 17560, Note_off_c, 1, 70, 0
2, 17560, Note_on_c, 1, 71, 127
2, 17560, Note_on_c, 1, 79, 127
2, 17600, Note_off_c, 1, 47, 0
2, 17600, Note_off_c, 1, 57, 0
2, 17600, Note_on_c, 1, 58, 127
2, 17600, Note_off_c, 1, 59, 0
2, 17600, Note_on_c, 1, 61, 127
2, 17600, Note_off_c, 1, 63, 0
2, 17600, Note_off_c, 1, 69, 0
2, 17600, Note_on_c, 1, 70, 127
2, 17600, Note_off_c, 1, 71, 0
2, 17600, Note_on_c, 1, 78, 127
2, 17600, Note_off_c, 1, 79, 0
2, 17600, Note_on_c, 1, 82, 127
2, 17640, Note_on_c, 1, 53, 127
2, 17640, Note_off_c, 1, 58, 0
2, 17640, Note_on_c, 1, 65, 127
2, 17640, Note_off_c, 1, 78, 0
2, 17680, Note_on_c, 1, 37, 127
2, 17680, Note_on_c, 1, 40, 127
2, 17680, Note_on_c, 1, 45, 127
2, 17680, Note_on_c, 1, 49, 127
2, 17680, Note_off_c, 1, 53, 0
2, 17680, Note_off_c, 1, 61, 0
2, 17680, Note_off_c, 1, 65, 0
2, 17680, Note_off_c, 1, 70, 0
2, 17680, Note_off_c, 1, 82, 0
2, 17720, Note_off_c, 1, 37, 0
2, 17720, Note_off_c, 1, 40, 0
2, 17720, Note_off_c, 1, 45, 0
2, 17720, Note_off_c, 1, 49, 0
2, 17720, Note_on_c, 1, 65, 127
2, 17720, Note_on_c, 1, 69, 127
2, 17720, Note_on_c, 1, 73, 127
2, 17720, Note_on_c, 1, 80, 127
2, 17840, Note_off_c, 1, 65, 0
2, 17840, Note_off_c, 1, 69, 0
2, 17840, Note_off_c, 1, 73, 0
2, 17840, Note_off_c, 1, 80, 0
2, 17880, Note_on_c, 1, 50, 127
2, 17880, Note_on_c, 1, 66, 127
2, 17880, Note_on_c, 1, 69, 127
2, 17880, Note_on_c, 1, 74, 127
2, 17880, Note_on_c, 1, 81, 127
2, 18320, Note_off_c, 1, 50, 0
2, 18320, Note_off_c, 1, 66, 0
2, 18320, Note_off_c, 1, 69, 0
2, 18320, Note_off_c, 1, 74, 0
2, 18320, Note_off_c, 1, 81, 0
2, 18360, Note_on_c, 1, 50, 127
2, 18360, Note_on_c, 1, 66, 127
2, 18360, Note_on_c, 1, 69, 127
2, 18360, Note_on_c, 1, 74, 127
2, 18360, Note_on_c, 1, 81, 127
2, 19480, Note_off_c, 1, 50, 0
2, 19480, Note_off_c, 1, 66, 0
2, 19480, Note_off_c, 1, 69, 0
2, 19480, Note_off_c, 1, 74, 0
2, 19480, Note_off_c, 1, 81, 0
2, 19520, Note_on_c, 1, 36, 127
2, 19520, Note_on_c, 1, 48, 127
2, 19520, Note_on_c, 1, 52, 127
2, 19520, Note_on_c, 1, 58, 127
2, 19520, Note_on_c, 1, 64, 127
2, 20560, Note_off_c, 1, 36, 0
2, 20560, Note_off_c, 1, 48, 0
2, 20560, Note_off_c, 1, 52, 0
2, 20560, Note_off_c, 1, 58, 0
2, 20560, Note_off_c, 1, 64, 0
2, 20600, Note_on_c, 1, 36, 127
2, 20600, Note_on_c, 1, 48, 127
2, 20600, Note_on_c, 1, 52, 127
2, 20600, Note_on_c, 1, 58, 127
2, 20600, Note_on_c, 1, 64, 127
2, 20760, Note_off_c, 1, 36, 0
2, 20760, Note_off_c, 1, 48, 0
2, 20760, Note_off_c, 1, 52, 0
2, 20760, Note_off_c, 1, 58, 0
2, 20760, Note_off_c, 1, 64, 0
2, 20800, Note_on_c, 1, 45, 127
2, 20800, Note_on_c, 1, 57, 127
2, 20800, Note_on_c, 1, 61, 127
2, 20800, Note_on_c, 1, 64, 127
2, 20800, Note_on_c, 1, 69, 127
2, 20800, Note_on_c, 1, 73, 127
2, 21640, Note_off_c, 1, 45, 0
2, 21640, Note_off_c, 1, 61, 0
2, 21640, Note_off_c, 1, 64, 0
2, 21640, Note_off_c, 1, 69, 0
2, 21640, Note_off_c, 1, 73, 0
2, 21640, Note_on_c, 1, 76, 127
2, 21680, Note_on_c, 1, 64, 127
2, 21680, Note_on_c, 1, 69, 127
2, 21680, Note_off_c, 1, 76, 0
2, 21680, Note_on_c, 1, 79, 127
2, 22040, Note_off_c, 1, 64, 0
2, 22040, Note_off_c, 1, 69, 0
2, 22040, Note_off_c, 1, 79, 0
2, 22080, Note_on_c, 1, 64, 127
2, 22080, Note_on_c, 1, 67, 127
2, 22080, Note_on_c, 1, 73, 127
2, 22520, Note_off_c, 1, 57, 0
2, 22520, Note_off_c, 1, 64, 0
2, 22520, Note_off_c, 1, 67, 0
2, 22520, Note_off_c, 1, 73, 0
2, 22600, Note_on_c, 1, 64, 127
2, 22600, Note_on_c, 1, 67, 127
2, 22600, Note_on_c, 1, 73, 127
2, 22600, Note_on_c, 1, 78, 127
2, 22800, Note_off_c, 1, 78, 0
2, 22840, Note_on_c, 1, 82, 127
2, 23320, Note_off_c, 1, 64, 0
2, 23320, Note_off_c, 1, 67, 0
2, 23320, Note_off_c, 1, 73, 0
2, 23320, Note_off_c, 1, 82, 0
2, 23360, Note_on_c, 1, 62, 127
2, 23360, Note_on_c, 1, 65, 127
2, 23360, Note_on_c, 1, 72, 127
2, 23360, Note_on_c, 1, 80, 127
2, 24480, Note_on_c, 1, 54, 127
2, 24480, Note_on_c, 1, 61, 127
2, 24480, Note_off_c, 1, 62, 0
2, 24480, Note_on_c, 1, 64, 127
2, 24480, Note_off_c, 1, 65, 0
2, 24480, Note_on_c, 1, 70, 127
2, 24480, Note_off_c, 1, 72, 0
2, 24480, Note_on_c, 1, 76, 127
2, 24480, Note_off_c, 1, 80, 0
2, 24520, Note_off_c, 1, 54, 0
2, 24520, Note_off_c, 1, 61, 0
2, 24520, Note_off_c, 1, 64, 0
2, 24520, Note_off_c, 1, 70, 0
2, 24520, Note_off_c, 1, 76, 0
2, 24560, Note_on_c, 1, 62, 127
2, 24560, Note_on_c, 1, 65, 127
2, 24560, Note_on_c, 1, 71, 127
2, 24560, Note_on_c, 1, 79, 127
2, 24680, Note_off_c, 1, 62, 0
2, 24680, Note_off_c, 1, 65, 0
2, 24680, Note_off_c, 1, 71, 0
2, 24680, Note_off_c, 1, 79, 0
2, 24720, Note_on_c, 1, 62, 127
2, 24720, Note_on_c, 1, 65, 127
2, 24720, Note_on_c, 1, 71, 127
2, 24720, Note_on_c, 1, 79, 127
2, 25320, Note_on_c, 1, 77, 127
2, 25320, Note_off_c, 1, 79, 0
2, 25400, Note_off_c, 1, 62, 0
2, 25400, Note_off_c, 1, 65, 0
2, 25400, Note_off_c, 1, 71, 0
2, 25400, Note_off_c, 1, 77, 0
2, 25440, Note_on_c, 1, 60, 127
2, 25440, Note_on_c, 1, 67, 127
2, 25440, Note_on_c, 1, 72, 127
2, 25440, Note_on_c, 1, 76, 127
2, 26160, Note_off_c, 1, 60, 0
2, 26160, Note_off_c, 1, 67, 0
2, 26160, Note_off_c, 1, 72, 0
2, 26160, Note_off_c, 1, 76, 0
2, 26200, Note_on_c, 1, 60, 127
2, 26200, Note_on_c, 1, 67, 127
2, 26200, Note_on_c, 1, 72, 127
2, 26200, Note_on_c, 1, 76, 127
2, 26720, Note_off_c, 1, 60, 0
2, 26760, Note_on_c, 1, 60, 127
2, 27600, Note_off_c, 1, 67, 0
2, 27600, Note_off_c, 1, 72, 0
2, 27600, Note_off_c, 1, 76, 0
2, 27640, Note_on_c, 1, 44, 127
2, 27640, Note_on_c, 1, 51, 127
2, 27640, Note_on_c, 1, 52, 127
2, 27640, Note_on_c, 1, 84, 127
2, 27720, Note_off_c, 1, 44, 0
2, 27720, Note_off_c, 1, 51, 0
2, 27720, Note_off_c, 1, 52, 0
2, 27720, Note_off_c, 1, 60, 0
2, 27720, Note_off_c, 1, 84, 0
2, 27760, Note_on_c, 1, 44, 127
2, 27760, Note_on_c, 1, 51, 127
2, 27760, Note_on_c, 1, 52, 127
2, 27760, Note_on_c, 1, 60, 127
2, 27760, Note_on_c, 1, 84, 127
2, 27920, Note_off_c, 1, 52, 0
2, 28360, Note_on_c, 1, 41, 127
2, 28360, Note_off_c, 1, 44, 0
2, 28360, Note_on_c, 1, 49, 127
2, 28360, Note_off_c, 1, 51, 0
2, 28360, Note_on_c, 1, 56, 127
2, 28360, Note_off_c, 1, 60, 0
2, 28360, Note_off_c, 1, 84, 0
2, 28360, Note_on_c, 1, 92, 127
2, 28400, Note_off_c, 1, 41, 0
2, 28400, Note_on_c, 1, 44, 127
2, 28400, Note_off_c, 1, 49, 0
2, 28400, Note_on_c, 1, 51, 127
2, 28400, Note_off_c, 1, 56, 0
2, 28400, Note_on_c, 1, 60, 127
2, 28400, Note_on_c, 1, 84, 127
2, 28400, Note_off_c, 1, 92, 0
2, 28440, Note_off_c, 1, 44, 0
2, 28440, Note_off_c, 1, 51, 0
2, 28440, Note_off_c, 1, 60, 0
2, 28440, Note_off_c, 1, 84, 0
2, 28480, Note_on_c, 1, 50, 127
2, 28480, Note_on_c, 1, 57, 127
2, 28480, Note_on_c, 1, 74, 127
2, 28880, Note_on_c, 1, 66, 127
2, 29680, Note_off_c, 1, 50, 0
2, 29680, Note_off_c, 1, 57, 0
2, 29680, Note_off_c, 1, 66, 0
2, 29680, Note_off_c, 1, 74, 0
2, 29720, Note_on_c, 1, 54, 127
2, 29720, Note_on_c, 1, 66, 127
2, 29880, Note_off_c, 1, 54, 0
2, 29880, Note_off_c, 1, 66, 0
2, 29920, Note_on_c, 1, 54, 127
2, 29920, Note_on_c, 1, 66, 127
2, 30480, Note_off_c, 1, 54, 0
2, 30480, Note_off_c, 1, 66, 0
2, 30600, Note_on_c, 1, 45, 127
2, 30600, Note_on_c, 1, 52, 127
2, 30600, Note_on_c, 1, 59, 127
2, 30600, Note_on_c, 1, 62, 127
2, 31360, Note_off_c, 1, 45, 0
2, 31360, Note_off_c, 1, 52, 0
2, 31360, Note_off_c, 1, 59, 0
2, 31360, Note_off_c, 1, 62, 0
2, 31440, Note_on_c, 1, 51, 127
2, 31440, Note_on_c, 1, 63, 127
2, 31440, Note_on_c, 1, 91, 127
2, 31440, Note_on_c, 1, 96, 127
2, 31440, Note_on_c, 1, 99, 127
2, 31440, Note_on_c, 1, 103, 127
2, 31480, Note_on_c, 1, 49, 127
2, 31480, Note_off_c, 1, 51, 0
2, 31480, Note_on_c, 1, 53, 127
2, 31480, Note_off_c, 1, 63, 0
2, 31480, Note_on_c, 1, 65, 127
2, 31480, Note_on_c, 1, 73, 127
2, 31480, Note_off_c, 1, 91, 0
2, 31480, Note_off_c, 1, 96, 0
2, 31480, Note_off_c, 1, 99, 0
2, 31480, Note_off_c, 1, 103, 0
2, 31520, Note_off_c, 1, 49, 0
2, 31520, Note_on_c, 1, 56, 127
2, 31520, Note_on_c, 1, 58, 127
2, 31520, Note_on_c, 1, 62, 127
2, 31520, Note_off_c, 1, 65, 0
2, 31520, Note_off_c, 1, 73, 0
2, 31520, Note_on_c, 1, 92, 127
2, 31560, Note_on_c, 1, 48, 127
2, 31560, Note_off_c, 1, 53, 0
2, 31560, Note_off_c, 1, 56, 0
2, 31560, Note_off_c, 1, 58, 0
2, 31560, Note_off_c, 1, 62, 0
2, 31560, Note_on_c, 1, 86, 127
2, 31560, Note_on_c, 1, 88, 127
2, 31560, Note_off_c, 1, 92, 0
2, 31600, Note_off_c, 1, 48, 0
2, 31600, Note_on_c, 1, 66, 127
2, 31600, Note_on_c, 1, 69, 127
2, 31600, Note_on_c, 1, 73, 127
2, 31600, Note_on_c, 1, 78, 127
2, 31600, Note_on_c, 1, 85, 127
2, 31600, Note_off_c, 1, 86, 0
2, 31600, Note_off_c, 1, 88, 0
2, 31640, Note_on_c, 1, 50, 127
2, 31640, Note_on_c, 1, 62, 127
2, 31640, Note_off_c, 1, 66, 0
2, 31640, Note_off_c, 1, 69, 0
2, 31640, Note_off_c, 1, 73, 0
2, 31640, Note_on_c, 1, 74, 127
2, 31640, Note_off_c, 1, 78, 0
2, 31640, Note_on_c, 1, 83, 127
2, 31640, Note_off_c, 1, 85, 0
2, 31680, Note_off_c, 1, 50, 0
2, 31680, Note_on_c, 1, 61, 127
2, 31680, Note_off_c, 1, 62, 0
2, 31680, Note_on_c, 1, 65, 127
2, 31680, Note_off_c, 1, 74, 0
2, 31680, Note_off_c, 1, 83, 0
2, 31680, Note_on_c, 1, 89, 127
2, 31680, Note_on_c, 1, 92, 127
2, 31720, Note_on_c, 1, 44, 127
2, 31720, Note_on_c, 1, 51, 127
2, 31720, Note_off_c, 1, 61, 0
2, 31720, Note_off_c, 1, 65, 0
2, 31720, Note_on_c, 1, 73, 127
2, 31720, Note_on_c, 1, 78, 127
2, 31720, Note_off_c, 1, 89, 0
2, 31720, Note_off_c, 1, 92, 0
2, 31760, Note_on_c, 1, 40, 127
2, 31760, Note_off_c, 1, 44, 0
2, 31760, Note_off_c, 1, 51, 0
2, 31760, Note_on_c, 1, 52, 127
2, 31760, Note_off_c, 1, 73, 0
2, 31760, Note_off_c, 1, 78, 0
2, 31760, Note_on_c, 1, 86, 127
2, 31760, Note_on_c, 1, 90, 127
2, 31760, Note_on_c, 1, 98, 127
2, 31800, Note_off_c, 1, 40, 0
2, 31800, Note_off_c, 1, 52, 0
2, 31800, Note_off_c, 1, 86, 0
2, 31800, Note_off_c, 1, 90, 0
2, 31800, Note_off_c, 1, 98, 0
2, 31840, Note_on_c, 1, 57, 127
2, 31840, Note_on_c, 1, 60, 127
2, 31840, Note_on_c, 1, 65, 127
2, 31840, Note_on_c, 1, 69, 127
2, 31840, Note_on_c, 1, 77, 127
2, 31840, Note_on_c, 1, 89, 127
2, 31880, Note_off_c, 1, 57, 0
2, 31880, Note_off_c, 1, 60, 0
2, 31880, Note_off_c, 1, 65, 0
2, 31880, Note_off_c, 1, 69, 0
2, 31880, Note_on_c, 1, 70, 127
2, 31880, Note_on_c, 1, 72, 127
2, 31880, Note_on_c, 1, 75, 127
2, 31880, Note_off_c, 1, 77, 0
2, 31880, Note_on_c, 1, 81, 127
2, 31880, Note_off_c, 1, 89, 0
2, 31920, Note_on_c, 1, 45, 127
2, 31920, Note_on_c, 1, 49, 127
2, 31920, Note_on_c, 1, 52, 127
2, 31920, Note_on_c, 1, 57, 127
2, 31920, Note_on_c, 1, 61, 127
2, 31920, Note_on_c, 1, 69, 127
2, 31920, Note_off_c, 1, 70, 0
2, 31920, Note_off_c, 1, 72, 0
2, 31920, Note_off_c, 1, 81, 0
2, 31960, Note_off_c, 1, 45, 0
2, 31960, Note_off_c, 1, 49, 0
2, 31960, Note_off_c, 1, 52, 0
2, 31960, Note_off_c, 1, 57, 0
2, 31960, Note_off_c, 1, 61, 0
2, 31960, Note_off_c, 1, 69, 0
2, 31960, Note_off_c, 1, 75, 0
2, 31960, Note_on_c, 1, 85, 127
2, 31960, Note_on_c, 1, 90, 127
2, 31960, Note_on_c, 1, 97, 127
2, 32000, Note_on_c, 1, 74, 127
2, 32000, Note_on_c, 1, 77, 127
2, 32000, Note_on_c, 1, 80, 127
2, 32000, Note_on_c, 1, 83, 127
2, 32000, Note_off_c, 1, 85, 0
2, 32000, Note_on_c, 1, 89, 127
2, 32000, Note_off_c, 1, 90, 0
2, 32000, Note_off_c, 1, 97, 0
2, 32040, Note_on_c, 1, 41, 127
2, 32040, Note_on_c, 1, 46, 127
2, 32040, Note_on_c, 1, 56, 127
2, 32040, Note_on_c, 1, 62, 127
2, 32040, Note_off_c, 1, 74, 0
2, 32040, Note_off_c, 1, 77, 0
2, 32040, Note_off_c, 1, 80, 0
2, 32040, Note_off_c, 1, 83, 0
2, 32040, Note_off_c, 1, 89, 0
2, 32080, Note_off_c, 1, 41, 0
2, 32080, Note_off_c, 1, 46, 0
2, 32080, Note_on_c, 1, 54, 127
2, 32080, Note_off_c, 1, 56, 0
2, 32080, Note_on_c, 1, 60, 127
2, 32080, Note_on_c, 1, 68, 127
2, 32120, Note_off_c, 1, 54, 0
2, 32120, Note_off_c, 1, 60, 0
2, 32120, Note_off_c, 1, 62, 0
2, 32120, Note_off_c, 1, 68, 0
2, 32120, Note_on_c, 1, 93, 127
2, 32120, Note_on_c, 1, 94, 127
2, 32120, Note_on_c, 1, 103, 127
2, 32160, Note_on_c, 1, 46, 127
2, 32160, Note_on_c, 1, 58, 127
2, 32160, Note_on_c, 1, 62, 127
2, 32160, Note_on_c, 1, 65, 127
2, 32160, Note_on_c, 1, 68, 127
2, 32160, Note_on_c, 1, 71, 127
2, 32160, Note_off_c, 1, 93, 0
2, 32160, Note_off_c, 1, 94, 0
2, 32160, Note_off_c, 1, 103, 0
2, 32200, Note_off_c, 1, 46, 0
2, 32200, Note_off_c, 1, 58, 0
2, 32200, Note_off_c, 1, 62, 0
2, 32200, Note_on_c, 1, 63, 127
2, 32200, Note_on_c, 1, 79, 127
2, 32240, Note_on_c, 1, 43, 127
2, 32240, Note_on_c, 1, 55, 127
2, 32240, Note_off_c, 1, 63, 0
2, 32240, Note_off_c, 1, 65, 0
2, 32240, Note_on_c, 1, 67, 127
2, 32240, Note_off_c, 1, 68, 0
2, 32240, Note_off_c, 1, 79, 0
2, 32240, Note_on_c, 1, 83, 127
2, 32240, Note_on_c, 1, 95, 127
2, 32280, Note_off_c, 1, 43, 0
2, 32280, Note_off_c, 1, 55, 0
2, 32280, Note_off_c, 1, 67, 0
2, 32280, Note_off_c, 1, 71, 0
2, 32280, Note_on_c, 1, 88, 127
2, 32280, Note_on_c, 1, 92, 127
2, 32320, Note_on_c, 1, 41, 127
2, 32320, Note_on_c, 1, 55, 127
2, 32320, Note_on_c, 1, 58, 127
2, 32320, Note_on_c, 1, 64, 127
2, 32320, Note_on_c, 1, 67, 127
2, 32320, Note_on_c, 1, 72, 127
2, 32320, Note_off_c, 1, 83, 0
2, 32320, Note_off_c, 1, 88, 0
2, 32320, Note_off_c, 1, 92, 0
2, 32320, Note_off_c, 1, 95, 0
2, 32520, Note_off_c, 1, 41, 0
2, 32520, Note_off_c, 1, 55, 0
2, 32520, Note_on_c, 1, 56, 127
2, 32520, Note_off_c, 1, 58, 0
2, 32520, Note_on_c, 1, 59, 127
2, 32520, Note_on_c, 1, 63, 127
2, 32520, Note_off_c, 1, 64, 0
2, 32520, Note_off_c, 1, 67, 0
2, 32520, Note_off_c, 1, 72, 0
2, 32520, Note_on_c, 1, 75, 127
2, 32520, Note_on_c, 1, 80, 127
2, 32560, Note_on_c, 1, 41, 127
2, 32560, Note_on_c, 1, 55, 127
2, 32560, Note_off_c, 1, 56, 0
2, 32560, Note_on_c, 1, 58, 127
2, 32560, Note_off_c, 1, 59, 0
2, 32560, Note_off_c, 1, 63, 0
2, 32560, Note_on_c, 1, 64, 127
2, 32560, Note_on_c, 1, 67, 127
2, 32560, Note_on_c, 1, 72, 127
2, 32560, Note_off_c, 1, 75, 0
2, 32560, Note_off_c, 1, 80, 0
2, 32680, Note_off_c, 1, 41, 0
2, 32680, Note_off_c, 1, 55, 0
2, 32680, Note_off_c, 1, 58, 0
2, 32680, Note_on_c, 1, 61, 127
2, 32680, Note_off_c, 1, 64, 0
2, 32680, Note_off_c, 1, 67, 0
2, 32680, Note_off_c, 1, 72, 0
2, 32680, Note_on_c, 1, 94, 127
2, 32720, Note_on_c, 1, 53, 127
2, 32720, Note_on_c, 1, 57, 127
2, 32720, Note_on_c, 1, 67, 127
2, 32720, Note_on_c, 1, 69, 127
2, 32720, Note_off_c, 1, 94, 0
2, 32760, Note_off_c, 1, 53, 0
2, 32760, Note_on_c, 1, 55, 127
2, 32760, Note_off_c, 1, 57, 0
2, 32760, Note_on_c, 1, 59, 127
2, 32760, Note_off_c, 1, 61, 0
2, 32760, Note_on_c, 1, 62, 127
2, 32760, Note_off_c, 1, 67, 0
2, 32760, Note_off_c, 1, 69, 0
2, 32760, Note_on_c, 1, 98, 127
2, 32800, Note_on_c, 1, 53, 127
2, 32800, Note_off_c, 1, 55, 0
2, 32800, Note_on_c, 1, 57, 127
2, 32800, Note_off_c, 1, 59, 0
2, 32800, Note_on_c, 1, 61, 127
2, 32800, Note_off_c, 1, 62, 0
2, 32800, Note_on_c, 1, 67, 127
2, 32800, Note_on_c, 1, 69, 127
2, 32800, Note_off_c, 1, 98, 0
2, 32920, Note_off_c, 1, 53, 0
2, 32920, Note_off_c, 1, 61, 0
2, 32920, Note_on_c, 1, 62, 127
2, 32920, Note_on_c, 1, 65, 127
2, 32920, Note_off_c, 1, 67, 0
2, 32920, Note_on_c, 1, 81, 127
2, 32960, Note_on_c, 1, 42, 127
2, 32960, Note_off_c, 1, 57, 0
2, 32960, Note_off_c, 1, 62, 0
2, 32960, Note_off_c, 1, 65, 0
2, 32960, Note_off_c, 1, 69, 0
2, 32960, Note_on_c, 1, 71, 127
2, 32960, Note_on_c, 1, 78, 127
2, 32960, Note_off_c, 1, 81, 0
2, 33000, Note_on_c, 1, 37, 127
2, 33000, Note_off_c, 1, 42, 0
2, 33000, Note_on_c, 1, 49, 127
2, 33000, Note_on_c, 1, 67, 127
2, 33000, Note_off_c, 1, 71, 0
2, 33000, Note_on_c, 1, 73, 127
2, 33000, Note_off_c, 1, 78, 0
2, 33040, Note_off_c, 1, 37, 0
2, 33040, Note_on_c, 1, 61, 127
2, 33040, Note_off_c, 1, 67, 0
2, 33040, Note_off_c, 1, 73, 0
2, 33040, Note_on_c, 1, 74, 127
2, 33040, Note_on_c, 1, 77, 127
2, 33040, Note_on_c, 1, 81, 127
2, 33040, Note_on_c, 1, 86, 127
2, 33080, Note_on_c, 1, 31, 127
2, 33080, Note_on_c, 1, 43, 127
2, 33080, Note_off_c, 1, 49, 0
2, 33080, Note_off_c, 1, 61, 0
2, 33080, Note_on_c, 1, 70, 127
2, 33080, Note_off_c, 1, 74, 0
2, 33080, Note_off_c, 1, 77, 0
2, 33080, Note_on_c, 1, 79, 127
2, 33080, Note_off_c, 1, 81, 0
2, 33080, Note_on_c, 1, 82, 127
2, 33080, Note_off_c, 1, 86, 0
2, 33080, Note_on_c, 1, 87, 127
2, 33080, Note_on_c, 1, 91, 127
2, 33120, Note_off_c, 1, 31, 0
2, 33120, Note_off_c, 1, 43, 0
2, 33120, Note_on_c, 1, 55, 127
2, 33120, Note_on_c, 1, 57, 127
2, 33120, Note_on_c, 1, 61, 127
2, 33120, Note_on_c, 1, 63, 127
2, 33120, Note_off_c, 1, 70, 0
2, 33120, Note_off_c, 1, 79, 0
2, 33120, Note_off_c, 1, 82, 0
2, 33120, Note_off_c, 1, 87, 0
2, 33120, Note_off_c, 1, 91, 0
2, 33160, Note_on_c, 1, 38, 127
2, 33160, Note_on_c, 1, 54, 127
2, 33160, Note_off_c, 1, 55, 0
2, 33160, Note_on_c, 1, 56, 127
2, 33160, Note_off_c, 1, 57, 0
2, 33160, Note_off_c, 1, 61, 0
2, 33160, Note_off_c, 1, 63, 0
2, 33200, Note_off_c, 1, 38, 0
2, 33200, Note_on_c, 1, 47, 127
2, 33200, Note_off_c, 1, 56, 0
2, 33200, Note_on_c, 1, 59, 127
2, 33200, Note_on_c, 1, 75, 127
2, 33200, Note_on_c, 1, 81, 127
2, 33200, Note_on_c, 1, 83, 127
2, 33200, Note_on_c, 1, 87, 127
2, 33240, Note_off_c, 1, 47, 0
2, 33240, Note_off_c, 1, 54, 0
2, 33240, Note_off_c, 1, 59, 0
2, 33240, Note_off_c, 1, 81, 0
2, 33240, Note_off_c, 1, 83, 0
2, 33280, Note_off_c, 1, 75, 0
2, 33280, Note_off_c, 1, 87, 0
2, 33320, Note_on_c, 1, 47, 127
2, 33320, Note_on_c, 1, 56, 127
2, 33320, Note_on_c, 1, 59, 127
2, 33320, Note_on_c, 1, 71, 127
2, 33920, Note_off_c, 1, 56, 0
2, 33960, Note_off_c, 1, 47, 0
2, 33960, Note_off_c, 1, 59, 0
2, 33960, Note_off_c, 1, 71, 0
2, 34000, Note_on_c, 1, 38, 127
2, 34000, Note_on_c, 1, 54, 127
2, 34000, Note_on_c, 1, 59, 127
2, 34000, Note_on_c, 1, 62, 127
2, 34160, Note_off_c, 1, 38, 0
2, 34160, Note_off_c, 1, 54, 0
2, 34160, Note_on_c, 1, 58, 127
2, 34160, Note_off_c, 1, 59, 0
2, 34160, Note_off_c, 1, 62, 0
2, 34160, Note_on_c, 1, 63, 127
2, 34160, Note_on_c, 1, 67, 127
2, 34160, Note_on_c, 1, 93, 127
2, 34200, Note_on_c, 1, 35, 127
2, 34200, Note_on_c, 1, 47, 127
2, 34200, Note_off_c, 1, 58, 0
2, 34200, Note_off_c, 1, 63, 0
2, 34200, Note_off_c, 1, 67, 0
2, 34200, Note_on_c, 1, 83, 127
2, 34200, Note_on_c, 1, 88, 127
2, 34200, Note_off_c, 1, 93, 0
2, 34200, Note_on_c, 1, 95, 127
2, 34240, Note_off_c, 1, 35, 0
2, 34240, Note_off_c, 1, 47, 0
2, 34240, Note_on_c, 1, 50, 127
2, 34240, Note_on_c, 1, 62, 127
2, 34240, Note_on_c, 1, 69, 127
2, 34240, Note_on_c, 1, 72, 127
2, 34240, Note_on_c, 1, 78, 127
2, 34240, Note_off_c, 1, 83, 0
2, 34240, Note_off_c, 1, 88, 0
2, 34240, Note_off_c, 1, 95, 0
2, 34280, Note_on_c, 1, 41, 127
2, 34280, Note_on_c, 1, 47, 127
2, 34280, Note_off_c, 1, 50, 0
2, 34280, Note_on_c, 1, 53, 127
2, 34280, Note_on_c, 1, 57, 127
2, 34280, Note_off_c, 1, 62, 0
2, 34280, Note_on_c, 1, 63, 127
2, 34280, Note_off_c, 1, 72, 0
2, 34280, Note_off_c, 1, 78, 0
2, 34320, Note_off_c, 1, 41, 0
2, 34320, Note_off_c, 1, 47, 0
2, 34320, Note_off_c, 1, 53, 0
2, 34320, Note_off_c, 1, 57, 0
2, 34320, Note_off_c, 1, 63, 0
2, 34320, Note_off_c, 1, 69, 0
2, 34320, Note_on_c, 1, 91, 127
2, 34320, Note_on_c, 1, 92, 127
2, 34320, Note_on_c, 1, 95, 127
2, 34320, Note_on_c, 1, 96, 127
2, 34360, Note_on_c, 1, 34, 127
2, 34360, Note_on_c, 1, 41, 127
2, 34360, Note_on_c, 1, 65, 127
2, 34360, Note_on_c, 1, 69, 127
2, 34360, Note_on_c, 1, 74, 127
2, 34360, Note_on_c, 1, 77, 127
2, 34360, Note_off_c, 1, 91, 0
2, 34360, Note_off_c, 1, 92, 0
2, 34360, Note_off_c, 1, 95, 0
2, 34360, Note_off_c, 1, 96, 0
2, 34400, Note_off_c, 1, 34, 0
2, 34400, Note_off_c, 1, 41, 0
2, 34400, Note_on_c, 1, 46, 127
2, 34400, Note_on_c, 1, 58, 127
2, 34400, Note_on_c, 1, 63, 127
2, 34400, Note_off_c, 1, 65, 0
2, 34400, Note_on_c, 1, 68, 127
2, 34400, Note_off_c, 1, 69, 0
2, 34400, Note_on_c, 1, 72, 127
2, 34400, Note_off_c, 1, 74, 0
2, 34400, Note_off_c, 1, 77, 0
2, 34440, Note_off_c, 1, 46, 0
2, 34440, Note_on_c, 1, 54, 127
2, 34440, Note_on_c, 1, 66, 127
2, 34440, Note_off_c, 1, 68, 0
2, 34440, Note_on_c, 1, 70, 127
2, 34440, Note_off_c, 1, 72, 0
2, 34440, Note_on_c, 1, 75, 127
2, 34440, Note_on_c, 1, 87, 127
2, 34480, Note_on_c, 1, 47, 127
2, 34480, Note_off_c, 1, 54, 0
2, 34480, Note_off_c, 1, 58, 0
2, 34480, Note_off_c, 1, 63, 0
2, 34480, Note_off_c, 1, 66, 0
2, 34480, Note_off_c, 1, 70, 0
2, 34480, Note_off_c, 1, 75, 0
2, 34480, Note_on_c, 1, 77, 127
2, 34480, Note_off_c, 1, 87, 0
2, 34480, Note_on_c, 1, 91, 127
2, 34520, Note_on_c, 1, 35, 127
2, 34520, Note_off_c, 1, 47, 0
2, 34520, Note_on_c, 1, 54, 127
2, 34520, Note_on_c, 1, 59, 127
2, 34520, Note_on_c, 1, 64, 127
2, 34520, Note_on_c, 1, 68, 127
2, 34520, Note_on_c, 1, 71, 127
2, 34520, Note_off_c, 1, 77, 0
2, 34520, Note_off_c, 1, 91, 0
2, 34560, Note_off_c, 1, 35, 0
2, 34560, Note_off_c, 1, 54, 0
2, 34560, Note_off_c, 1, 59, 0
2, 34560, Note_off_c, 1, 64, 0
2, 34560, Note_off_c, 1, 68, 0
2, 34560, Note_off_c, 1, 71, 0
2, 34600, Note_on_c, 1, 57, 127
2, 34600, Note_on_c, 1, 62, 127
2, 34600, Note_on_c, 1, 66, 127
2, 34600, Note_on_c, 1, 69, 127
2, 34600, Note_on_c, 1, 74, 127
2, 34600, Note_on_c, 1, 78, 127
2, 35760, Note_off_c, 1, 57, 0
2, 35760, Note_off_c, 1, 62, 0
2, 35760, Note_off_c, 1, 66, 0
2, 35760, Note_off_c, 1, 69, 0
2, 35760, Note_off_c, 1, 74, 0
2, 35760, Note_off_c, 1, 78, 0
2, 35800, Note_on_c, 1, 47, 127
2, 35800, Note_on_c, 1, 77, 127
2, 35800, Note_on_c, 1, 80, 127
2, 35800, Note_on_c, 1, 86, 127
2, 35960, Note_off_c, 1, 47, 0
2, 35960, Note_off_c, 1, 77, 0
2, 35960, Note_off_c, 1, 80, 0
2, 35960, Note_off_c, 1, 86, 0
2, 36000, Note_on_c, 1, 47, 127
2, 36000, Note_on_c, 1, 77, 127
2, 36000, Note_on_c, 1, 80, 127
2, 36000, Note_on_c, 1, 86, 127
2, 36600, Note_off_c, 1, 77, 0
2, 36600, Note_off_c, 1, 80, 0
2, 36600, Note_off_c, 1, 86, 0
2, 36680, Note_on_c, 1, 77, 127
2, 36680, Note_on_c, 1, 80, 127
2, 36680, Note_on_c, 1, 86, 127
2, 36800, Note_off_c, 1, 77, 0
2, 36800, Note_off_c, 1, 80, 0
2, 36800, Note_off_c, 1, 86, 0
2, 36840, Note_on_c, 1, 77, 127
2, 36840, Note_on_c, 1, 80, 127
2, 36840, Note_on_c, 1, 86, 127
2, 37240, Note_off_c, 1, 77, 0
2, 37240, Note_off_c, 1, 80, 0
2, 37240, Note_off_c, 1, 86, 0
2, 37280, Note_on_c, 1, 77, 127
2, 37280, Note_on_c, 1, 80, 127
2, 37280, Note_on_c, 1, 86, 127
2, 37400, Note_off_c, 1, 77, 0
2, 37400, Note_off_c, 1, 80, 0
2, 37400, Note_off_c, 1, 86, 0
2, 37480, Note_on_c, 1, 77, 127
2, 37480, Note_on_c, 1, 80, 127
2, 37480, Note_on_c, 1, 86, 127
2, 37600, Note_off_c, 1, 77, 0
2, 37600, Note_off_c, 1, 80, 0
2, 37600, Note_off_c, 1, 86, 0
2, 37680, Note_on_c, 1, 77, 127
2, 37680, Note_on_c, 1, 80, 127
2, 37680, Note_on_c, 1, 86, 127
2, 37800, Note_off_c, 1, 77, 0
2, 37800, Note_off_c, 1, 80, 0
2, 37800, Note_off_c, 1, 86, 0
2, 37880, Note_on_c, 1, 77, 127
2, 37880, Note_on_c, 1, 80, 127
2, 37880, Note_on_c, 1, 86, 127
2, 38000, Note_off_c, 1, 77, 0
2, 38000, Note_off_c, 1, 80, 0
2, 38000, Note_off_c, 1, 86, 0
2, 38040, Note_on_c, 1, 49, 127
2, 38080, Note_off_c, 1, 49, 0
2, 38080, Note_on_c, 1, 77, 127
2, 38080, Note_on_c, 1, 80, 127
2, 38080, Note_on_c, 1, 86, 127
2, 38240, Note_off_c, 1, 77, 0
2, 38240, Note_off_c, 1, 80, 0
2, 38240, Note_off_c, 1, 86, 0
2, 38280, Note_off_c, 1, 47, 0
2, 38320, Note_on_c, 1, 47, 127
2, 38320, Note_on_c, 1, 77, 127
2, 38320, Note_on_c, 1, 80, 127
2, 38320, Note_on_c, 1, 86, 127
2, 38480, Note_off_c, 1, 77, 0
2, 38480, Note_off_c, 1, 80, 0
2, 38480, Note_off_c, 1, 86, 0
2, 38520, Note_on_c, 1, 77, 127
2, 38520, Note_on_c, 1, 80, 127
2, 38520, Note_on_c, 1, 86, 127
2, 38640, Note_off_c, 1, 47, 0
2, 38640, Note_on_c, 1, 61, 127
2, 38640, Note_off_c, 1, 77, 0
2, 38640, Note_on_c, 1, 83, 127
2, 38640, Note_off_c, 1, 86, 0
2, 38640, Note_on_c, 1, 92, 127
2, 38680, Note_on_c, 1, 47, 127
2, 38680, Note_off_c, 1, 61, 0
2, 38680, Note_off_c, 1, 80, 0
2, 38680, Note_off_c, 1, 83, 0
2, 38680, Note_off_c, 1, 92, 0
2, 38720, Note_on_c, 1, 77, 127
2, 38720, Note_on_c, 1, 80, 127
2, 38720, Note_on_c, 1, 86, 127
2, 38840, Note_off_c, 1, 77, 0
2, 38840, Note_off_c, 1, 80, 0
2, 38840, Note_off_c, 1, 86, 0
2, 38920, Note_on_c, 1, 77, 127
2, 38920, Note_on_c, 1, 80, 127
2, 38920, Note_on_c, 1, 86, 127
2, 39040, Note_off_c, 1, 77, 0
2, 39040, Note_off_c, 1, 80, 0
2, 39040, Note_off_c, 1, 86, 0
2, 39120, Note_on_c, 1, 77, 127
2, 39120, Note_on_c, 1, 80, 127
2, 39120, Note_on_c, 1, 86, 127
2, 39240, Note_off_c, 1, 77, 0
2, 39240, Note_off_c, 1, 80, 0
2, 39240, Note_off_c, 1, 86, 0
2, 39280, Note_off_c, 1, 47, 0
2, 39320, Note_on_c, 1, 53, 127
2, 39320, Note_on_c, 1, 57, 127
2, 39320, Note_on_c, 1, 62, 127
2, 39320, Note_on_c, 1, 65, 127
2, 39320, Note_on_c, 1, 81, 127
2, 39320, Note_on_c, 1, 86, 127
2, 39360, Note_on_c, 1, 51, 127
2, 39360, Note_off_c, 1, 53, 0
2, 39360, Note_off_c, 1, 57, 0
2, 39360, Note_on_c, 1, 61, 127
2, 39360, Note_off_c, 1, 62, 0
2, 39360, Note_on_c, 1, 63, 127
2, 39360, Note_off_c, 1, 65, 0
2, 39360, Note_on_c, 1, 67, 127
2, 39360, Note_on_c, 1, 73, 127
2, 39360, Note_off_c, 1, 81, 0
2, 39360, Note_off_c, 1, 86, 0
2, 39440, Note_off_c, 1, 51, 0
2, 39440, Note_off_c, 1, 61, 0
2, 39440, Note_off_c, 1, 63, 0
2, 39440, Note_off_c, 1, 67, 0
2, 39440, Note_off_c, 1, 73, 0
2, 39520, Note_on_c, 1, 38, 127
2, 39520, Note_on_c, 1, 50, 127
2, 39520, Note_on_c, 1, 64, 127
2, 39520, Note_on_c, 1, 68, 127
2, 39520, Note_on_c, 1, 71, 127
2, 39640, Note_off_c, 1, 38, 0
2, 39640, Note_off_c, 1, 50, 0
2, 39640, Note_off_c, 1, 64, 0
2, 39640, Note_off_c, 1, 68, 0
2, 39640, Note_off_c, 1, 71, 0
2, 39720, Note_on_c, 1, 40, 127
2, 39720, Note_on_c, 1, 52, 127
2, 39720, Note_on_c, 1, 61, 127
2, 39720, Note_on_c, 1, 68, 127
2, 39840, Note_off_c, 1, 40, 0
2, 39840, Note_off_c, 1, 52, 0
2, 39840, Note_off_c, 1, 61, 0
2, 39840, Note_off_c, 1, 68, 0
2, 39920, Note_on_c, 1, 47, 127
2, 39920, Note_on_c, 1, 59, 127
2, 39920, Note_on_c, 1, 62, 127
2, 39920, Note_on_c, 1, 66, 127
2, 39920, Note_on_c, 1, 74, 127
2, 40080, Note_on_c, 1, 45, 127
2, 40080, Note_off_c, 1, 47, 0
2, 40080, Note_off_c, 1, 59, 0
2, 40080, Note_off_c, 1, 62, 0
2, 40080, Note_on_c, 1, 63, 127
2, 40080, Note_off_c, 1, 66, 0
2, 40120, Note_on_c, 1, 42, 127
2, 40120, Note_off_c, 1, 45, 0
2, 40120, Note_on_c, 1, 54, 127
2, 40120, Note_on_c, 1, 57, 127
2, 40120, Note_on_c, 1, 61, 127
2, 40120, Note_off_c, 1, 63, 0
2, 40120, Note_off_c, 1, 74, 0
2, 40240, Note_off_c, 1, 42, 0
2, 40240, Note_on_c, 1, 44, 127
2, 40240, Note_off_c, 1, 54, 0
2, 40240, Note_off_c, 1, 57, 0
2, 40240, Note_off_c, 1, 61, 0
2, 40280, Note_off_c, 1, 44, 0
2, 40360, Note_on_c, 1, 40, 127
2, 40360, Note_on_c, 1, 44, 127
2, 40360, Note_on_c, 1, 52, 127
2, 40560, Note_off_c, 1, 40, 0
2, 40560, Note_off_c, 1, 44, 0
2, 40560, Note_on_c, 1, 46, 127
2, 40560, Note_on_c, 1, 49, 127
2, 40560, Note_off_c, 1, 52, 0
2, 40560, Note_on_c, 1, 55, 127
2, 40560, Note_on_c, 1, 75, 127
2, 40920, Note_off_c, 1, 46, 0
2, 40920, Note_off_c, 1, 49, 0
2, 40920, Note_off_c, 1, 55, 0
2, 40920, Note_on_c, 1, 74, 127
2, 40920, Note_off_c, 1, 75, 0
2, 40920, Note_on_c, 1, 78, 127
2, 40920, Note_on_c, 1, 86, 127
2, 40960, Note_on_c, 1, 44, 127
2, 40960, Note_on_c, 1, 47, 127
2, 40960, Note_on_c, 1, 64, 127
2, 40960, Note_off_c, 1, 78, 0
2, 40960, Note_off_c, 1, 86, 0
2, 41000, Note_off_c, 1, 44, 0
2, 41000, Note_off_c, 1, 47, 0
2, 41000, Note_on_c, 1, 51, 127
2, 41000, Note_on_c, 1, 55, 127
2, 41000, Note_on_c, 1, 61, 127
2, 41000, Note_on_c, 1, 71, 127
2, 41000, Note_off_c, 1, 74, 0
2, 41000, Note_on_c, 1, 76, 127
2, 41040, Note_on_c, 1, 44, 127
2, 41040, Note_on_c, 1, 47, 127
2, 41040, Note_off_c, 1, 51, 0
2, 41040, Note_off_c, 1, 55, 0
2, 41040, Note_off_c, 1, 61, 0
2, 41040, Note_off_c, 1, 71, 0
2, 41040, Note_on_c, 1, 74, 127
2, 41040, Note_off_c, 1, 76, 0
2, 41120, Note_off_c, 1, 44, 0
2, 41120, Note_off_c, 1, 47, 0
2, 41120, Note_off_c, 1, 64, 0
2, 41120, Note_off_c, 1, 74, 0
2, 41160, Note_on_c, 1, 71, 127
2, 41160, Note_on_c, 1, 73, 127
2, 41160, Note_on_c, 1, 78, 127
2, 41160, Note_on_c, 1, 82, 127
2, 41160, Note_on_c, 1, 85, 127
2, 41240, Note_off_c, 1, 82, 0
2, 41320, Note_on_c, 1, 35, 127
2, 41320, Note_on_c, 1, 47, 127
2, 41320, Note_on_c, 1, 62, 127
2, 41320, Note_off_c, 1, 71, 0
2, 41320, Note_off_c, 1, 73, 0
2, 41320, Note_off_c, 1, 78, 0
2, 41320, Note_off_c, 1, 85, 0
2, 41360, Note_off_c, 1, 35, 0
2, 41360, Note_off_c, 1, 47, 0
2, 41360, Note_off_c, 1, 62, 0
2, 41360, Note_on_c, 1, 63, 127
2, 41360, Note_on_c, 1, 65, 127
2, 41360, Note_on_c, 1, 68, 127
2, 41360, Note_on_c, 1, 77, 127
2, 41360, Note_on_c, 1, 86, 127
2, 41440, Note_off_c, 1, 86, 0
2, 41520, Note_on_c, 1, 35, 127
2, 41520, Note_on_c, 1, 47, 127
2, 41520, Note_off_c, 1, 63, 0
2, 41520, Note_off_c, 1, 65, 0
2, 41520, Note_off_c, 1, 68, 0
2, 41520, Note_off_c, 1, 77, 0
2, 41560, Note_on_c, 1, 33, 127
2, 41560, Note_off_c, 1, 35, 0
2, 41560, Note_on_c, 1, 45, 127
2, 41560, Note_off_c, 1, 47, 0
2, 41560, Note_on_c, 1, 75, 127
2, 41560, Note_on_c, 1, 79, 127
2, 41560, Note_on_c, 1, 85, 127
2, 41560, Note_on_c, 1, 87, 127
2, 41720, Note_off_c, 1, 33, 0
2, 41720, Note_off_c, 1, 45, 0
2, 41720, Note_off_c, 1, 75, 0
2, 41720, Note_off_c, 1, 79, 0
2, 41720, Note_off_c, 1, 85, 0
2, 41720, Note_off_c, 1, 87, 0
2, 41760, Note_on_c, 1, 33, 127
2, 41760, Note_on_c, 1, 45, 127
2, 41760, Note_on_c, 1, 75, 127
2, 41920, Note_off_c, 1, 33, 0
2, 41920, Note_off_c, 1, 45, 0
2, 41920, Note_off_c, 1, 75, 0
2, 41960, Note_on_c, 1, 52, 127
2, 41960, Note_on_c, 1, 56, 127
2, 41960, Note_on_c, 1, 61, 127
2, 41960, Note_on_c, 1, 64, 127
2, 41960, Note_on_c, 1, 68, 127
2, 41960, Note_on_c, 1, 73, 127
2, 42320, Note_off_c, 1, 52, 0
2, 42320, Note_off_c, 1, 56, 0
2, 42320, Note_on_c, 1, 59, 127
2, 42320, Note_off_c, 1, 61, 0
2, 42320, Note_off_c, 1, 73, 0
2, 42320, Note_on_c, 1, 76, 127
2, 42320, Note_on_c, 1, 80, 127
2, 42360, Note_off_c, 1, 59, 0
2, 42360, Note_off_c, 1, 64, 0
2, 42360, Note_off_c, 1, 68, 0
2, 42360, Note_off_c, 1, 76, 0
2, 42360, Note_off_c, 1, 80, 0
2, 42440, Note_on_c, 1, 56, 127
2, 42440, Note_on_c, 1, 59, 127
2, 42440, Note_on_c, 1, 63, 127
2, 42440, Note_on_c, 1, 71, 127
2, 42440, Note_on_c, 1, 75, 127
2, 43240, Note_off_c, 1, 56, 0
2, 43240, Note_off_c, 1, 59, 0
2, 43240, Note_off_c, 1, 63, 0
2, 43240, Note_off_c, 1, 71, 0
2, 43240, Note_off_c, 1, 75, 0
2, 43280, Note_on_c, 1, 32, 127
2, 43280, Note_on_c, 1, 36, 127
2, 43280, Note_on_c, 1, 42, 127
2, 43280, Note_on_c, 1, 44, 127
2, 43280, Note_on_c, 1, 51, 127
2, 43280, Note_on_c, 1, 54, 127
2, 43280, Note_on_c, 1, 59, 127
2, 43280, Note_on_c, 1, 72, 127
2, 43280, Note_on_c, 1, 80, 127
2, 43280, Note_on_c, 1, 84, 127
2, 43320, Note_off_c, 1, 32, 0
2, 43320, Note_off_c, 1, 36, 0
2, 43320, Note_on_c, 1, 38, 127
2, 43320, Note_off_c, 1, 42, 0
2, 43320, Note_off_c, 1, 44, 0
2, 43320, Note_off_c, 1, 51, 0
2, 43320, Note_off_c, 1, 54, 0
2, 43320, Note_off_c, 1, 59, 0
2, 43320, Note_on_c, 1, 69, 127
2, 43320, Note_off_c, 1, 72, 0
2, 43320, Note_off_c, 1, 80, 0
2, 43320, Note_off_c, 1, 84, 0
2, 43320, Note_on_c, 1, 90, 127
2, 43320, Note_on_c, 1, 93, 127
2, 43360, Note_off_c, 1, 38, 0
2, 43360, Note_on_c, 1, 66, 127
2, 43360, Note_on_c, 1, 74, 127
2, 43360, Note_on_c, 1, 86, 127
2, 43360, Note_off_c, 1, 90, 0
2, 43360, Note_on_c, 1, 98, 127
2, 43400, Note_on_c, 1, 31, 127
2, 43400, Note_on_c, 1, 38, 127
2, 43400, Note_on_c, 1, 47, 127
2, 43400, Note_off_c, 1, 66, 0
2, 43400, Note_off_c, 1, 69, 0
2, 43400, Note_off_c, 1, 74, 0
2, 43400, Note_off_c, 1, 86, 0
2, 43400, Note_off_c, 1, 93, 0
2, 43400, Note_off_c, 1, 98, 0
2, 43440, Note_off_c, 1, 31, 0
2, 43440, Note_off_c, 1, 38, 0
2, 43440, Note_on_c, 1, 62, 127
2, 43440, Note_on_c, 1, 68, 127
2, 43440, Note_on_c, 1, 72, 127
2, 43440, Note_on_c, 1, 76, 127
2, 43480, Note_on_c, 1, 43, 127
2, 43480, Note_off_c, 1, 47, 0
2, 43480, Note_on_c, 1, 55, 127
2, 43480, Note_off_c, 1, 62, 0
2, 43480, Note_on_c, 1, 64, 127
2, 43480, Note_off_c, 1, 68, 0
2, 43480, Note_off_c, 1, 72, 0
2, 43480, Note_on_c, 1, 75, 127
2, 43480, Note_off_c, 1, 76, 0
2, 43600, Note_on_c, 1, 42, 127
2, 43600, Note_off_c, 1, 43, 0
2, 43600, Note_off_c, 1, 55, 0
2, 43600, Note_on_c, 1, 59, 127
2, 43600, Note_off_c, 1, 64, 0
2, 43600, Note_on_c, 1, 67, 127
2, 43600, Note_off_c, 1, 75, 0
2, 43600, Note_on_c, 1, 79, 127
2, 43640, Note_off_c, 1, 42, 0
2, 43640, Note_off_c, 1, 59, 0
2, 43640, Note_off_c, 1, 67, 0
2, 43640, Note_off_c, 1, 79, 0
2, 43680, Note_on_c, 1, 26, 127
2, 43680, Note_on_c, 1, 38, 127
2, 43680, Note_on_c, 1, 45, 127
2, 43680, Note_on_c, 1, 50, 127
2, 43680, Note_on_c, 1, 54, 127
2, 43680, Note_on_c, 1, 62, 127
2, 43680, Note_on_c, 1, 105, 127
2, 43720, Note_off_c, 1, 26, 0
2, 43720, Note_off_c, 1, 38, 0
2, 43720, Note_off_c, 1, 45, 0
2, 43720, Note_off_c, 1, 50, 0
2, 43720, Note_on_c, 1, 51, 127
2, 43720, Note_off_c, 1, 54, 0
2, 43720, Note_on_c, 1, 55, 127
2, 43720, Note_on_c, 1, 57, 127
2, 43720, Note_off_c, 1, 62, 0
2, 43720, Note_on_c, 1, 70, 127
2, 43720, Note_on_c, 1, 82, 127
2, 43720, Note_off_c, 1, 105, 0
2, 43760, Note_on_c, 1, 43, 127
2, 43760, Note_on_c, 1, 50, 127
2, 43760, Note_off_c, 1, 51, 0
2, 43760, Note_off_c, 1, 55, 0
2, 43760, Note_on_c, 1, 60, 127
2, 43760, Note_off_c, 1, 70, 0
2, 43760, Note_on_c, 1, 72, 127
2, 43760, Note_off_c, 1, 82, 0
2, 43800, Note_off_c, 1, 43, 0
2, 43800, Note_on_c, 1, 47, 127
2, 43800, Note_off_c, 1, 50, 0
2, 43800, Note_off_c, 1, 57, 0
2, 43800, Note_on_c, 1, 58, 127
2, 43800, Note_off_c, 1, 60, 0
2, 43800, Note_on_c, 1, 71, 127
2, 43800, Note_off_c, 1, 72, 0
2, 43840, Note_off_c, 1, 47, 0
2, 43840, Note_on_c, 1, 57, 127
2, 43840, Note_off_c, 1, 58, 0
2, 43840, Note_on_c, 1, 64, 127
2, 43840, Note_on_c, 1, 67, 127
2, 43840, Note_on_c, 1, 69, 127
2, 43840, Note_off_c, 1, 71, 0
2, 43840, Note_on_c, 1, 73, 127
2, 43840, Note_on_c, 1, 85, 127
2, 43880, Note_off_c, 1, 57, 0
2, 43880, Note_off_c, 1, 64, 0
2, 43880, Note_off_c, 1, 67, 0
2, 43880, Note_off_c, 1, 69, 0
2, 43880, Note_off_c, 1, 73, 0
2, 43880, Note_on_c, 1, 76, 127
2, 43880, Note_off_c, 1, 85, 0
2, 43880, Note_on_c, 1, 86, 127
2, 43880, Note_on_c, 1, 88, 127
2, 44040, Note_off_c, 1, 76, 0
2, 44040, Note_off_c, 1, 86, 0
2, 44040, Note_off_c, 1, 88, 0
2, 44080, Note_on_c, 1, 56, 127
2, 44080, Note_on_c, 1, 68, 127
2, 44080, Note_on_c, 1, 71, 127
2, 44080, Note_on_c, 1, 75, 127
2, 44080, Note_on_c, 1, 83, 127
2, 44400, Note_off_c, 1, 56, 0
2, 44400, Note_off_c, 1, 68, 0
2, 44400, Note_off_c, 1, 71, 0
2, 44400, Note_off_c, 1, 75, 0
2, 44400, Note_off_c, 1, 83, 0
2, 44440, Note_on_c, 1, 56, 127
2, 44440, Note_on_c, 1, 68, 127
2, 44440, Note_on_c, 1, 71, 127
2, 44440, Note_on_c, 1, 75, 127
2, 44440, Note_on_c, 1, 83, 127
2, 44520, Note_off_c, 1, 56, 0
2, 44520, Note_on_c, 1, 59, 127
2, 44520, Note_off_c, 1, 68, 0
2, 44520, Note_off_c, 1, 71, 0
2, 44520, Note_off_c, 1, 75, 0
2, 44520, Note_on_c, 1, 92, 127
2, 44560, Note_on_c, 1, 35, 127
2, 44560, Note_on_c, 1, 47, 127
2, 44560, Note_on_c, 1, 54, 127
2, 44560, Note_off_c, 1, 83, 0
2, 44560, Note_off_c, 1, 92, 0
2, 44600, Note_off_c, 1, 35, 0
2, 44600, Note_off_c, 1, 47, 0
2, 44600, Note_on_c, 1, 49, 127
2, 44600, Note_off_c, 1, 54, 0
2, 44600, Note_off_c, 1, 59, 0
2, 44600, Note_on_c, 1, 73, 127
2, 44600, Note_on_c, 1, 76, 127
2, 44600, Note_on_c, 1, 81, 127
2, 44640, Note_off_c, 1, 49, 0
2, 44640, Note_on_c, 1, 64, 127
2, 44640, Note_on_c, 1, 68, 127
2, 44640, Note_off_c, 1, 73, 0
2, 44640, Note_off_c, 1, 76, 0
2, 44640, Note_on_c, 1, 80, 127
2, 44640, Note_off_c, 1, 81, 0
2, 44640, Note_on_c, 1, 88, 127
2, 44640, Note_on_c, 1, 92, 127
2, 44680, Note_on_c, 1, 35, 127
2, 44680, Note_on_c, 1, 47, 127
2, 44680, Note_off_c, 1, 64, 0
2, 44680, Note_on_c, 1, 67, 127
2, 44680, Note_off_c, 1, 68, 0
2, 44680, Note_on_c, 1, 71, 127
2, 44680, Note_on_c, 1, 76, 127
2, 44680, Note_on_c, 1, 79, 127
2, 44680, Note_off_c, 1, 80, 0
2, 44680, Note_off_c, 1, 88, 0
2, 44680, Note_off_c, 1, 92, 0
2, 44720, Note_off_c, 1, 35, 0
2, 44720, Note_off_c, 1, 47, 0
2, 44720, Note_off_c, 1, 67, 0
2, 44720, Note_off_c, 1, 71, 0
2, 44720, Note_on_c, 1, 74, 127
2, 44720, Note_off_c, 1, 79, 0
2, 44720, Note_on_c, 1, 80, 127
2, 44760, Note_on_c, 1, 43, 127
2, 44760, Note_on_c, 1, 51, 127
2, 44760, Note_on_c, 1, 72, 127
2, 44760, Note_off_c, 1, 74, 0
2, 44760, Note_off_c, 1, 76, 0
2, 44760, Note_off_c, 1, 80, 0
2, 44760, Note_on_c, 1, 82, 127
2, 44920, Note_off_c, 1, 43, 0
2, 44920, Note_off_c, 1, 51, 0
2, 44920, Note_on_c, 1, 64, 127
2, 44920, Note_on_c, 1, 68, 127
2, 44920, Note_off_c, 1, 72, 0
2, 44920, Note_on_c, 1, 73, 127
2, 44920, Note_off_c, 1, 82, 0
2, 44960, Note_on_c, 1, 71, 127
2, 44960, Note_off_c, 1, 73, 0
2, 44960, Note_on_c, 1, 76, 127
2, 44960, Note_on_c, 1, 80, 127
2, 44960, Note_on_c, 1, 83, 127
2, 44960, Note_on_c, 1, 88, 127
2, 44960, Note_on_c, 1, 92, 127
2, 44960, Note_on_c, 1, 95, 127
2, 45000, Note_off_c, 1, 64, 0
2, 45000, Note_off_c, 1, 68, 0
2, 45000, Note_on_c, 1, 70, 127
2, 45000, Note_off_c, 1, 71, 0
2, 45000, Note_off_c, 1, 80, 0
2, 45000, Note_off_c, 1, 83, 0
2, 45000, Note_on_c, 1, 85, 127
2, 45000, Note_off_c, 1, 88, 0
2, 45000, Note_on_c, 1, 91, 127
2, 45000, Note_off_c, 1, 92, 0
2, 45000, Note_off_c, 1, 95, 0
2, 45040, Note_on_c, 1, 47, 127
2, 45040, Note_on_c, 1, 50, 127
2, 45040, Note_on_c, 1, 59, 127
2, 45040, Note_off_c, 1, 70, 0
2, 45040, Note_off_c, 1, 76, 0
2, 45040, Note_on_c, 1, 78, 127
2, 45040, Note_off_c, 1, 85, 0
2, 45040, Note_off_c, 1, 91, 0
2, 45080, Note_on_c, 1, 39, 127
2, 45080, Note_off_c, 1, 47, 0
2, 45080, Note_off_c, 1, 50, 0
2, 45080, Note_on_c, 1, 54, 127
2, 45080, Note_on_c, 1, 63, 127
2, 45080, Note_off_c, 1, 78, 0
2, 45120, Note_off_c, 1, 39, 0
2, 45120, Note_off_c, 1, 54, 0
2, 45120, Note_on_c, 1, 61, 127
2, 45120, Note_off_c, 1, 63, 0
2, 45120, Note_on_c, 1, 65, 127
2, 45120, Note_on_c, 1, 68, 127
2, 45120, Note_on_c, 1, 99, 127
2, 45160, Note_on_c, 1, 53, 127
2, 45160, Note_off_c, 1, 59, 0
2, 45160, Note_off_c, 1, 61, 0
2, 45160, Note_off_c, 1, 65, 0
2, 45160, Note_off_c, 1, 68, 0
2, 45160, Note_on_c, 1, 84, 127
2, 45160, Note_on_c, 1, 89, 127
2, 45160, Note_on_c, 1, 93, 127
2, 45160, Note_on_c, 1, 96, 127
2, 45160, Note_off_c, 1, 99, 0
2, 45200, Note_on_c, 1, 35, 127
2, 45200, Note_off_c, 1, 53, 0
2, 45200, Note_on_c, 1, 60, 127
2, 45200, Note_on_c, 1, 66, 127
2, 45200, Note_on_c, 1, 69, 127
2, 45200, Note_off_c, 1, 84, 0
2, 45200, Note_off_c, 1, 89, 0
2, 45200, Note_off_c, 1, 93, 0
2, 45200, Note_off_c, 1, 96, 0
2, 45240, Note_off_c, 1, 35, 0
2, 45240, Note_on_c, 1, 53, 127
2, 45240, Note_off_c, 1, 60, 0
2, 45240, Note_off_c, 1, 66, 0
2, 45240, Note_off_c, 1, 69, 0
2, 45240, Note_on_c, 1, 84, 127
2, 45240, Note_on_c, 1, 89, 127
2, 45240, Note_on_c, 1, 93, 127
2, 45240, Note_on_c, 1, 96, 127
2, 45280, Note_on_c, 1, 35, 127
2, 45280, Note_on_c, 1, 41, 127
2, 45280, Note_on_c, 1, 47, 127
2, 45280, Note_off_c, 1, 53, 0
2, 45280, Note_on_c, 1, 62, 127
2, 45280, Note_off_c, 1, 84, 0
2, 45280, Note_off_c, 1, 89, 0
2, 45280, Note_off_c, 1, 93, 0
2, 45280, Note_off_c, 1, 96, 0
2, 45320, Note_off_c, 1, 35, 0
2, 45320, Note_off_c, 1, 41, 0
2, 45320, Note_off_c, 1, 47, 0
2, 45320, Note_off_c, 1, 62, 0
2, 45360, Note_on_c, 1, 33, 127
2, 45360, Note_on_c, 1, 45, 127
2, 45360, Note_on_c, 1, 57, 127
2, 45360, Note_on_c, 1, 60, 127
2, 45360, Note_on_c, 1, 66, 127
2, 45720, Note_off_c, 1, 33, 0
2, 45720, Note_off_c, 1, 45, 0
2, 45720, Note_off_c, 1, 57, 0
2, 45720, Note_off_c, 1, 60, 0
2, 45720, Note_off_c, 1, 66, 0
2, 45760, Note_on_c, 1, 40, 127
2, 45760, Note_on_c, 1, 52, 127
2, 45760, Note_on_c, 1, 67, 127
2, 45760, Note_on_c, 1, 71, 127
2, 45760, Note_on_c, 1, 76, 127
2, 45760, Note_on_c, 1, 79, 127
2, 46320, Note_off_c, 1, 40, 0
2, 46320, Note_off_c, 1, 52, 0
2, 46320, Note_on_c, 1, 57, 127
2, 46320, Note_on_c, 1, 66, 127
2, 46320, Note_off_c, 1, 67, 0
2, 46320, Note_off_c, 1, 71, 0
2, 46320, Note_off_c, 1, 76, 0
2, 46320, Note_off_c, 1, 79, 0
2, 46320, Note_on_c, 1, 90, 127
2, 46320, Note_on_c, 1, 93, 127
2, 46360, Note_on_c, 1, 40, 127
2, 46360, Note_on_c, 1, 52, 127
2, 46360, Note_off_c, 1, 57, 0
2, 46360, Note_off_c, 1, 66, 0
2, 46360, Note_on_c, 1, 67, 127
2, 46360, Note_on_c, 1, 71, 127
2, 46360, Note_on_c, 1, 76, 127
2, 46360, Note_on_c, 1, 79, 127
2, 46360, Note_off_c, 1, 90, 0
2, 46360, Note_off_c, 1, 93, 0
2, 46400, Note_off_c, 1, 40, 0
2, 46400, Note_off_c, 1, 52, 0
2, 46400, Note_off_c, 1, 67, 0
2, 46400, Note_off_c, 1, 71, 0
2, 46400, Note_off_c, 1, 76, 0
2, 46400, Note_off_c, 1, 79, 0
2, 46440, Note_on_c, 1, 40, 127
2, 46440, Note_on_c, 1, 52, 127
2, 46440, Note_on_c, 1, 67, 127
2, 46440, Note_on_c, 1, 71, 127
2, 46440, Note_on_c, 1, 76, 127
2, 46440, Note_on_c, 1, 79, 127
2, 46600, Note_off_c, 1, 40, 0
2, 46600, Note_off_c, 1, 52, 0
2, 46600, Note_off_c, 1, 67, 0
2, 46600, Note_off_c, 1, 71, 0
2, 46600, Note_off_c, 1, 76, 0
2, 46600, Note_off_c, 1, 79, 0
2, 46640, Note_on_c, 1, 45, 127
2, 46640, Note_on_c, 1, 48, 127
2, 46640, Note_on_c, 1, 52, 127
2, 46640, Note_on_c, 1, 57, 127
2, 46640, Note_on_c, 1, 64, 127
2, 46640, Note_on_c, 1, 69, 127
2, 46640, Note_on_c, 1, 72, 127
2, 46640, Note_on_c, 1, 76, 127
2, 46800, Note_on_c, 1, 42, 127
2, 46800, Note_off_c, 1, 45, 0
2, 46800, Note_off_c, 1, 48, 0
2, 46800, Note_off_c, 1, 52, 0
2, 46800, Note_on_c, 1, 54, 127
2, 46800, Note_off_c, 1, 57, 0
2, 46800, Note_off_c, 1, 64, 0
2, 46800, Note_off_c, 1, 69, 0
2, 46800, Note_off_c, 1, 72, 0
2, 46800, Note_on_c, 1, 78, 127
2, 46840, Note_off_c, 1, 42, 0
2, 46840, Note_on_c, 1, 45, 127
2, 46840, Note_on_c, 1, 48, 127
2, 46840, Note_on_c, 1, 52, 127
2, 46840, Note_off_c, 1, 54, 0
2, 46840, Note_on_c, 1, 57, 127
2, 46840, Note_on_c, 1, 64, 127
2, 46840, Note_on_c, 1, 69, 127
2, 46840, Note_on_c, 1, 72, 127
2, 46840, Note_off_c, 1, 78, 0
2, 47000, Note_off_c, 1, 45, 0
2, 47000, Note_off_c, 1, 48, 0
2, 47000, Note_off_c, 1, 52, 0
2, 47000, Note_off_c, 1, 57, 0
2, 47000, Note_off_c, 1, 64, 0
2, 47000, Note_off_c, 1, 69, 0
2, 47000, Note_off_c, 1, 72, 0
2, 47000, Note_off_c, 1, 76, 0
2, 47000, Note_on_c, 1, 81, 127
2, 47000, Note_on_c, 1, 85, 127
2, 47000, Note_on_c, 1, 93, 127
2, 47040, Note_on_c, 1, 36, 127
2, 47040, Note_on_c, 1, 70, 127
2, 47040, Note_on_c, 1, 75, 127
2, 47040, Note_off_c, 1, 81, 0
2, 47040, Note_off_c, 1, 85, 0
2, 47040, Note_off_c, 1, 93, 0
2, 47080, Note_off_c, 1, 36, 0
2, 47080, Note_on_c, 1, 63, 127
2, 47080, Note_on_c, 1, 65, 127
2, 47080, Note_off_c, 1, 70, 0
2, 47080, Note_on_c, 1, 71, 127
2, 47080, Note_off_c, 1, 75, 0
2, 47080, Note_on_c, 1, 79, 127
2, 47120, Note_on_c, 1, 55, 127
2, 47120, Note_on_c, 1, 59, 127
2, 47120, Note_on_c, 1, 62, 127
2, 47120, Note_off_c, 1, 63, 0
2, 47120, Note_on_c, 1, 67, 127
2, 47120, Note_off_c, 1, 71, 0
2, 47120, Note_off_c, 1, 79, 0
2, 47120, Note_on_c, 1, 83, 127
2, 47160, Note_off_c, 1, 55, 0
2, 47160, Note_off_c, 1, 59, 0
2, 47160, Note_off_c, 1, 62, 0
2, 47160, Note_off_c, 1, 65, 0
2, 47160, Note_off_c, 1, 67, 0
2, 47160, Note_on_c, 1, 78, 127
2, 47160, Note_on_c, 1, 81, 127
2, 47160, Note_off_c, 1, 83, 0
2, 47160, Note_on_c, 1, 87, 127
2, 47160, Note_on_c, 1, 93, 127
2, 47200, Note_on_c, 1, 48, 127
2, 47200, Note_on_c, 1, 60, 127
2, 47200, Note_off_c, 1, 78, 0
2, 47200, Note_off_c, 1, 81, 0
2, 47200, Note_on_c, 1, 82, 127
2, 47200, Note_off_c, 1, 87, 0
2, 47200, Note_on_c, 1, 88, 127
2, 47200, Note_on_c, 1, 91, 127
2, 47200, Note_off_c, 1, 93, 0
2, 47200, Note_on_c, 1, 96, 127
2, 47240, Note_off_c, 1, 48, 0
2, 47240, Note_off_c, 1, 60, 0
2, 47240, Note_on_c, 1, 70, 127
2, 47240, Note_on_c, 1, 73, 127
2, 47240, Note_off_c, 1, 88, 0
2, 47240, Note_off_c, 1, 91, 0
2, 47240, Note_on_c, 1, 94, 127
2, 47240, Note_off_c, 1, 96, 0
2, 47240, Note_on_c, 1, 97, 127
2, 47280, Note_on_c, 1, 35, 127
2, 47280, Note_on_c, 1, 40, 127
2, 47280, Note_on_c, 1, 47, 127
2, 47280, Note_on_c, 1, 62, 127
2, 47280, Note_on_c, 1, 64, 127
2, 47280, Note_on_c, 1, 68, 127
2, 47280, Note_off_c, 1, 70, 0
2, 47280, Note_off_c, 1, 73, 0
2, 47280, Note_off_c, 1, 82, 0
2, 47280, Note_off_c, 1, 94, 0
2, 47280, Note_off_c, 1, 97, 0
2, 47320, Note_off_c, 1, 35, 0
2, 47320, Note_on_c, 1, 39, 127
2, 47320, Note_off_c, 1, 40, 0
2, 47320, Note_on_c, 1, 42, 127
2, 47320, Note_off_c, 1, 47, 0
2, 47320, Note_on_c, 1, 61, 127
2, 47320, Note_off_c, 1, 62, 0
2, 47320, Note_off_c, 1, 64, 0
2, 47320, Note_off_c, 1, 68, 0
2, 47320, Note_on_c, 1, 73, 127
2, 47360, Note_off_c, 1, 39, 0
2, 47360, Note_off_c, 1, 42, 0
2, 47360, Note_off_c, 1, 61, 0
2, 47360, Note_on_c, 1, 67, 127
2, 47360, Note_on_c, 1, 71, 127
2, 47360, Note_off_c, 1, 73, 0
2, 47360, Note_on_c, 1, 75, 127
2, 47360, Note_on_c, 1, 79, 127
2, 47400, Note_off_c, 1, 67, 0
2, 47400, Note_off_c, 1, 71, 0
2, 47400, Note_off_c, 1, 75, 0
2, 47400, Note_off_c, 1, 79, 0
2, 47440, Note_on_c, 1, 64, 127
2, 47440, Note_on_c, 1, 68, 127
2, 47440, Note_on_c, 1, 73, 127
2, 47440, Note_on_c, 1, 76, 127
2, 47440, Note_on_c, 1, 80, 127
2, 47440, Note_on_c, 1, 83, 127
2, 47480, Note_on_c, 1, 53, 127
2, 47480, Note_off_c, 1, 64, 0
2, 47480, Note_off_c, 1, 68, 0
2, 47480, Note_off_c, 1, 73, 0
2, 47480, Note_off_c, 1, 76, 0
2, 47480, Note_off_c, 1, 80, 0
2, 47480, Note_off_c, 1, 83, 0
2, 47480, Note_on_c, 1, 84, 127
2, 47480, Note_on_c, 1, 89, 127
2, 47480, Note_on_c, 1, 93, 127
2, 47520, Note_on_c, 1, 48, 127
2, 47520, Note_off_c, 1, 53, 0
2, 47520, Note_on_c, 1, 60, 127
2, 47520, Note_on_c, 1, 78, 127
2, 47520, Note_on_c, 1, 81, 127
2, 47520, Note_off_c, 1, 84, 0
2, 47520, Note_on_c, 1, 87, 127
2, 47520, Note_off_c, 1, 89, 0
2, 47520, Note_on_c, 1, 90, 127
2, 47520, Note_off_c, 1, 93, 0
2, 47560, Note_on_c, 1, 39, 127
2, 47560, Note_on_c, 1, 43, 127
2, 47560, Note_off_c, 1, 48, 0
2, 47560, Note_on_c, 1, 51, 127
2, 47560, Note_on_c, 1, 55, 127
2, 47560, Note_off_c, 1, 60, 0
2, 47560, Note_on_c, 1, 61, 127
2, 47560, Note_off_c, 1, 78, 0
2, 47560, Note_off_c, 1, 81, 0
2, 47560, Note_off_c, 1, 87, 0
2, 47560, Note_off_c, 1, 90, 0
2, 47600, Note_off_c, 1, 39, 0
2, 47600, Note_off_c, 1, 43, 0
2, 47600, Note_off_c, 1, 51, 0
2, 47600, Note_off_c, 1, 55, 0
2, 47600, Note_off_c, 1, 61, 0
2, 47600, Note_on_c, 1, 64, 127
2, 47600, Note_on_c, 1, 73, 127
2, 47600, Note_on_c, 1, 81, 127
2, 47600, Note_on_c, 1, 85, 127
2, 47640, Note_on_c, 1, 61, 127
2, 47640, Note_on_c, 1, 68, 127
2, 47640, Note_on_c, 1, 71, 127
2, 47640, Note_on_c, 1, 76, 127
2, 47640, Note_on_c, 1, 80, 127
2, 47640, Note_off_c, 1, 81, 0
2, 47640, Note_on_c, 1, 83, 127
2, 47640, Note_off_c, 1, 85, 0
2, 47680, Note_on_c, 1, 47, 127
2, 47680, Note_on_c, 1, 57, 127
2, 47680, Note_off_c, 1, 61, 0
2, 47680, Note_on_c, 1, 62, 127
2, 47680, Note_off_c, 1, 64, 0
2, 47680, Note_off_c, 1, 73, 0
2, 47680, Note_off_c, 1, 76, 0
2, 47680, Note_off_c, 1, 80, 0
2, 47680, Note_off_c, 1, 83, 0
2, 47720, Note_off_c, 1, 47, 0
2, 47720, Note_off_c, 1, 57, 0
2, 47720, Note_on_c, 1, 61, 127
2, 47720, Note_off_c, 1, 62, 0
2, 47720, Note_on_c, 1, 64, 127
2, 47720, Note_on_c, 1, 73, 127
2, 47720, Note_on_c, 1, 76, 127
2, 47720, Note_on_c, 1, 80, 127
2, 47720, Note_on_c, 1, 83, 127
2, 47800, Note_on_c, 1, 55, 127
2, 47800, Note_off_c, 1, 64, 0
2, 47800, Note_off_c, 1, 68, 0
2, 47800, Note_on_c, 1, 70, 127
2, 47800, Note_off_c, 1, 71, 0
2, 47800, Note_off_c, 1, 73, 0
2, 47800, Note_off_c, 1, 76, 0
2, 47800, Note_on_c, 1, 79, 127
2, 47800, Note_off_c, 1, 80, 0
2, 47800, Note_on_c, 1, 82, 127
2, 47800, Note_off_c, 1, 83, 0
2, 47840, Note_off_c, 1, 55, 0
2, 47840, Note_on_c, 1, 64, 127
2, 47840, Note_on_c, 1, 68, 127
2, 47840, Note_off_c, 1, 70, 0
2, 47840, Note_on_c, 1, 71, 127
2, 47840, Note_on_c, 1, 73, 127
2, 47840, Note_on_c, 1, 76, 127
2, 47840, Note_off_c, 1, 79, 0
2, 47840, Note_on_c, 1, 80, 127
2, 47840, Note_off_c, 1, 82, 0
2, 47840, Note_on_c, 1, 83, 127
2, 48200, Note_on_c, 1, 46, 127
2, 48200, Note_off_c, 1, 61, 0
2, 48200, Note_off_c, 1, 64, 0
2, 48200, Note_off_c, 1, 68, 0
2, 48200, Note_off_c, 1, 71, 0
2, 48200, Note_off_c, 1, 73, 0
2, 48200, Note_off_c, 1, 76, 0
2, 48200, Note_off_c, 1, 80, 0
2, 48200, Note_off_c, 1, 83, 0
2, 48240, Note_on_c, 1, 42, 127
2, 48240, Note_off_c, 1, 46, 0
2, 48240, Note_on_c, 1, 79, 127
2, 48240, Note_on_c, 1, 80, 127
2, 48280, Note_off_c, 1, 42, 0
2, 48280, Note_on_c, 1, 46, 127
2, 48280, Note_on_c, 1, 53, 127
2, 48280, Note_on_c, 1, 74, 127
2, 48280, Note_off_c, 1, 79, 0
2, 48280, Note_on_c, 1, 82, 127
2, 48320, Note_off_c, 1, 46, 0
2, 48320, Note_off_c, 1, 53, 0
2, 48320, Note_off_c, 1, 74, 0
2, 48320, Note_off_c, 1, 80, 0
2, 48320, Note_off_c, 1, 82, 0
2, 48360, Note_on_c, 1, 44, 127
2, 48360, Note_on_c, 1, 49, 127
2, 48360, Note_on_c, 1, 77, 127
2, 48400, Note_off_c, 1, 44, 0
2, 48400, Note_on_c, 1, 47, 127
2, 48400, Note_off_c, 1, 49, 0
2, 48400, Note_on_c, 1, 52, 127
2, 48400, Note_on_c, 1, 63, 127
2, 48400, Note_on_c, 1, 69, 127
2, 48400, Note_off_c, 1, 77, 0
2, 48440, Note_on_c, 1, 39, 127
2, 48440, Note_off_c, 1, 47, 0
2, 48440, Note_off_c, 1, 52, 0
2, 48440, Note_on_c, 1, 61, 127
2, 48440, Note_off_c, 1, 63, 0
2, 48440, Note_on_c, 1, 65, 127
2, 48440, Note_off_c, 1, 69, 0
2, 48480, Note_on_c, 1, 29, 127
2, 48480, Note_off_c, 1, 39, 0
2, 48480, Note_on_c, 1, 41, 127
2, 48480, Note_off_c, 1, 61, 0
2, 48480, Note_off_c, 1, 65, 0
2, 48480, Note_on_c, 1, 73, 127
2, 48480, Note_on_c, 1, 78, 127
2, 48480, Note_on_c, 1, 90, 127
2, 48520, Note_off_c, 1, 29, 0
2, 48520, Note_off_c, 1, 41, 0
2, 48520, Note_on_c, 1, 51, 127
2, 48520, Note_on_c, 1, 55, 127
2, 48520, Note_on_c, 1, 71, 127
2, 48520, Note_off_c, 1, 73, 0
2, 48520, Note_off_c, 1, 78, 0
2, 48520, Note_off_c, 1, 90, 0
2, 48560, Note_on_c, 1, 47, 127
2, 48560, Note_off_c, 1, 51, 0
2, 48560, Note_off_c, 1, 55, 0
2, 48560, Note_on_c, 1, 59, 127
2, 48560, Note_off_c, 1, 71, 0
2, 48560, Note_on_c, 1, 73, 127
2, 48560, Note_on_c, 1, 80, 127
2, 48600, Note_on_c, 1, 29, 127
2, 48600, Note_on_c, 1, 41, 127
2, 48600, Note_off_c, 1, 47, 0
2, 48600, Note_off_c, 1, 59, 0
2, 48600, Note_on_c, 1, 78, 127
2, 48600, Note_off_c, 1, 80, 0
2, 48600, Note_on_c, 1, 90, 127
2, 48640, Note_off_c, 1, 29, 0
2, 48640, Note_off_c, 1, 41, 0
2, 48640, Note_on_c, 1, 47, 127
2, 48640, Note_on_c, 1, 50, 127
2, 48640, Note_on_c, 1, 54, 127
2, 48640, Note_on_c, 1, 59, 127
2, 48640, Note_off_c, 1, 73, 0
2, 48640, Note_off_c, 1, 90, 0
2, 48680, Note_on_c, 1, 45, 127
2, 48680, Note_off_c, 1, 47, 0
2, 48680, Note_off_c, 1, 50, 0
2, 48680, Note_on_c, 1, 52, 127
2, 48680, Note_off_c, 1, 54, 0
2, 48680, Note_on_c, 1, 57, 127
2, 48680, Note_off_c, 1, 59, 0
2, 48680, Note_on_c, 1, 62, 127
2, 48680, Note_on_c, 1, 64, 127
2, 48680, Note_off_c, 1, 78, 0
2, 50480, Note_off_c, 1, 45, 0
2, 50480, Note_off_c, 1, 52, 0
2, 50480, Note_off_c, 1, 57, 0
2, 50480, Note_off_c, 1, 62, 0
2, 50480, Note_off_c, 1, 64, 0
2, 50520, Note_on_c, 1, 45, 127
2, 50520, Note_on_c, 1, 52, 127
2, 50520, Note_on_c, 1, 57, 127
2, 50520, Note_on_c, 1, 62, 127
2, 50520, Note_on_c, 1, 64, 127
2, 52360, Note_off_c, 1, 45, 0
2, 52360, Note_off_c, 1, 52, 0
2, 52360, Note_off_c, 1, 57, 0
2, 52360, Note_off_c, 1, 62, 0
2, 52360, Note_off_c, 1, 64, 0
2, 52400, Note_on_c, 1, 45, 127
2, 52400, Note_on_c, 1, 52, 127
2, 52400, Note_on_c, 1, 57, 127
2, 52400, Note_on_c, 1, 62, 127
2, 52400, Note_on_c, 1, 64, 127
2, 53360, Note_on_c, 1, 31, 127
2, 53360, Note_on_c, 1, 43, 127
2, 53360, Note_off_c, 1, 45, 0
2, 53360, Note_on_c, 1, 50, 127
2, 53360, Note_off_c, 1, 52, 0
2, 53360, Note_off_c, 1, 57, 0
2, 53360, Note_off_c, 1, 64, 0
2, 53360, Note_on_c, 1, 71, 127
2, 53360, Note_on_c, 1, 83, 127
2, 53400, Note_off_c, 1, 31, 0
2, 53400, Note_off_c, 1, 43, 0
2, 53400, Note_on_c, 1, 45, 127
2, 53400, Note_off_c, 1, 50, 0
2, 53400, Note_on_c, 1, 52, 127
2, 53400, Note_on_c, 1, 57, 127
2, 53400, Note_on_c, 1, 64, 127
2, 53400, Note_off_c, 1, 71, 0
2, 53400, Note_off_c, 1, 83, 0
2, 54120, Note_off_c, 1, 45, 0
2, 54120, Note_off_c, 1, 52, 0
2, 54120, Note_off_c, 1, 57, 0
2, 54120, Note_off_c, 1, 62, 0
2, 54120, Note_off_c, 1, 64, 0
2, 54200, Note_on_c, 1, 40, 127
2, 54200, Note_on_c, 1, 52, 127
2, 54200, Note_on_c, 1, 55, 127
2, 54200, Note_on_c, 1, 61, 127
2, 54200, Note_on_c, 1, 67, 127
2, 54200, Note_on_c, 1, 73, 127
2, 54760, Note_off_c, 1, 40, 0
2, 54760, Note_off_c, 1, 52, 0
2, 54760, Note_off_c, 1, 55, 0
2, 54760, Note_off_c, 1, 61, 0
2, 54760, Note_off_c, 1, 67, 0
2, 54760, Note_off_c, 1, 73, 0
2, 54800, Note_on_c, 1, 46, 127
2, 54800, Note_on_c, 1, 50, 127
2, 54800, Note_on_c, 1, 53, 127
2, 54800, Note_on_c, 1, 58, 127
2, 54800, Note_on_c, 1, 65, 127
2, 54800, Note_on_c, 1, 70, 127
2, 54800, Note_on_c, 1, 74, 127
2, 54800, Note_on_c, 1, 77, 127
2, 55800, Note_off_c, 1, 46, 0
2, 55800, Note_off_c, 1, 50, 0
2, 55800, Note_off_c, 1, 53, 0
2, 55800, Note_off_c, 1, 58, 0
2, 55800, Note_off_c, 1, 65, 0
2, 55800, Note_off_c, 1, 70, 0
2, 55800, Note_off_c, 1, 74, 0
2, 55800, Note_off_c, 1, 77, 0
2, 55840, Note_on_c, 1, 51, 127
2, 55840, Note_on_c, 1, 55, 127
2, 55840, Note_on_c, 1, 58, 127
2, 55840, Note_on_c, 1, 63, 127
2, 55840, Note_on_c, 1, 67, 127
2, 55840, Note_on_c, 1, 70, 127
2, 55840, Note_on_c, 1, 75, 127
2, 55840, Note_on_c, 1, 79, 127
2, 56160, Note_off_c, 1, 51, 0
2, 56160, Note_off_c, 1, 55, 0
2, 56160, Note_off_c, 1, 58, 0
2, 56160, Note_off_c, 1, 63, 0
2, 56160, Note_off_c, 1, 67, 0
2, 56160, Note_off_c, 1, 70, 0
2, 56160, Note_off_c, 1, 75, 0
2, 56160, Note_off_c, 1, 79, 0
2, 56200, Note_on_c, 1, 51, 127
2, 56200, Note_on_c, 1, 55, 127
2, 56200, Note_on_c, 1, 58, 127
2, 56200, Note_on_c, 1, 63, 127
2, 56200, Note_on_c, 1, 67, 127
2, 56200, Note_on_c, 1, 70, 127
2, 56200, Note_on_c, 1, 75, 127
2, 56200, Note_on_c, 1, 79, 127
2, 56440, Note_on_c, 1, 40, 127
2, 56440, Note_on_c, 1, 45, 127
2, 56440, Note_off_c, 1, 51, 0
2, 56440, Note_on_c, 1, 52, 127
2, 56440, Note_off_c, 1, 55, 0
2, 56440, Note_on_c, 1, 57, 127
2, 56440, Note_off_c, 1, 58, 0
2, 56440, Note_off_c, 1, 63, 0
2, 56440, Note_off_c, 1, 67, 0
2, 56440, Note_off_c, 1, 70, 0
2, 56440, Note_off_c, 1, 75, 0
2, 56440, Note_off_c, 1, 79, 0
2, 56480, Note_off_c, 1, 40, 0
2, 56480, Note_off_c, 1, 45, 0
2, 56480, Note_off_c, 1, 52, 0
2, 56480, Note_on_c, 1, 55, 127
2, 56480, Note_off_c, 1, 57, 0
2, 56480, Note_on_c, 1, 62, 127
2, 56480, Note_on_c, 1, 74, 127
2, 56480, Note_on_c, 1, 79, 127
2, 56480, Note_on_c, 1, 83, 127
2, 56840, Note_on_c, 1, 48, 127
2, 56840, Note_on_c, 1, 53, 127
2, 56840, Note_off_c, 1, 55, 0
2, 56840, Note_off_c, 1, 62, 0
2, 56840, Note_on_c, 1, 69, 127
2, 56840, Note_off_c, 1, 74, 0
2, 56840, Note_off_c, 1, 79, 0
2, 56840, Note_off_c, 1, 83, 0
2, 56880, Note_off_c, 1, 48, 0
2, 56880, Note_off_c, 1, 53, 0
2, 56880, Note_on_c, 1, 61, 127
2, 56880, Note_off_c, 1, 69, 0
2, 56880, Note_on_c, 1, 76, 127
2, 56880, Note_on_c, 1, 82, 127
2, 56880, Note_on_c, 1, 88, 127
2, 56920, Note_on_c, 1, 48, 127
2, 56920, Note_on_c, 1, 60, 127
2, 56920, Note_off_c, 1, 61, 0
2, 56920, Note_on_c, 1, 67, 127
2, 56920, Note_on_c, 1, 70, 127
2, 56920, Note_on_c, 1, 79, 127
2, 56920, Note_off_c, 1, 82, 0
2, 56920, Note_off_c, 1, 88, 0
2, 56960, Note_off_c, 1, 48, 0
2, 56960, Note_off_c, 1, 60, 0
2, 56960, Note_off_c, 1, 67, 0
2, 56960, Note_off_c, 1, 70, 0
2, 56960, Note_on_c, 1, 74, 127
2, 56960, Note_on_c, 1, 75, 127
2, 56960, Note_off_c, 1, 76, 0
2, 56960, Note_on_c, 1, 87, 127
2, 57000, Note_on_c, 1, 59, 127
2, 57000, Note_on_c, 1, 66, 127
2, 57000, Note_on_c, 1, 70, 127
2, 57000, Note_off_c, 1, 74, 0
2, 57000, Note_off_c, 1, 75, 0
2, 57000, Note_on_c, 1, 76, 127
2, 57000, Note_off_c, 1, 79, 0
2, 57000, Note_off_c, 1, 87, 0
2, 57040, Note_on_c, 1, 37, 127
2, 57040, Note_on_c, 1, 45, 127
2, 57040, Note_on_c, 1, 49, 127
2, 57040, Note_off_c, 1, 59, 0
2, 57040, Note_off_c, 1, 66, 0
2, 57040, Note_off_c, 1, 70, 0
2, 57040, Note_on_c, 1, 74, 127
2, 57040, Note_off_c, 1, 76, 0
2, 57040, Note_on_c, 1, 86, 127
2, 57080, Note_off_c, 1, 37, 0
2, 57080, Note_on_c, 1, 43, 127
2, 57080, Note_off_c, 1, 45, 0
2, 57080, Note_on_c, 1, 48, 127
2, 57080, Note_off_c, 1, 49, 0
2, 57080, Note_on_c, 1, 52, 127
2, 57080, Note_on_c, 1, 64, 127
2, 57080, Note_on_c, 1, 72, 127
2, 57080, Note_off_c, 1, 74, 0
2, 57080, Note_on_c, 1, 76, 127
2, 57080, Note_off_c, 1, 86, 0
2, 57440, Note_off_c, 1, 43, 0
2, 57440, Note_off_c, 1, 48, 0
2, 57440, Note_on_c, 1, 50, 127
2, 57440, Note_off_c, 1, 52, 0
2, 57440, Note_on_c, 1, 57, 127
2, 57440, Note_off_c, 1, 64, 0
2, 57440, Note_off_c, 1, 72, 0
2, 57440, Note_off_c, 1, 76, 0
2, 57480, Note_on_c, 1, 32, 127
2, 57480, Note_off_c, 1, 50, 0
2, 57480, Note_off_c, 1, 57, 0
2, 57480, Note_on_c, 1, 68, 127
2, 57480, Note_on_c, 1, 75, 127
2, 57520, Note_off_c, 1, 32, 0
2, 57520, Note_on_c, 1, 53, 127
2, 57520, Note_on_c, 1, 58, 127
2, 57520, Note_on_c, 1, 61, 127
2, 57520, Note_on_c, 1, 64, 127
2, 57520, Note_off_c, 1, 68, 0
2, 57520, Note_off_c, 1, 75, 0
2, 57520, Note_on_c, 1, 79, 127
2, 57560, Note_on_c, 1, 48, 127
2, 57560, Note_off_c, 1, 53, 0
2, 57560, Note_off_c, 1, 58, 0
2, 57560, Note_off_c, 1, 61, 0
2, 57560, Note_off_c, 1, 64, 0
2, 57560, Note_on_c, 1, 66, 127
2, 57560, Note_on_c, 1, 72, 127
2, 57560, Note_on_c, 1, 74, 127
2, 57560, Note_off_c, 1, 79, 0
2, 57600, Note_off_c, 1, 48, 0
2, 57600, Note_on_c, 1, 52, 127
2, 57600, Note_on_c, 1, 57, 127
2, 57600, Note_on_c, 1, 64, 127
2, 57600, Note_off_c, 1, 66, 0
2, 57600, Note_on_c, 1, 69, 127
2, 57600, Note_off_c, 1, 72, 0
2, 57600, Note_off_c, 1, 74, 0
2, 57600, Note_on_c, 1, 76, 127
2, 57600, Note_on_c, 1, 81, 127
2, 57640, Note_on_c, 1, 42, 127
2, 57640, Note_on_c, 1, 46, 127
2, 57640, Note_on_c, 1, 49, 127
2, 57640, Note_off_c, 1, 52, 0
2, 57640, Note_on_c, 1, 54, 127
2, 57640, Note_off_c, 1, 57, 0
2, 57640, Note_off_c, 1, 64, 0
2, 57640, Note_off_c, 1, 69, 0
2, 57640, Note_off_c, 1, 76, 0
2, 57640, Note_off_c, 1, 81, 0
2, 57640, Note_on_c, 1, 83, 127
2, 57680, Note_off_c, 1, 42, 0
2, 57680, Note_on_c, 1, 43, 127
2, 57680, Note_off_c, 1, 46, 0
2, 57680, Note_on_c, 1, 48, 127
2, 57680, Note_on_c, 1, 52, 127
2, 57680, Note_off_c, 1, 54, 0
2, 57680, Note_on_c, 1, 55, 127
2, 57680, Note_on_c, 1, 61, 127
2, 57680, Note_on_c, 1, 64, 127
2, 57680, Note_on_c, 1, 70, 127
2, 57680, Note_on_c, 1, 73, 127
2, 57680, Note_off_c, 1, 83, 0
2, 57800, Note_off_c, 1, 43, 0
2, 57800, Note_off_c, 1, 48, 0
2, 57800, Note_off_c, 1, 49, 0
2, 57800, Note_off_c, 1, 52, 0
2, 57800, Note_off_c, 1, 55, 0
2, 57800, Note_off_c, 1, 61, 0
2, 57800, Note_off_c, 1, 64, 0
2, 57800, Note_on_c, 1, 65, 127
2, 57800, Note_on_c, 1, 68, 127
2, 57800, Note_off_c, 1, 70, 0
2, 57800, Note_off_c, 1, 73, 0
2, 57800, Note_on_c, 1, 77, 127
2, 57800, Note_on_c, 1, 80, 127
2, 57800, Note_on_c, 1, 85, 127
2, 57840, Note_on_c, 1, 48, 127
2, 57840, Note_on_c, 1, 49, 127
2, 57840, Note_off_c, 1, 65, 0
2, 57840, Note_off_c, 1, 68, 0
2, 57840, Note_off_c, 1, 77, 0
2, 57840, Note_off_c, 1, 80, 0
2, 57840, Note_off_c, 1, 85, 0
2, 57880, Note_on_c, 1, 45, 127
2, 57880, Note_off_c, 1, 48, 0
2, 57880, Note_off_c, 1, 49, 0
2, 57880, Note_on_c, 1, 57, 127
2, 57880, Note_on_c, 1, 72, 127
2, 57880, Note_on_c, 1, 75, 127
2, 57880, Note_on_c, 1, 78, 127
2, 58160, Note_off_c, 1, 45, 0
2, 58160, Note_off_c, 1, 57, 0
2, 58160, Note_off_c, 1, 72, 0
2, 58160, Note_off_c, 1, 75, 0
2, 58160, Note_off_c, 1, 78, 0
2, 58200, Note_on_c, 1, 45, 127
2, 58200, Note_on_c, 1, 57, 127
2, 58200, Note_on_c, 1, 72, 127
2, 58200, Note_on_c, 1, 75, 127
2, 58200, Note_on_c, 1, 78, 127
2, 58480, Note_off_c, 1, 45, 0
2, 58480, Note_off_c, 1, 57, 0
2, 58480, Note_off_c, 1, 72, 0
2, 58480, Note_off_c, 1, 75, 0
2, 58480, Note_off_c, 1, 78, 0
2, 58520, Note_on_c, 1, 55, 127
2, 58520, Note_on_c, 1, 60, 127
2, 58520, Note_on_c, 1, 67, 127
2, 58520, Note_on_c, 1, 89, 127
2, 58520, Note_on_c, 1, 91, 127
2, 58560, Note_on_c, 1, 47, 127
2, 58560, Note_on_c, 1, 54, 127
2, 58560, Note_off_c, 1, 55, 0
2, 58560, Note_on_c, 1, 58, 127
2, 58560, Note_off_c, 1, 60, 0
2, 58560, Note_off_c, 1, 67, 0
2, 58560, Note_on_c, 1, 70, 127
2, 58560, Note_on_c, 1, 78, 127
2, 58560, Note_on_c, 1, 82, 127
2, 58560, Note_off_c, 1, 89, 0
2, 58560, Note_off_c, 1, 91, 0
2, 58600, Note_on_c, 1, 41, 127
2, 58600, Note_off_c, 1, 47, 0
2, 58600, Note_on_c, 1, 53, 127
2, 58600, Note_off_c, 1, 54, 0
2, 58600, Note_off_c, 1, 58, 0
2, 58600, Note_off_c, 1, 70, 0
2, 58600, Note_on_c, 1, 77, 127
2, 58600, Note_off_c, 1, 78, 0
2, 58600, Note_on_c, 1, 80, 127
2, 58600, Note_off_c, 1, 82, 0
2, 58600, Note_on_c, 1, 86, 127
2, 58640, Note_off_c, 1, 41, 0
2, 58640, Note_off_c, 1, 53, 0
2, 58640, Note_on_c, 1, 55, 127
2, 58640, Note_on_c, 1, 60, 127
2, 58640, Note_on_c, 1, 67, 127
2, 58640, Note_off_c, 1, 77, 0
2, 58640, Note_off_c, 1, 80, 0
2, 58640, Note_off_c, 1, 86, 0
2, 58640, Note_on_c, 1, 89, 127
2, 58640, Note_on_c, 1, 91, 127
2, 58680, Note_on_c, 1, 43, 127
2, 58680, Note_on_c, 1, 50, 127
2, 58680, Note_off_c, 1, 55, 0
2, 58680, Note_off_c, 1, 60, 0
2, 58680, Note_off_c, 1, 67, 0
2, 58680, Note_off_c, 1, 89, 0
2, 58680, Note_off_c, 1, 91, 0
2, 58720, Note_off_c, 1, 43, 0
2, 58720, Note_on_c, 1, 64, 127
2, 58720, Note_on_c, 1, 66, 127
2, 58720, Note_on_c, 1, 69, 127
2, 58960, Note_on_c, 1, 62, 127
2, 58960, Note_off_c, 1, 64, 0
2, 59000, Note_off_c, 1, 50, 0
2, 59000, Note_on_c, 1, 55, 127
2, 59000, Note_off_c, 1, 62, 0
2, 59000, Note_off_c, 1, 66, 0
2, 59000, Note_on_c, 1, 72, 127
2, 59000, Note_on_c, 1, 81, 127
2, 59040, Note_on_c, 1, 45, 127
2, 59040, Note_on_c, 1, 49, 127
2, 59040, Note_on_c, 1, 51, 127
2, 59040, Note_off_c, 1, 55, 0
2, 59040, Note_on_c, 1, 57, 127
2, 59040, Note_on_c, 1, 60, 127
2, 59040, Note_on_c, 1, 62, 127
2, 59040, Note_off_c, 1, 81, 0
2, 59080, Note_on_c, 1, 42, 127
2, 59080, Note_off_c, 1, 45, 0
2, 59080, Note_off_c, 1, 49, 0
2, 59080, Note_off_c, 1, 51, 0
2, 59080, Note_off_c, 1, 57, 0
2, 59080, Note_off_c, 1, 60, 0
2, 59080, Note_off_c, 1, 62, 0
2, 59080, Note_off_c, 1, 69, 0
2, 59080, Note_off_c, 1, 72, 0
2, 59120, Note_off_c, 1, 42, 0
2, 59120, Note_on_c, 1, 55, 127
2, 59120, Note_on_c, 1, 59, 127
2, 59120, Note_on_c, 1, 62, 127
2, 59120, Note_on_c, 1, 67, 127
2, 59120, Note_on_c, 1, 71, 127
2, 59880, Note_off_c, 1, 55, 0
2, 59880, Note_off_c, 1, 59, 0
2, 59880, Note_off_c, 1, 62, 0
2, 59880, Note_off_c, 1, 67, 0
2, 59880, Note_off_c, 1, 71, 0
2, 59920, Note_on_c, 1, 75, 127
2, 59920, Note_on_c, 1, 78, 127
2, 59920, Note_on_c, 1, 84, 127
2, 59920, Note_on_c, 1, 90, 127
2, 59920, Note_on_c, 1, 92, 127
2, 59960, Note_on_c, 1, 57, 127
2, 59960, Note_on_c, 1, 60, 127
2, 59960, Note_on_c, 1, 64, 127
2, 59960, Note_off_c, 1, 75, 0
2, 59960, Note_off_c, 1, 78, 0
2, 59960, Note_on_c, 1, 83, 127
2, 59960, Note_off_c, 1, 84, 0
2, 59960, Note_off_c, 1, 90, 0
2, 59960, Note_off_c, 1, 92, 0
2, 60000, Note_on_c, 1, 45, 127
2, 60000, Note_on_c, 1, 50, 127
2, 60000, Note_off_c, 1, 60, 0
2, 60000, Note_on_c, 1, 70, 127
2, 60000, Note_off_c, 1, 83, 0
2, 60040, Note_off_c, 1, 45, 0
2, 60040, Note_off_c, 1, 50, 0
2, 60040, Note_off_c, 1, 57, 0
2, 60040, Note_off_c, 1, 64, 0
2, 60040, Note_off_c, 1, 70, 0
2, 60080, Note_on_c, 1, 75, 127
2, 60080, Note_on_c, 1, 78, 127
2, 60080, Note_on_c, 1, 84, 127
2, 60080, Note_on_c, 1, 90, 127
2, 60080, Note_on_c, 1, 92, 127
2, 60120, Note_on_c, 1, 35, 127
2, 60120, Note_on_c, 1, 47, 127
2, 60120, Note_on_c, 1, 59, 127
2, 60120, Note_on_c, 1, 64, 127
2, 60120, Note_on_c, 1, 68, 127
2, 60120, Note_on_c, 1, 71, 127
2, 60120, Note_off_c, 1, 75, 0
2, 60120, Note_on_c, 1, 76, 127
2, 60120, Note_off_c, 1, 78, 0
2, 60120, Note_on_c, 1, 80, 127
2, 60120, Note_on_c, 1, 83, 127
2, 60120, Note_off_c, 1, 84, 0
2, 60120, Note_off_c, 1, 90, 0
2, 60120, Note_off_c, 1, 92, 0
2, 60160, Note_off_c, 1, 35, 0
2, 60160, Note_off_c, 1, 47, 0
2, 60160, Note_off_c, 1, 59, 0
2, 60160, Note_off_c, 1, 64, 0
2, 60160, Note_off_c, 1, 68, 0
2, 60160, Note_off_c, 1, 71, 0
2, 60160, Note_on_c, 1, 75, 127
2, 60160, Note_off_c, 1, 76, 0
2, 60160, Note_on_c, 1, 78, 127
2, 60160, Note_off_c, 1, 80, 0
2, 60160, Note_off_c, 1, 83, 0
2, 60160, Note_on_c, 1, 84, 127
2, 60160, Note_on_c, 1, 90, 127
2, 60160, Note_on_c, 1, 92, 127
2, 60320, Note_off_c, 1, 75, 0
2, 60320, Note_off_c, 1, 78, 0
2, 60320, Note_off_c, 1, 84, 0
2, 60320, Note_off_c, 1, 90, 0
2, 60320, Note_off_c, 1, 92, 0
2, 60360, Note_on_c, 1, 63, 127
2, 60360, Note_on_c, 1, 66, 127
2, 60360, Note_on_c, 1, 68, 127
2, 60360, Note_on_c, 1, 73, 127
2, 60360, Note_on_c, 1, 75, 127
2, 60360, Note_on_c, 1, 80, 127
2, 60400, Note_on_c, 1, 47, 127
2, 60400, Note_on_c, 1, 54, 127
2, 60400, Note_on_c, 1, 56, 127
2, 60400, Note_on_c, 1, 62, 127
2, 60400, Note_off_c, 1, 63, 0
2, 60400, Note_off_c, 1, 66, 0
2, 60400, Note_off_c, 1, 73, 0
2, 60400, Note_on_c, 1, 74, 127
2, 60400, Note_off_c, 1, 75, 0
2, 60400, Note_on_c, 1, 78, 127
2, 60440, Note_on_c, 1, 41, 127
2, 60440, Note_off_c, 1, 47, 0
2, 60440, Note_off_c, 1, 54, 0
2, 60440, Note_off_c, 1, 56, 0
2, 60440, Note_off_c, 1, 62, 0
2, 60440, Note_off_c, 1, 68, 0
2, 60440, Note_off_c, 1, 74, 0
2, 60440, Note_off_c, 1, 78, 0
2, 60440, Note_off_c, 1, 80, 0
2, 60440, Note_on_c, 1, 82, 127
2, 60440, Note_on_c, 1, 89, 127
2, 60440, Note_on_c, 1, 94, 127
2, 60480, Note_on_c, 1, 30, 127
2, 60480, Note_on_c, 1, 35, 127
2, 60480, Note_on_c, 1, 37, 127
2, 60480, Note_off_c, 1, 41, 0
2, 60480, Note_on_c, 1, 71, 127
2, 60480, Note_off_c, 1, 82, 0
2, 60480, Note_off_c, 1, 89, 0
2, 60480, Note_off_c, 1, 94, 0
2, 60520, Note_off_c, 1, 30, 0
2, 60520, Note_off_c, 1, 35, 0
2, 60520, Note_off_c, 1, 37, 0
2, 60520, Note_on_c, 1, 49, 127
2, 60520, Note_on_c, 1, 51, 127
2, 60520, Note_on_c, 1, 54, 127
2, 60520, Note_on_c, 1, 61, 127
2, 60520, Note_on_c, 1, 63, 127
2, 60520, Note_on_c, 1, 66, 127
2, 60520, Note_off_c, 1, 71, 0
2, 60560, Note_on_c, 1, 41, 127
2, 60560, Note_off_c, 1, 49, 0
2, 60560, Note_on_c, 1, 50, 127
2, 60560, Note_off_c, 1, 51, 0
2, 60560, Note_off_c, 1, 54, 0
2, 60560, Note_on_c, 1, 57, 127
2, 60560, Note_off_c, 1, 61, 0
2, 60560, Note_off_c, 1, 63, 0
2, 60560, Note_on_c, 1, 65, 127
2, 60560, Note_off_c, 1, 66, 0
2, 60560, Note_on_c, 1, 69, 127
2, 60560, Note_on_c, 1, 74, 127
2, 60600, Note_off_c, 1, 41, 0
2, 60600, Note_on_c, 1, 44, 127
2, 60600, Note_on_c, 1, 53, 127
2, 60600, Note_on_c, 1, 56, 127
2, 60600, Note_off_c, 1, 57, 0
2, 60600, Note_off_c, 1, 65, 0
2, 60600, Note_off_c, 1, 69, 0
2, 60600, Note_off_c, 1, 74, 0
2, 60640, Note_on_c, 1, 41, 127
2, 60640, Note_off_c, 1, 44, 0
2, 60640, Note_off_c, 1, 53, 0
2, 60640, Note_off_c, 1, 56, 0
2, 60640, Note_on_c, 1, 57, 127
2, 60640, Note_on_c, 1, 65, 127
2, 60640, Note_on_c, 1, 69, 127
2, 60640, Note_on_c, 1, 74, 127
2, 60680, Note_off_c, 1, 41, 0
2, 60680, Note_on_c, 1, 49, 127
2, 60680, Note_off_c, 1, 50, 0
2, 60680, Note_on_c, 1, 53, 127
2, 60680, Note_on_c, 1, 56, 127
2, 60680, Note_off_c, 1, 57, 0
2, 60680, Note_on_c, 1, 68, 127
2, 60680, Note_off_c, 1, 69, 0
2, 60680, Note_off_c, 1, 74, 0
2, 60720, Note_off_c, 1, 49, 0
2, 60720, Note_off_c, 1, 53, 0
2, 60720, Note_off_c, 1, 56, 0
2, 60720, Note_on_c, 1, 61, 127
2, 60720, Note_off_c, 1, 65, 0
2, 60720, Note_off_c, 1, 68, 0
2, 60760, Note_on_c, 1, 58, 127
2, 60760, Note_on_c, 1, 63, 127
2, 60760, Note_on_c, 1, 67, 127
2, 60760, Note_on_c, 1, 70, 127
2, 60760, Note_on_c, 1, 75, 127
2, 60760, Note_on_c, 1, 82, 127
2, 61080, Note_off_c, 1, 58, 0
2, 61080, Note_off_c, 1, 61, 0
2, 61080, Note_off_c, 1, 63, 0
2, 61080, Note_off_c, 1, 67, 0
2, 61080, Note_off_c, 1, 70, 0
2, 61080, Note_off_c, 1, 75, 0
2, 61080, Note_off_c, 1, 82, 0
2, 61160, Note_on_c, 1, 61, 127
2, 61160, Note_on_c, 1, 67, 127
2, 61160, Note_on_c, 1, 70, 127
2, 61160, Note_on_c, 1, 79, 127
2, 61160, Note_on_c, 1, 87, 127
2, 61160, Note_on_c, 1, 91, 127
2, 61280, Note_off_c, 1, 61, 0
2, 61280, Note_off_c, 1, 67, 0
2, 61280, Note_off_c, 1, 70, 0
2, 61280, Note_off_c, 1, 79, 0
2, 61280, Note_off_c, 1, 87, 0
2, 61280, Note_off_c, 1, 91, 0
2, 61360, Note_on_c, 1, 66, 127
2, 61360, Note_on_c, 1, 69, 127
2, 61360, Note_on_c, 1, 85, 127
2, 61360, Note_on_c, 1, 93, 127
2, 61720, Note_off_c, 1, 66, 0
2, 61720, Note_off_c, 1, 69, 0
2, 61720, Note_off_c, 1, 85, 0
2, 61720, Note_off_c, 1, 93, 0
2, 61760, Note_on_c, 1, 66, 127
2, 61760, Note_on_c, 1, 69, 127
2, 61760, Note_on_c, 1, 85, 127
2, 61760, Note_on_c, 1, 93, 127
2, 61960, Note_on_c, 1, 54, 127
2, 61960, Note_on_c, 1, 61, 127
2, 61960, Note_on_c, 1, 64, 127
2, 61960, Note_off_c, 1, 66, 0
2, 61960, Note_on_c, 1, 67, 127
2, 61960, Note_off_c, 1, 69, 0
2, 61960, Note_off_c, 1, 85, 0
2, 61960, Note_off_c, 1, 93, 0
2, 62000, Note_off_c, 1, 54, 0
2, 62000, Note_off_c, 1, 61, 0
2, 62000, Note_off_c, 1, 64, 0
2, 62000, Note_off_c, 1, 67, 0
2, 62040, Note_on_c, 1, 54, 127
2, 62040, Note_on_c, 1, 61, 127
2, 62040, Note_on_c, 1, 64, 127
2, 62040, Note_on_c, 1, 67, 127
2, 62160, Note_off_c, 1, 54, 0
2, 62160, Note_off_c, 1, 61, 0
2, 62160, Note_off_c, 1, 64, 0
2, 62160, Note_off_c, 1, 67, 0
2, 62160, Note_on_c, 1, 68, 127
2, 62160, Note_on_c, 1, 75, 127
2, 62160, Note_on_c, 1, 77, 127
2, 62160, Note_on_c, 1, 80, 127
2, 62200, Note_off_c, 1, 68, 0
2, 62200, Note_off_c, 1, 75, 0
2, 62200, Note_off_c, 1, 77, 0
2, 62200, Note_off_c, 1, 80, 0
2, 62200, Note_on_c, 1, 83, 127
2, 62200, Note_on_c, 1, 87, 127
2, 62200, Note_on_c, 1, 90, 127
2, 62240, Note_on_c, 1, 58, 127
2, 62240, Note_on_c, 1, 63, 127
2, 62240, Note_on_c, 1, 82, 127
2, 62240, Note_off_c, 1, 83, 0
2, 62240, Note_off_c, 1, 87, 0
2, 62240, Note_on_c, 1, 89, 127
2, 62240, Note_off_c, 1, 90, 0
2, 62240, Note_on_c, 1, 94, 127
2, 62280, Note_on_c, 1, 43, 127
2, 62280, Note_on_c, 1, 55, 127
2, 62280, Note_off_c, 1, 58, 0
2, 62280, Note_off_c, 1, 63, 0
2, 62280, Note_on_c, 1, 74, 127
2, 62280, Note_on_c, 1, 76, 127
2, 62280, Note_off_c, 1, 82, 0
2, 62280, Note_off_c, 1, 89, 0
2, 62280, Note_off_c, 1, 94, 0
2, 62320, Note_off_c, 1, 43, 0
2, 62320, Note_on_c, 1, 50, 127
2, 62320, Note_on_c, 1, 59, 127
2, 62320, Note_on_c, 1, 66, 127
2, 62320, Note_on_c, 1, 71, 127
2, 62320, Note_off_c, 1, 74, 0
2, 62320, Note_off_c, 1, 76, 0
2, 62360, Note_off_c, 1, 50, 0
2, 62360, Note_off_c, 1, 55, 0
2, 62360, Note_off_c, 1, 59, 0
2, 62360, Note_off_c, 1, 66, 0
2, 62360, Note_off_c, 1, 71, 0
2, 62400, Note_on_c, 1, 44, 127
2, 62400, Note_on_c, 1, 53, 127
2, 62400, Note_on_c, 1, 62, 127
2, 62400, Note_on_c, 1, 71, 127
2, 62400, Note_on_c, 1, 74, 127
2, 62760, Note_off_c, 1, 53, 0
2, 62800, Note_on_c, 1, 56, 127
2, 62960, Note_off_c, 1, 56, 0
2, 63000, Note_off_c, 1, 44, 0
2, 63000, Note_on_c, 1, 54, 127
2, 63120, Note_off_c, 1, 62, 0
2, 63120, Note_off_c, 1, 71, 0
2, 63120, Note_off_c, 1, 74, 0
2, 63160, Note_off_c, 1, 54, 0
2, 63200, Note_on_c, 1, 50, 127
2, 63200, Note_on_c, 1, 52, 127
2, 63200, Note_on_c, 1, 59, 127
2, 63200, Note_on_c, 1, 68, 127
2, 63960, Note_off_c, 1, 50, 0
2, 63960, Note_off_c, 1, 52, 0
2, 63960, Note_off_c, 1, 59, 0
2, 63960, Note_on_c, 1, 61, 127
2, 63960, Note_on_c, 1, 63, 127
2, 63960, Note_on_c, 1, 66, 127
2, 63960, Note_off_c, 1, 68, 0
2, 63960, Note_on_c, 1, 70, 127
2, 64000, Note_off_c, 1, 61, 0
2, 64000, Note_off_c, 1, 63, 0
2, 64000, Note_off_c, 1, 66, 0
2, 64000, Note_off_c, 1, 70, 0
2, 64040, Note_on_c, 1, 57, 127
2, 64040, Note_on_c, 1, 84, 127
2, 64040, Note_on_c, 1, 87, 127
2, 64040, Note_on_c, 1, 90, 127
2, 64040, Note_on_c, 1, 96, 127
2, 64080, Note_off_c, 1, 57, 0
2, 64080, Note_on_c, 1, 62, 127
2, 64080, Note_on_c, 1, 65, 127
2, 64080, Note_on_c, 1, 67, 127
2, 64080, Note_on_c, 1, 74, 127
2, 64080, Note_on_c, 1, 77, 127
2, 64080, Note_off_c, 1, 84, 0
2, 64080, Note_on_c, 1, 86, 127
2, 64080, Note_off_c, 1, 87, 0
2, 64080, Note_off_c, 1, 90, 0
2, 64080, Note_off_c, 1, 96, 0
2, 64120, Note_off_c, 1, 62, 0
2, 64120, Note_on_c, 1, 64, 127
2, 64120, Note_off_c, 1, 65, 0
2, 64120, Note_off_c, 1, 67, 0
2, 64120, Note_on_c, 1, 72, 127
2, 64120, Note_off_c, 1, 74, 0
2, 64120, Note_off_c, 1, 77, 0
2, 64120, Note_off_c, 1, 86, 0
2, 64120, Note_on_c, 1, 96, 127
2, 64160, Note_on_c, 1, 52, 127
2, 64160, Note_on_c, 1, 55, 127
2, 64160, Note_on_c, 1, 58, 127
2, 64160, Note_on_c, 1, 60, 127
2, 64160, Note_off_c, 1, 72, 0
2, 64160, Note_on_c, 1, 84, 127
2, 64160, Note_off_c, 1, 96, 0
2, 64200, Note_off_c, 1, 52, 0
2, 64200, Note_on_c, 1, 54, 127
2, 64200, Note_off_c, 1, 55, 0
2, 64200, Note_off_c, 1, 58, 0
2, 64200, Note_on_c, 1, 69, 127
2, 64200, Note_on_c, 1, 81, 127
2, 64240, Note_off_c, 1, 54, 0
2, 64240, Note_on_c, 1, 58, 127
2, 64240, Note_off_c, 1, 64, 0
2, 64240, Note_off_c, 1, 69, 0
2, 64240, Note_off_c, 1, 81, 0
2, 64280, Note_on_c, 1, 37, 127
2, 64280, Note_on_c, 1, 49, 127
2, 64280, Note_on_c, 1, 57, 127
2, 64280, Note_off_c, 1, 58, 0
2, 64280, Note_off_c, 1, 60, 0
2, 64280, Note_on_c, 1, 61, 127
2, 64280, Note_on_c, 1, 66, 127
2, 64280, Note_on_c, 1, 69, 127
2, 64280, Note_on_c, 1, 73, 127
2, 64280, Note_on_c, 1, 78, 127
2, 64280, Note_on_c, 1, 81, 127
2, 64280, Note_off_c, 1, 84, 0
2, 64320, Note_off_c, 1, 37, 0
2, 64320, Note_off_c, 1, 49, 0
2, 64320, Note_off_c, 1, 57, 0
2, 64320, Note_on_c, 1, 58, 127
2, 64320, Note_off_c, 1, 61, 0
2, 64320, Note_on_c, 1, 64, 127
2, 64320, Note_off_c, 1, 69, 0
2, 64320, Note_on_c, 1, 76, 127
2, 64320, Note_off_c, 1, 81, 0
2, 64320, Note_on_c, 1, 82, 127
2, 64320, Note_on_c, 1, 85, 127
2, 64360, Note_on_c, 1, 37, 127
2, 64360, Note_on_c, 1, 49, 127
2, 64360, Note_on_c, 1, 57, 127
2, 64360, Note_off_c, 1, 58, 0
2, 64360, Note_on_c, 1, 61, 127
2, 64360, Note_off_c, 1, 64, 0
2, 64360, Note_on_c, 1, 69, 127
2, 64360, Note_off_c, 1, 76, 0
2, 64360, Note_on_c, 1, 81, 127
2, 64360, Note_off_c, 1, 82, 0
2, 64360, Note_off_c, 1, 85, 0
2, 64400, Note_off_c, 1, 37, 0
2, 64400, Note_off_c, 1, 49, 0
2, 64400, Note_off_c, 1, 57, 0
2, 64400, Note_on_c, 1, 59, 127
2, 64400, Note_off_c, 1, 61, 0
2, 64400, Note_off_c, 1, 66, 0
2, 64400, Note_off_c, 1, 69, 0
2, 64400, Note_on_c, 1, 70, 127
2, 64400, Note_off_c, 1, 81, 0
2, 64440, Note_on_c, 1, 49, 127
2, 64440, Note_on_c, 1, 57, 127
2, 64440, Note_off_c, 1, 59, 0
2, 64440, Note_on_c, 1, 69, 127
2, 64440, Note_off_c, 1, 70, 0
2, 64440, Note_off_c, 1, 73, 0
2, 64440, Note_off_c, 1, 78, 0
2, 64480, Note_off_c, 1, 49, 0
2, 64480, Note_on_c, 1, 56, 127
2, 64480, Note_off_c, 1, 57, 0
2, 64480, Note_on_c, 1, 62, 127
2, 64480, Note_off_c, 1, 69, 0
2, 64480, Note_on_c, 1, 71, 127
2, 64480, Note_on_c, 1, 74, 127
2, 64520, Note_on_c, 1, 41, 127
2, 64520, Note_off_c, 1, 56, 0
2, 64520, Note_off_c, 1, 62, 0
2, 64520, Note_on_c, 1, 70, 127
2, 64520, Note_off_c, 1, 71, 0
2, 64520, Note_off_c, 1, 74, 0
2, 64520, Note_on_c, 1, 75, 127
2, 64520, Note_on_c, 1, 79, 127
2, 64560, Note_off_c, 1, 41, 0
2, 64560, Note_on_c, 1, 46, 127
2, 64560, Note_on_c, 1, 50, 127
2, 64560, Note_on_c, 1, 55, 127
2, 64560, Note_off_c, 1, 70, 0
2, 64560, Note_off_c, 1, 75, 0
2, 64560, Note_off_c, 1, 79, 0
2, 64560, Note_on_c, 1, 93, 127
2, 64600, Note_off_c, 1, 46, 0
2, 64600, Note_off_c, 1, 50, 0
2, 64600, Note_on_c, 1, 54, 127
2, 64600, Note_on_c, 1, 59, 127
2, 64600, Note_off_c, 1, 93, 0
2, 64640, Note_off_c, 1, 54, 0
2, 64640, Note_off_c, 1, 55, 0
2, 64640, Note_on_c, 1, 58, 127
2, 64640, Note_off_c, 1, 59, 0
2, 64640, Note_on_c, 1, 74, 127
2, 64640, Note_on_c, 1, 76, 127
2, 64640, Note_on_c, 1, 79, 127
2, 64640, Note_on_c, 1, 86, 127
2, 64680, Note_on_c, 1, 30, 127
2, 64680, Note_on_c, 1, 46, 127
2, 64680, Note_off_c, 1, 58, 0
2, 64680, Note_off_c, 1, 74, 0
2, 64680, Note_off_c, 1, 76, 0
2, 64680, Note_off_c, 1, 79, 0
2, 64680, Note_off_c, 1, 86, 0
2, 64720, Note_off_c, 1, 30, 0
2, 64720, Note_off_c, 1, 46, 0
2, 64720, Note_on_c, 1, 56, 127
2, 64720, Note_on_c, 1, 59, 127
2, 64720, Note_on_c, 1, 62, 127
2, 64720, Note_on_c, 1, 64, 127
2, 64720, Note_on_c, 1, 81, 127
2, 64720, Note_on_c, 1, 83, 127
2, 64760, Note_on_c, 1, 31, 127
2, 64760, Note_on_c, 1, 39, 127
2, 64760, Note_on_c, 1, 43, 127
2, 64760, Note_off_c, 1, 56, 0
2, 64760, Note_off_c, 1, 59, 0
2, 64760, Note_off_c, 1, 62, 0
2, 64760, Note_off_c, 1, 64, 0
2, 64760, Note_on_c, 1, 79, 127
2, 64760, Note_off_c, 1, 81, 0
2, 64760, Note_off_c, 1, 83, 0
2, 64800, Note_off_c, 1, 31, 0
2, 64800, Note_off_c, 1, 39, 0
2, 64800, Note_off_c, 1, 43, 0
2, 64800, Note_on_c, 1, 49, 127
2, 64800, Note_on_c, 1, 55, 127
2, 64800, Note_off_c, 1, 79, 0
2, 64840, Note_off_c, 1, 49, 0
2, 64840, Note_off_c, 1, 55, 0
2, 64840, Note_on_c, 1, 70, 127
2, 64840, Note_on_c, 1, 74, 127
2, 64840, Note_on_c, 1, 79, 127
2, 64840, Note_on_c, 1, 81, 127
2, 64880, Note_on_c, 1, 44, 127
2, 64880, Note_on_c, 1, 51, 127
2, 64880, Note_on_c, 1, 63, 127
2, 64880, Note_off_c, 1, 70, 0
2, 64880, Note_on_c, 1, 72, 127
2, 64880, Note_off_c, 1, 74, 0
2, 64880, Note_on_c, 1, 75, 127
2, 64880, Note_off_c, 1, 79, 0
2, 64880, Note_off_c, 1, 81, 0
2, 64920, Note_off_c, 1, 44, 0
2, 64920, Note_off_c, 1, 51, 0
2, 64920, Note_off_c, 1, 63, 0
2, 64920, Note_on_c, 1, 70, 127
2, 64920, Note_off_c, 1, 72, 0
2, 64920, Note_on_c, 1, 74, 127
2, 64920, Note_off_c, 1, 75, 0
2, 64920, Note_on_c, 1, 79, 127
2, 64920, Note_on_c, 1, 81, 127
2, 64960, Note_on_c, 1, 58, 127
2, 64960, Note_on_c, 1, 62, 127
2, 64960, Note_on_c, 1, 65, 127
2, 64960, Note_off_c, 1, 81, 0
2, 65000, Note_off_c, 1, 58, 0
2, 65000, Note_off_c, 1, 62, 0
2, 65000, Note_off_c, 1, 65, 0
2, 65000, Note_on_c, 1, 81, 127
2, 65200, Note_on_c, 1, 50, 127
2, 65200, Note_on_c, 1, 62, 127
2, 65200, Note_off_c, 1, 70, 0
2, 65200, Note_off_c, 1, 74, 0
2, 65200, Note_on_c, 1, 77, 127
2, 65200, Note_off_c, 1, 79, 0
2, 65200, Note_off_c, 1, 81, 0
2, 65200, Note_on_c, 1, 82, 127
2, 65200, Note_on_c, 1, 86, 127
2, 65200, Note_on_c, 1, 89, 127
2, 65240, Note_on_c, 1, 49, 127
2, 65240, Note_off_c, 1, 50, 0
2, 65240, Note_on_c, 1, 61, 127
2, 65240, Note_off_c, 1, 62, 0
2, 65240, Note_on_c, 1, 65, 127
2, 65240, Note_on_c, 1, 68, 127
2, 65240, Note_on_c, 1, 72, 127
2, 65240, Note_off_c, 1, 77, 0
2, 65240, Note_off_c, 1, 82, 0
2, 65240, Note_off_c, 1, 86, 0
2, 65240, Note_off_c, 1, 89, 0
2, 65280, Note_off_c, 1, 49, 0
2, 65280, Note_off_c, 1, 61, 0
2, 65280, Note_off_c, 1, 65, 0
2, 65280, Note_off_c, 1, 68, 0
2, 65280, Note_off_c, 1, 72, 0
2, 65280, Note_on_c, 1, 78, 127
2, 65280, Note_on_c, 1, 85, 127
2, 65280, Note_on_c, 1, 90, 127
2, 65280, Note_on_c, 1, 94, 127
2, 65280, Note_on_c, 1, 102, 127
2, 65600, Note_on_c, 1, 48, 127
2, 65600, Note_off_c, 1, 78, 0
2, 65600, Note_on_c, 1, 83, 127
2, 65600, Note_off_c, 1, 85, 0
2, 65600, Note_off_c, 1, 90, 0
2, 65600, Note_off_c, 1, 94, 0
2, 65600, Note_off_c, 1, 102, 0
2, 65640, Note_off_c, 1, 48, 0
2, 65640, Note_on_c, 1, 54, 127
2, 65640, Note_on_c, 1, 63, 127
2, 65640, Note_off_c, 1, 83, 0
2, 65640, Note_on_c, 1, 84, 127
2, 65640, Note_on_c, 1, 87, 127
2, 65680, Note_on_c, 1, 34, 127
2, 65680, Note_off_c, 1, 54, 0
2, 65680, Note_off_c, 1, 84, 0
2, 65680, Note_off_c, 1, 87, 0
2, 65680, Note_on_c, 1, 92, 127
2, 65680, Note_on_c, 1, 96, 127
2, 65680, Note_on_c, 1, 99, 127
2, 65720, Note_off_c, 1, 34, 0
2, 65720, Note_on_c, 1, 40, 127
2, 65720, Note_on_c, 1, 53, 127
2, 65720, Note_on_c, 1, 57, 127
2, 65720, Note_off_c, 1, 63, 0
2, 65720, Note_on_c, 1, 65, 127
2, 65720, Note_off_c, 1, 92, 0
2, 65720, Note_off_c, 1, 96, 0
2, 65720, Note_off_c, 1, 99, 0
2, 65760, Note_off_c, 1, 40, 0
2, 65760, Note_on_c, 1, 52, 127
2, 65760, Note_off_c, 1, 53, 0
2, 65760, Note_off_c, 1, 57, 0
2, 65760, Note_on_c, 1, 63, 127
2, 65760, Note_off_c, 1, 65, 0
2, 65760, Note_on_c, 1, 69, 127
2, 65760, Note_on_c, 1, 72, 127
2, 65760, Note_on_c, 1, 78, 127
2, 65800, Note_on_c, 1, 28, 127
2, 65800, Note_on_c, 1, 40, 127
2, 65800, Note_on_c, 1, 50, 127
2, 65800, Note_off_c, 1, 52, 0
2, 65800, Note_on_c, 1, 53, 127
2, 65800, Note_on_c, 1, 57, 127
2, 65800, Note_on_c, 1, 62, 127
2, 65800, Note_off_c, 1, 63, 0
2, 65800, Note_off_c, 1, 69, 0
2, 65800, Note_off_c, 1, 72, 0
2, 65800, Note_off_c, 1, 78, 0
2, 65840, Note_off_c, 1, 28, 0
2, 65840, Note_off_c, 1, 40, 0
2, 65840, Note_off_c, 1, 50, 0
2, 65840, Note_off_c, 1, 53, 0
2, 65840, Note_off_c, 1, 57, 0
2, 65840, Note_on_c, 1, 61, 127
2, 65840, Note_off_c, 1, 62, 0
2, 65840, Note_on_c, 1, 82, 127
2, 65840, Note_on_c, 1, 87, 127
2, 65840, Note_on_c, 1, 91, 127
2, 65840, Note_on_c, 1, 94, 127
2, 65880, Note_on_c, 1, 42, 127
2, 65880, Note_on_c, 1, 45, 127
2, 65880, Note_off_c, 1, 61, 0
2, 65880, Note_on_c, 1, 69, 127
2, 65880, Note_on_c, 1, 74, 127
2, 65880, Note_on_c, 1, 81, 127
2, 65880, Note_off_c, 1, 82, 0
2, 65880, Note_off_c, 1, 87, 0
2, 65880, Note_off_c, 1, 91, 0
2, 65880, Note_off_c, 1, 94, 0
2, 66000, Note_off_c, 1, 42, 0
2, 66000, Note_off_c, 1, 45, 0
2, 66000, Note_off_c, 1, 69, 0
2, 66000, Note_off_c, 1, 74, 0
2, 66000, Note_off_c, 1, 81, 0
2, 66040, Note_on_c, 1, 29, 127
2, 66040, Note_on_c, 1, 65, 127
2, 66040, Note_on_c, 1, 68, 127
2, 66080, Note_off_c, 1, 29, 0
2, 66080, Note_off_c, 1, 65, 0
2, 66080, Note_off_c, 1, 68, 0
2, 66120, Note_on_c, 1, 43, 127
2, 66120, Note_on_c, 1, 93, 127
2, 66160, Note_on_c, 1, 42, 127
2, 66160, Note_off_c, 1, 43, 0
2, 66160, Note_on_c, 1, 79, 127
2, 66160, Note_on_c, 1, 83, 127
2, 66160, Note_on_c, 1, 88, 127
2, 66160, Note_off_c, 1, 93, 0
2, 66200, Note_off_c, 1, 42, 0
2, 66200, Note_on_c, 1, 48, 127
2, 66200, Note_on_c, 1, 57, 127
2, 66200, Note_on_c, 1, 60, 127
2, 66200, Note_on_c, 1, 76, 127
2, 66200, Note_off_c, 1, 79, 0
2, 66200, Note_off_c, 1, 83, 0
2, 66200, Note_off_c, 1, 88, 0
2, 66240, Note_on_c, 1, 43, 127
2, 66240, Note_off_c, 1, 48, 0
2, 66240, Note_on_c, 1, 50, 127
2, 66240, Note_on_c, 1, 65, 127
2, 66240, Note_off_c, 1, 76, 0
2, 66280, Note_on_c, 1, 33, 127
2, 66280, Note_off_c, 1, 43, 0
2, 66280, Note_on_c, 1, 45, 127
2, 66280, Note_off_c, 1, 50, 0
2, 66280, Note_off_c, 1, 60, 0
2, 66280, Note_off_c, 1, 65, 0
2, 66280, Note_on_c, 1, 67, 127
2, 66280, Note_on_c, 1, 71, 127
2, 66280, Note_on_c, 1, 76, 127
2, 66320, Note_on_c, 1, 40, 127
2, 66320, Note_off_c, 1, 45, 0
2, 66320, Note_off_c, 1, 57, 0
2, 66320, Note_off_c, 1, 67, 0
2, 66320, Note_off_c, 1, 71, 0
2, 66320, Note_off_c, 1, 76, 0
2, 66320, Note_on_c, 1, 93, 127
2, 66360, Note_on_c, 1, 31, 127
2, 66360, Note_off_c, 1, 33, 0
2, 66360, Note_on_c, 1, 39, 127
2, 66360, Note_off_c, 1, 40, 0
2, 66360, Note_on_c, 1, 43, 127
2, 66360, Note_on_c, 1, 63, 127
2, 66360, Note_off_c, 1, 93, 0
2, 66400, Note_off_c, 1, 31, 0
2, 66400, Note_off_c, 1, 39, 0
2, 66400, Note_off_c, 1, 43, 0
2, 66400, Note_off_c, 1, 63, 0
2, 66400, Note_on_c, 1, 83, 127
2, 66400, Note_on_c, 1, 84, 127
2, 66400, Note_on_c, 1, 91, 127
2, 66400, Note_on_c, 1, 93, 127
2, 66440, Note_on_c, 1, 50, 127
2, 66440, Note_on_c, 1, 62, 127
2, 66440, Note_on_c, 1, 82, 127
2, 66440, Note_off_c, 1, 83, 0
2, 66440, Note_off_c, 1, 84, 0
2, 66440, Note_on_c, 1, 89, 127
2, 66440, Note_off_c, 1, 91, 0
2, 66440, Note_off_c, 1, 93, 0
2, 66440, Note_on_c, 1, 94, 127
2, 66480, Note_off_c, 1, 50, 0
2, 66480, Note_on_c, 1, 54, 127
2, 66480, Note_on_c, 1, 57, 127
2, 66480, Note_off_c, 1, 62, 0
2, 66480, Note_on_c, 1, 67, 127
2, 66480, Note_on_c, 1, 69, 127
2, 66480, Note_off_c, 1, 82, 0
2, 66480, Note_off_c, 1, 89, 0
2, 66480, Note_off_c, 1, 94, 0
2, 66520, Note_off_c, 1, 54, 0
2, 66520, Note_off_c, 1, 57, 0
2, 66520, Note_off_c, 1, 67, 0
2, 66520, Note_off_c, 1, 69, 0
2, 66520, Note_on_c, 1, 81, 127
2, 66520, Note_on_c, 1, 87, 127
2, 66520, Note_on_c, 1, 95, 127
2, 66560, Note_on_c, 1, 59, 127
2, 66560, Note_on_c, 1, 67, 127
2, 66560, Note_on_c, 1, 71, 127
2, 66560, Note_on_c, 1, 79, 127
2, 66560, Note_off_c, 1, 81, 0
2, 66560, Note_on_c, 1, 86, 127
2, 66560, Note_off_c, 1, 87, 0
2, 66560, Note_off_c, 1, 95, 0
2, 66600, Note_on_c, 1, 48, 127
2, 66600, Note_on_c, 1, 52, 127
2, 66600, Note_on_c, 1, 57, 127
2, 66600, Note_off_c, 1, 59, 0
2, 66600, Note_off_c, 1, 67, 0
2, 66600, Note_off_c, 1, 71, 0
2, 66600, Note_off_c, 1, 79, 0
2, 66600, Note_on_c, 1, 83, 127
2, 66600, Note_off_c, 1, 86, 0
2, 66640, Note_off_c, 1, 48, 0
2, 66640, Note_off_c, 1, 52, 0
2, 66640, Note_off_c, 1, 57, 0
2, 66640, Note_off_c, 1, 83, 0
2, 66640, Note_on_c, 1, 88, 127
2, 66640, Note_on_c, 1, 95, 127
2, 66680, Note_on_c, 1, 60, 127
2, 66680, Note_on_c, 1, 62, 127
2, 66680, Note_on_c, 1, 66, 127
2, 66680, Note_on_c, 1, 70, 127
2, 66680, Note_on_c, 1, 86, 127
2, 66680, Note_off_c, 1, 88, 0
2, 66680, Note_off_c, 1, 95, 0
2, 66720, Note_on_c, 1, 54, 127
2, 66720, Note_off_c, 1, 62, 0
2, 66720, Note_on_c, 1, 63, 127
2, 66720, Note_off_c, 1, 66, 0
2, 66720, Note_on_c, 1, 69, 127
2, 66720, Note_off_c, 1, 70, 0
2, 66720, Note_on_c, 1, 72, 127
2, 66720, Note_on_c, 1, 75, 127
2, 66720, Note_on_c, 1, 81, 127
2, 66720, Note_off_c, 1, 86, 0
2, 66760, Note_off_c, 1, 54, 0
2, 66760, Note_on_c, 1, 62, 127
2, 66760, Note_off_c, 1, 63, 0
2, 66760, Note_on_c, 1, 66, 127
2, 66760, Note_off_c, 1, 69, 0
2, 66760, Note_on_c, 1, 70, 127
2, 66760, Note_off_c, 1, 72, 0
2, 66760, Note_off_c, 1, 75, 0
2, 66760, Note_off_c, 1, 81, 0
2, 66760, Note_on_c, 1, 86, 127
2, 66800, Note_off_c, 1, 60, 0
2, 66800, Note_off_c, 1, 62, 0
2, 66800, Note_off_c, 1, 66, 0
2, 66800, Note_off_c, 1, 70, 0
2, 66840, Note_on_c, 1, 50, 127
2, 66840, Note_on_c, 1, 57, 127
2, 66840, Note_off_c, 1, 86, 0
2, 66880, Note_on_c, 1, 39, 127
2, 66880, Note_on_c, 1, 49, 127
2, 66880, Note_off_c, 1, 50, 0
2, 66880, Note_on_c, 1, 54, 127
2, 66880, Note_off_c, 1, 57, 0
2, 66880, Note_on_c, 1, 73, 127
2, 66920, Note_off_c, 1, 39, 0
2, 66920, Note_off_c, 1, 49, 0
2, 66920, Note_off_c, 1, 54, 0
2, 66920, Note_on_c, 1, 57, 127
2, 66920, Note_on_c, 1, 60, 127
2, 66920, Note_on_c, 1, 64, 127
2, 66920, Note_off_c, 1, 73, 0
2, 66920, Note_on_c, 1, 81, 127
2, 66920, Note_on_c, 1, 93, 127
2, 66960, Note_on_c, 1, 40, 127
2, 66960, Note_on_c, 1, 47, 127
2, 66960, Note_on_c, 1, 52, 127
2, 66960, Note_off_c, 1, 57, 0
2, 66960, Note_off_c, 1, 60, 0
2, 66960, Note_off_c, 1, 64, 0
2, 66960, Note_off_c, 1, 81, 0
2, 66960, Note_on_c, 1, 83, 127
2, 66960, Note_on_c, 1, 88, 127
2, 66960, Note_on_c, 1, 92, 127
2, 66960, Note_off_c, 1, 93, 0
2, 67000, Note_off_c, 1, 40, 0
2, 67000, Note_off_c, 1, 47, 0
2, 67000, Note_off_c, 1, 52, 0
2, 67000, Note_on_c, 1, 53, 127
2, 67000, Note_on_c, 1, 81, 127
2, 67000, Note_off_c, 1, 83, 0
2, 67000, Note_on_c, 1, 84, 127
2, 67000, Note_on_c, 1, 86, 127
2, 67000, Note_off_c, 1, 88, 0
2, 67000, Note_off_c, 1, 92, 0
2, 67040, Note_off_c, 1, 53, 0
2, 67040, Note_off_c, 1, 81, 0
2, 67040, Note_off_c, 1, 86, 0
2, 67040, Note_on_c, 1, 88, 127
2, 67040, Note_on_c, 1, 93, 127
2, 67080, Note_on_c, 1, 35, 127
2, 67080, Note_on_c, 1, 54, 127
2, 67080, Note_on_c, 1, 64, 127
2, 67080, Note_on_c, 1, 66, 127
2, 67080, Note_on_c, 1, 70, 127
2, 67080, Note_on_c, 1, 73, 127
2, 67080, Note_off_c, 1, 84, 0
2, 67080, Note_off_c, 1, 88, 0
2, 67080, Note_off_c, 1, 93, 0
2, 67120, Note_off_c, 1, 35, 0
2, 67120, Note_off_c, 1, 54, 0
2, 67120, Note_on_c, 1, 56, 127
2, 67120, Note_on_c, 1, 62, 127
2, 67120, Note_off_c, 1, 64, 0
2, 67120, Note_off_c, 1, 66, 0
2, 67120, Note_on_c, 1, 68, 127
2, 67120, Note_off_c, 1, 70, 0
2, 67120, Note_off_c, 1, 73, 0
2, 67120, Note_on_c, 1, 80, 127
2, 67120, Note_on_c, 1, 88, 127
2, 67160, Note_on_c, 1, 40, 127
2, 67160, Note_off_c, 1, 56, 0
2, 67160, Note_off_c, 1, 62, 0
2, 67160, Note_off_c, 1, 68, 0
2, 67160, Note_off_c, 1, 80, 0
2, 67160, Note_on_c, 1, 85, 127
2, 67160, Note_on_c, 1, 93, 127
2, 67160, Note_on_c, 1, 97, 127
2, 67200, Note_off_c, 1, 40, 0
2, 67200, Note_on_c, 1, 59, 127
2, 67200, Note_on_c, 1, 65, 127
2, 67200, Note_on_c, 1, 68, 127
2, 67200, Note_on_c, 1, 75, 127
2, 67200, Note_on_c, 1, 77, 127
2, 67200, Note_on_c, 1, 80, 127
2, 67200, Note_off_c, 1, 85, 0
2, 67200, Note_off_c, 1, 88, 0
2, 67200, Note_off_c, 1, 93, 0
2, 67200, Note_off_c, 1, 97, 0
2, 67240, Note_off_c, 1, 59, 0
2, 67240, Note_off_c, 1, 65, 0
2, 67240, Note_off_c, 1, 68, 0
2, 67240, Note_off_c, 1, 75, 0
2, 67240, Note_on_c, 1, 76, 127
2, 67240, Note_off_c, 1, 77, 0
2, 67240, Note_off_c, 1, 80, 0
2, 67240, Note_on_c, 1, 83, 127
2, 67240, Note_on_c, 1, 88, 127
2, 67280, Note_on_c, 1, 64, 127
2, 67280, Note_on_c, 1, 67, 127
2, 67280, Note_on_c, 1, 71, 127
2, 67280, Note_on_c, 1, 79, 127
2, 67280, Note_off_c, 1, 88, 0
2, 67440, Note_off_c, 1, 64, 0
2, 67440, Note_off_c, 1, 67, 0
2, 67440, Note_off_c, 1, 71, 0
2, 67440, Note_off_c, 1, 79, 0
2, 67440, Note_on_c, 1, 86, 127
2, 67480, Note_on_c, 1, 57, 127
2, 67480, Note_on_c, 1, 60, 127
2, 67480, Note_on_c, 1, 64, 127
2, 67480, Note_on_c, 1, 69, 127
2, 67480, Note_on_c, 1, 72, 127
2, 67480, Note_on_c, 1, 81, 127
2, 67480, Note_off_c, 1, 83, 0
2, 67480, Note_on_c, 1, 84, 127
2, 67480, Note_off_c, 1, 86, 0
2, 67600, Note_off_c, 1, 57, 0
2, 67600, Note_off_c, 1, 60, 0
2, 67600, Note_off_c, 1, 64, 0
2, 67600, Note_off_c, 1, 69, 0
2, 67640, Note_on_c, 1, 57, 127
2, 67640, Note_on_c, 1, 60, 127
2, 67640, Note_on_c, 1, 64, 127
2, 67640, Note_on_c, 1, 69, 127
2, 67760, Note_off_c, 1, 57, 0
2, 67760, Note_off_c, 1, 60, 0
2, 67760, Note_off_c, 1, 64, 0
2, 67760, Note_off_c, 1, 69, 0
2, 67800, Note_on_c, 1, 37, 127
2, 67800, Note_on_c, 1, 44, 127
2, 67800, Note_off_c, 1, 72, 0
2, 67800, Note_off_c, 1, 76, 0
2, 67800, Note_off_c, 1, 81, 0
2, 67800, Note_off_c, 1, 84, 0
2, 67800, Note_on_c, 1, 87, 127
2, 67800, Note_on_c, 1, 90, 127
2, 67840, Note_off_c, 1, 37, 0
2, 67840, Note_off_c, 1, 44, 0
2, 67840, Note_on_c, 1, 71, 127
2, 67840, Note_on_c, 1, 76, 127
2, 67840, Note_on_c, 1, 80, 127
2, 67840, Note_off_c, 1, 87, 0
2, 67840, Note_on_c, 1, 88, 127
2, 67840, Note_off_c, 1, 90, 0
2, 67880, Note_on_c, 1, 46, 127
2, 67880, Note_on_c, 1, 53, 127
2, 67880, Note_on_c, 1, 62, 127
2, 67880, Note_on_c, 1, 65, 127
2, 67880, Note_off_c, 1, 71, 0
2, 67880, Note_off_c, 1, 76, 0
2, 67880, Note_off_c, 1, 80, 0
2, 67880, Note_on_c, 1, 82, 127
2, 67880, Note_off_c, 1, 88, 0
2, 67920, Note_off_c, 1, 46, 0
2, 67920, Note_off_c, 1, 53, 0
2, 67920, Note_on_c, 1, 58, 127
2, 67920, Note_off_c, 1, 62, 0
2, 67920, Note_on_c, 1, 63, 127
2, 67920, Note_off_c, 1, 65, 0
2, 67920, Note_on_c, 1, 81, 127
2, 67920, Note_off_c, 1, 82, 0
2, 67920, Note_on_c, 1, 84, 127
2, 67920, Note_on_c, 1, 90, 127
2, 67960, Note_on_c, 1, 46, 127
2, 67960, Note_on_c, 1, 53, 127
2, 67960, Note_off_c, 1, 58, 0
2, 67960, Note_on_c, 1, 62, 127
2, 67960, Note_off_c, 1, 63, 0
2, 67960, Note_on_c, 1, 65, 127
2, 67960, Note_off_c, 1, 81, 0
2, 67960, Note_on_c, 1, 82, 127
2, 67960, Note_off_c, 1, 84, 0
2, 67960, Note_off_c, 1, 90, 0
2, 68040, Note_off_c, 1, 46, 0
2, 68040, Note_off_c, 1, 53, 0
2, 68040, Note_off_c, 1, 62, 0
2, 68040, Note_off_c, 1, 65, 0
2, 68040, Note_off_c, 1, 82, 0
2, 68080, Note_on_c, 1, 64, 127
2, 68080, Note_on_c, 1, 68, 127
2, 68080, Note_on_c, 1, 93, 127
2, 68120, Note_on_c, 1, 38, 127
2, 68120, Note_on_c, 1, 45, 127
2, 68120, Note_on_c, 1, 59, 127
2, 68120, Note_off_c, 1, 64, 0
2, 68120, Note_on_c, 1, 67, 127
2, 68120, Note_off_c, 1, 68, 0
2, 68120, Note_on_c, 1, 71, 127
2, 68120, Note_off_c, 1, 93, 0
2, 68160, Note_off_c, 1, 38, 0
2, 68160, Note_off_c, 1, 45, 0
2, 68160, Note_off_c, 1, 59, 0
2, 68160, Note_off_c, 1, 67, 0
2, 68160, Note_on_c, 1, 70, 127
2, 68160, Note_off_c, 1, 71, 0
2, 68160, Note_on_c, 1, 100, 127
2, 68160, Note_on_c, 1, 103, 127
2, 68200, Note_off_c, 1, 70, 0
2, 68200, Note_on_c, 1, 71, 127
2, 68200, Note_on_c, 1, 86, 127
2, 68200, Note_off_c, 1, 103, 0
2, 68240, Note_on_c, 1, 62, 127
2, 68240, Note_on_c, 1, 65, 127
2, 68240, Note_on_c, 1, 69, 127
2, 68240, Note_off_c, 1, 71, 0
2, 68240, Note_on_c, 1, 82, 127
2, 68240, Note_off_c, 1, 86, 0
2, 68240, Note_off_c, 1, 100, 0
2, 68280, Note_on_c, 1, 38, 127
2, 68280, Note_on_c, 1, 42, 127
2, 68280, Note_on_c, 1, 44, 127
2, 68280, Note_on_c, 1, 47, 127
2, 68280, Note_on_c, 1, 53, 127
2, 68280, Note_on_c, 1, 56, 127
2, 68280, Note_on_c, 1, 59, 127
2, 68280, Note_off_c, 1, 62, 0
2, 68280, Note_on_c, 1, 68, 127
2, 68280, Note_off_c, 1, 69, 0
2, 68280, Note_off_c, 1, 82, 0
2, 68320, Note_off_c, 1, 38, 0
2, 68320, Note_off_c, 1, 42, 0
2, 68320, Note_off_c, 1, 44, 0
2, 68320, Note_off_c, 1, 47, 0
2, 68320, Note_off_c, 1, 53, 0
2, 68320, Note_on_c, 1, 55, 127
2, 68320, Note_off_c, 1, 56, 0
2, 68320, Note_off_c, 1, 59, 0
2, 68320, Note_off_c, 1, 65, 0
2, 68320, Note_off_c, 1, 68, 0
2, 68320, Note_on_c, 1, 77, 127
2, 68320, Note_on_c, 1, 81, 127
2, 68320, Note_on_c, 1, 84, 127
2, 68360, Note_off_c, 1, 55, 0
2, 68360, Note_off_c, 1, 77, 0
2, 68360, Note_off_c, 1, 81, 0
2, 68360, Note_off_c, 1, 84, 0
2, 68400, Note_on_c, 1, 45, 127
2, 68400, Note_on_c, 1, 53, 127
2, 68400, Note_on_c, 1, 64, 127
2, 68440, Note_on_c, 1, 38, 127
2, 68440, Note_on_c, 1, 42, 127
2, 68440, Note_on_c, 1, 44, 127
2, 68440, Note_off_c, 1, 45, 0
2, 68440, Note_on_c, 1, 47, 127
2, 68440, Note_on_c, 1, 56, 127
2, 68440, Note_on_c, 1, 59, 127
2, 68440, Note_off_c, 1, 64, 0
2, 68440, Note_on_c, 1, 65, 127
2, 68440, Note_on_c, 1, 68, 127
2, 68480, Note_off_c, 1, 38, 0
2, 68480, Note_off_c, 1, 47, 0
2, 68480, Note_on_c, 1, 51, 127
2, 68480, Note_off_c, 1, 53, 0
2, 68480, Note_off_c, 1, 56, 0
2, 68480, Note_off_c, 1, 59, 0
2, 68480, Note_off_c, 1, 65, 0
2, 68480, Note_off_c, 1, 68, 0
2, 68520, Note_off_c, 1, 42, 0
2, 68520, Note_off_c, 1, 44, 0
2, 68520, Note_off_c, 1, 51, 0
2, 68520, Note_on_c, 1, 58, 127
2, 68520, Note_on_c, 1, 63, 127
2, 68520, Note_on_c, 1, 83, 127
2, 68520, Note_on_c, 1, 85, 127
2, 68880, Note_off_c, 1, 58, 0
2, 68880, Note_on_c, 1, 60, 127
2, 68880, Note_off_c, 1, 63, 0
2, 68880, Note_on_c, 1, 70, 127
2, 68880, Note_off_c, 1, 83, 0
2, 68880, Note_off_c, 1, 85, 0
2, 68920, Note_on_c, 1, 35, 127
2, 68920, Note_on_c, 1, 44, 127
2, 68920, Note_off_c, 1, 60, 0
2, 68920, Note_off_c, 1, 70, 0
2, 68920, Note_on_c, 1, 80, 127
2, 68960, Note_off_c, 1, 35, 0
2, 68960, Note_off_c, 1, 44, 0
2, 68960, Note_on_c, 1, 70, 127
2, 68960, Note_on_c, 1, 73, 127
2, 68960, Note_on_c, 1, 79, 127
2, 68960, Note_off_c, 1, 80, 0
2, 68960, Note_on_c, 1, 91, 127
2, 69000, Note_on_c, 1, 35, 127
2, 69000, Note_on_c, 1, 44, 127
2, 69000, Note_off_c, 1, 70, 0
2, 69000, Note_off_c, 1, 73, 0
2, 69000, Note_off_c, 1, 79, 0
2, 69000, Note_on_c, 1, 80, 127
2, 69000, Note_off_c, 1, 91, 0
2, 69040, Note_off_c, 1, 35, 0
2, 69040, Note_on_c, 1, 38, 127
2, 69040, Note_off_c, 1, 44, 0
2, 69040, Note_on_c, 1, 47, 127
2, 69040, Note_on_c, 1, 50, 127
2, 69040, Note_on_c, 1, 62, 127
2, 69040, Note_on_c, 1, 71, 127
2, 69040, Note_off_c, 1, 80, 0
2, 69080, Note_off_c, 1, 38, 0
2, 69080, Note_off_c, 1, 47, 0
2, 69080, Note_on_c, 1, 48, 127
2, 69080, Note_off_c, 1, 50, 0
2, 69080, Note_on_c, 1, 52, 127
2, 69080, Note_on_c, 1, 58, 127
2, 69080, Note_off_c, 1, 62, 0
2, 69080, Note_on_c, 1, 68, 127
2, 69080, Note_off_c, 1, 71, 0
2, 69120, Note_on_c, 1, 39, 127
2, 69120, Note_on_c, 1, 46, 127
2, 69120, Note_off_c, 1, 48, 0
2, 69120, Note_off_c, 1, 52, 0
2, 69120, Note_off_c, 1, 58, 0
2, 69120, Note_on_c, 1, 67, 127
2, 69120, Note_off_c, 1, 68, 0
2, 69120, Note_on_c, 1, 70, 127
2, 69120, Note_on_c, 1, 75, 127
2, 69160, Note_on_c, 1, 43, 127
2, 69160, Note_off_c, 1, 46, 0
2, 69160, Note_off_c, 1, 67, 0
2, 69160, Note_off_c, 1, 70, 0
2, 69200, Note_on_c, 1, 33, 127
2, 69200, Note_off_c, 1, 39, 0
2, 69200, Note_on_c, 1, 42, 127
2, 69200, Note_off_c, 1, 43, 0
2, 69200, Note_off_c, 1, 75, 0
2, 69200, Note_on_c, 1, 81, 127
2, 69240, Note_off_c, 1, 33, 0
2, 69240, Note_off_c, 1, 42, 0
2, 69240, Note_on_c, 1, 45, 127
2, 69240, Note_on_c, 1, 54, 127
2, 69240, Note_on_c, 1, 57, 127
2, 69240, Note_on_c, 1, 66, 127
2, 69240, Note_off_c, 1, 81, 0
2, 69280, Note_off_c, 1, 45, 0
2, 69280, Note_on_c, 1, 49, 127
2, 69280, Note_off_c, 1, 57, 0
2, 69280, Note_on_c, 1, 59, 127
2, 69280, Note_on_c, 1, 61, 127
2, 69280, Note_on_c, 1, 65, 127
2, 69280, Note_off_c, 1, 66, 0
2, 69280, Note_on_c, 1, 68, 127
2, 69320, Note_off_c, 1, 49, 0
2, 69320, Note_off_c, 1, 54, 0
2, 69320, Note_on_c, 1, 58, 127
2, 69320, Note_off_c, 1, 59, 0
2, 69320, Note_off_c, 1, 61, 0
2, 69320, Note_on_c, 1, 64, 127
2, 69320, Note_off_c, 1, 65, 0
2, 69320, Note_on_c, 1, 66, 127
2, 69320, Note_off_c, 1, 68, 0
2, 69320, Note_on_c, 1, 70, 127
2, 69320, Note_on_c, 1, 75, 127
2, 69320, Note_on_c, 1, 78, 127
2, 69680, Note_off_c, 1, 58, 0
2, 69680, Note_off_c, 1, 64, 0
2, 69680, Note_off_c, 1, 66, 0
2, 69680, Note_on_c, 1, 67, 127
2, 69680, Note_off_c, 1, 70, 0
2, 69680, Note_on_c, 1, 71, 127
2, 69680, Note_off_c, 1, 75, 0
2, 69680, Note_on_c, 1, 76, 127
2, 69720, Note_on_c, 1, 45, 127
2, 69720, Note_on_c, 1, 54, 127
2, 69720, Note_off_c, 1, 67, 0
2, 69720, Note_on_c, 1, 68, 127
2, 69720, Note_off_c, 1, 71, 0
2, 69720, Note_off_c, 1, 76, 0
2, 69720, Note_off_c, 1, 78, 0
2, 69720, Note_on_c, 1, 80, 127
2, 69760, Note_off_c, 1, 45, 0
2, 69760, Note_off_c, 1, 54, 0
2, 69760, Note_on_c, 1, 67, 127
2, 69760, Note_off_c, 1, 68, 0
2, 69760, Note_off_c, 1, 80, 0
2, 69760, Note_on_c, 1, 88, 127
2, 69760, Note_on_c, 1, 95, 127
2, 69800, Note_on_c, 1, 53, 127
2, 69800, Note_on_c, 1, 56, 127
2, 69800, Note_on_c, 1, 65, 127
2, 69800, Note_off_c, 1, 67, 0
2, 69800, Note_on_c, 1, 77, 127
2, 69800, Note_on_c, 1, 83, 127
2, 69800, Note_off_c, 1, 88, 0
2, 69800, Note_off_c, 1, 95, 0
2, 69840, Note_on_c, 1, 50, 127
2, 69840, Note_on_c, 1, 52, 127
2, 69840, Note_off_c, 1, 53, 0
2, 69840, Note_off_c, 1, 65, 0
2, 69840, Note_on_c, 1, 76, 127
2, 69840, Note_off_c, 1, 77, 0
2, 69840, Note_off_c, 1, 83, 0
2, 69880, Note_on_c, 1, 45, 127
2, 69880, Note_off_c, 1, 50, 0
2, 69880, Note_off_c, 1, 52, 0
2, 69880, Note_off_c, 1, 56, 0
2, 69880, Note_on_c, 1, 60, 127
2, 69880, Note_on_c, 1, 62, 127
2, 69880, Note_off_c, 1, 76, 0
2, 69920, Note_off_c, 1, 45, 0
2, 69920, Note_off_c, 1, 60, 0
2, 69920, Note_on_c, 1, 66, 127
2, 69920, Note_on_c, 1, 69, 127
2, 69920, Note_on_c, 1, 74, 127
2, 69920, Note_on_c, 1, 81, 127
2, 69960, Note_on_c, 1, 60, 127
2, 69960, Note_off_c, 1, 69, 0
2, 69960, Note_off_c, 1, 74, 0
2, 69960, Note_off_c, 1, 81, 0
2, 69960, Note_on_c, 1, 84, 127
2, 70000, Note_off_c, 1, 60, 0
2, 70000, Note_off_c, 1, 62, 0
2, 70000, Note_on_c, 1, 63, 127
2, 70000, Note_on_c, 1, 65, 127
2, 70000, Note_off_c, 1, 66, 0
2, 70000, Note_off_c, 1, 84, 0
2, 70000, Note_on_c, 1, 86, 127
2, 70040, Note_on_c, 1, 50, 127
2, 70040, Note_on_c, 1, 57, 127
2, 70040, Note_on_c, 1, 60, 127
2, 70040, Note_off_c, 1, 63, 0
2, 70040, Note_on_c, 1, 64, 127
2, 70040, Note_off_c, 1, 65, 0
2, 70040, Note_on_c, 1, 67, 127
2, 70040, Note_on_c, 1, 69, 127
2, 70040, Note_off_c, 1, 86, 0
2, 70080, Note_off_c, 1, 50, 0
2, 70080, Note_off_c, 1, 57, 0
2, 70080, Note_off_c, 1, 60, 0
2, 70080, Note_off_c, 1, 64, 0
2, 70080, Note_off_c, 1, 67, 0
2, 70080, Note_off_c, 1, 69, 0
2, 70080, Note_on_c, 1, 81, 127
2, 70120, Note_on_c, 1, 50, 127
2, 70120, Note_on_c, 1, 57, 127
2, 70120, Note_on_c, 1, 62, 127
2, 70120, Note_on_c, 1, 66, 127
2, 70120, Note_on_c, 1, 74, 127
2, 70120, Note_off_c, 1, 81, 0
2, 70200, Note_off_c, 1, 50, 0
2, 70200, Note_off_c, 1, 57, 0
2, 70200, Note_off_c, 1, 62, 0
2, 70200, Note_off_c, 1, 66, 0
2, 70200, Note_off_c, 1, 74, 0
2, 70560, Note_on_c, 1, 38, 127
2, 70560, Note_on_c, 1, 45, 127
2, 70560, Note_on_c, 1, 62, 127
2, 70920, Note_off_c, 1, 62, 0
2, 70960, Note_on_c, 1, 57, 127
2, 71120, Note_off_c, 1, 57, 0
2, 71160, Note_on_c, 1, 62, 127
2, 71320, Note_off_c, 1, 38, 0
2, 71320, Note_off_c, 1, 45, 0
2, 71320, Note_off_c, 1, 62, 0
2, 71360, Note_on_c, 1, 50, 127
2, 71360, Note_on_c, 1, 57, 127
2, 71360, Note_on_c, 1, 66, 127
2, 71360, Note_on_c, 1, 74, 127
2, 71720, Note_off_c, 1, 57, 0
2, 71720, Note_off_c, 1, 66, 0
2, 71760, Note_on_c, 1, 59, 127
2, 71760, Note_on_c, 1, 67, 127
2, 72000, Note_off_c, 1, 59, 0
2, 72000, Note_off_c, 1, 74, 0
2, 72040, Note_on_c, 1, 38, 127
2, 72040, Note_off_c, 1, 67, 0
2, 72040, Note_on_c, 1, 71, 127
2, 72040, Note_on_c, 1, 79, 127
2, 72080, Note_off_c, 1, 38, 0
2, 72080, Note_off_c, 1, 50, 0
2, 72080, Note_on_c, 1, 62, 127
2, 72080, Note_on_c, 1, 67, 127
2, 72080, Note_off_c, 1, 71, 0
2, 72080, Note_on_c, 1, 77, 127
2, 72080, Note_off_c, 1, 79, 0
2, 72080, Note_on_c, 1, 83, 127
2, 72120, Note_on_c, 1, 50, 127
2, 72120, Note_off_c, 1, 62, 0
2, 72120, Note_off_c, 1, 67, 0
2, 72120, Note_off_c, 1, 77, 0
2, 72120, Note_off_c, 1, 83, 0
2, 72160, Note_on_c, 1, 59, 127
2, 72160, Note_on_c, 1, 67, 127
2, 72160, Note_on_c, 1, 78, 127
2, 72200, Note_on_c, 1, 74, 127
2, 72200, Note_off_c, 1, 78, 0
2, 72520, Note_off_c, 1, 74, 0
2, 72560, Note_on_c, 1, 79, 127
2, 72600, Note_off_c, 1, 50, 0
2, 72600, Note_off_c, 1, 59, 0
2, 72600, Note_off_c, 1, 67, 0
2, 72600, Note_off_c, 1, 79, 0
2, 72640, Note_on_c, 1, 50, 127
2, 72640, Note_on_c, 1, 59, 127
2, 72640, Note_on_c, 1, 67, 127
2, 72640, Note_on_c, 1, 79, 127
2, 72960, Note_off_c, 1, 50, 0
2, 72960, Note_off_c, 1, 59, 0
2, 72960, Note_off_c, 1, 67, 0
2, 72960, Note_off_c, 1, 79, 0
2, 73000, Note_on_c, 1, 50, 127
2, 73000, Note_on_c, 1, 60, 127
2, 73000, Note_on_c, 1, 71, 127
2, 73000, Note_on_c, 1, 78, 127
2, 73160, Note_off_c, 1, 71, 0
2, 73200, Note_on_c, 1, 69, 127
2, 73360, Note_off_c, 1, 69, 0
2, 73400, Note_on_c, 1, 69, 127
2, 73560, Note_off_c, 1, 69, 0
2, 73600, Note_off_c, 1, 50, 0
2, 73600, Note_off_c, 1, 60, 0
2, 73600, Note_on_c, 1, 64, 127
2, 73600, Note_on_c, 1, 77, 127
2, 73600, Note_off_c, 1, 78, 0
2, 73600, Note_on_c, 1, 82, 127
2, 73600, Note_on_c, 1, 89, 127
2, 73760, Note_on_c, 1, 59, 127
2, 73760, Note_off_c, 1, 64, 0
2, 73760, Note_off_c, 1, 77, 0
2, 73760, Note_off_c, 1, 82, 0
2, 73760, Note_off_c, 1, 89, 0
2, 73800, Note_off_c, 1, 59, 0
2, 73800, Note_on_c, 1, 64, 127
2, 73800, Note_on_c, 1, 77, 127
2, 73800, Note_on_c, 1, 82, 127
2, 73800, Note_on_c, 1, 89, 127
2, 74560, Note_on_c, 1, 45, 127
2, 74560, Note_on_c, 1, 49, 127
2, 74560, Note_on_c, 1, 52, 127
2, 74560, Note_on_c, 1, 57, 127
2, 74560, Note_off_c, 1, 64, 0
2, 74560, Note_on_c, 1, 74, 127
2, 74560, Note_off_c, 1, 77, 0
2, 74560, Note_off_c, 1, 82, 0
2, 74560, Note_off_c, 1, 89, 0
2, 74600, Note_on_c, 1, 43, 127
2, 74600, Note_off_c, 1, 45, 0
2, 74600, Note_off_c, 1, 49, 0
2, 74600, Note_on_c, 1, 50, 127
2, 74600, Note_off_c, 1, 52, 0
2, 74600, Note_on_c, 1, 55, 127
2, 74600, Note_off_c, 1, 57, 0
2, 74600, Note_on_c, 1, 59, 127
2, 74600, Note_off_c, 1, 74, 0
2, 74600, Note_on_c, 1, 95, 127
2, 74640, Note_off_c, 1, 43, 0
2, 74640, Note_off_c, 1, 50, 0
2, 74640, Note_off_c, 1, 55, 0
2, 74640, Note_off_c, 1, 59, 0
2, 74640, Note_off_c, 1, 95, 0
2, 74680, Note_on_c, 1, 54, 127
2, 74680, Note_on_c, 1, 65, 127
2, 74680, Note_on_c, 1, 70, 127
2, 74680, Note_on_c, 1, 74, 127
2, 74680, Note_on_c, 1, 77, 127
2, 74720, Note_off_c, 1, 54, 0
2, 74720, Note_on_c, 1, 55, 127
2, 74720, Note_on_c, 1, 58, 127
2, 74720, Note_on_c, 1, 62, 127
2, 74720, Note_off_c, 1, 65, 0
2, 74720, Note_on_c, 1, 67, 127
2, 74720, Note_off_c, 1, 74, 0
2, 74720, Note_off_c, 1, 77, 0
2, 74760, Note_off_c, 1, 55, 0
2, 74760, Note_off_c, 1, 58, 0
2, 74760, Note_off_c, 1, 67, 0
2, 74760, Note_on_c, 1, 69, 127
2, 74760, Note_off_c, 1, 70, 0
2, 74760, Note_on_c, 1, 72, 127
2, 74760, Note_on_c, 1, 83, 127
2, 74800, Note_off_c, 1, 62, 0
2, 74800, Note_on_c, 1, 64, 127
2, 74800, Note_off_c, 1, 69, 0
2, 74800, Note_off_c, 1, 72, 0
2, 74800, Note_off_c, 1, 83, 0
2, 74800, Note_on_c, 1, 86, 127
2, 74800, Note_on_c, 1, 87, 127
2, 74800, Note_on_c, 1, 89, 127
2, 74800, Note_on_c, 1, 90, 127
2, 74840, Note_on_c, 1, 50, 127
2, 74840, Note_on_c, 1, 57, 127
2, 74840, Note_off_c, 1, 64, 0
2, 74840, Note_on_c, 1, 66, 127
2, 74840, Note_off_c, 1, 86, 0
2, 74840, Note_off_c, 1, 87, 0
2, 74840, Note_off_c, 1, 89, 0
2, 74840, Note_off_c, 1, 90, 0
2, 74880, Note_on_c, 1, 44, 127
2, 74880, Note_off_c, 1, 50, 0
2, 74880, Note_off_c, 1, 57, 0
2, 74880, Note_on_c, 1, 60, 127
2, 74880, Note_on_c, 1, 63, 127
2, 74880, Note_on_c, 1, 68, 127
2, 74880, Note_on_c, 1, 72, 127
2, 75040, Note_off_c, 1, 44, 0
2, 75040, Note_off_c, 1, 60, 0
2, 75040, Note_off_c, 1, 63, 0
2, 75040, Note_off_c, 1, 66, 0
2, 75040, Note_on_c, 1, 67, 127
2, 75040, Note_off_c, 1, 68, 0
2, 75040, Note_on_c, 1, 76, 127
2, 75040, Note_on_c, 1, 79, 127
2, 75080, Note_on_c, 1, 55, 127
2, 75080, Note_on_c, 1, 62, 127
2, 75080, Note_off_c, 1, 67, 0
2, 75080, Note_on_c, 1, 71, 127
2, 75080, Note_off_c, 1, 72, 0
2, 75080, Note_off_c, 1, 76, 0
2, 75440, Note_off_c, 1, 55, 0
2, 75440, Note_off_c, 1, 62, 0
2, 75440, Note_off_c, 1, 71, 0
2, 75440, Note_off_c, 1, 79, 0
2, 75480, Note_on_c, 1, 43, 127
2, 75480, Note_on_c, 1, 50, 127
2, 75480, Note_on_c, 1, 52, 127
2, 75480, Note_on_c, 1, 55, 127
2, 75480, Note_on_c, 1, 77, 127
2, 75520, Note_off_c, 1, 43, 0
2, 75520, Note_on_c, 1, 47, 127
2, 75520, Note_off_c, 1, 50, 0
2, 75520, Note_off_c, 1, 52, 0
2, 75520, Note_off_c, 1, 55, 0
2, 75520, Note_on_c, 1, 63, 127
2, 75520, Note_on_c, 1, 72, 127
2, 75520, Note_off_c, 1, 77, 0
2, 75560, Note_on_c, 1, 37, 127
2, 75560, Note_off_c, 1, 47, 0
2, 75560, Note_on_c, 1, 49, 127
2, 75560, Note_off_c, 1, 63, 0
2, 75560, Note_off_c, 1, 72, 0
2, 75560, Note_on_c, 1, 92, 127
2, 75560, Note_on_c, 1, 93, 127
2, 75600, Note_off_c, 1, 37, 0
2, 75600, Note_on_c, 1, 47, 127
2, 75600, Note_off_c, 1, 49, 0
2, 75600, Note_on_c, 1, 51, 127
2, 75600, Note_on_c, 1, 55, 127
2, 75600, Note_off_c, 1, 92, 0
2, 75600, Note_off_c, 1, 93, 0
2, 75640, Note_on_c, 1, 43, 127
2, 75640, Note_off_c, 1, 47, 0
2, 75640, Note_on_c, 1, 50, 127
2, 75640, Note_off_c, 1, 51, 0
2, 75640, Note_off_c, 1, 55, 0
2, 75640, Note_on_c, 1, 71, 127
2, 75640, Note_on_c, 1, 77, 127
2, 75640, Note_on_c, 1, 81, 127
2, 75680, Note_off_c, 1, 43, 0
2, 75680, Note_on_c, 1, 47, 127
2, 75680, Note_off_c, 1, 50, 0
2, 75680, Note_on_c, 1, 55, 127
2, 75680, Note_on_c, 1, 59, 127
2, 75680, Note_on_c, 1, 61, 127
2, 75680, Note_on_c, 1, 63, 127
2, 75680, Note_off_c, 1, 71, 0
2, 75680, Note_off_c, 1, 77, 0
2, 75680, Note_off_c, 1, 81, 0
2, 75840, Note_off_c, 1, 59, 0
2, 75840, Note_off_c, 1, 61, 0
2, 75840, Note_off_c, 1, 63, 0
2, 75840, Note_on_c, 1, 74, 127
2, 75880, Note_on_c, 1, 45, 127
2, 75880, Note_off_c, 1, 47, 0
2, 75880, Note_off_c, 1, 55, 0
2, 75880, Note_on_c, 1, 73, 127
2, 75880, Note_off_c, 1, 74, 0
2, 75880, Note_on_c, 1, 79, 127
2, 76200, Note_off_c, 1, 73, 0
2, 76240, Note_on_c, 1, 38, 127
2, 76240, Note_off_c, 1, 45, 0
2, 76240, Note_on_c, 1, 78, 127
2, 76240, Note_off_c, 1, 79, 0
2, 76280, Note_off_c, 1, 38, 0
2, 76280, Note_on_c, 1, 46, 127
2, 76280, Note_on_c, 1, 58, 127
2, 76280, Note_on_c, 1, 73, 127
2, 76640, Note_on_c, 1, 44, 127
2, 76640, Note_off_c, 1, 46, 0
2, 76640, Note_on_c, 1, 49, 127
2, 76640, Note_off_c, 1, 58, 0
2, 76640, Note_on_c, 1, 59, 127
2, 76640, Note_on_c, 1, 71, 127
2, 76640, Note_off_c, 1, 73, 0
2, 76640, Note_off_c, 1, 78, 0
2, 76680, Note_off_c, 1, 44, 0
2, 76680, Note_off_c, 1, 49, 0
2, 76680, Note_off_c, 1, 59, 0
2, 76680, Note_off_c, 1, 71, 0
2, 76720, Note_on_c, 1, 44, 127
2, 76720, Note_on_c, 1, 50, 127
2, 76720, Note_on_c, 1, 68, 127
2, 76720, Note_on_c, 1, 72, 127
2, 76760, Note_on_c, 1, 42, 127
2, 76760, Note_off_c, 1, 44, 0
2, 76760, Note_off_c, 1, 50, 0
2, 76760, Note_on_c, 1, 65, 127
2, 76760, Note_off_c, 1, 72, 0
2, 76760, Note_on_c, 1, 73, 127
2, 76800, Note_on_c, 1, 37, 127
2, 76800, Note_on_c, 1, 49, 127
2, 76800, Note_on_c, 1, 64, 127
2, 76800, Note_off_c, 1, 65, 0
2, 76800, Note_off_c, 1, 68, 0
2, 76800, Note_off_c, 1, 73, 0
2, 76840, Note_off_c, 1, 37, 0
2, 76840, Note_off_c, 1, 42, 0
2, 76840, Note_off_c, 1, 49, 0
2, 76840, Note_off_c, 1, 64, 0
2, 76840, Note_on_c, 1, 75, 127
2, 76840, Note_on_c, 1, 79, 127
2, 76840, Note_on_c, 1, 88, 127
2, 76880, Note_on_c, 1, 48, 127
2, 76880, Note_on_c, 1, 58, 127
2, 76880, Note_on_c, 1, 64, 127
2, 76880, Note_on_c, 1, 70, 127
2, 76880, Note_off_c, 1, 75, 0
2, 76880, Note_off_c, 1, 79, 0
2, 76880, Note_off_c, 1, 88, 0
2, 76920, Note_on_c, 1, 25, 127
2, 76920, Note_on_c, 1, 37, 127
2, 76920, Note_off_c, 1, 48, 0
2, 76920, Note_on_c, 1, 52, 127
2, 76920, Note_off_c, 1, 64, 0
2, 76920, Note_off_c, 1, 70, 0
2, 76960, Note_off_c, 1, 25, 0
2, 76960, Note_off_c, 1, 37, 0
2, 76960, Note_on_c, 1, 41, 127
2, 76960, Note_on_c, 1, 48, 127
2, 76960, Note_off_c, 1, 52, 0
2, 76960, Note_on_c, 1, 72, 127
2, 77000, Note_off_c, 1, 41, 0
2, 77000, Note_off_c, 1, 48, 0
2, 77000, Note_on_c, 1, 55, 127
2, 77000, Note_on_c, 1, 64, 127
2, 77040, Note_on_c, 1, 38, 127
2, 77040, Note_on_c, 1, 50, 127
2, 77040, Note_off_c, 1, 55, 0
2, 77040, Note_off_c, 1, 58, 0
2, 77040, Note_off_c, 1, 64, 0
2, 77040, Note_off_c, 1, 72, 0
2, 77040, Note_on_c, 1, 73, 127
2, 77040, Note_on_c, 1, 79, 127
2, 77040, Note_on_c, 1, 81, 127
2, 77080, Note_off_c, 1, 38, 0
2, 77080, Note_on_c, 1, 47, 127
2, 77080, Note_off_c, 1, 50, 0
2, 77080, Note_on_c, 1, 55, 127
2, 77080, Note_off_c, 1, 73, 0
2, 77080, Note_off_c, 1, 81, 0
2, 77120, Note_off_c, 1, 47, 0
2, 77120, Note_off_c, 1, 55, 0
2, 77120, Note_on_c, 1, 66, 127
2, 77120, Note_on_c, 1, 67, 127
2, 77120, Note_off_c, 1, 79, 0
2, 77120, Note_on_c, 1, 85, 127
2, 77120, Note_on_c, 1, 90, 127
2, 77160, Note_on_c, 1, 57, 127
2, 77160, Note_on_c, 1, 59, 127
2, 77160, Note_off_c, 1, 66, 0
2, 77160, Note_off_c, 1, 67, 0
2, 77160, Note_on_c, 1, 78, 127
2, 77160, Note_off_c, 1, 85, 0
2, 77160, Note_off_c, 1, 90, 0
2, 77200, Note_on_c, 1, 26, 127
2, 77200, Note_on_c, 1, 38, 127
2, 77200, Note_off_c, 1, 59, 0
2, 77200, Note_on_c, 1, 62, 127
2, 77200, Note_off_c, 1, 78, 0
2, 77240, Note_off_c, 1, 26, 0
2, 77240, Note_off_c, 1, 38, 0
2, 77240, Note_on_c, 1, 44, 127
2, 77240, Note_on_c, 1, 51, 127
2, 77240, Note_on_c, 1, 54, 127
2, 77240, Note_on_c, 1, 56, 127
2, 77240, Note_off_c, 1, 57, 0
2, 77240, Note_on_c, 1, 60, 127
2, 77240, Note_off_c, 1, 62, 0
2, 77240, Note_on_c, 1, 63, 127
2, 77240, Note_on_c, 1, 68, 127
2, 77280, Note_on_c, 1, 38, 127
2, 77280, Note_off_c, 1, 44, 0
2, 77280, Note_on_c, 1, 45, 127
2, 77280, Note_off_c, 1, 51, 0
2, 77280, Note_off_c, 1, 54, 0
2, 77280, Note_off_c, 1, 56, 0
2, 77280, Note_on_c, 1, 59, 127
2, 77280, Note_off_c, 1, 60, 0
2, 77280, Note_on_c, 1, 62, 127
2, 77280, Note_off_c, 1, 63, 0
2, 77280, Note_off_c, 1, 68, 0
2, 77280, Note_on_c, 1, 69, 127
2, 77320, Note_off_c, 1, 38, 0
2, 77320, Note_off_c, 1, 45, 0
2, 77320, Note_off_c, 1, 59, 0
2, 77320, Note_on_c, 1, 61, 127
2, 77320, Note_off_c, 1, 62, 0
2, 77320, Note_off_c, 1, 69, 0
2, 77320, Note_on_c, 1, 74, 127
2, 77320, Note_on_c, 1, 79, 127
2, 77320, Note_on_c, 1, 86, 127
2, 77480, Note_on_c, 1, 43, 127
2, 77480, Note_on_c, 1, 55, 127
2, 77480, Note_off_c, 1, 61, 0
2, 77480, Note_off_c, 1, 79, 0
2, 77480, Note_off_c, 1, 86, 0
2, 77520, Note_off_c, 1, 43, 0
2, 77520, Note_on_c, 1, 47, 127
2, 77520, Note_off_c, 1, 55, 0
2, 77520, Note_on_c, 1, 56, 127
2, 77520, Note_on_c, 1, 65, 127
2, 77520, Note_off_c, 1, 74, 0
2, 77520, Note_on_c, 1, 77, 127
2, 77880, Note_off_c, 1, 47, 0
2, 77880, Note_off_c, 1, 56, 0
2, 77880, Note_off_c, 1, 65, 0
2, 77880, Note_off_c, 1, 77, 0
2, 77920, Note_on_c, 1, 52, 127
2, 77920, Note_on_c, 1, 59, 127
2, 77920, Note_on_c, 1, 67, 127
2, 77920, Note_on_c, 1, 76, 127
2, 78680, Note_off_c, 1, 76, 0
2, 78720, Note_on_c, 1, 51, 127
2, 78720, Note_off_c, 1, 52, 0
2, 78720, Note_off_c, 1, 67, 0
2, 78720, Note_on_c, 1, 69, 127
2, 78720, Note_on_c, 1, 78, 127
2, 78880, Note_off_c, 1, 51, 0
2, 78880, Note_off_c, 1, 59, 0
2, 78880, Note_off_c, 1, 69, 0
2, 78880, Note_off_c, 1, 78, 0
2, 78920, Note_on_c, 1, 51, 127
2, 78920, Note_on_c, 1, 59, 127
2, 78920, Note_on_c, 1, 69, 127
2, 78920, Note_on_c, 1, 78, 127
2, 79560, Note_off_c, 1, 69, 0
2, 79560, Note_off_c, 1, 78, 0
2, 79600, Note_on_c, 1, 66, 127
2, 79600, Note_on_c, 1, 69, 127
2, 79960, Note_off_c, 1, 51, 0
2, 79960, Note_off_c, 1, 59, 0
2, 79960, Note_off_c, 1, 66, 0
2, 79960, Note_off_c, 1, 69, 0
2, 80000, Note_on_c, 1, 49, 127
2, 80000, Note_on_c, 1, 51, 127
2, 80000, Note_on_c, 1, 58, 127
2, 80000, Note_on_c, 1, 63, 127
2, 80400, Note_on_c, 1, 36, 127
2, 80400, Note_on_c, 1, 48, 127
2, 80400, Note_off_c, 1, 49, 0
2, 80400, Note_off_c, 1, 51, 0
2, 80400, Note_on_c, 1, 57, 127
2, 80400, Note_off_c, 1, 58, 0
2, 80400, Note_off_c, 1, 63, 0
2, 80400, Note_on_c, 1, 64, 127
2, 80520, Note_off_c, 1, 36, 0
2, 80520, Note_off_c, 1, 48, 0
2, 80760, Note_off_c, 1, 57, 0
2, 80760, Note_off_c, 1, 64, 0
2, 80800, Note_on_c, 1, 48, 127
2, 80800, Note_on_c, 1, 66, 127
2, 81000, Note_off_c, 1, 48, 0
2, 81000, Note_off_c, 1, 66, 0
2, 81040, Note_on_c, 1, 48, 127
2, 81040, Note_on_c, 1, 66, 127
2, 81240, Note_on_c, 1, 57, 127
2, 81600, Note_off_c, 1, 57, 0
2, 81600, Note_off_c, 1, 66, 0
2, 81640, Note_on_c, 1, 45, 127
2, 81640, Note_off_c, 1, 48, 0
2, 81640, Note_on_c, 1, 54, 127
2, 81640, Note_on_c, 1, 63, 127
2, 81640, Note_on_c, 1, 72, 127
2, 82000, Note_on_c, 1, 40, 127
2, 82000, Note_off_c, 1, 45, 0
2, 82000, Note_off_c, 1, 54, 0
2, 82000, Note_off_c, 1, 63, 0
2, 82000, Note_off_c, 1, 72, 0
2, 82040, Note_off_c, 1, 40, 0
2, 82040, Note_on_c, 1, 52, 127
2, 82040, Note_on_c, 1, 55, 127
2, 82040, Note_on_c, 1, 61, 127
2, 82040, Note_on_c, 1, 69, 127
2, 82800, Note_on_c, 1, 50, 127
2, 82800, Note_off_c, 1, 52, 0
2, 82800, Note_on_c, 1, 54, 127
2, 82800, Note_off_c, 1, 55, 0
2, 82800, Note_on_c, 1, 60, 127
2, 82800, Note_off_c, 1, 61, 0
2, 82800, Note_on_c, 1, 62, 127
2, 82800, Note_off_c, 1, 69, 0
2, 82840, Note_on_c, 1, 38, 127
2, 82840, Note_off_c, 1, 50, 0
2, 82840, Note_on_c, 1, 57, 127
2, 82840, Note_off_c, 1, 60, 0
2, 82840, Note_on_c, 1, 69, 127
2, 83160, Note_off_c, 1, 38, 0
2, 83160, Note_off_c, 1, 54, 0
2, 83160, Note_off_c, 1, 57, 0
2, 83160, Note_off_c, 1, 62, 0
2, 83160, Note_off_c, 1, 69, 0
2, 83200, Note_on_c, 1, 38, 127
2, 83200, Note_on_c, 1, 54, 127
2, 83200, Note_on_c, 1, 57, 127
2, 83200, Note_on_c, 1, 62, 127
2, 83200, Note_on_c, 1, 69, 127
2, 83240, Note_off_c, 1, 38, 0
2, 83240, Note_on_c, 1, 47, 127
2, 83240, Note_off_c, 1, 57, 0
2, 83240, Note_on_c, 1, 59, 127
2, 83240, Note_off_c, 1, 62, 0
2, 83240, Note_off_c, 1, 69, 0
2, 83240, Note_on_c, 1, 73, 127
2, 83280, Note_on_c, 1, 38, 127
2, 83280, Note_off_c, 1, 47, 0
2, 83280, Note_on_c, 1, 50, 127
2, 83280, Note_off_c, 1, 54, 0
2, 83280, Note_off_c, 1, 59, 0
2, 83280, Note_on_c, 1, 60, 127
2, 83280, Note_off_c, 1, 73, 0
2, 83280, Note_on_c, 1, 76, 127
2, 83400, Note_off_c, 1, 38, 0
2, 83400, Note_on_c, 1, 45, 127
2, 83400, Note_off_c, 1, 50, 0
2, 83400, Note_on_c, 1, 52, 127
2, 83400, Note_off_c, 1, 60, 0
2, 83400, Note_on_c, 1, 62, 127
2, 83400, Note_on_c, 1, 64, 127
2, 83400, Note_off_c, 1, 76, 0
2, 83440, Note_on_c, 1, 42, 127
2, 83440, Note_off_c, 1, 45, 0
2, 83440, Note_on_c, 1, 54, 127
2, 83440, Note_off_c, 1, 62, 0
2, 83440, Note_off_c, 1, 64, 0
2, 83440, Note_on_c, 1, 78, 127
2, 83480, Note_off_c, 1, 42, 0
2, 83480, Note_off_c, 1, 52, 0
2, 83480, Note_off_c, 1, 54, 0
2, 83480, Note_on_c, 1, 66, 127
2, 83480, Note_on_c, 1, 76, 127
2, 83480, Note_off_c, 1, 78, 0
2, 83560, Note_on_c, 1, 47, 127
2, 83560, Note_off_c, 1, 66, 0
2, 83560, Note_on_c, 1, 68, 127
2, 83560, Note_on_c, 1, 75, 127
2, 83560, Note_off_c, 1, 76, 0
2, 83640, Note_off_c, 1, 47, 0
2, 83640, Note_on_c, 1, 49, 127
2, 83640, Note_off_c, 1, 68, 0
2, 83640, Note_off_c, 1, 75, 0
2, 83680, Note_off_c, 1, 49, 0
2, 83680, Note_on_c, 1, 50, 127
2, 83680, Note_on_c, 1, 56, 127
2, 83680, Note_on_c, 1, 59, 127
2, 83680, Note_on_c, 1, 64, 127
2, 83680, Note_on_c, 1, 68, 127
2, 83840, Note_off_c, 1, 68, 0
2, 83880, Note_on_c, 1, 68, 127
2, 84040, Note_off_c, 1, 68, 0
2, 84080, Note_on_c, 1, 71, 127
2, 84440, Note_off_c, 1, 50, 0
2, 84440, Note_off_c, 1, 56, 0
2, 84440, Note_off_c, 1, 59, 0
2, 84440, Note_off_c, 1, 64, 0
2, 84440, Note_off_c, 1, 71, 0
2, 84480, Note_on_c, 1, 30, 127
2, 84480, Note_on_c, 1, 42, 127
2, 84480, Note_on_c, 1, 72, 127
2, 84480, Note_on_c, 1, 81, 127
2, 84480, Note_on_c, 1, 86, 127
2, 84480, Note_on_c, 1, 90, 127
2, 84480, Note_on_c, 1, 93, 127
2, 84640, Note_off_c, 1, 81, 0
2, 84640, Note_off_c, 1, 86, 0
2, 84640, Note_off_c, 1, 90, 0
2, 84640, Note_off_c, 1, 93, 0
2, 84680, Note_off_c, 1, 30, 0
2, 84680, Note_off_c, 1, 42, 0
2, 84680, Note_on_c, 1, 48, 127
2, 84680, Note_on_c, 1, 50, 127
2, 84680, Note_on_c, 1, 65, 127
2, 84680, Note_on_c, 1, 71, 127
2, 84680, Note_off_c, 1, 72, 0
2, 84840, Note_off_c, 1, 48, 0
2, 84840, Note_off_c, 1, 50, 0
2, 84840, Note_on_c, 1, 54, 127
2, 84840, Note_on_c, 1, 60, 127
2, 84840, Note_off_c, 1, 65, 0
2, 84840, Note_off_c, 1, 71, 0
2, 84840, Note_on_c, 1, 82, 127
2, 84840, Note_on_c, 1, 87, 127
2, 84840, Note_on_c, 1, 94, 127
2, 84880, Note_on_c, 1, 45, 127
2, 84880, Note_off_c, 1, 54, 0
2, 84880, Note_on_c, 1, 64, 127
2, 84880, Note_on_c, 1, 67, 127
2, 84880, Note_off_c, 1, 82, 0
2, 84880, Note_off_c, 1, 87, 0
2, 84880, Note_off_c, 1, 94, 0
2, 84920, Note_off_c, 1, 45, 0
2, 84920, Note_on_c, 1, 48, 127
2, 84920, Note_on_c, 1, 57, 127
2, 84920, Note_off_c, 1, 60, 0
2, 84920, Note_off_c, 1, 64, 0
2, 84960, Note_off_c, 1, 48, 0
2, 84960, Note_on_c, 1, 49, 127
2, 84960, Note_off_c, 1, 57, 0
2, 84960, Note_on_c, 1, 61, 127
2, 84960, Note_on_c, 1, 69, 127
2, 85000, Note_on_c, 1, 48, 127
2, 85000, Note_off_c, 1, 49, 0
2, 85000, Note_on_c, 1, 51, 127
2, 85000, Note_on_c, 1, 58, 127
2, 85000, Note_off_c, 1, 61, 0
2, 85000, Note_on_c, 1, 63, 127
2, 85000, Note_off_c, 1, 67, 0
2, 85000, Note_off_c, 1, 69, 0
2, 85000, Note_on_c, 1, 70, 127
2, 85040, Note_on_c, 1, 38, 127
2, 85040, Note_off_c, 1, 48, 0
2, 85040, Note_off_c, 1, 51, 0
2, 85040, Note_on_c, 1, 54, 127
2, 85040, Note_on_c, 1, 57, 127
2, 85040, Note_off_c, 1, 58, 0
2, 85040, Note_on_c, 1, 60, 127
2, 85040, Note_off_c, 1, 63, 0
2, 85040, Note_off_c, 1, 70, 0
2, 85080, Note_off_c, 1, 38, 0
2, 85080, Note_on_c, 1, 46, 127
2, 85080, Note_on_c, 1, 50, 127
2, 85080, Note_off_c, 1, 54, 0
2, 85080, Note_on_c, 1, 55, 127
2, 85080, Note_off_c, 1, 57, 0
2, 85080, Note_off_c, 1, 60, 0
2, 85080, Note_on_c, 1, 82, 127
2, 85120, Note_off_c, 1, 46, 0
2, 85120, Note_off_c, 1, 50, 0
2, 85120, Note_off_c, 1, 55, 0
2, 85120, Note_on_c, 1, 60, 127
2, 85120, Note_on_c, 1, 64, 127
2, 85120, Note_on_c, 1, 70, 127
2, 85120, Note_on_c, 1, 74, 127
2, 85120, Note_off_c, 1, 82, 0
2, 85160, Note_off_c, 1, 60, 0
2, 85160, Note_off_c, 1, 64, 0
2, 85160, Note_off_c, 1, 70, 0
2, 85160, Note_off_c, 1, 74, 0
2, 85200, Note_on_c, 1, 55, 127
2, 85200, Note_on_c, 1, 65, 127
2, 85200, Note_on_c, 1, 67, 127
2, 85200, Note_on_c, 1, 71, 127
2, 85200, Note_on_c, 1, 74, 127
2, 85200, Note_on_c, 1, 79, 127
2, 85240, Note_on_c, 1, 46, 127
2, 85240, Note_on_c, 1, 50, 127
2, 85240, Note_off_c, 1, 65, 0
2, 85240, Note_off_c, 1, 67, 0
2, 85240, Note_off_c, 1, 71, 0
2, 85240, Note_off_c, 1, 74, 0
2, 85240, Note_off_c, 1, 79, 0
2, 85240, Note_on_c, 1, 82, 127
2, 85280, Note_on_c, 1, 43, 127
2, 85280, Note_off_c, 1, 46, 0
2, 85280, Note_off_c, 1, 55, 0
2, 85280, Note_on_c, 1, 74, 127
2, 85280, Note_off_c, 1, 82, 0
2, 85320, Note_on_c, 1, 35, 127
2, 85320, Note_on_c, 1, 42, 127
2, 85320, Note_off_c, 1, 43, 0
2, 85320, Note_off_c, 1, 50, 0
2, 85320, Note_on_c, 1, 77, 127
2, 85320, Note_on_c, 1, 78, 127
2, 85320, Note_on_c, 1, 83, 127
2, 85360, Note_off_c, 1, 35, 0
2, 85360, Note_off_c, 1, 42, 0
2, 85360, Note_on_c, 1, 50, 127
2, 85360, Note_on_c, 1, 55, 127
2, 85360, Note_on_c, 1, 62, 127
2, 85360, Note_on_c, 1, 64, 127
2, 85360, Note_on_c, 1, 67, 127
2, 85360, Note_on_c, 1, 71, 127
2, 85360, Note_off_c, 1, 74, 0
2, 85360, Note_off_c, 1, 77, 0
2, 85360, Note_off_c, 1, 78, 0
2, 85360, Note_off_c, 1, 83, 0
2, 85400, Note_off_c, 1, 55, 0
2, 85400, Note_on_c, 1, 59, 127
2, 85400, Note_off_c, 1, 62, 0
2, 85400, Note_off_c, 1, 64, 0
2, 85400, Note_off_c, 1, 67, 0
2, 85400, Note_on_c, 1, 68, 127
2, 85400, Note_off_c, 1, 71, 0
2, 85400, Note_on_c, 1, 76, 127
2, 85440, Note_off_c, 1, 50, 0
2, 85440, Note_on_c, 1, 52, 127
2, 85440, Note_off_c, 1, 59, 0
2, 85440, Note_on_c, 1, 62, 127
2, 85440, Note_on_c, 1, 64, 127
2, 85440, Note_on_c, 1, 67, 127
2, 85440, Note_off_c, 1, 68, 0
2, 85440, Note_on_c, 1, 71, 127
2, 85440, Note_on_c, 1, 74, 127
2, 85440, Note_off_c, 1, 76, 0
2, 85480, Note_off_c, 1, 52, 0
2, 85480, Note_on_c, 1, 60, 127
2, 85480, Note_off_c, 1, 62, 0
2, 85480, Note_off_c, 1, 64, 0
2, 85480, Note_off_c, 1, 71, 0
2, 85480, Note_on_c, 1, 73, 127
2, 85480, Note_off_c, 1, 74, 0
2, 85480, Note_on_c, 1, 75, 127
2, 85520, Note_on_c, 1, 40, 127
2, 85520, Note_on_c, 1, 49, 127
2, 85520, Note_on_c, 1, 52, 127
2, 85520, Note_off_c, 1, 60, 0
2, 85520, Note_off_c, 1, 67, 0
2, 85520, Note_off_c, 1, 73, 0
2, 85520, Note_off_c, 1, 75, 0
2, 85520, Note_on_c, 1, 85, 127
2, 85520, Note_on_c, 1, 91, 127
2, 85520, Note_on_c, 1, 94, 127
2, 85560, Note_off_c, 1, 40, 0
2, 85560, Note_off_c, 1, 49, 0
2, 85560, Note_off_c, 1, 52, 0
2, 85560, Note_on_c, 1, 66, 127
2, 85560, Note_on_c, 1, 71, 127
2, 85560, Note_on_c, 1, 74, 127
2, 85560, Note_on_c, 1, 80, 127
2, 85560, Note_off_c, 1, 85, 0
2, 85560, Note_off_c, 1, 91, 0
2, 85560, Note_on_c, 1, 92, 127
2, 85560, Note_off_c, 1, 94, 0
2, 85560, Note_on_c, 1, 95, 127
2, 85560, Note_on_c, 1, 98, 127
2, 85560, Note_on_c, 1, 101, 127
2, 85600, Note_on_c, 1, 36, 127
2, 85600, Note_on_c, 1, 48, 127
2, 85600, Note_on_c, 1, 64, 127
2, 85600, Note_off_c, 1, 66, 0
2, 85600, Note_on_c, 1, 67, 127
2, 85600, Note_on_c, 1, 70, 127
2, 85600, Note_off_c, 1, 71, 0
2, 85600, Note_off_c, 1, 74, 0
2, 85600, Note_on_c, 1, 76, 127
2, 85600, Note_off_c, 1, 80, 0
2, 85600, Note_off_c, 1, 92, 0
2, 85600, Note_off_c, 1, 95, 0
2, 85600, Note_off_c, 1, 98, 0
2, 85600, Note_off_c, 1, 101, 0
2, 85640, Note_off_c, 1, 36, 0
2, 85640, Note_on_c, 1, 40, 127
2, 85640, Note_off_c, 1, 48, 0
2, 85640, Note_on_c, 1, 49, 127
2, 85640, Note_on_c, 1, 52, 127
2, 85640, Note_off_c, 1, 64, 0
2, 85640, Note_off_c, 1, 67, 0
2, 85640, Note_off_c, 1, 70, 0
2, 85640, Note_off_c, 1, 76, 0
2, 85640, Note_on_c, 1, 85, 127
2, 85640, Note_on_c, 1, 91, 127
2, 85640, Note_on_c, 1, 94, 127
2, 85680, Note_off_c, 1, 40, 0
2, 85680, Note_on_c, 1, 45, 127
2, 85680, Note_on_c, 1, 48, 127
2, 85680, Note_off_c, 1, 49, 0
2, 85680, Note_off_c, 1, 52, 0
2, 85680, Note_on_c, 1, 57, 127
2, 85680, Note_off_c, 1, 85, 0
2, 85680, Note_off_c, 1, 91, 0
2, 85680, Note_off_c, 1, 94, 0
2, 85720, Note_on_c, 1, 41, 127
2, 85720, Note_off_c, 1, 45, 0
2, 85720, Note_on_c, 1, 53, 127
2, 85720, Note_off_c, 1, 57, 0
2, 85720, Note_on_c, 1, 81, 127
2, 85720, Note_on_c, 1, 93, 127
2, 85760, Note_off_c, 1, 81, 0
2, 85920, Note_on_c, 1, 84, 127
2, 85920, Note_on_c, 1, 89, 127
2, 86080, Note_on_c, 1, 38, 127
2, 86080, Note_off_c, 1, 41, 0
2, 86080, Note_off_c, 1, 48, 0
2, 86080, Note_off_c, 1, 53, 0
2, 86080, Note_off_c, 1, 84, 0
2, 86080, Note_off_c, 1, 89, 0
2, 86080, Note_off_c, 1, 93, 0
2, 86120, Note_off_c, 1, 38, 0
2, 86120, Note_on_c, 1, 43, 127
2, 86120, Note_on_c, 1, 62, 127
2, 86120, Note_on_c, 1, 64, 127
2, 86480, Note_off_c, 1, 43, 0
2, 86480, Note_off_c, 1, 62, 0
2, 86480, Note_off_c, 1, 64, 0
2, 86520, Note_on_c, 1, 33, 127
2, 86520, Note_on_c, 1, 37, 127
2, 86520, Note_on_c, 1, 40, 127
2, 86520, Note_on_c, 1, 45, 127
2, 86520, Note_on_c, 1, 57, 127
2, 86520, Note_on_c, 1, 61, 127
2, 86520, Note_on_c, 1, 64, 127
2, 86520, Note_on_c, 1, 69, 127
2, 87360, Note_off_c, 1, 33, 0
2, 87360, Note_off_c, 1, 37, 0
2, 87360, Note_off_c, 1, 40, 0
2, 87360, Note_off_c, 1, 45, 0
2, 87360, Note_off_c, 1, 57, 0
2, 87360, Note_off_c, 1, 61, 0
2, 87360, Note_off_c, 1, 64, 0
2, 87360, Note_off_c, 1, 69, 0
2, 87400, Note_on_c, 1, 48, 127
2, 87400, Note_on_c, 1, 55, 127
2, 87400, Note_on_c, 1, 58, 127
2, 87400, Note_on_c, 1, 64, 127
2, 87400, Note_on_c, 1, 72, 127
2, 87400, Note_on_c, 1, 76, 127
2, 87440, Note_off_c, 1, 55, 0
2, 87440, Note_on_c, 1, 57, 127
2, 87440, Note_off_c, 1, 58, 0
2, 87440, Note_on_c, 1, 60, 127
2, 87440, Note_on_c, 1, 62, 127
2, 87440, Note_off_c, 1, 64, 0
2, 87440, Note_on_c, 1, 65, 127
2, 87440, Note_off_c, 1, 72, 0
2, 87440, Note_off_c, 1, 76, 0
2, 87480, Note_on_c, 1, 55, 127
2, 87480, Note_off_c, 1, 57, 0
2, 87480, Note_on_c, 1, 58, 127
2, 87480, Note_off_c, 1, 62, 0
2, 87480, Note_off_c, 1, 65, 0
2, 87480, Note_on_c, 1, 72, 127
2, 87480, Note_on_c, 1, 74, 127
2, 87520, Note_on_c, 1, 36, 127
2, 87520, Note_on_c, 1, 43, 127
2, 87520, Note_off_c, 1, 48, 0
2, 87520, Note_off_c, 1, 55, 0
2, 87520, Note_off_c, 1, 58, 0
2, 87520, Note_off_c, 1, 60, 0
2, 87520, Note_off_c, 1, 72, 0
2, 87520, Note_off_c, 1, 74, 0
2, 87560, Note_off_c, 1, 36, 0
2, 87560, Note_on_c, 1, 38, 127
2, 87560, Note_off_c, 1, 43, 0
2, 87560, Note_on_c, 1, 44, 127
2, 87560, Note_on_c, 1, 48, 127
2, 87560, Note_on_c, 1, 60, 127
2, 87560, Note_on_c, 1, 66, 127
2, 87560, Note_on_c, 1, 68, 127
2, 87600, Note_off_c, 1, 38, 0
2, 87600, Note_on_c, 1, 43, 127
2, 87600, Note_off_c, 1, 44, 0
2, 87600, Note_off_c, 1, 48, 0
2, 87600, Note_on_c, 1, 50, 127
2, 87600, Note_on_c, 1, 53, 127
2, 87600, Note_off_c, 1, 60, 0
2, 87600, Note_off_c, 1, 66, 0
2, 87600, Note_off_c, 1, 68, 0
2, 87600, Note_on_c, 1, 83, 127
2, 87640, Note_on_c, 1, 36, 127
2, 87640, Note_on_c, 1, 48, 127
2, 87640, Note_off_c, 1, 50, 0
2, 87640, Note_off_c, 1, 53, 0
2, 87640, Note_off_c, 1, 83, 0
2, 87680, Note_off_c, 1, 36, 0
2, 87680, Note_off_c, 1, 43, 0
2, 87680, Note_on_c, 1, 51, 127
2, 87680, Note_on_c, 1, 54, 127
2, 87680, Note_on_c, 1, 57, 127
2, 87680, Note_on_c, 1, 69, 127
2, 87720, Note_off_c, 1, 48, 0
2, 87720, Note_off_c, 1, 51, 0
2, 87720, Note_off_c, 1, 54, 0
2, 87720, Note_off_c, 1, 57, 0
2, 87720, Note_on_c, 1, 64, 127
2, 87720, Note_on_c, 1, 67, 127
2, 87720, Note_on_c, 1, 74, 127
2, 87760, Note_off_c, 1, 64, 0
2, 87760, Note_on_c, 1, 66, 127
2, 87760, Note_off_c, 1, 67, 0
2, 87760, Note_off_c, 1, 69, 0
2, 87760, Note_on_c, 1, 73, 127
2, 87760, Note_off_c, 1, 74, 0
2, 87760, Note_on_c, 1, 76, 127
2, 87760, Note_on_c, 1, 78, 127
2, 87760, Note_on_c, 1, 82, 127
2, 87760, Note_on_c, 1, 90, 127
2, 87800, Note_on_c, 1, 56, 127
2, 87800, Note_on_c, 1, 59, 127
2, 87800, Note_on_c, 1, 62, 127
2, 87800, Note_on_c, 1, 64, 127
2, 87800, Note_off_c, 1, 66, 0
2, 87800, Note_on_c, 1, 71, 127
2, 87800, Note_off_c, 1, 73, 0
2, 87800, Note_on_c, 1, 74, 127
2, 87800, Note_off_c, 1, 76, 0
2, 87800, Note_off_c, 1, 78, 0
2, 87800, Note_off_c, 1, 82, 0
2, 87800, Note_off_c, 1, 90, 0
2, 87840, Note_on_c, 1, 61, 127
2, 87840, Note_off_c, 1, 62, 0
2, 87840, Note_off_c, 1, 64, 0
2, 87840, Note_on_c, 1, 65, 127
2, 87840, Note_off_c, 1, 71, 0
2, 87840, Note_off_c, 1, 74, 0
2, 87840, Note_on_c, 1, 86, 127
2, 87880, Note_on_c, 1, 50, 127
2, 87880, Note_on_c, 1, 52, 127
2, 87880, Note_on_c, 1, 55, 127
2, 87880, Note_off_c, 1, 56, 0
2, 87880, Note_on_c, 1, 57, 127
2, 87880, Note_off_c, 1, 59, 0
2, 87880, Note_off_c, 1, 61, 0
2, 87880, Note_off_c, 1, 65, 0
2, 87880, Note_on_c, 1, 85, 127
2, 87880, Note_off_c, 1, 86, 0
2, 87920, Note_on_c, 1, 48, 127
2, 87920, Note_off_c, 1, 50, 0
2, 87920, Note_off_c, 1, 52, 0
2, 87920, Note_off_c, 1, 55, 0
2, 87920, Note_off_c, 1, 57, 0
2, 87920, Note_on_c, 1, 58, 127
2, 87920, Note_on_c, 1, 72, 127
2, 87920, Note_on_c, 1, 74, 127
2, 87920, Note_off_c, 1, 85, 0
2, 87960, Note_off_c, 1, 48, 0
2, 87960, Note_on_c, 1, 55, 127
2, 87960, Note_off_c, 1, 58, 0
2, 87960, Note_off_c, 1, 74, 0
2, 87960, Note_on_c, 1, 76, 127
2, 87960, Note_on_c, 1, 79, 127
2, 87960, Note_on_c, 1, 82, 127
2, 88000, Note_off_c, 1, 55, 0
2, 88000, Note_on_c, 1, 64, 127
2, 88040, Note_on_c, 1, 55, 127
2, 88040, Note_off_c, 1, 64, 0
2, 88120, Note_off_c, 1, 55, 0
2, 88120, Note_on_c, 1, 67, 127
2, 88120, Note_off_c, 1, 72, 0
2, 88120, Note_off_c, 1, 76, 0
2, 88120, Note_off_c, 1, 79, 0
2, 88120, Note_off_c, 1, 82, 0
2, 88160, Note_on_c, 1, 33, 127
2, 88160, Note_on_c, 1, 52, 127
2, 88160, Note_on_c, 1, 57, 127
2, 88160, Note_on_c, 1, 60, 127
2, 88160, Note_off_c, 1, 67, 0
2, 88520, Note_off_c, 1, 33, 0
2, 88520, Note_off_c, 1, 52, 0
2, 88520, Note_off_c, 1, 57, 0
2, 88520, Note_off_c, 1, 60, 0
2, 88520, Note_on_c, 1, 65, 127
2, 88520, Note_on_c, 1, 69, 127
2, 88520, Note_on_c, 1, 72, 127
2, 88560, Note_on_c, 1, 36, 127
2, 88560, Note_on_c, 1, 48, 127
2, 88560, Note_on_c, 1, 55, 127
2, 88560, Note_on_c, 1, 60, 127
2, 88560, Note_on_c, 1, 64, 127
2, 88560, Note_off_c, 1, 65, 0
2, 88560, Note_off_c, 1, 69, 0
2, 88560, Note_off_c, 1, 72, 0
2, 88920, Note_off_c, 1, 55, 0
2, 88920, Note_off_c, 1, 60, 0
2, 88960, Note_off_c, 1, 48, 0
2, 88960, Note_on_c, 1, 52, 127
2, 88960, Note_on_c, 1, 62, 127
2, 88960, Note_off_c, 1, 64, 0
2, 89320, Note_off_c, 1, 62, 0
2, 89360, Note_on_c, 1, 60, 127
2, 89560, Note_off_c, 1, 36, 0
2, 89560, Note_off_c, 1, 52, 0
2, 89560, Note_off_c, 1, 60, 0
2, 89600, Note_on_c, 1, 36, 127
2, 89600, Note_on_c, 1, 52, 127
2, 89600, Note_on_c, 1, 60, 127
2, 89720, Note_off_c, 1, 60, 0
2, 89760, Note_off_c, 1, 36, 0
2, 89760, Note_off_c, 1, 52, 0
2, 89800, Note_on_c, 1, 58, 127
2, 89800, Note_on_c, 1, 65, 127
2, 89800, Note_on_c, 1, 81, 127
2, 89800, Note_on_c, 1, 84, 127
2, 89800, Note_on_c, 1, 89, 127
2, 89840, Note_on_c, 1, 46, 127
2, 89840, Note_on_c, 1, 49, 127
2, 89840, Note_on_c, 1, 56, 127
2, 89840, Note_off_c, 1, 58, 0
2, 89840, Note_on_c, 1, 61, 127
2, 89840, Note_on_c, 1, 64, 127
2, 89840, Note_off_c, 1, 65, 0
2, 89840, Note_off_c, 1, 81, 0
2, 89840, Note_off_c, 1, 84, 0
2, 89840, Note_off_c, 1, 89, 0
2, 89880, Note_off_c, 1, 46, 0
2, 89880, Note_off_c, 1, 49, 0
2, 89880, Note_off_c, 1, 56, 0
2, 89880, Note_on_c, 1, 58, 127
2, 89880, Note_off_c, 1, 61, 0
2, 89880, Note_off_c, 1, 64, 0
2, 89880, Note_on_c, 1, 65, 127
2, 89880, Note_on_c, 1, 81, 127
2, 89880, Note_on_c, 1, 84, 127
2, 89880, Note_on_c, 1, 89, 127
2, 89920, Note_on_c, 1, 63, 127
2, 89920, Note_off_c, 1, 65, 0
2, 89920, Note_off_c, 1, 89, 0
2, 89920, Note_on_c, 1, 90, 127
2, 89960, Note_on_c, 1, 56, 127
2, 89960, Note_off_c, 1, 58, 0
2, 89960, Note_off_c, 1, 63, 0
2, 89960, Note_off_c, 1, 81, 0
2, 89960, Note_off_c, 1, 84, 0
2, 89960, Note_on_c, 1, 85, 127
2, 89960, Note_off_c, 1, 90, 0
2, 89960, Note_on_c, 1, 92, 127
2, 89960, Note_on_c, 1, 95, 127
2, 89960, Note_on_c, 1, 97, 127
2, 90000, Note_off_c, 1, 56, 0
2, 90000, Note_on_c, 1, 57, 127
2, 90000, Note_on_c, 1, 59, 127
2, 90000, Note_on_c, 1, 66, 127
2, 90000, Note_on_c, 1, 79, 127
2, 90000, Note_off_c, 1, 85, 0
2, 90000, Note_off_c, 1, 92, 0
2, 90000, Note_off_c, 1, 95, 0
2, 90000, Note_off_c, 1, 97, 0
2, 90040, Note_on_c, 1, 53, 127
2, 90040, Note_on_c, 1, 55, 127
2, 90040, Note_off_c, 1, 57, 0
2, 90040, Note_on_c, 1, 58, 127
2, 90040, Note_off_c, 1, 59, 0
2, 90040, Note_off_c, 1, 66, 0
2, 90080, Note_on_c, 1, 46, 127
2, 90080, Note_on_c, 1, 48, 127
2, 90080, Note_on_c, 1, 52, 127
2, 90080, Note_off_c, 1, 53, 0
2, 90080, Note_off_c, 1, 55, 0
2, 90080, Note_off_c, 1, 58, 0
2, 90080, Note_on_c, 1, 60, 127
2, 90080, Note_on_c, 1, 64, 127
2, 90080, Note_on_c, 1, 72, 127
2, 90080, Note_off_c, 1, 79, 0
2, 90120, Note_on_c, 1, 36, 127
2, 90120, Note_off_c, 1, 46, 0
2, 90120, Note_off_c, 1, 48, 0
2, 90120, Note_off_c, 1, 52, 0
2, 90120, Note_off_c, 1, 64, 0
2, 90120, Note_on_c, 1, 67, 127
2, 90120, Note_on_c, 1, 68, 127
2, 90160, Note_on_c, 1, 27, 127
2, 90160, Note_off_c, 1, 36, 0
2, 90160, Note_on_c, 1, 39, 127
2, 90160, Note_off_c, 1, 60, 0
2, 90160, Note_off_c, 1, 67, 0
2, 90160, Note_off_c, 1, 68, 0
2, 90160, Note_off_c, 1, 72, 0
2, 90160, Note_on_c, 1, 87, 127
2, 90160, Note_on_c, 1, 91, 127
2, 90160, Note_on_c, 1, 94, 127
2, 90160, Note_on_c, 1, 99, 127
2, 90200, Note_off_c, 1, 27, 0
2, 90200, Note_off_c, 1, 39, 0
2, 90200, Note_on_c, 1, 61, 127
2, 90200, Note_on_c, 1, 71, 127
2, 90200, Note_on_c, 1, 76, 127
2, 90200, Note_on_c, 1, 83, 127
2, 90200, Note_off_c, 1, 87, 0
2, 90200, Note_off_c, 1, 91, 0
2, 90200, Note_off_c, 1, 94, 0
2, 90200, Note_off_c, 1, 99, 0
2, 90240, Note_on_c, 1, 47, 127
2, 90240, Note_off_c, 1, 61, 0
2, 90240, Note_off_c, 1, 71, 0
2, 90240, Note_off_c, 1, 76, 0
2, 90240, Note_off_c, 1, 83, 0
2, 90240, Note_on_c, 1, 96, 127
2, 90280, Note_off_c, 1, 47, 0
2, 90280, Note_on_c, 1, 60, 127
2, 90280, Note_on_c, 1, 63, 127
2, 90280, Note_on_c, 1, 66, 127
2, 90280, Note_on_c, 1, 74, 127
2, 90280, Note_on_c, 1, 78, 127
2, 90280, Note_off_c, 1, 96, 0
2, 90320, Note_off_c, 1, 60, 0
2, 90320, Note_off_c, 1, 63, 0
2, 90320, Note_on_c, 1, 64, 127
2, 90320, Note_off_c, 1, 66, 0
2, 90320, Note_off_c, 1, 74, 0
2, 90320, Note_off_c, 1, 78, 0
2, 90320, Note_on_c, 1, 81, 127
2, 90320, Note_on_c, 1, 85, 127
2, 90320, Note_on_c, 1, 88, 127
2, 90360, Note_off_c, 1, 64, 0
2, 90360, Note_on_c, 1, 78, 127
2, 90360, Note_off_c, 1, 81, 0
2, 90360, Note_on_c, 1, 83, 127
2, 90360, Note_off_c, 1, 85, 0
2, 90360, Note_off_c, 1, 88, 0
2, 90360, Note_on_c, 1, 90, 127
2, 90400, Note_on_c, 1, 68, 127
2, 90400, Note_on_c, 1, 72, 127
2, 90400, Note_off_c, 1, 83, 0
2, 90400, Note_on_c, 1, 101, 127
2, 90480, Note_off_c, 1, 101, 0
2, 90520, Note_on_c, 1, 101, 127
2, 90560, Note_on_c, 1, 50, 127
2, 90560, Note_off_c, 1, 68, 0
2, 90560, Note_off_c, 1, 72, 0
2, 90560, Note_off_c, 1, 78, 0
2, 90560, Note_on_c, 1, 81, 127
2, 90560, Note_off_c, 1, 90, 0
2, 90560, Note_off_c, 1, 101, 0
2, 90600, Note_off_c, 1, 50, 0
2, 90600, Note_on_c, 1, 71, 127
2, 90600, Note_on_c, 1, 79, 127
2, 90600, Note_off_c, 1, 81, 0
2, 90600, Note_on_c, 1, 86, 127
2, 90600, Note_on_c, 1, 91, 127
2, 90960, Note_off_c, 1, 71, 0
2, 90960, Note_off_c, 1, 79, 0
2, 90960, Note_off_c, 1, 86, 0
2, 90960, Note_off_c, 1, 91, 0
2, 91000, Note_on_c, 1, 51, 127
2, 91000, Note_on_c, 1, 82, 127
2, 91000, Note_on_c, 1, 85, 127
2, 91000, Note_on_c, 1, 91, 127
2, 91040, Note_on_c, 1, 31, 127
2, 91040, Note_on_c, 1, 36, 127
2, 91040, Note_on_c, 1, 40, 127
2, 91040, Note_on_c, 1, 43, 127
2, 91040, Note_off_c, 1, 51, 0
2, 91040, Note_on_c, 1, 79, 127
2, 91040, Note_off_c, 1, 82, 0
2, 91040, Note_on_c, 1, 84, 127
2, 91040, Note_off_c, 1, 85, 0
2, 91040, Note_on_c, 1, 88, 127
2, 91080, Note_off_c, 1, 31, 0
2, 91080, Note_off_c, 1, 36, 0
2, 91080, Note_off_c, 1, 40, 0
2, 91080, Note_off_c, 1, 43, 0
2, 91080, Note_on_c, 1, 62, 127
2, 91080, Note_on_c, 1, 67, 127
2, 91080, Note_on_c, 1, 70, 127
2, 91080, Note_off_c, 1, 79, 0
2, 91080, Note_off_c, 1, 84, 0
2, 91080, Note_off_c, 1, 88, 0
2, 91120, Note_on_c, 1, 39, 127
2, 91120, Note_on_c, 1, 41, 127
2, 91120, Note_on_c, 1, 44, 127
2, 91120, Note_on_c, 1, 51, 127
2, 91120, Note_off_c, 1, 62, 0
2, 91120, Note_on_c, 1, 63, 127
2, 91120, Note_off_c, 1, 67, 0
2, 91120, Note_off_c, 1, 70, 0
2, 91120, Note_on_c, 1, 75, 127
2, 91120, Note_off_c, 1, 91, 0
2, 91160, Note_off_c, 1, 39, 0
2, 91160, Note_off_c, 1, 41, 0
2, 91160, Note_off_c, 1, 44, 0
2, 91160, Note_off_c, 1, 51, 0
2, 91160, Note_on_c, 1, 52, 127
2, 91160, Note_on_c, 1, 55, 127
2, 91160, Note_off_c, 1, 63, 0
2, 91160, Note_on_c, 1, 67, 127
2, 91160, Note_on_c, 1, 69, 127
2, 91160, Note_off_c, 1, 75, 0
2, 91160, Note_on_c, 1, 76, 127
2, 91160, Note_on_c, 1, 79, 127
2, 91200, Note_on_c, 1, 48, 127
2, 91200, Note_off_c, 1, 52, 0
2, 91200, Note_off_c, 1, 55, 0
2, 91200, Note_on_c, 1, 60, 127
2, 91200, Note_off_c, 1, 67, 0
2, 91200, Note_off_c, 1, 69, 0
2, 91200, Note_on_c, 1, 70, 127
2, 91200, Note_on_c, 1, 72, 127
2, 91200, Note_off_c, 1, 76, 0
2, 91200, Note_off_c, 1, 79, 0
2, 91240, Note_on_c, 1, 37, 127
2, 91240, Note_off_c, 1, 48, 0
2, 91240, Note_on_c, 1, 51, 127
2, 91240, Note_on_c, 1, 58, 127
2, 91240, Note_off_c, 1, 60, 0
2, 91240, Note_on_c, 1, 66, 127
2, 91240, Note_off_c, 1, 70, 0
2, 91240, Note_off_c, 1, 72, 0
2, 91280, Note_off_c, 1, 37, 0
2, 91280, Note_on_c, 1, 48, 127
2, 91280, Note_off_c, 1, 51, 0
2, 91280, Note_off_c, 1, 58, 0
2, 91280, Note_on_c, 1, 60, 127
2, 91280, Note_off_c, 1, 66, 0
2, 91280, Note_on_c, 1, 70, 127
2, 91280, Note_on_c, 1, 72, 127
2, 91360, Note_off_c, 1, 48, 0
2, 91360, Note_off_c, 1, 70, 0
2, 91360, Note_off_c, 1, 72, 0
2, 91400, Note_on_c, 1, 48, 127
2, 91400, Note_off_c, 1, 60, 0
2, 91400, Note_on_c, 1, 91, 127
2, 91400, Note_on_c, 1, 96, 127
2, 91400, Note_on_c, 1, 100, 127
2, 91440, Note_on_c, 1, 44, 127
2, 91440, Note_off_c, 1, 48, 0
2, 91440, Note_on_c, 1, 60, 127
2, 91440, Note_on_c, 1, 68, 127
2, 91440, Note_off_c, 1, 91, 0
2, 91440, Note_on_c, 1, 92, 127
2, 91440, Note_off_c, 1, 96, 0
2, 91440, Note_off_c, 1, 100, 0
2, 91480, Note_off_c, 1, 44, 0
2, 91480, Note_off_c, 1, 60, 0
2, 91480, Note_off_c, 1, 68, 0
2, 91480, Note_off_c, 1, 92, 0
2, 91520, Note_on_c, 1, 52, 127
2, 91520, Note_on_c, 1, 55, 127
2, 91520, Note_on_c, 1, 68, 127
2, 91520, Note_on_c, 1, 80, 127
2, 91560, Note_off_c, 1, 52, 0
2, 91560, Note_off_c, 1, 55, 0
2, 91560, Note_off_c, 1, 68, 0
2, 91560, Note_on_c, 1, 71, 127
2, 91560, Note_on_c, 1, 76, 127
2, 91560, Note_off_c, 1, 80, 0
2, 91560, Note_on_c, 1, 83, 127
2, 91560, Note_on_c, 1, 88, 127
2, 91600, Note_on_c, 1, 60, 127
2, 91600, Note_on_c, 1, 69, 127
2, 91600, Note_off_c, 1, 71, 0
2, 91600, Note_off_c, 1, 76, 0
2, 91600, Note_off_c, 1, 83, 0
2, 91600, Note_off_c, 1, 88, 0
2, 91600, Note_on_c, 1, 93, 127
2, 91640, Note_on_c, 1, 49, 127
2, 91640, Note_on_c, 1, 53, 127
2, 91640, Note_on_c, 1, 56, 127
2, 91640, Note_off_c, 1, 60, 0
2, 91640, Note_on_c, 1, 61, 127
2, 91640, Note_on_c, 1, 68, 127
2, 91640, Note_off_c, 1, 69, 0
2, 91640, Note_on_c, 1, 73, 127
2, 91640, Note_off_c, 1, 93, 0
2, 91680, Note_off_c, 1, 49, 0
2, 91680, Note_off_c, 1, 53, 0
2, 91680, Note_off_c, 1, 56, 0
2, 91680, Note_off_c, 1, 61, 0
2, 91680, Note_off_c, 1, 68, 0
2, 91680, Note_on_c, 1, 72, 127
2, 91680, Note_off_c, 1, 73, 0
2, 91680, Note_on_c, 1, 77, 127
2, 91680, Note_on_c, 1, 84, 127
2, 91680, Note_on_c, 1, 89, 127
2, 91720, Note_on_c, 1, 49, 127
2, 91720, Note_on_c, 1, 53, 127
2, 91720, Note_on_c, 1, 56, 127
2, 91720, Note_on_c, 1, 61, 127
2, 91720, Note_on_c, 1, 68, 127
2, 91720, Note_off_c, 1, 72, 0
2, 91720, Note_on_c, 1, 73, 127
2, 91720, Note_off_c, 1, 77, 0
2, 91720, Note_off_c, 1, 84, 0
2, 91720, Note_off_c, 1, 89, 0
2, 91760, Note_off_c, 1, 49, 0
2, 91760, Note_off_c, 1, 53, 0
2, 91760, Note_off_c, 1, 56, 0
2, 91760, Note_off_c, 1, 61, 0
2, 91760, Note_on_c, 1, 62, 127
2, 91760, Note_on_c, 1, 67, 127
2, 91760, Note_off_c, 1, 68, 0
2, 91760, Note_on_c, 1, 70, 127
2, 91760, Note_off_c, 1, 73, 0
2, 91760, Note_on_c, 1, 94, 127
2, 91760, Note_on_c, 1, 98, 127
2, 91800, Note_off_c, 1, 62, 0
2, 91800, Note_off_c, 1, 67, 0
2, 91800, Note_off_c, 1, 70, 0
2, 91800, Note_off_c, 1, 94, 0
2, 91800, Note_off_c, 1, 98, 0
2, 91840, Note_on_c, 1, 36, 127
2, 91840, Note_on_c, 1, 48, 127
2, 91840, Note_on_c, 1, 76, 127
2, 91840, Note_on_c, 1, 84, 127
2, 91840, Note_on_c, 1, 88, 127
2, 91920, Note_off_c, 1, 76, 0
2, 91920, Note_off_c, 1, 84, 0
2, 91920, Note_off_c, 1, 88, 0
2, 92000, Note_off_c, 1, 36, 0
2, 92000, Note_off_c, 1, 48, 0
2, 92000, Note_on_c, 1, 72, 127
2, 92000, Note_on_c, 1, 76, 127
2, 92000, Note_on_c, 1, 79, 127
2, 92000, Note_on_c, 1, 91, 127
2, 92040, Note_on_c, 1, 36, 127
2, 92040, Note_on_c, 1, 48, 127
2, 92040, Note_off_c, 1, 72, 0
2, 92040, Note_off_c, 1, 79, 0
2, 92040, Note_on_c, 1, 84, 127
2, 92040, Note_on_c, 1, 88, 127
2, 92040, Note_off_c, 1, 91, 0
2, 92160, Note_off_c, 1, 36, 0
2, 92160, Note_on_c, 1, 60, 127
2, 92160, Note_off_c, 1, 76, 0
2, 92160, Note_off_c, 1, 84, 0
2, 92160, Note_off_c, 1, 88, 0
2, 92200, Note_on_c, 1, 45, 127
2, 92200, Note_off_c, 1, 48, 0
2, 92200, Note_on_c, 1, 52, 127
2, 92200, Note_off_c, 1, 60, 0
2, 92200, Note_on_c, 1, 83, 127
2, 92200, Note_on_c, 1, 91, 127
2, 92200, Note_on_c, 1, 95, 127
2, 92240, Note_on_c, 1, 40, 127
2, 92240, Note_off_c, 1, 45, 0
2, 92240, Note_off_c, 1, 52, 0
2, 92240, Note_on_c, 1, 56, 127
2, 92240, Note_on_c, 1, 76, 127
2, 92240, Note_on_c, 1, 80, 127
2, 92240, Note_off_c, 1, 83, 0
2, 92240, Note_on_c, 1, 85, 127
2, 92240, Note_off_c, 1, 91, 0
2, 92240, Note_off_c, 1, 95, 0
2, 92280, Note_off_c, 1, 40, 0
2, 92280, Note_on_c, 1, 52, 127
2, 92280, Note_off_c, 1, 56, 0
2, 92280, Note_on_c, 1, 70, 127
2, 92280, Note_on_c, 1, 73, 127
2, 92280, Note_on_c, 1, 78, 127
2, 92280, Note_off_c, 1, 80, 0
2, 92280, Note_off_c, 1, 85, 0
2, 92320, Note_on_c, 1, 36, 127
2, 92320, Note_on_c, 1, 43, 127
2, 92320, Note_off_c, 1, 52, 0
2, 92320, Note_on_c, 1, 55, 127
2, 92320, Note_on_c, 1, 60, 127
2, 92320, Note_on_c, 1, 63, 127
2, 92320, Note_off_c, 1, 70, 0
2, 92320, Note_off_c, 1, 73, 0
2, 92320, Note_off_c, 1, 76, 0
2, 92320, Note_off_c, 1, 78, 0
2, 92360, Note_on_c, 1, 34, 127
2, 92360, Note_off_c, 1, 36, 0
2, 92360, Note_off_c, 1, 43, 0
2, 92360, Note_on_c, 1, 50, 127
2, 92360, Note_off_c, 1, 55, 0
2, 92360, Note_on_c, 1, 56, 127
2, 92360, Note_on_c, 1, 58, 127
2, 92360, Note_off_c, 1, 60, 0
2, 92360, Note_on_c, 1, 62, 127
2, 92360, Note_off_c, 1, 63, 0
2, 92400, Note_off_c, 1, 34, 0
2, 92400, Note_on_c, 1, 36, 127
2, 92400, Note_on_c, 1, 39, 127
2, 92400, Note_on_c, 1, 44, 127
2, 92400, Note_on_c, 1, 48, 127
2, 92400, Note_off_c, 1, 50, 0
2, 92400, Note_off_c, 1, 56, 0
2, 92400, Note_off_c, 1, 58, 0
2, 92400, Note_on_c, 1, 60, 127
2, 92400, Note_off_c, 1, 62, 0
2, 92400, Note_on_c, 1, 63, 127
2, 92400, Note_on_c, 1, 68, 127
2, 92400, Note_on_c, 1, 72, 127
2, 92440, Note_off_c, 1, 39, 0
2, 92440, Note_off_c, 1, 44, 0
2, 92440, Note_on_c, 1, 45, 127
2, 92440, Note_off_c, 1, 48, 0
2, 92440, Note_on_c, 1, 51, 127
2, 92440, Note_off_c, 1, 60, 0
2, 92440, Note_off_c, 1, 68, 0
2, 92440, Note_off_c, 1, 72, 0
2, 92480, Note_off_c, 1, 36, 0
2, 92480, Note_on_c, 1, 43, 127
2, 92480, Note_off_c, 1, 45, 0
2, 92480, Note_on_c, 1, 50, 127
2, 92480, Note_off_c, 1, 51, 0
2, 92480, Note_on_c, 1, 55, 127
2, 92480, Note_off_c, 1, 63, 0
2, 92480, Note_on_c, 1, 65, 127
2, 92480, Note_on_c, 1, 71, 127
2, 92480, Note_on_c, 1, 79, 127
2, 92520, Note_on_c, 1, 36, 127
2, 92520, Note_off_c, 1, 43, 0
2, 92520, Note_on_c, 1, 45, 127
2, 92520, Note_off_c, 1, 50, 0
2, 92520, Note_on_c, 1, 51, 127
2, 92520, Note_off_c, 1, 55, 0
2, 92520, Note_on_c, 1, 63, 127
2, 92520, Note_off_c, 1, 65, 0
2, 92520, Note_off_c, 1, 71, 0
2, 92520, Note_off_c, 1, 79, 0
2, 92560, Note_off_c, 1, 36, 0
2, 92560, Note_off_c, 1, 45, 0
2, 92560, Note_off_c, 1, 51, 0
2, 92560, Note_off_c, 1, 63, 0
2, 92600, Note_on_c, 1, 42, 127
2, 92600, Note_on_c, 1, 49, 127
2, 92600, Note_on_c, 1, 73, 127
2, 92600, Note_on_c, 1, 78, 127
2, 92600, Note_on_c, 1, 81, 127
2, 92640, Note_off_c, 1, 81, 0
2, 92640, Note_on_c, 1, 83, 127
2, 93360, Note_on_c, 1, 41, 127
2, 93360, Note_off_c, 1, 42, 0
2, 93360, Note_on_c, 1, 48, 127
2, 93360, Note_off_c, 1, 49, 0
2, 93360, Note_on_c, 1, 60, 127
2, 93360, Note_on_c, 1, 65, 127
2, 93360, Note_on_c, 1, 69, 127
2, 93360, Note_off_c, 1, 73, 0
2, 93360, Note_off_c, 1, 78, 0
2, 93360, Note_off_c, 1, 83, 0
2, 93400, Note_off_c, 1, 41, 0
2, 93400, Note_off_c, 1, 48, 0
2, 93400, Note_off_c, 1, 60, 0
2, 93400, Note_off_c, 1, 65, 0
2, 93400, Note_off_c, 1, 69, 0
2, 93440, Note_on_c, 1, 26, 127
2, 93440, Note_on_c, 1, 33, 127
2, 93440, Note_on_c, 1, 38, 127
2, 93440, Note_on_c, 1, 50, 127
2, 93440, Note_on_c, 1, 54, 127
2, 93440, Note_on_c, 1, 57, 127
2, 93440, Note_on_c, 1, 62, 127
2, 93480, Note_off_c, 1, 26, 0
2, 93480, Note_off_c, 1, 33, 0
2, 93480, Note_off_c, 1, 38, 0
2, 93480, Note_off_c, 1, 50, 0
2, 93480, Note_off_c, 1, 54, 0
2, 93480, Note_off_c, 1, 57, 0
2, 93480, Note_off_c, 1, 62, 0
2, 93520, Note_on_c, 1, 26, 127
2, 93520, Note_on_c, 1, 33, 127
2, 93520, Note_on_c, 1, 38, 127
2, 93520, Note_on_c, 1, 50, 127
2, 93520, Note_on_c, 1, 54, 127
2, 93520, Note_on_c, 1, 57, 127
2, 93520, Note_on_c, 1, 62, 127
2, 94240, Note_off_c, 1, 26, 0
2, 94240, Note_off_c, 1, 33, 0
2, 94240, Note_off_c, 1, 38, 0
2, 94240, Note_off_c, 1, 50, 0
2, 94240, Note_off_c, 1, 54, 0
2, 94240, Note_off_c, 1, 57, 0
2, 94240, Note_off_c, 1, 62, 0
2, 94240, Note_on_c, 1, 77, 127
2, 94240, Note_on_c, 1, 81, 127
2, 94240, Note_on_c, 1, 89, 127
2, 94280, Note_on_c, 1, 63, 127
2, 94280, Note_on_c, 1, 69, 127
2, 94280, Note_on_c, 1, 73, 127
2, 94280, Note_on_c, 1, 76, 127
2, 94280, Note_off_c, 1, 77, 0
2, 94280, Note_on_c, 1, 80, 127
2, 94280, Note_off_c, 1, 81, 0
2, 94280, Note_off_c, 1, 89, 0
2, 94960, Note_off_c, 1, 63, 0
2, 94960, Note_on_c, 1, 66, 127
2, 94960, Note_off_c, 1, 69, 0
2, 94960, Note_on_c, 1, 78, 127
2, 94960, Note_off_c, 1, 80, 0
2, 94960, Note_on_c, 1, 82, 127
2, 94960, Note_on_c, 1, 90, 127
2, 95000, Note_on_c, 1, 49, 127
2, 95000, Note_off_c, 1, 66, 0
2, 95000, Note_off_c, 1, 76, 0
2, 95000, Note_off_c, 1, 78, 0
2, 95000, Note_off_c, 1, 82, 0
2, 95000, Note_on_c, 1, 85, 127
2, 95000, Note_off_c, 1, 90, 0
2, 95040, Note_on_c, 1, 37, 127
2, 95040, Note_off_c, 1, 49, 0
2, 95040, Note_on_c, 1, 61, 127
2, 95040, Note_on_c, 1, 70, 127
2, 95040, Note_off_c, 1, 73, 0
2, 95040, Note_off_c, 1, 85, 0
2, 95400, Note_off_c, 1, 37, 0
2, 95440, Note_on_c, 1, 37, 127
2, 95600, Note_off_c, 1, 37, 0
2, 95600, Note_off_c, 1, 61, 0
2, 95600, Note_off_c, 1, 70, 0
2, 95640, Note_on_c, 1, 37, 127
2, 95640, Note_on_c, 1, 61, 127
2, 95640, Note_on_c, 1, 70, 127
2, 95840, Note_off_c, 1, 37, 0
2, 95880, Note_on_c, 1, 41, 127
2, 95880, Note_on_c, 1, 48, 127
2, 95880, Note_on_c, 1, 57, 127
2, 95880, Note_off_c, 1, 61, 0
2, 95880, Note_on_c, 1, 63, 127
2, 95880, Note_on_c, 1, 65, 127
2, 95880, Note_off_c, 1, 70, 0
2, 96080, Note_on_c, 1, 39, 127
2, 96640, Note_off_c, 1, 39, 0
2, 96800, Note_on_c, 1, 39, 127
2, 96840, Note_off_c, 1, 39, 0
2, 97000, Note_off_c, 1, 41, 0
2, 97000, Note_on_c, 1, 44, 127
2, 97000, Note_off_c, 1, 48, 0
2, 97000, Note_on_c, 1, 55, 127
2, 97000, Note_off_c, 1, 57, 0
2, 97000, Note_on_c, 1, 61, 127
2, 97000, Note_off_c, 1, 65, 0
2, 97000, Note_on_c, 1, 67, 127
2, 97000, Note_on_c, 1, 73, 127
2, 97040, Note_on_c, 1, 41, 127
2, 97040, Note_off_c, 1, 44, 0
2, 97040, Note_on_c, 1, 48, 127
2, 97040, Note_off_c, 1, 55, 0
2, 97040, Note_on_c, 1, 57, 127
2, 97040, Note_off_c, 1, 61, 0
2, 97040, Note_on_c, 1, 65, 127
2, 97040, Note_off_c, 1, 67, 0
2, 97040, Note_off_c, 1, 73, 0
2, 97200, Note_on_c, 1, 39, 127
2, 97240, Note_off_c, 1, 39, 0
2, 97280, Note_on_c, 1, 38, 127
2, 97400, Note_off_c, 1, 38, 0
2, 97400, Note_off_c, 1, 41, 0
2, 97400, Note_off_c, 1, 48, 0
2, 97400, Note_on_c, 1, 54, 127
2, 97400, Note_off_c, 1, 57, 0
2, 97400, Note_on_c, 1, 60, 127
2, 97400, Note_off_c, 1, 63, 0
2, 97400, Note_off_c, 1, 65, 0
2, 97400, Note_on_c, 1, 69, 127
2, 97440, Note_on_c, 1, 41, 127
2, 97440, Note_on_c, 1, 48, 127
2, 97440, Note_off_c, 1, 54, 0
2, 97440, Note_on_c, 1, 57, 127
2, 97440, Note_off_c, 1, 60, 0
2, 97440, Note_on_c, 1, 63, 127
2, 97440, Note_on_c, 1, 65, 127
2, 97440, Note_off_c, 1, 69, 0
2, 97480, Note_on_c, 1, 39, 127
2, 97800, Note_off_c, 1, 39, 0
2, 97800, Note_off_c, 1, 41, 0
2, 97800, Note_on_c, 1, 46, 127
2, 97800, Note_off_c, 1, 48, 0
2, 97800, Note_off_c, 1, 57, 0
2, 97800, Note_on_c, 1, 58, 127
2, 97800, Note_off_c, 1, 63, 0
2, 97800, Note_off_c, 1, 65, 0
2, 97840, Note_on_c, 1, 38, 127
2, 97840, Note_off_c, 1, 46, 0
2, 97840, Note_on_c, 1, 54, 127
2, 97840, Note_off_c, 1, 58, 0
2, 97840, Note_on_c, 1, 66, 127
2, 97840, Note_on_c, 1, 70, 127
2, 97920, Note_off_c, 1, 38, 0
2, 97920, Note_off_c, 1, 54, 0
2, 97920, Note_off_c, 1, 66, 0
2, 97920, Note_off_c, 1, 70, 0
2, 97960, Note_on_c, 1, 38, 127
2, 97960, Note_on_c, 1, 54, 127
2, 97960, Note_on_c, 1, 66, 127
2, 97960, Note_on_c, 1, 70, 127
2, 98040, Note_off_c, 1, 66, 0
2, 98240, Note_off_c, 1, 38, 0
2, 98240, Note_off_c, 1, 54, 0
2, 98240, Note_off_c, 1, 70, 0
2, 98240, Note_on_c, 1, 86, 127
2, 98280, Note_off_c, 1, 86, 0
2, 98320, Note_on_c, 1, 41, 127
2, 98320, Note_on_c, 1, 53, 127
2, 98320, Note_on_c, 1, 74, 127
2, 98320, Note_on_c, 1, 86, 127
2, 99080, Note_off_c, 1, 41, 0
2, 99080, Note_off_c, 1, 53, 0
2, 99120, Note_on_c, 1, 50, 127
2, 99120, Note_on_c, 1, 54, 127
2, 99120, Note_on_c, 1, 62, 127
2, 99120, Note_on_c, 1, 66, 127
2, 99120, Note_on_c, 1, 69, 127
2, 99120, Note_off_c, 1, 86, 0
2, 99480, Note_off_c, 1, 50, 0
2, 99480, Note_on_c, 1, 53, 127
2, 99480, Note_off_c, 1, 54, 0
2, 99480, Note_on_c, 1, 58, 127
2, 99480, Note_on_c, 1, 65, 127
2, 99480, Note_off_c, 1, 66, 0
2, 99480, Note_off_c, 1, 69, 0
2, 99480, Note_off_c, 1, 74, 0
2, 99520, Note_off_c, 1, 53, 0
2, 99520, Note_off_c, 1, 62, 0
2, 99520, Note_off_c, 1, 65, 0
2, 99520, Note_on_c, 1, 66, 127
2, 99520, Note_on_c, 1, 72, 127
2, 99520, Note_on_c, 1, 84, 127
2, 99560, Note_on_c, 1, 34, 127
2, 99560, Note_on_c, 1, 46, 127
2, 99560, Note_on_c, 1, 55, 127
2, 99560, Note_off_c, 1, 58, 0
2, 99560, Note_on_c, 1, 62, 127
2, 99560, Note_off_c, 1, 66, 0
2, 99560, Note_off_c, 1, 72, 0
2, 99560, Note_off_c, 1, 84, 0
2, 99600, Note_off_c, 1, 34, 0
2, 99600, Note_off_c, 1, 46, 0
2, 99600, Note_off_c, 1, 55, 0
2, 99600, Note_on_c, 1, 58, 127
2, 99600, Note_off_c, 1, 62, 0
2, 99600, Note_on_c, 1, 66, 127
2, 99600, Note_on_c, 1, 72, 127
2, 99600, Note_on_c, 1, 84, 127
2, 99800, Note_off_c, 1, 58, 0
2, 99800, Note_off_c, 1, 66, 0
2, 99800, Note_off_c, 1, 72, 0
2, 99800, Note_off_c, 1, 84, 0
2, 99840, Note_on_c, 1, 58, 127
2, 99840, Note_on_c, 1, 66, 127
2, 99840, Note_on_c, 1, 72, 127
2, 99840, Note_on_c, 1, 84, 127
2, 99880, Note_on_c, 1, 41, 127
2, 99880, Note_on_c, 1, 53, 127
2, 99880, Note_off_c, 1, 58, 0
2, 99880, Note_off_c, 1, 66, 0
2, 99880, Note_on_c, 1, 68, 127
2, 99880, Note_on_c, 1, 75, 127
2, 99880, Note_off_c, 1, 84, 0
2, 99920, Note_off_c, 1, 41, 0
2, 99920, Note_off_c, 1, 53, 0
2, 99920, Note_off_c, 1, 68, 0
2, 99920, Note_off_c, 1, 72, 0
2, 99920, Note_off_c, 1, 75, 0
2, 99960, Note_on_c, 1, 48, 127
2, 99960, Note_on_c, 1, 60, 127
2, 99960, Note_on_c, 1, 65, 127
2, 99960, Note_on_c, 1, 69, 127
2, 99960, Note_on_c, 1, 75, 127
2, 99960, Note_on_c, 1, 77, 127
2, 100120, Note_off_c, 1, 60, 0
2, 100120, Note_off_c, 1, 75, 0
2, 100120, Note_off_c, 1, 77, 0
2, 100160, Note_off_c, 1, 48, 0
2, 100160, Note_on_c, 1, 53, 127
2, 100160, Note_on_c, 1, 60, 127
2, 100160, Note_off_c, 1, 65, 0
2, 100160, Note_on_c, 1, 68, 127
2, 100160, Note_off_c, 1, 69, 0
2, 100160, Note_on_c, 1, 80, 127
2, 100560, Note_off_c, 1, 80, 0
2, 100600, Note_on_c, 1, 50, 127
2, 100600, Note_off_c, 1, 53, 0
2, 100600, Note_on_c, 1, 57, 127
2, 100600, Note_off_c, 1, 60, 0
2, 100600, Note_on_c, 1, 62, 127
2, 100600, Note_off_c, 1, 68, 0
2, 100600, Note_on_c, 1, 69, 127
2, 100600, Note_on_c, 1, 78, 127
2, 100760, Note_off_c, 1, 50, 0
2, 100760, Note_off_c, 1, 57, 0
2, 100760, Note_off_c, 1, 62, 0
2, 100760, Note_off_c, 1, 69, 0
2, 100760, Note_off_c, 1, 78, 0
2, 100800, Note_on_c, 1, 45, 127
2, 100800, Note_on_c, 1, 57, 127
2, 100800, Note_on_c, 1, 69, 127
2, 100800, Note_on_c, 1, 73, 127
2, 101000, Note_on_c, 1, 64, 127
2, 101000, Note_off_c, 1, 69, 0
2, 101000, Note_on_c, 1, 72, 127
2, 101000, Note_off_c, 1, 73, 0
2, 101160, Note_off_c, 1, 64, 0
2, 101200, Note_on_c, 1, 64, 127
2, 101360, Note_off_c, 1, 64, 0
2, 101400, Note_on_c, 1, 60, 127
2, 101560, Note_off_c, 1, 45, 0
2, 101560, Note_off_c, 1, 57, 0
2, 101560, Note_off_c, 1, 60, 0
2, 101560, Note_off_c, 1, 72, 0
2, 101600, Note_on_c, 1, 56, 127
2, 101600, Note_on_c, 1, 65, 127
2, 101600, Note_on_c, 1, 73, 127
2, 101840, Note_off_c, 1, 56, 0
2, 101840, Note_off_c, 1, 65, 0
2, 101840, Note_off_c, 1, 73, 0
2, 101880, Note_on_c, 1, 56, 127
2, 101880, Note_on_c, 1, 65, 127
2, 101880, Note_on_c, 1, 73, 127
2, 102040, Note_off_c, 1, 56, 0
2, 102080, Note_on_c, 1, 56, 127
2, 102080, Note_off_c, 1, 65, 0
2, 102080, Note_on_c, 1, 66, 127
2, 102080, Note_on_c, 1, 72, 127
2, 102080, Note_off_c, 1, 73, 0
2, 102080, Note_on_c, 1, 80, 127
2, 102440, Note_off_c, 1, 56, 0
2, 102440, Note_off_c, 1, 66, 0
2, 102440, Note_off_c, 1, 72, 0
2, 102440, Note_on_c, 1, 73, 127
2, 102440, Note_off_c, 1, 80, 0
2, 102480, Note_on_c, 1, 56, 127
2, 102480, Note_on_c, 1, 63, 127
2, 102480, Note_off_c, 1, 73, 0
2, 102480, Note_on_c, 1, 78, 127
2, 102840, Note_off_c, 1, 63, 0
2, 102880, Note_off_c, 1, 56, 0
2, 102880, Note_on_c, 1, 71, 127
2, 102880, Note_on_c, 1, 75, 127
2, 102880, Note_off_c, 1, 78, 0
2, 102880, Note_on_c, 1, 92, 127
2, 103040, Note_on_c, 1, 70, 127
2, 103040, Note_off_c, 1, 71, 0
2, 103040, Note_on_c, 1, 73, 127
2, 103040, Note_off_c, 1, 92, 0
2, 103080, Note_on_c, 1, 51, 127
2, 103080, Note_on_c, 1, 56, 127
2, 103080, Note_on_c, 1, 63, 127
2, 103080, Note_off_c, 1, 70, 0
2, 103080, Note_off_c, 1, 73, 0
2, 103080, Note_off_c, 1, 75, 0
2, 103080, Note_on_c, 1, 84, 127
2, 103120, Note_off_c, 1, 51, 0
2, 103120, Note_off_c, 1, 56, 0
2, 103120, Note_on_c, 1, 62, 127
2, 103120, Note_off_c, 1, 63, 0
2, 103120, Note_off_c, 1, 84, 0
2, 103120, Note_on_c, 1, 85, 127
2, 103120, Note_on_c, 1, 90, 127
2, 103120, Note_on_c, 1, 97, 127
2, 103160, Note_on_c, 1, 51, 127
2, 103160, Note_on_c, 1, 56, 127
2, 103160, Note_off_c, 1, 62, 0
2, 103160, Note_on_c, 1, 63, 127
2, 103160, Note_on_c, 1, 84, 127
2, 103160, Note_off_c, 1, 85, 0
2, 103160, Note_off_c, 1, 90, 0
2, 103160, Note_off_c, 1, 97, 0
2, 103200, Note_on_c, 1, 31, 127
2, 103200, Note_off_c, 1, 51, 0
2, 103200, Note_off_c, 1, 56, 0
2, 103200, Note_on_c, 1, 60, 127
2, 103200, Note_on_c, 1, 67, 127
2, 103200, Note_off_c, 1, 84, 0
2, 103240, Note_off_c, 1, 31, 0
2, 103240, Note_on_c, 1, 56, 127
2, 103240, Note_on_c, 1, 59, 127
2, 103240, Note_off_c, 1, 60, 0
2, 103240, Note_on_c, 1, 62, 127
2, 103240, Note_off_c, 1, 63, 0
2, 103240, Note_on_c, 1, 65, 127
2, 103240, Note_off_c, 1, 67, 0
2, 103280, Note_on_c, 1, 54, 127
2, 103280, Note_off_c, 1, 56, 0
2, 103280, Note_on_c, 1, 58, 127
2, 103280, Note_off_c, 1, 59, 0
2, 103280, Note_off_c, 1, 62, 0
2, 103280, Note_on_c, 1, 63, 127
2, 103280, Note_off_c, 1, 65, 0
2, 103280, Note_on_c, 1, 82, 127
2, 103280, Note_on_c, 1, 87, 127
2, 103280, Note_on_c, 1, 90, 127
2, 103320, Note_off_c, 1, 54, 0
2, 103320, Note_on_c, 1, 56, 127
2, 103320, Note_off_c, 1, 58, 0
2, 103320, Note_on_c, 1, 59, 127
2, 103320, Note_off_c, 1, 63, 0
2, 103320, Note_on_c, 1, 64, 127
2, 103320, Note_on_c, 1, 76, 127
2, 103320, Note_off_c, 1, 82, 0
2, 103320, Note_on_c, 1, 83, 127
2, 103320, Note_off_c, 1, 87, 0
2, 103320, Note_on_c, 1, 88, 127
2, 103320, Note_off_c, 1, 90, 0
2, 103360, Note_off_c, 1, 56, 0
2, 103360, Note_off_c, 1, 59, 0
2, 103360, Note_off_c, 1, 64, 0
2, 103360, Note_on_c, 1, 66, 127
2, 103360, Note_on_c, 1, 75, 127
2, 103360, Note_off_c, 1, 76, 0
2, 103360, Note_on_c, 1, 78, 127
2, 103360, Note_on_c, 1, 82, 127
2, 103360, Note_off_c, 1, 83, 0
2, 103360, Note_off_c, 1, 88, 0
2, 103360, Note_on_c, 1, 94, 127
2, 103400, Note_on_c, 1, 52, 127
2, 103400, Note_on_c, 1, 57, 127
2, 103400, Note_on_c, 1, 64, 127
2, 103400, Note_off_c, 1, 66, 0
2, 103400, Note_on_c, 1, 67, 127
2, 103400, Note_on_c, 1, 69, 127
2, 103400, Note_off_c, 1, 75, 0
2, 103400, Note_off_c, 1, 78, 0
2, 103400, Note_on_c, 1, 79, 127
2, 103400, Note_off_c, 1, 82, 0
2, 103400, Note_off_c, 1, 94, 0
2, 103440, Note_off_c, 1, 52, 0
2, 103440, Note_on_c, 1, 56, 127
2, 103440, Note_off_c, 1, 57, 0
2, 103440, Note_on_c, 1, 59, 127
2, 103440, Note_off_c, 1, 64, 0
2, 103440, Note_off_c, 1, 67, 0
2, 103440, Note_on_c, 1, 68, 127
2, 103440, Note_off_c, 1, 69, 0
2, 103440, Note_off_c, 1, 79, 0
2, 103480, Note_off_c, 1, 56, 0
2, 103480, Note_on_c, 1, 58, 127
2, 103480, Note_off_c, 1, 59, 0
2, 103480, Note_on_c, 1, 65, 127
2, 103480, Note_off_c, 1, 68, 0
2, 103480, Note_on_c, 1, 77, 127
2, 103680, Note_on_c, 1, 49, 127
2, 103680, Note_on_c, 1, 56, 127
2, 103680, Note_off_c, 1, 58, 0
2, 103680, Note_off_c, 1, 65, 0
2, 103680, Note_on_c, 1, 76, 127
2, 103680, Note_off_c, 1, 77, 0
2, 103720, Note_on_c, 1, 47, 127
2, 103720, Note_off_c, 1, 49, 0
2, 103720, Note_on_c, 1, 54, 127
2, 103720, Note_off_c, 1, 56, 0
2, 103720, Note_on_c, 1, 73, 127
2, 103760, Note_off_c, 1, 47, 0
2, 103760, Note_on_c, 1, 49, 127
2, 103760, Note_off_c, 1, 54, 0
2, 103760, Note_on_c, 1, 56, 127
2, 103760, Note_off_c, 1, 73, 0
2, 103800, Note_on_c, 1, 46, 127
2, 103800, Note_off_c, 1, 49, 0
2, 103800, Note_off_c, 1, 56, 0
2, 103800, Note_on_c, 1, 58, 127
2, 103800, Note_off_c, 1, 76, 0
2, 103800, Note_on_c, 1, 80, 127
2, 103800, Note_on_c, 1, 87, 127
2, 103840, Note_off_c, 1, 46, 0
2, 103840, Note_on_c, 1, 49, 127
2, 103840, Note_on_c, 1, 56, 127
2, 103840, Note_off_c, 1, 58, 0
2, 103840, Note_on_c, 1, 76, 127
2, 103840, Note_off_c, 1, 80, 0
2, 103840, Note_off_c, 1, 87, 0
2, 103920, Note_on_c, 1, 64, 127
2, 104040, Note_off_c, 1, 49, 0
2, 104040, Note_off_c, 1, 56, 0
2, 104040, Note_off_c, 1, 64, 0
2, 104040, Note_on_c, 1, 68, 127
2, 104040, Note_off_c, 1, 76, 0
2, 104080, Note_off_c, 1, 68, 0
2, 104120, Note_on_c, 1, 49, 127
2, 104120, Note_on_c, 1, 56, 127
2, 104120, Note_on_c, 1, 61, 127
2, 104120, Note_on_c, 1, 65, 127
2, 104120, Note_on_c, 1, 68, 127
2, 104240, Note_on_c, 1, 30, 127
2, 104240, Note_on_c, 1, 42, 127
2, 104240, Note_off_c, 1, 49, 0
2, 104240, Note_off_c, 1, 56, 0
2, 104240, Note_on_c, 1, 59, 127
2, 104240, Note_off_c, 1, 65, 0
2, 104240, Note_on_c, 1, 66, 127
2, 104240, Note_off_c, 1, 68, 0
2, 104240, Note_on_c, 1, 71, 127
2, 104280, Note_off_c, 1, 30, 0
2, 104280, Note_off_c, 1, 42, 0
2, 104280, Note_on_c, 1, 49, 127
2, 104280, Note_on_c, 1, 56, 127
2, 104280, Note_off_c, 1, 59, 0
2, 104280, Note_off_c, 1, 61, 0
2, 104280, Note_off_c, 1, 66, 0
2, 104280, Note_on_c, 1, 68, 127
2, 104280, Note_off_c, 1, 71, 0
2, 104320, Note_off_c, 1, 49, 0
2, 104320, Note_on_c, 1, 53, 127
2, 104320, Note_off_c, 1, 56, 0
2, 104320, Note_on_c, 1, 61, 127
2, 104320, Note_off_c, 1, 68, 0
2, 104320, Note_on_c, 1, 71, 127
2, 104320, Note_on_c, 1, 73, 127
2, 104520, Note_off_c, 1, 53, 0
2, 104520, Note_on_c, 1, 68, 127
2, 104520, Note_off_c, 1, 71, 0
2, 104520, Note_off_c, 1, 73, 0
2, 104560, Note_on_c, 1, 54, 127
2, 104560, Note_on_c, 1, 66, 127
2, 104560, Note_off_c, 1, 68, 0
2, 104560, Note_on_c, 1, 70, 127
2, 104720, Note_off_c, 1, 70, 0
2, 104760, Note_off_c, 1, 54, 0
2, 104760, Note_on_c, 1, 56, 127
2, 104760, Note_off_c, 1, 61, 0
2, 104760, Note_on_c, 1, 62, 127
2, 104760, Note_off_c, 1, 66, 0
2, 104760, Note_on_c, 1, 68, 127
2, 104760, Note_on_c, 1, 73, 127
2, 104800, Note_on_c, 1, 46, 127
2, 104800, Note_on_c, 1, 49, 127
2, 104800, Note_on_c, 1, 53, 127
2, 104800, Note_off_c, 1, 56, 0
2, 104800, Note_on_c, 1, 58, 127
2, 104800, Note_off_c, 1, 62, 0
2, 104800, Note_off_c, 1, 68, 0
2, 104800, Note_off_c, 1, 73, 0
2, 104840, Note_off_c, 1, 46, 0
2, 104840, Note_off_c, 1, 53, 0
2, 104840, Note_on_c, 1, 55, 127
2, 104840, Note_off_c, 1, 58, 0
2, 104840, Note_on_c, 1, 61, 127
2, 104840, Note_on_c, 1, 64, 127
2, 104880, Note_off_c, 1, 49, 0
2, 104880, Note_on_c, 1, 51, 127
2, 104880, Note_off_c, 1, 55, 0
2, 104880, Note_on_c, 1, 57, 127
2, 104880, Note_off_c, 1, 64, 0
2, 104880, Note_on_c, 1, 66, 127
2, 104880, Note_on_c, 1, 69, 127
2, 104920, Note_off_c, 1, 51, 0
2, 104920, Note_off_c, 1, 57, 0
2, 104920, Note_off_c, 1, 61, 0
2, 104920, Note_off_c, 1, 66, 0
2, 104920, Note_off_c, 1, 69, 0
2, 104960, Note_on_c, 1, 42, 127
2, 104960, Note_on_c, 1, 57, 127
2, 104960, Note_on_c, 1, 66, 127
2, 105320, Note_off_c, 1, 42, 0
2, 105320, Note_off_c, 1, 57, 0
2, 105320, Note_off_c, 1, 66, 0
2, 105360, Note_on_c, 1, 42, 127
2, 105360, Note_on_c, 1, 50, 127
2, 105360, Note_on_c, 1, 59, 127
2, 105360, Note_on_c, 1, 70, 127
2, 105680, Note_off_c, 1, 42, 0
2, 105680, Note_on_c, 1, 49, 127
2, 105680, Note_off_c, 1, 50, 0
2, 105680, Note_on_c, 1, 54, 127
2, 105680, Note_on_c, 1, 58, 127
2, 105680, Note_off_c, 1, 59, 0
2, 105680, Note_on_c, 1, 61, 127
2, 105680, Note_on_c, 1, 66, 127
2, 105680, Note_on_c, 1, 73, 127
2, 105720, Note_on_c, 1, 42, 127
2, 105720, Note_off_c, 1, 49, 0
2, 105720, Note_off_c, 1, 54, 0
2, 105720, Note_off_c, 1, 58, 0
2, 105720, Note_off_c, 1, 61, 0
2, 105720, Note_off_c, 1, 66, 0
2, 105720, Note_off_c, 1, 70, 0
2, 105720, Note_off_c, 1, 73, 0
2, 105760, Note_on_c, 1, 66, 127
2, 105760, Note_on_c, 1, 70, 127
2, 106120, Note_off_c, 1, 42, 0
2, 106160, Note_off_c, 1, 66, 0
2, 106160, Note_off_c, 1, 70, 0
2, 106200, Note_on_c, 1, 42, 127
2, 106200, Note_on_c, 1, 51, 127
2, 106200, Note_on_c, 1, 59, 127
2, 106200, Note_on_c, 1, 66, 127
2, 106520, Note_off_c, 1, 59, 0
2, 106560, Note_off_c, 1, 42, 0
2, 106560, Note_off_c, 1, 51, 0
2, 106560, Note_off_c, 1, 66, 0
2, 106600, Note_on_c, 1, 37, 127
2, 106600, Note_on_c, 1, 64, 127
2, 106600, Note_on_c, 1, 73, 127
2, 106840, Note_off_c, 1, 37, 0
2, 106880, Note_on_c, 1, 37, 127
2, 106960, Note_off_c, 1, 64, 0
2, 107000, Note_on_c, 1, 64, 127
2, 107360, Note_off_c, 1, 64, 0
2, 107360, Note_off_c, 1, 73, 0
2, 107400, Note_on_c, 1, 73, 127
2, 107400, Note_on_c, 1, 77, 127
2, 107760, Note_off_c, 1, 37, 0
2, 107800, Note_on_c, 1, 37, 127
2, 108160, Note_off_c, 1, 37, 0
2, 108160, Note_off_c, 1, 73, 0
2, 108160, Note_off_c, 1, 77, 0
2, 108200, Note_on_c, 1, 37, 127
2, 108200, Note_on_c, 1, 73, 127
2, 108200, Note_on_c, 1, 77, 127
2, 108600, Note_off_c, 1, 37, 0
2, 108600, Note_off_c, 1, 73, 0
2, 108600, Note_off_c, 1, 77, 0
2, 108640, Note_on_c, 1, 47, 127
2, 108640, Note_on_c, 1, 59, 127
2, 108640, Note_on_c, 1, 69, 127
2, 108640, Note_on_c, 1, 71, 127
2, 108640, Note_on_c, 1, 81, 127
2, 108840, Note_off_c, 1, 47, 0
2, 108840, Note_on_c, 1, 51, 127
2, 109000, Note_off_c, 1, 51, 0
2, 109000, Note_off_c, 1, 59, 0
2, 109000, Note_off_c, 1, 69, 0
2, 109000, Note_off_c, 1, 71, 0
2, 109000, Note_off_c, 1, 81, 0
2, 109040, Note_on_c, 1, 33, 127
2, 109040, Note_on_c, 1, 37, 127
2, 109040, Note_on_c, 1, 45, 127
2, 109040, Note_on_c, 1, 49, 127
2, 109040, Note_on_c, 1, 57, 127
2, 109040, Note_on_c, 1, 61, 127
2, 110200, Note_off_c, 1, 33, 0
2, 110200, Note_off_c, 1, 37, 0
2, 110200, Note_off_c, 1, 45, 0
2, 110200, Note_off_c, 1, 49, 0
2, 110200, Note_off_c, 1, 57, 0
2, 110200, Note_off_c, 1, 61, 0
2, 110240, Note_on_c, 1, 33, 127
2, 110240, Note_on_c, 1, 37, 127
2, 110240, Note_on_c, 1, 45, 127
2, 110240, Note_on_c, 1, 49, 127
2, 110240, Note_on_c, 1, 57, 127
2, 110240, Note_on_c, 1, 61, 127
2, 112000, Note_off_c, 1, 33, 0
2, 112000, Note_off_c, 1, 37, 0
2, 112000, Note_off_c, 1, 45, 0
2, 112000, Note_off_c, 1, 49, 0
2, 112000, Note_on_c, 1, 51, 127
2, 112000, Note_on_c, 1, 54, 127
2, 112000, Note_off_c, 1, 57, 0
2, 112000, Note_on_c, 1, 58, 127
2, 112000, Note_off_c, 1, 61, 0
2, 112000, Note_on_c, 1, 66, 127
2, 112000, Note_on_c, 1, 78, 127
2, 112040, Note_off_c, 1, 51, 0
2, 112040, Note_off_c, 1, 54, 0
2, 112040, Note_off_c, 1, 58, 0
2, 112040, Note_off_c, 1, 66, 0
2, 112040, Note_off_c, 1, 78, 0
2, 112080, Note_on_c, 1, 33, 127
2, 112080, Note_on_c, 1, 37, 127
2, 112080, Note_on_c, 1, 45, 127
2, 112080, Note_on_c, 1, 49, 127
2, 112080, Note_on_c, 1, 57, 127
2, 112080, Note_on_c, 1, 61, 127
2, 113920, Note_off_c, 1, 33, 0
2, 113920, Note_off_c, 1, 37, 0
2, 113920, Note_off_c, 1, 45, 0
2, 113920, Note_off_c, 1, 49, 0
2, 113920, Note_off_c, 1, 57, 0
2, 113920, Note_off_c, 1, 61, 0
2, 114000, Note_on_c, 1, 29, 127
2, 114000, Note_on_c, 1, 37, 127
2, 114000, Note_on_c, 1, 41, 127
2, 114000, Note_on_c, 1, 56, 127
2, 114000, Note_on_c, 1, 61, 127
2, 114000, Note_on_c, 1, 68, 127
2, 114040, Note_off_c, 1, 29, 0
2, 114040, Note_off_c, 1, 37, 0
2, 114040, Note_off_c, 1, 41, 0
2, 114040, Note_off_c, 1, 56, 0
2, 114040, Note_off_c, 1, 61, 0
2, 114040, Note_off_c, 1, 68, 0
2, 114040, Note_on_c, 1, 80, 127
2, 114040, Note_on_c, 1, 87, 127
2, 114040, Note_on_c, 1, 90, 127
2, 114080, Note_on_c, 1, 39, 127
2, 114080, Note_on_c, 1, 70, 127
2, 114080, Note_on_c, 1, 74, 127
2, 114080, Note_off_c, 1, 80, 0
2, 114080, Note_on_c, 1, 82, 127
2, 114080, Note_off_c, 1, 87, 0
2, 114080, Note_off_c, 1, 90, 0
2, 114120, Note_off_c, 1, 39, 0
2, 114120, Note_on_c, 1, 49, 127
2, 114120, Note_on_c, 1, 56, 127
2, 114120, Note_on_c, 1, 68, 127
2, 114120, Note_off_c, 1, 70, 0
2, 114120, Note_off_c, 1, 74, 0
2, 114120, Note_on_c, 1, 78, 127
2, 114120, Note_off_c, 1, 82, 0
2, 114160, Note_on_c, 1, 43, 127
2, 114160, Note_on_c, 1, 48, 127
2, 114160, Note_off_c, 1, 49, 0
2, 114160, Note_off_c, 1, 56, 0
2, 114160, Note_on_c, 1, 67, 127
2, 114160, Note_off_c, 1, 68, 0
2, 114160, Note_off_c, 1, 78, 0
2, 114160, Note_on_c, 1, 79, 127
2, 114200, Note_off_c, 1, 43, 0
2, 114200, Note_off_c, 1, 48, 0
2, 114200, Note_on_c, 1, 49, 127
2, 114200, Note_on_c, 1, 56, 127
2, 114200, Note_off_c, 1, 67, 0
2, 114200, Note_on_c, 1, 71, 127
2, 114200, Note_on_c, 1, 74, 127
2, 114200, Note_off_c, 1, 79, 0
2, 114240, Note_off_c, 1, 49, 0
2, 114240, Note_on_c, 1, 52, 127
2, 114240, Note_on_c, 1, 62, 127
2, 114240, Note_off_c, 1, 71, 0
2, 114240, Note_on_c, 1, 76, 127
2, 114280, Note_on_c, 1, 36, 127
2, 114280, Note_on_c, 1, 43, 127
2, 114280, Note_on_c, 1, 48, 127
2, 114280, Note_off_c, 1, 52, 0
2, 114280, Note_off_c, 1, 56, 0
2, 114280, Note_on_c, 1, 59, 127
2, 114280, Note_off_c, 1, 62, 0
2, 114280, Note_on_c, 1, 64, 127
2, 114280, Note_on_c, 1, 71, 127
2, 114280, Note_off_c, 1, 74, 0
2, 114280, Note_off_c, 1, 76, 0
2, 114320, Note_off_c, 1, 36, 0
2, 114320, Note_off_c, 1, 43, 0
2, 114320, Note_off_c, 1, 48, 0
2, 114320, Note_on_c, 1, 57, 127
2, 114320, Note_off_c, 1, 59, 0
2, 114320, Note_off_c, 1, 64, 0
2, 114320, Note_off_c, 1, 71, 0
2, 114320, Note_on_c, 1, 76, 127
2, 114320, Note_on_c, 1, 81, 127
2, 114320, Note_on_c, 1, 88, 127
2, 114360, Note_on_c, 1, 47, 127
2, 114360, Note_off_c, 1, 57, 0
2, 114360, Note_on_c, 1, 63, 127
2, 114360, Note_on_c, 1, 64, 127
2, 114360, Note_on_c, 1, 66, 127
2, 114360, Note_off_c, 1, 76, 0
2, 114360, Note_off_c, 1, 81, 0
2, 114360, Note_off_c, 1, 88, 0
2, 114400, Note_on_c, 1, 33, 127
2, 114400, Note_on_c, 1, 45, 127
2, 114400, Note_off_c, 1, 47, 0
2, 114400, Note_on_c, 1, 57, 127
2, 114400, Note_off_c, 1, 63, 0
2, 114400, Note_off_c, 1, 64, 0
2, 114400, Note_off_c, 1, 66, 0
2, 114400, Note_on_c, 1, 84, 127
2, 114400, Note_on_c, 1, 88, 127
2, 114400, Note_on_c, 1, 93, 127
2, 114440, Note_off_c, 1, 33, 0
2, 114440, Note_off_c, 1, 45, 0
2, 114440, Note_off_c, 1, 57, 0
2, 114440, Note_on_c, 1, 59, 127
2, 114440, Note_on_c, 1, 82, 127
2, 114440, Note_off_c, 1, 84, 0
2, 114440, Note_on_c, 1, 85, 127
2, 114440, Note_off_c, 1, 93, 0
2, 114440, Note_on_c, 1, 94, 127
2, 114480, Note_off_c, 1, 59, 0
2, 114480, Note_on_c, 1, 69, 127
2, 114480, Note_on_c, 1, 79, 127
2, 114480, Note_off_c, 1, 82, 0
2, 114480, Note_on_c, 1, 84, 127
2, 114480, Note_off_c, 1, 85, 0
2, 114480, Note_on_c, 1, 86, 127
2, 114480, Note_off_c, 1, 88, 0
2, 114480, Note_on_c, 1, 91, 127
2, 114480, Note_off_c, 1, 94, 0
2, 114520, Note_on_c, 1, 33, 127
2, 114520, Note_on_c, 1, 45, 127
2, 114520, Note_on_c, 1, 57, 127
2, 114520, Note_off_c, 1, 69, 0
2, 114520, Note_off_c, 1, 79, 0
2, 114520, Note_off_c, 1, 86, 0
2, 114520, Note_on_c, 1, 88, 127
2, 114520, Note_off_c, 1, 91, 0
2, 114520, Note_on_c, 1, 93, 127
2, 114560, Note_off_c, 1, 33, 0
2, 114560, Note_off_c, 1, 45, 0
2, 114560, Note_on_c, 1, 56, 127
2, 114560, Note_off_c, 1, 57, 0
2, 114560, Note_on_c, 1, 63, 127
2, 114560, Note_on_c, 1, 66, 127
2, 114560, Note_on_c, 1, 70, 127
2, 114560, Note_on_c, 1, 75, 127
2, 114560, Note_off_c, 1, 84, 0
2, 114560, Note_off_c, 1, 88, 0
2, 114560, Note_off_c, 1, 93, 0
2, 114600, Note_off_c, 1, 56, 0
2, 114600, Note_on_c, 1, 59, 127
2, 114600, Note_off_c, 1, 63, 0
2, 114600, Note_off_c, 1, 66, 0
2, 114600, Note_off_c, 1, 70, 0
2, 114600, Note_off_c, 1, 75, 0
2, 114600, Note_on_c, 1, 82, 127
2, 114600, Note_on_c, 1, 85, 127
2, 114600, Note_on_c, 1, 88, 127
2, 114600, Note_on_c, 1, 94, 127
2, 114640, Note_on_c, 1, 53, 127
2, 114640, Note_on_c, 1, 57, 127
2, 114640, Note_off_c, 1, 59, 0
2, 114640, Note_on_c, 1, 75, 127
2, 114640, Note_on_c, 1, 77, 127
2, 114640, Note_off_c, 1, 82, 0
2, 114640, Note_off_c, 1, 85, 0
2, 114640, Note_off_c, 1, 88, 0
2, 114640, Note_off_c, 1, 94, 0
2, 114680, Note_on_c, 1, 41, 127
2, 114680, Note_off_c, 1, 53, 0
2, 114680, Note_on_c, 1, 60, 127
2, 114680, Note_on_c, 1, 63, 127
2, 114680, Note_on_c, 1, 69, 127
2, 114680, Note_off_c, 1, 75, 0
2, 114680, Note_off_c, 1, 77, 0
2, 114720, Note_off_c, 1, 41, 0
2, 114720, Note_on_c, 1, 46, 127
2, 114720, Note_on_c, 1, 50, 127
2, 114720, Note_off_c, 1, 57, 0
2, 114720, Note_off_c, 1, 60, 0
2, 114720, Note_off_c, 1, 63, 0
2, 114720, Note_on_c, 1, 65, 127
2, 114720, Note_off_c, 1, 69, 0
2, 114760, Note_off_c, 1, 46, 0
2, 114760, Note_off_c, 1, 50, 0
2, 114760, Note_on_c, 1, 60, 127
2, 114760, Note_on_c, 1, 62, 127
2, 114760, Note_off_c, 1, 65, 0
2, 114760, Note_on_c, 1, 94, 127
2, 114760, Note_on_c, 1, 98, 127
2, 114800, Note_on_c, 1, 52, 127
2, 114800, Note_on_c, 1, 55, 127
2, 114800, Note_on_c, 1, 58, 127
2, 114800, Note_off_c, 1, 62, 0
2, 114800, Note_on_c, 1, 82, 127
2, 114800, Note_on_c, 1, 86, 127
2, 114800, Note_off_c, 1, 94, 0
2, 114800, Note_off_c, 1, 98, 0
2, 114840, Note_off_c, 1, 52, 0
2, 114840, Note_off_c, 1, 58, 0
2, 114840, Note_on_c, 1, 63, 127
2, 114840, Note_on_c, 1, 67, 127
2, 114840, Note_on_c, 1, 75, 127
2, 114840, Note_on_c, 1, 79, 127
2, 114840, Note_off_c, 1, 82, 0
2, 114840, Note_off_c, 1, 86, 0
2, 114840, Note_on_c, 1, 87, 127
2, 114880, Note_on_c, 1, 32, 127
2, 114880, Note_on_c, 1, 44, 127
2, 114880, Note_on_c, 1, 50, 127
2, 114880, Note_off_c, 1, 55, 0
2, 114880, Note_on_c, 1, 58, 127
2, 114880, Note_off_c, 1, 60, 0
2, 114880, Note_on_c, 1, 62, 127
2, 114880, Note_off_c, 1, 63, 0
2, 114880, Note_off_c, 1, 67, 0
2, 114880, Note_off_c, 1, 75, 0
2, 114880, Note_off_c, 1, 79, 0
2, 114880, Note_off_c, 1, 87, 0
2, 114920, Note_off_c, 1, 32, 0
2, 114920, Note_off_c, 1, 44, 0
2, 114920, Note_on_c, 1, 45, 127
2, 114920, Note_on_c, 1, 48, 127
2, 114920, Note_off_c, 1, 50, 0
2, 114920, Note_on_c, 1, 53, 127
2, 114920, Note_on_c, 1, 57, 127
2, 114920, Note_off_c, 1, 58, 0
2, 114920, Note_off_c, 1, 62, 0
2, 114920, Note_on_c, 1, 64, 127
2, 114920, Note_on_c, 1, 76, 127
2, 114960, Note_off_c, 1, 45, 0
2, 114960, Note_off_c, 1, 48, 0
2, 114960, Note_off_c, 1, 53, 0
2, 114960, Note_off_c, 1, 57, 0
2, 114960, Note_off_c, 1, 64, 0
2, 114960, Note_on_c, 1, 65, 127
2, 114960, Note_on_c, 1, 72, 127
2, 114960, Note_off_c, 1, 76, 0
2, 114960, Note_on_c, 1, 84, 127
2, 114960, Note_on_c, 1, 89, 127
2, 115000, Note_on_c, 1, 53, 127
2, 115000, Note_on_c, 1, 57, 127
2, 115000, Note_on_c, 1, 61, 127
2, 115000, Note_off_c, 1, 65, 0
2, 115000, Note_on_c, 1, 69, 127
2, 115000, Note_off_c, 1, 72, 0
2, 115000, Note_on_c, 1, 79, 127
2, 115000, Note_off_c, 1, 84, 0
2, 115000, Note_off_c, 1, 89, 0
2, 115040, Note_off_c, 1, 53, 0
2, 115040, Note_on_c, 1, 55, 127
2, 115040, Note_off_c, 1, 57, 0
2, 115040, Note_on_c, 1, 59, 127
2, 115040, Note_off_c, 1, 61, 0
2, 115040, Note_on_c, 1, 64, 127
2, 115040, Note_off_c, 1, 69, 0
2, 115040, Note_off_c, 1, 79, 0
2, 115040, Note_on_c, 1, 89, 127
2, 115080, Note_off_c, 1, 55, 0
2, 115080, Note_off_c, 1, 59, 0
2, 115080, Note_on_c, 1, 73, 127
2, 115080, Note_on_c, 1, 81, 127
2, 115080, Note_on_c, 1, 85, 127
2, 115080, Note_off_c, 1, 89, 0
2, 115120, Note_on_c, 1, 47, 127
2, 115120, Note_on_c, 1, 51, 127
2, 115120, Note_on_c, 1, 56, 127
2, 115120, Note_on_c, 1, 59, 127
2, 115120, Note_off_c, 1, 64, 0
2, 115120, Note_off_c, 1, 73, 0
2, 115120, Note_on_c, 1, 80, 127
2, 115120, Note_off_c, 1, 81, 0
2, 115120, Note_off_c, 1, 85, 0
2, 115160, Note_off_c, 1, 47, 0
2, 115160, Note_off_c, 1, 51, 0
2, 115160, Note_on_c, 1, 53, 127
2, 115160, Note_off_c, 1, 56, 0
2, 115160, Note_on_c, 1, 57, 127
2, 115160, Note_off_c, 1, 59, 0
2, 115160, Note_on_c, 1, 62, 127
2, 115160, Note_on_c, 1, 65, 127
2, 115160, Note_on_c, 1, 74, 127
2, 115160, Note_off_c, 1, 80, 0
2, 115160, Note_on_c, 1, 81, 127
2, 115160, Note_on_c, 1, 84, 127
2, 115160, Note_on_c, 1, 86, 127
2, 115240, Note_on_c, 1, 36, 127
2, 115240, Note_on_c, 1, 37, 127
2, 115240, Note_on_c, 1, 45, 127
2, 115240, Note_on_c, 1, 48, 127
2, 115240, Note_on_c, 1, 49, 127
2, 115240, Note_off_c, 1, 53, 0
2, 115240, Note_off_c, 1, 57, 0
2, 115240, Note_off_c, 1, 62, 0
2, 115240, Note_off_c, 1, 65, 0
2, 115240, Note_off_c, 1, 74, 0
2, 115240, Note_off_c, 1, 81, 0
2, 115240, Note_off_c, 1, 84, 0
2, 115240, Note_off_c, 1, 86, 0
2, 115280, Note_off_c, 1, 36, 0
2, 115280, Note_off_c, 1, 37, 0
2, 115280, Note_off_c, 1, 45, 0
2, 115280, Note_off_c, 1, 48, 0
2, 115280, Note_off_c, 1, 49, 0
2, 115280, Note_on_c, 1, 53, 127
2, 115280, Note_on_c, 1, 57, 127
2, 115280, Note_on_c, 1, 62, 127
2, 115280, Note_on_c, 1, 65, 127
2, 115280, Note_on_c, 1, 74, 127
2, 115280, Note_on_c, 1, 81, 127
2, 115280, Note_on_c, 1, 84, 127
2, 115280, Note_on_c, 1, 86, 127
2, 115360, Note_off_c, 1, 53, 0
2, 115360, Note_on_c, 1, 54, 127
2, 115360, Note_off_c, 1, 65, 0
2, 115360, Note_on_c, 1, 66, 127
2, 115360, Note_on_c, 1, 69, 127
2, 115360, Note_off_c, 1, 74, 0
2, 115360, Note_off_c, 1, 81, 0
2, 115360, Note_off_c, 1, 84, 0
2, 115360, Note_off_c, 1, 86, 0
2, 115400, Note_on_c, 1, 44, 127
2, 115400, Note_on_c, 1, 51, 127
2, 115400, Note_off_c, 1, 57, 0
2, 115400, Note_off_c, 1, 62, 0
2, 115400, Note_on_c, 1, 63, 127
2, 115440, Note_off_c, 1, 44, 0
2, 115440, Note_off_c, 1, 51, 0
2, 115440, Note_off_c, 1, 54, 0
2, 115440, Note_off_c, 1, 63, 0
2, 115440, Note_off_c, 1, 66, 0
2, 115440, Note_on_c, 1, 68, 127
2, 115440, Note_off_c, 1, 69, 0
2, 115440, Note_on_c, 1, 74, 127
2, 115440, Note_on_c, 1, 83, 127
2, 115440, Note_on_c, 1, 89, 127
2, 115480, Note_on_c, 1, 56, 127
2, 115480, Note_on_c, 1, 58, 127
2, 115480, Note_on_c, 1, 61, 127
2, 115480, Note_off_c, 1, 68, 0
2, 115480, Note_off_c, 1, 74, 0
2, 115480, Note_off_c, 1, 83, 0
2, 115480, Note_on_c, 1, 85, 127
2, 115480, Note_off_c, 1, 89, 0
2, 115520, Note_off_c, 1, 56, 0
2, 115520, Note_off_c, 1, 58, 0
2, 115520, Note_off_c, 1, 61, 0
2, 115520, Note_on_c, 1, 84, 127
2, 115520, Note_off_c, 1, 85, 0
2, 115520, Note_on_c, 1, 96, 127
2, 115560, Note_on_c, 1, 64, 127
2, 115560, Note_on_c, 1, 68, 127
2, 115560, Note_on_c, 1, 71, 127
2, 115560, Note_on_c, 1, 76, 127
2, 115560, Note_on_c, 1, 83, 127
2, 115560, Note_off_c, 1, 84, 0
2, 115560, Note_off_c, 1, 96, 0
2, 116120, Note_off_c, 1, 64, 0
2, 116120, Note_off_c, 1, 68, 0
2, 116120, Note_off_c, 1, 76, 0
2, 116160, Note_on_c, 1, 59, 127
2, 116160, Note_on_c, 1, 66, 127
2, 116160, Note_on_c, 1, 75, 127
2, 116160, Note_on_c, 1, 78, 127
2, 116600, Note_off_c, 1, 59, 0
2, 116600, Note_off_c, 1, 66, 0
2, 116600, Note_off_c, 1, 71, 0
2, 116600, Note_off_c, 1, 75, 0
2, 116600, Note_off_c, 1, 78, 0
2, 116600, Note_off_c, 1, 83, 0
2, 116640, Note_on_c, 1, 59, 127
2, 116640, Note_on_c, 1, 66, 127
2, 116640, Note_on_c, 1, 71, 127
2, 116640, Note_on_c, 1, 75, 127
2, 116640, Note_on_c, 1, 78, 127
2, 116640, Note_on_c, 1, 83, 127
2, 116800, Note_off_c, 1, 59, 0
2, 116800, Note_off_c, 1, 66, 0
2, 116800, Note_off_c, 1, 71, 0
2, 116800, Note_off_c, 1, 75, 0
2, 116800, Note_off_c, 1, 78, 0
2, 116800, Note_off_c, 1, 83, 0
2, 116840, Note_on_c, 1, 45, 127
2, 116840, Note_on_c, 1, 57, 127
2, 116840, Note_on_c, 1, 64, 127
2, 116840, Note_on_c, 1, 67, 127
2, 116840, Note_on_c, 1, 73, 127
2, 116840, Note_on_c, 1, 76, 127
2, 117040, Note_on_c, 1, 42, 127
2, 117040, Note_off_c, 1, 45, 0
2, 117040, Note_on_c, 1, 54, 127
2, 117040, Note_off_c, 1, 57, 0
2, 117040, Note_off_c, 1, 64, 0
2, 117040, Note_on_c, 1, 66, 127
2, 117040, Note_off_c, 1, 67, 0
2, 117040, Note_on_c, 1, 69, 127
2, 117040, Note_off_c, 1, 73, 0
2, 117040, Note_on_c, 1, 74, 127
2, 117040, Note_off_c, 1, 76, 0
2, 117040, Note_on_c, 1, 78, 127
2, 117400, Note_off_c, 1, 42, 0
2, 117400, Note_off_c, 1, 54, 0
2, 117400, Note_off_c, 1, 66, 0
2, 117400, Note_off_c, 1, 69, 0
2, 117400, Note_off_c, 1, 74, 0
2, 117400, Note_off_c, 1, 78, 0
2, 117440, Note_on_c, 1, 48, 127
2, 117440, Note_on_c, 1, 50, 127
2, 117440, Note_on_c, 1, 79, 127
2, 118400, Note_off_c, 1, 50, 0
2, 118400, Note_on_c, 1, 51, 127
2, 118760, Note_off_c, 1, 48, 0
2, 118760, Note_off_c, 1, 51, 0
2, 118760, Note_off_c, 1, 79, 0
2, 118800, Note_on_c, 1, 48, 127
2, 118800, Note_on_c, 1, 51, 127
2, 118800, Note_on_c, 1, 79, 127
2, 119280, Note_on_c, 1, 50, 127
2, 119280, Note_off_c, 1, 51, 0
2, 119640, Note_off_c, 1, 48, 0
2, 119640, Note_off_c, 1, 50, 0
2, 119640, Note_off_c, 1, 79, 0
2, 119680, Note_on_c, 1, 43, 127
2, 119680, Note_on_c, 1, 55, 127
2, 119680, Note_on_c, 1, 63, 127
2, 119680, Note_on_c, 1, 67, 127
2, 119680, Note_on_c, 1, 72, 127
2, 120000, Note_off_c, 1, 43, 0
2, 120000, Note_off_c, 1, 55, 0
2, 120000, Note_off_c, 1, 63, 0
2, 120000, Note_off_c, 1, 67, 0
2, 120000, Note_off_c, 1, 72, 0
2, 120040, End_track
3, 0, Start_track
3, 0, Title_t, "MIDI"
3, 1536, End_track
0, 0, End_of_file
