0, 0, Header, 1, 3, 192
1, 0, Start_track
1, 0, Time_signature, 4, 2, 24, 8
1, 0, Tempo, 500000
1, 120040, End_track
2, 0, Start_track
2, 0, Text_t, "random instrument: random person i dunno whatev"
2, 0, Title_t, "Track 1"
2, 0, Note_on_c, 1, 50, 127
2, 0, Note_on_c, 1, 57, 127
2, 0, Note_on_c, 1, 65, 127
2, 0, Note_on_c, 1, 69, 127
2, 0, Note_on_c, 1, 74, 127
2, 0, Note_on_c, 1, 77, 127
2, 0, Note_on_c, 1, 81, 127
2, 80, Note_off_c, 1, 50, 0
2, 80, Note_off_c, 1, 57, 0
2, 80, Note_off_c, 1, 65, 0
2, 80, Note_off_c, 1, 69, 0
2, 80, Note_off_c, 1, 74, 0
2, 80, Note_off_c, 1, 77, 0
2, 80, Note_off_c, 1, 81, 0
2, 120, Note_on_c, 1, 50, 127
2, 120, Note_on_c, 1, 57, 127
2, 120, Note_on_c, 1, 65, 127
2, 120, Note_on_c, 1, 69, 127
2, 120, Note_on_c, 1, 74, 127
2, 120, Note_on_c, 1, 77, 127
2, 120, Note_on_c, 1, 81, 127
2, 360, Note_off_c, 1, 50, 0
2, 360, Note_off_c, 1, 57, 0
2, 360, Note_off_c, 1, 65, 0
2, 360, Note_off_c, 1, 69, 0
2, 360, Note_off_c, 1, 74, 0
2, 360, Note_off_c, 1, 77, 0
2, 360, Note_off_c, 1, 81, 0
2, 400, Note_on_c, 1, 47, 127
2, 400, Note_on_c, 1, 59, 127
2, 400, Note_on_c, 1, 66, 127
2, 400, Note_on_c, 1, 71, 127
2, 400, Note_on_c, 1, 74, 127
2, 800, Note_off_c, 1, 47, 0
2, 800, Note_off_c, 1, 59, 0
2, 800, Note_off_c, 1, 66, 0
2, 800, Note_off_c, 1, 71, 0
2, 800, Note_off_c, 1, 74, 0
2, 840, Note_on_c, 1, 47, 127
2, 840, Note_on_c, 1, 63, 127
2, 840, Note_on_c, 1, 66, 127
2, 840, Note_on_c, 1, 71, 127
2, 960, Note_off_c, 1, 47, 0
2, 960, Note_off_c, 1, 63, 0
2, 960, Note_off_c, 1, 66, 0
2, 960, Note_off_c, 1, 71, 0
2, 3840, Note_on_c, 1, 59, 127
2, 3840, Note_on_c, 1, 64, 127
2, 3840, Note_on_c, 1, 68, 127
2, 3960, Note_off_c, 1, 59, 0
2, 3960, Note_off_c, 1, 64, 0
2, 3960, Note_off_c, 1, 68, 0
2, 4160, Note_on_c, 1, 62, 127
2, 4160, Note_on_c, 1, 64, 127
2, 4160, Note_on_c, 1, 68, 127
2, 4160, Note_on_c, 1, 71, 127
2, 4200, Note_off_c, 1, 62, 0
2, 4200, Note_off_c, 1, 64, 0
2, 4200, Note_off_c, 1, 68, 0
2, 4200, Note_off_c, 1, 71, 0
2, 4240, Note_on_c, 1, 62, 127
2, 4240, Note_on_c, 1, 64, 127
2, 4240, Note_on_c, 1, 68, 127
2, 4240, Note_on_c, 1, 71, 127
2, 4320, Note_off_c, 1, 62, 0
2, 4320, Note_off_c, 1, 64, 0
2, 4320, Note_off_c, 1, 68, 0
2, 4320, Note_off_c, 1, 71, 0
2, 4360, Note_on_c, 1, 62, 127
2, 4360, Note_on_c, 1, 64, 127
2, 4360, Note_on_c, 1, 68, 127
2, 4360, Note_on_c, 1, 71, 127
2, 4480, Note_off_c, 1, 62, 0
2, 4480, Note_off_c, 1, 64, 0
2, 4480, Note_off_c, 1, 68, 0
2, 4480, Note_off_c, 1, 71, 0
2, 4520, Note_on_c, 1, 57, 127
2, 4520, Note_on_c, 1, 61, 127
2, 4520, Note_on_c, 1, 64, 127
2, 4520, Note_on_c, 1, 69, 127
2, 4640, Note_off_c, 1, 57, 0
2, 4640, Note_off_c, 1, 61, 0
2, 4640, Note_off_c, 1, 64, 0
2, 4640, Note_off_c, 1, 69, 0
2, 5160, Note_on_c, 1, 48, 127
2, 5160, Note_on_c, 1, 55, 127
2, 5160, Note_on_c, 1, 60, 127
2, 5160, Note_on_c, 1, 64, 127
2, 5400, Note_off_c, 1, 48, 0
2, 5400, Note_off_c, 1, 55, 0
2, 5400, Note_off_c, 1, 60, 0
2, 5400, Note_off_c, 1, 64, 0
2, 5440, Note_on_c, 1, 48, 127
2, 5440, Note_on_c, 1, 55, 127
2, 5440, Note_on_c, 1, 60, 127
2, 5440, Note_on_c, 1, 64, 127
2, 5640, Note_off_c, 1, 48, 0
2, 5640, Note_off_c, 1, 55, 0
2, 5640, Note_off_c, 1, 60, 0
2, 5640, Note_off_c, 1, 64, 0
2, 5680, Note_on_c, 1, 50, 127
2, 5680, Note_on_c, 1, 55, 127
2, 5680, Note_on_c, 1, 59, 127
2, 5680, Note_on_c, 1, 65, 127
2, 5920, Note_off_c, 1, 50, 0
2, 5920, Note_off_c, 1, 55, 0
2, 5920, Note_off_c, 1, 59, 0
2, 5920, Note_off_c, 1, 65, 0
2, 5960, Note_on_c, 1, 48, 127
2, 5960, Note_on_c, 1, 55, 127
2, 5960, Note_on_c, 1, 60, 127
2, 5960, Note_on_c, 1, 64, 127
2, 6480, Note_off_c, 1, 48, 0
2, 6480, Note_off_c, 1, 55, 0
2, 6480, Note_off_c, 1, 60, 0
2, 6480, Note_off_c, 1, 64, 0
2, 7280, Note_on_c, 1, 41, 127
2, 7280, Note_on_c, 1, 53, 127
2, 7280, Note_on_c, 1, 57, 127
2, 7280, Note_on_c, 1, 60, 127
2, 7280, Note_on_c, 1, 65, 127
2, 8000, Note_off_c, 1, 65, 0
2, 8040, Note_on_c, 1, 65, 127
2, 8440, Note_off_c, 1, 41, 0
2, 8440, Note_off_c, 1, 53, 0
2, 8440, Note_off_c, 1, 57, 0
2, 8440, Note_off_c, 1, 60, 0
2, 8440, Note_off_c, 1, 65, 0
2, 10040, Note_on_c, 1, 42, 127
2, 10040, Note_on_c, 1, 49, 127
2, 10120, Note_off_c, 1, 42, 0
2, 10120, Note_off_c, 1, 49, 0
2, 10360, Note_on_c, 1, 42, 127
2, 10360, Note_on_c, 1, 49, 127
2, 10560, Note_off_c, 1, 42, 0
2, 10560, Note_off_c, 1, 49, 0
2, 10840, Note_on_c, 1, 43, 127
2, 10840, Note_on_c, 1, 61, 127
2, 10840, Note_on_c, 1, 64, 127
2, 10840, Note_on_c, 1, 70, 127
2, 11040, Note_off_c, 1, 61, 0
2, 11040, Note_off_c, 1, 64, 0
2, 11040, Note_off_c, 1, 70, 0
2, 11080, Note_on_c, 1, 42, 127
2, 11080, Note_off_c, 1, 43, 0
2, 11120, Note_off_c, 1, 42, 0
2, 11160, Note_on_c, 1, 44, 127
2, 11160, Note_on_c, 1, 72, 127
2, 11160, Note_on_c, 1, 75, 127
2, 11360, Note_off_c, 1, 44, 0
2, 11360, Note_off_c, 1, 72, 0
2, 11360, Note_off_c, 1, 75, 0
2, 11640, Note_on_c, 1, 39, 127
2, 11640, Note_on_c, 1, 51, 127
2, 11640, Note_on_c, 1, 55, 127
2, 11640, Note_on_c, 1, 58, 127
2, 11640, Note_on_c, 1, 63, 127
2, 12200, Note_off_c, 1, 39, 0
2, 12200, Note_off_c, 1, 51, 0
2, 12200, Note_off_c, 1, 55, 0
2, 12200, Note_off_c, 1, 58, 0
2, 12200, Note_off_c, 1, 63, 0
2, 13200, Note_on_c, 1, 52, 127
2, 13200, Note_on_c, 1, 56, 127
2, 13200, Note_on_c, 1, 64, 127
2, 13200, Note_on_c, 1, 71, 127
2, 13520, Note_on_c, 1, 59, 127
2, 13520, Note_off_c, 1, 64, 0
2, 13520, Note_off_c, 1, 71, 0
2, 13560, Note_off_c, 1, 59, 0
2, 13560, Note_on_c, 1, 64, 127
2, 13560, Note_on_c, 1, 76, 127
2, 15160, Note_off_c, 1, 52, 0
2, 15160, Note_off_c, 1, 56, 0
2, 15160, Note_off_c, 1, 64, 0
2, 15160, Note_off_c, 1, 76, 0
2, 15200, Note_on_c, 1, 52, 127
2, 15200, Note_on_c, 1, 56, 127
2, 15200, Note_on_c, 1, 64, 127
2, 15200, Note_on_c, 1, 76, 127
2, 15240, Note_off_c, 1, 52, 0
2, 15240, Note_off_c, 1, 56, 0
2, 15240, Note_off_c, 1, 64, 0
2, 15240, Note_off_c, 1, 76, 0
2, 15280, Note_on_c, 1, 52, 127
2, 15280, Note_on_c, 1, 56, 127
2, 15280, Note_on_c, 1, 68, 127
2, 15280, Note_on_c, 1, 76, 127
2, 16120, Note_off_c, 1, 52, 0
2, 16120, Note_off_c, 1, 56, 0
2, 16120, Note_off_c, 1, 68, 0
2, 16120, Note_off_c, 1, 76, 0
2, 16160, Note_on_c, 1, 41, 127
2, 16160, Note_on_c, 1, 53, 127
2, 16160, Note_on_c, 1, 61, 127
2, 16160, Note_on_c, 1, 65, 127
2, 16160, Note_on_c, 1, 67, 127
2, 16160, Note_on_c, 1, 70, 127
2, 16160, Note_on_c, 1, 73, 127
2, 16760, Note_off_c, 1, 41, 0
2, 16760, Note_off_c, 1, 53, 0
2, 16760, Note_off_c, 1, 61, 0
2, 16760, Note_on_c, 1, 62, 127
2, 16760, Note_off_c, 1, 65, 0
2, 16760, Note_off_c, 1, 67, 0
2, 16760, Note_on_c, 1, 68, 127
2, 16760, Note_off_c, 1, 70, 0
2, 16760, Note_on_c, 1, 86, 127
2, 16760, Note_on_c, 1, 90, 127
2, 16760, Note_on_c, 1, 92, 127
2, 16800, Note_on_c, 1, 37, 127
2, 16800, Note_on_c, 1, 42, 127
2, 16800, Note_on_c, 1, 49, 127
2, 16800, Note_off_c, 1, 62, 0
2, 16800, Note_off_c, 1, 68, 0
2, 16800, Note_off_c, 1, 73, 0
2, 16800, Note_off_c, 1, 86, 0
2, 16800, Note_off_c, 1, 90, 0
2, 16800, Note_off_c, 1, 92, 0
2, 16840, Note_off_c, 1, 37, 0
2, 16840, Note_off_c, 1, 42, 0
2, 16840, Note_off_c, 1, 49, 0
2, 16840, Note_on_c, 1, 58, 127
2, 16840, Note_on_c, 1, 65, 127
2, 16840, Note_on_c, 1, 77, 127
2, 16840, Note_on_c, 1, 83, 127
2, 17080, Note_off_c, 1, 58, 0
2, 17080, Note_off_c, 1, 65, 0
2, 17080, Note_off_c, 1, 77, 0
2, 17080, Note_off_c, 1, 83, 0
2, 17160, Note_on_c, 1, 54, 127
2, 17160, Note_on_c, 1, 79, 127
2, 17160, Note_on_c, 1, 91, 127
2, 17400, Note_off_c, 1, 54, 0
2, 17440, Note_on_c, 1, 54, 127
2, 17680, Note_off_c, 1, 54, 0
2, 17720, Note_on_c, 1, 58, 127
2, 17720, Note_on_c, 1, 78, 127
2, 17720, Note_off_c, 1, 79, 0
2, 17720, Note_on_c, 1, 90, 127
2, 17720, Note_off_c, 1, 91, 0
2, 18120, Note_off_c, 1, 58, 0
2, 18160, Note_on_c, 1, 58, 127
2, 18560, Note_off_c, 1, 58, 0
2, 18560, Note_off_c, 1, 78, 0
2, 18560, Note_off_c, 1, 90, 0
2, 22080, Note_on_c, 1, 56, 127
2, 22080, Note_on_c, 1, 61, 127
2, 22080, Note_on_c, 1, 67, 127
2, 23440, Note_off_c, 1, 56, 0
2, 23440, Note_off_c, 1, 61, 0
2, 23440, Note_off_c, 1, 67, 0
2, 23480, Note_on_c, 1, 56, 127
2, 23480, Note_on_c, 1, 60, 127
2, 23480, Note_on_c, 1, 68, 127
2, 23640, Note_off_c, 1, 56, 0
2, 23640, Note_off_c, 1, 60, 0
2, 23640, Note_off_c, 1, 68, 0
2, 23680, Note_on_c, 1, 56, 127
2, 23680, Note_on_c, 1, 60, 127
2, 23680, Note_on_c, 1, 68, 127
2, 23760, Note_off_c, 1, 56, 0
2, 23760, Note_off_c, 1, 60, 0
2, 23760, Note_off_c, 1, 68, 0
2, 23800, Note_on_c, 1, 55, 127
2, 23800, Note_on_c, 1, 63, 127
2, 23800, Note_on_c, 1, 70, 127
2, 25160, Note_off_c, 1, 55, 0
2, 25160, Note_off_c, 1, 63, 0
2, 25160, Note_off_c, 1, 70, 0
2, 25200, Note_on_c, 1, 52, 127
2, 25200, Note_on_c, 1, 66, 127
2, 25200, Note_on_c, 1, 74, 127
2, 25360, Note_off_c, 1, 52, 0
2, 25360, Note_off_c, 1, 66, 0
2, 25360, Note_off_c, 1, 74, 0
2, 25400, Note_on_c, 1, 52, 127
2, 25400, Note_on_c, 1, 66, 127
2, 25400, Note_on_c, 1, 74, 127
2, 25600, Note_off_c, 1, 66, 0
2, 25640, Note_on_c, 1, 44, 127
2, 25640, Note_off_c, 1, 52, 0
2, 25640, Note_on_c, 1, 59, 127
2, 25640, Note_on_c, 1, 71, 127
2, 25640, Note_off_c, 1, 74, 0
2, 26200, Note_off_c, 1, 59, 0
2, 26200, Note_off_c, 1, 71, 0
2, 26240, Note_on_c, 1, 56, 127
2, 26240, Note_on_c, 1, 68, 127
2, 26360, Note_off_c, 1, 56, 0
2, 26360, Note_off_c, 1, 68, 0
2, 26440, Note_on_c, 1, 72, 127
2, 26680, Note_off_c, 1, 72, 0
2, 26720, Note_on_c, 1, 70, 127
2, 27040, Note_on_c, 1, 51, 127
2, 27040, Note_on_c, 1, 66, 127
2, 27080, Note_off_c, 1, 51, 0
2, 27080, Note_on_c, 1, 61, 127
2, 27080, Note_on_c, 1, 64, 127
2, 27080, Note_off_c, 1, 66, 0
2, 27080, Note_on_c, 1, 67, 127
2, 27080, Note_on_c, 1, 69, 127
2, 27080, Note_off_c, 1, 70, 0
2, 27080, Note_on_c, 1, 73, 127
2, 27120, Note_off_c, 1, 44, 0
2, 27120, Note_off_c, 1, 61, 0
2, 27120, Note_off_c, 1, 64, 0
2, 27120, Note_off_c, 1, 67, 0
2, 27120, Note_off_c, 1, 69, 0
2, 27120, Note_off_c, 1, 73, 0
2, 27160, Note_on_c, 1, 44, 127
2, 27160, Note_on_c, 1, 51, 127
2, 27160, Note_on_c, 1, 66, 127
2, 27160, Note_on_c, 1, 70, 127
2, 27200, Note_off_c, 1, 44, 0
2, 27200, Note_on_c, 1, 45, 127
2, 27200, Note_on_c, 1, 53, 127
2, 27200, Note_on_c, 1, 58, 127
2, 27200, Note_on_c, 1, 63, 127
2, 27200, Note_on_c, 1, 65, 127
2, 27200, Note_off_c, 1, 66, 0
2, 27200, Note_off_c, 1, 70, 0
2, 27240, Note_off_c, 1, 45, 0
2, 27240, Note_off_c, 1, 51, 0
2, 27240, Note_off_c, 1, 53, 0
2, 27240, Note_off_c, 1, 58, 0
2, 27240, Note_off_c, 1, 63, 0
2, 27240, Note_off_c, 1, 65, 0
2, 27240, Note_on_c, 1, 72, 127
2, 27240, Note_on_c, 1, 73, 127
2, 27240, Note_on_c, 1, 77, 127
2, 27280, Note_on_c, 1, 46, 127
2, 27280, Note_on_c, 1, 58, 127
2, 27280, Note_on_c, 1, 64, 127
2, 27280, Note_on_c, 1, 68, 127
2, 27280, Note_off_c, 1, 72, 0
2, 27280, Note_off_c, 1, 73, 0
2, 27280, Note_off_c, 1, 77, 0
2, 27320, Note_off_c, 1, 46, 0
2, 27320, Note_off_c, 1, 58, 0
2, 27320, Note_on_c, 1, 62, 127
2, 27320, Note_off_c, 1, 64, 0
2, 27320, Note_off_c, 1, 68, 0
2, 27320, Note_on_c, 1, 69, 127
2, 27320, Note_on_c, 1, 72, 127
2, 27320, Note_on_c, 1, 78, 127
2, 27320, Note_on_c, 1, 81, 127
2, 27320, Note_on_c, 1, 84, 127
2, 27320, Note_on_c, 1, 90, 127
2, 27320, Note_on_c, 1, 93, 127
2, 27360, Note_on_c, 1, 48, 127
2, 27360, Note_on_c, 1, 54, 127
2, 27360, Note_off_c, 1, 62, 0
2, 27360, Note_on_c, 1, 63, 127
2, 27360, Note_off_c, 1, 69, 0
2, 27360, Note_off_c, 1, 78, 0
2, 27360, Note_off_c, 1, 81, 0
2, 27360, Note_off_c, 1, 84, 0
2, 27360, Note_off_c, 1, 90, 0
2, 27360, Note_off_c, 1, 93, 0
2, 27480, Note_on_c, 1, 44, 127
2, 27480, Note_off_c, 1, 48, 0
2, 27480, Note_off_c, 1, 54, 0
2, 27480, Note_off_c, 1, 63, 0
2, 27480, Note_off_c, 1, 72, 0
2, 27520, Note_on_c, 1, 68, 127
2, 28840, Note_on_c, 1, 51, 127
2, 28840, Note_on_c, 1, 56, 127
2, 28840, Note_on_c, 1, 60, 127
2, 28840, Note_on_c, 1, 63, 127
2, 29240, Note_off_c, 1, 44, 0
2, 29240, Note_off_c, 1, 51, 0
2, 29240, Note_off_c, 1, 56, 0
2, 29240, Note_off_c, 1, 60, 0
2, 29240, Note_off_c, 1, 63, 0
2, 29240, Note_off_c, 1, 68, 0
2, 29280, Note_on_c, 1, 44, 127
2, 29280, Note_on_c, 1, 51, 127
2, 29280, Note_on_c, 1, 56, 127
2, 29280, Note_on_c, 1, 60, 127
2, 29280, Note_on_c, 1, 63, 127
2, 29280, Note_on_c, 1, 68, 127
2, 30040, Note_off_c, 1, 68, 0
2, 30080, Note_on_c, 1, 67, 127
2, 30920, Note_off_c, 1, 67, 0
2, 30960, Note_on_c, 1, 68, 127
2, 31520, Note_off_c, 1, 44, 0
2, 31520, Note_off_c, 1, 51, 0
2, 31520, Note_off_c, 1, 56, 0
2, 31520, Note_off_c, 1, 60, 0
2, 31520, Note_off_c, 1, 63, 0
2, 31520, Note_off_c, 1, 68, 0
2, 34840, Note_on_c, 1, 45, 127
2, 34840, Note_on_c, 1, 57, 127
2, 34840, Note_on_c, 1, 73, 127
2, 34840, Note_on_c, 1, 79, 127
2, 35880, Note_off_c, 1, 45, 0
2, 35880, Note_off_c, 1, 57, 0
2, 35880, Note_off_c, 1, 73, 0
2, 35880, Note_off_c, 1, 79, 0
2, 36040, Note_on_c, 1, 45, 127
2, 36240, Note_off_c, 1, 45, 0
2, 36280, Note_on_c, 1, 45, 127
2, 36800, Note_on_c, 1, 49, 127
2, 36840, Note_off_c, 1, 49, 0
2, 38320, Note_off_c, 1, 45, 0
2, 38360, Note_on_c, 1, 45, 127
2, 40640, Note_off_c, 1, 45, 0
2, 40680, Note_on_c, 1, 45, 127
2, 43320, Note_off_c, 1, 45, 0
2, 43360, Note_on_c, 1, 45, 127
2, 44640, Note_off_c, 1, 45, 0
2, 49800, Note_on_c, 1, 31, 127
2, 49800, Note_on_c, 1, 43, 127
2, 49800, Note_on_c, 1, 55, 127
2, 49800, Note_on_c, 1, 67, 127
2, 50560, Note_off_c, 1, 31, 0
2, 50560, Note_off_c, 1, 43, 0
2, 50560, Note_off_c, 1, 55, 0
2, 50560, Note_off_c, 1, 67, 0
2, 53080, Note_on_c, 1, 55, 127
2, 53080, Note_on_c, 1, 58, 127
2, 53080, Note_on_c, 1, 63, 127
2, 53840, Note_off_c, 1, 55, 0
2, 53840, Note_off_c, 1, 58, 0
2, 53840, Note_off_c, 1, 63, 0
2, 59120, Note_on_c, 1, 78, 127
2, 59520, Note_off_c, 1, 78, 0
2, 59520, Note_on_c, 1, 79, 127
2, 60080, Note_off_c, 1, 79, 0
2, 60120, Note_on_c, 1, 76, 127
2, 60120, Note_on_c, 1, 80, 127
2, 60240, Note_off_c, 1, 76, 0
2, 60240, Note_off_c, 1, 80, 0
2, 60600, Note_on_c, 1, 74, 127
2, 60600, Note_on_c, 1, 77, 127
2, 60800, Note_off_c, 1, 74, 0
2, 60800, Note_off_c, 1, 77, 0
2, 61080, Note_on_c, 1, 73, 127
2, 61080, Note_on_c, 1, 76, 127
2, 61280, Note_off_c, 1, 73, 0
2, 61280, Note_off_c, 1, 76, 0
2, 61560, Note_on_c, 1, 64, 127
2, 61560, Note_on_c, 1, 67, 127
2, 61600, Note_off_c, 1, 64, 0
2, 61600, Note_off_c, 1, 67, 0
2, 61720, Note_on_c, 1, 64, 127
2, 61720, Note_on_c, 1, 67, 127
2, 61720, Note_on_c, 1, 73, 127
2, 61760, Note_off_c, 1, 64, 0
2, 61760, Note_off_c, 1, 67, 0
2, 61760, Note_off_c, 1, 73, 0
2, 62000, Note_on_c, 1, 62, 127
2, 62000, Note_on_c, 1, 66, 127
2, 62000, Note_on_c, 1, 69, 127
2, 62360, Note_off_c, 1, 62, 0
2, 62360, Note_off_c, 1, 66, 0
2, 62360, Note_off_c, 1, 69, 0
2, 62440, Note_on_c, 1, 61, 127
2, 62440, Note_on_c, 1, 64, 127
2, 62440, Note_on_c, 1, 69, 127
2, 62800, Note_off_c, 1, 61, 0
2, 62800, Note_off_c, 1, 64, 0
2, 62800, Note_off_c, 1, 69, 0
2, 62840, Note_on_c, 1, 64, 127
2, 62840, Note_on_c, 1, 68, 127
2, 62840, Note_on_c, 1, 74, 127
2, 62880, Note_off_c, 1, 64, 0
2, 62880, Note_off_c, 1, 68, 0
2, 62880, Note_off_c, 1, 74, 0
2, 63120, Note_on_c, 1, 59, 127
2, 63120, Note_on_c, 1, 68, 127
2, 63120, Note_on_c, 1, 74, 127
2, 63160, Note_off_c, 1, 59, 0
2, 63160, Note_off_c, 1, 68, 0
2, 63160, Note_off_c, 1, 74, 0
2, 63520, Note_on_c, 1, 40, 127
2, 63520, Note_on_c, 1, 52, 127
2, 63520, Note_on_c, 1, 68, 127
2, 63520, Note_on_c, 1, 71, 127
2, 63520, Note_on_c, 1, 76, 127
2, 64080, Note_off_c, 1, 40, 0
2, 64080, Note_off_c, 1, 52, 0
2, 64080, Note_off_c, 1, 68, 0
2, 64080, Note_off_c, 1, 71, 0
2, 64080, Note_off_c, 1, 76, 0
2, 67200, Note_on_c, 1, 52, 127
2, 67560, Note_off_c, 1, 52, 0
2, 67600, Note_on_c, 1, 57, 127
2, 67600, Note_on_c, 1, 63, 127
2, 67600, Note_on_c, 1, 66, 127
2, 67960, Note_off_c, 1, 66, 0
2, 68360, Note_off_c, 1, 63, 0
2, 68400, Note_on_c, 1, 45, 127
2, 68400, Note_on_c, 1, 53, 127
2, 68400, Note_off_c, 1, 57, 0
2, 68400, Note_on_c, 1, 64, 127
2, 68760, Note_off_c, 1, 45, 0
2, 68800, Note_on_c, 1, 45, 127
2, 69160, Note_off_c, 1, 45, 0
2, 69160, Note_off_c, 1, 53, 0
2, 69160, Note_off_c, 1, 64, 0
2, 69240, Note_on_c, 1, 45, 127
2, 69240, Note_on_c, 1, 54, 127
2, 69240, Note_on_c, 1, 57, 127
2, 69240, Note_on_c, 1, 66, 127
2, 69600, Note_off_c, 1, 54, 0
2, 69600, Note_off_c, 1, 57, 0
2, 69600, Note_off_c, 1, 66, 0
2, 69640, Note_on_c, 1, 54, 127
2, 69640, Note_on_c, 1, 57, 127
2, 69640, Note_on_c, 1, 62, 127
2, 70000, Note_off_c, 1, 45, 0
2, 70040, Note_on_c, 1, 45, 127
2, 70040, Note_on_c, 1, 50, 127
2, 70040, Note_off_c, 1, 57, 0
2, 70200, Note_off_c, 1, 45, 0
2, 70200, Note_off_c, 1, 50, 0
2, 70200, Note_off_c, 1, 54, 0
2, 70200, Note_off_c, 1, 62, 0
2, 70840, Note_on_c, 1, 62, 127
2, 70840, Note_on_c, 1, 66, 127
2, 70840, Note_on_c, 1, 78, 127
2, 71400, Note_off_c, 1, 62, 0
2, 71400, Note_off_c, 1, 66, 0
2, 71400, Note_off_c, 1, 78, 0
2, 71440, Note_on_c, 1, 62, 127
2, 71440, Note_on_c, 1, 66, 127
2, 71440, Note_on_c, 1, 78, 127
2, 71640, Note_off_c, 1, 62, 0
2, 71640, Note_off_c, 1, 66, 0
2, 71640, Note_off_c, 1, 78, 0
2, 71680, Note_on_c, 1, 66, 127
2, 71680, Note_on_c, 1, 69, 127
2, 71680, Note_on_c, 1, 81, 127
2, 72040, Note_off_c, 1, 66, 0
2, 72040, Note_off_c, 1, 81, 0
2, 72080, Note_on_c, 1, 62, 127
2, 72080, Note_on_c, 1, 81, 127
2, 72400, Note_off_c, 1, 69, 0
2, 72400, Note_off_c, 1, 81, 0
2, 72440, Note_off_c, 1, 62, 0
2, 72480, Note_on_c, 1, 66, 127
2, 72480, Note_on_c, 1, 69, 127
2, 72480, Note_on_c, 1, 81, 127
2, 72840, Note_off_c, 1, 66, 0
2, 72840, Note_off_c, 1, 81, 0
2, 72880, Note_on_c, 1, 62, 127
2, 72880, Note_on_c, 1, 81, 127
2, 73200, Note_off_c, 1, 62, 0
2, 73240, Note_off_c, 1, 69, 0
2, 73240, Note_off_c, 1, 81, 0
2, 73280, Note_on_c, 1, 66, 127
2, 73280, Note_on_c, 1, 69, 127
2, 73280, Note_on_c, 1, 81, 127
2, 73640, Note_off_c, 1, 69, 0
2, 73640, Note_on_c, 1, 74, 127
2, 73640, Note_off_c, 1, 81, 0
2, 73680, Note_off_c, 1, 66, 0
2, 73680, Note_off_c, 1, 74, 0
2, 73720, Note_on_c, 1, 59, 127
2, 73720, Note_on_c, 1, 66, 127
2, 73720, Note_on_c, 1, 74, 127
2, 74080, Note_off_c, 1, 59, 0
2, 74080, Note_off_c, 1, 66, 0
2, 74080, Note_off_c, 1, 74, 0
2, 74120, Note_on_c, 1, 52, 127
2, 74120, Note_on_c, 1, 62, 127
2, 74120, Note_on_c, 1, 68, 127
2, 74120, Note_on_c, 1, 73, 127
2, 74280, Note_off_c, 1, 73, 0
2, 74320, Note_on_c, 1, 73, 127
2, 74400, Note_off_c, 1, 73, 0
2, 74480, Note_off_c, 1, 52, 0
2, 74480, Note_off_c, 1, 62, 0
2, 74480, Note_off_c, 1, 68, 0
2, 74520, Note_on_c, 1, 57, 127
2, 74520, Note_on_c, 1, 61, 127
2, 74520, Note_on_c, 1, 69, 127
2, 74880, Note_off_c, 1, 57, 0
2, 74880, Note_off_c, 1, 61, 0
2, 74880, Note_off_c, 1, 69, 0
2, 74920, Note_on_c, 1, 52, 127
2, 74920, Note_on_c, 1, 64, 127
2, 74920, Note_on_c, 1, 73, 127
2, 74920, Note_on_c, 1, 76, 127
2, 75280, Note_off_c, 1, 52, 0
2, 75280, Note_off_c, 1, 64, 0
2, 75280, Note_off_c, 1, 73, 0
2, 75280, Note_off_c, 1, 76, 0
2, 75320, Note_on_c, 1, 52, 127
2, 75320, Note_on_c, 1, 64, 127
2, 75320, Note_on_c, 1, 73, 127
2, 75320, Note_on_c, 1, 76, 127
2, 75680, Note_off_c, 1, 52, 0
2, 75680, Note_off_c, 1, 64, 0
2, 75680, Note_off_c, 1, 73, 0
2, 75680, Note_off_c, 1, 76, 0
2, 75760, Note_on_c, 1, 52, 127
2, 75760, Note_on_c, 1, 64, 127
2, 75760, Note_on_c, 1, 73, 127
2, 75760, Note_on_c, 1, 76, 127
2, 76120, Note_off_c, 1, 52, 0
2, 76120, Note_off_c, 1, 64, 0
2, 76120, Note_off_c, 1, 73, 0
2, 76120, Note_off_c, 1, 76, 0
2, 76160, Note_on_c, 1, 45, 127
2, 76160, Note_on_c, 1, 52, 127
2, 76160, Note_on_c, 1, 61, 127
2, 76160, Note_on_c, 1, 64, 127
2, 76160, Note_on_c, 1, 73, 127
2, 76920, Note_off_c, 1, 45, 0
2, 76920, Note_off_c, 1, 52, 0
2, 76920, Note_off_c, 1, 61, 0
2, 76920, Note_off_c, 1, 64, 0
2, 76920, Note_off_c, 1, 73, 0
2, 76960, Note_on_c, 1, 45, 127
2, 76960, Note_on_c, 1, 52, 127
2, 76960, Note_on_c, 1, 62, 127
2, 76960, Note_on_c, 1, 64, 127
2, 76960, Note_on_c, 1, 74, 127
2, 77320, Note_off_c, 1, 45, 0
2, 77320, Note_off_c, 1, 52, 0
2, 77320, Note_off_c, 1, 62, 0
2, 77320, Note_off_c, 1, 64, 0
2, 77320, Note_off_c, 1, 74, 0
2, 77360, Note_on_c, 1, 50, 127
2, 77360, Note_on_c, 1, 52, 127
2, 77360, Note_on_c, 1, 61, 127
2, 77360, Note_on_c, 1, 64, 127
2, 77360, Note_on_c, 1, 73, 127
2, 77680, Note_off_c, 1, 50, 0
2, 77680, Note_off_c, 1, 52, 0
2, 77680, Note_off_c, 1, 61, 0
2, 77680, Note_off_c, 1, 64, 0
2, 77680, Note_off_c, 1, 73, 0
2, 77720, Note_on_c, 1, 50, 127
2, 77720, Note_on_c, 1, 52, 127
2, 77720, Note_on_c, 1, 61, 127
2, 77720, Note_on_c, 1, 64, 127
2, 77720, Note_on_c, 1, 73, 127
2, 77760, Note_off_c, 1, 50, 0
2, 77760, Note_off_c, 1, 52, 0
2, 77760, Note_off_c, 1, 61, 0
2, 77760, Note_off_c, 1, 64, 0
2, 77760, Note_off_c, 1, 73, 0
2, 77800, Note_on_c, 1, 49, 127
2, 77800, Note_on_c, 1, 52, 127
2, 77800, Note_on_c, 1, 59, 127
2, 77800, Note_on_c, 1, 64, 127
2, 77800, Note_on_c, 1, 71, 127
2, 78160, Note_off_c, 1, 49, 0
2, 78160, Note_off_c, 1, 52, 0
2, 78160, Note_off_c, 1, 59, 0
2, 78160, Note_off_c, 1, 64, 0
2, 78160, Note_off_c, 1, 71, 0
2, 78200, Note_on_c, 1, 49, 127
2, 78200, Note_on_c, 1, 52, 127
2, 78200, Note_on_c, 1, 59, 127
2, 78200, Note_on_c, 1, 64, 127
2, 78200, Note_on_c, 1, 71, 127
2, 78560, Note_off_c, 1, 52, 0
2, 78560, Note_off_c, 1, 59, 0
2, 78560, Note_off_c, 1, 64, 0
2, 78560, Note_off_c, 1, 71, 0
2, 78600, Note_on_c, 1, 52, 127
2, 78600, Note_on_c, 1, 71, 127
2, 78800, Note_on_c, 1, 68, 127
2, 78800, Note_off_c, 1, 71, 0
2, 78960, Note_off_c, 1, 49, 0
2, 78960, Note_off_c, 1, 52, 0
2, 78960, Note_off_c, 1, 68, 0
2, 79000, Note_on_c, 1, 50, 127
2, 79000, Note_on_c, 1, 54, 127
2, 79000, Note_on_c, 1, 66, 127
2, 79000, Note_on_c, 1, 69, 127
2, 79360, Note_off_c, 1, 50, 0
2, 79360, Note_off_c, 1, 54, 0
2, 79360, Note_on_c, 1, 62, 127
2, 79360, Note_off_c, 1, 66, 0
2, 79360, Note_off_c, 1, 69, 0
2, 79400, Note_on_c, 1, 51, 127
2, 79400, Note_on_c, 1, 57, 127
2, 79400, Note_on_c, 1, 59, 127
2, 79400, Note_off_c, 1, 62, 0
2, 79400, Note_on_c, 1, 66, 127
2, 79720, Note_off_c, 1, 51, 0
2, 79720, Note_off_c, 1, 57, 0
2, 79720, Note_off_c, 1, 59, 0
2, 79720, Note_off_c, 1, 66, 0
2, 79760, Note_on_c, 1, 51, 127
2, 79760, Note_on_c, 1, 57, 127
2, 79760, Note_on_c, 1, 59, 127
2, 79760, Note_on_c, 1, 66, 127
2, 79800, Note_off_c, 1, 51, 0
2, 79800, Note_off_c, 1, 57, 0
2, 79800, Note_off_c, 1, 59, 0
2, 79800, Note_off_c, 1, 66, 0
2, 79840, Note_on_c, 1, 38, 127
2, 79840, Note_on_c, 1, 50, 127
2, 79840, Note_on_c, 1, 57, 127
2, 79840, Note_on_c, 1, 66, 127
2, 79840, Note_on_c, 1, 69, 127
2, 80600, Note_off_c, 1, 38, 0
2, 80600, Note_off_c, 1, 50, 0
2, 80600, Note_off_c, 1, 57, 0
2, 80600, Note_off_c, 1, 66, 0
2, 80600, Note_off_c, 1, 69, 0
2, 80640, Note_on_c, 1, 54, 127
2, 80640, Note_on_c, 1, 66, 127
2, 81040, Note_off_c, 1, 54, 0
2, 81040, Note_off_c, 1, 66, 0
2, 81920, Note_on_c, 1, 47, 127
2, 81920, Note_on_c, 1, 59, 127
2, 82680, Note_off_c, 1, 47, 0
2, 82680, Note_off_c, 1, 59, 0
2, 82720, Note_on_c, 1, 48, 127
2, 82720, Note_on_c, 1, 60, 127
2, 83080, Note_off_c, 1, 48, 0
2, 83080, Note_off_c, 1, 60, 0
2, 83120, Note_on_c, 1, 50, 127
2, 83120, Note_on_c, 1, 62, 127
2, 83480, Note_off_c, 1, 50, 0
2, 83480, Note_off_c, 1, 62, 0
2, 83520, Note_on_c, 1, 47, 127
2, 83520, Note_on_c, 1, 59, 127
2, 83880, Note_off_c, 1, 47, 0
2, 83880, Note_off_c, 1, 59, 0
2, 83920, Note_on_c, 1, 48, 127
2, 83920, Note_on_c, 1, 60, 127
2, 84080, Note_off_c, 1, 48, 0
2, 84080, Note_off_c, 1, 60, 0
2, 84120, Note_on_c, 1, 48, 127
2, 84120, Note_on_c, 1, 60, 127
2, 84320, Note_off_c, 1, 48, 0
2, 84320, Note_off_c, 1, 60, 0
2, 84360, Note_on_c, 1, 47, 127
2, 84360, Note_on_c, 1, 59, 127
2, 84720, Note_off_c, 1, 47, 0
2, 84720, Note_off_c, 1, 59, 0
2, 84760, Note_on_c, 1, 48, 127
2, 84760, Note_on_c, 1, 60, 127
2, 85120, Note_off_c, 1, 48, 0
2, 85120, Note_off_c, 1, 60, 0
2, 85160, Note_on_c, 1, 49, 127
2, 85160, Note_on_c, 1, 61, 127
2, 85520, Note_off_c, 1, 49, 0
2, 85520, Note_off_c, 1, 61, 0
2, 85560, Note_on_c, 1, 50, 127
2, 85560, Note_on_c, 1, 62, 127
2, 85920, Note_off_c, 1, 50, 0
2, 85920, Note_off_c, 1, 62, 0
2, 85960, Note_on_c, 1, 46, 127
2, 85960, Note_on_c, 1, 58, 127
2, 86120, Note_off_c, 1, 46, 0
2, 86120, Note_off_c, 1, 58, 0
2, 86160, Note_on_c, 1, 46, 127
2, 86160, Note_on_c, 1, 58, 127
2, 86360, Note_off_c, 1, 46, 0
2, 86360, Note_off_c, 1, 58, 0
2, 86400, Note_on_c, 1, 47, 127
2, 86400, Note_on_c, 1, 59, 127
2, 86760, Note_off_c, 1, 47, 0
2, 86760, Note_off_c, 1, 59, 0
2, 86800, Note_on_c, 1, 46, 127
2, 86800, Note_on_c, 1, 58, 127
2, 87160, Note_off_c, 1, 46, 0
2, 87160, Note_off_c, 1, 58, 0
2, 87200, Note_on_c, 1, 52, 127
2, 87200, Note_on_c, 1, 64, 127
2, 87560, Note_off_c, 1, 52, 0
2, 87560, Note_off_c, 1, 64, 0
2, 87600, Note_on_c, 1, 50, 127
2, 87600, Note_on_c, 1, 62, 127
2, 87960, Note_off_c, 1, 50, 0
2, 87960, Note_off_c, 1, 62, 0
2, 88000, Note_on_c, 1, 46, 127
2, 88000, Note_on_c, 1, 58, 127
2, 88120, Note_off_c, 1, 46, 0
2, 88120, Note_off_c, 1, 58, 0
2, 88160, Note_on_c, 1, 46, 127
2, 88160, Note_on_c, 1, 58, 127
2, 88400, Note_off_c, 1, 46, 0
2, 88400, Note_off_c, 1, 58, 0
2, 88440, Note_on_c, 1, 45, 127
2, 88440, Note_on_c, 1, 57, 127
2, 88800, Note_off_c, 1, 45, 0
2, 88800, Note_off_c, 1, 57, 0
2, 88840, Note_on_c, 1, 46, 127
2, 88840, Note_on_c, 1, 58, 127
2, 89200, Note_off_c, 1, 46, 0
2, 89200, Note_off_c, 1, 58, 0
2, 89240, Note_on_c, 1, 45, 127
2, 89240, Note_on_c, 1, 57, 127
2, 89600, Note_off_c, 1, 45, 0
2, 89600, Note_off_c, 1, 57, 0
2, 89640, Note_on_c, 1, 46, 127
2, 89640, Note_on_c, 1, 58, 127
2, 89800, Note_off_c, 1, 46, 0
2, 89800, Note_off_c, 1, 58, 0
2, 90080, Note_on_c, 1, 47, 127
2, 90080, Note_on_c, 1, 59, 127
2, 90320, Note_off_c, 1, 47, 0
2, 90320, Note_off_c, 1, 59, 0
2, 90480, Note_on_c, 1, 49, 127
2, 90480, Note_on_c, 1, 61, 127
2, 90720, Note_off_c, 1, 49, 0
2, 90720, Note_off_c, 1, 61, 0
2, 90880, Note_on_c, 1, 50, 127
2, 90880, Note_on_c, 1, 62, 127
2, 90920, Note_off_c, 1, 50, 0
2, 90920, Note_off_c, 1, 62, 0
2, 91280, Note_on_c, 1, 49, 127
2, 91280, Note_on_c, 1, 61, 127
2, 91640, Note_off_c, 1, 49, 0
2, 91640, Note_off_c, 1, 61, 0
2, 91680, Note_on_c, 1, 45, 127
2, 91680, Note_on_c, 1, 57, 127
2, 91920, Note_off_c, 1, 45, 0
2, 91920, Note_off_c, 1, 57, 0
2, 92120, Note_on_c, 1, 45, 127
2, 92120, Note_on_c, 1, 57, 127
2, 92160, Note_off_c, 1, 45, 0
2, 92160, Note_off_c, 1, 57, 0
2, 92320, Note_on_c, 1, 45, 127
2, 92320, Note_on_c, 1, 57, 127
2, 92360, Note_off_c, 1, 45, 0
2, 92360, Note_off_c, 1, 57, 0
2, 92400, Note_on_c, 1, 46, 127
2, 92400, Note_on_c, 1, 58, 127
2, 92440, Note_off_c, 1, 46, 0
2, 92440, Note_off_c, 1, 58, 0
2, 92520, Note_on_c, 1, 49, 127
2, 92520, Note_on_c, 1, 61, 127
2, 92560, Note_off_c, 1, 49, 0
2, 92560, Note_off_c, 1, 61, 0
2, 92720, Note_on_c, 1, 46, 127
2, 92720, Note_on_c, 1, 58, 127
2, 92760, Note_off_c, 1, 46, 0
2, 92760, Note_off_c, 1, 58, 0
2, 92920, Note_on_c, 1, 50, 127
2, 92920, Note_on_c, 1, 62, 127
2, 92960, Note_off_c, 1, 50, 0
2, 92960, Note_off_c, 1, 62, 0
2, 93120, Note_on_c, 1, 49, 127
2, 93120, Note_on_c, 1, 61, 127
2, 93160, Note_off_c, 1, 49, 0
2, 93160, Note_off_c, 1, 61, 0
2, 93320, Note_on_c, 1, 50, 127
2, 93320, Note_on_c, 1, 62, 127
2, 93360, Note_off_c, 1, 50, 0
2, 93360, Note_off_c, 1, 62, 0
2, 93520, Note_on_c, 1, 49, 127
2, 93520, Note_on_c, 1, 61, 127
2, 93560, Note_off_c, 1, 49, 0
2, 93560, Note_off_c, 1, 61, 0
2, 93720, Note_on_c, 1, 50, 127
2, 93720, Note_on_c, 1, 62, 127
2, 93760, Note_off_c, 1, 50, 0
2, 93760, Note_off_c, 1, 62, 0
2, 93920, Note_on_c, 1, 62, 127
2, 93920, Note_on_c, 1, 74, 127
2, 93960, Note_off_c, 1, 62, 0
2, 93960, Note_off_c, 1, 74, 0
2, 94160, Note_on_c, 1, 62, 127
2, 94160, Note_on_c, 1, 74, 127
2, 94200, Note_off_c, 1, 62, 0
2, 94200, Note_off_c, 1, 74, 0
2, 94360, Note_on_c, 1, 61, 127
2, 94360, Note_on_c, 1, 73, 127
2, 94400, Note_off_c, 1, 61, 0
2, 94400, Note_off_c, 1, 73, 0
2, 94560, Note_on_c, 1, 62, 127
2, 94560, Note_on_c, 1, 74, 127
2, 94600, Note_off_c, 1, 62, 0
2, 94600, Note_off_c, 1, 74, 0
2, 94760, Note_on_c, 1, 67, 127
2, 94760, Note_on_c, 1, 79, 127
2, 94800, Note_off_c, 1, 67, 0
2, 94800, Note_off_c, 1, 79, 0
2, 94960, Note_on_c, 1, 70, 127
2, 94960, Note_on_c, 1, 82, 127
2, 95000, Note_off_c, 1, 70, 0
2, 95000, Note_off_c, 1, 82, 0
2, 95160, Note_on_c, 1, 67, 127
2, 95160, Note_on_c, 1, 79, 127
2, 95200, Note_off_c, 1, 67, 0
2, 95200, Note_off_c, 1, 79, 0
2, 95360, Note_on_c, 1, 64, 127
2, 95360, Note_on_c, 1, 76, 127
2, 95400, Note_off_c, 1, 64, 0
2, 95400, Note_off_c, 1, 76, 0
2, 95560, Note_on_c, 1, 65, 127
2, 95560, Note_on_c, 1, 77, 127
2, 95600, Note_off_c, 1, 65, 0
2, 95600, Note_off_c, 1, 77, 0
2, 95760, Note_on_c, 1, 66, 127
2, 95760, Note_on_c, 1, 78, 127
2, 95800, Note_off_c, 1, 66, 0
2, 95800, Note_off_c, 1, 78, 0
2, 95960, Note_on_c, 1, 66, 127
2, 95960, Note_on_c, 1, 78, 127
2, 96000, Note_off_c, 1, 66, 0
2, 96000, Note_off_c, 1, 78, 0
2, 96200, Note_on_c, 1, 69, 127
2, 96200, Note_on_c, 1, 81, 127
2, 96240, Note_off_c, 1, 69, 0
2, 96240, Note_off_c, 1, 81, 0
2, 96400, Note_on_c, 1, 67, 127
2, 96400, Note_on_c, 1, 79, 127
2, 96440, Note_off_c, 1, 67, 0
2, 96440, Note_off_c, 1, 79, 0
2, 96600, Note_on_c, 1, 68, 127
2, 96600, Note_on_c, 1, 80, 127
2, 96640, Note_off_c, 1, 68, 0
2, 96640, Note_off_c, 1, 80, 0
2, 96800, Note_on_c, 1, 69, 127
2, 96800, Note_on_c, 1, 81, 127
2, 96840, Note_off_c, 1, 69, 0
2, 96840, Note_off_c, 1, 81, 0
2, 97000, Note_on_c, 1, 70, 127
2, 97000, Note_on_c, 1, 82, 127
2, 97040, Note_off_c, 1, 70, 0
2, 97040, Note_off_c, 1, 82, 0
2, 97200, Note_on_c, 1, 69, 127
2, 97200, Note_on_c, 1, 81, 127
2, 97240, Note_off_c, 1, 69, 0
2, 97240, Note_off_c, 1, 81, 0
2, 97400, Note_on_c, 1, 69, 127
2, 97400, Note_on_c, 1, 81, 127
2, 97440, Note_off_c, 1, 69, 0
2, 97440, Note_off_c, 1, 81, 0
2, 97600, Note_on_c, 1, 86, 127
2, 97640, Note_off_c, 1, 86, 0
2, 97800, Note_on_c, 1, 64, 127
2, 97800, Note_on_c, 1, 76, 127
2, 97840, Note_off_c, 1, 64, 0
2, 97840, Note_off_c, 1, 76, 0
2, 98000, Note_on_c, 1, 64, 127
2, 98000, Note_on_c, 1, 76, 127
2, 98040, Note_off_c, 1, 64, 0
2, 98040, Note_off_c, 1, 76, 0
2, 98240, Note_on_c, 1, 86, 127
2, 98280, Note_off_c, 1, 86, 0
2, 98440, Note_on_c, 1, 85, 127
2, 98480, Note_off_c, 1, 85, 0
2, 98520, Note_on_c, 1, 86, 127
2, 98600, Note_off_c, 1, 86, 0
2, 98640, Note_on_c, 1, 76, 127
2, 98680, Note_off_c, 1, 76, 0
2, 98720, Note_on_c, 1, 85, 127
2, 98800, Note_off_c, 1, 85, 0
2, 98840, Note_on_c, 1, 77, 127
2, 98880, Note_off_c, 1, 77, 0
2, 98920, Note_on_c, 1, 79, 127
2, 99000, Note_off_c, 1, 79, 0
2, 99040, Note_on_c, 1, 80, 127
2, 99080, Note_off_c, 1, 80, 0
2, 99120, Note_on_c, 1, 81, 127
2, 99200, Note_off_c, 1, 81, 0
2, 99240, Note_on_c, 1, 79, 127
2, 99280, Note_off_c, 1, 79, 0
2, 99320, Note_on_c, 1, 81, 127
2, 99400, Note_off_c, 1, 81, 0
2, 99440, Note_on_c, 1, 81, 127
2, 99480, Note_off_c, 1, 81, 0
2, 99520, Note_on_c, 1, 80, 127
2, 99600, Note_off_c, 1, 80, 0
2, 99640, Note_on_c, 1, 81, 127
2, 99680, Note_off_c, 1, 81, 0
2, 99720, Note_on_c, 1, 79, 127
2, 99800, Note_off_c, 1, 79, 0
2, 99840, Note_on_c, 1, 78, 127
2, 99880, Note_off_c, 1, 78, 0
2, 99920, Note_on_c, 1, 76, 127
2, 100000, Note_off_c, 1, 76, 0
2, 100040, Note_on_c, 1, 75, 127
2, 100080, Note_off_c, 1, 75, 0
2, 100120, Note_on_c, 1, 76, 127
2, 100200, Note_off_c, 1, 76, 0
2, 100240, Note_on_c, 1, 79, 127
2, 100280, Note_off_c, 1, 79, 0
2, 100320, Note_on_c, 1, 82, 127
2, 100400, Note_off_c, 1, 82, 0
2, 100440, Note_on_c, 1, 83, 127
2, 100480, Note_off_c, 1, 83, 0
2, 100560, Note_on_c, 1, 82, 127
2, 100640, Note_off_c, 1, 82, 0
2, 100680, Note_on_c, 1, 79, 127
2, 100720, Note_off_c, 1, 79, 0
2, 100760, Note_on_c, 1, 76, 127
2, 100840, Note_off_c, 1, 76, 0
2, 100880, Note_on_c, 1, 74, 127
2, 101440, Note_off_c, 1, 74, 0
2, 101480, Note_on_c, 1, 73, 127
2, 101640, Note_off_c, 1, 73, 0
2, 101680, Note_on_c, 1, 74, 127
2, 101840, Note_off_c, 1, 74, 0
2, 101880, Note_on_c, 1, 76, 127
2, 102240, Note_off_c, 1, 76, 0
2, 102280, Note_on_c, 1, 74, 127
2, 102440, Note_off_c, 1, 74, 0
2, 102520, Note_on_c, 1, 73, 127
2, 102880, Note_off_c, 1, 73, 0
2, 102920, Note_on_c, 1, 54, 127
2, 102920, Note_on_c, 1, 66, 127
2, 103280, Note_off_c, 1, 54, 0
2, 103280, Note_off_c, 1, 66, 0
2, 103320, Note_on_c, 1, 56, 127
2, 103320, Note_on_c, 1, 68, 127
2, 104080, Note_off_c, 1, 56, 0
2, 104080, Note_off_c, 1, 68, 0
2, 104120, Note_on_c, 1, 49, 127
2, 104120, Note_on_c, 1, 56, 127
2, 104120, Note_on_c, 1, 61, 127
2, 104120, Note_on_c, 1, 65, 127
2, 104120, Note_on_c, 1, 68, 127
2, 104480, Note_off_c, 1, 49, 0
2, 104480, Note_off_c, 1, 56, 0
2, 104480, Note_off_c, 1, 61, 0
2, 104480, Note_off_c, 1, 65, 0
2, 104480, Note_off_c, 1, 68, 0
2, 104560, Note_on_c, 1, 54, 127
2, 104560, Note_on_c, 1, 61, 127
2, 104560, Note_on_c, 1, 66, 127
2, 104560, Note_on_c, 1, 70, 127
2, 104920, Note_off_c, 1, 54, 0
2, 104920, Note_off_c, 1, 61, 0
2, 104920, Note_off_c, 1, 66, 0
2, 104920, Note_off_c, 1, 70, 0
2, 104960, Note_on_c, 1, 54, 127
2, 104960, Note_on_c, 1, 66, 127
2, 104960, Note_on_c, 1, 70, 127
2, 104960, Note_on_c, 1, 73, 127
2, 105120, Note_off_c, 1, 54, 0
2, 105120, Note_off_c, 1, 66, 0
2, 105120, Note_off_c, 1, 70, 0
2, 105120, Note_off_c, 1, 73, 0
2, 105160, Note_on_c, 1, 59, 127
2, 105160, Note_on_c, 1, 71, 127
2, 105320, Note_off_c, 1, 59, 0
2, 105320, Note_off_c, 1, 71, 0
2, 105360, Note_on_c, 1, 54, 127
2, 105360, Note_on_c, 1, 66, 127
2, 105520, Note_off_c, 1, 54, 0
2, 105520, Note_off_c, 1, 66, 0
2, 105560, Note_on_c, 1, 52, 127
2, 105560, Note_on_c, 1, 64, 127
2, 105720, Note_off_c, 1, 52, 0
2, 105720, Note_off_c, 1, 64, 0
2, 105760, Note_on_c, 1, 54, 127
2, 105760, Note_on_c, 1, 66, 127
2, 105920, Note_off_c, 1, 54, 0
2, 105920, Note_off_c, 1, 66, 0
2, 105960, Note_on_c, 1, 62, 127
2, 105960, Note_on_c, 1, 74, 127
2, 106120, Note_off_c, 1, 62, 0
2, 106120, Note_off_c, 1, 74, 0
2, 106160, Note_on_c, 1, 59, 127
2, 106160, Note_on_c, 1, 71, 127
2, 106360, Note_off_c, 1, 59, 0
2, 106360, Note_off_c, 1, 71, 0
2, 106400, Note_on_c, 1, 66, 127
2, 106400, Note_on_c, 1, 78, 127
2, 106560, Note_off_c, 1, 66, 0
2, 106560, Note_off_c, 1, 78, 0
2, 106640, Note_on_c, 1, 66, 127
2, 106640, Note_on_c, 1, 78, 127
2, 107000, Note_off_c, 1, 66, 0
2, 107000, Note_off_c, 1, 78, 0
2, 107040, Note_on_c, 1, 54, 127
2, 107040, Note_on_c, 1, 58, 127
2, 107040, Note_on_c, 1, 61, 127
2, 107040, Note_on_c, 1, 66, 127
2, 107040, Note_on_c, 1, 70, 127
2, 107040, Note_on_c, 1, 73, 127
2, 107200, Note_off_c, 1, 54, 0
2, 107200, Note_off_c, 1, 58, 0
2, 107200, Note_off_c, 1, 61, 0
2, 107200, Note_off_c, 1, 66, 0
2, 107200, Note_off_c, 1, 70, 0
2, 107200, Note_off_c, 1, 73, 0
2, 107240, Note_on_c, 1, 66, 127
2, 107240, Note_on_c, 1, 78, 127
2, 107400, Note_off_c, 1, 66, 0
2, 107400, Note_off_c, 1, 78, 0
2, 107440, Note_on_c, 1, 63, 127
2, 107440, Note_on_c, 1, 75, 127
2, 107600, Note_off_c, 1, 63, 0
2, 107600, Note_off_c, 1, 75, 0
2, 107640, Note_on_c, 1, 61, 127
2, 107640, Note_on_c, 1, 73, 127
2, 107800, Note_off_c, 1, 61, 0
2, 107800, Note_off_c, 1, 73, 0
2, 107840, Note_on_c, 1, 59, 127
2, 107840, Note_on_c, 1, 71, 127
2, 108000, Note_off_c, 1, 59, 0
2, 108000, Note_off_c, 1, 71, 0
2, 108040, Note_on_c, 1, 58, 127
2, 108040, Note_on_c, 1, 70, 127
2, 108200, Note_off_c, 1, 58, 0
2, 108200, Note_off_c, 1, 70, 0
2, 108240, Note_on_c, 1, 54, 127
2, 108240, Note_on_c, 1, 66, 127
2, 108400, Note_off_c, 1, 54, 0
2, 108400, Note_off_c, 1, 66, 0
2, 108440, Note_on_c, 1, 51, 127
2, 108440, Note_on_c, 1, 63, 127
2, 108600, Note_off_c, 1, 51, 0
2, 108600, Note_off_c, 1, 63, 0
2, 108680, Note_on_c, 1, 54, 127
2, 108680, Note_on_c, 1, 66, 127
2, 108840, Note_off_c, 1, 54, 0
2, 108840, Note_off_c, 1, 66, 0
2, 108880, Note_on_c, 1, 52, 127
2, 108880, Note_on_c, 1, 64, 127
2, 109040, Note_off_c, 1, 52, 0
2, 109040, Note_off_c, 1, 64, 0
2, 109080, Note_on_c, 1, 51, 127
2, 109080, Note_on_c, 1, 63, 127
2, 109240, Note_off_c, 1, 51, 0
2, 109240, Note_off_c, 1, 63, 0
2, 109280, Note_on_c, 1, 59, 127
2, 109280, Note_on_c, 1, 71, 127
2, 109440, Note_off_c, 1, 59, 0
2, 109440, Note_off_c, 1, 71, 0
2, 109480, Note_on_c, 1, 58, 127
2, 109480, Note_on_c, 1, 70, 127
2, 109640, Note_off_c, 1, 58, 0
2, 109640, Note_off_c, 1, 70, 0
2, 109680, Note_on_c, 1, 54, 127
2, 109680, Note_on_c, 1, 66, 127
2, 109840, Note_off_c, 1, 54, 0
2, 109840, Note_off_c, 1, 66, 0
2, 109880, Note_on_c, 1, 51, 127
2, 109880, Note_on_c, 1, 63, 127
2, 110040, Note_off_c, 1, 51, 0
2, 110040, Note_off_c, 1, 63, 0
2, 110080, Note_on_c, 1, 59, 127
2, 110080, Note_on_c, 1, 71, 127
2, 110240, Note_off_c, 1, 59, 0
2, 110240, Note_off_c, 1, 71, 0
2, 110280, Note_on_c, 1, 63, 127
2, 110280, Note_on_c, 1, 75, 127
2, 110440, Note_off_c, 1, 63, 0
2, 110440, Note_off_c, 1, 75, 0
2, 110480, Note_on_c, 1, 63, 127
2, 110480, Note_on_c, 1, 75, 127
2, 110640, Note_off_c, 1, 63, 0
2, 110640, Note_off_c, 1, 75, 0
2, 110720, Note_on_c, 1, 63, 127
2, 110720, Note_on_c, 1, 75, 127
2, 110880, Note_off_c, 1, 63, 0
2, 110880, Note_off_c, 1, 75, 0
2, 110920, Note_on_c, 1, 63, 127
2, 110920, Note_on_c, 1, 75, 127
2, 111080, Note_off_c, 1, 63, 0
2, 111080, Note_off_c, 1, 75, 0
2, 111120, Note_on_c, 1, 59, 127
2, 111120, Note_on_c, 1, 71, 127
2, 111280, Note_off_c, 1, 59, 0
2, 111280, Note_off_c, 1, 71, 0
2, 111320, Note_on_c, 1, 63, 127
2, 111320, Note_on_c, 1, 75, 127
2, 111480, Note_off_c, 1, 63, 0
2, 111480, Note_off_c, 1, 75, 0
2, 111520, Note_on_c, 1, 63, 127
2, 111520, Note_on_c, 1, 75, 127
2, 111680, Note_off_c, 1, 63, 0
2, 111680, Note_off_c, 1, 75, 0
2, 111720, Note_on_c, 1, 63, 127
2, 111720, Note_on_c, 1, 75, 127
2, 111880, Note_off_c, 1, 63, 0
2, 111880, Note_off_c, 1, 75, 0
2, 111920, Note_on_c, 1, 63, 127
2, 111920, Note_on_c, 1, 75, 127
2, 112080, Note_off_c, 1, 63, 0
2, 112080, Note_off_c, 1, 75, 0
2, 112120, Note_on_c, 1, 59, 127
2, 112120, Note_on_c, 1, 71, 127
2, 112280, Note_off_c, 1, 59, 0
2, 112280, Note_off_c, 1, 71, 0
2, 112320, Note_on_c, 1, 63, 127
2, 112320, Note_on_c, 1, 75, 127
2, 112680, Note_off_c, 1, 63, 0
2, 112680, Note_off_c, 1, 75, 0
2, 112760, Note_on_c, 1, 63, 127
2, 112760, Note_on_c, 1, 75, 127
2, 112920, Note_off_c, 1, 63, 0
2, 112920, Note_off_c, 1, 75, 0
2, 112960, Note_on_c, 1, 64, 127
2, 112960, Note_on_c, 1, 76, 127
2, 113120, Note_off_c, 1, 64, 0
2, 113120, Note_off_c, 1, 76, 0
2, 113160, Note_on_c, 1, 63, 127
2, 113160, Note_on_c, 1, 75, 127
2, 113320, Note_off_c, 1, 63, 0
2, 113320, Note_off_c, 1, 75, 0
2, 113360, Note_on_c, 1, 61, 127
2, 113360, Note_on_c, 1, 73, 127
2, 113520, Note_off_c, 1, 61, 0
2, 113520, Note_off_c, 1, 73, 0
2, 113560, Note_on_c, 1, 59, 127
2, 113560, Note_on_c, 1, 71, 127
2, 113720, Note_off_c, 1, 59, 0
2, 113720, Note_off_c, 1, 71, 0
2, 113760, Note_on_c, 1, 56, 127
2, 113760, Note_on_c, 1, 68, 127
2, 113920, Note_off_c, 1, 56, 0
2, 113920, Note_off_c, 1, 68, 0
2, 113960, Note_on_c, 1, 53, 127
2, 113960, Note_on_c, 1, 65, 127
2, 114120, Note_off_c, 1, 53, 0
2, 114120, Note_off_c, 1, 65, 0
2, 114160, Note_on_c, 1, 51, 127
2, 114160, Note_on_c, 1, 63, 127
2, 114320, Note_off_c, 1, 51, 0
2, 114320, Note_off_c, 1, 63, 0
2, 114360, Note_on_c, 1, 49, 127
2, 114360, Note_on_c, 1, 61, 127
2, 114520, Note_off_c, 1, 49, 0
2, 114520, Note_off_c, 1, 61, 0
2, 114560, Note_on_c, 1, 51, 127
2, 114560, Note_on_c, 1, 63, 127
2, 114760, Note_off_c, 1, 51, 0
2, 114760, Note_off_c, 1, 63, 0
2, 114840, Note_on_c, 1, 51, 127
2, 114840, Note_on_c, 1, 63, 127
2, 115000, Note_off_c, 1, 51, 0
2, 115000, Note_off_c, 1, 63, 0
2, 115040, Note_on_c, 1, 49, 127
2, 115040, Note_on_c, 1, 61, 127
2, 115200, Note_off_c, 1, 49, 0
2, 115200, Note_off_c, 1, 61, 0
2, 115240, Note_on_c, 1, 51, 127
2, 115240, Note_on_c, 1, 63, 127
2, 115400, Note_off_c, 1, 51, 0
2, 115400, Note_off_c, 1, 63, 0
2, 115440, Note_on_c, 1, 49, 127
2, 115440, Note_on_c, 1, 61, 127
2, 115600, Note_off_c, 1, 49, 0
2, 115600, Note_off_c, 1, 61, 0
2, 115640, Note_on_c, 1, 51, 127
2, 115640, Note_on_c, 1, 63, 127
2, 115800, Note_off_c, 1, 51, 0
2, 115800, Note_off_c, 1, 63, 0
2, 115840, Note_on_c, 1, 49, 127
2, 115840, Note_on_c, 1, 61, 127
2, 116000, Note_off_c, 1, 49, 0
2, 116000, Note_off_c, 1, 61, 0
2, 116040, Note_on_c, 1, 54, 127
2, 116040, Note_on_c, 1, 66, 127
2, 116200, Note_off_c, 1, 54, 0
2, 116200, Note_off_c, 1, 66, 0
2, 116240, Note_on_c, 1, 56, 127
2, 116240, Note_on_c, 1, 68, 127
2, 116400, Note_off_c, 1, 56, 0
2, 116400, Note_off_c, 1, 68, 0
2, 116440, Note_on_c, 1, 52, 127
2, 116440, Note_on_c, 1, 64, 127
2, 116600, Note_off_c, 1, 52, 0
2, 116600, Note_off_c, 1, 64, 0
2, 116640, Note_on_c, 1, 51, 127
2, 116640, Note_on_c, 1, 63, 127
2, 116800, Note_off_c, 1, 51, 0
2, 116800, Note_off_c, 1, 63, 0
2, 116880, Note_on_c, 1, 49, 127
2, 116880, Note_on_c, 1, 61, 127
2, 117040, Note_off_c, 1, 49, 0
2, 117040, Note_off_c, 1, 61, 0
2, 117080, Note_on_c, 1, 61, 127
2, 117080, Note_on_c, 1, 73, 127
2, 117240, Note_off_c, 1, 61, 0
2, 117240, Note_off_c, 1, 73, 0
2, 117280, Note_on_c, 1, 59, 127
2, 117280, Note_on_c, 1, 71, 127
2, 117440, Note_off_c, 1, 59, 0
2, 117440, Note_off_c, 1, 71, 0
2, 117480, Note_on_c, 1, 56, 127
2, 117480, Note_on_c, 1, 68, 127
2, 117640, Note_off_c, 1, 56, 0
2, 117640, Note_off_c, 1, 68, 0
2, 117680, Note_on_c, 1, 54, 127
2, 117680, Note_on_c, 1, 66, 127
2, 117840, Note_off_c, 1, 54, 0
2, 117840, Note_off_c, 1, 66, 0
2, 117880, Note_on_c, 1, 59, 127
2, 117880, Note_on_c, 1, 71, 127
2, 118040, Note_off_c, 1, 59, 0
2, 118040, Note_off_c, 1, 71, 0
2, 118080, Note_on_c, 1, 51, 127
2, 118080, Note_on_c, 1, 63, 127
2, 118240, Note_off_c, 1, 51, 0
2, 118240, Note_off_c, 1, 63, 0
2, 118280, Note_on_c, 1, 52, 127
2, 118280, Note_on_c, 1, 64, 127
2, 118440, Note_off_c, 1, 52, 0
2, 118440, Note_off_c, 1, 64, 0
2, 118480, Note_on_c, 1, 51, 127
2, 118480, Note_on_c, 1, 63, 127
2, 118640, Note_off_c, 1, 51, 0
2, 118640, Note_off_c, 1, 63, 0
2, 118680, Note_on_c, 1, 47, 127
2, 118680, Note_on_c, 1, 59, 127
2, 118840, Note_off_c, 1, 47, 0
2, 118840, Note_off_c, 1, 59, 0
2, 118920, Note_on_c, 1, 54, 127
2, 118920, Note_on_c, 1, 66, 127
2, 119080, Note_off_c, 1, 54, 0
2, 119080, Note_off_c, 1, 66, 0
2, 119120, Note_on_c, 1, 51, 127
2, 119120, Note_on_c, 1, 63, 127
2, 119280, Note_off_c, 1, 51, 0
2, 119280, Note_off_c, 1, 63, 0
2, 119320, Note_on_c, 1, 47, 127
2, 119320, Note_on_c, 1, 59, 127
2, 119480, Note_off_c, 1, 47, 0
2, 119480, Note_off_c, 1, 59, 0
2, 119520, Note_on_c, 1, 51, 127
2, 119520, Note_on_c, 1, 63, 127
2, 119680, Note_off_c, 1, 51, 0
2, 119680, Note_off_c, 1, 63, 0
2, 119720, Note_on_c, 1, 54, 127
2, 119720, Note_on_c, 1, 66, 127
2, 119880, Note_off_c, 1, 54, 0
2, 119880, Note_off_c, 1, 66, 0
2, 119920, Note_on_c, 1, 51, 127
2, 119920, Note_on_c, 1, 63, 127
2, 120000, Note_off_c, 1, 51, 0
2, 120000, Note_off_c, 1, 63, 0
2, 120040, End_track
3, 0, Start_track
3, 0, Title_t, "MIDI"
3, 1536, End_track
0, 0, End_of_file
