0, 0, Header, 1, 3, 192
1, 0, Start_track
1, 0, Time_signature, 4, 2, 24, 8
1, 0, Tempo, 500000
1, 120040, End_track
2, 0, Start_track
2, 0, Text_t, "random instrument: random person i dunno whatev"
2, 0, Title_t, "Track 1"
2, 0, Note_on_c, 1, 50, 127
2, 0, Note_on_c, 1, 57, 127
2, 0, Note_on_c, 1, 65, 127
2, 0, Note_on_c, 1, 69, 127
2, 0, Note_on_c, 1, 74, 127
2, 0, Note_on_c, 1, 77, 127
2, 0, Note_on_c, 1, 81, 127
2, 80, Note_off_c, 1, 50, 0
2, 80, Note_off_c, 1, 57, 0
2, 80, Note_off_c, 1, 65, 0
2, 80, Note_off_c, 1, 69, 0
2, 80, Note_off_c, 1, 74, 0
2, 80, Note_off_c, 1, 77, 0
2, 80, Note_off_c, 1, 81, 0
2, 120, Note_on_c, 1, 50, 127
2, 120, Note_on_c, 1, 57, 127
2, 120, Note_on_c, 1, 65, 127
2, 120, Note_on_c, 1, 69, 127
2, 120, Note_on_c, 1, 74, 127
2, 120, Note_on_c, 1, 77, 127
2, 120, Note_on_c, 1, 81, 127
2, 360, Note_off_c, 1, 50, 0
2, 360, Note_off_c, 1, 57, 0
2, 360, Note_off_c, 1, 65, 0
2, 360, Note_off_c, 1, 69, 0
2, 360, Note_off_c, 1, 74, 0
2, 360, Note_off_c, 1, 77, 0
2, 360, Note_off_c, 1, 81, 0
2, 400, Note_on_c, 1, 47, 127
2, 400, Note_on_c, 1, 59, 127
2, 400, Note_on_c, 1, 66, 127
2, 400, Note_on_c, 1, 71, 127
2, 400, Note_on_c, 1, 74, 127
2, 800, Note_off_c, 1, 47, 0
2, 800, Note_off_c, 1, 59, 0
2, 800, Note_off_c, 1, 66, 0
2, 800, Note_off_c, 1, 71, 0
2, 800, Note_off_c, 1, 74, 0
2, 840, Note_on_c, 1, 47, 127
2, 840, Note_on_c, 1, 63, 127
2, 840, Note_on_c, 1, 66, 127
2, 840, Note_on_c, 1, 71, 127
2, 960, Note_off_c, 1, 47, 0
2, 960, Note_off_c, 1, 63, 0
2, 960, Note_off_c, 1, 66, 0
2, 960, Note_off_c, 1, 71, 0
2, 5160, Note_on_c, 1, 48, 127
2, 5160, Note_on_c, 1, 55, 127
2, 5160, Note_on_c, 1, 60, 127
2, 5160, Note_on_c, 1, 64, 127
2, 5400, Note_off_c, 1, 48, 0
2, 5400, Note_off_c, 1, 55, 0
2, 5400, Note_off_c, 1, 60, 0
2, 5400, Note_off_c, 1, 64, 0
2, 5720, Note_on_c, 1, 62, 127
2, 5720, Note_on_c, 1, 69, 127
2, 5720, Note_on_c, 1, 74, 127
2, 5720, Note_on_c, 1, 77, 127
2, 5960, Note_off_c, 1, 62, 0
2, 5960, Note_off_c, 1, 69, 0
2, 5960, Note_off_c, 1, 74, 0
2, 5960, Note_off_c, 1, 77, 0
2, 6000, Note_on_c, 1, 57, 127
2, 6000, Note_on_c, 1, 67, 127
2, 6000, Note_on_c, 1, 73, 127
2, 6000, Note_on_c, 1, 76, 127
2, 6040, Note_off_c, 1, 57, 0
2, 6040, Note_on_c, 1, 71, 127
2, 6040, Note_on_c, 1, 79, 127
2, 6040, Note_on_c, 1, 83, 127
2, 6040, Note_on_c, 1, 88, 127
2, 6040, Note_on_c, 1, 95, 127
2, 6080, Note_on_c, 1, 57, 127
2, 6080, Note_off_c, 1, 71, 0
2, 6080, Note_off_c, 1, 79, 0
2, 6080, Note_off_c, 1, 83, 0
2, 6080, Note_off_c, 1, 88, 0
2, 6080, Note_off_c, 1, 95, 0
2, 6160, Note_off_c, 1, 57, 0
2, 6160, Note_on_c, 1, 71, 127
2, 6160, Note_on_c, 1, 79, 127
2, 6160, Note_on_c, 1, 83, 127
2, 6160, Note_on_c, 1, 88, 127
2, 6160, Note_on_c, 1, 95, 127
2, 6200, Note_on_c, 1, 42, 127
2, 6200, Note_on_c, 1, 52, 127
2, 6200, Note_on_c, 1, 59, 127
2, 6200, Note_on_c, 1, 64, 127
2, 6200, Note_off_c, 1, 67, 0
2, 6200, Note_off_c, 1, 71, 0
2, 6200, Note_off_c, 1, 73, 0
2, 6200, Note_off_c, 1, 76, 0
2, 6200, Note_off_c, 1, 79, 0
2, 6200, Note_off_c, 1, 83, 0
2, 6200, Note_off_c, 1, 88, 0
2, 6200, Note_off_c, 1, 95, 0
2, 6240, Note_off_c, 1, 42, 0
2, 6240, Note_off_c, 1, 52, 0
2, 6240, Note_off_c, 1, 59, 0
2, 6240, Note_off_c, 1, 64, 0
2, 6280, Note_on_c, 1, 57, 127
2, 6280, Note_on_c, 1, 67, 127
2, 6280, Note_on_c, 1, 73, 127
2, 6280, Note_on_c, 1, 77, 127
2, 6520, Note_off_c, 1, 57, 0
2, 6520, Note_off_c, 1, 67, 0
2, 6520, Note_off_c, 1, 73, 0
2, 6520, Note_off_c, 1, 77, 0
2, 6560, Note_on_c, 1, 62, 127
2, 6560, Note_on_c, 1, 65, 127
2, 6560, Note_on_c, 1, 69, 127
2, 6560, Note_on_c, 1, 74, 127
2, 6840, Note_off_c, 1, 62, 0
2, 6840, Note_off_c, 1, 65, 0
2, 6840, Note_off_c, 1, 69, 0
2, 6840, Note_off_c, 1, 74, 0
2, 6920, Note_on_c, 1, 62, 127
2, 6920, Note_on_c, 1, 69, 127
2, 6920, Note_on_c, 1, 74, 127
2, 6920, Note_on_c, 1, 77, 127
2, 7160, Note_off_c, 1, 62, 0
2, 7160, Note_off_c, 1, 69, 0
2, 7160, Note_off_c, 1, 74, 0
2, 7160, Note_off_c, 1, 77, 0
2, 7200, Note_on_c, 1, 67, 127
2, 7200, Note_on_c, 1, 71, 127
2, 7200, Note_on_c, 1, 74, 127
2, 7440, Note_off_c, 1, 67, 0
2, 7440, Note_off_c, 1, 71, 0
2, 7440, Note_off_c, 1, 74, 0
2, 7480, Note_on_c, 1, 67, 127
2, 7480, Note_on_c, 1, 71, 127
2, 7480, Note_on_c, 1, 74, 127
2, 7600, Note_off_c, 1, 67, 0
2, 7600, Note_off_c, 1, 71, 0
2, 7600, Note_off_c, 1, 74, 0
2, 7640, Note_on_c, 1, 67, 127
2, 7640, Note_on_c, 1, 72, 127
2, 7640, Note_on_c, 1, 76, 127
2, 7760, Note_off_c, 1, 67, 0
2, 7760, Note_off_c, 1, 72, 0
2, 7760, Note_off_c, 1, 76, 0
2, 7800, Note_on_c, 1, 66, 127
2, 7800, Note_on_c, 1, 72, 127
2, 7800, Note_on_c, 1, 76, 127
2, 8040, Note_off_c, 1, 66, 0
2, 8040, Note_off_c, 1, 72, 0
2, 8040, Note_off_c, 1, 76, 0
2, 8080, Note_on_c, 1, 67, 127
2, 8080, Note_on_c, 1, 71, 127
2, 8080, Note_on_c, 1, 74, 127
2, 8120, Note_off_c, 1, 67, 0
2, 8120, Note_off_c, 1, 71, 0
2, 8120, Note_off_c, 1, 74, 0
2, 8240, Note_on_c, 1, 67, 127
2, 8240, Note_on_c, 1, 72, 127
2, 8240, Note_on_c, 1, 76, 127
2, 8280, Note_off_c, 1, 67, 0
2, 8280, Note_off_c, 1, 72, 0
2, 8280, Note_off_c, 1, 76, 0
2, 8400, Note_on_c, 1, 48, 127
2, 8400, Note_on_c, 1, 64, 127
2, 8400, Note_on_c, 1, 69, 127
2, 8400, Note_on_c, 1, 73, 127
2, 8440, Note_off_c, 1, 48, 0
2, 8560, Note_on_c, 1, 49, 127
2, 8600, Note_off_c, 1, 49, 0
2, 8680, Note_off_c, 1, 64, 0
2, 8680, Note_off_c, 1, 69, 0
2, 8680, Note_off_c, 1, 73, 0
2, 8720, Note_on_c, 1, 40, 127
2, 8720, Note_on_c, 1, 67, 127
2, 8720, Note_on_c, 1, 71, 127
2, 8760, Note_off_c, 1, 40, 0
2, 8880, Note_off_c, 1, 67, 0
2, 8880, Note_off_c, 1, 71, 0
2, 8920, Note_on_c, 1, 52, 127
2, 8920, Note_on_c, 1, 67, 127
2, 8920, Note_on_c, 1, 71, 127
2, 8960, Note_off_c, 1, 52, 0
2, 9040, Note_on_c, 1, 40, 127
2, 9080, Note_off_c, 1, 40, 0
2, 9120, Note_off_c, 1, 67, 0
2, 9120, Note_off_c, 1, 71, 0
2, 9160, Note_on_c, 1, 31, 127
2, 9160, Note_on_c, 1, 43, 127
2, 9280, Note_off_c, 1, 31, 0
2, 9280, Note_off_c, 1, 43, 0
2, 9320, Note_on_c, 1, 64, 127
2, 9320, Note_on_c, 1, 67, 127
2, 9320, Note_on_c, 1, 71, 127
2, 9720, Note_off_c, 1, 71, 0
2, 9760, Note_on_c, 1, 74, 127
2, 9880, Note_off_c, 1, 64, 0
2, 9880, Note_off_c, 1, 67, 0
2, 9880, Note_off_c, 1, 74, 0
2, 9920, Note_on_c, 1, 63, 127
2, 9920, Note_on_c, 1, 69, 127
2, 9920, Note_on_c, 1, 73, 127
2, 10040, Note_off_c, 1, 63, 0
2, 10040, Note_off_c, 1, 69, 0
2, 10040, Note_off_c, 1, 73, 0
2, 10080, Note_on_c, 1, 45, 127
2, 10080, Note_on_c, 1, 67, 127
2, 10080, Note_on_c, 1, 71, 127
2, 10320, Note_off_c, 1, 45, 0
2, 10320, Note_off_c, 1, 67, 0
2, 10320, Note_off_c, 1, 71, 0
2, 10360, Note_on_c, 1, 61, 127
2, 10360, Note_on_c, 1, 67, 127
2, 10360, Note_on_c, 1, 71, 127
2, 10480, Note_off_c, 1, 61, 0
2, 10480, Note_off_c, 1, 67, 0
2, 10480, Note_off_c, 1, 71, 0
2, 10520, Note_on_c, 1, 62, 127
2, 10520, Note_on_c, 1, 66, 127
2, 10520, Note_on_c, 1, 69, 127
2, 10560, Note_off_c, 1, 62, 0
2, 10560, Note_off_c, 1, 66, 0
2, 10560, Note_off_c, 1, 69, 0
2, 10640, Note_on_c, 1, 64, 127
2, 10640, Note_on_c, 1, 67, 127
2, 10640, Note_on_c, 1, 76, 127
2, 10640, Note_on_c, 1, 79, 127
2, 10680, Note_off_c, 1, 64, 0
2, 10680, Note_off_c, 1, 67, 0
2, 10680, Note_off_c, 1, 76, 0
2, 10680, Note_off_c, 1, 79, 0
2, 10840, Note_on_c, 1, 50, 127
2, 10840, Note_on_c, 1, 52, 127
2, 10840, Note_on_c, 1, 62, 127
2, 10840, Note_on_c, 1, 66, 127
2, 10840, Note_on_c, 1, 69, 127
2, 10840, Note_on_c, 1, 78, 127
2, 10880, Note_off_c, 1, 50, 0
2, 10880, Note_off_c, 1, 52, 0
2, 10880, Note_off_c, 1, 62, 0
2, 10880, Note_off_c, 1, 66, 0
2, 10880, Note_off_c, 1, 69, 0
2, 10880, Note_off_c, 1, 78, 0
2, 11040, Note_on_c, 1, 52, 127
2, 11160, Note_off_c, 1, 52, 0
2, 11200, Note_on_c, 1, 45, 127
2, 11200, Note_on_c, 1, 55, 127
2, 11200, Note_on_c, 1, 66, 127
2, 11240, Note_off_c, 1, 45, 0
2, 11240, Note_off_c, 1, 55, 0
2, 11240, Note_off_c, 1, 66, 0
2, 11320, Note_on_c, 1, 45, 127
2, 11360, Note_off_c, 1, 45, 0
2, 11800, Note_on_c, 1, 57, 127
2, 11800, Note_on_c, 1, 69, 127
2, 11800, Note_on_c, 1, 73, 127
2, 11800, Note_on_c, 1, 76, 127
2, 12040, Note_off_c, 1, 57, 0
2, 12040, Note_off_c, 1, 69, 0
2, 12040, Note_off_c, 1, 73, 0
2, 12040, Note_off_c, 1, 76, 0
2, 12080, Note_on_c, 1, 55, 127
2, 12080, Note_on_c, 1, 64, 127
2, 12080, Note_on_c, 1, 72, 127
2, 12080, Note_on_c, 1, 79, 127
2, 12200, Note_off_c, 1, 55, 0
2, 12200, Note_off_c, 1, 64, 0
2, 12200, Note_off_c, 1, 72, 0
2, 12200, Note_off_c, 1, 79, 0
2, 12240, Note_on_c, 1, 54, 127
2, 12240, Note_on_c, 1, 62, 127
2, 12240, Note_on_c, 1, 66, 127
2, 12240, Note_on_c, 1, 67, 127
2, 12280, Note_off_c, 1, 54, 0
2, 12280, Note_off_c, 1, 62, 0
2, 12280, Note_off_c, 1, 66, 0
2, 12280, Note_off_c, 1, 67, 0
2, 12320, Note_on_c, 1, 47, 127
2, 12480, Note_off_c, 1, 47, 0
2, 12600, Note_on_c, 1, 47, 127
2, 12640, Note_off_c, 1, 47, 0
2, 12680, Note_on_c, 1, 52, 127
2, 12720, Note_off_c, 1, 52, 0
2, 12760, Note_on_c, 1, 52, 127
2, 12840, Note_off_c, 1, 52, 0
2, 12880, Note_on_c, 1, 54, 127
2, 12960, Note_off_c, 1, 54, 0
2, 13000, Note_on_c, 1, 51, 127
2, 13120, Note_off_c, 1, 51, 0
2, 13160, Note_on_c, 1, 52, 127
2, 13280, Note_off_c, 1, 52, 0
2, 13320, Note_on_c, 1, 51, 127
2, 13440, Note_off_c, 1, 51, 0
2, 13480, Note_on_c, 1, 52, 127
2, 13560, Note_off_c, 1, 52, 0
2, 13600, Note_on_c, 1, 55, 127
2, 13720, Note_off_c, 1, 55, 0
2, 13760, Note_on_c, 1, 52, 127
2, 13880, Note_off_c, 1, 52, 0
2, 13920, Note_on_c, 1, 47, 127
2, 14040, Note_off_c, 1, 47, 0
2, 14080, Note_on_c, 1, 45, 127
2, 14160, Note_off_c, 1, 45, 0
2, 14200, Note_on_c, 1, 47, 127
2, 14320, Note_off_c, 1, 47, 0
2, 14360, Note_on_c, 1, 47, 127
2, 14360, Note_on_c, 1, 57, 127
2, 14480, Note_off_c, 1, 47, 0
2, 14480, Note_off_c, 1, 57, 0
2, 14520, Note_on_c, 1, 54, 127
2, 14520, Note_on_c, 1, 57, 127
2, 14520, Note_on_c, 1, 59, 127
2, 14640, Note_off_c, 1, 54, 0
2, 14640, Note_off_c, 1, 57, 0
2, 14640, Note_off_c, 1, 59, 0
2, 14680, Note_on_c, 1, 52, 127
2, 14680, Note_on_c, 1, 57, 127
2, 14680, Note_on_c, 1, 59, 127
2, 14760, Note_off_c, 1, 52, 0
2, 14760, Note_off_c, 1, 57, 0
2, 14760, Note_off_c, 1, 59, 0
2, 14800, Note_on_c, 1, 52, 127
2, 14800, Note_on_c, 1, 57, 127
2, 14800, Note_on_c, 1, 59, 127
2, 14920, Note_off_c, 1, 52, 0
2, 14920, Note_off_c, 1, 57, 0
2, 14920, Note_off_c, 1, 59, 0
2, 15000, Note_on_c, 1, 64, 127
2, 15120, Note_off_c, 1, 64, 0
2, 15160, Note_on_c, 1, 56, 127
2, 15160, Note_on_c, 1, 88, 127
2, 15240, Note_off_c, 1, 56, 0
2, 15240, Note_off_c, 1, 88, 0
2, 15280, Note_on_c, 1, 64, 127
2, 15280, Note_on_c, 1, 90, 127
2, 15320, Note_off_c, 1, 90, 0
2, 15360, Note_on_c, 1, 88, 127
2, 15400, Note_off_c, 1, 64, 0
2, 15400, Note_off_c, 1, 88, 0
2, 15440, Note_on_c, 1, 59, 127
2, 15440, Note_on_c, 1, 90, 127
2, 15480, Note_off_c, 1, 90, 0
2, 15520, Note_on_c, 1, 90, 127
2, 15560, Note_off_c, 1, 59, 0
2, 15560, Note_off_c, 1, 90, 0
2, 15600, Note_on_c, 1, 64, 127
2, 15600, Note_on_c, 1, 88, 127
2, 15720, Note_off_c, 1, 64, 0
2, 15720, Note_off_c, 1, 88, 0
2, 15760, Note_on_c, 1, 59, 127
2, 15760, Note_on_c, 1, 83, 127
2, 15840, Note_off_c, 1, 59, 0
2, 15840, Note_off_c, 1, 83, 0
2, 15880, Note_on_c, 1, 64, 127
2, 15880, Note_on_c, 1, 83, 127
2, 16000, Note_off_c, 1, 64, 0
2, 16000, Note_off_c, 1, 83, 0
2, 16040, Note_on_c, 1, 59, 127
2, 16040, Note_on_c, 1, 81, 127
2, 16160, Note_off_c, 1, 59, 0
2, 16160, Note_off_c, 1, 81, 0
2, 16200, Note_on_c, 1, 64, 127
2, 16200, Note_on_c, 1, 80, 127
2, 16320, Note_off_c, 1, 64, 0
2, 16320, Note_off_c, 1, 80, 0
2, 16360, Note_on_c, 1, 59, 127
2, 16440, Note_off_c, 1, 59, 0
2, 16480, Note_on_c, 1, 64, 127
2, 16480, Note_on_c, 1, 80, 127
2, 16600, Note_off_c, 1, 64, 0
2, 16600, Note_off_c, 1, 80, 0
2, 16640, Note_on_c, 1, 54, 127
2, 16760, Note_off_c, 1, 54, 0
2, 16800, Note_on_c, 1, 63, 127
2, 16800, Note_on_c, 1, 81, 127
2, 16920, Note_off_c, 1, 63, 0
2, 16920, Note_off_c, 1, 81, 0
2, 17000, Note_on_c, 1, 59, 127
2, 17000, Note_on_c, 1, 83, 127
2, 17080, Note_off_c, 1, 59, 0
2, 17080, Note_off_c, 1, 83, 0
2, 17120, Note_on_c, 1, 54, 127
2, 17240, Note_off_c, 1, 54, 0
2, 17280, Note_on_c, 1, 51, 127
2, 17280, Note_on_c, 1, 83, 127
2, 17320, Note_off_c, 1, 83, 0
2, 17400, Note_off_c, 1, 51, 0
2, 17440, Note_on_c, 1, 47, 127
2, 17440, Note_on_c, 1, 83, 127
2, 17480, Note_off_c, 1, 83, 0
2, 17560, Note_off_c, 1, 47, 0
2, 17600, Note_on_c, 1, 52, 127
2, 17680, Note_off_c, 1, 52, 0
2, 17720, Note_on_c, 1, 62, 127
2, 17840, Note_off_c, 1, 62, 0
2, 17880, Note_on_c, 1, 47, 127
2, 17880, Note_on_c, 1, 83, 127
2, 18000, Note_off_c, 1, 47, 0
2, 18000, Note_off_c, 1, 83, 0
2, 18040, Note_on_c, 1, 56, 127
2, 18040, Note_on_c, 1, 73, 127
2, 18160, Note_off_c, 1, 56, 0
2, 18160, Note_off_c, 1, 73, 0
2, 18200, Note_on_c, 1, 56, 127
2, 18200, Note_on_c, 1, 81, 127
2, 18280, Note_off_c, 1, 56, 0
2, 18280, Note_off_c, 1, 81, 0
2, 18320, Note_on_c, 1, 56, 127
2, 18320, Note_on_c, 1, 81, 127
2, 18440, Note_off_c, 1, 56, 0
2, 18440, Note_off_c, 1, 81, 0
2, 18480, Note_on_c, 1, 52, 127
2, 18600, Note_off_c, 1, 52, 0
2, 18640, Note_on_c, 1, 61, 127
2, 18760, Note_off_c, 1, 61, 0
2, 18800, Note_on_c, 1, 56, 127
2, 18800, Note_on_c, 1, 80, 127
2, 18880, Note_off_c, 1, 56, 0
2, 18880, Note_off_c, 1, 80, 0
2, 18960, Note_on_c, 1, 61, 127
2, 18960, Note_on_c, 1, 85, 127
2, 19080, Note_off_c, 1, 61, 0
2, 19080, Note_off_c, 1, 85, 0
2, 19120, Note_on_c, 1, 53, 127
2, 19120, Note_on_c, 1, 80, 127
2, 19240, Note_off_c, 1, 53, 0
2, 19240, Note_off_c, 1, 80, 0
2, 19280, Note_on_c, 1, 64, 127
2, 19400, Note_off_c, 1, 64, 0
2, 19440, Note_on_c, 1, 61, 127
2, 19520, Note_off_c, 1, 61, 0
2, 19560, Note_on_c, 1, 56, 127
2, 19680, Note_off_c, 1, 56, 0
2, 19720, Note_on_c, 1, 56, 127
2, 19720, Note_on_c, 1, 76, 127
2, 19840, Note_off_c, 1, 56, 0
2, 19880, Note_on_c, 1, 59, 127
2, 20000, Note_off_c, 1, 59, 0
2, 20000, Note_off_c, 1, 76, 0
2, 20040, Note_on_c, 1, 63, 127
2, 20040, Note_on_c, 1, 86, 127
2, 20120, Note_off_c, 1, 63, 0
2, 20120, Note_off_c, 1, 86, 0
2, 20160, Note_on_c, 1, 47, 127
2, 20160, Note_on_c, 1, 87, 127
2, 20280, Note_off_c, 1, 47, 0
2, 20280, Note_off_c, 1, 87, 0
2, 20320, Note_on_c, 1, 56, 127
2, 20320, Note_on_c, 1, 87, 127
2, 20360, Note_off_c, 1, 87, 0
2, 20400, Note_on_c, 1, 85, 127
2, 20440, Note_off_c, 1, 56, 0
2, 20440, Note_off_c, 1, 85, 0
2, 20480, Note_on_c, 1, 54, 127
2, 20480, Note_on_c, 1, 85, 127
2, 20520, Note_off_c, 1, 85, 0
2, 20560, Note_on_c, 1, 80, 127
2, 20600, Note_off_c, 1, 54, 0
2, 20600, Note_off_c, 1, 80, 0
2, 20640, Note_on_c, 1, 59, 127
2, 20640, Note_on_c, 1, 76, 127
2, 20720, Note_off_c, 1, 76, 0
2, 20760, Note_off_c, 1, 59, 0
2, 20800, Note_on_c, 1, 52, 127
2, 20800, Note_on_c, 1, 80, 127
2, 20840, Note_off_c, 1, 80, 0
2, 20880, Note_off_c, 1, 52, 0
2, 20960, Note_on_c, 1, 47, 127
2, 20960, Note_on_c, 1, 78, 127
2, 21000, Note_off_c, 1, 47, 0
2, 21000, Note_on_c, 1, 48, 127
2, 21040, Note_on_c, 1, 47, 127
2, 21040, Note_off_c, 1, 48, 0
2, 21080, Note_off_c, 1, 47, 0
2, 21080, Note_off_c, 1, 78, 0
2, 21120, Note_on_c, 1, 54, 127
2, 21120, Note_on_c, 1, 76, 127
2, 21240, Note_off_c, 1, 54, 0
2, 21240, Note_off_c, 1, 76, 0
2, 21280, Note_on_c, 1, 59, 127
2, 21280, Note_on_c, 1, 75, 127
2, 21400, Note_off_c, 1, 59, 0
2, 21400, Note_off_c, 1, 75, 0
2, 21440, Note_on_c, 1, 54, 127
2, 21440, Note_on_c, 1, 81, 127
2, 21520, Note_off_c, 1, 54, 0
2, 21520, Note_off_c, 1, 81, 0
2, 21560, Note_on_c, 1, 47, 127
2, 21560, Note_on_c, 1, 75, 127
2, 21680, Note_off_c, 1, 47, 0
2, 21680, Note_off_c, 1, 75, 0
2, 21720, Note_on_c, 1, 63, 127
2, 21720, Note_on_c, 1, 78, 127
2, 21760, Note_off_c, 1, 78, 0
2, 21840, Note_off_c, 1, 63, 0
2, 21880, Note_on_c, 1, 59, 127
2, 21880, Note_on_c, 1, 83, 127
2, 22000, Note_off_c, 1, 59, 0
2, 22000, Note_off_c, 1, 83, 0
2, 22040, Note_on_c, 1, 47, 127
2, 22040, Note_on_c, 1, 78, 127
2, 22160, Note_off_c, 1, 47, 0
2, 22160, Note_off_c, 1, 78, 0
2, 22200, Note_on_c, 1, 56, 127
2, 22280, Note_off_c, 1, 56, 0
2, 22320, Note_on_c, 1, 54, 127
2, 22320, Note_on_c, 1, 76, 127
2, 22440, Note_off_c, 1, 54, 0
2, 22440, Note_off_c, 1, 76, 0
2, 22480, Note_on_c, 1, 59, 127
2, 22480, Note_on_c, 1, 75, 127
2, 22600, Note_off_c, 1, 59, 0
2, 22600, Note_off_c, 1, 75, 0
2, 22640, Note_on_c, 1, 54, 127
2, 22640, Note_on_c, 1, 76, 127
2, 22720, Note_off_c, 1, 54, 0
2, 22720, Note_off_c, 1, 76, 0
2, 22760, Note_on_c, 1, 59, 127
2, 22760, Note_on_c, 1, 75, 127
2, 22880, Note_off_c, 1, 59, 0
2, 22880, Note_off_c, 1, 75, 0
2, 22920, Note_on_c, 1, 63, 127
2, 22920, Note_on_c, 1, 78, 127
2, 23040, Note_off_c, 1, 63, 0
2, 23040, Note_off_c, 1, 78, 0
2, 23120, Note_on_c, 1, 54, 127
2, 23240, Note_off_c, 1, 54, 0
2, 23280, Note_on_c, 1, 47, 127
2, 23280, Note_on_c, 1, 78, 127
2, 23360, Note_off_c, 1, 47, 0
2, 23400, Note_on_c, 1, 59, 127
2, 23520, Note_off_c, 1, 59, 0
2, 23560, Note_on_c, 1, 54, 127
2, 23680, Note_off_c, 1, 54, 0
2, 23720, Note_on_c, 1, 47, 127
2, 23840, Note_off_c, 1, 47, 0
2, 23880, Note_on_c, 1, 56, 127
2, 23880, Note_on_c, 1, 76, 127
2, 23880, Note_off_c, 1, 78, 0
2, 24000, Note_off_c, 1, 56, 0
2, 24000, Note_on_c, 1, 59, 127
2, 24000, Note_on_c, 1, 64, 127
2, 24120, Note_off_c, 1, 59, 0
2, 24120, Note_off_c, 1, 64, 0
2, 24160, Note_on_c, 1, 63, 127
2, 24160, Note_on_c, 1, 71, 127
2, 24160, Note_off_c, 1, 76, 0
2, 24160, Note_on_c, 1, 78, 127
2, 24280, Note_off_c, 1, 63, 0
2, 24280, Note_off_c, 1, 71, 0
2, 24280, Note_off_c, 1, 78, 0
2, 24320, Note_on_c, 1, 59, 127
2, 24320, Note_on_c, 1, 71, 127
2, 24320, Note_on_c, 1, 78, 127
2, 24440, Note_off_c, 1, 59, 0
2, 24440, Note_off_c, 1, 71, 0
2, 24440, Note_off_c, 1, 78, 0
2, 24480, Note_on_c, 1, 54, 127
2, 24480, Note_on_c, 1, 61, 127
2, 24480, Note_on_c, 1, 64, 127
2, 24480, Note_on_c, 1, 70, 127
2, 24480, Note_on_c, 1, 76, 127
2, 24720, Note_off_c, 1, 54, 0
2, 24720, Note_off_c, 1, 61, 0
2, 24720, Note_off_c, 1, 64, 0
2, 24720, Note_off_c, 1, 70, 0
2, 24720, Note_off_c, 1, 76, 0
2, 24760, Note_on_c, 1, 47, 127
2, 24760, Note_on_c, 1, 63, 127
2, 24760, Note_on_c, 1, 71, 127
2, 24800, Note_off_c, 1, 63, 0
2, 24800, Note_off_c, 1, 71, 0
2, 24920, Note_on_c, 1, 63, 127
2, 24920, Note_on_c, 1, 68, 127
2, 25040, Note_off_c, 1, 47, 0
2, 25040, Note_off_c, 1, 63, 0
2, 25040, Note_off_c, 1, 68, 0
2, 25120, Note_on_c, 1, 52, 127
2, 25120, Note_on_c, 1, 71, 127
2, 25160, Note_on_c, 1, 47, 127
2, 25160, Note_off_c, 1, 52, 0
2, 25160, Note_on_c, 1, 68, 127
2, 25200, Note_off_c, 1, 47, 0
2, 25200, Note_off_c, 1, 68, 0
2, 25240, Note_on_c, 1, 51, 127
2, 25240, Note_on_c, 1, 59, 127
2, 25240, Note_on_c, 1, 66, 127
2, 25240, Note_on_c, 1, 69, 127
2, 25240, Note_off_c, 1, 71, 0
2, 25360, Note_off_c, 1, 51, 0
2, 25360, Note_off_c, 1, 59, 0
2, 25360, Note_off_c, 1, 66, 0
2, 25360, Note_off_c, 1, 69, 0
2, 25400, Note_on_c, 1, 52, 127
2, 25400, Note_on_c, 1, 73, 127
2, 25480, Note_off_c, 1, 73, 0
2, 25520, Note_off_c, 1, 52, 0
2, 25520, Note_on_c, 1, 71, 127
2, 25560, Note_on_c, 1, 47, 127
2, 25560, Note_on_c, 1, 66, 127
2, 25640, Note_off_c, 1, 66, 0
2, 25640, Note_off_c, 1, 71, 0
2, 25680, Note_off_c, 1, 47, 0
2, 25720, Note_on_c, 1, 54, 127
2, 25720, Note_on_c, 1, 60, 127
2, 25720, Note_on_c, 1, 64, 127
2, 25720, Note_on_c, 1, 71, 127
2, 25960, Note_off_c, 1, 54, 0
2, 25960, Note_off_c, 1, 60, 0
2, 25960, Note_off_c, 1, 64, 0
2, 25960, Note_off_c, 1, 71, 0
2, 26000, Note_on_c, 1, 51, 127
2, 26000, Note_on_c, 1, 57, 127
2, 26000, Note_on_c, 1, 59, 127
2, 26000, Note_on_c, 1, 66, 127
2, 26240, Note_off_c, 1, 57, 0
2, 26240, Note_off_c, 1, 59, 0
2, 26240, Note_off_c, 1, 66, 0
2, 26360, Note_on_c, 1, 50, 127
2, 26360, Note_off_c, 1, 51, 0
2, 26360, Note_on_c, 1, 55, 127
2, 26360, Note_on_c, 1, 58, 127
2, 26360, Note_on_c, 1, 63, 127
2, 26600, Note_off_c, 1, 50, 0
2, 26600, Note_on_c, 1, 51, 127
2, 26600, Note_off_c, 1, 55, 0
2, 26600, Note_off_c, 1, 58, 0
2, 26600, Note_off_c, 1, 63, 0
2, 26640, Note_on_c, 1, 50, 127
2, 26640, Note_off_c, 1, 51, 0
2, 26640, Note_on_c, 1, 55, 127
2, 26640, Note_on_c, 1, 58, 127
2, 26640, Note_on_c, 1, 63, 127
2, 26880, Note_off_c, 1, 50, 0
2, 26880, Note_off_c, 1, 55, 0
2, 26880, Note_off_c, 1, 58, 0
2, 26880, Note_off_c, 1, 63, 0
2, 26920, Note_on_c, 1, 50, 127
2, 26920, Note_on_c, 1, 55, 127
2, 26920, Note_on_c, 1, 58, 127
2, 26920, Note_on_c, 1, 63, 127
2, 27040, Note_off_c, 1, 50, 0
2, 27040, Note_off_c, 1, 55, 0
2, 27040, Note_off_c, 1, 58, 0
2, 27040, Note_off_c, 1, 63, 0
2, 27080, Note_on_c, 1, 50, 127
2, 27080, Note_on_c, 1, 55, 127
2, 27080, Note_on_c, 1, 58, 127
2, 27080, Note_on_c, 1, 63, 127
2, 27240, Note_off_c, 1, 50, 0
2, 27240, Note_off_c, 1, 55, 0
2, 27240, Note_off_c, 1, 58, 0
2, 27240, Note_off_c, 1, 63, 0
2, 27280, Note_on_c, 1, 51, 127
2, 27280, Note_on_c, 1, 67, 127
2, 27560, Note_on_c, 1, 58, 127
2, 27560, Note_on_c, 1, 63, 127
2, 27560, Note_on_c, 1, 70, 127
2, 27840, Note_off_c, 1, 51, 0
2, 27840, Note_off_c, 1, 58, 0
2, 27840, Note_off_c, 1, 63, 0
2, 27840, Note_off_c, 1, 67, 0
2, 27840, Note_off_c, 1, 70, 0
2, 27880, Note_on_c, 1, 47, 127
2, 27880, Note_on_c, 1, 63, 127
2, 27880, Note_on_c, 1, 66, 127
2, 27880, Note_on_c, 1, 68, 127
2, 28120, Note_off_c, 1, 47, 0
2, 28120, Note_off_c, 1, 63, 0
2, 28120, Note_off_c, 1, 66, 0
2, 28120, Note_off_c, 1, 68, 0
2, 28160, Note_on_c, 1, 49, 127
2, 28160, Note_on_c, 1, 65, 127
2, 28160, Note_on_c, 1, 68, 127
2, 28160, Note_on_c, 1, 73, 127
2, 28440, Note_off_c, 1, 49, 0
2, 28440, Note_off_c, 1, 65, 0
2, 28440, Note_off_c, 1, 68, 0
2, 28440, Note_off_c, 1, 73, 0
2, 28480, Note_on_c, 1, 42, 127
2, 28480, Note_on_c, 1, 61, 127
2, 28480, Note_on_c, 1, 66, 127
2, 28480, Note_on_c, 1, 70, 127
2, 28720, Note_off_c, 1, 42, 0
2, 28720, Note_off_c, 1, 61, 0
2, 28720, Note_off_c, 1, 66, 0
2, 28720, Note_off_c, 1, 70, 0
2, 28760, Note_on_c, 1, 59, 127
2, 28760, Note_on_c, 1, 66, 127
2, 28760, Note_on_c, 1, 68, 127
2, 28760, Note_on_c, 1, 74, 127
2, 28760, Note_on_c, 1, 80, 127
2, 28800, Note_off_c, 1, 59, 0
2, 28800, Note_off_c, 1, 66, 0
2, 28800, Note_off_c, 1, 68, 0
2, 28800, Note_off_c, 1, 74, 0
2, 28800, Note_off_c, 1, 80, 0
2, 28920, Note_on_c, 1, 59, 127
2, 28920, Note_on_c, 1, 66, 127
2, 28920, Note_on_c, 1, 68, 127
2, 28920, Note_on_c, 1, 74, 127
2, 28920, Note_on_c, 1, 80, 127
2, 28960, Note_off_c, 1, 59, 0
2, 28960, Note_off_c, 1, 66, 0
2, 28960, Note_off_c, 1, 68, 0
2, 28960, Note_off_c, 1, 74, 0
2, 28960, Note_off_c, 1, 80, 0
2, 29120, Note_on_c, 1, 57, 127
2, 29120, Note_on_c, 1, 67, 127
2, 29120, Note_on_c, 1, 73, 127
2, 29120, Note_on_c, 1, 76, 127
2, 29120, Note_on_c, 1, 83, 127
2, 29360, Note_off_c, 1, 57, 0
2, 29360, Note_off_c, 1, 67, 0
2, 29360, Note_off_c, 1, 73, 0
2, 29360, Note_off_c, 1, 76, 0
2, 29360, Note_off_c, 1, 83, 0
2, 29400, Note_on_c, 1, 57, 127
2, 29400, Note_on_c, 1, 66, 127
2, 29400, Note_on_c, 1, 73, 127
2, 29400, Note_on_c, 1, 78, 127
2, 29400, Note_on_c, 1, 81, 127
2, 29520, Note_off_c, 1, 57, 0
2, 29520, Note_off_c, 1, 66, 0
2, 29520, Note_off_c, 1, 73, 0
2, 29520, Note_off_c, 1, 78, 0
2, 29520, Note_off_c, 1, 81, 0
2, 29560, Note_on_c, 1, 57, 127
2, 29560, Note_on_c, 1, 64, 127
2, 29560, Note_on_c, 1, 73, 127
2, 29560, Note_on_c, 1, 79, 127
2, 29680, Note_off_c, 1, 57, 0
2, 29680, Note_off_c, 1, 64, 0
2, 29680, Note_off_c, 1, 73, 0
2, 29680, Note_off_c, 1, 79, 0
2, 29720, Note_on_c, 1, 57, 127
2, 29720, Note_on_c, 1, 64, 127
2, 29720, Note_on_c, 1, 73, 127
2, 29720, Note_on_c, 1, 79, 127
2, 29960, Note_off_c, 1, 57, 0
2, 29960, Note_off_c, 1, 64, 0
2, 29960, Note_off_c, 1, 73, 0
2, 29960, Note_off_c, 1, 79, 0
2, 30000, Note_on_c, 1, 47, 127
2, 30000, Note_on_c, 1, 59, 127
2, 30000, Note_on_c, 1, 62, 127
2, 30000, Note_on_c, 1, 66, 127
2, 30000, Note_on_c, 1, 71, 127
2, 30280, Note_off_c, 1, 47, 0
2, 30280, Note_off_c, 1, 59, 0
2, 30280, Note_off_c, 1, 62, 0
2, 30280, Note_off_c, 1, 66, 0
2, 30280, Note_off_c, 1, 71, 0
2, 30320, Note_on_c, 1, 47, 127
2, 30320, Note_on_c, 1, 53, 127
2, 30320, Note_on_c, 1, 71, 127
2, 30440, Note_on_c, 1, 62, 127
2, 30560, Note_off_c, 1, 47, 0
2, 30560, Note_off_c, 1, 53, 0
2, 30560, Note_off_c, 1, 62, 0
2, 30560, Note_off_c, 1, 71, 0
2, 30600, Note_on_c, 1, 52, 127
2, 30600, Note_on_c, 1, 59, 127
2, 30600, Note_on_c, 1, 67, 127
2, 30600, Note_on_c, 1, 71, 127
2, 30880, Note_off_c, 1, 52, 0
2, 30880, Note_off_c, 1, 59, 0
2, 30880, Note_off_c, 1, 67, 0
2, 30880, Note_off_c, 1, 71, 0
2, 30920, Note_on_c, 1, 56, 127
2, 30920, Note_on_c, 1, 63, 127
2, 30920, Note_on_c, 1, 71, 127
2, 30920, Note_on_c, 1, 80, 127
2, 31120, Note_off_c, 1, 56, 0
2, 31120, Note_off_c, 1, 63, 0
2, 31120, Note_off_c, 1, 71, 0
2, 31120, Note_off_c, 1, 80, 0
2, 31160, Note_on_c, 1, 56, 127
2, 31160, Note_on_c, 1, 63, 127
2, 31160, Note_on_c, 1, 71, 127
2, 31160, Note_on_c, 1, 80, 127
2, 31200, Note_off_c, 1, 56, 0
2, 31200, Note_off_c, 1, 63, 0
2, 31200, Note_off_c, 1, 71, 0
2, 31200, Note_off_c, 1, 80, 0
2, 31240, Note_on_c, 1, 54, 127
2, 31240, Note_on_c, 1, 63, 127
2, 31240, Note_on_c, 1, 71, 127
2, 31240, Note_on_c, 1, 78, 127
2, 31520, Note_off_c, 1, 54, 0
2, 31520, Note_off_c, 1, 63, 0
2, 31520, Note_off_c, 1, 71, 0
2, 31520, Note_off_c, 1, 78, 0
2, 31560, Note_on_c, 1, 45, 127
2, 31560, Note_on_c, 1, 52, 127
2, 31560, Note_on_c, 1, 57, 127
2, 31560, Note_on_c, 1, 73, 127
2, 31560, Note_on_c, 1, 76, 127
2, 31560, Note_on_c, 1, 85, 127
2, 31800, Note_off_c, 1, 45, 0
2, 31800, Note_off_c, 1, 52, 0
2, 31800, Note_off_c, 1, 57, 0
2, 31800, Note_off_c, 1, 73, 0
2, 31800, Note_off_c, 1, 76, 0
2, 31800, Note_off_c, 1, 85, 0
2, 31840, Note_on_c, 1, 45, 127
2, 31840, Note_on_c, 1, 52, 127
2, 31840, Note_on_c, 1, 57, 127
2, 31840, Note_on_c, 1, 73, 127
2, 31840, Note_on_c, 1, 76, 127
2, 31840, Note_on_c, 1, 85, 127
2, 32080, Note_off_c, 1, 45, 0
2, 32080, Note_off_c, 1, 52, 0
2, 32080, Note_off_c, 1, 57, 0
2, 32080, Note_off_c, 1, 73, 0
2, 32080, Note_off_c, 1, 76, 0
2, 32080, Note_off_c, 1, 85, 0
2, 32120, Note_on_c, 1, 45, 127
2, 32120, Note_on_c, 1, 52, 127
2, 32120, Note_on_c, 1, 57, 127
2, 32120, Note_on_c, 1, 73, 127
2, 32120, Note_on_c, 1, 76, 127
2, 32120, Note_on_c, 1, 85, 127
2, 32400, Note_off_c, 1, 45, 0
2, 32400, Note_off_c, 1, 52, 0
2, 32400, Note_off_c, 1, 57, 0
2, 32400, Note_off_c, 1, 73, 0
2, 32400, Note_off_c, 1, 76, 0
2, 32400, Note_off_c, 1, 85, 0
2, 32440, Note_on_c, 1, 44, 127
2, 32440, Note_on_c, 1, 51, 127
2, 32440, Note_on_c, 1, 72, 127
2, 32440, Note_on_c, 1, 75, 127
2, 32440, Note_on_c, 1, 84, 127
2, 32680, Note_off_c, 1, 44, 0
2, 32680, Note_off_c, 1, 51, 0
2, 32680, Note_off_c, 1, 72, 0
2, 32680, Note_off_c, 1, 75, 0
2, 32680, Note_off_c, 1, 84, 0
2, 32720, Note_on_c, 1, 45, 127
2, 32720, Note_on_c, 1, 52, 127
2, 32720, Note_on_c, 1, 73, 127
2, 32720, Note_on_c, 1, 76, 127
2, 32720, Note_on_c, 1, 85, 127
2, 33000, Note_off_c, 1, 45, 0
2, 33000, Note_off_c, 1, 52, 0
2, 33000, Note_off_c, 1, 73, 0
2, 33000, Note_off_c, 1, 76, 0
2, 33000, Note_off_c, 1, 85, 0
2, 33040, Note_on_c, 1, 45, 127
2, 33040, Note_on_c, 1, 52, 127
2, 33040, Note_on_c, 1, 73, 127
2, 33040, Note_on_c, 1, 76, 127
2, 33040, Note_on_c, 1, 85, 127
2, 33200, Note_off_c, 1, 45, 0
2, 33200, Note_off_c, 1, 52, 0
2, 33200, Note_off_c, 1, 73, 0
2, 33200, Note_off_c, 1, 76, 0
2, 33200, Note_off_c, 1, 85, 0
2, 33240, Note_on_c, 1, 45, 127
2, 33240, Note_on_c, 1, 52, 127
2, 33240, Note_on_c, 1, 73, 127
2, 33240, Note_on_c, 1, 76, 127
2, 33240, Note_on_c, 1, 85, 127
2, 33320, Note_off_c, 1, 45, 0
2, 33320, Note_off_c, 1, 52, 0
2, 33320, Note_off_c, 1, 73, 0
2, 33320, Note_off_c, 1, 76, 0
2, 33320, Note_off_c, 1, 85, 0
2, 33360, Note_on_c, 1, 45, 127
2, 33360, Note_on_c, 1, 52, 127
2, 33360, Note_on_c, 1, 73, 127
2, 33360, Note_on_c, 1, 76, 127
2, 33360, Note_on_c, 1, 86, 127
2, 33640, Note_off_c, 1, 45, 0
2, 33640, Note_off_c, 1, 52, 0
2, 33640, Note_off_c, 1, 73, 0
2, 33640, Note_off_c, 1, 76, 0
2, 33640, Note_off_c, 1, 86, 0
2, 33680, Note_on_c, 1, 44, 127
2, 33680, Note_on_c, 1, 49, 127
2, 33680, Note_on_c, 1, 73, 127
2, 33680, Note_on_c, 1, 77, 127
2, 33680, Note_on_c, 1, 85, 127
2, 33920, Note_off_c, 1, 44, 0
2, 33920, Note_off_c, 1, 49, 0
2, 33920, Note_off_c, 1, 73, 0
2, 33920, Note_off_c, 1, 77, 0
2, 33920, Note_off_c, 1, 85, 0
2, 33960, Note_on_c, 1, 44, 127
2, 33960, Note_on_c, 1, 49, 127
2, 33960, Note_on_c, 1, 73, 127
2, 33960, Note_on_c, 1, 77, 127
2, 33960, Note_on_c, 1, 83, 127
2, 34480, Note_off_c, 1, 83, 0
2, 34520, Note_on_c, 1, 35, 127
2, 34520, Note_off_c, 1, 44, 0
2, 34520, Note_off_c, 1, 49, 0
2, 34520, Note_on_c, 1, 54, 127
2, 34520, Note_on_c, 1, 59, 127
2, 34520, Note_on_c, 1, 64, 127
2, 34520, Note_on_c, 1, 68, 127
2, 34520, Note_on_c, 1, 71, 127
2, 34520, Note_off_c, 1, 73, 0
2, 34520, Note_off_c, 1, 77, 0
2, 34560, Note_off_c, 1, 35, 0
2, 34560, Note_off_c, 1, 54, 0
2, 34560, Note_off_c, 1, 59, 0
2, 34560, Note_off_c, 1, 64, 0
2, 34560, Note_off_c, 1, 68, 0
2, 34560, Note_off_c, 1, 71, 0
2, 34600, Note_on_c, 1, 45, 127
2, 34600, Note_on_c, 1, 54, 127
2, 34600, Note_on_c, 1, 57, 127
2, 34600, Note_on_c, 1, 62, 127
2, 34600, Note_on_c, 1, 66, 127
2, 34600, Note_on_c, 1, 74, 127
2, 34840, Note_off_c, 1, 54, 0
2, 34840, Note_off_c, 1, 62, 0
2, 34840, Note_off_c, 1, 66, 0
2, 34840, Note_on_c, 1, 73, 127
2, 34840, Note_off_c, 1, 74, 0
2, 34840, Note_on_c, 1, 79, 127
2, 34880, Note_off_c, 1, 45, 0
2, 34880, Note_on_c, 1, 52, 127
2, 34880, Note_off_c, 1, 57, 0
2, 34880, Note_on_c, 1, 68, 127
2, 34880, Note_on_c, 1, 71, 127
2, 34880, Note_off_c, 1, 73, 0
2, 34880, Note_on_c, 1, 74, 127
2, 34880, Note_off_c, 1, 79, 0
2, 34880, Note_on_c, 1, 80, 127
2, 35040, Note_on_c, 1, 49, 127
2, 35040, Note_off_c, 1, 52, 0
2, 35040, Note_on_c, 1, 57, 127
2, 35040, Note_on_c, 1, 64, 127
2, 35040, Note_off_c, 1, 68, 0
2, 35040, Note_on_c, 1, 69, 127
2, 35040, Note_off_c, 1, 71, 0
2, 35040, Note_off_c, 1, 74, 0
2, 35040, Note_off_c, 1, 80, 0
2, 35080, Note_on_c, 1, 48, 127
2, 35080, Note_off_c, 1, 49, 0
2, 35080, Note_on_c, 1, 50, 127
2, 35080, Note_on_c, 1, 54, 127
2, 35080, Note_off_c, 1, 57, 0
2, 35080, Note_on_c, 1, 60, 127
2, 35080, Note_off_c, 1, 64, 0
2, 35080, Note_off_c, 1, 69, 0
2, 35080, Note_on_c, 1, 72, 127
2, 35080, Note_on_c, 1, 74, 127
2, 35080, Note_on_c, 1, 78, 127
2, 35080, Note_on_c, 1, 84, 127
2, 35120, Note_off_c, 1, 48, 0
2, 35120, Note_off_c, 1, 50, 0
2, 35120, Note_on_c, 1, 52, 127
2, 35120, Note_off_c, 1, 54, 0
2, 35120, Note_off_c, 1, 60, 0
2, 35120, Note_off_c, 1, 72, 0
2, 35120, Note_off_c, 1, 74, 0
2, 35120, Note_off_c, 1, 78, 0
2, 35120, Note_off_c, 1, 84, 0
2, 35160, Note_on_c, 1, 61, 127
2, 35160, Note_on_c, 1, 73, 127
2, 35160, Note_on_c, 1, 76, 127
2, 35440, Note_off_c, 1, 52, 0
2, 35440, Note_off_c, 1, 61, 0
2, 35440, Note_off_c, 1, 73, 0
2, 35440, Note_off_c, 1, 76, 0
2, 35480, Note_on_c, 1, 52, 127
2, 35480, Note_on_c, 1, 61, 127
2, 35480, Note_on_c, 1, 73, 127
2, 35480, Note_on_c, 1, 76, 127
2, 35520, Note_off_c, 1, 52, 0
2, 35520, Note_off_c, 1, 61, 0
2, 35520, Note_off_c, 1, 73, 0
2, 35520, Note_off_c, 1, 76, 0
2, 35560, Note_on_c, 1, 52, 127
2, 35560, Note_on_c, 1, 61, 127
2, 35560, Note_on_c, 1, 73, 127
2, 35560, Note_on_c, 1, 76, 127
2, 35760, Note_off_c, 1, 52, 0
2, 35760, Note_off_c, 1, 61, 0
2, 35760, Note_off_c, 1, 73, 0
2, 35760, Note_off_c, 1, 76, 0
2, 35800, Note_on_c, 1, 44, 127
2, 35800, Note_on_c, 1, 47, 127
2, 35800, Note_on_c, 1, 56, 127
2, 35800, Note_on_c, 1, 68, 127
2, 36080, Note_off_c, 1, 68, 0
2, 36120, Note_off_c, 1, 47, 0
2, 36120, Note_on_c, 1, 48, 127
2, 36120, Note_on_c, 1, 66, 127
2, 36360, Note_off_c, 1, 48, 0
2, 36360, Note_off_c, 1, 56, 0
2, 36360, Note_off_c, 1, 66, 0
2, 36400, Note_on_c, 1, 47, 127
2, 36400, Note_on_c, 1, 56, 127
2, 36400, Note_on_c, 1, 68, 127
2, 36600, Note_off_c, 1, 68, 0
2, 36640, Note_on_c, 1, 68, 127
2, 36680, Note_off_c, 1, 47, 0
2, 36680, Note_off_c, 1, 56, 0
2, 36680, Note_off_c, 1, 68, 0
2, 36720, Note_on_c, 1, 47, 127
2, 36720, Note_on_c, 1, 56, 127
2, 36720, Note_on_c, 1, 68, 127
2, 36800, Note_off_c, 1, 68, 0
2, 36800, Note_on_c, 1, 70, 127
2, 36840, Note_on_c, 1, 68, 127
2, 36840, Note_off_c, 1, 70, 0
2, 36960, Note_off_c, 1, 47, 0
2, 36960, Note_off_c, 1, 56, 0
2, 36960, Note_off_c, 1, 68, 0
2, 37000, Note_on_c, 1, 48, 127
2, 37000, Note_on_c, 1, 56, 127
2, 37000, Note_on_c, 1, 66, 127
2, 37240, Note_off_c, 1, 44, 0
2, 37240, Note_off_c, 1, 48, 0
2, 37240, Note_off_c, 1, 56, 0
2, 37240, Note_off_c, 1, 66, 0
2, 37280, Note_on_c, 1, 44, 127
2, 37280, Note_on_c, 1, 46, 127
2, 37280, Note_on_c, 1, 56, 127
2, 37280, Note_on_c, 1, 64, 127
2, 37440, Note_off_c, 1, 64, 0
2, 37440, Note_on_c, 1, 66, 127
2, 37480, Note_on_c, 1, 64, 127
2, 37480, Note_off_c, 1, 66, 0
2, 37560, Note_off_c, 1, 44, 0
2, 37560, Note_off_c, 1, 46, 0
2, 37560, Note_off_c, 1, 56, 0
2, 37560, Note_off_c, 1, 64, 0
2, 37640, Note_on_c, 1, 44, 127
2, 37640, Note_on_c, 1, 48, 127
2, 37640, Note_on_c, 1, 56, 127
2, 37640, Note_on_c, 1, 63, 127
2, 37880, Note_off_c, 1, 48, 0
2, 37880, Note_off_c, 1, 56, 0
2, 37880, Note_off_c, 1, 63, 0
2, 37920, Note_on_c, 1, 52, 127
2, 37920, Note_on_c, 1, 56, 127
2, 37920, Note_on_c, 1, 61, 127
2, 38160, Note_off_c, 1, 52, 0
2, 38160, Note_off_c, 1, 56, 0
2, 38160, Note_off_c, 1, 61, 0
2, 38200, Note_off_c, 1, 44, 0
2, 38200, Note_on_c, 1, 52, 127
2, 38200, Note_on_c, 1, 56, 127
2, 38200, Note_on_c, 1, 64, 127
2, 38200, Note_on_c, 1, 68, 127
2, 38480, Note_off_c, 1, 52, 0
2, 38480, Note_off_c, 1, 56, 0
2, 38480, Note_off_c, 1, 64, 0
2, 38480, Note_off_c, 1, 68, 0
2, 38520, Note_on_c, 1, 57, 127
2, 38520, Note_on_c, 1, 65, 127
2, 38520, Note_on_c, 1, 72, 127
2, 38520, Note_on_c, 1, 75, 127
2, 38520, Note_on_c, 1, 77, 127
2, 38760, Note_off_c, 1, 57, 0
2, 38760, Note_off_c, 1, 65, 0
2, 38760, Note_off_c, 1, 72, 0
2, 38760, Note_off_c, 1, 75, 0
2, 38760, Note_off_c, 1, 77, 0
2, 38800, Note_on_c, 1, 44, 127
2, 38800, Note_on_c, 1, 82, 127
2, 38800, Note_on_c, 1, 86, 127
2, 38800, Note_on_c, 1, 89, 127
2, 38800, Note_on_c, 1, 94, 127
2, 38840, Note_off_c, 1, 44, 0
2, 38840, Note_on_c, 1, 47, 127
2, 38840, Note_on_c, 1, 56, 127
2, 38840, Note_on_c, 1, 62, 127
2, 38840, Note_on_c, 1, 65, 127
2, 38840, Note_off_c, 1, 82, 0
2, 38840, Note_off_c, 1, 86, 0
2, 38840, Note_off_c, 1, 89, 0
2, 38840, Note_off_c, 1, 94, 0
2, 38880, Note_on_c, 1, 44, 127
2, 38880, Note_off_c, 1, 47, 0
2, 38880, Note_off_c, 1, 56, 0
2, 38880, Note_off_c, 1, 62, 0
2, 38880, Note_off_c, 1, 65, 0
2, 38880, Note_on_c, 1, 82, 127
2, 38880, Note_on_c, 1, 86, 127
2, 38880, Note_on_c, 1, 89, 127
2, 38880, Note_on_c, 1, 94, 127
2, 38960, Note_on_c, 1, 51, 127
2, 38960, Note_on_c, 1, 63, 127
2, 38960, Note_on_c, 1, 75, 127
2, 38960, Note_off_c, 1, 82, 0
2, 38960, Note_off_c, 1, 86, 0
2, 38960, Note_off_c, 1, 89, 0
2, 38960, Note_off_c, 1, 94, 0
2, 39000, Note_off_c, 1, 51, 0
2, 39000, Note_off_c, 1, 63, 0
2, 39000, Note_off_c, 1, 75, 0
2, 39000, Note_on_c, 1, 82, 127
2, 39000, Note_on_c, 1, 86, 127
2, 39000, Note_on_c, 1, 89, 127
2, 39000, Note_on_c, 1, 94, 127
2, 39040, Note_off_c, 1, 44, 0
2, 39040, Note_off_c, 1, 82, 0
2, 39040, Note_off_c, 1, 86, 0
2, 39040, Note_off_c, 1, 89, 0
2, 39040, Note_off_c, 1, 94, 0
2, 39080, Note_on_c, 1, 36, 127
2, 39080, Note_on_c, 1, 48, 127
2, 39080, Note_on_c, 1, 70, 127
2, 39080, Note_on_c, 1, 78, 127
2, 39080, Note_on_c, 1, 82, 127
2, 39360, Note_off_c, 1, 36, 0
2, 39360, Note_off_c, 1, 48, 0
2, 39360, Note_off_c, 1, 70, 0
2, 39360, Note_off_c, 1, 78, 0
2, 39360, Note_off_c, 1, 82, 0
2, 39400, Note_on_c, 1, 36, 127
2, 39400, Note_on_c, 1, 48, 127
2, 39400, Note_on_c, 1, 70, 127
2, 39400, Note_on_c, 1, 78, 127
2, 39400, Note_on_c, 1, 82, 127
2, 39640, Note_off_c, 1, 70, 0
2, 39640, Note_off_c, 1, 78, 0
2, 39640, Note_off_c, 1, 82, 0
2, 39680, Note_off_c, 1, 36, 0
2, 39680, Note_on_c, 1, 41, 127
2, 39680, Note_off_c, 1, 48, 0
2, 39680, Note_on_c, 1, 50, 127
2, 39680, Note_on_c, 1, 71, 127
2, 39680, Note_on_c, 1, 83, 127
2, 39720, Note_off_c, 1, 41, 0
2, 39720, Note_off_c, 1, 50, 0
2, 39720, Note_off_c, 1, 71, 0
2, 39720, Note_off_c, 1, 83, 0
2, 39760, Note_on_c, 1, 44, 127
2, 39760, Note_on_c, 1, 53, 127
2, 39760, Note_on_c, 1, 71, 127
2, 39760, Note_on_c, 1, 83, 127
2, 39800, Note_on_c, 1, 41, 127
2, 39800, Note_off_c, 1, 44, 0
2, 39800, Note_on_c, 1, 50, 127
2, 39800, Note_off_c, 1, 53, 0
2, 39840, Note_off_c, 1, 41, 0
2, 39840, Note_on_c, 1, 44, 127
2, 39840, Note_off_c, 1, 50, 0
2, 39840, Note_on_c, 1, 53, 127
2, 39960, Note_off_c, 1, 71, 0
2, 39960, Note_off_c, 1, 83, 0
2, 40000, Note_off_c, 1, 44, 0
2, 40000, Note_off_c, 1, 53, 0
2, 40040, Note_on_c, 1, 32, 127
2, 40040, Note_on_c, 1, 59, 127
2, 40040, Note_on_c, 1, 62, 127
2, 40080, Note_off_c, 1, 32, 0
2, 40080, Note_on_c, 1, 44, 127
2, 40080, Note_on_c, 1, 53, 127
2, 40080, Note_off_c, 1, 59, 0
2, 40080, Note_off_c, 1, 62, 0
2, 40160, Note_on_c, 1, 32, 127
2, 40160, Note_off_c, 1, 44, 0
2, 40160, Note_off_c, 1, 53, 0
2, 40160, Note_on_c, 1, 59, 127
2, 40160, Note_on_c, 1, 62, 127
2, 40200, Note_off_c, 1, 32, 0
2, 40200, Note_on_c, 1, 44, 127
2, 40200, Note_on_c, 1, 53, 127
2, 40200, Note_off_c, 1, 59, 0
2, 40200, Note_off_c, 1, 62, 0
2, 40280, Note_off_c, 1, 44, 0
2, 40280, Note_off_c, 1, 53, 0
2, 40320, Note_on_c, 1, 32, 127
2, 40320, Note_on_c, 1, 44, 127
2, 40320, Note_on_c, 1, 66, 127
2, 40320, Note_on_c, 1, 72, 127
2, 40320, Note_on_c, 1, 76, 127
2, 40360, Note_off_c, 1, 32, 0
2, 40360, Note_on_c, 1, 47, 127
2, 40360, Note_on_c, 1, 52, 127
2, 40360, Note_on_c, 1, 64, 127
2, 40360, Note_off_c, 1, 66, 0
2, 40360, Note_off_c, 1, 72, 0
2, 40400, Note_on_c, 1, 32, 127
2, 40400, Note_off_c, 1, 47, 0
2, 40400, Note_off_c, 1, 52, 0
2, 40400, Note_off_c, 1, 64, 0
2, 40400, Note_on_c, 1, 66, 127
2, 40400, Note_on_c, 1, 72, 127
2, 40440, Note_off_c, 1, 32, 0
2, 40440, Note_off_c, 1, 44, 0
2, 40480, Note_on_c, 1, 56, 127
2, 40480, Note_on_c, 1, 62, 127
2, 40480, Note_off_c, 1, 72, 0
2, 40480, Note_off_c, 1, 76, 0
2, 40480, Note_on_c, 1, 90, 127
2, 40480, Note_on_c, 1, 92, 127
2, 40520, Note_off_c, 1, 56, 0
2, 40520, Note_off_c, 1, 62, 0
2, 40520, Note_on_c, 1, 64, 127
2, 40520, Note_off_c, 1, 66, 0
2, 40520, Note_on_c, 1, 69, 127
2, 40520, Note_on_c, 1, 71, 127
2, 40520, Note_on_c, 1, 78, 127
2, 40520, Note_off_c, 1, 90, 0
2, 40520, Note_off_c, 1, 92, 0
2, 40560, Note_off_c, 1, 64, 0
2, 40560, Note_off_c, 1, 69, 0
2, 40560, Note_off_c, 1, 71, 0
2, 40560, Note_off_c, 1, 78, 0
2, 40600, Note_on_c, 1, 39, 127
2, 40600, Note_on_c, 1, 59, 127
2, 40600, Note_on_c, 1, 71, 127
2, 40640, Note_off_c, 1, 39, 0
2, 40640, Note_on_c, 1, 66, 127
2, 40680, Note_on_c, 1, 39, 127
2, 40680, Note_off_c, 1, 66, 0
2, 40720, Note_off_c, 1, 39, 0
2, 40760, Note_on_c, 1, 39, 127
2, 40800, Note_off_c, 1, 39, 0
2, 40880, Note_off_c, 1, 59, 0
2, 40880, Note_off_c, 1, 71, 0
2, 40920, Note_on_c, 1, 47, 127
2, 40920, Note_on_c, 1, 56, 127
2, 40920, Note_on_c, 1, 68, 127
2, 40920, Note_on_c, 1, 75, 127
2, 41120, Note_off_c, 1, 47, 0
2, 41120, Note_off_c, 1, 56, 0
2, 41120, Note_off_c, 1, 68, 0
2, 41120, Note_off_c, 1, 75, 0
2, 41160, Note_on_c, 1, 40, 127
2, 41160, Note_on_c, 1, 71, 127
2, 41280, Note_off_c, 1, 40, 0
2, 41320, Note_on_c, 1, 49, 127
2, 41400, Note_off_c, 1, 49, 0
2, 41440, Note_on_c, 1, 56, 127
2, 41560, Note_off_c, 1, 56, 0
2, 41600, Note_on_c, 1, 49, 127
2, 41720, Note_off_c, 1, 49, 0
2, 41720, Note_off_c, 1, 71, 0
2, 41760, Note_on_c, 1, 37, 127
2, 41760, Note_on_c, 1, 69, 127
2, 41840, Note_off_c, 1, 37, 0
2, 41840, Note_on_c, 1, 38, 127
2, 41840, Note_on_c, 1, 65, 127
2, 41880, Note_off_c, 1, 38, 0
2, 41880, Note_off_c, 1, 65, 0
2, 41920, Note_off_c, 1, 69, 0
2, 41960, Note_on_c, 1, 54, 127
2, 41960, Note_on_c, 1, 69, 127
2, 42080, Note_on_c, 1, 66, 127
2, 42120, Note_off_c, 1, 54, 0
2, 42160, Note_on_c, 1, 54, 127
2, 42200, Note_off_c, 1, 54, 0
2, 42240, Note_on_c, 1, 49, 127
2, 42280, Note_off_c, 1, 49, 0
2, 42320, Note_on_c, 1, 56, 127
2, 42320, Note_off_c, 1, 66, 0
2, 42320, Note_off_c, 1, 69, 0
2, 42360, Note_off_c, 1, 56, 0
2, 42360, Note_on_c, 1, 68, 127
2, 42360, Note_on_c, 1, 71, 127
2, 42520, Note_on_c, 1, 59, 127
2, 42520, Note_off_c, 1, 68, 0
2, 42520, Note_off_c, 1, 71, 0
2, 42560, Note_on_c, 1, 68, 127
2, 42600, Note_off_c, 1, 68, 0
2, 42600, Note_on_c, 1, 69, 127
2, 42640, Note_off_c, 1, 59, 0
2, 42640, Note_off_c, 1, 69, 0
2, 42680, Note_on_c, 1, 54, 127
2, 42960, Note_off_c, 1, 54, 0
2, 43000, Note_on_c, 1, 51, 127
2, 43160, Note_on_c, 1, 69, 127
2, 43240, Note_off_c, 1, 51, 0
2, 43240, Note_off_c, 1, 69, 0
2, 43280, Note_on_c, 1, 54, 127
2, 43600, Note_on_c, 1, 52, 127
2, 43600, Note_off_c, 1, 54, 0
2, 43600, Note_on_c, 1, 57, 127
2, 43600, Note_on_c, 1, 59, 127
2, 43600, Note_on_c, 1, 63, 127
2, 43600, Note_on_c, 1, 66, 127
2, 44000, Note_off_c, 1, 52, 0
2, 44000, Note_off_c, 1, 57, 0
2, 44000, Note_off_c, 1, 59, 0
2, 44000, Note_off_c, 1, 63, 0
2, 44000, Note_off_c, 1, 66, 0
2, 44040, Note_on_c, 1, 52, 127
2, 44040, Note_on_c, 1, 57, 127
2, 44040, Note_on_c, 1, 59, 127
2, 44040, Note_on_c, 1, 63, 127
2, 44040, Note_on_c, 1, 66, 127
2, 44480, Note_on_c, 1, 47, 127
2, 44480, Note_off_c, 1, 52, 0
2, 44480, Note_on_c, 1, 54, 127
2, 44480, Note_off_c, 1, 57, 0
2, 44480, Note_off_c, 1, 59, 0
2, 44480, Note_off_c, 1, 63, 0
2, 44480, Note_off_c, 1, 66, 0
2, 44520, Note_off_c, 1, 47, 0
2, 44520, Note_on_c, 1, 52, 127
2, 44520, Note_off_c, 1, 54, 0
2, 44520, Note_on_c, 1, 57, 127
2, 44520, Note_on_c, 1, 59, 127
2, 44520, Note_on_c, 1, 63, 127
2, 44520, Note_on_c, 1, 66, 127
2, 45360, Note_off_c, 1, 57, 0
2, 45360, Note_off_c, 1, 63, 0
2, 45360, Note_off_c, 1, 66, 0
2, 45400, Note_on_c, 1, 56, 127
2, 45400, Note_on_c, 1, 64, 127
2, 45640, Note_off_c, 1, 52, 0
2, 45640, Note_off_c, 1, 56, 0
2, 45640, Note_off_c, 1, 59, 0
2, 45640, Note_off_c, 1, 64, 0
2, 45680, Note_on_c, 1, 40, 127
2, 45960, Note_off_c, 1, 40, 0
2, 46040, Note_on_c, 1, 40, 127
2, 46280, Note_off_c, 1, 40, 0
2, 46320, Note_on_c, 1, 57, 127
2, 46320, Note_on_c, 1, 66, 127
2, 46320, Note_on_c, 1, 90, 127
2, 46320, Note_on_c, 1, 93, 127
2, 46360, Note_off_c, 1, 57, 0
2, 46360, Note_off_c, 1, 66, 0
2, 46360, Note_off_c, 1, 90, 0
2, 46360, Note_off_c, 1, 93, 0
2, 46440, Note_on_c, 1, 73, 127
2, 46440, Note_on_c, 1, 100, 127
2, 46480, Note_off_c, 1, 73, 0
2, 46480, Note_off_c, 1, 100, 0
2, 46600, Note_on_c, 1, 45, 127
2, 46600, Note_on_c, 1, 60, 127
2, 46880, Note_off_c, 1, 45, 0
2, 46880, Note_off_c, 1, 60, 0
2, 46920, Note_on_c, 1, 45, 127
2, 46920, Note_on_c, 1, 60, 127
2, 47160, Note_off_c, 1, 45, 0
2, 47160, Note_off_c, 1, 60, 0
2, 47200, Note_on_c, 1, 52, 127
2, 47200, Note_on_c, 1, 60, 127
2, 47200, Note_on_c, 1, 66, 127
2, 47280, Note_off_c, 1, 66, 0
2, 47320, Note_on_c, 1, 66, 127
2, 47360, Note_off_c, 1, 52, 0
2, 47360, Note_off_c, 1, 66, 0
2, 47400, Note_on_c, 1, 52, 127
2, 47440, Note_off_c, 1, 52, 0
2, 47440, Note_off_c, 1, 60, 0
2, 47480, Note_on_c, 1, 40, 127
2, 47480, Note_on_c, 1, 61, 127
2, 47520, Note_off_c, 1, 40, 0
2, 47640, Note_on_c, 1, 40, 127
2, 47680, Note_off_c, 1, 40, 0
2, 47680, Note_on_c, 1, 45, 127
2, 47720, Note_off_c, 1, 45, 0
2, 47760, Note_on_c, 1, 50, 127
2, 48040, Note_off_c, 1, 50, 0
2, 48040, Note_off_c, 1, 61, 0
2, 48120, Note_on_c, 1, 38, 127
2, 48120, Note_on_c, 1, 50, 127
2, 48120, Note_on_c, 1, 52, 127
2, 48360, Note_off_c, 1, 38, 0
2, 48360, Note_off_c, 1, 50, 0
2, 48400, Note_off_c, 1, 52, 0
2, 48400, Note_on_c, 1, 53, 127
2, 48400, Note_on_c, 1, 57, 127
2, 48400, Note_on_c, 1, 62, 127
2, 48600, Note_on_c, 1, 50, 127
2, 48600, Note_off_c, 1, 53, 0
2, 48600, Note_off_c, 1, 57, 0
2, 48600, Note_off_c, 1, 62, 0
2, 48640, Note_off_c, 1, 50, 0
2, 48680, Note_on_c, 1, 54, 127
2, 48680, Note_on_c, 1, 57, 127
2, 48920, Note_off_c, 1, 54, 0
2, 48920, Note_off_c, 1, 57, 0
2, 48960, Note_on_c, 1, 32, 127
2, 48960, Note_on_c, 1, 44, 127
2, 48960, Note_on_c, 1, 52, 127
2, 48960, Note_on_c, 1, 59, 127
2, 48960, Note_on_c, 1, 62, 127
2, 48960, Note_on_c, 1, 64, 127
2, 49200, Note_off_c, 1, 32, 0
2, 49200, Note_off_c, 1, 44, 0
2, 49200, Note_off_c, 1, 52, 0
2, 49200, Note_off_c, 1, 59, 0
2, 49200, Note_off_c, 1, 62, 0
2, 49200, Note_off_c, 1, 64, 0
2, 49240, Note_on_c, 1, 41, 127
2, 49240, Note_on_c, 1, 46, 127
2, 49240, Note_on_c, 1, 53, 127
2, 49240, Note_on_c, 1, 87, 127
2, 49520, Note_off_c, 1, 41, 0
2, 49520, Note_off_c, 1, 46, 0
2, 49520, Note_off_c, 1, 53, 0
2, 49520, Note_off_c, 1, 87, 0
2, 49560, Note_on_c, 1, 31, 127
2, 49560, Note_on_c, 1, 43, 127
2, 49560, Note_on_c, 1, 61, 127
2, 49560, Note_on_c, 1, 73, 127
2, 49800, Note_off_c, 1, 31, 0
2, 49800, Note_off_c, 1, 43, 0
2, 49800, Note_off_c, 1, 61, 0
2, 49840, Note_on_c, 1, 44, 127
2, 49840, Note_on_c, 1, 49, 127
2, 49840, Note_on_c, 1, 61, 127
2, 49960, Note_off_c, 1, 44, 0
2, 49960, Note_off_c, 1, 49, 0
2, 49960, Note_off_c, 1, 61, 0
2, 49960, Note_off_c, 1, 73, 0
2, 50000, Note_on_c, 1, 44, 127
2, 50000, Note_on_c, 1, 49, 127
2, 50000, Note_on_c, 1, 61, 127
2, 50000, Note_on_c, 1, 73, 127
2, 50120, Note_off_c, 1, 44, 0
2, 50120, Note_off_c, 1, 49, 0
2, 50120, Note_off_c, 1, 61, 0
2, 50120, Note_off_c, 1, 73, 0
2, 50160, Note_on_c, 1, 44, 127
2, 50160, Note_on_c, 1, 49, 127
2, 50160, Note_on_c, 1, 61, 127
2, 50160, Note_on_c, 1, 73, 127
2, 50400, Note_off_c, 1, 44, 0
2, 50400, Note_off_c, 1, 49, 0
2, 50400, Note_off_c, 1, 61, 0
2, 50400, Note_off_c, 1, 73, 0
2, 50440, Note_on_c, 1, 44, 127
2, 50440, Note_on_c, 1, 49, 127
2, 50440, Note_on_c, 1, 61, 127
2, 50440, Note_on_c, 1, 73, 127
2, 50680, Note_off_c, 1, 44, 0
2, 50680, Note_off_c, 1, 49, 0
2, 50680, Note_off_c, 1, 61, 0
2, 50680, Note_off_c, 1, 73, 0
2, 50720, Note_on_c, 1, 44, 127
2, 50720, Note_on_c, 1, 49, 127
2, 50720, Note_on_c, 1, 61, 127
2, 50720, Note_on_c, 1, 73, 127
2, 50960, Note_off_c, 1, 44, 0
2, 50960, Note_off_c, 1, 49, 0
2, 50960, Note_off_c, 1, 61, 0
2, 50960, Note_off_c, 1, 73, 0
2, 51000, Note_on_c, 1, 44, 127
2, 51000, Note_on_c, 1, 49, 127
2, 51000, Note_on_c, 1, 61, 127
2, 51000, Note_on_c, 1, 73, 127
2, 51240, Note_off_c, 1, 44, 0
2, 51240, Note_off_c, 1, 49, 0
2, 51240, Note_off_c, 1, 61, 0
2, 51240, Note_off_c, 1, 73, 0
2, 51280, Note_on_c, 1, 44, 127
2, 51280, Note_on_c, 1, 49, 127
2, 51280, Note_on_c, 1, 61, 127
2, 51280, Note_on_c, 1, 73, 127
2, 51560, Note_off_c, 1, 44, 0
2, 51560, Note_off_c, 1, 49, 0
2, 51560, Note_off_c, 1, 61, 0
2, 51560, Note_off_c, 1, 73, 0
2, 51600, Note_on_c, 1, 44, 127
2, 51600, Note_on_c, 1, 49, 127
2, 51600, Note_on_c, 1, 61, 127
2, 51600, Note_on_c, 1, 73, 127
2, 51840, Note_off_c, 1, 44, 0
2, 51840, Note_off_c, 1, 49, 0
2, 51840, Note_off_c, 1, 61, 0
2, 51840, Note_off_c, 1, 73, 0
2, 51880, Note_on_c, 1, 44, 127
2, 51880, Note_on_c, 1, 49, 127
2, 51880, Note_on_c, 1, 59, 127
2, 51880, Note_on_c, 1, 71, 127
2, 52120, Note_off_c, 1, 44, 0
2, 52120, Note_off_c, 1, 49, 0
2, 52120, Note_off_c, 1, 59, 0
2, 52120, Note_off_c, 1, 71, 0
2, 52200, Note_on_c, 1, 44, 127
2, 52200, Note_on_c, 1, 49, 127
2, 52200, Note_on_c, 1, 59, 127
2, 52200, Note_on_c, 1, 71, 127
2, 52440, Note_off_c, 1, 44, 0
2, 52440, Note_off_c, 1, 49, 0
2, 52440, Note_off_c, 1, 59, 0
2, 52440, Note_off_c, 1, 71, 0
2, 52480, Note_on_c, 1, 44, 127
2, 52480, Note_on_c, 1, 49, 127
2, 52480, Note_on_c, 1, 59, 127
2, 52480, Note_on_c, 1, 71, 127
2, 52720, Note_off_c, 1, 44, 0
2, 52720, Note_off_c, 1, 49, 0
2, 52720, Note_off_c, 1, 59, 0
2, 52720, Note_off_c, 1, 71, 0
2, 52760, Note_on_c, 1, 44, 127
2, 52760, Note_on_c, 1, 49, 127
2, 52760, Note_on_c, 1, 59, 127
2, 52760, Note_on_c, 1, 71, 127
2, 53000, Note_off_c, 1, 44, 0
2, 53000, Note_off_c, 1, 49, 0
2, 53000, Note_off_c, 1, 59, 0
2, 53000, Note_off_c, 1, 71, 0
2, 53040, Note_on_c, 1, 44, 127
2, 53040, Note_on_c, 1, 49, 127
2, 53040, Note_on_c, 1, 59, 127
2, 53040, Note_on_c, 1, 71, 127
2, 53280, Note_off_c, 1, 44, 0
2, 53280, Note_off_c, 1, 49, 0
2, 53280, Note_off_c, 1, 59, 0
2, 53280, Note_off_c, 1, 71, 0
2, 53320, Note_on_c, 1, 44, 127
2, 53320, Note_on_c, 1, 49, 127
2, 53320, Note_on_c, 1, 59, 127
2, 53320, Note_on_c, 1, 71, 127
2, 53560, Note_off_c, 1, 44, 0
2, 53560, Note_off_c, 1, 49, 0
2, 53560, Note_off_c, 1, 59, 0
2, 53560, Note_off_c, 1, 71, 0
2, 53600, Note_on_c, 1, 44, 127
2, 53600, Note_on_c, 1, 49, 127
2, 53600, Note_on_c, 1, 59, 127
2, 53600, Note_on_c, 1, 71, 127
2, 53840, Note_off_c, 1, 44, 0
2, 53840, Note_off_c, 1, 49, 0
2, 53840, Note_off_c, 1, 59, 0
2, 53840, Note_off_c, 1, 71, 0
2, 53880, Note_on_c, 1, 46, 127
2, 53880, Note_on_c, 1, 54, 127
2, 53880, Note_on_c, 1, 63, 127
2, 53880, Note_on_c, 1, 75, 127
2, 54120, Note_off_c, 1, 46, 0
2, 54120, Note_off_c, 1, 54, 0
2, 54120, Note_off_c, 1, 63, 0
2, 54120, Note_off_c, 1, 75, 0
2, 54160, Note_on_c, 1, 54, 127
2, 54160, Note_on_c, 1, 58, 127
2, 54160, Note_on_c, 1, 61, 127
2, 54160, Note_on_c, 1, 66, 127
2, 54160, Note_on_c, 1, 70, 127
2, 54160, Note_on_c, 1, 73, 127
2, 54240, Note_off_c, 1, 54, 0
2, 54240, Note_off_c, 1, 58, 0
2, 54240, Note_off_c, 1, 61, 0
2, 54240, Note_off_c, 1, 66, 0
2, 54240, Note_off_c, 1, 70, 0
2, 54240, Note_off_c, 1, 73, 0
2, 54280, Note_on_c, 1, 54, 127
2, 54280, Note_on_c, 1, 58, 127
2, 54280, Note_on_c, 1, 61, 127
2, 54280, Note_on_c, 1, 66, 127
2, 54280, Note_on_c, 1, 70, 127
2, 54280, Note_on_c, 1, 73, 127
2, 54440, Note_off_c, 1, 54, 0
2, 54440, Note_off_c, 1, 58, 0
2, 54440, Note_off_c, 1, 61, 0
2, 54440, Note_off_c, 1, 66, 0
2, 54440, Note_off_c, 1, 70, 0
2, 54440, Note_off_c, 1, 73, 0
2, 54480, Note_on_c, 1, 47, 127
2, 54480, Note_on_c, 1, 51, 127
2, 54480, Note_on_c, 1, 71, 127
2, 54480, Note_on_c, 1, 78, 127
2, 54520, Note_off_c, 1, 51, 0
2, 54520, Note_off_c, 1, 71, 0
2, 54560, Note_on_c, 1, 54, 127
2, 54560, Note_on_c, 1, 66, 127
2, 54600, Note_off_c, 1, 54, 0
2, 54600, Note_off_c, 1, 66, 0
2, 54640, Note_on_c, 1, 51, 127
2, 54640, Note_on_c, 1, 71, 127
2, 54680, Note_off_c, 1, 51, 0
2, 54680, Note_off_c, 1, 71, 0
2, 54760, Note_on_c, 1, 51, 127
2, 54760, Note_on_c, 1, 71, 127
2, 54800, Note_off_c, 1, 51, 0
2, 54800, Note_off_c, 1, 71, 0
2, 54840, Note_on_c, 1, 54, 127
2, 54840, Note_on_c, 1, 66, 127
2, 54880, Note_off_c, 1, 54, 0
2, 54880, Note_off_c, 1, 66, 0
2, 54920, Note_on_c, 1, 59, 127
2, 54920, Note_on_c, 1, 75, 127
2, 54960, Note_off_c, 1, 59, 0
2, 54960, Note_off_c, 1, 75, 0
2, 55000, Note_off_c, 1, 47, 0
2, 55040, Note_on_c, 1, 47, 127
2, 55040, Note_on_c, 1, 51, 127
2, 55040, Note_on_c, 1, 54, 127
2, 55040, Note_on_c, 1, 66, 127
2, 55040, Note_off_c, 1, 78, 0
2, 55200, Note_off_c, 1, 66, 0
2, 55200, Note_on_c, 1, 78, 127
2, 55280, Note_on_c, 1, 42, 127
2, 55280, Note_off_c, 1, 47, 0
2, 55280, Note_off_c, 1, 51, 0
2, 55280, Note_off_c, 1, 54, 0
2, 55280, Note_off_c, 1, 78, 0
2, 55320, Note_off_c, 1, 42, 0
2, 55320, Note_on_c, 1, 47, 127
2, 55320, Note_on_c, 1, 57, 127
2, 55320, Note_on_c, 1, 63, 127
2, 55320, Note_on_c, 1, 69, 127
2, 55560, Note_off_c, 1, 57, 0
2, 55560, Note_off_c, 1, 63, 0
2, 55560, Note_off_c, 1, 69, 0
2, 55600, Note_off_c, 1, 47, 0
2, 55600, Note_on_c, 1, 49, 127
2, 55600, Note_on_c, 1, 52, 127
2, 55600, Note_on_c, 1, 54, 127
2, 55600, Note_on_c, 1, 58, 127
2, 55600, Note_on_c, 1, 78, 127
2, 55640, Note_off_c, 1, 78, 0
2, 55800, Note_on_c, 1, 78, 127
2, 55840, Note_off_c, 1, 49, 0
2, 55840, Note_off_c, 1, 52, 0
2, 55840, Note_off_c, 1, 54, 0
2, 55840, Note_off_c, 1, 58, 0
2, 55840, Note_off_c, 1, 78, 0
2, 55880, Note_on_c, 1, 39, 127
2, 56120, Note_off_c, 1, 39, 0
2, 56160, Note_on_c, 1, 43, 127
2, 56160, Note_on_c, 1, 66, 127
2, 56160, Note_on_c, 1, 69, 127
2, 56160, Note_on_c, 1, 72, 127
2, 56160, Note_on_c, 1, 74, 127
2, 56200, Note_off_c, 1, 43, 0
2, 56200, Note_off_c, 1, 66, 0
2, 56200, Note_off_c, 1, 69, 0
2, 56200, Note_off_c, 1, 72, 0
2, 56200, Note_off_c, 1, 74, 0
2, 56480, Note_on_c, 1, 38, 127
2, 56720, Note_off_c, 1, 38, 0
2, 56760, Note_on_c, 1, 43, 127
2, 56760, Note_on_c, 1, 55, 127
2, 56760, Note_on_c, 1, 59, 127
2, 56760, Note_on_c, 1, 62, 127
2, 56760, Note_on_c, 1, 67, 127
2, 56760, Note_on_c, 1, 71, 127
2, 57000, Note_off_c, 1, 43, 0
2, 57000, Note_off_c, 1, 55, 0
2, 57000, Note_off_c, 1, 59, 0
2, 57000, Note_off_c, 1, 62, 0
2, 57000, Note_off_c, 1, 67, 0
2, 57000, Note_off_c, 1, 71, 0
2, 57040, Note_on_c, 1, 40, 127
2, 57040, Note_on_c, 1, 59, 127
2, 57040, Note_on_c, 1, 67, 127
2, 57080, Note_off_c, 1, 40, 0
2, 57080, Note_on_c, 1, 42, 127
2, 57080, Note_off_c, 1, 59, 0
2, 57080, Note_off_c, 1, 67, 0
2, 57160, Note_off_c, 1, 42, 0
2, 57200, Note_on_c, 1, 39, 127
2, 57240, Note_off_c, 1, 39, 0
2, 57280, Note_on_c, 1, 39, 127
2, 57320, Note_off_c, 1, 39, 0
2, 57320, Note_on_c, 1, 40, 127
2, 57320, Note_on_c, 1, 45, 127
2, 57320, Note_on_c, 1, 48, 127
2, 57320, Note_on_c, 1, 59, 127
2, 57320, Note_on_c, 1, 71, 127
2, 57360, Note_off_c, 1, 40, 0
2, 57360, Note_off_c, 1, 45, 0
2, 57360, Note_off_c, 1, 48, 0
2, 57360, Note_on_c, 1, 63, 127
2, 57360, Note_off_c, 1, 71, 0
2, 57560, Note_off_c, 1, 59, 0
2, 57560, Note_off_c, 1, 63, 0
2, 57600, Note_on_c, 1, 59, 127
2, 57600, Note_on_c, 1, 63, 127
2, 57840, Note_off_c, 1, 59, 0
2, 57840, Note_off_c, 1, 63, 0
2, 57880, Note_on_c, 1, 63, 127
2, 57880, Note_on_c, 1, 66, 127
2, 57880, Note_on_c, 1, 71, 127
2, 58120, Note_off_c, 1, 63, 0
2, 58120, Note_off_c, 1, 66, 0
2, 58120, Note_off_c, 1, 71, 0
2, 58160, Note_on_c, 1, 61, 127
2, 58160, Note_on_c, 1, 66, 127
2, 58160, Note_on_c, 1, 70, 127
2, 58160, Note_on_c, 1, 76, 127
2, 58280, Note_off_c, 1, 61, 0
2, 58280, Note_off_c, 1, 66, 0
2, 58280, Note_off_c, 1, 70, 0
2, 58280, Note_off_c, 1, 76, 0
2, 58320, Note_on_c, 1, 61, 127
2, 58320, Note_on_c, 1, 66, 127
2, 58320, Note_on_c, 1, 70, 127
2, 58320, Note_on_c, 1, 76, 127
2, 58440, Note_off_c, 1, 61, 0
2, 58440, Note_off_c, 1, 66, 0
2, 58440, Note_off_c, 1, 70, 0
2, 58440, Note_off_c, 1, 76, 0
2, 58480, Note_on_c, 1, 59, 127
2, 58480, Note_on_c, 1, 66, 127
2, 58480, Note_on_c, 1, 71, 127
2, 58480, Note_on_c, 1, 75, 127
2, 58720, Note_off_c, 1, 59, 0
2, 58720, Note_off_c, 1, 66, 0
2, 58720, Note_off_c, 1, 71, 0
2, 58720, Note_off_c, 1, 75, 0
2, 58760, Note_on_c, 1, 59, 127
2, 58760, Note_on_c, 1, 66, 127
2, 58760, Note_on_c, 1, 71, 127
2, 58760, Note_on_c, 1, 75, 127
2, 59000, Note_off_c, 1, 59, 0
2, 59000, Note_off_c, 1, 66, 0
2, 59000, Note_off_c, 1, 71, 0
2, 59000, Note_off_c, 1, 75, 0
2, 59040, Note_on_c, 1, 64, 127
2, 59040, Note_on_c, 1, 68, 127
2, 59040, Note_on_c, 1, 71, 127
2, 59040, Note_on_c, 1, 75, 127
2, 59280, Note_off_c, 1, 75, 0
2, 59320, Note_on_c, 1, 75, 127
2, 59560, Note_off_c, 1, 75, 0
2, 59600, Note_on_c, 1, 76, 127
2, 59840, Note_off_c, 1, 64, 0
2, 59840, Note_off_c, 1, 68, 0
2, 59840, Note_off_c, 1, 71, 0
2, 59840, Note_off_c, 1, 76, 0
2, 59880, Note_on_c, 1, 62, 127
2, 59880, Note_on_c, 1, 68, 127
2, 59880, Note_on_c, 1, 71, 127
2, 59880, Note_on_c, 1, 77, 127
2, 60120, Note_off_c, 1, 62, 0
2, 60120, Note_off_c, 1, 68, 0
2, 60120, Note_off_c, 1, 71, 0
2, 60120, Note_off_c, 1, 77, 0
2, 60160, Note_on_c, 1, 64, 127
2, 60160, Note_on_c, 1, 68, 127
2, 60160, Note_on_c, 1, 71, 127
2, 60160, Note_on_c, 1, 78, 127
2, 60200, Note_on_c, 1, 61, 127
2, 60200, Note_off_c, 1, 68, 0
2, 60200, Note_on_c, 1, 70, 127
2, 60200, Note_off_c, 1, 71, 0
2, 60200, Note_on_c, 1, 73, 127
2, 60240, Note_off_c, 1, 61, 0
2, 60240, Note_on_c, 1, 68, 127
2, 60240, Note_off_c, 1, 70, 0
2, 60240, Note_on_c, 1, 71, 127
2, 60240, Note_off_c, 1, 73, 0
2, 60400, Note_off_c, 1, 64, 0
2, 60400, Note_off_c, 1, 68, 0
2, 60400, Note_off_c, 1, 71, 0
2, 60400, Note_off_c, 1, 78, 0
2, 60440, Note_on_c, 1, 64, 127
2, 60440, Note_on_c, 1, 68, 127
2, 60440, Note_on_c, 1, 71, 127
2, 60440, Note_on_c, 1, 76, 127
2, 60480, Note_off_c, 1, 64, 0
2, 60480, Note_off_c, 1, 68, 0
2, 60480, Note_off_c, 1, 71, 0
2, 60480, Note_off_c, 1, 76, 0
2, 60520, Note_on_c, 1, 64, 127
2, 60520, Note_on_c, 1, 68, 127
2, 60520, Note_on_c, 1, 71, 127
2, 60520, Note_on_c, 1, 76, 127
2, 60600, Note_off_c, 1, 64, 0
2, 60640, Note_on_c, 1, 59, 127
2, 60720, Note_off_c, 1, 59, 0
2, 60720, Note_off_c, 1, 68, 0
2, 60720, Note_off_c, 1, 71, 0
2, 60720, Note_off_c, 1, 76, 0
2, 60760, Note_on_c, 1, 66, 127
2, 60760, Note_on_c, 1, 69, 127
2, 60760, Note_on_c, 1, 71, 127
2, 60760, Note_on_c, 1, 75, 127
2, 61000, Note_off_c, 1, 66, 0
2, 61000, Note_off_c, 1, 69, 0
2, 61000, Note_off_c, 1, 71, 0
2, 61000, Note_off_c, 1, 75, 0
2, 61040, Note_on_c, 1, 64, 127
2, 61040, Note_on_c, 1, 68, 127
2, 61040, Note_on_c, 1, 71, 127
2, 61040, Note_on_c, 1, 76, 127
2, 61280, Note_off_c, 1, 64, 0
2, 61280, Note_off_c, 1, 68, 0
2, 61280, Note_off_c, 1, 71, 0
2, 61280, Note_off_c, 1, 76, 0
2, 61320, Note_on_c, 1, 63, 127
2, 61320, Note_on_c, 1, 69, 127
2, 61320, Note_on_c, 1, 72, 127
2, 61320, Note_on_c, 1, 78, 127
2, 61560, Note_off_c, 1, 63, 0
2, 61560, Note_off_c, 1, 69, 0
2, 61560, Note_off_c, 1, 72, 0
2, 61560, Note_off_c, 1, 78, 0
2, 61600, Note_on_c, 1, 71, 127
2, 61600, Note_on_c, 1, 75, 127
2, 61600, Note_on_c, 1, 78, 127
2, 61600, Note_on_c, 1, 90, 127
2, 61840, Note_off_c, 1, 71, 0
2, 61840, Note_off_c, 1, 75, 0
2, 61840, Note_off_c, 1, 78, 0
2, 61840, Note_off_c, 1, 90, 0
2, 61880, Note_on_c, 1, 68, 127
2, 61880, Note_on_c, 1, 89, 127
2, 61880, Note_on_c, 1, 97, 127
2, 61920, Note_off_c, 1, 68, 0
2, 61920, Note_off_c, 1, 89, 0
2, 61920, Note_off_c, 1, 97, 0
2, 61960, Note_on_c, 1, 65, 127
2, 61960, Note_on_c, 1, 97, 127
2, 62000, Note_off_c, 1, 65, 0
2, 62000, Note_off_c, 1, 97, 0
2, 62040, Note_on_c, 1, 59, 127
2, 62040, Note_on_c, 1, 97, 127
2, 62080, Note_off_c, 1, 59, 0
2, 62080, Note_off_c, 1, 97, 0
2, 62200, Note_on_c, 1, 66, 127
2, 62200, Note_on_c, 1, 69, 127
2, 62200, Note_on_c, 1, 81, 127
2, 62200, Note_on_c, 1, 90, 127
2, 62200, Note_on_c, 1, 93, 127
2, 62240, Note_off_c, 1, 66, 0
2, 62240, Note_off_c, 1, 69, 0
2, 62240, Note_off_c, 1, 81, 0
2, 62240, Note_off_c, 1, 90, 0
2, 62240, Note_off_c, 1, 93, 0
2, 62480, Note_on_c, 1, 52, 127
2, 62480, Note_on_c, 1, 64, 127
2, 62480, Note_on_c, 1, 76, 127
2, 62480, Note_on_c, 1, 85, 127
2, 62480, Note_on_c, 1, 88, 127
2, 62680, Note_off_c, 1, 52, 0
2, 62680, Note_off_c, 1, 64, 0
2, 62680, Note_off_c, 1, 76, 0
2, 62680, Note_off_c, 1, 85, 0
2, 62680, Note_off_c, 1, 88, 0
2, 62720, Note_on_c, 1, 52, 127
2, 62720, Note_on_c, 1, 64, 127
2, 62720, Note_on_c, 1, 76, 127
2, 62720, Note_on_c, 1, 85, 127
2, 62720, Note_on_c, 1, 88, 127
2, 62760, Note_off_c, 1, 52, 0
2, 62760, Note_off_c, 1, 64, 0
2, 62760, Note_off_c, 1, 76, 0
2, 62760, Note_off_c, 1, 85, 0
2, 62760, Note_off_c, 1, 88, 0
2, 62800, Note_on_c, 1, 42, 127
2, 62800, Note_on_c, 1, 49, 127
2, 62800, Note_on_c, 1, 58, 127
2, 62800, Note_on_c, 1, 73, 127
2, 62800, Note_on_c, 1, 78, 127
2, 62800, Note_on_c, 1, 82, 127
2, 62800, Note_on_c, 1, 85, 127
2, 62840, Note_off_c, 1, 42, 0
2, 62840, Note_off_c, 1, 49, 0
2, 62840, Note_off_c, 1, 58, 0
2, 62840, Note_off_c, 1, 73, 0
2, 62840, Note_off_c, 1, 78, 0
2, 62840, Note_off_c, 1, 82, 0
2, 62840, Note_off_c, 1, 85, 0
2, 62960, Note_on_c, 1, 59, 127
2, 62960, Note_on_c, 1, 71, 127
2, 62960, Note_on_c, 1, 74, 127
2, 62960, Note_on_c, 1, 83, 127
2, 62960, Note_on_c, 1, 86, 127
2, 63000, Note_off_c, 1, 59, 0
2, 63000, Note_off_c, 1, 71, 0
2, 63000, Note_off_c, 1, 74, 0
2, 63000, Note_off_c, 1, 83, 0
2, 63000, Note_off_c, 1, 86, 0
2, 63120, Note_on_c, 1, 47, 127
2, 63120, Note_on_c, 1, 51, 127
2, 63120, Note_on_c, 1, 54, 127
2, 63120, Note_on_c, 1, 59, 127
2, 63120, Note_on_c, 1, 63, 127
2, 63120, Note_on_c, 1, 66, 127
2, 63120, Note_on_c, 1, 71, 127
2, 63120, Note_on_c, 1, 75, 127
2, 63360, Note_off_c, 1, 47, 0
2, 63360, Note_off_c, 1, 51, 0
2, 63360, Note_off_c, 1, 54, 0
2, 63360, Note_off_c, 1, 59, 0
2, 63360, Note_off_c, 1, 63, 0
2, 63360, Note_off_c, 1, 66, 0
2, 63360, Note_off_c, 1, 71, 0
2, 63360, Note_off_c, 1, 75, 0
2, 63400, Note_on_c, 1, 54, 127
2, 63400, Note_on_c, 1, 63, 127
2, 63400, Note_on_c, 1, 66, 127
2, 63400, Note_on_c, 1, 71, 127
2, 63400, Note_on_c, 1, 75, 127
2, 63400, Note_on_c, 1, 83, 127
2, 63600, Note_off_c, 1, 54, 0
2, 63600, Note_off_c, 1, 63, 0
2, 63600, Note_off_c, 1, 66, 0
2, 63600, Note_off_c, 1, 71, 0
2, 63600, Note_off_c, 1, 75, 0
2, 63600, Note_off_c, 1, 83, 0
2, 63680, Note_on_c, 1, 54, 127
2, 63680, Note_on_c, 1, 63, 127
2, 63680, Note_on_c, 1, 66, 127
2, 63680, Note_on_c, 1, 71, 127
2, 63680, Note_on_c, 1, 75, 127
2, 63680, Note_on_c, 1, 83, 127
2, 63920, Note_off_c, 1, 54, 0
2, 63920, Note_off_c, 1, 63, 0
2, 63920, Note_off_c, 1, 66, 0
2, 63920, Note_off_c, 1, 71, 0
2, 63920, Note_off_c, 1, 75, 0
2, 63920, Note_off_c, 1, 83, 0
2, 63960, Note_on_c, 1, 54, 127
2, 63960, Note_on_c, 1, 63, 127
2, 63960, Note_on_c, 1, 66, 127
2, 63960, Note_on_c, 1, 71, 127
2, 63960, Note_on_c, 1, 75, 127
2, 63960, Note_on_c, 1, 83, 127
2, 64200, Note_off_c, 1, 54, 0
2, 64200, Note_off_c, 1, 63, 0
2, 64200, Note_off_c, 1, 66, 0
2, 64200, Note_off_c, 1, 71, 0
2, 64200, Note_off_c, 1, 75, 0
2, 64200, Note_off_c, 1, 83, 0
2, 64240, Note_on_c, 1, 54, 127
2, 64240, Note_on_c, 1, 63, 127
2, 64240, Note_on_c, 1, 66, 127
2, 64240, Note_on_c, 1, 71, 127
2, 64240, Note_on_c, 1, 75, 127
2, 64240, Note_on_c, 1, 83, 127
2, 64480, Note_off_c, 1, 54, 0
2, 64480, Note_off_c, 1, 63, 0
2, 64480, Note_off_c, 1, 66, 0
2, 64480, Note_off_c, 1, 71, 0
2, 64480, Note_off_c, 1, 75, 0
2, 64480, Note_off_c, 1, 83, 0
2, 64560, Note_on_c, 1, 54, 127
2, 64560, Note_on_c, 1, 63, 127
2, 64560, Note_on_c, 1, 66, 127
2, 64560, Note_on_c, 1, 71, 127
2, 64560, Note_on_c, 1, 75, 127
2, 64560, Note_on_c, 1, 83, 127
2, 64800, Note_off_c, 1, 54, 0
2, 64800, Note_off_c, 1, 63, 0
2, 64800, Note_off_c, 1, 66, 0
2, 64800, Note_off_c, 1, 71, 0
2, 64800, Note_off_c, 1, 75, 0
2, 64800, Note_off_c, 1, 83, 0
2, 64880, Note_on_c, 1, 54, 127
2, 64880, Note_on_c, 1, 63, 127
2, 64880, Note_on_c, 1, 66, 127
2, 64880, Note_on_c, 1, 71, 127
2, 64880, Note_on_c, 1, 75, 127
2, 64880, Note_on_c, 1, 83, 127
2, 65040, Note_off_c, 1, 54, 0
2, 65040, Note_off_c, 1, 63, 0
2, 65040, Note_off_c, 1, 66, 0
2, 65040, Note_off_c, 1, 71, 0
2, 65040, Note_off_c, 1, 75, 0
2, 65040, Note_off_c, 1, 83, 0
2, 65120, Note_on_c, 1, 54, 127
2, 65120, Note_on_c, 1, 63, 127
2, 65120, Note_on_c, 1, 66, 127
2, 65120, Note_on_c, 1, 71, 127
2, 65120, Note_on_c, 1, 75, 127
2, 65120, Note_on_c, 1, 83, 127
2, 65320, Note_off_c, 1, 54, 0
2, 65320, Note_off_c, 1, 63, 0
2, 65320, Note_off_c, 1, 66, 0
2, 65320, Note_off_c, 1, 71, 0
2, 65320, Note_off_c, 1, 75, 0
2, 65320, Note_off_c, 1, 83, 0
2, 65400, Note_on_c, 1, 54, 127
2, 65400, Note_on_c, 1, 63, 127
2, 65400, Note_on_c, 1, 66, 127
2, 65400, Note_on_c, 1, 71, 127
2, 65400, Note_on_c, 1, 75, 127
2, 65400, Note_on_c, 1, 83, 127
2, 65640, Note_off_c, 1, 54, 0
2, 65640, Note_off_c, 1, 63, 0
2, 65640, Note_off_c, 1, 66, 0
2, 65640, Note_off_c, 1, 71, 0
2, 65640, Note_off_c, 1, 75, 0
2, 65640, Note_off_c, 1, 83, 0
2, 65680, Note_on_c, 1, 54, 127
2, 65680, Note_on_c, 1, 63, 127
2, 65680, Note_on_c, 1, 66, 127
2, 65680, Note_on_c, 1, 71, 127
2, 65680, Note_on_c, 1, 75, 127
2, 65680, Note_on_c, 1, 83, 127
2, 65920, Note_off_c, 1, 54, 0
2, 65920, Note_off_c, 1, 63, 0
2, 65920, Note_off_c, 1, 66, 0
2, 65920, Note_off_c, 1, 71, 0
2, 65920, Note_off_c, 1, 75, 0
2, 65920, Note_off_c, 1, 83, 0
2, 65960, Note_on_c, 1, 54, 127
2, 65960, Note_on_c, 1, 63, 127
2, 65960, Note_on_c, 1, 66, 127
2, 65960, Note_on_c, 1, 71, 127
2, 65960, Note_on_c, 1, 75, 127
2, 65960, Note_on_c, 1, 83, 127
2, 66200, Note_off_c, 1, 54, 0
2, 66200, Note_off_c, 1, 63, 0
2, 66200, Note_off_c, 1, 66, 0
2, 66200, Note_off_c, 1, 71, 0
2, 66200, Note_off_c, 1, 75, 0
2, 66200, Note_off_c, 1, 83, 0
2, 66240, Note_on_c, 1, 54, 127
2, 66240, Note_on_c, 1, 63, 127
2, 66240, Note_on_c, 1, 66, 127
2, 66240, Note_on_c, 1, 71, 127
2, 66240, Note_on_c, 1, 75, 127
2, 66240, Note_on_c, 1, 83, 127
2, 66480, Note_off_c, 1, 54, 0
2, 66480, Note_off_c, 1, 63, 0
2, 66480, Note_off_c, 1, 66, 0
2, 66480, Note_off_c, 1, 71, 0
2, 66480, Note_off_c, 1, 75, 0
2, 66480, Note_off_c, 1, 83, 0
2, 66520, Note_on_c, 1, 54, 127
2, 66520, Note_on_c, 1, 63, 127
2, 66520, Note_on_c, 1, 66, 127
2, 66520, Note_on_c, 1, 71, 127
2, 66520, Note_on_c, 1, 75, 127
2, 66520, Note_on_c, 1, 83, 127
2, 66760, Note_off_c, 1, 54, 0
2, 66760, Note_off_c, 1, 63, 0
2, 66760, Note_off_c, 1, 66, 0
2, 66760, Note_off_c, 1, 71, 0
2, 66760, Note_off_c, 1, 75, 0
2, 66760, Note_off_c, 1, 83, 0
2, 66800, Note_on_c, 1, 54, 127
2, 66800, Note_on_c, 1, 63, 127
2, 66800, Note_on_c, 1, 66, 127
2, 66800, Note_on_c, 1, 71, 127
2, 66800, Note_on_c, 1, 75, 127
2, 66800, Note_on_c, 1, 83, 127
2, 66960, Note_off_c, 1, 54, 0
2, 66960, Note_off_c, 1, 63, 0
2, 66960, Note_off_c, 1, 66, 0
2, 66960, Note_off_c, 1, 71, 0
2, 66960, Note_off_c, 1, 75, 0
2, 66960, Note_off_c, 1, 83, 0
2, 67000, Note_on_c, 1, 54, 127
2, 67000, Note_on_c, 1, 63, 127
2, 67000, Note_on_c, 1, 66, 127
2, 67000, Note_on_c, 1, 71, 127
2, 67000, Note_on_c, 1, 75, 127
2, 67000, Note_on_c, 1, 83, 127
2, 67080, Note_off_c, 1, 54, 0
2, 67080, Note_off_c, 1, 63, 0
2, 67080, Note_off_c, 1, 66, 0
2, 67080, Note_off_c, 1, 71, 0
2, 67080, Note_off_c, 1, 75, 0
2, 67080, Note_off_c, 1, 83, 0
2, 67120, Note_on_c, 1, 54, 127
2, 67120, Note_on_c, 1, 63, 127
2, 67120, Note_on_c, 1, 66, 127
2, 67120, Note_on_c, 1, 71, 127
2, 67120, Note_on_c, 1, 75, 127
2, 67120, Note_on_c, 1, 83, 127
2, 67360, Note_off_c, 1, 54, 0
2, 67360, Note_off_c, 1, 63, 0
2, 67360, Note_off_c, 1, 66, 0
2, 67360, Note_off_c, 1, 71, 0
2, 67360, Note_off_c, 1, 75, 0
2, 67360, Note_off_c, 1, 83, 0
2, 67400, Note_on_c, 1, 54, 127
2, 67400, Note_on_c, 1, 63, 127
2, 67400, Note_on_c, 1, 66, 127
2, 67400, Note_on_c, 1, 71, 127
2, 67400, Note_on_c, 1, 75, 127
2, 67400, Note_on_c, 1, 83, 127
2, 67560, Note_off_c, 1, 54, 0
2, 67560, Note_off_c, 1, 63, 0
2, 67560, Note_off_c, 1, 66, 0
2, 67560, Note_off_c, 1, 71, 0
2, 67560, Note_off_c, 1, 75, 0
2, 67560, Note_off_c, 1, 83, 0
2, 67680, Note_on_c, 1, 54, 127
2, 67680, Note_on_c, 1, 63, 127
2, 67680, Note_on_c, 1, 66, 127
2, 67680, Note_on_c, 1, 71, 127
2, 67680, Note_on_c, 1, 75, 127
2, 67680, Note_on_c, 1, 83, 127
2, 67880, Note_off_c, 1, 54, 0
2, 67880, Note_off_c, 1, 63, 0
2, 67880, Note_off_c, 1, 66, 0
2, 67880, Note_off_c, 1, 71, 0
2, 67880, Note_off_c, 1, 75, 0
2, 67880, Note_off_c, 1, 83, 0
2, 67960, Note_on_c, 1, 54, 127
2, 67960, Note_on_c, 1, 63, 127
2, 67960, Note_on_c, 1, 66, 127
2, 67960, Note_on_c, 1, 71, 127
2, 67960, Note_on_c, 1, 75, 127
2, 67960, Note_on_c, 1, 83, 127
2, 68160, Note_off_c, 1, 54, 0
2, 68160, Note_off_c, 1, 63, 0
2, 68160, Note_off_c, 1, 66, 0
2, 68160, Note_off_c, 1, 71, 0
2, 68160, Note_off_c, 1, 75, 0
2, 68160, Note_off_c, 1, 83, 0
2, 68240, Note_on_c, 1, 54, 127
2, 68240, Note_on_c, 1, 63, 127
2, 68240, Note_on_c, 1, 66, 127
2, 68240, Note_on_c, 1, 71, 127
2, 68240, Note_on_c, 1, 75, 127
2, 68240, Note_on_c, 1, 83, 127
2, 68480, Note_off_c, 1, 54, 0
2, 68480, Note_off_c, 1, 63, 0
2, 68480, Note_off_c, 1, 66, 0
2, 68480, Note_off_c, 1, 71, 0
2, 68480, Note_off_c, 1, 75, 0
2, 68480, Note_off_c, 1, 83, 0
2, 68520, Note_on_c, 1, 54, 127
2, 68520, Note_on_c, 1, 63, 127
2, 68520, Note_on_c, 1, 66, 127
2, 68520, Note_on_c, 1, 71, 127
2, 68520, Note_on_c, 1, 75, 127
2, 68520, Note_on_c, 1, 83, 127
2, 68760, Note_off_c, 1, 54, 0
2, 68760, Note_off_c, 1, 63, 0
2, 68760, Note_off_c, 1, 66, 0
2, 68760, Note_off_c, 1, 71, 0
2, 68760, Note_off_c, 1, 75, 0
2, 68760, Note_off_c, 1, 83, 0
2, 68800, Note_on_c, 1, 54, 127
2, 68800, Note_on_c, 1, 63, 127
2, 68800, Note_on_c, 1, 66, 127
2, 68800, Note_on_c, 1, 71, 127
2, 68800, Note_on_c, 1, 75, 127
2, 68800, Note_on_c, 1, 83, 127
2, 69000, Note_off_c, 1, 54, 0
2, 69000, Note_off_c, 1, 63, 0
2, 69000, Note_off_c, 1, 66, 0
2, 69000, Note_off_c, 1, 71, 0
2, 69000, Note_off_c, 1, 75, 0
2, 69000, Note_off_c, 1, 83, 0
2, 69120, Note_on_c, 1, 53, 127
2, 69120, Note_on_c, 1, 58, 127
2, 69120, Note_on_c, 1, 65, 127
2, 69120, Note_on_c, 1, 68, 127
2, 69120, Note_on_c, 1, 70, 127
2, 69120, Note_on_c, 1, 80, 127
2, 69360, Note_off_c, 1, 53, 0
2, 69360, Note_off_c, 1, 58, 0
2, 69360, Note_off_c, 1, 65, 0
2, 69360, Note_off_c, 1, 68, 0
2, 69360, Note_off_c, 1, 70, 0
2, 69360, Note_off_c, 1, 80, 0
2, 69400, Note_on_c, 1, 55, 127
2, 69400, Note_on_c, 1, 58, 127
2, 69400, Note_on_c, 1, 67, 127
2, 69400, Note_on_c, 1, 70, 127
2, 69400, Note_on_c, 1, 82, 127
2, 69640, Note_off_c, 1, 55, 0
2, 69640, Note_off_c, 1, 58, 0
2, 69640, Note_off_c, 1, 67, 0
2, 69640, Note_off_c, 1, 70, 0
2, 69640, Note_off_c, 1, 82, 0
2, 69680, Note_on_c, 1, 67, 127
2, 69680, Note_on_c, 1, 71, 127
2, 69680, Note_on_c, 1, 76, 127
2, 69680, Note_on_c, 1, 78, 127
2, 69720, Note_on_c, 1, 43, 127
2, 69720, Note_on_c, 1, 48, 127
2, 69720, Note_on_c, 1, 52, 127
2, 69720, Note_on_c, 1, 58, 127
2, 69720, Note_on_c, 1, 60, 127
2, 69720, Note_off_c, 1, 71, 0
2, 69720, Note_off_c, 1, 76, 0
2, 69720, Note_off_c, 1, 78, 0
2, 69880, Note_off_c, 1, 43, 0
2, 69880, Note_off_c, 1, 48, 0
2, 69880, Note_off_c, 1, 52, 0
2, 69880, Note_off_c, 1, 58, 0
2, 69880, Note_off_c, 1, 60, 0
2, 69880, Note_off_c, 1, 67, 0
2, 69960, Note_on_c, 1, 43, 127
2, 69960, Note_on_c, 1, 48, 127
2, 69960, Note_on_c, 1, 52, 127
2, 69960, Note_on_c, 1, 58, 127
2, 69960, Note_on_c, 1, 60, 127
2, 69960, Note_on_c, 1, 67, 127
2, 70200, Note_off_c, 1, 43, 0
2, 70200, Note_off_c, 1, 48, 0
2, 70200, Note_off_c, 1, 52, 0
2, 70200, Note_off_c, 1, 58, 0
2, 70200, Note_off_c, 1, 60, 0
2, 70200, Note_off_c, 1, 67, 0
2, 70240, Note_on_c, 1, 43, 127
2, 70240, Note_on_c, 1, 48, 127
2, 70240, Note_on_c, 1, 52, 127
2, 70240, Note_on_c, 1, 58, 127
2, 70240, Note_on_c, 1, 60, 127
2, 70240, Note_on_c, 1, 69, 127
2, 70400, Note_off_c, 1, 43, 0
2, 70400, Note_off_c, 1, 48, 0
2, 70400, Note_off_c, 1, 52, 0
2, 70400, Note_off_c, 1, 58, 0
2, 70400, Note_off_c, 1, 60, 0
2, 70400, Note_off_c, 1, 69, 0
2, 70520, Note_on_c, 1, 58, 127
2, 70520, Note_on_c, 1, 66, 127
2, 70520, Note_on_c, 1, 70, 127
2, 70520, Note_on_c, 1, 82, 127
2, 70520, Note_on_c, 1, 90, 127
2, 70520, Note_on_c, 1, 94, 127
2, 70640, Note_off_c, 1, 58, 0
2, 70640, Note_off_c, 1, 66, 0
2, 70640, Note_off_c, 1, 70, 0
2, 70640, Note_off_c, 1, 82, 0
2, 70640, Note_off_c, 1, 90, 0
2, 70640, Note_off_c, 1, 94, 0
2, 70800, Note_on_c, 1, 37, 127
2, 70800, Note_on_c, 1, 44, 127
2, 70800, Note_on_c, 1, 49, 127
2, 70800, Note_on_c, 1, 53, 127
2, 70800, Note_on_c, 1, 56, 127
2, 70800, Note_on_c, 1, 61, 127
2, 70800, Note_on_c, 1, 65, 127
2, 71040, Note_off_c, 1, 37, 0
2, 71040, Note_off_c, 1, 44, 0
2, 71040, Note_off_c, 1, 49, 0
2, 71040, Note_off_c, 1, 53, 0
2, 71040, Note_off_c, 1, 56, 0
2, 71040, Note_off_c, 1, 61, 0
2, 71040, Note_off_c, 1, 65, 0
2, 71080, Note_on_c, 1, 37, 127
2, 71080, Note_on_c, 1, 44, 127
2, 71080, Note_on_c, 1, 49, 127
2, 71080, Note_on_c, 1, 53, 127
2, 71080, Note_on_c, 1, 56, 127
2, 71080, Note_on_c, 1, 61, 127
2, 71080, Note_on_c, 1, 65, 127
2, 71120, Note_off_c, 1, 37, 0
2, 71120, Note_off_c, 1, 44, 0
2, 71120, Note_off_c, 1, 49, 0
2, 71120, Note_off_c, 1, 53, 0
2, 71120, Note_off_c, 1, 56, 0
2, 71120, Note_off_c, 1, 61, 0
2, 71120, Note_off_c, 1, 65, 0
2, 71240, Note_on_c, 1, 37, 127
2, 71240, Note_on_c, 1, 44, 127
2, 71240, Note_on_c, 1, 49, 127
2, 71240, Note_on_c, 1, 53, 127
2, 71240, Note_on_c, 1, 56, 127
2, 71240, Note_on_c, 1, 61, 127
2, 71240, Note_on_c, 1, 65, 127
2, 71280, Note_off_c, 1, 37, 0
2, 71280, Note_off_c, 1, 44, 0
2, 71280, Note_off_c, 1, 49, 0
2, 71280, Note_off_c, 1, 53, 0
2, 71280, Note_off_c, 1, 56, 0
2, 71280, Note_off_c, 1, 61, 0
2, 71280, Note_off_c, 1, 65, 0
2, 71400, Note_on_c, 1, 37, 127
2, 71400, Note_on_c, 1, 44, 127
2, 71400, Note_on_c, 1, 49, 127
2, 71400, Note_on_c, 1, 53, 127
2, 71400, Note_on_c, 1, 56, 127
2, 71400, Note_on_c, 1, 61, 127
2, 71400, Note_on_c, 1, 65, 127
2, 71640, Note_off_c, 1, 37, 0
2, 71640, Note_off_c, 1, 44, 0
2, 71640, Note_off_c, 1, 49, 0
2, 71640, Note_off_c, 1, 53, 0
2, 71640, Note_off_c, 1, 56, 0
2, 71640, Note_off_c, 1, 61, 0
2, 71640, Note_off_c, 1, 65, 0
2, 71680, Note_on_c, 1, 37, 127
2, 71680, Note_on_c, 1, 44, 127
2, 71680, Note_on_c, 1, 49, 127
2, 71680, Note_on_c, 1, 53, 127
2, 71680, Note_on_c, 1, 56, 127
2, 71680, Note_on_c, 1, 61, 127
2, 71680, Note_on_c, 1, 65, 127
2, 71920, Note_off_c, 1, 37, 0
2, 71920, Note_off_c, 1, 44, 0
2, 71920, Note_off_c, 1, 49, 0
2, 71920, Note_off_c, 1, 53, 0
2, 71920, Note_off_c, 1, 56, 0
2, 71920, Note_off_c, 1, 61, 0
2, 71920, Note_off_c, 1, 65, 0
2, 71960, Note_on_c, 1, 58, 127
2, 71960, Note_on_c, 1, 62, 127
2, 71960, Note_on_c, 1, 65, 127
2, 71960, Note_on_c, 1, 82, 127
2, 71960, Note_on_c, 1, 94, 127
2, 72200, Note_off_c, 1, 58, 0
2, 72200, Note_off_c, 1, 62, 0
2, 72200, Note_off_c, 1, 65, 0
2, 72200, Note_off_c, 1, 82, 0
2, 72200, Note_off_c, 1, 94, 0
2, 72240, Note_on_c, 1, 58, 127
2, 72240, Note_on_c, 1, 62, 127
2, 72240, Note_on_c, 1, 65, 127
2, 72240, Note_on_c, 1, 82, 127
2, 72240, Note_on_c, 1, 94, 127
2, 72480, Note_off_c, 1, 58, 0
2, 72480, Note_off_c, 1, 62, 0
2, 72480, Note_off_c, 1, 65, 0
2, 72480, Note_off_c, 1, 82, 0
2, 72480, Note_off_c, 1, 94, 0
2, 72520, Note_on_c, 1, 48, 127
2, 72520, Note_on_c, 1, 80, 127
2, 72520, Note_on_c, 1, 89, 127
2, 72520, Note_on_c, 1, 92, 127
2, 72640, Note_off_c, 1, 48, 0
2, 72640, Note_off_c, 1, 80, 0
2, 72640, Note_off_c, 1, 89, 0
2, 72640, Note_off_c, 1, 92, 0
2, 72680, Note_on_c, 1, 55, 127
2, 72680, Note_on_c, 1, 58, 127
2, 72680, Note_on_c, 1, 61, 127
2, 72680, Note_on_c, 1, 64, 127
2, 72680, Note_on_c, 1, 84, 127
2, 72760, Note_off_c, 1, 55, 0
2, 72760, Note_off_c, 1, 58, 0
2, 72760, Note_off_c, 1, 61, 0
2, 72760, Note_off_c, 1, 64, 0
2, 72760, Note_off_c, 1, 84, 0
2, 72800, Note_on_c, 1, 34, 127
2, 72800, Note_on_c, 1, 53, 127
2, 72800, Note_on_c, 1, 56, 127
2, 72800, Note_on_c, 1, 63, 127
2, 73080, Note_off_c, 1, 34, 0
2, 73080, Note_off_c, 1, 53, 0
2, 73080, Note_off_c, 1, 56, 0
2, 73080, Note_off_c, 1, 63, 0
2, 73120, Note_on_c, 1, 63, 127
2, 73120, Note_on_c, 1, 69, 127
2, 73120, Note_on_c, 1, 72, 127
2, 73120, Note_on_c, 1, 77, 127
2, 73120, Note_on_c, 1, 81, 127
2, 73320, Note_off_c, 1, 63, 0
2, 73320, Note_off_c, 1, 69, 0
2, 73320, Note_off_c, 1, 72, 0
2, 73320, Note_off_c, 1, 77, 0
2, 73320, Note_off_c, 1, 81, 0
2, 73360, Note_on_c, 1, 63, 127
2, 73360, Note_on_c, 1, 69, 127
2, 73360, Note_on_c, 1, 72, 127
2, 73360, Note_on_c, 1, 77, 127
2, 73360, Note_on_c, 1, 81, 127
2, 73400, Note_off_c, 1, 63, 0
2, 73400, Note_off_c, 1, 69, 0
2, 73400, Note_off_c, 1, 72, 0
2, 73400, Note_off_c, 1, 77, 0
2, 73400, Note_off_c, 1, 81, 0
2, 73440, Note_on_c, 1, 63, 127
2, 73440, Note_on_c, 1, 66, 127
2, 73440, Note_on_c, 1, 70, 127
2, 73440, Note_on_c, 1, 75, 127
2, 73440, Note_on_c, 1, 82, 127
2, 73440, Note_on_c, 1, 87, 127
2, 73680, Note_off_c, 1, 63, 0
2, 73680, Note_off_c, 1, 66, 0
2, 73680, Note_off_c, 1, 70, 0
2, 73680, Note_off_c, 1, 75, 0
2, 73680, Note_off_c, 1, 82, 0
2, 73680, Note_off_c, 1, 87, 0
2, 73720, Note_on_c, 1, 61, 127
2, 73720, Note_on_c, 1, 66, 127
2, 73720, Note_on_c, 1, 70, 127
2, 73720, Note_on_c, 1, 73, 127
2, 73720, Note_on_c, 1, 82, 127
2, 73720, Note_on_c, 1, 85, 127
2, 73960, Note_off_c, 1, 61, 0
2, 73960, Note_off_c, 1, 66, 0
2, 73960, Note_off_c, 1, 70, 0
2, 73960, Note_off_c, 1, 73, 0
2, 73960, Note_off_c, 1, 82, 0
2, 73960, Note_off_c, 1, 85, 0
2, 74000, Note_on_c, 1, 63, 127
2, 74000, Note_on_c, 1, 66, 127
2, 74000, Note_on_c, 1, 70, 127
2, 74000, Note_on_c, 1, 75, 127
2, 74000, Note_on_c, 1, 82, 127
2, 74000, Note_on_c, 1, 87, 127
2, 74240, Note_off_c, 1, 63, 0
2, 74240, Note_off_c, 1, 66, 0
2, 74240, Note_off_c, 1, 70, 0
2, 74240, Note_off_c, 1, 75, 0
2, 74240, Note_off_c, 1, 82, 0
2, 74240, Note_off_c, 1, 87, 0
2, 74280, Note_on_c, 1, 39, 127
2, 74280, Note_on_c, 1, 51, 127
2, 74280, Note_on_c, 1, 67, 127
2, 74280, Note_on_c, 1, 70, 127
2, 74280, Note_on_c, 1, 75, 127
2, 74280, Note_on_c, 1, 79, 127
2, 74520, Note_off_c, 1, 39, 0
2, 74520, Note_off_c, 1, 51, 0
2, 74520, Note_off_c, 1, 67, 0
2, 74520, Note_off_c, 1, 70, 0
2, 74520, Note_off_c, 1, 75, 0
2, 74520, Note_off_c, 1, 79, 0
2, 74560, Note_on_c, 1, 39, 127
2, 74560, Note_on_c, 1, 51, 127
2, 74560, Note_on_c, 1, 67, 127
2, 74560, Note_on_c, 1, 70, 127
2, 74560, Note_on_c, 1, 75, 127
2, 74560, Note_on_c, 1, 79, 127
2, 74800, Note_off_c, 1, 39, 0
2, 74800, Note_off_c, 1, 51, 0
2, 74800, Note_off_c, 1, 67, 0
2, 74800, Note_off_c, 1, 70, 0
2, 74800, Note_off_c, 1, 75, 0
2, 74800, Note_off_c, 1, 79, 0
2, 74840, Note_on_c, 1, 35, 127
2, 74840, Note_on_c, 1, 47, 127
2, 74840, Note_on_c, 1, 68, 127
2, 74840, Note_on_c, 1, 75, 127
2, 74840, Note_on_c, 1, 80, 127
2, 75080, Note_off_c, 1, 35, 0
2, 75080, Note_off_c, 1, 47, 0
2, 75080, Note_off_c, 1, 68, 0
2, 75080, Note_off_c, 1, 75, 0
2, 75080, Note_off_c, 1, 80, 0
2, 75120, Note_on_c, 1, 50, 127
2, 75120, Note_on_c, 1, 59, 127
2, 75120, Note_on_c, 1, 64, 127
2, 75120, Note_on_c, 1, 69, 127
2, 75120, Note_on_c, 1, 73, 127
2, 75360, Note_off_c, 1, 50, 0
2, 75360, Note_off_c, 1, 59, 0
2, 75360, Note_off_c, 1, 64, 0
2, 75360, Note_off_c, 1, 69, 0
2, 75360, Note_off_c, 1, 73, 0
2, 75760, Note_on_c, 1, 47, 127
2, 75760, Note_on_c, 1, 59, 127
2, 75760, Note_on_c, 1, 71, 127
2, 75760, Note_on_c, 1, 83, 127
2, 76000, Note_off_c, 1, 47, 0
2, 76000, Note_off_c, 1, 59, 0
2, 76000, Note_off_c, 1, 71, 0
2, 76000, Note_off_c, 1, 83, 0
2, 76040, Note_on_c, 1, 43, 127
2, 76040, Note_on_c, 1, 47, 127
2, 76040, Note_on_c, 1, 50, 127
2, 76040, Note_on_c, 1, 55, 127
2, 76040, Note_on_c, 1, 67, 127
2, 76040, Note_on_c, 1, 71, 127
2, 76040, Note_on_c, 1, 74, 127
2, 76040, Note_on_c, 1, 79, 127
2, 76280, Note_off_c, 1, 43, 0
2, 76280, Note_off_c, 1, 47, 0
2, 76280, Note_off_c, 1, 50, 0
2, 76280, Note_off_c, 1, 55, 0
2, 76280, Note_off_c, 1, 67, 0
2, 76280, Note_off_c, 1, 71, 0
2, 76280, Note_off_c, 1, 74, 0
2, 76280, Note_off_c, 1, 79, 0
2, 76320, Note_on_c, 1, 43, 127
2, 76320, Note_on_c, 1, 47, 127
2, 76320, Note_on_c, 1, 50, 127
2, 76320, Note_on_c, 1, 55, 127
2, 76320, Note_on_c, 1, 67, 127
2, 76320, Note_on_c, 1, 71, 127
2, 76320, Note_on_c, 1, 74, 127
2, 76320, Note_on_c, 1, 79, 127
2, 76360, Note_off_c, 1, 43, 0
2, 76360, Note_off_c, 1, 47, 0
2, 76360, Note_off_c, 1, 50, 0
2, 76360, Note_off_c, 1, 55, 0
2, 76360, Note_off_c, 1, 67, 0
2, 76360, Note_off_c, 1, 71, 0
2, 76360, Note_off_c, 1, 74, 0
2, 76360, Note_off_c, 1, 79, 0
2, 76440, Note_on_c, 1, 43, 127
2, 76440, Note_on_c, 1, 47, 127
2, 76440, Note_on_c, 1, 50, 127
2, 76440, Note_on_c, 1, 55, 127
2, 76440, Note_on_c, 1, 67, 127
2, 76440, Note_on_c, 1, 71, 127
2, 76440, Note_on_c, 1, 74, 127
2, 76440, Note_on_c, 1, 79, 127
2, 76480, Note_off_c, 1, 43, 0
2, 76480, Note_off_c, 1, 47, 0
2, 76480, Note_off_c, 1, 50, 0
2, 76480, Note_off_c, 1, 55, 0
2, 76480, Note_off_c, 1, 67, 0
2, 76480, Note_off_c, 1, 71, 0
2, 76480, Note_off_c, 1, 74, 0
2, 76480, Note_off_c, 1, 79, 0
2, 76600, Note_on_c, 1, 43, 127
2, 76600, Note_on_c, 1, 47, 127
2, 76600, Note_on_c, 1, 50, 127
2, 76600, Note_on_c, 1, 55, 127
2, 76600, Note_on_c, 1, 67, 127
2, 76600, Note_on_c, 1, 71, 127
2, 76600, Note_on_c, 1, 74, 127
2, 76600, Note_on_c, 1, 79, 127
2, 76840, Note_off_c, 1, 43, 0
2, 76840, Note_off_c, 1, 47, 0
2, 76840, Note_off_c, 1, 50, 0
2, 76840, Note_off_c, 1, 55, 0
2, 76840, Note_off_c, 1, 67, 0
2, 76840, Note_off_c, 1, 71, 0
2, 76840, Note_off_c, 1, 74, 0
2, 76840, Note_off_c, 1, 79, 0
2, 76880, Note_on_c, 1, 43, 127
2, 76880, Note_on_c, 1, 47, 127
2, 76880, Note_on_c, 1, 50, 127
2, 76880, Note_on_c, 1, 55, 127
2, 76880, Note_on_c, 1, 67, 127
2, 76880, Note_on_c, 1, 71, 127
2, 76880, Note_on_c, 1, 74, 127
2, 76880, Note_on_c, 1, 79, 127
2, 76920, Note_off_c, 1, 43, 0
2, 76920, Note_off_c, 1, 47, 0
2, 76920, Note_off_c, 1, 50, 0
2, 76920, Note_off_c, 1, 55, 0
2, 76920, Note_off_c, 1, 67, 0
2, 76920, Note_off_c, 1, 71, 0
2, 76920, Note_off_c, 1, 74, 0
2, 76920, Note_off_c, 1, 79, 0
2, 77040, Note_on_c, 1, 43, 127
2, 77040, Note_on_c, 1, 47, 127
2, 77040, Note_on_c, 1, 50, 127
2, 77040, Note_on_c, 1, 55, 127
2, 77040, Note_on_c, 1, 67, 127
2, 77040, Note_on_c, 1, 71, 127
2, 77040, Note_on_c, 1, 74, 127
2, 77040, Note_on_c, 1, 79, 127
2, 77080, Note_off_c, 1, 43, 0
2, 77080, Note_off_c, 1, 47, 0
2, 77080, Note_off_c, 1, 50, 0
2, 77080, Note_off_c, 1, 55, 0
2, 77080, Note_off_c, 1, 67, 0
2, 77080, Note_off_c, 1, 71, 0
2, 77080, Note_off_c, 1, 74, 0
2, 77080, Note_off_c, 1, 79, 0
2, 77160, Note_on_c, 1, 43, 127
2, 77160, Note_on_c, 1, 47, 127
2, 77160, Note_on_c, 1, 50, 127
2, 77160, Note_on_c, 1, 55, 127
2, 77160, Note_on_c, 1, 67, 127
2, 77160, Note_on_c, 1, 71, 127
2, 77160, Note_on_c, 1, 74, 127
2, 77160, Note_on_c, 1, 79, 127
2, 77400, Note_off_c, 1, 43, 0
2, 77400, Note_off_c, 1, 47, 0
2, 77400, Note_off_c, 1, 50, 0
2, 77400, Note_off_c, 1, 55, 0
2, 77400, Note_off_c, 1, 67, 0
2, 77400, Note_off_c, 1, 71, 0
2, 77400, Note_off_c, 1, 74, 0
2, 77400, Note_off_c, 1, 79, 0
2, 77440, Note_on_c, 1, 43, 127
2, 77440, Note_on_c, 1, 47, 127
2, 77440, Note_on_c, 1, 50, 127
2, 77440, Note_on_c, 1, 55, 127
2, 77440, Note_on_c, 1, 67, 127
2, 77440, Note_on_c, 1, 71, 127
2, 77440, Note_on_c, 1, 74, 127
2, 77440, Note_on_c, 1, 79, 127
2, 77480, Note_off_c, 1, 43, 0
2, 77480, Note_off_c, 1, 47, 0
2, 77480, Note_off_c, 1, 50, 0
2, 77480, Note_off_c, 1, 55, 0
2, 77480, Note_off_c, 1, 67, 0
2, 77480, Note_off_c, 1, 71, 0
2, 77480, Note_off_c, 1, 74, 0
2, 77480, Note_off_c, 1, 79, 0
2, 77600, Note_on_c, 1, 43, 127
2, 77600, Note_on_c, 1, 47, 127
2, 77600, Note_on_c, 1, 50, 127
2, 77600, Note_on_c, 1, 55, 127
2, 77600, Note_on_c, 1, 67, 127
2, 77600, Note_on_c, 1, 71, 127
2, 77600, Note_on_c, 1, 74, 127
2, 77600, Note_on_c, 1, 79, 127
2, 77640, Note_off_c, 1, 43, 0
2, 77640, Note_off_c, 1, 47, 0
2, 77640, Note_off_c, 1, 50, 0
2, 77640, Note_off_c, 1, 55, 0
2, 77640, Note_off_c, 1, 67, 0
2, 77640, Note_off_c, 1, 71, 0
2, 77640, Note_off_c, 1, 74, 0
2, 77640, Note_off_c, 1, 79, 0
2, 77760, Note_on_c, 1, 43, 127
2, 77760, Note_on_c, 1, 47, 127
2, 77760, Note_on_c, 1, 50, 127
2, 77760, Note_on_c, 1, 55, 127
2, 77760, Note_on_c, 1, 67, 127
2, 77760, Note_on_c, 1, 71, 127
2, 77760, Note_on_c, 1, 74, 127
2, 77760, Note_on_c, 1, 79, 127
2, 78040, Note_off_c, 1, 43, 0
2, 78040, Note_off_c, 1, 47, 0
2, 78040, Note_off_c, 1, 50, 0
2, 78040, Note_off_c, 1, 55, 0
2, 78040, Note_off_c, 1, 67, 0
2, 78040, Note_off_c, 1, 71, 0
2, 78040, Note_off_c, 1, 74, 0
2, 78040, Note_off_c, 1, 79, 0
2, 78080, Note_on_c, 1, 43, 127
2, 78080, Note_on_c, 1, 47, 127
2, 78080, Note_on_c, 1, 50, 127
2, 78080, Note_on_c, 1, 55, 127
2, 78080, Note_on_c, 1, 67, 127
2, 78080, Note_on_c, 1, 71, 127
2, 78080, Note_on_c, 1, 74, 127
2, 78080, Note_on_c, 1, 79, 127
2, 78120, Note_off_c, 1, 43, 0
2, 78120, Note_off_c, 1, 47, 0
2, 78120, Note_off_c, 1, 50, 0
2, 78120, Note_off_c, 1, 55, 0
2, 78120, Note_off_c, 1, 67, 0
2, 78120, Note_off_c, 1, 71, 0
2, 78120, Note_off_c, 1, 74, 0
2, 78120, Note_off_c, 1, 79, 0
2, 78200, Note_on_c, 1, 43, 127
2, 78200, Note_on_c, 1, 47, 127
2, 78200, Note_on_c, 1, 50, 127
2, 78200, Note_on_c, 1, 55, 127
2, 78200, Note_on_c, 1, 67, 127
2, 78200, Note_on_c, 1, 71, 127
2, 78200, Note_on_c, 1, 74, 127
2, 78200, Note_on_c, 1, 79, 127
2, 78240, Note_off_c, 1, 43, 0
2, 78240, Note_off_c, 1, 47, 0
2, 78240, Note_off_c, 1, 50, 0
2, 78240, Note_off_c, 1, 55, 0
2, 78240, Note_off_c, 1, 67, 0
2, 78240, Note_off_c, 1, 71, 0
2, 78240, Note_off_c, 1, 74, 0
2, 78240, Note_off_c, 1, 79, 0
2, 78360, Note_on_c, 1, 43, 127
2, 78360, Note_on_c, 1, 47, 127
2, 78360, Note_on_c, 1, 50, 127
2, 78360, Note_on_c, 1, 55, 127
2, 78360, Note_on_c, 1, 67, 127
2, 78360, Note_on_c, 1, 71, 127
2, 78360, Note_on_c, 1, 74, 127
2, 78360, Note_on_c, 1, 79, 127
2, 78400, Note_off_c, 1, 43, 0
2, 78400, Note_off_c, 1, 47, 0
2, 78400, Note_off_c, 1, 50, 0
2, 78400, Note_off_c, 1, 55, 0
2, 78400, Note_off_c, 1, 67, 0
2, 78400, Note_off_c, 1, 71, 0
2, 78400, Note_off_c, 1, 74, 0
2, 78400, Note_off_c, 1, 79, 0
2, 78640, Note_on_c, 1, 43, 127
2, 78640, Note_on_c, 1, 47, 127
2, 78640, Note_on_c, 1, 50, 127
2, 78640, Note_on_c, 1, 55, 127
2, 78640, Note_on_c, 1, 67, 127
2, 78640, Note_on_c, 1, 71, 127
2, 78640, Note_on_c, 1, 74, 127
2, 78640, Note_on_c, 1, 79, 127
2, 78680, Note_off_c, 1, 43, 0
2, 78680, Note_off_c, 1, 47, 0
2, 78680, Note_off_c, 1, 50, 0
2, 78680, Note_off_c, 1, 55, 0
2, 78680, Note_off_c, 1, 67, 0
2, 78680, Note_off_c, 1, 71, 0
2, 78680, Note_off_c, 1, 74, 0
2, 78680, Note_off_c, 1, 79, 0
2, 78920, Note_on_c, 1, 43, 127
2, 78920, Note_on_c, 1, 47, 127
2, 78920, Note_on_c, 1, 50, 127
2, 78920, Note_on_c, 1, 55, 127
2, 78920, Note_on_c, 1, 67, 127
2, 78920, Note_on_c, 1, 71, 127
2, 78920, Note_on_c, 1, 74, 127
2, 78920, Note_on_c, 1, 79, 127
2, 78960, Note_off_c, 1, 43, 0
2, 78960, Note_off_c, 1, 47, 0
2, 78960, Note_off_c, 1, 50, 0
2, 78960, Note_off_c, 1, 55, 0
2, 78960, Note_off_c, 1, 67, 0
2, 78960, Note_off_c, 1, 71, 0
2, 78960, Note_off_c, 1, 74, 0
2, 78960, Note_off_c, 1, 79, 0
2, 79080, Note_on_c, 1, 43, 127
2, 79080, Note_on_c, 1, 47, 127
2, 79080, Note_on_c, 1, 50, 127
2, 79080, Note_on_c, 1, 55, 127
2, 79080, Note_on_c, 1, 67, 127
2, 79080, Note_on_c, 1, 71, 127
2, 79080, Note_on_c, 1, 74, 127
2, 79080, Note_on_c, 1, 79, 127
2, 79120, Note_off_c, 1, 43, 0
2, 79120, Note_off_c, 1, 47, 0
2, 79120, Note_off_c, 1, 50, 0
2, 79120, Note_off_c, 1, 55, 0
2, 79120, Note_off_c, 1, 67, 0
2, 79120, Note_off_c, 1, 71, 0
2, 79120, Note_off_c, 1, 74, 0
2, 79120, Note_off_c, 1, 79, 0
2, 79200, Note_on_c, 1, 43, 127
2, 79200, Note_on_c, 1, 47, 127
2, 79200, Note_on_c, 1, 50, 127
2, 79200, Note_on_c, 1, 55, 127
2, 79200, Note_on_c, 1, 67, 127
2, 79200, Note_on_c, 1, 71, 127
2, 79200, Note_on_c, 1, 74, 127
2, 79200, Note_on_c, 1, 79, 127
2, 79440, Note_off_c, 1, 43, 0
2, 79440, Note_off_c, 1, 47, 0
2, 79440, Note_off_c, 1, 50, 0
2, 79440, Note_off_c, 1, 55, 0
2, 79440, Note_off_c, 1, 67, 0
2, 79440, Note_off_c, 1, 71, 0
2, 79440, Note_off_c, 1, 74, 0
2, 79440, Note_off_c, 1, 79, 0
2, 79480, Note_on_c, 1, 43, 127
2, 79480, Note_on_c, 1, 47, 127
2, 79480, Note_on_c, 1, 50, 127
2, 79480, Note_on_c, 1, 55, 127
2, 79480, Note_on_c, 1, 67, 127
2, 79480, Note_on_c, 1, 71, 127
2, 79480, Note_on_c, 1, 74, 127
2, 79480, Note_on_c, 1, 79, 127
2, 79720, Note_off_c, 1, 43, 0
2, 79720, Note_off_c, 1, 47, 0
2, 79720, Note_off_c, 1, 50, 0
2, 79720, Note_off_c, 1, 55, 0
2, 79720, Note_off_c, 1, 67, 0
2, 79720, Note_off_c, 1, 71, 0
2, 79720, Note_off_c, 1, 74, 0
2, 79720, Note_off_c, 1, 79, 0
2, 79800, Note_on_c, 1, 47, 127
2, 79800, Note_on_c, 1, 50, 127
2, 79800, Note_on_c, 1, 54, 127
2, 79800, Note_on_c, 1, 59, 127
2, 79800, Note_on_c, 1, 62, 127
2, 79800, Note_on_c, 1, 66, 127
2, 79800, Note_on_c, 1, 74, 127
2, 79840, Note_on_c, 1, 38, 127
2, 79840, Note_off_c, 1, 47, 0
2, 79840, Note_off_c, 1, 54, 0
2, 79840, Note_on_c, 1, 57, 127
2, 79840, Note_off_c, 1, 59, 0
2, 79840, Note_off_c, 1, 62, 0
2, 79840, Note_on_c, 1, 69, 127
2, 79840, Note_off_c, 1, 74, 0
2, 79880, Note_off_c, 1, 38, 0
2, 79880, Note_off_c, 1, 50, 0
2, 79880, Note_off_c, 1, 57, 0
2, 79880, Note_off_c, 1, 66, 0
2, 79880, Note_on_c, 1, 77, 127
2, 79880, Note_on_c, 1, 84, 127
2, 79880, Note_on_c, 1, 91, 127
2, 79920, Note_on_c, 1, 34, 127
2, 79920, Note_on_c, 1, 46, 127
2, 79920, Note_off_c, 1, 69, 0
2, 79920, Note_off_c, 1, 77, 0
2, 79920, Note_off_c, 1, 84, 0
2, 79920, Note_on_c, 1, 87, 127
2, 79920, Note_on_c, 1, 94, 127
2, 79920, Note_on_c, 1, 99, 127
2, 79960, Note_off_c, 1, 34, 0
2, 79960, Note_off_c, 1, 46, 0
2, 79960, Note_off_c, 1, 87, 0
2, 79960, Note_off_c, 1, 91, 0
2, 79960, Note_off_c, 1, 94, 0
2, 79960, Note_off_c, 1, 99, 0
2, 80080, Note_on_c, 1, 51, 127
2, 80080, Note_on_c, 1, 63, 127
2, 80080, Note_on_c, 1, 75, 127
2, 80080, Note_on_c, 1, 82, 127
2, 80080, Note_on_c, 1, 87, 127
2, 80280, Note_off_c, 1, 51, 0
2, 80280, Note_off_c, 1, 63, 0
2, 80280, Note_off_c, 1, 75, 0
2, 80280, Note_off_c, 1, 82, 0
2, 80280, Note_off_c, 1, 87, 0
2, 80400, Note_on_c, 1, 36, 127
2, 80480, Note_off_c, 1, 36, 0
2, 80520, Note_on_c, 1, 38, 127
2, 80560, Note_off_c, 1, 38, 0
2, 80600, Note_on_c, 1, 45, 127
2, 80640, Note_off_c, 1, 45, 0
2, 80680, Note_on_c, 1, 36, 127
2, 80680, Note_on_c, 1, 43, 127
2, 80680, Note_on_c, 1, 48, 127
2, 80680, Note_on_c, 1, 52, 127
2, 80680, Note_on_c, 1, 60, 127
2, 80920, Note_off_c, 1, 36, 0
2, 80920, Note_off_c, 1, 43, 0
2, 80920, Note_off_c, 1, 48, 0
2, 80920, Note_off_c, 1, 52, 0
2, 80920, Note_off_c, 1, 60, 0
2, 82000, Note_on_c, 1, 40, 127
2, 82120, Note_off_c, 1, 40, 0
2, 82160, Note_on_c, 1, 40, 127
2, 82200, Note_off_c, 1, 40, 0
2, 82240, Note_on_c, 1, 33, 127
2, 82240, Note_on_c, 1, 40, 127
2, 82240, Note_on_c, 1, 45, 127
2, 82720, Note_off_c, 1, 33, 0
2, 82720, Note_off_c, 1, 40, 0
2, 82720, Note_off_c, 1, 45, 0
2, 84640, Note_on_c, 1, 41, 127
2, 84640, Note_on_c, 1, 53, 127
2, 84640, Note_on_c, 1, 65, 127
2, 84920, Note_on_c, 1, 69, 127
2, 84920, Note_on_c, 1, 72, 127
2, 85160, Note_off_c, 1, 41, 0
2, 85160, Note_off_c, 1, 53, 0
2, 85200, Note_on_c, 1, 77, 127
2, 85200, Note_on_c, 1, 84, 127
2, 85440, Note_off_c, 1, 69, 0
2, 85440, Note_off_c, 1, 77, 0
2, 85480, Note_on_c, 1, 69, 127
2, 85480, Note_on_c, 1, 77, 127
2, 85720, Note_off_c, 1, 69, 0
2, 85720, Note_off_c, 1, 77, 0
2, 85760, Note_on_c, 1, 69, 127
2, 85760, Note_on_c, 1, 77, 127
2, 86000, Note_off_c, 1, 65, 0
2, 86000, Note_off_c, 1, 69, 0
2, 86000, Note_off_c, 1, 77, 0
2, 86040, Note_on_c, 1, 65, 127
2, 86040, Note_on_c, 1, 69, 127
2, 86040, Note_on_c, 1, 77, 127
2, 86280, Note_off_c, 1, 65, 0
2, 86280, Note_off_c, 1, 69, 0
2, 86280, Note_off_c, 1, 72, 0
2, 86280, Note_off_c, 1, 77, 0
2, 86320, Note_on_c, 1, 65, 127
2, 86320, Note_on_c, 1, 69, 127
2, 86320, Note_on_c, 1, 72, 127
2, 86320, Note_on_c, 1, 77, 127
2, 86520, Note_off_c, 1, 65, 0
2, 86520, Note_off_c, 1, 69, 0
2, 86520, Note_off_c, 1, 72, 0
2, 86520, Note_off_c, 1, 77, 0
2, 86520, Note_off_c, 1, 84, 0
2, 86560, Note_on_c, 1, 65, 127
2, 86560, Note_on_c, 1, 69, 127
2, 86560, Note_on_c, 1, 72, 127
2, 86560, Note_on_c, 1, 77, 127
2, 86560, Note_on_c, 1, 84, 127
2, 86600, Note_off_c, 1, 65, 0
2, 86600, Note_off_c, 1, 69, 0
2, 86600, Note_off_c, 1, 77, 0
2, 86640, Note_on_c, 1, 65, 127
2, 86640, Note_on_c, 1, 69, 127
2, 86640, Note_on_c, 1, 77, 127
2, 86880, Note_off_c, 1, 65, 0
2, 86880, Note_off_c, 1, 69, 0
2, 86880, Note_off_c, 1, 77, 0
2, 86920, Note_on_c, 1, 41, 127
2, 86920, Note_on_c, 1, 45, 127
2, 86920, Note_on_c, 1, 53, 127
2, 86920, Note_on_c, 1, 63, 127
2, 86920, Note_off_c, 1, 72, 0
2, 86920, Note_off_c, 1, 84, 0
2, 87160, Note_off_c, 1, 41, 0
2, 87160, Note_off_c, 1, 45, 0
2, 87160, Note_off_c, 1, 53, 0
2, 87160, Note_off_c, 1, 63, 0
2, 87200, Note_on_c, 1, 53, 127
2, 87200, Note_on_c, 1, 57, 127
2, 87200, Note_on_c, 1, 60, 127
2, 87200, Note_on_c, 1, 65, 127
2, 87200, Note_on_c, 1, 69, 127
2, 87200, Note_on_c, 1, 72, 127
2, 87200, Note_on_c, 1, 77, 127
2, 87200, Note_on_c, 1, 81, 127
2, 87440, Note_off_c, 1, 53, 0
2, 87440, Note_off_c, 1, 57, 0
2, 87440, Note_off_c, 1, 60, 0
2, 87440, Note_off_c, 1, 65, 0
2, 87440, Note_off_c, 1, 69, 0
2, 87440, Note_off_c, 1, 72, 0
2, 87440, Note_off_c, 1, 77, 0
2, 87440, Note_off_c, 1, 81, 0
2, 87480, Note_on_c, 1, 48, 127
2, 87480, Note_on_c, 1, 60, 127
2, 87480, Note_on_c, 1, 67, 127
2, 87480, Note_on_c, 1, 72, 127
2, 87480, Note_on_c, 1, 76, 127
2, 87480, Note_on_c, 1, 79, 127
2, 87680, Note_off_c, 1, 48, 0
2, 87680, Note_off_c, 1, 60, 0
2, 87680, Note_off_c, 1, 67, 0
2, 87680, Note_off_c, 1, 72, 0
2, 87680, Note_off_c, 1, 76, 0
2, 87680, Note_off_c, 1, 79, 0
2, 87760, Note_on_c, 1, 38, 127
2, 87760, Note_on_c, 1, 42, 127
2, 87760, Note_on_c, 1, 50, 127
2, 87760, Note_on_c, 1, 78, 127
2, 87760, Note_on_c, 1, 81, 127
2, 87760, Note_on_c, 1, 86, 127
2, 87760, Note_on_c, 1, 90, 127
2, 88280, Note_off_c, 1, 38, 0
2, 88280, Note_off_c, 1, 42, 0
2, 88280, Note_off_c, 1, 50, 0
2, 88280, Note_off_c, 1, 78, 0
2, 88280, Note_off_c, 1, 81, 0
2, 88280, Note_off_c, 1, 86, 0
2, 88280, Note_off_c, 1, 90, 0
2, 88320, Note_on_c, 1, 49, 127
2, 88320, Note_on_c, 1, 55, 127
2, 88320, Note_on_c, 1, 57, 127
2, 88320, Note_on_c, 1, 61, 127
2, 88320, Note_on_c, 1, 64, 127
2, 88320, Note_on_c, 1, 69, 127
2, 88560, Note_off_c, 1, 49, 0
2, 88560, Note_off_c, 1, 55, 0
2, 88560, Note_off_c, 1, 57, 0
2, 88560, Note_off_c, 1, 61, 0
2, 88560, Note_off_c, 1, 64, 0
2, 88560, Note_off_c, 1, 69, 0
2, 88640, Note_on_c, 1, 48, 127
2, 88640, Note_on_c, 1, 54, 127
2, 88640, Note_on_c, 1, 62, 127
2, 88640, Note_on_c, 1, 74, 127
2, 88880, Note_off_c, 1, 48, 0
2, 88880, Note_off_c, 1, 54, 0
2, 88880, Note_off_c, 1, 62, 0
2, 88880, Note_off_c, 1, 74, 0
2, 88920, Note_on_c, 1, 48, 127
2, 88920, Note_on_c, 1, 54, 127
2, 88920, Note_on_c, 1, 62, 127
2, 88920, Note_on_c, 1, 74, 127
2, 89160, Note_off_c, 1, 48, 0
2, 89160, Note_off_c, 1, 54, 0
2, 89160, Note_off_c, 1, 62, 0
2, 89160, Note_off_c, 1, 74, 0
2, 89200, Note_on_c, 1, 47, 127
2, 89200, Note_on_c, 1, 55, 127
2, 89200, Note_on_c, 1, 64, 127
2, 89200, Note_on_c, 1, 76, 127
2, 89440, Note_off_c, 1, 47, 0
2, 89440, Note_off_c, 1, 55, 0
2, 89440, Note_off_c, 1, 64, 0
2, 89440, Note_off_c, 1, 76, 0
2, 89480, Note_on_c, 1, 45, 127
2, 89480, Note_on_c, 1, 57, 127
2, 89480, Note_on_c, 1, 66, 127
2, 89480, Note_on_c, 1, 78, 127
2, 89720, Note_off_c, 1, 57, 0
2, 89720, Note_off_c, 1, 66, 0
2, 89720, Note_off_c, 1, 78, 0
2, 89760, Note_on_c, 1, 59, 127
2, 89760, Note_on_c, 1, 67, 127
2, 89760, Note_on_c, 1, 79, 127
2, 89960, Note_on_c, 1, 43, 127
2, 89960, Note_off_c, 1, 45, 0
2, 89960, Note_off_c, 1, 59, 0
2, 89960, Note_off_c, 1, 67, 0
2, 89960, Note_off_c, 1, 79, 0
2, 90000, Note_on_c, 1, 60, 127
2, 90000, Note_on_c, 1, 69, 127
2, 90000, Note_on_c, 1, 81, 127
2, 90240, Note_off_c, 1, 60, 0
2, 90240, Note_off_c, 1, 69, 0
2, 90240, Note_off_c, 1, 81, 0
2, 90280, Note_off_c, 1, 43, 0
2, 90280, Note_on_c, 1, 60, 127
2, 90280, Note_on_c, 1, 63, 127
2, 90280, Note_on_c, 1, 66, 127
2, 90280, Note_on_c, 1, 74, 127
2, 90280, Note_on_c, 1, 78, 127
2, 90320, Note_on_c, 1, 55, 127
2, 90320, Note_off_c, 1, 60, 0
2, 90320, Note_off_c, 1, 66, 0
2, 90320, Note_off_c, 1, 74, 0
2, 90320, Note_on_c, 1, 90, 127
2, 90360, Note_on_c, 1, 50, 127
2, 90360, Note_off_c, 1, 55, 0
2, 90360, Note_off_c, 1, 63, 0
2, 90360, Note_on_c, 1, 76, 127
2, 90360, Note_off_c, 1, 78, 0
2, 90360, Note_on_c, 1, 79, 127
2, 90360, Note_on_c, 1, 88, 127
2, 90360, Note_off_c, 1, 90, 0
2, 90400, Note_off_c, 1, 50, 0
2, 90400, Note_on_c, 1, 54, 127
2, 90400, Note_on_c, 1, 59, 127
2, 90400, Note_on_c, 1, 69, 127
2, 90400, Note_off_c, 1, 76, 0
2, 90400, Note_off_c, 1, 79, 0
2, 90400, Note_on_c, 1, 81, 127
2, 90400, Note_off_c, 1, 88, 0
2, 90440, Note_off_c, 1, 54, 0
2, 90440, Note_on_c, 1, 57, 127
2, 90440, Note_on_c, 1, 65, 127
2, 90440, Note_off_c, 1, 69, 0
2, 90440, Note_on_c, 1, 77, 127
2, 90440, Note_off_c, 1, 81, 0
2, 90480, Note_off_c, 1, 57, 0
2, 90480, Note_off_c, 1, 59, 0
2, 90480, Note_off_c, 1, 65, 0
2, 90480, Note_off_c, 1, 77, 0
2, 90520, Note_on_c, 1, 31, 127
2, 90720, Note_off_c, 1, 31, 0
2, 90760, Note_on_c, 1, 31, 127
2, 90840, Note_off_c, 1, 31, 0
2, 90880, Note_on_c, 1, 31, 127
2, 90880, Note_on_c, 1, 50, 127
2, 90880, Note_on_c, 1, 55, 127
2, 90880, Note_on_c, 1, 59, 127
2, 91120, Note_off_c, 1, 31, 0
2, 91120, Note_on_c, 1, 43, 127
2, 91120, Note_off_c, 1, 50, 0
2, 91120, Note_off_c, 1, 55, 0
2, 91120, Note_off_c, 1, 59, 0
2, 91160, Note_on_c, 1, 31, 127
2, 91160, Note_off_c, 1, 43, 0
2, 91160, Note_on_c, 1, 50, 127
2, 91160, Note_on_c, 1, 55, 127
2, 91160, Note_on_c, 1, 59, 127
2, 91400, Note_off_c, 1, 31, 0
2, 91400, Note_off_c, 1, 50, 0
2, 91400, Note_off_c, 1, 55, 0
2, 91400, Note_off_c, 1, 59, 0
2, 91440, Note_on_c, 1, 31, 127
2, 91440, Note_on_c, 1, 50, 127
2, 91440, Note_on_c, 1, 55, 127
2, 91440, Note_on_c, 1, 59, 127
2, 91680, Note_off_c, 1, 31, 0
2, 91680, Note_off_c, 1, 50, 0
2, 91680, Note_off_c, 1, 55, 0
2, 91680, Note_off_c, 1, 59, 0
2, 91720, Note_on_c, 1, 51, 127
2, 91720, Note_on_c, 1, 55, 127
2, 91720, Note_on_c, 1, 63, 127
2, 91720, Note_on_c, 1, 67, 127
2, 91720, Note_on_c, 1, 71, 127
2, 91720, Note_on_c, 1, 79, 127
2, 91800, Note_off_c, 1, 67, 0
2, 91800, Note_off_c, 1, 71, 0
2, 91800, Note_off_c, 1, 79, 0
2, 91840, Note_on_c, 1, 71, 127
2, 91840, Note_on_c, 1, 79, 127
2, 91840, Note_on_c, 1, 83, 127
2, 91920, Note_off_c, 1, 71, 0
2, 91920, Note_off_c, 1, 79, 0
2, 91920, Note_off_c, 1, 83, 0
2, 91960, Note_off_c, 1, 51, 0
2, 91960, Note_off_c, 1, 55, 0
2, 91960, Note_off_c, 1, 63, 0
2, 92000, Note_on_c, 1, 59, 127
2, 92000, Note_on_c, 1, 65, 127
2, 92000, Note_on_c, 1, 74, 127
2, 92000, Note_on_c, 1, 86, 127
2, 92040, Note_on_c, 1, 69, 127
2, 92040, Note_off_c, 1, 74, 0
2, 92040, Note_off_c, 1, 86, 0
2, 92080, Note_off_c, 1, 59, 0
2, 92080, Note_off_c, 1, 65, 0
2, 92080, Note_off_c, 1, 69, 0
2, 92120, Note_on_c, 1, 59, 127
2, 92120, Note_on_c, 1, 65, 127
2, 92120, Note_on_c, 1, 74, 127
2, 92120, Note_on_c, 1, 86, 127
2, 92160, Note_off_c, 1, 59, 0
2, 92160, Note_off_c, 1, 65, 0
2, 92160, Note_off_c, 1, 74, 0
2, 92160, Note_off_c, 1, 86, 0
2, 92200, Note_on_c, 1, 59, 127
2, 92240, Note_off_c, 1, 59, 0
2, 92280, Note_on_c, 1, 60, 127
2, 92280, Note_on_c, 1, 68, 127
2, 92280, Note_on_c, 1, 80, 127
2, 92280, Note_on_c, 1, 92, 127
2, 92520, Note_off_c, 1, 60, 0
2, 92520, Note_off_c, 1, 68, 0
2, 92520, Note_off_c, 1, 80, 0
2, 92520, Note_off_c, 1, 92, 0
2, 92560, Note_on_c, 1, 44, 127
2, 92560, Note_on_c, 1, 75, 127
2, 92560, Note_on_c, 1, 87, 127
2, 92680, Note_off_c, 1, 44, 0
2, 92680, Note_on_c, 1, 54, 127
2, 92680, Note_off_c, 1, 75, 0
2, 92680, Note_off_c, 1, 87, 0
2, 92720, Note_off_c, 1, 54, 0
2, 92760, Note_on_c, 1, 53, 127
2, 92760, Note_on_c, 1, 56, 127
2, 92760, Note_on_c, 1, 65, 127
2, 92760, Note_on_c, 1, 74, 127
2, 92800, Note_off_c, 1, 53, 0
2, 92800, Note_on_c, 1, 55, 127
2, 92800, Note_off_c, 1, 56, 0
2, 92800, Note_off_c, 1, 74, 0
2, 92800, Note_on_c, 1, 80, 127
2, 92840, Note_off_c, 1, 55, 0
2, 92840, Note_off_c, 1, 65, 0
2, 92840, Note_off_c, 1, 80, 0
2, 92880, Note_on_c, 1, 44, 127
2, 92880, Note_on_c, 1, 72, 127
2, 92880, Note_on_c, 1, 85, 127
2, 92920, Note_off_c, 1, 44, 0
2, 92920, Note_on_c, 1, 57, 127
2, 92920, Note_on_c, 1, 60, 127
2, 92920, Note_on_c, 1, 84, 127
2, 92920, Note_off_c, 1, 85, 0
2, 92960, Note_off_c, 1, 57, 0
2, 92960, Note_on_c, 1, 59, 127
2, 92960, Note_off_c, 1, 60, 0
2, 92960, Note_off_c, 1, 72, 0
2, 92960, Note_on_c, 1, 80, 127
2, 92960, Note_on_c, 1, 83, 127
2, 92960, Note_off_c, 1, 84, 0
2, 92960, Note_on_c, 1, 88, 127
2, 92960, Note_on_c, 1, 92, 127
2, 93000, Note_off_c, 1, 59, 0
2, 93000, Note_off_c, 1, 83, 0
2, 93000, Note_on_c, 1, 87, 127
2, 93000, Note_off_c, 1, 88, 0
2, 93040, Note_on_c, 1, 46, 127
2, 93040, Note_on_c, 1, 50, 127
2, 93040, Note_on_c, 1, 53, 127
2, 93040, Note_on_c, 1, 56, 127
2, 93040, Note_off_c, 1, 87, 0
2, 93040, Note_off_c, 1, 92, 0
2, 93080, Note_off_c, 1, 46, 0
2, 93080, Note_on_c, 1, 49, 127
2, 93080, Note_off_c, 1, 50, 0
2, 93080, Note_off_c, 1, 53, 0
2, 93080, Note_off_c, 1, 56, 0
2, 93080, Note_on_c, 1, 79, 127
2, 93080, Note_off_c, 1, 80, 0
2, 93080, Note_on_c, 1, 82, 127
2, 93080, Note_on_c, 1, 89, 127
2, 93120, Note_off_c, 1, 49, 0
2, 93120, Note_off_c, 1, 79, 0
2, 93120, Note_off_c, 1, 82, 0
2, 93120, Note_off_c, 1, 89, 0
2, 93160, Note_on_c, 1, 38, 127
2, 93160, Note_on_c, 1, 69, 127
2, 93160, Note_on_c, 1, 81, 127
2, 93400, Note_off_c, 1, 38, 0
2, 93400, Note_off_c, 1, 69, 0
2, 93400, Note_off_c, 1, 81, 0
2, 93440, Note_on_c, 1, 64, 127
2, 93440, Note_on_c, 1, 79, 127
2, 93440, Note_on_c, 1, 83, 127
2, 93440, Note_on_c, 1, 88, 127
2, 93680, Note_off_c, 1, 64, 0
2, 93680, Note_off_c, 1, 79, 0
2, 93680, Note_off_c, 1, 83, 0
2, 93680, Note_off_c, 1, 88, 0
2, 95640, Note_on_c, 1, 50, 127
2, 95640, Note_on_c, 1, 78, 127
2, 95720, Note_off_c, 1, 50, 0
2, 95920, Note_on_c, 1, 54, 127
2, 95920, Note_on_c, 1, 57, 127
2, 95920, Note_on_c, 1, 62, 127
2, 95920, Note_on_c, 1, 74, 127
2, 95920, Note_off_c, 1, 78, 0
2, 96280, Note_off_c, 1, 74, 0
2, 96320, Note_on_c, 1, 76, 127
2, 96400, Note_on_c, 1, 74, 127
2, 96400, Note_off_c, 1, 76, 0
2, 96440, Note_off_c, 1, 74, 0
2, 96480, Note_on_c, 1, 74, 127
2, 96560, Note_off_c, 1, 74, 0
2, 96600, Note_on_c, 1, 71, 127
2, 96720, Note_off_c, 1, 54, 0
2, 96720, Note_off_c, 1, 57, 0
2, 96720, Note_off_c, 1, 62, 0
2, 96720, Note_off_c, 1, 71, 0
2, 96760, Note_on_c, 1, 57, 127
2, 96760, Note_on_c, 1, 62, 127
2, 96760, Note_on_c, 1, 66, 127
2, 96760, Note_on_c, 1, 74, 127
2, 97000, Note_off_c, 1, 57, 0
2, 97000, Note_off_c, 1, 62, 0
2, 97000, Note_off_c, 1, 66, 0
2, 97000, Note_off_c, 1, 74, 0
2, 97080, Note_on_c, 1, 54, 127
2, 97080, Note_on_c, 1, 62, 127
2, 97080, Note_on_c, 1, 71, 127
2, 97320, Note_off_c, 1, 54, 0
2, 97320, Note_off_c, 1, 62, 0
2, 97320, Note_off_c, 1, 71, 0
2, 97360, Note_on_c, 1, 55, 127
2, 97360, Note_on_c, 1, 62, 127
2, 97360, Note_on_c, 1, 70, 127
2, 97560, Note_off_c, 1, 70, 0
2, 97600, Note_on_c, 1, 54, 127
2, 97600, Note_off_c, 1, 55, 0
2, 97600, Note_on_c, 1, 70, 127
2, 97840, Note_off_c, 1, 62, 0
2, 97840, Note_off_c, 1, 70, 0
2, 97880, Note_on_c, 1, 62, 127
2, 97880, Note_on_c, 1, 69, 127
2, 98120, Note_on_c, 1, 53, 127
2, 98120, Note_off_c, 1, 54, 0
2, 98120, Note_off_c, 1, 69, 0
2, 98160, Note_off_c, 1, 53, 0
2, 98160, Note_on_c, 1, 54, 127
2, 98160, Note_on_c, 1, 69, 127
2, 98400, Note_off_c, 1, 62, 0
2, 98440, Note_on_c, 1, 62, 127
2, 98520, Note_off_c, 1, 62, 0
2, 98560, Note_on_c, 1, 62, 127
2, 98680, Note_off_c, 1, 62, 0
2, 98720, Note_on_c, 1, 62, 127
2, 98960, Note_off_c, 1, 54, 0
2, 98960, Note_off_c, 1, 62, 0
2, 98960, Note_off_c, 1, 69, 0
2, 99040, Note_on_c, 1, 52, 127
2, 99040, Note_on_c, 1, 61, 127
2, 99040, Note_on_c, 1, 67, 127
2, 99160, Note_off_c, 1, 67, 0
2, 99200, Note_on_c, 1, 69, 127
2, 99280, Note_off_c, 1, 69, 0
2, 99320, Note_on_c, 1, 64, 127
2, 99560, Note_off_c, 1, 52, 0
2, 99560, Note_off_c, 1, 61, 0
2, 99560, Note_off_c, 1, 64, 0
2, 99600, Note_on_c, 1, 50, 127
2, 99600, Note_on_c, 1, 62, 127
2, 99600, Note_on_c, 1, 66, 127
2, 99840, Note_off_c, 1, 62, 0
2, 99840, Note_off_c, 1, 66, 0
2, 99880, Note_on_c, 1, 57, 127
2, 99880, Note_on_c, 1, 66, 127
2, 99920, Note_off_c, 1, 66, 0
2, 99960, Note_on_c, 1, 66, 127
2, 100000, Note_off_c, 1, 66, 0
2, 100040, Note_on_c, 1, 66, 127
2, 100080, Note_off_c, 1, 50, 0
2, 100080, Note_off_c, 1, 57, 0
2, 100080, Note_off_c, 1, 66, 0
2, 100120, Note_on_c, 1, 55, 127
2, 100120, Note_on_c, 1, 60, 127
2, 100120, Note_on_c, 1, 69, 127
2, 100640, Note_off_c, 1, 55, 0
2, 100640, Note_off_c, 1, 60, 0
2, 100640, Note_off_c, 1, 69, 0
2, 100680, Note_on_c, 1, 55, 127
2, 100680, Note_on_c, 1, 59, 127
2, 100680, Note_on_c, 1, 67, 127
2, 101120, Note_off_c, 1, 55, 0
2, 101120, Note_off_c, 1, 59, 0
2, 101120, Note_off_c, 1, 67, 0
2, 101160, Note_on_c, 1, 55, 127
2, 101160, Note_on_c, 1, 59, 127
2, 101160, Note_on_c, 1, 67, 127
2, 101240, Note_off_c, 1, 55, 0
2, 101240, Note_off_c, 1, 59, 0
2, 101240, Note_off_c, 1, 67, 0
2, 101280, Note_on_c, 1, 35, 127
2, 101280, Note_on_c, 1, 47, 127
2, 101840, Note_off_c, 1, 35, 0
2, 101840, Note_off_c, 1, 47, 0
2, 101880, Note_on_c, 1, 36, 127
2, 101880, Note_on_c, 1, 48, 127
2, 101880, Note_on_c, 1, 64, 127
2, 102160, Note_on_c, 1, 60, 127
2, 102400, Note_off_c, 1, 36, 0
2, 102400, Note_off_c, 1, 48, 0
2, 102400, Note_off_c, 1, 60, 0
2, 102400, Note_off_c, 1, 64, 0
2, 102440, Note_on_c, 1, 40, 127
2, 102440, Note_on_c, 1, 52, 127
2, 102440, Note_on_c, 1, 60, 127
2, 102680, Note_off_c, 1, 60, 0
2, 102720, Note_on_c, 1, 60, 127
2, 102960, Note_off_c, 1, 60, 0
2, 103000, Note_on_c, 1, 64, 127
2, 103240, Note_off_c, 1, 64, 0
2, 103280, Note_off_c, 1, 40, 0
2, 103280, Note_off_c, 1, 52, 0
2, 103320, Note_on_c, 1, 40, 127
2, 103320, Note_on_c, 1, 52, 127
2, 103320, Note_on_c, 1, 68, 127
2, 103520, Note_off_c, 1, 40, 0
2, 103520, Note_off_c, 1, 52, 0
2, 103520, Note_off_c, 1, 68, 0
2, 103560, Note_on_c, 1, 40, 127
2, 103560, Note_on_c, 1, 52, 127
2, 103560, Note_on_c, 1, 76, 127
2, 103800, Note_off_c, 1, 76, 0
2, 103840, Note_on_c, 1, 88, 127
2, 104080, Note_off_c, 1, 40, 0
2, 104080, Note_off_c, 1, 52, 0
2, 104080, Note_off_c, 1, 88, 0
2, 104120, Note_on_c, 1, 36, 127
2, 104120, Note_on_c, 1, 48, 127
2, 104120, Note_on_c, 1, 76, 127
2, 104360, Note_off_c, 1, 36, 0
2, 104360, Note_off_c, 1, 48, 0
2, 104360, Note_off_c, 1, 76, 0
2, 104400, Note_on_c, 1, 40, 127
2, 104400, Note_on_c, 1, 52, 127
2, 104400, Note_on_c, 1, 76, 127
2, 104920, Note_off_c, 1, 40, 0
2, 104920, Note_off_c, 1, 52, 0
2, 104920, Note_off_c, 1, 76, 0
2, 104960, Note_on_c, 1, 35, 127
2, 104960, Note_on_c, 1, 40, 127
2, 104960, Note_on_c, 1, 47, 127
2, 104960, Note_on_c, 1, 59, 127
2, 104960, Note_on_c, 1, 68, 127
2, 104960, Note_on_c, 1, 71, 127
2, 104960, Note_on_c, 1, 83, 127
2, 104960, Note_on_c, 1, 88, 127
2, 104960, Note_on_c, 1, 92, 127
2, 105000, Note_off_c, 1, 35, 0
2, 105000, Note_off_c, 1, 40, 0
2, 105000, Note_off_c, 1, 47, 0
2, 105000, Note_off_c, 1, 59, 0
2, 105000, Note_off_c, 1, 68, 0
2, 105000, Note_off_c, 1, 71, 0
2, 105000, Note_off_c, 1, 83, 0
2, 105000, Note_on_c, 1, 87, 127
2, 105000, Note_off_c, 1, 88, 0
2, 105000, Note_off_c, 1, 92, 0
2, 105000, Note_on_c, 1, 96, 127
2, 105000, Note_on_c, 1, 103, 127
2, 105040, Note_on_c, 1, 59, 127
2, 105040, Note_on_c, 1, 68, 127
2, 105040, Note_on_c, 1, 71, 127
2, 105040, Note_on_c, 1, 80, 127
2, 105040, Note_off_c, 1, 87, 0
2, 105040, Note_on_c, 1, 92, 127
2, 105040, Note_off_c, 1, 96, 0
2, 105040, Note_off_c, 1, 103, 0
2, 105080, Note_on_c, 1, 35, 127
2, 105080, Note_on_c, 1, 40, 127
2, 105080, Note_on_c, 1, 47, 127
2, 105080, Note_off_c, 1, 80, 0
2, 105080, Note_on_c, 1, 83, 127
2, 105080, Note_on_c, 1, 88, 127
2, 105120, Note_off_c, 1, 35, 0
2, 105120, Note_on_c, 1, 36, 127
2, 105120, Note_off_c, 1, 40, 0
2, 105120, Note_off_c, 1, 47, 0
2, 105120, Note_on_c, 1, 48, 127
2, 105120, Note_on_c, 1, 51, 127
2, 105120, Note_on_c, 1, 55, 127
2, 105120, Note_off_c, 1, 59, 0
2, 105120, Note_on_c, 1, 63, 127
2, 105120, Note_off_c, 1, 68, 0
2, 105120, Note_off_c, 1, 71, 0
2, 105120, Note_off_c, 1, 83, 0
2, 105120, Note_off_c, 1, 88, 0
2, 105120, Note_off_c, 1, 92, 0
2, 105160, Note_on_c, 1, 35, 127
2, 105160, Note_off_c, 1, 36, 0
2, 105160, Note_on_c, 1, 40, 127
2, 105160, Note_on_c, 1, 47, 127
2, 105160, Note_off_c, 1, 48, 0
2, 105160, Note_off_c, 1, 51, 0
2, 105160, Note_off_c, 1, 55, 0
2, 105160, Note_on_c, 1, 59, 127
2, 105160, Note_off_c, 1, 63, 0
2, 105160, Note_on_c, 1, 68, 127
2, 105160, Note_on_c, 1, 71, 127
2, 105160, Note_on_c, 1, 83, 127
2, 105160, Note_on_c, 1, 88, 127
2, 105160, Note_on_c, 1, 92, 127
2, 105200, Note_off_c, 1, 35, 0
2, 105200, Note_off_c, 1, 40, 0
2, 105200, Note_off_c, 1, 47, 0
2, 105200, Note_off_c, 1, 59, 0
2, 105200, Note_off_c, 1, 68, 0
2, 105200, Note_off_c, 1, 71, 0
2, 105200, Note_off_c, 1, 83, 0
2, 105200, Note_off_c, 1, 88, 0
2, 105200, Note_off_c, 1, 92, 0
2, 105240, Note_on_c, 1, 40, 127
2, 105240, Note_on_c, 1, 52, 127
2, 105240, Note_on_c, 1, 68, 127
2, 105240, Note_on_c, 1, 75, 127
2, 105480, Note_off_c, 1, 40, 0
2, 105480, Note_off_c, 1, 52, 0
2, 105480, Note_off_c, 1, 75, 0
2, 105520, Note_off_c, 1, 68, 0
2, 105560, Note_on_c, 1, 40, 127
2, 105560, Note_on_c, 1, 52, 127
2, 105560, Note_on_c, 1, 68, 127
2, 105560, Note_on_c, 1, 73, 127
2, 105800, Note_off_c, 1, 40, 0
2, 105800, Note_off_c, 1, 52, 0
2, 105800, Note_off_c, 1, 73, 0
2, 105840, Note_on_c, 1, 40, 127
2, 105840, Note_on_c, 1, 52, 127
2, 105840, Note_on_c, 1, 64, 127
2, 105840, Note_on_c, 1, 73, 127
2, 106080, Note_off_c, 1, 40, 0
2, 106080, Note_off_c, 1, 52, 0
2, 106080, Note_off_c, 1, 64, 0
2, 106080, Note_off_c, 1, 68, 0
2, 106080, Note_off_c, 1, 73, 0
2, 106120, Note_on_c, 1, 38, 127
2, 106120, Note_on_c, 1, 50, 127
2, 106120, Note_on_c, 1, 71, 127
2, 106360, Note_off_c, 1, 38, 0
2, 106360, Note_off_c, 1, 50, 0
2, 106360, Note_off_c, 1, 71, 0
2, 106400, Note_on_c, 1, 40, 127
2, 106400, Note_on_c, 1, 52, 127
2, 106400, Note_on_c, 1, 59, 127
2, 106400, Note_on_c, 1, 64, 127
2, 106400, Note_on_c, 1, 68, 127
2, 106640, Note_off_c, 1, 68, 0
2, 106680, Note_on_c, 1, 69, 127
2, 106920, Note_off_c, 1, 40, 0
2, 106920, Note_off_c, 1, 52, 0
2, 106920, Note_off_c, 1, 59, 0
2, 106920, Note_off_c, 1, 64, 0
2, 106920, Note_off_c, 1, 69, 0
2, 106960, Note_on_c, 1, 35, 127
2, 106960, Note_on_c, 1, 47, 127
2, 106960, Note_on_c, 1, 59, 127
2, 106960, Note_on_c, 1, 63, 127
2, 106960, Note_on_c, 1, 66, 127
2, 107200, Note_off_c, 1, 35, 0
2, 107200, Note_off_c, 1, 47, 0
2, 107200, Note_off_c, 1, 59, 0
2, 107200, Note_off_c, 1, 63, 0
2, 107200, Note_off_c, 1, 66, 0
2, 107240, Note_on_c, 1, 37, 127
2, 107240, Note_on_c, 1, 49, 127
2, 107240, Note_on_c, 1, 66, 127
2, 107480, Note_off_c, 1, 37, 0
2, 107480, Note_off_c, 1, 49, 0
2, 107480, Note_off_c, 1, 66, 0
2, 107520, Note_on_c, 1, 36, 127
2, 107520, Note_on_c, 1, 48, 127
2, 107520, Note_on_c, 1, 69, 127
2, 107520, Note_on_c, 1, 76, 127
2, 107680, Note_off_c, 1, 36, 0
2, 107680, Note_off_c, 1, 48, 0
2, 107680, Note_off_c, 1, 69, 0
2, 107680, Note_off_c, 1, 76, 0
2, 107720, Note_on_c, 1, 36, 127
2, 107720, Note_on_c, 1, 48, 127
2, 107720, Note_on_c, 1, 69, 127
2, 107720, Note_on_c, 1, 76, 127
2, 107800, Note_off_c, 1, 76, 0
2, 107840, Note_on_c, 1, 76, 127
2, 107960, Note_off_c, 1, 76, 0
2, 108080, Note_off_c, 1, 36, 0
2, 108080, Note_off_c, 1, 48, 0
2, 108080, Note_off_c, 1, 69, 0
2, 108120, Note_on_c, 1, 38, 127
2, 108120, Note_on_c, 1, 50, 127
2, 108120, Note_on_c, 1, 60, 127
2, 108120, Note_on_c, 1, 64, 127
2, 108360, Note_off_c, 1, 38, 0
2, 108360, Note_off_c, 1, 50, 0
2, 108360, Note_off_c, 1, 60, 0
2, 108360, Note_off_c, 1, 64, 0
2, 108400, Note_on_c, 1, 38, 127
2, 108400, Note_on_c, 1, 50, 127
2, 108400, Note_on_c, 1, 60, 127
2, 108400, Note_on_c, 1, 66, 127
2, 108640, Note_off_c, 1, 38, 0
2, 108640, Note_off_c, 1, 50, 0
2, 108640, Note_off_c, 1, 60, 0
2, 108640, Note_off_c, 1, 66, 0
2, 108680, Note_on_c, 1, 38, 127
2, 108680, Note_on_c, 1, 50, 127
2, 108680, Note_on_c, 1, 68, 127
2, 108920, Note_off_c, 1, 38, 0
2, 108920, Note_off_c, 1, 50, 0
2, 108920, Note_off_c, 1, 68, 0
2, 108960, Note_on_c, 1, 32, 127
2, 108960, Note_on_c, 1, 44, 127
2, 108960, Note_on_c, 1, 59, 127
2, 108960, Note_on_c, 1, 68, 127
2, 109200, Note_off_c, 1, 32, 0
2, 109200, Note_off_c, 1, 44, 0
2, 109200, Note_off_c, 1, 59, 0
2, 109200, Note_off_c, 1, 68, 0
2, 109240, Note_on_c, 1, 32, 127
2, 109240, Note_on_c, 1, 60, 127
2, 109240, Note_on_c, 1, 63, 127
2, 109280, Note_off_c, 1, 32, 0
2, 109280, Note_on_c, 1, 44, 127
2, 109320, Note_on_c, 1, 32, 127
2, 109320, Note_off_c, 1, 44, 0
2, 109480, Note_off_c, 1, 32, 0
2, 109480, Note_on_c, 1, 44, 127
2, 109480, Note_off_c, 1, 60, 0
2, 109480, Note_off_c, 1, 63, 0
2, 109520, Note_on_c, 1, 32, 127
2, 109520, Note_on_c, 1, 56, 127
2, 109520, Note_on_c, 1, 64, 127
2, 109760, Note_off_c, 1, 32, 0
2, 109760, Note_off_c, 1, 56, 0
2, 109760, Note_off_c, 1, 64, 0
2, 109800, Note_off_c, 1, 44, 0
2, 109840, Note_on_c, 1, 32, 127
2, 109840, Note_on_c, 1, 44, 127
2, 109840, Note_on_c, 1, 56, 127
2, 109840, Note_on_c, 1, 64, 127
2, 110080, Note_off_c, 1, 32, 0
2, 110080, Note_off_c, 1, 56, 0
2, 110080, Note_off_c, 1, 64, 0
2, 110120, Note_on_c, 1, 49, 127
2, 110120, Note_on_c, 1, 53, 127
2, 110120, Note_on_c, 1, 61, 127
2, 110240, Note_off_c, 1, 44, 0
2, 110400, Note_on_c, 1, 37, 127
2, 110480, Note_off_c, 1, 37, 0
2, 110640, Note_off_c, 1, 49, 0
2, 110640, Note_off_c, 1, 53, 0
2, 110640, Note_off_c, 1, 61, 0
2, 110680, Note_on_c, 1, 49, 127
2, 110680, Note_on_c, 1, 53, 127
2, 110680, Note_on_c, 1, 56, 127
2, 110680, Note_on_c, 1, 61, 127
2, 110680, Note_on_c, 1, 65, 127
2, 110680, Note_on_c, 1, 68, 127
2, 111160, Note_off_c, 1, 49, 0
2, 111160, Note_off_c, 1, 53, 0
2, 111160, Note_off_c, 1, 56, 0
2, 111160, Note_off_c, 1, 61, 0
2, 111160, Note_off_c, 1, 65, 0
2, 111160, Note_off_c, 1, 68, 0
2, 111200, Note_on_c, 1, 49, 127
2, 111200, Note_on_c, 1, 61, 127
2, 111200, Note_on_c, 1, 64, 127
2, 111200, Note_on_c, 1, 70, 127
2, 111720, Note_off_c, 1, 49, 0
2, 111720, Note_off_c, 1, 61, 0
2, 111720, Note_off_c, 1, 64, 0
2, 111720, Note_off_c, 1, 70, 0
2, 111760, Note_on_c, 1, 49, 127
2, 111760, Note_on_c, 1, 59, 127
2, 111760, Note_on_c, 1, 65, 127
2, 111760, Note_on_c, 1, 68, 127
2, 111840, Note_off_c, 1, 49, 0
2, 111840, Note_off_c, 1, 59, 0
2, 111840, Note_off_c, 1, 65, 0
2, 111840, Note_off_c, 1, 68, 0
2, 111880, Note_on_c, 1, 49, 127
2, 111880, Note_on_c, 1, 59, 127
2, 111880, Note_on_c, 1, 65, 127
2, 111880, Note_on_c, 1, 68, 127
2, 112040, Note_off_c, 1, 49, 0
2, 112040, Note_off_c, 1, 59, 0
2, 112040, Note_off_c, 1, 65, 0
2, 112040, Note_off_c, 1, 68, 0
2, 112080, Note_on_c, 1, 37, 127
2, 112080, Note_on_c, 1, 61, 127
2, 112080, Note_on_c, 1, 66, 127
2, 112080, Note_on_c, 1, 70, 127
2, 112320, Note_off_c, 1, 37, 0
2, 112320, Note_off_c, 1, 61, 0
2, 112320, Note_off_c, 1, 66, 0
2, 112320, Note_off_c, 1, 70, 0
2, 112360, Note_on_c, 1, 29, 127
2, 112360, Note_on_c, 1, 41, 127
2, 112360, Note_on_c, 1, 57, 127
2, 112360, Note_on_c, 1, 60, 127
2, 112360, Note_on_c, 1, 69, 127
2, 112880, Note_off_c, 1, 29, 0
2, 112880, Note_off_c, 1, 41, 0
2, 112880, Note_off_c, 1, 57, 0
2, 112880, Note_off_c, 1, 60, 0
2, 112880, Note_off_c, 1, 69, 0
2, 112920, Note_on_c, 1, 34, 127
2, 112920, Note_on_c, 1, 70, 127
2, 112920, Note_on_c, 1, 73, 127
2, 113040, Note_off_c, 1, 34, 0
2, 113080, Note_on_c, 1, 46, 127
2, 113120, Note_off_c, 1, 70, 0
2, 113120, Note_off_c, 1, 73, 0
2, 113160, Note_on_c, 1, 70, 127
2, 113160, Note_on_c, 1, 73, 127
2, 113200, Note_off_c, 1, 46, 0
2, 113240, Note_on_c, 1, 46, 127
2, 113320, Note_off_c, 1, 46, 0
2, 113320, Note_off_c, 1, 70, 0
2, 113320, Note_off_c, 1, 73, 0
2, 113360, Note_on_c, 1, 44, 127
2, 113360, Note_on_c, 1, 63, 127
2, 113360, Note_on_c, 1, 71, 127
2, 113480, Note_off_c, 1, 44, 0
2, 113480, Note_off_c, 1, 63, 0
2, 113480, Note_off_c, 1, 71, 0
2, 113520, Note_on_c, 1, 44, 127
2, 113520, Note_on_c, 1, 63, 127
2, 113520, Note_on_c, 1, 68, 127
2, 113520, Note_on_c, 1, 72, 127
2, 113640, Note_off_c, 1, 44, 0
2, 113640, Note_off_c, 1, 63, 0
2, 113640, Note_off_c, 1, 68, 0
2, 113640, Note_off_c, 1, 72, 0
2, 113680, Note_on_c, 1, 49, 127
2, 113680, Note_on_c, 1, 69, 127
2, 113680, Note_on_c, 1, 75, 127
2, 113680, Note_on_c, 1, 78, 127
2, 113760, Note_off_c, 1, 49, 0
2, 113760, Note_off_c, 1, 69, 0
2, 113760, Note_off_c, 1, 75, 0
2, 113760, Note_off_c, 1, 78, 0
2, 113800, Note_on_c, 1, 49, 127
2, 113800, Note_on_c, 1, 69, 127
2, 113800, Note_on_c, 1, 75, 127
2, 113800, Note_on_c, 1, 78, 127
2, 113920, Note_off_c, 1, 49, 0
2, 113920, Note_off_c, 1, 69, 0
2, 113920, Note_off_c, 1, 75, 0
2, 113920, Note_off_c, 1, 78, 0
2, 113960, Note_on_c, 1, 49, 127
2, 113960, Note_on_c, 1, 69, 127
2, 113960, Note_on_c, 1, 75, 127
2, 113960, Note_on_c, 1, 78, 127
2, 114080, Note_off_c, 1, 49, 0
2, 114080, Note_off_c, 1, 69, 0
2, 114080, Note_off_c, 1, 75, 0
2, 114080, Note_off_c, 1, 78, 0
2, 114120, Note_on_c, 1, 37, 127
2, 114120, Note_on_c, 1, 73, 127
2, 114120, Note_on_c, 1, 76, 127
2, 114240, Note_off_c, 1, 37, 0
2, 114280, Note_on_c, 1, 49, 127
2, 114320, Note_off_c, 1, 73, 0
2, 114320, Note_off_c, 1, 76, 0
2, 114360, Note_on_c, 1, 73, 127
2, 114360, Note_on_c, 1, 76, 127
2, 114400, Note_off_c, 1, 49, 0
2, 114440, Note_on_c, 1, 56, 127
2, 114520, Note_off_c, 1, 56, 0
2, 114520, Note_off_c, 1, 73, 0
2, 114520, Note_off_c, 1, 76, 0
2, 114560, Note_on_c, 1, 56, 127
2, 114560, Note_on_c, 1, 63, 127
2, 114560, Note_on_c, 1, 66, 127
2, 114560, Note_on_c, 1, 70, 127
2, 114560, Note_on_c, 1, 75, 127
2, 114600, Note_on_c, 1, 26, 127
2, 114600, Note_on_c, 1, 38, 127
2, 114600, Note_off_c, 1, 56, 0
2, 114600, Note_on_c, 1, 60, 127
2, 114600, Note_on_c, 1, 62, 127
2, 114600, Note_off_c, 1, 63, 0
2, 114600, Note_off_c, 1, 70, 0
2, 114600, Note_on_c, 1, 71, 127
2, 114600, Note_off_c, 1, 75, 0
2, 114640, Note_off_c, 1, 26, 0
2, 114640, Note_off_c, 1, 38, 0
2, 114640, Note_on_c, 1, 56, 127
2, 114640, Note_off_c, 1, 62, 0
2, 114640, Note_on_c, 1, 65, 127
2, 114640, Note_off_c, 1, 66, 0
2, 114640, Note_on_c, 1, 68, 127
2, 114640, Note_off_c, 1, 71, 0
2, 114640, Note_on_c, 1, 72, 127
2, 114640, Note_on_c, 1, 77, 127
2, 114640, Note_on_c, 1, 80, 127
2, 114680, Note_off_c, 1, 56, 0
2, 114680, Note_off_c, 1, 60, 0
2, 114680, Note_off_c, 1, 65, 0
2, 114680, Note_off_c, 1, 68, 0
2, 114680, Note_off_c, 1, 72, 0
2, 114680, Note_off_c, 1, 77, 0
2, 114680, Note_off_c, 1, 80, 0
2, 114720, Note_on_c, 1, 58, 127
2, 114720, Note_on_c, 1, 72, 127
2, 114720, Note_on_c, 1, 76, 127
2, 114720, Note_on_c, 1, 82, 127
2, 114840, Note_off_c, 1, 58, 0
2, 114840, Note_off_c, 1, 72, 0
2, 114840, Note_off_c, 1, 76, 0
2, 114840, Note_off_c, 1, 82, 0
2, 114880, Note_on_c, 1, 66, 127
2, 114880, Note_on_c, 1, 69, 127
2, 114880, Note_on_c, 1, 73, 127
2, 114880, Note_on_c, 1, 85, 127
2, 114960, Note_off_c, 1, 66, 0
2, 114960, Note_off_c, 1, 69, 0
2, 114960, Note_off_c, 1, 73, 0
2, 114960, Note_off_c, 1, 85, 0
2, 115000, Note_on_c, 1, 44, 127
2, 115000, Note_on_c, 1, 66, 127
2, 115000, Note_on_c, 1, 73, 127
2, 115000, Note_on_c, 1, 81, 127
2, 115040, Note_off_c, 1, 44, 0
2, 115040, Note_on_c, 1, 59, 127
2, 115040, Note_on_c, 1, 65, 127
2, 115040, Note_off_c, 1, 66, 0
2, 115040, Note_on_c, 1, 68, 127
2, 115040, Note_off_c, 1, 73, 0
2, 115040, Note_off_c, 1, 81, 0
2, 115040, Note_on_c, 1, 85, 127
2, 115080, Note_off_c, 1, 59, 0
2, 115080, Note_on_c, 1, 64, 127
2, 115080, Note_off_c, 1, 65, 0
2, 115080, Note_off_c, 1, 68, 0
2, 115080, Note_on_c, 1, 73, 127
2, 115080, Note_on_c, 1, 81, 127
2, 115120, Note_off_c, 1, 64, 0
2, 115120, Note_off_c, 1, 73, 0
2, 115120, Note_off_c, 1, 81, 0
2, 115120, Note_off_c, 1, 85, 0
2, 115160, Note_on_c, 1, 56, 127
2, 115160, Note_on_c, 1, 61, 127
2, 115160, Note_on_c, 1, 64, 127
2, 115240, Note_off_c, 1, 56, 0
2, 115240, Note_off_c, 1, 61, 0
2, 115240, Note_off_c, 1, 64, 0
2, 115280, Note_on_c, 1, 49, 127
2, 115280, Note_on_c, 1, 56, 127
2, 115280, Note_on_c, 1, 64, 127
2, 115400, Note_off_c, 1, 49, 0
2, 115400, Note_off_c, 1, 56, 0
2, 115400, Note_off_c, 1, 64, 0
2, 115440, Note_on_c, 1, 49, 127
2, 115440, Note_on_c, 1, 56, 127
2, 115440, Note_on_c, 1, 64, 127
2, 115520, Note_off_c, 1, 49, 0
2, 115520, Note_off_c, 1, 56, 0
2, 115520, Note_off_c, 1, 64, 0
2, 115560, Note_on_c, 1, 49, 127
2, 115560, Note_on_c, 1, 56, 127
2, 115560, Note_on_c, 1, 64, 127
2, 115680, Note_off_c, 1, 49, 0
2, 115680, Note_off_c, 1, 56, 0
2, 115680, Note_off_c, 1, 64, 0
2, 115720, Note_on_c, 1, 51, 127
2, 115720, Note_on_c, 1, 53, 127
2, 115720, Note_on_c, 1, 56, 127
2, 115840, Note_off_c, 1, 51, 0
2, 115840, Note_off_c, 1, 53, 0
2, 115840, Note_off_c, 1, 56, 0
2, 115920, Note_on_c, 1, 33, 127
2, 115920, Note_on_c, 1, 45, 127
2, 115920, Note_on_c, 1, 61, 127
2, 115920, Note_on_c, 1, 64, 127
2, 116000, Note_off_c, 1, 33, 0
2, 116000, Note_off_c, 1, 45, 0
2, 116000, Note_off_c, 1, 61, 0
2, 116000, Note_off_c, 1, 64, 0
2, 116040, Note_on_c, 1, 66, 127
2, 116160, Note_off_c, 1, 66, 0
2, 116200, Note_on_c, 1, 64, 127
2, 116320, Note_off_c, 1, 64, 0
2, 116360, Note_on_c, 1, 66, 127
2, 116480, Note_on_c, 1, 47, 127
2, 116480, Note_on_c, 1, 59, 127
2, 116480, Note_on_c, 1, 71, 127
2, 117000, Note_off_c, 1, 66, 0
2, 117000, Note_off_c, 1, 71, 0
2, 117040, Note_on_c, 1, 71, 127
2, 117280, Note_off_c, 1, 47, 0
2, 117280, Note_off_c, 1, 59, 0
2, 117280, Note_off_c, 1, 71, 0
2, 117320, Note_on_c, 1, 48, 127
2, 117320, Note_on_c, 1, 60, 127
2, 117320, Note_on_c, 1, 80, 127
2, 117320, Note_on_c, 1, 84, 127
2, 117440, Note_off_c, 1, 80, 0
2, 117480, Note_on_c, 1, 72, 127
2, 117560, Note_off_c, 1, 72, 0
2, 117600, Note_on_c, 1, 80, 127
2, 117720, Note_off_c, 1, 48, 0
2, 117720, Note_off_c, 1, 60, 0
2, 117720, Note_off_c, 1, 80, 0
2, 117720, Note_off_c, 1, 84, 0
2, 117760, Note_on_c, 1, 48, 127
2, 117760, Note_on_c, 1, 60, 127
2, 117760, Note_on_c, 1, 80, 127
2, 117760, Note_on_c, 1, 84, 127
2, 117840, Note_off_c, 1, 48, 0
2, 117840, Note_off_c, 1, 60, 0
2, 117840, Note_off_c, 1, 80, 0
2, 117840, Note_off_c, 1, 84, 0
2, 117880, Note_on_c, 1, 68, 127
2, 117880, Note_on_c, 1, 71, 127
2, 117880, Note_on_c, 1, 80, 127
2, 117880, Note_on_c, 1, 83, 127
2, 117960, Note_off_c, 1, 68, 0
2, 117960, Note_off_c, 1, 71, 0
2, 117960, Note_off_c, 1, 80, 0
2, 117960, Note_off_c, 1, 83, 0
2, 118000, Note_on_c, 1, 68, 127
2, 118000, Note_on_c, 1, 71, 127
2, 118000, Note_on_c, 1, 80, 127
2, 118000, Note_on_c, 1, 83, 127
2, 118040, Note_off_c, 1, 68, 0
2, 118080, Note_on_c, 1, 61, 127
2, 118160, Note_off_c, 1, 61, 0
2, 118160, Note_off_c, 1, 71, 0
2, 118160, Note_off_c, 1, 80, 0
2, 118160, Note_off_c, 1, 83, 0
2, 118200, Note_on_c, 1, 69, 127
2, 118200, Note_on_c, 1, 73, 127
2, 118200, Note_on_c, 1, 81, 127
2, 118200, Note_on_c, 1, 85, 127
2, 118360, Note_on_c, 1, 61, 127
2, 118360, Note_off_c, 1, 69, 0
2, 118440, Note_off_c, 1, 61, 0
2, 118440, Note_off_c, 1, 73, 0
2, 118440, Note_off_c, 1, 81, 0
2, 118440, Note_off_c, 1, 85, 0
2, 118480, Note_on_c, 1, 71, 127
2, 118480, Note_on_c, 1, 74, 127
2, 118480, Note_on_c, 1, 83, 127
2, 118480, Note_on_c, 1, 86, 127
2, 118600, Note_off_c, 1, 71, 0
2, 118600, Note_off_c, 1, 74, 0
2, 118600, Note_off_c, 1, 83, 0
2, 118600, Note_off_c, 1, 86, 0
2, 118640, Note_on_c, 1, 56, 127
2, 118640, Note_on_c, 1, 64, 127
2, 118640, Note_on_c, 1, 68, 127
2, 118640, Note_on_c, 1, 71, 127
2, 118640, Note_on_c, 1, 76, 127
2, 118640, Note_on_c, 1, 83, 127
2, 118720, Note_off_c, 1, 56, 0
2, 118720, Note_off_c, 1, 64, 0
2, 118720, Note_off_c, 1, 68, 0
2, 118720, Note_off_c, 1, 71, 0
2, 118720, Note_off_c, 1, 76, 0
2, 118720, Note_off_c, 1, 83, 0
2, 118760, Note_on_c, 1, 57, 127
2, 118760, Note_on_c, 1, 64, 127
2, 118760, Note_on_c, 1, 69, 127
2, 118760, Note_on_c, 1, 73, 127
2, 118760, Note_on_c, 1, 76, 127
2, 118760, Note_on_c, 1, 85, 127
2, 118880, Note_off_c, 1, 57, 0
2, 118880, Note_off_c, 1, 64, 0
2, 118880, Note_off_c, 1, 69, 0
2, 118880, Note_off_c, 1, 73, 0
2, 118880, Note_off_c, 1, 76, 0
2, 118880, Note_off_c, 1, 85, 0
2, 118920, Note_on_c, 1, 57, 127
2, 118920, Note_on_c, 1, 64, 127
2, 118920, Note_on_c, 1, 69, 127
2, 118920, Note_on_c, 1, 73, 127
2, 118920, Note_on_c, 1, 76, 127
2, 118920, Note_on_c, 1, 85, 127
2, 119000, Note_off_c, 1, 57, 0
2, 119000, Note_off_c, 1, 64, 0
2, 119000, Note_off_c, 1, 69, 0
2, 119000, Note_off_c, 1, 73, 0
2, 119000, Note_off_c, 1, 76, 0
2, 119000, Note_off_c, 1, 85, 0
2, 119040, Note_on_c, 1, 40, 127
2, 119040, Note_on_c, 1, 76, 127
2, 119040, Note_on_c, 1, 88, 127
2, 119160, Note_off_c, 1, 40, 0
2, 119160, Note_off_c, 1, 76, 0
2, 119160, Note_off_c, 1, 88, 0
2, 119200, Note_on_c, 1, 49, 127
2, 119200, Note_on_c, 1, 69, 127
2, 119200, Note_on_c, 1, 73, 127
2, 119200, Note_on_c, 1, 78, 127
2, 119320, Note_off_c, 1, 49, 0
2, 119320, Note_off_c, 1, 69, 0
2, 119320, Note_off_c, 1, 73, 0
2, 119320, Note_off_c, 1, 78, 0
2, 119360, Note_on_c, 1, 49, 127
2, 119360, Note_on_c, 1, 69, 127
2, 119360, Note_on_c, 1, 73, 127
2, 119360, Note_on_c, 1, 78, 127
2, 119440, Note_off_c, 1, 49, 0
2, 119440, Note_off_c, 1, 69, 0
2, 119440, Note_off_c, 1, 73, 0
2, 119440, Note_off_c, 1, 78, 0
2, 119480, Note_on_c, 1, 49, 127
2, 119480, Note_on_c, 1, 69, 127
2, 119480, Note_on_c, 1, 73, 127
2, 119480, Note_on_c, 1, 78, 127
2, 119600, Note_off_c, 1, 49, 0
2, 119600, Note_off_c, 1, 69, 0
2, 119600, Note_off_c, 1, 73, 0
2, 119600, Note_off_c, 1, 78, 0
2, 119640, Note_on_c, 1, 49, 127
2, 119640, Note_on_c, 1, 69, 127
2, 119640, Note_on_c, 1, 73, 127
2, 119640, Note_on_c, 1, 78, 127
2, 119720, Note_off_c, 1, 49, 0
2, 119720, Note_off_c, 1, 69, 0
2, 119720, Note_off_c, 1, 73, 0
2, 119720, Note_off_c, 1, 78, 0
2, 119760, Note_on_c, 1, 49, 127
2, 119760, Note_on_c, 1, 69, 127
2, 119760, Note_on_c, 1, 73, 127
2, 119760, Note_on_c, 1, 78, 127
2, 119880, Note_off_c, 1, 49, 0
2, 119880, Note_off_c, 1, 69, 0
2, 119880, Note_off_c, 1, 73, 0
2, 119880, Note_off_c, 1, 78, 0
2, 119920, Note_on_c, 1, 49, 127
2, 119920, Note_on_c, 1, 69, 127
2, 119920, Note_on_c, 1, 73, 127
2, 119920, Note_on_c, 1, 78, 127
2, 120000, Note_off_c, 1, 49, 0
2, 120000, Note_off_c, 1, 69, 0
2, 120000, Note_off_c, 1, 73, 0
2, 120000, Note_off_c, 1, 78, 0
2, 120040, End_track
3, 0, Start_track
3, 0, Title_t, "MIDI"
3, 1536, End_track
0, 0, End_of_file
