0, 0, Header, 1, 3, 192
1, 0, Start_track
1, 0, Time_signature, 4, 2, 24, 8
1, 0, Tempo, 500000
1, 120040, End_track
2, 0, Start_track
2, 0, Text_t, "random instrument: random person i dunno whatev"
2, 0, Title_t, "Track 1"
2, 0, Note_on_c, 1, 40, 127
2, 0, Note_on_c, 1, 48, 127
2, 0, Note_on_c, 1, 56, 127
2, 0, Note_on_c, 1, 60, 127
2, 40, Note_off_c, 1, 40, 0
2, 40, Note_on_c, 1, 42, 127
2, 40, Note_off_c, 1, 48, 0
2, 40, Note_on_c, 1, 49, 127
2, 40, Note_on_c, 1, 54, 127
2, 40, Note_off_c, 1, 56, 0
2, 40, Note_off_c, 1, 60, 0
2, 40, Note_on_c, 1, 82, 127
2, 40, Note_on_c, 1, 88, 127
2, 40, Note_on_c, 1, 94, 127
2, 80, Note_off_c, 1, 42, 0
2, 80, Note_off_c, 1, 49, 0
2, 80, Note_off_c, 1, 54, 0
2, 80, Note_off_c, 1, 82, 0
2, 80, Note_off_c, 1, 88, 0
2, 80, Note_off_c, 1, 94, 0
2, 120, Note_on_c, 1, 48, 127
2, 120, Note_on_c, 1, 55, 127
2, 120, Note_on_c, 1, 67, 127
2, 120, Note_on_c, 1, 79, 127
2, 120, Note_on_c, 1, 91, 127
2, 160, Note_off_c, 1, 48, 0
2, 160, Note_on_c, 1, 53, 127
2, 160, Note_off_c, 1, 55, 0
2, 160, Note_on_c, 1, 57, 127
2, 160, Note_on_c, 1, 61, 127
2, 160, Note_on_c, 1, 65, 127
2, 160, Note_off_c, 1, 67, 0
2, 160, Note_on_c, 1, 69, 127
2, 160, Note_on_c, 1, 76, 127
2, 160, Note_off_c, 1, 79, 0
2, 160, Note_off_c, 1, 91, 0
2, 200, Note_on_c, 1, 35, 127
2, 200, Note_on_c, 1, 39, 127
2, 200, Note_on_c, 1, 47, 127
2, 200, Note_on_c, 1, 50, 127
2, 200, Note_off_c, 1, 53, 0
2, 200, Note_off_c, 1, 57, 0
2, 200, Note_off_c, 1, 61, 0
2, 200, Note_off_c, 1, 65, 0
2, 200, Note_off_c, 1, 69, 0
2, 200, Note_off_c, 1, 76, 0
2, 240, Note_off_c, 1, 35, 0
2, 240, Note_off_c, 1, 39, 0
2, 240, Note_off_c, 1, 47, 0
2, 240, Note_off_c, 1, 50, 0
2, 240, Note_on_c, 1, 53, 127
2, 240, Note_on_c, 1, 57, 127
2, 240, Note_on_c, 1, 61, 127
2, 240, Note_on_c, 1, 65, 127
2, 240, Note_on_c, 1, 69, 127
2, 240, Note_on_c, 1, 76, 127
2, 400, Note_off_c, 1, 53, 0
2, 400, Note_off_c, 1, 57, 0
2, 400, Note_off_c, 1, 61, 0
2, 400, Note_off_c, 1, 65, 0
2, 400, Note_off_c, 1, 69, 0
2, 400, Note_off_c, 1, 76, 0
2, 440, Note_on_c, 1, 50, 127
2, 440, Note_on_c, 1, 69, 127
2, 440, Note_on_c, 1, 72, 127
2, 440, Note_on_c, 1, 78, 127
2, 520, Note_off_c, 1, 50, 0
2, 520, Note_on_c, 1, 57, 127
2, 520, Note_off_c, 1, 69, 0
2, 520, Note_off_c, 1, 72, 0
2, 520, Note_on_c, 1, 74, 127
2, 520, Note_off_c, 1, 78, 0
2, 560, Note_on_c, 1, 50, 127
2, 560, Note_off_c, 1, 57, 0
2, 560, Note_on_c, 1, 59, 127
2, 560, Note_on_c, 1, 67, 127
2, 560, Note_off_c, 1, 74, 0
2, 560, Note_on_c, 1, 79, 127
2, 680, Note_off_c, 1, 50, 0
2, 680, Note_off_c, 1, 59, 0
2, 680, Note_off_c, 1, 67, 0
2, 680, Note_off_c, 1, 79, 0
2, 720, Note_on_c, 1, 50, 127
2, 720, Note_on_c, 1, 60, 127
2, 720, Note_on_c, 1, 66, 127
2, 720, Note_on_c, 1, 69, 127
2, 920, Note_off_c, 1, 50, 0
2, 920, Note_off_c, 1, 60, 0
2, 920, Note_off_c, 1, 66, 0
2, 920, Note_off_c, 1, 69, 0
2, 960, Note_on_c, 1, 55, 127
2, 960, Note_on_c, 1, 59, 127
2, 960, Note_on_c, 1, 67, 127
2, 1160, Note_off_c, 1, 55, 0
2, 1160, Note_off_c, 1, 59, 0
2, 1160, Note_off_c, 1, 67, 0
2, 1200, Note_on_c, 1, 54, 127
2, 1200, Note_on_c, 1, 62, 127
2, 1200, Note_on_c, 1, 69, 127
2, 1440, Note_off_c, 1, 62, 0
2, 1480, Note_on_c, 1, 62, 127
2, 1680, Note_off_c, 1, 62, 0
2, 1720, Note_on_c, 1, 60, 127
2, 1920, Note_on_c, 1, 47, 127
2, 1920, Note_off_c, 1, 54, 0
2, 1920, Note_off_c, 1, 60, 0
2, 1920, Note_on_c, 1, 63, 127
2, 1960, Note_off_c, 1, 47, 0
2, 1960, Note_off_c, 1, 63, 0
2, 1960, Note_off_c, 1, 69, 0
2, 2040, Note_on_c, 1, 55, 127
2, 2040, Note_on_c, 1, 62, 127
2, 2040, Note_on_c, 1, 71, 127
2, 2240, Note_off_c, 1, 71, 0
2, 2280, Note_on_c, 1, 77, 127
2, 2480, Note_off_c, 1, 62, 0
2, 2520, Note_on_c, 1, 54, 127
2, 2520, Note_off_c, 1, 55, 0
2, 2520, Note_on_c, 1, 69, 127
2, 2520, Note_on_c, 1, 76, 127
2, 2520, Note_off_c, 1, 77, 0
2, 2720, Note_off_c, 1, 76, 0
2, 2760, Note_on_c, 1, 62, 127
2, 2760, Note_off_c, 1, 69, 0
2, 2760, Note_on_c, 1, 74, 127
2, 2960, Note_off_c, 1, 54, 0
2, 2960, Note_off_c, 1, 62, 0
2, 2960, Note_off_c, 1, 74, 0
2, 3000, Note_on_c, 1, 57, 127
2, 3000, Note_on_c, 1, 64, 127
2, 3000, Note_on_c, 1, 76, 127
2, 3200, Note_off_c, 1, 57, 0
2, 3200, Note_off_c, 1, 64, 0
2, 3200, Note_off_c, 1, 76, 0
2, 3240, Note_on_c, 1, 57, 127
2, 3240, Note_on_c, 1, 64, 127
2, 3240, Note_on_c, 1, 74, 127
2, 3440, Note_off_c, 1, 64, 0
2, 3440, Note_on_c, 1, 73, 127
2, 3440, Note_off_c, 1, 74, 0
2, 3480, Note_on_c, 1, 52, 127
2, 3480, Note_off_c, 1, 57, 0
2, 3480, Note_on_c, 1, 61, 127
2, 3680, Note_off_c, 1, 52, 0
2, 3680, Note_off_c, 1, 61, 0
2, 3680, Note_off_c, 1, 73, 0
2, 3720, Note_on_c, 1, 55, 127
2, 3720, Note_on_c, 1, 62, 127
2, 3720, Note_on_c, 1, 64, 127
2, 3960, Note_off_c, 1, 55, 0
2, 3960, Note_off_c, 1, 62, 0
2, 3960, Note_off_c, 1, 64, 0
2, 4000, Note_on_c, 1, 54, 127
2, 4000, Note_on_c, 1, 57, 127
2, 4000, Note_on_c, 1, 62, 127
2, 4040, Note_off_c, 1, 54, 0
2, 4040, Note_off_c, 1, 57, 0
2, 4040, Note_off_c, 1, 62, 0
2, 4080, Note_on_c, 1, 54, 127
2, 4080, Note_on_c, 1, 57, 127
2, 4080, Note_on_c, 1, 62, 127
2, 4240, Note_off_c, 1, 54, 0
2, 4240, Note_off_c, 1, 57, 0
2, 4280, Note_on_c, 1, 54, 127
2, 4280, Note_on_c, 1, 74, 127
2, 4480, Note_off_c, 1, 54, 0
2, 4480, Note_off_c, 1, 62, 0
2, 4480, Note_off_c, 1, 74, 0
2, 4520, Note_on_c, 1, 57, 127
2, 4520, Note_on_c, 1, 61, 127
2, 4520, Note_on_c, 1, 73, 127
2, 4760, Note_off_c, 1, 57, 0
2, 4760, Note_off_c, 1, 61, 0
2, 4760, Note_off_c, 1, 73, 0
2, 4800, Note_on_c, 1, 57, 127
2, 4800, Note_on_c, 1, 62, 127
2, 4800, Note_on_c, 1, 73, 127
2, 4840, Note_on_c, 1, 71, 127
2, 4840, Note_off_c, 1, 73, 0
2, 4920, Note_off_c, 1, 71, 0
2, 4920, Note_on_c, 1, 73, 127
2, 4960, Note_off_c, 1, 73, 0
2, 5000, Note_off_c, 1, 57, 0
2, 5000, Note_off_c, 1, 62, 0
2, 5040, Note_on_c, 1, 57, 127
2, 5040, Note_on_c, 1, 62, 127
2, 5040, Note_on_c, 1, 66, 127
2, 5040, Note_on_c, 1, 74, 127
2, 5240, Note_off_c, 1, 74, 0
2, 5280, Note_on_c, 1, 72, 127
2, 5480, Note_off_c, 1, 57, 0
2, 5480, Note_off_c, 1, 62, 0
2, 5480, Note_off_c, 1, 66, 0
2, 5480, Note_off_c, 1, 72, 0
2, 5520, Note_on_c, 1, 55, 127
2, 5520, Note_on_c, 1, 62, 127
2, 5520, Note_on_c, 1, 67, 127
2, 5520, Note_on_c, 1, 71, 127
2, 5720, Note_off_c, 1, 55, 0
2, 5720, Note_on_c, 1, 57, 127
2, 5720, Note_off_c, 1, 62, 0
2, 5720, Note_on_c, 1, 66, 127
2, 5720, Note_off_c, 1, 67, 0
2, 5720, Note_on_c, 1, 69, 127
2, 5720, Note_off_c, 1, 71, 0
2, 5960, Note_off_c, 1, 57, 0
2, 5960, Note_off_c, 1, 66, 0
2, 5960, Note_off_c, 1, 69, 0
2, 6000, Note_on_c, 1, 56, 127
2, 6000, Note_on_c, 1, 64, 127
2, 6000, Note_on_c, 1, 71, 127
2, 6120, Note_on_c, 1, 47, 127
2, 6120, Note_on_c, 1, 70, 127
2, 6120, Note_off_c, 1, 71, 0
2, 6160, Note_off_c, 1, 47, 0
2, 6160, Note_off_c, 1, 56, 0
2, 6160, Note_off_c, 1, 64, 0
2, 6160, Note_off_c, 1, 70, 0
2, 6200, Note_on_c, 1, 42, 127
2, 6200, Note_on_c, 1, 52, 127
2, 6200, Note_on_c, 1, 59, 127
2, 6200, Note_on_c, 1, 64, 127
2, 6240, Note_off_c, 1, 42, 0
2, 6240, Note_off_c, 1, 52, 0
2, 6240, Note_off_c, 1, 59, 0
2, 6240, Note_off_c, 1, 64, 0
2, 6240, Note_on_c, 1, 67, 127
2, 6240, Note_on_c, 1, 70, 127
2, 6240, Note_on_c, 1, 84, 127
2, 6240, Note_on_c, 1, 87, 127
2, 6240, Note_on_c, 1, 93, 127
2, 6280, Note_on_c, 1, 47, 127
2, 6280, Note_off_c, 1, 67, 0
2, 6280, Note_off_c, 1, 70, 0
2, 6280, Note_off_c, 1, 84, 0
2, 6280, Note_off_c, 1, 87, 0
2, 6280, Note_off_c, 1, 93, 0
2, 6320, Note_on_c, 1, 56, 127
2, 6320, Note_on_c, 1, 64, 127
2, 6320, Note_on_c, 1, 71, 127
2, 6520, Note_off_c, 1, 56, 0
2, 6520, Note_off_c, 1, 64, 0
2, 6560, Note_off_c, 1, 47, 0
2, 6560, Note_on_c, 1, 52, 127
2, 6560, Note_on_c, 1, 57, 127
2, 6560, Note_on_c, 1, 66, 127
2, 6560, Note_off_c, 1, 71, 0
2, 6560, Note_on_c, 1, 73, 127
2, 6760, Note_off_c, 1, 57, 0
2, 6760, Note_off_c, 1, 66, 0
2, 6760, Note_off_c, 1, 73, 0
2, 6800, Note_on_c, 1, 45, 127
2, 6800, Note_on_c, 1, 61, 127
2, 6800, Note_on_c, 1, 69, 127
2, 6800, Note_on_c, 1, 76, 127
2, 6960, Note_off_c, 1, 76, 0
2, 7000, Note_off_c, 1, 61, 0
2, 7040, Note_off_c, 1, 45, 0
2, 7040, Note_on_c, 1, 48, 127
2, 7040, Note_off_c, 1, 52, 0
2, 7040, Note_on_c, 1, 54, 127
2, 7040, Note_on_c, 1, 60, 127
2, 7040, Note_on_c, 1, 62, 127
2, 7040, Note_on_c, 1, 66, 127
2, 7280, Note_off_c, 1, 48, 0
2, 7280, Note_off_c, 1, 54, 0
2, 7280, Note_off_c, 1, 60, 0
2, 7280, Note_off_c, 1, 62, 0
2, 7280, Note_off_c, 1, 66, 0
2, 7280, Note_off_c, 1, 69, 0
2, 7320, Note_on_c, 1, 62, 127
2, 7320, Note_on_c, 1, 65, 127
2, 7320, Note_on_c, 1, 69, 127
2, 7320, Note_on_c, 1, 74, 127
2, 7320, Note_on_c, 1, 81, 127
2, 7320, Note_on_c, 1, 86, 127
2, 7520, Note_off_c, 1, 62, 0
2, 7520, Note_off_c, 1, 65, 0
2, 7520, Note_off_c, 1, 69, 0
2, 7520, Note_off_c, 1, 81, 0
2, 7560, Note_on_c, 1, 45, 127
2, 7560, Note_on_c, 1, 62, 127
2, 7560, Note_on_c, 1, 70, 127
2, 7560, Note_off_c, 1, 74, 0
2, 7560, Note_on_c, 1, 82, 127
2, 7560, Note_off_c, 1, 86, 0
2, 8040, Note_off_c, 1, 62, 0
2, 8040, Note_off_c, 1, 70, 0
2, 8040, Note_off_c, 1, 82, 0
2, 8080, Note_on_c, 1, 63, 127
2, 8080, Note_on_c, 1, 71, 127
2, 8080, Note_on_c, 1, 83, 127
2, 8200, Note_off_c, 1, 45, 0
2, 8240, Note_off_c, 1, 63, 0
2, 8240, Note_off_c, 1, 71, 0
2, 8240, Note_off_c, 1, 83, 0
2, 8280, Note_on_c, 1, 63, 127
2, 8280, Note_on_c, 1, 71, 127
2, 8280, Note_on_c, 1, 83, 127
2, 8400, Note_on_c, 1, 48, 127
2, 8400, Note_off_c, 1, 63, 0
2, 8400, Note_on_c, 1, 64, 127
2, 8400, Note_on_c, 1, 69, 127
2, 8400, Note_off_c, 1, 71, 0
2, 8400, Note_on_c, 1, 73, 127
2, 8400, Note_off_c, 1, 83, 0
2, 8440, Note_off_c, 1, 48, 0
2, 8440, Note_off_c, 1, 64, 0
2, 8440, Note_off_c, 1, 69, 0
2, 8440, Note_off_c, 1, 73, 0
2, 8440, Note_on_c, 1, 81, 127
2, 8440, Note_on_c, 1, 84, 127
2, 8440, Note_on_c, 1, 88, 127
2, 8480, Note_on_c, 1, 48, 127
2, 8480, Note_on_c, 1, 64, 127
2, 8480, Note_on_c, 1, 69, 127
2, 8480, Note_on_c, 1, 73, 127
2, 8480, Note_off_c, 1, 81, 0
2, 8480, Note_off_c, 1, 84, 0
2, 8480, Note_off_c, 1, 88, 0
2, 8520, Note_off_c, 1, 48, 0
2, 8520, Note_on_c, 1, 55, 127
2, 8520, Note_on_c, 1, 60, 127
2, 8520, Note_off_c, 1, 64, 0
2, 8520, Note_off_c, 1, 69, 0
2, 8520, Note_on_c, 1, 70, 127
2, 8520, Note_off_c, 1, 73, 0
2, 8520, Note_on_c, 1, 74, 127
2, 8520, Note_on_c, 1, 82, 127
2, 8560, Note_off_c, 1, 55, 0
2, 8560, Note_on_c, 1, 58, 127
2, 8560, Note_off_c, 1, 60, 0
2, 8560, Note_on_c, 1, 64, 127
2, 8560, Note_off_c, 1, 70, 0
2, 8560, Note_on_c, 1, 79, 127
2, 8560, Note_off_c, 1, 82, 0
2, 8600, Note_off_c, 1, 58, 0
2, 8600, Note_off_c, 1, 74, 0
2, 8600, Note_off_c, 1, 79, 0
2, 8640, Note_on_c, 1, 57, 127
2, 8640, Note_on_c, 1, 69, 127
2, 8640, Note_on_c, 1, 72, 127
2, 8840, Note_off_c, 1, 57, 0
2, 8840, Note_off_c, 1, 64, 0
2, 8840, Note_off_c, 1, 69, 0
2, 8840, Note_off_c, 1, 72, 0
2, 8880, Note_on_c, 1, 36, 127
2, 8880, Note_on_c, 1, 76, 127
2, 8880, Note_on_c, 1, 80, 127
2, 8880, Note_on_c, 1, 88, 127
2, 8920, Note_off_c, 1, 36, 0
2, 8920, Note_on_c, 1, 47, 127
2, 8920, Note_on_c, 1, 54, 127
2, 8920, Note_on_c, 1, 61, 127
2, 8920, Note_on_c, 1, 63, 127
2, 8920, Note_on_c, 1, 66, 127
2, 8920, Note_on_c, 1, 70, 127
2, 8920, Note_off_c, 1, 76, 0
2, 8920, Note_off_c, 1, 80, 0
2, 8920, Note_off_c, 1, 88, 0
2, 8960, Note_on_c, 1, 37, 127
2, 8960, Note_on_c, 1, 44, 127
2, 8960, Note_off_c, 1, 47, 0
2, 8960, Note_off_c, 1, 54, 0
2, 8960, Note_off_c, 1, 61, 0
2, 8960, Note_off_c, 1, 63, 0
2, 8960, Note_off_c, 1, 66, 0
2, 8960, Note_off_c, 1, 70, 0
2, 8960, Note_on_c, 1, 77, 127
2, 8960, Note_on_c, 1, 80, 127
2, 8960, Note_on_c, 1, 84, 127
2, 9000, Note_off_c, 1, 37, 0
2, 9000, Note_on_c, 1, 39, 127
2, 9000, Note_off_c, 1, 44, 0
2, 9000, Note_on_c, 1, 46, 127
2, 9000, Note_on_c, 1, 55, 127
2, 9000, Note_on_c, 1, 58, 127
2, 9000, Note_on_c, 1, 62, 127
2, 9000, Note_on_c, 1, 74, 127
2, 9000, Note_off_c, 1, 77, 0
2, 9000, Note_off_c, 1, 80, 0
2, 9000, Note_off_c, 1, 84, 0
2, 9040, Note_on_c, 1, 33, 127
2, 9040, Note_off_c, 1, 39, 0
2, 9040, Note_on_c, 1, 45, 127
2, 9040, Note_off_c, 1, 46, 0
2, 9040, Note_off_c, 1, 58, 0
2, 9040, Note_on_c, 1, 60, 127
2, 9040, Note_off_c, 1, 62, 0
2, 9040, Note_on_c, 1, 65, 127
2, 9040, Note_on_c, 1, 67, 127
2, 9040, Note_off_c, 1, 74, 0
2, 9080, Note_off_c, 1, 33, 0
2, 9080, Note_off_c, 1, 45, 0
2, 9080, Note_off_c, 1, 55, 0
2, 9080, Note_off_c, 1, 60, 0
2, 9080, Note_on_c, 1, 64, 127
2, 9080, Note_off_c, 1, 65, 0
2, 9080, Note_on_c, 1, 71, 127
2, 9080, Note_on_c, 1, 91, 127
2, 9120, Note_off_c, 1, 64, 0
2, 9120, Note_off_c, 1, 67, 0
2, 9120, Note_off_c, 1, 71, 0
2, 9120, Note_off_c, 1, 91, 0
2, 9160, Note_on_c, 1, 57, 127
2, 9160, Note_on_c, 1, 62, 127
2, 9160, Note_on_c, 1, 71, 127
2, 9160, Note_on_c, 1, 74, 127
2, 9360, Note_off_c, 1, 57, 0
2, 9360, Note_off_c, 1, 62, 0
2, 9360, Note_off_c, 1, 71, 0
2, 9360, Note_off_c, 1, 74, 0
2, 9400, Note_on_c, 1, 54, 127
2, 9400, Note_on_c, 1, 60, 127
2, 9400, Note_on_c, 1, 64, 127
2, 9640, Note_on_c, 1, 53, 127
2, 9640, Note_off_c, 1, 54, 0
2, 9640, Note_on_c, 1, 57, 127
2, 9640, Note_on_c, 1, 59, 127
2, 9640, Note_off_c, 1, 60, 0
2, 9640, Note_on_c, 1, 62, 127
2, 9640, Note_off_c, 1, 64, 0
2, 9680, Note_off_c, 1, 53, 0
2, 9680, Note_off_c, 1, 57, 0
2, 9680, Note_on_c, 1, 58, 127
2, 9680, Note_off_c, 1, 59, 0
2, 9680, Note_on_c, 1, 60, 127
2, 9680, Note_off_c, 1, 62, 0
2, 9680, Note_on_c, 1, 64, 127
2, 9680, Note_on_c, 1, 66, 127
2, 9720, Note_on_c, 1, 37, 127
2, 9720, Note_on_c, 1, 44, 127
2, 9720, Note_off_c, 1, 58, 0
2, 9720, Note_off_c, 1, 60, 0
2, 9720, Note_off_c, 1, 64, 0
2, 9720, Note_off_c, 1, 66, 0
2, 9720, Note_on_c, 1, 68, 127
2, 9720, Note_on_c, 1, 89, 127
2, 9760, Note_off_c, 1, 37, 0
2, 9760, Note_off_c, 1, 44, 0
2, 9760, Note_on_c, 1, 58, 127
2, 9760, Note_on_c, 1, 60, 127
2, 9760, Note_on_c, 1, 64, 127
2, 9760, Note_on_c, 1, 66, 127
2, 9760, Note_off_c, 1, 68, 0
2, 9760, Note_off_c, 1, 89, 0
2, 9880, Note_on_c, 1, 54, 127
2, 9880, Note_off_c, 1, 58, 0
2, 9880, Note_off_c, 1, 66, 0
2, 9920, Note_on_c, 1, 48, 127
2, 9920, Note_off_c, 1, 54, 0
2, 9920, Note_on_c, 1, 58, 127
2, 9920, Note_on_c, 1, 67, 127
2, 10120, Note_off_c, 1, 48, 0
2, 10120, Note_off_c, 1, 58, 0
2, 10120, Note_off_c, 1, 60, 0
2, 10120, Note_off_c, 1, 64, 0
2, 10120, Note_off_c, 1, 67, 0
2, 10160, Note_on_c, 1, 44, 127
2, 10160, Note_on_c, 1, 52, 127
2, 10160, Note_on_c, 1, 59, 127
2, 10160, Note_on_c, 1, 62, 127
2, 10160, Note_on_c, 1, 64, 127
2, 10320, Note_off_c, 1, 44, 0
2, 10320, Note_off_c, 1, 52, 0
2, 10320, Note_off_c, 1, 59, 0
2, 10320, Note_off_c, 1, 62, 0
2, 10320, Note_off_c, 1, 64, 0
2, 10360, Note_on_c, 1, 44, 127
2, 10360, Note_on_c, 1, 52, 127
2, 10360, Note_on_c, 1, 59, 127
2, 10360, Note_on_c, 1, 62, 127
2, 10360, Note_on_c, 1, 64, 127
2, 10960, Note_off_c, 1, 44, 0
2, 10960, Note_off_c, 1, 52, 0
2, 10960, Note_off_c, 1, 62, 0
2, 10960, Note_off_c, 1, 64, 0
2, 11000, Note_on_c, 1, 38, 127
2, 11000, Note_on_c, 1, 64, 127
2, 11200, Note_off_c, 1, 38, 0
2, 11200, Note_off_c, 1, 64, 0
2, 11240, Note_on_c, 1, 38, 127
2, 11240, Note_on_c, 1, 50, 127
2, 11240, Note_off_c, 1, 59, 0
2, 11240, Note_on_c, 1, 60, 127
2, 11240, Note_on_c, 1, 62, 127
2, 11440, Note_off_c, 1, 38, 0
2, 11440, Note_off_c, 1, 50, 0
2, 11440, Note_off_c, 1, 60, 0
2, 11440, Note_off_c, 1, 62, 0
2, 11480, Note_on_c, 1, 49, 127
2, 11480, Note_on_c, 1, 61, 127
2, 11480, Note_on_c, 1, 69, 127
2, 11480, Note_on_c, 1, 76, 127
2, 11480, Note_on_c, 1, 79, 127
2, 11480, Note_on_c, 1, 81, 127
2, 11720, Note_off_c, 1, 49, 0
2, 11720, Note_off_c, 1, 61, 0
2, 11720, Note_off_c, 1, 69, 0
2, 11720, Note_off_c, 1, 76, 0
2, 11720, Note_off_c, 1, 79, 0
2, 11720, Note_off_c, 1, 81, 0
2, 11760, Note_on_c, 1, 49, 127
2, 11760, Note_on_c, 1, 57, 127
2, 11760, Note_on_c, 1, 65, 127
2, 11760, Note_on_c, 1, 69, 127
2, 11960, Note_off_c, 1, 49, 0
2, 11960, Note_off_c, 1, 57, 0
2, 11960, Note_off_c, 1, 65, 0
2, 11960, Note_off_c, 1, 69, 0
2, 12000, Note_on_c, 1, 45, 127
2, 12000, Note_on_c, 1, 52, 127
2, 12000, Note_on_c, 1, 81, 127
2, 12240, Note_off_c, 1, 45, 0
2, 12240, Note_off_c, 1, 52, 0
2, 12240, Note_off_c, 1, 81, 0
2, 12280, Note_on_c, 1, 49, 127
2, 12280, Note_on_c, 1, 59, 127
2, 12280, Note_on_c, 1, 67, 127
2, 12280, Note_on_c, 1, 71, 127
2, 12320, Note_off_c, 1, 49, 0
2, 12320, Note_on_c, 1, 50, 127
2, 12320, Note_on_c, 1, 65, 127
2, 12320, Note_off_c, 1, 67, 0
2, 12320, Note_off_c, 1, 71, 0
2, 12320, Note_on_c, 1, 74, 127
2, 12360, Note_off_c, 1, 50, 0
2, 12360, Note_off_c, 1, 59, 0
2, 12360, Note_off_c, 1, 65, 0
2, 12360, Note_off_c, 1, 74, 0
2, 12400, Note_on_c, 1, 45, 127
2, 12400, Note_on_c, 1, 50, 127
2, 12400, Note_on_c, 1, 66, 127
2, 12400, Note_on_c, 1, 69, 127
2, 12400, Note_on_c, 1, 74, 127
2, 12400, Note_on_c, 1, 78, 127
2, 12440, Note_on_c, 1, 43, 127
2, 12440, Note_off_c, 1, 45, 0
2, 12440, Note_off_c, 1, 50, 0
2, 12440, Note_on_c, 1, 55, 127
2, 12440, Note_on_c, 1, 59, 127
2, 12440, Note_on_c, 1, 61, 127
2, 12440, Note_off_c, 1, 66, 0
2, 12440, Note_off_c, 1, 69, 0
2, 12440, Note_off_c, 1, 74, 0
2, 12440, Note_off_c, 1, 78, 0
2, 12480, Note_off_c, 1, 43, 0
2, 12480, Note_on_c, 1, 45, 127
2, 12480, Note_on_c, 1, 48, 127
2, 12480, Note_off_c, 1, 55, 0
2, 12480, Note_on_c, 1, 57, 127
2, 12480, Note_off_c, 1, 59, 0
2, 12480, Note_on_c, 1, 60, 127
2, 12480, Note_off_c, 1, 61, 0
2, 12480, Note_on_c, 1, 64, 127
2, 12520, Note_off_c, 1, 45, 0
2, 12520, Note_off_c, 1, 48, 0
2, 12520, Note_off_c, 1, 57, 0
2, 12520, Note_off_c, 1, 60, 0
2, 12520, Note_off_c, 1, 64, 0
2, 12560, Note_on_c, 1, 57, 127
2, 12560, Note_on_c, 1, 60, 127
2, 12560, Note_on_c, 1, 64, 127
2, 12560, Note_on_c, 1, 69, 127
2, 13040, Note_off_c, 1, 57, 0
2, 13040, Note_off_c, 1, 60, 0
2, 13040, Note_off_c, 1, 64, 0
2, 13040, Note_off_c, 1, 69, 0
2, 13080, Note_on_c, 1, 57, 127
2, 13280, Note_off_c, 1, 57, 0
2, 13320, Note_on_c, 1, 45, 127
2, 13560, Note_off_c, 1, 45, 0
2, 13600, Note_on_c, 1, 45, 127
2, 13600, Note_on_c, 1, 51, 127
2, 13600, Note_on_c, 1, 54, 127
2, 13600, Note_on_c, 1, 61, 127
2, 13800, Note_off_c, 1, 45, 0
2, 13800, Note_off_c, 1, 51, 0
2, 13800, Note_off_c, 1, 54, 0
2, 13800, Note_off_c, 1, 61, 0
2, 13800, Note_on_c, 1, 70, 127
2, 13800, Note_on_c, 1, 76, 127
2, 13800, Note_on_c, 1, 79, 127
2, 13800, Note_on_c, 1, 81, 127
2, 13800, Note_on_c, 1, 88, 127
2, 13840, Note_off_c, 1, 70, 0
2, 13840, Note_off_c, 1, 76, 0
2, 13840, Note_on_c, 1, 77, 127
2, 13840, Note_off_c, 1, 79, 0
2, 13840, Note_off_c, 1, 88, 0
2, 13840, Note_on_c, 1, 91, 127
2, 13840, Note_on_c, 1, 96, 127
2, 13880, Note_on_c, 1, 38, 127
2, 13880, Note_on_c, 1, 50, 127
2, 13880, Note_on_c, 1, 55, 127
2, 13880, Note_on_c, 1, 67, 127
2, 13880, Note_off_c, 1, 77, 0
2, 13880, Note_off_c, 1, 81, 0
2, 13880, Note_off_c, 1, 91, 0
2, 13880, Note_off_c, 1, 96, 0
2, 13920, Note_off_c, 1, 38, 0
2, 13920, Note_off_c, 1, 50, 0
2, 13920, Note_on_c, 1, 52, 127
2, 13920, Note_off_c, 1, 55, 0
2, 13920, Note_off_c, 1, 67, 0
2, 13920, Note_on_c, 1, 74, 127
2, 13920, Note_on_c, 1, 79, 127
2, 13920, Note_on_c, 1, 82, 127
2, 13960, Note_off_c, 1, 52, 0
2, 13960, Note_on_c, 1, 61, 127
2, 13960, Note_on_c, 1, 64, 127
2, 13960, Note_on_c, 1, 70, 127
2, 13960, Note_on_c, 1, 73, 127
2, 13960, Note_off_c, 1, 74, 0
2, 13960, Note_on_c, 1, 76, 127
2, 13960, Note_off_c, 1, 79, 0
2, 13960, Note_off_c, 1, 82, 0
2, 13960, Note_on_c, 1, 85, 127
2, 14000, Note_on_c, 1, 48, 127
2, 14000, Note_on_c, 1, 55, 127
2, 14000, Note_on_c, 1, 58, 127
2, 14000, Note_off_c, 1, 61, 0
2, 14000, Note_off_c, 1, 64, 0
2, 14000, Note_off_c, 1, 70, 0
2, 14000, Note_off_c, 1, 73, 0
2, 14000, Note_off_c, 1, 76, 0
2, 14000, Note_on_c, 1, 83, 127
2, 14000, Note_off_c, 1, 85, 0
2, 14040, Note_off_c, 1, 48, 0
2, 14040, Note_off_c, 1, 55, 0
2, 14040, Note_on_c, 1, 56, 127
2, 14040, Note_off_c, 1, 58, 0
2, 14040, Note_on_c, 1, 78, 127
2, 14040, Note_off_c, 1, 83, 0
2, 14040, Note_on_c, 1, 86, 127
2, 14080, Note_on_c, 1, 52, 127
2, 14080, Note_off_c, 1, 56, 0
2, 14080, Note_on_c, 1, 61, 127
2, 14080, Note_on_c, 1, 64, 127
2, 14080, Note_on_c, 1, 66, 127
2, 14080, Note_off_c, 1, 78, 0
2, 14080, Note_off_c, 1, 86, 0
2, 14120, Note_off_c, 1, 52, 0
2, 14120, Note_on_c, 1, 60, 127
2, 14120, Note_off_c, 1, 61, 0
2, 14120, Note_off_c, 1, 64, 0
2, 14120, Note_off_c, 1, 66, 0
2, 14120, Note_on_c, 1, 74, 127
2, 14120, Note_on_c, 1, 81, 127
2, 14120, Note_on_c, 1, 84, 127
2, 14120, Note_on_c, 1, 86, 127
2, 14160, Note_on_c, 1, 42, 127
2, 14160, Note_on_c, 1, 47, 127
2, 14160, Note_on_c, 1, 51, 127
2, 14160, Note_on_c, 1, 57, 127
2, 14160, Note_on_c, 1, 59, 127
2, 14160, Note_off_c, 1, 60, 0
2, 14160, Note_off_c, 1, 74, 0
2, 14160, Note_off_c, 1, 81, 0
2, 14160, Note_off_c, 1, 84, 0
2, 14160, Note_off_c, 1, 86, 0
2, 14200, Note_off_c, 1, 42, 0
2, 14200, Note_off_c, 1, 47, 0
2, 14200, Note_off_c, 1, 51, 0
2, 14200, Note_off_c, 1, 57, 0
2, 14200, Note_off_c, 1, 59, 0
2, 14200, Note_on_c, 1, 60, 127
2, 14200, Note_on_c, 1, 74, 127
2, 14200, Note_on_c, 1, 81, 127
2, 14200, Note_on_c, 1, 84, 127
2, 14200, Note_on_c, 1, 86, 127
2, 14240, Note_on_c, 1, 66, 127
2, 14240, Note_off_c, 1, 74, 0
2, 14240, Note_off_c, 1, 81, 0
2, 14240, Note_on_c, 1, 82, 127
2, 14240, Note_off_c, 1, 84, 0
2, 14240, Note_off_c, 1, 86, 0
2, 14240, Note_on_c, 1, 88, 127
2, 14280, Note_on_c, 1, 59, 127
2, 14280, Note_off_c, 1, 60, 0
2, 14280, Note_on_c, 1, 69, 127
2, 14280, Note_on_c, 1, 78, 127
2, 14280, Note_on_c, 1, 81, 127
2, 14280, Note_off_c, 1, 82, 0
2, 14280, Note_off_c, 1, 88, 0
2, 14320, Note_off_c, 1, 59, 0
2, 14320, Note_on_c, 1, 60, 127
2, 14320, Note_off_c, 1, 66, 0
2, 14320, Note_off_c, 1, 69, 0
2, 14320, Note_off_c, 1, 78, 0
2, 14320, Note_off_c, 1, 81, 0
2, 14360, Note_off_c, 1, 60, 0
2, 14400, Note_on_c, 1, 61, 127
2, 14400, Note_on_c, 1, 68, 127
2, 14400, Note_on_c, 1, 78, 127
2, 14400, Note_on_c, 1, 82, 127
2, 14400, Note_on_c, 1, 90, 127
2, 14600, Note_on_c, 1, 43, 127
2, 14600, Note_on_c, 1, 59, 127
2, 14600, Note_off_c, 1, 61, 0
2, 14600, Note_off_c, 1, 68, 0
2, 14600, Note_on_c, 1, 74, 127
2, 14600, Note_off_c, 1, 78, 0
2, 14600, Note_off_c, 1, 82, 0
2, 14600, Note_off_c, 1, 90, 0
2, 14640, Note_on_c, 1, 34, 127
2, 14640, Note_on_c, 1, 38, 127
2, 14640, Note_on_c, 1, 41, 127
2, 14640, Note_off_c, 1, 43, 0
2, 14640, Note_on_c, 1, 46, 127
2, 14640, Note_on_c, 1, 53, 127
2, 14640, Note_on_c, 1, 58, 127
2, 14640, Note_off_c, 1, 59, 0
2, 14640, Note_on_c, 1, 62, 127
2, 14640, Note_on_c, 1, 65, 127
2, 14640, Note_off_c, 1, 74, 0
2, 14680, Note_on_c, 1, 37, 127
2, 14680, Note_off_c, 1, 38, 0
2, 14680, Note_off_c, 1, 41, 0
2, 14680, Note_off_c, 1, 53, 0
2, 14680, Note_off_c, 1, 58, 0
2, 14680, Note_off_c, 1, 62, 0
2, 14680, Note_off_c, 1, 65, 0
2, 14680, Note_on_c, 1, 66, 127
2, 14720, Note_off_c, 1, 34, 0
2, 14720, Note_off_c, 1, 46, 0
2, 14720, Note_on_c, 1, 56, 127
2, 14720, Note_on_c, 1, 59, 127
2, 14720, Note_on_c, 1, 63, 127
2, 14720, Note_off_c, 1, 66, 0
2, 14720, Note_on_c, 1, 70, 127
2, 14760, Note_on_c, 1, 36, 127
2, 14760, Note_off_c, 1, 37, 0
2, 14760, Note_on_c, 1, 48, 127
2, 14760, Note_off_c, 1, 56, 0
2, 14760, Note_off_c, 1, 59, 0
2, 14760, Note_off_c, 1, 63, 0
2, 14760, Note_on_c, 1, 67, 127
2, 14760, Note_on_c, 1, 71, 127
2, 14800, Note_off_c, 1, 36, 0
2, 14800, Note_on_c, 1, 41, 127
2, 14800, Note_off_c, 1, 48, 0
2, 14800, Note_on_c, 1, 53, 127
2, 14800, Note_on_c, 1, 57, 127
2, 14800, Note_on_c, 1, 60, 127
2, 14800, Note_on_c, 1, 65, 127
2, 14800, Note_off_c, 1, 67, 0
2, 14800, Note_on_c, 1, 69, 127
2, 14800, Note_off_c, 1, 70, 0
2, 14800, Note_off_c, 1, 71, 0
2, 14840, Note_off_c, 1, 41, 0
2, 14840, Note_off_c, 1, 57, 0
2, 14840, Note_on_c, 1, 59, 127
2, 14840, Note_off_c, 1, 60, 0
2, 14840, Note_on_c, 1, 62, 127
2, 14840, Note_off_c, 1, 65, 0
2, 14840, Note_off_c, 1, 69, 0
2, 14840, Note_on_c, 1, 77, 127
2, 14840, Note_on_c, 1, 79, 127
2, 14880, Note_on_c, 1, 36, 127
2, 14880, Note_on_c, 1, 39, 127
2, 14880, Note_off_c, 1, 53, 0
2, 14880, Note_off_c, 1, 59, 0
2, 14880, Note_off_c, 1, 62, 0
2, 14880, Note_off_c, 1, 77, 0
2, 14880, Note_off_c, 1, 79, 0
2, 14920, Note_off_c, 1, 36, 0
2, 14920, Note_off_c, 1, 39, 0
2, 14920, Note_on_c, 1, 48, 127
2, 14920, Note_on_c, 1, 51, 127
2, 14920, Note_on_c, 1, 58, 127
2, 14920, Note_on_c, 1, 60, 127
2, 14960, Note_off_c, 1, 48, 0
2, 14960, Note_off_c, 1, 51, 0
2, 14960, Note_off_c, 1, 58, 0
2, 14960, Note_off_c, 1, 60, 0
2, 14960, Note_on_c, 1, 70, 127
2, 14960, Note_on_c, 1, 73, 127
2, 14960, Note_on_c, 1, 78, 127
2, 14960, Note_on_c, 1, 91, 127
2, 15000, Note_on_c, 1, 50, 127
2, 15000, Note_on_c, 1, 54, 127
2, 15000, Note_on_c, 1, 57, 127
2, 15000, Note_on_c, 1, 60, 127
2, 15000, Note_off_c, 1, 70, 0
2, 15000, Note_on_c, 1, 71, 127
2, 15000, Note_off_c, 1, 73, 0
2, 15000, Note_off_c, 1, 78, 0
2, 15000, Note_off_c, 1, 91, 0
2, 15040, Note_off_c, 1, 50, 0
2, 15040, Note_off_c, 1, 54, 0
2, 15040, Note_off_c, 1, 57, 0
2, 15040, Note_off_c, 1, 60, 0
2, 15040, Note_on_c, 1, 67, 127
2, 15040, Note_off_c, 1, 71, 0
2, 15040, Note_on_c, 1, 75, 127
2, 15040, Note_on_c, 1, 79, 127
2, 15040, Note_on_c, 1, 86, 127
2, 15040, Note_on_c, 1, 91, 127
2, 15080, Note_off_c, 1, 67, 0
2, 15080, Note_off_c, 1, 75, 0
2, 15080, Note_off_c, 1, 79, 0
2, 15080, Note_on_c, 1, 82, 127
2, 15080, Note_off_c, 1, 86, 0
2, 15080, Note_on_c, 1, 87, 127
2, 15080, Note_on_c, 1, 89, 127
2, 15080, Note_off_c, 1, 91, 0
2, 15120, Note_on_c, 1, 49, 127
2, 15120, Note_on_c, 1, 53, 127
2, 15120, Note_on_c, 1, 58, 127
2, 15120, Note_on_c, 1, 75, 127
2, 15120, Note_off_c, 1, 82, 0
2, 15120, Note_off_c, 1, 87, 0
2, 15120, Note_off_c, 1, 89, 0
2, 15160, Note_off_c, 1, 49, 0
2, 15160, Note_off_c, 1, 53, 0
2, 15160, Note_off_c, 1, 58, 0
2, 15160, Note_on_c, 1, 60, 127
2, 15160, Note_on_c, 1, 65, 127
2, 15160, Note_on_c, 1, 70, 127
2, 15160, Note_on_c, 1, 72, 127
2, 15160, Note_off_c, 1, 75, 0
2, 15160, Note_on_c, 1, 96, 127
2, 15200, Note_off_c, 1, 60, 0
2, 15200, Note_on_c, 1, 64, 127
2, 15200, Note_off_c, 1, 65, 0
2, 15200, Note_on_c, 1, 67, 127
2, 15200, Note_on_c, 1, 69, 127
2, 15200, Note_off_c, 1, 70, 0
2, 15200, Note_off_c, 1, 72, 0
2, 15200, Note_on_c, 1, 95, 127
2, 15200, Note_off_c, 1, 96, 0
2, 15240, Note_off_c, 1, 64, 0
2, 15240, Note_off_c, 1, 67, 0
2, 15240, Note_off_c, 1, 69, 0
2, 15240, Note_off_c, 1, 95, 0
2, 15280, Note_on_c, 1, 83, 127
2, 15280, Note_on_c, 1, 86, 127
2, 15320, Note_off_c, 1, 83, 0
2, 15320, Note_off_c, 1, 86, 0
2, 15360, Note_on_c, 1, 84, 127
2, 15520, Note_off_c, 1, 84, 0
2, 15560, Note_on_c, 1, 88, 127
2, 15640, Note_off_c, 1, 88, 0
2, 15680, Note_on_c, 1, 89, 127
2, 15760, Note_off_c, 1, 89, 0
2, 15800, Note_on_c, 1, 88, 127
2, 15880, Note_off_c, 1, 88, 0
2, 15920, Note_on_c, 1, 89, 127
2, 16000, Note_off_c, 1, 89, 0
2, 16040, Note_on_c, 1, 88, 127
2, 16080, Note_on_c, 1, 57, 127
2, 16080, Note_on_c, 1, 60, 127
2, 16080, Note_on_c, 1, 63, 127
2, 16080, Note_on_c, 1, 72, 127
2, 16080, Note_on_c, 1, 78, 127
2, 16080, Note_on_c, 1, 83, 127
2, 16080, Note_off_c, 1, 88, 0
2, 16120, Note_on_c, 1, 53, 127
2, 16120, Note_off_c, 1, 57, 0
2, 16120, Note_on_c, 1, 58, 127
2, 16120, Note_on_c, 1, 67, 127
2, 16120, Note_off_c, 1, 78, 0
2, 16120, Note_on_c, 1, 79, 127
2, 16120, Note_off_c, 1, 83, 0
2, 16160, Note_off_c, 1, 53, 0
2, 16160, Note_off_c, 1, 58, 0
2, 16160, Note_off_c, 1, 60, 0
2, 16160, Note_off_c, 1, 63, 0
2, 16160, Note_off_c, 1, 67, 0
2, 16160, Note_off_c, 1, 72, 0
2, 16160, Note_off_c, 1, 79, 0
2, 16200, Note_on_c, 1, 60, 127
2, 16200, Note_on_c, 1, 64, 127
2, 16200, Note_on_c, 1, 86, 127
2, 16280, Note_off_c, 1, 60, 0
2, 16280, Note_off_c, 1, 64, 0
2, 16280, Note_off_c, 1, 86, 0
2, 16320, Note_on_c, 1, 58, 127
2, 16320, Note_on_c, 1, 60, 127
2, 16320, Note_on_c, 1, 64, 127
2, 16360, Note_off_c, 1, 58, 0
2, 16360, Note_on_c, 1, 87, 127
2, 16400, Note_on_c, 1, 38, 127
2, 16400, Note_on_c, 1, 57, 127
2, 16400, Note_on_c, 1, 62, 127
2, 16400, Note_off_c, 1, 64, 0
2, 16400, Note_on_c, 1, 66, 127
2, 16400, Note_off_c, 1, 87, 0
2, 16440, Note_off_c, 1, 38, 0
2, 16440, Note_off_c, 1, 57, 0
2, 16440, Note_off_c, 1, 60, 0
2, 16440, Note_off_c, 1, 62, 0
2, 16440, Note_off_c, 1, 66, 0
2, 16480, Note_on_c, 1, 60, 127
2, 16480, Note_on_c, 1, 64, 127
2, 16480, Note_on_c, 1, 69, 127
2, 16480, Note_on_c, 1, 88, 127
2, 16520, Note_on_c, 1, 57, 127
2, 16520, Note_off_c, 1, 60, 0
2, 16520, Note_off_c, 1, 64, 0
2, 16520, Note_off_c, 1, 69, 0
2, 16520, Note_on_c, 1, 76, 127
2, 16520, Note_on_c, 1, 81, 127
2, 16520, Note_on_c, 1, 84, 127
2, 16520, Note_off_c, 1, 88, 0
2, 16560, Note_off_c, 1, 57, 0
2, 16560, Note_on_c, 1, 60, 127
2, 16560, Note_on_c, 1, 64, 127
2, 16560, Note_on_c, 1, 69, 127
2, 16560, Note_off_c, 1, 76, 0
2, 16560, Note_off_c, 1, 81, 0
2, 16560, Note_off_c, 1, 84, 0
2, 16600, Note_off_c, 1, 60, 0
2, 16600, Note_on_c, 1, 67, 127
2, 16600, Note_off_c, 1, 69, 0
2, 16600, Note_on_c, 1, 88, 127
2, 16640, Note_off_c, 1, 64, 0
2, 16640, Note_off_c, 1, 67, 0
2, 16640, Note_on_c, 1, 69, 127
2, 16640, Note_on_c, 1, 71, 127
2, 16640, Note_on_c, 1, 86, 127
2, 16640, Note_off_c, 1, 88, 0
2, 16680, Note_on_c, 1, 55, 127
2, 16680, Note_on_c, 1, 62, 127
2, 16680, Note_on_c, 1, 67, 127
2, 16680, Note_off_c, 1, 69, 0
2, 16680, Note_off_c, 1, 71, 0
2, 16680, Note_off_c, 1, 86, 0
2, 16680, Note_on_c, 1, 94, 127
2, 16720, Note_off_c, 1, 55, 0
2, 16720, Note_off_c, 1, 62, 0
2, 16720, Note_off_c, 1, 67, 0
2, 16720, Note_off_c, 1, 94, 0
2, 16760, Note_on_c, 1, 60, 127
2, 16760, Note_on_c, 1, 69, 127
2, 16760, Note_on_c, 1, 72, 127
2, 16760, Note_on_c, 1, 79, 127
2, 16840, Note_off_c, 1, 60, 0
2, 16840, Note_on_c, 1, 64, 127
2, 16840, Note_on_c, 1, 67, 127
2, 16840, Note_off_c, 1, 72, 0
2, 16840, Note_off_c, 1, 79, 0
2, 16880, Note_on_c, 1, 60, 127
2, 16880, Note_off_c, 1, 64, 0
2, 16880, Note_off_c, 1, 69, 0
2, 16880, Note_on_c, 1, 75, 127
2, 16880, Note_on_c, 1, 79, 127
2, 16880, Note_on_c, 1, 84, 127
2, 16960, Note_on_c, 1, 57, 127
2, 16960, Note_off_c, 1, 60, 0
2, 16960, Note_on_c, 1, 65, 127
2, 16960, Note_off_c, 1, 67, 0
2, 16960, Note_on_c, 1, 72, 127
2, 16960, Note_off_c, 1, 75, 0
2, 16960, Note_off_c, 1, 84, 0
2, 17000, Note_on_c, 1, 38, 127
2, 17000, Note_off_c, 1, 57, 0
2, 17000, Note_off_c, 1, 65, 0
2, 17000, Note_off_c, 1, 72, 0
2, 17000, Note_off_c, 1, 79, 0
2, 17000, Note_on_c, 1, 81, 127
2, 17000, Note_on_c, 1, 84, 127
2, 17000, Note_on_c, 1, 93, 127
2, 17080, Note_off_c, 1, 38, 0
2, 17120, Note_on_c, 1, 58, 127
2, 17120, Note_on_c, 1, 77, 127
2, 17120, Note_off_c, 1, 81, 0
2, 17120, Note_off_c, 1, 84, 0
2, 17120, Note_on_c, 1, 85, 127
2, 17120, Note_off_c, 1, 93, 0
2, 17200, Note_off_c, 1, 58, 0
2, 17200, Note_off_c, 1, 77, 0
2, 17200, Note_off_c, 1, 85, 0
2, 17240, Note_on_c, 1, 53, 127
2, 17240, Note_on_c, 1, 81, 127
2, 17320, Note_off_c, 1, 81, 0
2, 17360, Note_off_c, 1, 53, 0
2, 17360, Note_on_c, 1, 55, 127
2, 17360, Note_on_c, 1, 58, 127
2, 17360, Note_on_c, 1, 77, 127
2, 17360, Note_on_c, 1, 80, 127
2, 17400, Note_on_c, 1, 43, 127
2, 17400, Note_off_c, 1, 58, 0
2, 17400, Note_on_c, 1, 62, 127
2, 17400, Note_on_c, 1, 69, 127
2, 17400, Note_on_c, 1, 72, 127
2, 17400, Note_off_c, 1, 77, 0
2, 17400, Note_off_c, 1, 80, 0
2, 17480, Note_off_c, 1, 43, 0
2, 17480, Note_off_c, 1, 55, 0
2, 17480, Note_off_c, 1, 62, 0
2, 17480, Note_on_c, 1, 63, 127
2, 17480, Note_off_c, 1, 69, 0
2, 17480, Note_off_c, 1, 72, 0
2, 17480, Note_on_c, 1, 79, 127
2, 17480, Note_on_c, 1, 91, 127
2, 17520, Note_on_c, 1, 29, 127
2, 17520, Note_on_c, 1, 41, 127
2, 17520, Note_on_c, 1, 62, 127
2, 17520, Note_off_c, 1, 63, 0
2, 17520, Note_on_c, 1, 68, 127
2, 17520, Note_on_c, 1, 72, 127
2, 17520, Note_off_c, 1, 79, 0
2, 17520, Note_off_c, 1, 91, 0
2, 17560, Note_off_c, 1, 29, 0
2, 17560, Note_off_c, 1, 41, 0
2, 17560, Note_on_c, 1, 57, 127
2, 17560, Note_on_c, 1, 60, 127
2, 17560, Note_off_c, 1, 62, 0
2, 17560, Note_on_c, 1, 65, 127
2, 17560, Note_off_c, 1, 68, 0
2, 17560, Note_on_c, 1, 69, 127
2, 17560, Note_off_c, 1, 72, 0
2, 17560, Note_on_c, 1, 91, 127
2, 17600, Note_on_c, 1, 29, 127
2, 17600, Note_on_c, 1, 41, 127
2, 17600, Note_off_c, 1, 57, 0
2, 17600, Note_off_c, 1, 60, 0
2, 17600, Note_on_c, 1, 62, 127
2, 17600, Note_off_c, 1, 65, 0
2, 17600, Note_on_c, 1, 68, 127
2, 17600, Note_off_c, 1, 69, 0
2, 17600, Note_on_c, 1, 72, 127
2, 17600, Note_off_c, 1, 91, 0
2, 17640, Note_off_c, 1, 29, 0
2, 17640, Note_off_c, 1, 41, 0
2, 17640, Note_on_c, 1, 55, 127
2, 17640, Note_on_c, 1, 60, 127
2, 17640, Note_off_c, 1, 62, 0
2, 17640, Note_on_c, 1, 67, 127
2, 17640, Note_off_c, 1, 68, 0
2, 17640, Note_off_c, 1, 72, 0
2, 17640, Note_on_c, 1, 88, 127
2, 17680, Note_off_c, 1, 60, 0
2, 17680, Note_on_c, 1, 63, 127
2, 17680, Note_off_c, 1, 67, 0
2, 17680, Note_on_c, 1, 69, 127
2, 17680, Note_on_c, 1, 78, 127
2, 17680, Note_off_c, 1, 88, 0
2, 17720, Note_on_c, 1, 60, 127
2, 17720, Note_off_c, 1, 63, 0
2, 17720, Note_on_c, 1, 67, 127
2, 17720, Note_off_c, 1, 69, 0
2, 17720, Note_off_c, 1, 78, 0
2, 17760, Note_on_c, 1, 44, 127
2, 17760, Note_off_c, 1, 55, 0
2, 17760, Note_on_c, 1, 56, 127
2, 17760, Note_off_c, 1, 60, 0
2, 17760, Note_on_c, 1, 72, 127
2, 17760, Note_on_c, 1, 79, 127
2, 17960, Note_off_c, 1, 44, 0
2, 17960, Note_off_c, 1, 56, 0
2, 17960, Note_on_c, 1, 63, 127
2, 17960, Note_off_c, 1, 67, 0
2, 17960, Note_on_c, 1, 68, 127
2, 17960, Note_off_c, 1, 79, 0
2, 18000, Note_on_c, 1, 56, 127
2, 18000, Note_on_c, 1, 59, 127
2, 18000, Note_on_c, 1, 62, 127
2, 18000, Note_off_c, 1, 63, 0
2, 18000, Note_on_c, 1, 65, 127
2, 18000, Note_off_c, 1, 68, 0
2, 18000, Note_off_c, 1, 72, 0
2, 18000, Note_on_c, 1, 77, 127
2, 18240, Note_off_c, 1, 77, 0
2, 18280, Note_off_c, 1, 56, 0
2, 18280, Note_on_c, 1, 57, 127
2, 18280, Note_off_c, 1, 59, 0
2, 18280, Note_on_c, 1, 60, 127
2, 18280, Note_off_c, 1, 62, 0
2, 18280, Note_on_c, 1, 63, 127
2, 18280, Note_off_c, 1, 65, 0
2, 18280, Note_on_c, 1, 76, 127
2, 18360, Note_off_c, 1, 57, 0
2, 18360, Note_off_c, 1, 60, 0
2, 18360, Note_off_c, 1, 63, 0
2, 18360, Note_off_c, 1, 76, 0
2, 18400, Note_on_c, 1, 57, 127
2, 18400, Note_on_c, 1, 60, 127
2, 18400, Note_on_c, 1, 63, 127
2, 18440, Note_on_c, 1, 78, 127
2, 18520, Note_off_c, 1, 57, 0
2, 18520, Note_off_c, 1, 60, 0
2, 18520, Note_off_c, 1, 63, 0
2, 18520, Note_off_c, 1, 78, 0
2, 18560, Note_on_c, 1, 60, 127
2, 18560, Note_on_c, 1, 64, 127
2, 18560, Note_on_c, 1, 76, 127
2, 18960, Note_on_c, 1, 52, 127
2, 19000, Note_off_c, 1, 76, 0
2, 19040, Note_off_c, 1, 52, 0
2, 19040, Note_off_c, 1, 60, 0
2, 19040, Note_off_c, 1, 64, 0
2, 19080, Note_on_c, 1, 50, 127
2, 19080, Note_on_c, 1, 59, 127
2, 19080, Note_on_c, 1, 67, 127
2, 19800, Note_off_c, 1, 67, 0
2, 19840, Note_off_c, 1, 50, 0
2, 19840, Note_off_c, 1, 59, 0
2, 19840, Note_on_c, 1, 60, 127
2, 19840, Note_on_c, 1, 62, 127
2, 19840, Note_on_c, 1, 69, 127
2, 19840, Note_on_c, 1, 82, 127
2, 19880, Note_on_c, 1, 45, 127
2, 19880, Note_off_c, 1, 60, 0
2, 19880, Note_on_c, 1, 66, 127
2, 19880, Note_on_c, 1, 74, 127
2, 19880, Note_on_c, 1, 78, 127
2, 19880, Note_on_c, 1, 81, 127
2, 19880, Note_off_c, 1, 82, 0
2, 19880, Note_on_c, 1, 86, 127
2, 19880, Note_on_c, 1, 90, 127
2, 19880, Note_on_c, 1, 93, 127
2, 19920, Note_off_c, 1, 45, 0
2, 19920, Note_on_c, 1, 60, 127
2, 19920, Note_off_c, 1, 66, 0
2, 19920, Note_off_c, 1, 74, 0
2, 19920, Note_off_c, 1, 78, 0
2, 19920, Note_off_c, 1, 81, 0
2, 19920, Note_on_c, 1, 82, 127
2, 19920, Note_off_c, 1, 86, 0
2, 19920, Note_off_c, 1, 90, 0
2, 19920, Note_off_c, 1, 93, 0
2, 20080, Note_off_c, 1, 60, 0
2, 20080, Note_off_c, 1, 62, 0
2, 20080, Note_off_c, 1, 69, 0
2, 20080, Note_off_c, 1, 82, 0
2, 20120, Note_on_c, 1, 43, 127
2, 20120, Note_on_c, 1, 50, 127
2, 20120, Note_on_c, 1, 58, 127
2, 20120, Note_on_c, 1, 67, 127
2, 20480, Note_off_c, 1, 43, 0
2, 20480, Note_off_c, 1, 50, 0
2, 20480, Note_off_c, 1, 58, 0
2, 20480, Note_off_c, 1, 67, 0
2, 20680, Note_on_c, 1, 59, 127
2, 20680, Note_on_c, 1, 67, 127
2, 20680, Note_on_c, 1, 76, 127
2, 20880, Note_off_c, 1, 59, 0
2, 20880, Note_off_c, 1, 67, 0
2, 20880, Note_off_c, 1, 76, 0
2, 20920, Note_on_c, 1, 60, 127
2, 20920, Note_on_c, 1, 67, 127
2, 20920, Note_on_c, 1, 75, 127
2, 21160, Note_off_c, 1, 60, 0
2, 21160, Note_off_c, 1, 67, 0
2, 21160, Note_off_c, 1, 75, 0
2, 21200, Note_on_c, 1, 58, 127
2, 21200, Note_on_c, 1, 65, 127
2, 21200, Note_on_c, 1, 73, 127
2, 21400, Note_off_c, 1, 58, 0
2, 21400, Note_off_c, 1, 65, 0
2, 21400, Note_off_c, 1, 73, 0
2, 21440, Note_on_c, 1, 58, 127
2, 21440, Note_on_c, 1, 67, 127
2, 21440, Note_on_c, 1, 73, 127
2, 21680, Note_off_c, 1, 58, 0
2, 21680, Note_off_c, 1, 67, 0
2, 21680, Note_off_c, 1, 73, 0
2, 21720, Note_on_c, 1, 58, 127
2, 21720, Note_on_c, 1, 67, 127
2, 21720, Note_on_c, 1, 74, 127
2, 21920, Note_off_c, 1, 67, 0
2, 21920, Note_off_c, 1, 74, 0
2, 21960, Note_on_c, 1, 65, 127
2, 21960, Note_on_c, 1, 74, 127
2, 22200, Note_off_c, 1, 58, 0
2, 22200, Note_off_c, 1, 65, 0
2, 22200, Note_off_c, 1, 74, 0
2, 22240, Note_on_c, 1, 51, 127
2, 22240, Note_on_c, 1, 60, 127
2, 22240, Note_on_c, 1, 77, 127
2, 22320, Note_off_c, 1, 77, 0
2, 22360, Note_on_c, 1, 74, 127
2, 22440, Note_off_c, 1, 51, 0
2, 22440, Note_off_c, 1, 60, 0
2, 22440, Note_off_c, 1, 74, 0
2, 22480, Note_on_c, 1, 53, 127
2, 22480, Note_on_c, 1, 60, 127
2, 22480, Note_on_c, 1, 89, 127
2, 22520, Note_off_c, 1, 53, 0
2, 22520, Note_off_c, 1, 60, 0
2, 22520, Note_off_c, 1, 89, 0
2, 22560, Note_on_c, 1, 53, 127
2, 22560, Note_on_c, 1, 60, 127
2, 22560, Note_on_c, 1, 89, 127
2, 22640, Note_off_c, 1, 60, 0
2, 22640, Note_on_c, 1, 84, 127
2, 22640, Note_off_c, 1, 89, 0
2, 22680, Note_off_c, 1, 53, 0
2, 22680, Note_on_c, 1, 55, 127
2, 22680, Note_on_c, 1, 62, 127
2, 22680, Note_off_c, 1, 84, 0
2, 22680, Note_on_c, 1, 90, 127
2, 22720, Note_off_c, 1, 55, 0
2, 22720, Note_on_c, 1, 61, 127
2, 22720, Note_off_c, 1, 62, 0
2, 22720, Note_on_c, 1, 69, 127
2, 22720, Note_on_c, 1, 86, 127
2, 22720, Note_off_c, 1, 90, 0
2, 22760, Note_on_c, 1, 60, 127
2, 22760, Note_off_c, 1, 61, 0
2, 22760, Note_off_c, 1, 69, 0
2, 22760, Note_on_c, 1, 72, 127
2, 22760, Note_off_c, 1, 86, 0
2, 22760, Note_on_c, 1, 96, 127
2, 22800, Note_on_c, 1, 67, 127
2, 22800, Note_off_c, 1, 72, 0
2, 22800, Note_on_c, 1, 76, 127
2, 22800, Note_on_c, 1, 82, 127
2, 22800, Note_on_c, 1, 84, 127
2, 22800, Note_on_c, 1, 88, 127
2, 22800, Note_off_c, 1, 96, 0
2, 22840, Note_off_c, 1, 67, 0
2, 22840, Note_on_c, 1, 72, 127
2, 22840, Note_off_c, 1, 76, 0
2, 22840, Note_off_c, 1, 82, 0
2, 22840, Note_off_c, 1, 84, 0
2, 22840, Note_off_c, 1, 88, 0
2, 22840, Note_on_c, 1, 96, 127
2, 22920, Note_on_c, 1, 43, 127
2, 22920, Note_on_c, 1, 59, 127
2, 22920, Note_off_c, 1, 60, 0
2, 22920, Note_on_c, 1, 67, 127
2, 22920, Note_on_c, 1, 71, 127
2, 22920, Note_off_c, 1, 72, 0
2, 22920, Note_on_c, 1, 74, 127
2, 22920, Note_off_c, 1, 96, 0
2, 22960, Note_off_c, 1, 43, 0
2, 22960, Note_off_c, 1, 59, 0
2, 22960, Note_on_c, 1, 65, 127
2, 22960, Note_off_c, 1, 67, 0
2, 22960, Note_on_c, 1, 68, 127
2, 22960, Note_off_c, 1, 71, 0
2, 22960, Note_on_c, 1, 72, 127
2, 22960, Note_on_c, 1, 80, 127
2, 22960, Note_on_c, 1, 89, 127
2, 23000, Note_on_c, 1, 44, 127
2, 23000, Note_on_c, 1, 51, 127
2, 23000, Note_on_c, 1, 60, 127
2, 23000, Note_on_c, 1, 62, 127
2, 23000, Note_off_c, 1, 65, 0
2, 23000, Note_off_c, 1, 68, 0
2, 23000, Note_off_c, 1, 74, 0
2, 23000, Note_off_c, 1, 80, 0
2, 23000, Note_off_c, 1, 89, 0
2, 23040, Note_off_c, 1, 44, 0
2, 23040, Note_off_c, 1, 51, 0
2, 23040, Note_off_c, 1, 60, 0
2, 23040, Note_off_c, 1, 62, 0
2, 23040, Note_off_c, 1, 72, 0
2, 23040, Note_on_c, 1, 82, 127
2, 23080, Note_on_c, 1, 54, 127
2, 23080, Note_on_c, 1, 72, 127
2, 23080, Note_off_c, 1, 82, 0
2, 23080, Note_on_c, 1, 84, 127
2, 23120, Note_off_c, 1, 54, 0
2, 23120, Note_on_c, 1, 57, 127
2, 23160, Note_off_c, 1, 57, 0
2, 23200, Note_on_c, 1, 53, 127
2, 23280, Note_off_c, 1, 53, 0
2, 23320, Note_on_c, 1, 53, 127
2, 23320, Note_on_c, 1, 57, 127
2, 23320, Note_on_c, 1, 65, 127
2, 23560, Note_off_c, 1, 53, 0
2, 23560, Note_off_c, 1, 57, 0
2, 23560, Note_off_c, 1, 65, 0
2, 23600, Note_on_c, 1, 53, 127
2, 23600, Note_on_c, 1, 57, 127
2, 23600, Note_on_c, 1, 65, 127
2, 23600, Note_off_c, 1, 72, 0
2, 23600, Note_on_c, 1, 77, 127
2, 23600, Note_off_c, 1, 84, 0
2, 23600, Note_on_c, 1, 89, 127
2, 23800, Note_off_c, 1, 53, 0
2, 23800, Note_off_c, 1, 57, 0
2, 23800, Note_off_c, 1, 65, 0
2, 23840, Note_on_c, 1, 41, 127
2, 23840, Note_on_c, 1, 76, 127
2, 23840, Note_off_c, 1, 77, 0
2, 23840, Note_on_c, 1, 84, 127
2, 23840, Note_off_c, 1, 89, 0
2, 23880, Note_off_c, 1, 41, 0
2, 23880, Note_on_c, 1, 55, 127
2, 23880, Note_on_c, 1, 64, 127
2, 23880, Note_off_c, 1, 76, 0
2, 23880, Note_off_c, 1, 84, 0
2, 23880, Note_on_c, 1, 91, 127
2, 23920, Note_on_c, 1, 52, 127
2, 23920, Note_on_c, 1, 82, 127
2, 23920, Note_on_c, 1, 87, 127
2, 23920, Note_off_c, 1, 91, 0
2, 23960, Note_on_c, 1, 60, 127
2, 23960, Note_off_c, 1, 64, 0
2, 23960, Note_on_c, 1, 81, 127
2, 23960, Note_off_c, 1, 82, 0
2, 23960, Note_off_c, 1, 87, 0
2, 24000, Note_on_c, 1, 43, 127
2, 24000, Note_off_c, 1, 52, 0
2, 24000, Note_off_c, 1, 55, 0
2, 24000, Note_off_c, 1, 60, 0
2, 24000, Note_on_c, 1, 80, 127
2, 24000, Note_off_c, 1, 81, 0
2, 24000, Note_on_c, 1, 89, 127
2, 24000, Note_on_c, 1, 92, 127
2, 24040, Note_off_c, 1, 43, 0
2, 24040, Note_on_c, 1, 57, 127
2, 24040, Note_on_c, 1, 60, 127
2, 24040, Note_on_c, 1, 64, 127
2, 24040, Note_off_c, 1, 80, 0
2, 24040, Note_on_c, 1, 86, 127
2, 24040, Note_off_c, 1, 89, 0
2, 24040, Note_off_c, 1, 92, 0
2, 24080, Note_off_c, 1, 57, 0
2, 24080, Note_off_c, 1, 60, 0
2, 24080, Note_off_c, 1, 64, 0
2, 24080, Note_on_c, 1, 84, 127
2, 24080, Note_off_c, 1, 86, 0
2, 24120, Note_on_c, 1, 38, 127
2, 24120, Note_on_c, 1, 45, 127
2, 24120, Note_on_c, 1, 50, 127
2, 24120, Note_off_c, 1, 84, 0
2, 24120, Note_on_c, 1, 89, 127
2, 24320, Note_off_c, 1, 38, 0
2, 24320, Note_off_c, 1, 45, 0
2, 24320, Note_off_c, 1, 50, 0
2, 24320, Note_off_c, 1, 89, 0
2, 24360, Note_on_c, 1, 38, 127
2, 24360, Note_on_c, 1, 45, 127
2, 24360, Note_on_c, 1, 50, 127
2, 24360, Note_on_c, 1, 91, 127
2, 24600, Note_off_c, 1, 38, 0
2, 24600, Note_off_c, 1, 45, 0
2, 24600, Note_off_c, 1, 50, 0
2, 24600, Note_off_c, 1, 91, 0
2, 24680, Note_on_c, 1, 57, 127
2, 24680, Note_on_c, 1, 69, 127
2, 24680, Note_on_c, 1, 79, 127
2, 24680, Note_on_c, 1, 88, 127
2, 24800, Note_on_c, 1, 50, 127
2, 24800, Note_on_c, 1, 53, 127
2, 24800, Note_on_c, 1, 56, 127
2, 24800, Note_off_c, 1, 57, 0
2, 24800, Note_on_c, 1, 58, 127
2, 24800, Note_off_c, 1, 69, 0
2, 24800, Note_off_c, 1, 88, 0
2, 24840, Note_off_c, 1, 50, 0
2, 24840, Note_off_c, 1, 53, 0
2, 24840, Note_off_c, 1, 56, 0
2, 24840, Note_on_c, 1, 57, 127
2, 24840, Note_off_c, 1, 58, 0
2, 24840, Note_on_c, 1, 69, 127
2, 24840, Note_on_c, 1, 88, 127
2, 24880, Note_on_c, 1, 62, 127
2, 24880, Note_off_c, 1, 69, 0
2, 24880, Note_off_c, 1, 79, 0
2, 24880, Note_off_c, 1, 88, 0
2, 24920, Note_on_c, 1, 55, 127
2, 24920, Note_off_c, 1, 57, 0
2, 24920, Note_off_c, 1, 62, 0
2, 24920, Note_on_c, 1, 72, 127
2, 24920, Note_on_c, 1, 88, 127
2, 25160, Note_off_c, 1, 55, 0
2, 25160, Note_off_c, 1, 72, 0
2, 25160, Note_off_c, 1, 88, 0
2, 25200, Note_on_c, 1, 60, 127
2, 25200, Note_on_c, 1, 69, 127
2, 25200, Note_on_c, 1, 77, 127
2, 25400, Note_off_c, 1, 60, 0
2, 25400, Note_off_c, 1, 69, 0
2, 25400, Note_off_c, 1, 77, 0
2, 25440, Note_on_c, 1, 58, 127
2, 25440, Note_on_c, 1, 62, 127
2, 25440, Note_on_c, 1, 70, 127
2, 25440, Note_on_c, 1, 77, 127
2, 25680, Note_off_c, 1, 58, 0
2, 25680, Note_off_c, 1, 62, 0
2, 25680, Note_off_c, 1, 70, 0
2, 25680, Note_off_c, 1, 77, 0
2, 25720, Note_on_c, 1, 62, 127
2, 25720, Note_on_c, 1, 69, 127
2, 25720, Note_on_c, 1, 81, 127
2, 25720, Note_on_c, 1, 85, 127
2, 25760, Note_on_c, 1, 46, 127
2, 25760, Note_on_c, 1, 56, 127
2, 25760, Note_on_c, 1, 61, 127
2, 25760, Note_off_c, 1, 62, 0
2, 25760, Note_on_c, 1, 65, 127
2, 25760, Note_off_c, 1, 69, 0
2, 25760, Note_on_c, 1, 70, 127
2, 25760, Note_off_c, 1, 81, 0
2, 25760, Note_off_c, 1, 85, 0
2, 25800, Note_on_c, 1, 49, 127
2, 25800, Note_off_c, 1, 56, 0
2, 25800, Note_off_c, 1, 65, 0
2, 25800, Note_on_c, 1, 66, 127
2, 25800, Note_off_c, 1, 70, 0
2, 25840, Note_off_c, 1, 46, 0
2, 25840, Note_off_c, 1, 49, 0
2, 25840, Note_on_c, 1, 59, 127
2, 25840, Note_off_c, 1, 61, 0
2, 25840, Note_on_c, 1, 64, 127
2, 25840, Note_off_c, 1, 66, 0
2, 25840, Note_on_c, 1, 70, 127
2, 25840, Note_on_c, 1, 84, 127
2, 25880, Note_on_c, 1, 45, 127
2, 25880, Note_on_c, 1, 50, 127
2, 25880, Note_on_c, 1, 55, 127
2, 25880, Note_on_c, 1, 62, 127
2, 25880, Note_off_c, 1, 64, 0
2, 25880, Note_off_c, 1, 70, 0
2, 25880, Note_off_c, 1, 84, 0
2, 25920, Note_off_c, 1, 45, 0
2, 25920, Note_off_c, 1, 50, 0
2, 25920, Note_off_c, 1, 55, 0
2, 25920, Note_off_c, 1, 59, 0
2, 25920, Note_off_c, 1, 62, 0
2, 25960, Note_on_c, 1, 36, 127
2, 25960, Note_on_c, 1, 43, 127
2, 25960, Note_on_c, 1, 74, 127
2, 25960, Note_on_c, 1, 78, 127
2, 26040, Note_off_c, 1, 36, 0
2, 26040, Note_off_c, 1, 43, 0
2, 26040, Note_on_c, 1, 58, 127
2, 26040, Note_on_c, 1, 67, 127
2, 26040, Note_off_c, 1, 74, 0
2, 26040, Note_on_c, 1, 77, 127
2, 26040, Note_off_c, 1, 78, 0
2, 26040, Note_on_c, 1, 82, 127
2, 26080, Note_on_c, 1, 36, 127
2, 26080, Note_on_c, 1, 43, 127
2, 26080, Note_off_c, 1, 58, 0
2, 26080, Note_off_c, 1, 67, 0
2, 26080, Note_on_c, 1, 74, 127
2, 26080, Note_off_c, 1, 77, 0
2, 26080, Note_on_c, 1, 78, 127
2, 26080, Note_off_c, 1, 82, 0
2, 26160, Note_off_c, 1, 36, 0
2, 26160, Note_off_c, 1, 43, 0
2, 26160, Note_off_c, 1, 74, 0
2, 26160, Note_off_c, 1, 78, 0
2, 26200, Note_on_c, 1, 38, 127
2, 26200, Note_on_c, 1, 65, 127
2, 26200, Note_on_c, 1, 76, 127
2, 26200, Note_on_c, 1, 77, 127
2, 26240, Note_off_c, 1, 38, 0
2, 26240, Note_on_c, 1, 55, 127
2, 26240, Note_off_c, 1, 65, 0
2, 26240, Note_off_c, 1, 76, 0
2, 26240, Note_off_c, 1, 77, 0
2, 26240, Note_on_c, 1, 86, 127
2, 26240, Note_on_c, 1, 93, 127
2, 26280, Note_off_c, 1, 55, 0
2, 26280, Note_on_c, 1, 64, 127
2, 26280, Note_on_c, 1, 71, 127
2, 26280, Note_on_c, 1, 74, 127
2, 26280, Note_on_c, 1, 83, 127
2, 26280, Note_on_c, 1, 84, 127
2, 26280, Note_off_c, 1, 86, 0
2, 26280, Note_off_c, 1, 93, 0
2, 26320, Note_on_c, 1, 39, 127
2, 26320, Note_on_c, 1, 51, 127
2, 26320, Note_on_c, 1, 63, 127
2, 26320, Note_off_c, 1, 64, 0
2, 26320, Note_off_c, 1, 74, 0
2, 26320, Note_on_c, 1, 75, 127
2, 26320, Note_off_c, 1, 83, 0
2, 26320, Note_off_c, 1, 84, 0
2, 26360, Note_on_c, 1, 38, 127
2, 26360, Note_off_c, 1, 39, 0
2, 26360, Note_on_c, 1, 50, 127
2, 26360, Note_off_c, 1, 51, 0
2, 26360, Note_off_c, 1, 63, 0
2, 26360, Note_off_c, 1, 75, 0
2, 26360, Note_on_c, 1, 77, 127
2, 26360, Note_on_c, 1, 83, 127
2, 26400, Note_off_c, 1, 38, 0
2, 26400, Note_off_c, 1, 50, 0
2, 26400, Note_on_c, 1, 64, 127
2, 26400, Note_off_c, 1, 71, 0
2, 26400, Note_off_c, 1, 83, 0
2, 26400, Note_on_c, 1, 84, 127
2, 26400, Note_on_c, 1, 87, 127
2, 26400, Note_on_c, 1, 89, 127
2, 26480, Note_off_c, 1, 77, 0
2, 26480, Note_off_c, 1, 84, 0
2, 26480, Note_on_c, 1, 86, 127
2, 26480, Note_off_c, 1, 87, 0
2, 26480, Note_off_c, 1, 89, 0
2, 26520, Note_on_c, 1, 54, 127
2, 26520, Note_on_c, 1, 58, 127
2, 26520, Note_on_c, 1, 67, 127
2, 26520, Note_on_c, 1, 73, 127
2, 26520, Note_on_c, 1, 79, 127
2, 26520, Note_off_c, 1, 86, 0
2, 26720, Note_off_c, 1, 54, 0
2, 26720, Note_off_c, 1, 58, 0
2, 26720, Note_on_c, 1, 63, 127
2, 26720, Note_off_c, 1, 64, 0
2, 26720, Note_off_c, 1, 67, 0
2, 26720, Note_off_c, 1, 73, 0
2, 26720, Note_off_c, 1, 79, 0
2, 26760, Note_on_c, 1, 34, 127
2, 26760, Note_on_c, 1, 41, 127
2, 26760, Note_on_c, 1, 53, 127
2, 26760, Note_off_c, 1, 63, 0
2, 26760, Note_on_c, 1, 72, 127
2, 26760, Note_on_c, 1, 74, 127
2, 26760, Note_on_c, 1, 77, 127
2, 26800, Note_off_c, 1, 34, 0
2, 26800, Note_off_c, 1, 41, 0
2, 26800, Note_on_c, 1, 45, 127
2, 26800, Note_on_c, 1, 52, 127
2, 26800, Note_off_c, 1, 53, 0
2, 26800, Note_on_c, 1, 60, 127
2, 26800, Note_on_c, 1, 64, 127
2, 26800, Note_on_c, 1, 71, 127
2, 26800, Note_off_c, 1, 72, 0
2, 26800, Note_off_c, 1, 74, 0
2, 26800, Note_off_c, 1, 77, 0
2, 26840, Note_on_c, 1, 34, 127
2, 26840, Note_on_c, 1, 41, 127
2, 26840, Note_off_c, 1, 45, 0
2, 26840, Note_off_c, 1, 52, 0
2, 26840, Note_on_c, 1, 53, 127
2, 26840, Note_off_c, 1, 60, 0
2, 26840, Note_off_c, 1, 64, 0
2, 26840, Note_off_c, 1, 71, 0
2, 26840, Note_on_c, 1, 72, 127
2, 26840, Note_on_c, 1, 74, 127
2, 26840, Note_on_c, 1, 77, 127
2, 26880, Note_off_c, 1, 34, 0
2, 26880, Note_off_c, 1, 41, 0
2, 26880, Note_off_c, 1, 53, 0
2, 26880, Note_on_c, 1, 55, 127
2, 26880, Note_on_c, 1, 69, 127
2, 26880, Note_off_c, 1, 77, 0
2, 26920, Note_on_c, 1, 54, 127
2, 26920, Note_off_c, 1, 55, 0
2, 26920, Note_on_c, 1, 59, 127
2, 26920, Note_on_c, 1, 63, 127
2, 26920, Note_off_c, 1, 69, 0
2, 26920, Note_on_c, 1, 71, 127
2, 26920, Note_off_c, 1, 72, 0
2, 26920, Note_off_c, 1, 74, 0
2, 26920, Note_on_c, 1, 80, 127
2, 26960, Note_off_c, 1, 54, 0
2, 26960, Note_off_c, 1, 59, 0
2, 26960, Note_on_c, 1, 61, 127
2, 26960, Note_off_c, 1, 63, 0
2, 26960, Note_on_c, 1, 68, 127
2, 26960, Note_off_c, 1, 71, 0
2, 26960, Note_on_c, 1, 75, 127
2, 26960, Note_on_c, 1, 77, 127
2, 27000, Note_off_c, 1, 61, 0
2, 27000, Note_off_c, 1, 68, 0
2, 27000, Note_off_c, 1, 75, 0
2, 27000, Note_off_c, 1, 77, 0
2, 27000, Note_off_c, 1, 80, 0
2, 27040, Note_on_c, 1, 49, 127
2, 27040, Note_on_c, 1, 52, 127
2, 27040, Note_on_c, 1, 67, 127
2, 27040, Note_on_c, 1, 73, 127
2, 27280, Note_on_c, 1, 33, 127
2, 27280, Note_on_c, 1, 45, 127
2, 27280, Note_off_c, 1, 49, 0
2, 27280, Note_off_c, 1, 52, 0
2, 27280, Note_off_c, 1, 67, 0
2, 27280, Note_on_c, 1, 72, 127
2, 27280, Note_off_c, 1, 73, 0
2, 27280, Note_on_c, 1, 76, 127
2, 27280, Note_on_c, 1, 81, 127
2, 27640, Note_off_c, 1, 33, 0
2, 27640, Note_on_c, 1, 44, 127
2, 27640, Note_off_c, 1, 45, 0
2, 27640, Note_on_c, 1, 51, 127
2, 27640, Note_on_c, 1, 52, 127
2, 27640, Note_on_c, 1, 60, 127
2, 27640, Note_off_c, 1, 72, 0
2, 27640, Note_off_c, 1, 76, 0
2, 27640, Note_off_c, 1, 81, 0
2, 27640, Note_on_c, 1, 84, 127
2, 27680, Note_on_c, 1, 33, 127
2, 27680, Note_off_c, 1, 44, 0
2, 27680, Note_on_c, 1, 45, 127
2, 27680, Note_off_c, 1, 51, 0
2, 27680, Note_off_c, 1, 52, 0
2, 27680, Note_off_c, 1, 60, 0
2, 27680, Note_on_c, 1, 72, 127
2, 27680, Note_on_c, 1, 76, 127
2, 27680, Note_on_c, 1, 81, 127
2, 27680, Note_off_c, 1, 84, 0
2, 27880, Note_off_c, 1, 33, 0
2, 27880, Note_off_c, 1, 45, 0
2, 27880, Note_off_c, 1, 72, 0
2, 27880, Note_off_c, 1, 76, 0
2, 27880, Note_off_c, 1, 81, 0
2, 27920, Note_on_c, 1, 33, 127
2, 27920, Note_on_c, 1, 45, 127
2, 27920, Note_on_c, 1, 72, 127
2, 27920, Note_on_c, 1, 76, 127
2, 27920, Note_on_c, 1, 81, 127
2, 28040, Note_off_c, 1, 33, 0
2, 28040, Note_off_c, 1, 45, 0
2, 28040, Note_off_c, 1, 72, 0
2, 28040, Note_off_c, 1, 76, 0
2, 28040, Note_off_c, 1, 81, 0
2, 28080, Note_on_c, 1, 33, 127
2, 28080, Note_on_c, 1, 45, 127
2, 28080, Note_on_c, 1, 72, 127
2, 28080, Note_on_c, 1, 76, 127
2, 28080, Note_on_c, 1, 81, 127
2, 28160, Note_off_c, 1, 33, 0
2, 28160, Note_off_c, 1, 45, 0
2, 28160, Note_off_c, 1, 72, 0
2, 28160, Note_off_c, 1, 76, 0
2, 28160, Note_off_c, 1, 81, 0
2, 28200, Note_on_c, 1, 33, 127
2, 28200, Note_on_c, 1, 45, 127
2, 28200, Note_on_c, 1, 72, 127
2, 28200, Note_on_c, 1, 76, 127
2, 28200, Note_on_c, 1, 81, 127
2, 28960, Note_off_c, 1, 33, 0
2, 28960, Note_off_c, 1, 45, 0
2, 28960, Note_off_c, 1, 72, 0
2, 28960, Note_off_c, 1, 76, 0
2, 28960, Note_off_c, 1, 81, 0
2, 29000, Note_on_c, 1, 64, 127
2, 29000, Note_on_c, 1, 67, 127
2, 29160, Note_on_c, 1, 60, 127
2, 29280, Note_on_c, 1, 79, 127
2, 29360, Note_off_c, 1, 79, 0
2, 29400, Note_on_c, 1, 76, 127
2, 29640, Note_off_c, 1, 76, 0
2, 29680, Note_on_c, 1, 76, 127
2, 29880, Note_off_c, 1, 60, 0
2, 29880, Note_off_c, 1, 64, 0
2, 29880, Note_off_c, 1, 67, 0
2, 29880, Note_off_c, 1, 76, 0
2, 29920, Note_on_c, 1, 59, 127
2, 29920, Note_on_c, 1, 62, 127
2, 29920, Note_on_c, 1, 67, 127
2, 29920, Note_on_c, 1, 77, 127
2, 30160, Note_off_c, 1, 77, 0
2, 30200, Note_on_c, 1, 79, 127
2, 30280, Note_off_c, 1, 59, 0
2, 30280, Note_off_c, 1, 62, 0
2, 30280, Note_off_c, 1, 67, 0
2, 30280, Note_off_c, 1, 79, 0
2, 30320, Note_on_c, 1, 59, 127
2, 30320, Note_on_c, 1, 62, 127
2, 30320, Note_on_c, 1, 67, 127
2, 30320, Note_on_c, 1, 79, 127
2, 30440, Note_off_c, 1, 59, 0
2, 30440, Note_off_c, 1, 62, 0
2, 30440, Note_off_c, 1, 67, 0
2, 30440, Note_off_c, 1, 79, 0
2, 30480, Note_on_c, 1, 64, 127
2, 30480, Note_on_c, 1, 67, 127
2, 30480, Note_on_c, 1, 72, 127
2, 30760, Note_off_c, 1, 72, 0
2, 30760, Note_on_c, 1, 84, 127
2, 30800, Note_on_c, 1, 72, 127
2, 30800, Note_off_c, 1, 84, 0
2, 30840, Note_off_c, 1, 72, 0
2, 30840, Note_on_c, 1, 84, 127
2, 30920, Note_on_c, 1, 72, 127
2, 30920, Note_off_c, 1, 84, 0
2, 30960, Note_off_c, 1, 64, 0
2, 30960, Note_off_c, 1, 67, 0
2, 30960, Note_off_c, 1, 72, 0
2, 31000, Note_on_c, 1, 72, 127
2, 31000, Note_on_c, 1, 75, 127
2, 31000, Note_on_c, 1, 79, 127
2, 31000, Note_on_c, 1, 87, 127
2, 31040, Note_on_c, 1, 60, 127
2, 31040, Note_on_c, 1, 67, 127
2, 31040, Note_off_c, 1, 75, 0
2, 31040, Note_on_c, 1, 76, 127
2, 31040, Note_off_c, 1, 79, 0
2, 31040, Note_on_c, 1, 86, 127
2, 31040, Note_off_c, 1, 87, 0
2, 31080, Note_off_c, 1, 67, 0
2, 31080, Note_off_c, 1, 76, 0
2, 31080, Note_on_c, 1, 90, 127
2, 31080, Note_on_c, 1, 93, 127
2, 31120, Note_on_c, 1, 62, 127
2, 31120, Note_on_c, 1, 66, 127
2, 31120, Note_off_c, 1, 72, 0
2, 31120, Note_off_c, 1, 86, 0
2, 31120, Note_on_c, 1, 89, 127
2, 31120, Note_off_c, 1, 90, 0
2, 31120, Note_off_c, 1, 93, 0
2, 31160, Note_off_c, 1, 60, 0
2, 31160, Note_off_c, 1, 62, 0
2, 31160, Note_off_c, 1, 66, 0
2, 31160, Note_on_c, 1, 72, 127
2, 31160, Note_on_c, 1, 77, 127
2, 31160, Note_on_c, 1, 81, 127
2, 31160, Note_on_c, 1, 85, 127
2, 31160, Note_off_c, 1, 89, 0
2, 31200, Note_off_c, 1, 77, 0
2, 31200, Note_on_c, 1, 79, 127
2, 31200, Note_off_c, 1, 81, 0
2, 31200, Note_on_c, 1, 83, 127
2, 31200, Note_off_c, 1, 85, 0
2, 31240, Note_on_c, 1, 64, 127
2, 31240, Note_on_c, 1, 67, 127
2, 31240, Note_on_c, 1, 71, 127
2, 31240, Note_off_c, 1, 72, 0
2, 31240, Note_on_c, 1, 74, 127
2, 31240, Note_off_c, 1, 79, 0
2, 31240, Note_off_c, 1, 83, 0
2, 31280, Note_on_c, 1, 48, 127
2, 31280, Note_on_c, 1, 56, 127
2, 31280, Note_on_c, 1, 60, 127
2, 31280, Note_off_c, 1, 64, 0
2, 31280, Note_off_c, 1, 67, 0
2, 31280, Note_on_c, 1, 68, 127
2, 31280, Note_off_c, 1, 71, 0
2, 31280, Note_on_c, 1, 72, 127
2, 31280, Note_on_c, 1, 76, 127
2, 31480, Note_off_c, 1, 48, 0
2, 31480, Note_off_c, 1, 56, 0
2, 31480, Note_off_c, 1, 60, 0
2, 31480, Note_off_c, 1, 68, 0
2, 31480, Note_off_c, 1, 72, 0
2, 31480, Note_off_c, 1, 74, 0
2, 31480, Note_off_c, 1, 76, 0
2, 31480, Note_on_c, 1, 79, 127
2, 31480, Note_on_c, 1, 83, 127
2, 31480, Note_on_c, 1, 91, 127
2, 31520, Note_on_c, 1, 52, 127
2, 31520, Note_on_c, 1, 55, 127
2, 31520, Note_on_c, 1, 59, 127
2, 31520, Note_on_c, 1, 64, 127
2, 31520, Note_on_c, 1, 76, 127
2, 31520, Note_off_c, 1, 79, 0
2, 31520, Note_off_c, 1, 83, 0
2, 31520, Note_off_c, 1, 91, 0
2, 31600, Note_off_c, 1, 76, 0
2, 31600, Note_on_c, 1, 79, 127
2, 31640, Note_on_c, 1, 76, 127
2, 31640, Note_off_c, 1, 79, 0
2, 31760, Note_off_c, 1, 59, 0
2, 31760, Note_on_c, 1, 60, 127
2, 31760, Note_off_c, 1, 76, 0
2, 31800, Note_on_c, 1, 49, 127
2, 31800, Note_off_c, 1, 52, 0
2, 31800, Note_off_c, 1, 55, 0
2, 31800, Note_on_c, 1, 63, 127
2, 31800, Note_off_c, 1, 64, 0
2, 31800, Note_on_c, 1, 72, 127
2, 31800, Note_on_c, 1, 75, 127
2, 31840, Note_off_c, 1, 49, 0
2, 31840, Note_on_c, 1, 57, 127
2, 31840, Note_off_c, 1, 63, 0
2, 31840, Note_on_c, 1, 65, 127
2, 31840, Note_on_c, 1, 69, 127
2, 31840, Note_off_c, 1, 72, 0
2, 31840, Note_off_c, 1, 75, 0
2, 31840, Note_on_c, 1, 77, 127
2, 31840, Note_on_c, 1, 89, 127
2, 31880, Note_on_c, 1, 43, 127
2, 31880, Note_on_c, 1, 53, 127
2, 31880, Note_on_c, 1, 56, 127
2, 31880, Note_off_c, 1, 57, 0
2, 31880, Note_off_c, 1, 60, 0
2, 31880, Note_on_c, 1, 61, 127
2, 31880, Note_off_c, 1, 65, 0
2, 31880, Note_off_c, 1, 69, 0
2, 31880, Note_off_c, 1, 77, 0
2, 31880, Note_off_c, 1, 89, 0
2, 31920, Note_off_c, 1, 43, 0
2, 31920, Note_on_c, 1, 52, 127
2, 31920, Note_off_c, 1, 53, 0
2, 31920, Note_on_c, 1, 55, 127
2, 31920, Note_off_c, 1, 56, 0
2, 31920, Note_on_c, 1, 60, 127
2, 31920, Note_off_c, 1, 61, 0
2, 31920, Note_on_c, 1, 64, 127
2, 31920, Note_on_c, 1, 67, 127
2, 31920, Note_on_c, 1, 72, 127
2, 31960, Note_off_c, 1, 52, 0
2, 31960, Note_off_c, 1, 55, 0
2, 31960, Note_off_c, 1, 60, 0
2, 31960, Note_off_c, 1, 64, 0
2, 31960, Note_off_c, 1, 67, 0
2, 31960, Note_off_c, 1, 72, 0
2, 31960, Note_on_c, 1, 85, 127
2, 31960, Note_on_c, 1, 90, 127
2, 31960, Note_on_c, 1, 97, 127
2, 32000, Note_on_c, 1, 47, 127
2, 32000, Note_off_c, 1, 85, 0
2, 32000, Note_off_c, 1, 90, 0
2, 32000, Note_off_c, 1, 97, 0
2, 32040, Note_on_c, 1, 44, 127
2, 32040, Note_off_c, 1, 47, 0
2, 32040, Note_on_c, 1, 51, 127
2, 32040, Note_on_c, 1, 56, 127
2, 32040, Note_on_c, 1, 60, 127
2, 32040, Note_on_c, 1, 63, 127
2, 32040, Note_on_c, 1, 68, 127
2, 32040, Note_on_c, 1, 72, 127
2, 32040, Note_on_c, 1, 77, 127
2, 32280, Note_on_c, 1, 43, 127
2, 32280, Note_off_c, 1, 44, 0
2, 32280, Note_on_c, 1, 50, 127
2, 32280, Note_off_c, 1, 51, 0
2, 32280, Note_off_c, 1, 56, 0
2, 32280, Note_off_c, 1, 60, 0
2, 32280, Note_off_c, 1, 63, 0
2, 32280, Note_off_c, 1, 68, 0
2, 32280, Note_off_c, 1, 72, 0
2, 32280, Note_off_c, 1, 77, 0
2, 32320, Note_off_c, 1, 43, 0
2, 32320, Note_on_c, 1, 44, 127
2, 32320, Note_off_c, 1, 50, 0
2, 32320, Note_on_c, 1, 51, 127
2, 32320, Note_on_c, 1, 56, 127
2, 32320, Note_on_c, 1, 60, 127
2, 32320, Note_on_c, 1, 63, 127
2, 32320, Note_on_c, 1, 68, 127
2, 32320, Note_on_c, 1, 72, 127
2, 32320, Note_on_c, 1, 77, 127
2, 32400, Note_off_c, 1, 44, 0
2, 32400, Note_off_c, 1, 51, 0
2, 32400, Note_off_c, 1, 56, 0
2, 32400, Note_off_c, 1, 60, 0
2, 32400, Note_off_c, 1, 63, 0
2, 32400, Note_off_c, 1, 68, 0
2, 32400, Note_off_c, 1, 72, 0
2, 32400, Note_off_c, 1, 77, 0
2, 32440, Note_on_c, 1, 44, 127
2, 32440, Note_on_c, 1, 51, 127
2, 32440, Note_on_c, 1, 56, 127
2, 32440, Note_on_c, 1, 60, 127
2, 32440, Note_on_c, 1, 63, 127
2, 32440, Note_on_c, 1, 68, 127
2, 32440, Note_on_c, 1, 72, 127
2, 32440, Note_on_c, 1, 77, 127
2, 32560, Note_on_c, 1, 31, 127
2, 32560, Note_on_c, 1, 38, 127
2, 32560, Note_on_c, 1, 43, 127
2, 32560, Note_off_c, 1, 44, 0
2, 32560, Note_off_c, 1, 51, 0
2, 32560, Note_off_c, 1, 56, 0
2, 32560, Note_off_c, 1, 60, 0
2, 32560, Note_off_c, 1, 63, 0
2, 32560, Note_off_c, 1, 68, 0
2, 32560, Note_off_c, 1, 72, 0
2, 32560, Note_off_c, 1, 77, 0
2, 32600, Note_off_c, 1, 31, 0
2, 32600, Note_off_c, 1, 38, 0
2, 32600, Note_off_c, 1, 43, 0
2, 32600, Note_on_c, 1, 44, 127
2, 32600, Note_on_c, 1, 51, 127
2, 32600, Note_on_c, 1, 56, 127
2, 32600, Note_on_c, 1, 60, 127
2, 32600, Note_on_c, 1, 63, 127
2, 32600, Note_on_c, 1, 68, 127
2, 32600, Note_on_c, 1, 72, 127
2, 32600, Note_on_c, 1, 79, 127
2, 32840, Note_off_c, 1, 79, 0
2, 32880, Note_on_c, 1, 77, 127
2, 33080, Note_on_c, 1, 43, 127
2, 33080, Note_off_c, 1, 44, 0
2, 33080, Note_on_c, 1, 47, 127
2, 33080, Note_on_c, 1, 50, 127
2, 33080, Note_off_c, 1, 51, 0
2, 33080, Note_on_c, 1, 55, 127
2, 33080, Note_off_c, 1, 56, 0
2, 33080, Note_off_c, 1, 60, 0
2, 33080, Note_off_c, 1, 63, 0
2, 33080, Note_off_c, 1, 68, 0
2, 33080, Note_off_c, 1, 72, 0
2, 33080, Note_off_c, 1, 77, 0
2, 33120, Note_on_c, 1, 32, 127
2, 33120, Note_off_c, 1, 43, 0
2, 33120, Note_on_c, 1, 44, 127
2, 33120, Note_off_c, 1, 47, 0
2, 33120, Note_off_c, 1, 50, 0
2, 33120, Note_on_c, 1, 51, 127
2, 33120, Note_off_c, 1, 55, 0
2, 33120, Note_on_c, 1, 56, 127
2, 33120, Note_on_c, 1, 60, 127
2, 33360, Note_off_c, 1, 32, 0
2, 33360, Note_off_c, 1, 44, 0
2, 33360, Note_off_c, 1, 51, 0
2, 33360, Note_off_c, 1, 56, 0
2, 33360, Note_off_c, 1, 60, 0
2, 33400, Note_on_c, 1, 32, 127
2, 33400, Note_on_c, 1, 44, 127
2, 33400, Note_on_c, 1, 51, 127
2, 33400, Note_on_c, 1, 54, 127
2, 33400, Note_on_c, 1, 60, 127
2, 33400, Note_on_c, 1, 63, 127
2, 33640, Note_off_c, 1, 32, 0
2, 33640, Note_off_c, 1, 44, 0
2, 33640, Note_off_c, 1, 51, 0
2, 33640, Note_off_c, 1, 54, 0
2, 33640, Note_off_c, 1, 60, 0
2, 33640, Note_off_c, 1, 63, 0
2, 33680, Note_on_c, 1, 49, 127
2, 33680, Note_on_c, 1, 58, 127
2, 33680, Note_on_c, 1, 61, 127
2, 33680, Note_on_c, 1, 66, 127
2, 33680, Note_on_c, 1, 73, 127
2, 33880, Note_off_c, 1, 61, 0
2, 33880, Note_off_c, 1, 66, 0
2, 33880, Note_off_c, 1, 73, 0
2, 33880, Note_on_c, 1, 78, 127
2, 33920, Note_on_c, 1, 47, 127
2, 33920, Note_off_c, 1, 49, 0
2, 33920, Note_on_c, 1, 55, 127
2, 33920, Note_on_c, 1, 61, 127
2, 33920, Note_off_c, 1, 78, 0
2, 34160, Note_off_c, 1, 47, 0
2, 34160, Note_on_c, 1, 48, 127
2, 34160, Note_off_c, 1, 58, 0
2, 34160, Note_off_c, 1, 61, 0
2, 34200, Note_on_c, 1, 44, 127
2, 34200, Note_off_c, 1, 48, 0
2, 34200, Note_on_c, 1, 51, 127
2, 34200, Note_off_c, 1, 55, 0
2, 34200, Note_on_c, 1, 65, 127
2, 34200, Note_on_c, 1, 72, 127
2, 34240, Note_on_c, 1, 63, 127
2, 34240, Note_off_c, 1, 65, 0
2, 34320, Note_off_c, 1, 44, 0
2, 34320, Note_off_c, 1, 51, 0
2, 34320, Note_off_c, 1, 63, 0
2, 34320, Note_off_c, 1, 72, 0
2, 34360, Note_on_c, 1, 44, 127
2, 34360, Note_on_c, 1, 51, 127
2, 34360, Note_on_c, 1, 63, 127
2, 34360, Note_on_c, 1, 72, 127
2, 34440, Note_off_c, 1, 44, 0
2, 34440, Note_on_c, 1, 47, 127
2, 34440, Note_off_c, 1, 51, 0
2, 34440, Note_off_c, 1, 63, 0
2, 34440, Note_off_c, 1, 72, 0
2, 34440, Note_on_c, 1, 75, 127
2, 34480, Note_off_c, 1, 75, 0
2, 34480, Note_on_c, 1, 77, 127
2, 34480, Note_on_c, 1, 91, 127
2, 34520, Note_on_c, 1, 33, 127
2, 34520, Note_on_c, 1, 42, 127
2, 34520, Note_on_c, 1, 45, 127
2, 34520, Note_off_c, 1, 47, 0
2, 34520, Note_on_c, 1, 54, 127
2, 34520, Note_on_c, 1, 60, 127
2, 34520, Note_on_c, 1, 63, 127
2, 34520, Note_off_c, 1, 77, 0
2, 34520, Note_off_c, 1, 91, 0
2, 34560, Note_off_c, 1, 33, 0
2, 34560, Note_off_c, 1, 42, 0
2, 34560, Note_on_c, 1, 44, 127
2, 34560, Note_off_c, 1, 45, 0
2, 34560, Note_on_c, 1, 48, 127
2, 34560, Note_off_c, 1, 54, 0
2, 34560, Note_off_c, 1, 60, 0
2, 34560, Note_off_c, 1, 63, 0
2, 34560, Note_on_c, 1, 72, 127
2, 34560, Note_on_c, 1, 74, 127
2, 34560, Note_on_c, 1, 84, 127
2, 34600, Note_on_c, 1, 43, 127
2, 34600, Note_off_c, 1, 44, 0
2, 34600, Note_off_c, 1, 48, 0
2, 34600, Note_off_c, 1, 72, 0
2, 34600, Note_off_c, 1, 74, 0
2, 34600, Note_on_c, 1, 81, 127
2, 34600, Note_off_c, 1, 84, 0
2, 34600, Note_on_c, 1, 85, 127
2, 34640, Note_off_c, 1, 43, 0
2, 34640, Note_on_c, 1, 64, 127
2, 34640, Note_on_c, 1, 69, 127
2, 34640, Note_on_c, 1, 72, 127
2, 34640, Note_on_c, 1, 77, 127
2, 34640, Note_off_c, 1, 81, 0
2, 34640, Note_on_c, 1, 84, 127
2, 34640, Note_off_c, 1, 85, 0
2, 34680, Note_on_c, 1, 47, 127
2, 34680, Note_off_c, 1, 64, 0
2, 34680, Note_off_c, 1, 69, 0
2, 34680, Note_off_c, 1, 72, 0
2, 34680, Note_off_c, 1, 84, 0
2, 34680, Note_on_c, 1, 91, 127
2, 34720, Note_off_c, 1, 47, 0
2, 34720, Note_off_c, 1, 77, 0
2, 34720, Note_off_c, 1, 91, 0
2, 34760, Note_on_c, 1, 35, 127
2, 34760, Note_on_c, 1, 71, 127
2, 34760, Note_on_c, 1, 74, 127
2, 34960, Note_off_c, 1, 35, 0
2, 34960, Note_on_c, 1, 47, 127
2, 34960, Note_off_c, 1, 71, 0
2, 34960, Note_off_c, 1, 74, 0
2, 35000, Note_on_c, 1, 54, 127
2, 35000, Note_on_c, 1, 66, 127
2, 35000, Note_on_c, 1, 73, 127
2, 35240, Note_off_c, 1, 66, 0
2, 35240, Note_off_c, 1, 73, 0
2, 35280, Note_on_c, 1, 71, 127
2, 35280, Note_on_c, 1, 75, 127
2, 35400, Note_on_c, 1, 44, 127
2, 35400, Note_off_c, 1, 47, 0
2, 35400, Note_off_c, 1, 54, 0
2, 35400, Note_off_c, 1, 71, 0
2, 35400, Note_on_c, 1, 72, 127
2, 35400, Note_on_c, 1, 80, 127
2, 35440, Note_off_c, 1, 44, 0
2, 35440, Note_on_c, 1, 47, 127
2, 35440, Note_on_c, 1, 54, 127
2, 35440, Note_on_c, 1, 71, 127
2, 35440, Note_off_c, 1, 72, 0
2, 35440, Note_off_c, 1, 80, 0
2, 35480, Note_off_c, 1, 71, 0
2, 35480, Note_off_c, 1, 75, 0
2, 35520, Note_on_c, 1, 75, 127
2, 35520, Note_on_c, 1, 78, 127
2, 35760, Note_off_c, 1, 47, 0
2, 35760, Note_off_c, 1, 54, 0
2, 35760, Note_off_c, 1, 75, 0
2, 35760, Note_off_c, 1, 78, 0
2, 35800, Note_on_c, 1, 47, 127
2, 35800, Note_on_c, 1, 58, 127
2, 35800, Note_on_c, 1, 64, 127
2, 35840, Note_off_c, 1, 64, 0
2, 35960, Note_off_c, 1, 47, 0
2, 35960, Note_on_c, 1, 60, 127
2, 35960, Note_on_c, 1, 63, 127
2, 35960, Note_on_c, 1, 67, 127
2, 35960, Note_on_c, 1, 72, 127
2, 36000, Note_on_c, 1, 47, 127
2, 36000, Note_off_c, 1, 58, 0
2, 36000, Note_off_c, 1, 60, 0
2, 36000, Note_on_c, 1, 61, 127
2, 36000, Note_off_c, 1, 63, 0
2, 36000, Note_on_c, 1, 64, 127
2, 36000, Note_off_c, 1, 67, 0
2, 36000, Note_off_c, 1, 72, 0
2, 36040, Note_on_c, 1, 58, 127
2, 36040, Note_off_c, 1, 61, 0
2, 36040, Note_off_c, 1, 64, 0
2, 36080, Note_on_c, 1, 45, 127
2, 36080, Note_off_c, 1, 47, 0
2, 36080, Note_on_c, 1, 52, 127
2, 36080, Note_off_c, 1, 58, 0
2, 36080, Note_on_c, 1, 60, 127
2, 36080, Note_on_c, 1, 69, 127
2, 36080, Note_on_c, 1, 76, 127
2, 36080, Note_on_c, 1, 81, 127
2, 36160, Note_off_c, 1, 45, 0
2, 36160, Note_on_c, 1, 47, 127
2, 36160, Note_on_c, 1, 51, 127
2, 36160, Note_off_c, 1, 52, 0
2, 36160, Note_on_c, 1, 54, 127
2, 36160, Note_off_c, 1, 60, 0
2, 36160, Note_off_c, 1, 69, 0
2, 36160, Note_off_c, 1, 76, 0
2, 36160, Note_off_c, 1, 81, 0
2, 36200, Note_off_c, 1, 51, 0
2, 36200, Note_on_c, 1, 59, 127
2, 36200, Note_on_c, 1, 81, 127
2, 36240, Note_on_c, 1, 37, 127
2, 36240, Note_on_c, 1, 46, 127
2, 36240, Note_off_c, 1, 47, 0
2, 36240, Note_off_c, 1, 59, 0
2, 36240, Note_on_c, 1, 61, 127
2, 36240, Note_off_c, 1, 81, 0
2, 36280, Note_off_c, 1, 37, 0
2, 36280, Note_off_c, 1, 46, 0
2, 36280, Note_on_c, 1, 47, 127
2, 36280, Note_off_c, 1, 61, 0
2, 36320, Note_off_c, 1, 47, 0
2, 36320, Note_off_c, 1, 54, 0
2, 36320, Note_on_c, 1, 57, 127
2, 36320, Note_on_c, 1, 81, 127
2, 36320, Note_on_c, 1, 90, 127
2, 36320, Note_on_c, 1, 93, 127
2, 36360, Note_on_c, 1, 44, 127
2, 36360, Note_on_c, 1, 51, 127
2, 36360, Note_off_c, 1, 57, 0
2, 36360, Note_on_c, 1, 58, 127
2, 36360, Note_on_c, 1, 75, 127
2, 36360, Note_on_c, 1, 79, 127
2, 36360, Note_off_c, 1, 81, 0
2, 36360, Note_on_c, 1, 85, 127
2, 36360, Note_on_c, 1, 87, 127
2, 36360, Note_off_c, 1, 90, 0
2, 36360, Note_off_c, 1, 93, 0
2, 36400, Note_off_c, 1, 44, 0
2, 36400, Note_off_c, 1, 51, 0
2, 36400, Note_off_c, 1, 58, 0
2, 36400, Note_off_c, 1, 75, 0
2, 36400, Note_off_c, 1, 79, 0
2, 36400, Note_off_c, 1, 85, 0
2, 36400, Note_off_c, 1, 87, 0
2, 36440, Note_on_c, 1, 49, 127
2, 36440, Note_on_c, 1, 80, 127
2, 36440, Note_on_c, 1, 88, 127
2, 36440, Note_on_c, 1, 92, 127
2, 36480, Note_off_c, 1, 49, 0
2, 36480, Note_on_c, 1, 57, 127
2, 36480, Note_off_c, 1, 80, 0
2, 36480, Note_on_c, 1, 81, 127
2, 36480, Note_off_c, 1, 88, 0
2, 36480, Note_on_c, 1, 90, 127
2, 36480, Note_off_c, 1, 92, 0
2, 36480, Note_on_c, 1, 93, 127
2, 36560, Note_off_c, 1, 57, 0
2, 36600, Note_on_c, 1, 61, 127
2, 36600, Note_on_c, 1, 68, 127
2, 36600, Note_on_c, 1, 77, 127
2, 36600, Note_off_c, 1, 81, 0
2, 36600, Note_on_c, 1, 84, 127
2, 36600, Note_off_c, 1, 90, 0
2, 36600, Note_off_c, 1, 93, 0
2, 36840, Note_off_c, 1, 61, 0
2, 36840, Note_off_c, 1, 68, 0
2, 36840, Note_off_c, 1, 77, 0
2, 36840, Note_off_c, 1, 84, 0
2, 36880, Note_on_c, 1, 63, 127
2, 36880, Note_on_c, 1, 85, 127
2, 36880, Note_on_c, 1, 88, 127
2, 36880, Note_on_c, 1, 91, 127
2, 36920, Note_on_c, 1, 46, 127
2, 36920, Note_on_c, 1, 57, 127
2, 36920, Note_on_c, 1, 72, 127
2, 36920, Note_off_c, 1, 85, 0
2, 36920, Note_off_c, 1, 88, 0
2, 36920, Note_off_c, 1, 91, 0
2, 36960, Note_on_c, 1, 32, 127
2, 36960, Note_on_c, 1, 38, 127
2, 36960, Note_on_c, 1, 44, 127
2, 36960, Note_off_c, 1, 46, 0
2, 36960, Note_off_c, 1, 57, 0
2, 36960, Note_off_c, 1, 63, 0
2, 36960, Note_on_c, 1, 71, 127
2, 36960, Note_off_c, 1, 72, 0
2, 37000, Note_off_c, 1, 32, 0
2, 37000, Note_off_c, 1, 44, 0
2, 37000, Note_on_c, 1, 54, 127
2, 37000, Note_on_c, 1, 60, 127
2, 37000, Note_on_c, 1, 64, 127
2, 37040, Note_off_c, 1, 38, 0
2, 37040, Note_on_c, 1, 43, 127
2, 37040, Note_on_c, 1, 49, 127
2, 37040, Note_off_c, 1, 60, 0
2, 37040, Note_off_c, 1, 64, 0
2, 37040, Note_on_c, 1, 66, 127
2, 37040, Note_off_c, 1, 71, 0
2, 37080, Note_on_c, 1, 35, 127
2, 37080, Note_off_c, 1, 43, 0
2, 37080, Note_on_c, 1, 47, 127
2, 37080, Note_off_c, 1, 49, 0
2, 37080, Note_off_c, 1, 54, 0
2, 37080, Note_off_c, 1, 66, 0
2, 37080, Note_on_c, 1, 72, 127
2, 37120, Note_off_c, 1, 35, 0
2, 37120, Note_off_c, 1, 47, 0
2, 37120, Note_on_c, 1, 58, 127
2, 37120, Note_on_c, 1, 61, 127
2, 37120, Note_off_c, 1, 72, 0
2, 37120, Note_on_c, 1, 80, 127
2, 37120, Note_on_c, 1, 82, 127
2, 37120, Note_on_c, 1, 85, 127
2, 37240, Note_on_c, 1, 46, 127
2, 37240, Note_off_c, 1, 61, 0
2, 37240, Note_off_c, 1, 80, 0
2, 37240, Note_off_c, 1, 82, 0
2, 37240, Note_on_c, 1, 83, 127
2, 37240, Note_off_c, 1, 85, 0
2, 37240, Note_on_c, 1, 88, 127
2, 37240, Note_on_c, 1, 95, 127
2, 37280, Note_on_c, 1, 38, 127
2, 37280, Note_on_c, 1, 45, 127
2, 37280, Note_off_c, 1, 46, 0
2, 37280, Note_off_c, 1, 58, 0
2, 37280, Note_off_c, 1, 83, 0
2, 37280, Note_off_c, 1, 88, 0
2, 37280, Note_on_c, 1, 90, 127
2, 37280, Note_off_c, 1, 95, 0
2, 37320, Note_off_c, 1, 38, 0
2, 37320, Note_on_c, 1, 50, 127
2, 37320, Note_on_c, 1, 63, 127
2, 37320, Note_on_c, 1, 67, 127
2, 37320, Note_on_c, 1, 75, 127
2, 37320, Note_off_c, 1, 90, 0
2, 37360, Note_on_c, 1, 43, 127
2, 37360, Note_off_c, 1, 45, 0
2, 37360, Note_off_c, 1, 50, 0
2, 37360, Note_on_c, 1, 56, 127
2, 37360, Note_off_c, 1, 63, 0
2, 37360, Note_off_c, 1, 67, 0
2, 37360, Note_off_c, 1, 75, 0
2, 37400, Note_on_c, 1, 45, 127
2, 37400, Note_off_c, 1, 56, 0
2, 37400, Note_on_c, 1, 61, 127
2, 37400, Note_on_c, 1, 73, 127
2, 37880, Note_off_c, 1, 43, 0
2, 37880, Note_off_c, 1, 45, 0
2, 37880, Note_on_c, 1, 47, 127
2, 37880, Note_off_c, 1, 61, 0
2, 37880, Note_off_c, 1, 73, 0
2, 37920, Note_on_c, 1, 43, 127
2, 38160, Note_on_c, 1, 36, 127
2, 38160, Note_off_c, 1, 43, 0
2, 38160, Note_off_c, 1, 47, 0
2, 38160, Note_on_c, 1, 48, 127
2, 38160, Note_on_c, 1, 52, 127
2, 38160, Note_on_c, 1, 61, 127
2, 38440, Note_on_c, 1, 60, 127
2, 38440, Note_off_c, 1, 61, 0
2, 38600, Note_off_c, 1, 36, 0
2, 38600, Note_off_c, 1, 48, 0
2, 38600, Note_off_c, 1, 52, 0
2, 38600, Note_off_c, 1, 60, 0
2, 38640, Note_on_c, 1, 36, 127
2, 38640, Note_on_c, 1, 48, 127
2, 38640, Note_on_c, 1, 52, 127
2, 38640, Note_on_c, 1, 60, 127
2, 38720, Note_off_c, 1, 36, 0
2, 38720, Note_on_c, 1, 38, 127
2, 38720, Note_off_c, 1, 48, 0
2, 38720, Note_on_c, 1, 50, 127
2, 38720, Note_off_c, 1, 52, 0
2, 38720, Note_on_c, 1, 53, 127
2, 38720, Note_on_c, 1, 57, 127
2, 38720, Note_off_c, 1, 60, 0
2, 38720, Note_on_c, 1, 62, 127
2, 38760, Note_off_c, 1, 38, 0
2, 38760, Note_on_c, 1, 43, 127
2, 38760, Note_off_c, 1, 53, 0
2, 38760, Note_off_c, 1, 62, 0
2, 38760, Note_on_c, 1, 66, 127
2, 38880, Note_off_c, 1, 43, 0
2, 38880, Note_off_c, 1, 50, 0
2, 38880, Note_off_c, 1, 57, 0
2, 38880, Note_off_c, 1, 66, 0
2, 38920, Note_on_c, 1, 62, 127
2, 38920, Note_on_c, 1, 66, 127
2, 38960, Note_on_c, 1, 54, 127
2, 38960, Note_on_c, 1, 61, 127
2, 39400, Note_off_c, 1, 54, 0
2, 39400, Note_on_c, 1, 59, 127
2, 39400, Note_off_c, 1, 61, 0
2, 39400, Note_off_c, 1, 66, 0
2, 39440, Note_off_c, 1, 59, 0
2, 39440, Note_on_c, 1, 67, 127
2, 39440, Note_on_c, 1, 70, 127
2, 39440, Note_on_c, 1, 78, 127
2, 39680, Note_off_c, 1, 67, 0
2, 39680, Note_off_c, 1, 70, 0
2, 39680, Note_on_c, 1, 73, 127
2, 39680, Note_off_c, 1, 78, 0
2, 39960, Note_on_c, 1, 29, 127
2, 39960, Note_on_c, 1, 53, 127
2, 39960, Note_on_c, 1, 56, 127
2, 39960, Note_off_c, 1, 62, 0
2, 39960, Note_on_c, 1, 63, 127
2, 39960, Note_off_c, 1, 73, 0
2, 39960, Note_on_c, 1, 75, 127
2, 40000, Note_off_c, 1, 29, 0
2, 40000, Note_on_c, 1, 34, 127
2, 40000, Note_off_c, 1, 53, 0
2, 40000, Note_off_c, 1, 56, 0
2, 40000, Note_off_c, 1, 63, 0
2, 40000, Note_on_c, 1, 70, 127
2, 40000, Note_on_c, 1, 73, 127
2, 40000, Note_off_c, 1, 75, 0
2, 40000, Note_on_c, 1, 79, 127
2, 40040, Note_on_c, 1, 33, 127
2, 40040, Note_off_c, 1, 34, 0
2, 40040, Note_on_c, 1, 38, 127
2, 40040, Note_on_c, 1, 66, 127
2, 40040, Note_off_c, 1, 70, 0
2, 40040, Note_off_c, 1, 73, 0
2, 40040, Note_off_c, 1, 79, 0
2, 40080, Note_off_c, 1, 33, 0
2, 40080, Note_off_c, 1, 38, 0
2, 40080, Note_on_c, 1, 60, 127
2, 40080, Note_on_c, 1, 63, 127
2, 40080, Note_off_c, 1, 66, 0
2, 40080, Note_on_c, 1, 68, 127
2, 40080, Note_on_c, 1, 84, 127
2, 40080, Note_on_c, 1, 87, 127
2, 40080, Note_on_c, 1, 92, 127
2, 40120, Note_on_c, 1, 37, 127
2, 40120, Note_on_c, 1, 59, 127
2, 40120, Note_off_c, 1, 60, 0
2, 40120, Note_off_c, 1, 84, 0
2, 40120, Note_off_c, 1, 87, 0
2, 40120, Note_off_c, 1, 92, 0
2, 40160, Note_off_c, 1, 37, 0
2, 40160, Note_on_c, 1, 38, 127
2, 40160, Note_on_c, 1, 40, 127
2, 40160, Note_off_c, 1, 59, 0
2, 40160, Note_on_c, 1, 61, 127
2, 40160, Note_off_c, 1, 63, 0
2, 40160, Note_on_c, 1, 67, 127
2, 40160, Note_off_c, 1, 68, 0
2, 40200, Note_on_c, 1, 32, 127
2, 40200, Note_off_c, 1, 38, 0
2, 40200, Note_off_c, 1, 40, 0
2, 40200, Note_off_c, 1, 61, 0
2, 40200, Note_off_c, 1, 67, 0
2, 40240, Note_off_c, 1, 32, 0
2, 40240, Note_on_c, 1, 44, 127
2, 40240, Note_on_c, 1, 51, 127
2, 40240, Note_on_c, 1, 56, 127
2, 40240, Note_on_c, 1, 61, 127
2, 40240, Note_on_c, 1, 63, 127
2, 40920, Note_off_c, 1, 44, 0
2, 40920, Note_off_c, 1, 51, 0
2, 40920, Note_off_c, 1, 56, 0
2, 40920, Note_off_c, 1, 61, 0
2, 40920, Note_off_c, 1, 63, 0
2, 40960, Note_on_c, 1, 44, 127
2, 40960, Note_on_c, 1, 51, 127
2, 40960, Note_on_c, 1, 56, 127
2, 40960, Note_on_c, 1, 61, 127
2, 40960, Note_on_c, 1, 63, 127
2, 42280, Note_on_c, 1, 42, 127
2, 42280, Note_off_c, 1, 44, 0
2, 42280, Note_on_c, 1, 47, 127
2, 42280, Note_off_c, 1, 51, 0
2, 42280, Note_on_c, 1, 54, 127
2, 42280, Note_off_c, 1, 56, 0
2, 42280, Note_on_c, 1, 59, 127
2, 42280, Note_off_c, 1, 61, 0
2, 42320, Note_off_c, 1, 42, 0
2, 42320, Note_on_c, 1, 44, 127
2, 42320, Note_off_c, 1, 47, 0
2, 42320, Note_on_c, 1, 51, 127
2, 42320, Note_off_c, 1, 54, 0
2, 42320, Note_on_c, 1, 56, 127
2, 42320, Note_off_c, 1, 59, 0
2, 42320, Note_on_c, 1, 61, 127
2, 43080, Note_on_c, 1, 43, 127
2, 43080, Note_off_c, 1, 44, 0
2, 43080, Note_off_c, 1, 51, 0
2, 43080, Note_on_c, 1, 54, 127
2, 43080, Note_off_c, 1, 56, 0
2, 43080, Note_off_c, 1, 61, 0
2, 43080, Note_off_c, 1, 63, 0
2, 43080, Note_on_c, 1, 67, 127
2, 43120, Note_off_c, 1, 43, 0
2, 43120, Note_off_c, 1, 54, 0
2, 43120, Note_off_c, 1, 67, 0
2, 43160, Note_on_c, 1, 44, 127
2, 43160, Note_on_c, 1, 58, 127
2, 43160, Note_on_c, 1, 63, 127
2, 43160, Note_on_c, 1, 67, 127
2, 43200, Note_on_c, 1, 41, 127
2, 43200, Note_off_c, 1, 44, 0
2, 43200, Note_on_c, 1, 50, 127
2, 43200, Note_on_c, 1, 53, 127
2, 43200, Note_off_c, 1, 58, 0
2, 43200, Note_on_c, 1, 59, 127
2, 43200, Note_off_c, 1, 63, 0
2, 43200, Note_on_c, 1, 65, 127
2, 43200, Note_off_c, 1, 67, 0
2, 43200, Note_on_c, 1, 68, 127
2, 43200, Note_on_c, 1, 71, 127
2, 43240, Note_on_c, 1, 33, 127
2, 43240, Note_off_c, 1, 41, 0
2, 43240, Note_on_c, 1, 45, 127
2, 43240, Note_off_c, 1, 50, 0
2, 43240, Note_on_c, 1, 52, 127
2, 43240, Note_off_c, 1, 53, 0
2, 43240, Note_on_c, 1, 64, 127
2, 43240, Note_off_c, 1, 65, 0
2, 43240, Note_off_c, 1, 68, 0
2, 43240, Note_on_c, 1, 76, 127
2, 43240, Note_on_c, 1, 81, 127
2, 43240, Note_on_c, 1, 83, 127
2, 43280, Note_on_c, 1, 32, 127
2, 43280, Note_off_c, 1, 33, 0
2, 43280, Note_on_c, 1, 36, 127
2, 43280, Note_on_c, 1, 42, 127
2, 43280, Note_on_c, 1, 44, 127
2, 43280, Note_off_c, 1, 45, 0
2, 43280, Note_on_c, 1, 51, 127
2, 43280, Note_off_c, 1, 52, 0
2, 43280, Note_on_c, 1, 54, 127
2, 43280, Note_off_c, 1, 64, 0
2, 43280, Note_off_c, 1, 71, 0
2, 43280, Note_on_c, 1, 72, 127
2, 43280, Note_off_c, 1, 76, 0
2, 43280, Note_on_c, 1, 80, 127
2, 43280, Note_off_c, 1, 81, 0
2, 43280, Note_off_c, 1, 83, 0
2, 43280, Note_on_c, 1, 84, 127
2, 43320, Note_off_c, 1, 32, 0
2, 43320, Note_off_c, 1, 36, 0
2, 43320, Note_on_c, 1, 38, 127
2, 43320, Note_off_c, 1, 42, 0
2, 43320, Note_off_c, 1, 44, 0
2, 43320, Note_off_c, 1, 51, 0
2, 43320, Note_off_c, 1, 54, 0
2, 43320, Note_off_c, 1, 59, 0
2, 43320, Note_on_c, 1, 69, 127
2, 43320, Note_off_c, 1, 72, 0
2, 43320, Note_off_c, 1, 80, 0
2, 43320, Note_off_c, 1, 84, 0
2, 43320, Note_on_c, 1, 90, 127
2, 43320, Note_on_c, 1, 93, 127
2, 43360, Note_off_c, 1, 38, 0
2, 43360, Note_on_c, 1, 43, 127
2, 43360, Note_on_c, 1, 53, 127
2, 43360, Note_on_c, 1, 59, 127
2, 43360, Note_on_c, 1, 65, 127
2, 43360, Note_off_c, 1, 69, 0
2, 43360, Note_off_c, 1, 90, 0
2, 43360, Note_off_c, 1, 93, 0
2, 43400, Note_off_c, 1, 43, 0
2, 43400, Note_on_c, 1, 46, 127
2, 43400, Note_on_c, 1, 50, 127
2, 43400, Note_off_c, 1, 53, 0
2, 43400, Note_on_c, 1, 54, 127
2, 43400, Note_off_c, 1, 59, 0
2, 43400, Note_on_c, 1, 60, 127
2, 43400, Note_on_c, 1, 62, 127
2, 43400, Note_off_c, 1, 65, 0
2, 43640, Note_off_c, 1, 46, 0
2, 43640, Note_off_c, 1, 54, 0
2, 43640, Note_on_c, 1, 55, 127
2, 43640, Note_on_c, 1, 59, 127
2, 43640, Note_off_c, 1, 60, 0
2, 43640, Note_off_c, 1, 62, 0
2, 43640, Note_on_c, 1, 65, 127
2, 43640, Note_on_c, 1, 71, 127
2, 44160, Note_off_c, 1, 50, 0
2, 44160, Note_off_c, 1, 55, 0
2, 44160, Note_off_c, 1, 59, 0
2, 44160, Note_off_c, 1, 65, 0
2, 44160, Note_off_c, 1, 71, 0
2, 44200, Note_on_c, 1, 36, 127
2, 44200, Note_on_c, 1, 48, 127
2, 44200, Note_on_c, 1, 55, 127
2, 44200, Note_on_c, 1, 60, 127
2, 44200, Note_on_c, 1, 64, 127
2, 44200, Note_on_c, 1, 67, 127
2, 44640, Note_off_c, 1, 36, 0
2, 44640, Note_off_c, 1, 48, 0
2, 44640, Note_off_c, 1, 55, 0
2, 44640, Note_off_c, 1, 60, 0
2, 44640, Note_off_c, 1, 64, 0
2, 44640, Note_off_c, 1, 67, 0
2, 44720, Note_on_c, 1, 29, 127
2, 44720, Note_on_c, 1, 41, 127
2, 44720, Note_on_c, 1, 57, 127
2, 44720, Note_on_c, 1, 60, 127
2, 44720, Note_on_c, 1, 65, 127
2, 45120, Note_off_c, 1, 29, 0
2, 45120, Note_off_c, 1, 41, 0
2, 45120, Note_off_c, 1, 57, 0
2, 45120, Note_off_c, 1, 60, 0
2, 45120, Note_off_c, 1, 65, 0
2, 45160, Note_on_c, 1, 29, 127
2, 45160, Note_on_c, 1, 41, 127
2, 45160, Note_on_c, 1, 57, 127
2, 45160, Note_on_c, 1, 60, 127
2, 45160, Note_on_c, 1, 65, 127
2, 45760, Note_off_c, 1, 29, 0
2, 45760, Note_off_c, 1, 41, 0
2, 45760, Note_off_c, 1, 57, 0
2, 45760, Note_off_c, 1, 60, 0
2, 45760, Note_off_c, 1, 65, 0
2, 45800, Note_on_c, 1, 66, 127
2, 45800, Note_on_c, 1, 70, 127
2, 45800, Note_on_c, 1, 72, 127
2, 45800, Note_on_c, 1, 73, 127
2, 45840, Note_on_c, 1, 51, 127
2, 45840, Note_on_c, 1, 61, 127
2, 45840, Note_on_c, 1, 63, 127
2, 45840, Note_off_c, 1, 66, 0
2, 45840, Note_off_c, 1, 70, 0
2, 45840, Note_off_c, 1, 72, 0
2, 45840, Note_off_c, 1, 73, 0
2, 45840, Note_on_c, 1, 91, 127
2, 45880, Note_on_c, 1, 46, 127
2, 45880, Note_off_c, 1, 51, 0
2, 45880, Note_on_c, 1, 58, 127
2, 45880, Note_off_c, 1, 61, 0
2, 45880, Note_off_c, 1, 63, 0
2, 45880, Note_on_c, 1, 79, 127
2, 45880, Note_on_c, 1, 85, 127
2, 45880, Note_on_c, 1, 87, 127
2, 45920, Note_on_c, 1, 41, 127
2, 45920, Note_off_c, 1, 46, 0
2, 45920, Note_on_c, 1, 51, 127
2, 45920, Note_on_c, 1, 53, 127
2, 45920, Note_off_c, 1, 58, 0
2, 45920, Note_off_c, 1, 85, 0
2, 45920, Note_off_c, 1, 87, 0
2, 45960, Note_off_c, 1, 41, 0
2, 45960, Note_off_c, 1, 51, 0
2, 45960, Note_off_c, 1, 53, 0
2, 45960, Note_on_c, 1, 57, 127
2, 45960, Note_on_c, 1, 64, 127
2, 45960, Note_on_c, 1, 66, 127
2, 45960, Note_on_c, 1, 73, 127
2, 45960, Note_off_c, 1, 79, 0
2, 45960, Note_off_c, 1, 91, 0
2, 46000, Note_on_c, 1, 35, 127
2, 46000, Note_on_c, 1, 47, 127
2, 46000, Note_on_c, 1, 55, 127
2, 46000, Note_off_c, 1, 57, 0
2, 46000, Note_off_c, 1, 64, 0
2, 46000, Note_on_c, 1, 65, 127
2, 46000, Note_off_c, 1, 66, 0
2, 46000, Note_off_c, 1, 73, 0
2, 46040, Note_off_c, 1, 35, 0
2, 46040, Note_off_c, 1, 47, 0
2, 46040, Note_off_c, 1, 55, 0
2, 46040, Note_on_c, 1, 59, 127
2, 46040, Note_off_c, 1, 65, 0
2, 46040, Note_on_c, 1, 68, 127
2, 46040, Note_on_c, 1, 77, 127
2, 46040, Note_on_c, 1, 81, 127
2, 46080, Note_on_c, 1, 32, 127
2, 46080, Note_on_c, 1, 41, 127
2, 46080, Note_off_c, 1, 59, 0
2, 46080, Note_off_c, 1, 68, 0
2, 46080, Note_off_c, 1, 77, 0
2, 46080, Note_on_c, 1, 80, 127
2, 46080, Note_off_c, 1, 81, 0
2, 46080, Note_on_c, 1, 82, 127
2, 46120, Note_off_c, 1, 32, 0
2, 46120, Note_off_c, 1, 41, 0
2, 46120, Note_on_c, 1, 45, 127
2, 46120, Note_on_c, 1, 57, 127
2, 46120, Note_on_c, 1, 78, 127
2, 46120, Note_off_c, 1, 80, 0
2, 46120, Note_on_c, 1, 81, 127
2, 46120, Note_off_c, 1, 82, 0
2, 46120, Note_on_c, 1, 84, 127
2, 46120, Note_on_c, 1, 90, 127
2, 46160, Note_off_c, 1, 45, 0
2, 46160, Note_off_c, 1, 57, 0
2, 46160, Note_on_c, 1, 59, 127
2, 46160, Note_on_c, 1, 68, 127
2, 46160, Note_on_c, 1, 77, 127
2, 46160, Note_off_c, 1, 78, 0
2, 46160, Note_off_c, 1, 84, 0
2, 46160, Note_off_c, 1, 90, 0
2, 46280, Note_on_c, 1, 58, 127
2, 46280, Note_off_c, 1, 59, 0
2, 46280, Note_on_c, 1, 62, 127
2, 46280, Note_on_c, 1, 67, 127
2, 46280, Note_off_c, 1, 68, 0
2, 46280, Note_off_c, 1, 77, 0
2, 46280, Note_off_c, 1, 81, 0
2, 46320, Note_on_c, 1, 57, 127
2, 46320, Note_off_c, 1, 58, 0
2, 46320, Note_off_c, 1, 62, 0
2, 46320, Note_on_c, 1, 66, 127
2, 46320, Note_off_c, 1, 67, 0
2, 46320, Note_on_c, 1, 90, 127
2, 46320, Note_on_c, 1, 93, 127
2, 46360, Note_on_c, 1, 55, 127
2, 46360, Note_off_c, 1, 57, 0
2, 46360, Note_on_c, 1, 60, 127
2, 46360, Note_on_c, 1, 65, 127
2, 46360, Note_off_c, 1, 66, 0
2, 46360, Note_on_c, 1, 72, 127
2, 46360, Note_on_c, 1, 74, 127
2, 46360, Note_off_c, 1, 90, 0
2, 46360, Note_off_c, 1, 93, 0
2, 46400, Note_on_c, 1, 49, 127
2, 46400, Note_off_c, 1, 55, 0
2, 46400, Note_off_c, 1, 65, 0
2, 46400, Note_on_c, 1, 68, 127
2, 46400, Note_off_c, 1, 72, 0
2, 46400, Note_off_c, 1, 74, 0
2, 46400, Note_on_c, 1, 75, 127
2, 46440, Note_on_c, 1, 45, 127
2, 46440, Note_off_c, 1, 49, 0
2, 46440, Note_off_c, 1, 60, 0
2, 46440, Note_on_c, 1, 64, 127
2, 46440, Note_on_c, 1, 66, 127
2, 46440, Note_off_c, 1, 68, 0
2, 46440, Note_on_c, 1, 73, 127
2, 46440, Note_off_c, 1, 75, 0
2, 46480, Note_on_c, 1, 43, 127
2, 46480, Note_off_c, 1, 45, 0
2, 46480, Note_on_c, 1, 56, 127
2, 46480, Note_off_c, 1, 64, 0
2, 46480, Note_off_c, 1, 66, 0
2, 46480, Note_off_c, 1, 73, 0
2, 46480, Note_on_c, 1, 74, 127
2, 46480, Note_on_c, 1, 80, 127
2, 46520, Note_off_c, 1, 43, 0
2, 46520, Note_on_c, 1, 45, 127
2, 46520, Note_off_c, 1, 56, 0
2, 46520, Note_off_c, 1, 74, 0
2, 46520, Note_off_c, 1, 80, 0
2, 46520, Note_on_c, 1, 90, 127
2, 46520, Note_on_c, 1, 95, 127
2, 46520, Note_on_c, 1, 99, 127
2, 46560, Note_on_c, 1, 42, 127
2, 46560, Note_off_c, 1, 45, 0
2, 46560, Note_on_c, 1, 61, 127
2, 46560, Note_on_c, 1, 66, 127
2, 46560, Note_on_c, 1, 78, 127
2, 46560, Note_off_c, 1, 90, 0
2, 46560, Note_off_c, 1, 95, 0
2, 46560, Note_off_c, 1, 99, 0
2, 46800, Note_off_c, 1, 42, 0
2, 46800, Note_off_c, 1, 61, 0
2, 46800, Note_off_c, 1, 66, 0
2, 46800, Note_off_c, 1, 78, 0
2, 46840, Note_on_c, 1, 48, 127
2, 46840, Note_on_c, 1, 60, 127
2, 46840, Note_on_c, 1, 73, 127
2, 47040, Note_off_c, 1, 48, 0
2, 47040, Note_off_c, 1, 60, 0
2, 47040, Note_off_c, 1, 73, 0
2, 47080, Note_on_c, 1, 50, 127
2, 47080, Note_on_c, 1, 59, 127
2, 47080, Note_on_c, 1, 68, 127
2, 47120, Note_off_c, 1, 50, 0
2, 47120, Note_on_c, 1, 55, 127
2, 47120, Note_on_c, 1, 62, 127
2, 47120, Note_on_c, 1, 65, 127
2, 47120, Note_on_c, 1, 67, 127
2, 47120, Note_off_c, 1, 68, 0
2, 47120, Note_on_c, 1, 83, 127
2, 47360, Note_on_c, 1, 49, 127
2, 47360, Note_off_c, 1, 55, 0
2, 47360, Note_on_c, 1, 56, 127
2, 47360, Note_off_c, 1, 59, 0
2, 47360, Note_off_c, 1, 62, 0
2, 47360, Note_off_c, 1, 67, 0
2, 47360, Note_on_c, 1, 68, 127
2, 47360, Note_off_c, 1, 83, 0
2, 47400, Note_off_c, 1, 49, 0
2, 47400, Note_on_c, 1, 51, 127
2, 47400, Note_off_c, 1, 56, 0
2, 47400, Note_on_c, 1, 59, 127
2, 47400, Note_off_c, 1, 65, 0
2, 47400, Note_on_c, 1, 66, 127
2, 47400, Note_off_c, 1, 68, 0
2, 47400, Note_on_c, 1, 71, 127
2, 47400, Note_on_c, 1, 78, 127
2, 47520, Note_on_c, 1, 48, 127
2, 47520, Note_off_c, 1, 51, 0
2, 47520, Note_off_c, 1, 59, 0
2, 47520, Note_on_c, 1, 60, 127
2, 47520, Note_off_c, 1, 66, 0
2, 47520, Note_off_c, 1, 71, 0
2, 47520, Note_on_c, 1, 81, 127
2, 47520, Note_on_c, 1, 87, 127
2, 47520, Note_on_c, 1, 90, 127
2, 47560, Note_off_c, 1, 48, 0
2, 47560, Note_on_c, 1, 51, 127
2, 47560, Note_on_c, 1, 59, 127
2, 47560, Note_off_c, 1, 60, 0
2, 47560, Note_on_c, 1, 66, 127
2, 47560, Note_on_c, 1, 71, 127
2, 47560, Note_off_c, 1, 81, 0
2, 47560, Note_off_c, 1, 87, 0
2, 47560, Note_off_c, 1, 90, 0
2, 47600, Note_on_c, 1, 50, 127
2, 47600, Note_off_c, 1, 51, 0
2, 47600, Note_off_c, 1, 66, 0
2, 47600, Note_off_c, 1, 78, 0
2, 47640, Note_off_c, 1, 50, 0
2, 47640, Note_on_c, 1, 51, 127
2, 47640, Note_on_c, 1, 66, 127
2, 47640, Note_on_c, 1, 78, 127
2, 47880, Note_off_c, 1, 51, 0
2, 47880, Note_off_c, 1, 59, 0
2, 47880, Note_off_c, 1, 66, 0
2, 47880, Note_off_c, 1, 71, 0
2, 47880, Note_off_c, 1, 78, 0
2, 47920, Note_on_c, 1, 50, 127
2, 47920, Note_on_c, 1, 59, 127
2, 47920, Note_on_c, 1, 62, 127
2, 47920, Note_on_c, 1, 67, 127
2, 47920, Note_on_c, 1, 71, 127
2, 48400, Note_off_c, 1, 50, 0
2, 48400, Note_off_c, 1, 59, 0
2, 48400, Note_off_c, 1, 62, 0
2, 48400, Note_off_c, 1, 67, 0
2, 48400, Note_off_c, 1, 71, 0
2, 48440, Note_on_c, 1, 42, 127
2, 48440, Note_on_c, 1, 61, 127
2, 48440, Note_on_c, 1, 63, 127
2, 48440, Note_on_c, 1, 68, 127
2, 48640, Note_on_c, 1, 34, 127
2, 48680, Note_off_c, 1, 34, 0
2, 48840, Note_on_c, 1, 34, 127
2, 48880, Note_off_c, 1, 34, 0
2, 48920, Note_off_c, 1, 42, 0
2, 48920, Note_off_c, 1, 61, 0
2, 48920, Note_off_c, 1, 63, 0
2, 48920, Note_off_c, 1, 68, 0
2, 49000, Note_on_c, 1, 53, 127
2, 49000, Note_on_c, 1, 60, 127
2, 49000, Note_on_c, 1, 69, 127
2, 49000, Note_on_c, 1, 74, 127
2, 49200, Note_off_c, 1, 53, 0
2, 49200, Note_off_c, 1, 60, 0
2, 49200, Note_off_c, 1, 69, 0
2, 49200, Note_off_c, 1, 74, 0
2, 49240, Note_on_c, 1, 41, 127
2, 49240, Note_on_c, 1, 46, 127
2, 49240, Note_on_c, 1, 53, 127
2, 49240, Note_on_c, 1, 87, 127
2, 49720, Note_off_c, 1, 41, 0
2, 49720, Note_off_c, 1, 46, 0
2, 49720, Note_on_c, 1, 48, 127
2, 49720, Note_off_c, 1, 53, 0
2, 49720, Note_on_c, 1, 74, 127
2, 49720, Note_off_c, 1, 87, 0
2, 49760, Note_on_c, 1, 41, 127
2, 49760, Note_off_c, 1, 48, 0
2, 49760, Note_on_c, 1, 51, 127
2, 49760, Note_on_c, 1, 60, 127
2, 49760, Note_on_c, 1, 65, 127
2, 49760, Note_on_c, 1, 69, 127
2, 49760, Note_on_c, 1, 72, 127
2, 49760, Note_off_c, 1, 74, 0
2, 49960, Note_off_c, 1, 41, 0
2, 49960, Note_on_c, 1, 45, 127
2, 49960, Note_off_c, 1, 51, 0
2, 49960, Note_off_c, 1, 60, 0
2, 49960, Note_off_c, 1, 65, 0
2, 49960, Note_off_c, 1, 69, 0
2, 49960, Note_off_c, 1, 72, 0
2, 49960, Note_on_c, 1, 75, 127
2, 50000, Note_on_c, 1, 43, 127
2, 50000, Note_off_c, 1, 45, 0
2, 50000, Note_on_c, 1, 58, 127
2, 50000, Note_on_c, 1, 62, 127
2, 50000, Note_on_c, 1, 64, 127
2, 50000, Note_on_c, 1, 67, 127
2, 50000, Note_off_c, 1, 75, 0
2, 50240, Note_off_c, 1, 43, 0
2, 50240, Note_off_c, 1, 58, 0
2, 50240, Note_off_c, 1, 62, 0
2, 50240, Note_off_c, 1, 64, 0
2, 50240, Note_off_c, 1, 67, 0
2, 50280, Note_on_c, 1, 57, 127
2, 50280, Note_on_c, 1, 64, 127
2, 50280, Note_on_c, 1, 72, 127
2, 50280, Note_on_c, 1, 76, 127
2, 50760, Note_off_c, 1, 57, 0
2, 50760, Note_off_c, 1, 64, 0
2, 50760, Note_off_c, 1, 72, 0
2, 50760, Note_off_c, 1, 76, 0
2, 50800, Note_on_c, 1, 58, 127
2, 50800, Note_on_c, 1, 62, 127
2, 50800, Note_on_c, 1, 77, 127
2, 50800, Note_on_c, 1, 89, 127
2, 51000, Note_off_c, 1, 58, 0
2, 51000, Note_off_c, 1, 62, 0
2, 51000, Note_off_c, 1, 77, 0
2, 51000, Note_off_c, 1, 89, 0
2, 51040, Note_on_c, 1, 58, 127
2, 51040, Note_on_c, 1, 62, 127
2, 51040, Note_on_c, 1, 77, 127
2, 51040, Note_on_c, 1, 89, 127
2, 51120, Note_on_c, 1, 53, 127
2, 51120, Note_off_c, 1, 62, 0
2, 51120, Note_on_c, 1, 65, 127
2, 51120, Note_on_c, 1, 70, 127
2, 51120, Note_off_c, 1, 77, 0
2, 51120, Note_off_c, 1, 89, 0
2, 51160, Note_on_c, 1, 44, 127
2, 51160, Note_on_c, 1, 52, 127
2, 51160, Note_off_c, 1, 53, 0
2, 51160, Note_off_c, 1, 58, 0
2, 51160, Note_on_c, 1, 59, 127
2, 51160, Note_on_c, 1, 64, 127
2, 51160, Note_off_c, 1, 65, 0
2, 51160, Note_on_c, 1, 68, 127
2, 51160, Note_off_c, 1, 70, 0
2, 51160, Note_on_c, 1, 76, 127
2, 51200, Note_off_c, 1, 44, 0
2, 51200, Note_off_c, 1, 52, 0
2, 51200, Note_off_c, 1, 64, 0
2, 51200, Note_off_c, 1, 68, 0
2, 51200, Note_on_c, 1, 71, 127
2, 51200, Note_on_c, 1, 75, 127
2, 51200, Note_off_c, 1, 76, 0
2, 51200, Note_on_c, 1, 87, 127
2, 51240, Note_on_c, 1, 40, 127
2, 51240, Note_on_c, 1, 57, 127
2, 51240, Note_off_c, 1, 59, 0
2, 51240, Note_on_c, 1, 66, 127
2, 51240, Note_off_c, 1, 71, 0
2, 51240, Note_off_c, 1, 75, 0
2, 51240, Note_on_c, 1, 78, 127
2, 51240, Note_off_c, 1, 87, 0
2, 51280, Note_on_c, 1, 39, 127
2, 51280, Note_off_c, 1, 40, 0
2, 51280, Note_off_c, 1, 57, 0
2, 51280, Note_off_c, 1, 66, 0
2, 51280, Note_on_c, 1, 73, 127
2, 51280, Note_off_c, 1, 78, 0
2, 51280, Note_on_c, 1, 85, 127
2, 51320, Note_off_c, 1, 39, 0
2, 51320, Note_on_c, 1, 59, 127
2, 51320, Note_on_c, 1, 71, 127
2, 51320, Note_off_c, 1, 73, 0
2, 51320, Note_on_c, 1, 75, 127
2, 51320, Note_off_c, 1, 85, 0
2, 51320, Note_on_c, 1, 87, 127
2, 51360, Note_on_c, 1, 44, 127
2, 51360, Note_on_c, 1, 49, 127
2, 51360, Note_on_c, 1, 53, 127
2, 51360, Note_on_c, 1, 61, 127
2, 51360, Note_on_c, 1, 65, 127
2, 51360, Note_off_c, 1, 71, 0
2, 51360, Note_on_c, 1, 73, 127
2, 51360, Note_off_c, 1, 75, 0
2, 51360, Note_off_c, 1, 87, 0
2, 51840, Note_on_c, 1, 34, 127
2, 51840, Note_off_c, 1, 44, 0
2, 51840, Note_on_c, 1, 46, 127
2, 51840, Note_off_c, 1, 49, 0
2, 51840, Note_off_c, 1, 53, 0
2, 51840, Note_on_c, 1, 58, 127
2, 51840, Note_off_c, 1, 59, 0
2, 51840, Note_off_c, 1, 61, 0
2, 51840, Note_off_c, 1, 65, 0
2, 51840, Note_on_c, 1, 72, 127
2, 51840, Note_off_c, 1, 73, 0
2, 51880, Note_off_c, 1, 34, 0
2, 51880, Note_on_c, 1, 44, 127
2, 51880, Note_off_c, 1, 46, 0
2, 51880, Note_on_c, 1, 56, 127
2, 51880, Note_off_c, 1, 58, 0
2, 51880, Note_off_c, 1, 72, 0
2, 51880, Note_on_c, 1, 75, 127
2, 51880, Note_on_c, 1, 78, 127
2, 51880, Note_on_c, 1, 85, 127
2, 52360, Note_off_c, 1, 44, 0
2, 52360, Note_on_c, 1, 50, 127
2, 52360, Note_off_c, 1, 56, 0
2, 52360, Note_on_c, 1, 70, 127
2, 52360, Note_off_c, 1, 75, 0
2, 52360, Note_off_c, 1, 78, 0
2, 52360, Note_off_c, 1, 85, 0
2, 52400, Note_on_c, 1, 48, 127
2, 52400, Note_off_c, 1, 50, 0
2, 52400, Note_on_c, 1, 68, 127
2, 52400, Note_off_c, 1, 70, 0
2, 52400, Note_on_c, 1, 89, 127
2, 52400, Note_on_c, 1, 96, 127
2, 52400, Note_on_c, 1, 97, 127
2, 52440, Note_off_c, 1, 48, 0
2, 52440, Note_on_c, 1, 53, 127
2, 52440, Note_on_c, 1, 59, 127
2, 52440, Note_on_c, 1, 63, 127
2, 52440, Note_off_c, 1, 68, 0
2, 52440, Note_off_c, 1, 89, 0
2, 52440, Note_off_c, 1, 96, 0
2, 52440, Note_off_c, 1, 97, 0
2, 52440, Note_on_c, 1, 99, 127
2, 52440, Note_on_c, 1, 101, 127
2, 52480, Note_on_c, 1, 38, 127
2, 52480, Note_on_c, 1, 46, 127
2, 52480, Note_off_c, 1, 53, 0
2, 52480, Note_on_c, 1, 54, 127
2, 52480, Note_off_c, 1, 59, 0
2, 52480, Note_off_c, 1, 63, 0
2, 52480, Note_off_c, 1, 99, 0
2, 52480, Note_off_c, 1, 101, 0
2, 52520, Note_off_c, 1, 38, 0
2, 52520, Note_off_c, 1, 46, 0
2, 52520, Note_off_c, 1, 54, 0
2, 52520, Note_on_c, 1, 67, 127
2, 52520, Note_on_c, 1, 70, 127
2, 52520, Note_on_c, 1, 73, 127
2, 52520, Note_on_c, 1, 91, 127
2, 52560, Note_on_c, 1, 60, 127
2, 52560, Note_off_c, 1, 67, 0
2, 52560, Note_on_c, 1, 77, 127
2, 52560, Note_on_c, 1, 82, 127
2, 52560, Note_off_c, 1, 91, 0
2, 52600, Note_on_c, 1, 55, 127
2, 52600, Note_off_c, 1, 60, 0
2, 52600, Note_off_c, 1, 70, 0
2, 52600, Note_off_c, 1, 73, 0
2, 52600, Note_off_c, 1, 77, 0
2, 52600, Note_on_c, 1, 80, 127
2, 52600, Note_off_c, 1, 82, 0
2, 52600, Note_on_c, 1, 84, 127
2, 52600, Note_on_c, 1, 87, 127
2, 52640, Note_on_c, 1, 48, 127
2, 52640, Note_on_c, 1, 50, 127
2, 52640, Note_on_c, 1, 53, 127
2, 52640, Note_on_c, 1, 77, 127
2, 52640, Note_off_c, 1, 80, 0
2, 52640, Note_off_c, 1, 84, 0
2, 52640, Note_off_c, 1, 87, 0
2, 52680, Note_off_c, 1, 48, 0
2, 52680, Note_off_c, 1, 50, 0
2, 52680, Note_off_c, 1, 53, 0
2, 52680, Note_off_c, 1, 55, 0
2, 52680, Note_on_c, 1, 58, 127
2, 52680, Note_on_c, 1, 66, 127
2, 52680, Note_on_c, 1, 70, 127
2, 52680, Note_on_c, 1, 75, 127
2, 52680, Note_off_c, 1, 77, 0
2, 52680, Note_on_c, 1, 78, 127
2, 52680, Note_on_c, 1, 82, 127
2, 52720, Note_on_c, 1, 30, 127
2, 52720, Note_on_c, 1, 42, 127
2, 52720, Note_off_c, 1, 58, 0
2, 52720, Note_on_c, 1, 61, 127
2, 52720, Note_on_c, 1, 68, 127
2, 52720, Note_off_c, 1, 70, 0
2, 52720, Note_on_c, 1, 73, 127
2, 52720, Note_off_c, 1, 75, 0
2, 52720, Note_off_c, 1, 78, 0
2, 52720, Note_off_c, 1, 82, 0
2, 52720, Note_on_c, 1, 83, 127
2, 52720, Note_on_c, 1, 97, 127
2, 52760, Note_off_c, 1, 30, 0
2, 52760, Note_on_c, 1, 37, 127
2, 52760, Note_off_c, 1, 42, 0
2, 52760, Note_on_c, 1, 59, 127
2, 52760, Note_off_c, 1, 61, 0
2, 52760, Note_on_c, 1, 64, 127
2, 52760, Note_off_c, 1, 66, 0
2, 52760, Note_on_c, 1, 67, 127
2, 52760, Note_off_c, 1, 68, 0
2, 52760, Note_off_c, 1, 73, 0
2, 52760, Note_off_c, 1, 83, 0
2, 52760, Note_off_c, 1, 97, 0
2, 52800, Note_off_c, 1, 37, 0
2, 52800, Note_on_c, 1, 50, 127
2, 52800, Note_off_c, 1, 59, 0
2, 52800, Note_on_c, 1, 61, 127
2, 52800, Note_off_c, 1, 64, 0
2, 52800, Note_off_c, 1, 67, 0
2, 52800, Note_on_c, 1, 69, 127
2, 52800, Note_on_c, 1, 78, 127
2, 52800, Note_on_c, 1, 81, 127
2, 52840, Note_off_c, 1, 50, 0
2, 52840, Note_on_c, 1, 56, 127
2, 52840, Note_on_c, 1, 65, 127
2, 52840, Note_off_c, 1, 69, 0
2, 52840, Note_off_c, 1, 78, 0
2, 52840, Note_on_c, 1, 79, 127
2, 52840, Note_on_c, 1, 80, 127
2, 52840, Note_off_c, 1, 81, 0
2, 52880, Note_on_c, 1, 49, 127
2, 52880, Note_on_c, 1, 51, 127
2, 52880, Note_on_c, 1, 54, 127
2, 52880, Note_off_c, 1, 61, 0
2, 52880, Note_off_c, 1, 65, 0
2, 52880, Note_off_c, 1, 79, 0
2, 52920, Note_off_c, 1, 49, 0
2, 52920, Note_on_c, 1, 50, 127
2, 52920, Note_off_c, 1, 51, 0
2, 52920, Note_off_c, 1, 54, 0
2, 52920, Note_off_c, 1, 56, 0
2, 52920, Note_on_c, 1, 57, 127
2, 52920, Note_on_c, 1, 73, 127
2, 52920, Note_on_c, 1, 76, 127
2, 52920, Note_off_c, 1, 80, 0
2, 52960, Note_off_c, 1, 50, 0
2, 52960, Note_on_c, 1, 52, 127
2, 52960, Note_on_c, 1, 55, 127
2, 52960, Note_off_c, 1, 57, 0
2, 52960, Note_on_c, 1, 60, 127
2, 52960, Note_on_c, 1, 64, 127
2, 52960, Note_on_c, 1, 67, 127
2, 52960, Note_off_c, 1, 73, 0
2, 52960, Note_off_c, 1, 76, 0
2, 53000, Note_off_c, 1, 52, 0
2, 53000, Note_off_c, 1, 55, 0
2, 53000, Note_off_c, 1, 60, 0
2, 53000, Note_off_c, 1, 64, 0
2, 53000, Note_off_c, 1, 67, 0
2, 53040, Note_on_c, 1, 44, 127
2, 53040, Note_on_c, 1, 63, 127
2, 53040, Note_on_c, 1, 78, 127
2, 53080, Note_off_c, 1, 44, 0
2, 53080, Note_on_c, 1, 50, 127
2, 53080, Note_on_c, 1, 57, 127
2, 53080, Note_off_c, 1, 63, 0
2, 53080, Note_on_c, 1, 73, 127
2, 53080, Note_on_c, 1, 76, 127
2, 53080, Note_off_c, 1, 78, 0
2, 53160, Note_on_c, 1, 34, 127
2, 53160, Note_on_c, 1, 46, 127
2, 53160, Note_off_c, 1, 50, 0
2, 53160, Note_on_c, 1, 56, 127
2, 53160, Note_off_c, 1, 57, 0
2, 53160, Note_off_c, 1, 73, 0
2, 53160, Note_off_c, 1, 76, 0
2, 53200, Note_off_c, 1, 34, 0
2, 53200, Note_on_c, 1, 42, 127
2, 53200, Note_off_c, 1, 46, 0
2, 53200, Note_on_c, 1, 54, 127
2, 53200, Note_off_c, 1, 56, 0
2, 53200, Note_on_c, 1, 79, 127
2, 53200, Note_on_c, 1, 84, 127
2, 53200, Note_on_c, 1, 91, 127
2, 53240, Note_off_c, 1, 42, 0
2, 53240, Note_on_c, 1, 50, 127
2, 53240, Note_off_c, 1, 54, 0
2, 53240, Note_on_c, 1, 57, 127
2, 53240, Note_on_c, 1, 78, 127
2, 53240, Note_off_c, 1, 79, 0
2, 53240, Note_on_c, 1, 81, 127
2, 53240, Note_off_c, 1, 84, 0
2, 53240, Note_off_c, 1, 91, 0
2, 53280, Note_off_c, 1, 50, 0
2, 53280, Note_off_c, 1, 57, 0
2, 53280, Note_on_c, 1, 65, 127
2, 53280, Note_on_c, 1, 77, 127
2, 53280, Note_off_c, 1, 78, 0
2, 53280, Note_off_c, 1, 81, 0
2, 53280, Note_on_c, 1, 93, 127
2, 53320, Note_off_c, 1, 65, 0
2, 53320, Note_off_c, 1, 77, 0
2, 53320, Note_on_c, 1, 79, 127
2, 53320, Note_on_c, 1, 84, 127
2, 53320, Note_on_c, 1, 91, 127
2, 53320, Note_off_c, 1, 93, 0
2, 53360, Note_on_c, 1, 31, 127
2, 53360, Note_on_c, 1, 43, 127
2, 53360, Note_on_c, 1, 50, 127
2, 53360, Note_on_c, 1, 62, 127
2, 53360, Note_on_c, 1, 71, 127
2, 53360, Note_off_c, 1, 79, 0
2, 53360, Note_on_c, 1, 83, 127
2, 53360, Note_off_c, 1, 84, 0
2, 53360, Note_off_c, 1, 91, 0
2, 53400, Note_off_c, 1, 31, 0
2, 53400, Note_off_c, 1, 50, 0
2, 53400, Note_on_c, 1, 58, 127
2, 53400, Note_on_c, 1, 65, 127
2, 53400, Note_off_c, 1, 71, 0
2, 53400, Note_on_c, 1, 79, 127
2, 53400, Note_off_c, 1, 83, 0
2, 53440, Note_off_c, 1, 43, 0
2, 53440, Note_off_c, 1, 58, 0
2, 53440, Note_off_c, 1, 62, 0
2, 53440, Note_off_c, 1, 65, 0
2, 53440, Note_off_c, 1, 79, 0
2, 53480, Note_on_c, 1, 50, 127
2, 53480, Note_on_c, 1, 55, 127
2, 53480, Note_on_c, 1, 59, 127
2, 53480, Note_on_c, 1, 95, 127
2, 53520, Note_on_c, 1, 46, 127
2, 53520, Note_off_c, 1, 50, 0
2, 53520, Note_off_c, 1, 55, 0
2, 53520, Note_on_c, 1, 58, 127
2, 53520, Note_off_c, 1, 59, 0
2, 53520, Note_on_c, 1, 60, 127
2, 53520, Note_on_c, 1, 67, 127
2, 53520, Note_on_c, 1, 72, 127
2, 53520, Note_off_c, 1, 95, 0
2, 53560, Note_on_c, 1, 31, 127
2, 53560, Note_on_c, 1, 43, 127
2, 53560, Note_off_c, 1, 46, 0
2, 53560, Note_off_c, 1, 58, 0
2, 53560, Note_off_c, 1, 60, 0
2, 53560, Note_on_c, 1, 71, 127
2, 53560, Note_off_c, 1, 72, 0
2, 53560, Note_on_c, 1, 74, 127
2, 53600, Note_off_c, 1, 31, 0
2, 53600, Note_off_c, 1, 43, 0
2, 53600, Note_on_c, 1, 61, 127
2, 53600, Note_off_c, 1, 67, 0
2, 53600, Note_off_c, 1, 71, 0
2, 53600, Note_off_c, 1, 74, 0
2, 53600, Note_on_c, 1, 76, 127
2, 53600, Note_on_c, 1, 79, 127
2, 53600, Note_on_c, 1, 82, 127
2, 53600, Note_on_c, 1, 88, 127
2, 53640, Note_off_c, 1, 61, 0
2, 53640, Note_on_c, 1, 63, 127
2, 53640, Note_on_c, 1, 69, 127
2, 53640, Note_off_c, 1, 76, 0
2, 53640, Note_off_c, 1, 79, 0
2, 53640, Note_off_c, 1, 82, 0
2, 53640, Note_off_c, 1, 88, 0
2, 53640, Note_on_c, 1, 96, 127
2, 53680, Note_on_c, 1, 57, 127
2, 53680, Note_on_c, 1, 59, 127
2, 53680, Note_on_c, 1, 62, 127
2, 53680, Note_off_c, 1, 63, 0
2, 53680, Note_off_c, 1, 69, 0
2, 53680, Note_off_c, 1, 96, 0
2, 53720, Note_on_c, 1, 38, 127
2, 53720, Note_on_c, 1, 46, 127
2, 53720, Note_off_c, 1, 57, 0
2, 53720, Note_off_c, 1, 59, 0
2, 53720, Note_on_c, 1, 66, 127
2, 53840, Note_on_c, 1, 29, 127
2, 53840, Note_off_c, 1, 38, 0
2, 53840, Note_on_c, 1, 41, 127
2, 53840, Note_off_c, 1, 46, 0
2, 53840, Note_off_c, 1, 62, 0
2, 53840, Note_on_c, 1, 64, 127
2, 53840, Note_off_c, 1, 66, 0
2, 53840, Note_on_c, 1, 79, 127
2, 53880, Note_off_c, 1, 29, 0
2, 53880, Note_on_c, 1, 33, 127
2, 53880, Note_off_c, 1, 41, 0
2, 53880, Note_on_c, 1, 45, 127
2, 53880, Note_on_c, 1, 61, 127
2, 53880, Note_off_c, 1, 64, 0
2, 53880, Note_on_c, 1, 67, 127
2, 53880, Note_off_c, 1, 79, 0
2, 53920, Note_off_c, 1, 33, 0
2, 53920, Note_on_c, 1, 38, 127
2, 53920, Note_on_c, 1, 58, 127
2, 53920, Note_off_c, 1, 61, 0
2, 53920, Note_off_c, 1, 67, 0
2, 53960, Note_off_c, 1, 38, 0
2, 53960, Note_off_c, 1, 58, 0
2, 54000, Note_off_c, 1, 45, 0
2, 54000, Note_on_c, 1, 47, 127
2, 54000, Note_on_c, 1, 50, 127
2, 54000, Note_on_c, 1, 54, 127
2, 54000, Note_on_c, 1, 59, 127
2, 54000, Note_on_c, 1, 74, 127
2, 54240, Note_off_c, 1, 47, 0
2, 54240, Note_off_c, 1, 50, 0
2, 54240, Note_on_c, 1, 53, 127
2, 54240, Note_off_c, 1, 54, 0
2, 54240, Note_on_c, 1, 57, 127
2, 54240, Note_off_c, 1, 59, 0
2, 54240, Note_on_c, 1, 62, 127
2, 54240, Note_off_c, 1, 74, 0
2, 54240, Note_on_c, 1, 77, 127
2, 54240, Note_on_c, 1, 89, 127
2, 54280, Note_off_c, 1, 53, 0
2, 54280, Note_off_c, 1, 57, 0
2, 54280, Note_on_c, 1, 58, 127
2, 54280, Note_on_c, 1, 68, 127
2, 54280, Note_on_c, 1, 70, 127
2, 54280, Note_on_c, 1, 74, 127
2, 54280, Note_off_c, 1, 77, 0
2, 54280, Note_on_c, 1, 80, 127
2, 54280, Note_off_c, 1, 89, 0
2, 54320, Note_on_c, 1, 53, 127
2, 54320, Note_on_c, 1, 57, 127
2, 54320, Note_off_c, 1, 58, 0
2, 54320, Note_off_c, 1, 68, 0
2, 54320, Note_off_c, 1, 70, 0
2, 54320, Note_off_c, 1, 74, 0
2, 54320, Note_on_c, 1, 77, 127
2, 54320, Note_off_c, 1, 80, 0
2, 54320, Note_on_c, 1, 89, 127
2, 54360, Note_on_c, 1, 32, 127
2, 54360, Note_off_c, 1, 53, 0
2, 54360, Note_off_c, 1, 57, 0
2, 54360, Note_off_c, 1, 62, 0
2, 54360, Note_on_c, 1, 75, 127
2, 54360, Note_off_c, 1, 77, 0
2, 54360, Note_off_c, 1, 89, 0
2, 54400, Note_off_c, 1, 32, 0
2, 54400, Note_on_c, 1, 39, 127
2, 54400, Note_off_c, 1, 75, 0
2, 54400, Note_on_c, 1, 85, 127
2, 54400, Note_on_c, 1, 94, 127
2, 54400, Note_on_c, 1, 97, 127
2, 54440, Note_off_c, 1, 39, 0
2, 54440, Note_on_c, 1, 43, 127
2, 54440, Note_on_c, 1, 50, 127
2, 54440, Note_on_c, 1, 55, 127
2, 54440, Note_on_c, 1, 58, 127
2, 54440, Note_on_c, 1, 67, 127
2, 54440, Note_off_c, 1, 85, 0
2, 54440, Note_off_c, 1, 94, 0
2, 54440, Note_off_c, 1, 97, 0
2, 54480, Note_off_c, 1, 43, 0
2, 54480, Note_off_c, 1, 50, 0
2, 54480, Note_off_c, 1, 55, 0
2, 54480, Note_off_c, 1, 58, 0
2, 54480, Note_off_c, 1, 67, 0
2, 54520, Note_on_c, 1, 53, 127
2, 54520, Note_on_c, 1, 60, 127
2, 54520, Note_on_c, 1, 63, 127
2, 54520, Note_on_c, 1, 69, 127
2, 54520, Note_on_c, 1, 72, 127
2, 54520, Note_on_c, 1, 81, 127
2, 54720, Note_on_c, 1, 33, 127
2, 54720, Note_on_c, 1, 50, 127
2, 54720, Note_off_c, 1, 53, 0
2, 54720, Note_on_c, 1, 57, 127
2, 54720, Note_off_c, 1, 60, 0
2, 54720, Note_off_c, 1, 63, 0
2, 54720, Note_off_c, 1, 69, 0
2, 54720, Note_off_c, 1, 72, 0
2, 54720, Note_off_c, 1, 81, 0
2, 54760, Note_off_c, 1, 33, 0
2, 54760, Note_on_c, 1, 42, 127
2, 54760, Note_on_c, 1, 46, 127
2, 54760, Note_on_c, 1, 47, 127
2, 54760, Note_off_c, 1, 50, 0
2, 54760, Note_off_c, 1, 57, 0
2, 54760, Note_on_c, 1, 59, 127
2, 54760, Note_on_c, 1, 66, 127
2, 54760, Note_on_c, 1, 70, 127
2, 54880, Note_off_c, 1, 42, 0
2, 54880, Note_off_c, 1, 46, 0
2, 54880, Note_off_c, 1, 47, 0
2, 54880, Note_on_c, 1, 57, 127
2, 54880, Note_off_c, 1, 59, 0
2, 54880, Note_on_c, 1, 62, 127
2, 54880, Note_on_c, 1, 64, 127
2, 54880, Note_off_c, 1, 66, 0
2, 54880, Note_on_c, 1, 67, 127
2, 54880, Note_off_c, 1, 70, 0
2, 54920, Note_on_c, 1, 47, 127
2, 54920, Note_on_c, 1, 56, 127
2, 54920, Note_off_c, 1, 57, 0
2, 54920, Note_off_c, 1, 62, 0
2, 54920, Note_off_c, 1, 64, 0
2, 54920, Note_off_c, 1, 67, 0
2, 54920, Note_on_c, 1, 78, 127
2, 54920, Note_on_c, 1, 80, 127
2, 54960, Note_off_c, 1, 56, 0
2, 54960, Note_on_c, 1, 63, 127
2, 54960, Note_on_c, 1, 69, 127
2, 54960, Note_on_c, 1, 72, 127
2, 54960, Note_off_c, 1, 78, 0
2, 54960, Note_off_c, 1, 80, 0
2, 55000, Note_on_c, 1, 42, 127
2, 55000, Note_off_c, 1, 47, 0
2, 55000, Note_off_c, 1, 63, 0
2, 55000, Note_off_c, 1, 69, 0
2, 55000, Note_off_c, 1, 72, 0
2, 55000, Note_on_c, 1, 73, 127
2, 55000, Note_on_c, 1, 77, 127
2, 55040, Note_on_c, 1, 36, 127
2, 55040, Note_off_c, 1, 42, 0
2, 55040, Note_on_c, 1, 46, 127
2, 55040, Note_off_c, 1, 73, 0
2, 55040, Note_off_c, 1, 77, 0
2, 55040, Note_on_c, 1, 87, 127
2, 55080, Note_off_c, 1, 36, 0
2, 55080, Note_on_c, 1, 39, 127
2, 55080, Note_on_c, 1, 42, 127
2, 55080, Note_off_c, 1, 46, 0
2, 55080, Note_on_c, 1, 51, 127
2, 55080, Note_on_c, 1, 75, 127
2, 55080, Note_on_c, 1, 78, 127
2, 55080, Note_on_c, 1, 83, 127
2, 55120, Note_off_c, 1, 39, 0
2, 55120, Note_off_c, 1, 42, 0
2, 55120, Note_off_c, 1, 51, 0
2, 55120, Note_off_c, 1, 75, 0
2, 55120, Note_off_c, 1, 78, 0
2, 55120, Note_off_c, 1, 83, 0
2, 55120, Note_off_c, 1, 87, 0
2, 55160, Note_on_c, 1, 52, 127
2, 55160, Note_on_c, 1, 58, 127
2, 55160, Note_on_c, 1, 64, 127
2, 55160, Note_on_c, 1, 73, 127
2, 55200, Note_on_c, 1, 43, 127
2, 55200, Note_on_c, 1, 49, 127
2, 55200, Note_off_c, 1, 52, 0
2, 55200, Note_on_c, 1, 53, 127
2, 55200, Note_off_c, 1, 58, 0
2, 55200, Note_off_c, 1, 64, 0
2, 55200, Note_on_c, 1, 65, 127
2, 55200, Note_off_c, 1, 73, 0
2, 55240, Note_off_c, 1, 43, 0
2, 55240, Note_on_c, 1, 45, 127
2, 55240, Note_off_c, 1, 49, 0
2, 55240, Note_on_c, 1, 52, 127
2, 55240, Note_off_c, 1, 53, 0
2, 55240, Note_on_c, 1, 55, 127
2, 55240, Note_on_c, 1, 70, 127
2, 55240, Note_on_c, 1, 74, 127
2, 55240, Note_on_c, 1, 77, 127
2, 55280, Note_off_c, 1, 45, 0
2, 55280, Note_off_c, 1, 52, 0
2, 55280, Note_off_c, 1, 55, 0
2, 55280, Note_on_c, 1, 63, 127
2, 55280, Note_off_c, 1, 65, 0
2, 55280, Note_on_c, 1, 67, 127
2, 55280, Note_off_c, 1, 77, 0
2, 55320, Note_on_c, 1, 45, 127
2, 55320, Note_on_c, 1, 51, 127
2, 55320, Note_on_c, 1, 53, 127
2, 55320, Note_off_c, 1, 63, 0
2, 55320, Note_off_c, 1, 67, 0
2, 55320, Note_on_c, 1, 69, 127
2, 55320, Note_off_c, 1, 70, 0
2, 55320, Note_off_c, 1, 74, 0
2, 55320, Note_on_c, 1, 81, 127
2, 55360, Note_off_c, 1, 45, 0
2, 55360, Note_off_c, 1, 51, 0
2, 55360, Note_off_c, 1, 53, 0
2, 55360, Note_on_c, 1, 58, 127
2, 55360, Note_on_c, 1, 68, 127
2, 55360, Note_off_c, 1, 69, 0
2, 55360, Note_off_c, 1, 81, 0
2, 55360, Note_on_c, 1, 82, 127
2, 55360, Note_on_c, 1, 86, 127
2, 55360, Note_on_c, 1, 94, 127
2, 55400, Note_on_c, 1, 38, 127
2, 55400, Note_on_c, 1, 48, 127
2, 55400, Note_on_c, 1, 50, 127
2, 55400, Note_off_c, 1, 58, 0
2, 55400, Note_off_c, 1, 68, 0
2, 55400, Note_off_c, 1, 82, 0
2, 55400, Note_off_c, 1, 86, 0
2, 55400, Note_off_c, 1, 94, 0
2, 55440, Note_off_c, 1, 38, 0
2, 55440, Note_off_c, 1, 48, 0
2, 55440, Note_on_c, 1, 65, 127
2, 55440, Note_on_c, 1, 71, 127
2, 55440, Note_on_c, 1, 74, 127
2, 55440, Note_on_c, 1, 77, 127
2, 55440, Note_on_c, 1, 83, 127
2, 55480, Note_off_c, 1, 50, 0
2, 55480, Note_on_c, 1, 57, 127
2, 55480, Note_on_c, 1, 62, 127
2, 55480, Note_off_c, 1, 65, 0
2, 55480, Note_off_c, 1, 77, 0
2, 55480, Note_on_c, 1, 78, 127
2, 55480, Note_off_c, 1, 83, 0
2, 55520, Note_on_c, 1, 51, 127
2, 55520, Note_on_c, 1, 54, 127
2, 55520, Note_on_c, 1, 60, 127
2, 55520, Note_off_c, 1, 62, 0
2, 55520, Note_on_c, 1, 63, 127
2, 55520, Note_off_c, 1, 71, 0
2, 55520, Note_off_c, 1, 74, 0
2, 55520, Note_off_c, 1, 78, 0
2, 55520, Note_on_c, 1, 81, 127
2, 55520, Note_on_c, 1, 84, 127
2, 55560, Note_off_c, 1, 51, 0
2, 55560, Note_off_c, 1, 54, 0
2, 55560, Note_off_c, 1, 57, 0
2, 55560, Note_off_c, 1, 60, 0
2, 55560, Note_off_c, 1, 63, 0
2, 55560, Note_off_c, 1, 81, 0
2, 55560, Note_off_c, 1, 84, 0
2, 55600, Note_on_c, 1, 58, 127
2, 55600, Note_on_c, 1, 61, 127
2, 55600, Note_on_c, 1, 65, 127
2, 55600, Note_on_c, 1, 70, 127
2, 55600, Note_on_c, 1, 73, 127
2, 55600, Note_on_c, 1, 82, 127
2, 55600, Note_on_c, 1, 85, 127
2, 55640, Note_on_c, 1, 54, 127
2, 55640, Note_off_c, 1, 58, 0
2, 55640, Note_off_c, 1, 61, 0
2, 55640, Note_off_c, 1, 65, 0
2, 55640, Note_on_c, 1, 66, 127
2, 55640, Note_on_c, 1, 69, 127
2, 55640, Note_off_c, 1, 70, 0
2, 55640, Note_on_c, 1, 72, 127
2, 55640, Note_off_c, 1, 73, 0
2, 55640, Note_on_c, 1, 74, 127
2, 55640, Note_off_c, 1, 82, 0
2, 55640, Note_off_c, 1, 85, 0
2, 55680, Note_off_c, 1, 54, 0
2, 55680, Note_off_c, 1, 66, 0
2, 55680, Note_off_c, 1, 69, 0
2, 55680, Note_on_c, 1, 70, 127
2, 55680, Note_off_c, 1, 72, 0
2, 55680, Note_off_c, 1, 74, 0
2, 55680, Note_on_c, 1, 75, 127
2, 55680, Note_on_c, 1, 87, 127
2, 55680, Note_on_c, 1, 91, 127
2, 55720, Note_on_c, 1, 45, 127
2, 55720, Note_on_c, 1, 49, 127
2, 55720, Note_on_c, 1, 67, 127
2, 55720, Note_off_c, 1, 70, 0
2, 55720, Note_off_c, 1, 75, 0
2, 55720, Note_on_c, 1, 79, 127
2, 55720, Note_off_c, 1, 87, 0
2, 55720, Note_off_c, 1, 91, 0
2, 55760, Note_on_c, 1, 44, 127
2, 55760, Note_off_c, 1, 45, 0
2, 55760, Note_off_c, 1, 49, 0
2, 55760, Note_on_c, 1, 54, 127
2, 55760, Note_on_c, 1, 57, 127
2, 55760, Note_on_c, 1, 60, 127
2, 55760, Note_on_c, 1, 63, 127
2, 55760, Note_off_c, 1, 67, 0
2, 55760, Note_off_c, 1, 79, 0
2, 55800, Note_off_c, 1, 44, 0
2, 55800, Note_off_c, 1, 54, 0
2, 55800, Note_off_c, 1, 57, 0
2, 55800, Note_off_c, 1, 60, 0
2, 55800, Note_on_c, 1, 62, 127
2, 55800, Note_off_c, 1, 63, 0
2, 55800, Note_on_c, 1, 64, 127
2, 55800, Note_on_c, 1, 68, 127
2, 55800, Note_on_c, 1, 73, 127
2, 55800, Note_on_c, 1, 76, 127
2, 55840, Note_off_c, 1, 62, 0
2, 55840, Note_off_c, 1, 64, 0
2, 55840, Note_off_c, 1, 68, 0
2, 55840, Note_on_c, 1, 70, 127
2, 55840, Note_off_c, 1, 73, 0
2, 55840, Note_on_c, 1, 78, 127
2, 55840, Note_on_c, 1, 85, 127
2, 55840, Note_on_c, 1, 88, 127
2, 55840, Note_on_c, 1, 94, 127
2, 56040, Note_on_c, 1, 40, 127
2, 56040, Note_on_c, 1, 46, 127
2, 56040, Note_on_c, 1, 48, 127
2, 56040, Note_on_c, 1, 55, 127
2, 56040, Note_off_c, 1, 70, 0
2, 56040, Note_off_c, 1, 78, 0
2, 56040, Note_on_c, 1, 84, 127
2, 56040, Note_off_c, 1, 85, 0
2, 56040, Note_off_c, 1, 88, 0
2, 56040, Note_on_c, 1, 90, 127
2, 56040, Note_off_c, 1, 94, 0
2, 56080, Note_off_c, 1, 40, 0
2, 56080, Note_off_c, 1, 46, 0
2, 56080, Note_off_c, 1, 48, 0
2, 56080, Note_off_c, 1, 55, 0
2, 56080, Note_on_c, 1, 71, 127
2, 56080, Note_on_c, 1, 80, 127
2, 56080, Note_off_c, 1, 84, 0
2, 56080, Note_off_c, 1, 90, 0
2, 56120, Note_on_c, 1, 40, 127
2, 56120, Note_off_c, 1, 71, 0
2, 56120, Note_off_c, 1, 76, 0
2, 56120, Note_off_c, 1, 80, 0
2, 56120, Note_on_c, 1, 81, 127
2, 56120, Note_on_c, 1, 90, 127
2, 56120, Note_on_c, 1, 93, 127
2, 56600, Note_off_c, 1, 40, 0
2, 56600, Note_off_c, 1, 81, 0
2, 56600, Note_off_c, 1, 90, 0
2, 56600, Note_off_c, 1, 93, 0
2, 56640, Note_on_c, 1, 53, 127
2, 56640, Note_on_c, 1, 82, 127
2, 56640, Note_on_c, 1, 86, 127
2, 56640, Note_on_c, 1, 94, 127
2, 56880, Note_off_c, 1, 53, 0
2, 56880, Note_on_c, 1, 61, 127
2, 56880, Note_on_c, 1, 76, 127
2, 56880, Note_off_c, 1, 86, 0
2, 56880, Note_on_c, 1, 88, 127
2, 56880, Note_off_c, 1, 94, 0
2, 56920, Note_on_c, 1, 58, 127
2, 56920, Note_on_c, 1, 65, 127
2, 56920, Note_on_c, 1, 75, 127
2, 56920, Note_off_c, 1, 76, 0
2, 56920, Note_on_c, 1, 79, 127
2, 56920, Note_off_c, 1, 88, 0
2, 56960, Note_on_c, 1, 46, 127
2, 56960, Note_on_c, 1, 64, 127
2, 56960, Note_off_c, 1, 65, 0
2, 56960, Note_on_c, 1, 73, 127
2, 56960, Note_off_c, 1, 75, 0
2, 56960, Note_off_c, 1, 79, 0
2, 56960, Note_off_c, 1, 82, 0
2, 57000, Note_on_c, 1, 50, 127
2, 57000, Note_on_c, 1, 54, 127
2, 57000, Note_off_c, 1, 58, 0
2, 57000, Note_on_c, 1, 60, 127
2, 57000, Note_off_c, 1, 61, 0
2, 57000, Note_off_c, 1, 64, 0
2, 57000, Note_on_c, 1, 69, 127
2, 57000, Note_off_c, 1, 73, 0
2, 57040, Note_on_c, 1, 32, 127
2, 57040, Note_on_c, 1, 44, 127
2, 57040, Note_off_c, 1, 46, 0
2, 57040, Note_off_c, 1, 50, 0
2, 57040, Note_off_c, 1, 54, 0
2, 57040, Note_off_c, 1, 60, 0
2, 57040, Note_off_c, 1, 69, 0
2, 57040, Note_on_c, 1, 80, 127
2, 57040, Note_on_c, 1, 83, 127
2, 57040, Note_on_c, 1, 88, 127
2, 57040, Note_on_c, 1, 92, 127
2, 57080, Note_off_c, 1, 32, 0
2, 57080, Note_on_c, 1, 39, 127
2, 57080, Note_off_c, 1, 44, 0
2, 57080, Note_on_c, 1, 51, 127
2, 57080, Note_on_c, 1, 60, 127
2, 57080, Note_on_c, 1, 72, 127
2, 57080, Note_on_c, 1, 75, 127
2, 57080, Note_off_c, 1, 80, 0
2, 57080, Note_off_c, 1, 83, 0
2, 57080, Note_off_c, 1, 88, 0
2, 57080, Note_off_c, 1, 92, 0
2, 57120, Note_off_c, 1, 39, 0
2, 57120, Note_on_c, 1, 46, 127
2, 57120, Note_on_c, 1, 50, 127
2, 57120, Note_off_c, 1, 51, 0
2, 57120, Note_on_c, 1, 53, 127
2, 57120, Note_off_c, 1, 60, 0
2, 57120, Note_on_c, 1, 63, 127
2, 57120, Note_on_c, 1, 65, 127
2, 57120, Note_off_c, 1, 72, 0
2, 57120, Note_off_c, 1, 75, 0
2, 57160, Note_on_c, 1, 34, 127
2, 57160, Note_on_c, 1, 41, 127
2, 57160, Note_off_c, 1, 50, 0
2, 57160, Note_on_c, 1, 58, 127
2, 57560, Note_off_c, 1, 34, 0
2, 57560, Note_off_c, 1, 41, 0
2, 57560, Note_off_c, 1, 46, 0
2, 57560, Note_off_c, 1, 53, 0
2, 57560, Note_off_c, 1, 58, 0
2, 57560, Note_off_c, 1, 63, 0
2, 57560, Note_off_c, 1, 65, 0
2, 57600, Note_on_c, 1, 34, 127
2, 57600, Note_on_c, 1, 41, 127
2, 57600, Note_on_c, 1, 46, 127
2, 57600, Note_on_c, 1, 53, 127
2, 57600, Note_on_c, 1, 58, 127
2, 57600, Note_on_c, 1, 63, 127
2, 57600, Note_on_c, 1, 65, 127
2, 58200, Note_on_c, 1, 27, 127
2, 58200, Note_off_c, 1, 34, 0
2, 58200, Note_off_c, 1, 41, 0
2, 58200, Note_off_c, 1, 46, 0
2, 58200, Note_off_c, 1, 53, 0
2, 58200, Note_off_c, 1, 58, 0
2, 58200, Note_off_c, 1, 63, 0
2, 58200, Note_off_c, 1, 65, 0
2, 58200, Note_on_c, 1, 66, 127
2, 58200, Note_on_c, 1, 72, 127
2, 58240, Note_off_c, 1, 27, 0
2, 58240, Note_on_c, 1, 48, 127
2, 58240, Note_on_c, 1, 56, 127
2, 58240, Note_off_c, 1, 66, 0
2, 58240, Note_off_c, 1, 72, 0
2, 58240, Note_on_c, 1, 75, 127
2, 58240, Note_on_c, 1, 85, 127
2, 58320, Note_on_c, 1, 44, 127
2, 58320, Note_off_c, 1, 48, 0
2, 58320, Note_off_c, 1, 56, 0
2, 58320, Note_on_c, 1, 73, 127
2, 58320, Note_on_c, 1, 82, 127
2, 58320, Note_off_c, 1, 85, 0
2, 58360, Note_off_c, 1, 44, 0
2, 58360, Note_on_c, 1, 48, 127
2, 58360, Note_on_c, 1, 56, 127
2, 58360, Note_off_c, 1, 73, 0
2, 58360, Note_off_c, 1, 82, 0
2, 58360, Note_on_c, 1, 85, 127
2, 58440, Note_on_c, 1, 33, 127
2, 58440, Note_on_c, 1, 40, 127
2, 58440, Note_on_c, 1, 45, 127
2, 58440, Note_off_c, 1, 48, 0
2, 58440, Note_on_c, 1, 49, 127
2, 58440, Note_off_c, 1, 56, 0
2, 58440, Note_off_c, 1, 75, 0
2, 58440, Note_off_c, 1, 85, 0
2, 58480, Note_off_c, 1, 33, 0
2, 58480, Note_off_c, 1, 40, 0
2, 58480, Note_off_c, 1, 49, 0
2, 58480, Note_on_c, 1, 55, 127
2, 58480, Note_on_c, 1, 62, 127
2, 58480, Note_on_c, 1, 65, 127
2, 58480, Note_on_c, 1, 74, 127
2, 58600, Note_off_c, 1, 45, 0
2, 58600, Note_off_c, 1, 55, 0
2, 58600, Note_on_c, 1, 59, 127
2, 58600, Note_off_c, 1, 62, 0
2, 58600, Note_on_c, 1, 64, 127
2, 58600, Note_off_c, 1, 65, 0
2, 58600, Note_on_c, 1, 68, 127
2, 58600, Note_on_c, 1, 71, 127
2, 58600, Note_off_c, 1, 74, 0
2, 58600, Note_on_c, 1, 83, 127
2, 58640, Note_on_c, 1, 50, 127
2, 58640, Note_off_c, 1, 59, 0
2, 58640, Note_off_c, 1, 64, 0
2, 58640, Note_off_c, 1, 68, 0
2, 58640, Note_off_c, 1, 71, 0
2, 58640, Note_off_c, 1, 83, 0
2, 58640, Note_on_c, 1, 89, 127
2, 58640, Note_on_c, 1, 92, 127
2, 58680, Note_off_c, 1, 50, 0
2, 58680, Note_off_c, 1, 89, 0
2, 58680, Note_off_c, 1, 92, 0
2, 58720, Note_on_c, 1, 44, 127
2, 58720, Note_on_c, 1, 51, 127
2, 58720, Note_on_c, 1, 55, 127
2, 58720, Note_on_c, 1, 59, 127
2, 58920, Note_off_c, 1, 44, 0
2, 58920, Note_off_c, 1, 59, 0
2, 58920, Note_on_c, 1, 60, 127
2, 58920, Note_on_c, 1, 61, 127
2, 58920, Note_on_c, 1, 72, 127
2, 58920, Note_on_c, 1, 75, 127
2, 58960, Note_on_c, 1, 44, 127
2, 58960, Note_on_c, 1, 59, 127
2, 58960, Note_off_c, 1, 60, 0
2, 58960, Note_off_c, 1, 61, 0
2, 58960, Note_off_c, 1, 72, 0
2, 58960, Note_off_c, 1, 75, 0
2, 59160, Note_on_c, 1, 34, 127
2, 59160, Note_off_c, 1, 44, 0
2, 59160, Note_on_c, 1, 46, 127
2, 59160, Note_on_c, 1, 54, 127
2, 59160, Note_off_c, 1, 55, 0
2, 59160, Note_off_c, 1, 59, 0
2, 59200, Note_off_c, 1, 34, 0
2, 59200, Note_off_c, 1, 46, 0
2, 59200, Note_off_c, 1, 51, 0
2, 59200, Note_off_c, 1, 54, 0
2, 59200, Note_on_c, 1, 69, 127
2, 59200, Note_on_c, 1, 72, 127
2, 59200, Note_on_c, 1, 75, 127
2, 59240, Note_on_c, 1, 40, 127
2, 59240, Note_on_c, 1, 62, 127
2, 59240, Note_on_c, 1, 64, 127
2, 59240, Note_on_c, 1, 68, 127
2, 59240, Note_off_c, 1, 69, 0
2, 59240, Note_off_c, 1, 72, 0
2, 59240, Note_on_c, 1, 73, 127
2, 59240, Note_off_c, 1, 75, 0
2, 59240, Note_on_c, 1, 76, 127
2, 59480, Note_off_c, 1, 40, 0
2, 59480, Note_on_c, 1, 44, 127
2, 59480, Note_on_c, 1, 60, 127
2, 59480, Note_off_c, 1, 62, 0
2, 59480, Note_on_c, 1, 63, 127
2, 59480, Note_off_c, 1, 64, 0
2, 59480, Note_off_c, 1, 68, 0
2, 59480, Note_on_c, 1, 70, 127
2, 59480, Note_off_c, 1, 73, 0
2, 59480, Note_off_c, 1, 76, 0
2, 59520, Note_on_c, 1, 50, 127
2, 59520, Note_on_c, 1, 52, 127
2, 59520, Note_on_c, 1, 56, 127
2, 59520, Note_off_c, 1, 60, 0
2, 59520, Note_off_c, 1, 63, 0
2, 59520, Note_off_c, 1, 70, 0
2, 59520, Note_on_c, 1, 71, 127
2, 59520, Note_on_c, 1, 74, 127
2, 59520, Note_on_c, 1, 76, 127
2, 59520, Note_on_c, 1, 83, 127
2, 59560, Note_off_c, 1, 44, 0
2, 59560, Note_off_c, 1, 50, 0
2, 59560, Note_off_c, 1, 52, 0
2, 59560, Note_off_c, 1, 56, 0
2, 59560, Note_off_c, 1, 71, 0
2, 59560, Note_off_c, 1, 74, 0
2, 59560, Note_off_c, 1, 76, 0
2, 59560, Note_off_c, 1, 83, 0
2, 59600, Note_on_c, 1, 72, 127
2, 59600, Note_on_c, 1, 74, 127
2, 59600, Note_on_c, 1, 79, 127
2, 59600, Note_on_c, 1, 89, 127
2, 59600, Note_on_c, 1, 91, 127
2, 59600, Note_on_c, 1, 95, 127
2, 59640, Note_on_c, 1, 42, 127
2, 59640, Note_on_c, 1, 55, 127
2, 59640, Note_off_c, 1, 72, 0
2, 59640, Note_off_c, 1, 74, 0
2, 59640, Note_on_c, 1, 76, 127
2, 59640, Note_off_c, 1, 79, 0
2, 59640, Note_on_c, 1, 81, 127
2, 59640, Note_off_c, 1, 89, 0
2, 59640, Note_off_c, 1, 91, 0
2, 59640, Note_off_c, 1, 95, 0
2, 59680, Note_on_c, 1, 41, 127
2, 59680, Note_off_c, 1, 42, 0
2, 59680, Note_on_c, 1, 48, 127
2, 59680, Note_on_c, 1, 51, 127
2, 59680, Note_off_c, 1, 55, 0
2, 59680, Note_off_c, 1, 76, 0
2, 59680, Note_off_c, 1, 81, 0
2, 59680, Note_on_c, 1, 89, 127
2, 59720, Note_off_c, 1, 41, 0
2, 59720, Note_off_c, 1, 48, 0
2, 59720, Note_off_c, 1, 51, 0
2, 59720, Note_on_c, 1, 55, 127
2, 59720, Note_on_c, 1, 63, 127
2, 59720, Note_on_c, 1, 67, 127
2, 59720, Note_on_c, 1, 71, 127
2, 59720, Note_on_c, 1, 74, 127
2, 59720, Note_off_c, 1, 89, 0
2, 59760, Note_off_c, 1, 55, 0
2, 59760, Note_off_c, 1, 63, 0
2, 59760, Note_off_c, 1, 67, 0
2, 59760, Note_off_c, 1, 71, 0
2, 59760, Note_off_c, 1, 74, 0
2, 59800, Note_on_c, 1, 40, 127
2, 59800, Note_on_c, 1, 45, 127
2, 59800, Note_on_c, 1, 52, 127
2, 59800, Note_on_c, 1, 61, 127
2, 59800, Note_on_c, 1, 67, 127
2, 59800, Note_on_c, 1, 69, 127
2, 60280, Note_off_c, 1, 40, 0
2, 60320, Note_on_c, 1, 43, 127
2, 60760, Note_off_c, 1, 43, 0
2, 60760, Note_off_c, 1, 45, 0
2, 60760, Note_off_c, 1, 52, 0
2, 60760, Note_on_c, 1, 58, 127
2, 60760, Note_on_c, 1, 63, 127
2, 60760, Note_off_c, 1, 69, 0
2, 60760, Note_on_c, 1, 70, 127
2, 60760, Note_on_c, 1, 75, 127
2, 60760, Note_on_c, 1, 82, 127
2, 60800, Note_on_c, 1, 43, 127
2, 60800, Note_on_c, 1, 45, 127
2, 60800, Note_on_c, 1, 52, 127
2, 60800, Note_off_c, 1, 58, 0
2, 60800, Note_off_c, 1, 63, 0
2, 60800, Note_on_c, 1, 69, 127
2, 60800, Note_off_c, 1, 70, 0
2, 60800, Note_off_c, 1, 75, 0
2, 60800, Note_off_c, 1, 82, 0
2, 61280, Note_off_c, 1, 43, 0
2, 61280, Note_off_c, 1, 45, 0
2, 61280, Note_off_c, 1, 52, 0
2, 61280, Note_off_c, 1, 61, 0
2, 61280, Note_off_c, 1, 67, 0
2, 61280, Note_off_c, 1, 69, 0
2, 61320, Note_on_c, 1, 41, 127
2, 61320, Note_on_c, 1, 47, 127
2, 61320, Note_on_c, 1, 53, 127
2, 61320, Note_on_c, 1, 80, 127
2, 61320, Note_on_c, 1, 86, 127
2, 61320, Note_on_c, 1, 92, 127
2, 61360, Note_off_c, 1, 41, 0
2, 61360, Note_off_c, 1, 47, 0
2, 61360, Note_off_c, 1, 53, 0
2, 61360, Note_off_c, 1, 80, 0
2, 61360, Note_off_c, 1, 86, 0
2, 61360, Note_off_c, 1, 92, 0
2, 61400, Note_on_c, 1, 41, 127
2, 61400, Note_on_c, 1, 47, 127
2, 61400, Note_on_c, 1, 53, 127
2, 61400, Note_on_c, 1, 80, 127
2, 61400, Note_on_c, 1, 86, 127
2, 61400, Note_on_c, 1, 92, 127
2, 61600, Note_on_c, 1, 34, 127
2, 61600, Note_off_c, 1, 41, 0
2, 61600, Note_on_c, 1, 46, 127
2, 61600, Note_off_c, 1, 47, 0
2, 61600, Note_off_c, 1, 53, 0
2, 61600, Note_on_c, 1, 63, 127
2, 61600, Note_on_c, 1, 66, 127
2, 61600, Note_off_c, 1, 80, 0
2, 61600, Note_off_c, 1, 86, 0
2, 61600, Note_off_c, 1, 92, 0
2, 61800, Note_off_c, 1, 63, 0
2, 61800, Note_off_c, 1, 66, 0
2, 61840, Note_on_c, 1, 55, 127
2, 61840, Note_on_c, 1, 63, 127
2, 62320, Note_off_c, 1, 34, 0
2, 62320, Note_off_c, 1, 46, 0
2, 62320, Note_off_c, 1, 55, 0
2, 62320, Note_off_c, 1, 63, 0
2, 62360, Note_on_c, 1, 34, 127
2, 62360, Note_on_c, 1, 46, 127
2, 62360, Note_on_c, 1, 55, 127
2, 62360, Note_on_c, 1, 63, 127
2, 62840, Note_off_c, 1, 34, 0
2, 62840, Note_off_c, 1, 46, 0
2, 62880, Note_on_c, 1, 41, 127
2, 62880, Note_on_c, 1, 53, 127
2, 62880, Note_off_c, 1, 55, 0
2, 62880, Note_on_c, 1, 65, 127
2, 62880, Note_on_c, 1, 69, 127
2, 62880, Note_on_c, 1, 72, 127
2, 62880, Note_on_c, 1, 75, 127
2, 63320, Note_off_c, 1, 41, 0
2, 63320, Note_off_c, 1, 53, 0
2, 63320, Note_off_c, 1, 63, 0
2, 63320, Note_off_c, 1, 65, 0
2, 63320, Note_off_c, 1, 69, 0
2, 63320, Note_off_c, 1, 72, 0
2, 63320, Note_off_c, 1, 75, 0
2, 63400, Note_on_c, 1, 46, 127
2, 63400, Note_on_c, 1, 53, 127
2, 63400, Note_on_c, 1, 58, 127
2, 63400, Note_on_c, 1, 62, 127
2, 63400, Note_on_c, 1, 65, 127
2, 63400, Note_on_c, 1, 70, 127
2, 63400, Note_on_c, 1, 74, 127
2, 64360, Note_off_c, 1, 46, 0
2, 64360, Note_off_c, 1, 53, 0
2, 64360, Note_off_c, 1, 58, 0
2, 64360, Note_off_c, 1, 62, 0
2, 64360, Note_off_c, 1, 65, 0
2, 64360, Note_off_c, 1, 70, 0
2, 64360, Note_off_c, 1, 74, 0
2, 64360, Note_on_c, 1, 87, 127
2, 64360, Note_on_c, 1, 91, 127
2, 64400, Note_on_c, 1, 36, 127
2, 64400, Note_on_c, 1, 48, 127
2, 64400, Note_off_c, 1, 87, 0
2, 64400, Note_off_c, 1, 91, 0
2, 64640, Note_on_c, 1, 33, 127
2, 64640, Note_on_c, 1, 45, 127
2, 64640, Note_off_c, 1, 48, 0
2, 64880, Note_off_c, 1, 33, 0
2, 64880, Note_off_c, 1, 36, 0
2, 64880, Note_off_c, 1, 45, 0
2, 64920, Note_on_c, 1, 32, 127
2, 64920, Note_on_c, 1, 56, 127
2, 65120, Note_off_c, 1, 56, 0
2, 65160, Note_on_c, 1, 56, 127
2, 65320, Note_off_c, 1, 32, 0
2, 65320, Note_off_c, 1, 56, 0
2, 65360, Note_on_c, 1, 32, 127
2, 65360, Note_on_c, 1, 56, 127
2, 65920, Note_off_c, 1, 32, 0
2, 65920, Note_off_c, 1, 56, 0
2, 65960, Note_on_c, 1, 44, 127
2, 65960, Note_on_c, 1, 67, 127
2, 66440, Note_off_c, 1, 44, 0
2, 66440, Note_on_c, 1, 46, 127
2, 66440, Note_on_c, 1, 63, 127
2, 66440, Note_off_c, 1, 67, 0
2, 66480, Note_on_c, 1, 41, 127
2, 66480, Note_off_c, 1, 46, 0
2, 66480, Note_on_c, 1, 60, 127
2, 66480, Note_off_c, 1, 63, 0
2, 66480, Note_on_c, 1, 68, 127
2, 66680, Note_off_c, 1, 60, 0
2, 66720, Note_on_c, 1, 62, 127
2, 66960, Note_off_c, 1, 41, 0
2, 66960, Note_off_c, 1, 62, 0
2, 66960, Note_off_c, 1, 68, 0
2, 67000, Note_on_c, 1, 41, 127
2, 67000, Note_on_c, 1, 53, 127
2, 67000, Note_on_c, 1, 94, 127
2, 67000, Note_on_c, 1, 102, 127
2, 67000, Note_on_c, 1, 106, 127
2, 67040, Note_off_c, 1, 41, 0
2, 67040, Note_on_c, 1, 48, 127
2, 67040, Note_off_c, 1, 53, 0
2, 67040, Note_on_c, 1, 59, 127
2, 67040, Note_on_c, 1, 60, 127
2, 67040, Note_on_c, 1, 64, 127
2, 67040, Note_on_c, 1, 71, 127
2, 67040, Note_off_c, 1, 94, 0
2, 67040, Note_off_c, 1, 102, 0
2, 67040, Note_off_c, 1, 106, 0
2, 67080, Note_off_c, 1, 48, 0
2, 67080, Note_on_c, 1, 56, 127
2, 67080, Note_off_c, 1, 60, 0
2, 67080, Note_on_c, 1, 62, 127
2, 67080, Note_off_c, 1, 64, 0
2, 67080, Note_on_c, 1, 68, 127
2, 67080, Note_off_c, 1, 71, 0
2, 67120, Note_on_c, 1, 38, 127
2, 67120, Note_off_c, 1, 62, 0
2, 67120, Note_on_c, 1, 66, 127
2, 67120, Note_off_c, 1, 68, 0
2, 67160, Note_off_c, 1, 56, 0
2, 67160, Note_on_c, 1, 57, 127
2, 67160, Note_off_c, 1, 59, 0
2, 67160, Note_off_c, 1, 66, 0
2, 67160, Note_on_c, 1, 77, 127
2, 67200, Note_off_c, 1, 38, 0
2, 67200, Note_on_c, 1, 51, 127
2, 67200, Note_off_c, 1, 57, 0
2, 67200, Note_on_c, 1, 61, 127
2, 67200, Note_on_c, 1, 64, 127
2, 67200, Note_on_c, 1, 67, 127
2, 67200, Note_off_c, 1, 77, 0
2, 67240, Note_on_c, 1, 48, 127
2, 67240, Note_off_c, 1, 51, 0
2, 67240, Note_off_c, 1, 61, 0
2, 67240, Note_off_c, 1, 64, 0
2, 67240, Note_off_c, 1, 67, 0
2, 67240, Note_on_c, 1, 69, 127
2, 67240, Note_on_c, 1, 72, 127
2, 67240, Note_on_c, 1, 75, 127
2, 67240, Note_on_c, 1, 77, 127
2, 67280, Note_on_c, 1, 47, 127
2, 67280, Note_off_c, 1, 48, 0
2, 67280, Note_on_c, 1, 57, 127
2, 67280, Note_on_c, 1, 59, 127
2, 67280, Note_on_c, 1, 63, 127
2, 67280, Note_on_c, 1, 67, 127
2, 67280, Note_off_c, 1, 69, 0
2, 67280, Note_off_c, 1, 72, 0
2, 67280, Note_off_c, 1, 75, 0
2, 67280, Note_off_c, 1, 77, 0
2, 67320, Note_off_c, 1, 47, 0
2, 67320, Note_on_c, 1, 55, 127
2, 67320, Note_off_c, 1, 57, 0
2, 67320, Note_off_c, 1, 59, 0
2, 67320, Note_on_c, 1, 61, 127
2, 67320, Note_off_c, 1, 63, 0
2, 67320, Note_off_c, 1, 67, 0
2, 67320, Note_on_c, 1, 85, 127
2, 67320, Note_on_c, 1, 88, 127
2, 67320, Note_on_c, 1, 90, 127
2, 67360, Note_on_c, 1, 48, 127
2, 67360, Note_off_c, 1, 55, 0
2, 67360, Note_off_c, 1, 61, 0
2, 67360, Note_on_c, 1, 69, 127
2, 67360, Note_on_c, 1, 72, 127
2, 67360, Note_on_c, 1, 75, 127
2, 67360, Note_on_c, 1, 77, 127
2, 67360, Note_off_c, 1, 85, 0
2, 67360, Note_off_c, 1, 88, 0
2, 67360, Note_off_c, 1, 90, 0
2, 67400, Note_off_c, 1, 48, 0
2, 67400, Note_off_c, 1, 69, 0
2, 67400, Note_off_c, 1, 72, 0
2, 67400, Note_off_c, 1, 75, 0
2, 67400, Note_off_c, 1, 77, 0
2, 67440, Note_on_c, 1, 43, 127
2, 67440, Note_on_c, 1, 47, 127
2, 67440, Note_on_c, 1, 79, 127
2, 67440, Note_on_c, 1, 83, 127
2, 67480, Note_off_c, 1, 43, 0
2, 67480, Note_off_c, 1, 47, 0
2, 67480, Note_on_c, 1, 51, 127
2, 67480, Note_on_c, 1, 61, 127
2, 67480, Note_on_c, 1, 64, 127
2, 67480, Note_on_c, 1, 67, 127
2, 67480, Note_off_c, 1, 79, 0
2, 67480, Note_off_c, 1, 83, 0
2, 67760, Note_off_c, 1, 61, 0
2, 67760, Note_off_c, 1, 64, 0
2, 67800, Note_on_c, 1, 59, 127
2, 67800, Note_on_c, 1, 63, 127
2, 68000, Note_off_c, 1, 59, 0
2, 68000, Note_off_c, 1, 63, 0
2, 68040, Note_on_c, 1, 39, 127
2, 68040, Note_on_c, 1, 70, 127
2, 68040, Note_on_c, 1, 75, 127
2, 68280, Note_off_c, 1, 51, 0
2, 68280, Note_on_c, 1, 56, 127
2, 68280, Note_on_c, 1, 65, 127
2, 68280, Note_off_c, 1, 67, 0
2, 68280, Note_off_c, 1, 70, 0
2, 68280, Note_off_c, 1, 75, 0
2, 68520, Note_on_c, 1, 44, 127
2, 68520, Note_off_c, 1, 56, 0
2, 68520, Note_off_c, 1, 65, 0
2, 68560, Note_off_c, 1, 39, 0
2, 68560, Note_off_c, 1, 44, 0
2, 68560, Note_on_c, 1, 56, 127
2, 68560, Note_on_c, 1, 68, 127
2, 68560, Note_on_c, 1, 74, 127
2, 68560, Note_on_c, 1, 77, 127
2, 68560, Note_on_c, 1, 80, 127
2, 68760, Note_off_c, 1, 56, 0
2, 68760, Note_off_c, 1, 74, 0
2, 68760, Note_off_c, 1, 77, 0
2, 68760, Note_off_c, 1, 80, 0
2, 68800, Note_on_c, 1, 49, 127
2, 68800, Note_on_c, 1, 56, 127
2, 68800, Note_on_c, 1, 66, 127
2, 69040, Note_off_c, 1, 66, 0
2, 69080, Note_on_c, 1, 66, 127
2, 69280, Note_off_c, 1, 49, 0
2, 69280, Note_on_c, 1, 51, 127
2, 69280, Note_off_c, 1, 56, 0
2, 69280, Note_off_c, 1, 66, 0
2, 69280, Note_off_c, 1, 68, 0
2, 69320, Note_on_c, 1, 58, 127
2, 69320, Note_on_c, 1, 61, 127
2, 69320, Note_on_c, 1, 67, 127
2, 69520, Note_off_c, 1, 51, 0
2, 69520, Note_off_c, 1, 58, 0
2, 69520, Note_off_c, 1, 61, 0
2, 69520, Note_off_c, 1, 67, 0
2, 69560, Note_on_c, 1, 46, 127
2, 69560, Note_on_c, 1, 54, 127
2, 69560, Note_on_c, 1, 58, 127
2, 69600, Note_on_c, 1, 44, 127
2, 69600, Note_off_c, 1, 46, 0
2, 69600, Note_on_c, 1, 51, 127
2, 69600, Note_off_c, 1, 54, 0
2, 69600, Note_off_c, 1, 58, 0
2, 69600, Note_on_c, 1, 63, 127
2, 69600, Note_on_c, 1, 68, 127
2, 69600, Note_on_c, 1, 72, 127
2, 70200, Note_off_c, 1, 44, 0
2, 70200, Note_off_c, 1, 51, 0
2, 70200, Note_off_c, 1, 63, 0
2, 70200, Note_off_c, 1, 68, 0
2, 70200, Note_off_c, 1, 72, 0
2, 70240, Note_on_c, 1, 51, 127
2, 70240, Note_on_c, 1, 75, 127
2, 70480, Note_on_c, 1, 47, 127
2, 70480, Note_off_c, 1, 51, 0
2, 70680, Note_off_c, 1, 47, 0
2, 70680, Note_off_c, 1, 75, 0
2, 70720, Note_on_c, 1, 44, 127
2, 70720, Note_on_c, 1, 51, 127
2, 70720, Note_on_c, 1, 72, 127
2, 70720, Note_on_c, 1, 75, 127
2, 70720, Note_on_c, 1, 80, 127
2, 71200, Note_off_c, 1, 51, 0
2, 71200, Note_off_c, 1, 72, 0
2, 71200, Note_off_c, 1, 75, 0
2, 71200, Note_on_c, 1, 76, 127
2, 71200, Note_off_c, 1, 80, 0
2, 71240, Note_on_c, 1, 51, 127
2, 71240, Note_on_c, 1, 72, 127
2, 71240, Note_on_c, 1, 75, 127
2, 71240, Note_off_c, 1, 76, 0
2, 71240, Note_on_c, 1, 82, 127
2, 71440, Note_off_c, 1, 82, 0
2, 71480, Note_off_c, 1, 44, 0
2, 71480, Note_off_c, 1, 51, 0
2, 71480, Note_off_c, 1, 72, 0
2, 71480, Note_off_c, 1, 75, 0
2, 71520, Note_on_c, 1, 44, 127
2, 71520, Note_on_c, 1, 51, 127
2, 71520, Note_on_c, 1, 72, 127
2, 71520, Note_on_c, 1, 75, 127
2, 71520, Note_on_c, 1, 82, 127
2, 71720, Note_off_c, 1, 44, 0
2, 71720, Note_off_c, 1, 51, 0
2, 71720, Note_off_c, 1, 72, 0
2, 71720, Note_off_c, 1, 75, 0
2, 71720, Note_off_c, 1, 82, 0
2, 71760, Note_on_c, 1, 46, 127
2, 71760, Note_on_c, 1, 51, 127
2, 71760, Note_on_c, 1, 73, 127
2, 71760, Note_on_c, 1, 75, 127
2, 71760, Note_on_c, 1, 80, 127
2, 72040, Note_off_c, 1, 46, 0
2, 72040, Note_off_c, 1, 51, 0
2, 72040, Note_off_c, 1, 75, 0
2, 72040, Note_on_c, 1, 85, 127
2, 72040, Note_on_c, 1, 89, 127
2, 72040, Note_on_c, 1, 97, 127
2, 72040, Note_on_c, 1, 102, 127
2, 72080, Note_on_c, 1, 34, 127
2, 72080, Note_on_c, 1, 46, 127
2, 72080, Note_on_c, 1, 54, 127
2, 72080, Note_on_c, 1, 58, 127
2, 72080, Note_on_c, 1, 66, 127
2, 72080, Note_off_c, 1, 73, 0
2, 72080, Note_off_c, 1, 80, 0
2, 72080, Note_off_c, 1, 85, 0
2, 72080, Note_off_c, 1, 89, 0
2, 72080, Note_off_c, 1, 97, 0
2, 72080, Note_off_c, 1, 102, 0
2, 72120, Note_off_c, 1, 34, 0
2, 72120, Note_on_c, 1, 37, 127
2, 72120, Note_on_c, 1, 41, 127
2, 72120, Note_off_c, 1, 46, 0
2, 72120, Note_on_c, 1, 49, 127
2, 72120, Note_off_c, 1, 54, 0
2, 72120, Note_off_c, 1, 58, 0
2, 72120, Note_off_c, 1, 66, 0
2, 72160, Note_off_c, 1, 37, 0
2, 72160, Note_off_c, 1, 41, 0
2, 72160, Note_on_c, 1, 45, 127
2, 72160, Note_off_c, 1, 49, 0
2, 72160, Note_on_c, 1, 73, 127
2, 72160, Note_on_c, 1, 76, 127
2, 72160, Note_on_c, 1, 83, 127
2, 72200, Note_off_c, 1, 45, 0
2, 72200, Note_on_c, 1, 46, 127
2, 72200, Note_on_c, 1, 51, 127
2, 72200, Note_on_c, 1, 75, 127
2, 72200, Note_off_c, 1, 76, 0
2, 72200, Note_on_c, 1, 80, 127
2, 72200, Note_off_c, 1, 83, 0
2, 72240, Note_off_c, 1, 51, 0
2, 72240, Note_off_c, 1, 73, 0
2, 72240, Note_off_c, 1, 75, 0
2, 72240, Note_off_c, 1, 80, 0
2, 72280, Note_off_c, 1, 46, 0
2, 72280, Note_on_c, 1, 47, 127
2, 72280, Note_on_c, 1, 55, 127
2, 72280, Note_on_c, 1, 74, 127
2, 72280, Note_on_c, 1, 77, 127
2, 72720, Note_off_c, 1, 47, 0
2, 72720, Note_on_c, 1, 48, 127
2, 72720, Note_off_c, 1, 55, 0
2, 72720, Note_on_c, 1, 67, 127
2, 72720, Note_on_c, 1, 72, 127
2, 72720, Note_off_c, 1, 74, 0
2, 72720, Note_on_c, 1, 75, 127
2, 72720, Note_off_c, 1, 77, 0
2, 72760, Note_on_c, 1, 55, 127
2, 72760, Note_on_c, 1, 60, 127
2, 72760, Note_off_c, 1, 67, 0
2, 72760, Note_off_c, 1, 72, 0
2, 72800, Note_on_c, 1, 72, 127
2, 72880, Note_off_c, 1, 72, 0
2, 72920, Note_off_c, 1, 48, 0
2, 72920, Note_off_c, 1, 55, 0
2, 72920, Note_on_c, 1, 56, 127
2, 72920, Note_off_c, 1, 60, 0
2, 72920, Note_on_c, 1, 61, 127
2, 72920, Note_on_c, 1, 64, 127
2, 72920, Note_on_c, 1, 67, 127
2, 72920, Note_off_c, 1, 75, 0
2, 72920, Note_on_c, 1, 97, 127
2, 72920, Note_on_c, 1, 99, 127
2, 72960, Note_on_c, 1, 49, 127
2, 72960, Note_off_c, 1, 56, 0
2, 72960, Note_on_c, 1, 59, 127
2, 72960, Note_off_c, 1, 61, 0
2, 72960, Note_off_c, 1, 64, 0
2, 72960, Note_on_c, 1, 76, 127
2, 72960, Note_off_c, 1, 97, 0
2, 72960, Note_off_c, 1, 99, 0
2, 73000, Note_off_c, 1, 49, 0
2, 73000, Note_off_c, 1, 59, 0
2, 73000, Note_on_c, 1, 62, 127
2, 73000, Note_off_c, 1, 76, 0
2, 73000, Note_on_c, 1, 78, 127
2, 73040, Note_off_c, 1, 62, 0
2, 73040, Note_off_c, 1, 67, 0
2, 73040, Note_on_c, 1, 71, 127
2, 73040, Note_on_c, 1, 74, 127
2, 73040, Note_off_c, 1, 78, 0
2, 73040, Note_on_c, 1, 85, 127
2, 73040, Note_on_c, 1, 90, 127
2, 73080, Note_on_c, 1, 69, 127
2, 73080, Note_off_c, 1, 71, 0
2, 73080, Note_on_c, 1, 73, 127
2, 73080, Note_off_c, 1, 74, 0
2, 73080, Note_off_c, 1, 85, 0
2, 73080, Note_on_c, 1, 88, 127
2, 73080, Note_off_c, 1, 90, 0
2, 73080, Note_on_c, 1, 91, 127
2, 73080, Note_on_c, 1, 93, 127
2, 73120, Note_on_c, 1, 45, 127
2, 73120, Note_on_c, 1, 50, 127
2, 73120, Note_off_c, 1, 69, 0
2, 73120, Note_off_c, 1, 73, 0
2, 73120, Note_on_c, 1, 83, 127
2, 73120, Note_off_c, 1, 88, 0
2, 73120, Note_off_c, 1, 91, 0
2, 73120, Note_off_c, 1, 93, 0
2, 73160, Note_off_c, 1, 45, 0
2, 73160, Note_off_c, 1, 50, 0
2, 73160, Note_on_c, 1, 57, 127
2, 73160, Note_on_c, 1, 64, 127
2, 73160, Note_on_c, 1, 67, 127
2, 73160, Note_on_c, 1, 72, 127
2, 73160, Note_off_c, 1, 83, 0
2, 73160, Note_on_c, 1, 89, 127
2, 73200, Note_off_c, 1, 57, 0
2, 73200, Note_on_c, 1, 62, 127
2, 73200, Note_off_c, 1, 64, 0
2, 73200, Note_off_c, 1, 67, 0
2, 73200, Note_on_c, 1, 69, 127
2, 73200, Note_off_c, 1, 72, 0
2, 73200, Note_on_c, 1, 78, 127
2, 73200, Note_off_c, 1, 89, 0
2, 73200, Note_on_c, 1, 90, 127
2, 73200, Note_on_c, 1, 93, 127
2, 73240, Note_on_c, 1, 38, 127
2, 73240, Note_on_c, 1, 46, 127
2, 73240, Note_on_c, 1, 60, 127
2, 73240, Note_off_c, 1, 62, 0
2, 73240, Note_on_c, 1, 64, 127
2, 73240, Note_off_c, 1, 69, 0
2, 73240, Note_on_c, 1, 72, 127
2, 73240, Note_off_c, 1, 78, 0
2, 73240, Note_off_c, 1, 90, 0
2, 73240, Note_off_c, 1, 93, 0
2, 73280, Note_off_c, 1, 38, 0
2, 73280, Note_off_c, 1, 46, 0
2, 73280, Note_on_c, 1, 55, 127
2, 73280, Note_on_c, 1, 59, 127
2, 73280, Note_off_c, 1, 60, 0
2, 73280, Note_off_c, 1, 64, 0
2, 73320, Note_on_c, 1, 47, 127
2, 73320, Note_on_c, 1, 49, 127
2, 73320, Note_off_c, 1, 55, 0
2, 73320, Note_on_c, 1, 56, 127
2, 73320, Note_off_c, 1, 59, 0
2, 73320, Note_on_c, 1, 65, 127
2, 73320, Note_off_c, 1, 72, 0
2, 73320, Note_on_c, 1, 77, 127
2, 73360, Note_off_c, 1, 47, 0
2, 73360, Note_off_c, 1, 49, 0
2, 73360, Note_on_c, 1, 51, 127
2, 73360, Note_on_c, 1, 60, 127
2, 73360, Note_on_c, 1, 63, 127
2, 73360, Note_off_c, 1, 65, 0
2, 73360, Note_off_c, 1, 77, 0
2, 73360, Note_on_c, 1, 82, 127
2, 73400, Note_on_c, 1, 41, 127
2, 73400, Note_off_c, 1, 51, 0
2, 73400, Note_on_c, 1, 53, 127
2, 73400, Note_off_c, 1, 56, 0
2, 73400, Note_off_c, 1, 60, 0
2, 73400, Note_on_c, 1, 62, 127
2, 73400, Note_off_c, 1, 63, 0
2, 73400, Note_on_c, 1, 68, 127
2, 73400, Note_on_c, 1, 69, 127
2, 73400, Note_off_c, 1, 82, 0
2, 73440, Note_off_c, 1, 41, 0
2, 73440, Note_on_c, 1, 47, 127
2, 73440, Note_off_c, 1, 53, 0
2, 73440, Note_on_c, 1, 54, 127
2, 73440, Note_on_c, 1, 60, 127
2, 73440, Note_off_c, 1, 62, 0
2, 73440, Note_on_c, 1, 64, 127
2, 73440, Note_off_c, 1, 68, 0
2, 73440, Note_off_c, 1, 69, 0
2, 73440, Note_on_c, 1, 72, 127
2, 73480, Note_off_c, 1, 47, 0
2, 73480, Note_off_c, 1, 54, 0
2, 73480, Note_off_c, 1, 60, 0
2, 73480, Note_off_c, 1, 64, 0
2, 73480, Note_off_c, 1, 72, 0
2, 73520, Note_on_c, 1, 32, 127
2, 73520, Note_on_c, 1, 68, 127
2, 73520, Note_on_c, 1, 76, 127
2, 73560, Note_off_c, 1, 32, 0
2, 73560, Note_on_c, 1, 46, 127
2, 73560, Note_on_c, 1, 50, 127
2, 73560, Note_on_c, 1, 58, 127
2, 73560, Note_on_c, 1, 62, 127
2, 73560, Note_on_c, 1, 65, 127
2, 73560, Note_off_c, 1, 68, 0
2, 73560, Note_on_c, 1, 70, 127
2, 73560, Note_off_c, 1, 76, 0
2, 73600, Note_on_c, 1, 44, 127
2, 73600, Note_off_c, 1, 46, 0
2, 73600, Note_on_c, 1, 54, 127
2, 73600, Note_off_c, 1, 58, 0
2, 73600, Note_off_c, 1, 62, 0
2, 73600, Note_off_c, 1, 65, 0
2, 73600, Note_on_c, 1, 68, 127
2, 73600, Note_off_c, 1, 70, 0
2, 73600, Note_on_c, 1, 74, 127
2, 73600, Note_on_c, 1, 78, 127
2, 73600, Note_on_c, 1, 80, 127
2, 73720, Note_off_c, 1, 44, 0
2, 73720, Note_on_c, 1, 48, 127
2, 73720, Note_off_c, 1, 50, 0
2, 73720, Note_off_c, 1, 54, 0
2, 73720, Note_off_c, 1, 74, 0
2, 73720, Note_off_c, 1, 78, 0
2, 73760, Note_on_c, 1, 44, 127
2, 73760, Note_off_c, 1, 48, 0
2, 73760, Note_on_c, 1, 50, 127
2, 73760, Note_on_c, 1, 54, 127
2, 73760, Note_on_c, 1, 74, 127
2, 73760, Note_on_c, 1, 78, 127
2, 73840, Note_off_c, 1, 44, 0
2, 73840, Note_off_c, 1, 50, 0
2, 73840, Note_off_c, 1, 54, 0
2, 73840, Note_on_c, 1, 60, 127
2, 73840, Note_on_c, 1, 65, 127
2, 73840, Note_on_c, 1, 67, 127
2, 73840, Note_off_c, 1, 68, 0
2, 73840, Note_on_c, 1, 72, 127
2, 73840, Note_off_c, 1, 74, 0
2, 73840, Note_off_c, 1, 78, 0
2, 73840, Note_off_c, 1, 80, 0
2, 73880, Note_on_c, 1, 43, 127
2, 73880, Note_on_c, 1, 47, 127
2, 73880, Note_on_c, 1, 51, 127
2, 73880, Note_off_c, 1, 60, 0
2, 73880, Note_on_c, 1, 63, 127
2, 73880, Note_off_c, 1, 65, 0
2, 73880, Note_on_c, 1, 71, 127
2, 73880, Note_off_c, 1, 72, 0
2, 73920, Note_on_c, 1, 41, 127
2, 73920, Note_off_c, 1, 43, 0
2, 73920, Note_off_c, 1, 47, 0
2, 73920, Note_on_c, 1, 48, 127
2, 73920, Note_off_c, 1, 51, 0
2, 73920, Note_on_c, 1, 53, 127
2, 73920, Note_on_c, 1, 60, 127
2, 73920, Note_off_c, 1, 67, 0
2, 73920, Note_off_c, 1, 71, 0
2, 73920, Note_on_c, 1, 75, 127
2, 73920, Note_on_c, 1, 81, 127
2, 73920, Note_on_c, 1, 87, 127
2, 73960, Note_off_c, 1, 41, 0
2, 73960, Note_on_c, 1, 43, 127
2, 73960, Note_on_c, 1, 47, 127
2, 73960, Note_off_c, 1, 48, 0
2, 73960, Note_on_c, 1, 51, 127
2, 73960, Note_off_c, 1, 53, 0
2, 73960, Note_off_c, 1, 60, 0
2, 73960, Note_on_c, 1, 67, 127
2, 73960, Note_on_c, 1, 71, 127
2, 73960, Note_off_c, 1, 75, 0
2, 73960, Note_off_c, 1, 81, 0
2, 73960, Note_off_c, 1, 87, 0
2, 74000, Note_off_c, 1, 51, 0
2, 74000, Note_on_c, 1, 52, 127
2, 74000, Note_off_c, 1, 63, 0
2, 74000, Note_on_c, 1, 64, 127
2, 74040, Note_off_c, 1, 47, 0
2, 74040, Note_on_c, 1, 50, 127
2, 74040, Note_off_c, 1, 52, 0
2, 74040, Note_on_c, 1, 61, 127
2, 74040, Note_off_c, 1, 64, 0
2, 74040, Note_off_c, 1, 67, 0
2, 74040, Note_off_c, 1, 71, 0
2, 74040, Note_on_c, 1, 73, 127
2, 74080, Note_off_c, 1, 43, 0
2, 74080, Note_on_c, 1, 47, 127
2, 74080, Note_off_c, 1, 50, 0
2, 74080, Note_on_c, 1, 51, 127
2, 74080, Note_off_c, 1, 61, 0
2, 74080, Note_off_c, 1, 73, 0
2, 74080, Note_on_c, 1, 75, 127
2, 74120, Note_off_c, 1, 47, 0
2, 74120, Note_off_c, 1, 51, 0
2, 74120, Note_on_c, 1, 59, 127
2, 74120, Note_on_c, 1, 64, 127
2, 74120, Note_on_c, 1, 68, 127
2, 74120, Note_off_c, 1, 75, 0
2, 74120, Note_on_c, 1, 76, 127
2, 74120, Note_on_c, 1, 83, 127
2, 74160, Note_on_c, 1, 58, 127
2, 74160, Note_off_c, 1, 59, 0
2, 74160, Note_on_c, 1, 61, 127
2, 74160, Note_off_c, 1, 64, 0
2, 74160, Note_on_c, 1, 67, 127
2, 74160, Note_off_c, 1, 68, 0
2, 74160, Note_on_c, 1, 72, 127
2, 74160, Note_off_c, 1, 76, 0
2, 74160, Note_on_c, 1, 79, 127
2, 74160, Note_off_c, 1, 83, 0
2, 74200, Note_off_c, 1, 58, 0
2, 74200, Note_off_c, 1, 61, 0
2, 74200, Note_on_c, 1, 66, 127
2, 74200, Note_off_c, 1, 67, 0
2, 74200, Note_on_c, 1, 70, 127
2, 74200, Note_off_c, 1, 72, 0
2, 74200, Note_on_c, 1, 74, 127
2, 74200, Note_on_c, 1, 78, 127
2, 74200, Note_off_c, 1, 79, 0
2, 74200, Note_on_c, 1, 82, 127
2, 74200, Note_on_c, 1, 86, 127
2, 74240, Note_on_c, 1, 59, 127
2, 74240, Note_on_c, 1, 64, 127
2, 74240, Note_off_c, 1, 66, 0
2, 74240, Note_on_c, 1, 68, 127
2, 74240, Note_off_c, 1, 70, 0
2, 74240, Note_off_c, 1, 74, 0
2, 74240, Note_on_c, 1, 76, 127
2, 74240, Note_off_c, 1, 78, 0
2, 74240, Note_off_c, 1, 82, 0
2, 74240, Note_on_c, 1, 83, 127
2, 74240, Note_off_c, 1, 86, 0
2, 74280, Note_on_c, 1, 44, 127
2, 74280, Note_on_c, 1, 52, 127
2, 74280, Note_off_c, 1, 59, 0
2, 74280, Note_off_c, 1, 68, 0
2, 74280, Note_off_c, 1, 76, 0
2, 74280, Note_off_c, 1, 83, 0
2, 74280, Note_on_c, 1, 86, 127
2, 74320, Note_off_c, 1, 52, 0
2, 74320, Note_off_c, 1, 64, 0
2, 74320, Note_off_c, 1, 86, 0
2, 74320, Note_on_c, 1, 90, 127
2, 74320, Note_on_c, 1, 93, 127
2, 74360, Note_off_c, 1, 44, 0
2, 74360, Note_on_c, 1, 47, 127
2, 74360, Note_off_c, 1, 90, 0
2, 74360, Note_off_c, 1, 93, 0
2, 74400, Note_on_c, 1, 57, 127
2, 74400, Note_on_c, 1, 66, 127
2, 74400, Note_on_c, 1, 75, 127
2, 74720, Note_off_c, 1, 47, 0
2, 74720, Note_on_c, 1, 55, 127
2, 74720, Note_off_c, 1, 57, 0
2, 74720, Note_on_c, 1, 58, 127
2, 74720, Note_on_c, 1, 62, 127
2, 74720, Note_off_c, 1, 66, 0
2, 74720, Note_on_c, 1, 67, 127
2, 74720, Note_on_c, 1, 70, 127
2, 74720, Note_off_c, 1, 75, 0
2, 74760, Note_off_c, 1, 55, 0
2, 74760, Note_off_c, 1, 58, 0
2, 74760, Note_off_c, 1, 62, 0
2, 74760, Note_on_c, 1, 64, 127
2, 74760, Note_off_c, 1, 67, 0
2, 74760, Note_off_c, 1, 70, 0
2, 74760, Note_on_c, 1, 71, 127
2, 74760, Note_on_c, 1, 77, 127
2, 74840, Note_on_c, 1, 51, 127
2, 74840, Note_on_c, 1, 55, 127
2, 74840, Note_on_c, 1, 60, 127
2, 74840, Note_off_c, 1, 64, 0
2, 74840, Note_off_c, 1, 71, 0
2, 74840, Note_on_c, 1, 74, 127
2, 74840, Note_on_c, 1, 75, 127
2, 74840, Note_off_c, 1, 77, 0
2, 74880, Note_off_c, 1, 51, 0
2, 74880, Note_off_c, 1, 60, 0
2, 74880, Note_on_c, 1, 61, 127
2, 74880, Note_on_c, 1, 64, 127
2, 74880, Note_on_c, 1, 69, 127
2, 74880, Note_off_c, 1, 74, 0
2, 74880, Note_off_c, 1, 75, 0
2, 74880, Note_on_c, 1, 86, 127
2, 74920, Note_on_c, 1, 28, 127
2, 74920, Note_on_c, 1, 39, 127
2, 74920, Note_on_c, 1, 40, 127
2, 74920, Note_on_c, 1, 47, 127
2, 74920, Note_on_c, 1, 51, 127
2, 74920, Note_on_c, 1, 52, 127
2, 74920, Note_off_c, 1, 55, 0
2, 74920, Note_on_c, 1, 59, 127
2, 74920, Note_off_c, 1, 61, 0
2, 74920, Note_off_c, 1, 64, 0
2, 74920, Note_on_c, 1, 68, 127
2, 74920, Note_off_c, 1, 69, 0
2, 74920, Note_on_c, 1, 71, 127
2, 74920, Note_off_c, 1, 86, 0
2, 74960, Note_off_c, 1, 28, 0
2, 74960, Note_off_c, 1, 40, 0
2, 74960, Note_off_c, 1, 47, 0
2, 74960, Note_off_c, 1, 51, 0
2, 74960, Note_off_c, 1, 52, 0
2, 74960, Note_off_c, 1, 59, 0
2, 74960, Note_on_c, 1, 65, 127
2, 74960, Note_off_c, 1, 71, 0
2, 74960, Note_on_c, 1, 72, 127
2, 75000, Note_off_c, 1, 39, 0
2, 75000, Note_on_c, 1, 64, 127
2, 75000, Note_off_c, 1, 65, 0
2, 75000, Note_on_c, 1, 67, 127
2, 75000, Note_off_c, 1, 68, 0
2, 75000, Note_off_c, 1, 72, 0
2, 75000, Note_on_c, 1, 73, 127
2, 75000, Note_on_c, 1, 82, 127
2, 75000, Note_on_c, 1, 85, 127
2, 75000, Note_on_c, 1, 94, 127
2, 75040, Note_on_c, 1, 46, 127
2, 75040, Note_on_c, 1, 54, 127
2, 75040, Note_off_c, 1, 64, 0
2, 75040, Note_off_c, 1, 67, 0
2, 75040, Note_off_c, 1, 73, 0
2, 75040, Note_off_c, 1, 82, 0
2, 75040, Note_off_c, 1, 85, 0
2, 75040, Note_on_c, 1, 88, 127
2, 75040, Note_off_c, 1, 94, 0
2, 75080, Note_off_c, 1, 46, 0
2, 75080, Note_off_c, 1, 54, 0
2, 75080, Note_on_c, 1, 73, 127
2, 75080, Note_on_c, 1, 80, 127
2, 75080, Note_on_c, 1, 85, 127
2, 75080, Note_off_c, 1, 88, 0
2, 75080, Note_on_c, 1, 89, 127
2, 75080, Note_on_c, 1, 97, 127
2, 75080, Note_on_c, 1, 102, 127
2, 75120, Note_on_c, 1, 50, 127
2, 75120, Note_on_c, 1, 57, 127
2, 75120, Note_on_c, 1, 63, 127
2, 75120, Note_on_c, 1, 66, 127
2, 75120, Note_on_c, 1, 69, 127
2, 75120, Note_off_c, 1, 73, 0
2, 75120, Note_on_c, 1, 75, 127
2, 75120, Note_off_c, 1, 80, 0
2, 75120, Note_off_c, 1, 85, 0
2, 75120, Note_off_c, 1, 89, 0
2, 75120, Note_off_c, 1, 97, 0
2, 75120, Note_off_c, 1, 102, 0
2, 75160, Note_on_c, 1, 40, 127
2, 75160, Note_on_c, 1, 47, 127
2, 75160, Note_off_c, 1, 50, 0
2, 75160, Note_off_c, 1, 57, 0
2, 75160, Note_on_c, 1, 59, 127
2, 75160, Note_off_c, 1, 63, 0
2, 75160, Note_on_c, 1, 64, 127
2, 75160, Note_off_c, 1, 66, 0
2, 75160, Note_off_c, 1, 69, 0
2, 75160, Note_on_c, 1, 71, 127
2, 75160, Note_off_c, 1, 75, 0
2, 75200, Note_off_c, 1, 40, 0
2, 75200, Note_off_c, 1, 47, 0
2, 75200, Note_on_c, 1, 50, 127
2, 75200, Note_on_c, 1, 57, 127
2, 75200, Note_off_c, 1, 59, 0
2, 75200, Note_on_c, 1, 63, 127
2, 75200, Note_off_c, 1, 64, 0
2, 75200, Note_on_c, 1, 66, 127
2, 75200, Note_on_c, 1, 69, 127
2, 75200, Note_off_c, 1, 71, 0
2, 75200, Note_on_c, 1, 75, 127
2, 75240, Note_off_c, 1, 50, 0
2, 75240, Note_on_c, 1, 59, 127
2, 75240, Note_on_c, 1, 62, 127
2, 75240, Note_off_c, 1, 63, 0
2, 75240, Note_off_c, 1, 66, 0
2, 75240, Note_on_c, 1, 68, 127
2, 75240, Note_off_c, 1, 69, 0
2, 75240, Note_off_c, 1, 75, 0
2, 75240, Note_on_c, 1, 77, 127
2, 75240, Note_on_c, 1, 89, 127
2, 75280, Note_on_c, 1, 35, 127
2, 75280, Note_on_c, 1, 47, 127
2, 75280, Note_on_c, 1, 51, 127
2, 75280, Note_on_c, 1, 54, 127
2, 75280, Note_off_c, 1, 57, 0
2, 75280, Note_off_c, 1, 62, 0
2, 75280, Note_on_c, 1, 66, 127
2, 75280, Note_off_c, 1, 68, 0
2, 75280, Note_on_c, 1, 71, 127
2, 75280, Note_on_c, 1, 75, 127
2, 75280, Note_off_c, 1, 77, 0
2, 75280, Note_on_c, 1, 78, 127
2, 75280, Note_on_c, 1, 83, 127
2, 75280, Note_off_c, 1, 89, 0
2, 75320, Note_off_c, 1, 35, 0
2, 75320, Note_off_c, 1, 47, 0
2, 75320, Note_off_c, 1, 51, 0
2, 75320, Note_off_c, 1, 54, 0
2, 75320, Note_off_c, 1, 59, 0
2, 75320, Note_off_c, 1, 66, 0
2, 75320, Note_off_c, 1, 71, 0
2, 75320, Note_off_c, 1, 75, 0
2, 75320, Note_off_c, 1, 78, 0
2, 75320, Note_off_c, 1, 83, 0
2, 75360, Note_on_c, 1, 42, 127
2, 75360, Note_on_c, 1, 67, 127
2, 75360, Note_on_c, 1, 71, 127
2, 75360, Note_on_c, 1, 79, 127
2, 75600, Note_off_c, 1, 42, 0
2, 75600, Note_off_c, 1, 67, 0
2, 75600, Note_off_c, 1, 71, 0
2, 75600, Note_off_c, 1, 79, 0
2, 75640, Note_on_c, 1, 42, 127
2, 75640, Note_on_c, 1, 67, 127
2, 75640, Note_on_c, 1, 71, 127
2, 75640, Note_on_c, 1, 79, 127
2, 76400, Note_off_c, 1, 42, 0
2, 76400, Note_off_c, 1, 67, 0
2, 76400, Note_off_c, 1, 71, 0
2, 76400, Note_off_c, 1, 79, 0
2, 76440, Note_on_c, 1, 46, 127
2, 76440, Note_on_c, 1, 54, 127
2, 76440, Note_on_c, 1, 63, 127
2, 76440, Note_on_c, 1, 70, 127
2, 76440, Note_on_c, 1, 75, 127
2, 77400, Note_off_c, 1, 46, 0
2, 77400, Note_off_c, 1, 54, 0
2, 77400, Note_off_c, 1, 63, 0
2, 77400, Note_off_c, 1, 70, 0
2, 77400, Note_off_c, 1, 75, 0
2, 77480, Note_on_c, 1, 46, 127
2, 77480, Note_on_c, 1, 54, 127
2, 77480, Note_on_c, 1, 63, 127
2, 77480, Note_on_c, 1, 70, 127
2, 77480, Note_on_c, 1, 75, 127
2, 78400, Note_off_c, 1, 46, 0
2, 78400, Note_off_c, 1, 54, 0
2, 78400, Note_off_c, 1, 63, 0
2, 78400, Note_off_c, 1, 70, 0
2, 78400, Note_off_c, 1, 75, 0
2, 78440, Note_on_c, 1, 64, 127
2, 78440, Note_on_c, 1, 71, 127
2, 78440, Note_on_c, 1, 83, 127
2, 78440, Note_on_c, 1, 90, 127
2, 78480, Note_on_c, 1, 57, 127
2, 78480, Note_off_c, 1, 64, 0
2, 78480, Note_off_c, 1, 71, 0
2, 78480, Note_on_c, 1, 72, 127
2, 78480, Note_off_c, 1, 83, 0
2, 78480, Note_on_c, 1, 84, 127
2, 78480, Note_on_c, 1, 88, 127
2, 78480, Note_off_c, 1, 90, 0
2, 78520, Note_off_c, 1, 57, 0
2, 78520, Note_on_c, 1, 59, 127
2, 78520, Note_on_c, 1, 62, 127
2, 78520, Note_on_c, 1, 67, 127
2, 78520, Note_off_c, 1, 72, 0
2, 78520, Note_on_c, 1, 79, 127
2, 78520, Note_off_c, 1, 84, 0
2, 78520, Note_on_c, 1, 86, 127
2, 78520, Note_off_c, 1, 88, 0
2, 78520, Note_on_c, 1, 89, 127
2, 78520, Note_on_c, 1, 91, 127
2, 78560, Note_off_c, 1, 59, 0
2, 78560, Note_on_c, 1, 63, 127
2, 78560, Note_on_c, 1, 65, 127
2, 78560, Note_off_c, 1, 79, 0
2, 78560, Note_on_c, 1, 80, 127
2, 78560, Note_on_c, 1, 84, 127
2, 78560, Note_off_c, 1, 86, 0
2, 78560, Note_off_c, 1, 89, 0
2, 78560, Note_off_c, 1, 91, 0
2, 78600, Note_on_c, 1, 49, 127
2, 78600, Note_on_c, 1, 53, 127
2, 78600, Note_on_c, 1, 59, 127
2, 78600, Note_off_c, 1, 62, 0
2, 78600, Note_off_c, 1, 63, 0
2, 78600, Note_off_c, 1, 65, 0
2, 78600, Note_off_c, 1, 67, 0
2, 78600, Note_on_c, 1, 68, 127
2, 78600, Note_on_c, 1, 73, 127
2, 78600, Note_off_c, 1, 80, 0
2, 78600, Note_off_c, 1, 84, 0
2, 78640, Note_on_c, 1, 47, 127
2, 78640, Note_off_c, 1, 49, 0
2, 78640, Note_off_c, 1, 53, 0
2, 78640, Note_on_c, 1, 62, 127
2, 78640, Note_on_c, 1, 64, 127
2, 78640, Note_off_c, 1, 73, 0
2, 78680, Note_on_c, 1, 40, 127
2, 78680, Note_on_c, 1, 44, 127
2, 78680, Note_off_c, 1, 47, 0
2, 78680, Note_off_c, 1, 59, 0
2, 78680, Note_off_c, 1, 62, 0
2, 78680, Note_off_c, 1, 64, 0
2, 78680, Note_off_c, 1, 68, 0
2, 78680, Note_on_c, 1, 80, 127
2, 78720, Note_off_c, 1, 40, 0
2, 78720, Note_off_c, 1, 44, 0
2, 78720, Note_on_c, 1, 45, 127
2, 78720, Note_on_c, 1, 62, 127
2, 78720, Note_on_c, 1, 65, 127
2, 78720, Note_on_c, 1, 68, 127
2, 78720, Note_on_c, 1, 70, 127
2, 78720, Note_on_c, 1, 74, 127
2, 78720, Note_off_c, 1, 80, 0
2, 78800, Note_off_c, 1, 45, 0
2, 78800, Note_on_c, 1, 56, 127
2, 78800, Note_off_c, 1, 62, 0
2, 78800, Note_on_c, 1, 63, 127
2, 78800, Note_off_c, 1, 68, 0
2, 78800, Note_off_c, 1, 70, 0
2, 78800, Note_on_c, 1, 71, 127
2, 78800, Note_off_c, 1, 74, 0
2, 78800, Note_on_c, 1, 78, 127
2, 78840, Note_on_c, 1, 49, 127
2, 78840, Note_off_c, 1, 65, 0
2, 78840, Note_on_c, 1, 68, 127
2, 78840, Note_off_c, 1, 71, 0
2, 78840, Note_on_c, 1, 75, 127
2, 78840, Note_off_c, 1, 78, 0
2, 78880, Note_on_c, 1, 33, 127
2, 78880, Note_on_c, 1, 45, 127
2, 78880, Note_off_c, 1, 49, 0
2, 78880, Note_off_c, 1, 56, 0
2, 78880, Note_off_c, 1, 68, 0
2, 78880, Note_on_c, 1, 72, 127
2, 78880, Note_off_c, 1, 75, 0
2, 78920, Note_off_c, 1, 33, 0
2, 78920, Note_off_c, 1, 45, 0
2, 78920, Note_off_c, 1, 63, 0
2, 78920, Note_off_c, 1, 72, 0
2, 78920, Note_on_c, 1, 80, 127
2, 79320, Note_off_c, 1, 80, 0
2, 79360, Note_on_c, 1, 54, 127
2, 79360, Note_on_c, 1, 61, 127
2, 79360, Note_on_c, 1, 64, 127
2, 79360, Note_on_c, 1, 70, 127
2, 79360, Note_on_c, 1, 78, 127
2, 79440, Note_off_c, 1, 54, 0
2, 79440, Note_off_c, 1, 61, 0
2, 79440, Note_off_c, 1, 64, 0
2, 79440, Note_off_c, 1, 70, 0
2, 79440, Note_off_c, 1, 78, 0
2, 79480, Note_on_c, 1, 52, 127
2, 79480, Note_on_c, 1, 56, 127
2, 79480, Note_on_c, 1, 59, 127
2, 79480, Note_on_c, 1, 61, 127
2, 79480, Note_on_c, 1, 83, 127
2, 79600, Note_off_c, 1, 52, 0
2, 79600, Note_off_c, 1, 56, 0
2, 79600, Note_off_c, 1, 59, 0
2, 79600, Note_off_c, 1, 61, 0
2, 79600, Note_off_c, 1, 83, 0
2, 79640, Note_on_c, 1, 52, 127
2, 79640, Note_on_c, 1, 56, 127
2, 79640, Note_on_c, 1, 59, 127
2, 79640, Note_on_c, 1, 61, 127
2, 79640, Note_on_c, 1, 83, 127
2, 79840, Note_off_c, 1, 52, 0
2, 79840, Note_off_c, 1, 56, 0
2, 79840, Note_on_c, 1, 57, 127
2, 79840, Note_off_c, 1, 59, 0
2, 79840, Note_on_c, 1, 66, 127
2, 79840, Note_on_c, 1, 69, 127
2, 79840, Note_off_c, 1, 83, 0
2, 79840, Note_on_c, 1, 85, 127
2, 79880, Note_on_c, 1, 50, 127
2, 79880, Note_on_c, 1, 55, 127
2, 79880, Note_off_c, 1, 57, 0
2, 79880, Note_on_c, 1, 58, 127
2, 79880, Note_off_c, 1, 61, 0
2, 79880, Note_on_c, 1, 62, 127
2, 79880, Note_off_c, 1, 66, 0
2, 79880, Note_off_c, 1, 69, 0
2, 79880, Note_on_c, 1, 79, 127
2, 79880, Note_off_c, 1, 85, 0
2, 79920, Note_off_c, 1, 50, 0
2, 79920, Note_off_c, 1, 55, 0
2, 79920, Note_on_c, 1, 56, 127
2, 79920, Note_off_c, 1, 58, 0
2, 79920, Note_off_c, 1, 62, 0
2, 79920, Note_on_c, 1, 68, 127
2, 79920, Note_on_c, 1, 73, 127
2, 79920, Note_on_c, 1, 77, 127
2, 79920, Note_off_c, 1, 79, 0
2, 79920, Note_on_c, 1, 83, 127
2, 79960, Note_off_c, 1, 56, 0
2, 79960, Note_off_c, 1, 68, 0
2, 79960, Note_off_c, 1, 73, 0
2, 79960, Note_off_c, 1, 77, 0
2, 79960, Note_off_c, 1, 83, 0
2, 80000, Note_on_c, 1, 37, 127
2, 80000, Note_on_c, 1, 56, 127
2, 80000, Note_on_c, 1, 64, 127
2, 80000, Note_on_c, 1, 68, 127
2, 80960, Note_off_c, 1, 37, 0
2, 80960, Note_off_c, 1, 56, 0
2, 80960, Note_off_c, 1, 64, 0
2, 80960, Note_off_c, 1, 68, 0
2, 81000, Note_on_c, 1, 64, 127
2, 81000, Note_on_c, 1, 68, 127
2, 81000, Note_on_c, 1, 71, 127
2, 81000, Note_on_c, 1, 81, 127
2, 81480, Note_off_c, 1, 64, 0
2, 81480, Note_off_c, 1, 68, 0
2, 81480, Note_off_c, 1, 71, 0
2, 81480, Note_off_c, 1, 81, 0
2, 81520, Note_on_c, 1, 64, 127
2, 81520, Note_on_c, 1, 68, 127
2, 81520, Note_on_c, 1, 71, 127
2, 81520, Note_on_c, 1, 79, 127
2, 81840, Note_off_c, 1, 64, 0
2, 81840, Note_off_c, 1, 68, 0
2, 81840, Note_off_c, 1, 71, 0
2, 81840, Note_off_c, 1, 79, 0
2, 81880, Note_on_c, 1, 64, 127
2, 81880, Note_on_c, 1, 68, 127
2, 81880, Note_on_c, 1, 71, 127
2, 81880, Note_on_c, 1, 79, 127
2, 82000, Note_off_c, 1, 64, 0
2, 82000, Note_off_c, 1, 68, 0
2, 82000, Note_off_c, 1, 71, 0
2, 82000, Note_off_c, 1, 79, 0
2, 82040, Note_on_c, 1, 66, 127
2, 82040, Note_on_c, 1, 71, 127
2, 82040, Note_on_c, 1, 75, 127
2, 82040, Note_on_c, 1, 81, 127
2, 82480, Note_off_c, 1, 71, 0
2, 82480, Note_off_c, 1, 75, 0
2, 82480, Note_off_c, 1, 81, 0
2, 82520, Note_on_c, 1, 52, 127
2, 82520, Note_on_c, 1, 59, 127
2, 82520, Note_on_c, 1, 64, 127
2, 82520, Note_off_c, 1, 66, 0
2, 82520, Note_on_c, 1, 68, 127
2, 82520, Note_on_c, 1, 73, 127
2, 82520, Note_on_c, 1, 76, 127
2, 83000, Note_off_c, 1, 52, 0
2, 83000, Note_off_c, 1, 59, 0
2, 83000, Note_off_c, 1, 64, 0
2, 83000, Note_off_c, 1, 68, 0
2, 83000, Note_off_c, 1, 73, 0
2, 83000, Note_off_c, 1, 76, 0
2, 83040, Note_on_c, 1, 57, 127
2, 83040, Note_on_c, 1, 64, 127
2, 83040, Note_on_c, 1, 69, 127
2, 83040, Note_on_c, 1, 73, 127
2, 83040, Note_on_c, 1, 81, 127
2, 83760, Note_on_c, 1, 26, 127
2, 83760, Note_on_c, 1, 30, 127
2, 83760, Note_on_c, 1, 33, 127
2, 83760, Note_on_c, 1, 38, 127
2, 83760, Note_on_c, 1, 50, 127
2, 83760, Note_off_c, 1, 57, 0
2, 83760, Note_on_c, 1, 62, 127
2, 83760, Note_off_c, 1, 64, 0
2, 83760, Note_off_c, 1, 69, 0
2, 83760, Note_off_c, 1, 73, 0
2, 83760, Note_off_c, 1, 81, 0
2, 83800, Note_off_c, 1, 26, 0
2, 83800, Note_off_c, 1, 30, 0
2, 83800, Note_off_c, 1, 33, 0
2, 83800, Note_off_c, 1, 38, 0
2, 83800, Note_off_c, 1, 50, 0
2, 83800, Note_off_c, 1, 62, 0
2, 83800, Note_on_c, 1, 80, 127
2, 83800, Note_on_c, 1, 84, 127
2, 83800, Note_on_c, 1, 96, 127
2, 83800, Note_on_c, 1, 97, 127
2, 83800, Note_on_c, 1, 99, 127
2, 83840, Note_on_c, 1, 41, 127
2, 83840, Note_on_c, 1, 48, 127
2, 83840, Note_on_c, 1, 57, 127
2, 83840, Note_on_c, 1, 62, 127
2, 83840, Note_on_c, 1, 69, 127
2, 83840, Note_off_c, 1, 80, 0
2, 83840, Note_off_c, 1, 84, 0
2, 83840, Note_off_c, 1, 96, 0
2, 83840, Note_off_c, 1, 97, 0
2, 83840, Note_off_c, 1, 99, 0
2, 83880, Note_off_c, 1, 41, 0
2, 83880, Note_off_c, 1, 48, 0
2, 83880, Note_off_c, 1, 57, 0
2, 83880, Note_off_c, 1, 62, 0
2, 83880, Note_off_c, 1, 69, 0
2, 83920, Note_on_c, 1, 42, 127
2, 83920, Note_on_c, 1, 54, 127
2, 83920, Note_on_c, 1, 68, 127
2, 83920, Note_on_c, 1, 75, 127
2, 83920, Note_on_c, 1, 78, 127
2, 83920, Note_on_c, 1, 80, 127
2, 83960, Note_off_c, 1, 42, 0
2, 83960, Note_off_c, 1, 54, 0
2, 83960, Note_on_c, 1, 58, 127
2, 83960, Note_on_c, 1, 70, 127
2, 83960, Note_on_c, 1, 74, 127
2, 83960, Note_off_c, 1, 75, 0
2, 83960, Note_off_c, 1, 78, 0
2, 83960, Note_off_c, 1, 80, 0
2, 83960, Note_on_c, 1, 82, 127
2, 84000, Note_off_c, 1, 58, 0
2, 84000, Note_off_c, 1, 68, 0
2, 84000, Note_off_c, 1, 70, 0
2, 84000, Note_off_c, 1, 74, 0
2, 84000, Note_off_c, 1, 82, 0
2, 84040, Note_on_c, 1, 54, 127
2, 84040, Note_on_c, 1, 58, 127
2, 84040, Note_on_c, 1, 61, 127
2, 84040, Note_on_c, 1, 64, 127
2, 84040, Note_on_c, 1, 66, 127
2, 84040, Note_on_c, 1, 70, 127
2, 84040, Note_on_c, 1, 73, 127
2, 84880, Note_off_c, 1, 54, 0
2, 84880, Note_off_c, 1, 58, 0
2, 84880, Note_off_c, 1, 61, 0
2, 84880, Note_off_c, 1, 64, 0
2, 84880, Note_off_c, 1, 66, 0
2, 84880, Note_off_c, 1, 70, 0
2, 84880, Note_off_c, 1, 73, 0
2, 84920, Note_on_c, 1, 27, 127
2, 84920, Note_on_c, 1, 30, 127
2, 84920, Note_on_c, 1, 34, 127
2, 84920, Note_on_c, 1, 39, 127
2, 85000, Note_off_c, 1, 27, 0
2, 85000, Note_off_c, 1, 30, 0
2, 85000, Note_off_c, 1, 34, 0
2, 85000, Note_off_c, 1, 39, 0
2, 85040, Note_on_c, 1, 42, 127
2, 85040, Note_on_c, 1, 49, 127
2, 85040, Note_on_c, 1, 54, 127
2, 85040, Note_on_c, 1, 58, 127
2, 85040, Note_on_c, 1, 61, 127
2, 85040, Note_on_c, 1, 65, 127
2, 85520, Note_off_c, 1, 42, 0
2, 85520, Note_off_c, 1, 49, 0
2, 85520, Note_off_c, 1, 54, 0
2, 85520, Note_off_c, 1, 58, 0
2, 85520, Note_off_c, 1, 61, 0
2, 85520, Note_off_c, 1, 65, 0
2, 85560, Note_on_c, 1, 44, 127
2, 85560, Note_on_c, 1, 56, 127
2, 85560, Note_on_c, 1, 78, 127
2, 85560, Note_on_c, 1, 81, 127
2, 85560, Note_on_c, 1, 85, 127
2, 85600, Note_on_c, 1, 30, 127
2, 85600, Note_on_c, 1, 34, 127
2, 85600, Note_on_c, 1, 39, 127
2, 85600, Note_on_c, 1, 42, 127
2, 85600, Note_off_c, 1, 44, 0
2, 85600, Note_off_c, 1, 56, 0
2, 85600, Note_on_c, 1, 65, 127
2, 85600, Note_on_c, 1, 66, 127
2, 85600, Note_off_c, 1, 81, 0
2, 85600, Note_off_c, 1, 85, 0
2, 85640, Note_off_c, 1, 30, 0
2, 85640, Note_off_c, 1, 34, 0
2, 85640, Note_off_c, 1, 39, 0
2, 85640, Note_off_c, 1, 42, 0
2, 85640, Note_on_c, 1, 50, 127
2, 85640, Note_on_c, 1, 53, 127
2, 85640, Note_on_c, 1, 60, 127
2, 85640, Note_off_c, 1, 65, 0
2, 85640, Note_off_c, 1, 66, 0
2, 85640, Note_on_c, 1, 68, 127
2, 85640, Note_off_c, 1, 78, 0
2, 85680, Note_off_c, 1, 53, 0
2, 85680, Note_on_c, 1, 56, 127
2, 85680, Note_off_c, 1, 60, 0
2, 85680, Note_on_c, 1, 71, 127
2, 85720, Note_off_c, 1, 50, 0
2, 85720, Note_on_c, 1, 52, 127
2, 85720, Note_off_c, 1, 56, 0
2, 85720, Note_on_c, 1, 63, 127
2, 85720, Note_on_c, 1, 66, 127
2, 85720, Note_off_c, 1, 68, 0
2, 85720, Note_on_c, 1, 69, 127
2, 85720, Note_off_c, 1, 71, 0
2, 85760, Note_on_c, 1, 34, 127
2, 85760, Note_on_c, 1, 46, 127
2, 85760, Note_off_c, 1, 52, 0
2, 85760, Note_on_c, 1, 61, 127
2, 85760, Note_off_c, 1, 63, 0
2, 85760, Note_on_c, 1, 64, 127
2, 85760, Note_off_c, 1, 66, 0
2, 85760, Note_off_c, 1, 69, 0
2, 85800, Note_off_c, 1, 34, 0
2, 85800, Note_off_c, 1, 46, 0
2, 85800, Note_on_c, 1, 53, 127
2, 85800, Note_on_c, 1, 59, 127
2, 85800, Note_off_c, 1, 61, 0
2, 85800, Note_on_c, 1, 62, 127
2, 85800, Note_off_c, 1, 64, 0
2, 85800, Note_on_c, 1, 72, 127
2, 85840, Note_on_c, 1, 43, 127
2, 85840, Note_on_c, 1, 50, 127
2, 85840, Note_off_c, 1, 53, 0
2, 85840, Note_off_c, 1, 59, 0
2, 85840, Note_off_c, 1, 62, 0
2, 85840, Note_on_c, 1, 84, 127
2, 85880, Note_off_c, 1, 43, 0
2, 85880, Note_off_c, 1, 50, 0
2, 85880, Note_on_c, 1, 54, 127
2, 85880, Note_on_c, 1, 61, 127
2, 85880, Note_on_c, 1, 69, 127
2, 85880, Note_off_c, 1, 72, 0
2, 85880, Note_on_c, 1, 74, 127
2, 85880, Note_off_c, 1, 84, 0
2, 85920, Note_on_c, 1, 53, 127
2, 85920, Note_off_c, 1, 54, 0
2, 85920, Note_on_c, 1, 59, 127
2, 85920, Note_off_c, 1, 61, 0
2, 85920, Note_on_c, 1, 62, 127
2, 85920, Note_off_c, 1, 69, 0
2, 85920, Note_on_c, 1, 72, 127
2, 85920, Note_off_c, 1, 74, 0
2, 85960, Note_off_c, 1, 53, 0
2, 85960, Note_off_c, 1, 59, 0
2, 85960, Note_off_c, 1, 62, 0
2, 85960, Note_off_c, 1, 72, 0
2, 86000, Note_on_c, 1, 53, 127
2, 86000, Note_on_c, 1, 59, 127
2, 86000, Note_on_c, 1, 62, 127
2, 86000, Note_on_c, 1, 72, 127
2, 86040, Note_off_c, 1, 53, 0
2, 86040, Note_off_c, 1, 59, 0
2, 86040, Note_off_c, 1, 62, 0
2, 86040, Note_on_c, 1, 73, 127
2, 86040, Note_on_c, 1, 79, 127
2, 86040, Note_on_c, 1, 88, 127
2, 86080, Note_off_c, 1, 72, 0
2, 86080, Note_off_c, 1, 73, 0
2, 86080, Note_off_c, 1, 79, 0
2, 86080, Note_off_c, 1, 88, 0
2, 86120, Note_on_c, 1, 39, 127
2, 86120, Note_on_c, 1, 47, 127
2, 86120, Note_on_c, 1, 51, 127
2, 86120, Note_on_c, 1, 57, 127
2, 86120, Note_on_c, 1, 66, 127
2, 86120, Note_on_c, 1, 69, 127
2, 86440, Note_off_c, 1, 39, 0
2, 86440, Note_off_c, 1, 47, 0
2, 86440, Note_off_c, 1, 51, 0
2, 86440, Note_off_c, 1, 57, 0
2, 86440, Note_on_c, 1, 59, 127
2, 86440, Note_on_c, 1, 65, 127
2, 86440, Note_off_c, 1, 66, 0
2, 86440, Note_off_c, 1, 69, 0
2, 86440, Note_on_c, 1, 71, 127
2, 86440, Note_on_c, 1, 77, 127
2, 86440, Note_on_c, 1, 79, 127
2, 86440, Note_on_c, 1, 83, 127
2, 86480, Note_on_c, 1, 57, 127
2, 86480, Note_off_c, 1, 59, 0
2, 86480, Note_off_c, 1, 65, 0
2, 86480, Note_on_c, 1, 66, 127
2, 86480, Note_on_c, 1, 69, 127
2, 86480, Note_off_c, 1, 71, 0
2, 86480, Note_off_c, 1, 77, 0
2, 86480, Note_off_c, 1, 79, 0
2, 86480, Note_off_c, 1, 83, 0
2, 86520, Note_on_c, 1, 29, 127
2, 86520, Note_on_c, 1, 41, 127
2, 86520, Note_off_c, 1, 57, 0
2, 86520, Note_off_c, 1, 66, 0
2, 86520, Note_off_c, 1, 69, 0
2, 86520, Note_on_c, 1, 84, 127
2, 86520, Note_on_c, 1, 92, 127
2, 86520, Note_on_c, 1, 96, 127
2, 86560, Note_off_c, 1, 29, 0
2, 86560, Note_on_c, 1, 32, 127
2, 86560, Note_off_c, 1, 41, 0
2, 86560, Note_on_c, 1, 61, 127
2, 86560, Note_on_c, 1, 63, 127
2, 86560, Note_on_c, 1, 70, 127
2, 86560, Note_off_c, 1, 84, 0
2, 86560, Note_off_c, 1, 92, 0
2, 86560, Note_off_c, 1, 96, 0
2, 86600, Note_off_c, 1, 32, 0
2, 86600, Note_on_c, 1, 35, 127
2, 86600, Note_on_c, 1, 51, 127
2, 86600, Note_on_c, 1, 54, 127
2, 86600, Note_on_c, 1, 59, 127
2, 86600, Note_off_c, 1, 61, 0
2, 86600, Note_off_c, 1, 70, 0
2, 86640, Note_off_c, 1, 35, 0
2, 86640, Note_on_c, 1, 45, 127
2, 86640, Note_off_c, 1, 51, 0
2, 86640, Note_off_c, 1, 54, 0
2, 86640, Note_on_c, 1, 55, 127
2, 86640, Note_off_c, 1, 59, 0
2, 86640, Note_on_c, 1, 60, 127
2, 86640, Note_off_c, 1, 63, 0
2, 86640, Note_on_c, 1, 69, 127
2, 86680, Note_off_c, 1, 45, 0
2, 86680, Note_on_c, 1, 50, 127
2, 86680, Note_off_c, 1, 55, 0
2, 86680, Note_on_c, 1, 57, 127
2, 86680, Note_on_c, 1, 67, 127
2, 86680, Note_off_c, 1, 69, 0
2, 86680, Note_on_c, 1, 86, 127
2, 86720, Note_on_c, 1, 43, 127
2, 86720, Note_off_c, 1, 50, 0
2, 86720, Note_off_c, 1, 57, 0
2, 86720, Note_off_c, 1, 60, 0
2, 86720, Note_off_c, 1, 67, 0
2, 86720, Note_on_c, 1, 84, 127
2, 86720, Note_off_c, 1, 86, 0
2, 86720, Note_on_c, 1, 87, 127
2, 86760, Note_off_c, 1, 43, 0
2, 86760, Note_on_c, 1, 61, 127
2, 86760, Note_on_c, 1, 64, 127
2, 86760, Note_on_c, 1, 68, 127
2, 86760, Note_on_c, 1, 76, 127
2, 86760, Note_off_c, 1, 84, 0
2, 86760, Note_on_c, 1, 85, 127
2, 86760, Note_off_c, 1, 87, 0
2, 86800, Note_on_c, 1, 55, 127
2, 86800, Note_on_c, 1, 60, 127
2, 86800, Note_off_c, 1, 61, 0
2, 86800, Note_on_c, 1, 63, 127
2, 86800, Note_off_c, 1, 64, 0
2, 86800, Note_on_c, 1, 66, 127
2, 86800, Note_off_c, 1, 68, 0
2, 86800, Note_on_c, 1, 74, 127
2, 86800, Note_off_c, 1, 76, 0
2, 86800, Note_off_c, 1, 85, 0
2, 86840, Note_on_c, 1, 44, 127
2, 86840, Note_on_c, 1, 54, 127
2, 86840, Note_off_c, 1, 55, 0
2, 86840, Note_off_c, 1, 60, 0
2, 86840, Note_off_c, 1, 63, 0
2, 86840, Note_off_c, 1, 66, 0
2, 86840, Note_on_c, 1, 69, 127
2, 86840, Note_on_c, 1, 72, 127
2, 86840, Note_off_c, 1, 74, 0
2, 86840, Note_on_c, 1, 75, 127
2, 86840, Note_on_c, 1, 78, 127
2, 86840, Note_on_c, 1, 81, 127
2, 86880, Note_on_c, 1, 38, 127
2, 86880, Note_off_c, 1, 44, 0
2, 86880, Note_on_c, 1, 52, 127
2, 86880, Note_off_c, 1, 54, 0
2, 86880, Note_on_c, 1, 57, 127
2, 86880, Note_off_c, 1, 69, 0
2, 86880, Note_off_c, 1, 72, 0
2, 86880, Note_off_c, 1, 75, 0
2, 86880, Note_on_c, 1, 76, 127
2, 86880, Note_off_c, 1, 78, 0
2, 86880, Note_off_c, 1, 81, 0
2, 87600, Note_off_c, 1, 38, 0
2, 87600, Note_off_c, 1, 52, 0
2, 87600, Note_off_c, 1, 57, 0
2, 87600, Note_off_c, 1, 76, 0
2, 87600, Note_on_c, 1, 77, 127
2, 88240, Note_off_c, 1, 77, 0
2, 88280, Note_on_c, 1, 77, 127
2, 88360, Note_off_c, 1, 77, 0
2, 88480, Note_on_c, 1, 76, 127
2, 88840, Note_off_c, 1, 76, 0
2, 88880, Note_on_c, 1, 77, 127
2, 89080, Note_off_c, 1, 77, 0
2, 89360, Note_on_c, 1, 55, 127
2, 89360, Note_on_c, 1, 58, 127
2, 89360, Note_on_c, 1, 63, 127
2, 89360, Note_on_c, 1, 75, 127
2, 89600, Note_off_c, 1, 75, 0
2, 89600, Note_on_c, 1, 77, 127
2, 89640, Note_on_c, 1, 75, 127
2, 89640, Note_off_c, 1, 77, 0
2, 89680, Note_off_c, 1, 75, 0
2, 89680, Note_on_c, 1, 77, 127
2, 89720, Note_on_c, 1, 75, 127
2, 89720, Note_off_c, 1, 77, 0
2, 89800, Note_off_c, 1, 55, 0
2, 89800, Note_off_c, 1, 58, 0
2, 89800, Note_off_c, 1, 63, 0
2, 89800, Note_off_c, 1, 75, 0
2, 89840, Note_on_c, 1, 55, 127
2, 89840, Note_on_c, 1, 58, 127
2, 89840, Note_on_c, 1, 70, 127
2, 89840, Note_on_c, 1, 75, 127
2, 90040, Note_on_c, 1, 53, 127
2, 90040, Note_off_c, 1, 70, 0
2, 90040, Note_off_c, 1, 75, 0
2, 90040, Note_on_c, 1, 79, 127
2, 90080, Note_off_c, 1, 53, 0
2, 90080, Note_on_c, 1, 70, 127
2, 90080, Note_on_c, 1, 75, 127
2, 90080, Note_off_c, 1, 79, 0
2, 90080, Note_on_c, 1, 82, 127
2, 90280, Note_off_c, 1, 55, 0
2, 90280, Note_off_c, 1, 58, 0
2, 90280, Note_on_c, 1, 60, 127
2, 90280, Note_on_c, 1, 63, 127
2, 90280, Note_on_c, 1, 66, 127
2, 90280, Note_off_c, 1, 70, 0
2, 90280, Note_on_c, 1, 74, 127
2, 90280, Note_off_c, 1, 75, 0
2, 90280, Note_on_c, 1, 78, 127
2, 90280, Note_off_c, 1, 82, 0
2, 90320, Note_off_c, 1, 60, 0
2, 90320, Note_off_c, 1, 63, 0
2, 90320, Note_off_c, 1, 66, 0
2, 90320, Note_off_c, 1, 74, 0
2, 90320, Note_off_c, 1, 78, 0
2, 90400, Note_on_c, 1, 54, 127
2, 90400, Note_on_c, 1, 58, 127
2, 90400, Note_on_c, 1, 66, 127
2, 90400, Note_on_c, 1, 75, 127
2, 90720, Note_off_c, 1, 54, 0
2, 90720, Note_off_c, 1, 58, 0
2, 90720, Note_off_c, 1, 66, 0
2, 90720, Note_off_c, 1, 75, 0
2, 90760, Note_on_c, 1, 51, 127
2, 90760, Note_on_c, 1, 54, 127
2, 90760, Note_on_c, 1, 63, 127
2, 90760, Note_on_c, 1, 66, 127
2, 90760, Note_on_c, 1, 71, 127
2, 90760, Note_on_c, 1, 78, 127
2, 90840, Note_off_c, 1, 51, 0
2, 90840, Note_off_c, 1, 54, 0
2, 90840, Note_off_c, 1, 63, 0
2, 90840, Note_off_c, 1, 66, 0
2, 90840, Note_off_c, 1, 71, 0
2, 90840, Note_off_c, 1, 78, 0
2, 90880, Note_on_c, 1, 51, 127
2, 90880, Note_on_c, 1, 54, 127
2, 90880, Note_on_c, 1, 63, 127
2, 90880, Note_on_c, 1, 66, 127
2, 90880, Note_on_c, 1, 71, 127
2, 90880, Note_on_c, 1, 78, 127
2, 91320, Note_off_c, 1, 51, 0
2, 91320, Note_off_c, 1, 54, 0
2, 91320, Note_off_c, 1, 63, 0
2, 91320, Note_off_c, 1, 66, 0
2, 91320, Note_off_c, 1, 71, 0
2, 91320, Note_off_c, 1, 78, 0
2, 91360, Note_on_c, 1, 51, 127
2, 91360, Note_on_c, 1, 58, 127
2, 91360, Note_on_c, 1, 60, 127
2, 91360, Note_on_c, 1, 63, 127
2, 91360, Note_on_c, 1, 67, 127
2, 91360, Note_on_c, 1, 82, 127
2, 91400, Note_off_c, 1, 51, 0
2, 91400, Note_on_c, 1, 55, 127
2, 91400, Note_off_c, 1, 58, 0
2, 91400, Note_on_c, 1, 59, 127
2, 91400, Note_off_c, 1, 60, 0
2, 91400, Note_on_c, 1, 62, 127
2, 91400, Note_off_c, 1, 63, 0
2, 91400, Note_on_c, 1, 78, 127
2, 91400, Note_on_c, 1, 81, 127
2, 91400, Note_off_c, 1, 82, 0
2, 91440, Note_off_c, 1, 59, 0
2, 91440, Note_off_c, 1, 62, 0
2, 91440, Note_on_c, 1, 70, 127
2, 91440, Note_on_c, 1, 74, 127
2, 91440, Note_off_c, 1, 78, 0
2, 91440, Note_off_c, 1, 81, 0
2, 91440, Note_on_c, 1, 82, 127
2, 91480, Note_off_c, 1, 55, 0
2, 91480, Note_off_c, 1, 67, 0
2, 91480, Note_off_c, 1, 70, 0
2, 91480, Note_off_c, 1, 74, 0
2, 91480, Note_off_c, 1, 82, 0
2, 91560, Note_on_c, 1, 53, 127
2, 91560, Note_on_c, 1, 61, 127
2, 91560, Note_on_c, 1, 65, 127
2, 91560, Note_on_c, 1, 69, 127
2, 91560, Note_on_c, 1, 73, 127
2, 91560, Note_on_c, 1, 77, 127
2, 91800, Note_off_c, 1, 53, 0
2, 91800, Note_off_c, 1, 61, 0
2, 91800, Note_off_c, 1, 65, 0
2, 91800, Note_off_c, 1, 69, 0
2, 91800, Note_off_c, 1, 73, 0
2, 91800, Note_off_c, 1, 77, 0
2, 91840, Note_on_c, 1, 51, 127
2, 91840, Note_on_c, 1, 60, 127
2, 91840, Note_on_c, 1, 68, 127
2, 91840, Note_on_c, 1, 72, 127
2, 91840, Note_on_c, 1, 82, 127
2, 91920, Note_on_c, 1, 49, 127
2, 91920, Note_off_c, 1, 51, 0
2, 91920, Note_on_c, 1, 56, 127
2, 91920, Note_on_c, 1, 59, 127
2, 91920, Note_off_c, 1, 60, 0
2, 91920, Note_on_c, 1, 63, 127
2, 91920, Note_on_c, 1, 66, 127
2, 91920, Note_off_c, 1, 72, 0
2, 91920, Note_off_c, 1, 82, 0
2, 91960, Note_off_c, 1, 49, 0
2, 91960, Note_on_c, 1, 51, 127
2, 91960, Note_off_c, 1, 56, 0
2, 91960, Note_off_c, 1, 59, 0
2, 91960, Note_on_c, 1, 60, 127
2, 91960, Note_off_c, 1, 63, 0
2, 91960, Note_off_c, 1, 66, 0
2, 91960, Note_on_c, 1, 72, 127
2, 91960, Note_on_c, 1, 82, 127
2, 92040, Note_off_c, 1, 51, 0
2, 92040, Note_off_c, 1, 60, 0
2, 92040, Note_off_c, 1, 68, 0
2, 92040, Note_off_c, 1, 72, 0
2, 92040, Note_off_c, 1, 82, 0
2, 92080, Note_on_c, 1, 32, 127
2, 92080, Note_on_c, 1, 44, 127
2, 92080, Note_on_c, 1, 56, 127
2, 92080, Note_on_c, 1, 72, 127
2, 92080, Note_on_c, 1, 78, 127
2, 92080, Note_on_c, 1, 84, 127
2, 92200, Note_off_c, 1, 32, 0
2, 92200, Note_off_c, 1, 44, 0
2, 92200, Note_on_c, 1, 45, 127
2, 92200, Note_on_c, 1, 52, 127
2, 92200, Note_off_c, 1, 56, 0
2, 92200, Note_off_c, 1, 72, 0
2, 92200, Note_off_c, 1, 78, 0
2, 92200, Note_on_c, 1, 83, 127
2, 92200, Note_off_c, 1, 84, 0
2, 92200, Note_on_c, 1, 91, 127
2, 92200, Note_on_c, 1, 95, 127
2, 92240, Note_on_c, 1, 32, 127
2, 92240, Note_on_c, 1, 44, 127
2, 92240, Note_off_c, 1, 45, 0
2, 92240, Note_off_c, 1, 52, 0
2, 92240, Note_on_c, 1, 56, 127
2, 92240, Note_on_c, 1, 72, 127
2, 92240, Note_on_c, 1, 78, 127
2, 92240, Note_off_c, 1, 83, 0
2, 92240, Note_on_c, 1, 84, 127
2, 92240, Note_off_c, 1, 91, 0
2, 92240, Note_off_c, 1, 95, 0
2, 92280, Note_off_c, 1, 32, 0
2, 92280, Note_off_c, 1, 44, 0
2, 92280, Note_off_c, 1, 56, 0
2, 92280, Note_off_c, 1, 72, 0
2, 92280, Note_off_c, 1, 78, 0
2, 92280, Note_off_c, 1, 84, 0
2, 92320, Note_on_c, 1, 42, 127
2, 92320, Note_on_c, 1, 54, 127
2, 92320, Note_on_c, 1, 58, 127
2, 92320, Note_on_c, 1, 64, 127
2, 92320, Note_on_c, 1, 66, 127
2, 92400, Note_off_c, 1, 42, 0
2, 92400, Note_off_c, 1, 54, 0
2, 92400, Note_off_c, 1, 58, 0
2, 92400, Note_off_c, 1, 64, 0
2, 92400, Note_off_c, 1, 66, 0
2, 92440, Note_on_c, 1, 42, 127
2, 92440, Note_on_c, 1, 54, 127
2, 92440, Note_on_c, 1, 58, 127
2, 92440, Note_on_c, 1, 64, 127
2, 92440, Note_on_c, 1, 66, 127
2, 92520, Note_off_c, 1, 42, 0
2, 92520, Note_off_c, 1, 54, 0
2, 92520, Note_off_c, 1, 58, 0
2, 92520, Note_off_c, 1, 64, 0
2, 92520, Note_off_c, 1, 66, 0
2, 92520, Note_on_c, 1, 73, 127
2, 92520, Note_on_c, 1, 78, 127
2, 92520, Note_on_c, 1, 82, 127
2, 92520, Note_on_c, 1, 87, 127
2, 92560, Note_off_c, 1, 73, 0
2, 92560, Note_off_c, 1, 78, 0
2, 92560, Note_off_c, 1, 82, 0
2, 92560, Note_off_c, 1, 87, 0
2, 92600, Note_on_c, 1, 34, 127
2, 92600, Note_on_c, 1, 46, 127
2, 92600, Note_on_c, 1, 78, 127
2, 92600, Note_on_c, 1, 85, 127
2, 92600, Note_on_c, 1, 88, 127
2, 92600, Note_on_c, 1, 90, 127
2, 92800, Note_off_c, 1, 34, 0
2, 92800, Note_off_c, 1, 46, 0
2, 92800, Note_off_c, 1, 78, 0
2, 92800, Note_off_c, 1, 85, 0
2, 92800, Note_off_c, 1, 88, 0
2, 92800, Note_off_c, 1, 90, 0
2, 92840, Note_on_c, 1, 31, 127
2, 92840, Note_on_c, 1, 43, 127
2, 92840, Note_on_c, 1, 60, 127
2, 92840, Note_on_c, 1, 72, 127
2, 93040, Note_off_c, 1, 31, 0
2, 93040, Note_off_c, 1, 43, 0
2, 93040, Note_off_c, 1, 60, 0
2, 93040, Note_off_c, 1, 72, 0
2, 93080, Note_on_c, 1, 43, 127
2, 93080, Note_on_c, 1, 55, 127
2, 93080, Note_on_c, 1, 71, 127
2, 93080, Note_on_c, 1, 74, 127
2, 93080, Note_on_c, 1, 79, 127
2, 93080, Note_on_c, 1, 83, 127
2, 93280, Note_off_c, 1, 43, 0
2, 93280, Note_off_c, 1, 55, 0
2, 93280, Note_off_c, 1, 71, 0
2, 93280, Note_off_c, 1, 74, 0
2, 93280, Note_off_c, 1, 79, 0
2, 93280, Note_off_c, 1, 83, 0
2, 93320, Note_on_c, 1, 43, 127
2, 93320, Note_on_c, 1, 55, 127
2, 93320, Note_on_c, 1, 71, 127
2, 93320, Note_on_c, 1, 74, 127
2, 93320, Note_on_c, 1, 79, 127
2, 93320, Note_on_c, 1, 83, 127
2, 93440, Note_on_c, 1, 26, 127
2, 93440, Note_on_c, 1, 33, 127
2, 93440, Note_on_c, 1, 38, 127
2, 93440, Note_off_c, 1, 43, 0
2, 93440, Note_on_c, 1, 50, 127
2, 93440, Note_on_c, 1, 54, 127
2, 93440, Note_off_c, 1, 55, 0
2, 93440, Note_on_c, 1, 57, 127
2, 93440, Note_on_c, 1, 62, 127
2, 93440, Note_off_c, 1, 71, 0
2, 93440, Note_off_c, 1, 74, 0
2, 93440, Note_off_c, 1, 79, 0
2, 93440, Note_off_c, 1, 83, 0
2, 93480, Note_off_c, 1, 26, 0
2, 93480, Note_off_c, 1, 33, 0
2, 93480, Note_off_c, 1, 38, 0
2, 93480, Note_off_c, 1, 50, 0
2, 93480, Note_off_c, 1, 54, 0
2, 93480, Note_off_c, 1, 57, 0
2, 93480, Note_off_c, 1, 62, 0
2, 93480, Note_on_c, 1, 63, 127
2, 93480, Note_on_c, 1, 67, 127
2, 93480, Note_on_c, 1, 72, 127
2, 93480, Note_on_c, 1, 84, 127
2, 93520, Note_off_c, 1, 63, 0
2, 93520, Note_off_c, 1, 67, 0
2, 93520, Note_off_c, 1, 72, 0
2, 93520, Note_off_c, 1, 84, 0
2, 93560, Note_on_c, 1, 43, 127
2, 93560, Note_on_c, 1, 50, 127
2, 93560, Note_on_c, 1, 55, 127
2, 93560, Note_on_c, 1, 71, 127
2, 93560, Note_on_c, 1, 74, 127
2, 93560, Note_on_c, 1, 79, 127
2, 93560, Note_on_c, 1, 83, 127
2, 93760, Note_off_c, 1, 43, 0
2, 93760, Note_off_c, 1, 50, 0
2, 93760, Note_off_c, 1, 55, 0
2, 93760, Note_off_c, 1, 71, 0
2, 93760, Note_off_c, 1, 74, 0
2, 93760, Note_off_c, 1, 79, 0
2, 93760, Note_off_c, 1, 83, 0
2, 93800, Note_on_c, 1, 38, 127
2, 93800, Note_on_c, 1, 50, 127
2, 93800, Note_on_c, 1, 69, 127
2, 93800, Note_on_c, 1, 72, 127
2, 93800, Note_on_c, 1, 78, 127
2, 93800, Note_on_c, 1, 81, 127
2, 93960, Note_off_c, 1, 38, 0
2, 93960, Note_off_c, 1, 50, 0
2, 93960, Note_on_c, 1, 65, 127
2, 93960, Note_on_c, 1, 67, 127
2, 93960, Note_off_c, 1, 69, 0
2, 93960, Note_off_c, 1, 72, 0
2, 93960, Note_on_c, 1, 73, 127
2, 93960, Note_off_c, 1, 78, 0
2, 93960, Note_off_c, 1, 81, 0
2, 94000, Note_off_c, 1, 65, 0
2, 94000, Note_off_c, 1, 67, 0
2, 94000, Note_off_c, 1, 73, 0
2, 94040, Note_on_c, 1, 31, 127
2, 94040, Note_on_c, 1, 43, 127
2, 94040, Note_on_c, 1, 67, 127
2, 94040, Note_on_c, 1, 71, 127
2, 94040, Note_on_c, 1, 74, 127
2, 94040, Note_on_c, 1, 79, 127
2, 94240, Note_off_c, 1, 31, 0
2, 94240, Note_off_c, 1, 43, 0
2, 94240, Note_off_c, 1, 67, 0
2, 94240, Note_off_c, 1, 71, 0
2, 94240, Note_off_c, 1, 74, 0
2, 94240, Note_off_c, 1, 79, 0
2, 94280, Note_on_c, 1, 63, 127
2, 94280, Note_on_c, 1, 69, 127
2, 94280, Note_on_c, 1, 73, 127
2, 94280, Note_on_c, 1, 76, 127
2, 94280, Note_on_c, 1, 80, 127
2, 94480, Note_off_c, 1, 63, 0
2, 94480, Note_off_c, 1, 69, 0
2, 94480, Note_off_c, 1, 73, 0
2, 94480, Note_off_c, 1, 76, 0
2, 94480, Note_off_c, 1, 80, 0
2, 94560, Note_on_c, 1, 53, 127
2, 94560, Note_on_c, 1, 62, 127
2, 94560, Note_on_c, 1, 65, 127
2, 94560, Note_on_c, 1, 70, 127
2, 94560, Note_on_c, 1, 74, 127
2, 94560, Note_on_c, 1, 82, 127
2, 94760, Note_off_c, 1, 53, 0
2, 94760, Note_off_c, 1, 62, 0
2, 94760, Note_off_c, 1, 65, 0
2, 94760, Note_off_c, 1, 70, 0
2, 94760, Note_off_c, 1, 74, 0
2, 94760, Note_off_c, 1, 82, 0
2, 94800, Note_on_c, 1, 53, 127
2, 94800, Note_on_c, 1, 62, 127
2, 94800, Note_on_c, 1, 65, 127
2, 94800, Note_on_c, 1, 70, 127
2, 94800, Note_on_c, 1, 74, 127
2, 94800, Note_on_c, 1, 82, 127
2, 94960, Note_off_c, 1, 53, 0
2, 94960, Note_off_c, 1, 62, 0
2, 94960, Note_off_c, 1, 65, 0
2, 94960, Note_off_c, 1, 70, 0
2, 94960, Note_off_c, 1, 74, 0
2, 94960, Note_off_c, 1, 82, 0
2, 95040, Note_on_c, 1, 58, 127
2, 95040, Note_on_c, 1, 65, 127
2, 95040, Note_on_c, 1, 70, 127
2, 95040, Note_on_c, 1, 74, 127
2, 95040, Note_on_c, 1, 77, 127
2, 95040, Note_on_c, 1, 86, 127
2, 95200, Note_off_c, 1, 58, 0
2, 95200, Note_off_c, 1, 65, 0
2, 95200, Note_off_c, 1, 70, 0
2, 95200, Note_off_c, 1, 74, 0
2, 95200, Note_off_c, 1, 77, 0
2, 95200, Note_off_c, 1, 86, 0
2, 95280, Note_on_c, 1, 57, 127
2, 95280, Note_on_c, 1, 66, 127
2, 95280, Note_on_c, 1, 69, 127
2, 95280, Note_on_c, 1, 74, 127
2, 95280, Note_on_c, 1, 78, 127
2, 95280, Note_on_c, 1, 86, 127
2, 95480, Note_off_c, 1, 57, 0
2, 95480, Note_off_c, 1, 66, 0
2, 95480, Note_off_c, 1, 69, 0
2, 95480, Note_off_c, 1, 74, 0
2, 95480, Note_off_c, 1, 78, 0
2, 95480, Note_off_c, 1, 86, 0
2, 95520, Note_on_c, 1, 58, 127
2, 95520, Note_on_c, 1, 65, 127
2, 95520, Note_on_c, 1, 70, 127
2, 95520, Note_on_c, 1, 74, 127
2, 95520, Note_on_c, 1, 77, 127
2, 95520, Note_on_c, 1, 86, 127
2, 95720, Note_off_c, 1, 58, 0
2, 95720, Note_off_c, 1, 65, 0
2, 95720, Note_off_c, 1, 70, 0
2, 95720, Note_off_c, 1, 74, 0
2, 95720, Note_off_c, 1, 77, 0
2, 95720, Note_off_c, 1, 86, 0
2, 95760, Note_on_c, 1, 57, 127
2, 95760, Note_on_c, 1, 66, 127
2, 95760, Note_on_c, 1, 69, 127
2, 95760, Note_on_c, 1, 74, 127
2, 95760, Note_on_c, 1, 78, 127
2, 95760, Note_on_c, 1, 86, 127
2, 95960, Note_off_c, 1, 57, 0
2, 95960, Note_off_c, 1, 66, 0
2, 95960, Note_off_c, 1, 69, 0
2, 95960, Note_off_c, 1, 74, 0
2, 95960, Note_off_c, 1, 78, 0
2, 95960, Note_off_c, 1, 86, 0
2, 96000, Note_on_c, 1, 62, 127
2, 96000, Note_on_c, 1, 67, 127
2, 96000, Note_on_c, 1, 69, 127
2, 96000, Note_on_c, 1, 74, 127
2, 96000, Note_on_c, 1, 91, 127
2, 96000, Note_on_c, 1, 96, 127
2, 96080, Note_on_c, 1, 48, 127
2, 96080, Note_on_c, 1, 55, 127
2, 96080, Note_on_c, 1, 61, 127
2, 96080, Note_off_c, 1, 62, 0
2, 96080, Note_on_c, 1, 65, 127
2, 96080, Note_off_c, 1, 67, 0
2, 96080, Note_off_c, 1, 69, 0
2, 96080, Note_on_c, 1, 73, 127
2, 96080, Note_off_c, 1, 74, 0
2, 96080, Note_off_c, 1, 91, 0
2, 96080, Note_off_c, 1, 96, 0
2, 96120, Note_off_c, 1, 48, 0
2, 96120, Note_off_c, 1, 55, 0
2, 96120, Note_off_c, 1, 61, 0
2, 96120, Note_on_c, 1, 62, 127
2, 96120, Note_off_c, 1, 65, 0
2, 96120, Note_on_c, 1, 67, 127
2, 96120, Note_on_c, 1, 69, 127
2, 96120, Note_off_c, 1, 73, 0
2, 96120, Note_on_c, 1, 74, 127
2, 96120, Note_on_c, 1, 91, 127
2, 96120, Note_on_c, 1, 96, 127
2, 96200, Note_off_c, 1, 62, 0
2, 96200, Note_off_c, 1, 67, 0
2, 96200, Note_off_c, 1, 69, 0
2, 96200, Note_off_c, 1, 74, 0
2, 96200, Note_off_c, 1, 91, 0
2, 96200, Note_off_c, 1, 96, 0
2, 96240, Note_on_c, 1, 46, 127
2, 96240, Note_on_c, 1, 53, 127
2, 96240, Note_on_c, 1, 62, 127
2, 96240, Note_on_c, 1, 65, 127
2, 96240, Note_on_c, 1, 74, 127
2, 96320, Note_off_c, 1, 46, 0
2, 96320, Note_off_c, 1, 53, 0
2, 96320, Note_off_c, 1, 62, 0
2, 96320, Note_off_c, 1, 65, 0
2, 96320, Note_off_c, 1, 74, 0
2, 96400, Note_on_c, 1, 53, 127
2, 96400, Note_on_c, 1, 60, 127
2, 96400, Note_on_c, 1, 63, 127
2, 96400, Note_on_c, 1, 66, 127
2, 96400, Note_on_c, 1, 69, 127
2, 96400, Note_on_c, 1, 78, 127
2, 96440, Note_on_c, 1, 48, 127
2, 96440, Note_off_c, 1, 53, 0
2, 96440, Note_off_c, 1, 60, 0
2, 96440, Note_off_c, 1, 63, 0
2, 96440, Note_off_c, 1, 66, 0
2, 96440, Note_off_c, 1, 69, 0
2, 96440, Note_off_c, 1, 78, 0
2, 96480, Note_on_c, 1, 38, 127
2, 96480, Note_on_c, 1, 59, 127
2, 96480, Note_on_c, 1, 62, 127
2, 96520, Note_off_c, 1, 38, 0
2, 96520, Note_off_c, 1, 48, 0
2, 96520, Note_on_c, 1, 50, 127
2, 96520, Note_on_c, 1, 57, 127
2, 96520, Note_off_c, 1, 59, 0
2, 96520, Note_off_c, 1, 62, 0
2, 96520, Note_on_c, 1, 65, 127
2, 96520, Note_on_c, 1, 93, 127
2, 96560, Note_off_c, 1, 50, 0
2, 96560, Note_on_c, 1, 55, 127
2, 96560, Note_off_c, 1, 57, 0
2, 96560, Note_on_c, 1, 59, 127
2, 96560, Note_on_c, 1, 64, 127
2, 96560, Note_off_c, 1, 65, 0
2, 96560, Note_on_c, 1, 67, 127
2, 96560, Note_on_c, 1, 70, 127
2, 96560, Note_off_c, 1, 93, 0
2, 96600, Note_on_c, 1, 36, 127
2, 96600, Note_on_c, 1, 48, 127
2, 96600, Note_off_c, 1, 55, 0
2, 96600, Note_on_c, 1, 58, 127
2, 96600, Note_off_c, 1, 59, 0
2, 96600, Note_off_c, 1, 64, 0
2, 96600, Note_on_c, 1, 65, 127
2, 96600, Note_off_c, 1, 67, 0
2, 96600, Note_off_c, 1, 70, 0
2, 96640, Note_off_c, 1, 36, 0
2, 96640, Note_off_c, 1, 48, 0
2, 96640, Note_off_c, 1, 58, 0
2, 96640, Note_off_c, 1, 65, 0
2, 96680, Note_on_c, 1, 38, 127
2, 96680, Note_on_c, 1, 40, 127
2, 96680, Note_on_c, 1, 47, 127
2, 96680, Note_on_c, 1, 52, 127
2, 96680, Note_on_c, 1, 56, 127
2, 96680, Note_on_c, 1, 59, 127
2, 96680, Note_on_c, 1, 64, 127
2, 96720, Note_off_c, 1, 38, 0
2, 96720, Note_off_c, 1, 40, 0
2, 96720, Note_off_c, 1, 47, 0
2, 96720, Note_off_c, 1, 52, 0
2, 96720, Note_off_c, 1, 56, 0
2, 96720, Note_off_c, 1, 59, 0
2, 96720, Note_off_c, 1, 64, 0
2, 96760, Note_on_c, 1, 41, 127
2, 96760, Note_on_c, 1, 46, 127
2, 96760, Note_on_c, 1, 50, 127
2, 96760, Note_on_c, 1, 83, 127
2, 96800, Note_off_c, 1, 41, 0
2, 96800, Note_off_c, 1, 46, 0
2, 96800, Note_off_c, 1, 50, 0
2, 96800, Note_on_c, 1, 58, 127
2, 96800, Note_on_c, 1, 77, 127
2, 96800, Note_on_c, 1, 82, 127
2, 96800, Note_off_c, 1, 83, 0
2, 96800, Note_on_c, 1, 85, 127
2, 96800, Note_on_c, 1, 89, 127
2, 96840, Note_off_c, 1, 58, 0
2, 96840, Note_on_c, 1, 65, 127
2, 96840, Note_on_c, 1, 70, 127
2, 96840, Note_on_c, 1, 74, 127
2, 96840, Note_off_c, 1, 82, 0
2, 96840, Note_off_c, 1, 85, 0
2, 96840, Note_on_c, 1, 86, 127
2, 96840, Note_off_c, 1, 89, 0
2, 96880, Note_on_c, 1, 37, 127
2, 96880, Note_on_c, 1, 51, 127
2, 96880, Note_off_c, 1, 65, 0
2, 96880, Note_on_c, 1, 66, 127
2, 96880, Note_off_c, 1, 70, 0
2, 96880, Note_off_c, 1, 74, 0
2, 96880, Note_off_c, 1, 77, 0
2, 96880, Note_on_c, 1, 78, 127
2, 96880, Note_off_c, 1, 86, 0
2, 96920, Note_off_c, 1, 37, 0
2, 96920, Note_on_c, 1, 53, 127
2, 96920, Note_on_c, 1, 57, 127
2, 96920, Note_off_c, 1, 66, 0
2, 96920, Note_off_c, 1, 78, 0
2, 96920, Note_on_c, 1, 84, 127
2, 96960, Note_off_c, 1, 51, 0
2, 96960, Note_off_c, 1, 53, 0
2, 96960, Note_off_c, 1, 57, 0
2, 96960, Note_on_c, 1, 65, 127
2, 96960, Note_off_c, 1, 84, 0
2, 97000, Note_on_c, 1, 41, 127
2, 97000, Note_on_c, 1, 48, 127
2, 97000, Note_on_c, 1, 53, 127
2, 97000, Note_on_c, 1, 57, 127
2, 97080, Note_on_c, 1, 29, 127
2, 97080, Note_off_c, 1, 48, 0
2, 97080, Note_off_c, 1, 53, 0
2, 97080, Note_off_c, 1, 57, 0
2, 97080, Note_off_c, 1, 65, 0
2, 97120, Note_off_c, 1, 29, 0
2, 97120, Note_on_c, 1, 36, 127
2, 97120, Note_off_c, 1, 41, 0
2, 97120, Note_on_c, 1, 43, 127
2, 97120, Note_on_c, 1, 48, 127
2, 97120, Note_on_c, 1, 79, 127
2, 97160, Note_off_c, 1, 36, 0
2, 97160, Note_off_c, 1, 43, 0
2, 97160, Note_off_c, 1, 48, 0
2, 97160, Note_off_c, 1, 79, 0
2, 97160, Note_on_c, 1, 86, 127
2, 97200, Note_off_c, 1, 86, 0
2, 97240, Note_on_c, 1, 51, 127
2, 97240, Note_on_c, 1, 56, 127
2, 97240, Note_on_c, 1, 59, 127
2, 97240, Note_on_c, 1, 87, 127
2, 97280, Note_on_c, 1, 33, 127
2, 97280, Note_on_c, 1, 40, 127
2, 97280, Note_on_c, 1, 45, 127
2, 97280, Note_off_c, 1, 51, 0
2, 97280, Note_off_c, 1, 56, 0
2, 97280, Note_on_c, 1, 57, 127
2, 97280, Note_off_c, 1, 59, 0
2, 97280, Note_on_c, 1, 60, 127
2, 97280, Note_on_c, 1, 64, 127
2, 97280, Note_on_c, 1, 69, 127
2, 97280, Note_off_c, 1, 87, 0
2, 97320, Note_off_c, 1, 33, 0
2, 97320, Note_off_c, 1, 40, 0
2, 97320, Note_off_c, 1, 45, 0
2, 97320, Note_on_c, 1, 47, 127
2, 97320, Note_off_c, 1, 57, 0
2, 97320, Note_on_c, 1, 59, 127
2, 97320, Note_off_c, 1, 60, 0
2, 97320, Note_off_c, 1, 64, 0
2, 97320, Note_off_c, 1, 69, 0
2, 97320, Note_on_c, 1, 70, 127
2, 97320, Note_on_c, 1, 75, 127
2, 97320, Note_on_c, 1, 82, 127
2, 97360, Note_on_c, 1, 35, 127
2, 97360, Note_off_c, 1, 59, 0
2, 97360, Note_off_c, 1, 70, 0
2, 97360, Note_off_c, 1, 75, 0
2, 97360, Note_off_c, 1, 82, 0
2, 97360, Note_on_c, 1, 101, 127
2, 97400, Note_off_c, 1, 35, 0
2, 97400, Note_on_c, 1, 46, 127
2, 97400, Note_off_c, 1, 47, 0
2, 97400, Note_on_c, 1, 58, 127
2, 97400, Note_on_c, 1, 95, 127
2, 97400, Note_on_c, 1, 99, 127
2, 97400, Note_off_c, 1, 101, 0
2, 97440, Note_off_c, 1, 46, 0
2, 97440, Note_off_c, 1, 58, 0
2, 97440, Note_off_c, 1, 95, 0
2, 97440, Note_off_c, 1, 99, 0
2, 97480, Note_on_c, 1, 41, 127
2, 97480, Note_on_c, 1, 48, 127
2, 97480, Note_on_c, 1, 58, 127
2, 97480, Note_on_c, 1, 60, 127
2, 97480, Note_on_c, 1, 63, 127
2, 97480, Note_on_c, 1, 67, 127
2, 97520, Note_off_c, 1, 41, 0
2, 97600, Note_on_c, 1, 41, 127
2, 97640, Note_off_c, 1, 41, 0
2, 97680, Note_on_c, 1, 41, 127
2, 97680, Note_off_c, 1, 48, 0
2, 97680, Note_on_c, 1, 50, 127
2, 97680, Note_on_c, 1, 53, 127
2, 97680, Note_off_c, 1, 58, 0
2, 97680, Note_off_c, 1, 60, 0
2, 97680, Note_off_c, 1, 63, 0
2, 97680, Note_off_c, 1, 67, 0
2, 97720, Note_on_c, 1, 48, 127
2, 97720, Note_off_c, 1, 50, 0
2, 97720, Note_off_c, 1, 53, 0
2, 97720, Note_on_c, 1, 58, 127
2, 97720, Note_on_c, 1, 60, 127
2, 97720, Note_on_c, 1, 63, 127
2, 97720, Note_on_c, 1, 67, 127
2, 97760, Note_off_c, 1, 41, 0
2, 97880, Note_on_c, 1, 41, 127
2, 97920, Note_off_c, 1, 41, 0
2, 97960, Note_on_c, 1, 41, 127
2, 98000, Note_on_c, 1, 39, 127
2, 98000, Note_off_c, 1, 41, 0
2, 98040, Note_off_c, 1, 39, 0
2, 98080, Note_on_c, 1, 39, 127
2, 98120, Note_off_c, 1, 39, 0
2, 98120, Note_on_c, 1, 41, 127
2, 98160, Note_off_c, 1, 41, 0
2, 98160, Note_off_c, 1, 48, 0
2, 98160, Note_off_c, 1, 58, 0
2, 98160, Note_off_c, 1, 60, 0
2, 98160, Note_off_c, 1, 63, 0
2, 98160, Note_off_c, 1, 67, 0
2, 98200, Note_on_c, 1, 46, 127
2, 98200, Note_on_c, 1, 49, 127
2, 98200, Note_on_c, 1, 54, 127
2, 98320, Note_on_c, 1, 41, 127
2, 98320, Note_off_c, 1, 46, 0
2, 98320, Note_off_c, 1, 49, 0
2, 98320, Note_on_c, 1, 53, 127
2, 98320, Note_off_c, 1, 54, 0
2, 98320, Note_on_c, 1, 74, 127
2, 98320, Note_on_c, 1, 86, 127
2, 98360, Note_off_c, 1, 41, 0
2, 98360, Note_on_c, 1, 46, 127
2, 98360, Note_on_c, 1, 49, 127
2, 98360, Note_off_c, 1, 53, 0
2, 98360, Note_on_c, 1, 54, 127
2, 98360, Note_off_c, 1, 74, 0
2, 98360, Note_off_c, 1, 86, 0
2, 98640, Note_off_c, 1, 46, 0
2, 98640, Note_off_c, 1, 49, 0
2, 98640, Note_off_c, 1, 54, 0
2, 98680, Note_on_c, 1, 48, 127
2, 98680, Note_on_c, 1, 60, 127
2, 98680, Note_on_c, 1, 67, 127
2, 98680, Note_on_c, 1, 72, 127
2, 98680, Note_on_c, 1, 77, 127
2, 98680, Note_on_c, 1, 79, 127
2, 98760, Note_off_c, 1, 48, 0
2, 98760, Note_off_c, 1, 60, 0
2, 98760, Note_off_c, 1, 67, 0
2, 98760, Note_off_c, 1, 72, 0
2, 98760, Note_off_c, 1, 77, 0
2, 98760, Note_off_c, 1, 79, 0
2, 98800, Note_on_c, 1, 48, 127
2, 98800, Note_on_c, 1, 60, 127
2, 98800, Note_on_c, 1, 67, 127
2, 98800, Note_on_c, 1, 72, 127
2, 98800, Note_on_c, 1, 77, 127
2, 98800, Note_on_c, 1, 79, 127
2, 98840, Note_off_c, 1, 72, 0
2, 98880, Note_on_c, 1, 72, 127
2, 98920, Note_off_c, 1, 48, 0
2, 98920, Note_off_c, 1, 60, 0
2, 98920, Note_off_c, 1, 67, 0
2, 98920, Note_off_c, 1, 72, 0
2, 98920, Note_off_c, 1, 77, 0
2, 98920, Note_off_c, 1, 79, 0
2, 98960, Note_on_c, 1, 36, 127
2, 98960, Note_on_c, 1, 48, 127
2, 98960, Note_on_c, 1, 79, 127
2, 98960, Note_on_c, 1, 84, 127
2, 98960, Note_on_c, 1, 89, 127
2, 98960, Note_on_c, 1, 91, 127
2, 99120, Note_off_c, 1, 36, 0
2, 99120, Note_off_c, 1, 48, 0
2, 99120, Note_off_c, 1, 79, 0
2, 99120, Note_off_c, 1, 84, 0
2, 99120, Note_off_c, 1, 89, 0
2, 99120, Note_off_c, 1, 91, 0
2, 99200, Note_on_c, 1, 49, 127
2, 99200, Note_on_c, 1, 53, 127
2, 99200, Note_on_c, 1, 56, 127
2, 99200, Note_on_c, 1, 61, 127
2, 99200, Note_on_c, 1, 80, 127
2, 99200, Note_on_c, 1, 85, 127
2, 99200, Note_on_c, 1, 89, 127
2, 99200, Note_on_c, 1, 92, 127
2, 99240, Note_on_c, 1, 38, 127
2, 99240, Note_off_c, 1, 49, 0
2, 99240, Note_on_c, 1, 50, 127
2, 99240, Note_off_c, 1, 53, 0
2, 99240, Note_off_c, 1, 56, 0
2, 99240, Note_on_c, 1, 60, 127
2, 99240, Note_off_c, 1, 61, 0
2, 99240, Note_on_c, 1, 66, 127
2, 99240, Note_on_c, 1, 69, 127
2, 99240, Note_on_c, 1, 74, 127
2, 99240, Note_off_c, 1, 80, 0
2, 99240, Note_off_c, 1, 85, 0
2, 99240, Note_off_c, 1, 89, 0
2, 99240, Note_off_c, 1, 92, 0
2, 99320, Note_off_c, 1, 38, 0
2, 99320, Note_off_c, 1, 50, 0
2, 99320, Note_off_c, 1, 60, 0
2, 99320, Note_off_c, 1, 66, 0
2, 99320, Note_off_c, 1, 69, 0
2, 99320, Note_off_c, 1, 74, 0
2, 99360, Note_on_c, 1, 40, 127
2, 99360, Note_on_c, 1, 52, 127
2, 99360, Note_on_c, 1, 69, 127
2, 99360, Note_on_c, 1, 76, 127
2, 99360, Note_on_c, 1, 81, 127
2, 99400, Note_off_c, 1, 40, 0
2, 99400, Note_off_c, 1, 52, 0
2, 99400, Note_off_c, 1, 69, 0
2, 99400, Note_off_c, 1, 76, 0
2, 99400, Note_off_c, 1, 81, 0
2, 99440, Note_on_c, 1, 55, 127
2, 99440, Note_on_c, 1, 58, 127
2, 99440, Note_on_c, 1, 61, 127
2, 99440, Note_on_c, 1, 74, 127
2, 99440, Note_on_c, 1, 86, 127
2, 99480, Note_on_c, 1, 50, 127
2, 99480, Note_off_c, 1, 55, 0
2, 99480, Note_off_c, 1, 58, 0
2, 99480, Note_on_c, 1, 59, 127
2, 99480, Note_off_c, 1, 61, 0
2, 99480, Note_off_c, 1, 74, 0
2, 99480, Note_on_c, 1, 83, 127
2, 99480, Note_on_c, 1, 95, 127
2, 99520, Note_off_c, 1, 50, 0
2, 99520, Note_on_c, 1, 55, 127
2, 99520, Note_on_c, 1, 58, 127
2, 99520, Note_off_c, 1, 59, 0
2, 99520, Note_on_c, 1, 61, 127
2, 99520, Note_on_c, 1, 74, 127
2, 99520, Note_off_c, 1, 83, 0
2, 99520, Note_off_c, 1, 95, 0
2, 99560, Note_on_c, 1, 34, 127
2, 99560, Note_on_c, 1, 46, 127
2, 99560, Note_off_c, 1, 58, 0
2, 99560, Note_off_c, 1, 61, 0
2, 99560, Note_on_c, 1, 62, 127
2, 99560, Note_off_c, 1, 74, 0
2, 99560, Note_off_c, 1, 86, 0
2, 99600, Note_off_c, 1, 34, 0
2, 99600, Note_on_c, 1, 45, 127
2, 99600, Note_off_c, 1, 46, 0
2, 99600, Note_off_c, 1, 55, 0
2, 99600, Note_off_c, 1, 62, 0
2, 99600, Note_on_c, 1, 83, 127
2, 99600, Note_on_c, 1, 91, 127
2, 99600, Note_on_c, 1, 95, 127
2, 99640, Note_off_c, 1, 45, 0
2, 99640, Note_off_c, 1, 83, 0
2, 99640, Note_off_c, 1, 91, 0
2, 99640, Note_off_c, 1, 95, 0
2, 99680, Note_on_c, 1, 41, 127
2, 99680, Note_on_c, 1, 53, 127
2, 99680, Note_on_c, 1, 80, 127
2, 99680, Note_on_c, 1, 85, 127
2, 99680, Note_on_c, 1, 89, 127
2, 99680, Note_on_c, 1, 92, 127
2, 99720, Note_off_c, 1, 41, 0
2, 99720, Note_on_c, 1, 65, 127
2, 99880, Note_off_c, 1, 53, 0
2, 99880, Note_off_c, 1, 65, 0
2, 99880, Note_off_c, 1, 80, 0
2, 99880, Note_off_c, 1, 85, 0
2, 99880, Note_off_c, 1, 89, 0
2, 99880, Note_off_c, 1, 92, 0
2, 99920, Note_on_c, 1, 57, 127
2, 99920, Note_on_c, 1, 60, 127
2, 99920, Note_on_c, 1, 64, 127
2, 99920, Note_on_c, 1, 76, 127
2, 99920, Note_on_c, 1, 84, 127
2, 99920, Note_on_c, 1, 88, 127
2, 100080, Note_off_c, 1, 57, 0
2, 100080, Note_off_c, 1, 60, 0
2, 100080, Note_off_c, 1, 64, 0
2, 100080, Note_off_c, 1, 76, 0
2, 100080, Note_off_c, 1, 84, 0
2, 100080, Note_off_c, 1, 88, 0
2, 100160, Note_on_c, 1, 43, 127
2, 100160, Note_on_c, 1, 47, 127
2, 100160, Note_on_c, 1, 55, 127
2, 100160, Note_on_c, 1, 64, 127
2, 100160, Note_on_c, 1, 76, 127
2, 100200, Note_off_c, 1, 43, 0
2, 100200, Note_off_c, 1, 47, 0
2, 100200, Note_on_c, 1, 49, 127
2, 100200, Note_off_c, 1, 55, 0
2, 100200, Note_off_c, 1, 64, 0
2, 100200, Note_on_c, 1, 78, 127
2, 100200, Note_on_c, 1, 82, 127
2, 100240, Note_on_c, 1, 48, 127
2, 100240, Note_off_c, 1, 49, 0
2, 100240, Note_on_c, 1, 63, 127
2, 100240, Note_off_c, 1, 76, 0
2, 100240, Note_on_c, 1, 77, 127
2, 100240, Note_off_c, 1, 78, 0
2, 100240, Note_off_c, 1, 82, 0
2, 100280, Note_off_c, 1, 48, 0
2, 100280, Note_on_c, 1, 62, 127
2, 100280, Note_off_c, 1, 63, 0
2, 100280, Note_on_c, 1, 65, 127
2, 100280, Note_on_c, 1, 68, 127
2, 100280, Note_on_c, 1, 74, 127
2, 100280, Note_off_c, 1, 77, 0
2, 100280, Note_on_c, 1, 83, 127
2, 100320, Note_off_c, 1, 62, 0
2, 100320, Note_off_c, 1, 65, 0
2, 100320, Note_off_c, 1, 68, 0
2, 100320, Note_off_c, 1, 74, 0
2, 100320, Note_off_c, 1, 83, 0
2, 100400, Note_on_c, 1, 54, 127
2, 100400, Note_on_c, 1, 63, 127
2, 100400, Note_on_c, 1, 66, 127
2, 100400, Note_on_c, 1, 68, 127
2, 100400, Note_on_c, 1, 71, 127
2, 100400, Note_on_c, 1, 75, 127
2, 100440, Note_off_c, 1, 54, 0
2, 100440, Note_on_c, 1, 59, 127
2, 100440, Note_on_c, 1, 61, 127
2, 100440, Note_off_c, 1, 63, 0
2, 100440, Note_on_c, 1, 65, 127
2, 100440, Note_off_c, 1, 66, 0
2, 100440, Note_off_c, 1, 71, 0
2, 100440, Note_on_c, 1, 73, 127
2, 100440, Note_off_c, 1, 75, 0
2, 100440, Note_on_c, 1, 80, 127
2, 100480, Note_on_c, 1, 54, 127
2, 100480, Note_off_c, 1, 59, 0
2, 100480, Note_off_c, 1, 61, 0
2, 100480, Note_on_c, 1, 63, 127
2, 100480, Note_off_c, 1, 65, 0
2, 100480, Note_on_c, 1, 66, 127
2, 100480, Note_on_c, 1, 71, 127
2, 100480, Note_off_c, 1, 73, 0
2, 100480, Note_on_c, 1, 75, 127
2, 100480, Note_off_c, 1, 80, 0
2, 100560, Note_off_c, 1, 68, 0
2, 100560, Note_on_c, 1, 82, 127
2, 100600, Note_off_c, 1, 54, 0
2, 100600, Note_off_c, 1, 63, 0
2, 100600, Note_off_c, 1, 66, 0
2, 100600, Note_off_c, 1, 71, 0
2, 100600, Note_off_c, 1, 75, 0
2, 100600, Note_off_c, 1, 82, 0
2, 100640, Note_on_c, 1, 57, 127
2, 100640, Note_on_c, 1, 60, 127
2, 100640, Note_on_c, 1, 66, 127
2, 100640, Note_on_c, 1, 78, 127
2, 100640, Note_on_c, 1, 79, 127
2, 100680, Note_on_c, 1, 55, 127
2, 100680, Note_off_c, 1, 60, 0
2, 100680, Note_off_c, 1, 66, 0
2, 100680, Note_off_c, 1, 78, 0
2, 100680, Note_off_c, 1, 79, 0
2, 100680, Note_on_c, 1, 84, 127
2, 100720, Note_on_c, 1, 50, 127
2, 100720, Note_off_c, 1, 57, 0
2, 100720, Note_on_c, 1, 58, 127
2, 100720, Note_on_c, 1, 62, 127
2, 100720, Note_on_c, 1, 71, 127
2, 100720, Note_off_c, 1, 84, 0
2, 100760, Note_off_c, 1, 50, 0
2, 100760, Note_off_c, 1, 55, 0
2, 100760, Note_off_c, 1, 58, 0
2, 100760, Note_on_c, 1, 60, 127
2, 100760, Note_off_c, 1, 62, 0
2, 100760, Note_on_c, 1, 65, 127
2, 100760, Note_on_c, 1, 69, 127
2, 100760, Note_off_c, 1, 71, 0
2, 100760, Note_on_c, 1, 72, 127
2, 100760, Note_on_c, 1, 79, 127
2, 100800, Note_off_c, 1, 60, 0
2, 100800, Note_off_c, 1, 65, 0
2, 100800, Note_off_c, 1, 69, 0
2, 100800, Note_off_c, 1, 72, 0
2, 100800, Note_off_c, 1, 79, 0
2, 100840, Note_on_c, 1, 54, 127
2, 100840, Note_on_c, 1, 57, 127
2, 100840, Note_on_c, 1, 66, 127
2, 100840, Note_on_c, 1, 74, 127
2, 100840, Note_on_c, 1, 80, 127
2, 100880, Note_off_c, 1, 54, 0
2, 100880, Note_off_c, 1, 57, 0
2, 100880, Note_off_c, 1, 66, 0
2, 100880, Note_off_c, 1, 74, 0
2, 100880, Note_off_c, 1, 80, 0
2, 100920, Note_on_c, 1, 48, 127
2, 100920, Note_on_c, 1, 53, 127
2, 100920, Note_on_c, 1, 99, 127
2, 100920, Note_on_c, 1, 101, 127
2, 100920, Note_on_c, 1, 103, 127
2, 100960, Note_off_c, 1, 48, 0
2, 100960, Note_on_c, 1, 49, 127
2, 100960, Note_off_c, 1, 53, 0
2, 100960, Note_on_c, 1, 58, 127
2, 100960, Note_on_c, 1, 90, 127
2, 100960, Note_off_c, 1, 99, 0
2, 100960, Note_off_c, 1, 101, 0
2, 100960, Note_off_c, 1, 103, 0
2, 101000, Note_off_c, 1, 49, 0
2, 101000, Note_on_c, 1, 56, 127
2, 101000, Note_off_c, 1, 58, 0
2, 101000, Note_on_c, 1, 63, 127
2, 101000, Note_on_c, 1, 66, 127
2, 101000, Note_on_c, 1, 88, 127
2, 101000, Note_off_c, 1, 90, 0
2, 101040, Note_on_c, 1, 40, 127
2, 101040, Note_on_c, 1, 47, 127
2, 101040, Note_off_c, 1, 56, 0
2, 101040, Note_on_c, 1, 62, 127
2, 101040, Note_off_c, 1, 63, 0
2, 101040, Note_off_c, 1, 88, 0
2, 101080, Note_on_c, 1, 34, 127
2, 101080, Note_on_c, 1, 38, 127
2, 101080, Note_off_c, 1, 40, 0
2, 101080, Note_on_c, 1, 41, 127
2, 101080, Note_on_c, 1, 46, 127
2, 101080, Note_off_c, 1, 47, 0
2, 101080, Note_on_c, 1, 53, 127
2, 101080, Note_off_c, 1, 66, 0
2, 101120, Note_off_c, 1, 34, 0
2, 101120, Note_off_c, 1, 38, 0
2, 101120, Note_off_c, 1, 41, 0
2, 101120, Note_off_c, 1, 46, 0
2, 101120, Note_off_c, 1, 53, 0
2, 101120, Note_off_c, 1, 62, 0
2, 101160, Note_on_c, 1, 58, 127
2, 101160, Note_on_c, 1, 65, 127
2, 101160, Note_on_c, 1, 73, 127
2, 101160, Note_on_c, 1, 77, 127
2, 101160, Note_on_c, 1, 85, 127
2, 101320, Note_on_c, 1, 24, 127
2, 101320, Note_on_c, 1, 36, 127
2, 101320, Note_on_c, 1, 52, 127
2, 101320, Note_on_c, 1, 55, 127
2, 101320, Note_off_c, 1, 58, 0
2, 101320, Note_on_c, 1, 60, 127
2, 101320, Note_off_c, 1, 65, 0
2, 101320, Note_off_c, 1, 73, 0
2, 101320, Note_off_c, 1, 77, 0
2, 101320, Note_off_c, 1, 85, 0
2, 101360, Note_off_c, 1, 24, 0
2, 101360, Note_off_c, 1, 36, 0
2, 101360, Note_off_c, 1, 52, 0
2, 101360, Note_off_c, 1, 55, 0
2, 101360, Note_off_c, 1, 60, 0
2, 101400, Note_on_c, 1, 61, 127
2, 101400, Note_on_c, 1, 67, 127
2, 101400, Note_on_c, 1, 73, 127
2, 101400, Note_on_c, 1, 75, 127
2, 101560, Note_off_c, 1, 67, 0
2, 101560, Note_off_c, 1, 73, 0
2, 101560, Note_off_c, 1, 75, 0
2, 101600, Note_off_c, 1, 61, 0
2, 101640, Note_on_c, 1, 63, 127
2, 101640, Note_on_c, 1, 65, 127
2, 101640, Note_on_c, 1, 68, 127
2, 101640, Note_on_c, 1, 71, 127
2, 101800, Note_on_c, 1, 41, 127
2, 101800, Note_on_c, 1, 53, 127
2, 101800, Note_on_c, 1, 56, 127
2, 101800, Note_on_c, 1, 59, 127
2, 101800, Note_off_c, 1, 63, 0
2, 101800, Note_off_c, 1, 68, 0
2, 101800, Note_on_c, 1, 69, 127
2, 101800, Note_off_c, 1, 71, 0
2, 101800, Note_on_c, 1, 77, 127
2, 101840, Note_off_c, 1, 41, 0
2, 101840, Note_off_c, 1, 53, 0
2, 101840, Note_off_c, 1, 56, 0
2, 101840, Note_off_c, 1, 59, 0
2, 101840, Note_off_c, 1, 65, 0
2, 101840, Note_off_c, 1, 69, 0
2, 101840, Note_off_c, 1, 77, 0
2, 101880, Note_on_c, 1, 59, 127
2, 101880, Note_on_c, 1, 71, 127
2, 101880, Note_on_c, 1, 75, 127
2, 101880, Note_on_c, 1, 78, 127
2, 101880, Note_on_c, 1, 83, 127
2, 102040, Note_on_c, 1, 46, 127
2, 102040, Note_on_c, 1, 53, 127
2, 102040, Note_on_c, 1, 57, 127
2, 102040, Note_off_c, 1, 59, 0
2, 102040, Note_on_c, 1, 65, 127
2, 102040, Note_off_c, 1, 71, 0
2, 102040, Note_off_c, 1, 78, 0
2, 102040, Note_off_c, 1, 83, 0
2, 102080, Note_off_c, 1, 46, 0
2, 102080, Note_off_c, 1, 53, 0
2, 102080, Note_off_c, 1, 57, 0
2, 102080, Note_off_c, 1, 65, 0
2, 102080, Note_off_c, 1, 75, 0
2, 102120, Note_on_c, 1, 47, 127
2, 102120, Note_on_c, 1, 55, 127
2, 102120, Note_on_c, 1, 58, 127
2, 102120, Note_on_c, 1, 73, 127
2, 102160, Note_off_c, 1, 47, 0
2, 102160, Note_on_c, 1, 52, 127
2, 102160, Note_off_c, 1, 55, 0
2, 102160, Note_off_c, 1, 58, 0
2, 102160, Note_on_c, 1, 70, 127
2, 102160, Note_on_c, 1, 72, 127
2, 102160, Note_off_c, 1, 73, 0
2, 102160, Note_on_c, 1, 79, 127
2, 102200, Note_on_c, 1, 34, 127
2, 102200, Note_on_c, 1, 41, 127
2, 102200, Note_on_c, 1, 49, 127
2, 102200, Note_off_c, 1, 52, 0
2, 102200, Note_on_c, 1, 59, 127
2, 102200, Note_off_c, 1, 70, 0
2, 102200, Note_off_c, 1, 72, 0
2, 102200, Note_off_c, 1, 79, 0
2, 102240, Note_off_c, 1, 34, 0
2, 102240, Note_off_c, 1, 41, 0
2, 102240, Note_off_c, 1, 49, 0
2, 102240, Note_on_c, 1, 57, 127
2, 102240, Note_off_c, 1, 59, 0
2, 102240, Note_on_c, 1, 63, 127
2, 102240, Note_on_c, 1, 67, 127
2, 102240, Note_on_c, 1, 70, 127
2, 102280, Note_on_c, 1, 54, 127
2, 102280, Note_on_c, 1, 56, 127
2, 102280, Note_off_c, 1, 57, 0
2, 102280, Note_on_c, 1, 59, 127
2, 102280, Note_off_c, 1, 67, 0
2, 102280, Note_off_c, 1, 70, 0
2, 102280, Note_on_c, 1, 85, 127
2, 102320, Note_off_c, 1, 54, 0
2, 102320, Note_off_c, 1, 56, 0
2, 102320, Note_off_c, 1, 59, 0
2, 102320, Note_off_c, 1, 63, 0
2, 102320, Note_off_c, 1, 85, 0
2, 102360, Note_on_c, 1, 64, 127
2, 102360, Note_on_c, 1, 68, 127
2, 102360, Note_on_c, 1, 71, 127
2, 102360, Note_on_c, 1, 76, 127
2, 102560, Note_off_c, 1, 64, 0
2, 102560, Note_off_c, 1, 68, 0
2, 102560, Note_off_c, 1, 71, 0
2, 102560, Note_off_c, 1, 76, 0
2, 102600, Note_on_c, 1, 40, 127
2, 102600, Note_on_c, 1, 50, 127
2, 102600, Note_on_c, 1, 62, 127
2, 102600, Note_on_c, 1, 65, 127
2, 102600, Note_on_c, 1, 69, 127
2, 102600, Note_on_c, 1, 74, 127
2, 102760, Note_on_c, 1, 38, 127
2, 102760, Note_off_c, 1, 40, 0
2, 102760, Note_on_c, 1, 47, 127
2, 102760, Note_off_c, 1, 50, 0
2, 102760, Note_off_c, 1, 62, 0
2, 102760, Note_off_c, 1, 65, 0
2, 102760, Note_on_c, 1, 68, 127
2, 102760, Note_off_c, 1, 69, 0
2, 102760, Note_off_c, 1, 74, 0
2, 102760, Note_on_c, 1, 80, 127
2, 102800, Note_off_c, 1, 38, 0
2, 102800, Note_off_c, 1, 47, 0
2, 102800, Note_off_c, 1, 68, 0
2, 102800, Note_off_c, 1, 80, 0
2, 102880, Note_on_c, 1, 55, 127
2, 102880, Note_on_c, 1, 63, 127
2, 102880, Note_on_c, 1, 79, 127
2, 102880, Note_on_c, 1, 89, 127
2, 102920, Note_on_c, 1, 33, 127
2, 102920, Note_on_c, 1, 45, 127
2, 102920, Note_on_c, 1, 47, 127
2, 102920, Note_on_c, 1, 51, 127
2, 102920, Note_on_c, 1, 54, 127
2, 102920, Note_off_c, 1, 55, 0
2, 102920, Note_on_c, 1, 59, 127
2, 102920, Note_off_c, 1, 63, 0
2, 102920, Note_off_c, 1, 79, 0
2, 102920, Note_off_c, 1, 89, 0
2, 102960, Note_off_c, 1, 33, 0
2, 102960, Note_off_c, 1, 45, 0
2, 102960, Note_off_c, 1, 47, 0
2, 102960, Note_on_c, 1, 49, 127
2, 102960, Note_off_c, 1, 51, 0
2, 102960, Note_off_c, 1, 54, 0
2, 102960, Note_on_c, 1, 57, 127
2, 102960, Note_off_c, 1, 59, 0
2, 102960, Note_on_c, 1, 61, 127
2, 102960, Note_on_c, 1, 66, 127
2, 102960, Note_on_c, 1, 73, 127
2, 102960, Note_on_c, 1, 78, 127
2, 103000, Note_off_c, 1, 49, 0
2, 103000, Note_on_c, 1, 56, 127
2, 103000, Note_off_c, 1, 57, 0
2, 103000, Note_off_c, 1, 61, 0
2, 103000, Note_on_c, 1, 64, 127
2, 103000, Note_off_c, 1, 66, 0
2, 103000, Note_off_c, 1, 73, 0
2, 103000, Note_on_c, 1, 74, 127
2, 103000, Note_on_c, 1, 76, 127
2, 103000, Note_off_c, 1, 78, 0
2, 103000, Note_on_c, 1, 86, 127
2, 103040, Note_off_c, 1, 56, 0
2, 103040, Note_on_c, 1, 60, 127
2, 103040, Note_off_c, 1, 64, 0
2, 103040, Note_on_c, 1, 67, 127
2, 103040, Note_off_c, 1, 74, 0
2, 103040, Note_off_c, 1, 76, 0
2, 103040, Note_on_c, 1, 77, 127
2, 103040, Note_on_c, 1, 84, 127
2, 103040, Note_off_c, 1, 86, 0
2, 103080, Note_off_c, 1, 60, 0
2, 103080, Note_off_c, 1, 67, 0
2, 103080, Note_off_c, 1, 77, 0
2, 103080, Note_off_c, 1, 84, 0
2, 103120, Note_on_c, 1, 40, 127
2, 103120, Note_on_c, 1, 52, 127
2, 103120, Note_on_c, 1, 80, 127
2, 103120, Note_on_c, 1, 83, 127
2, 103120, Note_on_c, 1, 88, 127
2, 103160, Note_off_c, 1, 40, 0
2, 103160, Note_on_c, 1, 47, 127
2, 103160, Note_on_c, 1, 68, 127
2, 103160, Note_on_c, 1, 71, 127
2, 103160, Note_off_c, 1, 80, 0
2, 103160, Note_off_c, 1, 83, 0
2, 103160, Note_off_c, 1, 88, 0
2, 103200, Note_on_c, 1, 40, 127
2, 103200, Note_off_c, 1, 47, 0
2, 103200, Note_off_c, 1, 52, 0
2, 103200, Note_off_c, 1, 68, 0
2, 103200, Note_off_c, 1, 71, 0
2, 103240, Note_off_c, 1, 40, 0
2, 103240, Note_on_c, 1, 61, 127
2, 103240, Note_on_c, 1, 65, 127
2, 103240, Note_on_c, 1, 68, 127
2, 103240, Note_on_c, 1, 71, 127
2, 103240, Note_on_c, 1, 77, 127
2, 103280, Note_on_c, 1, 37, 127
2, 103280, Note_off_c, 1, 61, 0
2, 103280, Note_off_c, 1, 65, 0
2, 103280, Note_off_c, 1, 68, 0
2, 103280, Note_on_c, 1, 73, 127
2, 103320, Note_off_c, 1, 37, 0
2, 103320, Note_off_c, 1, 71, 0
2, 103320, Note_off_c, 1, 73, 0
2, 103320, Note_off_c, 1, 77, 0
2, 103360, Note_on_c, 1, 66, 127
2, 103360, Note_on_c, 1, 75, 127
2, 103360, Note_on_c, 1, 78, 127
2, 103360, Note_on_c, 1, 82, 127
2, 103360, Note_on_c, 1, 94, 127
2, 103400, Note_on_c, 1, 52, 127
2, 103400, Note_on_c, 1, 57, 127
2, 103400, Note_on_c, 1, 64, 127
2, 103400, Note_off_c, 1, 66, 0
2, 103400, Note_on_c, 1, 67, 127
2, 103400, Note_on_c, 1, 69, 127
2, 103400, Note_off_c, 1, 75, 0
2, 103400, Note_off_c, 1, 78, 0
2, 103400, Note_on_c, 1, 79, 127
2, 103400, Note_off_c, 1, 82, 0
2, 103400, Note_off_c, 1, 94, 0
2, 103440, Note_off_c, 1, 52, 0
2, 103440, Note_on_c, 1, 56, 127
2, 103440, Note_off_c, 1, 57, 0
2, 103440, Note_on_c, 1, 63, 127
2, 103440, Note_off_c, 1, 64, 0
2, 103440, Note_off_c, 1, 67, 0
2, 103440, Note_on_c, 1, 68, 127
2, 103440, Note_off_c, 1, 69, 0
2, 103440, Note_on_c, 1, 71, 127
2, 103440, Note_off_c, 1, 79, 0
2, 103480, Note_on_c, 1, 37, 127
2, 103480, Note_on_c, 1, 42, 127
2, 103480, Note_on_c, 1, 49, 127
2, 103480, Note_off_c, 1, 56, 0
2, 103480, Note_on_c, 1, 58, 127
2, 103480, Note_on_c, 1, 61, 127
2, 103480, Note_off_c, 1, 63, 0
2, 103480, Note_on_c, 1, 65, 127
2, 103480, Note_off_c, 1, 68, 0
2, 103480, Note_off_c, 1, 71, 0
2, 103520, Note_off_c, 1, 37, 0
2, 103520, Note_off_c, 1, 42, 0
2, 103520, Note_off_c, 1, 49, 0
2, 103520, Note_off_c, 1, 58, 0
2, 103520, Note_off_c, 1, 61, 0
2, 103520, Note_off_c, 1, 65, 0
2, 103560, Note_on_c, 1, 42, 127
2, 103560, Note_on_c, 1, 70, 127
2, 103560, Note_on_c, 1, 73, 127
2, 103560, Note_on_c, 1, 78, 127
2, 103560, Note_on_c, 1, 82, 127
2, 103600, Note_on_c, 1, 37, 127
2, 103600, Note_off_c, 1, 42, 0
2, 103600, Note_on_c, 1, 49, 127
2, 103600, Note_on_c, 1, 61, 127
2, 103600, Note_on_c, 1, 66, 127
2, 103600, Note_off_c, 1, 78, 0
2, 103600, Note_off_c, 1, 82, 0
2, 103640, Note_on_c, 1, 35, 127
2, 103640, Note_off_c, 1, 37, 0
2, 103640, Note_off_c, 1, 49, 0
2, 103640, Note_on_c, 1, 54, 127
2, 103640, Note_on_c, 1, 59, 127
2, 103640, Note_off_c, 1, 61, 0
2, 103640, Note_on_c, 1, 64, 127
2, 103640, Note_off_c, 1, 70, 0
2, 103640, Note_off_c, 1, 73, 0
2, 103680, Note_off_c, 1, 35, 0
2, 103680, Note_on_c, 1, 36, 127
2, 103680, Note_on_c, 1, 48, 127
2, 103680, Note_off_c, 1, 54, 0
2, 103680, Note_off_c, 1, 59, 0
2, 103680, Note_off_c, 1, 64, 0
2, 103680, Note_on_c, 1, 69, 127
2, 103680, Note_on_c, 1, 76, 127
2, 103720, Note_off_c, 1, 36, 0
2, 103720, Note_off_c, 1, 48, 0
2, 103720, Note_on_c, 1, 56, 127
2, 103720, Note_on_c, 1, 61, 127
2, 103720, Note_on_c, 1, 73, 127
2, 103720, Note_off_c, 1, 76, 0
2, 103760, Note_off_c, 1, 61, 0
2, 103760, Note_off_c, 1, 66, 0
2, 103760, Note_on_c, 1, 68, 127
2, 103760, Note_off_c, 1, 69, 0
2, 103760, Note_on_c, 1, 70, 127
2, 103760, Note_off_c, 1, 73, 0
2, 103800, Note_off_c, 1, 56, 0
2, 103800, Note_off_c, 1, 68, 0
2, 103800, Note_off_c, 1, 70, 0
2, 103840, Note_on_c, 1, 51, 127
2, 103840, Note_on_c, 1, 58, 127
2, 103840, Note_on_c, 1, 62, 127
2, 103840, Note_on_c, 1, 74, 127
2, 103840, Note_on_c, 1, 82, 127
2, 103840, Note_on_c, 1, 86, 127
2, 103880, Note_off_c, 1, 51, 0
2, 103880, Note_on_c, 1, 56, 127
2, 103880, Note_off_c, 1, 58, 0
2, 103880, Note_on_c, 1, 60, 127
2, 103880, Note_on_c, 1, 65, 127
2, 103880, Note_on_c, 1, 72, 127
2, 103880, Note_off_c, 1, 74, 0
2, 103880, Note_off_c, 1, 82, 0
2, 103880, Note_off_c, 1, 86, 0
2, 103920, Note_on_c, 1, 51, 127
2, 103920, Note_off_c, 1, 56, 0
2, 103920, Note_on_c, 1, 58, 127
2, 103920, Note_off_c, 1, 60, 0
2, 103920, Note_off_c, 1, 65, 0
2, 103920, Note_off_c, 1, 72, 0
2, 103920, Note_on_c, 1, 74, 127
2, 103920, Note_on_c, 1, 82, 127
2, 103920, Note_on_c, 1, 86, 127
2, 104000, Note_off_c, 1, 51, 0
2, 104000, Note_on_c, 1, 56, 127
2, 104000, Note_off_c, 1, 58, 0
2, 104000, Note_off_c, 1, 62, 0
2, 104000, Note_on_c, 1, 66, 127
2, 104000, Note_on_c, 1, 72, 127
2, 104000, Note_off_c, 1, 74, 0
2, 104000, Note_on_c, 1, 75, 127
2, 104000, Note_on_c, 1, 80, 127
2, 104000, Note_off_c, 1, 82, 0
2, 104000, Note_off_c, 1, 86, 0
2, 104000, Note_on_c, 1, 87, 127
2, 104040, Note_off_c, 1, 56, 0
2, 104040, Note_off_c, 1, 66, 0
2, 104040, Note_off_c, 1, 72, 0
2, 104040, Note_off_c, 1, 75, 0
2, 104040, Note_off_c, 1, 80, 0
2, 104040, Note_off_c, 1, 87, 0
2, 104080, Note_on_c, 1, 57, 127
2, 104080, Note_on_c, 1, 60, 127
2, 104080, Note_on_c, 1, 64, 127
2, 104080, Note_on_c, 1, 77, 127
2, 104120, Note_off_c, 1, 57, 0
2, 104120, Note_on_c, 1, 58, 127
2, 104120, Note_off_c, 1, 60, 0
2, 104120, Note_on_c, 1, 61, 127
2, 104120, Note_off_c, 1, 64, 0
2, 104120, Note_on_c, 1, 65, 127
2, 104120, Note_off_c, 1, 77, 0
2, 104160, Note_off_c, 1, 58, 0
2, 104160, Note_off_c, 1, 61, 0
2, 104160, Note_off_c, 1, 65, 0
2, 104160, Note_on_c, 1, 77, 127
2, 104280, Note_off_c, 1, 77, 0
2, 104320, Note_on_c, 1, 50, 127
2, 104320, Note_on_c, 1, 53, 127
2, 104320, Note_on_c, 1, 58, 127
2, 104320, Note_on_c, 1, 62, 127
2, 104320, Note_on_c, 1, 80, 127
2, 104360, Note_off_c, 1, 80, 0
2, 104400, Note_on_c, 1, 70, 127
2, 104480, Note_off_c, 1, 70, 0
2, 104520, Note_off_c, 1, 50, 0
2, 104520, Note_off_c, 1, 53, 0
2, 104520, Note_off_c, 1, 58, 0
2, 104520, Note_off_c, 1, 62, 0
2, 104560, Note_on_c, 1, 34, 127
2, 104560, Note_on_c, 1, 61, 127
2, 104560, Note_on_c, 1, 73, 127
2, 104600, Note_off_c, 1, 34, 0
2, 104600, Note_off_c, 1, 61, 0
2, 104600, Note_on_c, 1, 69, 127
2, 104600, Note_on_c, 1, 72, 127
2, 104600, Note_off_c, 1, 73, 0
2, 104600, Note_on_c, 1, 75, 127
2, 104600, Note_on_c, 1, 77, 127
2, 104600, Note_on_c, 1, 84, 127
2, 104640, Note_on_c, 1, 34, 127
2, 104640, Note_on_c, 1, 61, 127
2, 104640, Note_off_c, 1, 69, 0
2, 104640, Note_off_c, 1, 72, 0
2, 104640, Note_on_c, 1, 73, 127
2, 104640, Note_off_c, 1, 75, 0
2, 104640, Note_off_c, 1, 77, 0
2, 104640, Note_off_c, 1, 84, 0
2, 104760, Note_off_c, 1, 34, 0
2, 104760, Note_off_c, 1, 61, 0
2, 104760, Note_off_c, 1, 73, 0
2, 104800, Note_on_c, 1, 46, 127
2, 104800, Note_on_c, 1, 49, 127
2, 104800, Note_on_c, 1, 53, 127
2, 104800, Note_on_c, 1, 58, 127
2, 104920, Note_off_c, 1, 46, 0
2, 104920, Note_off_c, 1, 49, 0
2, 104920, Note_off_c, 1, 53, 0
2, 104920, Note_off_c, 1, 58, 0
2, 104960, Note_on_c, 1, 46, 127
2, 104960, Note_on_c, 1, 49, 127
2, 104960, Note_on_c, 1, 53, 127
2, 104960, Note_on_c, 1, 58, 127
2, 105000, Note_off_c, 1, 46, 0
2, 105000, Note_off_c, 1, 49, 0
2, 105000, Note_off_c, 1, 53, 0
2, 105000, Note_off_c, 1, 58, 0
2, 105560, Note_on_c, 1, 45, 127
2, 105560, Note_on_c, 1, 57, 127
2, 105760, Note_off_c, 1, 45, 0
2, 105760, Note_off_c, 1, 57, 0
2, 105800, Note_on_c, 1, 45, 127
2, 105800, Note_on_c, 1, 57, 127
2, 105840, Note_off_c, 1, 45, 0
2, 105840, Note_off_c, 1, 57, 0
2, 105960, Note_on_c, 1, 45, 127
2, 105960, Note_on_c, 1, 57, 127
2, 106000, Note_off_c, 1, 45, 0
2, 106000, Note_off_c, 1, 57, 0
2, 106040, Note_on_c, 1, 45, 127
2, 106040, Note_on_c, 1, 57, 127
2, 106080, Note_off_c, 1, 45, 0
2, 106080, Note_off_c, 1, 57, 0
2, 106200, Note_on_c, 1, 45, 127
2, 106200, Note_on_c, 1, 57, 127
2, 106240, Note_off_c, 1, 45, 0
2, 106240, Note_off_c, 1, 57, 0
2, 106280, Note_on_c, 1, 45, 127
2, 106280, Note_on_c, 1, 57, 127
2, 106320, Note_off_c, 1, 45, 0
2, 106320, Note_off_c, 1, 57, 0
2, 106440, Note_on_c, 1, 44, 127
2, 106440, Note_on_c, 1, 56, 127
2, 106480, Note_off_c, 1, 44, 0
2, 106480, Note_off_c, 1, 56, 0
2, 106520, Note_on_c, 1, 45, 127
2, 106520, Note_on_c, 1, 57, 127
2, 106560, Note_off_c, 1, 45, 0
2, 106560, Note_off_c, 1, 57, 0
2, 106680, Note_on_c, 1, 45, 127
2, 106680, Note_on_c, 1, 57, 127
2, 106720, Note_off_c, 1, 45, 0
2, 106720, Note_off_c, 1, 57, 0
2, 106760, Note_on_c, 1, 48, 127
2, 106760, Note_on_c, 1, 53, 127
2, 106760, Note_on_c, 1, 56, 127
2, 106760, Note_on_c, 1, 59, 127
2, 106760, Note_on_c, 1, 62, 127
2, 106760, Note_on_c, 1, 65, 127
2, 106760, Note_on_c, 1, 68, 127
2, 106760, Note_on_c, 1, 71, 127
2, 106760, Note_on_c, 1, 74, 127
2, 106800, Note_on_c, 1, 43, 127
2, 106800, Note_off_c, 1, 48, 0
2, 106800, Note_off_c, 1, 56, 0
2, 106800, Note_off_c, 1, 59, 0
2, 106800, Note_on_c, 1, 60, 127
2, 106800, Note_off_c, 1, 62, 0
2, 106800, Note_off_c, 1, 68, 0
2, 106800, Note_on_c, 1, 70, 127
2, 106800, Note_off_c, 1, 71, 0
2, 106800, Note_off_c, 1, 74, 0
2, 106840, Note_off_c, 1, 43, 0
2, 106840, Note_off_c, 1, 53, 0
2, 106840, Note_off_c, 1, 60, 0
2, 106840, Note_off_c, 1, 65, 0
2, 106840, Note_off_c, 1, 70, 0
2, 106840, Note_on_c, 1, 86, 127
2, 106840, Note_on_c, 1, 93, 127
2, 106840, Note_on_c, 1, 98, 127
2, 106840, Note_on_c, 1, 105, 127
2, 106880, Note_on_c, 1, 45, 127
2, 106880, Note_on_c, 1, 57, 127
2, 106880, Note_on_c, 1, 60, 127
2, 106880, Note_on_c, 1, 65, 127
2, 106880, Note_on_c, 1, 71, 127
2, 106880, Note_on_c, 1, 77, 127
2, 106880, Note_on_c, 1, 79, 127
2, 106880, Note_on_c, 1, 89, 127
2, 106880, Note_off_c, 1, 93, 0
2, 106880, Note_on_c, 1, 95, 127
2, 106880, Note_off_c, 1, 98, 0
2, 106880, Note_off_c, 1, 105, 0
2, 106920, Note_off_c, 1, 45, 0
2, 106920, Note_on_c, 1, 50, 127
2, 106920, Note_off_c, 1, 60, 0
2, 106920, Note_on_c, 1, 61, 127
2, 106920, Note_off_c, 1, 65, 0
2, 106920, Note_on_c, 1, 69, 127
2, 106920, Note_off_c, 1, 71, 0
2, 106920, Note_off_c, 1, 77, 0
2, 106920, Note_off_c, 1, 79, 0
2, 106920, Note_off_c, 1, 86, 0
2, 106920, Note_off_c, 1, 89, 0
2, 106920, Note_off_c, 1, 95, 0
2, 106960, Note_off_c, 1, 50, 0
2, 106960, Note_off_c, 1, 57, 0
2, 106960, Note_off_c, 1, 61, 0
2, 106960, Note_off_c, 1, 69, 0
2, 106960, Note_on_c, 1, 77, 127
2, 107000, Note_on_c, 1, 76, 127
2, 107000, Note_off_c, 1, 77, 0
2, 107000, Note_on_c, 1, 80, 127
2, 107000, Note_on_c, 1, 85, 127
2, 107000, Note_on_c, 1, 88, 127
2, 107000, Note_on_c, 1, 97, 127
2, 107080, Note_off_c, 1, 97, 0
2, 107120, Note_on_c, 1, 97, 127
2, 107200, Note_off_c, 1, 76, 0
2, 107200, Note_off_c, 1, 80, 0
2, 107200, Note_off_c, 1, 85, 0
2, 107200, Note_off_c, 1, 88, 0
2, 107200, Note_off_c, 1, 97, 0
2, 107240, Note_on_c, 1, 51, 127
2, 107240, Note_on_c, 1, 67, 127
2, 107240, Note_on_c, 1, 91, 127
2, 107240, Note_on_c, 1, 97, 127
2, 107280, Note_off_c, 1, 51, 0
2, 107280, Note_off_c, 1, 67, 0
2, 107280, Note_on_c, 1, 81, 127
2, 107280, Note_on_c, 1, 83, 127
2, 107280, Note_off_c, 1, 91, 0
2, 107280, Note_on_c, 1, 93, 127
2, 107280, Note_on_c, 1, 95, 127
2, 107280, Note_off_c, 1, 97, 0
2, 107320, Note_off_c, 1, 81, 0
2, 107320, Note_off_c, 1, 83, 0
2, 107320, Note_off_c, 1, 93, 0
2, 107320, Note_off_c, 1, 95, 0
2, 107360, Note_on_c, 1, 79, 127
2, 107360, Note_on_c, 1, 85, 127
2, 107360, Note_on_c, 1, 88, 127
2, 107360, Note_on_c, 1, 91, 127
2, 107400, Note_on_c, 1, 36, 127
2, 107400, Note_on_c, 1, 45, 127
2, 107400, Note_on_c, 1, 53, 127
2, 107400, Note_on_c, 1, 62, 127
2, 107400, Note_off_c, 1, 79, 0
2, 107400, Note_off_c, 1, 85, 0
2, 107400, Note_off_c, 1, 88, 0
2, 107400, Note_off_c, 1, 91, 0
2, 107440, Note_off_c, 1, 36, 0
2, 107440, Note_off_c, 1, 45, 0
2, 107440, Note_on_c, 1, 49, 127
2, 107440, Note_off_c, 1, 53, 0
2, 107440, Note_on_c, 1, 57, 127
2, 107440, Note_on_c, 1, 61, 127
2, 107440, Note_off_c, 1, 62, 0
2, 107440, Note_on_c, 1, 66, 127
2, 107440, Note_on_c, 1, 73, 127
2, 107440, Note_on_c, 1, 78, 127
2, 107480, Note_off_c, 1, 49, 0
2, 107480, Note_off_c, 1, 57, 0
2, 107480, Note_off_c, 1, 61, 0
2, 107480, Note_off_c, 1, 66, 0
2, 107480, Note_off_c, 1, 73, 0
2, 107480, Note_off_c, 1, 78, 0
2, 107520, Note_on_c, 1, 36, 127
2, 107520, Note_on_c, 1, 39, 127
2, 107520, Note_on_c, 1, 44, 127
2, 107520, Note_on_c, 1, 60, 127
2, 107520, Note_on_c, 1, 72, 127
2, 107560, Note_off_c, 1, 36, 0
2, 107560, Note_off_c, 1, 39, 0
2, 107560, Note_off_c, 1, 44, 0
2, 107600, Note_on_c, 1, 49, 127
2, 107600, Note_on_c, 1, 58, 127
2, 107600, Note_on_c, 1, 66, 127
2, 107600, Note_on_c, 1, 70, 127
2, 107600, Note_off_c, 1, 72, 0
2, 107600, Note_on_c, 1, 73, 127
2, 107640, Note_off_c, 1, 49, 0
2, 107640, Note_off_c, 1, 58, 0
2, 107640, Note_off_c, 1, 66, 0
2, 107640, Note_off_c, 1, 70, 0
2, 107640, Note_on_c, 1, 72, 127
2, 107640, Note_off_c, 1, 73, 0
2, 107680, Note_on_c, 1, 59, 127
2, 107680, Note_off_c, 1, 60, 0
2, 107680, Note_on_c, 1, 62, 127
2, 107680, Note_off_c, 1, 72, 0
2, 107680, Note_on_c, 1, 79, 127
2, 107680, Note_on_c, 1, 91, 127
2, 107720, Note_off_c, 1, 59, 0
2, 107720, Note_off_c, 1, 62, 0
2, 107720, Note_off_c, 1, 79, 0
2, 107720, Note_off_c, 1, 91, 0
2, 107760, Note_on_c, 1, 41, 127
2, 107760, Note_on_c, 1, 45, 127
2, 107760, Note_on_c, 1, 48, 127
2, 107760, Note_on_c, 1, 53, 127
2, 107760, Note_on_c, 1, 69, 127
2, 107760, Note_on_c, 1, 72, 127
2, 107760, Note_on_c, 1, 77, 127
2, 107760, Note_on_c, 1, 81, 127
2, 107960, Note_off_c, 1, 41, 0
2, 107960, Note_off_c, 1, 45, 0
2, 107960, Note_off_c, 1, 48, 0
2, 107960, Note_off_c, 1, 53, 0
2, 107960, Note_off_c, 1, 69, 0
2, 107960, Note_off_c, 1, 72, 0
2, 107960, Note_off_c, 1, 77, 0
2, 107960, Note_off_c, 1, 81, 0
2, 108000, Note_on_c, 1, 44, 127
2, 108000, Note_on_c, 1, 64, 127
2, 108000, Note_on_c, 1, 71, 127
2, 108000, Note_on_c, 1, 74, 127
2, 108000, Note_on_c, 1, 76, 127
2, 108160, Note_off_c, 1, 44, 0
2, 108160, Note_off_c, 1, 64, 0
2, 108160, Note_off_c, 1, 71, 0
2, 108160, Note_off_c, 1, 74, 0
2, 108160, Note_off_c, 1, 76, 0
2, 108240, Note_on_c, 1, 48, 127
2, 108240, Note_on_c, 1, 60, 127
2, 108240, Note_on_c, 1, 67, 127
2, 108240, Note_on_c, 1, 72, 127
2, 108240, Note_on_c, 1, 76, 127
2, 108240, Note_on_c, 1, 79, 127
2, 108400, Note_off_c, 1, 48, 0
2, 108400, Note_on_c, 1, 59, 127
2, 108400, Note_off_c, 1, 60, 0
2, 108400, Note_off_c, 1, 67, 0
2, 108400, Note_off_c, 1, 72, 0
2, 108400, Note_off_c, 1, 76, 0
2, 108400, Note_off_c, 1, 79, 0
2, 108400, Note_on_c, 1, 80, 127
2, 108400, Note_on_c, 1, 81, 127
2, 108440, Note_off_c, 1, 59, 0
2, 108440, Note_off_c, 1, 80, 0
2, 108440, Note_off_c, 1, 81, 0
2, 108480, Note_on_c, 1, 43, 127
2, 108480, Note_on_c, 1, 49, 127
2, 108480, Note_on_c, 1, 59, 127
2, 108480, Note_on_c, 1, 61, 127
2, 108520, Note_off_c, 1, 43, 0
2, 108520, Note_on_c, 1, 45, 127
2, 108520, Note_off_c, 1, 49, 0
2, 108520, Note_on_c, 1, 55, 127
2, 108520, Note_off_c, 1, 59, 0
2, 108520, Note_off_c, 1, 61, 0
2, 108560, Note_off_c, 1, 45, 0
2, 108560, Note_off_c, 1, 55, 0
2, 108560, Note_on_c, 1, 64, 127
2, 108560, Note_on_c, 1, 82, 127
2, 108560, Note_on_c, 1, 91, 127
2, 108600, Note_on_c, 1, 43, 127
2, 108600, Note_on_c, 1, 49, 127
2, 108600, Note_on_c, 1, 59, 127
2, 108600, Note_on_c, 1, 61, 127
2, 108600, Note_off_c, 1, 64, 0
2, 108600, Note_off_c, 1, 82, 0
2, 108600, Note_off_c, 1, 91, 0
2, 108640, Note_off_c, 1, 43, 0
2, 108640, Note_off_c, 1, 49, 0
2, 108640, Note_on_c, 1, 55, 127
2, 108640, Note_off_c, 1, 59, 0
2, 108640, Note_off_c, 1, 61, 0
2, 108680, Note_off_c, 1, 55, 0
2, 108720, Note_on_c, 1, 50, 127
2, 108720, Note_on_c, 1, 62, 127
2, 108720, Note_on_c, 1, 67, 127
2, 108720, Note_on_c, 1, 70, 127
2, 108720, Note_on_c, 1, 74, 127
2, 108920, Note_off_c, 1, 62, 0
2, 108920, Note_off_c, 1, 67, 0
2, 108920, Note_off_c, 1, 70, 0
2, 108920, Note_off_c, 1, 74, 0
2, 108960, Note_on_c, 1, 32, 127
2, 108960, Note_on_c, 1, 44, 127
2, 108960, Note_off_c, 1, 50, 0
2, 108960, Note_on_c, 1, 92, 127
2, 108960, Note_on_c, 1, 97, 127
2, 108960, Note_on_c, 1, 101, 127
2, 108960, Note_on_c, 1, 104, 127
2, 109000, Note_off_c, 1, 32, 0
2, 109000, Note_off_c, 1, 44, 0
2, 109000, Note_on_c, 1, 48, 127
2, 109000, Note_on_c, 1, 54, 127
2, 109000, Note_on_c, 1, 62, 127
2, 109000, Note_on_c, 1, 85, 127
2, 109000, Note_off_c, 1, 92, 0
2, 109000, Note_off_c, 1, 97, 0
2, 109000, Note_off_c, 1, 101, 0
2, 109000, Note_off_c, 1, 104, 0
2, 109040, Note_on_c, 1, 43, 127
2, 109040, Note_off_c, 1, 48, 0
2, 109040, Note_on_c, 1, 49, 127
2, 109040, Note_off_c, 1, 54, 0
2, 109040, Note_on_c, 1, 61, 127
2, 109040, Note_off_c, 1, 62, 0
2, 109040, Note_on_c, 1, 67, 127
2, 109040, Note_on_c, 1, 71, 127
2, 109040, Note_off_c, 1, 85, 0
2, 109080, Note_on_c, 1, 35, 127
2, 109080, Note_off_c, 1, 43, 0
2, 109080, Note_on_c, 1, 47, 127
2, 109080, Note_off_c, 1, 49, 0
2, 109080, Note_off_c, 1, 61, 0
2, 109080, Note_off_c, 1, 67, 0
2, 109080, Note_off_c, 1, 71, 0
2, 109080, Note_on_c, 1, 88, 127
2, 109080, Note_on_c, 1, 92, 127
2, 109080, Note_on_c, 1, 95, 127
2, 109080, Note_on_c, 1, 100, 127
2, 109120, Note_off_c, 1, 35, 0
2, 109120, Note_off_c, 1, 47, 0
2, 109120, Note_off_c, 1, 88, 0
2, 109120, Note_off_c, 1, 92, 0
2, 109120, Note_off_c, 1, 95, 0
2, 109120, Note_off_c, 1, 100, 0
2, 109200, Note_on_c, 1, 44, 127
2, 109200, Note_on_c, 1, 68, 127
2, 109200, Note_on_c, 1, 73, 127
2, 109200, Note_on_c, 1, 77, 127
2, 109200, Note_on_c, 1, 80, 127
2, 109400, Note_off_c, 1, 44, 0
2, 109400, Note_off_c, 1, 68, 0
2, 109400, Note_off_c, 1, 73, 0
2, 109400, Note_off_c, 1, 77, 0
2, 109400, Note_off_c, 1, 80, 0
2, 109480, Note_on_c, 1, 41, 127
2, 109480, Note_on_c, 1, 53, 127
2, 109480, Note_on_c, 1, 65, 127
2, 109480, Note_on_c, 1, 68, 127
2, 109480, Note_on_c, 1, 77, 127
2, 109520, Note_off_c, 1, 41, 0
2, 109520, Note_off_c, 1, 53, 0
2, 109520, Note_off_c, 1, 65, 0
2, 109520, Note_off_c, 1, 68, 0
2, 109520, Note_off_c, 1, 77, 0
2, 109640, Note_on_c, 1, 39, 127
2, 109640, Note_on_c, 1, 51, 127
2, 109640, Note_on_c, 1, 61, 127
2, 109640, Note_on_c, 1, 63, 127
2, 109640, Note_on_c, 1, 67, 127
2, 109640, Note_on_c, 1, 70, 127
2, 109680, Note_off_c, 1, 39, 0
2, 109680, Note_off_c, 1, 51, 0
2, 109680, Note_off_c, 1, 61, 0
2, 109680, Note_off_c, 1, 63, 0
2, 109680, Note_off_c, 1, 67, 0
2, 109680, Note_off_c, 1, 70, 0
2, 109720, Note_on_c, 1, 47, 127
2, 109720, Note_on_c, 1, 51, 127
2, 109720, Note_on_c, 1, 54, 127
2, 109720, Note_on_c, 1, 59, 127
2, 109720, Note_on_c, 1, 79, 127
2, 109760, Note_off_c, 1, 51, 0
2, 109760, Note_on_c, 1, 52, 127
2, 109760, Note_off_c, 1, 54, 0
2, 109760, Note_on_c, 1, 68, 127
2, 109760, Note_on_c, 1, 71, 127
2, 109760, Note_off_c, 1, 79, 0
2, 109800, Note_off_c, 1, 47, 0
2, 109800, Note_on_c, 1, 49, 127
2, 109800, Note_off_c, 1, 52, 0
2, 109800, Note_on_c, 1, 57, 127
2, 109800, Note_off_c, 1, 59, 0
2, 109800, Note_on_c, 1, 61, 127
2, 109800, Note_on_c, 1, 65, 127
2, 109800, Note_off_c, 1, 68, 0
2, 109800, Note_on_c, 1, 69, 127
2, 109800, Note_off_c, 1, 71, 0
2, 109840, Note_off_c, 1, 49, 0
2, 109840, Note_off_c, 1, 57, 0
2, 109840, Note_on_c, 1, 60, 127
2, 109840, Note_off_c, 1, 61, 0
2, 109840, Note_off_c, 1, 65, 0
2, 109840, Note_off_c, 1, 69, 0
2, 109840, Note_on_c, 1, 74, 127
2, 109840, Note_on_c, 1, 78, 127
2, 109840, Note_on_c, 1, 81, 127
2, 109840, Note_on_c, 1, 86, 127
2, 109880, Note_off_c, 1, 60, 0
2, 109880, Note_off_c, 1, 74, 0
2, 109880, Note_off_c, 1, 78, 0
2, 109880, Note_off_c, 1, 81, 0
2, 109880, Note_off_c, 1, 86, 0
2, 109920, Note_on_c, 1, 33, 127
2, 109920, Note_on_c, 1, 36, 127
2, 109920, Note_on_c, 1, 39, 127
2, 109920, Note_on_c, 1, 42, 127
2, 109920, Note_on_c, 1, 45, 127
2, 109920, Note_on_c, 1, 60, 127
2, 109920, Note_on_c, 1, 63, 127
2, 109920, Note_on_c, 1, 66, 127
2, 109920, Note_on_c, 1, 69, 127
2, 109920, Note_on_c, 1, 72, 127
2, 109960, Note_off_c, 1, 33, 0
2, 109960, Note_off_c, 1, 36, 0
2, 109960, Note_off_c, 1, 39, 0
2, 109960, Note_off_c, 1, 42, 0
2, 109960, Note_off_c, 1, 45, 0
2, 109960, Note_on_c, 1, 49, 127
2, 109960, Note_on_c, 1, 53, 127
2, 109960, Note_off_c, 1, 60, 0
2, 109960, Note_on_c, 1, 61, 127
2, 109960, Note_off_c, 1, 63, 0
2, 109960, Note_off_c, 1, 66, 0
2, 109960, Note_off_c, 1, 72, 0
2, 110000, Note_off_c, 1, 49, 0
2, 110000, Note_off_c, 1, 53, 0
2, 110000, Note_off_c, 1, 61, 0
2, 110000, Note_on_c, 1, 62, 127
2, 110000, Note_on_c, 1, 68, 127
2, 110000, Note_off_c, 1, 69, 0
2, 110000, Note_on_c, 1, 70, 127
2, 110000, Note_on_c, 1, 81, 127
2, 110000, Note_on_c, 1, 82, 127
2, 110000, Note_on_c, 1, 83, 127
2, 110040, Note_off_c, 1, 62, 0
2, 110040, Note_off_c, 1, 68, 0
2, 110040, Note_off_c, 1, 70, 0
2, 110040, Note_off_c, 1, 81, 0
2, 110040, Note_off_c, 1, 82, 0
2, 110040, Note_off_c, 1, 83, 0
2, 110080, Note_on_c, 1, 56, 127
2, 110080, Note_on_c, 1, 63, 127
2, 110080, Note_on_c, 1, 66, 127
2, 110080, Note_on_c, 1, 68, 127
2, 110080, Note_on_c, 1, 84, 127
2, 110080, Note_on_c, 1, 87, 127
2, 110080, Note_on_c, 1, 90, 127
2, 110080, Note_on_c, 1, 92, 127
2, 110080, Note_on_c, 1, 96, 127
2, 110120, Note_off_c, 1, 56, 0
2, 110120, Note_off_c, 1, 63, 0
2, 110120, Note_off_c, 1, 66, 0
2, 110120, Note_off_c, 1, 68, 0
2, 110120, Note_off_c, 1, 84, 0
2, 110120, Note_off_c, 1, 87, 0
2, 110120, Note_off_c, 1, 90, 0
2, 110120, Note_off_c, 1, 92, 0
2, 110120, Note_off_c, 1, 96, 0
2, 110160, Note_on_c, 1, 50, 127
2, 110160, Note_on_c, 1, 62, 127
2, 110160, Note_on_c, 1, 86, 127
2, 110160, Note_on_c, 1, 95, 127
2, 110160, Note_on_c, 1, 98, 127
2, 110200, Note_on_c, 1, 28, 127
2, 110200, Note_on_c, 1, 47, 127
2, 110200, Note_off_c, 1, 50, 0
2, 110200, Note_off_c, 1, 62, 0
2, 110200, Note_off_c, 1, 86, 0
2, 110200, Note_off_c, 1, 95, 0
2, 110200, Note_off_c, 1, 98, 0
2, 110240, Note_off_c, 1, 28, 0
2, 110240, Note_off_c, 1, 47, 0
2, 110240, Note_on_c, 1, 91, 127
2, 110240, Note_on_c, 1, 95, 127
2, 110240, Note_on_c, 1, 98, 127
2, 110240, Note_on_c, 1, 103, 127
2, 110280, Note_off_c, 1, 91, 0
2, 110280, Note_off_c, 1, 95, 0
2, 110280, Note_off_c, 1, 98, 0
2, 110280, Note_off_c, 1, 103, 0
2, 110320, Note_on_c, 1, 47, 127
2, 110320, Note_on_c, 1, 87, 127
2, 110360, Note_off_c, 1, 47, 0
2, 110360, Note_off_c, 1, 87, 0
2, 110400, Note_on_c, 1, 57, 127
2, 110400, Note_on_c, 1, 66, 127
2, 110400, Note_on_c, 1, 69, 127
2, 110400, Note_on_c, 1, 74, 127
2, 110400, Note_on_c, 1, 81, 127
2, 110520, Note_off_c, 1, 57, 0
2, 110520, Note_off_c, 1, 66, 0
2, 110520, Note_off_c, 1, 69, 0
2, 110520, Note_off_c, 1, 74, 0
2, 110520, Note_off_c, 1, 81, 0
2, 110560, Note_on_c, 1, 66, 127
2, 110560, Note_on_c, 1, 90, 127
2, 110600, Note_off_c, 1, 66, 0
2, 110600, Note_off_c, 1, 90, 0
2, 110640, Note_on_c, 1, 31, 127
2, 110640, Note_on_c, 1, 37, 127
2, 110640, Note_on_c, 1, 43, 127
2, 110640, Note_on_c, 1, 85, 127
2, 110760, Note_off_c, 1, 31, 0
2, 110760, Note_off_c, 1, 37, 0
2, 110760, Note_off_c, 1, 43, 0
2, 110760, Note_on_c, 1, 82, 127
2, 110760, Note_off_c, 1, 85, 0
2, 110800, Note_off_c, 1, 82, 0
2, 110840, Note_on_c, 1, 33, 127
2, 110840, Note_on_c, 1, 40, 127
2, 110840, Note_on_c, 1, 45, 127
2, 110840, Note_on_c, 1, 85, 127
2, 110880, Note_off_c, 1, 33, 0
2, 110880, Note_off_c, 1, 40, 0
2, 110880, Note_off_c, 1, 45, 0
2, 110880, Note_on_c, 1, 60, 127
2, 110880, Note_on_c, 1, 63, 127
2, 110880, Note_on_c, 1, 66, 127
2, 110880, Note_on_c, 1, 69, 127
2, 110880, Note_on_c, 1, 72, 127
2, 110880, Note_off_c, 1, 85, 0
2, 110920, Note_on_c, 1, 52, 127
2, 110920, Note_on_c, 1, 59, 127
2, 110920, Note_off_c, 1, 60, 0
2, 110920, Note_on_c, 1, 61, 127
2, 110920, Note_off_c, 1, 63, 0
2, 110920, Note_off_c, 1, 66, 0
2, 110920, Note_off_c, 1, 72, 0
2, 110960, Note_off_c, 1, 52, 0
2, 110960, Note_on_c, 1, 54, 127
2, 110960, Note_on_c, 1, 58, 127
2, 110960, Note_off_c, 1, 59, 0
2, 110960, Note_on_c, 1, 66, 127
2, 110960, Note_off_c, 1, 69, 0
2, 110960, Note_on_c, 1, 82, 127
2, 110960, Note_on_c, 1, 94, 127
2, 111000, Note_on_c, 1, 33, 127
2, 111000, Note_on_c, 1, 49, 127
2, 111000, Note_off_c, 1, 54, 0
2, 111000, Note_off_c, 1, 58, 0
2, 111000, Note_off_c, 1, 66, 0
2, 111000, Note_on_c, 1, 69, 127
2, 111000, Note_off_c, 1, 82, 0
2, 111000, Note_off_c, 1, 94, 0
2, 111040, Note_off_c, 1, 33, 0
2, 111040, Note_off_c, 1, 49, 0
2, 111040, Note_off_c, 1, 61, 0
2, 111040, Note_off_c, 1, 69, 0
2, 111080, Note_on_c, 1, 57, 127
2, 111080, Note_on_c, 1, 60, 127
2, 111080, Note_on_c, 1, 63, 127
2, 111080, Note_on_c, 1, 66, 127
2, 111080, Note_on_c, 1, 69, 127
2, 111120, Note_off_c, 1, 57, 0
2, 111120, Note_off_c, 1, 60, 0
2, 111120, Note_off_c, 1, 63, 0
2, 111120, Note_off_c, 1, 66, 0
2, 111120, Note_off_c, 1, 69, 0
2, 111200, Note_on_c, 1, 62, 127
2, 111200, Note_on_c, 1, 64, 127
2, 111200, Note_on_c, 1, 68, 127
2, 111200, Note_on_c, 1, 71, 127
2, 111200, Note_on_c, 1, 80, 127
2, 111200, Note_on_c, 1, 83, 127
2, 111280, Note_off_c, 1, 62, 0
2, 111280, Note_off_c, 1, 64, 0
2, 111280, Note_off_c, 1, 68, 0
2, 111280, Note_off_c, 1, 71, 0
2, 111280, Note_off_c, 1, 80, 0
2, 111280, Note_off_c, 1, 83, 0
2, 111360, Note_on_c, 1, 62, 127
2, 111360, Note_on_c, 1, 64, 127
2, 111360, Note_on_c, 1, 68, 127
2, 111360, Note_on_c, 1, 71, 127
2, 111360, Note_on_c, 1, 80, 127
2, 111360, Note_on_c, 1, 83, 127
2, 111480, Note_off_c, 1, 62, 0
2, 111480, Note_on_c, 1, 63, 127
2, 111480, Note_off_c, 1, 64, 0
2, 111480, Note_off_c, 1, 68, 0
2, 111480, Note_off_c, 1, 71, 0
2, 111480, Note_on_c, 1, 72, 127
2, 111480, Note_on_c, 1, 75, 127
2, 111480, Note_on_c, 1, 77, 127
2, 111480, Note_off_c, 1, 80, 0
2, 111480, Note_off_c, 1, 83, 0
2, 111480, Note_on_c, 1, 89, 127
2, 111520, Note_off_c, 1, 63, 0
2, 111520, Note_off_c, 1, 72, 0
2, 111520, Note_off_c, 1, 75, 0
2, 111520, Note_off_c, 1, 77, 0
2, 111520, Note_off_c, 1, 89, 0
2, 111560, Note_on_c, 1, 75, 127
2, 111560, Note_on_c, 1, 80, 127
2, 111560, Note_on_c, 1, 95, 127
2, 111600, Note_off_c, 1, 75, 0
2, 111600, Note_off_c, 1, 80, 0
2, 111600, Note_off_c, 1, 95, 0
2, 111640, Note_on_c, 1, 64, 127
2, 111640, Note_on_c, 1, 68, 127
2, 111640, Note_on_c, 1, 88, 127
2, 111640, Note_on_c, 1, 95, 127
2, 111680, Note_on_c, 1, 47, 127
2, 111680, Note_on_c, 1, 59, 127
2, 111680, Note_on_c, 1, 63, 127
2, 111680, Note_off_c, 1, 64, 0
2, 111680, Note_off_c, 1, 68, 0
2, 111680, Note_on_c, 1, 69, 127
2, 111680, Note_on_c, 1, 81, 127
2, 111680, Note_off_c, 1, 88, 0
2, 111680, Note_off_c, 1, 95, 0
2, 111720, Note_on_c, 1, 51, 127
2, 111720, Note_off_c, 1, 59, 0
2, 111720, Note_off_c, 1, 63, 0
2, 111720, Note_off_c, 1, 69, 0
2, 111720, Note_on_c, 1, 70, 127
2, 111720, Note_on_c, 1, 75, 127
2, 111720, Note_off_c, 1, 81, 0
2, 111760, Note_off_c, 1, 47, 0
2, 111760, Note_off_c, 1, 51, 0
2, 111760, Note_off_c, 1, 70, 0
2, 111760, Note_off_c, 1, 75, 0
2, 111800, Note_on_c, 1, 32, 127
2, 111800, Note_on_c, 1, 44, 127
2, 111800, Note_on_c, 1, 76, 127
2, 111800, Note_on_c, 1, 83, 127
2, 111800, Note_on_c, 1, 88, 127
2, 111840, Note_off_c, 1, 32, 0
2, 111840, Note_off_c, 1, 44, 0
2, 111840, Note_off_c, 1, 76, 0
2, 111840, Note_off_c, 1, 83, 0
2, 111840, Note_off_c, 1, 88, 0
2, 111880, Note_on_c, 1, 50, 127
2, 111880, Note_on_c, 1, 53, 127
2, 111880, Note_on_c, 1, 56, 127
2, 111880, Note_on_c, 1, 59, 127
2, 111880, Note_on_c, 1, 62, 127
2, 111880, Note_on_c, 1, 83, 127
2, 111880, Note_on_c, 1, 86, 127
2, 111880, Note_on_c, 1, 89, 127
2, 111880, Note_on_c, 1, 92, 127
2, 111880, Note_on_c, 1, 95, 127
2, 112040, Note_off_c, 1, 50, 0
2, 112040, Note_off_c, 1, 53, 0
2, 112040, Note_off_c, 1, 56, 0
2, 112040, Note_off_c, 1, 59, 0
2, 112040, Note_off_c, 1, 62, 0
2, 112040, Note_off_c, 1, 83, 0
2, 112040, Note_off_c, 1, 86, 0
2, 112040, Note_off_c, 1, 89, 0
2, 112040, Note_off_c, 1, 92, 0
2, 112040, Note_off_c, 1, 95, 0
2, 112080, Note_on_c, 1, 58, 127
2, 112080, Note_on_c, 1, 68, 127
2, 112080, Note_on_c, 1, 72, 127
2, 112080, Note_on_c, 1, 84, 127
2, 112080, Note_on_c, 1, 92, 127
2, 112080, Note_on_c, 1, 96, 127
2, 112280, Note_off_c, 1, 58, 0
2, 112280, Note_off_c, 1, 68, 0
2, 112280, Note_off_c, 1, 72, 0
2, 112280, Note_off_c, 1, 84, 0
2, 112280, Note_off_c, 1, 92, 0
2, 112280, Note_off_c, 1, 96, 0
2, 112320, Note_on_c, 1, 58, 127
2, 112320, Note_on_c, 1, 62, 127
2, 112320, Note_on_c, 1, 65, 127
2, 112320, Note_on_c, 1, 77, 127
2, 112320, Note_on_c, 1, 86, 127
2, 112320, Note_on_c, 1, 89, 127
2, 112360, Note_off_c, 1, 58, 0
2, 112360, Note_off_c, 1, 62, 0
2, 112360, Note_off_c, 1, 65, 0
2, 112360, Note_off_c, 1, 77, 0
2, 112360, Note_off_c, 1, 86, 0
2, 112360, Note_off_c, 1, 89, 0
2, 112440, Note_on_c, 1, 58, 127
2, 112440, Note_on_c, 1, 62, 127
2, 112440, Note_on_c, 1, 65, 127
2, 112440, Note_on_c, 1, 77, 127
2, 112440, Note_on_c, 1, 86, 127
2, 112440, Note_on_c, 1, 89, 127
2, 112480, Note_off_c, 1, 58, 0
2, 112480, Note_off_c, 1, 62, 0
2, 112480, Note_off_c, 1, 65, 0
2, 112480, Note_off_c, 1, 77, 0
2, 112480, Note_off_c, 1, 86, 0
2, 112480, Note_off_c, 1, 89, 0
2, 112520, Note_on_c, 1, 58, 127
2, 112520, Note_on_c, 1, 62, 127
2, 112520, Note_on_c, 1, 65, 127
2, 112520, Note_on_c, 1, 77, 127
2, 112520, Note_on_c, 1, 86, 127
2, 112520, Note_on_c, 1, 89, 127
2, 112680, Note_off_c, 1, 58, 0
2, 112680, Note_off_c, 1, 62, 0
2, 112680, Note_off_c, 1, 65, 0
2, 112680, Note_off_c, 1, 77, 0
2, 112680, Note_off_c, 1, 86, 0
2, 112680, Note_off_c, 1, 89, 0
2, 112720, Note_on_c, 1, 50, 127
2, 112720, Note_on_c, 1, 56, 127
2, 112720, Note_on_c, 1, 58, 127
2, 112720, Note_on_c, 1, 79, 127
2, 112720, Note_on_c, 1, 91, 127
2, 112760, Note_off_c, 1, 50, 0
2, 112760, Note_off_c, 1, 56, 0
2, 112760, Note_off_c, 1, 58, 0
2, 112760, Note_off_c, 1, 79, 0
2, 112760, Note_off_c, 1, 91, 0
2, 112800, Note_on_c, 1, 56, 127
2, 112800, Note_on_c, 1, 70, 127
2, 112800, Note_on_c, 1, 73, 127
2, 112800, Note_on_c, 1, 79, 127
2, 112920, Note_off_c, 1, 56, 0
2, 112920, Note_off_c, 1, 70, 0
2, 112920, Note_off_c, 1, 73, 0
2, 112920, Note_off_c, 1, 79, 0
2, 112960, Note_on_c, 1, 50, 127
2, 112960, Note_on_c, 1, 57, 127
2, 112960, Note_on_c, 1, 62, 127
2, 112960, Note_on_c, 1, 69, 127
2, 112960, Note_on_c, 1, 74, 127
2, 112960, Note_on_c, 1, 79, 127
2, 112960, Note_on_c, 1, 81, 127
2, 113000, Note_off_c, 1, 50, 0
2, 113000, Note_off_c, 1, 57, 0
2, 113000, Note_off_c, 1, 62, 0
2, 113000, Note_off_c, 1, 69, 0
2, 113000, Note_off_c, 1, 74, 0
2, 113000, Note_off_c, 1, 79, 0
2, 113000, Note_off_c, 1, 81, 0
2, 113040, Note_on_c, 1, 50, 127
2, 113040, Note_on_c, 1, 57, 127
2, 113040, Note_on_c, 1, 62, 127
2, 113040, Note_on_c, 1, 69, 127
2, 113040, Note_on_c, 1, 74, 127
2, 113040, Note_on_c, 1, 79, 127
2, 113040, Note_on_c, 1, 81, 127
2, 113080, Note_off_c, 1, 50, 0
2, 113080, Note_off_c, 1, 57, 0
2, 113080, Note_off_c, 1, 62, 0
2, 113080, Note_off_c, 1, 69, 0
2, 113080, Note_off_c, 1, 74, 0
2, 113080, Note_off_c, 1, 79, 0
2, 113080, Note_off_c, 1, 81, 0
2, 113120, Note_on_c, 1, 50, 127
2, 113120, Note_on_c, 1, 57, 127
2, 113120, Note_on_c, 1, 62, 127
2, 113120, Note_on_c, 1, 69, 127
2, 113120, Note_on_c, 1, 74, 127
2, 113120, Note_on_c, 1, 79, 127
2, 113120, Note_on_c, 1, 81, 127
2, 113160, Note_off_c, 1, 50, 0
2, 113160, Note_off_c, 1, 57, 0
2, 113160, Note_off_c, 1, 62, 0
2, 113160, Note_off_c, 1, 69, 0
2, 113160, Note_off_c, 1, 74, 0
2, 113160, Note_off_c, 1, 79, 0
2, 113160, Note_off_c, 1, 81, 0
2, 113200, Note_on_c, 1, 50, 127
2, 113200, Note_on_c, 1, 57, 127
2, 113200, Note_on_c, 1, 62, 127
2, 113200, Note_on_c, 1, 69, 127
2, 113200, Note_on_c, 1, 74, 127
2, 113200, Note_on_c, 1, 79, 127
2, 113200, Note_on_c, 1, 81, 127
2, 113280, Note_off_c, 1, 50, 0
2, 113280, Note_off_c, 1, 57, 0
2, 113280, Note_off_c, 1, 62, 0
2, 113280, Note_off_c, 1, 69, 0
2, 113280, Note_off_c, 1, 74, 0
2, 113280, Note_off_c, 1, 79, 0
2, 113280, Note_off_c, 1, 81, 0
2, 113360, Note_on_c, 1, 38, 127
2, 113360, Note_on_c, 1, 50, 127
2, 113360, Note_on_c, 1, 74, 127
2, 113360, Note_on_c, 1, 78, 127
2, 113360, Note_on_c, 1, 81, 127
2, 113360, Note_on_c, 1, 86, 127
2, 113440, Note_off_c, 1, 38, 0
2, 113440, Note_off_c, 1, 50, 0
2, 113440, Note_off_c, 1, 74, 0
2, 113440, Note_off_c, 1, 78, 0
2, 113440, Note_off_c, 1, 81, 0
2, 113440, Note_off_c, 1, 86, 0
2, 113560, Note_on_c, 1, 42, 127
2, 113560, Note_on_c, 1, 57, 127
2, 113560, Note_on_c, 1, 62, 127
2, 113560, Note_on_c, 1, 66, 127
2, 113560, Note_on_c, 1, 69, 127
2, 113600, Note_off_c, 1, 42, 0
2, 113600, Note_off_c, 1, 57, 0
2, 113600, Note_off_c, 1, 62, 0
2, 113600, Note_off_c, 1, 66, 0
2, 113600, Note_off_c, 1, 69, 0
2, 113640, Note_on_c, 1, 43, 127
2, 113640, Note_on_c, 1, 50, 127
2, 113640, Note_on_c, 1, 55, 127
2, 113640, Note_on_c, 1, 59, 127
2, 113640, Note_on_c, 1, 67, 127
2, 113640, Note_on_c, 1, 71, 127
2, 113680, Note_off_c, 1, 43, 0
2, 113680, Note_off_c, 1, 50, 0
2, 113680, Note_off_c, 1, 55, 0
2, 113680, Note_off_c, 1, 59, 0
2, 113680, Note_off_c, 1, 67, 0
2, 113680, Note_off_c, 1, 71, 0
2, 113800, Note_on_c, 1, 38, 127
2, 113800, Note_on_c, 1, 50, 127
2, 113800, Note_on_c, 1, 62, 127
2, 113800, Note_on_c, 1, 74, 127
2, 113840, Note_on_c, 1, 42, 127
2, 113840, Note_on_c, 1, 45, 127
2, 113840, Note_off_c, 1, 62, 0
2, 113840, Note_on_c, 1, 78, 127
2, 113840, Note_on_c, 1, 81, 127
2, 113840, Note_on_c, 1, 86, 127
2, 113880, Note_off_c, 1, 38, 0
2, 113880, Note_off_c, 1, 42, 0
2, 113880, Note_off_c, 1, 45, 0
2, 113880, Note_off_c, 1, 50, 0
2, 113880, Note_on_c, 1, 63, 127
2, 113880, Note_on_c, 1, 66, 127
2, 113880, Note_off_c, 1, 74, 0
2, 113880, Note_off_c, 1, 78, 0
2, 113880, Note_off_c, 1, 81, 0
2, 113880, Note_on_c, 1, 82, 127
2, 113880, Note_off_c, 1, 86, 0
2, 113880, Note_on_c, 1, 87, 127
2, 113880, Note_on_c, 1, 90, 127
2, 113920, Note_off_c, 1, 63, 0
2, 113920, Note_off_c, 1, 66, 0
2, 113920, Note_off_c, 1, 82, 0
2, 113920, Note_off_c, 1, 87, 0
2, 113920, Note_off_c, 1, 90, 0
2, 114040, Note_on_c, 1, 43, 127
2, 114040, Note_on_c, 1, 49, 127
2, 114040, Note_on_c, 1, 52, 127
2, 114040, Note_on_c, 1, 58, 127
2, 114040, Note_on_c, 1, 61, 127
2, 114040, Note_on_c, 1, 64, 127
2, 114040, Note_on_c, 1, 70, 127
2, 114080, Note_on_c, 1, 39, 127
2, 114080, Note_off_c, 1, 43, 0
2, 114080, Note_off_c, 1, 49, 0
2, 114080, Note_off_c, 1, 52, 0
2, 114080, Note_off_c, 1, 58, 0
2, 114080, Note_off_c, 1, 61, 0
2, 114080, Note_off_c, 1, 64, 0
2, 114080, Note_on_c, 1, 74, 127
2, 114080, Note_on_c, 1, 82, 127
2, 114120, Note_off_c, 1, 39, 0
2, 114120, Note_on_c, 1, 45, 127
2, 114120, Note_on_c, 1, 52, 127
2, 114120, Note_on_c, 1, 61, 127
2, 114120, Note_on_c, 1, 67, 127
2, 114120, Note_off_c, 1, 70, 0
2, 114120, Note_off_c, 1, 74, 0
2, 114120, Note_off_c, 1, 82, 0
2, 114160, Note_on_c, 1, 44, 127
2, 114160, Note_off_c, 1, 45, 0
2, 114160, Note_off_c, 1, 52, 0
2, 114160, Note_on_c, 1, 56, 127
2, 114160, Note_off_c, 1, 61, 0
2, 114160, Note_off_c, 1, 67, 0
2, 114160, Note_on_c, 1, 72, 127
2, 114160, Note_on_c, 1, 76, 127
2, 114160, Note_on_c, 1, 84, 127
2, 114200, Note_off_c, 1, 44, 0
2, 114200, Note_off_c, 1, 56, 0
2, 114200, Note_off_c, 1, 72, 0
2, 114200, Note_off_c, 1, 76, 0
2, 114200, Note_off_c, 1, 84, 0
2, 114280, Note_on_c, 1, 38, 127
2, 114280, Note_on_c, 1, 60, 127
2, 114280, Note_on_c, 1, 64, 127
2, 114280, Note_on_c, 1, 69, 127
2, 114320, Note_off_c, 1, 38, 0
2, 114320, Note_on_c, 1, 47, 127
2, 114320, Note_on_c, 1, 59, 127
2, 114320, Note_off_c, 1, 60, 0
2, 114320, Note_off_c, 1, 64, 0
2, 114320, Note_off_c, 1, 69, 0
2, 114320, Note_on_c, 1, 86, 127
2, 114320, Note_on_c, 1, 98, 127
2, 114360, Note_off_c, 1, 47, 0
2, 114360, Note_off_c, 1, 59, 0
2, 114360, Note_off_c, 1, 86, 0
2, 114360, Note_off_c, 1, 98, 0
2, 114400, Note_on_c, 1, 43, 127
2, 114400, Note_on_c, 1, 55, 127
2, 114400, Note_on_c, 1, 64, 127
2, 114400, Note_on_c, 1, 69, 127
2, 114480, Note_off_c, 1, 43, 0
2, 114480, Note_off_c, 1, 55, 0
2, 114480, Note_off_c, 1, 64, 0
2, 114480, Note_off_c, 1, 69, 0
2, 114480, Note_on_c, 1, 71, 127
2, 114480, Note_on_c, 1, 81, 127
2, 114480, Note_on_c, 1, 86, 127
2, 114480, Note_on_c, 1, 98, 127
2, 114520, Note_off_c, 1, 71, 0
2, 114520, Note_off_c, 1, 81, 0
2, 114520, Note_off_c, 1, 86, 0
2, 114520, Note_off_c, 1, 98, 0
2, 114560, Note_on_c, 1, 56, 127
2, 114560, Note_on_c, 1, 63, 127
2, 114560, Note_on_c, 1, 66, 127
2, 114560, Note_on_c, 1, 70, 127
2, 114560, Note_on_c, 1, 75, 127
2, 114600, Note_off_c, 1, 56, 0
2, 114600, Note_off_c, 1, 63, 0
2, 114600, Note_off_c, 1, 66, 0
2, 114600, Note_off_c, 1, 70, 0
2, 114600, Note_off_c, 1, 75, 0
2, 114640, Note_on_c, 1, 54, 127
2, 114640, Note_on_c, 1, 57, 127
2, 114640, Note_on_c, 1, 60, 127
2, 114640, Note_on_c, 1, 69, 127
2, 114640, Note_on_c, 1, 81, 127
2, 114680, Note_off_c, 1, 54, 0
2, 114680, Note_off_c, 1, 57, 0
2, 114680, Note_off_c, 1, 60, 0
2, 114680, Note_off_c, 1, 69, 0
2, 114680, Note_off_c, 1, 81, 0
2, 114720, Note_on_c, 1, 39, 127
2, 114720, Note_on_c, 1, 41, 127
2, 114720, Note_on_c, 1, 54, 127
2, 114720, Note_on_c, 1, 57, 127
2, 114720, Note_on_c, 1, 60, 127
2, 114760, Note_off_c, 1, 39, 0
2, 114760, Note_off_c, 1, 41, 0
2, 114760, Note_on_c, 1, 49, 127
2, 114760, Note_off_c, 1, 57, 0
2, 114760, Note_off_c, 1, 60, 0
2, 114760, Note_on_c, 1, 93, 127
2, 114800, Note_off_c, 1, 49, 0
2, 114800, Note_on_c, 1, 52, 127
2, 114800, Note_off_c, 1, 54, 0
2, 114800, Note_on_c, 1, 55, 127
2, 114800, Note_on_c, 1, 58, 127
2, 114800, Note_on_c, 1, 60, 127
2, 114800, Note_on_c, 1, 82, 127
2, 114800, Note_on_c, 1, 86, 127
2, 114800, Note_off_c, 1, 93, 0
2, 114840, Note_on_c, 1, 50, 127
2, 114840, Note_off_c, 1, 52, 0
2, 114840, Note_off_c, 1, 55, 0
2, 114840, Note_off_c, 1, 58, 0
2, 114840, Note_off_c, 1, 60, 0
2, 114840, Note_on_c, 1, 62, 127
2, 114840, Note_on_c, 1, 81, 127
2, 114840, Note_off_c, 1, 82, 0
2, 114840, Note_on_c, 1, 89, 127
2, 114840, Note_on_c, 1, 93, 127
2, 114880, Note_off_c, 1, 50, 0
2, 114880, Note_off_c, 1, 62, 0
2, 114880, Note_off_c, 1, 81, 0
2, 114880, Note_off_c, 1, 86, 0
2, 114880, Note_off_c, 1, 89, 0
2, 114880, Note_off_c, 1, 93, 0
2, 114920, Note_on_c, 1, 41, 127
2, 114960, Note_off_c, 1, 41, 0
2, 115000, Note_on_c, 1, 63, 127
2, 115000, Note_on_c, 1, 70, 127
2, 115000, Note_on_c, 1, 75, 127
2, 115000, Note_on_c, 1, 80, 127
2, 115040, Note_off_c, 1, 80, 0
2, 115040, Note_on_c, 1, 82, 127
2, 115080, Note_off_c, 1, 63, 0
2, 115080, Note_off_c, 1, 70, 0
2, 115080, Note_off_c, 1, 75, 0
2, 115080, Note_off_c, 1, 82, 0
2, 115120, Note_on_c, 1, 58, 127
2, 115120, Note_on_c, 1, 63, 127
2, 115120, Note_on_c, 1, 66, 127
2, 115120, Note_on_c, 1, 70, 127
2, 115120, Note_on_c, 1, 75, 127
2, 115120, Note_on_c, 1, 78, 127
2, 115160, Note_off_c, 1, 58, 0
2, 115160, Note_off_c, 1, 63, 0
2, 115160, Note_off_c, 1, 66, 0
2, 115160, Note_off_c, 1, 70, 0
2, 115160, Note_off_c, 1, 75, 0
2, 115160, Note_off_c, 1, 78, 0
2, 115200, Note_on_c, 1, 70, 127
2, 115200, Note_on_c, 1, 74, 127
2, 115200, Note_on_c, 1, 79, 127
2, 115200, Note_on_c, 1, 82, 127
2, 115200, Note_on_c, 1, 86, 127
2, 115200, Note_on_c, 1, 91, 127
2, 115320, Note_off_c, 1, 70, 0
2, 115320, Note_off_c, 1, 74, 0
2, 115320, Note_off_c, 1, 79, 0
2, 115320, Note_off_c, 1, 82, 0
2, 115320, Note_off_c, 1, 86, 0
2, 115320, Note_off_c, 1, 91, 0
2, 115360, Note_on_c, 1, 54, 127
2, 115360, Note_on_c, 1, 57, 127
2, 115360, Note_on_c, 1, 62, 127
2, 115360, Note_on_c, 1, 66, 127
2, 115360, Note_on_c, 1, 69, 127
2, 115400, Note_off_c, 1, 54, 0
2, 115400, Note_off_c, 1, 57, 0
2, 115400, Note_off_c, 1, 62, 0
2, 115400, Note_off_c, 1, 66, 0
2, 115400, Note_off_c, 1, 69, 0
2, 115480, Note_on_c, 1, 61, 127
2, 115480, Note_on_c, 1, 66, 127
2, 115480, Note_on_c, 1, 94, 127
2, 115520, Note_on_c, 1, 50, 127
2, 115520, Note_off_c, 1, 61, 0
2, 115520, Note_on_c, 1, 65, 127
2, 115520, Note_off_c, 1, 66, 0
2, 115520, Note_on_c, 1, 69, 127
2, 115520, Note_on_c, 1, 77, 127
2, 115520, Note_off_c, 1, 94, 0
2, 115560, Note_off_c, 1, 50, 0
2, 115560, Note_off_c, 1, 65, 0
2, 115560, Note_on_c, 1, 66, 127
2, 115560, Note_on_c, 1, 68, 127
2, 115560, Note_off_c, 1, 69, 0
2, 115560, Note_on_c, 1, 71, 127
2, 115560, Note_on_c, 1, 74, 127
2, 115560, Note_off_c, 1, 77, 0
2, 115560, Note_on_c, 1, 83, 127
2, 115600, Note_off_c, 1, 66, 0
2, 115600, Note_off_c, 1, 68, 0
2, 115600, Note_off_c, 1, 71, 0
2, 115600, Note_off_c, 1, 74, 0
2, 115600, Note_off_c, 1, 83, 0
2, 115640, Note_on_c, 1, 48, 127
2, 115640, Note_on_c, 1, 60, 127
2, 115640, Note_on_c, 1, 74, 127
2, 115640, Note_on_c, 1, 77, 127
2, 115640, Note_on_c, 1, 82, 127
2, 115680, Note_off_c, 1, 48, 0
2, 115680, Note_off_c, 1, 60, 0
2, 115680, Note_off_c, 1, 74, 0
2, 115680, Note_off_c, 1, 77, 0
2, 115680, Note_off_c, 1, 82, 0
2, 115720, Note_on_c, 1, 38, 127
2, 115720, Note_on_c, 1, 45, 127
2, 115720, Note_on_c, 1, 50, 127
2, 115720, Note_on_c, 1, 86, 127
2, 115720, Note_on_c, 1, 90, 127
2, 115720, Note_on_c, 1, 98, 127
2, 115800, Note_off_c, 1, 38, 0
2, 115800, Note_on_c, 1, 49, 127
2, 115800, Note_off_c, 1, 50, 0
2, 115800, Note_on_c, 1, 52, 127
2, 115800, Note_on_c, 1, 57, 127
2, 115800, Note_off_c, 1, 86, 0
2, 115800, Note_off_c, 1, 90, 0
2, 115800, Note_on_c, 1, 93, 127
2, 115800, Note_on_c, 1, 97, 127
2, 115800, Note_off_c, 1, 98, 0
2, 115800, Note_on_c, 1, 105, 127
2, 115840, Note_off_c, 1, 45, 0
2, 115840, Note_off_c, 1, 49, 0
2, 115840, Note_on_c, 1, 50, 127
2, 115840, Note_off_c, 1, 52, 0
2, 115840, Note_off_c, 1, 57, 0
2, 115840, Note_on_c, 1, 74, 127
2, 115840, Note_off_c, 1, 93, 0
2, 115840, Note_off_c, 1, 97, 0
2, 115840, Note_off_c, 1, 105, 0
2, 115880, Note_off_c, 1, 50, 0
2, 115880, Note_off_c, 1, 74, 0
2, 115920, Note_on_c, 1, 46, 127
2, 115920, Note_on_c, 1, 58, 127
2, 115920, Note_on_c, 1, 80, 127
2, 115920, Note_on_c, 1, 82, 127
2, 115920, Note_on_c, 1, 86, 127
2, 115920, Note_on_c, 1, 89, 127
2, 116120, Note_off_c, 1, 46, 0
2, 116120, Note_off_c, 1, 58, 0
2, 116120, Note_off_c, 1, 80, 0
2, 116120, Note_off_c, 1, 82, 0
2, 116120, Note_off_c, 1, 86, 0
2, 116120, Note_off_c, 1, 89, 0
2, 116160, Note_on_c, 1, 46, 127
2, 116160, Note_on_c, 1, 58, 127
2, 116160, Note_on_c, 1, 80, 127
2, 116160, Note_on_c, 1, 82, 127
2, 116160, Note_on_c, 1, 86, 127
2, 116160, Note_on_c, 1, 89, 127
2, 116320, Note_off_c, 1, 46, 0
2, 116320, Note_off_c, 1, 58, 0
2, 116320, Note_off_c, 1, 80, 0
2, 116320, Note_off_c, 1, 82, 0
2, 116320, Note_off_c, 1, 86, 0
2, 116320, Note_off_c, 1, 89, 0
2, 116360, Note_on_c, 1, 46, 127
2, 116360, Note_on_c, 1, 58, 127
2, 116360, Note_on_c, 1, 80, 127
2, 116360, Note_on_c, 1, 82, 127
2, 116360, Note_on_c, 1, 86, 127
2, 116360, Note_on_c, 1, 89, 127
2, 116400, Note_off_c, 1, 46, 0
2, 116400, Note_off_c, 1, 58, 0
2, 116400, Note_off_c, 1, 80, 0
2, 116400, Note_off_c, 1, 82, 0
2, 116400, Note_off_c, 1, 86, 0
2, 116400, Note_off_c, 1, 89, 0
2, 116440, Note_on_c, 1, 38, 127
2, 116440, Note_on_c, 1, 45, 127
2, 116440, Note_on_c, 1, 50, 127
2, 116440, Note_on_c, 1, 89, 127
2, 116560, Note_off_c, 1, 38, 0
2, 116560, Note_off_c, 1, 45, 0
2, 116560, Note_off_c, 1, 50, 0
2, 116560, Note_off_c, 1, 89, 0
2, 116600, Note_on_c, 1, 75, 127
2, 116600, Note_on_c, 1, 80, 127
2, 116600, Note_on_c, 1, 84, 127
2, 116600, Note_on_c, 1, 89, 127
2, 116640, Note_off_c, 1, 75, 0
2, 116640, Note_off_c, 1, 80, 0
2, 116640, Note_off_c, 1, 84, 0
2, 116640, Note_off_c, 1, 89, 0
2, 116680, Note_on_c, 1, 61, 127
2, 116680, Note_on_c, 1, 65, 127
2, 116680, Note_on_c, 1, 68, 127
2, 116680, Note_on_c, 1, 73, 127
2, 116680, Note_on_c, 1, 80, 127
2, 116680, Note_on_c, 1, 89, 127
2, 116680, Note_on_c, 1, 92, 127
2, 116760, Note_off_c, 1, 61, 0
2, 116760, Note_off_c, 1, 65, 0
2, 116760, Note_off_c, 1, 68, 0
2, 116760, Note_off_c, 1, 73, 0
2, 116760, Note_off_c, 1, 80, 0
2, 116760, Note_off_c, 1, 89, 0
2, 116760, Note_off_c, 1, 92, 0
2, 116800, Note_on_c, 1, 36, 127
2, 116800, Note_on_c, 1, 65, 127
2, 116800, Note_on_c, 1, 69, 127
2, 116840, Note_off_c, 1, 36, 0
2, 116840, Note_off_c, 1, 65, 0
2, 116840, Note_off_c, 1, 69, 0
2, 116880, Note_on_c, 1, 43, 127
2, 116880, Note_on_c, 1, 50, 127
2, 116880, Note_on_c, 1, 55, 127
2, 116880, Note_on_c, 1, 82, 127
2, 116920, Note_off_c, 1, 43, 0
2, 116920, Note_off_c, 1, 50, 0
2, 116920, Note_off_c, 1, 55, 0
2, 116920, Note_on_c, 1, 70, 127
2, 116920, Note_on_c, 1, 76, 127
2, 116920, Note_on_c, 1, 81, 127
2, 116920, Note_off_c, 1, 82, 0
2, 116960, Note_on_c, 1, 69, 127
2, 116960, Note_off_c, 1, 70, 0
2, 116960, Note_on_c, 1, 71, 127
2, 116960, Note_off_c, 1, 76, 0
2, 116960, Note_on_c, 1, 79, 127
2, 116960, Note_on_c, 1, 89, 127
2, 117000, Note_off_c, 1, 69, 0
2, 117000, Note_off_c, 1, 71, 0
2, 117000, Note_off_c, 1, 79, 0
2, 117000, Note_off_c, 1, 81, 0
2, 117000, Note_off_c, 1, 89, 0
2, 117040, Note_on_c, 1, 55, 127
2, 117040, Note_on_c, 1, 58, 127
2, 117040, Note_on_c, 1, 60, 127
2, 117040, Note_on_c, 1, 64, 127
2, 117040, Note_on_c, 1, 67, 127
2, 117040, Note_on_c, 1, 70, 127
2, 117040, Note_on_c, 1, 72, 127
2, 117040, Note_on_c, 1, 79, 127
2, 117080, Note_on_c, 1, 43, 127
2, 117080, Note_off_c, 1, 55, 0
2, 117080, Note_off_c, 1, 58, 0
2, 117080, Note_off_c, 1, 60, 0
2, 117080, Note_off_c, 1, 64, 0
2, 117080, Note_off_c, 1, 67, 0
2, 117080, Note_off_c, 1, 72, 0
2, 117080, Note_on_c, 1, 73, 127
2, 117080, Note_on_c, 1, 76, 127
2, 117080, Note_off_c, 1, 79, 0
2, 117080, Note_on_c, 1, 82, 127
2, 117120, Note_off_c, 1, 43, 0
2, 117120, Note_on_c, 1, 52, 127
2, 117120, Note_on_c, 1, 64, 127
2, 117120, Note_off_c, 1, 70, 0
2, 117120, Note_off_c, 1, 76, 0
2, 117120, Note_on_c, 1, 79, 127
2, 117120, Note_on_c, 1, 85, 127
2, 117160, Note_off_c, 1, 52, 0
2, 117160, Note_on_c, 1, 55, 127
2, 117160, Note_off_c, 1, 64, 0
2, 117160, Note_on_c, 1, 69, 127
2, 117160, Note_off_c, 1, 73, 0
2, 117160, Note_on_c, 1, 75, 127
2, 117160, Note_on_c, 1, 77, 127
2, 117160, Note_off_c, 1, 79, 0
2, 117160, Note_on_c, 1, 81, 127
2, 117160, Note_off_c, 1, 82, 0
2, 117160, Note_off_c, 1, 85, 0
2, 117200, Note_on_c, 1, 44, 127
2, 117200, Note_off_c, 1, 55, 0
2, 117200, Note_on_c, 1, 56, 127
2, 117200, Note_off_c, 1, 69, 0
2, 117200, Note_on_c, 1, 70, 127
2, 117200, Note_off_c, 1, 77, 0
2, 117200, Note_on_c, 1, 79, 127
2, 117200, Note_off_c, 1, 81, 0
2, 117200, Note_on_c, 1, 82, 127
2, 117240, Note_off_c, 1, 44, 0
2, 117240, Note_off_c, 1, 56, 0
2, 117240, Note_off_c, 1, 70, 0
2, 117240, Note_off_c, 1, 75, 0
2, 117240, Note_off_c, 1, 79, 0
2, 117240, Note_off_c, 1, 82, 0
2, 117280, Note_on_c, 1, 48, 127
2, 117280, Note_on_c, 1, 60, 127
2, 117280, Note_on_c, 1, 76, 127
2, 117280, Note_on_c, 1, 78, 127
2, 117280, Note_on_c, 1, 81, 127
2, 117280, Note_on_c, 1, 88, 127
2, 117480, Note_off_c, 1, 48, 0
2, 117480, Note_off_c, 1, 60, 0
2, 117480, Note_off_c, 1, 76, 0
2, 117480, Note_off_c, 1, 78, 0
2, 117480, Note_off_c, 1, 81, 0
2, 117480, Note_off_c, 1, 88, 0
2, 117520, Note_on_c, 1, 53, 127
2, 117520, Note_on_c, 1, 60, 127
2, 117520, Note_on_c, 1, 63, 127
2, 117520, Note_on_c, 1, 69, 127
2, 117520, Note_on_c, 1, 75, 127
2, 117520, Note_on_c, 1, 81, 127
2, 117560, Note_off_c, 1, 53, 0
2, 117560, Note_on_c, 1, 55, 127
2, 117560, Note_on_c, 1, 58, 127
2, 117560, Note_off_c, 1, 60, 0
2, 117560, Note_off_c, 1, 63, 0
2, 117560, Note_off_c, 1, 69, 0
2, 117560, Note_on_c, 1, 72, 127
2, 117560, Note_off_c, 1, 75, 0
2, 117560, Note_on_c, 1, 79, 127
2, 117560, Note_off_c, 1, 81, 0
2, 117560, Note_on_c, 1, 84, 127
2, 117600, Note_on_c, 1, 38, 127
2, 117600, Note_on_c, 1, 40, 127
2, 117600, Note_off_c, 1, 55, 0
2, 117600, Note_off_c, 1, 58, 0
2, 117600, Note_on_c, 1, 61, 127
2, 117600, Note_on_c, 1, 67, 127
2, 117600, Note_off_c, 1, 72, 0
2, 117600, Note_off_c, 1, 79, 0
2, 117600, Note_off_c, 1, 84, 0
2, 117640, Note_off_c, 1, 38, 0
2, 117640, Note_off_c, 1, 40, 0
2, 117640, Note_off_c, 1, 61, 0
2, 117640, Note_off_c, 1, 67, 0
2, 117680, Note_on_c, 1, 53, 127
2, 117680, Note_on_c, 1, 60, 127
2, 117680, Note_on_c, 1, 63, 127
2, 117680, Note_on_c, 1, 69, 127
2, 117680, Note_on_c, 1, 75, 127
2, 117680, Note_on_c, 1, 81, 127
2, 117720, Note_off_c, 1, 53, 0
2, 117720, Note_off_c, 1, 60, 0
2, 117720, Note_off_c, 1, 63, 0
2, 117720, Note_off_c, 1, 69, 0
2, 117720, Note_off_c, 1, 75, 0
2, 117720, Note_off_c, 1, 81, 0
2, 117760, Note_on_c, 1, 53, 127
2, 117760, Note_on_c, 1, 60, 127
2, 117760, Note_on_c, 1, 63, 127
2, 117760, Note_on_c, 1, 69, 127
2, 117760, Note_on_c, 1, 75, 127
2, 117760, Note_on_c, 1, 81, 127
2, 117920, Note_off_c, 1, 53, 0
2, 117920, Note_off_c, 1, 60, 0
2, 117920, Note_off_c, 1, 63, 0
2, 117920, Note_off_c, 1, 69, 0
2, 117920, Note_off_c, 1, 75, 0
2, 117920, Note_off_c, 1, 81, 0
2, 117960, Note_on_c, 1, 45, 127
2, 117960, Note_on_c, 1, 49, 127
2, 117960, Note_on_c, 1, 52, 127
2, 117960, Note_on_c, 1, 55, 127
2, 117960, Note_on_c, 1, 57, 127
2, 117960, Note_on_c, 1, 61, 127
2, 117960, Note_on_c, 1, 67, 127
2, 118120, Note_off_c, 1, 45, 0
2, 118120, Note_off_c, 1, 49, 0
2, 118120, Note_off_c, 1, 52, 0
2, 118120, Note_off_c, 1, 55, 0
2, 118120, Note_off_c, 1, 61, 0
2, 118120, Note_off_c, 1, 67, 0
2, 118120, Note_on_c, 1, 69, 127
2, 118120, Note_on_c, 1, 71, 127
2, 118120, Note_on_c, 1, 75, 127
2, 118120, Note_on_c, 1, 78, 127
2, 118160, Note_off_c, 1, 57, 0
2, 118160, Note_off_c, 1, 69, 0
2, 118160, Note_off_c, 1, 71, 0
2, 118160, Note_off_c, 1, 75, 0
2, 118160, Note_off_c, 1, 78, 0
2, 118200, Note_on_c, 1, 55, 127
2, 118200, Note_on_c, 1, 67, 127
2, 118200, Note_on_c, 1, 73, 127
2, 118200, Note_on_c, 1, 82, 127
2, 118200, Note_on_c, 1, 85, 127
2, 118360, Note_off_c, 1, 55, 0
2, 118360, Note_off_c, 1, 67, 0
2, 118360, Note_off_c, 1, 73, 0
2, 118360, Note_off_c, 1, 82, 0
2, 118360, Note_off_c, 1, 85, 0
2, 118400, Note_on_c, 1, 55, 127
2, 118400, Note_on_c, 1, 67, 127
2, 118400, Note_on_c, 1, 73, 127
2, 118400, Note_on_c, 1, 82, 127
2, 118400, Note_on_c, 1, 85, 127
2, 118560, Note_off_c, 1, 55, 0
2, 118560, Note_off_c, 1, 67, 0
2, 118560, Note_off_c, 1, 73, 0
2, 118560, Note_off_c, 1, 82, 0
2, 118560, Note_off_c, 1, 85, 0
2, 118600, Note_on_c, 1, 71, 127
2, 118600, Note_on_c, 1, 74, 127
2, 118600, Note_on_c, 1, 78, 127
2, 118600, Note_on_c, 1, 86, 127
2, 118600, Note_on_c, 1, 90, 127
2, 118600, Note_on_c, 1, 100, 127
2, 118640, Note_on_c, 1, 62, 127
2, 118640, Note_off_c, 1, 78, 0
2, 118640, Note_on_c, 1, 80, 127
2, 118640, Note_on_c, 1, 83, 127
2, 118640, Note_off_c, 1, 86, 0
2, 118640, Note_off_c, 1, 90, 0
2, 118640, Note_on_c, 1, 92, 127
2, 118640, Note_off_c, 1, 100, 0
2, 118680, Note_on_c, 1, 52, 127
2, 118680, Note_on_c, 1, 57, 127
2, 118680, Note_on_c, 1, 60, 127
2, 118680, Note_off_c, 1, 62, 0
2, 118680, Note_on_c, 1, 63, 127
2, 118680, Note_off_c, 1, 71, 0
2, 118680, Note_off_c, 1, 74, 0
2, 118680, Note_off_c, 1, 80, 0
2, 118680, Note_off_c, 1, 83, 0
2, 118720, Note_off_c, 1, 52, 0
2, 118720, Note_on_c, 1, 54, 127
2, 118720, Note_off_c, 1, 57, 0
2, 118720, Note_off_c, 1, 63, 0
2, 118720, Note_on_c, 1, 64, 127
2, 118720, Note_on_c, 1, 78, 127
2, 118720, Note_off_c, 1, 92, 0
2, 118760, Note_off_c, 1, 54, 0
2, 118760, Note_off_c, 1, 60, 0
2, 118760, Note_off_c, 1, 64, 0
2, 118760, Note_off_c, 1, 78, 0
2, 118800, Note_on_c, 1, 48, 127
2, 118800, Note_on_c, 1, 52, 127
2, 118800, Note_on_c, 1, 60, 127
2, 118800, Note_on_c, 1, 64, 127
2, 118800, Note_on_c, 1, 72, 127
2, 118800, Note_on_c, 1, 76, 127
2, 118840, Note_off_c, 1, 48, 0
2, 118840, Note_off_c, 1, 52, 0
2, 118840, Note_off_c, 1, 60, 0
2, 118840, Note_off_c, 1, 64, 0
2, 118840, Note_off_c, 1, 72, 0
2, 118840, Note_off_c, 1, 76, 0
2, 118880, Note_on_c, 1, 48, 127
2, 118880, Note_on_c, 1, 52, 127
2, 118880, Note_on_c, 1, 60, 127
2, 118880, Note_on_c, 1, 64, 127
2, 118880, Note_on_c, 1, 72, 127
2, 118880, Note_on_c, 1, 76, 127
2, 119000, Note_off_c, 1, 48, 0
2, 119000, Note_off_c, 1, 52, 0
2, 119000, Note_off_c, 1, 60, 0
2, 119000, Note_off_c, 1, 64, 0
2, 119000, Note_off_c, 1, 72, 0
2, 119000, Note_off_c, 1, 76, 0
2, 119040, Note_on_c, 1, 38, 127
2, 119040, Note_on_c, 1, 50, 127
2, 119040, Note_on_c, 1, 86, 127
2, 119040, Note_on_c, 1, 90, 127
2, 119040, Note_on_c, 1, 98, 127
2, 119200, Note_off_c, 1, 38, 0
2, 119200, Note_off_c, 1, 50, 0
2, 119200, Note_off_c, 1, 86, 0
2, 119200, Note_off_c, 1, 90, 0
2, 119200, Note_off_c, 1, 98, 0
2, 119240, Note_on_c, 1, 38, 127
2, 119240, Note_on_c, 1, 50, 127
2, 119240, Note_on_c, 1, 86, 127
2, 119240, Note_on_c, 1, 90, 127
2, 119240, Note_on_c, 1, 98, 127
2, 119400, Note_off_c, 1, 38, 0
2, 119400, Note_off_c, 1, 50, 0
2, 119400, Note_off_c, 1, 86, 0
2, 119400, Note_off_c, 1, 90, 0
2, 119400, Note_off_c, 1, 98, 0
2, 119440, Note_on_c, 1, 38, 127
2, 119440, Note_on_c, 1, 50, 127
2, 119440, Note_on_c, 1, 86, 127
2, 119440, Note_on_c, 1, 90, 127
2, 119440, Note_on_c, 1, 98, 127
2, 119600, Note_off_c, 1, 38, 0
2, 119600, Note_off_c, 1, 50, 0
2, 119600, Note_off_c, 1, 86, 0
2, 119600, Note_off_c, 1, 90, 0
2, 119600, Note_off_c, 1, 98, 0
2, 119640, Note_on_c, 1, 44, 127
2, 119640, Note_on_c, 1, 48, 127
2, 119640, Note_on_c, 1, 65, 127
2, 119640, Note_on_c, 1, 72, 127
2, 119680, Note_off_c, 1, 44, 0
2, 119680, Note_off_c, 1, 48, 0
2, 119680, Note_off_c, 1, 65, 0
2, 119680, Note_off_c, 1, 72, 0
2, 119720, Note_on_c, 1, 44, 127
2, 119720, Note_on_c, 1, 48, 127
2, 119720, Note_on_c, 1, 65, 127
2, 119720, Note_on_c, 1, 72, 127
2, 119800, Note_off_c, 1, 44, 0
2, 119800, Note_off_c, 1, 48, 0
2, 119800, Note_off_c, 1, 65, 0
2, 119800, Note_on_c, 1, 77, 127
2, 119800, Note_on_c, 1, 89, 127
2, 119800, Note_on_c, 1, 93, 127
2, 119840, Note_off_c, 1, 72, 0
2, 119840, Note_off_c, 1, 77, 0
2, 119840, Note_off_c, 1, 89, 0
2, 119840, Note_off_c, 1, 93, 0
2, 119920, Note_on_c, 1, 48, 127
2, 119920, Note_on_c, 1, 55, 127
2, 119920, Note_on_c, 1, 58, 127
2, 119920, Note_on_c, 1, 70, 127
2, 119920, Note_on_c, 1, 73, 127
2, 119920, Note_on_c, 1, 77, 127
2, 119920, Note_on_c, 1, 82, 127
2, 120000, Note_off_c, 1, 48, 0
2, 120000, Note_off_c, 1, 55, 0
2, 120000, Note_off_c, 1, 58, 0
2, 120000, Note_off_c, 1, 70, 0
2, 120000, Note_off_c, 1, 73, 0
2, 120000, Note_off_c, 1, 77, 0
2, 120000, Note_off_c, 1, 82, 0
2, 120040, End_track
3, 0, Start_track
3, 0, Title_t, "MIDI"
3, 1536, End_track
0, 0, End_of_file
