0, 0, Header, 1, 3, 192
1, 0, Start_track
1, 0, Time_signature, 4, 2, 24, 8
1, 0, Tempo, 500000
1, 120040, End_track
2, 0, Start_track
2, 0, Text_t, "random instrument: random person i dunno whatev"
2, 0, Title_t, "Track 1"
2, 0, Note_on_c, 1, 50, 127
2, 0, Note_on_c, 1, 57, 127
2, 0, Note_on_c, 1, 65, 127
2, 0, Note_on_c, 1, 69, 127
2, 0, Note_on_c, 1, 74, 127
2, 0, Note_on_c, 1, 77, 127
2, 0, Note_on_c, 1, 81, 127
2, 80, Note_off_c, 1, 50, 0
2, 80, Note_off_c, 1, 57, 0
2, 80, Note_off_c, 1, 65, 0
2, 80, Note_off_c, 1, 69, 0
2, 80, Note_off_c, 1, 74, 0
2, 80, Note_off_c, 1, 77, 0
2, 80, Note_off_c, 1, 81, 0
2, 120, Note_on_c, 1, 50, 127
2, 120, Note_on_c, 1, 57, 127
2, 120, Note_on_c, 1, 65, 127
2, 120, Note_on_c, 1, 69, 127
2, 120, Note_on_c, 1, 74, 127
2, 120, Note_on_c, 1, 77, 127
2, 120, Note_on_c, 1, 81, 127
2, 360, Note_off_c, 1, 50, 0
2, 360, Note_off_c, 1, 57, 0
2, 360, Note_off_c, 1, 65, 0
2, 360, Note_off_c, 1, 69, 0
2, 360, Note_off_c, 1, 74, 0
2, 360, Note_off_c, 1, 77, 0
2, 360, Note_off_c, 1, 81, 0
2, 400, Note_on_c, 1, 47, 127
2, 400, Note_on_c, 1, 59, 127
2, 400, Note_on_c, 1, 66, 127
2, 400, Note_on_c, 1, 71, 127
2, 400, Note_on_c, 1, 74, 127
2, 800, Note_off_c, 1, 47, 0
2, 800, Note_off_c, 1, 59, 0
2, 800, Note_off_c, 1, 66, 0
2, 800, Note_off_c, 1, 71, 0
2, 800, Note_off_c, 1, 74, 0
2, 840, Note_on_c, 1, 47, 127
2, 840, Note_on_c, 1, 63, 127
2, 840, Note_on_c, 1, 66, 127
2, 840, Note_on_c, 1, 71, 127
2, 960, Note_off_c, 1, 47, 0
2, 960, Note_off_c, 1, 63, 0
2, 960, Note_off_c, 1, 66, 0
2, 960, Note_off_c, 1, 71, 0
2, 3840, Note_on_c, 1, 59, 127
2, 3840, Note_on_c, 1, 64, 127
2, 3840, Note_on_c, 1, 68, 127
2, 3960, Note_off_c, 1, 59, 0
2, 3960, Note_off_c, 1, 64, 0
2, 3960, Note_off_c, 1, 68, 0
2, 4160, Note_on_c, 1, 62, 127
2, 4160, Note_on_c, 1, 64, 127
2, 4160, Note_on_c, 1, 68, 127
2, 4160, Note_on_c, 1, 71, 127
2, 4200, Note_off_c, 1, 62, 0
2, 4200, Note_off_c, 1, 64, 0
2, 4200, Note_off_c, 1, 68, 0
2, 4200, Note_off_c, 1, 71, 0
2, 4240, Note_on_c, 1, 62, 127
2, 4240, Note_on_c, 1, 64, 127
2, 4240, Note_on_c, 1, 68, 127
2, 4240, Note_on_c, 1, 71, 127
2, 4280, Note_off_c, 1, 62, 0
2, 4280, Note_off_c, 1, 64, 0
2, 4280, Note_off_c, 1, 68, 0
2, 4280, Note_off_c, 1, 71, 0
2, 4360, Note_on_c, 1, 62, 127
2, 4360, Note_on_c, 1, 64, 127
2, 4360, Note_on_c, 1, 68, 127
2, 4360, Note_on_c, 1, 71, 127
2, 4600, Note_off_c, 1, 62, 0
2, 4600, Note_off_c, 1, 64, 0
2, 4600, Note_off_c, 1, 68, 0
2, 4600, Note_off_c, 1, 71, 0
2, 4640, Note_on_c, 1, 57, 127
2, 4640, Note_on_c, 1, 61, 127
2, 4640, Note_on_c, 1, 64, 127
2, 4640, Note_on_c, 1, 69, 127
2, 4680, Note_off_c, 1, 57, 0
2, 4680, Note_off_c, 1, 61, 0
2, 4680, Note_off_c, 1, 64, 0
2, 4680, Note_off_c, 1, 69, 0
2, 4720, Note_on_c, 1, 57, 127
2, 4720, Note_on_c, 1, 61, 127
2, 4720, Note_on_c, 1, 64, 127
2, 4720, Note_on_c, 1, 69, 127
2, 4920, Note_off_c, 1, 57, 0
2, 4920, Note_off_c, 1, 61, 0
2, 4920, Note_off_c, 1, 64, 0
2, 4920, Note_off_c, 1, 69, 0
2, 4960, Note_on_c, 1, 50, 127
2, 4960, Note_on_c, 1, 62, 127
2, 4960, Note_on_c, 1, 66, 127
2, 4960, Note_on_c, 1, 71, 127
2, 5000, Note_off_c, 1, 50, 0
2, 5000, Note_off_c, 1, 62, 0
2, 5000, Note_off_c, 1, 66, 0
2, 5000, Note_off_c, 1, 71, 0
2, 5160, Note_on_c, 1, 48, 127
2, 5160, Note_on_c, 1, 55, 127
2, 5160, Note_on_c, 1, 60, 127
2, 5160, Note_on_c, 1, 64, 127
2, 5200, Note_off_c, 1, 48, 0
2, 5200, Note_off_c, 1, 55, 0
2, 5200, Note_off_c, 1, 60, 0
2, 5200, Note_off_c, 1, 64, 0
2, 5240, Note_on_c, 1, 43, 127
2, 5240, Note_on_c, 1, 50, 127
2, 5240, Note_on_c, 1, 60, 127
2, 5240, Note_on_c, 1, 62, 127
2, 5240, Note_on_c, 1, 69, 127
2, 5480, Note_off_c, 1, 43, 0
2, 5480, Note_off_c, 1, 50, 0
2, 5480, Note_off_c, 1, 60, 0
2, 5480, Note_off_c, 1, 62, 0
2, 5480, Note_off_c, 1, 69, 0
2, 5520, Note_on_c, 1, 41, 127
2, 5520, Note_on_c, 1, 53, 127
2, 5520, Note_on_c, 1, 77, 127
2, 5520, Note_on_c, 1, 81, 127
2, 5520, Note_on_c, 1, 84, 127
2, 5520, Note_on_c, 1, 89, 127
2, 5720, Note_off_c, 1, 41, 0
2, 5720, Note_off_c, 1, 53, 0
2, 5720, Note_off_c, 1, 77, 0
2, 5720, Note_off_c, 1, 81, 0
2, 5720, Note_off_c, 1, 84, 0
2, 5720, Note_off_c, 1, 89, 0
2, 5840, Note_on_c, 1, 65, 127
2, 5840, Note_on_c, 1, 70, 127
2, 5840, Note_on_c, 1, 78, 127
2, 5840, Note_on_c, 1, 85, 127
2, 5840, Note_on_c, 1, 90, 127
2, 5880, Note_on_c, 1, 52, 127
2, 5880, Note_on_c, 1, 57, 127
2, 5880, Note_on_c, 1, 60, 127
2, 5880, Note_on_c, 1, 69, 127
2, 5880, Note_off_c, 1, 70, 0
2, 5880, Note_on_c, 1, 77, 127
2, 5880, Note_off_c, 1, 78, 0
2, 5880, Note_off_c, 1, 85, 0
2, 5880, Note_off_c, 1, 90, 0
2, 5920, Note_off_c, 1, 52, 0
2, 5920, Note_off_c, 1, 57, 0
2, 5920, Note_off_c, 1, 60, 0
2, 5920, Note_off_c, 1, 65, 0
2, 5920, Note_off_c, 1, 69, 0
2, 5920, Note_off_c, 1, 77, 0
2, 6000, Note_on_c, 1, 44, 127
2, 6000, Note_on_c, 1, 56, 127
2, 6000, Note_on_c, 1, 78, 127
2, 6000, Note_on_c, 1, 80, 127
2, 6000, Note_on_c, 1, 84, 127
2, 6000, Note_on_c, 1, 87, 127
2, 6400, Note_off_c, 1, 44, 0
2, 6400, Note_off_c, 1, 56, 0
2, 6400, Note_off_c, 1, 78, 0
2, 6400, Note_off_c, 1, 80, 0
2, 6400, Note_off_c, 1, 84, 0
2, 6400, Note_off_c, 1, 87, 0
2, 6440, Note_on_c, 1, 72, 127
2, 6440, Note_on_c, 1, 76, 127
2, 6440, Note_on_c, 1, 79, 127
2, 6440, Note_on_c, 1, 82, 127
2, 6440, Note_on_c, 1, 84, 127
2, 6480, Note_off_c, 1, 72, 0
2, 6480, Note_off_c, 1, 76, 0
2, 6480, Note_off_c, 1, 79, 0
2, 6480, Note_off_c, 1, 82, 0
2, 6480, Note_off_c, 1, 84, 0
2, 6600, Note_on_c, 1, 41, 127
2, 6600, Note_on_c, 1, 53, 127
2, 6600, Note_on_c, 1, 56, 127
2, 6600, Note_on_c, 1, 73, 127
2, 6600, Note_on_c, 1, 80, 127
2, 6680, Note_off_c, 1, 41, 0
2, 6680, Note_off_c, 1, 53, 0
2, 6680, Note_off_c, 1, 73, 0
2, 6680, Note_off_c, 1, 80, 0
2, 6720, Note_off_c, 1, 56, 0
2, 6760, Note_on_c, 1, 49, 127
2, 6760, Note_on_c, 1, 52, 127
2, 6760, Note_on_c, 1, 57, 127
2, 6760, Note_on_c, 1, 61, 127
2, 6760, Note_on_c, 1, 63, 127
2, 6800, Note_off_c, 1, 49, 0
2, 6800, Note_on_c, 1, 51, 127
2, 6800, Note_off_c, 1, 52, 0
2, 6800, Note_off_c, 1, 57, 0
2, 6800, Note_off_c, 1, 61, 0
2, 6800, Note_on_c, 1, 69, 127
2, 6800, Note_on_c, 1, 72, 127
2, 6800, Note_on_c, 1, 78, 127
2, 6800, Note_on_c, 1, 81, 127
2, 6800, Note_on_c, 1, 84, 127
2, 6840, Note_on_c, 1, 42, 127
2, 6840, Note_on_c, 1, 49, 127
2, 6840, Note_off_c, 1, 51, 0
2, 6840, Note_on_c, 1, 61, 127
2, 6840, Note_off_c, 1, 63, 0
2, 6840, Note_on_c, 1, 66, 127
2, 6840, Note_off_c, 1, 69, 0
2, 6840, Note_on_c, 1, 70, 127
2, 6840, Note_off_c, 1, 72, 0
2, 6840, Note_off_c, 1, 78, 0
2, 6840, Note_off_c, 1, 81, 0
2, 6840, Note_on_c, 1, 82, 127
2, 6840, Note_off_c, 1, 84, 0
2, 6840, Note_on_c, 1, 85, 127
2, 6840, Note_on_c, 1, 90, 127
2, 6880, Note_off_c, 1, 42, 0
2, 6880, Note_off_c, 1, 49, 0
2, 6880, Note_off_c, 1, 61, 0
2, 6880, Note_off_c, 1, 66, 0
2, 6880, Note_off_c, 1, 70, 0
2, 6880, Note_off_c, 1, 82, 0
2, 6880, Note_off_c, 1, 85, 0
2, 6880, Note_off_c, 1, 90, 0
2, 7080, Note_on_c, 1, 44, 127
2, 7080, Note_on_c, 1, 53, 127
2, 7080, Note_on_c, 1, 56, 127
2, 7080, Note_on_c, 1, 73, 127
2, 7080, Note_on_c, 1, 85, 127
2, 7200, Note_off_c, 1, 44, 0
2, 7200, Note_off_c, 1, 53, 0
2, 7200, Note_off_c, 1, 56, 0
2, 7200, Note_off_c, 1, 73, 0
2, 7200, Note_off_c, 1, 85, 0
2, 7320, Note_on_c, 1, 44, 127
2, 7320, Note_on_c, 1, 53, 127
2, 7320, Note_on_c, 1, 56, 127
2, 7320, Note_on_c, 1, 73, 127
2, 7320, Note_on_c, 1, 85, 127
2, 7600, Note_off_c, 1, 44, 0
2, 7600, Note_off_c, 1, 53, 0
2, 7600, Note_off_c, 1, 56, 0
2, 7600, Note_off_c, 1, 73, 0
2, 7600, Note_off_c, 1, 85, 0
2, 7640, Note_on_c, 1, 48, 127
2, 7640, Note_on_c, 1, 55, 127
2, 7640, Note_on_c, 1, 60, 127
2, 7640, Note_on_c, 1, 67, 127
2, 7640, Note_on_c, 1, 76, 127
2, 7640, Note_on_c, 1, 79, 127
2, 7920, Note_off_c, 1, 48, 0
2, 7920, Note_off_c, 1, 55, 0
2, 7920, Note_off_c, 1, 60, 0
2, 7920, Note_off_c, 1, 67, 0
2, 7920, Note_off_c, 1, 76, 0
2, 7920, Note_off_c, 1, 79, 0
2, 7960, Note_on_c, 1, 48, 127
2, 7960, Note_on_c, 1, 55, 127
2, 7960, Note_on_c, 1, 60, 127
2, 7960, Note_on_c, 1, 67, 127
2, 7960, Note_on_c, 1, 76, 127
2, 7960, Note_on_c, 1, 79, 127
2, 8080, Note_off_c, 1, 48, 0
2, 8080, Note_off_c, 1, 55, 0
2, 8080, Note_off_c, 1, 60, 0
2, 8080, Note_off_c, 1, 67, 0
2, 8080, Note_off_c, 1, 76, 0
2, 8080, Note_off_c, 1, 79, 0
2, 8120, Note_on_c, 1, 48, 127
2, 8120, Note_on_c, 1, 55, 127
2, 8120, Note_on_c, 1, 60, 127
2, 8120, Note_on_c, 1, 67, 127
2, 8120, Note_on_c, 1, 76, 127
2, 8120, Note_on_c, 1, 79, 127
2, 8240, Note_off_c, 1, 48, 0
2, 8240, Note_off_c, 1, 55, 0
2, 8240, Note_off_c, 1, 60, 0
2, 8240, Note_off_c, 1, 67, 0
2, 8240, Note_off_c, 1, 76, 0
2, 8240, Note_off_c, 1, 79, 0
2, 8280, Note_on_c, 1, 48, 127
2, 8280, Note_on_c, 1, 55, 127
2, 8280, Note_on_c, 1, 60, 127
2, 8280, Note_on_c, 1, 67, 127
2, 8280, Note_on_c, 1, 76, 127
2, 8280, Note_on_c, 1, 79, 127
2, 8400, Note_off_c, 1, 48, 0
2, 8400, Note_off_c, 1, 55, 0
2, 8400, Note_off_c, 1, 60, 0
2, 8400, Note_off_c, 1, 67, 0
2, 8400, Note_off_c, 1, 76, 0
2, 8400, Note_off_c, 1, 79, 0
2, 8440, Note_on_c, 1, 48, 127
2, 8440, Note_on_c, 1, 55, 127
2, 8440, Note_on_c, 1, 60, 127
2, 8440, Note_on_c, 1, 67, 127
2, 8440, Note_on_c, 1, 76, 127
2, 8440, Note_on_c, 1, 79, 127
2, 8560, Note_off_c, 1, 48, 0
2, 8560, Note_off_c, 1, 55, 0
2, 8560, Note_off_c, 1, 60, 0
2, 8560, Note_off_c, 1, 67, 0
2, 8560, Note_off_c, 1, 76, 0
2, 8560, Note_off_c, 1, 79, 0
2, 8600, Note_on_c, 1, 48, 127
2, 8600, Note_on_c, 1, 55, 127
2, 8600, Note_on_c, 1, 60, 127
2, 8600, Note_on_c, 1, 67, 127
2, 8600, Note_on_c, 1, 76, 127
2, 8600, Note_on_c, 1, 79, 127
2, 8720, Note_off_c, 1, 48, 0
2, 8720, Note_off_c, 1, 55, 0
2, 8720, Note_off_c, 1, 60, 0
2, 8720, Note_off_c, 1, 67, 0
2, 8720, Note_off_c, 1, 76, 0
2, 8720, Note_off_c, 1, 79, 0
2, 8760, Note_on_c, 1, 48, 127
2, 8760, Note_on_c, 1, 55, 127
2, 8760, Note_on_c, 1, 60, 127
2, 8760, Note_on_c, 1, 67, 127
2, 8760, Note_on_c, 1, 76, 127
2, 8760, Note_on_c, 1, 79, 127
2, 8880, Note_off_c, 1, 48, 0
2, 8880, Note_off_c, 1, 55, 0
2, 8880, Note_off_c, 1, 60, 0
2, 8880, Note_off_c, 1, 67, 0
2, 8880, Note_off_c, 1, 76, 0
2, 8880, Note_off_c, 1, 79, 0
2, 8920, Note_on_c, 1, 48, 127
2, 8920, Note_on_c, 1, 55, 127
2, 8920, Note_on_c, 1, 60, 127
2, 8920, Note_on_c, 1, 67, 127
2, 8920, Note_on_c, 1, 76, 127
2, 8920, Note_on_c, 1, 79, 127
2, 9040, Note_off_c, 1, 48, 0
2, 9040, Note_off_c, 1, 55, 0
2, 9040, Note_off_c, 1, 60, 0
2, 9040, Note_off_c, 1, 67, 0
2, 9040, Note_off_c, 1, 76, 0
2, 9040, Note_off_c, 1, 79, 0
2, 9120, Note_on_c, 1, 48, 127
2, 9120, Note_on_c, 1, 55, 127
2, 9120, Note_on_c, 1, 60, 127
2, 9120, Note_on_c, 1, 67, 127
2, 9120, Note_on_c, 1, 76, 127
2, 9120, Note_on_c, 1, 79, 127
2, 9240, Note_off_c, 1, 48, 0
2, 9240, Note_off_c, 1, 55, 0
2, 9240, Note_off_c, 1, 60, 0
2, 9240, Note_off_c, 1, 67, 0
2, 9240, Note_off_c, 1, 76, 0
2, 9240, Note_off_c, 1, 79, 0
2, 9280, Note_on_c, 1, 48, 127
2, 9280, Note_on_c, 1, 55, 127
2, 9280, Note_on_c, 1, 60, 127
2, 9280, Note_on_c, 1, 67, 127
2, 9280, Note_on_c, 1, 76, 127
2, 9280, Note_on_c, 1, 79, 127
2, 9400, Note_off_c, 1, 48, 0
2, 9400, Note_off_c, 1, 55, 0
2, 9400, Note_off_c, 1, 60, 0
2, 9400, Note_off_c, 1, 67, 0
2, 9400, Note_off_c, 1, 76, 0
2, 9400, Note_off_c, 1, 79, 0
2, 9440, Note_on_c, 1, 48, 127
2, 9440, Note_on_c, 1, 55, 127
2, 9440, Note_on_c, 1, 60, 127
2, 9440, Note_on_c, 1, 67, 127
2, 9440, Note_on_c, 1, 76, 127
2, 9440, Note_on_c, 1, 79, 127
2, 9560, Note_off_c, 1, 48, 0
2, 9560, Note_off_c, 1, 55, 0
2, 9560, Note_off_c, 1, 60, 0
2, 9560, Note_off_c, 1, 67, 0
2, 9560, Note_off_c, 1, 76, 0
2, 9560, Note_off_c, 1, 79, 0
2, 9600, Note_on_c, 1, 48, 127
2, 9600, Note_on_c, 1, 55, 127
2, 9600, Note_on_c, 1, 60, 127
2, 9600, Note_on_c, 1, 67, 127
2, 9600, Note_on_c, 1, 76, 127
2, 9600, Note_on_c, 1, 79, 127
2, 9720, Note_off_c, 1, 48, 0
2, 9720, Note_off_c, 1, 55, 0
2, 9720, Note_off_c, 1, 60, 0
2, 9720, Note_off_c, 1, 67, 0
2, 9720, Note_off_c, 1, 76, 0
2, 9720, Note_off_c, 1, 79, 0
2, 9760, Note_on_c, 1, 48, 127
2, 9760, Note_on_c, 1, 55, 127
2, 9760, Note_on_c, 1, 60, 127
2, 9760, Note_on_c, 1, 67, 127
2, 9760, Note_on_c, 1, 76, 127
2, 9760, Note_on_c, 1, 79, 127
2, 9880, Note_off_c, 1, 48, 0
2, 9880, Note_off_c, 1, 55, 0
2, 9880, Note_off_c, 1, 60, 0
2, 9880, Note_off_c, 1, 67, 0
2, 9880, Note_off_c, 1, 76, 0
2, 9880, Note_off_c, 1, 79, 0
2, 9920, Note_on_c, 1, 48, 127
2, 9920, Note_on_c, 1, 55, 127
2, 9920, Note_on_c, 1, 60, 127
2, 9920, Note_on_c, 1, 67, 127
2, 9920, Note_on_c, 1, 76, 127
2, 9920, Note_on_c, 1, 79, 127
2, 10040, Note_off_c, 1, 48, 0
2, 10040, Note_off_c, 1, 55, 0
2, 10040, Note_off_c, 1, 60, 0
2, 10040, Note_off_c, 1, 67, 0
2, 10040, Note_off_c, 1, 76, 0
2, 10040, Note_off_c, 1, 79, 0
2, 10080, Note_on_c, 1, 48, 127
2, 10080, Note_on_c, 1, 55, 127
2, 10080, Note_on_c, 1, 60, 127
2, 10080, Note_on_c, 1, 67, 127
2, 10080, Note_on_c, 1, 76, 127
2, 10080, Note_on_c, 1, 79, 127
2, 10200, Note_off_c, 1, 48, 0
2, 10200, Note_off_c, 1, 55, 0
2, 10200, Note_off_c, 1, 60, 0
2, 10200, Note_off_c, 1, 67, 0
2, 10200, Note_off_c, 1, 76, 0
2, 10200, Note_off_c, 1, 79, 0
2, 10240, Note_on_c, 1, 48, 127
2, 10240, Note_on_c, 1, 55, 127
2, 10240, Note_on_c, 1, 60, 127
2, 10240, Note_on_c, 1, 67, 127
2, 10240, Note_on_c, 1, 75, 127
2, 10240, Note_on_c, 1, 79, 127
2, 10320, Note_off_c, 1, 55, 0
2, 10320, Note_off_c, 1, 60, 0
2, 10320, Note_off_c, 1, 67, 0
2, 10320, Note_off_c, 1, 75, 0
2, 10320, Note_on_c, 1, 76, 127
2, 10320, Note_on_c, 1, 84, 127
2, 10360, Note_off_c, 1, 48, 0
2, 10360, Note_off_c, 1, 76, 0
2, 10360, Note_off_c, 1, 79, 0
2, 10360, Note_off_c, 1, 84, 0
2, 10400, Note_on_c, 1, 48, 127
2, 10400, Note_on_c, 1, 55, 127
2, 10400, Note_on_c, 1, 60, 127
2, 10400, Note_on_c, 1, 67, 127
2, 10400, Note_on_c, 1, 75, 127
2, 10400, Note_on_c, 1, 79, 127
2, 10520, Note_off_c, 1, 48, 0
2, 10520, Note_off_c, 1, 55, 0
2, 10520, Note_off_c, 1, 60, 0
2, 10520, Note_off_c, 1, 67, 0
2, 10520, Note_off_c, 1, 75, 0
2, 10520, Note_off_c, 1, 79, 0
2, 10560, Note_on_c, 1, 48, 127
2, 10560, Note_on_c, 1, 55, 127
2, 10560, Note_on_c, 1, 60, 127
2, 10560, Note_on_c, 1, 67, 127
2, 10560, Note_on_c, 1, 75, 127
2, 10560, Note_on_c, 1, 79, 127
2, 10600, Note_off_c, 1, 67, 0
2, 10600, Note_off_c, 1, 75, 0
2, 10600, Note_on_c, 1, 76, 127
2, 10600, Note_off_c, 1, 79, 0
2, 10640, Note_off_c, 1, 48, 0
2, 10640, Note_off_c, 1, 55, 0
2, 10640, Note_off_c, 1, 60, 0
2, 10640, Note_off_c, 1, 76, 0
2, 10720, Note_on_c, 1, 48, 127
2, 10720, Note_on_c, 1, 55, 127
2, 10720, Note_on_c, 1, 60, 127
2, 10720, Note_on_c, 1, 67, 127
2, 10720, Note_on_c, 1, 75, 127
2, 10720, Note_on_c, 1, 79, 127
2, 10760, Note_off_c, 1, 67, 0
2, 10760, Note_off_c, 1, 75, 0
2, 10760, Note_on_c, 1, 76, 127
2, 10760, Note_off_c, 1, 79, 0
2, 10800, Note_off_c, 1, 48, 0
2, 10800, Note_off_c, 1, 55, 0
2, 10800, Note_off_c, 1, 60, 0
2, 10800, Note_off_c, 1, 76, 0
2, 10880, Note_on_c, 1, 48, 127
2, 10880, Note_on_c, 1, 55, 127
2, 10880, Note_on_c, 1, 60, 127
2, 10880, Note_on_c, 1, 67, 127
2, 10880, Note_on_c, 1, 76, 127
2, 10880, Note_on_c, 1, 79, 127
2, 11000, Note_off_c, 1, 48, 0
2, 11000, Note_off_c, 1, 55, 0
2, 11000, Note_off_c, 1, 60, 0
2, 11000, Note_off_c, 1, 67, 0
2, 11000, Note_off_c, 1, 76, 0
2, 11000, Note_off_c, 1, 79, 0
2, 11040, Note_on_c, 1, 48, 127
2, 11040, Note_on_c, 1, 55, 127
2, 11040, Note_on_c, 1, 60, 127
2, 11040, Note_on_c, 1, 67, 127
2, 11040, Note_on_c, 1, 76, 127
2, 11040, Note_on_c, 1, 79, 127
2, 11160, Note_off_c, 1, 48, 0
2, 11160, Note_off_c, 1, 55, 0
2, 11160, Note_off_c, 1, 60, 0
2, 11160, Note_off_c, 1, 67, 0
2, 11160, Note_off_c, 1, 76, 0
2, 11160, Note_off_c, 1, 79, 0
2, 11200, Note_on_c, 1, 40, 127
2, 11200, Note_on_c, 1, 51, 127
2, 11200, Note_on_c, 1, 59, 127
2, 11200, Note_on_c, 1, 66, 127
2, 11200, Note_on_c, 1, 69, 127
2, 11280, Note_off_c, 1, 40, 0
2, 11280, Note_off_c, 1, 51, 0
2, 11280, Note_off_c, 1, 59, 0
2, 11280, Note_off_c, 1, 66, 0
2, 11280, Note_off_c, 1, 69, 0
2, 11400, Note_on_c, 1, 40, 127
2, 11400, Note_on_c, 1, 51, 127
2, 11400, Note_on_c, 1, 59, 127
2, 11400, Note_on_c, 1, 66, 127
2, 11400, Note_on_c, 1, 69, 127
2, 11480, Note_off_c, 1, 40, 0
2, 11480, Note_off_c, 1, 51, 0
2, 11480, Note_off_c, 1, 59, 0
2, 11480, Note_off_c, 1, 66, 0
2, 11480, Note_off_c, 1, 69, 0
2, 11560, Note_on_c, 1, 40, 127
2, 11560, Note_on_c, 1, 51, 127
2, 11560, Note_on_c, 1, 59, 127
2, 11560, Note_on_c, 1, 66, 127
2, 11560, Note_on_c, 1, 69, 127
2, 11640, Note_off_c, 1, 40, 0
2, 11640, Note_off_c, 1, 51, 0
2, 11640, Note_off_c, 1, 59, 0
2, 11640, Note_off_c, 1, 66, 0
2, 11640, Note_off_c, 1, 69, 0
2, 11720, Note_on_c, 1, 40, 127
2, 11720, Note_on_c, 1, 51, 127
2, 11720, Note_on_c, 1, 59, 127
2, 11720, Note_on_c, 1, 66, 127
2, 11720, Note_on_c, 1, 69, 127
2, 11800, Note_off_c, 1, 40, 0
2, 11800, Note_off_c, 1, 51, 0
2, 11800, Note_off_c, 1, 59, 0
2, 11800, Note_off_c, 1, 66, 0
2, 11800, Note_off_c, 1, 69, 0
2, 11880, Note_on_c, 1, 48, 127
2, 11880, Note_on_c, 1, 69, 127
2, 11880, Note_on_c, 1, 75, 127
2, 11880, Note_on_c, 1, 78, 127
2, 11960, Note_off_c, 1, 69, 0
2, 11960, Note_off_c, 1, 75, 0
2, 12000, Note_off_c, 1, 48, 0
2, 12000, Note_off_c, 1, 78, 0
2, 12040, Note_on_c, 1, 48, 127
2, 12040, Note_on_c, 1, 69, 127
2, 12040, Note_on_c, 1, 75, 127
2, 12040, Note_on_c, 1, 78, 127
2, 12160, Note_off_c, 1, 48, 0
2, 12160, Note_off_c, 1, 69, 0
2, 12160, Note_off_c, 1, 75, 0
2, 12160, Note_off_c, 1, 78, 0
2, 12200, Note_on_c, 1, 48, 127
2, 12200, Note_on_c, 1, 69, 127
2, 12200, Note_on_c, 1, 75, 127
2, 12200, Note_on_c, 1, 78, 127
2, 12320, Note_off_c, 1, 48, 0
2, 12320, Note_off_c, 1, 69, 0
2, 12320, Note_off_c, 1, 75, 0
2, 12320, Note_off_c, 1, 78, 0
2, 12400, Note_on_c, 1, 48, 127
2, 12400, Note_on_c, 1, 72, 127
2, 12400, Note_on_c, 1, 75, 127
2, 12400, Note_on_c, 1, 79, 127
2, 12480, Note_off_c, 1, 48, 0
2, 12480, Note_off_c, 1, 72, 0
2, 12480, Note_off_c, 1, 75, 0
2, 12480, Note_off_c, 1, 79, 0
2, 12560, Note_on_c, 1, 48, 127
2, 12560, Note_on_c, 1, 72, 127
2, 12560, Note_on_c, 1, 75, 127
2, 12560, Note_on_c, 1, 79, 127
2, 12680, Note_off_c, 1, 48, 0
2, 12680, Note_off_c, 1, 72, 0
2, 12680, Note_off_c, 1, 75, 0
2, 12680, Note_off_c, 1, 79, 0
2, 12720, Note_on_c, 1, 48, 127
2, 12720, Note_on_c, 1, 72, 127
2, 12720, Note_on_c, 1, 75, 127
2, 12720, Note_on_c, 1, 79, 127
2, 12840, Note_off_c, 1, 48, 0
2, 12840, Note_off_c, 1, 72, 0
2, 12840, Note_off_c, 1, 75, 0
2, 12840, Note_off_c, 1, 79, 0
2, 12880, Note_on_c, 1, 48, 127
2, 12880, Note_on_c, 1, 72, 127
2, 12880, Note_on_c, 1, 75, 127
2, 12880, Note_on_c, 1, 79, 127
2, 13000, Note_off_c, 1, 48, 0
2, 13000, Note_off_c, 1, 72, 0
2, 13000, Note_off_c, 1, 75, 0
2, 13000, Note_off_c, 1, 79, 0
2, 13040, Note_on_c, 1, 48, 127
2, 13040, Note_on_c, 1, 77, 127
2, 13040, Note_on_c, 1, 83, 127
2, 13040, Note_on_c, 1, 91, 127
2, 13080, Note_off_c, 1, 48, 0
2, 13080, Note_on_c, 1, 67, 127
2, 13080, Note_off_c, 1, 77, 0
2, 13080, Note_on_c, 1, 78, 127
2, 13080, Note_on_c, 1, 79, 127
2, 13080, Note_off_c, 1, 91, 0
2, 13120, Note_on_c, 1, 62, 127
2, 13120, Note_off_c, 1, 67, 0
2, 13120, Note_on_c, 1, 77, 127
2, 13120, Note_off_c, 1, 78, 0
2, 13120, Note_off_c, 1, 79, 0
2, 13120, Note_on_c, 1, 91, 127
2, 13160, Note_off_c, 1, 62, 0
2, 13160, Note_off_c, 1, 77, 0
2, 13160, Note_off_c, 1, 83, 0
2, 13160, Note_off_c, 1, 91, 0
2, 13200, Note_on_c, 1, 57, 127
2, 13200, Note_on_c, 1, 65, 127
2, 13200, Note_on_c, 1, 69, 127
2, 13200, Note_on_c, 1, 76, 127
2, 13360, Note_off_c, 1, 57, 0
2, 13360, Note_off_c, 1, 65, 0
2, 13360, Note_off_c, 1, 69, 0
2, 13360, Note_off_c, 1, 76, 0
2, 13400, Note_on_c, 1, 50, 127
2, 13400, Note_on_c, 1, 62, 127
2, 13400, Note_on_c, 1, 67, 127
2, 13400, Note_on_c, 1, 71, 127
2, 13520, Note_off_c, 1, 50, 0
2, 13520, Note_off_c, 1, 62, 0
2, 13520, Note_off_c, 1, 67, 0
2, 13520, Note_off_c, 1, 71, 0
2, 13640, Note_on_c, 1, 52, 127
2, 13640, Note_on_c, 1, 55, 127
2, 13640, Note_on_c, 1, 71, 127
2, 13640, Note_on_c, 1, 74, 127
2, 13640, Note_on_c, 1, 83, 127
2, 13680, Note_off_c, 1, 52, 0
2, 13680, Note_off_c, 1, 55, 0
2, 13680, Note_off_c, 1, 71, 0
2, 13680, Note_off_c, 1, 74, 0
2, 13680, Note_off_c, 1, 83, 0
2, 13760, Note_on_c, 1, 64, 127
2, 13760, Note_on_c, 1, 67, 127
2, 13760, Note_on_c, 1, 72, 127
2, 13760, Note_on_c, 1, 74, 127
2, 13760, Note_on_c, 1, 79, 127
2, 13760, Note_on_c, 1, 84, 127
2, 13760, Note_on_c, 1, 86, 127
2, 14040, Note_off_c, 1, 64, 0
2, 14040, Note_off_c, 1, 67, 0
2, 14040, Note_off_c, 1, 72, 0
2, 14040, Note_off_c, 1, 74, 0
2, 14040, Note_off_c, 1, 79, 0
2, 14040, Note_off_c, 1, 84, 0
2, 14040, Note_off_c, 1, 86, 0
2, 14080, Note_on_c, 1, 64, 127
2, 14080, Note_on_c, 1, 67, 127
2, 14080, Note_on_c, 1, 72, 127
2, 14080, Note_on_c, 1, 74, 127
2, 14080, Note_on_c, 1, 79, 127
2, 14080, Note_on_c, 1, 84, 127
2, 14080, Note_on_c, 1, 86, 127
2, 14400, Note_off_c, 1, 64, 0
2, 14400, Note_off_c, 1, 67, 0
2, 14400, Note_off_c, 1, 72, 0
2, 14400, Note_off_c, 1, 74, 0
2, 14400, Note_off_c, 1, 79, 0
2, 14400, Note_off_c, 1, 84, 0
2, 14400, Note_off_c, 1, 86, 0
2, 14440, Note_on_c, 1, 64, 127
2, 14440, Note_on_c, 1, 67, 127
2, 14440, Note_on_c, 1, 72, 127
2, 14440, Note_on_c, 1, 74, 127
2, 14440, Note_on_c, 1, 79, 127
2, 14440, Note_on_c, 1, 84, 127
2, 14440, Note_on_c, 1, 86, 127
2, 14720, Note_off_c, 1, 64, 0
2, 14720, Note_off_c, 1, 67, 0
2, 14720, Note_off_c, 1, 72, 0
2, 14720, Note_off_c, 1, 74, 0
2, 14720, Note_off_c, 1, 79, 0
2, 14720, Note_off_c, 1, 84, 0
2, 14720, Note_off_c, 1, 86, 0
2, 14760, Note_on_c, 1, 36, 127
2, 14760, Note_on_c, 1, 43, 127
2, 14760, Note_on_c, 1, 48, 127
2, 14760, Note_on_c, 1, 79, 127
2, 14760, Note_on_c, 1, 84, 127
2, 14760, Note_on_c, 1, 91, 127
2, 14800, Note_off_c, 1, 36, 0
2, 14800, Note_off_c, 1, 43, 0
2, 14800, Note_off_c, 1, 48, 0
2, 14800, Note_off_c, 1, 79, 0
2, 14800, Note_off_c, 1, 84, 0
2, 14800, Note_off_c, 1, 91, 0
2, 14920, Note_on_c, 1, 74, 127
2, 14920, Note_on_c, 1, 79, 127
2, 14920, Note_on_c, 1, 83, 127
2, 14920, Note_on_c, 1, 86, 127
2, 14920, Note_on_c, 1, 95, 127
2, 15040, Note_off_c, 1, 74, 0
2, 15040, Note_off_c, 1, 79, 0
2, 15040, Note_off_c, 1, 83, 0
2, 15040, Note_off_c, 1, 86, 0
2, 15040, Note_off_c, 1, 95, 0
2, 15080, Note_on_c, 1, 74, 127
2, 15080, Note_on_c, 1, 79, 127
2, 15080, Note_on_c, 1, 83, 127
2, 15080, Note_on_c, 1, 86, 127
2, 15080, Note_on_c, 1, 95, 127
2, 15200, Note_off_c, 1, 74, 0
2, 15200, Note_off_c, 1, 79, 0
2, 15200, Note_off_c, 1, 83, 0
2, 15200, Note_off_c, 1, 86, 0
2, 15200, Note_off_c, 1, 95, 0
2, 15280, Note_on_c, 1, 74, 127
2, 15280, Note_on_c, 1, 79, 127
2, 15280, Note_on_c, 1, 83, 127
2, 15280, Note_on_c, 1, 86, 127
2, 15280, Note_on_c, 1, 95, 127
2, 15400, Note_off_c, 1, 74, 0
2, 15400, Note_off_c, 1, 79, 0
2, 15400, Note_off_c, 1, 83, 0
2, 15400, Note_off_c, 1, 86, 0
2, 15400, Note_off_c, 1, 95, 0
2, 15440, Note_on_c, 1, 74, 127
2, 15440, Note_on_c, 1, 79, 127
2, 15440, Note_on_c, 1, 83, 127
2, 15440, Note_on_c, 1, 86, 127
2, 15440, Note_on_c, 1, 95, 127
2, 15560, Note_off_c, 1, 74, 0
2, 15560, Note_off_c, 1, 79, 0
2, 15560, Note_off_c, 1, 83, 0
2, 15560, Note_off_c, 1, 86, 0
2, 15560, Note_off_c, 1, 95, 0
2, 15600, Note_on_c, 1, 74, 127
2, 15600, Note_on_c, 1, 79, 127
2, 15600, Note_on_c, 1, 83, 127
2, 15600, Note_on_c, 1, 86, 127
2, 15600, Note_on_c, 1, 95, 127
2, 15640, Note_off_c, 1, 74, 0
2, 15640, Note_off_c, 1, 79, 0
2, 15640, Note_off_c, 1, 83, 0
2, 15640, Note_off_c, 1, 86, 0
2, 15640, Note_off_c, 1, 95, 0
2, 15840, Note_on_c, 1, 42, 127
2, 15840, Note_on_c, 1, 54, 127
2, 15840, Note_on_c, 1, 80, 127
2, 15840, Note_on_c, 1, 84, 127
2, 15840, Note_on_c, 1, 92, 127
2, 15960, Note_off_c, 1, 42, 0
2, 15960, Note_off_c, 1, 54, 0
2, 15960, Note_off_c, 1, 80, 0
2, 15960, Note_off_c, 1, 84, 0
2, 15960, Note_off_c, 1, 92, 0
2, 16160, Note_on_c, 1, 43, 127
2, 16160, Note_on_c, 1, 55, 127
2, 16160, Note_on_c, 1, 71, 127
2, 16160, Note_on_c, 1, 74, 127
2, 16160, Note_on_c, 1, 77, 127
2, 16160, Note_on_c, 1, 83, 127
2, 16200, Note_on_c, 1, 39, 127
2, 16200, Note_off_c, 1, 43, 0
2, 16200, Note_on_c, 1, 51, 127
2, 16200, Note_off_c, 1, 55, 0
2, 16200, Note_on_c, 1, 59, 127
2, 16200, Note_on_c, 1, 63, 127
2, 16200, Note_on_c, 1, 70, 127
2, 16200, Note_off_c, 1, 71, 0
2, 16200, Note_off_c, 1, 74, 0
2, 16200, Note_off_c, 1, 77, 0
2, 16200, Note_off_c, 1, 83, 0
2, 16280, Note_off_c, 1, 39, 0
2, 16280, Note_off_c, 1, 51, 0
2, 16280, Note_off_c, 1, 59, 0
2, 16280, Note_off_c, 1, 63, 0
2, 16280, Note_off_c, 1, 70, 0
2, 16520, Note_on_c, 1, 63, 127
2, 16520, Note_on_c, 1, 67, 127
2, 16520, Note_on_c, 1, 69, 127
2, 16520, Note_on_c, 1, 72, 127
2, 16520, Note_on_c, 1, 79, 127
2, 16640, Note_off_c, 1, 63, 0
2, 16640, Note_off_c, 1, 67, 0
2, 16640, Note_off_c, 1, 69, 0
2, 16640, Note_off_c, 1, 72, 0
2, 16640, Note_off_c, 1, 79, 0
2, 16680, Note_on_c, 1, 62, 127
2, 16680, Note_on_c, 1, 67, 127
2, 16680, Note_on_c, 1, 70, 127
2, 16680, Note_on_c, 1, 74, 127
2, 16680, Note_on_c, 1, 79, 127
2, 17400, Note_off_c, 1, 62, 0
2, 17400, Note_off_c, 1, 67, 0
2, 17400, Note_off_c, 1, 70, 0
2, 17400, Note_off_c, 1, 74, 0
2, 17400, Note_off_c, 1, 79, 0
2, 17440, Note_on_c, 1, 62, 127
2, 17440, Note_on_c, 1, 67, 127
2, 17440, Note_on_c, 1, 70, 127
2, 17440, Note_on_c, 1, 74, 127
2, 17440, Note_on_c, 1, 79, 127
2, 17600, Note_off_c, 1, 67, 0
2, 17600, Note_off_c, 1, 79, 0
2, 17640, Note_on_c, 1, 65, 127
2, 17640, Note_on_c, 1, 77, 127
2, 17760, Note_off_c, 1, 62, 0
2, 17760, Note_off_c, 1, 65, 0
2, 17760, Note_off_c, 1, 70, 0
2, 17760, Note_off_c, 1, 74, 0
2, 17760, Note_off_c, 1, 77, 0
2, 17800, Note_on_c, 1, 51, 127
2, 17800, Note_on_c, 1, 58, 127
2, 17800, Note_on_c, 1, 63, 127
2, 17800, Note_on_c, 1, 70, 127
2, 17800, Note_on_c, 1, 75, 127
2, 17800, Note_on_c, 1, 79, 127
2, 17920, Note_on_c, 1, 67, 127
2, 17920, Note_off_c, 1, 70, 0
2, 17920, Note_off_c, 1, 75, 0
2, 17920, Note_off_c, 1, 79, 0
2, 18080, Note_off_c, 1, 51, 0
2, 18080, Note_off_c, 1, 58, 0
2, 18080, Note_off_c, 1, 63, 0
2, 18080, Note_off_c, 1, 67, 0
2, 18120, Note_on_c, 1, 46, 127
2, 18120, Note_on_c, 1, 62, 127
2, 18120, Note_on_c, 1, 65, 127
2, 18120, Note_on_c, 1, 70, 127
2, 18240, Note_off_c, 1, 46, 0
2, 18240, Note_on_c, 1, 58, 127
2, 18240, Note_off_c, 1, 70, 0
2, 18280, Note_on_c, 1, 72, 127
2, 18400, Note_off_c, 1, 58, 0
2, 18400, Note_off_c, 1, 62, 0
2, 18400, Note_off_c, 1, 65, 0
2, 18400, Note_off_c, 1, 72, 0
2, 18440, Note_on_c, 1, 46, 127
2, 18440, Note_on_c, 1, 62, 127
2, 18440, Note_on_c, 1, 65, 127
2, 18440, Note_on_c, 1, 74, 127
2, 18760, Note_off_c, 1, 46, 0
2, 18760, Note_off_c, 1, 62, 0
2, 18760, Note_off_c, 1, 65, 0
2, 18760, Note_off_c, 1, 74, 0
2, 18800, Note_on_c, 1, 46, 127
2, 18800, Note_on_c, 1, 51, 127
2, 18800, Note_on_c, 1, 60, 127
2, 18800, Note_on_c, 1, 65, 127
2, 18800, Note_on_c, 1, 72, 127
2, 18960, Note_off_c, 1, 51, 0
2, 18960, Note_on_c, 1, 53, 127
2, 19080, Note_off_c, 1, 46, 0
2, 19080, Note_off_c, 1, 53, 0
2, 19080, Note_off_c, 1, 60, 0
2, 19080, Note_off_c, 1, 65, 0
2, 19080, Note_off_c, 1, 72, 0
2, 19120, Note_on_c, 1, 72, 127
2, 19120, Note_on_c, 1, 75, 127
2, 19120, Note_on_c, 1, 81, 127
2, 19400, Note_off_c, 1, 72, 0
2, 19400, Note_off_c, 1, 75, 0
2, 19400, Note_off_c, 1, 81, 0
2, 19440, Note_on_c, 1, 53, 127
2, 19440, Note_on_c, 1, 66, 127
2, 19440, Note_on_c, 1, 69, 127
2, 19440, Note_on_c, 1, 72, 127
2, 19440, Note_on_c, 1, 74, 127
2, 19600, Note_off_c, 1, 53, 0
2, 19600, Note_off_c, 1, 66, 0
2, 19600, Note_off_c, 1, 69, 0
2, 19600, Note_off_c, 1, 72, 0
2, 19600, Note_off_c, 1, 74, 0
2, 19640, Note_on_c, 1, 53, 127
2, 19640, Note_on_c, 1, 66, 127
2, 19640, Note_on_c, 1, 69, 127
2, 19640, Note_on_c, 1, 72, 127
2, 19640, Note_on_c, 1, 74, 127
2, 19920, Note_off_c, 1, 53, 0
2, 19920, Note_off_c, 1, 66, 0
2, 19920, Note_off_c, 1, 69, 0
2, 19920, Note_off_c, 1, 72, 0
2, 19920, Note_off_c, 1, 74, 0
2, 19960, Note_on_c, 1, 44, 127
2, 19960, Note_on_c, 1, 66, 127
2, 19960, Note_on_c, 1, 72, 127
2, 19960, Note_on_c, 1, 75, 127
2, 20240, Note_off_c, 1, 44, 0
2, 20240, Note_off_c, 1, 66, 0
2, 20240, Note_off_c, 1, 72, 0
2, 20240, Note_off_c, 1, 75, 0
2, 20320, Note_on_c, 1, 57, 127
2, 20320, Note_on_c, 1, 66, 127
2, 20320, Note_on_c, 1, 72, 127
2, 20320, Note_on_c, 1, 75, 127
2, 20520, Note_off_c, 1, 57, 0
2, 20520, Note_off_c, 1, 66, 0
2, 20520, Note_off_c, 1, 72, 0
2, 20520, Note_off_c, 1, 75, 0
2, 20600, Note_on_c, 1, 57, 127
2, 20600, Note_on_c, 1, 66, 127
2, 20600, Note_on_c, 1, 72, 127
2, 20600, Note_on_c, 1, 75, 127
2, 20880, Note_off_c, 1, 57, 0
2, 20880, Note_off_c, 1, 66, 0
2, 20880, Note_off_c, 1, 72, 0
2, 20880, Note_off_c, 1, 75, 0
2, 20920, Note_on_c, 1, 57, 127
2, 20920, Note_on_c, 1, 66, 127
2, 20920, Note_on_c, 1, 72, 127
2, 20920, Note_on_c, 1, 75, 127
2, 21160, Note_off_c, 1, 57, 0
2, 21160, Note_off_c, 1, 66, 0
2, 21160, Note_off_c, 1, 72, 0
2, 21160, Note_off_c, 1, 75, 0
2, 21240, Note_on_c, 1, 57, 127
2, 21240, Note_on_c, 1, 66, 127
2, 21240, Note_on_c, 1, 72, 127
2, 21240, Note_on_c, 1, 75, 127
2, 21520, Note_off_c, 1, 57, 0
2, 21520, Note_off_c, 1, 66, 0
2, 21520, Note_off_c, 1, 72, 0
2, 21520, Note_off_c, 1, 75, 0
2, 21640, Note_on_c, 1, 57, 127
2, 21640, Note_on_c, 1, 66, 127
2, 21640, Note_on_c, 1, 72, 127
2, 21640, Note_on_c, 1, 75, 127
2, 21880, Note_off_c, 1, 57, 0
2, 21880, Note_off_c, 1, 66, 0
2, 21880, Note_off_c, 1, 72, 0
2, 21880, Note_off_c, 1, 75, 0
2, 21960, Note_on_c, 1, 57, 127
2, 21960, Note_on_c, 1, 66, 127
2, 21960, Note_on_c, 1, 72, 127
2, 21960, Note_on_c, 1, 75, 127
2, 22560, Note_off_c, 1, 57, 0
2, 22560, Note_off_c, 1, 66, 0
2, 22560, Note_off_c, 1, 72, 0
2, 22560, Note_off_c, 1, 75, 0
2, 22600, Note_on_c, 1, 57, 127
2, 22600, Note_on_c, 1, 66, 127
2, 22600, Note_on_c, 1, 72, 127
2, 22600, Note_on_c, 1, 75, 127
2, 22880, Note_off_c, 1, 57, 0
2, 22880, Note_off_c, 1, 66, 0
2, 22880, Note_off_c, 1, 72, 0
2, 22880, Note_off_c, 1, 75, 0
2, 22920, Note_on_c, 1, 57, 127
2, 22920, Note_on_c, 1, 66, 127
2, 22920, Note_on_c, 1, 72, 127
2, 22920, Note_on_c, 1, 75, 127
2, 23560, Note_off_c, 1, 57, 0
2, 23560, Note_off_c, 1, 66, 0
2, 23560, Note_off_c, 1, 72, 0
2, 23560, Note_off_c, 1, 75, 0
2, 23680, Note_on_c, 1, 57, 127
2, 23680, Note_on_c, 1, 66, 127
2, 23680, Note_on_c, 1, 72, 127
2, 23680, Note_on_c, 1, 75, 127
2, 23760, Note_off_c, 1, 57, 0
2, 23760, Note_off_c, 1, 66, 0
2, 23760, Note_off_c, 1, 72, 0
2, 23760, Note_off_c, 1, 75, 0
2, 23800, Note_on_c, 1, 57, 127
2, 23800, Note_on_c, 1, 66, 127
2, 23800, Note_on_c, 1, 72, 127
2, 23800, Note_on_c, 1, 75, 127
2, 23920, Note_off_c, 1, 57, 0
2, 23920, Note_off_c, 1, 66, 0
2, 23920, Note_off_c, 1, 72, 0
2, 23920, Note_off_c, 1, 75, 0
2, 23960, Note_on_c, 1, 58, 127
2, 23960, Note_on_c, 1, 65, 127
2, 23960, Note_on_c, 1, 73, 127
2, 24240, Note_off_c, 1, 58, 0
2, 24240, Note_off_c, 1, 65, 0
2, 24240, Note_off_c, 1, 73, 0
2, 24280, Note_on_c, 1, 57, 127
2, 24280, Note_on_c, 1, 65, 127
2, 24280, Note_on_c, 1, 74, 127
2, 24560, Note_off_c, 1, 65, 0
2, 24560, Note_off_c, 1, 74, 0
2, 24600, Note_on_c, 1, 55, 127
2, 24600, Note_off_c, 1, 57, 0
2, 24600, Note_on_c, 1, 76, 127
2, 24600, Note_on_c, 1, 79, 127
2, 24760, Note_off_c, 1, 76, 0
2, 24760, Note_off_c, 1, 79, 0
2, 24800, Note_on_c, 1, 58, 127
2, 24800, Note_on_c, 1, 61, 127
2, 24800, Note_on_c, 1, 76, 127
2, 24920, Note_off_c, 1, 55, 0
2, 24920, Note_off_c, 1, 58, 0
2, 24920, Note_off_c, 1, 61, 0
2, 24920, Note_off_c, 1, 76, 0
2, 24960, Note_on_c, 1, 55, 127
2, 24960, Note_on_c, 1, 58, 127
2, 24960, Note_on_c, 1, 61, 127
2, 24960, Note_on_c, 1, 76, 127
2, 25000, Note_off_c, 1, 76, 0
2, 25000, Note_on_c, 1, 78, 127
2, 25040, Note_on_c, 1, 76, 127
2, 25040, Note_off_c, 1, 78, 0
2, 25560, Note_off_c, 1, 55, 0
2, 25560, Note_off_c, 1, 58, 0
2, 25560, Note_off_c, 1, 61, 0
2, 25560, Note_off_c, 1, 76, 0
2, 25600, Note_on_c, 1, 53, 127
2, 25600, Note_on_c, 1, 57, 127
2, 25600, Note_on_c, 1, 62, 127
2, 25800, Note_off_c, 1, 53, 0
2, 25800, Note_off_c, 1, 57, 0
2, 25800, Note_off_c, 1, 62, 0
2, 25840, Note_on_c, 1, 53, 127
2, 25840, Note_on_c, 1, 57, 127
2, 25840, Note_on_c, 1, 62, 127
2, 26040, Note_off_c, 1, 53, 0
2, 26040, Note_off_c, 1, 57, 0
2, 26040, Note_off_c, 1, 62, 0
2, 26320, Note_on_c, 1, 39, 127
2, 26320, Note_on_c, 1, 51, 127
2, 26320, Note_on_c, 1, 63, 127
2, 26320, Note_on_c, 1, 71, 127
2, 26320, Note_on_c, 1, 75, 127
2, 26360, Note_off_c, 1, 39, 0
2, 26360, Note_on_c, 1, 50, 127
2, 26360, Note_off_c, 1, 51, 0
2, 26360, Note_on_c, 1, 58, 127
2, 26360, Note_on_c, 1, 62, 127
2, 26360, Note_off_c, 1, 63, 0
2, 26360, Note_on_c, 1, 67, 127
2, 26360, Note_on_c, 1, 70, 127
2, 26360, Note_off_c, 1, 71, 0
2, 26360, Note_on_c, 1, 74, 127
2, 26360, Note_off_c, 1, 75, 0
2, 26400, Note_off_c, 1, 50, 0
2, 26400, Note_off_c, 1, 58, 0
2, 26400, Note_off_c, 1, 62, 0
2, 26400, Note_off_c, 1, 67, 0
2, 26400, Note_off_c, 1, 70, 0
2, 26400, Note_off_c, 1, 74, 0
2, 26480, Note_on_c, 1, 50, 127
2, 26480, Note_on_c, 1, 58, 127
2, 26480, Note_on_c, 1, 62, 127
2, 26480, Note_on_c, 1, 67, 127
2, 26480, Note_on_c, 1, 70, 127
2, 26480, Note_on_c, 1, 74, 127
2, 27040, Note_off_c, 1, 50, 0
2, 27040, Note_off_c, 1, 58, 0
2, 27040, Note_off_c, 1, 62, 0
2, 27040, Note_off_c, 1, 67, 0
2, 27040, Note_off_c, 1, 70, 0
2, 27040, Note_off_c, 1, 74, 0
2, 27720, Note_on_c, 1, 29, 127
2, 27720, Note_on_c, 1, 54, 127
2, 27840, Note_off_c, 1, 54, 0
2, 27880, Note_off_c, 1, 29, 0
2, 27920, Note_on_c, 1, 29, 127
2, 27920, Note_on_c, 1, 63, 127
2, 28160, Note_on_c, 1, 60, 127
2, 28160, Note_off_c, 1, 63, 0
2, 28200, Note_off_c, 1, 60, 0
2, 28200, Note_on_c, 1, 63, 127
2, 28240, Note_on_c, 1, 60, 127
2, 28240, Note_off_c, 1, 63, 0
2, 28280, Note_off_c, 1, 60, 0
2, 28280, Note_on_c, 1, 63, 127
2, 28320, Note_on_c, 1, 60, 127
2, 28320, Note_off_c, 1, 63, 0
2, 28360, Note_off_c, 1, 60, 0
2, 28360, Note_on_c, 1, 63, 127
2, 28400, Note_on_c, 1, 60, 127
2, 28400, Note_off_c, 1, 63, 0
2, 28440, Note_off_c, 1, 60, 0
2, 28440, Note_on_c, 1, 63, 127
2, 28480, Note_on_c, 1, 60, 127
2, 28480, Note_off_c, 1, 63, 0
2, 28520, Note_on_c, 1, 57, 127
2, 28520, Note_off_c, 1, 60, 0
2, 28560, Note_off_c, 1, 57, 0
2, 28560, Note_on_c, 1, 60, 127
2, 28600, Note_off_c, 1, 60, 0
2, 28600, Note_on_c, 1, 63, 127
2, 28640, Note_on_c, 1, 60, 127
2, 28640, Note_off_c, 1, 63, 0
2, 28680, Note_off_c, 1, 60, 0
2, 28680, Note_on_c, 1, 63, 127
2, 28720, Note_on_c, 1, 60, 127
2, 28720, Note_off_c, 1, 63, 0
2, 28760, Note_off_c, 1, 60, 0
2, 28800, Note_off_c, 1, 29, 0
2, 28800, Note_on_c, 1, 39, 127
2, 28800, Note_on_c, 1, 46, 127
2, 28800, Note_on_c, 1, 51, 127
2, 28800, Note_on_c, 1, 75, 127
2, 28840, Note_on_c, 1, 29, 127
2, 28840, Note_off_c, 1, 39, 0
2, 28840, Note_off_c, 1, 46, 0
2, 28840, Note_off_c, 1, 51, 0
2, 28840, Note_on_c, 1, 54, 127
2, 28840, Note_off_c, 1, 75, 0
2, 28960, Note_off_c, 1, 54, 0
2, 28960, Note_on_c, 1, 63, 127
2, 29000, Note_on_c, 1, 60, 127
2, 29000, Note_off_c, 1, 63, 0
2, 29040, Note_on_c, 1, 54, 127
2, 29040, Note_off_c, 1, 60, 0
2, 29080, Note_off_c, 1, 29, 0
2, 29080, Note_on_c, 1, 41, 127
2, 29080, Note_off_c, 1, 54, 0
2, 29120, Note_on_c, 1, 30, 127
2, 29120, Note_off_c, 1, 41, 0
2, 29120, Note_on_c, 1, 58, 127
2, 29160, Note_off_c, 1, 58, 0
2, 29160, Note_on_c, 1, 61, 127
2, 29200, Note_on_c, 1, 29, 127
2, 29200, Note_off_c, 1, 30, 0
2, 29200, Note_off_c, 1, 61, 0
2, 29240, Note_off_c, 1, 29, 0
2, 29240, Note_on_c, 1, 30, 127
2, 29240, Note_on_c, 1, 58, 127
2, 29280, Note_off_c, 1, 58, 0
2, 29280, Note_on_c, 1, 61, 127
2, 29320, Note_on_c, 1, 58, 127
2, 29320, Note_off_c, 1, 61, 0
2, 29360, Note_on_c, 1, 54, 127
2, 29360, Note_off_c, 1, 58, 0
2, 29400, Note_off_c, 1, 54, 0
2, 29400, Note_on_c, 1, 58, 127
2, 29440, Note_off_c, 1, 30, 0
2, 29440, Note_on_c, 1, 41, 127
2, 29440, Note_on_c, 1, 53, 127
2, 29440, Note_on_c, 1, 57, 127
2, 29440, Note_off_c, 1, 58, 0
2, 29440, Note_on_c, 1, 62, 127
2, 29480, Note_on_c, 1, 30, 127
2, 29480, Note_off_c, 1, 41, 0
2, 29480, Note_off_c, 1, 53, 0
2, 29480, Note_off_c, 1, 57, 0
2, 29480, Note_on_c, 1, 58, 127
2, 29480, Note_off_c, 1, 62, 0
2, 29520, Note_off_c, 1, 30, 0
2, 29520, Note_on_c, 1, 31, 127
2, 29520, Note_off_c, 1, 58, 0
2, 29520, Note_on_c, 1, 59, 127
2, 29560, Note_on_c, 1, 29, 127
2, 29560, Note_off_c, 1, 31, 0
2, 29560, Note_on_c, 1, 57, 127
2, 29560, Note_off_c, 1, 59, 0
2, 29600, Note_on_c, 1, 53, 127
2, 29600, Note_off_c, 1, 57, 0
2, 29640, Note_off_c, 1, 53, 0
2, 29640, Note_on_c, 1, 63, 127
2, 29680, Note_on_c, 1, 54, 127
2, 29680, Note_off_c, 1, 63, 0
2, 29720, Note_off_c, 1, 54, 0
2, 29720, Note_on_c, 1, 63, 127
2, 29760, Note_on_c, 1, 60, 127
2, 29760, Note_off_c, 1, 63, 0
2, 29800, Note_off_c, 1, 60, 0
2, 29840, Note_on_c, 1, 57, 127
2, 29880, Note_off_c, 1, 57, 0
2, 29880, Note_on_c, 1, 60, 127
2, 29960, Note_on_c, 1, 57, 127
2, 29960, Note_off_c, 1, 60, 0
2, 30040, Note_off_c, 1, 57, 0
2, 30040, Note_on_c, 1, 60, 127
2, 30080, Note_off_c, 1, 60, 0
2, 30080, Note_on_c, 1, 63, 127
2, 30120, Note_on_c, 1, 60, 127
2, 30120, Note_off_c, 1, 63, 0
2, 30160, Note_off_c, 1, 60, 0
2, 30160, Note_on_c, 1, 63, 127
2, 30200, Note_on_c, 1, 60, 127
2, 30200, Note_off_c, 1, 63, 0
2, 30240, Note_on_c, 1, 57, 127
2, 30240, Note_off_c, 1, 60, 0
2, 30280, Note_on_c, 1, 54, 127
2, 30280, Note_off_c, 1, 57, 0
2, 30320, Note_off_c, 1, 54, 0
2, 30320, Note_on_c, 1, 60, 127
2, 30360, Note_on_c, 1, 57, 127
2, 30360, Note_off_c, 1, 60, 0
2, 30400, Note_off_c, 1, 29, 0
2, 30400, Note_off_c, 1, 57, 0
2, 30440, Note_on_c, 1, 29, 127
2, 30440, Note_on_c, 1, 57, 127
2, 30520, Note_off_c, 1, 57, 0
2, 30520, Note_on_c, 1, 60, 127
2, 30560, Note_on_c, 1, 57, 127
2, 30560, Note_off_c, 1, 60, 0
2, 30600, Note_off_c, 1, 57, 0
2, 30600, Note_on_c, 1, 60, 127
2, 30640, Note_off_c, 1, 60, 0
2, 30640, Note_on_c, 1, 63, 127
2, 30680, Note_on_c, 1, 60, 127
2, 30680, Note_off_c, 1, 63, 0
2, 30760, Note_on_c, 1, 57, 127
2, 30760, Note_off_c, 1, 60, 0
2, 30800, Note_off_c, 1, 57, 0
2, 30800, Note_on_c, 1, 63, 127
2, 30840, Note_on_c, 1, 60, 127
2, 30840, Note_off_c, 1, 63, 0
2, 30880, Note_on_c, 1, 57, 127
2, 30880, Note_off_c, 1, 60, 0
2, 30920, Note_off_c, 1, 57, 0
2, 30920, Note_on_c, 1, 60, 127
2, 30960, Note_off_c, 1, 60, 0
2, 31000, Note_on_c, 1, 57, 127
2, 31000, Note_on_c, 1, 60, 127
2, 31120, Note_off_c, 1, 29, 0
2, 31120, Note_on_c, 1, 41, 127
2, 31120, Note_on_c, 1, 48, 127
2, 31120, Note_on_c, 1, 53, 127
2, 31120, Note_off_c, 1, 57, 0
2, 31120, Note_off_c, 1, 60, 0
2, 31160, Note_on_c, 1, 29, 127
2, 31160, Note_off_c, 1, 41, 0
2, 31160, Note_off_c, 1, 48, 0
2, 31160, Note_off_c, 1, 53, 0
2, 31160, Note_on_c, 1, 57, 127
2, 31160, Note_on_c, 1, 60, 127
2, 31240, Note_off_c, 1, 29, 0
2, 31240, Note_on_c, 1, 41, 127
2, 31280, Note_on_c, 1, 29, 127
2, 31280, Note_off_c, 1, 41, 0
2, 31320, Note_off_c, 1, 29, 0
2, 31320, Note_on_c, 1, 41, 127
2, 31360, Note_on_c, 1, 29, 127
2, 31360, Note_off_c, 1, 41, 0
2, 31400, Note_off_c, 1, 29, 0
2, 31400, Note_on_c, 1, 41, 127
2, 31440, Note_on_c, 1, 29, 127
2, 31440, Note_off_c, 1, 41, 0
2, 31480, Note_off_c, 1, 29, 0
2, 31480, Note_on_c, 1, 41, 127
2, 31520, Note_on_c, 1, 29, 127
2, 31520, Note_off_c, 1, 41, 0
2, 31560, Note_off_c, 1, 29, 0
2, 31560, Note_on_c, 1, 48, 127
2, 31560, Note_off_c, 1, 57, 0
2, 31560, Note_off_c, 1, 60, 0
2, 31600, Note_on_c, 1, 45, 127
2, 31600, Note_off_c, 1, 48, 0
2, 31600, Note_on_c, 1, 60, 127
2, 31600, Note_on_c, 1, 67, 127
2, 31800, Note_on_c, 1, 65, 127
2, 31800, Note_off_c, 1, 67, 0
2, 31840, Note_on_c, 1, 57, 127
2, 31840, Note_off_c, 1, 60, 0
2, 31880, Note_off_c, 1, 57, 0
2, 31880, Note_on_c, 1, 60, 127
2, 31880, Note_off_c, 1, 65, 0
2, 31880, Note_on_c, 1, 67, 127
2, 32000, Note_off_c, 1, 60, 0
2, 32000, Note_on_c, 1, 63, 127
2, 32000, Note_off_c, 1, 67, 0
2, 32040, Note_on_c, 1, 54, 127
2, 32120, Note_off_c, 1, 54, 0
2, 32160, Note_on_c, 1, 54, 127
2, 32200, Note_off_c, 1, 54, 0
2, 32240, Note_on_c, 1, 54, 127
2, 32280, Note_off_c, 1, 54, 0
2, 32320, Note_on_c, 1, 54, 127
2, 32360, Note_off_c, 1, 54, 0
2, 32440, Note_on_c, 1, 41, 127
2, 32440, Note_off_c, 1, 45, 0
2, 32440, Note_on_c, 1, 48, 127
2, 32440, Note_on_c, 1, 53, 127
2, 32440, Note_on_c, 1, 60, 127
2, 32440, Note_off_c, 1, 63, 0
2, 32560, Note_off_c, 1, 41, 0
2, 32560, Note_on_c, 1, 45, 127
2, 32560, Note_off_c, 1, 48, 0
2, 32560, Note_off_c, 1, 53, 0
2, 32560, Note_on_c, 1, 54, 127
2, 32560, Note_off_c, 1, 60, 0
2, 32560, Note_on_c, 1, 63, 127
2, 32600, Note_off_c, 1, 45, 0
2, 32600, Note_off_c, 1, 54, 0
2, 32600, Note_on_c, 1, 57, 127
2, 32600, Note_off_c, 1, 63, 0
2, 32600, Note_on_c, 1, 73, 127
2, 32640, Note_off_c, 1, 57, 0
2, 32640, Note_off_c, 1, 73, 0
2, 32680, Note_on_c, 1, 53, 127
2, 32680, Note_on_c, 1, 60, 127
2, 32680, Note_on_c, 1, 67, 127
2, 32680, Note_on_c, 1, 79, 127
2, 32720, Note_off_c, 1, 53, 0
2, 32720, Note_off_c, 1, 60, 0
2, 32720, Note_on_c, 1, 65, 127
2, 32720, Note_off_c, 1, 67, 0
2, 32720, Note_off_c, 1, 79, 0
2, 32760, Note_on_c, 1, 46, 127
2, 32760, Note_on_c, 1, 63, 127
2, 32760, Note_off_c, 1, 65, 0
2, 32840, Note_on_c, 1, 62, 127
2, 32840, Note_off_c, 1, 63, 0
2, 33120, Note_off_c, 1, 46, 0
2, 33160, Note_on_c, 1, 41, 127
2, 33160, Note_off_c, 1, 62, 0
2, 33160, Note_on_c, 1, 65, 127
2, 33280, Note_off_c, 1, 41, 0
2, 33280, Note_off_c, 1, 65, 0
2, 33400, Note_on_c, 1, 60, 127
2, 33440, Note_on_c, 1, 58, 127
2, 33440, Note_off_c, 1, 60, 0
2, 33480, Note_off_c, 1, 58, 0
2, 33480, Note_on_c, 1, 60, 127
2, 33480, Note_on_c, 1, 63, 127
2, 33640, Note_off_c, 1, 60, 0
2, 33640, Note_off_c, 1, 63, 0
2, 33720, Note_on_c, 1, 46, 127
2, 33720, Note_on_c, 1, 58, 127
2, 33720, Note_on_c, 1, 62, 127
2, 33760, Note_off_c, 1, 46, 0
2, 33760, Note_on_c, 1, 55, 127
2, 33760, Note_on_c, 1, 77, 127
2, 33800, Note_off_c, 1, 77, 0
2, 33840, Note_on_c, 1, 45, 127
2, 33840, Note_on_c, 1, 53, 127
2, 33840, Note_off_c, 1, 55, 0
2, 34040, Note_off_c, 1, 45, 0
2, 34040, Note_off_c, 1, 53, 0
2, 34040, Note_on_c, 1, 55, 127
2, 34040, Note_off_c, 1, 58, 0
2, 34040, Note_on_c, 1, 61, 127
2, 34040, Note_off_c, 1, 62, 0
2, 34040, Note_on_c, 1, 64, 127
2, 34080, Note_on_c, 1, 43, 127
2, 34080, Note_on_c, 1, 58, 127
2, 34080, Note_off_c, 1, 61, 0
2, 34080, Note_on_c, 1, 62, 127
2, 34080, Note_off_c, 1, 64, 0
2, 34120, Note_off_c, 1, 43, 0
2, 34120, Note_off_c, 1, 55, 0
2, 34120, Note_off_c, 1, 58, 0
2, 34120, Note_off_c, 1, 62, 0
2, 34160, Note_on_c, 1, 48, 127
2, 34160, Note_on_c, 1, 55, 127
2, 34440, Note_on_c, 1, 60, 127
2, 34480, Note_off_c, 1, 60, 0
2, 34520, Note_on_c, 1, 67, 127
2, 34560, Note_off_c, 1, 48, 0
2, 34560, Note_off_c, 1, 55, 0
2, 34560, Note_off_c, 1, 67, 0
2, 34840, Note_on_c, 1, 45, 127
2, 34840, Note_on_c, 1, 57, 127
2, 34840, Note_on_c, 1, 73, 127
2, 34840, Note_on_c, 1, 79, 127
2, 35200, Note_off_c, 1, 45, 0
2, 35200, Note_off_c, 1, 57, 0
2, 35200, Note_off_c, 1, 73, 0
2, 35200, Note_off_c, 1, 79, 0
2, 35280, Note_on_c, 1, 33, 127
2, 35280, Note_on_c, 1, 45, 127
2, 35280, Note_on_c, 1, 49, 127
2, 35320, Note_off_c, 1, 33, 0
2, 35320, Note_off_c, 1, 45, 0
2, 35320, Note_off_c, 1, 49, 0
2, 36160, Note_on_c, 1, 34, 127
2, 36160, Note_on_c, 1, 46, 127
2, 36160, Note_on_c, 1, 58, 127
2, 36200, Note_off_c, 1, 34, 0
2, 36200, Note_on_c, 1, 38, 127
2, 36200, Note_off_c, 1, 46, 0
2, 36200, Note_on_c, 1, 50, 127
2, 36200, Note_off_c, 1, 58, 0
2, 36200, Note_on_c, 1, 62, 127
2, 36840, Note_off_c, 1, 38, 0
2, 36840, Note_off_c, 1, 50, 0
2, 36840, Note_off_c, 1, 62, 0
2, 36880, Note_on_c, 1, 44, 127
2, 36880, Note_on_c, 1, 48, 127
2, 36880, Note_on_c, 1, 51, 127
2, 36880, Note_on_c, 1, 56, 127
2, 36880, Note_on_c, 1, 92, 127
2, 36880, Note_on_c, 1, 96, 127
2, 36880, Note_on_c, 1, 99, 127
2, 36880, Note_on_c, 1, 104, 127
2, 36920, Note_off_c, 1, 44, 0
2, 36920, Note_off_c, 1, 48, 0
2, 36920, Note_off_c, 1, 51, 0
2, 36920, Note_off_c, 1, 56, 0
2, 36920, Note_off_c, 1, 92, 0
2, 36920, Note_off_c, 1, 96, 0
2, 36920, Note_off_c, 1, 99, 0
2, 36920, Note_off_c, 1, 104, 0
2, 38080, Note_on_c, 1, 54, 127
2, 38080, Note_on_c, 1, 66, 127
2, 38360, Note_off_c, 1, 54, 0
2, 38360, Note_off_c, 1, 66, 0
2, 38400, Note_on_c, 1, 51, 127
2, 38400, Note_on_c, 1, 63, 127
2, 38400, Note_on_c, 1, 75, 127
2, 38640, Note_off_c, 1, 51, 0
2, 38640, Note_off_c, 1, 63, 0
2, 38640, Note_off_c, 1, 75, 0
2, 38680, Note_on_c, 1, 52, 127
2, 38680, Note_on_c, 1, 64, 127
2, 38680, Note_on_c, 1, 76, 127
2, 38960, Note_off_c, 1, 52, 0
2, 38960, Note_off_c, 1, 64, 0
2, 38960, Note_off_c, 1, 76, 0
2, 39000, Note_on_c, 1, 51, 127
2, 39000, Note_on_c, 1, 63, 127
2, 39000, Note_on_c, 1, 75, 127
2, 39240, Note_off_c, 1, 51, 0
2, 39240, Note_off_c, 1, 63, 0
2, 39240, Note_off_c, 1, 75, 0
2, 39280, Note_on_c, 1, 52, 127
2, 39280, Note_on_c, 1, 64, 127
2, 39280, Note_on_c, 1, 76, 127
2, 39400, Note_off_c, 1, 52, 0
2, 39400, Note_off_c, 1, 64, 0
2, 39400, Note_off_c, 1, 76, 0
2, 39440, Note_on_c, 1, 51, 127
2, 39440, Note_on_c, 1, 63, 127
2, 39440, Note_on_c, 1, 75, 127
2, 39560, Note_off_c, 1, 51, 0
2, 39560, Note_off_c, 1, 63, 0
2, 39560, Note_off_c, 1, 75, 0
2, 39600, Note_on_c, 1, 52, 127
2, 39600, Note_on_c, 1, 64, 127
2, 39600, Note_on_c, 1, 76, 127
2, 39840, Note_off_c, 1, 52, 0
2, 39840, Note_off_c, 1, 64, 0
2, 39840, Note_off_c, 1, 76, 0
2, 39880, Note_on_c, 1, 54, 127
2, 39880, Note_on_c, 1, 66, 127
2, 39880, Note_on_c, 1, 78, 127
2, 40000, Note_off_c, 1, 54, 0
2, 40000, Note_off_c, 1, 66, 0
2, 40000, Note_off_c, 1, 78, 0
2, 40040, Note_on_c, 1, 55, 127
2, 40040, Note_on_c, 1, 67, 127
2, 40040, Note_on_c, 1, 79, 127
2, 40080, Note_off_c, 1, 79, 0
2, 40120, Note_on_c, 1, 79, 127
2, 40160, Note_off_c, 1, 55, 0
2, 40160, Note_off_c, 1, 67, 0
2, 40160, Note_off_c, 1, 79, 0
2, 40240, Note_on_c, 1, 54, 127
2, 40240, Note_on_c, 1, 66, 127
2, 40240, Note_on_c, 1, 78, 127
2, 40320, Note_off_c, 1, 54, 0
2, 40320, Note_off_c, 1, 66, 0
2, 40320, Note_off_c, 1, 78, 0
2, 40360, Note_on_c, 1, 54, 127
2, 40360, Note_on_c, 1, 66, 127
2, 40480, Note_off_c, 1, 54, 0
2, 40480, Note_off_c, 1, 66, 0
2, 40520, Note_on_c, 1, 51, 127
2, 40520, Note_on_c, 1, 63, 127
2, 40640, Note_off_c, 1, 51, 0
2, 40640, Note_off_c, 1, 63, 0
2, 40680, Note_on_c, 1, 54, 127
2, 40680, Note_on_c, 1, 66, 127
2, 40800, Note_off_c, 1, 54, 0
2, 40800, Note_off_c, 1, 66, 0
2, 40840, Note_on_c, 1, 59, 127
2, 40840, Note_on_c, 1, 71, 127
2, 40960, Note_off_c, 1, 59, 0
2, 40960, Note_off_c, 1, 71, 0
2, 41000, Note_on_c, 1, 52, 127
2, 41000, Note_on_c, 1, 64, 127
2, 41080, Note_off_c, 1, 52, 0
2, 41080, Note_off_c, 1, 64, 0
2, 41160, Note_on_c, 1, 52, 127
2, 41160, Note_on_c, 1, 64, 127
2, 41240, Note_off_c, 1, 52, 0
2, 41240, Note_off_c, 1, 64, 0
2, 41440, Note_on_c, 1, 43, 127
2, 41440, Note_on_c, 1, 55, 127
2, 41440, Note_on_c, 1, 67, 127
2, 42040, Note_off_c, 1, 43, 0
2, 42040, Note_off_c, 1, 55, 0
2, 42040, Note_off_c, 1, 67, 0
2, 42120, Note_on_c, 1, 47, 127
2, 42120, Note_on_c, 1, 59, 127
2, 42120, Note_on_c, 1, 71, 127
2, 42400, Note_off_c, 1, 47, 0
2, 42400, Note_off_c, 1, 59, 0
2, 42400, Note_off_c, 1, 71, 0
2, 42440, Note_on_c, 1, 39, 127
2, 42440, Note_on_c, 1, 51, 127
2, 42440, Note_on_c, 1, 63, 127
2, 42440, Note_on_c, 1, 75, 127
2, 42760, Note_off_c, 1, 39, 0
2, 42760, Note_off_c, 1, 51, 0
2, 42760, Note_off_c, 1, 63, 0
2, 42760, Note_off_c, 1, 75, 0
2, 42800, Note_on_c, 1, 42, 127
2, 42800, Note_on_c, 1, 54, 127
2, 42800, Note_on_c, 1, 66, 127
2, 42800, Note_on_c, 1, 78, 127
2, 43040, Note_off_c, 1, 42, 0
2, 43040, Note_off_c, 1, 54, 0
2, 43040, Note_off_c, 1, 66, 0
2, 43040, Note_off_c, 1, 78, 0
2, 43080, Note_on_c, 1, 43, 127
2, 43080, Note_on_c, 1, 55, 127
2, 43080, Note_on_c, 1, 67, 127
2, 43080, Note_on_c, 1, 79, 127
2, 43120, Note_off_c, 1, 43, 0
2, 43120, Note_off_c, 1, 55, 0
2, 43120, Note_off_c, 1, 67, 0
2, 43120, Note_off_c, 1, 79, 0
2, 43160, Note_on_c, 1, 42, 127
2, 43160, Note_on_c, 1, 54, 127
2, 43160, Note_on_c, 1, 66, 127
2, 43160, Note_on_c, 1, 78, 127
2, 43200, Note_off_c, 1, 42, 0
2, 43200, Note_off_c, 1, 54, 0
2, 43200, Note_off_c, 1, 66, 0
2, 43200, Note_off_c, 1, 78, 0
2, 43240, Note_on_c, 1, 42, 127
2, 43240, Note_on_c, 1, 54, 127
2, 43240, Note_on_c, 1, 66, 127
2, 43240, Note_on_c, 1, 78, 127
2, 43280, Note_off_c, 1, 42, 0
2, 43280, Note_off_c, 1, 54, 0
2, 43280, Note_off_c, 1, 66, 0
2, 43280, Note_off_c, 1, 78, 0
2, 43320, Note_on_c, 1, 35, 127
2, 43320, Note_on_c, 1, 47, 127
2, 43320, Note_on_c, 1, 59, 127
2, 43320, Note_on_c, 1, 71, 127
2, 43360, Note_off_c, 1, 35, 0
2, 43360, Note_off_c, 1, 47, 0
2, 43360, Note_off_c, 1, 59, 0
2, 43360, Note_off_c, 1, 71, 0
2, 43440, Note_on_c, 1, 55, 127
2, 43440, Note_on_c, 1, 67, 127
2, 43440, Note_on_c, 1, 79, 127
2, 43440, Note_on_c, 1, 91, 127
2, 43480, Note_off_c, 1, 55, 0
2, 43480, Note_off_c, 1, 67, 0
2, 43480, Note_off_c, 1, 79, 0
2, 43480, Note_off_c, 1, 91, 0
2, 43520, Note_on_c, 1, 54, 127
2, 43520, Note_on_c, 1, 66, 127
2, 43520, Note_on_c, 1, 78, 127
2, 43520, Note_on_c, 1, 90, 127
2, 43680, Note_off_c, 1, 54, 0
2, 43680, Note_off_c, 1, 66, 0
2, 43680, Note_off_c, 1, 78, 0
2, 43680, Note_off_c, 1, 90, 0
2, 43720, Note_on_c, 1, 52, 127
2, 43720, Note_on_c, 1, 64, 127
2, 43720, Note_on_c, 1, 76, 127
2, 43720, Note_on_c, 1, 88, 127
2, 43840, Note_off_c, 1, 52, 0
2, 43840, Note_off_c, 1, 64, 0
2, 43840, Note_off_c, 1, 76, 0
2, 43840, Note_off_c, 1, 88, 0
2, 43880, Note_on_c, 1, 49, 127
2, 43880, Note_on_c, 1, 61, 127
2, 43880, Note_on_c, 1, 73, 127
2, 43880, Note_on_c, 1, 85, 127
2, 44000, Note_off_c, 1, 49, 0
2, 44000, Note_off_c, 1, 61, 0
2, 44000, Note_off_c, 1, 73, 0
2, 44000, Note_off_c, 1, 85, 0
2, 44040, Note_on_c, 1, 47, 127
2, 44040, Note_on_c, 1, 59, 127
2, 44040, Note_on_c, 1, 71, 127
2, 44040, Note_on_c, 1, 83, 127
2, 44200, Note_off_c, 1, 47, 0
2, 44200, Note_off_c, 1, 59, 0
2, 44200, Note_off_c, 1, 71, 0
2, 44200, Note_off_c, 1, 83, 0
2, 44280, Note_on_c, 1, 46, 127
2, 44280, Note_on_c, 1, 58, 127
2, 44280, Note_on_c, 1, 70, 127
2, 44280, Note_on_c, 1, 82, 127
2, 44400, Note_off_c, 1, 46, 0
2, 44400, Note_off_c, 1, 58, 0
2, 44400, Note_off_c, 1, 70, 0
2, 44400, Note_off_c, 1, 82, 0
2, 44440, Note_on_c, 1, 42, 127
2, 44440, Note_on_c, 1, 54, 127
2, 44440, Note_on_c, 1, 66, 127
2, 44440, Note_on_c, 1, 78, 127
2, 44560, Note_off_c, 1, 42, 0
2, 44560, Note_off_c, 1, 54, 0
2, 44560, Note_off_c, 1, 66, 0
2, 44560, Note_off_c, 1, 78, 0
2, 44600, Note_on_c, 1, 44, 127
2, 44600, Note_on_c, 1, 56, 127
2, 44600, Note_on_c, 1, 68, 127
2, 44600, Note_on_c, 1, 80, 127
2, 44720, Note_off_c, 1, 44, 0
2, 44720, Note_off_c, 1, 56, 0
2, 44720, Note_off_c, 1, 68, 0
2, 44720, Note_off_c, 1, 80, 0
2, 44760, Note_on_c, 1, 42, 127
2, 44760, Note_on_c, 1, 54, 127
2, 44760, Note_on_c, 1, 66, 127
2, 44760, Note_on_c, 1, 78, 127
2, 45080, Note_off_c, 1, 42, 0
2, 45080, Note_off_c, 1, 54, 0
2, 45080, Note_off_c, 1, 66, 0
2, 45080, Note_off_c, 1, 78, 0
2, 45400, Note_on_c, 1, 72, 127
2, 45400, Note_on_c, 1, 79, 127
2, 45400, Note_on_c, 1, 84, 127
2, 45400, Note_on_c, 1, 91, 127
2, 45400, Note_on_c, 1, 96, 127
2, 45840, Note_off_c, 1, 72, 0
2, 45840, Note_off_c, 1, 79, 0
2, 45840, Note_off_c, 1, 84, 0
2, 45840, Note_off_c, 1, 91, 0
2, 45840, Note_off_c, 1, 96, 0
2, 46720, Note_on_c, 1, 42, 127
2, 46720, Note_on_c, 1, 49, 127
2, 46720, Note_on_c, 1, 58, 127
2, 46720, Note_on_c, 1, 61, 127
2, 46720, Note_on_c, 1, 66, 127
2, 46880, Note_off_c, 1, 58, 0
2, 46880, Note_off_c, 1, 61, 0
2, 46960, Note_off_c, 1, 42, 0
2, 46960, Note_off_c, 1, 49, 0
2, 46960, Note_off_c, 1, 66, 0
2, 47000, Note_on_c, 1, 37, 127
2, 47000, Note_on_c, 1, 44, 127
2, 47000, Note_on_c, 1, 49, 127
2, 47000, Note_on_c, 1, 53, 127
2, 47000, Note_on_c, 1, 56, 127
2, 47000, Note_on_c, 1, 61, 127
2, 48520, Note_off_c, 1, 37, 0
2, 48520, Note_off_c, 1, 44, 0
2, 48520, Note_off_c, 1, 49, 0
2, 48520, Note_off_c, 1, 53, 0
2, 48520, Note_off_c, 1, 56, 0
2, 48520, Note_off_c, 1, 61, 0
2, 48560, Note_on_c, 1, 37, 127
2, 48560, Note_on_c, 1, 44, 127
2, 48560, Note_on_c, 1, 49, 127
2, 48560, Note_on_c, 1, 53, 127
2, 48560, Note_on_c, 1, 56, 127
2, 48560, Note_on_c, 1, 61, 127
2, 48800, Note_off_c, 1, 37, 0
2, 48800, Note_off_c, 1, 44, 0
2, 48800, Note_off_c, 1, 49, 0
2, 48800, Note_off_c, 1, 53, 0
2, 48800, Note_off_c, 1, 56, 0
2, 48800, Note_off_c, 1, 61, 0
2, 49800, Note_on_c, 1, 31, 127
2, 49800, Note_on_c, 1, 43, 127
2, 49800, Note_on_c, 1, 55, 127
2, 49800, Note_on_c, 1, 67, 127
2, 50040, Note_off_c, 1, 31, 0
2, 50040, Note_off_c, 1, 43, 0
2, 50040, Note_off_c, 1, 55, 0
2, 50040, Note_off_c, 1, 67, 0
2, 50120, Note_on_c, 1, 39, 127
2, 50120, Note_on_c, 1, 51, 127
2, 50120, Note_on_c, 1, 67, 127
2, 50360, Note_off_c, 1, 39, 0
2, 50360, Note_off_c, 1, 51, 0
2, 50360, Note_off_c, 1, 67, 0
2, 50400, Note_on_c, 1, 43, 127
2, 50400, Note_on_c, 1, 55, 127
2, 50400, Note_on_c, 1, 67, 127
2, 50680, Note_off_c, 1, 43, 0
2, 50680, Note_off_c, 1, 55, 0
2, 50680, Note_off_c, 1, 67, 0
2, 50720, Note_on_c, 1, 49, 127
2, 50720, Note_on_c, 1, 61, 127
2, 50720, Note_on_c, 1, 73, 127
2, 50960, Note_off_c, 1, 49, 0
2, 50960, Note_off_c, 1, 61, 0
2, 50960, Note_off_c, 1, 73, 0
2, 51000, Note_on_c, 1, 47, 127
2, 51000, Note_on_c, 1, 59, 127
2, 51000, Note_on_c, 1, 71, 127
2, 51200, Note_off_c, 1, 47, 0
2, 51200, Note_off_c, 1, 59, 0
2, 51200, Note_off_c, 1, 71, 0
2, 51240, Note_on_c, 1, 43, 127
2, 51240, Note_on_c, 1, 55, 127
2, 51240, Note_on_c, 1, 67, 127
2, 51520, Note_off_c, 1, 43, 0
2, 51520, Note_off_c, 1, 55, 0
2, 51520, Note_off_c, 1, 67, 0
2, 51560, Note_on_c, 1, 43, 127
2, 51560, Note_on_c, 1, 55, 127
2, 51560, Note_on_c, 1, 67, 127
2, 53600, Note_off_c, 1, 43, 0
2, 53600, Note_off_c, 1, 55, 0
2, 53600, Note_off_c, 1, 67, 0
2, 53640, Note_on_c, 1, 43, 127
2, 53640, Note_on_c, 1, 55, 127
2, 53640, Note_on_c, 1, 67, 127
2, 55760, Note_off_c, 1, 43, 0
2, 55760, Note_off_c, 1, 55, 0
2, 55760, Note_off_c, 1, 67, 0
2, 55840, Note_on_c, 1, 43, 127
2, 55840, Note_on_c, 1, 55, 127
2, 55840, Note_on_c, 1, 67, 127
2, 58040, Note_off_c, 1, 43, 0
2, 58040, Note_off_c, 1, 55, 0
2, 58040, Note_off_c, 1, 67, 0
2, 58080, Note_on_c, 1, 43, 127
2, 58080, Note_on_c, 1, 55, 127
2, 58080, Note_on_c, 1, 67, 127
2, 59560, Note_off_c, 1, 43, 0
2, 59560, Note_on_c, 1, 44, 127
2, 60120, Note_off_c, 1, 44, 0
2, 60120, Note_off_c, 1, 55, 0
2, 60120, Note_off_c, 1, 67, 0
2, 64440, Note_on_c, 1, 49, 127
2, 64440, Note_on_c, 1, 57, 127
2, 64440, Note_on_c, 1, 69, 127
2, 64600, Note_off_c, 1, 49, 0
2, 64600, Note_off_c, 1, 57, 0
2, 64600, Note_off_c, 1, 69, 0
2, 64640, Note_on_c, 1, 49, 127
2, 64640, Note_on_c, 1, 57, 127
2, 64640, Note_on_c, 1, 69, 127
2, 64720, Note_off_c, 1, 49, 0
2, 64720, Note_off_c, 1, 57, 0
2, 64720, Note_off_c, 1, 69, 0
2, 64760, Note_on_c, 1, 49, 127
2, 64760, Note_on_c, 1, 64, 127
2, 64760, Note_on_c, 1, 69, 127
2, 65000, Note_off_c, 1, 49, 0
2, 65000, Note_off_c, 1, 64, 0
2, 65000, Note_off_c, 1, 69, 0
2, 65040, Note_on_c, 1, 42, 127
2, 65040, Note_on_c, 1, 66, 127
2, 65040, Note_on_c, 1, 69, 127
2, 65080, Note_off_c, 1, 42, 0
2, 65080, Note_off_c, 1, 66, 0
2, 65080, Note_off_c, 1, 69, 0
2, 65320, Note_on_c, 1, 50, 127
2, 65320, Note_on_c, 1, 66, 127
2, 65320, Note_on_c, 1, 69, 127
2, 65560, Note_off_c, 1, 50, 0
2, 65560, Note_off_c, 1, 66, 0
2, 65560, Note_off_c, 1, 69, 0
2, 65600, Note_on_c, 1, 53, 127
2, 65600, Note_on_c, 1, 63, 127
2, 65600, Note_on_c, 1, 72, 127
2, 65840, Note_off_c, 1, 53, 0
2, 65840, Note_off_c, 1, 63, 0
2, 65840, Note_off_c, 1, 72, 0
2, 65880, Note_on_c, 1, 46, 127
2, 65880, Note_on_c, 1, 61, 127
2, 65880, Note_on_c, 1, 70, 127
2, 66040, Note_off_c, 1, 46, 0
2, 66040, Note_off_c, 1, 61, 0
2, 66040, Note_off_c, 1, 70, 0
2, 66160, Note_on_c, 1, 55, 127
2, 66160, Note_on_c, 1, 59, 127
2, 66160, Note_on_c, 1, 67, 127
2, 66160, Note_on_c, 1, 76, 127
2, 66360, Note_off_c, 1, 55, 0
2, 66360, Note_off_c, 1, 59, 0
2, 66360, Note_off_c, 1, 67, 0
2, 66360, Note_off_c, 1, 76, 0
2, 66400, Note_on_c, 1, 55, 127
2, 66400, Note_on_c, 1, 59, 127
2, 66400, Note_on_c, 1, 67, 127
2, 66400, Note_on_c, 1, 76, 127
2, 66440, Note_off_c, 1, 55, 0
2, 66440, Note_off_c, 1, 59, 0
2, 66440, Note_off_c, 1, 67, 0
2, 66440, Note_off_c, 1, 76, 0
2, 66480, Note_on_c, 1, 55, 127
2, 66480, Note_on_c, 1, 65, 127
2, 66480, Note_on_c, 1, 71, 127
2, 66480, Note_on_c, 1, 74, 127
2, 66720, Note_off_c, 1, 55, 0
2, 66720, Note_off_c, 1, 65, 0
2, 66720, Note_off_c, 1, 71, 0
2, 66720, Note_off_c, 1, 74, 0
2, 66760, Note_on_c, 1, 60, 127
2, 66760, Note_on_c, 1, 64, 127
2, 66760, Note_on_c, 1, 72, 127
2, 66880, Note_off_c, 1, 60, 0
2, 66880, Note_off_c, 1, 64, 0
2, 66880, Note_off_c, 1, 72, 0
2, 67200, Note_on_c, 1, 52, 127
2, 68720, Note_off_c, 1, 52, 0
2, 68760, Note_on_c, 1, 52, 127
2, 69200, Note_off_c, 1, 52, 0
2, 70400, Note_on_c, 1, 68, 127
2, 70680, Note_off_c, 1, 68, 0
2, 70720, Note_on_c, 1, 70, 127
2, 71280, Note_off_c, 1, 70, 0
2, 71320, Note_on_c, 1, 68, 127
2, 71600, Note_off_c, 1, 68, 0
2, 71640, Note_on_c, 1, 33, 127
2, 71640, Note_on_c, 1, 45, 127
2, 71640, Note_on_c, 1, 60, 127
2, 71640, Note_on_c, 1, 67, 127
2, 71640, Note_on_c, 1, 72, 127
2, 71920, Note_off_c, 1, 33, 0
2, 71920, Note_off_c, 1, 45, 0
2, 71920, Note_off_c, 1, 60, 0
2, 71920, Note_off_c, 1, 67, 0
2, 71920, Note_off_c, 1, 72, 0
2, 72000, Note_on_c, 1, 40, 127
2, 72000, Note_on_c, 1, 56, 127
2, 72000, Note_on_c, 1, 61, 127
2, 72600, Note_off_c, 1, 40, 0
2, 72600, Note_on_c, 1, 52, 127
2, 72600, Note_off_c, 1, 56, 0
2, 72640, Note_on_c, 1, 49, 127
2, 72640, Note_off_c, 1, 52, 0
2, 72640, Note_on_c, 1, 53, 127
2, 72640, Note_on_c, 1, 56, 127
2, 72640, Note_on_c, 1, 65, 127
2, 72640, Note_on_c, 1, 68, 127
2, 72640, Note_on_c, 1, 73, 127
2, 72920, Note_off_c, 1, 49, 0
2, 72920, Note_off_c, 1, 53, 0
2, 72920, Note_off_c, 1, 56, 0
2, 72920, Note_off_c, 1, 61, 0
2, 72920, Note_off_c, 1, 65, 0
2, 72920, Note_off_c, 1, 68, 0
2, 72920, Note_off_c, 1, 73, 0
2, 73280, Note_on_c, 1, 61, 127
2, 73280, Note_on_c, 1, 68, 127
2, 73280, Note_on_c, 1, 77, 127
2, 73280, Note_on_c, 1, 83, 127
2, 73520, Note_off_c, 1, 61, 0
2, 73520, Note_off_c, 1, 68, 0
2, 73520, Note_off_c, 1, 77, 0
2, 73520, Note_off_c, 1, 83, 0
2, 73600, Note_on_c, 1, 61, 127
2, 73600, Note_on_c, 1, 68, 127
2, 73600, Note_on_c, 1, 77, 127
2, 73600, Note_on_c, 1, 83, 127
2, 73840, Note_off_c, 1, 61, 0
2, 73840, Note_off_c, 1, 68, 0
2, 73840, Note_off_c, 1, 77, 0
2, 73840, Note_off_c, 1, 83, 0
2, 73920, Note_on_c, 1, 61, 127
2, 73920, Note_on_c, 1, 68, 127
2, 73920, Note_on_c, 1, 77, 127
2, 73920, Note_on_c, 1, 83, 127
2, 73960, Note_off_c, 1, 61, 0
2, 73960, Note_off_c, 1, 68, 0
2, 73960, Note_off_c, 1, 77, 0
2, 73960, Note_off_c, 1, 83, 0
2, 74040, Note_on_c, 1, 61, 127
2, 74040, Note_on_c, 1, 68, 127
2, 74040, Note_on_c, 1, 77, 127
2, 74040, Note_on_c, 1, 83, 127
2, 74080, Note_off_c, 1, 61, 0
2, 74080, Note_off_c, 1, 68, 0
2, 74080, Note_off_c, 1, 77, 0
2, 74080, Note_off_c, 1, 83, 0
2, 74200, Note_on_c, 1, 61, 127
2, 74200, Note_on_c, 1, 68, 127
2, 74200, Note_on_c, 1, 77, 127
2, 74200, Note_on_c, 1, 83, 127
2, 74320, Note_off_c, 1, 61, 0
2, 74320, Note_off_c, 1, 68, 0
2, 74320, Note_off_c, 1, 77, 0
2, 74320, Note_off_c, 1, 83, 0
2, 74360, Note_on_c, 1, 61, 127
2, 74360, Note_on_c, 1, 68, 127
2, 74360, Note_on_c, 1, 77, 127
2, 74360, Note_on_c, 1, 83, 127
2, 74480, Note_off_c, 1, 61, 0
2, 74480, Note_off_c, 1, 68, 0
2, 74480, Note_off_c, 1, 77, 0
2, 74480, Note_off_c, 1, 83, 0
2, 74560, Note_on_c, 1, 61, 127
2, 74560, Note_on_c, 1, 68, 127
2, 74560, Note_on_c, 1, 77, 127
2, 74560, Note_on_c, 1, 83, 127
2, 74800, Note_off_c, 1, 61, 0
2, 74800, Note_off_c, 1, 68, 0
2, 74800, Note_off_c, 1, 77, 0
2, 74800, Note_off_c, 1, 83, 0
2, 74840, Note_on_c, 1, 61, 127
2, 74840, Note_on_c, 1, 68, 127
2, 74840, Note_on_c, 1, 77, 127
2, 74840, Note_on_c, 1, 83, 127
2, 75000, Note_off_c, 1, 83, 0
2, 75000, Note_on_c, 1, 85, 127
2, 75040, Note_on_c, 1, 83, 127
2, 75040, Note_off_c, 1, 85, 0
2, 75080, Note_off_c, 1, 61, 0
2, 75080, Note_off_c, 1, 68, 0
2, 75080, Note_off_c, 1, 77, 0
2, 75080, Note_off_c, 1, 83, 0
2, 75160, Note_on_c, 1, 61, 127
2, 75160, Note_on_c, 1, 68, 127
2, 75160, Note_on_c, 1, 77, 127
2, 75160, Note_on_c, 1, 83, 127
2, 75400, Note_off_c, 1, 61, 0
2, 75400, Note_off_c, 1, 68, 0
2, 75400, Note_off_c, 1, 77, 0
2, 75400, Note_off_c, 1, 83, 0
2, 75480, Note_on_c, 1, 61, 127
2, 75480, Note_on_c, 1, 68, 127
2, 75480, Note_on_c, 1, 77, 127
2, 75480, Note_on_c, 1, 83, 127
2, 75680, Note_off_c, 1, 61, 0
2, 75680, Note_off_c, 1, 68, 0
2, 75680, Note_off_c, 1, 77, 0
2, 75680, Note_off_c, 1, 83, 0
2, 75760, Note_on_c, 1, 61, 127
2, 75760, Note_on_c, 1, 68, 127
2, 75760, Note_on_c, 1, 77, 127
2, 75760, Note_on_c, 1, 83, 127
2, 76040, Note_off_c, 1, 61, 0
2, 76040, Note_off_c, 1, 68, 0
2, 76040, Note_off_c, 1, 77, 0
2, 76040, Note_off_c, 1, 83, 0
2, 76080, Note_on_c, 1, 61, 127
2, 76080, Note_on_c, 1, 68, 127
2, 76080, Note_on_c, 1, 77, 127
2, 76080, Note_on_c, 1, 83, 127
2, 76280, Note_off_c, 1, 61, 0
2, 76280, Note_off_c, 1, 68, 0
2, 76280, Note_off_c, 1, 77, 0
2, 76280, Note_off_c, 1, 83, 0
2, 76320, Note_on_c, 1, 61, 127
2, 76320, Note_on_c, 1, 68, 127
2, 76320, Note_on_c, 1, 77, 127
2, 76320, Note_on_c, 1, 83, 127
2, 76360, Note_off_c, 1, 61, 0
2, 76360, Note_off_c, 1, 68, 0
2, 76360, Note_off_c, 1, 77, 0
2, 76360, Note_off_c, 1, 83, 0
2, 76440, Note_on_c, 1, 61, 127
2, 76440, Note_on_c, 1, 68, 127
2, 76440, Note_on_c, 1, 77, 127
2, 76440, Note_on_c, 1, 83, 127
2, 76680, Note_off_c, 1, 61, 0
2, 76680, Note_off_c, 1, 68, 0
2, 76680, Note_off_c, 1, 77, 0
2, 76680, Note_off_c, 1, 83, 0
2, 76720, Note_on_c, 1, 61, 127
2, 76720, Note_on_c, 1, 68, 127
2, 76720, Note_on_c, 1, 77, 127
2, 76720, Note_on_c, 1, 83, 127
2, 76960, Note_off_c, 1, 61, 0
2, 76960, Note_off_c, 1, 68, 0
2, 76960, Note_off_c, 1, 77, 0
2, 76960, Note_off_c, 1, 83, 0
2, 77040, Note_on_c, 1, 61, 127
2, 77040, Note_on_c, 1, 68, 127
2, 77040, Note_on_c, 1, 77, 127
2, 77040, Note_on_c, 1, 83, 127
2, 77280, Note_off_c, 1, 61, 0
2, 77280, Note_off_c, 1, 68, 0
2, 77280, Note_off_c, 1, 77, 0
2, 77280, Note_off_c, 1, 83, 0
2, 77360, Note_on_c, 1, 61, 127
2, 77360, Note_on_c, 1, 68, 127
2, 77360, Note_on_c, 1, 77, 127
2, 77360, Note_on_c, 1, 83, 127
2, 77600, Note_off_c, 1, 61, 0
2, 77600, Note_off_c, 1, 68, 0
2, 77600, Note_off_c, 1, 77, 0
2, 77600, Note_off_c, 1, 83, 0
2, 77640, Note_on_c, 1, 38, 127
2, 77640, Note_on_c, 1, 50, 127
2, 77640, Note_on_c, 1, 59, 127
2, 77640, Note_on_c, 1, 62, 127
2, 77640, Note_on_c, 1, 67, 127
2, 77640, Note_on_c, 1, 71, 127
2, 77680, Note_off_c, 1, 38, 0
2, 77680, Note_off_c, 1, 50, 0
2, 77680, Note_off_c, 1, 59, 0
2, 77680, Note_off_c, 1, 62, 0
2, 77680, Note_off_c, 1, 67, 0
2, 77680, Note_off_c, 1, 71, 0
2, 77800, Note_on_c, 1, 41, 127
2, 77800, Note_on_c, 1, 53, 127
2, 77800, Note_on_c, 1, 68, 127
2, 77800, Note_on_c, 1, 73, 127
2, 77800, Note_on_c, 1, 80, 127
2, 77840, Note_off_c, 1, 41, 0
2, 77840, Note_off_c, 1, 53, 0
2, 77840, Note_off_c, 1, 68, 0
2, 77840, Note_off_c, 1, 73, 0
2, 77840, Note_off_c, 1, 80, 0
2, 77960, Note_on_c, 1, 42, 127
2, 77960, Note_on_c, 1, 49, 127
2, 77960, Note_on_c, 1, 54, 127
2, 77960, Note_on_c, 1, 70, 127
2, 77960, Note_on_c, 1, 73, 127
2, 77960, Note_on_c, 1, 82, 127
2, 78080, Note_off_c, 1, 42, 0
2, 78080, Note_off_c, 1, 49, 0
2, 78080, Note_off_c, 1, 54, 0
2, 78080, Note_off_c, 1, 70, 0
2, 78080, Note_off_c, 1, 73, 0
2, 78080, Note_off_c, 1, 82, 0
2, 78120, Note_on_c, 1, 42, 127
2, 78120, Note_on_c, 1, 49, 127
2, 78120, Note_on_c, 1, 54, 127
2, 78120, Note_on_c, 1, 70, 127
2, 78120, Note_on_c, 1, 73, 127
2, 78120, Note_on_c, 1, 82, 127
2, 78200, Note_off_c, 1, 42, 0
2, 78200, Note_off_c, 1, 49, 0
2, 78200, Note_off_c, 1, 54, 0
2, 78200, Note_off_c, 1, 70, 0
2, 78200, Note_off_c, 1, 73, 0
2, 78200, Note_off_c, 1, 82, 0
2, 78320, Note_on_c, 1, 42, 127
2, 78320, Note_on_c, 1, 49, 127
2, 78320, Note_on_c, 1, 54, 127
2, 78320, Note_on_c, 1, 70, 127
2, 78320, Note_on_c, 1, 73, 127
2, 78320, Note_on_c, 1, 82, 127
2, 78520, Note_off_c, 1, 42, 0
2, 78520, Note_off_c, 1, 49, 0
2, 78520, Note_off_c, 1, 54, 0
2, 78520, Note_off_c, 1, 70, 0
2, 78520, Note_off_c, 1, 73, 0
2, 78520, Note_off_c, 1, 82, 0
2, 78640, Note_on_c, 1, 42, 127
2, 78640, Note_on_c, 1, 49, 127
2, 78640, Note_on_c, 1, 54, 127
2, 78640, Note_on_c, 1, 70, 127
2, 78640, Note_on_c, 1, 73, 127
2, 78640, Note_on_c, 1, 82, 127
2, 78880, Note_off_c, 1, 42, 0
2, 78880, Note_off_c, 1, 49, 0
2, 78880, Note_off_c, 1, 54, 0
2, 78880, Note_off_c, 1, 70, 0
2, 78880, Note_off_c, 1, 73, 0
2, 78880, Note_off_c, 1, 82, 0
2, 78960, Note_on_c, 1, 42, 127
2, 78960, Note_on_c, 1, 49, 127
2, 78960, Note_on_c, 1, 54, 127
2, 78960, Note_on_c, 1, 70, 127
2, 78960, Note_on_c, 1, 73, 127
2, 78960, Note_on_c, 1, 82, 127
2, 79200, Note_off_c, 1, 42, 0
2, 79200, Note_off_c, 1, 49, 0
2, 79200, Note_off_c, 1, 54, 0
2, 79200, Note_off_c, 1, 70, 0
2, 79200, Note_off_c, 1, 73, 0
2, 79200, Note_off_c, 1, 82, 0
2, 79240, Note_on_c, 1, 51, 127
2, 79240, Note_on_c, 1, 58, 127
2, 79240, Note_on_c, 1, 63, 127
2, 79240, Note_on_c, 1, 66, 127
2, 79520, Note_off_c, 1, 51, 0
2, 79520, Note_off_c, 1, 58, 0
2, 79520, Note_off_c, 1, 63, 0
2, 79520, Note_off_c, 1, 66, 0
2, 79560, Note_on_c, 1, 53, 127
2, 79560, Note_on_c, 1, 61, 127
2, 79560, Note_on_c, 1, 65, 127
2, 79560, Note_on_c, 1, 73, 127
2, 79720, Note_off_c, 1, 53, 0
2, 79720, Note_off_c, 1, 61, 0
2, 79720, Note_off_c, 1, 65, 0
2, 79720, Note_off_c, 1, 73, 0
2, 79760, Note_on_c, 1, 46, 127
2, 79760, Note_on_c, 1, 53, 127
2, 79760, Note_on_c, 1, 58, 127
2, 79760, Note_on_c, 1, 61, 127
2, 79760, Note_on_c, 1, 65, 127
2, 79760, Note_on_c, 1, 73, 127
2, 79960, Note_off_c, 1, 46, 0
2, 79960, Note_off_c, 1, 53, 0
2, 79960, Note_off_c, 1, 58, 0
2, 79960, Note_off_c, 1, 61, 0
2, 79960, Note_off_c, 1, 65, 0
2, 79960, Note_off_c, 1, 73, 0
2, 80000, Note_on_c, 1, 51, 127
2, 80000, Note_on_c, 1, 54, 127
2, 80000, Note_on_c, 1, 59, 127
2, 80000, Note_on_c, 1, 71, 127
2, 80040, Note_off_c, 1, 51, 0
2, 80040, Note_off_c, 1, 54, 0
2, 80040, Note_off_c, 1, 59, 0
2, 80040, Note_off_c, 1, 71, 0
2, 80080, Note_on_c, 1, 51, 127
2, 80080, Note_on_c, 1, 54, 127
2, 80080, Note_on_c, 1, 59, 127
2, 80080, Note_on_c, 1, 71, 127
2, 80160, Note_off_c, 1, 51, 0
2, 80160, Note_off_c, 1, 54, 0
2, 80160, Note_off_c, 1, 59, 0
2, 80160, Note_off_c, 1, 71, 0
2, 80200, Note_on_c, 1, 50, 127
2, 80200, Note_on_c, 1, 53, 127
2, 80200, Note_on_c, 1, 58, 127
2, 80200, Note_on_c, 1, 70, 127
2, 80320, Note_off_c, 1, 50, 0
2, 80320, Note_off_c, 1, 53, 0
2, 80320, Note_off_c, 1, 58, 0
2, 80320, Note_off_c, 1, 70, 0
2, 80360, Note_on_c, 1, 49, 127
2, 80360, Note_on_c, 1, 52, 127
2, 80360, Note_on_c, 1, 57, 127
2, 80360, Note_on_c, 1, 69, 127
2, 80640, Note_off_c, 1, 49, 0
2, 80640, Note_off_c, 1, 52, 0
2, 80640, Note_off_c, 1, 57, 0
2, 80640, Note_off_c, 1, 69, 0
2, 80680, Note_on_c, 1, 44, 127
2, 80680, Note_on_c, 1, 56, 127
2, 80680, Note_on_c, 1, 59, 127
2, 80680, Note_on_c, 1, 63, 127
2, 80680, Note_on_c, 1, 71, 127
2, 80920, Note_off_c, 1, 44, 0
2, 80920, Note_off_c, 1, 56, 0
2, 80920, Note_off_c, 1, 59, 0
2, 80920, Note_off_c, 1, 63, 0
2, 80920, Note_off_c, 1, 71, 0
2, 80960, Note_on_c, 1, 42, 127
2, 80960, Note_on_c, 1, 54, 127
2, 80960, Note_on_c, 1, 61, 127
2, 80960, Note_on_c, 1, 70, 127
2, 80960, Note_on_c, 1, 73, 127
2, 81080, Note_off_c, 1, 42, 0
2, 81080, Note_off_c, 1, 54, 0
2, 81080, Note_off_c, 1, 61, 0
2, 81080, Note_off_c, 1, 70, 0
2, 81080, Note_off_c, 1, 73, 0
2, 81120, Note_on_c, 1, 47, 127
2, 81120, Note_on_c, 1, 54, 127
2, 81120, Note_on_c, 1, 62, 127
2, 81120, Note_on_c, 1, 71, 127
2, 81120, Note_on_c, 1, 74, 127
2, 81240, Note_off_c, 1, 47, 0
2, 81240, Note_off_c, 1, 54, 0
2, 81240, Note_off_c, 1, 62, 0
2, 81240, Note_off_c, 1, 71, 0
2, 81240, Note_off_c, 1, 74, 0
2, 81280, Note_on_c, 1, 42, 127
2, 81280, Note_on_c, 1, 54, 127
2, 81280, Note_on_c, 1, 61, 127
2, 81280, Note_on_c, 1, 70, 127
2, 81280, Note_on_c, 1, 73, 127
2, 81400, Note_off_c, 1, 42, 0
2, 81400, Note_off_c, 1, 54, 0
2, 81400, Note_off_c, 1, 61, 0
2, 81400, Note_off_c, 1, 70, 0
2, 81400, Note_off_c, 1, 73, 0
2, 81440, Note_on_c, 1, 47, 127
2, 81440, Note_on_c, 1, 54, 127
2, 81440, Note_on_c, 1, 62, 127
2, 81440, Note_on_c, 1, 71, 127
2, 81440, Note_on_c, 1, 74, 127
2, 81480, Note_off_c, 1, 47, 0
2, 81480, Note_off_c, 1, 54, 0
2, 81480, Note_off_c, 1, 62, 0
2, 81480, Note_off_c, 1, 71, 0
2, 81480, Note_off_c, 1, 74, 0
2, 81520, Note_on_c, 1, 47, 127
2, 81520, Note_on_c, 1, 54, 127
2, 81520, Note_on_c, 1, 62, 127
2, 81520, Note_on_c, 1, 71, 127
2, 81520, Note_on_c, 1, 74, 127
2, 81560, Note_off_c, 1, 47, 0
2, 81560, Note_off_c, 1, 54, 0
2, 81560, Note_off_c, 1, 62, 0
2, 81560, Note_off_c, 1, 71, 0
2, 81560, Note_off_c, 1, 74, 0
2, 81600, Note_on_c, 1, 42, 127
2, 81600, Note_on_c, 1, 54, 127
2, 81600, Note_on_c, 1, 61, 127
2, 81600, Note_on_c, 1, 70, 127
2, 81600, Note_on_c, 1, 73, 127
2, 81720, Note_off_c, 1, 42, 0
2, 81720, Note_off_c, 1, 54, 0
2, 81720, Note_off_c, 1, 61, 0
2, 81720, Note_off_c, 1, 70, 0
2, 81720, Note_off_c, 1, 73, 0
2, 81760, Note_on_c, 1, 47, 127
2, 81760, Note_on_c, 1, 54, 127
2, 81760, Note_on_c, 1, 62, 127
2, 81760, Note_on_c, 1, 71, 127
2, 81760, Note_on_c, 1, 74, 127
2, 81880, Note_off_c, 1, 47, 0
2, 81880, Note_off_c, 1, 54, 0
2, 81880, Note_off_c, 1, 62, 0
2, 81880, Note_off_c, 1, 71, 0
2, 81880, Note_off_c, 1, 74, 0
2, 81920, Note_on_c, 1, 42, 127
2, 81920, Note_on_c, 1, 54, 127
2, 81920, Note_on_c, 1, 61, 127
2, 81920, Note_on_c, 1, 70, 127
2, 81920, Note_on_c, 1, 73, 127
2, 82000, Note_off_c, 1, 42, 0
2, 82000, Note_off_c, 1, 54, 0
2, 82000, Note_off_c, 1, 61, 0
2, 82000, Note_off_c, 1, 70, 0
2, 82000, Note_off_c, 1, 73, 0
2, 82040, Note_on_c, 1, 42, 127
2, 82040, Note_on_c, 1, 54, 127
2, 82040, Note_on_c, 1, 61, 127
2, 82040, Note_on_c, 1, 70, 127
2, 82040, Note_on_c, 1, 73, 127
2, 82080, Note_off_c, 1, 42, 0
2, 82080, Note_off_c, 1, 54, 0
2, 82080, Note_off_c, 1, 61, 0
2, 82080, Note_off_c, 1, 70, 0
2, 82080, Note_off_c, 1, 73, 0
2, 82120, Note_on_c, 1, 47, 127
2, 82120, Note_on_c, 1, 54, 127
2, 82120, Note_on_c, 1, 62, 127
2, 82120, Note_on_c, 1, 71, 127
2, 82120, Note_on_c, 1, 74, 127
2, 82240, Note_off_c, 1, 47, 0
2, 82240, Note_off_c, 1, 54, 0
2, 82240, Note_off_c, 1, 62, 0
2, 82240, Note_off_c, 1, 71, 0
2, 82240, Note_off_c, 1, 74, 0
2, 82280, Note_on_c, 1, 42, 127
2, 82280, Note_on_c, 1, 54, 127
2, 82280, Note_on_c, 1, 61, 127
2, 82280, Note_on_c, 1, 70, 127
2, 82280, Note_on_c, 1, 73, 127
2, 82400, Note_off_c, 1, 42, 0
2, 82400, Note_off_c, 1, 54, 0
2, 82400, Note_off_c, 1, 61, 0
2, 82400, Note_off_c, 1, 70, 0
2, 82400, Note_off_c, 1, 73, 0
2, 82440, Note_on_c, 1, 47, 127
2, 82440, Note_on_c, 1, 54, 127
2, 82440, Note_on_c, 1, 63, 127
2, 82440, Note_on_c, 1, 71, 127
2, 82440, Note_on_c, 1, 75, 127
2, 82560, Note_off_c, 1, 47, 0
2, 82560, Note_off_c, 1, 54, 0
2, 82560, Note_off_c, 1, 63, 0
2, 82560, Note_off_c, 1, 71, 0
2, 82560, Note_off_c, 1, 75, 0
2, 82600, Note_on_c, 1, 42, 127
2, 82600, Note_on_c, 1, 54, 127
2, 82600, Note_on_c, 1, 61, 127
2, 82600, Note_on_c, 1, 70, 127
2, 82600, Note_on_c, 1, 73, 127
2, 82720, Note_off_c, 1, 42, 0
2, 82720, Note_off_c, 1, 54, 0
2, 82720, Note_off_c, 1, 61, 0
2, 82720, Note_off_c, 1, 70, 0
2, 82720, Note_off_c, 1, 73, 0
2, 82760, Note_on_c, 1, 47, 127
2, 82760, Note_on_c, 1, 54, 127
2, 82760, Note_on_c, 1, 62, 127
2, 82760, Note_on_c, 1, 71, 127
2, 82760, Note_on_c, 1, 74, 127
2, 82880, Note_off_c, 1, 47, 0
2, 82880, Note_off_c, 1, 54, 0
2, 82880, Note_off_c, 1, 62, 0
2, 82880, Note_off_c, 1, 71, 0
2, 82880, Note_off_c, 1, 74, 0
2, 82920, Note_on_c, 1, 42, 127
2, 82920, Note_on_c, 1, 54, 127
2, 82920, Note_on_c, 1, 61, 127
2, 82920, Note_on_c, 1, 70, 127
2, 82920, Note_on_c, 1, 73, 127
2, 83040, Note_off_c, 1, 42, 0
2, 83040, Note_off_c, 1, 54, 0
2, 83040, Note_off_c, 1, 61, 0
2, 83040, Note_off_c, 1, 70, 0
2, 83040, Note_off_c, 1, 73, 0
2, 83080, Note_on_c, 1, 47, 127
2, 83080, Note_on_c, 1, 54, 127
2, 83080, Note_on_c, 1, 62, 127
2, 83080, Note_on_c, 1, 71, 127
2, 83080, Note_on_c, 1, 74, 127
2, 83120, Note_off_c, 1, 47, 0
2, 83120, Note_off_c, 1, 54, 0
2, 83120, Note_off_c, 1, 62, 0
2, 83120, Note_off_c, 1, 71, 0
2, 83120, Note_off_c, 1, 74, 0
2, 83240, Note_on_c, 1, 42, 127
2, 83240, Note_on_c, 1, 54, 127
2, 83240, Note_on_c, 1, 61, 127
2, 83240, Note_on_c, 1, 70, 127
2, 83240, Note_on_c, 1, 73, 127
2, 83520, Note_off_c, 1, 42, 0
2, 83520, Note_off_c, 1, 54, 0
2, 83520, Note_off_c, 1, 61, 0
2, 83520, Note_off_c, 1, 70, 0
2, 83520, Note_off_c, 1, 73, 0
2, 83560, Note_on_c, 1, 47, 127
2, 83560, Note_on_c, 1, 54, 127
2, 83560, Note_on_c, 1, 62, 127
2, 83560, Note_on_c, 1, 71, 127
2, 83560, Note_on_c, 1, 74, 127
2, 83680, Note_off_c, 1, 47, 0
2, 83680, Note_off_c, 1, 54, 0
2, 83680, Note_off_c, 1, 62, 0
2, 83680, Note_off_c, 1, 71, 0
2, 83680, Note_off_c, 1, 74, 0
2, 83720, Note_on_c, 1, 42, 127
2, 83720, Note_on_c, 1, 54, 127
2, 83720, Note_on_c, 1, 61, 127
2, 83720, Note_on_c, 1, 70, 127
2, 83720, Note_on_c, 1, 73, 127
2, 83840, Note_off_c, 1, 42, 0
2, 83840, Note_off_c, 1, 54, 0
2, 83840, Note_off_c, 1, 61, 0
2, 83840, Note_off_c, 1, 70, 0
2, 83840, Note_off_c, 1, 73, 0
2, 83880, Note_on_c, 1, 41, 127
2, 83880, Note_on_c, 1, 53, 127
2, 83880, Note_on_c, 1, 68, 127
2, 83880, Note_on_c, 1, 71, 127
2, 83880, Note_on_c, 1, 74, 127
2, 84200, Note_off_c, 1, 41, 0
2, 84200, Note_off_c, 1, 53, 0
2, 84200, Note_off_c, 1, 68, 0
2, 84200, Note_off_c, 1, 71, 0
2, 84200, Note_off_c, 1, 74, 0
2, 84240, Note_on_c, 1, 41, 127
2, 84240, Note_on_c, 1, 53, 127
2, 84240, Note_on_c, 1, 68, 127
2, 84240, Note_on_c, 1, 71, 127
2, 84240, Note_on_c, 1, 74, 127
2, 86120, Note_off_c, 1, 41, 0
2, 86120, Note_off_c, 1, 53, 0
2, 86120, Note_off_c, 1, 68, 0
2, 86120, Note_off_c, 1, 71, 0
2, 86120, Note_off_c, 1, 74, 0
2, 86160, Note_on_c, 1, 41, 127
2, 86160, Note_on_c, 1, 53, 127
2, 86160, Note_on_c, 1, 68, 127
2, 86160, Note_on_c, 1, 71, 127
2, 86160, Note_on_c, 1, 74, 127
2, 86400, Note_off_c, 1, 41, 0
2, 86400, Note_off_c, 1, 53, 0
2, 86400, Note_off_c, 1, 68, 0
2, 86400, Note_off_c, 1, 71, 0
2, 86400, Note_off_c, 1, 74, 0
2, 86440, Note_on_c, 1, 41, 127
2, 86440, Note_on_c, 1, 53, 127
2, 86440, Note_on_c, 1, 68, 127
2, 86440, Note_on_c, 1, 71, 127
2, 86440, Note_on_c, 1, 74, 127
2, 88600, Note_off_c, 1, 41, 0
2, 88600, Note_off_c, 1, 53, 0
2, 88600, Note_off_c, 1, 68, 0
2, 88600, Note_off_c, 1, 71, 0
2, 88600, Note_off_c, 1, 74, 0
2, 88640, Note_on_c, 1, 41, 127
2, 88640, Note_on_c, 1, 53, 127
2, 88640, Note_on_c, 1, 68, 127
2, 88640, Note_on_c, 1, 71, 127
2, 88640, Note_on_c, 1, 74, 127
2, 88840, Note_off_c, 1, 41, 0
2, 88840, Note_off_c, 1, 53, 0
2, 88840, Note_off_c, 1, 68, 0
2, 88840, Note_off_c, 1, 71, 0
2, 88840, Note_off_c, 1, 74, 0
2, 88880, Note_on_c, 1, 55, 127
2, 88880, Note_on_c, 1, 62, 127
2, 88880, Note_on_c, 1, 83, 127
2, 88880, Note_on_c, 1, 86, 127
2, 89160, Note_off_c, 1, 55, 0
2, 89160, Note_off_c, 1, 62, 0
2, 89160, Note_off_c, 1, 83, 0
2, 89160, Note_off_c, 1, 86, 0
2, 89200, Note_on_c, 1, 55, 127
2, 89200, Note_on_c, 1, 58, 127
2, 89200, Note_on_c, 1, 64, 127
2, 89200, Note_on_c, 1, 81, 127
2, 89200, Note_on_c, 1, 88, 127
2, 89480, Note_off_c, 1, 55, 0
2, 89480, Note_off_c, 1, 58, 0
2, 89480, Note_off_c, 1, 64, 0
2, 89480, Note_on_c, 1, 69, 127
2, 89480, Note_on_c, 1, 73, 127
2, 89480, Note_off_c, 1, 88, 0
2, 89520, Note_on_c, 1, 70, 127
2, 89520, Note_off_c, 1, 73, 0
2, 89760, Note_off_c, 1, 70, 0
2, 89800, Note_off_c, 1, 69, 0
2, 89800, Note_off_c, 1, 81, 0
2, 89840, Note_on_c, 1, 50, 127
2, 89840, Note_on_c, 1, 56, 127
2, 89840, Note_on_c, 1, 58, 127
2, 89840, Note_on_c, 1, 68, 127
2, 89840, Note_on_c, 1, 80, 127
2, 89880, Note_on_c, 1, 46, 127
2, 89880, Note_on_c, 1, 49, 127
2, 89880, Note_off_c, 1, 50, 0
2, 89880, Note_off_c, 1, 56, 0
2, 89880, Note_off_c, 1, 58, 0
2, 89880, Note_off_c, 1, 68, 0
2, 89880, Note_on_c, 1, 77, 127
2, 89880, Note_off_c, 1, 80, 0
2, 89880, Note_on_c, 1, 85, 127
2, 89880, Note_on_c, 1, 89, 127
2, 89920, Note_off_c, 1, 46, 0
2, 89920, Note_off_c, 1, 49, 0
2, 89920, Note_on_c, 1, 55, 127
2, 89920, Note_on_c, 1, 58, 127
2, 89920, Note_on_c, 1, 70, 127
2, 89920, Note_on_c, 1, 73, 127
2, 89920, Note_off_c, 1, 77, 0
2, 89920, Note_on_c, 1, 82, 127
2, 89920, Note_off_c, 1, 85, 0
2, 89920, Note_off_c, 1, 89, 0
2, 89960, Note_on_c, 1, 51, 127
2, 89960, Note_off_c, 1, 55, 0
2, 89960, Note_on_c, 1, 56, 127
2, 89960, Note_off_c, 1, 58, 0
2, 89960, Note_on_c, 1, 61, 127
2, 89960, Note_on_c, 1, 65, 127
2, 89960, Note_on_c, 1, 68, 127
2, 89960, Note_off_c, 1, 70, 0
2, 89960, Note_on_c, 1, 75, 127
2, 89960, Note_off_c, 1, 82, 0
2, 90000, Note_on_c, 1, 47, 127
2, 90000, Note_off_c, 1, 61, 0
2, 90000, Note_off_c, 1, 65, 0
2, 90000, Note_off_c, 1, 68, 0
2, 90000, Note_off_c, 1, 73, 0
2, 90000, Note_on_c, 1, 87, 127
2, 90040, Note_off_c, 1, 47, 0
2, 90040, Note_off_c, 1, 51, 0
2, 90040, Note_on_c, 1, 53, 127
2, 90040, Note_on_c, 1, 55, 127
2, 90040, Note_off_c, 1, 56, 0
2, 90040, Note_on_c, 1, 58, 127
2, 90040, Note_off_c, 1, 75, 0
2, 90040, Note_on_c, 1, 79, 127
2, 90040, Note_off_c, 1, 87, 0
2, 90080, Note_on_c, 1, 46, 127
2, 90080, Note_on_c, 1, 48, 127
2, 90080, Note_on_c, 1, 52, 127
2, 90080, Note_off_c, 1, 53, 0
2, 90080, Note_off_c, 1, 55, 0
2, 90080, Note_off_c, 1, 58, 0
2, 90080, Note_on_c, 1, 60, 127
2, 90080, Note_on_c, 1, 64, 127
2, 90080, Note_on_c, 1, 72, 127
2, 90080, Note_off_c, 1, 79, 0
2, 90120, Note_off_c, 1, 46, 0
2, 90120, Note_off_c, 1, 48, 0
2, 90120, Note_off_c, 1, 52, 0
2, 90120, Note_off_c, 1, 60, 0
2, 90120, Note_off_c, 1, 64, 0
2, 90120, Note_off_c, 1, 72, 0
2, 90160, Note_on_c, 1, 33, 127
2, 90160, Note_on_c, 1, 45, 127
2, 90160, Note_on_c, 1, 71, 127
2, 90160, Note_on_c, 1, 76, 127
2, 90160, Note_on_c, 1, 80, 127
2, 90200, Note_off_c, 1, 33, 0
2, 90200, Note_off_c, 1, 45, 0
2, 90200, Note_on_c, 1, 61, 127
2, 90200, Note_off_c, 1, 80, 0
2, 90200, Note_on_c, 1, 83, 127
2, 90240, Note_on_c, 1, 31, 127
2, 90240, Note_on_c, 1, 43, 127
2, 90240, Note_off_c, 1, 61, 0
2, 90240, Note_on_c, 1, 65, 127
2, 90240, Note_on_c, 1, 74, 127
2, 90240, Note_off_c, 1, 76, 0
2, 90240, Note_off_c, 1, 83, 0
2, 90280, Note_off_c, 1, 31, 0
2, 90280, Note_off_c, 1, 43, 0
2, 90280, Note_on_c, 1, 60, 127
2, 90280, Note_on_c, 1, 63, 127
2, 90280, Note_off_c, 1, 65, 0
2, 90280, Note_on_c, 1, 66, 127
2, 90280, Note_off_c, 1, 71, 0
2, 90280, Note_on_c, 1, 78, 127
2, 90320, Note_on_c, 1, 33, 127
2, 90320, Note_on_c, 1, 45, 127
2, 90320, Note_off_c, 1, 60, 0
2, 90320, Note_off_c, 1, 63, 0
2, 90320, Note_off_c, 1, 66, 0
2, 90320, Note_on_c, 1, 71, 127
2, 90320, Note_off_c, 1, 74, 0
2, 90320, Note_on_c, 1, 76, 127
2, 90320, Note_off_c, 1, 78, 0
2, 90320, Note_on_c, 1, 80, 127
2, 90400, Note_off_c, 1, 33, 0
2, 90400, Note_off_c, 1, 45, 0
2, 90400, Note_on_c, 1, 49, 127
2, 90400, Note_on_c, 1, 55, 127
2, 90400, Note_on_c, 1, 58, 127
2, 90400, Note_on_c, 1, 64, 127
2, 90400, Note_on_c, 1, 70, 127
2, 90400, Note_off_c, 1, 71, 0
2, 90400, Note_off_c, 1, 76, 0
2, 90400, Note_off_c, 1, 80, 0
2, 90440, Note_off_c, 1, 49, 0
2, 90440, Note_off_c, 1, 55, 0
2, 90440, Note_off_c, 1, 58, 0
2, 90440, Note_off_c, 1, 64, 0
2, 90440, Note_off_c, 1, 70, 0
2, 90480, Note_on_c, 1, 41, 127
2, 90480, Note_on_c, 1, 50, 127
2, 90480, Note_on_c, 1, 56, 127
2, 90480, Note_on_c, 1, 61, 127
2, 90560, Note_on_c, 1, 59, 127
2, 90560, Note_off_c, 1, 61, 0
2, 90600, Note_off_c, 1, 41, 0
2, 90600, Note_off_c, 1, 50, 0
2, 90600, Note_off_c, 1, 56, 0
2, 90600, Note_off_c, 1, 59, 0
2, 90600, Note_on_c, 1, 61, 127
2, 90600, Note_on_c, 1, 63, 127
2, 90600, Note_on_c, 1, 66, 127
2, 90600, Note_on_c, 1, 69, 127
2, 90640, Note_off_c, 1, 61, 0
2, 90640, Note_off_c, 1, 63, 0
2, 90640, Note_off_c, 1, 66, 0
2, 90640, Note_off_c, 1, 69, 0
2, 90680, Note_on_c, 1, 50, 127
2, 90680, Note_on_c, 1, 56, 127
2, 90680, Note_on_c, 1, 59, 127
2, 90680, Note_on_c, 1, 66, 127
2, 90760, Note_off_c, 1, 50, 0
2, 90760, Note_off_c, 1, 56, 0
2, 90760, Note_off_c, 1, 66, 0
2, 90760, Note_on_c, 1, 77, 127
2, 90760, Note_on_c, 1, 81, 127
2, 90760, Note_on_c, 1, 83, 127
2, 90800, Note_off_c, 1, 59, 0
2, 90800, Note_off_c, 1, 77, 0
2, 90800, Note_off_c, 1, 81, 0
2, 90800, Note_off_c, 1, 83, 0
2, 90840, Note_on_c, 1, 48, 127
2, 90840, Note_on_c, 1, 60, 127
2, 90840, Note_on_c, 1, 75, 127
2, 90840, Note_on_c, 1, 79, 127
2, 90840, Note_on_c, 1, 87, 127
2, 91000, Note_off_c, 1, 48, 0
2, 91000, Note_off_c, 1, 60, 0
2, 91000, Note_off_c, 1, 75, 0
2, 91000, Note_off_c, 1, 79, 0
2, 91000, Note_off_c, 1, 87, 0
2, 91200, Note_on_c, 1, 37, 127
2, 91200, Note_on_c, 1, 49, 127
2, 91200, Note_on_c, 1, 61, 127
2, 91200, Note_on_c, 1, 65, 127
2, 91200, Note_on_c, 1, 68, 127
2, 91200, Note_on_c, 1, 73, 127
2, 91800, Note_off_c, 1, 37, 0
2, 91800, Note_off_c, 1, 49, 0
2, 91800, Note_off_c, 1, 61, 0
2, 91800, Note_off_c, 1, 65, 0
2, 91800, Note_off_c, 1, 68, 0
2, 91800, Note_off_c, 1, 73, 0
2, 92160, Note_on_c, 1, 46, 127
2, 92160, Note_on_c, 1, 54, 127
2, 92160, Note_on_c, 1, 61, 127
2, 92160, Note_on_c, 1, 64, 127
2, 92320, Note_off_c, 1, 46, 0
2, 92320, Note_on_c, 1, 47, 127
2, 92360, Note_on_c, 1, 46, 127
2, 92360, Note_off_c, 1, 47, 0
2, 92480, Note_off_c, 1, 46, 0
2, 92480, Note_on_c, 1, 47, 127
2, 92840, Note_off_c, 1, 47, 0
2, 92840, Note_off_c, 1, 54, 0
2, 92840, Note_off_c, 1, 61, 0
2, 92840, Note_off_c, 1, 64, 0
2, 92880, Note_on_c, 1, 47, 127
2, 92880, Note_on_c, 1, 54, 127
2, 92880, Note_on_c, 1, 61, 127
2, 92880, Note_on_c, 1, 64, 127
2, 93400, Note_off_c, 1, 47, 0
2, 93400, Note_off_c, 1, 54, 0
2, 93400, Note_off_c, 1, 61, 0
2, 93400, Note_off_c, 1, 64, 0
2, 93440, Note_on_c, 1, 26, 127
2, 93440, Note_on_c, 1, 33, 127
2, 93440, Note_on_c, 1, 38, 127
2, 93440, Note_on_c, 1, 50, 127
2, 93440, Note_on_c, 1, 54, 127
2, 93440, Note_on_c, 1, 57, 127
2, 93440, Note_on_c, 1, 62, 127
2, 94320, Note_off_c, 1, 26, 0
2, 94320, Note_off_c, 1, 33, 0
2, 94320, Note_off_c, 1, 38, 0
2, 94320, Note_off_c, 1, 50, 0
2, 94320, Note_off_c, 1, 54, 0
2, 94320, Note_off_c, 1, 57, 0
2, 94320, Note_off_c, 1, 62, 0
2, 94360, Note_on_c, 1, 49, 127
2, 94360, Note_on_c, 1, 65, 127
2, 94360, Note_on_c, 1, 68, 127
2, 94360, Note_on_c, 1, 70, 127
2, 94880, Note_off_c, 1, 49, 0
2, 94880, Note_on_c, 1, 67, 127
2, 94880, Note_off_c, 1, 68, 0
2, 94880, Note_off_c, 1, 70, 0
2, 94920, Note_on_c, 1, 49, 127
2, 94920, Note_off_c, 1, 67, 0
2, 94920, Note_on_c, 1, 68, 127
2, 94920, Note_on_c, 1, 70, 127
2, 94960, Note_off_c, 1, 49, 0
2, 94960, Note_off_c, 1, 65, 0
2, 94960, Note_off_c, 1, 68, 0
2, 94960, Note_off_c, 1, 70, 0
2, 95000, Note_on_c, 1, 49, 127
2, 95000, Note_on_c, 1, 65, 127
2, 95000, Note_on_c, 1, 68, 127
2, 95000, Note_on_c, 1, 70, 127
2, 95280, Note_off_c, 1, 49, 0
2, 95280, Note_on_c, 1, 67, 127
2, 95280, Note_off_c, 1, 68, 0
2, 95280, Note_off_c, 1, 70, 0
2, 96560, Note_off_c, 1, 65, 0
2, 96560, Note_off_c, 1, 67, 0
2, 96600, Note_on_c, 1, 68, 127
2, 96880, Note_off_c, 1, 68, 0
2, 96920, Note_on_c, 1, 70, 127
2, 97040, Note_off_c, 1, 70, 0
2, 97080, Note_on_c, 1, 70, 127
2, 97600, Note_off_c, 1, 70, 0
2, 97640, Note_on_c, 1, 41, 127
2, 97640, Note_on_c, 1, 56, 127
2, 97640, Note_on_c, 1, 60, 127
2, 97640, Note_on_c, 1, 65, 127
2, 99040, Note_off_c, 1, 41, 0
2, 99040, Note_off_c, 1, 56, 0
2, 99040, Note_off_c, 1, 60, 0
2, 99040, Note_off_c, 1, 65, 0
2, 100720, Note_on_c, 1, 41, 127
2, 100760, Note_off_c, 1, 41, 0
2, 100760, Note_on_c, 1, 42, 127
2, 101720, Note_off_c, 1, 42, 0
2, 101760, Note_on_c, 1, 42, 127
2, 102200, Note_on_c, 1, 37, 127
2, 102200, Note_off_c, 1, 42, 0
2, 102200, Note_on_c, 1, 61, 127
2, 102240, Note_off_c, 1, 37, 0
2, 102240, Note_on_c, 1, 49, 127
2, 102240, Note_on_c, 1, 56, 127
2, 102240, Note_on_c, 1, 66, 127
2, 102800, Note_off_c, 1, 49, 0
2, 102800, Note_off_c, 1, 56, 0
2, 102800, Note_off_c, 1, 61, 0
2, 102800, Note_off_c, 1, 66, 0
2, 102840, Note_on_c, 1, 51, 127
2, 103120, Note_off_c, 1, 51, 0
2, 103520, Note_on_c, 1, 39, 127
2, 104360, Note_off_c, 1, 39, 0
2, 104400, Note_on_c, 1, 37, 127
2, 104680, Note_off_c, 1, 37, 0
2, 105560, Note_on_c, 1, 45, 127
2, 105560, Note_on_c, 1, 57, 127
2, 105840, Note_off_c, 1, 45, 0
2, 105840, Note_off_c, 1, 57, 0
2, 105880, Note_on_c, 1, 44, 127
2, 105880, Note_on_c, 1, 56, 127
2, 106120, Note_off_c, 1, 44, 0
2, 106120, Note_off_c, 1, 56, 0
2, 106160, Note_on_c, 1, 33, 127
2, 106160, Note_on_c, 1, 45, 127
2, 106160, Note_on_c, 1, 57, 127
2, 106360, Note_off_c, 1, 33, 0
2, 106360, Note_off_c, 1, 45, 0
2, 106360, Note_off_c, 1, 57, 0
2, 107080, Note_on_c, 1, 57, 127
2, 107080, Note_on_c, 1, 64, 127
2, 107080, Note_on_c, 1, 73, 127
2, 107200, Note_off_c, 1, 57, 0
2, 107200, Note_off_c, 1, 73, 0
2, 107240, Note_on_c, 1, 56, 127
2, 107240, Note_on_c, 1, 76, 127
2, 107360, Note_off_c, 1, 56, 0
2, 107360, Note_off_c, 1, 76, 0
2, 107400, Note_on_c, 1, 57, 127
2, 107400, Note_on_c, 1, 73, 127
2, 108360, Note_off_c, 1, 64, 0
2, 108400, Note_on_c, 1, 45, 127
2, 108400, Note_off_c, 1, 57, 0
2, 108400, Note_on_c, 1, 64, 127
2, 108520, Note_off_c, 1, 64, 0
2, 108520, Note_off_c, 1, 73, 0
2, 108560, Note_on_c, 1, 64, 127
2, 108560, Note_on_c, 1, 73, 127
2, 108720, Note_off_c, 1, 45, 0
2, 108720, Note_off_c, 1, 64, 0
2, 108720, Note_off_c, 1, 73, 0
2, 108760, Note_on_c, 1, 50, 127
2, 108760, Note_on_c, 1, 62, 127
2, 108760, Note_on_c, 1, 74, 127
2, 109120, Note_off_c, 1, 50, 0
2, 109120, Note_off_c, 1, 62, 0
2, 109120, Note_off_c, 1, 74, 0
2, 109160, Note_on_c, 1, 50, 127
2, 109160, Note_on_c, 1, 62, 127
2, 109160, Note_on_c, 1, 74, 127
2, 109480, Note_off_c, 1, 74, 0
2, 109520, Note_on_c, 1, 65, 127
2, 109520, Note_on_c, 1, 74, 127
2, 109640, Note_off_c, 1, 50, 0
2, 109640, Note_on_c, 1, 57, 127
2, 109640, Note_off_c, 1, 62, 0
2, 109680, Note_on_c, 1, 50, 127
2, 109680, Note_off_c, 1, 57, 0
2, 109680, Note_on_c, 1, 62, 127
2, 110080, Note_off_c, 1, 74, 0
2, 110120, Note_on_c, 1, 57, 127
2, 110120, Note_off_c, 1, 62, 0
2, 110120, Note_off_c, 1, 65, 0
2, 110120, Note_on_c, 1, 69, 127
2, 110120, Note_on_c, 1, 76, 127
2, 110160, Note_off_c, 1, 50, 0
2, 110160, Note_off_c, 1, 57, 0
2, 110160, Note_off_c, 1, 69, 0
2, 110160, Note_off_c, 1, 76, 0
2, 110200, Note_on_c, 1, 45, 127
2, 110200, Note_on_c, 1, 69, 127
2, 110320, Note_off_c, 1, 45, 0
2, 110360, Note_on_c, 1, 52, 127
2, 110600, Note_off_c, 1, 69, 0
2, 110640, Note_on_c, 1, 59, 127
2, 110800, Note_off_c, 1, 52, 0
2, 110800, Note_off_c, 1, 59, 0
2, 110800, Note_on_c, 1, 64, 127
2, 110840, Note_on_c, 1, 45, 127
2, 110840, Note_on_c, 1, 57, 127
2, 110840, Note_off_c, 1, 64, 0
2, 110840, Note_on_c, 1, 69, 127
2, 111160, Note_off_c, 1, 45, 0
2, 111160, Note_off_c, 1, 57, 0
2, 111160, Note_off_c, 1, 69, 0
2, 111200, Note_on_c, 1, 54, 127
2, 111200, Note_on_c, 1, 78, 127
2, 111480, Note_off_c, 1, 54, 0
2, 111480, Note_off_c, 1, 78, 0
2, 111560, Note_on_c, 1, 52, 127
2, 111560, Note_on_c, 1, 76, 127
2, 111880, Note_off_c, 1, 52, 0
2, 111880, Note_off_c, 1, 76, 0
2, 111920, Note_on_c, 1, 58, 127
2, 111920, Note_on_c, 1, 78, 127
2, 112200, Note_off_c, 1, 58, 0
2, 112200, Note_off_c, 1, 78, 0
2, 112240, Note_on_c, 1, 57, 127
2, 112240, Note_on_c, 1, 88, 127
2, 112560, Note_off_c, 1, 88, 0
2, 112600, Note_on_c, 1, 50, 127
2, 112600, Note_on_c, 1, 78, 127
2, 112880, Note_off_c, 1, 57, 0
2, 112920, Note_on_c, 1, 62, 127
2, 113240, Note_off_c, 1, 50, 0
2, 113240, Note_off_c, 1, 62, 0
2, 113240, Note_off_c, 1, 78, 0
2, 113280, Note_on_c, 1, 52, 127
2, 113280, Note_on_c, 1, 61, 127
2, 113280, Note_on_c, 1, 69, 127
2, 113880, Note_off_c, 1, 52, 0
2, 113880, Note_off_c, 1, 61, 0
2, 113880, Note_off_c, 1, 69, 0
2, 113920, Note_on_c, 1, 52, 127
2, 113920, Note_on_c, 1, 61, 127
2, 113920, Note_on_c, 1, 69, 127
2, 113960, Note_off_c, 1, 61, 0
2, 113960, Note_off_c, 1, 69, 0
2, 114000, Note_on_c, 1, 59, 127
2, 114000, Note_on_c, 1, 68, 127
2, 114280, Note_off_c, 1, 59, 0
2, 114280, Note_off_c, 1, 68, 0
2, 114320, Note_on_c, 1, 55, 127
2, 114320, Note_on_c, 1, 70, 127
2, 114640, Note_off_c, 1, 55, 0
2, 114640, Note_off_c, 1, 70, 0
2, 114680, Note_on_c, 1, 56, 127
2, 114680, Note_on_c, 1, 71, 127
2, 114960, Note_off_c, 1, 56, 0
2, 114960, Note_off_c, 1, 71, 0
2, 115000, Note_on_c, 1, 61, 127
2, 115000, Note_on_c, 1, 71, 127
2, 115280, Note_off_c, 1, 71, 0
2, 115280, Note_on_c, 1, 73, 127
2, 115320, Note_off_c, 1, 73, 0
2, 115360, Note_on_c, 1, 71, 127
2, 115480, Note_off_c, 1, 71, 0
2, 115520, Note_on_c, 1, 69, 127
2, 115640, Note_off_c, 1, 61, 0
2, 115640, Note_off_c, 1, 69, 0
2, 115680, Note_on_c, 1, 82, 127
2, 115920, Note_off_c, 1, 82, 0
2, 115960, Note_on_c, 1, 78, 127
2, 116000, Note_off_c, 1, 52, 0
2, 116000, Note_off_c, 1, 78, 0
2, 116080, Note_on_c, 1, 51, 127
2, 116080, Note_on_c, 1, 81, 127
2, 116360, Note_off_c, 1, 51, 0
2, 116360, Note_off_c, 1, 81, 0
2, 116400, Note_on_c, 1, 57, 127
2, 116400, Note_on_c, 1, 80, 127
2, 116680, Note_off_c, 1, 80, 0
2, 116720, Note_on_c, 1, 52, 127
2, 116720, Note_off_c, 1, 57, 0
2, 116720, Note_on_c, 1, 85, 127
2, 117040, Note_off_c, 1, 52, 0
2, 117040, Note_off_c, 1, 85, 0
2, 117080, Note_on_c, 1, 86, 127
2, 117400, Note_on_c, 1, 54, 127
2, 117400, Note_on_c, 1, 62, 127
2, 117400, Note_on_c, 1, 69, 127
2, 117400, Note_on_c, 1, 74, 127
2, 117640, Note_off_c, 1, 54, 0
2, 117640, Note_off_c, 1, 62, 0
2, 117640, Note_off_c, 1, 86, 0
2, 117720, Note_off_c, 1, 69, 0
2, 117720, Note_off_c, 1, 74, 0
2, 117760, Note_on_c, 1, 64, 127
2, 117760, Note_on_c, 1, 74, 127
2, 117760, Note_on_c, 1, 80, 127
2, 117760, Note_on_c, 1, 86, 127
2, 117800, Note_off_c, 1, 64, 0
2, 117800, Note_on_c, 1, 66, 127
2, 117840, Note_off_c, 1, 66, 0
2, 117840, Note_on_c, 1, 69, 127
2, 117840, Note_on_c, 1, 71, 127
2, 117840, Note_off_c, 1, 74, 0
2, 117840, Note_on_c, 1, 78, 127
2, 117840, Note_off_c, 1, 80, 0
2, 117840, Note_on_c, 1, 84, 127
2, 117840, Note_off_c, 1, 86, 0
2, 117880, Note_off_c, 1, 69, 0
2, 117880, Note_off_c, 1, 71, 0
2, 117880, Note_on_c, 1, 74, 127
2, 117880, Note_off_c, 1, 78, 0
2, 117880, Note_on_c, 1, 80, 127
2, 117880, Note_off_c, 1, 84, 0
2, 117880, Note_on_c, 1, 86, 127
2, 117920, Note_on_c, 1, 68, 127
2, 118040, Note_off_c, 1, 68, 0
2, 118040, Note_off_c, 1, 74, 0
2, 118040, Note_off_c, 1, 80, 0
2, 118040, Note_off_c, 1, 86, 0
2, 118080, Note_on_c, 1, 86, 127
2, 118400, Note_off_c, 1, 86, 0
2, 118480, Note_on_c, 1, 47, 127
2, 118480, Note_on_c, 1, 51, 127
2, 118480, Note_on_c, 1, 59, 127
2, 118480, Note_on_c, 1, 63, 127
2, 118480, Note_on_c, 1, 66, 127
2, 118480, Note_on_c, 1, 71, 127
2, 118680, Note_off_c, 1, 51, 0
2, 118720, Note_on_c, 1, 54, 127
2, 119080, Note_off_c, 1, 47, 0
2, 119080, Note_off_c, 1, 54, 0
2, 119080, Note_off_c, 1, 59, 0
2, 119080, Note_off_c, 1, 63, 0
2, 119080, Note_off_c, 1, 66, 0
2, 119080, Note_off_c, 1, 71, 0
2, 120040, End_track
3, 0, Start_track
3, 0, Title_t, "MIDI"
3, 1536, End_track
0, 0, End_of_file
