0, 0, Header, 1, 3, 192
1, 0, Start_track
1, 0, Time_signature, 4, 2, 24, 8
1, 0, Tempo, 500000
1, 120040, End_track
2, 0, Start_track
2, 0, Text_t, "random instrument: random person i dunno whatev"
2, 0, Title_t, "Track 1"
2, 0, Note_on_c, 1, 50, 127
2, 0, Note_on_c, 1, 57, 127
2, 0, Note_on_c, 1, 65, 127
2, 0, Note_on_c, 1, 69, 127
2, 0, Note_on_c, 1, 74, 127
2, 0, Note_on_c, 1, 77, 127
2, 0, Note_on_c, 1, 81, 127
2, 80, Note_off_c, 1, 50, 0
2, 80, Note_off_c, 1, 57, 0
2, 80, Note_off_c, 1, 65, 0
2, 80, Note_off_c, 1, 69, 0
2, 80, Note_off_c, 1, 74, 0
2, 80, Note_off_c, 1, 77, 0
2, 80, Note_off_c, 1, 81, 0
2, 120, Note_on_c, 1, 50, 127
2, 120, Note_on_c, 1, 57, 127
2, 120, Note_on_c, 1, 65, 127
2, 120, Note_on_c, 1, 69, 127
2, 120, Note_on_c, 1, 74, 127
2, 120, Note_on_c, 1, 77, 127
2, 120, Note_on_c, 1, 81, 127
2, 360, Note_off_c, 1, 50, 0
2, 360, Note_off_c, 1, 57, 0
2, 360, Note_off_c, 1, 65, 0
2, 360, Note_off_c, 1, 69, 0
2, 360, Note_off_c, 1, 74, 0
2, 360, Note_off_c, 1, 77, 0
2, 360, Note_off_c, 1, 81, 0
2, 400, Note_on_c, 1, 47, 127
2, 400, Note_on_c, 1, 59, 127
2, 400, Note_on_c, 1, 66, 127
2, 400, Note_on_c, 1, 71, 127
2, 400, Note_on_c, 1, 74, 127
2, 800, Note_off_c, 1, 47, 0
2, 800, Note_off_c, 1, 59, 0
2, 800, Note_off_c, 1, 66, 0
2, 800, Note_off_c, 1, 71, 0
2, 800, Note_off_c, 1, 74, 0
2, 840, Note_on_c, 1, 47, 127
2, 840, Note_on_c, 1, 63, 127
2, 840, Note_on_c, 1, 66, 127
2, 840, Note_on_c, 1, 71, 127
2, 960, Note_off_c, 1, 47, 0
2, 960, Note_off_c, 1, 63, 0
2, 960, Note_off_c, 1, 66, 0
2, 960, Note_off_c, 1, 71, 0
2, 5160, Note_on_c, 1, 48, 127
2, 5160, Note_on_c, 1, 55, 127
2, 5160, Note_on_c, 1, 60, 127
2, 5160, Note_on_c, 1, 64, 127
2, 5400, Note_off_c, 1, 48, 0
2, 5400, Note_off_c, 1, 55, 0
2, 5400, Note_off_c, 1, 60, 0
2, 5400, Note_off_c, 1, 64, 0
2, 5720, Note_on_c, 1, 62, 127
2, 5720, Note_on_c, 1, 69, 127
2, 5720, Note_on_c, 1, 74, 127
2, 5720, Note_on_c, 1, 77, 127
2, 5960, Note_off_c, 1, 62, 0
2, 5960, Note_off_c, 1, 69, 0
2, 5960, Note_off_c, 1, 74, 0
2, 5960, Note_off_c, 1, 77, 0
2, 6000, Note_on_c, 1, 57, 127
2, 6000, Note_on_c, 1, 67, 127
2, 6000, Note_on_c, 1, 73, 127
2, 6000, Note_on_c, 1, 76, 127
2, 6240, Note_off_c, 1, 57, 0
2, 6240, Note_off_c, 1, 67, 0
2, 6240, Note_off_c, 1, 73, 0
2, 6240, Note_off_c, 1, 76, 0
2, 6280, Note_on_c, 1, 57, 127
2, 6280, Note_on_c, 1, 65, 127
2, 6280, Note_on_c, 1, 69, 127
2, 6280, Note_on_c, 1, 74, 127
2, 6520, Note_off_c, 1, 57, 0
2, 6520, Note_off_c, 1, 65, 0
2, 6520, Note_off_c, 1, 69, 0
2, 6520, Note_off_c, 1, 74, 0
2, 6560, Note_on_c, 1, 48, 127
2, 6560, Note_on_c, 1, 55, 127
2, 6560, Note_on_c, 1, 64, 127
2, 6560, Note_on_c, 1, 67, 127
2, 6560, Note_on_c, 1, 72, 127
2, 6840, Note_off_c, 1, 48, 0
2, 6840, Note_off_c, 1, 55, 0
2, 6840, Note_off_c, 1, 64, 0
2, 6840, Note_off_c, 1, 67, 0
2, 6840, Note_off_c, 1, 72, 0
2, 6920, Note_on_c, 1, 48, 127
2, 6920, Note_on_c, 1, 55, 127
2, 6920, Note_on_c, 1, 64, 127
2, 6920, Note_on_c, 1, 67, 127
2, 6920, Note_on_c, 1, 72, 127
2, 7160, Note_off_c, 1, 48, 0
2, 7160, Note_off_c, 1, 55, 0
2, 7160, Note_off_c, 1, 64, 0
2, 7160, Note_off_c, 1, 67, 0
2, 7160, Note_off_c, 1, 72, 0
2, 7200, Note_on_c, 1, 48, 127
2, 7200, Note_on_c, 1, 55, 127
2, 7200, Note_on_c, 1, 64, 127
2, 7200, Note_on_c, 1, 67, 127
2, 7200, Note_on_c, 1, 72, 127
2, 7480, Note_off_c, 1, 48, 0
2, 7480, Note_off_c, 1, 55, 0
2, 7480, Note_off_c, 1, 64, 0
2, 7480, Note_off_c, 1, 67, 0
2, 7480, Note_off_c, 1, 72, 0
2, 7520, Note_on_c, 1, 28, 127
2, 7520, Note_on_c, 1, 40, 127
2, 7520, Note_on_c, 1, 60, 127
2, 7520, Note_on_c, 1, 72, 127
2, 7760, Note_off_c, 1, 28, 0
2, 7760, Note_off_c, 1, 40, 0
2, 7760, Note_off_c, 1, 60, 0
2, 7760, Note_off_c, 1, 72, 0
2, 7800, Note_on_c, 1, 29, 127
2, 7800, Note_on_c, 1, 41, 127
2, 7800, Note_on_c, 1, 62, 127
2, 7800, Note_on_c, 1, 74, 127
2, 8080, Note_off_c, 1, 29, 0
2, 8080, Note_off_c, 1, 41, 0
2, 8080, Note_off_c, 1, 62, 0
2, 8080, Note_off_c, 1, 74, 0
2, 8120, Note_on_c, 1, 30, 127
2, 8120, Note_on_c, 1, 42, 127
2, 8120, Note_on_c, 1, 57, 127
2, 8120, Note_on_c, 1, 69, 127
2, 8360, Note_off_c, 1, 30, 0
2, 8360, Note_off_c, 1, 42, 0
2, 8360, Note_off_c, 1, 57, 0
2, 8360, Note_off_c, 1, 69, 0
2, 8400, Note_on_c, 1, 48, 127
2, 8400, Note_on_c, 1, 64, 127
2, 8400, Note_on_c, 1, 69, 127
2, 8400, Note_on_c, 1, 73, 127
2, 8440, Note_off_c, 1, 48, 0
2, 8480, Note_on_c, 1, 48, 127
2, 8520, Note_off_c, 1, 48, 0
2, 8560, Note_on_c, 1, 48, 127
2, 8600, Note_off_c, 1, 48, 0
2, 8640, Note_on_c, 1, 45, 127
2, 8680, Note_off_c, 1, 45, 0
2, 8680, Note_off_c, 1, 64, 0
2, 8680, Note_off_c, 1, 69, 0
2, 8680, Note_off_c, 1, 73, 0
2, 8720, Note_on_c, 1, 45, 127
2, 8720, Note_on_c, 1, 64, 127
2, 8720, Note_on_c, 1, 69, 127
2, 8720, Note_on_c, 1, 73, 127
2, 8800, Note_off_c, 1, 45, 0
2, 8800, Note_off_c, 1, 64, 0
2, 8800, Note_off_c, 1, 69, 0
2, 8800, Note_off_c, 1, 73, 0
2, 8840, Note_on_c, 1, 45, 127
2, 8840, Note_on_c, 1, 64, 127
2, 8840, Note_on_c, 1, 69, 127
2, 8840, Note_on_c, 1, 73, 127
2, 9000, Note_off_c, 1, 45, 0
2, 9000, Note_off_c, 1, 64, 0
2, 9000, Note_off_c, 1, 69, 0
2, 9000, Note_off_c, 1, 73, 0
2, 9040, Note_on_c, 1, 42, 127
2, 9040, Note_on_c, 1, 69, 127
2, 9040, Note_on_c, 1, 73, 127
2, 9040, Note_on_c, 1, 78, 127
2, 9320, Note_off_c, 1, 42, 0
2, 9320, Note_off_c, 1, 69, 0
2, 9320, Note_off_c, 1, 73, 0
2, 9320, Note_off_c, 1, 78, 0
2, 9360, Note_on_c, 1, 42, 127
2, 9360, Note_on_c, 1, 73, 127
2, 9360, Note_on_c, 1, 78, 127
2, 9360, Note_on_c, 1, 81, 127
2, 9440, Note_off_c, 1, 73, 0
2, 9440, Note_off_c, 1, 78, 0
2, 9440, Note_off_c, 1, 81, 0
2, 9480, Note_on_c, 1, 73, 127
2, 9480, Note_on_c, 1, 78, 127
2, 9480, Note_on_c, 1, 81, 127
2, 9560, Note_off_c, 1, 73, 0
2, 9560, Note_off_c, 1, 78, 0
2, 9560, Note_off_c, 1, 81, 0
2, 9600, Note_off_c, 1, 42, 0
2, 9640, Note_on_c, 1, 42, 127
2, 9640, Note_on_c, 1, 73, 127
2, 9640, Note_on_c, 1, 78, 127
2, 9640, Note_on_c, 1, 81, 127
2, 9680, Note_off_c, 1, 73, 0
2, 9680, Note_off_c, 1, 78, 0
2, 9680, Note_off_c, 1, 81, 0
2, 9760, Note_off_c, 1, 42, 0
2, 9800, Note_on_c, 1, 42, 127
2, 9800, Note_on_c, 1, 73, 127
2, 9800, Note_on_c, 1, 78, 127
2, 9800, Note_on_c, 1, 81, 127
2, 9840, Note_off_c, 1, 73, 0
2, 9840, Note_off_c, 1, 78, 0
2, 9840, Note_off_c, 1, 81, 0
2, 9880, Note_off_c, 1, 42, 0
2, 9920, Note_on_c, 1, 45, 127
2, 9920, Note_on_c, 1, 69, 127
2, 9920, Note_on_c, 1, 73, 127
2, 9920, Note_on_c, 1, 78, 127
2, 10160, Note_off_c, 1, 69, 0
2, 10160, Note_off_c, 1, 73, 0
2, 10160, Note_off_c, 1, 78, 0
2, 10200, Note_off_c, 1, 45, 0
2, 10240, Note_on_c, 1, 45, 127
2, 10240, Note_on_c, 1, 69, 127
2, 10240, Note_on_c, 1, 73, 127
2, 10240, Note_on_c, 1, 78, 127
2, 10440, Note_off_c, 1, 69, 0
2, 10440, Note_off_c, 1, 73, 0
2, 10440, Note_off_c, 1, 78, 0
2, 10520, Note_on_c, 1, 69, 127
2, 10520, Note_on_c, 1, 73, 127
2, 10520, Note_on_c, 1, 78, 127
2, 10640, Note_off_c, 1, 69, 0
2, 10640, Note_off_c, 1, 73, 0
2, 10640, Note_off_c, 1, 78, 0
2, 10680, Note_on_c, 1, 57, 127
2, 10680, Note_on_c, 1, 66, 127
2, 10680, Note_on_c, 1, 78, 127
2, 10760, Note_off_c, 1, 57, 0
2, 10760, Note_off_c, 1, 66, 0
2, 10760, Note_off_c, 1, 78, 0
2, 10800, Note_off_c, 1, 45, 0
2, 10880, Note_on_c, 1, 45, 127
2, 10880, Note_on_c, 1, 72, 127
2, 10880, Note_on_c, 1, 78, 127
2, 10920, Note_off_c, 1, 72, 0
2, 10920, Note_off_c, 1, 78, 0
2, 11000, Note_off_c, 1, 45, 0
2, 11000, Note_on_c, 1, 64, 127
2, 11000, Note_on_c, 1, 70, 127
2, 11000, Note_on_c, 1, 73, 127
2, 11000, Note_on_c, 1, 76, 127
2, 11000, Note_on_c, 1, 82, 127
2, 11040, Note_off_c, 1, 64, 0
2, 11040, Note_off_c, 1, 70, 0
2, 11040, Note_off_c, 1, 73, 0
2, 11040, Note_off_c, 1, 76, 0
2, 11040, Note_off_c, 1, 82, 0
2, 11080, Note_on_c, 1, 45, 127
2, 11120, Note_off_c, 1, 45, 0
2, 11160, Note_on_c, 1, 46, 127
2, 11160, Note_on_c, 1, 73, 127
2, 11160, Note_on_c, 1, 78, 127
2, 11200, Note_off_c, 1, 73, 0
2, 11200, Note_off_c, 1, 78, 0
2, 11280, Note_off_c, 1, 46, 0
2, 11320, Note_on_c, 1, 50, 127
2, 11360, Note_off_c, 1, 50, 0
2, 11400, Note_on_c, 1, 46, 127
2, 11400, Note_on_c, 1, 67, 127
2, 11400, Note_on_c, 1, 76, 127
2, 11440, Note_off_c, 1, 46, 0
2, 11440, Note_off_c, 1, 67, 0
2, 11440, Note_off_c, 1, 76, 0
2, 11480, Note_on_c, 1, 46, 127
2, 11480, Note_on_c, 1, 67, 127
2, 11480, Note_on_c, 1, 76, 127
2, 11520, Note_off_c, 1, 46, 0
2, 11520, Note_off_c, 1, 67, 0
2, 11520, Note_off_c, 1, 76, 0
2, 11560, Note_on_c, 1, 46, 127
2, 11560, Note_on_c, 1, 67, 127
2, 11560, Note_on_c, 1, 76, 127
2, 11600, Note_off_c, 1, 46, 0
2, 11600, Note_off_c, 1, 67, 0
2, 11600, Note_off_c, 1, 76, 0
2, 11640, Note_on_c, 1, 46, 127
2, 11640, Note_on_c, 1, 67, 127
2, 11640, Note_on_c, 1, 76, 127
2, 11720, Note_off_c, 1, 46, 0
2, 11720, Note_off_c, 1, 67, 0
2, 11720, Note_off_c, 1, 76, 0
2, 11760, Note_on_c, 1, 46, 127
2, 11760, Note_on_c, 1, 67, 127
2, 11760, Note_on_c, 1, 76, 127
2, 11880, Note_off_c, 1, 46, 0
2, 11880, Note_off_c, 1, 67, 0
2, 11880, Note_off_c, 1, 76, 0
2, 11920, Note_on_c, 1, 46, 127
2, 11920, Note_on_c, 1, 67, 127
2, 11920, Note_on_c, 1, 76, 127
2, 12040, Note_off_c, 1, 46, 0
2, 12040, Note_off_c, 1, 67, 0
2, 12040, Note_off_c, 1, 76, 0
2, 12080, Note_on_c, 1, 46, 127
2, 12080, Note_on_c, 1, 67, 127
2, 12080, Note_on_c, 1, 76, 127
2, 12200, Note_off_c, 1, 46, 0
2, 12200, Note_off_c, 1, 67, 0
2, 12200, Note_off_c, 1, 76, 0
2, 12240, Note_on_c, 1, 46, 127
2, 12240, Note_on_c, 1, 67, 127
2, 12240, Note_on_c, 1, 76, 127
2, 12360, Note_off_c, 1, 46, 0
2, 12360, Note_off_c, 1, 67, 0
2, 12360, Note_off_c, 1, 76, 0
2, 12400, Note_on_c, 1, 46, 127
2, 12400, Note_on_c, 1, 67, 127
2, 12400, Note_on_c, 1, 76, 127
2, 12480, Note_off_c, 1, 46, 0
2, 12480, Note_off_c, 1, 67, 0
2, 12480, Note_off_c, 1, 76, 0
2, 12520, Note_on_c, 1, 46, 127
2, 12520, Note_on_c, 1, 67, 127
2, 12520, Note_on_c, 1, 76, 127
2, 12640, Note_off_c, 1, 46, 0
2, 12640, Note_off_c, 1, 67, 0
2, 12640, Note_off_c, 1, 76, 0
2, 12680, Note_on_c, 1, 46, 127
2, 12680, Note_on_c, 1, 67, 127
2, 12680, Note_on_c, 1, 76, 127
2, 12800, Note_off_c, 1, 46, 0
2, 12800, Note_off_c, 1, 67, 0
2, 12800, Note_off_c, 1, 76, 0
2, 12880, Note_on_c, 1, 46, 127
2, 12880, Note_on_c, 1, 67, 127
2, 12880, Note_on_c, 1, 76, 127
2, 12960, Note_off_c, 1, 46, 0
2, 12960, Note_off_c, 1, 67, 0
2, 12960, Note_off_c, 1, 76, 0
2, 13000, Note_on_c, 1, 46, 127
2, 13000, Note_on_c, 1, 67, 127
2, 13000, Note_on_c, 1, 76, 127
2, 13120, Note_off_c, 1, 46, 0
2, 13120, Note_off_c, 1, 67, 0
2, 13120, Note_off_c, 1, 76, 0
2, 13160, Note_on_c, 1, 46, 127
2, 13160, Note_on_c, 1, 67, 127
2, 13160, Note_on_c, 1, 76, 127
2, 13280, Note_off_c, 1, 46, 0
2, 13280, Note_off_c, 1, 67, 0
2, 13280, Note_off_c, 1, 76, 0
2, 13320, Note_on_c, 1, 43, 127
2, 13320, Note_on_c, 1, 67, 127
2, 13320, Note_on_c, 1, 76, 127
2, 13440, Note_off_c, 1, 67, 0
2, 13440, Note_off_c, 1, 76, 0
2, 13480, Note_on_c, 1, 55, 127
2, 13480, Note_on_c, 1, 65, 127
2, 13480, Note_on_c, 1, 74, 127
2, 13560, Note_off_c, 1, 55, 0
2, 13560, Note_off_c, 1, 65, 0
2, 13560, Note_off_c, 1, 74, 0
2, 13600, Note_on_c, 1, 62, 127
2, 13600, Note_on_c, 1, 74, 127
2, 13720, Note_off_c, 1, 62, 0
2, 13720, Note_off_c, 1, 74, 0
2, 13760, Note_off_c, 1, 43, 0
2, 13760, Note_on_c, 1, 46, 127
2, 13760, Note_on_c, 1, 67, 127
2, 13760, Note_on_c, 1, 76, 127
2, 13880, Note_off_c, 1, 46, 0
2, 13880, Note_off_c, 1, 67, 0
2, 13880, Note_off_c, 1, 76, 0
2, 13920, Note_on_c, 1, 43, 127
2, 13920, Note_on_c, 1, 67, 127
2, 13920, Note_on_c, 1, 76, 127
2, 14040, Note_off_c, 1, 43, 0
2, 14120, Note_on_c, 1, 47, 127
2, 14320, Note_off_c, 1, 47, 0
2, 14360, Note_on_c, 1, 47, 127
2, 14480, Note_off_c, 1, 47, 0
2, 14480, Note_off_c, 1, 67, 0
2, 14480, Note_off_c, 1, 76, 0
2, 14520, Note_on_c, 1, 43, 127
2, 14760, Note_off_c, 1, 43, 0
2, 14800, Note_on_c, 1, 48, 127
2, 14800, Note_on_c, 1, 62, 127
2, 14800, Note_on_c, 1, 65, 127
2, 14800, Note_on_c, 1, 71, 127
2, 14920, Note_off_c, 1, 48, 0
2, 14920, Note_off_c, 1, 62, 0
2, 14920, Note_off_c, 1, 65, 0
2, 14920, Note_off_c, 1, 71, 0
2, 14960, Note_on_c, 1, 48, 127
2, 14960, Note_on_c, 1, 62, 127
2, 14960, Note_on_c, 1, 65, 127
2, 14960, Note_on_c, 1, 71, 127
2, 15080, Note_off_c, 1, 48, 0
2, 15120, Note_on_c, 1, 48, 127
2, 15360, Note_off_c, 1, 48, 0
2, 15400, Note_off_c, 1, 62, 0
2, 15400, Note_off_c, 1, 65, 0
2, 15400, Note_off_c, 1, 71, 0
2, 15440, Note_on_c, 1, 55, 127
2, 15440, Note_on_c, 1, 62, 127
2, 15440, Note_on_c, 1, 65, 127
2, 15440, Note_on_c, 1, 67, 127
2, 15440, Note_on_c, 1, 71, 127
2, 15680, Note_off_c, 1, 55, 0
2, 15680, Note_off_c, 1, 62, 0
2, 15680, Note_off_c, 1, 65, 0
2, 15680, Note_off_c, 1, 67, 0
2, 15680, Note_off_c, 1, 71, 0
2, 15720, Note_on_c, 1, 60, 127
2, 15720, Note_on_c, 1, 64, 127
2, 15720, Note_on_c, 1, 72, 127
2, 15960, Note_on_c, 1, 71, 127
2, 15960, Note_off_c, 1, 72, 0
2, 16000, Note_off_c, 1, 60, 0
2, 16000, Note_off_c, 1, 64, 0
2, 16000, Note_off_c, 1, 71, 0
2, 16040, Note_on_c, 1, 59, 127
2, 16040, Note_on_c, 1, 64, 127
2, 16040, Note_on_c, 1, 67, 127
2, 16280, Note_off_c, 1, 59, 0
2, 16280, Note_off_c, 1, 64, 0
2, 16280, Note_off_c, 1, 67, 0
2, 16320, Note_on_c, 1, 55, 127
2, 16320, Note_on_c, 1, 62, 127
2, 16320, Note_on_c, 1, 67, 127
2, 16320, Note_on_c, 1, 71, 127
2, 16600, Note_off_c, 1, 55, 0
2, 16600, Note_off_c, 1, 62, 0
2, 16600, Note_off_c, 1, 67, 0
2, 16600, Note_off_c, 1, 71, 0
2, 16640, Note_on_c, 1, 59, 127
2, 16640, Note_on_c, 1, 62, 127
2, 16640, Note_on_c, 1, 67, 127
2, 16640, Note_on_c, 1, 71, 127
2, 16840, Note_off_c, 1, 59, 0
2, 16840, Note_off_c, 1, 62, 0
2, 16840, Note_off_c, 1, 67, 0
2, 16840, Note_off_c, 1, 71, 0
2, 16960, Note_on_c, 1, 42, 127
2, 16960, Note_on_c, 1, 50, 127
2, 16960, Note_on_c, 1, 54, 127
2, 16960, Note_on_c, 1, 57, 127
2, 16960, Note_on_c, 1, 62, 127
2, 16960, Note_on_c, 1, 69, 127
2, 17200, Note_off_c, 1, 42, 0
2, 17200, Note_off_c, 1, 50, 0
2, 17200, Note_off_c, 1, 54, 0
2, 17200, Note_off_c, 1, 57, 0
2, 17200, Note_off_c, 1, 62, 0
2, 17200, Note_off_c, 1, 69, 0
2, 17240, Note_on_c, 1, 43, 127
2, 17240, Note_on_c, 1, 50, 127
2, 17240, Note_on_c, 1, 55, 127
2, 17240, Note_on_c, 1, 59, 127
2, 17240, Note_on_c, 1, 62, 127
2, 17240, Note_on_c, 1, 71, 127
2, 17520, Note_off_c, 1, 43, 0
2, 17520, Note_off_c, 1, 50, 0
2, 17520, Note_off_c, 1, 55, 0
2, 17520, Note_off_c, 1, 59, 0
2, 17520, Note_off_c, 1, 62, 0
2, 17520, Note_off_c, 1, 71, 0
2, 17560, Note_on_c, 1, 43, 127
2, 17560, Note_on_c, 1, 50, 127
2, 17560, Note_on_c, 1, 55, 127
2, 17560, Note_on_c, 1, 59, 127
2, 17560, Note_on_c, 1, 62, 127
2, 17560, Note_on_c, 1, 71, 127
2, 17800, Note_off_c, 1, 43, 0
2, 17800, Note_off_c, 1, 50, 0
2, 17800, Note_off_c, 1, 55, 0
2, 17800, Note_off_c, 1, 59, 0
2, 17800, Note_off_c, 1, 62, 0
2, 17800, Note_off_c, 1, 71, 0
2, 17840, Note_on_c, 1, 43, 127
2, 17840, Note_on_c, 1, 50, 127
2, 17840, Note_on_c, 1, 55, 127
2, 17840, Note_on_c, 1, 59, 127
2, 17840, Note_on_c, 1, 62, 127
2, 17840, Note_on_c, 1, 71, 127
2, 18400, Note_off_c, 1, 43, 0
2, 18400, Note_off_c, 1, 50, 0
2, 18400, Note_off_c, 1, 55, 0
2, 18400, Note_off_c, 1, 59, 0
2, 18400, Note_off_c, 1, 62, 0
2, 18400, Note_off_c, 1, 71, 0
2, 18440, Note_on_c, 1, 43, 127
2, 18440, Note_on_c, 1, 50, 127
2, 18440, Note_on_c, 1, 55, 127
2, 18440, Note_on_c, 1, 59, 127
2, 18440, Note_on_c, 1, 62, 127
2, 18440, Note_on_c, 1, 71, 127
2, 18840, Note_off_c, 1, 43, 0
2, 18840, Note_off_c, 1, 50, 0
2, 18840, Note_off_c, 1, 55, 0
2, 18840, Note_off_c, 1, 59, 0
2, 18840, Note_off_c, 1, 62, 0
2, 18840, Note_off_c, 1, 71, 0
2, 18920, Note_on_c, 1, 43, 127
2, 18920, Note_on_c, 1, 50, 127
2, 18920, Note_on_c, 1, 55, 127
2, 18920, Note_on_c, 1, 59, 127
2, 18920, Note_on_c, 1, 62, 127
2, 18920, Note_on_c, 1, 71, 127
2, 19040, Note_off_c, 1, 43, 0
2, 19040, Note_off_c, 1, 50, 0
2, 19040, Note_off_c, 1, 55, 0
2, 19040, Note_off_c, 1, 59, 0
2, 19040, Note_off_c, 1, 62, 0
2, 19040, Note_off_c, 1, 71, 0
2, 19080, Note_on_c, 1, 43, 127
2, 19080, Note_on_c, 1, 50, 127
2, 19080, Note_on_c, 1, 55, 127
2, 19080, Note_on_c, 1, 59, 127
2, 19080, Note_on_c, 1, 62, 127
2, 19080, Note_on_c, 1, 71, 127
2, 19320, Note_off_c, 1, 43, 0
2, 19320, Note_off_c, 1, 50, 0
2, 19320, Note_off_c, 1, 55, 0
2, 19320, Note_off_c, 1, 59, 0
2, 19320, Note_off_c, 1, 62, 0
2, 19320, Note_off_c, 1, 71, 0
2, 19360, Note_on_c, 1, 43, 127
2, 19360, Note_on_c, 1, 50, 127
2, 19360, Note_on_c, 1, 55, 127
2, 19360, Note_on_c, 1, 59, 127
2, 19360, Note_on_c, 1, 62, 127
2, 19360, Note_on_c, 1, 71, 127
2, 19640, Note_off_c, 1, 43, 0
2, 19640, Note_off_c, 1, 50, 0
2, 19640, Note_off_c, 1, 55, 0
2, 19640, Note_off_c, 1, 59, 0
2, 19640, Note_off_c, 1, 62, 0
2, 19640, Note_off_c, 1, 71, 0
2, 19680, Note_on_c, 1, 43, 127
2, 19680, Note_on_c, 1, 50, 127
2, 19680, Note_on_c, 1, 55, 127
2, 19680, Note_on_c, 1, 59, 127
2, 19680, Note_on_c, 1, 62, 127
2, 19680, Note_on_c, 1, 71, 127
2, 19920, Note_off_c, 1, 43, 0
2, 19920, Note_off_c, 1, 50, 0
2, 19920, Note_off_c, 1, 55, 0
2, 19920, Note_off_c, 1, 59, 0
2, 19920, Note_off_c, 1, 62, 0
2, 19920, Note_off_c, 1, 71, 0
2, 19960, Note_on_c, 1, 43, 127
2, 19960, Note_on_c, 1, 50, 127
2, 19960, Note_on_c, 1, 55, 127
2, 19960, Note_on_c, 1, 59, 127
2, 19960, Note_on_c, 1, 62, 127
2, 19960, Note_on_c, 1, 71, 127
2, 20520, Note_off_c, 1, 43, 0
2, 20520, Note_off_c, 1, 50, 0
2, 20520, Note_off_c, 1, 55, 0
2, 20520, Note_off_c, 1, 59, 0
2, 20520, Note_off_c, 1, 62, 0
2, 20520, Note_off_c, 1, 71, 0
2, 20560, Note_on_c, 1, 43, 127
2, 20560, Note_on_c, 1, 50, 127
2, 20560, Note_on_c, 1, 55, 127
2, 20560, Note_on_c, 1, 59, 127
2, 20560, Note_on_c, 1, 62, 127
2, 20560, Note_on_c, 1, 71, 127
2, 20720, Note_off_c, 1, 43, 0
2, 20720, Note_off_c, 1, 50, 0
2, 20720, Note_off_c, 1, 55, 0
2, 20720, Note_off_c, 1, 59, 0
2, 20720, Note_off_c, 1, 62, 0
2, 20720, Note_off_c, 1, 71, 0
2, 20760, Note_on_c, 1, 43, 127
2, 20760, Note_on_c, 1, 50, 127
2, 20760, Note_on_c, 1, 55, 127
2, 20760, Note_on_c, 1, 59, 127
2, 20760, Note_on_c, 1, 62, 127
2, 20760, Note_on_c, 1, 71, 127
2, 21160, Note_off_c, 1, 43, 0
2, 21160, Note_off_c, 1, 50, 0
2, 21160, Note_off_c, 1, 55, 0
2, 21160, Note_off_c, 1, 59, 0
2, 21160, Note_off_c, 1, 62, 0
2, 21160, Note_off_c, 1, 71, 0
2, 21200, Note_on_c, 1, 43, 127
2, 21200, Note_on_c, 1, 50, 127
2, 21200, Note_on_c, 1, 55, 127
2, 21200, Note_on_c, 1, 59, 127
2, 21200, Note_on_c, 1, 62, 127
2, 21200, Note_on_c, 1, 71, 127
2, 22040, Note_off_c, 1, 43, 0
2, 22040, Note_off_c, 1, 50, 0
2, 22040, Note_off_c, 1, 55, 0
2, 22040, Note_off_c, 1, 59, 0
2, 22040, Note_off_c, 1, 62, 0
2, 22040, Note_off_c, 1, 71, 0
2, 22080, Note_on_c, 1, 43, 127
2, 22080, Note_on_c, 1, 50, 127
2, 22080, Note_on_c, 1, 55, 127
2, 22080, Note_on_c, 1, 59, 127
2, 22080, Note_on_c, 1, 62, 127
2, 22080, Note_on_c, 1, 71, 127
2, 22600, Note_off_c, 1, 43, 0
2, 22600, Note_off_c, 1, 50, 0
2, 22600, Note_off_c, 1, 55, 0
2, 22600, Note_off_c, 1, 59, 0
2, 22600, Note_off_c, 1, 62, 0
2, 22600, Note_off_c, 1, 71, 0
2, 22640, Note_on_c, 1, 43, 127
2, 22640, Note_on_c, 1, 50, 127
2, 22640, Note_on_c, 1, 55, 127
2, 22640, Note_on_c, 1, 59, 127
2, 22640, Note_on_c, 1, 62, 127
2, 22640, Note_on_c, 1, 71, 127
2, 22800, Note_off_c, 1, 43, 0
2, 22800, Note_off_c, 1, 50, 0
2, 22800, Note_off_c, 1, 55, 0
2, 22800, Note_off_c, 1, 59, 0
2, 22800, Note_off_c, 1, 62, 0
2, 22800, Note_off_c, 1, 71, 0
2, 22840, Note_on_c, 1, 43, 127
2, 22840, Note_on_c, 1, 50, 127
2, 22840, Note_on_c, 1, 55, 127
2, 22840, Note_on_c, 1, 59, 127
2, 22840, Note_on_c, 1, 62, 127
2, 22840, Note_on_c, 1, 71, 127
2, 23240, Note_off_c, 1, 55, 0
2, 23240, Note_off_c, 1, 62, 0
2, 23240, Note_off_c, 1, 71, 0
2, 23280, Note_on_c, 1, 74, 127
2, 23680, Note_off_c, 1, 74, 0
2, 23720, Note_on_c, 1, 74, 127
2, 23840, Note_off_c, 1, 43, 0
2, 23840, Note_off_c, 1, 50, 0
2, 23840, Note_off_c, 1, 59, 0
2, 23840, Note_off_c, 1, 74, 0
2, 23880, Note_on_c, 1, 43, 127
2, 23880, Note_on_c, 1, 50, 127
2, 23880, Note_on_c, 1, 59, 127
2, 23880, Note_on_c, 1, 64, 127
2, 24440, Note_off_c, 1, 43, 0
2, 24440, Note_off_c, 1, 50, 0
2, 24440, Note_off_c, 1, 59, 0
2, 24440, Note_off_c, 1, 64, 0
2, 24480, Note_on_c, 1, 45, 127
2, 24480, Note_on_c, 1, 54, 127
2, 24480, Note_on_c, 1, 63, 127
2, 24480, Note_on_c, 1, 66, 127
2, 24480, Note_on_c, 1, 75, 127
2, 24880, Note_off_c, 1, 63, 0
2, 24880, Note_off_c, 1, 66, 0
2, 24880, Note_off_c, 1, 75, 0
2, 24920, Note_on_c, 1, 44, 127
2, 24920, Note_off_c, 1, 45, 0
2, 24920, Note_on_c, 1, 53, 127
2, 24920, Note_off_c, 1, 54, 0
2, 24920, Note_on_c, 1, 62, 127
2, 24920, Note_on_c, 1, 65, 127
2, 24920, Note_on_c, 1, 74, 127
2, 25040, Note_off_c, 1, 44, 0
2, 25040, Note_off_c, 1, 53, 0
2, 25040, Note_off_c, 1, 62, 0
2, 25040, Note_off_c, 1, 65, 0
2, 25040, Note_off_c, 1, 74, 0
2, 25120, Note_on_c, 1, 44, 127
2, 25120, Note_on_c, 1, 53, 127
2, 25120, Note_on_c, 1, 62, 127
2, 25120, Note_on_c, 1, 65, 127
2, 25120, Note_on_c, 1, 74, 127
2, 25360, Note_off_c, 1, 44, 0
2, 25360, Note_off_c, 1, 53, 0
2, 25360, Note_off_c, 1, 62, 0
2, 25360, Note_off_c, 1, 65, 0
2, 25360, Note_off_c, 1, 74, 0
2, 25400, Note_on_c, 1, 44, 127
2, 25400, Note_on_c, 1, 53, 127
2, 25400, Note_on_c, 1, 62, 127
2, 25400, Note_on_c, 1, 65, 127
2, 25400, Note_on_c, 1, 74, 127
2, 25680, Note_off_c, 1, 44, 0
2, 25680, Note_off_c, 1, 53, 0
2, 25680, Note_off_c, 1, 62, 0
2, 25680, Note_off_c, 1, 65, 0
2, 25680, Note_off_c, 1, 74, 0
2, 25720, Note_on_c, 1, 44, 127
2, 25720, Note_on_c, 1, 53, 127
2, 25720, Note_on_c, 1, 62, 127
2, 25720, Note_on_c, 1, 65, 127
2, 25720, Note_on_c, 1, 74, 127
2, 25960, Note_off_c, 1, 44, 0
2, 25960, Note_off_c, 1, 53, 0
2, 25960, Note_off_c, 1, 62, 0
2, 25960, Note_off_c, 1, 65, 0
2, 25960, Note_off_c, 1, 74, 0
2, 26000, Note_on_c, 1, 43, 127
2, 26000, Note_on_c, 1, 55, 127
2, 26000, Note_on_c, 1, 60, 127
2, 26000, Note_on_c, 1, 64, 127
2, 26000, Note_on_c, 1, 72, 127
2, 26280, Note_off_c, 1, 43, 0
2, 26280, Note_off_c, 1, 55, 0
2, 26280, Note_off_c, 1, 60, 0
2, 26280, Note_off_c, 1, 64, 0
2, 26280, Note_off_c, 1, 72, 0
2, 26320, Note_on_c, 1, 43, 127
2, 26320, Note_on_c, 1, 53, 127
2, 26320, Note_on_c, 1, 55, 127
2, 26320, Note_on_c, 1, 59, 127
2, 26320, Note_on_c, 1, 62, 127
2, 26320, Note_on_c, 1, 71, 127
2, 26520, Note_off_c, 1, 43, 0
2, 26520, Note_off_c, 1, 53, 0
2, 26520, Note_off_c, 1, 55, 0
2, 26520, Note_off_c, 1, 59, 0
2, 26520, Note_off_c, 1, 62, 0
2, 26520, Note_off_c, 1, 71, 0
2, 26600, Note_on_c, 1, 48, 127
2, 26600, Note_on_c, 1, 52, 127
2, 26600, Note_on_c, 1, 55, 127
2, 26600, Note_on_c, 1, 60, 127
2, 26600, Note_on_c, 1, 64, 127
2, 26600, Note_on_c, 1, 72, 127
2, 27040, Note_off_c, 1, 48, 0
2, 27040, Note_off_c, 1, 52, 0
2, 27040, Note_off_c, 1, 55, 0
2, 27040, Note_off_c, 1, 60, 0
2, 27040, Note_off_c, 1, 64, 0
2, 27040, Note_off_c, 1, 72, 0
2, 27080, Note_on_c, 1, 48, 127
2, 27080, Note_on_c, 1, 52, 127
2, 27080, Note_on_c, 1, 55, 127
2, 27080, Note_on_c, 1, 60, 127
2, 27080, Note_on_c, 1, 64, 127
2, 27080, Note_on_c, 1, 72, 127
2, 27320, Note_off_c, 1, 48, 0
2, 27320, Note_off_c, 1, 52, 0
2, 27320, Note_off_c, 1, 55, 0
2, 27320, Note_off_c, 1, 60, 0
2, 27320, Note_off_c, 1, 64, 0
2, 27320, Note_off_c, 1, 72, 0
2, 27360, Note_on_c, 1, 55, 127
2, 27360, Note_on_c, 1, 79, 127
2, 27480, Note_off_c, 1, 55, 0
2, 27480, Note_off_c, 1, 79, 0
2, 27520, Note_on_c, 1, 48, 127
2, 27520, Note_on_c, 1, 55, 127
2, 27520, Note_on_c, 1, 76, 127
2, 27520, Note_on_c, 1, 79, 127
2, 27520, Note_on_c, 1, 84, 127
2, 27760, Note_off_c, 1, 55, 0
2, 27760, Note_off_c, 1, 76, 0
2, 27760, Note_off_c, 1, 79, 0
2, 27760, Note_off_c, 1, 84, 0
2, 27800, Note_on_c, 1, 55, 127
2, 27800, Note_on_c, 1, 76, 127
2, 27800, Note_on_c, 1, 79, 127
2, 27800, Note_on_c, 1, 84, 127
2, 28200, Note_off_c, 1, 84, 0
2, 28240, Note_on_c, 1, 86, 127
2, 28360, Note_off_c, 1, 48, 0
2, 28360, Note_off_c, 1, 55, 0
2, 28360, Note_off_c, 1, 76, 0
2, 28360, Note_off_c, 1, 79, 0
2, 28360, Note_off_c, 1, 86, 0
2, 28400, Note_on_c, 1, 50, 127
2, 28400, Note_on_c, 1, 55, 127
2, 28400, Note_on_c, 1, 77, 127
2, 28400, Note_on_c, 1, 79, 127
2, 28400, Note_on_c, 1, 84, 127
2, 28640, Note_off_c, 1, 55, 0
2, 28640, Note_off_c, 1, 77, 0
2, 28640, Note_off_c, 1, 79, 0
2, 28640, Note_off_c, 1, 84, 0
2, 28680, Note_on_c, 1, 55, 127
2, 28680, Note_on_c, 1, 77, 127
2, 28680, Note_on_c, 1, 79, 127
2, 28680, Note_on_c, 1, 83, 127
2, 29000, Note_off_c, 1, 50, 0
2, 29000, Note_off_c, 1, 55, 0
2, 29000, Note_off_c, 1, 77, 0
2, 29000, Note_off_c, 1, 79, 0
2, 29000, Note_off_c, 1, 83, 0
2, 29040, Note_on_c, 1, 50, 127
2, 29040, Note_on_c, 1, 55, 127
2, 29040, Note_on_c, 1, 77, 127
2, 29040, Note_on_c, 1, 79, 127
2, 29040, Note_on_c, 1, 83, 127
2, 29120, Note_off_c, 1, 83, 0
2, 29160, Note_on_c, 1, 86, 127
2, 29280, Note_off_c, 1, 50, 0
2, 29280, Note_off_c, 1, 55, 0
2, 29280, Note_off_c, 1, 77, 0
2, 29280, Note_off_c, 1, 79, 0
2, 29280, Note_off_c, 1, 86, 0
2, 29320, Note_on_c, 1, 52, 127
2, 29320, Note_on_c, 1, 55, 127
2, 29320, Note_on_c, 1, 86, 127
2, 29560, Note_off_c, 1, 55, 0
2, 29560, Note_off_c, 1, 86, 0
2, 29600, Note_on_c, 1, 55, 127
2, 29600, Note_on_c, 1, 74, 127
2, 29840, Note_off_c, 1, 55, 0
2, 29840, Note_off_c, 1, 74, 0
2, 29880, Note_on_c, 1, 55, 127
2, 29880, Note_on_c, 1, 67, 127
2, 29880, Note_on_c, 1, 72, 127
2, 30160, Note_off_c, 1, 52, 0
2, 30160, Note_off_c, 1, 55, 0
2, 30160, Note_off_c, 1, 67, 0
2, 30160, Note_off_c, 1, 72, 0
2, 30200, Note_on_c, 1, 47, 127
2, 30200, Note_on_c, 1, 55, 127
2, 30200, Note_on_c, 1, 65, 127
2, 30200, Note_on_c, 1, 67, 127
2, 30200, Note_on_c, 1, 74, 127
2, 30440, Note_off_c, 1, 47, 0
2, 30440, Note_off_c, 1, 55, 0
2, 30440, Note_off_c, 1, 65, 0
2, 30440, Note_off_c, 1, 67, 0
2, 30440, Note_off_c, 1, 74, 0
2, 30480, Note_on_c, 1, 55, 127
2, 30480, Note_on_c, 1, 79, 127
2, 30760, Note_off_c, 1, 55, 0
2, 30760, Note_off_c, 1, 79, 0
2, 30800, Note_on_c, 1, 60, 127
2, 30800, Note_on_c, 1, 64, 127
2, 30800, Note_on_c, 1, 67, 127
2, 30800, Note_on_c, 1, 78, 127
2, 31040, Note_off_c, 1, 78, 0
2, 31080, Note_on_c, 1, 78, 127
2, 31200, Note_off_c, 1, 60, 0
2, 31200, Note_off_c, 1, 64, 0
2, 31200, Note_off_c, 1, 67, 0
2, 31200, Note_off_c, 1, 78, 0
2, 31240, Note_on_c, 1, 60, 127
2, 31240, Note_on_c, 1, 64, 127
2, 31240, Note_on_c, 1, 67, 127
2, 31240, Note_on_c, 1, 78, 127
2, 31400, Note_off_c, 1, 60, 0
2, 31400, Note_off_c, 1, 64, 0
2, 31400, Note_off_c, 1, 67, 0
2, 31400, Note_off_c, 1, 78, 0
2, 31440, Note_on_c, 1, 60, 127
2, 31440, Note_on_c, 1, 64, 127
2, 31440, Note_on_c, 1, 67, 127
2, 31680, Note_off_c, 1, 60, 0
2, 31680, Note_off_c, 1, 64, 0
2, 31680, Note_off_c, 1, 67, 0
2, 31720, Note_on_c, 1, 60, 127
2, 31720, Note_on_c, 1, 64, 127
2, 31720, Note_on_c, 1, 67, 127
2, 31720, Note_on_c, 1, 88, 127
2, 32000, Note_off_c, 1, 88, 0
2, 32040, Note_on_c, 1, 88, 127
2, 32240, Note_off_c, 1, 88, 0
2, 32280, Note_on_c, 1, 88, 127
2, 32400, Note_off_c, 1, 88, 0
2, 32440, Note_on_c, 1, 88, 127
2, 32560, Note_off_c, 1, 60, 0
2, 32560, Note_off_c, 1, 64, 0
2, 32560, Note_off_c, 1, 67, 0
2, 32560, Note_off_c, 1, 88, 0
2, 32600, Note_on_c, 1, 60, 127
2, 32600, Note_on_c, 1, 64, 127
2, 32600, Note_on_c, 1, 67, 127
2, 32600, Note_on_c, 1, 88, 127
2, 33000, Note_off_c, 1, 88, 0
2, 33040, Note_on_c, 1, 88, 127
2, 33160, Note_off_c, 1, 88, 0
2, 33200, Note_off_c, 1, 60, 0
2, 33200, Note_off_c, 1, 64, 0
2, 33200, Note_off_c, 1, 67, 0
2, 33240, Note_on_c, 1, 60, 127
2, 33240, Note_on_c, 1, 64, 127
2, 33240, Note_on_c, 1, 67, 127
2, 33240, Note_on_c, 1, 88, 127
2, 33640, Note_off_c, 1, 88, 0
2, 33680, Note_on_c, 1, 88, 127
2, 33760, Note_off_c, 1, 60, 0
2, 33760, Note_off_c, 1, 64, 0
2, 33760, Note_off_c, 1, 67, 0
2, 33760, Note_off_c, 1, 88, 0
2, 33800, Note_on_c, 1, 91, 127
2, 34960, Note_off_c, 1, 91, 0
2, 35000, Note_on_c, 1, 67, 127
2, 35200, Note_off_c, 1, 67, 0
2, 35240, Note_on_c, 1, 67, 127
2, 35600, Note_off_c, 1, 67, 0
2, 35640, Note_on_c, 1, 59, 127
2, 35880, Note_off_c, 1, 59, 0
2, 35920, Note_on_c, 1, 72, 127
2, 36480, Note_off_c, 1, 72, 0
2, 48840, Note_on_c, 1, 65, 127
2, 48840, Note_on_c, 1, 68, 127
2, 48840, Note_on_c, 1, 73, 127
2, 49240, Note_off_c, 1, 73, 0
2, 49280, Note_on_c, 1, 63, 127
2, 49280, Note_off_c, 1, 65, 0
2, 49280, Note_on_c, 1, 66, 127
2, 49280, Note_on_c, 1, 72, 127
2, 49680, Note_off_c, 1, 72, 0
2, 49720, Note_on_c, 1, 72, 127
2, 49840, Note_off_c, 1, 63, 0
2, 49840, Note_off_c, 1, 66, 0
2, 49840, Note_off_c, 1, 68, 0
2, 49840, Note_off_c, 1, 72, 0
2, 49880, Note_on_c, 1, 61, 127
2, 49880, Note_on_c, 1, 65, 127
2, 49880, Note_on_c, 1, 68, 127
2, 50440, Note_off_c, 1, 61, 0
2, 50440, Note_off_c, 1, 65, 0
2, 50440, Note_off_c, 1, 68, 0
2, 50480, Note_on_c, 1, 61, 127
2, 50480, Note_on_c, 1, 65, 127
2, 51040, Note_off_c, 1, 61, 0
2, 51040, Note_off_c, 1, 65, 0
2, 51120, Note_on_c, 1, 61, 127
2, 51120, Note_on_c, 1, 65, 127
2, 51680, Note_off_c, 1, 61, 0
2, 51680, Note_off_c, 1, 65, 0
2, 51720, Note_on_c, 1, 56, 127
2, 51720, Note_on_c, 1, 61, 127
2, 51720, Note_on_c, 1, 63, 127
2, 52120, Note_off_c, 1, 63, 0
2, 52160, Note_on_c, 1, 64, 127
2, 52240, Note_off_c, 1, 64, 0
2, 52320, Note_on_c, 1, 65, 127
2, 52560, Note_off_c, 1, 56, 0
2, 52600, Note_on_c, 1, 73, 127
2, 52720, Note_off_c, 1, 73, 0
2, 52760, Note_on_c, 1, 68, 127
2, 52880, Note_off_c, 1, 61, 0
2, 52880, Note_off_c, 1, 65, 0
2, 52880, Note_off_c, 1, 68, 0
2, 52920, Note_on_c, 1, 61, 127
2, 52920, Note_on_c, 1, 65, 127
2, 52920, Note_on_c, 1, 68, 127
2, 52920, Note_on_c, 1, 72, 127
2, 53040, Note_off_c, 1, 61, 0
2, 53040, Note_off_c, 1, 65, 0
2, 53040, Note_off_c, 1, 68, 0
2, 53040, Note_off_c, 1, 72, 0
2, 53080, Note_on_c, 1, 61, 127
2, 53080, Note_on_c, 1, 65, 127
2, 53080, Note_on_c, 1, 68, 127
2, 53080, Note_on_c, 1, 72, 127
2, 53360, Note_off_c, 1, 72, 0
2, 53400, Note_on_c, 1, 70, 127
2, 53520, Note_off_c, 1, 61, 0
2, 53520, Note_off_c, 1, 65, 0
2, 53520, Note_off_c, 1, 68, 0
2, 53520, Note_off_c, 1, 70, 0
2, 53560, Note_on_c, 1, 61, 127
2, 53560, Note_on_c, 1, 65, 127
2, 53560, Note_on_c, 1, 68, 127
2, 53560, Note_on_c, 1, 70, 127
2, 53960, Note_off_c, 1, 65, 0
2, 53960, Note_on_c, 1, 66, 127
2, 53960, Note_off_c, 1, 68, 0
2, 54000, Note_on_c, 1, 49, 127
2, 54120, Note_off_c, 1, 49, 0
2, 54120, Note_off_c, 1, 61, 0
2, 54120, Note_off_c, 1, 66, 0
2, 54120, Note_off_c, 1, 70, 0
2, 54160, Note_on_c, 1, 56, 127
2, 54160, Note_on_c, 1, 68, 127
2, 54160, Note_on_c, 1, 72, 127
2, 54160, Note_on_c, 1, 75, 127
2, 54400, Note_off_c, 1, 56, 0
2, 54400, Note_off_c, 1, 68, 0
2, 54400, Note_off_c, 1, 72, 0
2, 54400, Note_off_c, 1, 75, 0
2, 54440, Note_on_c, 1, 61, 127
2, 54440, Note_on_c, 1, 68, 127
2, 54440, Note_on_c, 1, 73, 127
2, 54440, Note_on_c, 1, 77, 127
2, 55000, Note_off_c, 1, 77, 0
2, 55040, Note_off_c, 1, 61, 0
2, 55040, Note_off_c, 1, 68, 0
2, 55040, Note_off_c, 1, 73, 0
2, 55120, Note_on_c, 1, 56, 127
2, 55120, Note_on_c, 1, 66, 127
2, 55120, Note_on_c, 1, 72, 127
2, 55120, Note_on_c, 1, 75, 127
2, 55680, Note_off_c, 1, 56, 0
2, 55680, Note_off_c, 1, 66, 0
2, 55680, Note_off_c, 1, 72, 0
2, 55680, Note_off_c, 1, 75, 0
2, 55720, Note_on_c, 1, 61, 127
2, 55720, Note_on_c, 1, 65, 127
2, 55720, Note_on_c, 1, 68, 127
2, 55720, Note_on_c, 1, 77, 127
2, 56280, Note_off_c, 1, 61, 0
2, 56280, Note_off_c, 1, 65, 0
2, 56280, Note_off_c, 1, 68, 0
2, 56280, Note_off_c, 1, 77, 0
2, 56320, Note_on_c, 1, 61, 127
2, 56320, Note_on_c, 1, 65, 127
2, 56320, Note_on_c, 1, 68, 127
2, 56320, Note_on_c, 1, 77, 127
2, 56880, Note_off_c, 1, 61, 0
2, 56880, Note_off_c, 1, 65, 0
2, 56880, Note_off_c, 1, 68, 0
2, 56880, Note_off_c, 1, 77, 0
2, 56920, Note_on_c, 1, 61, 127
2, 56920, Note_on_c, 1, 65, 127
2, 56920, Note_on_c, 1, 68, 127
2, 56920, Note_on_c, 1, 77, 127
2, 57240, Note_off_c, 1, 61, 0
2, 57240, Note_off_c, 1, 65, 0
2, 57240, Note_off_c, 1, 68, 0
2, 57240, Note_off_c, 1, 77, 0
2, 57280, Note_on_c, 1, 61, 127
2, 57280, Note_on_c, 1, 65, 127
2, 57280, Note_on_c, 1, 68, 127
2, 57280, Note_on_c, 1, 77, 127
2, 57360, Note_off_c, 1, 77, 0
2, 57400, Note_on_c, 1, 79, 127
2, 57520, Note_off_c, 1, 61, 0
2, 57520, Note_off_c, 1, 65, 0
2, 57520, Note_off_c, 1, 68, 0
2, 57520, Note_off_c, 1, 79, 0
2, 57560, Note_on_c, 1, 61, 127
2, 57560, Note_on_c, 1, 65, 127
2, 57560, Note_on_c, 1, 68, 127
2, 57560, Note_on_c, 1, 72, 127
2, 58120, Note_off_c, 1, 72, 0
2, 58160, Note_on_c, 1, 70, 127
2, 58560, Note_off_c, 1, 61, 0
2, 58560, Note_off_c, 1, 65, 0
2, 58560, Note_off_c, 1, 68, 0
2, 58560, Note_off_c, 1, 70, 0
2, 67200, Note_on_c, 1, 52, 127
2, 67760, Note_off_c, 1, 52, 0
2, 67800, Note_on_c, 1, 57, 127
2, 68400, Note_on_c, 1, 45, 127
2, 68400, Note_on_c, 1, 60, 127
2, 68400, Note_on_c, 1, 69, 127
2, 68960, Note_off_c, 1, 45, 0
2, 68960, Note_off_c, 1, 57, 0
2, 68960, Note_off_c, 1, 69, 0
2, 69000, Note_on_c, 1, 47, 127
2, 69000, Note_on_c, 1, 57, 127
2, 69000, Note_off_c, 1, 60, 0
2, 69280, Note_on_c, 1, 59, 127
2, 69400, Note_off_c, 1, 47, 0
2, 69400, Note_off_c, 1, 57, 0
2, 69400, Note_off_c, 1, 59, 0
2, 69440, Note_on_c, 1, 47, 127
2, 69440, Note_on_c, 1, 57, 127
2, 69440, Note_on_c, 1, 59, 127
2, 69560, Note_on_c, 1, 46, 127
2, 69560, Note_off_c, 1, 47, 0
2, 69560, Note_on_c, 1, 54, 127
2, 69560, Note_off_c, 1, 57, 0
2, 69560, Note_on_c, 1, 58, 127
2, 69560, Note_off_c, 1, 59, 0
2, 69600, Note_off_c, 1, 46, 0
2, 69600, Note_on_c, 1, 47, 127
2, 69600, Note_off_c, 1, 54, 0
2, 69600, Note_off_c, 1, 58, 0
2, 69600, Note_on_c, 1, 59, 127
2, 69640, Note_on_c, 1, 57, 127
2, 70200, Note_off_c, 1, 47, 0
2, 70200, Note_off_c, 1, 57, 0
2, 70200, Note_off_c, 1, 59, 0
2, 70240, Note_on_c, 1, 45, 127
2, 70240, Note_on_c, 1, 57, 127
2, 70760, Note_off_c, 1, 45, 0
2, 70800, Note_on_c, 1, 45, 127
2, 71080, Note_off_c, 1, 45, 0
2, 71080, Note_off_c, 1, 57, 0
2, 71120, Note_on_c, 1, 52, 127
2, 71440, Note_off_c, 1, 52, 0
2, 71480, Note_on_c, 1, 52, 127
2, 71800, Note_on_c, 1, 40, 127
2, 71800, Note_on_c, 1, 56, 127
2, 71800, Note_on_c, 1, 59, 127
2, 72320, Note_off_c, 1, 40, 0
2, 72320, Note_off_c, 1, 52, 0
2, 72320, Note_off_c, 1, 56, 0
2, 72320, Note_off_c, 1, 59, 0
2, 72400, Note_on_c, 1, 33, 127
2, 72640, Note_off_c, 1, 33, 0
2, 73280, Note_on_c, 1, 25, 127
2, 73480, Note_off_c, 1, 25, 0
2, 73520, Note_on_c, 1, 25, 127
2, 73720, Note_off_c, 1, 25, 0
2, 74720, Note_on_c, 1, 55, 127
2, 74720, Note_on_c, 1, 58, 127
2, 74720, Note_on_c, 1, 62, 127
2, 74720, Note_on_c, 1, 67, 127
2, 74720, Note_on_c, 1, 70, 127
2, 75720, Note_off_c, 1, 55, 0
2, 75720, Note_off_c, 1, 58, 0
2, 75720, Note_off_c, 1, 62, 0
2, 75720, Note_off_c, 1, 67, 0
2, 75720, Note_off_c, 1, 70, 0
2, 75760, Note_on_c, 1, 55, 127
2, 75760, Note_on_c, 1, 58, 127
2, 75760, Note_on_c, 1, 62, 127
2, 75760, Note_on_c, 1, 67, 127
2, 75760, Note_on_c, 1, 70, 127
2, 75880, Note_off_c, 1, 55, 0
2, 75880, Note_off_c, 1, 58, 0
2, 75880, Note_off_c, 1, 62, 0
2, 75880, Note_off_c, 1, 67, 0
2, 75880, Note_off_c, 1, 70, 0
2, 75960, Note_on_c, 1, 55, 127
2, 75960, Note_on_c, 1, 58, 127
2, 75960, Note_on_c, 1, 62, 127
2, 75960, Note_on_c, 1, 67, 127
2, 75960, Note_on_c, 1, 70, 127
2, 77120, Note_off_c, 1, 55, 0
2, 77120, Note_off_c, 1, 58, 0
2, 77120, Note_off_c, 1, 62, 0
2, 77120, Note_off_c, 1, 67, 0
2, 77120, Note_off_c, 1, 70, 0
2, 77160, Note_on_c, 1, 41, 127
2, 77160, Note_on_c, 1, 48, 127
2, 77160, Note_on_c, 1, 57, 127
2, 77160, Note_on_c, 1, 63, 127
2, 77760, Note_off_c, 1, 41, 0
2, 77760, Note_off_c, 1, 48, 0
2, 77760, Note_off_c, 1, 57, 0
2, 77760, Note_off_c, 1, 63, 0
2, 77800, Note_on_c, 1, 41, 127
2, 77800, Note_on_c, 1, 48, 127
2, 77800, Note_on_c, 1, 57, 127
2, 77800, Note_on_c, 1, 63, 127
2, 78960, Note_off_c, 1, 41, 0
2, 78960, Note_off_c, 1, 48, 0
2, 78960, Note_off_c, 1, 57, 0
2, 78960, Note_off_c, 1, 63, 0
2, 79000, Note_on_c, 1, 43, 127
2, 79000, Note_on_c, 1, 55, 127
2, 79000, Note_on_c, 1, 58, 127
2, 79000, Note_on_c, 1, 63, 127
2, 79800, Note_off_c, 1, 43, 0
2, 79800, Note_off_c, 1, 55, 0
2, 79800, Note_off_c, 1, 58, 0
2, 79800, Note_off_c, 1, 63, 0
2, 79840, Note_on_c, 1, 43, 127
2, 79840, Note_on_c, 1, 55, 127
2, 79840, Note_on_c, 1, 58, 127
2, 79840, Note_on_c, 1, 63, 127
2, 80800, Note_off_c, 1, 43, 0
2, 80800, Note_off_c, 1, 58, 0
2, 80800, Note_off_c, 1, 63, 0
2, 80880, Note_on_c, 1, 79, 127
2, 80960, Note_off_c, 1, 79, 0
2, 81400, Note_off_c, 1, 55, 0
2, 81440, Note_on_c, 1, 50, 127
2, 81840, Note_off_c, 1, 50, 0
2, 81880, Note_on_c, 1, 50, 127
2, 82040, Note_off_c, 1, 50, 0
2, 82080, Note_on_c, 1, 55, 127
2, 82640, Note_off_c, 1, 55, 0
2, 82680, Note_on_c, 1, 53, 127
2, 83240, Note_off_c, 1, 53, 0
2, 83280, Note_on_c, 1, 55, 127
2, 83840, Note_off_c, 1, 55, 0
2, 83920, Note_on_c, 1, 58, 127
2, 84480, Note_off_c, 1, 58, 0
2, 84520, Note_on_c, 1, 55, 127
2, 85080, Note_off_c, 1, 55, 0
2, 85120, Note_on_c, 1, 58, 127
2, 85680, Note_off_c, 1, 58, 0
2, 85720, Note_on_c, 1, 55, 127
2, 85920, Note_off_c, 1, 55, 0
2, 85960, Note_on_c, 1, 55, 127
2, 86320, Note_off_c, 1, 55, 0
2, 86360, Note_on_c, 1, 58, 127
2, 86920, Note_off_c, 1, 58, 0
2, 86960, Note_on_c, 1, 55, 127
2, 87520, Note_off_c, 1, 55, 0
2, 87560, Note_on_c, 1, 55, 127
2, 87960, Note_off_c, 1, 55, 0
2, 88000, Note_on_c, 1, 55, 127
2, 88160, Note_off_c, 1, 55, 0
2, 88200, Note_on_c, 1, 58, 127
2, 88760, Note_off_c, 1, 58, 0
2, 88800, Note_on_c, 1, 55, 127
2, 89360, Note_off_c, 1, 55, 0
2, 89400, Note_on_c, 1, 58, 127
2, 89960, Note_off_c, 1, 58, 0
2, 90040, Note_on_c, 1, 67, 127
2, 90600, Note_off_c, 1, 67, 0
2, 90640, Note_on_c, 1, 69, 127
2, 91200, Note_off_c, 1, 69, 0
2, 91240, Note_on_c, 1, 67, 127
2, 91800, Note_off_c, 1, 67, 0
2, 91840, Note_on_c, 1, 70, 127
2, 92040, Note_off_c, 1, 70, 0
2, 92080, Note_on_c, 1, 70, 127
2, 92440, Note_off_c, 1, 70, 0
2, 92480, Note_on_c, 1, 43, 127
2, 92480, Note_on_c, 1, 50, 127
2, 92480, Note_on_c, 1, 55, 127
2, 92480, Note_on_c, 1, 65, 127
2, 92480, Note_on_c, 1, 71, 127
2, 92480, Note_on_c, 1, 79, 127
2, 93040, Note_off_c, 1, 43, 0
2, 93040, Note_off_c, 1, 50, 0
2, 93040, Note_off_c, 1, 55, 0
2, 93040, Note_on_c, 1, 56, 127
2, 93040, Note_on_c, 1, 59, 127
2, 93040, Note_on_c, 1, 62, 127
2, 93040, Note_off_c, 1, 71, 0
2, 93040, Note_off_c, 1, 79, 0
2, 93080, Note_on_c, 1, 33, 127
2, 93080, Note_on_c, 1, 41, 127
2, 93080, Note_on_c, 1, 45, 127
2, 93080, Note_off_c, 1, 56, 0
2, 93080, Note_off_c, 1, 59, 0
2, 93080, Note_on_c, 1, 60, 127
2, 93080, Note_off_c, 1, 62, 0
2, 93080, Note_off_c, 1, 65, 0
2, 93640, Note_off_c, 1, 33, 0
2, 93640, Note_off_c, 1, 41, 0
2, 93640, Note_off_c, 1, 45, 0
2, 93640, Note_off_c, 1, 60, 0
2, 93680, Note_on_c, 1, 36, 127
2, 93680, Note_on_c, 1, 72, 127
2, 93680, Note_on_c, 1, 75, 127
2, 93920, Note_off_c, 1, 36, 0
2, 93960, Note_on_c, 1, 48, 127
2, 94080, Note_off_c, 1, 48, 0
2, 94080, Note_off_c, 1, 72, 0
2, 94080, Note_off_c, 1, 75, 0
2, 94120, Note_on_c, 1, 48, 127
2, 94120, Note_on_c, 1, 72, 127
2, 94120, Note_on_c, 1, 75, 127
2, 94280, Note_off_c, 1, 48, 0
2, 94280, Note_off_c, 1, 75, 0
2, 94320, Note_on_c, 1, 36, 127
2, 94320, Note_on_c, 1, 75, 127
2, 94560, Note_off_c, 1, 36, 0
2, 94600, Note_on_c, 1, 48, 127
2, 94880, Note_off_c, 1, 48, 0
2, 94880, Note_off_c, 1, 72, 0
2, 94880, Note_off_c, 1, 75, 0
2, 94920, Note_on_c, 1, 36, 127
2, 94920, Note_on_c, 1, 72, 127
2, 94920, Note_on_c, 1, 75, 127
2, 95160, Note_off_c, 1, 36, 0
2, 95200, Note_on_c, 1, 36, 127
2, 95440, Note_off_c, 1, 36, 0
2, 95480, Note_on_c, 1, 48, 127
2, 95760, Note_off_c, 1, 48, 0
2, 95800, Note_on_c, 1, 55, 127
2, 96040, Note_off_c, 1, 55, 0
2, 96040, Note_off_c, 1, 72, 0
2, 96040, Note_off_c, 1, 75, 0
2, 96080, Note_on_c, 1, 48, 127
2, 96080, Note_on_c, 1, 74, 127
2, 96080, Note_on_c, 1, 77, 127
2, 96280, Note_off_c, 1, 48, 0
2, 96280, Note_off_c, 1, 74, 0
2, 96280, Note_off_c, 1, 77, 0
2, 96320, Note_on_c, 1, 48, 127
2, 96320, Note_on_c, 1, 74, 127
2, 96320, Note_on_c, 1, 77, 127
2, 96640, Note_on_c, 1, 67, 127
2, 96640, Note_off_c, 1, 74, 0
2, 96640, Note_off_c, 1, 77, 0
2, 96680, Note_off_c, 1, 48, 0
2, 96680, Note_off_c, 1, 67, 0
2, 96720, Note_on_c, 1, 60, 127
2, 96720, Note_on_c, 1, 67, 127
2, 96720, Note_on_c, 1, 75, 127
2, 97280, Note_off_c, 1, 60, 0
2, 97280, Note_on_c, 1, 74, 127
2, 97280, Note_off_c, 1, 75, 0
2, 97320, Note_on_c, 1, 62, 127
2, 97880, Note_off_c, 1, 62, 0
2, 97880, Note_off_c, 1, 67, 0
2, 97880, Note_off_c, 1, 74, 0
2, 97920, Note_on_c, 1, 51, 127
2, 97920, Note_on_c, 1, 75, 127
2, 97920, Note_on_c, 1, 79, 127
2, 98320, Note_off_c, 1, 51, 0
2, 98320, Note_off_c, 1, 75, 0
2, 98320, Note_off_c, 1, 79, 0
2, 98360, Note_on_c, 1, 51, 127
2, 98360, Note_on_c, 1, 75, 127
2, 98360, Note_on_c, 1, 79, 127
2, 98520, Note_off_c, 1, 51, 0
2, 99120, Note_off_c, 1, 75, 0
2, 99120, Note_off_c, 1, 79, 0
2, 99160, Note_on_c, 1, 48, 127
2, 99160, Note_on_c, 1, 74, 127
2, 99160, Note_on_c, 1, 77, 127
2, 99720, Note_off_c, 1, 48, 0
2, 99760, Note_on_c, 1, 50, 127
2, 100320, Note_off_c, 1, 50, 0
2, 100320, Note_off_c, 1, 74, 0
2, 100320, Note_off_c, 1, 77, 0
2, 100400, Note_on_c, 1, 53, 127
2, 100400, Note_on_c, 1, 74, 127
2, 100400, Note_on_c, 1, 77, 127
2, 100960, Note_off_c, 1, 53, 0
2, 100960, Note_off_c, 1, 74, 0
2, 100960, Note_off_c, 1, 77, 0
2, 101000, Note_on_c, 1, 55, 127
2, 101000, Note_on_c, 1, 72, 127
2, 101000, Note_on_c, 1, 76, 127
2, 101520, Note_off_c, 1, 76, 0
2, 101560, Note_off_c, 1, 55, 0
2, 101560, Note_off_c, 1, 72, 0
2, 101600, Note_on_c, 1, 69, 127
2, 101600, Note_on_c, 1, 72, 127
2, 102160, Note_off_c, 1, 69, 0
2, 102160, Note_off_c, 1, 72, 0
2, 102200, Note_on_c, 1, 38, 127
2, 102200, Note_on_c, 1, 60, 127
2, 102600, Note_off_c, 1, 38, 0
2, 102600, Note_off_c, 1, 60, 0
2, 102640, Note_on_c, 1, 38, 127
2, 102640, Note_on_c, 1, 60, 127
2, 102800, Note_off_c, 1, 38, 0
2, 102800, Note_off_c, 1, 60, 0
2, 102840, Note_on_c, 1, 62, 127
2, 103400, Note_off_c, 1, 62, 0
2, 103440, Note_on_c, 1, 70, 127
2, 103440, Note_on_c, 1, 75, 127
2, 103440, Note_on_c, 1, 78, 127
2, 104000, Note_off_c, 1, 75, 0
2, 104000, Note_off_c, 1, 78, 0
2, 104040, Note_on_c, 1, 74, 127
2, 104040, Note_on_c, 1, 77, 127
2, 104600, Note_off_c, 1, 70, 0
2, 104600, Note_off_c, 1, 74, 0
2, 104600, Note_off_c, 1, 77, 0
2, 104680, Note_on_c, 1, 67, 127
2, 104680, Note_on_c, 1, 70, 127
2, 104680, Note_on_c, 1, 74, 127
2, 105280, Note_on_c, 1, 58, 127
2, 105800, Note_off_c, 1, 67, 0
2, 105800, Note_off_c, 1, 70, 0
2, 105800, Note_off_c, 1, 74, 0
2, 105840, Note_off_c, 1, 58, 0
2, 105880, Note_on_c, 1, 43, 127
2, 105880, Note_on_c, 1, 58, 127
2, 105880, Note_on_c, 1, 62, 127
2, 106440, Note_off_c, 1, 58, 0
2, 106440, Note_off_c, 1, 62, 0
2, 106480, Note_on_c, 1, 50, 127
2, 106680, Note_off_c, 1, 43, 0
2, 106680, Note_off_c, 1, 50, 0
2, 106720, Note_on_c, 1, 43, 127
2, 106720, Note_on_c, 1, 50, 127
2, 107080, Note_off_c, 1, 50, 0
2, 107120, Note_on_c, 1, 55, 127
2, 108280, Note_off_c, 1, 43, 0
2, 108280, Note_off_c, 1, 55, 0
2, 108320, Note_on_c, 1, 43, 127
2, 108320, Note_on_c, 1, 55, 127
2, 108320, Note_on_c, 1, 79, 127
2, 108720, Note_off_c, 1, 43, 0
2, 108720, Note_off_c, 1, 55, 0
2, 108720, Note_off_c, 1, 79, 0
2, 108760, Note_on_c, 1, 43, 127
2, 108760, Note_on_c, 1, 55, 127
2, 108760, Note_on_c, 1, 79, 127
2, 108920, Note_off_c, 1, 79, 0
2, 108960, Note_on_c, 1, 76, 127
2, 109520, Note_off_c, 1, 43, 0
2, 109520, Note_off_c, 1, 55, 0
2, 109520, Note_off_c, 1, 76, 0
2, 109560, Note_on_c, 1, 40, 127
2, 109560, Note_on_c, 1, 52, 127
2, 109560, Note_on_c, 1, 82, 127
2, 110080, Note_off_c, 1, 40, 0
2, 110080, Note_off_c, 1, 52, 0
2, 110720, Note_off_c, 1, 82, 0
2, 110800, Note_on_c, 1, 55, 127
2, 110800, Note_on_c, 1, 59, 127
2, 110800, Note_on_c, 1, 62, 127
2, 110800, Note_on_c, 1, 91, 127
2, 111360, Note_off_c, 1, 91, 0
2, 111400, Note_on_c, 1, 86, 127
2, 111960, Note_off_c, 1, 55, 0
2, 111960, Note_off_c, 1, 59, 0
2, 111960, Note_off_c, 1, 62, 0
2, 111960, Note_off_c, 1, 86, 0
2, 112000, Note_on_c, 1, 51, 127
2, 112000, Note_on_c, 1, 54, 127
2, 112000, Note_on_c, 1, 58, 127
2, 112000, Note_on_c, 1, 66, 127
2, 112000, Note_on_c, 1, 78, 127
2, 112560, Note_off_c, 1, 51, 0
2, 112560, Note_on_c, 1, 53, 127
2, 112560, Note_off_c, 1, 54, 0
2, 112560, Note_on_c, 1, 57, 127
2, 112560, Note_off_c, 1, 58, 0
2, 112560, Note_off_c, 1, 66, 0
2, 112560, Note_off_c, 1, 78, 0
2, 112600, Note_on_c, 1, 79, 127
2, 112800, Note_off_c, 1, 53, 0
2, 112800, Note_off_c, 1, 57, 0
2, 112800, Note_off_c, 1, 79, 0
2, 112840, Note_on_c, 1, 53, 127
2, 112840, Note_on_c, 1, 57, 127
2, 112840, Note_on_c, 1, 79, 127
2, 113200, Note_off_c, 1, 53, 0
2, 113200, Note_off_c, 1, 57, 0
2, 113200, Note_off_c, 1, 79, 0
2, 113240, Note_on_c, 1, 50, 127
2, 113240, Note_on_c, 1, 86, 127
2, 113800, Note_off_c, 1, 50, 0
2, 113840, Note_on_c, 1, 57, 127
2, 113840, Note_off_c, 1, 86, 0
2, 113840, Note_on_c, 1, 90, 127
2, 114400, Note_off_c, 1, 57, 0
2, 114440, Note_on_c, 1, 60, 127
2, 114840, Note_off_c, 1, 60, 0
2, 114840, Note_off_c, 1, 90, 0
2, 114880, Note_on_c, 1, 60, 127
2, 114880, Note_on_c, 1, 90, 127
2, 115040, Note_off_c, 1, 60, 0
2, 115080, Note_on_c, 1, 60, 127
2, 115080, Note_off_c, 1, 90, 0
2, 115080, Note_on_c, 1, 93, 127
2, 115640, Note_off_c, 1, 60, 0
2, 115680, Note_on_c, 1, 54, 127
2, 115680, Note_on_c, 1, 57, 127
2, 116240, Note_off_c, 1, 54, 0
2, 116240, Note_off_c, 1, 57, 0
2, 116280, Note_on_c, 1, 48, 127
2, 116840, Note_off_c, 1, 48, 0
2, 116880, Note_off_c, 1, 93, 0
2, 116920, Note_on_c, 1, 48, 127
2, 116920, Note_on_c, 1, 93, 127
2, 117480, Note_off_c, 1, 48, 0
2, 117520, Note_on_c, 1, 60, 127
2, 118080, Note_off_c, 1, 60, 0
2, 118120, Note_on_c, 1, 60, 127
2, 118680, Note_off_c, 1, 60, 0
2, 118720, Note_on_c, 1, 60, 127
2, 118920, Note_off_c, 1, 60, 0
2, 118920, Note_off_c, 1, 93, 0
2, 118960, Note_on_c, 1, 60, 127
2, 118960, Note_on_c, 1, 93, 127
2, 119320, Note_off_c, 1, 60, 0
2, 119360, Note_on_c, 1, 63, 127
2, 119920, Note_off_c, 1, 63, 0
2, 119960, Note_on_c, 1, 69, 127
2, 120000, Note_off_c, 1, 69, 0
2, 120000, Note_off_c, 1, 93, 0
2, 120040, End_track
3, 0, Start_track
3, 0, Title_t, "MIDI"
3, 1536, End_track
0, 0, End_of_file
