0, 0, Header, 1, 3, 192
1, 0, Start_track
1, 0, Time_signature, 4, 2, 24, 8
1, 0, Tempo, 500000
1, 120040, End_track
2, 0, Start_track
2, 0, Text_t, "random instrument: random person i dunno whatev"
2, 0, Title_t, "Track 1"
2, 0, Note_on_c, 1, 50, 127
2, 0, Note_on_c, 1, 57, 127
2, 0, Note_on_c, 1, 65, 127
2, 0, Note_on_c, 1, 69, 127
2, 0, Note_on_c, 1, 74, 127
2, 0, Note_on_c, 1, 77, 127
2, 0, Note_on_c, 1, 81, 127
2, 80, Note_off_c, 1, 50, 0
2, 80, Note_off_c, 1, 57, 0
2, 80, Note_off_c, 1, 65, 0
2, 80, Note_off_c, 1, 69, 0
2, 80, Note_off_c, 1, 74, 0
2, 80, Note_off_c, 1, 77, 0
2, 80, Note_off_c, 1, 81, 0
2, 120, Note_on_c, 1, 50, 127
2, 120, Note_on_c, 1, 57, 127
2, 120, Note_on_c, 1, 65, 127
2, 120, Note_on_c, 1, 69, 127
2, 120, Note_on_c, 1, 74, 127
2, 120, Note_on_c, 1, 77, 127
2, 120, Note_on_c, 1, 81, 127
2, 360, Note_off_c, 1, 50, 0
2, 360, Note_off_c, 1, 57, 0
2, 360, Note_off_c, 1, 65, 0
2, 360, Note_off_c, 1, 69, 0
2, 360, Note_off_c, 1, 74, 0
2, 360, Note_off_c, 1, 77, 0
2, 360, Note_off_c, 1, 81, 0
2, 400, Note_on_c, 1, 47, 127
2, 400, Note_on_c, 1, 59, 127
2, 400, Note_on_c, 1, 66, 127
2, 400, Note_on_c, 1, 71, 127
2, 400, Note_on_c, 1, 74, 127
2, 800, Note_off_c, 1, 47, 0
2, 800, Note_off_c, 1, 59, 0
2, 800, Note_off_c, 1, 66, 0
2, 800, Note_off_c, 1, 71, 0
2, 800, Note_off_c, 1, 74, 0
2, 840, Note_on_c, 1, 47, 127
2, 840, Note_on_c, 1, 63, 127
2, 840, Note_on_c, 1, 66, 127
2, 840, Note_on_c, 1, 71, 127
2, 960, Note_off_c, 1, 47, 0
2, 960, Note_off_c, 1, 63, 0
2, 960, Note_off_c, 1, 66, 0
2, 960, Note_off_c, 1, 71, 0
2, 3840, Note_on_c, 1, 59, 127
2, 3840, Note_on_c, 1, 64, 127
2, 3840, Note_on_c, 1, 68, 127
2, 3960, Note_off_c, 1, 59, 0
2, 3960, Note_off_c, 1, 64, 0
2, 3960, Note_off_c, 1, 68, 0
2, 4160, Note_on_c, 1, 62, 127
2, 4160, Note_on_c, 1, 64, 127
2, 4160, Note_on_c, 1, 68, 127
2, 4160, Note_on_c, 1, 71, 127
2, 4200, Note_off_c, 1, 62, 0
2, 4200, Note_off_c, 1, 64, 0
2, 4200, Note_off_c, 1, 68, 0
2, 4200, Note_off_c, 1, 71, 0
2, 4240, Note_on_c, 1, 62, 127
2, 4240, Note_on_c, 1, 64, 127
2, 4240, Note_on_c, 1, 68, 127
2, 4240, Note_on_c, 1, 71, 127
2, 4320, Note_off_c, 1, 62, 0
2, 4320, Note_off_c, 1, 64, 0
2, 4320, Note_off_c, 1, 68, 0
2, 4320, Note_off_c, 1, 71, 0
2, 4360, Note_on_c, 1, 62, 127
2, 4360, Note_on_c, 1, 64, 127
2, 4360, Note_on_c, 1, 68, 127
2, 4360, Note_on_c, 1, 71, 127
2, 4480, Note_off_c, 1, 62, 0
2, 4480, Note_off_c, 1, 64, 0
2, 4480, Note_off_c, 1, 68, 0
2, 4480, Note_off_c, 1, 71, 0
2, 4520, Note_on_c, 1, 57, 127
2, 4520, Note_on_c, 1, 61, 127
2, 4520, Note_on_c, 1, 64, 127
2, 4520, Note_on_c, 1, 69, 127
2, 4640, Note_off_c, 1, 57, 0
2, 4640, Note_off_c, 1, 61, 0
2, 4640, Note_off_c, 1, 64, 0
2, 4640, Note_off_c, 1, 69, 0
2, 5160, Note_on_c, 1, 48, 127
2, 5160, Note_on_c, 1, 55, 127
2, 5160, Note_on_c, 1, 60, 127
2, 5160, Note_on_c, 1, 64, 127
2, 5400, Note_off_c, 1, 48, 0
2, 5400, Note_off_c, 1, 55, 0
2, 5400, Note_off_c, 1, 60, 0
2, 5400, Note_off_c, 1, 64, 0
2, 5440, Note_on_c, 1, 48, 127
2, 5440, Note_on_c, 1, 55, 127
2, 5440, Note_on_c, 1, 60, 127
2, 5440, Note_on_c, 1, 64, 127
2, 5640, Note_off_c, 1, 48, 0
2, 5640, Note_off_c, 1, 55, 0
2, 5640, Note_off_c, 1, 60, 0
2, 5640, Note_off_c, 1, 64, 0
2, 5680, Note_on_c, 1, 50, 127
2, 5680, Note_on_c, 1, 55, 127
2, 5680, Note_on_c, 1, 59, 127
2, 5680, Note_on_c, 1, 65, 127
2, 5920, Note_off_c, 1, 50, 0
2, 5920, Note_off_c, 1, 55, 0
2, 5920, Note_off_c, 1, 59, 0
2, 5920, Note_off_c, 1, 65, 0
2, 5960, Note_on_c, 1, 48, 127
2, 5960, Note_on_c, 1, 55, 127
2, 5960, Note_on_c, 1, 60, 127
2, 5960, Note_on_c, 1, 64, 127
2, 6480, Note_off_c, 1, 48, 0
2, 6480, Note_off_c, 1, 55, 0
2, 6480, Note_off_c, 1, 60, 0
2, 6480, Note_off_c, 1, 64, 0
2, 7280, Note_on_c, 1, 41, 127
2, 7280, Note_on_c, 1, 53, 127
2, 7280, Note_on_c, 1, 57, 127
2, 7280, Note_on_c, 1, 60, 127
2, 7280, Note_on_c, 1, 65, 127
2, 8000, Note_off_c, 1, 65, 0
2, 8040, Note_on_c, 1, 65, 127
2, 8440, Note_off_c, 1, 41, 0
2, 8440, Note_off_c, 1, 53, 0
2, 8440, Note_off_c, 1, 57, 0
2, 8440, Note_off_c, 1, 60, 0
2, 8440, Note_off_c, 1, 65, 0
2, 10040, Note_on_c, 1, 42, 127
2, 10040, Note_on_c, 1, 49, 127
2, 10120, Note_off_c, 1, 42, 0
2, 10120, Note_off_c, 1, 49, 0
2, 10360, Note_on_c, 1, 42, 127
2, 10360, Note_on_c, 1, 49, 127
2, 10560, Note_off_c, 1, 42, 0
2, 10560, Note_off_c, 1, 49, 0
2, 10840, Note_on_c, 1, 43, 127
2, 10840, Note_on_c, 1, 61, 127
2, 10840, Note_on_c, 1, 64, 127
2, 10840, Note_on_c, 1, 70, 127
2, 11040, Note_off_c, 1, 61, 0
2, 11040, Note_off_c, 1, 64, 0
2, 11040, Note_off_c, 1, 70, 0
2, 11080, Note_on_c, 1, 42, 127
2, 11080, Note_off_c, 1, 43, 0
2, 11120, Note_off_c, 1, 42, 0
2, 11160, Note_on_c, 1, 42, 127
2, 11200, Note_off_c, 1, 42, 0
2, 11240, Note_on_c, 1, 41, 127
2, 11280, Note_off_c, 1, 41, 0
2, 11320, Note_on_c, 1, 40, 127
2, 11360, Note_off_c, 1, 40, 0
2, 11400, Note_on_c, 1, 39, 127
2, 11440, Note_off_c, 1, 39, 0
2, 11480, Note_on_c, 1, 37, 127
2, 11520, Note_off_c, 1, 37, 0
2, 11560, Note_on_c, 1, 40, 127
2, 11600, Note_off_c, 1, 40, 0
2, 11640, Note_on_c, 1, 39, 127
2, 11680, Note_on_c, 1, 35, 127
2, 11680, Note_off_c, 1, 39, 0
2, 11760, Note_off_c, 1, 35, 0
2, 11920, Note_on_c, 1, 50, 127
2, 11920, Note_on_c, 1, 55, 127
2, 11920, Note_on_c, 1, 69, 127
2, 11920, Note_on_c, 1, 72, 127
2, 11960, Note_off_c, 1, 50, 0
2, 11960, Note_off_c, 1, 55, 0
2, 11960, Note_off_c, 1, 69, 0
2, 11960, Note_off_c, 1, 72, 0
2, 12200, Note_on_c, 1, 38, 127
2, 12200, Note_on_c, 1, 67, 127
2, 12200, Note_on_c, 1, 70, 127
2, 12200, Note_on_c, 1, 75, 127
2, 12240, Note_off_c, 1, 38, 0
2, 12240, Note_off_c, 1, 67, 0
2, 12240, Note_off_c, 1, 70, 0
2, 12240, Note_off_c, 1, 75, 0
2, 13400, Note_on_c, 1, 37, 127
2, 13400, Note_on_c, 1, 49, 127
2, 14040, Note_off_c, 1, 37, 0
2, 14040, Note_off_c, 1, 49, 0
2, 14080, Note_on_c, 1, 35, 127
2, 14080, Note_on_c, 1, 47, 127
2, 14120, Note_off_c, 1, 35, 0
2, 14120, Note_off_c, 1, 47, 0
2, 14240, Note_on_c, 1, 38, 127
2, 14240, Note_on_c, 1, 50, 127
2, 14280, Note_off_c, 1, 38, 0
2, 14280, Note_off_c, 1, 50, 0
2, 14400, Note_on_c, 1, 37, 127
2, 14400, Note_on_c, 1, 49, 127
2, 14440, Note_off_c, 1, 37, 0
2, 14440, Note_off_c, 1, 49, 0
2, 14560, Note_on_c, 1, 44, 127
2, 14560, Note_on_c, 1, 56, 127
2, 14600, Note_off_c, 1, 44, 0
2, 14600, Note_off_c, 1, 56, 0
2, 14680, Note_on_c, 1, 45, 127
2, 14680, Note_on_c, 1, 57, 127
2, 14720, Note_off_c, 1, 45, 0
2, 14720, Note_off_c, 1, 57, 0
2, 14800, Note_on_c, 1, 42, 127
2, 14800, Note_on_c, 1, 54, 127
2, 14840, Note_off_c, 1, 42, 0
2, 14840, Note_off_c, 1, 54, 0
2, 14960, Note_on_c, 1, 35, 127
2, 15000, Note_off_c, 1, 35, 0
2, 15440, Note_on_c, 1, 38, 127
2, 15440, Note_on_c, 1, 50, 127
2, 15640, Note_off_c, 1, 38, 0
2, 15640, Note_off_c, 1, 50, 0
2, 16320, Note_on_c, 1, 43, 127
2, 16320, Note_on_c, 1, 55, 127
2, 16320, Note_on_c, 1, 67, 127
2, 16360, Note_off_c, 1, 43, 0
2, 16360, Note_off_c, 1, 55, 0
2, 16360, Note_off_c, 1, 67, 0
2, 16480, Note_on_c, 1, 35, 127
2, 16480, Note_on_c, 1, 47, 127
2, 16480, Note_on_c, 1, 59, 127
2, 16520, Note_off_c, 1, 35, 0
2, 16520, Note_off_c, 1, 47, 0
2, 16520, Note_off_c, 1, 59, 0
2, 16640, Note_on_c, 1, 34, 127
2, 16640, Note_on_c, 1, 46, 127
2, 16640, Note_on_c, 1, 58, 127
2, 16880, Note_off_c, 1, 34, 0
2, 16880, Note_off_c, 1, 46, 0
2, 16880, Note_off_c, 1, 58, 0
2, 16920, Note_on_c, 1, 41, 127
2, 16920, Note_on_c, 1, 53, 127
2, 16920, Note_on_c, 1, 65, 127
2, 16920, Note_on_c, 1, 77, 127
2, 17160, Note_off_c, 1, 41, 0
2, 17160, Note_off_c, 1, 53, 0
2, 17160, Note_off_c, 1, 65, 0
2, 17160, Note_off_c, 1, 77, 0
2, 17960, Note_on_c, 1, 31, 127
2, 17960, Note_on_c, 1, 43, 127
2, 17960, Note_on_c, 1, 55, 127
2, 18680, Note_off_c, 1, 31, 0
2, 18680, Note_off_c, 1, 43, 0
2, 18680, Note_off_c, 1, 55, 0
2, 19840, Note_on_c, 1, 36, 127
2, 19840, Note_on_c, 1, 48, 127
2, 20760, Note_off_c, 1, 36, 0
2, 20760, Note_off_c, 1, 48, 0
2, 20800, Note_on_c, 1, 36, 127
2, 20800, Note_on_c, 1, 48, 127
2, 20840, Note_off_c, 1, 36, 0
2, 20840, Note_off_c, 1, 48, 0
2, 21960, Note_on_c, 1, 42, 127
2, 21960, Note_on_c, 1, 54, 127
2, 21960, Note_on_c, 1, 66, 127
2, 22080, Note_off_c, 1, 54, 0
2, 22080, Note_off_c, 1, 66, 0
2, 22560, Note_off_c, 1, 42, 0
2, 23840, Note_on_c, 1, 59, 127
2, 23840, Note_on_c, 1, 63, 127
2, 23840, Note_on_c, 1, 78, 127
2, 24040, Note_off_c, 1, 78, 0
2, 24080, Note_on_c, 1, 75, 127
2, 24240, Note_off_c, 1, 75, 0
2, 24280, Note_on_c, 1, 78, 127
2, 24320, Note_off_c, 1, 59, 0
2, 24320, Note_off_c, 1, 63, 0
2, 24320, Note_off_c, 1, 78, 0
2, 24360, Note_on_c, 1, 75, 127
2, 25880, Note_off_c, 1, 75, 0
2, 25920, Note_on_c, 1, 75, 127
2, 27320, Note_off_c, 1, 75, 0
2, 27360, Note_on_c, 1, 77, 127
2, 27600, Note_off_c, 1, 77, 0
2, 27640, Note_on_c, 1, 75, 127
2, 27920, Note_off_c, 1, 75, 0
2, 27960, Note_on_c, 1, 74, 127
2, 28200, Note_off_c, 1, 74, 0
2, 28240, Note_on_c, 1, 74, 127
2, 28280, Note_off_c, 1, 74, 0
2, 28320, Note_on_c, 1, 77, 127
2, 28880, Note_off_c, 1, 77, 0
2, 28920, Note_on_c, 1, 75, 127
2, 29480, Note_off_c, 1, 75, 0
2, 29520, Note_on_c, 1, 77, 127
2, 29880, Note_on_c, 1, 49, 127
2, 29960, Note_off_c, 1, 49, 0
2, 30000, Note_on_c, 1, 53, 127
2, 30200, Note_off_c, 1, 53, 0
2, 30240, Note_on_c, 1, 53, 127
2, 30400, Note_off_c, 1, 77, 0
2, 30440, Note_off_c, 1, 53, 0
2, 30480, Note_on_c, 1, 58, 127
2, 30480, Note_on_c, 1, 77, 127
2, 30520, Note_off_c, 1, 58, 0
2, 30560, Note_on_c, 1, 46, 127
2, 30600, Note_off_c, 1, 46, 0
2, 30680, Note_on_c, 1, 53, 127
2, 30800, Note_off_c, 1, 53, 0
2, 30840, Note_on_c, 1, 57, 127
2, 30960, Note_off_c, 1, 57, 0
2, 31000, Note_on_c, 1, 48, 127
2, 31080, Note_off_c, 1, 48, 0
2, 31120, Note_on_c, 1, 53, 127
2, 31240, Note_off_c, 1, 53, 0
2, 31280, Note_on_c, 1, 61, 127
2, 31400, Note_off_c, 1, 61, 0
2, 31400, Note_off_c, 1, 77, 0
2, 31440, Note_on_c, 1, 53, 127
2, 31440, Note_on_c, 1, 77, 127
2, 31560, Note_off_c, 1, 53, 0
2, 31560, Note_off_c, 1, 77, 0
2, 31600, Note_on_c, 1, 49, 127
2, 31600, Note_on_c, 1, 82, 127
2, 31720, Note_off_c, 1, 49, 0
2, 31760, Note_on_c, 1, 61, 127
2, 31880, Note_off_c, 1, 61, 0
2, 31880, Note_off_c, 1, 82, 0
2, 31920, Note_on_c, 1, 51, 127
2, 31920, Note_on_c, 1, 84, 127
2, 32040, Note_off_c, 1, 51, 0
2, 32080, Note_on_c, 1, 55, 127
2, 32200, Note_off_c, 1, 55, 0
2, 32240, Note_on_c, 1, 53, 127
2, 32320, Note_off_c, 1, 53, 0
2, 32360, Note_on_c, 1, 65, 127
2, 32360, Note_off_c, 1, 84, 0
2, 32360, Note_on_c, 1, 91, 127
2, 32480, Note_off_c, 1, 65, 0
2, 32480, Note_off_c, 1, 91, 0
2, 32520, Note_on_c, 1, 60, 127
2, 32520, Note_on_c, 1, 84, 127
2, 32600, Note_off_c, 1, 60, 0
2, 32600, Note_off_c, 1, 84, 0
2, 32640, Note_on_c, 1, 60, 127
2, 32640, Note_on_c, 1, 84, 127
2, 32680, Note_off_c, 1, 60, 0
2, 32680, Note_off_c, 1, 84, 0
2, 32720, Note_on_c, 1, 62, 127
2, 32720, Note_on_c, 1, 82, 127
2, 32840, Note_off_c, 1, 62, 0
2, 32840, Note_off_c, 1, 82, 0
2, 32880, Note_on_c, 1, 58, 127
2, 32880, Note_on_c, 1, 79, 127
2, 33000, Note_off_c, 1, 58, 0
2, 33000, Note_off_c, 1, 79, 0
2, 33040, Note_on_c, 1, 63, 127
2, 33040, Note_on_c, 1, 78, 127
2, 33160, Note_off_c, 1, 63, 0
2, 33160, Note_off_c, 1, 78, 0
2, 33200, Note_on_c, 1, 48, 127
2, 33280, Note_off_c, 1, 48, 0
2, 33320, Note_on_c, 1, 63, 127
2, 33320, Note_on_c, 1, 82, 127
2, 33440, Note_off_c, 1, 63, 0
2, 33480, Note_on_c, 1, 60, 127
2, 33600, Note_off_c, 1, 60, 0
2, 33600, Note_off_c, 1, 82, 0
2, 33640, Note_on_c, 1, 53, 127
2, 33640, Note_on_c, 1, 84, 127
2, 33720, Note_off_c, 1, 53, 0
2, 33760, Note_on_c, 1, 63, 127
2, 33760, Note_off_c, 1, 84, 0
2, 33760, Note_on_c, 1, 86, 127
2, 33880, Note_off_c, 1, 63, 0
2, 33880, Note_off_c, 1, 86, 0
2, 33920, Note_on_c, 1, 55, 127
2, 33920, Note_on_c, 1, 82, 127
2, 34040, Note_off_c, 1, 55, 0
2, 34080, Note_on_c, 1, 63, 127
2, 34200, Note_off_c, 1, 63, 0
2, 34240, Note_on_c, 1, 58, 127
2, 34320, Note_off_c, 1, 58, 0
2, 34360, Note_on_c, 1, 53, 127
2, 34480, Note_off_c, 1, 53, 0
2, 34520, Note_on_c, 1, 49, 127
2, 34560, Note_off_c, 1, 82, 0
2, 34600, Note_on_c, 1, 82, 127
2, 34640, Note_off_c, 1, 49, 0
2, 34680, Note_off_c, 1, 82, 0
2, 34720, Note_on_c, 1, 56, 127
2, 34720, Note_on_c, 1, 82, 127
2, 34760, Note_off_c, 1, 56, 0
2, 34760, Note_on_c, 1, 58, 127
2, 34760, Note_off_c, 1, 82, 0
2, 34800, Note_on_c, 1, 82, 127
2, 34840, Note_off_c, 1, 58, 0
2, 34840, Note_off_c, 1, 82, 0
2, 34880, Note_on_c, 1, 68, 127
2, 34880, Note_on_c, 1, 79, 127
2, 35000, Note_off_c, 1, 68, 0
2, 35000, Note_off_c, 1, 79, 0
2, 35040, Note_on_c, 1, 62, 127
2, 35040, Note_on_c, 1, 79, 127
2, 35120, Note_off_c, 1, 62, 0
2, 35160, Note_on_c, 1, 68, 127
2, 35280, Note_off_c, 1, 68, 0
2, 35280, Note_off_c, 1, 79, 0
2, 35320, Note_on_c, 1, 61, 127
2, 35320, Note_on_c, 1, 75, 127
2, 35440, Note_off_c, 1, 61, 0
2, 35440, Note_off_c, 1, 75, 0
2, 35480, Note_on_c, 1, 58, 127
2, 35480, Note_on_c, 1, 77, 127
2, 35600, Note_off_c, 1, 58, 0
2, 35600, Note_off_c, 1, 77, 0
2, 35640, Note_on_c, 1, 59, 127
2, 35760, Note_off_c, 1, 59, 0
2, 35800, Note_on_c, 1, 53, 127
2, 35800, Note_on_c, 1, 79, 127
2, 35880, Note_off_c, 1, 53, 0
2, 35880, Note_off_c, 1, 79, 0
2, 35920, Note_on_c, 1, 60, 127
2, 35920, Note_on_c, 1, 80, 127
2, 36040, Note_off_c, 1, 60, 0
2, 36040, Note_off_c, 1, 80, 0
2, 36080, Note_on_c, 1, 55, 127
2, 36080, Note_on_c, 1, 82, 127
2, 36200, Note_off_c, 1, 55, 0
2, 36200, Note_off_c, 1, 82, 0
2, 36240, Note_on_c, 1, 51, 127
2, 36240, Note_on_c, 1, 85, 127
2, 36360, Note_off_c, 1, 51, 0
2, 36360, Note_off_c, 1, 85, 0
2, 36400, Note_on_c, 1, 53, 127
2, 36400, Note_on_c, 1, 88, 127
2, 36480, Note_off_c, 1, 53, 0
2, 36480, Note_off_c, 1, 88, 0
2, 36520, Note_on_c, 1, 60, 127
2, 36520, Note_on_c, 1, 87, 127
2, 36640, Note_off_c, 1, 60, 0
2, 36640, Note_off_c, 1, 87, 0
2, 36680, Note_on_c, 1, 53, 127
2, 36680, Note_on_c, 1, 84, 127
2, 36800, Note_off_c, 1, 53, 0
2, 36800, Note_off_c, 1, 84, 0
2, 36880, Note_on_c, 1, 61, 127
2, 36880, Note_on_c, 1, 82, 127
2, 36960, Note_off_c, 1, 61, 0
2, 36960, Note_off_c, 1, 82, 0
2, 37000, Note_on_c, 1, 65, 127
2, 37000, Note_on_c, 1, 80, 127
2, 37120, Note_off_c, 1, 65, 0
2, 37120, Note_off_c, 1, 80, 0
2, 37160, Note_on_c, 1, 57, 127
2, 37280, Note_off_c, 1, 57, 0
2, 37320, Note_on_c, 1, 53, 127
2, 37320, Note_on_c, 1, 87, 127
2, 37440, Note_off_c, 1, 53, 0
2, 37440, Note_off_c, 1, 87, 0
2, 37480, Note_on_c, 1, 60, 127
2, 37480, Note_on_c, 1, 75, 127
2, 37600, Note_off_c, 1, 60, 0
2, 37600, Note_off_c, 1, 75, 0
2, 37640, Note_on_c, 1, 54, 127
2, 37640, Note_on_c, 1, 85, 127
2, 37720, Note_off_c, 1, 54, 0
2, 37720, Note_off_c, 1, 85, 0
2, 37760, Note_on_c, 1, 51, 127
2, 37760, Note_on_c, 1, 86, 127
2, 37880, Note_off_c, 1, 51, 0
2, 37880, Note_off_c, 1, 86, 0
2, 37920, Note_on_c, 1, 63, 127
2, 37920, Note_on_c, 1, 87, 127
2, 38040, Note_off_c, 1, 63, 0
2, 38040, Note_off_c, 1, 87, 0
2, 38080, Note_on_c, 1, 58, 127
2, 38080, Note_on_c, 1, 82, 127
2, 38200, Note_off_c, 1, 58, 0
2, 38200, Note_off_c, 1, 82, 0
2, 38240, Note_on_c, 1, 51, 127
2, 38240, Note_on_c, 1, 79, 127
2, 38360, Note_off_c, 1, 51, 0
2, 38360, Note_off_c, 1, 79, 0
2, 38400, Note_on_c, 1, 51, 127
2, 38520, Note_off_c, 1, 51, 0
2, 38560, Note_on_c, 1, 61, 127
2, 38560, Note_on_c, 1, 82, 127
2, 38680, Note_off_c, 1, 61, 0
2, 38680, Note_off_c, 1, 82, 0
2, 38720, Note_on_c, 1, 51, 127
2, 38720, Note_on_c, 1, 84, 127
2, 38840, Note_off_c, 1, 51, 0
2, 38840, Note_off_c, 1, 84, 0
2, 38920, Note_on_c, 1, 51, 127
2, 38920, Note_on_c, 1, 84, 127
2, 39000, Note_off_c, 1, 51, 0
2, 39000, Note_off_c, 1, 84, 0
2, 39040, Note_on_c, 1, 53, 127
2, 39040, Note_on_c, 1, 70, 127
2, 39160, Note_off_c, 1, 53, 0
2, 39160, Note_off_c, 1, 70, 0
2, 39200, Note_on_c, 1, 60, 127
2, 39200, Note_on_c, 1, 80, 127
2, 39320, Note_off_c, 1, 60, 0
2, 39320, Note_off_c, 1, 80, 0
2, 39360, Note_on_c, 1, 53, 127
2, 39360, Note_on_c, 1, 87, 127
2, 39480, Note_off_c, 1, 53, 0
2, 39480, Note_off_c, 1, 87, 0
2, 39520, Note_on_c, 1, 61, 127
2, 39520, Note_on_c, 1, 89, 127
2, 39640, Note_off_c, 1, 61, 0
2, 39640, Note_off_c, 1, 89, 0
2, 39680, Note_on_c, 1, 65, 127
2, 39680, Note_on_c, 1, 89, 127
2, 39800, Note_off_c, 1, 65, 0
2, 39800, Note_off_c, 1, 89, 0
2, 39840, Note_on_c, 1, 63, 127
2, 39840, Note_on_c, 1, 87, 127
2, 39920, Note_off_c, 1, 63, 0
2, 39920, Note_off_c, 1, 87, 0
2, 39960, Note_on_c, 1, 53, 127
2, 39960, Note_on_c, 1, 77, 127
2, 40080, Note_off_c, 1, 53, 0
2, 40080, Note_off_c, 1, 77, 0
2, 40120, Note_on_c, 1, 41, 127
2, 40120, Note_on_c, 1, 65, 127
2, 40240, Note_off_c, 1, 41, 0
2, 40240, Note_off_c, 1, 65, 0
2, 40280, Note_on_c, 1, 56, 127
2, 40280, Note_on_c, 1, 80, 127
2, 40400, Note_off_c, 1, 56, 0
2, 40400, Note_off_c, 1, 80, 0
2, 40440, Note_on_c, 1, 49, 127
2, 40520, Note_off_c, 1, 49, 0
2, 40560, Note_on_c, 1, 53, 127
2, 40680, Note_off_c, 1, 53, 0
2, 40720, Note_on_c, 1, 61, 127
2, 40840, Note_off_c, 1, 61, 0
2, 40880, Note_on_c, 1, 55, 127
2, 41000, Note_off_c, 1, 55, 0
2, 41080, Note_on_c, 1, 53, 127
2, 41160, Note_off_c, 1, 53, 0
2, 41200, Note_on_c, 1, 56, 127
2, 41320, Note_off_c, 1, 56, 0
2, 41360, Note_on_c, 1, 53, 127
2, 41480, Note_off_c, 1, 53, 0
2, 41520, Note_on_c, 1, 58, 127
2, 41520, Note_on_c, 1, 83, 127
2, 41640, Note_off_c, 1, 58, 0
2, 41640, Note_off_c, 1, 83, 0
2, 41680, Note_on_c, 1, 61, 127
2, 41680, Note_on_c, 1, 77, 127
2, 41800, Note_off_c, 1, 61, 0
2, 41800, Note_off_c, 1, 77, 0
2, 41840, Note_on_c, 1, 58, 127
2, 41840, Note_on_c, 1, 89, 127
2, 41960, Note_off_c, 1, 58, 0
2, 41960, Note_off_c, 1, 89, 0
2, 42000, Note_on_c, 1, 58, 127
2, 42000, Note_on_c, 1, 85, 127
2, 42120, Note_off_c, 1, 58, 0
2, 42120, Note_off_c, 1, 85, 0
2, 42160, Note_on_c, 1, 51, 127
2, 42160, Note_on_c, 1, 79, 127
2, 42280, Note_off_c, 1, 51, 0
2, 42280, Note_off_c, 1, 79, 0
2, 42320, Note_on_c, 1, 61, 127
2, 42320, Note_on_c, 1, 77, 127
2, 42440, Note_off_c, 1, 61, 0
2, 42440, Note_off_c, 1, 77, 0
2, 42480, Note_on_c, 1, 58, 127
2, 42480, Note_on_c, 1, 85, 127
2, 42600, Note_off_c, 1, 58, 0
2, 42600, Note_off_c, 1, 85, 0
2, 42640, Note_on_c, 1, 61, 127
2, 42640, Note_on_c, 1, 84, 127
2, 42760, Note_off_c, 1, 61, 0
2, 42760, Note_off_c, 1, 84, 0
2, 42800, Note_on_c, 1, 65, 127
2, 42800, Note_on_c, 1, 87, 127
2, 42920, Note_off_c, 1, 65, 0
2, 42920, Note_off_c, 1, 87, 0
2, 42960, Note_on_c, 1, 61, 127
2, 42960, Note_on_c, 1, 85, 127
2, 43080, Note_off_c, 1, 61, 0
2, 43080, Note_off_c, 1, 85, 0
2, 43160, Note_on_c, 1, 51, 127
2, 43160, Note_on_c, 1, 84, 127
2, 43240, Note_off_c, 1, 51, 0
2, 43240, Note_off_c, 1, 84, 0
2, 43280, Note_on_c, 1, 65, 127
2, 43280, Note_on_c, 1, 87, 127
2, 43400, Note_off_c, 1, 65, 0
2, 43400, Note_off_c, 1, 87, 0
2, 43440, Note_on_c, 1, 61, 127
2, 43440, Note_on_c, 1, 85, 127
2, 43560, Note_off_c, 1, 61, 0
2, 43560, Note_off_c, 1, 85, 0
2, 43600, Note_on_c, 1, 68, 127
2, 43600, Note_on_c, 1, 92, 127
2, 43720, Note_off_c, 1, 68, 0
2, 43720, Note_off_c, 1, 92, 0
2, 43760, Note_on_c, 1, 60, 127
2, 43760, Note_on_c, 1, 92, 127
2, 43880, Note_off_c, 1, 60, 0
2, 43880, Note_off_c, 1, 92, 0
2, 43920, Note_on_c, 1, 68, 127
2, 43920, Note_on_c, 1, 92, 127
2, 44640, Note_off_c, 1, 68, 0
2, 44640, Note_off_c, 1, 92, 0
2, 44680, Note_on_c, 1, 63, 127
2, 44680, Note_on_c, 1, 87, 127
2, 44800, Note_off_c, 1, 63, 0
2, 44800, Note_off_c, 1, 87, 0
2, 44840, Note_on_c, 1, 65, 127
2, 44840, Note_on_c, 1, 89, 127
2, 44960, Note_off_c, 1, 65, 0
2, 44960, Note_off_c, 1, 89, 0
2, 45000, Note_on_c, 1, 68, 127
2, 45000, Note_on_c, 1, 92, 127
2, 45120, Note_off_c, 1, 68, 0
2, 45120, Note_off_c, 1, 92, 0
2, 45160, Note_on_c, 1, 67, 127
2, 45160, Note_on_c, 1, 91, 127
2, 45280, Note_off_c, 1, 67, 0
2, 45280, Note_off_c, 1, 91, 0
2, 45320, Note_on_c, 1, 68, 127
2, 45320, Note_on_c, 1, 92, 127
2, 45360, Note_off_c, 1, 68, 0
2, 45360, Note_off_c, 1, 92, 0
2, 45400, Note_on_c, 1, 68, 127
2, 45400, Note_on_c, 1, 92, 127
2, 45440, Note_off_c, 1, 68, 0
2, 45440, Note_off_c, 1, 92, 0
2, 45480, Note_on_c, 1, 65, 127
2, 45480, Note_on_c, 1, 89, 127
2, 45600, Note_off_c, 1, 65, 0
2, 45600, Note_off_c, 1, 89, 0
2, 45640, Note_on_c, 1, 63, 127
2, 45640, Note_on_c, 1, 87, 127
2, 45760, Note_off_c, 1, 63, 0
2, 45760, Note_off_c, 1, 87, 0
2, 45800, Note_on_c, 1, 65, 127
2, 45800, Note_on_c, 1, 89, 127
2, 45920, Note_off_c, 1, 65, 0
2, 45920, Note_off_c, 1, 89, 0
2, 45960, Note_on_c, 1, 63, 127
2, 45960, Note_on_c, 1, 87, 127
2, 46080, Note_off_c, 1, 63, 0
2, 46080, Note_off_c, 1, 87, 0
2, 46120, Note_on_c, 1, 61, 127
2, 46120, Note_on_c, 1, 85, 127
2, 46240, Note_off_c, 1, 61, 0
2, 46240, Note_off_c, 1, 85, 0
2, 46280, Note_on_c, 1, 60, 127
2, 46280, Note_on_c, 1, 84, 127
2, 46360, Note_off_c, 1, 60, 0
2, 46360, Note_off_c, 1, 84, 0
2, 46400, Note_on_c, 1, 61, 127
2, 46400, Note_on_c, 1, 85, 127
2, 46520, Note_off_c, 1, 61, 0
2, 46520, Note_off_c, 1, 85, 0
2, 46560, Note_on_c, 1, 60, 127
2, 46560, Note_on_c, 1, 84, 127
2, 46680, Note_off_c, 1, 60, 0
2, 46680, Note_off_c, 1, 84, 0
2, 46720, Note_on_c, 1, 61, 127
2, 46720, Note_on_c, 1, 85, 127
2, 46840, Note_off_c, 1, 61, 0
2, 46840, Note_off_c, 1, 85, 0
2, 46880, Note_on_c, 1, 63, 127
2, 46880, Note_on_c, 1, 87, 127
2, 47000, Note_off_c, 1, 63, 0
2, 47000, Note_off_c, 1, 87, 0
2, 47040, Note_on_c, 1, 65, 127
2, 47040, Note_on_c, 1, 89, 127
2, 47160, Note_off_c, 1, 65, 0
2, 47160, Note_off_c, 1, 89, 0
2, 47200, Note_on_c, 1, 66, 127
2, 47200, Note_on_c, 1, 90, 127
2, 47480, Note_off_c, 1, 66, 0
2, 47480, Note_off_c, 1, 90, 0
2, 47560, Note_on_c, 1, 65, 127
2, 47560, Note_on_c, 1, 89, 127
2, 47840, Note_off_c, 1, 65, 0
2, 47840, Note_off_c, 1, 89, 0
2, 47880, Note_on_c, 1, 66, 127
2, 47880, Note_on_c, 1, 90, 127
2, 48160, Note_off_c, 1, 66, 0
2, 48160, Note_off_c, 1, 90, 0
2, 48200, Note_on_c, 1, 60, 127
2, 48200, Note_on_c, 1, 84, 127
2, 48480, Note_off_c, 1, 60, 0
2, 48520, Note_on_c, 1, 60, 127
2, 48800, Note_off_c, 1, 60, 0
2, 48800, Note_off_c, 1, 84, 0
2, 48840, Note_on_c, 1, 58, 127
2, 48840, Note_on_c, 1, 82, 127
2, 49120, Note_off_c, 1, 58, 0
2, 49120, Note_off_c, 1, 82, 0
2, 49160, Note_on_c, 1, 60, 127
2, 49160, Note_on_c, 1, 84, 127
2, 49600, Note_off_c, 1, 60, 0
2, 49600, Note_off_c, 1, 84, 0
2, 49640, Note_on_c, 1, 60, 127
2, 49640, Note_on_c, 1, 84, 127
2, 50400, Note_off_c, 1, 60, 0
2, 50400, Note_off_c, 1, 84, 0
2, 50440, Note_on_c, 1, 63, 127
2, 50440, Note_on_c, 1, 87, 127
2, 50720, Note_off_c, 1, 63, 0
2, 50720, Note_off_c, 1, 87, 0
2, 50760, Note_on_c, 1, 58, 127
2, 50760, Note_on_c, 1, 82, 127
2, 51640, Note_off_c, 1, 58, 0
2, 51640, Note_off_c, 1, 82, 0
2, 51680, Note_on_c, 1, 58, 127
2, 51680, Note_on_c, 1, 82, 127
2, 51720, Note_off_c, 1, 58, 0
2, 51720, Note_off_c, 1, 82, 0
2, 51760, Note_on_c, 1, 82, 127
2, 51800, Note_off_c, 1, 82, 0
2, 51840, Note_on_c, 1, 79, 127
2, 51880, Note_off_c, 1, 79, 0
2, 51920, Note_on_c, 1, 82, 127
2, 51960, Note_off_c, 1, 82, 0
2, 52000, Note_on_c, 1, 79, 127
2, 52040, Note_off_c, 1, 79, 0
2, 52080, Note_on_c, 1, 58, 127
2, 52080, Note_on_c, 1, 78, 127
2, 52320, Note_off_c, 1, 78, 0
2, 52360, Note_off_c, 1, 58, 0
2, 52400, Note_on_c, 1, 58, 127
2, 52400, Note_on_c, 1, 78, 127
2, 52440, Note_off_c, 1, 78, 0
2, 52560, Note_on_c, 1, 85, 127
2, 52600, Note_off_c, 1, 85, 0
2, 52680, Note_off_c, 1, 58, 0
2, 52720, Note_on_c, 1, 58, 127
2, 52720, Note_on_c, 1, 87, 127
2, 52760, Note_off_c, 1, 87, 0
2, 52800, Note_on_c, 1, 86, 127
2, 52840, Note_off_c, 1, 86, 0
2, 52880, Note_on_c, 1, 83, 127
2, 52920, Note_off_c, 1, 83, 0
2, 52960, Note_on_c, 1, 82, 127
2, 53000, Note_off_c, 1, 58, 0
2, 53000, Note_off_c, 1, 82, 0
2, 53040, Note_on_c, 1, 59, 127
2, 53040, Note_on_c, 1, 80, 127
2, 53080, Note_off_c, 1, 80, 0
2, 53120, Note_on_c, 1, 77, 127
2, 53160, Note_off_c, 1, 77, 0
2, 53200, Note_on_c, 1, 77, 127
2, 53240, Note_off_c, 1, 77, 0
2, 53280, Note_on_c, 1, 79, 127
2, 53320, Note_off_c, 1, 59, 0
2, 53320, Note_off_c, 1, 79, 0
2, 53360, Note_on_c, 1, 60, 127
2, 53360, Note_on_c, 1, 80, 127
2, 53520, Note_off_c, 1, 80, 0
2, 53640, Note_off_c, 1, 60, 0
2, 53680, Note_on_c, 1, 63, 127
2, 53680, Note_on_c, 1, 79, 127
2, 53920, Note_off_c, 1, 63, 0
2, 53920, Note_off_c, 1, 79, 0
2, 53960, Note_on_c, 1, 63, 127
2, 53960, Note_on_c, 1, 79, 127
2, 54000, Note_off_c, 1, 63, 0
2, 54000, Note_off_c, 1, 79, 0
2, 54040, Note_on_c, 1, 63, 127
2, 54040, Note_on_c, 1, 79, 127
2, 54320, Note_off_c, 1, 63, 0
2, 54320, Note_off_c, 1, 79, 0
2, 54360, Note_on_c, 1, 60, 127
2, 54360, Note_on_c, 1, 80, 127
2, 54400, Note_off_c, 1, 80, 0
2, 54520, Note_on_c, 1, 79, 127
2, 54560, Note_off_c, 1, 79, 0
2, 54640, Note_off_c, 1, 60, 0
2, 54680, Note_on_c, 1, 63, 127
2, 54680, Note_on_c, 1, 80, 127
2, 54720, Note_off_c, 1, 80, 0
2, 54800, Note_off_c, 1, 63, 0
2, 54840, Note_on_c, 1, 79, 127
2, 54880, Note_off_c, 1, 79, 0
2, 54920, Note_on_c, 1, 77, 127
2, 54960, Note_off_c, 1, 77, 0
2, 55000, Note_on_c, 1, 62, 127
2, 55000, Note_on_c, 1, 77, 127
2, 55240, Note_off_c, 1, 62, 0
2, 55240, Note_off_c, 1, 77, 0
2, 55280, Note_on_c, 1, 58, 127
2, 55280, Note_on_c, 1, 86, 127
2, 55320, Note_off_c, 1, 86, 0
2, 55360, Note_on_c, 1, 82, 127
2, 55400, Note_off_c, 1, 58, 0
2, 55400, Note_off_c, 1, 82, 0
2, 55440, Note_on_c, 1, 60, 127
2, 55440, Note_on_c, 1, 80, 127
2, 55640, Note_off_c, 1, 80, 0
2, 55720, Note_off_c, 1, 60, 0
2, 55760, Note_on_c, 1, 53, 127
2, 55760, Note_on_c, 1, 81, 127
2, 55880, Note_off_c, 1, 53, 0
2, 55880, Note_off_c, 1, 81, 0
2, 55920, Note_on_c, 1, 58, 127
2, 55920, Note_on_c, 1, 75, 127
2, 56040, Note_off_c, 1, 75, 0
2, 56080, Note_on_c, 1, 74, 127
2, 56120, Note_off_c, 1, 58, 0
2, 56120, Note_off_c, 1, 74, 0
2, 56160, Note_on_c, 1, 58, 127
2, 56160, Note_on_c, 1, 74, 127
2, 56200, Note_off_c, 1, 74, 0
2, 56240, Note_on_c, 1, 72, 127
2, 56360, Note_off_c, 1, 58, 0
2, 56360, Note_off_c, 1, 72, 0
2, 56400, Note_on_c, 1, 57, 127
2, 56400, Note_on_c, 1, 75, 127
2, 56520, Note_off_c, 1, 57, 0
2, 56520, Note_off_c, 1, 75, 0
2, 56560, Note_on_c, 1, 60, 127
2, 56560, Note_on_c, 1, 75, 127
2, 56680, Note_off_c, 1, 60, 0
2, 56680, Note_off_c, 1, 75, 0
2, 56720, Note_on_c, 1, 53, 127
2, 56720, Note_on_c, 1, 74, 127
2, 56840, Note_off_c, 1, 53, 0
2, 56840, Note_off_c, 1, 74, 0
2, 56880, Note_on_c, 1, 51, 127
2, 57000, Note_off_c, 1, 51, 0
2, 57040, Note_on_c, 1, 58, 127
2, 57160, Note_off_c, 1, 58, 0
2, 57200, Note_on_c, 1, 55, 127
2, 57320, Note_off_c, 1, 55, 0
2, 57360, Note_on_c, 1, 58, 127
2, 57360, Note_on_c, 1, 75, 127
2, 57400, Note_off_c, 1, 75, 0
2, 57480, Note_off_c, 1, 58, 0
2, 57520, Note_on_c, 1, 63, 127
2, 57640, Note_off_c, 1, 63, 0
2, 57680, Note_on_c, 1, 53, 127
2, 57680, Note_on_c, 1, 72, 127
2, 57760, Note_off_c, 1, 53, 0
2, 57760, Note_off_c, 1, 72, 0
2, 57800, Note_on_c, 1, 73, 127
2, 57840, Note_off_c, 1, 73, 0
2, 57880, Note_on_c, 1, 74, 127
2, 57920, Note_off_c, 1, 74, 0
2, 57960, Note_on_c, 1, 75, 127
2, 58080, Note_off_c, 1, 75, 0
2, 58120, Note_on_c, 1, 74, 127
2, 58240, Note_off_c, 1, 74, 0
2, 58320, Note_on_c, 1, 75, 127
2, 58400, Note_off_c, 1, 75, 0
2, 58440, Note_on_c, 1, 74, 127
2, 58560, Note_off_c, 1, 74, 0
2, 58600, Note_on_c, 1, 75, 127
2, 58720, Note_off_c, 1, 75, 0
2, 58760, Note_on_c, 1, 82, 127
2, 58880, Note_off_c, 1, 82, 0
2, 58920, Note_on_c, 1, 53, 127
2, 58920, Note_on_c, 1, 69, 127
2, 59040, Note_off_c, 1, 53, 0
2, 59040, Note_off_c, 1, 69, 0
2, 59080, Note_on_c, 1, 51, 127
2, 59080, Note_on_c, 1, 67, 127
2, 59200, Note_off_c, 1, 51, 0
2, 59200, Note_off_c, 1, 67, 0
2, 59240, Note_on_c, 1, 77, 127
2, 59360, Note_off_c, 1, 77, 0
2, 59400, Note_on_c, 1, 79, 127
2, 59560, Note_on_c, 1, 51, 127
2, 59680, Note_off_c, 1, 51, 0
2, 59680, Note_off_c, 1, 79, 0
2, 59720, Note_on_c, 1, 55, 127
2, 59720, Note_on_c, 1, 80, 127
2, 59840, Note_off_c, 1, 55, 0
2, 59840, Note_off_c, 1, 80, 0
2, 59880, Note_on_c, 1, 60, 127
2, 59880, Note_on_c, 1, 79, 127
2, 60000, Note_off_c, 1, 60, 0
2, 60000, Note_off_c, 1, 79, 0
2, 60200, Note_on_c, 1, 82, 127
2, 60360, Note_off_c, 1, 82, 0
2, 60400, Note_on_c, 1, 82, 127
2, 60520, Note_on_c, 1, 51, 127
2, 60640, Note_off_c, 1, 51, 0
2, 60680, Note_on_c, 1, 58, 127
2, 60800, Note_off_c, 1, 58, 0
2, 60800, Note_off_c, 1, 82, 0
2, 60840, Note_on_c, 1, 51, 127
2, 60840, Note_on_c, 1, 84, 127
2, 60960, Note_off_c, 1, 51, 0
2, 60960, Note_off_c, 1, 84, 0
2, 61000, Note_on_c, 1, 63, 127
2, 61000, Note_on_c, 1, 86, 127
2, 61120, Note_off_c, 1, 63, 0
2, 61120, Note_off_c, 1, 86, 0
2, 61160, Note_on_c, 1, 60, 127
2, 61160, Note_on_c, 1, 87, 127
2, 61280, Note_off_c, 1, 60, 0
2, 61280, Note_off_c, 1, 87, 0
2, 61320, Note_on_c, 1, 86, 127
2, 61440, Note_on_c, 1, 63, 127
2, 61440, Note_off_c, 1, 86, 0
2, 61440, Note_on_c, 1, 90, 127
2, 61560, Note_off_c, 1, 63, 0
2, 61760, Note_on_c, 1, 60, 127
2, 61880, Note_off_c, 1, 90, 0
2, 61920, Note_on_c, 1, 87, 127
2, 62040, Note_off_c, 1, 60, 0
2, 62040, Note_off_c, 1, 87, 0
2, 62080, Note_on_c, 1, 63, 127
2, 62080, Note_on_c, 1, 86, 127
2, 62200, Note_off_c, 1, 63, 0
2, 62200, Note_off_c, 1, 86, 0
2, 62240, Note_on_c, 1, 86, 127
2, 62360, Note_on_c, 1, 70, 127
2, 62520, Note_off_c, 1, 70, 0
2, 62520, Note_off_c, 1, 86, 0
2, 62560, Note_on_c, 1, 70, 127
2, 62600, Note_on_c, 1, 82, 127
2, 62680, Note_off_c, 1, 70, 0
2, 62680, Note_off_c, 1, 82, 0
2, 62720, Note_on_c, 1, 68, 127
2, 62720, Note_on_c, 1, 84, 127
2, 62840, Note_off_c, 1, 84, 0
2, 62880, Note_on_c, 1, 86, 127
2, 63000, Note_off_c, 1, 86, 0
2, 63040, Note_on_c, 1, 87, 127
2, 63160, Note_off_c, 1, 87, 0
2, 63200, Note_on_c, 1, 87, 127
2, 63320, Note_off_c, 1, 68, 0
2, 63320, Note_off_c, 1, 87, 0
2, 63360, Note_on_c, 1, 68, 127
2, 63360, Note_on_c, 1, 86, 127
2, 63480, Note_off_c, 1, 86, 0
2, 63520, Note_on_c, 1, 87, 127
2, 63640, Note_off_c, 1, 68, 0
2, 63640, Note_off_c, 1, 87, 0
2, 63680, Note_on_c, 1, 67, 127
2, 63680, Note_on_c, 1, 82, 127
2, 63800, Note_off_c, 1, 82, 0
2, 63840, Note_on_c, 1, 85, 127
2, 63920, Note_off_c, 1, 85, 0
2, 64000, Note_on_c, 1, 82, 127
2, 64080, Note_off_c, 1, 82, 0
2, 64240, Note_off_c, 1, 67, 0
2, 64280, Note_on_c, 1, 65, 127
2, 64560, Note_off_c, 1, 65, 0
2, 64640, Note_on_c, 1, 33, 127
2, 64640, Note_on_c, 1, 36, 127
2, 64640, Note_on_c, 1, 45, 127
2, 64920, Note_off_c, 1, 33, 0
2, 64920, Note_off_c, 1, 36, 0
2, 64920, Note_off_c, 1, 45, 0
2, 64960, Note_on_c, 1, 34, 127
2, 64960, Note_on_c, 1, 38, 127
2, 64960, Note_on_c, 1, 46, 127
2, 65240, Note_off_c, 1, 34, 0
2, 65240, Note_off_c, 1, 38, 0
2, 65240, Note_off_c, 1, 46, 0
2, 65280, Note_on_c, 1, 36, 127
2, 65280, Note_on_c, 1, 43, 127
2, 65280, Note_on_c, 1, 48, 127
2, 65280, Note_on_c, 1, 55, 127
2, 65560, Note_off_c, 1, 36, 0
2, 65560, Note_off_c, 1, 43, 0
2, 65560, Note_off_c, 1, 48, 0
2, 65600, Note_on_c, 1, 39, 127
2, 65600, Note_on_c, 1, 43, 127
2, 65600, Note_on_c, 1, 51, 127
2, 65880, Note_off_c, 1, 39, 0
2, 65880, Note_off_c, 1, 43, 0
2, 65880, Note_off_c, 1, 51, 0
2, 65920, Note_on_c, 1, 36, 127
2, 65920, Note_on_c, 1, 43, 127
2, 65920, Note_on_c, 1, 48, 127
2, 66240, Note_off_c, 1, 36, 0
2, 66240, Note_off_c, 1, 43, 0
2, 66240, Note_off_c, 1, 48, 0
2, 66240, Note_off_c, 1, 55, 0
2, 66280, Note_on_c, 1, 39, 127
2, 66280, Note_on_c, 1, 43, 127
2, 66280, Note_on_c, 1, 51, 127
2, 66280, Note_on_c, 1, 56, 127
2, 66560, Note_off_c, 1, 39, 0
2, 66560, Note_off_c, 1, 43, 0
2, 66560, Note_off_c, 1, 51, 0
2, 66560, Note_off_c, 1, 56, 0
2, 66600, Note_on_c, 1, 36, 127
2, 66600, Note_on_c, 1, 43, 127
2, 66600, Note_on_c, 1, 48, 127
2, 66600, Note_on_c, 1, 55, 127
2, 66800, Note_off_c, 1, 36, 0
2, 66800, Note_off_c, 1, 43, 0
2, 66800, Note_off_c, 1, 48, 0
2, 66800, Note_off_c, 1, 55, 0
2, 66840, Note_on_c, 1, 36, 127
2, 66840, Note_on_c, 1, 43, 127
2, 66840, Note_on_c, 1, 48, 127
2, 66840, Note_on_c, 1, 55, 127
2, 66960, Note_off_c, 1, 36, 0
2, 66960, Note_off_c, 1, 43, 0
2, 66960, Note_off_c, 1, 48, 0
2, 67000, Note_on_c, 1, 39, 127
2, 67000, Note_on_c, 1, 43, 127
2, 67000, Note_on_c, 1, 51, 127
2, 67280, Note_off_c, 1, 39, 0
2, 67280, Note_off_c, 1, 43, 0
2, 67280, Note_off_c, 1, 51, 0
2, 67320, Note_on_c, 1, 36, 127
2, 67320, Note_on_c, 1, 43, 127
2, 67320, Note_on_c, 1, 48, 127
2, 67600, Note_off_c, 1, 36, 0
2, 67600, Note_off_c, 1, 43, 0
2, 67600, Note_off_c, 1, 48, 0
2, 67600, Note_off_c, 1, 55, 0
2, 67640, Note_on_c, 1, 39, 127
2, 67640, Note_on_c, 1, 43, 127
2, 67640, Note_on_c, 1, 51, 127
2, 67640, Note_on_c, 1, 58, 127
2, 67760, Note_off_c, 1, 58, 0
2, 67800, Note_on_c, 1, 56, 127
2, 67920, Note_off_c, 1, 39, 0
2, 67920, Note_off_c, 1, 43, 0
2, 67920, Note_off_c, 1, 51, 0
2, 67920, Note_off_c, 1, 56, 0
2, 67960, Note_on_c, 1, 36, 127
2, 67960, Note_on_c, 1, 43, 127
2, 67960, Note_on_c, 1, 48, 127
2, 67960, Note_on_c, 1, 55, 127
2, 68280, Note_off_c, 1, 36, 0
2, 68280, Note_off_c, 1, 43, 0
2, 68280, Note_off_c, 1, 48, 0
2, 68280, Note_off_c, 1, 55, 0
2, 68320, Note_on_c, 1, 39, 127
2, 68320, Note_on_c, 1, 43, 127
2, 68320, Note_on_c, 1, 51, 127
2, 68320, Note_on_c, 1, 56, 127
2, 68600, Note_off_c, 1, 39, 0
2, 68600, Note_off_c, 1, 43, 0
2, 68600, Note_off_c, 1, 51, 0
2, 68600, Note_off_c, 1, 56, 0
2, 68640, Note_on_c, 1, 36, 127
2, 68640, Note_on_c, 1, 43, 127
2, 68640, Note_on_c, 1, 48, 127
2, 68640, Note_on_c, 1, 55, 127
2, 68960, Note_off_c, 1, 36, 0
2, 68960, Note_off_c, 1, 43, 0
2, 68960, Note_off_c, 1, 48, 0
2, 68960, Note_off_c, 1, 55, 0
2, 69040, Note_on_c, 1, 39, 127
2, 69040, Note_on_c, 1, 43, 127
2, 69040, Note_on_c, 1, 51, 127
2, 69040, Note_on_c, 1, 56, 127
2, 69320, Note_off_c, 1, 39, 0
2, 69320, Note_off_c, 1, 43, 0
2, 69320, Note_off_c, 1, 51, 0
2, 69320, Note_off_c, 1, 56, 0
2, 69360, Note_on_c, 1, 36, 127
2, 69360, Note_on_c, 1, 43, 127
2, 69360, Note_on_c, 1, 48, 127
2, 69360, Note_on_c, 1, 55, 127
2, 69640, Note_off_c, 1, 36, 0
2, 69640, Note_off_c, 1, 43, 0
2, 69640, Note_off_c, 1, 48, 0
2, 69640, Note_off_c, 1, 55, 0
2, 69680, Note_on_c, 1, 39, 127
2, 69680, Note_on_c, 1, 43, 127
2, 69680, Note_on_c, 1, 51, 127
2, 69680, Note_on_c, 1, 60, 127
2, 69960, Note_off_c, 1, 39, 0
2, 69960, Note_off_c, 1, 43, 0
2, 69960, Note_off_c, 1, 51, 0
2, 69960, Note_off_c, 1, 60, 0
2, 70000, Note_on_c, 1, 39, 127
2, 70000, Note_on_c, 1, 43, 127
2, 70000, Note_on_c, 1, 51, 127
2, 70000, Note_on_c, 1, 60, 127
2, 70280, Note_off_c, 1, 39, 0
2, 70280, Note_off_c, 1, 43, 0
2, 70280, Note_off_c, 1, 51, 0
2, 70280, Note_off_c, 1, 60, 0
2, 70320, Note_on_c, 1, 36, 127
2, 70320, Note_on_c, 1, 43, 127
2, 70320, Note_on_c, 1, 48, 127
2, 70320, Note_on_c, 1, 62, 127
2, 70640, Note_off_c, 1, 36, 0
2, 70640, Note_off_c, 1, 43, 0
2, 70640, Note_off_c, 1, 48, 0
2, 70640, Note_off_c, 1, 62, 0
2, 70680, Note_on_c, 1, 34, 127
2, 70680, Note_on_c, 1, 46, 127
2, 70680, Note_on_c, 1, 53, 127
2, 70680, Note_on_c, 1, 58, 127
2, 70680, Note_on_c, 1, 62, 127
2, 70920, Note_off_c, 1, 34, 0
2, 70920, Note_off_c, 1, 46, 0
2, 70920, Note_off_c, 1, 53, 0
2, 70920, Note_off_c, 1, 58, 0
2, 70920, Note_off_c, 1, 62, 0
2, 70960, Note_on_c, 1, 34, 127
2, 70960, Note_on_c, 1, 46, 127
2, 70960, Note_on_c, 1, 53, 127
2, 70960, Note_on_c, 1, 58, 127
2, 70960, Note_on_c, 1, 62, 127
2, 71000, Note_off_c, 1, 34, 0
2, 71000, Note_on_c, 1, 39, 127
2, 71000, Note_off_c, 1, 53, 0
2, 71000, Note_off_c, 1, 58, 0
2, 71000, Note_off_c, 1, 62, 0
2, 71040, Note_on_c, 1, 55, 127
2, 71040, Note_on_c, 1, 63, 127
2, 71080, Note_off_c, 1, 63, 0
2, 71200, Note_on_c, 1, 63, 127
2, 71320, Note_off_c, 1, 39, 0
2, 71320, Note_off_c, 1, 46, 0
2, 71320, Note_off_c, 1, 55, 0
2, 71320, Note_off_c, 1, 63, 0
2, 71360, Note_on_c, 1, 39, 127
2, 71360, Note_on_c, 1, 47, 127
2, 71560, Note_off_c, 1, 39, 0
2, 71560, Note_off_c, 1, 47, 0
2, 71600, Note_on_c, 1, 48, 127
2, 71640, Note_off_c, 1, 48, 0
2, 71680, Note_on_c, 1, 39, 127
2, 71840, Note_on_c, 1, 46, 127
2, 71880, Note_off_c, 1, 46, 0
2, 71960, Note_off_c, 1, 39, 0
2, 72000, Note_on_c, 1, 39, 127
2, 72320, Note_off_c, 1, 39, 0
2, 72360, Note_on_c, 1, 36, 127
2, 72640, Note_off_c, 1, 36, 0
2, 72680, Note_on_c, 1, 39, 127
2, 72960, Note_off_c, 1, 39, 0
2, 73000, Note_on_c, 1, 58, 127
2, 73000, Note_on_c, 1, 65, 127
2, 73000, Note_on_c, 1, 67, 127
2, 73000, Note_on_c, 1, 73, 127
2, 73080, Note_off_c, 1, 58, 0
2, 73080, Note_off_c, 1, 65, 0
2, 73080, Note_off_c, 1, 67, 0
2, 73080, Note_off_c, 1, 73, 0
2, 73120, Note_on_c, 1, 58, 127
2, 73120, Note_on_c, 1, 65, 127
2, 73120, Note_on_c, 1, 67, 127
2, 73120, Note_on_c, 1, 73, 127
2, 73280, Note_off_c, 1, 73, 0
2, 73320, Note_off_c, 1, 58, 0
2, 73320, Note_off_c, 1, 65, 0
2, 73320, Note_off_c, 1, 67, 0
2, 73320, Note_on_c, 1, 77, 127
2, 73360, Note_on_c, 1, 58, 127
2, 73360, Note_on_c, 1, 61, 127
2, 73360, Note_on_c, 1, 65, 127
2, 73640, Note_on_c, 1, 70, 127
2, 73640, Note_off_c, 1, 77, 0
2, 73680, Note_off_c, 1, 58, 0
2, 73680, Note_off_c, 1, 61, 0
2, 73680, Note_off_c, 1, 65, 0
2, 73680, Note_off_c, 1, 70, 0
2, 73720, Note_on_c, 1, 42, 127
2, 73880, Note_on_c, 1, 62, 127
2, 73880, Note_on_c, 1, 69, 127
2, 73880, Note_on_c, 1, 72, 127
2, 73960, Note_off_c, 1, 62, 0
2, 73960, Note_off_c, 1, 69, 0
2, 73960, Note_off_c, 1, 72, 0
2, 74000, Note_off_c, 1, 42, 0
2, 74040, Note_on_c, 1, 42, 127
2, 74040, Note_on_c, 1, 62, 127
2, 74040, Note_on_c, 1, 69, 127
2, 74040, Note_on_c, 1, 72, 127
2, 74320, Note_off_c, 1, 42, 0
2, 74320, Note_off_c, 1, 62, 0
2, 74320, Note_off_c, 1, 69, 0
2, 74320, Note_off_c, 1, 72, 0
2, 74360, Note_on_c, 1, 50, 127
2, 74360, Note_on_c, 1, 67, 127
2, 74360, Note_on_c, 1, 71, 127
2, 74640, Note_off_c, 1, 50, 0
2, 74640, Note_off_c, 1, 67, 0
2, 74640, Note_off_c, 1, 71, 0
2, 74680, Note_on_c, 1, 50, 127
2, 74680, Note_on_c, 1, 66, 127
2, 74680, Note_on_c, 1, 69, 127
2, 74960, Note_off_c, 1, 50, 0
2, 74960, Note_off_c, 1, 66, 0
2, 74960, Note_off_c, 1, 69, 0
2, 75000, Note_on_c, 1, 60, 127
2, 75000, Note_on_c, 1, 63, 127
2, 75000, Note_on_c, 1, 69, 127
2, 75000, Note_on_c, 1, 72, 127
2, 75120, Note_off_c, 1, 60, 0
2, 75120, Note_off_c, 1, 63, 0
2, 75120, Note_off_c, 1, 69, 0
2, 75120, Note_off_c, 1, 72, 0
2, 75160, Note_on_c, 1, 60, 127
2, 75160, Note_on_c, 1, 63, 127
2, 75160, Note_on_c, 1, 69, 127
2, 75160, Note_on_c, 1, 72, 127
2, 75320, Note_off_c, 1, 60, 0
2, 75320, Note_off_c, 1, 63, 0
2, 75320, Note_off_c, 1, 69, 0
2, 75320, Note_off_c, 1, 72, 0
2, 75400, Note_on_c, 1, 54, 127
2, 75400, Note_on_c, 1, 69, 127
2, 75400, Note_on_c, 1, 74, 127
2, 75680, Note_off_c, 1, 54, 0
2, 75680, Note_off_c, 1, 69, 0
2, 75680, Note_off_c, 1, 74, 0
2, 75720, Note_on_c, 1, 55, 127
2, 75720, Note_on_c, 1, 64, 127
2, 75720, Note_on_c, 1, 70, 127
2, 76040, Note_off_c, 1, 55, 0
2, 76040, Note_off_c, 1, 70, 0
2, 76080, Note_on_c, 1, 46, 127
2, 76080, Note_on_c, 1, 73, 127
2, 76360, Note_off_c, 1, 46, 0
2, 76360, Note_off_c, 1, 64, 0
2, 76360, Note_off_c, 1, 73, 0
2, 76400, Note_on_c, 1, 55, 127
2, 76400, Note_on_c, 1, 64, 127
2, 76400, Note_on_c, 1, 73, 127
2, 76680, Note_off_c, 1, 55, 0
2, 76680, Note_off_c, 1, 64, 0
2, 76680, Note_off_c, 1, 73, 0
2, 76720, Note_on_c, 1, 45, 127
2, 76720, Note_on_c, 1, 64, 127
2, 76720, Note_on_c, 1, 69, 127
2, 76720, Note_on_c, 1, 73, 127
2, 77000, Note_off_c, 1, 45, 0
2, 77000, Note_off_c, 1, 64, 0
2, 77000, Note_off_c, 1, 69, 0
2, 77000, Note_off_c, 1, 73, 0
2, 77040, Note_on_c, 1, 38, 127
2, 77040, Note_on_c, 1, 50, 127
2, 77040, Note_on_c, 1, 73, 127
2, 77040, Note_on_c, 1, 79, 127
2, 77040, Note_on_c, 1, 81, 127
2, 77080, Note_off_c, 1, 38, 0
2, 77080, Note_on_c, 1, 58, 127
2, 77080, Note_on_c, 1, 65, 127
2, 77080, Note_on_c, 1, 70, 127
2, 77080, Note_off_c, 1, 73, 0
2, 77080, Note_off_c, 1, 79, 0
2, 77080, Note_off_c, 1, 81, 0
2, 77080, Note_on_c, 1, 82, 127
2, 77120, Note_off_c, 1, 50, 0
2, 77120, Note_off_c, 1, 58, 0
2, 77120, Note_off_c, 1, 65, 0
2, 77120, Note_off_c, 1, 70, 0
2, 77120, Note_off_c, 1, 82, 0
2, 77160, Note_on_c, 1, 59, 127
2, 77160, Note_on_c, 1, 80, 127
2, 77160, Note_on_c, 1, 87, 127
2, 77160, Note_on_c, 1, 92, 127
2, 77200, Note_on_c, 1, 40, 127
2, 77200, Note_on_c, 1, 44, 127
2, 77200, Note_on_c, 1, 62, 127
2, 77200, Note_on_c, 1, 71, 127
2, 77200, Note_off_c, 1, 80, 0
2, 77200, Note_off_c, 1, 87, 0
2, 77200, Note_off_c, 1, 92, 0
2, 77240, Note_off_c, 1, 40, 0
2, 77240, Note_off_c, 1, 44, 0
2, 77240, Note_on_c, 1, 48, 127
2, 77240, Note_on_c, 1, 58, 127
2, 77240, Note_off_c, 1, 59, 0
2, 77240, Note_off_c, 1, 62, 0
2, 77240, Note_on_c, 1, 70, 127
2, 77240, Note_off_c, 1, 71, 0
2, 77280, Note_off_c, 1, 48, 0
2, 77280, Note_on_c, 1, 50, 127
2, 77280, Note_off_c, 1, 58, 0
2, 77280, Note_on_c, 1, 76, 127
2, 77280, Note_on_c, 1, 79, 127
2, 77360, Note_off_c, 1, 50, 0
2, 77360, Note_off_c, 1, 70, 0
2, 77360, Note_off_c, 1, 76, 0
2, 77360, Note_off_c, 1, 79, 0
2, 77400, Note_on_c, 1, 48, 127
2, 77400, Note_on_c, 1, 65, 127
2, 77400, Note_on_c, 1, 70, 127
2, 77400, Note_on_c, 1, 74, 127
2, 77680, Note_off_c, 1, 48, 0
2, 77680, Note_off_c, 1, 65, 0
2, 77680, Note_off_c, 1, 70, 0
2, 77680, Note_off_c, 1, 74, 0
2, 77720, Note_on_c, 1, 46, 127
2, 77720, Note_on_c, 1, 65, 127
2, 77720, Note_on_c, 1, 70, 127
2, 77720, Note_on_c, 1, 74, 127
2, 78000, Note_off_c, 1, 46, 0
2, 78000, Note_off_c, 1, 65, 0
2, 78000, Note_off_c, 1, 70, 0
2, 78000, Note_off_c, 1, 74, 0
2, 78040, Note_on_c, 1, 58, 127
2, 78040, Note_on_c, 1, 67, 127
2, 78040, Note_on_c, 1, 73, 127
2, 78040, Note_on_c, 1, 76, 127
2, 78360, Note_off_c, 1, 58, 0
2, 78360, Note_off_c, 1, 67, 0
2, 78360, Note_off_c, 1, 73, 0
2, 78360, Note_off_c, 1, 76, 0
2, 78400, Note_on_c, 1, 58, 127
2, 78400, Note_on_c, 1, 67, 127
2, 78400, Note_on_c, 1, 73, 127
2, 78400, Note_on_c, 1, 76, 127
2, 78680, Note_off_c, 1, 58, 0
2, 78680, Note_off_c, 1, 67, 0
2, 78680, Note_off_c, 1, 73, 0
2, 78680, Note_off_c, 1, 76, 0
2, 78720, Note_on_c, 1, 65, 127
2, 78720, Note_on_c, 1, 70, 127
2, 78720, Note_on_c, 1, 75, 127
2, 78720, Note_on_c, 1, 79, 127
2, 78840, Note_off_c, 1, 79, 0
2, 78880, Note_on_c, 1, 81, 127
2, 78920, Note_off_c, 1, 70, 0
2, 78920, Note_off_c, 1, 75, 0
2, 78920, Note_off_c, 1, 81, 0
2, 78960, Note_off_c, 1, 65, 0
2, 79000, Note_on_c, 1, 65, 127
2, 79000, Note_on_c, 1, 70, 127
2, 79000, Note_on_c, 1, 75, 127
2, 79000, Note_on_c, 1, 81, 127
2, 79040, Note_off_c, 1, 65, 0
2, 79040, Note_off_c, 1, 70, 0
2, 79040, Note_off_c, 1, 75, 0
2, 79040, Note_off_c, 1, 81, 0
2, 79080, Note_on_c, 1, 58, 127
2, 79080, Note_on_c, 1, 65, 127
2, 79080, Note_on_c, 1, 70, 127
2, 79080, Note_on_c, 1, 74, 127
2, 79080, Note_on_c, 1, 77, 127
2, 79360, Note_off_c, 1, 77, 0
2, 79400, Note_on_c, 1, 82, 127
2, 79680, Note_off_c, 1, 58, 0
2, 79680, Note_off_c, 1, 65, 0
2, 79680, Note_off_c, 1, 70, 0
2, 79680, Note_off_c, 1, 74, 0
2, 79680, Note_off_c, 1, 82, 0
2, 79720, Note_on_c, 1, 58, 127
2, 79720, Note_on_c, 1, 65, 127
2, 79720, Note_on_c, 1, 70, 127
2, 79720, Note_on_c, 1, 74, 127
2, 79720, Note_on_c, 1, 82, 127
2, 80320, Note_off_c, 1, 58, 0
2, 80320, Note_off_c, 1, 65, 0
2, 80320, Note_off_c, 1, 70, 0
2, 80320, Note_off_c, 1, 74, 0
2, 80320, Note_off_c, 1, 82, 0
2, 80360, Note_on_c, 1, 58, 127
2, 80360, Note_on_c, 1, 65, 127
2, 80360, Note_on_c, 1, 70, 127
2, 80360, Note_on_c, 1, 74, 127
2, 80360, Note_on_c, 1, 82, 127
2, 80640, Note_off_c, 1, 58, 0
2, 80640, Note_off_c, 1, 65, 0
2, 80640, Note_off_c, 1, 70, 0
2, 80640, Note_off_c, 1, 74, 0
2, 80640, Note_off_c, 1, 82, 0
2, 80680, Note_on_c, 1, 65, 127
2, 80680, Note_on_c, 1, 70, 127
2, 80680, Note_on_c, 1, 75, 127
2, 80680, Note_on_c, 1, 79, 127
2, 80800, Note_off_c, 1, 79, 0
2, 80840, Note_on_c, 1, 81, 127
2, 80960, Note_off_c, 1, 65, 0
2, 80960, Note_off_c, 1, 70, 0
2, 80960, Note_off_c, 1, 75, 0
2, 80960, Note_off_c, 1, 81, 0
2, 81040, Note_on_c, 1, 58, 127
2, 81040, Note_on_c, 1, 65, 127
2, 81040, Note_on_c, 1, 70, 127
2, 81040, Note_on_c, 1, 74, 127
2, 81040, Note_on_c, 1, 77, 127
2, 81320, Note_off_c, 1, 58, 0
2, 81320, Note_off_c, 1, 65, 0
2, 81320, Note_off_c, 1, 70, 0
2, 81320, Note_off_c, 1, 74, 0
2, 81320, Note_off_c, 1, 77, 0
2, 81360, Note_on_c, 1, 58, 127
2, 81360, Note_on_c, 1, 62, 127
2, 81360, Note_on_c, 1, 65, 127
2, 81360, Note_on_c, 1, 70, 127
2, 81360, Note_on_c, 1, 74, 127
2, 81640, Note_off_c, 1, 58, 0
2, 81640, Note_off_c, 1, 62, 0
2, 81640, Note_off_c, 1, 65, 0
2, 81640, Note_off_c, 1, 70, 0
2, 81640, Note_off_c, 1, 74, 0
2, 81680, Note_on_c, 1, 58, 127
2, 81680, Note_on_c, 1, 62, 127
2, 81680, Note_on_c, 1, 65, 127
2, 81680, Note_on_c, 1, 70, 127
2, 81680, Note_on_c, 1, 74, 127
2, 82480, Note_off_c, 1, 65, 0
2, 82480, Note_off_c, 1, 70, 0
2, 82480, Note_off_c, 1, 74, 0
2, 82480, Note_on_c, 1, 82, 127
2, 82640, Note_off_c, 1, 58, 0
2, 82640, Note_off_c, 1, 62, 0
2, 82640, Note_off_c, 1, 82, 0
2, 82680, Note_on_c, 1, 55, 127
2, 82680, Note_on_c, 1, 58, 127
2, 82680, Note_on_c, 1, 67, 127
2, 82680, Note_on_c, 1, 70, 127
2, 83000, Note_off_c, 1, 55, 0
2, 83000, Note_off_c, 1, 58, 0
2, 83000, Note_off_c, 1, 67, 0
2, 83000, Note_off_c, 1, 70, 0
2, 83080, Note_on_c, 1, 55, 127
2, 83080, Note_on_c, 1, 62, 127
2, 83080, Note_on_c, 1, 67, 127
2, 83080, Note_on_c, 1, 74, 127
2, 83360, Note_off_c, 1, 55, 0
2, 83360, Note_off_c, 1, 62, 0
2, 83360, Note_off_c, 1, 67, 0
2, 83360, Note_off_c, 1, 74, 0
2, 83400, Note_on_c, 1, 39, 127
2, 83400, Note_on_c, 1, 51, 127
2, 83400, Note_on_c, 1, 63, 127
2, 83400, Note_on_c, 1, 69, 127
2, 83400, Note_on_c, 1, 72, 127
2, 83680, Note_off_c, 1, 39, 0
2, 83680, Note_off_c, 1, 51, 0
2, 83680, Note_off_c, 1, 63, 0
2, 83680, Note_off_c, 1, 69, 0
2, 83680, Note_off_c, 1, 72, 0
2, 83720, Note_on_c, 1, 39, 127
2, 83720, Note_on_c, 1, 51, 127
2, 83720, Note_on_c, 1, 63, 127
2, 83720, Note_on_c, 1, 69, 127
2, 83720, Note_on_c, 1, 72, 127
2, 84000, Note_off_c, 1, 39, 0
2, 84000, Note_off_c, 1, 51, 0
2, 84000, Note_off_c, 1, 63, 0
2, 84000, Note_off_c, 1, 69, 0
2, 84000, Note_off_c, 1, 72, 0
2, 84040, Note_on_c, 1, 39, 127
2, 84040, Note_on_c, 1, 51, 127
2, 84040, Note_on_c, 1, 63, 127
2, 84040, Note_on_c, 1, 69, 127
2, 84040, Note_on_c, 1, 72, 127
2, 84320, Note_off_c, 1, 39, 0
2, 84320, Note_off_c, 1, 51, 0
2, 84320, Note_off_c, 1, 63, 0
2, 84320, Note_off_c, 1, 69, 0
2, 84320, Note_off_c, 1, 72, 0
2, 84360, Note_on_c, 1, 55, 127
2, 84360, Note_on_c, 1, 59, 127
2, 84360, Note_on_c, 1, 65, 127
2, 84360, Note_on_c, 1, 67, 127
2, 84360, Note_on_c, 1, 74, 127
2, 84640, Note_off_c, 1, 55, 0
2, 84640, Note_off_c, 1, 59, 0
2, 84640, Note_off_c, 1, 67, 0
2, 84640, Note_off_c, 1, 74, 0
2, 84680, Note_off_c, 1, 65, 0
2, 84720, Note_on_c, 1, 55, 127
2, 84720, Note_on_c, 1, 59, 127
2, 84720, Note_on_c, 1, 65, 127
2, 84720, Note_on_c, 1, 67, 127
2, 84720, Note_on_c, 1, 74, 127
2, 85000, Note_off_c, 1, 55, 0
2, 85000, Note_off_c, 1, 59, 0
2, 85000, Note_off_c, 1, 65, 0
2, 85000, Note_off_c, 1, 67, 0
2, 85000, Note_off_c, 1, 74, 0
2, 85040, Note_on_c, 1, 55, 127
2, 85040, Note_on_c, 1, 59, 127
2, 85040, Note_on_c, 1, 65, 127
2, 85040, Note_on_c, 1, 67, 127
2, 85040, Note_on_c, 1, 74, 127
2, 85360, Note_off_c, 1, 55, 0
2, 85360, Note_off_c, 1, 59, 0
2, 85360, Note_off_c, 1, 67, 0
2, 85360, Note_off_c, 1, 74, 0
2, 85400, Note_on_c, 1, 55, 127
2, 85400, Note_on_c, 1, 62, 127
2, 85400, Note_on_c, 1, 67, 127
2, 85720, Note_off_c, 1, 55, 0
2, 85720, Note_off_c, 1, 62, 0
2, 85720, Note_off_c, 1, 65, 0
2, 85720, Note_off_c, 1, 67, 0
2, 85760, Note_on_c, 1, 60, 127
2, 85760, Note_on_c, 1, 64, 127
2, 85760, Note_on_c, 1, 67, 127
2, 85760, Note_on_c, 1, 76, 127
2, 86040, Note_off_c, 1, 76, 0
2, 86080, Note_on_c, 1, 59, 127
2, 86080, Note_off_c, 1, 60, 0
2, 86080, Note_on_c, 1, 71, 127
2, 86080, Note_on_c, 1, 79, 127
2, 86200, Note_off_c, 1, 59, 0
2, 86200, Note_off_c, 1, 64, 0
2, 86200, Note_off_c, 1, 67, 0
2, 86200, Note_off_c, 1, 71, 0
2, 86200, Note_off_c, 1, 79, 0
2, 86240, Note_on_c, 1, 57, 127
2, 86240, Note_on_c, 1, 64, 127
2, 86240, Note_on_c, 1, 69, 127
2, 86240, Note_on_c, 1, 72, 127
2, 86400, Note_off_c, 1, 57, 0
2, 86400, Note_off_c, 1, 64, 0
2, 86400, Note_off_c, 1, 69, 0
2, 86400, Note_off_c, 1, 72, 0
2, 86440, Note_on_c, 1, 60, 127
2, 86440, Note_on_c, 1, 64, 127
2, 86440, Note_on_c, 1, 67, 127
2, 86440, Note_on_c, 1, 72, 127
2, 86560, Note_off_c, 1, 60, 0
2, 86560, Note_off_c, 1, 64, 0
2, 86560, Note_off_c, 1, 67, 0
2, 86560, Note_off_c, 1, 72, 0
2, 86600, Note_on_c, 1, 48, 127
2, 86600, Note_on_c, 1, 57, 127
2, 86600, Note_on_c, 1, 65, 127
2, 86600, Note_on_c, 1, 69, 127
2, 87160, Note_off_c, 1, 48, 0
2, 87160, Note_off_c, 1, 57, 0
2, 87160, Note_off_c, 1, 65, 0
2, 87160, Note_off_c, 1, 69, 0
2, 87200, Note_on_c, 1, 48, 127
2, 87200, Note_on_c, 1, 57, 127
2, 87200, Note_on_c, 1, 65, 127
2, 87200, Note_on_c, 1, 69, 127
2, 87240, Note_off_c, 1, 48, 0
2, 87240, Note_off_c, 1, 57, 0
2, 87240, Note_off_c, 1, 65, 0
2, 87240, Note_off_c, 1, 69, 0
2, 87280, Note_on_c, 1, 48, 127
2, 87280, Note_on_c, 1, 55, 127
2, 87280, Note_on_c, 1, 64, 127
2, 87280, Note_on_c, 1, 70, 127
2, 87560, Note_off_c, 1, 48, 0
2, 87560, Note_off_c, 1, 55, 0
2, 87560, Note_off_c, 1, 64, 0
2, 87560, Note_off_c, 1, 70, 0
2, 87600, Note_on_c, 1, 48, 127
2, 87600, Note_on_c, 1, 57, 127
2, 87600, Note_on_c, 1, 65, 127
2, 87600, Note_on_c, 1, 69, 127
2, 88240, Note_off_c, 1, 48, 0
2, 88240, Note_off_c, 1, 57, 0
2, 88240, Note_off_c, 1, 65, 0
2, 88240, Note_off_c, 1, 69, 0
2, 88280, Note_on_c, 1, 48, 127
2, 88280, Note_on_c, 1, 55, 127
2, 88280, Note_on_c, 1, 64, 127
2, 88280, Note_on_c, 1, 67, 127
2, 89240, Note_off_c, 1, 48, 0
2, 89240, Note_off_c, 1, 55, 0
2, 89240, Note_off_c, 1, 64, 0
2, 89240, Note_off_c, 1, 67, 0
2, 89320, Note_on_c, 1, 53, 127
2, 89320, Note_on_c, 1, 57, 127
2, 89320, Note_on_c, 1, 60, 127
2, 89320, Note_on_c, 1, 65, 127
2, 89320, Note_on_c, 1, 69, 127
2, 89600, Note_off_c, 1, 53, 0
2, 89600, Note_off_c, 1, 57, 0
2, 89600, Note_off_c, 1, 60, 0
2, 89600, Note_off_c, 1, 65, 0
2, 89600, Note_off_c, 1, 69, 0
2, 89960, Note_on_c, 1, 52, 127
2, 89960, Note_on_c, 1, 64, 127
2, 90240, Note_off_c, 1, 52, 0
2, 90240, Note_off_c, 1, 64, 0
2, 90280, Note_on_c, 1, 46, 127
2, 90280, Note_on_c, 1, 58, 127
2, 90480, Note_off_c, 1, 46, 0
2, 90480, Note_off_c, 1, 58, 0
2, 90560, Note_on_c, 1, 46, 127
2, 90560, Note_on_c, 1, 58, 127
2, 90880, Note_off_c, 1, 46, 0
2, 90880, Note_off_c, 1, 58, 0
2, 90920, Note_on_c, 1, 45, 127
2, 90920, Note_on_c, 1, 57, 127
2, 91200, Note_off_c, 1, 45, 0
2, 91200, Note_off_c, 1, 57, 0
2, 91240, Note_on_c, 1, 46, 127
2, 91240, Note_on_c, 1, 58, 127
2, 91360, Note_off_c, 1, 46, 0
2, 91360, Note_off_c, 1, 58, 0
2, 91400, Note_on_c, 1, 46, 127
2, 91400, Note_on_c, 1, 58, 127
2, 91480, Note_off_c, 1, 46, 0
2, 91480, Note_off_c, 1, 58, 0
2, 91600, Note_on_c, 1, 58, 127
2, 91600, Note_on_c, 1, 70, 127
2, 92200, Note_off_c, 1, 58, 0
2, 92200, Note_off_c, 1, 70, 0
2, 92240, Note_on_c, 1, 41, 127
2, 92240, Note_on_c, 1, 48, 127
2, 92240, Note_on_c, 1, 53, 127
2, 92240, Note_on_c, 1, 56, 127
2, 92240, Note_on_c, 1, 60, 127
2, 92240, Note_on_c, 1, 68, 127
2, 92880, Note_off_c, 1, 41, 0
2, 92880, Note_off_c, 1, 48, 0
2, 92880, Note_off_c, 1, 53, 0
2, 92880, Note_off_c, 1, 56, 0
2, 92880, Note_off_c, 1, 60, 0
2, 92880, Note_off_c, 1, 68, 0
2, 92920, Note_on_c, 1, 41, 127
2, 92920, Note_on_c, 1, 48, 127
2, 92920, Note_on_c, 1, 53, 127
2, 92920, Note_on_c, 1, 56, 127
2, 92920, Note_on_c, 1, 60, 127
2, 92920, Note_on_c, 1, 68, 127
2, 93520, Note_off_c, 1, 41, 0
2, 93520, Note_off_c, 1, 48, 0
2, 93520, Note_off_c, 1, 53, 0
2, 93520, Note_off_c, 1, 56, 0
2, 93520, Note_off_c, 1, 60, 0
2, 93520, Note_off_c, 1, 68, 0
2, 93560, Note_on_c, 1, 41, 127
2, 93560, Note_on_c, 1, 48, 127
2, 93560, Note_on_c, 1, 53, 127
2, 93560, Note_on_c, 1, 56, 127
2, 93560, Note_on_c, 1, 60, 127
2, 93560, Note_on_c, 1, 68, 127
2, 93600, Note_off_c, 1, 41, 0
2, 93600, Note_off_c, 1, 48, 0
2, 93600, Note_off_c, 1, 53, 0
2, 93600, Note_off_c, 1, 56, 0
2, 93600, Note_off_c, 1, 60, 0
2, 93600, Note_off_c, 1, 68, 0
2, 93640, Note_on_c, 1, 41, 127
2, 93640, Note_on_c, 1, 48, 127
2, 93640, Note_on_c, 1, 53, 127
2, 93640, Note_on_c, 1, 56, 127
2, 93640, Note_on_c, 1, 60, 127
2, 93640, Note_on_c, 1, 68, 127
2, 94280, Note_off_c, 1, 41, 0
2, 94280, Note_off_c, 1, 48, 0
2, 94280, Note_off_c, 1, 53, 0
2, 94280, Note_off_c, 1, 56, 0
2, 94280, Note_off_c, 1, 60, 0
2, 94280, Note_off_c, 1, 68, 0
2, 94320, Note_on_c, 1, 41, 127
2, 94320, Note_on_c, 1, 48, 127
2, 94320, Note_on_c, 1, 53, 127
2, 94320, Note_on_c, 1, 56, 127
2, 94320, Note_on_c, 1, 60, 127
2, 94320, Note_on_c, 1, 68, 127
2, 94960, Note_off_c, 1, 41, 0
2, 94960, Note_off_c, 1, 48, 0
2, 94960, Note_off_c, 1, 53, 0
2, 94960, Note_off_c, 1, 56, 0
2, 94960, Note_off_c, 1, 60, 0
2, 94960, Note_off_c, 1, 68, 0
2, 95000, Note_on_c, 1, 37, 127
2, 95000, Note_on_c, 1, 44, 127
2, 95000, Note_on_c, 1, 49, 127
2, 95000, Note_on_c, 1, 52, 127
2, 95000, Note_on_c, 1, 56, 127
2, 95000, Note_on_c, 1, 61, 127
2, 95000, Note_on_c, 1, 64, 127
2, 95000, Note_on_c, 1, 73, 127
2, 95040, Note_on_c, 1, 33, 127
2, 95040, Note_off_c, 1, 37, 0
2, 95040, Note_off_c, 1, 44, 0
2, 95040, Note_on_c, 1, 45, 127
2, 95040, Note_off_c, 1, 49, 0
2, 95040, Note_off_c, 1, 52, 0
2, 95040, Note_off_c, 1, 56, 0
2, 95040, Note_on_c, 1, 58, 127
2, 95040, Note_off_c, 1, 64, 0
2, 95040, Note_off_c, 1, 73, 0
2, 95080, Note_off_c, 1, 33, 0
2, 95080, Note_off_c, 1, 45, 0
2, 95080, Note_on_c, 1, 46, 127
2, 95080, Note_on_c, 1, 49, 127
2, 95080, Note_on_c, 1, 52, 127
2, 95080, Note_off_c, 1, 58, 0
2, 95080, Note_off_c, 1, 61, 0
2, 95080, Note_on_c, 1, 67, 127
2, 95080, Note_on_c, 1, 79, 127
2, 95120, Note_on_c, 1, 45, 127
2, 95120, Note_off_c, 1, 46, 0
2, 95120, Note_off_c, 1, 49, 0
2, 95120, Note_on_c, 1, 59, 127
2, 95120, Note_on_c, 1, 61, 127
2, 95120, Note_on_c, 1, 64, 127
2, 95120, Note_off_c, 1, 67, 0
2, 95120, Note_on_c, 1, 68, 127
2, 95120, Note_off_c, 1, 79, 0
2, 95160, Note_on_c, 1, 36, 127
2, 95160, Note_on_c, 1, 40, 127
2, 95160, Note_on_c, 1, 42, 127
2, 95160, Note_off_c, 1, 45, 0
2, 95160, Note_on_c, 1, 48, 127
2, 95160, Note_off_c, 1, 52, 0
2, 95160, Note_off_c, 1, 59, 0
2, 95160, Note_off_c, 1, 61, 0
2, 95160, Note_off_c, 1, 64, 0
2, 95160, Note_off_c, 1, 68, 0
2, 95160, Note_on_c, 1, 93, 127
2, 95160, Note_on_c, 1, 100, 127
2, 95160, Note_on_c, 1, 102, 127
2, 95160, Note_on_c, 1, 105, 127
2, 95200, Note_off_c, 1, 36, 0
2, 95200, Note_off_c, 1, 40, 0
2, 95200, Note_off_c, 1, 42, 0
2, 95200, Note_on_c, 1, 52, 127
2, 95200, Note_on_c, 1, 55, 127
2, 95200, Note_on_c, 1, 58, 127
2, 95200, Note_on_c, 1, 60, 127
2, 95200, Note_on_c, 1, 64, 127
2, 95200, Note_on_c, 1, 67, 127
2, 95200, Note_on_c, 1, 70, 127
2, 95200, Note_on_c, 1, 72, 127
2, 95200, Note_off_c, 1, 93, 0
2, 95200, Note_off_c, 1, 100, 0
2, 95200, Note_off_c, 1, 102, 0
2, 95200, Note_off_c, 1, 105, 0
2, 95240, Note_on_c, 1, 36, 127
2, 95240, Note_on_c, 1, 40, 127
2, 95240, Note_on_c, 1, 42, 127
2, 95240, Note_off_c, 1, 52, 0
2, 95240, Note_off_c, 1, 55, 0
2, 95240, Note_off_c, 1, 58, 0
2, 95240, Note_off_c, 1, 60, 0
2, 95240, Note_off_c, 1, 64, 0
2, 95240, Note_off_c, 1, 67, 0
2, 95240, Note_off_c, 1, 70, 0
2, 95240, Note_off_c, 1, 72, 0
2, 95240, Note_on_c, 1, 93, 127
2, 95240, Note_on_c, 1, 100, 127
2, 95240, Note_on_c, 1, 102, 127
2, 95240, Note_on_c, 1, 105, 127
2, 95280, Note_off_c, 1, 36, 0
2, 95280, Note_off_c, 1, 40, 0
2, 95280, Note_off_c, 1, 42, 0
2, 95280, Note_off_c, 1, 48, 0
2, 95280, Note_off_c, 1, 93, 0
2, 95280, Note_off_c, 1, 100, 0
2, 95280, Note_off_c, 1, 102, 0
2, 95280, Note_off_c, 1, 105, 0
2, 95320, Note_on_c, 1, 33, 127
2, 95320, Note_on_c, 1, 60, 127
2, 95320, Note_on_c, 1, 72, 127
2, 95600, Note_off_c, 1, 33, 0
2, 95600, Note_off_c, 1, 60, 0
2, 95600, Note_off_c, 1, 72, 0
2, 95640, Note_on_c, 1, 33, 127
2, 95640, Note_on_c, 1, 60, 127
2, 95640, Note_on_c, 1, 72, 127
2, 95680, Note_off_c, 1, 33, 0
2, 95680, Note_off_c, 1, 60, 0
2, 95680, Note_on_c, 1, 63, 127
2, 95680, Note_off_c, 1, 72, 0
2, 95720, Note_on_c, 1, 55, 127
2, 95720, Note_off_c, 1, 63, 0
2, 95720, Note_on_c, 1, 93, 127
2, 95720, Note_on_c, 1, 96, 127
2, 95760, Note_off_c, 1, 55, 0
2, 95760, Note_on_c, 1, 59, 127
2, 95760, Note_on_c, 1, 60, 127
2, 95760, Note_on_c, 1, 64, 127
2, 95760, Note_on_c, 1, 76, 127
2, 95760, Note_on_c, 1, 84, 127
2, 95760, Note_on_c, 1, 88, 127
2, 95760, Note_off_c, 1, 93, 0
2, 95760, Note_off_c, 1, 96, 0
2, 95800, Note_on_c, 1, 57, 127
2, 95800, Note_off_c, 1, 59, 0
2, 95800, Note_off_c, 1, 60, 0
2, 95800, Note_on_c, 1, 61, 127
2, 95800, Note_on_c, 1, 67, 127
2, 95800, Note_on_c, 1, 70, 127
2, 95800, Note_off_c, 1, 76, 0
2, 95800, Note_on_c, 1, 82, 127
2, 95800, Note_off_c, 1, 84, 0
2, 95800, Note_off_c, 1, 88, 0
2, 95840, Note_on_c, 1, 46, 127
2, 95840, Note_on_c, 1, 56, 127
2, 95840, Note_off_c, 1, 57, 0
2, 95840, Note_off_c, 1, 64, 0
2, 95840, Note_on_c, 1, 65, 127
2, 95840, Note_off_c, 1, 67, 0
2, 95840, Note_off_c, 1, 82, 0
2, 95880, Note_off_c, 1, 46, 0
2, 95880, Note_off_c, 1, 56, 0
2, 95880, Note_on_c, 1, 59, 127
2, 95880, Note_off_c, 1, 61, 0
2, 95880, Note_off_c, 1, 65, 0
2, 95880, Note_off_c, 1, 70, 0
2, 95880, Note_on_c, 1, 76, 127
2, 95880, Note_on_c, 1, 83, 127
2, 95880, Note_on_c, 1, 87, 127
2, 96000, Note_off_c, 1, 59, 0
2, 96000, Note_off_c, 1, 76, 0
2, 96000, Note_off_c, 1, 83, 0
2, 96000, Note_off_c, 1, 87, 0
2, 96040, Note_on_c, 1, 71, 127
2, 96040, Note_on_c, 1, 79, 127
2, 96040, Note_on_c, 1, 82, 127
2, 96040, Note_on_c, 1, 88, 127
2, 96040, Note_on_c, 1, 97, 127
2, 96280, Note_off_c, 1, 97, 0
2, 96280, Note_on_c, 1, 98, 127
2, 96320, Note_off_c, 1, 71, 0
2, 96320, Note_off_c, 1, 79, 0
2, 96320, Note_off_c, 1, 82, 0
2, 96320, Note_off_c, 1, 88, 0
2, 96320, Note_off_c, 1, 98, 0
2, 96400, Note_on_c, 1, 51, 127
2, 96400, Note_on_c, 1, 63, 127
2, 96400, Note_on_c, 1, 84, 127
2, 96400, Note_on_c, 1, 96, 127
2, 96680, Note_off_c, 1, 51, 0
2, 96680, Note_off_c, 1, 63, 0
2, 96680, Note_on_c, 1, 75, 127
2, 96680, Note_off_c, 1, 84, 0
2, 96680, Note_on_c, 1, 87, 127
2, 96680, Note_off_c, 1, 96, 0
2, 96720, Note_on_c, 1, 51, 127
2, 96720, Note_on_c, 1, 63, 127
2, 96720, Note_off_c, 1, 75, 0
2, 96720, Note_on_c, 1, 84, 127
2, 96720, Note_off_c, 1, 87, 0
2, 96720, Note_on_c, 1, 96, 127
2, 97000, Note_off_c, 1, 51, 0
2, 97000, Note_off_c, 1, 63, 0
2, 97000, Note_off_c, 1, 84, 0
2, 97000, Note_off_c, 1, 96, 0
2, 97240, Note_on_c, 1, 79, 127
2, 97640, Note_off_c, 1, 79, 0
2, 97680, Note_on_c, 1, 79, 127
2, 98080, Note_on_c, 1, 67, 127
2, 98080, Note_off_c, 1, 79, 0
2, 98120, Note_off_c, 1, 67, 0
2, 98120, Note_on_c, 1, 70, 127
2, 98120, Note_on_c, 1, 86, 127
2, 98240, Note_off_c, 1, 70, 0
2, 98280, Note_on_c, 1, 74, 127
2, 98400, Note_off_c, 1, 74, 0
2, 98400, Note_off_c, 1, 86, 0
2, 98440, Note_on_c, 1, 66, 127
2, 98440, Note_on_c, 1, 86, 127
2, 98720, Note_off_c, 1, 66, 0
2, 98760, Note_on_c, 1, 65, 127
2, 99080, Note_off_c, 1, 65, 0
2, 99080, Note_off_c, 1, 86, 0
2, 99120, Note_on_c, 1, 56, 127
2, 99120, Note_on_c, 1, 75, 127
2, 99120, Note_on_c, 1, 83, 127
2, 99400, Note_off_c, 1, 75, 0
2, 99400, Note_off_c, 1, 83, 0
2, 99440, Note_on_c, 1, 75, 127
2, 99440, Note_on_c, 1, 83, 127
2, 99720, Note_off_c, 1, 56, 0
2, 99720, Note_off_c, 1, 75, 0
2, 99760, Note_on_c, 1, 56, 127
2, 99760, Note_on_c, 1, 76, 127
2, 99760, Note_off_c, 1, 83, 0
2, 99760, Note_on_c, 1, 84, 127
2, 99800, Note_off_c, 1, 56, 0
2, 99800, Note_off_c, 1, 76, 0
2, 99800, Note_off_c, 1, 84, 0
2, 99840, Note_on_c, 1, 56, 127
2, 99840, Note_on_c, 1, 76, 127
2, 99840, Note_on_c, 1, 84, 127
2, 100120, Note_off_c, 1, 56, 0
2, 100160, Note_on_c, 1, 53, 127
2, 100160, Note_on_c, 1, 75, 127
2, 100160, Note_off_c, 1, 76, 0
2, 100160, Note_off_c, 1, 84, 0
2, 100160, Note_on_c, 1, 85, 127
2, 100440, Note_off_c, 1, 53, 0
2, 100440, Note_off_c, 1, 75, 0
2, 100440, Note_off_c, 1, 85, 0
2, 100480, Note_on_c, 1, 61, 127
2, 100480, Note_on_c, 1, 75, 127
2, 100480, Note_on_c, 1, 87, 127
2, 100640, Note_on_c, 1, 57, 127
2, 100640, Note_on_c, 1, 60, 127
2, 100640, Note_off_c, 1, 61, 0
2, 100640, Note_on_c, 1, 66, 127
2, 100640, Note_off_c, 1, 75, 0
2, 100640, Note_on_c, 1, 78, 127
2, 100640, Note_on_c, 1, 79, 127
2, 100640, Note_off_c, 1, 87, 0
2, 100680, Note_off_c, 1, 57, 0
2, 100680, Note_off_c, 1, 60, 0
2, 100680, Note_off_c, 1, 66, 0
2, 100680, Note_on_c, 1, 67, 127
2, 100680, Note_on_c, 1, 73, 127
2, 100680, Note_off_c, 1, 78, 0
2, 100680, Note_off_c, 1, 79, 0
2, 100680, Note_on_c, 1, 84, 127
2, 100720, Note_on_c, 1, 66, 127
2, 100720, Note_off_c, 1, 67, 0
2, 100720, Note_on_c, 1, 72, 127
2, 100720, Note_off_c, 1, 73, 0
2, 100720, Note_off_c, 1, 84, 0
2, 100720, Note_on_c, 1, 90, 127
2, 100760, Note_off_c, 1, 66, 0
2, 100760, Note_on_c, 1, 67, 127
2, 100760, Note_off_c, 1, 72, 0
2, 100760, Note_off_c, 1, 90, 0
2, 100800, Note_on_c, 1, 76, 127
2, 100800, Note_on_c, 1, 88, 127
2, 101120, Note_off_c, 1, 67, 0
2, 101120, Note_off_c, 1, 76, 0
2, 101120, Note_off_c, 1, 88, 0
2, 101160, Note_on_c, 1, 60, 127
2, 101160, Note_on_c, 1, 69, 127
2, 101160, Note_on_c, 1, 89, 127
2, 101440, Note_off_c, 1, 60, 0
2, 101440, Note_off_c, 1, 69, 0
2, 101480, Note_on_c, 1, 73, 127
2, 101480, Note_on_c, 1, 77, 127
2, 101480, Note_on_c, 1, 85, 127
2, 101480, Note_off_c, 1, 89, 0
2, 101760, Note_off_c, 1, 73, 0
2, 101760, Note_off_c, 1, 77, 0
2, 101760, Note_on_c, 1, 81, 127
2, 101760, Note_off_c, 1, 85, 0
2, 101800, Note_off_c, 1, 81, 0
2, 101840, Note_on_c, 1, 49, 127
2, 102120, Note_off_c, 1, 49, 0
2, 102200, Note_on_c, 1, 37, 127
2, 102200, Note_on_c, 1, 61, 127
2, 102480, Note_off_c, 1, 37, 0
2, 102480, Note_off_c, 1, 61, 0
2, 102560, Note_on_c, 1, 61, 127
2, 102560, Note_on_c, 1, 69, 127
2, 102800, Note_off_c, 1, 61, 0
2, 102800, Note_off_c, 1, 69, 0
2, 102880, Note_on_c, 1, 61, 127
2, 102880, Note_on_c, 1, 69, 127
2, 103520, Note_off_c, 1, 61, 0
2, 103520, Note_off_c, 1, 69, 0
2, 103560, Note_on_c, 1, 66, 127
2, 103560, Note_on_c, 1, 82, 127
2, 103840, Note_off_c, 1, 66, 0
2, 103840, Note_off_c, 1, 82, 0
2, 103960, Note_on_c, 1, 65, 127
2, 103960, Note_on_c, 1, 81, 127
2, 104240, Note_off_c, 1, 65, 0
2, 104240, Note_off_c, 1, 81, 0
2, 104280, Note_on_c, 1, 62, 127
2, 104280, Note_on_c, 1, 79, 127
2, 104560, Note_off_c, 1, 62, 0
2, 104560, Note_off_c, 1, 79, 0
2, 104600, Note_on_c, 1, 62, 127
2, 104600, Note_on_c, 1, 78, 127
2, 104920, Note_off_c, 1, 62, 0
2, 104920, Note_off_c, 1, 78, 0
2, 104960, Note_on_c, 1, 66, 127
2, 104960, Note_on_c, 1, 78, 127
2, 105000, Note_off_c, 1, 78, 0
2, 105040, Note_on_c, 1, 78, 127
2, 105080, Note_off_c, 1, 78, 0
2, 105120, Note_on_c, 1, 78, 127
2, 105160, Note_off_c, 1, 78, 0
2, 105200, Note_on_c, 1, 74, 127
2, 105240, Note_off_c, 1, 66, 0
2, 105240, Note_off_c, 1, 74, 0
2, 105280, Note_on_c, 1, 69, 127
2, 105280, Note_on_c, 1, 76, 127
2, 105360, Note_off_c, 1, 76, 0
2, 105400, Note_on_c, 1, 78, 127
2, 105480, Note_off_c, 1, 78, 0
2, 105520, Note_on_c, 1, 81, 127
2, 105560, Note_off_c, 1, 69, 0
2, 105600, Note_on_c, 1, 78, 127
2, 105600, Note_off_c, 1, 81, 0
2, 105640, Note_on_c, 1, 73, 127
2, 105640, Note_on_c, 1, 76, 127
2, 105760, Note_off_c, 1, 76, 0
2, 105800, Note_on_c, 1, 72, 127
2, 105800, Note_off_c, 1, 73, 0
2, 105800, Note_on_c, 1, 75, 127
2, 105880, Note_off_c, 1, 72, 0
2, 105880, Note_off_c, 1, 75, 0
2, 105880, Note_off_c, 1, 78, 0
2, 105920, Note_on_c, 1, 81, 127
2, 105960, Note_off_c, 1, 81, 0
2, 106000, Note_on_c, 1, 81, 127
2, 106280, Note_on_c, 1, 62, 127
2, 106560, Note_off_c, 1, 62, 0
2, 106600, Note_on_c, 1, 69, 127
2, 106760, Note_off_c, 1, 69, 0
2, 106960, Note_on_c, 1, 64, 127
2, 107280, Note_off_c, 1, 64, 0
2, 107320, Note_on_c, 1, 69, 127
2, 107600, Note_off_c, 1, 69, 0
2, 107600, Note_off_c, 1, 81, 0
2, 107640, Note_on_c, 1, 64, 127
2, 107640, Note_on_c, 1, 81, 127
2, 107760, Note_off_c, 1, 81, 0
2, 107800, Note_on_c, 1, 61, 127
2, 107800, Note_off_c, 1, 64, 0
2, 107800, Note_on_c, 1, 79, 127
2, 107920, Note_off_c, 1, 61, 0
2, 107960, Note_off_c, 1, 79, 0
2, 108000, Note_on_c, 1, 58, 127
2, 108000, Note_on_c, 1, 79, 127
2, 108320, Note_off_c, 1, 58, 0
2, 108360, Note_on_c, 1, 61, 127
2, 108360, Note_on_c, 1, 64, 127
2, 108640, Note_off_c, 1, 79, 0
2, 108680, Note_on_c, 1, 69, 127
2, 109000, Note_off_c, 1, 61, 0
2, 109000, Note_off_c, 1, 64, 0
2, 109000, Note_off_c, 1, 69, 0
2, 109040, Note_on_c, 1, 65, 127
2, 109040, Note_on_c, 1, 74, 127
2, 109680, Note_off_c, 1, 65, 0
2, 109680, Note_off_c, 1, 74, 0
2, 109720, Note_on_c, 1, 57, 127
2, 109720, Note_on_c, 1, 73, 127
2, 110040, Note_off_c, 1, 57, 0
2, 110040, Note_off_c, 1, 73, 0
2, 110120, Note_on_c, 1, 59, 127
2, 110120, Note_on_c, 1, 79, 127
2, 110240, Note_off_c, 1, 79, 0
2, 110280, Note_on_c, 1, 80, 127
2, 110320, Note_off_c, 1, 80, 0
2, 110360, Note_on_c, 1, 81, 127
2, 110400, Note_off_c, 1, 59, 0
2, 110400, Note_off_c, 1, 81, 0
2, 110440, Note_on_c, 1, 62, 127
2, 110440, Note_on_c, 1, 79, 127
2, 110560, Note_off_c, 1, 79, 0
2, 110600, Note_on_c, 1, 78, 127
2, 110720, Note_off_c, 1, 62, 0
2, 110720, Note_off_c, 1, 78, 0
2, 110760, Note_on_c, 1, 57, 127
2, 110760, Note_on_c, 1, 79, 127
2, 110880, Note_off_c, 1, 79, 0
2, 110920, Note_on_c, 1, 78, 127
2, 110960, Note_on_c, 1, 77, 127
2, 110960, Note_off_c, 1, 78, 0
2, 111040, Note_off_c, 1, 57, 0
2, 111040, Note_off_c, 1, 77, 0
2, 111080, Note_on_c, 1, 57, 127
2, 111080, Note_on_c, 1, 78, 127
2, 111240, Note_off_c, 1, 78, 0
2, 111280, Note_on_c, 1, 79, 127
2, 111400, Note_off_c, 1, 57, 0
2, 111400, Note_off_c, 1, 79, 0
2, 111440, Note_on_c, 1, 62, 127
2, 111440, Note_on_c, 1, 78, 127
2, 111560, Note_off_c, 1, 78, 0
2, 111600, Note_on_c, 1, 81, 127
2, 111720, Note_off_c, 1, 81, 0
2, 111760, Note_on_c, 1, 80, 127
2, 111880, Note_off_c, 1, 80, 0
2, 111920, Note_on_c, 1, 78, 127
2, 112080, Note_off_c, 1, 62, 0
2, 112080, Note_off_c, 1, 78, 0
2, 112160, Note_on_c, 1, 57, 127
2, 112160, Note_on_c, 1, 81, 127
2, 112280, Note_off_c, 1, 81, 0
2, 112320, Note_on_c, 1, 79, 127
2, 112440, Note_off_c, 1, 57, 0
2, 112440, Note_off_c, 1, 79, 0
2, 112480, Note_on_c, 1, 53, 127
2, 112480, Note_on_c, 1, 73, 127
2, 112600, Note_off_c, 1, 73, 0
2, 112840, Note_on_c, 1, 72, 127
2, 112960, Note_off_c, 1, 72, 0
2, 113000, Note_on_c, 1, 69, 127
2, 113120, Note_off_c, 1, 53, 0
2, 113120, Note_off_c, 1, 69, 0
2, 113160, Note_on_c, 1, 57, 127
2, 113160, Note_on_c, 1, 69, 127
2, 113280, Note_off_c, 1, 69, 0
2, 113320, Note_on_c, 1, 69, 127
2, 113480, Note_off_c, 1, 57, 0
2, 113520, Note_on_c, 1, 49, 127
2, 113640, Note_off_c, 1, 69, 0
2, 113680, Note_on_c, 1, 73, 127
2, 113800, Note_off_c, 1, 49, 0
2, 113800, Note_off_c, 1, 73, 0
2, 113840, Note_on_c, 1, 45, 127
2, 113840, Note_on_c, 1, 69, 127
2, 113960, Note_off_c, 1, 69, 0
2, 114120, Note_off_c, 1, 45, 0
2, 114160, Note_on_c, 1, 45, 127
2, 114200, Note_off_c, 1, 45, 0
2, 114240, Note_on_c, 1, 38, 127
2, 114240, Note_on_c, 1, 66, 127
2, 114520, Note_off_c, 1, 38, 0
2, 114520, Note_off_c, 1, 66, 0
2, 114560, Note_on_c, 1, 50, 127
2, 114560, Note_on_c, 1, 67, 127
2, 114680, Note_off_c, 1, 67, 0
2, 114720, Note_on_c, 1, 66, 127
2, 114840, Note_off_c, 1, 50, 0
2, 114840, Note_off_c, 1, 66, 0
2, 114880, Note_on_c, 1, 54, 127
2, 114880, Note_on_c, 1, 69, 127
2, 115040, Note_off_c, 1, 69, 0
2, 115080, Note_on_c, 1, 66, 127
2, 115240, Note_off_c, 1, 66, 0
2, 115400, Note_on_c, 1, 66, 127
2, 115520, Note_off_c, 1, 54, 0
2, 115520, Note_off_c, 1, 66, 0
2, 115560, Note_on_c, 1, 59, 127
2, 115560, Note_on_c, 1, 69, 127
2, 115840, Note_off_c, 1, 69, 0
2, 115880, Note_off_c, 1, 59, 0
2, 115920, Note_on_c, 1, 66, 127
2, 115920, Note_on_c, 1, 69, 127
2, 116040, Note_off_c, 1, 69, 0
2, 116200, Note_off_c, 1, 66, 0
2, 116280, Note_on_c, 1, 57, 127
2, 116520, Note_on_c, 1, 66, 127
2, 116560, Note_off_c, 1, 57, 0
2, 116560, Note_off_c, 1, 66, 0
2, 116600, Note_on_c, 1, 68, 127
2, 116920, Note_off_c, 1, 68, 0
2, 116960, Note_on_c, 1, 69, 127
2, 117280, Note_on_c, 1, 61, 127
2, 117280, Note_on_c, 1, 81, 127
2, 117560, Note_off_c, 1, 81, 0
2, 117600, Note_on_c, 1, 81, 127
2, 117920, Note_off_c, 1, 61, 0
2, 117920, Note_off_c, 1, 69, 0
2, 117920, Note_off_c, 1, 81, 0
2, 117960, Note_on_c, 1, 62, 127
2, 117960, Note_on_c, 1, 65, 127
2, 117960, Note_on_c, 1, 69, 127
2, 118400, Note_off_c, 1, 62, 0
2, 118400, Note_off_c, 1, 65, 0
2, 118400, Note_off_c, 1, 69, 0
2, 118440, Note_on_c, 1, 62, 127
2, 118440, Note_on_c, 1, 65, 127
2, 118440, Note_on_c, 1, 69, 127
2, 118640, Note_off_c, 1, 62, 0
2, 118640, Note_off_c, 1, 65, 0
2, 118640, Note_off_c, 1, 69, 0
2, 118680, Note_on_c, 1, 65, 127
2, 118960, Note_off_c, 1, 65, 0
2, 119000, Note_on_c, 1, 69, 127
2, 119280, Note_off_c, 1, 69, 0
2, 119320, Note_on_c, 1, 70, 127
2, 119600, Note_off_c, 1, 70, 0
2, 119640, Note_on_c, 1, 72, 127
2, 119960, Note_off_c, 1, 72, 0
2, 120040, End_track
3, 0, Start_track
3, 0, Title_t, "MIDI"
3, 1536, End_track
0, 0, End_of_file
