0, 0, Header, 1, 3, 192
1, 0, Start_track
1, 0, Time_signature, 4, 2, 24, 8
1, 0, Tempo, 500000
1, 120040, End_track
2, 0, Start_track
2, 0, Text_t, "random instrument: random person i dunno whatev"
2, 0, Title_t, "Track 1"
2, 0, Note_on_c, 1, 55, 127
2, 0, Note_on_c, 1, 59, 127
2, 0, Note_on_c, 1, 62, 127
2, 0, Note_on_c, 1, 71, 127
2, 0, Note_on_c, 1, 79, 127
2, 40, Note_on_c, 1, 42, 127
2, 40, Note_on_c, 1, 49, 127
2, 40, Note_on_c, 1, 54, 127
2, 40, Note_off_c, 1, 55, 0
2, 40, Note_off_c, 1, 59, 0
2, 40, Note_off_c, 1, 62, 0
2, 40, Note_off_c, 1, 71, 0
2, 40, Note_off_c, 1, 79, 0
2, 40, Note_on_c, 1, 82, 127
2, 40, Note_on_c, 1, 88, 127
2, 40, Note_on_c, 1, 94, 127
2, 80, Note_off_c, 1, 42, 0
2, 80, Note_off_c, 1, 49, 0
2, 80, Note_off_c, 1, 54, 0
2, 80, Note_off_c, 1, 82, 0
2, 80, Note_off_c, 1, 88, 0
2, 80, Note_off_c, 1, 94, 0
2, 120, Note_on_c, 1, 58, 127
2, 120, Note_on_c, 1, 65, 127
2, 120, Note_on_c, 1, 70, 127
2, 120, Note_on_c, 1, 73, 127
2, 120, Note_on_c, 1, 80, 127
2, 160, Note_on_c, 1, 53, 127
2, 160, Note_on_c, 1, 56, 127
2, 160, Note_off_c, 1, 58, 0
2, 160, Note_on_c, 1, 63, 127
2, 160, Note_off_c, 1, 65, 0
2, 160, Note_off_c, 1, 70, 0
2, 160, Note_on_c, 1, 83, 127
2, 200, Note_on_c, 1, 33, 127
2, 200, Note_on_c, 1, 37, 127
2, 200, Note_on_c, 1, 40, 127
2, 200, Note_on_c, 1, 45, 127
2, 200, Note_off_c, 1, 53, 0
2, 200, Note_off_c, 1, 56, 0
2, 200, Note_on_c, 1, 57, 127
2, 200, Note_on_c, 1, 61, 127
2, 200, Note_off_c, 1, 63, 0
2, 200, Note_on_c, 1, 64, 127
2, 200, Note_off_c, 1, 73, 0
2, 200, Note_off_c, 1, 80, 0
2, 200, Note_off_c, 1, 83, 0
2, 240, Note_off_c, 1, 33, 0
2, 240, Note_off_c, 1, 37, 0
2, 240, Note_off_c, 1, 40, 0
2, 240, Note_off_c, 1, 45, 0
2, 240, Note_off_c, 1, 57, 0
2, 240, Note_on_c, 1, 58, 127
2, 240, Note_off_c, 1, 61, 0
2, 240, Note_on_c, 1, 66, 127
2, 240, Note_on_c, 1, 73, 127
2, 240, Note_on_c, 1, 85, 127
2, 360, Note_off_c, 1, 58, 0
2, 360, Note_off_c, 1, 64, 0
2, 360, Note_off_c, 1, 66, 0
2, 360, Note_off_c, 1, 73, 0
2, 360, Note_off_c, 1, 85, 0
2, 400, Note_on_c, 1, 58, 127
2, 400, Note_on_c, 1, 70, 127
2, 600, Note_off_c, 1, 58, 0
2, 600, Note_off_c, 1, 70, 0
2, 640, Note_on_c, 1, 55, 127
2, 640, Note_on_c, 1, 67, 127
2, 800, Note_off_c, 1, 55, 0
2, 800, Note_off_c, 1, 67, 0
2, 880, Note_on_c, 1, 50, 127
2, 880, Note_on_c, 1, 55, 127
2, 880, Note_on_c, 1, 58, 127
2, 880, Note_on_c, 1, 62, 127
2, 1440, Note_off_c, 1, 50, 0
2, 1440, Note_off_c, 1, 55, 0
2, 1440, Note_off_c, 1, 58, 0
2, 1440, Note_off_c, 1, 62, 0
2, 3640, Note_on_c, 1, 62, 127
2, 3640, Note_on_c, 1, 77, 127
2, 3640, Note_on_c, 1, 82, 127
2, 3960, Note_off_c, 1, 62, 0
2, 3960, Note_off_c, 1, 77, 0
2, 3960, Note_off_c, 1, 82, 0
2, 4360, Note_on_c, 1, 82, 127
2, 4640, Note_on_c, 1, 39, 127
2, 4640, Note_on_c, 1, 51, 127
2, 5000, Note_off_c, 1, 39, 0
2, 5000, Note_off_c, 1, 51, 0
2, 5000, Note_off_c, 1, 82, 0
2, 5360, Note_on_c, 1, 63, 127
2, 5360, Note_on_c, 1, 67, 127
2, 5360, Note_on_c, 1, 70, 127
2, 5720, Note_off_c, 1, 70, 0
2, 5760, Note_on_c, 1, 79, 127
2, 5840, Note_off_c, 1, 79, 0
2, 5880, Note_on_c, 1, 79, 127
2, 5960, Note_off_c, 1, 79, 0
2, 6000, Note_on_c, 1, 79, 127
2, 6080, Note_off_c, 1, 63, 0
2, 6080, Note_off_c, 1, 67, 0
2, 6080, Note_off_c, 1, 79, 0
2, 6120, Note_on_c, 1, 79, 127
2, 6520, Note_off_c, 1, 79, 0
2, 6520, Note_on_c, 1, 80, 127
2, 7040, Note_off_c, 1, 80, 0
2, 7080, Note_on_c, 1, 80, 127
2, 8960, Note_off_c, 1, 80, 0
2, 9000, Note_on_c, 1, 77, 127
2, 9120, Note_off_c, 1, 77, 0
2, 9160, Note_on_c, 1, 78, 127
2, 9320, Note_off_c, 1, 78, 0
2, 9400, Note_on_c, 1, 76, 127
2, 9400, Note_on_c, 1, 80, 127
2, 9520, Note_off_c, 1, 76, 0
2, 9520, Note_off_c, 1, 80, 0
2, 9560, Note_on_c, 1, 73, 127
2, 9720, Note_off_c, 1, 73, 0
2, 9760, Note_on_c, 1, 77, 127
2, 9880, Note_off_c, 1, 77, 0
2, 9920, Note_on_c, 1, 76, 127
2, 10080, Note_off_c, 1, 76, 0
2, 10120, Note_on_c, 1, 77, 127
2, 10240, Note_off_c, 1, 77, 0
2, 10280, Note_on_c, 1, 75, 127
2, 10440, Note_off_c, 1, 75, 0
2, 10480, Note_on_c, 1, 74, 127
2, 10600, Note_off_c, 1, 74, 0
2, 10640, Note_on_c, 1, 71, 127
2, 10960, Note_off_c, 1, 71, 0
2, 11000, Note_on_c, 1, 70, 127
2, 11160, Note_off_c, 1, 70, 0
2, 11400, Note_on_c, 1, 70, 127
2, 11520, Note_off_c, 1, 70, 0
2, 11560, Note_on_c, 1, 70, 127
2, 11800, Note_on_c, 1, 61, 127
2, 12120, Note_off_c, 1, 61, 0
2, 12120, Note_off_c, 1, 70, 0
2, 12160, Note_on_c, 1, 65, 127
2, 12160, Note_on_c, 1, 72, 127
2, 12440, Note_off_c, 1, 65, 0
2, 12440, Note_off_c, 1, 72, 0
2, 12480, Note_on_c, 1, 66, 127
2, 12480, Note_on_c, 1, 73, 127
2, 12800, Note_off_c, 1, 66, 0
2, 12800, Note_off_c, 1, 73, 0
2, 12840, Note_on_c, 1, 63, 127
2, 12840, Note_on_c, 1, 72, 127
2, 13160, Note_off_c, 1, 63, 0
2, 13160, Note_off_c, 1, 72, 0
2, 13200, Note_on_c, 1, 65, 127
2, 13200, Note_on_c, 1, 75, 127
2, 13480, Note_off_c, 1, 65, 0
2, 13480, Note_off_c, 1, 75, 0
2, 13520, Note_on_c, 1, 65, 127
2, 13520, Note_on_c, 1, 75, 127
2, 13560, Note_off_c, 1, 65, 0
2, 13560, Note_off_c, 1, 75, 0
2, 13600, Note_on_c, 1, 61, 127
2, 13600, Note_on_c, 1, 73, 127
2, 13920, Note_off_c, 1, 61, 0
2, 13920, Note_off_c, 1, 73, 0
2, 13960, Note_on_c, 1, 65, 127
2, 13960, Note_on_c, 1, 73, 127
2, 14280, Note_off_c, 1, 65, 0
2, 14280, Note_off_c, 1, 73, 0
2, 14320, Note_on_c, 1, 61, 127
2, 14320, Note_on_c, 1, 72, 127
2, 14640, Note_off_c, 1, 61, 0
2, 14640, Note_off_c, 1, 72, 0
2, 14680, Note_on_c, 1, 56, 127
2, 14680, Note_on_c, 1, 71, 127
2, 14680, Note_on_c, 1, 83, 127
2, 15000, Note_off_c, 1, 56, 0
2, 15000, Note_off_c, 1, 71, 0
2, 15000, Note_off_c, 1, 83, 0
2, 15040, Note_on_c, 1, 54, 127
2, 15040, Note_on_c, 1, 62, 127
2, 15040, Note_on_c, 1, 78, 127
2, 15200, Note_off_c, 1, 78, 0
2, 15240, Note_off_c, 1, 54, 0
2, 15240, Note_off_c, 1, 62, 0
2, 15400, Note_on_c, 1, 66, 127
2, 15400, Note_on_c, 1, 73, 127
2, 15560, Note_off_c, 1, 66, 0
2, 15560, Note_off_c, 1, 73, 0
2, 15600, Note_on_c, 1, 66, 127
2, 15600, Note_on_c, 1, 73, 127
2, 15760, Note_off_c, 1, 66, 0
2, 15760, Note_off_c, 1, 73, 0
2, 15800, Note_on_c, 1, 59, 127
2, 15800, Note_on_c, 1, 71, 127
2, 15800, Note_on_c, 1, 75, 127
2, 16120, Note_off_c, 1, 59, 0
2, 16120, Note_off_c, 1, 71, 0
2, 16120, Note_off_c, 1, 75, 0
2, 16160, Note_on_c, 1, 49, 127
2, 16160, Note_on_c, 1, 59, 127
2, 16160, Note_on_c, 1, 68, 127
2, 16840, Note_off_c, 1, 59, 0
2, 16840, Note_off_c, 1, 68, 0
2, 16880, Note_on_c, 1, 58, 127
2, 16880, Note_on_c, 1, 66, 127
2, 17200, Note_off_c, 1, 49, 0
2, 17200, Note_off_c, 1, 58, 0
2, 17200, Note_off_c, 1, 66, 0
2, 17240, Note_on_c, 1, 49, 127
2, 17240, Note_on_c, 1, 56, 127
2, 17240, Note_on_c, 1, 65, 127
2, 17560, Note_off_c, 1, 49, 0
2, 17560, Note_off_c, 1, 56, 0
2, 17560, Note_off_c, 1, 65, 0
2, 17600, Note_on_c, 1, 56, 127
2, 17600, Note_on_c, 1, 66, 127
2, 17600, Note_on_c, 1, 72, 127
2, 17600, Note_on_c, 1, 80, 127
2, 17760, Note_off_c, 1, 56, 0
2, 17760, Note_off_c, 1, 66, 0
2, 17760, Note_off_c, 1, 72, 0
2, 17760, Note_off_c, 1, 80, 0
2, 17800, Note_on_c, 1, 56, 127
2, 17800, Note_on_c, 1, 66, 127
2, 17800, Note_on_c, 1, 72, 127
2, 17800, Note_on_c, 1, 80, 127
2, 17840, Note_off_c, 1, 72, 0
2, 17840, Note_off_c, 1, 80, 0
2, 17880, Note_on_c, 1, 72, 127
2, 17880, Note_on_c, 1, 80, 127
2, 17960, Note_off_c, 1, 56, 0
2, 17960, Note_off_c, 1, 66, 0
2, 17960, Note_off_c, 1, 72, 0
2, 17960, Note_off_c, 1, 80, 0
2, 18000, Note_on_c, 1, 56, 127
2, 18000, Note_on_c, 1, 59, 127
2, 18000, Note_on_c, 1, 62, 127
2, 18000, Note_on_c, 1, 65, 127
2, 18000, Note_on_c, 1, 77, 127
2, 18320, Note_off_c, 1, 56, 0
2, 18320, Note_off_c, 1, 59, 0
2, 18320, Note_off_c, 1, 62, 0
2, 18320, Note_off_c, 1, 65, 0
2, 18320, Note_off_c, 1, 77, 0
2, 18360, Note_on_c, 1, 78, 127
2, 18600, Note_off_c, 1, 78, 0
2, 18640, Note_on_c, 1, 77, 127
2, 18680, Note_off_c, 1, 77, 0
2, 18720, Note_on_c, 1, 56, 127
2, 18720, Note_on_c, 1, 66, 127
2, 18720, Note_on_c, 1, 73, 127
2, 19040, Note_off_c, 1, 73, 0
2, 19080, Note_on_c, 1, 77, 127
2, 19400, Note_off_c, 1, 56, 0
2, 19400, Note_off_c, 1, 66, 0
2, 19440, Note_on_c, 1, 58, 127
2, 19440, Note_on_c, 1, 62, 127
2, 19640, Note_off_c, 1, 77, 0
2, 19680, Note_on_c, 1, 86, 127
2, 19760, Note_off_c, 1, 58, 0
2, 19760, Note_off_c, 1, 62, 0
2, 19760, Note_off_c, 1, 86, 0
2, 19840, Note_on_c, 1, 80, 127
2, 20120, Note_off_c, 1, 80, 0
2, 20160, Note_on_c, 1, 58, 127
2, 20160, Note_on_c, 1, 62, 127
2, 20160, Note_on_c, 1, 94, 127
2, 20280, Note_on_c, 1, 89, 127
2, 20280, Note_off_c, 1, 94, 0
2, 20480, Note_off_c, 1, 58, 0
2, 20480, Note_off_c, 1, 62, 0
2, 20480, Note_off_c, 1, 89, 0
2, 20520, Note_on_c, 1, 54, 127
2, 20520, Note_on_c, 1, 63, 127
2, 20520, Note_on_c, 1, 82, 127
2, 20640, Note_off_c, 1, 82, 0
2, 20680, Note_on_c, 1, 82, 127
2, 20840, Note_off_c, 1, 54, 0
2, 20840, Note_off_c, 1, 63, 0
2, 20840, Note_off_c, 1, 82, 0
2, 20880, Note_on_c, 1, 65, 127
2, 20880, Note_on_c, 1, 80, 127
2, 21200, Note_off_c, 1, 65, 0
2, 21240, Note_on_c, 1, 60, 127
2, 21240, Note_on_c, 1, 66, 127
2, 21560, Note_off_c, 1, 60, 0
2, 21560, Note_off_c, 1, 66, 0
2, 21560, Note_off_c, 1, 80, 0
2, 21600, Note_on_c, 1, 63, 127
2, 21600, Note_on_c, 1, 70, 127
2, 21600, Note_on_c, 1, 82, 127
2, 21920, Note_off_c, 1, 70, 0
2, 21920, Note_off_c, 1, 82, 0
2, 21960, Note_off_c, 1, 63, 0
2, 22000, Note_on_c, 1, 62, 127
2, 22000, Note_on_c, 1, 68, 127
2, 22000, Note_on_c, 1, 82, 127
2, 22280, Note_off_c, 1, 62, 0
2, 22280, Note_off_c, 1, 68, 0
2, 22280, Note_off_c, 1, 82, 0
2, 22320, Note_on_c, 1, 63, 127
2, 22320, Note_on_c, 1, 66, 127
2, 22320, Note_on_c, 1, 83, 127
2, 22640, Note_off_c, 1, 63, 0
2, 22640, Note_off_c, 1, 66, 0
2, 22640, Note_on_c, 1, 82, 127
2, 22640, Note_off_c, 1, 83, 0
2, 22680, Note_on_c, 1, 63, 127
2, 22680, Note_on_c, 1, 66, 127
2, 22680, Note_off_c, 1, 82, 0
2, 22680, Note_on_c, 1, 83, 127
2, 23000, Note_off_c, 1, 63, 0
2, 23000, Note_off_c, 1, 66, 0
2, 23000, Note_off_c, 1, 83, 0
2, 23040, Note_on_c, 1, 63, 127
2, 23040, Note_on_c, 1, 66, 127
2, 23040, Note_on_c, 1, 82, 127
2, 23240, Note_off_c, 1, 82, 0
2, 23240, Note_on_c, 1, 83, 127
2, 23280, Note_on_c, 1, 82, 127
2, 23280, Note_off_c, 1, 83, 0
2, 23360, Note_off_c, 1, 82, 0
2, 23400, Note_on_c, 1, 71, 127
2, 23400, Note_on_c, 1, 78, 127
2, 23720, Note_off_c, 1, 63, 0
2, 23720, Note_off_c, 1, 66, 0
2, 23720, Note_off_c, 1, 71, 0
2, 23720, Note_off_c, 1, 78, 0
2, 23760, Note_on_c, 1, 64, 127
2, 23760, Note_on_c, 1, 70, 127
2, 23760, Note_on_c, 1, 80, 127
2, 24040, Note_on_c, 1, 63, 127
2, 24040, Note_off_c, 1, 64, 0
2, 24040, Note_off_c, 1, 70, 0
2, 24040, Note_on_c, 1, 71, 127
2, 24080, Note_off_c, 1, 63, 0
2, 24080, Note_off_c, 1, 71, 0
2, 24120, Note_off_c, 1, 80, 0
2, 24160, Note_on_c, 1, 63, 127
2, 24160, Note_on_c, 1, 71, 127
2, 24160, Note_on_c, 1, 80, 127
2, 24440, Note_off_c, 1, 71, 0
2, 24480, Note_off_c, 1, 63, 0
2, 24480, Note_on_c, 1, 64, 127
2, 24480, Note_on_c, 1, 70, 127
2, 24800, Note_off_c, 1, 64, 0
2, 24800, Note_off_c, 1, 70, 0
2, 24800, Note_off_c, 1, 80, 0
2, 24840, Note_on_c, 1, 63, 127
2, 24840, Note_on_c, 1, 71, 127
2, 24840, Note_on_c, 1, 80, 127
2, 25160, Note_off_c, 1, 63, 0
2, 25160, Note_off_c, 1, 71, 0
2, 25160, Note_off_c, 1, 80, 0
2, 25200, Note_on_c, 1, 63, 127
2, 25200, Note_on_c, 1, 71, 127
2, 25200, Note_on_c, 1, 75, 127
2, 25520, Note_off_c, 1, 63, 0
2, 25520, Note_off_c, 1, 71, 0
2, 25520, Note_off_c, 1, 75, 0
2, 25560, Note_on_c, 1, 70, 127
2, 25560, Note_on_c, 1, 73, 127
2, 25880, Note_off_c, 1, 70, 0
2, 25880, Note_off_c, 1, 73, 0
2, 25920, Note_on_c, 1, 59, 127
2, 25920, Note_on_c, 1, 71, 127
2, 25920, Note_on_c, 1, 75, 127
2, 26120, Note_off_c, 1, 59, 0
2, 26120, Note_off_c, 1, 71, 0
2, 26120, Note_off_c, 1, 75, 0
2, 26160, Note_on_c, 1, 59, 127
2, 26160, Note_on_c, 1, 71, 127
2, 26160, Note_on_c, 1, 75, 127
2, 26280, Note_off_c, 1, 59, 0
2, 26280, Note_off_c, 1, 71, 0
2, 26280, Note_off_c, 1, 75, 0
2, 26320, Note_on_c, 1, 59, 127
2, 26320, Note_on_c, 1, 65, 127
2, 26320, Note_on_c, 1, 74, 127
2, 26320, Note_on_c, 1, 80, 127
2, 26640, Note_off_c, 1, 59, 0
2, 26640, Note_off_c, 1, 65, 0
2, 26640, Note_off_c, 1, 74, 0
2, 26640, Note_off_c, 1, 80, 0
2, 26680, Note_on_c, 1, 63, 127
2, 26680, Note_on_c, 1, 71, 127
2, 26680, Note_on_c, 1, 80, 127
2, 27000, Note_off_c, 1, 63, 0
2, 27000, Note_off_c, 1, 71, 0
2, 27040, Note_on_c, 1, 63, 127
2, 27040, Note_on_c, 1, 71, 127
2, 27360, Note_off_c, 1, 63, 0
2, 27360, Note_off_c, 1, 71, 0
2, 27360, Note_off_c, 1, 80, 0
2, 27400, Note_on_c, 1, 63, 127
2, 27400, Note_on_c, 1, 71, 127
2, 27400, Note_on_c, 1, 80, 127
2, 27720, Note_off_c, 1, 63, 0
2, 27720, Note_off_c, 1, 71, 0
2, 27720, Note_off_c, 1, 80, 0
2, 27760, Note_on_c, 1, 59, 127
2, 27760, Note_on_c, 1, 68, 127
2, 27760, Note_on_c, 1, 75, 127
2, 27920, Note_off_c, 1, 75, 0
2, 28000, Note_on_c, 1, 75, 127
2, 28040, Note_off_c, 1, 75, 0
2, 28080, Note_off_c, 1, 59, 0
2, 28080, Note_off_c, 1, 68, 0
2, 28120, Note_on_c, 1, 59, 127
2, 28120, Note_on_c, 1, 66, 127
2, 28120, Note_on_c, 1, 75, 127
2, 28240, Note_off_c, 1, 59, 0
2, 28240, Note_off_c, 1, 66, 0
2, 28240, Note_off_c, 1, 75, 0
2, 28280, Note_on_c, 1, 59, 127
2, 28280, Note_on_c, 1, 66, 127
2, 28280, Note_on_c, 1, 75, 127
2, 28440, Note_off_c, 1, 59, 0
2, 28440, Note_off_c, 1, 66, 0
2, 28440, Note_off_c, 1, 75, 0
2, 28480, Note_on_c, 1, 64, 127
2, 28480, Note_on_c, 1, 68, 127
2, 28480, Note_on_c, 1, 76, 127
2, 28800, Note_off_c, 1, 64, 0
2, 28800, Note_off_c, 1, 68, 0
2, 28800, Note_off_c, 1, 76, 0
2, 28840, Note_on_c, 1, 56, 127
2, 28840, Note_on_c, 1, 64, 127
2, 28840, Note_on_c, 1, 76, 127
2, 28960, Note_off_c, 1, 64, 0
2, 28960, Note_off_c, 1, 76, 0
2, 29000, Note_on_c, 1, 65, 127
2, 29000, Note_on_c, 1, 75, 127
2, 29040, Note_on_c, 1, 73, 127
2, 29040, Note_off_c, 1, 75, 0
2, 29160, Note_off_c, 1, 56, 0
2, 29160, Note_off_c, 1, 65, 0
2, 29160, Note_off_c, 1, 73, 0
2, 29200, Note_on_c, 1, 56, 127
2, 29200, Note_on_c, 1, 66, 127
2, 29200, Note_on_c, 1, 72, 127
2, 29200, Note_on_c, 1, 73, 127
2, 29320, Note_off_c, 1, 73, 0
2, 29360, Note_on_c, 1, 75, 127
2, 29520, Note_off_c, 1, 56, 0
2, 29520, Note_off_c, 1, 66, 0
2, 29520, Note_off_c, 1, 72, 0
2, 29520, Note_off_c, 1, 75, 0
2, 29560, Note_on_c, 1, 61, 127
2, 29560, Note_on_c, 1, 65, 127
2, 29560, Note_on_c, 1, 73, 127
2, 29680, Note_off_c, 1, 61, 0
2, 29680, Note_off_c, 1, 65, 0
2, 29680, Note_off_c, 1, 73, 0
2, 29720, Note_on_c, 1, 54, 127
2, 29720, Note_on_c, 1, 66, 127
2, 29880, Note_off_c, 1, 54, 0
2, 29880, Note_off_c, 1, 66, 0
2, 29920, Note_on_c, 1, 49, 127
2, 29920, Note_on_c, 1, 61, 127
2, 30040, Note_off_c, 1, 49, 0
2, 30040, Note_off_c, 1, 61, 0
2, 30080, Note_on_c, 1, 51, 127
2, 30080, Note_on_c, 1, 63, 127
2, 30120, Note_off_c, 1, 51, 0
2, 30120, Note_off_c, 1, 63, 0
2, 30160, Note_on_c, 1, 54, 127
2, 30160, Note_on_c, 1, 66, 127
2, 30240, Note_off_c, 1, 54, 0
2, 30240, Note_off_c, 1, 66, 0
2, 30320, Note_on_c, 1, 49, 127
2, 30320, Note_on_c, 1, 61, 127
2, 30440, Note_off_c, 1, 49, 0
2, 30440, Note_off_c, 1, 61, 0
2, 30480, Note_on_c, 1, 46, 127
2, 30480, Note_on_c, 1, 58, 127
2, 30520, Note_off_c, 1, 46, 0
2, 30520, Note_off_c, 1, 58, 0
2, 30640, Note_on_c, 1, 47, 127
2, 30640, Note_on_c, 1, 59, 127
2, 30720, Note_off_c, 1, 47, 0
2, 30720, Note_off_c, 1, 59, 0
2, 30840, Note_on_c, 1, 47, 127
2, 30840, Note_on_c, 1, 59, 127
2, 30880, Note_off_c, 1, 47, 0
2, 30880, Note_off_c, 1, 59, 0
2, 31000, Note_on_c, 1, 47, 127
2, 31000, Note_on_c, 1, 59, 127
2, 31080, Note_off_c, 1, 47, 0
2, 31080, Note_off_c, 1, 59, 0
2, 31200, Note_on_c, 1, 47, 127
2, 31200, Note_on_c, 1, 59, 127
2, 31240, Note_off_c, 1, 47, 0
2, 31240, Note_off_c, 1, 59, 0
2, 31360, Note_on_c, 1, 48, 127
2, 31360, Note_on_c, 1, 60, 127
2, 31520, Note_off_c, 1, 48, 0
2, 31520, Note_off_c, 1, 60, 0
2, 31560, Note_on_c, 1, 49, 127
2, 31560, Note_on_c, 1, 61, 127
2, 31600, Note_off_c, 1, 49, 0
2, 31600, Note_off_c, 1, 61, 0
2, 31720, Note_on_c, 1, 49, 127
2, 31720, Note_on_c, 1, 61, 127
2, 31760, Note_off_c, 1, 49, 0
2, 31760, Note_off_c, 1, 61, 0
2, 31920, Note_on_c, 1, 49, 127
2, 31920, Note_on_c, 1, 61, 127
2, 32040, Note_off_c, 1, 49, 0
2, 32040, Note_off_c, 1, 61, 0
2, 32080, Note_on_c, 1, 49, 127
2, 32080, Note_on_c, 1, 61, 127
2, 32120, Note_off_c, 1, 49, 0
2, 32120, Note_off_c, 1, 61, 0
2, 32320, Note_on_c, 1, 49, 127
2, 32320, Note_on_c, 1, 61, 127
2, 32360, Note_off_c, 1, 49, 0
2, 32360, Note_off_c, 1, 61, 0
2, 32480, Note_on_c, 1, 49, 127
2, 32480, Note_on_c, 1, 61, 127
2, 32640, Note_off_c, 1, 49, 0
2, 32640, Note_off_c, 1, 61, 0
2, 32840, Note_on_c, 1, 52, 127
2, 32840, Note_on_c, 1, 64, 127
2, 32840, Note_on_c, 1, 76, 127
2, 33000, Note_off_c, 1, 76, 0
2, 33040, Note_on_c, 1, 51, 127
2, 33040, Note_off_c, 1, 52, 0
2, 33040, Note_on_c, 1, 57, 127
2, 33040, Note_off_c, 1, 64, 0
2, 33040, Note_on_c, 1, 73, 127
2, 33160, Note_off_c, 1, 57, 0
2, 33160, Note_off_c, 1, 73, 0
2, 33200, Note_on_c, 1, 63, 127
2, 33200, Note_on_c, 1, 76, 127
2, 33280, Note_off_c, 1, 76, 0
2, 33320, Note_on_c, 1, 76, 127
2, 33360, Note_off_c, 1, 51, 0
2, 33360, Note_off_c, 1, 63, 0
2, 33360, Note_off_c, 1, 76, 0
2, 33400, Note_on_c, 1, 50, 127
2, 33400, Note_on_c, 1, 62, 127
2, 33400, Note_on_c, 1, 78, 127
2, 33520, Note_off_c, 1, 50, 0
2, 33520, Note_off_c, 1, 62, 0
2, 33520, Note_off_c, 1, 78, 0
2, 33560, Note_on_c, 1, 52, 127
2, 33560, Note_on_c, 1, 64, 127
2, 33560, Note_on_c, 1, 71, 127
2, 33560, Note_on_c, 1, 80, 127
2, 33640, Note_off_c, 1, 52, 0
2, 33640, Note_off_c, 1, 64, 0
2, 33640, Note_off_c, 1, 71, 0
2, 33640, Note_off_c, 1, 80, 0
2, 33920, Note_on_c, 1, 40, 127
2, 33920, Note_on_c, 1, 52, 127
2, 33920, Note_on_c, 1, 68, 127
2, 33920, Note_on_c, 1, 73, 127
2, 33920, Note_on_c, 1, 80, 127
2, 34160, Note_off_c, 1, 40, 0
2, 34160, Note_off_c, 1, 52, 0
2, 34160, Note_off_c, 1, 68, 0
2, 34160, Note_off_c, 1, 73, 0
2, 34160, Note_off_c, 1, 80, 0
2, 34200, Note_on_c, 1, 40, 127
2, 34200, Note_on_c, 1, 52, 127
2, 34200, Note_on_c, 1, 68, 127
2, 34200, Note_on_c, 1, 73, 127
2, 34200, Note_on_c, 1, 80, 127
2, 34280, Note_off_c, 1, 40, 0
2, 34280, Note_off_c, 1, 52, 0
2, 34280, Note_off_c, 1, 68, 0
2, 34280, Note_off_c, 1, 73, 0
2, 34280, Note_off_c, 1, 80, 0
2, 34320, Note_on_c, 1, 32, 127
2, 34320, Note_on_c, 1, 44, 127
2, 34320, Note_on_c, 1, 83, 127
2, 34320, Note_on_c, 1, 87, 127
2, 34320, Note_on_c, 1, 95, 127
2, 34640, Note_off_c, 1, 32, 0
2, 34640, Note_off_c, 1, 44, 0
2, 34640, Note_off_c, 1, 83, 0
2, 34640, Note_off_c, 1, 87, 0
2, 34640, Note_off_c, 1, 95, 0
2, 34680, Note_on_c, 1, 49, 127
2, 34680, Note_on_c, 1, 61, 127
2, 34680, Note_on_c, 1, 68, 127
2, 34680, Note_on_c, 1, 73, 127
2, 34680, Note_on_c, 1, 77, 127
2, 34680, Note_on_c, 1, 80, 127
2, 35000, Note_off_c, 1, 49, 0
2, 35000, Note_off_c, 1, 61, 0
2, 35000, Note_off_c, 1, 68, 0
2, 35000, Note_off_c, 1, 73, 0
2, 35000, Note_off_c, 1, 77, 0
2, 35000, Note_off_c, 1, 80, 0
2, 35040, Note_on_c, 1, 49, 127
2, 35040, Note_on_c, 1, 61, 127
2, 35040, Note_on_c, 1, 68, 127
2, 35040, Note_on_c, 1, 73, 127
2, 35040, Note_on_c, 1, 77, 127
2, 35040, Note_on_c, 1, 80, 127
2, 35360, Note_off_c, 1, 49, 0
2, 35360, Note_off_c, 1, 61, 0
2, 35360, Note_off_c, 1, 68, 0
2, 35360, Note_off_c, 1, 73, 0
2, 35360, Note_off_c, 1, 77, 0
2, 35360, Note_off_c, 1, 80, 0
2, 35400, Note_on_c, 1, 39, 127
2, 35400, Note_on_c, 1, 51, 127
2, 35400, Note_on_c, 1, 71, 127
2, 35400, Note_on_c, 1, 75, 127
2, 35400, Note_on_c, 1, 78, 127
2, 35520, Note_off_c, 1, 39, 0
2, 35520, Note_off_c, 1, 51, 0
2, 35520, Note_off_c, 1, 71, 0
2, 35520, Note_off_c, 1, 75, 0
2, 35520, Note_off_c, 1, 78, 0
2, 35720, Note_on_c, 1, 49, 127
2, 35720, Note_on_c, 1, 56, 127
2, 35720, Note_on_c, 1, 61, 127
2, 35720, Note_on_c, 1, 64, 127
2, 35720, Note_on_c, 1, 68, 127
2, 35720, Note_on_c, 1, 73, 127
2, 35880, Note_off_c, 1, 49, 0
2, 35880, Note_off_c, 1, 56, 0
2, 35880, Note_off_c, 1, 61, 0
2, 35880, Note_off_c, 1, 64, 0
2, 35880, Note_off_c, 1, 68, 0
2, 35880, Note_off_c, 1, 73, 0
2, 36120, Note_on_c, 1, 28, 127
2, 36120, Note_on_c, 1, 40, 127
2, 36120, Note_on_c, 1, 70, 127
2, 36120, Note_on_c, 1, 73, 127
2, 36120, Note_on_c, 1, 82, 127
2, 36240, Note_off_c, 1, 28, 0
2, 36240, Note_off_c, 1, 40, 0
2, 36240, Note_off_c, 1, 70, 0
2, 36240, Note_off_c, 1, 73, 0
2, 36240, Note_off_c, 1, 82, 0
2, 36480, Note_on_c, 1, 43, 127
2, 36480, Note_on_c, 1, 48, 127
2, 36480, Note_on_c, 1, 60, 127
2, 36480, Note_on_c, 1, 64, 127
2, 36520, Note_on_c, 1, 70, 127
2, 36600, Note_off_c, 1, 43, 0
2, 36600, Note_off_c, 1, 48, 0
2, 36600, Note_off_c, 1, 60, 0
2, 36600, Note_off_c, 1, 64, 0
2, 36600, Note_off_c, 1, 70, 0
2, 36840, Note_on_c, 1, 41, 127
2, 36840, Note_on_c, 1, 50, 127
2, 36840, Note_on_c, 1, 53, 127
2, 36840, Note_on_c, 1, 62, 127
2, 36840, Note_on_c, 1, 70, 127
2, 36840, Note_on_c, 1, 74, 127
2, 36960, Note_off_c, 1, 41, 0
2, 36960, Note_off_c, 1, 50, 0
2, 36960, Note_off_c, 1, 53, 0
2, 36960, Note_off_c, 1, 62, 0
2, 36960, Note_off_c, 1, 70, 0
2, 36960, Note_off_c, 1, 74, 0
2, 37160, Note_on_c, 1, 67, 127
2, 37160, Note_on_c, 1, 70, 127
2, 37160, Note_on_c, 1, 73, 127
2, 37160, Note_on_c, 1, 76, 127
2, 37160, Note_on_c, 1, 82, 127
2, 37160, Note_on_c, 1, 91, 127
2, 37200, Note_off_c, 1, 67, 0
2, 37200, Note_on_c, 1, 69, 127
2, 37200, Note_off_c, 1, 70, 0
2, 37200, Note_off_c, 1, 73, 0
2, 37200, Note_off_c, 1, 82, 0
2, 37200, Note_on_c, 1, 88, 127
2, 37240, Note_on_c, 1, 67, 127
2, 37240, Note_off_c, 1, 69, 0
2, 37240, Note_on_c, 1, 70, 127
2, 37240, Note_on_c, 1, 73, 127
2, 37240, Note_on_c, 1, 82, 127
2, 37240, Note_off_c, 1, 88, 0
2, 37280, Note_on_c, 1, 38, 127
2, 37280, Note_on_c, 1, 45, 127
2, 37280, Note_off_c, 1, 67, 0
2, 37280, Note_off_c, 1, 70, 0
2, 37280, Note_off_c, 1, 73, 0
2, 37280, Note_off_c, 1, 76, 0
2, 37280, Note_off_c, 1, 82, 0
2, 37280, Note_on_c, 1, 90, 127
2, 37280, Note_off_c, 1, 91, 0
2, 37320, Note_off_c, 1, 38, 0
2, 37320, Note_off_c, 1, 45, 0
2, 37320, Note_off_c, 1, 90, 0
2, 37360, Note_on_c, 1, 52, 127
2, 37360, Note_on_c, 1, 95, 127
2, 37480, Note_off_c, 1, 52, 0
2, 37480, Note_off_c, 1, 95, 0
2, 37520, Note_on_c, 1, 80, 127
2, 37520, Note_on_c, 1, 83, 127
2, 37520, Note_on_c, 1, 86, 127
2, 37520, Note_on_c, 1, 88, 127
2, 37680, Note_off_c, 1, 80, 0
2, 37680, Note_off_c, 1, 83, 0
2, 37680, Note_off_c, 1, 86, 0
2, 37680, Note_off_c, 1, 88, 0
2, 37720, Note_on_c, 1, 80, 127
2, 37720, Note_on_c, 1, 83, 127
2, 37720, Note_on_c, 1, 86, 127
2, 37720, Note_on_c, 1, 88, 127
2, 37840, Note_off_c, 1, 80, 0
2, 37840, Note_off_c, 1, 83, 0
2, 37840, Note_off_c, 1, 86, 0
2, 37840, Note_off_c, 1, 88, 0
2, 37880, Note_on_c, 1, 80, 127
2, 37880, Note_on_c, 1, 83, 127
2, 37880, Note_on_c, 1, 86, 127
2, 37880, Note_on_c, 1, 88, 127
2, 38040, Note_off_c, 1, 80, 0
2, 38040, Note_off_c, 1, 83, 0
2, 38040, Note_off_c, 1, 86, 0
2, 38040, Note_off_c, 1, 88, 0
2, 38080, Note_on_c, 1, 80, 127
2, 38080, Note_on_c, 1, 83, 127
2, 38080, Note_on_c, 1, 86, 127
2, 38080, Note_on_c, 1, 88, 127
2, 38200, Note_off_c, 1, 80, 0
2, 38200, Note_off_c, 1, 83, 0
2, 38200, Note_off_c, 1, 86, 0
2, 38200, Note_off_c, 1, 88, 0
2, 38280, Note_on_c, 1, 80, 127
2, 38280, Note_on_c, 1, 83, 127
2, 38280, Note_on_c, 1, 86, 127
2, 38280, Note_on_c, 1, 88, 127
2, 38400, Note_off_c, 1, 80, 0
2, 38400, Note_off_c, 1, 83, 0
2, 38400, Note_off_c, 1, 86, 0
2, 38400, Note_off_c, 1, 88, 0
2, 38440, Note_on_c, 1, 80, 127
2, 38440, Note_on_c, 1, 83, 127
2, 38440, Note_on_c, 1, 86, 127
2, 38440, Note_on_c, 1, 88, 127
2, 38600, Note_off_c, 1, 80, 0
2, 38600, Note_off_c, 1, 83, 0
2, 38600, Note_off_c, 1, 86, 0
2, 38600, Note_off_c, 1, 88, 0
2, 38640, Note_on_c, 1, 80, 127
2, 38640, Note_on_c, 1, 83, 127
2, 38640, Note_on_c, 1, 86, 127
2, 38640, Note_on_c, 1, 88, 127
2, 38760, Note_off_c, 1, 80, 0
2, 38760, Note_off_c, 1, 83, 0
2, 38760, Note_off_c, 1, 86, 0
2, 38760, Note_off_c, 1, 88, 0
2, 38800, Note_on_c, 1, 80, 127
2, 38800, Note_on_c, 1, 83, 127
2, 38800, Note_on_c, 1, 86, 127
2, 38800, Note_on_c, 1, 88, 127
2, 38960, Note_off_c, 1, 80, 0
2, 38960, Note_off_c, 1, 83, 0
2, 38960, Note_off_c, 1, 86, 0
2, 38960, Note_off_c, 1, 88, 0
2, 39000, Note_on_c, 1, 80, 127
2, 39000, Note_on_c, 1, 83, 127
2, 39000, Note_on_c, 1, 86, 127
2, 39000, Note_on_c, 1, 88, 127
2, 39120, Note_off_c, 1, 80, 0
2, 39120, Note_off_c, 1, 83, 0
2, 39120, Note_off_c, 1, 86, 0
2, 39120, Note_off_c, 1, 88, 0
2, 39160, Note_on_c, 1, 80, 127
2, 39160, Note_on_c, 1, 83, 127
2, 39160, Note_on_c, 1, 86, 127
2, 39160, Note_on_c, 1, 88, 127
2, 39320, Note_off_c, 1, 80, 0
2, 39320, Note_off_c, 1, 83, 0
2, 39320, Note_off_c, 1, 86, 0
2, 39320, Note_off_c, 1, 88, 0
2, 39360, Note_on_c, 1, 80, 127
2, 39360, Note_on_c, 1, 83, 127
2, 39360, Note_on_c, 1, 86, 127
2, 39360, Note_on_c, 1, 88, 127
2, 39480, Note_off_c, 1, 80, 0
2, 39480, Note_off_c, 1, 83, 0
2, 39480, Note_off_c, 1, 86, 0
2, 39480, Note_off_c, 1, 88, 0
2, 39520, Note_on_c, 1, 80, 127
2, 39520, Note_on_c, 1, 83, 127
2, 39520, Note_on_c, 1, 86, 127
2, 39520, Note_on_c, 1, 88, 127
2, 39680, Note_off_c, 1, 80, 0
2, 39680, Note_off_c, 1, 83, 0
2, 39680, Note_off_c, 1, 86, 0
2, 39680, Note_off_c, 1, 88, 0
2, 39720, Note_on_c, 1, 80, 127
2, 39720, Note_on_c, 1, 83, 127
2, 39720, Note_on_c, 1, 86, 127
2, 39720, Note_on_c, 1, 88, 127
2, 39840, Note_off_c, 1, 80, 0
2, 39840, Note_off_c, 1, 83, 0
2, 39840, Note_off_c, 1, 86, 0
2, 39840, Note_off_c, 1, 88, 0
2, 39880, Note_on_c, 1, 80, 127
2, 39880, Note_on_c, 1, 83, 127
2, 39880, Note_on_c, 1, 86, 127
2, 39880, Note_on_c, 1, 88, 127
2, 40040, Note_off_c, 1, 80, 0
2, 40040, Note_off_c, 1, 83, 0
2, 40040, Note_off_c, 1, 86, 0
2, 40040, Note_off_c, 1, 88, 0
2, 40080, Note_on_c, 1, 32, 127
2, 40080, Note_on_c, 1, 44, 127
2, 40080, Note_on_c, 1, 72, 127
2, 40080, Note_on_c, 1, 75, 127
2, 40080, Note_on_c, 1, 78, 127
2, 40080, Note_on_c, 1, 84, 127
2, 40200, Note_off_c, 1, 32, 0
2, 40200, Note_off_c, 1, 44, 0
2, 40200, Note_off_c, 1, 72, 0
2, 40200, Note_off_c, 1, 75, 0
2, 40200, Note_off_c, 1, 78, 0
2, 40200, Note_off_c, 1, 84, 0
2, 40240, Note_on_c, 1, 30, 127
2, 40240, Note_on_c, 1, 42, 127
2, 40360, Note_off_c, 1, 30, 0
2, 40360, Note_off_c, 1, 42, 0
2, 40400, Note_on_c, 1, 30, 127
2, 40400, Note_on_c, 1, 42, 127
2, 40440, Note_off_c, 1, 30, 0
2, 40440, Note_off_c, 1, 42, 0
2, 40480, Note_on_c, 1, 33, 127
2, 40480, Note_on_c, 1, 45, 127
2, 40600, Note_off_c, 1, 33, 0
2, 40600, Note_off_c, 1, 45, 0
2, 40840, Note_on_c, 1, 42, 127
2, 40840, Note_on_c, 1, 54, 127
2, 40840, Note_on_c, 1, 74, 127
2, 40840, Note_on_c, 1, 78, 127
2, 40960, Note_off_c, 1, 42, 0
2, 40960, Note_off_c, 1, 54, 0
2, 40960, Note_on_c, 1, 73, 127
2, 40960, Note_off_c, 1, 74, 0
2, 40960, Note_off_c, 1, 78, 0
2, 41000, Note_on_c, 1, 42, 127
2, 41000, Note_on_c, 1, 54, 127
2, 41000, Note_off_c, 1, 73, 0
2, 41000, Note_on_c, 1, 74, 127
2, 41000, Note_on_c, 1, 78, 127
2, 41160, Note_off_c, 1, 42, 0
2, 41160, Note_off_c, 1, 54, 0
2, 41160, Note_off_c, 1, 74, 0
2, 41160, Note_off_c, 1, 78, 0
2, 41200, Note_on_c, 1, 57, 127
2, 41200, Note_on_c, 1, 68, 127
2, 41200, Note_on_c, 1, 69, 127
2, 41240, Note_off_c, 1, 57, 0
2, 41240, Note_on_c, 1, 61, 127
2, 41240, Note_off_c, 1, 68, 0
2, 41240, Note_off_c, 1, 69, 0
2, 41320, Note_off_c, 1, 61, 0
2, 41360, Note_on_c, 1, 57, 127
2, 41360, Note_on_c, 1, 68, 127
2, 41360, Note_on_c, 1, 69, 127
2, 41400, Note_off_c, 1, 68, 0
2, 41400, Note_off_c, 1, 69, 0
2, 41440, Note_off_c, 1, 57, 0
2, 41440, Note_on_c, 1, 61, 127
2, 41480, Note_off_c, 1, 61, 0
2, 41520, Note_on_c, 1, 52, 127
2, 41520, Note_on_c, 1, 59, 127
2, 41520, Note_on_c, 1, 64, 127
2, 41520, Note_on_c, 1, 80, 127
2, 41680, Note_off_c, 1, 52, 0
2, 41680, Note_off_c, 1, 59, 0
2, 41680, Note_off_c, 1, 64, 0
2, 41680, Note_off_c, 1, 80, 0
2, 41720, Note_on_c, 1, 57, 127
2, 41720, Note_on_c, 1, 61, 127
2, 41720, Note_on_c, 1, 63, 127
2, 41720, Note_on_c, 1, 66, 127
2, 41720, Note_on_c, 1, 73, 127
2, 41720, Note_on_c, 1, 78, 127
2, 41760, Note_off_c, 1, 78, 0
2, 41800, Note_on_c, 1, 76, 127
2, 41840, Note_off_c, 1, 57, 0
2, 41840, Note_off_c, 1, 61, 0
2, 41840, Note_off_c, 1, 63, 0
2, 41840, Note_off_c, 1, 66, 0
2, 41840, Note_off_c, 1, 73, 0
2, 41840, Note_off_c, 1, 76, 0
2, 41880, Note_on_c, 1, 76, 127
2, 42040, Note_off_c, 1, 76, 0
2, 42080, Note_on_c, 1, 78, 127
2, 42200, Note_off_c, 1, 78, 0
2, 42240, Note_on_c, 1, 76, 127
2, 42400, Note_off_c, 1, 76, 0
2, 42480, Note_on_c, 1, 74, 127
2, 42640, Note_on_c, 1, 47, 127
2, 42640, Note_on_c, 1, 59, 127
2, 42640, Note_on_c, 1, 71, 127
2, 42640, Note_off_c, 1, 74, 0
2, 42640, Note_on_c, 1, 75, 127
2, 42640, Note_on_c, 1, 78, 127
2, 42760, Note_off_c, 1, 47, 0
2, 42760, Note_off_c, 1, 59, 0
2, 42760, Note_off_c, 1, 71, 0
2, 42760, Note_off_c, 1, 75, 0
2, 42760, Note_off_c, 1, 78, 0
2, 42800, Note_on_c, 1, 38, 127
2, 42800, Note_on_c, 1, 50, 127
2, 42800, Note_on_c, 1, 65, 127
2, 42800, Note_on_c, 1, 68, 127
2, 42800, Note_on_c, 1, 70, 127
2, 42960, Note_off_c, 1, 38, 0
2, 42960, Note_off_c, 1, 50, 0
2, 42960, Note_off_c, 1, 65, 0
2, 42960, Note_off_c, 1, 68, 0
2, 42960, Note_off_c, 1, 70, 0
2, 43000, Note_on_c, 1, 74, 127
2, 43120, Note_off_c, 1, 74, 0
2, 43160, Note_on_c, 1, 37, 127
2, 43160, Note_on_c, 1, 49, 127
2, 43160, Note_on_c, 1, 64, 127
2, 43160, Note_on_c, 1, 69, 127
2, 43160, Note_on_c, 1, 76, 127
2, 43320, Note_off_c, 1, 37, 0
2, 43320, Note_off_c, 1, 49, 0
2, 43320, Note_off_c, 1, 64, 0
2, 43320, Note_off_c, 1, 69, 0
2, 43320, Note_off_c, 1, 76, 0
2, 43360, Note_on_c, 1, 62, 127
2, 43480, Note_off_c, 1, 62, 0
2, 43520, Note_on_c, 1, 71, 127
2, 43520, Note_on_c, 1, 73, 127
2, 43520, Note_on_c, 1, 76, 127
2, 43520, Note_on_c, 1, 88, 127
2, 43560, Note_on_c, 1, 41, 127
2, 43560, Note_on_c, 1, 56, 127
2, 43560, Note_off_c, 1, 73, 0
2, 43560, Note_off_c, 1, 76, 0
2, 43560, Note_off_c, 1, 88, 0
2, 43600, Note_off_c, 1, 41, 0
2, 43600, Note_on_c, 1, 43, 127
2, 43600, Note_on_c, 1, 48, 127
2, 43600, Note_off_c, 1, 56, 0
2, 43600, Note_on_c, 1, 57, 127
2, 43600, Note_off_c, 1, 71, 0
2, 43600, Note_on_c, 1, 75, 127
2, 43640, Note_off_c, 1, 43, 0
2, 43640, Note_off_c, 1, 48, 0
2, 43640, Note_off_c, 1, 57, 0
2, 43640, Note_on_c, 1, 60, 127
2, 43640, Note_on_c, 1, 62, 127
2, 43640, Note_on_c, 1, 69, 127
2, 43640, Note_on_c, 1, 72, 127
2, 43640, Note_off_c, 1, 75, 0
2, 43680, Note_off_c, 1, 60, 0
2, 43680, Note_off_c, 1, 62, 0
2, 43680, Note_off_c, 1, 69, 0
2, 43680, Note_off_c, 1, 72, 0
2, 43720, Note_on_c, 1, 65, 127
2, 43840, Note_off_c, 1, 65, 0
2, 43880, Note_on_c, 1, 36, 127
2, 43880, Note_on_c, 1, 48, 127
2, 43880, Note_on_c, 1, 81, 127
2, 43880, Note_on_c, 1, 88, 127
2, 43880, Note_on_c, 1, 90, 127
2, 43920, Note_off_c, 1, 36, 0
2, 43920, Note_on_c, 1, 43, 127
2, 43920, Note_off_c, 1, 48, 0
2, 43920, Note_on_c, 1, 55, 127
2, 43920, Note_on_c, 1, 76, 127
2, 43920, Note_off_c, 1, 81, 0
2, 43920, Note_on_c, 1, 82, 127
2, 43920, Note_on_c, 1, 85, 127
2, 43920, Note_off_c, 1, 90, 0
2, 43960, Note_off_c, 1, 43, 0
2, 43960, Note_off_c, 1, 55, 0
2, 43960, Note_on_c, 1, 63, 127
2, 43960, Note_on_c, 1, 69, 127
2, 43960, Note_on_c, 1, 72, 127
2, 43960, Note_off_c, 1, 76, 0
2, 43960, Note_on_c, 1, 78, 127
2, 43960, Note_on_c, 1, 81, 127
2, 43960, Note_off_c, 1, 82, 0
2, 43960, Note_off_c, 1, 85, 0
2, 43960, Note_off_c, 1, 88, 0
2, 44000, Note_off_c, 1, 63, 0
2, 44000, Note_off_c, 1, 69, 0
2, 44000, Note_off_c, 1, 72, 0
2, 44000, Note_off_c, 1, 78, 0
2, 44000, Note_off_c, 1, 81, 0
2, 44240, Note_on_c, 1, 30, 127
2, 44240, Note_on_c, 1, 42, 127
2, 44240, Note_on_c, 1, 46, 127
2, 44240, Note_on_c, 1, 49, 127
2, 44240, Note_on_c, 1, 54, 127
2, 44240, Note_on_c, 1, 70, 127
2, 44240, Note_on_c, 1, 73, 127
2, 44240, Note_on_c, 1, 78, 127
2, 44240, Note_on_c, 1, 82, 127
2, 44440, Note_off_c, 1, 30, 0
2, 44440, Note_off_c, 1, 42, 0
2, 44440, Note_off_c, 1, 46, 0
2, 44440, Note_off_c, 1, 49, 0
2, 44440, Note_off_c, 1, 54, 0
2, 44440, Note_off_c, 1, 70, 0
2, 44440, Note_off_c, 1, 73, 0
2, 44440, Note_off_c, 1, 78, 0
2, 44440, Note_off_c, 1, 82, 0
2, 44480, Note_on_c, 1, 30, 127
2, 44480, Note_on_c, 1, 42, 127
2, 44480, Note_on_c, 1, 46, 127
2, 44480, Note_on_c, 1, 49, 127
2, 44480, Note_on_c, 1, 54, 127
2, 44480, Note_on_c, 1, 70, 127
2, 44480, Note_on_c, 1, 73, 127
2, 44480, Note_on_c, 1, 78, 127
2, 44480, Note_on_c, 1, 82, 127
2, 44960, Note_off_c, 1, 30, 0
2, 44960, Note_off_c, 1, 42, 0
2, 44960, Note_off_c, 1, 46, 0
2, 44960, Note_off_c, 1, 49, 0
2, 44960, Note_off_c, 1, 54, 0
2, 44960, Note_off_c, 1, 70, 0
2, 44960, Note_off_c, 1, 73, 0
2, 44960, Note_off_c, 1, 78, 0
2, 44960, Note_off_c, 1, 82, 0
2, 45000, Note_on_c, 1, 61, 127
2, 45000, Note_on_c, 1, 64, 127
2, 45000, Note_on_c, 1, 69, 127
2, 45000, Note_on_c, 1, 73, 127
2, 45000, Note_on_c, 1, 80, 127
2, 45080, Note_off_c, 1, 80, 0
2, 45120, Note_on_c, 1, 59, 127
2, 45120, Note_off_c, 1, 64, 0
2, 45120, Note_on_c, 1, 65, 127
2, 45120, Note_on_c, 1, 68, 127
2, 45120, Note_off_c, 1, 69, 0
2, 45120, Note_off_c, 1, 73, 0
2, 45120, Note_on_c, 1, 99, 127
2, 45160, Note_off_c, 1, 59, 0
2, 45160, Note_on_c, 1, 64, 127
2, 45160, Note_off_c, 1, 65, 0
2, 45160, Note_off_c, 1, 68, 0
2, 45160, Note_on_c, 1, 69, 127
2, 45160, Note_on_c, 1, 73, 127
2, 45160, Note_on_c, 1, 80, 127
2, 45160, Note_off_c, 1, 99, 0
2, 45280, Note_off_c, 1, 61, 0
2, 45280, Note_off_c, 1, 64, 0
2, 45280, Note_off_c, 1, 69, 0
2, 45280, Note_off_c, 1, 73, 0
2, 45280, Note_off_c, 1, 80, 0
2, 45320, Note_on_c, 1, 62, 127
2, 45320, Note_on_c, 1, 66, 127
2, 45320, Note_on_c, 1, 69, 127
2, 45320, Note_on_c, 1, 71, 127
2, 45640, Note_off_c, 1, 62, 0
2, 45640, Note_off_c, 1, 66, 0
2, 45640, Note_off_c, 1, 69, 0
2, 45640, Note_off_c, 1, 71, 0
2, 45680, Note_on_c, 1, 57, 127
2, 45680, Note_on_c, 1, 67, 127
2, 45680, Note_on_c, 1, 69, 127
2, 45680, Note_on_c, 1, 73, 127
2, 45800, Note_off_c, 1, 57, 0
2, 45800, Note_off_c, 1, 67, 0
2, 45800, Note_off_c, 1, 69, 0
2, 45800, Note_off_c, 1, 73, 0
2, 45840, Note_on_c, 1, 57, 127
2, 45840, Note_on_c, 1, 67, 127
2, 45840, Note_on_c, 1, 69, 127
2, 45840, Note_on_c, 1, 73, 127
2, 46000, Note_off_c, 1, 57, 0
2, 46000, Note_off_c, 1, 67, 0
2, 46000, Note_off_c, 1, 69, 0
2, 46000, Note_off_c, 1, 73, 0
2, 46040, Note_on_c, 1, 69, 127
2, 46040, Note_on_c, 1, 78, 127
2, 46320, Note_on_c, 1, 57, 127
2, 46320, Note_on_c, 1, 66, 127
2, 46320, Note_off_c, 1, 69, 0
2, 46320, Note_off_c, 1, 78, 0
2, 46320, Note_on_c, 1, 90, 127
2, 46320, Note_on_c, 1, 93, 127
2, 46360, Note_off_c, 1, 57, 0
2, 46360, Note_off_c, 1, 66, 0
2, 46360, Note_off_c, 1, 90, 0
2, 46360, Note_off_c, 1, 93, 0
2, 46400, Note_on_c, 1, 43, 127
2, 46400, Note_on_c, 1, 51, 127
2, 46400, Note_on_c, 1, 59, 127
2, 46400, Note_on_c, 1, 63, 127
2, 46400, Note_on_c, 1, 69, 127
2, 46600, Note_off_c, 1, 43, 0
2, 46600, Note_on_c, 1, 44, 127
2, 46600, Note_on_c, 1, 45, 127
2, 46600, Note_off_c, 1, 51, 0
2, 46600, Note_off_c, 1, 59, 0
2, 46600, Note_off_c, 1, 63, 0
2, 46600, Note_off_c, 1, 69, 0
2, 46600, Note_on_c, 1, 102, 127
2, 46600, Note_on_c, 1, 105, 127
2, 46640, Note_off_c, 1, 44, 0
2, 46640, Note_off_c, 1, 45, 0
2, 46640, Note_off_c, 1, 102, 0
2, 46640, Note_off_c, 1, 105, 0
2, 46680, Note_on_c, 1, 43, 127
2, 46680, Note_on_c, 1, 51, 127
2, 46680, Note_on_c, 1, 59, 127
2, 46680, Note_on_c, 1, 63, 127
2, 46680, Note_on_c, 1, 69, 127
2, 46720, Note_off_c, 1, 43, 0
2, 46720, Note_off_c, 1, 51, 0
2, 46720, Note_off_c, 1, 59, 0
2, 46720, Note_off_c, 1, 63, 0
2, 46720, Note_on_c, 1, 66, 127
2, 46720, Note_off_c, 1, 69, 0
2, 46760, Note_on_c, 1, 45, 127
2, 46760, Note_on_c, 1, 52, 127
2, 46760, Note_on_c, 1, 57, 127
2, 46760, Note_on_c, 1, 61, 127
2, 46760, Note_off_c, 1, 66, 0
2, 46760, Note_on_c, 1, 69, 127
2, 47080, Note_off_c, 1, 45, 0
2, 47080, Note_off_c, 1, 52, 0
2, 47080, Note_off_c, 1, 57, 0
2, 47080, Note_off_c, 1, 61, 0
2, 47080, Note_off_c, 1, 69, 0
2, 47320, Note_on_c, 1, 81, 127
2, 47360, Note_on_c, 1, 78, 127
2, 47360, Note_off_c, 1, 81, 0
2, 47400, Note_off_c, 1, 78, 0
2, 47440, Note_on_c, 1, 73, 127
2, 47480, Note_on_c, 1, 64, 127
2, 47480, Note_on_c, 1, 85, 127
2, 47520, Note_on_c, 1, 48, 127
2, 47520, Note_on_c, 1, 60, 127
2, 47520, Note_off_c, 1, 64, 0
2, 47520, Note_off_c, 1, 73, 0
2, 47520, Note_on_c, 1, 78, 127
2, 47520, Note_on_c, 1, 81, 127
2, 47520, Note_off_c, 1, 85, 0
2, 47520, Note_on_c, 1, 87, 127
2, 47520, Note_on_c, 1, 90, 127
2, 47560, Note_on_c, 1, 39, 127
2, 47560, Note_on_c, 1, 43, 127
2, 47560, Note_off_c, 1, 48, 0
2, 47560, Note_on_c, 1, 51, 127
2, 47560, Note_on_c, 1, 55, 127
2, 47560, Note_off_c, 1, 60, 0
2, 47560, Note_on_c, 1, 61, 127
2, 47560, Note_off_c, 1, 78, 0
2, 47560, Note_off_c, 1, 81, 0
2, 47560, Note_off_c, 1, 87, 0
2, 47560, Note_off_c, 1, 90, 0
2, 47600, Note_off_c, 1, 39, 0
2, 47600, Note_off_c, 1, 43, 0
2, 47600, Note_off_c, 1, 51, 0
2, 47600, Note_off_c, 1, 55, 0
2, 47600, Note_off_c, 1, 61, 0
2, 47600, Note_on_c, 1, 64, 127
2, 47600, Note_on_c, 1, 73, 127
2, 47600, Note_on_c, 1, 81, 127
2, 47600, Note_on_c, 1, 85, 127
2, 47640, Note_on_c, 1, 52, 127
2, 47640, Note_on_c, 1, 61, 127
2, 47640, Note_off_c, 1, 64, 0
2, 47640, Note_off_c, 1, 73, 0
2, 47640, Note_on_c, 1, 76, 127
2, 47640, Note_off_c, 1, 81, 0
2, 47640, Note_on_c, 1, 88, 127
2, 47680, Note_on_c, 1, 47, 127
2, 47680, Note_off_c, 1, 52, 0
2, 47680, Note_on_c, 1, 57, 127
2, 47680, Note_off_c, 1, 61, 0
2, 47680, Note_on_c, 1, 62, 127
2, 47680, Note_on_c, 1, 68, 127
2, 47680, Note_on_c, 1, 71, 127
2, 47680, Note_off_c, 1, 76, 0
2, 47680, Note_off_c, 1, 85, 0
2, 47680, Note_off_c, 1, 88, 0
2, 47720, Note_off_c, 1, 47, 0
2, 47720, Note_on_c, 1, 49, 127
2, 47720, Note_on_c, 1, 55, 127
2, 47720, Note_off_c, 1, 57, 0
2, 47720, Note_on_c, 1, 59, 127
2, 47720, Note_off_c, 1, 62, 0
2, 47720, Note_on_c, 1, 67, 127
2, 47720, Note_off_c, 1, 68, 0
2, 47720, Note_off_c, 1, 71, 0
2, 47760, Note_off_c, 1, 49, 0
2, 47760, Note_off_c, 1, 55, 0
2, 47760, Note_on_c, 1, 57, 127
2, 47760, Note_off_c, 1, 59, 0
2, 47760, Note_on_c, 1, 61, 127
2, 47760, Note_on_c, 1, 64, 127
2, 47760, Note_off_c, 1, 67, 0
2, 47760, Note_on_c, 1, 72, 127
2, 47800, Note_on_c, 1, 55, 127
2, 47800, Note_off_c, 1, 57, 0
2, 47800, Note_off_c, 1, 64, 0
2, 47800, Note_on_c, 1, 70, 127
2, 47800, Note_off_c, 1, 72, 0
2, 47800, Note_on_c, 1, 79, 127
2, 47800, Note_on_c, 1, 82, 127
2, 47840, Note_on_c, 1, 45, 127
2, 47840, Note_on_c, 1, 54, 127
2, 47840, Note_off_c, 1, 55, 0
2, 47840, Note_off_c, 1, 61, 0
2, 47840, Note_off_c, 1, 70, 0
2, 47840, Note_on_c, 1, 75, 127
2, 47840, Note_on_c, 1, 78, 127
2, 47840, Note_off_c, 1, 79, 0
2, 47840, Note_off_c, 1, 82, 0
2, 47880, Note_off_c, 1, 45, 0
2, 47880, Note_on_c, 1, 52, 127
2, 47880, Note_off_c, 1, 54, 0
2, 47880, Note_on_c, 1, 66, 127
2, 47880, Note_on_c, 1, 73, 127
2, 47880, Note_off_c, 1, 75, 0
2, 47880, Note_off_c, 1, 78, 0
2, 47880, Note_on_c, 1, 82, 127
2, 47880, Note_on_c, 1, 85, 127
2, 47920, Note_on_c, 1, 45, 127
2, 47920, Note_off_c, 1, 52, 0
2, 47920, Note_on_c, 1, 54, 127
2, 47920, Note_off_c, 1, 66, 0
2, 47920, Note_off_c, 1, 73, 0
2, 47920, Note_on_c, 1, 75, 127
2, 47920, Note_on_c, 1, 78, 127
2, 47920, Note_off_c, 1, 82, 0
2, 47920, Note_off_c, 1, 85, 0
2, 48120, Note_off_c, 1, 45, 0
2, 48120, Note_off_c, 1, 54, 0
2, 48120, Note_on_c, 1, 71, 127
2, 48120, Note_off_c, 1, 75, 0
2, 48120, Note_off_c, 1, 78, 0
2, 48160, Note_on_c, 1, 67, 127
2, 48160, Note_off_c, 1, 71, 0
2, 48160, Note_on_c, 1, 78, 127
2, 48160, Note_on_c, 1, 85, 127
2, 48160, Note_on_c, 1, 88, 127
2, 48200, Note_on_c, 1, 59, 127
2, 48200, Note_off_c, 1, 67, 0
2, 48200, Note_on_c, 1, 74, 127
2, 48200, Note_on_c, 1, 83, 127
2, 48200, Note_off_c, 1, 85, 0
2, 48200, Note_on_c, 1, 86, 127
2, 48200, Note_off_c, 1, 88, 0
2, 48240, Note_on_c, 1, 42, 127
2, 48240, Note_off_c, 1, 59, 0
2, 48240, Note_off_c, 1, 74, 0
2, 48240, Note_off_c, 1, 78, 0
2, 48240, Note_on_c, 1, 79, 127
2, 48240, Note_on_c, 1, 80, 127
2, 48240, Note_off_c, 1, 83, 0
2, 48240, Note_off_c, 1, 86, 0
2, 48280, Note_off_c, 1, 42, 0
2, 48280, Note_on_c, 1, 43, 127
2, 48280, Note_on_c, 1, 60, 127
2, 48280, Note_on_c, 1, 68, 127
2, 48280, Note_on_c, 1, 77, 127
2, 48280, Note_off_c, 1, 79, 0
2, 48280, Note_off_c, 1, 80, 0
2, 48320, Note_off_c, 1, 43, 0
2, 48320, Note_off_c, 1, 60, 0
2, 48320, Note_off_c, 1, 68, 0
2, 48320, Note_off_c, 1, 77, 0
2, 48320, Note_on_c, 1, 78, 127
2, 48320, Note_on_c, 1, 85, 127
2, 48320, Note_on_c, 1, 88, 127
2, 48360, Note_on_c, 1, 54, 127
2, 48360, Note_on_c, 1, 58, 127
2, 48360, Note_on_c, 1, 73, 127
2, 48360, Note_off_c, 1, 85, 0
2, 48360, Note_off_c, 1, 88, 0
2, 48480, Note_off_c, 1, 54, 0
2, 48480, Note_off_c, 1, 58, 0
2, 48480, Note_off_c, 1, 73, 0
2, 48520, Note_on_c, 1, 80, 127
2, 48560, Note_off_c, 1, 80, 0
2, 48720, Note_off_c, 1, 78, 0
2, 48760, Note_on_c, 1, 78, 127
2, 48920, Note_on_c, 1, 57, 127
2, 48920, Note_on_c, 1, 81, 127
2, 49000, Note_off_c, 1, 78, 0
2, 49000, Note_off_c, 1, 81, 0
2, 49040, Note_off_c, 1, 57, 0
2, 49040, Note_on_c, 1, 73, 127
2, 49040, Note_on_c, 1, 78, 127
2, 49080, Note_on_c, 1, 69, 127
2, 49080, Note_off_c, 1, 73, 0
2, 49080, Note_on_c, 1, 76, 127
2, 49080, Note_off_c, 1, 78, 0
2, 49080, Note_on_c, 1, 79, 127
2, 49200, Note_off_c, 1, 76, 0
2, 49200, Note_off_c, 1, 79, 0
2, 49240, Note_on_c, 1, 74, 127
2, 49240, Note_on_c, 1, 78, 127
2, 49400, Note_off_c, 1, 69, 0
2, 49400, Note_off_c, 1, 78, 0
2, 49440, Note_on_c, 1, 69, 127
2, 49440, Note_on_c, 1, 80, 127
2, 49560, Note_off_c, 1, 74, 0
2, 49560, Note_off_c, 1, 80, 0
2, 49600, Note_on_c, 1, 73, 127
2, 49600, Note_on_c, 1, 81, 127
2, 49920, Note_off_c, 1, 69, 0
2, 49920, Note_off_c, 1, 81, 0
2, 49960, Note_on_c, 1, 68, 127
2, 49960, Note_on_c, 1, 80, 127
2, 50240, Note_off_c, 1, 80, 0
2, 50280, Note_off_c, 1, 68, 0
2, 50280, Note_on_c, 1, 69, 127
2, 50280, Note_on_c, 1, 78, 127
2, 50600, Note_off_c, 1, 69, 0
2, 50600, Note_off_c, 1, 78, 0
2, 50640, Note_on_c, 1, 61, 127
2, 50640, Note_on_c, 1, 80, 127
2, 50840, Note_off_c, 1, 61, 0
2, 50840, Note_off_c, 1, 73, 0
2, 50840, Note_off_c, 1, 80, 0
2, 50880, Note_on_c, 1, 61, 127
2, 50880, Note_on_c, 1, 73, 127
2, 50880, Note_on_c, 1, 80, 127
2, 51000, Note_off_c, 1, 61, 0
2, 51040, Note_on_c, 1, 53, 127
2, 51200, Note_on_c, 1, 44, 127
2, 51200, Note_off_c, 1, 53, 0
2, 51360, Note_off_c, 1, 44, 0
2, 51360, Note_off_c, 1, 80, 0
2, 51400, Note_on_c, 1, 61, 127
2, 51400, Note_on_c, 1, 80, 127
2, 51720, Note_off_c, 1, 61, 0
2, 51720, Note_off_c, 1, 73, 0
2, 51720, Note_off_c, 1, 80, 0
2, 51760, Note_on_c, 1, 56, 127
2, 51760, Note_on_c, 1, 77, 127
2, 51760, Note_on_c, 1, 85, 127
2, 51880, Note_off_c, 1, 77, 0
2, 51880, Note_off_c, 1, 85, 0
2, 51920, Note_on_c, 1, 53, 127
2, 51920, Note_off_c, 1, 56, 0
2, 51920, Note_on_c, 1, 58, 127
2, 51920, Note_on_c, 1, 80, 127
2, 51920, Note_on_c, 1, 87, 127
2, 51960, Note_on_c, 1, 27, 127
2, 51960, Note_on_c, 1, 31, 127
2, 51960, Note_on_c, 1, 34, 127
2, 51960, Note_on_c, 1, 39, 127
2, 51960, Note_on_c, 1, 51, 127
2, 51960, Note_off_c, 1, 53, 0
2, 51960, Note_on_c, 1, 55, 127
2, 51960, Note_off_c, 1, 80, 0
2, 51960, Note_off_c, 1, 87, 0
2, 52000, Note_off_c, 1, 27, 0
2, 52000, Note_off_c, 1, 31, 0
2, 52000, Note_off_c, 1, 34, 0
2, 52000, Note_on_c, 1, 35, 127
2, 52000, Note_off_c, 1, 39, 0
2, 52000, Note_off_c, 1, 51, 0
2, 52000, Note_off_c, 1, 55, 0
2, 52000, Note_off_c, 1, 58, 0
2, 52000, Note_on_c, 1, 64, 127
2, 52000, Note_on_c, 1, 75, 127
2, 52040, Note_off_c, 1, 35, 0
2, 52040, Note_off_c, 1, 64, 0
2, 52040, Note_off_c, 1, 75, 0
2, 52080, Note_on_c, 1, 80, 127
2, 52080, Note_on_c, 1, 89, 127
2, 52240, Note_off_c, 1, 80, 0
2, 52240, Note_off_c, 1, 89, 0
2, 52280, Note_on_c, 1, 77, 127
2, 52280, Note_on_c, 1, 80, 127
2, 52280, Note_on_c, 1, 84, 127
2, 52400, Note_off_c, 1, 77, 0
2, 52400, Note_off_c, 1, 80, 0
2, 52400, Note_off_c, 1, 84, 0
2, 52440, Note_on_c, 1, 61, 127
2, 52440, Note_on_c, 1, 92, 127
2, 52640, Note_on_c, 1, 48, 127
2, 52640, Note_on_c, 1, 50, 127
2, 52640, Note_on_c, 1, 53, 127
2, 52640, Note_on_c, 1, 55, 127
2, 52640, Note_off_c, 1, 61, 0
2, 52640, Note_on_c, 1, 77, 127
2, 52640, Note_off_c, 1, 92, 0
2, 52680, Note_off_c, 1, 48, 0
2, 52680, Note_off_c, 1, 50, 0
2, 52680, Note_off_c, 1, 53, 0
2, 52680, Note_off_c, 1, 55, 0
2, 52680, Note_on_c, 1, 59, 127
2, 52680, Note_on_c, 1, 63, 127
2, 52680, Note_on_c, 1, 65, 127
2, 52680, Note_on_c, 1, 75, 127
2, 52680, Note_off_c, 1, 77, 0
2, 52720, Note_on_c, 1, 30, 127
2, 52720, Note_on_c, 1, 42, 127
2, 52720, Note_off_c, 1, 59, 0
2, 52720, Note_on_c, 1, 61, 127
2, 52720, Note_off_c, 1, 63, 0
2, 52720, Note_off_c, 1, 65, 0
2, 52720, Note_on_c, 1, 66, 127
2, 52720, Note_on_c, 1, 68, 127
2, 52720, Note_on_c, 1, 73, 127
2, 52720, Note_off_c, 1, 75, 0
2, 52720, Note_on_c, 1, 83, 127
2, 52720, Note_on_c, 1, 97, 127
2, 52760, Note_off_c, 1, 30, 0
2, 52760, Note_off_c, 1, 42, 0
2, 52760, Note_off_c, 1, 66, 0
2, 52760, Note_off_c, 1, 68, 0
2, 52760, Note_off_c, 1, 73, 0
2, 52760, Note_off_c, 1, 83, 0
2, 52760, Note_off_c, 1, 97, 0
2, 52800, Note_on_c, 1, 49, 127
2, 52800, Note_off_c, 1, 61, 0
2, 52800, Note_on_c, 1, 80, 127
2, 52800, Note_on_c, 1, 85, 127
2, 52800, Note_on_c, 1, 89, 127
2, 52840, Note_off_c, 1, 49, 0
2, 52840, Note_on_c, 1, 56, 127
2, 52840, Note_on_c, 1, 61, 127
2, 52840, Note_on_c, 1, 65, 127
2, 52840, Note_on_c, 1, 79, 127
2, 52840, Note_off_c, 1, 85, 0
2, 52840, Note_off_c, 1, 89, 0
2, 52880, Note_on_c, 1, 49, 127
2, 52880, Note_off_c, 1, 56, 0
2, 52880, Note_off_c, 1, 61, 0
2, 52880, Note_off_c, 1, 65, 0
2, 52880, Note_off_c, 1, 79, 0
2, 52880, Note_on_c, 1, 85, 127
2, 52880, Note_on_c, 1, 89, 127
2, 52920, Note_off_c, 1, 49, 0
2, 52920, Note_on_c, 1, 61, 127
2, 52920, Note_off_c, 1, 85, 0
2, 52920, Note_off_c, 1, 89, 0
2, 53000, Note_off_c, 1, 61, 0
2, 53000, Note_off_c, 1, 80, 0
2, 53040, Note_on_c, 1, 51, 127
2, 53040, Note_on_c, 1, 80, 127
2, 53040, Note_on_c, 1, 89, 127
2, 53120, Note_off_c, 1, 51, 0
2, 53120, Note_on_c, 1, 61, 127
2, 53120, Note_off_c, 1, 89, 0
2, 53200, Note_on_c, 1, 60, 127
2, 53200, Note_off_c, 1, 61, 0
2, 53200, Note_on_c, 1, 65, 127
2, 53200, Note_on_c, 1, 68, 127
2, 53200, Note_on_c, 1, 77, 127
2, 53200, Note_off_c, 1, 80, 0
2, 53200, Note_on_c, 1, 89, 127
2, 53320, Note_off_c, 1, 60, 0
2, 53320, Note_off_c, 1, 65, 0
2, 53320, Note_off_c, 1, 68, 0
2, 53320, Note_off_c, 1, 77, 0
2, 53320, Note_on_c, 1, 80, 127
2, 53360, Note_on_c, 1, 31, 127
2, 53360, Note_on_c, 1, 43, 127
2, 53360, Note_on_c, 1, 50, 127
2, 53360, Note_on_c, 1, 62, 127
2, 53360, Note_on_c, 1, 71, 127
2, 53360, Note_off_c, 1, 80, 0
2, 53360, Note_on_c, 1, 83, 127
2, 53360, Note_off_c, 1, 89, 0
2, 53400, Note_off_c, 1, 31, 0
2, 53400, Note_off_c, 1, 43, 0
2, 53400, Note_off_c, 1, 50, 0
2, 53400, Note_on_c, 1, 53, 127
2, 53400, Note_on_c, 1, 59, 127
2, 53400, Note_off_c, 1, 62, 0
2, 53400, Note_on_c, 1, 75, 127
2, 53400, Note_off_c, 1, 83, 0
2, 53440, Note_on_c, 1, 43, 127
2, 53440, Note_off_c, 1, 53, 0
2, 53440, Note_on_c, 1, 57, 127
2, 53440, Note_off_c, 1, 59, 0
2, 53440, Note_on_c, 1, 62, 127
2, 53440, Note_off_c, 1, 71, 0
2, 53440, Note_off_c, 1, 75, 0
2, 53480, Note_off_c, 1, 43, 0
2, 53480, Note_off_c, 1, 57, 0
2, 53480, Note_off_c, 1, 62, 0
2, 53520, Note_on_c, 1, 49, 127
2, 53520, Note_on_c, 1, 61, 127
2, 53520, Note_on_c, 1, 80, 127
2, 53520, Note_on_c, 1, 92, 127
2, 53560, Note_off_c, 1, 49, 0
2, 53560, Note_off_c, 1, 61, 0
2, 53560, Note_on_c, 1, 72, 127
2, 53560, Note_on_c, 1, 73, 127
2, 53560, Note_off_c, 1, 80, 0
2, 53560, Note_on_c, 1, 82, 127
2, 53600, Note_on_c, 1, 36, 127
2, 53600, Note_on_c, 1, 48, 127
2, 53600, Note_on_c, 1, 55, 127
2, 53600, Note_on_c, 1, 67, 127
2, 53600, Note_off_c, 1, 72, 0
2, 53600, Note_off_c, 1, 73, 0
2, 53600, Note_on_c, 1, 76, 127
2, 53600, Note_off_c, 1, 82, 0
2, 53600, Note_off_c, 1, 92, 0
2, 53640, Note_off_c, 1, 36, 0
2, 53640, Note_off_c, 1, 48, 0
2, 53640, Note_off_c, 1, 55, 0
2, 53640, Note_off_c, 1, 67, 0
2, 53640, Note_on_c, 1, 71, 127
2, 53640, Note_on_c, 1, 74, 127
2, 53640, Note_off_c, 1, 76, 0
2, 53640, Note_on_c, 1, 83, 127
2, 53640, Note_on_c, 1, 95, 127
2, 53640, Note_on_c, 1, 98, 127
2, 53680, Note_on_c, 1, 61, 127
2, 53680, Note_off_c, 1, 71, 0
2, 53680, Note_off_c, 1, 74, 0
2, 53680, Note_off_c, 1, 83, 0
2, 53680, Note_off_c, 1, 95, 0
2, 53680, Note_off_c, 1, 98, 0
2, 53720, Note_off_c, 1, 61, 0
2, 53720, Note_on_c, 1, 68, 127
2, 53720, Note_on_c, 1, 82, 127
2, 53720, Note_on_c, 1, 85, 127
2, 53840, Note_off_c, 1, 68, 0
2, 53880, Note_on_c, 1, 65, 127
2, 53880, Note_on_c, 1, 75, 127
2, 53880, Note_on_c, 1, 79, 127
2, 53880, Note_off_c, 1, 82, 0
2, 53880, Note_on_c, 1, 87, 127
2, 53960, Note_off_c, 1, 65, 0
2, 54000, Note_off_c, 1, 75, 0
2, 54000, Note_off_c, 1, 79, 0
2, 54000, Note_off_c, 1, 87, 0
2, 54040, Note_on_c, 1, 58, 127
2, 54040, Note_on_c, 1, 61, 127
2, 54040, Note_on_c, 1, 66, 127
2, 54040, Note_on_c, 1, 70, 127
2, 54040, Note_on_c, 1, 73, 127
2, 54040, Note_on_c, 1, 82, 127
2, 54040, Note_off_c, 1, 85, 0
2, 54080, Note_off_c, 1, 61, 0
2, 54080, Note_on_c, 1, 62, 127
2, 54080, Note_off_c, 1, 66, 0
2, 54080, Note_off_c, 1, 70, 0
2, 54080, Note_off_c, 1, 82, 0
2, 54080, Note_on_c, 1, 85, 127
2, 54120, Note_off_c, 1, 58, 0
2, 54120, Note_off_c, 1, 62, 0
2, 54120, Note_on_c, 1, 64, 127
2, 54120, Note_on_c, 1, 70, 127
2, 54120, Note_off_c, 1, 85, 0
2, 54120, Note_on_c, 1, 88, 127
2, 54160, Note_on_c, 1, 58, 127
2, 54160, Note_on_c, 1, 61, 127
2, 54160, Note_off_c, 1, 64, 0
2, 54160, Note_on_c, 1, 66, 127
2, 54160, Note_on_c, 1, 82, 127
2, 54160, Note_off_c, 1, 88, 0
2, 54200, Note_off_c, 1, 58, 0
2, 54200, Note_off_c, 1, 66, 0
2, 54200, Note_off_c, 1, 70, 0
2, 54200, Note_off_c, 1, 73, 0
2, 54200, Note_off_c, 1, 82, 0
2, 54200, Note_on_c, 1, 88, 127
2, 54240, Note_on_c, 1, 44, 127
2, 54240, Note_off_c, 1, 61, 0
2, 54240, Note_on_c, 1, 71, 127
2, 54240, Note_on_c, 1, 75, 127
2, 54240, Note_on_c, 1, 83, 127
2, 54240, Note_off_c, 1, 88, 0
2, 54320, Note_off_c, 1, 44, 0
2, 54400, Note_on_c, 1, 61, 127
2, 54400, Note_off_c, 1, 71, 0
2, 54400, Note_off_c, 1, 75, 0
2, 54400, Note_on_c, 1, 79, 127
2, 54400, Note_on_c, 1, 82, 127
2, 54400, Note_off_c, 1, 83, 0
2, 54400, Note_on_c, 1, 91, 127
2, 54440, Note_on_c, 1, 56, 127
2, 54440, Note_off_c, 1, 61, 0
2, 54440, Note_on_c, 1, 62, 127
2, 54440, Note_on_c, 1, 72, 127
2, 54440, Note_on_c, 1, 77, 127
2, 54440, Note_off_c, 1, 79, 0
2, 54440, Note_off_c, 1, 82, 0
2, 54440, Note_on_c, 1, 86, 127
2, 54440, Note_off_c, 1, 91, 0
2, 54480, Note_off_c, 1, 56, 0
2, 54480, Note_on_c, 1, 61, 127
2, 54480, Note_off_c, 1, 62, 0
2, 54480, Note_off_c, 1, 72, 0
2, 54480, Note_off_c, 1, 77, 0
2, 54480, Note_on_c, 1, 79, 127
2, 54480, Note_on_c, 1, 82, 127
2, 54480, Note_off_c, 1, 86, 0
2, 54480, Note_on_c, 1, 91, 127
2, 54520, Note_on_c, 1, 54, 127
2, 54520, Note_on_c, 1, 58, 127
2, 54520, Note_off_c, 1, 61, 0
2, 54520, Note_on_c, 1, 64, 127
2, 54520, Note_on_c, 1, 78, 127
2, 54520, Note_off_c, 1, 79, 0
2, 54520, Note_off_c, 1, 82, 0
2, 54520, Note_off_c, 1, 91, 0
2, 54560, Note_off_c, 1, 54, 0
2, 54560, Note_off_c, 1, 64, 0
2, 54560, Note_off_c, 1, 78, 0
2, 54560, Note_on_c, 1, 87, 127
2, 54600, Note_on_c, 1, 56, 127
2, 54720, Note_off_c, 1, 56, 0
2, 54720, Note_off_c, 1, 58, 0
2, 54720, Note_on_c, 1, 82, 127
2, 54720, Note_off_c, 1, 87, 0
2, 54760, Note_on_c, 1, 63, 127
2, 54760, Note_on_c, 1, 73, 127
2, 54760, Note_off_c, 1, 82, 0
2, 54760, Note_on_c, 1, 85, 127
2, 54920, Note_off_c, 1, 63, 0
2, 54920, Note_on_c, 1, 65, 127
2, 54920, Note_on_c, 1, 72, 127
2, 54920, Note_off_c, 1, 73, 0
2, 54920, Note_on_c, 1, 81, 127
2, 54920, Note_off_c, 1, 85, 0
2, 54920, Note_on_c, 1, 89, 127
2, 54960, Note_on_c, 1, 54, 127
2, 54960, Note_on_c, 1, 58, 127
2, 54960, Note_on_c, 1, 61, 127
2, 54960, Note_off_c, 1, 65, 0
2, 54960, Note_off_c, 1, 81, 0
2, 54960, Note_off_c, 1, 89, 0
2, 55000, Note_off_c, 1, 54, 0
2, 55000, Note_off_c, 1, 58, 0
2, 55000, Note_off_c, 1, 61, 0
2, 55000, Note_on_c, 1, 62, 127
2, 55000, Note_off_c, 1, 72, 0
2, 55000, Note_on_c, 1, 100, 127
2, 55040, Note_on_c, 1, 59, 127
2, 55040, Note_on_c, 1, 76, 127
2, 55040, Note_on_c, 1, 78, 127
2, 55040, Note_off_c, 1, 100, 0
2, 55080, Note_off_c, 1, 59, 0
2, 55080, Note_off_c, 1, 62, 0
2, 55080, Note_off_c, 1, 76, 0
2, 55080, Note_off_c, 1, 78, 0
2, 55160, Note_on_c, 1, 54, 127
2, 55160, Note_on_c, 1, 56, 127
2, 55160, Note_on_c, 1, 60, 127
2, 55160, Note_on_c, 1, 66, 127
2, 55320, Note_off_c, 1, 54, 0
2, 55320, Note_off_c, 1, 56, 0
2, 55320, Note_on_c, 1, 68, 127
2, 55320, Note_on_c, 1, 92, 127
2, 55320, Note_on_c, 1, 104, 127
2, 55360, Note_on_c, 1, 44, 127
2, 55360, Note_off_c, 1, 60, 0
2, 55360, Note_off_c, 1, 68, 0
2, 55360, Note_on_c, 1, 73, 127
2, 55360, Note_off_c, 1, 92, 0
2, 55360, Note_off_c, 1, 104, 0
2, 55400, Note_on_c, 1, 43, 127
2, 55400, Note_off_c, 1, 44, 0
2, 55400, Note_on_c, 1, 50, 127
2, 55400, Note_on_c, 1, 55, 127
2, 55400, Note_on_c, 1, 58, 127
2, 55400, Note_on_c, 1, 63, 127
2, 55400, Note_off_c, 1, 66, 0
2, 55400, Note_off_c, 1, 73, 0
2, 55440, Note_off_c, 1, 43, 0
2, 55440, Note_off_c, 1, 50, 0
2, 55440, Note_off_c, 1, 55, 0
2, 55440, Note_off_c, 1, 58, 0
2, 55440, Note_off_c, 1, 63, 0
2, 55480, Note_on_c, 1, 65, 127
2, 55480, Note_on_c, 1, 73, 127
2, 55640, Note_off_c, 1, 65, 0
2, 55640, Note_off_c, 1, 73, 0
2, 55680, Note_on_c, 1, 65, 127
2, 55680, Note_on_c, 1, 73, 127
2, 55800, Note_off_c, 1, 65, 0
2, 55800, Note_off_c, 1, 73, 0
2, 55840, Note_on_c, 1, 68, 127
2, 55840, Note_on_c, 1, 77, 127
2, 56040, Note_on_c, 1, 67, 127
2, 56120, Note_off_c, 1, 67, 0
2, 56200, Note_on_c, 1, 67, 127
2, 56320, Note_off_c, 1, 67, 0
2, 56320, Note_off_c, 1, 77, 0
2, 56320, Note_on_c, 1, 78, 127
2, 56360, Note_on_c, 1, 56, 127
2, 56360, Note_on_c, 1, 66, 127
2, 56360, Note_on_c, 1, 72, 127
2, 56360, Note_on_c, 1, 75, 127
2, 56360, Note_off_c, 1, 78, 0
2, 56520, Note_off_c, 1, 56, 0
2, 56520, Note_off_c, 1, 66, 0
2, 56520, Note_off_c, 1, 68, 0
2, 56520, Note_off_c, 1, 72, 0
2, 56520, Note_off_c, 1, 75, 0
2, 56560, Note_on_c, 1, 68, 127
2, 56560, Note_on_c, 1, 73, 127
2, 56720, Note_on_c, 1, 61, 127
2, 56840, Note_off_c, 1, 61, 0
2, 56840, Note_off_c, 1, 68, 0
2, 56840, Note_off_c, 1, 73, 0
2, 56880, Note_on_c, 1, 61, 127
2, 56880, Note_on_c, 1, 76, 127
2, 56880, Note_on_c, 1, 82, 127
2, 56880, Note_on_c, 1, 88, 127
2, 57040, Note_off_c, 1, 61, 0
2, 57040, Note_off_c, 1, 76, 0
2, 57040, Note_off_c, 1, 82, 0
2, 57040, Note_off_c, 1, 88, 0
2, 57080, Note_on_c, 1, 64, 127
2, 57080, Note_on_c, 1, 80, 127
2, 57080, Note_on_c, 1, 84, 127
2, 57120, Note_off_c, 1, 64, 0
2, 57120, Note_off_c, 1, 80, 0
2, 57120, Note_off_c, 1, 84, 0
2, 57160, Note_on_c, 1, 63, 127
2, 57160, Note_on_c, 1, 81, 127
2, 57160, Note_on_c, 1, 84, 127
2, 57200, Note_off_c, 1, 63, 0
2, 57200, Note_on_c, 1, 64, 127
2, 57200, Note_on_c, 1, 80, 127
2, 57200, Note_off_c, 1, 81, 0
2, 57240, Note_off_c, 1, 64, 0
2, 57240, Note_off_c, 1, 80, 0
2, 57240, Note_off_c, 1, 84, 0
2, 57280, Note_on_c, 1, 45, 127
2, 57280, Note_on_c, 1, 57, 127
2, 57280, Note_on_c, 1, 69, 127
2, 57280, Note_on_c, 1, 73, 127
2, 57400, Note_off_c, 1, 69, 0
2, 57400, Note_off_c, 1, 73, 0
2, 57440, Note_on_c, 1, 69, 127
2, 57440, Note_on_c, 1, 73, 127
2, 57600, Note_off_c, 1, 45, 0
2, 57600, Note_off_c, 1, 57, 0
2, 57600, Note_off_c, 1, 69, 0
2, 57600, Note_off_c, 1, 73, 0
2, 57640, Note_on_c, 1, 41, 127
2, 57640, Note_on_c, 1, 53, 127
2, 57640, Note_on_c, 1, 69, 127
2, 57640, Note_on_c, 1, 72, 127
2, 57760, Note_off_c, 1, 69, 0
2, 57760, Note_off_c, 1, 72, 0
2, 57800, Note_on_c, 1, 71, 127
2, 57800, Note_on_c, 1, 74, 127
2, 57920, Note_off_c, 1, 41, 0
2, 57920, Note_off_c, 1, 53, 0
2, 57920, Note_off_c, 1, 71, 0
2, 57920, Note_off_c, 1, 74, 0
2, 57960, Note_on_c, 1, 36, 127
2, 57960, Note_on_c, 1, 48, 127
2, 57960, Note_on_c, 1, 77, 127
2, 57960, Note_on_c, 1, 80, 127
2, 57960, Note_on_c, 1, 86, 127
2, 58000, Note_off_c, 1, 36, 0
2, 58000, Note_off_c, 1, 48, 0
2, 58000, Note_on_c, 1, 51, 127
2, 58000, Note_on_c, 1, 63, 127
2, 58000, Note_on_c, 1, 71, 127
2, 58000, Note_off_c, 1, 77, 0
2, 58000, Note_on_c, 1, 83, 127
2, 58000, Note_off_c, 1, 86, 0
2, 58040, Note_on_c, 1, 35, 127
2, 58040, Note_on_c, 1, 39, 127
2, 58040, Note_on_c, 1, 47, 127
2, 58040, Note_off_c, 1, 51, 0
2, 58040, Note_on_c, 1, 75, 127
2, 58040, Note_off_c, 1, 80, 0
2, 58040, Note_off_c, 1, 83, 0
2, 58080, Note_off_c, 1, 35, 0
2, 58080, Note_off_c, 1, 39, 0
2, 58080, Note_on_c, 1, 43, 127
2, 58080, Note_on_c, 1, 55, 127
2, 58080, Note_off_c, 1, 63, 0
2, 58080, Note_off_c, 1, 75, 0
2, 58080, Note_on_c, 1, 76, 127
2, 58080, Note_on_c, 1, 83, 127
2, 58120, Note_off_c, 1, 43, 0
2, 58120, Note_off_c, 1, 47, 0
2, 58120, Note_off_c, 1, 55, 0
2, 58120, Note_off_c, 1, 71, 0
2, 58120, Note_off_c, 1, 76, 0
2, 58120, Note_off_c, 1, 83, 0
2, 58160, Note_on_c, 1, 82, 127
2, 58160, Note_on_c, 1, 85, 127
2, 58160, Note_on_c, 1, 88, 127
2, 58160, Note_on_c, 1, 94, 127
2, 58280, Note_off_c, 1, 82, 0
2, 58280, Note_off_c, 1, 85, 0
2, 58280, Note_off_c, 1, 88, 0
2, 58280, Note_off_c, 1, 94, 0
2, 58320, Note_on_c, 1, 40, 127
2, 58320, Note_on_c, 1, 52, 127
2, 58320, Note_on_c, 1, 59, 127
2, 58320, Note_on_c, 1, 74, 127
2, 58320, Note_on_c, 1, 86, 127
2, 58440, Note_off_c, 1, 40, 0
2, 58440, Note_off_c, 1, 52, 0
2, 58440, Note_off_c, 1, 59, 0
2, 58440, Note_off_c, 1, 74, 0
2, 58440, Note_off_c, 1, 86, 0
2, 58480, Note_on_c, 1, 56, 127
2, 58480, Note_on_c, 1, 59, 127
2, 58480, Note_on_c, 1, 83, 127
2, 58480, Note_on_c, 1, 87, 127
2, 58600, Note_off_c, 1, 56, 0
2, 58600, Note_off_c, 1, 59, 0
2, 58600, Note_on_c, 1, 61, 127
2, 58600, Note_on_c, 1, 66, 127
2, 58600, Note_on_c, 1, 70, 127
2, 58600, Note_off_c, 1, 83, 0
2, 58600, Note_on_c, 1, 85, 127
2, 58600, Note_off_c, 1, 87, 0
2, 58640, Note_off_c, 1, 61, 0
2, 58640, Note_off_c, 1, 66, 0
2, 58640, Note_off_c, 1, 70, 0
2, 58640, Note_off_c, 1, 85, 0
2, 58680, Note_on_c, 1, 34, 127
2, 58680, Note_on_c, 1, 74, 127
2, 58680, Note_on_c, 1, 77, 127
2, 58680, Note_on_c, 1, 82, 127
2, 58680, Note_on_c, 1, 86, 127
2, 58760, Note_off_c, 1, 34, 0
2, 58760, Note_on_c, 1, 53, 127
2, 58800, Note_off_c, 1, 53, 0
2, 58800, Note_off_c, 1, 74, 0
2, 58800, Note_off_c, 1, 77, 0
2, 58800, Note_off_c, 1, 82, 0
2, 58800, Note_off_c, 1, 86, 0
2, 58840, Note_on_c, 1, 53, 127
2, 58840, Note_on_c, 1, 58, 127
2, 58840, Note_on_c, 1, 65, 127
2, 58840, Note_on_c, 1, 68, 127
2, 58840, Note_on_c, 1, 70, 127
2, 58840, Note_on_c, 1, 80, 127
2, 59000, Note_off_c, 1, 53, 0
2, 59000, Note_off_c, 1, 58, 0
2, 59000, Note_off_c, 1, 65, 0
2, 59000, Note_off_c, 1, 68, 0
2, 59000, Note_off_c, 1, 70, 0
2, 59000, Note_off_c, 1, 80, 0
2, 59040, Note_on_c, 1, 55, 127
2, 59040, Note_on_c, 1, 58, 127
2, 59040, Note_on_c, 1, 67, 127
2, 59040, Note_on_c, 1, 70, 127
2, 59040, Note_on_c, 1, 82, 127
2, 59160, Note_off_c, 1, 55, 0
2, 59160, Note_off_c, 1, 58, 0
2, 59160, Note_off_c, 1, 67, 0
2, 59160, Note_off_c, 1, 70, 0
2, 59160, Note_off_c, 1, 82, 0
2, 59240, Note_on_c, 1, 48, 127
2, 59240, Note_on_c, 1, 60, 127
2, 59240, Note_on_c, 1, 63, 127
2, 59240, Note_on_c, 1, 67, 127
2, 59240, Note_on_c, 1, 75, 127
2, 59560, Note_off_c, 1, 48, 0
2, 59560, Note_off_c, 1, 60, 0
2, 59560, Note_off_c, 1, 63, 0
2, 59560, Note_off_c, 1, 67, 0
2, 59560, Note_off_c, 1, 75, 0
2, 59560, Note_on_c, 1, 80, 127
2, 59560, Note_on_c, 1, 88, 127
2, 59560, Note_on_c, 1, 92, 127
2, 59600, Note_on_c, 1, 72, 127
2, 59600, Note_on_c, 1, 74, 127
2, 59600, Note_on_c, 1, 79, 127
2, 59600, Note_off_c, 1, 80, 0
2, 59600, Note_off_c, 1, 88, 0
2, 59600, Note_on_c, 1, 89, 127
2, 59600, Note_on_c, 1, 91, 127
2, 59600, Note_off_c, 1, 92, 0
2, 59600, Note_on_c, 1, 95, 127
2, 59640, Note_on_c, 1, 63, 127
2, 59640, Note_off_c, 1, 72, 0
2, 59640, Note_off_c, 1, 74, 0
2, 59640, Note_on_c, 1, 76, 127
2, 59640, Note_off_c, 1, 79, 0
2, 59640, Note_on_c, 1, 81, 127
2, 59640, Note_on_c, 1, 88, 127
2, 59640, Note_off_c, 1, 89, 0
2, 59640, Note_off_c, 1, 91, 0
2, 59640, Note_off_c, 1, 95, 0
2, 59680, Note_off_c, 1, 63, 0
2, 59680, Note_on_c, 1, 72, 127
2, 59680, Note_on_c, 1, 74, 127
2, 59680, Note_off_c, 1, 76, 0
2, 59680, Note_on_c, 1, 79, 127
2, 59680, Note_off_c, 1, 81, 0
2, 59680, Note_off_c, 1, 88, 0
2, 59680, Note_on_c, 1, 89, 127
2, 59680, Note_on_c, 1, 91, 127
2, 59680, Note_on_c, 1, 95, 127
2, 59720, Note_off_c, 1, 72, 0
2, 59720, Note_off_c, 1, 74, 0
2, 59720, Note_off_c, 1, 79, 0
2, 59720, Note_off_c, 1, 89, 0
2, 59720, Note_off_c, 1, 91, 0
2, 59720, Note_off_c, 1, 95, 0
2, 59760, Note_on_c, 1, 46, 127
2, 59760, Note_on_c, 1, 58, 127
2, 59760, Note_on_c, 1, 73, 127
2, 59760, Note_on_c, 1, 85, 127
2, 59920, Note_off_c, 1, 46, 0
2, 59920, Note_off_c, 1, 58, 0
2, 59920, Note_off_c, 1, 73, 0
2, 59920, Note_off_c, 1, 85, 0
2, 59960, Note_on_c, 1, 46, 127
2, 59960, Note_on_c, 1, 58, 127
2, 59960, Note_on_c, 1, 68, 127
2, 59960, Note_on_c, 1, 73, 127
2, 59960, Note_on_c, 1, 77, 127
2, 60080, Note_off_c, 1, 46, 0
2, 60080, Note_off_c, 1, 58, 0
2, 60080, Note_off_c, 1, 68, 0
2, 60080, Note_off_c, 1, 73, 0
2, 60080, Note_off_c, 1, 77, 0
2, 60120, Note_on_c, 1, 46, 127
2, 60120, Note_on_c, 1, 58, 127
2, 60120, Note_on_c, 1, 68, 127
2, 60120, Note_on_c, 1, 73, 127
2, 60120, Note_on_c, 1, 77, 127
2, 60240, Note_off_c, 1, 46, 0
2, 60240, Note_off_c, 1, 58, 0
2, 60240, Note_off_c, 1, 68, 0
2, 60240, Note_off_c, 1, 73, 0
2, 60240, Note_off_c, 1, 77, 0
2, 60320, Note_on_c, 1, 41, 127
2, 60320, Note_on_c, 1, 53, 127
2, 60320, Note_on_c, 1, 68, 127
2, 60320, Note_on_c, 1, 72, 127
2, 60320, Note_on_c, 1, 80, 127
2, 60440, Note_off_c, 1, 41, 0
2, 60440, Note_off_c, 1, 53, 0
2, 60440, Note_off_c, 1, 68, 0
2, 60440, Note_off_c, 1, 72, 0
2, 60440, Note_off_c, 1, 80, 0
2, 60480, Note_on_c, 1, 41, 127
2, 60480, Note_on_c, 1, 53, 127
2, 60480, Note_on_c, 1, 86, 127
2, 60480, Note_on_c, 1, 98, 127
2, 60600, Note_off_c, 1, 41, 0
2, 60600, Note_off_c, 1, 53, 0
2, 60600, Note_off_c, 1, 86, 0
2, 60600, Note_off_c, 1, 98, 0
2, 60640, Note_on_c, 1, 53, 127
2, 60640, Note_on_c, 1, 65, 127
2, 60640, Note_on_c, 1, 73, 127
2, 60640, Note_on_c, 1, 85, 127
2, 60760, Note_on_c, 1, 52, 127
2, 60760, Note_off_c, 1, 53, 0
2, 60760, Note_on_c, 1, 64, 127
2, 60760, Note_off_c, 1, 65, 0
2, 60760, Note_on_c, 1, 68, 127
2, 60760, Note_off_c, 1, 73, 0
2, 60760, Note_on_c, 1, 80, 127
2, 60760, Note_off_c, 1, 85, 0
2, 60800, Note_off_c, 1, 52, 0
2, 60800, Note_off_c, 1, 64, 0
2, 60800, Note_off_c, 1, 68, 0
2, 60800, Note_off_c, 1, 80, 0
2, 60840, Note_on_c, 1, 45, 127
2, 60840, Note_on_c, 1, 57, 127
2, 60840, Note_on_c, 1, 69, 127
2, 60840, Note_on_c, 1, 74, 127
2, 60840, Note_on_c, 1, 78, 127
2, 60840, Note_on_c, 1, 81, 127
2, 60960, Note_off_c, 1, 45, 0
2, 60960, Note_off_c, 1, 57, 0
2, 60960, Note_off_c, 1, 69, 0
2, 60960, Note_off_c, 1, 74, 0
2, 60960, Note_off_c, 1, 78, 0
2, 60960, Note_off_c, 1, 81, 0
2, 61000, Note_on_c, 1, 53, 127
2, 61000, Note_on_c, 1, 65, 127
2, 61000, Note_on_c, 1, 73, 127
2, 61000, Note_on_c, 1, 80, 127
2, 61120, Note_off_c, 1, 53, 0
2, 61120, Note_off_c, 1, 65, 0
2, 61120, Note_off_c, 1, 73, 0
2, 61120, Note_off_c, 1, 80, 0
2, 61240, Note_on_c, 1, 44, 127
2, 61240, Note_on_c, 1, 56, 127
2, 61240, Note_on_c, 1, 68, 127
2, 61240, Note_on_c, 1, 76, 127
2, 61360, Note_off_c, 1, 44, 0
2, 61360, Note_off_c, 1, 56, 0
2, 61360, Note_off_c, 1, 68, 0
2, 61360, Note_off_c, 1, 76, 0
2, 61400, Note_on_c, 1, 46, 127
2, 61400, Note_on_c, 1, 58, 127
2, 61400, Note_on_c, 1, 65, 127
2, 61400, Note_on_c, 1, 74, 127
2, 61400, Note_on_c, 1, 77, 127
2, 61520, Note_off_c, 1, 46, 0
2, 61520, Note_off_c, 1, 58, 0
2, 61520, Note_off_c, 1, 65, 0
2, 61520, Note_off_c, 1, 74, 0
2, 61520, Note_off_c, 1, 77, 0
2, 61760, Note_on_c, 1, 37, 127
2, 61760, Note_on_c, 1, 49, 127
2, 61760, Note_on_c, 1, 68, 127
2, 61760, Note_on_c, 1, 73, 127
2, 61760, Note_on_c, 1, 80, 127
2, 62080, Note_off_c, 1, 68, 0
2, 62080, Note_off_c, 1, 73, 0
2, 62080, Note_off_c, 1, 80, 0
2, 62120, Note_on_c, 1, 66, 127
2, 62120, Note_on_c, 1, 78, 127
2, 62240, Note_off_c, 1, 66, 0
2, 62240, Note_on_c, 1, 68, 127
2, 62240, Note_on_c, 1, 73, 127
2, 62240, Note_off_c, 1, 78, 0
2, 62280, Note_on_c, 1, 66, 127
2, 62280, Note_off_c, 1, 68, 0
2, 62280, Note_off_c, 1, 73, 0
2, 62280, Note_on_c, 1, 78, 127
2, 62400, Note_off_c, 1, 37, 0
2, 62400, Note_off_c, 1, 49, 0
2, 62400, Note_off_c, 1, 66, 0
2, 62400, Note_off_c, 1, 78, 0
2, 62440, Note_on_c, 1, 37, 127
2, 62440, Note_on_c, 1, 49, 127
2, 62440, Note_on_c, 1, 66, 127
2, 62440, Note_on_c, 1, 78, 127
2, 62600, Note_off_c, 1, 37, 0
2, 62600, Note_off_c, 1, 49, 0
2, 62600, Note_off_c, 1, 66, 0
2, 62600, Note_off_c, 1, 78, 0
2, 62640, Note_on_c, 1, 37, 127
2, 62640, Note_on_c, 1, 49, 127
2, 62640, Note_on_c, 1, 66, 127
2, 62640, Note_on_c, 1, 78, 127
2, 62760, Note_off_c, 1, 66, 0
2, 62760, Note_on_c, 1, 73, 127
2, 62760, Note_off_c, 1, 78, 0
2, 62800, Note_on_c, 1, 66, 127
2, 62800, Note_off_c, 1, 73, 0
2, 62800, Note_on_c, 1, 78, 127
2, 62920, Note_off_c, 1, 37, 0
2, 62920, Note_off_c, 1, 49, 0
2, 62920, Note_off_c, 1, 66, 0
2, 62920, Note_off_c, 1, 78, 0
2, 62960, Note_on_c, 1, 40, 127
2, 62960, Note_on_c, 1, 52, 127
2, 62960, Note_on_c, 1, 71, 127
2, 62960, Note_on_c, 1, 76, 127
2, 62960, Note_on_c, 1, 80, 127
2, 62960, Note_on_c, 1, 83, 127
2, 63080, Note_off_c, 1, 40, 0
2, 63080, Note_off_c, 1, 52, 0
2, 63080, Note_off_c, 1, 71, 0
2, 63080, Note_off_c, 1, 76, 0
2, 63080, Note_off_c, 1, 80, 0
2, 63080, Note_off_c, 1, 83, 0
2, 63160, Note_on_c, 1, 43, 127
2, 63160, Note_on_c, 1, 55, 127
2, 63160, Note_on_c, 1, 72, 127
2, 63160, Note_on_c, 1, 80, 127
2, 63160, Note_on_c, 1, 84, 127
2, 63200, Note_off_c, 1, 43, 0
2, 63200, Note_off_c, 1, 55, 0
2, 63200, Note_off_c, 1, 72, 0
2, 63200, Note_off_c, 1, 80, 0
2, 63200, Note_off_c, 1, 84, 0
2, 63240, Note_on_c, 1, 43, 127
2, 63240, Note_on_c, 1, 55, 127
2, 63280, Note_on_c, 1, 38, 127
2, 63280, Note_off_c, 1, 43, 0
2, 63280, Note_on_c, 1, 50, 127
2, 63280, Note_off_c, 1, 55, 0
2, 63280, Note_on_c, 1, 83, 127
2, 63280, Note_on_c, 1, 91, 127
2, 63280, Note_on_c, 1, 95, 127
2, 63320, Note_off_c, 1, 38, 0
2, 63320, Note_off_c, 1, 50, 0
2, 63320, Note_off_c, 1, 83, 0
2, 63320, Note_off_c, 1, 91, 0
2, 63320, Note_off_c, 1, 95, 0
2, 63360, Note_on_c, 1, 63, 127
2, 63360, Note_on_c, 1, 79, 127
2, 63360, Note_on_c, 1, 86, 127
2, 63360, Note_on_c, 1, 94, 127
2, 63400, Note_on_c, 1, 33, 127
2, 63400, Note_on_c, 1, 36, 127
2, 63400, Note_on_c, 1, 41, 127
2, 63400, Note_on_c, 1, 45, 127
2, 63400, Note_on_c, 1, 57, 127
2, 63400, Note_off_c, 1, 63, 0
2, 63400, Note_off_c, 1, 79, 0
2, 63400, Note_off_c, 1, 86, 0
2, 63400, Note_off_c, 1, 94, 0
2, 63440, Note_off_c, 1, 33, 0
2, 63440, Note_off_c, 1, 36, 0
2, 63440, Note_off_c, 1, 41, 0
2, 63440, Note_off_c, 1, 45, 0
2, 63440, Note_off_c, 1, 57, 0
2, 63440, Note_on_c, 1, 79, 127
2, 63440, Note_on_c, 1, 82, 127
2, 63440, Note_on_c, 1, 85, 127
2, 63440, Note_on_c, 1, 88, 127
2, 63440, Note_on_c, 1, 91, 127
2, 63440, Note_on_c, 1, 94, 127
2, 63440, Note_on_c, 1, 97, 127
2, 63440, Note_on_c, 1, 100, 127
2, 63440, Note_on_c, 1, 106, 127
2, 63480, Note_on_c, 1, 57, 127
2, 63480, Note_on_c, 1, 69, 127
2, 63480, Note_off_c, 1, 79, 0
2, 63480, Note_off_c, 1, 82, 0
2, 63480, Note_on_c, 1, 84, 127
2, 63480, Note_off_c, 1, 85, 0
2, 63480, Note_off_c, 1, 88, 0
2, 63480, Note_off_c, 1, 91, 0
2, 63480, Note_off_c, 1, 94, 0
2, 63480, Note_on_c, 1, 96, 127
2, 63480, Note_off_c, 1, 97, 0
2, 63480, Note_off_c, 1, 100, 0
2, 63480, Note_off_c, 1, 106, 0
2, 63520, Note_off_c, 1, 57, 0
2, 63520, Note_off_c, 1, 69, 0
2, 63520, Note_off_c, 1, 84, 0
2, 63520, Note_off_c, 1, 96, 0
2, 63560, Note_on_c, 1, 69, 127
2, 63560, Note_on_c, 1, 77, 127
2, 63560, Note_on_c, 1, 101, 127
2, 63600, Note_on_c, 1, 50, 127
2, 63600, Note_on_c, 1, 62, 127
2, 63600, Note_off_c, 1, 69, 0
2, 63600, Note_on_c, 1, 72, 127
2, 63600, Note_on_c, 1, 81, 127
2, 63600, Note_on_c, 1, 84, 127
2, 63600, Note_off_c, 1, 101, 0
2, 63640, Note_on_c, 1, 27, 127
2, 63640, Note_off_c, 1, 50, 0
2, 63640, Note_on_c, 1, 51, 127
2, 63640, Note_on_c, 1, 55, 127
2, 63640, Note_on_c, 1, 58, 127
2, 63640, Note_off_c, 1, 62, 0
2, 63640, Note_off_c, 1, 72, 0
2, 63640, Note_off_c, 1, 77, 0
2, 63640, Note_off_c, 1, 81, 0
2, 63640, Note_off_c, 1, 84, 0
2, 63680, Note_off_c, 1, 27, 0
2, 63680, Note_off_c, 1, 51, 0
2, 63680, Note_off_c, 1, 55, 0
2, 63680, Note_off_c, 1, 58, 0
2, 63720, Note_on_c, 1, 53, 127
2, 63720, Note_on_c, 1, 56, 127
2, 63720, Note_on_c, 1, 72, 127
2, 63720, Note_on_c, 1, 84, 127
2, 63840, Note_off_c, 1, 53, 0
2, 63840, Note_off_c, 1, 56, 0
2, 63840, Note_off_c, 1, 72, 0
2, 63840, Note_off_c, 1, 84, 0
2, 63880, Note_on_c, 1, 33, 127
2, 63880, Note_on_c, 1, 45, 127
2, 63880, Note_on_c, 1, 71, 127
2, 63880, Note_on_c, 1, 76, 127
2, 63880, Note_on_c, 1, 83, 127
2, 63920, Note_off_c, 1, 33, 0
2, 63920, Note_on_c, 1, 40, 127
2, 63920, Note_off_c, 1, 45, 0
2, 63920, Note_on_c, 1, 52, 127
2, 63920, Note_off_c, 1, 71, 0
2, 63920, Note_on_c, 1, 74, 127
2, 63920, Note_off_c, 1, 76, 0
2, 63920, Note_off_c, 1, 83, 0
2, 63920, Note_on_c, 1, 86, 127
2, 63960, Note_on_c, 1, 33, 127
2, 63960, Note_off_c, 1, 40, 0
2, 63960, Note_on_c, 1, 45, 127
2, 63960, Note_off_c, 1, 52, 0
2, 63960, Note_on_c, 1, 72, 127
2, 63960, Note_off_c, 1, 74, 0
2, 63960, Note_on_c, 1, 84, 127
2, 63960, Note_off_c, 1, 86, 0
2, 64000, Note_off_c, 1, 33, 0
2, 64000, Note_off_c, 1, 45, 0
2, 64000, Note_off_c, 1, 72, 0
2, 64000, Note_off_c, 1, 84, 0
2, 64080, Note_on_c, 1, 39, 127
2, 64080, Note_on_c, 1, 51, 127
2, 64080, Note_on_c, 1, 84, 127
2, 64080, Note_on_c, 1, 96, 127
2, 64200, Note_off_c, 1, 39, 0
2, 64200, Note_off_c, 1, 51, 0
2, 64200, Note_off_c, 1, 84, 0
2, 64200, Note_off_c, 1, 96, 0
2, 64240, Note_on_c, 1, 49, 127
2, 64240, Note_on_c, 1, 55, 127
2, 64240, Note_on_c, 1, 61, 127
2, 64240, Note_on_c, 1, 63, 127
2, 64240, Note_on_c, 1, 67, 127
2, 64240, Note_on_c, 1, 70, 127
2, 64360, Note_off_c, 1, 49, 0
2, 64360, Note_off_c, 1, 55, 0
2, 64360, Note_off_c, 1, 61, 0
2, 64360, Note_off_c, 1, 63, 0
2, 64360, Note_off_c, 1, 67, 0
2, 64360, Note_off_c, 1, 70, 0
2, 64400, Note_on_c, 1, 59, 127
2, 64400, Note_on_c, 1, 70, 127
2, 64400, Note_on_c, 1, 73, 127
2, 64400, Note_on_c, 1, 78, 127
2, 64520, Note_off_c, 1, 59, 0
2, 64520, Note_off_c, 1, 70, 0
2, 64520, Note_off_c, 1, 73, 0
2, 64520, Note_off_c, 1, 78, 0
2, 64600, Note_on_c, 1, 47, 127
2, 64600, Note_on_c, 1, 59, 127
2, 64600, Note_on_c, 1, 80, 127
2, 64600, Note_on_c, 1, 85, 127
2, 64600, Note_on_c, 1, 89, 127
2, 64600, Note_on_c, 1, 92, 127
2, 64720, Note_off_c, 1, 47, 0
2, 64720, Note_off_c, 1, 59, 0
2, 64720, Note_on_c, 1, 62, 127
2, 64720, Note_on_c, 1, 67, 127
2, 64720, Note_on_c, 1, 70, 127
2, 64720, Note_off_c, 1, 80, 0
2, 64720, Note_off_c, 1, 85, 0
2, 64720, Note_off_c, 1, 89, 0
2, 64720, Note_off_c, 1, 92, 0
2, 64760, Note_on_c, 1, 50, 127
2, 64760, Note_on_c, 1, 52, 127
2, 64760, Note_on_c, 1, 56, 127
2, 64760, Note_off_c, 1, 62, 0
2, 64760, Note_off_c, 1, 67, 0
2, 64760, Note_off_c, 1, 70, 0
2, 64760, Note_on_c, 1, 76, 127
2, 64800, Note_on_c, 1, 48, 127
2, 64800, Note_off_c, 1, 50, 0
2, 64800, Note_off_c, 1, 52, 0
2, 64800, Note_off_c, 1, 56, 0
2, 64800, Note_on_c, 1, 59, 127
2, 64800, Note_on_c, 1, 67, 127
2, 64800, Note_on_c, 1, 72, 127
2, 64840, Note_off_c, 1, 48, 0
2, 64840, Note_off_c, 1, 59, 0
2, 64840, Note_on_c, 1, 62, 127
2, 64840, Note_off_c, 1, 67, 0
2, 64840, Note_on_c, 1, 68, 127
2, 64840, Note_on_c, 1, 71, 127
2, 64840, Note_off_c, 1, 72, 0
2, 64840, Note_on_c, 1, 85, 127
2, 64880, Note_off_c, 1, 62, 0
2, 64880, Note_off_c, 1, 68, 0
2, 64880, Note_off_c, 1, 71, 0
2, 64880, Note_off_c, 1, 76, 0
2, 64880, Note_off_c, 1, 85, 0
2, 64920, Note_on_c, 1, 53, 127
2, 64920, Note_on_c, 1, 69, 127
2, 64920, Note_on_c, 1, 72, 127
2, 64920, Note_on_c, 1, 75, 127
2, 64920, Note_on_c, 1, 77, 127
2, 65040, Note_off_c, 1, 53, 0
2, 65040, Note_off_c, 1, 69, 0
2, 65040, Note_off_c, 1, 72, 0
2, 65040, Note_off_c, 1, 75, 0
2, 65040, Note_off_c, 1, 77, 0
2, 65160, Note_on_c, 1, 36, 127
2, 65160, Note_on_c, 1, 48, 127
2, 65160, Note_on_c, 1, 68, 127
2, 65160, Note_on_c, 1, 77, 127
2, 65160, Note_on_c, 1, 80, 127
2, 65280, Note_off_c, 1, 36, 0
2, 65280, Note_off_c, 1, 48, 0
2, 65280, Note_off_c, 1, 68, 0
2, 65280, Note_off_c, 1, 77, 0
2, 65280, Note_off_c, 1, 80, 0
2, 65320, Note_on_c, 1, 36, 127
2, 65320, Note_on_c, 1, 48, 127
2, 65320, Note_on_c, 1, 68, 127
2, 65320, Note_on_c, 1, 77, 127
2, 65320, Note_on_c, 1, 80, 127
2, 65440, Note_off_c, 1, 36, 0
2, 65440, Note_off_c, 1, 48, 0
2, 65440, Note_off_c, 1, 68, 0
2, 65440, Note_off_c, 1, 77, 0
2, 65440, Note_off_c, 1, 80, 0
2, 65480, Note_on_c, 1, 53, 127
2, 65480, Note_on_c, 1, 61, 127
2, 65480, Note_on_c, 1, 64, 127
2, 65480, Note_on_c, 1, 70, 127
2, 65480, Note_on_c, 1, 73, 127
2, 65480, Note_on_c, 1, 76, 127
2, 65480, Note_on_c, 1, 79, 127
2, 66480, Note_off_c, 1, 53, 0
2, 66480, Note_off_c, 1, 61, 0
2, 66480, Note_off_c, 1, 64, 0
2, 66480, Note_off_c, 1, 70, 0
2, 66480, Note_off_c, 1, 73, 0
2, 66480, Note_off_c, 1, 76, 0
2, 66480, Note_off_c, 1, 79, 0
2, 66520, Note_on_c, 1, 53, 127
2, 66520, Note_on_c, 1, 61, 127
2, 66520, Note_on_c, 1, 64, 127
2, 66520, Note_on_c, 1, 70, 127
2, 66520, Note_on_c, 1, 73, 127
2, 66520, Note_on_c, 1, 76, 127
2, 66520, Note_on_c, 1, 79, 127
2, 67200, Note_on_c, 1, 52, 127
2, 67200, Note_off_c, 1, 53, 0
2, 67200, Note_off_c, 1, 61, 0
2, 67200, Note_off_c, 1, 64, 0
2, 67200, Note_off_c, 1, 70, 0
2, 67200, Note_off_c, 1, 73, 0
2, 67200, Note_off_c, 1, 76, 0
2, 67200, Note_off_c, 1, 79, 0
2, 67240, Note_off_c, 1, 52, 0
2, 67280, Note_on_c, 1, 52, 127
2, 67280, Note_on_c, 1, 57, 127
2, 67280, Note_on_c, 1, 60, 127
2, 67280, Note_on_c, 1, 72, 127
2, 67280, Note_on_c, 1, 81, 127
2, 67280, Note_on_c, 1, 84, 127
2, 67560, Note_off_c, 1, 52, 0
2, 67560, Note_off_c, 1, 57, 0
2, 67560, Note_off_c, 1, 60, 0
2, 67560, Note_off_c, 1, 72, 0
2, 67560, Note_off_c, 1, 81, 0
2, 67560, Note_off_c, 1, 84, 0
2, 67600, Note_on_c, 1, 49, 127
2, 67600, Note_on_c, 1, 61, 127
2, 67600, Note_on_c, 1, 70, 127
2, 67600, Note_on_c, 1, 73, 127
2, 67600, Note_on_c, 1, 79, 127
2, 67600, Note_on_c, 1, 82, 127
2, 67720, Note_on_c, 1, 32, 127
2, 67720, Note_on_c, 1, 39, 127
2, 67720, Note_on_c, 1, 44, 127
2, 67720, Note_off_c, 1, 49, 0
2, 67720, Note_off_c, 1, 61, 0
2, 67720, Note_off_c, 1, 70, 0
2, 67720, Note_on_c, 1, 72, 127
2, 67720, Note_off_c, 1, 73, 0
2, 67720, Note_off_c, 1, 79, 0
2, 67720, Note_off_c, 1, 82, 0
2, 67720, Note_on_c, 1, 84, 127
2, 67760, Note_off_c, 1, 32, 0
2, 67760, Note_off_c, 1, 39, 0
2, 67760, Note_off_c, 1, 44, 0
2, 67760, Note_on_c, 1, 49, 127
2, 67760, Note_on_c, 1, 61, 127
2, 67760, Note_on_c, 1, 70, 127
2, 67760, Note_off_c, 1, 72, 0
2, 67760, Note_on_c, 1, 73, 127
2, 67760, Note_on_c, 1, 79, 127
2, 67760, Note_on_c, 1, 82, 127
2, 67760, Note_off_c, 1, 84, 0
2, 67920, Note_on_c, 1, 31, 127
2, 67920, Note_on_c, 1, 43, 127
2, 67920, Note_off_c, 1, 49, 0
2, 67920, Note_off_c, 1, 61, 0
2, 67920, Note_on_c, 1, 62, 127
2, 67920, Note_on_c, 1, 67, 127
2, 67920, Note_off_c, 1, 70, 0
2, 67920, Note_on_c, 1, 71, 127
2, 67920, Note_off_c, 1, 73, 0
2, 67920, Note_off_c, 1, 79, 0
2, 67920, Note_off_c, 1, 82, 0
2, 67960, Note_off_c, 1, 31, 0
2, 67960, Note_on_c, 1, 39, 127
2, 67960, Note_off_c, 1, 43, 0
2, 67960, Note_on_c, 1, 45, 127
2, 67960, Note_on_c, 1, 51, 127
2, 67960, Note_on_c, 1, 56, 127
2, 67960, Note_on_c, 1, 59, 127
2, 67960, Note_off_c, 1, 62, 0
2, 67960, Note_off_c, 1, 67, 0
2, 67960, Note_off_c, 1, 71, 0
2, 67960, Note_on_c, 1, 72, 127
2, 67960, Note_on_c, 1, 78, 127
2, 67960, Note_on_c, 1, 84, 127
2, 68000, Note_off_c, 1, 39, 0
2, 68000, Note_off_c, 1, 45, 0
2, 68000, Note_off_c, 1, 51, 0
2, 68000, Note_off_c, 1, 56, 0
2, 68000, Note_on_c, 1, 58, 127
2, 68000, Note_off_c, 1, 59, 0
2, 68000, Note_on_c, 1, 70, 127
2, 68000, Note_off_c, 1, 72, 0
2, 68000, Note_on_c, 1, 75, 127
2, 68000, Note_off_c, 1, 78, 0
2, 68000, Note_off_c, 1, 84, 0
2, 68000, Note_on_c, 1, 85, 127
2, 68040, Note_on_c, 1, 31, 127
2, 68040, Note_on_c, 1, 43, 127
2, 68040, Note_off_c, 1, 58, 0
2, 68040, Note_on_c, 1, 62, 127
2, 68040, Note_on_c, 1, 67, 127
2, 68040, Note_off_c, 1, 70, 0
2, 68040, Note_on_c, 1, 71, 127
2, 68040, Note_off_c, 1, 75, 0
2, 68040, Note_off_c, 1, 85, 0
2, 68080, Note_off_c, 1, 31, 0
2, 68080, Note_off_c, 1, 43, 0
2, 68080, Note_off_c, 1, 62, 0
2, 68080, Note_on_c, 1, 64, 127
2, 68080, Note_off_c, 1, 67, 0
2, 68080, Note_on_c, 1, 68, 127
2, 68080, Note_off_c, 1, 71, 0
2, 68080, Note_on_c, 1, 93, 127
2, 68120, Note_on_c, 1, 52, 127
2, 68120, Note_on_c, 1, 59, 127
2, 68120, Note_off_c, 1, 64, 0
2, 68120, Note_on_c, 1, 67, 127
2, 68120, Note_off_c, 1, 68, 0
2, 68120, Note_on_c, 1, 71, 127
2, 68120, Note_on_c, 1, 76, 127
2, 68120, Note_on_c, 1, 79, 127
2, 68120, Note_off_c, 1, 93, 0
2, 68240, Note_off_c, 1, 52, 0
2, 68240, Note_off_c, 1, 59, 0
2, 68240, Note_off_c, 1, 67, 0
2, 68240, Note_off_c, 1, 71, 0
2, 68240, Note_off_c, 1, 76, 0
2, 68240, Note_off_c, 1, 79, 0
2, 68280, Note_on_c, 1, 66, 127
2, 68280, Note_on_c, 1, 68, 127
2, 68280, Note_on_c, 1, 72, 127
2, 68280, Note_on_c, 1, 78, 127
2, 68560, Note_on_c, 1, 49, 127
2, 68560, Note_on_c, 1, 61, 127
2, 68560, Note_off_c, 1, 66, 0
2, 68560, Note_off_c, 1, 68, 0
2, 68560, Note_on_c, 1, 69, 127
2, 68560, Note_off_c, 1, 72, 0
2, 68560, Note_on_c, 1, 77, 127
2, 68560, Note_off_c, 1, 78, 0
2, 68560, Note_on_c, 1, 81, 127
2, 68600, Note_off_c, 1, 49, 0
2, 68600, Note_off_c, 1, 61, 0
2, 68600, Note_off_c, 1, 69, 0
2, 68600, Note_off_c, 1, 77, 0
2, 68600, Note_off_c, 1, 81, 0
2, 68640, Note_on_c, 1, 63, 127
2, 68640, Note_on_c, 1, 68, 127
2, 68640, Note_on_c, 1, 72, 127
2, 68760, Note_off_c, 1, 63, 0
2, 68760, Note_off_c, 1, 68, 0
2, 68760, Note_off_c, 1, 72, 0
2, 68800, Note_on_c, 1, 63, 127
2, 68800, Note_on_c, 1, 68, 127
2, 68800, Note_on_c, 1, 72, 127
2, 68960, Note_off_c, 1, 63, 0
2, 68960, Note_off_c, 1, 68, 0
2, 68960, Note_off_c, 1, 72, 0
2, 69000, Note_on_c, 1, 61, 127
2, 69000, Note_on_c, 1, 65, 127
2, 69000, Note_on_c, 1, 68, 127
2, 69000, Note_on_c, 1, 72, 127
2, 69280, Note_on_c, 1, 70, 127
2, 69280, Note_off_c, 1, 72, 0
2, 69320, Note_off_c, 1, 70, 0
2, 69320, Note_on_c, 1, 72, 127
2, 69360, Note_off_c, 1, 61, 0
2, 69360, Note_off_c, 1, 65, 0
2, 69360, Note_off_c, 1, 68, 0
2, 69360, Note_off_c, 1, 72, 0
2, 69400, Note_on_c, 1, 61, 127
2, 69400, Note_on_c, 1, 65, 127
2, 69400, Note_on_c, 1, 68, 127
2, 69400, Note_on_c, 1, 72, 127
2, 69560, Note_on_c, 1, 44, 127
2, 69560, Note_on_c, 1, 49, 127
2, 69560, Note_off_c, 1, 61, 0
2, 69600, Note_off_c, 1, 44, 0
2, 69600, Note_off_c, 1, 49, 0
2, 69600, Note_on_c, 1, 61, 127
2, 69640, Note_on_c, 1, 59, 127
2, 69640, Note_off_c, 1, 61, 0
2, 69640, Note_off_c, 1, 68, 0
2, 69640, Note_on_c, 1, 70, 127
2, 69640, Note_off_c, 1, 72, 0
2, 69640, Note_on_c, 1, 77, 127
2, 69640, Note_on_c, 1, 86, 127
2, 69640, Note_on_c, 1, 89, 127
2, 69680, Note_off_c, 1, 59, 0
2, 69680, Note_off_c, 1, 65, 0
2, 69680, Note_off_c, 1, 70, 0
2, 69680, Note_off_c, 1, 77, 0
2, 69680, Note_off_c, 1, 86, 0
2, 69680, Note_off_c, 1, 89, 0
2, 69720, Note_on_c, 1, 60, 127
2, 69720, Note_on_c, 1, 65, 127
2, 69720, Note_on_c, 1, 69, 127
2, 69880, Note_off_c, 1, 60, 0
2, 69880, Note_off_c, 1, 65, 0
2, 69880, Note_off_c, 1, 69, 0
2, 70080, Note_on_c, 1, 61, 127
2, 70080, Note_on_c, 1, 66, 127
2, 70080, Note_on_c, 1, 70, 127
2, 70200, Note_off_c, 1, 61, 0
2, 70200, Note_off_c, 1, 66, 0
2, 70200, Note_off_c, 1, 70, 0
2, 70280, Note_on_c, 1, 60, 127
2, 70280, Note_on_c, 1, 63, 127
2, 70280, Note_on_c, 1, 68, 127
2, 70320, Note_off_c, 1, 60, 0
2, 70320, Note_off_c, 1, 63, 0
2, 70320, Note_off_c, 1, 68, 0
2, 70440, Note_on_c, 1, 60, 127
2, 70440, Note_on_c, 1, 63, 127
2, 70440, Note_on_c, 1, 68, 127
2, 70680, Note_off_c, 1, 60, 0
2, 70680, Note_off_c, 1, 63, 0
2, 70680, Note_off_c, 1, 68, 0
2, 70800, Note_on_c, 1, 63, 127
2, 70800, Note_on_c, 1, 68, 127
2, 70800, Note_on_c, 1, 72, 127
2, 71080, Note_off_c, 1, 63, 0
2, 71080, Note_off_c, 1, 68, 0
2, 71080, Note_off_c, 1, 72, 0
2, 71160, Note_on_c, 1, 63, 127
2, 71160, Note_on_c, 1, 68, 127
2, 71160, Note_on_c, 1, 72, 127
2, 71280, Note_off_c, 1, 72, 0
2, 71320, Note_on_c, 1, 72, 127
2, 71320, Note_on_c, 1, 80, 127
2, 71440, Note_off_c, 1, 63, 0
2, 71440, Note_off_c, 1, 68, 0
2, 71440, Note_off_c, 1, 72, 0
2, 71440, Note_off_c, 1, 80, 0
2, 71560, Note_on_c, 1, 63, 127
2, 71560, Note_on_c, 1, 68, 127
2, 71560, Note_on_c, 1, 72, 127
2, 71560, Note_on_c, 1, 80, 127
2, 71800, Note_off_c, 1, 63, 0
2, 71800, Note_off_c, 1, 68, 0
2, 71800, Note_off_c, 1, 72, 0
2, 71800, Note_off_c, 1, 80, 0
2, 71880, Note_on_c, 1, 63, 127
2, 71880, Note_on_c, 1, 68, 127
2, 71880, Note_on_c, 1, 72, 127
2, 72000, Note_off_c, 1, 63, 0
2, 72000, Note_off_c, 1, 68, 0
2, 72000, Note_off_c, 1, 72, 0
2, 72080, Note_on_c, 1, 63, 127
2, 72080, Note_on_c, 1, 68, 127
2, 72080, Note_on_c, 1, 72, 127
2, 72160, Note_off_c, 1, 63, 0
2, 72160, Note_off_c, 1, 68, 0
2, 72160, Note_off_c, 1, 72, 0
2, 72240, Note_on_c, 1, 56, 127
2, 72240, Note_on_c, 1, 63, 127
2, 72240, Note_on_c, 1, 68, 127
2, 72240, Note_on_c, 1, 72, 127
2, 72520, Note_off_c, 1, 56, 0
2, 72520, Note_off_c, 1, 63, 0
2, 72520, Note_off_c, 1, 68, 0
2, 72520, Note_off_c, 1, 72, 0
2, 72600, Note_on_c, 1, 56, 127
2, 72600, Note_on_c, 1, 63, 127
2, 72600, Note_on_c, 1, 68, 127
2, 72600, Note_on_c, 1, 72, 127
2, 72920, Note_off_c, 1, 56, 0
2, 72920, Note_off_c, 1, 63, 0
2, 72920, Note_off_c, 1, 68, 0
2, 72920, Note_off_c, 1, 72, 0
2, 72960, Note_on_c, 1, 53, 127
2, 72960, Note_on_c, 1, 65, 127
2, 72960, Note_on_c, 1, 68, 127
2, 72960, Note_on_c, 1, 73, 127
2, 73240, Note_off_c, 1, 53, 0
2, 73240, Note_off_c, 1, 65, 0
2, 73240, Note_off_c, 1, 68, 0
2, 73240, Note_off_c, 1, 73, 0
2, 73320, Note_on_c, 1, 56, 127
2, 73320, Note_on_c, 1, 65, 127
2, 73320, Note_on_c, 1, 68, 127
2, 73320, Note_on_c, 1, 73, 127
2, 73560, Note_off_c, 1, 56, 0
2, 73560, Note_off_c, 1, 65, 0
2, 73560, Note_off_c, 1, 68, 0
2, 73560, Note_off_c, 1, 73, 0
2, 73640, Note_on_c, 1, 72, 127
2, 73640, Note_on_c, 1, 75, 127
2, 73640, Note_on_c, 1, 80, 127
2, 73680, Note_off_c, 1, 72, 0
2, 73680, Note_off_c, 1, 75, 0
2, 73680, Note_off_c, 1, 80, 0
2, 73720, Note_on_c, 1, 72, 127
2, 73720, Note_on_c, 1, 75, 127
2, 73720, Note_on_c, 1, 80, 127
2, 73880, Note_on_c, 1, 56, 127
2, 73960, Note_off_c, 1, 56, 0
2, 73960, Note_off_c, 1, 72, 0
2, 73960, Note_off_c, 1, 75, 0
2, 73960, Note_off_c, 1, 80, 0
2, 74040, Note_on_c, 1, 56, 127
2, 74040, Note_on_c, 1, 72, 127
2, 74040, Note_on_c, 1, 75, 127
2, 74040, Note_on_c, 1, 80, 127
2, 74320, Note_off_c, 1, 56, 0
2, 74320, Note_off_c, 1, 72, 0
2, 74320, Note_off_c, 1, 75, 0
2, 74320, Note_off_c, 1, 80, 0
2, 74400, Note_on_c, 1, 58, 127
2, 74400, Note_on_c, 1, 63, 127
2, 74400, Note_on_c, 1, 67, 127
2, 74400, Note_on_c, 1, 70, 127
2, 74400, Note_on_c, 1, 75, 127
2, 74400, Note_on_c, 1, 79, 127
2, 74680, Note_off_c, 1, 58, 0
2, 74680, Note_off_c, 1, 63, 0
2, 74680, Note_off_c, 1, 67, 0
2, 74680, Note_off_c, 1, 70, 0
2, 74680, Note_off_c, 1, 75, 0
2, 74680, Note_off_c, 1, 79, 0
2, 74720, Note_on_c, 1, 55, 127
2, 74720, Note_on_c, 1, 58, 127
2, 74720, Note_on_c, 1, 62, 127
2, 74720, Note_on_c, 1, 67, 127
2, 74720, Note_on_c, 1, 70, 127
2, 75000, Note_off_c, 1, 55, 0
2, 75000, Note_off_c, 1, 58, 0
2, 75000, Note_off_c, 1, 62, 0
2, 75000, Note_off_c, 1, 67, 0
2, 75000, Note_off_c, 1, 70, 0
2, 75080, Note_on_c, 1, 55, 127
2, 75080, Note_on_c, 1, 58, 127
2, 75080, Note_on_c, 1, 62, 127
2, 75080, Note_on_c, 1, 67, 127
2, 75080, Note_on_c, 1, 70, 127
2, 75360, Note_off_c, 1, 55, 0
2, 75360, Note_off_c, 1, 58, 0
2, 75360, Note_off_c, 1, 62, 0
2, 75360, Note_off_c, 1, 67, 0
2, 75360, Note_off_c, 1, 70, 0
2, 75440, Note_on_c, 1, 63, 127
2, 75440, Note_on_c, 1, 66, 127
2, 75440, Note_on_c, 1, 71, 127
2, 75440, Note_on_c, 1, 75, 127
2, 75440, Note_on_c, 1, 87, 127
2, 75560, Note_off_c, 1, 63, 0
2, 75560, Note_off_c, 1, 66, 0
2, 75560, Note_off_c, 1, 71, 0
2, 75560, Note_off_c, 1, 75, 0
2, 75560, Note_off_c, 1, 87, 0
2, 75600, Note_on_c, 1, 63, 127
2, 75600, Note_on_c, 1, 66, 127
2, 75600, Note_on_c, 1, 71, 127
2, 75600, Note_on_c, 1, 75, 127
2, 75600, Note_on_c, 1, 78, 127
2, 75680, Note_off_c, 1, 63, 0
2, 75680, Note_off_c, 1, 66, 0
2, 75680, Note_off_c, 1, 71, 0
2, 75680, Note_off_c, 1, 75, 0
2, 75680, Note_off_c, 1, 78, 0
2, 75720, Note_on_c, 1, 63, 127
2, 75720, Note_on_c, 1, 66, 127
2, 75720, Note_on_c, 1, 71, 127
2, 75720, Note_on_c, 1, 75, 127
2, 75720, Note_on_c, 1, 78, 127
2, 75760, Note_off_c, 1, 63, 0
2, 75760, Note_off_c, 1, 66, 0
2, 75760, Note_off_c, 1, 71, 0
2, 75760, Note_off_c, 1, 75, 0
2, 75760, Note_off_c, 1, 78, 0
2, 75840, Note_on_c, 1, 68, 127
2, 75840, Note_on_c, 1, 70, 127
2, 75840, Note_on_c, 1, 73, 127
2, 75840, Note_on_c, 1, 84, 127
2, 75960, Note_on_c, 1, 63, 127
2, 75960, Note_on_c, 1, 66, 127
2, 75960, Note_off_c, 1, 68, 0
2, 75960, Note_off_c, 1, 73, 0
2, 75960, Note_on_c, 1, 78, 127
2, 75960, Note_off_c, 1, 84, 0
2, 75960, Note_on_c, 1, 90, 127
2, 76000, Note_off_c, 1, 63, 0
2, 76000, Note_off_c, 1, 66, 0
2, 76000, Note_on_c, 1, 68, 127
2, 76000, Note_on_c, 1, 73, 127
2, 76000, Note_off_c, 1, 78, 0
2, 76000, Note_on_c, 1, 84, 127
2, 76000, Note_off_c, 1, 90, 0
2, 76120, Note_off_c, 1, 68, 0
2, 76120, Note_off_c, 1, 70, 0
2, 76120, Note_off_c, 1, 73, 0
2, 76120, Note_off_c, 1, 84, 0
2, 76200, Note_on_c, 1, 68, 127
2, 76200, Note_on_c, 1, 70, 127
2, 76200, Note_on_c, 1, 73, 127
2, 76200, Note_on_c, 1, 84, 127
2, 76320, Note_on_c, 1, 63, 127
2, 76320, Note_on_c, 1, 65, 127
2, 76320, Note_off_c, 1, 68, 0
2, 76320, Note_off_c, 1, 70, 0
2, 76320, Note_on_c, 1, 72, 127
2, 76320, Note_off_c, 1, 73, 0
2, 76320, Note_off_c, 1, 84, 0
2, 76360, Note_off_c, 1, 63, 0
2, 76360, Note_off_c, 1, 65, 0
2, 76360, Note_on_c, 1, 68, 127
2, 76360, Note_on_c, 1, 70, 127
2, 76360, Note_off_c, 1, 72, 0
2, 76360, Note_on_c, 1, 73, 127
2, 76360, Note_on_c, 1, 84, 127
2, 76480, Note_off_c, 1, 68, 0
2, 76480, Note_off_c, 1, 70, 0
2, 76480, Note_off_c, 1, 73, 0
2, 76520, Note_on_c, 1, 68, 127
2, 76520, Note_on_c, 1, 70, 127
2, 76520, Note_on_c, 1, 73, 127
2, 76800, Note_off_c, 1, 68, 0
2, 76800, Note_off_c, 1, 70, 0
2, 76800, Note_off_c, 1, 73, 0
2, 76840, Note_off_c, 1, 84, 0
2, 76880, Note_on_c, 1, 68, 127
2, 76880, Note_on_c, 1, 70, 127
2, 76880, Note_on_c, 1, 73, 127
2, 76880, Note_on_c, 1, 84, 127
2, 77160, Note_off_c, 1, 68, 0
2, 77160, Note_off_c, 1, 70, 0
2, 77160, Note_off_c, 1, 73, 0
2, 77200, Note_off_c, 1, 84, 0
2, 77240, Note_on_c, 1, 68, 127
2, 77240, Note_on_c, 1, 70, 127
2, 77240, Note_on_c, 1, 73, 127
2, 77240, Note_on_c, 1, 84, 127
2, 77520, Note_off_c, 1, 68, 0
2, 77520, Note_off_c, 1, 70, 0
2, 77520, Note_off_c, 1, 73, 0
2, 77560, Note_on_c, 1, 82, 127
2, 77560, Note_off_c, 1, 84, 0
2, 77600, Note_on_c, 1, 65, 127
2, 77600, Note_on_c, 1, 71, 127
2, 77600, Note_on_c, 1, 73, 127
2, 77600, Note_on_c, 1, 80, 127
2, 77600, Note_off_c, 1, 82, 0
2, 77600, Note_on_c, 1, 85, 127
2, 77640, Note_on_c, 1, 38, 127
2, 77640, Note_on_c, 1, 50, 127
2, 77640, Note_on_c, 1, 59, 127
2, 77640, Note_on_c, 1, 62, 127
2, 77640, Note_off_c, 1, 65, 0
2, 77640, Note_on_c, 1, 67, 127
2, 77640, Note_off_c, 1, 73, 0
2, 77640, Note_off_c, 1, 80, 0
2, 77640, Note_off_c, 1, 85, 0
2, 77680, Note_on_c, 1, 35, 127
2, 77680, Note_off_c, 1, 38, 0
2, 77680, Note_on_c, 1, 45, 127
2, 77680, Note_off_c, 1, 50, 0
2, 77680, Note_on_c, 1, 52, 127
2, 77680, Note_off_c, 1, 59, 0
2, 77680, Note_off_c, 1, 62, 0
2, 77680, Note_on_c, 1, 64, 127
2, 77680, Note_off_c, 1, 67, 0
2, 77680, Note_on_c, 1, 69, 127
2, 77680, Note_off_c, 1, 71, 0
2, 77680, Note_on_c, 1, 74, 127
2, 77720, Note_off_c, 1, 35, 0
2, 77720, Note_off_c, 1, 45, 0
2, 77720, Note_off_c, 1, 52, 0
2, 77720, Note_off_c, 1, 64, 0
2, 77720, Note_off_c, 1, 69, 0
2, 77720, Note_off_c, 1, 74, 0
2, 77760, Note_on_c, 1, 56, 127
2, 77760, Note_on_c, 1, 62, 127
2, 77800, Note_on_c, 1, 35, 127
2, 77800, Note_on_c, 1, 43, 127
2, 77800, Note_off_c, 1, 56, 0
2, 77800, Note_on_c, 1, 64, 127
2, 77800, Note_on_c, 1, 69, 127
2, 77920, Note_off_c, 1, 35, 0
2, 77920, Note_off_c, 1, 43, 0
2, 77920, Note_off_c, 1, 62, 0
2, 77920, Note_off_c, 1, 64, 0
2, 77920, Note_off_c, 1, 69, 0
2, 77960, Note_on_c, 1, 52, 127
2, 77960, Note_on_c, 1, 64, 127
2, 77960, Note_on_c, 1, 68, 127
2, 77960, Note_on_c, 1, 80, 127
2, 77960, Note_on_c, 1, 83, 127
2, 78440, Note_off_c, 1, 52, 0
2, 78440, Note_off_c, 1, 68, 0
2, 78440, Note_on_c, 1, 71, 127
2, 78440, Note_off_c, 1, 80, 0
2, 78440, Note_on_c, 1, 90, 127
2, 78480, Note_on_c, 1, 52, 127
2, 78480, Note_on_c, 1, 68, 127
2, 78480, Note_off_c, 1, 71, 0
2, 78480, Note_on_c, 1, 80, 127
2, 78480, Note_off_c, 1, 90, 0
2, 78640, Note_off_c, 1, 52, 0
2, 78640, Note_off_c, 1, 64, 0
2, 78640, Note_off_c, 1, 68, 0
2, 78640, Note_off_c, 1, 80, 0
2, 78640, Note_off_c, 1, 83, 0
2, 78680, Note_on_c, 1, 52, 127
2, 78680, Note_on_c, 1, 61, 127
2, 78680, Note_on_c, 1, 69, 127
2, 78680, Note_on_c, 1, 76, 127
2, 78680, Note_on_c, 1, 80, 127
2, 79320, Note_off_c, 1, 52, 0
2, 79320, Note_off_c, 1, 61, 0
2, 79320, Note_off_c, 1, 69, 0
2, 79320, Note_off_c, 1, 76, 0
2, 79320, Note_off_c, 1, 80, 0
2, 79360, Note_on_c, 1, 52, 127
2, 79360, Note_on_c, 1, 61, 127
2, 79360, Note_on_c, 1, 69, 127
2, 79360, Note_on_c, 1, 76, 127
2, 79360, Note_on_c, 1, 80, 127
2, 79680, Note_off_c, 1, 52, 0
2, 79680, Note_off_c, 1, 61, 0
2, 79680, Note_off_c, 1, 69, 0
2, 79680, Note_off_c, 1, 76, 0
2, 79680, Note_off_c, 1, 80, 0
2, 79720, Note_on_c, 1, 52, 127
2, 79720, Note_on_c, 1, 61, 127
2, 79720, Note_on_c, 1, 69, 127
2, 79720, Note_on_c, 1, 76, 127
2, 79720, Note_on_c, 1, 80, 127
2, 80080, Note_off_c, 1, 52, 0
2, 80080, Note_off_c, 1, 61, 0
2, 80080, Note_off_c, 1, 69, 0
2, 80080, Note_off_c, 1, 76, 0
2, 80080, Note_off_c, 1, 80, 0
2, 80120, Note_on_c, 1, 76, 127
2, 80120, Note_on_c, 1, 79, 127
2, 80120, Note_on_c, 1, 85, 127
2, 80120, Note_on_c, 1, 88, 127
2, 80400, Note_on_c, 1, 36, 127
2, 80400, Note_off_c, 1, 76, 0
2, 80400, Note_off_c, 1, 79, 0
2, 80400, Note_off_c, 1, 85, 0
2, 80400, Note_off_c, 1, 88, 0
2, 80440, Note_off_c, 1, 36, 0
2, 80440, Note_on_c, 1, 63, 127
2, 80440, Note_on_c, 1, 78, 127
2, 80440, Note_on_c, 1, 82, 127
2, 80440, Note_on_c, 1, 87, 127
2, 80760, Note_off_c, 1, 63, 0
2, 80760, Note_off_c, 1, 78, 0
2, 80760, Note_off_c, 1, 82, 0
2, 80760, Note_off_c, 1, 87, 0
2, 80800, Note_on_c, 1, 66, 127
2, 80800, Note_on_c, 1, 75, 127
2, 80800, Note_on_c, 1, 78, 127
2, 80800, Note_on_c, 1, 83, 127
2, 81080, Note_off_c, 1, 66, 0
2, 81080, Note_off_c, 1, 75, 0
2, 81080, Note_off_c, 1, 78, 0
2, 81080, Note_off_c, 1, 83, 0
2, 81160, Note_on_c, 1, 66, 127
2, 81160, Note_on_c, 1, 75, 127
2, 81160, Note_on_c, 1, 78, 127
2, 81160, Note_on_c, 1, 83, 127
2, 81240, Note_on_c, 1, 63, 127
2, 81240, Note_off_c, 1, 66, 0
2, 81280, Note_off_c, 1, 63, 0
2, 81280, Note_on_c, 1, 66, 127
2, 81480, Note_off_c, 1, 66, 0
2, 81480, Note_off_c, 1, 75, 0
2, 81480, Note_off_c, 1, 78, 0
2, 81480, Note_off_c, 1, 83, 0
2, 81520, Note_on_c, 1, 71, 127
2, 81840, Note_off_c, 1, 71, 0
2, 81920, Note_on_c, 1, 71, 127
2, 81920, Note_on_c, 1, 78, 127
2, 81920, Note_on_c, 1, 83, 127
2, 81920, Note_on_c, 1, 87, 127
2, 82040, Note_off_c, 1, 71, 0
2, 82040, Note_on_c, 1, 75, 127
2, 82080, Note_on_c, 1, 71, 127
2, 82080, Note_off_c, 1, 75, 0
2, 82160, Note_off_c, 1, 71, 0
2, 82160, Note_off_c, 1, 78, 0
2, 82160, Note_off_c, 1, 83, 0
2, 82160, Note_off_c, 1, 87, 0
2, 82240, Note_on_c, 1, 75, 127
2, 82240, Note_on_c, 1, 78, 127
2, 82240, Note_on_c, 1, 83, 127
2, 82240, Note_on_c, 1, 87, 127
2, 82440, Note_on_c, 1, 63, 127
2, 82520, Note_off_c, 1, 78, 0
2, 82520, Note_off_c, 1, 83, 0
2, 82520, Note_off_c, 1, 87, 0
2, 82560, Note_off_c, 1, 63, 0
2, 82560, Note_off_c, 1, 75, 0
2, 82600, Note_on_c, 1, 75, 127
2, 82600, Note_on_c, 1, 78, 127
2, 82600, Note_on_c, 1, 83, 127
2, 82600, Note_on_c, 1, 87, 127
2, 82840, Note_off_c, 1, 75, 0
2, 82840, Note_off_c, 1, 78, 0
2, 82840, Note_off_c, 1, 83, 0
2, 82840, Note_off_c, 1, 87, 0
2, 82840, Note_on_c, 1, 92, 127
2, 82840, Note_on_c, 1, 100, 127
2, 82880, Note_off_c, 1, 92, 0
2, 82880, Note_off_c, 1, 100, 0
2, 82960, Note_on_c, 1, 75, 127
2, 82960, Note_on_c, 1, 78, 127
2, 82960, Note_on_c, 1, 83, 127
2, 82960, Note_on_c, 1, 87, 127
2, 83120, Note_on_c, 1, 63, 127
2, 83200, Note_off_c, 1, 78, 0
2, 83200, Note_off_c, 1, 83, 0
2, 83200, Note_off_c, 1, 87, 0
2, 83240, Note_off_c, 1, 63, 0
2, 83280, Note_off_c, 1, 75, 0
2, 83320, Note_on_c, 1, 75, 127
2, 83320, Note_on_c, 1, 78, 127
2, 83320, Note_on_c, 1, 82, 127
2, 83320, Note_on_c, 1, 87, 127
2, 83400, Note_off_c, 1, 75, 0
2, 83480, Note_on_c, 1, 63, 127
2, 83480, Note_on_c, 1, 75, 127
2, 83560, Note_off_c, 1, 78, 0
2, 83560, Note_off_c, 1, 82, 0
2, 83560, Note_off_c, 1, 87, 0
2, 83600, Note_off_c, 1, 63, 0
2, 83640, Note_off_c, 1, 75, 0
2, 83680, Note_on_c, 1, 75, 127
2, 83680, Note_on_c, 1, 78, 127
2, 83680, Note_on_c, 1, 82, 127
2, 83680, Note_on_c, 1, 87, 127
2, 83760, Note_off_c, 1, 75, 0
2, 83800, Note_on_c, 1, 75, 127
2, 83840, Note_on_c, 1, 68, 127
2, 83840, Note_off_c, 1, 75, 0
2, 83840, Note_off_c, 1, 78, 0
2, 83840, Note_off_c, 1, 82, 0
2, 83840, Note_on_c, 1, 91, 127
2, 83880, Note_on_c, 1, 59, 127
2, 83880, Note_off_c, 1, 68, 0
2, 83880, Note_on_c, 1, 82, 127
2, 83880, Note_on_c, 1, 86, 127
2, 83880, Note_off_c, 1, 87, 0
2, 83880, Note_on_c, 1, 89, 127
2, 83880, Note_off_c, 1, 91, 0
2, 83920, Note_off_c, 1, 59, 0
2, 83920, Note_on_c, 1, 66, 127
2, 83920, Note_on_c, 1, 71, 127
2, 83920, Note_on_c, 1, 75, 127
2, 83920, Note_on_c, 1, 78, 127
2, 83920, Note_off_c, 1, 82, 0
2, 83920, Note_on_c, 1, 83, 127
2, 83920, Note_off_c, 1, 86, 0
2, 83920, Note_on_c, 1, 87, 127
2, 83920, Note_off_c, 1, 89, 0
2, 83960, Note_off_c, 1, 66, 0
2, 83960, Note_on_c, 1, 67, 127
2, 83960, Note_on_c, 1, 68, 127
2, 83960, Note_off_c, 1, 71, 0
2, 83960, Note_off_c, 1, 75, 0
2, 83960, Note_off_c, 1, 78, 0
2, 83960, Note_off_c, 1, 83, 0
2, 83960, Note_off_c, 1, 87, 0
2, 84000, Note_off_c, 1, 67, 0
2, 84000, Note_off_c, 1, 68, 0
2, 84080, Note_on_c, 1, 70, 127
2, 84080, Note_on_c, 1, 74, 127
2, 84080, Note_on_c, 1, 77, 127
2, 84080, Note_on_c, 1, 80, 127
2, 84320, Note_on_c, 1, 63, 127
2, 84320, Note_off_c, 1, 70, 0
2, 84320, Note_off_c, 1, 74, 0
2, 84320, Note_off_c, 1, 77, 0
2, 84320, Note_off_c, 1, 80, 0
2, 84360, Note_off_c, 1, 63, 0
2, 84400, Note_on_c, 1, 70, 127
2, 84400, Note_on_c, 1, 74, 127
2, 84400, Note_on_c, 1, 77, 127
2, 84400, Note_on_c, 1, 80, 127
2, 84680, Note_off_c, 1, 80, 0
2, 84760, Note_on_c, 1, 56, 127
2, 84760, Note_on_c, 1, 64, 127
2, 84760, Note_on_c, 1, 69, 127
2, 84760, Note_off_c, 1, 70, 0
2, 84760, Note_off_c, 1, 74, 0
2, 84800, Note_off_c, 1, 56, 0
2, 84800, Note_on_c, 1, 58, 127
2, 84800, Note_on_c, 1, 63, 127
2, 84800, Note_off_c, 1, 64, 0
2, 84800, Note_off_c, 1, 69, 0
2, 84800, Note_off_c, 1, 77, 0
2, 84800, Note_on_c, 1, 83, 127
2, 84840, Note_on_c, 1, 56, 127
2, 84840, Note_off_c, 1, 58, 0
2, 84840, Note_off_c, 1, 63, 0
2, 84840, Note_on_c, 1, 64, 127
2, 84840, Note_on_c, 1, 69, 127
2, 84840, Note_on_c, 1, 77, 127
2, 84840, Note_off_c, 1, 83, 0
2, 85040, Note_off_c, 1, 56, 0
2, 85040, Note_off_c, 1, 64, 0
2, 85040, Note_off_c, 1, 69, 0
2, 85040, Note_on_c, 1, 73, 127
2, 85040, Note_on_c, 1, 76, 127
2, 85040, Note_off_c, 1, 77, 0
2, 85080, Note_off_c, 1, 73, 0
2, 85080, Note_off_c, 1, 76, 0
2, 85120, Note_on_c, 1, 66, 127
2, 85120, Note_on_c, 1, 75, 127
2, 85120, Note_on_c, 1, 78, 127
2, 85280, Note_on_c, 1, 54, 127
2, 85280, Note_on_c, 1, 63, 127
2, 85280, Note_off_c, 1, 66, 0
2, 85320, Note_off_c, 1, 54, 0
2, 85320, Note_off_c, 1, 63, 0
2, 85320, Note_on_c, 1, 66, 127
2, 85360, Note_on_c, 1, 48, 127
2, 85360, Note_off_c, 1, 66, 0
2, 85360, Note_on_c, 1, 69, 127
2, 85360, Note_off_c, 1, 78, 0
2, 85360, Note_on_c, 1, 81, 127
2, 85400, Note_off_c, 1, 48, 0
2, 85400, Note_off_c, 1, 69, 0
2, 85400, Note_on_c, 1, 78, 127
2, 85400, Note_off_c, 1, 81, 0
2, 85440, Note_off_c, 1, 75, 0
2, 85440, Note_off_c, 1, 78, 0
2, 85480, Note_on_c, 1, 66, 127
2, 85480, Note_on_c, 1, 75, 127
2, 85480, Note_on_c, 1, 78, 127
2, 85640, Note_on_c, 1, 50, 127
2, 85640, Note_on_c, 1, 59, 127
2, 85640, Note_off_c, 1, 66, 0
2, 85640, Note_on_c, 1, 71, 127
2, 85640, Note_off_c, 1, 75, 0
2, 85640, Note_off_c, 1, 78, 0
2, 85640, Note_on_c, 1, 83, 127
2, 85760, Note_on_c, 1, 34, 127
2, 85760, Note_on_c, 1, 46, 127
2, 85760, Note_off_c, 1, 50, 0
2, 85760, Note_off_c, 1, 59, 0
2, 85760, Note_on_c, 1, 61, 127
2, 85760, Note_on_c, 1, 64, 127
2, 85760, Note_off_c, 1, 71, 0
2, 85760, Note_off_c, 1, 83, 0
2, 85800, Note_off_c, 1, 34, 0
2, 85800, Note_off_c, 1, 46, 0
2, 85800, Note_on_c, 1, 50, 127
2, 85800, Note_on_c, 1, 54, 127
2, 85800, Note_on_c, 1, 59, 127
2, 85800, Note_off_c, 1, 61, 0
2, 85800, Note_on_c, 1, 62, 127
2, 85800, Note_off_c, 1, 64, 0
2, 85840, Note_off_c, 1, 50, 0
2, 85840, Note_on_c, 1, 51, 127
2, 85840, Note_on_c, 1, 56, 127
2, 85840, Note_off_c, 1, 59, 0
2, 85840, Note_on_c, 1, 60, 127
2, 85840, Note_off_c, 1, 62, 0
2, 85840, Note_on_c, 1, 90, 127
2, 85960, Note_off_c, 1, 51, 0
2, 85960, Note_off_c, 1, 56, 0
2, 85960, Note_on_c, 1, 58, 127
2, 85960, Note_off_c, 1, 60, 0
2, 85960, Note_on_c, 1, 66, 127
2, 85960, Note_off_c, 1, 90, 0
2, 86000, Note_off_c, 1, 54, 0
2, 86000, Note_off_c, 1, 58, 0
2, 86000, Note_on_c, 1, 73, 127
2, 86000, Note_on_c, 1, 75, 127
2, 86000, Note_on_c, 1, 80, 127
2, 86120, Note_off_c, 1, 66, 0
2, 86120, Note_off_c, 1, 73, 0
2, 86120, Note_off_c, 1, 75, 0
2, 86120, Note_off_c, 1, 80, 0
2, 86200, Note_on_c, 1, 75, 127
2, 86200, Note_on_c, 1, 78, 127
2, 86200, Note_on_c, 1, 82, 127
2, 86200, Note_on_c, 1, 87, 127
2, 86400, Note_on_c, 1, 63, 127
2, 86440, Note_off_c, 1, 78, 0
2, 86440, Note_off_c, 1, 82, 0
2, 86440, Note_off_c, 1, 87, 0
2, 86480, Note_off_c, 1, 63, 0
2, 86520, Note_off_c, 1, 75, 0
2, 86560, Note_on_c, 1, 39, 127
2, 86560, Note_on_c, 1, 51, 127
2, 86560, Note_on_c, 1, 58, 127
2, 86560, Note_on_c, 1, 63, 127
2, 86560, Note_on_c, 1, 66, 127
2, 86840, Note_off_c, 1, 39, 0
2, 86840, Note_off_c, 1, 51, 0
2, 86840, Note_off_c, 1, 58, 0
2, 86840, Note_off_c, 1, 63, 0
2, 86840, Note_off_c, 1, 66, 0
2, 86920, Note_on_c, 1, 61, 127
2, 86920, Note_on_c, 1, 70, 127
2, 86920, Note_on_c, 1, 78, 127
2, 87320, Note_off_c, 1, 78, 0
2, 87360, Note_on_c, 1, 78, 127
2, 87400, Note_off_c, 1, 78, 0
2, 87440, Note_off_c, 1, 70, 0
2, 87440, Note_on_c, 1, 71, 127
2, 87440, Note_on_c, 1, 80, 127
2, 87480, Note_off_c, 1, 80, 0
2, 87520, Note_on_c, 1, 77, 127
2, 87560, Note_off_c, 1, 71, 0
2, 87560, Note_off_c, 1, 77, 0
2, 87600, Note_on_c, 1, 70, 127
2, 87600, Note_on_c, 1, 78, 127
2, 87920, Note_off_c, 1, 78, 0
2, 87960, Note_on_c, 1, 80, 127
2, 88200, Note_off_c, 1, 61, 0
2, 88200, Note_off_c, 1, 70, 0
2, 88200, Note_off_c, 1, 80, 0
2, 88240, Note_on_c, 1, 61, 127
2, 88240, Note_on_c, 1, 70, 127
2, 88240, Note_on_c, 1, 80, 127
2, 88280, Note_off_c, 1, 61, 0
2, 88280, Note_off_c, 1, 80, 0
2, 88320, Note_on_c, 1, 61, 127
2, 88320, Note_on_c, 1, 80, 127
2, 88640, Note_off_c, 1, 61, 0
2, 88640, Note_off_c, 1, 80, 0
2, 88680, Note_on_c, 1, 61, 127
2, 88680, Note_on_c, 1, 78, 127
2, 88800, Note_off_c, 1, 78, 0
2, 89000, Note_off_c, 1, 61, 0
2, 89000, Note_off_c, 1, 70, 0
2, 89040, Note_on_c, 1, 59, 127
2, 89040, Note_on_c, 1, 68, 127
2, 89040, Note_on_c, 1, 86, 127
2, 89080, Note_off_c, 1, 86, 0
2, 89120, Note_on_c, 1, 86, 127
2, 89160, Note_off_c, 1, 68, 0
2, 89160, Note_off_c, 1, 86, 0
2, 89200, Note_on_c, 1, 68, 127
2, 89200, Note_on_c, 1, 76, 127
2, 89320, Note_off_c, 1, 59, 0
2, 89320, Note_off_c, 1, 68, 0
2, 89320, Note_off_c, 1, 76, 0
2, 89360, Note_on_c, 1, 61, 127
2, 89360, Note_on_c, 1, 66, 127
2, 89360, Note_on_c, 1, 88, 127
2, 89680, Note_off_c, 1, 61, 0
2, 89680, Note_off_c, 1, 66, 0
2, 89680, Note_off_c, 1, 88, 0
2, 89720, Note_on_c, 1, 61, 127
2, 89720, Note_on_c, 1, 66, 127
2, 89720, Note_on_c, 1, 88, 127
2, 90040, Note_off_c, 1, 61, 0
2, 90040, Note_off_c, 1, 66, 0
2, 90040, Note_off_c, 1, 88, 0
2, 90080, Note_on_c, 1, 61, 127
2, 90080, Note_on_c, 1, 65, 127
2, 90080, Note_on_c, 1, 83, 127
2, 90240, Note_off_c, 1, 65, 0
2, 90240, Note_on_c, 1, 66, 127
2, 90240, Note_on_c, 1, 82, 127
2, 90240, Note_off_c, 1, 83, 0
2, 90280, Note_on_c, 1, 60, 127
2, 90280, Note_off_c, 1, 61, 0
2, 90280, Note_on_c, 1, 63, 127
2, 90280, Note_on_c, 1, 74, 127
2, 90280, Note_on_c, 1, 78, 127
2, 90280, Note_off_c, 1, 82, 0
2, 90320, Note_off_c, 1, 60, 0
2, 90320, Note_off_c, 1, 63, 0
2, 90320, Note_off_c, 1, 66, 0
2, 90320, Note_off_c, 1, 74, 0
2, 90320, Note_off_c, 1, 78, 0
2, 90360, Note_on_c, 1, 32, 127
2, 90360, Note_on_c, 1, 44, 127
2, 90360, Note_on_c, 1, 54, 127
2, 90360, Note_on_c, 1, 62, 127
2, 90360, Note_on_c, 1, 68, 127
2, 90400, Note_off_c, 1, 32, 0
2, 90400, Note_off_c, 1, 44, 0
2, 90400, Note_off_c, 1, 54, 0
2, 90400, Note_off_c, 1, 62, 0
2, 90400, Note_off_c, 1, 68, 0
2, 90440, Note_on_c, 1, 59, 127
2, 90440, Note_on_c, 1, 63, 127
2, 90440, Note_on_c, 1, 92, 127
2, 90600, Note_off_c, 1, 92, 0
2, 90640, Note_on_c, 1, 49, 127
2, 90640, Note_off_c, 1, 59, 0
2, 90640, Note_on_c, 1, 61, 127
2, 90640, Note_off_c, 1, 63, 0
2, 90640, Note_on_c, 1, 76, 127
2, 90640, Note_on_c, 1, 80, 127
2, 90760, Note_off_c, 1, 49, 0
2, 90760, Note_off_c, 1, 61, 0
2, 90760, Note_off_c, 1, 76, 0
2, 90760, Note_off_c, 1, 80, 0
2, 90800, Note_on_c, 1, 45, 127
2, 90800, Note_on_c, 1, 47, 127
2, 90800, Note_on_c, 1, 52, 127
2, 90800, Note_on_c, 1, 64, 127
2, 90840, Note_off_c, 1, 45, 0
2, 90840, Note_off_c, 1, 47, 0
2, 90840, Note_off_c, 1, 52, 0
2, 90840, Note_on_c, 1, 55, 127
2, 90840, Note_on_c, 1, 58, 127
2, 90840, Note_on_c, 1, 63, 127
2, 90840, Note_off_c, 1, 64, 0
2, 90840, Note_on_c, 1, 80, 127
2, 90840, Note_on_c, 1, 84, 127
2, 90880, Note_off_c, 1, 55, 0
2, 90880, Note_off_c, 1, 58, 0
2, 90880, Note_off_c, 1, 63, 0
2, 90880, Note_on_c, 1, 77, 127
2, 90880, Note_off_c, 1, 80, 0
2, 90880, Note_on_c, 1, 82, 127
2, 90880, Note_on_c, 1, 87, 127
2, 90880, Note_on_c, 1, 92, 127
2, 90920, Note_on_c, 1, 58, 127
2, 90920, Note_on_c, 1, 61, 127
2, 90920, Note_on_c, 1, 63, 127
2, 90920, Note_on_c, 1, 70, 127
2, 90920, Note_off_c, 1, 77, 0
2, 90920, Note_off_c, 1, 84, 0
2, 90920, Note_off_c, 1, 87, 0
2, 90920, Note_off_c, 1, 92, 0
2, 90960, Note_on_c, 1, 47, 127
2, 90960, Note_off_c, 1, 58, 0
2, 90960, Note_off_c, 1, 61, 0
2, 90960, Note_off_c, 1, 63, 0
2, 90960, Note_off_c, 1, 70, 0
2, 90960, Note_on_c, 1, 80, 127
2, 90960, Note_off_c, 1, 82, 0
2, 90960, Note_on_c, 1, 83, 127
2, 90960, Note_on_c, 1, 87, 127
2, 90960, Note_on_c, 1, 92, 127
2, 91000, Note_off_c, 1, 47, 0
2, 91000, Note_on_c, 1, 51, 127
2, 91000, Note_off_c, 1, 80, 0
2, 91000, Note_on_c, 1, 82, 127
2, 91000, Note_off_c, 1, 83, 0
2, 91000, Note_on_c, 1, 85, 127
2, 91000, Note_off_c, 1, 87, 0
2, 91000, Note_on_c, 1, 91, 127
2, 91000, Note_off_c, 1, 92, 0
2, 91040, Note_off_c, 1, 51, 0
2, 91040, Note_on_c, 1, 56, 127
2, 91040, Note_on_c, 1, 80, 127
2, 91040, Note_off_c, 1, 82, 0
2, 91040, Note_on_c, 1, 83, 127
2, 91040, Note_off_c, 1, 85, 0
2, 91040, Note_on_c, 1, 87, 127
2, 91040, Note_off_c, 1, 91, 0
2, 91040, Note_on_c, 1, 92, 127
2, 91080, Note_off_c, 1, 56, 0
2, 91080, Note_on_c, 1, 62, 127
2, 91080, Note_on_c, 1, 67, 127
2, 91080, Note_on_c, 1, 70, 127
2, 91080, Note_off_c, 1, 80, 0
2, 91080, Note_off_c, 1, 83, 0
2, 91080, Note_off_c, 1, 87, 0
2, 91080, Note_on_c, 1, 91, 127
2, 91080, Note_off_c, 1, 92, 0
2, 91120, Note_off_c, 1, 62, 0
2, 91120, Note_off_c, 1, 67, 0
2, 91120, Note_off_c, 1, 70, 0
2, 91120, Note_on_c, 1, 80, 127
2, 91120, Note_on_c, 1, 83, 127
2, 91120, Note_on_c, 1, 87, 127
2, 91120, Note_off_c, 1, 91, 0
2, 91120, Note_on_c, 1, 92, 127
2, 91160, Note_on_c, 1, 51, 127
2, 91160, Note_on_c, 1, 54, 127
2, 91160, Note_on_c, 1, 58, 127
2, 91160, Note_on_c, 1, 70, 127
2, 91160, Note_on_c, 1, 75, 127
2, 91160, Note_on_c, 1, 78, 127
2, 91160, Note_off_c, 1, 80, 0
2, 91160, Note_on_c, 1, 82, 127
2, 91160, Note_off_c, 1, 83, 0
2, 91160, Note_off_c, 1, 87, 0
2, 91160, Note_off_c, 1, 92, 0
2, 91280, Note_off_c, 1, 51, 0
2, 91280, Note_off_c, 1, 54, 0
2, 91280, Note_off_c, 1, 58, 0
2, 91280, Note_off_c, 1, 70, 0
2, 91280, Note_off_c, 1, 75, 0
2, 91280, Note_off_c, 1, 78, 0
2, 91280, Note_on_c, 1, 80, 127
2, 91280, Note_off_c, 1, 82, 0
2, 91280, Note_on_c, 1, 83, 127
2, 91280, Note_on_c, 1, 87, 127
2, 91280, Note_on_c, 1, 92, 127
2, 91320, Note_on_c, 1, 46, 127
2, 91320, Note_on_c, 1, 61, 127
2, 91320, Note_on_c, 1, 77, 127
2, 91320, Note_off_c, 1, 80, 0
2, 91320, Note_on_c, 1, 82, 127
2, 91320, Note_off_c, 1, 83, 0
2, 91320, Note_on_c, 1, 85, 127
2, 91320, Note_off_c, 1, 87, 0
2, 91320, Note_off_c, 1, 92, 0
2, 91480, Note_off_c, 1, 46, 0
2, 91480, Note_off_c, 1, 61, 0
2, 91480, Note_off_c, 1, 77, 0
2, 91480, Note_off_c, 1, 82, 0
2, 91480, Note_off_c, 1, 85, 0
2, 91520, Note_on_c, 1, 63, 127
2, 91520, Note_on_c, 1, 82, 127
2, 91680, Note_on_c, 1, 67, 127
2, 91800, Note_off_c, 1, 67, 0
2, 91800, Note_off_c, 1, 82, 0
2, 91840, Note_on_c, 1, 67, 127
2, 91840, Note_on_c, 1, 87, 127
2, 92000, Note_off_c, 1, 67, 0
2, 92000, Note_off_c, 1, 87, 0
2, 92040, Note_on_c, 1, 70, 127
2, 92040, Note_on_c, 1, 82, 127
2, 92160, Note_off_c, 1, 63, 0
2, 92160, Note_off_c, 1, 70, 0
2, 92160, Note_off_c, 1, 82, 0
2, 92200, Note_on_c, 1, 45, 127
2, 92200, Note_on_c, 1, 52, 127
2, 92200, Note_on_c, 1, 83, 127
2, 92200, Note_on_c, 1, 91, 127
2, 92200, Note_on_c, 1, 95, 127
2, 92320, Note_off_c, 1, 45, 0
2, 92320, Note_off_c, 1, 52, 0
2, 92320, Note_on_c, 1, 66, 127
2, 92320, Note_on_c, 1, 71, 127
2, 92320, Note_on_c, 1, 78, 127
2, 92320, Note_off_c, 1, 83, 0
2, 92320, Note_off_c, 1, 91, 0
2, 92320, Note_off_c, 1, 95, 0
2, 92360, Note_off_c, 1, 66, 0
2, 92360, Note_on_c, 1, 69, 127
2, 92360, Note_off_c, 1, 71, 0
2, 92360, Note_on_c, 1, 75, 127
2, 92360, Note_on_c, 1, 87, 127
2, 92360, Note_on_c, 1, 90, 127
2, 92400, Note_on_c, 1, 41, 127
2, 92400, Note_off_c, 1, 69, 0
2, 92400, Note_off_c, 1, 75, 0
2, 92400, Note_off_c, 1, 78, 0
2, 92400, Note_on_c, 1, 84, 127
2, 92400, Note_off_c, 1, 87, 0
2, 92400, Note_on_c, 1, 89, 127
2, 92400, Note_off_c, 1, 90, 0
2, 92400, Note_on_c, 1, 92, 127
2, 92400, Note_on_c, 1, 96, 127
2, 92440, Note_off_c, 1, 41, 0
2, 92440, Note_on_c, 1, 69, 127
2, 92440, Note_on_c, 1, 75, 127
2, 92440, Note_on_c, 1, 78, 127
2, 92440, Note_off_c, 1, 84, 0
2, 92440, Note_on_c, 1, 87, 127
2, 92440, Note_off_c, 1, 89, 0
2, 92440, Note_on_c, 1, 90, 127
2, 92440, Note_off_c, 1, 92, 0
2, 92440, Note_off_c, 1, 96, 0
2, 92480, Note_off_c, 1, 69, 0
2, 92480, Note_off_c, 1, 75, 0
2, 92480, Note_off_c, 1, 78, 0
2, 92480, Note_off_c, 1, 87, 0
2, 92480, Note_off_c, 1, 90, 0
2, 92520, Note_on_c, 1, 61, 127
2, 92520, Note_on_c, 1, 64, 127
2, 92520, Note_on_c, 1, 66, 127
2, 92520, Note_on_c, 1, 87, 127
2, 92560, Note_off_c, 1, 61, 0
2, 92560, Note_off_c, 1, 64, 0
2, 92560, Note_off_c, 1, 66, 0
2, 92560, Note_off_c, 1, 87, 0
2, 92600, Note_on_c, 1, 62, 127
2, 92600, Note_on_c, 1, 68, 127
2, 92600, Note_on_c, 1, 72, 127
2, 92600, Note_on_c, 1, 80, 127
2, 92720, Note_off_c, 1, 80, 0
2, 92760, Note_on_c, 1, 80, 127
2, 92880, Note_off_c, 1, 80, 0
2, 92920, Note_on_c, 1, 80, 127
2, 93080, Note_off_c, 1, 62, 0
2, 93080, Note_off_c, 1, 68, 0
2, 93120, Note_on_c, 1, 56, 127
2, 93120, Note_on_c, 1, 68, 127
2, 93120, Note_on_c, 1, 79, 127
2, 93120, Note_off_c, 1, 80, 0
2, 93240, Note_off_c, 1, 56, 0
2, 93240, Note_off_c, 1, 79, 0
2, 93280, Note_on_c, 1, 48, 127
2, 93280, Note_on_c, 1, 67, 127
2, 93280, Note_off_c, 1, 68, 0
2, 93280, Note_on_c, 1, 70, 127
2, 93440, Note_on_c, 1, 26, 127
2, 93440, Note_on_c, 1, 33, 127
2, 93440, Note_on_c, 1, 38, 127
2, 93440, Note_off_c, 1, 48, 0
2, 93440, Note_on_c, 1, 50, 127
2, 93440, Note_on_c, 1, 54, 127
2, 93440, Note_on_c, 1, 57, 127
2, 93440, Note_on_c, 1, 62, 127
2, 93440, Note_off_c, 1, 67, 0
2, 93440, Note_off_c, 1, 70, 0
2, 93440, Note_off_c, 1, 72, 0
2, 93600, Note_off_c, 1, 26, 0
2, 93600, Note_off_c, 1, 33, 0
2, 93600, Note_off_c, 1, 38, 0
2, 93600, Note_off_c, 1, 50, 0
2, 93600, Note_off_c, 1, 54, 0
2, 93600, Note_off_c, 1, 57, 0
2, 93600, Note_off_c, 1, 62, 0
2, 93640, Note_on_c, 1, 60, 127
2, 93640, Note_on_c, 1, 87, 127
2, 93640, Note_on_c, 1, 91, 127
2, 93760, Note_off_c, 1, 60, 0
2, 93800, Note_on_c, 1, 62, 127
2, 93960, Note_off_c, 1, 62, 0
2, 93960, Note_off_c, 1, 87, 0
2, 93960, Note_off_c, 1, 91, 0
2, 94000, Note_on_c, 1, 63, 127
2, 94000, Note_on_c, 1, 84, 127
2, 94000, Note_on_c, 1, 87, 127
2, 94120, Note_off_c, 1, 63, 0
2, 94160, Note_on_c, 1, 70, 127
2, 94160, Note_off_c, 1, 84, 0
2, 94160, Note_on_c, 1, 85, 127
2, 94160, Note_off_c, 1, 87, 0
2, 94160, Note_on_c, 1, 89, 127
2, 94280, Note_off_c, 1, 70, 0
2, 94280, Note_off_c, 1, 85, 0
2, 94280, Note_off_c, 1, 89, 0
2, 94320, Note_on_c, 1, 70, 127
2, 94320, Note_on_c, 1, 85, 127
2, 94320, Note_on_c, 1, 89, 127
2, 94480, Note_off_c, 1, 70, 0
2, 94480, Note_off_c, 1, 85, 0
2, 94480, Note_off_c, 1, 89, 0
2, 94560, Note_on_c, 1, 66, 127
2, 94560, Note_on_c, 1, 87, 127
2, 94720, Note_off_c, 1, 66, 0
2, 94720, Note_on_c, 1, 70, 127
2, 94720, Note_on_c, 1, 90, 127
2, 94840, Note_on_c, 1, 66, 127
2, 94840, Note_off_c, 1, 70, 0
2, 94840, Note_off_c, 1, 90, 0
2, 94880, Note_off_c, 1, 66, 0
2, 94880, Note_on_c, 1, 70, 127
2, 94880, Note_on_c, 1, 90, 127
2, 95040, Note_off_c, 1, 70, 0
2, 95040, Note_off_c, 1, 87, 0
2, 95040, Note_off_c, 1, 90, 0
2, 95080, Note_on_c, 1, 63, 127
2, 95080, Note_on_c, 1, 89, 127
2, 95080, Note_on_c, 1, 92, 127
2, 95200, Note_off_c, 1, 63, 0
2, 95200, Note_off_c, 1, 89, 0
2, 95200, Note_off_c, 1, 92, 0
2, 95240, Note_on_c, 1, 68, 127
2, 95240, Note_on_c, 1, 89, 127
2, 95240, Note_on_c, 1, 92, 127
2, 95400, Note_off_c, 1, 68, 0
2, 95400, Note_off_c, 1, 89, 0
2, 95400, Note_off_c, 1, 92, 0
2, 95440, Note_on_c, 1, 73, 127
2, 95440, Note_on_c, 1, 87, 127
2, 95440, Note_on_c, 1, 90, 127
2, 95600, Note_on_c, 1, 64, 127
2, 95600, Note_on_c, 1, 67, 127
2, 95600, Note_off_c, 1, 73, 0
2, 95600, Note_on_c, 1, 81, 127
2, 95600, Note_on_c, 1, 84, 127
2, 95600, Note_off_c, 1, 87, 0
2, 95720, Note_on_c, 1, 55, 127
2, 95720, Note_off_c, 1, 64, 0
2, 95720, Note_off_c, 1, 67, 0
2, 95720, Note_off_c, 1, 81, 0
2, 95720, Note_off_c, 1, 84, 0
2, 95720, Note_off_c, 1, 90, 0
2, 95720, Note_on_c, 1, 93, 127
2, 95720, Note_on_c, 1, 96, 127
2, 95760, Note_off_c, 1, 55, 0
2, 95760, Note_on_c, 1, 66, 127
2, 95760, Note_on_c, 1, 90, 127
2, 95760, Note_off_c, 1, 96, 0
2, 95920, Note_off_c, 1, 66, 0
2, 95920, Note_off_c, 1, 90, 0
2, 95920, Note_off_c, 1, 93, 0
2, 95960, Note_on_c, 1, 43, 127
2, 95960, Note_on_c, 1, 48, 127
2, 95960, Note_on_c, 1, 55, 127
2, 95960, Note_on_c, 1, 58, 127
2, 95960, Note_on_c, 1, 62, 127
2, 95960, Note_on_c, 1, 64, 127
2, 95960, Note_on_c, 1, 70, 127
2, 95960, Note_on_c, 1, 74, 127
2, 96000, Note_off_c, 1, 43, 0
2, 96000, Note_off_c, 1, 48, 0
2, 96000, Note_off_c, 1, 55, 0
2, 96000, Note_off_c, 1, 58, 0
2, 96000, Note_off_c, 1, 64, 0
2, 96000, Note_on_c, 1, 67, 127
2, 96000, Note_on_c, 1, 69, 127
2, 96000, Note_off_c, 1, 70, 0
2, 96000, Note_on_c, 1, 91, 127
2, 96000, Note_on_c, 1, 96, 127
2, 96040, Note_on_c, 1, 44, 127
2, 96040, Note_on_c, 1, 59, 127
2, 96040, Note_off_c, 1, 62, 0
2, 96040, Note_off_c, 1, 67, 0
2, 96040, Note_off_c, 1, 69, 0
2, 96040, Note_off_c, 1, 74, 0
2, 96040, Note_on_c, 1, 75, 127
2, 96040, Note_on_c, 1, 80, 127
2, 96040, Note_on_c, 1, 83, 127
2, 96040, Note_off_c, 1, 91, 0
2, 96040, Note_off_c, 1, 96, 0
2, 96080, Note_off_c, 1, 44, 0
2, 96080, Note_off_c, 1, 59, 0
2, 96080, Note_off_c, 1, 75, 0
2, 96080, Note_off_c, 1, 80, 0
2, 96080, Note_off_c, 1, 83, 0
2, 96120, Note_on_c, 1, 71, 127
2, 96120, Note_on_c, 1, 78, 127
2, 96120, Note_on_c, 1, 87, 127
2, 96120, Note_on_c, 1, 95, 127
2, 96160, Note_on_c, 1, 43, 127
2, 96160, Note_off_c, 1, 71, 0
2, 96160, Note_off_c, 1, 78, 0
2, 96160, Note_on_c, 1, 80, 127
2, 96160, Note_on_c, 1, 84, 127
2, 96160, Note_off_c, 1, 87, 0
2, 96160, Note_off_c, 1, 95, 0
2, 96200, Note_off_c, 1, 43, 0
2, 96200, Note_on_c, 1, 71, 127
2, 96200, Note_on_c, 1, 78, 127
2, 96200, Note_off_c, 1, 80, 0
2, 96200, Note_off_c, 1, 84, 0
2, 96200, Note_on_c, 1, 87, 127
2, 96200, Note_on_c, 1, 95, 127
2, 96240, Note_off_c, 1, 71, 0
2, 96240, Note_off_c, 1, 78, 0
2, 96240, Note_on_c, 1, 82, 127
2, 96240, Note_on_c, 1, 84, 127
2, 96240, Note_off_c, 1, 95, 0
2, 96280, Note_on_c, 1, 77, 127
2, 96280, Note_on_c, 1, 80, 127
2, 96280, Note_off_c, 1, 82, 0
2, 96280, Note_off_c, 1, 84, 0
2, 96280, Note_off_c, 1, 87, 0
2, 96320, Note_on_c, 1, 61, 127
2, 96320, Note_off_c, 1, 77, 0
2, 96320, Note_on_c, 1, 89, 127
2, 96440, Note_off_c, 1, 61, 0
2, 96440, Note_off_c, 1, 89, 0
2, 96480, Note_on_c, 1, 61, 127
2, 96480, Note_on_c, 1, 78, 127
2, 96480, Note_off_c, 1, 80, 0
2, 96480, Note_on_c, 1, 87, 127
2, 96600, Note_off_c, 1, 61, 0
2, 96600, Note_off_c, 1, 78, 0
2, 96600, Note_off_c, 1, 87, 0
2, 96640, Note_on_c, 1, 61, 127
2, 96640, Note_on_c, 1, 78, 127
2, 96640, Note_on_c, 1, 87, 127
2, 96840, Note_off_c, 1, 61, 0
2, 96840, Note_off_c, 1, 78, 0
2, 96840, Note_off_c, 1, 87, 0
2, 96880, Note_on_c, 1, 50, 127
2, 96880, Note_on_c, 1, 78, 127
2, 96880, Note_on_c, 1, 86, 127
2, 97000, Note_off_c, 1, 50, 0
2, 97040, Note_on_c, 1, 66, 127
2, 97040, Note_off_c, 1, 78, 0
2, 97040, Note_on_c, 1, 81, 127
2, 97040, Note_off_c, 1, 86, 0
2, 97040, Note_on_c, 1, 90, 127
2, 97080, Note_off_c, 1, 81, 0
2, 97080, Note_off_c, 1, 90, 0
2, 97120, Note_off_c, 1, 66, 0
2, 97120, Note_on_c, 1, 69, 127
2, 97120, Note_on_c, 1, 85, 127
2, 97160, Note_off_c, 1, 69, 0
2, 97160, Note_on_c, 1, 71, 127
2, 97160, Note_on_c, 1, 80, 127
2, 97160, Note_off_c, 1, 85, 0
2, 97160, Note_on_c, 1, 86, 127
2, 97160, Note_on_c, 1, 89, 127
2, 97200, Note_off_c, 1, 71, 0
2, 97200, Note_off_c, 1, 80, 0
2, 97200, Note_off_c, 1, 86, 0
2, 97200, Note_off_c, 1, 89, 0
2, 97240, Note_on_c, 1, 56, 127
2, 97240, Note_on_c, 1, 77, 127
2, 97240, Note_on_c, 1, 86, 127
2, 97560, Note_on_c, 1, 54, 127
2, 97560, Note_off_c, 1, 56, 0
2, 97560, Note_off_c, 1, 77, 0
2, 97560, Note_on_c, 1, 78, 127
2, 97560, Note_off_c, 1, 86, 0
2, 97560, Note_on_c, 1, 90, 127
2, 97560, Note_on_c, 1, 93, 127
2, 97600, Note_off_c, 1, 54, 0
2, 97600, Note_on_c, 1, 65, 127
2, 97600, Note_on_c, 1, 70, 127
2, 97600, Note_off_c, 1, 78, 0
2, 97600, Note_on_c, 1, 85, 127
2, 97600, Note_on_c, 1, 89, 127
2, 97600, Note_off_c, 1, 90, 0
2, 97600, Note_off_c, 1, 93, 0
2, 97640, Note_on_c, 1, 61, 127
2, 97640, Note_on_c, 1, 64, 127
2, 97640, Note_off_c, 1, 65, 0
2, 97640, Note_on_c, 1, 66, 127
2, 97640, Note_off_c, 1, 70, 0
2, 97640, Note_on_c, 1, 71, 127
2, 97640, Note_on_c, 1, 75, 127
2, 97640, Note_on_c, 1, 78, 127
2, 97640, Note_off_c, 1, 85, 0
2, 97640, Note_on_c, 1, 87, 127
2, 97640, Note_off_c, 1, 89, 0
2, 97680, Note_on_c, 1, 49, 127
2, 97680, Note_on_c, 1, 52, 127
2, 97680, Note_on_c, 1, 54, 127
2, 97680, Note_off_c, 1, 64, 0
2, 97680, Note_off_c, 1, 66, 0
2, 97680, Note_off_c, 1, 71, 0
2, 97680, Note_on_c, 1, 73, 127
2, 97680, Note_off_c, 1, 75, 0
2, 97680, Note_off_c, 1, 78, 0
2, 97680, Note_off_c, 1, 87, 0
2, 97720, Note_off_c, 1, 49, 0
2, 97720, Note_off_c, 1, 52, 0
2, 97720, Note_off_c, 1, 54, 0
2, 97720, Note_on_c, 1, 60, 127
2, 97720, Note_off_c, 1, 61, 0
2, 97720, Note_off_c, 1, 73, 0
2, 97720, Note_on_c, 1, 77, 127
2, 97720, Note_on_c, 1, 84, 127
2, 97720, Note_on_c, 1, 87, 127
2, 97720, Note_on_c, 1, 89, 127
2, 97760, Note_on_c, 1, 35, 127
2, 97760, Note_on_c, 1, 47, 127
2, 97760, Note_off_c, 1, 60, 0
2, 97760, Note_off_c, 1, 77, 0
2, 97760, Note_off_c, 1, 84, 0
2, 97760, Note_on_c, 1, 85, 127
2, 97760, Note_off_c, 1, 87, 0
2, 97760, Note_off_c, 1, 89, 0
2, 97760, Note_on_c, 1, 90, 127
2, 97760, Note_on_c, 1, 97, 127
2, 97800, Note_off_c, 1, 35, 0
2, 97800, Note_on_c, 1, 36, 127
2, 97800, Note_off_c, 1, 47, 0
2, 97800, Note_on_c, 1, 48, 127
2, 97800, Note_on_c, 1, 67, 127
2, 97800, Note_on_c, 1, 69, 127
2, 97800, Note_on_c, 1, 75, 127
2, 97800, Note_on_c, 1, 79, 127
2, 97800, Note_off_c, 1, 85, 0
2, 97800, Note_off_c, 1, 90, 0
2, 97800, Note_off_c, 1, 97, 0
2, 97840, Note_on_c, 1, 35, 127
2, 97840, Note_off_c, 1, 36, 0
2, 97840, Note_on_c, 1, 47, 127
2, 97840, Note_off_c, 1, 48, 0
2, 97840, Note_off_c, 1, 67, 0
2, 97840, Note_off_c, 1, 69, 0
2, 97840, Note_off_c, 1, 75, 0
2, 97840, Note_off_c, 1, 79, 0
2, 97840, Note_on_c, 1, 85, 127
2, 97840, Note_on_c, 1, 90, 127
2, 97840, Note_on_c, 1, 97, 127
2, 97880, Note_off_c, 1, 35, 0
2, 97880, Note_off_c, 1, 47, 0
2, 97880, Note_off_c, 1, 85, 0
2, 97880, Note_off_c, 1, 90, 0
2, 97880, Note_off_c, 1, 97, 0
2, 97920, Note_on_c, 1, 63, 127
2, 97920, Note_on_c, 1, 71, 127
2, 97920, Note_on_c, 1, 75, 127
2, 97920, Note_on_c, 1, 83, 127
2, 98240, Note_off_c, 1, 63, 0
2, 98240, Note_off_c, 1, 71, 0
2, 98240, Note_off_c, 1, 75, 0
2, 98240, Note_off_c, 1, 83, 0
2, 98280, Note_on_c, 1, 54, 127
2, 98280, Note_on_c, 1, 63, 127
2, 98280, Note_on_c, 1, 73, 127
2, 98280, Note_on_c, 1, 78, 127
2, 98280, Note_on_c, 1, 82, 127
2, 98280, Note_on_c, 1, 85, 127
2, 98320, Note_off_c, 1, 63, 0
2, 98400, Note_on_c, 1, 65, 127
2, 98440, Note_off_c, 1, 65, 0
2, 98600, Note_off_c, 1, 54, 0
2, 98600, Note_off_c, 1, 73, 0
2, 98600, Note_off_c, 1, 78, 0
2, 98600, Note_off_c, 1, 82, 0
2, 98600, Note_off_c, 1, 85, 0
2, 98680, Note_on_c, 1, 48, 127
2, 98680, Note_on_c, 1, 60, 127
2, 98680, Note_on_c, 1, 67, 127
2, 98680, Note_on_c, 1, 72, 127
2, 98680, Note_on_c, 1, 77, 127
2, 98680, Note_on_c, 1, 79, 127
2, 98800, Note_off_c, 1, 72, 0
2, 98840, Note_on_c, 1, 72, 127
2, 98960, Note_off_c, 1, 48, 0
2, 98960, Note_off_c, 1, 60, 0
2, 98960, Note_off_c, 1, 67, 0
2, 98960, Note_off_c, 1, 72, 0
2, 98960, Note_off_c, 1, 77, 0
2, 98960, Note_off_c, 1, 79, 0
2, 99000, Note_on_c, 1, 36, 127
2, 99000, Note_on_c, 1, 48, 127
2, 99000, Note_on_c, 1, 79, 127
2, 99000, Note_on_c, 1, 84, 127
2, 99000, Note_on_c, 1, 89, 127
2, 99000, Note_on_c, 1, 91, 127
2, 99120, Note_off_c, 1, 36, 0
2, 99120, Note_off_c, 1, 48, 0
2, 99120, Note_on_c, 1, 56, 127
2, 99120, Note_on_c, 1, 75, 127
2, 99120, Note_off_c, 1, 79, 0
2, 99120, Note_on_c, 1, 83, 127
2, 99120, Note_off_c, 1, 84, 0
2, 99120, Note_off_c, 1, 89, 0
2, 99120, Note_off_c, 1, 91, 0
2, 99160, Note_on_c, 1, 36, 127
2, 99160, Note_on_c, 1, 48, 127
2, 99160, Note_off_c, 1, 56, 0
2, 99160, Note_off_c, 1, 75, 0
2, 99160, Note_on_c, 1, 79, 127
2, 99160, Note_off_c, 1, 83, 0
2, 99160, Note_on_c, 1, 84, 127
2, 99160, Note_on_c, 1, 89, 127
2, 99160, Note_on_c, 1, 91, 127
2, 99320, Note_off_c, 1, 36, 0
2, 99320, Note_off_c, 1, 48, 0
2, 99320, Note_off_c, 1, 79, 0
2, 99320, Note_off_c, 1, 84, 0
2, 99320, Note_off_c, 1, 89, 0
2, 99320, Note_off_c, 1, 91, 0
2, 99360, Note_on_c, 1, 48, 127
2, 99360, Note_on_c, 1, 60, 127
2, 99360, Note_on_c, 1, 67, 127
2, 99360, Note_on_c, 1, 72, 127
2, 99360, Note_on_c, 1, 77, 127
2, 99360, Note_on_c, 1, 79, 127
2, 99480, Note_off_c, 1, 67, 0
2, 99480, Note_off_c, 1, 72, 0
2, 99480, Note_off_c, 1, 77, 0
2, 99520, Note_on_c, 1, 67, 127
2, 99520, Note_on_c, 1, 72, 127
2, 99520, Note_on_c, 1, 77, 127
2, 99680, Note_off_c, 1, 48, 0
2, 99680, Note_off_c, 1, 60, 0
2, 99680, Note_off_c, 1, 67, 0
2, 99680, Note_off_c, 1, 72, 0
2, 99680, Note_off_c, 1, 77, 0
2, 99680, Note_off_c, 1, 79, 0
2, 99720, Note_on_c, 1, 36, 127
2, 99720, Note_on_c, 1, 48, 127
2, 99720, Note_on_c, 1, 79, 127
2, 99720, Note_on_c, 1, 84, 127
2, 99720, Note_on_c, 1, 89, 127
2, 99720, Note_on_c, 1, 91, 127
2, 100000, Note_off_c, 1, 36, 0
2, 100000, Note_off_c, 1, 48, 0
2, 100000, Note_off_c, 1, 79, 0
2, 100000, Note_off_c, 1, 84, 0
2, 100000, Note_off_c, 1, 89, 0
2, 100000, Note_off_c, 1, 91, 0
2, 100040, Note_on_c, 1, 32, 127
2, 100040, Note_on_c, 1, 44, 127
2, 100040, Note_on_c, 1, 84, 127
2, 100040, Note_on_c, 1, 87, 127
2, 100080, Note_off_c, 1, 32, 0
2, 100080, Note_on_c, 1, 49, 127
2, 100080, Note_on_c, 1, 61, 127
2, 100080, Note_on_c, 1, 73, 127
2, 100080, Note_off_c, 1, 84, 0
2, 100080, Note_off_c, 1, 87, 0
2, 100120, Note_off_c, 1, 44, 0
2, 100120, Note_off_c, 1, 49, 0
2, 100120, Note_on_c, 1, 56, 127
2, 100120, Note_off_c, 1, 61, 0
2, 100120, Note_on_c, 1, 62, 127
2, 100120, Note_on_c, 1, 72, 127
2, 100120, Note_off_c, 1, 73, 0
2, 100120, Note_on_c, 1, 78, 127
2, 100160, Note_on_c, 1, 32, 127
2, 100160, Note_on_c, 1, 44, 127
2, 100160, Note_off_c, 1, 56, 0
2, 100160, Note_off_c, 1, 62, 0
2, 100160, Note_off_c, 1, 72, 0
2, 100160, Note_off_c, 1, 78, 0
2, 100160, Note_on_c, 1, 83, 127
2, 100200, Note_on_c, 1, 78, 127
2, 100200, Note_off_c, 1, 83, 0
2, 100240, Note_off_c, 1, 78, 0
2, 100240, Note_on_c, 1, 84, 127
2, 100360, Note_off_c, 1, 32, 0
2, 100360, Note_off_c, 1, 44, 0
2, 100360, Note_on_c, 1, 80, 127
2, 100360, Note_off_c, 1, 84, 0
2, 100400, Note_on_c, 1, 54, 127
2, 100400, Note_on_c, 1, 60, 127
2, 100400, Note_on_c, 1, 66, 127
2, 100400, Note_on_c, 1, 69, 127
2, 100400, Note_on_c, 1, 75, 127
2, 100400, Note_off_c, 1, 80, 0
2, 100400, Note_on_c, 1, 81, 127
2, 100720, Note_off_c, 1, 54, 0
2, 100720, Note_off_c, 1, 60, 0
2, 100720, Note_off_c, 1, 66, 0
2, 100720, Note_off_c, 1, 69, 0
2, 100720, Note_off_c, 1, 75, 0
2, 100720, Note_off_c, 1, 81, 0
2, 100800, Note_on_c, 1, 53, 127
2, 100800, Note_on_c, 1, 55, 127
2, 100800, Note_on_c, 1, 59, 127
2, 100800, Note_on_c, 1, 62, 127
2, 100800, Note_on_c, 1, 67, 127
2, 100800, Note_on_c, 1, 72, 127
2, 100840, Note_on_c, 1, 49, 127
2, 100840, Note_off_c, 1, 55, 0
2, 100840, Note_off_c, 1, 59, 0
2, 100840, Note_off_c, 1, 62, 0
2, 100840, Note_off_c, 1, 72, 0
2, 100840, Note_on_c, 1, 77, 127
2, 100880, Note_on_c, 1, 30, 127
2, 100880, Note_on_c, 1, 42, 127
2, 100880, Note_off_c, 1, 49, 0
2, 100880, Note_off_c, 1, 53, 0
2, 100880, Note_on_c, 1, 60, 127
2, 100880, Note_on_c, 1, 63, 127
2, 100880, Note_off_c, 1, 67, 0
2, 100880, Note_off_c, 1, 77, 0
2, 100920, Note_off_c, 1, 30, 0
2, 100920, Note_off_c, 1, 42, 0
2, 100920, Note_on_c, 1, 45, 127
2, 100920, Note_on_c, 1, 53, 127
2, 100920, Note_off_c, 1, 60, 0
2, 100920, Note_off_c, 1, 63, 0
2, 100920, Note_on_c, 1, 65, 127
2, 100920, Note_on_c, 1, 74, 127
2, 100960, Note_off_c, 1, 45, 0
2, 100960, Note_on_c, 1, 50, 127
2, 100960, Note_off_c, 1, 53, 0
2, 100960, Note_off_c, 1, 65, 0
2, 100960, Note_off_c, 1, 74, 0
2, 100960, Note_on_c, 1, 95, 127
2, 100960, Note_on_c, 1, 98, 127
2, 100960, Note_on_c, 1, 100, 127
2, 101000, Note_on_c, 1, 46, 127
2, 101000, Note_off_c, 1, 50, 0
2, 101000, Note_on_c, 1, 53, 127
2, 101000, Note_on_c, 1, 81, 127
2, 101000, Note_on_c, 1, 84, 127
2, 101000, Note_on_c, 1, 87, 127
2, 101000, Note_on_c, 1, 89, 127
2, 101000, Note_off_c, 1, 95, 0
2, 101000, Note_off_c, 1, 98, 0
2, 101000, Note_off_c, 1, 100, 0
2, 101040, Note_off_c, 1, 46, 0
2, 101040, Note_on_c, 1, 52, 127
2, 101040, Note_off_c, 1, 53, 0
2, 101040, Note_on_c, 1, 56, 127
2, 101040, Note_on_c, 1, 62, 127
2, 101040, Note_on_c, 1, 75, 127
2, 101040, Note_off_c, 1, 81, 0
2, 101040, Note_off_c, 1, 84, 0
2, 101040, Note_off_c, 1, 87, 0
2, 101040, Note_off_c, 1, 89, 0
2, 101080, Note_off_c, 1, 52, 0
2, 101080, Note_off_c, 1, 56, 0
2, 101080, Note_off_c, 1, 62, 0
2, 101080, Note_off_c, 1, 75, 0
2, 101120, Note_on_c, 1, 63, 127
2, 101120, Note_on_c, 1, 67, 127
2, 101120, Note_on_c, 1, 70, 127
2, 101120, Note_on_c, 1, 75, 127
2, 101120, Note_on_c, 1, 79, 127
2, 101120, Note_on_c, 1, 82, 127
2, 101120, Note_on_c, 1, 87, 127
2, 101120, Note_on_c, 1, 91, 127
2, 101120, Note_on_c, 1, 94, 127
2, 101440, Note_off_c, 1, 63, 0
2, 101440, Note_off_c, 1, 67, 0
2, 101440, Note_off_c, 1, 70, 0
2, 101440, Note_off_c, 1, 75, 0
2, 101440, Note_off_c, 1, 79, 0
2, 101440, Note_off_c, 1, 82, 0
2, 101440, Note_off_c, 1, 87, 0
2, 101440, Note_off_c, 1, 91, 0
2, 101440, Note_off_c, 1, 94, 0
2, 101480, Note_on_c, 1, 70, 127
2, 101480, Note_on_c, 1, 76, 127
2, 101480, Note_on_c, 1, 79, 127
2, 101480, Note_on_c, 1, 85, 127
2, 101760, Note_off_c, 1, 70, 0
2, 101760, Note_off_c, 1, 76, 0
2, 101760, Note_off_c, 1, 79, 0
2, 101840, Note_on_c, 1, 70, 127
2, 101840, Note_on_c, 1, 76, 127
2, 101840, Note_on_c, 1, 79, 127
2, 102120, Note_off_c, 1, 70, 0
2, 102120, Note_off_c, 1, 76, 0
2, 102120, Note_off_c, 1, 79, 0
2, 102160, Note_on_c, 1, 70, 127
2, 102160, Note_on_c, 1, 76, 127
2, 102160, Note_on_c, 1, 79, 127
2, 102440, Note_off_c, 1, 70, 0
2, 102440, Note_off_c, 1, 76, 0
2, 102440, Note_off_c, 1, 79, 0
2, 102480, Note_off_c, 1, 85, 0
2, 102520, Note_on_c, 1, 70, 127
2, 102520, Note_on_c, 1, 76, 127
2, 102520, Note_on_c, 1, 79, 127
2, 102520, Note_on_c, 1, 85, 127
2, 102800, Note_off_c, 1, 70, 0
2, 102800, Note_off_c, 1, 76, 0
2, 102800, Note_off_c, 1, 79, 0
2, 102840, Note_off_c, 1, 85, 0
2, 102920, Note_on_c, 1, 70, 127
2, 102920, Note_on_c, 1, 76, 127
2, 102920, Note_on_c, 1, 79, 127
2, 102920, Note_on_c, 1, 85, 127
2, 103200, Note_off_c, 1, 70, 0
2, 103200, Note_off_c, 1, 76, 0
2, 103200, Note_off_c, 1, 79, 0
2, 103240, Note_on_c, 1, 70, 127
2, 103240, Note_on_c, 1, 76, 127
2, 103240, Note_on_c, 1, 79, 127
2, 103520, Note_off_c, 1, 70, 0
2, 103520, Note_off_c, 1, 76, 0
2, 103520, Note_off_c, 1, 79, 0
2, 103600, Note_on_c, 1, 70, 127
2, 103600, Note_on_c, 1, 76, 127
2, 103600, Note_on_c, 1, 79, 127
2, 103880, Note_off_c, 1, 70, 0
2, 103880, Note_off_c, 1, 76, 0
2, 103880, Note_off_c, 1, 79, 0
2, 103960, Note_on_c, 1, 70, 127
2, 103960, Note_on_c, 1, 76, 127
2, 103960, Note_on_c, 1, 79, 127
2, 104080, Note_off_c, 1, 70, 0
2, 104080, Note_off_c, 1, 76, 0
2, 104080, Note_on_c, 1, 77, 127
2, 104080, Note_off_c, 1, 79, 0
2, 104080, Note_on_c, 1, 80, 127
2, 104080, Note_off_c, 1, 85, 0
2, 104080, Note_on_c, 1, 87, 127
2, 104120, Note_on_c, 1, 70, 127
2, 104120, Note_on_c, 1, 76, 127
2, 104120, Note_off_c, 1, 77, 0
2, 104120, Note_on_c, 1, 79, 127
2, 104120, Note_off_c, 1, 80, 0
2, 104120, Note_on_c, 1, 85, 127
2, 104120, Note_off_c, 1, 87, 0
2, 104240, Note_off_c, 1, 70, 0
2, 104240, Note_off_c, 1, 76, 0
2, 104240, Note_off_c, 1, 79, 0
2, 104280, Note_on_c, 1, 70, 127
2, 104280, Note_on_c, 1, 76, 127
2, 104280, Note_on_c, 1, 79, 127
2, 104560, Note_off_c, 1, 70, 0
2, 104560, Note_off_c, 1, 76, 0
2, 104560, Note_off_c, 1, 79, 0
2, 104640, Note_on_c, 1, 70, 127
2, 104640, Note_on_c, 1, 76, 127
2, 104640, Note_on_c, 1, 79, 127
2, 104920, Note_off_c, 1, 70, 0
2, 104920, Note_off_c, 1, 76, 0
2, 104920, Note_off_c, 1, 79, 0
2, 104960, Note_off_c, 1, 85, 0
2, 105000, Note_on_c, 1, 70, 127
2, 105000, Note_on_c, 1, 76, 127
2, 105000, Note_on_c, 1, 79, 127
2, 105000, Note_on_c, 1, 85, 127
2, 105120, Note_off_c, 1, 70, 0
2, 105120, Note_off_c, 1, 76, 0
2, 105120, Note_off_c, 1, 79, 0
2, 105120, Note_off_c, 1, 85, 0
2, 105160, Note_on_c, 1, 70, 127
2, 105160, Note_on_c, 1, 76, 127
2, 105160, Note_on_c, 1, 79, 127
2, 105160, Note_on_c, 1, 85, 127
2, 105320, Note_off_c, 1, 70, 0
2, 105320, Note_off_c, 1, 76, 0
2, 105320, Note_off_c, 1, 79, 0
2, 105360, Note_on_c, 1, 70, 127
2, 105360, Note_on_c, 1, 76, 127
2, 105360, Note_on_c, 1, 79, 127
2, 105640, Note_off_c, 1, 70, 0
2, 105640, Note_off_c, 1, 76, 0
2, 105640, Note_off_c, 1, 79, 0
2, 105680, Note_off_c, 1, 85, 0
2, 105720, Note_on_c, 1, 70, 127
2, 105720, Note_on_c, 1, 76, 127
2, 105720, Note_on_c, 1, 79, 127
2, 105720, Note_on_c, 1, 85, 127
2, 106000, Note_off_c, 1, 70, 0
2, 106000, Note_off_c, 1, 76, 0
2, 106000, Note_off_c, 1, 79, 0
2, 106080, Note_on_c, 1, 47, 127
2, 106080, Note_on_c, 1, 57, 127
2, 106080, Note_off_c, 1, 85, 0
2, 106080, Note_on_c, 1, 87, 127
2, 106120, Note_on_c, 1, 30, 127
2, 106120, Note_on_c, 1, 42, 127
2, 106120, Note_off_c, 1, 47, 0
2, 106120, Note_off_c, 1, 57, 0
2, 106120, Note_on_c, 1, 74, 127
2, 106120, Note_on_c, 1, 86, 127
2, 106120, Note_off_c, 1, 87, 0
2, 106160, Note_off_c, 1, 30, 0
2, 106160, Note_off_c, 1, 42, 0
2, 106160, Note_on_c, 1, 47, 127
2, 106160, Note_on_c, 1, 57, 127
2, 106160, Note_off_c, 1, 74, 0
2, 106160, Note_off_c, 1, 86, 0
2, 106160, Note_on_c, 1, 87, 127
2, 106200, Note_off_c, 1, 47, 0
2, 106200, Note_on_c, 1, 52, 127
2, 106200, Note_on_c, 1, 55, 127
2, 106200, Note_off_c, 1, 57, 0
2, 106200, Note_on_c, 1, 60, 127
2, 106200, Note_on_c, 1, 64, 127
2, 106200, Note_on_c, 1, 67, 127
2, 106200, Note_on_c, 1, 72, 127
2, 106200, Note_on_c, 1, 79, 127
2, 106200, Note_off_c, 1, 87, 0
2, 106240, Note_on_c, 1, 47, 127
2, 106240, Note_off_c, 1, 52, 0
2, 106240, Note_off_c, 1, 55, 0
2, 106240, Note_on_c, 1, 57, 127
2, 106240, Note_off_c, 1, 60, 0
2, 106240, Note_off_c, 1, 64, 0
2, 106240, Note_off_c, 1, 67, 0
2, 106240, Note_off_c, 1, 72, 0
2, 106240, Note_off_c, 1, 79, 0
2, 106240, Note_on_c, 1, 87, 127
2, 106360, Note_off_c, 1, 47, 0
2, 106360, Note_off_c, 1, 57, 0
2, 106360, Note_off_c, 1, 87, 0
2, 106400, Note_on_c, 1, 87, 127
2, 106760, Note_on_c, 1, 48, 127
2, 106760, Note_on_c, 1, 53, 127
2, 106760, Note_on_c, 1, 56, 127
2, 106760, Note_on_c, 1, 59, 127
2, 106760, Note_on_c, 1, 62, 127
2, 106760, Note_on_c, 1, 65, 127
2, 106760, Note_on_c, 1, 68, 127
2, 106760, Note_on_c, 1, 71, 127
2, 106760, Note_on_c, 1, 74, 127
2, 106760, Note_off_c, 1, 87, 0
2, 106800, Note_on_c, 1, 47, 127
2, 106800, Note_off_c, 1, 48, 0
2, 106800, Note_off_c, 1, 53, 0
2, 106800, Note_off_c, 1, 56, 0
2, 106800, Note_off_c, 1, 59, 0
2, 106800, Note_off_c, 1, 62, 0
2, 106800, Note_off_c, 1, 65, 0
2, 106800, Note_off_c, 1, 68, 0
2, 106800, Note_off_c, 1, 74, 0
2, 106800, Note_on_c, 1, 75, 127
2, 106800, Note_on_c, 1, 77, 127
2, 106840, Note_off_c, 1, 47, 0
2, 106840, Note_off_c, 1, 71, 0
2, 106840, Note_off_c, 1, 75, 0
2, 106840, Note_off_c, 1, 77, 0
2, 106840, Note_on_c, 1, 86, 127
2, 106840, Note_on_c, 1, 93, 127
2, 106840, Note_on_c, 1, 98, 127
2, 106840, Note_on_c, 1, 105, 127
2, 106880, Note_on_c, 1, 39, 127
2, 106880, Note_on_c, 1, 46, 127
2, 106880, Note_on_c, 1, 50, 127
2, 106880, Note_on_c, 1, 56, 127
2, 106880, Note_on_c, 1, 58, 127
2, 106880, Note_off_c, 1, 86, 0
2, 106880, Note_off_c, 1, 93, 0
2, 106880, Note_off_c, 1, 98, 0
2, 106880, Note_off_c, 1, 105, 0
2, 106920, Note_off_c, 1, 39, 0
2, 106920, Note_on_c, 1, 43, 127
2, 106920, Note_off_c, 1, 46, 0
2, 106920, Note_off_c, 1, 50, 0
2, 106920, Note_on_c, 1, 52, 127
2, 106920, Note_off_c, 1, 56, 0
2, 106920, Note_off_c, 1, 58, 0
2, 106920, Note_on_c, 1, 59, 127
2, 106920, Note_on_c, 1, 64, 127
2, 106920, Note_on_c, 1, 67, 127
2, 106920, Note_on_c, 1, 71, 127
2, 106920, Note_on_c, 1, 76, 127
2, 106920, Note_on_c, 1, 79, 127
2, 106960, Note_off_c, 1, 43, 0
2, 106960, Note_off_c, 1, 52, 0
2, 106960, Note_off_c, 1, 59, 0
2, 106960, Note_on_c, 1, 63, 127
2, 106960, Note_off_c, 1, 64, 0
2, 106960, Note_on_c, 1, 66, 127
2, 106960, Note_off_c, 1, 67, 0
2, 106960, Note_on_c, 1, 70, 127
2, 106960, Note_off_c, 1, 71, 0
2, 106960, Note_off_c, 1, 76, 0
2, 106960, Note_on_c, 1, 77, 127
2, 106960, Note_off_c, 1, 79, 0
2, 107040, Note_off_c, 1, 63, 0
2, 107040, Note_off_c, 1, 66, 0
2, 107040, Note_off_c, 1, 70, 0
2, 107080, Note_off_c, 1, 77, 0
2, 107120, Note_on_c, 1, 63, 127
2, 107120, Note_on_c, 1, 66, 127
2, 107120, Note_on_c, 1, 70, 127
2, 107120, Note_on_c, 1, 77, 127
2, 107400, Note_off_c, 1, 63, 0
2, 107400, Note_off_c, 1, 66, 0
2, 107400, Note_off_c, 1, 70, 0
2, 107440, Note_off_c, 1, 77, 0
2, 107520, Note_on_c, 1, 63, 127
2, 107520, Note_on_c, 1, 66, 127
2, 107520, Note_on_c, 1, 70, 127
2, 107520, Note_on_c, 1, 78, 127
2, 107800, Note_off_c, 1, 63, 0
2, 107800, Note_off_c, 1, 66, 0
2, 107800, Note_off_c, 1, 70, 0
2, 107840, Note_on_c, 1, 63, 127
2, 107840, Note_on_c, 1, 82, 127
2, 108160, Note_off_c, 1, 63, 0
2, 108160, Note_off_c, 1, 82, 0
2, 108200, Note_on_c, 1, 59, 127
2, 108200, Note_on_c, 1, 82, 127
2, 108480, Note_off_c, 1, 59, 0
2, 108480, Note_on_c, 1, 61, 127
2, 108480, Note_off_c, 1, 78, 0
2, 108480, Note_off_c, 1, 82, 0
2, 108520, Note_off_c, 1, 61, 0
2, 108560, Note_on_c, 1, 61, 127
2, 108560, Note_on_c, 1, 70, 127
2, 108560, Note_on_c, 1, 73, 127
2, 108560, Note_on_c, 1, 78, 127
2, 108840, Note_off_c, 1, 61, 0
2, 108840, Note_off_c, 1, 70, 0
2, 108840, Note_off_c, 1, 78, 0
2, 108880, Note_on_c, 1, 49, 127
2, 108880, Note_on_c, 1, 56, 127
2, 108880, Note_on_c, 1, 65, 127
2, 108880, Note_on_c, 1, 71, 127
2, 108880, Note_off_c, 1, 73, 0
2, 109160, Note_off_c, 1, 49, 0
2, 109160, Note_off_c, 1, 56, 0
2, 109160, Note_off_c, 1, 65, 0
2, 109160, Note_off_c, 1, 71, 0
2, 109160, Note_on_c, 1, 77, 127
2, 109200, Note_off_c, 1, 77, 0
2, 109240, Note_on_c, 1, 32, 127
2, 109240, Note_on_c, 1, 60, 127
2, 109240, Note_on_c, 1, 63, 127
2, 109480, Note_off_c, 1, 32, 0
2, 109480, Note_off_c, 1, 60, 0
2, 109480, Note_off_c, 1, 63, 0
2, 109520, Note_on_c, 1, 32, 127
2, 109520, Note_on_c, 1, 60, 127
2, 109520, Note_on_c, 1, 63, 127
2, 109560, Note_off_c, 1, 32, 0
2, 109560, Note_off_c, 1, 60, 0
2, 109560, Note_off_c, 1, 63, 0
2, 109600, Note_on_c, 1, 30, 127
2, 109600, Note_on_c, 1, 42, 127
2, 109600, Note_on_c, 1, 58, 127
2, 109600, Note_on_c, 1, 61, 127
2, 109600, Note_on_c, 1, 66, 127
2, 109880, Note_off_c, 1, 30, 0
2, 109880, Note_off_c, 1, 42, 0
2, 109880, Note_off_c, 1, 58, 0
2, 109880, Note_off_c, 1, 61, 0
2, 109880, Note_off_c, 1, 66, 0
2, 109960, Note_on_c, 1, 44, 127
2, 109960, Note_on_c, 1, 48, 127
2, 109960, Note_on_c, 1, 51, 127
2, 109960, Note_on_c, 1, 56, 127
2, 110280, Note_off_c, 1, 44, 0
2, 110280, Note_off_c, 1, 48, 0
2, 110280, Note_off_c, 1, 51, 0
2, 110280, Note_off_c, 1, 56, 0
2, 110320, Note_on_c, 1, 47, 127
2, 110320, Note_on_c, 1, 87, 127
2, 110600, Note_off_c, 1, 47, 0
2, 110640, Note_off_c, 1, 87, 0
2, 110680, Note_on_c, 1, 52, 127
2, 110680, Note_on_c, 1, 56, 127
2, 110680, Note_on_c, 1, 62, 127
2, 110680, Note_on_c, 1, 69, 127
2, 110960, Note_off_c, 1, 52, 0
2, 110960, Note_off_c, 1, 56, 0
2, 110960, Note_off_c, 1, 62, 0
2, 110960, Note_off_c, 1, 69, 0
2, 111000, Note_on_c, 1, 54, 127
2, 111000, Note_on_c, 1, 56, 127
2, 111000, Note_on_c, 1, 63, 127
2, 111000, Note_on_c, 1, 72, 127
2, 111320, Note_off_c, 1, 54, 0
2, 111320, Note_off_c, 1, 56, 0
2, 111320, Note_off_c, 1, 63, 0
2, 111320, Note_off_c, 1, 72, 0
2, 111360, Note_on_c, 1, 54, 127
2, 111360, Note_on_c, 1, 58, 127
2, 111360, Note_on_c, 1, 61, 127
2, 111360, Note_on_c, 1, 82, 127
2, 111640, Note_off_c, 1, 54, 0
2, 111640, Note_off_c, 1, 58, 0
2, 111640, Note_off_c, 1, 61, 0
2, 111640, Note_off_c, 1, 82, 0
2, 111680, Note_on_c, 1, 54, 127
2, 111680, Note_on_c, 1, 58, 127
2, 111680, Note_on_c, 1, 61, 127
2, 111680, Note_on_c, 1, 82, 127
2, 111720, Note_off_c, 1, 54, 0
2, 111720, Note_off_c, 1, 58, 0
2, 111720, Note_off_c, 1, 61, 0
2, 111720, Note_off_c, 1, 82, 0
2, 111760, Note_on_c, 1, 38, 127
2, 111760, Note_on_c, 1, 50, 127
2, 111760, Note_on_c, 1, 57, 127
2, 111760, Note_on_c, 1, 60, 127
2, 112040, Note_off_c, 1, 38, 0
2, 112040, Note_off_c, 1, 50, 0
2, 112040, Note_off_c, 1, 57, 0
2, 112040, Note_off_c, 1, 60, 0
2, 112080, Note_on_c, 1, 61, 127
2, 112760, Note_off_c, 1, 61, 0
2, 112800, Note_on_c, 1, 60, 127
2, 113160, Note_off_c, 1, 60, 0
2, 113160, Note_on_c, 1, 61, 127
2, 113800, Note_off_c, 1, 61, 0
2, 113880, Note_on_c, 1, 58, 127
2, 114200, Note_off_c, 1, 58, 0
2, 114240, Note_on_c, 1, 60, 127
2, 114520, Note_off_c, 1, 60, 0
2, 114560, Note_on_c, 1, 56, 127
2, 114880, Note_off_c, 1, 56, 0
2, 114920, Note_on_c, 1, 41, 127
2, 115240, Note_off_c, 1, 41, 0
2, 115280, Note_on_c, 1, 44, 127
2, 115280, Note_on_c, 1, 49, 127
2, 115600, Note_off_c, 1, 44, 0
2, 115600, Note_off_c, 1, 49, 0
2, 115640, Note_on_c, 1, 49, 127
2, 115640, Note_on_c, 1, 53, 127
2, 115640, Note_on_c, 1, 61, 127
2, 115800, Note_off_c, 1, 49, 0
2, 115800, Note_off_c, 1, 53, 0
2, 115840, Note_off_c, 1, 61, 0
2, 115880, Note_on_c, 1, 49, 127
2, 115880, Note_on_c, 1, 53, 127
2, 115880, Note_on_c, 1, 61, 127
2, 116080, Note_off_c, 1, 53, 0
2, 116080, Note_on_c, 1, 56, 127
2, 116120, Note_off_c, 1, 49, 0
2, 116120, Note_off_c, 1, 56, 0
2, 116160, Note_off_c, 1, 61, 0
2, 116200, Note_on_c, 1, 37, 127
2, 116200, Note_on_c, 1, 49, 127
2, 116200, Note_on_c, 1, 53, 127
2, 116200, Note_on_c, 1, 61, 127
2, 116480, Note_off_c, 1, 37, 0
2, 116480, Note_off_c, 1, 49, 0
2, 116480, Note_off_c, 1, 53, 0
2, 116520, Note_off_c, 1, 61, 0
2, 116560, Note_on_c, 1, 51, 127
2, 116560, Note_on_c, 1, 54, 127
2, 116560, Note_on_c, 1, 58, 127
2, 116840, Note_off_c, 1, 51, 0
2, 116840, Note_off_c, 1, 54, 0
2, 116840, Note_off_c, 1, 58, 0
2, 116880, Note_on_c, 1, 51, 127
2, 116880, Note_on_c, 1, 54, 127
2, 116880, Note_on_c, 1, 58, 127
2, 117000, Note_off_c, 1, 58, 0
2, 117040, Note_on_c, 1, 58, 127
2, 117160, Note_off_c, 1, 54, 0
2, 117160, Note_off_c, 1, 58, 0
2, 117200, Note_off_c, 1, 51, 0
2, 117240, Note_on_c, 1, 51, 127
2, 117240, Note_on_c, 1, 54, 127
2, 117240, Note_on_c, 1, 58, 127
2, 117360, Note_off_c, 1, 58, 0
2, 117400, Note_on_c, 1, 58, 127
2, 117520, Note_off_c, 1, 58, 0
2, 117560, Note_off_c, 1, 51, 0
2, 117560, Note_off_c, 1, 54, 0
2, 117600, Note_on_c, 1, 44, 127
2, 117600, Note_on_c, 1, 51, 127
2, 117600, Note_on_c, 1, 56, 127
2, 117880, Note_off_c, 1, 44, 0
2, 117880, Note_off_c, 1, 51, 0
2, 117880, Note_off_c, 1, 56, 0
2, 118000, Note_on_c, 1, 32, 127
2, 118000, Note_on_c, 1, 44, 127
2, 118000, Note_on_c, 1, 64, 127
2, 118000, Note_on_c, 1, 72, 127
2, 118040, Note_off_c, 1, 32, 0
2, 118040, Note_off_c, 1, 44, 0
2, 118040, Note_on_c, 1, 49, 127
2, 118040, Note_on_c, 1, 56, 127
2, 118040, Note_on_c, 1, 63, 127
2, 118040, Note_off_c, 1, 64, 0
2, 118040, Note_on_c, 1, 67, 127
2, 118040, Note_off_c, 1, 72, 0
2, 118080, Note_off_c, 1, 49, 0
2, 118080, Note_on_c, 1, 51, 127
2, 118080, Note_on_c, 1, 54, 127
2, 118080, Note_on_c, 1, 60, 127
2, 118080, Note_off_c, 1, 63, 0
2, 118080, Note_off_c, 1, 67, 0
2, 118080, Note_on_c, 1, 75, 127
2, 118080, Note_on_c, 1, 87, 127
2, 118120, Note_on_c, 1, 30, 127
2, 118120, Note_on_c, 1, 42, 127
2, 118120, Note_off_c, 1, 51, 0
2, 118120, Note_off_c, 1, 54, 0
2, 118120, Note_off_c, 1, 56, 0
2, 118120, Note_off_c, 1, 60, 0
2, 118120, Note_on_c, 1, 71, 127
2, 118120, Note_off_c, 1, 75, 0
2, 118120, Note_off_c, 1, 87, 0
2, 118160, Note_off_c, 1, 30, 0
2, 118160, Note_off_c, 1, 42, 0
2, 118160, Note_on_c, 1, 62, 127
2, 118160, Note_off_c, 1, 71, 0
2, 118160, Note_on_c, 1, 89, 127
2, 118160, Note_on_c, 1, 95, 127
2, 118200, Note_on_c, 1, 55, 127
2, 118200, Note_off_c, 1, 62, 0
2, 118200, Note_on_c, 1, 67, 127
2, 118200, Note_on_c, 1, 73, 127
2, 118200, Note_on_c, 1, 82, 127
2, 118200, Note_on_c, 1, 85, 127
2, 118200, Note_off_c, 1, 89, 0
2, 118200, Note_off_c, 1, 95, 0
2, 118240, Note_on_c, 1, 43, 127
2, 118240, Note_on_c, 1, 46, 127
2, 118240, Note_on_c, 1, 51, 127
2, 118240, Note_off_c, 1, 55, 0
2, 118240, Note_on_c, 1, 63, 127
2, 118240, Note_off_c, 1, 67, 0
2, 118240, Note_off_c, 1, 73, 0
2, 118240, Note_on_c, 1, 75, 127
2, 118240, Note_off_c, 1, 82, 0
2, 118240, Note_off_c, 1, 85, 0
2, 118280, Note_off_c, 1, 43, 0
2, 118280, Note_off_c, 1, 46, 0
2, 118280, Note_off_c, 1, 51, 0
2, 118280, Note_off_c, 1, 63, 0
2, 118280, Note_off_c, 1, 75, 0
2, 118320, Note_on_c, 1, 47, 127
2, 118320, Note_on_c, 1, 59, 127
2, 118320, Note_on_c, 1, 68, 127
2, 118320, Note_on_c, 1, 77, 127
2, 118320, Note_on_c, 1, 80, 127
2, 118320, Note_on_c, 1, 85, 127
2, 118320, Note_on_c, 1, 89, 127
2, 118640, Note_off_c, 1, 47, 0
2, 118640, Note_off_c, 1, 59, 0
2, 118640, Note_off_c, 1, 68, 0
2, 118640, Note_off_c, 1, 77, 0
2, 118640, Note_off_c, 1, 80, 0
2, 118640, Note_off_c, 1, 85, 0
2, 118640, Note_off_c, 1, 89, 0
2, 118680, Note_on_c, 1, 52, 127
2, 118680, Note_on_c, 1, 61, 127
2, 118680, Note_on_c, 1, 64, 127
2, 118680, Note_on_c, 1, 67, 127
2, 118680, Note_on_c, 1, 72, 127
2, 118960, Note_off_c, 1, 52, 0
2, 118960, Note_off_c, 1, 61, 0
2, 118960, Note_off_c, 1, 64, 0
2, 118960, Note_off_c, 1, 67, 0
2, 118960, Note_off_c, 1, 72, 0
2, 119000, Note_on_c, 1, 39, 127
2, 119000, Note_on_c, 1, 43, 127
2, 119000, Note_on_c, 1, 51, 127
2, 119320, Note_off_c, 1, 39, 0
2, 119320, Note_off_c, 1, 43, 0
2, 119320, Note_off_c, 1, 51, 0
2, 119360, Note_on_c, 1, 35, 127
2, 119360, Note_on_c, 1, 47, 127
2, 119360, Note_on_c, 1, 78, 127
2, 119360, Note_on_c, 1, 83, 127
2, 119360, Note_on_c, 1, 88, 127
2, 119360, Note_on_c, 1, 90, 127
2, 119640, Note_off_c, 1, 35, 0
2, 119640, Note_off_c, 1, 47, 0
2, 119640, Note_off_c, 1, 78, 0
2, 119640, Note_off_c, 1, 83, 0
2, 119640, Note_off_c, 1, 88, 0
2, 119640, Note_off_c, 1, 90, 0
2, 119680, Note_on_c, 1, 42, 127
2, 119680, Note_on_c, 1, 58, 127
2, 119680, Note_on_c, 1, 61, 127
2, 119680, Note_on_c, 1, 73, 127
2, 120000, Note_off_c, 1, 42, 0
2, 120000, Note_off_c, 1, 58, 0
2, 120000, Note_off_c, 1, 61, 0
2, 120000, Note_off_c, 1, 73, 0
2, 120040, End_track
3, 0, Start_track
3, 0, Title_t, "MIDI"
3, 1536, End_track
0, 0, End_of_file
