0, 0, Header, 1, 3, 192
1, 0, Start_track
1, 0, Time_signature, 4, 2, 24, 8
1, 0, Tempo, 500000
1, 120040, End_track
2, 0, Start_track
2, 0, Text_t, "random instrument: random person i dunno whatev"
2, 0, Title_t, "Track 1"
2, 0, Note_on_c, 1, 55, 127
2, 0, Note_on_c, 1, 59, 127
2, 0, Note_on_c, 1, 62, 127
2, 0, Note_on_c, 1, 71, 127
2, 0, Note_on_c, 1, 79, 127
2, 40, Note_on_c, 1, 42, 127
2, 40, Note_on_c, 1, 49, 127
2, 40, Note_on_c, 1, 54, 127
2, 40, Note_off_c, 1, 55, 0
2, 40, Note_off_c, 1, 59, 0
2, 40, Note_off_c, 1, 62, 0
2, 40, Note_off_c, 1, 71, 0
2, 40, Note_off_c, 1, 79, 0
2, 40, Note_on_c, 1, 82, 127
2, 40, Note_on_c, 1, 88, 127
2, 40, Note_on_c, 1, 94, 127
2, 80, Note_off_c, 1, 42, 0
2, 80, Note_off_c, 1, 49, 0
2, 80, Note_off_c, 1, 54, 0
2, 80, Note_off_c, 1, 82, 0
2, 80, Note_off_c, 1, 88, 0
2, 80, Note_off_c, 1, 94, 0
2, 120, Note_on_c, 1, 58, 127
2, 120, Note_on_c, 1, 65, 127
2, 120, Note_on_c, 1, 70, 127
2, 120, Note_on_c, 1, 73, 127
2, 120, Note_on_c, 1, 80, 127
2, 160, Note_on_c, 1, 53, 127
2, 160, Note_on_c, 1, 56, 127
2, 160, Note_off_c, 1, 58, 0
2, 160, Note_on_c, 1, 63, 127
2, 160, Note_off_c, 1, 65, 0
2, 160, Note_off_c, 1, 70, 0
2, 160, Note_on_c, 1, 83, 127
2, 200, Note_on_c, 1, 33, 127
2, 200, Note_on_c, 1, 37, 127
2, 200, Note_on_c, 1, 40, 127
2, 200, Note_on_c, 1, 45, 127
2, 200, Note_off_c, 1, 53, 0
2, 200, Note_off_c, 1, 56, 0
2, 200, Note_on_c, 1, 57, 127
2, 200, Note_on_c, 1, 61, 127
2, 200, Note_off_c, 1, 63, 0
2, 200, Note_on_c, 1, 64, 127
2, 200, Note_off_c, 1, 73, 0
2, 200, Note_off_c, 1, 80, 0
2, 200, Note_off_c, 1, 83, 0
2, 240, Note_off_c, 1, 33, 0
2, 240, Note_off_c, 1, 37, 0
2, 240, Note_off_c, 1, 40, 0
2, 240, Note_off_c, 1, 45, 0
2, 240, Note_off_c, 1, 57, 0
2, 240, Note_on_c, 1, 58, 127
2, 240, Note_off_c, 1, 61, 0
2, 240, Note_on_c, 1, 66, 127
2, 240, Note_on_c, 1, 73, 127
2, 240, Note_on_c, 1, 85, 127
2, 360, Note_off_c, 1, 58, 0
2, 360, Note_off_c, 1, 64, 0
2, 360, Note_off_c, 1, 66, 0
2, 360, Note_off_c, 1, 73, 0
2, 360, Note_off_c, 1, 85, 0
2, 400, Note_on_c, 1, 58, 127
2, 400, Note_on_c, 1, 70, 127
2, 600, Note_off_c, 1, 58, 0
2, 600, Note_off_c, 1, 70, 0
2, 640, Note_on_c, 1, 55, 127
2, 640, Note_on_c, 1, 67, 127
2, 800, Note_off_c, 1, 55, 0
2, 800, Note_off_c, 1, 67, 0
2, 880, Note_on_c, 1, 50, 127
2, 880, Note_on_c, 1, 55, 127
2, 880, Note_on_c, 1, 58, 127
2, 880, Note_on_c, 1, 62, 127
2, 1440, Note_off_c, 1, 50, 0
2, 1440, Note_off_c, 1, 55, 0
2, 1440, Note_off_c, 1, 58, 0
2, 1440, Note_off_c, 1, 62, 0
2, 3640, Note_on_c, 1, 62, 127
2, 3640, Note_on_c, 1, 77, 127
2, 3640, Note_on_c, 1, 82, 127
2, 3960, Note_off_c, 1, 62, 0
2, 3960, Note_off_c, 1, 77, 0
2, 3960, Note_off_c, 1, 82, 0
2, 4360, Note_on_c, 1, 82, 127
2, 4640, Note_on_c, 1, 39, 127
2, 4640, Note_on_c, 1, 51, 127
2, 5000, Note_off_c, 1, 39, 0
2, 5000, Note_off_c, 1, 51, 0
2, 5000, Note_off_c, 1, 82, 0
2, 5360, Note_on_c, 1, 63, 127
2, 5360, Note_on_c, 1, 67, 127
2, 5360, Note_on_c, 1, 70, 127
2, 5720, Note_off_c, 1, 70, 0
2, 5760, Note_on_c, 1, 79, 127
2, 5840, Note_off_c, 1, 79, 0
2, 5880, Note_on_c, 1, 79, 127
2, 5960, Note_off_c, 1, 79, 0
2, 6000, Note_on_c, 1, 79, 127
2, 6080, Note_off_c, 1, 63, 0
2, 6080, Note_off_c, 1, 67, 0
2, 6080, Note_off_c, 1, 79, 0
2, 6120, Note_on_c, 1, 79, 127
2, 6520, Note_off_c, 1, 79, 0
2, 6520, Note_on_c, 1, 80, 127
2, 7040, Note_off_c, 1, 80, 0
2, 7080, Note_on_c, 1, 80, 127
2, 8960, Note_off_c, 1, 80, 0
2, 9000, Note_on_c, 1, 77, 127
2, 9120, Note_off_c, 1, 77, 0
2, 9160, Note_on_c, 1, 78, 127
2, 9320, Note_off_c, 1, 78, 0
2, 9400, Note_on_c, 1, 76, 127
2, 9400, Note_on_c, 1, 80, 127
2, 9520, Note_off_c, 1, 76, 0
2, 9520, Note_off_c, 1, 80, 0
2, 9560, Note_on_c, 1, 73, 127
2, 9720, Note_off_c, 1, 73, 0
2, 9760, Note_on_c, 1, 77, 127
2, 9880, Note_off_c, 1, 77, 0
2, 9920, Note_on_c, 1, 76, 127
2, 10080, Note_off_c, 1, 76, 0
2, 10120, Note_on_c, 1, 77, 127
2, 10240, Note_off_c, 1, 77, 0
2, 10280, Note_on_c, 1, 75, 127
2, 10440, Note_off_c, 1, 75, 0
2, 10480, Note_on_c, 1, 74, 127
2, 10600, Note_off_c, 1, 74, 0
2, 10640, Note_on_c, 1, 71, 127
2, 10960, Note_off_c, 1, 71, 0
2, 11000, Note_on_c, 1, 70, 127
2, 11160, Note_off_c, 1, 70, 0
2, 11400, Note_on_c, 1, 70, 127
2, 11520, Note_off_c, 1, 70, 0
2, 11560, Note_on_c, 1, 70, 127
2, 11800, Note_on_c, 1, 61, 127
2, 12120, Note_off_c, 1, 61, 0
2, 12120, Note_off_c, 1, 70, 0
2, 12160, Note_on_c, 1, 65, 127
2, 12160, Note_on_c, 1, 72, 127
2, 12440, Note_off_c, 1, 65, 0
2, 12440, Note_off_c, 1, 72, 0
2, 12480, Note_on_c, 1, 66, 127
2, 12480, Note_on_c, 1, 73, 127
2, 12800, Note_off_c, 1, 66, 0
2, 12800, Note_off_c, 1, 73, 0
2, 12840, Note_on_c, 1, 63, 127
2, 12840, Note_on_c, 1, 72, 127
2, 13160, Note_off_c, 1, 63, 0
2, 13160, Note_off_c, 1, 72, 0
2, 13200, Note_on_c, 1, 65, 127
2, 13200, Note_on_c, 1, 75, 127
2, 13480, Note_off_c, 1, 65, 0
2, 13480, Note_off_c, 1, 75, 0
2, 13520, Note_on_c, 1, 65, 127
2, 13520, Note_on_c, 1, 75, 127
2, 13560, Note_off_c, 1, 65, 0
2, 13560, Note_off_c, 1, 75, 0
2, 13600, Note_on_c, 1, 61, 127
2, 13600, Note_on_c, 1, 73, 127
2, 13920, Note_off_c, 1, 61, 0
2, 13920, Note_off_c, 1, 73, 0
2, 13960, Note_on_c, 1, 65, 127
2, 13960, Note_on_c, 1, 73, 127
2, 14280, Note_off_c, 1, 65, 0
2, 14280, Note_off_c, 1, 73, 0
2, 14320, Note_on_c, 1, 61, 127
2, 14320, Note_on_c, 1, 72, 127
2, 14640, Note_off_c, 1, 61, 0
2, 14640, Note_off_c, 1, 72, 0
2, 14680, Note_on_c, 1, 56, 127
2, 14680, Note_on_c, 1, 71, 127
2, 14680, Note_on_c, 1, 83, 127
2, 15000, Note_off_c, 1, 56, 0
2, 15000, Note_off_c, 1, 71, 0
2, 15000, Note_off_c, 1, 83, 0
2, 15040, Note_on_c, 1, 54, 127
2, 15040, Note_on_c, 1, 62, 127
2, 15040, Note_on_c, 1, 78, 127
2, 15200, Note_off_c, 1, 78, 0
2, 15240, Note_off_c, 1, 54, 0
2, 15240, Note_off_c, 1, 62, 0
2, 15400, Note_on_c, 1, 66, 127
2, 15400, Note_on_c, 1, 73, 127
2, 15560, Note_off_c, 1, 66, 0
2, 15560, Note_off_c, 1, 73, 0
2, 15600, Note_on_c, 1, 66, 127
2, 15600, Note_on_c, 1, 73, 127
2, 15760, Note_off_c, 1, 66, 0
2, 15760, Note_off_c, 1, 73, 0
2, 15800, Note_on_c, 1, 59, 127
2, 15800, Note_on_c, 1, 71, 127
2, 15800, Note_on_c, 1, 75, 127
2, 16120, Note_off_c, 1, 59, 0
2, 16120, Note_off_c, 1, 71, 0
2, 16120, Note_off_c, 1, 75, 0
2, 16160, Note_on_c, 1, 49, 127
2, 16160, Note_on_c, 1, 59, 127
2, 16160, Note_on_c, 1, 68, 127
2, 16840, Note_off_c, 1, 59, 0
2, 16840, Note_off_c, 1, 68, 0
2, 16880, Note_on_c, 1, 58, 127
2, 16880, Note_on_c, 1, 66, 127
2, 17200, Note_off_c, 1, 49, 0
2, 17200, Note_off_c, 1, 58, 0
2, 17200, Note_off_c, 1, 66, 0
2, 17240, Note_on_c, 1, 49, 127
2, 17240, Note_on_c, 1, 56, 127
2, 17240, Note_on_c, 1, 65, 127
2, 17560, Note_off_c, 1, 49, 0
2, 17560, Note_off_c, 1, 56, 0
2, 17560, Note_off_c, 1, 65, 0
2, 17600, Note_on_c, 1, 56, 127
2, 17600, Note_on_c, 1, 66, 127
2, 17600, Note_on_c, 1, 72, 127
2, 17600, Note_on_c, 1, 80, 127
2, 17760, Note_off_c, 1, 56, 0
2, 17760, Note_off_c, 1, 66, 0
2, 17760, Note_off_c, 1, 72, 0
2, 17760, Note_off_c, 1, 80, 0
2, 17800, Note_on_c, 1, 56, 127
2, 17800, Note_on_c, 1, 66, 127
2, 17800, Note_on_c, 1, 72, 127
2, 17800, Note_on_c, 1, 80, 127
2, 17960, Note_off_c, 1, 72, 0
2, 17960, Note_off_c, 1, 80, 0
2, 18000, Note_on_c, 1, 72, 127
2, 18000, Note_on_c, 1, 80, 127
2, 18280, Note_off_c, 1, 72, 0
2, 18280, Note_off_c, 1, 80, 0
2, 18320, Note_off_c, 1, 56, 0
2, 18320, Note_off_c, 1, 66, 0
2, 18360, Note_on_c, 1, 56, 127
2, 18360, Note_on_c, 1, 66, 127
2, 18360, Note_on_c, 1, 68, 127
2, 18360, Note_on_c, 1, 75, 127
2, 18640, Note_off_c, 1, 75, 0
2, 18680, Note_off_c, 1, 66, 0
2, 18680, Note_off_c, 1, 68, 0
2, 18720, Note_on_c, 1, 66, 127
2, 18720, Note_on_c, 1, 73, 127
2, 18920, Note_on_c, 1, 72, 127
2, 18920, Note_off_c, 1, 73, 0
2, 18960, Note_off_c, 1, 72, 0
2, 18960, Note_on_c, 1, 73, 127
2, 19040, Note_off_c, 1, 56, 0
2, 19040, Note_off_c, 1, 66, 0
2, 19040, Note_off_c, 1, 73, 0
2, 19080, Note_on_c, 1, 61, 127
2, 19080, Note_on_c, 1, 65, 127
2, 19080, Note_on_c, 1, 73, 127
2, 19360, Note_off_c, 1, 61, 0
2, 19360, Note_off_c, 1, 73, 0
2, 19400, Note_on_c, 1, 56, 127
2, 19400, Note_on_c, 1, 77, 127
2, 19720, Note_off_c, 1, 56, 0
2, 19720, Note_off_c, 1, 65, 0
2, 19720, Note_off_c, 1, 77, 0
2, 19760, Note_on_c, 1, 44, 127
2, 19760, Note_on_c, 1, 60, 127
2, 19760, Note_on_c, 1, 69, 127
2, 19880, Note_off_c, 1, 44, 0
2, 19880, Note_off_c, 1, 60, 0
2, 19880, Note_off_c, 1, 69, 0
2, 19920, Note_on_c, 1, 44, 127
2, 19920, Note_on_c, 1, 60, 127
2, 19920, Note_on_c, 1, 69, 127
2, 19960, Note_off_c, 1, 69, 0
2, 20000, Note_on_c, 1, 68, 127
2, 20120, Note_off_c, 1, 60, 0
2, 20160, Note_on_c, 1, 53, 127
2, 20160, Note_on_c, 1, 61, 127
2, 20480, Note_off_c, 1, 53, 0
2, 20480, Note_off_c, 1, 61, 0
2, 20480, Note_off_c, 1, 68, 0
2, 20520, Note_on_c, 1, 53, 127
2, 20520, Note_on_c, 1, 68, 127
2, 20800, Note_off_c, 1, 53, 0
2, 20800, Note_off_c, 1, 68, 0
2, 20840, Note_off_c, 1, 44, 0
2, 20880, Note_on_c, 1, 40, 127
2, 20880, Note_on_c, 1, 49, 127
2, 20880, Note_on_c, 1, 56, 127
2, 21000, Note_off_c, 1, 56, 0
2, 21040, Note_on_c, 1, 56, 127
2, 21160, Note_off_c, 1, 56, 0
2, 21200, Note_off_c, 1, 40, 0
2, 21200, Note_on_c, 1, 44, 127
2, 21200, Note_off_c, 1, 49, 0
2, 21240, Note_on_c, 1, 41, 127
2, 21240, Note_off_c, 1, 44, 0
2, 21240, Note_on_c, 1, 50, 127
2, 21240, Note_on_c, 1, 58, 127
2, 21520, Note_off_c, 1, 41, 0
2, 21520, Note_off_c, 1, 50, 0
2, 21520, Note_off_c, 1, 58, 0
2, 21560, Note_on_c, 1, 42, 127
2, 21560, Note_on_c, 1, 51, 127
2, 21560, Note_on_c, 1, 58, 127
2, 21720, Note_off_c, 1, 58, 0
2, 21760, Note_on_c, 1, 58, 127
2, 21880, Note_off_c, 1, 42, 0
2, 21880, Note_off_c, 1, 51, 0
2, 21880, Note_off_c, 1, 58, 0
2, 21960, Note_on_c, 1, 41, 127
2, 21960, Note_on_c, 1, 50, 127
2, 21960, Note_on_c, 1, 58, 127
2, 22280, Note_off_c, 1, 41, 0
2, 22280, Note_off_c, 1, 50, 0
2, 22280, Note_off_c, 1, 58, 0
2, 22320, Note_on_c, 1, 42, 127
2, 22320, Note_on_c, 1, 51, 127
2, 22320, Note_on_c, 1, 58, 127
2, 22440, Note_off_c, 1, 58, 0
2, 22480, Note_on_c, 1, 58, 127
2, 22600, Note_off_c, 1, 58, 0
2, 22640, Note_off_c, 1, 42, 0
2, 22640, Note_off_c, 1, 51, 0
2, 22680, Note_on_c, 1, 41, 127
2, 22680, Note_on_c, 1, 50, 127
2, 22680, Note_on_c, 1, 58, 127
2, 22800, Note_off_c, 1, 58, 0
2, 22840, Note_on_c, 1, 58, 127
2, 22960, Note_off_c, 1, 50, 0
2, 22960, Note_off_c, 1, 58, 0
2, 23000, Note_off_c, 1, 41, 0
2, 23040, Note_on_c, 1, 46, 127
2, 23040, Note_on_c, 1, 49, 127
2, 23040, Note_on_c, 1, 58, 127
2, 23360, Note_off_c, 1, 58, 0
2, 23400, Note_off_c, 1, 49, 0
2, 23400, Note_on_c, 1, 58, 127
2, 23400, Note_on_c, 1, 61, 127
2, 23400, Note_on_c, 1, 70, 127
2, 23680, Note_off_c, 1, 46, 0
2, 23680, Note_off_c, 1, 58, 0
2, 23680, Note_off_c, 1, 61, 0
2, 23680, Note_off_c, 1, 70, 0
2, 23720, Note_on_c, 1, 34, 127
2, 23920, Note_off_c, 1, 34, 0
2, 23960, Note_on_c, 1, 34, 127
2, 24080, Note_off_c, 1, 34, 0
2, 24120, Note_on_c, 1, 38, 127
2, 24120, Note_on_c, 1, 45, 127
2, 24120, Note_on_c, 1, 50, 127
2, 24120, Note_on_c, 1, 89, 127
2, 24400, Note_on_c, 1, 77, 127
2, 24400, Note_off_c, 1, 89, 0
2, 24440, Note_off_c, 1, 77, 0
2, 24480, Note_on_c, 1, 77, 127
2, 25400, Note_off_c, 1, 77, 0
2, 25440, Note_on_c, 1, 89, 127
2, 25480, Note_off_c, 1, 89, 0
2, 25520, Note_on_c, 1, 77, 127
2, 25800, Note_off_c, 1, 77, 0
2, 25840, Note_off_c, 1, 38, 0
2, 25840, Note_off_c, 1, 45, 0
2, 25840, Note_off_c, 1, 50, 0
2, 25920, Note_on_c, 1, 30, 127
2, 25920, Note_on_c, 1, 38, 127
2, 25920, Note_on_c, 1, 42, 127
2, 25920, Note_on_c, 1, 54, 127
2, 26280, Note_off_c, 1, 54, 0
2, 26280, Note_on_c, 1, 57, 127
2, 26320, Note_on_c, 1, 54, 127
2, 26320, Note_off_c, 1, 57, 0
2, 26360, Note_off_c, 1, 54, 0
2, 26360, Note_on_c, 1, 57, 127
2, 26400, Note_on_c, 1, 50, 127
2, 26400, Note_off_c, 1, 57, 0
2, 26440, Note_off_c, 1, 50, 0
2, 26440, Note_on_c, 1, 62, 127
2, 27320, Note_off_c, 1, 30, 0
2, 27320, Note_off_c, 1, 38, 0
2, 27320, Note_off_c, 1, 42, 0
2, 27320, Note_on_c, 1, 59, 127
2, 27320, Note_off_c, 1, 62, 0
2, 27320, Note_on_c, 1, 78, 127
2, 27320, Note_on_c, 1, 86, 127
2, 27360, Note_on_c, 1, 40, 127
2, 27360, Note_on_c, 1, 42, 127
2, 27360, Note_on_c, 1, 49, 127
2, 27360, Note_off_c, 1, 59, 0
2, 27360, Note_off_c, 1, 78, 0
2, 27360, Note_off_c, 1, 86, 0
2, 27360, Note_on_c, 1, 95, 127
2, 27400, Note_off_c, 1, 40, 0
2, 27400, Note_off_c, 1, 42, 0
2, 27400, Note_off_c, 1, 49, 0
2, 27400, Note_on_c, 1, 58, 127
2, 27400, Note_on_c, 1, 65, 127
2, 27400, Note_off_c, 1, 95, 0
2, 27440, Note_off_c, 1, 58, 0
2, 27440, Note_off_c, 1, 65, 0
2, 27440, Note_on_c, 1, 69, 127
2, 27440, Note_on_c, 1, 73, 127
2, 27440, Note_on_c, 1, 77, 127
2, 27440, Note_on_c, 1, 84, 127
2, 27480, Note_off_c, 1, 69, 0
2, 27480, Note_off_c, 1, 73, 0
2, 27480, Note_off_c, 1, 77, 0
2, 27480, Note_off_c, 1, 84, 0
2, 27480, Note_on_c, 1, 87, 127
2, 27480, Note_on_c, 1, 91, 127
2, 27520, Note_on_c, 1, 53, 127
2, 27520, Note_on_c, 1, 56, 127
2, 27520, Note_on_c, 1, 70, 127
2, 27520, Note_on_c, 1, 80, 127
2, 27520, Note_off_c, 1, 87, 0
2, 27520, Note_off_c, 1, 91, 0
2, 27560, Note_off_c, 1, 53, 0
2, 27560, Note_off_c, 1, 56, 0
2, 27560, Note_on_c, 1, 59, 127
2, 27560, Note_off_c, 1, 70, 0
2, 27560, Note_off_c, 1, 80, 0
2, 27560, Note_on_c, 1, 88, 127
2, 27560, Note_on_c, 1, 95, 127
2, 27560, Note_on_c, 1, 97, 127
2, 27600, Note_on_c, 1, 44, 127
2, 27600, Note_on_c, 1, 48, 127
2, 27600, Note_on_c, 1, 53, 127
2, 27600, Note_off_c, 1, 59, 0
2, 27600, Note_off_c, 1, 88, 0
2, 27600, Note_on_c, 1, 92, 127
2, 27600, Note_off_c, 1, 95, 0
2, 27600, Note_off_c, 1, 97, 0
2, 27640, Note_on_c, 1, 37, 127
2, 27640, Note_off_c, 1, 44, 0
2, 27640, Note_off_c, 1, 48, 0
2, 27640, Note_off_c, 1, 53, 0
2, 27640, Note_on_c, 1, 76, 127
2, 27640, Note_on_c, 1, 81, 127
2, 27640, Note_off_c, 1, 92, 0
2, 27680, Note_off_c, 1, 37, 0
2, 27680, Note_on_c, 1, 40, 127
2, 27680, Note_on_c, 1, 44, 127
2, 27680, Note_on_c, 1, 47, 127
2, 27680, Note_on_c, 1, 52, 127
2, 27680, Note_off_c, 1, 76, 0
2, 27680, Note_off_c, 1, 81, 0
2, 27720, Note_on_c, 1, 29, 127
2, 27720, Note_off_c, 1, 40, 0
2, 27720, Note_off_c, 1, 44, 0
2, 27720, Note_off_c, 1, 47, 0
2, 27720, Note_off_c, 1, 52, 0
2, 27720, Note_on_c, 1, 54, 127
2, 27760, Note_off_c, 1, 29, 0
2, 27760, Note_on_c, 1, 49, 127
2, 27760, Note_off_c, 1, 54, 0
2, 27760, Note_on_c, 1, 75, 127
2, 27760, Note_on_c, 1, 82, 127
2, 27800, Note_off_c, 1, 49, 0
2, 27800, Note_off_c, 1, 75, 0
2, 27800, Note_off_c, 1, 82, 0
2, 27840, Note_on_c, 1, 45, 127
2, 27840, Note_on_c, 1, 54, 127
2, 27840, Note_on_c, 1, 57, 127
2, 27840, Note_on_c, 1, 63, 127
2, 27840, Note_on_c, 1, 69, 127
2, 27880, Note_on_c, 1, 34, 127
2, 27880, Note_off_c, 1, 45, 0
2, 27880, Note_off_c, 1, 54, 0
2, 27880, Note_off_c, 1, 57, 0
2, 27880, Note_off_c, 1, 63, 0
2, 27880, Note_off_c, 1, 69, 0
2, 27880, Note_on_c, 1, 87, 127
2, 27880, Note_on_c, 1, 91, 127
2, 27880, Note_on_c, 1, 94, 127
2, 27880, Note_on_c, 1, 99, 127
2, 27920, Note_off_c, 1, 34, 0
2, 27920, Note_on_c, 1, 63, 127
2, 27920, Note_on_c, 1, 65, 127
2, 27920, Note_on_c, 1, 71, 127
2, 27920, Note_off_c, 1, 87, 0
2, 27920, Note_off_c, 1, 91, 0
2, 27920, Note_off_c, 1, 99, 0
2, 27960, Note_on_c, 1, 41, 127
2, 27960, Note_on_c, 1, 49, 127
2, 27960, Note_on_c, 1, 61, 127
2, 27960, Note_off_c, 1, 63, 0
2, 27960, Note_off_c, 1, 65, 0
2, 27960, Note_off_c, 1, 71, 0
2, 27960, Note_on_c, 1, 72, 127
2, 27960, Note_off_c, 1, 94, 0
2, 28000, Note_off_c, 1, 41, 0
2, 28000, Note_off_c, 1, 49, 0
2, 28000, Note_off_c, 1, 61, 0
2, 28000, Note_on_c, 1, 63, 127
2, 28000, Note_on_c, 1, 69, 127
2, 28000, Note_on_c, 1, 81, 127
2, 28000, Note_on_c, 1, 89, 127
2, 28000, Note_on_c, 1, 93, 127
2, 28040, Note_off_c, 1, 63, 0
2, 28040, Note_off_c, 1, 69, 0
2, 28040, Note_off_c, 1, 72, 0
2, 28040, Note_off_c, 1, 81, 0
2, 28040, Note_off_c, 1, 89, 0
2, 28040, Note_on_c, 1, 91, 127
2, 28040, Note_off_c, 1, 93, 0
2, 28080, Note_on_c, 1, 50, 127
2, 28080, Note_on_c, 1, 59, 127
2, 28080, Note_on_c, 1, 62, 127
2, 28080, Note_on_c, 1, 74, 127
2, 28080, Note_on_c, 1, 86, 127
2, 28080, Note_off_c, 1, 91, 0
2, 28120, Note_on_c, 1, 46, 127
2, 28120, Note_off_c, 1, 50, 0
2, 28120, Note_off_c, 1, 59, 0
2, 28120, Note_off_c, 1, 62, 0
2, 28120, Note_on_c, 1, 63, 127
2, 28120, Note_on_c, 1, 67, 127
2, 28120, Note_on_c, 1, 70, 127
2, 28120, Note_off_c, 1, 74, 0
2, 28120, Note_off_c, 1, 86, 0
2, 28160, Note_on_c, 1, 55, 127
2, 28160, Note_on_c, 1, 58, 127
2, 28160, Note_off_c, 1, 63, 0
2, 28160, Note_off_c, 1, 67, 0
2, 28160, Note_off_c, 1, 70, 0
2, 28160, Note_on_c, 1, 86, 127
2, 28200, Note_off_c, 1, 46, 0
2, 28200, Note_off_c, 1, 55, 0
2, 28200, Note_on_c, 1, 57, 127
2, 28200, Note_off_c, 1, 58, 0
2, 28200, Note_on_c, 1, 60, 127
2, 28200, Note_on_c, 1, 64, 127
2, 28200, Note_on_c, 1, 72, 127
2, 28200, Note_on_c, 1, 81, 127
2, 28200, Note_off_c, 1, 86, 0
2, 28240, Note_on_c, 1, 55, 127
2, 28240, Note_off_c, 1, 57, 0
2, 28240, Note_off_c, 1, 60, 0
2, 28240, Note_on_c, 1, 62, 127
2, 28240, Note_off_c, 1, 64, 0
2, 28240, Note_on_c, 1, 67, 127
2, 28240, Note_on_c, 1, 70, 127
2, 28240, Note_off_c, 1, 72, 0
2, 28240, Note_on_c, 1, 74, 127
2, 28240, Note_off_c, 1, 81, 0
2, 28280, Note_on_c, 1, 42, 127
2, 28280, Note_off_c, 1, 55, 0
2, 28280, Note_off_c, 1, 62, 0
2, 28280, Note_off_c, 1, 67, 0
2, 28280, Note_off_c, 1, 70, 0
2, 28280, Note_off_c, 1, 74, 0
2, 28280, Note_on_c, 1, 93, 127
2, 28280, Note_on_c, 1, 95, 127
2, 28320, Note_on_c, 1, 39, 127
2, 28320, Note_off_c, 1, 42, 0
2, 28320, Note_on_c, 1, 51, 127
2, 28320, Note_on_c, 1, 63, 127
2, 28320, Note_on_c, 1, 66, 127
2, 28320, Note_on_c, 1, 75, 127
2, 28320, Note_off_c, 1, 93, 0
2, 28320, Note_off_c, 1, 95, 0
2, 28360, Note_off_c, 1, 39, 0
2, 28360, Note_on_c, 1, 49, 127
2, 28360, Note_off_c, 1, 51, 0
2, 28360, Note_on_c, 1, 54, 127
2, 28360, Note_on_c, 1, 56, 127
2, 28360, Note_on_c, 1, 60, 127
2, 28360, Note_off_c, 1, 63, 0
2, 28360, Note_off_c, 1, 66, 0
2, 28360, Note_off_c, 1, 75, 0
2, 28360, Note_on_c, 1, 84, 127
2, 28400, Note_off_c, 1, 49, 0
2, 28400, Note_off_c, 1, 54, 0
2, 28400, Note_off_c, 1, 56, 0
2, 28400, Note_off_c, 1, 60, 0
2, 28400, Note_off_c, 1, 84, 0
2, 28400, Note_on_c, 1, 86, 127
2, 28440, Note_on_c, 1, 44, 127
2, 28440, Note_on_c, 1, 53, 127
2, 28440, Note_on_c, 1, 61, 127
2, 28440, Note_on_c, 1, 65, 127
2, 28440, Note_off_c, 1, 86, 0
2, 28760, Note_off_c, 1, 44, 0
2, 28760, Note_off_c, 1, 53, 0
2, 28760, Note_off_c, 1, 61, 0
2, 28760, Note_off_c, 1, 65, 0
2, 28760, Note_on_c, 1, 69, 127
2, 28760, Note_on_c, 1, 72, 127
2, 28760, Note_on_c, 1, 77, 127
2, 28800, Note_on_c, 1, 39, 127
2, 28800, Note_on_c, 1, 46, 127
2, 28800, Note_on_c, 1, 51, 127
2, 28800, Note_off_c, 1, 69, 0
2, 28800, Note_off_c, 1, 72, 0
2, 28800, Note_on_c, 1, 75, 127
2, 28800, Note_off_c, 1, 77, 0
2, 29120, Note_off_c, 1, 39, 0
2, 29120, Note_off_c, 1, 46, 0
2, 29120, Note_off_c, 1, 51, 0
2, 29120, Note_off_c, 1, 75, 0
2, 29160, Note_on_c, 1, 29, 127
2, 29160, Note_on_c, 1, 36, 127
2, 29160, Note_on_c, 1, 51, 127
2, 29160, Note_on_c, 1, 57, 127
2, 29200, Note_off_c, 1, 29, 0
2, 29200, Note_off_c, 1, 36, 0
2, 29200, Note_on_c, 1, 42, 127
2, 29200, Note_off_c, 1, 57, 0
2, 29200, Note_on_c, 1, 77, 127
2, 29240, Note_off_c, 1, 42, 0
2, 29240, Note_on_c, 1, 53, 127
2, 29240, Note_on_c, 1, 56, 127
2, 29240, Note_on_c, 1, 61, 127
2, 29240, Note_on_c, 1, 65, 127
2, 29240, Note_on_c, 1, 68, 127
2, 29240, Note_on_c, 1, 73, 127
2, 29240, Note_off_c, 1, 77, 0
2, 29280, Note_on_c, 1, 32, 127
2, 29280, Note_off_c, 1, 51, 0
2, 29280, Note_off_c, 1, 53, 0
2, 29280, Note_off_c, 1, 56, 0
2, 29280, Note_off_c, 1, 61, 0
2, 29280, Note_off_c, 1, 65, 0
2, 29280, Note_off_c, 1, 68, 0
2, 29280, Note_on_c, 1, 70, 127
2, 29280, Note_off_c, 1, 73, 0
2, 29320, Note_off_c, 1, 32, 0
2, 29320, Note_on_c, 1, 43, 127
2, 29320, Note_on_c, 1, 50, 127
2, 29320, Note_on_c, 1, 54, 127
2, 29320, Note_on_c, 1, 64, 127
2, 29320, Note_off_c, 1, 70, 0
2, 29320, Note_on_c, 1, 72, 127
2, 29320, Note_on_c, 1, 76, 127
2, 29360, Note_off_c, 1, 43, 0
2, 29360, Note_off_c, 1, 50, 0
2, 29360, Note_off_c, 1, 54, 0
2, 29360, Note_on_c, 1, 55, 127
2, 29360, Note_on_c, 1, 63, 127
2, 29360, Note_off_c, 1, 64, 0
2, 29360, Note_on_c, 1, 71, 127
2, 29360, Note_off_c, 1, 72, 0
2, 29360, Note_on_c, 1, 74, 127
2, 29360, Note_on_c, 1, 75, 127
2, 29360, Note_off_c, 1, 76, 0
2, 29400, Note_on_c, 1, 53, 127
2, 29400, Note_off_c, 1, 55, 0
2, 29400, Note_on_c, 1, 65, 127
2, 29400, Note_on_c, 1, 69, 127
2, 29400, Note_off_c, 1, 71, 0
2, 29400, Note_on_c, 1, 72, 127
2, 29400, Note_off_c, 1, 74, 0
2, 29400, Note_off_c, 1, 75, 0
2, 29400, Note_on_c, 1, 77, 127
2, 29440, Note_on_c, 1, 38, 127
2, 29440, Note_on_c, 1, 41, 127
2, 29440, Note_on_c, 1, 49, 127
2, 29440, Note_on_c, 1, 52, 127
2, 29440, Note_off_c, 1, 53, 0
2, 29440, Note_on_c, 1, 55, 127
2, 29440, Note_on_c, 1, 61, 127
2, 29440, Note_off_c, 1, 63, 0
2, 29440, Note_off_c, 1, 65, 0
2, 29440, Note_off_c, 1, 69, 0
2, 29440, Note_off_c, 1, 72, 0
2, 29440, Note_off_c, 1, 77, 0
2, 29480, Note_off_c, 1, 38, 0
2, 29480, Note_off_c, 1, 41, 0
2, 29480, Note_off_c, 1, 49, 0
2, 29480, Note_off_c, 1, 52, 0
2, 29480, Note_off_c, 1, 55, 0
2, 29480, Note_off_c, 1, 61, 0
2, 29520, Note_on_c, 1, 35, 127
2, 29520, Note_on_c, 1, 47, 127
2, 29520, Note_on_c, 1, 51, 127
2, 29520, Note_on_c, 1, 63, 127
2, 29520, Note_on_c, 1, 73, 127
2, 29520, Note_on_c, 1, 80, 127
2, 29520, Note_on_c, 1, 85, 127
2, 29760, Note_off_c, 1, 35, 0
2, 29760, Note_off_c, 1, 47, 0
2, 29760, Note_off_c, 1, 51, 0
2, 29760, Note_off_c, 1, 63, 0
2, 29760, Note_off_c, 1, 73, 0
2, 29760, Note_off_c, 1, 80, 0
2, 29760, Note_off_c, 1, 85, 0
2, 29800, Note_on_c, 1, 35, 127
2, 29800, Note_on_c, 1, 47, 127
2, 29800, Note_on_c, 1, 51, 127
2, 29800, Note_on_c, 1, 63, 127
2, 29800, Note_on_c, 1, 73, 127
2, 29800, Note_on_c, 1, 80, 127
2, 29800, Note_on_c, 1, 85, 127
2, 29840, Note_off_c, 1, 35, 0
2, 29840, Note_off_c, 1, 47, 0
2, 29840, Note_off_c, 1, 51, 0
2, 29840, Note_off_c, 1, 63, 0
2, 29840, Note_off_c, 1, 73, 0
2, 29840, Note_off_c, 1, 80, 0
2, 29840, Note_off_c, 1, 85, 0
2, 29880, Note_on_c, 1, 35, 127
2, 29880, Note_on_c, 1, 47, 127
2, 29880, Note_on_c, 1, 78, 127
2, 29880, Note_on_c, 1, 83, 127
2, 29880, Note_on_c, 1, 88, 127
2, 29880, Note_on_c, 1, 90, 127
2, 30240, Note_off_c, 1, 35, 0
2, 30240, Note_off_c, 1, 47, 0
2, 30240, Note_on_c, 1, 49, 127
2, 30240, Note_on_c, 1, 56, 127
2, 30240, Note_on_c, 1, 58, 127
2, 30240, Note_on_c, 1, 64, 127
2, 30240, Note_on_c, 1, 68, 127
2, 30240, Note_on_c, 1, 70, 127
2, 30240, Note_off_c, 1, 78, 0
2, 30240, Note_off_c, 1, 83, 0
2, 30240, Note_off_c, 1, 88, 0
2, 30240, Note_off_c, 1, 90, 0
2, 30280, Note_off_c, 1, 70, 0
2, 30320, Note_on_c, 1, 70, 127
2, 30560, Note_off_c, 1, 49, 0
2, 30560, Note_off_c, 1, 56, 0
2, 30560, Note_off_c, 1, 58, 0
2, 30560, Note_off_c, 1, 64, 0
2, 30560, Note_off_c, 1, 68, 0
2, 30560, Note_off_c, 1, 70, 0
2, 30600, Note_on_c, 1, 34, 127
2, 30600, Note_on_c, 1, 50, 127
2, 30600, Note_on_c, 1, 58, 127
2, 30600, Note_on_c, 1, 68, 127
2, 31280, Note_off_c, 1, 34, 0
2, 31280, Note_off_c, 1, 50, 0
2, 31280, Note_off_c, 1, 58, 0
2, 31280, Note_off_c, 1, 68, 0
2, 31320, Note_on_c, 1, 46, 127
2, 31320, Note_on_c, 1, 62, 127
2, 31320, Note_on_c, 1, 71, 127
2, 31600, Note_off_c, 1, 46, 0
2, 31640, Note_on_c, 1, 53, 127
2, 31840, Note_off_c, 1, 53, 0
2, 31840, Note_off_c, 1, 62, 0
2, 31840, Note_off_c, 1, 71, 0
2, 31880, Note_on_c, 1, 53, 127
2, 31880, Note_on_c, 1, 62, 127
2, 31880, Note_on_c, 1, 71, 127
2, 32000, Note_off_c, 1, 53, 0
2, 32000, Note_off_c, 1, 62, 0
2, 32000, Note_off_c, 1, 71, 0
2, 32040, Note_on_c, 1, 50, 127
2, 32040, Note_on_c, 1, 58, 127
2, 32040, Note_on_c, 1, 77, 127
2, 32200, Note_off_c, 1, 50, 0
2, 32200, Note_off_c, 1, 58, 0
2, 32200, Note_on_c, 1, 61, 127
2, 32200, Note_on_c, 1, 70, 127
2, 32360, Note_on_c, 1, 58, 127
2, 32360, Note_off_c, 1, 61, 0
2, 32360, Note_off_c, 1, 70, 0
2, 32360, Note_off_c, 1, 77, 0
2, 32400, Note_on_c, 1, 66, 127
2, 32400, Note_on_c, 1, 82, 127
2, 32720, Note_off_c, 1, 58, 0
2, 32720, Note_on_c, 1, 65, 127
2, 32720, Note_off_c, 1, 66, 0
2, 32720, Note_off_c, 1, 82, 0
2, 32760, Note_on_c, 1, 59, 127
2, 32760, Note_on_c, 1, 74, 127
2, 33040, Note_off_c, 1, 59, 0
2, 33040, Note_off_c, 1, 74, 0
2, 33080, Note_on_c, 1, 55, 127
2, 33080, Note_on_c, 1, 74, 127
2, 33760, Note_off_c, 1, 55, 0
2, 33760, Note_off_c, 1, 65, 0
2, 33760, Note_off_c, 1, 74, 0
2, 33800, Note_on_c, 1, 48, 127
2, 33800, Note_on_c, 1, 64, 127
2, 33800, Note_on_c, 1, 72, 127
2, 33920, Note_off_c, 1, 48, 0
2, 33920, Note_off_c, 1, 64, 0
2, 33920, Note_off_c, 1, 72, 0
2, 33960, Note_on_c, 1, 48, 127
2, 33960, Note_on_c, 1, 64, 127
2, 33960, Note_on_c, 1, 72, 127
2, 34160, Note_on_c, 1, 55, 127
2, 34160, Note_off_c, 1, 64, 0
2, 34160, Note_off_c, 1, 72, 0
2, 34200, Note_on_c, 1, 52, 127
2, 34200, Note_off_c, 1, 55, 0
2, 34200, Note_on_c, 1, 67, 127
2, 34520, Note_off_c, 1, 52, 0
2, 34520, Note_off_c, 1, 67, 0
2, 34880, Note_off_c, 1, 48, 0
2, 34920, Note_on_c, 1, 34, 127
2, 34920, Note_on_c, 1, 46, 127
2, 34920, Note_on_c, 1, 53, 127
2, 34920, Note_on_c, 1, 62, 127
2, 35560, Note_off_c, 1, 53, 0
2, 35600, Note_on_c, 1, 53, 127
2, 35880, Note_off_c, 1, 34, 0
2, 35880, Note_off_c, 1, 46, 0
2, 35880, Note_off_c, 1, 53, 0
2, 35880, Note_off_c, 1, 62, 0
2, 35920, Note_on_c, 1, 34, 127
2, 36040, Note_off_c, 1, 34, 0
2, 36080, Note_on_c, 1, 34, 127
2, 36320, Note_off_c, 1, 34, 0
2, 36320, Note_on_c, 1, 41, 127
2, 36320, Note_on_c, 1, 48, 127
2, 36320, Note_on_c, 1, 55, 127
2, 36320, Note_on_c, 1, 60, 127
2, 36560, Note_off_c, 1, 60, 0
2, 36600, Note_on_c, 1, 64, 127
2, 36640, Note_off_c, 1, 64, 0
2, 36680, Note_on_c, 1, 64, 127
2, 37000, Note_on_c, 1, 34, 127
2, 37000, Note_off_c, 1, 41, 0
2, 37000, Note_off_c, 1, 48, 0
2, 37000, Note_off_c, 1, 55, 0
2, 37000, Note_off_c, 1, 64, 0
2, 37040, Note_off_c, 1, 34, 0
2, 37040, Note_on_c, 1, 70, 127
2, 37040, Note_on_c, 1, 72, 127
2, 37040, Note_on_c, 1, 78, 127
2, 37040, Note_on_c, 1, 87, 127
2, 37040, Note_on_c, 1, 89, 127
2, 37040, Note_on_c, 1, 93, 127
2, 37360, Note_on_c, 1, 77, 127
2, 37360, Note_off_c, 1, 78, 0
2, 37680, Note_off_c, 1, 70, 0
2, 37680, Note_off_c, 1, 72, 0
2, 37680, Note_off_c, 1, 77, 0
2, 37680, Note_on_c, 1, 78, 127
2, 37680, Note_off_c, 1, 87, 0
2, 37680, Note_off_c, 1, 89, 0
2, 37680, Note_off_c, 1, 93, 0
2, 37720, Note_off_c, 1, 78, 0
2, 37760, Note_on_c, 1, 52, 127
2, 37760, Note_on_c, 1, 57, 127
2, 37760, Note_on_c, 1, 60, 127
2, 37760, Note_on_c, 1, 64, 127
2, 37760, Note_on_c, 1, 76, 127
2, 38120, Note_off_c, 1, 52, 0
2, 38120, Note_off_c, 1, 57, 0
2, 38120, Note_off_c, 1, 60, 0
2, 38120, Note_off_c, 1, 64, 0
2, 38120, Note_off_c, 1, 76, 0
2, 38160, Note_on_c, 1, 52, 127
2, 38160, Note_on_c, 1, 57, 127
2, 38160, Note_on_c, 1, 60, 127
2, 38160, Note_on_c, 1, 64, 127
2, 38160, Note_on_c, 1, 76, 127
2, 38800, Note_off_c, 1, 52, 0
2, 38800, Note_off_c, 1, 57, 0
2, 38800, Note_off_c, 1, 60, 0
2, 38800, Note_off_c, 1, 64, 0
2, 38800, Note_off_c, 1, 76, 0
2, 38840, Note_on_c, 1, 34, 127
2, 39200, Note_on_c, 1, 46, 127
2, 39200, Note_on_c, 1, 70, 127
2, 39200, Note_on_c, 1, 74, 127
2, 39200, Note_on_c, 1, 77, 127
2, 39200, Note_on_c, 1, 82, 127
2, 39480, Note_off_c, 1, 34, 0
2, 39480, Note_off_c, 1, 46, 0
2, 39480, Note_off_c, 1, 70, 0
2, 39480, Note_off_c, 1, 74, 0
2, 39480, Note_off_c, 1, 77, 0
2, 39480, Note_off_c, 1, 82, 0
2, 39520, Note_on_c, 1, 34, 127
2, 39840, Note_off_c, 1, 34, 0
2, 39880, Note_on_c, 1, 34, 127
2, 40160, Note_off_c, 1, 34, 0
2, 40200, Note_on_c, 1, 32, 127
2, 40240, Note_off_c, 1, 32, 0
2, 40280, Note_on_c, 1, 39, 127
2, 40600, Note_on_c, 1, 58, 127
2, 40920, Note_off_c, 1, 39, 0
2, 40920, Note_off_c, 1, 58, 0
2, 40960, Note_on_c, 1, 58, 127
2, 40960, Note_on_c, 1, 63, 127
2, 41280, Note_off_c, 1, 58, 0
2, 41320, Note_on_c, 1, 56, 127
2, 41320, Note_off_c, 1, 63, 0
2, 41320, Note_on_c, 1, 65, 127
2, 41440, Note_off_c, 1, 65, 0
2, 41480, Note_on_c, 1, 68, 127
2, 41600, Note_off_c, 1, 68, 0
2, 41640, Note_on_c, 1, 46, 127
2, 41640, Note_off_c, 1, 56, 0
2, 41640, Note_on_c, 1, 74, 127
2, 41640, Note_on_c, 1, 76, 127
2, 41760, Note_on_c, 1, 67, 127
2, 41760, Note_off_c, 1, 74, 0
2, 41800, Note_off_c, 1, 67, 0
2, 41800, Note_on_c, 1, 74, 127
2, 41960, Note_off_c, 1, 46, 0
2, 41960, Note_on_c, 1, 47, 127
2, 41960, Note_on_c, 1, 58, 127
2, 41960, Note_off_c, 1, 74, 0
2, 41960, Note_off_c, 1, 76, 0
2, 42000, Note_off_c, 1, 47, 0
2, 42000, Note_on_c, 1, 51, 127
2, 42000, Note_off_c, 1, 58, 0
2, 42000, Note_on_c, 1, 61, 127
2, 42000, Note_on_c, 1, 79, 127
2, 42200, Note_off_c, 1, 51, 0
2, 42200, Note_off_c, 1, 61, 0
2, 42200, Note_off_c, 1, 79, 0
2, 42240, Note_on_c, 1, 51, 127
2, 42240, Note_on_c, 1, 61, 127
2, 42240, Note_on_c, 1, 79, 127
2, 42360, Note_off_c, 1, 61, 0
2, 42360, Note_off_c, 1, 79, 0
2, 42400, Note_on_c, 1, 61, 127
2, 42400, Note_on_c, 1, 79, 127
2, 42720, Note_off_c, 1, 61, 0
2, 42760, Note_on_c, 1, 61, 127
2, 43080, Note_off_c, 1, 61, 0
2, 43080, Note_off_c, 1, 79, 0
2, 43120, Note_on_c, 1, 56, 127
2, 43120, Note_on_c, 1, 72, 127
2, 43280, Note_on_c, 1, 61, 127
2, 43440, Note_off_c, 1, 56, 0
2, 43440, Note_off_c, 1, 61, 0
2, 43440, Note_off_c, 1, 72, 0
2, 43480, Note_on_c, 1, 55, 127
2, 43480, Note_on_c, 1, 70, 127
2, 43720, Note_on_c, 1, 63, 127
2, 43760, Note_off_c, 1, 55, 0
2, 43760, Note_off_c, 1, 63, 0
2, 43760, Note_off_c, 1, 70, 0
2, 43800, Note_on_c, 1, 44, 127
2, 43800, Note_off_c, 1, 51, 0
2, 43800, Note_on_c, 1, 63, 127
2, 43800, Note_on_c, 1, 71, 127
2, 44120, Note_off_c, 1, 44, 0
2, 44160, Note_on_c, 1, 54, 127
2, 44320, Note_off_c, 1, 71, 0
2, 44360, Note_off_c, 1, 54, 0
2, 44360, Note_off_c, 1, 63, 0
2, 44400, Note_on_c, 1, 54, 127
2, 44400, Note_on_c, 1, 63, 127
2, 44400, Note_on_c, 1, 71, 127
2, 44520, Note_off_c, 1, 54, 0
2, 44520, Note_off_c, 1, 63, 0
2, 44520, Note_off_c, 1, 71, 0
2, 44560, Note_on_c, 1, 44, 127
2, 44560, Note_on_c, 1, 63, 127
2, 44560, Note_on_c, 1, 71, 127
2, 44880, Note_off_c, 1, 44, 0
2, 44920, Note_on_c, 1, 54, 127
2, 45240, Note_off_c, 1, 54, 0
2, 45280, Note_on_c, 1, 54, 127
2, 45280, Note_off_c, 1, 63, 0
2, 45280, Note_on_c, 1, 64, 127
2, 45600, Note_off_c, 1, 54, 0
2, 45600, Note_off_c, 1, 64, 0
2, 45600, Note_off_c, 1, 71, 0
2, 45640, Note_on_c, 1, 47, 127
2, 45640, Note_on_c, 1, 63, 127
2, 45640, Note_on_c, 1, 71, 127
2, 45960, Note_off_c, 1, 47, 0
2, 46000, Note_on_c, 1, 54, 127
2, 46320, Note_off_c, 1, 54, 0
2, 46360, Note_off_c, 1, 63, 0
2, 46360, Note_off_c, 1, 71, 0
2, 46400, Note_on_c, 1, 61, 127
2, 46400, Note_on_c, 1, 63, 127
2, 46400, Note_on_c, 1, 71, 127
2, 46520, Note_off_c, 1, 61, 0
2, 46560, Note_on_c, 1, 56, 127
2, 46560, Note_off_c, 1, 63, 0
2, 46560, Note_on_c, 1, 66, 127
2, 46680, Note_off_c, 1, 56, 0
2, 46680, Note_off_c, 1, 66, 0
2, 46680, Note_off_c, 1, 71, 0
2, 46720, Note_on_c, 1, 58, 127
2, 46720, Note_on_c, 1, 66, 127
2, 46720, Note_on_c, 1, 73, 127
2, 46800, Note_off_c, 1, 73, 0
2, 46800, Note_on_c, 1, 76, 127
2, 46840, Note_on_c, 1, 73, 127
2, 46840, Note_off_c, 1, 76, 0
2, 47040, Note_off_c, 1, 66, 0
2, 47040, Note_off_c, 1, 73, 0
2, 47080, Note_on_c, 1, 54, 127
2, 47080, Note_off_c, 1, 58, 0
2, 47080, Note_on_c, 1, 61, 127
2, 47080, Note_on_c, 1, 66, 127
2, 47080, Note_on_c, 1, 77, 127
2, 47360, Note_off_c, 1, 54, 0
2, 47360, Note_off_c, 1, 61, 0
2, 47360, Note_on_c, 1, 64, 127
2, 47360, Note_off_c, 1, 66, 0
2, 47360, Note_on_c, 1, 73, 127
2, 47360, Note_off_c, 1, 77, 0
2, 47400, Note_off_c, 1, 64, 0
2, 47400, Note_off_c, 1, 73, 0
2, 47440, Note_on_c, 1, 54, 127
2, 47440, Note_on_c, 1, 64, 127
2, 47440, Note_on_c, 1, 66, 127
2, 47440, Note_on_c, 1, 70, 127
2, 47440, Note_on_c, 1, 73, 127
2, 48080, Note_off_c, 1, 54, 0
2, 48080, Note_off_c, 1, 64, 0
2, 48080, Note_off_c, 1, 66, 0
2, 48080, Note_off_c, 1, 70, 0
2, 48080, Note_off_c, 1, 73, 0
2, 48120, Note_on_c, 1, 47, 127
2, 48120, Note_on_c, 1, 54, 127
2, 48120, Note_on_c, 1, 59, 127
2, 48120, Note_on_c, 1, 63, 127
2, 48120, Note_on_c, 1, 71, 127
2, 48320, Note_off_c, 1, 47, 0
2, 48320, Note_off_c, 1, 54, 0
2, 48320, Note_off_c, 1, 59, 0
2, 48320, Note_off_c, 1, 63, 0
2, 48320, Note_off_c, 1, 71, 0
2, 48360, Note_on_c, 1, 47, 127
2, 48360, Note_on_c, 1, 54, 127
2, 48360, Note_on_c, 1, 59, 127
2, 48360, Note_on_c, 1, 63, 127
2, 48360, Note_on_c, 1, 71, 127
2, 48480, Note_off_c, 1, 54, 0
2, 48480, Note_off_c, 1, 59, 0
2, 48520, Note_on_c, 1, 39, 127
2, 48520, Note_off_c, 1, 47, 0
2, 48520, Note_off_c, 1, 63, 0
2, 48520, Note_on_c, 1, 81, 127
2, 48800, Note_off_c, 1, 39, 0
2, 48800, Note_off_c, 1, 81, 0
2, 48840, Note_on_c, 1, 47, 127
2, 48840, Note_off_c, 1, 71, 0
2, 48840, Note_on_c, 1, 75, 127
2, 48840, Note_on_c, 1, 78, 127
2, 49160, Note_off_c, 1, 47, 0
2, 49160, Note_off_c, 1, 75, 0
2, 49160, Note_off_c, 1, 78, 0
2, 49200, Note_on_c, 1, 39, 127
2, 49200, Note_on_c, 1, 49, 127
2, 49200, Note_on_c, 1, 51, 127
2, 49200, Note_on_c, 1, 70, 127
2, 49200, Note_on_c, 1, 73, 127
2, 49200, Note_on_c, 1, 75, 127
2, 49240, Note_off_c, 1, 39, 0
2, 49240, Note_on_c, 1, 41, 127
2, 49240, Note_on_c, 1, 46, 127
2, 49240, Note_off_c, 1, 49, 0
2, 49240, Note_off_c, 1, 51, 0
2, 49240, Note_on_c, 1, 53, 127
2, 49240, Note_off_c, 1, 70, 0
2, 49240, Note_off_c, 1, 73, 0
2, 49240, Note_off_c, 1, 75, 0
2, 49240, Note_on_c, 1, 87, 127
2, 49280, Note_off_c, 1, 41, 0
2, 49280, Note_off_c, 1, 46, 0
2, 49280, Note_on_c, 1, 52, 127
2, 49280, Note_off_c, 1, 53, 0
2, 49280, Note_on_c, 1, 56, 127
2, 49280, Note_on_c, 1, 59, 127
2, 49280, Note_on_c, 1, 61, 127
2, 49280, Note_on_c, 1, 80, 127
2, 49280, Note_off_c, 1, 87, 0
2, 49320, Note_off_c, 1, 52, 0
2, 49320, Note_off_c, 1, 56, 0
2, 49320, Note_off_c, 1, 59, 0
2, 49320, Note_off_c, 1, 61, 0
2, 49320, Note_on_c, 1, 77, 127
2, 49320, Note_off_c, 1, 80, 0
2, 49320, Note_on_c, 1, 85, 127
2, 49320, Note_on_c, 1, 89, 127
2, 49320, Note_on_c, 1, 97, 127
2, 49360, Note_on_c, 1, 49, 127
2, 49360, Note_on_c, 1, 54, 127
2, 49360, Note_on_c, 1, 56, 127
2, 49360, Note_on_c, 1, 60, 127
2, 49360, Note_on_c, 1, 63, 127
2, 49360, Note_on_c, 1, 68, 127
2, 49360, Note_off_c, 1, 77, 0
2, 49360, Note_off_c, 1, 85, 0
2, 49360, Note_off_c, 1, 89, 0
2, 49360, Note_off_c, 1, 97, 0
2, 49480, Note_on_c, 1, 33, 127
2, 49480, Note_on_c, 1, 40, 127
2, 49480, Note_on_c, 1, 43, 127
2, 49480, Note_on_c, 1, 45, 127
2, 49480, Note_off_c, 1, 54, 0
2, 49480, Note_off_c, 1, 56, 0
2, 49480, Note_on_c, 1, 57, 127
2, 49480, Note_off_c, 1, 60, 0
2, 49480, Note_on_c, 1, 61, 127
2, 49480, Note_off_c, 1, 63, 0
2, 49480, Note_off_c, 1, 68, 0
2, 49520, Note_off_c, 1, 33, 0
2, 49520, Note_off_c, 1, 40, 0
2, 49520, Note_off_c, 1, 43, 0
2, 49520, Note_off_c, 1, 45, 0
2, 49520, Note_off_c, 1, 49, 0
2, 49520, Note_off_c, 1, 57, 0
2, 49520, Note_off_c, 1, 61, 0
2, 49560, Note_on_c, 1, 31, 127
2, 49560, Note_on_c, 1, 43, 127
2, 49560, Note_on_c, 1, 61, 127
2, 49560, Note_on_c, 1, 73, 127
2, 49880, Note_off_c, 1, 31, 0
2, 49880, Note_on_c, 1, 40, 127
2, 49880, Note_off_c, 1, 43, 0
2, 49880, Note_off_c, 1, 61, 0
2, 49880, Note_off_c, 1, 73, 0
2, 49920, Note_on_c, 1, 39, 127
2, 49920, Note_off_c, 1, 40, 0
2, 49920, Note_on_c, 1, 51, 127
2, 49920, Note_on_c, 1, 87, 127
2, 49920, Note_on_c, 1, 91, 127
2, 49920, Note_on_c, 1, 94, 127
2, 50200, Note_off_c, 1, 39, 0
2, 50200, Note_off_c, 1, 51, 0
2, 50200, Note_off_c, 1, 87, 0
2, 50200, Note_off_c, 1, 91, 0
2, 50200, Note_off_c, 1, 94, 0
2, 50320, Note_on_c, 1, 31, 127
2, 50320, Note_on_c, 1, 43, 127
2, 50320, Note_on_c, 1, 55, 127
2, 50320, Note_on_c, 1, 59, 127
2, 50320, Note_on_c, 1, 62, 127
2, 50640, Note_off_c, 1, 31, 0
2, 50640, Note_off_c, 1, 43, 0
2, 50640, Note_off_c, 1, 55, 0
2, 50640, Note_off_c, 1, 59, 0
2, 50640, Note_off_c, 1, 62, 0
2, 50680, Note_on_c, 1, 41, 127
2, 50680, Note_on_c, 1, 47, 127
2, 50680, Note_on_c, 1, 56, 127
2, 50680, Note_on_c, 1, 65, 127
2, 50920, Note_off_c, 1, 47, 0
2, 50920, Note_on_c, 1, 48, 127
2, 50920, Note_off_c, 1, 56, 0
2, 50920, Note_on_c, 1, 57, 127
2, 51120, Note_off_c, 1, 48, 0
2, 51120, Note_off_c, 1, 57, 0
2, 51120, Note_off_c, 1, 65, 0
2, 51160, Note_off_c, 1, 41, 0
2, 51160, Note_on_c, 1, 46, 127
2, 51160, Note_on_c, 1, 60, 127
2, 51160, Note_on_c, 1, 61, 127
2, 51160, Note_on_c, 1, 73, 127
2, 51800, Note_off_c, 1, 60, 0
2, 51800, Note_off_c, 1, 61, 0
2, 51840, Note_off_c, 1, 46, 0
2, 51840, Note_on_c, 1, 48, 127
2, 51840, Note_on_c, 1, 50, 127
2, 51840, Note_on_c, 1, 57, 127
2, 51840, Note_on_c, 1, 66, 127
2, 51840, Note_off_c, 1, 73, 0
2, 51960, Note_off_c, 1, 48, 0
2, 51960, Note_off_c, 1, 50, 0
2, 51960, Note_off_c, 1, 57, 0
2, 51960, Note_off_c, 1, 66, 0
2, 52000, Note_on_c, 1, 66, 127
2, 52000, Note_on_c, 1, 74, 127
2, 52000, Note_on_c, 1, 78, 127
2, 52000, Note_on_c, 1, 83, 127
2, 52000, Note_on_c, 1, 90, 127
2, 52320, Note_off_c, 1, 66, 0
2, 52320, Note_off_c, 1, 74, 0
2, 52320, Note_off_c, 1, 78, 0
2, 52320, Note_off_c, 1, 83, 0
2, 52320, Note_off_c, 1, 90, 0
2, 52360, Note_on_c, 1, 29, 127
2, 52360, Note_on_c, 1, 41, 127
2, 52400, Note_on_c, 1, 66, 127
2, 52680, Note_off_c, 1, 29, 0
2, 52680, Note_off_c, 1, 41, 0
2, 52680, Note_off_c, 1, 66, 0
2, 52720, Note_on_c, 1, 29, 127
2, 52720, Note_on_c, 1, 41, 127
2, 52720, Note_on_c, 1, 66, 127
2, 53040, Note_off_c, 1, 29, 0
2, 53040, Note_off_c, 1, 41, 0
2, 53040, Note_off_c, 1, 66, 0
2, 53080, Note_on_c, 1, 38, 127
2, 53080, Note_on_c, 1, 50, 127
2, 53080, Note_on_c, 1, 65, 127
2, 53080, Note_on_c, 1, 69, 127
2, 53080, Note_on_c, 1, 74, 127
2, 53200, Note_off_c, 1, 65, 0
2, 53240, Note_on_c, 1, 66, 127
2, 53400, Note_off_c, 1, 38, 0
2, 53400, Note_off_c, 1, 50, 0
2, 53400, Note_off_c, 1, 66, 0
2, 53400, Note_off_c, 1, 69, 0
2, 53400, Note_off_c, 1, 74, 0
2, 53440, Note_on_c, 1, 43, 127
2, 53440, Note_on_c, 1, 57, 127
2, 53440, Note_on_c, 1, 62, 127
2, 53720, Note_off_c, 1, 57, 0
2, 53720, Note_off_c, 1, 62, 0
2, 53760, Note_on_c, 1, 52, 127
2, 53760, Note_on_c, 1, 60, 127
2, 53760, Note_on_c, 1, 71, 127
2, 54040, Note_off_c, 1, 52, 0
2, 54040, Note_off_c, 1, 60, 0
2, 54040, Note_off_c, 1, 71, 0
2, 54120, Note_on_c, 1, 52, 127
2, 54120, Note_on_c, 1, 60, 127
2, 54120, Note_on_c, 1, 71, 127
2, 54400, Note_off_c, 1, 52, 0
2, 54400, Note_off_c, 1, 60, 0
2, 54400, Note_off_c, 1, 71, 0
2, 54440, Note_off_c, 1, 43, 0
2, 54440, Note_on_c, 1, 48, 127
2, 54440, Note_on_c, 1, 55, 127
2, 54440, Note_on_c, 1, 64, 127
2, 54440, Note_on_c, 1, 67, 127
2, 54520, Note_off_c, 1, 48, 0
2, 54520, Note_off_c, 1, 55, 0
2, 54520, Note_off_c, 1, 64, 0
2, 54520, Note_off_c, 1, 67, 0
2, 54560, Note_on_c, 1, 48, 127
2, 54560, Note_on_c, 1, 55, 127
2, 54560, Note_on_c, 1, 64, 127
2, 54560, Note_on_c, 1, 67, 127
2, 54800, Note_off_c, 1, 48, 0
2, 54800, Note_off_c, 1, 55, 0
2, 54800, Note_off_c, 1, 64, 0
2, 54800, Note_off_c, 1, 67, 0
2, 54840, Note_on_c, 1, 48, 127
2, 54840, Note_on_c, 1, 60, 127
2, 54840, Note_on_c, 1, 64, 127
2, 55120, Note_off_c, 1, 48, 0
2, 55120, Note_off_c, 1, 60, 0
2, 55120, Note_off_c, 1, 64, 0
2, 55160, Note_on_c, 1, 55, 127
2, 55160, Note_on_c, 1, 64, 127
2, 55160, Note_on_c, 1, 67, 127
2, 55480, Note_off_c, 1, 55, 0
2, 55480, Note_off_c, 1, 64, 0
2, 55480, Note_off_c, 1, 67, 0
2, 55520, Note_on_c, 1, 53, 127
2, 55520, Note_on_c, 1, 62, 127
2, 55520, Note_on_c, 1, 69, 127
2, 55640, Note_off_c, 1, 69, 0
2, 55680, Note_on_c, 1, 57, 127
2, 55680, Note_on_c, 1, 69, 127
2, 55800, Note_off_c, 1, 53, 0
2, 55800, Note_off_c, 1, 57, 0
2, 55800, Note_off_c, 1, 62, 0
2, 55800, Note_off_c, 1, 69, 0
2, 55840, Note_on_c, 1, 49, 127
2, 55840, Note_on_c, 1, 62, 127
2, 55840, Note_on_c, 1, 66, 127
2, 55840, Note_on_c, 1, 70, 127
2, 56160, Note_off_c, 1, 49, 0
2, 56160, Note_off_c, 1, 62, 0
2, 56160, Note_off_c, 1, 66, 0
2, 56160, Note_off_c, 1, 70, 0
2, 56200, Note_on_c, 1, 45, 127
2, 56200, Note_on_c, 1, 59, 127
2, 56200, Note_on_c, 1, 62, 127
2, 56200, Note_on_c, 1, 67, 127
2, 56400, Note_off_c, 1, 45, 0
2, 56400, Note_on_c, 1, 50, 127
2, 56400, Note_on_c, 1, 55, 127
2, 56400, Note_on_c, 1, 58, 127
2, 56400, Note_off_c, 1, 59, 0
2, 56400, Note_off_c, 1, 62, 0
2, 56400, Note_on_c, 1, 63, 127
2, 56400, Note_off_c, 1, 67, 0
2, 56440, Note_on_c, 1, 45, 127
2, 56440, Note_off_c, 1, 50, 0
2, 56440, Note_off_c, 1, 55, 0
2, 56440, Note_off_c, 1, 58, 0
2, 56440, Note_on_c, 1, 59, 127
2, 56440, Note_on_c, 1, 62, 127
2, 56440, Note_off_c, 1, 63, 0
2, 56440, Note_on_c, 1, 67, 127
2, 56520, Note_off_c, 1, 45, 0
2, 56520, Note_off_c, 1, 59, 0
2, 56520, Note_off_c, 1, 62, 0
2, 56520, Note_off_c, 1, 67, 0
2, 56600, Note_on_c, 1, 45, 127
2, 56600, Note_on_c, 1, 61, 127
2, 56600, Note_on_c, 1, 64, 127
2, 56600, Note_on_c, 1, 69, 127
2, 56880, Note_off_c, 1, 45, 0
2, 56880, Note_off_c, 1, 61, 0
2, 56880, Note_off_c, 1, 64, 0
2, 56880, Note_off_c, 1, 69, 0
2, 56920, Note_on_c, 1, 43, 127
2, 56920, Note_on_c, 1, 62, 127
2, 56920, Note_on_c, 1, 67, 127
2, 56920, Note_on_c, 1, 71, 127
2, 57240, Note_off_c, 1, 43, 0
2, 57240, Note_off_c, 1, 62, 0
2, 57240, Note_off_c, 1, 67, 0
2, 57240, Note_off_c, 1, 71, 0
2, 57280, Note_on_c, 1, 48, 127
2, 57280, Note_on_c, 1, 57, 127
2, 57280, Note_on_c, 1, 62, 127
2, 57280, Note_on_c, 1, 66, 127
2, 57560, Note_off_c, 1, 48, 0
2, 57560, Note_off_c, 1, 57, 0
2, 57560, Note_off_c, 1, 62, 0
2, 57560, Note_off_c, 1, 66, 0
2, 57600, Note_on_c, 1, 43, 127
2, 57600, Note_on_c, 1, 55, 127
2, 57600, Note_on_c, 1, 62, 127
2, 57600, Note_on_c, 1, 67, 127
2, 57600, Note_on_c, 1, 71, 127
2, 57720, Note_off_c, 1, 62, 0
2, 57760, Note_on_c, 1, 62, 127
2, 57920, Note_off_c, 1, 43, 0
2, 57920, Note_off_c, 1, 55, 0
2, 57920, Note_off_c, 1, 62, 0
2, 57920, Note_off_c, 1, 67, 0
2, 57920, Note_off_c, 1, 71, 0
2, 57960, Note_on_c, 1, 38, 127
2, 57960, Note_on_c, 1, 50, 127
2, 57960, Note_on_c, 1, 57, 127
2, 57960, Note_on_c, 1, 65, 127
2, 58240, Note_off_c, 1, 38, 0
2, 58240, Note_off_c, 1, 50, 0
2, 58240, Note_off_c, 1, 57, 0
2, 58240, Note_off_c, 1, 65, 0
2, 58280, Note_on_c, 1, 48, 127
2, 58280, Note_on_c, 1, 52, 127
2, 58280, Note_on_c, 1, 57, 127
2, 58280, Note_on_c, 1, 64, 127
2, 58600, Note_off_c, 1, 48, 0
2, 58600, Note_off_c, 1, 52, 0
2, 58600, Note_off_c, 1, 57, 0
2, 58600, Note_off_c, 1, 64, 0
2, 58640, Note_on_c, 1, 48, 127
2, 58640, Note_on_c, 1, 52, 127
2, 58640, Note_on_c, 1, 57, 127
2, 58640, Note_on_c, 1, 64, 127
2, 58760, Note_off_c, 1, 64, 0
2, 58800, Note_off_c, 1, 48, 0
2, 58800, Note_off_c, 1, 52, 0
2, 58800, Note_off_c, 1, 57, 0
2, 58840, Note_on_c, 1, 47, 127
2, 58840, Note_on_c, 1, 56, 127
2, 58840, Note_on_c, 1, 64, 127
2, 58840, Note_on_c, 1, 68, 127
2, 58840, Note_on_c, 1, 71, 127
2, 58960, Note_off_c, 1, 47, 0
2, 58960, Note_on_c, 1, 48, 127
2, 58960, Note_off_c, 1, 56, 0
2, 58960, Note_off_c, 1, 64, 0
2, 58960, Note_off_c, 1, 68, 0
2, 58960, Note_off_c, 1, 71, 0
2, 59000, Note_on_c, 1, 56, 127
2, 59000, Note_on_c, 1, 60, 127
2, 59000, Note_on_c, 1, 73, 127
2, 59040, Note_on_c, 1, 54, 127
2, 59040, Note_off_c, 1, 56, 0
2, 59040, Note_off_c, 1, 60, 0
2, 59040, Note_on_c, 1, 63, 127
2, 59040, Note_on_c, 1, 69, 127
2, 59040, Note_off_c, 1, 73, 0
2, 59320, Note_off_c, 1, 54, 0
2, 59320, Note_off_c, 1, 63, 0
2, 59320, Note_off_c, 1, 69, 0
2, 59360, Note_off_c, 1, 48, 0
2, 59360, Note_on_c, 1, 65, 127
2, 59360, Note_on_c, 1, 68, 127
2, 59360, Note_on_c, 1, 72, 127
2, 59360, Note_on_c, 1, 80, 127
2, 59360, Note_on_c, 1, 89, 127
2, 59360, Note_on_c, 1, 92, 127
2, 59400, Note_on_c, 1, 46, 127
2, 59400, Note_off_c, 1, 65, 0
2, 59400, Note_off_c, 1, 68, 0
2, 59400, Note_off_c, 1, 72, 0
2, 59400, Note_on_c, 1, 74, 127
2, 59400, Note_off_c, 1, 80, 0
2, 59400, Note_on_c, 1, 86, 127
2, 59400, Note_on_c, 1, 87, 127
2, 59400, Note_off_c, 1, 89, 0
2, 59400, Note_off_c, 1, 92, 0
2, 59440, Note_off_c, 1, 46, 0
2, 59440, Note_on_c, 1, 49, 127
2, 59440, Note_on_c, 1, 59, 127
2, 59440, Note_on_c, 1, 71, 127
2, 59440, Note_off_c, 1, 74, 0
2, 59440, Note_on_c, 1, 77, 127
2, 59440, Note_off_c, 1, 86, 0
2, 59440, Note_off_c, 1, 87, 0
2, 59480, Note_on_c, 1, 43, 127
2, 59480, Note_off_c, 1, 49, 0
2, 59480, Note_on_c, 1, 52, 127
2, 59480, Note_off_c, 1, 59, 0
2, 59480, Note_on_c, 1, 60, 127
2, 59480, Note_off_c, 1, 71, 0
2, 59480, Note_off_c, 1, 77, 0
2, 59520, Note_off_c, 1, 43, 0
2, 59520, Note_on_c, 1, 44, 127
2, 59520, Note_on_c, 1, 50, 127
2, 59520, Note_on_c, 1, 56, 127
2, 59520, Note_off_c, 1, 60, 0
2, 59520, Note_on_c, 1, 71, 127
2, 59520, Note_on_c, 1, 74, 127
2, 59520, Note_on_c, 1, 76, 127
2, 59520, Note_on_c, 1, 83, 127
2, 59560, Note_off_c, 1, 44, 0
2, 59560, Note_on_c, 1, 48, 127
2, 59560, Note_off_c, 1, 50, 0
2, 59560, Note_off_c, 1, 52, 0
2, 59560, Note_off_c, 1, 56, 0
2, 59560, Note_on_c, 1, 57, 127
2, 59560, Note_on_c, 1, 69, 127
2, 59560, Note_off_c, 1, 71, 0
2, 59560, Note_off_c, 1, 74, 0
2, 59560, Note_off_c, 1, 76, 0
2, 59560, Note_on_c, 1, 77, 127
2, 59560, Note_off_c, 1, 83, 0
2, 59600, Note_off_c, 1, 48, 0
2, 59600, Note_off_c, 1, 57, 0
2, 59600, Note_off_c, 1, 69, 0
2, 59600, Note_on_c, 1, 72, 127
2, 59600, Note_on_c, 1, 74, 127
2, 59600, Note_off_c, 1, 77, 0
2, 59600, Note_on_c, 1, 79, 127
2, 59600, Note_on_c, 1, 89, 127
2, 59600, Note_on_c, 1, 91, 127
2, 59600, Note_on_c, 1, 95, 127
2, 59640, Note_on_c, 1, 48, 127
2, 59640, Note_on_c, 1, 58, 127
2, 59640, Note_off_c, 1, 72, 0
2, 59640, Note_off_c, 1, 74, 0
2, 59640, Note_off_c, 1, 79, 0
2, 59640, Note_off_c, 1, 89, 0
2, 59640, Note_off_c, 1, 91, 0
2, 59640, Note_off_c, 1, 95, 0
2, 59680, Note_on_c, 1, 41, 127
2, 59680, Note_on_c, 1, 51, 127
2, 59680, Note_off_c, 1, 58, 0
2, 59680, Note_on_c, 1, 89, 127
2, 59720, Note_off_c, 1, 41, 0
2, 59720, Note_off_c, 1, 48, 0
2, 59720, Note_off_c, 1, 51, 0
2, 59720, Note_on_c, 1, 72, 127
2, 59720, Note_on_c, 1, 81, 127
2, 59720, Note_on_c, 1, 84, 127
2, 59720, Note_off_c, 1, 89, 0
2, 59720, Note_on_c, 1, 91, 127
2, 59760, Note_on_c, 1, 40, 127
2, 59760, Note_on_c, 1, 44, 127
2, 59760, Note_on_c, 1, 47, 127
2, 59760, Note_on_c, 1, 52, 127
2, 59760, Note_on_c, 1, 64, 127
2, 59760, Note_on_c, 1, 68, 127
2, 59760, Note_on_c, 1, 71, 127
2, 59760, Note_off_c, 1, 72, 0
2, 59760, Note_on_c, 1, 76, 127
2, 59760, Note_on_c, 1, 80, 127
2, 59760, Note_off_c, 1, 81, 0
2, 59760, Note_on_c, 1, 83, 127
2, 59760, Note_off_c, 1, 84, 0
2, 59760, Note_on_c, 1, 88, 127
2, 59760, Note_off_c, 1, 91, 0
2, 59760, Note_on_c, 1, 104, 127
2, 59800, Note_off_c, 1, 40, 0
2, 59800, Note_off_c, 1, 44, 0
2, 59800, Note_on_c, 1, 46, 127
2, 59800, Note_off_c, 1, 47, 0
2, 59800, Note_on_c, 1, 51, 127
2, 59800, Note_off_c, 1, 52, 0
2, 59800, Note_on_c, 1, 57, 127
2, 59800, Note_on_c, 1, 63, 127
2, 59800, Note_off_c, 1, 64, 0
2, 59800, Note_off_c, 1, 68, 0
2, 59800, Note_off_c, 1, 71, 0
2, 59800, Note_off_c, 1, 76, 0
2, 59800, Note_off_c, 1, 80, 0
2, 59800, Note_off_c, 1, 83, 0
2, 59800, Note_off_c, 1, 88, 0
2, 59800, Note_off_c, 1, 104, 0
2, 59840, Note_on_c, 1, 43, 127
2, 59840, Note_off_c, 1, 46, 0
2, 59840, Note_off_c, 1, 51, 0
2, 59840, Note_on_c, 1, 52, 127
2, 59840, Note_on_c, 1, 55, 127
2, 59840, Note_off_c, 1, 57, 0
2, 59840, Note_off_c, 1, 63, 0
2, 59840, Note_on_c, 1, 71, 127
2, 59840, Note_on_c, 1, 83, 127
2, 59880, Note_on_c, 1, 38, 127
2, 59880, Note_on_c, 1, 42, 127
2, 59880, Note_off_c, 1, 43, 0
2, 59880, Note_on_c, 1, 50, 127
2, 59880, Note_off_c, 1, 52, 0
2, 59880, Note_on_c, 1, 54, 127
2, 59880, Note_off_c, 1, 55, 0
2, 59880, Note_on_c, 1, 60, 127
2, 59880, Note_off_c, 1, 71, 0
2, 59880, Note_off_c, 1, 83, 0
2, 59920, Note_off_c, 1, 38, 0
2, 59920, Note_off_c, 1, 42, 0
2, 59920, Note_off_c, 1, 50, 0
2, 59920, Note_on_c, 1, 53, 127
2, 59920, Note_off_c, 1, 54, 0
2, 59920, Note_on_c, 1, 72, 127
2, 59920, Note_on_c, 1, 76, 127
2, 59960, Note_on_c, 1, 41, 127
2, 59960, Note_off_c, 1, 60, 0
2, 59960, Note_on_c, 1, 69, 127
2, 59960, Note_off_c, 1, 72, 0
2, 60000, Note_off_c, 1, 41, 0
2, 60000, Note_off_c, 1, 53, 0
2, 60000, Note_off_c, 1, 69, 0
2, 60000, Note_off_c, 1, 76, 0
2, 60040, Note_on_c, 1, 36, 127
2, 60040, Note_on_c, 1, 48, 127
2, 60040, Note_on_c, 1, 51, 127
2, 60040, Note_on_c, 1, 55, 127
2, 60040, Note_on_c, 1, 60, 127
2, 60360, Note_off_c, 1, 36, 0
2, 60360, Note_off_c, 1, 51, 0
2, 60360, Note_off_c, 1, 55, 0
2, 60360, Note_off_c, 1, 60, 0
2, 60400, Note_off_c, 1, 48, 0
2, 60400, Note_on_c, 1, 50, 127
2, 60400, Note_on_c, 1, 56, 127
2, 60400, Note_on_c, 1, 65, 127
2, 60400, Note_on_c, 1, 68, 127
2, 61040, Note_off_c, 1, 50, 0
2, 61040, Note_off_c, 1, 56, 0
2, 61040, Note_off_c, 1, 65, 0
2, 61040, Note_off_c, 1, 68, 0
2, 61120, Note_on_c, 1, 51, 127
2, 61120, Note_on_c, 1, 56, 127
2, 61120, Note_on_c, 1, 68, 127
2, 61120, Note_on_c, 1, 72, 127
2, 61120, Note_on_c, 1, 80, 127
2, 61240, Note_off_c, 1, 80, 0
2, 61280, Note_on_c, 1, 78, 127
2, 62120, Note_off_c, 1, 51, 0
2, 62120, Note_off_c, 1, 56, 0
2, 62120, Note_off_c, 1, 68, 0
2, 62120, Note_off_c, 1, 72, 0
2, 62120, Note_off_c, 1, 78, 0
2, 62160, Note_on_c, 1, 46, 127
2, 62160, Note_on_c, 1, 52, 127
2, 62160, Note_on_c, 1, 55, 127
2, 62160, Note_on_c, 1, 67, 127
2, 62280, Note_off_c, 1, 46, 0
2, 62320, Note_on_c, 1, 50, 127
2, 62320, Note_off_c, 1, 52, 0
2, 62320, Note_on_c, 1, 59, 127
2, 62320, Note_on_c, 1, 66, 127
2, 62320, Note_off_c, 1, 67, 0
2, 62320, Note_on_c, 1, 71, 127
2, 62360, Note_off_c, 1, 59, 0
2, 62360, Note_off_c, 1, 66, 0
2, 62360, Note_off_c, 1, 71, 0
2, 62480, Note_off_c, 1, 50, 0
2, 62480, Note_off_c, 1, 55, 0
2, 62480, Note_on_c, 1, 60, 127
2, 62480, Note_on_c, 1, 62, 127
2, 62480, Note_on_c, 1, 65, 127
2, 62480, Note_on_c, 1, 80, 127
2, 62800, Note_off_c, 1, 60, 0
2, 62800, Note_off_c, 1, 62, 0
2, 62800, Note_off_c, 1, 65, 0
2, 62800, Note_off_c, 1, 80, 0
2, 62840, Note_on_c, 1, 59, 127
2, 62840, Note_on_c, 1, 63, 127
2, 62840, Note_on_c, 1, 73, 127
2, 62840, Note_on_c, 1, 81, 127
2, 62840, Note_on_c, 1, 93, 127
2, 62880, Note_on_c, 1, 51, 127
2, 62880, Note_on_c, 1, 56, 127
2, 62880, Note_off_c, 1, 73, 0
2, 62880, Note_on_c, 1, 75, 127
2, 62880, Note_on_c, 1, 80, 127
2, 62880, Note_off_c, 1, 81, 0
2, 62880, Note_off_c, 1, 93, 0
2, 62920, Note_off_c, 1, 51, 0
2, 62920, Note_off_c, 1, 56, 0
2, 62920, Note_on_c, 1, 73, 127
2, 62920, Note_off_c, 1, 75, 0
2, 62920, Note_off_c, 1, 80, 0
2, 62920, Note_on_c, 1, 81, 127
2, 62920, Note_on_c, 1, 93, 127
2, 63120, Note_off_c, 1, 59, 0
2, 63120, Note_off_c, 1, 63, 0
2, 63120, Note_off_c, 1, 73, 0
2, 63120, Note_off_c, 1, 81, 0
2, 63120, Note_on_c, 1, 83, 127
2, 63120, Note_on_c, 1, 87, 127
2, 63120, Note_off_c, 1, 93, 0
2, 63160, Note_off_c, 1, 83, 0
2, 63160, Note_off_c, 1, 87, 0
2, 63240, Note_on_c, 1, 48, 127
2, 63240, Note_on_c, 1, 80, 127
2, 63240, Note_on_c, 1, 87, 127
2, 63240, Note_on_c, 1, 90, 127
2, 63240, Note_on_c, 1, 92, 127
2, 63440, Note_off_c, 1, 48, 0
2, 63480, Note_on_c, 1, 48, 127
2, 63520, Note_on_c, 1, 34, 127
2, 63520, Note_on_c, 1, 46, 127
2, 63520, Note_off_c, 1, 48, 0
2, 63520, Note_on_c, 1, 62, 127
2, 63520, Note_on_c, 1, 65, 127
2, 63520, Note_on_c, 1, 74, 127
2, 63520, Note_off_c, 1, 80, 0
2, 63520, Note_off_c, 1, 87, 0
2, 63520, Note_off_c, 1, 90, 0
2, 63520, Note_off_c, 1, 92, 0
2, 63560, Note_off_c, 1, 34, 0
2, 63560, Note_off_c, 1, 46, 0
2, 63560, Note_on_c, 1, 58, 127
2, 63560, Note_off_c, 1, 62, 0
2, 63560, Note_off_c, 1, 65, 0
2, 63560, Note_off_c, 1, 74, 0
2, 63560, Note_on_c, 1, 81, 127
2, 63560, Note_on_c, 1, 84, 127
2, 63560, Note_on_c, 1, 88, 127
2, 63560, Note_on_c, 1, 93, 127
2, 63880, Note_off_c, 1, 58, 0
2, 63880, Note_off_c, 1, 81, 0
2, 63880, Note_off_c, 1, 84, 0
2, 63880, Note_off_c, 1, 88, 0
2, 63880, Note_off_c, 1, 93, 0
2, 63920, Note_on_c, 1, 55, 127
2, 63920, Note_on_c, 1, 77, 127
2, 63920, Note_on_c, 1, 79, 127
2, 63960, Note_off_c, 1, 55, 0
2, 63960, Note_off_c, 1, 79, 0
2, 64000, Note_on_c, 1, 57, 127
2, 64040, Note_off_c, 1, 57, 0
2, 64080, Note_on_c, 1, 62, 127
2, 64120, Note_off_c, 1, 62, 0
2, 64160, Note_on_c, 1, 58, 127
2, 64200, Note_off_c, 1, 58, 0
2, 64200, Note_off_c, 1, 77, 0
2, 64240, Note_on_c, 1, 59, 127
2, 64240, Note_on_c, 1, 80, 127
2, 64320, Note_off_c, 1, 59, 0
2, 64360, Note_on_c, 1, 63, 127
2, 64400, Note_off_c, 1, 63, 0
2, 64440, Note_on_c, 1, 60, 127
2, 64480, Note_off_c, 1, 60, 0
2, 64520, Note_on_c, 1, 63, 127
2, 64560, Note_off_c, 1, 63, 0
2, 64560, Note_off_c, 1, 80, 0
2, 64600, Note_on_c, 1, 59, 127
2, 64600, Note_on_c, 1, 80, 127
2, 64640, Note_off_c, 1, 59, 0
2, 64680, Note_on_c, 1, 59, 127
2, 64760, Note_off_c, 1, 59, 0
2, 64800, Note_on_c, 1, 65, 127
2, 64840, Note_off_c, 1, 65, 0
2, 64880, Note_on_c, 1, 56, 127
2, 64920, Note_off_c, 1, 56, 0
2, 64920, Note_off_c, 1, 80, 0
2, 64960, Note_on_c, 1, 58, 127
2, 64960, Note_on_c, 1, 62, 127
2, 64960, Note_on_c, 1, 65, 127
2, 64960, Note_on_c, 1, 70, 127
2, 64960, Note_on_c, 1, 74, 127
2, 64960, Note_on_c, 1, 79, 127
2, 65000, Note_off_c, 1, 58, 0
2, 65000, Note_off_c, 1, 62, 0
2, 65000, Note_off_c, 1, 65, 0
2, 65000, Note_on_c, 1, 66, 127
2, 65000, Note_on_c, 1, 69, 127
2, 65000, Note_off_c, 1, 70, 0
2, 65000, Note_on_c, 1, 71, 127
2, 65000, Note_off_c, 1, 74, 0
2, 65000, Note_on_c, 1, 76, 127
2, 65000, Note_on_c, 1, 78, 127
2, 65000, Note_off_c, 1, 79, 0
2, 65000, Note_on_c, 1, 83, 127
2, 65000, Note_on_c, 1, 88, 127
2, 65000, Note_on_c, 1, 95, 127
2, 65040, Note_on_c, 1, 58, 127
2, 65040, Note_on_c, 1, 62, 127
2, 65040, Note_on_c, 1, 65, 127
2, 65040, Note_off_c, 1, 66, 0
2, 65040, Note_off_c, 1, 69, 0
2, 65040, Note_on_c, 1, 70, 127
2, 65040, Note_off_c, 1, 71, 0
2, 65040, Note_on_c, 1, 74, 127
2, 65040, Note_off_c, 1, 76, 0
2, 65040, Note_off_c, 1, 78, 0
2, 65040, Note_on_c, 1, 79, 127
2, 65040, Note_off_c, 1, 83, 0
2, 65040, Note_off_c, 1, 88, 0
2, 65040, Note_off_c, 1, 95, 0
2, 65080, Note_on_c, 1, 32, 127
2, 65080, Note_on_c, 1, 39, 127
2, 65080, Note_on_c, 1, 44, 127
2, 65080, Note_off_c, 1, 58, 0
2, 65080, Note_off_c, 1, 62, 0
2, 65080, Note_on_c, 1, 63, 127
2, 65080, Note_off_c, 1, 65, 0
2, 65080, Note_off_c, 1, 70, 0
2, 65080, Note_off_c, 1, 74, 0
2, 65080, Note_off_c, 1, 79, 0
2, 65120, Note_off_c, 1, 32, 0
2, 65120, Note_off_c, 1, 39, 0
2, 65120, Note_off_c, 1, 44, 0
2, 65120, Note_on_c, 1, 58, 127
2, 65120, Note_on_c, 1, 62, 127
2, 65120, Note_off_c, 1, 63, 0
2, 65120, Note_on_c, 1, 65, 127
2, 65120, Note_on_c, 1, 70, 127
2, 65120, Note_on_c, 1, 74, 127
2, 65120, Note_on_c, 1, 79, 127
2, 65160, Note_off_c, 1, 58, 0
2, 65160, Note_off_c, 1, 62, 0
2, 65160, Note_off_c, 1, 65, 0
2, 65160, Note_off_c, 1, 70, 0
2, 65160, Note_off_c, 1, 74, 0
2, 65160, Note_off_c, 1, 79, 0
2, 65200, Note_on_c, 1, 48, 127
2, 65200, Note_on_c, 1, 52, 127
2, 65200, Note_on_c, 1, 67, 127
2, 65200, Note_on_c, 1, 77, 127
2, 65240, Note_on_c, 1, 44, 127
2, 65240, Note_off_c, 1, 48, 0
2, 65240, Note_on_c, 1, 56, 127
2, 65240, Note_on_c, 1, 59, 127
2, 65240, Note_on_c, 1, 64, 127
2, 65240, Note_off_c, 1, 67, 0
2, 65240, Note_on_c, 1, 71, 127
2, 65240, Note_on_c, 1, 76, 127
2, 65240, Note_off_c, 1, 77, 0
2, 65280, Note_off_c, 1, 44, 0
2, 65280, Note_on_c, 1, 48, 127
2, 65280, Note_on_c, 1, 50, 127
2, 65280, Note_off_c, 1, 52, 0
2, 65280, Note_off_c, 1, 56, 0
2, 65280, Note_off_c, 1, 59, 0
2, 65280, Note_off_c, 1, 64, 0
2, 65280, Note_on_c, 1, 65, 127
2, 65280, Note_off_c, 1, 76, 0
2, 65320, Note_off_c, 1, 48, 0
2, 65320, Note_off_c, 1, 50, 0
2, 65320, Note_off_c, 1, 65, 0
2, 65320, Note_off_c, 1, 71, 0
2, 65360, Note_on_c, 1, 68, 127
2, 65360, Note_on_c, 1, 76, 127
2, 65360, Note_on_c, 1, 81, 127
2, 65360, Note_on_c, 1, 85, 127
2, 65360, Note_on_c, 1, 90, 127
2, 65400, Note_on_c, 1, 53, 127
2, 65400, Note_on_c, 1, 62, 127
2, 65400, Note_off_c, 1, 76, 0
2, 65400, Note_on_c, 1, 80, 127
2, 65400, Note_off_c, 1, 81, 0
2, 65400, Note_off_c, 1, 85, 0
2, 65400, Note_off_c, 1, 90, 0
2, 65440, Note_off_c, 1, 53, 0
2, 65440, Note_on_c, 1, 61, 127
2, 65440, Note_off_c, 1, 62, 0
2, 65440, Note_off_c, 1, 68, 0
2, 65440, Note_on_c, 1, 73, 127
2, 65440, Note_off_c, 1, 80, 0
2, 65440, Note_on_c, 1, 88, 127
2, 65440, Note_on_c, 1, 91, 127
2, 65480, Note_on_c, 1, 41, 127
2, 65480, Note_on_c, 1, 53, 127
2, 65480, Note_on_c, 1, 57, 127
2, 65480, Note_off_c, 1, 61, 0
2, 65480, Note_on_c, 1, 65, 127
2, 65480, Note_on_c, 1, 69, 127
2, 65480, Note_off_c, 1, 73, 0
2, 65480, Note_on_c, 1, 74, 127
2, 65480, Note_off_c, 1, 88, 0
2, 65480, Note_off_c, 1, 91, 0
2, 65520, Note_off_c, 1, 41, 0
2, 65520, Note_on_c, 1, 45, 127
2, 65520, Note_on_c, 1, 48, 127
2, 65520, Note_off_c, 1, 57, 0
2, 65520, Note_off_c, 1, 65, 0
2, 65520, Note_off_c, 1, 69, 0
2, 65520, Note_on_c, 1, 71, 127
2, 65520, Note_off_c, 1, 74, 0
2, 65560, Note_off_c, 1, 45, 0
2, 65560, Note_off_c, 1, 48, 0
2, 65560, Note_on_c, 1, 52, 127
2, 65560, Note_off_c, 1, 53, 0
2, 65560, Note_on_c, 1, 59, 127
2, 65560, Note_on_c, 1, 68, 127
2, 65560, Note_on_c, 1, 73, 127
2, 65560, Note_on_c, 1, 80, 127
2, 65600, Note_on_c, 1, 51, 127
2, 65600, Note_off_c, 1, 52, 0
2, 65600, Note_on_c, 1, 57, 127
2, 65600, Note_off_c, 1, 68, 0
2, 65600, Note_on_c, 1, 70, 127
2, 65600, Note_off_c, 1, 71, 0
2, 65600, Note_off_c, 1, 73, 0
2, 65600, Note_off_c, 1, 80, 0
2, 65640, Note_off_c, 1, 51, 0
2, 65640, Note_off_c, 1, 57, 0
2, 65640, Note_off_c, 1, 59, 0
2, 65640, Note_off_c, 1, 70, 0
2, 65640, Note_on_c, 1, 71, 127
2, 65680, Note_on_c, 1, 62, 127
2, 65680, Note_off_c, 1, 71, 0
2, 65680, Note_on_c, 1, 74, 127
2, 65680, Note_on_c, 1, 87, 127
2, 65680, Note_on_c, 1, 96, 127
2, 65680, Note_on_c, 1, 99, 127
2, 65720, Note_on_c, 1, 40, 127
2, 65720, Note_on_c, 1, 53, 127
2, 65720, Note_on_c, 1, 57, 127
2, 65720, Note_off_c, 1, 62, 0
2, 65720, Note_on_c, 1, 65, 127
2, 65720, Note_off_c, 1, 74, 0
2, 65720, Note_off_c, 1, 87, 0
2, 65720, Note_off_c, 1, 96, 0
2, 65720, Note_off_c, 1, 99, 0
2, 65760, Note_off_c, 1, 40, 0
2, 65760, Note_on_c, 1, 52, 127
2, 65760, Note_off_c, 1, 53, 0
2, 65760, Note_off_c, 1, 57, 0
2, 65760, Note_on_c, 1, 63, 127
2, 65760, Note_off_c, 1, 65, 0
2, 65760, Note_on_c, 1, 69, 127
2, 65760, Note_on_c, 1, 72, 127
2, 65760, Note_on_c, 1, 78, 127
2, 65800, Note_on_c, 1, 44, 127
2, 65800, Note_on_c, 1, 48, 127
2, 65800, Note_on_c, 1, 51, 127
2, 65800, Note_off_c, 1, 52, 0
2, 65800, Note_on_c, 1, 53, 127
2, 65800, Note_off_c, 1, 63, 0
2, 65800, Note_on_c, 1, 68, 127
2, 65800, Note_off_c, 1, 69, 0
2, 65800, Note_off_c, 1, 72, 0
2, 65800, Note_off_c, 1, 78, 0
2, 65840, Note_off_c, 1, 44, 0
2, 65840, Note_off_c, 1, 48, 0
2, 65840, Note_off_c, 1, 51, 0
2, 65840, Note_off_c, 1, 53, 0
2, 65840, Note_on_c, 1, 55, 127
2, 65840, Note_on_c, 1, 61, 127
2, 65840, Note_on_c, 1, 63, 127
2, 65840, Note_off_c, 1, 68, 0
2, 65840, Note_on_c, 1, 70, 127
2, 65840, Note_on_c, 1, 79, 127
2, 65880, Note_on_c, 1, 30, 127
2, 65880, Note_on_c, 1, 42, 127
2, 65880, Note_off_c, 1, 55, 0
2, 65880, Note_off_c, 1, 61, 0
2, 65880, Note_off_c, 1, 63, 0
2, 65880, Note_off_c, 1, 70, 0
2, 65880, Note_off_c, 1, 79, 0
2, 65880, Note_on_c, 1, 80, 127
2, 65880, Note_on_c, 1, 89, 127
2, 65880, Note_on_c, 1, 92, 127
2, 65920, Note_off_c, 1, 30, 0
2, 65920, Note_off_c, 1, 42, 0
2, 65920, Note_off_c, 1, 89, 0
2, 65920, Note_off_c, 1, 92, 0
2, 65920, Note_on_c, 1, 94, 127
2, 65960, Note_on_c, 1, 51, 127
2, 65960, Note_on_c, 1, 55, 127
2, 65960, Note_on_c, 1, 60, 127
2, 65960, Note_on_c, 1, 67, 127
2, 65960, Note_on_c, 1, 72, 127
2, 65960, Note_on_c, 1, 79, 127
2, 65960, Note_off_c, 1, 80, 0
2, 65960, Note_off_c, 1, 94, 0
2, 66000, Note_off_c, 1, 51, 0
2, 66000, Note_off_c, 1, 55, 0
2, 66000, Note_off_c, 1, 60, 0
2, 66000, Note_off_c, 1, 67, 0
2, 66000, Note_off_c, 1, 72, 0
2, 66000, Note_off_c, 1, 79, 0
2, 66040, Note_on_c, 1, 64, 127
2, 66040, Note_on_c, 1, 67, 127
2, 66040, Note_on_c, 1, 79, 127
2, 66040, Note_on_c, 1, 88, 127
2, 66040, Note_on_c, 1, 91, 127
2, 66080, Note_off_c, 1, 64, 0
2, 66080, Note_off_c, 1, 67, 0
2, 66080, Note_on_c, 1, 71, 127
2, 66080, Note_on_c, 1, 86, 127
2, 66080, Note_off_c, 1, 88, 0
2, 66080, Note_off_c, 1, 91, 0
2, 66120, Note_on_c, 1, 65, 127
2, 66120, Note_on_c, 1, 69, 127
2, 66120, Note_off_c, 1, 71, 0
2, 66120, Note_off_c, 1, 79, 0
2, 66120, Note_on_c, 1, 81, 127
2, 66120, Note_off_c, 1, 86, 0
2, 66120, Note_on_c, 1, 89, 127
2, 66120, Note_on_c, 1, 93, 127
2, 66160, Note_on_c, 1, 55, 127
2, 66160, Note_on_c, 1, 59, 127
2, 66160, Note_off_c, 1, 65, 0
2, 66160, Note_on_c, 1, 67, 127
2, 66160, Note_off_c, 1, 69, 0
2, 66160, Note_on_c, 1, 76, 127
2, 66160, Note_off_c, 1, 81, 0
2, 66160, Note_off_c, 1, 89, 0
2, 66160, Note_off_c, 1, 93, 0
2, 66200, Note_off_c, 1, 55, 0
2, 66200, Note_off_c, 1, 59, 0
2, 66200, Note_on_c, 1, 64, 127
2, 66200, Note_off_c, 1, 76, 0
2, 66200, Note_on_c, 1, 79, 127
2, 66200, Note_on_c, 1, 88, 127
2, 66200, Note_on_c, 1, 91, 127
2, 66240, Note_off_c, 1, 64, 0
2, 66240, Note_on_c, 1, 66, 127
2, 66240, Note_off_c, 1, 67, 0
2, 66240, Note_off_c, 1, 79, 0
2, 66240, Note_on_c, 1, 83, 127
2, 66240, Note_on_c, 1, 87, 127
2, 66240, Note_off_c, 1, 88, 0
2, 66240, Note_off_c, 1, 91, 0
2, 66280, Note_on_c, 1, 64, 127
2, 66280, Note_off_c, 1, 66, 0
2, 66280, Note_on_c, 1, 67, 127
2, 66280, Note_on_c, 1, 79, 127
2, 66280, Note_off_c, 1, 83, 0
2, 66280, Note_off_c, 1, 87, 0
2, 66280, Note_on_c, 1, 88, 127
2, 66280, Note_on_c, 1, 91, 127
2, 66360, Note_off_c, 1, 64, 0
2, 66360, Note_off_c, 1, 67, 0
2, 66360, Note_off_c, 1, 79, 0
2, 66360, Note_off_c, 1, 88, 0
2, 66360, Note_off_c, 1, 91, 0
2, 66400, Note_on_c, 1, 64, 127
2, 66400, Note_on_c, 1, 67, 127
2, 66400, Note_on_c, 1, 79, 127
2, 66400, Note_on_c, 1, 88, 127
2, 66400, Note_on_c, 1, 91, 127
2, 66680, Note_off_c, 1, 64, 0
2, 66680, Note_off_c, 1, 67, 0
2, 66680, Note_off_c, 1, 79, 0
2, 66680, Note_off_c, 1, 88, 0
2, 66680, Note_off_c, 1, 91, 0
2, 66720, Note_on_c, 1, 62, 127
2, 66720, Note_on_c, 1, 65, 127
2, 66720, Note_on_c, 1, 77, 127
2, 66720, Note_on_c, 1, 86, 127
2, 66720, Note_on_c, 1, 89, 127
2, 66840, Note_off_c, 1, 62, 0
2, 66840, Note_off_c, 1, 65, 0
2, 66840, Note_off_c, 1, 77, 0
2, 66840, Note_on_c, 1, 78, 127
2, 66840, Note_off_c, 1, 89, 0
2, 66840, Note_on_c, 1, 90, 127
2, 66880, Note_on_c, 1, 62, 127
2, 66880, Note_on_c, 1, 65, 127
2, 66880, Note_on_c, 1, 77, 127
2, 66880, Note_off_c, 1, 78, 0
2, 66880, Note_on_c, 1, 89, 127
2, 66880, Note_off_c, 1, 90, 0
2, 66920, Note_on_c, 1, 60, 127
2, 66920, Note_off_c, 1, 62, 0
2, 66920, Note_on_c, 1, 63, 127
2, 66920, Note_off_c, 1, 65, 0
2, 66920, Note_on_c, 1, 75, 127
2, 66920, Note_off_c, 1, 77, 0
2, 66920, Note_on_c, 1, 84, 127
2, 66920, Note_off_c, 1, 86, 0
2, 66920, Note_on_c, 1, 87, 127
2, 66920, Note_off_c, 1, 89, 0
2, 66960, Note_off_c, 1, 60, 0
2, 66960, Note_off_c, 1, 63, 0
2, 66960, Note_off_c, 1, 75, 0
2, 66960, Note_off_c, 1, 84, 0
2, 66960, Note_off_c, 1, 87, 0
2, 67000, Note_on_c, 1, 41, 127
2, 67000, Note_on_c, 1, 53, 127
2, 67000, Note_on_c, 1, 94, 127
2, 67000, Note_on_c, 1, 102, 127
2, 67000, Note_on_c, 1, 106, 127
2, 67040, Note_off_c, 1, 41, 0
2, 67040, Note_off_c, 1, 53, 0
2, 67040, Note_off_c, 1, 94, 0
2, 67040, Note_off_c, 1, 102, 0
2, 67040, Note_off_c, 1, 106, 0
2, 67080, Note_on_c, 1, 46, 127
2, 67080, Note_on_c, 1, 58, 127
2, 67080, Note_on_c, 1, 73, 127
2, 67080, Note_on_c, 1, 77, 127
2, 67080, Note_on_c, 1, 82, 127
2, 67080, Note_on_c, 1, 85, 127
2, 67360, Note_off_c, 1, 46, 0
2, 67360, Note_off_c, 1, 58, 0
2, 67360, Note_off_c, 1, 73, 0
2, 67360, Note_off_c, 1, 77, 0
2, 67360, Note_off_c, 1, 82, 0
2, 67360, Note_off_c, 1, 85, 0
2, 67480, Note_on_c, 1, 50, 127
2, 67480, Note_on_c, 1, 54, 127
2, 67480, Note_on_c, 1, 57, 127
2, 67480, Note_on_c, 1, 62, 127
2, 67480, Note_on_c, 1, 78, 127
2, 67480, Note_on_c, 1, 81, 127
2, 67480, Note_on_c, 1, 86, 127
2, 67480, Note_on_c, 1, 90, 127
2, 67760, Note_off_c, 1, 50, 0
2, 67760, Note_off_c, 1, 54, 0
2, 67760, Note_off_c, 1, 57, 0
2, 67760, Note_off_c, 1, 62, 0
2, 67760, Note_off_c, 1, 78, 0
2, 67760, Note_off_c, 1, 81, 0
2, 67760, Note_off_c, 1, 86, 0
2, 67760, Note_off_c, 1, 90, 0
2, 67800, Note_on_c, 1, 65, 127
2, 67800, Note_on_c, 1, 76, 127
2, 67800, Note_on_c, 1, 80, 127
2, 67800, Note_on_c, 1, 88, 127
2, 68120, Note_off_c, 1, 65, 0
2, 68120, Note_off_c, 1, 76, 0
2, 68120, Note_off_c, 1, 88, 0
2, 68160, Note_on_c, 1, 40, 127
2, 68160, Note_on_c, 1, 47, 127
2, 68160, Note_on_c, 1, 56, 127
2, 68160, Note_on_c, 1, 70, 127
2, 68160, Note_off_c, 1, 80, 0
2, 68160, Note_on_c, 1, 82, 127
2, 68440, Note_off_c, 1, 40, 0
2, 68440, Note_on_c, 1, 45, 127
2, 68440, Note_off_c, 1, 47, 0
2, 68440, Note_on_c, 1, 49, 127
2, 68440, Note_on_c, 1, 52, 127
2, 68440, Note_off_c, 1, 56, 0
2, 68440, Note_on_c, 1, 57, 127
2, 68440, Note_on_c, 1, 61, 127
2, 68440, Note_on_c, 1, 69, 127
2, 68440, Note_off_c, 1, 70, 0
2, 68440, Note_off_c, 1, 82, 0
2, 68480, Note_off_c, 1, 45, 0
2, 68480, Note_off_c, 1, 49, 0
2, 68480, Note_off_c, 1, 52, 0
2, 68480, Note_off_c, 1, 57, 0
2, 68480, Note_off_c, 1, 61, 0
2, 68480, Note_off_c, 1, 69, 0
2, 68520, Note_on_c, 1, 67, 127
2, 68520, Note_on_c, 1, 70, 127
2, 68520, Note_on_c, 1, 73, 127
2, 68520, Note_on_c, 1, 76, 127
2, 68520, Note_on_c, 1, 82, 127
2, 68800, Note_off_c, 1, 67, 0
2, 68800, Note_off_c, 1, 70, 0
2, 68800, Note_off_c, 1, 73, 0
2, 68800, Note_off_c, 1, 76, 0
2, 68800, Note_off_c, 1, 82, 0
2, 68840, Note_on_c, 1, 61, 127
2, 68840, Note_on_c, 1, 64, 127
2, 68840, Note_on_c, 1, 69, 127
2, 68840, Note_on_c, 1, 73, 127
2, 68840, Note_on_c, 1, 78, 127
2, 68880, Note_off_c, 1, 78, 0
2, 68880, Note_on_c, 1, 81, 127
2, 68920, Note_on_c, 1, 78, 127
2, 68920, Note_off_c, 1, 81, 0
2, 69080, Note_off_c, 1, 78, 0
2, 69120, Note_on_c, 1, 40, 127
2, 69120, Note_on_c, 1, 52, 127
2, 69120, Note_off_c, 1, 61, 0
2, 69120, Note_off_c, 1, 64, 0
2, 69120, Note_off_c, 1, 69, 0
2, 69120, Note_on_c, 1, 81, 127
2, 69160, Note_off_c, 1, 40, 0
2, 69160, Note_off_c, 1, 52, 0
2, 69160, Note_off_c, 1, 73, 0
2, 69160, Note_off_c, 1, 81, 0
2, 69200, Note_on_c, 1, 64, 127
2, 69200, Note_on_c, 1, 69, 127
2, 69200, Note_on_c, 1, 73, 127
2, 69200, Note_on_c, 1, 79, 127
2, 69480, Note_off_c, 1, 64, 0
2, 69480, Note_off_c, 1, 69, 0
2, 69480, Note_off_c, 1, 73, 0
2, 69520, Note_on_c, 1, 35, 127
2, 69520, Note_on_c, 1, 66, 127
2, 69520, Note_on_c, 1, 69, 127
2, 69520, Note_on_c, 1, 71, 127
2, 69520, Note_on_c, 1, 75, 127
2, 69520, Note_off_c, 1, 79, 0
2, 69560, Note_off_c, 1, 35, 0
2, 69560, Note_off_c, 1, 66, 0
2, 69560, Note_off_c, 1, 69, 0
2, 69560, Note_off_c, 1, 71, 0
2, 69560, Note_off_c, 1, 75, 0
2, 69600, Note_on_c, 1, 61, 127
2, 69600, Note_on_c, 1, 69, 127
2, 69600, Note_on_c, 1, 73, 127
2, 69600, Note_on_c, 1, 77, 127
2, 69600, Note_on_c, 1, 85, 127
2, 69640, Note_on_c, 1, 60, 127
2, 69640, Note_off_c, 1, 61, 0
2, 69640, Note_off_c, 1, 69, 0
2, 69640, Note_off_c, 1, 73, 0
2, 69640, Note_on_c, 1, 82, 127
2, 69640, Note_on_c, 1, 84, 127
2, 69640, Note_off_c, 1, 85, 0
2, 69640, Note_on_c, 1, 89, 127
2, 69680, Note_on_c, 1, 52, 127
2, 69680, Note_off_c, 1, 60, 0
2, 69680, Note_on_c, 1, 66, 127
2, 69680, Note_on_c, 1, 74, 127
2, 69680, Note_off_c, 1, 77, 0
2, 69680, Note_on_c, 1, 81, 127
2, 69680, Note_off_c, 1, 82, 0
2, 69680, Note_off_c, 1, 84, 0
2, 69680, Note_off_c, 1, 89, 0
2, 69720, Note_on_c, 1, 32, 127
2, 69720, Note_on_c, 1, 44, 127
2, 69720, Note_off_c, 1, 52, 0
2, 69720, Note_on_c, 1, 65, 127
2, 69720, Note_off_c, 1, 66, 0
2, 69720, Note_on_c, 1, 73, 127
2, 69720, Note_off_c, 1, 74, 0
2, 69720, Note_off_c, 1, 81, 0
2, 69760, Note_off_c, 1, 32, 0
2, 69760, Note_off_c, 1, 44, 0
2, 69760, Note_on_c, 1, 61, 127
2, 69760, Note_off_c, 1, 65, 0
2, 69760, Note_on_c, 1, 67, 127
2, 69760, Note_off_c, 1, 73, 0
2, 69760, Note_on_c, 1, 76, 127
2, 69760, Note_on_c, 1, 81, 127
2, 69800, Note_off_c, 1, 61, 0
2, 69800, Note_on_c, 1, 63, 127
2, 69800, Note_off_c, 1, 67, 0
2, 69800, Note_on_c, 1, 68, 127
2, 69800, Note_off_c, 1, 76, 0
2, 69800, Note_on_c, 1, 78, 127
2, 69800, Note_off_c, 1, 81, 0
2, 69840, Note_on_c, 1, 61, 127
2, 69840, Note_off_c, 1, 63, 0
2, 69840, Note_on_c, 1, 67, 127
2, 69840, Note_off_c, 1, 68, 0
2, 69840, Note_on_c, 1, 76, 127
2, 69840, Note_off_c, 1, 78, 0
2, 69840, Note_on_c, 1, 81, 127
2, 69880, Note_off_c, 1, 61, 0
2, 69880, Note_off_c, 1, 67, 0
2, 69880, Note_off_c, 1, 76, 0
2, 69880, Note_off_c, 1, 81, 0
2, 69920, Note_on_c, 1, 62, 127
2, 69920, Note_on_c, 1, 66, 127
2, 69920, Note_on_c, 1, 69, 127
2, 69920, Note_on_c, 1, 74, 127
2, 69920, Note_on_c, 1, 81, 127
2, 70200, Note_off_c, 1, 62, 0
2, 70200, Note_off_c, 1, 66, 0
2, 70200, Note_off_c, 1, 69, 0
2, 70200, Note_off_c, 1, 74, 0
2, 70200, Note_off_c, 1, 81, 0
2, 70240, Note_on_c, 1, 59, 127
2, 70240, Note_on_c, 1, 66, 127
2, 70240, Note_on_c, 1, 68, 127
2, 70240, Note_on_c, 1, 74, 127
2, 70240, Note_on_c, 1, 78, 127
2, 70480, Note_off_c, 1, 59, 0
2, 70480, Note_off_c, 1, 66, 0
2, 70480, Note_off_c, 1, 68, 0
2, 70480, Note_off_c, 1, 74, 0
2, 70480, Note_off_c, 1, 78, 0
2, 70520, Note_on_c, 1, 57, 127
2, 70520, Note_on_c, 1, 66, 127
2, 70520, Note_on_c, 1, 78, 127
2, 70560, Note_off_c, 1, 57, 0
2, 70560, Note_off_c, 1, 66, 0
2, 70560, Note_off_c, 1, 78, 0
2, 70600, Note_on_c, 1, 62, 127
2, 70600, Note_on_c, 1, 66, 127
2, 70600, Note_on_c, 1, 78, 127
2, 70880, Note_off_c, 1, 62, 0
2, 70880, Note_off_c, 1, 66, 0
2, 70880, Note_off_c, 1, 78, 0
2, 70920, Note_on_c, 1, 59, 127
2, 70920, Note_on_c, 1, 68, 127
2, 70920, Note_on_c, 1, 74, 127
2, 70920, Note_on_c, 1, 76, 127
2, 71240, Note_off_c, 1, 59, 0
2, 71240, Note_off_c, 1, 68, 0
2, 71240, Note_off_c, 1, 74, 0
2, 71240, Note_off_c, 1, 76, 0
2, 71280, Note_on_c, 1, 52, 127
2, 71280, Note_on_c, 1, 68, 127
2, 71280, Note_on_c, 1, 74, 127
2, 71280, Note_on_c, 1, 76, 127
2, 71440, Note_on_c, 1, 64, 127
2, 71440, Note_off_c, 1, 76, 0
2, 71520, Note_off_c, 1, 52, 0
2, 71520, Note_off_c, 1, 64, 0
2, 71520, Note_off_c, 1, 68, 0
2, 71520, Note_off_c, 1, 74, 0
2, 71560, Note_on_c, 1, 52, 127
2, 71560, Note_on_c, 1, 64, 127
2, 71560, Note_on_c, 1, 68, 127
2, 71560, Note_on_c, 1, 74, 127
2, 71600, Note_off_c, 1, 52, 0
2, 71600, Note_off_c, 1, 64, 0
2, 71600, Note_off_c, 1, 68, 0
2, 71600, Note_off_c, 1, 74, 0
2, 71640, Note_on_c, 1, 45, 127
2, 71640, Note_on_c, 1, 64, 127
2, 71640, Note_on_c, 1, 69, 127
2, 71640, Note_on_c, 1, 73, 127
2, 71960, Note_off_c, 1, 45, 0
2, 71960, Note_off_c, 1, 64, 0
2, 71960, Note_off_c, 1, 69, 0
2, 71960, Note_off_c, 1, 73, 0
2, 72000, Note_on_c, 1, 50, 127
2, 72000, Note_on_c, 1, 57, 127
2, 72000, Note_on_c, 1, 66, 127
2, 72000, Note_on_c, 1, 69, 127
2, 72000, Note_on_c, 1, 74, 127
2, 72320, Note_off_c, 1, 50, 0
2, 72320, Note_off_c, 1, 57, 0
2, 72320, Note_off_c, 1, 66, 0
2, 72320, Note_off_c, 1, 69, 0
2, 72320, Note_off_c, 1, 74, 0
2, 72360, Note_on_c, 1, 52, 127
2, 72360, Note_on_c, 1, 57, 127
2, 72360, Note_on_c, 1, 61, 127
2, 72360, Note_on_c, 1, 69, 127
2, 72640, Note_off_c, 1, 52, 0
2, 72640, Note_off_c, 1, 57, 0
2, 72640, Note_off_c, 1, 61, 0
2, 72640, Note_off_c, 1, 69, 0
2, 72680, Note_on_c, 1, 52, 127
2, 72680, Note_on_c, 1, 59, 127
2, 72680, Note_on_c, 1, 62, 127
2, 72680, Note_on_c, 1, 64, 127
2, 72680, Note_on_c, 1, 68, 127
2, 72680, Note_on_c, 1, 71, 127
2, 72960, Note_off_c, 1, 52, 0
2, 72960, Note_off_c, 1, 59, 0
2, 72960, Note_off_c, 1, 62, 0
2, 72960, Note_off_c, 1, 64, 0
2, 72960, Note_off_c, 1, 68, 0
2, 72960, Note_off_c, 1, 71, 0
2, 73040, Note_on_c, 1, 45, 127
2, 73040, Note_on_c, 1, 52, 127
2, 73040, Note_on_c, 1, 57, 127
2, 73040, Note_on_c, 1, 60, 127
2, 73040, Note_on_c, 1, 64, 127
2, 73040, Note_on_c, 1, 69, 127
2, 73040, Note_on_c, 1, 72, 127
2, 73320, Note_off_c, 1, 45, 0
2, 73320, Note_off_c, 1, 52, 0
2, 73320, Note_off_c, 1, 57, 0
2, 73320, Note_off_c, 1, 60, 0
2, 73320, Note_off_c, 1, 64, 0
2, 73320, Note_off_c, 1, 69, 0
2, 73320, Note_off_c, 1, 72, 0
2, 73360, Note_on_c, 1, 56, 127
2, 73360, Note_on_c, 1, 59, 127
2, 73360, Note_on_c, 1, 62, 127
2, 73360, Note_on_c, 1, 71, 127
2, 73600, Note_off_c, 1, 56, 0
2, 73600, Note_off_c, 1, 59, 0
2, 73600, Note_off_c, 1, 62, 0
2, 73680, Note_off_c, 1, 71, 0
2, 73760, Note_on_c, 1, 51, 127
2, 73760, Note_on_c, 1, 54, 127
2, 73760, Note_on_c, 1, 60, 127
2, 73760, Note_on_c, 1, 69, 127
2, 74040, Note_off_c, 1, 51, 0
2, 74040, Note_off_c, 1, 54, 0
2, 74040, Note_off_c, 1, 60, 0
2, 74040, Note_off_c, 1, 69, 0
2, 74040, Note_on_c, 1, 81, 127
2, 74040, Note_on_c, 1, 93, 127
2, 74080, Note_on_c, 1, 51, 127
2, 74080, Note_on_c, 1, 54, 127
2, 74080, Note_on_c, 1, 60, 127
2, 74080, Note_on_c, 1, 69, 127
2, 74080, Note_off_c, 1, 81, 0
2, 74080, Note_off_c, 1, 93, 0
2, 74400, Note_off_c, 1, 51, 0
2, 74400, Note_off_c, 1, 54, 0
2, 74400, Note_off_c, 1, 60, 0
2, 74400, Note_off_c, 1, 69, 0
2, 74440, Note_on_c, 1, 57, 127
2, 74440, Note_on_c, 1, 62, 127
2, 74440, Note_on_c, 1, 78, 127
2, 74440, Note_on_c, 1, 90, 127
2, 74720, Note_on_c, 1, 55, 127
2, 74720, Note_off_c, 1, 57, 0
2, 74720, Note_on_c, 1, 58, 127
2, 74720, Note_on_c, 1, 67, 127
2, 74720, Note_on_c, 1, 70, 127
2, 74720, Note_off_c, 1, 78, 0
2, 74720, Note_off_c, 1, 90, 0
2, 74760, Note_off_c, 1, 55, 0
2, 74760, Note_off_c, 1, 58, 0
2, 74760, Note_off_c, 1, 62, 0
2, 74760, Note_off_c, 1, 67, 0
2, 74760, Note_off_c, 1, 70, 0
2, 74800, Note_on_c, 1, 52, 127
2, 74800, Note_on_c, 1, 59, 127
2, 74800, Note_on_c, 1, 64, 127
2, 74800, Note_on_c, 1, 80, 127
2, 75080, Note_off_c, 1, 52, 0
2, 75080, Note_off_c, 1, 59, 0
2, 75080, Note_off_c, 1, 64, 0
2, 75080, Note_off_c, 1, 80, 0
2, 75120, Note_on_c, 1, 50, 127
2, 75120, Note_on_c, 1, 57, 127
2, 75120, Note_on_c, 1, 66, 127
2, 75120, Note_on_c, 1, 85, 127
2, 75280, Note_off_c, 1, 85, 0
2, 75320, Note_on_c, 1, 83, 127
2, 75440, Note_off_c, 1, 50, 0
2, 75440, Note_off_c, 1, 57, 0
2, 75440, Note_off_c, 1, 66, 0
2, 75440, Note_off_c, 1, 83, 0
2, 75480, Note_on_c, 1, 57, 127
2, 75480, Note_on_c, 1, 66, 127
2, 75480, Note_on_c, 1, 85, 127
2, 75600, Note_off_c, 1, 85, 0
2, 75640, Note_on_c, 1, 81, 127
2, 75720, Note_off_c, 1, 57, 0
2, 75720, Note_off_c, 1, 66, 0
2, 75720, Note_off_c, 1, 81, 0
2, 75760, Note_on_c, 1, 57, 127
2, 75760, Note_on_c, 1, 66, 127
2, 75760, Note_on_c, 1, 81, 127
2, 75800, Note_off_c, 1, 57, 0
2, 75800, Note_off_c, 1, 66, 0
2, 75800, Note_off_c, 1, 81, 0
2, 75840, Note_on_c, 1, 74, 127
2, 75840, Note_on_c, 1, 79, 127
2, 76160, Note_off_c, 1, 74, 0
2, 76160, Note_off_c, 1, 79, 0
2, 76200, Note_on_c, 1, 54, 127
2, 76200, Note_on_c, 1, 72, 127
2, 76200, Note_on_c, 1, 81, 127
2, 76840, Note_off_c, 1, 54, 0
2, 76840, Note_off_c, 1, 72, 0
2, 76840, Note_off_c, 1, 81, 0
2, 76880, Note_on_c, 1, 54, 127
2, 76880, Note_on_c, 1, 61, 127
2, 76880, Note_on_c, 1, 64, 127
2, 76880, Note_on_c, 1, 73, 127
2, 76880, Note_on_c, 1, 81, 127
2, 77160, Note_off_c, 1, 54, 0
2, 77160, Note_off_c, 1, 61, 0
2, 77160, Note_off_c, 1, 64, 0
2, 77160, Note_off_c, 1, 81, 0
2, 77200, Note_off_c, 1, 73, 0
2, 77240, Note_on_c, 1, 54, 127
2, 77240, Note_on_c, 1, 61, 127
2, 77240, Note_on_c, 1, 64, 127
2, 77240, Note_on_c, 1, 73, 127
2, 77240, Note_on_c, 1, 81, 127
2, 77320, Note_on_c, 1, 80, 127
2, 77320, Note_off_c, 1, 81, 0
2, 77360, Note_off_c, 1, 80, 0
2, 77360, Note_on_c, 1, 81, 127
2, 77400, Note_on_c, 1, 80, 127
2, 77400, Note_off_c, 1, 81, 0
2, 77520, Note_on_c, 1, 47, 127
2, 77520, Note_off_c, 1, 54, 0
2, 77520, Note_off_c, 1, 61, 0
2, 77520, Note_off_c, 1, 64, 0
2, 77520, Note_off_c, 1, 80, 0
2, 77560, Note_off_c, 1, 47, 0
2, 77560, Note_on_c, 1, 54, 127
2, 77560, Note_on_c, 1, 61, 127
2, 77560, Note_on_c, 1, 64, 127
2, 77560, Note_on_c, 1, 80, 127
2, 77600, Note_on_c, 1, 78, 127
2, 77600, Note_off_c, 1, 80, 0
2, 77640, Note_off_c, 1, 78, 0
2, 77640, Note_on_c, 1, 80, 127
2, 77680, Note_on_c, 1, 78, 127
2, 77680, Note_off_c, 1, 80, 0
2, 77760, Note_off_c, 1, 54, 0
2, 77760, Note_off_c, 1, 61, 0
2, 77760, Note_off_c, 1, 64, 0
2, 77760, Note_off_c, 1, 73, 0
2, 77760, Note_off_c, 1, 78, 0
2, 77800, Note_on_c, 1, 54, 127
2, 77800, Note_on_c, 1, 61, 127
2, 77800, Note_on_c, 1, 64, 127
2, 77800, Note_on_c, 1, 73, 127
2, 77800, Note_on_c, 1, 78, 127
2, 77920, Note_off_c, 1, 54, 0
2, 77920, Note_off_c, 1, 61, 0
2, 77920, Note_off_c, 1, 64, 0
2, 77920, Note_on_c, 1, 70, 127
2, 77920, Note_off_c, 1, 73, 0
2, 77920, Note_off_c, 1, 78, 0
2, 77960, Note_on_c, 1, 47, 127
2, 77960, Note_on_c, 1, 59, 127
2, 77960, Note_on_c, 1, 63, 127
2, 77960, Note_off_c, 1, 70, 0
2, 77960, Note_on_c, 1, 71, 127
2, 78240, Note_off_c, 1, 47, 0
2, 78240, Note_off_c, 1, 59, 0
2, 78320, Note_on_c, 1, 54, 127
2, 78600, Note_off_c, 1, 54, 0
2, 78600, Note_off_c, 1, 63, 0
2, 78600, Note_off_c, 1, 71, 0
2, 78640, Note_on_c, 1, 55, 127
2, 78640, Note_on_c, 1, 62, 127
2, 78640, Note_on_c, 1, 71, 127
2, 78960, Note_off_c, 1, 55, 0
2, 78960, Note_off_c, 1, 62, 0
2, 78960, Note_off_c, 1, 71, 0
2, 79000, Note_on_c, 1, 54, 127
2, 79000, Note_on_c, 1, 66, 127
2, 79000, Note_on_c, 1, 70, 127
2, 79000, Note_on_c, 1, 73, 127
2, 79280, Note_off_c, 1, 54, 0
2, 79280, Note_off_c, 1, 66, 0
2, 79280, Note_off_c, 1, 70, 0
2, 79280, Note_off_c, 1, 73, 0
2, 79320, Note_on_c, 1, 59, 127
2, 79320, Note_on_c, 1, 62, 127
2, 79320, Note_on_c, 1, 71, 127
2, 79320, Note_on_c, 1, 74, 127
2, 79800, Note_off_c, 1, 59, 0
2, 79800, Note_off_c, 1, 62, 0
2, 79800, Note_off_c, 1, 71, 0
2, 79800, Note_off_c, 1, 74, 0
2, 79840, Note_on_c, 1, 59, 127
2, 79840, Note_on_c, 1, 62, 127
2, 79840, Note_on_c, 1, 71, 127
2, 79840, Note_on_c, 1, 74, 127
2, 80000, Note_off_c, 1, 59, 0
2, 80000, Note_off_c, 1, 62, 0
2, 80000, Note_off_c, 1, 71, 0
2, 80000, Note_off_c, 1, 74, 0
2, 80040, Note_on_c, 1, 48, 127
2, 80040, Note_on_c, 1, 64, 127
2, 80040, Note_on_c, 1, 69, 127
2, 80040, Note_on_c, 1, 72, 127
2, 80360, Note_off_c, 1, 48, 0
2, 80360, Note_off_c, 1, 64, 0
2, 80400, Note_on_c, 1, 48, 127
2, 80400, Note_on_c, 1, 64, 127
2, 80680, Note_off_c, 1, 48, 0
2, 80720, Note_off_c, 1, 64, 0
2, 80720, Note_off_c, 1, 69, 0
2, 80720, Note_off_c, 1, 72, 0
2, 80760, Note_on_c, 1, 50, 127
2, 80760, Note_on_c, 1, 62, 127
2, 80760, Note_on_c, 1, 65, 127
2, 80760, Note_on_c, 1, 71, 127
2, 81040, Note_off_c, 1, 50, 0
2, 81040, Note_off_c, 1, 62, 0
2, 81040, Note_off_c, 1, 65, 0
2, 81040, Note_off_c, 1, 71, 0
2, 81080, Note_on_c, 1, 50, 127
2, 81080, Note_on_c, 1, 62, 127
2, 81080, Note_on_c, 1, 65, 127
2, 81080, Note_on_c, 1, 71, 127
2, 81400, Note_off_c, 1, 50, 0
2, 81400, Note_off_c, 1, 62, 0
2, 81400, Note_off_c, 1, 65, 0
2, 81400, Note_off_c, 1, 71, 0
2, 81440, Note_on_c, 1, 50, 127
2, 81440, Note_on_c, 1, 60, 127
2, 81440, Note_on_c, 1, 66, 127
2, 81440, Note_on_c, 1, 69, 127
2, 81720, Note_off_c, 1, 50, 0
2, 81720, Note_off_c, 1, 60, 0
2, 81720, Note_off_c, 1, 66, 0
2, 81720, Note_off_c, 1, 69, 0
2, 81760, Note_on_c, 1, 55, 127
2, 81760, Note_on_c, 1, 67, 127
2, 81960, Note_off_c, 1, 55, 0
2, 81960, Note_off_c, 1, 67, 0
2, 82000, Note_on_c, 1, 55, 127
2, 82000, Note_on_c, 1, 67, 127
2, 82120, Note_off_c, 1, 55, 0
2, 82160, Note_on_c, 1, 47, 127
2, 82160, Note_on_c, 1, 55, 127
2, 82440, Note_off_c, 1, 47, 0
2, 82440, Note_off_c, 1, 55, 0
2, 82480, Note_on_c, 1, 47, 127
2, 82480, Note_on_c, 1, 55, 127
2, 82800, Note_off_c, 1, 47, 0
2, 82800, Note_off_c, 1, 55, 0
2, 82800, Note_off_c, 1, 67, 0
2, 82840, Note_on_c, 1, 50, 127
2, 82840, Note_on_c, 1, 55, 127
2, 82840, Note_on_c, 1, 59, 127
2, 82840, Note_on_c, 1, 65, 127
2, 83120, Note_off_c, 1, 55, 0
2, 83120, Note_off_c, 1, 59, 0
2, 83120, Note_off_c, 1, 65, 0
2, 83160, Note_off_c, 1, 50, 0
2, 83200, Note_on_c, 1, 48, 127
2, 83200, Note_on_c, 1, 55, 127
2, 83200, Note_on_c, 1, 60, 127
2, 83200, Note_on_c, 1, 64, 127
2, 83840, Note_off_c, 1, 48, 0
2, 83840, Note_off_c, 1, 55, 0
2, 83840, Note_off_c, 1, 60, 0
2, 83840, Note_off_c, 1, 64, 0
2, 83880, Note_on_c, 1, 52, 127
2, 83880, Note_on_c, 1, 55, 127
2, 83880, Note_on_c, 1, 59, 127
2, 83880, Note_on_c, 1, 67, 127
2, 84000, Note_off_c, 1, 52, 0
2, 84000, Note_off_c, 1, 55, 0
2, 84000, Note_off_c, 1, 59, 0
2, 84000, Note_off_c, 1, 67, 0
2, 84040, Note_on_c, 1, 52, 127
2, 84040, Note_on_c, 1, 55, 127
2, 84040, Note_on_c, 1, 67, 127
2, 84080, Note_on_c, 1, 59, 127
2, 84200, Note_off_c, 1, 52, 0
2, 84200, Note_off_c, 1, 55, 0
2, 84200, Note_off_c, 1, 59, 0
2, 84200, Note_off_c, 1, 67, 0
2, 84240, Note_on_c, 1, 52, 127
2, 84240, Note_on_c, 1, 61, 127
2, 84240, Note_on_c, 1, 67, 127
2, 84240, Note_on_c, 1, 71, 127
2, 84520, Note_off_c, 1, 71, 0
2, 84560, Note_off_c, 1, 52, 0
2, 84560, Note_off_c, 1, 61, 0
2, 84560, Note_off_c, 1, 67, 0
2, 84600, Note_on_c, 1, 60, 127
2, 84600, Note_on_c, 1, 63, 127
2, 84600, Note_on_c, 1, 70, 127
2, 84600, Note_on_c, 1, 79, 127
2, 84920, Note_off_c, 1, 60, 0
2, 84920, Note_off_c, 1, 63, 0
2, 84920, Note_off_c, 1, 70, 0
2, 84920, Note_off_c, 1, 79, 0
2, 84960, Note_on_c, 1, 34, 127
2, 84960, Note_on_c, 1, 46, 127
2, 84960, Note_on_c, 1, 49, 127
2, 84960, Note_on_c, 1, 52, 127
2, 84960, Note_on_c, 1, 55, 127
2, 85600, Note_off_c, 1, 34, 0
2, 85600, Note_off_c, 1, 46, 0
2, 85600, Note_off_c, 1, 49, 0
2, 85600, Note_off_c, 1, 52, 0
2, 85600, Note_off_c, 1, 55, 0
2, 85640, Note_on_c, 1, 50, 127
2, 85640, Note_on_c, 1, 53, 127
2, 85640, Note_on_c, 1, 60, 127
2, 85640, Note_on_c, 1, 68, 127
2, 86120, Note_off_c, 1, 50, 0
2, 86120, Note_off_c, 1, 53, 0
2, 86120, Note_off_c, 1, 60, 0
2, 86120, Note_off_c, 1, 68, 0
2, 86160, Note_on_c, 1, 50, 127
2, 86160, Note_on_c, 1, 53, 127
2, 86160, Note_on_c, 1, 60, 127
2, 86160, Note_on_c, 1, 68, 127
2, 86320, Note_off_c, 1, 50, 0
2, 86320, Note_off_c, 1, 53, 0
2, 86320, Note_off_c, 1, 68, 0
2, 86360, Note_on_c, 1, 48, 127
2, 86360, Note_on_c, 1, 67, 127
2, 86360, Note_on_c, 1, 72, 127
2, 86360, Note_on_c, 1, 76, 127
2, 86680, Note_off_c, 1, 48, 0
2, 86680, Note_off_c, 1, 60, 0
2, 86680, Note_off_c, 1, 67, 0
2, 86680, Note_off_c, 1, 72, 0
2, 86680, Note_off_c, 1, 76, 0
2, 86720, Note_on_c, 1, 45, 127
2, 86720, Note_on_c, 1, 57, 127
2, 86720, Note_on_c, 1, 64, 127
2, 86720, Note_on_c, 1, 69, 127
2, 86720, Note_on_c, 1, 72, 127
2, 87000, Note_off_c, 1, 45, 0
2, 87000, Note_off_c, 1, 57, 0
2, 87000, Note_off_c, 1, 64, 0
2, 87000, Note_off_c, 1, 69, 0
2, 87000, Note_off_c, 1, 72, 0
2, 87040, Note_on_c, 1, 45, 127
2, 87040, Note_on_c, 1, 57, 127
2, 87040, Note_on_c, 1, 64, 127
2, 87040, Note_on_c, 1, 69, 127
2, 87040, Note_on_c, 1, 72, 127
2, 87360, Note_off_c, 1, 45, 0
2, 87360, Note_off_c, 1, 57, 0
2, 87360, Note_off_c, 1, 64, 0
2, 87360, Note_off_c, 1, 69, 0
2, 87360, Note_off_c, 1, 72, 0
2, 87400, Note_on_c, 1, 43, 127
2, 87400, Note_on_c, 1, 55, 127
2, 87400, Note_on_c, 1, 67, 127
2, 87400, Note_on_c, 1, 79, 127
2, 87680, Note_off_c, 1, 43, 0
2, 87680, Note_off_c, 1, 55, 0
2, 87680, Note_off_c, 1, 67, 0
2, 87680, Note_off_c, 1, 79, 0
2, 87720, Note_on_c, 1, 64, 127
2, 87720, Note_on_c, 1, 67, 127
2, 87720, Note_on_c, 1, 69, 127
2, 87720, Note_on_c, 1, 74, 127
2, 87760, Note_on_c, 1, 38, 127
2, 87760, Note_on_c, 1, 42, 127
2, 87760, Note_on_c, 1, 50, 127
2, 87760, Note_off_c, 1, 64, 0
2, 87760, Note_off_c, 1, 67, 0
2, 87760, Note_off_c, 1, 69, 0
2, 87760, Note_off_c, 1, 74, 0
2, 87760, Note_on_c, 1, 78, 127
2, 87760, Note_on_c, 1, 81, 127
2, 87760, Note_on_c, 1, 86, 127
2, 87760, Note_on_c, 1, 90, 127
2, 87800, Note_off_c, 1, 38, 0
2, 87800, Note_off_c, 1, 42, 0
2, 87800, Note_off_c, 1, 50, 0
2, 87800, Note_on_c, 1, 64, 127
2, 87800, Note_on_c, 1, 67, 127
2, 87800, Note_on_c, 1, 69, 127
2, 87800, Note_on_c, 1, 74, 127
2, 87800, Note_off_c, 1, 78, 0
2, 87800, Note_off_c, 1, 81, 0
2, 87800, Note_off_c, 1, 86, 0
2, 87800, Note_off_c, 1, 90, 0
2, 87920, Note_on_c, 1, 38, 127
2, 87920, Note_on_c, 1, 50, 127
2, 87920, Note_off_c, 1, 74, 0
2, 87960, Note_off_c, 1, 38, 0
2, 87960, Note_off_c, 1, 50, 0
2, 88000, Note_on_c, 1, 61, 127
2, 88000, Note_off_c, 1, 64, 0
2, 88040, Note_off_c, 1, 61, 0
2, 88040, Note_off_c, 1, 67, 0
2, 88040, Note_off_c, 1, 69, 0
2, 88080, Note_on_c, 1, 50, 127
2, 88080, Note_on_c, 1, 54, 127
2, 88080, Note_on_c, 1, 66, 127
2, 88080, Note_on_c, 1, 78, 127
2, 88200, Note_off_c, 1, 50, 0
2, 88200, Note_off_c, 1, 54, 0
2, 88200, Note_off_c, 1, 66, 0
2, 88200, Note_off_c, 1, 78, 0
2, 88240, Note_on_c, 1, 50, 127
2, 88240, Note_on_c, 1, 54, 127
2, 88240, Note_on_c, 1, 66, 127
2, 88240, Note_on_c, 1, 78, 127
2, 88400, Note_off_c, 1, 50, 0
2, 88400, Note_off_c, 1, 54, 0
2, 88400, Note_off_c, 1, 66, 0
2, 88400, Note_off_c, 1, 78, 0
2, 88440, Note_on_c, 1, 56, 127
2, 88440, Note_on_c, 1, 59, 127
2, 88440, Note_on_c, 1, 62, 127
2, 88440, Note_on_c, 1, 65, 127
2, 88440, Note_on_c, 1, 68, 127
2, 88440, Note_on_c, 1, 80, 127
2, 88600, Note_off_c, 1, 56, 0
2, 88600, Note_off_c, 1, 59, 0
2, 88600, Note_off_c, 1, 62, 0
2, 88600, Note_off_c, 1, 65, 0
2, 88600, Note_off_c, 1, 68, 0
2, 88600, Note_off_c, 1, 80, 0
2, 88640, Note_on_c, 1, 62, 127
2, 88640, Note_on_c, 1, 69, 127
2, 88640, Note_on_c, 1, 74, 127
2, 88640, Note_on_c, 1, 77, 127
2, 88760, Note_off_c, 1, 62, 0
2, 88760, Note_off_c, 1, 69, 0
2, 88760, Note_off_c, 1, 74, 0
2, 88760, Note_off_c, 1, 77, 0
2, 88800, Note_on_c, 1, 47, 127
2, 88800, Note_on_c, 1, 74, 127
2, 88800, Note_on_c, 1, 79, 127
2, 89120, Note_off_c, 1, 47, 0
2, 89120, Note_off_c, 1, 74, 0
2, 89120, Note_off_c, 1, 79, 0
2, 89160, Note_on_c, 1, 48, 127
2, 89160, Note_on_c, 1, 67, 127
2, 89160, Note_on_c, 1, 76, 127
2, 89160, Note_on_c, 1, 79, 127
2, 89480, Note_off_c, 1, 48, 0
2, 89520, Note_on_c, 1, 58, 127
2, 89520, Note_on_c, 1, 60, 127
2, 89520, Note_on_c, 1, 64, 127
2, 89520, Note_off_c, 1, 67, 0
2, 89520, Note_off_c, 1, 76, 0
2, 89520, Note_on_c, 1, 91, 127
2, 89800, Note_off_c, 1, 58, 0
2, 89800, Note_off_c, 1, 60, 0
2, 89800, Note_off_c, 1, 64, 0
2, 89800, Note_off_c, 1, 79, 0
2, 89800, Note_off_c, 1, 91, 0
2, 89840, Note_on_c, 1, 36, 127
2, 89840, Note_on_c, 1, 48, 127
2, 89840, Note_on_c, 1, 76, 127
2, 89840, Note_on_c, 1, 79, 127
2, 89840, Note_on_c, 1, 84, 127
2, 89840, Note_on_c, 1, 88, 127
2, 90160, Note_off_c, 1, 36, 0
2, 90160, Note_off_c, 1, 48, 0
2, 90160, Note_off_c, 1, 76, 0
2, 90160, Note_off_c, 1, 79, 0
2, 90160, Note_off_c, 1, 84, 0
2, 90160, Note_off_c, 1, 88, 0
2, 90200, Note_on_c, 1, 50, 127
2, 90200, Note_on_c, 1, 57, 127
2, 90200, Note_on_c, 1, 66, 127
2, 90200, Note_on_c, 1, 78, 127
2, 90200, Note_on_c, 1, 81, 127
2, 90440, Note_off_c, 1, 50, 0
2, 90440, Note_off_c, 1, 57, 0
2, 90440, Note_off_c, 1, 66, 0
2, 90440, Note_off_c, 1, 78, 0
2, 90440, Note_off_c, 1, 81, 0
2, 90480, Note_on_c, 1, 50, 127
2, 90480, Note_on_c, 1, 57, 127
2, 90480, Note_on_c, 1, 66, 127
2, 90480, Note_on_c, 1, 78, 127
2, 90480, Note_on_c, 1, 81, 127
2, 90880, Note_off_c, 1, 50, 0
2, 90880, Note_off_c, 1, 57, 0
2, 90880, Note_off_c, 1, 66, 0
2, 90880, Note_off_c, 1, 78, 0
2, 90880, Note_off_c, 1, 81, 0
2, 90920, Note_on_c, 1, 38, 127
2, 90920, Note_on_c, 1, 50, 127
2, 90920, Note_on_c, 1, 56, 127
2, 90920, Note_on_c, 1, 59, 127
2, 90920, Note_on_c, 1, 65, 127
2, 90920, Note_on_c, 1, 68, 127
2, 91560, Note_off_c, 1, 38, 0
2, 91560, Note_off_c, 1, 50, 0
2, 91560, Note_off_c, 1, 56, 0
2, 91560, Note_off_c, 1, 59, 0
2, 91560, Note_off_c, 1, 65, 0
2, 91560, Note_off_c, 1, 68, 0
2, 91600, Note_on_c, 1, 37, 127
2, 91600, Note_on_c, 1, 45, 127
2, 91600, Note_on_c, 1, 52, 127
2, 91600, Note_on_c, 1, 71, 127
2, 91600, Note_on_c, 1, 83, 127
2, 92600, Note_off_c, 1, 37, 0
2, 92600, Note_off_c, 1, 45, 0
2, 92600, Note_off_c, 1, 52, 0
2, 92600, Note_off_c, 1, 71, 0
2, 92600, Note_off_c, 1, 83, 0
2, 92680, Note_on_c, 1, 41, 127
2, 92680, Note_on_c, 1, 48, 127
2, 92680, Note_on_c, 1, 86, 127
2, 92920, Note_off_c, 1, 41, 0
2, 92920, Note_off_c, 1, 48, 0
2, 92920, Note_on_c, 1, 82, 127
2, 92920, Note_off_c, 1, 86, 0
2, 92960, Note_off_c, 1, 82, 0
2, 93000, Note_on_c, 1, 47, 127
2, 93000, Note_on_c, 1, 59, 127
2, 93000, Note_on_c, 1, 70, 127
2, 93000, Note_on_c, 1, 75, 127
2, 93000, Note_on_c, 1, 82, 127
2, 93320, Note_off_c, 1, 47, 0
2, 93320, Note_off_c, 1, 59, 0
2, 93320, Note_off_c, 1, 70, 0
2, 93320, Note_off_c, 1, 75, 0
2, 93320, Note_off_c, 1, 82, 0
2, 93360, Note_on_c, 1, 47, 127
2, 93360, Note_on_c, 1, 59, 127
2, 93360, Note_on_c, 1, 70, 127
2, 93360, Note_on_c, 1, 75, 127
2, 93360, Note_on_c, 1, 82, 127
2, 93640, Note_off_c, 1, 47, 0
2, 93640, Note_off_c, 1, 59, 0
2, 93640, Note_off_c, 1, 70, 0
2, 93640, Note_off_c, 1, 75, 0
2, 93640, Note_off_c, 1, 82, 0
2, 93720, Note_on_c, 1, 48, 127
2, 93720, Note_on_c, 1, 60, 127
2, 93720, Note_on_c, 1, 70, 127
2, 93720, Note_on_c, 1, 76, 127
2, 93720, Note_on_c, 1, 82, 127
2, 94000, Note_off_c, 1, 48, 0
2, 94000, Note_off_c, 1, 60, 0
2, 94000, Note_off_c, 1, 70, 0
2, 94000, Note_off_c, 1, 76, 0
2, 94000, Note_off_c, 1, 82, 0
2, 94040, Note_on_c, 1, 36, 127
2, 94040, Note_on_c, 1, 48, 127
2, 94040, Note_on_c, 1, 70, 127
2, 94040, Note_on_c, 1, 82, 127
2, 94360, Note_off_c, 1, 36, 0
2, 94360, Note_off_c, 1, 48, 0
2, 94360, Note_off_c, 1, 70, 0
2, 94360, Note_off_c, 1, 82, 0
2, 94400, Note_on_c, 1, 57, 127
2, 94400, Note_on_c, 1, 64, 127
2, 94400, Note_on_c, 1, 69, 127
2, 94400, Note_on_c, 1, 72, 127
2, 94400, Note_on_c, 1, 78, 127
2, 94440, Note_on_c, 1, 53, 127
2, 94440, Note_off_c, 1, 57, 0
2, 94440, Note_on_c, 1, 58, 127
2, 94440, Note_off_c, 1, 64, 0
2, 94440, Note_on_c, 1, 67, 127
2, 94440, Note_off_c, 1, 69, 0
2, 94440, Note_off_c, 1, 72, 0
2, 94440, Note_off_c, 1, 78, 0
2, 94440, Note_on_c, 1, 85, 127
2, 94480, Note_on_c, 1, 49, 127
2, 94480, Note_off_c, 1, 53, 0
2, 94480, Note_on_c, 1, 56, 127
2, 94480, Note_on_c, 1, 61, 127
2, 94480, Note_off_c, 1, 67, 0
2, 94480, Note_on_c, 1, 68, 127
2, 94480, Note_on_c, 1, 80, 127
2, 94480, Note_off_c, 1, 85, 0
2, 94480, Note_on_c, 1, 92, 127
2, 94520, Note_on_c, 1, 38, 127
2, 94520, Note_off_c, 1, 49, 0
2, 94520, Note_on_c, 1, 53, 127
2, 94520, Note_off_c, 1, 56, 0
2, 94520, Note_off_c, 1, 58, 0
2, 94520, Note_off_c, 1, 61, 0
2, 94520, Note_off_c, 1, 68, 0
2, 94520, Note_off_c, 1, 80, 0
2, 94520, Note_off_c, 1, 92, 0
2, 94560, Note_on_c, 1, 36, 127
2, 94560, Note_off_c, 1, 38, 0
2, 94560, Note_on_c, 1, 39, 127
2, 94560, Note_on_c, 1, 51, 127
2, 94560, Note_off_c, 1, 53, 0
2, 94560, Note_on_c, 1, 54, 127
2, 94560, Note_on_c, 1, 57, 127
2, 94560, Note_on_c, 1, 60, 127
2, 94600, Note_off_c, 1, 36, 0
2, 94600, Note_off_c, 1, 39, 0
2, 94600, Note_on_c, 1, 43, 127
2, 94600, Note_on_c, 1, 49, 127
2, 94600, Note_off_c, 1, 51, 0
2, 94600, Note_off_c, 1, 54, 0
2, 94600, Note_off_c, 1, 57, 0
2, 94600, Note_on_c, 1, 58, 127
2, 94600, Note_off_c, 1, 60, 0
2, 94600, Note_on_c, 1, 64, 127
2, 94600, Note_on_c, 1, 70, 127
2, 94640, Note_off_c, 1, 43, 0
2, 94640, Note_on_c, 1, 44, 127
2, 94640, Note_on_c, 1, 47, 127
2, 94640, Note_off_c, 1, 49, 0
2, 94640, Note_on_c, 1, 56, 127
2, 94640, Note_off_c, 1, 58, 0
2, 94640, Note_off_c, 1, 64, 0
2, 94640, Note_off_c, 1, 70, 0
2, 94640, Note_on_c, 1, 91, 127
2, 94680, Note_off_c, 1, 44, 0
2, 94680, Note_off_c, 1, 47, 0
2, 94680, Note_off_c, 1, 56, 0
2, 94680, Note_off_c, 1, 91, 0
2, 94800, Note_on_c, 1, 42, 127
2, 94800, Note_on_c, 1, 61, 127
2, 94800, Note_on_c, 1, 64, 127
2, 94800, Note_on_c, 1, 69, 127
2, 95080, Note_off_c, 1, 42, 0
2, 95080, Note_off_c, 1, 61, 0
2, 95080, Note_off_c, 1, 64, 0
2, 95080, Note_off_c, 1, 69, 0
2, 95120, Note_on_c, 1, 35, 127
2, 95120, Note_on_c, 1, 42, 127
2, 95120, Note_on_c, 1, 47, 127
2, 95120, Note_on_c, 1, 71, 127
2, 95120, Note_on_c, 1, 75, 127
2, 95120, Note_on_c, 1, 83, 127
2, 96080, Note_off_c, 1, 35, 0
2, 96080, Note_off_c, 1, 42, 0
2, 96080, Note_off_c, 1, 47, 0
2, 96080, Note_off_c, 1, 71, 0
2, 96080, Note_off_c, 1, 75, 0
2, 96080, Note_off_c, 1, 83, 0
2, 96120, Note_on_c, 1, 66, 127
2, 96440, Note_off_c, 1, 66, 0
2, 96480, Note_on_c, 1, 54, 127
2, 96480, Note_on_c, 1, 58, 127
2, 96480, Note_on_c, 1, 61, 127
2, 96480, Note_on_c, 1, 66, 127
2, 96800, Note_off_c, 1, 54, 0
2, 96840, Note_off_c, 1, 58, 0
2, 96840, Note_off_c, 1, 61, 0
2, 96840, Note_off_c, 1, 66, 0
2, 96880, Note_on_c, 1, 49, 127
2, 96880, Note_on_c, 1, 58, 127
2, 96880, Note_on_c, 1, 61, 127
2, 96880, Note_on_c, 1, 66, 127
2, 97160, Note_off_c, 1, 49, 0
2, 97160, Note_off_c, 1, 58, 0
2, 97160, Note_off_c, 1, 61, 0
2, 97160, Note_off_c, 1, 66, 0
2, 97200, Note_on_c, 1, 52, 127
2, 97200, Note_on_c, 1, 57, 127
2, 97200, Note_on_c, 1, 59, 127
2, 97200, Note_on_c, 1, 64, 127
2, 97480, Note_off_c, 1, 57, 0
2, 97480, Note_off_c, 1, 64, 0
2, 97560, Note_off_c, 1, 52, 0
2, 97560, Note_on_c, 1, 54, 127
2, 97560, Note_off_c, 1, 59, 0
2, 97560, Note_on_c, 1, 78, 127
2, 97560, Note_on_c, 1, 90, 127
2, 97560, Note_on_c, 1, 93, 127
2, 97600, Note_on_c, 1, 28, 127
2, 97600, Note_off_c, 1, 54, 0
2, 97600, Note_on_c, 1, 57, 127
2, 97600, Note_on_c, 1, 59, 127
2, 97600, Note_on_c, 1, 64, 127
2, 97600, Note_off_c, 1, 78, 0
2, 97600, Note_off_c, 1, 90, 0
2, 97600, Note_off_c, 1, 93, 0
2, 97640, Note_off_c, 1, 28, 0
2, 97640, Note_on_c, 1, 54, 127
2, 97640, Note_off_c, 1, 57, 0
2, 97640, Note_off_c, 1, 59, 0
2, 97640, Note_off_c, 1, 64, 0
2, 97640, Note_on_c, 1, 78, 127
2, 97640, Note_on_c, 1, 90, 127
2, 97640, Note_on_c, 1, 93, 127
2, 97680, Note_on_c, 1, 49, 127
2, 97680, Note_on_c, 1, 52, 127
2, 97680, Note_on_c, 1, 61, 127
2, 97680, Note_on_c, 1, 73, 127
2, 97680, Note_off_c, 1, 78, 0
2, 97680, Note_off_c, 1, 90, 0
2, 97680, Note_off_c, 1, 93, 0
2, 97720, Note_off_c, 1, 49, 0
2, 97720, Note_off_c, 1, 52, 0
2, 97720, Note_off_c, 1, 61, 0
2, 97720, Note_off_c, 1, 73, 0
2, 97720, Note_on_c, 1, 78, 127
2, 97720, Note_on_c, 1, 90, 127
2, 97720, Note_on_c, 1, 93, 127
2, 97840, Note_off_c, 1, 78, 0
2, 97840, Note_off_c, 1, 90, 0
2, 97840, Note_off_c, 1, 93, 0
2, 97880, Note_on_c, 1, 58, 127
2, 97880, Note_on_c, 1, 64, 127
2, 97880, Note_on_c, 1, 88, 127
2, 98200, Note_off_c, 1, 88, 0
2, 98240, Note_off_c, 1, 58, 0
2, 98240, Note_on_c, 1, 59, 127
2, 98240, Note_off_c, 1, 64, 0
2, 98240, Note_on_c, 1, 66, 127
2, 98240, Note_on_c, 1, 75, 127
2, 98520, Note_off_c, 1, 54, 0
2, 98520, Note_off_c, 1, 59, 0
2, 98520, Note_off_c, 1, 75, 0
2, 98560, Note_off_c, 1, 66, 0
2, 98600, Note_on_c, 1, 35, 127
2, 98600, Note_on_c, 1, 39, 127
2, 98600, Note_on_c, 1, 42, 127
2, 98600, Note_on_c, 1, 54, 127
2, 98600, Note_on_c, 1, 59, 127
2, 98600, Note_on_c, 1, 63, 127
2, 98720, Note_off_c, 1, 35, 0
2, 98720, Note_off_c, 1, 39, 0
2, 98720, Note_off_c, 1, 42, 0
2, 98720, Note_on_c, 1, 47, 127
2, 98720, Note_off_c, 1, 54, 0
2, 98720, Note_off_c, 1, 59, 0
2, 98720, Note_off_c, 1, 63, 0
2, 98720, Note_on_c, 1, 66, 127
2, 98760, Note_on_c, 1, 35, 127
2, 98760, Note_on_c, 1, 39, 127
2, 98760, Note_on_c, 1, 42, 127
2, 98760, Note_off_c, 1, 47, 0
2, 98760, Note_on_c, 1, 54, 127
2, 98760, Note_on_c, 1, 59, 127
2, 98760, Note_on_c, 1, 63, 127
2, 98760, Note_off_c, 1, 66, 0
2, 98840, Note_off_c, 1, 35, 0
2, 98840, Note_off_c, 1, 39, 0
2, 98840, Note_off_c, 1, 42, 0
2, 98840, Note_off_c, 1, 54, 0
2, 98840, Note_off_c, 1, 59, 0
2, 98840, Note_off_c, 1, 63, 0
2, 98880, Note_on_c, 1, 47, 127
2, 98880, Note_on_c, 1, 66, 127
2, 98920, Note_off_c, 1, 47, 0
2, 98920, Note_off_c, 1, 66, 0
2, 98960, Note_on_c, 1, 35, 127
2, 98960, Note_on_c, 1, 39, 127
2, 98960, Note_on_c, 1, 42, 127
2, 98960, Note_on_c, 1, 54, 127
2, 98960, Note_on_c, 1, 59, 127
2, 98960, Note_on_c, 1, 63, 127
2, 99080, Note_off_c, 1, 35, 0
2, 99080, Note_off_c, 1, 39, 0
2, 99080, Note_off_c, 1, 42, 0
2, 99080, Note_on_c, 1, 47, 127
2, 99080, Note_off_c, 1, 54, 0
2, 99080, Note_off_c, 1, 59, 0
2, 99080, Note_off_c, 1, 63, 0
2, 99080, Note_on_c, 1, 66, 127
2, 99120, Note_on_c, 1, 35, 127
2, 99120, Note_on_c, 1, 39, 127
2, 99120, Note_on_c, 1, 42, 127
2, 99120, Note_off_c, 1, 47, 0
2, 99120, Note_on_c, 1, 54, 127
2, 99120, Note_on_c, 1, 59, 127
2, 99120, Note_on_c, 1, 63, 127
2, 99120, Note_off_c, 1, 66, 0
2, 99240, Note_off_c, 1, 35, 0
2, 99240, Note_off_c, 1, 39, 0
2, 99240, Note_off_c, 1, 42, 0
2, 99240, Note_on_c, 1, 47, 127
2, 99240, Note_off_c, 1, 54, 0
2, 99240, Note_off_c, 1, 59, 0
2, 99240, Note_off_c, 1, 63, 0
2, 99240, Note_on_c, 1, 66, 127
2, 99320, Note_off_c, 1, 47, 0
2, 99320, Note_on_c, 1, 49, 127
2, 99320, Note_on_c, 1, 51, 127
2, 99320, Note_on_c, 1, 55, 127
2, 99320, Note_on_c, 1, 63, 127
2, 99320, Note_off_c, 1, 66, 0
2, 99440, Note_off_c, 1, 49, 0
2, 99480, Note_on_c, 1, 50, 127
2, 99480, Note_off_c, 1, 51, 0
2, 99480, Note_off_c, 1, 55, 0
2, 99480, Note_on_c, 1, 62, 127
2, 99480, Note_off_c, 1, 63, 0
2, 99480, Note_on_c, 1, 79, 127
2, 99480, Note_on_c, 1, 83, 127
2, 99480, Note_on_c, 1, 86, 127
2, 99560, Note_on_c, 1, 34, 127
2, 99560, Note_on_c, 1, 46, 127
2, 99560, Note_off_c, 1, 50, 0
2, 99560, Note_on_c, 1, 55, 127
2, 99560, Note_off_c, 1, 79, 0
2, 99560, Note_off_c, 1, 83, 0
2, 99560, Note_off_c, 1, 86, 0
2, 99600, Note_off_c, 1, 34, 0
2, 99600, Note_off_c, 1, 46, 0
2, 99600, Note_off_c, 1, 55, 0
2, 99600, Note_off_c, 1, 62, 0
2, 99640, Note_on_c, 1, 51, 127
2, 99640, Note_on_c, 1, 60, 127
2, 99640, Note_on_c, 1, 68, 127
2, 99640, Note_on_c, 1, 77, 127
2, 99960, Note_off_c, 1, 60, 0
2, 99960, Note_off_c, 1, 68, 0
2, 99960, Note_off_c, 1, 77, 0
2, 100000, Note_on_c, 1, 55, 127
2, 100000, Note_on_c, 1, 70, 127
2, 100280, Note_off_c, 1, 70, 0
2, 100320, Note_off_c, 1, 51, 0
2, 100320, Note_off_c, 1, 55, 0
2, 100360, Note_on_c, 1, 63, 127
2, 100640, Note_off_c, 1, 63, 0
2, 100680, Note_on_c, 1, 63, 127
2, 100880, Note_off_c, 1, 63, 0
2, 100920, Note_on_c, 1, 63, 127
2, 101040, Note_off_c, 1, 63, 0
2, 101080, Note_on_c, 1, 61, 127
2, 101400, Note_off_c, 1, 61, 0
2, 101440, Note_on_c, 1, 63, 127
2, 101720, Note_off_c, 1, 63, 0
2, 101760, Note_on_c, 1, 61, 127
2, 102080, Note_off_c, 1, 61, 0
2, 102120, Note_on_c, 1, 58, 127
2, 102440, Note_off_c, 1, 58, 0
2, 102480, Note_on_c, 1, 63, 127
2, 102760, Note_off_c, 1, 63, 0
2, 102800, Note_on_c, 1, 66, 127
2, 102920, Note_on_c, 1, 54, 127
2, 102960, Note_off_c, 1, 54, 0
2, 103000, Note_off_c, 1, 66, 0
2, 103040, Note_on_c, 1, 66, 127
2, 103160, Note_off_c, 1, 66, 0
2, 103200, Note_on_c, 1, 39, 127
2, 103200, Note_on_c, 1, 58, 127
2, 103200, Note_on_c, 1, 66, 127
2, 104200, Note_off_c, 1, 39, 0
2, 104200, Note_off_c, 1, 58, 0
2, 104200, Note_off_c, 1, 66, 0
2, 104240, Note_on_c, 1, 30, 127
2, 104240, Note_on_c, 1, 42, 127
2, 104240, Note_on_c, 1, 59, 127
2, 104240, Note_on_c, 1, 61, 127
2, 104240, Note_on_c, 1, 66, 127
2, 104240, Note_on_c, 1, 71, 127
2, 104280, Note_off_c, 1, 30, 0
2, 104280, Note_off_c, 1, 42, 0
2, 104280, Note_on_c, 1, 49, 127
2, 104280, Note_on_c, 1, 56, 127
2, 104280, Note_off_c, 1, 59, 0
2, 104280, Note_off_c, 1, 61, 0
2, 104280, Note_off_c, 1, 66, 0
2, 104280, Note_on_c, 1, 68, 127
2, 104280, Note_off_c, 1, 71, 0
2, 104280, Note_on_c, 1, 73, 127
2, 104280, Note_on_c, 1, 76, 127
2, 104280, Note_on_c, 1, 80, 127
2, 104320, Note_off_c, 1, 49, 0
2, 104320, Note_on_c, 1, 50, 127
2, 104320, Note_on_c, 1, 53, 127
2, 104320, Note_off_c, 1, 56, 0
2, 104320, Note_on_c, 1, 58, 127
2, 104320, Note_on_c, 1, 62, 127
2, 104320, Note_off_c, 1, 68, 0
2, 104320, Note_off_c, 1, 73, 0
2, 104320, Note_off_c, 1, 76, 0
2, 104360, Note_off_c, 1, 50, 0
2, 104360, Note_off_c, 1, 53, 0
2, 104360, Note_on_c, 1, 57, 127
2, 104360, Note_off_c, 1, 58, 0
2, 104360, Note_on_c, 1, 69, 127
2, 104360, Note_on_c, 1, 72, 127
2, 104360, Note_off_c, 1, 80, 0
2, 104360, Note_on_c, 1, 84, 127
2, 104400, Note_on_c, 1, 29, 127
2, 104400, Note_on_c, 1, 41, 127
2, 104400, Note_off_c, 1, 57, 0
2, 104400, Note_on_c, 1, 61, 127
2, 104400, Note_off_c, 1, 62, 0
2, 104400, Note_on_c, 1, 68, 127
2, 104400, Note_off_c, 1, 69, 0
2, 104400, Note_off_c, 1, 72, 0
2, 104400, Note_on_c, 1, 73, 127
2, 104400, Note_off_c, 1, 84, 0
2, 104440, Note_off_c, 1, 29, 0
2, 104440, Note_off_c, 1, 41, 0
2, 104440, Note_on_c, 1, 53, 127
2, 104440, Note_off_c, 1, 61, 0
2, 104440, Note_on_c, 1, 63, 127
2, 104440, Note_off_c, 1, 68, 0
2, 104480, Note_on_c, 1, 29, 127
2, 104480, Note_on_c, 1, 41, 127
2, 104480, Note_off_c, 1, 53, 0
2, 104480, Note_on_c, 1, 61, 127
2, 104480, Note_off_c, 1, 63, 0
2, 104480, Note_on_c, 1, 68, 127
2, 104520, Note_off_c, 1, 29, 0
2, 104520, Note_off_c, 1, 41, 0
2, 104520, Note_on_c, 1, 51, 127
2, 104520, Note_on_c, 1, 54, 127
2, 104520, Note_off_c, 1, 61, 0
2, 104520, Note_off_c, 1, 68, 0
2, 104520, Note_off_c, 1, 73, 0
2, 104560, Note_on_c, 1, 42, 127
2, 104560, Note_on_c, 1, 46, 127
2, 104560, Note_on_c, 1, 49, 127
2, 104560, Note_off_c, 1, 51, 0
2, 104560, Note_off_c, 1, 54, 0
2, 104560, Note_on_c, 1, 58, 127
2, 104560, Note_on_c, 1, 70, 127
2, 104680, Note_off_c, 1, 42, 0
2, 104680, Note_on_c, 1, 45, 127
2, 104680, Note_off_c, 1, 46, 0
2, 104680, Note_off_c, 1, 49, 0
2, 104680, Note_off_c, 1, 58, 0
2, 104680, Note_off_c, 1, 70, 0
2, 104680, Note_on_c, 1, 71, 127
2, 104680, Note_on_c, 1, 78, 127
2, 104720, Note_off_c, 1, 45, 0
2, 104720, Note_on_c, 1, 46, 127
2, 104720, Note_on_c, 1, 51, 127
2, 104720, Note_on_c, 1, 66, 127
2, 104720, Note_on_c, 1, 70, 127
2, 104720, Note_off_c, 1, 71, 0
2, 104720, Note_off_c, 1, 78, 0
2, 104760, Note_on_c, 1, 30, 127
2, 104760, Note_on_c, 1, 37, 127
2, 104760, Note_off_c, 1, 46, 0
2, 104760, Note_off_c, 1, 51, 0
2, 104760, Note_off_c, 1, 66, 0
2, 104760, Note_on_c, 1, 69, 127
2, 104760, Note_off_c, 1, 70, 0
2, 104800, Note_off_c, 1, 30, 0
2, 104800, Note_off_c, 1, 37, 0
2, 104800, Note_on_c, 1, 48, 127
2, 104800, Note_on_c, 1, 56, 127
2, 104800, Note_on_c, 1, 66, 127
2, 104800, Note_on_c, 1, 68, 127
2, 104800, Note_off_c, 1, 69, 0
2, 104800, Note_on_c, 1, 75, 127
2, 104840, Note_off_c, 1, 48, 0
2, 104840, Note_on_c, 1, 49, 127
2, 104840, Note_on_c, 1, 55, 127
2, 104840, Note_off_c, 1, 56, 0
2, 104840, Note_on_c, 1, 61, 127
2, 104840, Note_on_c, 1, 64, 127
2, 104840, Note_off_c, 1, 66, 0
2, 104840, Note_off_c, 1, 68, 0
2, 104840, Note_off_c, 1, 75, 0
2, 104880, Note_off_c, 1, 49, 0
2, 104880, Note_off_c, 1, 55, 0
2, 104880, Note_off_c, 1, 61, 0
2, 104880, Note_off_c, 1, 64, 0
2, 104920, Note_on_c, 1, 37, 127
2, 104920, Note_on_c, 1, 58, 127
2, 104920, Note_on_c, 1, 66, 127
2, 105200, Note_off_c, 1, 37, 0
2, 105240, Note_off_c, 1, 58, 0
2, 105240, Note_off_c, 1, 66, 0
2, 105320, Note_on_c, 1, 46, 127
2, 105320, Note_on_c, 1, 56, 127
2, 105320, Note_on_c, 1, 62, 127
2, 105320, Note_on_c, 1, 65, 127
2, 105320, Note_on_c, 1, 67, 127
2, 105360, Note_on_c, 1, 41, 127
2, 105360, Note_off_c, 1, 46, 0
2, 105360, Note_off_c, 1, 62, 0
2, 105360, Note_off_c, 1, 67, 0
2, 105400, Note_off_c, 1, 41, 0
2, 105400, Note_on_c, 1, 42, 127
2, 105400, Note_on_c, 1, 54, 127
2, 105400, Note_off_c, 1, 56, 0
2, 105400, Note_off_c, 1, 65, 0
2, 105400, Note_on_c, 1, 81, 127
2, 105400, Note_on_c, 1, 85, 127
2, 105400, Note_on_c, 1, 93, 127
2, 105440, Note_off_c, 1, 42, 0
2, 105440, Note_off_c, 1, 54, 0
2, 105440, Note_on_c, 1, 58, 127
2, 105440, Note_on_c, 1, 66, 127
2, 105440, Note_on_c, 1, 70, 127
2, 105440, Note_on_c, 1, 75, 127
2, 105440, Note_on_c, 1, 78, 127
2, 105440, Note_off_c, 1, 81, 0
2, 105440, Note_on_c, 1, 82, 127
2, 105440, Note_off_c, 1, 85, 0
2, 105440, Note_on_c, 1, 89, 127
2, 105440, Note_off_c, 1, 93, 0
2, 105480, Note_on_c, 1, 54, 127
2, 105480, Note_off_c, 1, 58, 0
2, 105480, Note_on_c, 1, 59, 127
2, 105480, Note_on_c, 1, 61, 127
2, 105480, Note_off_c, 1, 66, 0
2, 105480, Note_on_c, 1, 69, 127
2, 105480, Note_off_c, 1, 70, 0
2, 105480, Note_off_c, 1, 75, 0
2, 105480, Note_off_c, 1, 82, 0
2, 105480, Note_off_c, 1, 89, 0
2, 105520, Note_on_c, 1, 27, 127
2, 105520, Note_on_c, 1, 39, 127
2, 105520, Note_off_c, 1, 54, 0
2, 105520, Note_on_c, 1, 58, 127
2, 105520, Note_off_c, 1, 59, 0
2, 105520, Note_off_c, 1, 61, 0
2, 105520, Note_on_c, 1, 63, 127
2, 105520, Note_on_c, 1, 65, 127
2, 105520, Note_off_c, 1, 69, 0
2, 105520, Note_on_c, 1, 70, 127
2, 105520, Note_off_c, 1, 78, 0
2, 105520, Note_on_c, 1, 80, 127
2, 105520, Note_on_c, 1, 94, 127
2, 105560, Note_off_c, 1, 27, 0
2, 105560, Note_on_c, 1, 34, 127
2, 105560, Note_off_c, 1, 39, 0
2, 105560, Note_on_c, 1, 41, 127
2, 105560, Note_on_c, 1, 46, 127
2, 105560, Note_off_c, 1, 58, 0
2, 105560, Note_off_c, 1, 63, 0
2, 105560, Note_off_c, 1, 65, 0
2, 105560, Note_off_c, 1, 70, 0
2, 105560, Note_on_c, 1, 77, 127
2, 105560, Note_off_c, 1, 80, 0
2, 105560, Note_on_c, 1, 85, 127
2, 105560, Note_off_c, 1, 94, 0
2, 105600, Note_off_c, 1, 34, 0
2, 105600, Note_off_c, 1, 41, 0
2, 105600, Note_off_c, 1, 46, 0
2, 105600, Note_on_c, 1, 48, 127
2, 105600, Note_on_c, 1, 57, 127
2, 105600, Note_on_c, 1, 60, 127
2, 105600, Note_off_c, 1, 77, 0
2, 105600, Note_off_c, 1, 85, 0
2, 105640, Note_off_c, 1, 57, 0
2, 105640, Note_on_c, 1, 95, 127
2, 105640, Note_on_c, 1, 98, 127
2, 105640, Note_on_c, 1, 103, 127
2, 105640, Note_on_c, 1, 107, 127
2, 105680, Note_on_c, 1, 39, 127
2, 105680, Note_off_c, 1, 48, 0
2, 105680, Note_on_c, 1, 54, 127
2, 105680, Note_on_c, 1, 59, 127
2, 105680, Note_off_c, 1, 60, 0
2, 105680, Note_on_c, 1, 63, 127
2, 105680, Note_on_c, 1, 66, 127
2, 105680, Note_off_c, 1, 95, 0
2, 105680, Note_off_c, 1, 98, 0
2, 105680, Note_off_c, 1, 103, 0
2, 105680, Note_off_c, 1, 107, 0
2, 105720, Note_off_c, 1, 39, 0
2, 105720, Note_on_c, 1, 52, 127
2, 105720, Note_off_c, 1, 54, 0
2, 105720, Note_on_c, 1, 57, 127
2, 105720, Note_off_c, 1, 63, 0
2, 105720, Note_off_c, 1, 66, 0
2, 105720, Note_on_c, 1, 67, 127
2, 105760, Note_on_c, 1, 37, 127
2, 105760, Note_off_c, 1, 52, 0
2, 105760, Note_off_c, 1, 57, 0
2, 105760, Note_off_c, 1, 59, 0
2, 105760, Note_off_c, 1, 67, 0
2, 105760, Note_on_c, 1, 77, 127
2, 105760, Note_on_c, 1, 89, 127
2, 105800, Note_off_c, 1, 37, 0
2, 105800, Note_on_c, 1, 39, 127
2, 105800, Note_on_c, 1, 54, 127
2, 105800, Note_off_c, 1, 77, 0
2, 105800, Note_off_c, 1, 89, 0
2, 105840, Note_off_c, 1, 39, 0
2, 105840, Note_on_c, 1, 53, 127
2, 105840, Note_off_c, 1, 54, 0
2, 105840, Note_on_c, 1, 58, 127
2, 105840, Note_on_c, 1, 60, 127
2, 105840, Note_on_c, 1, 96, 127
2, 105880, Note_on_c, 1, 46, 127
2, 105880, Note_off_c, 1, 53, 0
2, 105880, Note_off_c, 1, 58, 0
2, 105880, Note_off_c, 1, 60, 0
2, 105880, Note_on_c, 1, 86, 127
2, 105880, Note_on_c, 1, 91, 127
2, 105880, Note_off_c, 1, 96, 0
2, 105920, Note_on_c, 1, 45, 127
2, 105920, Note_off_c, 1, 46, 0
2, 105920, Note_on_c, 1, 47, 127
2, 105920, Note_on_c, 1, 57, 127
2, 105920, Note_on_c, 1, 63, 127
2, 105920, Note_on_c, 1, 66, 127
2, 105920, Note_on_c, 1, 71, 127
2, 105920, Note_on_c, 1, 75, 127
2, 105920, Note_off_c, 1, 86, 0
2, 105920, Note_off_c, 1, 91, 0
2, 105960, Note_off_c, 1, 45, 0
2, 105960, Note_off_c, 1, 47, 0
2, 105960, Note_off_c, 1, 57, 0
2, 105960, Note_off_c, 1, 63, 0
2, 105960, Note_off_c, 1, 66, 0
2, 105960, Note_off_c, 1, 71, 0
2, 105960, Note_off_c, 1, 75, 0
2, 106000, Note_on_c, 1, 41, 127
2, 106000, Note_on_c, 1, 45, 127
2, 106000, Note_on_c, 1, 61, 127
2, 106000, Note_on_c, 1, 64, 127
2, 106000, Note_on_c, 1, 67, 127
2, 106000, Note_on_c, 1, 69, 127
2, 106280, Note_off_c, 1, 41, 0
2, 106280, Note_off_c, 1, 45, 0
2, 106280, Note_off_c, 1, 61, 0
2, 106280, Note_off_c, 1, 64, 0
2, 106280, Note_off_c, 1, 67, 0
2, 106280, Note_off_c, 1, 69, 0
2, 106360, Note_on_c, 1, 40, 127
2, 106360, Note_on_c, 1, 55, 127
2, 106360, Note_on_c, 1, 59, 127
2, 107360, Note_off_c, 1, 40, 0
2, 107360, Note_off_c, 1, 55, 0
2, 107360, Note_off_c, 1, 59, 0
2, 107440, Note_on_c, 1, 40, 127
2, 107440, Note_on_c, 1, 55, 127
2, 107440, Note_on_c, 1, 59, 127
2, 108120, Note_off_c, 1, 40, 0
2, 108120, Note_off_c, 1, 55, 0
2, 108120, Note_off_c, 1, 59, 0
2, 108160, Note_on_c, 1, 59, 127
2, 108160, Note_on_c, 1, 65, 127
2, 108160, Note_on_c, 1, 68, 127
2, 108160, Note_on_c, 1, 75, 127
2, 108160, Note_on_c, 1, 77, 127
2, 108160, Note_on_c, 1, 80, 127
2, 108800, Note_off_c, 1, 59, 0
2, 108800, Note_off_c, 1, 65, 0
2, 108800, Note_off_c, 1, 68, 0
2, 108800, Note_off_c, 1, 75, 0
2, 108800, Note_off_c, 1, 77, 0
2, 108800, Note_off_c, 1, 80, 0
2, 108840, Note_on_c, 1, 60, 127
2, 108840, Note_on_c, 1, 70, 127
2, 108840, Note_on_c, 1, 73, 127
2, 108840, Note_on_c, 1, 76, 127
2, 109160, Note_off_c, 1, 60, 0
2, 109160, Note_off_c, 1, 76, 0
2, 109160, Note_on_c, 1, 77, 127
2, 109200, Note_on_c, 1, 44, 127
2, 109200, Note_on_c, 1, 68, 127
2, 109200, Note_off_c, 1, 70, 0
2, 109200, Note_on_c, 1, 80, 127
2, 109520, Note_off_c, 1, 44, 0
2, 109560, Note_off_c, 1, 68, 0
2, 109560, Note_off_c, 1, 73, 0
2, 109560, Note_off_c, 1, 77, 0
2, 109560, Note_off_c, 1, 80, 0
2, 109600, Note_on_c, 1, 65, 127
2, 109600, Note_on_c, 1, 68, 127
2, 109600, Note_on_c, 1, 73, 127
2, 109600, Note_on_c, 1, 77, 127
2, 109600, Note_on_c, 1, 80, 127
2, 109880, Note_off_c, 1, 65, 0
2, 109880, Note_off_c, 1, 68, 0
2, 109880, Note_off_c, 1, 73, 0
2, 109880, Note_off_c, 1, 77, 0
2, 109880, Note_off_c, 1, 80, 0
2, 109920, Note_on_c, 1, 59, 127
2, 109920, Note_on_c, 1, 68, 127
2, 109920, Note_on_c, 1, 74, 127
2, 109920, Note_on_c, 1, 77, 127
2, 110400, Note_off_c, 1, 59, 0
2, 110440, Note_on_c, 1, 49, 127
2, 110440, Note_on_c, 1, 64, 127
2, 110440, Note_off_c, 1, 74, 0
2, 110440, Note_off_c, 1, 77, 0
2, 110440, Note_on_c, 1, 80, 127
2, 110560, Note_off_c, 1, 49, 0
2, 110560, Note_off_c, 1, 64, 0
2, 110560, Note_off_c, 1, 68, 0
2, 110560, Note_off_c, 1, 80, 0
2, 110600, Note_on_c, 1, 49, 127
2, 110600, Note_on_c, 1, 56, 127
2, 110600, Note_on_c, 1, 64, 127
2, 110600, Note_on_c, 1, 73, 127
2, 110920, Note_off_c, 1, 49, 0
2, 110960, Note_on_c, 1, 47, 127
2, 110960, Note_on_c, 1, 63, 127
2, 110960, Note_off_c, 1, 64, 0
2, 110960, Note_on_c, 1, 68, 127
2, 110960, Note_off_c, 1, 73, 0
2, 111240, Note_off_c, 1, 47, 0
2, 111240, Note_off_c, 1, 56, 0
2, 111240, Note_off_c, 1, 63, 0
2, 111240, Note_off_c, 1, 68, 0
2, 111280, Note_on_c, 1, 49, 127
2, 111280, Note_on_c, 1, 58, 127
2, 111280, Note_on_c, 1, 65, 127
2, 111600, Note_off_c, 1, 49, 0
2, 111600, Note_off_c, 1, 58, 0
2, 111600, Note_off_c, 1, 65, 0
2, 111640, Note_on_c, 1, 58, 127
2, 111680, Note_on_c, 1, 64, 127
2, 111680, Note_on_c, 1, 78, 127
2, 111960, Note_on_c, 1, 76, 127
2, 111960, Note_off_c, 1, 78, 0
2, 112000, Note_off_c, 1, 64, 0
2, 112000, Note_off_c, 1, 76, 0
2, 112040, Note_off_c, 1, 58, 0
2, 112040, Note_on_c, 1, 59, 127
2, 112040, Note_on_c, 1, 61, 127
2, 112040, Note_on_c, 1, 68, 127
2, 112040, Note_on_c, 1, 77, 127
2, 112680, Note_off_c, 1, 59, 0
2, 112680, Note_off_c, 1, 61, 0
2, 112680, Note_off_c, 1, 68, 0
2, 112680, Note_off_c, 1, 77, 0
2, 112720, Note_on_c, 1, 58, 127
2, 112720, Note_on_c, 1, 61, 127
2, 112720, Note_on_c, 1, 73, 127
2, 113040, Note_off_c, 1, 61, 0
2, 113080, Note_off_c, 1, 58, 0
2, 113080, Note_on_c, 1, 59, 127
2, 113080, Note_on_c, 1, 63, 127
2, 113080, Note_on_c, 1, 65, 127
2, 113080, Note_off_c, 1, 73, 0
2, 113080, Note_on_c, 1, 83, 127
2, 113080, Note_on_c, 1, 87, 127
2, 113120, Note_on_c, 1, 77, 127
2, 113120, Note_off_c, 1, 83, 0
2, 113120, Note_off_c, 1, 87, 0
2, 113200, Note_on_c, 1, 37, 127
2, 113200, Note_on_c, 1, 49, 127
2, 113200, Note_on_c, 1, 56, 127
2, 113200, Note_off_c, 1, 59, 0
2, 113200, Note_on_c, 1, 61, 127
2, 113200, Note_off_c, 1, 63, 0
2, 113200, Note_off_c, 1, 77, 0
2, 113200, Note_on_c, 1, 101, 127
2, 113240, Note_off_c, 1, 37, 0
2, 113240, Note_off_c, 1, 49, 0
2, 113240, Note_off_c, 1, 56, 0
2, 113240, Note_on_c, 1, 59, 127
2, 113240, Note_off_c, 1, 61, 0
2, 113240, Note_on_c, 1, 63, 127
2, 113240, Note_on_c, 1, 77, 127
2, 113240, Note_off_c, 1, 101, 0
2, 113360, Note_off_c, 1, 59, 0
2, 113360, Note_off_c, 1, 63, 0
2, 113360, Note_off_c, 1, 65, 0
2, 113400, Note_on_c, 1, 53, 127
2, 113400, Note_on_c, 1, 63, 127
2, 113400, Note_on_c, 1, 66, 127
2, 113400, Note_on_c, 1, 69, 127
2, 113400, Note_on_c, 1, 73, 127
2, 113400, Note_off_c, 1, 77, 0
2, 113560, Note_off_c, 1, 73, 0
2, 113720, Note_off_c, 1, 53, 0
2, 113720, Note_off_c, 1, 63, 0
2, 113720, Note_on_c, 1, 65, 127
2, 113720, Note_off_c, 1, 66, 0
2, 113720, Note_off_c, 1, 69, 0
2, 113760, Note_off_c, 1, 65, 0
2, 113800, Note_on_c, 1, 53, 127
2, 113800, Note_on_c, 1, 60, 127
2, 113800, Note_on_c, 1, 62, 127
2, 113800, Note_on_c, 1, 65, 127
2, 114080, Note_off_c, 1, 53, 0
2, 114080, Note_off_c, 1, 60, 0
2, 114080, Note_off_c, 1, 62, 0
2, 114120, Note_on_c, 1, 68, 127
2, 114120, Note_on_c, 1, 81, 127
2, 114440, Note_off_c, 1, 68, 0
2, 114440, Note_off_c, 1, 81, 0
2, 114480, Note_on_c, 1, 38, 127
2, 114480, Note_on_c, 1, 47, 127
2, 114480, Note_on_c, 1, 50, 127
2, 114480, Note_off_c, 1, 65, 0
2, 114480, Note_on_c, 1, 83, 127
2, 114480, Note_on_c, 1, 89, 127
2, 114480, Note_on_c, 1, 92, 127
2, 114520, Note_off_c, 1, 38, 0
2, 114520, Note_off_c, 1, 47, 0
2, 114520, Note_off_c, 1, 50, 0
2, 114520, Note_on_c, 1, 70, 127
2, 114520, Note_on_c, 1, 73, 127
2, 114520, Note_on_c, 1, 77, 127
2, 114520, Note_on_c, 1, 80, 127
2, 114520, Note_off_c, 1, 83, 0
2, 114520, Note_on_c, 1, 85, 127
2, 114520, Note_off_c, 1, 89, 0
2, 114520, Note_off_c, 1, 92, 0
2, 114560, Note_on_c, 1, 56, 127
2, 114560, Note_on_c, 1, 63, 127
2, 114560, Note_on_c, 1, 66, 127
2, 114560, Note_off_c, 1, 73, 0
2, 114560, Note_on_c, 1, 75, 127
2, 114560, Note_off_c, 1, 77, 0
2, 114560, Note_off_c, 1, 80, 0
2, 114560, Note_off_c, 1, 85, 0
2, 114600, Note_off_c, 1, 56, 0
2, 114600, Note_on_c, 1, 58, 127
2, 114600, Note_off_c, 1, 70, 0
2, 114600, Note_off_c, 1, 75, 0
2, 114600, Note_on_c, 1, 81, 127
2, 114640, Note_on_c, 1, 54, 127
2, 114640, Note_on_c, 1, 57, 127
2, 114640, Note_off_c, 1, 58, 0
2, 114640, Note_on_c, 1, 60, 127
2, 114640, Note_off_c, 1, 63, 0
2, 114640, Note_off_c, 1, 66, 0
2, 114640, Note_on_c, 1, 69, 127
2, 114680, Note_on_c, 1, 35, 127
2, 114680, Note_on_c, 1, 47, 127
2, 114680, Note_on_c, 1, 51, 127
2, 114680, Note_off_c, 1, 57, 0
2, 114680, Note_on_c, 1, 59, 127
2, 114680, Note_off_c, 1, 60, 0
2, 114680, Note_on_c, 1, 63, 127
2, 114680, Note_off_c, 1, 69, 0
2, 114680, Note_on_c, 1, 71, 127
2, 114680, Note_on_c, 1, 75, 127
2, 114680, Note_off_c, 1, 81, 0
2, 114720, Note_off_c, 1, 35, 0
2, 114720, Note_off_c, 1, 51, 0
2, 114720, Note_off_c, 1, 54, 0
2, 114720, Note_off_c, 1, 59, 0
2, 114720, Note_on_c, 1, 62, 127
2, 114720, Note_off_c, 1, 63, 0
2, 114720, Note_on_c, 1, 64, 127
2, 114720, Note_on_c, 1, 68, 127
2, 114720, Note_off_c, 1, 71, 0
2, 114720, Note_on_c, 1, 73, 127
2, 114720, Note_off_c, 1, 75, 0
2, 114720, Note_on_c, 1, 76, 127
2, 114760, Note_off_c, 1, 47, 0
2, 114760, Note_off_c, 1, 62, 0
2, 114760, Note_off_c, 1, 64, 0
2, 114760, Note_off_c, 1, 68, 0
2, 114760, Note_off_c, 1, 73, 0
2, 114760, Note_off_c, 1, 76, 0
2, 114800, Note_on_c, 1, 42, 127
2, 114800, Note_on_c, 1, 66, 127
2, 114800, Note_on_c, 1, 70, 127
2, 115120, Note_off_c, 1, 70, 0
2, 115160, Note_on_c, 1, 74, 127
2, 115160, Note_on_c, 1, 78, 127
2, 115200, Note_off_c, 1, 42, 0
2, 115200, Note_on_c, 1, 43, 127
2, 115200, Note_off_c, 1, 66, 0
2, 115200, Note_on_c, 1, 71, 127
2, 115200, Note_off_c, 1, 74, 0
2, 115200, Note_on_c, 1, 75, 127
2, 115200, Note_off_c, 1, 78, 0
2, 115240, Note_on_c, 1, 42, 127
2, 115240, Note_off_c, 1, 43, 0
2, 115240, Note_on_c, 1, 66, 127
2, 115240, Note_off_c, 1, 71, 0
2, 115240, Note_on_c, 1, 74, 127
2, 115240, Note_off_c, 1, 75, 0
2, 115240, Note_on_c, 1, 78, 127
2, 115440, Note_off_c, 1, 66, 0
2, 115440, Note_on_c, 1, 70, 127
2, 115440, Note_off_c, 1, 74, 0
2, 115440, Note_off_c, 1, 78, 0
2, 115480, Note_on_c, 1, 66, 127
2, 115800, Note_off_c, 1, 42, 0
2, 115800, Note_on_c, 1, 61, 127
2, 115800, Note_off_c, 1, 66, 0
2, 115800, Note_off_c, 1, 70, 0
2, 115840, Note_on_c, 1, 42, 127
2, 115840, Note_on_c, 1, 59, 127
2, 115840, Note_off_c, 1, 61, 0
2, 115840, Note_on_c, 1, 68, 127
2, 115960, Note_off_c, 1, 42, 0
2, 115960, Note_off_c, 1, 59, 0
2, 115960, Note_off_c, 1, 68, 0
2, 116000, Note_on_c, 1, 42, 127
2, 116000, Note_on_c, 1, 59, 127
2, 116000, Note_on_c, 1, 68, 127
2, 116160, Note_off_c, 1, 42, 0
2, 116160, Note_off_c, 1, 68, 0
2, 116200, Note_on_c, 1, 35, 127
2, 116200, Note_on_c, 1, 63, 127
2, 116200, Note_on_c, 1, 66, 127
2, 116520, Note_off_c, 1, 35, 0
2, 116520, Note_off_c, 1, 59, 0
2, 116520, Note_off_c, 1, 63, 0
2, 116560, Note_on_c, 1, 54, 127
2, 116560, Note_on_c, 1, 68, 127
2, 116560, Note_on_c, 1, 71, 127
2, 116840, Note_off_c, 1, 66, 0
2, 116880, Note_off_c, 1, 54, 0
2, 116920, Note_on_c, 1, 53, 127
2, 116920, Note_on_c, 1, 61, 127
2, 116920, Note_off_c, 1, 71, 0
2, 116920, Note_on_c, 1, 72, 127
2, 117200, Note_off_c, 1, 68, 0
2, 117200, Note_off_c, 1, 72, 0
2, 117240, Note_on_c, 1, 68, 127
2, 117240, Note_on_c, 1, 73, 127
2, 117440, Note_on_c, 1, 72, 127
2, 117440, Note_off_c, 1, 73, 0
2, 117560, Note_off_c, 1, 53, 0
2, 117560, Note_off_c, 1, 61, 0
2, 117560, Note_off_c, 1, 68, 0
2, 117560, Note_off_c, 1, 72, 0
2, 117600, Note_on_c, 1, 54, 127
2, 117600, Note_on_c, 1, 58, 127
2, 117600, Note_on_c, 1, 66, 127
2, 117600, Note_on_c, 1, 73, 127
2, 117720, Note_off_c, 1, 73, 0
2, 117760, Note_on_c, 1, 78, 127
2, 117960, Note_off_c, 1, 54, 0
2, 117960, Note_off_c, 1, 58, 0
2, 117960, Note_off_c, 1, 66, 0
2, 117960, Note_off_c, 1, 78, 0
2, 118000, Note_on_c, 1, 54, 127
2, 118000, Note_on_c, 1, 58, 127
2, 118000, Note_on_c, 1, 66, 127
2, 118000, Note_on_c, 1, 78, 127
2, 118640, Note_off_c, 1, 54, 0
2, 118680, Note_on_c, 1, 47, 127
2, 118680, Note_on_c, 1, 49, 127
2, 118680, Note_off_c, 1, 58, 0
2, 118680, Note_off_c, 1, 66, 0
2, 118680, Note_on_c, 1, 70, 127
2, 118720, Note_off_c, 1, 49, 0
2, 118720, Note_off_c, 1, 70, 0
2, 118760, Note_on_c, 1, 54, 127
2, 118760, Note_on_c, 1, 66, 127
2, 118800, Note_off_c, 1, 54, 0
2, 118800, Note_off_c, 1, 66, 0
2, 118840, Note_on_c, 1, 49, 127
2, 118840, Note_on_c, 1, 70, 127
2, 118880, Note_off_c, 1, 49, 0
2, 118880, Note_off_c, 1, 70, 0
2, 118920, Note_on_c, 1, 58, 127
2, 118920, Note_on_c, 1, 73, 127
2, 118960, Note_off_c, 1, 58, 0
2, 118960, Note_off_c, 1, 73, 0
2, 119000, Note_on_c, 1, 46, 127
2, 119000, Note_off_c, 1, 47, 0
2, 119000, Note_on_c, 1, 56, 127
2, 119000, Note_on_c, 1, 74, 127
2, 119000, Note_on_c, 1, 77, 127
2, 119000, Note_off_c, 1, 78, 0
2, 119080, Note_off_c, 1, 46, 0
2, 119080, Note_off_c, 1, 56, 0
2, 119080, Note_on_c, 1, 65, 127
2, 119080, Note_off_c, 1, 77, 0
2, 119080, Note_on_c, 1, 80, 127
2, 119080, Note_on_c, 1, 83, 127
2, 119120, Note_on_c, 1, 46, 127
2, 119120, Note_on_c, 1, 56, 127
2, 119120, Note_off_c, 1, 65, 0
2, 119120, Note_on_c, 1, 77, 127
2, 119120, Note_off_c, 1, 80, 0
2, 119120, Note_off_c, 1, 83, 0
2, 119320, Note_off_c, 1, 46, 0
2, 119320, Note_off_c, 1, 56, 0
2, 119320, Note_off_c, 1, 74, 0
2, 119320, Note_off_c, 1, 77, 0
2, 119360, Note_on_c, 1, 47, 127
2, 119360, Note_on_c, 1, 51, 127
2, 119360, Note_on_c, 1, 59, 127
2, 119360, Note_on_c, 1, 80, 127
2, 119640, Note_off_c, 1, 47, 0
2, 119640, Note_off_c, 1, 51, 0
2, 119640, Note_on_c, 1, 71, 127
2, 119640, Note_on_c, 1, 75, 127
2, 119640, Note_off_c, 1, 80, 0
2, 119680, Note_on_c, 1, 42, 127
2, 119680, Note_on_c, 1, 58, 127
2, 119680, Note_off_c, 1, 59, 0
2, 119680, Note_on_c, 1, 61, 127
2, 119680, Note_off_c, 1, 71, 0
2, 119680, Note_on_c, 1, 73, 127
2, 119680, Note_off_c, 1, 75, 0
2, 120000, Note_off_c, 1, 42, 0
2, 120000, Note_off_c, 1, 58, 0
2, 120000, Note_off_c, 1, 61, 0
2, 120000, Note_off_c, 1, 73, 0
2, 120040, End_track
3, 0, Start_track
3, 0, Title_t, "MIDI"
3, 1536, End_track
0, 0, End_of_file
