0, 0, Header, 1, 3, 192
1, 0, Start_track
1, 0, Time_signature, 4, 2, 24, 8
1, 0, Tempo, 500000
1, 120040, End_track
2, 0, Start_track
2, 0, Text_t, "random instrument: random person i dunno whatev"
2, 0, Title_t, "Track 1"
2, 0, Note_on_c, 1, 50, 127
2, 0, Note_on_c, 1, 57, 127
2, 0, Note_on_c, 1, 65, 127
2, 0, Note_on_c, 1, 69, 127
2, 0, Note_on_c, 1, 74, 127
2, 0, Note_on_c, 1, 77, 127
2, 0, Note_on_c, 1, 81, 127
2, 80, Note_off_c, 1, 50, 0
2, 80, Note_off_c, 1, 57, 0
2, 80, Note_off_c, 1, 65, 0
2, 80, Note_off_c, 1, 69, 0
2, 80, Note_off_c, 1, 74, 0
2, 80, Note_off_c, 1, 77, 0
2, 80, Note_off_c, 1, 81, 0
2, 120, Note_on_c, 1, 50, 127
2, 120, Note_on_c, 1, 57, 127
2, 120, Note_on_c, 1, 65, 127
2, 120, Note_on_c, 1, 69, 127
2, 120, Note_on_c, 1, 74, 127
2, 120, Note_on_c, 1, 77, 127
2, 120, Note_on_c, 1, 81, 127
2, 360, Note_off_c, 1, 50, 0
2, 360, Note_off_c, 1, 57, 0
2, 360, Note_off_c, 1, 65, 0
2, 360, Note_off_c, 1, 69, 0
2, 360, Note_off_c, 1, 74, 0
2, 360, Note_off_c, 1, 77, 0
2, 360, Note_off_c, 1, 81, 0
2, 400, Note_on_c, 1, 47, 127
2, 400, Note_on_c, 1, 59, 127
2, 400, Note_on_c, 1, 66, 127
2, 400, Note_on_c, 1, 71, 127
2, 400, Note_on_c, 1, 74, 127
2, 800, Note_off_c, 1, 47, 0
2, 800, Note_off_c, 1, 59, 0
2, 800, Note_off_c, 1, 66, 0
2, 800, Note_off_c, 1, 71, 0
2, 800, Note_off_c, 1, 74, 0
2, 5160, Note_on_c, 1, 48, 127
2, 5160, Note_on_c, 1, 55, 127
2, 5160, Note_on_c, 1, 60, 127
2, 5160, Note_on_c, 1, 64, 127
2, 5480, Note_off_c, 1, 48, 0
2, 5480, Note_off_c, 1, 55, 0
2, 5480, Note_off_c, 1, 60, 0
2, 5480, Note_off_c, 1, 64, 0
2, 5520, Note_on_c, 1, 43, 127
2, 5520, Note_on_c, 1, 53, 127
2, 5520, Note_on_c, 1, 59, 127
2, 5520, Note_on_c, 1, 62, 127
2, 5760, Note_off_c, 1, 62, 0
2, 5800, Note_on_c, 1, 64, 127
2, 5880, Note_off_c, 1, 64, 0
2, 5920, Note_off_c, 1, 59, 0
2, 5920, Note_on_c, 1, 63, 127
2, 6040, Note_off_c, 1, 43, 0
2, 6040, Note_off_c, 1, 53, 0
2, 6040, Note_off_c, 1, 63, 0
2, 6080, Note_on_c, 1, 36, 127
2, 6080, Note_on_c, 1, 51, 127
2, 6080, Note_on_c, 1, 55, 127
2, 6080, Note_on_c, 1, 60, 127
2, 7000, Note_off_c, 1, 36, 0
2, 7000, Note_off_c, 1, 51, 0
2, 7000, Note_off_c, 1, 55, 0
2, 7000, Note_off_c, 1, 60, 0
2, 7080, Note_on_c, 1, 48, 127
2, 7080, Note_on_c, 1, 55, 127
2, 7880, Note_on_c, 1, 60, 127
2, 7960, Note_off_c, 1, 60, 0
2, 8000, Note_on_c, 1, 60, 127
2, 8400, Note_off_c, 1, 55, 0
2, 8400, Note_off_c, 1, 60, 0
2, 8440, Note_on_c, 1, 55, 127
2, 8440, Note_on_c, 1, 60, 127
2, 8520, Note_off_c, 1, 60, 0
2, 8800, Note_off_c, 1, 55, 0
2, 8840, Note_on_c, 1, 55, 127
2, 9160, Note_on_c, 1, 60, 127
2, 9200, Note_off_c, 1, 60, 0
2, 9400, Note_off_c, 1, 48, 0
2, 9400, Note_off_c, 1, 55, 0
2, 9440, Note_on_c, 1, 48, 127
2, 9440, Note_on_c, 1, 55, 127
2, 9760, Note_on_c, 1, 60, 127
2, 9840, Note_off_c, 1, 60, 0
2, 10480, Note_on_c, 1, 60, 127
2, 10920, Note_off_c, 1, 60, 0
2, 11200, Note_off_c, 1, 48, 0
2, 11200, Note_off_c, 1, 55, 0
2, 11240, Note_on_c, 1, 48, 127
2, 11240, Note_on_c, 1, 55, 127
2, 11560, Note_off_c, 1, 48, 0
2, 11560, Note_off_c, 1, 55, 0
2, 11600, Note_on_c, 1, 48, 127
2, 11600, Note_on_c, 1, 55, 127
2, 12240, Note_off_c, 1, 48, 0
2, 12240, Note_off_c, 1, 55, 0
2, 12280, Note_on_c, 1, 49, 127
2, 12280, Note_on_c, 1, 53, 127
2, 13000, Note_off_c, 1, 49, 0
2, 13000, Note_off_c, 1, 53, 0
2, 26800, Note_on_c, 1, 86, 127
2, 26840, Note_off_c, 1, 86, 0
2, 26880, Note_on_c, 1, 84, 127
2, 26960, Note_off_c, 1, 84, 0
2, 27000, Note_on_c, 1, 86, 127
2, 27040, Note_off_c, 1, 86, 0
2, 27080, Note_on_c, 1, 89, 127
2, 27120, Note_off_c, 1, 89, 0
2, 27200, Note_on_c, 1, 86, 127
2, 27240, Note_off_c, 1, 86, 0
2, 27280, Note_on_c, 1, 57, 127
2, 27280, Note_on_c, 1, 84, 127
2, 27320, Note_off_c, 1, 57, 0
2, 27320, Note_off_c, 1, 84, 0
2, 27400, Note_on_c, 1, 84, 127
2, 27440, Note_off_c, 1, 84, 0
2, 27480, Note_on_c, 1, 57, 127
2, 27480, Note_on_c, 1, 84, 127
2, 27520, Note_off_c, 1, 57, 0
2, 27520, Note_off_c, 1, 84, 0
2, 27560, Note_on_c, 1, 84, 127
2, 27600, Note_off_c, 1, 84, 0
2, 27680, Note_on_c, 1, 69, 127
2, 27680, Note_on_c, 1, 84, 127
2, 27720, Note_off_c, 1, 69, 0
2, 27720, Note_off_c, 1, 84, 0
2, 27800, Note_on_c, 1, 84, 127
2, 27800, Note_on_c, 1, 86, 127
2, 27840, Note_off_c, 1, 84, 0
2, 27840, Note_off_c, 1, 86, 0
2, 27960, Note_on_c, 1, 84, 127
2, 28000, Note_off_c, 1, 84, 0
2, 28080, Note_on_c, 1, 84, 127
2, 28120, Note_off_c, 1, 84, 0
2, 28200, Note_on_c, 1, 82, 127
2, 28240, Note_off_c, 1, 82, 0
2, 28280, Note_on_c, 1, 80, 127
2, 28320, Note_off_c, 1, 80, 0
2, 28400, Note_on_c, 1, 74, 127
2, 28440, Note_off_c, 1, 74, 0
2, 28520, Note_on_c, 1, 72, 127
2, 28560, Note_off_c, 1, 72, 0
2, 28600, Note_on_c, 1, 72, 127
2, 28640, Note_off_c, 1, 72, 0
2, 28720, Note_on_c, 1, 69, 127
2, 28720, Note_on_c, 1, 77, 127
2, 28760, Note_off_c, 1, 69, 0
2, 28760, Note_off_c, 1, 77, 0
2, 28920, Note_on_c, 1, 69, 127
2, 28920, Note_on_c, 1, 77, 127
2, 28960, Note_off_c, 1, 69, 0
2, 28960, Note_off_c, 1, 77, 0
2, 29160, Note_on_c, 1, 69, 127
2, 29160, Note_on_c, 1, 77, 127
2, 29200, Note_off_c, 1, 69, 0
2, 29200, Note_off_c, 1, 77, 0
2, 29360, Note_on_c, 1, 72, 127
2, 29360, Note_on_c, 1, 81, 127
2, 29400, Note_off_c, 1, 72, 0
2, 29400, Note_off_c, 1, 81, 0
2, 29560, Note_on_c, 1, 72, 127
2, 29560, Note_on_c, 1, 81, 127
2, 29640, Note_off_c, 1, 81, 0
2, 29680, Note_on_c, 1, 81, 127
2, 29720, Note_off_c, 1, 81, 0
2, 29760, Note_on_c, 1, 77, 127
2, 29800, Note_off_c, 1, 77, 0
2, 29880, Note_on_c, 1, 79, 127
2, 29920, Note_off_c, 1, 79, 0
2, 29960, Note_on_c, 1, 76, 127
2, 30000, Note_off_c, 1, 76, 0
2, 30080, Note_on_c, 1, 69, 127
2, 30120, Note_off_c, 1, 69, 0
2, 30160, Note_on_c, 1, 69, 127
2, 30240, Note_off_c, 1, 69, 0
2, 30280, Note_on_c, 1, 69, 127
2, 30320, Note_off_c, 1, 69, 0
2, 30320, Note_off_c, 1, 72, 0
2, 30360, Note_on_c, 1, 67, 127
2, 30360, Note_on_c, 1, 76, 127
2, 30400, Note_off_c, 1, 67, 0
2, 30440, Note_on_c, 1, 72, 127
2, 30480, Note_off_c, 1, 72, 0
2, 30480, Note_off_c, 1, 76, 0
2, 30520, Note_on_c, 1, 81, 127
2, 30560, Note_on_c, 1, 72, 127
2, 30600, Note_off_c, 1, 72, 0
2, 30640, Note_on_c, 1, 72, 127
2, 30720, Note_off_c, 1, 72, 0
2, 30720, Note_off_c, 1, 81, 0
2, 30760, Note_on_c, 1, 69, 127
2, 30760, Note_on_c, 1, 72, 127
2, 30800, Note_off_c, 1, 69, 0
2, 30840, Note_on_c, 1, 79, 127
2, 30880, Note_off_c, 1, 79, 0
2, 30920, Note_off_c, 1, 72, 0
2, 30920, Note_on_c, 1, 84, 127
2, 30960, Note_on_c, 1, 69, 127
2, 31000, Note_off_c, 1, 69, 0
2, 31000, Note_off_c, 1, 84, 0
2, 31040, Note_on_c, 1, 72, 127
2, 31040, Note_on_c, 1, 76, 127
2, 31080, Note_off_c, 1, 72, 0
2, 31080, Note_off_c, 1, 76, 0
2, 31160, Note_on_c, 1, 72, 127
2, 31160, Note_on_c, 1, 77, 127
2, 31200, Note_off_c, 1, 72, 0
2, 31200, Note_off_c, 1, 77, 0
2, 31240, Note_on_c, 1, 76, 127
2, 31280, Note_off_c, 1, 76, 0
2, 31360, Note_on_c, 1, 79, 127
2, 31400, Note_on_c, 1, 77, 127
2, 31440, Note_off_c, 1, 77, 0
2, 31440, Note_off_c, 1, 79, 0
2, 31560, Note_on_c, 1, 76, 127
2, 31600, Note_off_c, 1, 76, 0
2, 31760, Note_on_c, 1, 77, 127
2, 31800, Note_off_c, 1, 77, 0
2, 31840, Note_on_c, 1, 79, 127
2, 31880, Note_off_c, 1, 79, 0
2, 31960, Note_on_c, 1, 81, 127
2, 32000, Note_off_c, 1, 81, 0
2, 32040, Note_on_c, 1, 84, 127
2, 32080, Note_off_c, 1, 84, 0
2, 32160, Note_on_c, 1, 79, 127
2, 32200, Note_off_c, 1, 79, 0
2, 32320, Note_on_c, 1, 77, 127
2, 33080, Note_off_c, 1, 77, 0
2, 33120, Note_on_c, 1, 74, 127
2, 33280, Note_off_c, 1, 74, 0
2, 33320, Note_on_c, 1, 77, 127
2, 33480, Note_off_c, 1, 77, 0
2, 33560, Note_on_c, 1, 76, 127
2, 33640, Note_off_c, 1, 76, 0
2, 33680, Note_on_c, 1, 74, 127
2, 33760, Note_off_c, 1, 74, 0
2, 33800, Note_on_c, 1, 72, 127
2, 33960, Note_off_c, 1, 72, 0
2, 34000, Note_on_c, 1, 62, 127
2, 34000, Note_on_c, 1, 71, 127
2, 34080, Note_off_c, 1, 62, 0
2, 34120, Note_on_c, 1, 65, 127
2, 34200, Note_off_c, 1, 65, 0
2, 34240, Note_on_c, 1, 64, 127
2, 34320, Note_off_c, 1, 64, 0
2, 34360, Note_on_c, 1, 62, 127
2, 34440, Note_off_c, 1, 62, 0
2, 34480, Note_on_c, 1, 65, 127
2, 34560, Note_off_c, 1, 65, 0
2, 34600, Note_on_c, 1, 62, 127
2, 34680, Note_off_c, 1, 62, 0
2, 34720, Note_on_c, 1, 65, 127
2, 34800, Note_off_c, 1, 65, 0
2, 34840, Note_on_c, 1, 62, 127
2, 34920, Note_off_c, 1, 62, 0
2, 34960, Note_on_c, 1, 65, 127
2, 35040, Note_off_c, 1, 65, 0
2, 35080, Note_on_c, 1, 62, 127
2, 35160, Note_off_c, 1, 62, 0
2, 35200, Note_on_c, 1, 65, 127
2, 35280, Note_off_c, 1, 65, 0
2, 35320, Note_on_c, 1, 62, 127
2, 35400, Note_off_c, 1, 62, 0
2, 35400, Note_off_c, 1, 71, 0
2, 35440, Note_on_c, 1, 59, 127
2, 35440, Note_on_c, 1, 74, 127
2, 35520, Note_off_c, 1, 59, 0
2, 35560, Note_on_c, 1, 62, 127
2, 35640, Note_off_c, 1, 62, 0
2, 35680, Note_off_c, 1, 74, 0
2, 35720, Note_on_c, 1, 59, 127
2, 35720, Note_on_c, 1, 74, 127
2, 35800, Note_off_c, 1, 59, 0
2, 35840, Note_on_c, 1, 62, 127
2, 35880, Note_off_c, 1, 62, 0
2, 35880, Note_off_c, 1, 74, 0
2, 35920, Note_on_c, 1, 57, 127
2, 35920, Note_on_c, 1, 72, 127
2, 36000, Note_off_c, 1, 57, 0
2, 36040, Note_on_c, 1, 62, 127
2, 36120, Note_off_c, 1, 62, 0
2, 36160, Note_on_c, 1, 60, 127
2, 36240, Note_off_c, 1, 60, 0
2, 36280, Note_on_c, 1, 65, 127
2, 36360, Note_off_c, 1, 65, 0
2, 36360, Note_off_c, 1, 72, 0
2, 36400, Note_on_c, 1, 59, 127
2, 36400, Note_on_c, 1, 74, 127
2, 36480, Note_off_c, 1, 59, 0
2, 36520, Note_on_c, 1, 64, 127
2, 36600, Note_off_c, 1, 64, 0
2, 36640, Note_on_c, 1, 60, 127
2, 36680, Note_off_c, 1, 60, 0
2, 36720, Note_on_c, 1, 65, 127
2, 36800, Note_off_c, 1, 65, 0
2, 36800, Note_off_c, 1, 74, 0
2, 36840, Note_on_c, 1, 57, 127
2, 36840, Note_on_c, 1, 77, 127
2, 36880, Note_off_c, 1, 57, 0
2, 36920, Note_on_c, 1, 65, 127
2, 37000, Note_off_c, 1, 65, 0
2, 37040, Note_on_c, 1, 62, 127
2, 37240, Note_off_c, 1, 62, 0
2, 37240, Note_off_c, 1, 77, 0
2, 37280, Note_on_c, 1, 60, 127
2, 37280, Note_on_c, 1, 76, 127
2, 37320, Note_off_c, 1, 76, 0
2, 37360, Note_on_c, 1, 74, 127
2, 37400, Note_off_c, 1, 74, 0
2, 37440, Note_off_c, 1, 60, 0
2, 37440, Note_on_c, 1, 76, 127
2, 37480, Note_on_c, 1, 65, 127
2, 37480, Note_on_c, 1, 74, 127
2, 37480, Note_off_c, 1, 76, 0
2, 37520, Note_off_c, 1, 74, 0
2, 37560, Note_on_c, 1, 76, 127
2, 37600, Note_off_c, 1, 76, 0
2, 37640, Note_on_c, 1, 74, 127
2, 37680, Note_off_c, 1, 65, 0
2, 37680, Note_off_c, 1, 74, 0
2, 37760, Note_on_c, 1, 62, 127
2, 37760, Note_on_c, 1, 71, 127
2, 38160, Note_off_c, 1, 62, 0
2, 38160, Note_off_c, 1, 71, 0
2, 38200, Note_on_c, 1, 55, 127
2, 38200, Note_on_c, 1, 74, 127
2, 38400, Note_off_c, 1, 55, 0
2, 38440, Note_on_c, 1, 59, 127
2, 38600, Note_off_c, 1, 59, 0
2, 38600, Note_off_c, 1, 74, 0
2, 38640, Note_on_c, 1, 57, 127
2, 38640, Note_on_c, 1, 72, 127
2, 38840, Note_off_c, 1, 57, 0
2, 38880, Note_on_c, 1, 60, 127
2, 39040, Note_off_c, 1, 60, 0
2, 39080, Note_on_c, 1, 63, 127
2, 39280, Note_off_c, 1, 63, 0
2, 39280, Note_off_c, 1, 72, 0
2, 39320, Note_on_c, 1, 67, 127
2, 39320, Note_on_c, 1, 74, 127
2, 39520, Note_off_c, 1, 67, 0
2, 39520, Note_off_c, 1, 74, 0
2, 39560, Note_on_c, 1, 55, 127
2, 39720, Note_off_c, 1, 55, 0
2, 39760, Note_on_c, 1, 64, 127
2, 39760, Note_on_c, 1, 72, 127
2, 39960, Note_off_c, 1, 64, 0
2, 39960, Note_off_c, 1, 72, 0
2, 40040, Note_on_c, 1, 62, 127
2, 40040, Note_on_c, 1, 71, 127
2, 40240, Note_off_c, 1, 62, 0
2, 40240, Note_off_c, 1, 71, 0
2, 40280, Note_on_c, 1, 59, 127
2, 40280, Note_on_c, 1, 69, 127
2, 40480, Note_off_c, 1, 59, 0
2, 40480, Note_off_c, 1, 69, 0
2, 40520, Note_on_c, 1, 62, 127
2, 40520, Note_on_c, 1, 71, 127
2, 40720, Note_off_c, 1, 62, 0
2, 40720, Note_off_c, 1, 71, 0
2, 40760, Note_on_c, 1, 62, 127
2, 40760, Note_on_c, 1, 74, 127
2, 40840, Note_off_c, 1, 74, 0
2, 40880, Note_on_c, 1, 72, 127
2, 40960, Note_off_c, 1, 62, 0
2, 40960, Note_off_c, 1, 72, 0
2, 41000, Note_on_c, 1, 55, 127
2, 41000, Note_on_c, 1, 62, 127
2, 41000, Note_on_c, 1, 71, 127
2, 41040, Note_off_c, 1, 71, 0
2, 41080, Note_on_c, 1, 74, 127
2, 41120, Note_off_c, 1, 74, 0
2, 41160, Note_on_c, 1, 74, 127
2, 41200, Note_off_c, 1, 55, 0
2, 41200, Note_off_c, 1, 62, 0
2, 41200, Note_off_c, 1, 74, 0
2, 41240, Note_on_c, 1, 48, 127
2, 41240, Note_on_c, 1, 64, 127
2, 41240, Note_on_c, 1, 74, 127
2, 41320, Note_off_c, 1, 48, 0
2, 41360, Note_on_c, 1, 52, 127
2, 41440, Note_off_c, 1, 52, 0
2, 41440, Note_off_c, 1, 64, 0
2, 41440, Note_off_c, 1, 74, 0
2, 41480, Note_on_c, 1, 52, 127
2, 41480, Note_on_c, 1, 67, 127
2, 41480, Note_on_c, 1, 74, 127
2, 41600, Note_off_c, 1, 52, 0
2, 41600, Note_off_c, 1, 74, 0
2, 41640, Note_on_c, 1, 55, 127
2, 41640, Note_on_c, 1, 74, 127
2, 41680, Note_off_c, 1, 55, 0
2, 41680, Note_off_c, 1, 67, 0
2, 41680, Note_off_c, 1, 74, 0
2, 41720, Note_on_c, 1, 57, 127
2, 41720, Note_on_c, 1, 72, 127
2, 41720, Note_on_c, 1, 74, 127
2, 41920, Note_off_c, 1, 57, 0
2, 41920, Note_off_c, 1, 74, 0
2, 41960, Note_on_c, 1, 55, 127
2, 41960, Note_on_c, 1, 67, 127
2, 42040, Note_off_c, 1, 55, 0
2, 42040, Note_off_c, 1, 67, 0
2, 42040, Note_off_c, 1, 72, 0
2, 42080, Note_on_c, 1, 55, 127
2, 42080, Note_on_c, 1, 67, 127
2, 42120, Note_on_c, 1, 74, 127
2, 42200, Note_off_c, 1, 55, 0
2, 42200, Note_off_c, 1, 67, 0
2, 42200, Note_off_c, 1, 74, 0
2, 42240, Note_on_c, 1, 52, 127
2, 42240, Note_on_c, 1, 60, 127
2, 42240, Note_on_c, 1, 67, 127
2, 42240, Note_on_c, 1, 72, 127
2, 42400, Note_off_c, 1, 72, 0
2, 42440, Note_off_c, 1, 52, 0
2, 42440, Note_off_c, 1, 60, 0
2, 42480, Note_on_c, 1, 49, 127
2, 42480, Note_on_c, 1, 64, 127
2, 42480, Note_on_c, 1, 70, 127
2, 42680, Note_off_c, 1, 49, 0
2, 42680, Note_off_c, 1, 64, 0
2, 42680, Note_off_c, 1, 67, 0
2, 43400, Note_off_c, 1, 70, 0
2, 43440, Note_on_c, 1, 69, 127
2, 43480, Note_off_c, 1, 69, 0
2, 43520, Note_on_c, 1, 70, 127
2, 43560, Note_on_c, 1, 67, 127
2, 43560, Note_off_c, 1, 70, 0
2, 43600, Note_off_c, 1, 67, 0
2, 43640, Note_on_c, 1, 70, 127
2, 43680, Note_off_c, 1, 70, 0
2, 43680, Note_on_c, 1, 79, 127
2, 44160, Note_off_c, 1, 79, 0
2, 44200, Note_on_c, 1, 79, 127
2, 44640, Note_off_c, 1, 79, 0
2, 44680, Note_on_c, 1, 81, 127
2, 44880, Note_off_c, 1, 81, 0
2, 44920, Note_on_c, 1, 79, 127
2, 45120, Note_off_c, 1, 79, 0
2, 45160, Note_on_c, 1, 77, 127
2, 45360, Note_off_c, 1, 77, 0
2, 45400, Note_on_c, 1, 77, 127
2, 45600, Note_off_c, 1, 77, 0
2, 45640, Note_on_c, 1, 77, 127
2, 45840, Note_off_c, 1, 77, 0
2, 45880, Note_on_c, 1, 46, 127
2, 46080, Note_off_c, 1, 46, 0
2, 46120, Note_on_c, 1, 46, 127
2, 46120, Note_on_c, 1, 58, 127
2, 46280, Note_off_c, 1, 46, 0
2, 46280, Note_off_c, 1, 58, 0
2, 46320, Note_on_c, 1, 46, 127
2, 46320, Note_on_c, 1, 58, 127
2, 46360, Note_off_c, 1, 46, 0
2, 46360, Note_off_c, 1, 58, 0
2, 46400, Note_on_c, 1, 63, 127
2, 46400, Note_on_c, 1, 79, 127
2, 46600, Note_off_c, 1, 63, 0
2, 46600, Note_off_c, 1, 79, 0
2, 46640, Note_on_c, 1, 62, 127
2, 46640, Note_on_c, 1, 77, 127
2, 46840, Note_off_c, 1, 62, 0
2, 46840, Note_off_c, 1, 77, 0
2, 46880, Note_on_c, 1, 60, 127
2, 46880, Note_on_c, 1, 75, 127
2, 47080, Note_off_c, 1, 60, 0
2, 47080, Note_off_c, 1, 75, 0
2, 47120, Note_on_c, 1, 57, 127
2, 47120, Note_on_c, 1, 72, 127
2, 47320, Note_off_c, 1, 57, 0
2, 47320, Note_off_c, 1, 72, 0
2, 47360, Note_on_c, 1, 58, 127
2, 47360, Note_on_c, 1, 70, 127
2, 47560, Note_off_c, 1, 58, 0
2, 47560, Note_off_c, 1, 70, 0
2, 47600, Note_on_c, 1, 65, 127
2, 47600, Note_on_c, 1, 69, 127
2, 47800, Note_off_c, 1, 65, 0
2, 47800, Note_off_c, 1, 69, 0
2, 47840, Note_on_c, 1, 48, 127
2, 48040, Note_off_c, 1, 48, 0
2, 48080, Note_on_c, 1, 53, 127
2, 48280, Note_off_c, 1, 53, 0
2, 48360, Note_on_c, 1, 58, 127
2, 48560, Note_off_c, 1, 58, 0
2, 48600, Note_on_c, 1, 69, 127
2, 48800, Note_off_c, 1, 69, 0
2, 48840, Note_on_c, 1, 70, 127
2, 49040, Note_off_c, 1, 70, 0
2, 49080, Note_on_c, 1, 53, 127
2, 49080, Note_on_c, 1, 69, 127
2, 49280, Note_off_c, 1, 53, 0
2, 49280, Note_off_c, 1, 69, 0
2, 49320, Note_on_c, 1, 58, 127
2, 49320, Note_on_c, 1, 70, 127
2, 49520, Note_off_c, 1, 58, 0
2, 49520, Note_off_c, 1, 70, 0
2, 49560, Note_on_c, 1, 53, 127
2, 49560, Note_on_c, 1, 65, 127
2, 49760, Note_off_c, 1, 53, 0
2, 49760, Note_off_c, 1, 65, 0
2, 49800, Note_on_c, 1, 70, 127
2, 50040, Note_on_c, 1, 53, 127
2, 50240, Note_off_c, 1, 53, 0
2, 50280, Note_on_c, 1, 62, 127
2, 50480, Note_off_c, 1, 62, 0
2, 50480, Note_off_c, 1, 70, 0
2, 50520, Note_on_c, 1, 70, 127
2, 50560, Note_on_c, 1, 65, 127
2, 50760, Note_off_c, 1, 65, 0
2, 50760, Note_off_c, 1, 70, 0
2, 50800, Note_on_c, 1, 46, 127
2, 51000, Note_off_c, 1, 46, 0
2, 51040, Note_on_c, 1, 48, 127
2, 51040, Note_on_c, 1, 69, 127
2, 51240, Note_off_c, 1, 48, 0
2, 51280, Note_on_c, 1, 53, 127
2, 51480, Note_off_c, 1, 53, 0
2, 51480, Note_off_c, 1, 69, 0
2, 51520, Note_on_c, 1, 58, 127
2, 51720, Note_off_c, 1, 58, 0
2, 51760, Note_on_c, 1, 65, 127
2, 51960, Note_off_c, 1, 65, 0
2, 52000, Note_on_c, 1, 70, 127
2, 52200, Note_off_c, 1, 70, 0
2, 52240, Note_on_c, 1, 62, 127
2, 52440, Note_off_c, 1, 62, 0
2, 52520, Note_on_c, 1, 65, 127
2, 52720, Note_off_c, 1, 65, 0
2, 52760, Note_on_c, 1, 69, 127
2, 52960, Note_off_c, 1, 69, 0
2, 53000, Note_on_c, 1, 77, 127
2, 53200, Note_off_c, 1, 77, 0
2, 53240, Note_on_c, 1, 65, 127
2, 53480, Note_on_c, 1, 60, 127
2, 53680, Note_off_c, 1, 60, 0
2, 53680, Note_off_c, 1, 65, 0
2, 53720, Note_on_c, 1, 74, 127
2, 53920, Note_off_c, 1, 74, 0
2, 53960, Note_on_c, 1, 46, 127
2, 54160, Note_off_c, 1, 46, 0
2, 54200, Note_on_c, 1, 53, 127
2, 54400, Note_off_c, 1, 53, 0
2, 54440, Note_on_c, 1, 58, 127
2, 54600, Note_off_c, 1, 58, 0
2, 54640, Note_on_c, 1, 58, 127
2, 54680, Note_off_c, 1, 58, 0
2, 54720, Note_on_c, 1, 62, 127
2, 55200, Note_off_c, 1, 62, 0
2, 55200, Note_on_c, 1, 65, 127
2, 55480, Note_on_c, 1, 70, 127
2, 55680, Note_off_c, 1, 65, 0
2, 55680, Note_off_c, 1, 70, 0
2, 55720, Note_on_c, 1, 64, 127
2, 55720, Note_on_c, 1, 67, 127
2, 55920, Note_off_c, 1, 64, 0
2, 55920, Note_off_c, 1, 67, 0
2, 55960, Note_on_c, 1, 65, 127
2, 55960, Note_on_c, 1, 69, 127
2, 56160, Note_off_c, 1, 65, 0
2, 56160, Note_off_c, 1, 69, 0
2, 56200, Note_on_c, 1, 55, 127
2, 56200, Note_on_c, 1, 64, 127
2, 56200, Note_on_c, 1, 70, 127
2, 56520, Note_off_c, 1, 55, 0
2, 56520, Note_off_c, 1, 64, 0
2, 56520, Note_off_c, 1, 70, 0
2, 56560, Note_on_c, 1, 55, 127
2, 56560, Note_on_c, 1, 64, 127
2, 56560, Note_on_c, 1, 70, 127
2, 56680, Note_off_c, 1, 55, 0
2, 56680, Note_off_c, 1, 70, 0
2, 56720, Note_on_c, 1, 55, 127
2, 56720, Note_on_c, 1, 69, 127
2, 56920, Note_off_c, 1, 55, 0
2, 56920, Note_off_c, 1, 69, 0
2, 56960, Note_on_c, 1, 54, 127
2, 56960, Note_on_c, 1, 72, 127
2, 57160, Note_off_c, 1, 54, 0
2, 57160, Note_off_c, 1, 72, 0
2, 57200, Note_on_c, 1, 52, 127
2, 57200, Note_on_c, 1, 72, 127
2, 57400, Note_off_c, 1, 52, 0
2, 57400, Note_off_c, 1, 72, 0
2, 57440, Note_on_c, 1, 52, 127
2, 57440, Note_on_c, 1, 72, 127
2, 57640, Note_off_c, 1, 52, 0
2, 57640, Note_off_c, 1, 64, 0
2, 57640, Note_off_c, 1, 72, 0
2, 57680, Note_on_c, 1, 46, 127
2, 57680, Note_on_c, 1, 67, 127
2, 57680, Note_on_c, 1, 70, 127
2, 57880, Note_off_c, 1, 67, 0
2, 57920, Note_on_c, 1, 67, 127
2, 58120, Note_off_c, 1, 46, 0
2, 58160, Note_on_c, 1, 60, 127
2, 58480, Note_off_c, 1, 60, 0
2, 58480, Note_off_c, 1, 67, 0
2, 58480, Note_off_c, 1, 70, 0
2, 58520, Note_on_c, 1, 60, 127
2, 58520, Note_on_c, 1, 67, 127
2, 58520, Note_on_c, 1, 70, 127
2, 58640, Note_off_c, 1, 60, 0
2, 58640, Note_off_c, 1, 67, 0
2, 58640, Note_off_c, 1, 70, 0
2, 58680, Note_on_c, 1, 53, 127
2, 58680, Note_on_c, 1, 69, 127
2, 58680, Note_on_c, 1, 72, 127
2, 59120, Note_off_c, 1, 69, 0
2, 59120, Note_off_c, 1, 72, 0
2, 59160, Note_on_c, 1, 60, 127
2, 59400, Note_on_c, 1, 65, 127
2, 59400, Note_on_c, 1, 69, 127
2, 59600, Note_off_c, 1, 53, 0
2, 59600, Note_off_c, 1, 60, 0
2, 59600, Note_off_c, 1, 65, 0
2, 59600, Note_off_c, 1, 69, 0
2, 59640, Note_on_c, 1, 57, 127
2, 59640, Note_on_c, 1, 65, 127
2, 59840, Note_off_c, 1, 57, 0
2, 59840, Note_off_c, 1, 65, 0
2, 59880, Note_on_c, 1, 60, 127
2, 59880, Note_on_c, 1, 65, 127
2, 60080, Note_off_c, 1, 60, 0
2, 60080, Note_off_c, 1, 65, 0
2, 60120, Note_on_c, 1, 53, 127
2, 60520, Note_off_c, 1, 53, 0
2, 60560, Note_on_c, 1, 53, 127
2, 60640, Note_off_c, 1, 53, 0
2, 60680, Note_on_c, 1, 52, 127
2, 60880, Note_off_c, 1, 52, 0
2, 60920, Note_on_c, 1, 41, 127
2, 61120, Note_off_c, 1, 41, 0
2, 61160, Note_on_c, 1, 50, 127
2, 61360, Note_off_c, 1, 50, 0
2, 61400, Note_on_c, 1, 53, 127
2, 61600, Note_off_c, 1, 53, 0
2, 61640, Note_on_c, 1, 57, 127
2, 61840, Note_off_c, 1, 57, 0
2, 61880, Note_on_c, 1, 53, 127
2, 62080, Note_off_c, 1, 53, 0
2, 62120, Note_on_c, 1, 58, 127
2, 62320, Note_off_c, 1, 58, 0
2, 62360, Note_on_c, 1, 57, 127
2, 62560, Note_off_c, 1, 57, 0
2, 62600, Note_on_c, 1, 53, 127
2, 62680, Note_off_c, 1, 53, 0
2, 62720, Note_on_c, 1, 53, 127
2, 62840, Note_off_c, 1, 53, 0
2, 62880, Note_on_c, 1, 57, 127
2, 63080, Note_off_c, 1, 57, 0
2, 63120, Note_on_c, 1, 53, 127
2, 63320, Note_off_c, 1, 53, 0
2, 63360, Note_on_c, 1, 48, 127
2, 63560, Note_off_c, 1, 48, 0
2, 63600, Note_on_c, 1, 41, 127
2, 63800, Note_off_c, 1, 41, 0
2, 63840, Note_on_c, 1, 45, 127
2, 64040, Note_off_c, 1, 45, 0
2, 64080, Note_on_c, 1, 44, 127
2, 64080, Note_on_c, 1, 60, 127
2, 64080, Note_on_c, 1, 63, 127
2, 64520, Note_off_c, 1, 44, 0
2, 64520, Note_off_c, 1, 60, 0
2, 64520, Note_off_c, 1, 63, 0
2, 64560, Note_on_c, 1, 44, 127
2, 64560, Note_on_c, 1, 62, 127
2, 64560, Note_on_c, 1, 65, 127
2, 64680, Note_off_c, 1, 44, 0
2, 64680, Note_off_c, 1, 62, 0
2, 64680, Note_off_c, 1, 65, 0
2, 64720, Note_on_c, 1, 44, 127
2, 64720, Note_on_c, 1, 62, 127
2, 64720, Note_on_c, 1, 65, 127
2, 65040, Note_off_c, 1, 44, 0
2, 65040, Note_off_c, 1, 62, 0
2, 65040, Note_off_c, 1, 65, 0
2, 65080, Note_on_c, 1, 46, 127
2, 65280, Note_off_c, 1, 46, 0
2, 65320, Note_on_c, 1, 58, 127
2, 65320, Note_on_c, 1, 62, 127
2, 65560, Note_on_c, 1, 77, 127
2, 65760, Note_off_c, 1, 77, 0
2, 65800, Note_on_c, 1, 74, 127
2, 66000, Note_off_c, 1, 58, 0
2, 66000, Note_off_c, 1, 62, 0
2, 66000, Note_off_c, 1, 74, 0
2, 66040, Note_on_c, 1, 70, 127
2, 66120, Note_off_c, 1, 70, 0
2, 66160, Note_on_c, 1, 74, 127
2, 66240, Note_off_c, 1, 74, 0
2, 66280, Note_on_c, 1, 75, 127
2, 66480, Note_off_c, 1, 75, 0
2, 66520, Note_on_c, 1, 58, 127
2, 66520, Note_on_c, 1, 74, 127
2, 66720, Note_off_c, 1, 58, 0
2, 66720, Note_off_c, 1, 74, 0
2, 66760, Note_on_c, 1, 57, 127
2, 66760, Note_on_c, 1, 72, 127
2, 66920, Note_off_c, 1, 57, 0
2, 66920, Note_off_c, 1, 72, 0
2, 66960, Note_on_c, 1, 57, 127
2, 66960, Note_on_c, 1, 72, 127
2, 67040, Note_off_c, 1, 57, 0
2, 67040, Note_off_c, 1, 72, 0
2, 67080, Note_on_c, 1, 55, 127
2, 67080, Note_on_c, 1, 70, 127
2, 67280, Note_off_c, 1, 55, 0
2, 67280, Note_off_c, 1, 70, 0
2, 67320, Note_on_c, 1, 60, 127
2, 67320, Note_on_c, 1, 69, 127
2, 67520, Note_off_c, 1, 60, 0
2, 67520, Note_off_c, 1, 69, 0
2, 67560, Note_on_c, 1, 62, 127
2, 67560, Note_on_c, 1, 70, 127
2, 67760, Note_off_c, 1, 62, 0
2, 67760, Note_off_c, 1, 70, 0
2, 67800, Note_on_c, 1, 53, 127
2, 67800, Note_on_c, 1, 72, 127
2, 68000, Note_off_c, 1, 53, 0
2, 68000, Note_off_c, 1, 72, 0
2, 68040, Note_on_c, 1, 46, 127
2, 68040, Note_on_c, 1, 74, 127
2, 68240, Note_off_c, 1, 46, 0
2, 68280, Note_on_c, 1, 50, 127
2, 68480, Note_off_c, 1, 50, 0
2, 68520, Note_on_c, 1, 58, 127
2, 68720, Note_off_c, 1, 58, 0
2, 68720, Note_off_c, 1, 74, 0
2, 68760, Note_on_c, 1, 53, 127
2, 68760, Note_on_c, 1, 69, 127
2, 68960, Note_off_c, 1, 53, 0
2, 68960, Note_off_c, 1, 69, 0
2, 69040, Note_on_c, 1, 57, 127
2, 69040, Note_on_c, 1, 72, 127
2, 69240, Note_off_c, 1, 57, 0
2, 69240, Note_off_c, 1, 72, 0
2, 69280, Note_on_c, 1, 58, 127
2, 69280, Note_on_c, 1, 74, 127
2, 69480, Note_off_c, 1, 58, 0
2, 69480, Note_off_c, 1, 74, 0
2, 69520, Note_on_c, 1, 53, 127
2, 69520, Note_on_c, 1, 72, 127
2, 69720, Note_off_c, 1, 53, 0
2, 69720, Note_off_c, 1, 72, 0
2, 69760, Note_on_c, 1, 58, 127
2, 69760, Note_on_c, 1, 74, 127
2, 69960, Note_off_c, 1, 58, 0
2, 69960, Note_off_c, 1, 74, 0
2, 70000, Note_on_c, 1, 63, 127
2, 70000, Note_on_c, 1, 78, 127
2, 70200, Note_off_c, 1, 63, 0
2, 70200, Note_off_c, 1, 78, 0
2, 70240, Note_on_c, 1, 62, 127
2, 70240, Note_on_c, 1, 77, 127
2, 70440, Note_off_c, 1, 62, 0
2, 70440, Note_off_c, 1, 77, 0
2, 70480, Note_on_c, 1, 60, 127
2, 70480, Note_on_c, 1, 75, 127
2, 70680, Note_off_c, 1, 60, 0
2, 70680, Note_off_c, 1, 75, 0
2, 70720, Note_on_c, 1, 58, 127
2, 70720, Note_on_c, 1, 74, 127
2, 70920, Note_off_c, 1, 58, 0
2, 70920, Note_off_c, 1, 74, 0
2, 70960, Note_on_c, 1, 62, 127
2, 70960, Note_on_c, 1, 77, 127
2, 71200, Note_off_c, 1, 62, 0
2, 71200, Note_off_c, 1, 77, 0
2, 71280, Note_on_c, 1, 60, 127
2, 71280, Note_on_c, 1, 75, 127
2, 71480, Note_off_c, 1, 60, 0
2, 71480, Note_off_c, 1, 75, 0
2, 71520, Note_on_c, 1, 63, 127
2, 71520, Note_on_c, 1, 72, 127
2, 71720, Note_off_c, 1, 63, 0
2, 71720, Note_off_c, 1, 72, 0
2, 71760, Note_on_c, 1, 58, 127
2, 71760, Note_on_c, 1, 62, 127
2, 71760, Note_on_c, 1, 70, 127
2, 72200, Note_off_c, 1, 58, 0
2, 72200, Note_off_c, 1, 62, 0
2, 72200, Note_off_c, 1, 70, 0
2, 72720, Note_on_c, 1, 69, 127
2, 72720, Note_on_c, 1, 81, 127
2, 72920, Note_off_c, 1, 69, 0
2, 72920, Note_off_c, 1, 81, 0
2, 72960, Note_on_c, 1, 67, 127
2, 72960, Note_on_c, 1, 79, 127
2, 73400, Note_off_c, 1, 67, 0
2, 73400, Note_off_c, 1, 79, 0
2, 73440, Note_on_c, 1, 70, 127
2, 73440, Note_on_c, 1, 82, 127
2, 73840, Note_off_c, 1, 70, 0
2, 73840, Note_off_c, 1, 82, 0
2, 73880, Note_on_c, 1, 70, 127
2, 73880, Note_on_c, 1, 82, 127
2, 73960, Note_off_c, 1, 70, 0
2, 73960, Note_off_c, 1, 82, 0
2, 74000, Note_on_c, 1, 62, 127
2, 74000, Note_on_c, 1, 74, 127
2, 74440, Note_off_c, 1, 62, 0
2, 74440, Note_off_c, 1, 74, 0
2, 74480, Note_on_c, 1, 70, 127
2, 74680, Note_off_c, 1, 70, 0
2, 74720, Note_on_c, 1, 55, 127
2, 74720, Note_on_c, 1, 58, 127
2, 74720, Note_on_c, 1, 62, 127
2, 74720, Note_on_c, 1, 67, 127
2, 74720, Note_on_c, 1, 70, 127
2, 74920, Note_off_c, 1, 58, 0
2, 74920, Note_off_c, 1, 67, 0
2, 74920, Note_off_c, 1, 70, 0
2, 74960, Note_on_c, 1, 58, 127
2, 74960, Note_on_c, 1, 67, 127
2, 74960, Note_on_c, 1, 70, 127
2, 75160, Note_off_c, 1, 55, 0
2, 75160, Note_off_c, 1, 58, 0
2, 75160, Note_off_c, 1, 62, 0
2, 75160, Note_off_c, 1, 67, 0
2, 75160, Note_off_c, 1, 70, 0
2, 75200, Note_on_c, 1, 55, 127
2, 75200, Note_on_c, 1, 58, 127
2, 75200, Note_on_c, 1, 62, 127
2, 75200, Note_on_c, 1, 67, 127
2, 75200, Note_on_c, 1, 70, 127
2, 75400, Note_off_c, 1, 62, 0
2, 75400, Note_off_c, 1, 67, 0
2, 75400, Note_off_c, 1, 70, 0
2, 75440, Note_on_c, 1, 70, 127
2, 75640, Note_off_c, 1, 55, 0
2, 75640, Note_off_c, 1, 58, 0
2, 75640, Note_off_c, 1, 70, 0
2, 75680, Note_on_c, 1, 53, 127
2, 75680, Note_on_c, 1, 60, 127
2, 75680, Note_on_c, 1, 72, 127
2, 75880, Note_off_c, 1, 53, 0
2, 75880, Note_off_c, 1, 60, 0
2, 75880, Note_off_c, 1, 72, 0
2, 75960, Note_on_c, 1, 46, 127
2, 75960, Note_on_c, 1, 58, 127
2, 75960, Note_on_c, 1, 62, 127
2, 75960, Note_on_c, 1, 74, 127
2, 76160, Note_off_c, 1, 46, 0
2, 76160, Note_off_c, 1, 58, 0
2, 76160, Note_off_c, 1, 62, 0
2, 76160, Note_off_c, 1, 74, 0
2, 76200, Note_on_c, 1, 50, 127
2, 76200, Note_on_c, 1, 53, 127
2, 76200, Note_on_c, 1, 58, 127
2, 76200, Note_on_c, 1, 70, 127
2, 76400, Note_off_c, 1, 50, 0
2, 76400, Note_off_c, 1, 53, 0
2, 76400, Note_off_c, 1, 58, 0
2, 76400, Note_off_c, 1, 70, 0
2, 76440, Note_on_c, 1, 46, 127
2, 76440, Note_on_c, 1, 53, 127
2, 76440, Note_on_c, 1, 62, 127
2, 76440, Note_on_c, 1, 68, 127
2, 76640, Note_off_c, 1, 46, 0
2, 76640, Note_off_c, 1, 53, 0
2, 76640, Note_off_c, 1, 62, 0
2, 76640, Note_off_c, 1, 68, 0
2, 76680, Note_on_c, 1, 46, 127
2, 76680, Note_on_c, 1, 53, 127
2, 76680, Note_on_c, 1, 62, 127
2, 76680, Note_on_c, 1, 68, 127
2, 76880, Note_off_c, 1, 46, 0
2, 76880, Note_off_c, 1, 53, 0
2, 76880, Note_off_c, 1, 62, 0
2, 76880, Note_off_c, 1, 68, 0
2, 78120, Note_on_c, 1, 34, 127
2, 78120, Note_on_c, 1, 46, 127
2, 78120, Note_on_c, 1, 58, 127
2, 78160, Note_off_c, 1, 34, 0
2, 78160, Note_off_c, 1, 46, 0
2, 78160, Note_off_c, 1, 58, 0
2, 78360, Note_on_c, 1, 34, 127
2, 78360, Note_on_c, 1, 46, 127
2, 78360, Note_on_c, 1, 58, 127
2, 78400, Note_off_c, 1, 34, 0
2, 78400, Note_off_c, 1, 46, 0
2, 78400, Note_off_c, 1, 58, 0
2, 78600, Note_on_c, 1, 34, 127
2, 78600, Note_on_c, 1, 46, 127
2, 78600, Note_on_c, 1, 58, 127
2, 78760, Note_off_c, 1, 34, 0
2, 78760, Note_off_c, 1, 46, 0
2, 78760, Note_off_c, 1, 58, 0
2, 78800, Note_on_c, 1, 34, 127
2, 78800, Note_on_c, 1, 46, 127
2, 78800, Note_on_c, 1, 58, 127
2, 79320, Note_off_c, 1, 34, 0
2, 79320, Note_off_c, 1, 46, 0
2, 79320, Note_off_c, 1, 58, 0
2, 79360, Note_on_c, 1, 86, 127
2, 80640, Note_off_c, 1, 86, 0
2, 80680, Note_on_c, 1, 84, 127
2, 80720, Note_off_c, 1, 84, 0
2, 80760, Note_on_c, 1, 83, 127
2, 80800, Note_on_c, 1, 82, 127
2, 80800, Note_off_c, 1, 83, 0
2, 80840, Note_off_c, 1, 82, 0
2, 80920, Note_on_c, 1, 83, 127
2, 80960, Note_off_c, 1, 83, 0
2, 81000, Note_on_c, 1, 81, 127
2, 81040, Note_off_c, 1, 81, 0
2, 81080, Note_on_c, 1, 79, 127
2, 81160, Note_off_c, 1, 79, 0
2, 81200, Note_on_c, 1, 78, 127
2, 81240, Note_off_c, 1, 78, 0
2, 81280, Note_on_c, 1, 76, 127
2, 81320, Note_on_c, 1, 74, 127
2, 81320, Note_off_c, 1, 76, 0
2, 81400, Note_off_c, 1, 74, 0
2, 81440, Note_on_c, 1, 72, 127
2, 81480, Note_off_c, 1, 72, 0
2, 81520, Note_on_c, 1, 71, 127
2, 81600, Note_off_c, 1, 71, 0
2, 81640, Note_on_c, 1, 69, 127
2, 81720, Note_off_c, 1, 69, 0
2, 81760, Note_on_c, 1, 66, 127
2, 81800, Note_off_c, 1, 66, 0
2, 81840, Note_on_c, 1, 65, 127
2, 81880, Note_on_c, 1, 64, 127
2, 81880, Note_off_c, 1, 65, 0
2, 82200, Note_off_c, 1, 64, 0
2, 82240, Note_on_c, 1, 62, 127
2, 82320, Note_off_c, 1, 62, 0
2, 82360, Note_on_c, 1, 60, 127
2, 82840, Note_on_c, 1, 57, 127
2, 82840, Note_off_c, 1, 60, 0
2, 82960, Note_off_c, 1, 57, 0
2, 83000, Note_on_c, 1, 57, 127
2, 83360, Note_on_c, 1, 55, 127
2, 83360, Note_off_c, 1, 57, 0
2, 83800, Note_off_c, 1, 55, 0
2, 83840, Note_on_c, 1, 42, 127
2, 84280, Note_off_c, 1, 42, 0
2, 84320, Note_on_c, 1, 45, 127
2, 84800, Note_on_c, 1, 57, 127
2, 85000, Note_off_c, 1, 45, 0
2, 85000, Note_off_c, 1, 57, 0
2, 85040, Note_on_c, 1, 45, 127
2, 85040, Note_on_c, 1, 57, 127
2, 85280, Note_off_c, 1, 45, 0
2, 85280, Note_off_c, 1, 57, 0
2, 85320, Note_on_c, 1, 50, 127
2, 85320, Note_on_c, 1, 55, 127
2, 85320, Note_on_c, 1, 59, 127
2, 85320, Note_on_c, 1, 62, 127
2, 86240, Note_off_c, 1, 50, 0
2, 86240, Note_off_c, 1, 55, 0
2, 86240, Note_off_c, 1, 59, 0
2, 86240, Note_off_c, 1, 62, 0
2, 86280, Note_on_c, 1, 43, 127
2, 86760, Note_on_c, 1, 50, 127
2, 86760, Note_on_c, 1, 55, 127
2, 86760, Note_on_c, 1, 59, 127
2, 86760, Note_on_c, 1, 62, 127
2, 86760, Note_on_c, 1, 67, 127
2, 87160, Note_off_c, 1, 43, 0
2, 87160, Note_off_c, 1, 50, 0
2, 87160, Note_off_c, 1, 55, 0
2, 87160, Note_off_c, 1, 59, 0
2, 87160, Note_off_c, 1, 62, 0
2, 87160, Note_off_c, 1, 67, 0
2, 87200, Note_on_c, 1, 43, 127
2, 87200, Note_on_c, 1, 50, 127
2, 87200, Note_on_c, 1, 55, 127
2, 87200, Note_on_c, 1, 59, 127
2, 87200, Note_on_c, 1, 62, 127
2, 87200, Note_on_c, 1, 67, 127
2, 87720, Note_off_c, 1, 67, 0
2, 87760, Note_on_c, 1, 66, 127
2, 88200, Note_off_c, 1, 66, 0
2, 88240, Note_on_c, 1, 67, 127
2, 88640, Note_off_c, 1, 67, 0
2, 88680, Note_off_c, 1, 43, 0
2, 88680, Note_off_c, 1, 50, 0
2, 88680, Note_off_c, 1, 55, 0
2, 88680, Note_off_c, 1, 59, 0
2, 88680, Note_off_c, 1, 62, 0
2, 93920, Note_on_c, 1, 62, 127
2, 93920, Note_on_c, 1, 74, 127
2, 94360, Note_off_c, 1, 62, 0
2, 94360, Note_off_c, 1, 74, 0
2, 94400, Note_on_c, 1, 62, 127
2, 94400, Note_on_c, 1, 74, 127
2, 94840, Note_off_c, 1, 62, 0
2, 94840, Note_off_c, 1, 74, 0
2, 94880, Note_on_c, 1, 70, 127
2, 94880, Note_on_c, 1, 82, 127
2, 95320, Note_off_c, 1, 70, 0
2, 95320, Note_off_c, 1, 82, 0
2, 95360, Note_on_c, 1, 62, 127
2, 95360, Note_on_c, 1, 74, 127
2, 95800, Note_off_c, 1, 62, 0
2, 95800, Note_off_c, 1, 74, 0
2, 95840, Note_on_c, 1, 58, 127
2, 95840, Note_on_c, 1, 70, 127
2, 95920, Note_off_c, 1, 58, 0
2, 95920, Note_off_c, 1, 70, 0
2, 95960, Note_on_c, 1, 58, 127
2, 95960, Note_on_c, 1, 70, 127
2, 96320, Note_off_c, 1, 58, 0
2, 96320, Note_off_c, 1, 70, 0
2, 96360, Note_on_c, 1, 62, 127
2, 96360, Note_on_c, 1, 74, 127
2, 96800, Note_off_c, 1, 62, 0
2, 96800, Note_off_c, 1, 74, 0
2, 96840, Note_on_c, 1, 54, 127
2, 96840, Note_on_c, 1, 57, 127
2, 96840, Note_on_c, 1, 69, 127
2, 97280, Note_off_c, 1, 54, 0
2, 97280, Note_off_c, 1, 69, 0
2, 97320, Note_on_c, 1, 69, 127
2, 97520, Note_off_c, 1, 57, 0
2, 97560, Note_on_c, 1, 62, 127
2, 97760, Note_off_c, 1, 62, 0
2, 97760, Note_off_c, 1, 69, 0
2, 97800, Note_on_c, 1, 50, 127
2, 97800, Note_on_c, 1, 71, 127
2, 97800, Note_on_c, 1, 83, 127
2, 98000, Note_off_c, 1, 50, 0
2, 98040, Note_on_c, 1, 59, 127
2, 98080, Note_off_c, 1, 59, 0
2, 98080, Note_off_c, 1, 71, 0
2, 98080, Note_off_c, 1, 83, 0
2, 98120, Note_on_c, 1, 59, 127
2, 98120, Note_on_c, 1, 71, 127
2, 98120, Note_on_c, 1, 83, 127
2, 98280, Note_off_c, 1, 59, 0
2, 98560, Note_off_c, 1, 71, 0
2, 98560, Note_off_c, 1, 83, 0
2, 98600, Note_on_c, 1, 69, 127
2, 98600, Note_on_c, 1, 81, 127
2, 98800, Note_off_c, 1, 69, 0
2, 98800, Note_off_c, 1, 81, 0
2, 98840, Note_on_c, 1, 50, 127
2, 98840, Note_on_c, 1, 67, 127
2, 98840, Note_on_c, 1, 79, 127
2, 99040, Note_off_c, 1, 50, 0
2, 99080, Note_on_c, 1, 46, 127
2, 99280, Note_off_c, 1, 46, 0
2, 99320, Note_on_c, 1, 46, 127
2, 99520, Note_off_c, 1, 46, 0
2, 99560, Note_on_c, 1, 46, 127
2, 99760, Note_off_c, 1, 46, 0
2, 99800, Note_on_c, 1, 46, 127
2, 100000, Note_off_c, 1, 46, 0
2, 100040, Note_on_c, 1, 47, 127
2, 100120, Note_off_c, 1, 47, 0
2, 100120, Note_off_c, 1, 67, 0
2, 100120, Note_off_c, 1, 79, 0
2, 100160, Note_on_c, 1, 47, 127
2, 100160, Note_on_c, 1, 67, 127
2, 100160, Note_on_c, 1, 79, 127
2, 100280, Note_off_c, 1, 47, 0
2, 100280, Note_off_c, 1, 67, 0
2, 100280, Note_off_c, 1, 79, 0
2, 100320, Note_on_c, 1, 49, 127
2, 100320, Note_on_c, 1, 69, 127
2, 100320, Note_on_c, 1, 81, 127
2, 100520, Note_off_c, 1, 49, 0
2, 100560, Note_on_c, 1, 57, 127
2, 100760, Note_off_c, 1, 57, 0
2, 100800, Note_on_c, 1, 50, 127
2, 101000, Note_off_c, 1, 50, 0
2, 101000, Note_off_c, 1, 69, 0
2, 101000, Note_off_c, 1, 81, 0
2, 101040, Note_on_c, 1, 67, 127
2, 101040, Note_on_c, 1, 79, 127
2, 101240, Note_off_c, 1, 67, 0
2, 101240, Note_off_c, 1, 79, 0
2, 101280, Note_on_c, 1, 54, 127
2, 101480, Note_off_c, 1, 54, 0
2, 101520, Note_on_c, 1, 55, 127
2, 101520, Note_on_c, 1, 71, 127
2, 101520, Note_on_c, 1, 79, 127
2, 101720, Note_off_c, 1, 55, 0
2, 101720, Note_off_c, 1, 79, 0
2, 101760, Note_on_c, 1, 66, 127
2, 101760, Note_off_c, 1, 71, 0
2, 101760, Note_on_c, 1, 74, 127
2, 101760, Note_on_c, 1, 83, 127
2, 101760, Note_on_c, 1, 86, 127
2, 101960, Note_off_c, 1, 66, 0
2, 101960, Note_off_c, 1, 74, 0
2, 101960, Note_off_c, 1, 83, 0
2, 101960, Note_off_c, 1, 86, 0
2, 102000, Note_on_c, 1, 54, 127
2, 102000, Note_on_c, 1, 61, 127
2, 102000, Note_on_c, 1, 69, 127
2, 102000, Note_on_c, 1, 81, 127
2, 102200, Note_off_c, 1, 54, 0
2, 102200, Note_off_c, 1, 61, 0
2, 102200, Note_off_c, 1, 69, 0
2, 102200, Note_off_c, 1, 81, 0
2, 102240, Note_on_c, 1, 69, 127
2, 102240, Note_on_c, 1, 81, 127
2, 102280, Note_on_c, 1, 54, 127
2, 102280, Note_on_c, 1, 61, 127
2, 102480, Note_off_c, 1, 54, 0
2, 102480, Note_off_c, 1, 61, 0
2, 102520, Note_on_c, 1, 62, 127
2, 102720, Note_off_c, 1, 62, 0
2, 102760, Note_on_c, 1, 50, 127
2, 102960, Note_off_c, 1, 50, 0
2, 102960, Note_off_c, 1, 69, 0
2, 102960, Note_off_c, 1, 81, 0
2, 103000, Note_on_c, 1, 58, 127
2, 103000, Note_on_c, 1, 67, 127
2, 103000, Note_on_c, 1, 79, 127
2, 103200, Note_off_c, 1, 58, 0
2, 103200, Note_off_c, 1, 67, 0
2, 103200, Note_off_c, 1, 79, 0
2, 103240, Note_on_c, 1, 50, 127
2, 103440, Note_off_c, 1, 50, 0
2, 103480, Note_on_c, 1, 55, 127
2, 103480, Note_on_c, 1, 71, 127
2, 103680, Note_off_c, 1, 55, 0
2, 103720, Note_on_c, 1, 59, 127
2, 103920, Note_off_c, 1, 59, 0
2, 103960, Note_on_c, 1, 67, 127
2, 104160, Note_off_c, 1, 67, 0
2, 104160, Note_off_c, 1, 71, 0
2, 104240, Note_on_c, 1, 54, 127
2, 104240, Note_on_c, 1, 69, 127
2, 104440, Note_off_c, 1, 54, 0
2, 104440, Note_off_c, 1, 69, 0
2, 104480, Note_on_c, 1, 55, 127
2, 104480, Note_on_c, 1, 71, 127
2, 104680, Note_off_c, 1, 55, 0
2, 104680, Note_off_c, 1, 71, 0
2, 104720, Note_on_c, 1, 57, 127
2, 104720, Note_on_c, 1, 69, 127
2, 104920, Note_off_c, 1, 57, 0
2, 104920, Note_off_c, 1, 69, 0
2, 104960, Note_on_c, 1, 55, 127
2, 104960, Note_on_c, 1, 67, 127
2, 105200, Note_on_c, 1, 59, 127
2, 105200, Note_on_c, 1, 62, 127
2, 105400, Note_off_c, 1, 55, 0
2, 105400, Note_off_c, 1, 59, 0
2, 105400, Note_off_c, 1, 62, 0
2, 105400, Note_off_c, 1, 67, 0
2, 105440, Note_on_c, 1, 52, 127
2, 105440, Note_on_c, 1, 64, 127
2, 105640, Note_off_c, 1, 52, 0
2, 105640, Note_off_c, 1, 64, 0
2, 105680, Note_on_c, 1, 55, 127
2, 105680, Note_on_c, 1, 67, 127
2, 105880, Note_off_c, 1, 55, 0
2, 105880, Note_off_c, 1, 67, 0
2, 105920, Note_on_c, 1, 52, 127
2, 105920, Note_on_c, 1, 64, 127
2, 106320, Note_off_c, 1, 52, 0
2, 106320, Note_off_c, 1, 64, 0
2, 106360, Note_on_c, 1, 52, 127
2, 106360, Note_on_c, 1, 64, 127
2, 106400, Note_off_c, 1, 52, 0
2, 106400, Note_off_c, 1, 64, 0
2, 106440, Note_on_c, 1, 55, 127
2, 106440, Note_on_c, 1, 67, 127
2, 106880, Note_off_c, 1, 55, 0
2, 106880, Note_off_c, 1, 67, 0
2, 106920, Note_on_c, 1, 57, 127
2, 106920, Note_on_c, 1, 69, 127
2, 107360, Note_off_c, 1, 57, 0
2, 107360, Note_off_c, 1, 69, 0
2, 107400, Note_on_c, 1, 52, 127
2, 107400, Note_on_c, 1, 56, 127
2, 107400, Note_on_c, 1, 59, 127
2, 107400, Note_on_c, 1, 64, 127
2, 107840, Note_off_c, 1, 56, 0
2, 107840, Note_off_c, 1, 59, 0
2, 107880, Note_off_c, 1, 52, 0
2, 107880, Note_on_c, 1, 56, 127
2, 107880, Note_on_c, 1, 59, 127
2, 107880, Note_on_c, 1, 76, 127
2, 108080, Note_off_c, 1, 56, 0
2, 108080, Note_off_c, 1, 59, 0
2, 108080, Note_off_c, 1, 64, 0
2, 108080, Note_off_c, 1, 76, 0
2, 108120, Note_on_c, 1, 52, 127
2, 108120, Note_on_c, 1, 64, 127
2, 108200, Note_off_c, 1, 52, 0
2, 108200, Note_off_c, 1, 64, 0
2, 108240, Note_on_c, 1, 52, 127
2, 108240, Note_on_c, 1, 64, 127
2, 108360, Note_off_c, 1, 52, 0
2, 108360, Note_off_c, 1, 64, 0
2, 108400, Note_on_c, 1, 48, 127
2, 108400, Note_on_c, 1, 60, 127
2, 108840, Note_off_c, 1, 60, 0
2, 108880, Note_on_c, 1, 60, 127
2, 109080, Note_off_c, 1, 48, 0
2, 109080, Note_off_c, 1, 60, 0
2, 109120, Note_on_c, 1, 45, 127
2, 109120, Note_on_c, 1, 57, 127
2, 109320, Note_off_c, 1, 45, 0
2, 109320, Note_off_c, 1, 57, 0
2, 109360, Note_on_c, 1, 44, 127
2, 109360, Note_on_c, 1, 56, 127
2, 109560, Note_off_c, 1, 44, 0
2, 109560, Note_off_c, 1, 56, 0
2, 109600, Note_on_c, 1, 45, 127
2, 109600, Note_on_c, 1, 64, 127
2, 109800, Note_off_c, 1, 45, 0
2, 109800, Note_off_c, 1, 64, 0
2, 109840, Note_on_c, 1, 52, 127
2, 109840, Note_on_c, 1, 60, 127
2, 109840, Note_on_c, 1, 66, 127
2, 109960, Note_off_c, 1, 66, 0
2, 110000, Note_on_c, 1, 68, 127
2, 110040, Note_off_c, 1, 52, 0
2, 110040, Note_off_c, 1, 60, 0
2, 110040, Note_off_c, 1, 68, 0
2, 110080, Note_on_c, 1, 52, 127
2, 110080, Note_on_c, 1, 62, 127
2, 110080, Note_on_c, 1, 71, 127
2, 110280, Note_off_c, 1, 52, 0
2, 110280, Note_off_c, 1, 62, 0
2, 110280, Note_off_c, 1, 71, 0
2, 110360, Note_on_c, 1, 45, 127
2, 110360, Note_on_c, 1, 60, 127
2, 110360, Note_on_c, 1, 69, 127
2, 110560, Note_off_c, 1, 45, 0
2, 110560, Note_off_c, 1, 60, 0
2, 110560, Note_off_c, 1, 69, 0
2, 110600, Note_on_c, 1, 52, 127
2, 110600, Note_on_c, 1, 62, 127
2, 110600, Note_on_c, 1, 71, 127
2, 110800, Note_off_c, 1, 52, 0
2, 110800, Note_off_c, 1, 62, 0
2, 110800, Note_off_c, 1, 71, 0
2, 110840, Note_on_c, 1, 45, 127
2, 110840, Note_on_c, 1, 60, 127
2, 110840, Note_on_c, 1, 69, 127
2, 111280, Note_off_c, 1, 45, 0
2, 111280, Note_off_c, 1, 60, 0
2, 111280, Note_off_c, 1, 69, 0
2, 111320, Note_on_c, 1, 45, 127
2, 111320, Note_on_c, 1, 60, 127
2, 111320, Note_on_c, 1, 69, 127
2, 111520, Note_off_c, 1, 45, 0
2, 111520, Note_off_c, 1, 60, 0
2, 111520, Note_off_c, 1, 69, 0
2, 111560, Note_on_c, 1, 50, 127
2, 111560, Note_on_c, 1, 65, 127
2, 111760, Note_off_c, 1, 50, 0
2, 111760, Note_off_c, 1, 65, 0
2, 111800, Note_on_c, 1, 55, 127
2, 111800, Note_on_c, 1, 64, 127
2, 112000, Note_off_c, 1, 55, 0
2, 112000, Note_off_c, 1, 64, 0
2, 112040, Note_on_c, 1, 50, 127
2, 112040, Note_on_c, 1, 65, 127
2, 112240, Note_off_c, 1, 50, 0
2, 112240, Note_off_c, 1, 65, 0
2, 112280, Note_on_c, 1, 48, 127
2, 112280, Note_on_c, 1, 64, 127
2, 112440, Note_off_c, 1, 48, 0
2, 112440, Note_off_c, 1, 64, 0
2, 112480, Note_on_c, 1, 48, 127
2, 112480, Note_on_c, 1, 64, 127
2, 112520, Note_off_c, 1, 48, 0
2, 112520, Note_off_c, 1, 64, 0
2, 112560, Note_on_c, 1, 52, 127
2, 112560, Note_on_c, 1, 67, 127
2, 112760, Note_off_c, 1, 52, 0
2, 112760, Note_off_c, 1, 67, 0
2, 112800, Note_on_c, 1, 48, 127
2, 112800, Note_on_c, 1, 64, 127
2, 113000, Note_off_c, 1, 48, 0
2, 113000, Note_off_c, 1, 64, 0
2, 113040, Note_on_c, 1, 51, 127
2, 113040, Note_on_c, 1, 66, 127
2, 113240, Note_off_c, 1, 51, 0
2, 113240, Note_off_c, 1, 66, 0
2, 113280, Note_on_c, 1, 48, 127
2, 113280, Note_on_c, 1, 64, 127
2, 113480, Note_off_c, 1, 64, 0
2, 113520, Note_on_c, 1, 68, 127
2, 113560, Note_off_c, 1, 68, 0
2, 113560, Note_on_c, 1, 69, 127
2, 113600, Note_on_c, 1, 68, 127
2, 113600, Note_off_c, 1, 69, 0
2, 113720, Note_off_c, 1, 48, 0
2, 113720, Note_off_c, 1, 68, 0
2, 113760, Note_on_c, 1, 49, 127
2, 113760, Note_on_c, 1, 57, 127
2, 113960, Note_off_c, 1, 57, 0
2, 114000, Note_on_c, 1, 64, 127
2, 114200, Note_off_c, 1, 49, 0
2, 114200, Note_off_c, 1, 64, 0
2, 114240, Note_on_c, 1, 38, 127
2, 114240, Note_on_c, 1, 66, 127
2, 114440, Note_off_c, 1, 38, 0
2, 114440, Note_off_c, 1, 66, 0
2, 114520, Note_on_c, 1, 50, 127
2, 114520, Note_on_c, 1, 60, 127
2, 114520, Note_on_c, 1, 66, 127
2, 114720, Note_off_c, 1, 50, 0
2, 114720, Note_off_c, 1, 60, 0
2, 114760, Note_on_c, 1, 50, 127
2, 114960, Note_off_c, 1, 50, 0
2, 115000, Note_on_c, 1, 50, 127
2, 115200, Note_off_c, 1, 50, 0
2, 115200, Note_off_c, 1, 66, 0
2, 115240, Note_on_c, 1, 52, 127
2, 115240, Note_on_c, 1, 67, 127
2, 115440, Note_off_c, 1, 52, 0
2, 115440, Note_off_c, 1, 67, 0
2, 115480, Note_on_c, 1, 50, 127
2, 115480, Note_on_c, 1, 66, 127
2, 115680, Note_off_c, 1, 50, 0
2, 115680, Note_off_c, 1, 66, 0
2, 115720, Note_on_c, 1, 52, 127
2, 115720, Note_on_c, 1, 67, 127
2, 115920, Note_off_c, 1, 52, 0
2, 115920, Note_off_c, 1, 67, 0
2, 115960, Note_on_c, 1, 54, 127
2, 115960, Note_on_c, 1, 69, 127
2, 116160, Note_off_c, 1, 54, 0
2, 116160, Note_off_c, 1, 69, 0
2, 116200, Note_on_c, 1, 52, 127
2, 116200, Note_on_c, 1, 67, 127
2, 116400, Note_off_c, 1, 52, 0
2, 116400, Note_off_c, 1, 67, 0
2, 116440, Note_on_c, 1, 55, 127
2, 116440, Note_on_c, 1, 71, 127
2, 116640, Note_off_c, 1, 55, 0
2, 116640, Note_off_c, 1, 71, 0
2, 116720, Note_on_c, 1, 57, 127
2, 116720, Note_on_c, 1, 72, 127
2, 116920, Note_off_c, 1, 57, 0
2, 116920, Note_off_c, 1, 72, 0
2, 116960, Note_on_c, 1, 63, 127
2, 116960, Note_on_c, 1, 78, 127
2, 117160, Note_off_c, 1, 63, 0
2, 117160, Note_off_c, 1, 78, 0
2, 117200, Note_on_c, 1, 66, 127
2, 117200, Note_on_c, 1, 69, 127
2, 117400, Note_off_c, 1, 66, 0
2, 117400, Note_off_c, 1, 69, 0
2, 117440, Note_on_c, 1, 60, 127
2, 117440, Note_on_c, 1, 71, 127
2, 117640, Note_off_c, 1, 60, 0
2, 117640, Note_off_c, 1, 71, 0
2, 117680, Note_on_c, 1, 52, 127
2, 117680, Note_on_c, 1, 68, 127
2, 117880, Note_off_c, 1, 52, 0
2, 117880, Note_off_c, 1, 68, 0
2, 117920, Note_on_c, 1, 54, 127
2, 117920, Note_on_c, 1, 69, 127
2, 118120, Note_off_c, 1, 54, 0
2, 118120, Note_off_c, 1, 69, 0
2, 118160, Note_on_c, 1, 52, 127
2, 118160, Note_on_c, 1, 68, 127
2, 118360, Note_off_c, 1, 52, 0
2, 118360, Note_off_c, 1, 68, 0
2, 118400, Note_on_c, 1, 54, 127
2, 118400, Note_on_c, 1, 69, 127
2, 118600, Note_off_c, 1, 54, 0
2, 118600, Note_off_c, 1, 69, 0
2, 118640, Note_on_c, 1, 55, 127
2, 118640, Note_on_c, 1, 71, 127
2, 118800, Note_off_c, 1, 55, 0
2, 118800, Note_off_c, 1, 71, 0
2, 118840, Note_on_c, 1, 55, 127
2, 118840, Note_on_c, 1, 71, 127
2, 118880, Note_off_c, 1, 55, 0
2, 118880, Note_off_c, 1, 71, 0
2, 118920, Note_on_c, 1, 52, 127
2, 118920, Note_on_c, 1, 71, 127
2, 119120, Note_off_c, 1, 52, 0
2, 119120, Note_off_c, 1, 71, 0
2, 119160, Note_on_c, 1, 52, 127
2, 119160, Note_on_c, 1, 71, 127
2, 119360, Note_off_c, 1, 52, 0
2, 119360, Note_off_c, 1, 71, 0
2, 119400, Note_on_c, 1, 47, 127
2, 119400, Note_on_c, 1, 79, 127
2, 119600, Note_off_c, 1, 47, 0
2, 119600, Note_off_c, 1, 79, 0
2, 119640, Note_on_c, 1, 48, 127
2, 119640, Note_on_c, 1, 76, 127
2, 119840, Note_off_c, 1, 48, 0
2, 119840, Note_off_c, 1, 76, 0
2, 119880, Note_on_c, 1, 50, 127
2, 119880, Note_on_c, 1, 78, 127
2, 120000, Note_off_c, 1, 50, 0
2, 120000, Note_off_c, 1, 78, 0
2, 120040, End_track
3, 0, Start_track
3, 0, Title_t, "MIDI"
3, 1536, End_track
0, 0, End_of_file
