0, 0, Header, 1, 3, 192
1, 0, Start_track
1, 0, Time_signature, 4, 2, 24, 8
1, 0, Tempo, 500000
1, 120040, End_track
2, 0, Start_track
2, 0, Text_t, "random instrument: random person i dunno whatev"
2, 0, Title_t, "Track 1"
2, 0, Note_on_c, 1, 50, 127
2, 0, Note_on_c, 1, 57, 127
2, 0, Note_on_c, 1, 65, 127
2, 0, Note_on_c, 1, 69, 127
2, 0, Note_on_c, 1, 74, 127
2, 0, Note_on_c, 1, 77, 127
2, 0, Note_on_c, 1, 81, 127
2, 80, Note_off_c, 1, 50, 0
2, 80, Note_off_c, 1, 57, 0
2, 80, Note_off_c, 1, 65, 0
2, 80, Note_off_c, 1, 69, 0
2, 80, Note_off_c, 1, 74, 0
2, 80, Note_off_c, 1, 77, 0
2, 80, Note_off_c, 1, 81, 0
2, 120, Note_on_c, 1, 50, 127
2, 120, Note_on_c, 1, 57, 127
2, 120, Note_on_c, 1, 65, 127
2, 120, Note_on_c, 1, 69, 127
2, 120, Note_on_c, 1, 74, 127
2, 120, Note_on_c, 1, 77, 127
2, 120, Note_on_c, 1, 81, 127
2, 360, Note_off_c, 1, 50, 0
2, 360, Note_off_c, 1, 57, 0
2, 360, Note_off_c, 1, 65, 0
2, 360, Note_off_c, 1, 69, 0
2, 360, Note_off_c, 1, 74, 0
2, 360, Note_off_c, 1, 77, 0
2, 360, Note_off_c, 1, 81, 0
2, 400, Note_on_c, 1, 47, 127
2, 400, Note_on_c, 1, 59, 127
2, 400, Note_on_c, 1, 66, 127
2, 400, Note_on_c, 1, 71, 127
2, 400, Note_on_c, 1, 74, 127
2, 800, Note_off_c, 1, 47, 0
2, 800, Note_off_c, 1, 59, 0
2, 800, Note_off_c, 1, 66, 0
2, 800, Note_off_c, 1, 71, 0
2, 800, Note_off_c, 1, 74, 0
2, 840, Note_on_c, 1, 47, 127
2, 840, Note_on_c, 1, 63, 127
2, 840, Note_on_c, 1, 66, 127
2, 840, Note_on_c, 1, 71, 127
2, 960, Note_off_c, 1, 47, 0
2, 960, Note_off_c, 1, 63, 0
2, 960, Note_off_c, 1, 66, 0
2, 960, Note_off_c, 1, 71, 0
2, 5160, Note_on_c, 1, 48, 127
2, 5160, Note_on_c, 1, 55, 127
2, 5160, Note_on_c, 1, 60, 127
2, 5160, Note_on_c, 1, 64, 127
2, 5400, Note_off_c, 1, 48, 0
2, 5400, Note_off_c, 1, 55, 0
2, 5400, Note_off_c, 1, 60, 0
2, 5400, Note_off_c, 1, 64, 0
2, 5720, Note_on_c, 1, 62, 127
2, 5720, Note_on_c, 1, 69, 127
2, 5720, Note_on_c, 1, 74, 127
2, 5720, Note_on_c, 1, 77, 127
2, 5960, Note_off_c, 1, 62, 0
2, 5960, Note_off_c, 1, 69, 0
2, 5960, Note_off_c, 1, 74, 0
2, 5960, Note_off_c, 1, 77, 0
2, 6000, Note_on_c, 1, 57, 127
2, 6000, Note_on_c, 1, 67, 127
2, 6000, Note_on_c, 1, 73, 127
2, 6000, Note_on_c, 1, 76, 127
2, 6040, Note_off_c, 1, 57, 0
2, 6040, Note_on_c, 1, 71, 127
2, 6040, Note_on_c, 1, 79, 127
2, 6040, Note_on_c, 1, 83, 127
2, 6040, Note_on_c, 1, 88, 127
2, 6040, Note_on_c, 1, 95, 127
2, 6080, Note_on_c, 1, 57, 127
2, 6080, Note_off_c, 1, 71, 0
2, 6080, Note_off_c, 1, 79, 0
2, 6080, Note_off_c, 1, 83, 0
2, 6080, Note_off_c, 1, 88, 0
2, 6080, Note_off_c, 1, 95, 0
2, 6160, Note_off_c, 1, 57, 0
2, 6160, Note_on_c, 1, 71, 127
2, 6160, Note_on_c, 1, 79, 127
2, 6160, Note_on_c, 1, 83, 127
2, 6160, Note_on_c, 1, 88, 127
2, 6160, Note_on_c, 1, 95, 127
2, 6200, Note_on_c, 1, 42, 127
2, 6200, Note_on_c, 1, 52, 127
2, 6200, Note_on_c, 1, 59, 127
2, 6200, Note_on_c, 1, 64, 127
2, 6200, Note_off_c, 1, 67, 0
2, 6200, Note_off_c, 1, 71, 0
2, 6200, Note_off_c, 1, 73, 0
2, 6200, Note_off_c, 1, 76, 0
2, 6200, Note_off_c, 1, 79, 0
2, 6200, Note_off_c, 1, 83, 0
2, 6200, Note_off_c, 1, 88, 0
2, 6200, Note_off_c, 1, 95, 0
2, 6240, Note_off_c, 1, 42, 0
2, 6240, Note_off_c, 1, 52, 0
2, 6240, Note_off_c, 1, 59, 0
2, 6240, Note_off_c, 1, 64, 0
2, 6280, Note_on_c, 1, 57, 127
2, 6280, Note_on_c, 1, 67, 127
2, 6280, Note_on_c, 1, 73, 127
2, 6280, Note_on_c, 1, 77, 127
2, 6520, Note_off_c, 1, 57, 0
2, 6520, Note_off_c, 1, 67, 0
2, 6520, Note_off_c, 1, 73, 0
2, 6520, Note_off_c, 1, 77, 0
2, 6560, Note_on_c, 1, 62, 127
2, 6560, Note_on_c, 1, 65, 127
2, 6560, Note_on_c, 1, 69, 127
2, 6560, Note_on_c, 1, 74, 127
2, 6840, Note_off_c, 1, 62, 0
2, 6840, Note_off_c, 1, 65, 0
2, 6840, Note_off_c, 1, 69, 0
2, 6840, Note_off_c, 1, 74, 0
2, 6920, Note_on_c, 1, 62, 127
2, 6920, Note_on_c, 1, 69, 127
2, 6920, Note_on_c, 1, 74, 127
2, 6920, Note_on_c, 1, 77, 127
2, 7160, Note_off_c, 1, 62, 0
2, 7160, Note_off_c, 1, 69, 0
2, 7160, Note_off_c, 1, 74, 0
2, 7160, Note_off_c, 1, 77, 0
2, 7200, Note_on_c, 1, 67, 127
2, 7200, Note_on_c, 1, 71, 127
2, 7200, Note_on_c, 1, 74, 127
2, 7440, Note_off_c, 1, 67, 0
2, 7440, Note_off_c, 1, 71, 0
2, 7440, Note_off_c, 1, 74, 0
2, 7480, Note_on_c, 1, 67, 127
2, 7480, Note_on_c, 1, 71, 127
2, 7480, Note_on_c, 1, 74, 127
2, 7600, Note_off_c, 1, 67, 0
2, 7600, Note_off_c, 1, 71, 0
2, 7600, Note_off_c, 1, 74, 0
2, 7640, Note_on_c, 1, 67, 127
2, 7640, Note_on_c, 1, 72, 127
2, 7640, Note_on_c, 1, 76, 127
2, 7760, Note_off_c, 1, 67, 0
2, 7760, Note_off_c, 1, 72, 0
2, 7760, Note_off_c, 1, 76, 0
2, 7800, Note_on_c, 1, 66, 127
2, 7800, Note_on_c, 1, 72, 127
2, 7800, Note_on_c, 1, 76, 127
2, 8040, Note_off_c, 1, 66, 0
2, 8040, Note_off_c, 1, 72, 0
2, 8040, Note_off_c, 1, 76, 0
2, 8080, Note_on_c, 1, 67, 127
2, 8080, Note_on_c, 1, 71, 127
2, 8080, Note_on_c, 1, 74, 127
2, 8120, Note_off_c, 1, 67, 0
2, 8120, Note_off_c, 1, 71, 0
2, 8120, Note_off_c, 1, 74, 0
2, 8240, Note_on_c, 1, 67, 127
2, 8240, Note_on_c, 1, 72, 127
2, 8240, Note_on_c, 1, 76, 127
2, 8280, Note_off_c, 1, 67, 0
2, 8280, Note_off_c, 1, 72, 0
2, 8280, Note_off_c, 1, 76, 0
2, 8400, Note_on_c, 1, 48, 127
2, 8400, Note_on_c, 1, 64, 127
2, 8400, Note_on_c, 1, 69, 127
2, 8400, Note_on_c, 1, 73, 127
2, 8440, Note_off_c, 1, 48, 0
2, 8560, Note_on_c, 1, 49, 127
2, 8600, Note_off_c, 1, 49, 0
2, 8680, Note_off_c, 1, 64, 0
2, 8680, Note_off_c, 1, 69, 0
2, 8680, Note_off_c, 1, 73, 0
2, 8720, Note_on_c, 1, 40, 127
2, 8720, Note_on_c, 1, 67, 127
2, 8720, Note_on_c, 1, 71, 127
2, 8760, Note_off_c, 1, 40, 0
2, 8880, Note_off_c, 1, 67, 0
2, 8880, Note_off_c, 1, 71, 0
2, 8920, Note_on_c, 1, 52, 127
2, 8920, Note_on_c, 1, 67, 127
2, 8920, Note_on_c, 1, 71, 127
2, 8960, Note_off_c, 1, 52, 0
2, 9040, Note_on_c, 1, 40, 127
2, 9080, Note_off_c, 1, 40, 0
2, 9120, Note_off_c, 1, 67, 0
2, 9120, Note_off_c, 1, 71, 0
2, 9160, Note_on_c, 1, 31, 127
2, 9160, Note_on_c, 1, 43, 127
2, 9280, Note_off_c, 1, 31, 0
2, 9280, Note_off_c, 1, 43, 0
2, 9320, Note_on_c, 1, 64, 127
2, 9320, Note_on_c, 1, 67, 127
2, 9320, Note_on_c, 1, 71, 127
2, 9720, Note_off_c, 1, 71, 0
2, 9760, Note_on_c, 1, 74, 127
2, 9880, Note_off_c, 1, 64, 0
2, 9880, Note_off_c, 1, 67, 0
2, 9880, Note_off_c, 1, 74, 0
2, 9920, Note_on_c, 1, 63, 127
2, 9920, Note_on_c, 1, 69, 127
2, 9920, Note_on_c, 1, 73, 127
2, 10040, Note_off_c, 1, 63, 0
2, 10040, Note_off_c, 1, 69, 0
2, 10040, Note_off_c, 1, 73, 0
2, 10080, Note_on_c, 1, 45, 127
2, 10080, Note_on_c, 1, 67, 127
2, 10080, Note_on_c, 1, 71, 127
2, 10320, Note_off_c, 1, 45, 0
2, 10320, Note_off_c, 1, 67, 0
2, 10320, Note_off_c, 1, 71, 0
2, 10360, Note_on_c, 1, 61, 127
2, 10360, Note_on_c, 1, 67, 127
2, 10360, Note_on_c, 1, 71, 127
2, 10480, Note_off_c, 1, 61, 0
2, 10480, Note_off_c, 1, 67, 0
2, 10480, Note_off_c, 1, 71, 0
2, 10520, Note_on_c, 1, 62, 127
2, 10520, Note_on_c, 1, 66, 127
2, 10520, Note_on_c, 1, 69, 127
2, 10560, Note_off_c, 1, 62, 0
2, 10560, Note_off_c, 1, 66, 0
2, 10560, Note_off_c, 1, 69, 0
2, 10640, Note_on_c, 1, 64, 127
2, 10640, Note_on_c, 1, 67, 127
2, 10640, Note_on_c, 1, 76, 127
2, 10640, Note_on_c, 1, 79, 127
2, 10680, Note_off_c, 1, 64, 0
2, 10680, Note_off_c, 1, 67, 0
2, 10680, Note_off_c, 1, 76, 0
2, 10680, Note_off_c, 1, 79, 0
2, 10840, Note_on_c, 1, 50, 127
2, 10840, Note_on_c, 1, 52, 127
2, 10840, Note_on_c, 1, 62, 127
2, 10840, Note_on_c, 1, 66, 127
2, 10840, Note_on_c, 1, 69, 127
2, 10840, Note_on_c, 1, 78, 127
2, 10880, Note_off_c, 1, 50, 0
2, 10880, Note_off_c, 1, 52, 0
2, 10880, Note_off_c, 1, 62, 0
2, 10880, Note_off_c, 1, 66, 0
2, 10880, Note_off_c, 1, 69, 0
2, 10880, Note_off_c, 1, 78, 0
2, 11040, Note_on_c, 1, 52, 127
2, 11160, Note_off_c, 1, 52, 0
2, 11200, Note_on_c, 1, 45, 127
2, 11200, Note_on_c, 1, 55, 127
2, 11200, Note_on_c, 1, 66, 127
2, 11240, Note_off_c, 1, 45, 0
2, 11240, Note_off_c, 1, 55, 0
2, 11240, Note_off_c, 1, 66, 0
2, 11320, Note_on_c, 1, 45, 127
2, 11360, Note_off_c, 1, 45, 0
2, 11800, Note_on_c, 1, 57, 127
2, 11800, Note_on_c, 1, 69, 127
2, 11800, Note_on_c, 1, 73, 127
2, 11800, Note_on_c, 1, 76, 127
2, 12040, Note_off_c, 1, 57, 0
2, 12040, Note_off_c, 1, 69, 0
2, 12040, Note_off_c, 1, 73, 0
2, 12040, Note_off_c, 1, 76, 0
2, 12080, Note_on_c, 1, 55, 127
2, 12080, Note_on_c, 1, 64, 127
2, 12080, Note_on_c, 1, 72, 127
2, 12080, Note_on_c, 1, 79, 127
2, 12200, Note_off_c, 1, 55, 0
2, 12200, Note_off_c, 1, 64, 0
2, 12200, Note_off_c, 1, 72, 0
2, 12200, Note_off_c, 1, 79, 0
2, 12240, Note_on_c, 1, 55, 127
2, 12240, Note_on_c, 1, 64, 127
2, 12240, Note_on_c, 1, 72, 127
2, 12240, Note_on_c, 1, 79, 127
2, 12360, Note_off_c, 1, 55, 0
2, 12360, Note_off_c, 1, 64, 0
2, 12360, Note_off_c, 1, 72, 0
2, 12360, Note_off_c, 1, 79, 0
2, 12400, Note_on_c, 1, 55, 127
2, 12400, Note_on_c, 1, 59, 127
2, 12400, Note_on_c, 1, 62, 127
2, 12400, Note_on_c, 1, 81, 127
2, 12520, Note_off_c, 1, 55, 0
2, 12520, Note_off_c, 1, 59, 0
2, 12520, Note_off_c, 1, 62, 0
2, 12520, Note_off_c, 1, 81, 0
2, 12560, Note_on_c, 1, 55, 127
2, 12560, Note_on_c, 1, 59, 127
2, 12560, Note_on_c, 1, 65, 127
2, 12560, Note_on_c, 1, 67, 127
2, 12560, Note_on_c, 1, 74, 127
2, 12680, Note_off_c, 1, 55, 0
2, 12680, Note_off_c, 1, 59, 0
2, 12680, Note_off_c, 1, 65, 0
2, 12680, Note_off_c, 1, 67, 0
2, 12680, Note_off_c, 1, 74, 0
2, 12720, Note_on_c, 1, 55, 127
2, 12720, Note_on_c, 1, 62, 127
2, 12720, Note_on_c, 1, 65, 127
2, 12720, Note_on_c, 1, 67, 127
2, 12760, Note_off_c, 1, 55, 0
2, 12760, Note_off_c, 1, 62, 0
2, 12760, Note_off_c, 1, 65, 0
2, 12760, Note_off_c, 1, 67, 0
2, 12800, Note_on_c, 1, 55, 127
2, 12800, Note_on_c, 1, 62, 127
2, 12800, Note_on_c, 1, 65, 127
2, 12800, Note_on_c, 1, 67, 127
2, 12840, Note_off_c, 1, 55, 0
2, 12840, Note_off_c, 1, 62, 0
2, 12840, Note_off_c, 1, 65, 0
2, 12840, Note_off_c, 1, 67, 0
2, 12880, Note_on_c, 1, 60, 127
2, 12880, Note_on_c, 1, 64, 127
2, 12880, Note_on_c, 1, 67, 127
2, 12880, Note_on_c, 1, 72, 127
2, 13000, Note_off_c, 1, 60, 0
2, 13000, Note_off_c, 1, 64, 0
2, 13000, Note_off_c, 1, 67, 0
2, 13000, Note_off_c, 1, 72, 0
2, 13040, Note_on_c, 1, 55, 127
2, 13040, Note_on_c, 1, 62, 127
2, 13040, Note_on_c, 1, 65, 127
2, 13040, Note_on_c, 1, 67, 127
2, 13160, Note_off_c, 1, 55, 0
2, 13160, Note_off_c, 1, 62, 0
2, 13160, Note_off_c, 1, 65, 0
2, 13160, Note_off_c, 1, 67, 0
2, 13200, Note_on_c, 1, 60, 127
2, 13200, Note_on_c, 1, 64, 127
2, 13200, Note_on_c, 1, 67, 127
2, 13200, Note_on_c, 1, 72, 127
2, 13320, Note_off_c, 1, 60, 0
2, 13320, Note_off_c, 1, 64, 0
2, 13320, Note_off_c, 1, 67, 0
2, 13320, Note_off_c, 1, 72, 0
2, 13360, Note_on_c, 1, 48, 127
2, 13360, Note_on_c, 1, 64, 127
2, 13360, Note_on_c, 1, 67, 127
2, 13360, Note_on_c, 1, 76, 127
2, 13600, Note_off_c, 1, 48, 0
2, 13600, Note_off_c, 1, 64, 0
2, 13600, Note_off_c, 1, 67, 0
2, 13600, Note_off_c, 1, 76, 0
2, 13640, Note_on_c, 1, 60, 127
2, 13640, Note_on_c, 1, 64, 127
2, 13640, Note_on_c, 1, 67, 127
2, 13640, Note_on_c, 1, 76, 127
2, 13920, Note_off_c, 1, 60, 0
2, 13920, Note_off_c, 1, 64, 0
2, 13920, Note_off_c, 1, 67, 0
2, 13920, Note_off_c, 1, 76, 0
2, 13960, Note_on_c, 1, 62, 127
2, 13960, Note_on_c, 1, 65, 127
2, 13960, Note_on_c, 1, 71, 127
2, 13960, Note_on_c, 1, 79, 127
2, 14040, Note_off_c, 1, 79, 0
2, 14080, Note_on_c, 1, 77, 127
2, 14200, Note_off_c, 1, 62, 0
2, 14200, Note_off_c, 1, 65, 0
2, 14200, Note_off_c, 1, 71, 0
2, 14200, Note_off_c, 1, 77, 0
2, 14240, Note_on_c, 1, 60, 127
2, 14240, Note_on_c, 1, 67, 127
2, 14240, Note_on_c, 1, 72, 127
2, 14240, Note_on_c, 1, 76, 127
2, 14520, Note_off_c, 1, 60, 0
2, 14520, Note_off_c, 1, 67, 0
2, 14520, Note_off_c, 1, 72, 0
2, 14520, Note_off_c, 1, 76, 0
2, 14560, Note_on_c, 1, 54, 127
2, 14560, Note_on_c, 1, 60, 127
2, 14560, Note_on_c, 1, 69, 127
2, 14560, Note_on_c, 1, 72, 127
2, 14600, Note_off_c, 1, 54, 0
2, 14640, Note_on_c, 1, 54, 127
2, 14720, Note_off_c, 1, 54, 0
2, 14760, Note_on_c, 1, 54, 127
2, 14800, Note_off_c, 1, 54, 0
2, 14800, Note_off_c, 1, 60, 0
2, 14800, Note_off_c, 1, 69, 0
2, 14800, Note_off_c, 1, 72, 0
2, 14880, Note_on_c, 1, 55, 127
2, 14880, Note_on_c, 1, 62, 127
2, 14880, Note_on_c, 1, 71, 127
2, 14880, Note_on_c, 1, 74, 127
2, 15000, Note_off_c, 1, 62, 0
2, 15000, Note_off_c, 1, 71, 0
2, 15000, Note_off_c, 1, 74, 0
2, 15040, Note_on_c, 1, 72, 127
2, 15040, Note_on_c, 1, 79, 127
2, 15120, Note_off_c, 1, 72, 0
2, 15120, Note_off_c, 1, 79, 0
2, 15160, Note_on_c, 1, 65, 127
2, 15160, Note_on_c, 1, 71, 127
2, 15160, Note_on_c, 1, 74, 127
2, 15400, Note_off_c, 1, 74, 0
2, 15440, Note_off_c, 1, 55, 0
2, 15440, Note_off_c, 1, 65, 0
2, 15440, Note_on_c, 1, 67, 127
2, 15440, Note_off_c, 1, 71, 0
2, 15480, Note_on_c, 1, 55, 127
2, 15480, Note_on_c, 1, 65, 127
2, 15480, Note_off_c, 1, 67, 0
2, 15480, Note_on_c, 1, 71, 127
2, 15480, Note_on_c, 1, 74, 127
2, 15600, Note_off_c, 1, 74, 0
2, 15640, Note_on_c, 1, 74, 127
2, 15760, Note_off_c, 1, 55, 0
2, 15760, Note_off_c, 1, 65, 0
2, 15760, Note_off_c, 1, 71, 0
2, 15760, Note_off_c, 1, 74, 0
2, 15800, Note_on_c, 1, 60, 127
2, 15800, Note_on_c, 1, 64, 127
2, 15800, Note_on_c, 1, 72, 127
2, 15960, Note_on_c, 1, 71, 127
2, 15960, Note_off_c, 1, 72, 0
2, 16000, Note_off_c, 1, 71, 0
2, 16000, Note_on_c, 1, 72, 127
2, 16040, Note_off_c, 1, 60, 0
2, 16040, Note_off_c, 1, 64, 0
2, 16040, Note_off_c, 1, 72, 0
2, 16080, Note_on_c, 1, 57, 127
2, 16080, Note_on_c, 1, 60, 127
2, 16080, Note_on_c, 1, 63, 127
2, 16080, Note_on_c, 1, 72, 127
2, 16080, Note_on_c, 1, 78, 127
2, 16080, Note_on_c, 1, 83, 127
2, 16120, Note_off_c, 1, 57, 0
2, 16120, Note_off_c, 1, 60, 0
2, 16120, Note_off_c, 1, 63, 0
2, 16120, Note_off_c, 1, 72, 0
2, 16120, Note_off_c, 1, 78, 0
2, 16120, Note_off_c, 1, 83, 0
2, 16200, Note_on_c, 1, 46, 127
2, 16200, Note_on_c, 1, 55, 127
2, 16200, Note_on_c, 1, 62, 127
2, 16200, Note_on_c, 1, 67, 127
2, 16240, Note_off_c, 1, 46, 0
2, 16240, Note_off_c, 1, 55, 0
2, 16240, Note_off_c, 1, 62, 0
2, 16240, Note_off_c, 1, 67, 0
2, 16280, Note_on_c, 1, 48, 127
2, 16280, Note_on_c, 1, 60, 127
2, 16280, Note_on_c, 1, 64, 127
2, 16280, Note_on_c, 1, 67, 127
2, 16320, Note_off_c, 1, 48, 0
2, 16320, Note_off_c, 1, 60, 0
2, 16320, Note_off_c, 1, 64, 0
2, 16320, Note_off_c, 1, 67, 0
2, 16400, Note_on_c, 1, 48, 127
2, 16400, Note_on_c, 1, 60, 127
2, 16400, Note_on_c, 1, 64, 127
2, 16400, Note_on_c, 1, 67, 127
2, 16680, Note_off_c, 1, 48, 0
2, 16680, Note_off_c, 1, 60, 0
2, 16680, Note_off_c, 1, 64, 0
2, 16680, Note_off_c, 1, 67, 0
2, 16760, Note_on_c, 1, 60, 127
2, 16760, Note_on_c, 1, 69, 127
2, 16760, Note_on_c, 1, 72, 127
2, 16760, Note_on_c, 1, 79, 127
2, 16840, Note_off_c, 1, 60, 0
2, 16840, Note_off_c, 1, 69, 0
2, 16840, Note_off_c, 1, 72, 0
2, 16840, Note_off_c, 1, 79, 0
2, 16880, Note_on_c, 1, 59, 127
2, 16880, Note_on_c, 1, 62, 127
2, 16880, Note_on_c, 1, 68, 127
2, 16880, Note_on_c, 1, 75, 127
2, 17000, Note_off_c, 1, 59, 0
2, 17000, Note_off_c, 1, 62, 0
2, 17000, Note_off_c, 1, 68, 0
2, 17000, Note_off_c, 1, 75, 0
2, 17040, Note_on_c, 1, 59, 127
2, 17040, Note_on_c, 1, 62, 127
2, 17040, Note_on_c, 1, 68, 127
2, 17040, Note_on_c, 1, 75, 127
2, 17160, Note_off_c, 1, 59, 0
2, 17160, Note_off_c, 1, 62, 0
2, 17160, Note_off_c, 1, 68, 0
2, 17160, Note_off_c, 1, 75, 0
2, 17200, Note_on_c, 1, 59, 127
2, 17200, Note_on_c, 1, 62, 127
2, 17200, Note_on_c, 1, 68, 127
2, 17200, Note_on_c, 1, 75, 127
2, 17320, Note_off_c, 1, 59, 0
2, 17320, Note_off_c, 1, 62, 0
2, 17320, Note_off_c, 1, 68, 0
2, 17320, Note_off_c, 1, 75, 0
2, 17360, Note_on_c, 1, 37, 127
2, 17360, Note_on_c, 1, 49, 127
2, 17360, Note_on_c, 1, 56, 127
2, 17360, Note_on_c, 1, 61, 127
2, 17360, Note_on_c, 1, 64, 127
2, 17440, Note_off_c, 1, 37, 0
2, 17440, Note_off_c, 1, 49, 0
2, 17440, Note_off_c, 1, 56, 0
2, 17440, Note_off_c, 1, 61, 0
2, 17440, Note_off_c, 1, 64, 0
2, 17960, Note_on_c, 1, 40, 127
2, 17960, Note_on_c, 1, 52, 127
2, 17960, Note_on_c, 1, 64, 127
2, 18080, Note_off_c, 1, 40, 0
2, 18080, Note_off_c, 1, 52, 0
2, 18080, Note_off_c, 1, 64, 0
2, 18120, Note_on_c, 1, 40, 127
2, 18120, Note_on_c, 1, 52, 127
2, 18120, Note_on_c, 1, 64, 127
2, 18200, Note_off_c, 1, 40, 0
2, 18200, Note_off_c, 1, 52, 0
2, 18200, Note_off_c, 1, 64, 0
2, 18240, Note_on_c, 1, 40, 127
2, 18240, Note_on_c, 1, 52, 127
2, 18240, Note_on_c, 1, 64, 127
2, 18360, Note_off_c, 1, 40, 0
2, 18360, Note_off_c, 1, 52, 0
2, 18360, Note_off_c, 1, 64, 0
2, 18400, Note_on_c, 1, 41, 127
2, 18400, Note_on_c, 1, 53, 127
2, 18400, Note_on_c, 1, 65, 127
2, 18520, Note_off_c, 1, 41, 0
2, 18520, Note_off_c, 1, 53, 0
2, 18520, Note_off_c, 1, 65, 0
2, 18560, Note_on_c, 1, 40, 127
2, 18560, Note_on_c, 1, 52, 127
2, 18560, Note_on_c, 1, 64, 127
2, 18680, Note_off_c, 1, 40, 0
2, 18680, Note_off_c, 1, 52, 0
2, 18680, Note_off_c, 1, 64, 0
2, 18720, Note_on_c, 1, 42, 127
2, 18720, Note_on_c, 1, 54, 127
2, 18720, Note_on_c, 1, 66, 127
2, 18760, Note_off_c, 1, 42, 0
2, 18760, Note_off_c, 1, 54, 0
2, 18760, Note_off_c, 1, 66, 0
2, 18840, Note_on_c, 1, 45, 127
2, 18840, Note_on_c, 1, 57, 127
2, 18840, Note_on_c, 1, 69, 127
2, 18960, Note_off_c, 1, 45, 0
2, 18960, Note_off_c, 1, 57, 0
2, 18960, Note_off_c, 1, 69, 0
2, 19040, Note_on_c, 1, 40, 127
2, 19040, Note_on_c, 1, 52, 127
2, 19040, Note_on_c, 1, 64, 127
2, 19120, Note_off_c, 1, 40, 0
2, 19120, Note_off_c, 1, 52, 0
2, 19120, Note_off_c, 1, 64, 0
2, 19160, Note_on_c, 1, 38, 127
2, 19160, Note_on_c, 1, 50, 127
2, 19160, Note_on_c, 1, 62, 127
2, 19200, Note_off_c, 1, 38, 0
2, 19200, Note_off_c, 1, 50, 0
2, 19200, Note_off_c, 1, 62, 0
2, 19280, Note_on_c, 1, 40, 127
2, 19280, Note_on_c, 1, 52, 127
2, 19280, Note_on_c, 1, 64, 127
2, 19640, Note_off_c, 1, 40, 0
2, 19640, Note_off_c, 1, 52, 0
2, 19640, Note_off_c, 1, 64, 0
2, 19840, Note_on_c, 1, 72, 127
2, 19880, Note_off_c, 1, 72, 0
2, 19880, Note_on_c, 1, 76, 127
2, 20520, Note_off_c, 1, 76, 0
2, 20560, Note_on_c, 1, 76, 127
2, 20760, Note_off_c, 1, 76, 0
2, 20800, Note_on_c, 1, 81, 127
2, 20840, Note_off_c, 1, 81, 0
2, 20880, Note_on_c, 1, 76, 127
2, 21080, Note_off_c, 1, 76, 0
2, 21120, Note_on_c, 1, 76, 127
2, 21400, Note_off_c, 1, 76, 0
2, 21440, Note_on_c, 1, 88, 127
2, 21520, Note_off_c, 1, 88, 0
2, 21560, Note_on_c, 1, 76, 127
2, 21840, Note_off_c, 1, 76, 0
2, 21880, Note_on_c, 1, 79, 127
2, 22280, Note_off_c, 1, 79, 0
2, 22320, Note_on_c, 1, 80, 127
2, 22440, Note_off_c, 1, 80, 0
2, 22480, Note_on_c, 1, 83, 127
2, 22560, Note_off_c, 1, 83, 0
2, 22600, Note_on_c, 1, 84, 127
2, 22920, Note_on_c, 1, 69, 127
2, 23200, Note_off_c, 1, 69, 0
2, 23200, Note_off_c, 1, 84, 0
2, 23280, Note_on_c, 1, 67, 127
2, 23280, Note_on_c, 1, 83, 127
2, 23400, Note_off_c, 1, 83, 0
2, 23440, Note_on_c, 1, 79, 127
2, 23520, Note_off_c, 1, 67, 0
2, 23520, Note_off_c, 1, 79, 0
2, 23560, Note_on_c, 1, 62, 127
2, 23560, Note_on_c, 1, 77, 127
2, 23800, Note_off_c, 1, 62, 0
2, 23800, Note_off_c, 1, 77, 0
2, 23840, Note_on_c, 1, 59, 127
2, 23840, Note_on_c, 1, 74, 127
2, 24120, Note_off_c, 1, 59, 0
2, 24120, Note_off_c, 1, 74, 0
2, 24160, Note_on_c, 1, 55, 127
2, 24160, Note_on_c, 1, 83, 127
2, 24200, Note_off_c, 1, 83, 0
2, 24440, Note_on_c, 1, 77, 127
2, 24480, Note_off_c, 1, 77, 0
2, 24520, Note_on_c, 1, 77, 127
2, 24560, Note_off_c, 1, 77, 0
2, 24600, Note_on_c, 1, 79, 127
2, 24640, Note_off_c, 1, 79, 0
2, 24720, Note_off_c, 1, 55, 0
2, 24760, Note_on_c, 1, 48, 127
2, 24760, Note_on_c, 1, 79, 127
2, 24800, Note_off_c, 1, 79, 0
2, 24840, Note_on_c, 1, 79, 127
2, 24880, Note_off_c, 1, 79, 0
2, 24920, Note_on_c, 1, 76, 127
2, 24960, Note_off_c, 1, 76, 0
2, 25000, Note_off_c, 1, 48, 0
2, 25000, Note_on_c, 1, 72, 127
2, 25040, Note_on_c, 1, 52, 127
2, 25040, Note_on_c, 1, 69, 127
2, 25040, Note_off_c, 1, 72, 0
2, 25120, Note_off_c, 1, 69, 0
2, 25160, Note_on_c, 1, 69, 127
2, 25200, Note_off_c, 1, 52, 0
2, 25200, Note_off_c, 1, 69, 0
2, 25240, Note_on_c, 1, 52, 127
2, 25280, Note_on_c, 1, 67, 127
2, 25320, Note_off_c, 1, 52, 0
2, 25320, Note_off_c, 1, 67, 0
2, 25360, Note_on_c, 1, 57, 127
2, 25360, Note_on_c, 1, 69, 127
2, 25600, Note_off_c, 1, 69, 0
2, 25640, Note_on_c, 1, 67, 127
2, 25760, Note_off_c, 1, 67, 0
2, 25800, Note_on_c, 1, 69, 127
2, 25920, Note_off_c, 1, 57, 0
2, 25920, Note_off_c, 1, 69, 0
2, 25960, Note_on_c, 1, 55, 127
2, 26440, Note_on_c, 1, 70, 127
2, 26560, Note_off_c, 1, 55, 0
2, 26560, Note_off_c, 1, 70, 0
2, 26600, Note_on_c, 1, 60, 127
2, 26600, Note_on_c, 1, 76, 127
2, 26840, Note_off_c, 1, 60, 0
2, 26840, Note_off_c, 1, 76, 0
2, 26880, Note_on_c, 1, 57, 127
2, 26880, Note_on_c, 1, 77, 127
2, 26920, Note_off_c, 1, 77, 0
2, 27040, Note_on_c, 1, 79, 127
2, 27080, Note_off_c, 1, 79, 0
2, 27120, Note_off_c, 1, 57, 0
2, 27160, Note_on_c, 1, 57, 127
2, 27160, Note_on_c, 1, 79, 127
2, 27200, Note_off_c, 1, 57, 0
2, 27200, Note_off_c, 1, 79, 0
2, 27240, Note_on_c, 1, 60, 127
2, 27240, Note_on_c, 1, 76, 127
2, 27520, Note_off_c, 1, 60, 0
2, 27520, Note_off_c, 1, 76, 0
2, 27560, Note_on_c, 1, 58, 127
2, 27560, Note_on_c, 1, 74, 127
2, 27840, Note_off_c, 1, 58, 0
2, 27840, Note_off_c, 1, 74, 0
2, 27880, Note_on_c, 1, 57, 127
2, 28200, Note_on_c, 1, 65, 127
2, 28320, Note_off_c, 1, 65, 0
2, 28360, Note_on_c, 1, 74, 127
2, 28400, Note_off_c, 1, 57, 0
2, 28480, Note_off_c, 1, 74, 0
2, 28520, Note_on_c, 1, 48, 127
2, 28520, Note_on_c, 1, 60, 127
2, 28520, Note_on_c, 1, 72, 127
2, 28800, Note_off_c, 1, 48, 0
2, 28800, Note_off_c, 1, 60, 0
2, 28800, Note_off_c, 1, 72, 0
2, 28840, Note_on_c, 1, 53, 127
2, 28840, Note_on_c, 1, 65, 127
2, 28840, Note_on_c, 1, 77, 127
2, 28920, Note_off_c, 1, 77, 0
2, 28960, Note_on_c, 1, 81, 127
2, 29080, Note_off_c, 1, 53, 0
2, 29080, Note_off_c, 1, 65, 0
2, 29080, Note_off_c, 1, 81, 0
2, 29120, Note_on_c, 1, 58, 127
2, 29120, Note_on_c, 1, 62, 127
2, 29120, Note_on_c, 1, 79, 127
2, 29240, Note_off_c, 1, 58, 0
2, 29240, Note_off_c, 1, 62, 0
2, 29240, Note_off_c, 1, 79, 0
2, 29280, Note_on_c, 1, 58, 127
2, 29280, Note_on_c, 1, 62, 127
2, 29320, Note_on_c, 1, 57, 127
2, 29320, Note_off_c, 1, 58, 0
2, 29320, Note_on_c, 1, 77, 127
2, 29440, Note_off_c, 1, 57, 0
2, 29440, Note_off_c, 1, 62, 0
2, 29440, Note_off_c, 1, 77, 0
2, 29480, Note_on_c, 1, 55, 127
2, 29480, Note_on_c, 1, 60, 127
2, 29480, Note_on_c, 1, 76, 127
2, 29600, Note_off_c, 1, 60, 0
2, 29640, Note_on_c, 1, 64, 127
2, 29760, Note_off_c, 1, 55, 0
2, 29760, Note_off_c, 1, 64, 0
2, 29760, Note_off_c, 1, 76, 0
2, 29800, Note_on_c, 1, 53, 127
2, 29800, Note_on_c, 1, 57, 127
2, 29800, Note_on_c, 1, 77, 127
2, 30080, Note_off_c, 1, 53, 0
2, 30080, Note_off_c, 1, 57, 0
2, 30080, Note_off_c, 1, 77, 0
2, 30120, Note_on_c, 1, 77, 127
2, 30440, Note_on_c, 1, 57, 127
2, 30440, Note_on_c, 1, 60, 127
2, 30440, Note_on_c, 1, 65, 127
2, 30520, Note_off_c, 1, 77, 0
2, 30520, Note_on_c, 1, 79, 127
2, 30560, Note_on_c, 1, 77, 127
2, 30560, Note_off_c, 1, 79, 0
2, 30720, Note_off_c, 1, 57, 0
2, 30720, Note_off_c, 1, 60, 0
2, 30720, Note_off_c, 1, 65, 0
2, 30720, Note_off_c, 1, 77, 0
2, 30760, Note_on_c, 1, 55, 127
2, 30760, Note_on_c, 1, 59, 127
2, 30760, Note_on_c, 1, 62, 127
2, 30760, Note_on_c, 1, 74, 127
2, 30880, Note_off_c, 1, 74, 0
2, 30920, Note_on_c, 1, 77, 127
2, 31040, Note_off_c, 1, 59, 0
2, 31040, Note_off_c, 1, 62, 0
2, 31040, Note_off_c, 1, 77, 0
2, 31080, Note_on_c, 1, 59, 127
2, 31080, Note_on_c, 1, 62, 127
2, 31080, Note_on_c, 1, 74, 127
2, 31200, Note_off_c, 1, 55, 0
2, 31200, Note_off_c, 1, 59, 0
2, 31200, Note_off_c, 1, 62, 0
2, 31200, Note_off_c, 1, 74, 0
2, 31240, Note_on_c, 1, 55, 127
2, 31240, Note_on_c, 1, 59, 127
2, 31240, Note_on_c, 1, 62, 127
2, 31240, Note_on_c, 1, 74, 127
2, 31400, Note_off_c, 1, 55, 0
2, 31400, Note_off_c, 1, 59, 0
2, 31400, Note_off_c, 1, 62, 0
2, 31400, Note_off_c, 1, 74, 0
2, 31440, Note_on_c, 1, 76, 127
2, 31760, Note_on_c, 1, 60, 127
2, 31760, Note_on_c, 1, 64, 127
2, 31760, Note_on_c, 1, 67, 127
2, 31760, Note_on_c, 1, 72, 127
2, 32160, Note_off_c, 1, 67, 0
2, 32160, Note_off_c, 1, 72, 0
2, 32160, Note_off_c, 1, 76, 0
2, 32200, Note_on_c, 1, 67, 127
2, 32200, Note_on_c, 1, 84, 127
2, 32240, Note_off_c, 1, 84, 0
2, 32360, Note_on_c, 1, 84, 127
2, 32440, Note_off_c, 1, 84, 0
2, 32480, Note_off_c, 1, 60, 0
2, 32480, Note_off_c, 1, 64, 0
2, 32480, Note_on_c, 1, 79, 127
2, 32520, Note_on_c, 1, 50, 127
2, 32520, Note_on_c, 1, 53, 127
2, 32520, Note_on_c, 1, 59, 127
2, 32520, Note_off_c, 1, 67, 0
2, 33080, Note_off_c, 1, 50, 0
2, 33080, Note_off_c, 1, 53, 0
2, 33080, Note_off_c, 1, 59, 0
2, 33080, Note_off_c, 1, 79, 0
2, 33120, Note_on_c, 1, 76, 127
2, 33280, Note_off_c, 1, 76, 0
2, 33320, Note_on_c, 1, 76, 127
2, 33640, Note_off_c, 1, 76, 0
2, 33680, Note_on_c, 1, 77, 127
2, 33760, Note_on_c, 1, 55, 127
2, 33760, Note_on_c, 1, 58, 127
2, 33760, Note_on_c, 1, 62, 127
2, 34320, Note_off_c, 1, 55, 0
2, 34320, Note_off_c, 1, 58, 0
2, 34320, Note_off_c, 1, 62, 0
2, 34320, Note_off_c, 1, 77, 0
2, 34360, Note_on_c, 1, 34, 127
2, 34360, Note_on_c, 1, 41, 127
2, 34360, Note_on_c, 1, 65, 127
2, 34360, Note_on_c, 1, 69, 127
2, 34360, Note_on_c, 1, 74, 127
2, 34360, Note_on_c, 1, 77, 127
2, 34400, Note_off_c, 1, 34, 0
2, 34400, Note_off_c, 1, 41, 0
2, 34400, Note_off_c, 1, 65, 0
2, 34400, Note_off_c, 1, 69, 0
2, 34400, Note_off_c, 1, 74, 0
2, 34400, Note_on_c, 1, 80, 127
2, 34400, Note_on_c, 1, 86, 127
2, 34400, Note_on_c, 1, 101, 127
2, 34440, Note_on_c, 1, 54, 127
2, 34440, Note_on_c, 1, 58, 127
2, 34440, Note_on_c, 1, 63, 127
2, 34440, Note_on_c, 1, 66, 127
2, 34440, Note_on_c, 1, 70, 127
2, 34440, Note_on_c, 1, 75, 127
2, 34440, Note_off_c, 1, 77, 0
2, 34440, Note_off_c, 1, 80, 0
2, 34440, Note_off_c, 1, 86, 0
2, 34440, Note_on_c, 1, 87, 127
2, 34440, Note_off_c, 1, 101, 0
2, 34480, Note_on_c, 1, 47, 127
2, 34480, Note_off_c, 1, 54, 0
2, 34480, Note_off_c, 1, 58, 0
2, 34480, Note_off_c, 1, 63, 0
2, 34480, Note_off_c, 1, 66, 0
2, 34480, Note_off_c, 1, 70, 0
2, 34480, Note_off_c, 1, 75, 0
2, 34480, Note_on_c, 1, 77, 127
2, 34480, Note_off_c, 1, 87, 0
2, 34480, Note_on_c, 1, 91, 127
2, 34520, Note_on_c, 1, 34, 127
2, 34520, Note_on_c, 1, 41, 127
2, 34520, Note_off_c, 1, 47, 0
2, 34520, Note_on_c, 1, 65, 127
2, 34520, Note_on_c, 1, 69, 127
2, 34520, Note_on_c, 1, 74, 127
2, 34520, Note_off_c, 1, 91, 0
2, 34560, Note_off_c, 1, 34, 0
2, 34560, Note_off_c, 1, 41, 0
2, 34560, Note_on_c, 1, 44, 127
2, 34560, Note_on_c, 1, 48, 127
2, 34560, Note_off_c, 1, 65, 0
2, 34560, Note_off_c, 1, 69, 0
2, 34560, Note_on_c, 1, 72, 127
2, 34560, Note_off_c, 1, 77, 0
2, 34560, Note_on_c, 1, 84, 127
2, 34600, Note_on_c, 1, 34, 127
2, 34600, Note_on_c, 1, 41, 127
2, 34600, Note_off_c, 1, 44, 0
2, 34600, Note_off_c, 1, 48, 0
2, 34600, Note_on_c, 1, 65, 127
2, 34600, Note_on_c, 1, 69, 127
2, 34600, Note_off_c, 1, 72, 0
2, 34600, Note_on_c, 1, 77, 127
2, 34600, Note_off_c, 1, 84, 0
2, 34640, Note_off_c, 1, 34, 0
2, 34640, Note_off_c, 1, 41, 0
2, 34640, Note_off_c, 1, 65, 0
2, 34640, Note_off_c, 1, 69, 0
2, 34640, Note_off_c, 1, 74, 0
2, 34640, Note_off_c, 1, 77, 0
2, 34680, Note_on_c, 1, 45, 127
2, 34680, Note_on_c, 1, 52, 127
2, 34680, Note_on_c, 1, 55, 127
2, 34680, Note_on_c, 1, 67, 127
2, 34680, Note_on_c, 1, 69, 127
2, 34680, Note_on_c, 1, 76, 127
2, 34680, Note_on_c, 1, 79, 127
2, 35280, Note_off_c, 1, 45, 0
2, 35280, Note_off_c, 1, 52, 0
2, 35280, Note_off_c, 1, 55, 0
2, 35280, Note_off_c, 1, 67, 0
2, 35280, Note_off_c, 1, 69, 0
2, 35280, Note_off_c, 1, 76, 0
2, 35280, Note_off_c, 1, 79, 0
2, 35320, Note_on_c, 1, 45, 127
2, 35320, Note_on_c, 1, 52, 127
2, 35320, Note_on_c, 1, 55, 127
2, 35320, Note_on_c, 1, 67, 127
2, 35320, Note_on_c, 1, 69, 127
2, 35320, Note_on_c, 1, 76, 127
2, 35320, Note_on_c, 1, 79, 127
2, 35560, Note_off_c, 1, 45, 0
2, 35560, Note_off_c, 1, 52, 0
2, 35560, Note_off_c, 1, 55, 0
2, 35560, Note_off_c, 1, 67, 0
2, 35560, Note_off_c, 1, 69, 0
2, 35560, Note_off_c, 1, 76, 0
2, 35560, Note_off_c, 1, 79, 0
2, 35600, Note_on_c, 1, 55, 127
2, 35600, Note_on_c, 1, 79, 127
2, 35600, Note_on_c, 1, 81, 127
2, 35640, Note_on_c, 1, 53, 127
2, 35640, Note_off_c, 1, 55, 0
2, 35640, Note_off_c, 1, 79, 0
2, 35880, Note_off_c, 1, 53, 0
2, 35880, Note_off_c, 1, 81, 0
2, 35920, Note_on_c, 1, 60, 127
2, 35920, Note_on_c, 1, 80, 127
2, 36040, Note_off_c, 1, 80, 0
2, 36080, Note_on_c, 1, 79, 127
2, 36200, Note_off_c, 1, 60, 0
2, 36200, Note_off_c, 1, 79, 0
2, 36240, Note_on_c, 1, 57, 127
2, 36240, Note_on_c, 1, 78, 127
2, 36360, Note_off_c, 1, 78, 0
2, 36400, Note_on_c, 1, 81, 127
2, 36520, Note_off_c, 1, 57, 0
2, 36520, Note_off_c, 1, 81, 0
2, 36560, Note_on_c, 1, 60, 127
2, 36560, Note_on_c, 1, 81, 127
2, 36680, Note_off_c, 1, 81, 0
2, 36720, Note_on_c, 1, 81, 127
2, 36800, Note_off_c, 1, 81, 0
2, 36840, Note_off_c, 1, 60, 0
2, 36880, Note_on_c, 1, 60, 127
2, 36880, Note_on_c, 1, 81, 127
2, 37000, Note_off_c, 1, 81, 0
2, 37040, Note_on_c, 1, 83, 127
2, 37160, Note_off_c, 1, 60, 0
2, 37160, Note_off_c, 1, 83, 0
2, 37200, Note_on_c, 1, 57, 127
2, 37200, Note_on_c, 1, 81, 127
2, 37440, Note_off_c, 1, 57, 0
2, 37440, Note_off_c, 1, 81, 0
2, 37480, Note_on_c, 1, 57, 127
2, 37480, Note_on_c, 1, 81, 127
2, 37520, Note_off_c, 1, 57, 0
2, 37520, Note_off_c, 1, 81, 0
2, 37560, Note_on_c, 1, 62, 127
2, 37560, Note_on_c, 1, 72, 127
2, 37560, Note_on_c, 1, 81, 127
2, 37840, Note_off_c, 1, 62, 0
2, 37840, Note_off_c, 1, 72, 0
2, 37840, Note_off_c, 1, 81, 0
2, 37880, Note_on_c, 1, 62, 127
2, 37880, Note_on_c, 1, 71, 127
2, 37880, Note_on_c, 1, 79, 127
2, 38160, Note_off_c, 1, 71, 0
2, 38160, Note_off_c, 1, 79, 0
2, 38200, Note_on_c, 1, 72, 127
2, 38200, Note_on_c, 1, 78, 127
2, 38440, Note_off_c, 1, 62, 0
2, 38440, Note_off_c, 1, 72, 0
2, 38440, Note_off_c, 1, 78, 0
2, 38480, Note_on_c, 1, 62, 127
2, 38480, Note_on_c, 1, 72, 127
2, 38480, Note_on_c, 1, 79, 127
2, 38760, Note_off_c, 1, 72, 0
2, 38760, Note_off_c, 1, 79, 0
2, 38800, Note_on_c, 1, 55, 127
2, 38800, Note_on_c, 1, 67, 127
2, 38800, Note_on_c, 1, 71, 127
2, 38800, Note_on_c, 1, 79, 127
2, 39360, Note_off_c, 1, 55, 0
2, 39360, Note_off_c, 1, 62, 0
2, 39360, Note_off_c, 1, 67, 0
2, 39360, Note_off_c, 1, 71, 0
2, 39360, Note_off_c, 1, 79, 0
2, 42880, Note_on_c, 1, 77, 127
2, 43200, Note_on_c, 1, 58, 127
2, 43320, Note_off_c, 1, 77, 0
2, 43360, Note_on_c, 1, 81, 127
2, 43480, Note_off_c, 1, 58, 0
2, 43480, Note_off_c, 1, 81, 0
2, 43520, Note_on_c, 1, 62, 127
2, 43520, Note_on_c, 1, 79, 127
2, 43640, Note_off_c, 1, 79, 0
2, 43680, Note_on_c, 1, 77, 127
2, 43800, Note_off_c, 1, 77, 0
2, 43840, Note_on_c, 1, 79, 127
2, 43960, Note_off_c, 1, 79, 0
2, 44000, Note_on_c, 1, 77, 127
2, 44120, Note_off_c, 1, 62, 0
2, 44120, Note_off_c, 1, 77, 0
2, 44200, Note_on_c, 1, 54, 127
2, 44200, Note_on_c, 1, 76, 127
2, 44440, Note_off_c, 1, 54, 0
2, 44480, Note_on_c, 1, 58, 127
2, 44760, Note_off_c, 1, 58, 0
2, 44760, Note_off_c, 1, 76, 0
2, 44800, Note_on_c, 1, 62, 127
2, 44800, Note_on_c, 1, 74, 127
2, 45080, Note_off_c, 1, 74, 0
2, 45120, Note_on_c, 1, 70, 127
2, 45240, Note_off_c, 1, 70, 0
2, 45280, Note_on_c, 1, 74, 127
2, 45400, Note_off_c, 1, 62, 0
2, 45400, Note_off_c, 1, 74, 0
2, 45440, Note_on_c, 1, 55, 127
2, 45440, Note_on_c, 1, 70, 127
2, 45560, Note_off_c, 1, 55, 0
2, 45600, Note_on_c, 1, 65, 127
2, 45720, Note_off_c, 1, 65, 0
2, 45760, Note_on_c, 1, 63, 127
2, 45880, Note_off_c, 1, 70, 0
2, 45920, Note_on_c, 1, 74, 127
2, 46040, Note_off_c, 1, 63, 0
2, 46040, Note_off_c, 1, 74, 0
2, 46080, Note_on_c, 1, 58, 127
2, 46080, Note_on_c, 1, 75, 127
2, 46200, Note_off_c, 1, 75, 0
2, 46240, Note_on_c, 1, 74, 127
2, 46320, Note_off_c, 1, 58, 0
2, 46320, Note_off_c, 1, 74, 0
2, 46360, Note_on_c, 1, 58, 127
2, 46360, Note_on_c, 1, 74, 127
2, 46400, Note_off_c, 1, 58, 0
2, 46400, Note_off_c, 1, 74, 0
2, 46440, Note_on_c, 1, 62, 127
2, 46440, Note_on_c, 1, 75, 127
2, 46720, Note_off_c, 1, 62, 0
2, 46720, Note_off_c, 1, 75, 0
2, 46760, Note_on_c, 1, 58, 127
2, 46760, Note_on_c, 1, 74, 127
2, 47040, Note_off_c, 1, 58, 0
2, 47040, Note_off_c, 1, 74, 0
2, 47080, Note_on_c, 1, 46, 127
2, 47360, Note_off_c, 1, 46, 0
2, 57720, Note_on_c, 1, 70, 127
2, 58000, Note_on_c, 1, 41, 127
2, 58280, Note_off_c, 1, 41, 0
2, 58280, Note_off_c, 1, 70, 0
2, 58320, Note_on_c, 1, 75, 127
2, 58640, Note_on_c, 1, 58, 127
2, 58920, Note_off_c, 1, 58, 0
2, 58920, Note_off_c, 1, 75, 0
2, 58960, Note_on_c, 1, 58, 127
2, 58960, Note_on_c, 1, 74, 127
2, 58960, Note_on_c, 1, 77, 127
2, 59080, Note_off_c, 1, 58, 0
2, 59080, Note_off_c, 1, 74, 0
2, 59080, Note_off_c, 1, 77, 0
2, 59120, Note_on_c, 1, 58, 127
2, 59120, Note_on_c, 1, 74, 127
2, 59120, Note_on_c, 1, 77, 127
2, 59280, Note_off_c, 1, 58, 0
2, 59280, Note_off_c, 1, 74, 0
2, 59280, Note_off_c, 1, 77, 0
2, 59320, Note_on_c, 1, 63, 127
2, 59320, Note_on_c, 1, 72, 127
2, 59320, Note_on_c, 1, 75, 127
2, 59600, Note_off_c, 1, 63, 0
2, 59600, Note_off_c, 1, 72, 0
2, 59600, Note_off_c, 1, 75, 0
2, 59640, Note_on_c, 1, 75, 127
2, 59960, Note_on_c, 1, 58, 127
2, 59960, Note_on_c, 1, 68, 127
2, 60120, Note_off_c, 1, 68, 0
2, 60120, Note_on_c, 1, 69, 127
2, 60240, Note_off_c, 1, 58, 0
2, 60240, Note_off_c, 1, 69, 0
2, 60240, Note_off_c, 1, 75, 0
2, 60280, Note_on_c, 1, 58, 127
2, 60280, Note_on_c, 1, 70, 127
2, 60280, Note_on_c, 1, 74, 127
2, 60560, Note_off_c, 1, 58, 0
2, 60560, Note_off_c, 1, 70, 0
2, 60560, Note_off_c, 1, 74, 0
2, 60600, Note_on_c, 1, 74, 127
2, 60920, Note_on_c, 1, 58, 127
2, 60920, Note_on_c, 1, 65, 127
2, 60960, Note_off_c, 1, 74, 0
2, 61040, Note_off_c, 1, 58, 0
2, 61040, Note_off_c, 1, 65, 0
2, 61080, Note_on_c, 1, 58, 127
2, 61080, Note_on_c, 1, 65, 127
2, 61080, Note_on_c, 1, 77, 127
2, 61120, Note_off_c, 1, 77, 0
2, 61160, Note_on_c, 1, 74, 127
2, 61200, Note_off_c, 1, 74, 0
2, 61240, Note_on_c, 1, 77, 127
2, 61280, Note_off_c, 1, 58, 0
2, 61280, Note_off_c, 1, 65, 0
2, 61280, Note_off_c, 1, 77, 0
2, 61320, Note_on_c, 1, 74, 127
2, 61600, Note_on_c, 1, 58, 127
2, 61600, Note_on_c, 1, 66, 127
2, 62080, Note_off_c, 1, 66, 0
2, 62080, Note_on_c, 1, 67, 127
2, 62480, Note_off_c, 1, 58, 0
2, 62480, Note_off_c, 1, 67, 0
2, 62480, Note_off_c, 1, 74, 0
2, 62520, Note_on_c, 1, 58, 127
2, 62520, Note_on_c, 1, 67, 127
2, 62520, Note_on_c, 1, 74, 127
2, 63080, Note_off_c, 1, 58, 0
2, 63080, Note_off_c, 1, 74, 0
2, 63120, Note_off_c, 1, 67, 0
2, 63160, Note_on_c, 1, 58, 127
2, 63160, Note_on_c, 1, 67, 127
2, 63160, Note_on_c, 1, 76, 127
2, 63440, Note_off_c, 1, 67, 0
2, 63440, Note_off_c, 1, 76, 0
2, 63480, Note_off_c, 1, 58, 0
2, 63480, Note_on_c, 1, 59, 127
2, 63480, Note_on_c, 1, 68, 127
2, 63480, Note_on_c, 1, 77, 127
2, 64080, Note_off_c, 1, 59, 0
2, 64080, Note_off_c, 1, 68, 0
2, 64080, Note_off_c, 1, 77, 0
2, 64120, Note_on_c, 1, 57, 127
2, 64120, Note_on_c, 1, 66, 127
2, 64120, Note_on_c, 1, 72, 127
2, 64680, Note_off_c, 1, 57, 0
2, 64680, Note_off_c, 1, 66, 0
2, 64720, Note_on_c, 1, 62, 127
2, 64720, Note_on_c, 1, 67, 127
2, 64720, Note_on_c, 1, 70, 127
2, 64720, Note_off_c, 1, 72, 0
2, 64880, Note_off_c, 1, 70, 0
2, 65280, Note_off_c, 1, 62, 0
2, 65280, Note_off_c, 1, 67, 0
2, 65320, Note_on_c, 1, 56, 127
2, 65320, Note_on_c, 1, 61, 127
2, 65320, Note_on_c, 1, 67, 127
2, 65320, Note_on_c, 1, 70, 127
2, 65440, Note_off_c, 1, 56, 0
2, 65440, Note_off_c, 1, 61, 0
2, 65440, Note_off_c, 1, 67, 0
2, 65440, Note_off_c, 1, 70, 0
2, 65480, Note_on_c, 1, 56, 127
2, 65480, Note_on_c, 1, 61, 127
2, 65480, Note_on_c, 1, 67, 127
2, 65480, Note_on_c, 1, 70, 127
2, 65920, Note_off_c, 1, 56, 0
2, 65920, Note_off_c, 1, 61, 0
2, 65920, Note_off_c, 1, 67, 0
2, 65920, Note_off_c, 1, 70, 0
2, 65960, Note_on_c, 1, 44, 127
2, 65960, Note_on_c, 1, 67, 127
2, 66240, Note_off_c, 1, 44, 0
2, 66280, Note_on_c, 1, 72, 127
2, 67160, Note_off_c, 1, 67, 0
2, 67200, Note_on_c, 1, 60, 127
2, 67200, Note_on_c, 1, 63, 127
2, 67520, Note_off_c, 1, 60, 0
2, 67520, Note_off_c, 1, 72, 0
2, 67560, Note_on_c, 1, 58, 127
2, 67560, Note_on_c, 1, 70, 127
2, 67840, Note_off_c, 1, 58, 0
2, 67840, Note_off_c, 1, 63, 0
2, 67840, Note_off_c, 1, 70, 0
2, 67880, Note_on_c, 1, 63, 127
2, 67920, Note_on_c, 1, 55, 127
2, 67920, Note_on_c, 1, 71, 127
2, 68240, Note_off_c, 1, 71, 0
2, 68240, Note_on_c, 1, 72, 127
2, 68560, Note_off_c, 1, 55, 0
2, 68560, Note_off_c, 1, 63, 0
2, 68560, Note_off_c, 1, 72, 0
2, 68600, Note_on_c, 1, 48, 127
2, 68600, Note_on_c, 1, 55, 127
2, 68600, Note_on_c, 1, 64, 127
2, 68600, Note_on_c, 1, 72, 127
2, 70120, Note_off_c, 1, 48, 0
2, 70120, Note_off_c, 1, 55, 0
2, 70120, Note_off_c, 1, 64, 0
2, 70120, Note_off_c, 1, 72, 0
2, 70160, Note_on_c, 1, 48, 127
2, 70160, Note_on_c, 1, 55, 127
2, 70160, Note_on_c, 1, 64, 127
2, 70160, Note_on_c, 1, 72, 127
2, 70200, Note_off_c, 1, 48, 0
2, 70200, Note_off_c, 1, 55, 0
2, 70200, Note_off_c, 1, 64, 0
2, 70200, Note_off_c, 1, 72, 0
2, 72120, Note_on_c, 1, 37, 127
2, 72120, Note_on_c, 1, 41, 127
2, 72120, Note_on_c, 1, 49, 127
2, 72920, Note_off_c, 1, 37, 0
2, 72920, Note_off_c, 1, 41, 0
2, 72920, Note_off_c, 1, 49, 0
2, 73640, Note_on_c, 1, 34, 127
2, 73640, Note_on_c, 1, 46, 127
2, 73640, Note_on_c, 1, 58, 127
2, 73880, Note_off_c, 1, 34, 0
2, 73880, Note_off_c, 1, 46, 0
2, 73880, Note_off_c, 1, 58, 0
2, 73920, Note_on_c, 1, 34, 127
2, 73920, Note_on_c, 1, 46, 127
2, 73920, Note_on_c, 1, 58, 127
2, 73960, Note_off_c, 1, 34, 0
2, 73960, Note_off_c, 1, 46, 0
2, 73960, Note_off_c, 1, 58, 0
2, 74240, Note_on_c, 1, 34, 127
2, 74240, Note_on_c, 1, 46, 127
2, 74240, Note_on_c, 1, 58, 127
2, 74400, Note_off_c, 1, 34, 0
2, 74400, Note_off_c, 1, 46, 0
2, 74400, Note_off_c, 1, 58, 0
2, 74920, Note_on_c, 1, 34, 127
2, 74920, Note_on_c, 1, 46, 127
2, 74920, Note_on_c, 1, 58, 127
2, 75120, Note_off_c, 1, 34, 0
2, 75120, Note_off_c, 1, 46, 0
2, 75120, Note_off_c, 1, 58, 0
2, 76080, Note_on_c, 1, 42, 127
2, 76080, Note_on_c, 1, 54, 127
2, 76080, Note_on_c, 1, 66, 127
2, 76120, Note_off_c, 1, 42, 0
2, 76120, Note_off_c, 1, 54, 0
2, 76120, Note_off_c, 1, 66, 0
2, 76200, Note_on_c, 1, 44, 127
2, 76200, Note_on_c, 1, 56, 127
2, 76200, Note_on_c, 1, 68, 127
2, 76240, Note_off_c, 1, 44, 0
2, 76240, Note_off_c, 1, 56, 0
2, 76240, Note_off_c, 1, 68, 0
2, 76360, Note_on_c, 1, 41, 127
2, 76360, Note_on_c, 1, 53, 127
2, 76360, Note_on_c, 1, 65, 127
2, 76400, Note_off_c, 1, 41, 0
2, 76400, Note_off_c, 1, 53, 0
2, 76400, Note_off_c, 1, 65, 0
2, 76520, Note_on_c, 1, 34, 127
2, 76520, Note_on_c, 1, 46, 127
2, 76520, Note_on_c, 1, 58, 127
2, 76800, Note_off_c, 1, 34, 0
2, 76800, Note_off_c, 1, 46, 0
2, 76800, Note_off_c, 1, 58, 0
2, 76840, Note_on_c, 1, 34, 127
2, 76840, Note_on_c, 1, 46, 127
2, 76840, Note_on_c, 1, 58, 127
2, 77040, Note_off_c, 1, 34, 0
2, 77040, Note_off_c, 1, 46, 0
2, 77040, Note_off_c, 1, 58, 0
2, 77080, Note_on_c, 1, 33, 127
2, 77080, Note_on_c, 1, 45, 127
2, 77080, Note_on_c, 1, 57, 127
2, 77120, Note_off_c, 1, 33, 0
2, 77120, Note_off_c, 1, 45, 0
2, 77120, Note_off_c, 1, 57, 0
2, 77160, Note_on_c, 1, 34, 127
2, 77160, Note_on_c, 1, 46, 127
2, 77160, Note_on_c, 1, 58, 127
2, 77320, Note_off_c, 1, 34, 0
2, 77320, Note_off_c, 1, 46, 0
2, 77320, Note_off_c, 1, 58, 0
2, 77560, Note_on_c, 1, 34, 127
2, 77560, Note_on_c, 1, 46, 127
2, 77560, Note_on_c, 1, 58, 127
2, 77800, Note_off_c, 1, 34, 0
2, 77800, Note_off_c, 1, 46, 0
2, 77800, Note_off_c, 1, 58, 0
2, 77840, Note_on_c, 1, 34, 127
2, 77840, Note_on_c, 1, 46, 127
2, 77840, Note_on_c, 1, 58, 127
2, 78040, Note_off_c, 1, 34, 0
2, 78040, Note_off_c, 1, 46, 0
2, 78040, Note_off_c, 1, 58, 0
2, 78120, Note_on_c, 1, 34, 127
2, 78120, Note_on_c, 1, 46, 127
2, 78120, Note_on_c, 1, 58, 127
2, 78160, Note_off_c, 1, 34, 0
2, 78160, Note_off_c, 1, 46, 0
2, 78160, Note_off_c, 1, 58, 0
2, 78440, Note_on_c, 1, 64, 127
2, 78440, Note_on_c, 1, 71, 127
2, 78440, Note_on_c, 1, 83, 127
2, 78440, Note_on_c, 1, 90, 127
2, 78480, Note_off_c, 1, 64, 0
2, 78480, Note_off_c, 1, 71, 0
2, 78480, Note_off_c, 1, 83, 0
2, 78480, Note_off_c, 1, 90, 0
2, 79800, Note_on_c, 1, 55, 127
2, 79800, Note_on_c, 1, 59, 127
2, 79800, Note_on_c, 1, 64, 127
2, 79840, Note_on_c, 1, 38, 127
2, 79840, Note_on_c, 1, 50, 127
2, 79840, Note_off_c, 1, 55, 0
2, 79840, Note_on_c, 1, 57, 127
2, 79840, Note_off_c, 1, 59, 0
2, 79840, Note_off_c, 1, 64, 0
2, 79840, Note_on_c, 1, 66, 127
2, 79840, Note_on_c, 1, 69, 127
2, 80240, Note_off_c, 1, 38, 0
2, 80240, Note_off_c, 1, 50, 0
2, 80240, Note_off_c, 1, 57, 0
2, 80240, Note_off_c, 1, 66, 0
2, 80240, Note_off_c, 1, 69, 0
2, 85040, Note_on_c, 1, 73, 127
2, 85040, Note_on_c, 1, 76, 127
2, 85280, Note_off_c, 1, 73, 0
2, 85280, Note_off_c, 1, 76, 0
2, 85320, Note_on_c, 1, 74, 127
2, 85320, Note_on_c, 1, 78, 127
2, 85360, Note_off_c, 1, 74, 0
2, 85360, Note_off_c, 1, 78, 0
2, 85440, Note_on_c, 1, 76, 127
2, 85440, Note_on_c, 1, 80, 127
2, 85480, Note_off_c, 1, 76, 0
2, 85480, Note_off_c, 1, 80, 0
2, 85600, Note_on_c, 1, 74, 127
2, 85600, Note_on_c, 1, 78, 127
2, 85600, Note_on_c, 1, 83, 127
2, 85640, Note_off_c, 1, 74, 0
2, 85640, Note_off_c, 1, 78, 0
2, 85640, Note_off_c, 1, 83, 0
2, 85760, Note_on_c, 1, 74, 127
2, 85760, Note_on_c, 1, 78, 127
2, 85760, Note_on_c, 1, 83, 127
2, 85800, Note_off_c, 1, 74, 0
2, 85800, Note_off_c, 1, 78, 0
2, 85800, Note_off_c, 1, 83, 0
2, 85920, Note_on_c, 1, 78, 127
2, 85920, Note_on_c, 1, 81, 127
2, 85920, Note_on_c, 1, 86, 127
2, 85960, Note_off_c, 1, 78, 0
2, 85960, Note_off_c, 1, 81, 0
2, 85960, Note_off_c, 1, 86, 0
2, 86080, Note_on_c, 1, 74, 127
2, 86080, Note_on_c, 1, 90, 127
2, 86120, Note_off_c, 1, 74, 0
2, 86120, Note_off_c, 1, 90, 0
2, 86240, Note_on_c, 1, 71, 127
2, 86240, Note_on_c, 1, 86, 127
2, 86280, Note_off_c, 1, 71, 0
2, 86280, Note_off_c, 1, 86, 0
2, 86400, Note_on_c, 1, 74, 127
2, 86400, Note_on_c, 1, 77, 127
2, 86400, Note_on_c, 1, 83, 127
2, 86440, Note_off_c, 1, 74, 0
2, 86440, Note_off_c, 1, 77, 0
2, 86440, Note_off_c, 1, 83, 0
2, 86720, Note_on_c, 1, 83, 127
2, 86720, Note_on_c, 1, 92, 127
2, 86760, Note_on_c, 1, 80, 127
2, 86760, Note_off_c, 1, 83, 0
2, 86760, Note_off_c, 1, 92, 0
2, 86840, Note_off_c, 1, 80, 0
2, 86880, Note_on_c, 1, 80, 127
2, 86880, Note_on_c, 1, 88, 127
2, 86920, Note_off_c, 1, 80, 0
2, 86920, Note_off_c, 1, 88, 0
2, 87040, Note_on_c, 1, 83, 127
2, 87040, Note_on_c, 1, 92, 127
2, 87080, Note_off_c, 1, 83, 0
2, 87080, Note_off_c, 1, 92, 0
2, 87200, Note_on_c, 1, 83, 127
2, 87200, Note_on_c, 1, 92, 127
2, 87240, Note_off_c, 1, 83, 0
2, 87240, Note_off_c, 1, 92, 0
2, 87360, Note_on_c, 1, 83, 127
2, 87360, Note_on_c, 1, 92, 127
2, 87400, Note_off_c, 1, 83, 0
2, 87400, Note_off_c, 1, 92, 0
2, 87560, Note_on_c, 1, 83, 127
2, 87560, Note_on_c, 1, 92, 127
2, 87640, Note_off_c, 1, 83, 0
2, 87640, Note_off_c, 1, 92, 0
2, 87680, Note_on_c, 1, 83, 127
2, 87680, Note_on_c, 1, 92, 127
2, 87720, Note_off_c, 1, 83, 0
2, 87720, Note_off_c, 1, 92, 0
2, 87840, Note_on_c, 1, 83, 127
2, 87840, Note_on_c, 1, 92, 127
2, 87880, Note_off_c, 1, 83, 0
2, 87880, Note_off_c, 1, 92, 0
2, 88000, Note_on_c, 1, 83, 127
2, 88000, Note_on_c, 1, 92, 127
2, 88040, Note_off_c, 1, 83, 0
2, 88040, Note_off_c, 1, 92, 0
2, 88160, Note_on_c, 1, 45, 127
2, 88160, Note_on_c, 1, 69, 127
2, 88200, Note_off_c, 1, 45, 0
2, 88200, Note_off_c, 1, 69, 0
2, 88320, Note_on_c, 1, 64, 127
2, 88320, Note_on_c, 1, 68, 127
2, 88360, Note_off_c, 1, 64, 0
2, 88360, Note_off_c, 1, 68, 0
2, 88480, Note_on_c, 1, 63, 127
2, 88480, Note_on_c, 1, 64, 127
2, 88480, Note_on_c, 1, 68, 127
2, 88480, Note_on_c, 1, 71, 127
2, 88480, Note_on_c, 1, 75, 127
2, 88520, Note_off_c, 1, 63, 0
2, 88520, Note_off_c, 1, 64, 0
2, 88520, Note_off_c, 1, 68, 0
2, 88520, Note_off_c, 1, 71, 0
2, 88520, Note_off_c, 1, 75, 0
2, 88640, Note_on_c, 1, 63, 127
2, 88640, Note_on_c, 1, 64, 127
2, 88640, Note_on_c, 1, 71, 127
2, 88680, Note_off_c, 1, 63, 0
2, 88680, Note_off_c, 1, 64, 0
2, 88680, Note_off_c, 1, 71, 0
2, 88800, Note_on_c, 1, 59, 127
2, 88800, Note_on_c, 1, 68, 127
2, 88840, Note_off_c, 1, 59, 0
2, 88840, Note_off_c, 1, 68, 0
2, 88960, Note_on_c, 1, 68, 127
2, 88960, Note_on_c, 1, 71, 127
2, 88960, Note_on_c, 1, 74, 127
2, 89000, Note_off_c, 1, 68, 0
2, 89000, Note_off_c, 1, 71, 0
2, 89000, Note_off_c, 1, 74, 0
2, 89120, Note_on_c, 1, 66, 127
2, 89120, Note_on_c, 1, 69, 127
2, 89120, Note_on_c, 1, 78, 127
2, 89120, Note_on_c, 1, 81, 127
2, 89160, Note_off_c, 1, 66, 0
2, 89160, Note_off_c, 1, 69, 0
2, 89160, Note_off_c, 1, 78, 0
2, 89160, Note_off_c, 1, 81, 0
2, 89280, Note_on_c, 1, 61, 127
2, 89280, Note_on_c, 1, 64, 127
2, 89280, Note_on_c, 1, 69, 127
2, 89280, Note_on_c, 1, 81, 127
2, 89320, Note_off_c, 1, 61, 0
2, 89320, Note_off_c, 1, 64, 0
2, 89320, Note_off_c, 1, 69, 0
2, 89320, Note_off_c, 1, 81, 0
2, 89440, Note_on_c, 1, 61, 127
2, 89440, Note_on_c, 1, 64, 127
2, 89440, Note_on_c, 1, 69, 127
2, 89440, Note_on_c, 1, 81, 127
2, 89480, Note_off_c, 1, 61, 0
2, 89480, Note_off_c, 1, 64, 0
2, 89480, Note_off_c, 1, 69, 0
2, 89480, Note_off_c, 1, 81, 0
2, 89640, Note_on_c, 1, 61, 127
2, 89640, Note_on_c, 1, 64, 127
2, 89640, Note_on_c, 1, 69, 127
2, 89640, Note_on_c, 1, 81, 127
2, 89680, Note_off_c, 1, 61, 0
2, 89680, Note_off_c, 1, 64, 0
2, 89680, Note_off_c, 1, 69, 0
2, 89680, Note_off_c, 1, 81, 0
2, 89760, Note_on_c, 1, 61, 127
2, 89760, Note_on_c, 1, 64, 127
2, 89760, Note_on_c, 1, 69, 127
2, 89760, Note_on_c, 1, 81, 127
2, 89800, Note_off_c, 1, 61, 0
2, 89800, Note_off_c, 1, 64, 0
2, 89800, Note_off_c, 1, 69, 0
2, 89800, Note_off_c, 1, 81, 0
2, 89920, Note_on_c, 1, 60, 127
2, 89920, Note_on_c, 1, 63, 127
2, 89920, Note_on_c, 1, 68, 127
2, 89920, Note_on_c, 1, 80, 127
2, 89960, Note_off_c, 1, 60, 0
2, 89960, Note_off_c, 1, 63, 0
2, 89960, Note_off_c, 1, 68, 0
2, 89960, Note_off_c, 1, 80, 0
2, 90080, Note_on_c, 1, 61, 127
2, 90080, Note_on_c, 1, 64, 127
2, 90080, Note_on_c, 1, 69, 127
2, 90080, Note_on_c, 1, 81, 127
2, 90200, Note_off_c, 1, 61, 0
2, 90200, Note_off_c, 1, 64, 0
2, 90200, Note_off_c, 1, 69, 0
2, 90200, Note_off_c, 1, 81, 0
2, 90240, Note_on_c, 1, 60, 127
2, 90240, Note_on_c, 1, 63, 127
2, 90240, Note_on_c, 1, 68, 127
2, 90240, Note_on_c, 1, 80, 127
2, 90360, Note_off_c, 1, 60, 0
2, 90360, Note_off_c, 1, 63, 0
2, 90360, Note_off_c, 1, 68, 0
2, 90360, Note_off_c, 1, 80, 0
2, 90400, Note_on_c, 1, 58, 127
2, 90400, Note_on_c, 1, 60, 127
2, 90400, Note_on_c, 1, 64, 127
2, 90400, Note_on_c, 1, 69, 127
2, 90400, Note_on_c, 1, 81, 127
2, 90520, Note_off_c, 1, 58, 0
2, 90520, Note_off_c, 1, 60, 0
2, 90520, Note_off_c, 1, 64, 0
2, 90520, Note_off_c, 1, 69, 0
2, 90520, Note_off_c, 1, 81, 0
2, 90560, Note_on_c, 1, 57, 127
2, 90560, Note_on_c, 1, 60, 127
2, 90560, Note_on_c, 1, 65, 127
2, 90560, Note_on_c, 1, 77, 127
2, 90680, Note_off_c, 1, 57, 0
2, 90680, Note_off_c, 1, 60, 0
2, 90680, Note_off_c, 1, 65, 0
2, 90680, Note_off_c, 1, 77, 0
2, 90720, Note_on_c, 1, 56, 127
2, 90720, Note_on_c, 1, 59, 127
2, 90720, Note_on_c, 1, 64, 127
2, 90720, Note_on_c, 1, 76, 127
2, 90840, Note_off_c, 1, 56, 0
2, 90840, Note_off_c, 1, 59, 0
2, 90840, Note_off_c, 1, 64, 0
2, 90840, Note_off_c, 1, 76, 0
2, 90880, Note_on_c, 1, 56, 127
2, 90880, Note_on_c, 1, 64, 127
2, 90880, Note_on_c, 1, 68, 127
2, 90880, Note_on_c, 1, 76, 127
2, 91000, Note_off_c, 1, 56, 0
2, 91000, Note_off_c, 1, 64, 0
2, 91000, Note_off_c, 1, 68, 0
2, 91000, Note_off_c, 1, 76, 0
2, 91040, Note_on_c, 1, 56, 127
2, 91040, Note_on_c, 1, 64, 127
2, 91040, Note_on_c, 1, 68, 127
2, 91040, Note_on_c, 1, 76, 127
2, 91160, Note_off_c, 1, 56, 0
2, 91160, Note_off_c, 1, 64, 0
2, 91160, Note_off_c, 1, 68, 0
2, 91160, Note_off_c, 1, 76, 0
2, 91200, Note_on_c, 1, 56, 127
2, 91200, Note_on_c, 1, 64, 127
2, 91200, Note_on_c, 1, 68, 127
2, 91200, Note_on_c, 1, 76, 127
2, 91320, Note_off_c, 1, 56, 0
2, 91320, Note_off_c, 1, 64, 0
2, 91320, Note_off_c, 1, 68, 0
2, 91320, Note_off_c, 1, 76, 0
2, 91360, Note_on_c, 1, 48, 127
2, 91360, Note_on_c, 1, 56, 127
2, 91360, Note_on_c, 1, 60, 127
2, 91360, Note_on_c, 1, 63, 127
2, 91360, Note_on_c, 1, 68, 127
2, 91360, Note_on_c, 1, 75, 127
2, 91480, Note_off_c, 1, 48, 0
2, 91480, Note_off_c, 1, 56, 0
2, 91480, Note_off_c, 1, 60, 0
2, 91480, Note_off_c, 1, 63, 0
2, 91480, Note_off_c, 1, 68, 0
2, 91480, Note_off_c, 1, 75, 0
2, 91520, Note_on_c, 1, 48, 127
2, 91520, Note_on_c, 1, 56, 127
2, 91520, Note_on_c, 1, 60, 127
2, 91520, Note_on_c, 1, 63, 127
2, 91520, Note_on_c, 1, 68, 127
2, 91520, Note_on_c, 1, 75, 127
2, 91640, Note_off_c, 1, 48, 0
2, 91640, Note_off_c, 1, 56, 0
2, 91640, Note_off_c, 1, 60, 0
2, 91640, Note_off_c, 1, 63, 0
2, 91640, Note_off_c, 1, 68, 0
2, 91640, Note_off_c, 1, 75, 0
2, 91720, Note_on_c, 1, 52, 127
2, 91720, Note_on_c, 1, 68, 127
2, 91720, Note_on_c, 1, 75, 127
2, 91840, Note_off_c, 1, 52, 0
2, 91840, Note_off_c, 1, 68, 0
2, 91840, Note_off_c, 1, 75, 0
2, 91880, Note_on_c, 1, 52, 127
2, 91880, Note_on_c, 1, 59, 127
2, 91880, Note_on_c, 1, 68, 127
2, 92000, Note_off_c, 1, 52, 0
2, 92000, Note_off_c, 1, 59, 0
2, 92000, Note_off_c, 1, 68, 0
2, 92040, Note_on_c, 1, 52, 127
2, 92040, Note_on_c, 1, 61, 127
2, 92040, Note_on_c, 1, 68, 127
2, 92040, Note_on_c, 1, 73, 127
2, 92160, Note_off_c, 1, 52, 0
2, 92160, Note_off_c, 1, 61, 0
2, 92160, Note_off_c, 1, 68, 0
2, 92160, Note_off_c, 1, 73, 0
2, 92200, Note_on_c, 1, 45, 127
2, 92200, Note_on_c, 1, 52, 127
2, 92200, Note_on_c, 1, 83, 127
2, 92200, Note_on_c, 1, 91, 127
2, 92200, Note_on_c, 1, 95, 127
2, 92320, Note_off_c, 1, 45, 0
2, 92320, Note_off_c, 1, 52, 0
2, 92320, Note_off_c, 1, 83, 0
2, 92320, Note_off_c, 1, 91, 0
2, 92320, Note_off_c, 1, 95, 0
2, 92360, Note_on_c, 1, 69, 127
2, 92360, Note_on_c, 1, 75, 127
2, 92360, Note_on_c, 1, 78, 127
2, 92360, Note_on_c, 1, 87, 127
2, 92360, Note_on_c, 1, 90, 127
2, 92400, Note_on_c, 1, 61, 127
2, 92400, Note_on_c, 1, 68, 127
2, 92400, Note_off_c, 1, 69, 0
2, 92400, Note_on_c, 1, 73, 127
2, 92400, Note_off_c, 1, 75, 0
2, 92400, Note_on_c, 1, 77, 127
2, 92400, Note_off_c, 1, 78, 0
2, 92400, Note_on_c, 1, 80, 127
2, 92400, Note_on_c, 1, 85, 127
2, 92400, Note_off_c, 1, 87, 0
2, 92400, Note_on_c, 1, 89, 127
2, 92400, Note_off_c, 1, 90, 0
2, 92440, Note_off_c, 1, 61, 0
2, 92440, Note_off_c, 1, 68, 0
2, 92440, Note_on_c, 1, 69, 127
2, 92440, Note_off_c, 1, 73, 0
2, 92440, Note_on_c, 1, 75, 127
2, 92440, Note_off_c, 1, 77, 0
2, 92440, Note_on_c, 1, 78, 127
2, 92440, Note_off_c, 1, 80, 0
2, 92440, Note_off_c, 1, 85, 0
2, 92440, Note_on_c, 1, 87, 127
2, 92440, Note_off_c, 1, 89, 0
2, 92440, Note_on_c, 1, 90, 127
2, 92480, Note_off_c, 1, 69, 0
2, 92480, Note_off_c, 1, 75, 0
2, 92480, Note_off_c, 1, 78, 0
2, 92480, Note_off_c, 1, 87, 0
2, 92480, Note_off_c, 1, 90, 0
2, 92520, Note_on_c, 1, 64, 127
2, 92520, Note_on_c, 1, 72, 127
2, 92520, Note_on_c, 1, 76, 127
2, 92520, Note_on_c, 1, 84, 127
2, 92640, Note_off_c, 1, 64, 0
2, 92640, Note_off_c, 1, 72, 0
2, 92640, Note_off_c, 1, 76, 0
2, 92640, Note_off_c, 1, 84, 0
2, 92680, Note_on_c, 1, 64, 127
2, 92680, Note_on_c, 1, 72, 127
2, 92680, Note_on_c, 1, 76, 127
2, 92680, Note_on_c, 1, 84, 127
2, 92800, Note_off_c, 1, 64, 0
2, 92800, Note_off_c, 1, 72, 0
2, 92800, Note_off_c, 1, 76, 0
2, 92800, Note_off_c, 1, 84, 0
2, 92840, Note_on_c, 1, 62, 127
2, 92840, Note_on_c, 1, 70, 127
2, 92840, Note_on_c, 1, 74, 127
2, 92840, Note_on_c, 1, 82, 127
2, 92920, Note_off_c, 1, 62, 0
2, 92920, Note_off_c, 1, 70, 0
2, 92920, Note_off_c, 1, 74, 0
2, 92920, Note_off_c, 1, 82, 0
2, 92960, Note_on_c, 1, 60, 127
2, 92960, Note_on_c, 1, 69, 127
2, 92960, Note_on_c, 1, 72, 127
2, 92960, Note_on_c, 1, 81, 127
2, 93080, Note_off_c, 1, 60, 0
2, 93080, Note_off_c, 1, 69, 0
2, 93080, Note_off_c, 1, 72, 0
2, 93080, Note_off_c, 1, 81, 0
2, 93120, Note_on_c, 1, 59, 127
2, 93120, Note_on_c, 1, 67, 127
2, 93120, Note_on_c, 1, 71, 127
2, 93120, Note_on_c, 1, 79, 127
2, 93240, Note_off_c, 1, 59, 0
2, 93240, Note_off_c, 1, 67, 0
2, 93240, Note_off_c, 1, 71, 0
2, 93240, Note_off_c, 1, 79, 0
2, 93280, Note_on_c, 1, 58, 127
2, 93280, Note_on_c, 1, 61, 127
2, 93280, Note_on_c, 1, 70, 127
2, 93280, Note_on_c, 1, 73, 127
2, 93400, Note_off_c, 1, 58, 0
2, 93400, Note_off_c, 1, 61, 0
2, 93400, Note_off_c, 1, 70, 0
2, 93400, Note_off_c, 1, 73, 0
2, 93440, Note_on_c, 1, 54, 127
2, 93440, Note_on_c, 1, 57, 127
2, 93440, Note_on_c, 1, 66, 127
2, 93440, Note_on_c, 1, 69, 127
2, 93560, Note_off_c, 1, 54, 0
2, 93560, Note_off_c, 1, 57, 0
2, 93560, Note_off_c, 1, 66, 0
2, 93560, Note_off_c, 1, 69, 0
2, 93600, Note_on_c, 1, 54, 127
2, 93600, Note_on_c, 1, 58, 127
2, 93600, Note_on_c, 1, 66, 127
2, 93600, Note_on_c, 1, 70, 127
2, 93720, Note_off_c, 1, 54, 0
2, 93720, Note_off_c, 1, 58, 0
2, 93720, Note_off_c, 1, 66, 0
2, 93720, Note_off_c, 1, 70, 0
2, 93760, Note_on_c, 1, 51, 127
2, 93760, Note_on_c, 1, 54, 127
2, 93760, Note_on_c, 1, 63, 127
2, 93760, Note_on_c, 1, 66, 127
2, 93840, Note_off_c, 1, 51, 0
2, 93840, Note_off_c, 1, 54, 0
2, 93840, Note_off_c, 1, 63, 0
2, 93840, Note_off_c, 1, 66, 0
2, 93880, Note_on_c, 1, 51, 127
2, 93880, Note_on_c, 1, 54, 127
2, 93880, Note_on_c, 1, 63, 127
2, 93880, Note_on_c, 1, 66, 127
2, 93920, Note_off_c, 1, 51, 0
2, 93920, Note_off_c, 1, 54, 0
2, 93920, Note_off_c, 1, 63, 0
2, 93920, Note_off_c, 1, 66, 0
2, 93960, Note_on_c, 1, 47, 127
2, 93960, Note_on_c, 1, 51, 127
2, 93960, Note_on_c, 1, 59, 127
2, 93960, Note_on_c, 1, 63, 127
2, 94080, Note_off_c, 1, 47, 0
2, 94080, Note_off_c, 1, 51, 0
2, 94080, Note_off_c, 1, 59, 0
2, 94080, Note_off_c, 1, 63, 0
2, 94120, Note_on_c, 1, 56, 127
2, 94120, Note_on_c, 1, 59, 127
2, 94120, Note_on_c, 1, 68, 127
2, 94120, Note_on_c, 1, 71, 127
2, 94240, Note_off_c, 1, 56, 0
2, 94240, Note_off_c, 1, 59, 0
2, 94240, Note_off_c, 1, 68, 0
2, 94240, Note_off_c, 1, 71, 0
2, 94280, Note_on_c, 1, 63, 127
2, 94280, Note_on_c, 1, 69, 127
2, 94280, Note_on_c, 1, 73, 127
2, 94280, Note_on_c, 1, 76, 127
2, 94280, Note_on_c, 1, 80, 127
2, 94560, Note_off_c, 1, 63, 0
2, 94560, Note_off_c, 1, 69, 0
2, 94560, Note_off_c, 1, 73, 0
2, 94560, Note_off_c, 1, 76, 0
2, 94560, Note_off_c, 1, 80, 0
2, 94600, Note_on_c, 1, 32, 127
2, 94760, Note_off_c, 1, 32, 0
2, 94760, Note_on_c, 1, 42, 127
2, 94760, Note_on_c, 1, 78, 127
2, 94760, Note_on_c, 1, 82, 127
2, 94760, Note_on_c, 1, 90, 127
2, 94880, Note_off_c, 1, 42, 0
2, 94880, Note_off_c, 1, 78, 0
2, 94880, Note_off_c, 1, 82, 0
2, 94880, Note_off_c, 1, 90, 0
2, 94920, Note_on_c, 1, 42, 127
2, 94920, Note_on_c, 1, 78, 127
2, 94920, Note_on_c, 1, 82, 127
2, 94920, Note_on_c, 1, 90, 127
2, 95000, Note_off_c, 1, 42, 0
2, 95000, Note_off_c, 1, 78, 0
2, 95000, Note_off_c, 1, 82, 0
2, 95000, Note_off_c, 1, 90, 0
2, 95080, Note_on_c, 1, 42, 127
2, 95080, Note_on_c, 1, 78, 127
2, 95080, Note_on_c, 1, 82, 127
2, 95080, Note_on_c, 1, 90, 127
2, 95200, Note_off_c, 1, 42, 0
2, 95200, Note_off_c, 1, 78, 0
2, 95200, Note_off_c, 1, 82, 0
2, 95200, Note_off_c, 1, 90, 0
2, 95240, Note_on_c, 1, 42, 127
2, 95240, Note_on_c, 1, 78, 127
2, 95240, Note_on_c, 1, 82, 127
2, 95240, Note_on_c, 1, 90, 127
2, 95360, Note_off_c, 1, 42, 0
2, 95360, Note_off_c, 1, 78, 0
2, 95360, Note_off_c, 1, 82, 0
2, 95360, Note_off_c, 1, 90, 0
2, 95400, Note_on_c, 1, 42, 127
2, 95400, Note_on_c, 1, 78, 127
2, 95400, Note_on_c, 1, 82, 127
2, 95400, Note_on_c, 1, 90, 127
2, 95520, Note_off_c, 1, 42, 0
2, 95520, Note_off_c, 1, 78, 0
2, 95520, Note_off_c, 1, 82, 0
2, 95520, Note_off_c, 1, 90, 0
2, 95560, Note_on_c, 1, 42, 127
2, 95560, Note_on_c, 1, 54, 127
2, 95560, Note_on_c, 1, 78, 127
2, 95560, Note_on_c, 1, 82, 127
2, 95560, Note_on_c, 1, 85, 127
2, 95560, Note_on_c, 1, 90, 127
2, 95720, Note_off_c, 1, 42, 0
2, 95720, Note_off_c, 1, 54, 0
2, 95720, Note_off_c, 1, 78, 0
2, 95720, Note_off_c, 1, 82, 0
2, 95720, Note_off_c, 1, 85, 0
2, 95720, Note_off_c, 1, 90, 0
2, 96080, Note_on_c, 1, 44, 127
2, 96080, Note_on_c, 1, 56, 127
2, 96080, Note_on_c, 1, 61, 127
2, 96080, Note_on_c, 1, 64, 127
2, 96200, Note_off_c, 1, 44, 0
2, 96200, Note_off_c, 1, 56, 0
2, 96200, Note_off_c, 1, 61, 0
2, 96200, Note_off_c, 1, 64, 0
2, 96240, Note_on_c, 1, 47, 127
2, 96240, Note_on_c, 1, 52, 127
2, 96240, Note_on_c, 1, 56, 127
2, 96240, Note_on_c, 1, 59, 127
2, 96320, Note_off_c, 1, 47, 0
2, 96320, Note_off_c, 1, 52, 0
2, 96320, Note_off_c, 1, 56, 0
2, 96320, Note_off_c, 1, 59, 0
2, 96400, Note_on_c, 1, 47, 127
2, 96400, Note_on_c, 1, 51, 127
2, 96400, Note_on_c, 1, 59, 127
2, 96400, Note_on_c, 1, 63, 127
2, 96520, Note_off_c, 1, 47, 0
2, 96520, Note_off_c, 1, 51, 0
2, 96520, Note_off_c, 1, 59, 0
2, 96520, Note_off_c, 1, 63, 0
2, 98720, Note_on_c, 1, 45, 127
2, 98720, Note_on_c, 1, 47, 127
2, 98720, Note_on_c, 1, 51, 127
2, 98720, Note_on_c, 1, 54, 127
2, 98720, Note_on_c, 1, 59, 127
2, 99000, Note_off_c, 1, 45, 0
2, 99000, Note_off_c, 1, 47, 0
2, 99000, Note_off_c, 1, 51, 0
2, 99000, Note_off_c, 1, 54, 0
2, 99000, Note_off_c, 1, 59, 0
2, 99040, Note_on_c, 1, 42, 127
2, 99040, Note_on_c, 1, 47, 127
2, 99040, Note_on_c, 1, 51, 127
2, 99040, Note_on_c, 1, 57, 127
2, 99040, Note_on_c, 1, 59, 127
2, 99320, Note_off_c, 1, 42, 0
2, 99320, Note_off_c, 1, 47, 0
2, 99320, Note_off_c, 1, 51, 0
2, 99320, Note_off_c, 1, 57, 0
2, 99320, Note_off_c, 1, 59, 0
2, 99360, Note_on_c, 1, 42, 127
2, 99360, Note_on_c, 1, 47, 127
2, 99360, Note_on_c, 1, 51, 127
2, 99360, Note_on_c, 1, 57, 127
2, 99360, Note_on_c, 1, 59, 127
2, 99640, Note_off_c, 1, 42, 0
2, 99640, Note_off_c, 1, 47, 0
2, 99640, Note_off_c, 1, 51, 0
2, 99640, Note_off_c, 1, 57, 0
2, 99640, Note_off_c, 1, 59, 0
2, 99680, Note_on_c, 1, 42, 127
2, 99680, Note_on_c, 1, 47, 127
2, 99680, Note_on_c, 1, 51, 127
2, 99680, Note_on_c, 1, 57, 127
2, 99680, Note_on_c, 1, 59, 127
2, 99960, Note_off_c, 1, 42, 0
2, 99960, Note_off_c, 1, 47, 0
2, 99960, Note_off_c, 1, 51, 0
2, 99960, Note_off_c, 1, 57, 0
2, 99960, Note_off_c, 1, 59, 0
2, 100000, Note_on_c, 1, 42, 127
2, 100000, Note_on_c, 1, 47, 127
2, 100000, Note_on_c, 1, 51, 127
2, 100000, Note_on_c, 1, 57, 127
2, 100000, Note_on_c, 1, 59, 127
2, 100280, Note_off_c, 1, 42, 0
2, 100280, Note_off_c, 1, 47, 0
2, 100280, Note_off_c, 1, 51, 0
2, 100280, Note_off_c, 1, 57, 0
2, 100280, Note_off_c, 1, 59, 0
2, 100320, Note_on_c, 1, 39, 127
2, 100320, Note_on_c, 1, 51, 127
2, 100320, Note_on_c, 1, 55, 127
2, 100320, Note_on_c, 1, 58, 127
2, 100320, Note_on_c, 1, 63, 127
2, 100600, Note_off_c, 1, 39, 0
2, 100600, Note_off_c, 1, 51, 0
2, 100600, Note_off_c, 1, 55, 0
2, 100600, Note_off_c, 1, 58, 0
2, 100600, Note_off_c, 1, 63, 0
2, 101000, Note_on_c, 1, 56, 127
2, 101000, Note_on_c, 1, 71, 127
2, 101000, Note_on_c, 1, 75, 127
2, 101000, Note_on_c, 1, 80, 127
2, 101160, Note_off_c, 1, 56, 0
2, 101160, Note_off_c, 1, 71, 0
2, 101160, Note_off_c, 1, 75, 0
2, 101160, Note_off_c, 1, 80, 0
2, 101360, Note_on_c, 1, 40, 127
2, 101360, Note_on_c, 1, 52, 127
2, 101360, Note_on_c, 1, 73, 127
2, 101360, Note_on_c, 1, 80, 127
2, 101360, Note_on_c, 1, 85, 127
2, 101400, Note_off_c, 1, 40, 0
2, 101400, Note_off_c, 1, 52, 0
2, 101400, Note_off_c, 1, 73, 0
2, 101400, Note_off_c, 1, 80, 0
2, 101400, Note_off_c, 1, 85, 0
2, 101680, Note_on_c, 1, 39, 127
2, 101680, Note_on_c, 1, 46, 127
2, 101680, Note_on_c, 1, 55, 127
2, 101680, Note_on_c, 1, 67, 127
2, 101680, Note_on_c, 1, 70, 127
2, 101680, Note_on_c, 1, 79, 127
2, 102120, Note_off_c, 1, 39, 0
2, 102120, Note_off_c, 1, 46, 0
2, 102120, Note_off_c, 1, 55, 0
2, 102120, Note_off_c, 1, 67, 0
2, 102120, Note_off_c, 1, 70, 0
2, 102120, Note_off_c, 1, 79, 0
2, 102320, Note_on_c, 1, 39, 127
2, 102320, Note_on_c, 1, 43, 127
2, 102320, Note_on_c, 1, 46, 127
2, 102320, Note_on_c, 1, 51, 127
2, 102320, Note_on_c, 1, 55, 127
2, 102320, Note_on_c, 1, 58, 127
2, 102320, Note_on_c, 1, 63, 127
2, 102640, Note_off_c, 1, 39, 0
2, 102640, Note_off_c, 1, 43, 0
2, 102640, Note_off_c, 1, 46, 0
2, 102640, Note_off_c, 1, 51, 0
2, 102640, Note_off_c, 1, 55, 0
2, 102640, Note_off_c, 1, 58, 0
2, 102640, Note_off_c, 1, 63, 0
2, 104040, Note_on_c, 1, 68, 127
2, 104600, Note_off_c, 1, 68, 0
2, 104640, Note_on_c, 1, 70, 127
2, 104920, Note_off_c, 1, 70, 0
2, 104960, Note_on_c, 1, 68, 127
2, 105240, Note_off_c, 1, 68, 0
2, 105280, Note_on_c, 1, 70, 127
2, 105560, Note_off_c, 1, 70, 0
2, 105600, Note_on_c, 1, 54, 127
2, 105600, Note_on_c, 1, 70, 127
2, 105720, Note_off_c, 1, 54, 0
2, 105880, Note_off_c, 1, 70, 0
2, 105920, Note_on_c, 1, 71, 127
2, 106200, Note_off_c, 1, 71, 0
2, 106240, Note_on_c, 1, 75, 127
2, 106360, Note_off_c, 1, 75, 0
2, 106400, Note_on_c, 1, 77, 127
2, 106520, Note_off_c, 1, 77, 0
2, 106560, Note_on_c, 1, 78, 127
2, 106680, Note_off_c, 1, 78, 0
2, 106720, Note_on_c, 1, 77, 127
2, 106760, Note_off_c, 1, 77, 0
2, 106800, Note_on_c, 1, 77, 127
2, 106880, Note_off_c, 1, 77, 0
2, 106920, Note_on_c, 1, 78, 127
2, 107040, Note_off_c, 1, 78, 0
2, 107080, Note_on_c, 1, 79, 127
2, 107200, Note_off_c, 1, 79, 0
2, 107240, Note_on_c, 1, 80, 127
2, 107360, Note_off_c, 1, 80, 0
2, 107400, Note_on_c, 1, 79, 127
2, 107520, Note_off_c, 1, 79, 0
2, 107560, Note_on_c, 1, 85, 127
2, 107680, Note_off_c, 1, 85, 0
2, 107720, Note_on_c, 1, 84, 127
2, 107840, Note_off_c, 1, 84, 0
2, 107880, Note_on_c, 1, 85, 127
2, 108000, Note_off_c, 1, 85, 0
2, 108040, Note_on_c, 1, 85, 127
2, 108160, Note_off_c, 1, 85, 0
2, 108200, Note_on_c, 1, 53, 127
2, 108200, Note_on_c, 1, 80, 127
2, 108320, Note_off_c, 1, 53, 0
2, 108320, Note_off_c, 1, 80, 0
2, 108360, Note_on_c, 1, 65, 127
2, 108360, Note_on_c, 1, 80, 127
2, 108480, Note_off_c, 1, 65, 0
2, 108480, Note_off_c, 1, 80, 0
2, 108520, Note_on_c, 1, 68, 127
2, 108520, Note_on_c, 1, 78, 127
2, 108640, Note_off_c, 1, 68, 0
2, 108640, Note_off_c, 1, 78, 0
2, 108680, Note_on_c, 1, 75, 127
2, 108680, Note_on_c, 1, 78, 127
2, 108800, Note_off_c, 1, 75, 0
2, 108800, Note_off_c, 1, 78, 0
2, 108840, Note_on_c, 1, 73, 127
2, 108840, Note_on_c, 1, 77, 127
2, 108960, Note_off_c, 1, 73, 0
2, 108960, Note_off_c, 1, 77, 0
2, 109040, Note_on_c, 1, 70, 127
2, 109200, Note_on_c, 1, 49, 127
2, 109320, Note_off_c, 1, 49, 0
2, 109360, Note_on_c, 1, 53, 127
2, 109480, Note_off_c, 1, 53, 0
2, 109480, Note_off_c, 1, 70, 0
2, 109520, Note_on_c, 1, 65, 127
2, 109520, Note_on_c, 1, 68, 127
2, 109640, Note_off_c, 1, 65, 0
2, 109640, Note_off_c, 1, 68, 0
2, 109840, Note_on_c, 1, 77, 127
2, 109840, Note_on_c, 1, 80, 127
2, 110080, Note_off_c, 1, 77, 0
2, 110080, Note_off_c, 1, 80, 0
2, 110320, Note_on_c, 1, 47, 127
2, 110320, Note_on_c, 1, 87, 127
2, 110440, Note_off_c, 1, 47, 0
2, 110440, Note_off_c, 1, 87, 0
2, 110480, Note_on_c, 1, 54, 127
2, 110480, Note_on_c, 1, 82, 127
2, 110600, Note_off_c, 1, 54, 0
2, 110600, Note_off_c, 1, 82, 0
2, 110640, Note_on_c, 1, 56, 127
2, 110640, Note_on_c, 1, 80, 127
2, 110760, Note_off_c, 1, 56, 0
2, 110760, Note_off_c, 1, 80, 0
2, 110960, Note_on_c, 1, 56, 127
2, 110960, Note_on_c, 1, 80, 127
2, 111040, Note_off_c, 1, 56, 0
2, 111040, Note_off_c, 1, 80, 0
2, 111080, Note_on_c, 1, 56, 127
2, 111080, Note_on_c, 1, 80, 127
2, 111120, Note_off_c, 1, 56, 0
2, 111120, Note_off_c, 1, 80, 0
2, 111320, Note_on_c, 1, 65, 127
2, 111320, Note_on_c, 1, 80, 127
2, 111440, Note_off_c, 1, 65, 0
2, 111440, Note_off_c, 1, 80, 0
2, 111480, Note_on_c, 1, 63, 127
2, 111480, Note_on_c, 1, 78, 127
2, 111520, Note_off_c, 1, 63, 0
2, 111520, Note_off_c, 1, 78, 0
2, 111640, Note_on_c, 1, 61, 127
2, 111640, Note_on_c, 1, 77, 127
2, 111760, Note_off_c, 1, 61, 0
2, 111760, Note_off_c, 1, 77, 0
2, 111800, Note_on_c, 1, 63, 127
2, 111800, Note_on_c, 1, 78, 127
2, 111920, Note_off_c, 1, 63, 0
2, 111920, Note_off_c, 1, 78, 0
2, 111960, Note_on_c, 1, 61, 127
2, 112280, Note_on_c, 1, 72, 127
2, 112400, Note_off_c, 1, 72, 0
2, 112440, Note_on_c, 1, 78, 127
2, 112560, Note_off_c, 1, 78, 0
2, 112600, Note_on_c, 1, 77, 127
2, 112720, Note_off_c, 1, 77, 0
2, 112760, Note_on_c, 1, 85, 127
2, 112840, Note_off_c, 1, 85, 0
2, 112920, Note_on_c, 1, 85, 127
2, 113040, Note_off_c, 1, 85, 0
2, 113080, Note_off_c, 1, 61, 0
2, 113120, Note_on_c, 1, 61, 127
2, 113120, Note_on_c, 1, 85, 127
2, 113200, Note_off_c, 1, 85, 0
2, 113280, Note_on_c, 1, 82, 127
2, 113360, Note_on_c, 1, 80, 127
2, 113360, Note_off_c, 1, 82, 0
2, 113400, Note_off_c, 1, 80, 0
2, 113600, Note_on_c, 1, 85, 127
2, 113720, Note_off_c, 1, 85, 0
2, 113760, Note_on_c, 1, 84, 127
2, 113880, Note_off_c, 1, 84, 0
2, 113920, Note_on_c, 1, 82, 127
2, 114040, Note_off_c, 1, 82, 0
2, 114080, Note_on_c, 1, 84, 127
2, 114200, Note_off_c, 1, 61, 0
2, 114200, Note_off_c, 1, 84, 0
2, 114240, Note_on_c, 1, 61, 127
2, 114240, Note_on_c, 1, 82, 127
2, 114360, Note_off_c, 1, 82, 0
2, 114400, Note_on_c, 1, 84, 127
2, 114520, Note_off_c, 1, 61, 0
2, 114520, Note_off_c, 1, 84, 0
2, 114560, Note_on_c, 1, 61, 127
2, 114560, Note_on_c, 1, 84, 127
2, 114680, Note_off_c, 1, 84, 0
2, 114720, Note_on_c, 1, 85, 127
2, 114840, Note_off_c, 1, 85, 0
2, 114880, Note_on_c, 1, 84, 127
2, 115000, Note_off_c, 1, 84, 0
2, 115040, Note_on_c, 1, 85, 127
2, 115160, Note_off_c, 1, 61, 0
2, 115160, Note_off_c, 1, 85, 0
2, 115240, Note_on_c, 1, 54, 127
2, 115240, Note_on_c, 1, 87, 127
2, 115320, Note_off_c, 1, 87, 0
2, 115360, Note_on_c, 1, 85, 127
2, 115480, Note_off_c, 1, 54, 0
2, 115480, Note_off_c, 1, 85, 0
2, 115520, Note_on_c, 1, 66, 127
2, 115520, Note_on_c, 1, 84, 127
2, 115640, Note_off_c, 1, 84, 0
2, 115680, Note_on_c, 1, 85, 127
2, 115720, Note_off_c, 1, 85, 0
2, 115800, Note_off_c, 1, 66, 0
2, 115840, Note_on_c, 1, 65, 127
2, 115840, Note_on_c, 1, 85, 127
2, 115960, Note_off_c, 1, 85, 0
2, 116000, Note_on_c, 1, 84, 127
2, 116120, Note_off_c, 1, 65, 0
2, 116120, Note_off_c, 1, 84, 0
2, 116160, Note_on_c, 1, 61, 127
2, 116160, Note_on_c, 1, 84, 127
2, 116280, Note_off_c, 1, 84, 0
2, 116320, Note_on_c, 1, 85, 127
2, 116400, Note_off_c, 1, 85, 0
2, 116440, Note_off_c, 1, 61, 0
2, 116440, Note_on_c, 1, 63, 127
2, 116480, Note_on_c, 1, 84, 127
2, 116600, Note_off_c, 1, 84, 0
2, 116640, Note_on_c, 1, 85, 127
2, 116760, Note_off_c, 1, 85, 0
2, 116800, Note_on_c, 1, 84, 127
2, 116920, Note_off_c, 1, 84, 0
2, 116960, Note_on_c, 1, 84, 127
2, 117000, Note_off_c, 1, 84, 0
2, 117080, Note_off_c, 1, 63, 0
2, 117120, Note_on_c, 1, 89, 127
2, 117320, Note_off_c, 1, 89, 0
2, 117360, Note_on_c, 1, 89, 127
2, 117480, Note_on_c, 1, 49, 127
2, 117600, Note_off_c, 1, 89, 0
2, 117640, Note_on_c, 1, 85, 127
2, 117760, Note_off_c, 1, 49, 0
2, 117760, Note_off_c, 1, 85, 0
2, 117800, Note_on_c, 1, 58, 127
2, 117800, Note_on_c, 1, 82, 127
2, 117920, Note_off_c, 1, 82, 0
2, 117960, Note_on_c, 1, 80, 127
2, 118080, Note_off_c, 1, 58, 0
2, 118080, Note_off_c, 1, 80, 0
2, 118120, Note_on_c, 1, 61, 127
2, 118120, Note_on_c, 1, 79, 127
2, 118240, Note_off_c, 1, 79, 0
2, 118280, Note_on_c, 1, 77, 127
2, 118400, Note_off_c, 1, 61, 0
2, 118400, Note_off_c, 1, 77, 0
2, 118440, Note_on_c, 1, 56, 127
2, 118440, Note_on_c, 1, 73, 127
2, 118560, Note_off_c, 1, 73, 0
2, 118600, Note_on_c, 1, 72, 127
2, 118720, Note_off_c, 1, 56, 0
2, 118720, Note_off_c, 1, 72, 0
2, 118760, Note_on_c, 1, 61, 127
2, 118760, Note_on_c, 1, 77, 127
2, 118880, Note_off_c, 1, 77, 0
2, 118920, Note_on_c, 1, 77, 127
2, 119040, Note_off_c, 1, 77, 0
2, 119080, Note_on_c, 1, 68, 127
2, 119200, Note_off_c, 1, 68, 0
2, 119240, Note_on_c, 1, 76, 127
2, 119360, Note_off_c, 1, 76, 0
2, 119400, Note_on_c, 1, 77, 127
2, 119520, Note_off_c, 1, 61, 0
2, 119520, Note_off_c, 1, 77, 0
2, 119560, Note_on_c, 1, 61, 127
2, 119600, Note_on_c, 1, 78, 127
2, 119720, Note_off_c, 1, 61, 0
2, 119720, Note_off_c, 1, 78, 0
2, 119760, Note_on_c, 1, 53, 127
2, 119760, Note_on_c, 1, 79, 127
2, 119880, Note_off_c, 1, 79, 0
2, 119920, Note_on_c, 1, 78, 127
2, 120000, Note_off_c, 1, 53, 0
2, 120000, Note_off_c, 1, 78, 0
2, 120040, End_track
3, 0, Start_track
3, 0, Title_t, "MIDI"
3, 1536, End_track
0, 0, End_of_file
