0, 0, Header, 1, 3, 192
1, 0, Start_track
1, 0, Time_signature, 4, 2, 24, 8
1, 0, Tempo, 500000
1, 120040, End_track
2, 0, Start_track
2, 0, Text_t, "random instrument: random person i dunno whatev"
2, 0, Title_t, "Track 1"
2, 0, Note_on_c, 1, 50, 127
2, 0, Note_on_c, 1, 57, 127
2, 0, Note_on_c, 1, 65, 127
2, 0, Note_on_c, 1, 69, 127
2, 0, Note_on_c, 1, 74, 127
2, 0, Note_on_c, 1, 77, 127
2, 0, Note_on_c, 1, 81, 127
2, 80, Note_off_c, 1, 50, 0
2, 80, Note_off_c, 1, 57, 0
2, 80, Note_off_c, 1, 65, 0
2, 80, Note_off_c, 1, 69, 0
2, 80, Note_off_c, 1, 74, 0
2, 80, Note_off_c, 1, 77, 0
2, 80, Note_off_c, 1, 81, 0
2, 120, Note_on_c, 1, 50, 127
2, 120, Note_on_c, 1, 57, 127
2, 120, Note_on_c, 1, 65, 127
2, 120, Note_on_c, 1, 69, 127
2, 120, Note_on_c, 1, 74, 127
2, 120, Note_on_c, 1, 77, 127
2, 120, Note_on_c, 1, 81, 127
2, 360, Note_off_c, 1, 50, 0
2, 360, Note_off_c, 1, 57, 0
2, 360, Note_off_c, 1, 65, 0
2, 360, Note_off_c, 1, 69, 0
2, 360, Note_off_c, 1, 74, 0
2, 360, Note_off_c, 1, 77, 0
2, 360, Note_off_c, 1, 81, 0
2, 400, Note_on_c, 1, 47, 127
2, 400, Note_on_c, 1, 59, 127
2, 400, Note_on_c, 1, 66, 127
2, 400, Note_on_c, 1, 71, 127
2, 400, Note_on_c, 1, 74, 127
2, 800, Note_off_c, 1, 47, 0
2, 800, Note_off_c, 1, 59, 0
2, 800, Note_off_c, 1, 66, 0
2, 800, Note_off_c, 1, 71, 0
2, 800, Note_off_c, 1, 74, 0
2, 5160, Note_on_c, 1, 48, 127
2, 5160, Note_on_c, 1, 55, 127
2, 5160, Note_on_c, 1, 60, 127
2, 5160, Note_on_c, 1, 64, 127
2, 5480, Note_off_c, 1, 48, 0
2, 5480, Note_off_c, 1, 55, 0
2, 5480, Note_off_c, 1, 60, 0
2, 5480, Note_off_c, 1, 64, 0
2, 5520, Note_on_c, 1, 43, 127
2, 5520, Note_on_c, 1, 53, 127
2, 5520, Note_on_c, 1, 59, 127
2, 5520, Note_on_c, 1, 62, 127
2, 5760, Note_off_c, 1, 62, 0
2, 5800, Note_on_c, 1, 64, 127
2, 5880, Note_off_c, 1, 64, 0
2, 5920, Note_off_c, 1, 59, 0
2, 5920, Note_on_c, 1, 63, 127
2, 6040, Note_off_c, 1, 43, 0
2, 6040, Note_off_c, 1, 53, 0
2, 6040, Note_off_c, 1, 63, 0
2, 6080, Note_on_c, 1, 36, 127
2, 6080, Note_on_c, 1, 51, 127
2, 6080, Note_on_c, 1, 55, 127
2, 6080, Note_on_c, 1, 60, 127
2, 7000, Note_off_c, 1, 36, 0
2, 7000, Note_off_c, 1, 51, 0
2, 7000, Note_off_c, 1, 55, 0
2, 7000, Note_off_c, 1, 60, 0
2, 7080, Note_on_c, 1, 48, 127
2, 7080, Note_on_c, 1, 55, 127
2, 7880, Note_on_c, 1, 60, 127
2, 7960, Note_off_c, 1, 60, 0
2, 8000, Note_on_c, 1, 60, 127
2, 8400, Note_off_c, 1, 55, 0
2, 8400, Note_off_c, 1, 60, 0
2, 8440, Note_on_c, 1, 55, 127
2, 8440, Note_on_c, 1, 60, 127
2, 8520, Note_off_c, 1, 60, 0
2, 8800, Note_off_c, 1, 55, 0
2, 8840, Note_on_c, 1, 55, 127
2, 9160, Note_on_c, 1, 60, 127
2, 9200, Note_off_c, 1, 60, 0
2, 9400, Note_off_c, 1, 48, 0
2, 9400, Note_off_c, 1, 55, 0
2, 9440, Note_on_c, 1, 48, 127
2, 9440, Note_on_c, 1, 55, 127
2, 9760, Note_on_c, 1, 60, 127
2, 9840, Note_off_c, 1, 60, 0
2, 10480, Note_on_c, 1, 60, 127
2, 10920, Note_off_c, 1, 60, 0
2, 11200, Note_off_c, 1, 48, 0
2, 11200, Note_off_c, 1, 55, 0
2, 11240, Note_on_c, 1, 48, 127
2, 11240, Note_on_c, 1, 55, 127
2, 11560, Note_off_c, 1, 48, 0
2, 11560, Note_off_c, 1, 55, 0
2, 11600, Note_on_c, 1, 48, 127
2, 11600, Note_on_c, 1, 55, 127
2, 12480, Note_on_c, 1, 60, 127
2, 13160, Note_off_c, 1, 60, 0
2, 13200, Note_on_c, 1, 60, 127
2, 13200, Note_on_c, 1, 72, 127
2, 13960, Note_off_c, 1, 60, 0
2, 13960, Note_off_c, 1, 72, 0
2, 14000, Note_off_c, 1, 48, 0
2, 14000, Note_off_c, 1, 55, 0
2, 14040, Note_on_c, 1, 48, 127
2, 14040, Note_on_c, 1, 55, 127
2, 14040, Note_on_c, 1, 60, 127
2, 15120, Note_off_c, 1, 48, 0
2, 15120, Note_off_c, 1, 55, 0
2, 15120, Note_off_c, 1, 60, 0
2, 32600, Note_on_c, 1, 57, 127
2, 32600, Note_on_c, 1, 73, 127
2, 33160, Note_off_c, 1, 57, 0
2, 33160, Note_off_c, 1, 73, 0
2, 33200, Note_on_c, 1, 57, 127
2, 33200, Note_on_c, 1, 64, 127
2, 33200, Note_on_c, 1, 73, 127
2, 35880, Note_off_c, 1, 57, 0
2, 35880, Note_off_c, 1, 64, 0
2, 35880, Note_off_c, 1, 73, 0
2, 36040, Note_on_c, 1, 45, 127
2, 36800, Note_on_c, 1, 49, 127
2, 37160, Note_off_c, 1, 49, 0
2, 38280, Note_off_c, 1, 45, 0
2, 38320, Note_on_c, 1, 45, 127
2, 40640, Note_off_c, 1, 45, 0
2, 40680, Note_on_c, 1, 45, 127
2, 43320, Note_off_c, 1, 45, 0
2, 43360, Note_on_c, 1, 45, 127
2, 45640, Note_off_c, 1, 45, 0
2, 45680, Note_on_c, 1, 45, 127
2, 48080, Note_off_c, 1, 45, 0
2, 48120, Note_on_c, 1, 45, 127
2, 50640, Note_off_c, 1, 45, 0
2, 50680, Note_on_c, 1, 45, 127
2, 51960, Note_off_c, 1, 45, 0
2, 67200, Note_on_c, 1, 52, 127
2, 67560, Note_off_c, 1, 52, 0
2, 67600, Note_on_c, 1, 57, 127
2, 67600, Note_on_c, 1, 63, 127
2, 67600, Note_on_c, 1, 66, 127
2, 67960, Note_off_c, 1, 66, 0
2, 68360, Note_off_c, 1, 63, 0
2, 68400, Note_on_c, 1, 63, 127
2, 68400, Note_on_c, 1, 66, 127
2, 68760, Note_off_c, 1, 66, 0
2, 69160, Note_off_c, 1, 57, 0
2, 69160, Note_off_c, 1, 63, 0
2, 74720, Note_on_c, 1, 55, 127
2, 74720, Note_on_c, 1, 58, 127
2, 74720, Note_on_c, 1, 62, 127
2, 74720, Note_on_c, 1, 67, 127
2, 74720, Note_on_c, 1, 70, 127
2, 75920, Note_off_c, 1, 55, 0
2, 75920, Note_off_c, 1, 58, 0
2, 75920, Note_off_c, 1, 62, 0
2, 75920, Note_off_c, 1, 67, 0
2, 75920, Note_off_c, 1, 70, 0
2, 76000, Note_on_c, 1, 55, 127
2, 76000, Note_on_c, 1, 58, 127
2, 76000, Note_on_c, 1, 70, 127
2, 76560, Note_off_c, 1, 70, 0
2, 76600, Note_on_c, 1, 73, 127
2, 76760, Note_off_c, 1, 73, 0
2, 77160, Note_off_c, 1, 55, 0
2, 77160, Note_off_c, 1, 58, 0
2, 77200, Note_on_c, 1, 63, 127
2, 77200, Note_on_c, 1, 73, 127
2, 77800, Note_off_c, 1, 63, 0
2, 77800, Note_off_c, 1, 73, 0
2, 77840, Note_on_c, 1, 63, 127
2, 77840, Note_on_c, 1, 73, 127
2, 78200, Note_off_c, 1, 63, 0
2, 78200, Note_off_c, 1, 73, 0
2, 78240, Note_on_c, 1, 65, 127
2, 78240, Note_on_c, 1, 73, 127
2, 78800, Note_off_c, 1, 65, 0
2, 78800, Note_off_c, 1, 73, 0
2, 78840, Note_on_c, 1, 34, 127
2, 78840, Note_on_c, 1, 65, 127
2, 78840, Note_on_c, 1, 73, 127
2, 79600, Note_off_c, 1, 65, 0
2, 79600, Note_off_c, 1, 73, 0
2, 79640, Note_off_c, 1, 34, 0
2, 79680, Note_on_c, 1, 34, 127
2, 79680, Note_on_c, 1, 65, 127
2, 79680, Note_on_c, 1, 73, 127
2, 80040, Note_off_c, 1, 34, 0
2, 80080, Note_on_c, 1, 46, 127
2, 80400, Note_off_c, 1, 46, 0
2, 80440, Note_on_c, 1, 56, 127
2, 80800, Note_off_c, 1, 56, 0
2, 80800, Note_off_c, 1, 65, 0
2, 80800, Note_off_c, 1, 73, 0
2, 80840, Note_on_c, 1, 41, 127
2, 80840, Note_on_c, 1, 62, 127
2, 80840, Note_on_c, 1, 71, 127
2, 81200, Note_off_c, 1, 62, 0
2, 81200, Note_off_c, 1, 71, 0
2, 81240, Note_on_c, 1, 62, 127
2, 81240, Note_on_c, 1, 71, 127
2, 81600, Note_off_c, 1, 62, 0
2, 81600, Note_off_c, 1, 71, 0
2, 81640, Note_off_c, 1, 41, 0
2, 81680, Note_on_c, 1, 41, 127
2, 81680, Note_on_c, 1, 62, 127
2, 81680, Note_on_c, 1, 71, 127
2, 82000, Note_off_c, 1, 41, 0
2, 82000, Note_off_c, 1, 62, 0
2, 82000, Note_off_c, 1, 71, 0
2, 82040, Note_on_c, 1, 56, 127
2, 82040, Note_on_c, 1, 65, 127
2, 82040, Note_on_c, 1, 73, 127
2, 82760, Note_off_c, 1, 56, 0
2, 82760, Note_off_c, 1, 65, 0
2, 82760, Note_off_c, 1, 73, 0
2, 82800, Note_on_c, 1, 53, 127
2, 82800, Note_on_c, 1, 68, 127
2, 82800, Note_on_c, 1, 75, 127
2, 83360, Note_off_c, 1, 75, 0
2, 83400, Note_on_c, 1, 61, 127
2, 83400, Note_off_c, 1, 68, 0
2, 83400, Note_on_c, 1, 73, 127
2, 83560, Note_off_c, 1, 53, 0
2, 83560, Note_off_c, 1, 61, 0
2, 83560, Note_off_c, 1, 73, 0
2, 83600, Note_on_c, 1, 56, 127
2, 83600, Note_on_c, 1, 63, 127
2, 83600, Note_on_c, 1, 75, 127
2, 83840, Note_off_c, 1, 56, 0
2, 83840, Note_off_c, 1, 63, 0
2, 83840, Note_off_c, 1, 75, 0
2, 83880, Note_on_c, 1, 56, 127
2, 83880, Note_on_c, 1, 63, 127
2, 83880, Note_on_c, 1, 75, 127
2, 84400, Note_off_c, 1, 56, 0
2, 84400, Note_off_c, 1, 63, 0
2, 84400, Note_off_c, 1, 75, 0
2, 84440, Note_on_c, 1, 49, 127
2, 84440, Note_on_c, 1, 61, 127
2, 84440, Note_on_c, 1, 65, 127
2, 84440, Note_on_c, 1, 77, 127
2, 84800, Note_off_c, 1, 65, 0
2, 84840, Note_on_c, 1, 65, 127
2, 85600, Note_off_c, 1, 49, 0
2, 85600, Note_off_c, 1, 61, 0
2, 85600, Note_off_c, 1, 65, 0
2, 85600, Note_off_c, 1, 77, 0
2, 85640, Note_on_c, 1, 49, 127
2, 85640, Note_on_c, 1, 61, 127
2, 85640, Note_on_c, 1, 65, 127
2, 85640, Note_on_c, 1, 77, 127
2, 86040, Note_off_c, 1, 49, 0
2, 86040, Note_off_c, 1, 61, 0
2, 86040, Note_off_c, 1, 65, 0
2, 86040, Note_off_c, 1, 77, 0
2, 86080, Note_on_c, 1, 49, 127
2, 86080, Note_on_c, 1, 61, 127
2, 86080, Note_on_c, 1, 65, 127
2, 86080, Note_on_c, 1, 77, 127
2, 86440, Note_off_c, 1, 61, 0
2, 86440, Note_off_c, 1, 65, 0
2, 86440, Note_off_c, 1, 77, 0
2, 86480, Note_on_c, 1, 65, 127
2, 86480, Note_on_c, 1, 68, 127
2, 86480, Note_on_c, 1, 80, 127
2, 86840, Note_off_c, 1, 49, 0
2, 86840, Note_off_c, 1, 65, 0
2, 86840, Note_off_c, 1, 68, 0
2, 86840, Note_off_c, 1, 80, 0
2, 86880, Note_on_c, 1, 61, 127
2, 86880, Note_on_c, 1, 65, 127
2, 86880, Note_on_c, 1, 77, 127
2, 87240, Note_off_c, 1, 61, 0
2, 87240, Note_off_c, 1, 65, 0
2, 87240, Note_off_c, 1, 77, 0
2, 87280, Note_on_c, 1, 49, 127
2, 87280, Note_on_c, 1, 65, 127
2, 87280, Note_on_c, 1, 68, 127
2, 87280, Note_on_c, 1, 73, 127
2, 87640, Note_off_c, 1, 49, 0
2, 87680, Note_on_c, 1, 44, 127
2, 87800, Note_off_c, 1, 44, 0
2, 87880, Note_on_c, 1, 44, 127
2, 87920, Note_off_c, 1, 44, 0
2, 88080, Note_on_c, 1, 44, 127
2, 88160, Note_off_c, 1, 44, 0
2, 88200, Note_off_c, 1, 65, 0
2, 88200, Note_off_c, 1, 68, 0
2, 88200, Note_off_c, 1, 73, 0
2, 88240, Note_on_c, 1, 65, 127
2, 88240, Note_on_c, 1, 68, 127
2, 88240, Note_on_c, 1, 73, 127
2, 88320, Note_on_c, 1, 53, 127
2, 88480, Note_off_c, 1, 53, 0
2, 88520, Note_on_c, 1, 56, 127
2, 88880, Note_off_c, 1, 56, 0
2, 88880, Note_off_c, 1, 65, 0
2, 88880, Note_off_c, 1, 68, 0
2, 88880, Note_off_c, 1, 73, 0
2, 88920, Note_on_c, 1, 60, 127
2, 88920, Note_on_c, 1, 68, 127
2, 88920, Note_on_c, 1, 75, 127
2, 89640, Note_off_c, 1, 60, 0
2, 89640, Note_off_c, 1, 68, 0
2, 89640, Note_off_c, 1, 75, 0
2, 89680, Note_on_c, 1, 49, 127
2, 89680, Note_on_c, 1, 77, 127
2, 90040, Note_off_c, 1, 49, 0
2, 90080, Note_on_c, 1, 54, 127
2, 90240, Note_off_c, 1, 54, 0
2, 90240, Note_off_c, 1, 77, 0
2, 90280, Note_on_c, 1, 54, 127
2, 90280, Note_on_c, 1, 77, 127
2, 90480, Note_off_c, 1, 54, 0
2, 90480, Note_off_c, 1, 77, 0
2, 90520, Note_on_c, 1, 61, 127
2, 90520, Note_on_c, 1, 73, 127
2, 90880, Note_off_c, 1, 61, 0
2, 90880, Note_off_c, 1, 73, 0
2, 90920, Note_on_c, 1, 51, 127
2, 90920, Note_on_c, 1, 72, 127
2, 91280, Note_off_c, 1, 51, 0
2, 91320, Note_on_c, 1, 56, 127
2, 91680, Note_off_c, 1, 56, 0
2, 91720, Note_on_c, 1, 63, 127
2, 92080, Note_off_c, 1, 63, 0
2, 92080, Note_off_c, 1, 72, 0
2, 92120, Note_on_c, 1, 56, 127
2, 92120, Note_on_c, 1, 72, 127
2, 92440, Note_off_c, 1, 56, 0
2, 92440, Note_off_c, 1, 72, 0
2, 92480, Note_on_c, 1, 56, 127
2, 92480, Note_on_c, 1, 72, 127
2, 92520, Note_off_c, 1, 56, 0
2, 92560, Note_on_c, 1, 63, 127
2, 92920, Note_off_c, 1, 63, 0
2, 92960, Note_on_c, 1, 56, 127
2, 93320, Note_off_c, 1, 56, 0
2, 93360, Note_on_c, 1, 60, 127
2, 93720, Note_off_c, 1, 60, 0
2, 93760, Note_on_c, 1, 56, 127
2, 94120, Note_off_c, 1, 56, 0
2, 94160, Note_on_c, 1, 63, 127
2, 94520, Note_off_c, 1, 63, 0
2, 94520, Note_off_c, 1, 72, 0
2, 94600, Note_on_c, 1, 56, 127
2, 94600, Note_on_c, 1, 72, 127
2, 94960, Note_off_c, 1, 56, 0
2, 95000, Note_on_c, 1, 60, 127
2, 95360, Note_off_c, 1, 60, 0
2, 95400, Note_on_c, 1, 56, 127
2, 95760, Note_off_c, 1, 56, 0
2, 95800, Note_on_c, 1, 60, 127
2, 96160, Note_off_c, 1, 60, 0
2, 96200, Note_on_c, 1, 56, 127
2, 96560, Note_off_c, 1, 56, 0
2, 96600, Note_on_c, 1, 63, 127
2, 96920, Note_off_c, 1, 63, 0
2, 96920, Note_off_c, 1, 72, 0
2, 96960, Note_on_c, 1, 63, 127
2, 96960, Note_on_c, 1, 72, 127
2, 97000, Note_off_c, 1, 63, 0
2, 97040, Note_on_c, 1, 56, 127
2, 97400, Note_off_c, 1, 56, 0
2, 97400, Note_off_c, 1, 72, 0
2, 97440, Note_on_c, 1, 63, 127
2, 97440, Note_on_c, 1, 68, 127
2, 97800, Note_off_c, 1, 63, 0
2, 97840, Note_on_c, 1, 53, 127
2, 98200, Note_off_c, 1, 53, 0
2, 98240, Note_on_c, 1, 59, 127
2, 98600, Note_off_c, 1, 59, 0
2, 98640, Note_on_c, 1, 65, 127
2, 99000, Note_off_c, 1, 65, 0
2, 99000, Note_off_c, 1, 68, 0
2, 99080, Note_on_c, 1, 60, 127
2, 99080, Note_on_c, 1, 68, 127
2, 99440, Note_off_c, 1, 60, 0
2, 99480, Note_on_c, 1, 63, 127
2, 99800, Note_off_c, 1, 63, 0
2, 99880, Note_on_c, 1, 56, 127
2, 100640, Note_off_c, 1, 56, 0
2, 100680, Note_on_c, 1, 59, 127
2, 101040, Note_off_c, 1, 59, 0
2, 101080, Note_on_c, 1, 56, 127
2, 101280, Note_off_c, 1, 56, 0
2, 101280, Note_off_c, 1, 68, 0
2, 101320, Note_on_c, 1, 56, 127
2, 101320, Note_on_c, 1, 68, 127
2, 101480, Note_off_c, 1, 56, 0
2, 101480, Note_off_c, 1, 68, 0
2, 101520, Note_on_c, 1, 51, 127
2, 101520, Note_on_c, 1, 79, 127
2, 101880, Note_off_c, 1, 51, 0
2, 101920, Note_on_c, 1, 56, 127
2, 102280, Note_off_c, 1, 56, 0
2, 102280, Note_off_c, 1, 79, 0
2, 102320, Note_on_c, 1, 58, 127
2, 102320, Note_on_c, 1, 75, 127
2, 102680, Note_off_c, 1, 58, 0
2, 102720, Note_on_c, 1, 63, 127
2, 103080, Note_off_c, 1, 63, 0
2, 103120, Note_on_c, 1, 68, 127
2, 103320, Note_off_c, 1, 68, 0
2, 103320, Note_off_c, 1, 75, 0
2, 103360, Note_on_c, 1, 68, 127
2, 103360, Note_on_c, 1, 75, 127
2, 103520, Note_off_c, 1, 68, 0
2, 103560, Note_on_c, 1, 51, 127
2, 103920, Note_off_c, 1, 51, 0
2, 103960, Note_on_c, 1, 58, 127
2, 104320, Note_off_c, 1, 58, 0
2, 104360, Note_on_c, 1, 63, 127
2, 104720, Note_off_c, 1, 63, 0
2, 104760, Note_on_c, 1, 68, 127
2, 105120, Note_off_c, 1, 68, 0
2, 105160, Note_on_c, 1, 63, 127
2, 105520, Note_off_c, 1, 63, 0
2, 105520, Note_off_c, 1, 75, 0
2, 105560, Note_on_c, 1, 75, 127
2, 105600, Note_on_c, 1, 68, 127
2, 106000, Note_off_c, 1, 68, 0
2, 106040, Note_on_c, 1, 66, 127
2, 106400, Note_off_c, 1, 66, 0
2, 106400, Note_off_c, 1, 75, 0
2, 106440, Note_on_c, 1, 56, 127
2, 106440, Note_on_c, 1, 73, 127
2, 106800, Note_off_c, 1, 56, 0
2, 106840, Note_on_c, 1, 63, 127
2, 107200, Note_off_c, 1, 63, 0
2, 107200, Note_off_c, 1, 73, 0
2, 107240, Note_on_c, 1, 56, 127
2, 107240, Note_on_c, 1, 72, 127
2, 107600, Note_off_c, 1, 56, 0
2, 107640, Note_off_c, 1, 72, 0
2, 107680, Note_on_c, 1, 60, 127
2, 107680, Note_on_c, 1, 72, 127
2, 108040, Note_off_c, 1, 60, 0
2, 108080, Note_on_c, 1, 66, 127
2, 108440, Note_off_c, 1, 66, 0
2, 108440, Note_off_c, 1, 72, 0
2, 108480, Note_on_c, 1, 56, 127
2, 108480, Note_on_c, 1, 72, 127
2, 108840, Note_off_c, 1, 56, 0
2, 108880, Note_on_c, 1, 60, 127
2, 109240, Note_off_c, 1, 60, 0
2, 109280, Note_on_c, 1, 63, 127
2, 109640, Note_off_c, 1, 63, 0
2, 109640, Note_off_c, 1, 72, 0
2, 109720, Note_on_c, 1, 56, 127
2, 109720, Note_on_c, 1, 72, 127
2, 110080, Note_off_c, 1, 56, 0
2, 110120, Note_on_c, 1, 60, 127
2, 110480, Note_off_c, 1, 60, 0
2, 110520, Note_on_c, 1, 56, 127
2, 110880, Note_off_c, 1, 56, 0
2, 110920, Note_on_c, 1, 63, 127
2, 111280, Note_off_c, 1, 63, 0
2, 111280, Note_off_c, 1, 72, 0
2, 111320, Note_on_c, 1, 55, 127
2, 111320, Note_on_c, 1, 75, 127
2, 111680, Note_off_c, 1, 55, 0
2, 111720, Note_on_c, 1, 63, 127
2, 111880, Note_off_c, 1, 63, 0
2, 111880, Note_off_c, 1, 75, 0
2, 111920, Note_on_c, 1, 63, 127
2, 111920, Note_on_c, 1, 75, 127
2, 112120, Note_off_c, 1, 63, 0
2, 112160, Note_on_c, 1, 68, 127
2, 112560, Note_off_c, 1, 68, 0
2, 112600, Note_on_c, 1, 60, 127
2, 112960, Note_off_c, 1, 60, 0
2, 112960, Note_off_c, 1, 75, 0
2, 113000, Note_on_c, 1, 68, 127
2, 113000, Note_on_c, 1, 75, 127
2, 113760, Note_off_c, 1, 68, 0
2, 113760, Note_off_c, 1, 75, 0
2, 113800, Note_on_c, 1, 58, 127
2, 113800, Note_on_c, 1, 74, 127
2, 114160, Note_off_c, 1, 58, 0
2, 114200, Note_off_c, 1, 74, 0
2, 114240, Note_on_c, 1, 62, 127
2, 114240, Note_on_c, 1, 74, 127
2, 114600, Note_off_c, 1, 62, 0
2, 114640, Note_on_c, 1, 67, 127
2, 115000, Note_off_c, 1, 67, 0
2, 115000, Note_off_c, 1, 74, 0
2, 115040, Note_on_c, 1, 73, 127
2, 115400, Note_off_c, 1, 73, 0
2, 115440, Note_on_c, 1, 74, 127
2, 115840, Note_on_c, 1, 50, 127
2, 116200, Note_off_c, 1, 50, 0
2, 116240, Note_on_c, 1, 59, 127
2, 116560, Note_off_c, 1, 59, 0
2, 116560, Note_off_c, 1, 74, 0
2, 116600, Note_on_c, 1, 59, 127
2, 116600, Note_on_c, 1, 74, 127
2, 116640, Note_off_c, 1, 59, 0
2, 116640, Note_off_c, 1, 74, 0
2, 116680, Note_on_c, 1, 62, 127
2, 116680, Note_on_c, 1, 75, 127
2, 117040, Note_off_c, 1, 62, 0
2, 117040, Note_off_c, 1, 75, 0
2, 117080, Note_on_c, 1, 75, 127
2, 117400, Note_off_c, 1, 75, 0
2, 117440, Note_on_c, 1, 51, 127
2, 117440, Note_on_c, 1, 79, 127
2, 117800, Note_off_c, 1, 51, 0
2, 117840, Note_on_c, 1, 56, 127
2, 118200, Note_off_c, 1, 56, 0
2, 118200, Note_off_c, 1, 79, 0
2, 118240, Note_on_c, 1, 70, 127
2, 118640, Note_off_c, 1, 70, 0
2, 118680, Note_on_c, 1, 51, 127
2, 118680, Note_on_c, 1, 70, 127
2, 119040, Note_off_c, 1, 51, 0
2, 119040, Note_off_c, 1, 70, 0
2, 119080, Note_on_c, 1, 62, 127
2, 119080, Note_on_c, 1, 68, 127
2, 119440, Note_on_c, 1, 61, 127
2, 119440, Note_off_c, 1, 62, 0
2, 119440, Note_off_c, 1, 68, 0
2, 119480, Note_on_c, 1, 70, 127
2, 119840, Note_off_c, 1, 61, 0
2, 119880, Note_on_c, 1, 66, 127
2, 120000, Note_off_c, 1, 66, 0
2, 120000, Note_off_c, 1, 70, 0
2, 120040, End_track
3, 0, Start_track
3, 0, Title_t, "MIDI"
3, 1536, End_track
0, 0, End_of_file
