0, 0, Header, 1, 3, 192
1, 0, Start_track
1, 0, Time_signature, 4, 2, 24, 8
1, 0, Tempo, 500000
1, 120040, End_track
2, 0, Start_track
2, 0, Text_t, "random instrument: random person i dunno whatev"
2, 0, Title_t, "Track 1"
2, 0, Note_on_c, 1, 55, 127
2, 0, Note_on_c, 1, 59, 127
2, 0, Note_on_c, 1, 62, 127
2, 0, Note_on_c, 1, 71, 127
2, 0, Note_on_c, 1, 79, 127
2, 40, Note_on_c, 1, 42, 127
2, 40, Note_on_c, 1, 49, 127
2, 40, Note_on_c, 1, 54, 127
2, 40, Note_off_c, 1, 55, 0
2, 40, Note_off_c, 1, 59, 0
2, 40, Note_off_c, 1, 62, 0
2, 40, Note_off_c, 1, 71, 0
2, 40, Note_off_c, 1, 79, 0
2, 40, Note_on_c, 1, 82, 127
2, 40, Note_on_c, 1, 88, 127
2, 40, Note_on_c, 1, 94, 127
2, 80, Note_off_c, 1, 42, 0
2, 80, Note_off_c, 1, 49, 0
2, 80, Note_off_c, 1, 54, 0
2, 80, Note_off_c, 1, 82, 0
2, 80, Note_off_c, 1, 88, 0
2, 80, Note_off_c, 1, 94, 0
2, 120, Note_on_c, 1, 58, 127
2, 120, Note_on_c, 1, 65, 127
2, 120, Note_on_c, 1, 70, 127
2, 120, Note_on_c, 1, 73, 127
2, 120, Note_on_c, 1, 80, 127
2, 160, Note_on_c, 1, 53, 127
2, 160, Note_on_c, 1, 56, 127
2, 160, Note_off_c, 1, 58, 0
2, 160, Note_on_c, 1, 63, 127
2, 160, Note_off_c, 1, 65, 0
2, 160, Note_off_c, 1, 70, 0
2, 160, Note_on_c, 1, 83, 127
2, 200, Note_on_c, 1, 33, 127
2, 200, Note_on_c, 1, 37, 127
2, 200, Note_on_c, 1, 40, 127
2, 200, Note_on_c, 1, 45, 127
2, 200, Note_off_c, 1, 53, 0
2, 200, Note_off_c, 1, 56, 0
2, 200, Note_on_c, 1, 57, 127
2, 200, Note_on_c, 1, 61, 127
2, 200, Note_off_c, 1, 63, 0
2, 200, Note_on_c, 1, 64, 127
2, 200, Note_off_c, 1, 73, 0
2, 200, Note_off_c, 1, 80, 0
2, 200, Note_off_c, 1, 83, 0
2, 240, Note_off_c, 1, 33, 0
2, 240, Note_off_c, 1, 37, 0
2, 240, Note_off_c, 1, 40, 0
2, 240, Note_off_c, 1, 45, 0
2, 240, Note_off_c, 1, 57, 0
2, 240, Note_on_c, 1, 58, 127
2, 240, Note_off_c, 1, 61, 0
2, 240, Note_on_c, 1, 66, 127
2, 240, Note_on_c, 1, 73, 127
2, 240, Note_on_c, 1, 85, 127
2, 280, Note_on_c, 1, 35, 127
2, 280, Note_off_c, 1, 58, 0
2, 280, Note_off_c, 1, 64, 0
2, 280, Note_off_c, 1, 66, 0
2, 280, Note_on_c, 1, 67, 127
2, 280, Note_off_c, 1, 73, 0
2, 280, Note_on_c, 1, 78, 127
2, 280, Note_on_c, 1, 79, 127
2, 280, Note_off_c, 1, 85, 0
2, 320, Note_off_c, 1, 35, 0
2, 320, Note_on_c, 1, 58, 127
2, 320, Note_on_c, 1, 64, 127
2, 320, Note_on_c, 1, 66, 127
2, 320, Note_off_c, 1, 67, 0
2, 320, Note_on_c, 1, 73, 127
2, 320, Note_off_c, 1, 78, 0
2, 320, Note_off_c, 1, 79, 0
2, 320, Note_on_c, 1, 85, 127
2, 360, Note_off_c, 1, 58, 0
2, 360, Note_off_c, 1, 64, 0
2, 360, Note_off_c, 1, 66, 0
2, 360, Note_off_c, 1, 73, 0
2, 360, Note_off_c, 1, 85, 0
2, 400, Note_on_c, 1, 58, 127
2, 400, Note_on_c, 1, 70, 127
2, 600, Note_off_c, 1, 58, 0
2, 600, Note_off_c, 1, 70, 0
2, 640, Note_on_c, 1, 55, 127
2, 640, Note_on_c, 1, 67, 127
2, 800, Note_off_c, 1, 55, 0
2, 800, Note_off_c, 1, 67, 0
2, 880, Note_on_c, 1, 50, 127
2, 880, Note_on_c, 1, 55, 127
2, 880, Note_on_c, 1, 58, 127
2, 880, Note_on_c, 1, 62, 127
2, 1440, Note_off_c, 1, 50, 0
2, 1440, Note_off_c, 1, 55, 0
2, 1440, Note_off_c, 1, 58, 0
2, 1440, Note_off_c, 1, 62, 0
2, 1520, Note_on_c, 1, 45, 127
2, 1840, Note_off_c, 1, 45, 0
2, 1920, Note_on_c, 1, 50, 127
2, 2120, Note_off_c, 1, 50, 0
2, 2160, Note_on_c, 1, 50, 127
2, 2280, Note_off_c, 1, 50, 0
2, 2360, Note_on_c, 1, 40, 127
2, 2360, Note_on_c, 1, 41, 127
2, 3080, Note_off_c, 1, 40, 0
2, 3120, Note_on_c, 1, 40, 127
2, 4160, Note_off_c, 1, 40, 0
2, 4200, Note_on_c, 1, 40, 127
2, 4480, Note_off_c, 1, 40, 0
2, 4480, Note_off_c, 1, 41, 0
2, 4480, Note_on_c, 1, 43, 127
2, 4480, Note_on_c, 1, 44, 127
2, 4560, Note_off_c, 1, 43, 0
2, 4560, Note_off_c, 1, 44, 0
2, 4600, Note_on_c, 1, 43, 127
2, 4600, Note_on_c, 1, 44, 127
2, 4640, Note_off_c, 1, 43, 0
2, 4640, Note_off_c, 1, 44, 0
2, 4640, Note_on_c, 1, 52, 127
2, 4640, Note_on_c, 1, 64, 127
2, 4640, Note_on_c, 1, 74, 127
2, 4640, Note_on_c, 1, 80, 127
2, 4640, Note_on_c, 1, 86, 127
2, 4680, Note_on_c, 1, 44, 127
2, 4680, Note_off_c, 1, 52, 0
2, 4680, Note_on_c, 1, 60, 127
2, 4680, Note_off_c, 1, 64, 0
2, 4680, Note_on_c, 1, 68, 127
2, 4680, Note_on_c, 1, 72, 127
2, 4680, Note_off_c, 1, 74, 0
2, 4680, Note_on_c, 1, 77, 127
2, 4680, Note_off_c, 1, 80, 0
2, 4680, Note_off_c, 1, 86, 0
2, 4720, Note_off_c, 1, 44, 0
2, 4720, Note_on_c, 1, 49, 127
2, 4720, Note_on_c, 1, 52, 127
2, 4720, Note_on_c, 1, 54, 127
2, 4720, Note_off_c, 1, 60, 0
2, 4720, Note_on_c, 1, 61, 127
2, 4720, Note_on_c, 1, 64, 127
2, 4720, Note_on_c, 1, 66, 127
2, 4720, Note_off_c, 1, 68, 0
2, 4720, Note_off_c, 1, 72, 0
2, 4720, Note_off_c, 1, 77, 0
2, 4760, Note_on_c, 1, 38, 127
2, 4760, Note_off_c, 1, 49, 0
2, 4760, Note_off_c, 1, 52, 0
2, 4760, Note_off_c, 1, 54, 0
2, 4760, Note_off_c, 1, 61, 0
2, 4760, Note_off_c, 1, 64, 0
2, 4760, Note_on_c, 1, 67, 127
2, 4800, Note_off_c, 1, 38, 0
2, 4800, Note_on_c, 1, 43, 127
2, 4800, Note_on_c, 1, 50, 127
2, 4800, Note_off_c, 1, 66, 0
2, 4800, Note_off_c, 1, 67, 0
2, 4800, Note_on_c, 1, 78, 127
2, 4800, Note_on_c, 1, 83, 127
2, 4800, Note_on_c, 1, 90, 127
2, 4840, Note_off_c, 1, 43, 0
2, 4840, Note_on_c, 1, 49, 127
2, 4840, Note_off_c, 1, 50, 0
2, 4840, Note_on_c, 1, 56, 127
2, 4840, Note_on_c, 1, 59, 127
2, 4840, Note_on_c, 1, 68, 127
2, 4840, Note_on_c, 1, 73, 127
2, 4840, Note_on_c, 1, 77, 127
2, 4840, Note_off_c, 1, 78, 0
2, 4840, Note_on_c, 1, 80, 127
2, 4840, Note_off_c, 1, 83, 0
2, 4840, Note_on_c, 1, 85, 127
2, 4840, Note_off_c, 1, 90, 0
2, 4880, Note_on_c, 1, 34, 127
2, 4880, Note_on_c, 1, 46, 127
2, 4880, Note_off_c, 1, 49, 0
2, 4880, Note_off_c, 1, 56, 0
2, 4880, Note_off_c, 1, 59, 0
2, 4880, Note_off_c, 1, 68, 0
2, 4880, Note_on_c, 1, 70, 127
2, 4880, Note_off_c, 1, 73, 0
2, 4880, Note_on_c, 1, 79, 127
2, 4880, Note_off_c, 1, 80, 0
2, 4880, Note_on_c, 1, 82, 127
2, 4880, Note_off_c, 1, 85, 0
2, 4920, Note_off_c, 1, 34, 0
2, 4920, Note_off_c, 1, 46, 0
2, 4920, Note_on_c, 1, 54, 127
2, 4920, Note_on_c, 1, 58, 127
2, 4920, Note_on_c, 1, 61, 127
2, 4920, Note_off_c, 1, 70, 0
2, 4920, Note_off_c, 1, 77, 0
2, 4920, Note_on_c, 1, 78, 127
2, 4920, Note_off_c, 1, 79, 0
2, 4920, Note_on_c, 1, 85, 127
2, 4920, Note_on_c, 1, 90, 127
2, 4960, Note_off_c, 1, 54, 0
2, 4960, Note_off_c, 1, 58, 0
2, 4960, Note_on_c, 1, 67, 127
2, 4960, Note_on_c, 1, 71, 127
2, 4960, Note_off_c, 1, 78, 0
2, 4960, Note_off_c, 1, 82, 0
2, 4960, Note_on_c, 1, 83, 127
2, 4960, Note_off_c, 1, 85, 0
2, 4960, Note_on_c, 1, 86, 127
2, 4960, Note_off_c, 1, 90, 0
2, 4960, Note_on_c, 1, 91, 127
2, 4960, Note_on_c, 1, 95, 127
2, 5000, Note_on_c, 1, 58, 127
2, 5000, Note_off_c, 1, 61, 0
2, 5000, Note_off_c, 1, 67, 0
2, 5000, Note_off_c, 1, 71, 0
2, 5000, Note_on_c, 1, 72, 127
2, 5000, Note_on_c, 1, 75, 127
2, 5000, Note_on_c, 1, 82, 127
2, 5000, Note_off_c, 1, 83, 0
2, 5000, Note_on_c, 1, 84, 127
2, 5000, Note_off_c, 1, 86, 0
2, 5000, Note_off_c, 1, 91, 0
2, 5000, Note_off_c, 1, 95, 0
2, 5040, Note_off_c, 1, 58, 0
2, 5040, Note_off_c, 1, 72, 0
2, 5040, Note_off_c, 1, 75, 0
2, 5040, Note_off_c, 1, 82, 0
2, 5040, Note_off_c, 1, 84, 0
2, 5080, Note_on_c, 1, 40, 127
2, 5080, Note_on_c, 1, 44, 127
2, 5080, Note_on_c, 1, 47, 127
2, 5080, Note_on_c, 1, 64, 127
2, 5080, Note_on_c, 1, 66, 127
2, 5120, Note_off_c, 1, 40, 0
2, 5120, Note_on_c, 1, 41, 127
2, 5120, Note_off_c, 1, 44, 0
2, 5120, Note_off_c, 1, 47, 0
2, 5120, Note_on_c, 1, 62, 127
2, 5120, Note_on_c, 1, 63, 127
2, 5120, Note_off_c, 1, 64, 0
2, 5120, Note_off_c, 1, 66, 0
2, 5120, Note_on_c, 1, 67, 127
2, 5120, Note_on_c, 1, 74, 127
2, 5160, Note_on_c, 1, 40, 127
2, 5160, Note_off_c, 1, 41, 0
2, 5160, Note_off_c, 1, 62, 0
2, 5160, Note_off_c, 1, 63, 0
2, 5160, Note_on_c, 1, 65, 127
2, 5160, Note_off_c, 1, 67, 0
2, 5160, Note_on_c, 1, 71, 127
2, 5200, Note_off_c, 1, 40, 0
2, 5200, Note_on_c, 1, 51, 127
2, 5200, Note_on_c, 1, 60, 127
2, 5200, Note_on_c, 1, 61, 127
2, 5200, Note_off_c, 1, 65, 0
2, 5200, Note_off_c, 1, 71, 0
2, 5200, Note_off_c, 1, 74, 0
2, 5200, Note_on_c, 1, 77, 127
2, 5200, Note_on_c, 1, 78, 127
2, 5200, Note_on_c, 1, 80, 127
2, 5240, Note_on_c, 1, 43, 127
2, 5240, Note_on_c, 1, 50, 127
2, 5240, Note_off_c, 1, 51, 0
2, 5240, Note_off_c, 1, 61, 0
2, 5240, Note_on_c, 1, 62, 127
2, 5240, Note_on_c, 1, 69, 127
2, 5240, Note_off_c, 1, 77, 0
2, 5240, Note_off_c, 1, 78, 0
2, 5240, Note_off_c, 1, 80, 0
2, 5280, Note_on_c, 1, 36, 127
2, 5280, Note_off_c, 1, 50, 0
2, 5280, Note_on_c, 1, 59, 127
2, 5280, Note_off_c, 1, 60, 0
2, 5280, Note_off_c, 1, 62, 0
2, 5280, Note_on_c, 1, 64, 127
2, 5280, Note_off_c, 1, 69, 0
2, 5320, Note_off_c, 1, 43, 0
2, 5320, Note_on_c, 1, 48, 127
2, 5320, Note_on_c, 1, 58, 127
2, 5320, Note_off_c, 1, 59, 0
2, 5360, Note_off_c, 1, 48, 0
2, 5360, Note_on_c, 1, 51, 127
2, 5360, Note_off_c, 1, 58, 0
2, 5360, Note_on_c, 1, 60, 127
2, 5360, Note_off_c, 1, 64, 0
2, 5400, Note_on_c, 1, 32, 127
2, 5400, Note_off_c, 1, 36, 0
2, 5400, Note_on_c, 1, 44, 127
2, 5400, Note_off_c, 1, 51, 0
2, 5400, Note_on_c, 1, 56, 127
2, 5400, Note_off_c, 1, 60, 0
2, 5400, Note_on_c, 1, 72, 127
2, 5400, Note_on_c, 1, 78, 127
2, 5440, Note_off_c, 1, 32, 0
2, 5440, Note_off_c, 1, 44, 0
2, 5440, Note_on_c, 1, 53, 127
2, 5440, Note_off_c, 1, 56, 0
2, 5440, Note_on_c, 1, 62, 127
2, 5440, Note_on_c, 1, 71, 127
2, 5440, Note_off_c, 1, 72, 0
2, 5440, Note_off_c, 1, 78, 0
2, 5440, Note_on_c, 1, 80, 127
2, 5440, Note_on_c, 1, 83, 127
2, 5480, Note_on_c, 1, 51, 127
2, 5480, Note_off_c, 1, 53, 0
2, 5480, Note_on_c, 1, 60, 127
2, 5480, Note_off_c, 1, 62, 0
2, 5480, Note_off_c, 1, 71, 0
2, 5480, Note_off_c, 1, 80, 0
2, 5480, Note_off_c, 1, 83, 0
2, 5480, Note_on_c, 1, 84, 127
2, 5480, Note_on_c, 1, 87, 127
2, 5520, Note_on_c, 1, 38, 127
2, 5520, Note_on_c, 1, 50, 127
2, 5520, Note_off_c, 1, 51, 0
2, 5520, Note_off_c, 1, 60, 0
2, 5520, Note_on_c, 1, 67, 127
2, 5520, Note_on_c, 1, 71, 127
2, 5520, Note_on_c, 1, 76, 127
2, 5520, Note_off_c, 1, 84, 0
2, 5520, Note_off_c, 1, 87, 0
2, 5560, Note_off_c, 1, 38, 0
2, 5560, Note_on_c, 1, 48, 127
2, 5560, Note_off_c, 1, 50, 0
2, 5560, Note_off_c, 1, 67, 0
2, 5560, Note_off_c, 1, 71, 0
2, 5560, Note_off_c, 1, 76, 0
2, 5560, Note_on_c, 1, 77, 127
2, 5560, Note_on_c, 1, 84, 127
2, 5560, Note_on_c, 1, 89, 127
2, 5600, Note_off_c, 1, 48, 0
2, 5600, Note_on_c, 1, 60, 127
2, 5600, Note_on_c, 1, 65, 127
2, 5600, Note_on_c, 1, 68, 127
2, 5600, Note_on_c, 1, 80, 127
2, 5600, Note_off_c, 1, 84, 0
2, 5600, Note_off_c, 1, 89, 0
2, 5640, Note_on_c, 1, 40, 127
2, 5640, Note_on_c, 1, 52, 127
2, 5640, Note_on_c, 1, 55, 127
2, 5640, Note_off_c, 1, 60, 0
2, 5640, Note_on_c, 1, 64, 127
2, 5640, Note_off_c, 1, 65, 0
2, 5640, Note_off_c, 1, 68, 0
2, 5640, Note_off_c, 1, 77, 0
2, 5640, Note_off_c, 1, 80, 0
2, 5680, Note_off_c, 1, 40, 0
2, 5680, Note_off_c, 1, 52, 0
2, 5680, Note_off_c, 1, 55, 0
2, 5680, Note_off_c, 1, 64, 0
2, 5680, Note_on_c, 1, 67, 127
2, 5680, Note_on_c, 1, 79, 127
2, 5680, Note_on_c, 1, 86, 127
2, 5680, Note_on_c, 1, 94, 127
2, 5720, Note_on_c, 1, 43, 127
2, 5720, Note_on_c, 1, 46, 127
2, 5720, Note_on_c, 1, 49, 127
2, 5720, Note_on_c, 1, 52, 127
2, 5720, Note_off_c, 1, 67, 0
2, 5720, Note_off_c, 1, 79, 0
2, 5720, Note_off_c, 1, 86, 0
2, 5720, Note_off_c, 1, 94, 0
2, 5760, Note_off_c, 1, 43, 0
2, 5760, Note_off_c, 1, 46, 0
2, 5760, Note_on_c, 1, 47, 127
2, 5760, Note_off_c, 1, 49, 0
2, 5760, Note_off_c, 1, 52, 0
2, 5760, Note_on_c, 1, 53, 127
2, 5760, Note_on_c, 1, 55, 127
2, 5760, Note_on_c, 1, 59, 127
2, 5760, Note_on_c, 1, 62, 127
2, 5760, Note_on_c, 1, 67, 127
2, 5800, Note_on_c, 1, 42, 127
2, 5800, Note_on_c, 1, 44, 127
2, 5800, Note_off_c, 1, 47, 0
2, 5800, Note_on_c, 1, 49, 127
2, 5800, Note_off_c, 1, 55, 0
2, 5800, Note_off_c, 1, 59, 0
2, 5800, Note_off_c, 1, 62, 0
2, 5800, Note_off_c, 1, 67, 0
2, 5800, Note_on_c, 1, 81, 127
2, 5840, Note_off_c, 1, 42, 0
2, 5840, Note_off_c, 1, 44, 0
2, 5840, Note_off_c, 1, 49, 0
2, 5840, Note_off_c, 1, 53, 0
2, 5840, Note_on_c, 1, 65, 127
2, 5840, Note_on_c, 1, 70, 127
2, 5840, Note_on_c, 1, 78, 127
2, 5840, Note_off_c, 1, 81, 0
2, 5840, Note_on_c, 1, 85, 127
2, 5840, Note_on_c, 1, 90, 127
2, 5880, Note_off_c, 1, 65, 0
2, 5880, Note_off_c, 1, 70, 0
2, 5880, Note_on_c, 1, 72, 127
2, 5880, Note_on_c, 1, 76, 127
2, 5880, Note_off_c, 1, 78, 0
2, 5880, Note_on_c, 1, 84, 127
2, 5880, Note_off_c, 1, 85, 0
2, 5880, Note_off_c, 1, 90, 0
2, 5880, Note_on_c, 1, 91, 127
2, 5880, Note_on_c, 1, 100, 127
2, 5880, Note_on_c, 1, 105, 127
2, 5920, Note_on_c, 1, 64, 127
2, 5920, Note_on_c, 1, 68, 127
2, 5920, Note_on_c, 1, 70, 127
2, 5920, Note_off_c, 1, 72, 0
2, 5920, Note_on_c, 1, 73, 127
2, 5920, Note_off_c, 1, 84, 0
2, 5920, Note_off_c, 1, 91, 0
2, 5920, Note_off_c, 1, 100, 0
2, 5920, Note_off_c, 1, 105, 0
2, 5960, Note_on_c, 1, 37, 127
2, 5960, Note_on_c, 1, 49, 127
2, 5960, Note_off_c, 1, 64, 0
2, 5960, Note_off_c, 1, 68, 0
2, 5960, Note_off_c, 1, 70, 0
2, 5960, Note_off_c, 1, 73, 0
2, 5960, Note_off_c, 1, 76, 0
2, 5960, Note_on_c, 1, 86, 127
2, 5960, Note_on_c, 1, 89, 127
2, 5960, Note_on_c, 1, 98, 127
2, 6000, Note_off_c, 1, 37, 0
2, 6000, Note_off_c, 1, 49, 0
2, 6000, Note_on_c, 1, 50, 127
2, 6000, Note_on_c, 1, 59, 127
2, 6000, Note_on_c, 1, 62, 127
2, 6000, Note_on_c, 1, 66, 127
2, 6000, Note_on_c, 1, 70, 127
2, 6000, Note_on_c, 1, 71, 127
2, 6000, Note_on_c, 1, 82, 127
2, 6000, Note_off_c, 1, 86, 0
2, 6000, Note_off_c, 1, 89, 0
2, 6000, Note_on_c, 1, 94, 127
2, 6000, Note_off_c, 1, 98, 0
2, 6040, Note_off_c, 1, 50, 0
2, 6040, Note_off_c, 1, 59, 0
2, 6040, Note_off_c, 1, 62, 0
2, 6040, Note_off_c, 1, 66, 0
2, 6040, Note_on_c, 1, 67, 127
2, 6040, Note_off_c, 1, 70, 0
2, 6040, Note_on_c, 1, 73, 127
2, 6040, Note_on_c, 1, 76, 127
2, 6040, Note_on_c, 1, 79, 127
2, 6040, Note_off_c, 1, 82, 0
2, 6040, Note_on_c, 1, 83, 127
2, 6040, Note_on_c, 1, 88, 127
2, 6040, Note_off_c, 1, 94, 0
2, 6040, Note_on_c, 1, 95, 127
2, 6080, Note_on_c, 1, 63, 127
2, 6080, Note_on_c, 1, 70, 127
2, 6080, Note_off_c, 1, 71, 0
2, 6080, Note_off_c, 1, 73, 0
2, 6080, Note_on_c, 1, 75, 127
2, 6080, Note_off_c, 1, 76, 0
2, 6080, Note_off_c, 1, 79, 0
2, 6080, Note_on_c, 1, 80, 127
2, 6080, Note_off_c, 1, 83, 0
2, 6080, Note_off_c, 1, 88, 0
2, 6080, Note_off_c, 1, 95, 0
2, 6120, Note_on_c, 1, 47, 127
2, 6120, Note_on_c, 1, 56, 127
2, 6120, Note_off_c, 1, 63, 0
2, 6120, Note_on_c, 1, 64, 127
2, 6120, Note_off_c, 1, 67, 0
2, 6120, Note_off_c, 1, 75, 0
2, 6120, Note_off_c, 1, 80, 0
2, 6160, Note_on_c, 1, 31, 127
2, 6160, Note_on_c, 1, 34, 127
2, 6160, Note_on_c, 1, 38, 127
2, 6160, Note_on_c, 1, 43, 127
2, 6160, Note_off_c, 1, 47, 0
2, 6160, Note_off_c, 1, 56, 0
2, 6160, Note_on_c, 1, 58, 127
2, 6160, Note_on_c, 1, 62, 127
2, 6160, Note_off_c, 1, 64, 0
2, 6160, Note_on_c, 1, 67, 127
2, 6160, Note_on_c, 1, 69, 127
2, 6160, Note_off_c, 1, 70, 0
2, 6200, Note_off_c, 1, 31, 0
2, 6200, Note_off_c, 1, 34, 0
2, 6200, Note_off_c, 1, 38, 0
2, 6200, Note_on_c, 1, 42, 127
2, 6200, Note_off_c, 1, 43, 0
2, 6200, Note_on_c, 1, 52, 127
2, 6200, Note_off_c, 1, 58, 0
2, 6200, Note_on_c, 1, 59, 127
2, 6200, Note_off_c, 1, 62, 0
2, 6200, Note_on_c, 1, 64, 127
2, 6200, Note_off_c, 1, 67, 0
2, 6200, Note_off_c, 1, 69, 0
2, 6240, Note_on_c, 1, 29, 127
2, 6240, Note_on_c, 1, 41, 127
2, 6240, Note_off_c, 1, 42, 0
2, 6240, Note_on_c, 1, 51, 127
2, 6240, Note_off_c, 1, 52, 0
2, 6240, Note_on_c, 1, 57, 127
2, 6240, Note_off_c, 1, 59, 0
2, 6240, Note_off_c, 1, 64, 0
2, 6280, Note_off_c, 1, 29, 0
2, 6280, Note_off_c, 1, 41, 0
2, 6280, Note_off_c, 1, 51, 0
2, 6280, Note_on_c, 1, 55, 127
2, 6280, Note_off_c, 1, 57, 0
2, 6280, Note_on_c, 1, 61, 127
2, 6280, Note_on_c, 1, 64, 127
2, 6280, Note_on_c, 1, 69, 127
2, 6280, Note_on_c, 1, 85, 127
2, 6320, Note_on_c, 1, 43, 127
2, 6320, Note_off_c, 1, 61, 0
2, 6320, Note_off_c, 1, 64, 0
2, 6320, Note_off_c, 1, 69, 0
2, 6320, Note_on_c, 1, 74, 127
2, 6320, Note_on_c, 1, 79, 127
2, 6320, Note_off_c, 1, 85, 0
2, 6320, Note_on_c, 1, 86, 127
2, 6360, Note_off_c, 1, 43, 0
2, 6360, Note_off_c, 1, 55, 0
2, 6360, Note_off_c, 1, 74, 0
2, 6360, Note_off_c, 1, 79, 0
2, 6360, Note_on_c, 1, 81, 127
2, 6360, Note_off_c, 1, 86, 0
2, 6360, Note_on_c, 1, 90, 127
2, 6400, Note_on_c, 1, 57, 127
2, 6400, Note_on_c, 1, 60, 127
2, 6400, Note_on_c, 1, 65, 127
2, 6400, Note_on_c, 1, 69, 127
2, 6400, Note_off_c, 1, 81, 0
2, 6400, Note_on_c, 1, 84, 127
2, 6400, Note_off_c, 1, 90, 0
2, 6600, Note_off_c, 1, 57, 0
2, 6600, Note_off_c, 1, 60, 0
2, 6600, Note_off_c, 1, 65, 0
2, 6600, Note_off_c, 1, 69, 0
2, 6600, Note_off_c, 1, 84, 0
2, 6600, Note_on_c, 1, 90, 127
2, 6600, Note_on_c, 1, 91, 127
2, 6640, Note_off_c, 1, 90, 0
2, 6640, Note_off_c, 1, 91, 0
2, 6680, Note_on_c, 1, 36, 127
2, 6680, Note_on_c, 1, 40, 127
2, 6680, Note_on_c, 1, 43, 127
2, 6680, Note_on_c, 1, 48, 127
2, 6680, Note_on_c, 1, 55, 127
2, 6720, Note_off_c, 1, 36, 0
2, 6720, Note_off_c, 1, 43, 0
2, 6720, Note_off_c, 1, 48, 0
2, 6720, Note_on_c, 1, 49, 127
2, 6720, Note_off_c, 1, 55, 0
2, 6720, Note_on_c, 1, 76, 127
2, 6720, Note_on_c, 1, 85, 127
2, 6760, Note_off_c, 1, 40, 0
2, 6760, Note_on_c, 1, 52, 127
2, 6760, Note_on_c, 1, 57, 127
2, 6760, Note_on_c, 1, 61, 127
2, 6760, Note_on_c, 1, 63, 127
2, 6760, Note_off_c, 1, 76, 0
2, 6760, Note_off_c, 1, 85, 0
2, 6800, Note_on_c, 1, 41, 127
2, 6800, Note_off_c, 1, 49, 0
2, 6800, Note_off_c, 1, 52, 0
2, 6800, Note_off_c, 1, 57, 0
2, 6800, Note_off_c, 1, 61, 0
2, 6800, Note_off_c, 1, 63, 0
2, 6800, Note_on_c, 1, 80, 127
2, 6800, Note_on_c, 1, 84, 127
2, 6800, Note_on_c, 1, 89, 127
2, 6840, Note_off_c, 1, 41, 0
2, 6840, Note_off_c, 1, 80, 0
2, 6840, Note_off_c, 1, 84, 0
2, 6840, Note_on_c, 1, 88, 127
2, 6840, Note_off_c, 1, 89, 0
2, 6880, Note_on_c, 1, 80, 127
2, 6880, Note_on_c, 1, 84, 127
2, 6880, Note_off_c, 1, 88, 0
2, 6880, Note_on_c, 1, 96, 127
2, 6920, Note_on_c, 1, 75, 127
2, 6920, Note_on_c, 1, 78, 127
2, 6920, Note_off_c, 1, 80, 0
2, 6920, Note_on_c, 1, 82, 127
2, 6920, Note_off_c, 1, 84, 0
2, 6920, Note_on_c, 1, 87, 127
2, 6920, Note_on_c, 1, 90, 127
2, 6920, Note_off_c, 1, 96, 0
2, 6960, Note_off_c, 1, 75, 0
2, 6960, Note_off_c, 1, 78, 0
2, 6960, Note_off_c, 1, 82, 0
2, 6960, Note_off_c, 1, 87, 0
2, 6960, Note_off_c, 1, 90, 0
2, 6960, Note_on_c, 1, 91, 127
2, 6960, Note_on_c, 1, 92, 127
2, 7000, Note_on_c, 1, 80, 127
2, 7000, Note_on_c, 1, 84, 127
2, 7000, Note_off_c, 1, 91, 0
2, 7000, Note_off_c, 1, 92, 0
2, 7000, Note_on_c, 1, 96, 127
2, 7080, Note_off_c, 1, 80, 0
2, 7080, Note_on_c, 1, 82, 127
2, 7080, Note_off_c, 1, 84, 0
2, 7080, Note_on_c, 1, 92, 127
2, 7080, Note_off_c, 1, 96, 0
2, 7120, Note_on_c, 1, 58, 127
2, 7120, Note_on_c, 1, 64, 127
2, 7120, Note_on_c, 1, 66, 127
2, 7120, Note_on_c, 1, 76, 127
2, 7120, Note_on_c, 1, 78, 127
2, 7120, Note_on_c, 1, 87, 127
2, 7120, Note_off_c, 1, 92, 0
2, 7160, Note_off_c, 1, 58, 0
2, 7160, Note_off_c, 1, 64, 0
2, 7160, Note_off_c, 1, 66, 0
2, 7160, Note_off_c, 1, 76, 0
2, 7160, Note_on_c, 1, 81, 127
2, 7160, Note_off_c, 1, 82, 0
2, 7160, Note_on_c, 1, 99, 127
2, 7200, Note_on_c, 1, 49, 127
2, 7200, Note_on_c, 1, 56, 127
2, 7200, Note_on_c, 1, 58, 127
2, 7200, Note_on_c, 1, 61, 127
2, 7200, Note_on_c, 1, 68, 127
2, 7200, Note_off_c, 1, 78, 0
2, 7200, Note_on_c, 1, 80, 127
2, 7200, Note_off_c, 1, 81, 0
2, 7200, Note_off_c, 1, 87, 0
2, 7200, Note_off_c, 1, 99, 0
2, 7240, Note_off_c, 1, 49, 0
2, 7240, Note_off_c, 1, 58, 0
2, 7240, Note_off_c, 1, 61, 0
2, 7240, Note_on_c, 1, 63, 127
2, 7240, Note_off_c, 1, 68, 0
2, 7240, Note_on_c, 1, 78, 127
2, 7240, Note_off_c, 1, 80, 0
2, 7240, Note_on_c, 1, 84, 127
2, 7280, Note_off_c, 1, 56, 0
2, 7280, Note_off_c, 1, 63, 0
2, 7280, Note_on_c, 1, 64, 127
2, 7280, Note_on_c, 1, 65, 127
2, 7280, Note_on_c, 1, 70, 127
2, 7280, Note_off_c, 1, 78, 0
2, 7280, Note_off_c, 1, 84, 0
2, 7320, Note_on_c, 1, 62, 127
2, 7320, Note_off_c, 1, 64, 0
2, 7320, Note_on_c, 1, 69, 127
2, 7320, Note_off_c, 1, 70, 0
2, 7320, Note_on_c, 1, 74, 127
2, 7320, Note_on_c, 1, 81, 127
2, 7320, Note_on_c, 1, 86, 127
2, 7360, Note_off_c, 1, 62, 0
2, 7360, Note_off_c, 1, 65, 0
2, 7360, Note_off_c, 1, 74, 0
2, 7360, Note_off_c, 1, 81, 0
2, 7360, Note_off_c, 1, 86, 0
2, 7360, Note_on_c, 1, 93, 127
2, 7360, Note_on_c, 1, 96, 127
2, 7400, Note_on_c, 1, 53, 127
2, 7400, Note_off_c, 1, 69, 0
2, 7400, Note_on_c, 1, 77, 127
2, 7400, Note_on_c, 1, 85, 127
2, 7400, Note_off_c, 1, 93, 0
2, 7400, Note_off_c, 1, 96, 0
2, 7440, Note_off_c, 1, 53, 0
2, 7440, Note_on_c, 1, 66, 127
2, 7440, Note_on_c, 1, 71, 127
2, 7440, Note_on_c, 1, 74, 127
2, 7440, Note_off_c, 1, 77, 0
2, 7440, Note_off_c, 1, 85, 0
2, 7440, Note_on_c, 1, 90, 127
2, 7480, Note_on_c, 1, 64, 127
2, 7480, Note_off_c, 1, 66, 0
2, 7480, Note_off_c, 1, 71, 0
2, 7480, Note_off_c, 1, 74, 0
2, 7480, Note_on_c, 1, 76, 127
2, 7480, Note_on_c, 1, 80, 127
2, 7480, Note_on_c, 1, 83, 127
2, 7480, Note_off_c, 1, 90, 0
2, 7480, Note_on_c, 1, 92, 127
2, 7520, Note_off_c, 1, 64, 0
2, 7520, Note_on_c, 1, 68, 127
2, 7520, Note_off_c, 1, 76, 0
2, 7520, Note_off_c, 1, 80, 0
2, 7520, Note_off_c, 1, 83, 0
2, 7520, Note_on_c, 1, 89, 127
2, 7520, Note_off_c, 1, 92, 0
2, 7560, Note_off_c, 1, 68, 0
2, 7560, Note_on_c, 1, 74, 127
2, 7560, Note_on_c, 1, 87, 127
2, 7600, Note_on_c, 1, 48, 127
2, 7600, Note_on_c, 1, 60, 127
2, 7600, Note_off_c, 1, 74, 0
2, 7600, Note_on_c, 1, 81, 127
2, 7600, Note_on_c, 1, 86, 127
2, 7600, Note_off_c, 1, 87, 0
2, 7600, Note_off_c, 1, 89, 0
2, 7640, Note_off_c, 1, 81, 0
2, 7640, Note_on_c, 1, 83, 127
2, 7640, Note_on_c, 1, 91, 127
2, 7640, Note_on_c, 1, 95, 127
2, 7680, Note_on_c, 1, 41, 127
2, 7680, Note_off_c, 1, 48, 0
2, 7680, Note_on_c, 1, 53, 127
2, 7680, Note_off_c, 1, 60, 0
2, 7680, Note_on_c, 1, 69, 127
2, 7680, Note_on_c, 1, 73, 127
2, 7680, Note_on_c, 1, 77, 127
2, 7680, Note_off_c, 1, 83, 0
2, 7680, Note_off_c, 1, 86, 0
2, 7680, Note_off_c, 1, 91, 0
2, 7680, Note_off_c, 1, 95, 0
2, 7720, Note_off_c, 1, 41, 0
2, 7720, Note_on_c, 1, 42, 127
2, 7720, Note_off_c, 1, 53, 0
2, 7720, Note_on_c, 1, 54, 127
2, 7720, Note_on_c, 1, 56, 127
2, 7720, Note_on_c, 1, 61, 127
2, 7720, Note_on_c, 1, 64, 127
2, 7720, Note_off_c, 1, 69, 0
2, 7720, Note_off_c, 1, 73, 0
2, 7720, Note_off_c, 1, 77, 0
2, 7760, Note_off_c, 1, 42, 0
2, 7760, Note_off_c, 1, 54, 0
2, 7760, Note_off_c, 1, 56, 0
2, 7760, Note_off_c, 1, 61, 0
2, 7760, Note_off_c, 1, 64, 0
2, 7760, Note_on_c, 1, 67, 127
2, 7760, Note_on_c, 1, 70, 127
2, 7760, Note_on_c, 1, 75, 127
2, 7760, Note_on_c, 1, 79, 127
2, 7760, Note_on_c, 1, 94, 127
2, 7800, Note_on_c, 1, 49, 127
2, 7800, Note_off_c, 1, 67, 0
2, 7800, Note_off_c, 1, 70, 0
2, 7800, Note_off_c, 1, 75, 0
2, 7800, Note_on_c, 1, 76, 127
2, 7800, Note_on_c, 1, 77, 127
2, 7800, Note_on_c, 1, 80, 127
2, 7800, Note_off_c, 1, 94, 0
2, 7840, Note_off_c, 1, 49, 0
2, 7840, Note_on_c, 1, 51, 127
2, 7840, Note_on_c, 1, 65, 127
2, 7840, Note_on_c, 1, 73, 127
2, 7840, Note_off_c, 1, 76, 0
2, 7840, Note_off_c, 1, 77, 0
2, 7840, Note_off_c, 1, 79, 0
2, 7920, Note_on_c, 1, 41, 127
2, 7920, Note_off_c, 1, 51, 0
2, 7920, Note_off_c, 1, 65, 0
2, 7920, Note_on_c, 1, 72, 127
2, 7920, Note_off_c, 1, 73, 0
2, 7920, Note_on_c, 1, 76, 127
2, 7920, Note_off_c, 1, 80, 0
2, 7960, Note_on_c, 1, 33, 127
2, 7960, Note_on_c, 1, 45, 127
2, 7960, Note_on_c, 1, 63, 127
2, 7960, Note_off_c, 1, 72, 0
2, 7960, Note_off_c, 1, 76, 0
2, 8000, Note_off_c, 1, 33, 0
2, 8000, Note_off_c, 1, 41, 0
2, 8000, Note_off_c, 1, 45, 0
2, 8000, Note_on_c, 1, 47, 127
2, 8000, Note_off_c, 1, 63, 0
2, 8000, Note_on_c, 1, 67, 127
2, 8000, Note_on_c, 1, 74, 127
2, 8000, Note_on_c, 1, 78, 127
2, 8040, Note_off_c, 1, 47, 0
2, 8040, Note_on_c, 1, 49, 127
2, 8040, Note_on_c, 1, 52, 127
2, 8040, Note_on_c, 1, 55, 127
2, 8040, Note_on_c, 1, 57, 127
2, 8040, Note_off_c, 1, 67, 0
2, 8040, Note_off_c, 1, 74, 0
2, 8040, Note_off_c, 1, 78, 0
2, 8040, Note_on_c, 1, 87, 127
2, 8040, Note_on_c, 1, 88, 127
2, 8080, Note_off_c, 1, 49, 0
2, 8080, Note_off_c, 1, 52, 0
2, 8080, Note_on_c, 1, 53, 127
2, 8080, Note_off_c, 1, 55, 0
2, 8080, Note_off_c, 1, 57, 0
2, 8080, Note_on_c, 1, 74, 127
2, 8080, Note_on_c, 1, 81, 127
2, 8080, Note_on_c, 1, 83, 127
2, 8080, Note_off_c, 1, 87, 0
2, 8080, Note_off_c, 1, 88, 0
2, 8120, Note_on_c, 1, 34, 127
2, 8120, Note_on_c, 1, 41, 127
2, 8120, Note_off_c, 1, 53, 0
2, 8120, Note_on_c, 1, 60, 127
2, 8120, Note_on_c, 1, 62, 127
2, 8120, Note_on_c, 1, 72, 127
2, 8120, Note_off_c, 1, 74, 0
2, 8120, Note_off_c, 1, 81, 0
2, 8120, Note_off_c, 1, 83, 0
2, 8160, Note_off_c, 1, 34, 0
2, 8160, Note_off_c, 1, 41, 0
2, 8160, Note_on_c, 1, 56, 127
2, 8160, Note_off_c, 1, 60, 0
2, 8160, Note_off_c, 1, 62, 0
2, 8160, Note_on_c, 1, 66, 127
2, 8160, Note_off_c, 1, 72, 0
2, 8160, Note_on_c, 1, 98, 127
2, 8200, Note_off_c, 1, 56, 0
2, 8200, Note_on_c, 1, 65, 127
2, 8200, Note_off_c, 1, 66, 0
2, 8200, Note_on_c, 1, 68, 127
2, 8200, Note_on_c, 1, 72, 127
2, 8200, Note_on_c, 1, 84, 127
2, 8200, Note_on_c, 1, 89, 127
2, 8200, Note_off_c, 1, 98, 0
2, 8240, Note_on_c, 1, 50, 127
2, 8240, Note_on_c, 1, 52, 127
2, 8240, Note_on_c, 1, 55, 127
2, 8240, Note_on_c, 1, 57, 127
2, 8240, Note_on_c, 1, 61, 127
2, 8240, Note_off_c, 1, 65, 0
2, 8240, Note_off_c, 1, 68, 0
2, 8240, Note_off_c, 1, 72, 0
2, 8240, Note_off_c, 1, 84, 0
2, 8240, Note_off_c, 1, 89, 0
2, 8280, Note_on_c, 1, 39, 127
2, 8280, Note_off_c, 1, 50, 0
2, 8280, Note_off_c, 1, 52, 0
2, 8280, Note_off_c, 1, 55, 0
2, 8280, Note_off_c, 1, 57, 0
2, 8280, Note_off_c, 1, 61, 0
2, 8280, Note_on_c, 1, 90, 127
2, 8280, Note_on_c, 1, 92, 127
2, 8320, Note_off_c, 1, 39, 0
2, 8320, Note_on_c, 1, 55, 127
2, 8320, Note_on_c, 1, 60, 127
2, 8320, Note_on_c, 1, 64, 127
2, 8320, Note_on_c, 1, 70, 127
2, 8320, Note_on_c, 1, 72, 127
2, 8320, Note_on_c, 1, 76, 127
2, 8320, Note_off_c, 1, 90, 0
2, 8320, Note_off_c, 1, 92, 0
2, 8360, Note_off_c, 1, 55, 0
2, 8360, Note_off_c, 1, 60, 0
2, 8360, Note_off_c, 1, 64, 0
2, 8360, Note_on_c, 1, 65, 127
2, 8360, Note_on_c, 1, 66, 127
2, 8360, Note_on_c, 1, 68, 127
2, 8360, Note_off_c, 1, 72, 0
2, 8360, Note_off_c, 1, 76, 0
2, 8400, Note_on_c, 1, 48, 127
2, 8400, Note_on_c, 1, 64, 127
2, 8400, Note_off_c, 1, 65, 0
2, 8400, Note_off_c, 1, 66, 0
2, 8400, Note_off_c, 1, 68, 0
2, 8400, Note_on_c, 1, 69, 127
2, 8400, Note_off_c, 1, 70, 0
2, 8400, Note_on_c, 1, 73, 127
2, 8440, Note_on_c, 1, 33, 127
2, 8440, Note_on_c, 1, 45, 127
2, 8440, Note_off_c, 1, 48, 0
2, 8440, Note_off_c, 1, 64, 0
2, 8440, Note_on_c, 1, 67, 127
2, 8440, Note_off_c, 1, 69, 0
2, 8440, Note_on_c, 1, 79, 127
2, 8480, Note_off_c, 1, 33, 0
2, 8480, Note_off_c, 1, 45, 0
2, 8480, Note_on_c, 1, 51, 127
2, 8480, Note_on_c, 1, 55, 127
2, 8480, Note_on_c, 1, 60, 127
2, 8480, Note_on_c, 1, 63, 127
2, 8480, Note_off_c, 1, 67, 0
2, 8480, Note_off_c, 1, 73, 0
2, 8480, Note_off_c, 1, 79, 0
2, 8480, Note_on_c, 1, 96, 127
2, 8520, Note_off_c, 1, 51, 0
2, 8520, Note_off_c, 1, 55, 0
2, 8520, Note_on_c, 1, 59, 127
2, 8520, Note_off_c, 1, 60, 0
2, 8520, Note_on_c, 1, 62, 127
2, 8520, Note_off_c, 1, 63, 0
2, 8520, Note_on_c, 1, 73, 127
2, 8520, Note_on_c, 1, 76, 127
2, 8520, Note_off_c, 1, 96, 0
2, 8560, Note_on_c, 1, 50, 127
2, 8560, Note_off_c, 1, 59, 0
2, 8560, Note_on_c, 1, 65, 127
2, 8560, Note_off_c, 1, 73, 0
2, 8560, Note_on_c, 1, 74, 127
2, 8560, Note_on_c, 1, 75, 127
2, 8560, Note_off_c, 1, 76, 0
2, 8600, Note_on_c, 1, 45, 127
2, 8600, Note_on_c, 1, 48, 127
2, 8600, Note_off_c, 1, 50, 0
2, 8600, Note_off_c, 1, 62, 0
2, 8600, Note_off_c, 1, 74, 0
2, 8640, Note_on_c, 1, 44, 127
2, 8640, Note_off_c, 1, 45, 0
2, 8640, Note_on_c, 1, 51, 127
2, 8640, Note_off_c, 1, 65, 0
2, 8640, Note_on_c, 1, 67, 127
2, 8640, Note_off_c, 1, 75, 0
2, 8680, Note_on_c, 1, 41, 127
2, 8680, Note_off_c, 1, 44, 0
2, 8680, Note_off_c, 1, 51, 0
2, 8680, Note_on_c, 1, 63, 127
2, 8680, Note_off_c, 1, 67, 0
2, 8680, Note_on_c, 1, 69, 127
2, 8680, Note_on_c, 1, 72, 127
2, 8680, Note_on_c, 1, 81, 127
2, 8680, Note_on_c, 1, 84, 127
2, 8720, Note_on_c, 1, 34, 127
2, 8720, Note_on_c, 1, 40, 127
2, 8720, Note_off_c, 1, 41, 0
2, 8720, Note_on_c, 1, 46, 127
2, 8720, Note_off_c, 1, 48, 0
2, 8720, Note_off_c, 1, 63, 0
2, 8720, Note_off_c, 1, 69, 0
2, 8720, Note_off_c, 1, 72, 0
2, 8720, Note_off_c, 1, 81, 0
2, 8720, Note_off_c, 1, 84, 0
2, 8760, Note_off_c, 1, 34, 0
2, 8760, Note_off_c, 1, 40, 0
2, 8760, Note_off_c, 1, 46, 0
2, 8760, Note_on_c, 1, 49, 127
2, 8760, Note_on_c, 1, 99, 127
2, 8800, Note_off_c, 1, 49, 0
2, 8800, Note_off_c, 1, 99, 0
2, 8840, Note_on_c, 1, 34, 127
2, 8840, Note_on_c, 1, 61, 127
2, 8840, Note_on_c, 1, 63, 127
2, 8880, Note_off_c, 1, 34, 0
2, 8880, Note_on_c, 1, 41, 127
2, 8880, Note_on_c, 1, 53, 127
2, 8880, Note_off_c, 1, 61, 0
2, 8880, Note_off_c, 1, 63, 0
2, 8880, Note_on_c, 1, 70, 127
2, 8880, Note_on_c, 1, 74, 127
2, 8880, Note_on_c, 1, 77, 127
2, 8880, Note_on_c, 1, 82, 127
2, 8920, Note_on_c, 1, 30, 127
2, 8920, Note_on_c, 1, 35, 127
2, 8920, Note_on_c, 1, 39, 127
2, 8920, Note_off_c, 1, 41, 0
2, 8920, Note_on_c, 1, 42, 127
2, 8920, Note_on_c, 1, 47, 127
2, 8920, Note_on_c, 1, 51, 127
2, 8920, Note_off_c, 1, 53, 0
2, 8920, Note_on_c, 1, 59, 127
2, 8920, Note_off_c, 1, 74, 0
2, 8920, Note_off_c, 1, 77, 0
2, 8920, Note_on_c, 1, 78, 127
2, 8960, Note_off_c, 1, 30, 0
2, 8960, Note_off_c, 1, 35, 0
2, 8960, Note_off_c, 1, 39, 0
2, 8960, Note_off_c, 1, 42, 0
2, 8960, Note_off_c, 1, 51, 0
2, 8960, Note_on_c, 1, 54, 127
2, 8960, Note_on_c, 1, 57, 127
2, 8960, Note_off_c, 1, 59, 0
2, 8960, Note_on_c, 1, 66, 127
2, 8960, Note_on_c, 1, 69, 127
2, 8960, Note_off_c, 1, 70, 0
2, 8960, Note_on_c, 1, 73, 127
2, 8960, Note_off_c, 1, 82, 0
2, 9000, Note_off_c, 1, 47, 0
2, 9000, Note_off_c, 1, 54, 0
2, 9000, Note_off_c, 1, 57, 0
2, 9000, Note_off_c, 1, 66, 0
2, 9000, Note_off_c, 1, 69, 0
2, 9000, Note_off_c, 1, 73, 0
2, 9000, Note_off_c, 1, 78, 0
2, 9000, Note_on_c, 1, 94, 127
2, 9000, Note_on_c, 1, 99, 127
2, 9000, Note_on_c, 1, 101, 127
2, 9040, Note_on_c, 1, 58, 127
2, 9040, Note_on_c, 1, 79, 127
2, 9040, Note_on_c, 1, 82, 127
2, 9040, Note_off_c, 1, 94, 0
2, 9040, Note_off_c, 1, 99, 0
2, 9040, Note_off_c, 1, 101, 0
2, 9080, Note_on_c, 1, 52, 127
2, 9080, Note_off_c, 1, 58, 0
2, 9080, Note_on_c, 1, 71, 127
2, 9080, Note_on_c, 1, 77, 127
2, 9080, Note_off_c, 1, 82, 0
2, 9080, Note_on_c, 1, 83, 127
2, 9120, Note_off_c, 1, 52, 0
2, 9120, Note_on_c, 1, 57, 127
2, 9120, Note_on_c, 1, 59, 127
2, 9120, Note_on_c, 1, 63, 127
2, 9120, Note_on_c, 1, 66, 127
2, 9120, Note_on_c, 1, 69, 127
2, 9120, Note_off_c, 1, 77, 0
2, 9120, Note_on_c, 1, 78, 127
2, 9120, Note_off_c, 1, 79, 0
2, 9120, Note_off_c, 1, 83, 0
2, 9160, Note_off_c, 1, 57, 0
2, 9160, Note_off_c, 1, 59, 0
2, 9160, Note_on_c, 1, 60, 127
2, 9160, Note_off_c, 1, 63, 0
2, 9160, Note_off_c, 1, 66, 0
2, 9160, Note_on_c, 1, 68, 127
2, 9160, Note_off_c, 1, 69, 0
2, 9160, Note_off_c, 1, 71, 0
2, 9160, Note_on_c, 1, 72, 127
2, 9160, Note_on_c, 1, 76, 127
2, 9160, Note_off_c, 1, 78, 0
2, 9160, Note_on_c, 1, 80, 127
2, 9160, Note_on_c, 1, 88, 127
2, 9200, Note_off_c, 1, 60, 0
2, 9200, Note_off_c, 1, 68, 0
2, 9200, Note_off_c, 1, 72, 0
2, 9200, Note_off_c, 1, 76, 0
2, 9200, Note_off_c, 1, 80, 0
2, 9200, Note_off_c, 1, 88, 0
2, 9200, Note_on_c, 1, 92, 127
2, 9200, Note_on_c, 1, 95, 127
2, 9200, Note_on_c, 1, 101, 127
2, 9240, Note_on_c, 1, 62, 127
2, 9240, Note_on_c, 1, 69, 127
2, 9240, Note_on_c, 1, 73, 127
2, 9240, Note_on_c, 1, 74, 127
2, 9240, Note_on_c, 1, 85, 127
2, 9240, Note_off_c, 1, 92, 0
2, 9240, Note_off_c, 1, 95, 0
2, 9240, Note_on_c, 1, 97, 127
2, 9240, Note_off_c, 1, 101, 0
2, 9280, Note_on_c, 1, 38, 127
2, 9280, Note_off_c, 1, 62, 0
2, 9280, Note_off_c, 1, 69, 0
2, 9280, Note_on_c, 1, 71, 127
2, 9280, Note_off_c, 1, 73, 0
2, 9280, Note_off_c, 1, 74, 0
2, 9280, Note_on_c, 1, 77, 127
2, 9280, Note_on_c, 1, 79, 127
2, 9280, Note_on_c, 1, 83, 127
2, 9280, Note_off_c, 1, 85, 0
2, 9280, Note_off_c, 1, 97, 0
2, 9320, Note_off_c, 1, 38, 0
2, 9320, Note_on_c, 1, 63, 127
2, 9320, Note_off_c, 1, 71, 0
2, 9320, Note_on_c, 1, 72, 127
2, 9320, Note_on_c, 1, 75, 127
2, 9320, Note_off_c, 1, 79, 0
2, 9320, Note_off_c, 1, 83, 0
2, 9360, Note_off_c, 1, 63, 0
2, 9360, Note_on_c, 1, 66, 127
2, 9360, Note_off_c, 1, 77, 0
2, 9360, Note_on_c, 1, 84, 127
2, 9400, Note_on_c, 1, 46, 127
2, 9400, Note_on_c, 1, 57, 127
2, 9400, Note_off_c, 1, 66, 0
2, 9400, Note_off_c, 1, 72, 0
2, 9400, Note_off_c, 1, 75, 0
2, 9400, Note_on_c, 1, 77, 127
2, 9400, Note_off_c, 1, 84, 0
2, 9440, Note_on_c, 1, 34, 127
2, 9440, Note_on_c, 1, 38, 127
2, 9440, Note_on_c, 1, 41, 127
2, 9440, Note_off_c, 1, 46, 0
2, 9440, Note_on_c, 1, 53, 127
2, 9440, Note_off_c, 1, 57, 0
2, 9440, Note_off_c, 1, 77, 0
2, 9480, Note_on_c, 1, 37, 127
2, 9480, Note_off_c, 1, 38, 0
2, 9480, Note_off_c, 1, 41, 0
2, 9480, Note_on_c, 1, 46, 127
2, 9480, Note_off_c, 1, 53, 0
2, 9480, Note_on_c, 1, 61, 127
2, 9520, Note_off_c, 1, 34, 0
2, 9520, Note_off_c, 1, 37, 0
2, 9520, Note_off_c, 1, 46, 0
2, 9520, Note_on_c, 1, 58, 127
2, 9520, Note_off_c, 1, 61, 0
2, 9520, Note_on_c, 1, 67, 127
2, 9520, Note_on_c, 1, 70, 127
2, 9520, Note_on_c, 1, 76, 127
2, 9520, Note_on_c, 1, 85, 127
2, 9560, Note_on_c, 1, 52, 127
2, 9560, Note_on_c, 1, 55, 127
2, 9560, Note_off_c, 1, 58, 0
2, 9560, Note_off_c, 1, 67, 0
2, 9560, Note_off_c, 1, 70, 0
2, 9560, Note_on_c, 1, 82, 127
2, 9560, Note_off_c, 1, 85, 0
2, 9600, Note_on_c, 1, 36, 127
2, 9600, Note_on_c, 1, 48, 127
2, 9600, Note_off_c, 1, 52, 0
2, 9600, Note_off_c, 1, 55, 0
2, 9600, Note_on_c, 1, 60, 127
2, 9600, Note_off_c, 1, 76, 0
2, 9600, Note_off_c, 1, 82, 0
2, 9600, Note_on_c, 1, 87, 127
2, 9600, Note_on_c, 1, 89, 127
2, 9640, Note_off_c, 1, 36, 0
2, 9640, Note_off_c, 1, 48, 0
2, 9640, Note_on_c, 1, 53, 127
2, 9640, Note_on_c, 1, 57, 127
2, 9640, Note_on_c, 1, 59, 127
2, 9640, Note_off_c, 1, 60, 0
2, 9640, Note_on_c, 1, 62, 127
2, 9640, Note_off_c, 1, 87, 0
2, 9640, Note_off_c, 1, 89, 0
2, 9680, Note_off_c, 1, 53, 0
2, 9680, Note_off_c, 1, 57, 0
2, 9680, Note_off_c, 1, 59, 0
2, 9680, Note_off_c, 1, 62, 0
2, 9720, Note_on_c, 1, 41, 127
2, 9720, Note_on_c, 1, 69, 127
2, 9800, Note_on_c, 1, 32, 127
2, 9800, Note_off_c, 1, 41, 0
2, 9800, Note_on_c, 1, 44, 127
2, 9800, Note_on_c, 1, 47, 127
2, 9800, Note_on_c, 1, 53, 127
2, 9800, Note_on_c, 1, 61, 127
2, 9800, Note_off_c, 1, 69, 0
2, 9880, Note_off_c, 1, 32, 0
2, 9880, Note_off_c, 1, 47, 0
2, 9880, Note_on_c, 1, 51, 127
2, 9880, Note_off_c, 1, 53, 0
2, 9880, Note_on_c, 1, 59, 127
2, 9880, Note_off_c, 1, 61, 0
2, 9880, Note_on_c, 1, 63, 127
2, 9880, Note_on_c, 1, 67, 127
2, 9880, Note_on_c, 1, 71, 127
2, 9920, Note_on_c, 1, 34, 127
2, 9920, Note_off_c, 1, 44, 0
2, 9920, Note_on_c, 1, 46, 127
2, 9920, Note_on_c, 1, 49, 127
2, 9920, Note_off_c, 1, 51, 0
2, 9920, Note_on_c, 1, 54, 127
2, 9920, Note_off_c, 1, 59, 0
2, 9920, Note_on_c, 1, 61, 127
2, 9920, Note_off_c, 1, 63, 0
2, 9920, Note_off_c, 1, 67, 0
2, 9920, Note_off_c, 1, 71, 0
2, 9960, Note_on_c, 1, 32, 127
2, 9960, Note_off_c, 1, 34, 0
2, 9960, Note_on_c, 1, 44, 127
2, 9960, Note_off_c, 1, 46, 0
2, 9960, Note_on_c, 1, 47, 127
2, 9960, Note_off_c, 1, 49, 0
2, 9960, Note_on_c, 1, 53, 127
2, 9960, Note_off_c, 1, 54, 0
2, 10120, Note_off_c, 1, 32, 0
2, 10120, Note_off_c, 1, 44, 0
2, 10120, Note_off_c, 1, 47, 0
2, 10120, Note_off_c, 1, 53, 0
2, 10120, Note_off_c, 1, 61, 0
2, 10160, Note_on_c, 1, 48, 127
2, 10160, Note_on_c, 1, 77, 127
2, 10160, Note_on_c, 1, 89, 127
2, 10720, Note_off_c, 1, 48, 0
2, 10720, Note_off_c, 1, 77, 0
2, 10720, Note_off_c, 1, 89, 0
2, 10760, Note_on_c, 1, 60, 127
2, 10760, Note_on_c, 1, 67, 127
2, 10760, Note_on_c, 1, 70, 127
2, 10760, Note_on_c, 1, 82, 127
2, 10800, Note_on_c, 1, 79, 127
2, 10800, Note_off_c, 1, 82, 0
2, 10880, Note_on_c, 1, 76, 127
2, 10880, Note_off_c, 1, 79, 0
2, 10920, Note_off_c, 1, 60, 0
2, 10920, Note_off_c, 1, 67, 0
2, 10920, Note_off_c, 1, 70, 0
2, 10920, Note_off_c, 1, 76, 0
2, 10960, Note_on_c, 1, 60, 127
2, 10960, Note_on_c, 1, 67, 127
2, 10960, Note_on_c, 1, 70, 127
2, 10960, Note_on_c, 1, 79, 127
2, 11000, Note_off_c, 1, 79, 0
2, 11000, Note_on_c, 1, 81, 127
2, 11040, Note_on_c, 1, 79, 127
2, 11040, Note_off_c, 1, 81, 0
2, 11160, Note_on_c, 1, 44, 127
2, 11160, Note_off_c, 1, 60, 0
2, 11160, Note_off_c, 1, 67, 0
2, 11160, Note_off_c, 1, 70, 0
2, 11160, Note_on_c, 1, 72, 127
2, 11160, Note_on_c, 1, 75, 127
2, 11160, Note_off_c, 1, 79, 0
2, 11200, Note_off_c, 1, 44, 0
2, 11200, Note_on_c, 1, 62, 127
2, 11200, Note_on_c, 1, 68, 127
2, 11200, Note_off_c, 1, 72, 0
2, 11200, Note_off_c, 1, 75, 0
2, 11200, Note_on_c, 1, 86, 127
2, 11200, Note_on_c, 1, 89, 127
2, 11240, Note_on_c, 1, 51, 127
2, 11240, Note_off_c, 1, 62, 0
2, 11240, Note_off_c, 1, 68, 0
2, 11240, Note_off_c, 1, 86, 0
2, 11240, Note_off_c, 1, 89, 0
2, 11240, Note_on_c, 1, 92, 127
2, 11240, Note_on_c, 1, 95, 127
2, 11280, Note_off_c, 1, 51, 0
2, 11280, Note_on_c, 1, 60, 127
2, 11280, Note_on_c, 1, 67, 127
2, 11280, Note_on_c, 1, 74, 127
2, 11280, Note_on_c, 1, 76, 127
2, 11280, Note_on_c, 1, 79, 127
2, 11280, Note_on_c, 1, 86, 127
2, 11280, Note_off_c, 1, 92, 0
2, 11280, Note_off_c, 1, 95, 0
2, 11320, Note_on_c, 1, 30, 127
2, 11320, Note_on_c, 1, 58, 127
2, 11320, Note_off_c, 1, 60, 0
2, 11320, Note_on_c, 1, 63, 127
2, 11320, Note_on_c, 1, 70, 127
2, 11320, Note_off_c, 1, 74, 0
2, 11320, Note_off_c, 1, 76, 0
2, 11320, Note_off_c, 1, 79, 0
2, 11320, Note_off_c, 1, 86, 0
2, 11360, Note_off_c, 1, 30, 0
2, 11360, Note_off_c, 1, 58, 0
2, 11360, Note_off_c, 1, 63, 0
2, 11360, Note_off_c, 1, 67, 0
2, 11360, Note_off_c, 1, 70, 0
2, 11400, Note_on_c, 1, 53, 127
2, 11400, Note_on_c, 1, 60, 127
2, 11400, Note_on_c, 1, 63, 127
2, 11400, Note_on_c, 1, 65, 127
2, 11400, Note_on_c, 1, 96, 127
2, 11560, Note_off_c, 1, 65, 0
2, 11560, Note_on_c, 1, 69, 127
2, 11560, Note_off_c, 1, 96, 0
2, 11600, Note_off_c, 1, 53, 0
2, 11600, Note_on_c, 1, 58, 127
2, 11600, Note_off_c, 1, 60, 0
2, 11600, Note_off_c, 1, 63, 0
2, 11600, Note_off_c, 1, 69, 0
2, 11600, Note_on_c, 1, 70, 127
2, 11600, Note_on_c, 1, 75, 127
2, 11600, Note_on_c, 1, 79, 127
2, 11600, Note_on_c, 1, 85, 127
2, 11640, Note_off_c, 1, 58, 0
2, 11640, Note_on_c, 1, 67, 127
2, 11640, Note_off_c, 1, 70, 0
2, 11640, Note_off_c, 1, 75, 0
2, 11640, Note_off_c, 1, 79, 0
2, 11640, Note_on_c, 1, 83, 127
2, 11640, Note_off_c, 1, 85, 0
2, 11640, Note_on_c, 1, 89, 127
2, 11640, Note_on_c, 1, 91, 127
2, 11680, Note_on_c, 1, 42, 127
2, 11680, Note_on_c, 1, 54, 127
2, 11680, Note_off_c, 1, 67, 0
2, 11680, Note_on_c, 1, 74, 127
2, 11680, Note_on_c, 1, 77, 127
2, 11680, Note_on_c, 1, 82, 127
2, 11680, Note_off_c, 1, 83, 0
2, 11680, Note_off_c, 1, 89, 0
2, 11680, Note_off_c, 1, 91, 0
2, 11720, Note_off_c, 1, 42, 0
2, 11720, Note_off_c, 1, 54, 0
2, 11720, Note_on_c, 1, 60, 127
2, 11720, Note_on_c, 1, 65, 127
2, 11720, Note_on_c, 1, 69, 127
2, 11720, Note_on_c, 1, 72, 127
2, 11720, Note_off_c, 1, 74, 0
2, 11720, Note_off_c, 1, 77, 0
2, 11720, Note_on_c, 1, 81, 127
2, 11720, Note_off_c, 1, 82, 0
2, 11720, Note_on_c, 1, 84, 127
2, 11760, Note_on_c, 1, 59, 127
2, 11760, Note_off_c, 1, 60, 0
2, 11760, Note_on_c, 1, 62, 127
2, 11760, Note_off_c, 1, 69, 0
2, 11760, Note_on_c, 1, 70, 127
2, 11760, Note_off_c, 1, 72, 0
2, 11760, Note_off_c, 1, 81, 0
2, 11760, Note_off_c, 1, 84, 0
2, 11760, Note_on_c, 1, 91, 127
2, 11800, Note_on_c, 1, 53, 127
2, 11800, Note_on_c, 1, 58, 127
2, 11800, Note_off_c, 1, 59, 0
2, 11800, Note_on_c, 1, 61, 127
2, 11800, Note_off_c, 1, 62, 0
2, 11800, Note_on_c, 1, 64, 127
2, 11800, Note_off_c, 1, 65, 0
2, 11800, Note_off_c, 1, 70, 0
2, 11800, Note_on_c, 1, 92, 127
2, 11800, Note_on_c, 1, 94, 127
2, 11840, Note_off_c, 1, 58, 0
2, 11840, Note_on_c, 1, 59, 127
2, 11840, Note_off_c, 1, 64, 0
2, 11840, Note_on_c, 1, 77, 127
2, 11840, Note_on_c, 1, 89, 127
2, 11840, Note_off_c, 1, 91, 0
2, 11840, Note_off_c, 1, 92, 0
2, 11840, Note_off_c, 1, 94, 0
2, 11880, Note_on_c, 1, 44, 127
2, 11880, Note_off_c, 1, 53, 0
2, 11880, Note_on_c, 1, 56, 127
2, 11880, Note_off_c, 1, 59, 0
2, 11880, Note_off_c, 1, 61, 0
2, 11880, Note_on_c, 1, 62, 127
2, 11880, Note_off_c, 1, 77, 0
2, 11880, Note_off_c, 1, 89, 0
2, 11920, Note_off_c, 1, 44, 0
2, 11920, Note_on_c, 1, 48, 127
2, 11920, Note_off_c, 1, 56, 0
2, 11920, Note_on_c, 1, 60, 127
2, 11920, Note_off_c, 1, 62, 0
2, 11920, Note_on_c, 1, 65, 127
2, 11920, Note_on_c, 1, 70, 127
2, 11920, Note_on_c, 1, 74, 127
2, 11920, Note_on_c, 1, 77, 127
2, 11960, Note_off_c, 1, 48, 0
2, 11960, Note_on_c, 1, 59, 127
2, 11960, Note_off_c, 1, 60, 0
2, 11960, Note_on_c, 1, 67, 127
2, 11960, Note_off_c, 1, 70, 0
2, 11960, Note_off_c, 1, 74, 0
2, 11960, Note_off_c, 1, 77, 0
2, 12000, Note_on_c, 1, 47, 127
2, 12000, Note_on_c, 1, 55, 127
2, 12000, Note_off_c, 1, 59, 0
2, 12000, Note_on_c, 1, 62, 127
2, 12160, Note_off_c, 1, 67, 0
2, 12200, Note_on_c, 1, 67, 127
2, 12360, Note_off_c, 1, 67, 0
2, 12400, Note_on_c, 1, 33, 127
2, 12400, Note_on_c, 1, 40, 127
2, 12400, Note_on_c, 1, 45, 127
2, 12400, Note_off_c, 1, 47, 0
2, 12400, Note_off_c, 1, 55, 0
2, 12400, Note_on_c, 1, 60, 127
2, 12400, Note_off_c, 1, 62, 0
2, 12400, Note_on_c, 1, 64, 127
2, 12400, Note_off_c, 1, 65, 0
2, 12400, Note_on_c, 1, 71, 127
2, 12440, Note_off_c, 1, 33, 0
2, 12440, Note_off_c, 1, 40, 0
2, 12440, Note_off_c, 1, 45, 0
2, 12440, Note_on_c, 1, 50, 127
2, 12440, Note_on_c, 1, 55, 127
2, 12440, Note_on_c, 1, 59, 127
2, 12440, Note_off_c, 1, 60, 0
2, 12440, Note_off_c, 1, 64, 0
2, 12440, Note_off_c, 1, 71, 0
2, 12440, Note_on_c, 1, 72, 127
2, 12480, Note_on_c, 1, 45, 127
2, 12480, Note_on_c, 1, 48, 127
2, 12480, Note_off_c, 1, 50, 0
2, 12480, Note_off_c, 1, 55, 0
2, 12480, Note_on_c, 1, 57, 127
2, 12480, Note_off_c, 1, 59, 0
2, 12480, Note_on_c, 1, 60, 127
2, 12480, Note_on_c, 1, 64, 127
2, 12480, Note_off_c, 1, 72, 0
2, 12680, Note_off_c, 1, 45, 0
2, 12680, Note_off_c, 1, 48, 0
2, 12680, Note_on_c, 1, 55, 127
2, 12680, Note_off_c, 1, 57, 0
2, 12720, Note_on_c, 1, 83, 127
2, 12920, Note_off_c, 1, 55, 0
2, 12920, Note_off_c, 1, 60, 0
2, 12920, Note_off_c, 1, 64, 0
2, 12920, Note_off_c, 1, 83, 0
2, 12960, Note_on_c, 1, 55, 127
2, 12960, Note_on_c, 1, 60, 127
2, 12960, Note_on_c, 1, 64, 127
2, 12960, Note_on_c, 1, 83, 127
2, 13000, Note_off_c, 1, 55, 0
2, 13000, Note_on_c, 1, 57, 127
2, 13000, Note_off_c, 1, 60, 0
2, 13000, Note_on_c, 1, 69, 127
2, 13000, Note_off_c, 1, 83, 0
2, 13000, Note_on_c, 1, 87, 127
2, 13040, Note_off_c, 1, 57, 0
2, 13040, Note_on_c, 1, 60, 127
2, 13040, Note_off_c, 1, 69, 0
2, 13040, Note_on_c, 1, 70, 127
2, 13040, Note_on_c, 1, 82, 127
2, 13040, Note_off_c, 1, 87, 0
2, 13080, Note_on_c, 1, 48, 127
2, 13080, Note_on_c, 1, 52, 127
2, 13080, Note_on_c, 1, 57, 127
2, 13080, Note_off_c, 1, 64, 0
2, 13080, Note_off_c, 1, 70, 0
2, 13080, Note_off_c, 1, 82, 0
2, 13080, Note_on_c, 1, 87, 127
2, 13120, Note_off_c, 1, 48, 0
2, 13120, Note_off_c, 1, 87, 0
2, 13160, Note_off_c, 1, 52, 0
2, 13160, Note_off_c, 1, 57, 0
2, 13160, Note_on_c, 1, 63, 127
2, 13160, Note_on_c, 1, 68, 127
2, 13160, Note_on_c, 1, 75, 127
2, 13160, Note_on_c, 1, 79, 127
2, 13160, Note_on_c, 1, 87, 127
2, 13280, Note_off_c, 1, 75, 0
2, 13280, Note_off_c, 1, 79, 0
2, 13280, Note_off_c, 1, 87, 0
2, 13320, Note_on_c, 1, 58, 127
2, 13320, Note_off_c, 1, 60, 0
2, 13320, Note_on_c, 1, 61, 127
2, 13320, Note_off_c, 1, 63, 0
2, 13320, Note_on_c, 1, 65, 127
2, 13320, Note_off_c, 1, 68, 0
2, 13320, Note_on_c, 1, 70, 127
2, 13320, Note_on_c, 1, 77, 127
2, 13840, Note_off_c, 1, 58, 0
2, 13840, Note_off_c, 1, 61, 0
2, 13840, Note_off_c, 1, 65, 0
2, 13840, Note_off_c, 1, 70, 0
2, 13840, Note_off_c, 1, 77, 0
2, 13880, Note_on_c, 1, 34, 127
2, 13880, Note_on_c, 1, 46, 127
2, 13880, Note_on_c, 1, 55, 127
2, 13880, Note_on_c, 1, 63, 127
2, 14080, Note_off_c, 1, 34, 0
2, 14080, Note_on_c, 1, 54, 127
2, 14080, Note_off_c, 1, 55, 0
2, 14080, Note_on_c, 1, 70, 127
2, 14640, Note_off_c, 1, 54, 0
2, 14640, Note_off_c, 1, 63, 0
2, 14640, Note_off_c, 1, 70, 0
2, 14680, Note_on_c, 1, 55, 127
2, 14680, Note_on_c, 1, 70, 127
2, 15000, Note_off_c, 1, 46, 0
2, 15000, Note_off_c, 1, 55, 0
2, 15000, Note_off_c, 1, 70, 0
2, 15040, Note_on_c, 1, 54, 127
2, 15040, Note_on_c, 1, 62, 127
2, 15040, Note_on_c, 1, 78, 127
2, 15080, Note_on_c, 1, 46, 127
2, 15080, Note_off_c, 1, 54, 0
2, 15080, Note_on_c, 1, 55, 127
2, 15080, Note_off_c, 1, 62, 0
2, 15080, Note_on_c, 1, 70, 127
2, 15080, Note_off_c, 1, 78, 0
2, 15320, Note_off_c, 1, 46, 0
2, 15320, Note_off_c, 1, 55, 0
2, 15320, Note_off_c, 1, 70, 0
2, 15360, Note_on_c, 1, 44, 127
2, 15360, Note_on_c, 1, 61, 127
2, 15360, Note_on_c, 1, 70, 127
2, 15880, Note_off_c, 1, 44, 0
2, 15880, Note_off_c, 1, 61, 0
2, 15880, Note_off_c, 1, 70, 0
2, 15920, Note_on_c, 1, 55, 127
2, 15920, Note_on_c, 1, 63, 127
2, 15920, Note_on_c, 1, 72, 127
2, 16080, Note_off_c, 1, 55, 0
2, 16080, Note_on_c, 1, 57, 127
2, 16080, Note_on_c, 1, 60, 127
2, 16080, Note_on_c, 1, 78, 127
2, 16080, Note_on_c, 1, 83, 127
2, 16120, Note_on_c, 1, 34, 127
2, 16120, Note_on_c, 1, 46, 127
2, 16120, Note_off_c, 1, 57, 0
2, 16120, Note_on_c, 1, 66, 127
2, 16120, Note_off_c, 1, 72, 0
2, 16120, Note_off_c, 1, 78, 0
2, 16120, Note_off_c, 1, 83, 0
2, 16160, Note_off_c, 1, 34, 0
2, 16160, Note_off_c, 1, 46, 0
2, 16160, Note_on_c, 1, 52, 127
2, 16160, Note_on_c, 1, 55, 127
2, 16160, Note_on_c, 1, 58, 127
2, 16160, Note_off_c, 1, 60, 0
2, 16160, Note_on_c, 1, 61, 127
2, 16160, Note_off_c, 1, 63, 0
2, 16160, Note_off_c, 1, 66, 0
2, 16160, Note_on_c, 1, 70, 127
2, 16200, Note_on_c, 1, 31, 127
2, 16200, Note_off_c, 1, 52, 0
2, 16200, Note_off_c, 1, 55, 0
2, 16200, Note_off_c, 1, 58, 0
2, 16200, Note_on_c, 1, 60, 127
2, 16200, Note_off_c, 1, 61, 0
2, 16200, Note_on_c, 1, 63, 127
2, 16200, Note_off_c, 1, 70, 0
2, 16200, Note_on_c, 1, 72, 127
2, 16240, Note_off_c, 1, 31, 0
2, 16240, Note_on_c, 1, 50, 127
2, 16240, Note_on_c, 1, 54, 127
2, 16240, Note_off_c, 1, 60, 0
2, 16240, Note_off_c, 1, 63, 0
2, 16240, Note_on_c, 1, 67, 127
2, 16240, Note_off_c, 1, 72, 0
2, 16240, Note_on_c, 1, 73, 127
2, 16280, Note_on_c, 1, 48, 127
2, 16280, Note_off_c, 1, 50, 0
2, 16280, Note_off_c, 1, 54, 0
2, 16280, Note_on_c, 1, 60, 127
2, 16280, Note_on_c, 1, 64, 127
2, 16280, Note_off_c, 1, 73, 0
2, 16320, Note_off_c, 1, 48, 0
2, 16320, Note_on_c, 1, 57, 127
2, 16320, Note_off_c, 1, 64, 0
2, 16320, Note_off_c, 1, 67, 0
2, 16320, Note_on_c, 1, 74, 127
2, 16360, Note_off_c, 1, 57, 0
2, 16360, Note_on_c, 1, 58, 127
2, 16360, Note_off_c, 1, 60, 0
2, 16360, Note_on_c, 1, 61, 127
2, 16360, Note_off_c, 1, 74, 0
2, 16360, Note_on_c, 1, 75, 127
2, 16560, Note_off_c, 1, 61, 0
2, 16560, Note_on_c, 1, 63, 127
2, 16680, Note_off_c, 1, 63, 0
2, 16680, Note_off_c, 1, 75, 0
2, 16720, Note_on_c, 1, 63, 127
2, 16720, Note_on_c, 1, 74, 127
2, 17120, Note_off_c, 1, 58, 0
2, 17120, Note_off_c, 1, 63, 0
2, 17120, Note_off_c, 1, 74, 0
2, 17160, Note_on_c, 1, 58, 127
2, 17160, Note_on_c, 1, 63, 127
2, 17160, Note_on_c, 1, 74, 127
2, 17280, Note_on_c, 1, 72, 127
2, 17280, Note_off_c, 1, 74, 0
2, 17520, Note_off_c, 1, 58, 0
2, 17520, Note_off_c, 1, 72, 0
2, 17560, Note_on_c, 1, 58, 127
2, 17560, Note_on_c, 1, 72, 127
2, 18280, Note_off_c, 1, 58, 0
2, 18320, Note_on_c, 1, 55, 127
2, 18400, Note_off_c, 1, 63, 0
2, 18400, Note_on_c, 1, 64, 127
2, 18440, Note_on_c, 1, 63, 127
2, 18440, Note_off_c, 1, 64, 0
2, 18680, Note_off_c, 1, 63, 0
2, 18680, Note_off_c, 1, 72, 0
2, 18720, Note_on_c, 1, 75, 127
2, 18720, Note_on_c, 1, 84, 127
2, 19240, Note_off_c, 1, 55, 0
2, 19240, Note_off_c, 1, 75, 0
2, 19240, Note_off_c, 1, 84, 0
2, 19280, Note_on_c, 1, 55, 127
2, 19280, Note_on_c, 1, 75, 127
2, 19280, Note_on_c, 1, 84, 127
2, 19480, Note_off_c, 1, 55, 0
2, 19480, Note_off_c, 1, 84, 0
2, 19520, Note_on_c, 1, 60, 127
2, 19520, Note_on_c, 1, 82, 127
2, 19600, Note_off_c, 1, 82, 0
2, 19640, Note_on_c, 1, 82, 127
2, 19720, Note_off_c, 1, 82, 0
2, 19760, Note_on_c, 1, 57, 127
2, 19760, Note_off_c, 1, 60, 0
2, 19760, Note_on_c, 1, 84, 127
2, 20320, Note_off_c, 1, 57, 0
2, 20320, Note_off_c, 1, 75, 0
2, 20320, Note_off_c, 1, 84, 0
2, 20360, Note_on_c, 1, 67, 127
2, 20360, Note_on_c, 1, 81, 127
2, 20360, Note_on_c, 1, 84, 127
2, 20760, Note_on_c, 1, 66, 127
2, 20760, Note_off_c, 1, 67, 0
2, 20920, Note_on_c, 1, 37, 127
2, 20920, Note_on_c, 1, 50, 127
2, 20920, Note_on_c, 1, 56, 127
2, 20920, Note_on_c, 1, 59, 127
2, 20920, Note_off_c, 1, 81, 0
2, 20920, Note_off_c, 1, 84, 0
2, 20960, Note_off_c, 1, 37, 0
2, 20960, Note_off_c, 1, 50, 0
2, 20960, Note_off_c, 1, 56, 0
2, 20960, Note_off_c, 1, 59, 0
2, 21000, Note_on_c, 1, 46, 127
2, 21000, Note_on_c, 1, 50, 127
2, 21000, Note_on_c, 1, 53, 127
2, 21000, Note_on_c, 1, 65, 127
2, 21000, Note_off_c, 1, 66, 0
2, 21000, Note_on_c, 1, 70, 127
2, 21000, Note_on_c, 1, 74, 127
2, 21040, Note_off_c, 1, 46, 0
2, 21040, Note_off_c, 1, 50, 0
2, 21040, Note_off_c, 1, 53, 0
2, 21040, Note_on_c, 1, 55, 127
2, 21040, Note_off_c, 1, 65, 0
2, 21040, Note_on_c, 1, 72, 127
2, 21040, Note_off_c, 1, 74, 0
2, 21040, Note_on_c, 1, 75, 127
2, 21080, Note_off_c, 1, 55, 0
2, 21080, Note_on_c, 1, 56, 127
2, 21080, Note_on_c, 1, 62, 127
2, 21080, Note_off_c, 1, 70, 0
2, 21080, Note_off_c, 1, 72, 0
2, 21080, Note_on_c, 1, 74, 127
2, 21080, Note_off_c, 1, 75, 0
2, 21080, Note_on_c, 1, 82, 127
2, 21120, Note_off_c, 1, 56, 0
2, 21120, Note_off_c, 1, 62, 0
2, 21120, Note_off_c, 1, 74, 0
2, 21120, Note_off_c, 1, 82, 0
2, 21160, Note_on_c, 1, 41, 127
2, 21160, Note_on_c, 1, 57, 127
2, 21160, Note_on_c, 1, 58, 127
2, 21160, Note_on_c, 1, 64, 127
2, 21160, Note_on_c, 1, 67, 127
2, 21160, Note_on_c, 1, 69, 127
2, 21160, Note_on_c, 1, 72, 127
2, 21200, Note_on_c, 1, 37, 127
2, 21200, Note_off_c, 1, 41, 0
2, 21200, Note_on_c, 1, 51, 127
2, 21200, Note_on_c, 1, 55, 127
2, 21200, Note_off_c, 1, 57, 0
2, 21200, Note_off_c, 1, 58, 0
2, 21200, Note_off_c, 1, 64, 0
2, 21200, Note_off_c, 1, 67, 0
2, 21200, Note_off_c, 1, 69, 0
2, 21200, Note_off_c, 1, 72, 0
2, 21240, Note_off_c, 1, 37, 0
2, 21240, Note_off_c, 1, 51, 0
2, 21240, Note_off_c, 1, 55, 0
2, 21240, Note_on_c, 1, 71, 127
2, 21240, Note_on_c, 1, 90, 127
2, 21240, Note_on_c, 1, 94, 127
2, 21280, Note_on_c, 1, 46, 127
2, 21280, Note_on_c, 1, 56, 127
2, 21280, Note_on_c, 1, 62, 127
2, 21280, Note_on_c, 1, 70, 127
2, 21280, Note_off_c, 1, 71, 0
2, 21280, Note_on_c, 1, 74, 127
2, 21280, Note_off_c, 1, 90, 0
2, 21280, Note_off_c, 1, 94, 0
2, 21320, Note_off_c, 1, 46, 0
2, 21320, Note_on_c, 1, 49, 127
2, 21320, Note_off_c, 1, 56, 0
2, 21320, Note_on_c, 1, 57, 127
2, 21320, Note_off_c, 1, 62, 0
2, 21320, Note_on_c, 1, 64, 127
2, 21320, Note_off_c, 1, 70, 0
2, 21320, Note_off_c, 1, 74, 0
2, 21320, Note_on_c, 1, 80, 127
2, 21320, Note_on_c, 1, 92, 127
2, 21360, Note_off_c, 1, 49, 0
2, 21360, Note_on_c, 1, 54, 127
2, 21360, Note_off_c, 1, 57, 0
2, 21360, Note_on_c, 1, 59, 127
2, 21360, Note_on_c, 1, 62, 127
2, 21360, Note_off_c, 1, 64, 0
2, 21360, Note_on_c, 1, 65, 127
2, 21360, Note_off_c, 1, 80, 0
2, 21360, Note_off_c, 1, 92, 0
2, 21360, Note_on_c, 1, 95, 127
2, 21400, Note_off_c, 1, 54, 0
2, 21400, Note_off_c, 1, 59, 0
2, 21400, Note_off_c, 1, 62, 0
2, 21400, Note_off_c, 1, 65, 0
2, 21400, Note_off_c, 1, 95, 0
2, 21440, Note_on_c, 1, 46, 127
2, 21440, Note_on_c, 1, 58, 127
2, 21440, Note_on_c, 1, 61, 127
2, 21440, Note_on_c, 1, 68, 127
2, 21440, Note_on_c, 1, 73, 127
2, 22920, Note_on_c, 1, 43, 127
2, 22920, Note_off_c, 1, 46, 0
2, 22920, Note_off_c, 1, 58, 0
2, 22920, Note_on_c, 1, 59, 127
2, 22920, Note_off_c, 1, 61, 0
2, 22920, Note_on_c, 1, 67, 127
2, 22920, Note_off_c, 1, 68, 0
2, 22920, Note_on_c, 1, 71, 127
2, 22920, Note_off_c, 1, 73, 0
2, 22920, Note_on_c, 1, 74, 127
2, 22960, Note_off_c, 1, 43, 0
2, 22960, Note_on_c, 1, 46, 127
2, 22960, Note_on_c, 1, 58, 127
2, 22960, Note_off_c, 1, 59, 0
2, 22960, Note_on_c, 1, 61, 127
2, 22960, Note_off_c, 1, 67, 0
2, 22960, Note_on_c, 1, 68, 127
2, 22960, Note_off_c, 1, 71, 0
2, 22960, Note_on_c, 1, 73, 127
2, 22960, Note_off_c, 1, 74, 0
2, 23000, Note_off_c, 1, 46, 0
2, 23000, Note_off_c, 1, 58, 0
2, 23000, Note_off_c, 1, 61, 0
2, 23000, Note_off_c, 1, 68, 0
2, 23000, Note_off_c, 1, 73, 0
2, 23040, Note_on_c, 1, 44, 127
2, 23040, Note_on_c, 1, 70, 127
2, 23080, Note_off_c, 1, 44, 0
2, 23080, Note_on_c, 1, 66, 127
2, 23080, Note_on_c, 1, 67, 127
2, 23080, Note_off_c, 1, 70, 0
2, 23080, Note_on_c, 1, 71, 127
2, 23080, Note_on_c, 1, 77, 127
2, 23120, Note_on_c, 1, 53, 127
2, 23120, Note_off_c, 1, 66, 0
2, 23120, Note_off_c, 1, 67, 0
2, 23120, Note_on_c, 1, 68, 127
2, 23120, Note_off_c, 1, 71, 0
2, 23120, Note_on_c, 1, 74, 127
2, 23120, Note_off_c, 1, 77, 0
2, 23120, Note_on_c, 1, 85, 127
2, 23160, Note_off_c, 1, 53, 0
2, 23160, Note_on_c, 1, 66, 127
2, 23160, Note_on_c, 1, 67, 127
2, 23160, Note_off_c, 1, 68, 0
2, 23160, Note_on_c, 1, 71, 127
2, 23160, Note_off_c, 1, 74, 0
2, 23160, Note_on_c, 1, 77, 127
2, 23160, Note_off_c, 1, 85, 0
2, 23440, Note_on_c, 1, 37, 127
2, 23440, Note_on_c, 1, 44, 127
2, 23440, Note_on_c, 1, 52, 127
2, 23440, Note_on_c, 1, 56, 127
2, 23440, Note_on_c, 1, 61, 127
2, 23440, Note_off_c, 1, 66, 0
2, 23440, Note_off_c, 1, 67, 0
2, 23440, Note_off_c, 1, 71, 0
2, 23440, Note_off_c, 1, 77, 0
2, 23480, Note_off_c, 1, 37, 0
2, 23480, Note_off_c, 1, 44, 0
2, 23480, Note_on_c, 1, 50, 127
2, 23480, Note_off_c, 1, 52, 0
2, 23480, Note_off_c, 1, 56, 0
2, 23480, Note_on_c, 1, 62, 127
2, 23480, Note_on_c, 1, 66, 127
2, 23480, Note_on_c, 1, 73, 127
2, 23520, Note_on_c, 1, 44, 127
2, 23520, Note_on_c, 1, 47, 127
2, 23520, Note_off_c, 1, 50, 0
2, 23520, Note_on_c, 1, 60, 127
2, 23520, Note_off_c, 1, 61, 0
2, 23520, Note_off_c, 1, 62, 0
2, 23520, Note_off_c, 1, 73, 0
2, 23560, Note_off_c, 1, 44, 0
2, 23560, Note_off_c, 1, 47, 0
2, 23560, Note_on_c, 1, 50, 127
2, 23560, Note_off_c, 1, 60, 0
2, 23560, Note_on_c, 1, 61, 127
2, 23560, Note_on_c, 1, 62, 127
2, 23560, Note_on_c, 1, 73, 127
2, 23640, Note_on_c, 1, 44, 127
2, 23640, Note_off_c, 1, 50, 0
2, 23640, Note_on_c, 1, 60, 127
2, 23640, Note_off_c, 1, 61, 0
2, 23640, Note_off_c, 1, 62, 0
2, 23640, Note_off_c, 1, 73, 0
2, 23680, Note_on_c, 1, 51, 127
2, 23680, Note_off_c, 1, 60, 0
2, 23680, Note_off_c, 1, 66, 0
2, 23680, Note_on_c, 1, 80, 127
2, 23680, Note_on_c, 1, 84, 127
2, 23840, Note_off_c, 1, 80, 0
2, 23840, Note_off_c, 1, 84, 0
2, 23880, Note_off_c, 1, 44, 0
2, 23880, Note_on_c, 1, 49, 127
2, 23880, Note_off_c, 1, 51, 0
2, 23880, Note_on_c, 1, 76, 127
2, 23880, Note_on_c, 1, 85, 127
2, 23880, Note_on_c, 1, 88, 127
2, 23920, Note_off_c, 1, 49, 0
2, 23920, Note_on_c, 1, 52, 127
2, 23920, Note_on_c, 1, 55, 127
2, 23920, Note_on_c, 1, 64, 127
2, 23920, Note_off_c, 1, 76, 0
2, 23920, Note_on_c, 1, 82, 127
2, 23920, Note_off_c, 1, 85, 0
2, 23920, Note_on_c, 1, 87, 127
2, 23920, Note_off_c, 1, 88, 0
2, 23960, Note_off_c, 1, 52, 0
2, 23960, Note_on_c, 1, 53, 127
2, 23960, Note_off_c, 1, 55, 0
2, 23960, Note_off_c, 1, 64, 0
2, 23960, Note_on_c, 1, 81, 127
2, 23960, Note_off_c, 1, 82, 0
2, 23960, Note_on_c, 1, 84, 127
2, 23960, Note_off_c, 1, 87, 0
2, 23960, Note_on_c, 1, 89, 127
2, 24000, Note_off_c, 1, 53, 0
2, 24000, Note_on_c, 1, 56, 127
2, 24000, Note_on_c, 1, 80, 127
2, 24000, Note_off_c, 1, 81, 0
2, 24000, Note_off_c, 1, 84, 0
2, 24000, Note_on_c, 1, 85, 127
2, 24000, Note_off_c, 1, 89, 0
2, 24000, Note_on_c, 1, 92, 127
2, 24040, Note_on_c, 1, 44, 127
2, 24040, Note_on_c, 1, 53, 127
2, 24040, Note_off_c, 1, 56, 0
2, 24040, Note_on_c, 1, 59, 127
2, 24040, Note_on_c, 1, 64, 127
2, 24040, Note_off_c, 1, 80, 0
2, 24040, Note_off_c, 1, 85, 0
2, 24040, Note_off_c, 1, 92, 0
2, 24080, Note_on_c, 1, 42, 127
2, 24080, Note_off_c, 1, 44, 0
2, 24080, Note_off_c, 1, 53, 0
2, 24080, Note_on_c, 1, 54, 127
2, 24080, Note_off_c, 1, 59, 0
2, 24080, Note_off_c, 1, 64, 0
2, 24080, Note_on_c, 1, 72, 127
2, 24080, Note_on_c, 1, 75, 127
2, 24080, Note_on_c, 1, 82, 127
2, 24120, Note_on_c, 1, 38, 127
2, 24120, Note_off_c, 1, 42, 0
2, 24120, Note_on_c, 1, 45, 127
2, 24120, Note_on_c, 1, 50, 127
2, 24120, Note_off_c, 1, 54, 0
2, 24120, Note_off_c, 1, 72, 0
2, 24120, Note_off_c, 1, 75, 0
2, 24120, Note_off_c, 1, 82, 0
2, 24120, Note_on_c, 1, 89, 127
2, 24160, Note_on_c, 1, 36, 127
2, 24160, Note_off_c, 1, 38, 0
2, 24160, Note_off_c, 1, 45, 0
2, 24160, Note_off_c, 1, 50, 0
2, 24160, Note_on_c, 1, 57, 127
2, 24160, Note_on_c, 1, 60, 127
2, 24160, Note_on_c, 1, 64, 127
2, 24160, Note_on_c, 1, 69, 127
2, 24160, Note_on_c, 1, 76, 127
2, 24160, Note_off_c, 1, 89, 0
2, 24200, Note_off_c, 1, 36, 0
2, 24200, Note_on_c, 1, 53, 127
2, 24200, Note_off_c, 1, 57, 0
2, 24200, Note_on_c, 1, 58, 127
2, 24200, Note_off_c, 1, 60, 0
2, 24200, Note_off_c, 1, 64, 0
2, 24200, Note_on_c, 1, 65, 127
2, 24200, Note_off_c, 1, 69, 0
2, 24200, Note_on_c, 1, 70, 127
2, 24200, Note_on_c, 1, 74, 127
2, 24200, Note_off_c, 1, 76, 0
2, 24200, Note_on_c, 1, 82, 127
2, 24240, Note_off_c, 1, 53, 0
2, 24240, Note_off_c, 1, 58, 0
2, 24240, Note_off_c, 1, 65, 0
2, 24240, Note_off_c, 1, 70, 0
2, 24240, Note_on_c, 1, 77, 127
2, 24240, Note_on_c, 1, 81, 127
2, 24240, Note_off_c, 1, 82, 0
2, 24240, Note_on_c, 1, 86, 127
2, 24280, Note_on_c, 1, 45, 127
2, 24280, Note_on_c, 1, 48, 127
2, 24280, Note_on_c, 1, 53, 127
2, 24280, Note_on_c, 1, 69, 127
2, 24280, Note_off_c, 1, 74, 0
2, 24280, Note_off_c, 1, 77, 0
2, 24280, Note_off_c, 1, 81, 0
2, 24280, Note_off_c, 1, 86, 0
2, 24480, Note_off_c, 1, 45, 0
2, 24480, Note_off_c, 1, 48, 0
2, 24480, Note_off_c, 1, 53, 0
2, 24480, Note_on_c, 1, 54, 127
2, 24480, Note_on_c, 1, 61, 127
2, 24480, Note_on_c, 1, 64, 127
2, 24480, Note_off_c, 1, 69, 0
2, 24480, Note_on_c, 1, 70, 127
2, 24480, Note_on_c, 1, 76, 127
2, 24520, Note_on_c, 1, 45, 127
2, 24520, Note_on_c, 1, 48, 127
2, 24520, Note_on_c, 1, 53, 127
2, 24520, Note_off_c, 1, 54, 0
2, 24520, Note_off_c, 1, 61, 0
2, 24520, Note_off_c, 1, 64, 0
2, 24520, Note_on_c, 1, 69, 127
2, 24520, Note_off_c, 1, 70, 0
2, 24520, Note_off_c, 1, 76, 0
2, 24640, Note_off_c, 1, 69, 0
2, 24680, Note_off_c, 1, 45, 0
2, 24680, Note_off_c, 1, 48, 0
2, 24680, Note_on_c, 1, 49, 127
2, 24680, Note_off_c, 1, 53, 0
2, 24680, Note_on_c, 1, 55, 127
2, 24680, Note_on_c, 1, 58, 127
2, 24680, Note_on_c, 1, 63, 127
2, 24680, Note_on_c, 1, 67, 127
2, 25040, Note_off_c, 1, 49, 0
2, 25040, Note_off_c, 1, 55, 0
2, 25040, Note_off_c, 1, 58, 0
2, 25040, Note_off_c, 1, 63, 0
2, 25040, Note_off_c, 1, 67, 0
2, 25120, Note_on_c, 1, 64, 127
2, 25120, Note_on_c, 1, 71, 127
2, 25120, Note_on_c, 1, 76, 127
2, 25120, Note_on_c, 1, 79, 127
2, 25120, Note_on_c, 1, 90, 127
2, 25160, Note_on_c, 1, 53, 127
2, 25160, Note_on_c, 1, 56, 127
2, 25160, Note_on_c, 1, 63, 127
2, 25160, Note_off_c, 1, 64, 0
2, 25160, Note_off_c, 1, 76, 0
2, 25160, Note_off_c, 1, 79, 0
2, 25160, Note_off_c, 1, 90, 0
2, 25200, Note_on_c, 1, 48, 127
2, 25200, Note_off_c, 1, 53, 0
2, 25200, Note_off_c, 1, 56, 0
2, 25200, Note_off_c, 1, 63, 0
2, 25200, Note_on_c, 1, 65, 127
2, 25200, Note_off_c, 1, 71, 0
2, 25200, Note_on_c, 1, 74, 127
2, 25200, Note_on_c, 1, 81, 127
2, 25240, Note_on_c, 1, 38, 127
2, 25240, Note_off_c, 1, 48, 0
2, 25240, Note_off_c, 1, 65, 0
2, 25240, Note_on_c, 1, 72, 127
2, 25240, Note_off_c, 1, 74, 0
2, 25240, Note_on_c, 1, 78, 127
2, 25280, Note_off_c, 1, 38, 0
2, 25280, Note_off_c, 1, 72, 0
2, 25280, Note_off_c, 1, 78, 0
2, 25280, Note_off_c, 1, 81, 0
2, 25280, Note_on_c, 1, 90, 127
2, 25280, Note_on_c, 1, 92, 127
2, 25280, Note_on_c, 1, 99, 127
2, 25280, Note_on_c, 1, 100, 127
2, 25280, Note_on_c, 1, 102, 127
2, 25320, Note_on_c, 1, 40, 127
2, 25320, Note_on_c, 1, 55, 127
2, 25320, Note_on_c, 1, 73, 127
2, 25320, Note_on_c, 1, 85, 127
2, 25320, Note_off_c, 1, 90, 0
2, 25320, Note_off_c, 1, 92, 0
2, 25320, Note_off_c, 1, 99, 0
2, 25320, Note_off_c, 1, 100, 0
2, 25320, Note_off_c, 1, 102, 0
2, 25360, Note_on_c, 1, 38, 127
2, 25360, Note_off_c, 1, 40, 0
2, 25360, Note_on_c, 1, 47, 127
2, 25360, Note_on_c, 1, 50, 127
2, 25360, Note_off_c, 1, 55, 0
2, 25360, Note_on_c, 1, 71, 127
2, 25360, Note_off_c, 1, 73, 0
2, 25360, Note_on_c, 1, 83, 127
2, 25360, Note_off_c, 1, 85, 0
2, 25400, Note_on_c, 1, 27, 127
2, 25400, Note_off_c, 1, 38, 0
2, 25400, Note_on_c, 1, 39, 127
2, 25400, Note_off_c, 1, 47, 0
2, 25400, Note_off_c, 1, 50, 0
2, 25400, Note_on_c, 1, 58, 127
2, 25400, Note_on_c, 1, 67, 127
2, 25400, Note_off_c, 1, 71, 0
2, 25400, Note_off_c, 1, 83, 0
2, 25440, Note_off_c, 1, 27, 0
2, 25440, Note_off_c, 1, 39, 0
2, 25440, Note_on_c, 1, 50, 127
2, 25440, Note_off_c, 1, 58, 0
2, 25440, Note_on_c, 1, 66, 127
2, 25440, Note_off_c, 1, 67, 0
2, 25440, Note_on_c, 1, 81, 127
2, 25440, Note_on_c, 1, 95, 127
2, 25480, Note_off_c, 1, 50, 0
2, 25480, Note_on_c, 1, 59, 127
2, 25480, Note_on_c, 1, 60, 127
2, 25480, Note_on_c, 1, 64, 127
2, 25480, Note_off_c, 1, 66, 0
2, 25480, Note_on_c, 1, 69, 127
2, 25480, Note_off_c, 1, 81, 0
2, 25480, Note_off_c, 1, 95, 0
2, 25520, Note_on_c, 1, 43, 127
2, 25520, Note_on_c, 1, 52, 127
2, 25520, Note_off_c, 1, 59, 0
2, 25520, Note_off_c, 1, 60, 0
2, 25520, Note_on_c, 1, 61, 127
2, 25520, Note_off_c, 1, 64, 0
2, 25520, Note_off_c, 1, 69, 0
2, 25520, Note_on_c, 1, 73, 127
2, 25520, Note_on_c, 1, 76, 127
2, 25520, Note_on_c, 1, 85, 127
2, 25640, Note_off_c, 1, 43, 0
2, 25640, Note_on_c, 1, 44, 127
2, 25640, Note_on_c, 1, 50, 127
2, 25640, Note_off_c, 1, 52, 0
2, 25640, Note_on_c, 1, 53, 127
2, 25640, Note_on_c, 1, 56, 127
2, 25640, Note_off_c, 1, 61, 0
2, 25640, Note_off_c, 1, 73, 0
2, 25640, Note_on_c, 1, 74, 127
2, 25640, Note_off_c, 1, 76, 0
2, 25640, Note_off_c, 1, 85, 0
2, 25680, Note_off_c, 1, 44, 0
2, 25680, Note_on_c, 1, 48, 127
2, 25680, Note_off_c, 1, 50, 0
2, 25680, Note_off_c, 1, 53, 0
2, 25680, Note_on_c, 1, 55, 127
2, 25680, Note_off_c, 1, 56, 0
2, 25680, Note_on_c, 1, 58, 127
2, 25680, Note_on_c, 1, 64, 127
2, 25680, Note_off_c, 1, 74, 0
2, 25680, Note_on_c, 1, 81, 127
2, 25720, Note_on_c, 1, 35, 127
2, 25720, Note_on_c, 1, 45, 127
2, 25720, Note_off_c, 1, 48, 0
2, 25720, Note_off_c, 1, 55, 0
2, 25720, Note_off_c, 1, 58, 0
2, 25720, Note_off_c, 1, 64, 0
2, 25720, Note_off_c, 1, 81, 0
2, 25720, Note_on_c, 1, 92, 127
2, 25720, Note_on_c, 1, 93, 127
2, 25760, Note_off_c, 1, 35, 0
2, 25760, Note_off_c, 1, 45, 0
2, 25760, Note_on_c, 1, 46, 127
2, 25760, Note_on_c, 1, 56, 127
2, 25760, Note_on_c, 1, 61, 127
2, 25760, Note_on_c, 1, 65, 127
2, 25760, Note_on_c, 1, 70, 127
2, 25760, Note_off_c, 1, 92, 0
2, 25760, Note_off_c, 1, 93, 0
2, 25800, Note_on_c, 1, 49, 127
2, 25800, Note_off_c, 1, 56, 0
2, 25800, Note_off_c, 1, 65, 0
2, 25800, Note_on_c, 1, 66, 127
2, 25800, Note_off_c, 1, 70, 0
2, 25840, Note_off_c, 1, 46, 0
2, 25840, Note_off_c, 1, 49, 0
2, 25840, Note_off_c, 1, 61, 0
2, 25840, Note_off_c, 1, 66, 0
2, 25880, Note_on_c, 1, 30, 127
2, 25880, Note_on_c, 1, 42, 127
2, 25880, Note_on_c, 1, 66, 127
2, 25880, Note_on_c, 1, 69, 127
2, 25880, Note_on_c, 1, 73, 127
2, 25880, Note_on_c, 1, 78, 127
2, 27040, Note_off_c, 1, 30, 0
2, 27040, Note_off_c, 1, 42, 0
2, 27040, Note_on_c, 1, 58, 127
2, 27040, Note_off_c, 1, 66, 0
2, 27040, Note_off_c, 1, 69, 0
2, 27040, Note_off_c, 1, 73, 0
2, 27040, Note_off_c, 1, 78, 0
2, 27080, Note_on_c, 1, 34, 127
2, 27080, Note_on_c, 1, 46, 127
2, 27080, Note_off_c, 1, 58, 0
2, 27080, Note_on_c, 1, 65, 127
2, 27080, Note_on_c, 1, 70, 127
2, 27080, Note_on_c, 1, 73, 127
2, 27320, Note_off_c, 1, 34, 0
2, 27320, Note_off_c, 1, 46, 0
2, 27320, Note_off_c, 1, 65, 0
2, 27320, Note_off_c, 1, 70, 0
2, 27320, Note_off_c, 1, 73, 0
2, 27360, Note_on_c, 1, 34, 127
2, 27360, Note_on_c, 1, 46, 127
2, 27360, Note_on_c, 1, 65, 127
2, 27360, Note_on_c, 1, 70, 127
2, 27360, Note_on_c, 1, 73, 127
2, 27880, Note_off_c, 1, 34, 0
2, 27880, Note_off_c, 1, 46, 0
2, 27880, Note_off_c, 1, 65, 0
2, 27880, Note_off_c, 1, 70, 0
2, 27880, Note_off_c, 1, 73, 0
2, 27920, Note_on_c, 1, 32, 127
2, 27920, Note_on_c, 1, 44, 127
2, 27920, Note_on_c, 1, 71, 127
2, 27920, Note_on_c, 1, 75, 127
2, 27920, Note_on_c, 1, 80, 127
2, 29080, Note_off_c, 1, 32, 0
2, 29080, Note_off_c, 1, 44, 0
2, 29080, Note_off_c, 1, 71, 0
2, 29080, Note_off_c, 1, 75, 0
2, 29080, Note_off_c, 1, 80, 0
2, 29120, Note_on_c, 1, 53, 127
2, 29120, Note_on_c, 1, 60, 127
2, 29120, Note_on_c, 1, 63, 127
2, 29120, Note_on_c, 1, 68, 127
2, 29120, Note_on_c, 1, 85, 127
2, 29160, Note_on_c, 1, 29, 127
2, 29160, Note_on_c, 1, 36, 127
2, 29160, Note_on_c, 1, 51, 127
2, 29160, Note_off_c, 1, 53, 0
2, 29160, Note_on_c, 1, 57, 127
2, 29160, Note_off_c, 1, 60, 0
2, 29160, Note_off_c, 1, 63, 0
2, 29160, Note_off_c, 1, 68, 0
2, 29160, Note_off_c, 1, 85, 0
2, 29200, Note_off_c, 1, 29, 0
2, 29200, Note_off_c, 1, 36, 0
2, 29200, Note_on_c, 1, 41, 127
2, 29200, Note_off_c, 1, 51, 0
2, 29200, Note_on_c, 1, 52, 127
2, 29200, Note_off_c, 1, 57, 0
2, 29200, Note_on_c, 1, 60, 127
2, 29200, Note_on_c, 1, 67, 127
2, 29240, Note_on_c, 1, 40, 127
2, 29240, Note_off_c, 1, 41, 0
2, 29240, Note_off_c, 1, 52, 0
2, 29240, Note_off_c, 1, 60, 0
2, 29240, Note_off_c, 1, 67, 0
2, 29240, Note_on_c, 1, 86, 127
2, 29240, Note_on_c, 1, 99, 127
2, 29280, Note_off_c, 1, 40, 0
2, 29280, Note_on_c, 1, 65, 127
2, 29280, Note_on_c, 1, 75, 127
2, 29280, Note_off_c, 1, 86, 0
2, 29280, Note_on_c, 1, 92, 127
2, 29280, Note_off_c, 1, 99, 0
2, 29320, Note_on_c, 1, 46, 127
2, 29320, Note_on_c, 1, 51, 127
2, 29320, Note_on_c, 1, 54, 127
2, 29320, Note_on_c, 1, 59, 127
2, 29320, Note_off_c, 1, 65, 0
2, 29320, Note_on_c, 1, 66, 127
2, 29320, Note_on_c, 1, 71, 127
2, 29320, Note_off_c, 1, 75, 0
2, 29320, Note_on_c, 1, 83, 127
2, 29320, Note_off_c, 1, 92, 0
2, 29360, Note_on_c, 1, 44, 127
2, 29360, Note_off_c, 1, 46, 0
2, 29360, Note_off_c, 1, 51, 0
2, 29360, Note_off_c, 1, 54, 0
2, 29360, Note_off_c, 1, 59, 0
2, 29360, Note_on_c, 1, 64, 127
2, 29360, Note_off_c, 1, 66, 0
2, 29360, Note_on_c, 1, 74, 127
2, 29360, Note_on_c, 1, 77, 127
2, 29360, Note_off_c, 1, 83, 0
2, 29400, Note_off_c, 1, 44, 0
2, 29400, Note_off_c, 1, 64, 0
2, 29400, Note_off_c, 1, 71, 0
2, 29400, Note_off_c, 1, 74, 0
2, 29400, Note_off_c, 1, 77, 0
2, 29440, Note_on_c, 1, 38, 127
2, 29440, Note_on_c, 1, 41, 127
2, 29440, Note_on_c, 1, 49, 127
2, 29440, Note_on_c, 1, 52, 127
2, 29440, Note_on_c, 1, 55, 127
2, 29440, Note_on_c, 1, 61, 127
2, 29480, Note_off_c, 1, 38, 0
2, 29480, Note_off_c, 1, 41, 0
2, 29480, Note_on_c, 1, 46, 127
2, 29480, Note_off_c, 1, 49, 0
2, 29480, Note_on_c, 1, 51, 127
2, 29480, Note_off_c, 1, 52, 0
2, 29480, Note_on_c, 1, 54, 127
2, 29480, Note_off_c, 1, 55, 0
2, 29480, Note_on_c, 1, 59, 127
2, 29480, Note_off_c, 1, 61, 0
2, 29480, Note_on_c, 1, 66, 127
2, 29480, Note_on_c, 1, 71, 127
2, 29480, Note_on_c, 1, 83, 127
2, 30120, Note_off_c, 1, 46, 0
2, 30120, Note_off_c, 1, 54, 0
2, 30120, Note_on_c, 1, 58, 127
2, 30120, Note_off_c, 1, 59, 0
2, 30120, Note_off_c, 1, 66, 0
2, 30120, Note_off_c, 1, 71, 0
2, 30120, Note_off_c, 1, 83, 0
2, 30160, Note_off_c, 1, 51, 0
2, 30160, Note_on_c, 1, 55, 127
2, 30160, Note_off_c, 1, 58, 0
2, 30160, Note_on_c, 1, 62, 127
2, 30160, Note_on_c, 1, 71, 127
2, 30160, Note_on_c, 1, 78, 127
2, 30160, Note_on_c, 1, 86, 127
2, 30680, Note_on_c, 1, 54, 127
2, 30680, Note_off_c, 1, 55, 0
2, 30680, Note_on_c, 1, 69, 127
2, 30680, Note_off_c, 1, 71, 0
2, 30680, Note_off_c, 1, 78, 0
2, 30680, Note_off_c, 1, 86, 0
2, 30720, Note_off_c, 1, 54, 0
2, 30720, Note_off_c, 1, 62, 0
2, 30720, Note_on_c, 1, 66, 127
2, 30720, Note_off_c, 1, 69, 0
2, 30720, Note_on_c, 1, 76, 127
2, 30720, Note_on_c, 1, 92, 127
2, 30760, Note_on_c, 1, 44, 127
2, 30760, Note_on_c, 1, 56, 127
2, 30760, Note_off_c, 1, 66, 0
2, 30760, Note_off_c, 1, 76, 0
2, 30760, Note_on_c, 1, 78, 127
2, 30760, Note_on_c, 1, 80, 127
2, 30760, Note_on_c, 1, 84, 127
2, 30760, Note_on_c, 1, 87, 127
2, 30760, Note_off_c, 1, 92, 0
2, 30800, Note_off_c, 1, 44, 0
2, 30800, Note_on_c, 1, 53, 127
2, 30800, Note_off_c, 1, 56, 0
2, 30800, Note_on_c, 1, 65, 127
2, 30800, Note_off_c, 1, 78, 0
2, 30800, Note_off_c, 1, 80, 0
2, 30800, Note_on_c, 1, 83, 127
2, 30800, Note_off_c, 1, 84, 0
2, 30800, Note_on_c, 1, 90, 127
2, 30800, Note_on_c, 1, 95, 127
2, 30840, Note_off_c, 1, 53, 0
2, 30840, Note_on_c, 1, 64, 127
2, 30840, Note_off_c, 1, 65, 0
2, 30840, Note_on_c, 1, 67, 127
2, 30840, Note_on_c, 1, 70, 127
2, 30840, Note_on_c, 1, 72, 127
2, 30840, Note_on_c, 1, 80, 127
2, 30840, Note_off_c, 1, 83, 0
2, 30840, Note_off_c, 1, 87, 0
2, 30840, Note_off_c, 1, 90, 0
2, 30840, Note_off_c, 1, 95, 0
2, 30880, Note_on_c, 1, 54, 127
2, 30880, Note_on_c, 1, 63, 127
2, 30880, Note_off_c, 1, 64, 0
2, 30880, Note_off_c, 1, 67, 0
2, 30880, Note_off_c, 1, 70, 0
2, 30880, Note_off_c, 1, 72, 0
2, 30880, Note_on_c, 1, 75, 127
2, 30880, Note_off_c, 1, 80, 0
2, 30880, Note_on_c, 1, 82, 127
2, 30920, Note_on_c, 1, 44, 127
2, 30920, Note_off_c, 1, 54, 0
2, 30920, Note_on_c, 1, 56, 127
2, 30920, Note_off_c, 1, 63, 0
2, 30920, Note_off_c, 1, 75, 0
2, 30920, Note_on_c, 1, 78, 127
2, 30920, Note_on_c, 1, 80, 127
2, 30920, Note_off_c, 1, 82, 0
2, 30920, Note_on_c, 1, 84, 127
2, 30920, Note_on_c, 1, 87, 127
2, 31120, Note_on_c, 1, 34, 127
2, 31120, Note_off_c, 1, 44, 0
2, 31120, Note_on_c, 1, 46, 127
2, 31120, Note_off_c, 1, 56, 0
2, 31120, Note_on_c, 1, 66, 127
2, 31120, Note_on_c, 1, 75, 127
2, 31120, Note_off_c, 1, 78, 0
2, 31120, Note_off_c, 1, 80, 0
2, 31120, Note_off_c, 1, 84, 0
2, 31120, Note_off_c, 1, 87, 0
2, 31160, Note_off_c, 1, 34, 0
2, 31160, Note_off_c, 1, 46, 0
2, 31160, Note_on_c, 1, 50, 127
2, 31160, Note_on_c, 1, 62, 127
2, 31160, Note_off_c, 1, 66, 0
2, 31160, Note_on_c, 1, 74, 127
2, 31160, Note_off_c, 1, 75, 0
2, 31160, Note_on_c, 1, 78, 127
2, 31160, Note_on_c, 1, 81, 127
2, 31200, Note_on_c, 1, 33, 127
2, 31200, Note_off_c, 1, 50, 0
2, 31200, Note_on_c, 1, 57, 127
2, 31200, Note_on_c, 1, 59, 127
2, 31200, Note_off_c, 1, 62, 0
2, 31200, Note_off_c, 1, 74, 0
2, 31200, Note_off_c, 1, 78, 0
2, 31200, Note_off_c, 1, 81, 0
2, 31240, Note_off_c, 1, 33, 0
2, 31240, Note_on_c, 1, 55, 127
2, 31240, Note_off_c, 1, 57, 0
2, 31240, Note_on_c, 1, 58, 127
2, 31240, Note_off_c, 1, 59, 0
2, 31240, Note_on_c, 1, 62, 127
2, 31240, Note_on_c, 1, 69, 127
2, 31280, Note_off_c, 1, 55, 0
2, 31280, Note_off_c, 1, 58, 0
2, 31280, Note_off_c, 1, 62, 0
2, 31280, Note_off_c, 1, 69, 0
2, 31320, Note_on_c, 1, 59, 127
2, 31320, Note_on_c, 1, 68, 127
2, 31320, Note_on_c, 1, 77, 127
2, 31320, Note_on_c, 1, 89, 127
2, 31360, Note_off_c, 1, 59, 0
2, 31360, Note_off_c, 1, 68, 0
2, 31360, Note_off_c, 1, 77, 0
2, 31360, Note_off_c, 1, 89, 0
2, 31400, Note_on_c, 1, 43, 127
2, 31400, Note_on_c, 1, 52, 127
2, 31400, Note_on_c, 1, 67, 127
2, 31400, Note_on_c, 1, 72, 127
2, 31560, Note_off_c, 1, 43, 0
2, 31560, Note_on_c, 1, 48, 127
2, 31560, Note_off_c, 1, 52, 0
2, 31560, Note_on_c, 1, 64, 127
2, 31560, Note_on_c, 1, 79, 127
2, 31600, Note_on_c, 1, 43, 127
2, 31600, Note_off_c, 1, 48, 0
2, 31600, Note_on_c, 1, 52, 127
2, 31600, Note_off_c, 1, 64, 0
2, 31600, Note_off_c, 1, 79, 0
2, 31960, Note_off_c, 1, 67, 0
2, 32000, Note_on_c, 1, 67, 127
2, 32200, Note_on_c, 1, 64, 127
2, 32200, Note_off_c, 1, 67, 0
2, 32280, Note_off_c, 1, 64, 0
2, 32320, Note_on_c, 1, 67, 127
2, 32360, Note_off_c, 1, 43, 0
2, 32360, Note_off_c, 1, 52, 0
2, 32360, Note_off_c, 1, 67, 0
2, 32360, Note_off_c, 1, 72, 0
2, 32400, Note_on_c, 1, 40, 127
2, 32400, Note_on_c, 1, 58, 127
2, 32400, Note_on_c, 1, 67, 127
2, 32400, Note_on_c, 1, 79, 127
2, 32760, Note_off_c, 1, 40, 0
2, 32760, Note_on_c, 1, 57, 127
2, 32760, Note_off_c, 1, 58, 0
2, 32760, Note_on_c, 1, 60, 127
2, 32760, Note_off_c, 1, 67, 0
2, 32760, Note_off_c, 1, 79, 0
2, 32800, Note_on_c, 1, 39, 127
2, 32800, Note_off_c, 1, 57, 0
2, 32800, Note_off_c, 1, 60, 0
2, 32800, Note_on_c, 1, 63, 127
2, 32800, Note_on_c, 1, 67, 127
2, 32800, Note_on_c, 1, 72, 127
2, 33200, Note_off_c, 1, 39, 0
2, 33200, Note_off_c, 1, 63, 0
2, 33200, Note_off_c, 1, 67, 0
2, 33200, Note_off_c, 1, 72, 0
2, 33240, Note_on_c, 1, 39, 127
2, 33240, Note_on_c, 1, 63, 127
2, 33240, Note_on_c, 1, 67, 127
2, 33240, Note_on_c, 1, 72, 127
2, 33600, Note_off_c, 1, 39, 0
2, 33600, Note_off_c, 1, 63, 0
2, 33600, Note_off_c, 1, 67, 0
2, 33600, Note_off_c, 1, 72, 0
2, 33640, Note_on_c, 1, 39, 127
2, 33640, Note_on_c, 1, 63, 127
2, 33640, Note_on_c, 1, 67, 127
2, 33640, Note_on_c, 1, 72, 127
2, 34400, Note_off_c, 1, 39, 0
2, 34400, Note_off_c, 1, 63, 0
2, 34400, Note_off_c, 1, 67, 0
2, 34400, Note_off_c, 1, 72, 0
2, 34440, Note_on_c, 1, 39, 127
2, 34440, Note_on_c, 1, 63, 127
2, 34440, Note_on_c, 1, 67, 127
2, 34440, Note_on_c, 1, 72, 127
2, 34840, Note_off_c, 1, 39, 0
2, 34840, Note_on_c, 1, 41, 127
2, 34840, Note_on_c, 1, 60, 127
2, 34840, Note_off_c, 1, 67, 0
2, 34840, Note_on_c, 1, 70, 127
2, 34840, Note_off_c, 1, 72, 0
2, 34880, Note_off_c, 1, 41, 0
2, 34880, Note_on_c, 1, 43, 127
2, 34880, Note_on_c, 1, 55, 127
2, 34880, Note_on_c, 1, 59, 127
2, 34880, Note_off_c, 1, 63, 0
2, 34880, Note_on_c, 1, 64, 127
2, 34880, Note_off_c, 1, 70, 0
2, 34920, Note_on_c, 1, 41, 127
2, 34920, Note_off_c, 1, 43, 0
2, 34920, Note_off_c, 1, 55, 0
2, 34920, Note_off_c, 1, 59, 0
2, 34920, Note_on_c, 1, 63, 127
2, 34920, Note_off_c, 1, 64, 0
2, 34920, Note_on_c, 1, 70, 127
2, 35000, Note_on_c, 1, 37, 127
2, 35000, Note_off_c, 1, 41, 0
2, 35000, Note_on_c, 1, 44, 127
2, 35000, Note_off_c, 1, 60, 0
2, 35000, Note_off_c, 1, 63, 0
2, 35000, Note_on_c, 1, 68, 127
2, 35000, Note_off_c, 1, 70, 0
2, 35000, Note_on_c, 1, 80, 127
2, 35040, Note_off_c, 1, 37, 0
2, 35040, Note_on_c, 1, 41, 127
2, 35040, Note_off_c, 1, 44, 0
2, 35040, Note_on_c, 1, 60, 127
2, 35040, Note_on_c, 1, 63, 127
2, 35040, Note_off_c, 1, 68, 0
2, 35040, Note_on_c, 1, 70, 127
2, 35040, Note_off_c, 1, 80, 0
2, 35200, Note_off_c, 1, 41, 0
2, 35200, Note_off_c, 1, 60, 0
2, 35200, Note_off_c, 1, 63, 0
2, 35200, Note_off_c, 1, 70, 0
2, 35280, Note_on_c, 1, 48, 127
2, 35280, Note_on_c, 1, 55, 127
2, 35280, Note_on_c, 1, 63, 127
2, 35280, Note_on_c, 1, 67, 127
2, 35280, Note_on_c, 1, 72, 127
2, 35280, Note_on_c, 1, 75, 127
2, 36400, Note_off_c, 1, 48, 0
2, 36400, Note_off_c, 1, 55, 0
2, 36400, Note_off_c, 1, 63, 0
2, 36400, Note_off_c, 1, 67, 0
2, 36400, Note_off_c, 1, 72, 0
2, 36400, Note_off_c, 1, 75, 0
2, 36440, Note_on_c, 1, 46, 127
2, 36440, Note_on_c, 1, 53, 127
2, 36440, Note_on_c, 1, 60, 127
2, 36440, Note_on_c, 1, 65, 127
2, 36440, Note_on_c, 1, 69, 127
2, 36440, Note_on_c, 1, 72, 127
2, 36840, Note_off_c, 1, 60, 0
2, 36840, Note_off_c, 1, 72, 0
2, 36880, Note_on_c, 1, 61, 127
2, 36880, Note_on_c, 1, 73, 127
2, 37200, Note_off_c, 1, 46, 0
2, 37200, Note_off_c, 1, 53, 0
2, 37200, Note_on_c, 1, 60, 127
2, 37200, Note_off_c, 1, 61, 0
2, 37200, Note_off_c, 1, 69, 0
2, 37200, Note_off_c, 1, 73, 0
2, 37200, Note_on_c, 1, 77, 127
2, 37200, Note_on_c, 1, 80, 127
2, 37240, Note_off_c, 1, 60, 0
2, 37240, Note_off_c, 1, 65, 0
2, 37240, Note_off_c, 1, 77, 0
2, 37240, Note_off_c, 1, 80, 0
2, 37320, Note_on_c, 1, 46, 127
2, 37320, Note_on_c, 1, 53, 127
2, 37320, Note_on_c, 1, 60, 127
2, 37320, Note_on_c, 1, 65, 127
2, 37320, Note_on_c, 1, 69, 127
2, 37320, Note_on_c, 1, 72, 127
2, 37680, Note_off_c, 1, 60, 0
2, 37680, Note_off_c, 1, 72, 0
2, 37720, Note_off_c, 1, 53, 0
2, 37720, Note_on_c, 1, 57, 127
2, 37720, Note_on_c, 1, 63, 127
2, 37720, Note_on_c, 1, 75, 127
2, 38080, Note_off_c, 1, 63, 0
2, 38080, Note_off_c, 1, 75, 0
2, 38120, Note_on_c, 1, 61, 127
2, 38120, Note_on_c, 1, 73, 127
2, 38440, Note_off_c, 1, 46, 0
2, 38440, Note_off_c, 1, 61, 0
2, 38440, Note_off_c, 1, 73, 0
2, 38520, Note_on_c, 1, 46, 127
2, 38520, Note_on_c, 1, 60, 127
2, 38520, Note_on_c, 1, 72, 127
2, 38840, Note_off_c, 1, 57, 0
2, 38840, Note_off_c, 1, 60, 0
2, 38840, Note_off_c, 1, 72, 0
2, 38880, Note_off_c, 1, 46, 0
2, 38880, Note_off_c, 1, 65, 0
2, 38880, Note_off_c, 1, 69, 0
2, 38920, Note_on_c, 1, 44, 127
2, 38920, Note_on_c, 1, 51, 127
2, 38920, Note_on_c, 1, 66, 127
2, 38920, Note_on_c, 1, 72, 127
2, 39280, Note_off_c, 1, 51, 0
2, 39280, Note_off_c, 1, 66, 0
2, 39320, Note_off_c, 1, 44, 0
2, 39320, Note_off_c, 1, 72, 0
2, 39360, Note_on_c, 1, 39, 127
2, 39360, Note_on_c, 1, 63, 127
2, 39360, Note_on_c, 1, 73, 127
2, 39360, Note_on_c, 1, 77, 127
2, 39400, Note_off_c, 1, 39, 0
2, 39400, Note_on_c, 1, 51, 127
2, 39440, Note_on_c, 1, 39, 127
2, 39440, Note_off_c, 1, 51, 0
2, 39600, Note_off_c, 1, 39, 0
2, 39640, Note_on_c, 1, 39, 127
2, 39720, Note_off_c, 1, 39, 0
2, 39720, Note_off_c, 1, 63, 0
2, 39720, Note_on_c, 1, 65, 127
2, 39760, Note_on_c, 1, 44, 127
2, 39760, Note_off_c, 1, 65, 0
2, 39760, Note_on_c, 1, 68, 127
2, 39760, Note_on_c, 1, 72, 127
2, 39760, Note_off_c, 1, 73, 0
2, 39760, Note_on_c, 1, 80, 127
2, 40520, Note_off_c, 1, 44, 0
2, 40520, Note_off_c, 1, 68, 0
2, 40520, Note_off_c, 1, 72, 0
2, 40520, Note_off_c, 1, 77, 0
2, 40520, Note_off_c, 1, 80, 0
2, 40560, Note_on_c, 1, 45, 127
2, 40560, Note_on_c, 1, 72, 127
2, 40560, Note_on_c, 1, 81, 127
2, 40560, Note_on_c, 1, 84, 127
2, 40720, Note_off_c, 1, 45, 0
2, 40760, Note_on_c, 1, 45, 127
2, 40840, Note_off_c, 1, 45, 0
2, 40960, Note_on_c, 1, 54, 127
2, 40960, Note_on_c, 1, 58, 127
2, 40960, Note_on_c, 1, 61, 127
2, 40960, Note_on_c, 1, 63, 127
2, 40960, Note_off_c, 1, 72, 0
2, 40960, Note_off_c, 1, 81, 0
2, 40960, Note_off_c, 1, 84, 0
2, 40960, Note_on_c, 1, 90, 127
2, 41000, Note_on_c, 1, 51, 127
2, 41000, Note_off_c, 1, 54, 0
2, 41000, Note_on_c, 1, 55, 127
2, 41000, Note_off_c, 1, 58, 0
2, 41000, Note_off_c, 1, 63, 0
2, 41000, Note_on_c, 1, 64, 127
2, 41000, Note_on_c, 1, 71, 127
2, 41000, Note_on_c, 1, 76, 127
2, 41000, Note_off_c, 1, 90, 0
2, 41040, Note_off_c, 1, 51, 0
2, 41040, Note_off_c, 1, 55, 0
2, 41040, Note_on_c, 1, 56, 127
2, 41040, Note_off_c, 1, 71, 0
2, 41040, Note_off_c, 1, 76, 0
2, 41040, Note_on_c, 1, 80, 127
2, 41040, Note_on_c, 1, 92, 127
2, 41080, Note_off_c, 1, 56, 0
2, 41080, Note_off_c, 1, 64, 0
2, 41080, Note_on_c, 1, 73, 127
2, 41080, Note_on_c, 1, 77, 127
2, 41080, Note_off_c, 1, 80, 0
2, 41080, Note_on_c, 1, 89, 127
2, 41080, Note_off_c, 1, 92, 0
2, 41120, Note_on_c, 1, 54, 127
2, 41120, Note_on_c, 1, 58, 127
2, 41120, Note_on_c, 1, 63, 127
2, 41120, Note_off_c, 1, 73, 0
2, 41120, Note_off_c, 1, 77, 0
2, 41120, Note_off_c, 1, 89, 0
2, 41120, Note_on_c, 1, 90, 127
2, 41160, Note_off_c, 1, 54, 0
2, 41160, Note_off_c, 1, 58, 0
2, 41160, Note_off_c, 1, 63, 0
2, 41160, Note_on_c, 1, 73, 127
2, 41160, Note_on_c, 1, 77, 127
2, 41160, Note_on_c, 1, 89, 127
2, 41160, Note_off_c, 1, 90, 0
2, 41320, Note_off_c, 1, 61, 0
2, 41320, Note_on_c, 1, 67, 127
2, 41320, Note_off_c, 1, 73, 0
2, 41320, Note_off_c, 1, 77, 0
2, 41320, Note_off_c, 1, 89, 0
2, 41320, Note_on_c, 1, 94, 127
2, 41360, Note_on_c, 1, 58, 127
2, 41360, Note_on_c, 1, 60, 127
2, 41360, Note_on_c, 1, 82, 127
2, 41360, Note_off_c, 1, 94, 0
2, 41400, Note_off_c, 1, 58, 0
2, 41400, Note_off_c, 1, 60, 0
2, 41400, Note_off_c, 1, 67, 0
2, 41400, Note_off_c, 1, 82, 0
2, 41440, Note_on_c, 1, 58, 127
2, 41440, Note_on_c, 1, 60, 127
2, 41440, Note_on_c, 1, 67, 127
2, 41440, Note_on_c, 1, 82, 127
2, 41640, Note_on_c, 1, 80, 127
2, 41640, Note_off_c, 1, 82, 0
2, 41680, Note_off_c, 1, 80, 0
2, 41680, Note_on_c, 1, 82, 127
2, 41760, Note_off_c, 1, 82, 0
2, 41800, Note_on_c, 1, 34, 127
2, 41800, Note_on_c, 1, 36, 127
2, 41800, Note_on_c, 1, 41, 127
2, 41800, Note_on_c, 1, 46, 127
2, 41800, Note_on_c, 1, 48, 127
2, 41800, Note_off_c, 1, 60, 0
2, 41800, Note_on_c, 1, 61, 127
2, 41800, Note_on_c, 1, 65, 127
2, 41800, Note_off_c, 1, 67, 0
2, 41800, Note_on_c, 1, 70, 127
2, 41840, Note_off_c, 1, 34, 0
2, 41840, Note_off_c, 1, 36, 0
2, 41840, Note_off_c, 1, 41, 0
2, 41840, Note_off_c, 1, 46, 0
2, 41840, Note_on_c, 1, 54, 127
2, 41840, Note_off_c, 1, 61, 0
2, 41840, Note_off_c, 1, 70, 0
2, 41880, Note_on_c, 1, 32, 127
2, 41880, Note_on_c, 1, 50, 127
2, 41880, Note_on_c, 1, 56, 127
2, 41880, Note_off_c, 1, 58, 0
2, 41880, Note_off_c, 1, 65, 0
2, 41920, Note_off_c, 1, 32, 0
2, 41920, Note_off_c, 1, 48, 0
2, 41920, Note_off_c, 1, 50, 0
2, 41920, Note_off_c, 1, 54, 0
2, 41920, Note_off_c, 1, 56, 0
2, 41920, Note_on_c, 1, 64, 127
2, 41920, Note_on_c, 1, 68, 127
2, 41920, Note_on_c, 1, 71, 127
2, 41920, Note_on_c, 1, 90, 127
2, 41960, Note_on_c, 1, 51, 127
2, 41960, Note_on_c, 1, 53, 127
2, 41960, Note_on_c, 1, 60, 127
2, 41960, Note_off_c, 1, 64, 0
2, 41960, Note_off_c, 1, 68, 0
2, 41960, Note_off_c, 1, 71, 0
2, 41960, Note_off_c, 1, 90, 0
2, 41960, Note_on_c, 1, 93, 127
2, 42000, Note_on_c, 1, 38, 127
2, 42000, Note_off_c, 1, 51, 0
2, 42000, Note_off_c, 1, 60, 0
2, 42000, Note_on_c, 1, 65, 127
2, 42000, Note_on_c, 1, 68, 127
2, 42000, Note_on_c, 1, 70, 127
2, 42000, Note_off_c, 1, 93, 0
2, 42040, Note_on_c, 1, 35, 127
2, 42040, Note_off_c, 1, 38, 0
2, 42040, Note_off_c, 1, 53, 0
2, 42040, Note_off_c, 1, 65, 0
2, 42040, Note_on_c, 1, 67, 127
2, 42040, Note_off_c, 1, 68, 0
2, 42040, Note_on_c, 1, 76, 127
2, 42080, Note_off_c, 1, 35, 0
2, 42080, Note_on_c, 1, 61, 127
2, 42080, Note_off_c, 1, 67, 0
2, 42080, Note_off_c, 1, 76, 0
2, 42080, Note_on_c, 1, 82, 127
2, 42080, Note_on_c, 1, 90, 127
2, 42120, Note_on_c, 1, 41, 127
2, 42120, Note_off_c, 1, 61, 0
2, 42120, Note_off_c, 1, 70, 0
2, 42120, Note_off_c, 1, 90, 0
2, 42120, Note_on_c, 1, 91, 127
2, 42120, Note_on_c, 1, 94, 127
2, 42160, Note_off_c, 1, 41, 0
2, 42160, Note_on_c, 1, 79, 127
2, 42160, Note_off_c, 1, 82, 0
2, 42160, Note_on_c, 1, 86, 127
2, 42160, Note_off_c, 1, 94, 0
2, 42200, Note_on_c, 1, 57, 127
2, 42200, Note_on_c, 1, 61, 127
2, 42200, Note_on_c, 1, 77, 127
2, 42200, Note_off_c, 1, 79, 0
2, 42200, Note_on_c, 1, 81, 127
2, 42200, Note_on_c, 1, 83, 127
2, 42200, Note_off_c, 1, 86, 0
2, 42200, Note_off_c, 1, 91, 0
2, 42240, Note_off_c, 1, 57, 0
2, 42240, Note_on_c, 1, 58, 127
2, 42240, Note_off_c, 1, 61, 0
2, 42240, Note_on_c, 1, 64, 127
2, 42240, Note_on_c, 1, 69, 127
2, 42240, Note_off_c, 1, 77, 0
2, 42240, Note_off_c, 1, 81, 0
2, 42240, Note_on_c, 1, 82, 127
2, 42240, Note_off_c, 1, 83, 0
2, 42240, Note_on_c, 1, 86, 127
2, 42240, Note_on_c, 1, 88, 127
2, 42280, Note_on_c, 1, 34, 127
2, 42280, Note_on_c, 1, 46, 127
2, 42280, Note_on_c, 1, 56, 127
2, 42280, Note_off_c, 1, 58, 0
2, 42280, Note_off_c, 1, 64, 0
2, 42280, Note_off_c, 1, 69, 0
2, 42280, Note_on_c, 1, 75, 127
2, 42280, Note_off_c, 1, 82, 0
2, 42280, Note_off_c, 1, 86, 0
2, 42280, Note_off_c, 1, 88, 0
2, 42320, Note_off_c, 1, 34, 0
2, 42320, Note_on_c, 1, 41, 127
2, 42320, Note_on_c, 1, 45, 127
2, 42320, Note_off_c, 1, 46, 0
2, 42320, Note_on_c, 1, 53, 127
2, 42320, Note_off_c, 1, 56, 0
2, 42320, Note_on_c, 1, 60, 127
2, 42320, Note_on_c, 1, 72, 127
2, 42320, Note_off_c, 1, 75, 0
2, 42360, Note_off_c, 1, 41, 0
2, 42360, Note_off_c, 1, 45, 0
2, 42360, Note_on_c, 1, 50, 127
2, 42360, Note_on_c, 1, 52, 127
2, 42360, Note_off_c, 1, 53, 0
2, 42360, Note_on_c, 1, 57, 127
2, 42360, Note_off_c, 1, 60, 0
2, 42360, Note_on_c, 1, 61, 127
2, 42360, Note_off_c, 1, 72, 0
2, 42360, Note_on_c, 1, 86, 127
2, 42400, Note_off_c, 1, 50, 0
2, 42400, Note_off_c, 1, 52, 0
2, 42400, Note_off_c, 1, 61, 0
2, 42400, Note_on_c, 1, 77, 127
2, 42400, Note_on_c, 1, 83, 127
2, 42400, Note_off_c, 1, 86, 0
2, 42440, Note_on_c, 1, 52, 127
2, 42440, Note_off_c, 1, 57, 0
2, 42440, Note_off_c, 1, 77, 0
2, 42440, Note_off_c, 1, 83, 0
2, 42440, Note_on_c, 1, 92, 127
2, 42440, Note_on_c, 1, 95, 127
2, 42480, Note_off_c, 1, 52, 0
2, 42480, Note_on_c, 1, 57, 127
2, 42480, Note_on_c, 1, 77, 127
2, 42480, Note_on_c, 1, 83, 127
2, 42480, Note_off_c, 1, 92, 0
2, 42480, Note_off_c, 1, 95, 0
2, 42520, Note_on_c, 1, 37, 127
2, 42520, Note_off_c, 1, 57, 0
2, 42520, Note_off_c, 1, 77, 0
2, 42520, Note_off_c, 1, 83, 0
2, 42520, Note_on_c, 1, 89, 127
2, 42560, Note_off_c, 1, 37, 0
2, 42560, Note_off_c, 1, 89, 0
2, 42600, Note_on_c, 1, 42, 127
2, 42600, Note_on_c, 1, 62, 127
2, 42600, Note_on_c, 1, 71, 127
2, 42600, Note_on_c, 1, 83, 127
2, 43360, Note_off_c, 1, 42, 0
2, 43360, Note_on_c, 1, 43, 127
2, 43360, Note_on_c, 1, 52, 127
2, 43360, Note_off_c, 1, 62, 0
2, 43360, Note_off_c, 1, 71, 0
2, 43360, Note_off_c, 1, 83, 0
2, 43400, Note_off_c, 1, 43, 0
2, 43400, Note_off_c, 1, 52, 0
2, 43480, Note_on_c, 1, 40, 127
2, 43480, Note_on_c, 1, 48, 127
2, 43480, Note_on_c, 1, 52, 127
2, 43480, Note_on_c, 1, 72, 127
2, 43480, Note_on_c, 1, 79, 127
2, 43480, Note_on_c, 1, 82, 127
2, 43480, Note_on_c, 1, 84, 127
2, 43840, Note_off_c, 1, 40, 0
2, 43840, Note_off_c, 1, 48, 0
2, 43840, Note_off_c, 1, 52, 0
2, 43840, Note_off_c, 1, 72, 0
2, 43840, Note_on_c, 1, 74, 127
2, 43840, Note_on_c, 1, 78, 127
2, 43840, Note_off_c, 1, 79, 0
2, 43840, Note_on_c, 1, 81, 127
2, 43840, Note_off_c, 1, 82, 0
2, 43880, Note_on_c, 1, 44, 127
2, 43880, Note_on_c, 1, 49, 127
2, 43880, Note_on_c, 1, 59, 127
2, 43880, Note_on_c, 1, 73, 127
2, 43880, Note_off_c, 1, 74, 0
2, 43880, Note_on_c, 1, 77, 127
2, 43880, Note_off_c, 1, 78, 0
2, 43880, Note_off_c, 1, 81, 0
2, 43880, Note_on_c, 1, 83, 127
2, 43880, Note_off_c, 1, 84, 0
2, 43880, Note_on_c, 1, 85, 127
2, 44040, Note_off_c, 1, 44, 0
2, 44040, Note_off_c, 1, 49, 0
2, 44040, Note_on_c, 1, 57, 127
2, 44040, Note_off_c, 1, 59, 0
2, 44040, Note_on_c, 1, 67, 127
2, 44040, Note_on_c, 1, 69, 127
2, 44040, Note_off_c, 1, 73, 0
2, 44040, Note_on_c, 1, 74, 127
2, 44040, Note_off_c, 1, 77, 0
2, 44040, Note_off_c, 1, 83, 0
2, 44040, Note_off_c, 1, 85, 0
2, 44080, Note_on_c, 1, 44, 127
2, 44080, Note_on_c, 1, 49, 127
2, 44080, Note_off_c, 1, 57, 0
2, 44080, Note_on_c, 1, 59, 127
2, 44080, Note_off_c, 1, 67, 0
2, 44080, Note_off_c, 1, 69, 0
2, 44080, Note_on_c, 1, 73, 127
2, 44080, Note_off_c, 1, 74, 0
2, 44080, Note_on_c, 1, 77, 127
2, 44080, Note_on_c, 1, 83, 127
2, 44080, Note_on_c, 1, 85, 127
2, 44240, Note_off_c, 1, 44, 0
2, 44240, Note_off_c, 1, 49, 0
2, 44240, Note_off_c, 1, 59, 0
2, 44240, Note_on_c, 1, 61, 127
2, 44240, Note_on_c, 1, 70, 127
2, 44240, Note_off_c, 1, 73, 0
2, 44240, Note_off_c, 1, 83, 0
2, 44240, Note_off_c, 1, 85, 0
2, 44240, Note_on_c, 1, 89, 127
2, 44280, Note_on_c, 1, 26, 127
2, 44280, Note_on_c, 1, 38, 127
2, 44280, Note_off_c, 1, 61, 0
2, 44280, Note_on_c, 1, 67, 127
2, 44280, Note_off_c, 1, 70, 0
2, 44280, Note_on_c, 1, 74, 127
2, 44280, Note_off_c, 1, 77, 0
2, 44280, Note_off_c, 1, 89, 0
2, 44640, Note_off_c, 1, 26, 0
2, 44640, Note_off_c, 1, 38, 0
2, 44640, Note_off_c, 1, 67, 0
2, 44640, Note_off_c, 1, 74, 0
2, 44680, Note_on_c, 1, 38, 127
2, 44680, Note_on_c, 1, 59, 127
2, 44680, Note_on_c, 1, 65, 127
2, 44680, Note_on_c, 1, 68, 127
2, 45480, Note_off_c, 1, 38, 0
2, 45480, Note_off_c, 1, 59, 0
2, 45480, Note_off_c, 1, 65, 0
2, 45480, Note_off_c, 1, 68, 0
2, 45520, Note_on_c, 1, 60, 127
2, 45520, Note_on_c, 1, 69, 127
2, 45520, Note_on_c, 1, 79, 127
2, 45560, Note_on_c, 1, 57, 127
2, 45560, Note_off_c, 1, 60, 0
2, 45560, Note_on_c, 1, 61, 127
2, 45560, Note_on_c, 1, 64, 127
2, 45560, Note_off_c, 1, 79, 0
2, 45560, Note_on_c, 1, 102, 127
2, 45560, Note_on_c, 1, 103, 127
2, 45600, Note_on_c, 1, 35, 127
2, 45600, Note_on_c, 1, 47, 127
2, 45600, Note_off_c, 1, 57, 0
2, 45600, Note_off_c, 1, 61, 0
2, 45600, Note_on_c, 1, 62, 127
2, 45600, Note_off_c, 1, 64, 0
2, 45600, Note_on_c, 1, 67, 127
2, 45600, Note_off_c, 1, 69, 0
2, 45600, Note_on_c, 1, 71, 127
2, 45600, Note_on_c, 1, 74, 127
2, 45600, Note_off_c, 1, 102, 0
2, 45600, Note_off_c, 1, 103, 0
2, 45640, Note_off_c, 1, 35, 0
2, 45640, Note_off_c, 1, 47, 0
2, 45640, Note_off_c, 1, 67, 0
2, 45640, Note_on_c, 1, 68, 127
2, 45640, Note_on_c, 1, 70, 127
2, 45640, Note_off_c, 1, 71, 0
2, 45640, Note_off_c, 1, 74, 0
2, 45640, Note_on_c, 1, 96, 127
2, 45680, Note_on_c, 1, 57, 127
2, 45680, Note_on_c, 1, 60, 127
2, 45680, Note_off_c, 1, 62, 0
2, 45680, Note_on_c, 1, 63, 127
2, 45680, Note_on_c, 1, 65, 127
2, 45680, Note_off_c, 1, 68, 0
2, 45680, Note_off_c, 1, 70, 0
2, 45680, Note_on_c, 1, 89, 127
2, 45680, Note_off_c, 1, 96, 0
2, 45720, Note_on_c, 1, 38, 127
2, 45720, Note_off_c, 1, 57, 0
2, 45720, Note_off_c, 1, 60, 0
2, 45720, Note_off_c, 1, 63, 0
2, 45720, Note_on_c, 1, 64, 127
2, 45720, Note_off_c, 1, 65, 0
2, 45720, Note_on_c, 1, 67, 127
2, 45720, Note_on_c, 1, 71, 127
2, 45720, Note_on_c, 1, 74, 127
2, 45720, Note_off_c, 1, 89, 0
2, 45760, Note_off_c, 1, 38, 0
2, 45760, Note_off_c, 1, 64, 0
2, 45760, Note_off_c, 1, 67, 0
2, 45760, Note_off_c, 1, 74, 0
2, 45760, Note_on_c, 1, 78, 127
2, 45760, Note_on_c, 1, 81, 127
2, 45760, Note_on_c, 1, 83, 127
2, 45760, Note_on_c, 1, 88, 127
2, 45800, Note_on_c, 1, 45, 127
2, 45800, Note_on_c, 1, 50, 127
2, 45800, Note_on_c, 1, 55, 127
2, 45800, Note_on_c, 1, 65, 127
2, 45800, Note_off_c, 1, 71, 0
2, 45800, Note_on_c, 1, 77, 127
2, 45800, Note_off_c, 1, 78, 0
2, 45800, Note_off_c, 1, 81, 0
2, 45800, Note_off_c, 1, 83, 0
2, 45800, Note_off_c, 1, 88, 0
2, 45840, Note_off_c, 1, 45, 0
2, 45840, Note_off_c, 1, 50, 0
2, 45840, Note_off_c, 1, 55, 0
2, 45840, Note_off_c, 1, 65, 0
2, 45840, Note_on_c, 1, 71, 127
2, 45840, Note_off_c, 1, 77, 0
2, 45840, Note_on_c, 1, 78, 127
2, 45840, Note_on_c, 1, 81, 127
2, 45840, Note_on_c, 1, 83, 127
2, 45840, Note_on_c, 1, 88, 127
2, 45880, Note_on_c, 1, 48, 127
2, 45880, Note_off_c, 1, 71, 0
2, 45880, Note_on_c, 1, 75, 127
2, 45880, Note_off_c, 1, 78, 0
2, 45880, Note_on_c, 1, 79, 127
2, 45880, Note_off_c, 1, 81, 0
2, 45880, Note_off_c, 1, 83, 0
2, 45880, Note_on_c, 1, 87, 127
2, 45880, Note_off_c, 1, 88, 0
2, 45920, Note_off_c, 1, 48, 0
2, 45920, Note_off_c, 1, 75, 0
2, 45920, Note_off_c, 1, 79, 0
2, 45920, Note_off_c, 1, 87, 0
2, 45920, Note_on_c, 1, 89, 127
2, 45920, Note_on_c, 1, 92, 127
2, 45960, Note_on_c, 1, 37, 127
2, 45960, Note_on_c, 1, 52, 127
2, 45960, Note_off_c, 1, 89, 0
2, 45960, Note_off_c, 1, 92, 0
2, 45960, Note_on_c, 1, 94, 127
2, 45960, Note_on_c, 1, 97, 127
2, 46000, Note_on_c, 1, 32, 127
2, 46000, Note_off_c, 1, 37, 0
2, 46000, Note_on_c, 1, 44, 127
2, 46000, Note_off_c, 1, 52, 0
2, 46000, Note_on_c, 1, 86, 127
2, 46000, Note_on_c, 1, 89, 127
2, 46000, Note_off_c, 1, 94, 0
2, 46000, Note_off_c, 1, 97, 0
2, 46040, Note_off_c, 1, 32, 0
2, 46040, Note_off_c, 1, 44, 0
2, 46040, Note_on_c, 1, 53, 127
2, 46040, Note_on_c, 1, 57, 127
2, 46040, Note_on_c, 1, 60, 127
2, 46040, Note_on_c, 1, 65, 127
2, 46040, Note_on_c, 1, 69, 127
2, 46040, Note_on_c, 1, 72, 127
2, 46040, Note_on_c, 1, 81, 127
2, 46040, Note_off_c, 1, 86, 0
2, 46040, Note_off_c, 1, 89, 0
2, 46080, Note_off_c, 1, 53, 0
2, 46080, Note_off_c, 1, 57, 0
2, 46080, Note_off_c, 1, 60, 0
2, 46080, Note_on_c, 1, 62, 127
2, 46080, Note_off_c, 1, 65, 0
2, 46080, Note_on_c, 1, 68, 127
2, 46080, Note_off_c, 1, 69, 0
2, 46080, Note_off_c, 1, 72, 0
2, 46080, Note_off_c, 1, 81, 0
2, 46080, Note_on_c, 1, 82, 127
2, 46080, Note_on_c, 1, 89, 127
2, 46120, Note_off_c, 1, 62, 0
2, 46120, Note_on_c, 1, 65, 127
2, 46120, Note_on_c, 1, 75, 127
2, 46120, Note_off_c, 1, 82, 0
2, 46120, Note_on_c, 1, 84, 127
2, 46120, Note_on_c, 1, 87, 127
2, 46120, Note_off_c, 1, 89, 0
2, 46160, Note_off_c, 1, 65, 0
2, 46160, Note_on_c, 1, 67, 127
2, 46160, Note_off_c, 1, 68, 0
2, 46160, Note_on_c, 1, 72, 127
2, 46160, Note_off_c, 1, 75, 0
2, 46160, Note_on_c, 1, 82, 127
2, 46160, Note_off_c, 1, 87, 0
2, 46200, Note_on_c, 1, 38, 127
2, 46200, Note_on_c, 1, 47, 127
2, 46200, Note_on_c, 1, 50, 127
2, 46200, Note_on_c, 1, 62, 127
2, 46200, Note_off_c, 1, 67, 0
2, 46200, Note_off_c, 1, 72, 0
2, 46200, Note_off_c, 1, 82, 0
2, 46200, Note_off_c, 1, 84, 0
2, 46240, Note_on_c, 1, 35, 127
2, 46240, Note_off_c, 1, 38, 0
2, 46240, Note_on_c, 1, 42, 127
2, 46240, Note_off_c, 1, 50, 0
2, 46240, Note_off_c, 1, 62, 0
2, 46240, Note_on_c, 1, 75, 127
2, 46240, Note_on_c, 1, 87, 127
2, 46280, Note_off_c, 1, 35, 0
2, 46280, Note_off_c, 1, 42, 0
2, 46280, Note_on_c, 1, 44, 127
2, 46280, Note_off_c, 1, 47, 0
2, 46280, Note_on_c, 1, 52, 127
2, 46280, Note_on_c, 1, 62, 127
2, 46280, Note_off_c, 1, 75, 0
2, 46280, Note_on_c, 1, 86, 127
2, 46280, Note_off_c, 1, 87, 0
2, 46320, Note_off_c, 1, 44, 0
2, 46320, Note_off_c, 1, 52, 0
2, 46320, Note_on_c, 1, 57, 127
2, 46320, Note_off_c, 1, 62, 0
2, 46320, Note_on_c, 1, 66, 127
2, 46320, Note_off_c, 1, 86, 0
2, 46320, Note_on_c, 1, 90, 127
2, 46320, Note_on_c, 1, 93, 127
2, 46360, Note_off_c, 1, 57, 0
2, 46360, Note_off_c, 1, 66, 0
2, 46360, Note_on_c, 1, 73, 127
2, 46360, Note_on_c, 1, 77, 127
2, 46360, Note_on_c, 1, 81, 127
2, 46360, Note_on_c, 1, 88, 127
2, 46360, Note_off_c, 1, 90, 0
2, 46360, Note_off_c, 1, 93, 0
2, 46720, Note_off_c, 1, 73, 0
2, 46720, Note_on_c, 1, 74, 127
2, 46720, Note_off_c, 1, 77, 0
2, 46720, Note_off_c, 1, 81, 0
2, 46720, Note_on_c, 1, 82, 127
2, 46720, Note_off_c, 1, 88, 0
2, 46720, Note_on_c, 1, 92, 127
2, 46720, Note_on_c, 1, 94, 127
2, 46760, Note_on_c, 1, 73, 127
2, 46760, Note_off_c, 1, 74, 0
2, 46760, Note_on_c, 1, 77, 127
2, 46760, Note_on_c, 1, 81, 127
2, 46760, Note_off_c, 1, 82, 0
2, 46760, Note_on_c, 1, 88, 127
2, 46760, Note_off_c, 1, 92, 0
2, 46760, Note_off_c, 1, 94, 0
2, 46800, Note_on_c, 1, 42, 127
2, 46800, Note_on_c, 1, 54, 127
2, 46800, Note_off_c, 1, 73, 0
2, 46800, Note_on_c, 1, 76, 127
2, 46800, Note_off_c, 1, 77, 0
2, 46800, Note_on_c, 1, 78, 127
2, 46800, Note_off_c, 1, 81, 0
2, 46800, Note_off_c, 1, 88, 0
2, 46840, Note_off_c, 1, 42, 0
2, 46840, Note_off_c, 1, 54, 0
2, 46840, Note_on_c, 1, 59, 127
2, 46840, Note_on_c, 1, 70, 127
2, 46840, Note_off_c, 1, 76, 0
2, 46840, Note_off_c, 1, 78, 0
2, 46840, Note_on_c, 1, 79, 127
2, 46840, Note_on_c, 1, 88, 127
2, 46880, Note_on_c, 1, 30, 127
2, 46880, Note_on_c, 1, 42, 127
2, 46880, Note_on_c, 1, 57, 127
2, 46880, Note_off_c, 1, 59, 0
2, 46880, Note_on_c, 1, 62, 127
2, 46880, Note_on_c, 1, 66, 127
2, 46880, Note_on_c, 1, 69, 127
2, 46880, Note_off_c, 1, 70, 0
2, 46880, Note_off_c, 1, 79, 0
2, 46880, Note_off_c, 1, 88, 0
2, 46920, Note_off_c, 1, 30, 0
2, 46920, Note_on_c, 1, 41, 127
2, 46920, Note_off_c, 1, 42, 0
2, 46920, Note_on_c, 1, 50, 127
2, 46920, Note_off_c, 1, 57, 0
2, 46920, Note_on_c, 1, 59, 127
2, 46920, Note_off_c, 1, 62, 0
2, 46920, Note_on_c, 1, 65, 127
2, 46920, Note_off_c, 1, 66, 0
2, 46920, Note_off_c, 1, 69, 0
2, 46920, Note_on_c, 1, 71, 127
2, 46960, Note_off_c, 1, 41, 0
2, 46960, Note_off_c, 1, 50, 0
2, 46960, Note_off_c, 1, 59, 0
2, 46960, Note_off_c, 1, 65, 0
2, 46960, Note_on_c, 1, 68, 127
2, 46960, Note_off_c, 1, 71, 0
2, 46960, Note_on_c, 1, 95, 127
2, 47000, Note_on_c, 1, 48, 127
2, 47000, Note_on_c, 1, 55, 127
2, 47000, Note_off_c, 1, 68, 0
2, 47000, Note_on_c, 1, 75, 127
2, 47000, Note_on_c, 1, 82, 127
2, 47000, Note_on_c, 1, 87, 127
2, 47000, Note_off_c, 1, 95, 0
2, 47040, Note_on_c, 1, 36, 127
2, 47040, Note_off_c, 1, 48, 0
2, 47040, Note_off_c, 1, 55, 0
2, 47040, Note_on_c, 1, 70, 127
2, 47040, Note_off_c, 1, 82, 0
2, 47040, Note_off_c, 1, 87, 0
2, 47080, Note_off_c, 1, 36, 0
2, 47080, Note_on_c, 1, 56, 127
2, 47080, Note_on_c, 1, 62, 127
2, 47080, Note_on_c, 1, 64, 127
2, 47080, Note_off_c, 1, 70, 0
2, 47080, Note_on_c, 1, 71, 127
2, 47080, Note_off_c, 1, 75, 0
2, 47080, Note_on_c, 1, 76, 127
2, 47120, Note_on_c, 1, 47, 127
2, 47120, Note_on_c, 1, 50, 127
2, 47120, Note_on_c, 1, 53, 127
2, 47120, Note_off_c, 1, 62, 0
2, 47120, Note_off_c, 1, 64, 0
2, 47120, Note_off_c, 1, 71, 0
2, 47120, Note_on_c, 1, 74, 127
2, 47120, Note_off_c, 1, 76, 0
2, 47160, Note_off_c, 1, 47, 0
2, 47160, Note_off_c, 1, 50, 0
2, 47160, Note_off_c, 1, 53, 0
2, 47160, Note_off_c, 1, 56, 0
2, 47160, Note_on_c, 1, 59, 127
2, 47160, Note_off_c, 1, 74, 0
2, 47200, Note_on_c, 1, 48, 127
2, 47200, Note_off_c, 1, 59, 0
2, 47200, Note_on_c, 1, 60, 127
2, 47200, Note_on_c, 1, 82, 127
2, 47200, Note_on_c, 1, 88, 127
2, 47200, Note_on_c, 1, 91, 127
2, 47200, Note_on_c, 1, 96, 127
2, 47240, Note_off_c, 1, 48, 0
2, 47240, Note_off_c, 1, 60, 0
2, 47240, Note_on_c, 1, 70, 127
2, 47240, Note_on_c, 1, 73, 127
2, 47240, Note_off_c, 1, 88, 0
2, 47240, Note_off_c, 1, 91, 0
2, 47240, Note_on_c, 1, 94, 127
2, 47240, Note_off_c, 1, 96, 0
2, 47240, Note_on_c, 1, 97, 127
2, 47280, Note_on_c, 1, 48, 127
2, 47280, Note_on_c, 1, 60, 127
2, 47280, Note_off_c, 1, 70, 0
2, 47280, Note_off_c, 1, 73, 0
2, 47280, Note_on_c, 1, 88, 127
2, 47280, Note_on_c, 1, 91, 127
2, 47280, Note_off_c, 1, 94, 0
2, 47280, Note_on_c, 1, 96, 127
2, 47280, Note_off_c, 1, 97, 0
2, 47520, Note_on_c, 1, 78, 127
2, 47520, Note_on_c, 1, 81, 127
2, 47520, Note_off_c, 1, 82, 0
2, 47520, Note_on_c, 1, 87, 127
2, 47520, Note_off_c, 1, 88, 0
2, 47520, Note_on_c, 1, 90, 127
2, 47520, Note_off_c, 1, 91, 0
2, 47520, Note_off_c, 1, 96, 0
2, 47560, Note_off_c, 1, 78, 0
2, 47560, Note_off_c, 1, 81, 0
2, 47560, Note_on_c, 1, 82, 127
2, 47560, Note_off_c, 1, 87, 0
2, 47560, Note_on_c, 1, 88, 127
2, 47560, Note_off_c, 1, 90, 0
2, 47560, Note_on_c, 1, 91, 127
2, 47560, Note_on_c, 1, 96, 127
2, 47600, Note_off_c, 1, 48, 0
2, 47600, Note_on_c, 1, 59, 127
2, 47600, Note_off_c, 1, 60, 0
2, 47600, Note_on_c, 1, 68, 127
2, 47600, Note_on_c, 1, 74, 127
2, 47600, Note_on_c, 1, 76, 127
2, 47600, Note_on_c, 1, 80, 127
2, 47600, Note_off_c, 1, 82, 0
2, 47600, Note_off_c, 1, 88, 0
2, 47600, Note_off_c, 1, 91, 0
2, 47600, Note_off_c, 1, 96, 0
2, 47640, Note_off_c, 1, 59, 0
2, 47640, Note_off_c, 1, 68, 0
2, 47640, Note_off_c, 1, 74, 0
2, 47640, Note_off_c, 1, 76, 0
2, 47640, Note_off_c, 1, 80, 0
2, 47680, Note_on_c, 1, 47, 127
2, 47680, Note_on_c, 1, 57, 127
2, 47680, Note_on_c, 1, 62, 127
2, 47680, Note_on_c, 1, 68, 127
2, 47680, Note_on_c, 1, 71, 127
2, 47720, Note_off_c, 1, 47, 0
2, 47720, Note_on_c, 1, 52, 127
2, 47720, Note_on_c, 1, 60, 127
2, 47720, Note_off_c, 1, 62, 0
2, 47720, Note_off_c, 1, 68, 0
2, 47720, Note_off_c, 1, 71, 0
2, 47720, Note_on_c, 1, 86, 127
2, 47760, Note_on_c, 1, 29, 127
2, 47760, Note_off_c, 1, 52, 0
2, 47760, Note_off_c, 1, 57, 0
2, 47760, Note_off_c, 1, 60, 0
2, 47760, Note_on_c, 1, 68, 127
2, 47760, Note_on_c, 1, 71, 127
2, 47760, Note_on_c, 1, 75, 127
2, 47760, Note_off_c, 1, 86, 0
2, 47800, Note_off_c, 1, 29, 0
2, 47800, Note_on_c, 1, 55, 127
2, 47800, Note_on_c, 1, 61, 127
2, 47800, Note_off_c, 1, 68, 0
2, 47800, Note_on_c, 1, 70, 127
2, 47800, Note_off_c, 1, 71, 0
2, 47800, Note_off_c, 1, 75, 0
2, 47800, Note_on_c, 1, 79, 127
2, 47800, Note_on_c, 1, 82, 127
2, 47840, Note_off_c, 1, 55, 0
2, 47840, Note_off_c, 1, 61, 0
2, 47840, Note_on_c, 1, 65, 127
2, 47840, Note_on_c, 1, 68, 127
2, 47840, Note_off_c, 1, 70, 0
2, 47840, Note_on_c, 1, 72, 127
2, 47840, Note_off_c, 1, 79, 0
2, 47840, Note_off_c, 1, 82, 0
2, 47840, Note_on_c, 1, 83, 127
2, 47880, Note_on_c, 1, 52, 127
2, 47880, Note_off_c, 1, 65, 0
2, 47880, Note_on_c, 1, 66, 127
2, 47880, Note_off_c, 1, 68, 0
2, 47880, Note_off_c, 1, 72, 0
2, 47880, Note_on_c, 1, 73, 127
2, 47880, Note_on_c, 1, 82, 127
2, 47880, Note_off_c, 1, 83, 0
2, 47880, Note_on_c, 1, 85, 127
2, 47920, Note_on_c, 1, 31, 127
2, 47920, Note_on_c, 1, 43, 127
2, 47920, Note_off_c, 1, 52, 0
2, 47920, Note_off_c, 1, 66, 0
2, 47920, Note_off_c, 1, 73, 0
2, 47920, Note_off_c, 1, 85, 0
2, 47920, Note_on_c, 1, 87, 127
2, 47920, Note_on_c, 1, 94, 127
2, 47960, Note_off_c, 1, 31, 0
2, 47960, Note_off_c, 1, 43, 0
2, 47960, Note_on_c, 1, 50, 127
2, 47960, Note_on_c, 1, 53, 127
2, 47960, Note_on_c, 1, 59, 127
2, 47960, Note_on_c, 1, 65, 127
2, 47960, Note_on_c, 1, 71, 127
2, 47960, Note_off_c, 1, 82, 0
2, 47960, Note_off_c, 1, 87, 0
2, 47960, Note_off_c, 1, 94, 0
2, 48000, Note_off_c, 1, 50, 0
2, 48000, Note_off_c, 1, 53, 0
2, 48000, Note_on_c, 1, 55, 127
2, 48000, Note_on_c, 1, 57, 127
2, 48000, Note_off_c, 1, 59, 0
2, 48000, Note_on_c, 1, 61, 127
2, 48000, Note_on_c, 1, 64, 127
2, 48000, Note_off_c, 1, 65, 0
2, 48000, Note_off_c, 1, 71, 0
2, 48000, Note_on_c, 1, 76, 127
2, 48040, Note_off_c, 1, 55, 0
2, 48040, Note_off_c, 1, 57, 0
2, 48040, Note_off_c, 1, 61, 0
2, 48040, Note_off_c, 1, 64, 0
2, 48040, Note_off_c, 1, 76, 0
2, 48080, Note_on_c, 1, 49, 127
2, 48080, Note_on_c, 1, 57, 127
2, 48080, Note_on_c, 1, 76, 127
2, 48080, Note_on_c, 1, 85, 127
2, 48120, Note_off_c, 1, 49, 0
2, 48120, Note_off_c, 1, 57, 0
2, 48120, Note_on_c, 1, 64, 127
2, 48120, Note_on_c, 1, 69, 127
2, 48120, Note_on_c, 1, 72, 127
2, 48120, Note_off_c, 1, 85, 0
2, 48120, Note_on_c, 1, 88, 127
2, 48120, Note_on_c, 1, 96, 127
2, 48120, Note_on_c, 1, 100, 127
2, 48160, Note_on_c, 1, 49, 127
2, 48160, Note_on_c, 1, 57, 127
2, 48160, Note_off_c, 1, 64, 0
2, 48160, Note_off_c, 1, 69, 0
2, 48160, Note_off_c, 1, 72, 0
2, 48160, Note_on_c, 1, 86, 127
2, 48160, Note_off_c, 1, 88, 0
2, 48160, Note_off_c, 1, 96, 0
2, 48160, Note_off_c, 1, 100, 0
2, 48200, Note_on_c, 1, 85, 127
2, 48200, Note_off_c, 1, 86, 0
2, 48240, Note_on_c, 1, 42, 127
2, 48240, Note_off_c, 1, 49, 0
2, 48240, Note_off_c, 1, 57, 0
2, 48240, Note_off_c, 1, 76, 0
2, 48240, Note_on_c, 1, 79, 127
2, 48240, Note_on_c, 1, 80, 127
2, 48240, Note_off_c, 1, 85, 0
2, 48280, Note_off_c, 1, 42, 0
2, 48280, Note_on_c, 1, 49, 127
2, 48280, Note_on_c, 1, 57, 127
2, 48280, Note_on_c, 1, 76, 127
2, 48280, Note_off_c, 1, 79, 0
2, 48280, Note_off_c, 1, 80, 0
2, 48280, Note_on_c, 1, 85, 127
2, 48400, Note_on_c, 1, 40, 127
2, 48400, Note_on_c, 1, 45, 127
2, 48400, Note_on_c, 1, 52, 127
2, 48400, Note_off_c, 1, 57, 0
2, 48400, Note_on_c, 1, 64, 127
2, 48400, Note_off_c, 1, 85, 0
2, 48440, Note_off_c, 1, 40, 0
2, 48440, Note_off_c, 1, 45, 0
2, 48440, Note_off_c, 1, 52, 0
2, 48440, Note_on_c, 1, 57, 127
2, 48440, Note_off_c, 1, 64, 0
2, 48440, Note_on_c, 1, 85, 127
2, 48640, Note_off_c, 1, 49, 0
2, 48640, Note_on_c, 1, 55, 127
2, 48640, Note_off_c, 1, 57, 0
2, 48640, Note_on_c, 1, 62, 127
2, 48640, Note_on_c, 1, 65, 127
2, 48640, Note_on_c, 1, 67, 127
2, 48640, Note_off_c, 1, 76, 0
2, 48640, Note_on_c, 1, 83, 127
2, 48640, Note_off_c, 1, 85, 0
2, 48640, Note_on_c, 1, 86, 127
2, 48640, Note_on_c, 1, 89, 127
2, 48640, Note_on_c, 1, 91, 127
2, 48640, Note_on_c, 1, 95, 127
2, 48680, Note_on_c, 1, 49, 127
2, 48680, Note_off_c, 1, 55, 0
2, 48680, Note_on_c, 1, 57, 127
2, 48680, Note_off_c, 1, 62, 0
2, 48680, Note_off_c, 1, 65, 0
2, 48680, Note_off_c, 1, 67, 0
2, 48680, Note_on_c, 1, 76, 127
2, 48680, Note_off_c, 1, 83, 0
2, 48680, Note_on_c, 1, 85, 127
2, 48680, Note_off_c, 1, 86, 0
2, 48680, Note_off_c, 1, 89, 0
2, 48680, Note_off_c, 1, 91, 0
2, 48680, Note_off_c, 1, 95, 0
2, 48800, Note_off_c, 1, 49, 0
2, 48800, Note_off_c, 1, 57, 0
2, 48800, Note_off_c, 1, 76, 0
2, 48800, Note_off_c, 1, 85, 0
2, 48880, Note_on_c, 1, 49, 127
2, 48880, Note_on_c, 1, 54, 127
2, 48880, Note_on_c, 1, 61, 127
2, 48880, Note_on_c, 1, 64, 127
2, 48880, Note_on_c, 1, 66, 127
2, 48880, Note_on_c, 1, 71, 127
2, 49240, Note_on_c, 1, 41, 127
2, 49240, Note_on_c, 1, 46, 127
2, 49240, Note_off_c, 1, 49, 0
2, 49240, Note_on_c, 1, 53, 127
2, 49240, Note_off_c, 1, 54, 0
2, 49240, Note_off_c, 1, 61, 0
2, 49240, Note_off_c, 1, 64, 0
2, 49240, Note_off_c, 1, 66, 0
2, 49240, Note_off_c, 1, 71, 0
2, 49240, Note_on_c, 1, 87, 127
2, 49280, Note_off_c, 1, 41, 0
2, 49280, Note_off_c, 1, 46, 0
2, 49280, Note_on_c, 1, 52, 127
2, 49280, Note_off_c, 1, 53, 0
2, 49280, Note_on_c, 1, 56, 127
2, 49280, Note_on_c, 1, 59, 127
2, 49280, Note_on_c, 1, 61, 127
2, 49280, Note_on_c, 1, 80, 127
2, 49280, Note_off_c, 1, 87, 0
2, 49320, Note_off_c, 1, 52, 0
2, 49320, Note_off_c, 1, 56, 0
2, 49320, Note_off_c, 1, 59, 0
2, 49320, Note_off_c, 1, 61, 0
2, 49320, Note_on_c, 1, 77, 127
2, 49320, Note_off_c, 1, 80, 0
2, 49320, Note_on_c, 1, 85, 127
2, 49320, Note_on_c, 1, 89, 127
2, 49320, Note_on_c, 1, 97, 127
2, 49360, Note_on_c, 1, 46, 127
2, 49360, Note_off_c, 1, 77, 0
2, 49360, Note_off_c, 1, 85, 0
2, 49360, Note_on_c, 1, 94, 127
2, 49360, Note_off_c, 1, 97, 0
2, 49400, Note_on_c, 1, 31, 127
2, 49400, Note_on_c, 1, 43, 127
2, 49400, Note_off_c, 1, 46, 0
2, 49400, Note_on_c, 1, 64, 127
2, 49400, Note_on_c, 1, 71, 127
2, 49400, Note_on_c, 1, 76, 127
2, 49400, Note_off_c, 1, 89, 0
2, 49400, Note_off_c, 1, 94, 0
2, 49440, Note_off_c, 1, 31, 0
2, 49440, Note_off_c, 1, 43, 0
2, 49440, Note_on_c, 1, 58, 127
2, 49440, Note_off_c, 1, 64, 0
2, 49440, Note_on_c, 1, 74, 127
2, 49440, Note_off_c, 1, 76, 0
2, 49480, Note_on_c, 1, 33, 127
2, 49480, Note_on_c, 1, 40, 127
2, 49480, Note_on_c, 1, 43, 127
2, 49480, Note_on_c, 1, 45, 127
2, 49480, Note_on_c, 1, 49, 127
2, 49480, Note_on_c, 1, 57, 127
2, 49480, Note_off_c, 1, 58, 0
2, 49480, Note_on_c, 1, 61, 127
2, 49480, Note_off_c, 1, 71, 0
2, 49480, Note_off_c, 1, 74, 0
2, 49520, Note_off_c, 1, 33, 0
2, 49520, Note_off_c, 1, 40, 0
2, 49520, Note_off_c, 1, 43, 0
2, 49520, Note_off_c, 1, 45, 0
2, 49520, Note_on_c, 1, 46, 127
2, 49520, Note_off_c, 1, 57, 0
2, 49520, Note_on_c, 1, 58, 127
2, 49520, Note_off_c, 1, 61, 0
2, 49520, Note_on_c, 1, 88, 127
2, 49560, Note_on_c, 1, 45, 127
2, 49560, Note_off_c, 1, 46, 0
2, 49560, Note_on_c, 1, 57, 127
2, 49560, Note_off_c, 1, 58, 0
2, 49560, Note_on_c, 1, 60, 127
2, 49560, Note_on_c, 1, 61, 127
2, 49560, Note_off_c, 1, 88, 0
2, 49600, Note_on_c, 1, 32, 127
2, 49600, Note_off_c, 1, 45, 0
2, 49600, Note_off_c, 1, 49, 0
2, 49600, Note_on_c, 1, 56, 127
2, 49600, Note_off_c, 1, 57, 0
2, 49600, Note_on_c, 1, 59, 127
2, 49600, Note_off_c, 1, 60, 0
2, 49600, Note_on_c, 1, 63, 127
2, 49640, Note_off_c, 1, 32, 0
2, 49640, Note_on_c, 1, 47, 127
2, 49640, Note_off_c, 1, 56, 0
2, 49640, Note_off_c, 1, 59, 0
2, 49640, Note_off_c, 1, 61, 0
2, 49640, Note_on_c, 1, 66, 127
2, 49680, Note_on_c, 1, 35, 127
2, 49680, Note_on_c, 1, 38, 127
2, 49680, Note_off_c, 1, 63, 0
2, 49680, Note_off_c, 1, 66, 0
2, 49680, Note_on_c, 1, 71, 127
2, 49680, Note_on_c, 1, 83, 127
2, 49760, Note_off_c, 1, 35, 0
2, 49760, Note_off_c, 1, 38, 0
2, 49760, Note_off_c, 1, 47, 0
2, 49760, Note_off_c, 1, 71, 0
2, 49760, Note_off_c, 1, 83, 0
2, 49800, Note_on_c, 1, 35, 127
2, 49800, Note_on_c, 1, 38, 127
2, 49800, Note_on_c, 1, 47, 127
2, 49800, Note_on_c, 1, 71, 127
2, 49800, Note_on_c, 1, 83, 127
2, 50080, Note_off_c, 1, 35, 0
2, 50080, Note_off_c, 1, 38, 0
2, 50080, Note_on_c, 1, 40, 127
2, 50080, Note_on_c, 1, 52, 127
2, 50080, Note_on_c, 1, 56, 127
2, 50080, Note_on_c, 1, 59, 127
2, 50080, Note_on_c, 1, 64, 127
2, 50080, Note_off_c, 1, 71, 0
2, 50080, Note_off_c, 1, 83, 0
2, 50120, Note_off_c, 1, 40, 0
2, 50120, Note_on_c, 1, 51, 127
2, 50120, Note_off_c, 1, 52, 0
2, 50120, Note_off_c, 1, 56, 0
2, 50120, Note_off_c, 1, 59, 0
2, 50120, Note_on_c, 1, 63, 127
2, 50120, Note_off_c, 1, 64, 0
2, 50120, Note_on_c, 1, 66, 127
2, 50120, Note_on_c, 1, 71, 127
2, 50440, Note_off_c, 1, 47, 0
2, 50440, Note_off_c, 1, 51, 0
2, 50440, Note_on_c, 1, 54, 127
2, 50440, Note_on_c, 1, 61, 127
2, 50440, Note_off_c, 1, 63, 0
2, 50440, Note_on_c, 1, 64, 127
2, 50440, Note_off_c, 1, 71, 0
2, 50480, Note_off_c, 1, 54, 0
2, 50480, Note_off_c, 1, 61, 0
2, 50480, Note_off_c, 1, 64, 0
2, 50480, Note_off_c, 1, 66, 0
2, 50520, Note_on_c, 1, 62, 127
2, 50520, Note_on_c, 1, 78, 127
2, 50520, Note_on_c, 1, 88, 127
2, 50560, Note_on_c, 1, 57, 127
2, 50560, Note_off_c, 1, 62, 0
2, 50560, Note_on_c, 1, 85, 127
2, 50560, Note_off_c, 1, 88, 0
2, 50600, Note_off_c, 1, 57, 0
2, 50600, Note_on_c, 1, 69, 127
2, 50600, Note_on_c, 1, 81, 127
2, 50600, Note_off_c, 1, 85, 0
2, 50600, Note_on_c, 1, 86, 127
2, 50600, Note_on_c, 1, 93, 127
2, 50640, Note_on_c, 1, 54, 127
2, 50640, Note_off_c, 1, 69, 0
2, 50640, Note_off_c, 1, 78, 0
2, 50640, Note_off_c, 1, 86, 0
2, 50640, Note_on_c, 1, 90, 127
2, 50680, Note_on_c, 1, 44, 127
2, 50680, Note_off_c, 1, 54, 0
2, 50680, Note_on_c, 1, 55, 127
2, 50680, Note_on_c, 1, 61, 127
2, 50680, Note_on_c, 1, 64, 127
2, 50680, Note_off_c, 1, 81, 0
2, 50680, Note_off_c, 1, 90, 0
2, 50680, Note_off_c, 1, 93, 0
2, 50720, Note_on_c, 1, 40, 127
2, 50720, Note_off_c, 1, 44, 0
2, 50720, Note_on_c, 1, 52, 127
2, 50720, Note_off_c, 1, 55, 0
2, 50720, Note_off_c, 1, 61, 0
2, 50720, Note_off_c, 1, 64, 0
2, 50720, Note_on_c, 1, 70, 127
2, 50720, Note_on_c, 1, 76, 127
2, 50720, Note_on_c, 1, 88, 127
2, 50760, Note_off_c, 1, 40, 0
2, 50760, Note_off_c, 1, 52, 0
2, 50760, Note_on_c, 1, 55, 127
2, 50760, Note_on_c, 1, 57, 127
2, 50760, Note_on_c, 1, 62, 127
2, 50760, Note_off_c, 1, 70, 0
2, 50760, Note_off_c, 1, 76, 0
2, 50760, Note_on_c, 1, 81, 127
2, 50760, Note_on_c, 1, 86, 127
2, 50760, Note_off_c, 1, 88, 0
2, 50800, Note_on_c, 1, 52, 127
2, 50800, Note_off_c, 1, 55, 0
2, 50800, Note_off_c, 1, 57, 0
2, 50800, Note_on_c, 1, 61, 127
2, 50800, Note_off_c, 1, 62, 0
2, 50800, Note_on_c, 1, 64, 127
2, 50800, Note_on_c, 1, 76, 127
2, 50800, Note_on_c, 1, 85, 127
2, 50800, Note_off_c, 1, 86, 0
2, 50840, Note_off_c, 1, 52, 0
2, 50840, Note_off_c, 1, 61, 0
2, 50840, Note_on_c, 1, 62, 127
2, 50840, Note_off_c, 1, 64, 0
2, 50840, Note_on_c, 1, 69, 127
2, 50840, Note_on_c, 1, 72, 127
2, 50840, Note_on_c, 1, 74, 127
2, 50840, Note_off_c, 1, 76, 0
2, 50840, Note_on_c, 1, 78, 127
2, 50840, Note_off_c, 1, 85, 0
2, 50880, Note_off_c, 1, 62, 0
2, 50880, Note_off_c, 1, 69, 0
2, 50880, Note_on_c, 1, 71, 127
2, 50880, Note_off_c, 1, 72, 0
2, 50880, Note_on_c, 1, 77, 127
2, 50880, Note_off_c, 1, 78, 0
2, 50880, Note_on_c, 1, 80, 127
2, 50880, Note_off_c, 1, 81, 0
2, 50880, Note_on_c, 1, 83, 127
2, 50920, Note_on_c, 1, 56, 127
2, 50920, Note_on_c, 1, 60, 127
2, 50920, Note_on_c, 1, 67, 127
2, 50920, Note_off_c, 1, 71, 0
2, 50920, Note_off_c, 1, 74, 0
2, 50920, Note_on_c, 1, 75, 127
2, 50920, Note_off_c, 1, 77, 0
2, 50920, Note_off_c, 1, 80, 0
2, 50920, Note_off_c, 1, 83, 0
2, 50920, Note_on_c, 1, 87, 127
2, 51280, Note_off_c, 1, 56, 0
2, 51280, Note_off_c, 1, 60, 0
2, 51280, Note_off_c, 1, 67, 0
2, 51280, Note_off_c, 1, 75, 0
2, 51280, Note_off_c, 1, 87, 0
2, 51320, Note_on_c, 1, 63, 127
2, 51320, Note_on_c, 1, 68, 127
2, 51320, Note_on_c, 1, 71, 127
2, 51320, Note_on_c, 1, 75, 127
2, 51320, Note_on_c, 1, 83, 127
2, 51840, Note_off_c, 1, 63, 0
2, 51840, Note_off_c, 1, 68, 0
2, 51840, Note_off_c, 1, 71, 0
2, 51840, Note_off_c, 1, 75, 0
2, 51840, Note_off_c, 1, 83, 0
2, 51880, Note_on_c, 1, 63, 127
2, 51880, Note_on_c, 1, 68, 127
2, 51880, Note_on_c, 1, 71, 127
2, 51880, Note_on_c, 1, 75, 127
2, 51880, Note_on_c, 1, 83, 127
2, 52120, Note_off_c, 1, 63, 0
2, 52120, Note_off_c, 1, 68, 0
2, 52120, Note_off_c, 1, 71, 0
2, 52120, Note_off_c, 1, 75, 0
2, 52120, Note_off_c, 1, 83, 0
2, 52160, Note_on_c, 1, 91, 127
2, 52160, Note_on_c, 1, 94, 127
2, 52160, Note_on_c, 1, 99, 127
2, 52480, Note_on_c, 1, 50, 127
2, 52480, Note_on_c, 1, 54, 127
2, 52480, Note_on_c, 1, 62, 127
2, 52480, Note_on_c, 1, 85, 127
2, 52480, Note_off_c, 1, 91, 0
2, 52480, Note_off_c, 1, 94, 0
2, 52480, Note_off_c, 1, 99, 0
2, 52520, Note_off_c, 1, 50, 0
2, 52520, Note_off_c, 1, 54, 0
2, 52520, Note_off_c, 1, 62, 0
2, 52520, Note_off_c, 1, 85, 0
2, 52560, Note_on_c, 1, 69, 127
2, 52560, Note_on_c, 1, 72, 127
2, 52560, Note_on_c, 1, 77, 127
2, 52560, Note_on_c, 1, 89, 127
2, 53320, Note_off_c, 1, 69, 0
2, 53320, Note_off_c, 1, 72, 0
2, 53320, Note_off_c, 1, 77, 0
2, 53320, Note_off_c, 1, 89, 0
2, 53360, Note_on_c, 1, 31, 127
2, 53360, Note_on_c, 1, 43, 127
2, 53360, Note_on_c, 1, 50, 127
2, 53360, Note_on_c, 1, 62, 127
2, 53360, Note_on_c, 1, 71, 127
2, 53360, Note_on_c, 1, 83, 127
2, 53440, Note_off_c, 1, 31, 0
2, 53440, Note_off_c, 1, 50, 0
2, 53440, Note_on_c, 1, 57, 127
2, 53440, Note_off_c, 1, 71, 0
2, 53440, Note_off_c, 1, 83, 0
2, 53480, Note_on_c, 1, 31, 127
2, 53480, Note_on_c, 1, 50, 127
2, 53480, Note_off_c, 1, 57, 0
2, 53480, Note_on_c, 1, 71, 127
2, 53520, Note_off_c, 1, 31, 0
2, 53520, Note_off_c, 1, 43, 0
2, 53520, Note_on_c, 1, 46, 127
2, 53520, Note_off_c, 1, 50, 0
2, 53520, Note_on_c, 1, 57, 127
2, 53520, Note_off_c, 1, 62, 0
2, 53520, Note_off_c, 1, 71, 0
2, 53520, Note_on_c, 1, 77, 127
2, 53520, Note_on_c, 1, 84, 127
2, 53560, Note_on_c, 1, 31, 127
2, 53560, Note_on_c, 1, 43, 127
2, 53560, Note_off_c, 1, 46, 0
2, 53560, Note_on_c, 1, 50, 127
2, 53560, Note_off_c, 1, 57, 0
2, 53560, Note_on_c, 1, 62, 127
2, 53560, Note_on_c, 1, 71, 127
2, 53560, Note_off_c, 1, 77, 0
2, 53560, Note_on_c, 1, 79, 127
2, 53560, Note_off_c, 1, 84, 0
2, 53720, Note_off_c, 1, 31, 0
2, 53720, Note_on_c, 1, 33, 127
2, 53720, Note_off_c, 1, 43, 0
2, 53720, Note_on_c, 1, 45, 127
2, 53720, Note_off_c, 1, 50, 0
2, 53720, Note_on_c, 1, 57, 127
2, 53720, Note_off_c, 1, 62, 0
2, 53720, Note_off_c, 1, 71, 0
2, 53720, Note_on_c, 1, 72, 127
2, 53720, Note_on_c, 1, 75, 127
2, 53720, Note_on_c, 1, 84, 127
2, 53720, Note_on_c, 1, 87, 127
2, 53720, Note_on_c, 1, 91, 127
2, 53720, Note_on_c, 1, 96, 127
2, 53760, Note_on_c, 1, 29, 127
2, 53760, Note_off_c, 1, 33, 0
2, 53760, Note_on_c, 1, 41, 127
2, 53760, Note_off_c, 1, 45, 0
2, 53760, Note_off_c, 1, 57, 0
2, 53760, Note_on_c, 1, 63, 127
2, 53760, Note_on_c, 1, 67, 127
2, 53760, Note_off_c, 1, 72, 0
2, 53760, Note_off_c, 1, 75, 0
2, 53760, Note_off_c, 1, 79, 0
2, 53760, Note_off_c, 1, 84, 0
2, 53760, Note_off_c, 1, 87, 0
2, 53760, Note_off_c, 1, 91, 0
2, 53760, Note_off_c, 1, 96, 0
2, 53800, Note_off_c, 1, 29, 0
2, 53800, Note_on_c, 1, 33, 127
2, 53800, Note_on_c, 1, 37, 127
2, 53800, Note_on_c, 1, 40, 127
2, 53800, Note_off_c, 1, 41, 0
2, 53800, Note_on_c, 1, 45, 127
2, 53800, Note_off_c, 1, 63, 0
2, 53800, Note_off_c, 1, 67, 0
2, 53800, Note_on_c, 1, 85, 127
2, 53800, Note_on_c, 1, 88, 127
2, 53800, Note_on_c, 1, 93, 127
2, 53800, Note_on_c, 1, 97, 127
2, 53840, Note_off_c, 1, 33, 0
2, 53840, Note_off_c, 1, 37, 0
2, 53840, Note_off_c, 1, 40, 0
2, 53840, Note_off_c, 1, 45, 0
2, 53840, Note_off_c, 1, 85, 0
2, 53840, Note_off_c, 1, 88, 0
2, 53840, Note_off_c, 1, 93, 0
2, 53840, Note_off_c, 1, 97, 0
2, 53880, Note_on_c, 1, 29, 127
2, 53880, Note_on_c, 1, 41, 127
2, 53880, Note_on_c, 1, 63, 127
2, 53880, Note_on_c, 1, 67, 127
2, 54160, Note_off_c, 1, 29, 0
2, 54160, Note_off_c, 1, 41, 0
2, 54160, Note_off_c, 1, 63, 0
2, 54160, Note_off_c, 1, 67, 0
2, 54200, Note_on_c, 1, 38, 127
2, 54200, Note_on_c, 1, 50, 127
2, 54200, Note_on_c, 1, 83, 127
2, 54200, Note_on_c, 1, 91, 127
2, 54200, Note_on_c, 1, 95, 127
2, 54240, Note_off_c, 1, 38, 0
2, 54240, Note_on_c, 1, 44, 127
2, 54240, Note_off_c, 1, 50, 0
2, 54240, Note_on_c, 1, 71, 127
2, 54240, Note_on_c, 1, 75, 127
2, 54240, Note_off_c, 1, 91, 0
2, 54240, Note_off_c, 1, 95, 0
2, 54280, Note_on_c, 1, 38, 127
2, 54280, Note_off_c, 1, 44, 0
2, 54280, Note_on_c, 1, 50, 127
2, 54280, Note_off_c, 1, 71, 0
2, 54280, Note_off_c, 1, 75, 0
2, 54280, Note_on_c, 1, 91, 127
2, 54280, Note_on_c, 1, 95, 127
2, 54560, Note_off_c, 1, 38, 0
2, 54560, Note_off_c, 1, 50, 0
2, 54600, Note_on_c, 1, 55, 127
2, 54600, Note_on_c, 1, 59, 127
2, 54600, Note_on_c, 1, 64, 127
2, 54600, Note_on_c, 1, 71, 127
2, 54600, Note_on_c, 1, 78, 127
2, 54600, Note_off_c, 1, 83, 0
2, 54600, Note_off_c, 1, 91, 0
2, 54600, Note_off_c, 1, 95, 0
2, 54760, Note_on_c, 1, 42, 127
2, 54760, Note_on_c, 1, 46, 127
2, 54760, Note_on_c, 1, 47, 127
2, 54760, Note_off_c, 1, 55, 0
2, 54760, Note_off_c, 1, 64, 0
2, 54760, Note_on_c, 1, 66, 127
2, 54760, Note_on_c, 1, 70, 127
2, 54760, Note_off_c, 1, 71, 0
2, 54760, Note_off_c, 1, 78, 0
2, 54800, Note_off_c, 1, 42, 0
2, 54800, Note_off_c, 1, 46, 0
2, 54800, Note_off_c, 1, 47, 0
2, 54800, Note_on_c, 1, 55, 127
2, 54800, Note_on_c, 1, 64, 127
2, 54800, Note_off_c, 1, 66, 0
2, 54800, Note_off_c, 1, 70, 0
2, 54800, Note_on_c, 1, 71, 127
2, 54800, Note_on_c, 1, 78, 127
2, 54840, Note_off_c, 1, 78, 0
2, 54880, Note_on_c, 1, 52, 127
2, 54880, Note_off_c, 1, 55, 0
2, 54880, Note_off_c, 1, 59, 0
2, 54880, Note_off_c, 1, 64, 0
2, 54880, Note_on_c, 1, 78, 127
2, 54880, Note_on_c, 1, 81, 127
2, 54920, Note_on_c, 1, 40, 127
2, 54920, Note_off_c, 1, 52, 0
2, 54920, Note_on_c, 1, 56, 127
2, 54920, Note_on_c, 1, 62, 127
2, 54920, Note_off_c, 1, 71, 0
2, 54920, Note_on_c, 1, 73, 127
2, 54920, Note_off_c, 1, 78, 0
2, 54920, Note_off_c, 1, 81, 0
2, 54960, Note_off_c, 1, 40, 0
2, 54960, Note_off_c, 1, 56, 0
2, 54960, Note_off_c, 1, 62, 0
2, 54960, Note_off_c, 1, 73, 0
2, 55000, Note_on_c, 1, 42, 127
2, 55000, Note_on_c, 1, 73, 127
2, 55000, Note_on_c, 1, 77, 127
2, 55360, Note_off_c, 1, 42, 0
2, 55360, Note_on_c, 1, 44, 127
2, 55360, Note_on_c, 1, 66, 127
2, 55360, Note_off_c, 1, 77, 0
2, 55400, Note_off_c, 1, 44, 0
2, 55400, Note_on_c, 1, 58, 127
2, 55400, Note_on_c, 1, 65, 127
2, 55400, Note_off_c, 1, 66, 0
2, 55400, Note_on_c, 1, 68, 127
2, 55400, Note_on_c, 1, 70, 127
2, 55400, Note_off_c, 1, 73, 0
2, 55400, Note_on_c, 1, 74, 127
2, 55400, Note_on_c, 1, 77, 127
2, 55400, Note_on_c, 1, 80, 127
2, 55400, Note_on_c, 1, 86, 127
2, 55400, Note_on_c, 1, 89, 127
2, 55760, Note_off_c, 1, 58, 0
2, 55760, Note_off_c, 1, 65, 0
2, 55760, Note_off_c, 1, 68, 0
2, 55760, Note_off_c, 1, 70, 0
2, 55760, Note_off_c, 1, 74, 0
2, 55760, Note_off_c, 1, 77, 0
2, 55760, Note_off_c, 1, 80, 0
2, 55760, Note_off_c, 1, 86, 0
2, 55760, Note_off_c, 1, 89, 0
2, 55840, Note_on_c, 1, 41, 127
2, 55840, Note_on_c, 1, 48, 127
2, 55840, Note_on_c, 1, 67, 127
2, 55840, Note_on_c, 1, 70, 127
2, 56600, Note_off_c, 1, 41, 0
2, 56600, Note_off_c, 1, 48, 0
2, 56600, Note_off_c, 1, 67, 0
2, 56600, Note_off_c, 1, 70, 0
2, 56640, Note_on_c, 1, 53, 127
2, 56640, Note_on_c, 1, 82, 127
2, 56640, Note_on_c, 1, 86, 127
2, 56640, Note_on_c, 1, 94, 127
2, 57000, Note_off_c, 1, 53, 0
2, 57040, Note_on_c, 1, 46, 127
2, 57400, Note_off_c, 1, 46, 0
2, 57440, Note_on_c, 1, 46, 127
2, 57560, Note_off_c, 1, 46, 0
2, 57560, Note_off_c, 1, 82, 0
2, 57560, Note_off_c, 1, 86, 0
2, 57560, Note_off_c, 1, 94, 0
2, 57600, Note_on_c, 1, 46, 127
2, 57600, Note_on_c, 1, 82, 127
2, 57600, Note_on_c, 1, 86, 127
2, 57600, Note_on_c, 1, 94, 127
2, 57840, Note_off_c, 1, 46, 0
2, 57840, Note_on_c, 1, 64, 127
2, 57840, Note_on_c, 1, 74, 127
2, 57840, Note_off_c, 1, 82, 0
2, 57840, Note_off_c, 1, 94, 0
2, 57880, Note_off_c, 1, 64, 0
2, 57880, Note_on_c, 1, 65, 127
2, 57880, Note_on_c, 1, 70, 127
2, 57880, Note_on_c, 1, 79, 127
2, 57880, Note_off_c, 1, 86, 0
2, 58240, Note_off_c, 1, 65, 0
2, 58240, Note_off_c, 1, 70, 0
2, 58240, Note_off_c, 1, 74, 0
2, 58240, Note_off_c, 1, 79, 0
2, 58280, Note_on_c, 1, 53, 127
2, 58280, Note_on_c, 1, 58, 127
2, 58280, Note_on_c, 1, 61, 127
2, 58280, Note_on_c, 1, 65, 127
2, 58280, Note_on_c, 1, 73, 127
2, 58280, Note_on_c, 1, 85, 127
2, 58640, Note_off_c, 1, 65, 0
2, 59400, Note_on_c, 1, 46, 127
2, 59400, Note_off_c, 1, 53, 0
2, 59400, Note_off_c, 1, 58, 0
2, 59400, Note_off_c, 1, 61, 0
2, 59400, Note_off_c, 1, 73, 0
2, 59400, Note_on_c, 1, 74, 127
2, 59400, Note_off_c, 1, 85, 0
2, 59400, Note_on_c, 1, 86, 127
2, 59400, Note_on_c, 1, 87, 127
2, 59440, Note_off_c, 1, 46, 0
2, 59440, Note_on_c, 1, 54, 127
2, 59440, Note_off_c, 1, 74, 0
2, 59440, Note_on_c, 1, 82, 127
2, 59440, Note_off_c, 1, 86, 0
2, 59440, Note_off_c, 1, 87, 0
2, 59480, Note_off_c, 1, 54, 0
2, 59480, Note_off_c, 1, 82, 0
2, 59520, Note_on_c, 1, 37, 127
2, 59520, Note_on_c, 1, 53, 127
2, 59520, Note_on_c, 1, 58, 127
2, 59520, Note_on_c, 1, 66, 127
2, 59880, Note_off_c, 1, 53, 0
2, 59880, Note_off_c, 1, 58, 0
2, 59880, Note_off_c, 1, 66, 0
2, 59920, Note_off_c, 1, 37, 0
2, 59920, Note_on_c, 1, 53, 127
2, 59920, Note_on_c, 1, 58, 127
2, 59920, Note_on_c, 1, 61, 127
2, 59920, Note_on_c, 1, 73, 127
2, 59920, Note_on_c, 1, 85, 127
2, 61040, Note_off_c, 1, 53, 0
2, 61040, Note_off_c, 1, 58, 0
2, 61040, Note_off_c, 1, 61, 0
2, 61040, Note_off_c, 1, 73, 0
2, 61040, Note_off_c, 1, 85, 0
2, 61080, Note_on_c, 1, 63, 127
2, 61080, Note_on_c, 1, 73, 127
2, 61080, Note_on_c, 1, 85, 127
2, 61440, Note_off_c, 1, 73, 0
2, 61440, Note_off_c, 1, 85, 0
2, 61440, Note_on_c, 1, 90, 127
2, 61480, Note_off_c, 1, 63, 0
2, 61480, Note_off_c, 1, 90, 0
2, 61520, Note_on_c, 1, 55, 127
2, 61520, Note_on_c, 1, 59, 127
2, 61520, Note_on_c, 1, 71, 127
2, 61520, Note_on_c, 1, 83, 127
2, 61880, Note_off_c, 1, 55, 0
2, 61880, Note_off_c, 1, 59, 0
2, 61880, Note_on_c, 1, 68, 127
2, 61880, Note_off_c, 1, 71, 0
2, 61880, Note_off_c, 1, 83, 0
2, 61880, Note_on_c, 1, 89, 127
2, 61880, Note_on_c, 1, 97, 127
2, 61920, Note_on_c, 1, 44, 127
2, 61920, Note_on_c, 1, 52, 127
2, 61920, Note_on_c, 1, 63, 127
2, 61920, Note_off_c, 1, 68, 0
2, 61920, Note_on_c, 1, 71, 127
2, 61920, Note_on_c, 1, 75, 127
2, 61920, Note_off_c, 1, 89, 0
2, 61920, Note_off_c, 1, 97, 0
2, 62280, Note_on_c, 1, 35, 127
2, 62280, Note_off_c, 1, 44, 0
2, 62280, Note_off_c, 1, 52, 0
2, 62280, Note_off_c, 1, 63, 0
2, 62280, Note_on_c, 1, 66, 127
2, 62280, Note_on_c, 1, 74, 127
2, 62280, Note_off_c, 1, 75, 0
2, 62320, Note_off_c, 1, 35, 0
2, 62320, Note_on_c, 1, 44, 127
2, 62320, Note_on_c, 1, 52, 127
2, 62320, Note_on_c, 1, 64, 127
2, 62320, Note_off_c, 1, 66, 0
2, 62320, Note_off_c, 1, 71, 0
2, 62320, Note_off_c, 1, 74, 0
2, 62320, Note_on_c, 1, 90, 127
2, 62400, Note_on_c, 1, 88, 127
2, 62400, Note_off_c, 1, 90, 0
2, 62440, Note_off_c, 1, 88, 0
2, 62480, Note_off_c, 1, 52, 0
2, 62480, Note_on_c, 1, 62, 127
2, 62480, Note_off_c, 1, 64, 0
2, 62480, Note_on_c, 1, 66, 127
2, 62520, Note_off_c, 1, 44, 0
2, 62520, Note_on_c, 1, 58, 127
2, 62520, Note_on_c, 1, 61, 127
2, 62520, Note_off_c, 1, 62, 0
2, 62520, Note_on_c, 1, 73, 127
2, 62520, Note_on_c, 1, 76, 127
2, 62640, Note_off_c, 1, 58, 0
2, 62640, Note_off_c, 1, 61, 0
2, 62640, Note_off_c, 1, 66, 0
2, 62640, Note_off_c, 1, 73, 0
2, 62640, Note_off_c, 1, 76, 0
2, 62680, Note_on_c, 1, 36, 127
2, 62680, Note_on_c, 1, 48, 127
2, 62680, Note_on_c, 1, 77, 127
2, 62680, Note_on_c, 1, 82, 127
2, 62720, Note_off_c, 1, 36, 0
2, 62720, Note_on_c, 1, 43, 127
2, 62720, Note_on_c, 1, 51, 127
2, 62720, Note_on_c, 1, 55, 127
2, 62720, Note_on_c, 1, 63, 127
2, 62720, Note_on_c, 1, 72, 127
2, 62720, Note_off_c, 1, 77, 0
2, 62720, Note_off_c, 1, 82, 0
2, 62760, Note_off_c, 1, 43, 0
2, 62760, Note_off_c, 1, 48, 0
2, 62760, Note_off_c, 1, 51, 0
2, 62760, Note_off_c, 1, 55, 0
2, 62760, Note_on_c, 1, 56, 127
2, 62760, Note_off_c, 1, 63, 0
2, 62760, Note_on_c, 1, 66, 127
2, 62760, Note_off_c, 1, 72, 0
2, 62760, Note_on_c, 1, 74, 127
2, 62760, Note_on_c, 1, 81, 127
2, 62800, Note_off_c, 1, 56, 0
2, 62800, Note_off_c, 1, 66, 0
2, 62800, Note_off_c, 1, 74, 0
2, 62800, Note_on_c, 1, 87, 127
2, 62840, Note_on_c, 1, 59, 127
2, 62840, Note_on_c, 1, 63, 127
2, 62840, Note_on_c, 1, 73, 127
2, 62840, Note_off_c, 1, 87, 0
2, 62840, Note_on_c, 1, 93, 127
2, 62880, Note_on_c, 1, 41, 127
2, 62880, Note_off_c, 1, 63, 0
2, 62880, Note_on_c, 1, 68, 127
2, 62880, Note_off_c, 1, 73, 0
2, 62880, Note_on_c, 1, 80, 127
2, 62880, Note_off_c, 1, 81, 0
2, 62880, Note_off_c, 1, 93, 0
2, 62920, Note_off_c, 1, 41, 0
2, 62920, Note_on_c, 1, 48, 127
2, 62920, Note_on_c, 1, 55, 127
2, 62920, Note_off_c, 1, 59, 0
2, 62920, Note_on_c, 1, 60, 127
2, 62920, Note_off_c, 1, 68, 0
2, 62920, Note_off_c, 1, 80, 0
2, 62920, Note_on_c, 1, 91, 127
2, 62920, Note_on_c, 1, 96, 127
2, 62920, Note_on_c, 1, 103, 127
2, 62960, Note_on_c, 1, 46, 127
2, 62960, Note_off_c, 1, 48, 0
2, 62960, Note_off_c, 1, 55, 0
2, 62960, Note_off_c, 1, 60, 0
2, 62960, Note_on_c, 1, 84, 127
2, 62960, Note_off_c, 1, 91, 0
2, 62960, Note_on_c, 1, 92, 127
2, 62960, Note_off_c, 1, 103, 0
2, 63000, Note_off_c, 1, 46, 0
2, 63000, Note_on_c, 1, 53, 127
2, 63000, Note_on_c, 1, 57, 127
2, 63000, Note_on_c, 1, 59, 127
2, 63000, Note_off_c, 1, 84, 0
2, 63000, Note_off_c, 1, 92, 0
2, 63000, Note_off_c, 1, 96, 0
2, 63040, Note_off_c, 1, 53, 0
2, 63040, Note_off_c, 1, 57, 0
2, 63040, Note_off_c, 1, 59, 0
2, 63040, Note_on_c, 1, 66, 127
2, 63040, Note_on_c, 1, 73, 127
2, 63040, Note_on_c, 1, 85, 127
2, 63400, Note_off_c, 1, 85, 0
2, 63440, Note_off_c, 1, 66, 0
2, 63440, Note_off_c, 1, 73, 0
2, 63480, Note_on_c, 1, 54, 127
2, 63480, Note_on_c, 1, 70, 127
2, 63480, Note_on_c, 1, 73, 127
2, 63480, Note_on_c, 1, 78, 127
2, 63480, Note_on_c, 1, 82, 127
2, 63840, Note_off_c, 1, 54, 0
2, 63840, Note_off_c, 1, 70, 0
2, 63840, Note_off_c, 1, 73, 0
2, 63840, Note_off_c, 1, 78, 0
2, 63840, Note_off_c, 1, 82, 0
2, 63880, Note_on_c, 1, 33, 127
2, 63880, Note_on_c, 1, 45, 127
2, 63880, Note_on_c, 1, 71, 127
2, 63880, Note_on_c, 1, 76, 127
2, 63880, Note_on_c, 1, 83, 127
2, 63920, Note_off_c, 1, 33, 0
2, 63920, Note_off_c, 1, 45, 0
2, 63920, Note_on_c, 1, 59, 127
2, 63920, Note_off_c, 1, 71, 0
2, 63920, Note_on_c, 1, 74, 127
2, 63920, Note_off_c, 1, 76, 0
2, 63920, Note_on_c, 1, 79, 127
2, 63920, Note_off_c, 1, 83, 0
2, 63920, Note_on_c, 1, 86, 127
2, 63960, Note_off_c, 1, 59, 0
2, 63960, Note_on_c, 1, 68, 127
2, 63960, Note_off_c, 1, 74, 0
2, 63960, Note_off_c, 1, 79, 0
2, 63960, Note_on_c, 1, 83, 127
2, 63960, Note_off_c, 1, 86, 0
2, 63960, Note_on_c, 1, 87, 127
2, 63960, Note_on_c, 1, 90, 127
2, 63960, Note_on_c, 1, 95, 127
2, 64000, Note_on_c, 1, 59, 127
2, 64000, Note_off_c, 1, 68, 0
2, 64000, Note_on_c, 1, 78, 127
2, 64000, Note_on_c, 1, 81, 127
2, 64000, Note_off_c, 1, 83, 0
2, 64000, Note_off_c, 1, 87, 0
2, 64000, Note_off_c, 1, 95, 0
2, 64040, Note_on_c, 1, 57, 127
2, 64040, Note_off_c, 1, 59, 0
2, 64040, Note_off_c, 1, 78, 0
2, 64040, Note_off_c, 1, 81, 0
2, 64040, Note_on_c, 1, 84, 127
2, 64040, Note_on_c, 1, 87, 127
2, 64040, Note_on_c, 1, 96, 127
2, 64080, Note_on_c, 1, 53, 127
2, 64080, Note_off_c, 1, 57, 0
2, 64080, Note_on_c, 1, 67, 127
2, 64080, Note_on_c, 1, 74, 127
2, 64080, Note_on_c, 1, 79, 127
2, 64080, Note_on_c, 1, 82, 127
2, 64080, Note_off_c, 1, 84, 0
2, 64080, Note_off_c, 1, 87, 0
2, 64080, Note_off_c, 1, 90, 0
2, 64080, Note_off_c, 1, 96, 0
2, 64120, Note_off_c, 1, 53, 0
2, 64120, Note_on_c, 1, 64, 127
2, 64120, Note_off_c, 1, 67, 0
2, 64120, Note_on_c, 1, 72, 127
2, 64120, Note_off_c, 1, 74, 0
2, 64120, Note_off_c, 1, 79, 0
2, 64120, Note_off_c, 1, 82, 0
2, 64120, Note_on_c, 1, 96, 127
2, 64160, Note_on_c, 1, 41, 127
2, 64160, Note_on_c, 1, 48, 127
2, 64160, Note_on_c, 1, 58, 127
2, 64160, Note_on_c, 1, 60, 127
2, 64160, Note_off_c, 1, 64, 0
2, 64160, Note_on_c, 1, 67, 127
2, 64160, Note_off_c, 1, 72, 0
2, 64160, Note_off_c, 1, 96, 0
2, 64200, Note_off_c, 1, 41, 0
2, 64200, Note_off_c, 1, 48, 0
2, 64200, Note_off_c, 1, 58, 0
2, 64200, Note_off_c, 1, 60, 0
2, 64200, Note_on_c, 1, 65, 127
2, 64200, Note_off_c, 1, 67, 0
2, 64200, Note_on_c, 1, 84, 127
2, 64200, Note_on_c, 1, 89, 127
2, 64200, Note_on_c, 1, 96, 127
2, 64240, Note_off_c, 1, 65, 0
2, 64240, Note_off_c, 1, 84, 0
2, 64240, Note_off_c, 1, 89, 0
2, 64240, Note_off_c, 1, 96, 0
2, 64280, Note_on_c, 1, 39, 127
2, 64280, Note_on_c, 1, 51, 127
2, 64280, Note_on_c, 1, 59, 127
2, 64280, Note_on_c, 1, 66, 127
2, 64280, Note_on_c, 1, 69, 127
2, 64280, Note_on_c, 1, 71, 127
2, 65040, Note_off_c, 1, 39, 0
2, 65040, Note_off_c, 1, 51, 0
2, 65040, Note_off_c, 1, 59, 0
2, 65040, Note_off_c, 1, 66, 0
2, 65040, Note_off_c, 1, 69, 0
2, 65040, Note_off_c, 1, 71, 0
2, 65080, Note_on_c, 1, 59, 127
2, 65080, Note_on_c, 1, 75, 127
2, 65080, Note_on_c, 1, 78, 127
2, 65080, Note_on_c, 1, 83, 127
2, 65440, Note_off_c, 1, 59, 0
2, 65480, Note_off_c, 1, 75, 0
2, 65480, Note_off_c, 1, 78, 0
2, 65480, Note_off_c, 1, 83, 0
2, 65520, Note_on_c, 1, 51, 127
2, 65520, Note_on_c, 1, 70, 127
2, 65520, Note_on_c, 1, 78, 127
2, 65520, Note_on_c, 1, 82, 127
2, 66280, Note_off_c, 1, 51, 0
2, 66280, Note_off_c, 1, 70, 0
2, 66280, Note_off_c, 1, 78, 0
2, 66280, Note_off_c, 1, 82, 0
2, 66320, Note_on_c, 1, 59, 127
2, 66320, Note_on_c, 1, 63, 127
2, 66320, Note_on_c, 1, 66, 127
2, 66840, Note_on_c, 1, 71, 127
2, 66840, Note_on_c, 1, 75, 127
2, 66880, Note_off_c, 1, 71, 0
2, 66880, Note_off_c, 1, 75, 0
2, 67040, Note_off_c, 1, 59, 0
2, 67040, Note_off_c, 1, 63, 0
2, 67040, Note_off_c, 1, 66, 0
2, 67080, Note_on_c, 1, 63, 127
2, 67080, Note_on_c, 1, 67, 127
2, 67080, Note_on_c, 1, 70, 127
2, 67480, Note_off_c, 1, 63, 0
2, 67480, Note_off_c, 1, 67, 0
2, 67480, Note_off_c, 1, 70, 0
2, 67520, Note_on_c, 1, 63, 127
2, 67520, Note_on_c, 1, 67, 127
2, 67520, Note_on_c, 1, 70, 127
2, 68280, Note_off_c, 1, 63, 0
2, 68280, Note_off_c, 1, 67, 0
2, 68280, Note_off_c, 1, 70, 0
2, 68320, Note_on_c, 1, 66, 127
2, 68320, Note_on_c, 1, 70, 127
2, 68320, Note_on_c, 1, 76, 127
2, 69080, Note_off_c, 1, 66, 0
2, 69080, Note_off_c, 1, 70, 0
2, 69080, Note_off_c, 1, 76, 0
2, 69120, Note_on_c, 1, 63, 127
2, 69120, Note_on_c, 1, 67, 127
2, 69120, Note_on_c, 1, 73, 127
2, 69640, Note_off_c, 1, 63, 0
2, 69640, Note_off_c, 1, 67, 0
2, 69640, Note_off_c, 1, 73, 0
2, 69680, Note_on_c, 1, 63, 127
2, 69680, Note_on_c, 1, 67, 127
2, 69680, Note_on_c, 1, 73, 127
2, 69920, Note_off_c, 1, 63, 0
2, 69920, Note_off_c, 1, 67, 0
2, 69920, Note_off_c, 1, 73, 0
2, 69960, Note_on_c, 1, 66, 127
2, 69960, Note_on_c, 1, 70, 127
2, 69960, Note_on_c, 1, 76, 127
2, 70520, Note_off_c, 1, 76, 0
2, 70560, Note_on_c, 1, 75, 127
2, 70680, Note_off_c, 1, 66, 0
2, 70680, Note_off_c, 1, 70, 0
2, 70680, Note_off_c, 1, 75, 0
2, 70720, Note_on_c, 1, 80, 127
2, 70720, Note_on_c, 1, 82, 127
2, 70760, Note_off_c, 1, 80, 0
2, 71120, Note_on_c, 1, 66, 127
2, 71120, Note_on_c, 1, 75, 127
2, 71480, Note_off_c, 1, 66, 0
2, 71480, Note_off_c, 1, 82, 0
2, 71480, Note_on_c, 1, 83, 127
2, 71520, Note_on_c, 1, 71, 127
2, 71520, Note_on_c, 1, 78, 127
2, 71520, Note_off_c, 1, 83, 0
2, 71520, Note_on_c, 1, 87, 127
2, 71800, Note_off_c, 1, 71, 0
2, 71800, Note_off_c, 1, 75, 0
2, 71800, Note_off_c, 1, 78, 0
2, 71800, Note_off_c, 1, 87, 0
2, 71840, Note_on_c, 1, 71, 127
2, 71840, Note_on_c, 1, 75, 127
2, 71840, Note_on_c, 1, 78, 127
2, 71840, Note_on_c, 1, 87, 127
2, 71920, Note_off_c, 1, 71, 0
2, 71920, Note_off_c, 1, 75, 0
2, 71920, Note_on_c, 1, 83, 127
2, 71920, Note_off_c, 1, 87, 0
2, 71960, Note_on_c, 1, 71, 127
2, 71960, Note_on_c, 1, 73, 127
2, 71960, Note_on_c, 1, 76, 127
2, 71960, Note_off_c, 1, 78, 0
2, 71960, Note_off_c, 1, 83, 0
2, 71960, Note_on_c, 1, 87, 127
2, 72320, Note_off_c, 1, 71, 0
2, 72320, Note_off_c, 1, 73, 0
2, 72320, Note_off_c, 1, 76, 0
2, 72320, Note_off_c, 1, 87, 0
2, 72360, Note_on_c, 1, 66, 127
2, 72360, Note_on_c, 1, 70, 127
2, 72360, Note_on_c, 1, 73, 127
2, 72360, Note_on_c, 1, 76, 127
2, 72360, Note_on_c, 1, 78, 127
2, 72720, Note_off_c, 1, 70, 0
2, 72720, Note_off_c, 1, 73, 0
2, 72720, Note_off_c, 1, 76, 0
2, 72720, Note_off_c, 1, 78, 0
2, 72760, Note_on_c, 1, 70, 127
2, 72760, Note_on_c, 1, 73, 127
2, 72760, Note_on_c, 1, 76, 127
2, 72760, Note_on_c, 1, 78, 127
2, 73080, Note_off_c, 1, 70, 0
2, 73080, Note_off_c, 1, 73, 0
2, 73080, Note_off_c, 1, 76, 0
2, 73080, Note_off_c, 1, 78, 0
2, 73160, Note_on_c, 1, 70, 127
2, 73160, Note_on_c, 1, 73, 127
2, 73160, Note_on_c, 1, 76, 127
2, 73160, Note_on_c, 1, 78, 127
2, 73520, Note_off_c, 1, 66, 0
2, 73520, Note_off_c, 1, 70, 0
2, 73520, Note_off_c, 1, 73, 0
2, 73520, Note_off_c, 1, 76, 0
2, 73520, Note_off_c, 1, 78, 0
2, 73560, Note_on_c, 1, 66, 127
2, 73560, Note_on_c, 1, 70, 127
2, 73560, Note_on_c, 1, 73, 127
2, 73560, Note_on_c, 1, 76, 127
2, 73560, Note_on_c, 1, 78, 127
2, 73840, Note_off_c, 1, 66, 0
2, 73840, Note_off_c, 1, 70, 0
2, 73840, Note_off_c, 1, 73, 0
2, 73840, Note_off_c, 1, 76, 0
2, 73840, Note_off_c, 1, 78, 0
2, 73880, Note_on_c, 1, 66, 127
2, 73880, Note_on_c, 1, 70, 127
2, 73880, Note_on_c, 1, 73, 127
2, 73880, Note_on_c, 1, 76, 127
2, 73880, Note_on_c, 1, 78, 127
2, 73920, Note_off_c, 1, 70, 0
2, 73920, Note_off_c, 1, 73, 0
2, 73920, Note_off_c, 1, 76, 0
2, 73920, Note_off_c, 1, 78, 0
2, 73960, Note_off_c, 1, 66, 0
2, 74000, Note_on_c, 1, 66, 127
2, 74000, Note_on_c, 1, 70, 127
2, 74000, Note_on_c, 1, 73, 127
2, 74000, Note_on_c, 1, 76, 127
2, 74000, Note_on_c, 1, 78, 127
2, 74360, Note_off_c, 1, 70, 0
2, 74360, Note_off_c, 1, 73, 0
2, 74360, Note_off_c, 1, 76, 0
2, 74360, Note_off_c, 1, 78, 0
2, 74400, Note_on_c, 1, 70, 127
2, 74400, Note_on_c, 1, 73, 127
2, 74400, Note_on_c, 1, 76, 127
2, 74400, Note_on_c, 1, 78, 127
2, 74720, Note_on_c, 1, 55, 127
2, 74720, Note_on_c, 1, 58, 127
2, 74720, Note_on_c, 1, 62, 127
2, 74720, Note_off_c, 1, 66, 0
2, 74720, Note_on_c, 1, 67, 127
2, 74720, Note_off_c, 1, 73, 0
2, 74720, Note_off_c, 1, 76, 0
2, 74720, Note_off_c, 1, 78, 0
2, 74760, Note_off_c, 1, 55, 0
2, 74760, Note_off_c, 1, 58, 0
2, 74760, Note_off_c, 1, 62, 0
2, 74760, Note_off_c, 1, 67, 0
2, 74760, Note_off_c, 1, 70, 0
2, 74800, Note_on_c, 1, 66, 127
2, 74800, Note_on_c, 1, 70, 127
2, 74800, Note_on_c, 1, 73, 127
2, 74800, Note_on_c, 1, 76, 127
2, 74800, Note_on_c, 1, 78, 127
2, 75160, Note_off_c, 1, 66, 0
2, 75160, Note_off_c, 1, 70, 0
2, 75160, Note_off_c, 1, 73, 0
2, 75160, Note_off_c, 1, 76, 0
2, 75160, Note_off_c, 1, 78, 0
2, 75200, Note_on_c, 1, 66, 127
2, 75200, Note_on_c, 1, 70, 127
2, 75200, Note_on_c, 1, 73, 127
2, 75200, Note_on_c, 1, 76, 127
2, 75200, Note_on_c, 1, 78, 127
2, 75560, Note_off_c, 1, 66, 0
2, 75560, Note_off_c, 1, 70, 0
2, 75560, Note_off_c, 1, 73, 0
2, 75560, Note_off_c, 1, 76, 0
2, 75560, Note_off_c, 1, 78, 0
2, 75600, Note_on_c, 1, 66, 127
2, 75600, Note_on_c, 1, 70, 127
2, 75600, Note_on_c, 1, 73, 127
2, 75600, Note_on_c, 1, 76, 127
2, 75600, Note_on_c, 1, 78, 127
2, 75960, Note_off_c, 1, 66, 0
2, 75960, Note_off_c, 1, 70, 0
2, 75960, Note_off_c, 1, 73, 0
2, 75960, Note_off_c, 1, 76, 0
2, 75960, Note_off_c, 1, 78, 0
2, 76040, Note_on_c, 1, 66, 127
2, 76040, Note_on_c, 1, 70, 127
2, 76040, Note_on_c, 1, 73, 127
2, 76040, Note_on_c, 1, 76, 127
2, 76040, Note_on_c, 1, 78, 127
2, 76040, Note_on_c, 1, 82, 127
2, 76400, Note_off_c, 1, 70, 0
2, 76400, Note_off_c, 1, 73, 0
2, 76400, Note_off_c, 1, 76, 0
2, 76400, Note_off_c, 1, 78, 0
2, 76400, Note_off_c, 1, 82, 0
2, 76440, Note_off_c, 1, 66, 0
2, 76440, Note_on_c, 1, 72, 127
2, 76440, Note_on_c, 1, 84, 127
2, 76440, Note_on_c, 1, 89, 127
2, 76440, Note_on_c, 1, 93, 127
2, 76440, Note_on_c, 1, 96, 127
2, 76600, Note_on_c, 1, 50, 127
2, 76600, Note_on_c, 1, 54, 127
2, 76600, Note_on_c, 1, 57, 127
2, 76600, Note_off_c, 1, 72, 0
2, 76600, Note_on_c, 1, 74, 127
2, 76600, Note_on_c, 1, 78, 127
2, 76600, Note_off_c, 1, 84, 0
2, 76600, Note_off_c, 1, 89, 0
2, 76600, Note_off_c, 1, 93, 0
2, 76600, Note_off_c, 1, 96, 0
2, 76640, Note_off_c, 1, 50, 0
2, 76640, Note_off_c, 1, 54, 0
2, 76640, Note_off_c, 1, 57, 0
2, 76640, Note_on_c, 1, 72, 127
2, 76640, Note_off_c, 1, 74, 0
2, 76640, Note_off_c, 1, 78, 0
2, 76640, Note_on_c, 1, 84, 127
2, 76640, Note_on_c, 1, 89, 127
2, 76640, Note_on_c, 1, 93, 127
2, 76640, Note_on_c, 1, 96, 127
2, 76760, Note_off_c, 1, 84, 0
2, 76760, Note_off_c, 1, 89, 0
2, 76760, Note_off_c, 1, 93, 0
2, 76760, Note_off_c, 1, 96, 0
2, 76800, Note_on_c, 1, 54, 127
2, 76800, Note_off_c, 1, 72, 0
2, 76800, Note_on_c, 1, 87, 127
2, 77600, Note_off_c, 1, 54, 0
2, 77640, Note_on_c, 1, 54, 127
2, 78320, Note_off_c, 1, 54, 0
2, 78320, Note_off_c, 1, 87, 0
2, 78360, Note_on_c, 1, 54, 127
2, 78360, Note_on_c, 1, 87, 127
2, 78440, Note_off_c, 1, 54, 0
2, 78440, Note_on_c, 1, 64, 127
2, 78440, Note_on_c, 1, 71, 127
2, 78440, Note_on_c, 1, 83, 127
2, 78440, Note_off_c, 1, 87, 0
2, 78440, Note_on_c, 1, 90, 127
2, 78480, Note_on_c, 1, 32, 127
2, 78480, Note_off_c, 1, 64, 0
2, 78480, Note_off_c, 1, 71, 0
2, 78480, Note_on_c, 1, 75, 127
2, 78480, Note_on_c, 1, 82, 127
2, 78480, Note_off_c, 1, 83, 0
2, 78480, Note_off_c, 1, 90, 0
2, 78520, Note_off_c, 1, 32, 0
2, 78520, Note_on_c, 1, 40, 127
2, 78520, Note_on_c, 1, 47, 127
2, 78520, Note_on_c, 1, 50, 127
2, 78520, Note_on_c, 1, 52, 127
2, 78520, Note_on_c, 1, 56, 127
2, 78520, Note_on_c, 1, 59, 127
2, 78520, Note_off_c, 1, 75, 0
2, 78520, Note_off_c, 1, 82, 0
2, 78560, Note_off_c, 1, 40, 0
2, 78560, Note_on_c, 1, 42, 127
2, 78560, Note_off_c, 1, 47, 0
2, 78560, Note_on_c, 1, 49, 127
2, 78560, Note_off_c, 1, 50, 0
2, 78560, Note_off_c, 1, 52, 0
2, 78560, Note_off_c, 1, 56, 0
2, 78560, Note_on_c, 1, 58, 127
2, 78560, Note_off_c, 1, 59, 0
2, 78560, Note_on_c, 1, 66, 127
2, 78560, Note_on_c, 1, 73, 127
2, 78560, Note_on_c, 1, 78, 127
2, 78600, Note_off_c, 1, 42, 0
2, 78600, Note_on_c, 1, 53, 127
2, 78600, Note_off_c, 1, 58, 0
2, 78600, Note_on_c, 1, 59, 127
2, 78600, Note_off_c, 1, 66, 0
2, 78600, Note_on_c, 1, 68, 127
2, 78600, Note_off_c, 1, 78, 0
2, 78640, Note_on_c, 1, 29, 127
2, 78640, Note_off_c, 1, 49, 0
2, 78640, Note_off_c, 1, 53, 0
2, 78640, Note_off_c, 1, 59, 0
2, 78640, Note_off_c, 1, 68, 0
2, 78640, Note_on_c, 1, 77, 127
2, 78680, Note_off_c, 1, 29, 0
2, 78680, Note_on_c, 1, 56, 127
2, 78680, Note_on_c, 1, 63, 127
2, 78680, Note_off_c, 1, 73, 0
2, 78680, Note_off_c, 1, 77, 0
2, 78680, Note_on_c, 1, 87, 127
2, 79240, Note_off_c, 1, 63, 0
2, 79240, Note_on_c, 1, 75, 127
2, 79240, Note_off_c, 1, 87, 0
2, 79280, Note_on_c, 1, 84, 127
2, 79640, Note_off_c, 1, 84, 0
2, 79680, Note_off_c, 1, 56, 0
2, 79680, Note_on_c, 1, 59, 127
2, 79680, Note_on_c, 1, 66, 127
2, 79680, Note_on_c, 1, 78, 127
2, 79920, Note_off_c, 1, 75, 0
2, 79960, Note_on_c, 1, 75, 127
2, 80040, Note_off_c, 1, 59, 0
2, 80040, Note_off_c, 1, 66, 0
2, 80040, Note_off_c, 1, 75, 0
2, 80040, Note_off_c, 1, 78, 0
2, 80080, Note_on_c, 1, 45, 127
2, 80080, Note_on_c, 1, 52, 127
2, 80080, Note_on_c, 1, 56, 127
2, 80080, Note_on_c, 1, 59, 127
2, 80080, Note_on_c, 1, 62, 127
2, 80080, Note_on_c, 1, 71, 127
2, 80320, Note_off_c, 1, 45, 0
2, 80320, Note_off_c, 1, 52, 0
2, 80320, Note_off_c, 1, 56, 0
2, 80320, Note_on_c, 1, 57, 127
2, 80320, Note_off_c, 1, 62, 0
2, 80320, Note_on_c, 1, 66, 127
2, 80320, Note_on_c, 1, 68, 127
2, 80320, Note_off_c, 1, 71, 0
2, 80320, Note_on_c, 1, 80, 127
2, 80360, Note_on_c, 1, 38, 127
2, 80360, Note_on_c, 1, 45, 127
2, 80360, Note_on_c, 1, 48, 127
2, 80360, Note_on_c, 1, 50, 127
2, 80360, Note_off_c, 1, 57, 0
2, 80360, Note_off_c, 1, 59, 0
2, 80360, Note_off_c, 1, 66, 0
2, 80360, Note_off_c, 1, 68, 0
2, 80360, Note_on_c, 1, 72, 127
2, 80360, Note_off_c, 1, 80, 0
2, 80400, Note_off_c, 1, 38, 0
2, 80400, Note_off_c, 1, 45, 0
2, 80400, Note_off_c, 1, 48, 0
2, 80400, Note_off_c, 1, 50, 0
2, 80400, Note_off_c, 1, 72, 0
2, 80440, Note_on_c, 1, 40, 127
2, 80440, Note_on_c, 1, 54, 127
2, 80440, Note_on_c, 1, 55, 127
2, 80440, Note_on_c, 1, 62, 127
2, 80440, Note_on_c, 1, 67, 127
2, 80480, Note_off_c, 1, 40, 0
2, 80480, Note_off_c, 1, 54, 0
2, 80480, Note_off_c, 1, 55, 0
2, 80480, Note_on_c, 1, 61, 127
2, 80480, Note_off_c, 1, 62, 0
2, 80480, Note_on_c, 1, 64, 127
2, 80480, Note_off_c, 1, 67, 0
2, 80480, Note_on_c, 1, 69, 127
2, 80480, Note_on_c, 1, 76, 127
2, 80480, Note_on_c, 1, 78, 127
2, 80520, Note_on_c, 1, 49, 127
2, 80520, Note_on_c, 1, 56, 127
2, 80520, Note_off_c, 1, 64, 0
2, 80520, Note_on_c, 1, 66, 127
2, 80520, Note_off_c, 1, 69, 0
2, 80520, Note_on_c, 1, 73, 127
2, 80520, Note_off_c, 1, 76, 0
2, 80520, Note_off_c, 1, 78, 0
2, 80520, Note_on_c, 1, 80, 127
2, 82080, Note_off_c, 1, 49, 0
2, 82080, Note_off_c, 1, 56, 0
2, 82080, Note_on_c, 1, 58, 127
2, 82080, Note_off_c, 1, 61, 0
2, 82080, Note_off_c, 1, 66, 0
2, 82080, Note_off_c, 1, 73, 0
2, 82080, Note_off_c, 1, 80, 0
2, 82120, Note_on_c, 1, 82, 127
2, 82160, Note_on_c, 1, 56, 127
2, 82160, Note_off_c, 1, 58, 0
2, 82480, Note_off_c, 1, 56, 0
2, 82520, Note_off_c, 1, 82, 0
2, 82560, Note_on_c, 1, 56, 127
2, 82560, Note_on_c, 1, 63, 127
2, 82560, Note_on_c, 1, 80, 127
2, 82560, Note_on_c, 1, 84, 127
2, 82920, Note_off_c, 1, 84, 0
2, 82960, Note_on_c, 1, 73, 127
2, 82960, Note_off_c, 1, 80, 0
2, 82960, Note_on_c, 1, 82, 127
2, 83320, Note_off_c, 1, 73, 0
2, 83320, Note_off_c, 1, 82, 0
2, 83360, Note_on_c, 1, 72, 127
2, 83360, Note_on_c, 1, 80, 127
2, 83720, Note_off_c, 1, 80, 0
2, 83760, Note_on_c, 1, 80, 127
2, 84120, Note_off_c, 1, 80, 0
2, 84160, Note_on_c, 1, 67, 127
2, 84520, Note_off_c, 1, 72, 0
2, 84560, Note_off_c, 1, 56, 0
2, 84560, Note_off_c, 1, 63, 0
2, 84560, Note_off_c, 1, 67, 0
2, 84600, Note_on_c, 1, 56, 127
2, 84600, Note_on_c, 1, 63, 127
2, 84600, Note_on_c, 1, 67, 127
2, 84600, Note_on_c, 1, 72, 127
2, 84960, Note_off_c, 1, 63, 0
2, 84960, Note_off_c, 1, 67, 0
2, 84960, Note_off_c, 1, 72, 0
2, 85000, Note_off_c, 1, 56, 0
2, 85000, Note_on_c, 1, 63, 127
2, 85000, Note_on_c, 1, 75, 127
2, 85000, Note_on_c, 1, 78, 127
2, 85000, Note_on_c, 1, 82, 127
2, 85360, Note_off_c, 1, 63, 0
2, 85360, Note_off_c, 1, 75, 0
2, 85360, Note_on_c, 1, 77, 127
2, 85360, Note_off_c, 1, 78, 0
2, 85360, Note_on_c, 1, 89, 127
2, 85400, Note_on_c, 1, 51, 127
2, 85400, Note_on_c, 1, 63, 127
2, 85400, Note_on_c, 1, 70, 127
2, 85400, Note_off_c, 1, 77, 0
2, 85400, Note_on_c, 1, 80, 127
2, 85400, Note_off_c, 1, 82, 0
2, 85400, Note_off_c, 1, 89, 0
2, 85520, Note_on_c, 1, 47, 127
2, 85520, Note_off_c, 1, 51, 0
2, 85520, Note_off_c, 1, 63, 0
2, 85520, Note_on_c, 1, 68, 127
2, 85520, Note_off_c, 1, 70, 0
2, 85520, Note_on_c, 1, 75, 127
2, 85560, Note_off_c, 1, 47, 0
2, 85560, Note_on_c, 1, 51, 127
2, 85560, Note_on_c, 1, 63, 127
2, 85560, Note_off_c, 1, 68, 0
2, 85560, Note_on_c, 1, 70, 127
2, 85560, Note_off_c, 1, 75, 0
2, 85560, Note_off_c, 1, 80, 0
2, 85720, Note_off_c, 1, 70, 0
2, 85720, Note_on_c, 1, 75, 127
2, 85760, Note_off_c, 1, 63, 0
2, 85760, Note_off_c, 1, 75, 0
2, 85800, Note_on_c, 1, 43, 127
2, 85800, Note_off_c, 1, 51, 0
2, 85800, Note_on_c, 1, 55, 127
2, 85800, Note_on_c, 1, 70, 127
2, 85800, Note_on_c, 1, 75, 127
2, 86160, Note_off_c, 1, 70, 0
2, 86200, Note_on_c, 1, 73, 127
2, 86560, Note_off_c, 1, 43, 0
2, 86560, Note_off_c, 1, 55, 0
2, 86560, Note_off_c, 1, 73, 0
2, 86560, Note_off_c, 1, 75, 0
2, 86640, Note_on_c, 1, 56, 127
2, 86640, Note_on_c, 1, 60, 127
2, 86640, Note_on_c, 1, 77, 127
2, 86640, Note_on_c, 1, 80, 127
2, 86720, Note_on_c, 1, 43, 127
2, 86720, Note_off_c, 1, 56, 0
2, 86720, Note_off_c, 1, 60, 0
2, 86720, Note_off_c, 1, 77, 0
2, 86720, Note_off_c, 1, 80, 0
2, 86720, Note_on_c, 1, 84, 127
2, 86720, Note_on_c, 1, 87, 127
2, 86760, Note_off_c, 1, 43, 0
2, 86760, Note_on_c, 1, 56, 127
2, 86760, Note_on_c, 1, 60, 127
2, 86760, Note_on_c, 1, 77, 127
2, 86760, Note_on_c, 1, 80, 127
2, 86760, Note_off_c, 1, 84, 0
2, 86760, Note_off_c, 1, 87, 0
2, 87000, Note_off_c, 1, 56, 0
2, 87000, Note_off_c, 1, 60, 0
2, 87040, Note_on_c, 1, 53, 127
2, 87040, Note_on_c, 1, 65, 127
2, 87040, Note_on_c, 1, 71, 127
2, 87040, Note_off_c, 1, 77, 0
2, 87400, Note_off_c, 1, 71, 0
2, 87440, Note_on_c, 1, 68, 127
2, 87800, Note_off_c, 1, 68, 0
2, 87840, Note_on_c, 1, 42, 127
2, 87840, Note_off_c, 1, 53, 0
2, 87840, Note_on_c, 1, 54, 127
2, 87840, Note_on_c, 1, 63, 127
2, 87840, Note_off_c, 1, 65, 0
2, 87840, Note_on_c, 1, 75, 127
2, 87840, Note_off_c, 1, 80, 0
2, 88200, Note_off_c, 1, 42, 0
2, 88200, Note_off_c, 1, 54, 0
2, 88200, Note_off_c, 1, 63, 0
2, 88200, Note_off_c, 1, 75, 0
2, 88240, Note_on_c, 1, 56, 127
2, 88240, Note_on_c, 1, 64, 127
2, 88240, Note_on_c, 1, 73, 127
2, 88240, Note_on_c, 1, 76, 127
2, 88600, Note_on_c, 1, 52, 127
2, 88600, Note_off_c, 1, 56, 0
2, 88600, Note_on_c, 1, 60, 127
2, 88600, Note_off_c, 1, 73, 0
2, 88600, Note_off_c, 1, 76, 0
2, 88640, Note_off_c, 1, 52, 0
2, 88640, Note_off_c, 1, 60, 0
2, 88640, Note_off_c, 1, 64, 0
2, 88680, Note_on_c, 1, 52, 127
2, 88680, Note_on_c, 1, 59, 127
2, 88680, Note_on_c, 1, 64, 127
2, 88680, Note_on_c, 1, 71, 127
2, 88680, Note_on_c, 1, 80, 127
2, 89000, Note_off_c, 1, 71, 0
2, 89040, Note_off_c, 1, 80, 0
2, 89080, Note_on_c, 1, 71, 127
2, 89080, Note_on_c, 1, 80, 127
2, 89240, Note_off_c, 1, 71, 0
2, 89280, Note_on_c, 1, 70, 127
2, 89440, Note_off_c, 1, 70, 0
2, 89840, Note_off_c, 1, 52, 0
2, 89840, Note_off_c, 1, 59, 0
2, 89840, Note_off_c, 1, 64, 0
2, 89840, Note_off_c, 1, 80, 0
2, 89880, Note_on_c, 1, 52, 127
2, 89880, Note_on_c, 1, 80, 127
2, 90280, Note_off_c, 1, 52, 0
2, 90280, Note_on_c, 1, 60, 127
2, 90280, Note_on_c, 1, 63, 127
2, 90280, Note_on_c, 1, 66, 127
2, 90280, Note_on_c, 1, 74, 127
2, 90280, Note_on_c, 1, 78, 127
2, 90280, Note_off_c, 1, 80, 0
2, 90320, Note_on_c, 1, 39, 127
2, 90320, Note_on_c, 1, 51, 127
2, 90320, Note_off_c, 1, 60, 0
2, 90320, Note_off_c, 1, 63, 0
2, 90320, Note_off_c, 1, 66, 0
2, 90320, Note_on_c, 1, 68, 127
2, 90320, Note_on_c, 1, 72, 127
2, 90320, Note_off_c, 1, 74, 0
2, 90320, Note_on_c, 1, 76, 127
2, 90320, Note_off_c, 1, 78, 0
2, 90320, Note_on_c, 1, 80, 127
2, 90360, Note_off_c, 1, 39, 0
2, 90360, Note_off_c, 1, 51, 0
2, 90360, Note_on_c, 1, 59, 127
2, 90360, Note_on_c, 1, 62, 127
2, 90360, Note_off_c, 1, 72, 0
2, 90360, Note_on_c, 1, 74, 127
2, 90360, Note_off_c, 1, 76, 0
2, 90360, Note_on_c, 1, 83, 127
2, 90400, Note_on_c, 1, 57, 127
2, 90400, Note_off_c, 1, 59, 0
2, 90400, Note_off_c, 1, 62, 0
2, 90400, Note_off_c, 1, 74, 0
2, 90400, Note_on_c, 1, 76, 127
2, 90400, Note_off_c, 1, 83, 0
2, 90440, Note_on_c, 1, 46, 127
2, 90440, Note_on_c, 1, 53, 127
2, 90440, Note_off_c, 1, 57, 0
2, 90440, Note_off_c, 1, 68, 0
2, 90440, Note_on_c, 1, 75, 127
2, 90440, Note_off_c, 1, 76, 0
2, 90440, Note_off_c, 1, 80, 0
2, 90440, Note_on_c, 1, 89, 127
2, 90480, Note_on_c, 1, 41, 127
2, 90480, Note_off_c, 1, 46, 0
2, 90480, Note_on_c, 1, 50, 127
2, 90480, Note_off_c, 1, 53, 0
2, 90480, Note_on_c, 1, 56, 127
2, 90480, Note_on_c, 1, 61, 127
2, 90480, Note_off_c, 1, 75, 0
2, 90480, Note_off_c, 1, 89, 0
2, 90520, Note_on_c, 1, 40, 127
2, 90520, Note_off_c, 1, 41, 0
2, 90520, Note_on_c, 1, 49, 127
2, 90520, Note_off_c, 1, 50, 0
2, 90520, Note_off_c, 1, 61, 0
2, 90520, Note_on_c, 1, 68, 127
2, 90640, Note_off_c, 1, 40, 0
2, 90640, Note_off_c, 1, 49, 0
2, 90640, Note_off_c, 1, 56, 0
2, 90640, Note_on_c, 1, 75, 127
2, 90640, Note_on_c, 1, 80, 127
2, 90680, Note_off_c, 1, 68, 0
2, 90680, Note_off_c, 1, 75, 0
2, 90680, Note_off_c, 1, 80, 0
2, 90720, Note_on_c, 1, 49, 127
2, 90720, Note_on_c, 1, 56, 127
2, 90720, Note_on_c, 1, 68, 127
2, 90720, Note_on_c, 1, 73, 127
2, 90720, Note_on_c, 1, 77, 127
2, 91080, Note_off_c, 1, 49, 0
2, 91080, Note_on_c, 1, 54, 127
2, 91080, Note_off_c, 1, 56, 0
2, 91080, Note_off_c, 1, 68, 0
2, 91080, Note_off_c, 1, 73, 0
2, 91080, Note_off_c, 1, 77, 0
2, 91080, Note_on_c, 1, 80, 127
2, 91120, Note_off_c, 1, 54, 0
2, 91120, Note_on_c, 1, 64, 127
2, 91120, Note_on_c, 1, 68, 127
2, 91120, Note_on_c, 1, 74, 127
2, 91120, Note_off_c, 1, 80, 0
2, 91120, Note_on_c, 1, 83, 127
2, 91480, Note_off_c, 1, 64, 0
2, 91480, Note_off_c, 1, 68, 0
2, 91480, Note_off_c, 1, 74, 0
2, 91480, Note_off_c, 1, 83, 0
2, 91520, Note_on_c, 1, 76, 127
2, 91520, Note_on_c, 1, 79, 127
2, 91520, Note_on_c, 1, 82, 127
2, 91920, Note_on_c, 1, 49, 127
2, 91920, Note_on_c, 1, 56, 127
2, 91920, Note_on_c, 1, 59, 127
2, 91920, Note_on_c, 1, 63, 127
2, 91920, Note_on_c, 1, 66, 127
2, 91920, Note_on_c, 1, 68, 127
2, 91920, Note_off_c, 1, 76, 0
2, 91920, Note_off_c, 1, 79, 0
2, 91920, Note_off_c, 1, 82, 0
2, 92200, Note_on_c, 1, 45, 127
2, 92200, Note_off_c, 1, 49, 0
2, 92200, Note_on_c, 1, 52, 127
2, 92200, Note_off_c, 1, 56, 0
2, 92200, Note_off_c, 1, 59, 0
2, 92200, Note_off_c, 1, 63, 0
2, 92200, Note_off_c, 1, 66, 0
2, 92200, Note_off_c, 1, 68, 0
2, 92200, Note_on_c, 1, 83, 127
2, 92200, Note_on_c, 1, 91, 127
2, 92200, Note_on_c, 1, 95, 127
2, 92240, Note_off_c, 1, 45, 0
2, 92240, Note_on_c, 1, 49, 127
2, 92240, Note_off_c, 1, 52, 0
2, 92240, Note_on_c, 1, 56, 127
2, 92240, Note_on_c, 1, 59, 127
2, 92240, Note_on_c, 1, 63, 127
2, 92240, Note_on_c, 1, 66, 127
2, 92240, Note_on_c, 1, 68, 127
2, 92240, Note_off_c, 1, 83, 0
2, 92240, Note_off_c, 1, 91, 0
2, 92240, Note_off_c, 1, 95, 0
2, 92280, Note_off_c, 1, 49, 0
2, 92280, Note_off_c, 1, 56, 0
2, 92280, Note_off_c, 1, 59, 0
2, 92280, Note_off_c, 1, 63, 0
2, 92280, Note_off_c, 1, 66, 0
2, 92280, Note_off_c, 1, 68, 0
2, 92280, Note_on_c, 1, 70, 127
2, 92280, Note_on_c, 1, 73, 127
2, 92280, Note_on_c, 1, 87, 127
2, 92280, Note_on_c, 1, 94, 127
2, 92320, Note_on_c, 1, 49, 127
2, 92320, Note_on_c, 1, 54, 127
2, 92320, Note_on_c, 1, 58, 127
2, 92320, Note_on_c, 1, 62, 127
2, 92320, Note_off_c, 1, 73, 0
2, 92320, Note_on_c, 1, 74, 127
2, 92320, Note_off_c, 1, 87, 0
2, 92320, Note_off_c, 1, 94, 0
2, 92360, Note_off_c, 1, 49, 0
2, 92360, Note_off_c, 1, 54, 0
2, 92360, Note_off_c, 1, 58, 0
2, 92360, Note_off_c, 1, 62, 0
2, 92360, Note_on_c, 1, 69, 127
2, 92360, Note_off_c, 1, 70, 0
2, 92360, Note_off_c, 1, 74, 0
2, 92360, Note_on_c, 1, 75, 127
2, 92360, Note_on_c, 1, 78, 127
2, 92360, Note_on_c, 1, 87, 127
2, 92360, Note_on_c, 1, 90, 127
2, 92400, Note_on_c, 1, 49, 127
2, 92400, Note_on_c, 1, 64, 127
2, 92400, Note_off_c, 1, 69, 0
2, 92400, Note_on_c, 1, 71, 127
2, 92400, Note_on_c, 1, 73, 127
2, 92400, Note_off_c, 1, 75, 0
2, 92400, Note_off_c, 1, 78, 0
2, 92400, Note_off_c, 1, 87, 0
2, 92400, Note_off_c, 1, 90, 0
2, 92440, Note_on_c, 1, 47, 127
2, 92440, Note_off_c, 1, 49, 0
2, 92440, Note_on_c, 1, 53, 127
2, 92440, Note_off_c, 1, 64, 0
2, 92440, Note_off_c, 1, 71, 0
2, 92440, Note_off_c, 1, 73, 0
2, 92440, Note_on_c, 1, 74, 127
2, 92480, Note_off_c, 1, 47, 0
2, 92480, Note_off_c, 1, 53, 0
2, 92480, Note_on_c, 1, 62, 127
2, 92480, Note_on_c, 1, 71, 127
2, 92480, Note_off_c, 1, 74, 0
2, 92480, Note_on_c, 1, 92, 127
2, 92480, Note_on_c, 1, 97, 127
2, 92520, Note_on_c, 1, 38, 127
2, 92520, Note_on_c, 1, 43, 127
2, 92520, Note_on_c, 1, 53, 127
2, 92520, Note_off_c, 1, 62, 0
2, 92520, Note_off_c, 1, 71, 0
2, 92520, Note_on_c, 1, 80, 127
2, 92520, Note_off_c, 1, 92, 0
2, 92520, Note_off_c, 1, 97, 0
2, 92560, Note_off_c, 1, 38, 0
2, 92560, Note_on_c, 1, 52, 127
2, 92560, Note_off_c, 1, 53, 0
2, 92560, Note_on_c, 1, 58, 127
2, 92560, Note_on_c, 1, 61, 127
2, 92560, Note_off_c, 1, 80, 0
2, 92600, Note_off_c, 1, 43, 0
2, 92600, Note_off_c, 1, 52, 0
2, 92600, Note_on_c, 1, 53, 127
2, 92600, Note_on_c, 1, 57, 127
2, 92600, Note_off_c, 1, 58, 0
2, 92600, Note_on_c, 1, 60, 127
2, 92600, Note_off_c, 1, 61, 0
2, 92600, Note_on_c, 1, 63, 127
2, 92600, Note_on_c, 1, 65, 127
2, 92600, Note_on_c, 1, 90, 127
2, 92640, Note_off_c, 1, 53, 0
2, 92640, Note_off_c, 1, 57, 0
2, 92640, Note_off_c, 1, 60, 0
2, 92640, Note_off_c, 1, 63, 0
2, 92640, Note_off_c, 1, 65, 0
2, 92640, Note_off_c, 1, 90, 0
2, 92680, Note_on_c, 1, 60, 127
2, 92680, Note_on_c, 1, 76, 127
2, 92680, Note_on_c, 1, 80, 127
2, 92680, Note_on_c, 1, 88, 127
2, 92720, Note_on_c, 1, 41, 127
2, 92720, Note_on_c, 1, 51, 127
2, 92720, Note_on_c, 1, 57, 127
2, 92720, Note_on_c, 1, 63, 127
2, 92720, Note_off_c, 1, 76, 0
2, 92720, Note_off_c, 1, 80, 0
2, 92720, Note_off_c, 1, 88, 0
2, 92760, Note_off_c, 1, 41, 0
2, 92760, Note_off_c, 1, 51, 0
2, 92760, Note_off_c, 1, 57, 0
2, 92760, Note_off_c, 1, 60, 0
2, 92760, Note_on_c, 1, 61, 127
2, 92760, Note_off_c, 1, 63, 0
2, 92760, Note_on_c, 1, 68, 127
2, 92760, Note_on_c, 1, 80, 127
2, 92760, Note_on_c, 1, 86, 127
2, 92800, Note_on_c, 1, 53, 127
2, 92800, Note_on_c, 1, 58, 127
2, 92800, Note_on_c, 1, 60, 127
2, 92800, Note_off_c, 1, 61, 0
2, 92800, Note_on_c, 1, 64, 127
2, 92800, Note_off_c, 1, 68, 0
2, 92800, Note_off_c, 1, 80, 0
2, 92800, Note_on_c, 1, 84, 127
2, 92800, Note_off_c, 1, 86, 0
2, 92840, Note_on_c, 1, 41, 127
2, 92840, Note_on_c, 1, 51, 127
2, 92840, Note_off_c, 1, 53, 0
2, 92840, Note_on_c, 1, 57, 127
2, 92840, Note_off_c, 1, 58, 0
2, 92840, Note_on_c, 1, 63, 127
2, 92840, Note_off_c, 1, 64, 0
2, 92840, Note_off_c, 1, 84, 0
2, 92880, Note_off_c, 1, 41, 0
2, 92880, Note_off_c, 1, 51, 0
2, 92880, Note_off_c, 1, 57, 0
2, 92880, Note_off_c, 1, 60, 0
2, 92880, Note_on_c, 1, 61, 127
2, 92880, Note_off_c, 1, 63, 0
2, 92880, Note_on_c, 1, 68, 127
2, 92880, Note_on_c, 1, 80, 127
2, 92880, Note_on_c, 1, 86, 127
2, 92920, Note_on_c, 1, 41, 127
2, 92920, Note_on_c, 1, 48, 127
2, 92920, Note_off_c, 1, 61, 0
2, 92920, Note_off_c, 1, 68, 0
2, 92920, Note_off_c, 1, 80, 0
2, 92920, Note_off_c, 1, 86, 0
2, 92960, Note_off_c, 1, 41, 0
2, 92960, Note_off_c, 1, 48, 0
2, 92960, Note_on_c, 1, 50, 127
2, 92960, Note_on_c, 1, 53, 127
2, 92960, Note_on_c, 1, 62, 127
2, 92960, Note_on_c, 1, 76, 127
2, 93120, Note_off_c, 1, 50, 0
2, 93120, Note_off_c, 1, 53, 0
2, 93120, Note_off_c, 1, 62, 0
2, 93120, Note_off_c, 1, 76, 0
2, 93160, Note_on_c, 1, 58, 127
2, 93160, Note_on_c, 1, 61, 127
2, 93160, Note_on_c, 1, 76, 127
2, 93160, Note_on_c, 1, 79, 127
2, 93400, Note_off_c, 1, 79, 0
2, 93440, Note_on_c, 1, 79, 127
2, 93920, Note_off_c, 1, 61, 0
2, 93920, Note_off_c, 1, 76, 0
2, 93960, Note_on_c, 1, 46, 127
2, 93960, Note_on_c, 1, 50, 127
2, 93960, Note_on_c, 1, 55, 127
2, 93960, Note_off_c, 1, 58, 0
2, 93960, Note_off_c, 1, 79, 0
2, 93960, Note_on_c, 1, 82, 127
2, 94000, Note_off_c, 1, 46, 0
2, 94000, Note_off_c, 1, 50, 0
2, 94000, Note_on_c, 1, 53, 127
2, 94000, Note_off_c, 1, 55, 0
2, 94000, Note_on_c, 1, 76, 127
2, 94040, Note_on_c, 1, 46, 127
2, 94040, Note_on_c, 1, 50, 127
2, 94040, Note_off_c, 1, 53, 0
2, 94040, Note_on_c, 1, 55, 127
2, 94040, Note_off_c, 1, 76, 0
2, 94120, Note_on_c, 1, 73, 127
2, 94120, Note_off_c, 1, 82, 0
2, 94160, Note_off_c, 1, 73, 0
2, 94160, Note_on_c, 1, 82, 127
2, 94320, Note_off_c, 1, 46, 0
2, 94320, Note_off_c, 1, 50, 0
2, 94320, Note_off_c, 1, 55, 0
2, 94360, Note_on_c, 1, 46, 127
2, 94360, Note_on_c, 1, 50, 127
2, 94360, Note_on_c, 1, 55, 127
2, 94720, Note_off_c, 1, 46, 0
2, 94720, Note_off_c, 1, 50, 0
2, 94720, Note_off_c, 1, 55, 0
2, 94720, Note_on_c, 1, 77, 127
2, 94720, Note_on_c, 1, 79, 127
2, 94720, Note_off_c, 1, 82, 0
2, 94760, Note_off_c, 1, 77, 0
2, 94760, Note_off_c, 1, 79, 0
2, 94800, Note_on_c, 1, 46, 127
2, 94800, Note_on_c, 1, 50, 127
2, 94800, Note_on_c, 1, 55, 127
2, 94800, Note_on_c, 1, 82, 127
2, 95160, Note_off_c, 1, 46, 0
2, 95160, Note_off_c, 1, 50, 0
2, 95160, Note_off_c, 1, 55, 0
2, 95200, Note_on_c, 1, 35, 127
2, 95200, Note_on_c, 1, 47, 127
2, 95200, Note_on_c, 1, 66, 127
2, 95200, Note_on_c, 1, 76, 127
2, 95200, Note_on_c, 1, 79, 127
2, 95200, Note_off_c, 1, 82, 0
2, 95560, Note_off_c, 1, 35, 0
2, 95560, Note_off_c, 1, 47, 0
2, 95560, Note_on_c, 1, 62, 127
2, 95560, Note_on_c, 1, 64, 127
2, 95560, Note_off_c, 1, 66, 0
2, 95560, Note_off_c, 1, 76, 0
2, 95560, Note_off_c, 1, 79, 0
2, 95560, Note_on_c, 1, 83, 127
2, 95600, Note_on_c, 1, 35, 127
2, 95600, Note_on_c, 1, 41, 127
2, 95600, Note_on_c, 1, 44, 127
2, 95600, Note_on_c, 1, 50, 127
2, 95600, Note_on_c, 1, 53, 127
2, 95600, Note_on_c, 1, 59, 127
2, 95600, Note_off_c, 1, 62, 0
2, 95600, Note_off_c, 1, 64, 0
2, 95600, Note_off_c, 1, 83, 0
2, 95640, Note_off_c, 1, 35, 0
2, 95640, Note_off_c, 1, 41, 0
2, 95640, Note_off_c, 1, 44, 0
2, 95640, Note_off_c, 1, 50, 0
2, 95640, Note_on_c, 1, 51, 127
2, 95640, Note_off_c, 1, 53, 0
2, 95640, Note_on_c, 1, 56, 127
2, 95640, Note_off_c, 1, 59, 0
2, 95640, Note_on_c, 1, 65, 127
2, 95640, Note_on_c, 1, 70, 127
2, 95640, Note_on_c, 1, 74, 127
2, 95680, Note_off_c, 1, 51, 0
2, 95680, Note_off_c, 1, 56, 0
2, 95680, Note_on_c, 1, 57, 127
2, 95680, Note_on_c, 1, 63, 127
2, 95680, Note_off_c, 1, 65, 0
2, 95680, Note_on_c, 1, 67, 127
2, 95680, Note_off_c, 1, 70, 0
2, 95680, Note_on_c, 1, 73, 127
2, 95680, Note_off_c, 1, 74, 0
2, 95720, Note_on_c, 1, 55, 127
2, 95720, Note_off_c, 1, 57, 0
2, 95720, Note_off_c, 1, 63, 0
2, 95720, Note_off_c, 1, 67, 0
2, 95720, Note_off_c, 1, 73, 0
2, 95720, Note_on_c, 1, 93, 127
2, 95720, Note_on_c, 1, 96, 127
2, 95760, Note_on_c, 1, 53, 127
2, 95760, Note_off_c, 1, 55, 0
2, 95760, Note_on_c, 1, 56, 127
2, 95760, Note_on_c, 1, 59, 127
2, 95760, Note_on_c, 1, 63, 127
2, 95760, Note_off_c, 1, 93, 0
2, 95760, Note_off_c, 1, 96, 0
2, 95800, Note_off_c, 1, 53, 0
2, 95800, Note_off_c, 1, 56, 0
2, 95800, Note_on_c, 1, 57, 127
2, 95800, Note_off_c, 1, 59, 0
2, 95800, Note_on_c, 1, 61, 127
2, 95800, Note_off_c, 1, 63, 0
2, 95800, Note_on_c, 1, 64, 127
2, 95800, Note_on_c, 1, 67, 127
2, 95800, Note_on_c, 1, 70, 127
2, 95800, Note_on_c, 1, 82, 127
2, 95840, Note_off_c, 1, 57, 0
2, 95840, Note_off_c, 1, 64, 0
2, 95840, Note_off_c, 1, 67, 0
2, 95840, Note_off_c, 1, 70, 0
2, 95840, Note_off_c, 1, 82, 0
2, 95840, Note_on_c, 1, 89, 127
2, 95840, Note_on_c, 1, 92, 127
2, 95880, Note_on_c, 1, 57, 127
2, 95880, Note_on_c, 1, 64, 127
2, 95880, Note_on_c, 1, 67, 127
2, 95880, Note_on_c, 1, 70, 127
2, 95880, Note_on_c, 1, 82, 127
2, 95880, Note_off_c, 1, 89, 0
2, 95880, Note_off_c, 1, 92, 0
2, 95960, Note_off_c, 1, 57, 0
2, 95960, Note_off_c, 1, 61, 0
2, 95960, Note_off_c, 1, 64, 0
2, 95960, Note_off_c, 1, 67, 0
2, 95960, Note_off_c, 1, 70, 0
2, 96000, Note_on_c, 1, 62, 127
2, 96000, Note_on_c, 1, 67, 127
2, 96000, Note_on_c, 1, 69, 127
2, 96000, Note_on_c, 1, 74, 127
2, 96000, Note_off_c, 1, 82, 0
2, 96000, Note_on_c, 1, 91, 127
2, 96000, Note_on_c, 1, 96, 127
2, 96240, Note_on_c, 1, 84, 127
2, 96240, Note_off_c, 1, 91, 0
2, 96240, Note_off_c, 1, 96, 0
2, 96240, Note_on_c, 1, 98, 127
2, 96360, Note_off_c, 1, 84, 0
2, 96360, Note_off_c, 1, 98, 0
2, 96400, Note_on_c, 1, 30, 127
2, 96400, Note_on_c, 1, 37, 127
2, 96400, Note_on_c, 1, 42, 127
2, 96400, Note_off_c, 1, 62, 0
2, 96400, Note_off_c, 1, 67, 0
2, 96400, Note_off_c, 1, 69, 0
2, 96400, Note_off_c, 1, 74, 0
2, 96400, Note_on_c, 1, 78, 127
2, 96640, Note_off_c, 1, 78, 0
2, 96720, Note_on_c, 1, 78, 127
2, 96760, Note_off_c, 1, 78, 0
2, 96800, Note_off_c, 1, 30, 0
2, 96800, Note_off_c, 1, 37, 0
2, 96800, Note_off_c, 1, 42, 0
2, 96840, Note_on_c, 1, 52, 127
2, 96840, Note_on_c, 1, 54, 127
2, 96840, Note_on_c, 1, 59, 127
2, 96840, Note_on_c, 1, 66, 127
2, 96840, Note_on_c, 1, 71, 127
2, 97200, Note_off_c, 1, 54, 0
2, 97200, Note_off_c, 1, 66, 0
2, 97240, Note_on_c, 1, 47, 127
2, 97240, Note_off_c, 1, 52, 0
2, 97240, Note_on_c, 1, 63, 127
2, 97560, Note_off_c, 1, 47, 0
2, 97560, Note_on_c, 1, 54, 127
2, 97560, Note_off_c, 1, 59, 0
2, 97560, Note_off_c, 1, 63, 0
2, 97560, Note_off_c, 1, 71, 0
2, 97560, Note_on_c, 1, 78, 127
2, 97560, Note_on_c, 1, 90, 127
2, 97560, Note_on_c, 1, 93, 127
2, 97600, Note_off_c, 1, 54, 0
2, 97600, Note_off_c, 1, 78, 0
2, 97600, Note_off_c, 1, 90, 0
2, 97600, Note_off_c, 1, 93, 0
2, 97640, Note_on_c, 1, 64, 127
2, 97640, Note_on_c, 1, 66, 127
2, 97640, Note_on_c, 1, 76, 127
2, 97640, Note_on_c, 1, 78, 127
2, 97840, Note_on_c, 1, 38, 127
2, 97840, Note_on_c, 1, 54, 127
2, 97840, Note_off_c, 1, 64, 0
2, 97840, Note_on_c, 1, 70, 127
2, 97840, Note_off_c, 1, 76, 0
2, 97840, Note_off_c, 1, 78, 0
2, 97880, Note_off_c, 1, 38, 0
2, 97880, Note_off_c, 1, 54, 0
2, 97880, Note_on_c, 1, 56, 127
2, 97880, Note_on_c, 1, 61, 127
2, 97880, Note_on_c, 1, 64, 127
2, 97880, Note_off_c, 1, 66, 0
2, 97880, Note_on_c, 1, 67, 127
2, 97880, Note_off_c, 1, 70, 0
2, 97880, Note_on_c, 1, 73, 127
2, 97880, Note_on_c, 1, 76, 127
2, 97920, Note_on_c, 1, 38, 127
2, 97920, Note_on_c, 1, 54, 127
2, 97920, Note_off_c, 1, 56, 0
2, 97920, Note_off_c, 1, 61, 0
2, 97920, Note_off_c, 1, 64, 0
2, 97920, Note_on_c, 1, 66, 127
2, 97920, Note_off_c, 1, 67, 0
2, 97920, Note_on_c, 1, 70, 127
2, 97920, Note_off_c, 1, 73, 0
2, 97920, Note_off_c, 1, 76, 0
2, 98000, Note_off_c, 1, 38, 0
2, 98000, Note_off_c, 1, 54, 0
2, 98000, Note_on_c, 1, 61, 127
2, 98000, Note_on_c, 1, 65, 127
2, 98000, Note_off_c, 1, 66, 0
2, 98000, Note_off_c, 1, 70, 0
2, 98000, Note_on_c, 1, 71, 127
2, 98040, Note_off_c, 1, 61, 0
2, 98040, Note_off_c, 1, 65, 0
2, 98040, Note_on_c, 1, 66, 127
2, 98040, Note_off_c, 1, 71, 0
2, 98040, Note_on_c, 1, 73, 127
2, 98040, Note_on_c, 1, 102, 127
2, 98840, Note_off_c, 1, 66, 0
2, 98840, Note_off_c, 1, 73, 0
2, 98840, Note_off_c, 1, 102, 0
2, 98880, Note_on_c, 1, 66, 127
2, 98880, Note_on_c, 1, 73, 127
2, 98880, Note_on_c, 1, 102, 127
2, 99200, Note_off_c, 1, 66, 0
2, 99200, Note_off_c, 1, 73, 0
2, 99200, Note_on_c, 1, 83, 127
2, 99200, Note_on_c, 1, 85, 127
2, 99200, Note_off_c, 1, 102, 0
2, 99240, Note_on_c, 1, 66, 127
2, 99240, Note_on_c, 1, 73, 127
2, 99240, Note_off_c, 1, 83, 0
2, 99240, Note_off_c, 1, 85, 0
2, 99240, Note_on_c, 1, 102, 127
2, 100000, Note_off_c, 1, 66, 0
2, 100000, Note_off_c, 1, 73, 0
2, 100000, Note_off_c, 1, 102, 0
2, 100040, Note_on_c, 1, 54, 127
2, 100040, Note_on_c, 1, 61, 127
2, 100040, Note_on_c, 1, 64, 127
2, 100040, Note_on_c, 1, 70, 127
2, 100040, Note_on_c, 1, 73, 127
2, 100040, Note_on_c, 1, 82, 127
2, 100040, Note_on_c, 1, 85, 127
2, 100080, Note_on_c, 1, 50, 127
2, 100080, Note_off_c, 1, 54, 0
2, 100080, Note_on_c, 1, 57, 127
2, 100080, Note_on_c, 1, 60, 127
2, 100080, Note_off_c, 1, 61, 0
2, 100080, Note_off_c, 1, 64, 0
2, 100080, Note_off_c, 1, 70, 0
2, 100080, Note_off_c, 1, 73, 0
2, 100080, Note_off_c, 1, 82, 0
2, 100080, Note_off_c, 1, 85, 0
2, 100080, Note_on_c, 1, 98, 127
2, 100120, Note_off_c, 1, 50, 0
2, 100120, Note_on_c, 1, 54, 127
2, 100120, Note_off_c, 1, 57, 0
2, 100120, Note_off_c, 1, 60, 0
2, 100120, Note_on_c, 1, 61, 127
2, 100120, Note_on_c, 1, 64, 127
2, 100120, Note_on_c, 1, 70, 127
2, 100120, Note_on_c, 1, 73, 127
2, 100120, Note_on_c, 1, 82, 127
2, 100120, Note_on_c, 1, 85, 127
2, 100120, Note_off_c, 1, 98, 0
2, 100160, Note_on_c, 1, 42, 127
2, 100160, Note_off_c, 1, 54, 0
2, 100160, Note_on_c, 1, 57, 127
2, 100160, Note_off_c, 1, 61, 0
2, 100160, Note_off_c, 1, 64, 0
2, 100160, Note_on_c, 1, 66, 127
2, 100160, Note_on_c, 1, 69, 127
2, 100160, Note_off_c, 1, 70, 0
2, 100160, Note_off_c, 1, 73, 0
2, 100160, Note_off_c, 1, 82, 0
2, 100160, Note_off_c, 1, 85, 0
2, 100200, Note_off_c, 1, 42, 0
2, 100200, Note_on_c, 1, 52, 127
2, 100200, Note_off_c, 1, 57, 0
2, 100200, Note_on_c, 1, 63, 127
2, 100200, Note_off_c, 1, 66, 0
2, 100200, Note_off_c, 1, 69, 0
2, 100200, Note_on_c, 1, 70, 127
2, 100240, Note_on_c, 1, 48, 127
2, 100240, Note_off_c, 1, 52, 0
2, 100240, Note_off_c, 1, 70, 0
2, 100240, Note_on_c, 1, 77, 127
2, 100280, Note_on_c, 1, 43, 127
2, 100280, Note_off_c, 1, 48, 0
2, 100280, Note_on_c, 1, 49, 127
2, 100280, Note_on_c, 1, 51, 127
2, 100280, Note_on_c, 1, 58, 127
2, 100280, Note_off_c, 1, 63, 0
2, 100280, Note_off_c, 1, 77, 0
2, 100280, Note_on_c, 1, 79, 127
2, 100280, Note_on_c, 1, 87, 127
2, 100280, Note_on_c, 1, 94, 127
2, 100320, Note_off_c, 1, 43, 0
2, 100320, Note_off_c, 1, 49, 0
2, 100320, Note_off_c, 1, 51, 0
2, 100320, Note_on_c, 1, 54, 127
2, 100320, Note_off_c, 1, 58, 0
2, 100320, Note_on_c, 1, 61, 127
2, 100320, Note_on_c, 1, 64, 127
2, 100320, Note_on_c, 1, 70, 127
2, 100320, Note_on_c, 1, 73, 127
2, 100320, Note_on_c, 1, 78, 127
2, 100320, Note_off_c, 1, 79, 0
2, 100320, Note_on_c, 1, 82, 127
2, 100320, Note_off_c, 1, 87, 0
2, 100320, Note_off_c, 1, 94, 0
2, 100360, Note_off_c, 1, 54, 0
2, 100360, Note_on_c, 1, 57, 127
2, 100360, Note_off_c, 1, 61, 0
2, 100360, Note_off_c, 1, 64, 0
2, 100360, Note_off_c, 1, 70, 0
2, 100360, Note_on_c, 1, 71, 127
2, 100360, Note_on_c, 1, 72, 127
2, 100360, Note_off_c, 1, 73, 0
2, 100360, Note_off_c, 1, 78, 0
2, 100360, Note_off_c, 1, 82, 0
2, 100360, Note_on_c, 1, 84, 127
2, 100400, Note_on_c, 1, 46, 127
2, 100400, Note_on_c, 1, 54, 127
2, 100400, Note_off_c, 1, 57, 0
2, 100400, Note_off_c, 1, 71, 0
2, 100400, Note_off_c, 1, 72, 0
2, 100400, Note_on_c, 1, 73, 127
2, 100400, Note_on_c, 1, 76, 127
2, 100400, Note_off_c, 1, 84, 0
2, 100440, Note_on_c, 1, 44, 127
2, 100440, Note_off_c, 1, 46, 0
2, 100440, Note_on_c, 1, 48, 127
2, 100440, Note_on_c, 1, 51, 127
2, 100440, Note_off_c, 1, 54, 0
2, 100440, Note_on_c, 1, 56, 127
2, 100440, Note_off_c, 1, 73, 0
2, 100440, Note_off_c, 1, 76, 0
2, 100440, Note_on_c, 1, 78, 127
2, 100440, Note_on_c, 1, 80, 127
2, 100480, Note_off_c, 1, 44, 0
2, 100480, Note_off_c, 1, 48, 0
2, 100480, Note_on_c, 1, 54, 127
2, 100480, Note_off_c, 1, 56, 0
2, 100480, Note_on_c, 1, 57, 127
2, 100480, Note_on_c, 1, 60, 127
2, 100480, Note_off_c, 1, 78, 0
2, 100480, Note_off_c, 1, 80, 0
2, 100480, Note_on_c, 1, 84, 127
2, 100520, Note_on_c, 1, 33, 127
2, 100520, Note_on_c, 1, 45, 127
2, 100520, Note_off_c, 1, 51, 0
2, 100520, Note_off_c, 1, 54, 0
2, 100520, Note_off_c, 1, 60, 0
2, 100520, Note_on_c, 1, 69, 127
2, 100520, Note_on_c, 1, 77, 127
2, 100520, Note_off_c, 1, 84, 0
2, 100520, Note_on_c, 1, 86, 127
2, 100520, Note_on_c, 1, 89, 127
2, 100560, Note_off_c, 1, 33, 0
2, 100560, Note_on_c, 1, 43, 127
2, 100560, Note_off_c, 1, 45, 0
2, 100560, Note_on_c, 1, 50, 127
2, 100560, Note_on_c, 1, 53, 127
2, 100560, Note_on_c, 1, 55, 127
2, 100560, Note_off_c, 1, 57, 0
2, 100560, Note_off_c, 1, 69, 0
2, 100560, Note_off_c, 1, 86, 0
2, 100560, Note_off_c, 1, 89, 0
2, 100600, Note_off_c, 1, 43, 0
2, 100600, Note_off_c, 1, 50, 0
2, 100600, Note_off_c, 1, 53, 0
2, 100600, Note_off_c, 1, 55, 0
2, 100600, Note_on_c, 1, 60, 127
2, 100600, Note_on_c, 1, 62, 127
2, 100600, Note_on_c, 1, 66, 127
2, 100600, Note_off_c, 1, 77, 0
2, 100600, Note_on_c, 1, 79, 127
2, 100640, Note_on_c, 1, 57, 127
2, 100640, Note_off_c, 1, 62, 0
2, 100640, Note_on_c, 1, 78, 127
2, 100680, Note_on_c, 1, 55, 127
2, 100680, Note_off_c, 1, 60, 0
2, 100680, Note_off_c, 1, 66, 0
2, 100680, Note_off_c, 1, 78, 0
2, 100680, Note_off_c, 1, 79, 0
2, 100680, Note_on_c, 1, 84, 127
2, 100720, Note_on_c, 1, 48, 127
2, 100720, Note_off_c, 1, 55, 0
2, 100720, Note_off_c, 1, 57, 0
2, 100720, Note_on_c, 1, 63, 127
2, 100720, Note_on_c, 1, 66, 127
2, 100720, Note_on_c, 1, 68, 127
2, 100720, Note_on_c, 1, 75, 127
2, 100720, Note_off_c, 1, 84, 0
2, 100760, Note_on_c, 1, 42, 127
2, 100760, Note_off_c, 1, 48, 0
2, 100760, Note_on_c, 1, 49, 127
2, 100760, Note_on_c, 1, 58, 127
2, 100760, Note_on_c, 1, 61, 127
2, 100760, Note_off_c, 1, 63, 0
2, 100760, Note_off_c, 1, 68, 0
2, 100760, Note_off_c, 1, 75, 0
2, 100760, Note_on_c, 1, 90, 127
2, 100800, Note_off_c, 1, 42, 0
2, 100800, Note_off_c, 1, 49, 0
2, 100800, Note_off_c, 1, 58, 0
2, 100800, Note_off_c, 1, 61, 0
2, 100800, Note_off_c, 1, 66, 0
2, 100800, Note_off_c, 1, 90, 0
2, 100880, Note_on_c, 1, 55, 127
2, 100880, Note_on_c, 1, 76, 127
2, 100880, Note_on_c, 1, 83, 127
2, 100880, Note_on_c, 1, 88, 127
2, 101640, Note_off_c, 1, 55, 0
2, 101640, Note_off_c, 1, 76, 0
2, 101640, Note_off_c, 1, 83, 0
2, 101640, Note_off_c, 1, 88, 0
2, 101680, Note_on_c, 1, 40, 127
2, 101680, Note_on_c, 1, 52, 127
2, 101680, Note_on_c, 1, 56, 127
2, 101680, Note_on_c, 1, 59, 127
2, 101680, Note_on_c, 1, 64, 127
2, 102440, Note_off_c, 1, 40, 0
2, 102440, Note_off_c, 1, 56, 0
2, 102440, Note_off_c, 1, 59, 0
2, 102480, Note_on_c, 1, 45, 127
2, 102480, Note_on_c, 1, 57, 127
2, 102840, Note_off_c, 1, 45, 0
2, 102840, Note_off_c, 1, 57, 0
2, 102880, Note_off_c, 1, 52, 0
2, 102880, Note_off_c, 1, 64, 0
2, 102920, Note_on_c, 1, 33, 127
2, 102920, Note_on_c, 1, 45, 127
2, 102920, Note_on_c, 1, 55, 127
2, 102920, Note_on_c, 1, 67, 127
2, 103280, Note_off_c, 1, 33, 0
2, 103280, Note_off_c, 1, 45, 0
2, 103280, Note_off_c, 1, 55, 0
2, 103280, Note_off_c, 1, 67, 0
2, 103320, Note_on_c, 1, 33, 127
2, 103320, Note_on_c, 1, 45, 127
2, 103320, Note_on_c, 1, 76, 127
2, 103320, Note_on_c, 1, 88, 127
2, 104080, Note_off_c, 1, 33, 0
2, 104080, Note_off_c, 1, 45, 0
2, 104080, Note_off_c, 1, 76, 0
2, 104080, Note_off_c, 1, 88, 0
2, 104120, Note_on_c, 1, 51, 127
2, 104120, Note_on_c, 1, 63, 127
2, 104120, Note_on_c, 1, 69, 127
2, 104120, Note_on_c, 1, 81, 127
2, 104480, Note_off_c, 1, 51, 0
2, 104480, Note_on_c, 1, 52, 127
2, 104480, Note_off_c, 1, 63, 0
2, 104480, Note_on_c, 1, 64, 127
2, 104480, Note_on_c, 1, 68, 127
2, 104480, Note_off_c, 1, 69, 0
2, 104480, Note_on_c, 1, 80, 127
2, 104480, Note_off_c, 1, 81, 0
2, 105280, Note_off_c, 1, 52, 0
2, 105280, Note_off_c, 1, 64, 0
2, 105280, Note_off_c, 1, 68, 0
2, 105280, Note_off_c, 1, 80, 0
2, 105360, Note_on_c, 1, 51, 127
2, 105360, Note_on_c, 1, 54, 127
2, 105360, Note_on_c, 1, 57, 127
2, 105360, Note_on_c, 1, 60, 127
2, 105360, Note_on_c, 1, 62, 127
2, 105720, Note_on_c, 1, 37, 127
2, 105720, Note_on_c, 1, 42, 127
2, 105720, Note_off_c, 1, 51, 0
2, 105720, Note_on_c, 1, 52, 127
2, 105720, Note_off_c, 1, 54, 0
2, 105720, Note_off_c, 1, 57, 0
2, 105720, Note_off_c, 1, 60, 0
2, 105720, Note_off_c, 1, 62, 0
2, 105760, Note_off_c, 1, 37, 0
2, 105760, Note_on_c, 1, 40, 127
2, 105760, Note_off_c, 1, 42, 0
2, 105760, Note_off_c, 1, 52, 0
2, 105760, Note_on_c, 1, 54, 127
2, 105760, Note_on_c, 1, 64, 127
2, 105760, Note_on_c, 1, 69, 127
2, 105800, Note_off_c, 1, 40, 0
2, 105800, Note_on_c, 1, 58, 127
2, 105800, Note_off_c, 1, 64, 0
2, 105800, Note_off_c, 1, 69, 0
2, 105800, Note_on_c, 1, 70, 127
2, 105800, Note_on_c, 1, 76, 127
2, 105840, Note_on_c, 1, 53, 127
2, 105840, Note_off_c, 1, 54, 0
2, 105840, Note_on_c, 1, 60, 127
2, 105840, Note_off_c, 1, 70, 0
2, 105840, Note_off_c, 1, 76, 0
2, 105840, Note_on_c, 1, 96, 127
2, 105880, Note_on_c, 1, 46, 127
2, 105880, Note_off_c, 1, 53, 0
2, 105880, Note_off_c, 1, 58, 0
2, 105880, Note_off_c, 1, 60, 0
2, 105880, Note_on_c, 1, 86, 127
2, 105880, Note_on_c, 1, 91, 127
2, 105880, Note_off_c, 1, 96, 0
2, 105920, Note_on_c, 1, 45, 127
2, 105920, Note_off_c, 1, 46, 0
2, 105920, Note_on_c, 1, 47, 127
2, 105920, Note_on_c, 1, 57, 127
2, 105920, Note_on_c, 1, 63, 127
2, 105920, Note_on_c, 1, 66, 127
2, 105920, Note_on_c, 1, 71, 127
2, 105920, Note_on_c, 1, 75, 127
2, 105920, Note_off_c, 1, 86, 0
2, 105920, Note_off_c, 1, 91, 0
2, 105960, Note_off_c, 1, 47, 0
2, 105960, Note_on_c, 1, 53, 127
2, 105960, Note_off_c, 1, 63, 0
2, 105960, Note_on_c, 1, 64, 127
2, 105960, Note_off_c, 1, 66, 0
2, 105960, Note_off_c, 1, 71, 0
2, 105960, Note_off_c, 1, 75, 0
2, 106000, Note_off_c, 1, 45, 0
2, 106000, Note_on_c, 1, 51, 127
2, 106000, Note_off_c, 1, 53, 0
2, 106000, Note_off_c, 1, 57, 0
2, 106000, Note_off_c, 1, 64, 0
2, 106000, Note_on_c, 1, 74, 127
2, 106000, Note_on_c, 1, 87, 127
2, 106040, Note_off_c, 1, 51, 0
2, 106040, Note_on_c, 1, 67, 127
2, 106040, Note_off_c, 1, 74, 0
2, 106040, Note_on_c, 1, 78, 127
2, 106040, Note_on_c, 1, 82, 127
2, 106040, Note_on_c, 1, 85, 127
2, 106040, Note_off_c, 1, 87, 0
2, 106040, Note_on_c, 1, 90, 127
2, 106080, Note_on_c, 1, 47, 127
2, 106080, Note_on_c, 1, 57, 127
2, 106080, Note_off_c, 1, 67, 0
2, 106080, Note_off_c, 1, 78, 0
2, 106080, Note_off_c, 1, 82, 0
2, 106080, Note_off_c, 1, 85, 0
2, 106080, Note_on_c, 1, 87, 127
2, 106080, Note_off_c, 1, 90, 0
2, 106120, Note_on_c, 1, 45, 127
2, 106120, Note_off_c, 1, 47, 0
2, 106120, Note_on_c, 1, 52, 127
2, 106120, Note_off_c, 1, 87, 0
2, 106160, Note_on_c, 1, 39, 127
2, 106160, Note_on_c, 1, 42, 127
2, 106160, Note_on_c, 1, 48, 127
2, 106160, Note_off_c, 1, 52, 0
2, 106160, Note_off_c, 1, 57, 0
2, 106160, Note_on_c, 1, 78, 127
2, 106160, Note_on_c, 1, 90, 127
2, 106200, Note_on_c, 1, 31, 127
2, 106200, Note_off_c, 1, 39, 0
2, 106200, Note_off_c, 1, 42, 0
2, 106200, Note_on_c, 1, 43, 127
2, 106200, Note_off_c, 1, 45, 0
2, 106200, Note_off_c, 1, 48, 0
2, 106200, Note_on_c, 1, 61, 127
2, 106200, Note_on_c, 1, 64, 127
2, 106200, Note_on_c, 1, 70, 127
2, 106200, Note_off_c, 1, 78, 0
2, 106200, Note_off_c, 1, 90, 0
2, 106240, Note_off_c, 1, 31, 0
2, 106240, Note_off_c, 1, 43, 0
2, 106240, Note_off_c, 1, 64, 0
2, 106240, Note_on_c, 1, 65, 127
2, 106240, Note_on_c, 1, 68, 127
2, 106240, Note_off_c, 1, 70, 0
2, 106240, Note_on_c, 1, 80, 127
2, 106240, Note_on_c, 1, 85, 127
2, 106240, Note_on_c, 1, 92, 127
2, 106280, Note_on_c, 1, 50, 127
2, 106280, Note_off_c, 1, 61, 0
2, 106280, Note_off_c, 1, 65, 0
2, 106280, Note_off_c, 1, 68, 0
2, 106280, Note_on_c, 1, 71, 127
2, 106280, Note_on_c, 1, 78, 127
2, 106280, Note_off_c, 1, 80, 0
2, 106280, Note_on_c, 1, 83, 127
2, 106280, Note_off_c, 1, 85, 0
2, 106280, Note_off_c, 1, 92, 0
2, 106320, Note_on_c, 1, 39, 127
2, 106320, Note_on_c, 1, 42, 127
2, 106320, Note_on_c, 1, 45, 127
2, 106320, Note_on_c, 1, 48, 127
2, 106320, Note_off_c, 1, 50, 0
2, 106320, Note_off_c, 1, 71, 0
2, 106320, Note_off_c, 1, 83, 0
2, 106320, Note_on_c, 1, 90, 127
2, 106360, Note_off_c, 1, 39, 0
2, 106360, Note_off_c, 1, 42, 0
2, 106360, Note_off_c, 1, 45, 0
2, 106360, Note_off_c, 1, 48, 0
2, 106360, Note_on_c, 1, 76, 127
2, 106360, Note_off_c, 1, 78, 0
2, 106360, Note_on_c, 1, 82, 127
2, 106360, Note_on_c, 1, 88, 127
2, 106360, Note_off_c, 1, 90, 0
2, 106360, Note_on_c, 1, 94, 127
2, 106400, Note_on_c, 1, 41, 127
2, 106400, Note_on_c, 1, 53, 127
2, 106400, Note_off_c, 1, 76, 0
2, 106400, Note_on_c, 1, 77, 127
2, 106400, Note_on_c, 1, 81, 127
2, 106400, Note_off_c, 1, 82, 0
2, 106400, Note_on_c, 1, 86, 127
2, 106400, Note_off_c, 1, 88, 0
2, 106400, Note_on_c, 1, 89, 127
2, 106400, Note_off_c, 1, 94, 0
2, 106440, Note_off_c, 1, 41, 0
2, 106440, Note_off_c, 1, 53, 0
2, 106440, Note_on_c, 1, 57, 127
2, 106440, Note_on_c, 1, 62, 127
2, 106440, Note_on_c, 1, 65, 127
2, 106440, Note_on_c, 1, 69, 127
2, 106480, Note_off_c, 1, 57, 0
2, 106480, Note_on_c, 1, 58, 127
2, 106480, Note_off_c, 1, 62, 0
2, 106480, Note_on_c, 1, 63, 127
2, 106480, Note_off_c, 1, 65, 0
2, 106480, Note_on_c, 1, 66, 127
2, 106480, Note_off_c, 1, 69, 0
2, 106480, Note_on_c, 1, 70, 127
2, 106480, Note_off_c, 1, 77, 0
2, 106480, Note_off_c, 1, 81, 0
2, 106480, Note_off_c, 1, 86, 0
2, 106480, Note_on_c, 1, 87, 127
2, 106480, Note_off_c, 1, 89, 0
2, 106520, Note_off_c, 1, 58, 0
2, 106520, Note_off_c, 1, 63, 0
2, 106520, Note_off_c, 1, 66, 0
2, 106520, Note_off_c, 1, 70, 0
2, 106520, Note_on_c, 1, 78, 127
2, 106520, Note_off_c, 1, 87, 0
2, 106520, Note_on_c, 1, 90, 127
2, 106560, Note_on_c, 1, 38, 127
2, 106560, Note_on_c, 1, 50, 127
2, 106560, Note_on_c, 1, 76, 127
2, 106560, Note_off_c, 1, 78, 0
2, 106560, Note_on_c, 1, 88, 127
2, 106560, Note_off_c, 1, 90, 0
2, 106800, Note_off_c, 1, 38, 0
2, 106800, Note_off_c, 1, 50, 0
2, 106840, Note_on_c, 1, 35, 127
2, 106840, Note_on_c, 1, 47, 127
2, 107320, Note_off_c, 1, 76, 0
2, 107320, Note_off_c, 1, 88, 0
2, 107360, Note_off_c, 1, 35, 0
2, 107360, Note_off_c, 1, 47, 0
2, 107400, Note_on_c, 1, 35, 127
2, 107400, Note_on_c, 1, 47, 127
2, 107400, Note_on_c, 1, 76, 127
2, 107400, Note_on_c, 1, 88, 127
2, 108160, Note_off_c, 1, 35, 0
2, 108160, Note_off_c, 1, 47, 0
2, 108160, Note_off_c, 1, 76, 0
2, 108160, Note_off_c, 1, 88, 0
2, 108200, Note_on_c, 1, 40, 127
2, 108200, Note_on_c, 1, 52, 127
2, 108200, Note_on_c, 1, 68, 127
2, 108200, Note_on_c, 1, 71, 127
2, 108200, Note_on_c, 1, 76, 127
2, 108200, Note_on_c, 1, 80, 127
2, 108560, Note_off_c, 1, 68, 0
2, 108560, Note_off_c, 1, 71, 0
2, 108560, Note_off_c, 1, 76, 0
2, 108560, Note_off_c, 1, 80, 0
2, 108600, Note_on_c, 1, 71, 127
2, 108600, Note_on_c, 1, 76, 127
2, 108600, Note_on_c, 1, 80, 127
2, 108600, Note_on_c, 1, 83, 127
2, 108960, Note_off_c, 1, 71, 0
2, 108960, Note_off_c, 1, 76, 0
2, 108960, Note_off_c, 1, 80, 0
2, 108960, Note_off_c, 1, 83, 0
2, 109000, Note_on_c, 1, 71, 127
2, 109000, Note_on_c, 1, 76, 127
2, 109000, Note_on_c, 1, 80, 127
2, 109000, Note_on_c, 1, 83, 127
2, 109280, Note_off_c, 1, 40, 0
2, 109280, Note_off_c, 1, 52, 0
2, 109280, Note_off_c, 1, 71, 0
2, 109280, Note_off_c, 1, 76, 0
2, 109280, Note_off_c, 1, 80, 0
2, 109280, Note_off_c, 1, 83, 0
2, 109320, Note_on_c, 1, 40, 127
2, 109320, Note_on_c, 1, 52, 127
2, 109320, Note_on_c, 1, 71, 127
2, 109320, Note_on_c, 1, 76, 127
2, 109320, Note_on_c, 1, 80, 127
2, 109320, Note_on_c, 1, 83, 127
2, 109400, Note_off_c, 1, 40, 0
2, 109400, Note_off_c, 1, 52, 0
2, 109400, Note_off_c, 1, 71, 0
2, 109400, Note_off_c, 1, 76, 0
2, 109400, Note_off_c, 1, 80, 0
2, 109400, Note_off_c, 1, 83, 0
2, 109440, Note_on_c, 1, 42, 127
2, 109440, Note_on_c, 1, 54, 127
2, 109440, Note_on_c, 1, 71, 127
2, 109440, Note_on_c, 1, 76, 127
2, 109440, Note_on_c, 1, 80, 127
2, 109440, Note_on_c, 1, 83, 127
2, 109800, Note_off_c, 1, 42, 0
2, 109800, Note_off_c, 1, 54, 0
2, 109800, Note_off_c, 1, 71, 0
2, 109800, Note_off_c, 1, 76, 0
2, 109800, Note_off_c, 1, 80, 0
2, 109800, Note_off_c, 1, 83, 0
2, 109840, Note_on_c, 1, 60, 127
2, 109840, Note_on_c, 1, 74, 127
2, 109840, Note_on_c, 1, 78, 127
2, 109840, Note_on_c, 1, 81, 127
2, 109840, Note_on_c, 1, 86, 127
2, 109880, Note_on_c, 1, 59, 127
2, 109880, Note_off_c, 1, 60, 0
2, 109880, Note_on_c, 1, 68, 127
2, 109880, Note_on_c, 1, 71, 127
2, 109880, Note_off_c, 1, 74, 0
2, 109880, Note_off_c, 1, 78, 0
2, 109880, Note_off_c, 1, 81, 0
2, 109880, Note_off_c, 1, 86, 0
2, 109880, Note_on_c, 1, 95, 127
2, 110000, Note_on_c, 1, 50, 127
2, 110000, Note_on_c, 1, 62, 127
2, 110000, Note_off_c, 1, 68, 0
2, 110000, Note_off_c, 1, 71, 0
2, 110000, Note_on_c, 1, 83, 127
2, 110040, Note_off_c, 1, 50, 0
2, 110040, Note_on_c, 1, 55, 127
2, 110040, Note_off_c, 1, 59, 0
2, 110040, Note_off_c, 1, 62, 0
2, 110040, Note_on_c, 1, 75, 127
2, 110040, Note_on_c, 1, 79, 127
2, 110040, Note_on_c, 1, 82, 127
2, 110040, Note_off_c, 1, 83, 0
2, 110040, Note_on_c, 1, 87, 127
2, 110040, Note_off_c, 1, 95, 0
2, 110080, Note_off_c, 1, 55, 0
2, 110080, Note_off_c, 1, 79, 0
2, 110080, Note_off_c, 1, 82, 0
2, 110080, Note_off_c, 1, 87, 0
2, 110080, Note_on_c, 1, 90, 127
2, 110080, Note_on_c, 1, 93, 127
2, 110120, Note_on_c, 1, 42, 127
2, 110120, Note_on_c, 1, 54, 127
2, 110120, Note_on_c, 1, 81, 127
2, 110120, Note_on_c, 1, 84, 127
2, 110120, Note_on_c, 1, 87, 127
2, 110120, Note_off_c, 1, 90, 0
2, 110120, Note_off_c, 1, 93, 0
2, 110160, Note_off_c, 1, 42, 0
2, 110160, Note_off_c, 1, 54, 0
2, 110160, Note_on_c, 1, 71, 127
2, 110160, Note_off_c, 1, 75, 0
2, 110160, Note_off_c, 1, 81, 0
2, 110160, Note_off_c, 1, 84, 0
2, 110160, Note_on_c, 1, 86, 127
2, 110160, Note_off_c, 1, 87, 0
2, 110160, Note_on_c, 1, 100, 127
2, 110200, Note_on_c, 1, 33, 127
2, 110200, Note_on_c, 1, 37, 127
2, 110200, Note_on_c, 1, 40, 127
2, 110200, Note_on_c, 1, 45, 127
2, 110200, Note_on_c, 1, 49, 127
2, 110200, Note_on_c, 1, 52, 127
2, 110200, Note_on_c, 1, 57, 127
2, 110200, Note_off_c, 1, 71, 0
2, 110200, Note_off_c, 1, 86, 0
2, 110200, Note_off_c, 1, 100, 0
2, 110240, Note_off_c, 1, 33, 0
2, 110240, Note_off_c, 1, 37, 0
2, 110240, Note_off_c, 1, 40, 0
2, 110240, Note_off_c, 1, 45, 0
2, 110240, Note_off_c, 1, 49, 0
2, 110240, Note_off_c, 1, 52, 0
2, 110240, Note_off_c, 1, 57, 0
2, 110240, Note_on_c, 1, 62, 127
2, 110240, Note_on_c, 1, 66, 127
2, 110240, Note_on_c, 1, 68, 127
2, 110240, Note_on_c, 1, 71, 127
2, 110240, Note_on_c, 1, 78, 127
2, 110240, Note_on_c, 1, 80, 127
2, 110640, Note_on_c, 1, 31, 127
2, 110640, Note_on_c, 1, 37, 127
2, 110640, Note_on_c, 1, 43, 127
2, 110640, Note_off_c, 1, 62, 0
2, 110640, Note_off_c, 1, 66, 0
2, 110640, Note_off_c, 1, 68, 0
2, 110640, Note_off_c, 1, 71, 0
2, 110640, Note_off_c, 1, 78, 0
2, 110640, Note_off_c, 1, 80, 0
2, 110640, Note_on_c, 1, 85, 127
2, 110680, Note_off_c, 1, 31, 0
2, 110680, Note_off_c, 1, 37, 0
2, 110680, Note_off_c, 1, 43, 0
2, 110680, Note_on_c, 1, 52, 127
2, 110680, Note_on_c, 1, 56, 127
2, 110680, Note_on_c, 1, 62, 127
2, 110680, Note_on_c, 1, 69, 127
2, 110680, Note_off_c, 1, 85, 0
2, 110720, Note_off_c, 1, 52, 0
2, 110720, Note_off_c, 1, 56, 0
2, 110720, Note_off_c, 1, 62, 0
2, 110720, Note_on_c, 1, 63, 127
2, 110720, Note_off_c, 1, 69, 0
2, 110720, Note_on_c, 1, 70, 127
2, 110720, Note_on_c, 1, 84, 127
2, 110720, Note_on_c, 1, 87, 127
2, 110760, Note_on_c, 1, 38, 127
2, 110760, Note_on_c, 1, 50, 127
2, 110760, Note_on_c, 1, 57, 127
2, 110760, Note_off_c, 1, 63, 0
2, 110760, Note_off_c, 1, 70, 0
2, 110760, Note_off_c, 1, 84, 0
2, 110760, Note_on_c, 1, 86, 127
2, 110760, Note_off_c, 1, 87, 0
2, 110760, Note_on_c, 1, 98, 127
2, 110800, Note_off_c, 1, 38, 0
2, 110800, Note_on_c, 1, 42, 127
2, 110800, Note_off_c, 1, 50, 0
2, 110800, Note_on_c, 1, 54, 127
2, 110800, Note_off_c, 1, 57, 0
2, 110800, Note_on_c, 1, 64, 127
2, 110800, Note_on_c, 1, 66, 127
2, 110800, Note_on_c, 1, 70, 127
2, 110800, Note_on_c, 1, 78, 127
2, 110800, Note_off_c, 1, 86, 0
2, 110800, Note_off_c, 1, 98, 0
2, 110840, Note_off_c, 1, 42, 0
2, 110840, Note_on_c, 1, 57, 127
2, 110840, Note_on_c, 1, 62, 127
2, 110840, Note_off_c, 1, 64, 0
2, 110840, Note_off_c, 1, 66, 0
2, 110840, Note_off_c, 1, 70, 0
2, 110840, Note_off_c, 1, 78, 0
2, 110840, Note_on_c, 1, 83, 127
2, 110880, Note_on_c, 1, 44, 127
2, 110880, Note_off_c, 1, 54, 0
2, 110880, Note_on_c, 1, 56, 127
2, 110880, Note_off_c, 1, 57, 0
2, 110880, Note_off_c, 1, 62, 0
2, 110880, Note_on_c, 1, 71, 127
2, 110880, Note_on_c, 1, 75, 127
2, 110880, Note_on_c, 1, 81, 127
2, 110920, Note_off_c, 1, 44, 0
2, 110920, Note_on_c, 1, 54, 127
2, 110920, Note_off_c, 1, 56, 0
2, 110920, Note_on_c, 1, 57, 127
2, 110920, Note_on_c, 1, 62, 127
2, 110920, Note_off_c, 1, 71, 0
2, 110920, Note_off_c, 1, 75, 0
2, 110920, Note_off_c, 1, 81, 0
2, 111000, Note_on_c, 1, 56, 127
2, 111000, Note_off_c, 1, 57, 0
2, 111000, Note_off_c, 1, 62, 0
2, 111000, Note_on_c, 1, 63, 127
2, 111000, Note_on_c, 1, 72, 127
2, 111000, Note_off_c, 1, 83, 0
2, 111040, Note_on_c, 1, 36, 127
2, 111040, Note_on_c, 1, 43, 127
2, 111040, Note_on_c, 1, 48, 127
2, 111040, Note_off_c, 1, 54, 0
2, 111040, Note_off_c, 1, 56, 0
2, 111040, Note_on_c, 1, 70, 127
2, 111040, Note_off_c, 1, 72, 0
2, 111040, Note_on_c, 1, 75, 127
2, 111400, Note_off_c, 1, 36, 0
2, 111400, Note_off_c, 1, 43, 0
2, 111400, Note_off_c, 1, 48, 0
2, 111400, Note_off_c, 1, 63, 0
2, 111400, Note_off_c, 1, 70, 0
2, 111400, Note_off_c, 1, 75, 0
2, 111440, Note_on_c, 1, 36, 127
2, 111440, Note_on_c, 1, 43, 127
2, 111440, Note_on_c, 1, 48, 127
2, 111440, Note_on_c, 1, 63, 127
2, 111440, Note_on_c, 1, 70, 127
2, 111440, Note_on_c, 1, 75, 127
2, 111480, Note_off_c, 1, 36, 0
2, 111480, Note_on_c, 1, 40, 127
2, 111480, Note_off_c, 1, 43, 0
2, 111480, Note_off_c, 1, 48, 0
2, 111480, Note_on_c, 1, 57, 127
2, 111480, Note_on_c, 1, 62, 127
2, 111480, Note_off_c, 1, 63, 0
2, 111480, Note_on_c, 1, 66, 127
2, 111480, Note_off_c, 1, 70, 0
2, 111480, Note_on_c, 1, 73, 127
2, 111480, Note_off_c, 1, 75, 0
2, 111520, Note_off_c, 1, 40, 0
2, 111520, Note_off_c, 1, 57, 0
2, 111520, Note_off_c, 1, 62, 0
2, 111520, Note_off_c, 1, 66, 0
2, 111520, Note_off_c, 1, 73, 0
2, 111560, Note_on_c, 1, 75, 127
2, 111560, Note_on_c, 1, 80, 127
2, 111560, Note_on_c, 1, 95, 127
2, 111600, Note_on_c, 1, 65, 127
2, 111600, Note_on_c, 1, 73, 127
2, 111600, Note_off_c, 1, 75, 0
2, 111600, Note_off_c, 1, 80, 0
2, 111600, Note_on_c, 1, 87, 127
2, 111600, Note_off_c, 1, 95, 0
2, 111640, Note_off_c, 1, 65, 0
2, 111640, Note_off_c, 1, 73, 0
2, 111640, Note_on_c, 1, 75, 127
2, 111640, Note_on_c, 1, 80, 127
2, 111640, Note_on_c, 1, 83, 127
2, 111640, Note_off_c, 1, 87, 0
2, 111680, Note_on_c, 1, 56, 127
2, 111680, Note_off_c, 1, 75, 0
2, 111680, Note_off_c, 1, 80, 0
2, 111680, Note_off_c, 1, 83, 0
2, 111680, Note_on_c, 1, 98, 127
2, 111680, Note_on_c, 1, 100, 127
2, 111720, Note_off_c, 1, 56, 0
2, 111720, Note_on_c, 1, 75, 127
2, 111720, Note_on_c, 1, 80, 127
2, 111720, Note_on_c, 1, 83, 127
2, 111720, Note_off_c, 1, 98, 0
2, 111720, Note_off_c, 1, 100, 0
2, 111760, Note_on_c, 1, 47, 127
2, 111760, Note_on_c, 1, 59, 127
2, 111760, Note_on_c, 1, 71, 127
2, 111760, Note_off_c, 1, 75, 0
2, 111760, Note_on_c, 1, 76, 127
2, 111760, Note_off_c, 1, 80, 0
2, 111800, Note_off_c, 1, 47, 0
2, 111800, Note_off_c, 1, 59, 0
2, 111800, Note_off_c, 1, 71, 0
2, 111800, Note_on_c, 1, 75, 127
2, 111800, Note_off_c, 1, 76, 0
2, 111800, Note_on_c, 1, 80, 127
2, 111800, Note_on_c, 1, 87, 127
2, 111840, Note_on_c, 1, 31, 127
2, 111840, Note_on_c, 1, 39, 127
2, 111840, Note_on_c, 1, 43, 127
2, 111840, Note_on_c, 1, 63, 127
2, 111840, Note_off_c, 1, 75, 0
2, 111840, Note_off_c, 1, 80, 0
2, 111840, Note_off_c, 1, 83, 0
2, 111840, Note_off_c, 1, 87, 0
2, 111960, Note_off_c, 1, 31, 0
2, 111960, Note_off_c, 1, 39, 0
2, 111960, Note_off_c, 1, 43, 0
2, 111960, Note_on_c, 1, 61, 127
2, 111960, Note_off_c, 1, 63, 0
2, 111960, Note_on_c, 1, 70, 127
2, 111960, Note_on_c, 1, 75, 127
2, 111960, Note_on_c, 1, 79, 127
2, 112000, Note_on_c, 1, 51, 127
2, 112000, Note_on_c, 1, 54, 127
2, 112000, Note_on_c, 1, 58, 127
2, 112000, Note_off_c, 1, 61, 0
2, 112000, Note_on_c, 1, 66, 127
2, 112000, Note_off_c, 1, 70, 0
2, 112000, Note_off_c, 1, 75, 0
2, 112000, Note_on_c, 1, 78, 127
2, 112000, Note_off_c, 1, 79, 0
2, 112040, Note_off_c, 1, 51, 0
2, 112040, Note_off_c, 1, 54, 0
2, 112040, Note_on_c, 1, 55, 127
2, 112040, Note_on_c, 1, 62, 127
2, 112040, Note_off_c, 1, 66, 0
2, 112040, Note_off_c, 1, 78, 0
2, 112040, Note_on_c, 1, 79, 127
2, 112040, Note_on_c, 1, 87, 127
2, 112080, Note_on_c, 1, 30, 127
2, 112080, Note_on_c, 1, 35, 127
2, 112080, Note_on_c, 1, 39, 127
2, 112080, Note_on_c, 1, 42, 127
2, 112080, Note_on_c, 1, 47, 127
2, 112080, Note_on_c, 1, 51, 127
2, 112080, Note_off_c, 1, 55, 0
2, 112080, Note_off_c, 1, 58, 0
2, 112080, Note_on_c, 1, 59, 127
2, 112080, Note_off_c, 1, 62, 0
2, 112080, Note_on_c, 1, 70, 127
2, 112080, Note_on_c, 1, 78, 127
2, 112080, Note_off_c, 1, 79, 0
2, 112080, Note_on_c, 1, 82, 127
2, 112080, Note_off_c, 1, 87, 0
2, 112120, Note_off_c, 1, 30, 0
2, 112120, Note_off_c, 1, 35, 0
2, 112120, Note_off_c, 1, 39, 0
2, 112120, Note_off_c, 1, 42, 0
2, 112120, Note_on_c, 1, 44, 127
2, 112120, Note_off_c, 1, 47, 0
2, 112120, Note_off_c, 1, 59, 0
2, 112120, Note_off_c, 1, 70, 0
2, 112120, Note_off_c, 1, 78, 0
2, 112120, Note_off_c, 1, 82, 0
2, 112160, Note_off_c, 1, 44, 0
2, 112160, Note_on_c, 1, 47, 127
2, 112160, Note_off_c, 1, 51, 0
2, 112160, Note_on_c, 1, 59, 127
2, 112160, Note_on_c, 1, 69, 127
2, 112160, Note_on_c, 1, 75, 127
2, 112520, Note_off_c, 1, 69, 0
2, 112520, Note_off_c, 1, 75, 0
2, 112560, Note_on_c, 1, 33, 127
2, 112560, Note_on_c, 1, 45, 127
2, 112560, Note_off_c, 1, 47, 0
2, 112560, Note_off_c, 1, 59, 0
2, 112560, Note_on_c, 1, 63, 127
2, 112560, Note_on_c, 1, 75, 127
2, 112920, Note_off_c, 1, 33, 0
2, 112920, Note_off_c, 1, 45, 0
2, 112960, Note_on_c, 1, 56, 127
2, 112960, Note_on_c, 1, 59, 127
2, 112960, Note_off_c, 1, 63, 0
2, 112960, Note_on_c, 1, 68, 127
2, 113320, Note_off_c, 1, 56, 0
2, 113320, Note_off_c, 1, 59, 0
2, 113320, Note_off_c, 1, 68, 0
2, 113320, Note_off_c, 1, 75, 0
2, 113360, Note_on_c, 1, 49, 127
2, 113360, Note_on_c, 1, 58, 127
2, 113360, Note_on_c, 1, 73, 127
2, 113520, Note_off_c, 1, 49, 0
2, 113520, Note_off_c, 1, 58, 0
2, 113520, Note_off_c, 1, 73, 0
2, 113560, Note_on_c, 1, 49, 127
2, 113560, Note_on_c, 1, 58, 127
2, 113560, Note_on_c, 1, 73, 127
2, 114160, Note_off_c, 1, 58, 0
2, 114160, Note_off_c, 1, 73, 0
2, 114200, Note_on_c, 1, 53, 127
2, 114200, Note_on_c, 1, 72, 127
2, 114560, Note_off_c, 1, 53, 0
2, 114560, Note_off_c, 1, 72, 0
2, 114600, Note_on_c, 1, 53, 127
2, 114600, Note_on_c, 1, 68, 127
2, 114960, Note_off_c, 1, 53, 0
2, 114960, Note_off_c, 1, 68, 0
2, 115000, Note_on_c, 1, 61, 127
2, 115560, Note_off_c, 1, 49, 0
2, 115560, Note_off_c, 1, 61, 0
2, 115600, Note_on_c, 1, 58, 127
2, 115600, Note_on_c, 1, 64, 127
2, 115680, Note_off_c, 1, 58, 0
2, 115680, Note_off_c, 1, 64, 0
2, 115720, Note_on_c, 1, 58, 127
2, 115720, Note_on_c, 1, 64, 127
2, 116200, Note_off_c, 1, 58, 0
2, 116240, Note_on_c, 1, 38, 127
2, 116240, Note_on_c, 1, 46, 127
2, 116240, Note_on_c, 1, 62, 127
2, 116240, Note_off_c, 1, 64, 0
2, 116240, Note_on_c, 1, 74, 127
2, 116280, Note_off_c, 1, 46, 0
2, 116280, Note_off_c, 1, 62, 0
2, 116280, Note_off_c, 1, 74, 0
2, 116400, Note_on_c, 1, 50, 127
2, 116400, Note_on_c, 1, 70, 127
2, 116440, Note_on_c, 1, 55, 127
2, 116440, Note_on_c, 1, 59, 127
2, 116440, Note_on_c, 1, 62, 127
2, 116440, Note_on_c, 1, 67, 127
2, 116440, Note_off_c, 1, 70, 0
2, 116440, Note_on_c, 1, 71, 127
2, 116440, Note_on_c, 1, 74, 127
2, 116440, Note_on_c, 1, 79, 127
2, 116800, Note_off_c, 1, 38, 0
2, 116800, Note_off_c, 1, 50, 0
2, 116800, Note_off_c, 1, 55, 0
2, 116800, Note_off_c, 1, 59, 0
2, 116800, Note_off_c, 1, 62, 0
2, 116800, Note_off_c, 1, 67, 0
2, 116800, Note_off_c, 1, 71, 0
2, 116800, Note_on_c, 1, 72, 127
2, 116800, Note_off_c, 1, 74, 0
2, 116800, Note_on_c, 1, 75, 127
2, 116800, Note_on_c, 1, 78, 127
2, 116800, Note_off_c, 1, 79, 0
2, 116800, Note_on_c, 1, 81, 127
2, 116800, Note_on_c, 1, 84, 127
2, 116840, Note_on_c, 1, 54, 127
2, 116840, Note_on_c, 1, 59, 127
2, 116840, Note_on_c, 1, 62, 127
2, 116840, Note_on_c, 1, 65, 127
2, 116840, Note_off_c, 1, 72, 0
2, 116840, Note_off_c, 1, 75, 0
2, 116840, Note_off_c, 1, 78, 0
2, 116840, Note_off_c, 1, 81, 0
2, 116840, Note_off_c, 1, 84, 0
2, 116840, Note_on_c, 1, 92, 127
2, 116840, Note_on_c, 1, 94, 127
2, 116880, Note_on_c, 1, 32, 127
2, 116880, Note_on_c, 1, 52, 127
2, 116880, Note_off_c, 1, 54, 0
2, 116880, Note_on_c, 1, 56, 127
2, 116880, Note_off_c, 1, 59, 0
2, 116880, Note_on_c, 1, 61, 127
2, 116880, Note_off_c, 1, 62, 0
2, 116880, Note_on_c, 1, 64, 127
2, 116880, Note_off_c, 1, 65, 0
2, 116880, Note_on_c, 1, 68, 127
2, 116880, Note_off_c, 1, 92, 0
2, 116880, Note_off_c, 1, 94, 0
2, 116920, Note_off_c, 1, 32, 0
2, 116920, Note_on_c, 1, 44, 127
2, 116920, Note_on_c, 1, 47, 127
2, 116920, Note_off_c, 1, 52, 0
2, 116920, Note_off_c, 1, 56, 0
2, 116920, Note_off_c, 1, 61, 0
2, 116920, Note_on_c, 1, 62, 127
2, 116920, Note_off_c, 1, 64, 0
2, 116960, Note_off_c, 1, 44, 0
2, 116960, Note_off_c, 1, 47, 0
2, 116960, Note_on_c, 1, 55, 127
2, 116960, Note_on_c, 1, 57, 127
2, 116960, Note_on_c, 1, 60, 127
2, 116960, Note_off_c, 1, 68, 0
2, 116960, Note_on_c, 1, 79, 127
2, 117000, Note_on_c, 1, 32, 127
2, 117000, Note_on_c, 1, 38, 127
2, 117000, Note_on_c, 1, 41, 127
2, 117000, Note_on_c, 1, 44, 127
2, 117000, Note_on_c, 1, 51, 127
2, 117000, Note_on_c, 1, 53, 127
2, 117000, Note_off_c, 1, 55, 0
2, 117000, Note_off_c, 1, 57, 0
2, 117000, Note_off_c, 1, 60, 0
2, 117000, Note_off_c, 1, 62, 0
2, 117000, Note_off_c, 1, 79, 0
2, 117040, Note_off_c, 1, 32, 0
2, 117040, Note_off_c, 1, 38, 0
2, 117040, Note_off_c, 1, 41, 0
2, 117040, Note_off_c, 1, 44, 0
2, 117040, Note_off_c, 1, 51, 0
2, 117040, Note_off_c, 1, 53, 0
2, 117040, Note_on_c, 1, 59, 127
2, 117040, Note_on_c, 1, 63, 127
2, 117040, Note_on_c, 1, 66, 127
2, 117040, Note_on_c, 1, 78, 127
2, 117040, Note_on_c, 1, 81, 127
2, 117080, Note_on_c, 1, 43, 127
2, 117080, Note_off_c, 1, 59, 0
2, 117080, Note_off_c, 1, 63, 0
2, 117080, Note_off_c, 1, 66, 0
2, 117080, Note_on_c, 1, 70, 127
2, 117080, Note_on_c, 1, 73, 127
2, 117080, Note_on_c, 1, 76, 127
2, 117080, Note_off_c, 1, 78, 0
2, 117080, Note_off_c, 1, 81, 0
2, 117080, Note_on_c, 1, 82, 127
2, 117120, Note_off_c, 1, 43, 0
2, 117120, Note_on_c, 1, 50, 127
2, 117120, Note_on_c, 1, 54, 127
2, 117120, Note_on_c, 1, 63, 127
2, 117120, Note_on_c, 1, 66, 127
2, 117120, Note_off_c, 1, 73, 0
2, 117120, Note_off_c, 1, 76, 0
2, 117120, Note_off_c, 1, 82, 0
2, 117160, Note_off_c, 1, 50, 0
2, 117160, Note_off_c, 1, 54, 0
2, 117160, Note_on_c, 1, 55, 127
2, 117160, Note_off_c, 1, 63, 0
2, 117160, Note_off_c, 1, 66, 0
2, 117160, Note_on_c, 1, 69, 127
2, 117160, Note_off_c, 1, 70, 0
2, 117160, Note_on_c, 1, 75, 127
2, 117160, Note_on_c, 1, 77, 127
2, 117160, Note_on_c, 1, 81, 127
2, 117200, Note_on_c, 1, 43, 127
2, 117200, Note_off_c, 1, 55, 0
2, 117200, Note_off_c, 1, 69, 0
2, 117200, Note_off_c, 1, 75, 0
2, 117200, Note_off_c, 1, 77, 0
2, 117200, Note_off_c, 1, 81, 0
2, 117240, Note_on_c, 1, 32, 127
2, 117240, Note_off_c, 1, 43, 0
2, 117240, Note_on_c, 1, 52, 127
2, 117240, Note_on_c, 1, 55, 127
2, 117240, Note_on_c, 1, 58, 127
2, 117600, Note_off_c, 1, 32, 0
2, 117600, Note_on_c, 1, 47, 127
2, 117600, Note_off_c, 1, 52, 0
2, 117600, Note_on_c, 1, 54, 127
2, 117600, Note_off_c, 1, 55, 0
2, 117600, Note_off_c, 1, 58, 0
2, 117600, Note_on_c, 1, 59, 127
2, 117600, Note_on_c, 1, 76, 127
2, 117640, Note_on_c, 1, 41, 127
2, 117640, Note_off_c, 1, 47, 0
2, 117640, Note_on_c, 1, 50, 127
2, 117640, Note_off_c, 1, 54, 0
2, 117640, Note_off_c, 1, 59, 0
2, 117640, Note_on_c, 1, 71, 127
2, 117640, Note_on_c, 1, 74, 127
2, 117640, Note_off_c, 1, 76, 0
2, 117640, Note_on_c, 1, 79, 127
2, 117640, Note_on_c, 1, 83, 127
2, 117680, Note_off_c, 1, 41, 0
2, 117680, Note_off_c, 1, 50, 0
2, 117680, Note_off_c, 1, 71, 0
2, 117680, Note_off_c, 1, 74, 0
2, 117680, Note_off_c, 1, 79, 0
2, 117680, Note_off_c, 1, 83, 0
2, 117720, Note_on_c, 1, 41, 127
2, 117720, Note_on_c, 1, 50, 127
2, 117720, Note_on_c, 1, 71, 127
2, 117720, Note_on_c, 1, 74, 127
2, 117720, Note_on_c, 1, 79, 127
2, 117720, Note_on_c, 1, 83, 127
2, 118040, Note_off_c, 1, 41, 0
2, 118040, Note_off_c, 1, 50, 0
2, 118040, Note_on_c, 1, 67, 127
2, 118040, Note_off_c, 1, 71, 0
2, 118040, Note_off_c, 1, 74, 0
2, 118040, Note_off_c, 1, 79, 0
2, 118040, Note_off_c, 1, 83, 0
2, 118080, Note_on_c, 1, 30, 127
2, 118080, Note_off_c, 1, 67, 0
2, 118440, Note_off_c, 1, 30, 0
2, 118480, Note_on_c, 1, 55, 127
2, 118480, Note_on_c, 1, 57, 127
2, 118480, Note_on_c, 1, 59, 127
2, 118480, Note_on_c, 1, 62, 127
2, 118480, Note_on_c, 1, 69, 127
2, 118520, Note_on_c, 1, 45, 127
2, 118520, Note_on_c, 1, 54, 127
2, 118520, Note_off_c, 1, 55, 0
2, 118520, Note_off_c, 1, 57, 0
2, 118520, Note_off_c, 1, 59, 0
2, 118520, Note_off_c, 1, 62, 0
2, 118520, Note_on_c, 1, 63, 127
2, 118520, Note_off_c, 1, 69, 0
2, 118520, Note_on_c, 1, 75, 127
2, 118560, Note_off_c, 1, 45, 0
2, 118560, Note_off_c, 1, 54, 0
2, 118560, Note_off_c, 1, 63, 0
2, 118560, Note_on_c, 1, 67, 127
2, 118560, Note_on_c, 1, 69, 127
2, 118560, Note_on_c, 1, 71, 127
2, 118560, Note_on_c, 1, 74, 127
2, 118560, Note_off_c, 1, 75, 0
2, 118560, Note_on_c, 1, 81, 127
2, 118600, Note_off_c, 1, 67, 0
2, 118600, Note_off_c, 1, 69, 0
2, 118600, Note_on_c, 1, 78, 127
2, 118600, Note_off_c, 1, 81, 0
2, 118600, Note_on_c, 1, 86, 127
2, 118600, Note_on_c, 1, 90, 127
2, 118600, Note_on_c, 1, 100, 127
2, 118640, Note_on_c, 1, 39, 127
2, 118640, Note_on_c, 1, 51, 127
2, 118640, Note_on_c, 1, 59, 127
2, 118640, Note_on_c, 1, 68, 127
2, 118640, Note_off_c, 1, 74, 0
2, 118640, Note_off_c, 1, 78, 0
2, 118640, Note_off_c, 1, 86, 0
2, 118640, Note_off_c, 1, 90, 0
2, 118640, Note_off_c, 1, 100, 0
2, 118680, Note_off_c, 1, 39, 0
2, 118680, Note_off_c, 1, 51, 0
2, 118680, Note_on_c, 1, 52, 127
2, 118680, Note_off_c, 1, 59, 0
2, 118680, Note_on_c, 1, 61, 127
2, 118680, Note_on_c, 1, 64, 127
2, 118680, Note_on_c, 1, 67, 127
2, 118680, Note_off_c, 1, 68, 0
2, 118680, Note_off_c, 1, 71, 0
2, 118680, Note_on_c, 1, 72, 127
2, 118720, Note_on_c, 1, 45, 127
2, 118720, Note_off_c, 1, 52, 0
2, 118720, Note_on_c, 1, 54, 127
2, 118720, Note_off_c, 1, 61, 0
2, 118720, Note_on_c, 1, 63, 127
2, 118720, Note_off_c, 1, 64, 0
2, 118720, Note_off_c, 1, 67, 0
2, 118720, Note_off_c, 1, 72, 0
2, 118720, Note_on_c, 1, 75, 127
2, 118760, Note_on_c, 1, 41, 127
2, 118760, Note_on_c, 1, 44, 127
2, 118760, Note_off_c, 1, 45, 0
2, 118760, Note_off_c, 1, 54, 0
2, 118760, Note_on_c, 1, 56, 127
2, 118760, Note_off_c, 1, 63, 0
2, 118760, Note_on_c, 1, 65, 127
2, 118760, Note_on_c, 1, 68, 127
2, 118760, Note_off_c, 1, 75, 0
2, 118800, Note_on_c, 1, 38, 127
2, 118800, Note_off_c, 1, 41, 0
2, 118800, Note_off_c, 1, 44, 0
2, 118800, Note_off_c, 1, 56, 0
2, 118800, Note_on_c, 1, 60, 127
2, 118800, Note_on_c, 1, 63, 127
2, 118800, Note_off_c, 1, 65, 0
2, 118800, Note_on_c, 1, 66, 127
2, 118800, Note_off_c, 1, 68, 0
2, 118840, Note_off_c, 1, 38, 0
2, 118840, Note_off_c, 1, 60, 0
2, 118840, Note_off_c, 1, 63, 0
2, 118840, Note_off_c, 1, 66, 0
2, 118880, Note_on_c, 1, 54, 127
2, 118880, Note_on_c, 1, 59, 127
2, 118880, Note_on_c, 1, 71, 127
2, 118880, Note_on_c, 1, 74, 127
2, 118880, Note_on_c, 1, 80, 127
2, 118960, Note_off_c, 1, 54, 0
2, 118960, Note_off_c, 1, 59, 0
2, 118960, Note_on_c, 1, 69, 127
2, 118960, Note_off_c, 1, 71, 0
2, 118960, Note_on_c, 1, 72, 127
2, 118960, Note_off_c, 1, 74, 0
2, 118960, Note_on_c, 1, 77, 127
2, 118960, Note_off_c, 1, 80, 0
2, 118960, Note_on_c, 1, 81, 127
2, 118960, Note_on_c, 1, 87, 127
2, 118960, Note_on_c, 1, 96, 127
2, 118960, Note_on_c, 1, 99, 127
2, 119000, Note_on_c, 1, 54, 127
2, 119000, Note_on_c, 1, 59, 127
2, 119000, Note_off_c, 1, 69, 0
2, 119000, Note_on_c, 1, 71, 127
2, 119000, Note_off_c, 1, 72, 0
2, 119000, Note_on_c, 1, 74, 127
2, 119000, Note_off_c, 1, 77, 0
2, 119000, Note_on_c, 1, 80, 127
2, 119000, Note_off_c, 1, 81, 0
2, 119000, Note_off_c, 1, 87, 0
2, 119000, Note_off_c, 1, 96, 0
2, 119000, Note_off_c, 1, 99, 0
2, 119040, Note_on_c, 1, 46, 127
2, 119040, Note_on_c, 1, 52, 127
2, 119040, Note_off_c, 1, 54, 0
2, 119040, Note_off_c, 1, 59, 0
2, 119040, Note_on_c, 1, 61, 127
2, 119040, Note_off_c, 1, 71, 0
2, 119040, Note_on_c, 1, 73, 127
2, 119040, Note_off_c, 1, 74, 0
2, 119040, Note_off_c, 1, 80, 0
2, 119080, Note_off_c, 1, 46, 0
2, 119080, Note_off_c, 1, 52, 0
2, 119080, Note_on_c, 1, 54, 127
2, 119080, Note_on_c, 1, 59, 127
2, 119080, Note_off_c, 1, 61, 0
2, 119080, Note_on_c, 1, 71, 127
2, 119080, Note_off_c, 1, 73, 0
2, 119080, Note_on_c, 1, 74, 127
2, 119080, Note_on_c, 1, 80, 127
2, 119120, Note_on_c, 1, 29, 127
2, 119120, Note_on_c, 1, 33, 127
2, 119120, Note_on_c, 1, 36, 127
2, 119120, Note_on_c, 1, 41, 127
2, 119120, Note_off_c, 1, 54, 0
2, 119120, Note_off_c, 1, 59, 0
2, 119120, Note_on_c, 1, 65, 127
2, 119120, Note_on_c, 1, 69, 127
2, 119120, Note_off_c, 1, 71, 0
2, 119120, Note_on_c, 1, 72, 127
2, 119120, Note_off_c, 1, 74, 0
2, 119120, Note_on_c, 1, 77, 127
2, 119120, Note_off_c, 1, 80, 0
2, 119160, Note_off_c, 1, 29, 0
2, 119160, Note_off_c, 1, 33, 0
2, 119160, Note_off_c, 1, 36, 0
2, 119160, Note_off_c, 1, 41, 0
2, 119160, Note_on_c, 1, 54, 127
2, 119160, Note_on_c, 1, 59, 127
2, 119160, Note_off_c, 1, 65, 0
2, 119160, Note_off_c, 1, 69, 0
2, 119160, Note_on_c, 1, 71, 127
2, 119160, Note_off_c, 1, 72, 0
2, 119160, Note_on_c, 1, 74, 127
2, 119160, Note_off_c, 1, 77, 0
2, 119160, Note_on_c, 1, 80, 127
2, 119200, Note_on_c, 1, 43, 127
2, 119200, Note_off_c, 1, 54, 0
2, 119200, Note_on_c, 1, 58, 127
2, 119200, Note_off_c, 1, 59, 0
2, 119200, Note_on_c, 1, 61, 127
2, 119200, Note_on_c, 1, 64, 127
2, 119200, Note_on_c, 1, 67, 127
2, 119200, Note_off_c, 1, 71, 0
2, 119200, Note_off_c, 1, 74, 0
2, 119200, Note_off_c, 1, 80, 0
2, 119240, Note_on_c, 1, 42, 127
2, 119240, Note_off_c, 1, 43, 0
2, 119240, Note_on_c, 1, 49, 127
2, 119240, Note_off_c, 1, 58, 0
2, 119240, Note_off_c, 1, 61, 0
2, 119240, Note_off_c, 1, 64, 0
2, 119240, Note_on_c, 1, 65, 127
2, 119240, Note_off_c, 1, 67, 0
2, 119280, Note_off_c, 1, 42, 0
2, 119280, Note_on_c, 1, 63, 127
2, 119280, Note_on_c, 1, 75, 127
2, 119640, Note_off_c, 1, 63, 0
2, 119640, Note_off_c, 1, 65, 0
2, 119640, Note_off_c, 1, 75, 0
2, 119680, Note_on_c, 1, 61, 127
2, 119680, Note_on_c, 1, 70, 127
2, 119880, Note_off_c, 1, 49, 0
2, 119880, Note_off_c, 1, 61, 0
2, 119880, Note_off_c, 1, 70, 0
2, 119920, Note_on_c, 1, 49, 127
2, 119920, Note_on_c, 1, 61, 127
2, 119920, Note_on_c, 1, 70, 127
2, 120000, Note_off_c, 1, 49, 0
2, 120000, Note_off_c, 1, 61, 0
2, 120000, Note_off_c, 1, 70, 0
2, 120040, End_track
3, 0, Start_track
3, 0, Title_t, "MIDI"
3, 1536, End_track
0, 0, End_of_file
