0, 0, Header, 1, 3, 192
1, 0, Start_track
1, 0, Time_signature, 4, 2, 24, 8
1, 0, Tempo, 500000
1, 120040, End_track
2, 0, Start_track
2, 0, Text_t, "random instrument: random person i dunno whatev"
2, 0, Title_t, "Track 1"
2, 0, Note_on_c, 1, 50, 127
2, 0, Note_on_c, 1, 57, 127
2, 0, Note_on_c, 1, 65, 127
2, 0, Note_on_c, 1, 69, 127
2, 0, Note_on_c, 1, 74, 127
2, 0, Note_on_c, 1, 77, 127
2, 0, Note_on_c, 1, 81, 127
2, 80, Note_off_c, 1, 50, 0
2, 80, Note_off_c, 1, 57, 0
2, 80, Note_off_c, 1, 65, 0
2, 80, Note_off_c, 1, 69, 0
2, 80, Note_off_c, 1, 74, 0
2, 80, Note_off_c, 1, 77, 0
2, 80, Note_off_c, 1, 81, 0
2, 120, Note_on_c, 1, 50, 127
2, 120, Note_on_c, 1, 57, 127
2, 120, Note_on_c, 1, 65, 127
2, 120, Note_on_c, 1, 69, 127
2, 120, Note_on_c, 1, 74, 127
2, 120, Note_on_c, 1, 77, 127
2, 120, Note_on_c, 1, 81, 127
2, 360, Note_off_c, 1, 50, 0
2, 360, Note_off_c, 1, 57, 0
2, 360, Note_off_c, 1, 65, 0
2, 360, Note_off_c, 1, 69, 0
2, 360, Note_off_c, 1, 74, 0
2, 360, Note_off_c, 1, 77, 0
2, 360, Note_off_c, 1, 81, 0
2, 400, Note_on_c, 1, 47, 127
2, 400, Note_on_c, 1, 59, 127
2, 400, Note_on_c, 1, 66, 127
2, 400, Note_on_c, 1, 71, 127
2, 400, Note_on_c, 1, 74, 127
2, 800, Note_off_c, 1, 47, 0
2, 800, Note_off_c, 1, 59, 0
2, 800, Note_off_c, 1, 66, 0
2, 800, Note_off_c, 1, 71, 0
2, 800, Note_off_c, 1, 74, 0
2, 840, Note_on_c, 1, 47, 127
2, 840, Note_on_c, 1, 63, 127
2, 840, Note_on_c, 1, 66, 127
2, 840, Note_on_c, 1, 71, 127
2, 960, Note_off_c, 1, 47, 0
2, 960, Note_off_c, 1, 63, 0
2, 960, Note_off_c, 1, 66, 0
2, 960, Note_off_c, 1, 71, 0
2, 5160, Note_on_c, 1, 48, 127
2, 5160, Note_on_c, 1, 55, 127
2, 5160, Note_on_c, 1, 60, 127
2, 5160, Note_on_c, 1, 64, 127
2, 5400, Note_off_c, 1, 48, 0
2, 5400, Note_off_c, 1, 55, 0
2, 5400, Note_off_c, 1, 60, 0
2, 5400, Note_off_c, 1, 64, 0
2, 5720, Note_on_c, 1, 62, 127
2, 5720, Note_on_c, 1, 69, 127
2, 5720, Note_on_c, 1, 74, 127
2, 5720, Note_on_c, 1, 77, 127
2, 5960, Note_off_c, 1, 62, 0
2, 5960, Note_off_c, 1, 69, 0
2, 5960, Note_off_c, 1, 74, 0
2, 5960, Note_off_c, 1, 77, 0
2, 6000, Note_on_c, 1, 57, 127
2, 6000, Note_on_c, 1, 67, 127
2, 6000, Note_on_c, 1, 73, 127
2, 6000, Note_on_c, 1, 76, 127
2, 6240, Note_off_c, 1, 57, 0
2, 6240, Note_off_c, 1, 67, 0
2, 6240, Note_off_c, 1, 73, 0
2, 6240, Note_off_c, 1, 76, 0
2, 6280, Note_on_c, 1, 57, 127
2, 6280, Note_on_c, 1, 65, 127
2, 6280, Note_on_c, 1, 69, 127
2, 6280, Note_on_c, 1, 74, 127
2, 6520, Note_off_c, 1, 57, 0
2, 6520, Note_off_c, 1, 65, 0
2, 6520, Note_off_c, 1, 69, 0
2, 6520, Note_off_c, 1, 74, 0
2, 6560, Note_on_c, 1, 48, 127
2, 6560, Note_on_c, 1, 55, 127
2, 6560, Note_on_c, 1, 64, 127
2, 6560, Note_on_c, 1, 67, 127
2, 6560, Note_on_c, 1, 72, 127
2, 6840, Note_off_c, 1, 48, 0
2, 6840, Note_off_c, 1, 55, 0
2, 6840, Note_off_c, 1, 64, 0
2, 6840, Note_off_c, 1, 67, 0
2, 6840, Note_off_c, 1, 72, 0
2, 6920, Note_on_c, 1, 48, 127
2, 6920, Note_on_c, 1, 55, 127
2, 6920, Note_on_c, 1, 64, 127
2, 6920, Note_on_c, 1, 67, 127
2, 6920, Note_on_c, 1, 72, 127
2, 7160, Note_off_c, 1, 48, 0
2, 7160, Note_off_c, 1, 55, 0
2, 7160, Note_off_c, 1, 64, 0
2, 7160, Note_off_c, 1, 67, 0
2, 7160, Note_off_c, 1, 72, 0
2, 7200, Note_on_c, 1, 48, 127
2, 7200, Note_on_c, 1, 55, 127
2, 7200, Note_on_c, 1, 64, 127
2, 7200, Note_on_c, 1, 67, 127
2, 7200, Note_on_c, 1, 72, 127
2, 7480, Note_off_c, 1, 48, 0
2, 7480, Note_off_c, 1, 55, 0
2, 7480, Note_off_c, 1, 64, 0
2, 7480, Note_off_c, 1, 67, 0
2, 7480, Note_off_c, 1, 72, 0
2, 7520, Note_on_c, 1, 28, 127
2, 7520, Note_on_c, 1, 40, 127
2, 7520, Note_on_c, 1, 60, 127
2, 7520, Note_on_c, 1, 72, 127
2, 7760, Note_off_c, 1, 28, 0
2, 7760, Note_off_c, 1, 40, 0
2, 7760, Note_off_c, 1, 60, 0
2, 7760, Note_off_c, 1, 72, 0
2, 7800, Note_on_c, 1, 29, 127
2, 7800, Note_on_c, 1, 41, 127
2, 7800, Note_on_c, 1, 62, 127
2, 7800, Note_on_c, 1, 74, 127
2, 8080, Note_off_c, 1, 29, 0
2, 8080, Note_off_c, 1, 41, 0
2, 8080, Note_off_c, 1, 62, 0
2, 8080, Note_off_c, 1, 74, 0
2, 8120, Note_on_c, 1, 30, 127
2, 8120, Note_on_c, 1, 42, 127
2, 8120, Note_on_c, 1, 57, 127
2, 8120, Note_on_c, 1, 69, 127
2, 8360, Note_off_c, 1, 30, 0
2, 8360, Note_off_c, 1, 42, 0
2, 8360, Note_off_c, 1, 57, 0
2, 8360, Note_off_c, 1, 69, 0
2, 8400, Note_on_c, 1, 48, 127
2, 8400, Note_on_c, 1, 64, 127
2, 8400, Note_on_c, 1, 69, 127
2, 8400, Note_on_c, 1, 73, 127
2, 8440, Note_off_c, 1, 48, 0
2, 8480, Note_on_c, 1, 48, 127
2, 8520, Note_off_c, 1, 48, 0
2, 8560, Note_on_c, 1, 48, 127
2, 8600, Note_off_c, 1, 48, 0
2, 8640, Note_on_c, 1, 45, 127
2, 8680, Note_off_c, 1, 45, 0
2, 8680, Note_off_c, 1, 64, 0
2, 8680, Note_off_c, 1, 69, 0
2, 8680, Note_off_c, 1, 73, 0
2, 8720, Note_on_c, 1, 45, 127
2, 8720, Note_on_c, 1, 64, 127
2, 8720, Note_on_c, 1, 69, 127
2, 8720, Note_on_c, 1, 73, 127
2, 8800, Note_off_c, 1, 45, 0
2, 8800, Note_off_c, 1, 64, 0
2, 8800, Note_off_c, 1, 69, 0
2, 8800, Note_off_c, 1, 73, 0
2, 8840, Note_on_c, 1, 45, 127
2, 8840, Note_on_c, 1, 64, 127
2, 8840, Note_on_c, 1, 69, 127
2, 8840, Note_on_c, 1, 73, 127
2, 9000, Note_off_c, 1, 45, 0
2, 9000, Note_off_c, 1, 64, 0
2, 9000, Note_off_c, 1, 69, 0
2, 9000, Note_off_c, 1, 73, 0
2, 9040, Note_on_c, 1, 40, 127
2, 9040, Note_on_c, 1, 67, 127
2, 9040, Note_on_c, 1, 71, 127
2, 9280, Note_off_c, 1, 40, 0
2, 9280, Note_off_c, 1, 67, 0
2, 9280, Note_off_c, 1, 71, 0
2, 9320, Note_on_c, 1, 64, 127
2, 9320, Note_on_c, 1, 67, 127
2, 9320, Note_on_c, 1, 71, 127
2, 9720, Note_off_c, 1, 71, 0
2, 9760, Note_on_c, 1, 76, 127
2, 9840, Note_off_c, 1, 64, 0
2, 9840, Note_off_c, 1, 67, 0
2, 9840, Note_off_c, 1, 76, 0
2, 9880, Note_on_c, 1, 62, 127
2, 9880, Note_on_c, 1, 66, 127
2, 9880, Note_on_c, 1, 69, 127
2, 9880, Note_on_c, 1, 74, 127
2, 10280, Note_off_c, 1, 62, 0
2, 10280, Note_off_c, 1, 66, 0
2, 10280, Note_off_c, 1, 69, 0
2, 10280, Note_off_c, 1, 74, 0
2, 10320, Note_on_c, 1, 48, 127
2, 10320, Note_on_c, 1, 76, 127
2, 10320, Note_on_c, 1, 79, 127
2, 10320, Note_on_c, 1, 84, 127
2, 10400, Note_off_c, 1, 48, 0
2, 10400, Note_off_c, 1, 76, 0
2, 10400, Note_off_c, 1, 79, 0
2, 10400, Note_off_c, 1, 84, 0
2, 10440, Note_on_c, 1, 60, 127
2, 10440, Note_on_c, 1, 76, 127
2, 10440, Note_on_c, 1, 79, 127
2, 10440, Note_on_c, 1, 84, 127
2, 10640, Note_off_c, 1, 60, 0
2, 10640, Note_off_c, 1, 76, 0
2, 10640, Note_off_c, 1, 79, 0
2, 10640, Note_off_c, 1, 84, 0
2, 10680, Note_on_c, 1, 60, 127
2, 10680, Note_on_c, 1, 76, 127
2, 10680, Note_on_c, 1, 79, 127
2, 10680, Note_on_c, 1, 84, 127
2, 10720, Note_off_c, 1, 60, 0
2, 10720, Note_off_c, 1, 76, 0
2, 10720, Note_off_c, 1, 79, 0
2, 10720, Note_off_c, 1, 84, 0
2, 10760, Note_on_c, 1, 72, 127
2, 10760, Note_on_c, 1, 76, 127
2, 10760, Note_on_c, 1, 79, 127
2, 10760, Note_on_c, 1, 84, 127
2, 10880, Note_off_c, 1, 72, 0
2, 10880, Note_off_c, 1, 76, 0
2, 10880, Note_off_c, 1, 79, 0
2, 10880, Note_off_c, 1, 84, 0
2, 10920, Note_on_c, 1, 72, 127
2, 10920, Note_on_c, 1, 76, 127
2, 10920, Note_on_c, 1, 79, 127
2, 10920, Note_on_c, 1, 84, 127
2, 11000, Note_off_c, 1, 72, 0
2, 11000, Note_off_c, 1, 76, 0
2, 11000, Note_off_c, 1, 79, 0
2, 11000, Note_off_c, 1, 84, 0
2, 11040, Note_on_c, 1, 76, 127
2, 11040, Note_on_c, 1, 79, 127
2, 11040, Note_on_c, 1, 84, 127
2, 11160, Note_off_c, 1, 76, 0
2, 11160, Note_off_c, 1, 79, 0
2, 11160, Note_off_c, 1, 84, 0
2, 11200, Note_on_c, 1, 76, 127
2, 11200, Note_on_c, 1, 79, 127
2, 11200, Note_on_c, 1, 84, 127
2, 11280, Note_off_c, 1, 76, 0
2, 11280, Note_off_c, 1, 79, 0
2, 11280, Note_off_c, 1, 84, 0
2, 11320, Note_on_c, 1, 67, 127
2, 11320, Note_on_c, 1, 76, 127
2, 11320, Note_on_c, 1, 79, 127
2, 11320, Note_on_c, 1, 84, 127
2, 11440, Note_off_c, 1, 67, 0
2, 11440, Note_off_c, 1, 76, 0
2, 11440, Note_off_c, 1, 79, 0
2, 11440, Note_off_c, 1, 84, 0
2, 13400, Note_on_c, 1, 37, 127
2, 13400, Note_on_c, 1, 49, 127
2, 14280, Note_on_c, 1, 56, 127
2, 15080, Note_off_c, 1, 37, 0
2, 15080, Note_off_c, 1, 49, 0
2, 15080, Note_off_c, 1, 56, 0
2, 16320, Note_on_c, 1, 43, 127
2, 16320, Note_on_c, 1, 55, 127
2, 16320, Note_on_c, 1, 67, 127
2, 16360, Note_off_c, 1, 43, 0
2, 16360, Note_off_c, 1, 55, 0
2, 16360, Note_off_c, 1, 67, 0
2, 16520, Note_on_c, 1, 31, 127
2, 16520, Note_on_c, 1, 43, 127
2, 16520, Note_on_c, 1, 55, 127
2, 17080, Note_off_c, 1, 31, 0
2, 17080, Note_off_c, 1, 43, 0
2, 17080, Note_off_c, 1, 55, 0
2, 18240, Note_on_c, 1, 40, 127
2, 18240, Note_on_c, 1, 52, 127
2, 18240, Note_on_c, 1, 64, 127
2, 18760, Note_off_c, 1, 40, 0
2, 18760, Note_off_c, 1, 52, 0
2, 18760, Note_off_c, 1, 64, 0
2, 30680, Note_on_c, 1, 41, 127
2, 30680, Note_on_c, 1, 53, 127
2, 30680, Note_on_c, 1, 65, 127
2, 31480, Note_off_c, 1, 41, 0
2, 31480, Note_off_c, 1, 53, 0
2, 31480, Note_off_c, 1, 65, 0
2, 31520, Note_on_c, 1, 39, 127
2, 31520, Note_on_c, 1, 51, 127
2, 31520, Note_on_c, 1, 63, 127
2, 32720, Note_off_c, 1, 39, 0
2, 32720, Note_off_c, 1, 51, 0
2, 32720, Note_off_c, 1, 63, 0
2, 32800, Note_on_c, 1, 48, 127
2, 32800, Note_on_c, 1, 55, 127
2, 32800, Note_on_c, 1, 60, 127
2, 32800, Note_on_c, 1, 64, 127
2, 34560, Note_off_c, 1, 48, 0
2, 34560, Note_off_c, 1, 55, 0
2, 34560, Note_off_c, 1, 60, 0
2, 34560, Note_off_c, 1, 64, 0
2, 36800, Note_on_c, 1, 45, 127
2, 36800, Note_on_c, 1, 49, 127
2, 37360, Note_off_c, 1, 49, 0
2, 37400, Note_off_c, 1, 45, 0
2, 37440, Note_on_c, 1, 40, 127
2, 37440, Note_on_c, 1, 52, 127
2, 37440, Note_on_c, 1, 71, 127
2, 37440, Note_on_c, 1, 76, 127
2, 37440, Note_on_c, 1, 80, 127
2, 37720, Note_off_c, 1, 40, 0
2, 37720, Note_off_c, 1, 52, 0
2, 37720, Note_off_c, 1, 71, 0
2, 37720, Note_off_c, 1, 76, 0
2, 37720, Note_off_c, 1, 80, 0
2, 38720, Note_on_c, 1, 38, 127
2, 38720, Note_on_c, 1, 50, 127
2, 38720, Note_on_c, 1, 53, 127
2, 38720, Note_on_c, 1, 57, 127
2, 38720, Note_on_c, 1, 62, 127
2, 38960, Note_off_c, 1, 53, 0
2, 38960, Note_off_c, 1, 57, 0
2, 39000, Note_on_c, 1, 53, 127
2, 39000, Note_on_c, 1, 57, 127
2, 39080, Note_off_c, 1, 53, 0
2, 39080, Note_off_c, 1, 57, 0
2, 39120, Note_on_c, 1, 53, 127
2, 39120, Note_on_c, 1, 57, 127
2, 39280, Note_off_c, 1, 38, 0
2, 39280, Note_off_c, 1, 50, 0
2, 39280, Note_off_c, 1, 53, 0
2, 39280, Note_off_c, 1, 57, 0
2, 39280, Note_off_c, 1, 62, 0
2, 41560, Note_on_c, 1, 69, 127
2, 42120, Note_off_c, 1, 69, 0
2, 42200, Note_on_c, 1, 67, 127
2, 42200, Note_on_c, 1, 71, 127
2, 42760, Note_off_c, 1, 67, 0
2, 42760, Note_off_c, 1, 71, 0
2, 42800, Note_on_c, 1, 69, 127
2, 43360, Note_off_c, 1, 69, 0
2, 51360, Note_on_c, 1, 60, 127
2, 51360, Note_on_c, 1, 72, 127
2, 51960, Note_off_c, 1, 60, 0
2, 51960, Note_off_c, 1, 72, 0
2, 52000, Note_on_c, 1, 65, 127
2, 52000, Note_on_c, 1, 77, 127
2, 53000, Note_off_c, 1, 65, 0
2, 53000, Note_off_c, 1, 77, 0
2, 53040, Note_on_c, 1, 61, 127
2, 53040, Note_on_c, 1, 73, 127
2, 53400, Note_off_c, 1, 61, 0
2, 53400, Note_off_c, 1, 73, 0
2, 53440, Note_on_c, 1, 55, 127
2, 53440, Note_on_c, 1, 67, 127
2, 53640, Note_off_c, 1, 55, 0
2, 53640, Note_off_c, 1, 67, 0
2, 53680, Note_on_c, 1, 55, 127
2, 53680, Note_on_c, 1, 67, 127
2, 54200, Note_off_c, 1, 55, 0
2, 54200, Note_off_c, 1, 67, 0
2, 54240, Note_on_c, 1, 56, 127
2, 54240, Note_on_c, 1, 68, 127
2, 54600, Note_off_c, 1, 56, 0
2, 54600, Note_off_c, 1, 68, 0
2, 54640, Note_on_c, 1, 55, 127
2, 54640, Note_on_c, 1, 67, 127
2, 55800, Note_off_c, 1, 55, 0
2, 55800, Note_off_c, 1, 67, 0
2, 55880, Note_on_c, 1, 55, 127
2, 55880, Note_on_c, 1, 67, 127
2, 57360, Note_off_c, 1, 55, 0
2, 57360, Note_off_c, 1, 67, 0
2, 57440, Note_on_c, 1, 55, 127
2, 57440, Note_on_c, 1, 67, 127
2, 58000, Note_off_c, 1, 55, 0
2, 58000, Note_off_c, 1, 67, 0
2, 58040, Note_on_c, 1, 55, 127
2, 58040, Note_on_c, 1, 67, 127
2, 58560, Note_off_c, 1, 55, 0
2, 58560, Note_off_c, 1, 67, 0
2, 58640, Note_on_c, 1, 55, 127
2, 58640, Note_on_c, 1, 67, 127
2, 60160, Note_off_c, 1, 55, 0
2, 60160, Note_off_c, 1, 67, 0
2, 60240, Note_on_c, 1, 55, 127
2, 60240, Note_on_c, 1, 67, 127
2, 61720, Note_off_c, 1, 55, 0
2, 61720, Note_off_c, 1, 67, 0
2, 61800, Note_on_c, 1, 43, 127
2, 61800, Note_on_c, 1, 55, 127
2, 62360, Note_off_c, 1, 43, 0
2, 62360, Note_off_c, 1, 55, 0
2, 62440, Note_on_c, 1, 43, 127
2, 62440, Note_on_c, 1, 55, 127
2, 63600, Note_off_c, 1, 43, 0
2, 63600, Note_off_c, 1, 55, 0
2, 63640, Note_on_c, 1, 32, 127
2, 63640, Note_on_c, 1, 44, 127
2, 64440, Note_off_c, 1, 32, 0
2, 64440, Note_off_c, 1, 44, 0
2, 64480, Note_on_c, 1, 32, 127
2, 64480, Note_on_c, 1, 44, 127
2, 64800, Note_off_c, 1, 32, 0
2, 64800, Note_off_c, 1, 44, 0
2, 67200, Note_on_c, 1, 52, 127
2, 67400, Note_off_c, 1, 52, 0
2, 67440, Note_on_c, 1, 52, 127
2, 67560, Note_off_c, 1, 52, 0
2, 67600, Note_on_c, 1, 57, 127
2, 67960, Note_off_c, 1, 57, 0
2, 68000, Note_on_c, 1, 52, 127
2, 68760, Note_off_c, 1, 52, 0
2, 68800, Note_on_c, 1, 57, 127
2, 69560, Note_off_c, 1, 57, 0
2, 69600, Note_on_c, 1, 52, 127
2, 70200, Note_off_c, 1, 52, 0
2, 70440, Note_on_c, 1, 52, 127
2, 70680, Note_off_c, 1, 52, 0
2, 74720, Note_on_c, 1, 55, 127
2, 74720, Note_on_c, 1, 58, 127
2, 74720, Note_on_c, 1, 62, 127
2, 74720, Note_on_c, 1, 67, 127
2, 74720, Note_on_c, 1, 70, 127
2, 75280, Note_off_c, 1, 62, 0
2, 75280, Note_off_c, 1, 67, 0
2, 75840, Note_off_c, 1, 58, 0
2, 75880, Note_on_c, 1, 54, 127
2, 75880, Note_off_c, 1, 55, 0
2, 75880, Note_on_c, 1, 60, 127
2, 75880, Note_on_c, 1, 69, 127
2, 75880, Note_off_c, 1, 70, 0
2, 76560, Note_off_c, 1, 54, 0
2, 76560, Note_off_c, 1, 60, 0
2, 76560, Note_off_c, 1, 69, 0
2, 76600, Note_on_c, 1, 54, 127
2, 76600, Note_on_c, 1, 60, 127
2, 76600, Note_on_c, 1, 69, 127
2, 76680, Note_off_c, 1, 54, 0
2, 76680, Note_on_c, 1, 55, 127
2, 76680, Note_off_c, 1, 60, 0
2, 76720, Note_on_c, 1, 52, 127
2, 76720, Note_off_c, 1, 55, 0
2, 76720, Note_on_c, 1, 60, 127
2, 77280, Note_off_c, 1, 60, 0
2, 77280, Note_off_c, 1, 69, 0
2, 77320, Note_on_c, 1, 50, 127
2, 77320, Note_off_c, 1, 52, 0
2, 77320, Note_on_c, 1, 60, 127
2, 77320, Note_on_c, 1, 66, 127
2, 77320, Note_on_c, 1, 69, 127
2, 77880, Note_off_c, 1, 50, 0
2, 77880, Note_off_c, 1, 60, 0
2, 77880, Note_off_c, 1, 66, 0
2, 77880, Note_off_c, 1, 69, 0
2, 77920, Note_on_c, 1, 55, 127
2, 77920, Note_on_c, 1, 59, 127
2, 77920, Note_on_c, 1, 71, 127
2, 78120, Note_off_c, 1, 71, 0
2, 78160, Note_on_c, 1, 71, 127
2, 78320, Note_off_c, 1, 71, 0
2, 78360, Note_on_c, 1, 74, 127
2, 78760, Note_off_c, 1, 55, 0
2, 78760, Note_off_c, 1, 59, 0
2, 78760, Note_off_c, 1, 74, 0
2, 78800, Note_on_c, 1, 55, 127
2, 78800, Note_on_c, 1, 59, 127
2, 78800, Note_on_c, 1, 74, 127
2, 78960, Note_off_c, 1, 74, 0
2, 79000, Note_on_c, 1, 86, 127
2, 79160, Note_off_c, 1, 86, 0
2, 79200, Note_on_c, 1, 78, 127
2, 79520, Note_off_c, 1, 78, 0
2, 79520, Note_on_c, 1, 79, 127
2, 79560, Note_on_c, 1, 78, 127
2, 79560, Note_off_c, 1, 79, 0
2, 79600, Note_off_c, 1, 59, 0
2, 79600, Note_off_c, 1, 78, 0
2, 79640, Note_on_c, 1, 60, 127
2, 79640, Note_on_c, 1, 76, 127
2, 79680, Note_off_c, 1, 76, 0
2, 79680, Note_on_c, 1, 78, 127
2, 79720, Note_on_c, 1, 76, 127
2, 79720, Note_off_c, 1, 78, 0
2, 79840, Note_on_c, 1, 74, 127
2, 79840, Note_off_c, 1, 76, 0
2, 80000, Note_off_c, 1, 60, 0
2, 80000, Note_off_c, 1, 74, 0
2, 80040, Note_on_c, 1, 59, 127
2, 80040, Note_on_c, 1, 74, 127
2, 80600, Note_off_c, 1, 74, 0
2, 80640, Note_on_c, 1, 86, 127
2, 80800, Note_off_c, 1, 59, 0
2, 80800, Note_off_c, 1, 86, 0
2, 80840, Note_off_c, 1, 55, 0
2, 80880, Note_on_c, 1, 55, 127
2, 80880, Note_on_c, 1, 79, 127
2, 81240, Note_off_c, 1, 79, 0
2, 81280, Note_on_c, 1, 81, 127
2, 81440, Note_off_c, 1, 81, 0
2, 81480, Note_on_c, 1, 83, 127
2, 81640, Note_off_c, 1, 55, 0
2, 81640, Note_off_c, 1, 83, 0
2, 81680, Note_on_c, 1, 57, 127
2, 81680, Note_on_c, 1, 81, 127
2, 82680, Note_off_c, 1, 81, 0
2, 82680, Note_on_c, 1, 83, 127
2, 82720, Note_on_c, 1, 81, 127
2, 82720, Note_off_c, 1, 83, 0
2, 82840, Note_off_c, 1, 81, 0
2, 82880, Note_off_c, 1, 57, 0
2, 82920, Note_on_c, 1, 57, 127
2, 82920, Note_on_c, 1, 78, 127
2, 83280, Note_off_c, 1, 57, 0
2, 83280, Note_off_c, 1, 78, 0
2, 83320, Note_on_c, 1, 62, 127
2, 83320, Note_on_c, 1, 79, 127
2, 83880, Note_off_c, 1, 79, 0
2, 83920, Note_on_c, 1, 78, 127
2, 84480, Note_off_c, 1, 62, 0
2, 84480, Note_off_c, 1, 78, 0
2, 84520, Note_on_c, 1, 57, 127
2, 84520, Note_on_c, 1, 84, 127
2, 84880, Note_off_c, 1, 57, 0
2, 85280, Note_off_c, 1, 84, 0
2, 85320, Note_on_c, 1, 84, 127
2, 85760, Note_on_c, 1, 66, 127
2, 86120, Note_off_c, 1, 66, 0
2, 86120, Note_off_c, 1, 84, 0
2, 86160, Note_on_c, 1, 69, 127
2, 86160, Note_on_c, 1, 84, 127
2, 86520, Note_off_c, 1, 69, 0
2, 86560, Note_on_c, 1, 72, 127
2, 86960, Note_on_c, 1, 65, 127
2, 86960, Note_off_c, 1, 72, 0
2, 87320, Note_off_c, 1, 65, 0
2, 87360, Note_on_c, 1, 69, 127
2, 87520, Note_off_c, 1, 69, 0
2, 87520, Note_off_c, 1, 84, 0
2, 87560, Note_on_c, 1, 69, 127
2, 87560, Note_on_c, 1, 84, 127
2, 87760, Note_off_c, 1, 69, 0
2, 87800, Note_on_c, 1, 74, 127
2, 88160, Note_off_c, 1, 74, 0
2, 88160, Note_off_c, 1, 84, 0
2, 88200, Note_on_c, 1, 67, 127
2, 88200, Note_on_c, 1, 84, 127
2, 89360, Note_off_c, 1, 67, 0
2, 89360, Note_off_c, 1, 84, 0
2, 89400, Note_on_c, 1, 69, 127
2, 89400, Note_on_c, 1, 82, 127
2, 89560, Note_off_c, 1, 69, 0
2, 89560, Note_off_c, 1, 82, 0
2, 89600, Note_on_c, 1, 69, 127
2, 89600, Note_on_c, 1, 82, 127
2, 89800, Note_off_c, 1, 69, 0
2, 89840, Note_on_c, 1, 64, 127
2, 90200, Note_off_c, 1, 64, 0
2, 90240, Note_on_c, 1, 67, 127
2, 90600, Note_off_c, 1, 67, 0
2, 90640, Note_on_c, 1, 65, 127
2, 91000, Note_off_c, 1, 65, 0
2, 91000, Note_off_c, 1, 82, 0
2, 91040, Note_on_c, 1, 69, 127
2, 91040, Note_on_c, 1, 79, 127
2, 91400, Note_off_c, 1, 69, 0
2, 91400, Note_off_c, 1, 79, 0
2, 91440, Note_on_c, 1, 77, 127
2, 91840, Note_off_c, 1, 77, 0
2, 91880, Note_on_c, 1, 57, 127
2, 91880, Note_on_c, 1, 77, 127
2, 92040, Note_off_c, 1, 77, 0
2, 92080, Note_on_c, 1, 79, 127
2, 92240, Note_off_c, 1, 57, 0
2, 92240, Note_off_c, 1, 79, 0
2, 92280, Note_on_c, 1, 65, 127
2, 92280, Note_on_c, 1, 77, 127
2, 93240, Note_off_c, 1, 65, 0
2, 93280, Note_on_c, 1, 69, 127
2, 93440, Note_off_c, 1, 69, 0
2, 93440, Note_off_c, 1, 77, 0
2, 93480, Note_on_c, 1, 86, 127
2, 93840, Note_off_c, 1, 86, 0
2, 93880, Note_on_c, 1, 84, 127
2, 94280, Note_off_c, 1, 84, 0
2, 94320, Note_on_c, 1, 67, 127
2, 94320, Note_on_c, 1, 84, 127
2, 94680, Note_off_c, 1, 67, 0
2, 94680, Note_off_c, 1, 84, 0
2, 94720, Note_on_c, 1, 86, 127
2, 95120, Note_on_c, 1, 65, 127
2, 95480, Note_off_c, 1, 65, 0
2, 95520, Note_on_c, 1, 65, 127
2, 95520, Note_on_c, 1, 69, 127
2, 95880, Note_off_c, 1, 86, 0
2, 95920, Note_on_c, 1, 84, 127
2, 96280, Note_off_c, 1, 65, 0
2, 96280, Note_off_c, 1, 69, 0
2, 96280, Note_off_c, 1, 84, 0
2, 96360, Note_on_c, 1, 84, 127
2, 96760, Note_on_c, 1, 64, 127
2, 96760, Note_on_c, 1, 67, 127
2, 97120, Note_off_c, 1, 84, 0
2, 97160, Note_on_c, 1, 91, 127
2, 97520, Note_off_c, 1, 64, 0
2, 97520, Note_off_c, 1, 67, 0
2, 97520, Note_off_c, 1, 91, 0
2, 97560, Note_on_c, 1, 84, 127
2, 97960, Note_on_c, 1, 54, 127
2, 97960, Note_on_c, 1, 57, 127
2, 97960, Note_on_c, 1, 60, 127
2, 97960, Note_on_c, 1, 63, 127
2, 98320, Note_off_c, 1, 54, 0
2, 98320, Note_off_c, 1, 57, 0
2, 98320, Note_off_c, 1, 60, 0
2, 98320, Note_off_c, 1, 63, 0
2, 98360, Note_off_c, 1, 84, 0
2, 98400, Note_on_c, 1, 84, 127
2, 98800, Note_on_c, 1, 60, 127
2, 98800, Note_on_c, 1, 62, 127
2, 98800, Note_on_c, 1, 66, 127
2, 98800, Note_on_c, 1, 69, 127
2, 99160, Note_off_c, 1, 84, 0
2, 99200, Note_on_c, 1, 78, 127
2, 99360, Note_off_c, 1, 78, 0
2, 99400, Note_on_c, 1, 78, 127
2, 99440, Note_off_c, 1, 78, 0
2, 99480, Note_on_c, 1, 78, 127
2, 99560, Note_off_c, 1, 60, 0
2, 99560, Note_off_c, 1, 62, 0
2, 99560, Note_off_c, 1, 66, 0
2, 99560, Note_off_c, 1, 69, 0
2, 99560, Note_off_c, 1, 78, 0
2, 99600, Note_on_c, 1, 59, 127
2, 99600, Note_on_c, 1, 62, 127
2, 99600, Note_on_c, 1, 67, 127
2, 99600, Note_on_c, 1, 79, 127
2, 99640, Note_off_c, 1, 79, 0
2, 99640, Note_on_c, 1, 81, 127
2, 99720, Note_on_c, 1, 79, 127
2, 99720, Note_off_c, 1, 81, 0
2, 99760, Note_off_c, 1, 79, 0
2, 99800, Note_on_c, 1, 81, 127
2, 99840, Note_on_c, 1, 79, 127
2, 99840, Note_off_c, 1, 81, 0
2, 99960, Note_off_c, 1, 59, 0
2, 99960, Note_off_c, 1, 62, 0
2, 99960, Note_off_c, 1, 67, 0
2, 99960, Note_off_c, 1, 79, 0
2, 100000, Note_on_c, 1, 82, 127
2, 100160, Note_off_c, 1, 82, 0
2, 100200, Note_on_c, 1, 83, 127
2, 100400, Note_off_c, 1, 83, 0
2, 100440, Note_on_c, 1, 83, 127
2, 100800, Note_off_c, 1, 83, 0
2, 100840, Note_on_c, 1, 60, 127
2, 100840, Note_on_c, 1, 62, 127
2, 100840, Note_on_c, 1, 69, 127
2, 100840, Note_on_c, 1, 78, 127
2, 101600, Note_on_c, 1, 55, 127
2, 101600, Note_off_c, 1, 60, 0
2, 101600, Note_on_c, 1, 67, 127
2, 101600, Note_off_c, 1, 69, 0
2, 101600, Note_off_c, 1, 78, 0
2, 101640, Note_off_c, 1, 55, 0
2, 101640, Note_on_c, 1, 60, 127
2, 101640, Note_off_c, 1, 67, 0
2, 101640, Note_on_c, 1, 69, 127
2, 101640, Note_on_c, 1, 78, 127
2, 102000, Note_off_c, 1, 60, 0
2, 102000, Note_off_c, 1, 62, 0
2, 102000, Note_off_c, 1, 69, 0
2, 102000, Note_off_c, 1, 78, 0
2, 102040, Note_on_c, 1, 86, 127
2, 102400, Note_off_c, 1, 86, 0
2, 102480, Note_on_c, 1, 84, 127
2, 102840, Note_off_c, 1, 84, 0
2, 102880, Note_on_c, 1, 86, 127
2, 103240, Note_off_c, 1, 86, 0
2, 103280, Note_on_c, 1, 67, 127
2, 103280, Note_on_c, 1, 71, 127
2, 103280, Note_on_c, 1, 91, 127
2, 103640, Note_off_c, 1, 91, 0
2, 103680, Note_on_c, 1, 79, 127
2, 104040, Note_off_c, 1, 67, 0
2, 104040, Note_off_c, 1, 71, 0
2, 104040, Note_off_c, 1, 79, 0
2, 104080, Note_on_c, 1, 79, 127
2, 104480, Note_off_c, 1, 79, 0
2, 104520, Note_on_c, 1, 71, 127
2, 104520, Note_on_c, 1, 74, 127
2, 104520, Note_on_c, 1, 77, 127
2, 104520, Note_on_c, 1, 79, 127
2, 105280, Note_off_c, 1, 71, 0
2, 105280, Note_off_c, 1, 74, 0
2, 105280, Note_off_c, 1, 77, 0
2, 105280, Note_off_c, 1, 79, 0
2, 105320, Note_on_c, 1, 60, 127
2, 105320, Note_on_c, 1, 76, 127
2, 105680, Note_off_c, 1, 60, 0
2, 105680, Note_off_c, 1, 76, 0
2, 105720, Note_on_c, 1, 64, 127
2, 106080, Note_off_c, 1, 64, 0
2, 106120, Note_on_c, 1, 67, 127
2, 106480, Note_off_c, 1, 67, 0
2, 106560, Note_on_c, 1, 48, 127
2, 106560, Note_on_c, 1, 79, 127
2, 106920, Note_off_c, 1, 48, 0
2, 106960, Note_on_c, 1, 52, 127
2, 107320, Note_off_c, 1, 52, 0
2, 107360, Note_on_c, 1, 53, 127
2, 107720, Note_off_c, 1, 53, 0
2, 107760, Note_on_c, 1, 64, 127
2, 108120, Note_off_c, 1, 64, 0
2, 108120, Note_off_c, 1, 79, 0
2, 108160, Note_on_c, 1, 48, 127
2, 108160, Note_on_c, 1, 81, 127
2, 108520, Note_off_c, 1, 48, 0
2, 108560, Note_off_c, 1, 81, 0
2, 108600, Note_on_c, 1, 50, 127
2, 108600, Note_on_c, 1, 81, 127
2, 108960, Note_off_c, 1, 50, 0
2, 109000, Note_on_c, 1, 40, 127
2, 109360, Note_off_c, 1, 40, 0
2, 109360, Note_off_c, 1, 81, 0
2, 109400, Note_on_c, 1, 48, 127
2, 109400, Note_on_c, 1, 81, 127
2, 109760, Note_off_c, 1, 48, 0
2, 109800, Note_on_c, 1, 53, 127
2, 110160, Note_off_c, 1, 53, 0
2, 110200, Note_on_c, 1, 63, 127
2, 110560, Note_off_c, 1, 63, 0
2, 110600, Note_on_c, 1, 48, 127
2, 110600, Note_off_c, 1, 81, 0
2, 110600, Note_on_c, 1, 82, 127
2, 110600, Note_on_c, 1, 86, 127
2, 110600, Note_on_c, 1, 94, 127
2, 110640, Note_on_c, 1, 45, 127
2, 110640, Note_off_c, 1, 48, 0
2, 110640, Note_on_c, 1, 49, 127
2, 110640, Note_on_c, 1, 52, 127
2, 110640, Note_on_c, 1, 55, 127
2, 110640, Note_off_c, 1, 86, 0
2, 110640, Note_off_c, 1, 94, 0
2, 110680, Note_off_c, 1, 45, 0
2, 110680, Note_off_c, 1, 49, 0
2, 110680, Note_off_c, 1, 52, 0
2, 110680, Note_off_c, 1, 55, 0
2, 110680, Note_off_c, 1, 82, 0
2, 110720, Note_on_c, 1, 82, 127
2, 110720, Note_on_c, 1, 86, 127
2, 110720, Note_on_c, 1, 94, 127
2, 110760, Note_on_c, 1, 59, 127
2, 110760, Note_on_c, 1, 69, 127
2, 110760, Note_on_c, 1, 72, 127
2, 110760, Note_on_c, 1, 76, 127
2, 110760, Note_on_c, 1, 81, 127
2, 110760, Note_off_c, 1, 82, 0
2, 110760, Note_off_c, 1, 86, 0
2, 110760, Note_off_c, 1, 94, 0
2, 110800, Note_on_c, 1, 48, 127
2, 110800, Note_off_c, 1, 59, 0
2, 110800, Note_off_c, 1, 69, 0
2, 110800, Note_off_c, 1, 72, 0
2, 110800, Note_off_c, 1, 76, 0
2, 110800, Note_off_c, 1, 81, 0
2, 110800, Note_on_c, 1, 82, 127
2, 110800, Note_on_c, 1, 86, 127
2, 110800, Note_on_c, 1, 94, 127
2, 110840, Note_on_c, 1, 70, 127
2, 110840, Note_on_c, 1, 81, 127
2, 110840, Note_off_c, 1, 82, 0
2, 110840, Note_off_c, 1, 86, 0
2, 110840, Note_off_c, 1, 94, 0
2, 110880, Note_off_c, 1, 48, 0
2, 110880, Note_on_c, 1, 50, 127
2, 110880, Note_on_c, 1, 55, 127
2, 110880, Note_on_c, 1, 58, 127
2, 110880, Note_on_c, 1, 62, 127
2, 110880, Note_off_c, 1, 70, 0
2, 110880, Note_on_c, 1, 74, 127
2, 110880, Note_on_c, 1, 79, 127
2, 110880, Note_off_c, 1, 81, 0
2, 110920, Note_off_c, 1, 50, 0
2, 110920, Note_off_c, 1, 55, 0
2, 110920, Note_off_c, 1, 58, 0
2, 110920, Note_off_c, 1, 62, 0
2, 110920, Note_on_c, 1, 72, 127
2, 110920, Note_off_c, 1, 74, 0
2, 110920, Note_on_c, 1, 76, 127
2, 110920, Note_off_c, 1, 79, 0
2, 110920, Note_on_c, 1, 80, 127
2, 110960, Note_on_c, 1, 48, 127
2, 110960, Note_on_c, 1, 60, 127
2, 110960, Note_on_c, 1, 62, 127
2, 110960, Note_on_c, 1, 67, 127
2, 110960, Note_on_c, 1, 70, 127
2, 110960, Note_off_c, 1, 72, 0
2, 110960, Note_off_c, 1, 76, 0
2, 110960, Note_off_c, 1, 80, 0
2, 111000, Note_off_c, 1, 48, 0
2, 111000, Note_off_c, 1, 60, 0
2, 111000, Note_off_c, 1, 62, 0
2, 111000, Note_off_c, 1, 67, 0
2, 111000, Note_off_c, 1, 70, 0
2, 111000, Note_on_c, 1, 79, 127
2, 111040, Note_on_c, 1, 53, 127
2, 111400, Note_off_c, 1, 53, 0
2, 111440, Note_on_c, 1, 58, 127
2, 111440, Note_on_c, 1, 81, 127
2, 111600, Note_on_c, 1, 48, 127
2, 111600, Note_off_c, 1, 58, 0
2, 111600, Note_off_c, 1, 81, 0
2, 111640, Note_off_c, 1, 48, 0
2, 111640, Note_on_c, 1, 58, 127
2, 111640, Note_on_c, 1, 81, 127
2, 111680, Note_on_c, 1, 48, 127
2, 111680, Note_off_c, 1, 58, 0
2, 111680, Note_off_c, 1, 81, 0
2, 111800, Note_off_c, 1, 48, 0
2, 111800, Note_off_c, 1, 79, 0
2, 111800, Note_on_c, 1, 81, 127
2, 111840, Note_on_c, 1, 48, 127
2, 111840, Note_on_c, 1, 79, 127
2, 111840, Note_off_c, 1, 81, 0
2, 112200, Note_off_c, 1, 48, 0
2, 112240, Note_on_c, 1, 36, 127
2, 112600, Note_off_c, 1, 36, 0
2, 112640, Note_on_c, 1, 48, 127
2, 112920, Note_off_c, 1, 48, 0
2, 112920, Note_off_c, 1, 79, 0
2, 112960, Note_on_c, 1, 48, 127
2, 112960, Note_on_c, 1, 79, 127
2, 113040, Note_off_c, 1, 48, 0
2, 113080, Note_on_c, 1, 60, 127
2, 113080, Note_on_c, 1, 81, 127
2, 113160, Note_off_c, 1, 81, 0
2, 113200, Note_on_c, 1, 81, 127
2, 113240, Note_off_c, 1, 81, 0
2, 113440, Note_off_c, 1, 60, 0
2, 113480, Note_on_c, 1, 48, 127
2, 113840, Note_off_c, 1, 48, 0
2, 113880, Note_on_c, 1, 48, 127
2, 114240, Note_off_c, 1, 48, 0
2, 114280, Note_on_c, 1, 48, 127
2, 114640, Note_off_c, 1, 48, 0
2, 114680, Note_on_c, 1, 40, 127
2, 115040, Note_off_c, 1, 40, 0
2, 115080, Note_off_c, 1, 79, 0
2, 115120, Note_on_c, 1, 47, 127
2, 115120, Note_on_c, 1, 80, 127
2, 115480, Note_off_c, 1, 47, 0
2, 115520, Note_on_c, 1, 52, 127
2, 115880, Note_off_c, 1, 52, 0
2, 115920, Note_on_c, 1, 47, 127
2, 116280, Note_off_c, 1, 47, 0
2, 116320, Note_on_c, 1, 52, 127
2, 116680, Note_off_c, 1, 52, 0
2, 116720, Note_on_c, 1, 47, 127
2, 117080, Note_off_c, 1, 47, 0
2, 117120, Note_on_c, 1, 52, 127
2, 117480, Note_off_c, 1, 52, 0
2, 117480, Note_off_c, 1, 80, 0
2, 117520, Note_on_c, 1, 80, 127
2, 117560, Note_on_c, 1, 49, 127
2, 117920, Note_off_c, 1, 49, 0
2, 117960, Note_on_c, 1, 57, 127
2, 118320, Note_off_c, 1, 57, 0
2, 118360, Note_on_c, 1, 44, 127
2, 118720, Note_off_c, 1, 44, 0
2, 118760, Note_on_c, 1, 37, 127
2, 119120, Note_off_c, 1, 37, 0
2, 119160, Note_on_c, 1, 44, 127
2, 119520, Note_off_c, 1, 44, 0
2, 119560, Note_off_c, 1, 80, 0
2, 119600, Note_on_c, 1, 37, 127
2, 119600, Note_on_c, 1, 80, 127
2, 119960, Note_off_c, 1, 37, 0
2, 120000, Note_off_c, 1, 80, 0
2, 120040, End_track
3, 0, Start_track
3, 0, Title_t, "MIDI"
3, 1536, End_track
0, 0, End_of_file
