0, 0, Header, 1, 3, 192
1, 0, Start_track
1, 0, Time_signature, 4, 2, 24, 8
1, 0, Tempo, 500000
1, 120040, End_track
2, 0, Start_track
2, 0, Text_t, "random instrument: random person i dunno whatev"
2, 0, Title_t, "Track 1"
2, 0, Note_on_c, 1, 50, 127
2, 0, Note_on_c, 1, 57, 127
2, 0, Note_on_c, 1, 65, 127
2, 0, Note_on_c, 1, 69, 127
2, 0, Note_on_c, 1, 74, 127
2, 0, Note_on_c, 1, 77, 127
2, 0, Note_on_c, 1, 81, 127
2, 80, Note_off_c, 1, 50, 0
2, 80, Note_off_c, 1, 57, 0
2, 80, Note_off_c, 1, 65, 0
2, 80, Note_off_c, 1, 69, 0
2, 80, Note_off_c, 1, 74, 0
2, 80, Note_off_c, 1, 77, 0
2, 80, Note_off_c, 1, 81, 0
2, 120, Note_on_c, 1, 50, 127
2, 120, Note_on_c, 1, 57, 127
2, 120, Note_on_c, 1, 65, 127
2, 120, Note_on_c, 1, 69, 127
2, 120, Note_on_c, 1, 74, 127
2, 120, Note_on_c, 1, 77, 127
2, 120, Note_on_c, 1, 81, 127
2, 360, Note_off_c, 1, 50, 0
2, 360, Note_off_c, 1, 57, 0
2, 360, Note_off_c, 1, 65, 0
2, 360, Note_off_c, 1, 69, 0
2, 360, Note_off_c, 1, 74, 0
2, 360, Note_off_c, 1, 77, 0
2, 360, Note_off_c, 1, 81, 0
2, 400, Note_on_c, 1, 47, 127
2, 400, Note_on_c, 1, 59, 127
2, 400, Note_on_c, 1, 66, 127
2, 400, Note_on_c, 1, 71, 127
2, 400, Note_on_c, 1, 74, 127
2, 800, Note_off_c, 1, 47, 0
2, 800, Note_off_c, 1, 59, 0
2, 800, Note_off_c, 1, 66, 0
2, 800, Note_off_c, 1, 71, 0
2, 800, Note_off_c, 1, 74, 0
2, 840, Note_on_c, 1, 47, 127
2, 840, Note_on_c, 1, 63, 127
2, 840, Note_on_c, 1, 66, 127
2, 840, Note_on_c, 1, 71, 127
2, 960, Note_off_c, 1, 47, 0
2, 960, Note_off_c, 1, 63, 0
2, 960, Note_off_c, 1, 66, 0
2, 960, Note_off_c, 1, 71, 0
2, 5160, Note_on_c, 1, 48, 127
2, 5160, Note_on_c, 1, 55, 127
2, 5160, Note_on_c, 1, 60, 127
2, 5160, Note_on_c, 1, 64, 127
2, 5400, Note_off_c, 1, 48, 0
2, 5400, Note_off_c, 1, 55, 0
2, 5400, Note_off_c, 1, 60, 0
2, 5400, Note_off_c, 1, 64, 0
2, 5720, Note_on_c, 1, 62, 127
2, 5720, Note_on_c, 1, 69, 127
2, 5720, Note_on_c, 1, 74, 127
2, 5720, Note_on_c, 1, 77, 127
2, 5960, Note_off_c, 1, 62, 0
2, 5960, Note_off_c, 1, 69, 0
2, 5960, Note_off_c, 1, 74, 0
2, 5960, Note_off_c, 1, 77, 0
2, 6000, Note_on_c, 1, 57, 127
2, 6000, Note_on_c, 1, 67, 127
2, 6000, Note_on_c, 1, 73, 127
2, 6000, Note_on_c, 1, 76, 127
2, 6240, Note_off_c, 1, 57, 0
2, 6240, Note_off_c, 1, 67, 0
2, 6240, Note_off_c, 1, 73, 0
2, 6240, Note_off_c, 1, 76, 0
2, 6280, Note_on_c, 1, 57, 127
2, 6280, Note_on_c, 1, 65, 127
2, 6280, Note_on_c, 1, 69, 127
2, 6280, Note_on_c, 1, 74, 127
2, 6520, Note_off_c, 1, 57, 0
2, 6520, Note_off_c, 1, 65, 0
2, 6520, Note_off_c, 1, 69, 0
2, 6520, Note_off_c, 1, 74, 0
2, 6560, Note_on_c, 1, 48, 127
2, 6560, Note_on_c, 1, 55, 127
2, 6560, Note_on_c, 1, 64, 127
2, 6560, Note_on_c, 1, 67, 127
2, 6560, Note_on_c, 1, 72, 127
2, 6840, Note_off_c, 1, 48, 0
2, 6840, Note_off_c, 1, 55, 0
2, 6840, Note_off_c, 1, 64, 0
2, 6840, Note_off_c, 1, 67, 0
2, 6840, Note_off_c, 1, 72, 0
2, 6920, Note_on_c, 1, 48, 127
2, 6920, Note_on_c, 1, 55, 127
2, 6920, Note_on_c, 1, 64, 127
2, 6920, Note_on_c, 1, 67, 127
2, 6920, Note_on_c, 1, 72, 127
2, 7160, Note_off_c, 1, 48, 0
2, 7160, Note_off_c, 1, 55, 0
2, 7160, Note_off_c, 1, 64, 0
2, 7160, Note_off_c, 1, 67, 0
2, 7160, Note_off_c, 1, 72, 0
2, 7200, Note_on_c, 1, 48, 127
2, 7200, Note_on_c, 1, 55, 127
2, 7200, Note_on_c, 1, 64, 127
2, 7200, Note_on_c, 1, 67, 127
2, 7200, Note_on_c, 1, 72, 127
2, 7480, Note_off_c, 1, 48, 0
2, 7480, Note_off_c, 1, 55, 0
2, 7480, Note_off_c, 1, 64, 0
2, 7480, Note_off_c, 1, 67, 0
2, 7480, Note_off_c, 1, 72, 0
2, 7520, Note_on_c, 1, 28, 127
2, 7520, Note_on_c, 1, 40, 127
2, 7520, Note_on_c, 1, 60, 127
2, 7520, Note_on_c, 1, 72, 127
2, 7760, Note_off_c, 1, 28, 0
2, 7760, Note_off_c, 1, 40, 0
2, 7760, Note_off_c, 1, 60, 0
2, 7760, Note_off_c, 1, 72, 0
2, 7800, Note_on_c, 1, 29, 127
2, 7800, Note_on_c, 1, 41, 127
2, 7800, Note_on_c, 1, 62, 127
2, 7800, Note_on_c, 1, 74, 127
2, 8080, Note_off_c, 1, 29, 0
2, 8080, Note_off_c, 1, 41, 0
2, 8080, Note_off_c, 1, 62, 0
2, 8080, Note_off_c, 1, 74, 0
2, 8120, Note_on_c, 1, 30, 127
2, 8120, Note_on_c, 1, 42, 127
2, 8120, Note_on_c, 1, 57, 127
2, 8120, Note_on_c, 1, 69, 127
2, 8360, Note_off_c, 1, 30, 0
2, 8360, Note_off_c, 1, 42, 0
2, 8360, Note_off_c, 1, 57, 0
2, 8360, Note_off_c, 1, 69, 0
2, 8400, Note_on_c, 1, 48, 127
2, 8400, Note_on_c, 1, 64, 127
2, 8400, Note_on_c, 1, 69, 127
2, 8400, Note_on_c, 1, 73, 127
2, 8440, Note_off_c, 1, 48, 0
2, 8480, Note_on_c, 1, 48, 127
2, 8520, Note_off_c, 1, 48, 0
2, 8560, Note_on_c, 1, 48, 127
2, 8600, Note_off_c, 1, 48, 0
2, 8640, Note_on_c, 1, 45, 127
2, 8680, Note_off_c, 1, 45, 0
2, 8680, Note_off_c, 1, 64, 0
2, 8680, Note_off_c, 1, 69, 0
2, 8680, Note_off_c, 1, 73, 0
2, 8720, Note_on_c, 1, 45, 127
2, 8720, Note_on_c, 1, 64, 127
2, 8720, Note_on_c, 1, 69, 127
2, 8720, Note_on_c, 1, 73, 127
2, 8800, Note_off_c, 1, 45, 0
2, 8800, Note_off_c, 1, 64, 0
2, 8800, Note_off_c, 1, 69, 0
2, 8800, Note_off_c, 1, 73, 0
2, 8840, Note_on_c, 1, 45, 127
2, 8840, Note_on_c, 1, 64, 127
2, 8840, Note_on_c, 1, 69, 127
2, 8840, Note_on_c, 1, 73, 127
2, 9000, Note_off_c, 1, 45, 0
2, 9000, Note_off_c, 1, 64, 0
2, 9000, Note_off_c, 1, 69, 0
2, 9000, Note_off_c, 1, 73, 0
2, 9040, Note_on_c, 1, 42, 127
2, 9040, Note_on_c, 1, 69, 127
2, 9040, Note_on_c, 1, 73, 127
2, 9040, Note_on_c, 1, 78, 127
2, 9320, Note_off_c, 1, 42, 0
2, 9320, Note_off_c, 1, 69, 0
2, 9320, Note_off_c, 1, 73, 0
2, 9320, Note_off_c, 1, 78, 0
2, 9360, Note_on_c, 1, 42, 127
2, 9360, Note_on_c, 1, 73, 127
2, 9360, Note_on_c, 1, 78, 127
2, 9360, Note_on_c, 1, 81, 127
2, 9440, Note_off_c, 1, 73, 0
2, 9440, Note_off_c, 1, 78, 0
2, 9440, Note_off_c, 1, 81, 0
2, 9480, Note_on_c, 1, 73, 127
2, 9480, Note_on_c, 1, 78, 127
2, 9480, Note_on_c, 1, 81, 127
2, 9560, Note_off_c, 1, 73, 0
2, 9560, Note_off_c, 1, 78, 0
2, 9560, Note_off_c, 1, 81, 0
2, 9600, Note_off_c, 1, 42, 0
2, 9640, Note_on_c, 1, 42, 127
2, 9640, Note_on_c, 1, 73, 127
2, 9640, Note_on_c, 1, 78, 127
2, 9640, Note_on_c, 1, 81, 127
2, 9680, Note_off_c, 1, 73, 0
2, 9680, Note_off_c, 1, 78, 0
2, 9680, Note_off_c, 1, 81, 0
2, 9760, Note_off_c, 1, 42, 0
2, 9800, Note_on_c, 1, 42, 127
2, 9800, Note_on_c, 1, 73, 127
2, 9800, Note_on_c, 1, 78, 127
2, 9800, Note_on_c, 1, 81, 127
2, 9840, Note_off_c, 1, 73, 0
2, 9840, Note_off_c, 1, 78, 0
2, 9840, Note_off_c, 1, 81, 0
2, 9880, Note_off_c, 1, 42, 0
2, 9920, Note_on_c, 1, 45, 127
2, 9920, Note_on_c, 1, 69, 127
2, 9920, Note_on_c, 1, 73, 127
2, 9920, Note_on_c, 1, 78, 127
2, 10160, Note_off_c, 1, 69, 0
2, 10160, Note_off_c, 1, 73, 0
2, 10160, Note_off_c, 1, 78, 0
2, 10200, Note_off_c, 1, 45, 0
2, 10240, Note_on_c, 1, 45, 127
2, 10240, Note_on_c, 1, 69, 127
2, 10240, Note_on_c, 1, 73, 127
2, 10240, Note_on_c, 1, 78, 127
2, 10440, Note_off_c, 1, 69, 0
2, 10440, Note_off_c, 1, 73, 0
2, 10440, Note_off_c, 1, 78, 0
2, 10520, Note_on_c, 1, 69, 127
2, 10520, Note_on_c, 1, 73, 127
2, 10520, Note_on_c, 1, 78, 127
2, 10640, Note_off_c, 1, 69, 0
2, 10640, Note_off_c, 1, 73, 0
2, 10640, Note_off_c, 1, 78, 0
2, 10680, Note_on_c, 1, 57, 127
2, 10680, Note_on_c, 1, 66, 127
2, 10680, Note_on_c, 1, 78, 127
2, 10760, Note_off_c, 1, 57, 0
2, 10760, Note_off_c, 1, 66, 0
2, 10760, Note_off_c, 1, 78, 0
2, 10800, Note_off_c, 1, 45, 0
2, 10880, Note_on_c, 1, 45, 127
2, 10880, Note_on_c, 1, 72, 127
2, 10880, Note_on_c, 1, 78, 127
2, 10920, Note_off_c, 1, 72, 0
2, 10920, Note_off_c, 1, 78, 0
2, 11000, Note_off_c, 1, 45, 0
2, 11000, Note_on_c, 1, 64, 127
2, 11000, Note_on_c, 1, 70, 127
2, 11000, Note_on_c, 1, 73, 127
2, 11000, Note_on_c, 1, 76, 127
2, 11000, Note_on_c, 1, 82, 127
2, 11040, Note_off_c, 1, 64, 0
2, 11040, Note_off_c, 1, 70, 0
2, 11040, Note_off_c, 1, 73, 0
2, 11040, Note_off_c, 1, 76, 0
2, 11040, Note_off_c, 1, 82, 0
2, 11080, Note_on_c, 1, 45, 127
2, 11120, Note_off_c, 1, 45, 0
2, 11160, Note_on_c, 1, 46, 127
2, 11160, Note_on_c, 1, 73, 127
2, 11160, Note_on_c, 1, 78, 127
2, 11200, Note_off_c, 1, 73, 0
2, 11200, Note_off_c, 1, 78, 0
2, 11280, Note_off_c, 1, 46, 0
2, 11320, Note_on_c, 1, 50, 127
2, 11360, Note_off_c, 1, 50, 0
2, 11400, Note_on_c, 1, 46, 127
2, 11400, Note_on_c, 1, 67, 127
2, 11400, Note_on_c, 1, 76, 127
2, 11440, Note_off_c, 1, 46, 0
2, 11440, Note_off_c, 1, 67, 0
2, 11440, Note_off_c, 1, 76, 0
2, 11480, Note_on_c, 1, 46, 127
2, 11480, Note_on_c, 1, 67, 127
2, 11480, Note_on_c, 1, 76, 127
2, 11520, Note_off_c, 1, 46, 0
2, 11520, Note_off_c, 1, 67, 0
2, 11520, Note_off_c, 1, 76, 0
2, 11560, Note_on_c, 1, 47, 127
2, 11600, Note_off_c, 1, 47, 0
2, 11640, Note_on_c, 1, 47, 127
2, 11640, Note_on_c, 1, 73, 127
2, 11640, Note_on_c, 1, 76, 127
2, 11680, Note_off_c, 1, 73, 0
2, 11680, Note_off_c, 1, 76, 0
2, 11760, Note_off_c, 1, 47, 0
2, 11800, Note_on_c, 1, 47, 127
2, 11800, Note_on_c, 1, 73, 127
2, 11800, Note_on_c, 1, 76, 127
2, 11840, Note_off_c, 1, 73, 0
2, 11840, Note_off_c, 1, 76, 0
2, 11880, Note_off_c, 1, 47, 0
2, 11920, Note_on_c, 1, 45, 127
2, 11920, Note_on_c, 1, 75, 127
2, 11920, Note_on_c, 1, 78, 127
2, 12040, Note_off_c, 1, 75, 0
2, 12040, Note_off_c, 1, 78, 0
2, 12080, Note_on_c, 1, 75, 127
2, 12080, Note_on_c, 1, 78, 127
2, 12200, Note_off_c, 1, 75, 0
2, 12200, Note_off_c, 1, 78, 0
2, 12240, Note_on_c, 1, 54, 127
2, 12240, Note_on_c, 1, 69, 127
2, 12240, Note_on_c, 1, 73, 127
2, 12240, Note_on_c, 1, 78, 127
2, 12360, Note_off_c, 1, 54, 0
2, 12360, Note_off_c, 1, 69, 0
2, 12360, Note_off_c, 1, 73, 0
2, 12360, Note_off_c, 1, 78, 0
2, 12400, Note_on_c, 1, 52, 127
2, 12400, Note_on_c, 1, 57, 127
2, 12400, Note_on_c, 1, 61, 127
2, 12400, Note_on_c, 1, 69, 127
2, 12400, Note_on_c, 1, 73, 127
2, 12480, Note_off_c, 1, 45, 0
2, 12480, Note_off_c, 1, 52, 0
2, 12480, Note_off_c, 1, 57, 0
2, 12480, Note_off_c, 1, 61, 0
2, 12480, Note_off_c, 1, 69, 0
2, 12480, Note_off_c, 1, 73, 0
2, 12520, Note_on_c, 1, 45, 127
2, 12640, Note_off_c, 1, 45, 0
2, 12680, Note_on_c, 1, 40, 127
2, 12680, Note_on_c, 1, 72, 127
2, 12680, Note_on_c, 1, 81, 127
2, 12760, Note_off_c, 1, 40, 0
2, 12760, Note_off_c, 1, 72, 0
2, 12760, Note_off_c, 1, 81, 0
2, 12800, Note_on_c, 1, 42, 127
2, 12800, Note_on_c, 1, 81, 127
2, 12840, Note_off_c, 1, 42, 0
2, 12840, Note_on_c, 1, 45, 127
2, 12840, Note_off_c, 1, 81, 0
2, 12880, Note_on_c, 1, 40, 127
2, 12880, Note_off_c, 1, 45, 0
2, 12880, Note_on_c, 1, 72, 127
2, 12880, Note_on_c, 1, 81, 127
2, 13000, Note_off_c, 1, 40, 0
2, 13000, Note_on_c, 1, 45, 127
2, 13000, Note_off_c, 1, 72, 0
2, 13000, Note_off_c, 1, 81, 0
2, 13040, Note_on_c, 1, 40, 127
2, 13040, Note_off_c, 1, 45, 0
2, 13040, Note_on_c, 1, 72, 127
2, 13040, Note_on_c, 1, 81, 127
2, 13120, Note_off_c, 1, 40, 0
2, 13160, Note_on_c, 1, 40, 127
2, 13200, Note_off_c, 1, 72, 0
2, 13200, Note_off_c, 1, 81, 0
2, 13240, Note_on_c, 1, 75, 127
2, 13240, Note_on_c, 1, 78, 127
2, 13280, Note_off_c, 1, 40, 0
2, 13280, Note_off_c, 1, 75, 0
2, 13280, Note_off_c, 1, 78, 0
2, 13320, Note_on_c, 1, 47, 127
2, 13320, Note_on_c, 1, 74, 127
2, 13320, Note_on_c, 1, 79, 127
2, 13440, Note_off_c, 1, 47, 0
2, 13440, Note_on_c, 1, 50, 127
2, 13440, Note_off_c, 1, 74, 0
2, 13440, Note_off_c, 1, 79, 0
2, 13480, Note_on_c, 1, 47, 127
2, 13480, Note_off_c, 1, 50, 0
2, 13480, Note_on_c, 1, 79, 127
2, 13560, Note_off_c, 1, 47, 0
2, 13560, Note_off_c, 1, 79, 0
2, 13600, Note_on_c, 1, 47, 127
2, 13600, Note_on_c, 1, 71, 127
2, 13600, Note_on_c, 1, 74, 127
2, 13600, Note_on_c, 1, 79, 127
2, 13720, Note_off_c, 1, 71, 0
2, 13720, Note_off_c, 1, 74, 0
2, 13720, Note_off_c, 1, 79, 0
2, 13760, Note_on_c, 1, 71, 127
2, 13760, Note_on_c, 1, 74, 127
2, 13760, Note_on_c, 1, 79, 127
2, 13840, Note_off_c, 1, 71, 0
2, 13840, Note_off_c, 1, 74, 0
2, 13840, Note_off_c, 1, 79, 0
2, 13880, Note_off_c, 1, 47, 0
2, 13920, Note_on_c, 1, 47, 127
2, 13920, Note_on_c, 1, 71, 127
2, 13920, Note_on_c, 1, 74, 127
2, 13920, Note_on_c, 1, 79, 127
2, 14000, Note_off_c, 1, 71, 0
2, 14000, Note_off_c, 1, 74, 0
2, 14000, Note_off_c, 1, 79, 0
2, 14040, Note_off_c, 1, 47, 0
2, 14080, Note_on_c, 1, 50, 127
2, 14080, Note_on_c, 1, 67, 127
2, 14080, Note_on_c, 1, 71, 127
2, 14160, Note_off_c, 1, 67, 0
2, 14160, Note_off_c, 1, 71, 0
2, 14200, Note_on_c, 1, 42, 127
2, 14200, Note_off_c, 1, 50, 0
2, 14200, Note_on_c, 1, 62, 127
2, 14200, Note_on_c, 1, 69, 127
2, 14360, Note_off_c, 1, 42, 0
2, 14360, Note_on_c, 1, 46, 127
2, 14360, Note_on_c, 1, 51, 127
2, 14360, Note_on_c, 1, 54, 127
2, 14360, Note_on_c, 1, 58, 127
2, 14360, Note_off_c, 1, 62, 0
2, 14360, Note_off_c, 1, 69, 0
2, 14360, Note_on_c, 1, 70, 127
2, 14360, Note_on_c, 1, 82, 127
2, 14480, Note_off_c, 1, 46, 0
2, 14480, Note_on_c, 1, 50, 127
2, 14480, Note_off_c, 1, 51, 0
2, 14480, Note_off_c, 1, 54, 0
2, 14480, Note_off_c, 1, 58, 0
2, 14480, Note_off_c, 1, 70, 0
2, 14480, Note_off_c, 1, 82, 0
2, 14520, Note_on_c, 1, 45, 127
2, 14520, Note_off_c, 1, 50, 0
2, 14520, Note_on_c, 1, 52, 127
2, 14520, Note_on_c, 1, 71, 127
2, 14520, Note_on_c, 1, 76, 127
2, 14720, Note_off_c, 1, 45, 0
2, 14720, Note_off_c, 1, 52, 0
2, 14720, Note_off_c, 1, 71, 0
2, 14720, Note_off_c, 1, 76, 0
2, 14760, Note_on_c, 1, 45, 127
2, 14760, Note_on_c, 1, 52, 127
2, 14760, Note_on_c, 1, 71, 127
2, 14760, Note_on_c, 1, 76, 127
2, 14800, Note_off_c, 1, 45, 0
2, 14800, Note_off_c, 1, 52, 0
2, 14800, Note_off_c, 1, 71, 0
2, 14800, Note_off_c, 1, 76, 0
2, 14840, Note_on_c, 1, 45, 127
2, 14960, Note_off_c, 1, 45, 0
2, 15160, Note_on_c, 1, 62, 127
2, 15160, Note_on_c, 1, 66, 127
2, 15160, Note_on_c, 1, 69, 127
2, 15160, Note_on_c, 1, 74, 127
2, 15240, Note_off_c, 1, 62, 0
2, 15240, Note_off_c, 1, 66, 0
2, 15240, Note_off_c, 1, 69, 0
2, 15240, Note_off_c, 1, 74, 0
2, 15440, Note_on_c, 1, 33, 127
2, 15640, Note_off_c, 1, 33, 0
2, 16040, Note_on_c, 1, 62, 127
2, 16040, Note_on_c, 1, 66, 127
2, 16040, Note_on_c, 1, 74, 127
2, 16040, Note_on_c, 1, 78, 127
2, 16600, Note_off_c, 1, 62, 0
2, 16600, Note_off_c, 1, 66, 0
2, 16600, Note_off_c, 1, 74, 0
2, 16600, Note_off_c, 1, 78, 0
2, 16640, Note_on_c, 1, 59, 127
2, 16640, Note_on_c, 1, 62, 127
2, 16640, Note_on_c, 1, 71, 127
2, 16640, Note_on_c, 1, 74, 127
2, 16880, Note_off_c, 1, 59, 0
2, 16880, Note_off_c, 1, 62, 0
2, 16880, Note_off_c, 1, 71, 0
2, 16880, Note_off_c, 1, 74, 0
2, 16920, Note_on_c, 1, 61, 127
2, 16920, Note_on_c, 1, 64, 127
2, 16920, Note_on_c, 1, 73, 127
2, 16920, Note_on_c, 1, 76, 127
2, 17040, Note_off_c, 1, 61, 0
2, 17040, Note_off_c, 1, 64, 0
2, 17040, Note_off_c, 1, 73, 0
2, 17040, Note_off_c, 1, 76, 0
2, 17080, Note_on_c, 1, 61, 127
2, 17080, Note_on_c, 1, 64, 127
2, 17080, Note_on_c, 1, 73, 127
2, 17080, Note_on_c, 1, 76, 127
2, 17240, Note_off_c, 1, 61, 0
2, 17240, Note_off_c, 1, 64, 0
2, 17240, Note_off_c, 1, 73, 0
2, 17240, Note_off_c, 1, 76, 0
2, 17280, Note_on_c, 1, 62, 127
2, 17280, Note_on_c, 1, 66, 127
2, 17280, Note_on_c, 1, 74, 127
2, 17280, Note_on_c, 1, 78, 127
2, 17520, Note_off_c, 1, 62, 0
2, 17520, Note_off_c, 1, 66, 0
2, 17520, Note_off_c, 1, 74, 0
2, 17520, Note_off_c, 1, 78, 0
2, 17560, Note_on_c, 1, 61, 127
2, 17560, Note_on_c, 1, 64, 127
2, 17560, Note_on_c, 1, 73, 127
2, 17560, Note_on_c, 1, 76, 127
2, 18120, Note_off_c, 1, 61, 0
2, 18120, Note_off_c, 1, 64, 0
2, 18120, Note_off_c, 1, 73, 0
2, 18120, Note_off_c, 1, 76, 0
2, 18160, Note_on_c, 1, 62, 127
2, 18160, Note_on_c, 1, 66, 127
2, 18160, Note_on_c, 1, 74, 127
2, 18160, Note_on_c, 1, 78, 127
2, 18720, Note_off_c, 1, 62, 0
2, 18720, Note_off_c, 1, 66, 0
2, 18720, Note_off_c, 1, 74, 0
2, 18720, Note_off_c, 1, 78, 0
2, 18760, Note_on_c, 1, 62, 127
2, 18760, Note_on_c, 1, 66, 127
2, 18760, Note_on_c, 1, 74, 127
2, 18760, Note_on_c, 1, 78, 127
2, 19000, Note_off_c, 1, 62, 0
2, 19000, Note_off_c, 1, 66, 0
2, 19000, Note_off_c, 1, 74, 0
2, 19000, Note_off_c, 1, 78, 0
2, 19040, Note_on_c, 1, 59, 127
2, 19040, Note_on_c, 1, 62, 127
2, 19040, Note_on_c, 1, 71, 127
2, 19040, Note_on_c, 1, 74, 127
2, 19160, Note_off_c, 1, 59, 0
2, 19160, Note_off_c, 1, 62, 0
2, 19160, Note_off_c, 1, 71, 0
2, 19160, Note_off_c, 1, 74, 0
2, 19200, Note_on_c, 1, 59, 127
2, 19200, Note_on_c, 1, 62, 127
2, 19200, Note_on_c, 1, 71, 127
2, 19200, Note_on_c, 1, 74, 127
2, 19360, Note_off_c, 1, 59, 0
2, 19360, Note_off_c, 1, 62, 0
2, 19360, Note_off_c, 1, 71, 0
2, 19360, Note_off_c, 1, 74, 0
2, 19400, Note_on_c, 1, 61, 127
2, 19400, Note_on_c, 1, 64, 127
2, 19400, Note_on_c, 1, 73, 127
2, 19400, Note_on_c, 1, 76, 127
2, 19640, Note_off_c, 1, 61, 0
2, 19640, Note_off_c, 1, 64, 0
2, 19640, Note_off_c, 1, 73, 0
2, 19640, Note_off_c, 1, 76, 0
2, 19680, Note_on_c, 1, 62, 127
2, 19680, Note_on_c, 1, 66, 127
2, 19680, Note_on_c, 1, 74, 127
2, 19680, Note_on_c, 1, 78, 127
2, 19960, Note_off_c, 1, 62, 0
2, 19960, Note_off_c, 1, 66, 0
2, 19960, Note_off_c, 1, 74, 0
2, 19960, Note_off_c, 1, 78, 0
2, 20000, Note_on_c, 1, 66, 127
2, 20000, Note_on_c, 1, 69, 127
2, 20000, Note_on_c, 1, 78, 127
2, 20000, Note_on_c, 1, 81, 127
2, 20240, Note_off_c, 1, 66, 0
2, 20240, Note_off_c, 1, 69, 0
2, 20240, Note_off_c, 1, 78, 0
2, 20240, Note_off_c, 1, 81, 0
2, 20280, Note_on_c, 1, 64, 127
2, 20280, Note_on_c, 1, 67, 127
2, 20280, Note_on_c, 1, 76, 127
2, 20280, Note_on_c, 1, 79, 127
2, 20520, Note_off_c, 1, 64, 0
2, 20520, Note_off_c, 1, 67, 0
2, 20520, Note_off_c, 1, 76, 0
2, 20520, Note_off_c, 1, 79, 0
2, 20560, Note_on_c, 1, 66, 127
2, 20560, Note_on_c, 1, 69, 127
2, 20560, Note_on_c, 1, 74, 127
2, 20560, Note_on_c, 1, 78, 127
2, 20760, Note_off_c, 1, 66, 0
2, 20760, Note_off_c, 1, 69, 0
2, 20760, Note_off_c, 1, 74, 0
2, 20760, Note_off_c, 1, 78, 0
2, 20800, Note_on_c, 1, 59, 127
2, 20800, Note_on_c, 1, 64, 127
2, 20800, Note_on_c, 1, 68, 127
2, 20800, Note_on_c, 1, 71, 127
2, 20800, Note_on_c, 1, 76, 127
2, 20800, Note_on_c, 1, 80, 127
2, 21120, Note_off_c, 1, 59, 0
2, 21120, Note_off_c, 1, 64, 0
2, 21120, Note_off_c, 1, 68, 0
2, 21120, Note_off_c, 1, 71, 0
2, 21120, Note_off_c, 1, 76, 0
2, 21120, Note_off_c, 1, 80, 0
2, 21160, Note_on_c, 1, 59, 127
2, 21160, Note_on_c, 1, 64, 127
2, 21160, Note_on_c, 1, 68, 127
2, 21160, Note_on_c, 1, 71, 127
2, 21160, Note_on_c, 1, 76, 127
2, 21160, Note_on_c, 1, 80, 127
2, 21280, Note_off_c, 1, 59, 0
2, 21280, Note_off_c, 1, 64, 0
2, 21280, Note_off_c, 1, 68, 0
2, 21280, Note_off_c, 1, 71, 0
2, 21280, Note_off_c, 1, 76, 0
2, 21280, Note_off_c, 1, 80, 0
2, 21360, Note_on_c, 1, 54, 127
2, 21360, Note_on_c, 1, 59, 127
2, 21360, Note_on_c, 1, 62, 127
2, 21360, Note_on_c, 1, 65, 127
2, 21360, Note_on_c, 1, 95, 127
2, 21400, Note_off_c, 1, 54, 0
2, 21400, Note_off_c, 1, 59, 0
2, 21400, Note_off_c, 1, 62, 0
2, 21400, Note_off_c, 1, 65, 0
2, 21400, Note_off_c, 1, 95, 0
2, 21640, Note_on_c, 1, 40, 127
2, 21640, Note_on_c, 1, 49, 127
2, 21640, Note_on_c, 1, 57, 127
2, 21640, Note_on_c, 1, 59, 127
2, 21640, Note_on_c, 1, 64, 127
2, 22200, Note_off_c, 1, 40, 0
2, 22200, Note_off_c, 1, 49, 0
2, 22200, Note_off_c, 1, 57, 0
2, 22200, Note_off_c, 1, 59, 0
2, 22200, Note_off_c, 1, 64, 0
2, 22240, Note_on_c, 1, 40, 127
2, 22240, Note_on_c, 1, 49, 127
2, 22240, Note_on_c, 1, 57, 127
2, 22240, Note_on_c, 1, 59, 127
2, 22240, Note_on_c, 1, 64, 127
2, 22720, Note_off_c, 1, 40, 0
2, 22720, Note_off_c, 1, 49, 0
2, 22720, Note_off_c, 1, 57, 0
2, 22720, Note_off_c, 1, 59, 0
2, 22720, Note_off_c, 1, 64, 0
2, 22840, Note_on_c, 1, 50, 127
2, 22840, Note_on_c, 1, 57, 127
2, 22840, Note_on_c, 1, 62, 127
2, 22840, Note_on_c, 1, 66, 127
2, 23040, Note_off_c, 1, 50, 0
2, 23040, Note_off_c, 1, 57, 0
2, 23040, Note_off_c, 1, 62, 0
2, 23040, Note_off_c, 1, 66, 0
2, 23160, Note_on_c, 1, 50, 127
2, 23160, Note_on_c, 1, 57, 127
2, 23160, Note_on_c, 1, 62, 127
2, 23160, Note_on_c, 1, 66, 127
2, 23160, Note_on_c, 1, 74, 127
2, 24320, Note_off_c, 1, 50, 0
2, 24320, Note_off_c, 1, 57, 0
2, 24320, Note_off_c, 1, 62, 0
2, 24320, Note_off_c, 1, 66, 0
2, 24320, Note_off_c, 1, 74, 0
2, 24360, Note_on_c, 1, 57, 127
2, 24600, Note_off_c, 1, 57, 0
2, 24640, Note_on_c, 1, 66, 127
2, 24920, Note_off_c, 1, 66, 0
2, 24960, Note_on_c, 1, 69, 127
2, 25280, Note_off_c, 1, 69, 0
2, 25320, Note_on_c, 1, 69, 127
2, 25840, Note_off_c, 1, 69, 0
2, 25880, Note_on_c, 1, 69, 127
2, 26160, Note_off_c, 1, 69, 0
2, 26200, Note_on_c, 1, 66, 127
2, 26760, Note_off_c, 1, 66, 0
2, 26800, Note_on_c, 1, 68, 127
2, 27320, Note_off_c, 1, 68, 0
2, 27360, Note_on_c, 1, 43, 127
2, 27360, Note_on_c, 1, 72, 127
2, 27560, Note_off_c, 1, 43, 0
2, 27560, Note_off_c, 1, 72, 0
2, 27600, Note_on_c, 1, 43, 127
2, 27600, Note_on_c, 1, 72, 127
2, 27960, Note_off_c, 1, 72, 0
2, 28000, Note_on_c, 1, 71, 127
2, 28440, Note_off_c, 1, 43, 0
2, 28440, Note_off_c, 1, 71, 0
2, 28480, Note_on_c, 1, 50, 127
2, 28480, Note_on_c, 1, 57, 127
2, 28480, Note_on_c, 1, 74, 127
2, 28760, Note_off_c, 1, 57, 0
2, 28800, Note_on_c, 1, 66, 127
2, 28880, Note_off_c, 1, 66, 0
2, 29000, Note_on_c, 1, 66, 127
2, 29040, Note_off_c, 1, 66, 0
2, 29080, Note_on_c, 1, 60, 127
2, 29200, Note_off_c, 1, 60, 0
2, 29240, Note_on_c, 1, 60, 127
2, 29360, Note_off_c, 1, 60, 0
2, 29400, Note_on_c, 1, 60, 127
2, 29480, Note_off_c, 1, 60, 0
2, 29600, Note_off_c, 1, 50, 0
2, 29600, Note_off_c, 1, 74, 0
2, 29640, Note_on_c, 1, 50, 127
2, 29640, Note_on_c, 1, 74, 127
2, 29720, Note_on_c, 1, 69, 127
2, 29960, Note_off_c, 1, 50, 0
2, 29960, Note_off_c, 1, 69, 0
2, 29960, Note_off_c, 1, 74, 0
2, 30000, Note_on_c, 1, 50, 127
2, 30000, Note_on_c, 1, 54, 127
2, 30000, Note_on_c, 1, 74, 127
2, 30440, Note_off_c, 1, 54, 0
2, 30440, Note_on_c, 1, 60, 127
2, 30560, Note_off_c, 1, 50, 0
2, 30560, Note_off_c, 1, 60, 0
2, 30560, Note_off_c, 1, 74, 0
2, 30600, Note_on_c, 1, 57, 127
2, 30600, Note_on_c, 1, 72, 127
2, 30840, Note_off_c, 1, 57, 0
2, 30880, Note_on_c, 1, 55, 127
2, 31160, Note_off_c, 1, 55, 0
2, 31200, Note_on_c, 1, 62, 127
2, 31480, Note_off_c, 1, 62, 0
2, 31480, Note_off_c, 1, 72, 0
2, 31560, Note_on_c, 1, 55, 127
2, 31560, Note_on_c, 1, 72, 127
2, 31800, Note_off_c, 1, 55, 0
2, 31800, Note_off_c, 1, 72, 0
2, 31840, Note_on_c, 1, 62, 127
2, 31840, Note_on_c, 1, 71, 127
2, 32120, Note_off_c, 1, 62, 0
2, 32120, Note_off_c, 1, 71, 0
2, 32160, Note_on_c, 1, 55, 127
2, 32160, Note_on_c, 1, 72, 127
2, 32320, Note_on_c, 1, 71, 127
2, 32320, Note_off_c, 1, 72, 0
2, 32720, Note_off_c, 1, 55, 0
2, 32720, Note_off_c, 1, 71, 0
2, 32760, Note_on_c, 1, 59, 127
2, 32760, Note_on_c, 1, 74, 127
2, 33040, Note_off_c, 1, 59, 0
2, 33040, Note_off_c, 1, 74, 0
2, 33080, Note_on_c, 1, 57, 127
2, 33080, Note_on_c, 1, 72, 127
2, 33640, Note_off_c, 1, 57, 0
2, 33640, Note_off_c, 1, 72, 0
2, 33720, Note_on_c, 1, 54, 127
2, 33720, Note_on_c, 1, 72, 127
2, 34000, Note_off_c, 1, 72, 0
2, 34040, Note_on_c, 1, 69, 127
2, 34600, Note_off_c, 1, 54, 0
2, 34600, Note_off_c, 1, 69, 0
2, 34640, Note_on_c, 1, 55, 127
2, 34640, Note_on_c, 1, 71, 127
2, 35880, Note_off_c, 1, 55, 0
2, 35880, Note_off_c, 1, 71, 0
2, 35920, Note_on_c, 1, 72, 127
2, 36160, Note_off_c, 1, 72, 0
2, 36200, Note_on_c, 1, 72, 127
2, 36240, Note_off_c, 1, 72, 0
2, 36280, Note_on_c, 1, 74, 127
2, 36560, Note_off_c, 1, 74, 0
2, 36600, Note_on_c, 1, 59, 127
2, 36600, Note_on_c, 1, 74, 127
2, 37520, Note_off_c, 1, 59, 0
2, 37520, Note_off_c, 1, 74, 0
2, 37560, Note_on_c, 1, 60, 127
2, 37560, Note_on_c, 1, 76, 127
2, 38160, Note_off_c, 1, 60, 0
2, 38160, Note_off_c, 1, 76, 0
2, 38200, Note_on_c, 1, 59, 127
2, 38200, Note_on_c, 1, 74, 127
2, 38480, Note_off_c, 1, 59, 0
2, 38480, Note_off_c, 1, 74, 0
2, 38560, Note_on_c, 1, 55, 127
2, 38560, Note_on_c, 1, 74, 127
2, 38680, Note_off_c, 1, 74, 0
2, 38720, Note_on_c, 1, 76, 127
2, 38800, Note_off_c, 1, 76, 0
2, 38840, Note_on_c, 1, 74, 127
2, 38960, Note_off_c, 1, 74, 0
2, 39000, Note_on_c, 1, 76, 127
2, 39040, Note_off_c, 1, 76, 0
2, 39080, Note_on_c, 1, 76, 127
2, 39120, Note_off_c, 1, 55, 0
2, 39120, Note_off_c, 1, 76, 0
2, 39160, Note_on_c, 1, 59, 127
2, 39160, Note_on_c, 1, 79, 127
2, 39440, Note_off_c, 1, 59, 0
2, 39440, Note_off_c, 1, 79, 0
2, 39480, Note_on_c, 1, 60, 127
2, 39480, Note_on_c, 1, 76, 127
2, 39600, Note_off_c, 1, 76, 0
2, 39640, Note_on_c, 1, 67, 127
2, 39720, Note_off_c, 1, 67, 0
2, 39760, Note_off_c, 1, 60, 0
2, 39800, Note_on_c, 1, 47, 127
2, 39800, Note_on_c, 1, 59, 127
2, 39800, Note_on_c, 1, 74, 127
2, 39920, Note_on_c, 1, 62, 127
2, 39920, Note_on_c, 1, 66, 127
2, 39960, Note_off_c, 1, 62, 0
2, 39960, Note_off_c, 1, 66, 0
2, 40040, Note_off_c, 1, 47, 0
2, 40040, Note_off_c, 1, 59, 0
2, 40040, Note_off_c, 1, 74, 0
2, 40080, Note_on_c, 1, 55, 127
2, 40080, Note_on_c, 1, 67, 127
2, 40360, Note_off_c, 1, 55, 0
2, 40400, Note_on_c, 1, 50, 127
2, 40440, Note_on_c, 1, 47, 127
2, 40440, Note_off_c, 1, 50, 0
2, 40480, Note_off_c, 1, 47, 0
2, 40560, Note_on_c, 1, 55, 127
2, 40640, Note_off_c, 1, 55, 0
2, 40640, Note_off_c, 1, 67, 0
2, 40680, Note_on_c, 1, 55, 127
2, 40680, Note_on_c, 1, 67, 127
2, 40720, Note_off_c, 1, 55, 0
2, 40720, Note_off_c, 1, 67, 0
2, 40760, Note_on_c, 1, 50, 127
2, 41040, Note_off_c, 1, 50, 0
2, 41080, Note_on_c, 1, 47, 127
2, 41080, Note_on_c, 1, 62, 127
2, 41360, Note_off_c, 1, 47, 0
2, 41360, Note_off_c, 1, 62, 0
2, 41400, Note_on_c, 1, 48, 127
2, 41400, Note_on_c, 1, 64, 127
2, 41680, Note_off_c, 1, 48, 0
2, 41680, Note_off_c, 1, 64, 0
2, 41720, Note_on_c, 1, 50, 127
2, 41720, Note_on_c, 1, 59, 127
2, 41720, Note_on_c, 1, 67, 127
2, 42000, Note_off_c, 1, 59, 0
2, 42000, Note_off_c, 1, 67, 0
2, 42040, Note_on_c, 1, 59, 127
2, 42040, Note_on_c, 1, 62, 127
2, 42280, Note_off_c, 1, 50, 0
2, 42280, Note_off_c, 1, 59, 0
2, 42320, Note_on_c, 1, 50, 127
2, 42320, Note_on_c, 1, 59, 127
2, 42600, Note_off_c, 1, 50, 0
2, 42600, Note_off_c, 1, 59, 0
2, 42640, Note_on_c, 1, 50, 127
2, 42640, Note_on_c, 1, 59, 127
2, 42760, Note_off_c, 1, 50, 0
2, 42760, Note_off_c, 1, 59, 0
2, 42760, Note_off_c, 1, 62, 0
2, 42800, Note_on_c, 1, 50, 127
2, 42800, Note_on_c, 1, 59, 127
2, 42800, Note_on_c, 1, 62, 127
2, 42960, Note_off_c, 1, 50, 0
2, 42960, Note_off_c, 1, 59, 0
2, 43000, Note_on_c, 1, 50, 127
2, 43000, Note_on_c, 1, 59, 127
2, 43240, Note_off_c, 1, 50, 0
2, 43240, Note_off_c, 1, 59, 0
2, 43240, Note_off_c, 1, 62, 0
2, 43280, Note_on_c, 1, 43, 127
2, 43280, Note_on_c, 1, 67, 127
2, 43560, Note_off_c, 1, 43, 0
2, 43600, Note_on_c, 1, 50, 127
2, 43600, Note_on_c, 1, 59, 127
2, 43880, Note_off_c, 1, 59, 0
2, 43880, Note_off_c, 1, 67, 0
2, 43920, Note_on_c, 1, 59, 127
2, 43920, Note_on_c, 1, 62, 127
2, 44160, Note_off_c, 1, 50, 0
2, 44160, Note_off_c, 1, 59, 0
2, 44160, Note_off_c, 1, 62, 0
2, 44200, Note_on_c, 1, 43, 127
2, 44200, Note_on_c, 1, 67, 127
2, 44320, Note_off_c, 1, 67, 0
2, 44560, Note_on_c, 1, 59, 127
2, 44600, Note_off_c, 1, 59, 0
2, 44600, Note_on_c, 1, 62, 127
2, 44640, Note_off_c, 1, 43, 0
2, 44640, Note_off_c, 1, 62, 0
2, 44720, Note_on_c, 1, 43, 127
2, 44880, Note_on_c, 1, 59, 127
2, 45000, Note_off_c, 1, 59, 0
2, 45040, Note_on_c, 1, 62, 127
2, 45160, Note_off_c, 1, 43, 0
2, 45160, Note_off_c, 1, 62, 0
2, 45200, Note_on_c, 1, 58, 127
2, 45200, Note_on_c, 1, 62, 127
2, 45320, Note_off_c, 1, 62, 0
2, 45360, Note_on_c, 1, 66, 127
2, 45480, Note_off_c, 1, 58, 0
2, 45480, Note_off_c, 1, 66, 0
2, 45520, Note_on_c, 1, 36, 127
2, 45520, Note_on_c, 1, 64, 127
2, 45800, Note_off_c, 1, 36, 0
2, 46280, Note_off_c, 1, 64, 0
2, 46320, Note_on_c, 1, 55, 127
2, 46720, Note_off_c, 1, 55, 0
2, 46760, Note_on_c, 1, 55, 127
2, 46960, Note_off_c, 1, 55, 0
2, 47000, Note_on_c, 1, 52, 127
2, 48880, Note_off_c, 1, 52, 0
2, 48920, Note_on_c, 1, 52, 127
2, 50040, Note_off_c, 1, 52, 0
2, 59520, Note_on_c, 1, 79, 127
2, 60080, Note_off_c, 1, 79, 0
2, 60120, Note_on_c, 1, 43, 127
2, 60120, Note_on_c, 1, 50, 127
2, 60120, Note_on_c, 1, 53, 127
2, 60120, Note_on_c, 1, 59, 127
2, 60680, Note_off_c, 1, 43, 0
2, 60680, Note_off_c, 1, 50, 0
2, 60680, Note_off_c, 1, 53, 0
2, 60680, Note_off_c, 1, 59, 0
2, 60720, Note_on_c, 1, 43, 127
2, 60720, Note_on_c, 1, 55, 127
2, 60720, Note_on_c, 1, 71, 127
2, 60920, Note_off_c, 1, 43, 0
2, 60920, Note_off_c, 1, 55, 0
2, 61040, Note_on_c, 1, 55, 127
2, 61040, Note_on_c, 1, 62, 127
2, 61280, Note_off_c, 1, 55, 0
2, 61280, Note_off_c, 1, 62, 0
2, 61280, Note_off_c, 1, 71, 0
2, 61320, Note_on_c, 1, 55, 127
2, 61320, Note_on_c, 1, 60, 127
2, 61320, Note_on_c, 1, 69, 127
2, 61600, Note_off_c, 1, 55, 0
2, 61600, Note_off_c, 1, 60, 0
2, 61600, Note_off_c, 1, 69, 0
2, 61600, Note_on_c, 1, 72, 127
2, 61640, Note_on_c, 1, 41, 127
2, 61880, Note_off_c, 1, 41, 0
2, 61960, Note_off_c, 1, 72, 0
2, 62000, Note_on_c, 1, 48, 127
2, 62000, Note_on_c, 1, 62, 127
2, 62000, Note_on_c, 1, 72, 127
2, 62160, Note_off_c, 1, 48, 0
2, 62160, Note_on_c, 1, 50, 127
2, 62280, Note_off_c, 1, 62, 0
2, 62320, Note_on_c, 1, 60, 127
2, 62480, Note_off_c, 1, 60, 0
2, 62520, Note_on_c, 1, 62, 127
2, 62560, Note_on_c, 1, 48, 127
2, 62560, Note_off_c, 1, 50, 0
2, 62560, Note_off_c, 1, 62, 0
2, 62560, Note_off_c, 1, 72, 0
2, 62600, Note_off_c, 1, 48, 0
2, 62600, Note_on_c, 1, 50, 127
2, 62600, Note_on_c, 1, 62, 127
2, 62600, Note_on_c, 1, 72, 127
2, 62880, Note_off_c, 1, 50, 0
2, 62880, Note_off_c, 1, 62, 0
2, 62920, Note_on_c, 1, 52, 127
2, 62920, Note_on_c, 1, 60, 127
2, 63160, Note_off_c, 1, 52, 0
2, 63160, Note_off_c, 1, 60, 0
2, 63200, Note_on_c, 1, 51, 127
2, 63200, Note_on_c, 1, 69, 127
2, 63480, Note_off_c, 1, 51, 0
2, 63480, Note_off_c, 1, 69, 0
2, 63520, Note_on_c, 1, 48, 127
2, 63520, Note_on_c, 1, 53, 127
2, 63520, Note_on_c, 1, 69, 127
2, 63760, Note_off_c, 1, 53, 0
2, 63760, Note_off_c, 1, 69, 0
2, 63760, Note_off_c, 1, 72, 0
2, 63800, Note_on_c, 1, 52, 127
2, 63800, Note_on_c, 1, 67, 127
2, 63800, Note_on_c, 1, 74, 127
2, 64080, Note_off_c, 1, 52, 0
2, 64080, Note_off_c, 1, 67, 0
2, 64080, Note_off_c, 1, 74, 0
2, 64120, Note_off_c, 1, 48, 0
2, 64160, Note_on_c, 1, 48, 127
2, 64160, Note_on_c, 1, 50, 127
2, 64160, Note_on_c, 1, 65, 127
2, 64160, Note_on_c, 1, 76, 127
2, 64400, Note_off_c, 1, 48, 0
2, 64400, Note_off_c, 1, 50, 0
2, 64400, Note_off_c, 1, 65, 0
2, 64400, Note_off_c, 1, 76, 0
2, 64440, Note_on_c, 1, 48, 127
2, 64440, Note_on_c, 1, 55, 127
2, 64440, Note_on_c, 1, 64, 127
2, 64440, Note_on_c, 1, 70, 127
2, 64440, Note_on_c, 1, 76, 127
2, 64720, Note_off_c, 1, 48, 0
2, 64720, Note_off_c, 1, 55, 0
2, 64720, Note_off_c, 1, 64, 0
2, 64720, Note_off_c, 1, 70, 0
2, 64720, Note_off_c, 1, 76, 0
2, 64760, Note_on_c, 1, 43, 127
2, 64760, Note_on_c, 1, 48, 127
2, 64760, Note_on_c, 1, 60, 127
2, 64760, Note_on_c, 1, 72, 127
2, 65000, Note_off_c, 1, 43, 0
2, 65000, Note_off_c, 1, 48, 0
2, 65000, Note_off_c, 1, 60, 0
2, 65000, Note_off_c, 1, 72, 0
2, 65040, Note_on_c, 1, 44, 127
2, 65040, Note_on_c, 1, 48, 127
2, 65040, Note_on_c, 1, 60, 127
2, 65040, Note_on_c, 1, 72, 127
2, 65320, Note_off_c, 1, 44, 0
2, 65320, Note_off_c, 1, 48, 0
2, 65320, Note_off_c, 1, 60, 0
2, 65320, Note_off_c, 1, 72, 0
2, 65360, Note_on_c, 1, 44, 127
2, 65360, Note_on_c, 1, 48, 127
2, 65360, Note_on_c, 1, 60, 127
2, 65360, Note_on_c, 1, 72, 127
2, 65480, Note_off_c, 1, 60, 0
2, 65480, Note_off_c, 1, 72, 0
2, 65520, Note_on_c, 1, 60, 127
2, 65520, Note_on_c, 1, 72, 127
2, 65600, Note_off_c, 1, 60, 0
2, 65600, Note_off_c, 1, 72, 0
2, 65640, Note_off_c, 1, 44, 0
2, 65640, Note_off_c, 1, 48, 0
2, 65680, Note_on_c, 1, 44, 127
2, 65680, Note_on_c, 1, 48, 127
2, 65680, Note_on_c, 1, 60, 127
2, 65680, Note_on_c, 1, 72, 127
2, 65800, Note_off_c, 1, 60, 0
2, 65800, Note_off_c, 1, 72, 0
2, 65840, Note_on_c, 1, 60, 127
2, 65840, Note_on_c, 1, 72, 127
2, 65920, Note_off_c, 1, 60, 0
2, 65920, Note_off_c, 1, 72, 0
2, 65960, Note_off_c, 1, 44, 0
2, 65960, Note_off_c, 1, 48, 0
2, 66000, Note_on_c, 1, 44, 127
2, 66000, Note_on_c, 1, 48, 127
2, 66000, Note_on_c, 1, 60, 127
2, 66000, Note_on_c, 1, 72, 127
2, 66120, Note_off_c, 1, 60, 0
2, 66120, Note_off_c, 1, 72, 0
2, 66160, Note_on_c, 1, 60, 127
2, 66160, Note_on_c, 1, 72, 127
2, 66240, Note_off_c, 1, 60, 0
2, 66240, Note_off_c, 1, 72, 0
2, 66280, Note_off_c, 1, 44, 0
2, 66280, Note_off_c, 1, 48, 0
2, 66360, Note_on_c, 1, 46, 127
2, 66360, Note_on_c, 1, 55, 127
2, 66360, Note_on_c, 1, 60, 127
2, 66360, Note_on_c, 1, 67, 127
2, 66360, Note_on_c, 1, 72, 127
2, 66480, Note_off_c, 1, 60, 0
2, 66480, Note_off_c, 1, 72, 0
2, 66520, Note_on_c, 1, 60, 127
2, 66520, Note_on_c, 1, 72, 127
2, 66640, Note_off_c, 1, 46, 0
2, 66640, Note_off_c, 1, 55, 0
2, 66640, Note_off_c, 1, 60, 0
2, 66640, Note_off_c, 1, 67, 0
2, 66640, Note_off_c, 1, 72, 0
2, 66680, Note_on_c, 1, 46, 127
2, 66680, Note_on_c, 1, 55, 127
2, 66680, Note_on_c, 1, 60, 127
2, 66680, Note_on_c, 1, 67, 127
2, 66680, Note_on_c, 1, 72, 127
2, 66800, Note_off_c, 1, 60, 0
2, 66800, Note_off_c, 1, 72, 0
2, 66840, Note_on_c, 1, 60, 127
2, 66840, Note_on_c, 1, 72, 127
2, 66960, Note_off_c, 1, 46, 0
2, 66960, Note_off_c, 1, 55, 0
2, 66960, Note_off_c, 1, 60, 0
2, 66960, Note_off_c, 1, 67, 0
2, 66960, Note_off_c, 1, 72, 0
2, 67000, Note_on_c, 1, 46, 127
2, 67000, Note_on_c, 1, 55, 127
2, 67000, Note_on_c, 1, 60, 127
2, 67000, Note_on_c, 1, 67, 127
2, 67000, Note_on_c, 1, 72, 127
2, 67120, Note_off_c, 1, 60, 0
2, 67120, Note_off_c, 1, 72, 0
2, 67160, Note_on_c, 1, 60, 127
2, 67160, Note_on_c, 1, 72, 127
2, 67240, Note_off_c, 1, 60, 0
2, 67240, Note_off_c, 1, 72, 0
2, 67280, Note_off_c, 1, 46, 0
2, 67280, Note_off_c, 1, 55, 0
2, 67280, Note_off_c, 1, 67, 0
2, 67320, Note_on_c, 1, 44, 127
2, 67320, Note_on_c, 1, 53, 127
2, 67320, Note_on_c, 1, 60, 127
2, 67320, Note_on_c, 1, 65, 127
2, 67320, Note_on_c, 1, 72, 127
2, 67440, Note_off_c, 1, 60, 0
2, 67440, Note_off_c, 1, 72, 0
2, 67480, Note_on_c, 1, 60, 127
2, 67480, Note_on_c, 1, 72, 127
2, 67600, Note_off_c, 1, 44, 0
2, 67600, Note_off_c, 1, 53, 0
2, 67600, Note_off_c, 1, 60, 0
2, 67600, Note_off_c, 1, 65, 0
2, 67600, Note_off_c, 1, 72, 0
2, 67640, Note_on_c, 1, 44, 127
2, 67640, Note_on_c, 1, 53, 127
2, 67640, Note_on_c, 1, 60, 127
2, 67640, Note_on_c, 1, 65, 127
2, 67640, Note_on_c, 1, 72, 127
2, 67760, Note_off_c, 1, 60, 0
2, 67760, Note_off_c, 1, 72, 0
2, 67800, Note_on_c, 1, 60, 127
2, 67800, Note_on_c, 1, 72, 127
2, 67920, Note_off_c, 1, 44, 0
2, 67920, Note_off_c, 1, 53, 0
2, 67920, Note_off_c, 1, 60, 0
2, 67920, Note_off_c, 1, 65, 0
2, 67920, Note_off_c, 1, 72, 0
2, 67960, Note_on_c, 1, 44, 127
2, 67960, Note_on_c, 1, 53, 127
2, 67960, Note_on_c, 1, 65, 127
2, 68200, Note_off_c, 1, 53, 0
2, 68200, Note_off_c, 1, 65, 0
2, 68240, Note_on_c, 1, 43, 127
2, 68240, Note_off_c, 1, 44, 0
2, 68240, Note_on_c, 1, 53, 127
2, 68240, Note_on_c, 1, 65, 127
2, 68360, Note_off_c, 1, 43, 0
2, 68360, Note_on_c, 1, 44, 127
2, 68440, Note_off_c, 1, 44, 0
2, 68440, Note_off_c, 1, 53, 0
2, 68440, Note_off_c, 1, 65, 0
2, 68480, Note_on_c, 1, 44, 127
2, 68480, Note_on_c, 1, 53, 127
2, 68480, Note_on_c, 1, 65, 127
2, 68560, Note_off_c, 1, 44, 0
2, 68560, Note_off_c, 1, 53, 0
2, 68560, Note_off_c, 1, 65, 0
2, 68600, Note_on_c, 1, 44, 127
2, 68600, Note_on_c, 1, 53, 127
2, 68600, Note_on_c, 1, 65, 127
2, 68840, Note_off_c, 1, 44, 0
2, 68840, Note_off_c, 1, 65, 0
2, 68880, Note_on_c, 1, 46, 127
2, 68880, Note_on_c, 1, 62, 127
2, 68880, Note_on_c, 1, 65, 127
2, 68880, Note_on_c, 1, 70, 127
2, 69160, Note_off_c, 1, 46, 0
2, 69160, Note_off_c, 1, 53, 0
2, 69160, Note_off_c, 1, 62, 0
2, 69160, Note_off_c, 1, 65, 0
2, 69160, Note_off_c, 1, 70, 0
2, 69200, Note_on_c, 1, 46, 127
2, 69200, Note_on_c, 1, 53, 127
2, 69200, Note_on_c, 1, 62, 127
2, 69200, Note_on_c, 1, 65, 127
2, 69200, Note_on_c, 1, 70, 127
2, 69440, Note_off_c, 1, 53, 0
2, 69440, Note_off_c, 1, 62, 0
2, 69440, Note_off_c, 1, 65, 0
2, 69440, Note_off_c, 1, 70, 0
2, 69480, Note_on_c, 1, 53, 127
2, 69480, Note_on_c, 1, 62, 127
2, 69480, Note_on_c, 1, 65, 127
2, 69480, Note_on_c, 1, 70, 127
2, 69760, Note_off_c, 1, 46, 0
2, 69760, Note_off_c, 1, 53, 0
2, 69760, Note_off_c, 1, 62, 0
2, 69760, Note_off_c, 1, 65, 0
2, 69760, Note_off_c, 1, 70, 0
2, 69800, Note_on_c, 1, 39, 127
2, 69800, Note_on_c, 1, 46, 127
2, 69800, Note_on_c, 1, 68, 127
2, 70040, Note_off_c, 1, 39, 0
2, 70040, Note_off_c, 1, 46, 0
2, 70040, Note_off_c, 1, 68, 0
2, 70080, Note_on_c, 1, 35, 127
2, 70080, Note_on_c, 1, 51, 127
2, 70080, Note_on_c, 1, 54, 127
2, 70080, Note_on_c, 1, 59, 127
2, 70360, Note_off_c, 1, 35, 0
2, 70360, Note_off_c, 1, 51, 0
2, 70360, Note_off_c, 1, 54, 0
2, 70360, Note_off_c, 1, 59, 0
2, 70440, Note_on_c, 1, 42, 127
2, 70440, Note_on_c, 1, 51, 127
2, 70440, Note_on_c, 1, 63, 127
2, 70680, Note_off_c, 1, 42, 0
2, 70680, Note_off_c, 1, 51, 0
2, 70680, Note_off_c, 1, 63, 0
2, 70720, Note_on_c, 1, 34, 127
2, 71040, Note_on_c, 1, 57, 127
2, 71040, Note_on_c, 1, 60, 127
2, 71040, Note_on_c, 1, 63, 127
2, 71040, Note_on_c, 1, 66, 127
2, 71280, Note_off_c, 1, 57, 0
2, 71280, Note_off_c, 1, 60, 0
2, 71280, Note_off_c, 1, 63, 0
2, 71280, Note_off_c, 1, 66, 0
2, 71600, Note_off_c, 1, 34, 0
2, 71640, Note_on_c, 1, 33, 127
2, 71640, Note_on_c, 1, 45, 127
2, 71640, Note_on_c, 1, 60, 127
2, 71640, Note_on_c, 1, 67, 127
2, 71640, Note_on_c, 1, 72, 127
2, 71880, Note_off_c, 1, 33, 0
2, 71880, Note_off_c, 1, 45, 0
2, 71880, Note_off_c, 1, 60, 0
2, 71880, Note_off_c, 1, 67, 0
2, 71880, Note_off_c, 1, 72, 0
2, 71920, Note_on_c, 1, 36, 127
2, 72200, Note_off_c, 1, 36, 0
2, 72240, Note_on_c, 1, 36, 127
2, 72520, Note_off_c, 1, 36, 0
2, 72560, Note_on_c, 1, 36, 127
2, 72600, Note_on_c, 1, 65, 127
2, 72600, Note_on_c, 1, 69, 127
2, 72600, Note_on_c, 1, 72, 127
2, 72880, Note_off_c, 1, 65, 0
2, 72880, Note_off_c, 1, 69, 0
2, 72880, Note_off_c, 1, 72, 0
2, 72920, Note_on_c, 1, 65, 127
2, 72920, Note_on_c, 1, 69, 127
2, 72920, Note_on_c, 1, 72, 127
2, 73160, Note_off_c, 1, 36, 0
2, 73160, Note_off_c, 1, 65, 0
2, 73160, Note_off_c, 1, 69, 0
2, 73160, Note_off_c, 1, 72, 0
2, 73200, Note_on_c, 1, 36, 127
2, 74680, Note_off_c, 1, 36, 0
2, 74720, Note_on_c, 1, 55, 127
2, 74720, Note_on_c, 1, 58, 127
2, 74720, Note_on_c, 1, 62, 127
2, 74720, Note_on_c, 1, 67, 127
2, 74720, Note_on_c, 1, 70, 127
2, 74840, Note_off_c, 1, 55, 0
2, 74840, Note_off_c, 1, 58, 0
2, 74840, Note_off_c, 1, 62, 0
2, 74840, Note_off_c, 1, 67, 0
2, 74840, Note_off_c, 1, 70, 0
2, 74880, Note_on_c, 1, 55, 127
2, 74880, Note_on_c, 1, 58, 127
2, 74880, Note_on_c, 1, 62, 127
2, 74880, Note_on_c, 1, 67, 127
2, 74880, Note_on_c, 1, 70, 127
2, 75040, Note_off_c, 1, 55, 0
2, 75040, Note_off_c, 1, 58, 0
2, 75040, Note_off_c, 1, 62, 0
2, 75040, Note_off_c, 1, 67, 0
2, 75040, Note_off_c, 1, 70, 0
2, 75080, Note_on_c, 1, 55, 127
2, 75080, Note_on_c, 1, 58, 127
2, 75080, Note_on_c, 1, 62, 127
2, 75080, Note_on_c, 1, 67, 127
2, 75080, Note_on_c, 1, 70, 127
2, 75320, Note_off_c, 1, 55, 0
2, 75320, Note_off_c, 1, 58, 0
2, 75320, Note_off_c, 1, 62, 0
2, 75320, Note_off_c, 1, 67, 0
2, 75320, Note_off_c, 1, 70, 0
2, 75360, Note_on_c, 1, 55, 127
2, 75360, Note_on_c, 1, 58, 127
2, 75360, Note_on_c, 1, 62, 127
2, 75360, Note_on_c, 1, 67, 127
2, 75360, Note_on_c, 1, 70, 127
2, 75640, Note_off_c, 1, 55, 0
2, 75640, Note_off_c, 1, 58, 0
2, 75640, Note_off_c, 1, 62, 0
2, 75640, Note_off_c, 1, 67, 0
2, 75640, Note_off_c, 1, 70, 0
2, 75680, Note_on_c, 1, 55, 127
2, 75680, Note_on_c, 1, 58, 127
2, 75680, Note_on_c, 1, 62, 127
2, 75680, Note_on_c, 1, 67, 127
2, 75680, Note_on_c, 1, 70, 127
2, 75960, Note_off_c, 1, 55, 0
2, 75960, Note_off_c, 1, 58, 0
2, 75960, Note_off_c, 1, 62, 0
2, 75960, Note_off_c, 1, 67, 0
2, 75960, Note_off_c, 1, 70, 0
2, 76000, Note_on_c, 1, 55, 127
2, 76000, Note_on_c, 1, 58, 127
2, 76000, Note_on_c, 1, 62, 127
2, 76000, Note_on_c, 1, 67, 127
2, 76000, Note_on_c, 1, 70, 127
2, 76240, Note_off_c, 1, 55, 0
2, 76240, Note_off_c, 1, 58, 0
2, 76240, Note_off_c, 1, 62, 0
2, 76240, Note_off_c, 1, 67, 0
2, 76240, Note_off_c, 1, 70, 0
2, 76280, Note_on_c, 1, 55, 127
2, 76280, Note_on_c, 1, 58, 127
2, 76280, Note_on_c, 1, 62, 127
2, 76280, Note_on_c, 1, 67, 127
2, 76280, Note_on_c, 1, 70, 127
2, 76560, Note_off_c, 1, 55, 0
2, 76560, Note_off_c, 1, 58, 0
2, 76560, Note_off_c, 1, 62, 0
2, 76560, Note_off_c, 1, 67, 0
2, 76560, Note_off_c, 1, 70, 0
2, 76600, Note_on_c, 1, 55, 127
2, 76600, Note_on_c, 1, 58, 127
2, 76600, Note_on_c, 1, 62, 127
2, 76600, Note_on_c, 1, 67, 127
2, 76600, Note_on_c, 1, 70, 127
2, 76880, Note_off_c, 1, 55, 0
2, 76880, Note_off_c, 1, 58, 0
2, 76880, Note_off_c, 1, 62, 0
2, 76880, Note_off_c, 1, 67, 0
2, 76880, Note_off_c, 1, 70, 0
2, 76960, Note_on_c, 1, 43, 127
2, 76960, Note_on_c, 1, 55, 127
2, 76960, Note_on_c, 1, 58, 127
2, 76960, Note_on_c, 1, 62, 127
2, 76960, Note_on_c, 1, 70, 127
2, 77200, Note_off_c, 1, 43, 0
2, 77200, Note_off_c, 1, 55, 0
2, 77200, Note_off_c, 1, 58, 0
2, 77200, Note_off_c, 1, 62, 0
2, 77200, Note_off_c, 1, 70, 0
2, 77240, Note_on_c, 1, 41, 127
2, 77240, Note_on_c, 1, 53, 127
2, 77240, Note_on_c, 1, 60, 127
2, 77240, Note_on_c, 1, 69, 127
2, 77240, Note_on_c, 1, 72, 127
2, 77520, Note_off_c, 1, 41, 0
2, 77520, Note_off_c, 1, 53, 0
2, 77520, Note_off_c, 1, 60, 0
2, 77520, Note_off_c, 1, 69, 0
2, 77520, Note_off_c, 1, 72, 0
2, 77560, Note_on_c, 1, 46, 127
2, 77560, Note_on_c, 1, 53, 127
2, 77560, Note_on_c, 1, 62, 127
2, 77560, Note_on_c, 1, 70, 127
2, 77560, Note_on_c, 1, 74, 127
2, 78120, Note_off_c, 1, 46, 0
2, 78120, Note_off_c, 1, 53, 0
2, 78120, Note_off_c, 1, 62, 0
2, 78120, Note_off_c, 1, 70, 0
2, 78120, Note_off_c, 1, 74, 0
2, 78160, Note_on_c, 1, 41, 127
2, 78160, Note_on_c, 1, 53, 127
2, 78160, Note_on_c, 1, 60, 127
2, 78160, Note_on_c, 1, 69, 127
2, 78160, Note_on_c, 1, 72, 127
2, 78400, Note_off_c, 1, 41, 0
2, 78400, Note_off_c, 1, 53, 0
2, 78400, Note_off_c, 1, 60, 0
2, 78400, Note_off_c, 1, 69, 0
2, 78400, Note_off_c, 1, 72, 0
2, 78440, Note_on_c, 1, 46, 127
2, 78440, Note_on_c, 1, 53, 127
2, 78440, Note_on_c, 1, 61, 127
2, 78440, Note_on_c, 1, 70, 127
2, 78440, Note_on_c, 1, 73, 127
2, 78720, Note_off_c, 1, 46, 0
2, 78720, Note_off_c, 1, 53, 0
2, 78720, Note_off_c, 1, 61, 0
2, 78720, Note_off_c, 1, 70, 0
2, 78720, Note_off_c, 1, 73, 0
2, 78760, Note_on_c, 1, 46, 127
2, 78760, Note_on_c, 1, 53, 127
2, 78760, Note_on_c, 1, 61, 127
2, 78760, Note_on_c, 1, 70, 127
2, 78760, Note_on_c, 1, 73, 127
2, 78960, Note_off_c, 1, 46, 0
2, 78960, Note_off_c, 1, 53, 0
2, 78960, Note_off_c, 1, 61, 0
2, 78960, Note_off_c, 1, 70, 0
2, 78960, Note_off_c, 1, 73, 0
2, 79000, Note_on_c, 1, 46, 127
2, 79000, Note_on_c, 1, 53, 127
2, 79000, Note_on_c, 1, 61, 127
2, 79000, Note_on_c, 1, 70, 127
2, 79000, Note_on_c, 1, 73, 127
2, 79040, Note_off_c, 1, 53, 0
2, 79080, Note_off_c, 1, 46, 0
2, 79080, Note_off_c, 1, 61, 0
2, 79080, Note_off_c, 1, 70, 0
2, 79080, Note_off_c, 1, 73, 0
2, 79120, Note_on_c, 1, 41, 127
2, 79120, Note_on_c, 1, 53, 127
2, 79120, Note_on_c, 1, 60, 127
2, 79120, Note_on_c, 1, 69, 127
2, 79120, Note_on_c, 1, 72, 127
2, 79360, Note_off_c, 1, 41, 0
2, 79360, Note_off_c, 1, 53, 0
2, 79360, Note_off_c, 1, 60, 0
2, 79360, Note_off_c, 1, 69, 0
2, 79360, Note_off_c, 1, 72, 0
2, 79400, Note_on_c, 1, 46, 127
2, 79400, Note_on_c, 1, 53, 127
2, 79400, Note_on_c, 1, 61, 127
2, 79400, Note_on_c, 1, 70, 127
2, 79400, Note_on_c, 1, 73, 127
2, 79520, Note_off_c, 1, 53, 0
2, 79560, Note_on_c, 1, 53, 127
2, 79680, Note_off_c, 1, 46, 0
2, 79680, Note_off_c, 1, 53, 0
2, 79680, Note_off_c, 1, 61, 0
2, 79680, Note_off_c, 1, 70, 0
2, 79680, Note_off_c, 1, 73, 0
2, 79720, Note_on_c, 1, 41, 127
2, 79720, Note_on_c, 1, 53, 127
2, 79720, Note_on_c, 1, 60, 127
2, 79720, Note_on_c, 1, 69, 127
2, 79720, Note_on_c, 1, 72, 127
2, 79960, Note_off_c, 1, 41, 0
2, 79960, Note_off_c, 1, 53, 0
2, 79960, Note_off_c, 1, 60, 0
2, 79960, Note_off_c, 1, 69, 0
2, 79960, Note_off_c, 1, 72, 0
2, 80000, Note_on_c, 1, 46, 127
2, 80000, Note_on_c, 1, 53, 127
2, 80000, Note_on_c, 1, 61, 127
2, 80000, Note_on_c, 1, 70, 127
2, 80000, Note_on_c, 1, 73, 127
2, 80120, Note_off_c, 1, 53, 0
2, 80160, Note_on_c, 1, 53, 127
2, 80280, Note_off_c, 1, 46, 0
2, 80280, Note_off_c, 1, 53, 0
2, 80280, Note_off_c, 1, 61, 0
2, 80280, Note_off_c, 1, 70, 0
2, 80280, Note_off_c, 1, 73, 0
2, 80320, Note_on_c, 1, 42, 127
2, 80320, Note_on_c, 1, 54, 127
2, 80320, Note_on_c, 1, 61, 127
2, 80320, Note_on_c, 1, 69, 127
2, 80320, Note_on_c, 1, 73, 127
2, 80560, Note_off_c, 1, 42, 0
2, 80560, Note_off_c, 1, 54, 0
2, 80560, Note_off_c, 1, 61, 0
2, 80560, Note_off_c, 1, 69, 0
2, 80560, Note_off_c, 1, 73, 0
2, 80600, Note_on_c, 1, 40, 127
2, 80600, Note_on_c, 1, 52, 127
2, 80600, Note_on_c, 1, 66, 127
2, 80600, Note_on_c, 1, 69, 127
2, 80600, Note_on_c, 1, 72, 127
2, 80600, Note_on_c, 1, 78, 127
2, 80720, Note_off_c, 1, 40, 0
2, 80720, Note_off_c, 1, 52, 0
2, 80760, Note_on_c, 1, 37, 127
2, 80760, Note_on_c, 1, 49, 127
2, 80880, Note_off_c, 1, 37, 0
2, 80880, Note_off_c, 1, 49, 0
2, 80880, Note_off_c, 1, 66, 0
2, 80880, Note_off_c, 1, 69, 0
2, 80880, Note_off_c, 1, 72, 0
2, 80880, Note_off_c, 1, 78, 0
2, 80920, Note_on_c, 1, 37, 127
2, 80920, Note_on_c, 1, 49, 127
2, 80920, Note_on_c, 1, 66, 127
2, 80920, Note_on_c, 1, 69, 127
2, 80920, Note_on_c, 1, 72, 127
2, 80920, Note_on_c, 1, 78, 127
2, 81040, Note_off_c, 1, 37, 0
2, 81040, Note_off_c, 1, 49, 0
2, 81040, Note_off_c, 1, 66, 0
2, 81040, Note_off_c, 1, 69, 0
2, 81040, Note_off_c, 1, 72, 0
2, 81040, Note_off_c, 1, 78, 0
2, 81080, Note_on_c, 1, 36, 127
2, 81080, Note_on_c, 1, 48, 127
2, 81120, Note_off_c, 1, 36, 0
2, 81120, Note_on_c, 1, 37, 127
2, 81120, Note_off_c, 1, 48, 0
2, 81120, Note_on_c, 1, 49, 127
2, 81120, Note_on_c, 1, 66, 127
2, 81120, Note_on_c, 1, 69, 127
2, 81120, Note_on_c, 1, 72, 127
2, 81120, Note_on_c, 1, 78, 127
2, 81240, Note_off_c, 1, 37, 0
2, 81240, Note_off_c, 1, 49, 0
2, 81240, Note_off_c, 1, 66, 0
2, 81240, Note_off_c, 1, 69, 0
2, 81240, Note_off_c, 1, 72, 0
2, 81240, Note_off_c, 1, 78, 0
2, 81280, Note_on_c, 1, 37, 127
2, 81280, Note_on_c, 1, 49, 127
2, 81280, Note_on_c, 1, 66, 127
2, 81280, Note_on_c, 1, 69, 127
2, 81280, Note_on_c, 1, 72, 127
2, 81280, Note_on_c, 1, 78, 127
2, 81400, Note_on_c, 1, 36, 127
2, 81400, Note_off_c, 1, 37, 0
2, 81400, Note_on_c, 1, 48, 127
2, 81400, Note_off_c, 1, 49, 0
2, 81400, Note_off_c, 1, 66, 0
2, 81400, Note_off_c, 1, 69, 0
2, 81400, Note_off_c, 1, 72, 0
2, 81400, Note_off_c, 1, 78, 0
2, 81440, Note_off_c, 1, 36, 0
2, 81440, Note_on_c, 1, 37, 127
2, 81440, Note_off_c, 1, 48, 0
2, 81440, Note_on_c, 1, 49, 127
2, 81440, Note_on_c, 1, 66, 127
2, 81440, Note_on_c, 1, 69, 127
2, 81440, Note_on_c, 1, 72, 127
2, 81440, Note_on_c, 1, 78, 127
2, 81560, Note_off_c, 1, 37, 0
2, 81560, Note_off_c, 1, 49, 0
2, 81560, Note_off_c, 1, 66, 0
2, 81560, Note_off_c, 1, 69, 0
2, 81560, Note_off_c, 1, 72, 0
2, 81560, Note_off_c, 1, 78, 0
2, 81600, Note_on_c, 1, 36, 127
2, 81600, Note_on_c, 1, 45, 127
2, 81600, Note_on_c, 1, 72, 127
2, 81600, Note_on_c, 1, 81, 127
2, 81720, Note_off_c, 1, 45, 0
2, 81720, Note_off_c, 1, 72, 0
2, 81720, Note_off_c, 1, 81, 0
2, 81760, Note_on_c, 1, 45, 127
2, 81760, Note_on_c, 1, 72, 127
2, 81760, Note_on_c, 1, 81, 127
2, 81880, Note_off_c, 1, 45, 0
2, 81880, Note_off_c, 1, 72, 0
2, 81880, Note_off_c, 1, 81, 0
2, 81920, Note_on_c, 1, 46, 127
2, 81920, Note_on_c, 1, 76, 127
2, 81920, Note_on_c, 1, 79, 127
2, 82160, Note_off_c, 1, 46, 0
2, 82160, Note_off_c, 1, 76, 0
2, 82160, Note_off_c, 1, 79, 0
2, 82200, Note_on_c, 1, 48, 127
2, 82200, Note_on_c, 1, 69, 127
2, 82200, Note_on_c, 1, 77, 127
2, 82480, Note_off_c, 1, 36, 0
2, 82480, Note_off_c, 1, 48, 0
2, 82480, Note_off_c, 1, 69, 0
2, 82480, Note_off_c, 1, 77, 0
2, 82520, Note_on_c, 1, 36, 127
2, 82520, Note_on_c, 1, 50, 127
2, 82520, Note_on_c, 1, 72, 127
2, 82520, Note_on_c, 1, 76, 127
2, 82760, Note_off_c, 1, 36, 0
2, 82760, Note_off_c, 1, 50, 0
2, 82760, Note_off_c, 1, 72, 0
2, 82760, Note_off_c, 1, 76, 0
2, 82800, Note_on_c, 1, 36, 127
2, 82800, Note_on_c, 1, 52, 127
2, 82800, Note_on_c, 1, 67, 127
2, 82800, Note_on_c, 1, 74, 127
2, 83080, Note_off_c, 1, 52, 0
2, 83080, Note_off_c, 1, 67, 0
2, 83080, Note_off_c, 1, 74, 0
2, 83120, Note_on_c, 1, 53, 127
2, 83120, Note_on_c, 1, 69, 127
2, 83120, Note_on_c, 1, 72, 127
2, 83200, Note_off_c, 1, 36, 0
2, 83200, Note_off_c, 1, 53, 0
2, 83200, Note_off_c, 1, 69, 0
2, 83200, Note_off_c, 1, 72, 0
2, 83240, Note_on_c, 1, 36, 127
2, 83240, Note_on_c, 1, 53, 127
2, 83240, Note_on_c, 1, 69, 127
2, 83240, Note_on_c, 1, 72, 127
2, 83400, Note_off_c, 1, 36, 0
2, 83400, Note_off_c, 1, 53, 0
2, 83400, Note_off_c, 1, 69, 0
2, 83400, Note_off_c, 1, 72, 0
2, 83440, Note_on_c, 1, 48, 127
2, 83440, Note_on_c, 1, 55, 127
2, 83440, Note_on_c, 1, 64, 127
2, 83440, Note_on_c, 1, 70, 127
2, 83720, Note_off_c, 1, 48, 0
2, 83720, Note_off_c, 1, 55, 0
2, 83720, Note_off_c, 1, 64, 0
2, 83720, Note_off_c, 1, 70, 0
2, 83760, Note_on_c, 1, 48, 127
2, 83760, Note_on_c, 1, 57, 127
2, 83760, Note_on_c, 1, 65, 127
2, 83760, Note_on_c, 1, 69, 127
2, 84000, Note_off_c, 1, 57, 0
2, 84000, Note_off_c, 1, 65, 0
2, 84000, Note_off_c, 1, 69, 0
2, 84040, Note_on_c, 1, 58, 127
2, 84040, Note_on_c, 1, 61, 127
2, 84040, Note_on_c, 1, 67, 127
2, 84320, Note_off_c, 1, 48, 0
2, 84320, Note_off_c, 1, 58, 0
2, 84320, Note_off_c, 1, 61, 0
2, 84320, Note_off_c, 1, 67, 0
2, 84360, Note_on_c, 1, 41, 127
2, 84360, Note_on_c, 1, 60, 127
2, 84360, Note_on_c, 1, 63, 127
2, 84600, Note_off_c, 1, 41, 0
2, 84600, Note_off_c, 1, 60, 0
2, 84600, Note_off_c, 1, 63, 0
2, 84640, Note_on_c, 1, 41, 127
2, 84640, Note_on_c, 1, 47, 127
2, 84640, Note_on_c, 1, 65, 127
2, 84640, Note_on_c, 1, 69, 127
2, 84920, Note_off_c, 1, 41, 0
2, 84920, Note_off_c, 1, 47, 0
2, 84920, Note_off_c, 1, 65, 0
2, 84920, Note_off_c, 1, 69, 0
2, 84960, Note_on_c, 1, 45, 127
2, 84960, Note_on_c, 1, 57, 127
2, 84960, Note_on_c, 1, 65, 127
2, 84960, Note_on_c, 1, 72, 127
2, 85240, Note_off_c, 1, 45, 0
2, 85240, Note_off_c, 1, 57, 0
2, 85240, Note_off_c, 1, 65, 0
2, 85240, Note_off_c, 1, 72, 0
2, 85320, Note_on_c, 1, 45, 127
2, 85320, Note_on_c, 1, 57, 127
2, 85320, Note_on_c, 1, 65, 127
2, 85320, Note_on_c, 1, 72, 127
2, 85560, Note_off_c, 1, 45, 0
2, 85560, Note_off_c, 1, 57, 0
2, 85560, Note_off_c, 1, 65, 0
2, 85560, Note_off_c, 1, 72, 0
2, 85600, Note_on_c, 1, 45, 127
2, 85600, Note_on_c, 1, 57, 127
2, 85600, Note_on_c, 1, 66, 127
2, 85600, Note_on_c, 1, 72, 127
2, 85880, Note_off_c, 1, 45, 0
2, 85880, Note_off_c, 1, 57, 0
2, 85880, Note_off_c, 1, 66, 0
2, 85880, Note_off_c, 1, 72, 0
2, 85920, Note_on_c, 1, 45, 127
2, 85920, Note_on_c, 1, 53, 127
2, 85920, Note_on_c, 1, 63, 127
2, 85920, Note_on_c, 1, 69, 127
2, 85920, Note_on_c, 1, 75, 127
2, 86160, Note_off_c, 1, 45, 0
2, 86160, Note_off_c, 1, 53, 0
2, 86160, Note_off_c, 1, 63, 0
2, 86160, Note_off_c, 1, 69, 0
2, 86160, Note_off_c, 1, 75, 0
2, 86200, Note_on_c, 1, 45, 127
2, 86200, Note_on_c, 1, 54, 127
2, 86200, Note_on_c, 1, 64, 127
2, 86200, Note_on_c, 1, 69, 127
2, 86200, Note_on_c, 1, 76, 127
2, 86480, Note_off_c, 1, 45, 0
2, 86480, Note_off_c, 1, 54, 0
2, 86480, Note_off_c, 1, 64, 0
2, 86480, Note_off_c, 1, 69, 0
2, 86480, Note_off_c, 1, 76, 0
2, 86520, Note_on_c, 1, 45, 127
2, 86520, Note_on_c, 1, 53, 127
2, 86520, Note_on_c, 1, 63, 127
2, 86520, Note_on_c, 1, 69, 127
2, 86520, Note_on_c, 1, 75, 127
2, 86760, Note_off_c, 1, 45, 0
2, 86760, Note_off_c, 1, 53, 0
2, 86760, Note_off_c, 1, 63, 0
2, 86760, Note_off_c, 1, 69, 0
2, 86760, Note_off_c, 1, 75, 0
2, 86800, Note_on_c, 1, 45, 127
2, 86800, Note_on_c, 1, 57, 127
2, 86800, Note_on_c, 1, 65, 127
2, 86800, Note_on_c, 1, 77, 127
2, 87080, Note_off_c, 1, 45, 0
2, 87080, Note_off_c, 1, 57, 0
2, 87080, Note_off_c, 1, 65, 0
2, 87080, Note_off_c, 1, 77, 0
2, 87120, Note_on_c, 1, 35, 127
2, 87120, Note_on_c, 1, 39, 127
2, 87120, Note_on_c, 1, 47, 127
2, 87120, Note_on_c, 1, 53, 127
2, 87120, Note_on_c, 1, 63, 127
2, 87120, Note_on_c, 1, 65, 127
2, 87400, Note_off_c, 1, 35, 0
2, 87400, Note_off_c, 1, 39, 0
2, 87400, Note_off_c, 1, 47, 0
2, 87400, Note_off_c, 1, 53, 0
2, 87400, Note_off_c, 1, 63, 0
2, 87400, Note_off_c, 1, 65, 0
2, 87440, Note_on_c, 1, 35, 127
2, 87440, Note_on_c, 1, 39, 127
2, 87440, Note_on_c, 1, 47, 127
2, 87440, Note_on_c, 1, 53, 127
2, 87440, Note_on_c, 1, 63, 127
2, 87440, Note_on_c, 1, 65, 127
2, 87720, Note_off_c, 1, 35, 0
2, 87720, Note_off_c, 1, 39, 0
2, 87720, Note_off_c, 1, 47, 0
2, 87720, Note_off_c, 1, 53, 0
2, 87720, Note_off_c, 1, 63, 0
2, 87720, Note_off_c, 1, 65, 0
2, 87760, Note_on_c, 1, 54, 127
2, 87760, Note_on_c, 1, 59, 127
2, 87760, Note_on_c, 1, 63, 127
2, 87760, Note_on_c, 1, 66, 127
2, 87760, Note_on_c, 1, 75, 127
2, 87760, Note_on_c, 1, 78, 127
2, 89560, Note_off_c, 1, 54, 0
2, 89560, Note_off_c, 1, 59, 0
2, 89560, Note_off_c, 1, 63, 0
2, 89560, Note_off_c, 1, 66, 0
2, 89560, Note_off_c, 1, 75, 0
2, 89560, Note_off_c, 1, 78, 0
2, 89600, Note_on_c, 1, 54, 127
2, 89600, Note_on_c, 1, 59, 127
2, 89600, Note_on_c, 1, 63, 127
2, 89600, Note_on_c, 1, 66, 127
2, 89600, Note_on_c, 1, 75, 127
2, 89600, Note_on_c, 1, 78, 127
2, 91360, Note_off_c, 1, 54, 0
2, 91360, Note_off_c, 1, 59, 0
2, 91360, Note_off_c, 1, 63, 0
2, 91360, Note_off_c, 1, 66, 0
2, 91360, Note_off_c, 1, 75, 0
2, 91360, Note_off_c, 1, 78, 0
2, 91440, Note_on_c, 1, 59, 127
2, 92000, Note_off_c, 1, 59, 0
2, 92040, Note_on_c, 1, 59, 127
2, 92680, Note_on_c, 1, 54, 127
2, 92680, Note_off_c, 1, 59, 0
2, 93240, Note_off_c, 1, 54, 0
2, 93280, Note_on_c, 1, 54, 127
2, 93400, Note_off_c, 1, 54, 0
2, 93440, Note_on_c, 1, 54, 127
2, 94200, Note_off_c, 1, 54, 0
2, 94280, Note_on_c, 1, 47, 127
2, 94560, Note_off_c, 1, 47, 0
2, 94600, Note_on_c, 1, 47, 127
2, 94880, Note_off_c, 1, 47, 0
2, 100000, Note_on_c, 1, 34, 127
2, 100000, Note_on_c, 1, 46, 127
2, 100920, Note_off_c, 1, 46, 0
2, 100960, Note_off_c, 1, 34, 0
2, 100960, Note_on_c, 1, 39, 127
2, 100960, Note_on_c, 1, 46, 127
2, 101480, Note_off_c, 1, 39, 0
2, 101480, Note_off_c, 1, 46, 0
2, 102200, Note_on_c, 1, 37, 127
2, 102200, Note_on_c, 1, 61, 127
2, 102280, Note_off_c, 1, 37, 0
2, 102280, Note_off_c, 1, 61, 0
2, 102320, Note_on_c, 1, 37, 127
2, 102320, Note_on_c, 1, 61, 127
2, 102440, Note_off_c, 1, 37, 0
2, 102440, Note_off_c, 1, 61, 0
2, 102480, Note_on_c, 1, 49, 127
2, 102480, Note_on_c, 1, 73, 127
2, 102600, Note_off_c, 1, 49, 0
2, 102600, Note_off_c, 1, 73, 0
2, 102640, Note_on_c, 1, 34, 127
2, 102640, Note_on_c, 1, 58, 127
2, 102760, Note_off_c, 1, 34, 0
2, 102760, Note_off_c, 1, 58, 0
2, 102800, Note_on_c, 1, 37, 127
2, 102800, Note_on_c, 1, 61, 127
2, 102880, Note_off_c, 1, 37, 0
2, 102880, Note_off_c, 1, 61, 0
2, 102920, Note_on_c, 1, 54, 127
2, 102920, Note_on_c, 1, 66, 127
2, 103040, Note_off_c, 1, 54, 0
2, 103040, Note_off_c, 1, 66, 0
2, 103080, Note_on_c, 1, 53, 127
2, 103080, Note_on_c, 1, 77, 127
2, 103160, Note_off_c, 1, 53, 0
2, 103160, Note_on_c, 1, 54, 127
2, 103160, Note_off_c, 1, 77, 0
2, 103160, Note_on_c, 1, 78, 127
2, 103200, Note_off_c, 1, 54, 0
2, 103200, Note_off_c, 1, 78, 0
2, 103240, Note_on_c, 1, 42, 127
2, 103240, Note_on_c, 1, 66, 127
2, 103360, Note_off_c, 1, 42, 0
2, 103360, Note_off_c, 1, 66, 0
2, 103400, Note_on_c, 1, 54, 127
2, 103400, Note_on_c, 1, 78, 127
2, 103480, Note_off_c, 1, 54, 0
2, 103480, Note_off_c, 1, 78, 0
2, 103520, Note_on_c, 1, 54, 127
2, 103520, Note_on_c, 1, 78, 127
2, 103640, Note_off_c, 1, 54, 0
2, 103640, Note_off_c, 1, 78, 0
2, 103680, Note_on_c, 1, 42, 127
2, 103680, Note_on_c, 1, 66, 127
2, 103800, Note_off_c, 1, 42, 0
2, 103800, Note_off_c, 1, 66, 0
2, 103840, Note_on_c, 1, 54, 127
2, 103840, Note_on_c, 1, 78, 127
2, 103960, Note_off_c, 1, 54, 0
2, 103960, Note_off_c, 1, 78, 0
2, 104040, Note_on_c, 1, 35, 127
2, 104040, Note_on_c, 1, 59, 127
2, 104120, Note_off_c, 1, 35, 0
2, 104120, Note_off_c, 1, 59, 0
2, 104160, Note_on_c, 1, 47, 127
2, 104160, Note_on_c, 1, 71, 127
2, 104280, Note_off_c, 1, 47, 0
2, 104280, Note_off_c, 1, 71, 0
2, 104320, Note_on_c, 1, 35, 127
2, 104320, Note_on_c, 1, 59, 127
2, 104440, Note_off_c, 1, 35, 0
2, 104440, Note_off_c, 1, 59, 0
2, 104480, Note_on_c, 1, 47, 127
2, 104480, Note_on_c, 1, 71, 127
2, 104600, Note_off_c, 1, 47, 0
2, 104600, Note_off_c, 1, 71, 0
2, 104640, Note_on_c, 1, 59, 127
2, 104640, Note_on_c, 1, 83, 127
2, 104720, Note_off_c, 1, 59, 0
2, 104720, Note_off_c, 1, 83, 0
2, 104760, Note_on_c, 1, 49, 127
2, 104760, Note_on_c, 1, 73, 127
2, 104880, Note_off_c, 1, 49, 0
2, 104880, Note_off_c, 1, 73, 0
2, 104920, Note_on_c, 1, 54, 127
2, 104920, Note_on_c, 1, 78, 127
2, 105040, Note_off_c, 1, 54, 0
2, 105040, Note_off_c, 1, 78, 0
2, 105080, Note_on_c, 1, 66, 127
2, 105080, Note_on_c, 1, 90, 127
2, 105200, Note_off_c, 1, 66, 0
2, 105200, Note_off_c, 1, 90, 0
2, 105240, Note_on_c, 1, 56, 127
2, 105240, Note_on_c, 1, 80, 127
2, 105320, Note_off_c, 1, 56, 0
2, 105320, Note_off_c, 1, 80, 0
2, 105360, Note_on_c, 1, 54, 127
2, 105360, Note_on_c, 1, 78, 127
2, 105480, Note_off_c, 1, 54, 0
2, 105480, Note_off_c, 1, 78, 0
2, 105520, Note_on_c, 1, 42, 127
2, 105520, Note_on_c, 1, 66, 127
2, 105640, Note_off_c, 1, 42, 0
2, 105640, Note_off_c, 1, 66, 0
2, 105680, Note_on_c, 1, 54, 127
2, 105680, Note_on_c, 1, 78, 127
2, 105800, Note_off_c, 1, 54, 0
2, 105800, Note_off_c, 1, 78, 0
2, 105840, Note_on_c, 1, 46, 127
2, 105840, Note_on_c, 1, 70, 127
2, 105920, Note_off_c, 1, 46, 0
2, 105920, Note_off_c, 1, 70, 0
2, 105960, Note_on_c, 1, 58, 127
2, 105960, Note_on_c, 1, 82, 127
2, 106080, Note_off_c, 1, 58, 0
2, 106080, Note_off_c, 1, 82, 0
2, 106120, Note_on_c, 1, 46, 127
2, 106120, Note_on_c, 1, 70, 127
2, 106240, Note_off_c, 1, 46, 0
2, 106240, Note_off_c, 1, 70, 0
2, 106320, Note_on_c, 1, 58, 127
2, 106320, Note_on_c, 1, 82, 127
2, 106440, Note_off_c, 1, 58, 0
2, 106440, Note_off_c, 1, 82, 0
2, 106480, Note_on_c, 1, 53, 127
2, 106480, Note_on_c, 1, 77, 127
2, 106560, Note_off_c, 1, 53, 0
2, 106560, Note_off_c, 1, 77, 0
2, 106600, Note_on_c, 1, 58, 127
2, 106600, Note_on_c, 1, 82, 127
2, 106720, Note_off_c, 1, 58, 0
2, 106720, Note_off_c, 1, 82, 0
2, 106760, Note_on_c, 1, 46, 127
2, 106760, Note_on_c, 1, 70, 127
2, 106880, Note_off_c, 1, 46, 0
2, 106880, Note_off_c, 1, 70, 0
2, 106920, Note_on_c, 1, 58, 127
2, 106920, Note_on_c, 1, 82, 127
2, 107040, Note_off_c, 1, 58, 0
2, 107040, Note_off_c, 1, 82, 0
2, 107080, Note_on_c, 1, 49, 127
2, 107080, Note_on_c, 1, 73, 127
2, 107160, Note_off_c, 1, 49, 0
2, 107160, Note_off_c, 1, 73, 0
2, 107200, Note_on_c, 1, 61, 127
2, 107200, Note_on_c, 1, 85, 127
2, 107320, Note_off_c, 1, 61, 0
2, 107320, Note_off_c, 1, 85, 0
2, 107360, Note_on_c, 1, 49, 127
2, 107360, Note_on_c, 1, 73, 127
2, 107480, Note_off_c, 1, 49, 0
2, 107480, Note_off_c, 1, 73, 0
2, 107520, Note_on_c, 1, 61, 127
2, 107520, Note_on_c, 1, 85, 127
2, 107640, Note_off_c, 1, 61, 0
2, 107640, Note_off_c, 1, 85, 0
2, 107680, Note_on_c, 1, 49, 127
2, 107680, Note_on_c, 1, 73, 127
2, 107760, Note_off_c, 1, 49, 0
2, 107760, Note_off_c, 1, 73, 0
2, 107800, Note_on_c, 1, 61, 127
2, 107800, Note_on_c, 1, 85, 127
2, 107920, Note_off_c, 1, 61, 0
2, 107920, Note_off_c, 1, 85, 0
2, 107960, Note_on_c, 1, 49, 127
2, 107960, Note_on_c, 1, 73, 127
2, 108080, Note_off_c, 1, 49, 0
2, 108080, Note_off_c, 1, 73, 0
2, 108120, Note_on_c, 1, 61, 127
2, 108120, Note_on_c, 1, 85, 127
2, 108240, Note_off_c, 1, 61, 0
2, 108240, Note_off_c, 1, 85, 0
2, 108320, Note_on_c, 1, 49, 127
2, 108320, Note_on_c, 1, 73, 127
2, 108400, Note_off_c, 1, 49, 0
2, 108400, Note_off_c, 1, 73, 0
2, 108440, Note_on_c, 1, 61, 127
2, 108440, Note_on_c, 1, 85, 127
2, 108560, Note_off_c, 1, 61, 0
2, 108560, Note_off_c, 1, 85, 0
2, 108600, Note_on_c, 1, 49, 127
2, 108600, Note_on_c, 1, 73, 127
2, 108720, Note_off_c, 1, 49, 0
2, 108720, Note_off_c, 1, 73, 0
2, 108760, Note_on_c, 1, 61, 127
2, 108760, Note_on_c, 1, 85, 127
2, 108880, Note_off_c, 1, 61, 0
2, 108880, Note_off_c, 1, 85, 0
2, 108920, Note_on_c, 1, 49, 127
2, 108920, Note_on_c, 1, 73, 127
2, 109000, Note_off_c, 1, 49, 0
2, 109000, Note_off_c, 1, 73, 0
2, 109040, Note_on_c, 1, 61, 127
2, 109040, Note_on_c, 1, 85, 127
2, 109160, Note_off_c, 1, 61, 0
2, 109160, Note_off_c, 1, 85, 0
2, 109200, Note_on_c, 1, 49, 127
2, 109200, Note_on_c, 1, 73, 127
2, 109320, Note_off_c, 1, 49, 0
2, 109320, Note_off_c, 1, 73, 0
2, 109360, Note_on_c, 1, 61, 127
2, 109360, Note_on_c, 1, 85, 127
2, 109480, Note_off_c, 1, 61, 0
2, 109480, Note_off_c, 1, 85, 0
2, 109520, Note_on_c, 1, 49, 127
2, 109520, Note_on_c, 1, 73, 127
2, 109600, Note_off_c, 1, 49, 0
2, 109600, Note_off_c, 1, 73, 0
2, 109640, Note_on_c, 1, 61, 127
2, 109640, Note_on_c, 1, 85, 127
2, 109760, Note_off_c, 1, 61, 0
2, 109760, Note_off_c, 1, 85, 0
2, 109800, Note_on_c, 1, 49, 127
2, 109800, Note_on_c, 1, 73, 127
2, 109920, Note_off_c, 1, 49, 0
2, 109920, Note_off_c, 1, 73, 0
2, 109960, Note_on_c, 1, 61, 127
2, 109960, Note_on_c, 1, 85, 127
2, 110080, Note_off_c, 1, 61, 0
2, 110080, Note_off_c, 1, 85, 0
2, 110120, Note_on_c, 1, 49, 127
2, 110120, Note_on_c, 1, 73, 127
2, 110200, Note_off_c, 1, 49, 0
2, 110200, Note_off_c, 1, 73, 0
2, 110240, Note_on_c, 1, 61, 127
2, 110240, Note_on_c, 1, 85, 127
2, 110360, Note_off_c, 1, 61, 0
2, 110360, Note_off_c, 1, 85, 0
2, 110440, Note_on_c, 1, 49, 127
2, 110440, Note_on_c, 1, 73, 127
2, 110560, Note_off_c, 1, 49, 0
2, 110560, Note_off_c, 1, 73, 0
2, 110600, Note_on_c, 1, 61, 127
2, 110600, Note_on_c, 1, 85, 127
2, 110720, Note_off_c, 1, 61, 0
2, 110720, Note_off_c, 1, 85, 0
2, 110760, Note_on_c, 1, 49, 127
2, 110760, Note_on_c, 1, 73, 127
2, 110840, Note_off_c, 1, 49, 0
2, 110840, Note_off_c, 1, 73, 0
2, 110880, Note_on_c, 1, 61, 127
2, 110880, Note_on_c, 1, 85, 127
2, 111000, Note_off_c, 1, 61, 0
2, 111000, Note_off_c, 1, 85, 0
2, 111040, Note_on_c, 1, 49, 127
2, 111040, Note_on_c, 1, 73, 127
2, 111160, Note_off_c, 1, 49, 0
2, 111160, Note_off_c, 1, 73, 0
2, 111200, Note_on_c, 1, 61, 127
2, 111200, Note_on_c, 1, 85, 127
2, 111320, Note_off_c, 1, 61, 0
2, 111320, Note_off_c, 1, 85, 0
2, 111360, Note_on_c, 1, 49, 127
2, 111360, Note_on_c, 1, 73, 127
2, 111440, Note_off_c, 1, 49, 0
2, 111440, Note_off_c, 1, 73, 0
2, 111480, Note_on_c, 1, 61, 127
2, 111480, Note_on_c, 1, 85, 127
2, 111600, Note_off_c, 1, 61, 0
2, 111600, Note_off_c, 1, 85, 0
2, 111640, Note_on_c, 1, 49, 127
2, 111640, Note_on_c, 1, 73, 127
2, 111760, Note_off_c, 1, 49, 0
2, 111760, Note_off_c, 1, 73, 0
2, 111800, Note_on_c, 1, 61, 127
2, 111800, Note_on_c, 1, 85, 127
2, 111920, Note_off_c, 1, 61, 0
2, 111920, Note_off_c, 1, 85, 0
2, 111960, Note_on_c, 1, 49, 127
2, 111960, Note_on_c, 1, 73, 127
2, 112040, Note_off_c, 1, 49, 0
2, 112040, Note_off_c, 1, 73, 0
2, 112080, Note_on_c, 1, 61, 127
2, 112080, Note_on_c, 1, 85, 127
2, 112200, Note_off_c, 1, 61, 0
2, 112200, Note_off_c, 1, 85, 0
2, 112240, Note_on_c, 1, 61, 127
2, 112240, Note_on_c, 1, 85, 127
2, 112360, Note_off_c, 1, 61, 0
2, 112360, Note_off_c, 1, 85, 0
2, 112440, Note_on_c, 1, 61, 127
2, 112440, Note_on_c, 1, 85, 127
2, 112560, Note_off_c, 1, 61, 0
2, 112560, Note_off_c, 1, 85, 0
2, 112600, Note_on_c, 1, 61, 127
2, 112600, Note_on_c, 1, 85, 127
2, 112680, Note_off_c, 1, 61, 0
2, 112680, Note_off_c, 1, 85, 0
2, 112720, Note_on_c, 1, 61, 127
2, 112720, Note_on_c, 1, 85, 127
2, 112840, Note_off_c, 1, 61, 0
2, 112840, Note_off_c, 1, 85, 0
2, 112880, Note_on_c, 1, 61, 127
2, 112880, Note_on_c, 1, 85, 127
2, 113000, Note_off_c, 1, 61, 0
2, 113000, Note_off_c, 1, 85, 0
2, 113040, Note_on_c, 1, 68, 127
2, 113040, Note_on_c, 1, 92, 127
2, 113160, Note_off_c, 1, 68, 0
2, 113160, Note_off_c, 1, 92, 0
2, 113200, Note_on_c, 1, 54, 127
2, 113200, Note_on_c, 1, 78, 127
2, 113280, Note_off_c, 1, 54, 0
2, 113280, Note_off_c, 1, 78, 0
2, 113320, Note_on_c, 1, 68, 127
2, 113320, Note_on_c, 1, 92, 127
2, 113440, Note_off_c, 1, 68, 0
2, 113440, Note_off_c, 1, 92, 0
2, 113480, Note_on_c, 1, 56, 127
2, 113480, Note_on_c, 1, 80, 127
2, 113600, Note_off_c, 1, 56, 0
2, 113600, Note_off_c, 1, 80, 0
2, 113640, Note_on_c, 1, 68, 127
2, 113640, Note_on_c, 1, 92, 127
2, 113760, Note_off_c, 1, 68, 0
2, 113760, Note_off_c, 1, 92, 0
2, 113800, Note_on_c, 1, 49, 127
2, 113800, Note_on_c, 1, 73, 127
2, 113880, Note_off_c, 1, 49, 0
2, 113880, Note_off_c, 1, 73, 0
2, 113920, Note_on_c, 1, 61, 127
2, 113920, Note_on_c, 1, 85, 127
2, 114040, Note_off_c, 1, 61, 0
2, 114040, Note_off_c, 1, 85, 0
2, 114080, Note_on_c, 1, 49, 127
2, 114080, Note_on_c, 1, 73, 127
2, 114200, Note_off_c, 1, 49, 0
2, 114200, Note_off_c, 1, 73, 0
2, 114240, Note_on_c, 1, 61, 127
2, 114240, Note_on_c, 1, 85, 127
2, 114360, Note_off_c, 1, 61, 0
2, 114360, Note_off_c, 1, 85, 0
2, 114400, Note_on_c, 1, 49, 127
2, 114400, Note_on_c, 1, 73, 127
2, 114480, Note_off_c, 1, 49, 0
2, 114480, Note_off_c, 1, 73, 0
2, 114520, Note_on_c, 1, 61, 127
2, 114520, Note_on_c, 1, 85, 127
2, 114600, Note_off_c, 1, 61, 0
2, 114600, Note_off_c, 1, 85, 0
2, 114640, Note_on_c, 1, 61, 127
2, 114640, Note_on_c, 1, 85, 127
2, 114680, Note_off_c, 1, 61, 0
2, 114680, Note_off_c, 1, 85, 0
2, 114720, Note_on_c, 1, 56, 127
2, 114720, Note_on_c, 1, 80, 127
2, 114840, Note_off_c, 1, 56, 0
2, 114840, Note_off_c, 1, 80, 0
2, 114880, Note_on_c, 1, 61, 127
2, 114880, Note_on_c, 1, 85, 127
2, 115000, Note_off_c, 1, 61, 0
2, 115000, Note_off_c, 1, 85, 0
2, 115040, Note_on_c, 1, 56, 127
2, 115120, Note_off_c, 1, 56, 0
2, 115160, Note_on_c, 1, 61, 127
2, 115160, Note_on_c, 1, 85, 127
2, 115280, Note_off_c, 1, 61, 0
2, 115280, Note_off_c, 1, 85, 0
2, 115320, Note_on_c, 1, 58, 127
2, 115320, Note_on_c, 1, 85, 127
2, 115440, Note_off_c, 1, 58, 0
2, 115440, Note_off_c, 1, 85, 0
2, 115480, Note_on_c, 1, 61, 127
2, 115480, Note_on_c, 1, 85, 127
2, 115600, Note_off_c, 1, 61, 0
2, 115600, Note_off_c, 1, 85, 0
2, 115640, Note_on_c, 1, 49, 127
2, 115640, Note_on_c, 1, 85, 127
2, 115720, Note_off_c, 1, 49, 0
2, 115760, Note_on_c, 1, 61, 127
2, 115800, Note_off_c, 1, 85, 0
2, 115840, Note_on_c, 1, 85, 127
2, 115880, Note_off_c, 1, 61, 0
2, 115880, Note_off_c, 1, 85, 0
2, 115920, Note_on_c, 1, 57, 127
2, 115920, Note_on_c, 1, 81, 127
2, 116040, Note_off_c, 1, 57, 0
2, 116040, Note_off_c, 1, 81, 0
2, 116080, Note_on_c, 1, 49, 127
2, 116080, Note_on_c, 1, 78, 127
2, 116200, Note_off_c, 1, 49, 0
2, 116200, Note_off_c, 1, 78, 0
2, 116240, Note_on_c, 1, 61, 127
2, 116320, Note_off_c, 1, 61, 0
2, 116360, Note_on_c, 1, 54, 127
2, 116480, Note_off_c, 1, 54, 0
2, 116520, Note_on_c, 1, 49, 127
2, 116520, Note_on_c, 1, 78, 127
2, 116640, Note_off_c, 1, 49, 0
2, 116640, Note_off_c, 1, 78, 0
2, 116720, Note_on_c, 1, 66, 127
2, 116840, Note_off_c, 1, 66, 0
2, 116880, Note_on_c, 1, 54, 127
2, 116880, Note_on_c, 1, 78, 127
2, 116960, Note_off_c, 1, 54, 0
2, 117000, Note_on_c, 1, 58, 127
2, 117120, Note_off_c, 1, 58, 0
2, 117160, Note_on_c, 1, 58, 127
2, 117280, Note_off_c, 1, 58, 0
2, 117280, Note_off_c, 1, 78, 0
2, 117320, Note_on_c, 1, 54, 127
2, 117440, Note_off_c, 1, 54, 0
2, 117480, Note_on_c, 1, 49, 127
2, 117480, Note_on_c, 1, 78, 127
2, 117560, Note_off_c, 1, 49, 0
2, 117600, Note_on_c, 1, 53, 127
2, 117720, Note_off_c, 1, 53, 0
2, 117720, Note_off_c, 1, 78, 0
2, 117760, Note_on_c, 1, 61, 127
2, 117760, Note_on_c, 1, 80, 127
2, 117880, Note_off_c, 1, 61, 0
2, 117880, Note_off_c, 1, 80, 0
2, 117920, Note_on_c, 1, 54, 127
2, 117920, Note_on_c, 1, 85, 127
2, 118040, Note_off_c, 1, 54, 0
2, 118040, Note_off_c, 1, 85, 0
2, 118080, Note_on_c, 1, 52, 127
2, 118080, Note_on_c, 1, 73, 127
2, 118080, Note_on_c, 1, 75, 127
2, 118160, Note_off_c, 1, 52, 0
2, 118160, Note_off_c, 1, 75, 0
2, 118200, Note_on_c, 1, 47, 127
2, 118200, Note_off_c, 1, 73, 0
2, 118200, Note_on_c, 1, 85, 127
2, 118320, Note_off_c, 1, 47, 0
2, 118320, Note_off_c, 1, 85, 0
2, 118360, Note_on_c, 1, 54, 127
2, 118360, Note_on_c, 1, 83, 127
2, 118480, Note_off_c, 1, 54, 0
2, 118480, Note_off_c, 1, 83, 0
2, 118520, Note_on_c, 1, 56, 127
2, 118520, Note_on_c, 1, 80, 127
2, 118640, Note_off_c, 1, 56, 0
2, 118640, Note_off_c, 1, 80, 0
2, 118680, Note_on_c, 1, 49, 127
2, 118680, Note_on_c, 1, 82, 127
2, 118760, Note_off_c, 1, 49, 0
2, 118800, Note_on_c, 1, 56, 127
2, 118880, Note_off_c, 1, 56, 0
2, 118880, Note_off_c, 1, 82, 0
2, 118920, Note_on_c, 1, 56, 127
2, 118920, Note_on_c, 1, 82, 127
2, 118960, Note_off_c, 1, 56, 0
2, 119000, Note_on_c, 1, 49, 127
2, 119120, Note_off_c, 1, 49, 0
2, 119160, Note_on_c, 1, 56, 127
2, 119280, Note_off_c, 1, 56, 0
2, 119280, Note_off_c, 1, 82, 0
2, 119320, Note_on_c, 1, 49, 127
2, 119320, Note_on_c, 1, 82, 127
2, 119400, Note_off_c, 1, 49, 0
2, 119440, Note_on_c, 1, 56, 127
2, 119560, Note_off_c, 1, 56, 0
2, 119600, Note_on_c, 1, 49, 127
2, 119720, Note_off_c, 1, 49, 0
2, 119760, Note_on_c, 1, 56, 127
2, 119880, Note_off_c, 1, 56, 0
2, 119920, Note_on_c, 1, 58, 127
2, 119920, Note_on_c, 1, 77, 127
2, 120000, Note_off_c, 1, 58, 0
2, 120000, Note_off_c, 1, 77, 0
2, 120000, Note_off_c, 1, 82, 0
2, 120040, End_track
3, 0, Start_track
3, 0, Title_t, "MIDI"
3, 1536, End_track
0, 0, End_of_file
