0, 0, Header, 1, 3, 192
1, 0, Start_track
1, 0, Time_signature, 4, 2, 24, 8
1, 0, Tempo, 500000
1, 120040, End_track
2, 0, Start_track
2, 0, Text_t, "random instrument: random person i dunno whatev"
2, 0, Title_t, "Track 1"
2, 0, Note_on_c, 1, 50, 127
2, 0, Note_on_c, 1, 57, 127
2, 0, Note_on_c, 1, 65, 127
2, 0, Note_on_c, 1, 69, 127
2, 0, Note_on_c, 1, 74, 127
2, 0, Note_on_c, 1, 77, 127
2, 0, Note_on_c, 1, 81, 127
2, 80, Note_off_c, 1, 50, 0
2, 80, Note_off_c, 1, 57, 0
2, 80, Note_off_c, 1, 65, 0
2, 80, Note_off_c, 1, 69, 0
2, 80, Note_off_c, 1, 74, 0
2, 80, Note_off_c, 1, 77, 0
2, 80, Note_off_c, 1, 81, 0
2, 120, Note_on_c, 1, 50, 127
2, 120, Note_on_c, 1, 57, 127
2, 120, Note_on_c, 1, 65, 127
2, 120, Note_on_c, 1, 69, 127
2, 120, Note_on_c, 1, 74, 127
2, 120, Note_on_c, 1, 77, 127
2, 120, Note_on_c, 1, 81, 127
2, 360, Note_off_c, 1, 50, 0
2, 360, Note_off_c, 1, 57, 0
2, 360, Note_off_c, 1, 65, 0
2, 360, Note_off_c, 1, 69, 0
2, 360, Note_off_c, 1, 74, 0
2, 360, Note_off_c, 1, 77, 0
2, 360, Note_off_c, 1, 81, 0
2, 400, Note_on_c, 1, 47, 127
2, 400, Note_on_c, 1, 59, 127
2, 400, Note_on_c, 1, 66, 127
2, 400, Note_on_c, 1, 71, 127
2, 400, Note_on_c, 1, 74, 127
2, 800, Note_off_c, 1, 47, 0
2, 800, Note_off_c, 1, 59, 0
2, 800, Note_off_c, 1, 66, 0
2, 800, Note_off_c, 1, 71, 0
2, 800, Note_off_c, 1, 74, 0
2, 840, Note_on_c, 1, 47, 127
2, 840, Note_on_c, 1, 63, 127
2, 840, Note_on_c, 1, 66, 127
2, 840, Note_on_c, 1, 71, 127
2, 960, Note_off_c, 1, 47, 0
2, 960, Note_off_c, 1, 63, 0
2, 960, Note_off_c, 1, 66, 0
2, 960, Note_off_c, 1, 71, 0
2, 5160, Note_on_c, 1, 48, 127
2, 5160, Note_on_c, 1, 55, 127
2, 5160, Note_on_c, 1, 60, 127
2, 5160, Note_on_c, 1, 64, 127
2, 5400, Note_off_c, 1, 48, 0
2, 5400, Note_off_c, 1, 55, 0
2, 5400, Note_off_c, 1, 60, 0
2, 5400, Note_off_c, 1, 64, 0
2, 5720, Note_on_c, 1, 62, 127
2, 5720, Note_on_c, 1, 69, 127
2, 5720, Note_on_c, 1, 74, 127
2, 5720, Note_on_c, 1, 77, 127
2, 5960, Note_off_c, 1, 62, 0
2, 5960, Note_off_c, 1, 69, 0
2, 5960, Note_off_c, 1, 74, 0
2, 5960, Note_off_c, 1, 77, 0
2, 6000, Note_on_c, 1, 57, 127
2, 6000, Note_on_c, 1, 67, 127
2, 6000, Note_on_c, 1, 73, 127
2, 6000, Note_on_c, 1, 76, 127
2, 6040, Note_off_c, 1, 57, 0
2, 6040, Note_on_c, 1, 71, 127
2, 6040, Note_on_c, 1, 79, 127
2, 6040, Note_on_c, 1, 83, 127
2, 6040, Note_on_c, 1, 88, 127
2, 6040, Note_on_c, 1, 95, 127
2, 6080, Note_on_c, 1, 57, 127
2, 6080, Note_off_c, 1, 71, 0
2, 6080, Note_off_c, 1, 79, 0
2, 6080, Note_off_c, 1, 83, 0
2, 6080, Note_off_c, 1, 88, 0
2, 6080, Note_off_c, 1, 95, 0
2, 6160, Note_off_c, 1, 57, 0
2, 6160, Note_on_c, 1, 71, 127
2, 6160, Note_on_c, 1, 79, 127
2, 6160, Note_on_c, 1, 83, 127
2, 6160, Note_on_c, 1, 88, 127
2, 6160, Note_on_c, 1, 95, 127
2, 6200, Note_on_c, 1, 42, 127
2, 6200, Note_on_c, 1, 52, 127
2, 6200, Note_on_c, 1, 59, 127
2, 6200, Note_on_c, 1, 64, 127
2, 6200, Note_off_c, 1, 67, 0
2, 6200, Note_off_c, 1, 71, 0
2, 6200, Note_off_c, 1, 73, 0
2, 6200, Note_off_c, 1, 76, 0
2, 6200, Note_off_c, 1, 79, 0
2, 6200, Note_off_c, 1, 83, 0
2, 6200, Note_off_c, 1, 88, 0
2, 6200, Note_off_c, 1, 95, 0
2, 6240, Note_off_c, 1, 42, 0
2, 6240, Note_off_c, 1, 52, 0
2, 6240, Note_off_c, 1, 59, 0
2, 6240, Note_off_c, 1, 64, 0
2, 6280, Note_on_c, 1, 57, 127
2, 6280, Note_on_c, 1, 67, 127
2, 6280, Note_on_c, 1, 73, 127
2, 6280, Note_on_c, 1, 77, 127
2, 6520, Note_off_c, 1, 57, 0
2, 6520, Note_off_c, 1, 67, 0
2, 6520, Note_off_c, 1, 73, 0
2, 6520, Note_off_c, 1, 77, 0
2, 6560, Note_on_c, 1, 62, 127
2, 6560, Note_on_c, 1, 65, 127
2, 6560, Note_on_c, 1, 69, 127
2, 6560, Note_on_c, 1, 74, 127
2, 6840, Note_off_c, 1, 62, 0
2, 6840, Note_off_c, 1, 65, 0
2, 6840, Note_off_c, 1, 69, 0
2, 6840, Note_off_c, 1, 74, 0
2, 6920, Note_on_c, 1, 62, 127
2, 6920, Note_on_c, 1, 69, 127
2, 6920, Note_on_c, 1, 74, 127
2, 6920, Note_on_c, 1, 77, 127
2, 7160, Note_off_c, 1, 62, 0
2, 7160, Note_off_c, 1, 69, 0
2, 7160, Note_off_c, 1, 74, 0
2, 7160, Note_off_c, 1, 77, 0
2, 7200, Note_on_c, 1, 67, 127
2, 7200, Note_on_c, 1, 71, 127
2, 7200, Note_on_c, 1, 74, 127
2, 7440, Note_off_c, 1, 67, 0
2, 7440, Note_off_c, 1, 71, 0
2, 7440, Note_off_c, 1, 74, 0
2, 7480, Note_on_c, 1, 67, 127
2, 7480, Note_on_c, 1, 71, 127
2, 7480, Note_on_c, 1, 74, 127
2, 7600, Note_off_c, 1, 67, 0
2, 7600, Note_off_c, 1, 71, 0
2, 7600, Note_off_c, 1, 74, 0
2, 7640, Note_on_c, 1, 67, 127
2, 7640, Note_on_c, 1, 72, 127
2, 7640, Note_on_c, 1, 76, 127
2, 7760, Note_off_c, 1, 67, 0
2, 7760, Note_off_c, 1, 72, 0
2, 7760, Note_off_c, 1, 76, 0
2, 7800, Note_on_c, 1, 66, 127
2, 7800, Note_on_c, 1, 72, 127
2, 7800, Note_on_c, 1, 76, 127
2, 8040, Note_off_c, 1, 66, 0
2, 8040, Note_off_c, 1, 72, 0
2, 8040, Note_off_c, 1, 76, 0
2, 8080, Note_on_c, 1, 67, 127
2, 8080, Note_on_c, 1, 71, 127
2, 8080, Note_on_c, 1, 74, 127
2, 8120, Note_off_c, 1, 67, 0
2, 8120, Note_off_c, 1, 71, 0
2, 8120, Note_off_c, 1, 74, 0
2, 8240, Note_on_c, 1, 67, 127
2, 8240, Note_on_c, 1, 72, 127
2, 8240, Note_on_c, 1, 76, 127
2, 8280, Note_off_c, 1, 67, 0
2, 8280, Note_off_c, 1, 72, 0
2, 8280, Note_off_c, 1, 76, 0
2, 8400, Note_on_c, 1, 48, 127
2, 8400, Note_on_c, 1, 64, 127
2, 8400, Note_on_c, 1, 69, 127
2, 8400, Note_on_c, 1, 73, 127
2, 8440, Note_off_c, 1, 48, 0
2, 8560, Note_on_c, 1, 49, 127
2, 8600, Note_off_c, 1, 49, 0
2, 8680, Note_off_c, 1, 64, 0
2, 8680, Note_off_c, 1, 69, 0
2, 8680, Note_off_c, 1, 73, 0
2, 8720, Note_on_c, 1, 40, 127
2, 8720, Note_on_c, 1, 67, 127
2, 8720, Note_on_c, 1, 71, 127
2, 8760, Note_off_c, 1, 40, 0
2, 8880, Note_off_c, 1, 67, 0
2, 8880, Note_off_c, 1, 71, 0
2, 8920, Note_on_c, 1, 52, 127
2, 8920, Note_on_c, 1, 67, 127
2, 8920, Note_on_c, 1, 71, 127
2, 8960, Note_off_c, 1, 52, 0
2, 9040, Note_on_c, 1, 40, 127
2, 9080, Note_off_c, 1, 40, 0
2, 9120, Note_off_c, 1, 67, 0
2, 9120, Note_off_c, 1, 71, 0
2, 9160, Note_on_c, 1, 31, 127
2, 9160, Note_on_c, 1, 43, 127
2, 9280, Note_off_c, 1, 31, 0
2, 9280, Note_off_c, 1, 43, 0
2, 9320, Note_on_c, 1, 64, 127
2, 9320, Note_on_c, 1, 67, 127
2, 9320, Note_on_c, 1, 71, 127
2, 9720, Note_off_c, 1, 71, 0
2, 9760, Note_on_c, 1, 74, 127
2, 9880, Note_off_c, 1, 64, 0
2, 9880, Note_off_c, 1, 67, 0
2, 9880, Note_off_c, 1, 74, 0
2, 9920, Note_on_c, 1, 63, 127
2, 9920, Note_on_c, 1, 69, 127
2, 9920, Note_on_c, 1, 73, 127
2, 10040, Note_off_c, 1, 63, 0
2, 10040, Note_off_c, 1, 69, 0
2, 10040, Note_off_c, 1, 73, 0
2, 10080, Note_on_c, 1, 45, 127
2, 10080, Note_on_c, 1, 67, 127
2, 10080, Note_on_c, 1, 71, 127
2, 10320, Note_off_c, 1, 45, 0
2, 10320, Note_off_c, 1, 67, 0
2, 10320, Note_off_c, 1, 71, 0
2, 10360, Note_on_c, 1, 61, 127
2, 10360, Note_on_c, 1, 67, 127
2, 10360, Note_on_c, 1, 71, 127
2, 10480, Note_off_c, 1, 61, 0
2, 10480, Note_off_c, 1, 67, 0
2, 10480, Note_off_c, 1, 71, 0
2, 10520, Note_on_c, 1, 62, 127
2, 10520, Note_on_c, 1, 66, 127
2, 10520, Note_on_c, 1, 69, 127
2, 10560, Note_off_c, 1, 62, 0
2, 10560, Note_off_c, 1, 66, 0
2, 10560, Note_off_c, 1, 69, 0
2, 10640, Note_on_c, 1, 64, 127
2, 10640, Note_on_c, 1, 67, 127
2, 10640, Note_on_c, 1, 76, 127
2, 10640, Note_on_c, 1, 79, 127
2, 10680, Note_off_c, 1, 64, 0
2, 10680, Note_off_c, 1, 67, 0
2, 10680, Note_off_c, 1, 76, 0
2, 10680, Note_off_c, 1, 79, 0
2, 10840, Note_on_c, 1, 50, 127
2, 10840, Note_on_c, 1, 52, 127
2, 10840, Note_on_c, 1, 62, 127
2, 10840, Note_on_c, 1, 66, 127
2, 10840, Note_on_c, 1, 69, 127
2, 10840, Note_on_c, 1, 78, 127
2, 10880, Note_off_c, 1, 50, 0
2, 10880, Note_off_c, 1, 52, 0
2, 10880, Note_off_c, 1, 62, 0
2, 10880, Note_off_c, 1, 66, 0
2, 10880, Note_off_c, 1, 69, 0
2, 10880, Note_off_c, 1, 78, 0
2, 11040, Note_on_c, 1, 52, 127
2, 11160, Note_off_c, 1, 52, 0
2, 11200, Note_on_c, 1, 45, 127
2, 11200, Note_on_c, 1, 55, 127
2, 11200, Note_on_c, 1, 66, 127
2, 11240, Note_off_c, 1, 45, 0
2, 11240, Note_off_c, 1, 55, 0
2, 11240, Note_off_c, 1, 66, 0
2, 11320, Note_on_c, 1, 45, 127
2, 11360, Note_off_c, 1, 45, 0
2, 11800, Note_on_c, 1, 57, 127
2, 11800, Note_on_c, 1, 69, 127
2, 11800, Note_on_c, 1, 73, 127
2, 11800, Note_on_c, 1, 76, 127
2, 12040, Note_off_c, 1, 57, 0
2, 12040, Note_off_c, 1, 69, 0
2, 12040, Note_off_c, 1, 73, 0
2, 12040, Note_off_c, 1, 76, 0
2, 12080, Note_on_c, 1, 55, 127
2, 12080, Note_on_c, 1, 64, 127
2, 12080, Note_on_c, 1, 72, 127
2, 12080, Note_on_c, 1, 79, 127
2, 12200, Note_off_c, 1, 55, 0
2, 12200, Note_off_c, 1, 64, 0
2, 12200, Note_off_c, 1, 72, 0
2, 12200, Note_off_c, 1, 79, 0
2, 12240, Note_on_c, 1, 55, 127
2, 12240, Note_on_c, 1, 64, 127
2, 12240, Note_on_c, 1, 72, 127
2, 12240, Note_on_c, 1, 79, 127
2, 12360, Note_off_c, 1, 55, 0
2, 12360, Note_off_c, 1, 64, 0
2, 12360, Note_off_c, 1, 72, 0
2, 12360, Note_off_c, 1, 79, 0
2, 12400, Note_on_c, 1, 55, 127
2, 12400, Note_on_c, 1, 59, 127
2, 12400, Note_on_c, 1, 62, 127
2, 12400, Note_on_c, 1, 81, 127
2, 12520, Note_off_c, 1, 55, 0
2, 12520, Note_off_c, 1, 59, 0
2, 12520, Note_off_c, 1, 62, 0
2, 12520, Note_off_c, 1, 81, 0
2, 12560, Note_on_c, 1, 57, 127
2, 12560, Note_on_c, 1, 60, 127
2, 12560, Note_on_c, 1, 64, 127
2, 12560, Note_on_c, 1, 69, 127
2, 12600, Note_off_c, 1, 57, 0
2, 12600, Note_off_c, 1, 60, 0
2, 12600, Note_off_c, 1, 64, 0
2, 12600, Note_off_c, 1, 69, 0
2, 12760, Note_on_c, 1, 59, 127
2, 12760, Note_on_c, 1, 67, 127
2, 12760, Note_on_c, 1, 74, 127
2, 13000, Note_off_c, 1, 59, 0
2, 13000, Note_off_c, 1, 67, 0
2, 13000, Note_off_c, 1, 74, 0
2, 13040, Note_on_c, 1, 55, 127
2, 13040, Note_on_c, 1, 59, 127
2, 13040, Note_on_c, 1, 67, 127
2, 13040, Note_on_c, 1, 74, 127
2, 13320, Note_off_c, 1, 59, 0
2, 13320, Note_off_c, 1, 67, 0
2, 13360, Note_on_c, 1, 36, 127
2, 13360, Note_on_c, 1, 46, 127
2, 13360, Note_off_c, 1, 55, 0
2, 13360, Note_on_c, 1, 62, 127
2, 13360, Note_off_c, 1, 74, 0
2, 13400, Note_off_c, 1, 36, 0
2, 13400, Note_off_c, 1, 46, 0
2, 13400, Note_on_c, 1, 50, 127
2, 13400, Note_on_c, 1, 55, 127
2, 13400, Note_off_c, 1, 62, 0
2, 13400, Note_on_c, 1, 71, 127
2, 13400, Note_on_c, 1, 76, 127
2, 13440, Note_on_c, 1, 40, 127
2, 13440, Note_off_c, 1, 50, 0
2, 13440, Note_off_c, 1, 55, 0
2, 13440, Note_off_c, 1, 71, 0
2, 13440, Note_off_c, 1, 76, 0
2, 13440, Note_on_c, 1, 90, 127
2, 13440, Note_on_c, 1, 92, 127
2, 13440, Note_on_c, 1, 95, 127
2, 13440, Note_on_c, 1, 98, 127
2, 13440, Note_on_c, 1, 102, 127
2, 13480, Note_off_c, 1, 40, 0
2, 13480, Note_on_c, 1, 59, 127
2, 13480, Note_on_c, 1, 64, 127
2, 13480, Note_on_c, 1, 67, 127
2, 13480, Note_on_c, 1, 71, 127
2, 13480, Note_off_c, 1, 90, 0
2, 13480, Note_on_c, 1, 91, 127
2, 13480, Note_off_c, 1, 92, 0
2, 13480, Note_off_c, 1, 95, 0
2, 13480, Note_off_c, 1, 98, 0
2, 13480, Note_off_c, 1, 102, 0
2, 13520, Note_on_c, 1, 46, 127
2, 13520, Note_on_c, 1, 55, 127
2, 13520, Note_off_c, 1, 59, 0
2, 13520, Note_off_c, 1, 64, 0
2, 13520, Note_off_c, 1, 67, 0
2, 13520, Note_off_c, 1, 71, 0
2, 13520, Note_on_c, 1, 79, 127
2, 13520, Note_on_c, 1, 82, 127
2, 13520, Note_off_c, 1, 91, 0
2, 13560, Note_on_c, 1, 36, 127
2, 13560, Note_off_c, 1, 46, 0
2, 13560, Note_on_c, 1, 48, 127
2, 13560, Note_off_c, 1, 55, 0
2, 13560, Note_on_c, 1, 67, 127
2, 13560, Note_on_c, 1, 72, 127
2, 13560, Note_on_c, 1, 76, 127
2, 13560, Note_off_c, 1, 79, 0
2, 13560, Note_off_c, 1, 82, 0
2, 13560, Note_on_c, 1, 84, 127
2, 13600, Note_off_c, 1, 36, 0
2, 13600, Note_off_c, 1, 48, 0
2, 13600, Note_on_c, 1, 55, 127
2, 13600, Note_off_c, 1, 67, 0
2, 13600, Note_off_c, 1, 72, 0
2, 13600, Note_off_c, 1, 76, 0
2, 13600, Note_off_c, 1, 84, 0
2, 13640, Note_on_c, 1, 52, 127
2, 13640, Note_on_c, 1, 71, 127
2, 13640, Note_on_c, 1, 74, 127
2, 13640, Note_on_c, 1, 83, 127
2, 13680, Note_off_c, 1, 52, 0
2, 13680, Note_off_c, 1, 55, 0
2, 13680, Note_off_c, 1, 71, 0
2, 13680, Note_off_c, 1, 74, 0
2, 13680, Note_off_c, 1, 83, 0
2, 13760, Note_on_c, 1, 59, 127
2, 13760, Note_on_c, 1, 66, 127
2, 13760, Note_on_c, 1, 71, 127
2, 13760, Note_on_c, 1, 75, 127
2, 13840, Note_off_c, 1, 59, 0
2, 13840, Note_off_c, 1, 66, 0
2, 13840, Note_off_c, 1, 71, 0
2, 13840, Note_off_c, 1, 75, 0
2, 13960, Note_on_c, 1, 60, 127
2, 13960, Note_on_c, 1, 67, 127
2, 13960, Note_on_c, 1, 72, 127
2, 13960, Note_on_c, 1, 76, 127
2, 14000, Note_off_c, 1, 60, 0
2, 14000, Note_off_c, 1, 67, 0
2, 14000, Note_off_c, 1, 72, 0
2, 14000, Note_off_c, 1, 76, 0
2, 14080, Note_on_c, 1, 60, 127
2, 14080, Note_on_c, 1, 67, 127
2, 14080, Note_on_c, 1, 72, 127
2, 14080, Note_on_c, 1, 76, 127
2, 14120, Note_off_c, 1, 60, 0
2, 14120, Note_off_c, 1, 67, 0
2, 14120, Note_off_c, 1, 72, 0
2, 14120, Note_off_c, 1, 76, 0
2, 14240, Note_on_c, 1, 60, 127
2, 14240, Note_on_c, 1, 67, 127
2, 14240, Note_on_c, 1, 72, 127
2, 14240, Note_on_c, 1, 76, 127
2, 14280, Note_off_c, 1, 60, 0
2, 14280, Note_off_c, 1, 67, 0
2, 14280, Note_off_c, 1, 72, 0
2, 14280, Note_off_c, 1, 76, 0
2, 14400, Note_on_c, 1, 60, 127
2, 14400, Note_on_c, 1, 67, 127
2, 14400, Note_on_c, 1, 72, 127
2, 14400, Note_on_c, 1, 76, 127
2, 14440, Note_off_c, 1, 60, 0
2, 14440, Note_off_c, 1, 67, 0
2, 14440, Note_off_c, 1, 72, 0
2, 14440, Note_off_c, 1, 76, 0
2, 14560, Note_on_c, 1, 60, 127
2, 14560, Note_on_c, 1, 67, 127
2, 14560, Note_on_c, 1, 72, 127
2, 14560, Note_on_c, 1, 76, 127
2, 14600, Note_off_c, 1, 60, 0
2, 14600, Note_off_c, 1, 67, 0
2, 14600, Note_off_c, 1, 72, 0
2, 14600, Note_off_c, 1, 76, 0
2, 14680, Note_on_c, 1, 60, 127
2, 14680, Note_on_c, 1, 67, 127
2, 14680, Note_on_c, 1, 72, 127
2, 14680, Note_on_c, 1, 76, 127
2, 14720, Note_off_c, 1, 60, 0
2, 14720, Note_off_c, 1, 67, 0
2, 14720, Note_off_c, 1, 72, 0
2, 14720, Note_off_c, 1, 76, 0
2, 14760, Note_on_c, 1, 60, 127
2, 14760, Note_on_c, 1, 67, 127
2, 14760, Note_on_c, 1, 72, 127
2, 14760, Note_on_c, 1, 76, 127
2, 15000, Note_off_c, 1, 60, 0
2, 15000, Note_off_c, 1, 67, 0
2, 15000, Note_off_c, 1, 72, 0
2, 15000, Note_off_c, 1, 76, 0
2, 15480, Note_on_c, 1, 60, 127
2, 15480, Note_on_c, 1, 76, 127
2, 15760, Note_off_c, 1, 60, 0
2, 15760, Note_off_c, 1, 76, 0
2, 15800, Note_on_c, 1, 64, 127
2, 15800, Note_on_c, 1, 67, 127
2, 15960, Note_on_c, 1, 60, 127
2, 15960, Note_off_c, 1, 67, 0
2, 15960, Note_on_c, 1, 71, 127
2, 16000, Note_off_c, 1, 60, 0
2, 16000, Note_on_c, 1, 67, 127
2, 16000, Note_off_c, 1, 71, 0
2, 16040, Note_on_c, 1, 60, 127
2, 16040, Note_off_c, 1, 67, 0
2, 16040, Note_on_c, 1, 69, 127
2, 16080, Note_on_c, 1, 57, 127
2, 16080, Note_on_c, 1, 63, 127
2, 16080, Note_off_c, 1, 64, 0
2, 16080, Note_off_c, 1, 69, 0
2, 16080, Note_on_c, 1, 72, 127
2, 16080, Note_on_c, 1, 78, 127
2, 16080, Note_on_c, 1, 83, 127
2, 16120, Note_off_c, 1, 63, 0
2, 16120, Note_off_c, 1, 72, 0
2, 16120, Note_off_c, 1, 78, 0
2, 16120, Note_off_c, 1, 83, 0
2, 16160, Note_on_c, 1, 67, 127
2, 16240, Note_on_c, 1, 56, 127
2, 16240, Note_off_c, 1, 57, 0
2, 16240, Note_on_c, 1, 65, 127
2, 16240, Note_off_c, 1, 67, 0
2, 16240, Note_on_c, 1, 76, 127
2, 16280, Note_off_c, 1, 76, 0
2, 16320, Note_on_c, 1, 75, 127
2, 16360, Note_off_c, 1, 56, 0
2, 16360, Note_off_c, 1, 65, 0
2, 16360, Note_off_c, 1, 75, 0
2, 16400, Note_on_c, 1, 64, 127
2, 16560, Note_on_c, 1, 84, 127
2, 16600, Note_off_c, 1, 84, 0
2, 16640, Note_on_c, 1, 84, 127
2, 16680, Note_off_c, 1, 60, 0
2, 16680, Note_off_c, 1, 64, 0
2, 16680, Note_off_c, 1, 84, 0
2, 16720, Note_on_c, 1, 60, 127
2, 16720, Note_on_c, 1, 64, 127
2, 16760, Note_on_c, 1, 86, 127
2, 16840, Note_off_c, 1, 86, 0
2, 16880, Note_on_c, 1, 84, 127
2, 16920, Note_off_c, 1, 84, 0
2, 16960, Note_on_c, 1, 79, 127
2, 17000, Note_off_c, 1, 79, 0
2, 17040, Note_on_c, 1, 81, 127
2, 17080, Note_off_c, 1, 81, 0
2, 17120, Note_on_c, 1, 81, 127
2, 17160, Note_off_c, 1, 60, 0
2, 17160, Note_off_c, 1, 64, 0
2, 17160, Note_off_c, 1, 81, 0
2, 17200, Note_on_c, 1, 62, 127
2, 17200, Note_on_c, 1, 65, 127
2, 17200, Note_on_c, 1, 79, 127
2, 17240, Note_off_c, 1, 79, 0
2, 17280, Note_on_c, 1, 79, 127
2, 17320, Note_off_c, 1, 79, 0
2, 17360, Note_on_c, 1, 80, 127
2, 17400, Note_off_c, 1, 80, 0
2, 17440, Note_off_c, 1, 62, 0
2, 17440, Note_off_c, 1, 65, 0
2, 17440, Note_on_c, 1, 77, 127
2, 17480, Note_on_c, 1, 61, 127
2, 17480, Note_on_c, 1, 64, 127
2, 17480, Note_off_c, 1, 77, 0
2, 17480, Note_on_c, 1, 80, 127
2, 17520, Note_off_c, 1, 80, 0
2, 17560, Note_on_c, 1, 80, 127
2, 17600, Note_off_c, 1, 80, 0
2, 17640, Note_on_c, 1, 79, 127
2, 17680, Note_off_c, 1, 79, 0
2, 17720, Note_on_c, 1, 69, 127
2, 17760, Note_off_c, 1, 61, 0
2, 17760, Note_off_c, 1, 64, 0
2, 17800, Note_on_c, 1, 60, 127
2, 17800, Note_on_c, 1, 63, 127
2, 17800, Note_on_c, 1, 75, 127
2, 18360, Note_off_c, 1, 60, 0
2, 18360, Note_off_c, 1, 63, 0
2, 18360, Note_off_c, 1, 69, 0
2, 18360, Note_off_c, 1, 75, 0
2, 18400, Note_on_c, 1, 58, 127
2, 18400, Note_on_c, 1, 62, 127
2, 18400, Note_on_c, 1, 70, 127
2, 18400, Note_on_c, 1, 74, 127
2, 18520, Note_off_c, 1, 70, 0
2, 18520, Note_off_c, 1, 74, 0
2, 18560, Note_on_c, 1, 50, 127
2, 18560, Note_on_c, 1, 70, 127
2, 18640, Note_off_c, 1, 50, 0
2, 18640, Note_off_c, 1, 70, 0
2, 18680, Note_on_c, 1, 57, 127
2, 18680, Note_off_c, 1, 58, 0
2, 18680, Note_off_c, 1, 62, 0
2, 18680, Note_on_c, 1, 63, 127
2, 18680, Note_on_c, 1, 71, 127
2, 18680, Note_on_c, 1, 77, 127
2, 18920, Note_off_c, 1, 57, 0
2, 18920, Note_off_c, 1, 63, 0
2, 18920, Note_off_c, 1, 71, 0
2, 18920, Note_off_c, 1, 77, 0
2, 18960, Note_on_c, 1, 57, 127
2, 18960, Note_on_c, 1, 63, 127
2, 18960, Note_on_c, 1, 71, 127
2, 18960, Note_on_c, 1, 77, 127
2, 20520, Note_off_c, 1, 57, 0
2, 20520, Note_off_c, 1, 63, 0
2, 20520, Note_off_c, 1, 71, 0
2, 20520, Note_off_c, 1, 77, 0
2, 20560, Note_on_c, 1, 62, 127
2, 20560, Note_on_c, 1, 86, 127
2, 20960, Note_off_c, 1, 62, 0
2, 20960, Note_off_c, 1, 86, 0
2, 21000, Note_on_c, 1, 62, 127
2, 21000, Note_on_c, 1, 86, 127
2, 21440, Note_off_c, 1, 62, 0
2, 21440, Note_off_c, 1, 86, 0
2, 21480, Note_on_c, 1, 59, 127
2, 21480, Note_on_c, 1, 83, 127
2, 22960, Note_off_c, 1, 59, 0
2, 22960, Note_off_c, 1, 83, 0
2, 23000, Note_on_c, 1, 59, 127
2, 23000, Note_on_c, 1, 83, 127
2, 24280, Note_off_c, 1, 83, 0
2, 24320, Note_on_c, 1, 83, 127
2, 24600, Note_off_c, 1, 59, 0
2, 24600, Note_off_c, 1, 83, 0
2, 24640, Note_on_c, 1, 59, 127
2, 24640, Note_on_c, 1, 83, 127
2, 25160, Note_off_c, 1, 59, 0
2, 25160, Note_off_c, 1, 83, 0
2, 25200, Note_on_c, 1, 59, 127
2, 25200, Note_on_c, 1, 83, 127
2, 26160, Note_off_c, 1, 59, 0
2, 26160, Note_off_c, 1, 83, 0
2, 26200, Note_on_c, 1, 59, 127
2, 26200, Note_on_c, 1, 83, 127
2, 26840, Note_off_c, 1, 59, 0
2, 26840, Note_off_c, 1, 83, 0
2, 26880, Note_on_c, 1, 63, 127
2, 26880, Note_on_c, 1, 87, 127
2, 27320, Note_off_c, 1, 63, 0
2, 27320, Note_off_c, 1, 87, 0
2, 27360, Note_on_c, 1, 66, 127
2, 27360, Note_on_c, 1, 90, 127
2, 27880, Note_off_c, 1, 66, 0
2, 27880, Note_off_c, 1, 90, 0
2, 27920, Note_on_c, 1, 64, 127
2, 27920, Note_on_c, 1, 88, 127
2, 28040, Note_off_c, 1, 64, 0
2, 28040, Note_off_c, 1, 88, 0
2, 28080, Note_on_c, 1, 64, 127
2, 28080, Note_on_c, 1, 88, 127
2, 28240, Note_off_c, 1, 64, 0
2, 28240, Note_off_c, 1, 88, 0
2, 28280, Note_on_c, 1, 62, 127
2, 28280, Note_on_c, 1, 86, 127
2, 28800, Note_off_c, 1, 62, 0
2, 28800, Note_off_c, 1, 86, 0
2, 28840, Note_on_c, 1, 60, 127
2, 28840, Note_on_c, 1, 84, 127
2, 29680, Note_off_c, 1, 60, 0
2, 29680, Note_off_c, 1, 84, 0
2, 29720, Note_on_c, 1, 62, 127
2, 29720, Note_on_c, 1, 86, 127
2, 30120, Note_off_c, 1, 62, 0
2, 30120, Note_off_c, 1, 86, 0
2, 30160, Note_on_c, 1, 62, 127
2, 30160, Note_on_c, 1, 86, 127
2, 30320, Note_off_c, 1, 62, 0
2, 30320, Note_off_c, 1, 86, 0
2, 30360, Note_on_c, 1, 60, 127
2, 30360, Note_on_c, 1, 84, 127
2, 31480, Note_off_c, 1, 84, 0
2, 31520, Note_off_c, 1, 60, 0
2, 31560, Note_on_c, 1, 62, 127
2, 31560, Note_on_c, 1, 86, 127
2, 32160, Note_on_c, 1, 61, 127
2, 32160, Note_off_c, 1, 62, 0
2, 32160, Note_on_c, 1, 85, 127
2, 32160, Note_off_c, 1, 86, 0
2, 32280, Note_off_c, 1, 61, 0
2, 32280, Note_off_c, 1, 85, 0
2, 32320, Note_on_c, 1, 61, 127
2, 32320, Note_on_c, 1, 85, 127
2, 32480, Note_on_c, 1, 57, 127
2, 32480, Note_off_c, 1, 61, 0
2, 32480, Note_on_c, 1, 81, 127
2, 32480, Note_off_c, 1, 85, 0
2, 33640, Note_off_c, 1, 57, 0
2, 33640, Note_off_c, 1, 81, 0
2, 33680, Note_on_c, 1, 59, 127
2, 33680, Note_on_c, 1, 79, 127
2, 34440, Note_off_c, 1, 59, 0
2, 34440, Note_off_c, 1, 79, 0
2, 34480, Note_on_c, 1, 59, 127
2, 34480, Note_on_c, 1, 79, 127
2, 34560, Note_off_c, 1, 59, 0
2, 34560, Note_off_c, 1, 79, 0
2, 34600, Note_on_c, 1, 57, 127
2, 34600, Note_on_c, 1, 62, 127
2, 34600, Note_on_c, 1, 66, 127
2, 34600, Note_on_c, 1, 69, 127
2, 34600, Note_on_c, 1, 74, 127
2, 34600, Note_on_c, 1, 78, 127
2, 35440, Note_off_c, 1, 57, 0
2, 35440, Note_off_c, 1, 62, 0
2, 35440, Note_off_c, 1, 66, 0
2, 35440, Note_off_c, 1, 69, 0
2, 35440, Note_off_c, 1, 74, 0
2, 35440, Note_off_c, 1, 78, 0
2, 35480, Note_on_c, 1, 59, 127
2, 35480, Note_on_c, 1, 62, 127
2, 35480, Note_on_c, 1, 66, 127
2, 35480, Note_on_c, 1, 83, 127
2, 35520, Note_off_c, 1, 83, 0
2, 35560, Note_on_c, 1, 86, 127
2, 35600, Note_on_c, 1, 83, 127
2, 35600, Note_off_c, 1, 86, 0
2, 35640, Note_off_c, 1, 83, 0
2, 35680, Note_on_c, 1, 83, 127
2, 35720, Note_off_c, 1, 83, 0
2, 35760, Note_on_c, 1, 78, 127
2, 35800, Note_off_c, 1, 78, 0
2, 35840, Note_on_c, 1, 83, 127
2, 35880, Note_off_c, 1, 59, 0
2, 35880, Note_off_c, 1, 62, 0
2, 35880, Note_off_c, 1, 66, 0
2, 35880, Note_off_c, 1, 83, 0
2, 35920, Note_on_c, 1, 69, 127
2, 35920, Note_on_c, 1, 81, 127
2, 36040, Note_off_c, 1, 69, 0
2, 36040, Note_off_c, 1, 81, 0
2, 36080, Note_on_c, 1, 66, 127
2, 36080, Note_on_c, 1, 78, 127
2, 36360, Note_on_c, 1, 65, 127
2, 36360, Note_off_c, 1, 66, 0
2, 36360, Note_on_c, 1, 69, 127
2, 36360, Note_on_c, 1, 72, 127
2, 36360, Note_on_c, 1, 75, 127
2, 36360, Note_on_c, 1, 77, 127
2, 36360, Note_off_c, 1, 78, 0
2, 36480, Note_off_c, 1, 65, 0
2, 36480, Note_off_c, 1, 69, 0
2, 36480, Note_off_c, 1, 72, 0
2, 36480, Note_off_c, 1, 75, 0
2, 36480, Note_off_c, 1, 77, 0
2, 36520, Note_on_c, 1, 65, 127
2, 36520, Note_on_c, 1, 69, 127
2, 36520, Note_on_c, 1, 72, 127
2, 36520, Note_on_c, 1, 75, 127
2, 36520, Note_on_c, 1, 77, 127
2, 36680, Note_off_c, 1, 65, 0
2, 36680, Note_off_c, 1, 69, 0
2, 36680, Note_off_c, 1, 72, 0
2, 36680, Note_off_c, 1, 75, 0
2, 36680, Note_off_c, 1, 77, 0
2, 36720, Note_on_c, 1, 65, 127
2, 36720, Note_on_c, 1, 69, 127
2, 36720, Note_on_c, 1, 72, 127
2, 36720, Note_on_c, 1, 75, 127
2, 36720, Note_on_c, 1, 77, 127
2, 37240, Note_off_c, 1, 65, 0
2, 37240, Note_off_c, 1, 69, 0
2, 37240, Note_off_c, 1, 72, 0
2, 37240, Note_off_c, 1, 75, 0
2, 37240, Note_off_c, 1, 77, 0
2, 37280, Note_on_c, 1, 65, 127
2, 37280, Note_on_c, 1, 69, 127
2, 37280, Note_on_c, 1, 72, 127
2, 37280, Note_on_c, 1, 75, 127
2, 37280, Note_on_c, 1, 77, 127
2, 37400, Note_off_c, 1, 65, 0
2, 37400, Note_off_c, 1, 69, 0
2, 37400, Note_off_c, 1, 72, 0
2, 37400, Note_off_c, 1, 75, 0
2, 37400, Note_off_c, 1, 77, 0
2, 37440, Note_on_c, 1, 65, 127
2, 37440, Note_on_c, 1, 69, 127
2, 37440, Note_on_c, 1, 72, 127
2, 37440, Note_on_c, 1, 75, 127
2, 37440, Note_on_c, 1, 77, 127
2, 37520, Note_off_c, 1, 65, 0
2, 37520, Note_off_c, 1, 69, 0
2, 37520, Note_off_c, 1, 72, 0
2, 37520, Note_off_c, 1, 75, 0
2, 37520, Note_off_c, 1, 77, 0
2, 37560, Note_on_c, 1, 65, 127
2, 37560, Note_on_c, 1, 69, 127
2, 37560, Note_on_c, 1, 72, 127
2, 37560, Note_on_c, 1, 75, 127
2, 37560, Note_on_c, 1, 77, 127
2, 37680, Note_off_c, 1, 65, 0
2, 37680, Note_off_c, 1, 69, 0
2, 37680, Note_off_c, 1, 72, 0
2, 37680, Note_off_c, 1, 75, 0
2, 37680, Note_off_c, 1, 77, 0
2, 37720, Note_on_c, 1, 65, 127
2, 37720, Note_on_c, 1, 69, 127
2, 37720, Note_on_c, 1, 72, 127
2, 37720, Note_on_c, 1, 75, 127
2, 37720, Note_on_c, 1, 77, 127
2, 37840, Note_off_c, 1, 65, 0
2, 37840, Note_off_c, 1, 69, 0
2, 37840, Note_off_c, 1, 72, 0
2, 37840, Note_off_c, 1, 75, 0
2, 37840, Note_off_c, 1, 77, 0
2, 37880, Note_on_c, 1, 65, 127
2, 37880, Note_on_c, 1, 69, 127
2, 37880, Note_on_c, 1, 72, 127
2, 37880, Note_on_c, 1, 75, 127
2, 37880, Note_on_c, 1, 77, 127
2, 37960, Note_off_c, 1, 65, 0
2, 37960, Note_off_c, 1, 69, 0
2, 37960, Note_off_c, 1, 72, 0
2, 37960, Note_off_c, 1, 75, 0
2, 37960, Note_off_c, 1, 77, 0
2, 38000, Note_on_c, 1, 65, 127
2, 38000, Note_on_c, 1, 69, 127
2, 38000, Note_on_c, 1, 72, 127
2, 38000, Note_on_c, 1, 75, 127
2, 38000, Note_on_c, 1, 77, 127
2, 38120, Note_off_c, 1, 65, 0
2, 38120, Note_off_c, 1, 69, 0
2, 38120, Note_off_c, 1, 72, 0
2, 38120, Note_off_c, 1, 75, 0
2, 38120, Note_off_c, 1, 77, 0
2, 38160, Note_on_c, 1, 56, 127
2, 38160, Note_on_c, 1, 61, 127
2, 38160, Note_on_c, 1, 65, 127
2, 38160, Note_on_c, 1, 68, 127
2, 38160, Note_on_c, 1, 77, 127
2, 38280, Note_off_c, 1, 56, 0
2, 38280, Note_off_c, 1, 61, 0
2, 38280, Note_off_c, 1, 65, 0
2, 38280, Note_off_c, 1, 68, 0
2, 38280, Note_off_c, 1, 77, 0
2, 38360, Note_on_c, 1, 56, 127
2, 38360, Note_on_c, 1, 61, 127
2, 38360, Note_on_c, 1, 65, 127
2, 38360, Note_on_c, 1, 68, 127
2, 38360, Note_on_c, 1, 77, 127
2, 38440, Note_off_c, 1, 56, 0
2, 38440, Note_off_c, 1, 61, 0
2, 38440, Note_off_c, 1, 65, 0
2, 38440, Note_off_c, 1, 68, 0
2, 38440, Note_off_c, 1, 77, 0
2, 38480, Note_on_c, 1, 56, 127
2, 38480, Note_on_c, 1, 60, 127
2, 38480, Note_on_c, 1, 66, 127
2, 38480, Note_on_c, 1, 68, 127
2, 38480, Note_on_c, 1, 75, 127
2, 38760, Note_off_c, 1, 56, 0
2, 38760, Note_off_c, 1, 60, 0
2, 38760, Note_off_c, 1, 66, 0
2, 38760, Note_off_c, 1, 68, 0
2, 38760, Note_off_c, 1, 75, 0
2, 38800, Note_on_c, 1, 56, 127
2, 38800, Note_on_c, 1, 63, 127
2, 38800, Note_on_c, 1, 66, 127
2, 38800, Note_on_c, 1, 68, 127
2, 39040, Note_off_c, 1, 56, 0
2, 39040, Note_off_c, 1, 63, 0
2, 39040, Note_off_c, 1, 66, 0
2, 39040, Note_off_c, 1, 68, 0
2, 39080, Note_on_c, 1, 49, 127
2, 39080, Note_on_c, 1, 56, 127
2, 39080, Note_on_c, 1, 61, 127
2, 39080, Note_on_c, 1, 65, 127
2, 39080, Note_on_c, 1, 68, 127
2, 39080, Note_on_c, 1, 73, 127
2, 40480, Note_off_c, 1, 49, 0
2, 40480, Note_off_c, 1, 56, 0
2, 40480, Note_off_c, 1, 61, 0
2, 40480, Note_off_c, 1, 65, 0
2, 40480, Note_off_c, 1, 68, 0
2, 40480, Note_off_c, 1, 73, 0
2, 48840, Note_on_c, 1, 65, 127
2, 48840, Note_on_c, 1, 68, 127
2, 48840, Note_on_c, 1, 73, 127
2, 49240, Note_off_c, 1, 73, 0
2, 49280, Note_on_c, 1, 63, 127
2, 49280, Note_off_c, 1, 65, 0
2, 49280, Note_on_c, 1, 66, 127
2, 49280, Note_on_c, 1, 72, 127
2, 49680, Note_off_c, 1, 72, 0
2, 49720, Note_on_c, 1, 72, 127
2, 49840, Note_off_c, 1, 63, 0
2, 49840, Note_off_c, 1, 66, 0
2, 49840, Note_off_c, 1, 68, 0
2, 49840, Note_off_c, 1, 72, 0
2, 49880, Note_on_c, 1, 61, 127
2, 49880, Note_on_c, 1, 65, 127
2, 49880, Note_on_c, 1, 68, 127
2, 49960, Note_off_c, 1, 61, 0
2, 49960, Note_off_c, 1, 65, 0
2, 49960, Note_off_c, 1, 68, 0
2, 50000, Note_on_c, 1, 63, 127
2, 50000, Note_on_c, 1, 66, 127
2, 50000, Note_on_c, 1, 72, 127
2, 50040, Note_off_c, 1, 63, 0
2, 50040, Note_off_c, 1, 66, 0
2, 50040, Note_off_c, 1, 72, 0
2, 50360, Note_on_c, 1, 61, 127
2, 50360, Note_on_c, 1, 65, 127
2, 50360, Note_on_c, 1, 71, 127
2, 50360, Note_on_c, 1, 73, 127
2, 50400, Note_off_c, 1, 61, 0
2, 50400, Note_off_c, 1, 65, 0
2, 50400, Note_off_c, 1, 71, 0
2, 50400, Note_off_c, 1, 73, 0
2, 50640, Note_on_c, 1, 66, 127
2, 50640, Note_on_c, 1, 70, 127
2, 50640, Note_on_c, 1, 73, 127
2, 50640, Note_on_c, 1, 82, 127
2, 50680, Note_off_c, 1, 66, 0
2, 50680, Note_off_c, 1, 70, 0
2, 50680, Note_off_c, 1, 73, 0
2, 50680, Note_off_c, 1, 82, 0
2, 50960, Note_on_c, 1, 61, 127
2, 50960, Note_on_c, 1, 68, 127
2, 50960, Note_on_c, 1, 73, 127
2, 50960, Note_on_c, 1, 77, 127
2, 51240, Note_off_c, 1, 61, 0
2, 51240, Note_off_c, 1, 68, 0
2, 51240, Note_off_c, 1, 73, 0
2, 51240, Note_off_c, 1, 77, 0
2, 51280, Note_on_c, 1, 61, 127
2, 51280, Note_on_c, 1, 68, 127
2, 51280, Note_on_c, 1, 73, 127
2, 51280, Note_on_c, 1, 77, 127
2, 51840, Note_off_c, 1, 61, 0
2, 51840, Note_off_c, 1, 68, 0
2, 51840, Note_off_c, 1, 73, 0
2, 51840, Note_off_c, 1, 77, 0
2, 51880, Note_on_c, 1, 56, 127
2, 51880, Note_on_c, 1, 68, 127
2, 51880, Note_on_c, 1, 72, 127
2, 51880, Note_on_c, 1, 75, 127
2, 52120, Note_off_c, 1, 56, 0
2, 52120, Note_off_c, 1, 68, 0
2, 52120, Note_off_c, 1, 72, 0
2, 52120, Note_off_c, 1, 75, 0
2, 52160, Note_on_c, 1, 61, 127
2, 52160, Note_on_c, 1, 68, 127
2, 52160, Note_on_c, 1, 73, 127
2, 52160, Note_on_c, 1, 77, 127
2, 52680, Note_off_c, 1, 61, 0
2, 52680, Note_off_c, 1, 68, 0
2, 52680, Note_off_c, 1, 73, 0
2, 52680, Note_off_c, 1, 77, 0
2, 52760, Note_on_c, 1, 61, 127
2, 52760, Note_on_c, 1, 68, 127
2, 52760, Note_on_c, 1, 73, 127
2, 52760, Note_on_c, 1, 77, 127
2, 53040, Note_off_c, 1, 61, 0
2, 53040, Note_off_c, 1, 68, 0
2, 53040, Note_off_c, 1, 73, 0
2, 53040, Note_off_c, 1, 77, 0
2, 53240, Note_on_c, 1, 61, 127
2, 53240, Note_on_c, 1, 68, 127
2, 53240, Note_on_c, 1, 73, 127
2, 53240, Note_on_c, 1, 77, 127
2, 54160, Note_off_c, 1, 61, 0
2, 54160, Note_off_c, 1, 68, 0
2, 54160, Note_off_c, 1, 73, 0
2, 54160, Note_off_c, 1, 77, 0
2, 57960, Note_on_c, 1, 53, 127
2, 57960, Note_on_c, 1, 65, 127
2, 58200, Note_off_c, 1, 53, 0
2, 58200, Note_off_c, 1, 65, 0
2, 58240, Note_on_c, 1, 50, 127
2, 58240, Note_on_c, 1, 58, 127
2, 58240, Note_on_c, 1, 65, 127
2, 58240, Note_on_c, 1, 70, 127
2, 58480, Note_off_c, 1, 50, 0
2, 58480, Note_off_c, 1, 58, 0
2, 58480, Note_off_c, 1, 65, 0
2, 58480, Note_off_c, 1, 70, 0
2, 58520, Note_on_c, 1, 50, 127
2, 58520, Note_on_c, 1, 58, 127
2, 58520, Note_on_c, 1, 65, 127
2, 58520, Note_on_c, 1, 70, 127
2, 58760, Note_off_c, 1, 50, 0
2, 58760, Note_off_c, 1, 58, 0
2, 58760, Note_off_c, 1, 65, 0
2, 58760, Note_off_c, 1, 70, 0
2, 58800, Note_on_c, 1, 50, 127
2, 58800, Note_on_c, 1, 58, 127
2, 58800, Note_on_c, 1, 65, 127
2, 58800, Note_on_c, 1, 70, 127
2, 59080, Note_off_c, 1, 50, 0
2, 59080, Note_off_c, 1, 58, 0
2, 59080, Note_off_c, 1, 65, 0
2, 59080, Note_off_c, 1, 70, 0
2, 59120, Note_on_c, 1, 34, 127
2, 59120, Note_on_c, 1, 46, 127
2, 59120, Note_on_c, 1, 58, 127
2, 59120, Note_on_c, 1, 61, 127
2, 59120, Note_on_c, 1, 67, 127
2, 59360, Note_off_c, 1, 34, 0
2, 59360, Note_off_c, 1, 46, 0
2, 59360, Note_off_c, 1, 58, 0
2, 59360, Note_off_c, 1, 61, 0
2, 59360, Note_off_c, 1, 67, 0
2, 59440, Note_on_c, 1, 43, 127
2, 59440, Note_on_c, 1, 51, 127
2, 59440, Note_on_c, 1, 55, 127
2, 59440, Note_on_c, 1, 58, 127
2, 59440, Note_on_c, 1, 63, 127
2, 59440, Note_on_c, 1, 70, 127
2, 59720, Note_off_c, 1, 43, 0
2, 59720, Note_off_c, 1, 51, 0
2, 59720, Note_off_c, 1, 55, 0
2, 59720, Note_off_c, 1, 58, 0
2, 59720, Note_off_c, 1, 63, 0
2, 59720, Note_off_c, 1, 70, 0
2, 59760, Note_on_c, 1, 44, 127
2, 59760, Note_on_c, 1, 51, 127
2, 59760, Note_on_c, 1, 56, 127
2, 59760, Note_on_c, 1, 60, 127
2, 59760, Note_on_c, 1, 63, 127
2, 59760, Note_on_c, 1, 72, 127
2, 60000, Note_off_c, 1, 44, 0
2, 60000, Note_off_c, 1, 51, 0
2, 60000, Note_off_c, 1, 56, 0
2, 60000, Note_off_c, 1, 60, 0
2, 60000, Note_off_c, 1, 63, 0
2, 60000, Note_off_c, 1, 72, 0
2, 60040, Note_on_c, 1, 53, 127
2, 60040, Note_on_c, 1, 58, 127
2, 60040, Note_on_c, 1, 68, 127
2, 60040, Note_on_c, 1, 74, 127
2, 60320, Note_off_c, 1, 53, 0
2, 60320, Note_off_c, 1, 58, 0
2, 60320, Note_off_c, 1, 68, 0
2, 60320, Note_off_c, 1, 74, 0
2, 60360, Note_on_c, 1, 51, 127
2, 60360, Note_on_c, 1, 58, 127
2, 60360, Note_on_c, 1, 67, 127
2, 60360, Note_on_c, 1, 75, 127
2, 60920, Note_off_c, 1, 51, 0
2, 60920, Note_off_c, 1, 58, 0
2, 60920, Note_off_c, 1, 67, 0
2, 60920, Note_off_c, 1, 75, 0
2, 60960, Note_on_c, 1, 51, 127
2, 60960, Note_on_c, 1, 58, 127
2, 60960, Note_on_c, 1, 67, 127
2, 60960, Note_on_c, 1, 75, 127
2, 61680, Note_off_c, 1, 51, 0
2, 61680, Note_off_c, 1, 58, 0
2, 61680, Note_off_c, 1, 67, 0
2, 61680, Note_off_c, 1, 75, 0
2, 61720, Note_on_c, 1, 51, 127
2, 61720, Note_on_c, 1, 58, 127
2, 61720, Note_on_c, 1, 67, 127
2, 61720, Note_on_c, 1, 75, 127
2, 62480, Note_off_c, 1, 51, 0
2, 62480, Note_off_c, 1, 58, 0
2, 62480, Note_off_c, 1, 67, 0
2, 62480, Note_off_c, 1, 75, 0
2, 62520, Note_on_c, 1, 56, 127
2, 62520, Note_on_c, 1, 60, 127
2, 62520, Note_on_c, 1, 63, 127
2, 62520, Note_on_c, 1, 68, 127
2, 62520, Note_on_c, 1, 72, 127
2, 63080, Note_off_c, 1, 56, 0
2, 63080, Note_off_c, 1, 60, 0
2, 63080, Note_off_c, 1, 63, 0
2, 63080, Note_off_c, 1, 68, 0
2, 63080, Note_off_c, 1, 72, 0
2, 63120, Note_on_c, 1, 51, 127
2, 63120, Note_on_c, 1, 58, 127
2, 63120, Note_on_c, 1, 63, 127
2, 63120, Note_on_c, 1, 67, 127
2, 63680, Note_off_c, 1, 51, 0
2, 63680, Note_off_c, 1, 58, 0
2, 63680, Note_off_c, 1, 63, 0
2, 63680, Note_off_c, 1, 67, 0
2, 63760, Note_on_c, 1, 51, 127
2, 63760, Note_on_c, 1, 58, 127
2, 63760, Note_on_c, 1, 63, 127
2, 63760, Note_on_c, 1, 67, 127
2, 64000, Note_off_c, 1, 51, 0
2, 64000, Note_off_c, 1, 58, 0
2, 64000, Note_off_c, 1, 63, 0
2, 64000, Note_off_c, 1, 67, 0
2, 64040, Note_on_c, 1, 51, 127
2, 64040, Note_on_c, 1, 58, 127
2, 64040, Note_on_c, 1, 63, 127
2, 64040, Note_on_c, 1, 67, 127
2, 64600, Note_off_c, 1, 51, 0
2, 64600, Note_off_c, 1, 58, 0
2, 64600, Note_off_c, 1, 63, 0
2, 64600, Note_off_c, 1, 67, 0
2, 64640, Note_on_c, 1, 44, 127
2, 64640, Note_on_c, 1, 59, 127
2, 64640, Note_on_c, 1, 63, 127
2, 64640, Note_on_c, 1, 68, 127
2, 65200, Note_off_c, 1, 44, 0
2, 65200, Note_off_c, 1, 59, 0
2, 65200, Note_off_c, 1, 63, 0
2, 65200, Note_off_c, 1, 68, 0
2, 65240, Note_on_c, 1, 56, 127
2, 65240, Note_on_c, 1, 59, 127
2, 65240, Note_on_c, 1, 63, 127
2, 65240, Note_on_c, 1, 68, 127
2, 65640, Note_off_c, 1, 56, 0
2, 65640, Note_off_c, 1, 59, 0
2, 65640, Note_off_c, 1, 63, 0
2, 65640, Note_off_c, 1, 68, 0
2, 65680, Note_on_c, 1, 56, 127
2, 65680, Note_on_c, 1, 59, 127
2, 65680, Note_on_c, 1, 63, 127
2, 65680, Note_on_c, 1, 68, 127
2, 65840, Note_off_c, 1, 56, 0
2, 65840, Note_off_c, 1, 59, 0
2, 65840, Note_off_c, 1, 63, 0
2, 65840, Note_off_c, 1, 68, 0
2, 65880, Note_on_c, 1, 54, 127
2, 65880, Note_on_c, 1, 58, 127
2, 65880, Note_on_c, 1, 70, 127
2, 66120, Note_off_c, 1, 70, 0
2, 66160, Note_on_c, 1, 70, 127
2, 66440, Note_off_c, 1, 54, 0
2, 66440, Note_off_c, 1, 58, 0
2, 66440, Note_off_c, 1, 70, 0
2, 66480, Note_on_c, 1, 51, 127
2, 66480, Note_on_c, 1, 58, 127
2, 66480, Note_on_c, 1, 70, 127
2, 67040, Note_off_c, 1, 58, 0
2, 67040, Note_off_c, 1, 70, 0
2, 67080, Note_on_c, 1, 58, 127
2, 67080, Note_on_c, 1, 70, 127
2, 67840, Note_off_c, 1, 51, 0
2, 67840, Note_off_c, 1, 58, 0
2, 67840, Note_off_c, 1, 70, 0
2, 67880, Note_on_c, 1, 51, 127
2, 67880, Note_on_c, 1, 58, 127
2, 67880, Note_on_c, 1, 70, 127
2, 68280, Note_off_c, 1, 51, 0
2, 68280, Note_off_c, 1, 58, 0
2, 68280, Note_off_c, 1, 70, 0
2, 68320, Note_on_c, 1, 63, 127
2, 68880, Note_off_c, 1, 63, 0
2, 68920, Note_on_c, 1, 70, 127
2, 69160, Note_off_c, 1, 70, 0
2, 69520, Note_on_c, 1, 63, 127
2, 69520, Note_on_c, 1, 75, 127
2, 69840, Note_off_c, 1, 63, 0
2, 69840, Note_off_c, 1, 75, 0
2, 69880, Note_on_c, 1, 63, 127
2, 69880, Note_on_c, 1, 75, 127
2, 70200, Note_off_c, 1, 63, 0
2, 70200, Note_off_c, 1, 75, 0
2, 70240, Note_on_c, 1, 63, 127
2, 70240, Note_on_c, 1, 75, 127
2, 70680, Note_off_c, 1, 63, 0
2, 70680, Note_off_c, 1, 75, 0
2, 70720, Note_on_c, 1, 59, 127
2, 70720, Note_on_c, 1, 71, 127
2, 71280, Note_off_c, 1, 59, 0
2, 71280, Note_off_c, 1, 71, 0
2, 71320, Note_on_c, 1, 58, 127
2, 71320, Note_on_c, 1, 70, 127
2, 71600, Note_off_c, 1, 58, 0
2, 71600, Note_off_c, 1, 70, 0
2, 72000, Note_on_c, 1, 46, 127
2, 72000, Note_on_c, 1, 58, 127
2, 72240, Note_off_c, 1, 46, 0
2, 72240, Note_off_c, 1, 58, 0
2, 72280, Note_on_c, 1, 46, 127
2, 72280, Note_on_c, 1, 58, 127
2, 72560, Note_off_c, 1, 46, 0
2, 72560, Note_off_c, 1, 58, 0
2, 72600, Note_on_c, 1, 54, 127
2, 72600, Note_on_c, 1, 66, 127
2, 72880, Note_off_c, 1, 54, 0
2, 72880, Note_off_c, 1, 66, 0
2, 72920, Note_on_c, 1, 58, 127
2, 72920, Note_on_c, 1, 70, 127
2, 73200, Note_off_c, 1, 58, 0
2, 73200, Note_off_c, 1, 70, 0
2, 73520, Note_on_c, 1, 46, 127
2, 73520, Note_on_c, 1, 53, 127
2, 73520, Note_on_c, 1, 62, 127
2, 73520, Note_on_c, 1, 65, 127
2, 74080, Note_off_c, 1, 62, 0
2, 74080, Note_off_c, 1, 65, 0
2, 74120, Note_on_c, 1, 89, 127
2, 74200, Note_off_c, 1, 46, 0
2, 74200, Note_off_c, 1, 53, 0
2, 74200, Note_off_c, 1, 89, 0
2, 74240, Note_on_c, 1, 46, 127
2, 74240, Note_on_c, 1, 53, 127
2, 74240, Note_on_c, 1, 89, 127
2, 74400, Note_off_c, 1, 46, 0
2, 74400, Note_off_c, 1, 53, 0
2, 74400, Note_off_c, 1, 89, 0
2, 74440, Note_on_c, 1, 46, 127
2, 74440, Note_on_c, 1, 53, 127
2, 74440, Note_on_c, 1, 62, 127
2, 74440, Note_on_c, 1, 65, 127
2, 74720, Note_off_c, 1, 46, 0
2, 74720, Note_off_c, 1, 53, 0
2, 74720, Note_on_c, 1, 55, 127
2, 74720, Note_on_c, 1, 58, 127
2, 74720, Note_off_c, 1, 65, 0
2, 74720, Note_on_c, 1, 67, 127
2, 74720, Note_on_c, 1, 70, 127
2, 74760, Note_on_c, 1, 46, 127
2, 74760, Note_on_c, 1, 53, 127
2, 74760, Note_off_c, 1, 55, 0
2, 74760, Note_off_c, 1, 58, 0
2, 74760, Note_on_c, 1, 65, 127
2, 74760, Note_off_c, 1, 67, 0
2, 74760, Note_off_c, 1, 70, 0
2, 75000, Note_off_c, 1, 46, 0
2, 75000, Note_off_c, 1, 53, 0
2, 75000, Note_off_c, 1, 62, 0
2, 75000, Note_off_c, 1, 65, 0
2, 75040, Note_on_c, 1, 47, 127
2, 75040, Note_on_c, 1, 56, 127
2, 75040, Note_on_c, 1, 59, 127
2, 75040, Note_on_c, 1, 62, 127
2, 75040, Note_on_c, 1, 67, 127
2, 75280, Note_off_c, 1, 47, 0
2, 75280, Note_off_c, 1, 56, 0
2, 75280, Note_off_c, 1, 59, 0
2, 75280, Note_off_c, 1, 62, 0
2, 75280, Note_on_c, 1, 65, 127
2, 75280, Note_off_c, 1, 67, 0
2, 75320, Note_on_c, 1, 39, 127
2, 75320, Note_on_c, 1, 46, 127
2, 75320, Note_on_c, 1, 55, 127
2, 75320, Note_on_c, 1, 63, 127
2, 75320, Note_off_c, 1, 65, 0
2, 75600, Note_off_c, 1, 39, 0
2, 75600, Note_off_c, 1, 46, 0
2, 75600, Note_off_c, 1, 55, 0
2, 75600, Note_off_c, 1, 63, 0
2, 75920, Note_on_c, 1, 53, 127
2, 75920, Note_on_c, 1, 69, 127
2, 75920, Note_on_c, 1, 72, 127
2, 75920, Note_on_c, 1, 75, 127
2, 75920, Note_on_c, 1, 84, 127
2, 76320, Note_off_c, 1, 53, 0
2, 76320, Note_off_c, 1, 69, 0
2, 76320, Note_off_c, 1, 72, 0
2, 76320, Note_off_c, 1, 75, 0
2, 76320, Note_off_c, 1, 84, 0
2, 76360, Note_on_c, 1, 53, 127
2, 76360, Note_on_c, 1, 69, 127
2, 76360, Note_on_c, 1, 72, 127
2, 76360, Note_on_c, 1, 75, 127
2, 76360, Note_on_c, 1, 84, 127
2, 76520, Note_off_c, 1, 53, 0
2, 76520, Note_off_c, 1, 69, 0
2, 76520, Note_off_c, 1, 72, 0
2, 76520, Note_off_c, 1, 75, 0
2, 76520, Note_off_c, 1, 84, 0
2, 76560, Note_on_c, 1, 60, 127
2, 76560, Note_on_c, 1, 67, 127
2, 76560, Note_on_c, 1, 70, 127
2, 76560, Note_on_c, 1, 75, 127
2, 76560, Note_on_c, 1, 79, 127
2, 76800, Note_off_c, 1, 60, 0
2, 76800, Note_off_c, 1, 67, 0
2, 76800, Note_off_c, 1, 70, 0
2, 76800, Note_off_c, 1, 75, 0
2, 76800, Note_off_c, 1, 79, 0
2, 77120, Note_on_c, 1, 58, 127
2, 77120, Note_on_c, 1, 65, 127
2, 77120, Note_on_c, 1, 70, 127
2, 77120, Note_on_c, 1, 74, 127
2, 77120, Note_on_c, 1, 82, 127
2, 78120, Note_off_c, 1, 58, 0
2, 78120, Note_off_c, 1, 65, 0
2, 78120, Note_off_c, 1, 70, 0
2, 78120, Note_off_c, 1, 74, 0
2, 78120, Note_off_c, 1, 82, 0
2, 78160, Note_on_c, 1, 58, 127
2, 78160, Note_on_c, 1, 65, 127
2, 78160, Note_on_c, 1, 70, 127
2, 78160, Note_on_c, 1, 74, 127
2, 78160, Note_on_c, 1, 82, 127
2, 78600, Note_off_c, 1, 58, 0
2, 78600, Note_off_c, 1, 65, 0
2, 78600, Note_off_c, 1, 70, 0
2, 78600, Note_off_c, 1, 74, 0
2, 78600, Note_off_c, 1, 82, 0
2, 78640, Note_on_c, 1, 65, 127
2, 78640, Note_on_c, 1, 70, 127
2, 78640, Note_on_c, 1, 75, 127
2, 78640, Note_on_c, 1, 79, 127
2, 78800, Note_on_c, 1, 46, 127
2, 78800, Note_on_c, 1, 53, 127
2, 78800, Note_off_c, 1, 65, 0
2, 78800, Note_off_c, 1, 70, 0
2, 78800, Note_on_c, 1, 74, 127
2, 78800, Note_off_c, 1, 75, 0
2, 78800, Note_on_c, 1, 77, 127
2, 78800, Note_off_c, 1, 79, 0
2, 78800, Note_on_c, 1, 82, 127
2, 78840, Note_off_c, 1, 46, 0
2, 78840, Note_off_c, 1, 53, 0
2, 78840, Note_on_c, 1, 65, 127
2, 78840, Note_on_c, 1, 70, 127
2, 78840, Note_off_c, 1, 74, 0
2, 78840, Note_on_c, 1, 75, 127
2, 78840, Note_off_c, 1, 77, 0
2, 78840, Note_on_c, 1, 81, 127
2, 78840, Note_off_c, 1, 82, 0
2, 78880, Note_on_c, 1, 79, 127
2, 78880, Note_off_c, 1, 81, 0
2, 78920, Note_off_c, 1, 65, 0
2, 78920, Note_off_c, 1, 70, 0
2, 78920, Note_off_c, 1, 75, 0
2, 78920, Note_off_c, 1, 79, 0
2, 78960, Note_on_c, 1, 53, 127
2, 78960, Note_on_c, 1, 60, 127
2, 78960, Note_on_c, 1, 65, 127
2, 78960, Note_on_c, 1, 69, 127
2, 78960, Note_on_c, 1, 75, 127
2, 79320, Note_off_c, 1, 53, 0
2, 79320, Note_off_c, 1, 60, 0
2, 79320, Note_off_c, 1, 65, 0
2, 79320, Note_off_c, 1, 69, 0
2, 79320, Note_off_c, 1, 75, 0
2, 79360, Note_on_c, 1, 54, 127
2, 79360, Note_on_c, 1, 59, 127
2, 79360, Note_on_c, 1, 62, 127
2, 79360, Note_on_c, 1, 68, 127
2, 79360, Note_on_c, 1, 80, 127
2, 79400, Note_on_c, 1, 43, 127
2, 79400, Note_on_c, 1, 51, 127
2, 79400, Note_off_c, 1, 54, 0
2, 79400, Note_on_c, 1, 58, 127
2, 79400, Note_off_c, 1, 59, 0
2, 79400, Note_off_c, 1, 62, 0
2, 79400, Note_off_c, 1, 68, 0
2, 79400, Note_off_c, 1, 80, 0
2, 79400, Note_on_c, 1, 87, 127
2, 79440, Note_off_c, 1, 43, 0
2, 79440, Note_off_c, 1, 51, 0
2, 79440, Note_on_c, 1, 54, 127
2, 79440, Note_off_c, 1, 58, 0
2, 79440, Note_on_c, 1, 59, 127
2, 79440, Note_on_c, 1, 62, 127
2, 79440, Note_on_c, 1, 68, 127
2, 79440, Note_on_c, 1, 80, 127
2, 79440, Note_off_c, 1, 87, 0
2, 79480, Note_off_c, 1, 54, 0
2, 79480, Note_off_c, 1, 59, 0
2, 79480, Note_off_c, 1, 62, 0
2, 79480, Note_off_c, 1, 68, 0
2, 79480, Note_off_c, 1, 80, 0
2, 79520, Note_on_c, 1, 54, 127
2, 79520, Note_on_c, 1, 59, 127
2, 79520, Note_on_c, 1, 62, 127
2, 79520, Note_on_c, 1, 68, 127
2, 79520, Note_on_c, 1, 80, 127
2, 79640, Note_off_c, 1, 54, 0
2, 79640, Note_off_c, 1, 59, 0
2, 79640, Note_off_c, 1, 62, 0
2, 79640, Note_off_c, 1, 68, 0
2, 79640, Note_off_c, 1, 80, 0
2, 79680, Note_on_c, 1, 38, 127
2, 79680, Note_on_c, 1, 50, 127
2, 79680, Note_on_c, 1, 70, 127
2, 79680, Note_on_c, 1, 74, 127
2, 79680, Note_on_c, 1, 78, 127
2, 79680, Note_on_c, 1, 82, 127
2, 79920, Note_off_c, 1, 38, 0
2, 79920, Note_off_c, 1, 50, 0
2, 79920, Note_off_c, 1, 70, 0
2, 79920, Note_off_c, 1, 74, 0
2, 79920, Note_off_c, 1, 78, 0
2, 79920, Note_off_c, 1, 82, 0
2, 79960, Note_on_c, 1, 36, 127
2, 79960, Note_on_c, 1, 48, 127
2, 79960, Note_on_c, 1, 57, 127
2, 79960, Note_on_c, 1, 60, 127
2, 79960, Note_on_c, 1, 64, 127
2, 79960, Note_on_c, 1, 69, 127
2, 80080, Note_off_c, 1, 36, 0
2, 80080, Note_off_c, 1, 48, 0
2, 80080, Note_off_c, 1, 57, 0
2, 80080, Note_off_c, 1, 60, 0
2, 80080, Note_off_c, 1, 64, 0
2, 80080, Note_off_c, 1, 69, 0
2, 80120, Note_on_c, 1, 36, 127
2, 80120, Note_on_c, 1, 48, 127
2, 80120, Note_on_c, 1, 57, 127
2, 80120, Note_on_c, 1, 60, 127
2, 80120, Note_on_c, 1, 64, 127
2, 80120, Note_on_c, 1, 69, 127
2, 80240, Note_off_c, 1, 36, 0
2, 80240, Note_off_c, 1, 48, 0
2, 80240, Note_off_c, 1, 57, 0
2, 80240, Note_off_c, 1, 60, 0
2, 80240, Note_off_c, 1, 64, 0
2, 80240, Note_off_c, 1, 69, 0
2, 80280, Note_on_c, 1, 49, 127
2, 80280, Note_on_c, 1, 56, 127
2, 80280, Note_on_c, 1, 65, 127
2, 80280, Note_on_c, 1, 68, 127
2, 80280, Note_on_c, 1, 73, 127
2, 80280, Note_on_c, 1, 80, 127
2, 80840, Note_on_c, 1, 42, 127
2, 80840, Note_off_c, 1, 56, 0
2, 80840, Note_off_c, 1, 65, 0
2, 80840, Note_off_c, 1, 68, 0
2, 80840, Note_off_c, 1, 80, 0
2, 80880, Note_off_c, 1, 42, 0
2, 80880, Note_on_c, 1, 56, 127
2, 80880, Note_on_c, 1, 61, 127
2, 80880, Note_on_c, 1, 68, 127
2, 80880, Note_on_c, 1, 77, 127
2, 81120, Note_off_c, 1, 49, 0
2, 81120, Note_off_c, 1, 56, 0
2, 81120, Note_off_c, 1, 61, 0
2, 81120, Note_off_c, 1, 68, 0
2, 81120, Note_off_c, 1, 73, 0
2, 81120, Note_off_c, 1, 77, 0
2, 81120, Note_on_c, 1, 79, 127
2, 81120, Note_on_c, 1, 85, 127
2, 81120, Note_on_c, 1, 88, 127
2, 81120, Note_on_c, 1, 91, 127
2, 81160, Note_off_c, 1, 79, 0
2, 81160, Note_off_c, 1, 85, 0
2, 81160, Note_off_c, 1, 88, 0
2, 81160, Note_off_c, 1, 91, 0
2, 81200, Note_on_c, 1, 37, 127
2, 81200, Note_on_c, 1, 49, 127
2, 81200, Note_on_c, 1, 56, 127
2, 81200, Note_on_c, 1, 61, 127
2, 81200, Note_on_c, 1, 65, 127
2, 81480, Note_off_c, 1, 37, 0
2, 81480, Note_off_c, 1, 49, 0
2, 81480, Note_off_c, 1, 56, 0
2, 81480, Note_off_c, 1, 61, 0
2, 81480, Note_off_c, 1, 65, 0
2, 81800, Note_on_c, 1, 50, 127
2, 81800, Note_on_c, 1, 57, 127
2, 81800, Note_on_c, 1, 62, 127
2, 81800, Note_on_c, 1, 66, 127
2, 81800, Note_on_c, 1, 69, 127
2, 81800, Note_on_c, 1, 74, 127
2, 81800, Note_on_c, 1, 78, 127
2, 82000, Note_off_c, 1, 50, 0
2, 82000, Note_off_c, 1, 57, 0
2, 82000, Note_off_c, 1, 62, 0
2, 82000, Note_off_c, 1, 66, 0
2, 82000, Note_off_c, 1, 69, 0
2, 82000, Note_off_c, 1, 74, 0
2, 82000, Note_off_c, 1, 78, 0
2, 82040, Note_on_c, 1, 50, 127
2, 82040, Note_on_c, 1, 57, 127
2, 82040, Note_on_c, 1, 62, 127
2, 82040, Note_on_c, 1, 66, 127
2, 82040, Note_on_c, 1, 69, 127
2, 82040, Note_on_c, 1, 74, 127
2, 82040, Note_on_c, 1, 78, 127
2, 82960, Note_off_c, 1, 50, 0
2, 82960, Note_off_c, 1, 57, 0
2, 82960, Note_off_c, 1, 62, 0
2, 82960, Note_off_c, 1, 66, 0
2, 82960, Note_off_c, 1, 69, 0
2, 82960, Note_off_c, 1, 74, 0
2, 82960, Note_off_c, 1, 78, 0
2, 83000, Note_on_c, 1, 50, 127
2, 83000, Note_on_c, 1, 57, 127
2, 83000, Note_on_c, 1, 62, 127
2, 83000, Note_on_c, 1, 66, 127
2, 83000, Note_on_c, 1, 69, 127
2, 83000, Note_on_c, 1, 74, 127
2, 83000, Note_on_c, 1, 78, 127
2, 84080, Note_off_c, 1, 50, 0
2, 84080, Note_off_c, 1, 57, 0
2, 84080, Note_off_c, 1, 62, 0
2, 84080, Note_off_c, 1, 66, 0
2, 84080, Note_off_c, 1, 69, 0
2, 84080, Note_off_c, 1, 74, 0
2, 84080, Note_off_c, 1, 78, 0
2, 84120, Note_on_c, 1, 50, 127
2, 84120, Note_on_c, 1, 57, 127
2, 84120, Note_on_c, 1, 62, 127
2, 84120, Note_on_c, 1, 66, 127
2, 84120, Note_on_c, 1, 69, 127
2, 84120, Note_on_c, 1, 74, 127
2, 84120, Note_on_c, 1, 78, 127
2, 84160, Note_off_c, 1, 50, 0
2, 84160, Note_off_c, 1, 57, 0
2, 84160, Note_off_c, 1, 62, 0
2, 84160, Note_off_c, 1, 66, 0
2, 84160, Note_off_c, 1, 69, 0
2, 84160, Note_off_c, 1, 74, 0
2, 84160, Note_off_c, 1, 78, 0
2, 84200, Note_on_c, 1, 50, 127
2, 84200, Note_on_c, 1, 57, 127
2, 84200, Note_on_c, 1, 62, 127
2, 84200, Note_on_c, 1, 66, 127
2, 84200, Note_on_c, 1, 69, 127
2, 84200, Note_on_c, 1, 74, 127
2, 84200, Note_on_c, 1, 78, 127
2, 85320, Note_off_c, 1, 50, 0
2, 85320, Note_off_c, 1, 57, 0
2, 85320, Note_off_c, 1, 62, 0
2, 85320, Note_off_c, 1, 66, 0
2, 85320, Note_off_c, 1, 69, 0
2, 85320, Note_off_c, 1, 74, 0
2, 85320, Note_off_c, 1, 78, 0
2, 85360, Note_on_c, 1, 42, 127
2, 85360, Note_on_c, 1, 54, 127
2, 85360, Note_on_c, 1, 70, 127
2, 85360, Note_on_c, 1, 73, 127
2, 85360, Note_on_c, 1, 78, 127
2, 85760, Note_on_c, 1, 34, 127
2, 85760, Note_off_c, 1, 42, 0
2, 85760, Note_on_c, 1, 46, 127
2, 85760, Note_off_c, 1, 54, 0
2, 85760, Note_on_c, 1, 61, 127
2, 85760, Note_on_c, 1, 64, 127
2, 85760, Note_off_c, 1, 70, 0
2, 85760, Note_off_c, 1, 73, 0
2, 85760, Note_off_c, 1, 78, 0
2, 85800, Note_off_c, 1, 34, 0
2, 85800, Note_off_c, 1, 46, 0
2, 85800, Note_off_c, 1, 61, 0
2, 85800, Note_off_c, 1, 64, 0
2, 88160, Note_on_c, 1, 45, 127
2, 88160, Note_on_c, 1, 69, 127
2, 88400, Note_off_c, 1, 45, 0
2, 88400, Note_off_c, 1, 69, 0
2, 88440, Note_on_c, 1, 49, 127
2, 88440, Note_on_c, 1, 57, 127
2, 88440, Note_on_c, 1, 61, 127
2, 88440, Note_on_c, 1, 66, 127
2, 89000, Note_off_c, 1, 57, 0
2, 89000, Note_off_c, 1, 61, 0
2, 89000, Note_off_c, 1, 66, 0
2, 89040, Note_on_c, 1, 56, 127
2, 89040, Note_on_c, 1, 61, 127
2, 89040, Note_on_c, 1, 65, 127
2, 89600, Note_off_c, 1, 49, 0
2, 89600, Note_off_c, 1, 56, 0
2, 89600, Note_off_c, 1, 61, 0
2, 89600, Note_off_c, 1, 65, 0
2, 89640, Note_on_c, 1, 49, 127
2, 89640, Note_on_c, 1, 56, 127
2, 89640, Note_on_c, 1, 65, 127
2, 89640, Note_on_c, 1, 73, 127
2, 90040, Note_off_c, 1, 49, 0
2, 90040, Note_off_c, 1, 56, 0
2, 90040, Note_off_c, 1, 65, 0
2, 90040, Note_off_c, 1, 73, 0
2, 90080, Note_on_c, 1, 49, 127
2, 90080, Note_on_c, 1, 56, 127
2, 90080, Note_on_c, 1, 65, 127
2, 90080, Note_on_c, 1, 73, 127
2, 90840, Note_off_c, 1, 49, 0
2, 90840, Note_off_c, 1, 56, 0
2, 90840, Note_off_c, 1, 65, 0
2, 90840, Note_off_c, 1, 73, 0
2, 90880, Note_on_c, 1, 49, 127
2, 90880, Note_on_c, 1, 58, 127
2, 90880, Note_on_c, 1, 65, 127
2, 90880, Note_on_c, 1, 73, 127
2, 91280, Note_off_c, 1, 58, 0
2, 91280, Note_on_c, 1, 61, 127
2, 92000, Note_off_c, 1, 49, 0
2, 92000, Note_off_c, 1, 61, 0
2, 92000, Note_off_c, 1, 65, 0
2, 92000, Note_off_c, 1, 73, 0
2, 92120, Note_on_c, 1, 49, 127
2, 92120, Note_on_c, 1, 56, 127
2, 92120, Note_on_c, 1, 65, 127
2, 92120, Note_on_c, 1, 68, 127
2, 93840, Note_off_c, 1, 49, 0
2, 93840, Note_off_c, 1, 56, 0
2, 93840, Note_off_c, 1, 65, 0
2, 93840, Note_off_c, 1, 68, 0
2, 93960, Note_on_c, 1, 48, 127
2, 93960, Note_on_c, 1, 56, 127
2, 93960, Note_on_c, 1, 60, 127
2, 93960, Note_on_c, 1, 63, 127
2, 93960, Note_on_c, 1, 68, 127
2, 93960, Note_on_c, 1, 75, 127
2, 94480, Note_off_c, 1, 48, 0
2, 94480, Note_off_c, 1, 56, 0
2, 94480, Note_off_c, 1, 60, 0
2, 94480, Note_off_c, 1, 63, 0
2, 94480, Note_off_c, 1, 68, 0
2, 94480, Note_off_c, 1, 75, 0
2, 94560, Note_on_c, 1, 44, 127
2, 94560, Note_on_c, 1, 51, 127
2, 94560, Note_on_c, 1, 56, 127
2, 94560, Note_on_c, 1, 60, 127
2, 94560, Note_on_c, 1, 63, 127
2, 94560, Note_on_c, 1, 72, 127
2, 94960, Note_off_c, 1, 44, 0
2, 94960, Note_off_c, 1, 51, 0
2, 94960, Note_off_c, 1, 56, 0
2, 95000, Note_on_c, 1, 44, 127
2, 95000, Note_on_c, 1, 51, 127
2, 95000, Note_on_c, 1, 56, 127
2, 95520, Note_off_c, 1, 44, 0
2, 95520, Note_off_c, 1, 51, 0
2, 95520, Note_off_c, 1, 56, 0
2, 95520, Note_off_c, 1, 60, 0
2, 95520, Note_off_c, 1, 63, 0
2, 95520, Note_off_c, 1, 72, 0
2, 95600, Note_on_c, 1, 44, 127
2, 95600, Note_on_c, 1, 51, 127
2, 95600, Note_on_c, 1, 56, 127
2, 95600, Note_on_c, 1, 60, 127
2, 95600, Note_on_c, 1, 63, 127
2, 95600, Note_on_c, 1, 72, 127
2, 95680, Note_off_c, 1, 44, 0
2, 95680, Note_off_c, 1, 51, 0
2, 95680, Note_off_c, 1, 56, 0
2, 95680, Note_off_c, 1, 60, 0
2, 95680, Note_off_c, 1, 63, 0
2, 95680, Note_off_c, 1, 72, 0
2, 95760, Note_on_c, 1, 44, 127
2, 95760, Note_on_c, 1, 51, 127
2, 95760, Note_on_c, 1, 56, 127
2, 95760, Note_on_c, 1, 60, 127
2, 95760, Note_on_c, 1, 63, 127
2, 95760, Note_on_c, 1, 72, 127
2, 95840, Note_off_c, 1, 44, 0
2, 95840, Note_off_c, 1, 51, 0
2, 95840, Note_off_c, 1, 56, 0
2, 95840, Note_off_c, 1, 60, 0
2, 95840, Note_off_c, 1, 63, 0
2, 95840, Note_off_c, 1, 72, 0
2, 95880, Note_on_c, 1, 44, 127
2, 95880, Note_on_c, 1, 51, 127
2, 95880, Note_on_c, 1, 56, 127
2, 95880, Note_on_c, 1, 60, 127
2, 95880, Note_on_c, 1, 63, 127
2, 95880, Note_on_c, 1, 72, 127
2, 96040, Note_off_c, 1, 44, 0
2, 96040, Note_off_c, 1, 51, 0
2, 96040, Note_off_c, 1, 56, 0
2, 96040, Note_off_c, 1, 60, 0
2, 96040, Note_off_c, 1, 63, 0
2, 96040, Note_off_c, 1, 72, 0
2, 96240, Note_on_c, 1, 49, 127
2, 96240, Note_on_c, 1, 56, 127
2, 96240, Note_on_c, 1, 65, 127
2, 96240, Note_on_c, 1, 68, 127
2, 96240, Note_on_c, 1, 73, 127
2, 96320, Note_off_c, 1, 49, 0
2, 96320, Note_off_c, 1, 56, 0
2, 96320, Note_off_c, 1, 65, 0
2, 96320, Note_off_c, 1, 68, 0
2, 96320, Note_off_c, 1, 73, 0
2, 96400, Note_on_c, 1, 49, 127
2, 96400, Note_on_c, 1, 56, 127
2, 96400, Note_on_c, 1, 65, 127
2, 96400, Note_on_c, 1, 68, 127
2, 96400, Note_on_c, 1, 73, 127
2, 97560, Note_off_c, 1, 49, 0
2, 97560, Note_off_c, 1, 56, 0
2, 97560, Note_off_c, 1, 65, 0
2, 97560, Note_off_c, 1, 68, 0
2, 97560, Note_off_c, 1, 73, 0
2, 100000, Note_on_c, 1, 34, 127
2, 100000, Note_on_c, 1, 46, 127
2, 101120, Note_off_c, 1, 34, 0
2, 101120, Note_off_c, 1, 46, 0
2, 101160, Note_on_c, 1, 34, 127
2, 101160, Note_on_c, 1, 46, 127
2, 101560, Note_off_c, 1, 34, 0
2, 101560, Note_off_c, 1, 46, 0
2, 101600, Note_on_c, 1, 34, 127
2, 101600, Note_on_c, 1, 46, 127
2, 101760, Note_off_c, 1, 34, 0
2, 101760, Note_off_c, 1, 46, 0
2, 101800, Note_on_c, 1, 33, 127
2, 101800, Note_on_c, 1, 45, 127
2, 102360, Note_off_c, 1, 33, 0
2, 102360, Note_off_c, 1, 45, 0
2, 102400, Note_on_c, 1, 34, 127
2, 102400, Note_on_c, 1, 46, 127
2, 102960, Note_off_c, 1, 34, 0
2, 102960, Note_off_c, 1, 46, 0
2, 105560, Note_on_c, 1, 45, 127
2, 105560, Note_on_c, 1, 57, 127
2, 106080, Note_off_c, 1, 45, 0
2, 106080, Note_off_c, 1, 57, 0
2, 106120, Note_on_c, 1, 47, 127
2, 106120, Note_on_c, 1, 59, 127
2, 106360, Note_off_c, 1, 47, 0
2, 106360, Note_off_c, 1, 59, 0
2, 106720, Note_on_c, 1, 54, 127
2, 106720, Note_on_c, 1, 66, 127
2, 107000, Note_off_c, 1, 54, 0
2, 107000, Note_off_c, 1, 66, 0
2, 107320, Note_on_c, 1, 35, 127
2, 107320, Note_on_c, 1, 47, 127
2, 107600, Note_off_c, 1, 35, 0
2, 107600, Note_off_c, 1, 47, 0
2, 107920, Note_on_c, 1, 35, 127
2, 107920, Note_on_c, 1, 47, 127
2, 107920, Note_on_c, 1, 59, 127
2, 108640, Note_off_c, 1, 35, 0
2, 108640, Note_off_c, 1, 47, 0
2, 108640, Note_off_c, 1, 59, 0
2, 108680, Note_on_c, 1, 35, 127
2, 108680, Note_on_c, 1, 47, 127
2, 108680, Note_on_c, 1, 59, 127
2, 109480, Note_off_c, 1, 59, 0
2, 109520, Note_on_c, 1, 64, 127
2, 109880, Note_off_c, 1, 64, 0
2, 109920, Note_on_c, 1, 64, 127
2, 110320, Note_on_c, 1, 55, 127
2, 110680, Note_off_c, 1, 55, 0
2, 110720, Note_off_c, 1, 35, 0
2, 110720, Note_off_c, 1, 47, 0
2, 110720, Note_off_c, 1, 64, 0
2, 110760, Note_on_c, 1, 35, 127
2, 110760, Note_on_c, 1, 47, 127
2, 110760, Note_on_c, 1, 55, 127
2, 110760, Note_on_c, 1, 64, 127
2, 111120, Note_off_c, 1, 55, 0
2, 111160, Note_on_c, 1, 59, 127
2, 111480, Note_off_c, 1, 59, 0
2, 111520, Note_off_c, 1, 35, 0
2, 111520, Note_off_c, 1, 47, 0
2, 111520, Note_off_c, 1, 64, 0
2, 111560, Note_on_c, 1, 34, 127
2, 111560, Note_on_c, 1, 46, 127
2, 111560, Note_on_c, 1, 68, 127
2, 112720, Note_off_c, 1, 34, 0
2, 112720, Note_off_c, 1, 46, 0
2, 112720, Note_off_c, 1, 68, 0
2, 112800, Note_on_c, 1, 34, 127
2, 112800, Note_on_c, 1, 46, 127
2, 112800, Note_on_c, 1, 62, 127
2, 113400, Note_on_c, 1, 58, 127
2, 114360, Note_off_c, 1, 34, 0
2, 114360, Note_off_c, 1, 46, 0
2, 114360, Note_off_c, 1, 58, 0
2, 114360, Note_off_c, 1, 62, 0
2, 120040, End_track
3, 0, Start_track
3, 0, Title_t, "MIDI"
3, 1536, End_track
0, 0, End_of_file
