0, 0, Header, 1, 3, 192
1, 0, Start_track
1, 0, Time_signature, 4, 2, 24, 8
1, 0, Tempo, 500000
1, 120040, End_track
2, 0, Start_track
2, 0, Text_t, "random instrument: random person i dunno whatev"
2, 0, Title_t, "Track 1"
2, 0, Note_on_c, 1, 55, 127
2, 0, Note_on_c, 1, 59, 127
2, 0, Note_on_c, 1, 62, 127
2, 0, Note_on_c, 1, 71, 127
2, 0, Note_on_c, 1, 79, 127
2, 40, Note_on_c, 1, 42, 127
2, 40, Note_on_c, 1, 49, 127
2, 40, Note_on_c, 1, 54, 127
2, 40, Note_off_c, 1, 55, 0
2, 40, Note_off_c, 1, 59, 0
2, 40, Note_off_c, 1, 62, 0
2, 40, Note_off_c, 1, 71, 0
2, 40, Note_off_c, 1, 79, 0
2, 40, Note_on_c, 1, 82, 127
2, 40, Note_on_c, 1, 88, 127
2, 40, Note_on_c, 1, 94, 127
2, 80, Note_off_c, 1, 42, 0
2, 80, Note_off_c, 1, 49, 0
2, 80, Note_off_c, 1, 54, 0
2, 80, Note_off_c, 1, 82, 0
2, 80, Note_off_c, 1, 88, 0
2, 80, Note_off_c, 1, 94, 0
2, 120, Note_on_c, 1, 58, 127
2, 120, Note_on_c, 1, 65, 127
2, 120, Note_on_c, 1, 70, 127
2, 120, Note_on_c, 1, 73, 127
2, 120, Note_on_c, 1, 80, 127
2, 160, Note_on_c, 1, 53, 127
2, 160, Note_on_c, 1, 56, 127
2, 160, Note_off_c, 1, 58, 0
2, 160, Note_on_c, 1, 63, 127
2, 160, Note_off_c, 1, 65, 0
2, 160, Note_off_c, 1, 70, 0
2, 160, Note_on_c, 1, 83, 127
2, 200, Note_on_c, 1, 33, 127
2, 200, Note_on_c, 1, 37, 127
2, 200, Note_on_c, 1, 40, 127
2, 200, Note_on_c, 1, 45, 127
2, 200, Note_off_c, 1, 53, 0
2, 200, Note_off_c, 1, 56, 0
2, 200, Note_on_c, 1, 57, 127
2, 200, Note_on_c, 1, 61, 127
2, 200, Note_off_c, 1, 63, 0
2, 200, Note_on_c, 1, 64, 127
2, 200, Note_off_c, 1, 73, 0
2, 200, Note_off_c, 1, 80, 0
2, 200, Note_off_c, 1, 83, 0
2, 240, Note_off_c, 1, 33, 0
2, 240, Note_off_c, 1, 37, 0
2, 240, Note_off_c, 1, 40, 0
2, 240, Note_off_c, 1, 45, 0
2, 240, Note_off_c, 1, 57, 0
2, 240, Note_on_c, 1, 58, 127
2, 240, Note_off_c, 1, 61, 0
2, 240, Note_on_c, 1, 66, 127
2, 240, Note_on_c, 1, 73, 127
2, 240, Note_on_c, 1, 85, 127
2, 360, Note_off_c, 1, 58, 0
2, 360, Note_off_c, 1, 64, 0
2, 360, Note_off_c, 1, 66, 0
2, 360, Note_off_c, 1, 73, 0
2, 360, Note_off_c, 1, 85, 0
2, 400, Note_on_c, 1, 58, 127
2, 400, Note_on_c, 1, 70, 127
2, 600, Note_off_c, 1, 58, 0
2, 600, Note_off_c, 1, 70, 0
2, 640, Note_on_c, 1, 55, 127
2, 640, Note_on_c, 1, 67, 127
2, 800, Note_off_c, 1, 55, 0
2, 800, Note_off_c, 1, 67, 0
2, 880, Note_on_c, 1, 50, 127
2, 880, Note_on_c, 1, 55, 127
2, 880, Note_on_c, 1, 58, 127
2, 880, Note_on_c, 1, 62, 127
2, 1440, Note_off_c, 1, 50, 0
2, 1440, Note_off_c, 1, 55, 0
2, 1440, Note_off_c, 1, 58, 0
2, 1440, Note_off_c, 1, 62, 0
2, 3840, Note_on_c, 1, 59, 127
2, 3840, Note_on_c, 1, 64, 127
2, 3840, Note_on_c, 1, 68, 127
2, 4040, Note_off_c, 1, 64, 0
2, 4040, Note_off_c, 1, 68, 0
2, 4080, Note_on_c, 1, 58, 127
2, 4080, Note_off_c, 1, 59, 0
2, 4080, Note_on_c, 1, 64, 127
2, 4080, Note_on_c, 1, 67, 127
2, 4320, Note_off_c, 1, 58, 0
2, 4320, Note_off_c, 1, 64, 0
2, 4320, Note_off_c, 1, 67, 0
2, 4360, Note_on_c, 1, 59, 127
2, 4360, Note_on_c, 1, 63, 127
2, 4360, Note_on_c, 1, 66, 127
2, 4840, Note_off_c, 1, 59, 0
2, 4840, Note_off_c, 1, 63, 0
2, 4840, Note_off_c, 1, 66, 0
2, 4880, Note_on_c, 1, 59, 127
2, 4880, Note_on_c, 1, 63, 127
2, 4880, Note_on_c, 1, 66, 127
2, 5320, Note_off_c, 1, 59, 0
2, 5320, Note_off_c, 1, 63, 0
2, 5320, Note_off_c, 1, 66, 0
2, 5360, Note_on_c, 1, 59, 127
2, 5360, Note_on_c, 1, 66, 127
2, 5360, Note_on_c, 1, 69, 127
2, 5720, Note_off_c, 1, 59, 0
2, 5720, Note_off_c, 1, 66, 0
2, 5720, Note_off_c, 1, 69, 0
2, 5760, Note_on_c, 1, 59, 127
2, 5760, Note_on_c, 1, 66, 127
2, 5760, Note_on_c, 1, 69, 127
2, 5840, Note_off_c, 1, 59, 0
2, 5840, Note_off_c, 1, 66, 0
2, 5840, Note_off_c, 1, 69, 0
2, 5880, Note_on_c, 1, 65, 127
2, 5880, Note_on_c, 1, 68, 127
2, 5880, Note_on_c, 1, 74, 127
2, 6400, Note_off_c, 1, 65, 0
2, 6400, Note_off_c, 1, 68, 0
2, 6400, Note_off_c, 1, 74, 0
2, 6440, Note_on_c, 1, 63, 127
2, 6440, Note_on_c, 1, 66, 127
2, 6440, Note_on_c, 1, 75, 127
2, 6880, Note_off_c, 1, 63, 0
2, 6880, Note_off_c, 1, 66, 0
2, 6880, Note_off_c, 1, 75, 0
2, 6920, Note_on_c, 1, 65, 127
2, 6920, Note_on_c, 1, 69, 127
2, 6920, Note_on_c, 1, 75, 127
2, 7400, Note_off_c, 1, 65, 0
2, 7400, Note_off_c, 1, 69, 0
2, 7400, Note_off_c, 1, 75, 0
2, 7440, Note_on_c, 1, 66, 127
2, 7440, Note_on_c, 1, 70, 127
2, 7440, Note_on_c, 1, 78, 127
2, 7720, Note_off_c, 1, 66, 0
2, 7720, Note_off_c, 1, 70, 0
2, 7720, Note_off_c, 1, 78, 0
2, 7760, Note_on_c, 1, 66, 127
2, 7760, Note_on_c, 1, 70, 127
2, 7760, Note_on_c, 1, 78, 127
2, 7840, Note_on_c, 1, 73, 127
2, 7840, Note_off_c, 1, 78, 0
2, 7880, Note_off_c, 1, 73, 0
2, 7920, Note_on_c, 1, 80, 127
2, 8040, Note_off_c, 1, 80, 0
2, 8080, Note_on_c, 1, 78, 127
2, 8320, Note_off_c, 1, 78, 0
2, 8360, Note_on_c, 1, 77, 127
2, 8520, Note_off_c, 1, 77, 0
2, 8560, Note_on_c, 1, 82, 127
2, 8720, Note_off_c, 1, 82, 0
2, 8760, Note_on_c, 1, 85, 127
2, 8840, Note_on_c, 1, 65, 127
2, 8840, Note_off_c, 1, 66, 0
2, 8840, Note_on_c, 1, 82, 127
2, 8840, Note_off_c, 1, 85, 0
2, 8880, Note_off_c, 1, 65, 0
2, 8880, Note_on_c, 1, 66, 127
2, 8880, Note_off_c, 1, 70, 0
2, 8880, Note_off_c, 1, 82, 0
2, 8920, Note_off_c, 1, 66, 0
2, 8920, Note_on_c, 1, 81, 127
2, 9680, Note_off_c, 1, 81, 0
2, 9720, Note_on_c, 1, 81, 127
2, 9880, Note_off_c, 1, 81, 0
2, 9920, Note_on_c, 1, 82, 127
2, 9960, Note_on_c, 1, 80, 127
2, 9960, Note_off_c, 1, 82, 0
2, 10120, Note_off_c, 1, 80, 0
2, 10160, Note_on_c, 1, 78, 127
2, 10320, Note_off_c, 1, 78, 0
2, 10360, Note_on_c, 1, 76, 127
2, 10560, Note_off_c, 1, 76, 0
2, 10600, Note_on_c, 1, 76, 127
2, 10720, Note_off_c, 1, 76, 0
2, 10760, Note_on_c, 1, 77, 127
2, 10880, Note_off_c, 1, 77, 0
2, 10880, Note_on_c, 1, 78, 127
2, 11160, Note_off_c, 1, 78, 0
2, 11200, Note_on_c, 1, 59, 127
2, 11200, Note_on_c, 1, 68, 127
2, 11840, Note_off_c, 1, 59, 0
2, 11840, Note_off_c, 1, 68, 0
2, 11880, Note_on_c, 1, 59, 127
2, 11880, Note_on_c, 1, 68, 127
2, 11920, Note_off_c, 1, 59, 0
2, 11920, Note_off_c, 1, 68, 0
2, 11960, Note_on_c, 1, 61, 127
2, 11960, Note_on_c, 1, 70, 127
2, 12480, Note_off_c, 1, 61, 0
2, 12480, Note_off_c, 1, 70, 0
2, 12520, Note_on_c, 1, 60, 127
2, 12520, Note_on_c, 1, 69, 127
2, 12720, Note_off_c, 1, 60, 0
2, 12720, Note_on_c, 1, 61, 127
2, 12760, Note_on_c, 1, 60, 127
2, 12760, Note_off_c, 1, 61, 0
2, 13040, Note_off_c, 1, 60, 0
2, 13040, Note_off_c, 1, 69, 0
2, 13080, Note_on_c, 1, 64, 127
2, 13080, Note_on_c, 1, 73, 127
2, 13680, Note_off_c, 1, 64, 0
2, 13680, Note_off_c, 1, 73, 0
2, 13720, Note_on_c, 1, 65, 127
2, 13720, Note_on_c, 1, 68, 127
2, 13720, Note_on_c, 1, 73, 127
2, 14040, Note_off_c, 1, 65, 0
2, 14040, Note_off_c, 1, 68, 0
2, 14040, Note_off_c, 1, 73, 0
2, 14080, Note_on_c, 1, 65, 127
2, 14080, Note_on_c, 1, 68, 127
2, 14080, Note_on_c, 1, 73, 127
2, 14160, Note_off_c, 1, 73, 0
2, 14200, Note_on_c, 1, 75, 127
2, 14240, Note_off_c, 1, 75, 0
2, 14280, Note_on_c, 1, 64, 127
2, 14280, Note_off_c, 1, 65, 0
2, 14280, Note_on_c, 1, 67, 127
2, 14280, Note_off_c, 1, 68, 0
2, 14280, Note_on_c, 1, 73, 127
2, 14320, Note_off_c, 1, 64, 0
2, 14320, Note_on_c, 1, 65, 127
2, 14320, Note_off_c, 1, 67, 0
2, 14320, Note_on_c, 1, 68, 127
2, 14320, Note_off_c, 1, 73, 0
2, 14360, Note_on_c, 1, 53, 127
2, 14440, Note_off_c, 1, 53, 0
2, 14480, Note_on_c, 1, 73, 127
2, 14520, Note_off_c, 1, 73, 0
2, 14640, Note_on_c, 1, 73, 127
2, 14680, Note_off_c, 1, 73, 0
2, 14720, Note_on_c, 1, 49, 127
2, 14720, Note_on_c, 1, 63, 127
2, 14720, Note_off_c, 1, 65, 0
2, 14760, Note_off_c, 1, 49, 0
2, 14760, Note_off_c, 1, 63, 0
2, 14760, Note_off_c, 1, 68, 0
2, 14800, Note_on_c, 1, 75, 127
2, 14840, Note_off_c, 1, 75, 0
2, 14880, Note_on_c, 1, 76, 127
2, 14960, Note_off_c, 1, 76, 0
2, 15000, Note_on_c, 1, 75, 127
2, 15040, Note_off_c, 1, 75, 0
2, 15080, Note_on_c, 1, 76, 127
2, 15120, Note_off_c, 1, 76, 0
2, 15160, Note_on_c, 1, 56, 127
2, 15160, Note_on_c, 1, 88, 127
2, 15200, Note_on_c, 1, 59, 127
2, 15200, Note_off_c, 1, 88, 0
2, 15240, Note_off_c, 1, 56, 0
2, 15240, Note_off_c, 1, 59, 0
2, 15280, Note_on_c, 1, 83, 127
2, 15280, Note_on_c, 1, 86, 127
2, 15320, Note_off_c, 1, 83, 0
2, 15320, Note_off_c, 1, 86, 0
2, 15360, Note_on_c, 1, 82, 127
2, 15360, Note_on_c, 1, 85, 127
2, 15400, Note_off_c, 1, 82, 0
2, 15400, Note_off_c, 1, 85, 0
2, 15440, Note_on_c, 1, 61, 127
2, 15440, Note_on_c, 1, 64, 127
2, 15440, Note_on_c, 1, 83, 127
2, 15480, Note_off_c, 1, 61, 0
2, 15480, Note_off_c, 1, 64, 0
2, 15480, Note_on_c, 1, 80, 127
2, 15560, Note_off_c, 1, 80, 0
2, 15560, Note_off_c, 1, 83, 0
2, 15600, Note_on_c, 1, 84, 127
2, 15600, Note_on_c, 1, 87, 127
2, 15600, Note_on_c, 1, 96, 127
2, 15640, Note_off_c, 1, 84, 0
2, 15640, Note_off_c, 1, 87, 0
2, 15640, Note_off_c, 1, 96, 0
2, 15680, Note_on_c, 1, 85, 127
2, 15680, Note_on_c, 1, 89, 127
2, 15720, Note_off_c, 1, 85, 0
2, 15720, Note_off_c, 1, 89, 0
2, 15760, Note_on_c, 1, 76, 127
2, 15760, Note_on_c, 1, 79, 127
2, 15760, Note_on_c, 1, 85, 127
2, 15760, Note_on_c, 1, 88, 127
2, 15800, Note_off_c, 1, 76, 0
2, 15800, Note_off_c, 1, 79, 0
2, 15800, Note_off_c, 1, 85, 0
2, 15800, Note_off_c, 1, 88, 0
2, 15840, Note_on_c, 1, 76, 127
2, 15840, Note_on_c, 1, 79, 127
2, 15840, Note_on_c, 1, 85, 127
2, 15840, Note_on_c, 1, 88, 127
2, 15880, Note_off_c, 1, 76, 0
2, 15880, Note_off_c, 1, 79, 0
2, 15880, Note_off_c, 1, 85, 0
2, 15880, Note_off_c, 1, 88, 0
2, 15920, Note_on_c, 1, 49, 127
2, 15920, Note_on_c, 1, 77, 127
2, 15920, Note_on_c, 1, 80, 127
2, 15960, Note_off_c, 1, 49, 0
2, 15960, Note_off_c, 1, 77, 0
2, 15960, Note_off_c, 1, 80, 0
2, 16000, Note_on_c, 1, 73, 127
2, 16000, Note_on_c, 1, 78, 127
2, 16000, Note_on_c, 1, 82, 127
2, 16040, Note_off_c, 1, 73, 0
2, 16040, Note_off_c, 1, 78, 0
2, 16040, Note_off_c, 1, 82, 0
2, 16080, Note_on_c, 1, 57, 127
2, 16080, Note_on_c, 1, 60, 127
2, 16080, Note_on_c, 1, 63, 127
2, 16080, Note_on_c, 1, 72, 127
2, 16080, Note_on_c, 1, 78, 127
2, 16080, Note_on_c, 1, 83, 127
2, 16120, Note_off_c, 1, 57, 0
2, 16120, Note_off_c, 1, 60, 0
2, 16120, Note_off_c, 1, 63, 0
2, 16120, Note_off_c, 1, 72, 0
2, 16120, Note_off_c, 1, 78, 0
2, 16120, Note_off_c, 1, 83, 0
2, 16200, Note_on_c, 1, 52, 127
2, 16200, Note_on_c, 1, 56, 127
2, 16200, Note_on_c, 1, 59, 127
2, 16200, Note_on_c, 1, 61, 127
2, 16240, Note_off_c, 1, 52, 0
2, 16240, Note_off_c, 1, 56, 0
2, 16240, Note_off_c, 1, 59, 0
2, 16240, Note_off_c, 1, 61, 0
2, 16280, Note_on_c, 1, 40, 127
2, 16280, Note_on_c, 1, 52, 127
2, 16280, Note_on_c, 1, 78, 127
2, 16280, Note_on_c, 1, 83, 127
2, 16280, Note_on_c, 1, 87, 127
2, 16280, Note_on_c, 1, 90, 127
2, 16320, Note_off_c, 1, 40, 0
2, 16320, Note_off_c, 1, 52, 0
2, 16360, Note_on_c, 1, 56, 127
2, 16360, Note_on_c, 1, 59, 127
2, 16360, Note_on_c, 1, 61, 127
2, 16360, Note_on_c, 1, 68, 127
2, 16360, Note_on_c, 1, 71, 127
2, 16360, Note_on_c, 1, 73, 127
2, 16360, Note_off_c, 1, 78, 0
2, 16360, Note_off_c, 1, 83, 0
2, 16360, Note_off_c, 1, 87, 0
2, 16360, Note_off_c, 1, 90, 0
2, 16400, Note_off_c, 1, 56, 0
2, 16400, Note_off_c, 1, 59, 0
2, 16400, Note_off_c, 1, 61, 0
2, 16400, Note_off_c, 1, 68, 0
2, 16400, Note_off_c, 1, 71, 0
2, 16400, Note_off_c, 1, 73, 0
2, 16400, Note_on_c, 1, 78, 127
2, 16400, Note_on_c, 1, 83, 127
2, 16400, Note_on_c, 1, 87, 127
2, 16400, Note_on_c, 1, 90, 127
2, 16440, Note_on_c, 1, 42, 127
2, 16440, Note_off_c, 1, 78, 0
2, 16440, Note_off_c, 1, 83, 0
2, 16480, Note_off_c, 1, 42, 0
2, 16480, Note_on_c, 1, 51, 127
2, 16480, Note_on_c, 1, 53, 127
2, 16480, Note_on_c, 1, 56, 127
2, 16480, Note_on_c, 1, 58, 127
2, 16480, Note_on_c, 1, 62, 127
2, 16480, Note_on_c, 1, 68, 127
2, 16480, Note_off_c, 1, 87, 0
2, 16480, Note_off_c, 1, 90, 0
2, 16520, Note_off_c, 1, 51, 0
2, 16520, Note_off_c, 1, 53, 0
2, 16520, Note_off_c, 1, 56, 0
2, 16520, Note_off_c, 1, 58, 0
2, 16520, Note_off_c, 1, 62, 0
2, 16520, Note_off_c, 1, 68, 0
2, 16520, Note_on_c, 1, 80, 127
2, 16520, Note_on_c, 1, 83, 127
2, 16560, Note_on_c, 1, 61, 127
2, 16560, Note_on_c, 1, 63, 127
2, 16560, Note_on_c, 1, 66, 127
2, 16560, Note_on_c, 1, 70, 127
2, 16560, Note_off_c, 1, 80, 0
2, 16560, Note_off_c, 1, 83, 0
2, 16680, Note_off_c, 1, 61, 0
2, 16680, Note_off_c, 1, 63, 0
2, 16680, Note_off_c, 1, 66, 0
2, 16680, Note_off_c, 1, 70, 0
2, 16720, Note_on_c, 1, 61, 127
2, 16720, Note_on_c, 1, 63, 127
2, 16720, Note_on_c, 1, 66, 127
2, 16720, Note_on_c, 1, 70, 127
2, 16840, Note_off_c, 1, 61, 0
2, 16840, Note_off_c, 1, 63, 0
2, 16840, Note_off_c, 1, 66, 0
2, 16840, Note_off_c, 1, 70, 0
2, 16880, Note_on_c, 1, 61, 127
2, 16880, Note_on_c, 1, 63, 127
2, 16880, Note_on_c, 1, 66, 127
2, 16880, Note_on_c, 1, 70, 127
2, 17000, Note_off_c, 1, 61, 0
2, 17000, Note_off_c, 1, 63, 0
2, 17000, Note_off_c, 1, 66, 0
2, 17000, Note_off_c, 1, 70, 0
2, 17040, Note_on_c, 1, 56, 127
2, 17040, Note_on_c, 1, 63, 127
2, 17040, Note_on_c, 1, 66, 127
2, 17040, Note_on_c, 1, 90, 127
2, 17120, Note_off_c, 1, 56, 0
2, 17120, Note_off_c, 1, 63, 0
2, 17120, Note_off_c, 1, 66, 0
2, 17120, Note_off_c, 1, 90, 0
2, 17160, Note_on_c, 1, 56, 127
2, 17160, Note_on_c, 1, 63, 127
2, 17160, Note_on_c, 1, 66, 127
2, 17160, Note_on_c, 1, 90, 127
2, 17240, Note_on_c, 1, 87, 127
2, 17240, Note_off_c, 1, 90, 0
2, 17280, Note_off_c, 1, 87, 0
2, 17320, Note_on_c, 1, 87, 127
2, 17400, Note_off_c, 1, 56, 0
2, 17400, Note_off_c, 1, 63, 0
2, 17400, Note_off_c, 1, 66, 0
2, 17400, Note_on_c, 1, 85, 127
2, 17400, Note_off_c, 1, 87, 0
2, 17440, Note_off_c, 1, 85, 0
2, 17440, Note_on_c, 1, 87, 127
2, 17480, Note_on_c, 1, 56, 127
2, 17480, Note_on_c, 1, 63, 127
2, 17480, Note_on_c, 1, 66, 127
2, 17480, Note_off_c, 1, 87, 0
2, 17480, Note_on_c, 1, 90, 127
2, 17560, Note_on_c, 1, 87, 127
2, 17560, Note_off_c, 1, 90, 0
2, 17600, Note_off_c, 1, 87, 0
2, 17640, Note_on_c, 1, 90, 127
2, 17680, Note_on_c, 1, 87, 127
2, 17680, Note_off_c, 1, 90, 0
2, 17760, Note_off_c, 1, 87, 0
2, 17800, Note_on_c, 1, 90, 127
2, 17840, Note_off_c, 1, 90, 0
2, 17880, Note_on_c, 1, 84, 127
2, 17920, Note_off_c, 1, 84, 0
2, 17920, Note_on_c, 1, 85, 127
2, 17960, Note_on_c, 1, 84, 127
2, 17960, Note_off_c, 1, 85, 0
2, 18000, Note_off_c, 1, 84, 0
2, 18000, Note_on_c, 1, 87, 127
2, 18040, Note_off_c, 1, 56, 0
2, 18040, Note_off_c, 1, 63, 0
2, 18040, Note_off_c, 1, 66, 0
2, 18040, Note_on_c, 1, 85, 127
2, 18040, Note_off_c, 1, 87, 0
2, 18080, Note_on_c, 1, 56, 127
2, 18080, Note_on_c, 1, 76, 127
2, 18080, Note_off_c, 1, 85, 0
2, 18120, Note_off_c, 1, 56, 0
2, 18120, Note_on_c, 1, 67, 127
2, 18120, Note_on_c, 1, 75, 127
2, 18120, Note_off_c, 1, 76, 0
2, 18120, Note_on_c, 1, 85, 127
2, 18120, Note_on_c, 1, 89, 127
2, 18160, Note_on_c, 1, 63, 127
2, 18160, Note_on_c, 1, 73, 127
2, 18160, Note_off_c, 1, 75, 0
2, 18160, Note_off_c, 1, 85, 0
2, 18200, Note_on_c, 1, 48, 127
2, 18200, Note_on_c, 1, 55, 127
2, 18200, Note_on_c, 1, 62, 127
2, 18200, Note_off_c, 1, 63, 0
2, 18200, Note_off_c, 1, 67, 0
2, 18200, Note_off_c, 1, 73, 0
2, 18200, Note_off_c, 1, 89, 0
2, 18200, Note_on_c, 1, 96, 127
2, 18240, Note_off_c, 1, 48, 0
2, 18240, Note_off_c, 1, 55, 0
2, 18240, Note_on_c, 1, 56, 127
2, 18240, Note_off_c, 1, 62, 0
2, 18240, Note_on_c, 1, 78, 127
2, 18240, Note_off_c, 1, 96, 0
2, 18280, Note_off_c, 1, 56, 0
2, 18280, Note_off_c, 1, 78, 0
2, 18320, Note_on_c, 1, 56, 127
2, 18320, Note_on_c, 1, 63, 127
2, 18320, Note_on_c, 1, 66, 127
2, 18320, Note_on_c, 1, 68, 127
2, 18320, Note_on_c, 1, 78, 127
2, 18360, Note_off_c, 1, 63, 0
2, 18360, Note_off_c, 1, 66, 0
2, 18360, Note_off_c, 1, 68, 0
2, 18360, Note_on_c, 1, 75, 127
2, 18360, Note_on_c, 1, 76, 127
2, 18360, Note_off_c, 1, 78, 0
2, 18400, Note_off_c, 1, 75, 0
2, 18480, Note_off_c, 1, 56, 0
2, 18480, Note_on_c, 1, 61, 127
2, 18480, Note_on_c, 1, 70, 127
2, 18480, Note_on_c, 1, 73, 127
2, 18480, Note_off_c, 1, 76, 0
2, 18480, Note_on_c, 1, 82, 127
2, 18480, Note_on_c, 1, 85, 127
2, 18520, Note_off_c, 1, 61, 0
2, 18520, Note_on_c, 1, 63, 127
2, 18520, Note_on_c, 1, 64, 127
2, 18520, Note_on_c, 1, 67, 127
2, 18520, Note_on_c, 1, 69, 127
2, 18520, Note_off_c, 1, 70, 0
2, 18520, Note_off_c, 1, 73, 0
2, 18520, Note_on_c, 1, 76, 127
2, 18520, Note_on_c, 1, 79, 127
2, 18520, Note_on_c, 1, 81, 127
2, 18520, Note_off_c, 1, 82, 0
2, 18520, Note_off_c, 1, 85, 0
2, 18560, Note_on_c, 1, 49, 127
2, 18560, Note_on_c, 1, 52, 127
2, 18560, Note_on_c, 1, 57, 127
2, 18560, Note_on_c, 1, 61, 127
2, 18560, Note_off_c, 1, 63, 0
2, 18560, Note_off_c, 1, 64, 0
2, 18560, Note_off_c, 1, 67, 0
2, 18560, Note_off_c, 1, 69, 0
2, 18560, Note_on_c, 1, 73, 127
2, 18560, Note_off_c, 1, 79, 0
2, 18560, Note_on_c, 1, 85, 127
2, 18600, Note_on_c, 1, 32, 127
2, 18600, Note_off_c, 1, 49, 0
2, 18600, Note_on_c, 1, 51, 127
2, 18600, Note_off_c, 1, 52, 0
2, 18600, Note_off_c, 1, 57, 0
2, 18600, Note_off_c, 1, 61, 0
2, 18600, Note_off_c, 1, 73, 0
2, 18600, Note_off_c, 1, 76, 0
2, 18600, Note_on_c, 1, 78, 127
2, 18600, Note_off_c, 1, 85, 0
2, 18600, Note_on_c, 1, 87, 127
2, 18640, Note_off_c, 1, 32, 0
2, 18640, Note_off_c, 1, 51, 0
2, 18640, Note_on_c, 1, 59, 127
2, 18640, Note_on_c, 1, 63, 127
2, 18640, Note_on_c, 1, 66, 127
2, 18640, Note_on_c, 1, 68, 127
2, 18640, Note_off_c, 1, 78, 0
2, 18640, Note_off_c, 1, 81, 0
2, 18640, Note_off_c, 1, 87, 0
2, 18640, Note_on_c, 1, 98, 127
2, 18680, Note_on_c, 1, 57, 127
2, 18680, Note_off_c, 1, 59, 0
2, 18680, Note_off_c, 1, 66, 0
2, 18680, Note_off_c, 1, 68, 0
2, 18680, Note_on_c, 1, 71, 127
2, 18680, Note_on_c, 1, 77, 127
2, 18680, Note_off_c, 1, 98, 0
2, 18720, Note_off_c, 1, 57, 0
2, 18720, Note_on_c, 1, 61, 127
2, 18720, Note_off_c, 1, 63, 0
2, 18720, Note_off_c, 1, 71, 0
2, 18720, Note_off_c, 1, 77, 0
2, 18720, Note_on_c, 1, 87, 127
2, 18760, Note_on_c, 1, 42, 127
2, 18760, Note_on_c, 1, 54, 127
2, 18760, Note_on_c, 1, 76, 127
2, 18760, Note_off_c, 1, 87, 0
2, 18760, Note_on_c, 1, 88, 127
2, 18800, Note_on_c, 1, 40, 127
2, 18800, Note_off_c, 1, 42, 0
2, 18800, Note_on_c, 1, 47, 127
2, 18800, Note_off_c, 1, 54, 0
2, 18800, Note_on_c, 1, 58, 127
2, 18800, Note_off_c, 1, 61, 0
2, 18800, Note_on_c, 1, 70, 127
2, 18800, Note_off_c, 1, 76, 0
2, 18800, Note_off_c, 1, 88, 0
2, 18840, Note_on_c, 1, 31, 127
2, 18840, Note_off_c, 1, 40, 0
2, 18840, Note_off_c, 1, 58, 0
2, 18840, Note_on_c, 1, 65, 127
2, 18840, Note_on_c, 1, 67, 127
2, 18840, Note_off_c, 1, 70, 0
2, 18880, Note_off_c, 1, 31, 0
2, 18880, Note_on_c, 1, 43, 127
2, 18880, Note_off_c, 1, 47, 0
2, 18880, Note_on_c, 1, 54, 127
2, 18880, Note_off_c, 1, 65, 0
2, 18880, Note_off_c, 1, 67, 0
2, 18880, Note_on_c, 1, 71, 127
2, 18920, Note_off_c, 1, 43, 0
2, 18920, Note_off_c, 1, 54, 0
2, 18920, Note_off_c, 1, 71, 0
2, 18920, Note_on_c, 1, 77, 127
2, 18920, Note_on_c, 1, 80, 127
2, 18920, Note_on_c, 1, 86, 127
2, 18920, Note_on_c, 1, 101, 127
2, 18960, Note_on_c, 1, 39, 127
2, 18960, Note_on_c, 1, 51, 127
2, 18960, Note_on_c, 1, 72, 127
2, 18960, Note_off_c, 1, 77, 0
2, 18960, Note_on_c, 1, 79, 127
2, 18960, Note_off_c, 1, 80, 0
2, 18960, Note_on_c, 1, 81, 127
2, 18960, Note_off_c, 1, 86, 0
2, 18960, Note_off_c, 1, 101, 0
2, 19000, Note_off_c, 1, 39, 0
2, 19000, Note_on_c, 1, 54, 127
2, 19000, Note_on_c, 1, 59, 127
2, 19000, Note_off_c, 1, 72, 0
2, 19000, Note_off_c, 1, 79, 0
2, 19000, Note_off_c, 1, 81, 0
2, 19000, Note_on_c, 1, 95, 127
2, 19040, Note_off_c, 1, 51, 0
2, 19040, Note_off_c, 1, 54, 0
2, 19040, Note_off_c, 1, 59, 0
2, 19040, Note_off_c, 1, 95, 0
2, 19080, Note_on_c, 1, 49, 127
2, 19080, Note_on_c, 1, 56, 127
2, 19080, Note_on_c, 1, 59, 127
2, 19080, Note_on_c, 1, 82, 127
2, 19200, Note_off_c, 1, 49, 0
2, 19200, Note_off_c, 1, 56, 0
2, 19200, Note_off_c, 1, 59, 0
2, 19200, Note_on_c, 1, 72, 127
2, 19200, Note_on_c, 1, 74, 127
2, 19200, Note_on_c, 1, 81, 127
2, 19200, Note_off_c, 1, 82, 0
2, 19200, Note_on_c, 1, 100, 127
2, 19240, Note_on_c, 1, 53, 127
2, 19240, Note_on_c, 1, 63, 127
2, 19240, Note_on_c, 1, 70, 127
2, 19240, Note_off_c, 1, 72, 0
2, 19240, Note_off_c, 1, 74, 0
2, 19240, Note_on_c, 1, 75, 127
2, 19240, Note_off_c, 1, 81, 0
2, 19240, Note_off_c, 1, 100, 0
2, 19280, Note_on_c, 1, 49, 127
2, 19280, Note_off_c, 1, 53, 0
2, 19280, Note_on_c, 1, 56, 127
2, 19280, Note_on_c, 1, 59, 127
2, 19280, Note_off_c, 1, 63, 0
2, 19280, Note_off_c, 1, 70, 0
2, 19280, Note_off_c, 1, 75, 0
2, 19280, Note_on_c, 1, 82, 127
2, 19360, Note_off_c, 1, 56, 0
2, 19360, Note_on_c, 1, 65, 127
2, 19360, Note_on_c, 1, 75, 127
2, 19360, Note_off_c, 1, 82, 0
2, 19400, Note_on_c, 1, 30, 127
2, 19400, Note_on_c, 1, 35, 127
2, 19400, Note_on_c, 1, 37, 127
2, 19400, Note_off_c, 1, 49, 0
2, 19400, Note_off_c, 1, 59, 0
2, 19400, Note_off_c, 1, 65, 0
2, 19400, Note_on_c, 1, 72, 127
2, 19400, Note_off_c, 1, 75, 0
2, 19440, Note_off_c, 1, 30, 0
2, 19440, Note_off_c, 1, 35, 0
2, 19440, Note_off_c, 1, 37, 0
2, 19440, Note_on_c, 1, 56, 127
2, 19440, Note_on_c, 1, 61, 127
2, 19440, Note_on_c, 1, 65, 127
2, 19440, Note_off_c, 1, 72, 0
2, 19440, Note_on_c, 1, 75, 127
2, 19440, Note_on_c, 1, 80, 127
2, 19480, Note_on_c, 1, 49, 127
2, 19480, Note_off_c, 1, 56, 0
2, 19480, Note_on_c, 1, 59, 127
2, 19480, Note_off_c, 1, 61, 0
2, 19480, Note_off_c, 1, 80, 0
2, 19520, Note_off_c, 1, 49, 0
2, 19520, Note_off_c, 1, 65, 0
2, 19520, Note_on_c, 1, 73, 127
2, 19520, Note_off_c, 1, 75, 0
2, 19520, Note_on_c, 1, 80, 127
2, 19520, Note_on_c, 1, 85, 127
2, 19560, Note_off_c, 1, 59, 0
2, 19560, Note_on_c, 1, 61, 127
2, 19560, Note_on_c, 1, 64, 127
2, 19560, Note_off_c, 1, 73, 0
2, 19560, Note_off_c, 1, 80, 0
2, 19560, Note_off_c, 1, 85, 0
2, 19560, Note_on_c, 1, 97, 127
2, 19600, Note_on_c, 1, 37, 127
2, 19600, Note_on_c, 1, 44, 127
2, 19600, Note_on_c, 1, 49, 127
2, 19600, Note_on_c, 1, 53, 127
2, 19600, Note_off_c, 1, 64, 0
2, 19600, Note_on_c, 1, 92, 127
2, 19600, Note_off_c, 1, 97, 0
2, 19640, Note_off_c, 1, 37, 0
2, 19640, Note_off_c, 1, 44, 0
2, 19640, Note_off_c, 1, 49, 0
2, 19640, Note_off_c, 1, 53, 0
2, 19640, Note_off_c, 1, 61, 0
2, 19640, Note_off_c, 1, 92, 0
2, 19680, Note_on_c, 1, 55, 127
2, 19680, Note_on_c, 1, 65, 127
2, 19680, Note_on_c, 1, 70, 127
2, 19680, Note_on_c, 1, 82, 127
2, 19800, Note_off_c, 1, 65, 0
2, 19840, Note_off_c, 1, 55, 0
2, 19840, Note_on_c, 1, 60, 127
2, 19840, Note_on_c, 1, 62, 127
2, 19840, Note_on_c, 1, 69, 127
2, 19840, Note_off_c, 1, 70, 0
2, 20160, Note_on_c, 1, 53, 127
2, 20160, Note_on_c, 1, 58, 127
2, 20160, Note_off_c, 1, 60, 0
2, 20160, Note_off_c, 1, 62, 0
2, 20160, Note_on_c, 1, 65, 127
2, 20160, Note_off_c, 1, 69, 0
2, 20160, Note_on_c, 1, 74, 127
2, 20160, Note_on_c, 1, 79, 127
2, 20160, Note_off_c, 1, 82, 0
2, 20200, Note_on_c, 1, 29, 127
2, 20200, Note_on_c, 1, 47, 127
2, 20200, Note_off_c, 1, 53, 0
2, 20200, Note_off_c, 1, 58, 0
2, 20200, Note_off_c, 1, 65, 0
2, 20200, Note_off_c, 1, 74, 0
2, 20200, Note_off_c, 1, 79, 0
2, 20240, Note_off_c, 1, 29, 0
2, 20240, Note_on_c, 1, 34, 127
2, 20240, Note_off_c, 1, 47, 0
2, 20240, Note_on_c, 1, 53, 127
2, 20240, Note_on_c, 1, 58, 127
2, 20240, Note_on_c, 1, 65, 127
2, 20280, Note_off_c, 1, 34, 0
2, 20280, Note_off_c, 1, 53, 0
2, 20280, Note_off_c, 1, 58, 0
2, 20280, Note_off_c, 1, 65, 0
2, 20360, Note_on_c, 1, 32, 127
2, 20360, Note_on_c, 1, 71, 127
2, 20360, Note_on_c, 1, 75, 127
2, 21400, Note_off_c, 1, 32, 0
2, 21400, Note_off_c, 1, 71, 0
2, 21400, Note_off_c, 1, 75, 0
2, 21480, Note_on_c, 1, 49, 127
2, 21480, Note_on_c, 1, 59, 127
2, 21480, Note_on_c, 1, 73, 127
2, 21760, Note_on_c, 1, 65, 127
2, 22600, Note_off_c, 1, 49, 0
2, 22600, Note_off_c, 1, 59, 0
2, 22600, Note_off_c, 1, 65, 0
2, 22600, Note_off_c, 1, 73, 0
2, 22640, Note_on_c, 1, 49, 127
2, 22640, Note_on_c, 1, 59, 127
2, 22640, Note_on_c, 1, 65, 127
2, 22640, Note_on_c, 1, 73, 127
2, 22960, Note_off_c, 1, 49, 0
2, 22960, Note_off_c, 1, 59, 0
2, 22960, Note_off_c, 1, 65, 0
2, 22960, Note_on_c, 1, 68, 127
2, 22960, Note_off_c, 1, 73, 0
2, 23000, Note_on_c, 1, 44, 127
2, 23000, Note_on_c, 1, 51, 127
2, 23000, Note_on_c, 1, 60, 127
2, 23000, Note_on_c, 1, 62, 127
2, 23000, Note_off_c, 1, 68, 0
2, 23000, Note_on_c, 1, 72, 127
2, 23280, Note_off_c, 1, 44, 0
2, 23280, Note_off_c, 1, 51, 0
2, 23280, Note_off_c, 1, 60, 0
2, 23280, Note_off_c, 1, 62, 0
2, 23320, Note_on_c, 1, 50, 127
2, 23320, Note_on_c, 1, 62, 127
2, 23320, Note_off_c, 1, 72, 0
2, 23320, Note_on_c, 1, 77, 127
2, 23320, Note_on_c, 1, 80, 127
2, 23320, Note_on_c, 1, 83, 127
2, 23320, Note_on_c, 1, 89, 127
2, 23600, Note_off_c, 1, 50, 0
2, 23600, Note_off_c, 1, 62, 0
2, 23600, Note_off_c, 1, 77, 0
2, 23600, Note_off_c, 1, 80, 0
2, 23600, Note_off_c, 1, 83, 0
2, 23600, Note_off_c, 1, 89, 0
2, 23640, Note_on_c, 1, 54, 127
2, 23640, Note_on_c, 1, 59, 127
2, 23640, Note_on_c, 1, 81, 127
2, 23640, Note_on_c, 1, 87, 127
2, 23640, Note_on_c, 1, 92, 127
2, 23920, Note_off_c, 1, 54, 0
2, 23920, Note_off_c, 1, 59, 0
2, 23920, Note_off_c, 1, 81, 0
2, 23920, Note_off_c, 1, 87, 0
2, 23920, Note_off_c, 1, 92, 0
2, 23960, Note_on_c, 1, 40, 127
2, 23960, Note_on_c, 1, 52, 127
2, 23960, Note_on_c, 1, 76, 127
2, 23960, Note_on_c, 1, 80, 127
2, 23960, Note_on_c, 1, 88, 127
2, 24240, Note_off_c, 1, 40, 0
2, 24240, Note_off_c, 1, 52, 0
2, 24240, Note_off_c, 1, 76, 0
2, 24240, Note_off_c, 1, 80, 0
2, 24240, Note_off_c, 1, 88, 0
2, 24800, Note_on_c, 1, 50, 127
2, 24800, Note_on_c, 1, 53, 127
2, 24800, Note_on_c, 1, 56, 127
2, 24800, Note_on_c, 1, 58, 127
2, 24800, Note_on_c, 1, 79, 127
2, 24920, Note_off_c, 1, 79, 0
2, 24960, Note_on_c, 1, 79, 127
2, 25080, Note_off_c, 1, 79, 0
2, 25120, Note_off_c, 1, 50, 0
2, 25120, Note_off_c, 1, 53, 0
2, 25120, Note_off_c, 1, 56, 0
2, 25120, Note_off_c, 1, 58, 0
2, 25120, Note_on_c, 1, 64, 127
2, 25120, Note_on_c, 1, 71, 127
2, 25120, Note_on_c, 1, 76, 127
2, 25120, Note_on_c, 1, 79, 127
2, 25120, Note_on_c, 1, 90, 127
2, 25160, Note_on_c, 1, 53, 127
2, 25160, Note_on_c, 1, 56, 127
2, 25160, Note_on_c, 1, 63, 127
2, 25160, Note_off_c, 1, 64, 0
2, 25160, Note_off_c, 1, 76, 0
2, 25160, Note_off_c, 1, 79, 0
2, 25160, Note_off_c, 1, 90, 0
2, 25200, Note_off_c, 1, 53, 0
2, 25200, Note_on_c, 1, 55, 127
2, 25200, Note_off_c, 1, 56, 0
2, 25200, Note_on_c, 1, 60, 127
2, 25200, Note_off_c, 1, 63, 0
2, 25200, Note_on_c, 1, 67, 127
2, 25200, Note_off_c, 1, 71, 0
2, 25200, Note_on_c, 1, 76, 127
2, 25200, Note_on_c, 1, 79, 127
2, 25240, Note_on_c, 1, 38, 127
2, 25240, Note_off_c, 1, 55, 0
2, 25240, Note_off_c, 1, 60, 0
2, 25240, Note_off_c, 1, 67, 0
2, 25240, Note_on_c, 1, 72, 127
2, 25240, Note_off_c, 1, 76, 0
2, 25240, Note_on_c, 1, 78, 127
2, 25240, Note_off_c, 1, 79, 0
2, 25240, Note_on_c, 1, 81, 127
2, 25280, Note_off_c, 1, 38, 0
2, 25280, Note_on_c, 1, 49, 127
2, 25280, Note_on_c, 1, 58, 127
2, 25280, Note_on_c, 1, 61, 127
2, 25280, Note_off_c, 1, 72, 0
2, 25280, Note_off_c, 1, 78, 0
2, 25280, Note_on_c, 1, 79, 127
2, 25280, Note_off_c, 1, 81, 0
2, 25280, Note_on_c, 1, 82, 127
2, 25320, Note_on_c, 1, 40, 127
2, 25320, Note_off_c, 1, 49, 0
2, 25320, Note_on_c, 1, 55, 127
2, 25320, Note_off_c, 1, 58, 0
2, 25320, Note_off_c, 1, 61, 0
2, 25320, Note_on_c, 1, 73, 127
2, 25320, Note_off_c, 1, 79, 0
2, 25320, Note_off_c, 1, 82, 0
2, 25320, Note_on_c, 1, 85, 127
2, 25360, Note_off_c, 1, 40, 0
2, 25360, Note_off_c, 1, 55, 0
2, 25360, Note_on_c, 1, 62, 127
2, 25360, Note_on_c, 1, 64, 127
2, 25360, Note_on_c, 1, 67, 127
2, 25360, Note_off_c, 1, 73, 0
2, 25360, Note_on_c, 1, 74, 127
2, 25360, Note_on_c, 1, 79, 127
2, 25360, Note_off_c, 1, 85, 0
2, 25360, Note_on_c, 1, 88, 127
2, 25360, Note_on_c, 1, 91, 127
2, 25400, Note_on_c, 1, 51, 127
2, 25400, Note_on_c, 1, 58, 127
2, 25400, Note_on_c, 1, 61, 127
2, 25400, Note_off_c, 1, 62, 0
2, 25400, Note_off_c, 1, 64, 0
2, 25400, Note_off_c, 1, 67, 0
2, 25400, Note_off_c, 1, 74, 0
2, 25400, Note_off_c, 1, 79, 0
2, 25400, Note_off_c, 1, 88, 0
2, 25400, Note_off_c, 1, 91, 0
2, 25440, Note_on_c, 1, 50, 127
2, 25440, Note_off_c, 1, 51, 0
2, 25440, Note_off_c, 1, 58, 0
2, 25440, Note_off_c, 1, 61, 0
2, 25440, Note_on_c, 1, 66, 127
2, 25440, Note_on_c, 1, 81, 127
2, 25440, Note_on_c, 1, 95, 127
2, 25560, Note_off_c, 1, 50, 0
2, 25560, Note_off_c, 1, 66, 0
2, 25560, Note_off_c, 1, 81, 0
2, 25560, Note_off_c, 1, 95, 0
2, 25600, Note_on_c, 1, 35, 127
2, 25600, Note_on_c, 1, 42, 127
2, 25600, Note_on_c, 1, 47, 127
2, 25600, Note_on_c, 1, 63, 127
2, 25880, Note_off_c, 1, 35, 0
2, 25880, Note_off_c, 1, 42, 0
2, 25880, Note_off_c, 1, 47, 0
2, 25880, Note_on_c, 1, 58, 127
2, 25880, Note_off_c, 1, 63, 0
2, 25920, Note_on_c, 1, 41, 127
2, 25920, Note_on_c, 1, 53, 127
2, 25920, Note_on_c, 1, 56, 127
2, 25920, Note_off_c, 1, 58, 0
2, 25920, Note_on_c, 1, 63, 127
2, 25920, Note_on_c, 1, 68, 127
2, 25960, Note_off_c, 1, 41, 0
2, 25960, Note_off_c, 1, 53, 0
2, 25960, Note_off_c, 1, 56, 0
2, 25960, Note_off_c, 1, 63, 0
2, 25960, Note_off_c, 1, 68, 0
2, 26080, Note_on_c, 1, 39, 127
2, 26080, Note_on_c, 1, 49, 127
2, 26080, Note_on_c, 1, 58, 127
2, 26120, Note_off_c, 1, 49, 0
2, 26240, Note_on_c, 1, 49, 127
2, 26280, Note_off_c, 1, 49, 0
2, 26320, Note_on_c, 1, 51, 127
2, 26320, Note_off_c, 1, 58, 0
2, 26320, Note_on_c, 1, 63, 127
2, 26320, Note_on_c, 1, 71, 127
2, 26320, Note_on_c, 1, 75, 127
2, 26360, Note_off_c, 1, 39, 0
2, 26360, Note_off_c, 1, 51, 0
2, 26360, Note_off_c, 1, 63, 0
2, 26360, Note_off_c, 1, 71, 0
2, 26360, Note_off_c, 1, 75, 0
2, 26400, Note_on_c, 1, 42, 127
2, 26400, Note_on_c, 1, 58, 127
2, 26400, Note_on_c, 1, 63, 127
2, 26520, Note_off_c, 1, 42, 0
2, 26520, Note_off_c, 1, 58, 0
2, 26520, Note_off_c, 1, 63, 0
2, 26600, Note_on_c, 1, 39, 127
2, 26760, Note_on_c, 1, 49, 127
2, 26760, Note_on_c, 1, 58, 127
2, 26840, Note_off_c, 1, 49, 0
2, 26840, Note_off_c, 1, 58, 0
2, 27160, Note_off_c, 1, 39, 0
2, 27280, Note_on_c, 1, 39, 127
2, 27320, Note_off_c, 1, 39, 0
2, 27360, Note_on_c, 1, 32, 127
2, 27520, Note_off_c, 1, 32, 0
2, 27520, Note_on_c, 1, 53, 127
2, 27520, Note_on_c, 1, 56, 127
2, 27520, Note_on_c, 1, 70, 127
2, 27520, Note_on_c, 1, 80, 127
2, 27560, Note_on_c, 1, 52, 127
2, 27560, Note_off_c, 1, 53, 0
2, 27560, Note_off_c, 1, 56, 0
2, 27560, Note_on_c, 1, 61, 127
2, 27560, Note_on_c, 1, 64, 127
2, 27560, Note_on_c, 1, 68, 127
2, 27560, Note_off_c, 1, 70, 0
2, 27560, Note_off_c, 1, 80, 0
2, 27600, Note_on_c, 1, 44, 127
2, 27600, Note_on_c, 1, 48, 127
2, 27600, Note_off_c, 1, 52, 0
2, 27600, Note_on_c, 1, 53, 127
2, 27600, Note_off_c, 1, 61, 0
2, 27600, Note_off_c, 1, 64, 0
2, 27600, Note_off_c, 1, 68, 0
2, 27600, Note_on_c, 1, 92, 127
2, 27640, Note_off_c, 1, 44, 0
2, 27640, Note_off_c, 1, 48, 0
2, 27640, Note_off_c, 1, 53, 0
2, 27640, Note_on_c, 1, 54, 127
2, 27640, Note_on_c, 1, 64, 127
2, 27640, Note_off_c, 1, 92, 0
2, 27680, Note_off_c, 1, 54, 0
2, 27680, Note_off_c, 1, 64, 0
2, 27680, Note_on_c, 1, 66, 127
2, 27680, Note_on_c, 1, 73, 127
2, 27680, Note_on_c, 1, 87, 127
2, 27720, Note_on_c, 1, 29, 127
2, 27720, Note_on_c, 1, 54, 127
2, 27720, Note_off_c, 1, 66, 0
2, 27720, Note_off_c, 1, 73, 0
2, 27720, Note_off_c, 1, 87, 0
2, 27760, Note_off_c, 1, 29, 0
2, 27760, Note_on_c, 1, 49, 127
2, 27760, Note_off_c, 1, 54, 0
2, 27760, Note_on_c, 1, 75, 127
2, 27760, Note_on_c, 1, 82, 127
2, 27800, Note_off_c, 1, 49, 0
2, 27800, Note_off_c, 1, 75, 0
2, 27800, Note_off_c, 1, 82, 0
2, 27800, Note_on_c, 1, 84, 127
2, 27800, Note_on_c, 1, 86, 127
2, 27840, Note_on_c, 1, 45, 127
2, 27840, Note_on_c, 1, 54, 127
2, 27840, Note_on_c, 1, 57, 127
2, 27840, Note_on_c, 1, 63, 127
2, 27840, Note_on_c, 1, 69, 127
2, 27840, Note_off_c, 1, 84, 0
2, 27840, Note_off_c, 1, 86, 0
2, 27880, Note_off_c, 1, 45, 0
2, 27880, Note_on_c, 1, 47, 127
2, 27880, Note_off_c, 1, 54, 0
2, 27880, Note_off_c, 1, 57, 0
2, 27880, Note_off_c, 1, 63, 0
2, 27880, Note_on_c, 1, 65, 127
2, 27880, Note_on_c, 1, 67, 127
2, 27880, Note_off_c, 1, 69, 0
2, 27920, Note_off_c, 1, 47, 0
2, 27920, Note_on_c, 1, 63, 127
2, 27920, Note_off_c, 1, 67, 0
2, 27920, Note_on_c, 1, 71, 127
2, 27920, Note_on_c, 1, 94, 127
2, 27960, Note_on_c, 1, 41, 127
2, 27960, Note_on_c, 1, 49, 127
2, 27960, Note_on_c, 1, 61, 127
2, 27960, Note_off_c, 1, 63, 0
2, 27960, Note_off_c, 1, 65, 0
2, 27960, Note_off_c, 1, 71, 0
2, 27960, Note_on_c, 1, 72, 127
2, 27960, Note_off_c, 1, 94, 0
2, 28000, Note_off_c, 1, 41, 0
2, 28000, Note_off_c, 1, 49, 0
2, 28000, Note_off_c, 1, 61, 0
2, 28000, Note_on_c, 1, 63, 127
2, 28000, Note_on_c, 1, 69, 127
2, 28000, Note_on_c, 1, 81, 127
2, 28000, Note_on_c, 1, 89, 127
2, 28000, Note_on_c, 1, 93, 127
2, 28040, Note_on_c, 1, 47, 127
2, 28040, Note_on_c, 1, 58, 127
2, 28040, Note_off_c, 1, 63, 0
2, 28040, Note_off_c, 1, 69, 0
2, 28040, Note_off_c, 1, 72, 0
2, 28040, Note_on_c, 1, 75, 127
2, 28040, Note_off_c, 1, 81, 0
2, 28040, Note_off_c, 1, 89, 0
2, 28040, Note_off_c, 1, 93, 0
2, 28080, Note_on_c, 1, 28, 127
2, 28080, Note_on_c, 1, 37, 127
2, 28080, Note_off_c, 1, 47, 0
2, 28080, Note_on_c, 1, 49, 127
2, 28080, Note_on_c, 1, 52, 127
2, 28080, Note_off_c, 1, 75, 0
2, 28120, Note_off_c, 1, 28, 0
2, 28120, Note_off_c, 1, 37, 0
2, 28120, Note_off_c, 1, 49, 0
2, 28120, Note_off_c, 1, 52, 0
2, 28120, Note_off_c, 1, 58, 0
2, 28120, Note_on_c, 1, 67, 127
2, 28120, Note_on_c, 1, 94, 127
2, 28160, Note_on_c, 1, 39, 127
2, 28160, Note_on_c, 1, 43, 127
2, 28160, Note_on_c, 1, 51, 127
2, 28160, Note_off_c, 1, 67, 0
2, 28160, Note_on_c, 1, 82, 127
2, 28160, Note_off_c, 1, 94, 0
2, 28440, Note_off_c, 1, 39, 0
2, 28440, Note_off_c, 1, 43, 0
2, 28440, Note_off_c, 1, 51, 0
2, 28440, Note_off_c, 1, 82, 0
2, 28480, Note_on_c, 1, 44, 127
2, 28480, Note_on_c, 1, 51, 127
2, 28480, Note_on_c, 1, 60, 127
2, 28480, Note_on_c, 1, 63, 127
2, 28480, Note_on_c, 1, 80, 127
2, 28680, Note_off_c, 1, 44, 0
2, 28680, Note_off_c, 1, 51, 0
2, 28680, Note_off_c, 1, 60, 0
2, 28680, Note_off_c, 1, 63, 0
2, 28680, Note_off_c, 1, 80, 0
2, 28720, Note_on_c, 1, 44, 127
2, 28720, Note_on_c, 1, 51, 127
2, 28720, Note_on_c, 1, 60, 127
2, 28720, Note_on_c, 1, 63, 127
2, 28720, Note_on_c, 1, 80, 127
2, 28760, Note_off_c, 1, 44, 0
2, 28760, Note_off_c, 1, 51, 0
2, 28760, Note_off_c, 1, 60, 0
2, 28760, Note_off_c, 1, 63, 0
2, 28760, Note_off_c, 1, 80, 0
2, 28800, Note_on_c, 1, 72, 127
2, 28800, Note_on_c, 1, 75, 127
2, 28800, Note_on_c, 1, 78, 127
2, 28800, Note_on_c, 1, 80, 127
2, 28920, Note_off_c, 1, 80, 0
2, 28960, Note_on_c, 1, 79, 127
2, 29080, Note_off_c, 1, 72, 0
2, 29080, Note_off_c, 1, 75, 0
2, 29080, Note_off_c, 1, 78, 0
2, 29080, Note_off_c, 1, 79, 0
2, 29120, Note_on_c, 1, 72, 127
2, 29120, Note_on_c, 1, 75, 127
2, 29120, Note_on_c, 1, 78, 127
2, 29120, Note_on_c, 1, 80, 127
2, 29200, Note_off_c, 1, 80, 0
2, 29280, Note_on_c, 1, 80, 127
2, 29520, Note_off_c, 1, 72, 0
2, 29520, Note_off_c, 1, 75, 0
2, 29520, Note_off_c, 1, 78, 0
2, 29520, Note_off_c, 1, 80, 0
2, 29560, Note_on_c, 1, 63, 127
2, 29560, Note_on_c, 1, 69, 127
2, 29560, Note_on_c, 1, 73, 127
2, 29560, Note_on_c, 1, 78, 127
2, 29680, Note_off_c, 1, 78, 0
2, 29720, Note_on_c, 1, 78, 127
2, 29840, Note_off_c, 1, 78, 0
2, 29880, Note_on_c, 1, 67, 127
2, 29880, Note_off_c, 1, 69, 0
2, 29880, Note_on_c, 1, 84, 127
2, 30000, Note_off_c, 1, 63, 0
2, 30000, Note_off_c, 1, 67, 0
2, 30000, Note_off_c, 1, 73, 0
2, 30000, Note_off_c, 1, 84, 0
2, 30040, Note_on_c, 1, 59, 127
2, 30040, Note_on_c, 1, 63, 127
2, 30040, Note_on_c, 1, 70, 127
2, 30040, Note_on_c, 1, 78, 127
2, 30160, Note_off_c, 1, 70, 0
2, 30160, Note_off_c, 1, 78, 0
2, 30200, Note_on_c, 1, 39, 127
2, 30200, Note_on_c, 1, 51, 127
2, 30200, Note_off_c, 1, 59, 0
2, 30200, Note_off_c, 1, 63, 0
2, 30200, Note_on_c, 1, 68, 127
2, 30200, Note_on_c, 1, 77, 127
2, 30200, Note_on_c, 1, 80, 127
2, 30320, Note_off_c, 1, 39, 0
2, 30320, Note_off_c, 1, 51, 0
2, 30320, Note_off_c, 1, 68, 0
2, 30320, Note_off_c, 1, 77, 0
2, 30320, Note_off_c, 1, 80, 0
2, 30360, Note_on_c, 1, 56, 127
2, 30360, Note_on_c, 1, 59, 127
2, 30360, Note_on_c, 1, 64, 127
2, 30360, Note_on_c, 1, 68, 127
2, 30360, Note_on_c, 1, 88, 127
2, 30360, Note_on_c, 1, 95, 127
2, 30360, Note_on_c, 1, 100, 127
2, 30400, Note_off_c, 1, 56, 0
2, 30400, Note_off_c, 1, 59, 0
2, 30400, Note_off_c, 1, 64, 0
2, 30400, Note_off_c, 1, 68, 0
2, 30440, Note_on_c, 1, 56, 127
2, 30440, Note_on_c, 1, 59, 127
2, 30440, Note_on_c, 1, 64, 127
2, 30440, Note_on_c, 1, 68, 127
2, 30480, Note_off_c, 1, 56, 0
2, 30480, Note_off_c, 1, 59, 0
2, 30480, Note_off_c, 1, 64, 0
2, 30480, Note_off_c, 1, 88, 0
2, 30480, Note_off_c, 1, 95, 0
2, 30480, Note_off_c, 1, 100, 0
2, 30520, Note_on_c, 1, 52, 127
2, 30520, Note_on_c, 1, 55, 127
2, 30520, Note_on_c, 1, 58, 127
2, 30520, Note_on_c, 1, 61, 127
2, 30520, Note_on_c, 1, 64, 127
2, 30520, Note_on_c, 1, 67, 127
2, 30520, Note_off_c, 1, 68, 0
2, 30520, Note_on_c, 1, 70, 127
2, 30520, Note_on_c, 1, 73, 127
2, 30520, Note_on_c, 1, 79, 127
2, 30640, Note_off_c, 1, 52, 0
2, 30640, Note_off_c, 1, 55, 0
2, 30640, Note_off_c, 1, 58, 0
2, 30640, Note_off_c, 1, 61, 0
2, 30640, Note_off_c, 1, 64, 0
2, 30640, Note_off_c, 1, 67, 0
2, 30640, Note_off_c, 1, 70, 0
2, 30640, Note_off_c, 1, 73, 0
2, 30640, Note_off_c, 1, 79, 0
2, 30680, Note_on_c, 1, 52, 127
2, 30680, Note_on_c, 1, 55, 127
2, 30680, Note_on_c, 1, 58, 127
2, 30680, Note_on_c, 1, 61, 127
2, 30680, Note_on_c, 1, 64, 127
2, 30680, Note_on_c, 1, 67, 127
2, 30680, Note_on_c, 1, 70, 127
2, 30680, Note_on_c, 1, 73, 127
2, 30680, Note_on_c, 1, 79, 127
2, 31120, Note_off_c, 1, 52, 0
2, 31120, Note_on_c, 1, 54, 127
2, 31120, Note_off_c, 1, 55, 0
2, 31120, Note_off_c, 1, 67, 0
2, 31120, Note_off_c, 1, 70, 0
2, 31120, Note_off_c, 1, 73, 0
2, 31120, Note_off_c, 1, 79, 0
2, 31160, Note_off_c, 1, 54, 0
2, 31160, Note_on_c, 1, 56, 127
2, 31160, Note_off_c, 1, 58, 0
2, 31160, Note_off_c, 1, 61, 0
2, 31160, Note_off_c, 1, 64, 0
2, 31160, Note_on_c, 1, 66, 127
2, 31160, Note_on_c, 1, 70, 127
2, 31160, Note_on_c, 1, 73, 127
2, 31280, Note_off_c, 1, 56, 0
2, 31280, Note_off_c, 1, 66, 0
2, 31280, Note_off_c, 1, 70, 0
2, 31280, Note_off_c, 1, 73, 0
2, 31320, Note_on_c, 1, 56, 127
2, 31320, Note_on_c, 1, 66, 127
2, 31320, Note_on_c, 1, 72, 127
2, 31320, Note_on_c, 1, 77, 127
2, 31440, Note_off_c, 1, 77, 0
2, 31480, Note_on_c, 1, 75, 127
2, 31600, Note_off_c, 1, 56, 0
2, 31600, Note_off_c, 1, 66, 0
2, 31600, Note_off_c, 1, 72, 0
2, 31600, Note_off_c, 1, 75, 0
2, 31640, Note_on_c, 1, 56, 127
2, 31640, Note_on_c, 1, 66, 127
2, 31640, Note_on_c, 1, 72, 127
2, 31640, Note_on_c, 1, 77, 127
2, 31760, Note_off_c, 1, 77, 0
2, 31800, Note_on_c, 1, 75, 127
2, 31920, Note_off_c, 1, 56, 0
2, 31920, Note_off_c, 1, 66, 0
2, 31920, Note_off_c, 1, 72, 0
2, 31920, Note_off_c, 1, 75, 0
2, 31960, Note_on_c, 1, 61, 127
2, 31960, Note_on_c, 1, 65, 127
2, 31960, Note_on_c, 1, 73, 127
2, 32080, Note_off_c, 1, 61, 0
2, 32080, Note_off_c, 1, 65, 0
2, 32080, Note_off_c, 1, 73, 0
2, 32120, Note_on_c, 1, 61, 127
2, 32120, Note_on_c, 1, 65, 127
2, 32120, Note_on_c, 1, 70, 127
2, 32280, Note_off_c, 1, 70, 0
2, 32280, Note_on_c, 1, 72, 127
2, 32400, Note_off_c, 1, 61, 0
2, 32400, Note_off_c, 1, 65, 0
2, 32400, Note_off_c, 1, 72, 0
2, 32440, Note_on_c, 1, 73, 127
2, 32600, Note_on_c, 1, 57, 127
2, 32680, Note_off_c, 1, 57, 0
2, 32680, Note_off_c, 1, 73, 0
2, 32720, Note_on_c, 1, 57, 127
2, 32720, Note_on_c, 1, 73, 127
2, 32760, Note_off_c, 1, 57, 0
2, 32760, Note_off_c, 1, 73, 0
2, 32800, Note_on_c, 1, 61, 127
2, 32800, Note_on_c, 1, 77, 127
2, 32960, Note_on_c, 1, 68, 127
2, 32960, Note_on_c, 1, 76, 127
2, 32960, Note_off_c, 1, 77, 0
2, 33080, Note_off_c, 1, 61, 0
2, 33080, Note_off_c, 1, 68, 0
2, 33080, Note_off_c, 1, 76, 0
2, 33120, Note_on_c, 1, 70, 127
2, 33120, Note_on_c, 1, 73, 127
2, 33120, Note_on_c, 1, 77, 127
2, 33280, Note_on_c, 1, 61, 127
2, 33320, Note_off_c, 1, 61, 0
2, 33360, Note_on_c, 1, 61, 127
2, 33400, Note_off_c, 1, 61, 0
2, 33440, Note_on_c, 1, 61, 127
2, 33440, Note_off_c, 1, 73, 0
2, 33440, Note_off_c, 1, 77, 0
2, 33440, Note_on_c, 1, 89, 127
2, 33560, Note_off_c, 1, 89, 0
2, 33600, Note_on_c, 1, 82, 127
2, 33720, Note_off_c, 1, 70, 0
2, 33720, Note_off_c, 1, 82, 0
2, 33760, Note_on_c, 1, 71, 127
2, 33760, Note_on_c, 1, 80, 127
2, 33880, Note_off_c, 1, 80, 0
2, 33920, Note_on_c, 1, 40, 127
2, 33920, Note_on_c, 1, 52, 127
2, 33920, Note_off_c, 1, 61, 0
2, 33920, Note_on_c, 1, 68, 127
2, 33920, Note_off_c, 1, 71, 0
2, 33920, Note_on_c, 1, 73, 127
2, 33920, Note_on_c, 1, 80, 127
2, 34040, Note_off_c, 1, 40, 0
2, 34040, Note_off_c, 1, 52, 0
2, 34040, Note_on_c, 1, 61, 127
2, 34040, Note_off_c, 1, 68, 0
2, 34040, Note_on_c, 1, 71, 127
2, 34040, Note_off_c, 1, 73, 0
2, 34040, Note_off_c, 1, 80, 0
2, 34240, Note_off_c, 1, 61, 0
2, 34240, Note_on_c, 1, 62, 127
2, 34240, Note_on_c, 1, 68, 127
2, 34240, Note_on_c, 1, 77, 127
2, 34360, Note_off_c, 1, 62, 0
2, 34360, Note_off_c, 1, 77, 0
2, 34400, Note_on_c, 1, 59, 127
2, 34400, Note_on_c, 1, 69, 127
2, 34400, Note_off_c, 1, 71, 0
2, 34520, Note_off_c, 1, 59, 0
2, 34520, Note_off_c, 1, 69, 0
2, 34560, Note_on_c, 1, 62, 127
2, 34560, Note_on_c, 1, 71, 127
2, 34680, Note_off_c, 1, 68, 0
2, 34680, Note_off_c, 1, 71, 0
2, 34720, Note_on_c, 1, 76, 127
2, 34840, Note_on_c, 1, 45, 127
2, 34840, Note_on_c, 1, 57, 127
2, 34840, Note_off_c, 1, 62, 0
2, 34840, Note_on_c, 1, 73, 127
2, 34840, Note_off_c, 1, 76, 0
2, 34840, Note_on_c, 1, 79, 127
2, 34880, Note_off_c, 1, 45, 0
2, 34880, Note_off_c, 1, 57, 0
2, 34880, Note_off_c, 1, 73, 0
2, 34880, Note_off_c, 1, 79, 0
2, 34920, Note_on_c, 1, 35, 127
2, 34920, Note_on_c, 1, 42, 127
2, 34920, Note_on_c, 1, 62, 127
2, 34920, Note_on_c, 1, 66, 127
2, 34960, Note_off_c, 1, 35, 0
2, 34960, Note_off_c, 1, 42, 0
2, 34960, Note_on_c, 1, 55, 127
2, 34960, Note_on_c, 1, 60, 127
2, 34960, Note_off_c, 1, 62, 0
2, 34960, Note_on_c, 1, 63, 127
2, 34960, Note_off_c, 1, 66, 0
2, 34960, Note_on_c, 1, 87, 127
2, 34960, Note_on_c, 1, 89, 127
2, 35000, Note_on_c, 1, 45, 127
2, 35000, Note_on_c, 1, 54, 127
2, 35000, Note_off_c, 1, 55, 0
2, 35000, Note_on_c, 1, 57, 127
2, 35000, Note_off_c, 1, 60, 0
2, 35000, Note_off_c, 1, 63, 0
2, 35000, Note_on_c, 1, 69, 127
2, 35000, Note_on_c, 1, 72, 127
2, 35000, Note_on_c, 1, 75, 127
2, 35000, Note_off_c, 1, 87, 0
2, 35000, Note_off_c, 1, 89, 0
2, 35040, Note_off_c, 1, 54, 0
2, 35040, Note_on_c, 1, 55, 127
2, 35040, Note_off_c, 1, 57, 0
2, 35040, Note_on_c, 1, 63, 127
2, 35040, Note_off_c, 1, 69, 0
2, 35040, Note_off_c, 1, 72, 0
2, 35040, Note_off_c, 1, 75, 0
2, 35080, Note_off_c, 1, 45, 0
2, 35080, Note_on_c, 1, 48, 127
2, 35080, Note_on_c, 1, 50, 127
2, 35080, Note_on_c, 1, 54, 127
2, 35080, Note_off_c, 1, 55, 0
2, 35080, Note_on_c, 1, 60, 127
2, 35080, Note_off_c, 1, 63, 0
2, 35080, Note_on_c, 1, 72, 127
2, 35080, Note_on_c, 1, 74, 127
2, 35080, Note_on_c, 1, 78, 127
2, 35080, Note_on_c, 1, 84, 127
2, 35120, Note_off_c, 1, 48, 0
2, 35120, Note_off_c, 1, 50, 0
2, 35120, Note_on_c, 1, 52, 127
2, 35120, Note_off_c, 1, 60, 0
2, 35120, Note_on_c, 1, 69, 127
2, 35120, Note_off_c, 1, 72, 0
2, 35120, Note_off_c, 1, 74, 0
2, 35120, Note_on_c, 1, 75, 127
2, 35120, Note_off_c, 1, 78, 0
2, 35120, Note_off_c, 1, 84, 0
2, 35160, Note_off_c, 1, 54, 0
2, 35160, Note_on_c, 1, 61, 127
2, 35160, Note_off_c, 1, 69, 0
2, 35160, Note_on_c, 1, 73, 127
2, 35160, Note_off_c, 1, 75, 0
2, 35160, Note_on_c, 1, 76, 127
2, 35200, Note_off_c, 1, 52, 0
2, 35200, Note_on_c, 1, 59, 127
2, 35200, Note_off_c, 1, 61, 0
2, 35200, Note_on_c, 1, 64, 127
2, 35200, Note_on_c, 1, 69, 127
2, 35200, Note_off_c, 1, 73, 0
2, 35200, Note_off_c, 1, 76, 0
2, 35200, Note_on_c, 1, 82, 127
2, 35240, Note_off_c, 1, 69, 0
2, 35240, Note_off_c, 1, 82, 0
2, 35280, Note_on_c, 1, 80, 127
2, 35320, Note_off_c, 1, 80, 0
2, 35360, Note_off_c, 1, 59, 0
2, 35360, Note_on_c, 1, 62, 127
2, 35360, Note_on_c, 1, 67, 127
2, 35360, Note_on_c, 1, 86, 127
2, 35400, Note_off_c, 1, 86, 0
2, 35440, Note_on_c, 1, 37, 127
2, 35440, Note_on_c, 1, 49, 127
2, 35440, Note_off_c, 1, 62, 0
2, 35440, Note_on_c, 1, 66, 127
2, 35440, Note_off_c, 1, 67, 0
2, 35440, Note_on_c, 1, 73, 127
2, 35480, Note_off_c, 1, 37, 0
2, 35480, Note_on_c, 1, 46, 127
2, 35480, Note_off_c, 1, 49, 0
2, 35480, Note_on_c, 1, 52, 127
2, 35480, Note_off_c, 1, 64, 0
2, 35520, Note_off_c, 1, 46, 0
2, 35520, Note_off_c, 1, 52, 0
2, 35520, Note_on_c, 1, 54, 127
2, 35520, Note_on_c, 1, 59, 127
2, 35520, Note_on_c, 1, 62, 127
2, 35520, Note_off_c, 1, 73, 0
2, 35520, Note_on_c, 1, 74, 127
2, 35560, Note_off_c, 1, 54, 0
2, 35560, Note_off_c, 1, 59, 0
2, 35560, Note_on_c, 1, 61, 127
2, 35560, Note_off_c, 1, 62, 0
2, 35560, Note_on_c, 1, 64, 127
2, 35560, Note_on_c, 1, 70, 127
2, 35560, Note_on_c, 1, 73, 127
2, 35560, Note_off_c, 1, 74, 0
2, 35560, Note_on_c, 1, 78, 127
2, 35600, Note_on_c, 1, 47, 127
2, 35600, Note_on_c, 1, 49, 127
2, 35600, Note_on_c, 1, 53, 127
2, 35600, Note_on_c, 1, 56, 127
2, 35600, Note_off_c, 1, 61, 0
2, 35600, Note_off_c, 1, 64, 0
2, 35600, Note_off_c, 1, 66, 0
2, 35600, Note_off_c, 1, 70, 0
2, 35600, Note_off_c, 1, 73, 0
2, 35600, Note_off_c, 1, 78, 0
2, 35600, Note_on_c, 1, 80, 127
2, 35640, Note_off_c, 1, 47, 0
2, 35640, Note_off_c, 1, 49, 0
2, 35640, Note_off_c, 1, 53, 0
2, 35640, Note_off_c, 1, 56, 0
2, 35640, Note_on_c, 1, 59, 127
2, 35640, Note_off_c, 1, 80, 0
2, 35680, Note_on_c, 1, 56, 127
2, 35680, Note_on_c, 1, 64, 127
2, 35680, Note_on_c, 1, 68, 127
2, 35680, Note_on_c, 1, 80, 127
2, 35920, Note_off_c, 1, 56, 0
2, 35920, Note_off_c, 1, 59, 0
2, 35920, Note_off_c, 1, 64, 0
2, 35960, Note_on_c, 1, 58, 127
2, 35960, Note_on_c, 1, 60, 127
2, 35960, Note_on_c, 1, 63, 127
2, 35960, Note_on_c, 1, 67, 127
2, 35960, Note_off_c, 1, 68, 0
2, 35960, Note_on_c, 1, 72, 127
2, 35960, Note_off_c, 1, 80, 0
2, 36000, Note_on_c, 1, 31, 127
2, 36000, Note_on_c, 1, 43, 127
2, 36000, Note_off_c, 1, 58, 0
2, 36000, Note_off_c, 1, 60, 0
2, 36000, Note_off_c, 1, 63, 0
2, 36000, Note_on_c, 1, 66, 127
2, 36000, Note_off_c, 1, 67, 0
2, 36000, Note_off_c, 1, 72, 0
2, 36000, Note_on_c, 1, 78, 127
2, 36040, Note_off_c, 1, 31, 0
2, 36040, Note_off_c, 1, 43, 0
2, 36040, Note_on_c, 1, 53, 127
2, 36040, Note_on_c, 1, 57, 127
2, 36040, Note_on_c, 1, 63, 127
2, 36040, Note_on_c, 1, 65, 127
2, 36040, Note_off_c, 1, 66, 0
2, 36040, Note_off_c, 1, 78, 0
2, 36040, Note_on_c, 1, 79, 127
2, 36080, Note_off_c, 1, 53, 0
2, 36080, Note_on_c, 1, 62, 127
2, 36080, Note_off_c, 1, 63, 0
2, 36080, Note_off_c, 1, 65, 0
2, 36120, Note_off_c, 1, 57, 0
2, 36120, Note_on_c, 1, 61, 127
2, 36120, Note_off_c, 1, 62, 0
2, 36120, Note_on_c, 1, 64, 127
2, 36120, Note_on_c, 1, 66, 127
2, 36120, Note_on_c, 1, 70, 127
2, 36120, Note_on_c, 1, 76, 127
2, 36120, Note_on_c, 1, 78, 127
2, 36120, Note_off_c, 1, 79, 0
2, 36160, Note_on_c, 1, 47, 127
2, 36160, Note_on_c, 1, 58, 127
2, 36160, Note_off_c, 1, 61, 0
2, 36160, Note_off_c, 1, 64, 0
2, 36160, Note_off_c, 1, 66, 0
2, 36160, Note_off_c, 1, 70, 0
2, 36160, Note_off_c, 1, 76, 0
2, 36200, Note_on_c, 1, 40, 127
2, 36200, Note_off_c, 1, 58, 0
2, 36200, Note_on_c, 1, 68, 127
2, 36200, Note_on_c, 1, 71, 127
2, 36200, Note_on_c, 1, 76, 127
2, 36200, Note_off_c, 1, 78, 0
2, 36240, Note_off_c, 1, 40, 0
2, 36240, Note_off_c, 1, 47, 0
2, 36240, Note_on_c, 1, 66, 127
2, 36240, Note_off_c, 1, 68, 0
2, 36240, Note_off_c, 1, 71, 0
2, 36240, Note_on_c, 1, 82, 127
2, 36280, Note_on_c, 1, 40, 127
2, 36280, Note_off_c, 1, 66, 0
2, 36280, Note_on_c, 1, 69, 127
2, 36280, Note_on_c, 1, 75, 127
2, 36280, Note_off_c, 1, 76, 0
2, 36280, Note_on_c, 1, 78, 127
2, 36280, Note_off_c, 1, 82, 0
2, 36280, Note_on_c, 1, 83, 127
2, 36320, Note_on_c, 1, 56, 127
2, 36320, Note_on_c, 1, 80, 127
2, 36360, Note_off_c, 1, 56, 0
2, 36360, Note_off_c, 1, 80, 0
2, 36400, Note_on_c, 1, 56, 127
2, 36400, Note_on_c, 1, 80, 127
2, 36520, Note_off_c, 1, 40, 0
2, 36520, Note_off_c, 1, 56, 0
2, 36520, Note_off_c, 1, 69, 0
2, 36520, Note_off_c, 1, 75, 0
2, 36520, Note_off_c, 1, 78, 0
2, 36520, Note_off_c, 1, 80, 0
2, 36520, Note_off_c, 1, 83, 0
2, 36560, Note_on_c, 1, 40, 127
2, 36560, Note_on_c, 1, 47, 127
2, 36560, Note_on_c, 1, 68, 127
2, 36560, Note_on_c, 1, 71, 127
2, 36560, Note_on_c, 1, 76, 127
2, 36840, Note_off_c, 1, 47, 0
2, 36920, Note_off_c, 1, 40, 0
2, 36920, Note_off_c, 1, 68, 0
2, 36920, Note_off_c, 1, 71, 0
2, 36920, Note_off_c, 1, 76, 0
2, 36960, Note_on_c, 1, 40, 127
2, 36960, Note_on_c, 1, 68, 127
2, 36960, Note_on_c, 1, 71, 127
2, 36960, Note_on_c, 1, 76, 127
2, 37040, Note_off_c, 1, 40, 0
2, 37040, Note_off_c, 1, 68, 0
2, 37040, Note_on_c, 1, 70, 127
2, 37040, Note_off_c, 1, 71, 0
2, 37040, Note_on_c, 1, 72, 127
2, 37040, Note_off_c, 1, 76, 0
2, 37040, Note_on_c, 1, 78, 127
2, 37040, Note_on_c, 1, 87, 127
2, 37040, Note_on_c, 1, 89, 127
2, 37040, Note_on_c, 1, 93, 127
2, 37080, Note_on_c, 1, 57, 127
2, 37080, Note_on_c, 1, 69, 127
2, 37080, Note_off_c, 1, 70, 0
2, 37080, Note_on_c, 1, 77, 127
2, 37080, Note_off_c, 1, 78, 0
2, 37080, Note_off_c, 1, 87, 0
2, 37080, Note_off_c, 1, 89, 0
2, 37080, Note_off_c, 1, 93, 0
2, 37120, Note_off_c, 1, 57, 0
2, 37120, Note_on_c, 1, 58, 127
2, 37120, Note_on_c, 1, 64, 127
2, 37120, Note_off_c, 1, 69, 0
2, 37120, Note_on_c, 1, 70, 127
2, 37120, Note_off_c, 1, 72, 0
2, 37120, Note_on_c, 1, 74, 127
2, 37120, Note_off_c, 1, 77, 0
2, 37160, Note_on_c, 1, 47, 127
2, 37160, Note_off_c, 1, 58, 0
2, 37160, Note_off_c, 1, 74, 0
2, 37160, Note_on_c, 1, 78, 127
2, 37200, Note_off_c, 1, 47, 0
2, 37200, Note_on_c, 1, 61, 127
2, 37200, Note_off_c, 1, 64, 0
2, 37200, Note_on_c, 1, 66, 127
2, 37200, Note_on_c, 1, 69, 127
2, 37200, Note_off_c, 1, 70, 0
2, 37200, Note_on_c, 1, 73, 127
2, 37200, Note_off_c, 1, 78, 0
2, 37200, Note_on_c, 1, 81, 127
2, 37240, Note_on_c, 1, 46, 127
2, 37240, Note_on_c, 1, 58, 127
2, 37240, Note_off_c, 1, 61, 0
2, 37240, Note_off_c, 1, 66, 0
2, 37240, Note_off_c, 1, 69, 0
2, 37240, Note_off_c, 1, 73, 0
2, 37240, Note_off_c, 1, 81, 0
2, 37240, Note_on_c, 1, 83, 127
2, 37240, Note_on_c, 1, 88, 127
2, 37240, Note_on_c, 1, 95, 127
2, 37280, Note_on_c, 1, 38, 127
2, 37280, Note_on_c, 1, 45, 127
2, 37280, Note_off_c, 1, 46, 0
2, 37280, Note_off_c, 1, 58, 0
2, 37280, Note_off_c, 1, 83, 0
2, 37280, Note_off_c, 1, 88, 0
2, 37280, Note_on_c, 1, 90, 127
2, 37280, Note_off_c, 1, 95, 0
2, 37320, Note_off_c, 1, 38, 0
2, 37320, Note_on_c, 1, 42, 127
2, 37320, Note_off_c, 1, 45, 0
2, 37320, Note_on_c, 1, 50, 127
2, 37320, Note_on_c, 1, 62, 127
2, 37320, Note_on_c, 1, 66, 127
2, 37320, Note_on_c, 1, 69, 127
2, 37320, Note_on_c, 1, 74, 127
2, 37320, Note_on_c, 1, 81, 127
2, 37320, Note_off_c, 1, 90, 0
2, 37360, Note_off_c, 1, 42, 0
2, 37360, Note_off_c, 1, 50, 0
2, 37360, Note_on_c, 1, 54, 127
2, 37360, Note_on_c, 1, 60, 127
2, 37360, Note_off_c, 1, 62, 0
2, 37360, Note_off_c, 1, 74, 0
2, 37360, Note_on_c, 1, 78, 127
2, 37360, Note_off_c, 1, 81, 0
2, 37400, Note_off_c, 1, 54, 0
2, 37400, Note_on_c, 1, 57, 127
2, 37400, Note_off_c, 1, 60, 0
2, 37400, Note_on_c, 1, 63, 127
2, 37400, Note_on_c, 1, 65, 127
2, 37400, Note_off_c, 1, 66, 0
2, 37400, Note_off_c, 1, 69, 0
2, 37400, Note_on_c, 1, 72, 127
2, 37400, Note_on_c, 1, 75, 127
2, 37400, Note_on_c, 1, 77, 127
2, 37400, Note_off_c, 1, 78, 0
2, 37400, Note_on_c, 1, 81, 127
2, 37400, Note_on_c, 1, 84, 127
2, 37440, Note_on_c, 1, 28, 127
2, 37440, Note_on_c, 1, 37, 127
2, 37440, Note_on_c, 1, 49, 127
2, 37440, Note_on_c, 1, 52, 127
2, 37440, Note_off_c, 1, 57, 0
2, 37440, Note_on_c, 1, 58, 127
2, 37440, Note_off_c, 1, 63, 0
2, 37440, Note_off_c, 1, 65, 0
2, 37440, Note_off_c, 1, 72, 0
2, 37440, Note_off_c, 1, 75, 0
2, 37440, Note_off_c, 1, 77, 0
2, 37440, Note_off_c, 1, 81, 0
2, 37440, Note_off_c, 1, 84, 0
2, 37480, Note_off_c, 1, 28, 0
2, 37480, Note_off_c, 1, 37, 0
2, 37480, Note_off_c, 1, 49, 0
2, 37480, Note_off_c, 1, 52, 0
2, 37480, Note_on_c, 1, 54, 127
2, 37480, Note_off_c, 1, 58, 0
2, 37480, Note_on_c, 1, 59, 127
2, 37480, Note_on_c, 1, 62, 127
2, 37480, Note_on_c, 1, 71, 127
2, 37480, Note_on_c, 1, 78, 127
2, 37520, Note_on_c, 1, 33, 127
2, 37520, Note_on_c, 1, 41, 127
2, 37520, Note_on_c, 1, 45, 127
2, 37520, Note_on_c, 1, 53, 127
2, 37520, Note_off_c, 1, 54, 0
2, 37520, Note_off_c, 1, 59, 0
2, 37520, Note_on_c, 1, 60, 127
2, 37520, Note_off_c, 1, 62, 0
2, 37520, Note_on_c, 1, 63, 127
2, 37520, Note_on_c, 1, 65, 127
2, 37520, Note_off_c, 1, 71, 0
2, 37520, Note_off_c, 1, 78, 0
2, 37800, Note_off_c, 1, 33, 0
2, 37800, Note_off_c, 1, 41, 0
2, 37800, Note_off_c, 1, 45, 0
2, 37800, Note_off_c, 1, 53, 0
2, 37800, Note_off_c, 1, 60, 0
2, 37800, Note_off_c, 1, 63, 0
2, 37800, Note_off_c, 1, 65, 0
2, 37840, Note_on_c, 1, 49, 127
2, 37840, Note_on_c, 1, 58, 127
2, 37840, Note_on_c, 1, 73, 127
2, 38120, Note_off_c, 1, 73, 0
2, 38160, Note_on_c, 1, 66, 127
2, 38720, Note_off_c, 1, 58, 0
2, 38720, Note_on_c, 1, 65, 127
2, 38720, Note_off_c, 1, 66, 0
2, 38760, Note_on_c, 1, 56, 127
2, 38760, Note_off_c, 1, 65, 0
2, 38760, Note_on_c, 1, 66, 127
2, 39080, Note_off_c, 1, 49, 0
2, 39080, Note_off_c, 1, 56, 0
2, 39080, Note_off_c, 1, 66, 0
2, 39120, Note_on_c, 1, 49, 127
2, 39120, Note_on_c, 1, 56, 127
2, 39120, Note_on_c, 1, 66, 127
2, 39200, Note_off_c, 1, 66, 0
2, 39240, Note_on_c, 1, 66, 127
2, 39520, Note_off_c, 1, 66, 0
2, 39560, Note_on_c, 1, 65, 127
2, 39680, Note_off_c, 1, 56, 0
2, 39720, Note_on_c, 1, 56, 127
2, 39720, Note_on_c, 1, 71, 127
2, 40280, Note_off_c, 1, 71, 0
2, 40320, Note_off_c, 1, 56, 0
2, 40320, Note_on_c, 1, 58, 127
2, 40320, Note_off_c, 1, 65, 0
2, 40320, Note_on_c, 1, 67, 127
2, 40320, Note_on_c, 1, 77, 127
2, 40560, Note_on_c, 1, 57, 127
2, 40560, Note_off_c, 1, 58, 0
2, 40560, Note_off_c, 1, 77, 0
2, 40600, Note_off_c, 1, 57, 0
2, 40600, Note_on_c, 1, 58, 127
2, 40600, Note_on_c, 1, 73, 127
2, 40880, Note_off_c, 1, 49, 0
2, 40880, Note_off_c, 1, 58, 0
2, 40880, Note_off_c, 1, 67, 0
2, 40880, Note_on_c, 1, 68, 127
2, 40880, Note_off_c, 1, 73, 0
2, 40920, Note_on_c, 1, 52, 127
2, 40920, Note_on_c, 1, 54, 127
2, 40920, Note_on_c, 1, 57, 127
2, 40920, Note_on_c, 1, 59, 127
2, 40920, Note_on_c, 1, 63, 127
2, 40920, Note_off_c, 1, 68, 0
2, 40920, Note_on_c, 1, 87, 127
2, 40960, Note_off_c, 1, 52, 0
2, 40960, Note_off_c, 1, 57, 0
2, 40960, Note_on_c, 1, 58, 127
2, 40960, Note_off_c, 1, 59, 0
2, 40960, Note_on_c, 1, 61, 127
2, 40960, Note_off_c, 1, 87, 0
2, 40960, Note_on_c, 1, 90, 127
2, 41000, Note_on_c, 1, 52, 127
2, 41000, Note_off_c, 1, 54, 0
2, 41000, Note_off_c, 1, 58, 0
2, 41000, Note_off_c, 1, 61, 0
2, 41000, Note_off_c, 1, 63, 0
2, 41000, Note_on_c, 1, 76, 127
2, 41000, Note_on_c, 1, 80, 127
2, 41000, Note_on_c, 1, 85, 127
2, 41000, Note_off_c, 1, 90, 0
2, 41040, Note_off_c, 1, 52, 0
2, 41040, Note_on_c, 1, 54, 127
2, 41040, Note_on_c, 1, 59, 127
2, 41040, Note_on_c, 1, 62, 127
2, 41040, Note_on_c, 1, 70, 127
2, 41040, Note_on_c, 1, 71, 127
2, 41040, Note_on_c, 1, 74, 127
2, 41040, Note_off_c, 1, 76, 0
2, 41040, Note_on_c, 1, 77, 127
2, 41040, Note_off_c, 1, 80, 0
2, 41040, Note_on_c, 1, 82, 127
2, 41040, Note_off_c, 1, 85, 0
2, 41080, Note_off_c, 1, 54, 0
2, 41080, Note_on_c, 1, 57, 127
2, 41080, Note_off_c, 1, 59, 0
2, 41080, Note_off_c, 1, 70, 0
2, 41080, Note_off_c, 1, 71, 0
2, 41080, Note_off_c, 1, 74, 0
2, 41080, Note_on_c, 1, 75, 127
2, 41080, Note_off_c, 1, 77, 0
2, 41080, Note_on_c, 1, 87, 127
2, 41120, Note_off_c, 1, 57, 0
2, 41120, Note_off_c, 1, 62, 0
2, 41120, Note_off_c, 1, 75, 0
2, 41120, Note_off_c, 1, 82, 0
2, 41120, Note_off_c, 1, 87, 0
2, 41160, Note_on_c, 1, 60, 127
2, 41160, Note_on_c, 1, 66, 127
2, 41160, Note_on_c, 1, 68, 127
2, 41160, Note_on_c, 1, 75, 127
2, 41160, Note_on_c, 1, 87, 127
2, 41200, Note_off_c, 1, 60, 0
2, 41200, Note_off_c, 1, 66, 0
2, 41200, Note_off_c, 1, 68, 0
2, 41200, Note_on_c, 1, 72, 127
2, 41200, Note_on_c, 1, 73, 127
2, 41200, Note_on_c, 1, 77, 127
2, 41200, Note_on_c, 1, 78, 127
2, 41200, Note_on_c, 1, 80, 127
2, 41200, Note_off_c, 1, 87, 0
2, 41240, Note_on_c, 1, 51, 127
2, 41240, Note_on_c, 1, 56, 127
2, 41240, Note_on_c, 1, 58, 127
2, 41240, Note_on_c, 1, 61, 127
2, 41240, Note_on_c, 1, 70, 127
2, 41240, Note_off_c, 1, 72, 0
2, 41240, Note_off_c, 1, 73, 0
2, 41240, Note_off_c, 1, 75, 0
2, 41240, Note_off_c, 1, 77, 0
2, 41240, Note_off_c, 1, 78, 0
2, 41240, Note_off_c, 1, 80, 0
2, 41360, Note_off_c, 1, 51, 0
2, 41360, Note_off_c, 1, 56, 0
2, 41360, Note_off_c, 1, 58, 0
2, 41360, Note_on_c, 1, 59, 127
2, 41360, Note_off_c, 1, 61, 0
2, 41360, Note_on_c, 1, 62, 127
2, 41360, Note_on_c, 1, 65, 127
2, 41360, Note_on_c, 1, 68, 127
2, 41360, Note_off_c, 1, 70, 0
2, 41360, Note_on_c, 1, 71, 127
2, 41400, Note_on_c, 1, 52, 127
2, 41400, Note_off_c, 1, 59, 0
2, 41400, Note_on_c, 1, 61, 127
2, 41400, Note_off_c, 1, 62, 0
2, 41400, Note_off_c, 1, 65, 0
2, 41400, Note_off_c, 1, 71, 0
2, 41400, Note_on_c, 1, 73, 127
2, 41400, Note_on_c, 1, 76, 127
2, 41520, Note_on_c, 1, 34, 127
2, 41520, Note_on_c, 1, 41, 127
2, 41520, Note_on_c, 1, 46, 127
2, 41520, Note_off_c, 1, 52, 0
2, 41520, Note_off_c, 1, 61, 0
2, 41520, Note_off_c, 1, 68, 0
2, 41520, Note_off_c, 1, 73, 0
2, 41520, Note_off_c, 1, 76, 0
2, 41560, Note_off_c, 1, 34, 0
2, 41560, Note_off_c, 1, 41, 0
2, 41560, Note_off_c, 1, 46, 0
2, 41560, Note_on_c, 1, 59, 127
2, 41560, Note_on_c, 1, 62, 127
2, 41560, Note_on_c, 1, 65, 127
2, 41560, Note_on_c, 1, 68, 127
2, 41560, Note_on_c, 1, 71, 127
2, 41560, Note_on_c, 1, 74, 127
2, 41560, Note_on_c, 1, 77, 127
2, 41560, Note_on_c, 1, 80, 127
2, 41560, Note_on_c, 1, 86, 127
2, 42120, Note_off_c, 1, 59, 0
2, 42120, Note_off_c, 1, 62, 0
2, 42120, Note_off_c, 1, 65, 0
2, 42120, Note_off_c, 1, 68, 0
2, 42120, Note_off_c, 1, 71, 0
2, 42120, Note_off_c, 1, 74, 0
2, 42120, Note_off_c, 1, 77, 0
2, 42120, Note_off_c, 1, 80, 0
2, 42120, Note_off_c, 1, 86, 0
2, 42160, Note_on_c, 1, 49, 127
2, 42160, Note_on_c, 1, 56, 127
2, 42160, Note_on_c, 1, 59, 127
2, 42160, Note_on_c, 1, 61, 127
2, 42160, Note_on_c, 1, 65, 127
2, 43160, Note_off_c, 1, 61, 0
2, 43160, Note_off_c, 1, 65, 0
2, 43200, Note_on_c, 1, 61, 127
2, 43200, Note_on_c, 1, 65, 127
2, 43280, Note_off_c, 1, 49, 0
2, 43280, Note_off_c, 1, 56, 0
2, 43280, Note_off_c, 1, 59, 0
2, 43280, Note_off_c, 1, 61, 0
2, 43280, Note_off_c, 1, 65, 0
2, 43320, Note_on_c, 1, 49, 127
2, 43320, Note_on_c, 1, 56, 127
2, 43320, Note_on_c, 1, 59, 127
2, 43320, Note_on_c, 1, 61, 127
2, 43320, Note_on_c, 1, 65, 127
2, 43360, Note_off_c, 1, 61, 0
2, 43360, Note_off_c, 1, 65, 0
2, 43400, Note_off_c, 1, 49, 0
2, 43400, Note_on_c, 1, 55, 127
2, 43400, Note_off_c, 1, 56, 0
2, 43400, Note_off_c, 1, 59, 0
2, 43400, Note_on_c, 1, 60, 127
2, 43400, Note_on_c, 1, 88, 127
2, 43400, Note_on_c, 1, 91, 127
2, 43400, Note_on_c, 1, 96, 127
2, 43440, Note_off_c, 1, 55, 0
2, 43440, Note_off_c, 1, 60, 0
2, 43440, Note_on_c, 1, 68, 127
2, 43440, Note_on_c, 1, 71, 127
2, 43440, Note_on_c, 1, 85, 127
2, 43440, Note_off_c, 1, 88, 0
2, 43440, Note_off_c, 1, 91, 0
2, 43440, Note_off_c, 1, 96, 0
2, 43440, Note_on_c, 1, 97, 127
2, 43480, Note_off_c, 1, 68, 0
2, 43480, Note_off_c, 1, 71, 0
2, 43480, Note_off_c, 1, 85, 0
2, 43480, Note_off_c, 1, 97, 0
2, 43520, Note_on_c, 1, 40, 127
2, 43520, Note_on_c, 1, 46, 127
2, 43520, Note_on_c, 1, 61, 127
2, 43520, Note_on_c, 1, 67, 127
2, 43520, Note_on_c, 1, 70, 127
2, 43640, Note_off_c, 1, 40, 0
2, 43640, Note_off_c, 1, 46, 0
2, 43680, Note_on_c, 1, 40, 127
2, 43680, Note_on_c, 1, 46, 127
2, 43800, Note_off_c, 1, 40, 0
2, 43800, Note_off_c, 1, 46, 0
2, 43840, Note_on_c, 1, 49, 127
2, 43840, Note_on_c, 1, 66, 127
2, 43840, Note_off_c, 1, 67, 0
2, 43840, Note_on_c, 1, 69, 127
2, 43840, Note_off_c, 1, 70, 0
2, 44080, Note_off_c, 1, 66, 0
2, 44080, Note_off_c, 1, 69, 0
2, 44120, Note_on_c, 1, 47, 127
2, 44120, Note_off_c, 1, 49, 0
2, 44120, Note_on_c, 1, 52, 127
2, 44120, Note_on_c, 1, 56, 127
2, 44120, Note_off_c, 1, 61, 0
2, 44120, Note_on_c, 1, 62, 127
2, 44120, Note_on_c, 1, 64, 127
2, 44120, Note_on_c, 1, 68, 127
2, 44120, Note_on_c, 1, 74, 127
2, 44400, Note_off_c, 1, 47, 0
2, 44400, Note_off_c, 1, 52, 0
2, 44400, Note_off_c, 1, 56, 0
2, 44400, Note_off_c, 1, 62, 0
2, 44400, Note_off_c, 1, 64, 0
2, 44400, Note_off_c, 1, 68, 0
2, 44400, Note_off_c, 1, 74, 0
2, 44440, Note_on_c, 1, 47, 127
2, 44440, Note_on_c, 1, 52, 127
2, 44440, Note_on_c, 1, 56, 127
2, 44440, Note_on_c, 1, 62, 127
2, 44440, Note_on_c, 1, 64, 127
2, 44440, Note_on_c, 1, 68, 127
2, 44440, Note_on_c, 1, 74, 127
2, 45000, Note_off_c, 1, 47, 0
2, 45000, Note_off_c, 1, 52, 0
2, 45000, Note_off_c, 1, 56, 0
2, 45000, Note_off_c, 1, 62, 0
2, 45000, Note_off_c, 1, 64, 0
2, 45000, Note_off_c, 1, 68, 0
2, 45000, Note_off_c, 1, 74, 0
2, 45040, Note_on_c, 1, 45, 127
2, 45040, Note_on_c, 1, 52, 127
2, 45040, Note_on_c, 1, 57, 127
2, 45040, Note_on_c, 1, 61, 127
2, 45040, Note_on_c, 1, 64, 127
2, 45040, Note_on_c, 1, 69, 127
2, 45040, Note_on_c, 1, 73, 127
2, 45360, Note_off_c, 1, 45, 0
2, 45360, Note_off_c, 1, 52, 0
2, 45360, Note_off_c, 1, 57, 0
2, 45360, Note_off_c, 1, 61, 0
2, 45360, Note_off_c, 1, 64, 0
2, 45360, Note_off_c, 1, 69, 0
2, 45360, Note_off_c, 1, 73, 0
2, 45400, Note_on_c, 1, 45, 127
2, 45400, Note_on_c, 1, 52, 127
2, 45400, Note_on_c, 1, 57, 127
2, 45400, Note_on_c, 1, 61, 127
2, 45400, Note_on_c, 1, 64, 127
2, 45400, Note_on_c, 1, 69, 127
2, 45400, Note_on_c, 1, 73, 127
2, 45800, Note_off_c, 1, 45, 0
2, 45800, Note_off_c, 1, 52, 0
2, 45800, Note_off_c, 1, 57, 0
2, 45800, Note_off_c, 1, 61, 0
2, 45800, Note_off_c, 1, 64, 0
2, 45800, Note_off_c, 1, 69, 0
2, 45800, Note_off_c, 1, 73, 0
2, 45840, Note_on_c, 1, 39, 127
2, 45840, Note_on_c, 1, 51, 127
2, 45840, Note_on_c, 1, 59, 127
2, 45840, Note_on_c, 1, 66, 127
2, 45840, Note_on_c, 1, 69, 127
2, 47640, Note_off_c, 1, 39, 0
2, 47640, Note_off_c, 1, 51, 0
2, 47640, Note_off_c, 1, 59, 0
2, 47640, Note_off_c, 1, 66, 0
2, 47640, Note_off_c, 1, 69, 0
2, 47680, Note_on_c, 1, 39, 127
2, 47680, Note_on_c, 1, 51, 127
2, 47680, Note_on_c, 1, 59, 127
2, 47680, Note_on_c, 1, 66, 127
2, 47680, Note_on_c, 1, 69, 127
2, 49680, Note_off_c, 1, 39, 0
2, 49680, Note_off_c, 1, 51, 0
2, 49680, Note_off_c, 1, 59, 0
2, 49680, Note_off_c, 1, 66, 0
2, 49680, Note_off_c, 1, 69, 0
2, 49720, Note_on_c, 1, 39, 127
2, 49720, Note_on_c, 1, 51, 127
2, 49720, Note_on_c, 1, 59, 127
2, 49720, Note_on_c, 1, 66, 127
2, 49720, Note_on_c, 1, 69, 127
2, 49960, Note_off_c, 1, 39, 0
2, 49960, Note_off_c, 1, 51, 0
2, 49960, Note_off_c, 1, 59, 0
2, 49960, Note_off_c, 1, 66, 0
2, 49960, Note_off_c, 1, 69, 0
2, 50000, Note_on_c, 1, 56, 127
2, 50000, Note_on_c, 1, 68, 127
2, 50000, Note_on_c, 1, 76, 127
2, 50000, Note_on_c, 1, 83, 127
2, 50000, Note_on_c, 1, 88, 127
2, 50520, Note_off_c, 1, 56, 0
2, 50520, Note_off_c, 1, 68, 0
2, 50520, Note_off_c, 1, 76, 0
2, 50520, Note_off_c, 1, 83, 0
2, 50520, Note_off_c, 1, 88, 0
2, 50560, Note_on_c, 1, 32, 127
2, 50560, Note_on_c, 1, 44, 127
2, 50560, Note_on_c, 1, 51, 127
2, 50560, Note_on_c, 1, 59, 127
2, 50560, Note_on_c, 1, 63, 127
2, 51080, Note_off_c, 1, 32, 0
2, 51080, Note_off_c, 1, 44, 0
2, 51080, Note_off_c, 1, 51, 0
2, 51080, Note_off_c, 1, 59, 0
2, 51080, Note_off_c, 1, 63, 0
2, 51120, Note_on_c, 1, 57, 127
2, 51120, Note_on_c, 1, 60, 127
2, 51120, Note_on_c, 1, 62, 127
2, 51120, Note_on_c, 1, 64, 127
2, 51120, Note_on_c, 1, 67, 127
2, 51120, Note_on_c, 1, 72, 127
2, 51120, Note_on_c, 1, 74, 127
2, 51120, Note_on_c, 1, 79, 127
2, 51160, Note_on_c, 1, 46, 127
2, 51160, Note_off_c, 1, 57, 0
2, 51160, Note_on_c, 1, 61, 127
2, 51160, Note_off_c, 1, 62, 0
2, 51160, Note_off_c, 1, 64, 0
2, 51160, Note_off_c, 1, 67, 0
2, 51160, Note_off_c, 1, 72, 0
2, 51160, Note_on_c, 1, 73, 127
2, 51160, Note_off_c, 1, 74, 0
2, 51160, Note_off_c, 1, 79, 0
2, 51200, Note_off_c, 1, 46, 0
2, 51200, Note_on_c, 1, 57, 127
2, 51200, Note_off_c, 1, 61, 0
2, 51200, Note_on_c, 1, 62, 127
2, 51200, Note_on_c, 1, 64, 127
2, 51200, Note_on_c, 1, 67, 127
2, 51200, Note_on_c, 1, 72, 127
2, 51200, Note_off_c, 1, 73, 0
2, 51200, Note_on_c, 1, 74, 127
2, 51200, Note_on_c, 1, 79, 127
2, 51240, Note_on_c, 1, 37, 127
2, 51240, Note_on_c, 1, 49, 127
2, 51240, Note_off_c, 1, 57, 0
2, 51240, Note_off_c, 1, 60, 0
2, 51240, Note_on_c, 1, 61, 127
2, 51240, Note_off_c, 1, 62, 0
2, 51240, Note_off_c, 1, 64, 0
2, 51240, Note_on_c, 1, 66, 127
2, 51240, Note_off_c, 1, 67, 0
2, 51240, Note_off_c, 1, 72, 0
2, 51240, Note_on_c, 1, 73, 127
2, 51240, Note_off_c, 1, 74, 0
2, 51240, Note_off_c, 1, 79, 0
2, 51280, Note_off_c, 1, 37, 0
2, 51280, Note_on_c, 1, 39, 127
2, 51280, Note_off_c, 1, 49, 0
2, 51280, Note_off_c, 1, 61, 0
2, 51280, Note_off_c, 1, 66, 0
2, 51280, Note_on_c, 1, 85, 127
2, 51320, Note_off_c, 1, 39, 0
2, 51320, Note_on_c, 1, 41, 127
2, 51320, Note_on_c, 1, 53, 127
2, 51320, Note_on_c, 1, 70, 127
2, 51320, Note_on_c, 1, 77, 127
2, 51320, Note_on_c, 1, 82, 127
2, 51320, Note_off_c, 1, 85, 0
2, 51360, Note_off_c, 1, 41, 0
2, 51360, Note_off_c, 1, 53, 0
2, 51360, Note_on_c, 1, 61, 127
2, 51360, Note_on_c, 1, 64, 127
2, 51360, Note_on_c, 1, 69, 127
2, 51360, Note_off_c, 1, 70, 0
2, 51360, Note_off_c, 1, 77, 0
2, 51360, Note_on_c, 1, 81, 127
2, 51360, Note_off_c, 1, 82, 0
2, 51360, Note_on_c, 1, 85, 127
2, 51400, Note_off_c, 1, 61, 0
2, 51400, Note_off_c, 1, 64, 0
2, 51400, Note_off_c, 1, 69, 0
2, 51400, Note_off_c, 1, 73, 0
2, 51400, Note_off_c, 1, 81, 0
2, 51400, Note_off_c, 1, 85, 0
2, 51480, Note_on_c, 1, 45, 127
2, 51480, Note_on_c, 1, 57, 127
2, 51480, Note_on_c, 1, 73, 127
2, 51480, Note_on_c, 1, 81, 127
2, 51480, Note_on_c, 1, 85, 127
2, 51720, Note_off_c, 1, 45, 0
2, 51720, Note_off_c, 1, 57, 0
2, 51720, Note_off_c, 1, 73, 0
2, 51720, Note_off_c, 1, 81, 0
2, 51720, Note_off_c, 1, 85, 0
2, 51760, Note_on_c, 1, 47, 127
2, 51760, Note_on_c, 1, 57, 127
2, 51760, Note_on_c, 1, 59, 127
2, 51760, Note_on_c, 1, 74, 127
2, 51760, Note_on_c, 1, 81, 127
2, 51760, Note_on_c, 1, 86, 127
2, 52000, Note_off_c, 1, 47, 0
2, 52000, Note_off_c, 1, 57, 0
2, 52000, Note_off_c, 1, 59, 0
2, 52000, Note_off_c, 1, 74, 0
2, 52000, Note_off_c, 1, 81, 0
2, 52000, Note_off_c, 1, 86, 0
2, 52040, Note_on_c, 1, 49, 127
2, 52040, Note_on_c, 1, 57, 127
2, 52040, Note_on_c, 1, 61, 127
2, 52040, Note_on_c, 1, 76, 127
2, 52040, Note_on_c, 1, 81, 127
2, 52040, Note_on_c, 1, 88, 127
2, 52320, Note_off_c, 1, 49, 0
2, 52320, Note_off_c, 1, 57, 0
2, 52320, Note_off_c, 1, 61, 0
2, 52320, Note_off_c, 1, 76, 0
2, 52320, Note_off_c, 1, 81, 0
2, 52320, Note_off_c, 1, 88, 0
2, 52360, Note_on_c, 1, 50, 127
2, 52360, Note_on_c, 1, 57, 127
2, 52360, Note_on_c, 1, 62, 127
2, 52360, Note_on_c, 1, 77, 127
2, 52360, Note_on_c, 1, 81, 127
2, 52360, Note_on_c, 1, 89, 127
2, 53360, Note_on_c, 1, 31, 127
2, 53360, Note_on_c, 1, 43, 127
2, 53360, Note_off_c, 1, 57, 0
2, 53360, Note_on_c, 1, 71, 127
2, 53360, Note_off_c, 1, 77, 0
2, 53360, Note_off_c, 1, 81, 0
2, 53360, Note_on_c, 1, 83, 127
2, 53360, Note_off_c, 1, 89, 0
2, 53400, Note_off_c, 1, 31, 0
2, 53400, Note_off_c, 1, 43, 0
2, 53400, Note_off_c, 1, 50, 0
2, 53400, Note_off_c, 1, 62, 0
2, 53400, Note_off_c, 1, 71, 0
2, 53400, Note_off_c, 1, 83, 0
2, 53440, Note_on_c, 1, 43, 127
2, 53440, Note_on_c, 1, 57, 127
2, 53440, Note_on_c, 1, 62, 127
2, 53480, Note_on_c, 1, 30, 127
2, 53480, Note_on_c, 1, 37, 127
2, 53480, Note_off_c, 1, 43, 0
2, 53480, Note_off_c, 1, 57, 0
2, 53480, Note_off_c, 1, 62, 0
2, 53480, Note_on_c, 1, 74, 127
2, 53520, Note_off_c, 1, 30, 0
2, 53520, Note_off_c, 1, 37, 0
2, 53520, Note_off_c, 1, 74, 0
2, 53560, Note_on_c, 1, 34, 127
2, 53560, Note_on_c, 1, 46, 127
2, 53560, Note_on_c, 1, 67, 127
2, 53560, Note_on_c, 1, 79, 127
2, 53800, Note_off_c, 1, 79, 0
2, 53840, Note_on_c, 1, 62, 127
2, 53840, Note_on_c, 1, 74, 127
2, 54120, Note_off_c, 1, 34, 0
2, 54120, Note_off_c, 1, 46, 0
2, 54120, Note_off_c, 1, 62, 0
2, 54120, Note_off_c, 1, 74, 0
2, 54160, Note_on_c, 1, 46, 127
2, 54160, Note_on_c, 1, 58, 127
2, 54160, Note_on_c, 1, 60, 127
2, 54160, Note_on_c, 1, 72, 127
2, 54440, Note_off_c, 1, 46, 0
2, 54440, Note_off_c, 1, 58, 0
2, 54480, Note_on_c, 1, 46, 127
2, 54480, Note_on_c, 1, 58, 127
2, 54720, Note_off_c, 1, 46, 0
2, 54720, Note_off_c, 1, 58, 0
2, 54720, Note_off_c, 1, 60, 0
2, 54720, Note_off_c, 1, 72, 0
2, 54760, Note_on_c, 1, 42, 127
2, 54760, Note_on_c, 1, 46, 127
2, 54760, Note_on_c, 1, 47, 127
2, 54760, Note_on_c, 1, 59, 127
2, 54760, Note_on_c, 1, 66, 127
2, 54760, Note_off_c, 1, 67, 0
2, 54760, Note_on_c, 1, 70, 127
2, 54920, Note_off_c, 1, 42, 0
2, 54920, Note_off_c, 1, 46, 0
2, 54920, Note_on_c, 1, 56, 127
2, 54920, Note_off_c, 1, 59, 0
2, 54920, Note_off_c, 1, 66, 0
2, 54920, Note_off_c, 1, 70, 0
2, 54920, Note_on_c, 1, 78, 127
2, 54920, Note_on_c, 1, 80, 127
2, 54960, Note_on_c, 1, 42, 127
2, 54960, Note_on_c, 1, 46, 127
2, 54960, Note_off_c, 1, 56, 0
2, 54960, Note_on_c, 1, 59, 127
2, 54960, Note_on_c, 1, 66, 127
2, 54960, Note_on_c, 1, 70, 127
2, 54960, Note_off_c, 1, 78, 0
2, 54960, Note_off_c, 1, 80, 0
2, 55000, Note_on_c, 1, 36, 127
2, 55000, Note_off_c, 1, 42, 0
2, 55000, Note_off_c, 1, 46, 0
2, 55000, Note_off_c, 1, 47, 0
2, 55000, Note_on_c, 1, 50, 127
2, 55000, Note_off_c, 1, 59, 0
2, 55000, Note_off_c, 1, 66, 0
2, 55000, Note_on_c, 1, 67, 127
2, 55000, Note_off_c, 1, 70, 0
2, 55000, Note_on_c, 1, 77, 127
2, 55000, Note_on_c, 1, 79, 127
2, 55040, Note_off_c, 1, 36, 0
2, 55040, Note_off_c, 1, 50, 0
2, 55040, Note_off_c, 1, 67, 0
2, 55040, Note_off_c, 1, 77, 0
2, 55040, Note_off_c, 1, 79, 0
2, 55080, Note_on_c, 1, 40, 127
2, 55080, Note_on_c, 1, 52, 127
2, 55080, Note_on_c, 1, 74, 127
2, 55080, Note_on_c, 1, 80, 127
2, 55080, Note_on_c, 1, 86, 127
2, 55480, Note_off_c, 1, 40, 0
2, 55480, Note_off_c, 1, 52, 0
2, 55480, Note_off_c, 1, 74, 0
2, 55480, Note_off_c, 1, 80, 0
2, 55480, Note_off_c, 1, 86, 0
2, 55520, Note_on_c, 1, 40, 127
2, 55520, Note_on_c, 1, 52, 127
2, 55520, Note_on_c, 1, 74, 127
2, 55520, Note_on_c, 1, 80, 127
2, 55520, Note_on_c, 1, 86, 127
2, 55640, Note_off_c, 1, 40, 0
2, 55640, Note_off_c, 1, 52, 0
2, 55640, Note_off_c, 1, 74, 0
2, 55640, Note_off_c, 1, 80, 0
2, 55640, Note_off_c, 1, 86, 0
2, 55720, Note_on_c, 1, 43, 127
2, 55720, Note_on_c, 1, 48, 127
2, 55720, Note_on_c, 1, 64, 127
2, 55720, Note_on_c, 1, 67, 127
2, 55720, Note_on_c, 1, 76, 127
2, 56120, Note_off_c, 1, 48, 0
2, 56160, Note_on_c, 1, 55, 127
2, 56240, Note_off_c, 1, 43, 0
2, 56240, Note_off_c, 1, 55, 0
2, 56240, Note_off_c, 1, 64, 0
2, 56240, Note_off_c, 1, 67, 0
2, 56240, Note_off_c, 1, 76, 0
2, 56280, Note_on_c, 1, 43, 127
2, 56280, Note_on_c, 1, 48, 127
2, 56280, Note_on_c, 1, 64, 127
2, 56280, Note_on_c, 1, 67, 127
2, 56280, Note_on_c, 1, 76, 127
2, 56400, Note_off_c, 1, 48, 0
2, 56440, Note_on_c, 1, 48, 127
2, 56560, Note_on_c, 1, 39, 127
2, 56560, Note_off_c, 1, 43, 0
2, 56560, Note_off_c, 1, 48, 0
2, 56560, Note_on_c, 1, 51, 127
2, 56560, Note_off_c, 1, 64, 0
2, 56560, Note_off_c, 1, 67, 0
2, 56560, Note_off_c, 1, 76, 0
2, 56600, Note_on_c, 1, 82, 127
2, 56840, Note_off_c, 1, 39, 0
2, 56840, Note_off_c, 1, 51, 0
2, 56840, Note_off_c, 1, 82, 0
2, 56880, Note_on_c, 1, 61, 127
2, 56880, Note_on_c, 1, 76, 127
2, 56880, Note_on_c, 1, 82, 127
2, 56880, Note_on_c, 1, 88, 127
2, 57080, Note_on_c, 1, 57, 127
2, 57080, Note_off_c, 1, 61, 0
2, 57080, Note_on_c, 1, 62, 127
2, 57080, Note_on_c, 1, 65, 127
2, 57080, Note_on_c, 1, 70, 127
2, 57080, Note_off_c, 1, 76, 0
2, 57080, Note_off_c, 1, 82, 0
2, 57080, Note_on_c, 1, 86, 127
2, 57080, Note_off_c, 1, 88, 0
2, 57080, Note_on_c, 1, 91, 127
2, 57120, Note_off_c, 1, 57, 0
2, 57120, Note_on_c, 1, 61, 127
2, 57120, Note_off_c, 1, 62, 0
2, 57120, Note_off_c, 1, 65, 0
2, 57120, Note_off_c, 1, 70, 0
2, 57120, Note_on_c, 1, 76, 127
2, 57120, Note_on_c, 1, 82, 127
2, 57120, Note_off_c, 1, 86, 0
2, 57120, Note_on_c, 1, 88, 127
2, 57120, Note_off_c, 1, 91, 0
2, 57160, Note_off_c, 1, 61, 0
2, 57160, Note_off_c, 1, 76, 0
2, 57160, Note_off_c, 1, 82, 0
2, 57160, Note_off_c, 1, 88, 0
2, 57200, Note_on_c, 1, 46, 127
2, 57200, Note_on_c, 1, 56, 127
2, 57200, Note_on_c, 1, 62, 127
2, 57200, Note_on_c, 1, 65, 127
2, 57200, Note_on_c, 1, 70, 127
2, 57400, Note_off_c, 1, 46, 0
2, 57400, Note_off_c, 1, 56, 0
2, 57400, Note_off_c, 1, 62, 0
2, 57400, Note_off_c, 1, 65, 0
2, 57400, Note_off_c, 1, 70, 0
2, 57440, Note_on_c, 1, 46, 127
2, 57440, Note_on_c, 1, 56, 127
2, 57440, Note_on_c, 1, 62, 127
2, 57440, Note_on_c, 1, 65, 127
2, 57440, Note_on_c, 1, 70, 127
2, 57480, Note_off_c, 1, 46, 0
2, 57480, Note_off_c, 1, 56, 0
2, 57520, Note_on_c, 1, 68, 127
2, 57520, Note_on_c, 1, 92, 127
2, 57800, Note_off_c, 1, 62, 0
2, 57800, Note_off_c, 1, 65, 0
2, 57800, Note_off_c, 1, 68, 0
2, 57800, Note_off_c, 1, 70, 0
2, 57800, Note_off_c, 1, 92, 0
2, 57840, Note_on_c, 1, 42, 127
2, 57840, Note_on_c, 1, 54, 127
2, 57840, Note_on_c, 1, 69, 127
2, 57840, Note_on_c, 1, 78, 127
2, 57840, Note_on_c, 1, 81, 127
2, 58080, Note_off_c, 1, 54, 0
2, 58080, Note_off_c, 1, 69, 0
2, 58080, Note_off_c, 1, 78, 0
2, 58080, Note_off_c, 1, 81, 0
2, 58120, Note_on_c, 1, 37, 127
2, 58120, Note_off_c, 1, 42, 0
2, 58120, Note_on_c, 1, 44, 127
2, 58120, Note_on_c, 1, 49, 127
2, 58120, Note_on_c, 1, 64, 127
2, 58120, Note_on_c, 1, 76, 127
2, 58400, Note_off_c, 1, 64, 0
2, 58440, Note_on_c, 1, 68, 127
2, 58640, Note_off_c, 1, 68, 0
2, 58720, Note_on_c, 1, 73, 127
2, 58960, Note_off_c, 1, 37, 0
2, 58960, Note_off_c, 1, 44, 0
2, 58960, Note_off_c, 1, 49, 0
2, 58960, Note_off_c, 1, 73, 0
2, 58960, Note_off_c, 1, 76, 0
2, 59000, Note_on_c, 1, 35, 127
2, 59000, Note_on_c, 1, 47, 127
2, 59000, Note_on_c, 1, 63, 127
2, 59000, Note_on_c, 1, 68, 127
2, 59000, Note_on_c, 1, 75, 127
2, 59280, Note_off_c, 1, 35, 0
2, 59280, Note_off_c, 1, 47, 0
2, 59280, Note_off_c, 1, 63, 0
2, 59280, Note_off_c, 1, 68, 0
2, 59280, Note_off_c, 1, 75, 0
2, 59360, Note_on_c, 1, 47, 127
2, 59360, Note_on_c, 1, 64, 127
2, 59360, Note_on_c, 1, 71, 127
2, 59360, Note_on_c, 1, 76, 127
2, 59600, Note_off_c, 1, 47, 0
2, 59600, Note_off_c, 1, 64, 0
2, 59600, Note_off_c, 1, 71, 0
2, 59600, Note_off_c, 1, 76, 0
2, 59640, Note_on_c, 1, 39, 127
2, 59640, Note_on_c, 1, 51, 127
2, 59640, Note_on_c, 1, 66, 127
2, 59640, Note_on_c, 1, 73, 127
2, 59640, Note_on_c, 1, 77, 127
2, 59920, Note_off_c, 1, 39, 0
2, 59920, Note_off_c, 1, 51, 0
2, 59920, Note_off_c, 1, 66, 0
2, 59920, Note_off_c, 1, 73, 0
2, 59920, Note_off_c, 1, 77, 0
2, 59960, Note_on_c, 1, 46, 127
2, 59960, Note_on_c, 1, 58, 127
2, 59960, Note_on_c, 1, 68, 127
2, 59960, Note_on_c, 1, 73, 127
2, 59960, Note_on_c, 1, 77, 127
2, 60480, Note_off_c, 1, 46, 0
2, 60480, Note_off_c, 1, 58, 0
2, 60480, Note_off_c, 1, 68, 0
2, 60480, Note_off_c, 1, 73, 0
2, 60480, Note_off_c, 1, 77, 0
2, 60520, Note_on_c, 1, 37, 127
2, 60520, Note_on_c, 1, 49, 127
2, 60520, Note_on_c, 1, 82, 127
2, 60520, Note_on_c, 1, 90, 127
2, 60520, Note_on_c, 1, 94, 127
2, 60760, Note_off_c, 1, 37, 0
2, 60760, Note_off_c, 1, 49, 0
2, 60760, Note_on_c, 1, 58, 127
2, 60760, Note_on_c, 1, 61, 127
2, 60760, Note_on_c, 1, 63, 127
2, 60760, Note_on_c, 1, 67, 127
2, 60760, Note_on_c, 1, 70, 127
2, 60760, Note_on_c, 1, 75, 127
2, 60760, Note_off_c, 1, 90, 0
2, 60760, Note_off_c, 1, 94, 0
2, 60800, Note_off_c, 1, 58, 0
2, 60800, Note_off_c, 1, 61, 0
2, 60800, Note_off_c, 1, 63, 0
2, 60800, Note_off_c, 1, 67, 0
2, 60800, Note_off_c, 1, 70, 0
2, 60800, Note_off_c, 1, 75, 0
2, 60800, Note_on_c, 1, 90, 127
2, 60800, Note_on_c, 1, 94, 127
2, 60840, Note_on_c, 1, 55, 127
2, 60840, Note_on_c, 1, 58, 127
2, 60840, Note_off_c, 1, 82, 0
2, 60840, Note_off_c, 1, 90, 0
2, 61080, Note_off_c, 1, 55, 0
2, 61080, Note_off_c, 1, 58, 0
2, 61120, Note_on_c, 1, 39, 127
2, 61120, Note_on_c, 1, 51, 127
2, 61120, Note_on_c, 1, 71, 127
2, 61120, Note_on_c, 1, 75, 127
2, 61120, Note_on_c, 1, 79, 127
2, 61120, Note_on_c, 1, 83, 127
2, 61120, Note_off_c, 1, 94, 0
2, 61240, Note_off_c, 1, 71, 0
2, 61240, Note_off_c, 1, 75, 0
2, 61240, Note_off_c, 1, 79, 0
2, 61240, Note_off_c, 1, 83, 0
2, 61280, Note_on_c, 1, 72, 127
2, 61280, Note_on_c, 1, 84, 127
2, 61400, Note_off_c, 1, 39, 0
2, 61400, Note_off_c, 1, 51, 0
2, 61400, Note_off_c, 1, 72, 0
2, 61400, Note_on_c, 1, 75, 127
2, 61400, Note_off_c, 1, 84, 0
2, 61400, Note_on_c, 1, 87, 127
2, 61440, Note_off_c, 1, 75, 0
2, 61440, Note_off_c, 1, 87, 0
2, 61480, Note_on_c, 1, 68, 127
2, 61480, Note_on_c, 1, 76, 127
2, 61480, Note_on_c, 1, 80, 127
2, 61480, Note_on_c, 1, 85, 127
2, 61480, Note_on_c, 1, 92, 127
2, 61720, Note_on_c, 1, 47, 127
2, 61720, Note_on_c, 1, 59, 127
2, 61720, Note_on_c, 1, 65, 127
2, 61720, Note_off_c, 1, 68, 0
2, 61720, Note_on_c, 1, 74, 127
2, 61720, Note_off_c, 1, 76, 0
2, 61720, Note_off_c, 1, 80, 0
2, 61720, Note_off_c, 1, 85, 0
2, 61720, Note_off_c, 1, 92, 0
2, 61760, Note_off_c, 1, 47, 0
2, 61760, Note_on_c, 1, 54, 127
2, 61760, Note_off_c, 1, 59, 0
2, 61760, Note_on_c, 1, 60, 127
2, 61760, Note_on_c, 1, 63, 127
2, 61760, Note_off_c, 1, 65, 0
2, 61760, Note_on_c, 1, 66, 127
2, 61760, Note_off_c, 1, 74, 0
2, 61760, Note_on_c, 1, 75, 127
2, 61880, Note_off_c, 1, 54, 0
2, 61880, Note_off_c, 1, 60, 0
2, 61880, Note_off_c, 1, 63, 0
2, 61880, Note_off_c, 1, 66, 0
2, 61880, Note_on_c, 1, 68, 127
2, 61880, Note_off_c, 1, 75, 0
2, 61880, Note_on_c, 1, 89, 127
2, 61880, Note_on_c, 1, 97, 127
2, 61920, Note_on_c, 1, 51, 127
2, 61920, Note_on_c, 1, 54, 127
2, 61920, Note_on_c, 1, 57, 127
2, 61920, Note_on_c, 1, 63, 127
2, 61920, Note_off_c, 1, 68, 0
2, 61920, Note_off_c, 1, 89, 0
2, 61920, Note_off_c, 1, 97, 0
2, 61960, Note_on_c, 1, 46, 127
2, 61960, Note_off_c, 1, 51, 0
2, 61960, Note_on_c, 1, 53, 127
2, 61960, Note_off_c, 1, 54, 0
2, 61960, Note_off_c, 1, 57, 0
2, 61960, Note_on_c, 1, 60, 127
2, 61960, Note_on_c, 1, 65, 127
2, 61960, Note_on_c, 1, 69, 127
2, 61960, Note_on_c, 1, 72, 127
2, 61960, Note_on_c, 1, 75, 127
2, 62000, Note_off_c, 1, 46, 0
2, 62000, Note_off_c, 1, 53, 0
2, 62000, Note_off_c, 1, 60, 0
2, 62000, Note_off_c, 1, 63, 0
2, 62000, Note_off_c, 1, 65, 0
2, 62000, Note_off_c, 1, 69, 0
2, 62000, Note_off_c, 1, 72, 0
2, 62000, Note_off_c, 1, 75, 0
2, 62040, Note_on_c, 1, 46, 127
2, 62040, Note_on_c, 1, 53, 127
2, 62040, Note_on_c, 1, 58, 127
2, 62040, Note_on_c, 1, 62, 127
2, 62040, Note_on_c, 1, 65, 127
2, 62040, Note_on_c, 1, 70, 127
2, 62040, Note_on_c, 1, 74, 127
2, 62040, Note_on_c, 1, 82, 127
2, 62080, Note_on_c, 1, 38, 127
2, 62080, Note_on_c, 1, 45, 127
2, 62080, Note_off_c, 1, 46, 0
2, 62080, Note_on_c, 1, 48, 127
2, 62080, Note_off_c, 1, 53, 0
2, 62080, Note_off_c, 1, 58, 0
2, 62080, Note_on_c, 1, 60, 127
2, 62080, Note_off_c, 1, 62, 0
2, 62080, Note_off_c, 1, 65, 0
2, 62080, Note_on_c, 1, 66, 127
2, 62080, Note_on_c, 1, 69, 127
2, 62080, Note_off_c, 1, 70, 0
2, 62080, Note_off_c, 1, 74, 0
2, 62080, Note_off_c, 1, 82, 0
2, 62120, Note_off_c, 1, 38, 0
2, 62120, Note_off_c, 1, 45, 0
2, 62120, Note_off_c, 1, 48, 0
2, 62120, Note_off_c, 1, 60, 0
2, 62120, Note_off_c, 1, 66, 0
2, 62120, Note_off_c, 1, 69, 0
2, 62120, Note_on_c, 1, 82, 127
2, 62120, Note_on_c, 1, 89, 127
2, 62120, Note_on_c, 1, 98, 127
2, 62160, Note_on_c, 1, 65, 127
2, 62160, Note_on_c, 1, 77, 127
2, 62160, Note_on_c, 1, 80, 127
2, 62160, Note_off_c, 1, 82, 0
2, 62160, Note_on_c, 1, 86, 127
2, 62160, Note_off_c, 1, 98, 0
2, 62200, Note_on_c, 1, 55, 127
2, 62200, Note_off_c, 1, 65, 0
2, 62200, Note_off_c, 1, 77, 0
2, 62200, Note_off_c, 1, 80, 0
2, 62200, Note_on_c, 1, 81, 127
2, 62200, Note_off_c, 1, 86, 0
2, 62200, Note_off_c, 1, 89, 0
2, 62200, Note_on_c, 1, 90, 127
2, 62240, Note_off_c, 1, 55, 0
2, 62240, Note_on_c, 1, 58, 127
2, 62240, Note_on_c, 1, 63, 127
2, 62240, Note_off_c, 1, 81, 0
2, 62240, Note_on_c, 1, 82, 127
2, 62240, Note_on_c, 1, 89, 127
2, 62240, Note_off_c, 1, 90, 0
2, 62240, Note_on_c, 1, 94, 127
2, 62280, Note_on_c, 1, 43, 127
2, 62280, Note_on_c, 1, 55, 127
2, 62280, Note_off_c, 1, 58, 0
2, 62280, Note_off_c, 1, 63, 0
2, 62280, Note_on_c, 1, 74, 127
2, 62280, Note_on_c, 1, 76, 127
2, 62280, Note_off_c, 1, 82, 0
2, 62280, Note_off_c, 1, 89, 0
2, 62280, Note_off_c, 1, 94, 0
2, 62320, Note_off_c, 1, 43, 0
2, 62320, Note_off_c, 1, 55, 0
2, 62320, Note_on_c, 1, 64, 127
2, 62320, Note_off_c, 1, 74, 0
2, 62320, Note_off_c, 1, 76, 0
2, 62320, Note_on_c, 1, 94, 127
2, 62360, Note_off_c, 1, 64, 0
2, 62360, Note_on_c, 1, 70, 127
2, 62360, Note_on_c, 1, 77, 127
2, 62360, Note_on_c, 1, 82, 127
2, 62360, Note_on_c, 1, 86, 127
2, 62360, Note_on_c, 1, 98, 127
2, 62400, Note_on_c, 1, 50, 127
2, 62400, Note_off_c, 1, 70, 0
2, 62400, Note_off_c, 1, 77, 0
2, 62400, Note_off_c, 1, 86, 0
2, 62400, Note_off_c, 1, 98, 0
2, 62440, Note_off_c, 1, 50, 0
2, 62440, Note_on_c, 1, 58, 127
2, 62440, Note_off_c, 1, 82, 0
2, 62440, Note_on_c, 1, 87, 127
2, 62480, Note_off_c, 1, 58, 0
2, 62480, Note_on_c, 1, 65, 127
2, 62480, Note_on_c, 1, 75, 127
2, 62480, Note_on_c, 1, 78, 127
2, 62480, Note_on_c, 1, 82, 127
2, 62480, Note_off_c, 1, 94, 0
2, 62520, Note_on_c, 1, 53, 127
2, 62520, Note_on_c, 1, 58, 127
2, 62520, Note_on_c, 1, 60, 127
2, 62520, Note_on_c, 1, 63, 127
2, 62520, Note_off_c, 1, 65, 0
2, 62520, Note_on_c, 1, 70, 127
2, 62520, Note_off_c, 1, 75, 0
2, 62520, Note_off_c, 1, 78, 0
2, 62520, Note_off_c, 1, 82, 0
2, 62520, Note_off_c, 1, 87, 0
2, 62560, Note_on_c, 1, 51, 127
2, 62560, Note_off_c, 1, 53, 0
2, 62560, Note_off_c, 1, 60, 0
2, 62560, Note_off_c, 1, 63, 0
2, 62560, Note_off_c, 1, 70, 0
2, 62560, Note_on_c, 1, 84, 127
2, 62600, Note_off_c, 1, 51, 0
2, 62600, Note_off_c, 1, 58, 0
2, 62600, Note_off_c, 1, 84, 0
2, 62640, Note_on_c, 1, 72, 127
2, 62640, Note_on_c, 1, 78, 127
2, 62640, Note_on_c, 1, 83, 127
2, 62640, Note_on_c, 1, 87, 127
2, 62640, Note_on_c, 1, 95, 127
2, 62640, Note_on_c, 1, 99, 127
2, 62840, Note_on_c, 1, 59, 127
2, 62840, Note_on_c, 1, 63, 127
2, 62840, Note_off_c, 1, 72, 0
2, 62840, Note_on_c, 1, 73, 127
2, 62840, Note_off_c, 1, 78, 0
2, 62840, Note_on_c, 1, 81, 127
2, 62840, Note_off_c, 1, 83, 0
2, 62840, Note_off_c, 1, 87, 0
2, 62840, Note_on_c, 1, 93, 127
2, 62840, Note_off_c, 1, 95, 0
2, 62840, Note_off_c, 1, 99, 0
2, 62880, Note_on_c, 1, 36, 127
2, 62880, Note_on_c, 1, 43, 127
2, 62880, Note_on_c, 1, 48, 127
2, 62880, Note_off_c, 1, 59, 0
2, 62880, Note_on_c, 1, 60, 127
2, 62880, Note_on_c, 1, 67, 127
2, 62880, Note_off_c, 1, 73, 0
2, 62880, Note_off_c, 1, 81, 0
2, 62880, Note_off_c, 1, 93, 0
2, 62920, Note_off_c, 1, 36, 0
2, 62920, Note_on_c, 1, 40, 127
2, 62920, Note_off_c, 1, 43, 0
2, 62920, Note_off_c, 1, 48, 0
2, 62920, Note_off_c, 1, 60, 0
2, 62920, Note_off_c, 1, 63, 0
2, 62920, Note_off_c, 1, 67, 0
2, 62920, Note_on_c, 1, 71, 127
2, 62920, Note_on_c, 1, 92, 127
2, 62920, Note_on_c, 1, 95, 127
2, 63160, Note_on_c, 1, 34, 127
2, 63160, Note_off_c, 1, 40, 0
2, 63160, Note_off_c, 1, 71, 0
2, 63160, Note_off_c, 1, 92, 0
2, 63160, Note_off_c, 1, 95, 0
2, 63200, Note_on_c, 1, 33, 127
2, 63200, Note_off_c, 1, 34, 0
2, 63200, Note_on_c, 1, 87, 127
2, 63200, Note_on_c, 1, 90, 127
2, 63240, Note_off_c, 1, 33, 0
2, 63240, Note_on_c, 1, 55, 127
2, 63240, Note_on_c, 1, 79, 127
2, 63240, Note_on_c, 1, 84, 127
2, 63240, Note_off_c, 1, 90, 0
2, 63240, Note_on_c, 1, 91, 127
2, 63280, Note_off_c, 1, 55, 0
2, 63280, Note_on_c, 1, 60, 127
2, 63320, Note_off_c, 1, 60, 0
2, 63320, Note_on_c, 1, 73, 127
2, 63320, Note_off_c, 1, 79, 0
2, 63320, Note_on_c, 1, 82, 127
2, 63320, Note_off_c, 1, 84, 0
2, 63320, Note_off_c, 1, 87, 0
2, 63320, Note_off_c, 1, 91, 0
2, 63320, Note_on_c, 1, 94, 127
2, 63360, Note_on_c, 1, 55, 127
2, 63360, Note_off_c, 1, 73, 0
2, 63360, Note_on_c, 1, 79, 127
2, 63360, Note_off_c, 1, 82, 0
2, 63360, Note_on_c, 1, 84, 127
2, 63360, Note_on_c, 1, 87, 127
2, 63360, Note_on_c, 1, 91, 127
2, 63360, Note_off_c, 1, 94, 0
2, 63400, Note_off_c, 1, 55, 0
2, 63400, Note_on_c, 1, 67, 127
2, 63440, Note_off_c, 1, 67, 0
2, 63440, Note_off_c, 1, 79, 0
2, 63440, Note_off_c, 1, 84, 0
2, 63440, Note_off_c, 1, 87, 0
2, 63440, Note_off_c, 1, 91, 0
2, 63480, Note_on_c, 1, 79, 127
2, 63480, Note_on_c, 1, 84, 127
2, 63480, Note_on_c, 1, 87, 127
2, 63480, Note_on_c, 1, 91, 127
2, 63520, Note_off_c, 1, 79, 0
2, 63520, Note_off_c, 1, 84, 0
2, 63520, Note_off_c, 1, 91, 0
2, 63520, Note_on_c, 1, 94, 127
2, 63560, Note_on_c, 1, 69, 127
2, 63560, Note_on_c, 1, 77, 127
2, 63560, Note_off_c, 1, 87, 0
2, 63560, Note_off_c, 1, 94, 0
2, 63560, Note_on_c, 1, 101, 127
2, 63600, Note_on_c, 1, 50, 127
2, 63600, Note_on_c, 1, 62, 127
2, 63600, Note_off_c, 1, 69, 0
2, 63600, Note_on_c, 1, 72, 127
2, 63600, Note_on_c, 1, 81, 127
2, 63600, Note_on_c, 1, 84, 127
2, 63600, Note_off_c, 1, 101, 0
2, 63640, Note_on_c, 1, 27, 127
2, 63640, Note_off_c, 1, 50, 0
2, 63640, Note_on_c, 1, 51, 127
2, 63640, Note_on_c, 1, 55, 127
2, 63640, Note_on_c, 1, 58, 127
2, 63640, Note_off_c, 1, 62, 0
2, 63640, Note_off_c, 1, 72, 0
2, 63640, Note_off_c, 1, 77, 0
2, 63640, Note_off_c, 1, 81, 0
2, 63640, Note_off_c, 1, 84, 0
2, 63680, Note_off_c, 1, 27, 0
2, 63680, Note_off_c, 1, 51, 0
2, 63680, Note_on_c, 1, 57, 127
2, 63680, Note_off_c, 1, 58, 0
2, 63680, Note_on_c, 1, 64, 127
2, 63680, Note_on_c, 1, 83, 127
2, 63720, Note_off_c, 1, 55, 0
2, 63720, Note_off_c, 1, 57, 0
2, 63720, Note_off_c, 1, 64, 0
2, 63720, Note_off_c, 1, 83, 0
2, 63720, Note_on_c, 1, 91, 127
2, 63720, Note_on_c, 1, 93, 127
2, 63720, Note_on_c, 1, 95, 127
2, 63760, Note_on_c, 1, 38, 127
2, 63760, Note_on_c, 1, 67, 127
2, 63760, Note_off_c, 1, 91, 0
2, 63760, Note_off_c, 1, 95, 0
2, 63800, Note_off_c, 1, 38, 0
2, 63800, Note_off_c, 1, 67, 0
2, 63800, Note_off_c, 1, 93, 0
2, 63840, Note_on_c, 1, 41, 127
2, 63840, Note_on_c, 1, 81, 127
2, 63840, Note_on_c, 1, 87, 127
2, 63840, Note_on_c, 1, 89, 127
2, 63880, Note_on_c, 1, 33, 127
2, 63880, Note_off_c, 1, 41, 0
2, 63880, Note_on_c, 1, 45, 127
2, 63880, Note_on_c, 1, 71, 127
2, 63880, Note_on_c, 1, 76, 127
2, 63880, Note_off_c, 1, 81, 0
2, 63880, Note_on_c, 1, 83, 127
2, 63880, Note_off_c, 1, 87, 0
2, 63880, Note_off_c, 1, 89, 0
2, 63920, Note_off_c, 1, 33, 0
2, 63920, Note_off_c, 1, 45, 0
2, 63920, Note_on_c, 1, 53, 127
2, 63920, Note_off_c, 1, 71, 0
2, 63920, Note_off_c, 1, 76, 0
2, 63920, Note_on_c, 1, 80, 127
2, 63920, Note_off_c, 1, 83, 0
2, 63920, Note_on_c, 1, 86, 127
2, 63960, Note_on_c, 1, 41, 127
2, 63960, Note_off_c, 1, 53, 0
2, 63960, Note_off_c, 1, 80, 0
2, 63960, Note_on_c, 1, 81, 127
2, 63960, Note_off_c, 1, 86, 0
2, 63960, Note_on_c, 1, 87, 127
2, 63960, Note_on_c, 1, 89, 127
2, 64040, Note_on_c, 1, 48, 127
2, 64040, Note_on_c, 1, 69, 127
2, 64040, Note_off_c, 1, 87, 0
2, 64040, Note_off_c, 1, 89, 0
2, 64080, Note_off_c, 1, 41, 0
2, 64080, Note_off_c, 1, 48, 0
2, 64080, Note_off_c, 1, 69, 0
2, 64080, Note_off_c, 1, 81, 0
2, 64120, Note_on_c, 1, 33, 127
2, 64120, Note_on_c, 1, 46, 127
2, 64120, Note_on_c, 1, 87, 127
2, 64120, Note_on_c, 1, 90, 127
2, 64120, Note_on_c, 1, 92, 127
2, 64360, Note_off_c, 1, 33, 0
2, 64360, Note_off_c, 1, 46, 0
2, 64360, Note_off_c, 1, 87, 0
2, 64360, Note_on_c, 1, 91, 127
2, 64360, Note_off_c, 1, 92, 0
2, 64400, Note_off_c, 1, 90, 0
2, 64400, Note_off_c, 1, 91, 0
2, 64440, Note_on_c, 1, 48, 127
2, 64440, Note_on_c, 1, 55, 127
2, 64440, Note_on_c, 1, 64, 127
2, 64440, Note_on_c, 1, 70, 127
2, 64440, Note_on_c, 1, 76, 127
2, 64680, Note_off_c, 1, 48, 0
2, 64680, Note_off_c, 1, 55, 0
2, 64680, Note_off_c, 1, 64, 0
2, 64680, Note_off_c, 1, 70, 0
2, 64680, Note_off_c, 1, 76, 0
2, 64720, Note_on_c, 1, 44, 127
2, 64720, Note_on_c, 1, 51, 127
2, 64720, Note_on_c, 1, 56, 127
2, 64720, Note_on_c, 1, 66, 127
2, 64720, Note_on_c, 1, 72, 127
2, 64720, Note_on_c, 1, 78, 127
2, 64960, Note_off_c, 1, 44, 0
2, 64960, Note_off_c, 1, 51, 0
2, 64960, Note_off_c, 1, 56, 0
2, 64960, Note_on_c, 1, 58, 127
2, 64960, Note_on_c, 1, 62, 127
2, 64960, Note_on_c, 1, 65, 127
2, 64960, Note_off_c, 1, 66, 0
2, 64960, Note_on_c, 1, 70, 127
2, 64960, Note_off_c, 1, 72, 0
2, 64960, Note_on_c, 1, 74, 127
2, 64960, Note_off_c, 1, 78, 0
2, 64960, Note_on_c, 1, 79, 127
2, 65000, Note_off_c, 1, 58, 0
2, 65000, Note_off_c, 1, 62, 0
2, 65000, Note_off_c, 1, 65, 0
2, 65000, Note_off_c, 1, 70, 0
2, 65000, Note_off_c, 1, 74, 0
2, 65000, Note_off_c, 1, 79, 0
2, 65040, Note_on_c, 1, 36, 127
2, 65040, Note_on_c, 1, 43, 127
2, 65040, Note_on_c, 1, 48, 127
2, 65040, Note_on_c, 1, 67, 127
2, 65040, Note_on_c, 1, 79, 127
2, 65320, Note_off_c, 1, 36, 0
2, 65320, Note_off_c, 1, 43, 0
2, 65320, Note_off_c, 1, 48, 0
2, 65320, Note_off_c, 1, 67, 0
2, 65320, Note_off_c, 1, 79, 0
2, 65400, Note_on_c, 1, 37, 127
2, 65400, Note_on_c, 1, 44, 127
2, 65400, Note_on_c, 1, 49, 127
2, 65400, Note_on_c, 1, 90, 127
2, 65640, Note_off_c, 1, 37, 0
2, 65640, Note_off_c, 1, 44, 0
2, 65640, Note_off_c, 1, 49, 0
2, 65640, Note_off_c, 1, 90, 0
2, 65680, Note_on_c, 1, 70, 127
2, 65680, Note_on_c, 1, 73, 127
2, 65680, Note_on_c, 1, 79, 127
2, 65680, Note_on_c, 1, 89, 127
2, 65920, Note_off_c, 1, 70, 0
2, 65920, Note_off_c, 1, 73, 0
2, 65920, Note_off_c, 1, 79, 0
2, 65920, Note_off_c, 1, 89, 0
2, 65960, Note_on_c, 1, 44, 127
2, 65960, Note_on_c, 1, 48, 127
2, 65960, Note_on_c, 1, 60, 127
2, 65960, Note_on_c, 1, 65, 127
2, 65960, Note_on_c, 1, 72, 127
2, 66240, Note_off_c, 1, 44, 0
2, 66240, Note_off_c, 1, 48, 0
2, 66240, Note_off_c, 1, 60, 0
2, 66240, Note_off_c, 1, 65, 0
2, 66240, Note_off_c, 1, 72, 0
2, 66280, Note_on_c, 1, 44, 127
2, 66280, Note_on_c, 1, 49, 127
2, 66280, Note_on_c, 1, 60, 127
2, 66280, Note_on_c, 1, 65, 127
2, 66280, Note_on_c, 1, 72, 127
2, 66840, Note_off_c, 1, 44, 0
2, 66840, Note_off_c, 1, 49, 0
2, 66840, Note_off_c, 1, 60, 0
2, 66840, Note_off_c, 1, 65, 0
2, 66840, Note_off_c, 1, 72, 0
2, 67200, Note_on_c, 1, 52, 127
2, 67400, Note_off_c, 1, 52, 0
2, 67440, Note_on_c, 1, 52, 127
2, 67480, Note_off_c, 1, 52, 0
2, 67520, Note_on_c, 1, 44, 127
2, 68160, Note_on_c, 1, 40, 127
2, 68160, Note_off_c, 1, 44, 0
2, 68160, Note_on_c, 1, 47, 127
2, 68160, Note_on_c, 1, 56, 127
2, 68160, Note_on_c, 1, 70, 127
2, 68160, Note_on_c, 1, 82, 127
2, 68960, Note_off_c, 1, 40, 0
2, 68960, Note_on_c, 1, 46, 127
2, 68960, Note_off_c, 1, 47, 0
2, 68960, Note_on_c, 1, 54, 127
2, 68960, Note_off_c, 1, 56, 0
2, 68960, Note_on_c, 1, 65, 127
2, 68960, Note_off_c, 1, 70, 0
2, 68960, Note_on_c, 1, 73, 127
2, 68960, Note_on_c, 1, 77, 127
2, 68960, Note_off_c, 1, 82, 0
2, 69000, Note_off_c, 1, 46, 0
2, 69000, Note_off_c, 1, 54, 0
2, 69000, Note_off_c, 1, 65, 0
2, 69000, Note_off_c, 1, 73, 0
2, 69000, Note_off_c, 1, 77, 0
2, 69040, Note_on_c, 1, 40, 127
2, 69040, Note_on_c, 1, 47, 127
2, 69040, Note_on_c, 1, 56, 127
2, 69040, Note_on_c, 1, 70, 127
2, 69040, Note_on_c, 1, 82, 127
2, 69240, Note_off_c, 1, 40, 0
2, 69240, Note_off_c, 1, 47, 0
2, 69240, Note_off_c, 1, 56, 0
2, 69240, Note_off_c, 1, 70, 0
2, 69240, Note_off_c, 1, 82, 0
2, 69280, Note_on_c, 1, 40, 127
2, 69280, Note_on_c, 1, 47, 127
2, 69280, Note_on_c, 1, 56, 127
2, 69280, Note_on_c, 1, 70, 127
2, 69280, Note_on_c, 1, 82, 127
2, 69600, Note_off_c, 1, 40, 0
2, 69600, Note_off_c, 1, 47, 0
2, 69600, Note_off_c, 1, 56, 0
2, 69600, Note_off_c, 1, 70, 0
2, 69600, Note_off_c, 1, 82, 0
2, 69640, Note_on_c, 1, 44, 127
2, 69640, Note_on_c, 1, 52, 127
2, 69640, Note_on_c, 1, 56, 127
2, 69640, Note_on_c, 1, 64, 127
2, 69640, Note_on_c, 1, 68, 127
2, 69640, Note_on_c, 1, 73, 127
2, 69640, Note_on_c, 1, 76, 127
2, 70200, Note_off_c, 1, 44, 0
2, 70200, Note_off_c, 1, 52, 0
2, 70200, Note_off_c, 1, 56, 0
2, 70200, Note_off_c, 1, 64, 0
2, 70200, Note_off_c, 1, 68, 0
2, 70200, Note_off_c, 1, 73, 0
2, 70200, Note_off_c, 1, 76, 0
2, 70240, Note_on_c, 1, 49, 127
2, 70240, Note_on_c, 1, 53, 127
2, 70240, Note_on_c, 1, 65, 127
2, 70240, Note_on_c, 1, 70, 127
2, 70240, Note_on_c, 1, 77, 127
2, 70800, Note_on_c, 1, 37, 127
2, 70800, Note_off_c, 1, 49, 0
2, 70800, Note_off_c, 1, 53, 0
2, 70800, Note_off_c, 1, 65, 0
2, 70800, Note_off_c, 1, 70, 0
2, 70800, Note_off_c, 1, 77, 0
2, 70840, Note_off_c, 1, 37, 0
2, 70840, Note_on_c, 1, 46, 127
2, 70840, Note_on_c, 1, 53, 127
2, 70840, Note_on_c, 1, 65, 127
2, 70840, Note_on_c, 1, 70, 127
2, 70840, Note_on_c, 1, 77, 127
2, 71120, Note_off_c, 1, 53, 0
2, 71160, Note_on_c, 1, 53, 127
2, 71400, Note_off_c, 1, 46, 0
2, 71400, Note_off_c, 1, 53, 0
2, 71400, Note_off_c, 1, 65, 0
2, 71400, Note_off_c, 1, 70, 0
2, 71400, Note_off_c, 1, 77, 0
2, 71440, Note_on_c, 1, 69, 127
2, 71440, Note_on_c, 1, 72, 127
2, 71440, Note_on_c, 1, 83, 127
2, 71440, Note_on_c, 1, 93, 127
2, 71440, Note_on_c, 1, 96, 127
2, 71480, Note_off_c, 1, 69, 0
2, 71480, Note_off_c, 1, 72, 0
2, 71480, Note_off_c, 1, 83, 0
2, 71480, Note_off_c, 1, 93, 0
2, 71480, Note_off_c, 1, 96, 0
2, 71520, Note_on_c, 1, 69, 127
2, 71520, Note_on_c, 1, 72, 127
2, 71520, Note_on_c, 1, 83, 127
2, 71520, Note_on_c, 1, 93, 127
2, 71520, Note_on_c, 1, 96, 127
2, 71600, Note_off_c, 1, 69, 0
2, 71600, Note_off_c, 1, 72, 0
2, 71640, Note_on_c, 1, 69, 127
2, 71640, Note_on_c, 1, 72, 127
2, 72040, Note_on_c, 1, 43, 127
2, 72040, Note_off_c, 1, 69, 0
2, 72040, Note_off_c, 1, 72, 0
2, 72040, Note_off_c, 1, 83, 0
2, 72040, Note_off_c, 1, 93, 0
2, 72040, Note_off_c, 1, 96, 0
2, 72080, Note_off_c, 1, 43, 0
2, 72080, Note_on_c, 1, 69, 127
2, 72080, Note_on_c, 1, 76, 127
2, 72080, Note_on_c, 1, 78, 127
2, 72080, Note_on_c, 1, 85, 127
2, 72120, Note_on_c, 1, 61, 127
2, 72120, Note_on_c, 1, 63, 127
2, 72120, Note_on_c, 1, 67, 127
2, 72120, Note_off_c, 1, 69, 0
2, 72120, Note_off_c, 1, 76, 0
2, 72120, Note_off_c, 1, 78, 0
2, 72120, Note_off_c, 1, 85, 0
2, 72120, Note_on_c, 1, 90, 127
2, 72160, Note_on_c, 1, 31, 127
2, 72160, Note_on_c, 1, 43, 127
2, 72160, Note_on_c, 1, 56, 127
2, 72160, Note_on_c, 1, 59, 127
2, 72160, Note_off_c, 1, 61, 0
2, 72160, Note_on_c, 1, 62, 127
2, 72160, Note_off_c, 1, 63, 0
2, 72160, Note_on_c, 1, 65, 127
2, 72160, Note_off_c, 1, 67, 0
2, 72160, Note_off_c, 1, 90, 0
2, 72200, Note_off_c, 1, 31, 0
2, 72200, Note_on_c, 1, 42, 127
2, 72200, Note_off_c, 1, 43, 0
2, 72200, Note_on_c, 1, 49, 127
2, 72200, Note_off_c, 1, 56, 0
2, 72200, Note_off_c, 1, 59, 0
2, 72200, Note_off_c, 1, 62, 0
2, 72200, Note_off_c, 1, 65, 0
2, 72200, Note_on_c, 1, 73, 127
2, 72200, Note_on_c, 1, 78, 127
2, 72240, Note_off_c, 1, 49, 0
2, 72240, Note_on_c, 1, 57, 127
2, 72240, Note_on_c, 1, 62, 127
2, 72240, Note_on_c, 1, 69, 127
2, 72240, Note_off_c, 1, 73, 0
2, 72240, Note_on_c, 1, 74, 127
2, 72240, Note_off_c, 1, 78, 0
2, 72280, Note_off_c, 1, 42, 0
2, 72280, Note_off_c, 1, 57, 0
2, 72280, Note_off_c, 1, 62, 0
2, 72280, Note_on_c, 1, 67, 127
2, 72280, Note_off_c, 1, 69, 0
2, 72280, Note_on_c, 1, 72, 127
2, 72280, Note_off_c, 1, 74, 0
2, 72280, Note_on_c, 1, 75, 127
2, 72280, Note_on_c, 1, 79, 127
2, 72280, Note_on_c, 1, 91, 127
2, 72320, Note_on_c, 1, 50, 127
2, 72320, Note_off_c, 1, 67, 0
2, 72320, Note_on_c, 1, 71, 127
2, 72320, Note_off_c, 1, 72, 0
2, 72320, Note_off_c, 1, 75, 0
2, 72320, Note_off_c, 1, 79, 0
2, 72320, Note_on_c, 1, 86, 127
2, 72320, Note_on_c, 1, 88, 127
2, 72320, Note_off_c, 1, 91, 0
2, 72360, Note_off_c, 1, 50, 0
2, 72360, Note_on_c, 1, 56, 127
2, 72360, Note_on_c, 1, 59, 127
2, 72360, Note_on_c, 1, 64, 127
2, 72360, Note_on_c, 1, 68, 127
2, 72360, Note_off_c, 1, 71, 0
2, 72360, Note_off_c, 1, 86, 0
2, 72360, Note_off_c, 1, 88, 0
2, 72360, Note_on_c, 1, 94, 127
2, 72400, Note_on_c, 1, 38, 127
2, 72400, Note_on_c, 1, 50, 127
2, 72400, Note_on_c, 1, 54, 127
2, 72400, Note_off_c, 1, 56, 0
2, 72400, Note_on_c, 1, 57, 127
2, 72400, Note_off_c, 1, 59, 0
2, 72400, Note_on_c, 1, 62, 127
2, 72400, Note_off_c, 1, 64, 0
2, 72400, Note_on_c, 1, 66, 127
2, 72400, Note_off_c, 1, 68, 0
2, 72400, Note_on_c, 1, 74, 127
2, 72400, Note_on_c, 1, 86, 127
2, 72400, Note_off_c, 1, 94, 0
2, 72440, Note_on_c, 1, 45, 127
2, 72440, Note_off_c, 1, 50, 0
2, 72440, Note_off_c, 1, 54, 0
2, 72440, Note_off_c, 1, 57, 0
2, 72440, Note_off_c, 1, 62, 0
2, 72440, Note_off_c, 1, 66, 0
2, 72440, Note_off_c, 1, 74, 0
2, 72440, Note_on_c, 1, 77, 127
2, 72440, Note_on_c, 1, 80, 127
2, 72440, Note_on_c, 1, 83, 127
2, 72440, Note_off_c, 1, 86, 0
2, 72480, Note_off_c, 1, 38, 0
2, 72480, Note_off_c, 1, 45, 0
2, 72480, Note_off_c, 1, 77, 0
2, 72480, Note_off_c, 1, 80, 0
2, 72480, Note_off_c, 1, 83, 0
2, 72480, Note_on_c, 1, 95, 127
2, 72480, Note_on_c, 1, 97, 127
2, 72480, Note_on_c, 1, 99, 127
2, 72480, Note_on_c, 1, 100, 127
2, 72520, Note_on_c, 1, 44, 127
2, 72520, Note_on_c, 1, 47, 127
2, 72520, Note_on_c, 1, 56, 127
2, 72520, Note_on_c, 1, 82, 127
2, 72520, Note_off_c, 1, 95, 0
2, 72520, Note_off_c, 1, 97, 0
2, 72520, Note_off_c, 1, 99, 0
2, 72520, Note_off_c, 1, 100, 0
2, 72560, Note_off_c, 1, 44, 0
2, 72560, Note_on_c, 1, 54, 127
2, 72560, Note_off_c, 1, 56, 0
2, 72560, Note_on_c, 1, 71, 127
2, 72560, Note_off_c, 1, 82, 0
2, 72560, Note_on_c, 1, 87, 127
2, 72600, Note_off_c, 1, 47, 0
2, 72600, Note_off_c, 1, 54, 0
2, 72600, Note_off_c, 1, 71, 0
2, 72600, Note_off_c, 1, 87, 0
2, 72640, Note_on_c, 1, 49, 127
2, 72640, Note_on_c, 1, 53, 127
2, 72640, Note_on_c, 1, 56, 127
2, 72640, Note_on_c, 1, 61, 127
2, 72640, Note_on_c, 1, 65, 127
2, 72640, Note_on_c, 1, 68, 127
2, 72640, Note_on_c, 1, 73, 127
2, 73640, Note_off_c, 1, 49, 0
2, 73640, Note_off_c, 1, 53, 0
2, 73640, Note_off_c, 1, 56, 0
2, 73640, Note_off_c, 1, 61, 0
2, 73640, Note_off_c, 1, 65, 0
2, 73640, Note_off_c, 1, 68, 0
2, 73640, Note_off_c, 1, 73, 0
2, 73680, Note_on_c, 1, 49, 127
2, 73680, Note_on_c, 1, 53, 127
2, 73680, Note_on_c, 1, 56, 127
2, 73680, Note_on_c, 1, 61, 127
2, 73680, Note_on_c, 1, 65, 127
2, 73680, Note_on_c, 1, 68, 127
2, 73680, Note_on_c, 1, 73, 127
2, 73840, Note_off_c, 1, 49, 0
2, 73840, Note_off_c, 1, 53, 0
2, 73840, Note_off_c, 1, 56, 0
2, 73840, Note_off_c, 1, 61, 0
2, 73840, Note_off_c, 1, 65, 0
2, 73840, Note_off_c, 1, 68, 0
2, 73840, Note_off_c, 1, 73, 0
2, 73880, Note_on_c, 1, 42, 127
2, 73880, Note_on_c, 1, 54, 127
2, 73880, Note_on_c, 1, 68, 127
2, 73880, Note_on_c, 1, 71, 127
2, 73880, Note_on_c, 1, 76, 127
2, 73880, Note_on_c, 1, 80, 127
2, 73920, Note_on_c, 1, 41, 127
2, 73920, Note_off_c, 1, 42, 0
2, 73920, Note_on_c, 1, 48, 127
2, 73920, Note_on_c, 1, 53, 127
2, 73920, Note_off_c, 1, 54, 0
2, 73920, Note_on_c, 1, 60, 127
2, 73920, Note_on_c, 1, 63, 127
2, 73920, Note_off_c, 1, 68, 0
2, 73920, Note_off_c, 1, 71, 0
2, 73920, Note_on_c, 1, 75, 127
2, 73920, Note_off_c, 1, 76, 0
2, 73920, Note_off_c, 1, 80, 0
2, 73920, Note_on_c, 1, 81, 127
2, 73920, Note_on_c, 1, 87, 127
2, 73960, Note_off_c, 1, 41, 0
2, 73960, Note_off_c, 1, 48, 0
2, 73960, Note_off_c, 1, 53, 0
2, 73960, Note_off_c, 1, 60, 0
2, 73960, Note_off_c, 1, 63, 0
2, 73960, Note_off_c, 1, 75, 0
2, 73960, Note_off_c, 1, 81, 0
2, 73960, Note_off_c, 1, 87, 0
2, 74000, Note_on_c, 1, 59, 127
2, 74000, Note_on_c, 1, 62, 127
2, 74000, Note_on_c, 1, 66, 127
2, 74000, Note_on_c, 1, 95, 127
2, 74040, Note_on_c, 1, 37, 127
2, 74040, Note_on_c, 1, 44, 127
2, 74040, Note_on_c, 1, 48, 127
2, 74040, Note_on_c, 1, 54, 127
2, 74040, Note_on_c, 1, 56, 127
2, 74040, Note_off_c, 1, 59, 0
2, 74040, Note_off_c, 1, 62, 0
2, 74040, Note_off_c, 1, 66, 0
2, 74040, Note_off_c, 1, 95, 0
2, 74080, Note_off_c, 1, 37, 0
2, 74080, Note_on_c, 1, 39, 127
2, 74080, Note_on_c, 1, 40, 127
2, 74080, Note_off_c, 1, 44, 0
2, 74080, Note_off_c, 1, 48, 0
2, 74080, Note_on_c, 1, 51, 127
2, 74080, Note_off_c, 1, 54, 0
2, 74080, Note_off_c, 1, 56, 0
2, 74080, Note_on_c, 1, 64, 127
2, 74080, Note_on_c, 1, 75, 127
2, 74080, Note_on_c, 1, 76, 127
2, 74120, Note_off_c, 1, 39, 0
2, 74120, Note_off_c, 1, 40, 0
2, 74120, Note_off_c, 1, 51, 0
2, 74120, Note_on_c, 1, 59, 127
2, 74120, Note_on_c, 1, 68, 127
2, 74120, Note_off_c, 1, 75, 0
2, 74120, Note_on_c, 1, 83, 127
2, 74160, Note_on_c, 1, 58, 127
2, 74160, Note_off_c, 1, 59, 0
2, 74160, Note_on_c, 1, 61, 127
2, 74160, Note_off_c, 1, 64, 0
2, 74160, Note_on_c, 1, 67, 127
2, 74160, Note_off_c, 1, 68, 0
2, 74160, Note_on_c, 1, 72, 127
2, 74160, Note_off_c, 1, 76, 0
2, 74160, Note_on_c, 1, 79, 127
2, 74160, Note_off_c, 1, 83, 0
2, 74200, Note_off_c, 1, 58, 0
2, 74200, Note_off_c, 1, 61, 0
2, 74200, Note_on_c, 1, 66, 127
2, 74200, Note_off_c, 1, 67, 0
2, 74200, Note_on_c, 1, 70, 127
2, 74200, Note_off_c, 1, 72, 0
2, 74200, Note_on_c, 1, 74, 127
2, 74200, Note_on_c, 1, 78, 127
2, 74200, Note_off_c, 1, 79, 0
2, 74200, Note_on_c, 1, 82, 127
2, 74200, Note_on_c, 1, 86, 127
2, 74240, Note_off_c, 1, 66, 0
2, 74240, Note_off_c, 1, 70, 0
2, 74240, Note_off_c, 1, 74, 0
2, 74240, Note_off_c, 1, 78, 0
2, 74240, Note_off_c, 1, 82, 0
2, 74240, Note_on_c, 1, 84, 127
2, 74240, Note_off_c, 1, 86, 0
2, 74240, Note_on_c, 1, 90, 127
2, 74240, Note_on_c, 1, 93, 127
2, 74240, Note_on_c, 1, 96, 127
2, 74280, Note_on_c, 1, 64, 127
2, 74280, Note_on_c, 1, 67, 127
2, 74280, Note_on_c, 1, 76, 127
2, 74280, Note_off_c, 1, 84, 0
2, 74280, Note_off_c, 1, 90, 0
2, 74280, Note_on_c, 1, 91, 127
2, 74280, Note_off_c, 1, 93, 0
2, 74280, Note_on_c, 1, 95, 127
2, 74280, Note_off_c, 1, 96, 0
2, 74320, Note_on_c, 1, 44, 127
2, 74320, Note_off_c, 1, 64, 0
2, 74320, Note_off_c, 1, 67, 0
2, 74320, Note_off_c, 1, 76, 0
2, 74320, Note_on_c, 1, 90, 127
2, 74320, Note_off_c, 1, 91, 0
2, 74320, Note_on_c, 1, 93, 127
2, 74320, Note_off_c, 1, 95, 0
2, 74360, Note_on_c, 1, 30, 127
2, 74360, Note_on_c, 1, 42, 127
2, 74360, Note_off_c, 1, 44, 0
2, 74360, Note_off_c, 1, 90, 0
2, 74360, Note_on_c, 1, 92, 127
2, 74360, Note_off_c, 1, 93, 0
2, 74400, Note_off_c, 1, 30, 0
2, 74400, Note_off_c, 1, 42, 0
2, 74400, Note_off_c, 1, 92, 0
2, 74440, Note_on_c, 1, 61, 127
2, 74440, Note_on_c, 1, 68, 127
2, 74440, Note_on_c, 1, 73, 127
2, 74440, Note_on_c, 1, 76, 127
2, 74440, Note_on_c, 1, 80, 127
2, 74440, Note_on_c, 1, 88, 127
2, 74960, Note_on_c, 1, 37, 127
2, 74960, Note_on_c, 1, 49, 127
2, 74960, Note_on_c, 1, 59, 127
2, 74960, Note_off_c, 1, 61, 0
2, 74960, Note_on_c, 1, 65, 127
2, 74960, Note_off_c, 1, 68, 0
2, 74960, Note_off_c, 1, 73, 0
2, 74960, Note_off_c, 1, 76, 0
2, 74960, Note_off_c, 1, 80, 0
2, 74960, Note_off_c, 1, 88, 0
2, 75000, Note_off_c, 1, 37, 0
2, 75000, Note_off_c, 1, 49, 0
2, 75000, Note_off_c, 1, 59, 0
2, 75000, Note_off_c, 1, 65, 0
2, 75040, Note_on_c, 1, 46, 127
2, 75040, Note_on_c, 1, 54, 127
2, 75040, Note_on_c, 1, 88, 127
2, 75080, Note_off_c, 1, 46, 0
2, 75080, Note_on_c, 1, 51, 127
2, 75080, Note_off_c, 1, 54, 0
2, 75080, Note_off_c, 1, 88, 0
2, 75080, Note_on_c, 1, 92, 127
2, 75080, Note_on_c, 1, 93, 127
2, 75120, Note_off_c, 1, 51, 0
2, 75120, Note_on_c, 1, 54, 127
2, 75120, Note_on_c, 1, 63, 127
2, 75120, Note_on_c, 1, 66, 127
2, 75120, Note_on_c, 1, 75, 127
2, 75120, Note_on_c, 1, 78, 127
2, 75120, Note_off_c, 1, 92, 0
2, 75120, Note_off_c, 1, 93, 0
2, 75160, Note_on_c, 1, 36, 127
2, 75160, Note_off_c, 1, 54, 0
2, 75160, Note_on_c, 1, 58, 127
2, 75160, Note_off_c, 1, 75, 0
2, 75160, Note_off_c, 1, 78, 0
2, 75200, Note_off_c, 1, 36, 0
2, 75200, Note_on_c, 1, 56, 127
2, 75200, Note_on_c, 1, 62, 127
2, 75200, Note_off_c, 1, 63, 0
2, 75200, Note_off_c, 1, 66, 0
2, 75200, Note_on_c, 1, 82, 127
2, 75240, Note_on_c, 1, 39, 127
2, 75240, Note_off_c, 1, 56, 0
2, 75240, Note_off_c, 1, 58, 0
2, 75240, Note_off_c, 1, 62, 0
2, 75240, Note_on_c, 1, 79, 127
2, 75240, Note_off_c, 1, 82, 0
2, 75240, Note_on_c, 1, 85, 127
2, 75240, Note_on_c, 1, 91, 127
2, 75280, Note_off_c, 1, 39, 0
2, 75280, Note_on_c, 1, 42, 127
2, 75280, Note_on_c, 1, 49, 127
2, 75280, Note_off_c, 1, 79, 0
2, 75280, Note_off_c, 1, 85, 0
2, 75280, Note_off_c, 1, 91, 0
2, 75320, Note_on_c, 1, 32, 127
2, 75320, Note_off_c, 1, 42, 0
2, 75320, Note_off_c, 1, 49, 0
2, 75320, Note_on_c, 1, 51, 127
2, 75320, Note_on_c, 1, 56, 127
2, 75560, Note_off_c, 1, 32, 0
2, 75560, Note_off_c, 1, 51, 0
2, 75560, Note_off_c, 1, 56, 0
2, 75680, Note_on_c, 1, 44, 127
2, 75680, Note_on_c, 1, 49, 127
2, 75680, Note_on_c, 1, 52, 127
2, 75920, Note_off_c, 1, 44, 0
2, 75920, Note_off_c, 1, 49, 0
2, 75920, Note_off_c, 1, 52, 0
2, 75960, Note_on_c, 1, 37, 127
2, 75960, Note_on_c, 1, 40, 127
2, 75960, Note_on_c, 1, 45, 127
2, 75960, Note_on_c, 1, 49, 127
2, 75960, Note_on_c, 1, 76, 127
2, 75960, Note_on_c, 1, 81, 127
2, 75960, Note_on_c, 1, 85, 127
2, 75960, Note_on_c, 1, 88, 127
2, 76200, Note_off_c, 1, 37, 0
2, 76200, Note_off_c, 1, 40, 0
2, 76200, Note_off_c, 1, 45, 0
2, 76200, Note_off_c, 1, 49, 0
2, 76200, Note_off_c, 1, 76, 0
2, 76200, Note_off_c, 1, 81, 0
2, 76200, Note_off_c, 1, 85, 0
2, 76200, Note_off_c, 1, 88, 0
2, 76240, Note_on_c, 1, 60, 127
2, 76240, Note_on_c, 1, 64, 127
2, 76240, Note_on_c, 1, 79, 127
2, 76240, Note_on_c, 1, 89, 127
2, 76520, Note_off_c, 1, 60, 0
2, 76520, Note_off_c, 1, 64, 0
2, 76520, Note_off_c, 1, 79, 0
2, 76520, Note_off_c, 1, 89, 0
2, 76560, Note_on_c, 1, 59, 127
2, 76560, Note_on_c, 1, 66, 127
2, 76560, Note_on_c, 1, 82, 127
2, 76560, Note_on_c, 1, 85, 127
2, 76800, Note_off_c, 1, 59, 0
2, 76800, Note_off_c, 1, 66, 0
2, 76800, Note_off_c, 1, 82, 0
2, 76800, Note_off_c, 1, 85, 0
2, 76840, Note_on_c, 1, 51, 127
2, 76840, Note_on_c, 1, 89, 127
2, 76840, Note_on_c, 1, 101, 127
2, 76960, Note_off_c, 1, 51, 0
2, 77000, Note_on_c, 1, 51, 127
2, 77040, Note_off_c, 1, 51, 0
2, 77080, Note_on_c, 1, 59, 127
2, 77080, Note_off_c, 1, 101, 0
2, 77120, Note_off_c, 1, 59, 0
2, 77120, Note_off_c, 1, 89, 0
2, 77160, Note_on_c, 1, 59, 127
2, 77160, Note_on_c, 1, 80, 127
2, 77160, Note_on_c, 1, 87, 127
2, 77160, Note_on_c, 1, 92, 127
2, 77480, Note_off_c, 1, 59, 0
2, 77480, Note_off_c, 1, 80, 0
2, 77480, Note_off_c, 1, 87, 0
2, 77480, Note_off_c, 1, 92, 0
2, 77520, Note_on_c, 1, 59, 127
2, 77520, Note_on_c, 1, 80, 127
2, 77520, Note_on_c, 1, 87, 127
2, 77520, Note_on_c, 1, 92, 127
2, 77600, Note_off_c, 1, 59, 0
2, 77640, Note_on_c, 1, 53, 127
2, 77640, Note_on_c, 1, 65, 127
2, 77640, Note_on_c, 1, 72, 127
2, 77640, Note_on_c, 1, 74, 127
2, 77640, Note_off_c, 1, 80, 0
2, 77640, Note_on_c, 1, 81, 127
2, 77640, Note_on_c, 1, 84, 127
2, 77640, Note_off_c, 1, 87, 0
2, 77640, Note_off_c, 1, 92, 0
2, 77680, Note_off_c, 1, 53, 0
2, 77680, Note_on_c, 1, 69, 127
2, 77680, Note_off_c, 1, 74, 0
2, 77680, Note_off_c, 1, 81, 0
2, 77680, Note_off_c, 1, 84, 0
2, 77680, Note_on_c, 1, 94, 127
2, 77720, Note_off_c, 1, 65, 0
2, 77720, Note_off_c, 1, 69, 0
2, 77720, Note_off_c, 1, 72, 0
2, 77720, Note_on_c, 1, 86, 127
2, 77720, Note_on_c, 1, 87, 127
2, 77720, Note_on_c, 1, 92, 127
2, 77760, Note_off_c, 1, 86, 0
2, 77760, Note_off_c, 1, 87, 0
2, 77760, Note_off_c, 1, 92, 0
2, 77760, Note_off_c, 1, 94, 0
2, 77800, Note_on_c, 1, 55, 127
2, 77800, Note_on_c, 1, 60, 127
2, 77800, Note_on_c, 1, 64, 127
2, 77800, Note_on_c, 1, 69, 127
2, 77800, Note_on_c, 1, 78, 127
2, 77800, Note_on_c, 1, 81, 127
2, 77840, Note_off_c, 1, 55, 0
2, 77840, Note_off_c, 1, 60, 0
2, 77840, Note_on_c, 1, 61, 127
2, 77840, Note_off_c, 1, 64, 0
2, 77840, Note_off_c, 1, 69, 0
2, 77840, Note_on_c, 1, 73, 127
2, 77840, Note_on_c, 1, 76, 127
2, 77840, Note_off_c, 1, 78, 0
2, 77840, Note_off_c, 1, 81, 0
2, 77840, Note_on_c, 1, 82, 127
2, 77880, Note_on_c, 1, 39, 127
2, 77880, Note_off_c, 1, 61, 0
2, 77880, Note_on_c, 1, 69, 127
2, 77880, Note_off_c, 1, 73, 0
2, 77880, Note_on_c, 1, 75, 127
2, 77880, Note_off_c, 1, 76, 0
2, 77880, Note_on_c, 1, 77, 127
2, 77880, Note_on_c, 1, 81, 127
2, 77880, Note_off_c, 1, 82, 0
2, 77920, Note_off_c, 1, 39, 0
2, 77920, Note_on_c, 1, 47, 127
2, 77920, Note_on_c, 1, 51, 127
2, 77920, Note_on_c, 1, 64, 127
2, 77920, Note_off_c, 1, 69, 0
2, 77920, Note_on_c, 1, 71, 127
2, 77920, Note_off_c, 1, 77, 0
2, 77920, Note_off_c, 1, 81, 0
2, 77960, Note_off_c, 1, 47, 0
2, 77960, Note_off_c, 1, 51, 0
2, 77960, Note_on_c, 1, 61, 127
2, 77960, Note_off_c, 1, 64, 0
2, 77960, Note_off_c, 1, 71, 0
2, 77960, Note_on_c, 1, 73, 127
2, 77960, Note_off_c, 1, 75, 0
2, 77960, Note_on_c, 1, 77, 127
2, 77960, Note_on_c, 1, 80, 127
2, 78000, Note_on_c, 1, 52, 127
2, 78000, Note_on_c, 1, 59, 127
2, 78000, Note_off_c, 1, 61, 0
2, 78000, Note_on_c, 1, 64, 127
2, 78000, Note_off_c, 1, 73, 0
2, 78000, Note_off_c, 1, 77, 0
2, 78000, Note_on_c, 1, 92, 127
2, 78040, Note_off_c, 1, 52, 0
2, 78040, Note_on_c, 1, 62, 127
2, 78040, Note_off_c, 1, 64, 0
2, 78040, Note_on_c, 1, 65, 127
2, 78040, Note_on_c, 1, 68, 127
2, 78040, Note_on_c, 1, 74, 127
2, 78040, Note_off_c, 1, 80, 0
2, 78040, Note_on_c, 1, 82, 127
2, 78040, Note_off_c, 1, 92, 0
2, 78080, Note_on_c, 1, 54, 127
2, 78080, Note_off_c, 1, 59, 0
2, 78080, Note_off_c, 1, 65, 0
2, 78080, Note_off_c, 1, 68, 0
2, 78080, Note_off_c, 1, 74, 0
2, 78080, Note_on_c, 1, 76, 127
2, 78080, Note_on_c, 1, 81, 127
2, 78080, Note_off_c, 1, 82, 0
2, 78080, Note_on_c, 1, 88, 127
2, 78120, Note_on_c, 1, 41, 127
2, 78120, Note_on_c, 1, 53, 127
2, 78120, Note_off_c, 1, 54, 0
2, 78120, Note_on_c, 1, 56, 127
2, 78120, Note_on_c, 1, 58, 127
2, 78120, Note_on_c, 1, 68, 127
2, 78120, Note_on_c, 1, 70, 127
2, 78120, Note_off_c, 1, 76, 0
2, 78120, Note_off_c, 1, 81, 0
2, 78120, Note_off_c, 1, 88, 0
2, 78160, Note_off_c, 1, 41, 0
2, 78160, Note_off_c, 1, 53, 0
2, 78160, Note_off_c, 1, 56, 0
2, 78160, Note_off_c, 1, 58, 0
2, 78160, Note_off_c, 1, 62, 0
2, 78160, Note_off_c, 1, 68, 0
2, 78160, Note_off_c, 1, 70, 0
2, 78240, Note_on_c, 1, 33, 127
2, 78240, Note_on_c, 1, 45, 127
2, 78240, Note_on_c, 1, 85, 127
2, 78240, Note_on_c, 1, 88, 127
2, 78240, Note_on_c, 1, 93, 127
2, 78240, Note_on_c, 1, 97, 127
2, 78280, Note_off_c, 1, 33, 0
2, 78280, Note_off_c, 1, 45, 0
2, 78280, Note_off_c, 1, 85, 0
2, 78280, Note_off_c, 1, 88, 0
2, 78280, Note_off_c, 1, 93, 0
2, 78280, Note_off_c, 1, 97, 0
2, 78400, Note_on_c, 1, 47, 127
2, 78400, Note_on_c, 1, 51, 127
2, 78400, Note_on_c, 1, 54, 127
2, 78400, Note_on_c, 1, 59, 127
2, 78400, Note_on_c, 1, 63, 127
2, 78400, Note_on_c, 1, 71, 127
2, 78440, Note_off_c, 1, 47, 0
2, 78440, Note_off_c, 1, 51, 0
2, 78440, Note_off_c, 1, 54, 0
2, 78440, Note_off_c, 1, 59, 0
2, 78440, Note_off_c, 1, 63, 0
2, 78440, Note_on_c, 1, 64, 127
2, 78440, Note_on_c, 1, 83, 127
2, 78440, Note_on_c, 1, 90, 127
2, 78480, Note_off_c, 1, 64, 0
2, 78480, Note_off_c, 1, 71, 0
2, 78480, Note_off_c, 1, 83, 0
2, 78480, Note_off_c, 1, 90, 0
2, 78520, Note_on_c, 1, 58, 127
2, 78520, Note_on_c, 1, 70, 127
2, 78520, Note_on_c, 1, 74, 127
2, 78520, Note_on_c, 1, 79, 127
2, 78800, Note_off_c, 1, 58, 0
2, 78800, Note_off_c, 1, 70, 0
2, 78800, Note_off_c, 1, 74, 0
2, 78800, Note_off_c, 1, 79, 0
2, 78840, Note_on_c, 1, 59, 127
2, 78840, Note_on_c, 1, 64, 127
2, 78840, Note_on_c, 1, 68, 127
2, 78840, Note_on_c, 1, 71, 127
2, 78840, Note_on_c, 1, 76, 127
2, 78840, Note_on_c, 1, 80, 127
2, 78840, Note_on_c, 1, 83, 127
2, 78840, Note_on_c, 1, 88, 127
2, 78960, Note_off_c, 1, 59, 0
2, 78960, Note_off_c, 1, 64, 0
2, 78960, Note_off_c, 1, 68, 0
2, 78960, Note_off_c, 1, 71, 0
2, 78960, Note_off_c, 1, 76, 0
2, 78960, Note_off_c, 1, 80, 0
2, 78960, Note_off_c, 1, 83, 0
2, 78960, Note_off_c, 1, 88, 0
2, 79120, Note_on_c, 1, 33, 127
2, 79120, Note_on_c, 1, 45, 127
2, 79120, Note_on_c, 1, 69, 127
2, 79120, Note_on_c, 1, 73, 127
2, 79120, Note_on_c, 1, 76, 127
2, 79120, Note_on_c, 1, 81, 127
2, 79400, Note_off_c, 1, 33, 0
2, 79400, Note_off_c, 1, 45, 0
2, 79400, Note_off_c, 1, 69, 0
2, 79400, Note_off_c, 1, 73, 0
2, 79400, Note_off_c, 1, 76, 0
2, 79400, Note_off_c, 1, 81, 0
2, 79600, Note_on_c, 1, 42, 127
2, 79600, Note_on_c, 1, 49, 127
2, 79600, Note_on_c, 1, 54, 127
2, 79600, Note_on_c, 1, 70, 127
2, 79600, Note_on_c, 1, 73, 127
2, 79600, Note_on_c, 1, 78, 127
2, 79600, Note_on_c, 1, 82, 127
2, 79880, Note_off_c, 1, 42, 0
2, 79880, Note_off_c, 1, 49, 0
2, 79880, Note_off_c, 1, 54, 0
2, 79880, Note_off_c, 1, 70, 0
2, 79880, Note_off_c, 1, 73, 0
2, 79880, Note_off_c, 1, 78, 0
2, 79880, Note_off_c, 1, 82, 0
2, 79920, Note_on_c, 1, 37, 127
2, 79920, Note_on_c, 1, 49, 127
2, 79920, Note_on_c, 1, 68, 127
2, 79920, Note_on_c, 1, 71, 127
2, 79920, Note_on_c, 1, 77, 127
2, 79920, Note_on_c, 1, 80, 127
2, 79960, Note_off_c, 1, 37, 0
2, 79960, Note_off_c, 1, 49, 0
2, 79960, Note_off_c, 1, 68, 0
2, 79960, Note_off_c, 1, 71, 0
2, 79960, Note_off_c, 1, 77, 0
2, 79960, Note_off_c, 1, 80, 0
2, 80040, Note_on_c, 1, 30, 127
2, 80040, Note_on_c, 1, 42, 127
2, 80040, Note_on_c, 1, 66, 127
2, 80040, Note_on_c, 1, 70, 127
2, 80040, Note_on_c, 1, 73, 127
2, 80040, Note_on_c, 1, 78, 127
2, 80080, Note_off_c, 1, 30, 0
2, 80080, Note_off_c, 1, 42, 0
2, 80080, Note_off_c, 1, 66, 0
2, 80080, Note_off_c, 1, 70, 0
2, 80080, Note_off_c, 1, 73, 0
2, 80080, Note_off_c, 1, 78, 0
2, 80200, Note_on_c, 1, 37, 127
2, 80200, Note_on_c, 1, 49, 127
2, 80200, Note_on_c, 1, 68, 127
2, 80200, Note_on_c, 1, 77, 127
2, 80200, Note_on_c, 1, 80, 127
2, 80240, Note_off_c, 1, 37, 0
2, 80240, Note_off_c, 1, 49, 0
2, 80240, Note_off_c, 1, 68, 0
2, 80240, Note_off_c, 1, 77, 0
2, 80240, Note_off_c, 1, 80, 0
2, 80480, Note_on_c, 1, 37, 127
2, 80480, Note_on_c, 1, 49, 127
2, 80480, Note_on_c, 1, 68, 127
2, 80480, Note_on_c, 1, 77, 127
2, 80480, Note_on_c, 1, 80, 127
2, 80520, Note_off_c, 1, 37, 0
2, 80520, Note_off_c, 1, 49, 0
2, 80520, Note_off_c, 1, 68, 0
2, 80520, Note_off_c, 1, 77, 0
2, 80520, Note_off_c, 1, 80, 0
2, 80760, Note_on_c, 1, 42, 127
2, 80760, Note_on_c, 1, 54, 127
2, 80760, Note_on_c, 1, 63, 127
2, 80760, Note_on_c, 1, 70, 127
2, 80760, Note_on_c, 1, 75, 127
2, 81040, Note_off_c, 1, 42, 0
2, 81040, Note_off_c, 1, 54, 0
2, 81040, Note_off_c, 1, 63, 0
2, 81040, Note_off_c, 1, 70, 0
2, 81040, Note_off_c, 1, 75, 0
2, 81360, Note_on_c, 1, 36, 127
2, 81360, Note_on_c, 1, 43, 127
2, 81360, Note_on_c, 1, 48, 127
2, 81360, Note_on_c, 1, 52, 127
2, 81360, Note_on_c, 1, 55, 127
2, 81360, Note_on_c, 1, 64, 127
2, 81560, Note_off_c, 1, 36, 0
2, 81560, Note_off_c, 1, 43, 0
2, 81560, Note_off_c, 1, 48, 0
2, 81560, Note_off_c, 1, 52, 0
2, 81560, Note_off_c, 1, 55, 0
2, 81560, Note_off_c, 1, 64, 0
2, 81600, Note_on_c, 1, 36, 127
2, 81600, Note_on_c, 1, 43, 127
2, 81600, Note_on_c, 1, 48, 127
2, 81600, Note_on_c, 1, 52, 127
2, 81600, Note_on_c, 1, 55, 127
2, 81600, Note_on_c, 1, 64, 127
2, 81640, Note_off_c, 1, 36, 0
2, 81640, Note_off_c, 1, 43, 0
2, 81640, Note_off_c, 1, 48, 0
2, 81640, Note_off_c, 1, 52, 0
2, 81640, Note_off_c, 1, 55, 0
2, 81640, Note_off_c, 1, 64, 0
2, 82000, Note_on_c, 1, 49, 127
2, 82000, Note_on_c, 1, 54, 127
2, 82000, Note_on_c, 1, 76, 127
2, 82000, Note_on_c, 1, 78, 127
2, 82000, Note_on_c, 1, 82, 127
2, 82520, Note_off_c, 1, 82, 0
2, 82800, Note_off_c, 1, 49, 0
2, 82800, Note_off_c, 1, 54, 0
2, 82800, Note_off_c, 1, 76, 0
2, 82800, Note_off_c, 1, 78, 0
2, 82880, Note_on_c, 1, 51, 127
2, 82880, Note_on_c, 1, 54, 127
2, 82880, Note_on_c, 1, 85, 127
2, 83080, Note_off_c, 1, 54, 0
2, 83080, Note_off_c, 1, 85, 0
2, 83160, Note_on_c, 1, 54, 127
2, 83160, Note_on_c, 1, 78, 127
2, 83160, Note_on_c, 1, 83, 127
2, 83360, Note_off_c, 1, 51, 0
2, 83360, Note_off_c, 1, 54, 0
2, 83360, Note_off_c, 1, 78, 0
2, 83360, Note_off_c, 1, 83, 0
2, 83440, Note_on_c, 1, 46, 127
2, 83440, Note_on_c, 1, 54, 127
2, 83440, Note_on_c, 1, 76, 127
2, 83440, Note_on_c, 1, 78, 127
2, 83440, Note_on_c, 1, 85, 127
2, 83640, Note_off_c, 1, 46, 0
2, 83640, Note_off_c, 1, 54, 0
2, 83640, Note_off_c, 1, 76, 0
2, 83640, Note_off_c, 1, 78, 0
2, 83640, Note_off_c, 1, 85, 0
2, 83720, Note_on_c, 1, 47, 127
2, 83720, Note_on_c, 1, 54, 127
2, 83720, Note_on_c, 1, 75, 127
2, 83720, Note_on_c, 1, 78, 127
2, 83720, Note_on_c, 1, 87, 127
2, 83880, Note_off_c, 1, 47, 0
2, 83880, Note_off_c, 1, 54, 0
2, 83880, Note_off_c, 1, 75, 0
2, 83880, Note_off_c, 1, 78, 0
2, 83880, Note_off_c, 1, 87, 0
2, 83920, Note_on_c, 1, 47, 127
2, 83920, Note_on_c, 1, 54, 127
2, 83920, Note_on_c, 1, 75, 127
2, 83920, Note_on_c, 1, 78, 127
2, 83920, Note_on_c, 1, 87, 127
2, 84160, Note_off_c, 1, 87, 0
2, 84200, Note_on_c, 1, 88, 127
2, 84320, Note_off_c, 1, 47, 0
2, 84320, Note_off_c, 1, 54, 0
2, 84320, Note_off_c, 1, 75, 0
2, 84320, Note_off_c, 1, 78, 0
2, 84320, Note_off_c, 1, 88, 0
2, 84360, Note_on_c, 1, 46, 127
2, 84360, Note_on_c, 1, 51, 127
2, 84360, Note_on_c, 1, 75, 127
2, 84360, Note_on_c, 1, 79, 127
2, 84360, Note_on_c, 1, 87, 127
2, 84600, Note_off_c, 1, 51, 0
2, 84600, Note_off_c, 1, 75, 0
2, 84600, Note_off_c, 1, 79, 0
2, 84600, Note_off_c, 1, 87, 0
2, 84640, Note_on_c, 1, 51, 127
2, 84640, Note_on_c, 1, 75, 127
2, 84640, Note_on_c, 1, 79, 127
2, 84640, Note_on_c, 1, 85, 127
2, 84920, Note_off_c, 1, 46, 0
2, 84920, Note_off_c, 1, 51, 0
2, 84920, Note_off_c, 1, 75, 0
2, 84920, Note_off_c, 1, 79, 0
2, 84920, Note_off_c, 1, 85, 0
2, 84960, Note_on_c, 1, 46, 127
2, 84960, Note_on_c, 1, 51, 127
2, 84960, Note_on_c, 1, 75, 127
2, 84960, Note_on_c, 1, 79, 127
2, 84960, Note_on_c, 1, 87, 127
2, 85120, Note_off_c, 1, 51, 0
2, 85120, Note_off_c, 1, 75, 0
2, 85120, Note_off_c, 1, 79, 0
2, 85120, Note_off_c, 1, 87, 0
2, 85240, Note_off_c, 1, 46, 0
2, 85240, Note_on_c, 1, 47, 127
2, 85240, Note_on_c, 1, 50, 127
2, 85240, Note_on_c, 1, 59, 127
2, 85240, Note_on_c, 1, 62, 127
2, 85240, Note_on_c, 1, 67, 127
2, 85400, Note_on_c, 1, 29, 127
2, 85400, Note_off_c, 1, 47, 0
2, 85400, Note_off_c, 1, 50, 0
2, 85400, Note_off_c, 1, 59, 0
2, 85400, Note_off_c, 1, 62, 0
2, 85400, Note_off_c, 1, 67, 0
2, 85440, Note_off_c, 1, 29, 0
2, 85440, Note_on_c, 1, 32, 127
2, 85440, Note_on_c, 1, 57, 127
2, 85440, Note_on_c, 1, 69, 127
2, 85480, Note_off_c, 1, 32, 0
2, 85480, Note_off_c, 1, 57, 0
2, 85480, Note_off_c, 1, 69, 0
2, 85520, Note_on_c, 1, 55, 127
2, 85520, Note_on_c, 1, 63, 127
2, 85520, Note_on_c, 1, 79, 127
2, 85520, Note_on_c, 1, 83, 127
2, 85520, Note_on_c, 1, 91, 127
2, 85560, Note_on_c, 1, 44, 127
2, 85560, Note_off_c, 1, 55, 0
2, 85560, Note_on_c, 1, 56, 127
2, 85560, Note_off_c, 1, 63, 0
2, 85560, Note_on_c, 1, 78, 127
2, 85560, Note_off_c, 1, 79, 0
2, 85560, Note_on_c, 1, 81, 127
2, 85560, Note_off_c, 1, 83, 0
2, 85560, Note_on_c, 1, 85, 127
2, 85560, Note_off_c, 1, 91, 0
2, 85600, Note_off_c, 1, 44, 0
2, 85600, Note_on_c, 1, 49, 127
2, 85600, Note_on_c, 1, 68, 127
2, 85600, Note_on_c, 1, 73, 127
2, 85600, Note_on_c, 1, 76, 127
2, 85600, Note_off_c, 1, 78, 0
2, 85600, Note_on_c, 1, 80, 127
2, 85600, Note_off_c, 1, 81, 0
2, 85600, Note_off_c, 1, 85, 0
2, 85640, Note_off_c, 1, 49, 0
2, 85640, Note_on_c, 1, 50, 127
2, 85640, Note_off_c, 1, 56, 0
2, 85640, Note_on_c, 1, 59, 127
2, 85640, Note_off_c, 1, 68, 0
2, 85640, Note_on_c, 1, 71, 127
2, 85640, Note_off_c, 1, 73, 0
2, 85640, Note_off_c, 1, 76, 0
2, 85640, Note_off_c, 1, 80, 0
2, 85640, Note_on_c, 1, 83, 127
2, 85680, Note_on_c, 1, 48, 127
2, 85680, Note_off_c, 1, 50, 0
2, 85680, Note_on_c, 1, 53, 127
2, 85680, Note_off_c, 1, 59, 0
2, 85680, Note_on_c, 1, 60, 127
2, 85680, Note_on_c, 1, 63, 127
2, 85680, Note_on_c, 1, 65, 127
2, 85680, Note_off_c, 1, 71, 0
2, 85680, Note_off_c, 1, 83, 0
2, 85720, Note_off_c, 1, 48, 0
2, 85720, Note_on_c, 1, 52, 127
2, 85720, Note_off_c, 1, 53, 0
2, 85720, Note_on_c, 1, 55, 127
2, 85720, Note_on_c, 1, 59, 127
2, 85720, Note_off_c, 1, 60, 0
2, 85720, Note_off_c, 1, 63, 0
2, 85720, Note_on_c, 1, 64, 127
2, 85720, Note_off_c, 1, 65, 0
2, 85720, Note_on_c, 1, 91, 127
2, 85760, Note_off_c, 1, 52, 0
2, 85760, Note_off_c, 1, 55, 0
2, 85760, Note_off_c, 1, 59, 0
2, 85760, Note_off_c, 1, 64, 0
2, 85760, Note_off_c, 1, 91, 0
2, 85840, Note_on_c, 1, 43, 127
2, 85840, Note_on_c, 1, 62, 127
2, 85840, Note_on_c, 1, 65, 127
2, 85840, Note_on_c, 1, 69, 127
2, 85840, Note_on_c, 1, 72, 127
2, 85880, Note_off_c, 1, 43, 0
2, 85880, Note_on_c, 1, 54, 127
2, 85880, Note_on_c, 1, 58, 127
2, 85880, Note_off_c, 1, 62, 0
2, 85880, Note_on_c, 1, 64, 127
2, 85880, Note_off_c, 1, 65, 0
2, 85880, Note_off_c, 1, 69, 0
2, 85880, Note_off_c, 1, 72, 0
2, 85880, Note_on_c, 1, 73, 127
2, 85880, Note_on_c, 1, 76, 127
2, 85920, Note_off_c, 1, 54, 0
2, 85920, Note_off_c, 1, 58, 0
2, 85920, Note_off_c, 1, 64, 0
2, 85920, Note_off_c, 1, 73, 0
2, 85920, Note_off_c, 1, 76, 0
2, 85920, Note_on_c, 1, 83, 127
2, 85920, Note_on_c, 1, 86, 127
2, 85920, Note_on_c, 1, 98, 127
2, 85920, Note_on_c, 1, 100, 127
2, 85960, Note_on_c, 1, 49, 127
2, 85960, Note_on_c, 1, 54, 127
2, 85960, Note_on_c, 1, 60, 127
2, 85960, Note_on_c, 1, 73, 127
2, 85960, Note_off_c, 1, 83, 0
2, 85960, Note_off_c, 1, 86, 0
2, 85960, Note_off_c, 1, 98, 0
2, 85960, Note_off_c, 1, 100, 0
2, 86000, Note_off_c, 1, 49, 0
2, 86000, Note_on_c, 1, 50, 127
2, 86000, Note_off_c, 1, 54, 0
2, 86000, Note_off_c, 1, 60, 0
2, 86000, Note_on_c, 1, 79, 127
2, 86040, Note_off_c, 1, 50, 0
2, 86040, Note_off_c, 1, 73, 0
2, 86040, Note_off_c, 1, 79, 0
2, 86080, Note_on_c, 1, 45, 127
2, 86080, Note_on_c, 1, 48, 127
2, 86080, Note_on_c, 1, 54, 127
2, 86080, Note_on_c, 1, 71, 127
2, 86120, Note_off_c, 1, 45, 0
2, 86120, Note_off_c, 1, 48, 0
2, 86120, Note_off_c, 1, 54, 0
2, 86120, Note_off_c, 1, 71, 0
2, 86160, Note_on_c, 1, 45, 127
2, 86160, Note_on_c, 1, 57, 127
2, 86160, Note_on_c, 1, 60, 127
2, 86160, Note_on_c, 1, 62, 127
2, 86160, Note_on_c, 1, 66, 127
2, 86160, Note_on_c, 1, 72, 127
2, 86160, Note_on_c, 1, 74, 127
2, 86440, Note_off_c, 1, 45, 0
2, 86440, Note_off_c, 1, 57, 0
2, 86440, Note_off_c, 1, 60, 0
2, 86440, Note_off_c, 1, 62, 0
2, 86440, Note_off_c, 1, 66, 0
2, 86440, Note_off_c, 1, 72, 0
2, 86440, Note_off_c, 1, 74, 0
2, 86480, Note_on_c, 1, 49, 127
2, 86480, Note_on_c, 1, 58, 127
2, 86480, Note_on_c, 1, 61, 127
2, 86480, Note_on_c, 1, 66, 127
2, 86480, Note_on_c, 1, 70, 127
2, 86480, Note_on_c, 1, 78, 127
2, 86720, Note_off_c, 1, 49, 0
2, 86720, Note_off_c, 1, 58, 0
2, 86720, Note_off_c, 1, 61, 0
2, 86720, Note_off_c, 1, 66, 0
2, 86720, Note_off_c, 1, 70, 0
2, 86720, Note_off_c, 1, 78, 0
2, 86760, Note_on_c, 1, 49, 127
2, 86760, Note_on_c, 1, 58, 127
2, 86760, Note_on_c, 1, 61, 127
2, 86760, Note_on_c, 1, 66, 127
2, 86760, Note_on_c, 1, 70, 127
2, 86760, Note_on_c, 1, 78, 127
2, 87000, Note_off_c, 1, 49, 0
2, 87000, Note_off_c, 1, 58, 0
2, 87000, Note_off_c, 1, 61, 0
2, 87000, Note_off_c, 1, 66, 0
2, 87000, Note_off_c, 1, 70, 0
2, 87000, Note_off_c, 1, 78, 0
2, 87040, Note_on_c, 1, 45, 127
2, 87040, Note_on_c, 1, 52, 127
2, 87040, Note_on_c, 1, 57, 127
2, 87040, Note_on_c, 1, 73, 127
2, 87040, Note_on_c, 1, 76, 127
2, 87040, Note_on_c, 1, 85, 127
2, 87160, Note_off_c, 1, 45, 0
2, 87160, Note_off_c, 1, 52, 0
2, 87160, Note_off_c, 1, 57, 0
2, 87160, Note_off_c, 1, 73, 0
2, 87160, Note_off_c, 1, 76, 0
2, 87160, Note_off_c, 1, 85, 0
2, 87320, Note_on_c, 1, 41, 127
2, 87320, Note_on_c, 1, 53, 127
2, 87320, Note_on_c, 1, 70, 127
2, 87320, Note_on_c, 1, 74, 127
2, 87320, Note_on_c, 1, 82, 127
2, 87560, Note_off_c, 1, 41, 0
2, 87560, Note_off_c, 1, 53, 0
2, 87560, Note_off_c, 1, 70, 0
2, 87560, Note_off_c, 1, 74, 0
2, 87560, Note_off_c, 1, 82, 0
2, 87600, Note_on_c, 1, 41, 127
2, 87600, Note_on_c, 1, 44, 127
2, 87600, Note_on_c, 1, 48, 127
2, 87600, Note_on_c, 1, 53, 127
2, 87600, Note_on_c, 1, 80, 127
2, 87600, Note_on_c, 1, 84, 127
2, 87600, Note_on_c, 1, 89, 127
2, 87600, Note_on_c, 1, 92, 127
2, 87960, Note_off_c, 1, 41, 0
2, 87960, Note_off_c, 1, 44, 0
2, 87960, Note_off_c, 1, 48, 0
2, 87960, Note_off_c, 1, 53, 0
2, 87960, Note_off_c, 1, 80, 0
2, 87960, Note_off_c, 1, 84, 0
2, 87960, Note_off_c, 1, 89, 0
2, 87960, Note_off_c, 1, 92, 0
2, 88000, Note_on_c, 1, 41, 127
2, 88000, Note_on_c, 1, 44, 127
2, 88000, Note_on_c, 1, 48, 127
2, 88000, Note_on_c, 1, 53, 127
2, 88000, Note_on_c, 1, 80, 127
2, 88000, Note_on_c, 1, 84, 127
2, 88000, Note_on_c, 1, 89, 127
2, 88000, Note_on_c, 1, 92, 127
2, 88200, Note_off_c, 1, 41, 0
2, 88200, Note_off_c, 1, 44, 0
2, 88200, Note_off_c, 1, 48, 0
2, 88200, Note_off_c, 1, 53, 0
2, 88200, Note_off_c, 1, 80, 0
2, 88200, Note_off_c, 1, 84, 0
2, 88200, Note_off_c, 1, 89, 0
2, 88200, Note_off_c, 1, 92, 0
2, 88240, Note_on_c, 1, 48, 127
2, 88240, Note_on_c, 1, 60, 127
2, 88240, Note_on_c, 1, 72, 127
2, 88240, Note_on_c, 1, 84, 127
2, 88480, Note_on_c, 1, 41, 127
2, 88480, Note_off_c, 1, 60, 0
2, 88480, Note_off_c, 1, 72, 0
2, 88480, Note_off_c, 1, 84, 0
2, 88520, Note_off_c, 1, 48, 0
2, 88520, Note_on_c, 1, 53, 127
2, 88520, Note_on_c, 1, 74, 127
2, 88520, Note_on_c, 1, 81, 127
2, 88520, Note_on_c, 1, 86, 127
2, 88680, Note_off_c, 1, 41, 0
2, 88680, Note_on_c, 1, 43, 127
2, 88680, Note_off_c, 1, 53, 0
2, 88680, Note_on_c, 1, 55, 127
2, 88680, Note_on_c, 1, 62, 127
2, 88680, Note_on_c, 1, 67, 127
2, 88680, Note_on_c, 1, 70, 127
2, 88680, Note_off_c, 1, 81, 0
2, 88680, Note_off_c, 1, 86, 0
2, 88720, Note_on_c, 1, 36, 127
2, 88720, Note_off_c, 1, 43, 0
2, 88720, Note_on_c, 1, 48, 127
2, 88720, Note_off_c, 1, 55, 0
2, 88720, Note_on_c, 1, 60, 127
2, 88720, Note_off_c, 1, 62, 0
2, 88720, Note_off_c, 1, 67, 0
2, 88720, Note_off_c, 1, 70, 0
2, 88720, Note_off_c, 1, 74, 0
2, 88760, Note_off_c, 1, 36, 0
2, 88760, Note_off_c, 1, 48, 0
2, 88760, Note_on_c, 1, 49, 127
2, 88760, Note_on_c, 1, 54, 127
2, 88760, Note_on_c, 1, 56, 127
2, 88760, Note_off_c, 1, 60, 0
2, 88760, Note_on_c, 1, 63, 127
2, 88760, Note_on_c, 1, 68, 127
2, 88800, Note_off_c, 1, 49, 0
2, 88800, Note_off_c, 1, 54, 0
2, 88800, Note_off_c, 1, 56, 0
2, 88800, Note_off_c, 1, 63, 0
2, 88800, Note_off_c, 1, 68, 0
2, 88840, Note_on_c, 1, 50, 127
2, 88840, Note_on_c, 1, 56, 127
2, 88840, Note_on_c, 1, 59, 127
2, 88840, Note_on_c, 1, 62, 127
2, 88840, Note_on_c, 1, 68, 127
2, 88840, Note_on_c, 1, 71, 127
2, 88880, Note_off_c, 1, 56, 0
2, 88880, Note_on_c, 1, 57, 127
2, 88880, Note_off_c, 1, 59, 0
2, 88880, Note_off_c, 1, 62, 0
2, 88880, Note_on_c, 1, 65, 127
2, 88880, Note_off_c, 1, 68, 0
2, 88880, Note_off_c, 1, 71, 0
2, 88880, Note_on_c, 1, 74, 127
2, 88880, Note_on_c, 1, 77, 127
2, 88880, Note_on_c, 1, 81, 127
2, 88880, Note_on_c, 1, 86, 127
2, 88920, Note_on_c, 1, 56, 127
2, 88920, Note_off_c, 1, 57, 0
2, 88920, Note_on_c, 1, 59, 127
2, 88920, Note_on_c, 1, 62, 127
2, 88920, Note_off_c, 1, 65, 0
2, 88920, Note_on_c, 1, 68, 127
2, 88920, Note_on_c, 1, 71, 127
2, 88920, Note_off_c, 1, 74, 0
2, 88920, Note_off_c, 1, 77, 0
2, 88920, Note_off_c, 1, 81, 0
2, 88920, Note_off_c, 1, 86, 0
2, 89040, Note_off_c, 1, 50, 0
2, 89040, Note_off_c, 1, 56, 0
2, 89040, Note_off_c, 1, 59, 0
2, 89040, Note_off_c, 1, 62, 0
2, 89040, Note_off_c, 1, 68, 0
2, 89040, Note_off_c, 1, 71, 0
2, 89120, Note_on_c, 1, 38, 127
2, 89120, Note_on_c, 1, 42, 127
2, 89120, Note_on_c, 1, 50, 127
2, 89360, Note_off_c, 1, 38, 0
2, 89360, Note_off_c, 1, 42, 0
2, 89360, Note_off_c, 1, 50, 0
2, 89400, Note_on_c, 1, 37, 127
2, 89400, Note_on_c, 1, 52, 127
2, 89400, Note_on_c, 1, 56, 127
2, 89400, Note_on_c, 1, 61, 127
2, 89400, Note_on_c, 1, 64, 127
2, 89640, Note_off_c, 1, 37, 0
2, 89640, Note_off_c, 1, 52, 0
2, 89640, Note_off_c, 1, 56, 0
2, 89640, Note_off_c, 1, 61, 0
2, 89640, Note_off_c, 1, 64, 0
2, 89680, Note_on_c, 1, 36, 127
2, 89680, Note_on_c, 1, 52, 127
2, 89680, Note_on_c, 1, 56, 127
2, 89680, Note_on_c, 1, 61, 127
2, 89680, Note_on_c, 1, 64, 127
2, 89960, Note_off_c, 1, 36, 0
2, 89960, Note_off_c, 1, 52, 0
2, 89960, Note_off_c, 1, 56, 0
2, 89960, Note_off_c, 1, 61, 0
2, 89960, Note_off_c, 1, 64, 0
2, 90040, Note_on_c, 1, 53, 127
2, 90040, Note_on_c, 1, 55, 127
2, 90040, Note_on_c, 1, 58, 127
2, 90040, Note_on_c, 1, 79, 127
2, 90080, Note_on_c, 1, 46, 127
2, 90080, Note_on_c, 1, 48, 127
2, 90080, Note_on_c, 1, 52, 127
2, 90080, Note_off_c, 1, 53, 0
2, 90080, Note_off_c, 1, 55, 0
2, 90080, Note_off_c, 1, 58, 0
2, 90080, Note_on_c, 1, 60, 127
2, 90080, Note_on_c, 1, 64, 127
2, 90080, Note_on_c, 1, 72, 127
2, 90080, Note_off_c, 1, 79, 0
2, 90120, Note_off_c, 1, 46, 0
2, 90120, Note_on_c, 1, 47, 127
2, 90120, Note_off_c, 1, 48, 0
2, 90120, Note_on_c, 1, 50, 127
2, 90120, Note_off_c, 1, 52, 0
2, 90120, Note_on_c, 1, 56, 127
2, 90120, Note_on_c, 1, 59, 127
2, 90120, Note_off_c, 1, 60, 0
2, 90120, Note_on_c, 1, 62, 127
2, 90120, Note_off_c, 1, 64, 0
2, 90120, Note_on_c, 1, 68, 127
2, 90120, Note_off_c, 1, 72, 0
2, 90160, Note_on_c, 1, 42, 127
2, 90160, Note_off_c, 1, 47, 0
2, 90160, Note_on_c, 1, 49, 127
2, 90160, Note_off_c, 1, 50, 0
2, 90160, Note_on_c, 1, 52, 127
2, 90160, Note_on_c, 1, 54, 127
2, 90160, Note_off_c, 1, 56, 0
2, 90160, Note_on_c, 1, 58, 127
2, 90160, Note_off_c, 1, 59, 0
2, 90160, Note_on_c, 1, 61, 127
2, 90160, Note_off_c, 1, 62, 0
2, 90160, Note_off_c, 1, 68, 0
2, 90200, Note_off_c, 1, 42, 0
2, 90200, Note_off_c, 1, 49, 0
2, 90200, Note_off_c, 1, 52, 0
2, 90200, Note_off_c, 1, 54, 0
2, 90200, Note_on_c, 1, 55, 127
2, 90200, Note_off_c, 1, 58, 0
2, 90200, Note_off_c, 1, 61, 0
2, 90200, Note_on_c, 1, 67, 127
2, 90200, Note_on_c, 1, 88, 127
2, 90200, Note_on_c, 1, 91, 127
2, 90200, Note_on_c, 1, 95, 127
2, 90240, Note_off_c, 1, 55, 0
2, 90240, Note_off_c, 1, 67, 0
2, 90240, Note_on_c, 1, 68, 127
2, 90240, Note_on_c, 1, 77, 127
2, 90240, Note_on_c, 1, 80, 127
2, 90240, Note_on_c, 1, 85, 127
2, 90240, Note_off_c, 1, 88, 0
2, 90240, Note_off_c, 1, 91, 0
2, 90240, Note_on_c, 1, 92, 127
2, 90240, Note_off_c, 1, 95, 0
2, 90280, Note_on_c, 1, 60, 127
2, 90280, Note_on_c, 1, 63, 127
2, 90280, Note_on_c, 1, 66, 127
2, 90280, Note_off_c, 1, 68, 0
2, 90280, Note_on_c, 1, 74, 127
2, 90280, Note_off_c, 1, 77, 0
2, 90280, Note_on_c, 1, 78, 127
2, 90280, Note_off_c, 1, 80, 0
2, 90280, Note_off_c, 1, 85, 0
2, 90280, Note_off_c, 1, 92, 0
2, 90320, Note_on_c, 1, 43, 127
2, 90320, Note_on_c, 1, 47, 127
2, 90320, Note_on_c, 1, 49, 127
2, 90320, Note_on_c, 1, 52, 127
2, 90320, Note_off_c, 1, 60, 0
2, 90320, Note_off_c, 1, 63, 0
2, 90320, Note_off_c, 1, 66, 0
2, 90320, Note_off_c, 1, 74, 0
2, 90320, Note_off_c, 1, 78, 0
2, 90560, Note_on_c, 1, 35, 127
2, 90560, Note_off_c, 1, 43, 0
2, 90560, Note_off_c, 1, 49, 0
2, 90560, Note_off_c, 1, 52, 0
2, 90600, Note_off_c, 1, 35, 0
2, 90600, Note_on_c, 1, 43, 127
2, 90600, Note_on_c, 1, 49, 127
2, 90600, Note_on_c, 1, 52, 127
2, 90880, Note_off_c, 1, 43, 0
2, 90880, Note_off_c, 1, 47, 0
2, 90880, Note_off_c, 1, 49, 0
2, 90880, Note_off_c, 1, 52, 0
2, 90920, Note_on_c, 1, 38, 127
2, 90920, Note_on_c, 1, 50, 127
2, 90920, Note_on_c, 1, 56, 127
2, 90920, Note_on_c, 1, 59, 127
2, 90920, Note_on_c, 1, 65, 127
2, 90920, Note_on_c, 1, 68, 127
2, 91320, Note_off_c, 1, 38, 0
2, 91320, Note_off_c, 1, 50, 0
2, 91320, Note_off_c, 1, 56, 0
2, 91320, Note_off_c, 1, 59, 0
2, 91320, Note_off_c, 1, 65, 0
2, 91320, Note_off_c, 1, 68, 0
2, 91360, Note_on_c, 1, 50, 127
2, 91360, Note_on_c, 1, 59, 127
2, 91360, Note_on_c, 1, 66, 127
2, 91360, Note_on_c, 1, 69, 127
2, 91360, Note_on_c, 1, 81, 127
2, 91440, Note_off_c, 1, 50, 0
2, 91440, Note_off_c, 1, 59, 0
2, 91440, Note_off_c, 1, 66, 0
2, 91440, Note_off_c, 1, 69, 0
2, 91440, Note_off_c, 1, 81, 0
2, 91480, Note_on_c, 1, 50, 127
2, 91480, Note_on_c, 1, 59, 127
2, 91480, Note_on_c, 1, 66, 127
2, 91480, Note_on_c, 1, 69, 127
2, 91480, Note_on_c, 1, 81, 127
2, 91600, Note_off_c, 1, 81, 0
2, 91640, Note_on_c, 1, 81, 127
2, 91680, Note_on_c, 1, 78, 127
2, 91680, Note_off_c, 1, 81, 0
2, 91720, Note_off_c, 1, 78, 0
2, 91720, Note_on_c, 1, 81, 127
2, 91760, Note_off_c, 1, 81, 0
2, 91800, Note_off_c, 1, 50, 0
2, 91800, Note_off_c, 1, 59, 0
2, 91800, Note_on_c, 1, 65, 127
2, 91800, Note_off_c, 1, 66, 0
2, 91800, Note_off_c, 1, 69, 0
2, 91800, Note_on_c, 1, 71, 127
2, 91800, Note_on_c, 1, 86, 127
2, 91800, Note_on_c, 1, 93, 127
2, 92000, Note_off_c, 1, 65, 0
2, 92000, Note_off_c, 1, 71, 0
2, 92000, Note_off_c, 1, 86, 0
2, 92000, Note_off_c, 1, 93, 0
2, 92040, Note_on_c, 1, 65, 127
2, 92040, Note_on_c, 1, 71, 127
2, 92040, Note_on_c, 1, 86, 127
2, 92040, Note_on_c, 1, 93, 127
2, 92080, Note_off_c, 1, 65, 0
2, 92080, Note_off_c, 1, 71, 0
2, 92080, Note_off_c, 1, 86, 0
2, 92080, Note_off_c, 1, 93, 0
2, 92120, Note_on_c, 1, 47, 127
2, 92120, Note_on_c, 1, 58, 127
2, 92120, Note_on_c, 1, 64, 127
2, 92160, Note_off_c, 1, 64, 0
2, 92200, Note_on_c, 1, 45, 127
2, 92200, Note_off_c, 1, 47, 0
2, 92200, Note_on_c, 1, 52, 127
2, 92200, Note_off_c, 1, 58, 0
2, 92200, Note_on_c, 1, 83, 127
2, 92200, Note_on_c, 1, 91, 127
2, 92200, Note_on_c, 1, 95, 127
2, 92240, Note_off_c, 1, 45, 0
2, 92240, Note_on_c, 1, 47, 127
2, 92240, Note_off_c, 1, 52, 0
2, 92240, Note_on_c, 1, 58, 127
2, 92240, Note_off_c, 1, 83, 0
2, 92240, Note_off_c, 1, 91, 0
2, 92240, Note_off_c, 1, 95, 0
2, 92280, Note_on_c, 1, 64, 127
2, 92320, Note_off_c, 1, 64, 0
2, 92360, Note_off_c, 1, 47, 0
2, 92360, Note_off_c, 1, 58, 0
2, 92360, Note_on_c, 1, 69, 127
2, 92360, Note_on_c, 1, 75, 127
2, 92360, Note_on_c, 1, 78, 127
2, 92360, Note_on_c, 1, 87, 127
2, 92360, Note_on_c, 1, 90, 127
2, 92400, Note_on_c, 1, 47, 127
2, 92400, Note_on_c, 1, 58, 127
2, 92400, Note_off_c, 1, 69, 0
2, 92400, Note_off_c, 1, 75, 0
2, 92400, Note_off_c, 1, 78, 0
2, 92400, Note_off_c, 1, 87, 0
2, 92400, Note_off_c, 1, 90, 0
2, 92440, Note_on_c, 1, 54, 127
2, 92440, Note_on_c, 1, 66, 127
2, 92480, Note_off_c, 1, 54, 0
2, 92480, Note_off_c, 1, 66, 0
2, 92520, Note_off_c, 1, 58, 0
2, 92520, Note_on_c, 1, 59, 127
2, 92520, Note_on_c, 1, 63, 127
2, 92680, Note_off_c, 1, 59, 0
2, 92680, Note_off_c, 1, 63, 0
2, 92720, Note_on_c, 1, 59, 127
2, 92720, Note_on_c, 1, 63, 127
2, 92840, Note_off_c, 1, 59, 0
2, 92880, Note_on_c, 1, 56, 127
2, 92880, Note_off_c, 1, 63, 0
2, 92880, Note_on_c, 1, 68, 127
2, 92880, Note_on_c, 1, 75, 127
2, 93000, Note_off_c, 1, 56, 0
2, 93000, Note_off_c, 1, 75, 0
2, 93040, Note_on_c, 1, 62, 127
2, 93280, Note_off_c, 1, 62, 0
2, 93280, Note_off_c, 1, 68, 0
2, 93320, Note_on_c, 1, 40, 127
2, 93320, Note_on_c, 1, 43, 127
2, 93320, Note_on_c, 1, 52, 127
2, 93320, Note_on_c, 1, 71, 127
2, 93320, Note_on_c, 1, 83, 127
2, 93600, Note_off_c, 1, 40, 0
2, 93600, Note_off_c, 1, 43, 0
2, 93600, Note_off_c, 1, 47, 0
2, 93600, Note_off_c, 1, 52, 0
2, 93600, Note_off_c, 1, 71, 0
2, 93600, Note_off_c, 1, 83, 0
2, 93640, Note_on_c, 1, 43, 127
2, 93640, Note_on_c, 1, 47, 127
2, 93640, Note_on_c, 1, 52, 127
2, 93640, Note_on_c, 1, 91, 127
2, 93680, Note_off_c, 1, 43, 0
2, 93680, Note_off_c, 1, 47, 0
2, 93680, Note_off_c, 1, 52, 0
2, 93680, Note_on_c, 1, 59, 127
2, 93680, Note_on_c, 1, 62, 127
2, 93680, Note_on_c, 1, 73, 127
2, 93680, Note_on_c, 1, 78, 127
2, 93680, Note_off_c, 1, 91, 0
2, 93720, Note_on_c, 1, 37, 127
2, 93720, Note_off_c, 1, 59, 0
2, 93720, Note_off_c, 1, 62, 0
2, 93720, Note_on_c, 1, 71, 127
2, 93720, Note_off_c, 1, 73, 0
2, 93720, Note_on_c, 1, 74, 127
2, 93720, Note_off_c, 1, 78, 0
2, 93760, Note_off_c, 1, 37, 0
2, 93760, Note_on_c, 1, 44, 127
2, 93760, Note_on_c, 1, 46, 127
2, 93760, Note_on_c, 1, 49, 127
2, 93760, Note_on_c, 1, 51, 127
2, 93760, Note_off_c, 1, 71, 0
2, 93760, Note_off_c, 1, 74, 0
2, 93760, Note_on_c, 1, 79, 127
2, 93800, Note_on_c, 1, 33, 127
2, 93800, Note_off_c, 1, 44, 0
2, 93800, Note_off_c, 1, 46, 0
2, 93800, Note_off_c, 1, 49, 0
2, 93800, Note_off_c, 1, 51, 0
2, 93800, Note_on_c, 1, 53, 127
2, 93800, Note_on_c, 1, 56, 127
2, 93800, Note_on_c, 1, 59, 127
2, 93800, Note_off_c, 1, 79, 0
2, 93840, Note_off_c, 1, 33, 0
2, 93840, Note_on_c, 1, 45, 127
2, 93840, Note_on_c, 1, 48, 127
2, 93840, Note_on_c, 1, 51, 127
2, 93840, Note_off_c, 1, 53, 0
2, 93840, Note_on_c, 1, 54, 127
2, 93840, Note_off_c, 1, 56, 0
2, 93840, Note_off_c, 1, 59, 0
2, 93840, Note_on_c, 1, 78, 127
2, 93880, Note_off_c, 1, 45, 0
2, 93880, Note_on_c, 1, 47, 127
2, 93880, Note_off_c, 1, 48, 0
2, 93880, Note_off_c, 1, 51, 0
2, 93880, Note_off_c, 1, 54, 0
2, 93880, Note_off_c, 1, 78, 0
2, 93920, Note_off_c, 1, 47, 0
2, 93920, Note_on_c, 1, 50, 127
2, 93920, Note_on_c, 1, 60, 127
2, 93920, Note_on_c, 1, 74, 127
2, 93920, Note_on_c, 1, 78, 127
2, 94080, Note_off_c, 1, 50, 0
2, 94080, Note_off_c, 1, 60, 0
2, 94080, Note_off_c, 1, 74, 0
2, 94080, Note_off_c, 1, 78, 0
2, 94120, Note_on_c, 1, 50, 127
2, 94120, Note_on_c, 1, 60, 127
2, 94120, Note_on_c, 1, 74, 127
2, 94120, Note_on_c, 1, 78, 127
2, 94200, Note_off_c, 1, 50, 0
2, 94200, Note_off_c, 1, 60, 0
2, 94200, Note_off_c, 1, 74, 0
2, 94200, Note_off_c, 1, 78, 0
2, 94240, Note_on_c, 1, 47, 127
2, 94240, Note_on_c, 1, 55, 127
2, 94240, Note_on_c, 1, 67, 127
2, 94240, Note_on_c, 1, 71, 127
2, 94800, Note_off_c, 1, 55, 0
2, 94800, Note_off_c, 1, 67, 0
2, 94800, Note_off_c, 1, 71, 0
2, 94840, Note_on_c, 1, 35, 127
2, 94840, Note_off_c, 1, 47, 0
2, 94840, Note_on_c, 1, 71, 127
2, 94840, Note_on_c, 1, 74, 127
2, 94920, Note_off_c, 1, 35, 0
2, 95000, Note_on_c, 1, 47, 127
2, 95400, Note_off_c, 1, 71, 0
2, 95400, Note_off_c, 1, 74, 0
2, 95440, Note_on_c, 1, 50, 127
2, 95440, Note_on_c, 1, 62, 127
2, 95440, Note_on_c, 1, 64, 127
2, 96000, Note_off_c, 1, 50, 0
2, 96000, Note_off_c, 1, 62, 0
2, 96000, Note_off_c, 1, 64, 0
2, 96040, Note_on_c, 1, 42, 127
2, 96040, Note_off_c, 1, 47, 0
2, 96040, Note_on_c, 1, 61, 127
2, 96040, Note_on_c, 1, 67, 127
2, 96200, Note_off_c, 1, 42, 0
2, 96200, Note_off_c, 1, 61, 0
2, 96200, Note_off_c, 1, 67, 0
2, 96240, Note_on_c, 1, 42, 127
2, 96240, Note_on_c, 1, 61, 127
2, 96240, Note_on_c, 1, 67, 127
2, 96640, Note_off_c, 1, 42, 0
2, 96640, Note_off_c, 1, 61, 0
2, 96640, Note_off_c, 1, 67, 0
2, 96680, Note_on_c, 1, 38, 127
2, 96680, Note_on_c, 1, 40, 127
2, 96680, Note_on_c, 1, 47, 127
2, 96680, Note_on_c, 1, 52, 127
2, 96680, Note_on_c, 1, 56, 127
2, 96680, Note_on_c, 1, 59, 127
2, 96680, Note_on_c, 1, 64, 127
2, 97480, Note_off_c, 1, 38, 0
2, 97480, Note_off_c, 1, 40, 0
2, 97480, Note_on_c, 1, 41, 127
2, 97480, Note_off_c, 1, 47, 0
2, 97480, Note_on_c, 1, 48, 127
2, 97480, Note_off_c, 1, 52, 0
2, 97480, Note_off_c, 1, 56, 0
2, 97480, Note_on_c, 1, 58, 127
2, 97480, Note_off_c, 1, 59, 0
2, 97480, Note_on_c, 1, 60, 127
2, 97480, Note_on_c, 1, 63, 127
2, 97480, Note_off_c, 1, 64, 0
2, 97480, Note_on_c, 1, 67, 127
2, 97520, Note_off_c, 1, 41, 0
2, 97520, Note_off_c, 1, 48, 0
2, 97520, Note_off_c, 1, 58, 0
2, 97520, Note_off_c, 1, 60, 0
2, 97520, Note_off_c, 1, 63, 0
2, 97520, Note_off_c, 1, 67, 0
2, 97560, Note_on_c, 1, 54, 127
2, 97560, Note_on_c, 1, 78, 127
2, 97560, Note_on_c, 1, 90, 127
2, 97560, Note_on_c, 1, 93, 127
2, 97840, Note_on_c, 1, 38, 127
2, 97840, Note_on_c, 1, 66, 127
2, 97840, Note_on_c, 1, 70, 127
2, 97840, Note_off_c, 1, 78, 0
2, 97840, Note_off_c, 1, 90, 0
2, 97840, Note_off_c, 1, 93, 0
2, 97880, Note_on_c, 1, 47, 127
2, 97880, Note_on_c, 1, 50, 127
2, 97880, Note_off_c, 1, 54, 0
2, 97880, Note_on_c, 1, 62, 127
2, 97880, Note_off_c, 1, 66, 0
2, 97880, Note_off_c, 1, 70, 0
2, 98080, Note_off_c, 1, 38, 0
2, 98080, Note_off_c, 1, 47, 0
2, 98080, Note_off_c, 1, 50, 0
2, 98080, Note_off_c, 1, 62, 0
2, 98120, Note_on_c, 1, 38, 127
2, 98120, Note_on_c, 1, 47, 127
2, 98120, Note_on_c, 1, 50, 127
2, 98120, Note_on_c, 1, 62, 127
2, 98160, Note_off_c, 1, 47, 0
2, 98160, Note_off_c, 1, 50, 0
2, 98160, Note_off_c, 1, 62, 0
2, 98200, Note_on_c, 1, 35, 127
2, 98200, Note_off_c, 1, 38, 0
2, 98200, Note_on_c, 1, 42, 127
2, 98200, Note_on_c, 1, 78, 127
2, 98480, Note_off_c, 1, 35, 0
2, 98480, Note_off_c, 1, 42, 0
2, 98480, Note_off_c, 1, 78, 0
2, 98520, Note_on_c, 1, 35, 127
2, 98520, Note_on_c, 1, 42, 127
2, 98520, Note_on_c, 1, 78, 127
2, 99040, Note_off_c, 1, 35, 0
2, 99040, Note_off_c, 1, 42, 0
2, 99040, Note_on_c, 1, 66, 127
2, 99040, Note_off_c, 1, 78, 0
2, 99080, Note_off_c, 1, 66, 0
2, 99080, Note_on_c, 1, 83, 127
2, 99080, Note_on_c, 1, 86, 127
2, 99120, Note_on_c, 1, 56, 127
2, 99120, Note_on_c, 1, 75, 127
2, 99120, Note_off_c, 1, 86, 0
2, 99360, Note_off_c, 1, 56, 0
2, 99360, Note_off_c, 1, 75, 0
2, 99400, Note_on_c, 1, 56, 127
2, 99400, Note_on_c, 1, 75, 127
2, 99640, Note_off_c, 1, 56, 0
2, 99640, Note_off_c, 1, 75, 0
2, 99680, Note_on_c, 1, 61, 127
2, 99680, Note_on_c, 1, 76, 127
2, 99960, Note_off_c, 1, 61, 0
2, 100000, Note_on_c, 1, 71, 127
2, 100000, Note_on_c, 1, 80, 127
2, 100000, Note_off_c, 1, 83, 0
2, 100000, Note_on_c, 1, 88, 127
2, 100120, Note_off_c, 1, 71, 0
2, 100120, Note_off_c, 1, 76, 0
2, 100120, Note_off_c, 1, 80, 0
2, 100120, Note_off_c, 1, 88, 0
2, 100160, Note_on_c, 1, 71, 127
2, 100160, Note_on_c, 1, 76, 127
2, 100160, Note_on_c, 1, 80, 127
2, 100160, Note_on_c, 1, 88, 127
2, 100280, Note_on_c, 1, 75, 127
2, 100280, Note_off_c, 1, 76, 0
2, 100280, Note_off_c, 1, 88, 0
2, 100320, Note_on_c, 1, 40, 127
2, 100320, Note_on_c, 1, 43, 127
2, 100320, Note_on_c, 1, 48, 127
2, 100320, Note_on_c, 1, 52, 127
2, 100320, Note_off_c, 1, 71, 0
2, 100320, Note_off_c, 1, 75, 0
2, 100320, Note_on_c, 1, 76, 127
2, 100320, Note_on_c, 1, 79, 127
2, 100320, Note_off_c, 1, 80, 0
2, 100320, Note_on_c, 1, 84, 127
2, 100320, Note_on_c, 1, 88, 127
2, 100360, Note_on_c, 1, 35, 127
2, 100360, Note_off_c, 1, 40, 0
2, 100360, Note_on_c, 1, 41, 127
2, 100360, Note_off_c, 1, 43, 0
2, 100360, Note_on_c, 1, 47, 127
2, 100360, Note_off_c, 1, 48, 0
2, 100360, Note_off_c, 1, 52, 0
2, 100360, Note_on_c, 1, 65, 127
2, 100360, Note_off_c, 1, 76, 0
2, 100360, Note_off_c, 1, 79, 0
2, 100360, Note_off_c, 1, 84, 0
2, 100360, Note_off_c, 1, 88, 0
2, 100400, Note_off_c, 1, 35, 0
2, 100400, Note_off_c, 1, 41, 0
2, 100400, Note_off_c, 1, 47, 0
2, 100400, Note_on_c, 1, 48, 127
2, 100400, Note_on_c, 1, 57, 127
2, 100400, Note_on_c, 1, 63, 127
2, 100400, Note_off_c, 1, 65, 0
2, 100400, Note_on_c, 1, 74, 127
2, 100440, Note_off_c, 1, 48, 0
2, 100440, Note_off_c, 1, 57, 0
2, 100440, Note_on_c, 1, 59, 127
2, 100440, Note_off_c, 1, 63, 0
2, 100440, Note_on_c, 1, 67, 127
2, 100440, Note_on_c, 1, 72, 127
2, 100440, Note_off_c, 1, 74, 0
2, 100440, Note_on_c, 1, 75, 127
2, 100480, Note_on_c, 1, 56, 127
2, 100480, Note_off_c, 1, 59, 0
2, 100480, Note_on_c, 1, 60, 127
2, 100480, Note_off_c, 1, 67, 0
2, 100480, Note_on_c, 1, 69, 127
2, 100480, Note_off_c, 1, 72, 0
2, 100480, Note_off_c, 1, 75, 0
2, 100520, Note_on_c, 1, 44, 127
2, 100520, Note_on_c, 1, 48, 127
2, 100520, Note_off_c, 1, 56, 0
2, 100520, Note_on_c, 1, 59, 127
2, 100520, Note_off_c, 1, 60, 0
2, 100520, Note_on_c, 1, 65, 127
2, 100520, Note_off_c, 1, 69, 0
2, 100560, Note_on_c, 1, 43, 127
2, 100560, Note_off_c, 1, 44, 0
2, 100560, Note_off_c, 1, 48, 0
2, 100560, Note_on_c, 1, 50, 127
2, 100560, Note_on_c, 1, 53, 127
2, 100560, Note_on_c, 1, 55, 127
2, 100560, Note_off_c, 1, 59, 0
2, 100560, Note_off_c, 1, 65, 0
2, 100560, Note_on_c, 1, 77, 127
2, 100600, Note_off_c, 1, 43, 0
2, 100600, Note_off_c, 1, 50, 0
2, 100600, Note_off_c, 1, 53, 0
2, 100600, Note_off_c, 1, 55, 0
2, 100600, Note_off_c, 1, 77, 0
2, 100640, Note_on_c, 1, 54, 127
2, 100640, Note_on_c, 1, 57, 127
2, 100640, Note_on_c, 1, 64, 127
2, 100640, Note_on_c, 1, 72, 127
2, 101200, Note_off_c, 1, 54, 0
2, 101200, Note_off_c, 1, 57, 0
2, 101200, Note_off_c, 1, 64, 0
2, 101200, Note_off_c, 1, 72, 0
2, 101240, Note_on_c, 1, 54, 127
2, 101240, Note_on_c, 1, 63, 127
2, 101240, Note_on_c, 1, 66, 127
2, 101240, Note_on_c, 1, 71, 127
2, 101480, Note_off_c, 1, 63, 0
2, 101480, Note_off_c, 1, 66, 0
2, 101480, Note_off_c, 1, 71, 0
2, 101520, Note_on_c, 1, 63, 127
2, 101520, Note_on_c, 1, 66, 127
2, 101520, Note_on_c, 1, 71, 127
2, 101760, Note_off_c, 1, 54, 0
2, 101760, Note_off_c, 1, 63, 0
2, 101760, Note_off_c, 1, 66, 0
2, 101760, Note_off_c, 1, 71, 0
2, 101800, Note_on_c, 1, 41, 127
2, 101800, Note_on_c, 1, 53, 127
2, 101800, Note_on_c, 1, 56, 127
2, 101800, Note_on_c, 1, 59, 127
2, 101800, Note_on_c, 1, 65, 127
2, 101800, Note_on_c, 1, 69, 127
2, 101800, Note_on_c, 1, 77, 127
2, 101840, Note_on_c, 1, 34, 127
2, 101840, Note_off_c, 1, 41, 0
2, 101840, Note_on_c, 1, 43, 127
2, 101840, Note_on_c, 1, 50, 127
2, 101840, Note_off_c, 1, 53, 0
2, 101840, Note_off_c, 1, 56, 0
2, 101840, Note_off_c, 1, 59, 0
2, 101840, Note_on_c, 1, 62, 127
2, 101840, Note_off_c, 1, 65, 0
2, 101840, Note_off_c, 1, 69, 0
2, 101840, Note_off_c, 1, 77, 0
2, 101880, Note_off_c, 1, 34, 0
2, 101880, Note_on_c, 1, 38, 127
2, 101880, Note_off_c, 1, 43, 0
2, 101880, Note_on_c, 1, 57, 127
2, 101880, Note_off_c, 1, 62, 0
2, 101880, Note_on_c, 1, 65, 127
2, 101920, Note_off_c, 1, 38, 0
2, 101920, Note_on_c, 1, 46, 127
2, 101920, Note_off_c, 1, 50, 0
2, 101920, Note_on_c, 1, 53, 127
2, 101920, Note_on_c, 1, 56, 127
2, 101920, Note_off_c, 1, 57, 0
2, 101920, Note_off_c, 1, 65, 0
2, 101920, Note_on_c, 1, 80, 127
2, 101960, Note_on_c, 1, 43, 127
2, 101960, Note_off_c, 1, 46, 0
2, 101960, Note_on_c, 1, 50, 127
2, 101960, Note_off_c, 1, 56, 0
2, 101960, Note_on_c, 1, 62, 127
2, 101960, Note_off_c, 1, 80, 0
2, 102000, Note_on_c, 1, 42, 127
2, 102000, Note_off_c, 1, 43, 0
2, 102000, Note_off_c, 1, 50, 0
2, 102000, Note_on_c, 1, 51, 127
2, 102000, Note_off_c, 1, 53, 0
2, 102000, Note_off_c, 1, 62, 0
2, 102000, Note_on_c, 1, 73, 127
2, 102040, Note_off_c, 1, 42, 0
2, 102040, Note_off_c, 1, 51, 0
2, 102040, Note_on_c, 1, 55, 127
2, 102040, Note_on_c, 1, 62, 127
2, 102040, Note_on_c, 1, 72, 127
2, 102040, Note_off_c, 1, 73, 0
2, 102040, Note_on_c, 1, 81, 127
2, 102040, Note_on_c, 1, 84, 127
2, 102080, Note_off_c, 1, 55, 0
2, 102080, Note_off_c, 1, 62, 0
2, 102080, Note_off_c, 1, 72, 0
2, 102080, Note_off_c, 1, 81, 0
2, 102080, Note_off_c, 1, 84, 0
2, 102160, Note_on_c, 1, 40, 127
2, 102160, Note_on_c, 1, 52, 127
2, 102160, Note_on_c, 1, 62, 127
2, 102160, Note_on_c, 1, 64, 127
2, 102160, Note_on_c, 1, 71, 127
2, 102720, Note_off_c, 1, 40, 0
2, 102720, Note_off_c, 1, 52, 0
2, 102720, Note_off_c, 1, 62, 0
2, 102720, Note_off_c, 1, 64, 0
2, 102720, Note_off_c, 1, 71, 0
2, 102760, Note_on_c, 1, 38, 127
2, 102760, Note_on_c, 1, 47, 127
2, 102760, Note_on_c, 1, 68, 127
2, 102760, Note_on_c, 1, 80, 127
2, 102800, Note_off_c, 1, 38, 0
2, 102800, Note_off_c, 1, 47, 0
2, 102800, Note_on_c, 1, 53, 127
2, 102800, Note_on_c, 1, 62, 127
2, 102800, Note_off_c, 1, 68, 0
2, 102800, Note_on_c, 1, 69, 127
2, 102800, Note_on_c, 1, 71, 127
2, 102800, Note_off_c, 1, 80, 0
2, 102840, Note_off_c, 1, 53, 0
2, 102840, Note_on_c, 1, 54, 127
2, 102840, Note_off_c, 1, 62, 0
2, 102840, Note_on_c, 1, 63, 127
2, 102840, Note_off_c, 1, 69, 0
2, 102840, Note_off_c, 1, 71, 0
2, 102840, Note_on_c, 1, 75, 127
2, 102840, Note_on_c, 1, 82, 127
2, 102880, Note_off_c, 1, 54, 0
2, 102880, Note_on_c, 1, 55, 127
2, 102880, Note_on_c, 1, 60, 127
2, 102880, Note_off_c, 1, 63, 0
2, 102880, Note_on_c, 1, 69, 127
2, 102880, Note_on_c, 1, 74, 127
2, 102880, Note_off_c, 1, 75, 0
2, 102880, Note_off_c, 1, 82, 0
2, 102920, Note_on_c, 1, 32, 127
2, 102920, Note_on_c, 1, 44, 127
2, 102920, Note_on_c, 1, 47, 127
2, 102920, Note_on_c, 1, 51, 127
2, 102920, Note_off_c, 1, 55, 0
2, 102920, Note_off_c, 1, 60, 0
2, 102920, Note_off_c, 1, 69, 0
2, 102920, Note_off_c, 1, 74, 0
2, 102960, Note_off_c, 1, 32, 0
2, 102960, Note_off_c, 1, 44, 0
2, 102960, Note_off_c, 1, 47, 0
2, 102960, Note_off_c, 1, 51, 0
2, 102960, Note_on_c, 1, 54, 127
2, 102960, Note_on_c, 1, 63, 127
2, 102960, Note_on_c, 1, 75, 127
2, 102960, Note_on_c, 1, 82, 127
2, 103000, Note_on_c, 1, 73, 127
2, 103000, Note_off_c, 1, 75, 0
2, 103000, Note_off_c, 1, 82, 0
2, 103000, Note_on_c, 1, 85, 127
2, 103040, Note_on_c, 1, 41, 127
2, 103040, Note_on_c, 1, 49, 127
2, 103040, Note_on_c, 1, 53, 127
2, 103040, Note_off_c, 1, 54, 0
2, 103040, Note_on_c, 1, 58, 127
2, 103040, Note_on_c, 1, 61, 127
2, 103040, Note_off_c, 1, 63, 0
2, 103040, Note_on_c, 1, 70, 127
2, 103040, Note_off_c, 1, 73, 0
2, 103040, Note_off_c, 1, 85, 0
2, 103880, Note_off_c, 1, 41, 0
2, 103880, Note_off_c, 1, 49, 0
2, 103880, Note_off_c, 1, 53, 0
2, 103880, Note_off_c, 1, 58, 0
2, 103880, Note_off_c, 1, 61, 0
2, 103880, Note_off_c, 1, 70, 0
2, 103920, Note_on_c, 1, 41, 127
2, 103920, Note_on_c, 1, 49, 127
2, 103920, Note_on_c, 1, 53, 127
2, 103920, Note_on_c, 1, 58, 127
2, 103920, Note_on_c, 1, 61, 127
2, 103920, Note_on_c, 1, 70, 127
2, 104160, Note_off_c, 1, 41, 0
2, 104160, Note_off_c, 1, 49, 0
2, 104160, Note_off_c, 1, 53, 0
2, 104160, Note_off_c, 1, 58, 0
2, 104160, Note_off_c, 1, 61, 0
2, 104160, Note_off_c, 1, 70, 0
2, 104200, Note_on_c, 1, 41, 127
2, 104200, Note_on_c, 1, 49, 127
2, 104200, Note_on_c, 1, 53, 127
2, 104200, Note_on_c, 1, 58, 127
2, 104200, Note_on_c, 1, 61, 127
2, 104200, Note_on_c, 1, 70, 127
2, 106480, Note_off_c, 1, 41, 0
2, 106480, Note_off_c, 1, 49, 0
2, 106480, Note_off_c, 1, 53, 0
2, 106480, Note_off_c, 1, 58, 0
2, 106480, Note_off_c, 1, 61, 0
2, 106480, Note_off_c, 1, 70, 0
2, 106520, Note_on_c, 1, 39, 127
2, 106520, Note_on_c, 1, 51, 127
2, 106520, Note_on_c, 1, 70, 127
2, 106520, Note_on_c, 1, 76, 127
2, 106520, Note_on_c, 1, 80, 127
2, 106720, Note_off_c, 1, 39, 0
2, 106720, Note_off_c, 1, 51, 0
2, 106720, Note_off_c, 1, 70, 0
2, 106720, Note_off_c, 1, 76, 0
2, 106720, Note_off_c, 1, 80, 0
2, 106760, Note_on_c, 1, 39, 127
2, 106760, Note_on_c, 1, 51, 127
2, 106760, Note_on_c, 1, 70, 127
2, 106760, Note_on_c, 1, 76, 127
2, 106760, Note_on_c, 1, 80, 127
2, 107120, Note_off_c, 1, 39, 0
2, 107120, Note_off_c, 1, 51, 0
2, 107120, Note_off_c, 1, 70, 0
2, 107120, Note_off_c, 1, 76, 0
2, 107120, Note_off_c, 1, 80, 0
2, 107160, Note_on_c, 1, 44, 127
2, 107160, Note_on_c, 1, 51, 127
2, 107160, Note_on_c, 1, 54, 127
2, 107160, Note_on_c, 1, 66, 127
2, 107160, Note_on_c, 1, 69, 127
2, 107160, Note_on_c, 1, 73, 127
2, 107160, Note_on_c, 1, 78, 127
2, 107560, Note_off_c, 1, 66, 0
2, 107560, Note_off_c, 1, 78, 0
2, 107600, Note_on_c, 1, 64, 127
2, 107600, Note_on_c, 1, 76, 127
2, 107680, Note_off_c, 1, 64, 0
2, 107680, Note_off_c, 1, 76, 0
2, 107720, Note_off_c, 1, 44, 0
2, 107720, Note_off_c, 1, 51, 0
2, 107720, Note_on_c, 1, 52, 127
2, 107720, Note_off_c, 1, 54, 0
2, 107720, Note_on_c, 1, 55, 127
2, 107720, Note_on_c, 1, 64, 127
2, 107720, Note_on_c, 1, 67, 127
2, 107720, Note_off_c, 1, 69, 0
2, 107720, Note_off_c, 1, 73, 0
2, 107720, Note_on_c, 1, 81, 127
2, 107760, Note_off_c, 1, 52, 0
2, 107760, Note_off_c, 1, 55, 0
2, 107760, Note_off_c, 1, 64, 0
2, 107760, Note_off_c, 1, 67, 0
2, 107760, Note_off_c, 1, 81, 0
2, 107760, Note_on_c, 1, 91, 127
2, 107760, Note_on_c, 1, 94, 127
2, 107760, Note_on_c, 1, 98, 127
2, 107800, Note_on_c, 1, 55, 127
2, 107800, Note_on_c, 1, 61, 127
2, 107800, Note_on_c, 1, 67, 127
2, 107800, Note_on_c, 1, 85, 127
2, 107800, Note_on_c, 1, 88, 127
2, 107800, Note_off_c, 1, 91, 0
2, 107800, Note_off_c, 1, 94, 0
2, 107800, Note_off_c, 1, 98, 0
2, 107840, Note_off_c, 1, 55, 0
2, 107840, Note_off_c, 1, 61, 0
2, 107840, Note_off_c, 1, 67, 0
2, 107840, Note_off_c, 1, 85, 0
2, 107840, Note_off_c, 1, 88, 0
2, 107840, Note_on_c, 1, 91, 127
2, 107840, Note_on_c, 1, 94, 127
2, 107840, Note_on_c, 1, 98, 127
2, 107880, Note_on_c, 1, 41, 127
2, 107880, Note_on_c, 1, 48, 127
2, 107880, Note_on_c, 1, 55, 127
2, 107880, Note_on_c, 1, 58, 127
2, 107880, Note_on_c, 1, 64, 127
2, 107880, Note_off_c, 1, 91, 0
2, 107880, Note_off_c, 1, 94, 0
2, 107880, Note_off_c, 1, 98, 0
2, 107920, Note_off_c, 1, 41, 0
2, 107920, Note_off_c, 1, 48, 0
2, 107920, Note_on_c, 1, 51, 127
2, 107920, Note_off_c, 1, 55, 0
2, 107920, Note_off_c, 1, 58, 0
2, 107920, Note_on_c, 1, 60, 127
2, 107920, Note_off_c, 1, 64, 0
2, 107920, Note_on_c, 1, 69, 127
2, 107920, Note_on_c, 1, 72, 127
2, 107920, Note_on_c, 1, 81, 127
2, 107960, Note_on_c, 1, 41, 127
2, 107960, Note_off_c, 1, 51, 0
2, 107960, Note_on_c, 1, 59, 127
2, 107960, Note_off_c, 1, 60, 0
2, 107960, Note_off_c, 1, 69, 0
2, 107960, Note_on_c, 1, 70, 127
2, 107960, Note_off_c, 1, 72, 0
2, 107960, Note_off_c, 1, 81, 0
2, 108000, Note_off_c, 1, 41, 0
2, 108000, Note_on_c, 1, 52, 127
2, 108000, Note_on_c, 1, 56, 127
2, 108000, Note_off_c, 1, 59, 0
2, 108000, Note_on_c, 1, 62, 127
2, 108000, Note_off_c, 1, 70, 0
2, 108040, Note_on_c, 1, 39, 127
2, 108040, Note_off_c, 1, 52, 0
2, 108040, Note_off_c, 1, 62, 0
2, 108040, Note_on_c, 1, 66, 127
2, 108040, Note_on_c, 1, 78, 127
2, 108240, Note_off_c, 1, 39, 0
2, 108240, Note_off_c, 1, 56, 0
2, 108240, Note_on_c, 1, 59, 127
2, 108240, Note_off_c, 1, 66, 0
2, 108240, Note_on_c, 1, 69, 127
2, 108240, Note_on_c, 1, 75, 127
2, 108240, Note_off_c, 1, 78, 0
2, 108240, Note_on_c, 1, 79, 127
2, 108280, Note_off_c, 1, 59, 0
2, 108280, Note_off_c, 1, 69, 0
2, 108280, Note_off_c, 1, 75, 0
2, 108280, Note_off_c, 1, 79, 0
2, 108320, Note_on_c, 1, 58, 127
2, 108320, Note_on_c, 1, 62, 127
2, 108320, Note_on_c, 1, 65, 127
2, 108320, Note_on_c, 1, 73, 127
2, 108640, Note_off_c, 1, 58, 0
2, 108640, Note_off_c, 1, 62, 0
2, 108640, Note_off_c, 1, 65, 0
2, 108640, Note_off_c, 1, 73, 0
2, 108680, Note_on_c, 1, 58, 127
2, 108680, Note_on_c, 1, 62, 127
2, 108680, Note_on_c, 1, 65, 127
2, 108680, Note_on_c, 1, 73, 127
2, 108920, Note_off_c, 1, 73, 0
2, 108960, Note_on_c, 1, 74, 127
2, 109360, Note_off_c, 1, 74, 0
2, 109400, Note_on_c, 1, 74, 127
2, 109800, Note_off_c, 1, 58, 0
2, 109800, Note_off_c, 1, 62, 0
2, 109800, Note_off_c, 1, 65, 0
2, 109800, Note_off_c, 1, 74, 0
2, 109840, Note_on_c, 1, 41, 127
2, 109840, Note_on_c, 1, 46, 127
2, 110360, Note_off_c, 1, 41, 0
2, 110360, Note_off_c, 1, 46, 0
2, 112120, Note_on_c, 1, 80, 127
2, 112360, Note_off_c, 1, 80, 0
2, 112400, Note_on_c, 1, 40, 127
2, 112400, Note_on_c, 1, 56, 127
2, 112400, Note_on_c, 1, 64, 127
2, 112960, Note_off_c, 1, 40, 0
2, 112960, Note_off_c, 1, 56, 0
2, 112960, Note_off_c, 1, 64, 0
2, 115200, Note_on_c, 1, 70, 127
2, 115200, Note_on_c, 1, 74, 127
2, 115200, Note_on_c, 1, 79, 127
2, 115200, Note_on_c, 1, 82, 127
2, 115200, Note_on_c, 1, 86, 127
2, 115200, Note_on_c, 1, 91, 127
2, 115440, Note_off_c, 1, 70, 0
2, 115440, Note_off_c, 1, 74, 0
2, 115440, Note_off_c, 1, 79, 0
2, 115440, Note_off_c, 1, 82, 0
2, 115440, Note_off_c, 1, 86, 0
2, 115440, Note_off_c, 1, 91, 0
2, 115480, Note_on_c, 1, 68, 127
2, 115520, Note_on_c, 1, 65, 127
2, 115520, Note_off_c, 1, 68, 0
2, 115520, Note_on_c, 1, 71, 127
2, 115520, Note_on_c, 1, 82, 127
2, 115800, Note_off_c, 1, 65, 0
2, 115800, Note_off_c, 1, 71, 0
2, 115800, Note_off_c, 1, 82, 0
2, 115840, Note_on_c, 1, 66, 127
2, 115840, Note_on_c, 1, 73, 127
2, 115840, Note_on_c, 1, 82, 127
2, 116360, Note_off_c, 1, 66, 0
2, 116360, Note_off_c, 1, 82, 0
2, 116400, Note_on_c, 1, 82, 127
2, 116800, Note_off_c, 1, 82, 0
2, 116840, Note_on_c, 1, 66, 127
2, 116840, Note_on_c, 1, 82, 127
2, 116960, Note_off_c, 1, 66, 0
2, 116960, Note_off_c, 1, 82, 0
2, 117000, Note_on_c, 1, 61, 127
2, 117000, Note_on_c, 1, 80, 127
2, 117080, Note_off_c, 1, 80, 0
2, 117120, Note_on_c, 1, 80, 127
2, 117240, Note_off_c, 1, 80, 0
2, 117280, Note_on_c, 1, 80, 127
2, 117400, Note_off_c, 1, 61, 0
2, 117400, Note_off_c, 1, 73, 0
2, 117400, Note_off_c, 1, 80, 0
2, 117440, Note_on_c, 1, 64, 127
2, 117440, Note_on_c, 1, 73, 127
2, 117440, Note_on_c, 1, 80, 127
2, 117560, Note_off_c, 1, 64, 0
2, 117560, Note_off_c, 1, 73, 0
2, 117560, Note_off_c, 1, 80, 0
2, 117600, Note_on_c, 1, 64, 127
2, 117600, Note_on_c, 1, 73, 127
2, 117600, Note_on_c, 1, 80, 127
2, 118000, Note_off_c, 1, 80, 0
2, 118040, Note_on_c, 1, 61, 127
2, 118040, Note_off_c, 1, 64, 0
2, 118040, Note_on_c, 1, 71, 127
2, 118040, Note_on_c, 1, 77, 127
2, 118440, Note_off_c, 1, 61, 0
2, 118440, Note_on_c, 1, 69, 127
2, 118440, Note_off_c, 1, 71, 0
2, 118440, Note_off_c, 1, 77, 0
2, 118440, Note_on_c, 1, 81, 127
2, 118600, Note_off_c, 1, 69, 0
2, 118600, Note_off_c, 1, 73, 0
2, 118600, Note_off_c, 1, 81, 0
2, 118640, Note_on_c, 1, 59, 127
2, 118640, Note_on_c, 1, 68, 127
2, 118640, Note_on_c, 1, 74, 127
2, 119200, Note_off_c, 1, 59, 0
2, 119200, Note_off_c, 1, 68, 0
2, 119240, Note_on_c, 1, 58, 127
2, 119240, Note_on_c, 1, 66, 127
2, 119640, Note_off_c, 1, 58, 0
2, 119640, Note_off_c, 1, 66, 0
2, 119640, Note_off_c, 1, 74, 0
2, 119680, Note_on_c, 1, 58, 127
2, 119680, Note_on_c, 1, 66, 127
2, 119680, Note_on_c, 1, 74, 127
2, 119800, Note_off_c, 1, 74, 0
2, 119840, Note_on_c, 1, 73, 127
2, 120000, Note_off_c, 1, 58, 0
2, 120000, Note_off_c, 1, 66, 0
2, 120000, Note_off_c, 1, 73, 0
2, 120040, End_track
3, 0, Start_track
3, 0, Title_t, "MIDI"
3, 1536, End_track
0, 0, End_of_file
