0, 0, Header, 1, 3, 192
1, 0, Start_track
1, 0, Time_signature, 4, 2, 24, 8
1, 0, Tempo, 500000
1, 120040, End_track
2, 0, Start_track
2, 0, Text_t, "random instrument: random person i dunno whatev"
2, 0, Title_t, "Track 1"
2, 0, Note_on_c, 1, 58, 127
2, 0, Note_on_c, 1, 66, 127
2, 0, Note_on_c, 1, 78, 127
2, 0, Note_on_c, 1, 82, 127
2, 0, Note_on_c, 1, 90, 127
2, 520, Note_off_c, 1, 58, 0
2, 520, Note_off_c, 1, 66, 0
2, 520, Note_off_c, 1, 78, 0
2, 520, Note_off_c, 1, 82, 0
2, 520, Note_off_c, 1, 90, 0
2, 600, Note_on_c, 1, 37, 127
2, 600, Note_on_c, 1, 44, 127
2, 600, Note_on_c, 1, 68, 127
2, 600, Note_on_c, 1, 89, 127
2, 640, Note_off_c, 1, 44, 0
2, 640, Note_on_c, 1, 63, 127
2, 640, Note_on_c, 1, 73, 127
2, 640, Note_off_c, 1, 89, 0
2, 680, Note_off_c, 1, 37, 0
2, 680, Note_off_c, 1, 63, 0
2, 680, Note_off_c, 1, 68, 0
2, 680, Note_off_c, 1, 73, 0
2, 720, Note_on_c, 1, 45, 127
2, 720, Note_on_c, 1, 53, 127
2, 720, Note_on_c, 1, 62, 127
2, 720, Note_on_c, 1, 65, 127
2, 720, Note_on_c, 1, 70, 127
2, 2720, Note_off_c, 1, 45, 0
2, 2720, Note_off_c, 1, 53, 0
2, 2720, Note_off_c, 1, 62, 0
2, 2720, Note_off_c, 1, 65, 0
2, 2720, Note_off_c, 1, 70, 0
2, 2760, Note_on_c, 1, 45, 127
2, 2760, Note_on_c, 1, 53, 127
2, 2760, Note_on_c, 1, 62, 127
2, 2760, Note_on_c, 1, 65, 127
2, 2760, Note_on_c, 1, 70, 127
2, 4680, Note_off_c, 1, 45, 0
2, 4680, Note_off_c, 1, 53, 0
2, 4680, Note_off_c, 1, 62, 0
2, 4680, Note_off_c, 1, 65, 0
2, 4680, Note_off_c, 1, 70, 0
2, 4720, Note_on_c, 1, 45, 127
2, 4720, Note_on_c, 1, 53, 127
2, 4720, Note_on_c, 1, 62, 127
2, 4720, Note_on_c, 1, 65, 127
2, 4720, Note_on_c, 1, 70, 127
2, 6720, Note_off_c, 1, 45, 0
2, 6720, Note_off_c, 1, 53, 0
2, 6720, Note_off_c, 1, 62, 0
2, 6720, Note_off_c, 1, 65, 0
2, 6720, Note_off_c, 1, 70, 0
2, 67200, Note_on_c, 1, 52, 127
2, 67560, Note_off_c, 1, 52, 0
2, 67640, Note_on_c, 1, 52, 127
2, 68000, Note_off_c, 1, 52, 0
2, 68040, Note_on_c, 1, 52, 127
2, 68400, Note_off_c, 1, 52, 0
2, 68440, Note_on_c, 1, 52, 127
2, 68800, Note_off_c, 1, 52, 0
2, 68840, Note_on_c, 1, 55, 127
2, 69200, Note_off_c, 1, 55, 0
2, 69240, Note_on_c, 1, 52, 127
2, 69840, Note_off_c, 1, 52, 0
2, 69880, Note_on_c, 1, 52, 127
2, 70480, Note_off_c, 1, 52, 0
2, 70520, Note_on_c, 1, 49, 127
2, 70880, Note_off_c, 1, 49, 0
2, 70920, Note_on_c, 1, 52, 127
2, 71280, Note_off_c, 1, 52, 0
2, 71320, Note_on_c, 1, 40, 127
2, 71680, Note_off_c, 1, 40, 0
2, 71720, Note_on_c, 1, 45, 127
2, 72040, Note_off_c, 1, 45, 0
2, 72080, Note_on_c, 1, 45, 127
2, 72120, Note_off_c, 1, 45, 0
2, 72160, Note_on_c, 1, 40, 127
2, 72520, Note_off_c, 1, 40, 0
2, 72560, Note_on_c, 1, 37, 127
2, 72920, Note_off_c, 1, 37, 0
2, 72960, Note_on_c, 1, 45, 127
2, 73320, Note_off_c, 1, 45, 0
2, 73360, Note_on_c, 1, 52, 127
2, 74120, Note_off_c, 1, 52, 0
2, 74200, Note_on_c, 1, 52, 127
2, 74560, Note_off_c, 1, 52, 0
2, 74600, Note_on_c, 1, 49, 127
2, 74960, Note_off_c, 1, 49, 0
2, 75000, Note_on_c, 1, 52, 127
2, 75360, Note_off_c, 1, 52, 0
2, 75400, Note_on_c, 1, 45, 127
2, 75760, Note_off_c, 1, 45, 0
2, 75800, Note_on_c, 1, 50, 127
2, 76160, Note_off_c, 1, 50, 0
2, 76200, Note_on_c, 1, 52, 127
2, 76520, Note_off_c, 1, 52, 0
2, 76560, Note_on_c, 1, 52, 127
2, 76600, Note_off_c, 1, 52, 0
2, 76640, Note_on_c, 1, 45, 127
2, 77000, Note_off_c, 1, 45, 0
2, 77040, Note_on_c, 1, 52, 127
2, 77400, Note_off_c, 1, 52, 0
2, 77440, Note_on_c, 1, 52, 127
2, 77800, Note_off_c, 1, 52, 0
2, 77840, Note_on_c, 1, 57, 127
2, 78200, Note_off_c, 1, 57, 0
2, 78240, Note_on_c, 1, 54, 127
2, 78600, Note_off_c, 1, 54, 0
2, 78640, Note_on_c, 1, 52, 127
2, 78840, Note_off_c, 1, 52, 0
2, 78880, Note_on_c, 1, 52, 127
2, 79040, Note_off_c, 1, 52, 0
2, 79080, Note_on_c, 1, 54, 127
2, 79440, Note_off_c, 1, 54, 0
2, 79480, Note_on_c, 1, 49, 127
2, 79840, Note_off_c, 1, 49, 0
2, 79880, Note_on_c, 1, 52, 127
2, 80240, Note_off_c, 1, 52, 0
2, 80280, Note_on_c, 1, 54, 127
2, 80640, Note_off_c, 1, 54, 0
2, 80680, Note_on_c, 1, 50, 127
2, 81040, Note_off_c, 1, 50, 0
2, 81080, Note_on_c, 1, 49, 127
2, 81240, Note_off_c, 1, 49, 0
2, 81280, Note_on_c, 1, 49, 127
2, 81480, Note_off_c, 1, 49, 0
2, 81520, Note_on_c, 1, 45, 127
2, 81880, Note_off_c, 1, 45, 0
2, 81920, Note_on_c, 1, 45, 127
2, 82280, Note_off_c, 1, 45, 0
2, 82320, Note_on_c, 1, 55, 127
2, 82680, Note_off_c, 1, 55, 0
2, 82720, Note_on_c, 1, 59, 127
2, 83080, Note_off_c, 1, 59, 0
2, 83120, Note_on_c, 1, 52, 127
2, 83520, Note_off_c, 1, 52, 0
2, 83600, Note_on_c, 1, 52, 127
2, 83960, Note_off_c, 1, 52, 0
2, 84000, Note_on_c, 1, 54, 127
2, 84360, Note_off_c, 1, 54, 0
2, 84400, Note_on_c, 1, 50, 127
2, 84760, Note_off_c, 1, 50, 0
2, 84800, Note_on_c, 1, 52, 127
2, 85160, Note_off_c, 1, 52, 0
2, 85200, Note_on_c, 1, 61, 127
2, 85560, Note_off_c, 1, 61, 0
2, 85600, Note_on_c, 1, 57, 127
2, 85960, Note_off_c, 1, 57, 0
2, 86040, Note_on_c, 1, 54, 127
2, 86400, Note_off_c, 1, 54, 0
2, 86440, Note_on_c, 1, 55, 127
2, 86800, Note_off_c, 1, 55, 0
2, 86840, Note_on_c, 1, 54, 127
2, 87200, Note_off_c, 1, 54, 0
2, 87240, Note_on_c, 1, 64, 127
2, 87600, Note_off_c, 1, 64, 0
2, 87640, Note_on_c, 1, 61, 127
2, 88240, Note_off_c, 1, 61, 0
2, 88280, Note_on_c, 1, 61, 127
2, 88440, Note_off_c, 1, 61, 0
2, 88480, Note_on_c, 1, 57, 127
2, 88840, Note_off_c, 1, 57, 0
2, 88880, Note_on_c, 1, 61, 127
2, 89280, Note_on_c, 1, 59, 127
2, 89280, Note_off_c, 1, 61, 0
2, 89640, Note_off_c, 1, 59, 0
2, 89680, Note_on_c, 1, 62, 127
2, 90440, Note_off_c, 1, 62, 0
2, 90520, Note_on_c, 1, 59, 127
2, 90880, Note_off_c, 1, 59, 0
2, 90920, Note_on_c, 1, 52, 127
2, 91280, Note_off_c, 1, 52, 0
2, 91320, Note_on_c, 1, 49, 127
2, 91680, Note_off_c, 1, 49, 0
2, 91720, Note_on_c, 1, 40, 127
2, 92080, Note_off_c, 1, 40, 0
2, 92120, Note_on_c, 1, 38, 127
2, 92480, Note_off_c, 1, 38, 0
2, 92560, Note_on_c, 1, 38, 127
2, 92920, Note_off_c, 1, 38, 0
2, 92960, Note_on_c, 1, 37, 127
2, 93320, Note_off_c, 1, 37, 0
2, 93360, Note_on_c, 1, 40, 127
2, 93720, Note_off_c, 1, 40, 0
2, 93760, Note_on_c, 1, 42, 127
2, 94120, Note_off_c, 1, 42, 0
2, 94160, Note_on_c, 1, 42, 127
2, 94520, Note_off_c, 1, 42, 0
2, 94560, Note_on_c, 1, 42, 127
2, 94880, Note_off_c, 1, 42, 0
2, 94920, Note_on_c, 1, 42, 127
2, 94960, Note_off_c, 1, 42, 0
2, 95000, Note_on_c, 1, 42, 127
2, 95360, Note_off_c, 1, 42, 0
2, 95400, Note_on_c, 1, 40, 127
2, 95760, Note_off_c, 1, 40, 0
2, 95800, Note_on_c, 1, 47, 127
2, 96160, Note_off_c, 1, 47, 0
2, 96200, Note_on_c, 1, 52, 127
2, 96560, Note_off_c, 1, 52, 0
2, 96600, Note_on_c, 1, 57, 127
2, 96960, Note_off_c, 1, 57, 0
2, 97040, Note_on_c, 1, 42, 127
2, 97400, Note_off_c, 1, 42, 0
2, 97440, Note_on_c, 1, 38, 127
2, 97800, Note_off_c, 1, 38, 0
2, 97840, Note_on_c, 1, 54, 127
2, 98200, Note_off_c, 1, 54, 0
2, 98240, Note_on_c, 1, 48, 127
2, 98600, Note_off_c, 1, 48, 0
2, 98640, Note_on_c, 1, 54, 127
2, 99000, Note_off_c, 1, 54, 0
2, 99040, Note_on_c, 1, 66, 127
2, 99400, Note_off_c, 1, 66, 0
2, 99480, Note_on_c, 1, 71, 127
2, 99840, Note_off_c, 1, 71, 0
2, 99880, Note_on_c, 1, 69, 127
2, 100640, Note_off_c, 1, 69, 0
2, 100680, Note_on_c, 1, 66, 127
2, 101680, Note_off_c, 1, 66, 0
2, 101720, Note_on_c, 1, 66, 127
2, 102480, Note_off_c, 1, 66, 0
2, 102520, Note_on_c, 1, 66, 127
2, 102880, Note_off_c, 1, 66, 0
2, 102920, Note_on_c, 1, 54, 127
2, 102920, Note_on_c, 1, 66, 127
2, 103480, Note_off_c, 1, 54, 0
2, 103480, Note_off_c, 1, 66, 0
2, 103520, Note_on_c, 1, 52, 127
2, 103520, Note_on_c, 1, 64, 127
2, 103920, Note_off_c, 1, 52, 0
2, 103920, Note_off_c, 1, 64, 0
2, 103960, Note_on_c, 1, 52, 127
2, 103960, Note_on_c, 1, 64, 127
2, 104120, Note_off_c, 1, 52, 0
2, 104160, Note_on_c, 1, 45, 127
2, 104520, Note_off_c, 1, 45, 0
2, 104560, Note_on_c, 1, 52, 127
2, 104920, Note_off_c, 1, 52, 0
2, 104960, Note_on_c, 1, 52, 127
2, 105320, Note_off_c, 1, 52, 0
2, 105320, Note_off_c, 1, 64, 0
2, 105360, Note_on_c, 1, 45, 127
2, 105360, Note_on_c, 1, 61, 127
2, 105720, Note_off_c, 1, 45, 0
2, 105760, Note_on_c, 1, 52, 127
2, 106120, Note_off_c, 1, 52, 0
2, 106120, Note_off_c, 1, 61, 0
2, 106200, Note_on_c, 1, 55, 127
2, 106200, Note_on_c, 1, 61, 127
2, 106560, Note_off_c, 1, 55, 0
2, 106600, Note_on_c, 1, 55, 127
2, 106600, Note_off_c, 1, 61, 0
2, 106600, Note_on_c, 1, 64, 127
2, 106960, Note_off_c, 1, 55, 0
2, 107000, Note_on_c, 1, 59, 127
2, 107360, Note_off_c, 1, 59, 0
2, 107360, Note_off_c, 1, 64, 0
2, 107400, Note_on_c, 1, 38, 127
2, 107400, Note_on_c, 1, 66, 127
2, 107760, Note_off_c, 1, 38, 0
2, 107760, Note_off_c, 1, 66, 0
2, 107800, Note_on_c, 1, 69, 127
2, 108400, Note_off_c, 1, 69, 0
2, 108440, Note_on_c, 1, 69, 127
2, 108640, Note_on_c, 1, 66, 127
2, 108640, Note_off_c, 1, 69, 0
2, 109040, Note_on_c, 1, 50, 127
2, 109400, Note_off_c, 1, 50, 0
2, 109400, Note_off_c, 1, 66, 0
2, 109440, Note_on_c, 1, 62, 127
2, 109800, Note_off_c, 1, 62, 0
2, 109840, Note_on_c, 1, 52, 127
2, 110200, Note_off_c, 1, 52, 0
2, 110240, Note_on_c, 1, 54, 127
2, 110600, Note_off_c, 1, 54, 0
2, 110680, Note_on_c, 1, 57, 127
2, 111040, Note_off_c, 1, 57, 0
2, 111080, Note_on_c, 1, 57, 127
2, 111440, Note_off_c, 1, 57, 0
2, 111480, Note_on_c, 1, 54, 127
2, 111840, Note_off_c, 1, 54, 0
2, 111880, Note_on_c, 1, 57, 127
2, 112240, Note_off_c, 1, 57, 0
2, 112280, Note_on_c, 1, 54, 127
2, 112640, Note_off_c, 1, 54, 0
2, 112680, Note_on_c, 1, 52, 127
2, 112880, Note_off_c, 1, 52, 0
2, 112920, Note_on_c, 1, 52, 127
2, 113080, Note_off_c, 1, 52, 0
2, 113120, Note_on_c, 1, 54, 127
2, 113480, Note_off_c, 1, 54, 0
2, 113520, Note_on_c, 1, 55, 127
2, 113880, Note_off_c, 1, 55, 0
2, 113920, Note_on_c, 1, 57, 127
2, 114280, Note_off_c, 1, 57, 0
2, 114320, Note_on_c, 1, 61, 127
2, 114680, Note_off_c, 1, 61, 0
2, 114720, Note_on_c, 1, 52, 127
2, 115080, Note_off_c, 1, 52, 0
2, 115120, Note_on_c, 1, 54, 127
2, 115440, Note_off_c, 1, 54, 0
2, 115480, Note_on_c, 1, 54, 127
2, 115520, Note_off_c, 1, 54, 0
2, 115560, Note_on_c, 1, 52, 127
2, 116320, Note_off_c, 1, 52, 0
2, 116360, Note_on_c, 1, 45, 127
2, 116720, Note_off_c, 1, 45, 0
2, 116760, Note_on_c, 1, 50, 127
2, 117120, Note_off_c, 1, 50, 0
2, 117160, Note_on_c, 1, 52, 127
2, 117520, Note_off_c, 1, 52, 0
2, 117560, Note_on_c, 1, 57, 127
2, 117920, Note_off_c, 1, 57, 0
2, 118000, Note_on_c, 1, 57, 127
2, 118360, Note_off_c, 1, 57, 0
2, 118400, Note_on_c, 1, 59, 127
2, 118760, Note_off_c, 1, 59, 0
2, 118800, Note_on_c, 1, 50, 127
2, 119160, Note_off_c, 1, 50, 0
2, 119200, Note_on_c, 1, 54, 127
2, 119560, Note_off_c, 1, 54, 0
2, 119600, Note_on_c, 1, 52, 127
2, 119960, Note_off_c, 1, 52, 0
2, 120040, End_track
3, 0, Start_track
3, 0, Title_t, "MIDI"
3, 1536, End_track
0, 0, End_of_file
