0, 0, Header, 1, 3, 192
1, 0, Start_track
1, 0, Time_signature, 4, 2, 24, 8
1, 0, Tempo, 500000
1, 120040, End_track
2, 0, Start_track
2, 0, Text_t, "random instrument: random person i dunno whatev"
2, 0, Title_t, "Track 1"
2, 0, Note_on_c, 1, 58, 127
2, 0, Note_on_c, 1, 66, 127
2, 0, Note_on_c, 1, 78, 127
2, 0, Note_on_c, 1, 82, 127
2, 0, Note_on_c, 1, 90, 127
2, 360, Note_off_c, 1, 58, 0
2, 360, Note_off_c, 1, 66, 0
2, 360, Note_off_c, 1, 78, 0
2, 360, Note_off_c, 1, 82, 0
2, 360, Note_off_c, 1, 90, 0
2, 400, Note_on_c, 1, 51, 127
2, 400, Note_on_c, 1, 59, 127
2, 400, Note_on_c, 1, 71, 127
2, 400, Note_on_c, 1, 75, 127
2, 760, Note_off_c, 1, 51, 0
2, 760, Note_off_c, 1, 59, 0
2, 760, Note_off_c, 1, 71, 0
2, 760, Note_off_c, 1, 75, 0
2, 800, Note_on_c, 1, 51, 127
2, 800, Note_on_c, 1, 59, 127
2, 800, Note_on_c, 1, 71, 127
2, 800, Note_on_c, 1, 75, 127
2, 1280, Note_off_c, 1, 51, 0
2, 1280, Note_off_c, 1, 59, 0
2, 1280, Note_off_c, 1, 71, 0
2, 1280, Note_off_c, 1, 75, 0
2, 1320, Note_on_c, 1, 42, 127
2, 1320, Note_on_c, 1, 78, 127
2, 1720, Note_off_c, 1, 42, 0
2, 1760, Note_on_c, 1, 49, 127
2, 2120, Note_off_c, 1, 49, 0
2, 2160, Note_on_c, 1, 54, 127
2, 2520, Note_off_c, 1, 54, 0
2, 2560, Note_on_c, 1, 61, 127
2, 2920, Note_off_c, 1, 61, 0
2, 2920, Note_off_c, 1, 78, 0
2, 3000, Note_on_c, 1, 59, 127
2, 3000, Note_on_c, 1, 77, 127
2, 3360, Note_off_c, 1, 59, 0
2, 3360, Note_off_c, 1, 77, 0
2, 3400, Note_on_c, 1, 61, 127
2, 3400, Note_on_c, 1, 78, 127
2, 3760, Note_off_c, 1, 61, 0
2, 3760, Note_off_c, 1, 78, 0
2, 3800, Note_on_c, 1, 52, 127
2, 3800, Note_on_c, 1, 80, 127
2, 4160, Note_off_c, 1, 52, 0
2, 4200, Note_on_c, 1, 61, 127
2, 4560, Note_off_c, 1, 61, 0
2, 4600, Note_on_c, 1, 52, 127
2, 5000, Note_off_c, 1, 52, 0
2, 5000, Note_off_c, 1, 80, 0
2, 5080, Note_on_c, 1, 56, 127
2, 5080, Note_on_c, 1, 79, 127
2, 5440, Note_off_c, 1, 56, 0
2, 5480, Note_on_c, 1, 43, 127
2, 5480, Note_on_c, 1, 77, 127
2, 5480, Note_off_c, 1, 79, 0
2, 5840, Note_off_c, 1, 43, 0
2, 5880, Note_on_c, 1, 43, 127
2, 6200, Note_off_c, 1, 43, 0
2, 6240, Note_on_c, 1, 43, 127
2, 6600, Note_off_c, 1, 43, 0
2, 6640, Note_on_c, 1, 50, 127
2, 7000, Note_off_c, 1, 50, 0
2, 7040, Note_on_c, 1, 44, 127
2, 7360, Note_off_c, 1, 44, 0
2, 7360, Note_off_c, 1, 77, 0
2, 7400, Note_on_c, 1, 44, 127
2, 7400, Note_on_c, 1, 77, 127
2, 7440, Note_off_c, 1, 44, 0
2, 7480, Note_on_c, 1, 49, 127
2, 7840, Note_off_c, 1, 49, 0
2, 7880, Note_on_c, 1, 51, 127
2, 8240, Note_off_c, 1, 51, 0
2, 8280, Note_on_c, 1, 61, 127
2, 8640, Note_off_c, 1, 61, 0
2, 8640, Note_off_c, 1, 77, 0
2, 8680, Note_on_c, 1, 39, 127
2, 8680, Note_on_c, 1, 75, 127
2, 9040, Note_off_c, 1, 39, 0
2, 9040, Note_off_c, 1, 75, 0
2, 9080, Note_on_c, 1, 44, 127
2, 9080, Note_on_c, 1, 75, 127
2, 9440, Note_off_c, 1, 44, 0
2, 9480, Note_off_c, 1, 75, 0
2, 9520, Note_on_c, 1, 52, 127
2, 9520, Note_on_c, 1, 75, 127
2, 9880, Note_off_c, 1, 52, 0
2, 9880, Note_off_c, 1, 75, 0
2, 9920, Note_on_c, 1, 44, 127
2, 9920, Note_on_c, 1, 73, 127
2, 10280, Note_off_c, 1, 44, 0
2, 10320, Note_on_c, 1, 56, 127
2, 10680, Note_off_c, 1, 56, 0
2, 10720, Note_on_c, 1, 44, 127
2, 11080, Note_off_c, 1, 44, 0
2, 11120, Note_on_c, 1, 44, 127
2, 11480, Note_off_c, 1, 44, 0
2, 11480, Note_off_c, 1, 73, 0
2, 11520, Note_on_c, 1, 44, 127
2, 11520, Note_on_c, 1, 76, 127
2, 11880, Note_off_c, 1, 44, 0
2, 11920, Note_off_c, 1, 76, 0
2, 11960, Note_on_c, 1, 37, 127
2, 11960, Note_on_c, 1, 76, 127
2, 12320, Note_off_c, 1, 37, 0
2, 12320, Note_off_c, 1, 76, 0
2, 12360, Note_on_c, 1, 44, 127
2, 12360, Note_on_c, 1, 77, 127
2, 12720, Note_off_c, 1, 44, 0
2, 12760, Note_on_c, 1, 47, 127
2, 13120, Note_off_c, 1, 47, 0
2, 13160, Note_on_c, 1, 49, 127
2, 13160, Note_off_c, 1, 77, 0
2, 13160, Note_on_c, 1, 80, 127
2, 13520, Note_off_c, 1, 49, 0
2, 13560, Note_on_c, 1, 54, 127
2, 13560, Note_off_c, 1, 80, 0
2, 13560, Note_on_c, 1, 82, 127
2, 13920, Note_off_c, 1, 54, 0
2, 13960, Note_on_c, 1, 61, 127
2, 14120, Note_off_c, 1, 61, 0
2, 14120, Note_off_c, 1, 82, 0
2, 14160, Note_on_c, 1, 61, 127
2, 14160, Note_on_c, 1, 82, 127
2, 14360, Note_off_c, 1, 61, 0
2, 14360, Note_off_c, 1, 82, 0
2, 14400, Note_on_c, 1, 54, 127
2, 14400, Note_on_c, 1, 82, 127
2, 14760, Note_off_c, 1, 54, 0
2, 14800, Note_on_c, 1, 58, 127
2, 15160, Note_off_c, 1, 58, 0
2, 15160, Note_off_c, 1, 82, 0
2, 15200, Note_on_c, 1, 58, 127
2, 15200, Note_on_c, 1, 78, 127
2, 15560, Note_off_c, 1, 58, 0
2, 15600, Note_on_c, 1, 49, 127
2, 15960, Note_off_c, 1, 49, 0
2, 16000, Note_on_c, 1, 54, 127
2, 16360, Note_off_c, 1, 54, 0
2, 16400, Note_off_c, 1, 78, 0
2, 16440, Note_on_c, 1, 49, 127
2, 16440, Note_on_c, 1, 78, 127
2, 16800, Note_off_c, 1, 49, 0
2, 16840, Note_on_c, 1, 39, 127
2, 17200, Note_off_c, 1, 39, 0
2, 17200, Note_off_c, 1, 78, 0
2, 17240, Note_on_c, 1, 53, 127
2, 17240, Note_on_c, 1, 81, 127
2, 17600, Note_off_c, 1, 53, 0
2, 17640, Note_on_c, 1, 63, 127
2, 18000, Note_off_c, 1, 63, 0
2, 18000, Note_off_c, 1, 81, 0
2, 18040, Note_on_c, 1, 60, 127
2, 18040, Note_on_c, 1, 77, 127
2, 18440, Note_off_c, 1, 60, 0
2, 18440, Note_off_c, 1, 77, 0
2, 18480, Note_on_c, 1, 60, 127
2, 18480, Note_on_c, 1, 68, 127
2, 18480, Note_on_c, 1, 77, 127
2, 18840, Note_off_c, 1, 60, 0
2, 18840, Note_off_c, 1, 68, 0
2, 18880, Note_on_c, 1, 46, 127
2, 19240, Note_off_c, 1, 46, 0
2, 19280, Note_on_c, 1, 56, 127
2, 19640, Note_off_c, 1, 56, 0
2, 19640, Note_off_c, 1, 77, 0
2, 19680, Note_on_c, 1, 50, 127
2, 19680, Note_on_c, 1, 77, 127
2, 20040, Note_off_c, 1, 50, 0
2, 20080, Note_on_c, 1, 58, 127
2, 20440, Note_off_c, 1, 58, 0
2, 20440, Note_off_c, 1, 77, 0
2, 20480, Note_on_c, 1, 41, 127
2, 20480, Note_on_c, 1, 75, 127
2, 20800, Note_off_c, 1, 41, 0
2, 20800, Note_off_c, 1, 75, 0
2, 20840, Note_on_c, 1, 41, 127
2, 20840, Note_on_c, 1, 75, 127
2, 20880, Note_off_c, 1, 41, 0
2, 20880, Note_off_c, 1, 75, 0
2, 20920, Note_on_c, 1, 41, 127
2, 20920, Note_on_c, 1, 75, 127
2, 21280, Note_off_c, 1, 41, 0
2, 21280, Note_off_c, 1, 75, 0
2, 21320, Note_on_c, 1, 48, 127
2, 21320, Note_on_c, 1, 75, 127
2, 21680, Note_off_c, 1, 48, 0
2, 21720, Note_on_c, 1, 53, 127
2, 22080, Note_off_c, 1, 53, 0
2, 22080, Note_off_c, 1, 75, 0
2, 22120, Note_on_c, 1, 39, 127
2, 22120, Note_on_c, 1, 77, 127
2, 22480, Note_off_c, 1, 39, 0
2, 22480, Note_off_c, 1, 77, 0
2, 22520, Note_on_c, 1, 39, 127
2, 22520, Note_on_c, 1, 75, 127
2, 22880, Note_off_c, 1, 39, 0
2, 22920, Note_on_c, 1, 39, 127
2, 22920, Note_off_c, 1, 75, 0
2, 22920, Note_on_c, 1, 77, 127
2, 23120, Note_off_c, 1, 39, 0
2, 23120, Note_off_c, 1, 77, 0
2, 23160, Note_on_c, 1, 39, 127
2, 23160, Note_on_c, 1, 77, 127
2, 23320, Note_off_c, 1, 39, 0
2, 23320, Note_off_c, 1, 77, 0
2, 23360, Note_on_c, 1, 39, 127
2, 23360, Note_on_c, 1, 75, 127
2, 23720, Note_off_c, 1, 39, 0
2, 23760, Note_on_c, 1, 46, 127
2, 24120, Note_off_c, 1, 46, 0
2, 24160, Note_on_c, 1, 63, 127
2, 24520, Note_off_c, 1, 63, 0
2, 24520, Note_off_c, 1, 75, 0
2, 24560, Note_on_c, 1, 44, 127
2, 24560, Note_on_c, 1, 75, 127
2, 24920, Note_off_c, 1, 44, 0
2, 24960, Note_on_c, 1, 51, 127
2, 25360, Note_off_c, 1, 51, 0
2, 25360, Note_off_c, 1, 75, 0
2, 25440, Note_on_c, 1, 44, 127
2, 25440, Note_on_c, 1, 77, 127
2, 25760, Note_off_c, 1, 44, 0
2, 25800, Note_on_c, 1, 73, 127
2, 26160, Note_off_c, 1, 73, 0
2, 26200, Note_on_c, 1, 73, 127
2, 26560, Note_off_c, 1, 73, 0
2, 26560, Note_off_c, 1, 77, 0
2, 26600, Note_on_c, 1, 39, 127
2, 26960, Note_off_c, 1, 39, 0
2, 27000, Note_on_c, 1, 39, 127
2, 27000, Note_on_c, 1, 79, 127
2, 27360, Note_off_c, 1, 39, 0
2, 27400, Note_on_c, 1, 46, 127
2, 27720, Note_off_c, 1, 46, 0
2, 27720, Note_off_c, 1, 79, 0
2, 27760, Note_on_c, 1, 46, 127
2, 27760, Note_on_c, 1, 79, 127
2, 27800, Note_off_c, 1, 46, 0
2, 27840, Note_on_c, 1, 55, 127
2, 28200, Note_off_c, 1, 55, 0
2, 28240, Note_on_c, 1, 63, 127
2, 28600, Note_off_c, 1, 63, 0
2, 28600, Note_off_c, 1, 79, 0
2, 28640, Note_on_c, 1, 46, 127
2, 28640, Note_on_c, 1, 74, 127
2, 29000, Note_off_c, 1, 46, 0
2, 29040, Note_on_c, 1, 51, 127
2, 29400, Note_off_c, 1, 51, 0
2, 29400, Note_off_c, 1, 74, 0
2, 29440, Note_on_c, 1, 58, 127
2, 29440, Note_on_c, 1, 75, 127
2, 29800, Note_off_c, 1, 58, 0
2, 29840, Note_on_c, 1, 63, 127
2, 30000, Note_off_c, 1, 63, 0
2, 30000, Note_off_c, 1, 75, 0
2, 30040, Note_on_c, 1, 63, 127
2, 30040, Note_on_c, 1, 75, 127
2, 30240, Note_off_c, 1, 63, 0
2, 30280, Note_on_c, 1, 41, 127
2, 30640, Note_off_c, 1, 41, 0
2, 30680, Note_on_c, 1, 53, 127
2, 31040, Note_off_c, 1, 53, 0
2, 31080, Note_on_c, 1, 63, 127
2, 31440, Note_off_c, 1, 63, 0
2, 31480, Note_on_c, 1, 46, 127
2, 31840, Note_off_c, 1, 46, 0
2, 31880, Note_on_c, 1, 46, 127
2, 32200, Note_off_c, 1, 46, 0
2, 32200, Note_off_c, 1, 75, 0
2, 32240, Note_on_c, 1, 46, 127
2, 32240, Note_on_c, 1, 75, 127
2, 32280, Note_off_c, 1, 46, 0
2, 32320, Note_on_c, 1, 46, 127
2, 32680, Note_off_c, 1, 46, 0
2, 32720, Note_on_c, 1, 55, 127
2, 33080, Note_off_c, 1, 55, 0
2, 33120, Note_on_c, 1, 46, 127
2, 33480, Note_off_c, 1, 46, 0
2, 33480, Note_off_c, 1, 75, 0
2, 33520, Note_on_c, 1, 41, 127
2, 33520, Note_on_c, 1, 75, 127
2, 33880, Note_off_c, 1, 41, 0
2, 33920, Note_on_c, 1, 53, 127
2, 34280, Note_off_c, 1, 53, 0
2, 34280, Note_off_c, 1, 75, 0
2, 34320, Note_on_c, 1, 44, 127
2, 34320, Note_on_c, 1, 75, 127
2, 34520, Note_off_c, 1, 44, 0
2, 34520, Note_off_c, 1, 75, 0
2, 34560, Note_on_c, 1, 44, 127
2, 34560, Note_on_c, 1, 75, 127
2, 34720, Note_off_c, 1, 44, 0
2, 34760, Note_on_c, 1, 46, 127
2, 35120, Note_off_c, 1, 46, 0
2, 35160, Note_on_c, 1, 56, 127
2, 35520, Note_off_c, 1, 56, 0
2, 35560, Note_on_c, 1, 44, 127
2, 35920, Note_off_c, 1, 44, 0
2, 35960, Note_on_c, 1, 51, 127
2, 36320, Note_off_c, 1, 51, 0
2, 36360, Note_on_c, 1, 60, 127
2, 36720, Note_off_c, 1, 60, 0
2, 36720, Note_off_c, 1, 75, 0
2, 36800, Note_on_c, 1, 44, 127
2, 36800, Note_on_c, 1, 75, 127
2, 37160, Note_off_c, 1, 44, 0
2, 37200, Note_on_c, 1, 56, 127
2, 37560, Note_off_c, 1, 56, 0
2, 37600, Note_on_c, 1, 65, 127
2, 37960, Note_off_c, 1, 65, 0
2, 37960, Note_off_c, 1, 75, 0
2, 38000, Note_on_c, 1, 68, 127
2, 38000, Note_on_c, 1, 72, 127
2, 38360, Note_off_c, 1, 68, 0
2, 38360, Note_off_c, 1, 72, 0
2, 38400, Note_on_c, 1, 48, 127
2, 38400, Note_on_c, 1, 68, 127
2, 38400, Note_on_c, 1, 75, 127
2, 38760, Note_off_c, 1, 75, 0
2, 38800, Note_on_c, 1, 75, 127
2, 39160, Note_off_c, 1, 48, 0
2, 39160, Note_off_c, 1, 68, 0
2, 39160, Note_off_c, 1, 75, 0
2, 39200, Note_on_c, 1, 48, 127
2, 39200, Note_on_c, 1, 68, 127
2, 39200, Note_on_c, 1, 75, 127
2, 41680, Note_off_c, 1, 48, 0
2, 41680, Note_off_c, 1, 68, 0
2, 41680, Note_off_c, 1, 75, 0
2, 41720, Note_on_c, 1, 48, 127
2, 41720, Note_on_c, 1, 68, 127
2, 41720, Note_on_c, 1, 75, 127
2, 42080, Note_off_c, 1, 48, 0
2, 42080, Note_on_c, 1, 49, 127
2, 42080, Note_off_c, 1, 75, 0
2, 42080, Note_on_c, 1, 77, 127
2, 42480, Note_off_c, 1, 49, 0
2, 42480, Note_off_c, 1, 68, 0
2, 42480, Note_off_c, 1, 77, 0
2, 42520, Note_on_c, 1, 56, 127
2, 42520, Note_on_c, 1, 63, 127
2, 42520, Note_on_c, 1, 77, 127
2, 42880, Note_off_c, 1, 56, 0
2, 42880, Note_off_c, 1, 63, 0
2, 42920, Note_on_c, 1, 46, 127
2, 43280, Note_off_c, 1, 46, 0
2, 43320, Note_on_c, 1, 53, 127
2, 43320, Note_on_c, 1, 61, 127
2, 43680, Note_off_c, 1, 53, 0
2, 43680, Note_off_c, 1, 61, 0
2, 43720, Note_on_c, 1, 53, 127
2, 43720, Note_on_c, 1, 61, 127
2, 44000, Note_off_c, 1, 53, 0
2, 44000, Note_off_c, 1, 61, 0
2, 44000, Note_off_c, 1, 77, 0
2, 44040, Note_on_c, 1, 53, 127
2, 44040, Note_on_c, 1, 61, 127
2, 44040, Note_on_c, 1, 77, 127
2, 44120, Note_off_c, 1, 53, 0
2, 44120, Note_off_c, 1, 61, 0
2, 44120, Note_off_c, 1, 77, 0
2, 44160, Note_on_c, 1, 49, 127
2, 44160, Note_on_c, 1, 77, 127
2, 44520, Note_off_c, 1, 49, 0
2, 44560, Note_on_c, 1, 44, 127
2, 44920, Note_off_c, 1, 44, 0
2, 44960, Note_on_c, 1, 49, 127
2, 45320, Note_off_c, 1, 49, 0
2, 45360, Note_on_c, 1, 53, 127
2, 45720, Note_off_c, 1, 53, 0
2, 45760, Note_on_c, 1, 61, 127
2, 46120, Note_off_c, 1, 61, 0
2, 46120, Note_off_c, 1, 77, 0
2, 46200, Note_on_c, 1, 44, 127
2, 46200, Note_on_c, 1, 77, 127
2, 46560, Note_off_c, 1, 44, 0
2, 46600, Note_on_c, 1, 49, 127
2, 46960, Note_off_c, 1, 49, 0
2, 47000, Note_on_c, 1, 53, 127
2, 47360, Note_off_c, 1, 53, 0
2, 47400, Note_on_c, 1, 65, 127
2, 47760, Note_off_c, 1, 65, 0
2, 47760, Note_off_c, 1, 77, 0
2, 47800, Note_on_c, 1, 37, 127
2, 47800, Note_on_c, 1, 73, 127
2, 48160, Note_off_c, 1, 37, 0
2, 48160, Note_off_c, 1, 73, 0
2, 48200, Note_on_c, 1, 73, 127
2, 48400, Note_off_c, 1, 73, 0
2, 48440, Note_on_c, 1, 73, 127
2, 48600, Note_off_c, 1, 73, 0
2, 48640, Note_on_c, 1, 41, 127
2, 48640, Note_on_c, 1, 73, 127
2, 49000, Note_off_c, 1, 41, 0
2, 49040, Note_on_c, 1, 49, 127
2, 49040, Note_on_c, 1, 64, 127
2, 49400, Note_off_c, 1, 49, 0
2, 49400, Note_off_c, 1, 64, 0
2, 49440, Note_on_c, 1, 45, 127
2, 49800, Note_off_c, 1, 45, 0
2, 49840, Note_on_c, 1, 44, 127
2, 50600, Note_off_c, 1, 44, 0
2, 50640, Note_off_c, 1, 73, 0
2, 50680, Note_on_c, 1, 44, 127
2, 50680, Note_on_c, 1, 73, 127
2, 51040, Note_off_c, 1, 44, 0
2, 51440, Note_off_c, 1, 73, 0
2, 51480, Note_on_c, 1, 44, 127
2, 51480, Note_on_c, 1, 80, 127
2, 51840, Note_off_c, 1, 44, 0
2, 51880, Note_on_c, 1, 49, 127
2, 52240, Note_off_c, 1, 49, 0
2, 52280, Note_on_c, 1, 51, 127
2, 52640, Note_off_c, 1, 51, 0
2, 52680, Note_on_c, 1, 68, 127
2, 52880, Note_off_c, 1, 68, 0
2, 52880, Note_off_c, 1, 80, 0
2, 52920, Note_on_c, 1, 68, 127
2, 52920, Note_on_c, 1, 80, 127
2, 53080, Note_off_c, 1, 68, 0
2, 53120, Note_on_c, 1, 48, 127
2, 53480, Note_off_c, 1, 48, 0
2, 53520, Note_on_c, 1, 56, 127
2, 53880, Note_off_c, 1, 56, 0
2, 53920, Note_on_c, 1, 68, 127
2, 54280, Note_off_c, 1, 68, 0
2, 54320, Note_on_c, 1, 71, 127
2, 54680, Note_off_c, 1, 71, 0
2, 54680, Note_off_c, 1, 80, 0
2, 54720, Note_on_c, 1, 37, 127
2, 54720, Note_on_c, 1, 77, 127
2, 55080, Note_off_c, 1, 37, 0
2, 55120, Note_on_c, 1, 44, 127
2, 55280, Note_off_c, 1, 44, 0
2, 55280, Note_off_c, 1, 77, 0
2, 55320, Note_on_c, 1, 44, 127
2, 55320, Note_on_c, 1, 77, 127
2, 55520, Note_off_c, 1, 44, 0
2, 55560, Note_on_c, 1, 49, 127
2, 55920, Note_off_c, 1, 49, 0
2, 55960, Note_on_c, 1, 68, 127
2, 56320, Note_off_c, 1, 68, 0
2, 56320, Note_off_c, 1, 77, 0
2, 56360, Note_on_c, 1, 49, 127
2, 56360, Note_on_c, 1, 77, 127
2, 56720, Note_off_c, 1, 49, 0
2, 56760, Note_on_c, 1, 65, 127
2, 57120, Note_off_c, 1, 65, 0
2, 57120, Note_off_c, 1, 77, 0
2, 57160, Note_on_c, 1, 68, 127
2, 57160, Note_on_c, 1, 77, 127
2, 57520, Note_off_c, 1, 77, 0
2, 57560, Note_off_c, 1, 68, 0
2, 57600, Note_on_c, 1, 68, 127
2, 57600, Note_on_c, 1, 74, 127
2, 57960, Note_off_c, 1, 68, 0
2, 57960, Note_off_c, 1, 74, 0
2, 58000, Note_on_c, 1, 41, 127
2, 58000, Note_on_c, 1, 70, 127
2, 58360, Note_off_c, 1, 41, 0
2, 58400, Note_on_c, 1, 58, 127
2, 58760, Note_off_c, 1, 58, 0
2, 58760, Note_off_c, 1, 70, 0
2, 58800, Note_on_c, 1, 60, 127
2, 58800, Note_on_c, 1, 87, 127
2, 58800, Note_on_c, 1, 91, 127
2, 59160, Note_off_c, 1, 60, 0
2, 59200, Note_on_c, 1, 62, 127
2, 59560, Note_off_c, 1, 62, 0
2, 59560, Note_off_c, 1, 87, 0
2, 59560, Note_off_c, 1, 91, 0
2, 59640, Note_on_c, 1, 60, 127
2, 59640, Note_on_c, 1, 86, 127
2, 59640, Note_on_c, 1, 89, 127
2, 60000, Note_off_c, 1, 60, 0
2, 60040, Note_on_c, 1, 65, 127
2, 60400, Note_off_c, 1, 65, 0
2, 60400, Note_off_c, 1, 86, 0
2, 60400, Note_off_c, 1, 89, 0
2, 60440, Note_on_c, 1, 65, 127
2, 60440, Note_on_c, 1, 90, 127
2, 60440, Note_on_c, 1, 94, 127
2, 61200, Note_off_c, 1, 65, 0
2, 61200, Note_off_c, 1, 90, 0
2, 61200, Note_off_c, 1, 94, 0
2, 61240, Note_on_c, 1, 66, 127
2, 61240, Note_on_c, 1, 90, 127
2, 61240, Note_on_c, 1, 94, 127
2, 61640, Note_off_c, 1, 66, 0
2, 61640, Note_off_c, 1, 90, 0
2, 61640, Note_off_c, 1, 94, 0
2, 61680, Note_on_c, 1, 66, 127
2, 61680, Note_on_c, 1, 90, 127
2, 61680, Note_on_c, 1, 94, 127
2, 61840, Note_on_c, 1, 65, 127
2, 61840, Note_off_c, 1, 66, 0
2, 62040, Note_off_c, 1, 65, 0
2, 62040, Note_off_c, 1, 90, 0
2, 62040, Note_off_c, 1, 94, 0
2, 62080, Note_on_c, 1, 65, 127
2, 62080, Note_on_c, 1, 90, 127
2, 62080, Note_on_c, 1, 94, 127
2, 62440, Note_off_c, 1, 65, 0
2, 62480, Note_on_c, 1, 65, 127
2, 62840, Note_off_c, 1, 65, 0
2, 62840, Note_off_c, 1, 90, 0
2, 62840, Note_off_c, 1, 94, 0
2, 62880, Note_on_c, 1, 65, 127
2, 62880, Note_on_c, 1, 90, 127
2, 62880, Note_on_c, 1, 94, 127
2, 63240, Note_off_c, 1, 65, 0
2, 63280, Note_on_c, 1, 65, 127
2, 63640, Note_off_c, 1, 65, 0
2, 63640, Note_off_c, 1, 90, 0
2, 63640, Note_off_c, 1, 94, 0
2, 63720, Note_on_c, 1, 70, 127
2, 63720, Note_on_c, 1, 73, 127
2, 63720, Note_on_c, 1, 85, 127
2, 64080, Note_off_c, 1, 70, 0
2, 64080, Note_off_c, 1, 73, 0
2, 64120, Note_on_c, 1, 70, 127
2, 64120, Note_on_c, 1, 73, 127
2, 64480, Note_off_c, 1, 70, 0
2, 64480, Note_off_c, 1, 73, 0
2, 64520, Note_on_c, 1, 70, 127
2, 64520, Note_on_c, 1, 73, 127
2, 64880, Note_off_c, 1, 85, 0
2, 64920, Note_on_c, 1, 85, 127
2, 65280, Note_off_c, 1, 85, 0
2, 65320, Note_on_c, 1, 85, 127
2, 65680, Note_off_c, 1, 85, 0
2, 65720, Note_on_c, 1, 85, 127
2, 65960, Note_off_c, 1, 70, 0
2, 65960, Note_off_c, 1, 73, 0
2, 65960, Note_off_c, 1, 85, 0
2, 66000, Note_on_c, 1, 70, 127
2, 66000, Note_on_c, 1, 73, 127
2, 66000, Note_on_c, 1, 85, 127
2, 66040, Note_off_c, 1, 85, 0
2, 66080, Note_on_c, 1, 85, 127
2, 66360, Note_off_c, 1, 70, 0
2, 66360, Note_off_c, 1, 85, 0
2, 66400, Note_on_c, 1, 70, 127
2, 66400, Note_on_c, 1, 85, 127
2, 66760, Note_off_c, 1, 70, 0
2, 66760, Note_off_c, 1, 85, 0
2, 66800, Note_on_c, 1, 66, 127
2, 66800, Note_on_c, 1, 82, 127
2, 67160, Note_off_c, 1, 66, 0
2, 67160, Note_off_c, 1, 82, 0
2, 67200, Note_on_c, 1, 61, 127
2, 67200, Note_on_c, 1, 80, 127
2, 67560, Note_off_c, 1, 61, 0
2, 67560, Note_off_c, 1, 73, 0
2, 67560, Note_off_c, 1, 80, 0
2, 67600, Note_on_c, 1, 58, 127
2, 67600, Note_on_c, 1, 73, 127
2, 67600, Note_on_c, 1, 78, 127
2, 67960, Note_off_c, 1, 58, 0
2, 67960, Note_off_c, 1, 73, 0
2, 67960, Note_off_c, 1, 78, 0
2, 68040, Note_on_c, 1, 58, 127
2, 68040, Note_on_c, 1, 73, 127
2, 68040, Note_on_c, 1, 78, 127
2, 68400, Note_off_c, 1, 58, 0
2, 68440, Note_on_c, 1, 66, 127
2, 68800, Note_off_c, 1, 66, 0
2, 68800, Note_off_c, 1, 73, 0
2, 68840, Note_on_c, 1, 66, 127
2, 68840, Note_on_c, 1, 70, 127
2, 69200, Note_off_c, 1, 66, 0
2, 69200, Note_off_c, 1, 70, 0
2, 69200, Note_off_c, 1, 78, 0
2, 69240, Note_on_c, 1, 70, 127
2, 69240, Note_on_c, 1, 73, 127
2, 69600, Note_off_c, 1, 70, 0
2, 69600, Note_off_c, 1, 73, 0
2, 69640, Note_on_c, 1, 68, 127
2, 69640, Note_on_c, 1, 71, 127
2, 70000, Note_off_c, 1, 68, 0
2, 70000, Note_off_c, 1, 71, 0
2, 70040, Note_on_c, 1, 66, 127
2, 70040, Note_on_c, 1, 70, 127
2, 70240, Note_off_c, 1, 66, 0
2, 70240, Note_off_c, 1, 70, 0
2, 70280, Note_on_c, 1, 66, 127
2, 70280, Note_on_c, 1, 70, 127
2, 70440, Note_off_c, 1, 70, 0
2, 70480, Note_on_c, 1, 73, 127
2, 70840, Note_off_c, 1, 66, 0
2, 70840, Note_off_c, 1, 73, 0
2, 70880, Note_on_c, 1, 70, 127
2, 70880, Note_on_c, 1, 73, 127
2, 71600, Note_off_c, 1, 70, 0
2, 71600, Note_off_c, 1, 73, 0
2, 71640, Note_on_c, 1, 69, 127
2, 71640, Note_on_c, 1, 73, 127
2, 72360, Note_off_c, 1, 69, 0
2, 72360, Note_off_c, 1, 73, 0
2, 72400, Note_on_c, 1, 69, 127
2, 72400, Note_on_c, 1, 73, 127
2, 72880, Note_off_c, 1, 69, 0
2, 72880, Note_off_c, 1, 73, 0
2, 72920, Note_on_c, 1, 69, 127
2, 72920, Note_on_c, 1, 73, 127
2, 73680, Note_off_c, 1, 69, 0
2, 73680, Note_off_c, 1, 73, 0
2, 73720, Note_on_c, 1, 70, 127
2, 73720, Note_on_c, 1, 74, 127
2, 74400, Note_off_c, 1, 70, 0
2, 74400, Note_off_c, 1, 74, 0
2, 74440, Note_on_c, 1, 70, 127
2, 74440, Note_on_c, 1, 74, 127
2, 74480, Note_off_c, 1, 70, 0
2, 74480, Note_off_c, 1, 74, 0
2, 74520, Note_on_c, 1, 69, 127
2, 74520, Note_on_c, 1, 73, 127
2, 75320, Note_off_c, 1, 69, 0
2, 75320, Note_off_c, 1, 73, 0
2, 75360, Note_on_c, 1, 46, 127
2, 75720, Note_off_c, 1, 46, 0
2, 75760, Note_on_c, 1, 54, 127
2, 76120, Note_off_c, 1, 54, 0
2, 76160, Note_on_c, 1, 45, 127
2, 76520, Note_off_c, 1, 45, 0
2, 76600, Note_on_c, 1, 42, 127
2, 76960, Note_off_c, 1, 42, 0
2, 77000, Note_on_c, 1, 54, 127
2, 77360, Note_off_c, 1, 54, 0
2, 77400, Note_on_c, 1, 49, 127
2, 77760, Note_off_c, 1, 49, 0
2, 77800, Note_on_c, 1, 56, 127
2, 78160, Note_off_c, 1, 56, 0
2, 78200, Note_on_c, 1, 54, 127
2, 78560, Note_off_c, 1, 54, 0
2, 78600, Note_on_c, 1, 46, 127
2, 78920, Note_off_c, 1, 46, 0
2, 78960, Note_on_c, 1, 46, 127
2, 79000, Note_off_c, 1, 46, 0
2, 79040, Note_on_c, 1, 66, 127
2, 79400, Note_off_c, 1, 66, 0
2, 79440, Note_on_c, 1, 65, 127
2, 79800, Note_off_c, 1, 65, 0
2, 79840, Note_on_c, 1, 66, 127
2, 80200, Note_off_c, 1, 66, 0
2, 80240, Note_on_c, 1, 70, 127
2, 80600, Note_off_c, 1, 70, 0
2, 80640, Note_on_c, 1, 66, 127
2, 81000, Note_off_c, 1, 66, 0
2, 81040, Note_on_c, 1, 49, 127
2, 81040, Note_on_c, 1, 68, 127
2, 81320, Note_off_c, 1, 49, 0
2, 81320, Note_off_c, 1, 68, 0
2, 81360, Note_on_c, 1, 49, 127
2, 81360, Note_on_c, 1, 68, 127
2, 81400, Note_off_c, 1, 49, 0
2, 81400, Note_off_c, 1, 68, 0
2, 81440, Note_on_c, 1, 67, 127
2, 81800, Note_off_c, 1, 67, 0
2, 81840, Note_on_c, 1, 70, 127
2, 82200, Note_off_c, 1, 70, 0
2, 82240, Note_on_c, 1, 54, 127
2, 82240, Note_on_c, 1, 70, 127
2, 82600, Note_off_c, 1, 54, 0
2, 82600, Note_off_c, 1, 70, 0
2, 82640, Note_on_c, 1, 59, 127
2, 82640, Note_on_c, 1, 71, 127
2, 83000, Note_off_c, 1, 71, 0
2, 83040, Note_on_c, 1, 58, 127
2, 83040, Note_off_c, 1, 59, 0
2, 83040, Note_on_c, 1, 73, 127
2, 83400, Note_off_c, 1, 58, 0
2, 83400, Note_off_c, 1, 73, 0
2, 83440, Note_on_c, 1, 61, 127
2, 83440, Note_on_c, 1, 77, 127
2, 83640, Note_off_c, 1, 61, 0
2, 83640, Note_off_c, 1, 77, 0
2, 83680, Note_on_c, 1, 61, 127
2, 83680, Note_on_c, 1, 77, 127
2, 83840, Note_off_c, 1, 61, 0
2, 83840, Note_off_c, 1, 77, 0
2, 83880, Note_on_c, 1, 66, 127
2, 83880, Note_on_c, 1, 82, 127
2, 84240, Note_off_c, 1, 66, 0
2, 84240, Note_off_c, 1, 82, 0
2, 84280, Note_on_c, 1, 90, 127
2, 84640, Note_off_c, 1, 90, 0
2, 84680, Note_on_c, 1, 70, 127
2, 84680, Note_on_c, 1, 92, 127
2, 85040, Note_off_c, 1, 70, 0
2, 85440, Note_off_c, 1, 92, 0
2, 85480, Note_on_c, 1, 59, 127
2, 85480, Note_on_c, 1, 63, 127
2, 85480, Note_on_c, 1, 95, 127
2, 85560, Note_on_c, 1, 90, 127
2, 85560, Note_off_c, 1, 95, 0
2, 85840, Note_off_c, 1, 90, 0
2, 85880, Note_off_c, 1, 59, 0
2, 85880, Note_off_c, 1, 63, 0
2, 85920, Note_on_c, 1, 59, 127
2, 85920, Note_on_c, 1, 63, 127
2, 85920, Note_on_c, 1, 90, 127
2, 86280, Note_off_c, 1, 59, 0
2, 86280, Note_off_c, 1, 63, 0
2, 86280, Note_off_c, 1, 90, 0
2, 86320, Note_on_c, 1, 90, 127
2, 86680, Note_off_c, 1, 90, 0
2, 86720, Note_on_c, 1, 43, 127
2, 86720, Note_on_c, 1, 84, 127
2, 86720, Note_on_c, 1, 87, 127
2, 86760, Note_on_c, 1, 34, 127
2, 86760, Note_off_c, 1, 43, 0
2, 86760, Note_on_c, 1, 71, 127
2, 86760, Note_on_c, 1, 78, 127
2, 86760, Note_on_c, 1, 80, 127
2, 86760, Note_on_c, 1, 83, 127
2, 86760, Note_off_c, 1, 84, 0
2, 86760, Note_off_c, 1, 87, 0
2, 86800, Note_off_c, 1, 34, 0
2, 86800, Note_on_c, 1, 44, 127
2, 86800, Note_off_c, 1, 71, 0
2, 86800, Note_on_c, 1, 77, 127
2, 86800, Note_off_c, 1, 78, 0
2, 86800, Note_off_c, 1, 83, 0
2, 86840, Note_off_c, 1, 44, 0
2, 86840, Note_on_c, 1, 48, 127
2, 86840, Note_on_c, 1, 52, 127
2, 86840, Note_on_c, 1, 55, 127
2, 86840, Note_on_c, 1, 58, 127
2, 86840, Note_on_c, 1, 60, 127
2, 86840, Note_on_c, 1, 64, 127
2, 86840, Note_off_c, 1, 77, 0
2, 86840, Note_off_c, 1, 80, 0
2, 86880, Note_on_c, 1, 35, 127
2, 86880, Note_off_c, 1, 48, 0
2, 86880, Note_off_c, 1, 52, 0
2, 86880, Note_off_c, 1, 55, 0
2, 86880, Note_off_c, 1, 58, 0
2, 86880, Note_off_c, 1, 60, 0
2, 86880, Note_off_c, 1, 64, 0
2, 86880, Note_on_c, 1, 95, 127
2, 87080, Note_off_c, 1, 95, 0
2, 87120, Note_on_c, 1, 95, 127
2, 87480, Note_off_c, 1, 35, 0
2, 87480, Note_off_c, 1, 95, 0
2, 87520, Note_on_c, 1, 80, 127
2, 87520, Note_on_c, 1, 92, 127
2, 87920, Note_off_c, 1, 80, 0
2, 87920, Note_off_c, 1, 92, 0
2, 87960, Note_on_c, 1, 71, 127
2, 87960, Note_on_c, 1, 80, 127
2, 87960, Note_on_c, 1, 92, 127
2, 88320, Note_off_c, 1, 71, 0
2, 88320, Note_off_c, 1, 80, 0
2, 88320, Note_off_c, 1, 92, 0
2, 88360, Note_on_c, 1, 80, 127
2, 88360, Note_on_c, 1, 92, 127
2, 89120, Note_off_c, 1, 80, 0
2, 89120, Note_off_c, 1, 92, 0
2, 89160, Note_on_c, 1, 59, 127
2, 89520, Note_off_c, 1, 59, 0
2, 89560, Note_on_c, 1, 77, 127
2, 89560, Note_on_c, 1, 89, 127
2, 89960, Note_on_c, 1, 62, 127
2, 90160, Note_off_c, 1, 62, 0
2, 90160, Note_off_c, 1, 77, 0
2, 90160, Note_off_c, 1, 89, 0
2, 90200, Note_on_c, 1, 62, 127
2, 90200, Note_on_c, 1, 77, 127
2, 90200, Note_on_c, 1, 89, 127
2, 90360, Note_off_c, 1, 62, 0
2, 90400, Note_on_c, 1, 66, 127
2, 90760, Note_off_c, 1, 66, 0
2, 90760, Note_off_c, 1, 77, 0
2, 90760, Note_off_c, 1, 89, 0
2, 90800, Note_on_c, 1, 54, 127
2, 90800, Note_on_c, 1, 75, 127
2, 90800, Note_on_c, 1, 87, 127
2, 91160, Note_off_c, 1, 54, 0
2, 91200, Note_on_c, 1, 66, 127
2, 91560, Note_off_c, 1, 66, 0
2, 91560, Note_off_c, 1, 75, 0
2, 91560, Note_off_c, 1, 87, 0
2, 91600, Note_on_c, 1, 70, 127
2, 91600, Note_on_c, 1, 73, 127
2, 91600, Note_on_c, 1, 85, 127
2, 91960, Note_off_c, 1, 70, 0
2, 92000, Note_on_c, 1, 66, 127
2, 92360, Note_off_c, 1, 66, 0
2, 92360, Note_off_c, 1, 73, 0
2, 92360, Note_off_c, 1, 85, 0
2, 92440, Note_on_c, 1, 66, 127
2, 92440, Note_on_c, 1, 73, 127
2, 92440, Note_on_c, 1, 85, 127
2, 92800, Note_off_c, 1, 66, 0
2, 92840, Note_on_c, 1, 66, 127
2, 93200, Note_off_c, 1, 66, 0
2, 93200, Note_off_c, 1, 73, 0
2, 93200, Note_off_c, 1, 85, 0
2, 93240, Note_on_c, 1, 77, 127
2, 93600, Note_off_c, 1, 77, 0
2, 93640, Note_on_c, 1, 73, 127
2, 93640, Note_on_c, 1, 80, 127
2, 94000, Note_off_c, 1, 73, 0
2, 94040, Note_on_c, 1, 73, 127
2, 94400, Note_off_c, 1, 73, 0
2, 94400, Note_off_c, 1, 80, 0
2, 94480, Note_on_c, 1, 73, 127
2, 94480, Note_on_c, 1, 80, 127
2, 94840, Note_off_c, 1, 73, 0
2, 94880, Note_on_c, 1, 73, 127
2, 95240, Note_off_c, 1, 73, 0
2, 95280, Note_on_c, 1, 73, 127
2, 95640, Note_off_c, 1, 73, 0
2, 95680, Note_on_c, 1, 73, 127
2, 96040, Note_off_c, 1, 73, 0
2, 96080, Note_on_c, 1, 73, 127
2, 96440, Note_off_c, 1, 73, 0
2, 96480, Note_off_c, 1, 80, 0
2, 96520, Note_on_c, 1, 73, 127
2, 96520, Note_on_c, 1, 80, 127
2, 96840, Note_off_c, 1, 73, 0
2, 96920, Note_on_c, 1, 73, 127
2, 97280, Note_off_c, 1, 73, 0
2, 97320, Note_on_c, 1, 68, 127
2, 97680, Note_off_c, 1, 68, 0
2, 97720, Note_on_c, 1, 73, 127
2, 98080, Note_off_c, 1, 73, 0
2, 98120, Note_on_c, 1, 71, 127
2, 98440, Note_off_c, 1, 71, 0
2, 98440, Note_off_c, 1, 80, 0
2, 98480, Note_on_c, 1, 71, 127
2, 98480, Note_on_c, 1, 80, 127
2, 98520, Note_off_c, 1, 71, 0
2, 98520, Note_off_c, 1, 80, 0
2, 98560, Note_on_c, 1, 73, 127
2, 98560, Note_on_c, 1, 80, 127
2, 98920, Note_off_c, 1, 73, 0
2, 98960, Note_on_c, 1, 70, 127
2, 99320, Note_off_c, 1, 70, 0
2, 99320, Note_off_c, 1, 80, 0
2, 99360, Note_on_c, 1, 70, 127
2, 99360, Note_on_c, 1, 78, 127
2, 100120, Note_off_c, 1, 70, 0
2, 100120, Note_off_c, 1, 78, 0
2, 100160, Note_on_c, 1, 73, 127
2, 100160, Note_on_c, 1, 80, 127
2, 100520, Note_off_c, 1, 73, 0
2, 100560, Note_off_c, 1, 80, 0
2, 100600, Note_on_c, 1, 73, 127
2, 100600, Note_on_c, 1, 80, 127
2, 100960, Note_off_c, 1, 80, 0
2, 101000, Note_on_c, 1, 78, 127
2, 101000, Note_on_c, 1, 82, 127
2, 101360, Note_off_c, 1, 78, 0
2, 101360, Note_off_c, 1, 82, 0
2, 101400, Note_on_c, 1, 78, 127
2, 101400, Note_on_c, 1, 82, 127
2, 101760, Note_off_c, 1, 73, 0
2, 101760, Note_off_c, 1, 78, 0
2, 101760, Note_off_c, 1, 82, 0
2, 101800, Note_on_c, 1, 73, 127
2, 101800, Note_on_c, 1, 78, 127
2, 101800, Note_on_c, 1, 82, 127
2, 102560, Note_off_c, 1, 73, 0
2, 102560, Note_off_c, 1, 78, 0
2, 102560, Note_off_c, 1, 82, 0
2, 102640, Note_on_c, 1, 73, 127
2, 102640, Note_on_c, 1, 80, 127
2, 103000, Note_off_c, 1, 73, 0
2, 103000, Note_off_c, 1, 80, 0
2, 103040, Note_on_c, 1, 42, 127
2, 103040, Note_on_c, 1, 66, 127
2, 103040, Note_on_c, 1, 70, 127
2, 103800, Note_off_c, 1, 42, 0
2, 103800, Note_off_c, 1, 66, 0
2, 103800, Note_off_c, 1, 70, 0
2, 103840, Note_on_c, 1, 66, 127
2, 103840, Note_on_c, 1, 70, 127
2, 104200, Note_off_c, 1, 66, 0
2, 104200, Note_off_c, 1, 70, 0
2, 104240, Note_on_c, 1, 77, 127
2, 104600, Note_off_c, 1, 77, 0
2, 104640, Note_on_c, 1, 78, 127
2, 104840, Note_off_c, 1, 78, 0
2, 104880, Note_on_c, 1, 78, 127
2, 104920, Note_off_c, 1, 78, 0
2, 104960, Note_on_c, 1, 78, 127
2, 105240, Note_off_c, 1, 78, 0
2, 105280, Note_on_c, 1, 73, 127
2, 105280, Note_on_c, 1, 80, 127
2, 105640, Note_off_c, 1, 73, 0
2, 105680, Note_on_c, 1, 71, 127
2, 106040, Note_off_c, 1, 80, 0
2, 106080, Note_on_c, 1, 77, 127
2, 106440, Note_off_c, 1, 71, 0
2, 106440, Note_off_c, 1, 77, 0
2, 106480, Note_on_c, 1, 70, 127
2, 106480, Note_on_c, 1, 73, 127
2, 106840, Note_off_c, 1, 70, 0
2, 106840, Note_off_c, 1, 73, 0
2, 106920, Note_on_c, 1, 70, 127
2, 106920, Note_on_c, 1, 73, 127
2, 107280, Note_off_c, 1, 70, 0
2, 107280, Note_off_c, 1, 73, 0
2, 107320, Note_on_c, 1, 70, 127
2, 107320, Note_on_c, 1, 73, 127
2, 107680, Note_off_c, 1, 70, 0
2, 107720, Note_on_c, 1, 69, 127
2, 108080, Note_off_c, 1, 69, 0
2, 108080, Note_off_c, 1, 73, 0
2, 108120, Note_on_c, 1, 70, 127
2, 108120, Note_on_c, 1, 73, 127
2, 108480, Note_off_c, 1, 73, 0
2, 108520, Note_on_c, 1, 73, 127
2, 108880, Note_off_c, 1, 70, 0
2, 108880, Note_off_c, 1, 73, 0
2, 108960, Note_on_c, 1, 46, 127
2, 108960, Note_on_c, 1, 66, 127
2, 108960, Note_on_c, 1, 73, 127
2, 109320, Note_off_c, 1, 46, 0
2, 109320, Note_off_c, 1, 73, 0
2, 109360, Note_on_c, 1, 47, 127
2, 109360, Note_on_c, 1, 75, 127
2, 109720, Note_off_c, 1, 47, 0
2, 109720, Note_off_c, 1, 75, 0
2, 109760, Note_on_c, 1, 47, 127
2, 109760, Note_on_c, 1, 75, 127
2, 110120, Note_off_c, 1, 75, 0
2, 110160, Note_on_c, 1, 75, 127
2, 110520, Note_off_c, 1, 47, 0
2, 110520, Note_off_c, 1, 66, 0
2, 110520, Note_off_c, 1, 75, 0
2, 110560, Note_on_c, 1, 54, 127
2, 110560, Note_on_c, 1, 63, 127
2, 110560, Note_on_c, 1, 70, 127
2, 111080, Note_off_c, 1, 54, 0
2, 111080, Note_off_c, 1, 63, 0
2, 111080, Note_off_c, 1, 70, 0
2, 111120, Note_on_c, 1, 54, 127
2, 111120, Note_on_c, 1, 63, 127
2, 111120, Note_on_c, 1, 70, 127
2, 111360, Note_off_c, 1, 54, 0
2, 111360, Note_off_c, 1, 63, 0
2, 111360, Note_off_c, 1, 70, 0
2, 111400, Note_on_c, 1, 54, 127
2, 111400, Note_on_c, 1, 63, 127
2, 111400, Note_on_c, 1, 66, 127
2, 111760, Note_off_c, 1, 54, 0
2, 111760, Note_off_c, 1, 63, 0
2, 111800, Note_on_c, 1, 54, 127
2, 111800, Note_on_c, 1, 63, 127
2, 112160, Note_off_c, 1, 54, 0
2, 112160, Note_off_c, 1, 63, 0
2, 112160, Note_off_c, 1, 66, 0
2, 112200, Note_on_c, 1, 35, 127
2, 112200, Note_on_c, 1, 63, 127
2, 112200, Note_on_c, 1, 66, 127
2, 112560, Note_off_c, 1, 35, 0
2, 112560, Note_off_c, 1, 63, 0
2, 112600, Note_on_c, 1, 47, 127
2, 112960, Note_off_c, 1, 47, 0
2, 112960, Note_off_c, 1, 66, 0
2, 113000, Note_on_c, 1, 63, 127
2, 113000, Note_on_c, 1, 67, 127
2, 113000, Note_on_c, 1, 77, 127
2, 113000, Note_on_c, 1, 89, 127
2, 113040, Note_on_c, 1, 37, 127
2, 113040, Note_on_c, 1, 40, 127
2, 113040, Note_on_c, 1, 49, 127
2, 113040, Note_off_c, 1, 63, 0
2, 113040, Note_on_c, 1, 64, 127
2, 113040, Note_off_c, 1, 67, 0
2, 113040, Note_off_c, 1, 77, 0
2, 113040, Note_off_c, 1, 89, 0
2, 113360, Note_off_c, 1, 37, 0
2, 113360, Note_off_c, 1, 40, 0
2, 113360, Note_off_c, 1, 49, 0
2, 113400, Note_off_c, 1, 64, 0
2, 113440, Note_on_c, 1, 47, 127
2, 113440, Note_on_c, 1, 61, 127
2, 113440, Note_on_c, 1, 66, 127
2, 113720, Note_on_c, 1, 59, 127
2, 113720, Note_off_c, 1, 61, 0
2, 113800, Note_off_c, 1, 47, 0
2, 113800, Note_off_c, 1, 59, 0
2, 113840, Note_on_c, 1, 47, 127
2, 114200, Note_off_c, 1, 47, 0
2, 114200, Note_off_c, 1, 66, 0
2, 114240, Note_on_c, 1, 35, 127
2, 114240, Note_on_c, 1, 63, 127
2, 115400, Note_off_c, 1, 35, 0
2, 115400, Note_off_c, 1, 63, 0
2, 115440, Note_on_c, 1, 40, 127
2, 115440, Note_on_c, 1, 52, 127
2, 115440, Note_on_c, 1, 68, 127
2, 115800, Note_off_c, 1, 68, 0
2, 115800, Note_on_c, 1, 70, 127
2, 115840, Note_off_c, 1, 40, 0
2, 115840, Note_off_c, 1, 52, 0
2, 115840, Note_on_c, 1, 68, 127
2, 115840, Note_off_c, 1, 70, 0
2, 115880, Note_off_c, 1, 68, 0
2, 115920, Note_on_c, 1, 56, 127
2, 115920, Note_on_c, 1, 68, 127
2, 116280, Note_off_c, 1, 56, 0
2, 116320, Note_on_c, 1, 63, 127
2, 116680, Note_off_c, 1, 63, 0
2, 116720, Note_on_c, 1, 59, 127
2, 117080, Note_off_c, 1, 59, 0
2, 117080, Note_off_c, 1, 68, 0
2, 117120, Note_on_c, 1, 56, 127
2, 117120, Note_on_c, 1, 64, 127
2, 117480, Note_off_c, 1, 56, 0
2, 117480, Note_off_c, 1, 64, 0
2, 117520, Note_on_c, 1, 40, 127
2, 117520, Note_on_c, 1, 71, 127
2, 117880, Note_off_c, 1, 40, 0
2, 117920, Note_on_c, 1, 52, 127
2, 118280, Note_off_c, 1, 52, 0
2, 118280, Note_off_c, 1, 71, 0
2, 118320, Note_on_c, 1, 71, 127
2, 118360, Note_on_c, 1, 56, 127
2, 118720, Note_off_c, 1, 56, 0
2, 118720, Note_off_c, 1, 71, 0
2, 118760, Note_on_c, 1, 59, 127
2, 118760, Note_on_c, 1, 78, 127
2, 119120, Note_off_c, 1, 59, 0
2, 119120, Note_off_c, 1, 78, 0
2, 119160, Note_on_c, 1, 52, 127
2, 119160, Note_on_c, 1, 80, 127
2, 119520, Note_off_c, 1, 52, 0
2, 119560, Note_on_c, 1, 62, 127
2, 119920, Note_off_c, 1, 62, 0
2, 119960, Note_on_c, 1, 52, 127
2, 120000, Note_off_c, 1, 52, 0
2, 120000, Note_off_c, 1, 80, 0
2, 120040, End_track
3, 0, Start_track
3, 0, Title_t, "MIDI"
3, 1536, End_track
0, 0, End_of_file
