0, 0, Header, 1, 3, 192
1, 0, Start_track
1, 0, Time_signature, 4, 2, 24, 8
1, 0, Tempo, 500000
1, 120040, End_track
2, 0, Start_track
2, 0, Text_t, "random instrument: random person i dunno whatev"
2, 0, Title_t, "Track 1"
2, 0, Note_on_c, 1, 58, 127
2, 0, Note_on_c, 1, 66, 127
2, 0, Note_on_c, 1, 78, 127
2, 0, Note_on_c, 1, 82, 127
2, 0, Note_on_c, 1, 90, 127
2, 40, Note_on_c, 1, 46, 127
2, 40, Note_off_c, 1, 66, 0
2, 40, Note_off_c, 1, 78, 0
2, 40, Note_on_c, 1, 86, 127
2, 40, Note_off_c, 1, 90, 0
2, 40, Note_on_c, 1, 94, 127
2, 80, Note_off_c, 1, 46, 0
2, 80, Note_off_c, 1, 58, 0
2, 80, Note_off_c, 1, 82, 0
2, 80, Note_off_c, 1, 86, 0
2, 80, Note_off_c, 1, 94, 0
2, 120, Note_on_c, 1, 47, 127
2, 120, Note_on_c, 1, 58, 127
2, 120, Note_on_c, 1, 62, 127
2, 120, Note_on_c, 1, 66, 127
2, 120, Note_on_c, 1, 70, 127
2, 120, Note_on_c, 1, 74, 127
2, 160, Note_off_c, 1, 47, 0
2, 160, Note_on_c, 1, 53, 127
2, 160, Note_off_c, 1, 58, 0
2, 160, Note_off_c, 1, 62, 0
2, 160, Note_off_c, 1, 66, 0
2, 160, Note_off_c, 1, 70, 0
2, 160, Note_off_c, 1, 74, 0
2, 160, Note_on_c, 1, 77, 127
2, 160, Note_on_c, 1, 85, 127
2, 200, Note_off_c, 1, 53, 0
2, 200, Note_on_c, 1, 74, 127
2, 200, Note_off_c, 1, 77, 0
2, 200, Note_on_c, 1, 83, 127
2, 200, Note_off_c, 1, 85, 0
2, 200, Note_on_c, 1, 95, 127
2, 240, Note_on_c, 1, 51, 127
2, 240, Note_on_c, 1, 55, 127
2, 240, Note_on_c, 1, 58, 127
2, 240, Note_on_c, 1, 63, 127
2, 240, Note_off_c, 1, 74, 0
2, 240, Note_on_c, 1, 82, 127
2, 240, Note_off_c, 1, 83, 0
2, 240, Note_on_c, 1, 91, 127
2, 240, Note_off_c, 1, 95, 0
2, 280, Note_off_c, 1, 51, 0
2, 280, Note_off_c, 1, 55, 0
2, 280, Note_off_c, 1, 63, 0
2, 280, Note_on_c, 1, 66, 127
2, 280, Note_on_c, 1, 78, 127
2, 280, Note_on_c, 1, 90, 127
2, 280, Note_off_c, 1, 91, 0
2, 320, Note_off_c, 1, 58, 0
2, 320, Note_off_c, 1, 66, 0
2, 320, Note_on_c, 1, 71, 127
2, 320, Note_on_c, 1, 74, 127
2, 320, Note_off_c, 1, 78, 0
2, 320, Note_on_c, 1, 87, 127
2, 320, Note_off_c, 1, 90, 0
2, 360, Note_on_c, 1, 51, 127
2, 360, Note_on_c, 1, 59, 127
2, 360, Note_on_c, 1, 66, 127
2, 360, Note_on_c, 1, 69, 127
2, 360, Note_off_c, 1, 71, 0
2, 360, Note_off_c, 1, 74, 0
2, 360, Note_on_c, 1, 75, 127
2, 360, Note_off_c, 1, 82, 0
2, 360, Note_on_c, 1, 85, 127
2, 360, Note_off_c, 1, 87, 0
2, 400, Note_off_c, 1, 66, 0
2, 400, Note_off_c, 1, 69, 0
2, 400, Note_on_c, 1, 71, 127
2, 400, Note_off_c, 1, 85, 0
2, 560, Note_on_c, 1, 55, 127
2, 560, Note_off_c, 1, 59, 0
2, 560, Note_off_c, 1, 75, 0
2, 600, Note_off_c, 1, 55, 0
2, 600, Note_on_c, 1, 59, 127
2, 600, Note_on_c, 1, 75, 127
2, 1000, Note_off_c, 1, 51, 0
2, 1000, Note_off_c, 1, 59, 0
2, 1000, Note_off_c, 1, 71, 0
2, 1000, Note_off_c, 1, 75, 0
2, 1040, Note_on_c, 1, 50, 127
2, 1040, Note_on_c, 1, 68, 127
2, 1040, Note_on_c, 1, 71, 127
2, 2240, Note_off_c, 1, 50, 0
2, 2240, Note_off_c, 1, 68, 0
2, 2240, Note_off_c, 1, 71, 0
2, 2320, Note_on_c, 1, 51, 127
2, 2320, Note_on_c, 1, 61, 127
2, 2320, Note_on_c, 1, 67, 127
2, 2320, Note_on_c, 1, 70, 127
2, 2880, Note_off_c, 1, 70, 0
2, 2920, Note_on_c, 1, 73, 127
2, 4080, Note_off_c, 1, 51, 0
2, 4080, Note_off_c, 1, 61, 0
2, 4080, Note_off_c, 1, 67, 0
2, 4080, Note_off_c, 1, 73, 0
2, 4120, Note_on_c, 1, 44, 127
2, 4120, Note_on_c, 1, 59, 127
2, 4120, Note_on_c, 1, 63, 127
2, 4120, Note_on_c, 1, 68, 127
2, 4560, Note_off_c, 1, 44, 0
2, 4560, Note_off_c, 1, 59, 0
2, 4560, Note_off_c, 1, 63, 0
2, 4560, Note_off_c, 1, 68, 0
2, 4600, Note_on_c, 1, 44, 127
2, 4600, Note_on_c, 1, 59, 127
2, 4600, Note_on_c, 1, 63, 127
2, 4600, Note_on_c, 1, 68, 127
2, 4720, Note_off_c, 1, 59, 0
2, 4720, Note_off_c, 1, 63, 0
2, 4720, Note_off_c, 1, 68, 0
2, 4760, Note_on_c, 1, 49, 127
2, 4760, Note_on_c, 1, 59, 127
2, 4760, Note_on_c, 1, 71, 127
2, 5520, Note_off_c, 1, 44, 0
2, 5520, Note_off_c, 1, 49, 0
2, 5520, Note_off_c, 1, 59, 0
2, 5520, Note_off_c, 1, 71, 0
2, 5560, Note_on_c, 1, 44, 127
2, 5560, Note_on_c, 1, 52, 127
2, 5560, Note_on_c, 1, 61, 127
2, 5560, Note_on_c, 1, 68, 127
2, 5560, Note_on_c, 1, 73, 127
2, 6320, Note_off_c, 1, 44, 0
2, 6320, Note_on_c, 1, 51, 127
2, 6320, Note_off_c, 1, 52, 0
2, 6320, Note_on_c, 1, 60, 127
2, 6320, Note_off_c, 1, 61, 0
2, 6320, Note_off_c, 1, 73, 0
2, 6360, Note_on_c, 1, 44, 127
2, 6360, Note_off_c, 1, 51, 0
2, 6360, Note_on_c, 1, 52, 127
2, 6360, Note_off_c, 1, 60, 0
2, 6360, Note_on_c, 1, 61, 127
2, 6360, Note_on_c, 1, 73, 127
2, 6720, Note_off_c, 1, 44, 0
2, 6720, Note_off_c, 1, 52, 0
2, 6720, Note_off_c, 1, 61, 0
2, 6720, Note_off_c, 1, 68, 0
2, 6720, Note_off_c, 1, 73, 0
2, 6760, Note_on_c, 1, 49, 127
2, 6760, Note_on_c, 1, 52, 127
2, 6760, Note_on_c, 1, 57, 127
2, 6760, Note_on_c, 1, 61, 127
2, 6760, Note_on_c, 1, 63, 127
2, 6920, Note_off_c, 1, 49, 0
2, 6920, Note_off_c, 1, 52, 0
2, 6920, Note_off_c, 1, 57, 0
2, 6920, Note_off_c, 1, 61, 0
2, 6920, Note_off_c, 1, 63, 0
2, 6960, Note_on_c, 1, 49, 127
2, 6960, Note_on_c, 1, 52, 127
2, 6960, Note_on_c, 1, 57, 127
2, 6960, Note_on_c, 1, 61, 127
2, 6960, Note_on_c, 1, 63, 127
2, 7200, Note_off_c, 1, 49, 0
2, 7200, Note_off_c, 1, 52, 0
2, 7200, Note_off_c, 1, 57, 0
2, 7200, Note_off_c, 1, 61, 0
2, 7200, Note_off_c, 1, 63, 0
2, 7240, Note_on_c, 1, 47, 127
2, 7240, Note_on_c, 1, 53, 127
2, 7240, Note_on_c, 1, 56, 127
2, 7240, Note_on_c, 1, 68, 127
2, 8000, Note_off_c, 1, 47, 0
2, 8000, Note_off_c, 1, 56, 0
2, 8000, Note_off_c, 1, 68, 0
2, 8040, Note_off_c, 1, 53, 0
2, 8040, Note_on_c, 1, 54, 127
2, 8040, Note_on_c, 1, 63, 127
2, 8040, Note_on_c, 1, 68, 127
2, 8400, Note_off_c, 1, 68, 0
2, 8440, Note_on_c, 1, 71, 127
2, 9200, Note_off_c, 1, 54, 0
2, 9200, Note_off_c, 1, 63, 0
2, 9200, Note_off_c, 1, 71, 0
2, 9240, Note_on_c, 1, 54, 127
2, 9240, Note_on_c, 1, 63, 127
2, 9280, Note_on_c, 1, 71, 127
2, 10040, Note_off_c, 1, 63, 0
2, 10040, Note_off_c, 1, 71, 0
2, 10080, Note_on_c, 1, 63, 127
2, 10080, Note_on_c, 1, 75, 127
2, 10840, Note_off_c, 1, 54, 0
2, 10840, Note_off_c, 1, 63, 0
2, 10840, Note_off_c, 1, 75, 0
2, 10880, Note_on_c, 1, 50, 127
2, 10880, Note_on_c, 1, 65, 127
2, 10880, Note_on_c, 1, 68, 127
2, 10880, Note_on_c, 1, 77, 127
2, 10920, Note_off_c, 1, 68, 0
2, 10920, Note_on_c, 1, 76, 127
2, 10920, Note_off_c, 1, 77, 0
2, 10960, Note_on_c, 1, 68, 127
2, 10960, Note_off_c, 1, 76, 0
2, 10960, Note_on_c, 1, 77, 127
2, 11040, Note_off_c, 1, 77, 0
2, 11200, Note_off_c, 1, 50, 0
2, 11200, Note_off_c, 1, 65, 0
2, 11200, Note_off_c, 1, 68, 0
2, 11240, Note_on_c, 1, 50, 127
2, 11240, Note_on_c, 1, 65, 127
2, 11240, Note_on_c, 1, 68, 127
2, 11280, Note_off_c, 1, 50, 0
2, 11280, Note_off_c, 1, 65, 0
2, 11280, Note_off_c, 1, 68, 0
2, 11320, Note_on_c, 1, 44, 127
2, 11320, Note_on_c, 1, 54, 127
2, 11320, Note_on_c, 1, 60, 127
2, 12480, Note_off_c, 1, 44, 0
2, 12480, Note_off_c, 1, 54, 0
2, 12480, Note_off_c, 1, 60, 0
2, 12520, Note_on_c, 1, 44, 127
2, 12520, Note_on_c, 1, 56, 127
2, 12520, Note_on_c, 1, 60, 127
2, 12520, Note_on_c, 1, 63, 127
2, 12920, Note_off_c, 1, 56, 0
2, 12920, Note_off_c, 1, 60, 0
2, 13280, Note_off_c, 1, 44, 0
2, 13360, Note_off_c, 1, 63, 0
2, 13400, Note_on_c, 1, 44, 127
2, 13400, Note_on_c, 1, 63, 127
2, 13760, Note_off_c, 1, 44, 0
2, 13800, Note_on_c, 1, 44, 127
2, 13800, Note_on_c, 1, 51, 127
2, 14160, Note_off_c, 1, 44, 0
2, 14160, Note_off_c, 1, 51, 0
2, 14200, Note_on_c, 1, 46, 127
2, 14200, Note_on_c, 1, 55, 127
2, 14200, Note_on_c, 1, 61, 127
2, 14200, Note_off_c, 1, 63, 0
2, 15360, Note_off_c, 1, 46, 0
2, 15360, Note_off_c, 1, 55, 0
2, 15360, Note_off_c, 1, 61, 0
2, 15400, Note_on_c, 1, 32, 127
2, 15400, Note_on_c, 1, 44, 127
2, 15400, Note_on_c, 1, 49, 127
2, 15400, Note_on_c, 1, 56, 127
2, 15400, Note_on_c, 1, 58, 127
2, 15480, Note_off_c, 1, 32, 0
2, 15480, Note_off_c, 1, 44, 0
2, 15480, Note_off_c, 1, 49, 0
2, 15480, Note_off_c, 1, 56, 0
2, 15480, Note_off_c, 1, 58, 0
2, 15520, Note_on_c, 1, 32, 127
2, 15520, Note_on_c, 1, 44, 127
2, 15520, Note_on_c, 1, 49, 127
2, 15520, Note_on_c, 1, 56, 127
2, 15520, Note_on_c, 1, 58, 127
2, 15800, Note_off_c, 1, 32, 0
2, 15800, Note_off_c, 1, 49, 0
2, 15800, Note_on_c, 1, 54, 127
2, 15800, Note_off_c, 1, 56, 0
2, 15800, Note_off_c, 1, 58, 0
2, 15800, Note_on_c, 1, 60, 127
2, 17040, Note_off_c, 1, 54, 0
2, 17080, Note_on_c, 1, 51, 127
2, 17440, Note_off_c, 1, 44, 0
2, 17440, Note_off_c, 1, 51, 0
2, 17440, Note_off_c, 1, 60, 0
2, 17480, Note_on_c, 1, 52, 127
2, 17480, Note_on_c, 1, 64, 127
2, 17480, Note_on_c, 1, 66, 127
2, 17480, Note_on_c, 1, 68, 127
2, 17520, Note_off_c, 1, 52, 0
2, 17520, Note_off_c, 1, 64, 0
2, 17520, Note_off_c, 1, 66, 0
2, 17520, Note_off_c, 1, 68, 0
2, 17560, Note_on_c, 1, 65, 127
2, 17560, Note_on_c, 1, 85, 127
2, 17560, Note_on_c, 1, 92, 127
2, 17560, Note_on_c, 1, 95, 127
2, 17560, Note_on_c, 1, 97, 127
2, 17600, Note_on_c, 1, 43, 127
2, 17600, Note_on_c, 1, 48, 127
2, 17600, Note_on_c, 1, 58, 127
2, 17600, Note_on_c, 1, 60, 127
2, 17600, Note_off_c, 1, 65, 0
2, 17600, Note_off_c, 1, 85, 0
2, 17600, Note_off_c, 1, 92, 0
2, 17600, Note_off_c, 1, 95, 0
2, 17600, Note_off_c, 1, 97, 0
2, 17640, Note_on_c, 1, 34, 127
2, 17640, Note_off_c, 1, 43, 0
2, 17640, Note_off_c, 1, 48, 0
2, 17640, Note_off_c, 1, 58, 0
2, 17640, Note_on_c, 1, 68, 127
2, 17640, Note_on_c, 1, 73, 127
2, 17640, Note_on_c, 1, 79, 127
2, 17680, Note_off_c, 1, 34, 0
2, 17680, Note_on_c, 1, 47, 127
2, 17680, Note_on_c, 1, 50, 127
2, 17680, Note_on_c, 1, 55, 127
2, 17680, Note_off_c, 1, 60, 0
2, 17680, Note_on_c, 1, 62, 127
2, 17680, Note_on_c, 1, 67, 127
2, 17680, Note_off_c, 1, 68, 0
2, 17680, Note_off_c, 1, 73, 0
2, 17680, Note_off_c, 1, 79, 0
2, 17720, Note_on_c, 1, 31, 127
2, 17720, Note_on_c, 1, 43, 127
2, 17720, Note_off_c, 1, 47, 0
2, 17720, Note_off_c, 1, 62, 0
2, 17720, Note_off_c, 1, 67, 0
2, 17720, Note_on_c, 1, 74, 127
2, 17720, Note_on_c, 1, 86, 127
2, 17760, Note_on_c, 1, 28, 127
2, 17760, Note_off_c, 1, 31, 0
2, 17760, Note_on_c, 1, 37, 127
2, 17760, Note_on_c, 1, 40, 127
2, 17760, Note_off_c, 1, 43, 0
2, 17760, Note_on_c, 1, 47, 127
2, 17760, Note_on_c, 1, 49, 127
2, 17760, Note_off_c, 1, 50, 0
2, 17760, Note_on_c, 1, 52, 127
2, 17760, Note_off_c, 1, 55, 0
2, 17760, Note_on_c, 1, 64, 127
2, 17760, Note_on_c, 1, 71, 127
2, 17760, Note_off_c, 1, 74, 0
2, 17760, Note_on_c, 1, 76, 127
2, 17760, Note_off_c, 1, 86, 0
2, 17800, Note_off_c, 1, 28, 0
2, 17800, Note_off_c, 1, 37, 0
2, 17800, Note_off_c, 1, 40, 0
2, 17800, Note_on_c, 1, 42, 127
2, 17800, Note_off_c, 1, 47, 0
2, 17800, Note_off_c, 1, 49, 0
2, 17800, Note_off_c, 1, 52, 0
2, 17800, Note_off_c, 1, 64, 0
2, 17800, Note_on_c, 1, 66, 127
2, 17800, Note_on_c, 1, 67, 127
2, 17800, Note_off_c, 1, 71, 0
2, 17800, Note_off_c, 1, 76, 0
2, 17840, Note_on_c, 1, 28, 127
2, 17840, Note_on_c, 1, 37, 127
2, 17840, Note_on_c, 1, 40, 127
2, 17840, Note_off_c, 1, 42, 0
2, 17840, Note_on_c, 1, 47, 127
2, 17840, Note_on_c, 1, 49, 127
2, 17840, Note_on_c, 1, 52, 127
2, 17840, Note_on_c, 1, 64, 127
2, 17840, Note_off_c, 1, 66, 0
2, 17840, Note_off_c, 1, 67, 0
2, 17840, Note_on_c, 1, 71, 127
2, 17840, Note_on_c, 1, 76, 127
2, 17880, Note_off_c, 1, 28, 0
2, 17880, Note_off_c, 1, 37, 0
2, 17880, Note_off_c, 1, 40, 0
2, 17880, Note_off_c, 1, 47, 0
2, 17880, Note_off_c, 1, 49, 0
2, 17880, Note_off_c, 1, 52, 0
2, 17880, Note_off_c, 1, 64, 0
2, 17880, Note_off_c, 1, 71, 0
2, 17880, Note_off_c, 1, 76, 0
2, 17920, Note_on_c, 1, 48, 127
2, 17920, Note_on_c, 1, 54, 127
2, 17920, Note_on_c, 1, 72, 127
2, 18280, Note_on_c, 1, 47, 127
2, 18280, Note_off_c, 1, 48, 0
2, 18280, Note_on_c, 1, 53, 127
2, 18280, Note_off_c, 1, 54, 0
2, 18280, Note_off_c, 1, 72, 0
2, 18320, Note_off_c, 1, 47, 0
2, 18320, Note_on_c, 1, 48, 127
2, 18320, Note_on_c, 1, 50, 127
2, 18320, Note_off_c, 1, 53, 0
2, 18320, Note_on_c, 1, 57, 127
2, 18320, Note_on_c, 1, 60, 127
2, 18320, Note_on_c, 1, 65, 127
2, 18680, Note_off_c, 1, 48, 0
2, 18680, Note_off_c, 1, 50, 0
2, 18680, Note_off_c, 1, 60, 0
2, 18680, Note_on_c, 1, 63, 127
2, 18680, Note_off_c, 1, 65, 0
2, 18680, Note_on_c, 1, 71, 127
2, 18680, Note_on_c, 1, 77, 127
2, 18720, Note_off_c, 1, 57, 0
2, 18720, Note_off_c, 1, 63, 0
2, 18720, Note_off_c, 1, 71, 0
2, 18720, Note_off_c, 1, 77, 0
2, 18760, Note_on_c, 1, 42, 127
2, 18760, Note_on_c, 1, 54, 127
2, 18760, Note_on_c, 1, 66, 127
2, 18760, Note_on_c, 1, 75, 127
2, 18760, Note_on_c, 1, 78, 127
2, 19120, Note_off_c, 1, 42, 0
2, 19120, Note_off_c, 1, 54, 0
2, 19120, Note_off_c, 1, 66, 0
2, 19120, Note_off_c, 1, 75, 0
2, 19120, Note_off_c, 1, 78, 0
2, 19160, Note_on_c, 1, 46, 127
2, 19160, Note_on_c, 1, 54, 127
2, 19160, Note_on_c, 1, 61, 127
2, 19160, Note_on_c, 1, 66, 127
2, 19520, Note_off_c, 1, 66, 0
2, 19560, Note_on_c, 1, 66, 127
2, 20200, Note_off_c, 1, 46, 0
2, 20200, Note_off_c, 1, 54, 0
2, 20200, Note_off_c, 1, 61, 0
2, 20200, Note_off_c, 1, 66, 0
2, 20240, Note_on_c, 1, 46, 127
2, 20240, Note_on_c, 1, 54, 127
2, 20240, Note_on_c, 1, 61, 127
2, 20240, Note_on_c, 1, 66, 127
2, 21600, Note_off_c, 1, 46, 0
2, 21600, Note_off_c, 1, 61, 0
2, 21640, Note_on_c, 1, 42, 127
2, 21640, Note_off_c, 1, 54, 0
2, 21640, Note_on_c, 1, 55, 127
2, 21640, Note_on_c, 1, 58, 127
2, 21640, Note_on_c, 1, 61, 127
2, 21640, Note_off_c, 1, 66, 0
2, 22560, Note_off_c, 1, 42, 0
2, 22560, Note_off_c, 1, 55, 0
2, 22560, Note_off_c, 1, 58, 0
2, 22560, Note_off_c, 1, 61, 0
2, 22600, Note_on_c, 1, 42, 127
2, 22600, Note_on_c, 1, 55, 127
2, 22600, Note_on_c, 1, 58, 127
2, 22600, Note_on_c, 1, 61, 127
2, 24640, Note_off_c, 1, 42, 0
2, 24640, Note_off_c, 1, 55, 0
2, 24640, Note_off_c, 1, 58, 0
2, 24640, Note_off_c, 1, 61, 0
2, 24680, Note_on_c, 1, 42, 127
2, 24680, Note_on_c, 1, 55, 127
2, 24680, Note_on_c, 1, 58, 127
2, 24680, Note_on_c, 1, 61, 127
2, 25120, Note_off_c, 1, 55, 0
2, 25160, Note_off_c, 1, 42, 0
2, 25160, Note_on_c, 1, 53, 127
2, 25160, Note_on_c, 1, 56, 127
2, 25160, Note_off_c, 1, 58, 0
2, 25160, Note_off_c, 1, 61, 0
2, 25160, Note_on_c, 1, 63, 127
2, 25160, Note_on_c, 1, 71, 127
2, 25520, Note_off_c, 1, 53, 0
2, 25520, Note_off_c, 1, 56, 0
2, 25520, Note_off_c, 1, 63, 0
2, 25520, Note_off_c, 1, 71, 0
2, 25560, Note_on_c, 1, 44, 127
2, 25560, Note_on_c, 1, 64, 127
2, 25560, Note_on_c, 1, 71, 127
2, 25560, Note_on_c, 1, 75, 127
2, 25560, Note_on_c, 1, 76, 127
2, 25920, Note_off_c, 1, 44, 0
2, 25920, Note_off_c, 1, 64, 0
2, 25920, Note_off_c, 1, 71, 0
2, 25920, Note_off_c, 1, 75, 0
2, 25920, Note_off_c, 1, 76, 0
2, 25960, Note_on_c, 1, 51, 127
2, 25960, Note_on_c, 1, 57, 127
2, 25960, Note_on_c, 1, 66, 127
2, 25960, Note_on_c, 1, 71, 127
2, 26360, Note_off_c, 1, 51, 0
2, 26360, Note_off_c, 1, 57, 0
2, 26360, Note_off_c, 1, 66, 0
2, 26360, Note_off_c, 1, 71, 0
2, 26440, Note_on_c, 1, 49, 127
2, 26440, Note_on_c, 1, 56, 127
2, 26440, Note_on_c, 1, 68, 127
2, 26440, Note_on_c, 1, 73, 127
2, 26440, Note_on_c, 1, 77, 127
2, 27240, Note_off_c, 1, 49, 0
2, 27240, Note_off_c, 1, 56, 0
2, 27240, Note_off_c, 1, 68, 0
2, 27240, Note_off_c, 1, 73, 0
2, 27240, Note_off_c, 1, 77, 0
2, 27280, Note_on_c, 1, 54, 127
2, 27280, Note_on_c, 1, 58, 127
2, 27280, Note_on_c, 1, 66, 127
2, 27280, Note_on_c, 1, 73, 127
2, 27280, Note_on_c, 1, 78, 127
2, 28440, Note_off_c, 1, 54, 0
2, 28440, Note_off_c, 1, 58, 0
2, 28440, Note_off_c, 1, 66, 0
2, 28440, Note_off_c, 1, 73, 0
2, 28440, Note_off_c, 1, 78, 0
2, 28480, Note_on_c, 1, 54, 127
2, 28480, Note_on_c, 1, 58, 127
2, 28480, Note_on_c, 1, 66, 127
2, 28480, Note_on_c, 1, 73, 127
2, 28480, Note_on_c, 1, 78, 127
2, 28920, Note_off_c, 1, 54, 0
2, 28920, Note_off_c, 1, 58, 0
2, 28920, Note_off_c, 1, 66, 0
2, 28920, Note_off_c, 1, 73, 0
2, 28920, Note_off_c, 1, 78, 0
2, 29000, Note_on_c, 1, 51, 127
2, 29000, Note_on_c, 1, 55, 127
2, 29000, Note_on_c, 1, 58, 127
2, 29000, Note_on_c, 1, 61, 127
2, 29000, Note_on_c, 1, 63, 127
2, 29000, Note_on_c, 1, 67, 127
2, 29040, Note_on_c, 1, 47, 127
2, 29040, Note_off_c, 1, 51, 0
2, 29040, Note_off_c, 1, 55, 0
2, 29040, Note_off_c, 1, 58, 0
2, 29040, Note_off_c, 1, 61, 0
2, 29040, Note_off_c, 1, 63, 0
2, 29040, Note_off_c, 1, 67, 0
2, 29040, Note_on_c, 1, 71, 127
2, 29040, Note_on_c, 1, 75, 127
2, 29040, Note_on_c, 1, 78, 127
2, 29040, Note_on_c, 1, 83, 127
2, 29360, Note_off_c, 1, 47, 0
2, 29400, Note_on_c, 1, 47, 127
2, 29400, Note_on_c, 1, 59, 127
2, 29400, Note_off_c, 1, 71, 0
2, 29400, Note_on_c, 1, 74, 127
2, 29400, Note_off_c, 1, 75, 0
2, 29400, Note_on_c, 1, 77, 127
2, 29400, Note_off_c, 1, 78, 0
2, 29400, Note_on_c, 1, 79, 127
2, 29400, Note_off_c, 1, 83, 0
2, 29440, Note_on_c, 1, 26, 127
2, 29440, Note_on_c, 1, 38, 127
2, 29440, Note_off_c, 1, 47, 0
2, 29440, Note_off_c, 1, 59, 0
2, 29440, Note_off_c, 1, 74, 0
2, 29440, Note_off_c, 1, 77, 0
2, 29440, Note_on_c, 1, 78, 127
2, 29440, Note_off_c, 1, 79, 0
2, 29480, Note_off_c, 1, 26, 0
2, 29480, Note_off_c, 1, 38, 0
2, 29480, Note_on_c, 1, 54, 127
2, 29480, Note_on_c, 1, 57, 127
2, 29480, Note_on_c, 1, 60, 127
2, 29480, Note_on_c, 1, 72, 127
2, 29480, Note_off_c, 1, 78, 0
2, 29480, Note_on_c, 1, 84, 127
2, 29520, Note_on_c, 1, 45, 127
2, 29520, Note_on_c, 1, 49, 127
2, 29520, Note_off_c, 1, 54, 0
2, 29520, Note_off_c, 1, 57, 0
2, 29520, Note_off_c, 1, 60, 0
2, 29520, Note_on_c, 1, 66, 127
2, 29520, Note_off_c, 1, 72, 0
2, 29520, Note_off_c, 1, 84, 0
2, 29560, Note_off_c, 1, 45, 0
2, 29560, Note_off_c, 1, 49, 0
2, 29560, Note_on_c, 1, 55, 127
2, 29560, Note_off_c, 1, 66, 0
2, 29560, Note_on_c, 1, 67, 127
2, 29560, Note_on_c, 1, 73, 127
2, 29560, Note_on_c, 1, 78, 127
2, 29600, Note_off_c, 1, 55, 0
2, 29600, Note_on_c, 1, 57, 127
2, 29600, Note_on_c, 1, 60, 127
2, 29600, Note_off_c, 1, 67, 0
2, 29600, Note_off_c, 1, 73, 0
2, 29600, Note_off_c, 1, 78, 0
2, 29600, Note_on_c, 1, 83, 127
2, 29640, Note_off_c, 1, 57, 0
2, 29640, Note_off_c, 1, 60, 0
2, 29640, Note_on_c, 1, 72, 127
2, 29640, Note_on_c, 1, 80, 127
2, 29640, Note_off_c, 1, 83, 0
2, 29640, Note_on_c, 1, 87, 127
2, 29640, Note_on_c, 1, 92, 127
2, 29680, Note_on_c, 1, 40, 127
2, 29680, Note_on_c, 1, 48, 127
2, 29680, Note_on_c, 1, 58, 127
2, 29680, Note_on_c, 1, 60, 127
2, 29680, Note_off_c, 1, 72, 0
2, 29680, Note_off_c, 1, 80, 0
2, 29680, Note_off_c, 1, 87, 0
2, 29680, Note_off_c, 1, 92, 0
2, 29720, Note_off_c, 1, 40, 0
2, 29720, Note_off_c, 1, 48, 0
2, 29720, Note_off_c, 1, 58, 0
2, 29720, Note_off_c, 1, 60, 0
2, 29720, Note_on_c, 1, 72, 127
2, 29720, Note_on_c, 1, 80, 127
2, 29720, Note_on_c, 1, 87, 127
2, 29720, Note_on_c, 1, 92, 127
2, 29760, Note_off_c, 1, 72, 0
2, 29800, Note_on_c, 1, 31, 127
2, 29800, Note_on_c, 1, 63, 127
2, 29800, Note_on_c, 1, 72, 127
2, 29800, Note_on_c, 1, 75, 127
2, 29800, Note_off_c, 1, 80, 0
2, 29800, Note_off_c, 1, 87, 0
2, 29800, Note_off_c, 1, 92, 0
2, 30200, Note_off_c, 1, 31, 0
2, 30200, Note_off_c, 1, 63, 0
2, 30200, Note_off_c, 1, 72, 0
2, 30200, Note_off_c, 1, 75, 0
2, 30200, Note_on_c, 1, 78, 127
2, 30200, Note_on_c, 1, 82, 127
2, 30200, Note_on_c, 1, 85, 127
2, 30240, Note_on_c, 1, 56, 127
2, 30240, Note_on_c, 1, 75, 127
2, 30240, Note_off_c, 1, 78, 0
2, 30240, Note_on_c, 1, 80, 127
2, 30240, Note_off_c, 1, 82, 0
2, 30240, Note_on_c, 1, 83, 127
2, 30240, Note_off_c, 1, 85, 0
2, 30400, Note_off_c, 1, 56, 0
2, 30440, Note_off_c, 1, 75, 0
2, 30440, Note_off_c, 1, 80, 0
2, 30440, Note_off_c, 1, 83, 0
2, 30480, Note_on_c, 1, 75, 127
2, 30480, Note_on_c, 1, 80, 127
2, 30480, Note_on_c, 1, 83, 127
2, 30840, Note_off_c, 1, 75, 0
2, 30840, Note_off_c, 1, 80, 0
2, 30840, Note_off_c, 1, 83, 0
2, 30880, Note_on_c, 1, 62, 127
2, 30880, Note_on_c, 1, 67, 127
2, 30880, Note_on_c, 1, 71, 127
2, 30880, Note_on_c, 1, 102, 127
2, 30880, Note_on_c, 1, 103, 127
2, 30920, Note_on_c, 1, 38, 127
2, 30920, Note_on_c, 1, 47, 127
2, 30920, Note_on_c, 1, 50, 127
2, 30920, Note_off_c, 1, 62, 0
2, 30920, Note_off_c, 1, 67, 0
2, 30920, Note_off_c, 1, 71, 0
2, 30920, Note_off_c, 1, 102, 0
2, 30920, Note_off_c, 1, 103, 0
2, 30960, Note_on_c, 1, 28, 127
2, 30960, Note_off_c, 1, 38, 0
2, 30960, Note_on_c, 1, 40, 127
2, 30960, Note_off_c, 1, 47, 0
2, 30960, Note_off_c, 1, 50, 0
2, 30960, Note_on_c, 1, 62, 127
2, 30960, Note_on_c, 1, 64, 127
2, 30960, Note_on_c, 1, 68, 127
2, 30960, Note_on_c, 1, 71, 127
2, 31000, Note_on_c, 1, 25, 127
2, 31000, Note_off_c, 1, 28, 0
2, 31000, Note_on_c, 1, 30, 127
2, 31000, Note_on_c, 1, 34, 127
2, 31000, Note_on_c, 1, 37, 127
2, 31000, Note_off_c, 1, 40, 0
2, 31000, Note_on_c, 1, 49, 127
2, 31000, Note_on_c, 1, 54, 127
2, 31000, Note_on_c, 1, 58, 127
2, 31000, Note_on_c, 1, 61, 127
2, 31000, Note_off_c, 1, 62, 0
2, 31000, Note_off_c, 1, 64, 0
2, 31000, Note_off_c, 1, 68, 0
2, 31000, Note_off_c, 1, 71, 0
2, 31040, Note_off_c, 1, 25, 0
2, 31040, Note_off_c, 1, 30, 0
2, 31040, Note_off_c, 1, 34, 0
2, 31040, Note_off_c, 1, 37, 0
2, 31040, Note_off_c, 1, 49, 0
2, 31040, Note_off_c, 1, 58, 0
2, 31040, Note_off_c, 1, 61, 0
2, 31040, Note_on_c, 1, 81, 127
2, 31040, Note_on_c, 1, 86, 127
2, 31040, Note_on_c, 1, 93, 127
2, 31080, Note_on_c, 1, 38, 127
2, 31080, Note_on_c, 1, 47, 127
2, 31080, Note_on_c, 1, 50, 127
2, 31080, Note_off_c, 1, 54, 0
2, 31080, Note_off_c, 1, 81, 0
2, 31080, Note_off_c, 1, 86, 0
2, 31080, Note_off_c, 1, 93, 0
2, 31120, Note_on_c, 1, 34, 127
2, 31120, Note_off_c, 1, 38, 0
2, 31120, Note_on_c, 1, 46, 127
2, 31120, Note_off_c, 1, 47, 0
2, 31120, Note_off_c, 1, 50, 0
2, 31120, Note_on_c, 1, 66, 127
2, 31120, Note_on_c, 1, 75, 127
2, 31160, Note_on_c, 1, 30, 127
2, 31160, Note_off_c, 1, 34, 0
2, 31160, Note_on_c, 1, 42, 127
2, 31160, Note_off_c, 1, 46, 0
2, 31160, Note_on_c, 1, 61, 127
2, 31160, Note_on_c, 1, 71, 127
2, 31160, Note_off_c, 1, 75, 0
2, 31200, Note_off_c, 1, 30, 0
2, 31200, Note_on_c, 1, 34, 127
2, 31200, Note_off_c, 1, 42, 0
2, 31200, Note_on_c, 1, 46, 127
2, 31200, Note_off_c, 1, 61, 0
2, 31200, Note_off_c, 1, 71, 0
2, 31200, Note_on_c, 1, 75, 127
2, 31680, Note_off_c, 1, 34, 0
2, 31680, Note_off_c, 1, 46, 0
2, 31680, Note_off_c, 1, 66, 0
2, 31680, Note_off_c, 1, 75, 0
2, 31720, Note_on_c, 1, 44, 127
2, 31720, Note_on_c, 1, 51, 127
2, 31720, Note_on_c, 1, 73, 127
2, 31720, Note_on_c, 1, 78, 127
2, 32080, Note_off_c, 1, 44, 0
2, 32080, Note_off_c, 1, 51, 0
2, 32080, Note_off_c, 1, 73, 0
2, 32080, Note_off_c, 1, 78, 0
2, 32120, Note_on_c, 1, 33, 127
2, 32120, Note_on_c, 1, 40, 127
2, 32120, Note_on_c, 1, 45, 127
2, 32120, Note_on_c, 1, 61, 127
2, 32720, Note_off_c, 1, 33, 0
2, 32720, Note_off_c, 1, 40, 0
2, 32720, Note_off_c, 1, 45, 0
2, 32720, Note_off_c, 1, 61, 0
2, 32760, Note_on_c, 1, 33, 127
2, 32760, Note_on_c, 1, 40, 127
2, 32760, Note_on_c, 1, 45, 127
2, 32760, Note_on_c, 1, 61, 127
2, 32960, Note_off_c, 1, 33, 0
2, 32960, Note_off_c, 1, 40, 0
2, 32960, Note_off_c, 1, 45, 0
2, 32960, Note_off_c, 1, 61, 0
2, 33000, Note_on_c, 1, 43, 127
2, 33000, Note_on_c, 1, 55, 127
2, 33000, Note_on_c, 1, 64, 127
2, 33000, Note_on_c, 1, 71, 127
2, 33800, Note_off_c, 1, 43, 0
2, 33800, Note_off_c, 1, 55, 0
2, 33800, Note_off_c, 1, 64, 0
2, 33800, Note_off_c, 1, 71, 0
2, 33840, Note_on_c, 1, 41, 127
2, 33840, Note_on_c, 1, 71, 127
2, 33840, Note_on_c, 1, 81, 127
2, 34600, Note_off_c, 1, 41, 0
2, 34600, Note_off_c, 1, 71, 0
2, 34600, Note_off_c, 1, 81, 0
2, 34640, Note_on_c, 1, 43, 127
2, 34640, Note_on_c, 1, 55, 127
2, 34880, Note_off_c, 1, 43, 0
2, 34880, Note_off_c, 1, 55, 0
2, 34920, Note_on_c, 1, 43, 127
2, 34920, Note_on_c, 1, 55, 127
2, 35040, Note_off_c, 1, 43, 0
2, 35040, Note_off_c, 1, 55, 0
2, 35080, Note_on_c, 1, 48, 127
2, 35080, Note_on_c, 1, 50, 127
2, 35080, Note_on_c, 1, 54, 127
2, 35080, Note_on_c, 1, 60, 127
2, 35080, Note_on_c, 1, 72, 127
2, 35080, Note_on_c, 1, 74, 127
2, 35080, Note_on_c, 1, 78, 127
2, 35080, Note_on_c, 1, 84, 127
2, 35880, Note_off_c, 1, 48, 0
2, 35880, Note_off_c, 1, 50, 0
2, 35880, Note_off_c, 1, 54, 0
2, 35880, Note_off_c, 1, 60, 0
2, 35880, Note_off_c, 1, 72, 0
2, 35880, Note_off_c, 1, 74, 0
2, 35880, Note_off_c, 1, 78, 0
2, 35880, Note_off_c, 1, 84, 0
2, 35920, Note_on_c, 1, 37, 127
2, 35920, Note_on_c, 1, 41, 127
2, 35920, Note_on_c, 1, 49, 127
2, 36280, Note_off_c, 1, 37, 0
2, 36280, Note_off_c, 1, 41, 0
2, 36280, Note_off_c, 1, 49, 0
2, 36320, Note_on_c, 1, 57, 127
2, 36320, Note_on_c, 1, 81, 127
2, 36320, Note_on_c, 1, 90, 127
2, 36320, Note_on_c, 1, 93, 127
2, 36360, Note_off_c, 1, 57, 0
2, 36360, Note_on_c, 1, 74, 127
2, 36360, Note_off_c, 1, 90, 0
2, 36400, Note_on_c, 1, 57, 127
2, 36400, Note_off_c, 1, 74, 0
2, 36400, Note_on_c, 1, 90, 127
2, 36680, Note_on_c, 1, 35, 127
2, 36680, Note_off_c, 1, 57, 0
2, 36680, Note_on_c, 1, 62, 127
2, 36680, Note_off_c, 1, 81, 0
2, 36680, Note_off_c, 1, 90, 0
2, 36680, Note_off_c, 1, 93, 0
2, 36720, Note_off_c, 1, 35, 0
2, 36720, Note_off_c, 1, 62, 0
2, 36720, Note_on_c, 1, 75, 127
2, 36720, Note_on_c, 1, 82, 127
2, 36720, Note_on_c, 1, 90, 127
2, 36920, Note_off_c, 1, 75, 0
2, 36920, Note_off_c, 1, 82, 0
2, 36920, Note_off_c, 1, 90, 0
2, 36960, Note_on_c, 1, 75, 127
2, 36960, Note_on_c, 1, 82, 127
2, 36960, Note_on_c, 1, 90, 127
2, 37120, Note_off_c, 1, 75, 0
2, 37120, Note_off_c, 1, 82, 0
2, 37120, Note_off_c, 1, 90, 0
2, 37160, Note_on_c, 1, 67, 127
2, 37160, Note_on_c, 1, 70, 127
2, 37160, Note_on_c, 1, 73, 127
2, 37160, Note_on_c, 1, 76, 127
2, 37160, Note_on_c, 1, 82, 127
2, 37160, Note_on_c, 1, 91, 127
2, 37520, Note_off_c, 1, 67, 0
2, 37520, Note_off_c, 1, 70, 0
2, 37520, Note_off_c, 1, 73, 0
2, 37520, Note_off_c, 1, 76, 0
2, 37520, Note_off_c, 1, 82, 0
2, 37520, Note_off_c, 1, 91, 0
2, 37560, Note_on_c, 1, 59, 127
2, 37560, Note_on_c, 1, 74, 127
2, 37560, Note_on_c, 1, 77, 127
2, 37560, Note_on_c, 1, 79, 127
2, 37560, Note_on_c, 1, 86, 127
2, 37920, Note_on_c, 1, 43, 127
2, 37920, Note_on_c, 1, 47, 127
2, 37920, Note_off_c, 1, 59, 0
2, 37920, Note_off_c, 1, 74, 0
2, 37920, Note_off_c, 1, 77, 0
2, 37920, Note_off_c, 1, 79, 0
2, 37920, Note_off_c, 1, 86, 0
2, 37960, Note_off_c, 1, 43, 0
2, 37960, Note_off_c, 1, 47, 0
2, 37960, Note_on_c, 1, 68, 127
2, 37960, Note_on_c, 1, 90, 127
2, 37960, Note_on_c, 1, 92, 127
2, 37960, Note_on_c, 1, 95, 127
2, 37960, Note_on_c, 1, 98, 127
2, 37960, Note_on_c, 1, 102, 127
2, 38320, Note_off_c, 1, 68, 0
2, 38320, Note_off_c, 1, 90, 0
2, 38320, Note_off_c, 1, 92, 0
2, 38320, Note_off_c, 1, 95, 0
2, 38320, Note_off_c, 1, 98, 0
2, 38320, Note_off_c, 1, 102, 0
2, 38360, Note_on_c, 1, 55, 127
2, 38360, Note_on_c, 1, 63, 127
2, 38360, Note_on_c, 1, 66, 127
2, 38360, Note_on_c, 1, 87, 127
2, 38360, Note_on_c, 1, 90, 127
2, 38400, Note_off_c, 1, 55, 0
2, 38400, Note_off_c, 1, 66, 0
2, 38400, Note_on_c, 1, 67, 127
2, 38400, Note_on_c, 1, 70, 127
2, 38400, Note_on_c, 1, 75, 127
2, 38400, Note_off_c, 1, 90, 0
2, 38400, Note_on_c, 1, 91, 127
2, 38400, Note_on_c, 1, 99, 127
2, 38440, Note_on_c, 1, 40, 127
2, 38440, Note_on_c, 1, 43, 127
2, 38440, Note_on_c, 1, 57, 127
2, 38440, Note_on_c, 1, 61, 127
2, 38440, Note_off_c, 1, 63, 0
2, 38440, Note_off_c, 1, 67, 0
2, 38440, Note_on_c, 1, 69, 127
2, 38440, Note_off_c, 1, 70, 0
2, 38440, Note_off_c, 1, 75, 0
2, 38440, Note_off_c, 1, 87, 0
2, 38440, Note_off_c, 1, 91, 0
2, 38440, Note_off_c, 1, 99, 0
2, 38480, Note_on_c, 1, 39, 127
2, 38480, Note_off_c, 1, 40, 0
2, 38480, Note_off_c, 1, 43, 0
2, 38480, Note_on_c, 1, 51, 127
2, 38480, Note_off_c, 1, 57, 0
2, 38480, Note_on_c, 1, 67, 127
2, 38480, Note_off_c, 1, 69, 0
2, 38480, Note_on_c, 1, 73, 127
2, 38520, Note_off_c, 1, 39, 0
2, 38520, Note_off_c, 1, 51, 0
2, 38520, Note_on_c, 1, 52, 127
2, 38520, Note_on_c, 1, 53, 127
2, 38520, Note_on_c, 1, 57, 127
2, 38520, Note_off_c, 1, 61, 0
2, 38520, Note_on_c, 1, 64, 127
2, 38520, Note_off_c, 1, 67, 0
2, 38520, Note_off_c, 1, 73, 0
2, 38520, Note_on_c, 1, 76, 127
2, 38520, Note_on_c, 1, 77, 127
2, 38520, Note_on_c, 1, 81, 127
2, 38520, Note_on_c, 1, 88, 127
2, 38560, Note_on_c, 1, 43, 127
2, 38560, Note_on_c, 1, 48, 127
2, 38560, Note_off_c, 1, 52, 0
2, 38560, Note_off_c, 1, 53, 0
2, 38560, Note_off_c, 1, 64, 0
2, 38560, Note_off_c, 1, 76, 0
2, 38560, Note_off_c, 1, 77, 0
2, 38560, Note_off_c, 1, 81, 0
2, 38560, Note_on_c, 1, 96, 127
2, 38560, Note_on_c, 1, 100, 127
2, 38600, Note_on_c, 1, 37, 127
2, 38600, Note_on_c, 1, 41, 127
2, 38600, Note_off_c, 1, 43, 0
2, 38600, Note_off_c, 1, 48, 0
2, 38600, Note_on_c, 1, 49, 127
2, 38600, Note_off_c, 1, 57, 0
2, 38600, Note_on_c, 1, 80, 127
2, 38600, Note_off_c, 1, 88, 0
2, 38600, Note_off_c, 1, 96, 0
2, 38600, Note_off_c, 1, 100, 0
2, 38640, Note_off_c, 1, 37, 0
2, 38640, Note_off_c, 1, 41, 0
2, 38640, Note_on_c, 1, 42, 127
2, 38640, Note_on_c, 1, 47, 127
2, 38640, Note_off_c, 1, 49, 0
2, 38640, Note_on_c, 1, 51, 127
2, 38640, Note_on_c, 1, 54, 127
2, 38640, Note_on_c, 1, 69, 127
2, 38640, Note_off_c, 1, 80, 0
2, 38640, Note_on_c, 1, 81, 127
2, 38680, Note_on_c, 1, 35, 127
2, 38680, Note_on_c, 1, 38, 127
2, 38680, Note_off_c, 1, 42, 0
2, 38680, Note_off_c, 1, 51, 0
2, 38680, Note_off_c, 1, 54, 0
2, 38680, Note_off_c, 1, 69, 0
2, 38680, Note_on_c, 1, 76, 127
2, 38680, Note_on_c, 1, 79, 127
2, 38680, Note_off_c, 1, 81, 0
2, 38680, Note_on_c, 1, 85, 127
2, 38680, Note_on_c, 1, 86, 127
2, 38720, Note_off_c, 1, 35, 0
2, 38720, Note_off_c, 1, 47, 0
2, 38720, Note_on_c, 1, 50, 127
2, 38720, Note_on_c, 1, 53, 127
2, 38720, Note_on_c, 1, 57, 127
2, 38720, Note_on_c, 1, 62, 127
2, 38720, Note_off_c, 1, 76, 0
2, 38720, Note_off_c, 1, 79, 0
2, 38720, Note_off_c, 1, 85, 0
2, 38720, Note_off_c, 1, 86, 0
2, 38760, Note_off_c, 1, 38, 0
2, 38760, Note_off_c, 1, 50, 0
2, 38760, Note_off_c, 1, 53, 0
2, 38760, Note_off_c, 1, 57, 0
2, 38760, Note_off_c, 1, 62, 0
2, 38760, Note_on_c, 1, 66, 127
2, 38760, Note_on_c, 1, 72, 127
2, 38760, Note_on_c, 1, 82, 127
2, 38760, Note_on_c, 1, 84, 127
2, 38800, Note_on_c, 1, 44, 127
2, 38800, Note_off_c, 1, 66, 0
2, 38800, Note_off_c, 1, 72, 0
2, 38800, Note_off_c, 1, 84, 0
2, 38800, Note_on_c, 1, 86, 127
2, 38800, Note_on_c, 1, 89, 127
2, 38800, Note_on_c, 1, 94, 127
2, 38840, Note_off_c, 1, 44, 0
2, 38840, Note_off_c, 1, 82, 0
2, 38840, Note_off_c, 1, 86, 0
2, 38840, Note_off_c, 1, 89, 0
2, 38840, Note_off_c, 1, 94, 0
2, 38880, Note_on_c, 1, 66, 127
2, 38880, Note_on_c, 1, 72, 127
2, 38880, Note_on_c, 1, 82, 127
2, 38880, Note_on_c, 1, 84, 127
2, 39120, Note_on_c, 1, 44, 127
2, 39120, Note_on_c, 1, 50, 127
2, 39120, Note_on_c, 1, 61, 127
2, 39120, Note_on_c, 1, 65, 127
2, 39120, Note_off_c, 1, 66, 0
2, 39120, Note_off_c, 1, 72, 0
2, 39120, Note_on_c, 1, 73, 127
2, 39120, Note_off_c, 1, 82, 0
2, 39120, Note_off_c, 1, 84, 0
2, 39160, Note_off_c, 1, 44, 0
2, 39160, Note_off_c, 1, 50, 0
2, 39160, Note_off_c, 1, 61, 0
2, 39160, Note_off_c, 1, 65, 0
2, 39160, Note_off_c, 1, 73, 0
2, 39200, Note_on_c, 1, 32, 127
2, 39200, Note_on_c, 1, 57, 127
2, 39200, Note_on_c, 1, 61, 127
2, 39200, Note_on_c, 1, 63, 127
2, 39240, Note_off_c, 1, 32, 0
2, 39240, Note_on_c, 1, 47, 127
2, 39240, Note_on_c, 1, 55, 127
2, 39240, Note_off_c, 1, 57, 0
2, 39240, Note_off_c, 1, 61, 0
2, 39240, Note_on_c, 1, 62, 127
2, 39240, Note_off_c, 1, 63, 0
2, 39240, Note_on_c, 1, 65, 127
2, 39240, Note_on_c, 1, 69, 127
2, 39280, Note_off_c, 1, 55, 0
2, 39280, Note_on_c, 1, 56, 127
2, 39280, Note_on_c, 1, 59, 127
2, 39280, Note_off_c, 1, 62, 0
2, 39280, Note_on_c, 1, 63, 127
2, 39280, Note_off_c, 1, 65, 0
2, 39280, Note_on_c, 1, 68, 127
2, 39280, Note_off_c, 1, 69, 0
2, 39280, Note_on_c, 1, 75, 127
2, 39320, Note_on_c, 1, 32, 127
2, 39320, Note_off_c, 1, 47, 0
2, 39320, Note_off_c, 1, 56, 0
2, 39320, Note_on_c, 1, 57, 127
2, 39320, Note_off_c, 1, 59, 0
2, 39320, Note_on_c, 1, 61, 127
2, 39320, Note_off_c, 1, 68, 0
2, 39320, Note_off_c, 1, 75, 0
2, 39520, Note_off_c, 1, 32, 0
2, 39520, Note_on_c, 1, 44, 127
2, 39520, Note_off_c, 1, 57, 0
2, 39960, Note_on_c, 1, 53, 127
2, 39960, Note_off_c, 1, 61, 0
2, 39960, Note_off_c, 1, 63, 0
2, 40000, Note_off_c, 1, 53, 0
2, 40000, Note_on_c, 1, 61, 127
2, 40000, Note_on_c, 1, 63, 127
2, 40800, Note_off_c, 1, 44, 0
2, 40800, Note_off_c, 1, 61, 0
2, 40800, Note_off_c, 1, 63, 0
2, 40880, Note_on_c, 1, 37, 127
2, 40880, Note_on_c, 1, 44, 127
2, 40880, Note_on_c, 1, 52, 127
2, 40880, Note_on_c, 1, 56, 127
2, 40880, Note_on_c, 1, 61, 127
2, 43320, Note_off_c, 1, 37, 0
2, 43320, Note_off_c, 1, 44, 0
2, 43320, Note_off_c, 1, 52, 0
2, 43320, Note_off_c, 1, 56, 0
2, 43320, Note_off_c, 1, 61, 0
2, 43360, Note_on_c, 1, 37, 127
2, 43360, Note_on_c, 1, 44, 127
2, 43360, Note_on_c, 1, 52, 127
2, 43360, Note_on_c, 1, 56, 127
2, 43360, Note_on_c, 1, 61, 127
2, 46320, Note_off_c, 1, 37, 0
2, 46320, Note_off_c, 1, 44, 0
2, 46320, Note_off_c, 1, 52, 0
2, 46320, Note_off_c, 1, 56, 0
2, 46320, Note_off_c, 1, 61, 0
2, 46360, Note_on_c, 1, 37, 127
2, 46360, Note_on_c, 1, 44, 127
2, 46360, Note_on_c, 1, 52, 127
2, 46360, Note_on_c, 1, 56, 127
2, 46360, Note_on_c, 1, 61, 127
2, 47680, Note_off_c, 1, 37, 0
2, 47680, Note_on_c, 1, 51, 127
2, 47680, Note_off_c, 1, 52, 0
2, 47680, Note_on_c, 1, 60, 127
2, 47680, Note_off_c, 1, 61, 0
2, 47680, Note_on_c, 1, 63, 127
2, 47680, Note_on_c, 1, 68, 127
2, 47680, Note_on_c, 1, 72, 127
2, 47720, Note_off_c, 1, 44, 0
2, 47720, Note_on_c, 1, 49, 127
2, 47720, Note_off_c, 1, 51, 0
2, 47720, Note_on_c, 1, 55, 127
2, 47720, Note_off_c, 1, 56, 0
2, 47720, Note_on_c, 1, 59, 127
2, 47720, Note_off_c, 1, 60, 0
2, 47720, Note_off_c, 1, 63, 0
2, 47720, Note_on_c, 1, 67, 127
2, 47720, Note_off_c, 1, 68, 0
2, 47720, Note_off_c, 1, 72, 0
2, 47760, Note_off_c, 1, 49, 0
2, 47760, Note_off_c, 1, 55, 0
2, 47760, Note_off_c, 1, 59, 0
2, 47760, Note_off_c, 1, 67, 0
2, 47800, Note_on_c, 1, 55, 127
2, 47800, Note_on_c, 1, 61, 127
2, 47800, Note_on_c, 1, 70, 127
2, 47800, Note_on_c, 1, 79, 127
2, 47800, Note_on_c, 1, 82, 127
2, 47840, Note_off_c, 1, 55, 0
2, 47840, Note_off_c, 1, 61, 0
2, 47840, Note_on_c, 1, 65, 127
2, 47840, Note_on_c, 1, 68, 127
2, 47840, Note_off_c, 1, 70, 0
2, 47840, Note_on_c, 1, 72, 127
2, 47840, Note_off_c, 1, 79, 0
2, 47840, Note_off_c, 1, 82, 0
2, 47840, Note_on_c, 1, 83, 127
2, 47880, Note_off_c, 1, 65, 0
2, 47880, Note_off_c, 1, 68, 0
2, 47880, Note_on_c, 1, 75, 127
2, 47880, Note_on_c, 1, 81, 127
2, 47880, Note_off_c, 1, 83, 0
2, 47880, Note_on_c, 1, 87, 127
2, 47880, Note_on_c, 1, 89, 127
2, 47920, Note_on_c, 1, 59, 127
2, 47920, Note_on_c, 1, 67, 127
2, 47920, Note_off_c, 1, 72, 0
2, 47920, Note_off_c, 1, 75, 0
2, 47920, Note_off_c, 1, 81, 0
2, 47920, Note_off_c, 1, 87, 0
2, 47920, Note_off_c, 1, 89, 0
2, 47920, Note_on_c, 1, 90, 127
2, 47960, Note_on_c, 1, 42, 127
2, 47960, Note_off_c, 1, 59, 0
2, 47960, Note_on_c, 1, 61, 127
2, 47960, Note_on_c, 1, 63, 127
2, 47960, Note_off_c, 1, 67, 0
2, 47960, Note_on_c, 1, 70, 127
2, 47960, Note_off_c, 1, 90, 0
2, 48000, Note_on_c, 1, 35, 127
2, 48000, Note_off_c, 1, 42, 0
2, 48000, Note_on_c, 1, 47, 127
2, 48000, Note_off_c, 1, 63, 0
2, 48000, Note_on_c, 1, 64, 127
2, 48000, Note_off_c, 1, 70, 0
2, 48040, Note_off_c, 1, 35, 0
2, 48040, Note_on_c, 1, 42, 127
2, 48040, Note_off_c, 1, 47, 0
2, 48040, Note_on_c, 1, 54, 127
2, 48040, Note_on_c, 1, 59, 127
2, 48040, Note_off_c, 1, 61, 0
2, 48040, Note_off_c, 1, 64, 0
2, 48040, Note_on_c, 1, 68, 127
2, 48080, Note_off_c, 1, 42, 0
2, 48080, Note_on_c, 1, 48, 127
2, 48080, Note_off_c, 1, 54, 0
2, 48080, Note_on_c, 1, 56, 127
2, 48080, Note_off_c, 1, 59, 0
2, 48080, Note_off_c, 1, 68, 0
2, 48080, Note_on_c, 1, 75, 127
2, 48080, Note_on_c, 1, 83, 127
2, 48120, Note_off_c, 1, 48, 0
2, 48120, Note_on_c, 1, 52, 127
2, 48120, Note_on_c, 1, 55, 127
2, 48120, Note_off_c, 1, 56, 0
2, 48120, Note_on_c, 1, 62, 127
2, 48120, Note_on_c, 1, 67, 127
2, 48120, Note_on_c, 1, 74, 127
2, 48120, Note_off_c, 1, 75, 0
2, 48120, Note_on_c, 1, 79, 127
2, 48120, Note_off_c, 1, 83, 0
2, 48160, Note_on_c, 1, 47, 127
2, 48160, Note_off_c, 1, 52, 0
2, 48160, Note_off_c, 1, 55, 0
2, 48160, Note_on_c, 1, 59, 127
2, 48160, Note_off_c, 1, 62, 0
2, 48160, Note_off_c, 1, 67, 0
2, 48160, Note_off_c, 1, 74, 0
2, 48160, Note_off_c, 1, 79, 0
2, 48160, Note_on_c, 1, 83, 127
2, 48160, Note_on_c, 1, 88, 127
2, 48200, Note_off_c, 1, 47, 0
2, 48200, Note_off_c, 1, 59, 0
2, 48200, Note_on_c, 1, 63, 127
2, 48200, Note_on_c, 1, 75, 127
2, 48200, Note_on_c, 1, 82, 127
2, 48200, Note_off_c, 1, 83, 0
2, 48200, Note_off_c, 1, 88, 0
2, 48200, Note_on_c, 1, 90, 127
2, 48240, Note_on_c, 1, 42, 127
2, 48240, Note_off_c, 1, 63, 0
2, 48240, Note_off_c, 1, 75, 0
2, 48240, Note_on_c, 1, 79, 127
2, 48240, Note_on_c, 1, 80, 127
2, 48240, Note_off_c, 1, 82, 0
2, 48240, Note_off_c, 1, 90, 0
2, 48280, Note_off_c, 1, 42, 0
2, 48280, Note_on_c, 1, 43, 127
2, 48280, Note_on_c, 1, 60, 127
2, 48280, Note_on_c, 1, 68, 127
2, 48280, Note_on_c, 1, 77, 127
2, 48280, Note_off_c, 1, 79, 0
2, 48280, Note_off_c, 1, 80, 0
2, 48320, Note_off_c, 1, 43, 0
2, 48320, Note_on_c, 1, 47, 127
2, 48320, Note_on_c, 1, 54, 127
2, 48320, Note_on_c, 1, 64, 127
2, 48320, Note_off_c, 1, 68, 0
2, 48320, Note_on_c, 1, 71, 127
2, 48320, Note_off_c, 1, 77, 0
2, 48360, Note_off_c, 1, 47, 0
2, 48360, Note_off_c, 1, 54, 0
2, 48360, Note_off_c, 1, 60, 0
2, 48360, Note_off_c, 1, 64, 0
2, 48360, Note_off_c, 1, 71, 0
2, 48400, Note_on_c, 1, 40, 127
2, 48400, Note_on_c, 1, 45, 127
2, 48400, Note_on_c, 1, 49, 127
2, 48400, Note_on_c, 1, 52, 127
2, 48400, Note_on_c, 1, 64, 127
2, 48400, Note_on_c, 1, 76, 127
2, 48440, Note_off_c, 1, 40, 0
2, 48440, Note_off_c, 1, 45, 0
2, 48440, Note_off_c, 1, 49, 0
2, 48440, Note_off_c, 1, 52, 0
2, 48440, Note_on_c, 1, 56, 127
2, 48440, Note_off_c, 1, 64, 0
2, 48440, Note_on_c, 1, 65, 127
2, 48440, Note_on_c, 1, 68, 127
2, 48440, Note_off_c, 1, 76, 0
2, 48440, Note_on_c, 1, 101, 127
2, 48480, Note_off_c, 1, 56, 0
2, 48480, Note_off_c, 1, 65, 0
2, 48480, Note_off_c, 1, 68, 0
2, 48480, Note_off_c, 1, 101, 0
2, 48520, Note_on_c, 1, 33, 127
2, 48520, Note_on_c, 1, 45, 127
2, 48520, Note_on_c, 1, 67, 127
2, 48520, Note_on_c, 1, 69, 127
2, 48520, Note_on_c, 1, 73, 127
2, 48560, Note_off_c, 1, 33, 0
2, 48560, Note_on_c, 1, 37, 127
2, 48560, Note_off_c, 1, 45, 0
2, 48560, Note_on_c, 1, 49, 127
2, 48560, Note_on_c, 1, 66, 127
2, 48560, Note_off_c, 1, 67, 0
2, 48560, Note_off_c, 1, 69, 0
2, 48560, Note_off_c, 1, 73, 0
2, 48560, Note_on_c, 1, 75, 127
2, 48560, Note_on_c, 1, 78, 127
2, 48600, Note_off_c, 1, 37, 0
2, 48600, Note_off_c, 1, 49, 0
2, 48600, Note_on_c, 1, 59, 127
2, 48600, Note_on_c, 1, 61, 127
2, 48600, Note_on_c, 1, 65, 127
2, 48600, Note_off_c, 1, 66, 0
2, 48600, Note_on_c, 1, 68, 127
2, 48600, Note_off_c, 1, 75, 0
2, 48600, Note_off_c, 1, 78, 0
2, 48600, Note_on_c, 1, 80, 127
2, 48640, Note_on_c, 1, 48, 127
2, 48640, Note_off_c, 1, 59, 0
2, 48640, Note_off_c, 1, 61, 0
2, 48640, Note_off_c, 1, 65, 0
2, 48640, Note_off_c, 1, 68, 0
2, 48640, Note_off_c, 1, 80, 0
2, 48640, Note_on_c, 1, 84, 127
2, 48640, Note_on_c, 1, 91, 127
2, 48640, Note_on_c, 1, 96, 127
2, 48680, Note_on_c, 1, 45, 127
2, 48680, Note_off_c, 1, 48, 0
2, 48680, Note_on_c, 1, 52, 127
2, 48680, Note_on_c, 1, 57, 127
2, 48680, Note_on_c, 1, 62, 127
2, 48680, Note_on_c, 1, 64, 127
2, 48680, Note_off_c, 1, 84, 0
2, 48680, Note_off_c, 1, 91, 0
2, 48680, Note_off_c, 1, 96, 0
2, 48720, Note_on_c, 1, 33, 127
2, 48720, Note_off_c, 1, 45, 0
2, 48720, Note_off_c, 1, 52, 0
2, 48720, Note_on_c, 1, 54, 127
2, 48720, Note_off_c, 1, 57, 0
2, 48720, Note_on_c, 1, 60, 127
2, 48720, Note_off_c, 1, 62, 0
2, 48720, Note_on_c, 1, 63, 127
2, 48720, Note_off_c, 1, 64, 0
2, 48720, Note_on_c, 1, 66, 127
2, 48760, Note_off_c, 1, 33, 0
2, 48760, Note_on_c, 1, 59, 127
2, 48760, Note_off_c, 1, 60, 0
2, 48760, Note_on_c, 1, 62, 127
2, 48760, Note_off_c, 1, 63, 0
2, 48760, Note_off_c, 1, 66, 0
2, 48760, Note_on_c, 1, 68, 127
2, 48760, Note_on_c, 1, 71, 127
2, 48760, Note_on_c, 1, 74, 127
2, 48760, Note_on_c, 1, 80, 127
2, 48800, Note_on_c, 1, 35, 127
2, 48800, Note_on_c, 1, 47, 127
2, 48800, Note_on_c, 1, 49, 127
2, 48800, Note_on_c, 1, 52, 127
2, 48800, Note_off_c, 1, 54, 0
2, 48800, Note_off_c, 1, 62, 0
2, 48800, Note_off_c, 1, 68, 0
2, 48800, Note_off_c, 1, 71, 0
2, 48800, Note_off_c, 1, 74, 0
2, 48800, Note_off_c, 1, 80, 0
2, 48840, Note_off_c, 1, 35, 0
2, 48840, Note_on_c, 1, 37, 127
2, 48840, Note_off_c, 1, 47, 0
2, 48840, Note_off_c, 1, 52, 0
2, 48840, Note_off_c, 1, 59, 0
2, 48840, Note_on_c, 1, 65, 127
2, 48840, Note_on_c, 1, 80, 127
2, 49000, Note_off_c, 1, 37, 0
2, 49000, Note_off_c, 1, 49, 0
2, 49000, Note_off_c, 1, 65, 0
2, 49000, Note_off_c, 1, 80, 0
2, 49040, Note_on_c, 1, 48, 127
2, 49040, Note_on_c, 1, 55, 127
2, 49040, Note_on_c, 1, 62, 127
2, 49040, Note_on_c, 1, 65, 127
2, 49040, Note_on_c, 1, 71, 127
2, 49040, Note_on_c, 1, 79, 127
2, 49040, Note_on_c, 1, 86, 127
2, 49080, Note_off_c, 1, 48, 0
2, 49080, Note_off_c, 1, 55, 0
2, 49080, Note_off_c, 1, 62, 0
2, 49080, Note_off_c, 1, 65, 0
2, 49080, Note_off_c, 1, 71, 0
2, 49080, Note_off_c, 1, 79, 0
2, 49080, Note_off_c, 1, 86, 0
2, 49440, Note_on_c, 1, 47, 127
2, 49440, Note_on_c, 1, 59, 127
2, 49440, Note_on_c, 1, 76, 127
2, 49440, Note_on_c, 1, 79, 127
2, 49440, Note_on_c, 1, 88, 127
2, 49960, Note_off_c, 1, 47, 0
2, 49960, Note_off_c, 1, 59, 0
2, 49960, Note_off_c, 1, 76, 0
2, 49960, Note_off_c, 1, 79, 0
2, 49960, Note_off_c, 1, 88, 0
2, 51120, Note_on_c, 1, 41, 127
2, 51960, Note_off_c, 1, 41, 0
2, 52000, Note_on_c, 1, 41, 127
2, 52520, Note_off_c, 1, 41, 0
2, 52560, Note_on_c, 1, 52, 127
2, 52920, Note_off_c, 1, 52, 0
2, 52960, Note_on_c, 1, 53, 127
2, 53160, Note_off_c, 1, 53, 0
2, 53200, Note_on_c, 1, 53, 127
2, 53560, Note_off_c, 1, 53, 0
2, 53600, Note_on_c, 1, 52, 127
2, 54000, Note_off_c, 1, 52, 0
2, 54000, Note_on_c, 1, 53, 127
2, 54360, Note_off_c, 1, 53, 0
2, 54400, Note_on_c, 1, 53, 127
2, 54760, Note_off_c, 1, 53, 0
2, 54800, Note_on_c, 1, 59, 127
2, 55160, Note_off_c, 1, 59, 0
2, 55200, Note_on_c, 1, 41, 127
2, 55400, Note_off_c, 1, 41, 0
2, 55440, Note_on_c, 1, 41, 127
2, 55800, Note_off_c, 1, 41, 0
2, 55840, Note_on_c, 1, 45, 127
2, 56200, Note_off_c, 1, 45, 0
2, 56240, Note_on_c, 1, 44, 127
2, 56600, Note_off_c, 1, 44, 0
2, 56640, Note_on_c, 1, 36, 127
2, 57400, Note_off_c, 1, 36, 0
2, 57440, Note_on_c, 1, 38, 127
2, 57640, Note_off_c, 1, 38, 0
2, 57680, Note_on_c, 1, 38, 127
2, 58240, Note_off_c, 1, 38, 0
2, 58280, Note_on_c, 1, 38, 127
2, 58640, Note_off_c, 1, 38, 0
2, 58680, Note_on_c, 1, 36, 127
2, 59440, Note_off_c, 1, 36, 0
2, 59480, Note_on_c, 1, 44, 127
2, 59480, Note_on_c, 1, 60, 127
2, 59480, Note_on_c, 1, 63, 127
2, 59480, Note_on_c, 1, 70, 127
2, 59880, Note_off_c, 1, 44, 0
2, 59880, Note_off_c, 1, 60, 0
2, 59880, Note_off_c, 1, 63, 0
2, 59880, Note_off_c, 1, 70, 0
2, 59920, Note_on_c, 1, 44, 127
2, 59920, Note_on_c, 1, 60, 127
2, 59920, Note_on_c, 1, 63, 127
2, 59920, Note_on_c, 1, 70, 127
2, 61480, Note_off_c, 1, 44, 0
2, 61480, Note_off_c, 1, 60, 0
2, 61480, Note_off_c, 1, 63, 0
2, 61480, Note_off_c, 1, 70, 0
2, 61520, Note_on_c, 1, 44, 127
2, 61520, Note_on_c, 1, 60, 127
2, 61520, Note_on_c, 1, 63, 127
2, 61520, Note_on_c, 1, 66, 127
2, 62000, Note_off_c, 1, 44, 0
2, 62000, Note_off_c, 1, 60, 0
2, 62000, Note_off_c, 1, 63, 0
2, 62000, Note_off_c, 1, 66, 0
2, 62040, Note_on_c, 1, 44, 127
2, 62040, Note_on_c, 1, 60, 127
2, 62040, Note_on_c, 1, 63, 127
2, 62040, Note_on_c, 1, 66, 127
2, 62360, Note_off_c, 1, 44, 0
2, 62360, Note_off_c, 1, 60, 0
2, 62360, Note_off_c, 1, 63, 0
2, 62360, Note_off_c, 1, 66, 0
2, 62400, Note_on_c, 1, 44, 127
2, 62400, Note_on_c, 1, 60, 127
2, 62400, Note_on_c, 1, 63, 127
2, 62400, Note_on_c, 1, 66, 127
2, 64000, Note_off_c, 1, 44, 0
2, 64000, Note_off_c, 1, 60, 0
2, 64000, Note_off_c, 1, 63, 0
2, 64000, Note_off_c, 1, 66, 0
2, 64080, Note_on_c, 1, 44, 127
2, 64080, Note_on_c, 1, 60, 127
2, 64080, Note_on_c, 1, 63, 127
2, 65240, Note_off_c, 1, 44, 0
2, 65280, Note_on_c, 1, 44, 127
2, 65280, Note_on_c, 1, 56, 127
2, 66040, Note_off_c, 1, 44, 0
2, 66040, Note_off_c, 1, 56, 0
2, 66040, Note_off_c, 1, 60, 0
2, 66040, Note_off_c, 1, 63, 0
2, 66080, Note_on_c, 1, 49, 127
2, 66080, Note_on_c, 1, 51, 127
2, 66080, Note_on_c, 1, 54, 127
2, 66520, Note_off_c, 1, 49, 0
2, 66520, Note_off_c, 1, 51, 0
2, 66520, Note_off_c, 1, 54, 0
2, 66560, Note_on_c, 1, 49, 127
2, 66560, Note_on_c, 1, 51, 127
2, 66560, Note_on_c, 1, 54, 127
2, 67320, Note_off_c, 1, 49, 0
2, 67320, Note_off_c, 1, 51, 0
2, 67320, Note_off_c, 1, 54, 0
2, 67360, Note_on_c, 1, 44, 127
2, 67720, Note_off_c, 1, 44, 0
2, 67760, Note_on_c, 1, 35, 127
2, 69080, Note_off_c, 1, 35, 0
2, 69120, Note_on_c, 1, 35, 127
2, 70200, Note_off_c, 1, 35, 0
2, 71480, Note_on_c, 1, 58, 127
2, 71480, Note_on_c, 1, 63, 127
2, 71480, Note_on_c, 1, 67, 127
2, 72040, Note_off_c, 1, 58, 0
2, 72040, Note_off_c, 1, 63, 0
2, 72040, Note_off_c, 1, 67, 0
2, 72080, Note_on_c, 1, 58, 127
2, 72080, Note_on_c, 1, 63, 127
2, 72080, Note_on_c, 1, 67, 127
2, 72480, Note_off_c, 1, 58, 0
2, 72480, Note_off_c, 1, 63, 0
2, 72480, Note_off_c, 1, 67, 0
2, 72520, Note_on_c, 1, 58, 127
2, 72520, Note_on_c, 1, 63, 127
2, 72520, Note_on_c, 1, 67, 127
2, 72720, Note_on_c, 1, 74, 127
2, 73080, Note_off_c, 1, 74, 0
2, 73120, Note_on_c, 1, 74, 127
2, 73480, Note_off_c, 1, 58, 0
2, 73480, Note_off_c, 1, 63, 0
2, 73480, Note_off_c, 1, 67, 0
2, 73480, Note_off_c, 1, 74, 0
2, 73520, Note_on_c, 1, 58, 127
2, 73520, Note_on_c, 1, 62, 127
2, 73520, Note_on_c, 1, 68, 127
2, 73520, Note_on_c, 1, 76, 127
2, 73880, Note_off_c, 1, 58, 0
2, 73880, Note_off_c, 1, 62, 0
2, 73880, Note_off_c, 1, 68, 0
2, 73880, Note_off_c, 1, 76, 0
2, 73920, Note_on_c, 1, 58, 127
2, 73920, Note_on_c, 1, 62, 127
2, 73920, Note_on_c, 1, 68, 127
2, 73920, Note_on_c, 1, 77, 127
2, 74720, Note_on_c, 1, 55, 127
2, 74720, Note_on_c, 1, 67, 127
2, 74720, Note_off_c, 1, 68, 0
2, 74720, Note_on_c, 1, 70, 127
2, 74720, Note_off_c, 1, 77, 0
2, 74760, Note_off_c, 1, 55, 0
2, 74760, Note_off_c, 1, 58, 0
2, 74760, Note_off_c, 1, 62, 0
2, 74760, Note_off_c, 1, 67, 0
2, 74760, Note_off_c, 1, 70, 0
2, 74800, Note_on_c, 1, 55, 127
2, 74800, Note_on_c, 1, 58, 127
2, 74800, Note_on_c, 1, 62, 127
2, 74800, Note_on_c, 1, 67, 127
2, 74800, Note_on_c, 1, 70, 127
2, 75160, Note_off_c, 1, 55, 0
2, 75160, Note_off_c, 1, 58, 0
2, 75160, Note_off_c, 1, 62, 0
2, 75160, Note_off_c, 1, 67, 0
2, 75160, Note_off_c, 1, 70, 0
2, 75200, Note_on_c, 1, 58, 127
2, 75200, Note_on_c, 1, 62, 127
2, 75200, Note_on_c, 1, 65, 127
2, 76600, Note_on_c, 1, 50, 127
2, 76600, Note_on_c, 1, 54, 127
2, 76600, Note_on_c, 1, 57, 127
2, 76600, Note_off_c, 1, 58, 0
2, 76600, Note_off_c, 1, 62, 0
2, 76600, Note_off_c, 1, 65, 0
2, 76600, Note_on_c, 1, 74, 127
2, 76600, Note_on_c, 1, 78, 127
2, 76640, Note_on_c, 1, 49, 127
2, 76640, Note_off_c, 1, 50, 0
2, 76640, Note_on_c, 1, 52, 127
2, 76640, Note_off_c, 1, 54, 0
2, 76640, Note_on_c, 1, 55, 127
2, 76640, Note_off_c, 1, 57, 0
2, 76640, Note_on_c, 1, 58, 127
2, 76640, Note_on_c, 1, 61, 127
2, 76640, Note_on_c, 1, 64, 127
2, 76640, Note_off_c, 1, 74, 0
2, 76640, Note_off_c, 1, 78, 0
2, 76680, Note_off_c, 1, 49, 0
2, 76680, Note_off_c, 1, 52, 0
2, 76680, Note_off_c, 1, 55, 0
2, 76680, Note_off_c, 1, 58, 0
2, 76680, Note_on_c, 1, 59, 127
2, 76680, Note_off_c, 1, 61, 0
2, 76680, Note_off_c, 1, 64, 0
2, 76680, Note_on_c, 1, 66, 127
2, 76680, Note_on_c, 1, 75, 127
2, 76680, Note_on_c, 1, 80, 127
2, 76720, Note_on_c, 1, 42, 127
2, 76720, Note_on_c, 1, 48, 127
2, 76720, Note_on_c, 1, 58, 127
2, 76720, Note_off_c, 1, 59, 0
2, 76720, Note_on_c, 1, 63, 127
2, 76720, Note_off_c, 1, 66, 0
2, 76720, Note_off_c, 1, 75, 0
2, 76720, Note_off_c, 1, 80, 0
2, 76760, Note_on_c, 1, 39, 127
2, 76760, Note_off_c, 1, 42, 0
2, 76760, Note_off_c, 1, 48, 0
2, 76760, Note_on_c, 1, 53, 127
2, 76760, Note_off_c, 1, 63, 0
2, 76800, Note_off_c, 1, 39, 0
2, 76800, Note_off_c, 1, 53, 0
2, 76800, Note_off_c, 1, 58, 0
2, 76840, Note_on_c, 1, 43, 127
2, 76840, Note_on_c, 1, 47, 127
2, 76840, Note_on_c, 1, 52, 127
2, 76840, Note_on_c, 1, 59, 127
2, 76840, Note_on_c, 1, 71, 127
2, 76880, Note_off_c, 1, 43, 0
2, 76880, Note_off_c, 1, 47, 0
2, 76880, Note_on_c, 1, 49, 127
2, 76880, Note_off_c, 1, 52, 0
2, 76880, Note_off_c, 1, 59, 0
2, 76880, Note_on_c, 1, 64, 127
2, 76880, Note_on_c, 1, 67, 127
2, 76880, Note_on_c, 1, 70, 127
2, 76880, Note_off_c, 1, 71, 0
2, 76880, Note_on_c, 1, 77, 127
2, 76920, Note_on_c, 1, 47, 127
2, 76920, Note_off_c, 1, 49, 0
2, 76920, Note_on_c, 1, 52, 127
2, 76920, Note_on_c, 1, 55, 127
2, 76920, Note_on_c, 1, 59, 127
2, 76920, Note_off_c, 1, 67, 0
2, 76920, Note_off_c, 1, 70, 0
2, 76920, Note_off_c, 1, 77, 0
2, 76960, Note_on_c, 1, 31, 127
2, 76960, Note_on_c, 1, 36, 127
2, 76960, Note_on_c, 1, 44, 127
2, 76960, Note_off_c, 1, 52, 0
2, 76960, Note_on_c, 1, 53, 127
2, 76960, Note_off_c, 1, 55, 0
2, 76960, Note_off_c, 1, 59, 0
2, 76960, Note_off_c, 1, 64, 0
2, 77000, Note_off_c, 1, 31, 0
2, 77000, Note_off_c, 1, 36, 0
2, 77000, Note_off_c, 1, 47, 0
2, 77000, Note_on_c, 1, 51, 127
2, 77000, Note_off_c, 1, 53, 0
2, 77000, Note_on_c, 1, 54, 127
2, 77000, Note_on_c, 1, 56, 127
2, 77000, Note_on_c, 1, 60, 127
2, 77000, Note_on_c, 1, 63, 127
2, 77000, Note_on_c, 1, 68, 127
2, 77040, Note_on_c, 1, 38, 127
2, 77040, Note_off_c, 1, 44, 0
2, 77040, Note_on_c, 1, 50, 127
2, 77040, Note_off_c, 1, 51, 0
2, 77040, Note_off_c, 1, 54, 0
2, 77040, Note_off_c, 1, 56, 0
2, 77040, Note_off_c, 1, 60, 0
2, 77040, Note_off_c, 1, 63, 0
2, 77040, Note_off_c, 1, 68, 0
2, 77040, Note_on_c, 1, 73, 127
2, 77040, Note_on_c, 1, 79, 127
2, 77040, Note_on_c, 1, 81, 127
2, 77080, Note_on_c, 1, 36, 127
2, 77080, Note_off_c, 1, 38, 0
2, 77080, Note_on_c, 1, 43, 127
2, 77080, Note_on_c, 1, 48, 127
2, 77080, Note_off_c, 1, 50, 0
2, 77080, Note_on_c, 1, 55, 127
2, 77080, Note_on_c, 1, 62, 127
2, 77080, Note_on_c, 1, 65, 127
2, 77080, Note_off_c, 1, 73, 0
2, 77080, Note_off_c, 1, 79, 0
2, 77080, Note_off_c, 1, 81, 0
2, 77120, Note_off_c, 1, 36, 0
2, 77120, Note_off_c, 1, 43, 0
2, 77120, Note_on_c, 1, 44, 127
2, 77120, Note_off_c, 1, 48, 0
2, 77120, Note_off_c, 1, 62, 0
2, 77120, Note_off_c, 1, 65, 0
2, 77120, Note_on_c, 1, 70, 127
2, 77120, Note_on_c, 1, 73, 127
2, 77120, Note_on_c, 1, 77, 127
2, 77160, Note_on_c, 1, 49, 127
2, 77160, Note_on_c, 1, 52, 127
2, 77160, Note_off_c, 1, 55, 0
2, 77160, Note_on_c, 1, 64, 127
2, 77160, Note_on_c, 1, 68, 127
2, 77160, Note_off_c, 1, 70, 0
2, 77160, Note_off_c, 1, 73, 0
2, 77160, Note_on_c, 1, 76, 127
2, 77160, Note_off_c, 1, 77, 0
2, 77200, Note_off_c, 1, 44, 0
2, 77200, Note_off_c, 1, 49, 0
2, 77200, Note_off_c, 1, 52, 0
2, 77200, Note_off_c, 1, 64, 0
2, 77200, Note_off_c, 1, 68, 0
2, 77200, Note_off_c, 1, 76, 0
2, 77240, Note_on_c, 1, 34, 127
2, 77640, Note_off_c, 1, 34, 0
2, 77640, Note_on_c, 1, 38, 127
2, 77640, Note_on_c, 1, 50, 127
2, 77640, Note_on_c, 1, 59, 127
2, 77640, Note_on_c, 1, 62, 127
2, 77640, Note_on_c, 1, 67, 127
2, 77640, Note_on_c, 1, 71, 127
2, 78000, Note_on_c, 1, 31, 127
2, 78000, Note_off_c, 1, 38, 0
2, 78000, Note_on_c, 1, 43, 127
2, 78000, Note_off_c, 1, 50, 0
2, 78000, Note_off_c, 1, 59, 0
2, 78000, Note_off_c, 1, 62, 0
2, 78000, Note_off_c, 1, 67, 0
2, 78000, Note_off_c, 1, 71, 0
2, 78000, Note_on_c, 1, 77, 127
2, 78040, Note_off_c, 1, 31, 0
2, 78040, Note_on_c, 1, 38, 127
2, 78040, Note_off_c, 1, 43, 0
2, 78040, Note_on_c, 1, 65, 127
2, 78040, Note_on_c, 1, 69, 127
2, 78040, Note_on_c, 1, 72, 127
2, 78040, Note_off_c, 1, 77, 0
2, 78400, Note_off_c, 1, 38, 0
2, 78400, Note_off_c, 1, 65, 0
2, 78400, Note_off_c, 1, 69, 0
2, 78400, Note_off_c, 1, 72, 0
2, 78440, Note_on_c, 1, 64, 127
2, 78440, Note_on_c, 1, 71, 127
2, 78440, Note_on_c, 1, 83, 127
2, 78440, Note_on_c, 1, 90, 127
2, 78480, Note_on_c, 1, 70, 127
2, 78480, Note_off_c, 1, 71, 0
2, 78480, Note_on_c, 1, 75, 127
2, 78480, Note_on_c, 1, 82, 127
2, 78480, Note_off_c, 1, 83, 0
2, 78480, Note_on_c, 1, 94, 127
2, 78520, Note_on_c, 1, 54, 127
2, 78520, Note_on_c, 1, 57, 127
2, 78520, Note_on_c, 1, 59, 127
2, 78520, Note_on_c, 1, 63, 127
2, 78520, Note_off_c, 1, 64, 0
2, 78520, Note_off_c, 1, 70, 0
2, 78520, Note_off_c, 1, 75, 0
2, 78520, Note_off_c, 1, 82, 0
2, 78520, Note_on_c, 1, 84, 127
2, 78520, Note_off_c, 1, 90, 0
2, 78520, Note_off_c, 1, 94, 0
2, 78560, Note_off_c, 1, 54, 0
2, 78560, Note_off_c, 1, 57, 0
2, 78560, Note_off_c, 1, 59, 0
2, 78560, Note_off_c, 1, 63, 0
2, 78560, Note_on_c, 1, 64, 127
2, 78560, Note_on_c, 1, 70, 127
2, 78560, Note_on_c, 1, 75, 127
2, 78560, Note_on_c, 1, 82, 127
2, 78560, Note_off_c, 1, 84, 0
2, 78560, Note_on_c, 1, 90, 127
2, 78560, Note_on_c, 1, 94, 127
2, 78600, Note_on_c, 1, 49, 127
2, 78600, Note_on_c, 1, 53, 127
2, 78600, Note_on_c, 1, 59, 127
2, 78600, Note_off_c, 1, 64, 0
2, 78600, Note_on_c, 1, 68, 127
2, 78600, Note_off_c, 1, 70, 0
2, 78600, Note_on_c, 1, 73, 127
2, 78600, Note_off_c, 1, 75, 0
2, 78600, Note_off_c, 1, 82, 0
2, 78600, Note_off_c, 1, 90, 0
2, 78600, Note_off_c, 1, 94, 0
2, 78640, Note_off_c, 1, 49, 0
2, 78640, Note_off_c, 1, 53, 0
2, 78640, Note_off_c, 1, 59, 0
2, 78640, Note_on_c, 1, 64, 127
2, 78640, Note_off_c, 1, 68, 0
2, 78640, Note_on_c, 1, 70, 127
2, 78640, Note_off_c, 1, 73, 0
2, 78640, Note_on_c, 1, 75, 127
2, 78640, Note_on_c, 1, 82, 127
2, 78640, Note_on_c, 1, 90, 127
2, 78640, Note_on_c, 1, 94, 127
2, 78880, Note_off_c, 1, 64, 0
2, 78880, Note_off_c, 1, 70, 0
2, 78880, Note_off_c, 1, 75, 0
2, 78880, Note_off_c, 1, 82, 0
2, 78880, Note_off_c, 1, 90, 0
2, 78880, Note_off_c, 1, 94, 0
2, 78920, Note_on_c, 1, 64, 127
2, 78920, Note_on_c, 1, 70, 127
2, 78920, Note_on_c, 1, 75, 127
2, 78920, Note_on_c, 1, 82, 127
2, 78920, Note_on_c, 1, 90, 127
2, 78920, Note_on_c, 1, 94, 127
2, 79280, Note_off_c, 1, 64, 0
2, 79280, Note_off_c, 1, 70, 0
2, 79280, Note_off_c, 1, 75, 0
2, 79280, Note_off_c, 1, 82, 0
2, 79280, Note_off_c, 1, 90, 0
2, 79280, Note_off_c, 1, 94, 0
2, 79320, Note_on_c, 1, 68, 127
2, 79320, Note_on_c, 1, 78, 127
2, 79320, Note_on_c, 1, 80, 127
2, 79320, Note_on_c, 1, 84, 127
2, 79320, Note_on_c, 1, 88, 127
2, 80280, Note_off_c, 1, 68, 0
2, 80280, Note_off_c, 1, 78, 0
2, 80280, Note_off_c, 1, 80, 0
2, 80280, Note_off_c, 1, 84, 0
2, 80280, Note_off_c, 1, 88, 0
2, 80320, Note_on_c, 1, 48, 127
2, 80320, Note_on_c, 1, 59, 127
2, 80320, Note_on_c, 1, 62, 127
2, 80320, Note_on_c, 1, 65, 127
2, 80320, Note_on_c, 1, 67, 127
2, 80360, Note_on_c, 1, 34, 127
2, 80360, Note_on_c, 1, 41, 127
2, 80360, Note_on_c, 1, 44, 127
2, 80360, Note_off_c, 1, 48, 0
2, 80360, Note_on_c, 1, 53, 127
2, 80360, Note_on_c, 1, 56, 127
2, 80360, Note_on_c, 1, 58, 127
2, 80360, Note_off_c, 1, 59, 0
2, 80360, Note_off_c, 1, 62, 0
2, 80360, Note_off_c, 1, 65, 0
2, 80360, Note_off_c, 1, 67, 0
2, 80920, Note_off_c, 1, 34, 0
2, 80920, Note_off_c, 1, 41, 0
2, 80920, Note_off_c, 1, 44, 0
2, 80920, Note_off_c, 1, 53, 0
2, 80920, Note_off_c, 1, 56, 0
2, 80920, Note_off_c, 1, 58, 0
2, 80960, Note_on_c, 1, 34, 127
2, 80960, Note_on_c, 1, 41, 127
2, 80960, Note_on_c, 1, 44, 127
2, 80960, Note_on_c, 1, 53, 127
2, 80960, Note_on_c, 1, 56, 127
2, 80960, Note_on_c, 1, 58, 127
2, 81160, Note_off_c, 1, 34, 0
2, 81160, Note_off_c, 1, 41, 0
2, 81160, Note_off_c, 1, 44, 0
2, 81160, Note_off_c, 1, 53, 0
2, 81160, Note_off_c, 1, 56, 0
2, 81160, Note_off_c, 1, 58, 0
2, 81200, Note_on_c, 1, 44, 127
2, 81200, Note_on_c, 1, 56, 127
2, 81200, Note_on_c, 1, 60, 127
2, 81200, Note_on_c, 1, 63, 127
2, 81200, Note_on_c, 1, 68, 127
2, 81200, Note_on_c, 1, 72, 127
2, 81200, Note_on_c, 1, 75, 127
2, 81200, Note_on_c, 1, 80, 127
2, 81240, Note_on_c, 1, 43, 127
2, 81240, Note_off_c, 1, 44, 0
2, 81240, Note_on_c, 1, 52, 127
2, 81240, Note_off_c, 1, 56, 0
2, 81240, Note_off_c, 1, 60, 0
2, 81240, Note_off_c, 1, 63, 0
2, 81240, Note_off_c, 1, 68, 0
2, 81240, Note_off_c, 1, 72, 0
2, 81240, Note_off_c, 1, 75, 0
2, 81240, Note_on_c, 1, 76, 127
2, 81240, Note_on_c, 1, 79, 127
2, 81240, Note_off_c, 1, 80, 0
2, 81280, Note_off_c, 1, 43, 0
2, 81280, Note_on_c, 1, 48, 127
2, 81280, Note_off_c, 1, 52, 0
2, 81280, Note_on_c, 1, 56, 127
2, 81280, Note_on_c, 1, 60, 127
2, 81280, Note_on_c, 1, 67, 127
2, 81280, Note_on_c, 1, 72, 127
2, 81280, Note_off_c, 1, 76, 0
2, 81280, Note_on_c, 1, 77, 127
2, 81360, Note_on_c, 1, 31, 127
2, 81360, Note_on_c, 1, 38, 127
2, 81360, Note_on_c, 1, 47, 127
2, 81360, Note_off_c, 1, 48, 0
2, 81360, Note_off_c, 1, 56, 0
2, 81360, Note_off_c, 1, 60, 0
2, 81360, Note_off_c, 1, 67, 0
2, 81360, Note_on_c, 1, 71, 127
2, 81360, Note_off_c, 1, 72, 0
2, 81360, Note_off_c, 1, 77, 0
2, 81360, Note_on_c, 1, 86, 127
2, 81400, Note_off_c, 1, 31, 0
2, 81400, Note_off_c, 1, 38, 0
2, 81400, Note_on_c, 1, 39, 127
2, 81400, Note_off_c, 1, 47, 0
2, 81400, Note_on_c, 1, 56, 127
2, 81400, Note_on_c, 1, 60, 127
2, 81400, Note_on_c, 1, 67, 127
2, 81400, Note_off_c, 1, 71, 0
2, 81400, Note_off_c, 1, 79, 0
2, 81400, Note_off_c, 1, 86, 0
2, 82800, Note_off_c, 1, 39, 0
2, 82800, Note_off_c, 1, 56, 0
2, 82800, Note_off_c, 1, 60, 0
2, 82800, Note_off_c, 1, 67, 0
2, 82840, Note_on_c, 1, 37, 127
2, 82840, Note_on_c, 1, 49, 127
2, 82840, Note_on_c, 1, 68, 127
2, 82840, Note_on_c, 1, 73, 127
2, 82840, Note_on_c, 1, 77, 127
2, 82840, Note_on_c, 1, 80, 127
2, 83240, Note_off_c, 1, 37, 0
2, 83240, Note_off_c, 1, 49, 0
2, 83240, Note_off_c, 1, 68, 0
2, 83240, Note_off_c, 1, 73, 0
2, 83240, Note_off_c, 1, 77, 0
2, 83240, Note_off_c, 1, 80, 0
2, 83280, Note_on_c, 1, 37, 127
2, 83280, Note_on_c, 1, 49, 127
2, 83280, Note_on_c, 1, 68, 127
2, 83280, Note_on_c, 1, 73, 127
2, 83280, Note_on_c, 1, 77, 127
2, 83280, Note_on_c, 1, 80, 127
2, 84040, Note_off_c, 1, 37, 0
2, 84040, Note_off_c, 1, 49, 0
2, 84040, Note_off_c, 1, 68, 0
2, 84040, Note_off_c, 1, 73, 0
2, 84040, Note_off_c, 1, 77, 0
2, 84040, Note_off_c, 1, 80, 0
2, 84080, Note_on_c, 1, 39, 127
2, 84080, Note_on_c, 1, 51, 127
2, 84080, Note_on_c, 1, 81, 127
2, 84080, Note_on_c, 1, 93, 127
2, 85240, Note_off_c, 1, 39, 0
2, 85240, Note_off_c, 1, 51, 0
2, 85240, Note_off_c, 1, 81, 0
2, 85240, Note_off_c, 1, 93, 0
2, 85320, Note_on_c, 1, 45, 127
2, 85320, Note_on_c, 1, 57, 127
2, 85320, Note_on_c, 1, 81, 127
2, 85320, Note_on_c, 1, 85, 127
2, 85320, Note_on_c, 1, 88, 127
2, 85320, Note_on_c, 1, 93, 127
2, 86080, Note_off_c, 1, 45, 0
2, 86080, Note_off_c, 1, 57, 0
2, 86080, Note_off_c, 1, 81, 0
2, 86080, Note_off_c, 1, 85, 0
2, 86080, Note_off_c, 1, 88, 0
2, 86080, Note_off_c, 1, 93, 0
2, 87320, Note_on_c, 1, 37, 127
2, 87320, Note_on_c, 1, 49, 127
2, 87840, Note_off_c, 1, 37, 0
2, 87840, Note_off_c, 1, 49, 0
2, 87880, Note_on_c, 1, 37, 127
2, 87880, Note_on_c, 1, 49, 127
2, 89960, Note_off_c, 1, 37, 0
2, 89960, Note_off_c, 1, 49, 0
2, 90000, Note_on_c, 1, 37, 127
2, 90000, Note_on_c, 1, 49, 127
2, 90000, Note_on_c, 1, 61, 127
2, 90360, Note_off_c, 1, 61, 0
2, 90400, Note_on_c, 1, 64, 127
2, 91760, Note_off_c, 1, 64, 0
2, 92000, Note_off_c, 1, 37, 0
2, 92000, Note_off_c, 1, 49, 0
2, 92040, Note_on_c, 1, 37, 127
2, 92040, Note_on_c, 1, 49, 127
2, 94440, Note_off_c, 1, 37, 0
2, 94440, Note_off_c, 1, 49, 0
2, 94480, Note_on_c, 1, 37, 127
2, 94480, Note_on_c, 1, 49, 127
2, 96680, Note_off_c, 1, 37, 0
2, 96680, Note_off_c, 1, 49, 0
2, 96720, Note_on_c, 1, 37, 127
2, 96720, Note_on_c, 1, 49, 127
2, 96720, Note_on_c, 1, 66, 127
2, 97080, Note_off_c, 1, 66, 0
2, 97120, Note_on_c, 1, 54, 127
2, 97480, Note_off_c, 1, 54, 0
2, 97520, Note_on_c, 1, 54, 127
2, 97800, Note_off_c, 1, 54, 0
2, 97800, Note_on_c, 1, 58, 127
2, 97840, Note_on_c, 1, 54, 127
2, 97840, Note_off_c, 1, 58, 0
2, 97880, Note_off_c, 1, 54, 0
2, 97920, Note_on_c, 1, 54, 127
2, 98280, Note_off_c, 1, 54, 0
2, 98320, Note_on_c, 1, 54, 127
2, 98680, Note_off_c, 1, 54, 0
2, 98720, Note_off_c, 1, 37, 0
2, 98720, Note_off_c, 1, 49, 0
2, 98760, Note_on_c, 1, 37, 127
2, 98760, Note_on_c, 1, 49, 127
2, 98760, Note_on_c, 1, 54, 127
2, 99120, Note_off_c, 1, 54, 0
2, 99160, Note_on_c, 1, 54, 127
2, 99520, Note_off_c, 1, 54, 0
2, 99560, Note_on_c, 1, 34, 127
2, 99560, Note_off_c, 1, 37, 0
2, 99560, Note_on_c, 1, 46, 127
2, 99560, Note_off_c, 1, 49, 0
2, 99560, Note_on_c, 1, 55, 127
2, 99560, Note_on_c, 1, 62, 127
2, 99600, Note_off_c, 1, 34, 0
2, 99600, Note_on_c, 1, 38, 127
2, 99600, Note_on_c, 1, 42, 127
2, 99600, Note_off_c, 1, 46, 0
2, 99600, Note_on_c, 1, 50, 127
2, 99600, Note_on_c, 1, 54, 127
2, 99600, Note_off_c, 1, 55, 0
2, 99600, Note_off_c, 1, 62, 0
2, 99920, Note_off_c, 1, 42, 0
2, 99920, Note_off_c, 1, 54, 0
2, 99960, Note_on_c, 1, 35, 127
2, 99960, Note_off_c, 1, 38, 0
2, 99960, Note_on_c, 1, 42, 127
2, 99960, Note_on_c, 1, 47, 127
2, 99960, Note_off_c, 1, 50, 0
2, 99960, Note_on_c, 1, 54, 127
2, 100720, Note_off_c, 1, 35, 0
2, 100720, Note_off_c, 1, 42, 0
2, 100720, Note_off_c, 1, 47, 0
2, 100760, Note_off_c, 1, 54, 0
2, 100800, Note_on_c, 1, 35, 127
2, 100800, Note_on_c, 1, 42, 127
2, 100800, Note_on_c, 1, 47, 127
2, 100800, Note_on_c, 1, 54, 127
2, 101560, Note_off_c, 1, 35, 0
2, 101560, Note_off_c, 1, 42, 0
2, 101560, Note_off_c, 1, 47, 0
2, 101600, Note_on_c, 1, 35, 127
2, 101600, Note_on_c, 1, 42, 127
2, 101600, Note_on_c, 1, 47, 127
2, 102760, Note_off_c, 1, 35, 0
2, 102760, Note_off_c, 1, 42, 0
2, 102760, Note_off_c, 1, 47, 0
2, 102760, Note_off_c, 1, 54, 0
2, 102840, Note_on_c, 1, 35, 127
2, 102840, Note_on_c, 1, 42, 127
2, 102840, Note_on_c, 1, 47, 127
2, 102840, Note_on_c, 1, 54, 127
2, 105240, Note_off_c, 1, 35, 0
2, 105240, Note_off_c, 1, 42, 0
2, 105240, Note_off_c, 1, 47, 0
2, 105240, Note_off_c, 1, 54, 0
2, 105280, Note_on_c, 1, 35, 127
2, 105280, Note_on_c, 1, 42, 127
2, 105280, Note_on_c, 1, 47, 127
2, 105280, Note_on_c, 1, 54, 127
2, 107040, Note_off_c, 1, 54, 0
2, 107080, Note_on_c, 1, 54, 127
2, 107480, Note_off_c, 1, 35, 0
2, 107480, Note_off_c, 1, 42, 0
2, 107480, Note_off_c, 1, 47, 0
2, 107480, Note_off_c, 1, 54, 0
2, 107520, Note_on_c, 1, 35, 127
2, 107520, Note_on_c, 1, 42, 127
2, 107520, Note_on_c, 1, 47, 127
2, 107520, Note_on_c, 1, 54, 127
2, 108280, Note_off_c, 1, 35, 0
2, 108280, Note_off_c, 1, 42, 0
2, 108280, Note_off_c, 1, 47, 0
2, 108320, Note_on_c, 1, 38, 127
2, 108320, Note_on_c, 1, 42, 127
2, 108320, Note_on_c, 1, 50, 127
2, 108320, Note_off_c, 1, 54, 0
2, 108320, Note_on_c, 1, 55, 127
2, 109680, Note_off_c, 1, 38, 0
2, 109680, Note_off_c, 1, 42, 0
2, 109680, Note_off_c, 1, 50, 0
2, 109680, Note_off_c, 1, 55, 0
2, 109760, Note_on_c, 1, 37, 127
2, 110160, Note_off_c, 1, 37, 0
2, 110200, Note_on_c, 1, 41, 127
2, 110760, Note_off_c, 1, 41, 0
2, 110800, Note_on_c, 1, 32, 127
2, 110800, Note_on_c, 1, 44, 127
2, 110800, Note_on_c, 1, 63, 127
2, 111360, Note_off_c, 1, 63, 0
2, 111400, Note_on_c, 1, 63, 127
2, 111400, Note_on_c, 1, 72, 127
2, 111800, Note_off_c, 1, 32, 0
2, 111800, Note_off_c, 1, 44, 0
2, 111800, Note_off_c, 1, 63, 0
2, 111800, Note_off_c, 1, 72, 0
2, 111840, Note_on_c, 1, 32, 127
2, 111840, Note_on_c, 1, 44, 127
2, 111840, Note_on_c, 1, 63, 127
2, 111840, Note_on_c, 1, 72, 127
2, 112000, Note_off_c, 1, 63, 0
2, 112000, Note_off_c, 1, 72, 0
2, 112040, Note_on_c, 1, 72, 127
2, 113800, Note_off_c, 1, 72, 0
2, 113840, Note_on_c, 1, 72, 127
2, 114040, Note_off_c, 1, 32, 0
2, 114040, Note_off_c, 1, 44, 0
2, 114040, Note_off_c, 1, 72, 0
2, 114080, Note_on_c, 1, 32, 127
2, 114080, Note_on_c, 1, 44, 127
2, 114080, Note_on_c, 1, 72, 127
2, 114440, Note_off_c, 1, 72, 0
2, 114480, Note_on_c, 1, 60, 127
2, 115240, Note_off_c, 1, 32, 0
2, 115240, Note_off_c, 1, 44, 0
2, 115240, Note_off_c, 1, 60, 0
2, 115280, Note_on_c, 1, 56, 127
2, 115280, Note_on_c, 1, 61, 127
2, 115280, Note_on_c, 1, 77, 127
2, 115280, Note_on_c, 1, 89, 127
2, 115800, Note_off_c, 1, 56, 0
2, 115800, Note_off_c, 1, 77, 0
2, 115800, Note_off_c, 1, 89, 0
2, 115840, Note_off_c, 1, 61, 0
2, 115880, Note_on_c, 1, 32, 127
2, 115880, Note_on_c, 1, 44, 127
2, 115880, Note_on_c, 1, 68, 127
2, 116280, Note_off_c, 1, 32, 0
2, 116280, Note_off_c, 1, 44, 0
2, 116280, Note_off_c, 1, 68, 0
2, 116320, Note_on_c, 1, 32, 127
2, 116320, Note_on_c, 1, 44, 127
2, 116320, Note_on_c, 1, 68, 127
2, 116480, Note_off_c, 1, 68, 0
2, 116520, Note_on_c, 1, 60, 127
2, 118640, Note_off_c, 1, 32, 0
2, 118640, Note_off_c, 1, 44, 0
2, 118640, Note_off_c, 1, 60, 0
2, 118680, Note_on_c, 1, 32, 127
2, 118680, Note_on_c, 1, 44, 127
2, 118680, Note_on_c, 1, 60, 127
2, 118920, Note_off_c, 1, 32, 0
2, 118920, Note_off_c, 1, 44, 0
2, 118920, Note_off_c, 1, 60, 0
2, 118960, Note_on_c, 1, 47, 127
2, 118960, Note_on_c, 1, 51, 127
2, 118960, Note_on_c, 1, 54, 127
2, 118960, Note_on_c, 1, 59, 127
2, 119520, Note_off_c, 1, 51, 0
2, 119520, Note_off_c, 1, 54, 0
2, 119520, Note_off_c, 1, 59, 0
2, 119560, Note_off_c, 1, 47, 0
2, 119560, Note_on_c, 1, 58, 127
2, 119560, Note_on_c, 1, 62, 127
2, 119560, Note_on_c, 1, 68, 127
2, 119560, Note_on_c, 1, 71, 127
2, 119560, Note_on_c, 1, 77, 127
2, 119600, Note_on_c, 1, 38, 127
2, 119600, Note_on_c, 1, 42, 127
2, 119600, Note_on_c, 1, 50, 127
2, 119600, Note_off_c, 1, 58, 0
2, 119600, Note_on_c, 1, 61, 127
2, 119600, Note_off_c, 1, 62, 0
2, 119600, Note_off_c, 1, 68, 0
2, 119600, Note_off_c, 1, 71, 0
2, 119600, Note_off_c, 1, 77, 0
2, 119640, Note_off_c, 1, 38, 0
2, 119640, Note_off_c, 1, 42, 0
2, 119640, Note_off_c, 1, 50, 0
2, 119640, Note_on_c, 1, 58, 127
2, 119640, Note_off_c, 1, 61, 0
2, 119640, Note_on_c, 1, 62, 127
2, 119640, Note_on_c, 1, 68, 127
2, 119640, Note_on_c, 1, 71, 127
2, 119640, Note_on_c, 1, 77, 127
2, 120000, Note_off_c, 1, 58, 0
2, 120000, Note_off_c, 1, 62, 0
2, 120000, Note_off_c, 1, 68, 0
2, 120000, Note_off_c, 1, 71, 0
2, 120000, Note_off_c, 1, 77, 0
2, 120040, End_track
3, 0, Start_track
3, 0, Title_t, "MIDI"
3, 1536, End_track
0, 0, End_of_file
