0, 0, Header, 1, 3, 192
1, 0, Start_track
1, 0, Time_signature, 4, 2, 24, 8
1, 0, Tempo, 500000
1, 120040, End_track
2, 0, Start_track
2, 0, Text_t, "random instrument: random person i dunno whatev"
2, 0, Title_t, "Track 1"
2, 0, Note_on_c, 1, 58, 127
2, 0, Note_on_c, 1, 66, 127
2, 0, Note_on_c, 1, 78, 127
2, 0, Note_on_c, 1, 82, 127
2, 0, Note_on_c, 1, 90, 127
2, 40, Note_off_c, 1, 58, 0
2, 40, Note_on_c, 1, 59, 127
2, 40, Note_off_c, 1, 66, 0
2, 40, Note_on_c, 1, 74, 127
2, 40, Note_off_c, 1, 82, 0
2, 40, Note_on_c, 1, 83, 127
2, 40, Note_on_c, 1, 86, 127
2, 40, Note_off_c, 1, 90, 0
2, 80, Note_off_c, 1, 59, 0
2, 80, Note_off_c, 1, 74, 0
2, 80, Note_off_c, 1, 78, 0
2, 80, Note_off_c, 1, 83, 0
2, 80, Note_off_c, 1, 86, 0
2, 120, Note_on_c, 1, 58, 127
2, 120, Note_on_c, 1, 66, 127
2, 120, Note_on_c, 1, 78, 127
2, 120, Note_on_c, 1, 82, 127
2, 120, Note_on_c, 1, 90, 127
2, 360, Note_off_c, 1, 58, 0
2, 360, Note_off_c, 1, 66, 0
2, 360, Note_off_c, 1, 78, 0
2, 360, Note_off_c, 1, 82, 0
2, 360, Note_off_c, 1, 90, 0
2, 400, Note_on_c, 1, 51, 127
2, 400, Note_on_c, 1, 59, 127
2, 400, Note_on_c, 1, 71, 127
2, 400, Note_on_c, 1, 75, 127
2, 840, Note_off_c, 1, 51, 0
2, 840, Note_off_c, 1, 59, 0
2, 840, Note_off_c, 1, 71, 0
2, 840, Note_off_c, 1, 75, 0
2, 880, Note_on_c, 1, 44, 127
2, 880, Note_on_c, 1, 51, 127
2, 880, Note_on_c, 1, 63, 127
2, 880, Note_on_c, 1, 68, 127
2, 1640, Note_off_c, 1, 44, 0
2, 1640, Note_off_c, 1, 51, 0
2, 1640, Note_off_c, 1, 63, 0
2, 1640, Note_off_c, 1, 68, 0
2, 1680, Note_on_c, 1, 39, 127
2, 1680, Note_on_c, 1, 67, 127
2, 1680, Note_on_c, 1, 70, 127
2, 2040, Note_off_c, 1, 39, 0
2, 2040, Note_off_c, 1, 67, 0
2, 2040, Note_off_c, 1, 70, 0
2, 2080, Note_on_c, 1, 51, 127
2, 2080, Note_on_c, 1, 67, 127
2, 2280, Note_off_c, 1, 51, 0
2, 2280, Note_off_c, 1, 67, 0
2, 2360, Note_on_c, 1, 51, 127
2, 2360, Note_on_c, 1, 67, 127
2, 2520, Note_off_c, 1, 67, 0
2, 2560, Note_on_c, 1, 70, 127
2, 2760, Note_off_c, 1, 51, 0
2, 2760, Note_off_c, 1, 70, 0
2, 2800, Note_on_c, 1, 48, 127
2, 2800, Note_on_c, 1, 67, 127
2, 2800, Note_on_c, 1, 72, 127
2, 3160, Note_off_c, 1, 48, 0
2, 3160, Note_off_c, 1, 67, 0
2, 3160, Note_off_c, 1, 72, 0
2, 3200, Note_on_c, 1, 48, 127
2, 3200, Note_on_c, 1, 55, 127
2, 3200, Note_on_c, 1, 63, 127
2, 3200, Note_on_c, 1, 75, 127
2, 3960, Note_off_c, 1, 48, 0
2, 3960, Note_off_c, 1, 55, 0
2, 3960, Note_off_c, 1, 63, 0
2, 3960, Note_off_c, 1, 75, 0
2, 4000, Note_on_c, 1, 46, 127
2, 4000, Note_on_c, 1, 51, 127
2, 4000, Note_on_c, 1, 67, 127
2, 4000, Note_on_c, 1, 75, 127
2, 4000, Note_on_c, 1, 79, 127
2, 4400, Note_off_c, 1, 46, 0
2, 4400, Note_off_c, 1, 51, 0
2, 4400, Note_off_c, 1, 67, 0
2, 4400, Note_off_c, 1, 75, 0
2, 4400, Note_off_c, 1, 79, 0
2, 4480, Note_on_c, 1, 46, 127
2, 4480, Note_on_c, 1, 51, 127
2, 4480, Note_on_c, 1, 67, 127
2, 4480, Note_on_c, 1, 75, 127
2, 4480, Note_on_c, 1, 79, 127
2, 4840, Note_off_c, 1, 46, 0
2, 4840, Note_off_c, 1, 51, 0
2, 4840, Note_off_c, 1, 67, 0
2, 4840, Note_off_c, 1, 75, 0
2, 4840, Note_off_c, 1, 79, 0
2, 4880, Note_on_c, 1, 46, 127
2, 4880, Note_on_c, 1, 51, 127
2, 4880, Note_on_c, 1, 67, 127
2, 4880, Note_on_c, 1, 75, 127
2, 4880, Note_on_c, 1, 79, 127
2, 5240, Note_off_c, 1, 46, 0
2, 5240, Note_off_c, 1, 51, 0
2, 5240, Note_off_c, 1, 67, 0
2, 5240, Note_off_c, 1, 75, 0
2, 5240, Note_off_c, 1, 79, 0
2, 5280, Note_on_c, 1, 46, 127
2, 5280, Note_on_c, 1, 51, 127
2, 5280, Note_on_c, 1, 67, 127
2, 5280, Note_on_c, 1, 75, 127
2, 5280, Note_on_c, 1, 79, 127
2, 5640, Note_off_c, 1, 46, 0
2, 5640, Note_off_c, 1, 51, 0
2, 5640, Note_off_c, 1, 67, 0
2, 5640, Note_off_c, 1, 75, 0
2, 5640, Note_off_c, 1, 79, 0
2, 5680, Note_on_c, 1, 46, 127
2, 5680, Note_on_c, 1, 51, 127
2, 5680, Note_on_c, 1, 67, 127
2, 5680, Note_on_c, 1, 75, 127
2, 5680, Note_on_c, 1, 79, 127
2, 6040, Note_off_c, 1, 46, 0
2, 6040, Note_off_c, 1, 51, 0
2, 6040, Note_off_c, 1, 67, 0
2, 6040, Note_off_c, 1, 75, 0
2, 6040, Note_off_c, 1, 79, 0
2, 6080, Note_on_c, 1, 46, 127
2, 6080, Note_on_c, 1, 51, 127
2, 6080, Note_on_c, 1, 67, 127
2, 6080, Note_on_c, 1, 75, 127
2, 6080, Note_on_c, 1, 79, 127
2, 6440, Note_off_c, 1, 46, 0
2, 6440, Note_off_c, 1, 51, 0
2, 6440, Note_off_c, 1, 67, 0
2, 6440, Note_off_c, 1, 75, 0
2, 6440, Note_off_c, 1, 79, 0
2, 6480, Note_on_c, 1, 46, 127
2, 6480, Note_on_c, 1, 51, 127
2, 6480, Note_on_c, 1, 67, 127
2, 6480, Note_on_c, 1, 75, 127
2, 6480, Note_on_c, 1, 79, 127
2, 6840, Note_off_c, 1, 46, 0
2, 6840, Note_off_c, 1, 51, 0
2, 6840, Note_off_c, 1, 67, 0
2, 6840, Note_off_c, 1, 75, 0
2, 6840, Note_off_c, 1, 79, 0
2, 6920, Note_on_c, 1, 46, 127
2, 6920, Note_on_c, 1, 51, 127
2, 6920, Note_on_c, 1, 67, 127
2, 6920, Note_on_c, 1, 75, 127
2, 6920, Note_on_c, 1, 79, 127
2, 7280, Note_off_c, 1, 46, 0
2, 7280, Note_off_c, 1, 51, 0
2, 7280, Note_off_c, 1, 67, 0
2, 7280, Note_off_c, 1, 75, 0
2, 7280, Note_off_c, 1, 79, 0
2, 7320, Note_on_c, 1, 46, 127
2, 7320, Note_on_c, 1, 51, 127
2, 7320, Note_on_c, 1, 67, 127
2, 7320, Note_on_c, 1, 75, 127
2, 7320, Note_on_c, 1, 79, 127
2, 7680, Note_off_c, 1, 46, 0
2, 7680, Note_off_c, 1, 51, 0
2, 7680, Note_off_c, 1, 67, 0
2, 7680, Note_off_c, 1, 75, 0
2, 7680, Note_off_c, 1, 79, 0
2, 7720, Note_on_c, 1, 46, 127
2, 7720, Note_on_c, 1, 51, 127
2, 7720, Note_on_c, 1, 67, 127
2, 7720, Note_on_c, 1, 75, 127
2, 7720, Note_on_c, 1, 79, 127
2, 8080, Note_off_c, 1, 46, 0
2, 8080, Note_off_c, 1, 51, 0
2, 8080, Note_off_c, 1, 67, 0
2, 8080, Note_off_c, 1, 75, 0
2, 8080, Note_off_c, 1, 79, 0
2, 8120, Note_on_c, 1, 46, 127
2, 8120, Note_on_c, 1, 51, 127
2, 8120, Note_on_c, 1, 67, 127
2, 8120, Note_on_c, 1, 75, 127
2, 8120, Note_on_c, 1, 79, 127
2, 8440, Note_on_c, 1, 33, 127
2, 8440, Note_on_c, 1, 45, 127
2, 8440, Note_off_c, 1, 46, 0
2, 8440, Note_off_c, 1, 51, 0
2, 8440, Note_on_c, 1, 73, 127
2, 8440, Note_off_c, 1, 75, 0
2, 8480, Note_off_c, 1, 33, 0
2, 8480, Note_off_c, 1, 45, 0
2, 8480, Note_off_c, 1, 67, 0
2, 8480, Note_off_c, 1, 73, 0
2, 8480, Note_off_c, 1, 79, 0
2, 8520, Note_on_c, 1, 46, 127
2, 8520, Note_on_c, 1, 51, 127
2, 8520, Note_on_c, 1, 67, 127
2, 8520, Note_on_c, 1, 75, 127
2, 8520, Note_on_c, 1, 79, 127
2, 8880, Note_off_c, 1, 46, 0
2, 8880, Note_off_c, 1, 51, 0
2, 8880, Note_off_c, 1, 67, 0
2, 8880, Note_off_c, 1, 75, 0
2, 8880, Note_off_c, 1, 79, 0
2, 8920, Note_on_c, 1, 46, 127
2, 8920, Note_on_c, 1, 51, 127
2, 8920, Note_on_c, 1, 67, 127
2, 8920, Note_on_c, 1, 75, 127
2, 8920, Note_on_c, 1, 79, 127
2, 9120, Note_off_c, 1, 46, 0
2, 9120, Note_off_c, 1, 51, 0
2, 9120, Note_off_c, 1, 67, 0
2, 9120, Note_off_c, 1, 75, 0
2, 9120, Note_off_c, 1, 79, 0
2, 9160, Note_on_c, 1, 46, 127
2, 9160, Note_on_c, 1, 51, 127
2, 9160, Note_on_c, 1, 67, 127
2, 9160, Note_on_c, 1, 75, 127
2, 9160, Note_on_c, 1, 79, 127
2, 9320, Note_off_c, 1, 46, 0
2, 9320, Note_off_c, 1, 51, 0
2, 9320, Note_off_c, 1, 67, 0
2, 9320, Note_off_c, 1, 75, 0
2, 9320, Note_off_c, 1, 79, 0
2, 9360, Note_on_c, 1, 46, 127
2, 9360, Note_on_c, 1, 51, 127
2, 9360, Note_on_c, 1, 67, 127
2, 9360, Note_on_c, 1, 75, 127
2, 9360, Note_on_c, 1, 79, 127
2, 9720, Note_off_c, 1, 46, 0
2, 9720, Note_off_c, 1, 51, 0
2, 9720, Note_off_c, 1, 67, 0
2, 9720, Note_off_c, 1, 75, 0
2, 9720, Note_off_c, 1, 79, 0
2, 9760, Note_on_c, 1, 46, 127
2, 9760, Note_on_c, 1, 51, 127
2, 9760, Note_on_c, 1, 67, 127
2, 9760, Note_on_c, 1, 75, 127
2, 9760, Note_on_c, 1, 79, 127
2, 10120, Note_off_c, 1, 46, 0
2, 10120, Note_off_c, 1, 51, 0
2, 10120, Note_off_c, 1, 67, 0
2, 10120, Note_off_c, 1, 75, 0
2, 10120, Note_off_c, 1, 79, 0
2, 10160, Note_on_c, 1, 46, 127
2, 10160, Note_on_c, 1, 51, 127
2, 10160, Note_on_c, 1, 67, 127
2, 10160, Note_on_c, 1, 75, 127
2, 10160, Note_on_c, 1, 79, 127
2, 10520, Note_off_c, 1, 46, 0
2, 10520, Note_off_c, 1, 51, 0
2, 10520, Note_off_c, 1, 67, 0
2, 10520, Note_off_c, 1, 75, 0
2, 10520, Note_off_c, 1, 79, 0
2, 10560, Note_on_c, 1, 46, 127
2, 10560, Note_on_c, 1, 51, 127
2, 10560, Note_on_c, 1, 67, 127
2, 10560, Note_on_c, 1, 75, 127
2, 10560, Note_on_c, 1, 79, 127
2, 10920, Note_off_c, 1, 46, 0
2, 10920, Note_off_c, 1, 51, 0
2, 10920, Note_off_c, 1, 67, 0
2, 10920, Note_off_c, 1, 75, 0
2, 10920, Note_off_c, 1, 79, 0
2, 10960, Note_on_c, 1, 46, 127
2, 10960, Note_on_c, 1, 51, 127
2, 10960, Note_on_c, 1, 67, 127
2, 10960, Note_on_c, 1, 75, 127
2, 10960, Note_on_c, 1, 79, 127
2, 11320, Note_off_c, 1, 46, 0
2, 11320, Note_off_c, 1, 51, 0
2, 11320, Note_off_c, 1, 67, 0
2, 11320, Note_off_c, 1, 75, 0
2, 11320, Note_off_c, 1, 79, 0
2, 11400, Note_on_c, 1, 46, 127
2, 11400, Note_on_c, 1, 51, 127
2, 11400, Note_on_c, 1, 67, 127
2, 11400, Note_on_c, 1, 75, 127
2, 11400, Note_on_c, 1, 79, 127
2, 11760, Note_off_c, 1, 46, 0
2, 11760, Note_off_c, 1, 51, 0
2, 11760, Note_off_c, 1, 67, 0
2, 11760, Note_off_c, 1, 75, 0
2, 11760, Note_off_c, 1, 79, 0
2, 11800, Note_on_c, 1, 46, 127
2, 11800, Note_on_c, 1, 51, 127
2, 11800, Note_on_c, 1, 67, 127
2, 11800, Note_on_c, 1, 75, 127
2, 11800, Note_on_c, 1, 79, 127
2, 12160, Note_off_c, 1, 46, 0
2, 12160, Note_off_c, 1, 51, 0
2, 12160, Note_off_c, 1, 67, 0
2, 12160, Note_off_c, 1, 75, 0
2, 12160, Note_off_c, 1, 79, 0
2, 12200, Note_on_c, 1, 46, 127
2, 12200, Note_on_c, 1, 51, 127
2, 12200, Note_on_c, 1, 67, 127
2, 12200, Note_on_c, 1, 75, 127
2, 12200, Note_on_c, 1, 79, 127
2, 12520, Note_off_c, 1, 46, 0
2, 12520, Note_off_c, 1, 51, 0
2, 12520, Note_off_c, 1, 67, 0
2, 12520, Note_off_c, 1, 75, 0
2, 12520, Note_off_c, 1, 79, 0
2, 12560, Note_on_c, 1, 46, 127
2, 12560, Note_on_c, 1, 51, 127
2, 12560, Note_on_c, 1, 67, 127
2, 12560, Note_on_c, 1, 75, 127
2, 12560, Note_on_c, 1, 79, 127
2, 12920, Note_off_c, 1, 46, 0
2, 12920, Note_off_c, 1, 51, 0
2, 12920, Note_off_c, 1, 67, 0
2, 12920, Note_off_c, 1, 75, 0
2, 12920, Note_off_c, 1, 79, 0
2, 12960, Note_on_c, 1, 46, 127
2, 12960, Note_on_c, 1, 51, 127
2, 12960, Note_on_c, 1, 67, 127
2, 12960, Note_on_c, 1, 75, 127
2, 12960, Note_on_c, 1, 79, 127
2, 13320, Note_off_c, 1, 46, 0
2, 13320, Note_off_c, 1, 51, 0
2, 13320, Note_off_c, 1, 67, 0
2, 13320, Note_off_c, 1, 75, 0
2, 13320, Note_off_c, 1, 79, 0
2, 13360, Note_on_c, 1, 46, 127
2, 13360, Note_on_c, 1, 51, 127
2, 13360, Note_on_c, 1, 67, 127
2, 13360, Note_on_c, 1, 75, 127
2, 13360, Note_on_c, 1, 79, 127
2, 13520, Note_off_c, 1, 46, 0
2, 13520, Note_off_c, 1, 51, 0
2, 13520, Note_off_c, 1, 67, 0
2, 13520, Note_off_c, 1, 75, 0
2, 13520, Note_off_c, 1, 79, 0
2, 13560, Note_on_c, 1, 46, 127
2, 13560, Note_on_c, 1, 51, 127
2, 13560, Note_on_c, 1, 67, 127
2, 13560, Note_on_c, 1, 75, 127
2, 13560, Note_on_c, 1, 79, 127
2, 13760, Note_off_c, 1, 46, 0
2, 13760, Note_off_c, 1, 51, 0
2, 13760, Note_off_c, 1, 67, 0
2, 13760, Note_off_c, 1, 75, 0
2, 13760, Note_off_c, 1, 79, 0
2, 13800, Note_on_c, 1, 46, 127
2, 13800, Note_on_c, 1, 51, 127
2, 13800, Note_on_c, 1, 67, 127
2, 13800, Note_on_c, 1, 75, 127
2, 13800, Note_on_c, 1, 79, 127
2, 14120, Note_off_c, 1, 46, 0
2, 14120, Note_off_c, 1, 51, 0
2, 14120, Note_off_c, 1, 67, 0
2, 14120, Note_off_c, 1, 75, 0
2, 14120, Note_off_c, 1, 79, 0
2, 14160, Note_on_c, 1, 46, 127
2, 14160, Note_on_c, 1, 51, 127
2, 14160, Note_on_c, 1, 67, 127
2, 14160, Note_on_c, 1, 75, 127
2, 14160, Note_on_c, 1, 79, 127
2, 14520, Note_off_c, 1, 46, 0
2, 14520, Note_off_c, 1, 51, 0
2, 14520, Note_off_c, 1, 67, 0
2, 14520, Note_off_c, 1, 75, 0
2, 14520, Note_off_c, 1, 79, 0
2, 14560, Note_on_c, 1, 46, 127
2, 14560, Note_on_c, 1, 51, 127
2, 14560, Note_on_c, 1, 67, 127
2, 14560, Note_on_c, 1, 75, 127
2, 14560, Note_on_c, 1, 79, 127
2, 14920, Note_off_c, 1, 46, 0
2, 14920, Note_off_c, 1, 51, 0
2, 14920, Note_off_c, 1, 67, 0
2, 14920, Note_off_c, 1, 75, 0
2, 14920, Note_off_c, 1, 79, 0
2, 14960, Note_on_c, 1, 46, 127
2, 14960, Note_on_c, 1, 51, 127
2, 14960, Note_on_c, 1, 67, 127
2, 14960, Note_on_c, 1, 75, 127
2, 14960, Note_on_c, 1, 79, 127
2, 15280, Note_off_c, 1, 46, 0
2, 15280, Note_off_c, 1, 51, 0
2, 15280, Note_off_c, 1, 67, 0
2, 15280, Note_off_c, 1, 75, 0
2, 15280, Note_off_c, 1, 79, 0
2, 15320, Note_on_c, 1, 46, 127
2, 15320, Note_on_c, 1, 51, 127
2, 15320, Note_on_c, 1, 67, 127
2, 15320, Note_on_c, 1, 75, 127
2, 15320, Note_on_c, 1, 79, 127
2, 15640, Note_off_c, 1, 46, 0
2, 15640, Note_off_c, 1, 51, 0
2, 15640, Note_off_c, 1, 67, 0
2, 15640, Note_off_c, 1, 75, 0
2, 15640, Note_off_c, 1, 79, 0
2, 15680, Note_on_c, 1, 46, 127
2, 15680, Note_on_c, 1, 51, 127
2, 15680, Note_on_c, 1, 67, 127
2, 15680, Note_on_c, 1, 75, 127
2, 15680, Note_on_c, 1, 79, 127
2, 15880, Note_off_c, 1, 46, 0
2, 15880, Note_off_c, 1, 51, 0
2, 15880, Note_off_c, 1, 67, 0
2, 15880, Note_off_c, 1, 75, 0
2, 15880, Note_off_c, 1, 79, 0
2, 15920, Note_on_c, 1, 46, 127
2, 15920, Note_on_c, 1, 51, 127
2, 15920, Note_on_c, 1, 67, 127
2, 15920, Note_on_c, 1, 75, 127
2, 15920, Note_on_c, 1, 79, 127
2, 16040, Note_off_c, 1, 46, 0
2, 16040, Note_off_c, 1, 51, 0
2, 16040, Note_off_c, 1, 67, 0
2, 16040, Note_off_c, 1, 75, 0
2, 16040, Note_off_c, 1, 79, 0
2, 16080, Note_on_c, 1, 57, 127
2, 16080, Note_on_c, 1, 60, 127
2, 16080, Note_on_c, 1, 63, 127
2, 16080, Note_on_c, 1, 72, 127
2, 16080, Note_on_c, 1, 78, 127
2, 16080, Note_on_c, 1, 83, 127
2, 16240, Note_off_c, 1, 57, 0
2, 16240, Note_off_c, 1, 60, 0
2, 16240, Note_off_c, 1, 63, 0
2, 16240, Note_off_c, 1, 72, 0
2, 16240, Note_off_c, 1, 78, 0
2, 16240, Note_off_c, 1, 83, 0
2, 16280, Note_on_c, 1, 40, 127
2, 16280, Note_on_c, 1, 52, 127
2, 16280, Note_on_c, 1, 78, 127
2, 16280, Note_on_c, 1, 83, 127
2, 16280, Note_on_c, 1, 87, 127
2, 16280, Note_on_c, 1, 90, 127
2, 16320, Note_off_c, 1, 40, 0
2, 16320, Note_on_c, 1, 45, 127
2, 16320, Note_off_c, 1, 52, 0
2, 16320, Note_off_c, 1, 78, 0
2, 16320, Note_off_c, 1, 83, 0
2, 16320, Note_off_c, 1, 90, 0
2, 16320, Note_on_c, 1, 99, 127
2, 16360, Note_off_c, 1, 45, 0
2, 16360, Note_on_c, 1, 56, 127
2, 16360, Note_on_c, 1, 59, 127
2, 16360, Note_on_c, 1, 61, 127
2, 16360, Note_on_c, 1, 68, 127
2, 16360, Note_on_c, 1, 71, 127
2, 16360, Note_on_c, 1, 73, 127
2, 16360, Note_off_c, 1, 87, 0
2, 16360, Note_off_c, 1, 99, 0
2, 16400, Note_off_c, 1, 56, 0
2, 16400, Note_off_c, 1, 59, 0
2, 16400, Note_off_c, 1, 61, 0
2, 16400, Note_off_c, 1, 68, 0
2, 16400, Note_off_c, 1, 71, 0
2, 16400, Note_off_c, 1, 73, 0
2, 16440, Note_on_c, 1, 41, 127
2, 16440, Note_on_c, 1, 48, 127
2, 16440, Note_on_c, 1, 51, 127
2, 16440, Note_on_c, 1, 53, 127
2, 16440, Note_on_c, 1, 65, 127
2, 16440, Note_on_c, 1, 69, 127
2, 16440, Note_on_c, 1, 77, 127
2, 16480, Note_on_c, 1, 39, 127
2, 16480, Note_off_c, 1, 41, 0
2, 16480, Note_on_c, 1, 46, 127
2, 16480, Note_off_c, 1, 48, 0
2, 16480, Note_off_c, 1, 51, 0
2, 16480, Note_off_c, 1, 53, 0
2, 16480, Note_on_c, 1, 62, 127
2, 16480, Note_off_c, 1, 65, 0
2, 16480, Note_on_c, 1, 67, 127
2, 16480, Note_off_c, 1, 69, 0
2, 16480, Note_on_c, 1, 70, 127
2, 16480, Note_off_c, 1, 77, 0
2, 16520, Note_off_c, 1, 39, 0
2, 16520, Note_on_c, 1, 41, 127
2, 16520, Note_off_c, 1, 46, 0
2, 16520, Note_on_c, 1, 48, 127
2, 16520, Note_on_c, 1, 51, 127
2, 16520, Note_on_c, 1, 53, 127
2, 16520, Note_off_c, 1, 62, 0
2, 16520, Note_on_c, 1, 65, 127
2, 16520, Note_off_c, 1, 67, 0
2, 16520, Note_on_c, 1, 69, 127
2, 16520, Note_off_c, 1, 70, 0
2, 16520, Note_on_c, 1, 77, 127
2, 16600, Note_off_c, 1, 41, 0
2, 16600, Note_off_c, 1, 48, 0
2, 16600, Note_off_c, 1, 51, 0
2, 16600, Note_off_c, 1, 53, 0
2, 16600, Note_off_c, 1, 65, 0
2, 16600, Note_off_c, 1, 69, 0
2, 16600, Note_off_c, 1, 77, 0
2, 16640, Note_on_c, 1, 39, 127
2, 16640, Note_on_c, 1, 42, 127
2, 16640, Note_on_c, 1, 51, 127
2, 16640, Note_on_c, 1, 54, 127
2, 16760, Note_off_c, 1, 39, 0
2, 16760, Note_off_c, 1, 42, 0
2, 16760, Note_off_c, 1, 51, 0
2, 16760, Note_off_c, 1, 54, 0
2, 16800, Note_on_c, 1, 39, 127
2, 16800, Note_on_c, 1, 42, 127
2, 16800, Note_on_c, 1, 51, 127
2, 16800, Note_on_c, 1, 54, 127
2, 17120, Note_off_c, 1, 39, 0
2, 17120, Note_off_c, 1, 42, 0
2, 17120, Note_off_c, 1, 51, 0
2, 17120, Note_off_c, 1, 54, 0
2, 17160, Note_on_c, 1, 46, 127
2, 17160, Note_on_c, 1, 58, 127
2, 17160, Note_on_c, 1, 67, 127
2, 17160, Note_on_c, 1, 74, 127
2, 17160, Note_on_c, 1, 79, 127
2, 17480, Note_off_c, 1, 46, 0
2, 17480, Note_off_c, 1, 58, 0
2, 17480, Note_off_c, 1, 67, 0
2, 17480, Note_off_c, 1, 74, 0
2, 17480, Note_off_c, 1, 79, 0
2, 17520, Note_on_c, 1, 45, 127
2, 17520, Note_on_c, 1, 67, 127
2, 17520, Note_on_c, 1, 76, 127
2, 17520, Note_on_c, 1, 82, 127
2, 17840, Note_off_c, 1, 45, 0
2, 17840, Note_off_c, 1, 67, 0
2, 17840, Note_off_c, 1, 76, 0
2, 17840, Note_off_c, 1, 82, 0
2, 17880, Note_on_c, 1, 50, 127
2, 17880, Note_on_c, 1, 55, 127
2, 17880, Note_on_c, 1, 60, 127
2, 17880, Note_on_c, 1, 65, 127
2, 17880, Note_on_c, 1, 67, 127
2, 17880, Note_on_c, 1, 77, 127
2, 17920, Note_off_c, 1, 50, 0
2, 17920, Note_off_c, 1, 60, 0
2, 17920, Note_on_c, 1, 62, 127
2, 17920, Note_on_c, 1, 64, 127
2, 17920, Note_off_c, 1, 65, 0
2, 17920, Note_off_c, 1, 67, 0
2, 17920, Note_on_c, 1, 70, 127
2, 17920, Note_on_c, 1, 74, 127
2, 17920, Note_on_c, 1, 76, 127
2, 17920, Note_off_c, 1, 77, 0
2, 17960, Note_on_c, 1, 50, 127
2, 17960, Note_on_c, 1, 60, 127
2, 17960, Note_off_c, 1, 62, 0
2, 17960, Note_off_c, 1, 64, 0
2, 17960, Note_on_c, 1, 65, 127
2, 17960, Note_on_c, 1, 67, 127
2, 17960, Note_off_c, 1, 70, 0
2, 17960, Note_off_c, 1, 74, 0
2, 17960, Note_off_c, 1, 76, 0
2, 17960, Note_on_c, 1, 77, 127
2, 18080, Note_off_c, 1, 50, 0
2, 18080, Note_on_c, 1, 52, 127
2, 18080, Note_off_c, 1, 60, 0
2, 18080, Note_off_c, 1, 65, 0
2, 18080, Note_off_c, 1, 67, 0
2, 18080, Note_on_c, 1, 76, 127
2, 18080, Note_off_c, 1, 77, 0
2, 18080, Note_on_c, 1, 79, 127
2, 18120, Note_off_c, 1, 52, 0
2, 18120, Note_off_c, 1, 55, 0
2, 18120, Note_off_c, 1, 76, 0
2, 18120, Note_off_c, 1, 79, 0
2, 18160, Note_on_c, 1, 50, 127
2, 18160, Note_on_c, 1, 55, 127
2, 18160, Note_on_c, 1, 60, 127
2, 18160, Note_on_c, 1, 65, 127
2, 18160, Note_on_c, 1, 67, 127
2, 18160, Note_on_c, 1, 77, 127
2, 18240, Note_off_c, 1, 50, 0
2, 18240, Note_off_c, 1, 55, 0
2, 18240, Note_off_c, 1, 60, 0
2, 18240, Note_off_c, 1, 65, 0
2, 18240, Note_off_c, 1, 67, 0
2, 18240, Note_off_c, 1, 77, 0
2, 18280, Note_on_c, 1, 47, 127
2, 18280, Note_on_c, 1, 59, 127
2, 18280, Note_on_c, 1, 66, 127
2, 18280, Note_on_c, 1, 73, 127
2, 18280, Note_on_c, 1, 76, 127
2, 18600, Note_off_c, 1, 47, 0
2, 18600, Note_off_c, 1, 59, 0
2, 18600, Note_off_c, 1, 66, 0
2, 18600, Note_off_c, 1, 73, 0
2, 18600, Note_off_c, 1, 76, 0
2, 18640, Note_on_c, 1, 30, 127
2, 18640, Note_on_c, 1, 59, 127
2, 18640, Note_on_c, 1, 62, 127
2, 18640, Note_on_c, 1, 71, 127
2, 18680, Note_off_c, 1, 30, 0
2, 18680, Note_off_c, 1, 59, 0
2, 18680, Note_on_c, 1, 65, 127
2, 18680, Note_off_c, 1, 71, 0
2, 18680, Note_on_c, 1, 73, 127
2, 18680, Note_on_c, 1, 78, 127
2, 18680, Note_on_c, 1, 85, 127
2, 18720, Note_on_c, 1, 42, 127
2, 18720, Note_on_c, 1, 50, 127
2, 18720, Note_on_c, 1, 57, 127
2, 18720, Note_off_c, 1, 62, 0
2, 18720, Note_off_c, 1, 65, 0
2, 18720, Note_off_c, 1, 73, 0
2, 18720, Note_off_c, 1, 78, 0
2, 18720, Note_on_c, 1, 84, 127
2, 18720, Note_off_c, 1, 85, 0
2, 18760, Note_on_c, 1, 37, 127
2, 18760, Note_off_c, 1, 42, 0
2, 18760, Note_off_c, 1, 50, 0
2, 18760, Note_off_c, 1, 57, 0
2, 18760, Note_off_c, 1, 84, 0
2, 18760, Note_on_c, 1, 86, 127
2, 18800, Note_off_c, 1, 37, 0
2, 18800, Note_on_c, 1, 45, 127
2, 18800, Note_on_c, 1, 54, 127
2, 18800, Note_on_c, 1, 60, 127
2, 18800, Note_on_c, 1, 64, 127
2, 18800, Note_on_c, 1, 69, 127
2, 18800, Note_on_c, 1, 76, 127
2, 18800, Note_on_c, 1, 78, 127
2, 18800, Note_off_c, 1, 86, 0
2, 18840, Note_on_c, 1, 30, 127
2, 18840, Note_off_c, 1, 45, 0
2, 18840, Note_off_c, 1, 54, 0
2, 18840, Note_on_c, 1, 59, 127
2, 18840, Note_off_c, 1, 60, 0
2, 18840, Note_on_c, 1, 62, 127
2, 18840, Note_off_c, 1, 64, 0
2, 18840, Note_off_c, 1, 69, 0
2, 18840, Note_on_c, 1, 71, 127
2, 18840, Note_off_c, 1, 76, 0
2, 18840, Note_off_c, 1, 78, 0
2, 18920, Note_off_c, 1, 30, 0
2, 18920, Note_on_c, 1, 43, 127
2, 18920, Note_off_c, 1, 59, 0
2, 18920, Note_off_c, 1, 62, 0
2, 18920, Note_off_c, 1, 71, 0
2, 18960, Note_off_c, 1, 43, 0
2, 19000, Note_on_c, 1, 51, 127
2, 19000, Note_on_c, 1, 54, 127
2, 19000, Note_on_c, 1, 59, 127
2, 19000, Note_on_c, 1, 95, 127
2, 19040, Note_off_c, 1, 51, 0
2, 19040, Note_on_c, 1, 53, 127
2, 19040, Note_off_c, 1, 54, 0
2, 19040, Note_on_c, 1, 55, 127
2, 19040, Note_on_c, 1, 58, 127
2, 19040, Note_off_c, 1, 59, 0
2, 19040, Note_on_c, 1, 60, 127
2, 19040, Note_on_c, 1, 64, 127
2, 19080, Note_on_c, 1, 49, 127
2, 19080, Note_off_c, 1, 53, 0
2, 19080, Note_off_c, 1, 55, 0
2, 19080, Note_on_c, 1, 56, 127
2, 19080, Note_off_c, 1, 58, 0
2, 19080, Note_on_c, 1, 59, 127
2, 19080, Note_off_c, 1, 60, 0
2, 19080, Note_off_c, 1, 64, 0
2, 19080, Note_on_c, 1, 82, 127
2, 19080, Note_off_c, 1, 95, 0
2, 19120, Note_off_c, 1, 49, 0
2, 19120, Note_off_c, 1, 56, 0
2, 19120, Note_off_c, 1, 59, 0
2, 19120, Note_on_c, 1, 74, 127
2, 19120, Note_on_c, 1, 81, 127
2, 19120, Note_off_c, 1, 82, 0
2, 19120, Note_on_c, 1, 88, 127
2, 19160, Note_on_c, 1, 47, 127
2, 19160, Note_on_c, 1, 51, 127
2, 19160, Note_on_c, 1, 56, 127
2, 19160, Note_off_c, 1, 74, 0
2, 19160, Note_on_c, 1, 76, 127
2, 19160, Note_off_c, 1, 81, 0
2, 19160, Note_off_c, 1, 88, 0
2, 19200, Note_off_c, 1, 47, 0
2, 19200, Note_off_c, 1, 51, 0
2, 19200, Note_off_c, 1, 56, 0
2, 19200, Note_on_c, 1, 57, 127
2, 19200, Note_on_c, 1, 65, 127
2, 19200, Note_on_c, 1, 71, 127
2, 19200, Note_off_c, 1, 76, 0
2, 19200, Note_on_c, 1, 80, 127
2, 19240, Note_on_c, 1, 35, 127
2, 19240, Note_on_c, 1, 47, 127
2, 19240, Note_on_c, 1, 49, 127
2, 19240, Note_on_c, 1, 53, 127
2, 19240, Note_off_c, 1, 57, 0
2, 19240, Note_on_c, 1, 61, 127
2, 19240, Note_off_c, 1, 65, 0
2, 19240, Note_off_c, 1, 71, 0
2, 19240, Note_off_c, 1, 80, 0
2, 19280, Note_off_c, 1, 35, 0
2, 19280, Note_off_c, 1, 47, 0
2, 19280, Note_off_c, 1, 49, 0
2, 19280, Note_off_c, 1, 53, 0
2, 19280, Note_off_c, 1, 61, 0
2, 19280, Note_on_c, 1, 63, 127
2, 19280, Note_on_c, 1, 91, 127
2, 19280, Note_on_c, 1, 94, 127
2, 19280, Note_on_c, 1, 98, 127
2, 19320, Note_off_c, 1, 63, 0
2, 19320, Note_off_c, 1, 91, 0
2, 19320, Note_off_c, 1, 94, 0
2, 19320, Note_off_c, 1, 98, 0
2, 19360, Note_on_c, 1, 62, 127
2, 19360, Note_on_c, 1, 86, 127
2, 19360, Note_on_c, 1, 94, 127
2, 19640, Note_off_c, 1, 62, 0
2, 19640, Note_off_c, 1, 94, 0
2, 19680, Note_off_c, 1, 86, 0
2, 19720, Note_on_c, 1, 50, 127
2, 19720, Note_on_c, 1, 53, 127
2, 19720, Note_on_c, 1, 60, 127
2, 19720, Note_on_c, 1, 77, 127
2, 19720, Note_on_c, 1, 84, 127
2, 19760, Note_on_c, 1, 49, 127
2, 19760, Note_off_c, 1, 50, 0
2, 19760, Note_on_c, 1, 52, 127
2, 19760, Note_off_c, 1, 53, 0
2, 19760, Note_on_c, 1, 58, 127
2, 19760, Note_off_c, 1, 60, 0
2, 19760, Note_on_c, 1, 73, 127
2, 19760, Note_off_c, 1, 77, 0
2, 19760, Note_off_c, 1, 84, 0
2, 19800, Note_off_c, 1, 49, 0
2, 19800, Note_off_c, 1, 52, 0
2, 19800, Note_off_c, 1, 58, 0
2, 19800, Note_on_c, 1, 68, 127
2, 19800, Note_on_c, 1, 76, 127
2, 19800, Note_on_c, 1, 88, 127
2, 19840, Note_on_c, 1, 60, 127
2, 19840, Note_on_c, 1, 62, 127
2, 19840, Note_off_c, 1, 68, 0
2, 19840, Note_on_c, 1, 69, 127
2, 19840, Note_off_c, 1, 73, 0
2, 19840, Note_off_c, 1, 76, 0
2, 19840, Note_on_c, 1, 82, 127
2, 19840, Note_off_c, 1, 88, 0
2, 19880, Note_on_c, 1, 45, 127
2, 19880, Note_on_c, 1, 49, 127
2, 19880, Note_on_c, 1, 52, 127
2, 19880, Note_on_c, 1, 57, 127
2, 19880, Note_off_c, 1, 60, 0
2, 19880, Note_off_c, 1, 62, 0
2, 19880, Note_on_c, 1, 73, 127
2, 19880, Note_on_c, 1, 76, 127
2, 19880, Note_on_c, 1, 79, 127
2, 19880, Note_off_c, 1, 82, 0
2, 19920, Note_off_c, 1, 45, 0
2, 19920, Note_off_c, 1, 49, 0
2, 19920, Note_on_c, 1, 51, 127
2, 19920, Note_off_c, 1, 52, 0
2, 19920, Note_off_c, 1, 57, 0
2, 19920, Note_on_c, 1, 61, 127
2, 19920, Note_off_c, 1, 69, 0
2, 19920, Note_on_c, 1, 70, 127
2, 19920, Note_off_c, 1, 76, 0
2, 19920, Note_on_c, 1, 77, 127
2, 19920, Note_off_c, 1, 79, 0
2, 19920, Note_on_c, 1, 82, 127
2, 19960, Note_on_c, 1, 45, 127
2, 19960, Note_on_c, 1, 49, 127
2, 19960, Note_off_c, 1, 51, 0
2, 19960, Note_on_c, 1, 52, 127
2, 19960, Note_on_c, 1, 57, 127
2, 19960, Note_off_c, 1, 61, 0
2, 19960, Note_on_c, 1, 69, 127
2, 19960, Note_off_c, 1, 70, 0
2, 19960, Note_on_c, 1, 76, 127
2, 19960, Note_off_c, 1, 77, 0
2, 19960, Note_on_c, 1, 79, 127
2, 19960, Note_off_c, 1, 82, 0
2, 20040, Note_off_c, 1, 45, 0
2, 20040, Note_off_c, 1, 49, 0
2, 20040, Note_off_c, 1, 52, 0
2, 20040, Note_off_c, 1, 57, 0
2, 20040, Note_off_c, 1, 69, 0
2, 20040, Note_off_c, 1, 73, 0
2, 20040, Note_off_c, 1, 76, 0
2, 20040, Note_off_c, 1, 79, 0
2, 20080, Note_on_c, 1, 51, 127
2, 20080, Note_on_c, 1, 55, 127
2, 20080, Note_on_c, 1, 67, 127
2, 20080, Note_on_c, 1, 75, 127
2, 20080, Note_on_c, 1, 79, 127
2, 20240, Note_off_c, 1, 51, 0
2, 20240, Note_off_c, 1, 55, 0
2, 20240, Note_off_c, 1, 67, 0
2, 20240, Note_off_c, 1, 75, 0
2, 20240, Note_off_c, 1, 79, 0
2, 20280, Note_on_c, 1, 51, 127
2, 20280, Note_on_c, 1, 55, 127
2, 20280, Note_on_c, 1, 67, 127
2, 20280, Note_on_c, 1, 75, 127
2, 20280, Note_on_c, 1, 79, 127
2, 20440, Note_off_c, 1, 51, 0
2, 20440, Note_off_c, 1, 55, 0
2, 20440, Note_off_c, 1, 67, 0
2, 20440, Note_off_c, 1, 75, 0
2, 20440, Note_off_c, 1, 79, 0
2, 20480, Note_on_c, 1, 55, 127
2, 20480, Note_on_c, 1, 69, 127
2, 20480, Note_on_c, 1, 73, 127
2, 20480, Note_on_c, 1, 76, 127
2, 20520, Note_on_c, 1, 39, 127
2, 20520, Note_on_c, 1, 43, 127
2, 20520, Note_on_c, 1, 46, 127
2, 20520, Note_on_c, 1, 51, 127
2, 20520, Note_off_c, 1, 55, 0
2, 20520, Note_off_c, 1, 69, 0
2, 20520, Note_off_c, 1, 73, 0
2, 20520, Note_off_c, 1, 76, 0
2, 20520, Note_on_c, 1, 94, 127
2, 20560, Note_off_c, 1, 39, 0
2, 20560, Note_off_c, 1, 43, 0
2, 20560, Note_off_c, 1, 46, 0
2, 20560, Note_off_c, 1, 51, 0
2, 20560, Note_on_c, 1, 57, 127
2, 20560, Note_on_c, 1, 67, 127
2, 20560, Note_on_c, 1, 69, 127
2, 20560, Note_on_c, 1, 73, 127
2, 20560, Note_off_c, 1, 94, 0
2, 20600, Note_on_c, 1, 45, 127
2, 20600, Note_on_c, 1, 49, 127
2, 20600, Note_on_c, 1, 55, 127
2, 20600, Note_off_c, 1, 57, 0
2, 20600, Note_on_c, 1, 61, 127
2, 20600, Note_off_c, 1, 67, 0
2, 20600, Note_off_c, 1, 69, 0
2, 20600, Note_off_c, 1, 73, 0
2, 20640, Note_off_c, 1, 45, 0
2, 20640, Note_off_c, 1, 49, 0
2, 20640, Note_on_c, 1, 50, 127
2, 20640, Note_off_c, 1, 61, 0
2, 20640, Note_on_c, 1, 67, 127
2, 20640, Note_on_c, 1, 71, 127
2, 20640, Note_on_c, 1, 72, 127
2, 20680, Note_off_c, 1, 50, 0
2, 20680, Note_on_c, 1, 54, 127
2, 20680, Note_off_c, 1, 55, 0
2, 20680, Note_on_c, 1, 60, 127
2, 20680, Note_on_c, 1, 62, 127
2, 20680, Note_off_c, 1, 67, 0
2, 20680, Note_off_c, 1, 71, 0
2, 20680, Note_off_c, 1, 72, 0
2, 20680, Note_on_c, 1, 73, 127
2, 20720, Note_on_c, 1, 43, 127
2, 20720, Note_on_c, 1, 48, 127
2, 20720, Note_off_c, 1, 62, 0
2, 20720, Note_on_c, 1, 69, 127
2, 20720, Note_on_c, 1, 72, 127
2, 20720, Note_off_c, 1, 73, 0
2, 20720, Note_on_c, 1, 75, 127
2, 20720, Note_on_c, 1, 78, 127
2, 20720, Note_on_c, 1, 81, 127
2, 20760, Note_off_c, 1, 43, 0
2, 20760, Note_off_c, 1, 48, 0
2, 20760, Note_off_c, 1, 54, 0
2, 20760, Note_off_c, 1, 60, 0
2, 20760, Note_off_c, 1, 69, 0
2, 20760, Note_off_c, 1, 72, 0
2, 20760, Note_off_c, 1, 75, 0
2, 20760, Note_off_c, 1, 78, 0
2, 20760, Note_off_c, 1, 81, 0
2, 20840, Note_on_c, 1, 46, 127
2, 20840, Note_on_c, 1, 53, 127
2, 20840, Note_on_c, 1, 56, 127
2, 20840, Note_on_c, 1, 58, 127
2, 20840, Note_on_c, 1, 62, 127
2, 20840, Note_on_c, 1, 68, 127
2, 20840, Note_on_c, 1, 74, 127
2, 21160, Note_off_c, 1, 46, 0
2, 21160, Note_off_c, 1, 53, 0
2, 21160, Note_off_c, 1, 56, 0
2, 21160, Note_off_c, 1, 58, 0
2, 21160, Note_off_c, 1, 62, 0
2, 21160, Note_off_c, 1, 68, 0
2, 21160, Note_off_c, 1, 74, 0
2, 21200, Note_on_c, 1, 46, 127
2, 21200, Note_on_c, 1, 53, 127
2, 21200, Note_on_c, 1, 56, 127
2, 21200, Note_on_c, 1, 58, 127
2, 21200, Note_on_c, 1, 62, 127
2, 21200, Note_on_c, 1, 68, 127
2, 21200, Note_on_c, 1, 74, 127
2, 21520, Note_off_c, 1, 46, 0
2, 21520, Note_off_c, 1, 53, 0
2, 21520, Note_off_c, 1, 56, 0
2, 21520, Note_off_c, 1, 58, 0
2, 21520, Note_off_c, 1, 62, 0
2, 21520, Note_off_c, 1, 68, 0
2, 21520, Note_off_c, 1, 74, 0
2, 21560, Note_on_c, 1, 46, 127
2, 21560, Note_on_c, 1, 53, 127
2, 21560, Note_on_c, 1, 56, 127
2, 21560, Note_on_c, 1, 58, 127
2, 21560, Note_on_c, 1, 62, 127
2, 21560, Note_on_c, 1, 68, 127
2, 21560, Note_on_c, 1, 74, 127
2, 21880, Note_off_c, 1, 46, 0
2, 21880, Note_off_c, 1, 53, 0
2, 21880, Note_off_c, 1, 56, 0
2, 21880, Note_off_c, 1, 58, 0
2, 21880, Note_off_c, 1, 62, 0
2, 21880, Note_off_c, 1, 68, 0
2, 21880, Note_off_c, 1, 74, 0
2, 21920, Note_on_c, 1, 46, 127
2, 21920, Note_on_c, 1, 53, 127
2, 21920, Note_on_c, 1, 56, 127
2, 21920, Note_on_c, 1, 58, 127
2, 21920, Note_on_c, 1, 62, 127
2, 21920, Note_on_c, 1, 68, 127
2, 21920, Note_on_c, 1, 74, 127
2, 22240, Note_off_c, 1, 46, 0
2, 22240, Note_off_c, 1, 53, 0
2, 22240, Note_off_c, 1, 56, 0
2, 22240, Note_off_c, 1, 58, 0
2, 22240, Note_off_c, 1, 62, 0
2, 22240, Note_off_c, 1, 68, 0
2, 22240, Note_off_c, 1, 74, 0
2, 22360, Note_on_c, 1, 46, 127
2, 22360, Note_on_c, 1, 53, 127
2, 22360, Note_on_c, 1, 56, 127
2, 22360, Note_on_c, 1, 58, 127
2, 22360, Note_on_c, 1, 62, 127
2, 22360, Note_on_c, 1, 68, 127
2, 22360, Note_on_c, 1, 74, 127
2, 22680, Note_off_c, 1, 46, 0
2, 22680, Note_off_c, 1, 53, 0
2, 22680, Note_off_c, 1, 56, 0
2, 22680, Note_off_c, 1, 58, 0
2, 22680, Note_off_c, 1, 62, 0
2, 22680, Note_off_c, 1, 68, 0
2, 22680, Note_off_c, 1, 74, 0
2, 22720, Note_on_c, 1, 46, 127
2, 22720, Note_on_c, 1, 53, 127
2, 22720, Note_on_c, 1, 56, 127
2, 22720, Note_on_c, 1, 58, 127
2, 22720, Note_on_c, 1, 62, 127
2, 22720, Note_on_c, 1, 68, 127
2, 22720, Note_on_c, 1, 74, 127
2, 23040, Note_off_c, 1, 46, 0
2, 23040, Note_off_c, 1, 53, 0
2, 23040, Note_off_c, 1, 56, 0
2, 23040, Note_off_c, 1, 58, 0
2, 23040, Note_off_c, 1, 62, 0
2, 23040, Note_off_c, 1, 68, 0
2, 23040, Note_off_c, 1, 74, 0
2, 23080, Note_on_c, 1, 46, 127
2, 23080, Note_on_c, 1, 53, 127
2, 23080, Note_on_c, 1, 56, 127
2, 23080, Note_on_c, 1, 58, 127
2, 23080, Note_on_c, 1, 62, 127
2, 23080, Note_on_c, 1, 68, 127
2, 23080, Note_on_c, 1, 74, 127
2, 23400, Note_off_c, 1, 46, 0
2, 23400, Note_off_c, 1, 53, 0
2, 23400, Note_off_c, 1, 56, 0
2, 23400, Note_off_c, 1, 58, 0
2, 23400, Note_off_c, 1, 62, 0
2, 23400, Note_off_c, 1, 68, 0
2, 23400, Note_off_c, 1, 74, 0
2, 23440, Note_on_c, 1, 46, 127
2, 23440, Note_on_c, 1, 53, 127
2, 23440, Note_on_c, 1, 56, 127
2, 23440, Note_on_c, 1, 58, 127
2, 23440, Note_on_c, 1, 62, 127
2, 23440, Note_on_c, 1, 68, 127
2, 23440, Note_on_c, 1, 74, 127
2, 23760, Note_off_c, 1, 46, 0
2, 23760, Note_off_c, 1, 53, 0
2, 23760, Note_off_c, 1, 56, 0
2, 23760, Note_off_c, 1, 58, 0
2, 23760, Note_off_c, 1, 62, 0
2, 23760, Note_off_c, 1, 68, 0
2, 23760, Note_off_c, 1, 74, 0
2, 23800, Note_on_c, 1, 46, 127
2, 23800, Note_on_c, 1, 53, 127
2, 23800, Note_on_c, 1, 56, 127
2, 23800, Note_on_c, 1, 58, 127
2, 23800, Note_on_c, 1, 62, 127
2, 23800, Note_on_c, 1, 68, 127
2, 23800, Note_on_c, 1, 74, 127
2, 24120, Note_off_c, 1, 46, 0
2, 24120, Note_off_c, 1, 53, 0
2, 24120, Note_off_c, 1, 56, 0
2, 24120, Note_off_c, 1, 58, 0
2, 24120, Note_off_c, 1, 62, 0
2, 24120, Note_off_c, 1, 68, 0
2, 24120, Note_off_c, 1, 74, 0
2, 24160, Note_on_c, 1, 46, 127
2, 24160, Note_on_c, 1, 53, 127
2, 24160, Note_on_c, 1, 56, 127
2, 24160, Note_on_c, 1, 58, 127
2, 24160, Note_on_c, 1, 62, 127
2, 24160, Note_on_c, 1, 68, 127
2, 24160, Note_on_c, 1, 74, 127
2, 24480, Note_off_c, 1, 46, 0
2, 24480, Note_off_c, 1, 53, 0
2, 24480, Note_on_c, 1, 54, 127
2, 24480, Note_off_c, 1, 56, 0
2, 24480, Note_off_c, 1, 58, 0
2, 24480, Note_on_c, 1, 61, 127
2, 24480, Note_off_c, 1, 62, 0
2, 24480, Note_on_c, 1, 64, 127
2, 24480, Note_off_c, 1, 68, 0
2, 24480, Note_on_c, 1, 70, 127
2, 24480, Note_off_c, 1, 74, 0
2, 24480, Note_on_c, 1, 76, 127
2, 24520, Note_off_c, 1, 54, 0
2, 24520, Note_off_c, 1, 61, 0
2, 24520, Note_off_c, 1, 64, 0
2, 24520, Note_off_c, 1, 70, 0
2, 24520, Note_off_c, 1, 76, 0
2, 24600, Note_on_c, 1, 46, 127
2, 24600, Note_on_c, 1, 53, 127
2, 24600, Note_on_c, 1, 56, 127
2, 24600, Note_on_c, 1, 58, 127
2, 24600, Note_on_c, 1, 62, 127
2, 24600, Note_on_c, 1, 68, 127
2, 24600, Note_on_c, 1, 74, 127
2, 24920, Note_off_c, 1, 46, 0
2, 24920, Note_off_c, 1, 53, 0
2, 24920, Note_off_c, 1, 56, 0
2, 24920, Note_off_c, 1, 58, 0
2, 24920, Note_off_c, 1, 62, 0
2, 24920, Note_off_c, 1, 68, 0
2, 24920, Note_off_c, 1, 74, 0
2, 24960, Note_on_c, 1, 46, 127
2, 24960, Note_on_c, 1, 53, 127
2, 24960, Note_on_c, 1, 56, 127
2, 24960, Note_on_c, 1, 58, 127
2, 24960, Note_on_c, 1, 62, 127
2, 24960, Note_on_c, 1, 68, 127
2, 24960, Note_on_c, 1, 74, 127
2, 25280, Note_off_c, 1, 46, 0
2, 25280, Note_off_c, 1, 53, 0
2, 25280, Note_off_c, 1, 56, 0
2, 25280, Note_off_c, 1, 58, 0
2, 25280, Note_off_c, 1, 62, 0
2, 25280, Note_off_c, 1, 68, 0
2, 25280, Note_off_c, 1, 74, 0
2, 25320, Note_on_c, 1, 46, 127
2, 25320, Note_on_c, 1, 53, 127
2, 25320, Note_on_c, 1, 56, 127
2, 25320, Note_on_c, 1, 58, 127
2, 25320, Note_on_c, 1, 62, 127
2, 25320, Note_on_c, 1, 68, 127
2, 25320, Note_on_c, 1, 74, 127
2, 25640, Note_off_c, 1, 46, 0
2, 25640, Note_off_c, 1, 53, 0
2, 25640, Note_off_c, 1, 56, 0
2, 25640, Note_off_c, 1, 58, 0
2, 25640, Note_off_c, 1, 62, 0
2, 25640, Note_off_c, 1, 68, 0
2, 25640, Note_off_c, 1, 74, 0
2, 25680, Note_on_c, 1, 46, 127
2, 25680, Note_on_c, 1, 53, 127
2, 25680, Note_on_c, 1, 56, 127
2, 25680, Note_on_c, 1, 58, 127
2, 25680, Note_on_c, 1, 62, 127
2, 25680, Note_on_c, 1, 68, 127
2, 25680, Note_on_c, 1, 74, 127
2, 26000, Note_off_c, 1, 46, 0
2, 26000, Note_off_c, 1, 53, 0
2, 26000, Note_off_c, 1, 56, 0
2, 26000, Note_off_c, 1, 58, 0
2, 26000, Note_off_c, 1, 62, 0
2, 26000, Note_off_c, 1, 68, 0
2, 26000, Note_off_c, 1, 74, 0
2, 26040, Note_on_c, 1, 46, 127
2, 26040, Note_on_c, 1, 53, 127
2, 26040, Note_on_c, 1, 56, 127
2, 26040, Note_on_c, 1, 58, 127
2, 26040, Note_on_c, 1, 62, 127
2, 26040, Note_on_c, 1, 68, 127
2, 26040, Note_on_c, 1, 74, 127
2, 26360, Note_off_c, 1, 46, 0
2, 26360, Note_off_c, 1, 53, 0
2, 26360, Note_off_c, 1, 56, 0
2, 26360, Note_off_c, 1, 58, 0
2, 26360, Note_off_c, 1, 62, 0
2, 26360, Note_off_c, 1, 68, 0
2, 26360, Note_off_c, 1, 74, 0
2, 26400, Note_on_c, 1, 46, 127
2, 26400, Note_on_c, 1, 53, 127
2, 26400, Note_on_c, 1, 56, 127
2, 26400, Note_on_c, 1, 58, 127
2, 26400, Note_on_c, 1, 62, 127
2, 26400, Note_on_c, 1, 68, 127
2, 26400, Note_on_c, 1, 74, 127
2, 26760, Note_off_c, 1, 46, 0
2, 26760, Note_off_c, 1, 53, 0
2, 26760, Note_off_c, 1, 56, 0
2, 26760, Note_off_c, 1, 58, 0
2, 26760, Note_off_c, 1, 62, 0
2, 26760, Note_off_c, 1, 68, 0
2, 26760, Note_off_c, 1, 74, 0
2, 26840, Note_on_c, 1, 46, 127
2, 26840, Note_on_c, 1, 53, 127
2, 26840, Note_on_c, 1, 56, 127
2, 26840, Note_on_c, 1, 58, 127
2, 26840, Note_on_c, 1, 62, 127
2, 26840, Note_on_c, 1, 68, 127
2, 26840, Note_on_c, 1, 74, 127
2, 27160, Note_off_c, 1, 46, 0
2, 27160, Note_off_c, 1, 53, 0
2, 27160, Note_off_c, 1, 56, 0
2, 27160, Note_off_c, 1, 58, 0
2, 27160, Note_off_c, 1, 62, 0
2, 27160, Note_off_c, 1, 68, 0
2, 27160, Note_off_c, 1, 74, 0
2, 27200, Note_on_c, 1, 46, 127
2, 27200, Note_on_c, 1, 53, 127
2, 27200, Note_on_c, 1, 56, 127
2, 27200, Note_on_c, 1, 58, 127
2, 27200, Note_on_c, 1, 62, 127
2, 27200, Note_on_c, 1, 68, 127
2, 27200, Note_on_c, 1, 74, 127
2, 27520, Note_off_c, 1, 46, 0
2, 27520, Note_off_c, 1, 53, 0
2, 27520, Note_off_c, 1, 56, 0
2, 27520, Note_off_c, 1, 58, 0
2, 27520, Note_off_c, 1, 62, 0
2, 27520, Note_off_c, 1, 68, 0
2, 27520, Note_off_c, 1, 74, 0
2, 27560, Note_on_c, 1, 46, 127
2, 27560, Note_on_c, 1, 53, 127
2, 27560, Note_on_c, 1, 56, 127
2, 27560, Note_on_c, 1, 58, 127
2, 27560, Note_on_c, 1, 62, 127
2, 27560, Note_on_c, 1, 68, 127
2, 27560, Note_on_c, 1, 74, 127
2, 27880, Note_off_c, 1, 46, 0
2, 27880, Note_on_c, 1, 49, 127
2, 27880, Note_on_c, 1, 50, 127
2, 27880, Note_off_c, 1, 53, 0
2, 27880, Note_off_c, 1, 56, 0
2, 27880, Note_off_c, 1, 58, 0
2, 27880, Note_off_c, 1, 62, 0
2, 27880, Note_off_c, 1, 68, 0
2, 27880, Note_off_c, 1, 74, 0
2, 27920, Note_on_c, 1, 46, 127
2, 27920, Note_off_c, 1, 49, 0
2, 27920, Note_off_c, 1, 50, 0
2, 27920, Note_on_c, 1, 53, 127
2, 27920, Note_on_c, 1, 56, 127
2, 27920, Note_on_c, 1, 58, 127
2, 27920, Note_on_c, 1, 62, 127
2, 27920, Note_on_c, 1, 68, 127
2, 27920, Note_on_c, 1, 74, 127
2, 28240, Note_off_c, 1, 46, 0
2, 28240, Note_off_c, 1, 53, 0
2, 28240, Note_off_c, 1, 56, 0
2, 28240, Note_off_c, 1, 58, 0
2, 28240, Note_off_c, 1, 62, 0
2, 28240, Note_off_c, 1, 68, 0
2, 28240, Note_off_c, 1, 74, 0
2, 28280, Note_on_c, 1, 37, 127
2, 28280, Note_on_c, 1, 58, 127
2, 28280, Note_on_c, 1, 65, 127
2, 28280, Note_on_c, 1, 68, 127
2, 28600, Note_off_c, 1, 37, 0
2, 28640, Note_on_c, 1, 34, 127
2, 28640, Note_on_c, 1, 46, 127
2, 28640, Note_off_c, 1, 58, 0
2, 28640, Note_off_c, 1, 68, 0
2, 28640, Note_on_c, 1, 72, 127
2, 28640, Note_on_c, 1, 75, 127
2, 28640, Note_on_c, 1, 77, 127
2, 28840, Note_off_c, 1, 34, 0
2, 28840, Note_off_c, 1, 46, 0
2, 28840, Note_off_c, 1, 65, 0
2, 28840, Note_off_c, 1, 72, 0
2, 28840, Note_off_c, 1, 75, 0
2, 28840, Note_off_c, 1, 77, 0
2, 28880, Note_on_c, 1, 34, 127
2, 28880, Note_on_c, 1, 46, 127
2, 28880, Note_on_c, 1, 65, 127
2, 28880, Note_on_c, 1, 72, 127
2, 28880, Note_on_c, 1, 75, 127
2, 28880, Note_on_c, 1, 77, 127
2, 29000, Note_off_c, 1, 34, 0
2, 29000, Note_off_c, 1, 46, 0
2, 29000, Note_off_c, 1, 65, 0
2, 29000, Note_off_c, 1, 72, 0
2, 29000, Note_off_c, 1, 75, 0
2, 29000, Note_off_c, 1, 77, 0
2, 29040, Note_on_c, 1, 40, 127
2, 29040, Note_on_c, 1, 49, 127
2, 29040, Note_on_c, 1, 68, 127
2, 29040, Note_on_c, 1, 76, 127
2, 29080, Note_off_c, 1, 40, 0
2, 29080, Note_on_c, 1, 43, 127
2, 29080, Note_on_c, 1, 58, 127
2, 29080, Note_on_c, 1, 63, 127
2, 29080, Note_off_c, 1, 68, 0
2, 29080, Note_off_c, 1, 76, 0
2, 29120, Note_on_c, 1, 37, 127
2, 29120, Note_off_c, 1, 43, 0
2, 29120, Note_off_c, 1, 49, 0
2, 29120, Note_off_c, 1, 58, 0
2, 29120, Note_on_c, 1, 61, 127
2, 29120, Note_off_c, 1, 63, 0
2, 29120, Note_on_c, 1, 65, 127
2, 29120, Note_on_c, 1, 73, 127
2, 29160, Note_off_c, 1, 37, 0
2, 29160, Note_on_c, 1, 48, 127
2, 29160, Note_on_c, 1, 56, 127
2, 29160, Note_off_c, 1, 61, 0
2, 29160, Note_off_c, 1, 65, 0
2, 29160, Note_on_c, 1, 66, 127
2, 29160, Note_on_c, 1, 68, 127
2, 29160, Note_off_c, 1, 73, 0
2, 29160, Note_on_c, 1, 75, 127
2, 29200, Note_on_c, 1, 43, 127
2, 29200, Note_off_c, 1, 48, 0
2, 29200, Note_on_c, 1, 49, 127
2, 29200, Note_off_c, 1, 56, 0
2, 29200, Note_on_c, 1, 58, 127
2, 29200, Note_on_c, 1, 63, 127
2, 29200, Note_off_c, 1, 66, 0
2, 29200, Note_off_c, 1, 68, 0
2, 29200, Note_off_c, 1, 75, 0
2, 29360, Note_off_c, 1, 43, 0
2, 29360, Note_off_c, 1, 49, 0
2, 29360, Note_off_c, 1, 58, 0
2, 29360, Note_off_c, 1, 63, 0
2, 29400, Note_on_c, 1, 57, 127
2, 29400, Note_on_c, 1, 64, 127
2, 29400, Note_on_c, 1, 72, 127
2, 29720, Note_off_c, 1, 57, 0
2, 29720, Note_off_c, 1, 64, 0
2, 29720, Note_off_c, 1, 72, 0
2, 29760, Note_on_c, 1, 57, 127
2, 29760, Note_on_c, 1, 64, 127
2, 29760, Note_on_c, 1, 72, 127
2, 30080, Note_off_c, 1, 57, 0
2, 30080, Note_off_c, 1, 64, 0
2, 30080, Note_off_c, 1, 72, 0
2, 30120, Note_on_c, 1, 50, 127
2, 30120, Note_on_c, 1, 58, 127
2, 30120, Note_on_c, 1, 62, 127
2, 30120, Note_on_c, 1, 70, 127
2, 30120, Note_on_c, 1, 77, 127
2, 30120, Note_on_c, 1, 80, 127
2, 30120, Note_on_c, 1, 82, 127
2, 30160, Note_off_c, 1, 50, 0
2, 30160, Note_on_c, 1, 55, 127
2, 30160, Note_off_c, 1, 58, 0
2, 30160, Note_off_c, 1, 70, 0
2, 30160, Note_on_c, 1, 71, 127
2, 30160, Note_off_c, 1, 77, 0
2, 30160, Note_on_c, 1, 78, 127
2, 30160, Note_off_c, 1, 80, 0
2, 30160, Note_off_c, 1, 82, 0
2, 30160, Note_on_c, 1, 86, 127
2, 30200, Note_on_c, 1, 50, 127
2, 30200, Note_off_c, 1, 55, 0
2, 30200, Note_on_c, 1, 58, 127
2, 30200, Note_on_c, 1, 70, 127
2, 30200, Note_off_c, 1, 71, 0
2, 30200, Note_on_c, 1, 77, 127
2, 30200, Note_off_c, 1, 78, 0
2, 30200, Note_on_c, 1, 80, 127
2, 30200, Note_on_c, 1, 82, 127
2, 30200, Note_off_c, 1, 86, 0
2, 30440, Note_off_c, 1, 50, 0
2, 30440, Note_off_c, 1, 58, 0
2, 30440, Note_off_c, 1, 62, 0
2, 30440, Note_off_c, 1, 70, 0
2, 30440, Note_off_c, 1, 77, 0
2, 30440, Note_off_c, 1, 80, 0
2, 30440, Note_off_c, 1, 82, 0
2, 30480, Note_on_c, 1, 55, 127
2, 30480, Note_on_c, 1, 58, 127
2, 30480, Note_on_c, 1, 64, 127
2, 30480, Note_on_c, 1, 73, 127
2, 30760, Note_off_c, 1, 55, 0
2, 30760, Note_off_c, 1, 58, 0
2, 30760, Note_off_c, 1, 64, 0
2, 30760, Note_off_c, 1, 73, 0
2, 30800, Note_on_c, 1, 57, 127
2, 30800, Note_on_c, 1, 65, 127
2, 30800, Note_on_c, 1, 74, 127
2, 31160, Note_off_c, 1, 57, 0
2, 31160, Note_off_c, 1, 65, 0
2, 31160, Note_off_c, 1, 74, 0
2, 31200, Note_on_c, 1, 57, 127
2, 31200, Note_on_c, 1, 65, 127
2, 31200, Note_on_c, 1, 74, 127
2, 31520, Note_off_c, 1, 57, 0
2, 31520, Note_off_c, 1, 65, 0
2, 31520, Note_off_c, 1, 74, 0
2, 31560, Note_on_c, 1, 48, 127
2, 31560, Note_on_c, 1, 64, 127
2, 31560, Note_on_c, 1, 67, 127
2, 31560, Note_on_c, 1, 72, 127
2, 31560, Note_on_c, 1, 79, 127
2, 32600, Note_off_c, 1, 48, 0
2, 32600, Note_off_c, 1, 64, 0
2, 32600, Note_off_c, 1, 67, 0
2, 32600, Note_off_c, 1, 72, 0
2, 32600, Note_off_c, 1, 79, 0
2, 32640, Note_on_c, 1, 45, 127
2, 32640, Note_on_c, 1, 52, 127
2, 32640, Note_on_c, 1, 61, 127
2, 32640, Note_on_c, 1, 64, 127
2, 32640, Note_on_c, 1, 68, 127
2, 33080, Note_on_c, 1, 59, 127
2, 33160, Note_off_c, 1, 45, 0
2, 33160, Note_off_c, 1, 52, 0
2, 33160, Note_off_c, 1, 59, 0
2, 33160, Note_off_c, 1, 61, 0
2, 33160, Note_off_c, 1, 64, 0
2, 33160, Note_off_c, 1, 68, 0
2, 33200, Note_on_c, 1, 45, 127
2, 33200, Note_on_c, 1, 52, 127
2, 33200, Note_on_c, 1, 61, 127
2, 33200, Note_on_c, 1, 64, 127
2, 33200, Note_on_c, 1, 68, 127
2, 33360, Note_off_c, 1, 45, 0
2, 33360, Note_off_c, 1, 52, 0
2, 33360, Note_off_c, 1, 61, 0
2, 33360, Note_off_c, 1, 64, 0
2, 33360, Note_off_c, 1, 68, 0
2, 33400, Note_on_c, 1, 63, 127
2, 33400, Note_on_c, 1, 66, 127
2, 33400, Note_on_c, 1, 68, 127
2, 33400, Note_on_c, 1, 92, 127
2, 33440, Note_on_c, 1, 47, 127
2, 33440, Note_on_c, 1, 61, 127
2, 33440, Note_off_c, 1, 63, 0
2, 33440, Note_on_c, 1, 65, 127
2, 33440, Note_off_c, 1, 66, 0
2, 33440, Note_on_c, 1, 80, 127
2, 33440, Note_off_c, 1, 92, 0
2, 33480, Note_on_c, 1, 27, 127
2, 33480, Note_on_c, 1, 39, 127
2, 33480, Note_off_c, 1, 47, 0
2, 33480, Note_on_c, 1, 49, 127
2, 33480, Note_on_c, 1, 51, 127
2, 33480, Note_on_c, 1, 55, 127
2, 33480, Note_on_c, 1, 60, 127
2, 33480, Note_off_c, 1, 61, 0
2, 33480, Note_on_c, 1, 63, 127
2, 33480, Note_off_c, 1, 65, 0
2, 33480, Note_off_c, 1, 68, 0
2, 33480, Note_off_c, 1, 80, 0
2, 33520, Note_off_c, 1, 27, 0
2, 33520, Note_off_c, 1, 39, 0
2, 33520, Note_off_c, 1, 49, 0
2, 33520, Note_off_c, 1, 51, 0
2, 33520, Note_off_c, 1, 55, 0
2, 33520, Note_off_c, 1, 60, 0
2, 33520, Note_on_c, 1, 61, 127
2, 33520, Note_off_c, 1, 63, 0
2, 33520, Note_on_c, 1, 66, 127
2, 33520, Note_on_c, 1, 70, 127
2, 33520, Note_on_c, 1, 73, 127
2, 33520, Note_on_c, 1, 85, 127
2, 33560, Note_on_c, 1, 47, 127
2, 33560, Note_on_c, 1, 65, 127
2, 33560, Note_off_c, 1, 66, 0
2, 33560, Note_on_c, 1, 68, 127
2, 33560, Note_off_c, 1, 70, 0
2, 33560, Note_off_c, 1, 73, 0
2, 33560, Note_on_c, 1, 80, 127
2, 33560, Note_off_c, 1, 85, 0
2, 33720, Note_off_c, 1, 47, 0
2, 33720, Note_on_c, 1, 49, 127
2, 33720, Note_on_c, 1, 56, 127
2, 33720, Note_off_c, 1, 61, 0
2, 33720, Note_off_c, 1, 68, 0
2, 33720, Note_on_c, 1, 72, 127
2, 33720, Note_on_c, 1, 75, 127
2, 33720, Note_off_c, 1, 80, 0
2, 33760, Note_on_c, 1, 47, 127
2, 33760, Note_off_c, 1, 49, 0
2, 33760, Note_off_c, 1, 56, 0
2, 33760, Note_on_c, 1, 61, 127
2, 33760, Note_on_c, 1, 68, 127
2, 33760, Note_off_c, 1, 72, 0
2, 33760, Note_off_c, 1, 75, 0
2, 33760, Note_on_c, 1, 80, 127
2, 34080, Note_off_c, 1, 47, 0
2, 34080, Note_off_c, 1, 61, 0
2, 34080, Note_off_c, 1, 65, 0
2, 34080, Note_off_c, 1, 68, 0
2, 34080, Note_off_c, 1, 80, 0
2, 34120, Note_on_c, 1, 33, 127
2, 34120, Note_on_c, 1, 45, 127
2, 34120, Note_on_c, 1, 89, 127
2, 34120, Note_on_c, 1, 93, 127
2, 34120, Note_on_c, 1, 101, 127
2, 34160, Note_off_c, 1, 33, 0
2, 34160, Note_off_c, 1, 45, 0
2, 34160, Note_on_c, 1, 58, 127
2, 34160, Note_on_c, 1, 63, 127
2, 34160, Note_on_c, 1, 67, 127
2, 34160, Note_off_c, 1, 89, 0
2, 34160, Note_off_c, 1, 101, 0
2, 34200, Note_on_c, 1, 40, 127
2, 34200, Note_off_c, 1, 58, 0
2, 34200, Note_off_c, 1, 63, 0
2, 34200, Note_off_c, 1, 67, 0
2, 34200, Note_on_c, 1, 74, 127
2, 34200, Note_on_c, 1, 83, 127
2, 34200, Note_on_c, 1, 86, 127
2, 34200, Note_off_c, 1, 93, 0
2, 34240, Note_off_c, 1, 40, 0
2, 34240, Note_on_c, 1, 55, 127
2, 34240, Note_off_c, 1, 74, 0
2, 34240, Note_on_c, 1, 79, 127
2, 34240, Note_off_c, 1, 83, 0
2, 34240, Note_off_c, 1, 86, 0
2, 34240, Note_on_c, 1, 90, 127
2, 34240, Note_on_c, 1, 91, 127
2, 34280, Note_on_c, 1, 53, 127
2, 34280, Note_off_c, 1, 55, 0
2, 34280, Note_on_c, 1, 56, 127
2, 34280, Note_on_c, 1, 59, 127
2, 34280, Note_on_c, 1, 62, 127
2, 34280, Note_off_c, 1, 79, 0
2, 34280, Note_off_c, 1, 90, 0
2, 34280, Note_off_c, 1, 91, 0
2, 34280, Note_on_c, 1, 95, 127
2, 34320, Note_on_c, 1, 41, 127
2, 34320, Note_off_c, 1, 53, 0
2, 34320, Note_off_c, 1, 56, 0
2, 34320, Note_off_c, 1, 59, 0
2, 34320, Note_off_c, 1, 62, 0
2, 34320, Note_on_c, 1, 74, 127
2, 34320, Note_on_c, 1, 77, 127
2, 34320, Note_on_c, 1, 80, 127
2, 34320, Note_on_c, 1, 83, 127
2, 34320, Note_on_c, 1, 86, 127
2, 34320, Note_off_c, 1, 95, 0
2, 34360, Note_off_c, 1, 41, 0
2, 34360, Note_on_c, 1, 46, 127
2, 34360, Note_on_c, 1, 58, 127
2, 34360, Note_off_c, 1, 74, 0
2, 34360, Note_off_c, 1, 77, 0
2, 34360, Note_off_c, 1, 80, 0
2, 34360, Note_off_c, 1, 83, 0
2, 34360, Note_on_c, 1, 84, 127
2, 34360, Note_off_c, 1, 86, 0
2, 34400, Note_on_c, 1, 51, 127
2, 34400, Note_on_c, 1, 55, 127
2, 34400, Note_off_c, 1, 58, 0
2, 34400, Note_on_c, 1, 61, 127
2, 34400, Note_on_c, 1, 70, 127
2, 34400, Note_off_c, 1, 84, 0
2, 34440, Note_on_c, 1, 34, 127
2, 34440, Note_off_c, 1, 46, 0
2, 34440, Note_off_c, 1, 51, 0
2, 34440, Note_off_c, 1, 55, 0
2, 34440, Note_off_c, 1, 61, 0
2, 34440, Note_off_c, 1, 70, 0
2, 34480, Note_off_c, 1, 34, 0
2, 34480, Note_on_c, 1, 47, 127
2, 34480, Note_on_c, 1, 77, 127
2, 34480, Note_on_c, 1, 91, 127
2, 34520, Note_on_c, 1, 35, 127
2, 34520, Note_off_c, 1, 47, 0
2, 34520, Note_on_c, 1, 54, 127
2, 34520, Note_on_c, 1, 59, 127
2, 34520, Note_on_c, 1, 64, 127
2, 34520, Note_on_c, 1, 68, 127
2, 34520, Note_on_c, 1, 71, 127
2, 34520, Note_off_c, 1, 77, 0
2, 34520, Note_off_c, 1, 91, 0
2, 34560, Note_off_c, 1, 35, 0
2, 34560, Note_on_c, 1, 44, 127
2, 34560, Note_on_c, 1, 48, 127
2, 34560, Note_off_c, 1, 54, 0
2, 34560, Note_off_c, 1, 59, 0
2, 34560, Note_off_c, 1, 64, 0
2, 34560, Note_off_c, 1, 68, 0
2, 34560, Note_off_c, 1, 71, 0
2, 34560, Note_on_c, 1, 72, 127
2, 34560, Note_on_c, 1, 74, 127
2, 34560, Note_on_c, 1, 84, 127
2, 34600, Note_off_c, 1, 48, 0
2, 34600, Note_on_c, 1, 56, 127
2, 34600, Note_on_c, 1, 70, 127
2, 34600, Note_off_c, 1, 72, 0
2, 34600, Note_on_c, 1, 73, 127
2, 34600, Note_off_c, 1, 74, 0
2, 34600, Note_on_c, 1, 77, 127
2, 34600, Note_off_c, 1, 84, 0
2, 34640, Note_off_c, 1, 44, 0
2, 34640, Note_off_c, 1, 56, 0
2, 34640, Note_on_c, 1, 64, 127
2, 34640, Note_on_c, 1, 69, 127
2, 34640, Note_off_c, 1, 70, 0
2, 34640, Note_on_c, 1, 72, 127
2, 34640, Note_off_c, 1, 73, 0
2, 34640, Note_on_c, 1, 84, 127
2, 34680, Note_on_c, 1, 52, 127
2, 34680, Note_on_c, 1, 60, 127
2, 34680, Note_off_c, 1, 64, 0
2, 34680, Note_on_c, 1, 67, 127
2, 34680, Note_off_c, 1, 69, 0
2, 34680, Note_off_c, 1, 77, 0
2, 34680, Note_on_c, 1, 82, 127
2, 34680, Note_off_c, 1, 84, 0
2, 34680, Note_on_c, 1, 91, 127
2, 34680, Note_on_c, 1, 94, 127
2, 34720, Note_off_c, 1, 52, 0
2, 34720, Note_off_c, 1, 60, 0
2, 34720, Note_off_c, 1, 67, 0
2, 34720, Note_on_c, 1, 80, 127
2, 34720, Note_off_c, 1, 82, 0
2, 34720, Note_on_c, 1, 84, 127
2, 34720, Note_on_c, 1, 87, 127
2, 34720, Note_off_c, 1, 91, 0
2, 34720, Note_on_c, 1, 92, 127
2, 34720, Note_off_c, 1, 94, 0
2, 34760, Note_on_c, 1, 50, 127
2, 34760, Note_on_c, 1, 62, 127
2, 34760, Note_off_c, 1, 72, 0
2, 34760, Note_off_c, 1, 84, 0
2, 34760, Note_off_c, 1, 87, 0
2, 34760, Note_off_c, 1, 92, 0
2, 34800, Note_off_c, 1, 50, 0
2, 34800, Note_off_c, 1, 62, 0
2, 34800, Note_off_c, 1, 80, 0
2, 34840, Note_on_c, 1, 45, 127
2, 34840, Note_on_c, 1, 57, 127
2, 34840, Note_on_c, 1, 73, 127
2, 34840, Note_on_c, 1, 79, 127
2, 35080, Note_off_c, 1, 45, 0
2, 35080, Note_on_c, 1, 48, 127
2, 35080, Note_on_c, 1, 50, 127
2, 35080, Note_on_c, 1, 54, 127
2, 35080, Note_off_c, 1, 57, 0
2, 35080, Note_on_c, 1, 60, 127
2, 35080, Note_on_c, 1, 72, 127
2, 35080, Note_off_c, 1, 73, 0
2, 35080, Note_on_c, 1, 74, 127
2, 35080, Note_on_c, 1, 78, 127
2, 35080, Note_off_c, 1, 79, 0
2, 35080, Note_on_c, 1, 84, 127
2, 35120, Note_on_c, 1, 45, 127
2, 35120, Note_off_c, 1, 48, 0
2, 35120, Note_off_c, 1, 50, 0
2, 35120, Note_off_c, 1, 54, 0
2, 35120, Note_on_c, 1, 57, 127
2, 35120, Note_off_c, 1, 60, 0
2, 35120, Note_off_c, 1, 72, 0
2, 35120, Note_on_c, 1, 73, 127
2, 35120, Note_off_c, 1, 74, 0
2, 35120, Note_off_c, 1, 78, 0
2, 35120, Note_on_c, 1, 79, 127
2, 35120, Note_off_c, 1, 84, 0
2, 35200, Note_off_c, 1, 45, 0
2, 35200, Note_off_c, 1, 57, 0
2, 35200, Note_off_c, 1, 73, 0
2, 35200, Note_off_c, 1, 79, 0
2, 35240, Note_on_c, 1, 45, 127
2, 35240, Note_on_c, 1, 57, 127
2, 35240, Note_on_c, 1, 73, 127
2, 35240, Note_on_c, 1, 79, 127
2, 35520, Note_off_c, 1, 45, 0
2, 35520, Note_off_c, 1, 57, 0
2, 35520, Note_off_c, 1, 73, 0
2, 35520, Note_off_c, 1, 79, 0
2, 35560, Note_on_c, 1, 50, 127
2, 35560, Note_on_c, 1, 59, 127
2, 35560, Note_on_c, 1, 62, 127
2, 35560, Note_on_c, 1, 66, 127
2, 35560, Note_on_c, 1, 71, 127
2, 35560, Note_on_c, 1, 74, 127
2, 35880, Note_off_c, 1, 50, 0
2, 35880, Note_off_c, 1, 59, 0
2, 35880, Note_off_c, 1, 62, 0
2, 35880, Note_off_c, 1, 66, 0
2, 35880, Note_off_c, 1, 71, 0
2, 35880, Note_off_c, 1, 74, 0
2, 35920, Note_on_c, 1, 50, 127
2, 35920, Note_on_c, 1, 59, 127
2, 35920, Note_on_c, 1, 62, 127
2, 35920, Note_on_c, 1, 66, 127
2, 35920, Note_on_c, 1, 71, 127
2, 35920, Note_on_c, 1, 74, 127
2, 36240, Note_off_c, 1, 50, 0
2, 36240, Note_off_c, 1, 59, 0
2, 36240, Note_off_c, 1, 62, 0
2, 36240, Note_off_c, 1, 66, 0
2, 36240, Note_off_c, 1, 71, 0
2, 36240, Note_off_c, 1, 74, 0
2, 36280, Note_on_c, 1, 43, 127
2, 36280, Note_on_c, 1, 53, 127
2, 36280, Note_on_c, 1, 55, 127
2, 36280, Note_on_c, 1, 62, 127
2, 36280, Note_on_c, 1, 67, 127
2, 36280, Note_on_c, 1, 71, 127
2, 36560, Note_off_c, 1, 43, 0
2, 36560, Note_off_c, 1, 53, 0
2, 36560, Note_off_c, 1, 55, 0
2, 36560, Note_off_c, 1, 62, 0
2, 36560, Note_off_c, 1, 67, 0
2, 36560, Note_off_c, 1, 71, 0
2, 36600, Note_on_c, 1, 61, 127
2, 36600, Note_on_c, 1, 68, 127
2, 36600, Note_on_c, 1, 77, 127
2, 36600, Note_on_c, 1, 84, 127
2, 36920, Note_off_c, 1, 61, 0
2, 36920, Note_off_c, 1, 68, 0
2, 36920, Note_off_c, 1, 77, 0
2, 36920, Note_off_c, 1, 84, 0
2, 36960, Note_on_c, 1, 32, 127
2, 36960, Note_on_c, 1, 38, 127
2, 36960, Note_on_c, 1, 44, 127
2, 36960, Note_on_c, 1, 71, 127
2, 37000, Note_off_c, 1, 32, 0
2, 37000, Note_off_c, 1, 38, 0
2, 37000, Note_off_c, 1, 44, 0
2, 37000, Note_on_c, 1, 52, 127
2, 37000, Note_on_c, 1, 54, 127
2, 37000, Note_on_c, 1, 69, 127
2, 37000, Note_off_c, 1, 71, 0
2, 37000, Note_on_c, 1, 80, 127
2, 37040, Note_off_c, 1, 52, 0
2, 37040, Note_off_c, 1, 54, 0
2, 37040, Note_off_c, 1, 69, 0
2, 37040, Note_on_c, 1, 70, 127
2, 37040, Note_on_c, 1, 72, 127
2, 37040, Note_on_c, 1, 78, 127
2, 37040, Note_off_c, 1, 80, 0
2, 37040, Note_on_c, 1, 87, 127
2, 37040, Note_on_c, 1, 89, 127
2, 37040, Note_on_c, 1, 93, 127
2, 37080, Note_off_c, 1, 70, 0
2, 37080, Note_off_c, 1, 72, 0
2, 37080, Note_off_c, 1, 78, 0
2, 37080, Note_off_c, 1, 87, 0
2, 37080, Note_off_c, 1, 89, 0
2, 37080, Note_off_c, 1, 93, 0
2, 37120, Note_on_c, 1, 39, 127
2, 37120, Note_on_c, 1, 80, 127
2, 37120, Note_on_c, 1, 86, 127
2, 37160, Note_off_c, 1, 39, 0
2, 37160, Note_on_c, 1, 46, 127
2, 37160, Note_on_c, 1, 56, 127
2, 37160, Note_on_c, 1, 64, 127
2, 37160, Note_on_c, 1, 68, 127
2, 37160, Note_off_c, 1, 80, 0
2, 37160, Note_off_c, 1, 86, 0
2, 37200, Note_off_c, 1, 46, 0
2, 37200, Note_on_c, 1, 52, 127
2, 37200, Note_on_c, 1, 54, 127
2, 37200, Note_off_c, 1, 56, 0
2, 37200, Note_off_c, 1, 64, 0
2, 37200, Note_off_c, 1, 68, 0
2, 37200, Note_on_c, 1, 69, 127
2, 37200, Note_on_c, 1, 80, 127
2, 37240, Note_on_c, 1, 46, 127
2, 37240, Note_off_c, 1, 52, 0
2, 37240, Note_off_c, 1, 54, 0
2, 37240, Note_on_c, 1, 58, 127
2, 37240, Note_off_c, 1, 69, 0
2, 37240, Note_off_c, 1, 80, 0
2, 37240, Note_on_c, 1, 83, 127
2, 37240, Note_on_c, 1, 88, 127
2, 37240, Note_on_c, 1, 95, 127
2, 37280, Note_off_c, 1, 46, 0
2, 37280, Note_off_c, 1, 58, 0
2, 37280, Note_off_c, 1, 83, 0
2, 37280, Note_off_c, 1, 88, 0
2, 37280, Note_off_c, 1, 95, 0
2, 37320, Note_on_c, 1, 58, 127
2, 37320, Note_on_c, 1, 61, 127
2, 37320, Note_on_c, 1, 66, 127
2, 37320, Note_on_c, 1, 70, 127
2, 37320, Note_on_c, 1, 73, 127
2, 37320, Note_on_c, 1, 78, 127
2, 37320, Note_on_c, 1, 82, 127
2, 37320, Note_on_c, 1, 85, 127
2, 37640, Note_off_c, 1, 58, 0
2, 37640, Note_off_c, 1, 61, 0
2, 37640, Note_off_c, 1, 66, 0
2, 37640, Note_off_c, 1, 70, 0
2, 37640, Note_off_c, 1, 73, 0
2, 37640, Note_off_c, 1, 78, 0
2, 37640, Note_off_c, 1, 82, 0
2, 37640, Note_off_c, 1, 85, 0
2, 37680, Note_on_c, 1, 53, 127
2, 37680, Note_on_c, 1, 72, 127
2, 37680, Note_on_c, 1, 77, 127
2, 37680, Note_on_c, 1, 82, 127
2, 37960, Note_off_c, 1, 53, 0
2, 37960, Note_off_c, 1, 72, 0
2, 37960, Note_off_c, 1, 77, 0
2, 37960, Note_off_c, 1, 82, 0
2, 38000, Note_on_c, 1, 48, 127
2, 38000, Note_on_c, 1, 55, 127
2, 38000, Note_on_c, 1, 58, 127
2, 38000, Note_on_c, 1, 70, 127
2, 38000, Note_on_c, 1, 74, 127
2, 38000, Note_on_c, 1, 77, 127
2, 38040, Note_off_c, 1, 48, 0
2, 38040, Note_on_c, 1, 52, 127
2, 38040, Note_on_c, 1, 54, 127
2, 38040, Note_off_c, 1, 55, 0
2, 38040, Note_on_c, 1, 57, 127
2, 38040, Note_off_c, 1, 58, 0
2, 38040, Note_on_c, 1, 64, 127
2, 38040, Note_off_c, 1, 70, 0
2, 38040, Note_off_c, 1, 74, 0
2, 38040, Note_on_c, 1, 76, 127
2, 38040, Note_off_c, 1, 77, 0
2, 38040, Note_on_c, 1, 88, 127
2, 38080, Note_on_c, 1, 49, 127
2, 38080, Note_off_c, 1, 52, 0
2, 38080, Note_off_c, 1, 54, 0
2, 38080, Note_off_c, 1, 57, 0
2, 38080, Note_off_c, 1, 64, 0
2, 38080, Note_on_c, 1, 75, 127
2, 38080, Note_off_c, 1, 76, 0
2, 38080, Note_on_c, 1, 78, 127
2, 38080, Note_on_c, 1, 87, 127
2, 38080, Note_off_c, 1, 88, 0
2, 38120, Note_on_c, 1, 45, 127
2, 38120, Note_off_c, 1, 49, 0
2, 38120, Note_on_c, 1, 56, 127
2, 38120, Note_on_c, 1, 61, 127
2, 38120, Note_off_c, 1, 75, 0
2, 38120, Note_on_c, 1, 76, 127
2, 38120, Note_off_c, 1, 78, 0
2, 38120, Note_on_c, 1, 83, 127
2, 38120, Note_off_c, 1, 87, 0
2, 38120, Note_on_c, 1, 88, 127
2, 38160, Note_off_c, 1, 45, 0
2, 38160, Note_on_c, 1, 49, 127
2, 38160, Note_on_c, 1, 54, 127
2, 38160, Note_on_c, 1, 60, 127
2, 38160, Note_off_c, 1, 61, 0
2, 38160, Note_off_c, 1, 76, 0
2, 38160, Note_on_c, 1, 80, 127
2, 38160, Note_off_c, 1, 83, 0
2, 38160, Note_off_c, 1, 88, 0
2, 38200, Note_off_c, 1, 49, 0
2, 38200, Note_off_c, 1, 54, 0
2, 38200, Note_on_c, 1, 55, 127
2, 38200, Note_off_c, 1, 56, 0
2, 38200, Note_off_c, 1, 60, 0
2, 38200, Note_on_c, 1, 76, 127
2, 38200, Note_on_c, 1, 79, 127
2, 38200, Note_off_c, 1, 80, 0
2, 38200, Note_on_c, 1, 88, 127
2, 38280, Note_on_c, 1, 40, 127
2, 38280, Note_on_c, 1, 43, 127
2, 38280, Note_on_c, 1, 52, 127
2, 38280, Note_off_c, 1, 55, 0
2, 38280, Note_on_c, 1, 67, 127
2, 38280, Note_off_c, 1, 76, 0
2, 38280, Note_off_c, 1, 79, 0
2, 38280, Note_off_c, 1, 88, 0
2, 38320, Note_off_c, 1, 40, 0
2, 38320, Note_off_c, 1, 43, 0
2, 38320, Note_off_c, 1, 52, 0
2, 38320, Note_off_c, 1, 67, 0
2, 38360, Note_on_c, 1, 55, 127
2, 38360, Note_on_c, 1, 63, 127
2, 38360, Note_on_c, 1, 66, 127
2, 38360, Note_on_c, 1, 87, 127
2, 38360, Note_on_c, 1, 90, 127
2, 38400, Note_on_c, 1, 52, 127
2, 38400, Note_off_c, 1, 55, 0
2, 38400, Note_off_c, 1, 63, 0
2, 38400, Note_on_c, 1, 64, 127
2, 38400, Note_off_c, 1, 66, 0
2, 38400, Note_off_c, 1, 87, 0
2, 38440, Note_off_c, 1, 52, 0
2, 38440, Note_off_c, 1, 64, 0
2, 38440, Note_on_c, 1, 66, 127
2, 38440, Note_on_c, 1, 70, 127
2, 38440, Note_on_c, 1, 73, 127
2, 38440, Note_on_c, 1, 76, 127
2, 38440, Note_on_c, 1, 82, 127
2, 38440, Note_on_c, 1, 85, 127
2, 38440, Note_off_c, 1, 90, 0
2, 38480, Note_on_c, 1, 61, 127
2, 38480, Note_off_c, 1, 66, 0
2, 38480, Note_off_c, 1, 70, 0
2, 38480, Note_on_c, 1, 75, 127
2, 38480, Note_off_c, 1, 76, 0
2, 38480, Note_on_c, 1, 80, 127
2, 38480, Note_off_c, 1, 82, 0
2, 38480, Note_off_c, 1, 85, 0
2, 38520, Note_on_c, 1, 52, 127
2, 38520, Note_on_c, 1, 55, 127
2, 38520, Note_on_c, 1, 59, 127
2, 38520, Note_off_c, 1, 61, 0
2, 38520, Note_on_c, 1, 64, 127
2, 38520, Note_off_c, 1, 73, 0
2, 38520, Note_off_c, 1, 75, 0
2, 38520, Note_on_c, 1, 78, 127
2, 38520, Note_off_c, 1, 80, 0
2, 38560, Note_off_c, 1, 52, 0
2, 38560, Note_off_c, 1, 55, 0
2, 38560, Note_off_c, 1, 59, 0
2, 38560, Note_off_c, 1, 64, 0
2, 38560, Note_on_c, 1, 65, 127
2, 38560, Note_on_c, 1, 67, 127
2, 38560, Note_on_c, 1, 70, 127
2, 38560, Note_on_c, 1, 73, 127
2, 38560, Note_off_c, 1, 78, 0
2, 38560, Note_on_c, 1, 84, 127
2, 38600, Note_on_c, 1, 42, 127
2, 38600, Note_off_c, 1, 65, 0
2, 38600, Note_off_c, 1, 67, 0
2, 38600, Note_off_c, 1, 70, 0
2, 38600, Note_on_c, 1, 78, 127
2, 38640, Note_off_c, 1, 42, 0
2, 38640, Note_off_c, 1, 73, 0
2, 38640, Note_off_c, 1, 78, 0
2, 38640, Note_off_c, 1, 84, 0
2, 38680, Note_on_c, 1, 35, 127
2, 38680, Note_on_c, 1, 38, 127
2, 38680, Note_on_c, 1, 47, 127
2, 38680, Note_on_c, 1, 76, 127
2, 38680, Note_on_c, 1, 79, 127
2, 38680, Note_on_c, 1, 85, 127
2, 38680, Note_on_c, 1, 86, 127
2, 38720, Note_off_c, 1, 35, 0
2, 38720, Note_on_c, 1, 37, 127
2, 38720, Note_off_c, 1, 38, 0
2, 38720, Note_on_c, 1, 44, 127
2, 38720, Note_off_c, 1, 47, 0
2, 38720, Note_on_c, 1, 65, 127
2, 38720, Note_on_c, 1, 71, 127
2, 38720, Note_off_c, 1, 76, 0
2, 38720, Note_off_c, 1, 79, 0
2, 38720, Note_off_c, 1, 85, 0
2, 38720, Note_off_c, 1, 86, 0
2, 38760, Note_off_c, 1, 37, 0
2, 38760, Note_off_c, 1, 44, 0
2, 38760, Note_off_c, 1, 65, 0
2, 38760, Note_on_c, 1, 68, 127
2, 38760, Note_off_c, 1, 71, 0
2, 38760, Note_on_c, 1, 75, 127
2, 38760, Note_on_c, 1, 83, 127
2, 38760, Note_on_c, 1, 92, 127
2, 38800, Note_on_c, 1, 37, 127
2, 38800, Note_on_c, 1, 44, 127
2, 38800, Note_on_c, 1, 65, 127
2, 38800, Note_off_c, 1, 68, 0
2, 38800, Note_on_c, 1, 71, 127
2, 38800, Note_off_c, 1, 75, 0
2, 38800, Note_off_c, 1, 83, 0
2, 38800, Note_off_c, 1, 92, 0
2, 38840, Note_off_c, 1, 37, 0
2, 38840, Note_off_c, 1, 44, 0
2, 38840, Note_on_c, 1, 61, 127
2, 38840, Note_off_c, 1, 65, 0
2, 38840, Note_off_c, 1, 71, 0
2, 38840, Note_on_c, 1, 81, 127
2, 38840, Note_on_c, 1, 85, 127
2, 38840, Note_on_c, 1, 88, 127
2, 38840, Note_on_c, 1, 93, 127
2, 38880, Note_on_c, 1, 47, 127
2, 38880, Note_on_c, 1, 51, 127
2, 38880, Note_off_c, 1, 61, 0
2, 38880, Note_on_c, 1, 63, 127
2, 38880, Note_on_c, 1, 69, 127
2, 38880, Note_on_c, 1, 71, 127
2, 38880, Note_on_c, 1, 78, 127
2, 38880, Note_off_c, 1, 85, 0
2, 38880, Note_off_c, 1, 88, 0
2, 38880, Note_off_c, 1, 93, 0
2, 38920, Note_on_c, 1, 33, 127
2, 38920, Note_on_c, 1, 37, 127
2, 38920, Note_on_c, 1, 45, 127
2, 38920, Note_off_c, 1, 47, 0
2, 38920, Note_off_c, 1, 51, 0
2, 38920, Note_on_c, 1, 54, 127
2, 38920, Note_off_c, 1, 63, 0
2, 38920, Note_off_c, 1, 69, 0
2, 38920, Note_off_c, 1, 71, 0
2, 38920, Note_off_c, 1, 78, 0
2, 38920, Note_off_c, 1, 81, 0
2, 38960, Note_off_c, 1, 33, 0
2, 38960, Note_off_c, 1, 37, 0
2, 38960, Note_off_c, 1, 45, 0
2, 38960, Note_off_c, 1, 54, 0
2, 38960, Note_on_c, 1, 61, 127
2, 38960, Note_on_c, 1, 65, 127
2, 38960, Note_on_c, 1, 68, 127
2, 38960, Note_on_c, 1, 80, 127
2, 38960, Note_on_c, 1, 85, 127
2, 38960, Note_on_c, 1, 92, 127
2, 39000, Note_off_c, 1, 61, 0
2, 39000, Note_off_c, 1, 65, 0
2, 39000, Note_off_c, 1, 68, 0
2, 39000, Note_off_c, 1, 80, 0
2, 39000, Note_off_c, 1, 85, 0
2, 39000, Note_off_c, 1, 92, 0
2, 39040, Note_on_c, 1, 38, 127
2, 39040, Note_on_c, 1, 67, 127
2, 39040, Note_on_c, 1, 71, 127
2, 39040, Note_on_c, 1, 74, 127
2, 39400, Note_off_c, 1, 38, 0
2, 39400, Note_off_c, 1, 67, 0
2, 39400, Note_off_c, 1, 71, 0
2, 39400, Note_off_c, 1, 74, 0
2, 39440, Note_on_c, 1, 38, 127
2, 39440, Note_on_c, 1, 67, 127
2, 39440, Note_on_c, 1, 71, 127
2, 39440, Note_on_c, 1, 74, 127
2, 39720, Note_off_c, 1, 38, 0
2, 39720, Note_off_c, 1, 67, 0
2, 39720, Note_off_c, 1, 71, 0
2, 39720, Note_off_c, 1, 74, 0
2, 39760, Note_on_c, 1, 62, 127
2, 39760, Note_on_c, 1, 71, 127
2, 39760, Note_on_c, 1, 74, 127
2, 39760, Note_on_c, 1, 86, 127
2, 40080, Note_off_c, 1, 71, 0
2, 40080, Note_off_c, 1, 86, 0
2, 40120, Note_on_c, 1, 71, 127
2, 40120, Note_on_c, 1, 86, 127
2, 40240, Note_on_c, 1, 67, 127
2, 40240, Note_off_c, 1, 71, 0
2, 40240, Note_on_c, 1, 83, 127
2, 40240, Note_off_c, 1, 86, 0
2, 40280, Note_off_c, 1, 67, 0
2, 40280, Note_on_c, 1, 71, 127
2, 40280, Note_off_c, 1, 83, 0
2, 40280, Note_on_c, 1, 86, 127
2, 40400, Note_off_c, 1, 71, 0
2, 40400, Note_off_c, 1, 86, 0
2, 40440, Note_on_c, 1, 71, 127
2, 40440, Note_on_c, 1, 86, 127
2, 40560, Note_off_c, 1, 71, 0
2, 40560, Note_off_c, 1, 86, 0
2, 40600, Note_on_c, 1, 67, 127
2, 40600, Note_on_c, 1, 83, 127
2, 40760, Note_off_c, 1, 67, 0
2, 40760, Note_off_c, 1, 83, 0
2, 40800, Note_on_c, 1, 67, 127
2, 40800, Note_on_c, 1, 83, 127
2, 40920, Note_off_c, 1, 67, 0
2, 40920, Note_off_c, 1, 83, 0
2, 40960, Note_on_c, 1, 67, 127
2, 40960, Note_on_c, 1, 83, 127
2, 41080, Note_off_c, 1, 67, 0
2, 41080, Note_off_c, 1, 83, 0
2, 41120, Note_on_c, 1, 67, 127
2, 41120, Note_on_c, 1, 83, 127
2, 41360, Note_off_c, 1, 67, 0
2, 41360, Note_off_c, 1, 83, 0
2, 41400, Note_on_c, 1, 67, 127
2, 41400, Note_on_c, 1, 83, 127
2, 41440, Note_off_c, 1, 62, 0
2, 41440, Note_off_c, 1, 67, 0
2, 41440, Note_off_c, 1, 83, 0
2, 41480, Note_on_c, 1, 54, 127
2, 41480, Note_on_c, 1, 62, 127
2, 41480, Note_on_c, 1, 69, 127
2, 41480, Note_on_c, 1, 72, 127
2, 41600, Note_off_c, 1, 54, 0
2, 41600, Note_off_c, 1, 62, 0
2, 41600, Note_off_c, 1, 69, 0
2, 41600, Note_off_c, 1, 72, 0
2, 41600, Note_off_c, 1, 74, 0
2, 41640, Note_on_c, 1, 57, 127
2, 41640, Note_on_c, 1, 63, 127
2, 41640, Note_on_c, 1, 69, 127
2, 41640, Note_on_c, 1, 72, 127
2, 41640, Note_on_c, 1, 75, 127
2, 41680, Note_on_c, 1, 54, 127
2, 41680, Note_off_c, 1, 57, 0
2, 41680, Note_on_c, 1, 62, 127
2, 41680, Note_off_c, 1, 63, 0
2, 41680, Note_on_c, 1, 74, 127
2, 41680, Note_off_c, 1, 75, 0
2, 41800, Note_off_c, 1, 54, 0
2, 41800, Note_on_c, 1, 60, 127
2, 41800, Note_off_c, 1, 62, 0
2, 41800, Note_off_c, 1, 69, 0
2, 41800, Note_off_c, 1, 74, 0
2, 41840, Note_on_c, 1, 43, 127
2, 41840, Note_on_c, 1, 55, 127
2, 41840, Note_off_c, 1, 60, 0
2, 41840, Note_off_c, 1, 72, 0
2, 41840, Note_on_c, 1, 77, 127
2, 41840, Note_on_c, 1, 79, 127
2, 41840, Note_on_c, 1, 83, 127
2, 41840, Note_on_c, 1, 86, 127
2, 42160, Note_off_c, 1, 43, 0
2, 42160, Note_off_c, 1, 55, 0
2, 42160, Note_off_c, 1, 77, 0
2, 42160, Note_off_c, 1, 79, 0
2, 42160, Note_off_c, 1, 83, 0
2, 42160, Note_off_c, 1, 86, 0
2, 42200, Note_on_c, 1, 30, 127
2, 42200, Note_on_c, 1, 42, 127
2, 42200, Note_on_c, 1, 57, 127
2, 42200, Note_on_c, 1, 61, 127
2, 42200, Note_on_c, 1, 69, 127
2, 43200, Note_off_c, 1, 30, 0
2, 43200, Note_off_c, 1, 42, 0
2, 43200, Note_off_c, 1, 57, 0
2, 43200, Note_off_c, 1, 61, 0
2, 43200, Note_off_c, 1, 69, 0
2, 43560, Note_on_c, 1, 49, 127
2, 43560, Note_on_c, 1, 57, 127
2, 43560, Note_on_c, 1, 61, 127
2, 43560, Note_on_c, 1, 64, 127
2, 43560, Note_on_c, 1, 69, 127
2, 43560, Note_on_c, 1, 76, 127
2, 43760, Note_off_c, 1, 49, 0
2, 43760, Note_off_c, 1, 57, 0
2, 43760, Note_off_c, 1, 61, 0
2, 43760, Note_off_c, 1, 64, 0
2, 43760, Note_off_c, 1, 69, 0
2, 43760, Note_off_c, 1, 76, 0
2, 43800, Note_on_c, 1, 49, 127
2, 43800, Note_on_c, 1, 57, 127
2, 43800, Note_on_c, 1, 61, 127
2, 43800, Note_on_c, 1, 64, 127
2, 43800, Note_on_c, 1, 69, 127
2, 43800, Note_on_c, 1, 76, 127
2, 44280, Note_off_c, 1, 49, 0
2, 44280, Note_off_c, 1, 57, 0
2, 44280, Note_off_c, 1, 61, 0
2, 44280, Note_off_c, 1, 64, 0
2, 44280, Note_off_c, 1, 69, 0
2, 44280, Note_off_c, 1, 76, 0
2, 44320, Note_on_c, 1, 49, 127
2, 44320, Note_on_c, 1, 57, 127
2, 44320, Note_on_c, 1, 61, 127
2, 44320, Note_on_c, 1, 64, 127
2, 44320, Note_on_c, 1, 69, 127
2, 44320, Note_on_c, 1, 76, 127
2, 44800, Note_off_c, 1, 49, 0
2, 44800, Note_off_c, 1, 57, 0
2, 44800, Note_off_c, 1, 61, 0
2, 44800, Note_off_c, 1, 64, 0
2, 44800, Note_off_c, 1, 69, 0
2, 44800, Note_off_c, 1, 76, 0
2, 44840, Note_on_c, 1, 50, 127
2, 44840, Note_on_c, 1, 57, 127
2, 44840, Note_on_c, 1, 62, 127
2, 44840, Note_on_c, 1, 66, 127
2, 44840, Note_on_c, 1, 69, 127
2, 44840, Note_on_c, 1, 78, 127
2, 45120, Note_off_c, 1, 50, 0
2, 45120, Note_off_c, 1, 57, 0
2, 45120, Note_off_c, 1, 62, 0
2, 45120, Note_off_c, 1, 66, 0
2, 45120, Note_off_c, 1, 69, 0
2, 45120, Note_off_c, 1, 78, 0
2, 45200, Note_on_c, 1, 50, 127
2, 45200, Note_on_c, 1, 57, 127
2, 45200, Note_on_c, 1, 62, 127
2, 45200, Note_on_c, 1, 66, 127
2, 45200, Note_on_c, 1, 69, 127
2, 45200, Note_on_c, 1, 78, 127
2, 45800, Note_off_c, 1, 50, 0
2, 45800, Note_off_c, 1, 57, 0
2, 45800, Note_off_c, 1, 62, 0
2, 45800, Note_off_c, 1, 66, 0
2, 45800, Note_off_c, 1, 69, 0
2, 45800, Note_off_c, 1, 78, 0
2, 45840, Note_on_c, 1, 50, 127
2, 45840, Note_on_c, 1, 57, 127
2, 45840, Note_on_c, 1, 62, 127
2, 45840, Note_on_c, 1, 66, 127
2, 45840, Note_on_c, 1, 69, 127
2, 45840, Note_on_c, 1, 78, 127
2, 45880, Note_off_c, 1, 50, 0
2, 45880, Note_off_c, 1, 57, 0
2, 45880, Note_off_c, 1, 62, 0
2, 45880, Note_off_c, 1, 66, 0
2, 45880, Note_off_c, 1, 69, 0
2, 45880, Note_off_c, 1, 78, 0
2, 45920, Note_on_c, 1, 59, 127
2, 45920, Note_on_c, 1, 63, 127
2, 45920, Note_on_c, 1, 66, 127
2, 45920, Note_on_c, 1, 71, 127
2, 45920, Note_on_c, 1, 75, 127
2, 45920, Note_on_c, 1, 78, 127
2, 46600, Note_off_c, 1, 59, 0
2, 46600, Note_off_c, 1, 63, 0
2, 46600, Note_off_c, 1, 66, 0
2, 46600, Note_off_c, 1, 71, 0
2, 46600, Note_off_c, 1, 75, 0
2, 46600, Note_off_c, 1, 78, 0
2, 46640, Note_on_c, 1, 53, 127
2, 46640, Note_on_c, 1, 55, 127
2, 46640, Note_on_c, 1, 59, 127
2, 46640, Note_on_c, 1, 62, 127
2, 46640, Note_on_c, 1, 65, 127
2, 46920, Note_off_c, 1, 53, 0
2, 46920, Note_off_c, 1, 55, 0
2, 46920, Note_off_c, 1, 59, 0
2, 46920, Note_off_c, 1, 62, 0
2, 46920, Note_off_c, 1, 65, 0
2, 46960, Note_on_c, 1, 53, 127
2, 46960, Note_on_c, 1, 55, 127
2, 46960, Note_on_c, 1, 59, 127
2, 46960, Note_on_c, 1, 62, 127
2, 46960, Note_on_c, 1, 65, 127
2, 47160, Note_on_c, 1, 43, 127
2, 47160, Note_off_c, 1, 53, 0
2, 47160, Note_off_c, 1, 59, 0
2, 47160, Note_off_c, 1, 62, 0
2, 47160, Note_on_c, 1, 64, 127
2, 47160, Note_off_c, 1, 65, 0
2, 47160, Note_on_c, 1, 69, 127
2, 47160, Note_on_c, 1, 73, 127
2, 47200, Note_off_c, 1, 43, 0
2, 47200, Note_on_c, 1, 52, 127
2, 47200, Note_on_c, 1, 54, 127
2, 47200, Note_off_c, 1, 55, 0
2, 47200, Note_on_c, 1, 60, 127
2, 47200, Note_off_c, 1, 64, 0
2, 47200, Note_off_c, 1, 69, 0
2, 47200, Note_on_c, 1, 71, 127
2, 47200, Note_off_c, 1, 73, 0
2, 47240, Note_off_c, 1, 52, 0
2, 47240, Note_off_c, 1, 54, 0
2, 47240, Note_off_c, 1, 60, 0
2, 47240, Note_on_c, 1, 70, 127
2, 47240, Note_off_c, 1, 71, 0
2, 47240, Note_on_c, 1, 73, 127
2, 47240, Note_on_c, 1, 82, 127
2, 47240, Note_on_c, 1, 94, 127
2, 47240, Note_on_c, 1, 97, 127
2, 47280, Note_off_c, 1, 70, 0
2, 47280, Note_off_c, 1, 73, 0
2, 47280, Note_off_c, 1, 82, 0
2, 47280, Note_off_c, 1, 94, 0
2, 47280, Note_off_c, 1, 97, 0
2, 47320, Note_on_c, 1, 39, 127
2, 47320, Note_on_c, 1, 42, 127
2, 47320, Note_on_c, 1, 61, 127
2, 47320, Note_on_c, 1, 73, 127
2, 47640, Note_off_c, 1, 39, 0
2, 47640, Note_off_c, 1, 42, 0
2, 47640, Note_off_c, 1, 61, 0
2, 47640, Note_off_c, 1, 73, 0
2, 47680, Note_on_c, 1, 47, 127
2, 47680, Note_on_c, 1, 57, 127
2, 47680, Note_on_c, 1, 62, 127
2, 47680, Note_on_c, 1, 68, 127
2, 47680, Note_on_c, 1, 71, 127
2, 47800, Note_off_c, 1, 47, 0
2, 47800, Note_on_c, 1, 55, 127
2, 47800, Note_off_c, 1, 57, 0
2, 47800, Note_on_c, 1, 61, 127
2, 47800, Note_off_c, 1, 62, 0
2, 47800, Note_off_c, 1, 68, 0
2, 47800, Note_on_c, 1, 70, 127
2, 47800, Note_off_c, 1, 71, 0
2, 47800, Note_on_c, 1, 79, 127
2, 47800, Note_on_c, 1, 82, 127
2, 47840, Note_off_c, 1, 55, 0
2, 47840, Note_off_c, 1, 61, 0
2, 47840, Note_on_c, 1, 65, 127
2, 47840, Note_on_c, 1, 68, 127
2, 47840, Note_off_c, 1, 70, 0
2, 47840, Note_on_c, 1, 72, 127
2, 47840, Note_off_c, 1, 79, 0
2, 47840, Note_off_c, 1, 82, 0
2, 47840, Note_on_c, 1, 83, 127
2, 47880, Note_off_c, 1, 65, 0
2, 47880, Note_off_c, 1, 68, 0
2, 47880, Note_off_c, 1, 72, 0
2, 47880, Note_off_c, 1, 83, 0
2, 47920, Note_on_c, 1, 46, 127
2, 47920, Note_on_c, 1, 50, 127
2, 47920, Note_on_c, 1, 61, 127
2, 47960, Note_on_c, 1, 38, 127
2, 47960, Note_off_c, 1, 46, 0
2, 47960, Note_off_c, 1, 50, 0
2, 47960, Note_off_c, 1, 61, 0
2, 47960, Note_on_c, 1, 62, 127
2, 47960, Note_on_c, 1, 78, 127
2, 48000, Note_off_c, 1, 38, 0
2, 48000, Note_off_c, 1, 62, 0
2, 48000, Note_off_c, 1, 78, 0
2, 48040, Note_on_c, 1, 42, 127
2, 48040, Note_on_c, 1, 54, 127
2, 48040, Note_on_c, 1, 59, 127
2, 48040, Note_on_c, 1, 68, 127
2, 48720, Note_off_c, 1, 59, 0
2, 48720, Note_off_c, 1, 68, 0
2, 48760, Note_on_c, 1, 59, 127
2, 48760, Note_on_c, 1, 68, 127
2, 49040, Note_off_c, 1, 59, 0
2, 49040, Note_off_c, 1, 68, 0
2, 49080, Note_off_c, 1, 42, 0
2, 49080, Note_off_c, 1, 54, 0
2, 49120, Note_on_c, 1, 52, 127
2, 49120, Note_on_c, 1, 59, 127
2, 49120, Note_on_c, 1, 64, 127
2, 49120, Note_on_c, 1, 67, 127
2, 49120, Note_on_c, 1, 73, 127
2, 49320, Note_on_c, 1, 71, 127
2, 49320, Note_off_c, 1, 73, 0
2, 49800, Note_off_c, 1, 52, 0
2, 49800, Note_off_c, 1, 59, 0
2, 49800, Note_off_c, 1, 64, 0
2, 49800, Note_off_c, 1, 67, 0
2, 49800, Note_off_c, 1, 71, 0
2, 49880, Note_on_c, 1, 45, 127
2, 49880, Note_on_c, 1, 50, 127
2, 49880, Note_on_c, 1, 54, 127
2, 49880, Note_on_c, 1, 69, 127
2, 50160, Note_off_c, 1, 45, 0
2, 50160, Note_off_c, 1, 50, 0
2, 50160, Note_off_c, 1, 54, 0
2, 50200, Note_on_c, 1, 44, 127
2, 50200, Note_on_c, 1, 56, 127
2, 50200, Note_on_c, 1, 59, 127
2, 50200, Note_on_c, 1, 64, 127
2, 50200, Note_off_c, 1, 69, 0
2, 51200, Note_off_c, 1, 44, 0
2, 51200, Note_off_c, 1, 56, 0
2, 51200, Note_off_c, 1, 59, 0
2, 51200, Note_off_c, 1, 64, 0
2, 51280, Note_on_c, 1, 39, 127
2, 51280, Note_on_c, 1, 73, 127
2, 51280, Note_on_c, 1, 85, 127
2, 51600, Note_off_c, 1, 39, 0
2, 51600, Note_off_c, 1, 73, 0
2, 51600, Note_off_c, 1, 85, 0
2, 51640, Note_on_c, 1, 39, 127
2, 51640, Note_on_c, 1, 73, 127
2, 51640, Note_on_c, 1, 85, 127
2, 51920, Note_off_c, 1, 39, 0
2, 51920, Note_off_c, 1, 73, 0
2, 51920, Note_off_c, 1, 85, 0
2, 52040, Note_on_c, 1, 54, 127
2, 52040, Note_on_c, 1, 59, 127
2, 52040, Note_on_c, 1, 63, 127
2, 52040, Note_on_c, 1, 71, 127
2, 52040, Note_on_c, 1, 83, 127
2, 52320, Note_off_c, 1, 54, 0
2, 52320, Note_off_c, 1, 59, 0
2, 52320, Note_off_c, 1, 63, 0
2, 52360, Note_off_c, 1, 71, 0
2, 52360, Note_off_c, 1, 83, 0
2, 52400, Note_on_c, 1, 59, 127
2, 52400, Note_on_c, 1, 66, 127
2, 52400, Note_on_c, 1, 74, 127
2, 52400, Note_on_c, 1, 83, 127
2, 52400, Note_on_c, 1, 90, 127
2, 52400, Note_on_c, 1, 95, 127
2, 53040, Note_off_c, 1, 59, 0
2, 53040, Note_off_c, 1, 66, 0
2, 53040, Note_off_c, 1, 74, 0
2, 53040, Note_off_c, 1, 83, 0
2, 53040, Note_off_c, 1, 90, 0
2, 53040, Note_off_c, 1, 95, 0
2, 53080, Note_on_c, 1, 38, 127
2, 53080, Note_on_c, 1, 45, 127
2, 53080, Note_on_c, 1, 50, 127
2, 53080, Note_on_c, 1, 62, 127
2, 53080, Note_on_c, 1, 65, 127
2, 53080, Note_on_c, 1, 72, 127
2, 53360, Note_on_c, 1, 31, 127
2, 53360, Note_off_c, 1, 38, 0
2, 53360, Note_on_c, 1, 43, 127
2, 53360, Note_off_c, 1, 45, 0
2, 53360, Note_off_c, 1, 65, 0
2, 53360, Note_on_c, 1, 71, 127
2, 53360, Note_off_c, 1, 72, 0
2, 53360, Note_on_c, 1, 83, 127
2, 53400, Note_off_c, 1, 31, 0
2, 53400, Note_off_c, 1, 43, 0
2, 53400, Note_off_c, 1, 50, 0
2, 53400, Note_off_c, 1, 62, 0
2, 53400, Note_off_c, 1, 71, 0
2, 53400, Note_off_c, 1, 83, 0
2, 53440, Note_on_c, 1, 43, 127
2, 53440, Note_on_c, 1, 53, 127
2, 53440, Note_on_c, 1, 58, 127
2, 53440, Note_on_c, 1, 65, 127
2, 53480, Note_off_c, 1, 43, 0
2, 53480, Note_off_c, 1, 53, 0
2, 53480, Note_on_c, 1, 55, 127
2, 53480, Note_off_c, 1, 58, 0
2, 53480, Note_off_c, 1, 65, 0
2, 53480, Note_on_c, 1, 67, 127
2, 53480, Note_on_c, 1, 70, 127
2, 53480, Note_on_c, 1, 74, 127
2, 53480, Note_on_c, 1, 79, 127
2, 53520, Note_on_c, 1, 46, 127
2, 53520, Note_off_c, 1, 55, 0
2, 53520, Note_on_c, 1, 58, 127
2, 53520, Note_on_c, 1, 60, 127
2, 53520, Note_off_c, 1, 70, 0
2, 53520, Note_on_c, 1, 72, 127
2, 53520, Note_off_c, 1, 74, 0
2, 53520, Note_off_c, 1, 79, 0
2, 53560, Note_off_c, 1, 46, 0
2, 53560, Note_on_c, 1, 57, 127
2, 53560, Note_off_c, 1, 58, 0
2, 53560, Note_off_c, 1, 60, 0
2, 53560, Note_off_c, 1, 67, 0
2, 53560, Note_on_c, 1, 71, 127
2, 53600, Note_on_c, 1, 48, 127
2, 53600, Note_on_c, 1, 55, 127
2, 53600, Note_off_c, 1, 57, 0
2, 53600, Note_on_c, 1, 59, 127
2, 53600, Note_on_c, 1, 65, 127
2, 53600, Note_on_c, 1, 67, 127
2, 53600, Note_off_c, 1, 71, 0
2, 53600, Note_off_c, 1, 72, 0
2, 53600, Note_on_c, 1, 74, 127
2, 53720, Note_off_c, 1, 48, 0
2, 53720, Note_off_c, 1, 59, 0
2, 53720, Note_on_c, 1, 64, 127
2, 53720, Note_off_c, 1, 65, 0
2, 53720, Note_on_c, 1, 73, 127
2, 53720, Note_off_c, 1, 74, 0
2, 53760, Note_off_c, 1, 64, 0
2, 53760, Note_off_c, 1, 73, 0
2, 53800, Note_on_c, 1, 48, 127
2, 53800, Note_on_c, 1, 59, 127
2, 53800, Note_on_c, 1, 65, 127
2, 53800, Note_on_c, 1, 74, 127
2, 54080, Note_off_c, 1, 48, 0
2, 54080, Note_off_c, 1, 59, 0
2, 54080, Note_off_c, 1, 65, 0
2, 54080, Note_off_c, 1, 74, 0
2, 54120, Note_off_c, 1, 55, 0
2, 54160, Note_on_c, 1, 48, 127
2, 54160, Note_on_c, 1, 55, 127
2, 54160, Note_on_c, 1, 59, 127
2, 54160, Note_on_c, 1, 65, 127
2, 54160, Note_on_c, 1, 74, 127
2, 54400, Note_off_c, 1, 48, 0
2, 54400, Note_off_c, 1, 55, 0
2, 54400, Note_off_c, 1, 59, 0
2, 54400, Note_off_c, 1, 65, 0
2, 54400, Note_off_c, 1, 67, 0
2, 54400, Note_off_c, 1, 74, 0
2, 54440, Note_on_c, 1, 48, 127
2, 54440, Note_on_c, 1, 55, 127
2, 54440, Note_on_c, 1, 59, 127
2, 54440, Note_on_c, 1, 65, 127
2, 54440, Note_on_c, 1, 67, 127
2, 54440, Note_on_c, 1, 74, 127
2, 54480, Note_off_c, 1, 48, 0
2, 54480, Note_off_c, 1, 55, 0
2, 54480, Note_off_c, 1, 59, 0
2, 54480, Note_off_c, 1, 65, 0
2, 54480, Note_off_c, 1, 67, 0
2, 54480, Note_off_c, 1, 74, 0
2, 54480, Note_on_c, 1, 79, 127
2, 54520, Note_on_c, 1, 48, 127
2, 54520, Note_on_c, 1, 55, 127
2, 54520, Note_on_c, 1, 59, 127
2, 54520, Note_on_c, 1, 65, 127
2, 54520, Note_on_c, 1, 67, 127
2, 54520, Note_on_c, 1, 74, 127
2, 54520, Note_off_c, 1, 79, 0
2, 54840, Note_off_c, 1, 48, 0
2, 54840, Note_off_c, 1, 55, 0
2, 54840, Note_off_c, 1, 59, 0
2, 54840, Note_off_c, 1, 65, 0
2, 54840, Note_off_c, 1, 67, 0
2, 54840, Note_off_c, 1, 74, 0
2, 54880, Note_on_c, 1, 48, 127
2, 54880, Note_on_c, 1, 79, 127
2, 55040, Note_off_c, 1, 48, 0
2, 55080, Note_on_c, 1, 51, 127
2, 55080, Note_on_c, 1, 84, 127
2, 55200, Note_off_c, 1, 51, 0
2, 55200, Note_off_c, 1, 79, 0
2, 55200, Note_off_c, 1, 84, 0
2, 55240, Note_on_c, 1, 48, 127
2, 55240, Note_on_c, 1, 71, 127
2, 55240, Note_on_c, 1, 77, 127
2, 55400, Note_off_c, 1, 48, 0
2, 55440, Note_on_c, 1, 48, 127
2, 55560, Note_off_c, 1, 48, 0
2, 55600, Note_on_c, 1, 48, 127
2, 55600, Note_off_c, 1, 71, 0
2, 55600, Note_on_c, 1, 72, 127
2, 55760, Note_off_c, 1, 48, 0
2, 55760, Note_off_c, 1, 72, 0
2, 55760, Note_off_c, 1, 77, 0
2, 55800, Note_on_c, 1, 42, 127
2, 55800, Note_on_c, 1, 74, 127
2, 55880, Note_on_c, 1, 38, 127
2, 55880, Note_off_c, 1, 42, 0
2, 55920, Note_off_c, 1, 38, 0
2, 55960, Note_on_c, 1, 55, 127
2, 55960, Note_on_c, 1, 59, 127
2, 55960, Note_on_c, 1, 79, 127
2, 56080, Note_off_c, 1, 55, 0
2, 56080, Note_off_c, 1, 59, 0
2, 56080, Note_off_c, 1, 79, 0
2, 56160, Note_on_c, 1, 42, 127
2, 56160, Note_on_c, 1, 69, 127
2, 56280, Note_off_c, 1, 42, 0
2, 56280, Note_off_c, 1, 69, 0
2, 56320, Note_on_c, 1, 47, 127
2, 56320, Note_on_c, 1, 54, 127
2, 56320, Note_on_c, 1, 66, 127
2, 56320, Note_on_c, 1, 71, 127
2, 56440, Note_off_c, 1, 47, 0
2, 56440, Note_off_c, 1, 54, 0
2, 56440, Note_off_c, 1, 66, 0
2, 56440, Note_off_c, 1, 71, 0
2, 56440, Note_off_c, 1, 74, 0
2, 56520, Note_on_c, 1, 47, 127
2, 56520, Note_on_c, 1, 66, 127
2, 56520, Note_on_c, 1, 73, 127
2, 56840, Note_off_c, 1, 47, 0
2, 56840, Note_off_c, 1, 66, 0
2, 56840, Note_off_c, 1, 73, 0
2, 56880, Note_on_c, 1, 61, 127
2, 56880, Note_on_c, 1, 76, 127
2, 56880, Note_on_c, 1, 82, 127
2, 56880, Note_on_c, 1, 88, 127
2, 56920, Note_on_c, 1, 36, 127
2, 56920, Note_on_c, 1, 46, 127
2, 56920, Note_on_c, 1, 55, 127
2, 56920, Note_off_c, 1, 61, 0
2, 56920, Note_on_c, 1, 64, 127
2, 56920, Note_off_c, 1, 76, 0
2, 56920, Note_off_c, 1, 82, 0
2, 56920, Note_off_c, 1, 88, 0
2, 56960, Note_off_c, 1, 36, 0
2, 56960, Note_off_c, 1, 46, 0
2, 56960, Note_off_c, 1, 55, 0
2, 56960, Note_off_c, 1, 64, 0
2, 56960, Note_on_c, 1, 74, 127
2, 56960, Note_on_c, 1, 75, 127
2, 56960, Note_on_c, 1, 79, 127
2, 56960, Note_on_c, 1, 87, 127
2, 57000, Note_on_c, 1, 42, 127
2, 57000, Note_on_c, 1, 45, 127
2, 57000, Note_on_c, 1, 50, 127
2, 57000, Note_on_c, 1, 54, 127
2, 57000, Note_on_c, 1, 57, 127
2, 57000, Note_on_c, 1, 62, 127
2, 57000, Note_off_c, 1, 74, 0
2, 57000, Note_off_c, 1, 75, 0
2, 57000, Note_off_c, 1, 79, 0
2, 57000, Note_off_c, 1, 87, 0
2, 57040, Note_on_c, 1, 36, 127
2, 57040, Note_off_c, 1, 42, 0
2, 57040, Note_off_c, 1, 45, 0
2, 57040, Note_on_c, 1, 46, 127
2, 57040, Note_off_c, 1, 50, 0
2, 57040, Note_off_c, 1, 54, 0
2, 57040, Note_on_c, 1, 55, 127
2, 57040, Note_off_c, 1, 57, 0
2, 57040, Note_on_c, 1, 60, 127
2, 57040, Note_off_c, 1, 62, 0
2, 57040, Note_on_c, 1, 64, 127
2, 57040, Note_on_c, 1, 72, 127
2, 57080, Note_off_c, 1, 36, 0
2, 57080, Note_off_c, 1, 46, 0
2, 57080, Note_off_c, 1, 55, 0
2, 57080, Note_off_c, 1, 60, 0
2, 57080, Note_off_c, 1, 64, 0
2, 57080, Note_on_c, 1, 69, 127
2, 57080, Note_off_c, 1, 72, 0
2, 57080, Note_on_c, 1, 81, 127
2, 57080, Note_on_c, 1, 84, 127
2, 57080, Note_on_c, 1, 87, 127
2, 57080, Note_on_c, 1, 93, 127
2, 57120, Note_on_c, 1, 33, 127
2, 57120, Note_on_c, 1, 45, 127
2, 57120, Note_on_c, 1, 52, 127
2, 57120, Note_on_c, 1, 59, 127
2, 57120, Note_on_c, 1, 64, 127
2, 57120, Note_off_c, 1, 69, 0
2, 57120, Note_on_c, 1, 74, 127
2, 57120, Note_off_c, 1, 81, 0
2, 57120, Note_off_c, 1, 84, 0
2, 57120, Note_off_c, 1, 87, 0
2, 57120, Note_off_c, 1, 93, 0
2, 57160, Note_off_c, 1, 33, 0
2, 57160, Note_off_c, 1, 45, 0
2, 57160, Note_off_c, 1, 52, 0
2, 57160, Note_off_c, 1, 59, 0
2, 57160, Note_on_c, 1, 62, 127
2, 57160, Note_off_c, 1, 64, 0
2, 57160, Note_on_c, 1, 72, 127
2, 57160, Note_on_c, 1, 77, 127
2, 57160, Note_on_c, 1, 84, 127
2, 57200, Note_off_c, 1, 62, 0
2, 57200, Note_off_c, 1, 72, 0
2, 57200, Note_off_c, 1, 74, 0
2, 57200, Note_off_c, 1, 77, 0
2, 57200, Note_off_c, 1, 84, 0
2, 57240, Note_on_c, 1, 60, 127
2, 57240, Note_on_c, 1, 62, 127
2, 57240, Note_on_c, 1, 69, 127
2, 57240, Note_on_c, 1, 90, 127
2, 57560, Note_off_c, 1, 60, 0
2, 57560, Note_off_c, 1, 62, 0
2, 57560, Note_off_c, 1, 69, 0
2, 57560, Note_off_c, 1, 90, 0
2, 57600, Note_on_c, 1, 52, 127
2, 57600, Note_on_c, 1, 57, 127
2, 57600, Note_on_c, 1, 64, 127
2, 57600, Note_on_c, 1, 69, 127
2, 57600, Note_on_c, 1, 76, 127
2, 57600, Note_on_c, 1, 81, 127
2, 57880, Note_off_c, 1, 52, 0
2, 57880, Note_off_c, 1, 57, 0
2, 57880, Note_off_c, 1, 64, 0
2, 57880, Note_off_c, 1, 69, 0
2, 57880, Note_off_c, 1, 76, 0
2, 57880, Note_off_c, 1, 81, 0
2, 57920, Note_on_c, 1, 56, 127
2, 57920, Note_on_c, 1, 64, 127
2, 57920, Note_on_c, 1, 68, 127
2, 57920, Note_on_c, 1, 85, 127
2, 57920, Note_on_c, 1, 97, 127
2, 57960, Note_on_c, 1, 36, 127
2, 57960, Note_on_c, 1, 48, 127
2, 57960, Note_off_c, 1, 56, 0
2, 57960, Note_off_c, 1, 64, 0
2, 57960, Note_off_c, 1, 68, 0
2, 57960, Note_on_c, 1, 77, 127
2, 57960, Note_on_c, 1, 80, 127
2, 57960, Note_off_c, 1, 85, 0
2, 57960, Note_on_c, 1, 86, 127
2, 57960, Note_off_c, 1, 97, 0
2, 58000, Note_off_c, 1, 36, 0
2, 58000, Note_off_c, 1, 48, 0
2, 58000, Note_on_c, 1, 72, 127
2, 58000, Note_off_c, 1, 80, 0
2, 58000, Note_on_c, 1, 84, 127
2, 58000, Note_off_c, 1, 86, 0
2, 58000, Note_on_c, 1, 89, 127
2, 58040, Note_on_c, 1, 61, 127
2, 58040, Note_on_c, 1, 64, 127
2, 58040, Note_on_c, 1, 67, 127
2, 58040, Note_on_c, 1, 70, 127
2, 58040, Note_off_c, 1, 72, 0
2, 58040, Note_off_c, 1, 77, 0
2, 58040, Note_off_c, 1, 89, 0
2, 58080, Note_on_c, 1, 48, 127
2, 58080, Note_on_c, 1, 53, 127
2, 58080, Note_on_c, 1, 55, 127
2, 58080, Note_off_c, 1, 61, 0
2, 58080, Note_on_c, 1, 62, 127
2, 58080, Note_off_c, 1, 64, 0
2, 58080, Note_off_c, 1, 70, 0
2, 58080, Note_off_c, 1, 84, 0
2, 58120, Note_off_c, 1, 48, 0
2, 58120, Note_off_c, 1, 55, 0
2, 58120, Note_on_c, 1, 57, 127
2, 58120, Note_on_c, 1, 60, 127
2, 58120, Note_off_c, 1, 62, 0
2, 58120, Note_on_c, 1, 65, 127
2, 58120, Note_off_c, 1, 67, 0
2, 58120, Note_on_c, 1, 77, 127
2, 58120, Note_on_c, 1, 81, 127
2, 58200, Note_off_c, 1, 53, 0
2, 58200, Note_off_c, 1, 57, 0
2, 58200, Note_off_c, 1, 60, 0
2, 58200, Note_off_c, 1, 65, 0
2, 58200, Note_off_c, 1, 77, 0
2, 58200, Note_off_c, 1, 81, 0
2, 58200, Note_on_c, 1, 84, 127
2, 58280, Note_on_c, 1, 48, 127
2, 58280, Note_on_c, 1, 56, 127
2, 58280, Note_on_c, 1, 77, 127
2, 58280, Note_off_c, 1, 84, 0
2, 58480, Note_off_c, 1, 48, 0
2, 58480, Note_off_c, 1, 56, 0
2, 58480, Note_off_c, 1, 77, 0
2, 58520, Note_on_c, 1, 48, 127
2, 58520, Note_on_c, 1, 56, 127
2, 58520, Note_on_c, 1, 77, 127
2, 58640, Note_off_c, 1, 48, 0
2, 58640, Note_off_c, 1, 56, 0
2, 58640, Note_off_c, 1, 77, 0
2, 58680, Note_on_c, 1, 50, 127
2, 58680, Note_on_c, 1, 55, 127
2, 58680, Note_on_c, 1, 59, 127
2, 58680, Note_on_c, 1, 67, 127
2, 58680, Note_on_c, 1, 74, 127
2, 58840, Note_off_c, 1, 67, 0
2, 58880, Note_on_c, 1, 67, 127
2, 59000, Note_off_c, 1, 50, 0
2, 59000, Note_off_c, 1, 55, 0
2, 59000, Note_off_c, 1, 59, 0
2, 59000, Note_off_c, 1, 67, 0
2, 59000, Note_off_c, 1, 74, 0
2, 59040, Note_on_c, 1, 48, 127
2, 59040, Note_on_c, 1, 55, 127
2, 59040, Note_on_c, 1, 72, 127
2, 59040, Note_on_c, 1, 76, 127
2, 59360, Note_off_c, 1, 48, 0
2, 59360, Note_off_c, 1, 55, 0
2, 59360, Note_off_c, 1, 72, 0
2, 59360, Note_off_c, 1, 76, 0
2, 59400, Note_on_c, 1, 46, 127
2, 59400, Note_on_c, 1, 74, 127
2, 59400, Note_on_c, 1, 86, 127
2, 59400, Note_on_c, 1, 87, 127
2, 59440, Note_off_c, 1, 46, 0
2, 59440, Note_on_c, 1, 83, 127
2, 59440, Note_on_c, 1, 85, 127
2, 59440, Note_off_c, 1, 86, 0
2, 59440, Note_off_c, 1, 87, 0
2, 59480, Note_on_c, 1, 67, 127
2, 59480, Note_on_c, 1, 81, 127
2, 59480, Note_off_c, 1, 83, 0
2, 59480, Note_on_c, 1, 84, 127
2, 59480, Note_off_c, 1, 85, 0
2, 59480, Note_on_c, 1, 93, 127
2, 59520, Note_on_c, 1, 44, 127
2, 59520, Note_on_c, 1, 50, 127
2, 59520, Note_on_c, 1, 52, 127
2, 59520, Note_on_c, 1, 56, 127
2, 59520, Note_off_c, 1, 67, 0
2, 59520, Note_on_c, 1, 71, 127
2, 59520, Note_on_c, 1, 76, 127
2, 59520, Note_off_c, 1, 81, 0
2, 59520, Note_on_c, 1, 83, 127
2, 59520, Note_off_c, 1, 84, 0
2, 59520, Note_off_c, 1, 93, 0
2, 59560, Note_off_c, 1, 44, 0
2, 59560, Note_off_c, 1, 50, 0
2, 59560, Note_off_c, 1, 52, 0
2, 59560, Note_on_c, 1, 54, 127
2, 59560, Note_off_c, 1, 56, 0
2, 59560, Note_on_c, 1, 59, 127
2, 59560, Note_on_c, 1, 63, 127
2, 59560, Note_off_c, 1, 71, 0
2, 59560, Note_off_c, 1, 74, 0
2, 59560, Note_off_c, 1, 76, 0
2, 59560, Note_on_c, 1, 87, 127
2, 59560, Note_on_c, 1, 90, 127
2, 59600, Note_off_c, 1, 54, 0
2, 59600, Note_off_c, 1, 59, 0
2, 59600, Note_off_c, 1, 63, 0
2, 59600, Note_on_c, 1, 72, 127
2, 59600, Note_on_c, 1, 74, 127
2, 59600, Note_on_c, 1, 79, 127
2, 59600, Note_off_c, 1, 83, 0
2, 59600, Note_off_c, 1, 87, 0
2, 59600, Note_on_c, 1, 89, 127
2, 59600, Note_off_c, 1, 90, 0
2, 59600, Note_on_c, 1, 91, 127
2, 59600, Note_on_c, 1, 95, 127
2, 59640, Note_on_c, 1, 54, 127
2, 59640, Note_on_c, 1, 59, 127
2, 59640, Note_on_c, 1, 63, 127
2, 59640, Note_off_c, 1, 72, 0
2, 59640, Note_off_c, 1, 74, 0
2, 59640, Note_off_c, 1, 79, 0
2, 59640, Note_on_c, 1, 83, 127
2, 59640, Note_on_c, 1, 87, 127
2, 59640, Note_off_c, 1, 89, 0
2, 59640, Note_on_c, 1, 90, 127
2, 59640, Note_off_c, 1, 91, 0
2, 59640, Note_off_c, 1, 95, 0
2, 59680, Note_off_c, 1, 54, 0
2, 59680, Note_off_c, 1, 59, 0
2, 59680, Note_off_c, 1, 63, 0
2, 59680, Note_off_c, 1, 83, 0
2, 59680, Note_off_c, 1, 87, 0
2, 59680, Note_off_c, 1, 90, 0
2, 59760, Note_on_c, 1, 57, 127
2, 59760, Note_on_c, 1, 59, 127
2, 59760, Note_on_c, 1, 66, 127
2, 59760, Note_on_c, 1, 81, 127
2, 59960, Note_off_c, 1, 59, 0
2, 59960, Note_on_c, 1, 60, 127
2, 59960, Note_on_c, 1, 64, 127
2, 59960, Note_off_c, 1, 66, 0
2, 59960, Note_off_c, 1, 81, 0
2, 59960, Note_on_c, 1, 83, 127
2, 60000, Note_on_c, 1, 59, 127
2, 60000, Note_off_c, 1, 60, 0
2, 60000, Note_off_c, 1, 64, 0
2, 60000, Note_on_c, 1, 66, 127
2, 60000, Note_on_c, 1, 81, 127
2, 60000, Note_off_c, 1, 83, 0
2, 60040, Note_off_c, 1, 57, 0
2, 60040, Note_off_c, 1, 59, 0
2, 60040, Note_off_c, 1, 66, 0
2, 60040, Note_off_c, 1, 81, 0
2, 60040, Note_on_c, 1, 83, 127
2, 60080, Note_off_c, 1, 83, 0
2, 60120, Note_on_c, 1, 52, 127
2, 60120, Note_on_c, 1, 55, 127
2, 60120, Note_on_c, 1, 59, 127
2, 60120, Note_on_c, 1, 67, 127
2, 60120, Note_on_c, 1, 71, 127
2, 60400, Note_off_c, 1, 52, 0
2, 60400, Note_off_c, 1, 55, 0
2, 60400, Note_off_c, 1, 59, 0
2, 60400, Note_off_c, 1, 67, 0
2, 60400, Note_off_c, 1, 71, 0
2, 60440, Note_on_c, 1, 52, 127
2, 60440, Note_on_c, 1, 59, 127
2, 60440, Note_on_c, 1, 70, 127
2, 60440, Note_on_c, 1, 71, 127
2, 60480, Note_on_c, 1, 30, 127
2, 60480, Note_on_c, 1, 35, 127
2, 60480, Note_on_c, 1, 37, 127
2, 60480, Note_off_c, 1, 52, 0
2, 60480, Note_off_c, 1, 59, 0
2, 60480, Note_off_c, 1, 70, 0
2, 60520, Note_off_c, 1, 30, 0
2, 60520, Note_off_c, 1, 35, 0
2, 60520, Note_on_c, 1, 49, 127
2, 60520, Note_off_c, 1, 71, 0
2, 60520, Note_on_c, 1, 82, 127
2, 60520, Note_on_c, 1, 90, 127
2, 60520, Note_on_c, 1, 94, 127
2, 60560, Note_off_c, 1, 37, 0
2, 60560, Note_on_c, 1, 46, 127
2, 60560, Note_off_c, 1, 49, 0
2, 60560, Note_on_c, 1, 50, 127
2, 60560, Note_on_c, 1, 56, 127
2, 60560, Note_on_c, 1, 68, 127
2, 60560, Note_off_c, 1, 82, 0
2, 60560, Note_off_c, 1, 90, 0
2, 60560, Note_off_c, 1, 94, 0
2, 60600, Note_on_c, 1, 44, 127
2, 60600, Note_off_c, 1, 46, 0
2, 60600, Note_on_c, 1, 53, 127
2, 60600, Note_off_c, 1, 68, 0
2, 60640, Note_off_c, 1, 44, 0
2, 60640, Note_off_c, 1, 50, 0
2, 60640, Note_off_c, 1, 53, 0
2, 60640, Note_off_c, 1, 56, 0
2, 60680, Note_on_c, 1, 68, 127
2, 60680, Note_on_c, 1, 72, 127
2, 60680, Note_on_c, 1, 75, 127
2, 60680, Note_on_c, 1, 78, 127
2, 60680, Note_on_c, 1, 90, 127
2, 60720, Note_on_c, 1, 34, 127
2, 60720, Note_on_c, 1, 39, 127
2, 60720, Note_on_c, 1, 43, 127
2, 60720, Note_on_c, 1, 46, 127
2, 60720, Note_on_c, 1, 51, 127
2, 60720, Note_on_c, 1, 55, 127
2, 60720, Note_on_c, 1, 58, 127
2, 60720, Note_off_c, 1, 68, 0
2, 60720, Note_off_c, 1, 72, 0
2, 60720, Note_on_c, 1, 74, 127
2, 60720, Note_off_c, 1, 75, 0
2, 60720, Note_off_c, 1, 78, 0
2, 60720, Note_on_c, 1, 82, 127
2, 60720, Note_on_c, 1, 86, 127
2, 60720, Note_off_c, 1, 90, 0
2, 60760, Note_off_c, 1, 34, 0
2, 60760, Note_off_c, 1, 39, 0
2, 60760, Note_off_c, 1, 43, 0
2, 60760, Note_off_c, 1, 46, 0
2, 60760, Note_off_c, 1, 51, 0
2, 60760, Note_off_c, 1, 55, 0
2, 60760, Note_on_c, 1, 61, 127
2, 60760, Note_on_c, 1, 63, 127
2, 60760, Note_on_c, 1, 67, 127
2, 60760, Note_on_c, 1, 70, 127
2, 60760, Note_off_c, 1, 74, 0
2, 60760, Note_on_c, 1, 75, 127
2, 60760, Note_off_c, 1, 86, 0
2, 60800, Note_off_c, 1, 58, 0
2, 60800, Note_off_c, 1, 61, 0
2, 60800, Note_off_c, 1, 63, 0
2, 60800, Note_off_c, 1, 67, 0
2, 60800, Note_off_c, 1, 70, 0
2, 60800, Note_off_c, 1, 75, 0
2, 60800, Note_off_c, 1, 82, 0
2, 60800, Note_on_c, 1, 83, 127
2, 60840, Note_on_c, 1, 42, 127
2, 60840, Note_on_c, 1, 54, 127
2, 60840, Note_off_c, 1, 83, 0
2, 60840, Note_on_c, 1, 86, 127
2, 60840, Note_on_c, 1, 90, 127
2, 60880, Note_off_c, 1, 42, 0
2, 60880, Note_on_c, 1, 53, 127
2, 60880, Note_off_c, 1, 54, 0
2, 60880, Note_on_c, 1, 74, 127
2, 60880, Note_on_c, 1, 77, 127
2, 60880, Note_on_c, 1, 80, 127
2, 60880, Note_off_c, 1, 90, 0
2, 60920, Note_on_c, 1, 48, 127
2, 60920, Note_on_c, 1, 51, 127
2, 60920, Note_off_c, 1, 53, 0
2, 60920, Note_on_c, 1, 54, 127
2, 60920, Note_on_c, 1, 57, 127
2, 60920, Note_off_c, 1, 74, 0
2, 60920, Note_off_c, 1, 77, 0
2, 60920, Note_off_c, 1, 80, 0
2, 60920, Note_on_c, 1, 81, 127
2, 60920, Note_off_c, 1, 86, 0
2, 60960, Note_off_c, 1, 48, 0
2, 60960, Note_off_c, 1, 54, 0
2, 60960, Note_off_c, 1, 57, 0
2, 60960, Note_on_c, 1, 61, 127
2, 60960, Note_on_c, 1, 78, 127
2, 61000, Note_off_c, 1, 51, 0
2, 61000, Note_off_c, 1, 61, 0
2, 61000, Note_on_c, 1, 64, 127
2, 61000, Note_on_c, 1, 70, 127
2, 61000, Note_on_c, 1, 72, 127
2, 61000, Note_off_c, 1, 78, 0
2, 61000, Note_on_c, 1, 80, 127
2, 61000, Note_off_c, 1, 81, 0
2, 61040, Note_on_c, 1, 59, 127
2, 61040, Note_off_c, 1, 64, 0
2, 61040, Note_off_c, 1, 70, 0
2, 61040, Note_off_c, 1, 72, 0
2, 61040, Note_on_c, 1, 83, 127
2, 61040, Note_on_c, 1, 89, 127
2, 61040, Note_on_c, 1, 92, 127
2, 61120, Note_off_c, 1, 59, 0
2, 61120, Note_off_c, 1, 80, 0
2, 61120, Note_on_c, 1, 82, 127
2, 61120, Note_off_c, 1, 83, 0
2, 61120, Note_off_c, 1, 89, 0
2, 61120, Note_off_c, 1, 92, 0
2, 61160, Note_off_c, 1, 82, 0
2, 61200, Note_on_c, 1, 60, 127
2, 61200, Note_on_c, 1, 65, 127
2, 61200, Note_on_c, 1, 75, 127
2, 61200, Note_on_c, 1, 84, 127
2, 61240, Note_on_c, 1, 58, 127
2, 61240, Note_off_c, 1, 60, 0
2, 61240, Note_on_c, 1, 68, 127
2, 61240, Note_on_c, 1, 71, 127
2, 61240, Note_on_c, 1, 74, 127
2, 61240, Note_off_c, 1, 75, 0
2, 61240, Note_off_c, 1, 84, 0
2, 61280, Note_on_c, 1, 40, 127
2, 61280, Note_on_c, 1, 47, 127
2, 61280, Note_on_c, 1, 52, 127
2, 61280, Note_off_c, 1, 58, 0
2, 61280, Note_off_c, 1, 65, 0
2, 61280, Note_off_c, 1, 68, 0
2, 61280, Note_off_c, 1, 71, 0
2, 61280, Note_off_c, 1, 74, 0
2, 61280, Note_on_c, 1, 76, 127
2, 61280, Note_on_c, 1, 79, 127
2, 61280, Note_on_c, 1, 83, 127
2, 61320, Note_off_c, 1, 40, 0
2, 61320, Note_off_c, 1, 47, 0
2, 61320, Note_off_c, 1, 52, 0
2, 61320, Note_on_c, 1, 71, 127
2, 61320, Note_on_c, 1, 74, 127
2, 61320, Note_off_c, 1, 76, 0
2, 61320, Note_on_c, 1, 78, 127
2, 61320, Note_off_c, 1, 79, 0
2, 61320, Note_off_c, 1, 83, 0
2, 61320, Note_on_c, 1, 85, 127
2, 61360, Note_on_c, 1, 40, 127
2, 61360, Note_on_c, 1, 45, 127
2, 61360, Note_on_c, 1, 56, 127
2, 61360, Note_on_c, 1, 61, 127
2, 61360, Note_on_c, 1, 68, 127
2, 61360, Note_off_c, 1, 71, 0
2, 61360, Note_off_c, 1, 74, 0
2, 61360, Note_off_c, 1, 78, 0
2, 61360, Note_off_c, 1, 85, 0
2, 61480, Note_off_c, 1, 40, 0
2, 61480, Note_off_c, 1, 45, 0
2, 61480, Note_off_c, 1, 56, 0
2, 61480, Note_off_c, 1, 61, 0
2, 61480, Note_off_c, 1, 68, 0
2, 61520, Note_on_c, 1, 41, 127
2, 61520, Note_on_c, 1, 53, 127
2, 61520, Note_on_c, 1, 65, 127
2, 61520, Note_on_c, 1, 68, 127
2, 61520, Note_on_c, 1, 73, 127
2, 61520, Note_on_c, 1, 77, 127
2, 61840, Note_off_c, 1, 41, 0
2, 61840, Note_off_c, 1, 53, 0
2, 61840, Note_off_c, 1, 65, 0
2, 61840, Note_off_c, 1, 68, 0
2, 61840, Note_off_c, 1, 73, 0
2, 61840, Note_off_c, 1, 77, 0
2, 61880, Note_on_c, 1, 68, 127
2, 61880, Note_on_c, 1, 89, 127
2, 61880, Note_on_c, 1, 97, 127
2, 61920, Note_on_c, 1, 54, 127
2, 61920, Note_off_c, 1, 68, 0
2, 61920, Note_on_c, 1, 69, 127
2, 61920, Note_on_c, 1, 73, 127
2, 61920, Note_on_c, 1, 76, 127
2, 61920, Note_off_c, 1, 89, 0
2, 61920, Note_off_c, 1, 97, 0
2, 61960, Note_off_c, 1, 54, 0
2, 61960, Note_on_c, 1, 62, 127
2, 61960, Note_off_c, 1, 69, 0
2, 61960, Note_off_c, 1, 73, 0
2, 61960, Note_on_c, 1, 77, 127
2, 61960, Note_on_c, 1, 81, 127
2, 62000, Note_on_c, 1, 43, 127
2, 62000, Note_on_c, 1, 48, 127
2, 62000, Note_on_c, 1, 51, 127
2, 62000, Note_on_c, 1, 55, 127
2, 62000, Note_on_c, 1, 60, 127
2, 62000, Note_off_c, 1, 62, 0
2, 62000, Note_on_c, 1, 63, 127
2, 62000, Note_on_c, 1, 67, 127
2, 62000, Note_on_c, 1, 72, 127
2, 62000, Note_off_c, 1, 76, 0
2, 62000, Note_off_c, 1, 77, 0
2, 62000, Note_off_c, 1, 81, 0
2, 62040, Note_off_c, 1, 43, 0
2, 62040, Note_on_c, 1, 46, 127
2, 62040, Note_off_c, 1, 48, 0
2, 62040, Note_on_c, 1, 50, 127
2, 62040, Note_off_c, 1, 51, 0
2, 62040, Note_off_c, 1, 60, 0
2, 62040, Note_off_c, 1, 63, 0
2, 62040, Note_off_c, 1, 67, 0
2, 62040, Note_off_c, 1, 72, 0
2, 62040, Note_on_c, 1, 94, 127
2, 62080, Note_off_c, 1, 46, 0
2, 62080, Note_off_c, 1, 50, 0
2, 62080, Note_off_c, 1, 55, 0
2, 62080, Note_on_c, 1, 70, 127
2, 62080, Note_on_c, 1, 77, 127
2, 62080, Note_on_c, 1, 86, 127
2, 62120, Note_on_c, 1, 47, 127
2, 62120, Note_on_c, 1, 54, 127
2, 62120, Note_on_c, 1, 57, 127
2, 62120, Note_on_c, 1, 63, 127
2, 62120, Note_on_c, 1, 69, 127
2, 62120, Note_off_c, 1, 70, 0
2, 62120, Note_on_c, 1, 73, 127
2, 62120, Note_off_c, 1, 77, 0
2, 62120, Note_off_c, 1, 86, 0
2, 62120, Note_off_c, 1, 94, 0
2, 62160, Note_off_c, 1, 47, 0
2, 62160, Note_off_c, 1, 54, 0
2, 62160, Note_off_c, 1, 57, 0
2, 62160, Note_off_c, 1, 63, 0
2, 62160, Note_off_c, 1, 69, 0
2, 62160, Note_off_c, 1, 73, 0
2, 62160, Note_on_c, 1, 82, 127
2, 62200, Note_off_c, 1, 82, 0
2, 62240, Note_on_c, 1, 58, 127
2, 62240, Note_on_c, 1, 63, 127
2, 62240, Note_on_c, 1, 82, 127
2, 62240, Note_on_c, 1, 89, 127
2, 62240, Note_on_c, 1, 94, 127
2, 62560, Note_off_c, 1, 58, 0
2, 62560, Note_off_c, 1, 63, 0
2, 62560, Note_off_c, 1, 82, 0
2, 62560, Note_off_c, 1, 89, 0
2, 62560, Note_off_c, 1, 94, 0
2, 62600, Note_on_c, 1, 58, 127
2, 62600, Note_on_c, 1, 63, 127
2, 62600, Note_on_c, 1, 82, 127
2, 62600, Note_on_c, 1, 89, 127
2, 62600, Note_on_c, 1, 94, 127
2, 62720, Note_off_c, 1, 58, 0
2, 62720, Note_off_c, 1, 63, 0
2, 62720, Note_off_c, 1, 82, 0
2, 62720, Note_off_c, 1, 89, 0
2, 62720, Note_off_c, 1, 94, 0
2, 62760, Note_on_c, 1, 58, 127
2, 62760, Note_on_c, 1, 63, 127
2, 62760, Note_on_c, 1, 82, 127
2, 62760, Note_on_c, 1, 89, 127
2, 62760, Note_on_c, 1, 94, 127
2, 62920, Note_off_c, 1, 58, 0
2, 62920, Note_off_c, 1, 63, 0
2, 62920, Note_off_c, 1, 82, 0
2, 62920, Note_off_c, 1, 89, 0
2, 62920, Note_off_c, 1, 94, 0
2, 62960, Note_on_c, 1, 53, 127
2, 62960, Note_on_c, 1, 63, 127
2, 62960, Note_on_c, 1, 65, 127
2, 62960, Note_on_c, 1, 69, 127
2, 62960, Note_on_c, 1, 74, 127
2, 62960, Note_on_c, 1, 77, 127
2, 63280, Note_off_c, 1, 53, 0
2, 63280, Note_off_c, 1, 63, 0
2, 63280, Note_off_c, 1, 69, 0
2, 63280, Note_off_c, 1, 74, 0
2, 63280, Note_off_c, 1, 77, 0
2, 63320, Note_on_c, 1, 48, 127
2, 63320, Note_on_c, 1, 52, 127
2, 63320, Note_on_c, 1, 55, 127
2, 63320, Note_off_c, 1, 65, 0
2, 63320, Note_on_c, 1, 88, 127
2, 63360, Note_off_c, 1, 48, 0
2, 63360, Note_off_c, 1, 52, 0
2, 63360, Note_on_c, 1, 53, 127
2, 63360, Note_off_c, 1, 55, 0
2, 63360, Note_on_c, 1, 57, 127
2, 63360, Note_on_c, 1, 60, 127
2, 63360, Note_on_c, 1, 65, 127
2, 63360, Note_off_c, 1, 88, 0
2, 63360, Note_on_c, 1, 98, 127
2, 63360, Note_on_c, 1, 99, 127
2, 63400, Note_on_c, 1, 33, 127
2, 63400, Note_on_c, 1, 36, 127
2, 63400, Note_on_c, 1, 41, 127
2, 63400, Note_on_c, 1, 45, 127
2, 63400, Note_off_c, 1, 53, 0
2, 63400, Note_off_c, 1, 60, 0
2, 63400, Note_off_c, 1, 65, 0
2, 63400, Note_off_c, 1, 98, 0
2, 63400, Note_off_c, 1, 99, 0
2, 63440, Note_off_c, 1, 33, 0
2, 63440, Note_off_c, 1, 36, 0
2, 63440, Note_off_c, 1, 41, 0
2, 63440, Note_off_c, 1, 45, 0
2, 63440, Note_off_c, 1, 57, 0
2, 63440, Note_on_c, 1, 67, 127
2, 63440, Note_on_c, 1, 71, 127
2, 63440, Note_on_c, 1, 74, 127
2, 63440, Note_on_c, 1, 91, 127
2, 63480, Note_on_c, 1, 61, 127
2, 63480, Note_on_c, 1, 64, 127
2, 63480, Note_on_c, 1, 69, 127
2, 63480, Note_off_c, 1, 71, 0
2, 63480, Note_on_c, 1, 73, 127
2, 63480, Note_off_c, 1, 74, 0
2, 63480, Note_off_c, 1, 91, 0
2, 63520, Note_on_c, 1, 41, 127
2, 63520, Note_on_c, 1, 53, 127
2, 63520, Note_on_c, 1, 58, 127
2, 63520, Note_off_c, 1, 64, 0
2, 63520, Note_on_c, 1, 65, 127
2, 63520, Note_off_c, 1, 67, 0
2, 63520, Note_off_c, 1, 69, 0
2, 63520, Note_on_c, 1, 70, 127
2, 63520, Note_off_c, 1, 73, 0
2, 63640, Note_off_c, 1, 41, 0
2, 63640, Note_off_c, 1, 53, 0
2, 63640, Note_off_c, 1, 58, 0
2, 63640, Note_off_c, 1, 61, 0
2, 63640, Note_off_c, 1, 65, 0
2, 63640, Note_off_c, 1, 70, 0
2, 63680, Note_on_c, 1, 55, 127
2, 63680, Note_on_c, 1, 57, 127
2, 63680, Note_on_c, 1, 64, 127
2, 63680, Note_on_c, 1, 83, 127
2, 63720, Note_on_c, 1, 50, 127
2, 63720, Note_off_c, 1, 55, 0
2, 63720, Note_on_c, 1, 60, 127
2, 63720, Note_on_c, 1, 63, 127
2, 63720, Note_off_c, 1, 64, 0
2, 63720, Note_on_c, 1, 67, 127
2, 63720, Note_off_c, 1, 83, 0
2, 63760, Note_on_c, 1, 32, 127
2, 63760, Note_off_c, 1, 50, 0
2, 63760, Note_off_c, 1, 57, 0
2, 63760, Note_off_c, 1, 60, 0
2, 63760, Note_off_c, 1, 63, 0
2, 63760, Note_off_c, 1, 67, 0
2, 63760, Note_on_c, 1, 68, 127
2, 63760, Note_on_c, 1, 76, 127
2, 63800, Note_off_c, 1, 32, 0
2, 63800, Note_on_c, 1, 43, 127
2, 63800, Note_off_c, 1, 68, 0
2, 63800, Note_off_c, 1, 76, 0
2, 63800, Note_on_c, 1, 81, 127
2, 63800, Note_on_c, 1, 83, 127
2, 63800, Note_on_c, 1, 86, 127
2, 63800, Note_on_c, 1, 93, 127
2, 63840, Note_on_c, 1, 48, 127
2, 63840, Note_on_c, 1, 52, 127
2, 63840, Note_on_c, 1, 74, 127
2, 63840, Note_off_c, 1, 81, 0
2, 63840, Note_off_c, 1, 83, 0
2, 63840, Note_off_c, 1, 86, 0
2, 63840, Note_off_c, 1, 93, 0
2, 63880, Note_on_c, 1, 33, 127
2, 63880, Note_off_c, 1, 43, 0
2, 63880, Note_on_c, 1, 45, 127
2, 63880, Note_off_c, 1, 48, 0
2, 63880, Note_off_c, 1, 52, 0
2, 63880, Note_on_c, 1, 71, 127
2, 63880, Note_off_c, 1, 74, 0
2, 63880, Note_on_c, 1, 76, 127
2, 63880, Note_on_c, 1, 83, 127
2, 63920, Note_off_c, 1, 33, 0
2, 63920, Note_on_c, 1, 48, 127
2, 63920, Note_on_c, 1, 53, 127
2, 63920, Note_off_c, 1, 71, 0
2, 63920, Note_off_c, 1, 76, 0
2, 63920, Note_off_c, 1, 83, 0
2, 63920, Note_on_c, 1, 84, 127
2, 63960, Note_off_c, 1, 45, 0
2, 63960, Note_off_c, 1, 48, 0
2, 63960, Note_off_c, 1, 53, 0
2, 63960, Note_on_c, 1, 88, 127
2, 64000, Note_off_c, 1, 84, 0
2, 64000, Note_off_c, 1, 88, 0
2, 64040, Note_on_c, 1, 45, 127
2, 64040, Note_on_c, 1, 50, 127
2, 64040, Note_on_c, 1, 59, 127
2, 64040, Note_on_c, 1, 68, 127
2, 64400, Note_off_c, 1, 45, 0
2, 64400, Note_on_c, 1, 55, 127
2, 64400, Note_on_c, 1, 58, 127
2, 64400, Note_off_c, 1, 59, 0
2, 64400, Note_on_c, 1, 61, 127
2, 64400, Note_off_c, 1, 68, 0
2, 64400, Note_on_c, 1, 79, 127
2, 64720, Note_off_c, 1, 50, 0
2, 64720, Note_off_c, 1, 55, 0
2, 64720, Note_off_c, 1, 58, 0
2, 64720, Note_off_c, 1, 61, 0
2, 64720, Note_off_c, 1, 79, 0
2, 64800, Note_on_c, 1, 46, 127
2, 64800, Note_on_c, 1, 55, 127
2, 64800, Note_on_c, 1, 62, 127
2, 64800, Note_on_c, 1, 79, 127
2, 64800, Note_on_c, 1, 91, 127
2, 65080, Note_off_c, 1, 46, 0
2, 65080, Note_off_c, 1, 55, 0
2, 65080, Note_off_c, 1, 62, 0
2, 65080, Note_off_c, 1, 79, 0
2, 65080, Note_off_c, 1, 91, 0
2, 65120, Note_on_c, 1, 34, 127
2, 65120, Note_on_c, 1, 53, 127
2, 65120, Note_on_c, 1, 58, 127
2, 65120, Note_on_c, 1, 62, 127
2, 65440, Note_off_c, 1, 34, 0
2, 65440, Note_off_c, 1, 53, 0
2, 65440, Note_off_c, 1, 58, 0
2, 65440, Note_off_c, 1, 62, 0
2, 65480, Note_on_c, 1, 41, 127
2, 65480, Note_on_c, 1, 53, 127
2, 65480, Note_on_c, 1, 57, 127
2, 65480, Note_on_c, 1, 60, 127
2, 65800, Note_off_c, 1, 41, 0
2, 65800, Note_off_c, 1, 53, 0
2, 65800, Note_off_c, 1, 57, 0
2, 65800, Note_off_c, 1, 60, 0
2, 65840, Note_on_c, 1, 37, 127
2, 65840, Note_on_c, 1, 42, 127
2, 65840, Note_on_c, 1, 49, 127
2, 65840, Note_on_c, 1, 54, 127
2, 65840, Note_on_c, 1, 58, 127
2, 65840, Note_on_c, 1, 61, 127
2, 66480, Note_off_c, 1, 37, 0
2, 66480, Note_off_c, 1, 42, 0
2, 66480, Note_off_c, 1, 49, 0
2, 66480, Note_off_c, 1, 54, 0
2, 66480, Note_off_c, 1, 58, 0
2, 66480, Note_off_c, 1, 61, 0
2, 66560, Note_on_c, 1, 37, 127
2, 66560, Note_on_c, 1, 42, 127
2, 66560, Note_on_c, 1, 49, 127
2, 66560, Note_on_c, 1, 54, 127
2, 66560, Note_on_c, 1, 58, 127
2, 66560, Note_on_c, 1, 61, 127
2, 66800, Note_off_c, 1, 37, 0
2, 66800, Note_off_c, 1, 42, 0
2, 66800, Note_off_c, 1, 49, 0
2, 66800, Note_off_c, 1, 54, 0
2, 66800, Note_off_c, 1, 58, 0
2, 66800, Note_off_c, 1, 61, 0
2, 66840, Note_on_c, 1, 37, 127
2, 66840, Note_on_c, 1, 42, 127
2, 66840, Note_on_c, 1, 49, 127
2, 66840, Note_on_c, 1, 54, 127
2, 66840, Note_on_c, 1, 58, 127
2, 66840, Note_on_c, 1, 61, 127
2, 66880, Note_off_c, 1, 37, 0
2, 66880, Note_off_c, 1, 42, 0
2, 66880, Note_off_c, 1, 49, 0
2, 66880, Note_off_c, 1, 54, 0
2, 66880, Note_off_c, 1, 58, 0
2, 66880, Note_off_c, 1, 61, 0
2, 66920, Note_on_c, 1, 38, 127
2, 66920, Note_on_c, 1, 43, 127
2, 66920, Note_on_c, 1, 50, 127
2, 66920, Note_on_c, 1, 55, 127
2, 66920, Note_on_c, 1, 59, 127
2, 67200, Note_off_c, 1, 38, 0
2, 67200, Note_off_c, 1, 43, 0
2, 67200, Note_off_c, 1, 50, 0
2, 67200, Note_on_c, 1, 52, 127
2, 67200, Note_off_c, 1, 55, 0
2, 67200, Note_off_c, 1, 59, 0
2, 67240, Note_off_c, 1, 52, 0
2, 67280, Note_on_c, 1, 60, 127
2, 67280, Note_on_c, 1, 63, 127
2, 67280, Note_on_c, 1, 69, 127
2, 67280, Note_on_c, 1, 81, 127
2, 67440, Note_off_c, 1, 81, 0
2, 67480, Note_on_c, 1, 81, 127
2, 67600, Note_off_c, 1, 60, 0
2, 67600, Note_off_c, 1, 63, 0
2, 67600, Note_off_c, 1, 69, 0
2, 67600, Note_off_c, 1, 81, 0
2, 67640, Note_on_c, 1, 60, 127
2, 67640, Note_on_c, 1, 63, 127
2, 67640, Note_on_c, 1, 69, 127
2, 67640, Note_on_c, 1, 81, 127
2, 67960, Note_off_c, 1, 60, 0
2, 67960, Note_off_c, 1, 63, 0
2, 67960, Note_off_c, 1, 69, 0
2, 67960, Note_off_c, 1, 81, 0
2, 68000, Note_on_c, 1, 51, 127
2, 68000, Note_on_c, 1, 56, 127
2, 68000, Note_on_c, 1, 63, 127
2, 68000, Note_on_c, 1, 68, 127
2, 68000, Note_on_c, 1, 72, 127
2, 68000, Note_on_c, 1, 78, 127
2, 68000, Note_on_c, 1, 80, 127
2, 68280, Note_off_c, 1, 51, 0
2, 68280, Note_off_c, 1, 56, 0
2, 68280, Note_off_c, 1, 63, 0
2, 68280, Note_off_c, 1, 68, 0
2, 68280, Note_off_c, 1, 72, 0
2, 68280, Note_off_c, 1, 78, 0
2, 68280, Note_off_c, 1, 80, 0
2, 68360, Note_on_c, 1, 55, 127
2, 68360, Note_on_c, 1, 58, 127
2, 68360, Note_on_c, 1, 60, 127
2, 68360, Note_on_c, 1, 72, 127
2, 68400, Note_on_c, 1, 45, 127
2, 68400, Note_on_c, 1, 53, 127
2, 68400, Note_off_c, 1, 55, 0
2, 68400, Note_off_c, 1, 58, 0
2, 68400, Note_off_c, 1, 60, 0
2, 68400, Note_on_c, 1, 64, 127
2, 68400, Note_off_c, 1, 72, 0
2, 68440, Note_off_c, 1, 45, 0
2, 68440, Note_off_c, 1, 53, 0
2, 68440, Note_on_c, 1, 55, 127
2, 68440, Note_on_c, 1, 58, 127
2, 68440, Note_on_c, 1, 60, 127
2, 68440, Note_off_c, 1, 64, 0
2, 68440, Note_on_c, 1, 72, 127
2, 68640, Note_off_c, 1, 55, 0
2, 68640, Note_off_c, 1, 58, 0
2, 68640, Note_off_c, 1, 60, 0
2, 68640, Note_off_c, 1, 72, 0
2, 68720, Note_on_c, 1, 53, 127
2, 68720, Note_on_c, 1, 60, 127
2, 68720, Note_on_c, 1, 65, 127
2, 68720, Note_on_c, 1, 69, 127
2, 68720, Note_on_c, 1, 77, 127
2, 69000, Note_off_c, 1, 53, 0
2, 69000, Note_off_c, 1, 60, 0
2, 69000, Note_off_c, 1, 65, 0
2, 69000, Note_off_c, 1, 69, 0
2, 69000, Note_off_c, 1, 77, 0
2, 69120, Note_on_c, 1, 39, 127
2, 69120, Note_on_c, 1, 46, 127
2, 69120, Note_on_c, 1, 67, 127
2, 69120, Note_on_c, 1, 70, 127
2, 69120, Note_on_c, 1, 75, 127
2, 69160, Note_off_c, 1, 39, 0
2, 69160, Note_on_c, 1, 55, 127
2, 69160, Note_on_c, 1, 65, 127
2, 69160, Note_off_c, 1, 67, 0
2, 69160, Note_off_c, 1, 70, 0
2, 69160, Note_on_c, 1, 73, 127
2, 69160, Note_off_c, 1, 75, 0
2, 69200, Note_off_c, 1, 46, 0
2, 69200, Note_off_c, 1, 55, 0
2, 69200, Note_on_c, 1, 60, 127
2, 69200, Note_on_c, 1, 63, 127
2, 69200, Note_on_c, 1, 72, 127
2, 69200, Note_off_c, 1, 73, 0
2, 69200, Note_on_c, 1, 75, 127
2, 69240, Note_on_c, 1, 45, 127
2, 69240, Note_on_c, 1, 54, 127
2, 69240, Note_on_c, 1, 57, 127
2, 69240, Note_off_c, 1, 60, 0
2, 69240, Note_off_c, 1, 63, 0
2, 69240, Note_off_c, 1, 65, 0
2, 69240, Note_on_c, 1, 66, 127
2, 69240, Note_off_c, 1, 72, 0
2, 69240, Note_off_c, 1, 75, 0
2, 69280, Note_off_c, 1, 45, 0
2, 69280, Note_off_c, 1, 54, 0
2, 69280, Note_on_c, 1, 55, 127
2, 69280, Note_off_c, 1, 57, 0
2, 69280, Note_on_c, 1, 64, 127
2, 69280, Note_off_c, 1, 66, 0
2, 69280, Note_on_c, 1, 67, 127
2, 69280, Note_on_c, 1, 83, 127
2, 69280, Note_on_c, 1, 86, 127
2, 69320, Note_off_c, 1, 83, 0
2, 69320, Note_on_c, 1, 85, 127
2, 69320, Note_off_c, 1, 86, 0
2, 69320, Note_on_c, 1, 88, 127
2, 69360, Note_on_c, 1, 43, 127
2, 69360, Note_on_c, 1, 48, 127
2, 69360, Note_off_c, 1, 55, 0
2, 69360, Note_off_c, 1, 67, 0
2, 69360, Note_on_c, 1, 70, 127
2, 69360, Note_off_c, 1, 85, 0
2, 69360, Note_off_c, 1, 88, 0
2, 69400, Note_off_c, 1, 43, 0
2, 69400, Note_off_c, 1, 48, 0
2, 69400, Note_off_c, 1, 64, 0
2, 69400, Note_off_c, 1, 70, 0
2, 69440, Note_on_c, 1, 48, 127
2, 69440, Note_on_c, 1, 52, 127
2, 69440, Note_on_c, 1, 57, 127
2, 69440, Note_on_c, 1, 60, 127
2, 69440, Note_on_c, 1, 69, 127
2, 69720, Note_off_c, 1, 48, 0
2, 69720, Note_off_c, 1, 52, 0
2, 69720, Note_off_c, 1, 57, 0
2, 69720, Note_off_c, 1, 60, 0
2, 69720, Note_off_c, 1, 69, 0
2, 69800, Note_on_c, 1, 48, 127
2, 69800, Note_on_c, 1, 55, 127
2, 69800, Note_on_c, 1, 60, 127
2, 69800, Note_on_c, 1, 64, 127
2, 69800, Note_on_c, 1, 67, 127
2, 70080, Note_off_c, 1, 55, 0
2, 70080, Note_on_c, 1, 57, 127
2, 70080, Note_off_c, 1, 60, 0
2, 70080, Note_off_c, 1, 67, 0
2, 70080, Note_on_c, 1, 69, 127
2, 70120, Note_off_c, 1, 48, 0
2, 70120, Note_on_c, 1, 55, 127
2, 70120, Note_off_c, 1, 57, 0
2, 70120, Note_on_c, 1, 60, 127
2, 70120, Note_on_c, 1, 67, 127
2, 70120, Note_off_c, 1, 69, 0
2, 70160, Note_off_c, 1, 55, 0
2, 70160, Note_on_c, 1, 59, 127
2, 70160, Note_off_c, 1, 64, 0
2, 70160, Note_off_c, 1, 67, 0
2, 70160, Note_on_c, 1, 72, 127
2, 70480, Note_off_c, 1, 59, 0
2, 70480, Note_off_c, 1, 60, 0
2, 70480, Note_off_c, 1, 72, 0
2, 70520, Note_on_c, 1, 32, 127
2, 70520, Note_on_c, 1, 44, 127
2, 70520, Note_on_c, 1, 51, 127
2, 70520, Note_on_c, 1, 60, 127
2, 70520, Note_on_c, 1, 63, 127
2, 70520, Note_on_c, 1, 68, 127
2, 70520, Note_on_c, 1, 72, 127
2, 71200, Note_off_c, 1, 32, 0
2, 71200, Note_off_c, 1, 44, 0
2, 71200, Note_off_c, 1, 51, 0
2, 71200, Note_off_c, 1, 60, 0
2, 71200, Note_off_c, 1, 63, 0
2, 71200, Note_off_c, 1, 68, 0
2, 71200, Note_off_c, 1, 72, 0
2, 71240, Note_on_c, 1, 32, 127
2, 71240, Note_on_c, 1, 44, 127
2, 71240, Note_on_c, 1, 51, 127
2, 71240, Note_on_c, 1, 60, 127
2, 71240, Note_on_c, 1, 63, 127
2, 71240, Note_on_c, 1, 68, 127
2, 71240, Note_on_c, 1, 72, 127
2, 71560, Note_off_c, 1, 32, 0
2, 71560, Note_off_c, 1, 44, 0
2, 71560, Note_off_c, 1, 51, 0
2, 71560, Note_off_c, 1, 60, 0
2, 71560, Note_off_c, 1, 63, 0
2, 71560, Note_off_c, 1, 68, 0
2, 71560, Note_off_c, 1, 72, 0
2, 71640, Note_on_c, 1, 33, 127
2, 71640, Note_on_c, 1, 45, 127
2, 71640, Note_on_c, 1, 60, 127
2, 71640, Note_on_c, 1, 67, 127
2, 71640, Note_on_c, 1, 72, 127
2, 71920, Note_off_c, 1, 33, 0
2, 71920, Note_off_c, 1, 45, 0
2, 71920, Note_off_c, 1, 60, 0
2, 71920, Note_off_c, 1, 67, 0
2, 71920, Note_off_c, 1, 72, 0
2, 71960, Note_on_c, 1, 33, 127
2, 71960, Note_on_c, 1, 45, 127
2, 71960, Note_on_c, 1, 60, 127
2, 71960, Note_on_c, 1, 67, 127
2, 71960, Note_on_c, 1, 72, 127
2, 72280, Note_off_c, 1, 33, 0
2, 72280, Note_off_c, 1, 45, 0
2, 72280, Note_off_c, 1, 60, 0
2, 72280, Note_off_c, 1, 67, 0
2, 72280, Note_off_c, 1, 72, 0
2, 72320, Note_on_c, 1, 33, 127
2, 72320, Note_on_c, 1, 45, 127
2, 72320, Note_on_c, 1, 60, 127
2, 72320, Note_on_c, 1, 67, 127
2, 72320, Note_on_c, 1, 72, 127
2, 72640, Note_off_c, 1, 33, 0
2, 72640, Note_off_c, 1, 45, 0
2, 72640, Note_on_c, 1, 55, 127
2, 72640, Note_off_c, 1, 60, 0
2, 72640, Note_off_c, 1, 72, 0
2, 72680, Note_on_c, 1, 64, 127
2, 72680, Note_on_c, 1, 79, 127
2, 72960, Note_off_c, 1, 55, 0
2, 72960, Note_off_c, 1, 64, 0
2, 72960, Note_off_c, 1, 67, 0
2, 72960, Note_off_c, 1, 79, 0
2, 73040, Note_on_c, 1, 55, 127
2, 73040, Note_on_c, 1, 64, 127
2, 73040, Note_on_c, 1, 67, 127
2, 73040, Note_on_c, 1, 79, 127
2, 73320, Note_off_c, 1, 55, 0
2, 73320, Note_off_c, 1, 64, 0
2, 73320, Note_off_c, 1, 67, 0
2, 73320, Note_off_c, 1, 79, 0
2, 73360, Note_on_c, 1, 55, 127
2, 73360, Note_on_c, 1, 64, 127
2, 73360, Note_on_c, 1, 67, 127
2, 73360, Note_on_c, 1, 79, 127
2, 73720, Note_off_c, 1, 55, 0
2, 73720, Note_off_c, 1, 64, 0
2, 73720, Note_off_c, 1, 67, 0
2, 73760, Note_off_c, 1, 79, 0
2, 73800, Note_on_c, 1, 45, 127
2, 73800, Note_on_c, 1, 57, 127
2, 73800, Note_on_c, 1, 60, 127
2, 73800, Note_on_c, 1, 65, 127
2, 73800, Note_on_c, 1, 72, 127
2, 74080, Note_off_c, 1, 45, 0
2, 74080, Note_off_c, 1, 57, 0
2, 74080, Note_off_c, 1, 60, 0
2, 74080, Note_off_c, 1, 65, 0
2, 74080, Note_off_c, 1, 72, 0
2, 74120, Note_on_c, 1, 45, 127
2, 74120, Note_on_c, 1, 57, 127
2, 74120, Note_on_c, 1, 60, 127
2, 74120, Note_on_c, 1, 65, 127
2, 74120, Note_on_c, 1, 72, 127
2, 74440, Note_off_c, 1, 45, 0
2, 74440, Note_off_c, 1, 57, 0
2, 74440, Note_off_c, 1, 60, 0
2, 74440, Note_off_c, 1, 65, 0
2, 74440, Note_off_c, 1, 72, 0
2, 74480, Note_on_c, 1, 37, 127
2, 74480, Note_on_c, 1, 45, 127
2, 74480, Note_on_c, 1, 88, 127
2, 74480, Note_on_c, 1, 91, 127
2, 74520, Note_off_c, 1, 37, 0
2, 74520, Note_off_c, 1, 45, 0
2, 74520, Note_on_c, 1, 46, 127
2, 74520, Note_on_c, 1, 49, 127
2, 74520, Note_on_c, 1, 52, 127
2, 74520, Note_on_c, 1, 55, 127
2, 74520, Note_on_c, 1, 67, 127
2, 74520, Note_off_c, 1, 88, 0
2, 74520, Note_off_c, 1, 91, 0
2, 74560, Note_on_c, 1, 45, 127
2, 74560, Note_off_c, 1, 46, 0
2, 74560, Note_off_c, 1, 55, 0
2, 74560, Note_on_c, 1, 57, 127
2, 74560, Note_off_c, 1, 67, 0
2, 74560, Note_on_c, 1, 74, 127
2, 74600, Note_on_c, 1, 37, 127
2, 74600, Note_off_c, 1, 49, 0
2, 74600, Note_off_c, 1, 52, 0
2, 74600, Note_off_c, 1, 57, 0
2, 74600, Note_off_c, 1, 74, 0
2, 74600, Note_on_c, 1, 88, 127
2, 74600, Note_on_c, 1, 91, 127
2, 74640, Note_off_c, 1, 37, 0
2, 74640, Note_off_c, 1, 45, 0
2, 74640, Note_on_c, 1, 48, 127
2, 74640, Note_on_c, 1, 65, 127
2, 74640, Note_on_c, 1, 67, 127
2, 74640, Note_on_c, 1, 69, 127
2, 74640, Note_on_c, 1, 75, 127
2, 74640, Note_on_c, 1, 79, 127
2, 74640, Note_off_c, 1, 88, 0
2, 74640, Note_off_c, 1, 91, 0
2, 74680, Note_on_c, 1, 37, 127
2, 74680, Note_on_c, 1, 45, 127
2, 74680, Note_off_c, 1, 48, 0
2, 74680, Note_off_c, 1, 65, 0
2, 74680, Note_off_c, 1, 67, 0
2, 74680, Note_off_c, 1, 69, 0
2, 74680, Note_off_c, 1, 75, 0
2, 74680, Note_off_c, 1, 79, 0
2, 74680, Note_on_c, 1, 88, 127
2, 74680, Note_on_c, 1, 91, 127
2, 74720, Note_off_c, 1, 37, 0
2, 74720, Note_off_c, 1, 45, 0
2, 74720, Note_on_c, 1, 55, 127
2, 74720, Note_on_c, 1, 58, 127
2, 74720, Note_on_c, 1, 62, 127
2, 74720, Note_on_c, 1, 67, 127
2, 74720, Note_on_c, 1, 70, 127
2, 74720, Note_off_c, 1, 88, 0
2, 74720, Note_off_c, 1, 91, 0
2, 74760, Note_on_c, 1, 50, 127
2, 74760, Note_off_c, 1, 55, 0
2, 74760, Note_off_c, 1, 58, 0
2, 74760, Note_off_c, 1, 67, 0
2, 74760, Note_off_c, 1, 70, 0
2, 74760, Note_on_c, 1, 78, 127
2, 74760, Note_on_c, 1, 93, 127
2, 74800, Note_off_c, 1, 50, 0
2, 74800, Note_off_c, 1, 62, 0
2, 74800, Note_off_c, 1, 78, 0
2, 74800, Note_off_c, 1, 93, 0
2, 74840, Note_on_c, 1, 45, 127
2, 74840, Note_on_c, 1, 52, 127
2, 74840, Note_on_c, 1, 57, 127
2, 74840, Note_on_c, 1, 61, 127
2, 74840, Note_on_c, 1, 67, 127
2, 74840, Note_on_c, 1, 73, 127
2, 75120, Note_off_c, 1, 45, 0
2, 75120, Note_off_c, 1, 52, 0
2, 75120, Note_off_c, 1, 57, 0
2, 75120, Note_off_c, 1, 61, 0
2, 75120, Note_off_c, 1, 67, 0
2, 75120, Note_off_c, 1, 73, 0
2, 75200, Note_on_c, 1, 45, 127
2, 75200, Note_on_c, 1, 52, 127
2, 75200, Note_on_c, 1, 57, 127
2, 75200, Note_on_c, 1, 61, 127
2, 75200, Note_on_c, 1, 67, 127
2, 75200, Note_on_c, 1, 73, 127
2, 75440, Note_off_c, 1, 45, 0
2, 75440, Note_off_c, 1, 52, 0
2, 75440, Note_off_c, 1, 57, 0
2, 75440, Note_off_c, 1, 61, 0
2, 75440, Note_off_c, 1, 67, 0
2, 75440, Note_off_c, 1, 73, 0
2, 75600, Note_on_c, 1, 45, 127
2, 75600, Note_on_c, 1, 52, 127
2, 75600, Note_on_c, 1, 57, 127
2, 75600, Note_on_c, 1, 61, 127
2, 75600, Note_on_c, 1, 67, 127
2, 75600, Note_on_c, 1, 73, 127
2, 75880, Note_off_c, 1, 45, 0
2, 75880, Note_off_c, 1, 52, 0
2, 75880, Note_off_c, 1, 57, 0
2, 75880, Note_off_c, 1, 61, 0
2, 75880, Note_off_c, 1, 67, 0
2, 75880, Note_off_c, 1, 73, 0
2, 75920, Note_on_c, 1, 45, 127
2, 75920, Note_on_c, 1, 52, 127
2, 75920, Note_on_c, 1, 57, 127
2, 75920, Note_on_c, 1, 61, 127
2, 75920, Note_on_c, 1, 67, 127
2, 75920, Note_on_c, 1, 73, 127
2, 76240, Note_off_c, 1, 45, 0
2, 76240, Note_off_c, 1, 52, 0
2, 76240, Note_off_c, 1, 57, 0
2, 76240, Note_off_c, 1, 61, 0
2, 76240, Note_off_c, 1, 67, 0
2, 76240, Note_off_c, 1, 73, 0
2, 76280, Note_on_c, 1, 45, 127
2, 76280, Note_on_c, 1, 52, 127
2, 76280, Note_on_c, 1, 57, 127
2, 76280, Note_on_c, 1, 61, 127
2, 76280, Note_on_c, 1, 67, 127
2, 76280, Note_on_c, 1, 73, 127
2, 76560, Note_off_c, 1, 45, 0
2, 76560, Note_off_c, 1, 52, 0
2, 76560, Note_off_c, 1, 57, 0
2, 76560, Note_off_c, 1, 61, 0
2, 76560, Note_off_c, 1, 67, 0
2, 76560, Note_off_c, 1, 73, 0
2, 76640, Note_on_c, 1, 49, 127
2, 76640, Note_on_c, 1, 61, 127
2, 76640, Note_on_c, 1, 64, 127
2, 76640, Note_on_c, 1, 67, 127
2, 76640, Note_on_c, 1, 71, 127
2, 76960, Note_off_c, 1, 49, 0
2, 76960, Note_off_c, 1, 61, 0
2, 76960, Note_off_c, 1, 64, 0
2, 76960, Note_off_c, 1, 67, 0
2, 76960, Note_off_c, 1, 71, 0
2, 77000, Note_on_c, 1, 55, 127
2, 77000, Note_on_c, 1, 58, 127
2, 77000, Note_on_c, 1, 64, 127
2, 77000, Note_on_c, 1, 72, 127
2, 77280, Note_off_c, 1, 55, 0
2, 77280, Note_off_c, 1, 58, 0
2, 77280, Note_off_c, 1, 64, 0
2, 77320, Note_off_c, 1, 72, 0
2, 77360, Note_on_c, 1, 48, 127
2, 77360, Note_on_c, 1, 60, 127
2, 77360, Note_on_c, 1, 65, 127
2, 77360, Note_on_c, 1, 69, 127
2, 77360, Note_on_c, 1, 72, 127
2, 77640, Note_off_c, 1, 48, 0
2, 77640, Note_off_c, 1, 60, 0
2, 77640, Note_off_c, 1, 65, 0
2, 77640, Note_off_c, 1, 69, 0
2, 77640, Note_off_c, 1, 72, 0
2, 77760, Note_on_c, 1, 53, 127
2, 77760, Note_on_c, 1, 60, 127
2, 77760, Note_on_c, 1, 65, 127
2, 77760, Note_on_c, 1, 69, 127
2, 77760, Note_on_c, 1, 81, 127
2, 77880, Note_off_c, 1, 81, 0
2, 77880, Note_on_c, 1, 82, 127
2, 77920, Note_on_c, 1, 81, 127
2, 77920, Note_off_c, 1, 82, 0
2, 78000, Note_off_c, 1, 53, 0
2, 78000, Note_off_c, 1, 60, 0
2, 78000, Note_off_c, 1, 65, 0
2, 78000, Note_off_c, 1, 69, 0
2, 78000, Note_off_c, 1, 81, 0
2, 78000, Note_on_c, 1, 84, 127
2, 78040, Note_off_c, 1, 84, 0
2, 78080, Note_on_c, 1, 53, 127
2, 78080, Note_on_c, 1, 60, 127
2, 78080, Note_on_c, 1, 65, 127
2, 78080, Note_on_c, 1, 69, 127
2, 78080, Note_on_c, 1, 82, 127
2, 78320, Note_off_c, 1, 53, 0
2, 78320, Note_off_c, 1, 60, 0
2, 78320, Note_off_c, 1, 65, 0
2, 78320, Note_off_c, 1, 69, 0
2, 78400, Note_off_c, 1, 82, 0
2, 78440, Note_on_c, 1, 64, 127
2, 78440, Note_on_c, 1, 71, 127
2, 78440, Note_on_c, 1, 83, 127
2, 78440, Note_on_c, 1, 90, 127
2, 78480, Note_on_c, 1, 59, 127
2, 78480, Note_on_c, 1, 67, 127
2, 78480, Note_off_c, 1, 71, 0
2, 78480, Note_on_c, 1, 75, 127
2, 78480, Note_on_c, 1, 79, 127
2, 78480, Note_off_c, 1, 83, 0
2, 78480, Note_off_c, 1, 90, 0
2, 78520, Note_on_c, 1, 54, 127
2, 78520, Note_on_c, 1, 57, 127
2, 78520, Note_on_c, 1, 63, 127
2, 78520, Note_off_c, 1, 64, 0
2, 78520, Note_off_c, 1, 67, 0
2, 78520, Note_off_c, 1, 75, 0
2, 78520, Note_off_c, 1, 79, 0
2, 78520, Note_on_c, 1, 84, 127
2, 78560, Note_on_c, 1, 41, 127
2, 78560, Note_on_c, 1, 53, 127
2, 78560, Note_off_c, 1, 54, 0
2, 78560, Note_off_c, 1, 59, 0
2, 78560, Note_on_c, 1, 60, 127
2, 78560, Note_off_c, 1, 63, 0
2, 78560, Note_on_c, 1, 65, 127
2, 78560, Note_on_c, 1, 69, 127
2, 78560, Note_on_c, 1, 77, 127
2, 78560, Note_on_c, 1, 81, 127
2, 78560, Note_off_c, 1, 84, 0
2, 78560, Note_on_c, 1, 89, 127
2, 78600, Note_off_c, 1, 41, 0
2, 78600, Note_on_c, 1, 49, 127
2, 78600, Note_off_c, 1, 57, 0
2, 78600, Note_on_c, 1, 59, 127
2, 78600, Note_off_c, 1, 60, 0
2, 78600, Note_off_c, 1, 65, 0
2, 78600, Note_on_c, 1, 68, 127
2, 78600, Note_off_c, 1, 69, 0
2, 78600, Note_on_c, 1, 73, 127
2, 78600, Note_off_c, 1, 77, 0
2, 78600, Note_off_c, 1, 81, 0
2, 78600, Note_off_c, 1, 89, 0
2, 78640, Note_off_c, 1, 49, 0
2, 78640, Note_off_c, 1, 53, 0
2, 78640, Note_off_c, 1, 59, 0
2, 78640, Note_off_c, 1, 68, 0
2, 78640, Note_off_c, 1, 73, 0
2, 78640, Note_on_c, 1, 75, 127
2, 78640, Note_on_c, 1, 81, 127
2, 78640, Note_on_c, 1, 89, 127
2, 78680, Note_on_c, 1, 40, 127
2, 78680, Note_on_c, 1, 44, 127
2, 78680, Note_off_c, 1, 75, 0
2, 78680, Note_on_c, 1, 80, 127
2, 78680, Note_off_c, 1, 81, 0
2, 78680, Note_off_c, 1, 89, 0
2, 78720, Note_off_c, 1, 40, 0
2, 78720, Note_off_c, 1, 44, 0
2, 78720, Note_off_c, 1, 80, 0
2, 78720, Note_on_c, 1, 81, 127
2, 78760, Note_off_c, 1, 81, 0
2, 78800, Note_on_c, 1, 41, 127
2, 78800, Note_on_c, 1, 53, 127
2, 78800, Note_on_c, 1, 83, 127
2, 78800, Note_on_c, 1, 86, 127
2, 78800, Note_on_c, 1, 95, 127
2, 79080, Note_off_c, 1, 41, 0
2, 79080, Note_off_c, 1, 53, 0
2, 79080, Note_on_c, 1, 69, 127
2, 79080, Note_off_c, 1, 83, 0
2, 79080, Note_off_c, 1, 86, 0
2, 79080, Note_off_c, 1, 95, 0
2, 79120, Note_on_c, 1, 33, 127
2, 79120, Note_on_c, 1, 62, 127
2, 79120, Note_off_c, 1, 69, 0
2, 79120, Note_on_c, 1, 86, 127
2, 79160, Note_off_c, 1, 33, 0
2, 79160, Note_on_c, 1, 53, 127
2, 79160, Note_off_c, 1, 62, 0
2, 79160, Note_on_c, 1, 77, 127
2, 79160, Note_on_c, 1, 82, 127
2, 79160, Note_on_c, 1, 89, 127
2, 79360, Note_off_c, 1, 53, 0
2, 79400, Note_on_c, 1, 41, 127
2, 79400, Note_on_c, 1, 53, 127
2, 79400, Note_on_c, 1, 72, 127
2, 79400, Note_on_c, 1, 80, 127
2, 79400, Note_off_c, 1, 82, 0
2, 79400, Note_on_c, 1, 84, 127
2, 79400, Note_off_c, 1, 86, 0
2, 79400, Note_off_c, 1, 89, 0
2, 79440, Note_off_c, 1, 41, 0
2, 79440, Note_off_c, 1, 53, 0
2, 79440, Note_off_c, 1, 72, 0
2, 79440, Note_off_c, 1, 77, 0
2, 79440, Note_off_c, 1, 80, 0
2, 79440, Note_off_c, 1, 84, 0
2, 79480, Note_on_c, 1, 52, 127
2, 79480, Note_on_c, 1, 55, 127
2, 79480, Note_on_c, 1, 58, 127
2, 79480, Note_on_c, 1, 60, 127
2, 79480, Note_on_c, 1, 67, 127
2, 79720, Note_off_c, 1, 52, 0
2, 79720, Note_off_c, 1, 55, 0
2, 79720, Note_off_c, 1, 58, 0
2, 79720, Note_off_c, 1, 60, 0
2, 79720, Note_off_c, 1, 67, 0
2, 79760, Note_on_c, 1, 52, 127
2, 79760, Note_on_c, 1, 55, 127
2, 79760, Note_on_c, 1, 58, 127
2, 79760, Note_on_c, 1, 60, 127
2, 79760, Note_on_c, 1, 67, 127
2, 79800, Note_off_c, 1, 67, 0
2, 79840, Note_on_c, 1, 67, 127
2, 80000, Note_off_c, 1, 67, 0
2, 80040, Note_on_c, 1, 33, 127
2, 80040, Note_on_c, 1, 45, 127
2, 80040, Note_off_c, 1, 52, 0
2, 80040, Note_on_c, 1, 53, 127
2, 80040, Note_off_c, 1, 55, 0
2, 80040, Note_off_c, 1, 58, 0
2, 80040, Note_off_c, 1, 60, 0
2, 80040, Note_on_c, 1, 65, 127
2, 80040, Note_on_c, 1, 73, 127
2, 80040, Note_on_c, 1, 81, 127
2, 80080, Note_off_c, 1, 33, 0
2, 80080, Note_off_c, 1, 45, 0
2, 80080, Note_on_c, 1, 51, 127
2, 80080, Note_off_c, 1, 53, 0
2, 80080, Note_on_c, 1, 63, 127
2, 80080, Note_off_c, 1, 65, 0
2, 80080, Note_off_c, 1, 73, 0
2, 80080, Note_on_c, 1, 75, 127
2, 80080, Note_off_c, 1, 81, 0
2, 80080, Note_on_c, 1, 82, 127
2, 80080, Note_on_c, 1, 87, 127
2, 80120, Note_off_c, 1, 51, 0
2, 80120, Note_on_c, 1, 53, 127
2, 80120, Note_on_c, 1, 57, 127
2, 80120, Note_on_c, 1, 60, 127
2, 80120, Note_on_c, 1, 73, 127
2, 80120, Note_off_c, 1, 75, 0
2, 80120, Note_off_c, 1, 82, 0
2, 80120, Note_off_c, 1, 87, 0
2, 80160, Note_off_c, 1, 53, 0
2, 80160, Note_off_c, 1, 57, 0
2, 80160, Note_off_c, 1, 60, 0
2, 80160, Note_off_c, 1, 63, 0
2, 80160, Note_off_c, 1, 73, 0
2, 80200, Note_on_c, 1, 54, 127
2, 80200, Note_on_c, 1, 58, 127
2, 80200, Note_on_c, 1, 64, 127
2, 80200, Note_on_c, 1, 78, 127
2, 80200, Note_on_c, 1, 85, 127
2, 80480, Note_off_c, 1, 54, 0
2, 80480, Note_off_c, 1, 64, 0
2, 80480, Note_on_c, 1, 70, 127
2, 80480, Note_off_c, 1, 78, 0
2, 80480, Note_off_c, 1, 85, 0
2, 80520, Note_off_c, 1, 58, 0
2, 80520, Note_off_c, 1, 70, 0
2, 80560, Note_on_c, 1, 56, 127
2, 80560, Note_on_c, 1, 61, 127
2, 80560, Note_on_c, 1, 63, 127
2, 80560, Note_on_c, 1, 65, 127
2, 80600, Note_on_c, 1, 45, 127
2, 80600, Note_on_c, 1, 53, 127
2, 80600, Note_off_c, 1, 56, 0
2, 80600, Note_on_c, 1, 57, 127
2, 80600, Note_off_c, 1, 61, 0
2, 80600, Note_off_c, 1, 65, 0
2, 80600, Note_on_c, 1, 74, 127
2, 80640, Note_off_c, 1, 45, 0
2, 80640, Note_off_c, 1, 53, 0
2, 80640, Note_on_c, 1, 54, 127
2, 80640, Note_off_c, 1, 57, 0
2, 80640, Note_on_c, 1, 58, 127
2, 80640, Note_on_c, 1, 62, 127
2, 80640, Note_off_c, 1, 63, 0
2, 80640, Note_off_c, 1, 74, 0
2, 80640, Note_on_c, 1, 78, 127
2, 80640, Note_on_c, 1, 90, 127
2, 80680, Note_on_c, 1, 45, 127
2, 80680, Note_on_c, 1, 53, 127
2, 80680, Note_off_c, 1, 54, 0
2, 80680, Note_on_c, 1, 57, 127
2, 80680, Note_off_c, 1, 58, 0
2, 80680, Note_off_c, 1, 62, 0
2, 80680, Note_on_c, 1, 63, 127
2, 80680, Note_on_c, 1, 74, 127
2, 80680, Note_off_c, 1, 78, 0
2, 80680, Note_off_c, 1, 90, 0
2, 81200, Note_off_c, 1, 45, 0
2, 81200, Note_off_c, 1, 53, 0
2, 81200, Note_off_c, 1, 57, 0
2, 81200, Note_off_c, 1, 63, 0
2, 81200, Note_off_c, 1, 74, 0
2, 81240, Note_on_c, 1, 47, 127
2, 81240, Note_on_c, 1, 52, 127
2, 81240, Note_on_c, 1, 57, 127
2, 81240, Note_on_c, 1, 64, 127
2, 81560, Note_off_c, 1, 47, 0
2, 81560, Note_off_c, 1, 52, 0
2, 81560, Note_off_c, 1, 57, 0
2, 81600, Note_on_c, 1, 38, 127
2, 81600, Note_on_c, 1, 50, 127
2, 81600, Note_off_c, 1, 64, 0
2, 81600, Note_on_c, 1, 84, 127
2, 81600, Note_on_c, 1, 90, 127
2, 81600, Note_on_c, 1, 93, 127
2, 81800, Note_off_c, 1, 38, 0
2, 81800, Note_off_c, 1, 50, 0
2, 81800, Note_off_c, 1, 84, 0
2, 81800, Note_off_c, 1, 90, 0
2, 81800, Note_off_c, 1, 93, 0
2, 81840, Note_on_c, 1, 38, 127
2, 81840, Note_on_c, 1, 50, 127
2, 81840, Note_on_c, 1, 84, 127
2, 81840, Note_on_c, 1, 90, 127
2, 81840, Note_on_c, 1, 93, 127
2, 81960, Note_off_c, 1, 38, 0
2, 81960, Note_off_c, 1, 50, 0
2, 81960, Note_off_c, 1, 84, 0
2, 81960, Note_off_c, 1, 90, 0
2, 81960, Note_off_c, 1, 93, 0
2, 82000, Note_on_c, 1, 55, 127
2, 82000, Note_on_c, 1, 57, 127
2, 82000, Note_on_c, 1, 63, 127
2, 82000, Note_on_c, 1, 75, 127
2, 82240, Note_off_c, 1, 55, 0
2, 82240, Note_off_c, 1, 57, 0
2, 82240, Note_off_c, 1, 63, 0
2, 82240, Note_on_c, 1, 74, 127
2, 82240, Note_off_c, 1, 75, 0
2, 82320, Note_on_c, 1, 55, 127
2, 82320, Note_on_c, 1, 57, 127
2, 82320, Note_on_c, 1, 63, 127
2, 82320, Note_off_c, 1, 74, 0
2, 82320, Note_on_c, 1, 75, 127
2, 82480, Note_off_c, 1, 55, 0
2, 82480, Note_off_c, 1, 57, 0
2, 82480, Note_off_c, 1, 63, 0
2, 82480, Note_on_c, 1, 74, 127
2, 82480, Note_off_c, 1, 75, 0
2, 82520, Note_on_c, 1, 55, 127
2, 82520, Note_on_c, 1, 57, 127
2, 82520, Note_on_c, 1, 63, 127
2, 82520, Note_off_c, 1, 74, 0
2, 82520, Note_on_c, 1, 75, 127
2, 82600, Note_off_c, 1, 55, 0
2, 82600, Note_off_c, 1, 57, 0
2, 82600, Note_off_c, 1, 63, 0
2, 82600, Note_on_c, 1, 74, 127
2, 82600, Note_off_c, 1, 75, 0
2, 82680, Note_on_c, 1, 55, 127
2, 82680, Note_on_c, 1, 57, 127
2, 82680, Note_on_c, 1, 63, 127
2, 82680, Note_off_c, 1, 74, 0
2, 82680, Note_on_c, 1, 75, 127
2, 82800, Note_off_c, 1, 55, 0
2, 82800, Note_off_c, 1, 57, 0
2, 82800, Note_off_c, 1, 63, 0
2, 82800, Note_on_c, 1, 74, 127
2, 82800, Note_off_c, 1, 75, 0
2, 82840, Note_on_c, 1, 55, 127
2, 82840, Note_on_c, 1, 57, 127
2, 82840, Note_on_c, 1, 63, 127
2, 82840, Note_off_c, 1, 74, 0
2, 82840, Note_on_c, 1, 75, 127
2, 82960, Note_off_c, 1, 55, 0
2, 82960, Note_off_c, 1, 57, 0
2, 82960, Note_off_c, 1, 63, 0
2, 82960, Note_on_c, 1, 74, 127
2, 82960, Note_off_c, 1, 75, 0
2, 83040, Note_on_c, 1, 55, 127
2, 83040, Note_on_c, 1, 57, 127
2, 83040, Note_on_c, 1, 63, 127
2, 83040, Note_off_c, 1, 74, 0
2, 83040, Note_on_c, 1, 75, 127
2, 83080, Note_on_c, 1, 74, 127
2, 83080, Note_off_c, 1, 75, 0
2, 83120, Note_off_c, 1, 74, 0
2, 83120, Note_on_c, 1, 75, 127
2, 83160, Note_off_c, 1, 55, 0
2, 83160, Note_off_c, 1, 57, 0
2, 83160, Note_off_c, 1, 63, 0
2, 83160, Note_on_c, 1, 74, 127
2, 83160, Note_off_c, 1, 75, 0
2, 83200, Note_on_c, 1, 55, 127
2, 83200, Note_on_c, 1, 57, 127
2, 83200, Note_on_c, 1, 63, 127
2, 83200, Note_off_c, 1, 74, 0
2, 83200, Note_on_c, 1, 75, 127
2, 83280, Note_off_c, 1, 55, 0
2, 83280, Note_off_c, 1, 57, 0
2, 83280, Note_off_c, 1, 63, 0
2, 83280, Note_on_c, 1, 74, 127
2, 83280, Note_off_c, 1, 75, 0
2, 83360, Note_on_c, 1, 55, 127
2, 83360, Note_on_c, 1, 57, 127
2, 83360, Note_on_c, 1, 63, 127
2, 83360, Note_off_c, 1, 74, 0
2, 83360, Note_on_c, 1, 75, 127
2, 83480, Note_off_c, 1, 55, 0
2, 83480, Note_off_c, 1, 57, 0
2, 83480, Note_off_c, 1, 63, 0
2, 83480, Note_on_c, 1, 74, 127
2, 83480, Note_off_c, 1, 75, 0
2, 83560, Note_on_c, 1, 55, 127
2, 83560, Note_on_c, 1, 57, 127
2, 83560, Note_on_c, 1, 63, 127
2, 83560, Note_off_c, 1, 74, 0
2, 83560, Note_on_c, 1, 75, 127
2, 83640, Note_off_c, 1, 55, 0
2, 83640, Note_off_c, 1, 57, 0
2, 83640, Note_off_c, 1, 63, 0
2, 83640, Note_on_c, 1, 74, 127
2, 83640, Note_off_c, 1, 75, 0
2, 83720, Note_on_c, 1, 43, 127
2, 83720, Note_on_c, 1, 55, 127
2, 83720, Note_on_c, 1, 70, 127
2, 83720, Note_on_c, 1, 76, 127
2, 83720, Note_on_c, 1, 82, 127
2, 83760, Note_on_c, 1, 26, 127
2, 83760, Note_on_c, 1, 30, 127
2, 83760, Note_on_c, 1, 33, 127
2, 83760, Note_on_c, 1, 38, 127
2, 83760, Note_off_c, 1, 43, 0
2, 83760, Note_on_c, 1, 50, 127
2, 83760, Note_off_c, 1, 55, 0
2, 83760, Note_on_c, 1, 62, 127
2, 83760, Note_off_c, 1, 70, 0
2, 83760, Note_off_c, 1, 74, 0
2, 83760, Note_off_c, 1, 76, 0
2, 83760, Note_off_c, 1, 82, 0
2, 83800, Note_off_c, 1, 26, 0
2, 83800, Note_off_c, 1, 30, 0
2, 83800, Note_off_c, 1, 33, 0
2, 83800, Note_off_c, 1, 38, 0
2, 83800, Note_off_c, 1, 50, 0
2, 83800, Note_on_c, 1, 59, 127
2, 83800, Note_off_c, 1, 62, 0
2, 83800, Note_on_c, 1, 74, 127
2, 83800, Note_on_c, 1, 76, 127
2, 83800, Note_on_c, 1, 81, 127
2, 83840, Note_off_c, 1, 59, 0
2, 83840, Note_on_c, 1, 68, 127
2, 83840, Note_off_c, 1, 74, 0
2, 83840, Note_off_c, 1, 76, 0
2, 83840, Note_off_c, 1, 81, 0
2, 83840, Note_on_c, 1, 87, 127
2, 83840, Note_on_c, 1, 91, 127
2, 83880, Note_on_c, 1, 38, 127
2, 83880, Note_on_c, 1, 50, 127
2, 83880, Note_off_c, 1, 68, 0
2, 83880, Note_on_c, 1, 69, 127
2, 83880, Note_on_c, 1, 72, 127
2, 83880, Note_on_c, 1, 77, 127
2, 83880, Note_on_c, 1, 81, 127
2, 83880, Note_off_c, 1, 87, 0
2, 83880, Note_off_c, 1, 91, 0
2, 83920, Note_off_c, 1, 38, 0
2, 83920, Note_off_c, 1, 50, 0
2, 83920, Note_off_c, 1, 69, 0
2, 83920, Note_off_c, 1, 72, 0
2, 83920, Note_off_c, 1, 77, 0
2, 83920, Note_off_c, 1, 81, 0
2, 83960, Note_on_c, 1, 38, 127
2, 83960, Note_on_c, 1, 45, 127
2, 83960, Note_on_c, 1, 61, 127
2, 83960, Note_on_c, 1, 64, 127
2, 84000, Note_off_c, 1, 38, 0
2, 84000, Note_off_c, 1, 45, 0
2, 84000, Note_off_c, 1, 61, 0
2, 84000, Note_off_c, 1, 64, 0
2, 84000, Note_on_c, 1, 65, 127
2, 84000, Note_on_c, 1, 68, 127
2, 84000, Note_on_c, 1, 74, 127
2, 84000, Note_on_c, 1, 81, 127
2, 84040, Note_on_c, 1, 30, 127
2, 84040, Note_on_c, 1, 42, 127
2, 84040, Note_on_c, 1, 50, 127
2, 84040, Note_on_c, 1, 52, 127
2, 84040, Note_on_c, 1, 58, 127
2, 84040, Note_on_c, 1, 62, 127
2, 84040, Note_off_c, 1, 65, 0
2, 84040, Note_off_c, 1, 68, 0
2, 84040, Note_off_c, 1, 74, 0
2, 84040, Note_off_c, 1, 81, 0
2, 84080, Note_off_c, 1, 30, 0
2, 84080, Note_off_c, 1, 42, 0
2, 84080, Note_off_c, 1, 50, 0
2, 84080, Note_off_c, 1, 52, 0
2, 84080, Note_off_c, 1, 58, 0
2, 84080, Note_off_c, 1, 62, 0
2, 84080, Note_on_c, 1, 74, 127
2, 84120, Note_on_c, 1, 40, 127
2, 84120, Note_on_c, 1, 52, 127
2, 84120, Note_off_c, 1, 74, 0
2, 84120, Note_on_c, 1, 82, 127
2, 84120, Note_on_c, 1, 85, 127
2, 84120, Note_on_c, 1, 94, 127
2, 84400, Note_off_c, 1, 40, 0
2, 84400, Note_off_c, 1, 52, 0
2, 84400, Note_off_c, 1, 82, 0
2, 84400, Note_off_c, 1, 85, 0
2, 84400, Note_off_c, 1, 94, 0
2, 84480, Note_on_c, 1, 36, 127
2, 84480, Note_on_c, 1, 48, 127
2, 84480, Note_on_c, 1, 79, 127
2, 84480, Note_on_c, 1, 82, 127
2, 84480, Note_on_c, 1, 84, 127
2, 84480, Note_on_c, 1, 88, 127
2, 84520, Note_off_c, 1, 36, 0
2, 84520, Note_off_c, 1, 48, 0
2, 84520, Note_on_c, 1, 52, 127
2, 84520, Note_on_c, 1, 56, 127
2, 84520, Note_on_c, 1, 59, 127
2, 84520, Note_on_c, 1, 73, 127
2, 84520, Note_on_c, 1, 76, 127
2, 84520, Note_off_c, 1, 79, 0
2, 84520, Note_on_c, 1, 80, 127
2, 84520, Note_off_c, 1, 82, 0
2, 84520, Note_off_c, 1, 84, 0
2, 84520, Note_off_c, 1, 88, 0
2, 84560, Note_on_c, 1, 36, 127
2, 84560, Note_on_c, 1, 48, 127
2, 84560, Note_off_c, 1, 52, 0
2, 84560, Note_off_c, 1, 56, 0
2, 84560, Note_off_c, 1, 59, 0
2, 84560, Note_off_c, 1, 73, 0
2, 84560, Note_off_c, 1, 76, 0
2, 84560, Note_on_c, 1, 79, 127
2, 84560, Note_off_c, 1, 80, 0
2, 84560, Note_on_c, 1, 82, 127
2, 84560, Note_on_c, 1, 84, 127
2, 84560, Note_on_c, 1, 88, 127
2, 84600, Note_off_c, 1, 79, 0
2, 84600, Note_off_c, 1, 82, 0
2, 84600, Note_off_c, 1, 84, 0
2, 84600, Note_off_c, 1, 88, 0
2, 84640, Note_on_c, 1, 79, 127
2, 84640, Note_on_c, 1, 82, 127
2, 84640, Note_on_c, 1, 84, 127
2, 84640, Note_on_c, 1, 88, 127
2, 84760, Note_off_c, 1, 36, 0
2, 84760, Note_off_c, 1, 48, 0
2, 84760, Note_off_c, 1, 79, 0
2, 84760, Note_off_c, 1, 82, 0
2, 84760, Note_off_c, 1, 84, 0
2, 84760, Note_off_c, 1, 88, 0
2, 84800, Note_on_c, 1, 58, 127
2, 84800, Note_on_c, 1, 63, 127
2, 84800, Note_on_c, 1, 83, 127
2, 84840, Note_on_c, 1, 42, 127
2, 84840, Note_on_c, 1, 54, 127
2, 84840, Note_off_c, 1, 58, 0
2, 84840, Note_off_c, 1, 63, 0
2, 84840, Note_on_c, 1, 69, 127
2, 84840, Note_on_c, 1, 73, 127
2, 84840, Note_on_c, 1, 78, 127
2, 84840, Note_on_c, 1, 81, 127
2, 84840, Note_off_c, 1, 83, 0
2, 84880, Note_off_c, 1, 42, 0
2, 84880, Note_on_c, 1, 44, 127
2, 84880, Note_off_c, 1, 54, 0
2, 84880, Note_on_c, 1, 56, 127
2, 84880, Note_off_c, 1, 69, 0
2, 84880, Note_off_c, 1, 73, 0
2, 84880, Note_off_c, 1, 78, 0
2, 84880, Note_on_c, 1, 80, 127
2, 84880, Note_off_c, 1, 81, 0
2, 84880, Note_on_c, 1, 84, 127
2, 84920, Note_off_c, 1, 44, 0
2, 84920, Note_off_c, 1, 56, 0
2, 84920, Note_on_c, 1, 66, 127
2, 84920, Note_on_c, 1, 69, 127
2, 84920, Note_on_c, 1, 73, 127
2, 84920, Note_on_c, 1, 78, 127
2, 84920, Note_off_c, 1, 80, 0
2, 84920, Note_off_c, 1, 84, 0
2, 84920, Note_on_c, 1, 90, 127
2, 84920, Note_on_c, 1, 93, 127
2, 84920, Note_on_c, 1, 97, 127
2, 84920, Note_on_c, 1, 102, 127
2, 84960, Note_off_c, 1, 66, 0
2, 84960, Note_off_c, 1, 69, 0
2, 84960, Note_off_c, 1, 73, 0
2, 84960, Note_off_c, 1, 78, 0
2, 84960, Note_off_c, 1, 90, 0
2, 84960, Note_off_c, 1, 93, 0
2, 84960, Note_off_c, 1, 97, 0
2, 84960, Note_off_c, 1, 102, 0
2, 85000, Note_on_c, 1, 38, 127
2, 85000, Note_on_c, 1, 50, 127
2, 85000, Note_on_c, 1, 78, 127
2, 85000, Note_on_c, 1, 81, 127
2, 85000, Note_on_c, 1, 85, 127
2, 85000, Note_on_c, 1, 90, 127
2, 85040, Note_off_c, 1, 38, 0
2, 85040, Note_off_c, 1, 50, 0
2, 85040, Note_on_c, 1, 53, 127
2, 85040, Note_on_c, 1, 70, 127
2, 85040, Note_on_c, 1, 72, 127
2, 85040, Note_on_c, 1, 77, 127
2, 85040, Note_off_c, 1, 78, 0
2, 85040, Note_off_c, 1, 81, 0
2, 85040, Note_off_c, 1, 85, 0
2, 85040, Note_off_c, 1, 90, 0
2, 85080, Note_on_c, 1, 48, 127
2, 85080, Note_off_c, 1, 53, 0
2, 85080, Note_on_c, 1, 66, 127
2, 85080, Note_off_c, 1, 70, 0
2, 85080, Note_off_c, 1, 72, 0
2, 85080, Note_on_c, 1, 80, 127
2, 85120, Note_off_c, 1, 48, 0
2, 85120, Note_off_c, 1, 66, 0
2, 85120, Note_off_c, 1, 77, 0
2, 85120, Note_off_c, 1, 80, 0
2, 85160, Note_on_c, 1, 67, 127
2, 85160, Note_on_c, 1, 79, 127
2, 85160, Note_on_c, 1, 82, 127
2, 85160, Note_on_c, 1, 85, 127
2, 85160, Note_on_c, 1, 91, 127
2, 85440, Note_off_c, 1, 67, 0
2, 85440, Note_off_c, 1, 82, 0
2, 85440, Note_off_c, 1, 85, 0
2, 85440, Note_off_c, 1, 91, 0
2, 85480, Note_off_c, 1, 79, 0
2, 85520, Note_on_c, 1, 55, 127
2, 85520, Note_on_c, 1, 63, 127
2, 85520, Note_on_c, 1, 79, 127
2, 85520, Note_on_c, 1, 83, 127
2, 85520, Note_on_c, 1, 91, 127
2, 85560, Note_off_c, 1, 55, 0
2, 85560, Note_on_c, 1, 56, 127
2, 85560, Note_on_c, 1, 59, 127
2, 85560, Note_on_c, 1, 61, 127
2, 85560, Note_off_c, 1, 63, 0
2, 85560, Note_on_c, 1, 65, 127
2, 85560, Note_on_c, 1, 71, 127
2, 85560, Note_on_c, 1, 73, 127
2, 85560, Note_off_c, 1, 79, 0
2, 85560, Note_off_c, 1, 83, 0
2, 85560, Note_off_c, 1, 91, 0
2, 85600, Note_on_c, 1, 36, 127
2, 85600, Note_on_c, 1, 48, 127
2, 85600, Note_off_c, 1, 56, 0
2, 85600, Note_off_c, 1, 59, 0
2, 85600, Note_off_c, 1, 61, 0
2, 85600, Note_on_c, 1, 64, 127
2, 85600, Note_off_c, 1, 65, 0
2, 85600, Note_on_c, 1, 67, 127
2, 85600, Note_on_c, 1, 70, 127
2, 85600, Note_off_c, 1, 71, 0
2, 85600, Note_off_c, 1, 73, 0
2, 85600, Note_on_c, 1, 76, 127
2, 85640, Note_off_c, 1, 36, 0
2, 85640, Note_off_c, 1, 48, 0
2, 85640, Note_on_c, 1, 59, 127
2, 85640, Note_on_c, 1, 62, 127
2, 85640, Note_off_c, 1, 64, 0
2, 85640, Note_off_c, 1, 67, 0
2, 85640, Note_off_c, 1, 70, 0
2, 85640, Note_on_c, 1, 71, 127
2, 85640, Note_off_c, 1, 76, 0
2, 85640, Note_on_c, 1, 79, 127
2, 85640, Note_on_c, 1, 86, 127
2, 85640, Note_on_c, 1, 91, 127
2, 85680, Note_on_c, 1, 45, 127
2, 85680, Note_on_c, 1, 48, 127
2, 85680, Note_on_c, 1, 57, 127
2, 85680, Note_off_c, 1, 59, 0
2, 85680, Note_off_c, 1, 62, 0
2, 85680, Note_off_c, 1, 71, 0
2, 85680, Note_off_c, 1, 79, 0
2, 85680, Note_off_c, 1, 86, 0
2, 85680, Note_off_c, 1, 91, 0
2, 85720, Note_off_c, 1, 48, 0
2, 85720, Note_on_c, 1, 80, 127
2, 85720, Note_on_c, 1, 85, 127
2, 85720, Note_on_c, 1, 92, 127
2, 85760, Note_on_c, 1, 40, 127
2, 85760, Note_on_c, 1, 44, 127
2, 85760, Note_off_c, 1, 45, 0
2, 85760, Note_on_c, 1, 52, 127
2, 85760, Note_on_c, 1, 56, 127
2, 85760, Note_off_c, 1, 57, 0
2, 85760, Note_on_c, 1, 62, 127
2, 85760, Note_off_c, 1, 80, 0
2, 85760, Note_off_c, 1, 85, 0
2, 85760, Note_off_c, 1, 92, 0
2, 85800, Note_off_c, 1, 40, 0
2, 85800, Note_off_c, 1, 44, 0
2, 85800, Note_off_c, 1, 52, 0
2, 85800, Note_off_c, 1, 56, 0
2, 85800, Note_off_c, 1, 62, 0
2, 85800, Note_on_c, 1, 84, 127
2, 85840, Note_off_c, 1, 84, 0
2, 85880, Note_on_c, 1, 31, 127
2, 85880, Note_on_c, 1, 77, 127
2, 85880, Note_on_c, 1, 79, 127
2, 85880, Note_on_c, 1, 86, 127
2, 85880, Note_on_c, 1, 89, 127
2, 86120, Note_off_c, 1, 31, 0
2, 86120, Note_on_c, 1, 72, 127
2, 86120, Note_off_c, 1, 77, 0
2, 86120, Note_on_c, 1, 84, 127
2, 86120, Note_off_c, 1, 86, 0
2, 86120, Note_off_c, 1, 89, 0
2, 86160, Note_off_c, 1, 72, 0
2, 86160, Note_off_c, 1, 79, 0
2, 86160, Note_off_c, 1, 84, 0
2, 86280, Note_on_c, 1, 59, 127
2, 86280, Note_on_c, 1, 64, 127
2, 86280, Note_on_c, 1, 74, 127
2, 86280, Note_on_c, 1, 78, 127
2, 86400, Note_off_c, 1, 59, 0
2, 86400, Note_off_c, 1, 64, 0
2, 86400, Note_on_c, 1, 76, 127
2, 86400, Note_off_c, 1, 78, 0
2, 86400, Note_on_c, 1, 82, 127
2, 86400, Note_on_c, 1, 86, 127
2, 86440, Note_on_c, 1, 56, 127
2, 86440, Note_on_c, 1, 58, 127
2, 86440, Note_on_c, 1, 63, 127
2, 86440, Note_on_c, 1, 70, 127
2, 86440, Note_off_c, 1, 74, 0
2, 86440, Note_off_c, 1, 76, 0
2, 86440, Note_off_c, 1, 82, 0
2, 86440, Note_off_c, 1, 86, 0
2, 86600, Note_on_c, 1, 35, 127
2, 86600, Note_on_c, 1, 51, 127
2, 86600, Note_on_c, 1, 54, 127
2, 86600, Note_off_c, 1, 56, 0
2, 86600, Note_off_c, 1, 58, 0
2, 86600, Note_on_c, 1, 59, 127
2, 86600, Note_off_c, 1, 70, 0
2, 86640, Note_off_c, 1, 35, 0
2, 86640, Note_on_c, 1, 45, 127
2, 86640, Note_off_c, 1, 51, 0
2, 86640, Note_off_c, 1, 54, 0
2, 86640, Note_on_c, 1, 55, 127
2, 86640, Note_off_c, 1, 59, 0
2, 86640, Note_on_c, 1, 60, 127
2, 86640, Note_off_c, 1, 63, 0
2, 86640, Note_on_c, 1, 69, 127
2, 86680, Note_off_c, 1, 45, 0
2, 86680, Note_on_c, 1, 50, 127
2, 86680, Note_off_c, 1, 55, 0
2, 86680, Note_on_c, 1, 57, 127
2, 86680, Note_on_c, 1, 67, 127
2, 86680, Note_off_c, 1, 69, 0
2, 86680, Note_on_c, 1, 86, 127
2, 86720, Note_on_c, 1, 43, 127
2, 86720, Note_off_c, 1, 50, 0
2, 86720, Note_off_c, 1, 57, 0
2, 86720, Note_off_c, 1, 60, 0
2, 86720, Note_off_c, 1, 67, 0
2, 86720, Note_on_c, 1, 84, 127
2, 86720, Note_off_c, 1, 86, 0
2, 86720, Note_on_c, 1, 87, 127
2, 86760, Note_off_c, 1, 43, 0
2, 86760, Note_on_c, 1, 59, 127
2, 86760, Note_on_c, 1, 65, 127
2, 86760, Note_on_c, 1, 67, 127
2, 86760, Note_on_c, 1, 71, 127
2, 86760, Note_on_c, 1, 83, 127
2, 86760, Note_off_c, 1, 84, 0
2, 86760, Note_off_c, 1, 87, 0
2, 86800, Note_on_c, 1, 55, 127
2, 86800, Note_off_c, 1, 59, 0
2, 86800, Note_on_c, 1, 60, 127
2, 86800, Note_on_c, 1, 63, 127
2, 86800, Note_off_c, 1, 65, 0
2, 86800, Note_on_c, 1, 66, 127
2, 86800, Note_off_c, 1, 67, 0
2, 86800, Note_off_c, 1, 71, 0
2, 86800, Note_on_c, 1, 74, 127
2, 86800, Note_off_c, 1, 83, 0
2, 86840, Note_on_c, 1, 35, 127
2, 86840, Note_on_c, 1, 39, 127
2, 86840, Note_on_c, 1, 47, 127
2, 86840, Note_off_c, 1, 55, 0
2, 86840, Note_off_c, 1, 60, 0
2, 86840, Note_off_c, 1, 63, 0
2, 86840, Note_on_c, 1, 64, 127
2, 86840, Note_off_c, 1, 66, 0
2, 86840, Note_off_c, 1, 74, 0
2, 86840, Note_on_c, 1, 76, 127
2, 86880, Note_off_c, 1, 35, 0
2, 86880, Note_on_c, 1, 38, 127
2, 86880, Note_off_c, 1, 39, 0
2, 86880, Note_off_c, 1, 47, 0
2, 86880, Note_on_c, 1, 52, 127
2, 86880, Note_on_c, 1, 57, 127
2, 86880, Note_off_c, 1, 64, 0
2, 86920, Note_off_c, 1, 38, 0
2, 86920, Note_off_c, 1, 52, 0
2, 86920, Note_off_c, 1, 57, 0
2, 86920, Note_off_c, 1, 76, 0
2, 86960, Note_on_c, 1, 57, 127
2, 86960, Note_on_c, 1, 60, 127
2, 86960, Note_on_c, 1, 63, 127
2, 86960, Note_on_c, 1, 65, 127
2, 86960, Note_on_c, 1, 77, 127
2, 87240, Note_off_c, 1, 57, 0
2, 87240, Note_off_c, 1, 60, 0
2, 87240, Note_off_c, 1, 63, 0
2, 87240, Note_off_c, 1, 65, 0
2, 87280, Note_off_c, 1, 77, 0
2, 87320, Note_on_c, 1, 57, 127
2, 87320, Note_on_c, 1, 60, 127
2, 87320, Note_on_c, 1, 63, 127
2, 87320, Note_on_c, 1, 65, 127
2, 87320, Note_on_c, 1, 77, 127
2, 87600, Note_off_c, 1, 57, 0
2, 87600, Note_off_c, 1, 60, 0
2, 87600, Note_off_c, 1, 63, 0
2, 87600, Note_off_c, 1, 65, 0
2, 87680, Note_on_c, 1, 57, 127
2, 87680, Note_on_c, 1, 60, 127
2, 87680, Note_on_c, 1, 63, 127
2, 87680, Note_on_c, 1, 65, 127
2, 87960, Note_off_c, 1, 57, 0
2, 87960, Note_off_c, 1, 60, 0
2, 87960, Note_off_c, 1, 63, 0
2, 87960, Note_off_c, 1, 65, 0
2, 88000, Note_off_c, 1, 77, 0
2, 88040, Note_on_c, 1, 57, 127
2, 88040, Note_on_c, 1, 60, 127
2, 88040, Note_on_c, 1, 63, 127
2, 88040, Note_on_c, 1, 65, 127
2, 88040, Note_on_c, 1, 77, 127
2, 88280, Note_off_c, 1, 57, 0
2, 88280, Note_off_c, 1, 60, 0
2, 88280, Note_off_c, 1, 63, 0
2, 88280, Note_off_c, 1, 65, 0
2, 88280, Note_off_c, 1, 77, 0
2, 88320, Note_on_c, 1, 57, 127
2, 88320, Note_on_c, 1, 60, 127
2, 88320, Note_on_c, 1, 63, 127
2, 88320, Note_on_c, 1, 65, 127
2, 88320, Note_on_c, 1, 77, 127
2, 88360, Note_off_c, 1, 57, 0
2, 88360, Note_off_c, 1, 60, 0
2, 88360, Note_off_c, 1, 63, 0
2, 88360, Note_off_c, 1, 65, 0
2, 88360, Note_off_c, 1, 77, 0
2, 88400, Note_on_c, 1, 57, 127
2, 88400, Note_on_c, 1, 60, 127
2, 88400, Note_on_c, 1, 63, 127
2, 88400, Note_on_c, 1, 65, 127
2, 88400, Note_on_c, 1, 77, 127
2, 88680, Note_off_c, 1, 57, 0
2, 88680, Note_off_c, 1, 60, 0
2, 88680, Note_off_c, 1, 63, 0
2, 88680, Note_off_c, 1, 65, 0
2, 88720, Note_off_c, 1, 77, 0
2, 88760, Note_on_c, 1, 57, 127
2, 88760, Note_on_c, 1, 60, 127
2, 88760, Note_on_c, 1, 63, 127
2, 88760, Note_on_c, 1, 65, 127
2, 88760, Note_on_c, 1, 77, 127
2, 89040, Note_off_c, 1, 57, 0
2, 89040, Note_off_c, 1, 60, 0
2, 89040, Note_off_c, 1, 63, 0
2, 89040, Note_off_c, 1, 65, 0
2, 89080, Note_off_c, 1, 77, 0
2, 89120, Note_on_c, 1, 57, 127
2, 89120, Note_on_c, 1, 60, 127
2, 89120, Note_on_c, 1, 63, 127
2, 89120, Note_on_c, 1, 65, 127
2, 89120, Note_on_c, 1, 77, 127
2, 89400, Note_off_c, 1, 57, 0
2, 89400, Note_off_c, 1, 60, 0
2, 89400, Note_off_c, 1, 63, 0
2, 89400, Note_off_c, 1, 65, 0
2, 89400, Note_off_c, 1, 77, 0
2, 89440, Note_on_c, 1, 77, 127
2, 89480, Note_on_c, 1, 57, 127
2, 89480, Note_on_c, 1, 60, 127
2, 89480, Note_on_c, 1, 63, 127
2, 89480, Note_on_c, 1, 65, 127
2, 89760, Note_off_c, 1, 57, 0
2, 89760, Note_off_c, 1, 60, 0
2, 89760, Note_off_c, 1, 63, 0
2, 89760, Note_off_c, 1, 65, 0
2, 89800, Note_off_c, 1, 77, 0
2, 89840, Note_on_c, 1, 57, 127
2, 89840, Note_on_c, 1, 60, 127
2, 89840, Note_on_c, 1, 63, 127
2, 89840, Note_on_c, 1, 65, 127
2, 89840, Note_on_c, 1, 77, 127
2, 90400, Note_off_c, 1, 57, 0
2, 90400, Note_off_c, 1, 60, 0
2, 90400, Note_off_c, 1, 63, 0
2, 90400, Note_off_c, 1, 65, 0
2, 90400, Note_off_c, 1, 77, 0
2, 90440, Note_on_c, 1, 57, 127
2, 90440, Note_on_c, 1, 60, 127
2, 90440, Note_on_c, 1, 63, 127
2, 90440, Note_on_c, 1, 65, 127
2, 90440, Note_on_c, 1, 77, 127
2, 90560, Note_off_c, 1, 57, 0
2, 90560, Note_off_c, 1, 60, 0
2, 90560, Note_off_c, 1, 63, 0
2, 90560, Note_off_c, 1, 65, 0
2, 90600, Note_on_c, 1, 52, 127
2, 90600, Note_on_c, 1, 56, 127
2, 90600, Note_on_c, 1, 59, 127
2, 90600, Note_on_c, 1, 70, 127
2, 90600, Note_off_c, 1, 77, 0
2, 90880, Note_off_c, 1, 52, 0
2, 90880, Note_off_c, 1, 56, 0
2, 90880, Note_off_c, 1, 59, 0
2, 90920, Note_off_c, 1, 70, 0
2, 90960, Note_on_c, 1, 52, 127
2, 90960, Note_on_c, 1, 56, 127
2, 90960, Note_on_c, 1, 59, 127
2, 90960, Note_on_c, 1, 70, 127
2, 91240, Note_off_c, 1, 52, 0
2, 91240, Note_off_c, 1, 56, 0
2, 91240, Note_off_c, 1, 59, 0
2, 91320, Note_on_c, 1, 52, 127
2, 91320, Note_on_c, 1, 56, 127
2, 91320, Note_on_c, 1, 59, 127
2, 91560, Note_off_c, 1, 52, 0
2, 91560, Note_off_c, 1, 56, 0
2, 91560, Note_off_c, 1, 59, 0
2, 91680, Note_on_c, 1, 52, 127
2, 91680, Note_on_c, 1, 56, 127
2, 91680, Note_on_c, 1, 59, 127
2, 91960, Note_off_c, 1, 52, 0
2, 91960, Note_off_c, 1, 56, 0
2, 91960, Note_off_c, 1, 59, 0
2, 92040, Note_on_c, 1, 52, 127
2, 92040, Note_on_c, 1, 56, 127
2, 92040, Note_on_c, 1, 59, 127
2, 92320, Note_off_c, 1, 52, 0
2, 92320, Note_off_c, 1, 56, 0
2, 92320, Note_off_c, 1, 59, 0
2, 92400, Note_off_c, 1, 70, 0
2, 92440, Note_on_c, 1, 52, 127
2, 92440, Note_on_c, 1, 56, 127
2, 92440, Note_on_c, 1, 59, 127
2, 92440, Note_on_c, 1, 70, 127
2, 92680, Note_off_c, 1, 52, 0
2, 92680, Note_off_c, 1, 56, 0
2, 92680, Note_off_c, 1, 59, 0
2, 92800, Note_on_c, 1, 52, 127
2, 92800, Note_on_c, 1, 56, 127
2, 92800, Note_on_c, 1, 59, 127
2, 93080, Note_off_c, 1, 52, 0
2, 93080, Note_off_c, 1, 56, 0
2, 93080, Note_off_c, 1, 59, 0
2, 93160, Note_on_c, 1, 52, 127
2, 93160, Note_on_c, 1, 56, 127
2, 93160, Note_on_c, 1, 59, 127
2, 93440, Note_off_c, 1, 52, 0
2, 93440, Note_off_c, 1, 56, 0
2, 93440, Note_off_c, 1, 59, 0
2, 93520, Note_on_c, 1, 52, 127
2, 93520, Note_on_c, 1, 56, 127
2, 93520, Note_on_c, 1, 59, 127
2, 93800, Note_off_c, 1, 52, 0
2, 93800, Note_off_c, 1, 56, 0
2, 93800, Note_off_c, 1, 59, 0
2, 93840, Note_off_c, 1, 70, 0
2, 93880, Note_on_c, 1, 52, 127
2, 93880, Note_on_c, 1, 56, 127
2, 93880, Note_on_c, 1, 59, 127
2, 93880, Note_on_c, 1, 70, 127
2, 94120, Note_off_c, 1, 52, 0
2, 94120, Note_off_c, 1, 56, 0
2, 94120, Note_off_c, 1, 59, 0
2, 94200, Note_off_c, 1, 70, 0
2, 94240, Note_on_c, 1, 52, 127
2, 94240, Note_on_c, 1, 56, 127
2, 94240, Note_on_c, 1, 59, 127
2, 94240, Note_on_c, 1, 70, 127
2, 94480, Note_off_c, 1, 52, 0
2, 94480, Note_off_c, 1, 56, 0
2, 94480, Note_off_c, 1, 59, 0
2, 94600, Note_off_c, 1, 70, 0
2, 94640, Note_on_c, 1, 52, 127
2, 94640, Note_on_c, 1, 56, 127
2, 94640, Note_on_c, 1, 59, 127
2, 94640, Note_on_c, 1, 70, 127
2, 94880, Note_off_c, 1, 52, 0
2, 94880, Note_off_c, 1, 56, 0
2, 94880, Note_off_c, 1, 59, 0
2, 95000, Note_on_c, 1, 52, 127
2, 95000, Note_on_c, 1, 56, 127
2, 95000, Note_on_c, 1, 59, 127
2, 95280, Note_off_c, 1, 52, 0
2, 95280, Note_off_c, 1, 56, 0
2, 95280, Note_off_c, 1, 59, 0
2, 95320, Note_on_c, 1, 52, 127
2, 95320, Note_on_c, 1, 56, 127
2, 95320, Note_on_c, 1, 59, 127
2, 95600, Note_off_c, 1, 52, 0
2, 95600, Note_off_c, 1, 56, 0
2, 95600, Note_off_c, 1, 59, 0
2, 95720, Note_on_c, 1, 52, 127
2, 95720, Note_on_c, 1, 56, 127
2, 95720, Note_on_c, 1, 59, 127
2, 96360, Note_off_c, 1, 52, 0
2, 96360, Note_off_c, 1, 56, 0
2, 96360, Note_off_c, 1, 59, 0
2, 96440, Note_on_c, 1, 52, 127
2, 96440, Note_on_c, 1, 56, 127
2, 96440, Note_on_c, 1, 59, 127
2, 96720, Note_off_c, 1, 52, 0
2, 96720, Note_off_c, 1, 56, 0
2, 96720, Note_off_c, 1, 59, 0
2, 96800, Note_on_c, 1, 52, 127
2, 96800, Note_on_c, 1, 56, 127
2, 96800, Note_on_c, 1, 59, 127
2, 97000, Note_off_c, 1, 52, 0
2, 97000, Note_off_c, 1, 56, 0
2, 97000, Note_off_c, 1, 59, 0
2, 97000, Note_off_c, 1, 70, 0
2, 97040, Note_on_c, 1, 52, 127
2, 97040, Note_on_c, 1, 56, 127
2, 97040, Note_on_c, 1, 59, 127
2, 97040, Note_on_c, 1, 70, 127
2, 97120, Note_off_c, 1, 52, 0
2, 97120, Note_off_c, 1, 56, 0
2, 97120, Note_off_c, 1, 59, 0
2, 97200, Note_on_c, 1, 52, 127
2, 97200, Note_on_c, 1, 56, 127
2, 97200, Note_on_c, 1, 59, 127
2, 97480, Note_off_c, 1, 52, 0
2, 97480, Note_off_c, 1, 56, 0
2, 97480, Note_off_c, 1, 59, 0
2, 97560, Note_on_c, 1, 52, 127
2, 97560, Note_on_c, 1, 56, 127
2, 97560, Note_on_c, 1, 59, 127
2, 97800, Note_off_c, 1, 52, 0
2, 97800, Note_off_c, 1, 56, 0
2, 97800, Note_off_c, 1, 59, 0
2, 97920, Note_on_c, 1, 52, 127
2, 97920, Note_on_c, 1, 56, 127
2, 97920, Note_on_c, 1, 59, 127
2, 98160, Note_off_c, 1, 52, 0
2, 98160, Note_off_c, 1, 56, 0
2, 98160, Note_off_c, 1, 59, 0
2, 98280, Note_on_c, 1, 52, 127
2, 98280, Note_on_c, 1, 56, 127
2, 98280, Note_on_c, 1, 59, 127
2, 98560, Note_off_c, 1, 52, 0
2, 98560, Note_off_c, 1, 56, 0
2, 98560, Note_off_c, 1, 59, 0
2, 98640, Note_on_c, 1, 52, 127
2, 98640, Note_on_c, 1, 56, 127
2, 98640, Note_on_c, 1, 59, 127
2, 98880, Note_off_c, 1, 52, 0
2, 98880, Note_off_c, 1, 56, 0
2, 98880, Note_off_c, 1, 59, 0
2, 99000, Note_on_c, 1, 52, 127
2, 99000, Note_on_c, 1, 56, 127
2, 99000, Note_on_c, 1, 59, 127
2, 99280, Note_off_c, 1, 52, 0
2, 99280, Note_off_c, 1, 56, 0
2, 99280, Note_off_c, 1, 59, 0
2, 99360, Note_on_c, 1, 52, 127
2, 99360, Note_on_c, 1, 56, 127
2, 99360, Note_on_c, 1, 59, 127
2, 99560, Note_off_c, 1, 52, 0
2, 99560, Note_off_c, 1, 56, 0
2, 99560, Note_off_c, 1, 59, 0
2, 99560, Note_off_c, 1, 70, 0
2, 99600, Note_on_c, 1, 52, 127
2, 99600, Note_on_c, 1, 56, 127
2, 99600, Note_on_c, 1, 59, 127
2, 99600, Note_on_c, 1, 70, 127
2, 99640, Note_off_c, 1, 52, 0
2, 99640, Note_off_c, 1, 56, 0
2, 99640, Note_off_c, 1, 59, 0
2, 99760, Note_on_c, 1, 52, 127
2, 99760, Note_on_c, 1, 56, 127
2, 99760, Note_on_c, 1, 59, 127
2, 100000, Note_off_c, 1, 52, 0
2, 100000, Note_off_c, 1, 56, 0
2, 100000, Note_off_c, 1, 59, 0
2, 100120, Note_on_c, 1, 52, 127
2, 100120, Note_on_c, 1, 56, 127
2, 100120, Note_on_c, 1, 59, 127
2, 100360, Note_off_c, 1, 52, 0
2, 100360, Note_off_c, 1, 56, 0
2, 100360, Note_off_c, 1, 59, 0
2, 100480, Note_on_c, 1, 52, 127
2, 100480, Note_on_c, 1, 56, 127
2, 100480, Note_on_c, 1, 59, 127
2, 100720, Note_off_c, 1, 52, 0
2, 100720, Note_off_c, 1, 56, 0
2, 100720, Note_off_c, 1, 59, 0
2, 100840, Note_on_c, 1, 52, 127
2, 100840, Note_on_c, 1, 56, 127
2, 100840, Note_on_c, 1, 59, 127
2, 101080, Note_off_c, 1, 52, 0
2, 101080, Note_off_c, 1, 56, 0
2, 101080, Note_off_c, 1, 59, 0
2, 101200, Note_on_c, 1, 52, 127
2, 101200, Note_on_c, 1, 56, 127
2, 101200, Note_on_c, 1, 59, 127
2, 101440, Note_off_c, 1, 52, 0
2, 101440, Note_off_c, 1, 56, 0
2, 101440, Note_off_c, 1, 59, 0
2, 101560, Note_off_c, 1, 70, 0
2, 101600, Note_on_c, 1, 52, 127
2, 101600, Note_on_c, 1, 56, 127
2, 101600, Note_on_c, 1, 59, 127
2, 101600, Note_on_c, 1, 70, 127
2, 101840, Note_off_c, 1, 52, 0
2, 101840, Note_off_c, 1, 56, 0
2, 101840, Note_off_c, 1, 59, 0
2, 101920, Note_on_c, 1, 52, 127
2, 101920, Note_on_c, 1, 56, 127
2, 101920, Note_on_c, 1, 59, 127
2, 102200, Note_off_c, 1, 52, 0
2, 102200, Note_off_c, 1, 56, 0
2, 102200, Note_off_c, 1, 59, 0
2, 102240, Note_on_c, 1, 69, 127
2, 102240, Note_off_c, 1, 70, 0
2, 102280, Note_on_c, 1, 52, 127
2, 102280, Note_on_c, 1, 56, 127
2, 102280, Note_on_c, 1, 59, 127
2, 102280, Note_off_c, 1, 69, 0
2, 102280, Note_on_c, 1, 70, 127
2, 102520, Note_off_c, 1, 52, 0
2, 102520, Note_off_c, 1, 56, 0
2, 102520, Note_off_c, 1, 59, 0
2, 102640, Note_on_c, 1, 52, 127
2, 102640, Note_on_c, 1, 56, 127
2, 102640, Note_on_c, 1, 59, 127
2, 102880, Note_off_c, 1, 52, 0
2, 102880, Note_off_c, 1, 56, 0
2, 102880, Note_off_c, 1, 59, 0
2, 103000, Note_on_c, 1, 52, 127
2, 103000, Note_on_c, 1, 56, 127
2, 103000, Note_on_c, 1, 59, 127
2, 103240, Note_off_c, 1, 52, 0
2, 103240, Note_off_c, 1, 56, 0
2, 103240, Note_off_c, 1, 59, 0
2, 103360, Note_on_c, 1, 52, 127
2, 103360, Note_on_c, 1, 56, 127
2, 103360, Note_on_c, 1, 59, 127
2, 103600, Note_off_c, 1, 52, 0
2, 103600, Note_off_c, 1, 56, 0
2, 103600, Note_off_c, 1, 59, 0
2, 103720, Note_off_c, 1, 70, 0
2, 103760, Note_on_c, 1, 52, 127
2, 103760, Note_on_c, 1, 56, 127
2, 103760, Note_on_c, 1, 59, 127
2, 103760, Note_on_c, 1, 70, 127
2, 104000, Note_off_c, 1, 52, 0
2, 104000, Note_off_c, 1, 56, 0
2, 104000, Note_off_c, 1, 59, 0
2, 104040, Note_on_c, 1, 68, 127
2, 104040, Note_off_c, 1, 70, 0
2, 104080, Note_on_c, 1, 52, 127
2, 104080, Note_on_c, 1, 56, 127
2, 104080, Note_on_c, 1, 59, 127
2, 104080, Note_off_c, 1, 68, 0
2, 104080, Note_on_c, 1, 70, 127
2, 104320, Note_off_c, 1, 52, 0
2, 104320, Note_off_c, 1, 56, 0
2, 104320, Note_off_c, 1, 59, 0
2, 104440, Note_on_c, 1, 52, 127
2, 104440, Note_on_c, 1, 56, 127
2, 104440, Note_on_c, 1, 59, 127
2, 104680, Note_off_c, 1, 52, 0
2, 104680, Note_off_c, 1, 56, 0
2, 104680, Note_off_c, 1, 59, 0
2, 104800, Note_on_c, 1, 52, 127
2, 104800, Note_on_c, 1, 56, 127
2, 104800, Note_on_c, 1, 59, 127
2, 105040, Note_off_c, 1, 52, 0
2, 105040, Note_off_c, 1, 56, 0
2, 105040, Note_off_c, 1, 59, 0
2, 105160, Note_on_c, 1, 52, 127
2, 105160, Note_on_c, 1, 56, 127
2, 105160, Note_on_c, 1, 59, 127
2, 105400, Note_off_c, 1, 52, 0
2, 105400, Note_off_c, 1, 56, 0
2, 105400, Note_off_c, 1, 59, 0
2, 105520, Note_on_c, 1, 52, 127
2, 105520, Note_on_c, 1, 56, 127
2, 105520, Note_on_c, 1, 59, 127
2, 105760, Note_off_c, 1, 52, 0
2, 105760, Note_off_c, 1, 56, 0
2, 105760, Note_off_c, 1, 59, 0
2, 105880, Note_off_c, 1, 70, 0
2, 105920, Note_on_c, 1, 45, 127
2, 105920, Note_on_c, 1, 47, 127
2, 105920, Note_on_c, 1, 57, 127
2, 105920, Note_on_c, 1, 63, 127
2, 105920, Note_on_c, 1, 66, 127
2, 105920, Note_on_c, 1, 71, 127
2, 105920, Note_on_c, 1, 75, 127
2, 105960, Note_off_c, 1, 45, 0
2, 105960, Note_off_c, 1, 47, 0
2, 105960, Note_on_c, 1, 52, 127
2, 105960, Note_on_c, 1, 61, 127
2, 105960, Note_off_c, 1, 63, 0
2, 105960, Note_on_c, 1, 64, 127
2, 105960, Note_off_c, 1, 66, 0
2, 105960, Note_off_c, 1, 75, 0
2, 106000, Note_on_c, 1, 41, 127
2, 106000, Note_on_c, 1, 45, 127
2, 106000, Note_off_c, 1, 52, 0
2, 106000, Note_off_c, 1, 57, 0
2, 106000, Note_on_c, 1, 67, 127
2, 106000, Note_on_c, 1, 69, 127
2, 106000, Note_off_c, 1, 71, 0
2, 106040, Note_off_c, 1, 41, 0
2, 106040, Note_off_c, 1, 45, 0
2, 106040, Note_off_c, 1, 61, 0
2, 106040, Note_off_c, 1, 64, 0
2, 106040, Note_off_c, 1, 69, 0
2, 106040, Note_on_c, 1, 78, 127
2, 106040, Note_on_c, 1, 82, 127
2, 106040, Note_on_c, 1, 85, 127
2, 106040, Note_on_c, 1, 90, 127
2, 106080, Note_on_c, 1, 36, 127
2, 106080, Note_on_c, 1, 43, 127
2, 106080, Note_on_c, 1, 63, 127
2, 106080, Note_on_c, 1, 72, 127
2, 106080, Note_off_c, 1, 78, 0
2, 106080, Note_off_c, 1, 82, 0
2, 106080, Note_off_c, 1, 85, 0
2, 106080, Note_off_c, 1, 90, 0
2, 106120, Note_on_c, 1, 30, 127
2, 106120, Note_off_c, 1, 36, 0
2, 106120, Note_on_c, 1, 42, 127
2, 106120, Note_off_c, 1, 43, 0
2, 106120, Note_off_c, 1, 63, 0
2, 106120, Note_off_c, 1, 67, 0
2, 106120, Note_off_c, 1, 72, 0
2, 106120, Note_on_c, 1, 74, 127
2, 106120, Note_on_c, 1, 86, 127
2, 106160, Note_off_c, 1, 30, 0
2, 106160, Note_off_c, 1, 42, 0
2, 106160, Note_on_c, 1, 72, 127
2, 106160, Note_off_c, 1, 74, 0
2, 106160, Note_off_c, 1, 86, 0
2, 106240, Note_on_c, 1, 44, 127
2, 106240, Note_on_c, 1, 49, 127
2, 106240, Note_on_c, 1, 71, 127
2, 106240, Note_off_c, 1, 72, 0
2, 106240, Note_on_c, 1, 76, 127
2, 106240, Note_on_c, 1, 83, 127
2, 106520, Note_off_c, 1, 44, 0
2, 106520, Note_off_c, 1, 49, 0
2, 106520, Note_on_c, 1, 52, 127
2, 106520, Note_on_c, 1, 70, 127
2, 106520, Note_off_c, 1, 71, 0
2, 106520, Note_off_c, 1, 76, 0
2, 106520, Note_off_c, 1, 83, 0
2, 106560, Note_off_c, 1, 52, 0
2, 106560, Note_off_c, 1, 70, 0
2, 106560, Note_on_c, 1, 71, 127
2, 106600, Note_on_c, 1, 57, 127
2, 106600, Note_on_c, 1, 65, 127
2, 106600, Note_off_c, 1, 71, 0
2, 106600, Note_on_c, 1, 77, 127
2, 106600, Note_on_c, 1, 84, 127
2, 106640, Note_on_c, 1, 45, 127
2, 106640, Note_on_c, 1, 52, 127
2, 106640, Note_off_c, 1, 65, 0
2, 106640, Note_off_c, 1, 77, 0
2, 106640, Note_on_c, 1, 81, 127
2, 106640, Note_on_c, 1, 88, 127
2, 106640, Note_on_c, 1, 93, 127
2, 106680, Note_off_c, 1, 45, 0
2, 106680, Note_off_c, 1, 52, 0
2, 106680, Note_on_c, 1, 65, 127
2, 106680, Note_on_c, 1, 77, 127
2, 106680, Note_off_c, 1, 81, 0
2, 106680, Note_off_c, 1, 88, 0
2, 106680, Note_off_c, 1, 93, 0
2, 106760, Note_on_c, 1, 48, 127
2, 106760, Note_on_c, 1, 53, 127
2, 106760, Note_on_c, 1, 56, 127
2, 106760, Note_off_c, 1, 57, 0
2, 106760, Note_on_c, 1, 59, 127
2, 106760, Note_on_c, 1, 62, 127
2, 106760, Note_on_c, 1, 68, 127
2, 106760, Note_on_c, 1, 71, 127
2, 106760, Note_on_c, 1, 74, 127
2, 106760, Note_off_c, 1, 77, 0
2, 106760, Note_off_c, 1, 84, 0
2, 106800, Note_on_c, 1, 47, 127
2, 106800, Note_off_c, 1, 48, 0
2, 106800, Note_off_c, 1, 53, 0
2, 106800, Note_off_c, 1, 56, 0
2, 106800, Note_off_c, 1, 62, 0
2, 106800, Note_off_c, 1, 65, 0
2, 106800, Note_off_c, 1, 68, 0
2, 106800, Note_off_c, 1, 71, 0
2, 106800, Note_off_c, 1, 74, 0
2, 106800, Note_on_c, 1, 81, 127
2, 106800, Note_on_c, 1, 87, 127
2, 106800, Note_on_c, 1, 90, 127
2, 106800, Note_on_c, 1, 95, 127
2, 106840, Note_off_c, 1, 47, 0
2, 106840, Note_off_c, 1, 59, 0
2, 106840, Note_on_c, 1, 69, 127
2, 106840, Note_off_c, 1, 81, 0
2, 106840, Note_off_c, 1, 87, 0
2, 106840, Note_off_c, 1, 90, 0
2, 106840, Note_off_c, 1, 95, 0
2, 106880, Note_off_c, 1, 69, 0
2, 106880, Note_on_c, 1, 72, 127
2, 106920, Note_off_c, 1, 72, 0
2, 106960, Note_on_c, 1, 41, 127
2, 106960, Note_on_c, 1, 72, 127
2, 106960, Note_on_c, 1, 80, 127
2, 107200, Note_off_c, 1, 41, 0
2, 107200, Note_off_c, 1, 80, 0
2, 107320, Note_on_c, 1, 41, 127
2, 107320, Note_on_c, 1, 80, 127
2, 107560, Note_off_c, 1, 41, 0
2, 107560, Note_off_c, 1, 80, 0
2, 107680, Note_on_c, 1, 59, 127
2, 107680, Note_on_c, 1, 62, 127
2, 107680, Note_off_c, 1, 72, 0
2, 107680, Note_on_c, 1, 79, 127
2, 107680, Note_on_c, 1, 91, 127
2, 107920, Note_off_c, 1, 59, 0
2, 107920, Note_off_c, 1, 62, 0
2, 107920, Note_on_c, 1, 72, 127
2, 107920, Note_off_c, 1, 79, 0
2, 107920, Note_off_c, 1, 91, 0
2, 108000, Note_off_c, 1, 72, 0
2, 108080, Note_on_c, 1, 41, 127
2, 108080, Note_on_c, 1, 60, 127
2, 108080, Note_on_c, 1, 63, 127
2, 108080, Note_on_c, 1, 68, 127
2, 108360, Note_off_c, 1, 41, 0
2, 108360, Note_off_c, 1, 60, 0
2, 108360, Note_off_c, 1, 63, 0
2, 108360, Note_off_c, 1, 68, 0
2, 108440, Note_on_c, 1, 46, 127
2, 108440, Note_on_c, 1, 89, 127
2, 108680, Note_off_c, 1, 46, 0
2, 108680, Note_on_c, 1, 86, 127
2, 108680, Note_off_c, 1, 89, 0
2, 108720, Note_off_c, 1, 86, 0
2, 108720, Note_on_c, 1, 87, 127
2, 108760, Note_on_c, 1, 53, 127
2, 108760, Note_on_c, 1, 58, 127
2, 108760, Note_on_c, 1, 62, 127
2, 108760, Note_on_c, 1, 86, 127
2, 108760, Note_off_c, 1, 87, 0
2, 109040, Note_off_c, 1, 86, 0
2, 109080, Note_off_c, 1, 53, 0
2, 109080, Note_off_c, 1, 58, 0
2, 109080, Note_off_c, 1, 62, 0
2, 109120, Note_on_c, 1, 89, 127
2, 109480, Note_on_c, 1, 56, 127
2, 109480, Note_on_c, 1, 58, 127
2, 109480, Note_on_c, 1, 62, 127
2, 109480, Note_on_c, 1, 80, 127
2, 109480, Note_off_c, 1, 89, 0
2, 109800, Note_off_c, 1, 56, 0
2, 109800, Note_off_c, 1, 58, 0
2, 109800, Note_off_c, 1, 62, 0
2, 109800, Note_off_c, 1, 80, 0
2, 109840, Note_on_c, 1, 60, 127
2, 109840, Note_on_c, 1, 74, 127
2, 109840, Note_on_c, 1, 78, 127
2, 109840, Note_on_c, 1, 81, 127
2, 109840, Note_on_c, 1, 86, 127
2, 109880, Note_on_c, 1, 48, 127
2, 109880, Note_on_c, 1, 53, 127
2, 109880, Note_on_c, 1, 58, 127
2, 109880, Note_off_c, 1, 60, 0
2, 109880, Note_on_c, 1, 62, 127
2, 109880, Note_on_c, 1, 67, 127
2, 109880, Note_off_c, 1, 74, 0
2, 109880, Note_off_c, 1, 78, 0
2, 109880, Note_off_c, 1, 81, 0
2, 109880, Note_off_c, 1, 86, 0
2, 109920, Note_off_c, 1, 48, 0
2, 109920, Note_off_c, 1, 53, 0
2, 109920, Note_on_c, 1, 65, 127
2, 109920, Note_off_c, 1, 67, 0
2, 109920, Note_on_c, 1, 77, 127
2, 109920, Note_on_c, 1, 82, 127
2, 109960, Note_off_c, 1, 58, 0
2, 109960, Note_off_c, 1, 62, 0
2, 109960, Note_on_c, 1, 63, 127
2, 109960, Note_off_c, 1, 65, 0
2, 109960, Note_on_c, 1, 75, 127
2, 109960, Note_off_c, 1, 77, 0
2, 109960, Note_on_c, 1, 90, 127
2, 110000, Note_on_c, 1, 62, 127
2, 110000, Note_off_c, 1, 63, 0
2, 110000, Note_on_c, 1, 68, 127
2, 110000, Note_on_c, 1, 70, 127
2, 110000, Note_off_c, 1, 75, 0
2, 110000, Note_on_c, 1, 81, 127
2, 110000, Note_on_c, 1, 83, 127
2, 110000, Note_off_c, 1, 90, 0
2, 110040, Note_off_c, 1, 62, 0
2, 110040, Note_off_c, 1, 68, 0
2, 110040, Note_off_c, 1, 70, 0
2, 110040, Note_off_c, 1, 81, 0
2, 110040, Note_off_c, 1, 82, 0
2, 110040, Note_off_c, 1, 83, 0
2, 110080, Note_on_c, 1, 34, 127
2, 110080, Note_on_c, 1, 44, 127
2, 110080, Note_on_c, 1, 86, 127
2, 110080, Note_on_c, 1, 87, 127
2, 110120, Note_off_c, 1, 34, 0
2, 110120, Note_off_c, 1, 44, 0
2, 110120, Note_on_c, 1, 49, 127
2, 110120, Note_on_c, 1, 53, 127
2, 110120, Note_on_c, 1, 58, 127
2, 110120, Note_on_c, 1, 68, 127
2, 110120, Note_on_c, 1, 70, 127
2, 110120, Note_on_c, 1, 73, 127
2, 110120, Note_on_c, 1, 80, 127
2, 110120, Note_off_c, 1, 86, 0
2, 110120, Note_off_c, 1, 87, 0
2, 110160, Note_off_c, 1, 49, 0
2, 110160, Note_off_c, 1, 53, 0
2, 110160, Note_off_c, 1, 58, 0
2, 110160, Note_off_c, 1, 68, 0
2, 110160, Note_off_c, 1, 70, 0
2, 110160, Note_off_c, 1, 73, 0
2, 110160, Note_off_c, 1, 80, 0
2, 110160, Note_on_c, 1, 87, 127
2, 110200, Note_on_c, 1, 82, 127
2, 110200, Note_off_c, 1, 87, 0
2, 110240, Note_on_c, 1, 55, 127
2, 110240, Note_on_c, 1, 77, 127
2, 110240, Note_off_c, 1, 82, 0
2, 110240, Note_on_c, 1, 86, 127
2, 110240, Note_on_c, 1, 89, 127
2, 110520, Note_off_c, 1, 55, 0
2, 110520, Note_off_c, 1, 77, 0
2, 110520, Note_on_c, 1, 82, 127
2, 110520, Note_off_c, 1, 86, 0
2, 110520, Note_off_c, 1, 89, 0
2, 110600, Note_on_c, 1, 48, 127
2, 110600, Note_on_c, 1, 86, 127
2, 110600, Note_on_c, 1, 94, 127
2, 110640, Note_on_c, 1, 41, 127
2, 110640, Note_off_c, 1, 48, 0
2, 110640, Note_on_c, 1, 69, 127
2, 110640, Note_on_c, 1, 75, 127
2, 110640, Note_on_c, 1, 77, 127
2, 110640, Note_on_c, 1, 81, 127
2, 110640, Note_off_c, 1, 82, 0
2, 110640, Note_off_c, 1, 86, 0
2, 110640, Note_off_c, 1, 94, 0
2, 110680, Note_on_c, 1, 35, 127
2, 110680, Note_off_c, 1, 41, 0
2, 110680, Note_on_c, 1, 59, 127
2, 110680, Note_on_c, 1, 62, 127
2, 110680, Note_on_c, 1, 66, 127
2, 110680, Note_off_c, 1, 69, 0
2, 110680, Note_on_c, 1, 71, 127
2, 110680, Note_off_c, 1, 75, 0
2, 110680, Note_off_c, 1, 77, 0
2, 110680, Note_off_c, 1, 81, 0
2, 110720, Note_off_c, 1, 35, 0
2, 110720, Note_off_c, 1, 59, 0
2, 110720, Note_off_c, 1, 62, 0
2, 110720, Note_off_c, 1, 66, 0
2, 110720, Note_off_c, 1, 71, 0
2, 110720, Note_on_c, 1, 82, 127
2, 110720, Note_on_c, 1, 86, 127
2, 110720, Note_on_c, 1, 94, 127
2, 110760, Note_on_c, 1, 77, 127
2, 110760, Note_on_c, 1, 81, 127
2, 110760, Note_off_c, 1, 82, 0
2, 110760, Note_on_c, 1, 85, 127
2, 110760, Note_off_c, 1, 86, 0
2, 110760, Note_off_c, 1, 94, 0
2, 110880, Note_off_c, 1, 77, 0
2, 110880, Note_off_c, 1, 81, 0
2, 110920, Note_off_c, 1, 85, 0
2, 110960, Note_on_c, 1, 41, 127
2, 110960, Note_on_c, 1, 69, 127
2, 110960, Note_on_c, 1, 75, 127
2, 110960, Note_on_c, 1, 77, 127
2, 110960, Note_on_c, 1, 81, 127
2, 111240, Note_off_c, 1, 41, 0
2, 111240, Note_off_c, 1, 69, 0
2, 111240, Note_off_c, 1, 75, 0
2, 111240, Note_off_c, 1, 77, 0
2, 111240, Note_off_c, 1, 81, 0
2, 111280, Note_on_c, 1, 41, 127
2, 111280, Note_on_c, 1, 52, 127
2, 111280, Note_on_c, 1, 58, 127
2, 111280, Note_on_c, 1, 67, 127
2, 111280, Note_on_c, 1, 70, 127
2, 111280, Note_on_c, 1, 74, 127
2, 111560, Note_off_c, 1, 41, 0
2, 111560, Note_off_c, 1, 52, 0
2, 111560, Note_off_c, 1, 58, 0
2, 111560, Note_off_c, 1, 67, 0
2, 111560, Note_off_c, 1, 70, 0
2, 111560, Note_off_c, 1, 74, 0
2, 111640, Note_on_c, 1, 63, 127
2, 111640, Note_on_c, 1, 71, 127
2, 111640, Note_on_c, 1, 74, 127
2, 111640, Note_on_c, 1, 77, 127
2, 111640, Note_on_c, 1, 83, 127
2, 111920, Note_off_c, 1, 63, 0
2, 111920, Note_off_c, 1, 71, 0
2, 111920, Note_off_c, 1, 74, 0
2, 111920, Note_off_c, 1, 77, 0
2, 111920, Note_on_c, 1, 80, 127
2, 111920, Note_off_c, 1, 83, 0
2, 111960, Note_off_c, 1, 80, 0
2, 112000, Note_on_c, 1, 51, 127
2, 112000, Note_on_c, 1, 54, 127
2, 112000, Note_on_c, 1, 58, 127
2, 112000, Note_on_c, 1, 66, 127
2, 112000, Note_on_c, 1, 78, 127
2, 112240, Note_off_c, 1, 51, 0
2, 112240, Note_off_c, 1, 54, 0
2, 112240, Note_off_c, 1, 58, 0
2, 112240, Note_off_c, 1, 66, 0
2, 112240, Note_off_c, 1, 78, 0
2, 112280, Note_on_c, 1, 51, 127
2, 112280, Note_on_c, 1, 54, 127
2, 112280, Note_on_c, 1, 58, 127
2, 112280, Note_on_c, 1, 66, 127
2, 112280, Note_on_c, 1, 78, 127
2, 112320, Note_off_c, 1, 51, 0
2, 112320, Note_off_c, 1, 54, 0
2, 112320, Note_off_c, 1, 58, 0
2, 112320, Note_off_c, 1, 66, 0
2, 112320, Note_off_c, 1, 78, 0
2, 112360, Note_on_c, 1, 46, 127
2, 112360, Note_on_c, 1, 51, 127
2, 112360, Note_on_c, 1, 69, 127
2, 112400, Note_off_c, 1, 46, 0
2, 112400, Note_off_c, 1, 51, 0
2, 112400, Note_on_c, 1, 56, 127
2, 112400, Note_on_c, 1, 60, 127
2, 112400, Note_on_c, 1, 65, 127
2, 112400, Note_on_c, 1, 68, 127
2, 112400, Note_off_c, 1, 69, 0
2, 112400, Note_on_c, 1, 80, 127
2, 112400, Note_on_c, 1, 84, 127
2, 112400, Note_on_c, 1, 89, 127
2, 112400, Note_on_c, 1, 92, 127
2, 112440, Note_on_c, 1, 37, 127
2, 112440, Note_on_c, 1, 44, 127
2, 112440, Note_off_c, 1, 56, 0
2, 112440, Note_off_c, 1, 60, 0
2, 112440, Note_off_c, 1, 65, 0
2, 112440, Note_off_c, 1, 68, 0
2, 112440, Note_on_c, 1, 75, 127
2, 112440, Note_off_c, 1, 80, 0
2, 112440, Note_off_c, 1, 84, 0
2, 112440, Note_off_c, 1, 89, 0
2, 112440, Note_off_c, 1, 92, 0
2, 112480, Note_on_c, 1, 35, 127
2, 112480, Note_off_c, 1, 37, 0
2, 112480, Note_off_c, 1, 44, 0
2, 112480, Note_on_c, 1, 47, 127
2, 112480, Note_on_c, 1, 55, 127
2, 112480, Note_on_c, 1, 59, 127
2, 112480, Note_on_c, 1, 66, 127
2, 112480, Note_off_c, 1, 75, 0
2, 112520, Note_off_c, 1, 35, 0
2, 112520, Note_on_c, 1, 45, 127
2, 112520, Note_off_c, 1, 47, 0
2, 112520, Note_on_c, 1, 48, 127
2, 112520, Note_on_c, 1, 53, 127
2, 112520, Note_off_c, 1, 55, 0
2, 112520, Note_on_c, 1, 57, 127
2, 112520, Note_off_c, 1, 59, 0
2, 112520, Note_off_c, 1, 66, 0
2, 112520, Note_on_c, 1, 77, 127
2, 112560, Note_off_c, 1, 45, 0
2, 112560, Note_off_c, 1, 48, 0
2, 112560, Note_off_c, 1, 53, 0
2, 112560, Note_off_c, 1, 57, 0
2, 112560, Note_on_c, 1, 68, 127
2, 112560, Note_on_c, 1, 74, 127
2, 112560, Note_on_c, 1, 79, 127
2, 112560, Note_on_c, 1, 86, 127
2, 112600, Note_off_c, 1, 68, 0
2, 112600, Note_off_c, 1, 74, 0
2, 112600, Note_off_c, 1, 79, 0
2, 112600, Note_off_c, 1, 86, 0
2, 112680, Note_off_c, 1, 77, 0
2, 112720, Note_on_c, 1, 50, 127
2, 112720, Note_on_c, 1, 56, 127
2, 112720, Note_on_c, 1, 58, 127
2, 112720, Note_on_c, 1, 79, 127
2, 112720, Note_on_c, 1, 91, 127
2, 112960, Note_on_c, 1, 43, 127
2, 112960, Note_on_c, 1, 46, 127
2, 112960, Note_off_c, 1, 50, 0
2, 112960, Note_on_c, 1, 51, 127
2, 112960, Note_off_c, 1, 56, 0
2, 112960, Note_off_c, 1, 58, 0
2, 112960, Note_off_c, 1, 79, 0
2, 112960, Note_off_c, 1, 91, 0
2, 113000, Note_off_c, 1, 43, 0
2, 113000, Note_off_c, 1, 46, 0
2, 113000, Note_off_c, 1, 51, 0
2, 113000, Note_on_c, 1, 63, 127
2, 113000, Note_on_c, 1, 67, 127
2, 113000, Note_on_c, 1, 77, 127
2, 113000, Note_on_c, 1, 89, 127
2, 113040, Note_off_c, 1, 63, 0
2, 113040, Note_off_c, 1, 67, 0
2, 113040, Note_off_c, 1, 77, 0
2, 113040, Note_off_c, 1, 89, 0
2, 113080, Note_on_c, 1, 56, 127
2, 113080, Note_on_c, 1, 60, 127
2, 113080, Note_on_c, 1, 67, 127
2, 113080, Note_on_c, 1, 76, 127
2, 113320, Note_off_c, 1, 67, 0
2, 113320, Note_off_c, 1, 76, 0
2, 113400, Note_off_c, 1, 56, 0
2, 113400, Note_off_c, 1, 60, 0
2, 113440, Note_on_c, 1, 33, 127
2, 113440, Note_on_c, 1, 45, 127
2, 113440, Note_on_c, 1, 89, 127
2, 113720, Note_off_c, 1, 33, 0
2, 113720, Note_off_c, 1, 45, 0
2, 113720, Note_on_c, 1, 80, 127
2, 113720, Note_off_c, 1, 89, 0
2, 113760, Note_off_c, 1, 80, 0
2, 113800, Note_on_c, 1, 77, 127
2, 114160, Note_off_c, 1, 77, 0
2, 114200, Note_on_c, 1, 40, 127
2, 114200, Note_on_c, 1, 47, 127
2, 114200, Note_on_c, 1, 52, 127
2, 114200, Note_on_c, 1, 74, 127
2, 114200, Note_on_c, 1, 80, 127
2, 114200, Note_on_c, 1, 86, 127
2, 114240, Note_off_c, 1, 40, 0
2, 114240, Note_off_c, 1, 47, 0
2, 114240, Note_off_c, 1, 52, 0
2, 114240, Note_on_c, 1, 56, 127
2, 114240, Note_on_c, 1, 61, 127
2, 114240, Note_on_c, 1, 65, 127
2, 114240, Note_on_c, 1, 68, 127
2, 114240, Note_off_c, 1, 74, 0
2, 114240, Note_off_c, 1, 80, 0
2, 114240, Note_on_c, 1, 85, 127
2, 114240, Note_off_c, 1, 86, 0
2, 114280, Note_on_c, 1, 38, 127
2, 114280, Note_off_c, 1, 56, 0
2, 114280, Note_on_c, 1, 60, 127
2, 114280, Note_off_c, 1, 61, 0
2, 114280, Note_on_c, 1, 64, 127
2, 114280, Note_off_c, 1, 65, 0
2, 114280, Note_off_c, 1, 68, 0
2, 114280, Note_on_c, 1, 69, 127
2, 114280, Note_off_c, 1, 85, 0
2, 114320, Note_off_c, 1, 38, 0
2, 114320, Note_on_c, 1, 50, 127
2, 114320, Note_on_c, 1, 53, 127
2, 114320, Note_on_c, 1, 56, 127
2, 114320, Note_on_c, 1, 59, 127
2, 114320, Note_off_c, 1, 60, 0
2, 114320, Note_off_c, 1, 64, 0
2, 114320, Note_off_c, 1, 69, 0
2, 114320, Note_on_c, 1, 84, 127
2, 114360, Note_on_c, 1, 44, 127
2, 114360, Note_off_c, 1, 50, 0
2, 114360, Note_off_c, 1, 53, 0
2, 114360, Note_on_c, 1, 55, 127
2, 114360, Note_off_c, 1, 56, 0
2, 114360, Note_off_c, 1, 59, 0
2, 114360, Note_on_c, 1, 62, 127
2, 114360, Note_off_c, 1, 84, 0
2, 114400, Note_on_c, 1, 43, 127
2, 114400, Note_off_c, 1, 44, 0
2, 114400, Note_off_c, 1, 62, 0
2, 114400, Note_on_c, 1, 64, 127
2, 114400, Note_on_c, 1, 69, 127
2, 114440, Note_on_c, 1, 38, 127
2, 114440, Note_off_c, 1, 43, 0
2, 114440, Note_on_c, 1, 50, 127
2, 114440, Note_off_c, 1, 55, 0
2, 114440, Note_off_c, 1, 64, 0
2, 114440, Note_off_c, 1, 69, 0
2, 114440, Note_on_c, 1, 80, 127
2, 114480, Note_off_c, 1, 38, 0
2, 114480, Note_off_c, 1, 50, 0
2, 114480, Note_on_c, 1, 69, 127
2, 114480, Note_on_c, 1, 79, 127
2, 114480, Note_off_c, 1, 80, 0
2, 114480, Note_on_c, 1, 84, 127
2, 114480, Note_on_c, 1, 86, 127
2, 114480, Note_on_c, 1, 91, 127
2, 114520, Note_off_c, 1, 69, 0
2, 114520, Note_on_c, 1, 70, 127
2, 114520, Note_on_c, 1, 73, 127
2, 114520, Note_on_c, 1, 77, 127
2, 114520, Note_off_c, 1, 79, 0
2, 114520, Note_on_c, 1, 80, 127
2, 114520, Note_off_c, 1, 84, 0
2, 114520, Note_on_c, 1, 85, 127
2, 114520, Note_off_c, 1, 86, 0
2, 114520, Note_off_c, 1, 91, 0
2, 114560, Note_on_c, 1, 56, 127
2, 114560, Note_on_c, 1, 63, 127
2, 114560, Note_on_c, 1, 66, 127
2, 114560, Note_off_c, 1, 73, 0
2, 114560, Note_on_c, 1, 75, 127
2, 114560, Note_off_c, 1, 77, 0
2, 114560, Note_off_c, 1, 80, 0
2, 114560, Note_off_c, 1, 85, 0
2, 114600, Note_on_c, 1, 60, 127
2, 114600, Note_off_c, 1, 63, 0
2, 114600, Note_off_c, 1, 66, 0
2, 114600, Note_on_c, 1, 68, 127
2, 114600, Note_off_c, 1, 70, 0
2, 114600, Note_off_c, 1, 75, 0
2, 114600, Note_on_c, 1, 89, 127
2, 114600, Note_on_c, 1, 92, 127
2, 114640, Note_on_c, 1, 51, 127
2, 114640, Note_on_c, 1, 55, 127
2, 114640, Note_off_c, 1, 56, 0
2, 114640, Note_on_c, 1, 58, 127
2, 114640, Note_off_c, 1, 60, 0
2, 114640, Note_on_c, 1, 61, 127
2, 114640, Note_off_c, 1, 68, 0
2, 114640, Note_on_c, 1, 73, 127
2, 114640, Note_off_c, 1, 89, 0
2, 114640, Note_off_c, 1, 92, 0
2, 114680, Note_off_c, 1, 51, 0
2, 114680, Note_on_c, 1, 53, 127
2, 114680, Note_off_c, 1, 55, 0
2, 114680, Note_off_c, 1, 58, 0
2, 114680, Note_on_c, 1, 60, 127
2, 114680, Note_off_c, 1, 61, 0
2, 114680, Note_on_c, 1, 65, 127
2, 114680, Note_off_c, 1, 73, 0
2, 114680, Note_on_c, 1, 82, 127
2, 114680, Note_on_c, 1, 85, 127
2, 114720, Note_on_c, 1, 37, 127
2, 114720, Note_on_c, 1, 39, 127
2, 114720, Note_off_c, 1, 53, 0
2, 114720, Note_off_c, 1, 60, 0
2, 114720, Note_off_c, 1, 65, 0
2, 114720, Note_off_c, 1, 82, 0
2, 114720, Note_off_c, 1, 85, 0
2, 114760, Note_on_c, 1, 33, 127
2, 114760, Note_off_c, 1, 37, 0
2, 114760, Note_off_c, 1, 39, 0
2, 114760, Note_on_c, 1, 40, 127
2, 114760, Note_on_c, 1, 90, 127
2, 114800, Note_off_c, 1, 33, 0
2, 114800, Note_off_c, 1, 40, 0
2, 114800, Note_on_c, 1, 52, 127
2, 114800, Note_on_c, 1, 55, 127
2, 114800, Note_on_c, 1, 58, 127
2, 114800, Note_on_c, 1, 60, 127
2, 114800, Note_on_c, 1, 82, 127
2, 114800, Note_on_c, 1, 86, 127
2, 114800, Note_off_c, 1, 90, 0
2, 114840, Note_off_c, 1, 52, 0
2, 114840, Note_off_c, 1, 55, 0
2, 114840, Note_off_c, 1, 58, 0
2, 114840, Note_off_c, 1, 60, 0
2, 114840, Note_off_c, 1, 82, 0
2, 114840, Note_off_c, 1, 86, 0
2, 114880, Note_on_c, 1, 59, 127
2, 114880, Note_on_c, 1, 66, 127
2, 114880, Note_on_c, 1, 75, 127
2, 114880, Note_on_c, 1, 78, 127
2, 114880, Note_on_c, 1, 83, 127
2, 115200, Note_off_c, 1, 59, 0
2, 115200, Note_off_c, 1, 66, 0
2, 115200, Note_off_c, 1, 75, 0
2, 115200, Note_off_c, 1, 78, 0
2, 115200, Note_off_c, 1, 83, 0
2, 115240, Note_on_c, 1, 36, 127
2, 115240, Note_on_c, 1, 37, 127
2, 115240, Note_on_c, 1, 45, 127
2, 115240, Note_on_c, 1, 48, 127
2, 115240, Note_on_c, 1, 49, 127
2, 115280, Note_off_c, 1, 36, 0
2, 115280, Note_off_c, 1, 37, 0
2, 115280, Note_off_c, 1, 45, 0
2, 115280, Note_off_c, 1, 48, 0
2, 115280, Note_off_c, 1, 49, 0
2, 115280, Note_on_c, 1, 50, 127
2, 115280, Note_on_c, 1, 59, 127
2, 115280, Note_on_c, 1, 69, 127
2, 115280, Note_on_c, 1, 74, 127
2, 115280, Note_on_c, 1, 78, 127
2, 115320, Note_on_c, 1, 40, 127
2, 115320, Note_off_c, 1, 50, 0
2, 115320, Note_on_c, 1, 52, 127
2, 115320, Note_off_c, 1, 59, 0
2, 115320, Note_off_c, 1, 69, 0
2, 115320, Note_off_c, 1, 74, 0
2, 115320, Note_off_c, 1, 78, 0
2, 115320, Note_on_c, 1, 81, 127
2, 115320, Note_on_c, 1, 84, 127
2, 115320, Note_on_c, 1, 88, 127
2, 115320, Note_on_c, 1, 93, 127
2, 115360, Note_off_c, 1, 40, 0
2, 115360, Note_off_c, 1, 52, 0
2, 115360, Note_on_c, 1, 72, 127
2, 115360, Note_on_c, 1, 76, 127
2, 115360, Note_on_c, 1, 80, 127
2, 115360, Note_off_c, 1, 81, 0
2, 115360, Note_off_c, 1, 88, 0
2, 115360, Note_off_c, 1, 93, 0
2, 115400, Note_on_c, 1, 56, 127
2, 115400, Note_on_c, 1, 63, 127
2, 115400, Note_on_c, 1, 71, 127
2, 115400, Note_off_c, 1, 72, 0
2, 115400, Note_on_c, 1, 75, 127
2, 115400, Note_off_c, 1, 76, 0
2, 115400, Note_off_c, 1, 80, 0
2, 115400, Note_on_c, 1, 83, 127
2, 115400, Note_off_c, 1, 84, 0
2, 115560, Note_off_c, 1, 56, 0
2, 115560, Note_off_c, 1, 63, 0
2, 115560, Note_off_c, 1, 71, 0
2, 115560, Note_off_c, 1, 75, 0
2, 115560, Note_off_c, 1, 83, 0
2, 115600, Note_on_c, 1, 56, 127
2, 115600, Note_on_c, 1, 63, 127
2, 115600, Note_on_c, 1, 71, 127
2, 115600, Note_on_c, 1, 75, 127
2, 115600, Note_on_c, 1, 83, 127
2, 115840, Note_off_c, 1, 71, 0
2, 115840, Note_off_c, 1, 75, 0
2, 115880, Note_off_c, 1, 56, 0
2, 115880, Note_off_c, 1, 63, 0
2, 115880, Note_off_c, 1, 83, 0
2, 115920, Note_on_c, 1, 56, 127
2, 115920, Note_on_c, 1, 63, 127
2, 115920, Note_on_c, 1, 66, 127
2, 115920, Note_on_c, 1, 72, 127
2, 115920, Note_on_c, 1, 78, 127
2, 116240, Note_off_c, 1, 56, 0
2, 116240, Note_off_c, 1, 63, 0
2, 116240, Note_off_c, 1, 66, 0
2, 116240, Note_off_c, 1, 72, 0
2, 116240, Note_off_c, 1, 78, 0
2, 116280, Note_on_c, 1, 56, 127
2, 116280, Note_on_c, 1, 63, 127
2, 116280, Note_on_c, 1, 66, 127
2, 116280, Note_on_c, 1, 72, 127
2, 116280, Note_on_c, 1, 78, 127
2, 116480, Note_off_c, 1, 56, 0
2, 116480, Note_off_c, 1, 63, 0
2, 116480, Note_off_c, 1, 66, 0
2, 116480, Note_off_c, 1, 72, 0
2, 116480, Note_off_c, 1, 78, 0
2, 116520, Note_on_c, 1, 56, 127
2, 116520, Note_on_c, 1, 63, 127
2, 116520, Note_on_c, 1, 66, 127
2, 116520, Note_on_c, 1, 72, 127
2, 116520, Note_on_c, 1, 78, 127
2, 116640, Note_off_c, 1, 56, 0
2, 116640, Note_off_c, 1, 63, 0
2, 116640, Note_off_c, 1, 66, 0
2, 116640, Note_off_c, 1, 72, 0
2, 116640, Note_off_c, 1, 78, 0
2, 116680, Note_on_c, 1, 56, 127
2, 116680, Note_on_c, 1, 63, 127
2, 116680, Note_on_c, 1, 66, 127
2, 116680, Note_on_c, 1, 72, 127
2, 116680, Note_on_c, 1, 78, 127
2, 117000, Note_off_c, 1, 56, 0
2, 117000, Note_off_c, 1, 63, 0
2, 117000, Note_off_c, 1, 66, 0
2, 117000, Note_off_c, 1, 72, 0
2, 117000, Note_off_c, 1, 78, 0
2, 117040, Note_on_c, 1, 56, 127
2, 117040, Note_on_c, 1, 63, 127
2, 117040, Note_on_c, 1, 66, 127
2, 117040, Note_on_c, 1, 72, 127
2, 117040, Note_on_c, 1, 78, 127
2, 117320, Note_off_c, 1, 56, 0
2, 117320, Note_off_c, 1, 63, 0
2, 117320, Note_off_c, 1, 66, 0
2, 117320, Note_off_c, 1, 72, 0
2, 117320, Note_off_c, 1, 78, 0
2, 117360, Note_on_c, 1, 49, 127
2, 117360, Note_on_c, 1, 73, 127
2, 117360, Note_on_c, 1, 78, 127
2, 117640, Note_off_c, 1, 49, 0
2, 117640, Note_off_c, 1, 78, 0
2, 117720, Note_on_c, 1, 56, 127
2, 117720, Note_on_c, 1, 59, 127
2, 117720, Note_on_c, 1, 61, 127
2, 117720, Note_on_c, 1, 65, 127
2, 118040, Note_off_c, 1, 56, 0
2, 118040, Note_off_c, 1, 59, 0
2, 118040, Note_off_c, 1, 61, 0
2, 118040, Note_off_c, 1, 65, 0
2, 118040, Note_off_c, 1, 73, 0
2, 118080, Note_on_c, 1, 56, 127
2, 118080, Note_on_c, 1, 59, 127
2, 118080, Note_on_c, 1, 61, 127
2, 118080, Note_on_c, 1, 65, 127
2, 118080, Note_on_c, 1, 73, 127
2, 118400, Note_off_c, 1, 56, 0
2, 118400, Note_off_c, 1, 59, 0
2, 118400, Note_off_c, 1, 61, 0
2, 118400, Note_off_c, 1, 65, 0
2, 118400, Note_off_c, 1, 73, 0
2, 118440, Note_on_c, 1, 44, 127
2, 118440, Note_on_c, 1, 72, 127
2, 118440, Note_on_c, 1, 78, 127
2, 118640, Note_off_c, 1, 44, 0
2, 118640, Note_off_c, 1, 72, 0
2, 118640, Note_off_c, 1, 78, 0
2, 118680, Note_on_c, 1, 44, 127
2, 118680, Note_on_c, 1, 72, 127
2, 118680, Note_on_c, 1, 78, 127
2, 118760, Note_off_c, 1, 44, 0
2, 118760, Note_off_c, 1, 72, 0
2, 118760, Note_off_c, 1, 78, 0
2, 118840, Note_on_c, 1, 61, 127
2, 118840, Note_on_c, 1, 65, 127
2, 118840, Note_on_c, 1, 68, 127
2, 118840, Note_on_c, 1, 78, 127
2, 118960, Note_off_c, 1, 78, 0
2, 118960, Note_on_c, 1, 80, 127
2, 119000, Note_on_c, 1, 78, 127
2, 119000, Note_off_c, 1, 80, 0
2, 119120, Note_off_c, 1, 78, 0
2, 119160, Note_on_c, 1, 48, 127
2, 119160, Note_on_c, 1, 53, 127
2, 119160, Note_on_c, 1, 57, 127
2, 119160, Note_on_c, 1, 60, 127
2, 119160, Note_off_c, 1, 61, 0
2, 119160, Note_off_c, 1, 65, 0
2, 119160, Note_off_c, 1, 68, 0
2, 119160, Note_on_c, 1, 77, 127
2, 119160, Note_on_c, 1, 81, 127
2, 119160, Note_on_c, 1, 84, 127
2, 119200, Note_on_c, 1, 43, 127
2, 119200, Note_off_c, 1, 48, 0
2, 119200, Note_off_c, 1, 53, 0
2, 119200, Note_off_c, 1, 57, 0
2, 119200, Note_on_c, 1, 58, 127
2, 119200, Note_off_c, 1, 60, 0
2, 119200, Note_on_c, 1, 61, 127
2, 119200, Note_on_c, 1, 64, 127
2, 119200, Note_on_c, 1, 67, 127
2, 119200, Note_off_c, 1, 77, 0
2, 119200, Note_off_c, 1, 81, 0
2, 119200, Note_off_c, 1, 84, 0
2, 119240, Note_off_c, 1, 43, 0
2, 119240, Note_off_c, 1, 58, 0
2, 119240, Note_off_c, 1, 61, 0
2, 119240, Note_on_c, 1, 63, 127
2, 119240, Note_off_c, 1, 64, 0
2, 119240, Note_on_c, 1, 66, 127
2, 119240, Note_off_c, 1, 67, 0
2, 119240, Note_on_c, 1, 77, 127
2, 119240, Note_on_c, 1, 85, 127
2, 119240, Note_on_c, 1, 89, 127
2, 119280, Note_on_c, 1, 55, 127
2, 119280, Note_on_c, 1, 60, 127
2, 119280, Note_off_c, 1, 63, 0
2, 119280, Note_off_c, 1, 66, 0
2, 119280, Note_on_c, 1, 67, 127
2, 119280, Note_on_c, 1, 72, 127
2, 119280, Note_on_c, 1, 76, 127
2, 119280, Note_off_c, 1, 77, 0
2, 119280, Note_on_c, 1, 79, 127
2, 119280, Note_off_c, 1, 85, 0
2, 119280, Note_off_c, 1, 89, 0
2, 119320, Note_off_c, 1, 55, 0
2, 119320, Note_off_c, 1, 60, 0
2, 119320, Note_off_c, 1, 67, 0
2, 119320, Note_off_c, 1, 72, 0
2, 119320, Note_off_c, 1, 79, 0
2, 119320, Note_on_c, 1, 83, 127
2, 119320, Note_on_c, 1, 98, 127
2, 119360, Note_on_c, 1, 61, 127
2, 119360, Note_on_c, 1, 73, 127
2, 119360, Note_off_c, 1, 76, 0
2, 119360, Note_on_c, 1, 80, 127
2, 119360, Note_off_c, 1, 83, 0
2, 119360, Note_on_c, 1, 85, 127
2, 119360, Note_off_c, 1, 98, 0
2, 119480, Note_off_c, 1, 61, 0
2, 119480, Note_off_c, 1, 73, 0
2, 119480, Note_off_c, 1, 80, 0
2, 119480, Note_off_c, 1, 85, 0
2, 119520, Note_on_c, 1, 49, 127
2, 119520, Note_on_c, 1, 65, 127
2, 119520, Note_on_c, 1, 68, 127
2, 119520, Note_on_c, 1, 73, 127
2, 119520, Note_on_c, 1, 77, 127
2, 119800, Note_off_c, 1, 49, 0
2, 119800, Note_off_c, 1, 65, 0
2, 119800, Note_off_c, 1, 68, 0
2, 119800, Note_on_c, 1, 72, 127
2, 119800, Note_off_c, 1, 73, 0
2, 119800, Note_on_c, 1, 89, 127
2, 119800, Note_on_c, 1, 93, 127
2, 119840, Note_off_c, 1, 72, 0
2, 119840, Note_off_c, 1, 77, 0
2, 119840, Note_off_c, 1, 89, 0
2, 119840, Note_off_c, 1, 93, 0
2, 119880, Note_on_c, 1, 57, 127
2, 119880, Note_on_c, 1, 59, 127
2, 119880, Note_on_c, 1, 63, 127
2, 119880, Note_on_c, 1, 66, 127
2, 119880, Note_on_c, 1, 71, 127
2, 119880, Note_on_c, 1, 78, 127
2, 119880, Note_on_c, 1, 83, 127
2, 120000, Note_off_c, 1, 57, 0
2, 120000, Note_off_c, 1, 59, 0
2, 120000, Note_off_c, 1, 63, 0
2, 120000, Note_off_c, 1, 66, 0
2, 120000, Note_off_c, 1, 71, 0
2, 120000, Note_off_c, 1, 78, 0
2, 120000, Note_off_c, 1, 83, 0
2, 120040, End_track
3, 0, Start_track
3, 0, Title_t, "MIDI"
3, 1536, End_track
0, 0, End_of_file
