0, 0, Header, 1, 3, 192
1, 0, Start_track
1, 0, Time_signature, 4, 2, 24, 8
1, 0, Tempo, 500000
1, 120040, End_track
2, 0, Start_track
2, 0, Text_t, "random instrument: random person i dunno whatev"
2, 0, Title_t, "Track 1"
2, 0, Note_on_c, 1, 58, 127
2, 0, Note_on_c, 1, 66, 127
2, 0, Note_on_c, 1, 78, 127
2, 0, Note_on_c, 1, 82, 127
2, 0, Note_on_c, 1, 90, 127
2, 40, Note_on_c, 1, 46, 127
2, 40, Note_off_c, 1, 66, 0
2, 40, Note_off_c, 1, 78, 0
2, 40, Note_on_c, 1, 86, 127
2, 40, Note_off_c, 1, 90, 0
2, 40, Note_on_c, 1, 94, 127
2, 80, Note_off_c, 1, 46, 0
2, 80, Note_off_c, 1, 58, 0
2, 80, Note_off_c, 1, 82, 0
2, 80, Note_off_c, 1, 86, 0
2, 80, Note_off_c, 1, 94, 0
2, 120, Note_on_c, 1, 58, 127
2, 120, Note_on_c, 1, 66, 127
2, 120, Note_on_c, 1, 78, 127
2, 120, Note_on_c, 1, 82, 127
2, 120, Note_on_c, 1, 90, 127
2, 360, Note_off_c, 1, 58, 0
2, 360, Note_off_c, 1, 66, 0
2, 360, Note_off_c, 1, 78, 0
2, 360, Note_off_c, 1, 82, 0
2, 360, Note_off_c, 1, 90, 0
2, 400, Note_on_c, 1, 51, 127
2, 400, Note_on_c, 1, 59, 127
2, 400, Note_on_c, 1, 71, 127
2, 400, Note_on_c, 1, 75, 127
2, 840, Note_off_c, 1, 51, 0
2, 840, Note_off_c, 1, 59, 0
2, 840, Note_off_c, 1, 71, 0
2, 840, Note_off_c, 1, 75, 0
2, 880, Note_on_c, 1, 44, 127
2, 880, Note_on_c, 1, 51, 127
2, 880, Note_on_c, 1, 63, 127
2, 880, Note_on_c, 1, 68, 127
2, 1640, Note_off_c, 1, 44, 0
2, 1640, Note_off_c, 1, 51, 0
2, 1640, Note_off_c, 1, 63, 0
2, 1640, Note_off_c, 1, 68, 0
2, 1680, Note_on_c, 1, 39, 127
2, 1680, Note_on_c, 1, 67, 127
2, 1680, Note_on_c, 1, 70, 127
2, 2040, Note_off_c, 1, 39, 0
2, 2040, Note_off_c, 1, 67, 0
2, 2040, Note_off_c, 1, 70, 0
2, 2080, Note_on_c, 1, 51, 127
2, 2080, Note_on_c, 1, 67, 127
2, 2240, Note_off_c, 1, 51, 0
2, 2240, Note_off_c, 1, 67, 0
2, 5240, Note_on_c, 1, 43, 127
2, 5240, Note_on_c, 1, 50, 127
2, 5240, Note_on_c, 1, 60, 127
2, 5240, Note_on_c, 1, 62, 127
2, 5240, Note_on_c, 1, 69, 127
2, 5600, Note_off_c, 1, 43, 0
2, 5600, Note_off_c, 1, 50, 0
2, 5600, Note_off_c, 1, 60, 0
2, 5600, Note_off_c, 1, 62, 0
2, 5600, Note_off_c, 1, 69, 0
2, 13400, Note_on_c, 1, 37, 127
2, 13400, Note_on_c, 1, 49, 127
2, 15240, Note_off_c, 1, 37, 0
2, 15240, Note_off_c, 1, 49, 0
2, 18240, Note_on_c, 1, 40, 127
2, 18240, Note_on_c, 1, 52, 127
2, 18240, Note_on_c, 1, 64, 127
2, 18880, Note_off_c, 1, 40, 0
2, 18880, Note_off_c, 1, 52, 0
2, 18880, Note_off_c, 1, 64, 0
2, 18920, Note_on_c, 1, 40, 127
2, 18920, Note_on_c, 1, 52, 127
2, 18920, Note_on_c, 1, 64, 127
2, 20840, Note_off_c, 1, 40, 0
2, 20840, Note_off_c, 1, 52, 0
2, 20840, Note_off_c, 1, 64, 0
2, 20880, Note_on_c, 1, 40, 127
2, 20880, Note_on_c, 1, 52, 127
2, 20880, Note_on_c, 1, 64, 127
2, 21520, Note_off_c, 1, 40, 0
2, 21520, Note_off_c, 1, 52, 0
2, 21520, Note_off_c, 1, 64, 0
2, 24480, Note_on_c, 1, 54, 127
2, 24480, Note_on_c, 1, 61, 127
2, 24480, Note_on_c, 1, 64, 127
2, 24480, Note_on_c, 1, 70, 127
2, 24480, Note_on_c, 1, 76, 127
2, 25080, Note_off_c, 1, 76, 0
2, 25320, Note_off_c, 1, 54, 0
2, 25320, Note_off_c, 1, 61, 0
2, 25320, Note_off_c, 1, 64, 0
2, 25320, Note_off_c, 1, 70, 0
2, 25360, Note_on_c, 1, 47, 127
2, 25360, Note_on_c, 1, 59, 127
2, 25360, Note_on_c, 1, 63, 127
2, 25360, Note_on_c, 1, 71, 127
2, 26160, Note_off_c, 1, 47, 0
2, 26160, Note_off_c, 1, 59, 0
2, 26160, Note_off_c, 1, 63, 0
2, 26160, Note_off_c, 1, 71, 0
2, 26200, Note_on_c, 1, 47, 127
2, 26200, Note_on_c, 1, 59, 127
2, 26200, Note_on_c, 1, 63, 127
2, 26200, Note_on_c, 1, 71, 127
2, 26840, Note_off_c, 1, 47, 0
2, 26840, Note_off_c, 1, 59, 0
2, 26840, Note_off_c, 1, 63, 0
2, 26840, Note_off_c, 1, 71, 0
2, 28720, Note_on_c, 1, 58, 127
2, 28800, Note_off_c, 1, 58, 0
2, 28840, Note_on_c, 1, 59, 127
2, 30040, Note_off_c, 1, 59, 0
2, 30080, Note_on_c, 1, 59, 127
2, 30280, Note_off_c, 1, 59, 0
2, 30320, Note_on_c, 1, 62, 127
2, 31520, Note_on_c, 1, 61, 127
2, 31520, Note_off_c, 1, 62, 0
2, 31920, Note_off_c, 1, 61, 0
2, 31960, Note_on_c, 1, 57, 127
2, 32280, Note_off_c, 1, 57, 0
2, 32320, Note_on_c, 1, 57, 127
2, 32600, Note_on_c, 1, 73, 127
2, 33640, Note_off_c, 1, 57, 0
2, 33640, Note_off_c, 1, 73, 0
2, 33680, Note_on_c, 1, 47, 127
2, 33680, Note_on_c, 1, 62, 127
2, 34240, Note_off_c, 1, 47, 0
2, 34240, Note_off_c, 1, 62, 0
2, 34280, Note_on_c, 1, 52, 127
2, 34280, Note_on_c, 1, 68, 127
2, 34480, Note_off_c, 1, 52, 0
2, 34480, Note_off_c, 1, 68, 0
2, 34520, Note_on_c, 1, 52, 127
2, 34520, Note_on_c, 1, 68, 127
2, 35280, Note_off_c, 1, 52, 0
2, 35280, Note_off_c, 1, 68, 0
2, 35320, Note_on_c, 1, 50, 127
2, 35320, Note_on_c, 1, 69, 127
2, 35880, Note_off_c, 1, 50, 0
2, 35880, Note_off_c, 1, 69, 0
2, 35920, Note_on_c, 1, 72, 127
2, 36480, Note_off_c, 1, 72, 0
2, 36560, Note_on_c, 1, 66, 127
2, 37120, Note_off_c, 1, 66, 0
2, 37160, Note_on_c, 1, 69, 127
2, 37400, Note_off_c, 1, 69, 0
2, 37440, Note_on_c, 1, 66, 127
2, 38600, Note_off_c, 1, 66, 0
2, 38680, Note_on_c, 1, 69, 127
2, 39080, Note_off_c, 1, 69, 0
2, 39080, Note_on_c, 1, 70, 127
2, 39280, Note_off_c, 1, 70, 0
2, 39320, Note_on_c, 1, 71, 127
2, 39480, Note_off_c, 1, 71, 0
2, 39520, Note_on_c, 1, 38, 127
2, 39520, Note_on_c, 1, 50, 127
2, 39520, Note_on_c, 1, 64, 127
2, 39520, Note_on_c, 1, 68, 127
2, 39520, Note_on_c, 1, 71, 127
2, 40320, Note_off_c, 1, 38, 0
2, 40320, Note_off_c, 1, 50, 0
2, 40320, Note_off_c, 1, 64, 0
2, 40320, Note_off_c, 1, 68, 0
2, 40320, Note_off_c, 1, 71, 0
2, 40360, Note_on_c, 1, 54, 127
2, 40360, Note_on_c, 1, 66, 127
2, 40720, Note_off_c, 1, 54, 0
2, 40720, Note_off_c, 1, 66, 0
2, 40800, Note_on_c, 1, 56, 127
2, 40800, Note_on_c, 1, 68, 127
2, 41160, Note_off_c, 1, 56, 0
2, 41160, Note_off_c, 1, 68, 0
2, 41200, Note_on_c, 1, 54, 127
2, 41200, Note_on_c, 1, 66, 127
2, 42360, Note_off_c, 1, 54, 0
2, 42360, Note_off_c, 1, 66, 0
2, 42400, Note_on_c, 1, 56, 127
2, 42400, Note_on_c, 1, 64, 127
2, 42760, Note_off_c, 1, 56, 0
2, 42760, Note_off_c, 1, 64, 0
2, 42840, Note_on_c, 1, 45, 127
2, 42840, Note_on_c, 1, 57, 127
2, 43200, Note_off_c, 1, 45, 0
2, 43200, Note_off_c, 1, 57, 0
2, 43240, Note_on_c, 1, 47, 127
2, 43240, Note_on_c, 1, 59, 127
2, 44600, Note_off_c, 1, 47, 0
2, 44600, Note_off_c, 1, 59, 0
2, 47680, Note_on_c, 1, 47, 127
2, 47680, Note_on_c, 1, 57, 127
2, 47680, Note_on_c, 1, 62, 127
2, 47680, Note_on_c, 1, 68, 127
2, 47680, Note_on_c, 1, 71, 127
2, 47840, Note_on_c, 1, 45, 127
2, 47840, Note_off_c, 1, 47, 0
2, 47840, Note_on_c, 1, 60, 127
2, 47840, Note_off_c, 1, 62, 0
2, 47840, Note_off_c, 1, 68, 0
2, 47840, Note_on_c, 1, 69, 127
2, 47840, Note_off_c, 1, 71, 0
2, 47840, Note_on_c, 1, 72, 127
2, 48880, Note_off_c, 1, 45, 0
2, 48880, Note_off_c, 1, 57, 0
2, 48880, Note_off_c, 1, 60, 0
2, 48880, Note_off_c, 1, 69, 0
2, 48880, Note_off_c, 1, 72, 0
2, 48920, Note_on_c, 1, 45, 127
2, 48920, Note_on_c, 1, 57, 127
2, 48920, Note_on_c, 1, 60, 127
2, 48920, Note_on_c, 1, 69, 127
2, 48920, Note_on_c, 1, 72, 127
2, 50720, Note_off_c, 1, 45, 0
2, 50720, Note_off_c, 1, 57, 0
2, 50720, Note_off_c, 1, 60, 0
2, 50720, Note_off_c, 1, 69, 0
2, 50720, Note_off_c, 1, 72, 0
2, 50760, Note_on_c, 1, 55, 127
2, 50760, Note_on_c, 1, 57, 127
2, 50760, Note_on_c, 1, 62, 127
2, 50760, Note_on_c, 1, 81, 127
2, 50760, Note_on_c, 1, 86, 127
2, 51000, Note_off_c, 1, 55, 0
2, 51000, Note_off_c, 1, 57, 0
2, 51000, Note_off_c, 1, 62, 0
2, 51000, Note_off_c, 1, 81, 0
2, 51000, Note_off_c, 1, 86, 0
2, 51040, Note_on_c, 1, 55, 127
2, 51040, Note_on_c, 1, 57, 127
2, 51040, Note_on_c, 1, 62, 127
2, 51040, Note_on_c, 1, 81, 127
2, 51040, Note_on_c, 1, 86, 127
2, 51160, Note_off_c, 1, 57, 0
2, 51160, Note_off_c, 1, 81, 0
2, 51200, Note_on_c, 1, 57, 127
2, 51200, Note_on_c, 1, 81, 127
2, 51400, Note_off_c, 1, 57, 0
2, 51400, Note_off_c, 1, 81, 0
2, 51600, Note_off_c, 1, 55, 0
2, 51600, Note_off_c, 1, 62, 0
2, 51600, Note_off_c, 1, 86, 0
2, 51640, Note_on_c, 1, 44, 127
2, 51640, Note_on_c, 1, 66, 127
2, 51640, Note_on_c, 1, 70, 127
2, 51640, Note_on_c, 1, 73, 127
2, 51640, Note_on_c, 1, 77, 127
2, 52400, Note_off_c, 1, 44, 0
2, 52400, Note_off_c, 1, 66, 0
2, 52400, Note_off_c, 1, 70, 0
2, 52400, Note_off_c, 1, 73, 0
2, 52400, Note_off_c, 1, 77, 0
2, 52440, Note_on_c, 1, 53, 127
2, 52440, Note_on_c, 1, 59, 127
2, 52440, Note_on_c, 1, 63, 127
2, 52440, Note_on_c, 1, 99, 127
2, 52440, Note_on_c, 1, 101, 127
2, 52680, Note_on_c, 1, 89, 127
2, 52680, Note_off_c, 1, 99, 0
2, 52680, Note_off_c, 1, 101, 0
2, 52760, Note_off_c, 1, 53, 0
2, 52760, Note_off_c, 1, 59, 0
2, 52760, Note_off_c, 1, 63, 0
2, 52760, Note_off_c, 1, 89, 0
2, 52840, Note_on_c, 1, 48, 127
2, 52840, Note_on_c, 1, 64, 127
2, 52840, Note_on_c, 1, 68, 127
2, 52840, Note_on_c, 1, 76, 127
2, 53040, Note_off_c, 1, 48, 0
2, 53040, Note_off_c, 1, 64, 0
2, 53040, Note_off_c, 1, 68, 0
2, 53040, Note_off_c, 1, 76, 0
2, 53080, Note_on_c, 1, 48, 127
2, 53080, Note_on_c, 1, 64, 127
2, 53080, Note_on_c, 1, 68, 127
2, 53080, Note_on_c, 1, 76, 127
2, 53280, Note_off_c, 1, 48, 0
2, 53280, Note_off_c, 1, 64, 0
2, 53280, Note_off_c, 1, 68, 0
2, 53280, Note_off_c, 1, 76, 0
2, 53360, Note_on_c, 1, 31, 127
2, 53360, Note_on_c, 1, 43, 127
2, 53360, Note_on_c, 1, 50, 127
2, 53360, Note_on_c, 1, 62, 127
2, 53360, Note_on_c, 1, 71, 127
2, 53360, Note_on_c, 1, 83, 127
2, 53400, Note_off_c, 1, 31, 0
2, 53400, Note_off_c, 1, 43, 0
2, 53400, Note_off_c, 1, 50, 0
2, 53400, Note_off_c, 1, 62, 0
2, 53400, Note_off_c, 1, 71, 0
2, 53400, Note_off_c, 1, 83, 0
2, 53520, Note_on_c, 1, 46, 127
2, 53520, Note_on_c, 1, 57, 127
2, 53520, Note_on_c, 1, 77, 127
2, 53520, Note_on_c, 1, 84, 127
2, 53560, Note_off_c, 1, 46, 0
2, 53560, Note_off_c, 1, 57, 0
2, 53560, Note_off_c, 1, 77, 0
2, 53560, Note_off_c, 1, 84, 0
2, 53760, Note_on_c, 1, 37, 127
2, 53760, Note_on_c, 1, 42, 127
2, 53760, Note_on_c, 1, 54, 127
2, 53760, Note_on_c, 1, 58, 127
2, 53760, Note_on_c, 1, 64, 127
2, 53760, Note_on_c, 1, 66, 127
2, 53800, Note_off_c, 1, 37, 0
2, 53800, Note_off_c, 1, 42, 0
2, 53800, Note_off_c, 1, 54, 0
2, 53800, Note_off_c, 1, 58, 0
2, 53800, Note_off_c, 1, 64, 0
2, 53800, Note_off_c, 1, 66, 0
2, 54000, Note_on_c, 1, 47, 127
2, 54000, Note_on_c, 1, 50, 127
2, 54000, Note_on_c, 1, 54, 127
2, 54000, Note_on_c, 1, 59, 127
2, 54000, Note_on_c, 1, 74, 127
2, 54360, Note_off_c, 1, 47, 0
2, 54360, Note_off_c, 1, 50, 0
2, 54360, Note_off_c, 1, 54, 0
2, 54360, Note_off_c, 1, 59, 0
2, 54360, Note_off_c, 1, 74, 0
2, 54400, Note_on_c, 1, 39, 127
2, 54400, Note_on_c, 1, 85, 127
2, 54400, Note_on_c, 1, 94, 127
2, 54400, Note_on_c, 1, 97, 127
2, 54440, Note_off_c, 1, 39, 0
2, 54440, Note_on_c, 1, 51, 127
2, 54520, Note_on_c, 1, 46, 127
2, 54520, Note_off_c, 1, 51, 0
2, 54560, Note_on_c, 1, 39, 127
2, 54560, Note_off_c, 1, 46, 0
2, 54600, Note_off_c, 1, 39, 0
2, 54600, Note_on_c, 1, 51, 127
2, 54640, Note_on_c, 1, 39, 127
2, 54640, Note_off_c, 1, 51, 0
2, 54720, Note_on_c, 1, 33, 127
2, 54720, Note_off_c, 1, 39, 0
2, 54720, Note_on_c, 1, 50, 127
2, 54720, Note_on_c, 1, 57, 127
2, 54720, Note_off_c, 1, 85, 0
2, 54720, Note_off_c, 1, 94, 0
2, 54720, Note_off_c, 1, 97, 0
2, 54760, Note_off_c, 1, 33, 0
2, 54760, Note_off_c, 1, 50, 0
2, 54760, Note_off_c, 1, 57, 0
2, 54800, Note_on_c, 1, 46, 127
2, 54800, Note_on_c, 1, 50, 127
2, 54800, Note_on_c, 1, 53, 127
2, 54800, Note_on_c, 1, 58, 127
2, 54800, Note_on_c, 1, 65, 127
2, 54800, Note_on_c, 1, 70, 127
2, 54800, Note_on_c, 1, 74, 127
2, 54800, Note_on_c, 1, 77, 127
2, 55000, Note_off_c, 1, 46, 0
2, 55000, Note_off_c, 1, 50, 0
2, 55000, Note_off_c, 1, 53, 0
2, 55000, Note_off_c, 1, 58, 0
2, 55000, Note_off_c, 1, 65, 0
2, 55000, Note_off_c, 1, 70, 0
2, 55000, Note_off_c, 1, 74, 0
2, 55000, Note_off_c, 1, 77, 0
2, 55040, Note_on_c, 1, 46, 127
2, 55040, Note_on_c, 1, 50, 127
2, 55040, Note_on_c, 1, 53, 127
2, 55040, Note_on_c, 1, 58, 127
2, 55040, Note_on_c, 1, 65, 127
2, 55040, Note_on_c, 1, 70, 127
2, 55040, Note_on_c, 1, 74, 127
2, 55040, Note_on_c, 1, 77, 127
2, 55200, Note_off_c, 1, 46, 0
2, 55200, Note_off_c, 1, 50, 0
2, 55200, Note_off_c, 1, 53, 0
2, 55200, Note_off_c, 1, 58, 0
2, 55200, Note_off_c, 1, 65, 0
2, 55200, Note_off_c, 1, 70, 0
2, 55200, Note_off_c, 1, 74, 0
2, 55200, Note_off_c, 1, 77, 0
2, 55880, Note_on_c, 1, 39, 127
2, 56200, Note_off_c, 1, 39, 0
2, 56280, Note_on_c, 1, 39, 127
2, 56280, Note_on_c, 1, 51, 127
2, 56280, Note_on_c, 1, 63, 127
2, 56280, Note_on_c, 1, 75, 127
2, 56840, Note_off_c, 1, 39, 0
2, 56840, Note_off_c, 1, 51, 0
2, 56840, Note_off_c, 1, 63, 0
2, 56840, Note_off_c, 1, 75, 0
2, 56880, Note_on_c, 1, 39, 127
2, 56880, Note_on_c, 1, 51, 127
2, 56880, Note_on_c, 1, 63, 127
2, 56880, Note_on_c, 1, 75, 127
2, 57480, Note_off_c, 1, 39, 0
2, 57480, Note_off_c, 1, 51, 0
2, 57480, Note_off_c, 1, 63, 0
2, 57480, Note_off_c, 1, 75, 0
2, 57520, Note_on_c, 1, 39, 127
2, 57520, Note_on_c, 1, 51, 127
2, 57520, Note_on_c, 1, 63, 127
2, 57520, Note_on_c, 1, 75, 127
2, 57640, Note_off_c, 1, 39, 0
2, 57640, Note_off_c, 1, 51, 0
2, 57640, Note_off_c, 1, 63, 0
2, 57640, Note_off_c, 1, 75, 0
2, 57680, Note_on_c, 1, 39, 127
2, 57680, Note_on_c, 1, 51, 127
2, 57680, Note_on_c, 1, 63, 127
2, 57680, Note_on_c, 1, 75, 127
2, 58120, Note_off_c, 1, 39, 0
2, 58120, Note_off_c, 1, 51, 0
2, 58120, Note_off_c, 1, 63, 0
2, 58120, Note_off_c, 1, 75, 0
2, 58160, Note_on_c, 1, 46, 127
2, 58160, Note_on_c, 1, 58, 127
2, 58160, Note_on_c, 1, 70, 127
2, 58160, Note_on_c, 1, 82, 127
2, 58360, Note_off_c, 1, 46, 0
2, 58360, Note_off_c, 1, 58, 0
2, 58360, Note_off_c, 1, 70, 0
2, 58360, Note_off_c, 1, 82, 0
2, 58880, Note_on_c, 1, 41, 127
2, 58880, Note_on_c, 1, 53, 127
2, 58880, Note_on_c, 1, 65, 127
2, 58880, Note_on_c, 1, 77, 127
2, 59240, Note_off_c, 1, 41, 0
2, 59240, Note_off_c, 1, 53, 0
2, 59240, Note_off_c, 1, 65, 0
2, 59240, Note_off_c, 1, 77, 0
2, 59280, Note_on_c, 1, 40, 127
2, 59280, Note_on_c, 1, 52, 127
2, 59280, Note_on_c, 1, 64, 127
2, 59280, Note_on_c, 1, 76, 127
2, 59480, Note_off_c, 1, 40, 0
2, 59480, Note_off_c, 1, 52, 0
2, 59480, Note_off_c, 1, 64, 0
2, 59480, Note_off_c, 1, 76, 0
2, 64600, Note_on_c, 1, 41, 127
2, 64600, Note_on_c, 1, 48, 127
2, 64840, Note_off_c, 1, 41, 0
2, 64840, Note_off_c, 1, 48, 0
2, 65240, Note_on_c, 1, 60, 127
2, 65240, Note_on_c, 1, 84, 127
2, 65600, Note_off_c, 1, 60, 0
2, 65600, Note_off_c, 1, 84, 0
2, 65640, Note_on_c, 1, 54, 127
2, 65640, Note_on_c, 1, 63, 127
2, 65640, Note_on_c, 1, 84, 127
2, 65640, Note_on_c, 1, 87, 127
2, 65680, Note_off_c, 1, 54, 0
2, 65680, Note_on_c, 1, 55, 127
2, 65680, Note_on_c, 1, 57, 127
2, 65680, Note_on_c, 1, 61, 127
2, 65680, Note_off_c, 1, 63, 0
2, 65680, Note_off_c, 1, 84, 0
2, 65680, Note_on_c, 1, 85, 127
2, 65680, Note_off_c, 1, 87, 0
2, 65840, Note_on_c, 1, 54, 127
2, 65840, Note_off_c, 1, 55, 0
2, 65840, Note_on_c, 1, 60, 127
2, 65840, Note_off_c, 1, 61, 0
2, 65840, Note_on_c, 1, 62, 127
2, 65840, Note_off_c, 1, 85, 0
2, 65840, Note_on_c, 1, 93, 127
2, 65880, Note_on_c, 1, 33, 127
2, 65880, Note_off_c, 1, 54, 0
2, 65880, Note_off_c, 1, 57, 0
2, 65880, Note_on_c, 1, 59, 127
2, 65880, Note_off_c, 1, 60, 0
2, 65880, Note_off_c, 1, 62, 0
2, 65880, Note_on_c, 1, 69, 127
2, 65880, Note_off_c, 1, 93, 0
2, 65920, Note_off_c, 1, 33, 0
2, 65920, Note_off_c, 1, 59, 0
2, 65920, Note_off_c, 1, 69, 0
2, 65920, Note_on_c, 1, 80, 127
2, 65920, Note_on_c, 1, 94, 127
2, 65960, Note_on_c, 1, 29, 127
2, 65960, Note_on_c, 1, 65, 127
2, 65960, Note_off_c, 1, 80, 0
2, 65960, Note_off_c, 1, 94, 0
2, 66000, Note_off_c, 1, 29, 0
2, 66000, Note_off_c, 1, 65, 0
2, 66040, Note_on_c, 1, 93, 127
2, 66840, Note_off_c, 1, 93, 0
2, 66880, Note_on_c, 1, 88, 127
2, 67040, Note_off_c, 1, 88, 0
2, 67080, Note_on_c, 1, 86, 127
2, 67240, Note_off_c, 1, 86, 0
2, 67280, Note_on_c, 1, 60, 127
2, 67280, Note_on_c, 1, 63, 127
2, 67280, Note_on_c, 1, 69, 127
2, 67280, Note_on_c, 1, 81, 127
2, 67400, Note_off_c, 1, 81, 0
2, 67480, Note_on_c, 1, 81, 127
2, 67600, Note_off_c, 1, 60, 0
2, 67600, Note_off_c, 1, 63, 0
2, 67600, Note_off_c, 1, 69, 0
2, 67600, Note_off_c, 1, 81, 0
2, 67640, Note_on_c, 1, 60, 127
2, 67640, Note_on_c, 1, 63, 127
2, 67640, Note_on_c, 1, 69, 127
2, 67640, Note_on_c, 1, 81, 127
2, 68440, Note_off_c, 1, 81, 0
2, 68680, Note_off_c, 1, 60, 0
2, 68680, Note_off_c, 1, 63, 0
2, 68680, Note_off_c, 1, 69, 0
2, 71480, Note_on_c, 1, 58, 127
2, 71480, Note_on_c, 1, 63, 127
2, 71480, Note_on_c, 1, 67, 127
2, 72120, Note_on_c, 1, 75, 127
2, 72920, Note_off_c, 1, 58, 0
2, 72920, Note_off_c, 1, 63, 0
2, 72920, Note_off_c, 1, 67, 0
2, 72920, Note_off_c, 1, 75, 0
2, 73000, Note_on_c, 1, 58, 127
2, 73000, Note_on_c, 1, 65, 127
2, 73000, Note_on_c, 1, 67, 127
2, 73000, Note_on_c, 1, 73, 127
2, 73760, Note_off_c, 1, 58, 0
2, 73760, Note_off_c, 1, 65, 0
2, 73760, Note_off_c, 1, 67, 0
2, 73760, Note_off_c, 1, 73, 0
2, 73880, Note_on_c, 1, 58, 127
2, 73880, Note_on_c, 1, 65, 127
2, 74240, Note_off_c, 1, 58, 0
2, 74240, Note_off_c, 1, 65, 0
2, 74280, Note_on_c, 1, 46, 127
2, 74280, Note_on_c, 1, 62, 127
2, 74280, Note_on_c, 1, 65, 127
2, 74640, Note_off_c, 1, 65, 0
2, 74680, Note_on_c, 1, 65, 127
2, 75040, Note_off_c, 1, 46, 0
2, 75040, Note_off_c, 1, 62, 0
2, 75040, Note_off_c, 1, 65, 0
2, 75080, Note_on_c, 1, 54, 127
2, 75080, Note_on_c, 1, 63, 127
2, 75080, Note_on_c, 1, 69, 127
2, 75400, Note_off_c, 1, 54, 0
2, 75440, Note_on_c, 1, 54, 127
2, 75800, Note_off_c, 1, 54, 0
2, 75800, Note_off_c, 1, 63, 0
2, 75800, Note_off_c, 1, 69, 0
2, 75880, Note_on_c, 1, 54, 127
2, 75880, Note_on_c, 1, 60, 127
2, 75880, Note_on_c, 1, 69, 127
2, 77040, Note_off_c, 1, 54, 0
2, 77040, Note_off_c, 1, 60, 0
2, 77040, Note_off_c, 1, 69, 0
2, 77080, Note_on_c, 1, 53, 127
2, 77080, Note_on_c, 1, 62, 127
2, 77080, Note_on_c, 1, 69, 127
2, 78240, Note_off_c, 1, 53, 0
2, 78240, Note_off_c, 1, 62, 0
2, 78240, Note_off_c, 1, 69, 0
2, 78280, Note_on_c, 1, 53, 127
2, 78280, Note_on_c, 1, 62, 127
2, 78280, Note_on_c, 1, 69, 127
2, 78320, Note_off_c, 1, 69, 0
2, 78360, Note_on_c, 1, 69, 127
2, 79360, Note_off_c, 1, 53, 0
2, 79360, Note_off_c, 1, 69, 0
2, 79400, Note_on_c, 1, 46, 127
2, 79400, Note_on_c, 1, 70, 127
2, 80200, Note_off_c, 1, 46, 0
2, 80200, Note_off_c, 1, 62, 0
2, 80200, Note_off_c, 1, 70, 0
2, 82000, Note_on_c, 1, 40, 127
2, 82360, Note_off_c, 1, 40, 0
2, 82400, Note_on_c, 1, 35, 127
2, 82760, Note_off_c, 1, 35, 0
2, 82800, Note_on_c, 1, 47, 127
2, 83160, Note_off_c, 1, 47, 0
2, 83200, Note_on_c, 1, 47, 127
2, 83560, Note_off_c, 1, 47, 0
2, 83640, Note_on_c, 1, 49, 127
2, 84000, Note_off_c, 1, 49, 0
2, 84040, Note_on_c, 1, 52, 127
2, 84400, Note_off_c, 1, 52, 0
2, 84440, Note_on_c, 1, 59, 127
2, 84800, Note_off_c, 1, 59, 0
2, 84840, Note_on_c, 1, 57, 127
2, 85200, Note_off_c, 1, 57, 0
2, 85240, Note_on_c, 1, 52, 127
2, 85640, Note_off_c, 1, 52, 0
2, 85720, Note_on_c, 1, 52, 127
2, 86080, Note_off_c, 1, 52, 0
2, 86120, Note_on_c, 1, 59, 127
2, 86480, Note_off_c, 1, 59, 0
2, 86520, Note_on_c, 1, 52, 127
2, 86880, Note_off_c, 1, 52, 0
2, 86920, Note_on_c, 1, 52, 127
2, 87280, Note_off_c, 1, 52, 0
2, 87320, Note_on_c, 1, 47, 127
2, 87680, Note_off_c, 1, 47, 0
2, 87720, Note_on_c, 1, 52, 127
2, 88080, Note_off_c, 1, 52, 0
2, 88160, Note_on_c, 1, 45, 127
2, 88160, Note_on_c, 1, 69, 127
2, 88520, Note_off_c, 1, 45, 0
2, 88520, Note_off_c, 1, 69, 0
2, 88560, Note_on_c, 1, 36, 127
2, 88560, Note_on_c, 1, 64, 127
2, 88920, Note_off_c, 1, 36, 0
2, 88920, Note_off_c, 1, 64, 0
2, 88960, Note_on_c, 1, 59, 127
2, 89320, Note_off_c, 1, 59, 0
2, 89360, Note_on_c, 1, 62, 127
2, 89720, Note_off_c, 1, 62, 0
2, 89760, Note_on_c, 1, 64, 127
2, 90120, Note_off_c, 1, 64, 0
2, 90160, Note_on_c, 1, 52, 127
2, 90440, Note_off_c, 1, 52, 0
2, 90480, Note_on_c, 1, 52, 127
2, 90560, Note_off_c, 1, 52, 0
2, 90600, Note_on_c, 1, 57, 127
2, 90960, Note_off_c, 1, 57, 0
2, 91000, Note_on_c, 1, 55, 127
2, 91360, Note_off_c, 1, 55, 0
2, 91400, Note_on_c, 1, 57, 127
2, 91760, Note_off_c, 1, 57, 0
2, 91800, Note_on_c, 1, 55, 127
2, 92160, Note_off_c, 1, 55, 0
2, 92200, Note_on_c, 1, 57, 127
2, 92560, Note_off_c, 1, 57, 0
2, 92600, Note_on_c, 1, 59, 127
2, 92720, Note_off_c, 1, 59, 0
2, 92760, Note_on_c, 1, 59, 127
2, 93000, Note_off_c, 1, 59, 0
2, 93040, Note_on_c, 1, 64, 127
2, 93400, Note_off_c, 1, 64, 0
2, 93440, Note_on_c, 1, 67, 127
2, 93800, Note_off_c, 1, 67, 0
2, 93840, Note_on_c, 1, 66, 127
2, 94200, Note_off_c, 1, 66, 0
2, 94240, Note_on_c, 1, 66, 127
2, 94600, Note_off_c, 1, 66, 0
2, 94640, Note_on_c, 1, 64, 127
2, 95000, Note_off_c, 1, 64, 0
2, 95040, Note_on_c, 1, 58, 127
2, 95240, Note_off_c, 1, 58, 0
2, 95280, Note_on_c, 1, 58, 127
2, 95440, Note_off_c, 1, 58, 0
2, 95480, Note_on_c, 1, 59, 127
2, 95840, Note_off_c, 1, 59, 0
2, 95880, Note_on_c, 1, 57, 127
2, 96240, Note_off_c, 1, 57, 0
2, 96280, Note_on_c, 1, 52, 127
2, 96640, Note_off_c, 1, 52, 0
2, 96680, Note_on_c, 1, 54, 127
2, 97040, Note_off_c, 1, 54, 0
2, 97080, Note_on_c, 1, 52, 127
2, 97440, Note_off_c, 1, 52, 0
2, 97480, Note_on_c, 1, 57, 127
2, 97560, Note_off_c, 1, 57, 0
2, 97600, Note_on_c, 1, 57, 127
2, 97880, Note_off_c, 1, 57, 0
2, 97920, Note_on_c, 1, 50, 127
2, 98280, Note_off_c, 1, 50, 0
2, 98320, Note_on_c, 1, 47, 127
2, 98680, Note_off_c, 1, 47, 0
2, 98720, Note_on_c, 1, 52, 127
2, 99080, Note_off_c, 1, 52, 0
2, 99120, Note_on_c, 1, 57, 127
2, 99480, Note_off_c, 1, 57, 0
2, 99520, Note_on_c, 1, 43, 127
2, 99720, Note_off_c, 1, 43, 0
2, 99760, Note_on_c, 1, 43, 127
2, 99920, Note_off_c, 1, 43, 0
2, 99960, Note_on_c, 1, 55, 127
2, 100320, Note_off_c, 1, 55, 0
2, 100360, Note_on_c, 1, 54, 127
2, 100720, Note_off_c, 1, 54, 0
2, 100760, Note_on_c, 1, 55, 127
2, 101120, Note_off_c, 1, 55, 0
2, 101160, Note_on_c, 1, 57, 127
2, 101520, Note_off_c, 1, 57, 0
2, 101560, Note_on_c, 1, 55, 127
2, 101920, Note_off_c, 1, 55, 0
2, 102000, Note_on_c, 1, 57, 127
2, 102360, Note_off_c, 1, 57, 0
2, 102400, Note_on_c, 1, 50, 127
2, 102760, Note_off_c, 1, 50, 0
2, 102800, Note_on_c, 1, 50, 127
2, 103160, Note_off_c, 1, 50, 0
2, 103200, Note_on_c, 1, 50, 127
2, 103560, Note_off_c, 1, 50, 0
2, 103600, Note_on_c, 1, 57, 127
2, 103960, Note_off_c, 1, 57, 0
2, 104000, Note_on_c, 1, 38, 127
2, 104160, Note_off_c, 1, 38, 0
2, 104200, Note_on_c, 1, 38, 127
2, 104400, Note_off_c, 1, 38, 0
2, 104440, Note_on_c, 1, 46, 127
2, 104800, Note_off_c, 1, 46, 0
2, 104840, Note_on_c, 1, 45, 127
2, 104840, Note_on_c, 1, 57, 127
2, 105200, Note_off_c, 1, 45, 0
2, 105200, Note_off_c, 1, 57, 0
2, 105240, Note_on_c, 1, 47, 127
2, 105240, Note_on_c, 1, 59, 127
2, 105560, Note_on_c, 1, 45, 127
2, 105560, Note_off_c, 1, 47, 0
2, 105560, Note_on_c, 1, 57, 127
2, 105560, Note_off_c, 1, 59, 0
2, 105600, Note_off_c, 1, 45, 0
2, 105600, Note_on_c, 1, 47, 127
2, 105600, Note_off_c, 1, 57, 0
2, 105600, Note_on_c, 1, 59, 127
2, 106400, Note_off_c, 1, 47, 0
2, 106400, Note_off_c, 1, 59, 0
2, 106440, Note_on_c, 1, 51, 127
2, 106440, Note_on_c, 1, 59, 127
2, 106760, Note_off_c, 1, 51, 0
2, 106760, Note_off_c, 1, 59, 0
2, 106800, Note_on_c, 1, 51, 127
2, 106800, Note_on_c, 1, 59, 127
2, 106840, Note_off_c, 1, 51, 0
2, 106840, Note_off_c, 1, 59, 0
2, 106880, Note_on_c, 1, 57, 127
2, 106880, Note_on_c, 1, 66, 127
2, 107240, Note_off_c, 1, 57, 0
2, 107240, Note_off_c, 1, 66, 0
2, 107280, Note_on_c, 1, 50, 127
2, 107280, Note_on_c, 1, 65, 127
2, 107640, Note_off_c, 1, 50, 0
2, 107640, Note_off_c, 1, 65, 0
2, 107680, Note_on_c, 1, 51, 127
2, 107680, Note_on_c, 1, 66, 127
2, 108040, Note_off_c, 1, 51, 0
2, 108080, Note_on_c, 1, 54, 127
2, 108440, Note_off_c, 1, 54, 0
2, 108440, Note_off_c, 1, 66, 0
2, 108480, Note_on_c, 1, 47, 127
2, 108480, Note_on_c, 1, 69, 127
2, 108840, Note_off_c, 1, 47, 0
2, 108880, Note_on_c, 1, 47, 127
2, 109240, Note_off_c, 1, 47, 0
2, 109240, Note_off_c, 1, 69, 0
2, 109320, Note_on_c, 1, 51, 127
2, 109320, Note_on_c, 1, 69, 127
2, 109680, Note_off_c, 1, 51, 0
2, 109680, Note_off_c, 1, 69, 0
2, 109720, Note_on_c, 1, 54, 127
2, 109720, Note_on_c, 1, 69, 127
2, 110080, Note_off_c, 1, 54, 0
2, 110120, Note_on_c, 1, 52, 127
2, 110480, Note_off_c, 1, 52, 0
2, 110480, Note_off_c, 1, 69, 0
2, 110520, Note_on_c, 1, 57, 127
2, 110520, Note_on_c, 1, 63, 127
2, 110880, Note_off_c, 1, 63, 0
2, 110920, Note_on_c, 1, 64, 127
2, 111680, Note_off_c, 1, 57, 0
2, 111680, Note_off_c, 1, 64, 0
2, 111760, Note_on_c, 1, 38, 127
2, 111760, Note_on_c, 1, 50, 127
2, 111760, Note_on_c, 1, 57, 127
2, 111760, Note_on_c, 1, 60, 127
2, 112520, Note_off_c, 1, 38, 0
2, 112520, Note_off_c, 1, 57, 0
2, 112520, Note_off_c, 1, 60, 0
2, 112560, Note_off_c, 1, 50, 0
2, 112560, Note_on_c, 1, 68, 127
2, 112560, Note_on_c, 1, 74, 127
2, 112560, Note_on_c, 1, 77, 127
2, 112560, Note_on_c, 1, 79, 127
2, 112560, Note_on_c, 1, 86, 127
2, 112600, Note_on_c, 1, 48, 127
2, 112600, Note_on_c, 1, 55, 127
2, 112600, Note_on_c, 1, 65, 127
2, 112600, Note_on_c, 1, 67, 127
2, 112600, Note_off_c, 1, 68, 0
2, 112600, Note_on_c, 1, 73, 127
2, 112600, Note_off_c, 1, 74, 0
2, 112600, Note_off_c, 1, 79, 0
2, 112600, Note_off_c, 1, 86, 0
2, 113280, Note_on_c, 1, 33, 127
2, 113280, Note_on_c, 1, 45, 127
2, 113280, Note_off_c, 1, 48, 0
2, 113280, Note_off_c, 1, 55, 0
2, 113280, Note_off_c, 1, 65, 0
2, 113280, Note_off_c, 1, 67, 0
2, 113280, Note_off_c, 1, 73, 0
2, 113280, Note_off_c, 1, 77, 0
2, 113280, Note_on_c, 1, 78, 127
2, 113280, Note_on_c, 1, 81, 127
2, 113280, Note_on_c, 1, 86, 127
2, 113280, Note_on_c, 1, 90, 127
2, 113320, Note_off_c, 1, 33, 0
2, 113320, Note_off_c, 1, 45, 0
2, 113320, Note_off_c, 1, 78, 0
2, 113320, Note_off_c, 1, 81, 0
2, 113320, Note_off_c, 1, 86, 0
2, 113320, Note_off_c, 1, 90, 0
2, 113360, Note_on_c, 1, 48, 127
2, 113720, Note_off_c, 1, 48, 0
2, 113760, Note_on_c, 1, 52, 127
2, 114120, Note_off_c, 1, 52, 0
2, 114160, Note_on_c, 1, 52, 127
2, 114560, Note_off_c, 1, 52, 0
2, 114600, Note_on_c, 1, 60, 127
2, 115800, Note_off_c, 1, 60, 0
2, 115800, Note_on_c, 1, 61, 127
2, 115840, Note_on_c, 1, 60, 127
2, 115840, Note_off_c, 1, 61, 0
2, 116160, Note_off_c, 1, 60, 0
2, 116200, Note_on_c, 1, 64, 127
2, 116600, Note_off_c, 1, 64, 0
2, 116640, Note_on_c, 1, 64, 127
2, 117400, Note_off_c, 1, 64, 0
2, 117440, Note_on_c, 1, 60, 127
2, 118600, Note_off_c, 1, 60, 0
2, 118640, Note_on_c, 1, 59, 127
2, 119000, Note_off_c, 1, 59, 0
2, 119080, Note_on_c, 1, 60, 127
2, 119440, Note_off_c, 1, 60, 0
2, 119440, Note_on_c, 1, 61, 127
2, 119840, Note_off_c, 1, 61, 0
2, 119880, Note_on_c, 1, 60, 127
2, 120000, Note_off_c, 1, 60, 0
2, 120040, End_track
3, 0, Start_track
3, 0, Title_t, "MIDI"
3, 1536, End_track
0, 0, End_of_file
