0, 0, Header, 1, 3, 192
1, 0, Start_track
1, 0, Time_signature, 4, 2, 24, 8
1, 0, Tempo, 500000
1, 120040, End_track
2, 0, Start_track
2, 0, Text_t, "random instrument: random person i dunno whatev"
2, 0, Title_t, "Track 1"
2, 0, Note_on_c, 1, 58, 127
2, 0, Note_on_c, 1, 66, 127
2, 0, Note_on_c, 1, 78, 127
2, 0, Note_on_c, 1, 82, 127
2, 0, Note_on_c, 1, 90, 127
2, 40, Note_off_c, 1, 58, 0
2, 40, Note_on_c, 1, 59, 127
2, 40, Note_off_c, 1, 66, 0
2, 40, Note_on_c, 1, 74, 127
2, 40, Note_off_c, 1, 82, 0
2, 40, Note_on_c, 1, 83, 127
2, 40, Note_on_c, 1, 86, 127
2, 40, Note_off_c, 1, 90, 0
2, 80, Note_off_c, 1, 59, 0
2, 80, Note_off_c, 1, 74, 0
2, 80, Note_off_c, 1, 78, 0
2, 80, Note_off_c, 1, 83, 0
2, 80, Note_off_c, 1, 86, 0
2, 120, Note_on_c, 1, 58, 127
2, 120, Note_on_c, 1, 66, 127
2, 120, Note_on_c, 1, 78, 127
2, 120, Note_on_c, 1, 82, 127
2, 120, Note_on_c, 1, 90, 127
2, 360, Note_off_c, 1, 58, 0
2, 360, Note_off_c, 1, 66, 0
2, 360, Note_off_c, 1, 78, 0
2, 360, Note_off_c, 1, 82, 0
2, 360, Note_off_c, 1, 90, 0
2, 400, Note_on_c, 1, 51, 127
2, 400, Note_on_c, 1, 59, 127
2, 400, Note_on_c, 1, 71, 127
2, 400, Note_on_c, 1, 75, 127
2, 840, Note_off_c, 1, 51, 0
2, 840, Note_off_c, 1, 59, 0
2, 840, Note_off_c, 1, 71, 0
2, 840, Note_off_c, 1, 75, 0
2, 880, Note_on_c, 1, 44, 127
2, 880, Note_on_c, 1, 51, 127
2, 880, Note_on_c, 1, 63, 127
2, 880, Note_on_c, 1, 68, 127
2, 1640, Note_off_c, 1, 44, 0
2, 1640, Note_off_c, 1, 51, 0
2, 1640, Note_off_c, 1, 63, 0
2, 1640, Note_off_c, 1, 68, 0
2, 1680, Note_on_c, 1, 39, 127
2, 1680, Note_on_c, 1, 67, 127
2, 1680, Note_on_c, 1, 70, 127
2, 2040, Note_off_c, 1, 39, 0
2, 2040, Note_off_c, 1, 67, 0
2, 2040, Note_off_c, 1, 70, 0
2, 2080, Note_on_c, 1, 51, 127
2, 2080, Note_on_c, 1, 67, 127
2, 2280, Note_off_c, 1, 51, 0
2, 2280, Note_off_c, 1, 67, 0
2, 2360, Note_on_c, 1, 51, 127
2, 2360, Note_on_c, 1, 67, 127
2, 2520, Note_off_c, 1, 67, 0
2, 2560, Note_on_c, 1, 70, 127
2, 2760, Note_off_c, 1, 51, 0
2, 2760, Note_off_c, 1, 70, 0
2, 2800, Note_on_c, 1, 48, 127
2, 2800, Note_on_c, 1, 67, 127
2, 2800, Note_on_c, 1, 72, 127
2, 3160, Note_off_c, 1, 48, 0
2, 3160, Note_off_c, 1, 67, 0
2, 3160, Note_off_c, 1, 72, 0
2, 3200, Note_on_c, 1, 48, 127
2, 3200, Note_on_c, 1, 55, 127
2, 3200, Note_on_c, 1, 63, 127
2, 3200, Note_on_c, 1, 75, 127
2, 3960, Note_off_c, 1, 48, 0
2, 3960, Note_off_c, 1, 55, 0
2, 3960, Note_off_c, 1, 63, 0
2, 3960, Note_off_c, 1, 75, 0
2, 4000, Note_on_c, 1, 46, 127
2, 4000, Note_on_c, 1, 51, 127
2, 4000, Note_on_c, 1, 67, 127
2, 4000, Note_on_c, 1, 75, 127
2, 4000, Note_on_c, 1, 79, 127
2, 4400, Note_off_c, 1, 46, 0
2, 4400, Note_off_c, 1, 51, 0
2, 4400, Note_off_c, 1, 67, 0
2, 4400, Note_off_c, 1, 75, 0
2, 4400, Note_off_c, 1, 79, 0
2, 4480, Note_on_c, 1, 46, 127
2, 4480, Note_on_c, 1, 51, 127
2, 4480, Note_on_c, 1, 67, 127
2, 4480, Note_on_c, 1, 75, 127
2, 4480, Note_on_c, 1, 79, 127
2, 4840, Note_off_c, 1, 46, 0
2, 4840, Note_off_c, 1, 51, 0
2, 4840, Note_off_c, 1, 67, 0
2, 4840, Note_off_c, 1, 75, 0
2, 4840, Note_off_c, 1, 79, 0
2, 4880, Note_on_c, 1, 46, 127
2, 4880, Note_on_c, 1, 51, 127
2, 4880, Note_on_c, 1, 67, 127
2, 4880, Note_on_c, 1, 75, 127
2, 4880, Note_on_c, 1, 79, 127
2, 5240, Note_off_c, 1, 46, 0
2, 5240, Note_off_c, 1, 51, 0
2, 5240, Note_off_c, 1, 67, 0
2, 5240, Note_off_c, 1, 75, 0
2, 5240, Note_off_c, 1, 79, 0
2, 5280, Note_on_c, 1, 46, 127
2, 5280, Note_on_c, 1, 51, 127
2, 5280, Note_on_c, 1, 67, 127
2, 5280, Note_on_c, 1, 75, 127
2, 5280, Note_on_c, 1, 79, 127
2, 5640, Note_off_c, 1, 46, 0
2, 5640, Note_off_c, 1, 51, 0
2, 5640, Note_off_c, 1, 67, 0
2, 5640, Note_off_c, 1, 75, 0
2, 5640, Note_off_c, 1, 79, 0
2, 5680, Note_on_c, 1, 46, 127
2, 5680, Note_on_c, 1, 51, 127
2, 5680, Note_on_c, 1, 67, 127
2, 5680, Note_on_c, 1, 75, 127
2, 5680, Note_on_c, 1, 79, 127
2, 6040, Note_off_c, 1, 46, 0
2, 6040, Note_off_c, 1, 51, 0
2, 6040, Note_off_c, 1, 67, 0
2, 6040, Note_off_c, 1, 75, 0
2, 6040, Note_off_c, 1, 79, 0
2, 6080, Note_on_c, 1, 46, 127
2, 6080, Note_on_c, 1, 51, 127
2, 6080, Note_on_c, 1, 67, 127
2, 6080, Note_on_c, 1, 75, 127
2, 6080, Note_on_c, 1, 79, 127
2, 6440, Note_off_c, 1, 46, 0
2, 6440, Note_off_c, 1, 51, 0
2, 6440, Note_off_c, 1, 67, 0
2, 6440, Note_off_c, 1, 75, 0
2, 6440, Note_off_c, 1, 79, 0
2, 6480, Note_on_c, 1, 46, 127
2, 6480, Note_on_c, 1, 51, 127
2, 6480, Note_on_c, 1, 67, 127
2, 6480, Note_on_c, 1, 75, 127
2, 6480, Note_on_c, 1, 79, 127
2, 6840, Note_off_c, 1, 46, 0
2, 6840, Note_off_c, 1, 51, 0
2, 6840, Note_off_c, 1, 67, 0
2, 6840, Note_off_c, 1, 75, 0
2, 6840, Note_off_c, 1, 79, 0
2, 6920, Note_on_c, 1, 46, 127
2, 6920, Note_on_c, 1, 51, 127
2, 6920, Note_on_c, 1, 67, 127
2, 6920, Note_on_c, 1, 75, 127
2, 6920, Note_on_c, 1, 79, 127
2, 7280, Note_off_c, 1, 46, 0
2, 7280, Note_off_c, 1, 51, 0
2, 7280, Note_off_c, 1, 67, 0
2, 7280, Note_off_c, 1, 75, 0
2, 7280, Note_off_c, 1, 79, 0
2, 7320, Note_on_c, 1, 46, 127
2, 7320, Note_on_c, 1, 51, 127
2, 7320, Note_on_c, 1, 67, 127
2, 7320, Note_on_c, 1, 75, 127
2, 7320, Note_on_c, 1, 79, 127
2, 7680, Note_off_c, 1, 46, 0
2, 7680, Note_off_c, 1, 51, 0
2, 7680, Note_off_c, 1, 67, 0
2, 7680, Note_off_c, 1, 75, 0
2, 7680, Note_off_c, 1, 79, 0
2, 7720, Note_on_c, 1, 46, 127
2, 7720, Note_on_c, 1, 51, 127
2, 7720, Note_on_c, 1, 67, 127
2, 7720, Note_on_c, 1, 75, 127
2, 7720, Note_on_c, 1, 79, 127
2, 8080, Note_off_c, 1, 46, 0
2, 8080, Note_off_c, 1, 51, 0
2, 8080, Note_off_c, 1, 67, 0
2, 8080, Note_off_c, 1, 75, 0
2, 8080, Note_off_c, 1, 79, 0
2, 8120, Note_on_c, 1, 46, 127
2, 8120, Note_on_c, 1, 51, 127
2, 8120, Note_on_c, 1, 67, 127
2, 8120, Note_on_c, 1, 75, 127
2, 8120, Note_on_c, 1, 79, 127
2, 8440, Note_on_c, 1, 33, 127
2, 8440, Note_on_c, 1, 45, 127
2, 8440, Note_off_c, 1, 46, 0
2, 8440, Note_off_c, 1, 51, 0
2, 8440, Note_on_c, 1, 73, 127
2, 8440, Note_off_c, 1, 75, 0
2, 8480, Note_off_c, 1, 33, 0
2, 8480, Note_off_c, 1, 45, 0
2, 8480, Note_off_c, 1, 67, 0
2, 8480, Note_off_c, 1, 73, 0
2, 8480, Note_off_c, 1, 79, 0
2, 8520, Note_on_c, 1, 46, 127
2, 8520, Note_on_c, 1, 51, 127
2, 8520, Note_on_c, 1, 67, 127
2, 8520, Note_on_c, 1, 75, 127
2, 8520, Note_on_c, 1, 79, 127
2, 8880, Note_off_c, 1, 46, 0
2, 8880, Note_off_c, 1, 51, 0
2, 8880, Note_off_c, 1, 67, 0
2, 8880, Note_off_c, 1, 75, 0
2, 8880, Note_off_c, 1, 79, 0
2, 8920, Note_on_c, 1, 46, 127
2, 8920, Note_on_c, 1, 51, 127
2, 8920, Note_on_c, 1, 67, 127
2, 8920, Note_on_c, 1, 75, 127
2, 8920, Note_on_c, 1, 79, 127
2, 9120, Note_off_c, 1, 46, 0
2, 9120, Note_off_c, 1, 51, 0
2, 9120, Note_off_c, 1, 67, 0
2, 9120, Note_off_c, 1, 75, 0
2, 9120, Note_off_c, 1, 79, 0
2, 9160, Note_on_c, 1, 46, 127
2, 9160, Note_on_c, 1, 51, 127
2, 9160, Note_on_c, 1, 67, 127
2, 9160, Note_on_c, 1, 75, 127
2, 9160, Note_on_c, 1, 79, 127
2, 9320, Note_off_c, 1, 46, 0
2, 9320, Note_off_c, 1, 51, 0
2, 9320, Note_off_c, 1, 67, 0
2, 9320, Note_off_c, 1, 75, 0
2, 9320, Note_off_c, 1, 79, 0
2, 9360, Note_on_c, 1, 46, 127
2, 9360, Note_on_c, 1, 51, 127
2, 9360, Note_on_c, 1, 67, 127
2, 9360, Note_on_c, 1, 75, 127
2, 9360, Note_on_c, 1, 79, 127
2, 9720, Note_off_c, 1, 46, 0
2, 9720, Note_off_c, 1, 51, 0
2, 9720, Note_off_c, 1, 67, 0
2, 9720, Note_off_c, 1, 75, 0
2, 9720, Note_off_c, 1, 79, 0
2, 9760, Note_on_c, 1, 46, 127
2, 9760, Note_on_c, 1, 51, 127
2, 9760, Note_on_c, 1, 67, 127
2, 9760, Note_on_c, 1, 75, 127
2, 9760, Note_on_c, 1, 79, 127
2, 10120, Note_off_c, 1, 46, 0
2, 10120, Note_off_c, 1, 51, 0
2, 10120, Note_off_c, 1, 67, 0
2, 10120, Note_off_c, 1, 75, 0
2, 10120, Note_off_c, 1, 79, 0
2, 10160, Note_on_c, 1, 46, 127
2, 10160, Note_on_c, 1, 51, 127
2, 10160, Note_on_c, 1, 67, 127
2, 10160, Note_on_c, 1, 75, 127
2, 10160, Note_on_c, 1, 79, 127
2, 10520, Note_off_c, 1, 46, 0
2, 10520, Note_off_c, 1, 51, 0
2, 10520, Note_off_c, 1, 67, 0
2, 10520, Note_off_c, 1, 75, 0
2, 10520, Note_off_c, 1, 79, 0
2, 10560, Note_on_c, 1, 46, 127
2, 10560, Note_on_c, 1, 51, 127
2, 10560, Note_on_c, 1, 67, 127
2, 10560, Note_on_c, 1, 75, 127
2, 10560, Note_on_c, 1, 79, 127
2, 10920, Note_off_c, 1, 46, 0
2, 10920, Note_off_c, 1, 51, 0
2, 10920, Note_off_c, 1, 67, 0
2, 10920, Note_off_c, 1, 75, 0
2, 10920, Note_off_c, 1, 79, 0
2, 10960, Note_on_c, 1, 46, 127
2, 10960, Note_on_c, 1, 51, 127
2, 10960, Note_on_c, 1, 67, 127
2, 10960, Note_on_c, 1, 75, 127
2, 10960, Note_on_c, 1, 79, 127
2, 11320, Note_off_c, 1, 46, 0
2, 11320, Note_off_c, 1, 51, 0
2, 11320, Note_off_c, 1, 67, 0
2, 11320, Note_off_c, 1, 75, 0
2, 11320, Note_off_c, 1, 79, 0
2, 11400, Note_on_c, 1, 46, 127
2, 11400, Note_on_c, 1, 51, 127
2, 11400, Note_on_c, 1, 67, 127
2, 11400, Note_on_c, 1, 75, 127
2, 11400, Note_on_c, 1, 79, 127
2, 11760, Note_off_c, 1, 46, 0
2, 11760, Note_off_c, 1, 51, 0
2, 11760, Note_off_c, 1, 67, 0
2, 11760, Note_off_c, 1, 75, 0
2, 11760, Note_off_c, 1, 79, 0
2, 11800, Note_on_c, 1, 46, 127
2, 11800, Note_on_c, 1, 51, 127
2, 11800, Note_on_c, 1, 67, 127
2, 11800, Note_on_c, 1, 75, 127
2, 11800, Note_on_c, 1, 79, 127
2, 12160, Note_off_c, 1, 46, 0
2, 12160, Note_off_c, 1, 51, 0
2, 12160, Note_off_c, 1, 67, 0
2, 12160, Note_off_c, 1, 75, 0
2, 12160, Note_off_c, 1, 79, 0
2, 12200, Note_on_c, 1, 46, 127
2, 12200, Note_on_c, 1, 51, 127
2, 12200, Note_on_c, 1, 67, 127
2, 12200, Note_on_c, 1, 75, 127
2, 12200, Note_on_c, 1, 79, 127
2, 12560, Note_off_c, 1, 46, 0
2, 12560, Note_off_c, 1, 51, 0
2, 12560, Note_off_c, 1, 67, 0
2, 12560, Note_off_c, 1, 75, 0
2, 12560, Note_off_c, 1, 79, 0
2, 12600, Note_on_c, 1, 46, 127
2, 12600, Note_on_c, 1, 51, 127
2, 12600, Note_on_c, 1, 67, 127
2, 12600, Note_on_c, 1, 75, 127
2, 12600, Note_on_c, 1, 79, 127
2, 12960, Note_off_c, 1, 46, 0
2, 12960, Note_off_c, 1, 51, 0
2, 12960, Note_off_c, 1, 67, 0
2, 12960, Note_off_c, 1, 75, 0
2, 12960, Note_off_c, 1, 79, 0
2, 13000, Note_on_c, 1, 46, 127
2, 13000, Note_on_c, 1, 51, 127
2, 13000, Note_on_c, 1, 67, 127
2, 13000, Note_on_c, 1, 75, 127
2, 13000, Note_on_c, 1, 79, 127
2, 13360, Note_off_c, 1, 46, 0
2, 13360, Note_off_c, 1, 51, 0
2, 13360, Note_off_c, 1, 67, 0
2, 13360, Note_off_c, 1, 75, 0
2, 13360, Note_off_c, 1, 79, 0
2, 13400, Note_on_c, 1, 46, 127
2, 13400, Note_on_c, 1, 51, 127
2, 13400, Note_on_c, 1, 67, 127
2, 13400, Note_on_c, 1, 75, 127
2, 13400, Note_on_c, 1, 79, 127
2, 13680, Note_off_c, 1, 46, 0
2, 13680, Note_off_c, 1, 51, 0
2, 13680, Note_off_c, 1, 67, 0
2, 13680, Note_off_c, 1, 75, 0
2, 13680, Note_off_c, 1, 79, 0
2, 13720, Note_on_c, 1, 46, 127
2, 13720, Note_on_c, 1, 51, 127
2, 13720, Note_on_c, 1, 67, 127
2, 13720, Note_on_c, 1, 75, 127
2, 13720, Note_on_c, 1, 79, 127
2, 13800, Note_off_c, 1, 46, 0
2, 13800, Note_off_c, 1, 51, 0
2, 13800, Note_off_c, 1, 67, 0
2, 13800, Note_off_c, 1, 75, 0
2, 13800, Note_off_c, 1, 79, 0
2, 13840, Note_on_c, 1, 46, 127
2, 13840, Note_on_c, 1, 51, 127
2, 13840, Note_on_c, 1, 67, 127
2, 13840, Note_on_c, 1, 75, 127
2, 13840, Note_on_c, 1, 79, 127
2, 14200, Note_off_c, 1, 46, 0
2, 14200, Note_off_c, 1, 51, 0
2, 14200, Note_off_c, 1, 67, 0
2, 14200, Note_off_c, 1, 75, 0
2, 14200, Note_off_c, 1, 79, 0
2, 14240, Note_on_c, 1, 46, 127
2, 14240, Note_on_c, 1, 51, 127
2, 14240, Note_on_c, 1, 67, 127
2, 14240, Note_on_c, 1, 75, 127
2, 14240, Note_on_c, 1, 79, 127
2, 14600, Note_off_c, 1, 46, 0
2, 14600, Note_off_c, 1, 51, 0
2, 14600, Note_off_c, 1, 67, 0
2, 14600, Note_off_c, 1, 75, 0
2, 14600, Note_off_c, 1, 79, 0
2, 14640, Note_on_c, 1, 46, 127
2, 14640, Note_on_c, 1, 51, 127
2, 14640, Note_on_c, 1, 67, 127
2, 14640, Note_on_c, 1, 75, 127
2, 14640, Note_on_c, 1, 79, 127
2, 15000, Note_off_c, 1, 46, 0
2, 15000, Note_off_c, 1, 51, 0
2, 15000, Note_off_c, 1, 67, 0
2, 15000, Note_off_c, 1, 75, 0
2, 15000, Note_off_c, 1, 79, 0
2, 15040, Note_on_c, 1, 46, 127
2, 15040, Note_on_c, 1, 51, 127
2, 15040, Note_on_c, 1, 67, 127
2, 15040, Note_on_c, 1, 75, 127
2, 15040, Note_on_c, 1, 79, 127
2, 15400, Note_off_c, 1, 46, 0
2, 15400, Note_off_c, 1, 51, 0
2, 15400, Note_off_c, 1, 67, 0
2, 15400, Note_off_c, 1, 75, 0
2, 15400, Note_off_c, 1, 79, 0
2, 15440, Note_on_c, 1, 46, 127
2, 15440, Note_on_c, 1, 51, 127
2, 15440, Note_on_c, 1, 67, 127
2, 15440, Note_on_c, 1, 75, 127
2, 15440, Note_on_c, 1, 79, 127
2, 15800, Note_off_c, 1, 46, 0
2, 15800, Note_off_c, 1, 51, 0
2, 15800, Note_off_c, 1, 67, 0
2, 15800, Note_off_c, 1, 75, 0
2, 15800, Note_off_c, 1, 79, 0
2, 15880, Note_on_c, 1, 59, 127
2, 15880, Note_on_c, 1, 66, 127
2, 15880, Note_on_c, 1, 69, 127
2, 15880, Note_on_c, 1, 78, 127
2, 15880, Note_on_c, 1, 81, 127
2, 16240, Note_off_c, 1, 59, 0
2, 16240, Note_off_c, 1, 66, 0
2, 16240, Note_off_c, 1, 69, 0
2, 16240, Note_off_c, 1, 78, 0
2, 16240, Note_off_c, 1, 81, 0
2, 16280, Note_on_c, 1, 48, 127
2, 16280, Note_on_c, 1, 55, 127
2, 16280, Note_on_c, 1, 67, 127
2, 16280, Note_on_c, 1, 72, 127
2, 16280, Note_on_c, 1, 79, 127
2, 16640, Note_off_c, 1, 48, 0
2, 16640, Note_off_c, 1, 55, 0
2, 16640, Note_off_c, 1, 67, 0
2, 16640, Note_off_c, 1, 72, 0
2, 16640, Note_off_c, 1, 79, 0
2, 16680, Note_on_c, 1, 55, 127
2, 16680, Note_on_c, 1, 62, 127
2, 16680, Note_on_c, 1, 67, 127
2, 16680, Note_on_c, 1, 94, 127
2, 16720, Note_off_c, 1, 55, 0
2, 16720, Note_off_c, 1, 62, 0
2, 16720, Note_on_c, 1, 63, 127
2, 16720, Note_off_c, 1, 67, 0
2, 16720, Note_on_c, 1, 72, 127
2, 16720, Note_on_c, 1, 76, 127
2, 16720, Note_off_c, 1, 94, 0
2, 16760, Note_on_c, 1, 59, 127
2, 16760, Note_on_c, 1, 62, 127
2, 16760, Note_off_c, 1, 63, 0
2, 16760, Note_on_c, 1, 64, 127
2, 16760, Note_on_c, 1, 68, 127
2, 16760, Note_on_c, 1, 71, 127
2, 16760, Note_off_c, 1, 72, 0
2, 16760, Note_on_c, 1, 74, 127
2, 16760, Note_on_c, 1, 83, 127
2, 16800, Note_off_c, 1, 59, 0
2, 16800, Note_off_c, 1, 62, 0
2, 16800, Note_on_c, 1, 63, 127
2, 16800, Note_off_c, 1, 64, 0
2, 16800, Note_off_c, 1, 68, 0
2, 16800, Note_off_c, 1, 71, 0
2, 16800, Note_on_c, 1, 72, 127
2, 16800, Note_off_c, 1, 74, 0
2, 16800, Note_off_c, 1, 83, 0
2, 17040, Note_off_c, 1, 63, 0
2, 17040, Note_off_c, 1, 72, 0
2, 17040, Note_off_c, 1, 76, 0
2, 17080, Note_on_c, 1, 56, 127
2, 17080, Note_on_c, 1, 63, 127
2, 17080, Note_on_c, 1, 80, 127
2, 17080, Note_on_c, 1, 84, 127
2, 17400, Note_off_c, 1, 56, 0
2, 17400, Note_off_c, 1, 63, 0
2, 17400, Note_off_c, 1, 80, 0
2, 17400, Note_off_c, 1, 84, 0
2, 17480, Note_on_c, 1, 52, 127
2, 17480, Note_on_c, 1, 64, 127
2, 17480, Note_on_c, 1, 66, 127
2, 17480, Note_on_c, 1, 68, 127
2, 17520, Note_on_c, 1, 38, 127
2, 17520, Note_off_c, 1, 52, 0
2, 17520, Note_on_c, 1, 58, 127
2, 17520, Note_on_c, 1, 62, 127
2, 17520, Note_off_c, 1, 64, 0
2, 17520, Note_off_c, 1, 66, 0
2, 17520, Note_off_c, 1, 68, 0
2, 17520, Note_on_c, 1, 70, 127
2, 17560, Note_off_c, 1, 38, 0
2, 17560, Note_off_c, 1, 58, 0
2, 17560, Note_off_c, 1, 70, 0
2, 17560, Note_on_c, 1, 72, 127
2, 17560, Note_on_c, 1, 75, 127
2, 17560, Note_on_c, 1, 82, 127
2, 17600, Note_on_c, 1, 50, 127
2, 17600, Note_on_c, 1, 58, 127
2, 17600, Note_off_c, 1, 62, 0
2, 17600, Note_on_c, 1, 65, 127
2, 17600, Note_on_c, 1, 70, 127
2, 17600, Note_off_c, 1, 72, 0
2, 17600, Note_off_c, 1, 75, 0
2, 17640, Note_on_c, 1, 34, 127
2, 17640, Note_off_c, 1, 50, 0
2, 17640, Note_off_c, 1, 58, 0
2, 17640, Note_on_c, 1, 60, 127
2, 17640, Note_off_c, 1, 65, 0
2, 17640, Note_on_c, 1, 68, 127
2, 17640, Note_off_c, 1, 70, 0
2, 17640, Note_on_c, 1, 73, 127
2, 17640, Note_on_c, 1, 79, 127
2, 17640, Note_off_c, 1, 82, 0
2, 17680, Note_off_c, 1, 34, 0
2, 17680, Note_on_c, 1, 59, 127
2, 17680, Note_off_c, 1, 60, 0
2, 17680, Note_on_c, 1, 63, 127
2, 17680, Note_off_c, 1, 73, 0
2, 17720, Note_on_c, 1, 38, 127
2, 17720, Note_off_c, 1, 59, 0
2, 17720, Note_off_c, 1, 63, 0
2, 17720, Note_off_c, 1, 68, 0
2, 17720, Note_off_c, 1, 79, 0
2, 17720, Note_on_c, 1, 90, 127
2, 17720, Note_on_c, 1, 96, 127
2, 17760, Note_off_c, 1, 38, 0
2, 17760, Note_on_c, 1, 64, 127
2, 17760, Note_off_c, 1, 90, 0
2, 17760, Note_on_c, 1, 92, 127
2, 17800, Note_off_c, 1, 64, 0
2, 17800, Note_off_c, 1, 92, 0
2, 17800, Note_off_c, 1, 96, 0
2, 17920, Note_on_c, 1, 58, 127
2, 17920, Note_on_c, 1, 62, 127
2, 17920, Note_on_c, 1, 65, 127
2, 17920, Note_on_c, 1, 70, 127
2, 17920, Note_on_c, 1, 74, 127
2, 17920, Note_on_c, 1, 79, 127
2, 18280, Note_off_c, 1, 58, 0
2, 18280, Note_off_c, 1, 62, 0
2, 18280, Note_off_c, 1, 65, 0
2, 18280, Note_off_c, 1, 70, 0
2, 18280, Note_off_c, 1, 74, 0
2, 18320, Note_on_c, 1, 58, 127
2, 18320, Note_on_c, 1, 62, 127
2, 18320, Note_on_c, 1, 65, 127
2, 18320, Note_on_c, 1, 70, 127
2, 18320, Note_on_c, 1, 74, 127
2, 18640, Note_off_c, 1, 58, 0
2, 18640, Note_off_c, 1, 62, 0
2, 18640, Note_off_c, 1, 65, 0
2, 18640, Note_off_c, 1, 70, 0
2, 18640, Note_off_c, 1, 74, 0
2, 18640, Note_off_c, 1, 79, 0
2, 18640, Note_on_c, 1, 82, 127
2, 18680, Note_off_c, 1, 82, 0
2, 18720, Note_on_c, 1, 48, 127
2, 18720, Note_on_c, 1, 55, 127
2, 18720, Note_on_c, 1, 72, 127
2, 18720, Note_on_c, 1, 76, 127
2, 18720, Note_on_c, 1, 82, 127
2, 18720, Note_on_c, 1, 84, 127
2, 18760, Note_on_c, 1, 42, 127
2, 18760, Note_off_c, 1, 48, 0
2, 18760, Note_on_c, 1, 54, 127
2, 18760, Note_off_c, 1, 55, 0
2, 18760, Note_on_c, 1, 61, 127
2, 18760, Note_off_c, 1, 72, 0
2, 18760, Note_off_c, 1, 82, 0
2, 18760, Note_off_c, 1, 84, 0
2, 18760, Note_on_c, 1, 88, 127
2, 18800, Note_off_c, 1, 42, 0
2, 18800, Note_on_c, 1, 48, 127
2, 18800, Note_off_c, 1, 54, 0
2, 18800, Note_on_c, 1, 55, 127
2, 18800, Note_off_c, 1, 61, 0
2, 18800, Note_on_c, 1, 72, 127
2, 18800, Note_on_c, 1, 82, 127
2, 18800, Note_on_c, 1, 84, 127
2, 18800, Note_off_c, 1, 88, 0
2, 19000, Note_off_c, 1, 48, 0
2, 19000, Note_on_c, 1, 51, 127
2, 19000, Note_off_c, 1, 55, 0
2, 19000, Note_on_c, 1, 58, 127
2, 19000, Note_off_c, 1, 72, 0
2, 19000, Note_off_c, 1, 76, 0
2, 19000, Note_off_c, 1, 82, 0
2, 19000, Note_off_c, 1, 84, 0
2, 19000, Note_on_c, 1, 91, 127
2, 19040, Note_off_c, 1, 51, 0
2, 19040, Note_off_c, 1, 58, 0
2, 19040, Note_off_c, 1, 91, 0
2, 19080, Note_on_c, 1, 49, 127
2, 19080, Note_on_c, 1, 56, 127
2, 19080, Note_on_c, 1, 59, 127
2, 19080, Note_on_c, 1, 82, 127
2, 19120, Note_on_c, 1, 47, 127
2, 19120, Note_off_c, 1, 49, 0
2, 19120, Note_on_c, 1, 52, 127
2, 19120, Note_off_c, 1, 56, 0
2, 19120, Note_on_c, 1, 62, 127
2, 19120, Note_on_c, 1, 66, 127
2, 19120, Note_on_c, 1, 74, 127
2, 19120, Note_on_c, 1, 78, 127
2, 19120, Note_off_c, 1, 82, 0
2, 19160, Note_off_c, 1, 47, 0
2, 19160, Note_on_c, 1, 49, 127
2, 19160, Note_off_c, 1, 52, 0
2, 19160, Note_on_c, 1, 56, 127
2, 19160, Note_off_c, 1, 62, 0
2, 19160, Note_off_c, 1, 66, 0
2, 19160, Note_off_c, 1, 74, 0
2, 19160, Note_off_c, 1, 78, 0
2, 19160, Note_on_c, 1, 82, 127
2, 19440, Note_off_c, 1, 49, 0
2, 19440, Note_off_c, 1, 56, 0
2, 19440, Note_off_c, 1, 59, 0
2, 19440, Note_off_c, 1, 82, 0
2, 19480, Note_on_c, 1, 45, 127
2, 19480, Note_on_c, 1, 57, 127
2, 19480, Note_on_c, 1, 71, 127
2, 19480, Note_on_c, 1, 78, 127
2, 19480, Note_on_c, 1, 81, 127
2, 19840, Note_off_c, 1, 45, 0
2, 19840, Note_off_c, 1, 57, 0
2, 19840, Note_off_c, 1, 71, 0
2, 19840, Note_off_c, 1, 78, 0
2, 19840, Note_off_c, 1, 81, 0
2, 19920, Note_on_c, 1, 55, 127
2, 19920, Note_on_c, 1, 67, 127
2, 19920, Note_on_c, 1, 72, 127
2, 19920, Note_on_c, 1, 76, 127
2, 19920, Note_on_c, 1, 84, 127
2, 20240, Note_off_c, 1, 55, 0
2, 20240, Note_off_c, 1, 67, 0
2, 20240, Note_off_c, 1, 72, 0
2, 20240, Note_off_c, 1, 76, 0
2, 20240, Note_off_c, 1, 84, 0
2, 20320, Note_on_c, 1, 45, 127
2, 20320, Note_on_c, 1, 52, 127
2, 20320, Note_on_c, 1, 57, 127
2, 20320, Note_on_c, 1, 73, 127
2, 20320, Note_on_c, 1, 76, 127
2, 20320, Note_on_c, 1, 85, 127
2, 20680, Note_off_c, 1, 45, 0
2, 20680, Note_off_c, 1, 52, 0
2, 20680, Note_off_c, 1, 57, 0
2, 20680, Note_off_c, 1, 73, 0
2, 20680, Note_off_c, 1, 76, 0
2, 20680, Note_off_c, 1, 85, 0
2, 20720, Note_on_c, 1, 45, 127
2, 20720, Note_on_c, 1, 52, 127
2, 20720, Note_on_c, 1, 57, 127
2, 20720, Note_on_c, 1, 73, 127
2, 20720, Note_on_c, 1, 76, 127
2, 20720, Note_on_c, 1, 85, 127
2, 21080, Note_off_c, 1, 45, 0
2, 21080, Note_off_c, 1, 52, 0
2, 21080, Note_off_c, 1, 57, 0
2, 21080, Note_off_c, 1, 73, 0
2, 21080, Note_off_c, 1, 76, 0
2, 21080, Note_off_c, 1, 85, 0
2, 21120, Note_on_c, 1, 45, 127
2, 21120, Note_on_c, 1, 52, 127
2, 21120, Note_on_c, 1, 57, 127
2, 21120, Note_on_c, 1, 73, 127
2, 21120, Note_on_c, 1, 76, 127
2, 21120, Note_on_c, 1, 85, 127
2, 21480, Note_off_c, 1, 45, 0
2, 21480, Note_off_c, 1, 52, 0
2, 21480, Note_off_c, 1, 57, 0
2, 21480, Note_off_c, 1, 73, 0
2, 21480, Note_off_c, 1, 76, 0
2, 21480, Note_off_c, 1, 85, 0
2, 21520, Note_on_c, 1, 45, 127
2, 21520, Note_on_c, 1, 52, 127
2, 21520, Note_on_c, 1, 57, 127
2, 21520, Note_on_c, 1, 73, 127
2, 21520, Note_on_c, 1, 76, 127
2, 21520, Note_on_c, 1, 85, 127
2, 21880, Note_off_c, 1, 45, 0
2, 21880, Note_off_c, 1, 52, 0
2, 21880, Note_off_c, 1, 57, 0
2, 21880, Note_off_c, 1, 73, 0
2, 21880, Note_off_c, 1, 76, 0
2, 21880, Note_off_c, 1, 85, 0
2, 21920, Note_on_c, 1, 31, 127
2, 21920, Note_on_c, 1, 43, 127
2, 21920, Note_on_c, 1, 71, 127
2, 22080, Note_off_c, 1, 71, 0
2, 22080, Note_on_c, 1, 74, 127
2, 22120, Note_off_c, 1, 31, 0
2, 22120, Note_off_c, 1, 43, 0
2, 22120, Note_off_c, 1, 74, 0
2, 22160, Note_on_c, 1, 31, 127
2, 22160, Note_on_c, 1, 43, 127
2, 22160, Note_on_c, 1, 71, 127
2, 22720, Note_off_c, 1, 31, 0
2, 22720, Note_off_c, 1, 43, 0
2, 22720, Note_off_c, 1, 71, 0
2, 22760, Note_on_c, 1, 38, 127
2, 22760, Note_on_c, 1, 47, 127
2, 23080, Note_off_c, 1, 38, 0
2, 23080, Note_off_c, 1, 47, 0
2, 23160, Note_on_c, 1, 38, 127
2, 23160, Note_on_c, 1, 47, 127
2, 23480, Note_off_c, 1, 38, 0
2, 23480, Note_off_c, 1, 47, 0
2, 23520, Note_on_c, 1, 38, 127
2, 23520, Note_on_c, 1, 47, 127
2, 23880, Note_off_c, 1, 38, 0
2, 23880, Note_off_c, 1, 47, 0
2, 23920, Note_on_c, 1, 38, 127
2, 23920, Note_on_c, 1, 48, 127
2, 24280, Note_off_c, 1, 38, 0
2, 24280, Note_off_c, 1, 48, 0
2, 24360, Note_on_c, 1, 48, 127
2, 24720, Note_off_c, 1, 48, 0
2, 24760, Note_on_c, 1, 36, 127
2, 24760, Note_on_c, 1, 48, 127
2, 24760, Note_on_c, 1, 55, 127
2, 25160, Note_off_c, 1, 36, 0
2, 25160, Note_off_c, 1, 48, 0
2, 25160, Note_off_c, 1, 55, 0
2, 25200, Note_on_c, 1, 55, 127
2, 25520, Note_off_c, 1, 55, 0
2, 25560, Note_on_c, 1, 53, 127
2, 25600, Note_off_c, 1, 53, 0
2, 25600, Note_on_c, 1, 55, 127
2, 25920, Note_off_c, 1, 55, 0
2, 25960, Note_on_c, 1, 43, 127
2, 25960, Note_on_c, 1, 50, 127
2, 26160, Note_off_c, 1, 43, 0
2, 26160, Note_off_c, 1, 50, 0
2, 26200, Note_on_c, 1, 43, 127
2, 26200, Note_on_c, 1, 50, 127
2, 26320, Note_off_c, 1, 43, 0
2, 26320, Note_off_c, 1, 50, 0
2, 26400, Note_on_c, 1, 43, 127
2, 26760, Note_off_c, 1, 43, 0
2, 26800, Note_on_c, 1, 38, 127
2, 27160, Note_off_c, 1, 38, 0
2, 27200, Note_on_c, 1, 40, 127
2, 27560, Note_off_c, 1, 40, 0
2, 27600, Note_on_c, 1, 36, 127
2, 27600, Note_on_c, 1, 67, 127
2, 27960, Note_off_c, 1, 36, 0
2, 27960, Note_off_c, 1, 67, 0
2, 28000, Note_on_c, 1, 38, 127
2, 28000, Note_on_c, 1, 66, 127
2, 28320, Note_off_c, 1, 38, 0
2, 28320, Note_off_c, 1, 66, 0
2, 28360, Note_on_c, 1, 38, 127
2, 28360, Note_on_c, 1, 66, 127
2, 28400, Note_off_c, 1, 38, 0
2, 28400, Note_off_c, 1, 66, 0
2, 28440, Note_on_c, 1, 50, 127
2, 28440, Note_on_c, 1, 57, 127
2, 28440, Note_on_c, 1, 60, 127
2, 28440, Note_on_c, 1, 62, 127
2, 28480, Note_off_c, 1, 60, 0
2, 28480, Note_off_c, 1, 62, 0
2, 28480, Note_on_c, 1, 74, 127
2, 28520, Note_on_c, 1, 55, 127
2, 28520, Note_off_c, 1, 57, 0
2, 28520, Note_on_c, 1, 59, 127
2, 28520, Note_off_c, 1, 74, 0
2, 28800, Note_off_c, 1, 50, 0
2, 28800, Note_off_c, 1, 55, 0
2, 28800, Note_off_c, 1, 59, 0
2, 28840, Note_on_c, 1, 50, 127
2, 28840, Note_on_c, 1, 55, 127
2, 28840, Note_on_c, 1, 59, 127
2, 30400, Note_off_c, 1, 50, 0
2, 30400, Note_off_c, 1, 55, 0
2, 30400, Note_off_c, 1, 59, 0
2, 30480, Note_on_c, 1, 50, 127
2, 30480, Note_on_c, 1, 57, 127
2, 30480, Note_on_c, 1, 60, 127
2, 30480, Note_on_c, 1, 62, 127
2, 30520, Note_off_c, 1, 62, 0
2, 30880, Note_off_c, 1, 57, 0
2, 30880, Note_on_c, 1, 59, 127
2, 30880, Note_off_c, 1, 60, 0
2, 30880, Note_on_c, 1, 62, 127
2, 31640, Note_off_c, 1, 50, 0
2, 31640, Note_off_c, 1, 59, 0
2, 31640, Note_off_c, 1, 62, 0
2, 31680, Note_on_c, 1, 50, 127
2, 31680, Note_on_c, 1, 54, 127
2, 31680, Note_on_c, 1, 57, 127
2, 31680, Note_on_c, 1, 62, 127
2, 32400, Note_off_c, 1, 50, 0
2, 32400, Note_off_c, 1, 54, 0
2, 32400, Note_off_c, 1, 57, 0
2, 32400, Note_off_c, 1, 62, 0
2, 32480, Note_on_c, 1, 42, 127
2, 32480, Note_on_c, 1, 51, 127
2, 32480, Note_on_c, 1, 60, 127
2, 32480, Note_on_c, 1, 72, 127
2, 32840, Note_off_c, 1, 42, 0
2, 32840, Note_off_c, 1, 51, 0
2, 32840, Note_off_c, 1, 60, 0
2, 32840, Note_off_c, 1, 72, 0
2, 32880, Note_on_c, 1, 42, 127
2, 32880, Note_on_c, 1, 51, 127
2, 32880, Note_on_c, 1, 60, 127
2, 32880, Note_on_c, 1, 72, 127
2, 33280, Note_off_c, 1, 42, 0
2, 33280, Note_off_c, 1, 51, 0
2, 33280, Note_off_c, 1, 60, 0
2, 33280, Note_off_c, 1, 72, 0
2, 33320, Note_on_c, 1, 47, 127
2, 33320, Note_on_c, 1, 56, 127
2, 33320, Note_on_c, 1, 59, 127
2, 33320, Note_on_c, 1, 71, 127
2, 34520, Note_off_c, 1, 47, 0
2, 34520, Note_off_c, 1, 56, 0
2, 34520, Note_off_c, 1, 59, 0
2, 34520, Note_off_c, 1, 71, 0
2, 34560, Note_on_c, 1, 44, 127
2, 34560, Note_on_c, 1, 48, 127
2, 34560, Note_on_c, 1, 72, 127
2, 34560, Note_on_c, 1, 74, 127
2, 34560, Note_on_c, 1, 84, 127
2, 34600, Note_off_c, 1, 48, 0
2, 34600, Note_on_c, 1, 56, 127
2, 34600, Note_on_c, 1, 70, 127
2, 34600, Note_off_c, 1, 72, 0
2, 34600, Note_on_c, 1, 73, 127
2, 34600, Note_off_c, 1, 74, 0
2, 34600, Note_on_c, 1, 77, 127
2, 34600, Note_off_c, 1, 84, 0
2, 34640, Note_on_c, 1, 48, 127
2, 34640, Note_off_c, 1, 56, 0
2, 34640, Note_off_c, 1, 70, 0
2, 34640, Note_on_c, 1, 72, 127
2, 34640, Note_off_c, 1, 73, 0
2, 34640, Note_on_c, 1, 74, 127
2, 34640, Note_off_c, 1, 77, 0
2, 34640, Note_on_c, 1, 84, 127
2, 34720, Note_off_c, 1, 44, 0
2, 34720, Note_off_c, 1, 48, 0
2, 34720, Note_off_c, 1, 72, 0
2, 34720, Note_off_c, 1, 74, 0
2, 34720, Note_off_c, 1, 84, 0
2, 34760, Note_on_c, 1, 44, 127
2, 34760, Note_on_c, 1, 48, 127
2, 34760, Note_on_c, 1, 72, 127
2, 34760, Note_on_c, 1, 74, 127
2, 34760, Note_on_c, 1, 84, 127
2, 34840, Note_on_c, 1, 34, 127
2, 34840, Note_off_c, 1, 44, 0
2, 34840, Note_on_c, 1, 46, 127
2, 34840, Note_off_c, 1, 48, 0
2, 34840, Note_off_c, 1, 72, 0
2, 34840, Note_on_c, 1, 77, 127
2, 34840, Note_on_c, 1, 82, 127
2, 34840, Note_off_c, 1, 84, 0
2, 34880, Note_off_c, 1, 34, 0
2, 34880, Note_on_c, 1, 36, 127
2, 34880, Note_off_c, 1, 46, 0
2, 34880, Note_on_c, 1, 65, 127
2, 34880, Note_off_c, 1, 74, 0
2, 34880, Note_off_c, 1, 77, 0
2, 34880, Note_off_c, 1, 82, 0
2, 34880, Note_on_c, 1, 84, 127
2, 34920, Note_on_c, 1, 35, 127
2, 34920, Note_off_c, 1, 36, 0
2, 34920, Note_on_c, 1, 42, 127
2, 34920, Note_on_c, 1, 62, 127
2, 34920, Note_off_c, 1, 65, 0
2, 34920, Note_on_c, 1, 66, 127
2, 34920, Note_off_c, 1, 84, 0
2, 34960, Note_off_c, 1, 35, 0
2, 34960, Note_off_c, 1, 42, 0
2, 34960, Note_on_c, 1, 61, 127
2, 34960, Note_off_c, 1, 62, 0
2, 34960, Note_off_c, 1, 66, 0
2, 34960, Note_on_c, 1, 70, 127
2, 34960, Note_on_c, 1, 75, 127
2, 34960, Note_on_c, 1, 85, 127
2, 35000, Note_on_c, 1, 31, 127
2, 35000, Note_on_c, 1, 41, 127
2, 35000, Note_on_c, 1, 45, 127
2, 35000, Note_on_c, 1, 48, 127
2, 35000, Note_on_c, 1, 53, 127
2, 35000, Note_off_c, 1, 61, 0
2, 35000, Note_on_c, 1, 69, 127
2, 35000, Note_off_c, 1, 70, 0
2, 35000, Note_on_c, 1, 72, 127
2, 35000, Note_off_c, 1, 75, 0
2, 35000, Note_on_c, 1, 77, 127
2, 35000, Note_on_c, 1, 81, 127
2, 35000, Note_off_c, 1, 85, 0
2, 35400, Note_off_c, 1, 31, 0
2, 35400, Note_off_c, 1, 41, 0
2, 35400, Note_off_c, 1, 45, 0
2, 35400, Note_off_c, 1, 48, 0
2, 35400, Note_off_c, 1, 53, 0
2, 35400, Note_off_c, 1, 69, 0
2, 35400, Note_off_c, 1, 72, 0
2, 35400, Note_off_c, 1, 77, 0
2, 35400, Note_off_c, 1, 81, 0
2, 35440, Note_on_c, 1, 39, 127
2, 35440, Note_on_c, 1, 46, 127
2, 35440, Note_on_c, 1, 58, 127
2, 35440, Note_on_c, 1, 63, 127
2, 35440, Note_on_c, 1, 67, 127
2, 36240, Note_off_c, 1, 39, 0
2, 36240, Note_off_c, 1, 46, 0
2, 36240, Note_off_c, 1, 58, 0
2, 36240, Note_off_c, 1, 63, 0
2, 36240, Note_off_c, 1, 67, 0
2, 36280, Note_on_c, 1, 65, 127
2, 36280, Note_on_c, 1, 71, 127
2, 36280, Note_on_c, 1, 78, 127
2, 36280, Note_on_c, 1, 83, 127
2, 36320, Note_on_c, 1, 57, 127
2, 36320, Note_off_c, 1, 65, 0
2, 36320, Note_off_c, 1, 71, 0
2, 36320, Note_off_c, 1, 78, 0
2, 36320, Note_on_c, 1, 81, 127
2, 36320, Note_off_c, 1, 83, 0
2, 36320, Note_on_c, 1, 90, 127
2, 36320, Note_on_c, 1, 93, 127
2, 36360, Note_off_c, 1, 57, 0
2, 36360, Note_on_c, 1, 74, 127
2, 36360, Note_off_c, 1, 90, 0
2, 36400, Note_on_c, 1, 69, 127
2, 36400, Note_off_c, 1, 74, 0
2, 36400, Note_on_c, 1, 79, 127
2, 36400, Note_off_c, 1, 81, 0
2, 36400, Note_on_c, 1, 85, 127
2, 36400, Note_on_c, 1, 88, 127
2, 36400, Note_off_c, 1, 93, 0
2, 36440, Note_on_c, 1, 43, 127
2, 36440, Note_on_c, 1, 45, 127
2, 36440, Note_on_c, 1, 57, 127
2, 36440, Note_on_c, 1, 66, 127
2, 36440, Note_off_c, 1, 69, 0
2, 36440, Note_off_c, 1, 79, 0
2, 36440, Note_on_c, 1, 84, 127
2, 36440, Note_off_c, 1, 85, 0
2, 36440, Note_on_c, 1, 86, 127
2, 36440, Note_off_c, 1, 88, 0
2, 36480, Note_off_c, 1, 43, 0
2, 36480, Note_off_c, 1, 45, 0
2, 36480, Note_off_c, 1, 57, 0
2, 36480, Note_off_c, 1, 66, 0
2, 36480, Note_on_c, 1, 74, 127
2, 36480, Note_off_c, 1, 84, 0
2, 36480, Note_off_c, 1, 86, 0
2, 36480, Note_on_c, 1, 90, 127
2, 36480, Note_on_c, 1, 93, 127
2, 36520, Note_on_c, 1, 66, 127
2, 36520, Note_off_c, 1, 74, 0
2, 36520, Note_on_c, 1, 83, 127
2, 36520, Note_off_c, 1, 93, 0
2, 36560, Note_on_c, 1, 50, 127
2, 36560, Note_on_c, 1, 58, 127
2, 36560, Note_on_c, 1, 62, 127
2, 36560, Note_off_c, 1, 66, 0
2, 36560, Note_off_c, 1, 83, 0
2, 36560, Note_on_c, 1, 86, 127
2, 36560, Note_off_c, 1, 90, 0
2, 36600, Note_off_c, 1, 50, 0
2, 36600, Note_off_c, 1, 58, 0
2, 36600, Note_on_c, 1, 61, 127
2, 36600, Note_off_c, 1, 62, 0
2, 36600, Note_on_c, 1, 68, 127
2, 36600, Note_on_c, 1, 77, 127
2, 36600, Note_on_c, 1, 84, 127
2, 36600, Note_off_c, 1, 86, 0
2, 36640, Note_on_c, 1, 46, 127
2, 36640, Note_on_c, 1, 54, 127
2, 36640, Note_on_c, 1, 66, 127
2, 36640, Note_off_c, 1, 68, 0
2, 36640, Note_on_c, 1, 73, 127
2, 36640, Note_on_c, 1, 76, 127
2, 36640, Note_off_c, 1, 77, 0
2, 36640, Note_on_c, 1, 78, 127
2, 36640, Note_off_c, 1, 84, 0
2, 36680, Note_off_c, 1, 46, 0
2, 36680, Note_off_c, 1, 54, 0
2, 36680, Note_off_c, 1, 61, 0
2, 36680, Note_off_c, 1, 66, 0
2, 36680, Note_off_c, 1, 73, 0
2, 36680, Note_off_c, 1, 76, 0
2, 36680, Note_off_c, 1, 78, 0
2, 36720, Note_on_c, 1, 42, 127
2, 36720, Note_on_c, 1, 54, 127
2, 36720, Note_on_c, 1, 69, 127
2, 36720, Note_on_c, 1, 71, 127
2, 36720, Note_on_c, 1, 75, 127
2, 37080, Note_off_c, 1, 42, 0
2, 37080, Note_off_c, 1, 54, 0
2, 37080, Note_off_c, 1, 69, 0
2, 37080, Note_off_c, 1, 71, 0
2, 37080, Note_off_c, 1, 75, 0
2, 37120, Note_on_c, 1, 37, 127
2, 37120, Note_on_c, 1, 49, 127
2, 37120, Note_on_c, 1, 56, 127
2, 37120, Note_on_c, 1, 68, 127
2, 37880, Note_off_c, 1, 37, 0
2, 37880, Note_off_c, 1, 49, 0
2, 37880, Note_off_c, 1, 56, 0
2, 37880, Note_off_c, 1, 68, 0
2, 37960, Note_on_c, 1, 37, 127
2, 37960, Note_on_c, 1, 49, 127
2, 37960, Note_on_c, 1, 59, 127
2, 37960, Note_on_c, 1, 65, 127
2, 38720, Note_off_c, 1, 37, 0
2, 38720, Note_on_c, 1, 38, 127
2, 38720, Note_off_c, 1, 49, 0
2, 38720, Note_on_c, 1, 50, 127
2, 38720, Note_on_c, 1, 53, 127
2, 38720, Note_on_c, 1, 57, 127
2, 38720, Note_off_c, 1, 59, 0
2, 38720, Note_on_c, 1, 62, 127
2, 38720, Note_off_c, 1, 65, 0
2, 38760, Note_off_c, 1, 38, 0
2, 38760, Note_off_c, 1, 50, 0
2, 38760, Note_off_c, 1, 53, 0
2, 38760, Note_off_c, 1, 57, 0
2, 38760, Note_off_c, 1, 62, 0
2, 38800, Note_on_c, 1, 44, 127
2, 38800, Note_on_c, 1, 82, 127
2, 38800, Note_on_c, 1, 86, 127
2, 38800, Note_on_c, 1, 89, 127
2, 38800, Note_on_c, 1, 94, 127
2, 38840, Note_on_c, 1, 28, 127
2, 38840, Note_on_c, 1, 40, 127
2, 38840, Note_on_c, 1, 47, 127
2, 38840, Note_on_c, 1, 52, 127
2, 38840, Note_on_c, 1, 56, 127
2, 38840, Note_on_c, 1, 68, 127
2, 38840, Note_on_c, 1, 71, 127
2, 38840, Note_on_c, 1, 76, 127
2, 38840, Note_on_c, 1, 80, 127
2, 38840, Note_off_c, 1, 82, 0
2, 38840, Note_off_c, 1, 86, 0
2, 38840, Note_off_c, 1, 89, 0
2, 38840, Note_off_c, 1, 94, 0
2, 39560, Note_off_c, 1, 28, 0
2, 39560, Note_off_c, 1, 40, 0
2, 39560, Note_off_c, 1, 44, 0
2, 39560, Note_off_c, 1, 47, 0
2, 39560, Note_off_c, 1, 52, 0
2, 39560, Note_off_c, 1, 56, 0
2, 39560, Note_off_c, 1, 68, 0
2, 39560, Note_off_c, 1, 71, 0
2, 39560, Note_off_c, 1, 76, 0
2, 39560, Note_off_c, 1, 80, 0
2, 39600, Note_on_c, 1, 46, 127
2, 39600, Note_on_c, 1, 49, 127
2, 39600, Note_on_c, 1, 53, 127
2, 39600, Note_on_c, 1, 57, 127
2, 39600, Note_on_c, 1, 60, 127
2, 39600, Note_on_c, 1, 61, 127
2, 39640, Note_off_c, 1, 46, 0
2, 39640, Note_off_c, 1, 49, 0
2, 39640, Note_on_c, 1, 50, 127
2, 39640, Note_off_c, 1, 53, 0
2, 39640, Note_on_c, 1, 55, 127
2, 39640, Note_off_c, 1, 57, 0
2, 39640, Note_on_c, 1, 59, 127
2, 39640, Note_off_c, 1, 60, 0
2, 39640, Note_off_c, 1, 61, 0
2, 39640, Note_on_c, 1, 65, 127
2, 39640, Note_on_c, 1, 67, 127
2, 39640, Note_on_c, 1, 71, 127
2, 39640, Note_on_c, 1, 76, 127
2, 39680, Note_on_c, 1, 35, 127
2, 39680, Note_on_c, 1, 39, 127
2, 39680, Note_on_c, 1, 44, 127
2, 39680, Note_off_c, 1, 50, 0
2, 39680, Note_off_c, 1, 55, 0
2, 39680, Note_on_c, 1, 56, 127
2, 39680, Note_off_c, 1, 59, 0
2, 39680, Note_on_c, 1, 63, 127
2, 39680, Note_off_c, 1, 65, 0
2, 39680, Note_off_c, 1, 67, 0
2, 39680, Note_off_c, 1, 71, 0
2, 39680, Note_off_c, 1, 76, 0
2, 39720, Note_off_c, 1, 35, 0
2, 39720, Note_off_c, 1, 39, 0
2, 39720, Note_off_c, 1, 44, 0
2, 39720, Note_off_c, 1, 56, 0
2, 39720, Note_off_c, 1, 63, 0
2, 39720, Note_on_c, 1, 65, 127
2, 39720, Note_on_c, 1, 67, 127
2, 39720, Note_on_c, 1, 88, 127
2, 39760, Note_on_c, 1, 56, 127
2, 39760, Note_on_c, 1, 60, 127
2, 39760, Note_off_c, 1, 67, 0
2, 39760, Note_on_c, 1, 68, 127
2, 39760, Note_on_c, 1, 84, 127
2, 39760, Note_off_c, 1, 88, 0
2, 39800, Note_on_c, 1, 45, 127
2, 39800, Note_on_c, 1, 50, 127
2, 39800, Note_on_c, 1, 54, 127
2, 39800, Note_off_c, 1, 56, 0
2, 39800, Note_off_c, 1, 60, 0
2, 39800, Note_on_c, 1, 62, 127
2, 39800, Note_off_c, 1, 65, 0
2, 39800, Note_on_c, 1, 66, 127
2, 39800, Note_off_c, 1, 68, 0
2, 39800, Note_on_c, 1, 69, 127
2, 39800, Note_off_c, 1, 84, 0
2, 39840, Note_off_c, 1, 45, 0
2, 39840, Note_off_c, 1, 50, 0
2, 39840, Note_off_c, 1, 54, 0
2, 39840, Note_off_c, 1, 62, 0
2, 39840, Note_on_c, 1, 64, 127
2, 39840, Note_off_c, 1, 66, 0
2, 39840, Note_off_c, 1, 69, 0
2, 39840, Note_on_c, 1, 87, 127
2, 39840, Note_on_c, 1, 88, 127
2, 39840, Note_on_c, 1, 92, 127
2, 39880, Note_on_c, 1, 40, 127
2, 39880, Note_on_c, 1, 52, 127
2, 39880, Note_on_c, 1, 59, 127
2, 39880, Note_off_c, 1, 64, 0
2, 39880, Note_on_c, 1, 80, 127
2, 39880, Note_on_c, 1, 84, 127
2, 39880, Note_off_c, 1, 87, 0
2, 39880, Note_off_c, 1, 88, 0
2, 39880, Note_off_c, 1, 92, 0
2, 39880, Note_on_c, 1, 96, 127
2, 39920, Note_off_c, 1, 40, 0
2, 39920, Note_off_c, 1, 52, 0
2, 39920, Note_on_c, 1, 56, 127
2, 39920, Note_off_c, 1, 59, 0
2, 39920, Note_on_c, 1, 87, 127
2, 39920, Note_on_c, 1, 92, 127
2, 39920, Note_off_c, 1, 96, 0
2, 39960, Note_on_c, 1, 29, 127
2, 39960, Note_on_c, 1, 53, 127
2, 39960, Note_on_c, 1, 63, 127
2, 39960, Note_on_c, 1, 75, 127
2, 39960, Note_off_c, 1, 80, 0
2, 39960, Note_off_c, 1, 84, 0
2, 39960, Note_off_c, 1, 87, 0
2, 39960, Note_off_c, 1, 92, 0
2, 40000, Note_off_c, 1, 29, 0
2, 40000, Note_off_c, 1, 53, 0
2, 40000, Note_off_c, 1, 56, 0
2, 40000, Note_on_c, 1, 60, 127
2, 40000, Note_on_c, 1, 69, 127
2, 40000, Note_on_c, 1, 74, 127
2, 40000, Note_off_c, 1, 75, 0
2, 40000, Note_on_c, 1, 81, 127
2, 40040, Note_on_c, 1, 56, 127
2, 40040, Note_off_c, 1, 60, 0
2, 40040, Note_off_c, 1, 63, 0
2, 40040, Note_off_c, 1, 69, 0
2, 40040, Note_off_c, 1, 74, 0
2, 40040, Note_off_c, 1, 81, 0
2, 40040, Note_on_c, 1, 90, 127
2, 40040, Note_on_c, 1, 92, 127
2, 40040, Note_on_c, 1, 95, 127
2, 40040, Note_on_c, 1, 98, 127
2, 40040, Note_on_c, 1, 102, 127
2, 40080, Note_on_c, 1, 45, 127
2, 40080, Note_on_c, 1, 52, 127
2, 40080, Note_off_c, 1, 56, 0
2, 40080, Note_on_c, 1, 57, 127
2, 40080, Note_on_c, 1, 60, 127
2, 40080, Note_on_c, 1, 67, 127
2, 40080, Note_on_c, 1, 71, 127
2, 40080, Note_off_c, 1, 90, 0
2, 40080, Note_off_c, 1, 92, 0
2, 40080, Note_off_c, 1, 95, 0
2, 40080, Note_off_c, 1, 98, 0
2, 40080, Note_off_c, 1, 102, 0
2, 40120, Note_on_c, 1, 36, 127
2, 40120, Note_off_c, 1, 45, 0
2, 40120, Note_off_c, 1, 52, 0
2, 40120, Note_on_c, 1, 53, 127
2, 40120, Note_off_c, 1, 60, 0
2, 40120, Note_on_c, 1, 64, 127
2, 40120, Note_off_c, 1, 67, 0
2, 40120, Note_off_c, 1, 71, 0
2, 40120, Note_on_c, 1, 89, 127
2, 40160, Note_off_c, 1, 36, 0
2, 40160, Note_off_c, 1, 53, 0
2, 40160, Note_off_c, 1, 57, 0
2, 40160, Note_off_c, 1, 64, 0
2, 40160, Note_off_c, 1, 89, 0
2, 40200, Note_on_c, 1, 38, 127
2, 40200, Note_on_c, 1, 45, 127
2, 40200, Note_on_c, 1, 62, 127
2, 40200, Note_on_c, 1, 66, 127
2, 40560, Note_off_c, 1, 62, 0
2, 40600, Note_on_c, 1, 62, 127
2, 40800, Note_off_c, 1, 66, 0
2, 40840, Note_off_c, 1, 38, 0
2, 40840, Note_off_c, 1, 45, 0
2, 40840, Note_off_c, 1, 62, 0
2, 40880, Note_on_c, 1, 38, 127
2, 40880, Note_on_c, 1, 45, 127
2, 40880, Note_on_c, 1, 62, 127
2, 41040, Note_off_c, 1, 62, 0
2, 41080, Note_on_c, 1, 57, 127
2, 41440, Note_off_c, 1, 57, 0
2, 41480, Note_on_c, 1, 57, 127
2, 41840, Note_off_c, 1, 38, 0
2, 41840, Note_off_c, 1, 45, 0
2, 41840, Note_off_c, 1, 57, 0
2, 41880, Note_on_c, 1, 33, 127
2, 41880, Note_on_c, 1, 45, 127
2, 41880, Note_on_c, 1, 61, 127
2, 43240, Note_on_c, 1, 57, 127
2, 43280, Note_off_c, 1, 33, 0
2, 43280, Note_off_c, 1, 45, 0
2, 43280, Note_off_c, 1, 57, 0
2, 43280, Note_off_c, 1, 61, 0
2, 43320, Note_on_c, 1, 33, 127
2, 43320, Note_on_c, 1, 45, 127
2, 43320, Note_on_c, 1, 61, 127
2, 43520, Note_off_c, 1, 61, 0
2, 43520, Note_on_c, 1, 63, 127
2, 43520, Note_on_c, 1, 72, 127
2, 43720, Note_off_c, 1, 63, 0
2, 43760, Note_on_c, 1, 66, 127
2, 44120, Note_off_c, 1, 33, 0
2, 44120, Note_off_c, 1, 45, 0
2, 44120, Note_off_c, 1, 66, 0
2, 44120, Note_off_c, 1, 72, 0
2, 44160, Note_on_c, 1, 44, 127
2, 44160, Note_on_c, 1, 60, 127
2, 44160, Note_on_c, 1, 68, 127
2, 44520, Note_off_c, 1, 44, 0
2, 44560, Note_on_c, 1, 51, 127
2, 45320, Note_off_c, 1, 60, 0
2, 45320, Note_off_c, 1, 68, 0
2, 45320, Note_on_c, 1, 72, 127
2, 45360, Note_on_c, 1, 60, 127
2, 45360, Note_on_c, 1, 68, 127
2, 45360, Note_off_c, 1, 72, 0
2, 45640, Note_off_c, 1, 51, 0
2, 45640, Note_off_c, 1, 60, 0
2, 45640, Note_off_c, 1, 68, 0
2, 45680, Note_on_c, 1, 51, 127
2, 45680, Note_on_c, 1, 60, 127
2, 45680, Note_on_c, 1, 68, 127
2, 46160, Note_off_c, 1, 60, 0
2, 46200, Note_on_c, 1, 61, 127
2, 46560, Note_off_c, 1, 68, 0
2, 46600, Note_on_c, 1, 60, 127
2, 46600, Note_off_c, 1, 61, 0
2, 46600, Note_on_c, 1, 63, 127
2, 46960, Note_off_c, 1, 60, 0
2, 46960, Note_off_c, 1, 63, 0
2, 47000, Note_on_c, 1, 60, 127
2, 47000, Note_on_c, 1, 63, 127
2, 47360, Note_off_c, 1, 51, 0
2, 47400, Note_on_c, 1, 51, 127
2, 47760, Note_off_c, 1, 51, 0
2, 47760, Note_off_c, 1, 60, 0
2, 47760, Note_off_c, 1, 63, 0
2, 47840, Note_on_c, 1, 51, 127
2, 47840, Note_on_c, 1, 60, 127
2, 47840, Note_on_c, 1, 63, 127
2, 48200, Note_off_c, 1, 60, 0
2, 48200, Note_off_c, 1, 63, 0
2, 48240, Note_on_c, 1, 60, 127
2, 48240, Note_on_c, 1, 63, 127
2, 48600, Note_off_c, 1, 51, 0
2, 48600, Note_off_c, 1, 60, 0
2, 48640, Note_on_c, 1, 51, 127
2, 48640, Note_on_c, 1, 60, 127
2, 49000, Note_off_c, 1, 51, 0
2, 49000, Note_off_c, 1, 60, 0
2, 49000, Note_off_c, 1, 63, 0
2, 49040, Note_on_c, 1, 51, 127
2, 49040, Note_on_c, 1, 60, 127
2, 49040, Note_on_c, 1, 63, 127
2, 49400, Note_off_c, 1, 51, 0
2, 49400, Note_off_c, 1, 60, 0
2, 49400, Note_off_c, 1, 63, 0
2, 49440, Note_on_c, 1, 44, 127
2, 49440, Note_on_c, 1, 60, 127
2, 49440, Note_on_c, 1, 63, 127
2, 50160, Note_off_c, 1, 44, 0
2, 50160, Note_off_c, 1, 60, 0
2, 50160, Note_off_c, 1, 63, 0
2, 50200, Note_on_c, 1, 44, 127
2, 50200, Note_on_c, 1, 60, 127
2, 50200, Note_on_c, 1, 63, 127
2, 50240, Note_off_c, 1, 44, 0
2, 50240, Note_off_c, 1, 60, 0
2, 50240, Note_off_c, 1, 63, 0
2, 50280, Note_on_c, 1, 60, 127
2, 50280, Note_on_c, 1, 68, 127
2, 50640, Note_off_c, 1, 60, 0
2, 50640, Note_off_c, 1, 68, 0
2, 50680, Note_on_c, 1, 51, 127
2, 50680, Note_on_c, 1, 70, 127
2, 51440, Note_off_c, 1, 51, 0
2, 51440, Note_off_c, 1, 70, 0
2, 51480, Note_on_c, 1, 60, 127
2, 51480, Note_on_c, 1, 68, 127
2, 52240, Note_off_c, 1, 60, 0
2, 52240, Note_off_c, 1, 68, 0
2, 52320, Note_on_c, 1, 53, 127
2, 52320, Note_on_c, 1, 68, 127
2, 52680, Note_off_c, 1, 53, 0
2, 52680, Note_off_c, 1, 68, 0
2, 52720, Note_on_c, 1, 32, 127
2, 52720, Note_on_c, 1, 72, 127
2, 53080, Note_off_c, 1, 32, 0
2, 53080, Note_on_c, 1, 44, 127
2, 53480, Note_off_c, 1, 44, 0
2, 53480, Note_off_c, 1, 72, 0
2, 53520, Note_on_c, 1, 44, 127
2, 53520, Note_on_c, 1, 72, 127
2, 54280, Note_off_c, 1, 44, 0
2, 54280, Note_off_c, 1, 72, 0
2, 54360, Note_on_c, 1, 32, 127
2, 54360, Note_on_c, 1, 75, 127
2, 55120, Note_off_c, 1, 32, 0
2, 55160, Note_on_c, 1, 32, 127
2, 55920, Note_off_c, 1, 32, 0
2, 56000, Note_on_c, 1, 58, 127
2, 56360, Note_off_c, 1, 58, 0
2, 56360, Note_off_c, 1, 75, 0
2, 56400, Note_on_c, 1, 58, 127
2, 56400, Note_on_c, 1, 75, 127
2, 57040, Note_off_c, 1, 75, 0
2, 57080, Note_on_c, 1, 78, 127
2, 57440, Note_off_c, 1, 58, 0
2, 57440, Note_off_c, 1, 78, 0
2, 57480, Note_on_c, 1, 53, 127
2, 57480, Note_on_c, 1, 80, 127
2, 57840, Note_off_c, 1, 80, 0
2, 57880, Note_on_c, 1, 80, 127
2, 58240, Note_off_c, 1, 53, 0
2, 58240, Note_off_c, 1, 80, 0
2, 58280, Note_on_c, 1, 63, 127
2, 58280, Note_on_c, 1, 78, 127
2, 58680, Note_off_c, 1, 63, 0
2, 58680, Note_off_c, 1, 78, 0
2, 58760, Note_on_c, 1, 60, 127
2, 58760, Note_on_c, 1, 67, 127
2, 58760, Note_on_c, 1, 79, 127
2, 59120, Note_on_c, 1, 56, 127
2, 59120, Note_on_c, 1, 65, 127
2, 59120, Note_off_c, 1, 67, 0
2, 59120, Note_off_c, 1, 79, 0
2, 59160, Note_off_c, 1, 56, 0
2, 59160, Note_on_c, 1, 57, 127
2, 59160, Note_off_c, 1, 60, 0
2, 59160, Note_off_c, 1, 65, 0
2, 59160, Note_on_c, 1, 75, 127
2, 59160, Note_on_c, 1, 77, 127
2, 59520, Note_off_c, 1, 57, 0
2, 59520, Note_off_c, 1, 75, 0
2, 59520, Note_off_c, 1, 77, 0
2, 59520, Note_on_c, 1, 79, 127
2, 59560, Note_on_c, 1, 51, 127
2, 59560, Note_on_c, 1, 75, 127
2, 59920, Note_off_c, 1, 51, 0
2, 59960, Note_on_c, 1, 55, 127
2, 60320, Note_off_c, 1, 55, 0
2, 60360, Note_on_c, 1, 67, 127
2, 60760, Note_off_c, 1, 67, 0
2, 60760, Note_off_c, 1, 75, 0
2, 60760, Note_off_c, 1, 79, 0
2, 60840, Note_on_c, 1, 51, 127
2, 60840, Note_on_c, 1, 72, 127
2, 60840, Note_on_c, 1, 75, 127
2, 61200, Note_off_c, 1, 51, 0
2, 61240, Note_on_c, 1, 56, 127
2, 61240, Note_on_c, 1, 63, 127
2, 61240, Note_off_c, 1, 75, 0
2, 61240, Note_on_c, 1, 77, 127
2, 62000, Note_off_c, 1, 56, 0
2, 62000, Note_off_c, 1, 63, 0
2, 62000, Note_off_c, 1, 72, 0
2, 62000, Note_off_c, 1, 77, 0
2, 62040, Note_on_c, 1, 61, 127
2, 62040, Note_on_c, 1, 73, 127
2, 62040, Note_on_c, 1, 77, 127
2, 62400, Note_off_c, 1, 73, 0
2, 62400, Note_off_c, 1, 77, 0
2, 62440, Note_on_c, 1, 73, 127
2, 62440, Note_on_c, 1, 76, 127
2, 62800, Note_off_c, 1, 73, 0
2, 62800, Note_off_c, 1, 76, 0
2, 62840, Note_off_c, 1, 61, 0
2, 62880, Note_on_c, 1, 61, 127
2, 62880, Note_on_c, 1, 80, 127
2, 63280, Note_on_c, 1, 73, 127
2, 63280, Note_on_c, 1, 78, 127
2, 63280, Note_off_c, 1, 80, 0
2, 63280, Note_on_c, 1, 82, 127
2, 63640, Note_off_c, 1, 73, 0
2, 63640, Note_off_c, 1, 78, 0
2, 63640, Note_off_c, 1, 82, 0
2, 63640, Note_on_c, 1, 88, 127
2, 63680, Note_on_c, 1, 55, 127
2, 63680, Note_on_c, 1, 57, 127
2, 63680, Note_off_c, 1, 61, 0
2, 63680, Note_on_c, 1, 64, 127
2, 63680, Note_on_c, 1, 83, 127
2, 63680, Note_off_c, 1, 88, 0
2, 63720, Note_on_c, 1, 43, 127
2, 63720, Note_off_c, 1, 57, 0
2, 63720, Note_on_c, 1, 58, 127
2, 63720, Note_off_c, 1, 64, 0
2, 63720, Note_on_c, 1, 71, 127
2, 63720, Note_on_c, 1, 77, 127
2, 63720, Note_off_c, 1, 83, 0
2, 63760, Note_off_c, 1, 43, 0
2, 63760, Note_off_c, 1, 58, 0
2, 63760, Note_off_c, 1, 71, 0
2, 63760, Note_on_c, 1, 76, 127
2, 63760, Note_off_c, 1, 77, 0
2, 63760, Note_on_c, 1, 79, 127
2, 63760, Note_on_c, 1, 86, 127
2, 63800, Note_off_c, 1, 55, 0
2, 63800, Note_on_c, 1, 61, 127
2, 63800, Note_on_c, 1, 73, 127
2, 63800, Note_off_c, 1, 76, 0
2, 63800, Note_on_c, 1, 77, 127
2, 63800, Note_off_c, 1, 79, 0
2, 63800, Note_on_c, 1, 81, 127
2, 63800, Note_off_c, 1, 86, 0
2, 63800, Note_on_c, 1, 89, 127
2, 63840, Note_on_c, 1, 41, 127
2, 63840, Note_off_c, 1, 61, 0
2, 63840, Note_off_c, 1, 73, 0
2, 63840, Note_off_c, 1, 77, 0
2, 63840, Note_on_c, 1, 87, 127
2, 63880, Note_off_c, 1, 41, 0
2, 63880, Note_on_c, 1, 70, 127
2, 63880, Note_on_c, 1, 80, 127
2, 63880, Note_off_c, 1, 81, 0
2, 63880, Note_on_c, 1, 82, 127
2, 63880, Note_off_c, 1, 87, 0
2, 63880, Note_off_c, 1, 89, 0
2, 63920, Note_on_c, 1, 53, 127
2, 63920, Note_off_c, 1, 70, 0
2, 63920, Note_off_c, 1, 82, 0
2, 63920, Note_on_c, 1, 86, 127
2, 63960, Note_off_c, 1, 53, 0
2, 63960, Note_on_c, 1, 70, 127
2, 63960, Note_on_c, 1, 82, 127
2, 63960, Note_off_c, 1, 86, 0
2, 64040, Note_off_c, 1, 70, 0
2, 64040, Note_on_c, 1, 75, 127
2, 64040, Note_off_c, 1, 80, 0
2, 64080, Note_on_c, 1, 66, 127
2, 64080, Note_off_c, 1, 75, 0
2, 64080, Note_on_c, 1, 76, 127
2, 64840, Note_off_c, 1, 66, 0
2, 64840, Note_on_c, 1, 73, 127
2, 64840, Note_off_c, 1, 76, 0
2, 64880, Note_on_c, 1, 66, 127
2, 64880, Note_off_c, 1, 73, 0
2, 64880, Note_on_c, 1, 76, 127
2, 65040, Note_off_c, 1, 66, 0
2, 65040, Note_off_c, 1, 76, 0
2, 65040, Note_off_c, 1, 82, 0
2, 65080, Note_on_c, 1, 66, 127
2, 65080, Note_on_c, 1, 76, 127
2, 65080, Note_on_c, 1, 82, 127
2, 65280, Note_off_c, 1, 66, 0
2, 65280, Note_off_c, 1, 76, 0
2, 65280, Note_on_c, 1, 80, 127
2, 65280, Note_off_c, 1, 82, 0
2, 65320, Note_on_c, 1, 64, 127
2, 65320, Note_on_c, 1, 67, 127
2, 65320, Note_on_c, 1, 69, 127
2, 65320, Note_on_c, 1, 73, 127
2, 65320, Note_off_c, 1, 80, 0
2, 65320, Note_on_c, 1, 81, 127
2, 65680, Note_off_c, 1, 64, 0
2, 65680, Note_off_c, 1, 67, 0
2, 65680, Note_off_c, 1, 69, 0
2, 65720, Note_on_c, 1, 64, 127
2, 65720, Note_on_c, 1, 67, 127
2, 65720, Note_on_c, 1, 69, 127
2, 66080, Note_off_c, 1, 64, 0
2, 66080, Note_off_c, 1, 67, 0
2, 66080, Note_off_c, 1, 69, 0
2, 66080, Note_off_c, 1, 81, 0
2, 66080, Note_on_c, 1, 83, 127
2, 66120, Note_on_c, 1, 64, 127
2, 66120, Note_on_c, 1, 67, 127
2, 66120, Note_on_c, 1, 69, 127
2, 66120, Note_on_c, 1, 81, 127
2, 66120, Note_off_c, 1, 83, 0
2, 66480, Note_off_c, 1, 64, 0
2, 66480, Note_on_c, 1, 66, 127
2, 66480, Note_off_c, 1, 67, 0
2, 66480, Note_off_c, 1, 69, 0
2, 66480, Note_off_c, 1, 81, 0
2, 66520, Note_on_c, 1, 42, 127
2, 66520, Note_on_c, 1, 54, 127
2, 66520, Note_off_c, 1, 66, 0
2, 66520, Note_on_c, 1, 82, 127
2, 66840, Note_off_c, 1, 42, 0
2, 66840, Note_off_c, 1, 54, 0
2, 66880, Note_on_c, 1, 72, 127
2, 66880, Note_off_c, 1, 73, 0
2, 66920, Note_on_c, 1, 59, 127
2, 66920, Note_on_c, 1, 67, 127
2, 66920, Note_off_c, 1, 72, 0
2, 66920, Note_on_c, 1, 73, 127
2, 66920, Note_off_c, 1, 82, 0
2, 67320, Note_off_c, 1, 59, 0
2, 67320, Note_off_c, 1, 67, 0
2, 67320, Note_off_c, 1, 73, 0
2, 67360, Note_on_c, 1, 59, 127
2, 67360, Note_on_c, 1, 67, 127
2, 67360, Note_on_c, 1, 73, 127
2, 67720, Note_off_c, 1, 59, 0
2, 67720, Note_off_c, 1, 67, 0
2, 67720, Note_off_c, 1, 73, 0
2, 67760, Note_on_c, 1, 54, 127
2, 67760, Note_on_c, 1, 68, 127
2, 67760, Note_on_c, 1, 71, 127
2, 68520, Note_off_c, 1, 68, 0
2, 68520, Note_off_c, 1, 71, 0
2, 68560, Note_on_c, 1, 70, 127
2, 68560, Note_on_c, 1, 73, 127
2, 68920, Note_off_c, 1, 54, 0
2, 68960, Note_on_c, 1, 58, 127
2, 69320, Note_off_c, 1, 58, 0
2, 69360, Note_on_c, 1, 77, 127
2, 69680, Note_off_c, 1, 70, 0
2, 69680, Note_off_c, 1, 73, 0
2, 69680, Note_off_c, 1, 77, 0
2, 69720, Note_on_c, 1, 70, 127
2, 69720, Note_on_c, 1, 73, 127
2, 69720, Note_on_c, 1, 77, 127
2, 69760, Note_off_c, 1, 70, 0
2, 69760, Note_off_c, 1, 73, 0
2, 69760, Note_off_c, 1, 77, 0
2, 69800, Note_on_c, 1, 57, 127
2, 69800, Note_on_c, 1, 73, 127
2, 69800, Note_on_c, 1, 81, 127
2, 70200, Note_off_c, 1, 57, 0
2, 70200, Note_off_c, 1, 73, 0
2, 70200, Note_off_c, 1, 81, 0
2, 70240, Note_on_c, 1, 36, 127
2, 70240, Note_on_c, 1, 71, 127
2, 70240, Note_on_c, 1, 77, 127
2, 70240, Note_on_c, 1, 79, 127
2, 70240, Note_on_c, 1, 83, 127
2, 70600, Note_off_c, 1, 36, 0
2, 70640, Note_on_c, 1, 36, 127
2, 71000, Note_off_c, 1, 36, 0
2, 71040, Note_on_c, 1, 37, 127
2, 71400, Note_off_c, 1, 37, 0
2, 71400, Note_off_c, 1, 71, 0
2, 71400, Note_off_c, 1, 77, 0
2, 71400, Note_off_c, 1, 79, 0
2, 71400, Note_off_c, 1, 83, 0
2, 71440, Note_on_c, 1, 51, 127
2, 71440, Note_on_c, 1, 71, 127
2, 71440, Note_on_c, 1, 78, 127
2, 71440, Note_on_c, 1, 83, 127
2, 71480, Note_off_c, 1, 51, 0
2, 71520, Note_on_c, 1, 51, 127
2, 71560, Note_off_c, 1, 51, 0
2, 71560, Note_on_c, 1, 59, 127
2, 71720, Note_off_c, 1, 59, 0
2, 71720, Note_off_c, 1, 71, 0
2, 71720, Note_off_c, 1, 78, 0
2, 71720, Note_off_c, 1, 83, 0
2, 71760, Note_on_c, 1, 59, 127
2, 71760, Note_on_c, 1, 71, 127
2, 71760, Note_on_c, 1, 78, 127
2, 71760, Note_on_c, 1, 83, 127
2, 71840, Note_off_c, 1, 59, 0
2, 71880, Note_on_c, 1, 67, 127
2, 71880, Note_off_c, 1, 71, 0
2, 71880, Note_on_c, 1, 77, 127
2, 71880, Note_off_c, 1, 78, 0
2, 71880, Note_on_c, 1, 91, 127
2, 74720, Note_on_c, 1, 55, 127
2, 74720, Note_on_c, 1, 58, 127
2, 74720, Note_on_c, 1, 62, 127
2, 74720, Note_on_c, 1, 70, 127
2, 74720, Note_off_c, 1, 77, 0
2, 74720, Note_off_c, 1, 83, 0
2, 74720, Note_off_c, 1, 91, 0
2, 74760, Note_off_c, 1, 55, 0
2, 74760, Note_off_c, 1, 58, 0
2, 74760, Note_off_c, 1, 62, 0
2, 74760, Note_off_c, 1, 67, 0
2, 74760, Note_off_c, 1, 70, 0
2, 74800, Note_on_c, 1, 64, 127
2, 74800, Note_on_c, 1, 86, 127
2, 74800, Note_on_c, 1, 87, 127
2, 74800, Note_on_c, 1, 89, 127
2, 74800, Note_on_c, 1, 90, 127
2, 74840, Note_on_c, 1, 68, 127
2, 74840, Note_on_c, 1, 72, 127
2, 74840, Note_on_c, 1, 76, 127
2, 74840, Note_on_c, 1, 80, 127
2, 74840, Note_on_c, 1, 84, 127
2, 74840, Note_off_c, 1, 86, 0
2, 74840, Note_off_c, 1, 87, 0
2, 74840, Note_off_c, 1, 89, 0
2, 74840, Note_off_c, 1, 90, 0
2, 75120, Note_on_c, 1, 50, 127
2, 75120, Note_on_c, 1, 57, 127
2, 75120, Note_on_c, 1, 63, 127
2, 75120, Note_off_c, 1, 64, 0
2, 75120, Note_on_c, 1, 66, 127
2, 75120, Note_off_c, 1, 68, 0
2, 75120, Note_on_c, 1, 69, 127
2, 75120, Note_off_c, 1, 72, 0
2, 75120, Note_on_c, 1, 75, 127
2, 75120, Note_off_c, 1, 76, 0
2, 75120, Note_off_c, 1, 80, 0
2, 75120, Note_off_c, 1, 84, 0
2, 75160, Note_off_c, 1, 50, 0
2, 75160, Note_off_c, 1, 57, 0
2, 75160, Note_off_c, 1, 63, 0
2, 75160, Note_off_c, 1, 66, 0
2, 75160, Note_off_c, 1, 69, 0
2, 75160, Note_off_c, 1, 75, 0
2, 75200, Note_on_c, 1, 32, 127
2, 75200, Note_on_c, 1, 39, 127
2, 75200, Note_on_c, 1, 68, 127
2, 75240, Note_off_c, 1, 32, 0
2, 75240, Note_off_c, 1, 39, 0
2, 75240, Note_on_c, 1, 64, 127
2, 75240, Note_off_c, 1, 68, 0
2, 75240, Note_on_c, 1, 79, 127
2, 75240, Note_on_c, 1, 84, 127
2, 75240, Note_on_c, 1, 91, 127
2, 75280, Note_on_c, 1, 40, 127
2, 75280, Note_on_c, 1, 52, 127
2, 75280, Note_off_c, 1, 64, 0
2, 75280, Note_on_c, 1, 74, 127
2, 75280, Note_off_c, 1, 79, 0
2, 75280, Note_on_c, 1, 81, 127
2, 75280, Note_off_c, 1, 84, 0
2, 75280, Note_on_c, 1, 86, 127
2, 75280, Note_off_c, 1, 91, 0
2, 75320, Note_on_c, 1, 27, 127
2, 75320, Note_on_c, 1, 39, 127
2, 75320, Note_off_c, 1, 40, 0
2, 75320, Note_off_c, 1, 52, 0
2, 75320, Note_on_c, 1, 58, 127
2, 75320, Note_on_c, 1, 63, 127
2, 75320, Note_on_c, 1, 65, 127
2, 75320, Note_on_c, 1, 70, 127
2, 75320, Note_off_c, 1, 74, 0
2, 75320, Note_on_c, 1, 80, 127
2, 75320, Note_off_c, 1, 81, 0
2, 75320, Note_off_c, 1, 86, 0
2, 75320, Note_on_c, 1, 94, 127
2, 75360, Note_off_c, 1, 27, 0
2, 75360, Note_on_c, 1, 32, 127
2, 75360, Note_off_c, 1, 58, 0
2, 75360, Note_off_c, 1, 63, 0
2, 75360, Note_off_c, 1, 65, 0
2, 75360, Note_on_c, 1, 68, 127
2, 75360, Note_off_c, 1, 70, 0
2, 75360, Note_off_c, 1, 80, 0
2, 75360, Note_off_c, 1, 94, 0
2, 75400, Note_off_c, 1, 32, 0
2, 75400, Note_off_c, 1, 39, 0
2, 75400, Note_on_c, 1, 42, 127
2, 75400, Note_on_c, 1, 54, 127
2, 75400, Note_on_c, 1, 57, 127
2, 75400, Note_on_c, 1, 61, 127
2, 75400, Note_on_c, 1, 66, 127
2, 75400, Note_off_c, 1, 68, 0
2, 75440, Note_off_c, 1, 42, 0
2, 75440, Note_off_c, 1, 54, 0
2, 75440, Note_off_c, 1, 57, 0
2, 75440, Note_off_c, 1, 61, 0
2, 75440, Note_on_c, 1, 63, 127
2, 75440, Note_on_c, 1, 71, 127
2, 75440, Note_on_c, 1, 75, 127
2, 75440, Note_on_c, 1, 87, 127
2, 75480, Note_on_c, 1, 46, 127
2, 75480, Note_on_c, 1, 53, 127
2, 75480, Note_off_c, 1, 63, 0
2, 75480, Note_on_c, 1, 65, 127
2, 75480, Note_off_c, 1, 66, 0
2, 75480, Note_off_c, 1, 71, 0
2, 75480, Note_off_c, 1, 87, 0
2, 75520, Note_on_c, 1, 39, 127
2, 75520, Note_on_c, 1, 41, 127
2, 75520, Note_off_c, 1, 46, 0
2, 75520, Note_off_c, 1, 53, 0
2, 75520, Note_on_c, 1, 57, 127
2, 75520, Note_off_c, 1, 65, 0
2, 75520, Note_on_c, 1, 69, 127
2, 75520, Note_off_c, 1, 75, 0
2, 75560, Note_on_c, 1, 37, 127
2, 75560, Note_off_c, 1, 39, 0
2, 75560, Note_off_c, 1, 41, 0
2, 75560, Note_on_c, 1, 49, 127
2, 75560, Note_off_c, 1, 57, 0
2, 75560, Note_off_c, 1, 69, 0
2, 75560, Note_on_c, 1, 92, 127
2, 75560, Note_on_c, 1, 93, 127
2, 75600, Note_off_c, 1, 37, 0
2, 75600, Note_off_c, 1, 49, 0
2, 75600, Note_on_c, 1, 54, 127
2, 75600, Note_on_c, 1, 61, 127
2, 75600, Note_on_c, 1, 63, 127
2, 75600, Note_on_c, 1, 66, 127
2, 75600, Note_on_c, 1, 81, 127
2, 75600, Note_off_c, 1, 92, 0
2, 75600, Note_off_c, 1, 93, 0
2, 75640, Note_on_c, 1, 41, 127
2, 75640, Note_off_c, 1, 54, 0
2, 75640, Note_off_c, 1, 61, 0
2, 75640, Note_off_c, 1, 63, 0
2, 75640, Note_off_c, 1, 66, 0
2, 75640, Note_on_c, 1, 80, 127
2, 75640, Note_off_c, 1, 81, 0
2, 75640, Note_on_c, 1, 83, 127
2, 75640, Note_on_c, 1, 92, 127
2, 75680, Note_off_c, 1, 41, 0
2, 75680, Note_on_c, 1, 44, 127
2, 75680, Note_on_c, 1, 49, 127
2, 75680, Note_on_c, 1, 52, 127
2, 75680, Note_off_c, 1, 80, 0
2, 75680, Note_off_c, 1, 83, 0
2, 75680, Note_off_c, 1, 92, 0
2, 75720, Note_on_c, 1, 40, 127
2, 75720, Note_off_c, 1, 44, 0
2, 75720, Note_off_c, 1, 49, 0
2, 75720, Note_on_c, 1, 61, 127
2, 75720, Note_on_c, 1, 64, 127
2, 75720, Note_on_c, 1, 73, 127
2, 75760, Note_off_c, 1, 40, 0
2, 75760, Note_on_c, 1, 46, 127
2, 75760, Note_off_c, 1, 61, 0
2, 75760, Note_off_c, 1, 64, 0
2, 75760, Note_on_c, 1, 70, 127
2, 75760, Note_off_c, 1, 73, 0
2, 75760, Note_on_c, 1, 82, 127
2, 75800, Note_on_c, 1, 31, 127
2, 75800, Note_on_c, 1, 35, 127
2, 75800, Note_on_c, 1, 40, 127
2, 75800, Note_off_c, 1, 46, 0
2, 75800, Note_off_c, 1, 70, 0
2, 75800, Note_off_c, 1, 82, 0
2, 75840, Note_off_c, 1, 31, 0
2, 75840, Note_off_c, 1, 35, 0
2, 75840, Note_off_c, 1, 40, 0
2, 75840, Note_on_c, 1, 50, 127
2, 75840, Note_off_c, 1, 52, 0
2, 75840, Note_on_c, 1, 61, 127
2, 75840, Note_on_c, 1, 64, 127
2, 75840, Note_on_c, 1, 66, 127
2, 75840, Note_on_c, 1, 68, 127
2, 75840, Note_on_c, 1, 78, 127
2, 75880, Note_on_c, 1, 47, 127
2, 75880, Note_off_c, 1, 50, 0
2, 75880, Note_off_c, 1, 61, 0
2, 75880, Note_on_c, 1, 62, 127
2, 75880, Note_off_c, 1, 66, 0
2, 75880, Note_on_c, 1, 71, 127
2, 75880, Note_on_c, 1, 76, 127
2, 75880, Note_off_c, 1, 78, 0
2, 75920, Note_off_c, 1, 47, 0
2, 75920, Note_on_c, 1, 51, 127
2, 75920, Note_off_c, 1, 62, 0
2, 75920, Note_on_c, 1, 63, 127
2, 75920, Note_off_c, 1, 64, 0
2, 75920, Note_on_c, 1, 67, 127
2, 75920, Note_off_c, 1, 68, 0
2, 75920, Note_off_c, 1, 71, 0
2, 75920, Note_off_c, 1, 76, 0
2, 75920, Note_on_c, 1, 79, 127
2, 75920, Note_on_c, 1, 82, 127
2, 75960, Note_off_c, 1, 51, 0
2, 75960, Note_off_c, 1, 63, 0
2, 75960, Note_off_c, 1, 67, 0
2, 75960, Note_off_c, 1, 79, 0
2, 75960, Note_off_c, 1, 82, 0
2, 76000, Note_on_c, 1, 40, 127
2, 76000, Note_on_c, 1, 48, 127
2, 76000, Note_on_c, 1, 58, 127
2, 76000, Note_on_c, 1, 67, 127
2, 76000, Note_on_c, 1, 70, 127
2, 77160, Note_off_c, 1, 40, 0
2, 77160, Note_off_c, 1, 48, 0
2, 77160, Note_off_c, 1, 58, 0
2, 77160, Note_off_c, 1, 67, 0
2, 77160, Note_off_c, 1, 70, 0
2, 77200, Note_on_c, 1, 67, 127
2, 77200, Note_on_c, 1, 70, 127
2, 77240, Note_on_c, 1, 43, 127
2, 77240, Note_on_c, 1, 51, 127
2, 77240, Note_on_c, 1, 59, 127
2, 77240, Note_off_c, 1, 70, 0
2, 77240, Note_on_c, 1, 79, 127
2, 77600, Note_off_c, 1, 43, 0
2, 77600, Note_off_c, 1, 51, 0
2, 77600, Note_off_c, 1, 59, 0
2, 77600, Note_off_c, 1, 79, 0
2, 77640, Note_on_c, 1, 38, 127
2, 77640, Note_on_c, 1, 50, 127
2, 77640, Note_on_c, 1, 59, 127
2, 77640, Note_on_c, 1, 62, 127
2, 77640, Note_on_c, 1, 71, 127
2, 77680, Note_on_c, 1, 30, 127
2, 77680, Note_off_c, 1, 38, 0
2, 77680, Note_on_c, 1, 42, 127
2, 77680, Note_off_c, 1, 50, 0
2, 77680, Note_off_c, 1, 59, 0
2, 77680, Note_off_c, 1, 62, 0
2, 77680, Note_on_c, 1, 63, 127
2, 77680, Note_off_c, 1, 67, 0
2, 77680, Note_on_c, 1, 69, 127
2, 77680, Note_off_c, 1, 71, 0
2, 77720, Note_off_c, 1, 30, 0
2, 77720, Note_on_c, 1, 35, 127
2, 77720, Note_off_c, 1, 42, 0
2, 77720, Note_on_c, 1, 47, 127
2, 77720, Note_on_c, 1, 48, 127
2, 77720, Note_on_c, 1, 52, 127
2, 77720, Note_off_c, 1, 63, 0
2, 77720, Note_off_c, 1, 69, 0
2, 77760, Note_off_c, 1, 35, 0
2, 77760, Note_off_c, 1, 47, 0
2, 77760, Note_off_c, 1, 48, 0
2, 77760, Note_on_c, 1, 57, 127
2, 77760, Note_on_c, 1, 61, 127
2, 77760, Note_on_c, 1, 67, 127
2, 77760, Note_on_c, 1, 69, 127
2, 77760, Note_on_c, 1, 73, 127
2, 77800, Note_on_c, 1, 38, 127
2, 77800, Note_on_c, 1, 42, 127
2, 77800, Note_on_c, 1, 50, 127
2, 77800, Note_off_c, 1, 52, 0
2, 77800, Note_on_c, 1, 53, 127
2, 77800, Note_off_c, 1, 57, 0
2, 77800, Note_off_c, 1, 61, 0
2, 77800, Note_off_c, 1, 67, 0
2, 77800, Note_off_c, 1, 69, 0
2, 77800, Note_off_c, 1, 73, 0
2, 77840, Note_off_c, 1, 38, 0
2, 77840, Note_on_c, 1, 39, 127
2, 77840, Note_off_c, 1, 42, 0
2, 77840, Note_on_c, 1, 44, 127
2, 77840, Note_off_c, 1, 50, 0
2, 77840, Note_off_c, 1, 53, 0
2, 77840, Note_on_c, 1, 56, 127
2, 77840, Note_on_c, 1, 77, 127
2, 77840, Note_on_c, 1, 80, 127
2, 77840, Note_on_c, 1, 87, 127
2, 77840, Note_on_c, 1, 89, 127
2, 77880, Note_off_c, 1, 39, 0
2, 77880, Note_off_c, 1, 44, 0
2, 77880, Note_on_c, 1, 45, 127
2, 77880, Note_off_c, 1, 56, 0
2, 77880, Note_on_c, 1, 57, 127
2, 77880, Note_off_c, 1, 80, 0
2, 77880, Note_on_c, 1, 81, 127
2, 77880, Note_on_c, 1, 86, 127
2, 77880, Note_off_c, 1, 87, 0
2, 77920, Note_on_c, 1, 35, 127
2, 77920, Note_off_c, 1, 45, 0
2, 77920, Note_on_c, 1, 47, 127
2, 77920, Note_on_c, 1, 48, 127
2, 77920, Note_on_c, 1, 52, 127
2, 77920, Note_off_c, 1, 57, 0
2, 77920, Note_off_c, 1, 77, 0
2, 77920, Note_off_c, 1, 81, 0
2, 77920, Note_off_c, 1, 86, 0
2, 77920, Note_off_c, 1, 89, 0
2, 77960, Note_off_c, 1, 35, 0
2, 77960, Note_off_c, 1, 47, 0
2, 77960, Note_off_c, 1, 48, 0
2, 77960, Note_on_c, 1, 64, 127
2, 77960, Note_on_c, 1, 68, 127
2, 77960, Note_on_c, 1, 80, 127
2, 77960, Note_on_c, 1, 83, 127
2, 78000, Note_on_c, 1, 48, 127
2, 78000, Note_off_c, 1, 64, 0
2, 78000, Note_off_c, 1, 68, 0
2, 78000, Note_on_c, 1, 79, 127
2, 78000, Note_off_c, 1, 80, 0
2, 78040, Note_on_c, 1, 37, 127
2, 78040, Note_off_c, 1, 48, 0
2, 78040, Note_on_c, 1, 49, 127
2, 78040, Note_off_c, 1, 52, 0
2, 78040, Note_on_c, 1, 56, 127
2, 78040, Note_on_c, 1, 61, 127
2, 78040, Note_on_c, 1, 64, 127
2, 78040, Note_on_c, 1, 70, 127
2, 78040, Note_off_c, 1, 79, 0
2, 78040, Note_off_c, 1, 83, 0
2, 78400, Note_off_c, 1, 37, 0
2, 78400, Note_off_c, 1, 49, 0
2, 78400, Note_off_c, 1, 56, 0
2, 78400, Note_off_c, 1, 61, 0
2, 78400, Note_off_c, 1, 64, 0
2, 78400, Note_off_c, 1, 70, 0
2, 78440, Note_on_c, 1, 64, 127
2, 78440, Note_on_c, 1, 71, 127
2, 78440, Note_on_c, 1, 83, 127
2, 78440, Note_on_c, 1, 90, 127
2, 78480, Note_on_c, 1, 59, 127
2, 78480, Note_on_c, 1, 67, 127
2, 78480, Note_off_c, 1, 71, 0
2, 78480, Note_on_c, 1, 75, 127
2, 78480, Note_on_c, 1, 79, 127
2, 78480, Note_off_c, 1, 83, 0
2, 78480, Note_off_c, 1, 90, 0
2, 78520, Note_on_c, 1, 54, 127
2, 78520, Note_on_c, 1, 57, 127
2, 78520, Note_on_c, 1, 63, 127
2, 78520, Note_off_c, 1, 64, 0
2, 78520, Note_off_c, 1, 67, 0
2, 78520, Note_off_c, 1, 75, 0
2, 78520, Note_off_c, 1, 79, 0
2, 78520, Note_on_c, 1, 84, 127
2, 78560, Note_off_c, 1, 54, 0
2, 78560, Note_off_c, 1, 57, 0
2, 78560, Note_off_c, 1, 63, 0
2, 78560, Note_on_c, 1, 64, 127
2, 78560, Note_on_c, 1, 67, 127
2, 78560, Note_on_c, 1, 75, 127
2, 78560, Note_on_c, 1, 79, 127
2, 78560, Note_off_c, 1, 84, 0
2, 78600, Note_on_c, 1, 49, 127
2, 78600, Note_on_c, 1, 53, 127
2, 78600, Note_off_c, 1, 64, 0
2, 78600, Note_off_c, 1, 67, 0
2, 78600, Note_on_c, 1, 68, 127
2, 78600, Note_on_c, 1, 73, 127
2, 78600, Note_off_c, 1, 75, 0
2, 78600, Note_off_c, 1, 79, 0
2, 78640, Note_off_c, 1, 49, 0
2, 78640, Note_off_c, 1, 53, 0
2, 78640, Note_off_c, 1, 59, 0
2, 78640, Note_off_c, 1, 73, 0
2, 78640, Note_on_c, 1, 81, 127
2, 78640, Note_on_c, 1, 82, 127
2, 78680, Note_on_c, 1, 40, 127
2, 78680, Note_on_c, 1, 44, 127
2, 78680, Note_off_c, 1, 68, 0
2, 78680, Note_on_c, 1, 80, 127
2, 78680, Note_off_c, 1, 81, 0
2, 78680, Note_off_c, 1, 82, 0
2, 78720, Note_on_c, 1, 36, 127
2, 78720, Note_off_c, 1, 40, 0
2, 78720, Note_off_c, 1, 44, 0
2, 78720, Note_on_c, 1, 58, 127
2, 78720, Note_on_c, 1, 61, 127
2, 78720, Note_on_c, 1, 64, 127
2, 78720, Note_on_c, 1, 67, 127
2, 78720, Note_off_c, 1, 80, 0
2, 78760, Note_off_c, 1, 36, 0
2, 78760, Note_off_c, 1, 58, 0
2, 78760, Note_off_c, 1, 61, 0
2, 78760, Note_off_c, 1, 64, 0
2, 78760, Note_on_c, 1, 77, 127
2, 78760, Note_on_c, 1, 79, 127
2, 78760, Note_on_c, 1, 83, 127
2, 78800, Note_on_c, 1, 41, 127
2, 78800, Note_on_c, 1, 53, 127
2, 78800, Note_off_c, 1, 67, 0
2, 78800, Note_off_c, 1, 77, 0
2, 78800, Note_off_c, 1, 79, 0
2, 78800, Note_on_c, 1, 86, 127
2, 78800, Note_on_c, 1, 95, 127
2, 78840, Note_off_c, 1, 41, 0
2, 78840, Note_on_c, 1, 45, 127
2, 78840, Note_on_c, 1, 50, 127
2, 78840, Note_off_c, 1, 53, 0
2, 78840, Note_on_c, 1, 61, 127
2, 78840, Note_on_c, 1, 66, 127
2, 78840, Note_on_c, 1, 73, 127
2, 78840, Note_off_c, 1, 83, 0
2, 78840, Note_off_c, 1, 86, 0
2, 78840, Note_off_c, 1, 95, 0
2, 79680, Note_off_c, 1, 45, 0
2, 79680, Note_off_c, 1, 50, 0
2, 79680, Note_off_c, 1, 61, 0
2, 79680, Note_off_c, 1, 66, 0
2, 79680, Note_off_c, 1, 73, 0
2, 79720, Note_on_c, 1, 45, 127
2, 79720, Note_on_c, 1, 50, 127
2, 79720, Note_on_c, 1, 61, 127
2, 79720, Note_on_c, 1, 66, 127
2, 79720, Note_on_c, 1, 73, 127
2, 81280, Note_on_c, 1, 49, 127
2, 81280, Note_off_c, 1, 50, 0
2, 81920, Note_off_c, 1, 45, 0
2, 81920, Note_off_c, 1, 49, 0
2, 81920, Note_off_c, 1, 61, 0
2, 81920, Note_off_c, 1, 66, 0
2, 81920, Note_off_c, 1, 73, 0
2, 81960, Note_on_c, 1, 45, 127
2, 81960, Note_on_c, 1, 49, 127
2, 81960, Note_on_c, 1, 61, 127
2, 81960, Note_on_c, 1, 66, 127
2, 81960, Note_on_c, 1, 73, 127
2, 82880, Note_off_c, 1, 45, 0
2, 82880, Note_off_c, 1, 49, 0
2, 82880, Note_off_c, 1, 61, 0
2, 82880, Note_off_c, 1, 66, 0
2, 82880, Note_off_c, 1, 73, 0
2, 82960, Note_on_c, 1, 47, 127
2, 82960, Note_on_c, 1, 51, 127
2, 82960, Note_on_c, 1, 54, 127
2, 82960, Note_on_c, 1, 71, 127
2, 82960, Note_on_c, 1, 83, 127
2, 83720, Note_off_c, 1, 47, 0
2, 83720, Note_off_c, 1, 51, 0
2, 83720, Note_off_c, 1, 54, 0
2, 83720, Note_off_c, 1, 71, 0
2, 83720, Note_off_c, 1, 83, 0
2, 83800, Note_on_c, 1, 47, 127
2, 83800, Note_on_c, 1, 51, 127
2, 83800, Note_on_c, 1, 54, 127
2, 83800, Note_on_c, 1, 71, 127
2, 83800, Note_on_c, 1, 83, 127
2, 84360, Note_off_c, 1, 47, 0
2, 84360, Note_off_c, 1, 51, 0
2, 84360, Note_off_c, 1, 54, 0
2, 84360, Note_off_c, 1, 71, 0
2, 84360, Note_off_c, 1, 83, 0
2, 84400, Note_on_c, 1, 47, 127
2, 84400, Note_on_c, 1, 51, 127
2, 84400, Note_on_c, 1, 54, 127
2, 84400, Note_on_c, 1, 71, 127
2, 84400, Note_on_c, 1, 83, 127
2, 84600, Note_off_c, 1, 47, 0
2, 84600, Note_off_c, 1, 51, 0
2, 84600, Note_off_c, 1, 54, 0
2, 84600, Note_off_c, 1, 71, 0
2, 84600, Note_off_c, 1, 83, 0
2, 84640, Note_on_c, 1, 60, 127
2, 84640, Note_on_c, 1, 72, 127
2, 84640, Note_on_c, 1, 80, 127
2, 84640, Note_on_c, 1, 92, 127
2, 84680, Note_on_c, 1, 45, 127
2, 84680, Note_on_c, 1, 57, 127
2, 84680, Note_off_c, 1, 60, 0
2, 84680, Note_off_c, 1, 72, 0
2, 84680, Note_off_c, 1, 80, 0
2, 84680, Note_on_c, 1, 88, 127
2, 84680, Note_off_c, 1, 92, 0
2, 84680, Note_on_c, 1, 93, 127
2, 84680, Note_on_c, 1, 97, 127
2, 84680, Note_on_c, 1, 100, 127
2, 84720, Note_off_c, 1, 45, 0
2, 84720, Note_off_c, 1, 57, 0
2, 84720, Note_on_c, 1, 67, 127
2, 84720, Note_on_c, 1, 68, 127
2, 84720, Note_on_c, 1, 73, 127
2, 84720, Note_on_c, 1, 77, 127
2, 84720, Note_off_c, 1, 88, 0
2, 84720, Note_off_c, 1, 93, 0
2, 84720, Note_off_c, 1, 97, 0
2, 84720, Note_off_c, 1, 100, 0
2, 84760, Note_on_c, 1, 61, 127
2, 84760, Note_on_c, 1, 64, 127
2, 84760, Note_off_c, 1, 67, 0
2, 84760, Note_off_c, 1, 68, 0
2, 84760, Note_on_c, 1, 70, 127
2, 84760, Note_off_c, 1, 73, 0
2, 84760, Note_on_c, 1, 89, 127
2, 84800, Note_on_c, 1, 58, 127
2, 84800, Note_off_c, 1, 61, 0
2, 84800, Note_on_c, 1, 63, 127
2, 84800, Note_off_c, 1, 64, 0
2, 84800, Note_off_c, 1, 70, 0
2, 84800, Note_off_c, 1, 77, 0
2, 84800, Note_on_c, 1, 83, 127
2, 84800, Note_off_c, 1, 89, 0
2, 84840, Note_on_c, 1, 46, 127
2, 84840, Note_off_c, 1, 58, 0
2, 84840, Note_off_c, 1, 63, 0
2, 84840, Note_on_c, 1, 82, 127
2, 84840, Note_off_c, 1, 83, 0
2, 84840, Note_on_c, 1, 91, 127
2, 84880, Note_off_c, 1, 46, 0
2, 84880, Note_on_c, 1, 66, 127
2, 84880, Note_off_c, 1, 91, 0
2, 84880, Note_on_c, 1, 92, 127
2, 84920, Note_on_c, 1, 51, 127
2, 84920, Note_off_c, 1, 66, 0
2, 84920, Note_on_c, 1, 80, 127
2, 84920, Note_off_c, 1, 82, 0
2, 84920, Note_on_c, 1, 83, 127
2, 84920, Note_on_c, 1, 87, 127
2, 84960, Note_off_c, 1, 51, 0
2, 84960, Note_on_c, 1, 57, 127
2, 84960, Note_on_c, 1, 69, 127
2, 84960, Note_on_c, 1, 73, 127
2, 84960, Note_on_c, 1, 79, 127
2, 84960, Note_off_c, 1, 80, 0
2, 84960, Note_off_c, 1, 83, 0
2, 84960, Note_off_c, 1, 87, 0
2, 84960, Note_off_c, 1, 92, 0
2, 85000, Note_on_c, 1, 32, 127
2, 85000, Note_on_c, 1, 44, 127
2, 85000, Note_on_c, 1, 47, 127
2, 85000, Note_on_c, 1, 56, 127
2, 85000, Note_off_c, 1, 57, 0
2, 85000, Note_on_c, 1, 59, 127
2, 85000, Note_off_c, 1, 69, 0
2, 85000, Note_on_c, 1, 71, 127
2, 85000, Note_off_c, 1, 73, 0
2, 85000, Note_off_c, 1, 79, 0
2, 85000, Note_on_c, 1, 83, 127
2, 85040, Note_off_c, 1, 32, 0
2, 85040, Note_on_c, 1, 39, 127
2, 85040, Note_off_c, 1, 44, 0
2, 85040, Note_off_c, 1, 47, 0
2, 85040, Note_on_c, 1, 49, 127
2, 85040, Note_on_c, 1, 54, 127
2, 85040, Note_off_c, 1, 56, 0
2, 85040, Note_on_c, 1, 58, 127
2, 85040, Note_off_c, 1, 59, 0
2, 85040, Note_on_c, 1, 61, 127
2, 85040, Note_off_c, 1, 71, 0
2, 85040, Note_off_c, 1, 83, 0
2, 85080, Note_off_c, 1, 39, 0
2, 85080, Note_off_c, 1, 49, 0
2, 85080, Note_on_c, 1, 53, 127
2, 85080, Note_off_c, 1, 54, 0
2, 85080, Note_off_c, 1, 58, 0
2, 85080, Note_off_c, 1, 61, 0
2, 85080, Note_on_c, 1, 68, 127
2, 85080, Note_on_c, 1, 74, 127
2, 85080, Note_on_c, 1, 79, 127
2, 85120, Note_on_c, 1, 37, 127
2, 85120, Note_on_c, 1, 49, 127
2, 85120, Note_off_c, 1, 53, 0
2, 85120, Note_on_c, 1, 57, 127
2, 85120, Note_on_c, 1, 62, 127
2, 85120, Note_on_c, 1, 66, 127
2, 85120, Note_off_c, 1, 68, 0
2, 85120, Note_off_c, 1, 74, 0
2, 85120, Note_off_c, 1, 79, 0
2, 85160, Note_off_c, 1, 37, 0
2, 85160, Note_off_c, 1, 49, 0
2, 85160, Note_off_c, 1, 57, 0
2, 85160, Note_off_c, 1, 62, 0
2, 85160, Note_on_c, 1, 65, 127
2, 85160, Note_off_c, 1, 66, 0
2, 85160, Note_on_c, 1, 70, 127
2, 85160, Note_on_c, 1, 72, 127
2, 85160, Note_on_c, 1, 75, 127
2, 85160, Note_on_c, 1, 85, 127
2, 85200, Note_on_c, 1, 48, 127
2, 85200, Note_on_c, 1, 51, 127
2, 85200, Note_on_c, 1, 56, 127
2, 85200, Note_on_c, 1, 60, 127
2, 85200, Note_off_c, 1, 65, 0
2, 85200, Note_on_c, 1, 68, 127
2, 85200, Note_off_c, 1, 70, 0
2, 85200, Note_off_c, 1, 72, 0
2, 85200, Note_off_c, 1, 75, 0
2, 85200, Note_on_c, 1, 80, 127
2, 85200, Note_off_c, 1, 85, 0
2, 85240, Note_on_c, 1, 36, 127
2, 85240, Note_on_c, 1, 39, 127
2, 85240, Note_off_c, 1, 51, 0
2, 85240, Note_off_c, 1, 56, 0
2, 85240, Note_off_c, 1, 68, 0
2, 85240, Note_off_c, 1, 80, 0
2, 85280, Note_on_c, 1, 42, 127
2, 85280, Note_on_c, 1, 45, 127
2, 85280, Note_off_c, 1, 60, 0
2, 85280, Note_on_c, 1, 75, 127
2, 85280, Note_on_c, 1, 78, 127
2, 85280, Note_on_c, 1, 81, 127
2, 85280, Note_on_c, 1, 87, 127
2, 85320, Note_off_c, 1, 36, 0
2, 85320, Note_off_c, 1, 42, 0
2, 85320, Note_off_c, 1, 45, 0
2, 85320, Note_on_c, 1, 46, 127
2, 85320, Note_off_c, 1, 48, 0
2, 85320, Note_on_c, 1, 51, 127
2, 85320, Note_on_c, 1, 55, 127
2, 85320, Note_on_c, 1, 58, 127
2, 85320, Note_off_c, 1, 75, 0
2, 85320, Note_on_c, 1, 77, 127
2, 85320, Note_off_c, 1, 78, 0
2, 85320, Note_off_c, 1, 81, 0
2, 85320, Note_off_c, 1, 87, 0
2, 85320, Note_on_c, 1, 89, 127
2, 85360, Note_on_c, 1, 37, 127
2, 85360, Note_off_c, 1, 39, 0
2, 85360, Note_off_c, 1, 46, 0
2, 85360, Note_on_c, 1, 49, 127
2, 85360, Note_off_c, 1, 51, 0
2, 85360, Note_off_c, 1, 55, 0
2, 85360, Note_off_c, 1, 58, 0
2, 85360, Note_on_c, 1, 66, 127
2, 85360, Note_on_c, 1, 69, 127
2, 85360, Note_on_c, 1, 72, 127
2, 85360, Note_on_c, 1, 75, 127
2, 85360, Note_off_c, 1, 77, 0
2, 85360, Note_off_c, 1, 89, 0
2, 85400, Note_off_c, 1, 37, 0
2, 85400, Note_off_c, 1, 49, 0
2, 85400, Note_off_c, 1, 66, 0
2, 85400, Note_off_c, 1, 69, 0
2, 85400, Note_off_c, 1, 72, 0
2, 85400, Note_off_c, 1, 75, 0
2, 85440, Note_on_c, 1, 41, 127
2, 85440, Note_on_c, 1, 48, 127
2, 85440, Note_on_c, 1, 53, 127
2, 85440, Note_on_c, 1, 68, 127
2, 85440, Note_on_c, 1, 80, 127
2, 86200, Note_off_c, 1, 41, 0
2, 86200, Note_off_c, 1, 48, 0
2, 86200, Note_off_c, 1, 53, 0
2, 86200, Note_off_c, 1, 68, 0
2, 86200, Note_off_c, 1, 80, 0
2, 86240, Note_on_c, 1, 41, 127
2, 86240, Note_on_c, 1, 47, 127
2, 86240, Note_on_c, 1, 50, 127
2, 86240, Note_on_c, 1, 53, 127
2, 86240, Note_on_c, 1, 59, 127
2, 86240, Note_on_c, 1, 71, 127
2, 86280, Note_off_c, 1, 41, 0
2, 86280, Note_off_c, 1, 47, 0
2, 86280, Note_off_c, 1, 50, 0
2, 86280, Note_off_c, 1, 53, 0
2, 86280, Note_on_c, 1, 64, 127
2, 86280, Note_off_c, 1, 71, 0
2, 86280, Note_on_c, 1, 74, 127
2, 86280, Note_on_c, 1, 78, 127
2, 86320, Note_on_c, 1, 54, 127
2, 86320, Note_off_c, 1, 59, 0
2, 86320, Note_off_c, 1, 64, 0
2, 86320, Note_on_c, 1, 66, 127
2, 86320, Note_off_c, 1, 74, 0
2, 86320, Note_off_c, 1, 78, 0
2, 86320, Note_on_c, 1, 85, 127
2, 86320, Note_on_c, 1, 90, 127
2, 86320, Note_on_c, 1, 93, 127
2, 86320, Note_on_c, 1, 97, 127
2, 86360, Note_off_c, 1, 54, 0
2, 86360, Note_on_c, 1, 59, 127
2, 86360, Note_on_c, 1, 64, 127
2, 86360, Note_off_c, 1, 66, 0
2, 86360, Note_on_c, 1, 74, 127
2, 86360, Note_on_c, 1, 78, 127
2, 86360, Note_off_c, 1, 85, 0
2, 86360, Note_off_c, 1, 90, 0
2, 86360, Note_off_c, 1, 93, 0
2, 86360, Note_off_c, 1, 97, 0
2, 86400, Note_on_c, 1, 53, 127
2, 86400, Note_on_c, 1, 58, 127
2, 86400, Note_off_c, 1, 59, 0
2, 86400, Note_on_c, 1, 61, 127
2, 86400, Note_off_c, 1, 64, 0
2, 86400, Note_on_c, 1, 65, 127
2, 86400, Note_on_c, 1, 72, 127
2, 86400, Note_off_c, 1, 74, 0
2, 86400, Note_on_c, 1, 77, 127
2, 86400, Note_off_c, 1, 78, 0
2, 86400, Note_on_c, 1, 84, 127
2, 86440, Note_off_c, 1, 53, 0
2, 86440, Note_on_c, 1, 56, 127
2, 86440, Note_off_c, 1, 61, 0
2, 86440, Note_on_c, 1, 63, 127
2, 86440, Note_off_c, 1, 65, 0
2, 86440, Note_on_c, 1, 70, 127
2, 86440, Note_off_c, 1, 72, 0
2, 86440, Note_off_c, 1, 77, 0
2, 86440, Note_off_c, 1, 84, 0
2, 86480, Note_off_c, 1, 56, 0
2, 86480, Note_off_c, 1, 58, 0
2, 86480, Note_off_c, 1, 63, 0
2, 86480, Note_off_c, 1, 70, 0
2, 86520, Note_on_c, 1, 63, 127
2, 86520, Note_on_c, 1, 66, 127
2, 86520, Note_on_c, 1, 81, 127
2, 86520, Note_on_c, 1, 83, 127
2, 86520, Note_on_c, 1, 90, 127
2, 86560, Note_on_c, 1, 56, 127
2, 86560, Note_on_c, 1, 58, 127
2, 86560, Note_off_c, 1, 66, 0
2, 86560, Note_on_c, 1, 70, 127
2, 86560, Note_off_c, 1, 81, 0
2, 86560, Note_off_c, 1, 83, 0
2, 86560, Note_off_c, 1, 90, 0
2, 86600, Note_on_c, 1, 35, 127
2, 86600, Note_on_c, 1, 52, 127
2, 86600, Note_off_c, 1, 58, 0
2, 86600, Note_off_c, 1, 70, 0
2, 86600, Note_on_c, 1, 95, 127
2, 86600, Note_on_c, 1, 99, 127
2, 86640, Note_off_c, 1, 35, 0
2, 86640, Note_on_c, 1, 45, 127
2, 86640, Note_off_c, 1, 52, 0
2, 86640, Note_on_c, 1, 55, 127
2, 86640, Note_off_c, 1, 56, 0
2, 86640, Note_on_c, 1, 60, 127
2, 86640, Note_off_c, 1, 63, 0
2, 86640, Note_on_c, 1, 69, 127
2, 86640, Note_off_c, 1, 95, 0
2, 86640, Note_off_c, 1, 99, 0
2, 86680, Note_on_c, 1, 41, 127
2, 86680, Note_off_c, 1, 45, 0
2, 86680, Note_on_c, 1, 49, 127
2, 86680, Note_off_c, 1, 55, 0
2, 86680, Note_on_c, 1, 56, 127
2, 86680, Note_off_c, 1, 60, 0
2, 86680, Note_off_c, 1, 69, 0
2, 86680, Note_on_c, 1, 92, 127
2, 86720, Note_off_c, 1, 41, 0
2, 86720, Note_on_c, 1, 43, 127
2, 86720, Note_off_c, 1, 49, 0
2, 86720, Note_off_c, 1, 56, 0
2, 86720, Note_on_c, 1, 84, 127
2, 86720, Note_on_c, 1, 87, 127
2, 86720, Note_off_c, 1, 92, 0
2, 86760, Note_off_c, 1, 43, 0
2, 86760, Note_on_c, 1, 51, 127
2, 86760, Note_on_c, 1, 63, 127
2, 86760, Note_on_c, 1, 67, 127
2, 86760, Note_on_c, 1, 75, 127
2, 86760, Note_on_c, 1, 81, 127
2, 86760, Note_off_c, 1, 84, 0
2, 86760, Note_off_c, 1, 87, 0
2, 86880, Note_on_c, 1, 38, 127
2, 86880, Note_off_c, 1, 51, 0
2, 86880, Note_on_c, 1, 52, 127
2, 86880, Note_on_c, 1, 57, 127
2, 86880, Note_off_c, 1, 63, 0
2, 86880, Note_off_c, 1, 67, 0
2, 86880, Note_off_c, 1, 75, 0
2, 86880, Note_on_c, 1, 76, 127
2, 86880, Note_off_c, 1, 81, 0
2, 86920, Note_off_c, 1, 38, 0
2, 86920, Note_off_c, 1, 52, 0
2, 86920, Note_off_c, 1, 57, 0
2, 86920, Note_on_c, 1, 61, 127
2, 86920, Note_on_c, 1, 64, 127
2, 86920, Note_on_c, 1, 74, 127
2, 86920, Note_off_c, 1, 76, 0
2, 86920, Note_on_c, 1, 77, 127
2, 86920, Note_on_c, 1, 86, 127
2, 86960, Note_on_c, 1, 63, 127
2, 86960, Note_off_c, 1, 64, 0
2, 86960, Note_on_c, 1, 66, 127
2, 86960, Note_on_c, 1, 73, 127
2, 86960, Note_off_c, 1, 74, 0
2, 86960, Note_off_c, 1, 77, 0
2, 86960, Note_on_c, 1, 78, 127
2, 86960, Note_off_c, 1, 86, 0
2, 86960, Note_on_c, 1, 87, 127
2, 86960, Note_on_c, 1, 90, 127
2, 87000, Note_off_c, 1, 61, 0
2, 87000, Note_off_c, 1, 63, 0
2, 87000, Note_off_c, 1, 66, 0
2, 87000, Note_on_c, 1, 67, 127
2, 87000, Note_on_c, 1, 72, 127
2, 87000, Note_off_c, 1, 73, 0
2, 87000, Note_on_c, 1, 76, 127
2, 87000, Note_off_c, 1, 78, 0
2, 87000, Note_off_c, 1, 87, 0
2, 87000, Note_on_c, 1, 88, 127
2, 87000, Note_off_c, 1, 90, 0
2, 87000, Note_on_c, 1, 96, 127
2, 87000, Note_on_c, 1, 100, 127
2, 87040, Note_on_c, 1, 45, 127
2, 87040, Note_on_c, 1, 49, 127
2, 87040, Note_on_c, 1, 52, 127
2, 87040, Note_on_c, 1, 55, 127
2, 87040, Note_off_c, 1, 67, 0
2, 87040, Note_off_c, 1, 72, 0
2, 87040, Note_off_c, 1, 76, 0
2, 87040, Note_on_c, 1, 79, 127
2, 87040, Note_off_c, 1, 88, 0
2, 87040, Note_off_c, 1, 96, 0
2, 87040, Note_off_c, 1, 100, 0
2, 87080, Note_off_c, 1, 45, 0
2, 87080, Note_on_c, 1, 46, 127
2, 87080, Note_off_c, 1, 49, 0
2, 87080, Note_off_c, 1, 52, 0
2, 87080, Note_off_c, 1, 55, 0
2, 87080, Note_on_c, 1, 82, 127
2, 87120, Note_off_c, 1, 46, 0
2, 87120, Note_on_c, 1, 52, 127
2, 87120, Note_on_c, 1, 64, 127
2, 87120, Note_off_c, 1, 79, 0
2, 87120, Note_on_c, 1, 81, 127
2, 87120, Note_off_c, 1, 82, 0
2, 87120, Note_on_c, 1, 88, 127
2, 87120, Note_on_c, 1, 93, 127
2, 87240, Note_on_c, 1, 35, 127
2, 87240, Note_off_c, 1, 52, 0
2, 87240, Note_off_c, 1, 64, 0
2, 87240, Note_on_c, 1, 78, 127
2, 87240, Note_on_c, 1, 84, 127
2, 87240, Note_off_c, 1, 88, 0
2, 87240, Note_off_c, 1, 93, 0
2, 87280, Note_off_c, 1, 35, 0
2, 87280, Note_on_c, 1, 52, 127
2, 87280, Note_on_c, 1, 64, 127
2, 87280, Note_off_c, 1, 78, 0
2, 87280, Note_off_c, 1, 84, 0
2, 87280, Note_on_c, 1, 88, 127
2, 87280, Note_on_c, 1, 93, 127
2, 87400, Note_on_c, 1, 48, 127
2, 87400, Note_off_c, 1, 52, 0
2, 87400, Note_on_c, 1, 55, 127
2, 87400, Note_on_c, 1, 58, 127
2, 87400, Note_on_c, 1, 72, 127
2, 87400, Note_on_c, 1, 76, 127
2, 87400, Note_off_c, 1, 81, 0
2, 87400, Note_off_c, 1, 88, 0
2, 87400, Note_off_c, 1, 93, 0
2, 87440, Note_off_c, 1, 48, 0
2, 87440, Note_on_c, 1, 52, 127
2, 87440, Note_off_c, 1, 55, 0
2, 87440, Note_off_c, 1, 58, 0
2, 87440, Note_off_c, 1, 72, 0
2, 87440, Note_off_c, 1, 76, 0
2, 87440, Note_on_c, 1, 81, 127
2, 87440, Note_on_c, 1, 88, 127
2, 87440, Note_on_c, 1, 93, 127
2, 87480, Note_on_c, 1, 55, 127
2, 87480, Note_on_c, 1, 58, 127
2, 87480, Note_on_c, 1, 60, 127
2, 87480, Note_off_c, 1, 64, 0
2, 87480, Note_off_c, 1, 81, 0
2, 87480, Note_off_c, 1, 88, 0
2, 87480, Note_off_c, 1, 93, 0
2, 87520, Note_on_c, 1, 35, 127
2, 87520, Note_on_c, 1, 47, 127
2, 87520, Note_off_c, 1, 52, 0
2, 87520, Note_off_c, 1, 55, 0
2, 87520, Note_off_c, 1, 58, 0
2, 87520, Note_off_c, 1, 60, 0
2, 87520, Note_on_c, 1, 62, 127
2, 87520, Note_on_c, 1, 82, 127
2, 87520, Note_on_c, 1, 94, 127
2, 87720, Note_off_c, 1, 35, 0
2, 87720, Note_off_c, 1, 47, 0
2, 87720, Note_off_c, 1, 62, 0
2, 87720, Note_on_c, 1, 64, 127
2, 87720, Note_on_c, 1, 67, 127
2, 87720, Note_on_c, 1, 69, 127
2, 87720, Note_on_c, 1, 74, 127
2, 87720, Note_off_c, 1, 82, 0
2, 87720, Note_off_c, 1, 94, 0
2, 87760, Note_on_c, 1, 35, 127
2, 87760, Note_on_c, 1, 47, 127
2, 87760, Note_on_c, 1, 62, 127
2, 87760, Note_off_c, 1, 64, 0
2, 87760, Note_off_c, 1, 67, 0
2, 87760, Note_off_c, 1, 69, 0
2, 87760, Note_off_c, 1, 74, 0
2, 87760, Note_on_c, 1, 82, 127
2, 87760, Note_on_c, 1, 94, 127
2, 87840, Note_on_c, 1, 33, 127
2, 87840, Note_off_c, 1, 35, 0
2, 87840, Note_off_c, 1, 47, 0
2, 87840, Note_on_c, 1, 49, 127
2, 87840, Note_off_c, 1, 62, 0
2, 87840, Note_off_c, 1, 82, 0
2, 87840, Note_off_c, 1, 94, 0
2, 87880, Note_off_c, 1, 33, 0
2, 87880, Note_off_c, 1, 49, 0
2, 87920, Note_on_c, 1, 41, 127
2, 87920, Note_on_c, 1, 45, 127
2, 87920, Note_on_c, 1, 50, 127
2, 87920, Note_on_c, 1, 53, 127
2, 87920, Note_on_c, 1, 57, 127
2, 88480, Note_off_c, 1, 41, 0
2, 88480, Note_off_c, 1, 45, 0
2, 88480, Note_off_c, 1, 50, 0
2, 88480, Note_off_c, 1, 53, 0
2, 88480, Note_off_c, 1, 57, 0
2, 88520, Note_on_c, 1, 41, 127
2, 88520, Note_on_c, 1, 45, 127
2, 88520, Note_on_c, 1, 50, 127
2, 88520, Note_on_c, 1, 53, 127
2, 88520, Note_on_c, 1, 57, 127
2, 88720, Note_off_c, 1, 41, 0
2, 88720, Note_off_c, 1, 45, 0
2, 88720, Note_off_c, 1, 50, 0
2, 88720, Note_off_c, 1, 53, 0
2, 88760, Note_on_c, 1, 41, 127
2, 88760, Note_on_c, 1, 45, 127
2, 88760, Note_on_c, 1, 50, 127
2, 88760, Note_on_c, 1, 53, 127
2, 89120, Note_on_c, 1, 34, 127
2, 89120, Note_off_c, 1, 41, 0
2, 89120, Note_off_c, 1, 45, 0
2, 89120, Note_off_c, 1, 50, 0
2, 89120, Note_off_c, 1, 53, 0
2, 89120, Note_off_c, 1, 57, 0
2, 89120, Note_on_c, 1, 58, 127
2, 89120, Note_on_c, 1, 62, 127
2, 89120, Note_on_c, 1, 67, 127
2, 89160, Note_off_c, 1, 34, 0
2, 89160, Note_off_c, 1, 58, 0
2, 89160, Note_off_c, 1, 62, 0
2, 89160, Note_on_c, 1, 65, 127
2, 89160, Note_off_c, 1, 67, 0
2, 89160, Note_on_c, 1, 68, 127
2, 89160, Note_on_c, 1, 83, 127
2, 89160, Note_on_c, 1, 84, 127
2, 89200, Note_on_c, 1, 42, 127
2, 89200, Note_on_c, 1, 50, 127
2, 89200, Note_on_c, 1, 55, 127
2, 89200, Note_on_c, 1, 60, 127
2, 89200, Note_on_c, 1, 62, 127
2, 89200, Note_off_c, 1, 65, 0
2, 89200, Note_on_c, 1, 67, 127
2, 89200, Note_off_c, 1, 68, 0
2, 89200, Note_off_c, 1, 83, 0
2, 89200, Note_off_c, 1, 84, 0
2, 89240, Note_off_c, 1, 42, 0
2, 89240, Note_off_c, 1, 50, 0
2, 89240, Note_on_c, 1, 51, 127
2, 89240, Note_off_c, 1, 55, 0
2, 89240, Note_on_c, 1, 59, 127
2, 89240, Note_off_c, 1, 60, 0
2, 89240, Note_off_c, 1, 62, 0
2, 89240, Note_on_c, 1, 65, 127
2, 89240, Note_off_c, 1, 67, 0
2, 89240, Note_on_c, 1, 70, 127
2, 89240, Note_on_c, 1, 77, 127
2, 89280, Note_on_c, 1, 42, 127
2, 89280, Note_on_c, 1, 50, 127
2, 89280, Note_off_c, 1, 51, 0
2, 89280, Note_on_c, 1, 55, 127
2, 89280, Note_off_c, 1, 59, 0
2, 89280, Note_on_c, 1, 60, 127
2, 89280, Note_on_c, 1, 62, 127
2, 89280, Note_off_c, 1, 65, 0
2, 89280, Note_on_c, 1, 67, 127
2, 89280, Note_off_c, 1, 70, 0
2, 89280, Note_off_c, 1, 77, 0
2, 89520, Note_off_c, 1, 42, 0
2, 89520, Note_off_c, 1, 50, 0
2, 89520, Note_off_c, 1, 55, 0
2, 89520, Note_off_c, 1, 60, 0
2, 89520, Note_off_c, 1, 62, 0
2, 89520, Note_off_c, 1, 67, 0
2, 89560, Note_on_c, 1, 36, 127
2, 89560, Note_on_c, 1, 48, 127
2, 89560, Note_on_c, 1, 76, 127
2, 89560, Note_on_c, 1, 84, 127
2, 89560, Note_on_c, 1, 88, 127
2, 90120, Note_off_c, 1, 76, 0
2, 90120, Note_off_c, 1, 84, 0
2, 90120, Note_off_c, 1, 88, 0
2, 90560, Note_off_c, 1, 36, 0
2, 90560, Note_off_c, 1, 48, 0
2, 90600, Note_on_c, 1, 36, 127
2, 90600, Note_on_c, 1, 40, 127
2, 91360, Note_off_c, 1, 36, 0
2, 91360, Note_off_c, 1, 40, 0
2, 91400, Note_on_c, 1, 36, 127
2, 91400, Note_on_c, 1, 40, 127
2, 91760, Note_off_c, 1, 40, 0
2, 91800, Note_on_c, 1, 40, 127
2, 92560, Note_off_c, 1, 36, 0
2, 92560, Note_off_c, 1, 40, 0
2, 92600, Note_on_c, 1, 37, 127
2, 92760, Note_off_c, 1, 37, 0
2, 92800, Note_on_c, 1, 37, 127
2, 93000, Note_off_c, 1, 37, 0
2, 93040, Note_on_c, 1, 54, 127
2, 93040, Note_on_c, 1, 56, 127
2, 93040, Note_on_c, 1, 58, 127
2, 93040, Note_on_c, 1, 61, 127
2, 93080, Note_on_c, 1, 42, 127
2, 93080, Note_on_c, 1, 49, 127
2, 93080, Note_off_c, 1, 54, 0
2, 93080, Note_off_c, 1, 56, 0
2, 93080, Note_off_c, 1, 58, 0
2, 93080, Note_off_c, 1, 61, 0
2, 93400, Note_off_c, 1, 42, 0
2, 93400, Note_off_c, 1, 49, 0
2, 94880, Note_on_c, 1, 58, 127
2, 94880, Note_on_c, 1, 64, 127
2, 94880, Note_on_c, 1, 76, 127
2, 94880, Note_on_c, 1, 88, 127
2, 95640, Note_off_c, 1, 64, 0
2, 96040, Note_off_c, 1, 58, 0
2, 96080, Note_on_c, 1, 58, 127
2, 96440, Note_off_c, 1, 58, 0
2, 96480, Note_on_c, 1, 58, 127
2, 96840, Note_off_c, 1, 58, 0
2, 96880, Note_off_c, 1, 76, 0
2, 96880, Note_off_c, 1, 88, 0
2, 96920, Note_on_c, 1, 58, 127
2, 96920, Note_on_c, 1, 76, 127
2, 96920, Note_on_c, 1, 88, 127
2, 97280, Note_off_c, 1, 58, 0
2, 97320, Note_on_c, 1, 55, 127
2, 97680, Note_off_c, 1, 55, 0
2, 97720, Note_on_c, 1, 58, 127
2, 98080, Note_off_c, 1, 58, 0
2, 98120, Note_on_c, 1, 55, 127
2, 98480, Note_off_c, 1, 55, 0
2, 98480, Note_off_c, 1, 76, 0
2, 98480, Note_off_c, 1, 88, 0
2, 98520, Note_on_c, 1, 53, 127
2, 98520, Note_on_c, 1, 75, 127
2, 98520, Note_on_c, 1, 87, 127
2, 98880, Note_off_c, 1, 53, 0
2, 98880, Note_off_c, 1, 75, 0
2, 98880, Note_off_c, 1, 87, 0
2, 98920, Note_on_c, 1, 48, 127
2, 98920, Note_on_c, 1, 61, 127
2, 98920, Note_on_c, 1, 73, 127
2, 98960, Note_off_c, 1, 48, 0
2, 98960, Note_off_c, 1, 61, 0
2, 98960, Note_off_c, 1, 73, 0
2, 99000, Note_on_c, 1, 40, 127
2, 99000, Note_on_c, 1, 60, 127
2, 99000, Note_on_c, 1, 72, 127
2, 99040, Note_off_c, 1, 40, 0
2, 99040, Note_on_c, 1, 43, 127
2, 99080, Note_off_c, 1, 43, 0
2, 99080, Note_on_c, 1, 57, 127
2, 99080, Note_off_c, 1, 60, 0
2, 99080, Note_on_c, 1, 66, 127
2, 99080, Note_on_c, 1, 78, 127
2, 99120, Note_on_c, 1, 56, 127
2, 99120, Note_off_c, 1, 57, 0
2, 99120, Note_off_c, 1, 66, 0
2, 99120, Note_off_c, 1, 72, 0
2, 99120, Note_on_c, 1, 75, 127
2, 99120, Note_off_c, 1, 78, 0
2, 99120, Note_on_c, 1, 83, 127
2, 99160, Note_on_c, 1, 43, 127
2, 99160, Note_off_c, 1, 56, 0
2, 99160, Note_on_c, 1, 60, 127
2, 99160, Note_on_c, 1, 72, 127
2, 99160, Note_off_c, 1, 75, 0
2, 99160, Note_off_c, 1, 83, 0
2, 99320, Note_off_c, 1, 43, 0
2, 99360, Note_on_c, 1, 57, 127
2, 99360, Note_on_c, 1, 65, 127
2, 99360, Note_on_c, 1, 77, 127
2, 99720, Note_off_c, 1, 57, 0
2, 99720, Note_off_c, 1, 60, 0
2, 99720, Note_off_c, 1, 65, 0
2, 99720, Note_off_c, 1, 72, 0
2, 99720, Note_off_c, 1, 77, 0
2, 99760, Note_on_c, 1, 59, 127
2, 99760, Note_on_c, 1, 64, 127
2, 99760, Note_on_c, 1, 80, 127
2, 99760, Note_on_c, 1, 83, 127
2, 101560, Note_off_c, 1, 59, 0
2, 101560, Note_off_c, 1, 64, 0
2, 101560, Note_off_c, 1, 80, 0
2, 101560, Note_off_c, 1, 83, 0
2, 101600, Note_on_c, 1, 59, 127
2, 101600, Note_on_c, 1, 64, 127
2, 101600, Note_on_c, 1, 80, 127
2, 101600, Note_on_c, 1, 83, 127
2, 101960, Note_off_c, 1, 59, 0
2, 101960, Note_off_c, 1, 64, 0
2, 101960, Note_off_c, 1, 80, 0
2, 101960, Note_off_c, 1, 83, 0
2, 102000, Note_on_c, 1, 54, 127
2, 102000, Note_on_c, 1, 70, 127
2, 102400, Note_off_c, 1, 70, 0
2, 102400, Note_on_c, 1, 78, 127
2, 102560, Note_off_c, 1, 54, 0
2, 102600, Note_on_c, 1, 54, 127
2, 102920, Note_on_c, 1, 66, 127
2, 102920, Note_off_c, 1, 78, 0
2, 102960, Note_off_c, 1, 54, 0
2, 102960, Note_off_c, 1, 66, 0
2, 102960, Note_on_c, 1, 78, 127
2, 103000, Note_on_c, 1, 51, 127
2, 103360, Note_off_c, 1, 51, 0
2, 103400, Note_on_c, 1, 63, 127
2, 103760, Note_off_c, 1, 63, 0
2, 103760, Note_off_c, 1, 78, 0
2, 103840, Note_on_c, 1, 49, 127
2, 103840, Note_on_c, 1, 80, 127
2, 104200, Note_off_c, 1, 49, 0
2, 104240, Note_on_c, 1, 61, 127
2, 104600, Note_off_c, 1, 61, 0
2, 104600, Note_off_c, 1, 80, 0
2, 104640, Note_on_c, 1, 47, 127
2, 104640, Note_on_c, 1, 78, 127
2, 105000, Note_off_c, 1, 47, 0
2, 105040, Note_on_c, 1, 63, 127
2, 105400, Note_off_c, 1, 63, 0
2, 105400, Note_off_c, 1, 78, 0
2, 105440, Note_on_c, 1, 42, 127
2, 105440, Note_on_c, 1, 82, 127
2, 105800, Note_off_c, 1, 42, 0
2, 105840, Note_on_c, 1, 49, 127
2, 106040, Note_off_c, 1, 49, 0
2, 106040, Note_off_c, 1, 82, 0
2, 106080, Note_on_c, 1, 49, 127
2, 106080, Note_on_c, 1, 82, 127
2, 106240, Note_off_c, 1, 49, 0
2, 106280, Note_on_c, 1, 61, 127
2, 106640, Note_off_c, 1, 61, 0
2, 106640, Note_off_c, 1, 82, 0
2, 106680, Note_on_c, 1, 54, 127
2, 106680, Note_on_c, 1, 80, 127
2, 107040, Note_off_c, 1, 54, 0
2, 107080, Note_on_c, 1, 51, 127
2, 107440, Note_off_c, 1, 51, 0
2, 107480, Note_on_c, 1, 47, 127
2, 108240, Note_off_c, 1, 47, 0
2, 108280, Note_off_c, 1, 80, 0
2, 108320, Note_on_c, 1, 44, 127
2, 108320, Note_on_c, 1, 68, 127
2, 108680, Note_off_c, 1, 44, 0
2, 108720, Note_on_c, 1, 48, 127
2, 108720, Note_off_c, 1, 68, 0
2, 108720, Note_on_c, 1, 80, 127
2, 109080, Note_off_c, 1, 48, 0
2, 109120, Note_on_c, 1, 59, 127
2, 109480, Note_off_c, 1, 59, 0
2, 109480, Note_off_c, 1, 80, 0
2, 109520, Note_on_c, 1, 39, 127
2, 109520, Note_on_c, 1, 80, 127
2, 109880, Note_off_c, 1, 39, 0
2, 109880, Note_off_c, 1, 80, 0
2, 109920, Note_on_c, 1, 40, 127
2, 109920, Note_on_c, 1, 81, 127
2, 110280, Note_off_c, 1, 40, 0
2, 110280, Note_off_c, 1, 81, 0
2, 110320, Note_on_c, 1, 47, 127
2, 110320, Note_on_c, 1, 87, 127
2, 110520, Note_off_c, 1, 87, 0
2, 110560, Note_off_c, 1, 47, 0
2, 110600, Note_on_c, 1, 47, 127
2, 110720, Note_off_c, 1, 47, 0
2, 110760, Note_on_c, 1, 51, 127
2, 110760, Note_on_c, 1, 78, 127
2, 111120, Note_off_c, 1, 51, 0
2, 111120, Note_off_c, 1, 78, 0
2, 111160, Note_on_c, 1, 49, 127
2, 111160, Note_on_c, 1, 80, 127
2, 111520, Note_off_c, 1, 49, 0
2, 111520, Note_off_c, 1, 80, 0
2, 111560, Note_on_c, 1, 42, 127
2, 111560, Note_on_c, 1, 70, 127
2, 111920, Note_off_c, 1, 42, 0
2, 111960, Note_on_c, 1, 49, 127
2, 112320, Note_off_c, 1, 49, 0
2, 112360, Note_on_c, 1, 51, 127
2, 112720, Note_off_c, 1, 51, 0
2, 112760, Note_off_c, 1, 70, 0
2, 112800, Note_on_c, 1, 58, 127
2, 112800, Note_on_c, 1, 70, 127
2, 113160, Note_off_c, 1, 58, 0
2, 113200, Note_on_c, 1, 52, 127
2, 113560, Note_off_c, 1, 52, 0
2, 113600, Note_on_c, 1, 54, 127
2, 113960, Note_off_c, 1, 54, 0
2, 113960, Note_off_c, 1, 70, 0
2, 114000, Note_on_c, 1, 42, 127
2, 114000, Note_on_c, 1, 70, 127
2, 114360, Note_off_c, 1, 42, 0
2, 114400, Note_on_c, 1, 49, 127
2, 114720, Note_off_c, 1, 49, 0
2, 114720, Note_off_c, 1, 70, 0
2, 114760, Note_on_c, 1, 49, 127
2, 114760, Note_on_c, 1, 70, 127
2, 114800, Note_off_c, 1, 49, 0
2, 114840, Note_on_c, 1, 54, 127
2, 115200, Note_off_c, 1, 54, 0
2, 115240, Note_on_c, 1, 49, 127
2, 115600, Note_off_c, 1, 49, 0
2, 115640, Note_on_c, 1, 54, 127
2, 116000, Note_off_c, 1, 54, 0
2, 116000, Note_off_c, 1, 70, 0
2, 116040, Note_on_c, 1, 66, 127
2, 116400, Note_off_c, 1, 66, 0
2, 116440, Note_on_c, 1, 51, 127
2, 116440, Note_on_c, 1, 71, 127
2, 116800, Note_off_c, 1, 51, 0
2, 116800, Note_off_c, 1, 71, 0
2, 116880, Note_on_c, 1, 47, 127
2, 116880, Note_on_c, 1, 66, 127
2, 117240, Note_off_c, 1, 47, 0
2, 117240, Note_off_c, 1, 66, 0
2, 117280, Note_on_c, 1, 51, 127
2, 117640, Note_off_c, 1, 51, 0
2, 117680, Note_on_c, 1, 63, 127
2, 117680, Note_on_c, 1, 68, 127
2, 117680, Note_on_c, 1, 71, 127
2, 118040, Note_off_c, 1, 63, 0
2, 118040, Note_off_c, 1, 68, 0
2, 118040, Note_off_c, 1, 71, 0
2, 118080, Note_on_c, 1, 59, 127
2, 118440, Note_off_c, 1, 59, 0
2, 118480, Note_on_c, 1, 48, 127
2, 118480, Note_on_c, 1, 70, 127
2, 118840, Note_off_c, 1, 48, 0
2, 118840, Note_off_c, 1, 70, 0
2, 118880, Note_on_c, 1, 54, 127
2, 118880, Note_on_c, 1, 70, 127
2, 119080, Note_off_c, 1, 54, 0
2, 119080, Note_off_c, 1, 70, 0
2, 119120, Note_on_c, 1, 54, 127
2, 119120, Note_on_c, 1, 70, 127
2, 119480, Note_off_c, 1, 54, 0
2, 119480, Note_off_c, 1, 70, 0
2, 119520, Note_on_c, 1, 47, 127
2, 119880, Note_off_c, 1, 47, 0
2, 119920, Note_on_c, 1, 51, 127
2, 120000, Note_off_c, 1, 51, 0
2, 120040, End_track
3, 0, Start_track
3, 0, Title_t, "MIDI"
3, 1536, End_track
0, 0, End_of_file
