0, 0, Header, 1, 3, 192
1, 0, Start_track
1, 0, Time_signature, 4, 2, 24, 8
1, 0, Tempo, 500000
1, 120040, End_track
2, 0, Start_track
2, 0, Text_t, "random instrument: random person i dunno whatev"
2, 0, Title_t, "Track 1"
2, 0, Note_on_c, 1, 58, 127
2, 0, Note_on_c, 1, 66, 127
2, 0, Note_on_c, 1, 78, 127
2, 0, Note_on_c, 1, 82, 127
2, 0, Note_on_c, 1, 90, 127
2, 520, Note_off_c, 1, 58, 0
2, 520, Note_off_c, 1, 66, 0
2, 520, Note_off_c, 1, 78, 0
2, 520, Note_off_c, 1, 82, 0
2, 520, Note_off_c, 1, 90, 0
2, 600, Note_on_c, 1, 37, 127
2, 600, Note_on_c, 1, 44, 127
2, 600, Note_on_c, 1, 68, 127
2, 600, Note_on_c, 1, 89, 127
2, 640, Note_off_c, 1, 44, 0
2, 640, Note_on_c, 1, 63, 127
2, 640, Note_on_c, 1, 73, 127
2, 640, Note_off_c, 1, 89, 0
2, 680, Note_off_c, 1, 37, 0
2, 680, Note_off_c, 1, 63, 0
2, 680, Note_off_c, 1, 68, 0
2, 680, Note_off_c, 1, 73, 0
2, 720, Note_on_c, 1, 45, 127
2, 720, Note_on_c, 1, 53, 127
2, 720, Note_on_c, 1, 62, 127
2, 720, Note_on_c, 1, 65, 127
2, 720, Note_on_c, 1, 70, 127
2, 2720, Note_off_c, 1, 45, 0
2, 2720, Note_off_c, 1, 53, 0
2, 2720, Note_off_c, 1, 62, 0
2, 2720, Note_off_c, 1, 65, 0
2, 2720, Note_off_c, 1, 70, 0
2, 2760, Note_on_c, 1, 45, 127
2, 2760, Note_on_c, 1, 53, 127
2, 2760, Note_on_c, 1, 62, 127
2, 2760, Note_on_c, 1, 65, 127
2, 2760, Note_on_c, 1, 70, 127
2, 4680, Note_off_c, 1, 45, 0
2, 4680, Note_off_c, 1, 53, 0
2, 4680, Note_off_c, 1, 62, 0
2, 4680, Note_off_c, 1, 65, 0
2, 4680, Note_off_c, 1, 70, 0
2, 4720, Note_on_c, 1, 45, 127
2, 4720, Note_on_c, 1, 53, 127
2, 4720, Note_on_c, 1, 62, 127
2, 4720, Note_on_c, 1, 65, 127
2, 4720, Note_on_c, 1, 70, 127
2, 6720, Note_off_c, 1, 45, 0
2, 6720, Note_off_c, 1, 53, 0
2, 6720, Note_off_c, 1, 62, 0
2, 6720, Note_off_c, 1, 65, 0
2, 6720, Note_off_c, 1, 70, 0
2, 67200, Note_on_c, 1, 52, 127
2, 67560, Note_off_c, 1, 52, 0
2, 67640, Note_on_c, 1, 52, 127
2, 68000, Note_off_c, 1, 52, 0
2, 68040, Note_on_c, 1, 52, 127
2, 68400, Note_off_c, 1, 52, 0
2, 68440, Note_on_c, 1, 52, 127
2, 68800, Note_off_c, 1, 52, 0
2, 68840, Note_on_c, 1, 55, 127
2, 69200, Note_off_c, 1, 55, 0
2, 69240, Note_on_c, 1, 52, 127
2, 69840, Note_off_c, 1, 52, 0
2, 69880, Note_on_c, 1, 52, 127
2, 70480, Note_off_c, 1, 52, 0
2, 70520, Note_on_c, 1, 49, 127
2, 70880, Note_off_c, 1, 49, 0
2, 70920, Note_on_c, 1, 52, 127
2, 71280, Note_off_c, 1, 52, 0
2, 71320, Note_on_c, 1, 40, 127
2, 71680, Note_off_c, 1, 40, 0
2, 71720, Note_on_c, 1, 45, 127
2, 72040, Note_off_c, 1, 45, 0
2, 72080, Note_on_c, 1, 45, 127
2, 72120, Note_off_c, 1, 45, 0
2, 72160, Note_on_c, 1, 40, 127
2, 72520, Note_off_c, 1, 40, 0
2, 72560, Note_on_c, 1, 45, 127
2, 72920, Note_off_c, 1, 45, 0
2, 72960, Note_on_c, 1, 45, 127
2, 73320, Note_off_c, 1, 45, 0
2, 73360, Note_on_c, 1, 52, 127
2, 74120, Note_off_c, 1, 52, 0
2, 74200, Note_on_c, 1, 52, 127
2, 74560, Note_off_c, 1, 52, 0
2, 74600, Note_on_c, 1, 49, 127
2, 74960, Note_off_c, 1, 49, 0
2, 75000, Note_on_c, 1, 52, 127
2, 75360, Note_off_c, 1, 52, 0
2, 75400, Note_on_c, 1, 45, 127
2, 75760, Note_off_c, 1, 45, 0
2, 75800, Note_on_c, 1, 50, 127
2, 76160, Note_off_c, 1, 50, 0
2, 76200, Note_on_c, 1, 52, 127
2, 76520, Note_off_c, 1, 52, 0
2, 76560, Note_on_c, 1, 52, 127
2, 76600, Note_off_c, 1, 52, 0
2, 76640, Note_on_c, 1, 45, 127
2, 77000, Note_off_c, 1, 45, 0
2, 77040, Note_on_c, 1, 52, 127
2, 77400, Note_off_c, 1, 52, 0
2, 77440, Note_on_c, 1, 57, 127
2, 77800, Note_off_c, 1, 57, 0
2, 77840, Note_on_c, 1, 51, 127
2, 78200, Note_off_c, 1, 51, 0
2, 78240, Note_on_c, 1, 48, 127
2, 78600, Note_off_c, 1, 48, 0
2, 78640, Note_on_c, 1, 52, 127
2, 78960, Note_off_c, 1, 52, 0
2, 79000, Note_on_c, 1, 52, 127
2, 79040, Note_off_c, 1, 52, 0
2, 79080, Note_on_c, 1, 49, 127
2, 79440, Note_off_c, 1, 49, 0
2, 79480, Note_on_c, 1, 52, 127
2, 79840, Note_off_c, 1, 52, 0
2, 79880, Note_on_c, 1, 52, 127
2, 80240, Note_off_c, 1, 52, 0
2, 80280, Note_on_c, 1, 53, 127
2, 80640, Note_off_c, 1, 53, 0
2, 80680, Note_on_c, 1, 52, 127
2, 81040, Note_off_c, 1, 52, 0
2, 81080, Note_on_c, 1, 49, 127
2, 81240, Note_off_c, 1, 49, 0
2, 81280, Note_on_c, 1, 49, 127
2, 81480, Note_off_c, 1, 49, 0
2, 81520, Note_on_c, 1, 45, 127
2, 81880, Note_off_c, 1, 45, 0
2, 81920, Note_on_c, 1, 45, 127
2, 82280, Note_off_c, 1, 45, 0
2, 82320, Note_on_c, 1, 55, 127
2, 82680, Note_off_c, 1, 55, 0
2, 82720, Note_on_c, 1, 59, 127
2, 83080, Note_off_c, 1, 59, 0
2, 83120, Note_on_c, 1, 60, 127
2, 83480, Note_off_c, 1, 60, 0
2, 83520, Note_on_c, 1, 64, 127
2, 83880, Note_off_c, 1, 64, 0
2, 83960, Note_on_c, 1, 57, 127
2, 84320, Note_off_c, 1, 57, 0
2, 84360, Note_on_c, 1, 57, 127
2, 84720, Note_off_c, 1, 57, 0
2, 84760, Note_on_c, 1, 52, 127
2, 85120, Note_off_c, 1, 52, 0
2, 85160, Note_on_c, 1, 57, 127
2, 85520, Note_off_c, 1, 57, 0
2, 85560, Note_on_c, 1, 52, 127
2, 85920, Note_off_c, 1, 52, 0
2, 85960, Note_on_c, 1, 52, 127
2, 86320, Note_off_c, 1, 52, 0
2, 86360, Note_on_c, 1, 58, 127
2, 86480, Note_off_c, 1, 58, 0
2, 86520, Note_on_c, 1, 58, 127
2, 86760, Note_off_c, 1, 58, 0
2, 86800, Note_on_c, 1, 57, 127
2, 87160, Note_off_c, 1, 57, 0
2, 87200, Note_on_c, 1, 55, 127
2, 87560, Note_off_c, 1, 55, 0
2, 87600, Note_on_c, 1, 47, 127
2, 87960, Note_off_c, 1, 47, 0
2, 88000, Note_on_c, 1, 52, 127
2, 88360, Note_off_c, 1, 52, 0
2, 88400, Note_on_c, 1, 52, 127
2, 88760, Note_off_c, 1, 52, 0
2, 88840, Note_on_c, 1, 57, 127
2, 89200, Note_off_c, 1, 57, 0
2, 89240, Note_on_c, 1, 55, 127
2, 89600, Note_off_c, 1, 55, 0
2, 89640, Note_on_c, 1, 57, 127
2, 90000, Note_off_c, 1, 57, 0
2, 90040, Note_on_c, 1, 60, 127
2, 90400, Note_off_c, 1, 60, 0
2, 90440, Note_on_c, 1, 57, 127
2, 90800, Note_off_c, 1, 57, 0
2, 90840, Note_on_c, 1, 55, 127
2, 91200, Note_off_c, 1, 55, 0
2, 91280, Note_on_c, 1, 57, 127
2, 91640, Note_off_c, 1, 57, 0
2, 91680, Note_on_c, 1, 57, 127
2, 92040, Note_off_c, 1, 57, 0
2, 92080, Note_on_c, 1, 55, 127
2, 92440, Note_off_c, 1, 55, 0
2, 92480, Note_on_c, 1, 57, 127
2, 92840, Note_off_c, 1, 57, 0
2, 92880, Note_on_c, 1, 55, 127
2, 93240, Note_off_c, 1, 55, 0
2, 93280, Note_on_c, 1, 54, 127
2, 93640, Note_off_c, 1, 54, 0
2, 93720, Note_on_c, 1, 57, 127
2, 94080, Note_off_c, 1, 57, 0
2, 94120, Note_on_c, 1, 52, 127
2, 94480, Note_off_c, 1, 52, 0
2, 94520, Note_on_c, 1, 54, 127
2, 94880, Note_off_c, 1, 54, 0
2, 94920, Note_on_c, 1, 55, 127
2, 95280, Note_off_c, 1, 55, 0
2, 95320, Note_on_c, 1, 48, 127
2, 95680, Note_off_c, 1, 48, 0
2, 95720, Note_on_c, 1, 45, 127
2, 95920, Note_off_c, 1, 45, 0
2, 95960, Note_on_c, 1, 45, 127
2, 96120, Note_off_c, 1, 45, 0
2, 96160, Note_on_c, 1, 52, 127
2, 96520, Note_off_c, 1, 52, 0
2, 96560, Note_on_c, 1, 48, 127
2, 96920, Note_off_c, 1, 48, 0
2, 96960, Note_on_c, 1, 45, 127
2, 97320, Note_off_c, 1, 45, 0
2, 97360, Note_on_c, 1, 52, 127
2, 97720, Note_off_c, 1, 52, 0
2, 97760, Note_on_c, 1, 55, 127
2, 98080, Note_off_c, 1, 55, 0
2, 98120, Note_on_c, 1, 55, 127
2, 98160, Note_off_c, 1, 55, 0
2, 98200, Note_on_c, 1, 53, 127
2, 98560, Note_off_c, 1, 53, 0
2, 98600, Note_on_c, 1, 52, 127
2, 98960, Note_off_c, 1, 52, 0
2, 99000, Note_on_c, 1, 53, 127
2, 99360, Note_off_c, 1, 53, 0
2, 99400, Note_on_c, 1, 59, 127
2, 99760, Note_off_c, 1, 59, 0
2, 99800, Note_on_c, 1, 60, 127
2, 100160, Note_off_c, 1, 60, 0
2, 100240, Note_on_c, 1, 52, 127
2, 100600, Note_off_c, 1, 52, 0
2, 100640, Note_on_c, 1, 57, 127
2, 101000, Note_off_c, 1, 57, 0
2, 101040, Note_on_c, 1, 55, 127
2, 101400, Note_off_c, 1, 55, 0
2, 101440, Note_on_c, 1, 59, 127
2, 101800, Note_off_c, 1, 59, 0
2, 101840, Note_on_c, 1, 64, 127
2, 102600, Note_off_c, 1, 64, 0
2, 102680, Note_on_c, 1, 62, 127
2, 103040, Note_off_c, 1, 62, 0
2, 103080, Note_on_c, 1, 64, 127
2, 103440, Note_off_c, 1, 64, 0
2, 103480, Note_on_c, 1, 55, 127
2, 103480, Note_on_c, 1, 71, 127
2, 103840, Note_off_c, 1, 55, 0
2, 103840, Note_off_c, 1, 71, 0
2, 103880, Note_on_c, 1, 53, 127
2, 103880, Note_on_c, 1, 69, 127
2, 104440, Note_off_c, 1, 53, 0
2, 104480, Note_on_c, 1, 57, 127
2, 104680, Note_off_c, 1, 57, 0
2, 104680, Note_off_c, 1, 69, 0
2, 104720, Note_on_c, 1, 57, 127
2, 104720, Note_on_c, 1, 69, 127
2, 104880, Note_off_c, 1, 57, 0
2, 104880, Note_off_c, 1, 69, 0
2, 104920, Note_on_c, 1, 47, 127
2, 105280, Note_off_c, 1, 47, 0
2, 105320, Note_on_c, 1, 50, 127
2, 105680, Note_off_c, 1, 50, 0
2, 105720, Note_on_c, 1, 57, 127
2, 106080, Note_off_c, 1, 57, 0
2, 106120, Note_on_c, 1, 43, 127
2, 106480, Note_off_c, 1, 43, 0
2, 106520, Note_on_c, 1, 50, 127
2, 106840, Note_off_c, 1, 50, 0
2, 106880, Note_on_c, 1, 50, 127
2, 106920, Note_off_c, 1, 50, 0
2, 106960, Note_on_c, 1, 55, 127
2, 107320, Note_off_c, 1, 55, 0
2, 107360, Note_on_c, 1, 59, 127
2, 107720, Note_off_c, 1, 59, 0
2, 107760, Note_on_c, 1, 52, 127
2, 108120, Note_off_c, 1, 52, 0
2, 108160, Note_on_c, 1, 55, 127
2, 108520, Note_off_c, 1, 55, 0
2, 108560, Note_on_c, 1, 54, 127
2, 108920, Note_off_c, 1, 54, 0
2, 108960, Note_on_c, 1, 48, 127
2, 109280, Note_off_c, 1, 48, 0
2, 109320, Note_on_c, 1, 48, 127
2, 109360, Note_off_c, 1, 48, 0
2, 109400, Note_on_c, 1, 47, 127
2, 109760, Note_off_c, 1, 47, 0
2, 109800, Note_on_c, 1, 43, 127
2, 110160, Note_off_c, 1, 43, 0
2, 110200, Note_on_c, 1, 41, 127
2, 110560, Note_off_c, 1, 41, 0
2, 110600, Note_on_c, 1, 40, 127
2, 110960, Note_off_c, 1, 40, 0
2, 111000, Note_on_c, 1, 40, 127
2, 111360, Note_off_c, 1, 40, 0
2, 111400, Note_on_c, 1, 40, 127
2, 111640, Note_off_c, 1, 40, 0
2, 111680, Note_on_c, 1, 40, 127
2, 111800, Note_off_c, 1, 40, 0
2, 111840, Note_on_c, 1, 36, 127
2, 112200, Note_off_c, 1, 36, 0
2, 112240, Note_on_c, 1, 45, 127
2, 112600, Note_off_c, 1, 45, 0
2, 112640, Note_on_c, 1, 47, 127
2, 113000, Note_off_c, 1, 47, 0
2, 113040, Note_on_c, 1, 40, 127
2, 113400, Note_off_c, 1, 40, 0
2, 113440, Note_on_c, 1, 45, 127
2, 113800, Note_off_c, 1, 45, 0
2, 113880, Note_on_c, 1, 38, 127
2, 114240, Note_off_c, 1, 38, 0
2, 114280, Note_on_c, 1, 38, 127
2, 114640, Note_off_c, 1, 38, 0
2, 114680, Note_on_c, 1, 35, 127
2, 115040, Note_off_c, 1, 35, 0
2, 115080, Note_on_c, 1, 38, 127
2, 115440, Note_off_c, 1, 38, 0
2, 115480, Note_on_c, 1, 31, 127
2, 115880, Note_off_c, 1, 31, 0
2, 115920, Note_on_c, 1, 31, 127
2, 116280, Note_off_c, 1, 31, 0
2, 116320, Note_on_c, 1, 38, 127
2, 116680, Note_off_c, 1, 38, 0
2, 116720, Note_on_c, 1, 38, 127
2, 117080, Note_off_c, 1, 38, 0
2, 117120, Note_on_c, 1, 38, 127
2, 117480, Note_off_c, 1, 38, 0
2, 117520, Note_on_c, 1, 36, 127
2, 117880, Note_off_c, 1, 36, 0
2, 117920, Note_on_c, 1, 38, 127
2, 118240, Note_off_c, 1, 38, 0
2, 118280, Note_on_c, 1, 38, 127
2, 118320, Note_off_c, 1, 38, 0
2, 118360, Note_on_c, 1, 36, 127
2, 118720, Note_off_c, 1, 36, 0
2, 118760, Note_on_c, 1, 36, 127
2, 120000, Note_off_c, 1, 36, 0
2, 120040, End_track
3, 0, Start_track
3, 0, Title_t, "MIDI"
3, 1536, End_track
0, 0, End_of_file
