0, 0, Header, 1, 3, 192
1, 0, Start_track
1, 0, Time_signature, 4, 2, 24, 8
1, 0, Tempo, 500000
1, 120040, End_track
2, 0, Start_track
2, 0, Text_t, "random instrument: random person i dunno whatev"
2, 0, Title_t, "Track 1"
2, 0, Note_on_c, 1, 58, 127
2, 0, Note_on_c, 1, 66, 127
2, 0, Note_on_c, 1, 78, 127
2, 0, Note_on_c, 1, 82, 127
2, 0, Note_on_c, 1, 90, 127
2, 40, Note_on_c, 1, 46, 127
2, 40, Note_off_c, 1, 66, 0
2, 40, Note_off_c, 1, 78, 0
2, 40, Note_on_c, 1, 86, 127
2, 40, Note_off_c, 1, 90, 0
2, 40, Note_on_c, 1, 94, 127
2, 80, Note_off_c, 1, 46, 0
2, 80, Note_off_c, 1, 58, 0
2, 80, Note_off_c, 1, 82, 0
2, 80, Note_off_c, 1, 86, 0
2, 80, Note_off_c, 1, 94, 0
2, 120, Note_on_c, 1, 47, 127
2, 120, Note_on_c, 1, 58, 127
2, 120, Note_on_c, 1, 62, 127
2, 120, Note_on_c, 1, 66, 127
2, 120, Note_on_c, 1, 70, 127
2, 120, Note_on_c, 1, 74, 127
2, 160, Note_off_c, 1, 47, 0
2, 160, Note_off_c, 1, 62, 0
2, 160, Note_off_c, 1, 70, 0
2, 160, Note_off_c, 1, 74, 0
2, 160, Note_on_c, 1, 78, 127
2, 160, Note_on_c, 1, 82, 127
2, 160, Note_on_c, 1, 90, 127
2, 360, Note_off_c, 1, 58, 0
2, 360, Note_off_c, 1, 66, 0
2, 360, Note_off_c, 1, 78, 0
2, 360, Note_off_c, 1, 82, 0
2, 360, Note_off_c, 1, 90, 0
2, 400, Note_on_c, 1, 51, 127
2, 400, Note_on_c, 1, 59, 127
2, 400, Note_on_c, 1, 71, 127
2, 400, Note_on_c, 1, 75, 127
2, 840, Note_off_c, 1, 51, 0
2, 840, Note_off_c, 1, 59, 0
2, 840, Note_off_c, 1, 71, 0
2, 840, Note_off_c, 1, 75, 0
2, 880, Note_on_c, 1, 49, 127
2, 880, Note_on_c, 1, 55, 127
2, 880, Note_on_c, 1, 57, 127
2, 880, Note_on_c, 1, 61, 127
2, 880, Note_on_c, 1, 64, 127
2, 880, Note_on_c, 1, 69, 127
2, 1200, Note_off_c, 1, 49, 0
2, 1200, Note_off_c, 1, 55, 0
2, 1200, Note_off_c, 1, 57, 0
2, 1200, Note_off_c, 1, 61, 0
2, 1200, Note_off_c, 1, 64, 0
2, 1200, Note_off_c, 1, 69, 0
2, 1240, Note_on_c, 1, 51, 127
2, 1240, Note_on_c, 1, 57, 127
2, 1240, Note_on_c, 1, 63, 127
2, 1240, Note_on_c, 1, 75, 127
2, 1800, Note_off_c, 1, 51, 0
2, 1800, Note_off_c, 1, 57, 0
2, 1800, Note_off_c, 1, 63, 0
2, 1800, Note_off_c, 1, 75, 0
2, 1840, Note_on_c, 1, 63, 127
2, 1840, Note_on_c, 1, 72, 127
2, 1840, Note_on_c, 1, 91, 127
2, 2120, Note_off_c, 1, 63, 0
2, 2120, Note_off_c, 1, 72, 0
2, 2120, Note_off_c, 1, 91, 0
2, 2160, Note_on_c, 1, 63, 127
2, 2160, Note_on_c, 1, 72, 127
2, 2160, Note_on_c, 1, 91, 127
2, 2240, Note_off_c, 1, 63, 0
2, 2240, Note_off_c, 1, 72, 0
2, 2240, Note_off_c, 1, 91, 0
2, 2280, Note_on_c, 1, 63, 127
2, 2280, Note_on_c, 1, 72, 127
2, 2280, Note_on_c, 1, 91, 127
2, 2640, Note_off_c, 1, 63, 0
2, 2640, Note_off_c, 1, 72, 0
2, 2640, Note_off_c, 1, 91, 0
2, 2680, Note_on_c, 1, 38, 127
2, 2680, Note_on_c, 1, 67, 127
2, 2680, Note_on_c, 1, 83, 127
2, 2680, Note_on_c, 1, 86, 127
2, 2680, Note_on_c, 1, 90, 127
2, 2720, Note_off_c, 1, 38, 0
2, 2720, Note_on_c, 1, 52, 127
2, 2720, Note_on_c, 1, 57, 127
2, 2720, Note_on_c, 1, 61, 127
2, 2720, Note_on_c, 1, 64, 127
2, 2720, Note_off_c, 1, 67, 0
2, 2720, Note_on_c, 1, 69, 127
2, 2720, Note_on_c, 1, 73, 127
2, 2720, Note_on_c, 1, 76, 127
2, 2720, Note_on_c, 1, 81, 127
2, 2720, Note_off_c, 1, 83, 0
2, 2720, Note_off_c, 1, 86, 0
2, 2720, Note_off_c, 1, 90, 0
2, 3040, Note_off_c, 1, 52, 0
2, 3040, Note_off_c, 1, 57, 0
2, 3040, Note_off_c, 1, 61, 0
2, 3040, Note_off_c, 1, 64, 0
2, 3040, Note_off_c, 1, 69, 0
2, 3040, Note_off_c, 1, 73, 0
2, 3040, Note_off_c, 1, 76, 0
2, 3040, Note_off_c, 1, 81, 0
2, 3080, Note_on_c, 1, 47, 127
2, 3080, Note_on_c, 1, 57, 127
2, 3080, Note_on_c, 1, 63, 127
2, 3080, Note_on_c, 1, 67, 127
2, 3440, Note_off_c, 1, 47, 0
2, 3440, Note_off_c, 1, 57, 0
2, 3440, Note_off_c, 1, 63, 0
2, 3440, Note_off_c, 1, 67, 0
2, 3480, Note_on_c, 1, 50, 127
2, 3480, Note_on_c, 1, 58, 127
2, 3480, Note_on_c, 1, 68, 127
2, 3480, Note_on_c, 1, 77, 127
2, 4240, Note_off_c, 1, 50, 0
2, 4240, Note_off_c, 1, 58, 0
2, 4240, Note_off_c, 1, 68, 0
2, 4240, Note_off_c, 1, 77, 0
2, 4320, Note_on_c, 1, 51, 127
2, 4320, Note_on_c, 1, 58, 127
2, 4320, Note_on_c, 1, 67, 127
2, 4320, Note_on_c, 1, 75, 127
2, 5040, Note_off_c, 1, 51, 0
2, 5040, Note_off_c, 1, 58, 0
2, 5040, Note_off_c, 1, 67, 0
2, 5040, Note_off_c, 1, 75, 0
2, 5120, Note_on_c, 1, 51, 127
2, 5120, Note_on_c, 1, 58, 127
2, 5120, Note_on_c, 1, 67, 127
2, 5120, Note_on_c, 1, 75, 127
2, 6280, Note_off_c, 1, 51, 0
2, 6280, Note_off_c, 1, 58, 0
2, 6280, Note_off_c, 1, 67, 0
2, 6280, Note_off_c, 1, 75, 0
2, 6360, Note_on_c, 1, 51, 127
2, 6360, Note_on_c, 1, 58, 127
2, 6360, Note_on_c, 1, 67, 127
2, 6360, Note_on_c, 1, 75, 127
2, 7680, Note_off_c, 1, 51, 0
2, 7680, Note_off_c, 1, 58, 0
2, 7680, Note_off_c, 1, 67, 0
2, 7680, Note_off_c, 1, 75, 0
2, 10040, Note_on_c, 1, 42, 127
2, 10040, Note_on_c, 1, 49, 127
2, 10600, Note_off_c, 1, 42, 0
2, 10600, Note_off_c, 1, 49, 0
2, 10640, Note_on_c, 1, 42, 127
2, 10640, Note_on_c, 1, 49, 127
2, 11200, Note_off_c, 1, 42, 0
2, 11200, Note_off_c, 1, 49, 0
2, 11280, Note_on_c, 1, 42, 127
2, 11280, Note_on_c, 1, 49, 127
2, 11840, Note_off_c, 1, 42, 0
2, 11840, Note_off_c, 1, 49, 0
2, 11880, Note_on_c, 1, 42, 127
2, 11880, Note_on_c, 1, 49, 127
2, 12440, Note_off_c, 1, 42, 0
2, 12440, Note_off_c, 1, 49, 0
2, 12480, Note_on_c, 1, 42, 127
2, 12480, Note_on_c, 1, 49, 127
2, 13040, Note_off_c, 1, 42, 0
2, 13040, Note_off_c, 1, 49, 0
2, 13080, Note_on_c, 1, 42, 127
2, 13080, Note_on_c, 1, 49, 127
2, 13480, Note_off_c, 1, 42, 0
2, 13480, Note_off_c, 1, 49, 0
2, 13520, Note_on_c, 1, 42, 127
2, 13520, Note_on_c, 1, 49, 127
2, 13680, Note_off_c, 1, 42, 0
2, 13680, Note_off_c, 1, 49, 0
2, 13720, Note_on_c, 1, 44, 127
2, 13720, Note_on_c, 1, 49, 127
2, 14080, Note_off_c, 1, 44, 0
2, 14080, Note_off_c, 1, 49, 0
2, 14120, Note_on_c, 1, 42, 127
2, 14120, Note_on_c, 1, 50, 127
2, 14480, Note_off_c, 1, 42, 0
2, 14480, Note_off_c, 1, 50, 0
2, 14520, Note_on_c, 1, 49, 127
2, 14520, Note_on_c, 1, 61, 127
2, 15080, Note_off_c, 1, 49, 0
2, 15080, Note_off_c, 1, 61, 0
2, 15120, Note_on_c, 1, 49, 127
2, 15480, Note_off_c, 1, 49, 0
2, 15520, Note_on_c, 1, 54, 127
2, 15720, Note_off_c, 1, 54, 0
2, 15760, Note_on_c, 1, 54, 127
2, 16120, Note_off_c, 1, 54, 0
2, 16160, Note_on_c, 1, 48, 127
2, 16520, Note_off_c, 1, 48, 0
2, 16560, Note_on_c, 1, 44, 127
2, 16920, Note_off_c, 1, 44, 0
2, 16960, Note_on_c, 1, 48, 127
2, 17320, Note_off_c, 1, 48, 0
2, 17360, Note_on_c, 1, 49, 127
2, 17720, Note_off_c, 1, 49, 0
2, 17760, Note_on_c, 1, 49, 127
2, 17960, Note_off_c, 1, 49, 0
2, 18000, Note_on_c, 1, 49, 127
2, 18160, Note_off_c, 1, 49, 0
2, 18200, Note_on_c, 1, 49, 127
2, 18560, Note_off_c, 1, 49, 0
2, 18600, Note_on_c, 1, 44, 127
2, 18960, Note_off_c, 1, 44, 0
2, 19000, Note_on_c, 1, 47, 127
2, 19360, Note_off_c, 1, 47, 0
2, 19400, Note_on_c, 1, 47, 127
2, 19760, Note_off_c, 1, 47, 0
2, 19800, Note_on_c, 1, 54, 127
2, 20160, Note_off_c, 1, 54, 0
2, 20200, Note_on_c, 1, 49, 127
2, 20400, Note_off_c, 1, 49, 0
2, 20440, Note_on_c, 1, 49, 127
2, 20600, Note_off_c, 1, 49, 0
2, 20640, Note_on_c, 1, 47, 127
2, 21000, Note_off_c, 1, 47, 0
2, 21040, Note_on_c, 1, 54, 127
2, 21400, Note_off_c, 1, 54, 0
2, 21440, Note_on_c, 1, 59, 127
2, 21800, Note_off_c, 1, 59, 0
2, 21840, Note_on_c, 1, 57, 127
2, 22200, Note_off_c, 1, 57, 0
2, 22240, Note_on_c, 1, 61, 127
2, 22600, Note_off_c, 1, 61, 0
2, 22680, Note_on_c, 1, 66, 127
2, 23040, Note_off_c, 1, 66, 0
2, 23080, Note_on_c, 1, 68, 127
2, 24240, Note_off_c, 1, 68, 0
2, 24280, Note_on_c, 1, 59, 127
2, 24640, Note_off_c, 1, 59, 0
2, 24680, Note_on_c, 1, 56, 127
2, 25040, Note_off_c, 1, 56, 0
2, 25120, Note_on_c, 1, 54, 127
2, 25480, Note_off_c, 1, 54, 0
2, 25520, Note_on_c, 1, 47, 127
2, 25880, Note_off_c, 1, 47, 0
2, 25920, Note_on_c, 1, 45, 127
2, 26280, Note_off_c, 1, 45, 0
2, 26320, Note_on_c, 1, 54, 127
2, 26680, Note_off_c, 1, 54, 0
2, 26720, Note_on_c, 1, 64, 127
2, 26720, Note_on_c, 1, 75, 127
2, 27480, Note_off_c, 1, 64, 0
2, 27480, Note_off_c, 1, 75, 0
2, 27560, Note_on_c, 1, 64, 127
2, 27560, Note_on_c, 1, 72, 127
2, 28120, Note_off_c, 1, 64, 0
2, 28120, Note_off_c, 1, 72, 0
2, 28160, Note_on_c, 1, 49, 127
2, 28160, Note_on_c, 1, 56, 127
2, 28160, Note_on_c, 1, 64, 127
2, 28160, Note_on_c, 1, 73, 127
2, 28920, Note_off_c, 1, 49, 0
2, 28920, Note_off_c, 1, 56, 0
2, 28920, Note_off_c, 1, 64, 0
2, 28920, Note_off_c, 1, 73, 0
2, 28960, Note_on_c, 1, 56, 127
2, 29720, Note_off_c, 1, 56, 0
2, 29760, Note_on_c, 1, 60, 127
2, 29920, Note_off_c, 1, 60, 0
2, 29960, Note_on_c, 1, 60, 127
2, 30160, Note_off_c, 1, 60, 0
2, 30200, Note_on_c, 1, 56, 127
2, 30560, Note_off_c, 1, 56, 0
2, 30600, Note_on_c, 1, 58, 127
2, 30960, Note_off_c, 1, 58, 0
2, 31000, Note_on_c, 1, 56, 127
2, 31360, Note_off_c, 1, 56, 0
2, 31400, Note_on_c, 1, 51, 127
2, 32160, Note_off_c, 1, 51, 0
2, 32240, Note_on_c, 1, 54, 127
2, 32600, Note_off_c, 1, 54, 0
2, 32640, Note_on_c, 1, 54, 127
2, 33000, Note_off_c, 1, 54, 0
2, 33040, Note_on_c, 1, 44, 127
2, 33400, Note_off_c, 1, 44, 0
2, 33440, Note_on_c, 1, 54, 127
2, 33800, Note_off_c, 1, 54, 0
2, 33840, Note_on_c, 1, 59, 127
2, 34200, Note_off_c, 1, 59, 0
2, 34240, Note_on_c, 1, 56, 127
2, 34560, Note_off_c, 1, 56, 0
2, 34600, Note_on_c, 1, 56, 127
2, 34640, Note_off_c, 1, 56, 0
2, 34680, Note_on_c, 1, 52, 127
2, 35040, Note_off_c, 1, 52, 0
2, 35080, Note_on_c, 1, 51, 127
2, 35440, Note_off_c, 1, 51, 0
2, 35480, Note_on_c, 1, 52, 127
2, 35840, Note_off_c, 1, 52, 0
2, 35880, Note_on_c, 1, 51, 127
2, 36240, Note_off_c, 1, 51, 0
2, 36280, Note_on_c, 1, 52, 127
2, 36280, Note_on_c, 1, 56, 127
2, 36280, Note_on_c, 1, 61, 127
2, 36880, Note_off_c, 1, 52, 0
2, 36880, Note_off_c, 1, 56, 0
2, 36880, Note_off_c, 1, 61, 0
2, 36920, Note_on_c, 1, 52, 127
2, 36920, Note_on_c, 1, 56, 127
2, 36920, Note_on_c, 1, 61, 127
2, 37080, Note_off_c, 1, 52, 0
2, 37080, Note_off_c, 1, 56, 0
2, 37080, Note_off_c, 1, 61, 0
2, 37120, Note_on_c, 1, 37, 127
2, 37480, Note_off_c, 1, 37, 0
2, 37520, Note_on_c, 1, 37, 127
2, 37880, Note_off_c, 1, 37, 0
2, 37920, Note_on_c, 1, 43, 127
2, 37920, Note_on_c, 1, 47, 127
2, 38280, Note_off_c, 1, 43, 0
2, 38280, Note_off_c, 1, 47, 0
2, 38320, Note_on_c, 1, 43, 127
2, 38640, Note_off_c, 1, 43, 0
2, 38720, Note_on_c, 1, 38, 127
2, 38720, Note_on_c, 1, 50, 127
2, 38720, Note_on_c, 1, 53, 127
2, 38720, Note_on_c, 1, 57, 127
2, 38720, Note_on_c, 1, 62, 127
2, 39080, Note_off_c, 1, 38, 0
2, 39080, Note_off_c, 1, 50, 0
2, 39080, Note_off_c, 1, 53, 0
2, 39080, Note_off_c, 1, 57, 0
2, 39080, Note_off_c, 1, 62, 0
2, 39080, Note_on_c, 1, 70, 127
2, 39120, Note_off_c, 1, 70, 0
2, 39160, Note_on_c, 1, 52, 127
2, 39160, Note_on_c, 1, 64, 127
2, 39160, Note_on_c, 1, 67, 127
2, 39160, Note_on_c, 1, 73, 127
2, 39160, Note_on_c, 1, 79, 127
2, 39200, Note_off_c, 1, 52, 0
2, 39200, Note_on_c, 1, 57, 127
2, 39200, Note_on_c, 1, 63, 127
2, 39200, Note_off_c, 1, 64, 0
2, 39200, Note_on_c, 1, 65, 127
2, 39200, Note_off_c, 1, 67, 0
2, 39200, Note_on_c, 1, 69, 127
2, 39200, Note_on_c, 1, 72, 127
2, 39200, Note_off_c, 1, 73, 0
2, 39200, Note_on_c, 1, 77, 127
2, 39200, Note_off_c, 1, 79, 0
2, 39240, Note_off_c, 1, 57, 0
2, 39240, Note_on_c, 1, 60, 127
2, 39240, Note_off_c, 1, 63, 0
2, 39240, Note_off_c, 1, 65, 0
2, 39240, Note_off_c, 1, 69, 0
2, 39240, Note_on_c, 1, 71, 127
2, 39240, Note_off_c, 1, 72, 0
2, 39240, Note_off_c, 1, 77, 0
2, 39240, Note_on_c, 1, 79, 127
2, 39240, Note_on_c, 1, 83, 127
2, 39280, Note_on_c, 1, 47, 127
2, 39280, Note_on_c, 1, 56, 127
2, 39280, Note_on_c, 1, 59, 127
2, 39280, Note_off_c, 1, 60, 0
2, 39280, Note_on_c, 1, 63, 127
2, 39280, Note_on_c, 1, 68, 127
2, 39280, Note_off_c, 1, 71, 0
2, 39280, Note_on_c, 1, 75, 127
2, 39280, Note_off_c, 1, 79, 0
2, 39280, Note_off_c, 1, 83, 0
2, 39320, Note_off_c, 1, 47, 0
2, 39320, Note_on_c, 1, 54, 127
2, 39320, Note_off_c, 1, 56, 0
2, 39320, Note_off_c, 1, 59, 0
2, 39320, Note_off_c, 1, 63, 0
2, 39320, Note_on_c, 1, 64, 127
2, 39320, Note_on_c, 1, 66, 127
2, 39320, Note_off_c, 1, 68, 0
2, 39320, Note_off_c, 1, 75, 0
2, 39320, Note_on_c, 1, 76, 127
2, 39320, Note_on_c, 1, 83, 127
2, 39360, Note_on_c, 1, 36, 127
2, 39360, Note_on_c, 1, 43, 127
2, 39360, Note_on_c, 1, 48, 127
2, 39360, Note_off_c, 1, 54, 0
2, 39360, Note_off_c, 1, 64, 0
2, 39360, Note_off_c, 1, 66, 0
2, 39360, Note_on_c, 1, 75, 127
2, 39360, Note_off_c, 1, 76, 0
2, 39360, Note_on_c, 1, 79, 127
2, 39360, Note_off_c, 1, 83, 0
2, 39360, Note_on_c, 1, 87, 127
2, 39440, Note_off_c, 1, 36, 0
2, 39440, Note_off_c, 1, 43, 0
2, 39440, Note_off_c, 1, 48, 0
2, 39440, Note_on_c, 1, 58, 127
2, 39440, Note_off_c, 1, 79, 0
2, 39440, Note_on_c, 1, 82, 127
2, 39440, Note_on_c, 1, 85, 127
2, 39480, Note_off_c, 1, 58, 0
2, 39480, Note_off_c, 1, 75, 0
2, 39480, Note_off_c, 1, 82, 0
2, 39480, Note_off_c, 1, 85, 0
2, 39480, Note_off_c, 1, 87, 0
2, 39520, Note_on_c, 1, 38, 127
2, 39520, Note_on_c, 1, 50, 127
2, 39520, Note_on_c, 1, 64, 127
2, 39520, Note_on_c, 1, 68, 127
2, 39520, Note_on_c, 1, 71, 127
2, 39880, Note_off_c, 1, 38, 0
2, 39880, Note_off_c, 1, 50, 0
2, 39880, Note_off_c, 1, 64, 0
2, 39880, Note_off_c, 1, 68, 0
2, 39880, Note_off_c, 1, 71, 0
2, 39920, Note_on_c, 1, 38, 127
2, 39920, Note_on_c, 1, 50, 127
2, 39920, Note_on_c, 1, 64, 127
2, 39920, Note_on_c, 1, 68, 127
2, 39920, Note_on_c, 1, 71, 127
2, 40280, Note_off_c, 1, 38, 0
2, 40280, Note_off_c, 1, 50, 0
2, 40280, Note_off_c, 1, 64, 0
2, 40280, Note_off_c, 1, 68, 0
2, 40280, Note_off_c, 1, 71, 0
2, 40320, Note_on_c, 1, 38, 127
2, 40320, Note_on_c, 1, 50, 127
2, 40320, Note_on_c, 1, 64, 127
2, 40320, Note_on_c, 1, 68, 127
2, 40320, Note_on_c, 1, 71, 127
2, 40680, Note_off_c, 1, 38, 0
2, 40680, Note_off_c, 1, 50, 0
2, 40680, Note_off_c, 1, 64, 0
2, 40680, Note_off_c, 1, 68, 0
2, 40680, Note_off_c, 1, 71, 0
2, 40720, Note_on_c, 1, 38, 127
2, 40720, Note_on_c, 1, 50, 127
2, 40720, Note_on_c, 1, 64, 127
2, 40720, Note_on_c, 1, 68, 127
2, 40720, Note_on_c, 1, 71, 127
2, 41080, Note_off_c, 1, 38, 0
2, 41080, Note_off_c, 1, 50, 0
2, 41080, Note_off_c, 1, 64, 0
2, 41080, Note_off_c, 1, 68, 0
2, 41080, Note_off_c, 1, 71, 0
2, 41120, Note_on_c, 1, 38, 127
2, 41120, Note_on_c, 1, 50, 127
2, 41120, Note_on_c, 1, 64, 127
2, 41120, Note_on_c, 1, 68, 127
2, 41120, Note_on_c, 1, 71, 127
2, 41320, Note_off_c, 1, 38, 0
2, 41320, Note_off_c, 1, 50, 0
2, 41320, Note_off_c, 1, 64, 0
2, 41320, Note_off_c, 1, 68, 0
2, 41320, Note_off_c, 1, 71, 0
2, 41360, Note_on_c, 1, 38, 127
2, 41360, Note_on_c, 1, 50, 127
2, 41360, Note_on_c, 1, 64, 127
2, 41360, Note_on_c, 1, 68, 127
2, 41360, Note_on_c, 1, 71, 127
2, 41720, Note_off_c, 1, 38, 0
2, 41720, Note_off_c, 1, 50, 0
2, 41720, Note_off_c, 1, 64, 0
2, 41720, Note_off_c, 1, 68, 0
2, 41720, Note_off_c, 1, 71, 0
2, 41760, Note_on_c, 1, 38, 127
2, 41760, Note_on_c, 1, 50, 127
2, 41760, Note_on_c, 1, 64, 127
2, 41760, Note_on_c, 1, 68, 127
2, 41760, Note_on_c, 1, 71, 127
2, 42120, Note_off_c, 1, 38, 0
2, 42120, Note_off_c, 1, 50, 0
2, 42120, Note_off_c, 1, 64, 0
2, 42120, Note_off_c, 1, 68, 0
2, 42120, Note_off_c, 1, 71, 0
2, 42160, Note_on_c, 1, 38, 127
2, 42160, Note_on_c, 1, 50, 127
2, 42160, Note_on_c, 1, 64, 127
2, 42160, Note_on_c, 1, 68, 127
2, 42160, Note_on_c, 1, 71, 127
2, 42520, Note_off_c, 1, 38, 0
2, 42520, Note_off_c, 1, 50, 0
2, 42520, Note_off_c, 1, 64, 0
2, 42520, Note_off_c, 1, 68, 0
2, 42520, Note_off_c, 1, 71, 0
2, 42560, Note_on_c, 1, 38, 127
2, 42560, Note_on_c, 1, 50, 127
2, 42560, Note_on_c, 1, 64, 127
2, 42560, Note_on_c, 1, 68, 127
2, 42560, Note_on_c, 1, 71, 127
2, 42920, Note_off_c, 1, 38, 0
2, 42920, Note_off_c, 1, 50, 0
2, 42920, Note_off_c, 1, 64, 0
2, 42920, Note_off_c, 1, 68, 0
2, 42920, Note_off_c, 1, 71, 0
2, 42960, Note_on_c, 1, 38, 127
2, 42960, Note_on_c, 1, 50, 127
2, 42960, Note_on_c, 1, 64, 127
2, 42960, Note_on_c, 1, 68, 127
2, 42960, Note_on_c, 1, 71, 127
2, 43320, Note_off_c, 1, 38, 0
2, 43320, Note_off_c, 1, 50, 0
2, 43320, Note_off_c, 1, 64, 0
2, 43320, Note_off_c, 1, 68, 0
2, 43320, Note_off_c, 1, 71, 0
2, 43360, Note_on_c, 1, 38, 127
2, 43360, Note_on_c, 1, 50, 127
2, 43360, Note_on_c, 1, 64, 127
2, 43360, Note_on_c, 1, 68, 127
2, 43360, Note_on_c, 1, 71, 127
2, 43680, Note_off_c, 1, 38, 0
2, 43680, Note_off_c, 1, 50, 0
2, 43680, Note_off_c, 1, 64, 0
2, 43680, Note_off_c, 1, 68, 0
2, 43680, Note_off_c, 1, 71, 0
2, 43720, Note_on_c, 1, 38, 127
2, 43720, Note_on_c, 1, 50, 127
2, 43720, Note_on_c, 1, 64, 127
2, 43720, Note_on_c, 1, 68, 127
2, 43720, Note_on_c, 1, 71, 127
2, 43760, Note_off_c, 1, 38, 0
2, 43760, Note_off_c, 1, 50, 0
2, 43760, Note_off_c, 1, 64, 0
2, 43760, Note_off_c, 1, 68, 0
2, 43760, Note_off_c, 1, 71, 0
2, 43800, Note_on_c, 1, 38, 127
2, 43800, Note_on_c, 1, 50, 127
2, 43800, Note_on_c, 1, 64, 127
2, 43800, Note_on_c, 1, 68, 127
2, 43800, Note_on_c, 1, 71, 127
2, 44160, Note_off_c, 1, 38, 0
2, 44160, Note_off_c, 1, 50, 0
2, 44160, Note_off_c, 1, 64, 0
2, 44160, Note_off_c, 1, 68, 0
2, 44160, Note_off_c, 1, 71, 0
2, 44200, Note_on_c, 1, 38, 127
2, 44200, Note_on_c, 1, 50, 127
2, 44200, Note_on_c, 1, 64, 127
2, 44200, Note_on_c, 1, 68, 127
2, 44200, Note_on_c, 1, 71, 127
2, 44560, Note_off_c, 1, 38, 0
2, 44560, Note_off_c, 1, 50, 0
2, 44560, Note_off_c, 1, 64, 0
2, 44560, Note_off_c, 1, 68, 0
2, 44560, Note_off_c, 1, 71, 0
2, 44600, Note_on_c, 1, 38, 127
2, 44600, Note_on_c, 1, 50, 127
2, 44600, Note_on_c, 1, 64, 127
2, 44600, Note_on_c, 1, 68, 127
2, 44600, Note_on_c, 1, 71, 127
2, 44960, Note_off_c, 1, 38, 0
2, 44960, Note_off_c, 1, 50, 0
2, 44960, Note_off_c, 1, 64, 0
2, 44960, Note_off_c, 1, 68, 0
2, 44960, Note_off_c, 1, 71, 0
2, 45000, Note_on_c, 1, 38, 127
2, 45000, Note_on_c, 1, 50, 127
2, 45000, Note_on_c, 1, 64, 127
2, 45000, Note_on_c, 1, 68, 127
2, 45000, Note_on_c, 1, 71, 127
2, 45360, Note_off_c, 1, 38, 0
2, 45360, Note_off_c, 1, 50, 0
2, 45360, Note_off_c, 1, 64, 0
2, 45360, Note_off_c, 1, 68, 0
2, 45360, Note_off_c, 1, 71, 0
2, 45400, Note_on_c, 1, 38, 127
2, 45400, Note_on_c, 1, 50, 127
2, 45400, Note_on_c, 1, 64, 127
2, 45400, Note_on_c, 1, 68, 127
2, 45400, Note_on_c, 1, 71, 127
2, 45760, Note_off_c, 1, 38, 0
2, 45760, Note_off_c, 1, 50, 0
2, 45760, Note_off_c, 1, 64, 0
2, 45760, Note_off_c, 1, 68, 0
2, 45760, Note_off_c, 1, 71, 0
2, 45840, Note_on_c, 1, 38, 127
2, 45840, Note_on_c, 1, 50, 127
2, 45840, Note_on_c, 1, 64, 127
2, 45840, Note_on_c, 1, 68, 127
2, 45840, Note_on_c, 1, 71, 127
2, 46200, Note_off_c, 1, 38, 0
2, 46200, Note_off_c, 1, 50, 0
2, 46200, Note_off_c, 1, 64, 0
2, 46200, Note_off_c, 1, 68, 0
2, 46200, Note_off_c, 1, 71, 0
2, 46240, Note_on_c, 1, 38, 127
2, 46240, Note_on_c, 1, 50, 127
2, 46240, Note_on_c, 1, 64, 127
2, 46240, Note_on_c, 1, 68, 127
2, 46240, Note_on_c, 1, 71, 127
2, 46600, Note_off_c, 1, 38, 0
2, 46600, Note_off_c, 1, 50, 0
2, 46600, Note_off_c, 1, 64, 0
2, 46600, Note_off_c, 1, 68, 0
2, 46600, Note_off_c, 1, 71, 0
2, 46640, Note_on_c, 1, 38, 127
2, 46640, Note_on_c, 1, 50, 127
2, 46640, Note_on_c, 1, 64, 127
2, 46640, Note_on_c, 1, 68, 127
2, 46640, Note_on_c, 1, 71, 127
2, 47000, Note_off_c, 1, 38, 0
2, 47000, Note_off_c, 1, 50, 0
2, 47000, Note_off_c, 1, 64, 0
2, 47000, Note_off_c, 1, 68, 0
2, 47000, Note_off_c, 1, 71, 0
2, 47040, Note_on_c, 1, 38, 127
2, 47040, Note_on_c, 1, 50, 127
2, 47040, Note_on_c, 1, 64, 127
2, 47040, Note_on_c, 1, 68, 127
2, 47040, Note_on_c, 1, 71, 127
2, 47400, Note_off_c, 1, 38, 0
2, 47400, Note_off_c, 1, 50, 0
2, 47400, Note_off_c, 1, 64, 0
2, 47400, Note_off_c, 1, 68, 0
2, 47400, Note_off_c, 1, 71, 0
2, 47440, Note_on_c, 1, 38, 127
2, 47440, Note_on_c, 1, 50, 127
2, 47440, Note_on_c, 1, 64, 127
2, 47440, Note_on_c, 1, 68, 127
2, 47440, Note_on_c, 1, 71, 127
2, 47800, Note_off_c, 1, 38, 0
2, 47800, Note_off_c, 1, 50, 0
2, 47800, Note_off_c, 1, 64, 0
2, 47800, Note_off_c, 1, 68, 0
2, 47800, Note_off_c, 1, 71, 0
2, 47840, Note_on_c, 1, 38, 127
2, 47840, Note_on_c, 1, 50, 127
2, 47840, Note_on_c, 1, 64, 127
2, 47840, Note_on_c, 1, 68, 127
2, 47840, Note_on_c, 1, 71, 127
2, 48200, Note_off_c, 1, 38, 0
2, 48200, Note_off_c, 1, 50, 0
2, 48200, Note_off_c, 1, 64, 0
2, 48200, Note_off_c, 1, 68, 0
2, 48200, Note_off_c, 1, 71, 0
2, 48280, Note_on_c, 1, 42, 127
2, 48280, Note_on_c, 1, 54, 127
2, 48280, Note_on_c, 1, 73, 127
2, 48280, Note_on_c, 1, 80, 127
2, 48640, Note_off_c, 1, 42, 0
2, 48640, Note_off_c, 1, 54, 0
2, 48640, Note_off_c, 1, 73, 0
2, 48640, Note_off_c, 1, 80, 0
2, 48680, Note_on_c, 1, 45, 127
2, 48680, Note_on_c, 1, 57, 127
2, 48680, Note_on_c, 1, 65, 127
2, 48680, Note_on_c, 1, 72, 127
2, 48680, Note_on_c, 1, 77, 127
2, 49000, Note_off_c, 1, 45, 0
2, 49000, Note_off_c, 1, 57, 0
2, 49000, Note_off_c, 1, 65, 0
2, 49000, Note_off_c, 1, 72, 0
2, 49000, Note_off_c, 1, 77, 0
2, 49080, Note_on_c, 1, 43, 127
2, 49080, Note_on_c, 1, 52, 127
2, 49080, Note_on_c, 1, 59, 127
2, 49080, Note_on_c, 1, 64, 127
2, 49080, Note_on_c, 1, 71, 127
2, 49440, Note_off_c, 1, 43, 0
2, 49440, Note_off_c, 1, 52, 0
2, 49440, Note_off_c, 1, 59, 0
2, 49440, Note_off_c, 1, 64, 0
2, 49440, Note_off_c, 1, 71, 0
2, 49480, Note_on_c, 1, 33, 127
2, 49480, Note_on_c, 1, 40, 127
2, 49480, Note_on_c, 1, 43, 127
2, 49480, Note_on_c, 1, 45, 127
2, 49480, Note_on_c, 1, 49, 127
2, 49480, Note_on_c, 1, 57, 127
2, 49480, Note_on_c, 1, 61, 127
2, 49840, Note_off_c, 1, 33, 0
2, 49840, Note_off_c, 1, 40, 0
2, 49840, Note_off_c, 1, 43, 0
2, 49840, Note_off_c, 1, 45, 0
2, 49840, Note_off_c, 1, 49, 0
2, 49840, Note_off_c, 1, 57, 0
2, 49840, Note_off_c, 1, 61, 0
2, 49880, Note_on_c, 1, 45, 127
2, 49880, Note_on_c, 1, 50, 127
2, 49880, Note_on_c, 1, 54, 127
2, 49880, Note_on_c, 1, 69, 127
2, 50200, Note_off_c, 1, 45, 0
2, 50200, Note_off_c, 1, 50, 0
2, 50200, Note_off_c, 1, 54, 0
2, 50240, Note_off_c, 1, 69, 0
2, 50320, Note_on_c, 1, 36, 127
2, 50320, Note_on_c, 1, 48, 127
2, 50320, Note_on_c, 1, 62, 127
2, 50320, Note_on_c, 1, 66, 127
2, 50320, Note_on_c, 1, 69, 127
2, 50320, Note_on_c, 1, 74, 127
2, 51080, Note_off_c, 1, 36, 0
2, 51080, Note_off_c, 1, 48, 0
2, 51080, Note_off_c, 1, 62, 0
2, 51080, Note_off_c, 1, 66, 0
2, 51080, Note_off_c, 1, 69, 0
2, 51080, Note_off_c, 1, 74, 0
2, 51120, Note_on_c, 1, 31, 127
2, 51120, Note_on_c, 1, 38, 127
2, 51120, Note_on_c, 1, 62, 127
2, 51120, Note_on_c, 1, 70, 127
2, 51160, Note_off_c, 1, 31, 0
2, 51160, Note_off_c, 1, 38, 0
2, 51160, Note_on_c, 1, 46, 127
2, 51160, Note_on_c, 1, 60, 127
2, 51160, Note_on_c, 1, 61, 127
2, 51160, Note_off_c, 1, 62, 0
2, 51160, Note_off_c, 1, 70, 0
2, 51160, Note_on_c, 1, 73, 127
2, 51200, Note_on_c, 1, 31, 127
2, 51200, Note_on_c, 1, 38, 127
2, 51200, Note_off_c, 1, 46, 0
2, 51200, Note_off_c, 1, 60, 0
2, 51200, Note_off_c, 1, 61, 0
2, 51200, Note_on_c, 1, 62, 127
2, 51200, Note_on_c, 1, 70, 127
2, 51200, Note_off_c, 1, 73, 0
2, 51240, Note_off_c, 1, 70, 0
2, 51280, Note_on_c, 1, 60, 127
2, 51280, Note_off_c, 1, 62, 0
2, 51320, Note_off_c, 1, 60, 0
2, 51320, Note_on_c, 1, 62, 127
2, 51320, Note_on_c, 1, 70, 127
2, 51360, Note_on_c, 1, 60, 127
2, 51360, Note_off_c, 1, 62, 0
2, 51360, Note_off_c, 1, 70, 0
2, 51400, Note_off_c, 1, 60, 0
2, 51840, Note_off_c, 1, 31, 0
2, 51840, Note_off_c, 1, 38, 0
2, 51880, Note_on_c, 1, 48, 127
2, 51880, Note_on_c, 1, 52, 127
2, 51880, Note_on_c, 1, 57, 127
2, 51880, Note_on_c, 1, 60, 127
2, 52240, Note_off_c, 1, 48, 0
2, 52240, Note_off_c, 1, 52, 0
2, 52240, Note_off_c, 1, 57, 0
2, 52240, Note_off_c, 1, 60, 0
2, 52280, Note_on_c, 1, 48, 127
2, 52280, Note_on_c, 1, 51, 127
2, 52280, Note_on_c, 1, 89, 127
2, 52320, Note_off_c, 1, 48, 0
2, 52320, Note_off_c, 1, 51, 0
2, 52320, Note_on_c, 1, 61, 127
2, 52320, Note_on_c, 1, 63, 127
2, 52320, Note_off_c, 1, 89, 0
2, 52320, Note_on_c, 1, 91, 127
2, 52360, Note_off_c, 1, 61, 0
2, 52360, Note_off_c, 1, 63, 0
2, 52360, Note_off_c, 1, 91, 0
2, 52400, Note_on_c, 1, 56, 127
2, 52400, Note_on_c, 1, 75, 127
2, 52400, Note_on_c, 1, 82, 127
2, 52400, Note_on_c, 1, 85, 127
2, 52440, Note_off_c, 1, 56, 0
2, 52440, Note_on_c, 1, 61, 127
2, 52440, Note_on_c, 1, 63, 127
2, 52440, Note_off_c, 1, 75, 0
2, 52440, Note_off_c, 1, 82, 0
2, 52440, Note_off_c, 1, 85, 0
2, 52440, Note_on_c, 1, 91, 127
2, 52680, Note_off_c, 1, 61, 0
2, 52680, Note_off_c, 1, 63, 0
2, 52680, Note_off_c, 1, 91, 0
2, 52720, Note_on_c, 1, 41, 127
2, 52720, Note_on_c, 1, 82, 127
2, 52720, Note_on_c, 1, 89, 127
2, 52720, Note_on_c, 1, 94, 127
2, 53480, Note_off_c, 1, 41, 0
2, 53480, Note_off_c, 1, 82, 0
2, 53480, Note_off_c, 1, 89, 0
2, 53480, Note_off_c, 1, 94, 0
2, 53520, Note_on_c, 1, 46, 127
2, 53520, Note_on_c, 1, 58, 127
2, 53520, Note_on_c, 1, 60, 127
2, 53520, Note_on_c, 1, 67, 127
2, 53520, Note_on_c, 1, 72, 127
2, 53880, Note_off_c, 1, 46, 0
2, 53880, Note_off_c, 1, 58, 0
2, 53880, Note_off_c, 1, 60, 0
2, 53880, Note_off_c, 1, 67, 0
2, 53880, Note_off_c, 1, 72, 0
2, 53920, Note_on_c, 1, 46, 127
2, 53920, Note_on_c, 1, 58, 127
2, 53920, Note_on_c, 1, 60, 127
2, 53920, Note_on_c, 1, 67, 127
2, 53920, Note_on_c, 1, 72, 127
2, 54280, Note_off_c, 1, 46, 0
2, 54280, Note_off_c, 1, 58, 0
2, 54280, Note_off_c, 1, 60, 0
2, 54280, Note_off_c, 1, 72, 0
2, 54320, Note_on_c, 1, 46, 127
2, 54320, Note_on_c, 1, 58, 127
2, 54320, Note_on_c, 1, 60, 127
2, 54320, Note_on_c, 1, 72, 127
2, 54520, Note_off_c, 1, 46, 0
2, 54520, Note_off_c, 1, 58, 0
2, 54520, Note_off_c, 1, 60, 0
2, 54520, Note_off_c, 1, 67, 0
2, 54520, Note_off_c, 1, 72, 0
2, 54560, Note_on_c, 1, 46, 127
2, 54560, Note_on_c, 1, 58, 127
2, 54560, Note_on_c, 1, 60, 127
2, 54560, Note_on_c, 1, 67, 127
2, 54560, Note_on_c, 1, 72, 127
2, 54720, Note_off_c, 1, 46, 0
2, 54720, Note_off_c, 1, 58, 0
2, 54720, Note_off_c, 1, 60, 0
2, 54720, Note_off_c, 1, 72, 0
2, 54760, Note_on_c, 1, 46, 127
2, 54760, Note_on_c, 1, 58, 127
2, 54760, Note_on_c, 1, 60, 127
2, 54760, Note_on_c, 1, 72, 127
2, 55120, Note_off_c, 1, 46, 0
2, 55120, Note_off_c, 1, 58, 0
2, 55120, Note_off_c, 1, 60, 0
2, 55120, Note_off_c, 1, 67, 0
2, 55120, Note_off_c, 1, 72, 0
2, 55160, Note_on_c, 1, 50, 127
2, 55160, Note_on_c, 1, 56, 127
2, 55160, Note_on_c, 1, 58, 127
2, 55160, Note_on_c, 1, 82, 127
2, 55160, Note_on_c, 1, 94, 127
2, 55200, Note_on_c, 1, 45, 127
2, 55200, Note_off_c, 1, 56, 0
2, 55200, Note_on_c, 1, 57, 127
2, 55200, Note_off_c, 1, 58, 0
2, 55200, Note_on_c, 1, 78, 127
2, 55200, Note_off_c, 1, 82, 0
2, 55200, Note_on_c, 1, 84, 127
2, 55200, Note_off_c, 1, 94, 0
2, 55240, Note_off_c, 1, 45, 0
2, 55240, Note_off_c, 1, 50, 0
2, 55240, Note_off_c, 1, 57, 0
2, 55240, Note_on_c, 1, 59, 127
2, 55240, Note_off_c, 1, 78, 0
2, 55240, Note_on_c, 1, 81, 127
2, 55240, Note_off_c, 1, 84, 0
2, 55240, Note_on_c, 1, 90, 127
2, 55240, Note_on_c, 1, 93, 127
2, 55280, Note_on_c, 1, 36, 127
2, 55280, Note_on_c, 1, 49, 127
2, 55280, Note_on_c, 1, 55, 127
2, 55280, Note_on_c, 1, 58, 127
2, 55280, Note_off_c, 1, 59, 0
2, 55280, Note_on_c, 1, 65, 127
2, 55280, Note_off_c, 1, 81, 0
2, 55280, Note_off_c, 1, 90, 0
2, 55280, Note_off_c, 1, 93, 0
2, 55320, Note_off_c, 1, 36, 0
2, 55320, Note_off_c, 1, 49, 0
2, 55320, Note_off_c, 1, 55, 0
2, 55320, Note_off_c, 1, 58, 0
2, 55320, Note_on_c, 1, 60, 127
2, 55320, Note_off_c, 1, 65, 0
2, 55320, Note_on_c, 1, 66, 127
2, 55320, Note_on_c, 1, 68, 127
2, 55320, Note_on_c, 1, 92, 127
2, 55320, Note_on_c, 1, 104, 127
2, 55360, Note_off_c, 1, 60, 0
2, 55360, Note_on_c, 1, 65, 127
2, 55360, Note_off_c, 1, 66, 0
2, 55360, Note_off_c, 1, 68, 0
2, 55360, Note_on_c, 1, 69, 127
2, 55360, Note_on_c, 1, 72, 127
2, 55360, Note_on_c, 1, 75, 127
2, 55360, Note_on_c, 1, 81, 127
2, 55360, Note_on_c, 1, 84, 127
2, 55360, Note_on_c, 1, 89, 127
2, 55360, Note_off_c, 1, 92, 0
2, 55360, Note_off_c, 1, 104, 0
2, 55520, Note_off_c, 1, 65, 0
2, 55520, Note_off_c, 1, 69, 0
2, 55520, Note_off_c, 1, 72, 0
2, 55520, Note_off_c, 1, 75, 0
2, 55520, Note_off_c, 1, 81, 0
2, 55520, Note_off_c, 1, 84, 0
2, 55520, Note_off_c, 1, 89, 0
2, 55560, Note_on_c, 1, 62, 127
2, 55560, Note_on_c, 1, 65, 127
2, 55560, Note_on_c, 1, 82, 127
2, 55560, Note_on_c, 1, 86, 127
2, 55560, Note_on_c, 1, 94, 127
2, 55600, Note_off_c, 1, 62, 0
2, 55600, Note_on_c, 1, 64, 127
2, 55600, Note_off_c, 1, 65, 0
2, 55600, Note_off_c, 1, 82, 0
2, 55600, Note_on_c, 1, 83, 127
2, 55600, Note_off_c, 1, 86, 0
2, 55600, Note_on_c, 1, 88, 127
2, 55600, Note_on_c, 1, 92, 127
2, 55600, Note_off_c, 1, 94, 0
2, 55600, Note_on_c, 1, 95, 127
2, 55640, Note_on_c, 1, 62, 127
2, 55640, Note_off_c, 1, 64, 0
2, 55640, Note_on_c, 1, 65, 127
2, 55640, Note_on_c, 1, 82, 127
2, 55640, Note_off_c, 1, 83, 0
2, 55640, Note_on_c, 1, 86, 127
2, 55640, Note_off_c, 1, 88, 0
2, 55640, Note_off_c, 1, 92, 0
2, 55640, Note_on_c, 1, 94, 127
2, 55640, Note_off_c, 1, 95, 0
2, 55800, Note_off_c, 1, 62, 0
2, 55800, Note_off_c, 1, 65, 0
2, 55800, Note_on_c, 1, 66, 127
2, 55800, Note_on_c, 1, 70, 127
2, 55800, Note_off_c, 1, 86, 0
2, 55800, Note_on_c, 1, 93, 127
2, 55800, Note_off_c, 1, 94, 0
2, 55840, Note_on_c, 1, 62, 127
2, 55840, Note_on_c, 1, 65, 127
2, 55840, Note_off_c, 1, 66, 0
2, 55840, Note_off_c, 1, 70, 0
2, 55840, Note_on_c, 1, 86, 127
2, 55840, Note_off_c, 1, 93, 0
2, 55840, Note_on_c, 1, 94, 127
2, 55880, Note_on_c, 1, 51, 127
2, 55880, Note_off_c, 1, 62, 0
2, 55880, Note_on_c, 1, 68, 127
2, 55880, Note_on_c, 1, 73, 127
2, 55880, Note_on_c, 1, 77, 127
2, 55880, Note_off_c, 1, 82, 0
2, 55880, Note_off_c, 1, 86, 0
2, 55880, Note_off_c, 1, 94, 0
2, 55920, Note_off_c, 1, 51, 0
2, 55920, Note_off_c, 1, 65, 0
2, 55920, Note_off_c, 1, 68, 0
2, 55920, Note_off_c, 1, 73, 0
2, 55920, Note_off_c, 1, 77, 0
2, 55960, Note_on_c, 1, 61, 127
2, 55960, Note_on_c, 1, 63, 127
2, 55960, Note_on_c, 1, 73, 127
2, 55960, Note_on_c, 1, 78, 127
2, 55960, Note_on_c, 1, 82, 127
2, 55960, Note_on_c, 1, 87, 127
2, 55960, Note_on_c, 1, 90, 127
2, 56120, Note_off_c, 1, 61, 0
2, 56120, Note_off_c, 1, 63, 0
2, 56120, Note_off_c, 1, 73, 0
2, 56120, Note_off_c, 1, 78, 0
2, 56120, Note_on_c, 1, 79, 127
2, 56120, Note_off_c, 1, 82, 0
2, 56120, Note_on_c, 1, 84, 127
2, 56120, Note_off_c, 1, 90, 0
2, 56120, Note_on_c, 1, 91, 127
2, 56160, Note_on_c, 1, 32, 127
2, 56160, Note_off_c, 1, 79, 0
2, 56160, Note_off_c, 1, 84, 0
2, 56160, Note_on_c, 1, 86, 127
2, 56160, Note_off_c, 1, 87, 0
2, 56160, Note_on_c, 1, 89, 127
2, 56200, Note_off_c, 1, 32, 0
2, 56200, Note_on_c, 1, 52, 127
2, 56200, Note_on_c, 1, 59, 127
2, 56200, Note_on_c, 1, 62, 127
2, 56200, Note_on_c, 1, 65, 127
2, 56200, Note_on_c, 1, 72, 127
2, 56200, Note_off_c, 1, 86, 0
2, 56200, Note_off_c, 1, 89, 0
2, 56200, Note_off_c, 1, 91, 0
2, 56240, Note_on_c, 1, 48, 127
2, 56240, Note_on_c, 1, 57, 127
2, 56240, Note_off_c, 1, 59, 0
2, 56240, Note_off_c, 1, 62, 0
2, 56240, Note_off_c, 1, 65, 0
2, 56240, Note_off_c, 1, 72, 0
2, 56240, Note_on_c, 1, 76, 127
2, 56280, Note_off_c, 1, 48, 0
2, 56280, Note_off_c, 1, 52, 0
2, 56280, Note_off_c, 1, 57, 0
2, 56320, Note_off_c, 1, 76, 0
2, 56360, Note_on_c, 1, 58, 127
2, 56360, Note_on_c, 1, 71, 127
2, 56360, Note_on_c, 1, 78, 127
2, 56360, Note_on_c, 1, 81, 127
2, 56360, Note_on_c, 1, 83, 127
2, 56760, Note_off_c, 1, 58, 0
2, 56760, Note_off_c, 1, 71, 0
2, 56760, Note_off_c, 1, 78, 0
2, 56760, Note_off_c, 1, 81, 0
2, 56760, Note_off_c, 1, 83, 0
2, 56800, Note_on_c, 1, 58, 127
2, 56800, Note_on_c, 1, 71, 127
2, 56800, Note_on_c, 1, 78, 127
2, 56800, Note_on_c, 1, 81, 127
2, 56800, Note_on_c, 1, 83, 127
2, 57160, Note_off_c, 1, 58, 0
2, 57160, Note_off_c, 1, 71, 0
2, 57160, Note_off_c, 1, 78, 0
2, 57160, Note_off_c, 1, 81, 0
2, 57160, Note_off_c, 1, 83, 0
2, 57200, Note_on_c, 1, 43, 127
2, 57200, Note_on_c, 1, 55, 127
2, 57200, Note_on_c, 1, 71, 127
2, 57200, Note_on_c, 1, 74, 127
2, 57200, Note_on_c, 1, 77, 127
2, 57200, Note_on_c, 1, 79, 127
2, 57200, Note_on_c, 1, 83, 127
2, 57520, Note_off_c, 1, 43, 0
2, 57520, Note_off_c, 1, 55, 0
2, 57520, Note_off_c, 1, 71, 0
2, 57520, Note_off_c, 1, 74, 0
2, 57520, Note_off_c, 1, 77, 0
2, 57520, Note_off_c, 1, 79, 0
2, 57520, Note_off_c, 1, 83, 0
2, 57600, Note_on_c, 1, 52, 127
2, 57600, Note_on_c, 1, 61, 127
2, 57600, Note_on_c, 1, 64, 127
2, 57600, Note_on_c, 1, 66, 127
2, 57600, Note_on_c, 1, 69, 127
2, 57920, Note_off_c, 1, 52, 0
2, 57920, Note_off_c, 1, 61, 0
2, 57920, Note_off_c, 1, 64, 0
2, 57920, Note_off_c, 1, 66, 0
2, 57920, Note_off_c, 1, 69, 0
2, 57960, Note_on_c, 1, 52, 127
2, 57960, Note_on_c, 1, 61, 127
2, 57960, Note_on_c, 1, 64, 127
2, 57960, Note_on_c, 1, 66, 127
2, 57960, Note_on_c, 1, 69, 127
2, 58320, Note_off_c, 1, 52, 0
2, 58320, Note_off_c, 1, 61, 0
2, 58320, Note_off_c, 1, 64, 0
2, 58320, Note_off_c, 1, 66, 0
2, 58320, Note_off_c, 1, 69, 0
2, 58360, Note_on_c, 1, 52, 127
2, 58360, Note_on_c, 1, 61, 127
2, 58360, Note_on_c, 1, 64, 127
2, 58360, Note_on_c, 1, 66, 127
2, 58360, Note_on_c, 1, 69, 127
2, 58680, Note_off_c, 1, 52, 0
2, 58680, Note_off_c, 1, 61, 0
2, 58680, Note_off_c, 1, 64, 0
2, 58680, Note_off_c, 1, 66, 0
2, 58680, Note_off_c, 1, 69, 0
2, 58760, Note_on_c, 1, 42, 127
2, 58760, Note_on_c, 1, 60, 127
2, 58760, Note_on_c, 1, 63, 127
2, 58760, Note_on_c, 1, 68, 127
2, 58960, Note_off_c, 1, 42, 0
2, 58960, Note_off_c, 1, 60, 0
2, 58960, Note_off_c, 1, 63, 0
2, 58960, Note_off_c, 1, 68, 0
2, 59000, Note_on_c, 1, 42, 127
2, 59000, Note_on_c, 1, 60, 127
2, 59000, Note_on_c, 1, 63, 127
2, 59000, Note_on_c, 1, 68, 127
2, 59120, Note_off_c, 1, 42, 0
2, 59120, Note_off_c, 1, 60, 0
2, 59120, Note_off_c, 1, 63, 0
2, 59120, Note_off_c, 1, 68, 0
2, 59160, Note_on_c, 1, 42, 127
2, 59160, Note_on_c, 1, 60, 127
2, 59160, Note_on_c, 1, 63, 127
2, 59160, Note_on_c, 1, 68, 127
2, 59520, Note_off_c, 1, 42, 0
2, 59520, Note_off_c, 1, 60, 0
2, 59520, Note_off_c, 1, 63, 0
2, 59520, Note_off_c, 1, 68, 0
2, 59560, Note_on_c, 1, 42, 127
2, 59560, Note_on_c, 1, 60, 127
2, 59560, Note_on_c, 1, 63, 127
2, 59560, Note_on_c, 1, 68, 127
2, 59880, Note_off_c, 1, 42, 0
2, 59880, Note_off_c, 1, 60, 0
2, 59880, Note_off_c, 1, 63, 0
2, 59880, Note_off_c, 1, 68, 0
2, 59920, Note_on_c, 1, 42, 127
2, 59920, Note_on_c, 1, 60, 127
2, 59920, Note_on_c, 1, 63, 127
2, 59920, Note_on_c, 1, 68, 127
2, 60240, Note_off_c, 1, 42, 0
2, 60240, Note_off_c, 1, 60, 0
2, 60240, Note_off_c, 1, 63, 0
2, 60240, Note_off_c, 1, 68, 0
2, 60280, Note_on_c, 1, 42, 127
2, 60280, Note_on_c, 1, 60, 127
2, 60280, Note_on_c, 1, 63, 127
2, 60280, Note_on_c, 1, 68, 127
2, 60640, Note_off_c, 1, 42, 0
2, 60640, Note_off_c, 1, 60, 0
2, 60640, Note_off_c, 1, 63, 0
2, 60640, Note_off_c, 1, 68, 0
2, 60680, Note_on_c, 1, 42, 127
2, 60680, Note_on_c, 1, 60, 127
2, 60680, Note_on_c, 1, 63, 127
2, 60680, Note_on_c, 1, 68, 127
2, 61000, Note_on_c, 1, 39, 127
2, 61000, Note_off_c, 1, 42, 0
2, 61000, Note_off_c, 1, 60, 0
2, 61000, Note_off_c, 1, 63, 0
2, 61000, Note_off_c, 1, 68, 0
2, 61040, Note_off_c, 1, 39, 0
2, 61120, Note_on_c, 1, 61, 127
2, 61120, Note_on_c, 1, 64, 127
2, 61120, Note_on_c, 1, 67, 127
2, 61120, Note_on_c, 1, 81, 127
2, 61480, Note_off_c, 1, 61, 0
2, 61480, Note_off_c, 1, 64, 0
2, 61480, Note_off_c, 1, 67, 0
2, 61480, Note_off_c, 1, 81, 0
2, 61520, Note_on_c, 1, 41, 127
2, 61520, Note_on_c, 1, 53, 127
2, 61520, Note_on_c, 1, 65, 127
2, 61520, Note_on_c, 1, 68, 127
2, 61520, Note_on_c, 1, 73, 127
2, 61520, Note_on_c, 1, 77, 127
2, 61840, Note_off_c, 1, 41, 0
2, 61840, Note_off_c, 1, 53, 0
2, 61840, Note_off_c, 1, 65, 0
2, 61840, Note_off_c, 1, 68, 0
2, 61840, Note_off_c, 1, 73, 0
2, 61840, Note_off_c, 1, 77, 0
2, 61880, Note_on_c, 1, 68, 127
2, 61880, Note_on_c, 1, 89, 127
2, 61880, Note_on_c, 1, 97, 127
2, 61920, Note_off_c, 1, 68, 0
2, 61920, Note_on_c, 1, 80, 127
2, 61920, Note_on_c, 1, 83, 127
2, 61920, Note_on_c, 1, 86, 127
2, 61920, Note_on_c, 1, 92, 127
2, 61920, Note_on_c, 1, 95, 127
2, 61920, Note_off_c, 1, 97, 0
2, 61920, Note_on_c, 1, 98, 127
2, 61920, Note_on_c, 1, 101, 127
2, 61920, Note_on_c, 1, 107, 127
2, 62240, Note_off_c, 1, 80, 0
2, 62240, Note_off_c, 1, 83, 0
2, 62240, Note_off_c, 1, 86, 0
2, 62240, Note_off_c, 1, 89, 0
2, 62240, Note_off_c, 1, 92, 0
2, 62240, Note_off_c, 1, 95, 0
2, 62240, Note_off_c, 1, 98, 0
2, 62240, Note_off_c, 1, 101, 0
2, 62240, Note_off_c, 1, 107, 0
2, 62280, Note_on_c, 1, 44, 127
2, 62280, Note_on_c, 1, 53, 127
2, 62280, Note_on_c, 1, 56, 127
2, 62280, Note_on_c, 1, 65, 127
2, 62280, Note_on_c, 1, 68, 127
2, 62280, Note_on_c, 1, 71, 127
2, 62280, Note_on_c, 1, 74, 127
2, 62400, Note_off_c, 1, 56, 0
2, 62640, Note_off_c, 1, 44, 0
2, 62640, Note_off_c, 1, 53, 0
2, 62640, Note_off_c, 1, 65, 0
2, 62640, Note_off_c, 1, 68, 0
2, 62640, Note_off_c, 1, 71, 0
2, 62640, Note_off_c, 1, 74, 0
2, 62680, Note_on_c, 1, 44, 127
2, 62680, Note_on_c, 1, 53, 127
2, 62680, Note_on_c, 1, 65, 127
2, 62680, Note_on_c, 1, 68, 127
2, 62680, Note_on_c, 1, 71, 127
2, 62680, Note_on_c, 1, 74, 127
2, 63040, Note_off_c, 1, 44, 0
2, 63040, Note_off_c, 1, 53, 0
2, 63040, Note_off_c, 1, 65, 0
2, 63040, Note_off_c, 1, 68, 0
2, 63040, Note_off_c, 1, 71, 0
2, 63040, Note_off_c, 1, 74, 0
2, 63120, Note_on_c, 1, 36, 127
2, 63120, Note_on_c, 1, 39, 127
2, 63480, Note_off_c, 1, 36, 0
2, 63480, Note_off_c, 1, 39, 0
2, 63520, Note_on_c, 1, 36, 127
2, 63520, Note_on_c, 1, 39, 127
2, 63880, Note_off_c, 1, 36, 0
2, 63880, Note_off_c, 1, 39, 0
2, 63920, Note_on_c, 1, 36, 127
2, 63920, Note_on_c, 1, 39, 127
2, 64280, Note_off_c, 1, 36, 0
2, 64280, Note_off_c, 1, 39, 0
2, 64320, Note_on_c, 1, 36, 127
2, 64320, Note_on_c, 1, 39, 127
2, 64680, Note_off_c, 1, 36, 0
2, 64680, Note_off_c, 1, 39, 0
2, 64720, Note_on_c, 1, 36, 127
2, 64720, Note_on_c, 1, 39, 127
2, 65080, Note_off_c, 1, 36, 0
2, 65080, Note_off_c, 1, 39, 0
2, 65160, Note_on_c, 1, 36, 127
2, 65160, Note_on_c, 1, 39, 127
2, 65480, Note_off_c, 1, 36, 0
2, 65480, Note_off_c, 1, 39, 0
2, 65480, Note_on_c, 1, 46, 127
2, 65520, Note_on_c, 1, 36, 127
2, 65520, Note_on_c, 1, 39, 127
2, 65520, Note_off_c, 1, 46, 0
2, 65880, Note_off_c, 1, 36, 0
2, 65880, Note_off_c, 1, 39, 0
2, 65920, Note_on_c, 1, 36, 127
2, 65920, Note_on_c, 1, 39, 127
2, 66280, Note_off_c, 1, 36, 0
2, 66280, Note_off_c, 1, 39, 0
2, 66320, Note_on_c, 1, 44, 127
2, 66320, Note_on_c, 1, 56, 127
2, 66320, Note_on_c, 1, 63, 127
2, 66320, Note_on_c, 1, 68, 127
2, 66320, Note_on_c, 1, 72, 127
2, 66320, Note_on_c, 1, 75, 127
2, 67040, Note_off_c, 1, 44, 0
2, 67040, Note_off_c, 1, 56, 0
2, 67040, Note_off_c, 1, 63, 0
2, 67040, Note_off_c, 1, 68, 0
2, 67040, Note_off_c, 1, 72, 0
2, 67040, Note_off_c, 1, 75, 0
2, 67080, Note_on_c, 1, 44, 127
2, 67080, Note_on_c, 1, 54, 127
2, 67080, Note_on_c, 1, 56, 127
2, 67080, Note_on_c, 1, 63, 127
2, 67080, Note_on_c, 1, 68, 127
2, 67080, Note_on_c, 1, 72, 127
2, 67080, Note_on_c, 1, 75, 127
2, 67320, Note_off_c, 1, 44, 0
2, 67320, Note_off_c, 1, 54, 0
2, 67320, Note_off_c, 1, 56, 0
2, 67320, Note_off_c, 1, 63, 0
2, 67320, Note_off_c, 1, 68, 0
2, 67320, Note_off_c, 1, 72, 0
2, 67320, Note_off_c, 1, 75, 0
2, 67360, Note_on_c, 1, 44, 127
2, 67360, Note_on_c, 1, 54, 127
2, 67360, Note_on_c, 1, 56, 127
2, 67360, Note_on_c, 1, 63, 127
2, 67360, Note_on_c, 1, 68, 127
2, 67360, Note_on_c, 1, 72, 127
2, 67360, Note_on_c, 1, 75, 127
2, 70200, Note_off_c, 1, 44, 0
2, 70200, Note_off_c, 1, 54, 0
2, 70200, Note_off_c, 1, 56, 0
2, 70200, Note_off_c, 1, 63, 0
2, 70200, Note_off_c, 1, 68, 0
2, 70200, Note_off_c, 1, 72, 0
2, 70200, Note_off_c, 1, 75, 0
2, 70280, Note_on_c, 1, 44, 127
2, 70280, Note_on_c, 1, 54, 127
2, 70280, Note_on_c, 1, 56, 127
2, 70280, Note_on_c, 1, 63, 127
2, 70280, Note_on_c, 1, 68, 127
2, 70280, Note_on_c, 1, 72, 127
2, 70280, Note_on_c, 1, 75, 127
2, 76560, Note_off_c, 1, 44, 0
2, 76560, Note_off_c, 1, 54, 0
2, 76560, Note_off_c, 1, 56, 0
2, 76560, Note_off_c, 1, 63, 0
2, 76560, Note_off_c, 1, 68, 0
2, 76560, Note_off_c, 1, 72, 0
2, 76560, Note_off_c, 1, 75, 0
2, 76600, Note_on_c, 1, 44, 127
2, 76600, Note_on_c, 1, 54, 127
2, 76600, Note_on_c, 1, 56, 127
2, 76600, Note_on_c, 1, 63, 127
2, 76600, Note_on_c, 1, 68, 127
2, 76600, Note_on_c, 1, 72, 127
2, 76600, Note_on_c, 1, 75, 127
2, 81480, Note_off_c, 1, 44, 0
2, 81480, Note_off_c, 1, 54, 0
2, 81480, Note_off_c, 1, 56, 0
2, 81480, Note_off_c, 1, 63, 0
2, 81480, Note_off_c, 1, 68, 0
2, 81480, Note_off_c, 1, 72, 0
2, 81480, Note_off_c, 1, 75, 0
2, 81520, Note_on_c, 1, 44, 127
2, 81520, Note_on_c, 1, 54, 127
2, 81520, Note_on_c, 1, 56, 127
2, 81520, Note_on_c, 1, 63, 127
2, 81520, Note_on_c, 1, 68, 127
2, 81520, Note_on_c, 1, 72, 127
2, 81520, Note_on_c, 1, 75, 127
2, 120000, Note_off_c, 1, 44, 0
2, 120000, Note_off_c, 1, 54, 0
2, 120000, Note_off_c, 1, 56, 0
2, 120000, Note_off_c, 1, 63, 0
2, 120000, Note_off_c, 1, 68, 0
2, 120000, Note_off_c, 1, 72, 0
2, 120000, Note_off_c, 1, 75, 0
2, 120040, End_track
3, 0, Start_track
3, 0, Title_t, "MIDI"
3, 1536, End_track
0, 0, End_of_file
