0, 0, Header, 1, 3, 192
1, 0, Start_track
1, 0, Time_signature, 4, 2, 24, 8
1, 0, Tempo, 500000
1, 120040, End_track
2, 0, Start_track
2, 0, Text_t, "random instrument: random person i dunno whatev"
2, 0, Title_t, "Track 1"
2, 0, Note_on_c, 1, 58, 127
2, 0, Note_on_c, 1, 66, 127
2, 0, Note_on_c, 1, 78, 127
2, 0, Note_on_c, 1, 82, 127
2, 0, Note_on_c, 1, 90, 127
2, 360, Note_off_c, 1, 58, 0
2, 360, Note_off_c, 1, 66, 0
2, 360, Note_off_c, 1, 78, 0
2, 360, Note_off_c, 1, 82, 0
2, 360, Note_off_c, 1, 90, 0
2, 400, Note_on_c, 1, 51, 127
2, 400, Note_on_c, 1, 59, 127
2, 400, Note_on_c, 1, 71, 127
2, 400, Note_on_c, 1, 75, 127
2, 760, Note_off_c, 1, 51, 0
2, 760, Note_off_c, 1, 59, 0
2, 760, Note_off_c, 1, 71, 0
2, 760, Note_off_c, 1, 75, 0
2, 800, Note_on_c, 1, 51, 127
2, 800, Note_on_c, 1, 59, 127
2, 800, Note_on_c, 1, 71, 127
2, 800, Note_on_c, 1, 75, 127
2, 1280, Note_off_c, 1, 51, 0
2, 1280, Note_off_c, 1, 59, 0
2, 1280, Note_off_c, 1, 71, 0
2, 1280, Note_off_c, 1, 75, 0
2, 1320, Note_on_c, 1, 42, 127
2, 1320, Note_on_c, 1, 78, 127
2, 1720, Note_off_c, 1, 42, 0
2, 1760, Note_on_c, 1, 49, 127
2, 2120, Note_off_c, 1, 49, 0
2, 2160, Note_on_c, 1, 54, 127
2, 2520, Note_off_c, 1, 54, 0
2, 2560, Note_on_c, 1, 61, 127
2, 2920, Note_off_c, 1, 61, 0
2, 2920, Note_off_c, 1, 78, 0
2, 3000, Note_on_c, 1, 59, 127
2, 3000, Note_on_c, 1, 77, 127
2, 3360, Note_off_c, 1, 59, 0
2, 3360, Note_off_c, 1, 77, 0
2, 3400, Note_on_c, 1, 61, 127
2, 3400, Note_on_c, 1, 78, 127
2, 3760, Note_off_c, 1, 61, 0
2, 3760, Note_off_c, 1, 78, 0
2, 3800, Note_on_c, 1, 52, 127
2, 3800, Note_on_c, 1, 80, 127
2, 4160, Note_off_c, 1, 52, 0
2, 4200, Note_on_c, 1, 61, 127
2, 4560, Note_off_c, 1, 61, 0
2, 4600, Note_on_c, 1, 52, 127
2, 5000, Note_off_c, 1, 52, 0
2, 5000, Note_off_c, 1, 80, 0
2, 5080, Note_on_c, 1, 56, 127
2, 5080, Note_on_c, 1, 79, 127
2, 5440, Note_off_c, 1, 56, 0
2, 5480, Note_on_c, 1, 43, 127
2, 5480, Note_on_c, 1, 77, 127
2, 5480, Note_off_c, 1, 79, 0
2, 5840, Note_off_c, 1, 43, 0
2, 5880, Note_on_c, 1, 43, 127
2, 6200, Note_off_c, 1, 43, 0
2, 6240, Note_on_c, 1, 43, 127
2, 6600, Note_off_c, 1, 43, 0
2, 6640, Note_on_c, 1, 50, 127
2, 7000, Note_off_c, 1, 50, 0
2, 7040, Note_on_c, 1, 44, 127
2, 7360, Note_off_c, 1, 44, 0
2, 7360, Note_off_c, 1, 77, 0
2, 7400, Note_on_c, 1, 44, 127
2, 7400, Note_on_c, 1, 77, 127
2, 7440, Note_off_c, 1, 44, 0
2, 7480, Note_on_c, 1, 49, 127
2, 7840, Note_off_c, 1, 49, 0
2, 7880, Note_on_c, 1, 51, 127
2, 8240, Note_off_c, 1, 51, 0
2, 8280, Note_on_c, 1, 61, 127
2, 8640, Note_off_c, 1, 61, 0
2, 8640, Note_off_c, 1, 77, 0
2, 8680, Note_on_c, 1, 39, 127
2, 8680, Note_on_c, 1, 75, 127
2, 9040, Note_off_c, 1, 39, 0
2, 9040, Note_off_c, 1, 75, 0
2, 9080, Note_on_c, 1, 44, 127
2, 9080, Note_on_c, 1, 75, 127
2, 9440, Note_off_c, 1, 44, 0
2, 9480, Note_off_c, 1, 75, 0
2, 9520, Note_on_c, 1, 52, 127
2, 9520, Note_on_c, 1, 75, 127
2, 9880, Note_off_c, 1, 52, 0
2, 9880, Note_off_c, 1, 75, 0
2, 9920, Note_on_c, 1, 44, 127
2, 9920, Note_on_c, 1, 73, 127
2, 10280, Note_off_c, 1, 44, 0
2, 10320, Note_on_c, 1, 56, 127
2, 10680, Note_off_c, 1, 56, 0
2, 10720, Note_on_c, 1, 44, 127
2, 11080, Note_off_c, 1, 44, 0
2, 11120, Note_on_c, 1, 44, 127
2, 11480, Note_off_c, 1, 44, 0
2, 11520, Note_on_c, 1, 56, 127
2, 11880, Note_off_c, 1, 56, 0
2, 11920, Note_off_c, 1, 73, 0
2, 11960, Note_on_c, 1, 44, 127
2, 11960, Note_on_c, 1, 73, 127
2, 12320, Note_off_c, 1, 44, 0
2, 12360, Note_on_c, 1, 56, 127
2, 12720, Note_off_c, 1, 56, 0
2, 12760, Note_on_c, 1, 56, 127
2, 13120, Note_off_c, 1, 56, 0
2, 13120, Note_off_c, 1, 73, 0
2, 13160, Note_on_c, 1, 49, 127
2, 13160, Note_on_c, 1, 80, 127
2, 13520, Note_off_c, 1, 49, 0
2, 13560, Note_on_c, 1, 37, 127
2, 13920, Note_off_c, 1, 37, 0
2, 13960, Note_on_c, 1, 37, 127
2, 14040, Note_off_c, 1, 37, 0
2, 14040, Note_off_c, 1, 80, 0
2, 14080, Note_on_c, 1, 37, 127
2, 14080, Note_on_c, 1, 80, 127
2, 14360, Note_off_c, 1, 37, 0
2, 14400, Note_on_c, 1, 37, 127
2, 14760, Note_off_c, 1, 37, 0
2, 14760, Note_off_c, 1, 80, 0
2, 14800, Note_on_c, 1, 42, 127
2, 14800, Note_on_c, 1, 80, 127
2, 15160, Note_off_c, 1, 42, 0
2, 15160, Note_off_c, 1, 80, 0
2, 15200, Note_on_c, 1, 47, 127
2, 15200, Note_on_c, 1, 80, 127
2, 15560, Note_off_c, 1, 47, 0
2, 15600, Note_on_c, 1, 37, 127
2, 15960, Note_off_c, 1, 37, 0
2, 15960, Note_off_c, 1, 80, 0
2, 16000, Note_on_c, 1, 49, 127
2, 16000, Note_on_c, 1, 80, 127
2, 16160, Note_off_c, 1, 49, 0
2, 16160, Note_off_c, 1, 80, 0
2, 16200, Note_on_c, 1, 49, 127
2, 16200, Note_on_c, 1, 80, 127
2, 16400, Note_off_c, 1, 49, 0
2, 16440, Note_on_c, 1, 37, 127
2, 16800, Note_off_c, 1, 37, 0
2, 16800, Note_off_c, 1, 80, 0
2, 16840, Note_on_c, 1, 45, 127
2, 16840, Note_on_c, 1, 78, 127
2, 17200, Note_off_c, 1, 45, 0
2, 17240, Note_on_c, 1, 49, 127
2, 17600, Note_off_c, 1, 49, 0
2, 17640, Note_on_c, 1, 54, 127
2, 18000, Note_off_c, 1, 54, 0
2, 18040, Note_on_c, 1, 49, 127
2, 18400, Note_off_c, 1, 49, 0
2, 18440, Note_off_c, 1, 78, 0
2, 18480, Note_on_c, 1, 47, 127
2, 18480, Note_on_c, 1, 78, 127
2, 18840, Note_off_c, 1, 47, 0
2, 18880, Note_on_c, 1, 54, 127
2, 19240, Note_off_c, 1, 54, 0
2, 19280, Note_on_c, 1, 49, 127
2, 19640, Note_off_c, 1, 49, 0
2, 19680, Note_on_c, 1, 54, 127
2, 20040, Note_off_c, 1, 54, 0
2, 20080, Note_on_c, 1, 51, 127
2, 20440, Note_off_c, 1, 51, 0
2, 20480, Note_on_c, 1, 54, 127
2, 20560, Note_off_c, 1, 54, 0
2, 20560, Note_off_c, 1, 78, 0
2, 20600, Note_on_c, 1, 54, 127
2, 20600, Note_on_c, 1, 78, 127
2, 20880, Note_off_c, 1, 54, 0
2, 20920, Note_on_c, 1, 49, 127
2, 21280, Note_off_c, 1, 49, 0
2, 21280, Note_off_c, 1, 78, 0
2, 21320, Note_on_c, 1, 49, 127
2, 21320, Note_on_c, 1, 78, 127
2, 21680, Note_off_c, 1, 49, 0
2, 21720, Note_on_c, 1, 63, 127
2, 22080, Note_off_c, 1, 63, 0
2, 22080, Note_off_c, 1, 78, 0
2, 22120, Note_on_c, 1, 49, 127
2, 22120, Note_on_c, 1, 77, 127
2, 22480, Note_off_c, 1, 49, 0
2, 22520, Note_on_c, 1, 56, 127
2, 22840, Note_off_c, 1, 56, 0
2, 22840, Note_off_c, 1, 77, 0
2, 22880, Note_on_c, 1, 56, 127
2, 22880, Note_on_c, 1, 77, 127
2, 22920, Note_off_c, 1, 56, 0
2, 22960, Note_on_c, 1, 49, 127
2, 23320, Note_off_c, 1, 49, 0
2, 23360, Note_on_c, 1, 61, 127
2, 23720, Note_off_c, 1, 61, 0
2, 23720, Note_off_c, 1, 77, 0
2, 23760, Note_on_c, 1, 39, 127
2, 23760, Note_on_c, 1, 75, 127
2, 24120, Note_off_c, 1, 39, 0
2, 24160, Note_on_c, 1, 46, 127
2, 24520, Note_off_c, 1, 46, 0
2, 24520, Note_off_c, 1, 75, 0
2, 24560, Note_on_c, 1, 44, 127
2, 24560, Note_on_c, 1, 75, 127
2, 24920, Note_off_c, 1, 44, 0
2, 24920, Note_off_c, 1, 75, 0
2, 25000, Note_on_c, 1, 44, 127
2, 25000, Note_on_c, 1, 73, 127
2, 25360, Note_off_c, 1, 44, 0
2, 25400, Note_on_c, 1, 56, 127
2, 25760, Note_off_c, 1, 56, 0
2, 25800, Note_on_c, 1, 61, 127
2, 26160, Note_off_c, 1, 61, 0
2, 26200, Note_on_c, 1, 52, 127
2, 26560, Note_off_c, 1, 52, 0
2, 26600, Note_on_c, 1, 61, 127
2, 26960, Note_off_c, 1, 61, 0
2, 27000, Note_on_c, 1, 56, 127
2, 27120, Note_off_c, 1, 56, 0
2, 27120, Note_off_c, 1, 73, 0
2, 27160, Note_on_c, 1, 56, 127
2, 27160, Note_on_c, 1, 73, 127
2, 27400, Note_off_c, 1, 56, 0
2, 27400, Note_off_c, 1, 73, 0
2, 27440, Note_on_c, 1, 51, 127
2, 27440, Note_on_c, 1, 72, 127
2, 27800, Note_off_c, 1, 51, 0
2, 27800, Note_off_c, 1, 72, 0
2, 27840, Note_on_c, 1, 75, 127
2, 28200, Note_off_c, 1, 75, 0
2, 28240, Note_on_c, 1, 49, 127
2, 28240, Note_on_c, 1, 76, 127
2, 28600, Note_off_c, 1, 49, 0
2, 28640, Note_on_c, 1, 56, 127
2, 29000, Note_off_c, 1, 56, 0
2, 29040, Note_on_c, 1, 59, 127
2, 29400, Note_off_c, 1, 59, 0
2, 29400, Note_off_c, 1, 76, 0
2, 29480, Note_on_c, 1, 51, 127
2, 29480, Note_on_c, 1, 78, 127
2, 29840, Note_off_c, 1, 51, 0
2, 29880, Note_on_c, 1, 59, 127
2, 30240, Note_off_c, 1, 59, 0
2, 30280, Note_on_c, 1, 47, 127
2, 30640, Note_off_c, 1, 47, 0
2, 30680, Note_on_c, 1, 47, 127
2, 31040, Note_off_c, 1, 47, 0
2, 31080, Note_on_c, 1, 51, 127
2, 31440, Note_off_c, 1, 51, 0
2, 31480, Note_on_c, 1, 54, 127
2, 31680, Note_off_c, 1, 54, 0
2, 31680, Note_off_c, 1, 78, 0
2, 31720, Note_on_c, 1, 54, 127
2, 31720, Note_on_c, 1, 78, 127
2, 31880, Note_off_c, 1, 54, 0
2, 31920, Note_on_c, 1, 56, 127
2, 32280, Note_off_c, 1, 56, 0
2, 32320, Note_on_c, 1, 47, 127
2, 32680, Note_off_c, 1, 47, 0
2, 32720, Note_on_c, 1, 51, 127
2, 33080, Note_off_c, 1, 51, 0
2, 33120, Note_on_c, 1, 60, 127
2, 33480, Note_off_c, 1, 60, 0
2, 33480, Note_off_c, 1, 78, 0
2, 33520, Note_on_c, 1, 41, 127
2, 33520, Note_on_c, 1, 75, 127
2, 33880, Note_off_c, 1, 41, 0
2, 33920, Note_off_c, 1, 75, 0
2, 33960, Note_on_c, 1, 57, 127
2, 33960, Note_on_c, 1, 75, 127
2, 34280, Note_off_c, 1, 57, 0
2, 34320, Note_on_c, 1, 44, 127
2, 34680, Note_off_c, 1, 44, 0
2, 34720, Note_on_c, 1, 49, 127
2, 35080, Note_off_c, 1, 49, 0
2, 35120, Note_on_c, 1, 51, 127
2, 35480, Note_off_c, 1, 51, 0
2, 35520, Note_on_c, 1, 59, 127
2, 35880, Note_off_c, 1, 59, 0
2, 35880, Note_off_c, 1, 75, 0
2, 35920, Note_on_c, 1, 51, 127
2, 35920, Note_on_c, 1, 78, 127
2, 36120, Note_off_c, 1, 51, 0
2, 36120, Note_off_c, 1, 78, 0
2, 36160, Note_on_c, 1, 51, 127
2, 36160, Note_on_c, 1, 78, 127
2, 36320, Note_off_c, 1, 51, 0
2, 36360, Note_on_c, 1, 59, 127
2, 36720, Note_off_c, 1, 59, 0
2, 36760, Note_on_c, 1, 51, 127
2, 37120, Note_off_c, 1, 51, 0
2, 37160, Note_on_c, 1, 59, 127
2, 37520, Note_off_c, 1, 59, 0
2, 37520, Note_off_c, 1, 78, 0
2, 37560, Note_on_c, 1, 51, 127
2, 37560, Note_on_c, 1, 78, 127
2, 37920, Note_off_c, 1, 51, 0
2, 37960, Note_on_c, 1, 54, 127
2, 38320, Note_off_c, 1, 54, 0
2, 38320, Note_off_c, 1, 78, 0
2, 38360, Note_on_c, 1, 78, 127
2, 38400, Note_on_c, 1, 63, 127
2, 38760, Note_off_c, 1, 63, 0
2, 38800, Note_on_c, 1, 47, 127
2, 39160, Note_off_c, 1, 47, 0
2, 39200, Note_on_c, 1, 56, 127
2, 39560, Note_off_c, 1, 56, 0
2, 39560, Note_off_c, 1, 78, 0
2, 39600, Note_on_c, 1, 44, 127
2, 39600, Note_on_c, 1, 78, 127
2, 39960, Note_off_c, 1, 44, 0
2, 40000, Note_on_c, 1, 51, 127
2, 40360, Note_off_c, 1, 51, 0
2, 40400, Note_on_c, 1, 60, 127
2, 40760, Note_off_c, 1, 60, 0
2, 40760, Note_off_c, 1, 78, 0
2, 40840, Note_on_c, 1, 44, 127
2, 40840, Note_on_c, 1, 78, 127
2, 41200, Note_off_c, 1, 44, 0
2, 41240, Note_on_c, 1, 51, 127
2, 41600, Note_off_c, 1, 51, 0
2, 41640, Note_on_c, 1, 60, 127
2, 42000, Note_off_c, 1, 60, 0
2, 42040, Note_on_c, 1, 44, 127
2, 42400, Note_off_c, 1, 44, 0
2, 42440, Note_on_c, 1, 56, 127
2, 42800, Note_off_c, 1, 56, 0
2, 42840, Note_on_c, 1, 44, 127
2, 43000, Note_off_c, 1, 44, 0
2, 43000, Note_off_c, 1, 78, 0
2, 43040, Note_on_c, 1, 44, 127
2, 43040, Note_on_c, 1, 78, 127
2, 43240, Note_off_c, 1, 44, 0
2, 43280, Note_on_c, 1, 44, 127
2, 43640, Note_off_c, 1, 44, 0
2, 43680, Note_on_c, 1, 44, 127
2, 44040, Note_off_c, 1, 44, 0
2, 44080, Note_on_c, 1, 49, 127
2, 44440, Note_off_c, 1, 49, 0
2, 44480, Note_on_c, 1, 49, 127
2, 44840, Note_off_c, 1, 49, 0
2, 44880, Note_on_c, 1, 60, 127
2, 45200, Note_off_c, 1, 60, 0
2, 45200, Note_off_c, 1, 78, 0
2, 45240, Note_on_c, 1, 60, 127
2, 45240, Note_on_c, 1, 78, 127
2, 45280, Note_off_c, 1, 60, 0
2, 45280, Note_off_c, 1, 78, 0
2, 45320, Note_on_c, 1, 37, 127
2, 45320, Note_on_c, 1, 77, 127
2, 45680, Note_off_c, 1, 37, 0
2, 45680, Note_off_c, 1, 77, 0
2, 45720, Note_on_c, 1, 44, 127
2, 45720, Note_on_c, 1, 78, 127
2, 46080, Note_off_c, 1, 44, 0
2, 46120, Note_on_c, 1, 49, 127
2, 46480, Note_off_c, 1, 49, 0
2, 46520, Note_on_c, 1, 49, 127
2, 46880, Note_off_c, 1, 49, 0
2, 46920, Note_on_c, 1, 60, 127
2, 47280, Note_off_c, 1, 60, 0
2, 47280, Note_off_c, 1, 78, 0
2, 47360, Note_on_c, 1, 44, 127
2, 47360, Note_on_c, 1, 78, 127
2, 47680, Note_off_c, 1, 44, 0
2, 47720, Note_on_c, 1, 51, 127
2, 48080, Note_off_c, 1, 51, 0
2, 48120, Note_on_c, 1, 60, 127
2, 48480, Note_off_c, 1, 60, 0
2, 48480, Note_off_c, 1, 78, 0
2, 48520, Note_on_c, 1, 51, 127
2, 48520, Note_on_c, 1, 78, 127
2, 48880, Note_off_c, 1, 51, 0
2, 48920, Note_on_c, 1, 39, 127
2, 49280, Note_off_c, 1, 39, 0
2, 49280, Note_off_c, 1, 78, 0
2, 49360, Note_on_c, 1, 39, 127
2, 49360, Note_on_c, 1, 78, 127
2, 49720, Note_off_c, 1, 39, 0
2, 49760, Note_on_c, 1, 49, 127
2, 50120, Note_off_c, 1, 49, 0
2, 50160, Note_on_c, 1, 54, 127
2, 50520, Note_off_c, 1, 54, 0
2, 50560, Note_on_c, 1, 49, 127
2, 50920, Note_off_c, 1, 49, 0
2, 50960, Note_on_c, 1, 54, 127
2, 51320, Note_off_c, 1, 54, 0
2, 51360, Note_on_c, 1, 49, 127
2, 51720, Note_off_c, 1, 49, 0
2, 51720, Note_off_c, 1, 78, 0
2, 51800, Note_on_c, 1, 49, 127
2, 51800, Note_on_c, 1, 78, 127
2, 52160, Note_off_c, 1, 49, 0
2, 52160, Note_off_c, 1, 78, 0
2, 52200, Note_on_c, 1, 49, 127
2, 52200, Note_on_c, 1, 77, 127
2, 52560, Note_off_c, 1, 49, 0
2, 52600, Note_on_c, 1, 54, 127
2, 52960, Note_off_c, 1, 54, 0
2, 52960, Note_off_c, 1, 77, 0
2, 53000, Note_on_c, 1, 59, 127
2, 53000, Note_on_c, 1, 78, 127
2, 53360, Note_off_c, 1, 59, 0
2, 53400, Note_on_c, 1, 63, 127
2, 53760, Note_off_c, 1, 63, 0
2, 53800, Note_on_c, 1, 47, 127
2, 54000, Note_off_c, 1, 47, 0
2, 54000, Note_off_c, 1, 78, 0
2, 54040, Note_on_c, 1, 47, 127
2, 54040, Note_on_c, 1, 78, 127
2, 54200, Note_off_c, 1, 47, 0
2, 54240, Note_on_c, 1, 54, 127
2, 54600, Note_off_c, 1, 54, 0
2, 54640, Note_on_c, 1, 49, 127
2, 55000, Note_off_c, 1, 49, 0
2, 55040, Note_on_c, 1, 54, 127
2, 55400, Note_off_c, 1, 54, 0
2, 55440, Note_on_c, 1, 63, 127
2, 55800, Note_off_c, 1, 63, 0
2, 55800, Note_off_c, 1, 78, 0
2, 55840, Note_on_c, 1, 54, 127
2, 55840, Note_on_c, 1, 76, 127
2, 56160, Note_off_c, 1, 54, 0
2, 56160, Note_off_c, 1, 76, 0
2, 56200, Note_on_c, 1, 54, 127
2, 56200, Note_on_c, 1, 76, 127
2, 56240, Note_off_c, 1, 54, 0
2, 56280, Note_on_c, 1, 47, 127
2, 56640, Note_off_c, 1, 47, 0
2, 56640, Note_off_c, 1, 76, 0
2, 56680, Note_on_c, 1, 47, 127
2, 56680, Note_on_c, 1, 87, 127
2, 57040, Note_off_c, 1, 47, 0
2, 57080, Note_on_c, 1, 59, 127
2, 57440, Note_off_c, 1, 59, 0
2, 57440, Note_off_c, 1, 87, 0
2, 57480, Note_on_c, 1, 53, 127
2, 57480, Note_on_c, 1, 80, 127
2, 57840, Note_off_c, 1, 53, 0
2, 57840, Note_off_c, 1, 80, 0
2, 57880, Note_on_c, 1, 58, 127
2, 57880, Note_on_c, 1, 78, 127
2, 58240, Note_off_c, 1, 58, 0
2, 58280, Note_on_c, 1, 61, 127
2, 58480, Note_off_c, 1, 61, 0
2, 58480, Note_off_c, 1, 78, 0
2, 58520, Note_on_c, 1, 61, 127
2, 58520, Note_on_c, 1, 78, 127
2, 58680, Note_off_c, 1, 61, 0
2, 58680, Note_off_c, 1, 78, 0
2, 58720, Note_on_c, 1, 49, 127
2, 58720, Note_on_c, 1, 77, 127
2, 59080, Note_off_c, 1, 49, 0
2, 59120, Note_on_c, 1, 44, 127
2, 59480, Note_off_c, 1, 44, 0
2, 59520, Note_on_c, 1, 49, 127
2, 59880, Note_off_c, 1, 49, 0
2, 59920, Note_on_c, 1, 44, 127
2, 60280, Note_off_c, 1, 44, 0
2, 60320, Note_on_c, 1, 49, 127
2, 60680, Note_off_c, 1, 49, 0
2, 60720, Note_off_c, 1, 77, 0
2, 60760, Note_on_c, 1, 61, 127
2, 60760, Note_on_c, 1, 77, 127
2, 61120, Note_off_c, 1, 61, 0
2, 61120, Note_off_c, 1, 77, 0
2, 61160, Note_on_c, 1, 44, 127
2, 61160, Note_on_c, 1, 78, 127
2, 61520, Note_off_c, 1, 44, 0
2, 61560, Note_on_c, 1, 57, 127
2, 61920, Note_off_c, 1, 57, 0
2, 61960, Note_on_c, 1, 49, 127
2, 62320, Note_off_c, 1, 49, 0
2, 62360, Note_on_c, 1, 54, 127
2, 62720, Note_off_c, 1, 54, 0
2, 62760, Note_off_c, 1, 78, 0
2, 62800, Note_on_c, 1, 49, 127
2, 62800, Note_on_c, 1, 78, 127
2, 63160, Note_off_c, 1, 49, 0
2, 63200, Note_on_c, 1, 54, 127
2, 63560, Note_off_c, 1, 54, 0
2, 63600, Note_on_c, 1, 66, 127
2, 63960, Note_off_c, 1, 66, 0
2, 63960, Note_off_c, 1, 78, 0
2, 64000, Note_on_c, 1, 48, 127
2, 64360, Note_off_c, 1, 48, 0
2, 64400, Note_on_c, 1, 54, 127
2, 64760, Note_off_c, 1, 54, 0
2, 64800, Note_on_c, 1, 49, 127
2, 64800, Note_on_c, 1, 73, 127
2, 65080, Note_off_c, 1, 49, 0
2, 65080, Note_off_c, 1, 73, 0
2, 65120, Note_on_c, 1, 49, 127
2, 65120, Note_on_c, 1, 73, 127
2, 65200, Note_off_c, 1, 49, 0
2, 65240, Note_on_c, 1, 52, 127
2, 65600, Note_off_c, 1, 52, 0
2, 65600, Note_off_c, 1, 73, 0
2, 65640, Note_on_c, 1, 54, 127
2, 65640, Note_on_c, 1, 70, 127
2, 66000, Note_off_c, 1, 54, 0
2, 66000, Note_off_c, 1, 70, 0
2, 66040, Note_on_c, 1, 49, 127
2, 66040, Note_on_c, 1, 70, 127
2, 66400, Note_off_c, 1, 49, 0
2, 66400, Note_off_c, 1, 70, 0
2, 66440, Note_on_c, 1, 54, 127
2, 66440, Note_on_c, 1, 70, 127
2, 66800, Note_off_c, 1, 54, 0
2, 66840, Note_on_c, 1, 58, 127
2, 67200, Note_off_c, 1, 58, 0
2, 67240, Note_on_c, 1, 54, 127
2, 67400, Note_off_c, 1, 54, 0
2, 67400, Note_off_c, 1, 70, 0
2, 67440, Note_on_c, 1, 54, 127
2, 67440, Note_on_c, 1, 70, 127
2, 67640, Note_off_c, 1, 54, 0
2, 67640, Note_off_c, 1, 70, 0
2, 67680, Note_on_c, 1, 83, 127
2, 68040, Note_off_c, 1, 83, 0
2, 68080, Note_on_c, 1, 54, 127
2, 68080, Note_on_c, 1, 70, 127
2, 68440, Note_off_c, 1, 54, 0
2, 68440, Note_off_c, 1, 70, 0
2, 68480, Note_on_c, 1, 58, 127
2, 68480, Note_on_c, 1, 73, 127
2, 68840, Note_off_c, 1, 58, 0
2, 68840, Note_off_c, 1, 73, 0
2, 68880, Note_on_c, 1, 54, 127
2, 68880, Note_on_c, 1, 73, 127
2, 69240, Note_off_c, 1, 54, 0
2, 69240, Note_off_c, 1, 73, 0
2, 69280, Note_on_c, 1, 70, 127
2, 69480, Note_off_c, 1, 70, 0
2, 69520, Note_on_c, 1, 70, 127
2, 69680, Note_off_c, 1, 70, 0
2, 69720, Note_on_c, 1, 78, 127
2, 69880, Note_off_c, 1, 78, 0
2, 69920, Note_on_c, 1, 77, 127
2, 70080, Note_off_c, 1, 77, 0
2, 70120, Note_on_c, 1, 78, 127
2, 70200, Note_off_c, 1, 78, 0
2, 70240, Note_on_c, 1, 79, 127
2, 70480, Note_off_c, 1, 79, 0
2, 70520, Note_on_c, 1, 78, 127
2, 70880, Note_off_c, 1, 78, 0
2, 70920, Note_on_c, 1, 41, 127
2, 70920, Note_on_c, 1, 69, 127
2, 71280, Note_off_c, 1, 41, 0
2, 71280, Note_off_c, 1, 69, 0
2, 71320, Note_on_c, 1, 77, 127
2, 71520, Note_off_c, 1, 77, 0
2, 71560, Note_on_c, 1, 77, 127
2, 71600, Note_off_c, 1, 77, 0
2, 71640, Note_on_c, 1, 76, 127
2, 71920, Note_off_c, 1, 76, 0
2, 71960, Note_on_c, 1, 49, 127
2, 71960, Note_on_c, 1, 73, 127
2, 72320, Note_off_c, 1, 49, 0
2, 72360, Note_on_c, 1, 56, 127
2, 72720, Note_off_c, 1, 56, 0
2, 72720, Note_off_c, 1, 73, 0
2, 72760, Note_on_c, 1, 61, 127
2, 73120, Note_off_c, 1, 61, 0
2, 73160, Note_on_c, 1, 54, 127
2, 73160, Note_on_c, 1, 72, 127
2, 73520, Note_off_c, 1, 54, 0
2, 73560, Note_on_c, 1, 54, 127
2, 73920, Note_off_c, 1, 54, 0
2, 73960, Note_off_c, 1, 72, 0
2, 74000, Note_on_c, 1, 54, 127
2, 74000, Note_on_c, 1, 72, 127
2, 74360, Note_off_c, 1, 54, 0
2, 74360, Note_off_c, 1, 72, 0
2, 74400, Note_on_c, 1, 59, 127
2, 74400, Note_on_c, 1, 71, 127
2, 74760, Note_off_c, 1, 59, 0
2, 74800, Note_on_c, 1, 50, 127
2, 75160, Note_off_c, 1, 50, 0
2, 75200, Note_on_c, 1, 53, 127
2, 75560, Note_off_c, 1, 53, 0
2, 75560, Note_off_c, 1, 71, 0
2, 75600, Note_on_c, 1, 54, 127
2, 75600, Note_on_c, 1, 70, 127
2, 75960, Note_off_c, 1, 54, 0
2, 75960, Note_off_c, 1, 70, 0
2, 76000, Note_on_c, 1, 56, 127
2, 76000, Note_on_c, 1, 71, 127
2, 76360, Note_off_c, 1, 56, 0
2, 76360, Note_off_c, 1, 71, 0
2, 76440, Note_on_c, 1, 63, 127
2, 76440, Note_on_c, 1, 78, 127
2, 76800, Note_off_c, 1, 63, 0
2, 76800, Note_off_c, 1, 78, 0
2, 76840, Note_on_c, 1, 69, 127
2, 76840, Note_on_c, 1, 72, 127
2, 77200, Note_off_c, 1, 69, 0
2, 77200, Note_off_c, 1, 72, 0
2, 77240, Note_on_c, 1, 66, 127
2, 77240, Note_on_c, 1, 82, 127
2, 77600, Note_off_c, 1, 66, 0
2, 77600, Note_off_c, 1, 82, 0
2, 77640, Note_on_c, 1, 68, 127
2, 78000, Note_off_c, 1, 68, 0
2, 78040, Note_on_c, 1, 70, 127
2, 78400, Note_off_c, 1, 70, 0
2, 78440, Note_on_c, 1, 64, 127
2, 78440, Note_on_c, 1, 71, 127
2, 78440, Note_on_c, 1, 83, 127
2, 78440, Note_on_c, 1, 90, 127
2, 78480, Note_on_c, 1, 59, 127
2, 78480, Note_on_c, 1, 67, 127
2, 78480, Note_off_c, 1, 71, 0
2, 78480, Note_on_c, 1, 75, 127
2, 78480, Note_on_c, 1, 79, 127
2, 78480, Note_off_c, 1, 83, 0
2, 78480, Note_off_c, 1, 90, 0
2, 78520, Note_on_c, 1, 54, 127
2, 78520, Note_on_c, 1, 57, 127
2, 78520, Note_on_c, 1, 63, 127
2, 78520, Note_off_c, 1, 64, 0
2, 78520, Note_off_c, 1, 67, 0
2, 78520, Note_off_c, 1, 75, 0
2, 78520, Note_off_c, 1, 79, 0
2, 78520, Note_on_c, 1, 84, 127
2, 78560, Note_off_c, 1, 54, 0
2, 78560, Note_off_c, 1, 57, 0
2, 78560, Note_off_c, 1, 59, 0
2, 78560, Note_off_c, 1, 63, 0
2, 78560, Note_off_c, 1, 84, 0
2, 78600, Note_on_c, 1, 49, 127
2, 78600, Note_on_c, 1, 53, 127
2, 78600, Note_on_c, 1, 59, 127
2, 78600, Note_on_c, 1, 68, 127
2, 78600, Note_on_c, 1, 73, 127
2, 78640, Note_off_c, 1, 49, 0
2, 78640, Note_off_c, 1, 53, 0
2, 78640, Note_on_c, 1, 54, 127
2, 78640, Note_on_c, 1, 57, 127
2, 78640, Note_on_c, 1, 63, 127
2, 78640, Note_off_c, 1, 68, 0
2, 78640, Note_off_c, 1, 73, 0
2, 78640, Note_on_c, 1, 84, 127
2, 78840, Note_off_c, 1, 54, 0
2, 78840, Note_off_c, 1, 57, 0
2, 78840, Note_off_c, 1, 59, 0
2, 78840, Note_off_c, 1, 63, 0
2, 78840, Note_off_c, 1, 84, 0
2, 78880, Note_on_c, 1, 82, 127
2, 79240, Note_off_c, 1, 82, 0
2, 79280, Note_on_c, 1, 52, 127
2, 79280, Note_on_c, 1, 59, 127
2, 79280, Note_on_c, 1, 64, 127
2, 79280, Note_on_c, 1, 68, 127
2, 79280, Note_on_c, 1, 80, 127
2, 79640, Note_off_c, 1, 52, 0
2, 79640, Note_off_c, 1, 59, 0
2, 79640, Note_off_c, 1, 64, 0
2, 79640, Note_off_c, 1, 68, 0
2, 79680, Note_on_c, 1, 52, 127
2, 79680, Note_on_c, 1, 59, 127
2, 79680, Note_on_c, 1, 64, 127
2, 79680, Note_on_c, 1, 68, 127
2, 79680, Note_on_c, 1, 75, 127
2, 79680, Note_off_c, 1, 80, 0
2, 80040, Note_off_c, 1, 52, 0
2, 80040, Note_off_c, 1, 59, 0
2, 80040, Note_off_c, 1, 64, 0
2, 80040, Note_off_c, 1, 68, 0
2, 80040, Note_off_c, 1, 75, 0
2, 80080, Note_on_c, 1, 76, 127
2, 80440, Note_off_c, 1, 76, 0
2, 80480, Note_on_c, 1, 77, 127
2, 80680, Note_off_c, 1, 77, 0
2, 80720, Note_on_c, 1, 77, 127
2, 81080, Note_off_c, 1, 77, 0
2, 81120, Note_on_c, 1, 75, 127
2, 81280, Note_off_c, 1, 75, 0
2, 81320, Note_on_c, 1, 77, 127
2, 81480, Note_off_c, 1, 77, 0
2, 81520, Note_on_c, 1, 75, 127
2, 81680, Note_off_c, 1, 75, 0
2, 81720, Note_on_c, 1, 73, 127
2, 81880, Note_off_c, 1, 73, 0
2, 81920, Note_on_c, 1, 77, 127
2, 82080, Note_off_c, 1, 77, 0
2, 82120, Note_on_c, 1, 79, 127
2, 82280, Note_off_c, 1, 79, 0
2, 82320, Note_on_c, 1, 80, 127
2, 82480, Note_off_c, 1, 80, 0
2, 82520, Note_on_c, 1, 78, 127
2, 82680, Note_off_c, 1, 78, 0
2, 82760, Note_on_c, 1, 79, 127
2, 82920, Note_off_c, 1, 79, 0
2, 82960, Note_on_c, 1, 77, 127
2, 83120, Note_off_c, 1, 77, 0
2, 83160, Note_on_c, 1, 78, 127
2, 83320, Note_off_c, 1, 78, 0
2, 83360, Note_on_c, 1, 77, 127
2, 83520, Note_off_c, 1, 77, 0
2, 83560, Note_on_c, 1, 75, 127
2, 83920, Note_off_c, 1, 75, 0
2, 83960, Note_on_c, 1, 73, 127
2, 84320, Note_off_c, 1, 73, 0
2, 84360, Note_on_c, 1, 72, 127
2, 84960, Note_off_c, 1, 72, 0
2, 85000, Note_on_c, 1, 72, 127
2, 85160, Note_off_c, 1, 72, 0
2, 85200, Note_on_c, 1, 73, 127
2, 85560, Note_off_c, 1, 73, 0
2, 85600, Note_on_c, 1, 75, 127
2, 85960, Note_off_c, 1, 75, 0
2, 86000, Note_on_c, 1, 73, 127
2, 86360, Note_off_c, 1, 73, 0
2, 86400, Note_on_c, 1, 72, 127
2, 86760, Note_off_c, 1, 72, 0
2, 86800, Note_on_c, 1, 72, 127
2, 87160, Note_off_c, 1, 72, 0
2, 87240, Note_on_c, 1, 80, 127
2, 87600, Note_off_c, 1, 80, 0
2, 87640, Note_on_c, 1, 80, 127
2, 88000, Note_off_c, 1, 80, 0
2, 88040, Note_on_c, 1, 81, 127
2, 88360, Note_off_c, 1, 81, 0
2, 88440, Note_on_c, 1, 80, 127
2, 88800, Note_off_c, 1, 80, 0
2, 88840, Note_on_c, 1, 79, 127
2, 89080, Note_off_c, 1, 79, 0
2, 89120, Note_on_c, 1, 83, 127
2, 89200, Note_off_c, 1, 83, 0
2, 89280, Note_on_c, 1, 82, 127
2, 89640, Note_off_c, 1, 82, 0
2, 89680, Note_on_c, 1, 80, 127
2, 89920, Note_off_c, 1, 80, 0
2, 89960, Note_on_c, 1, 78, 127
2, 90040, Note_off_c, 1, 78, 0
2, 90080, Note_on_c, 1, 70, 127
2, 90080, Note_on_c, 1, 73, 127
2, 90080, Note_on_c, 1, 80, 127
2, 90440, Note_off_c, 1, 80, 0
2, 90480, Note_on_c, 1, 80, 127
2, 90640, Note_off_c, 1, 80, 0
2, 90680, Note_on_c, 1, 75, 127
2, 90840, Note_off_c, 1, 75, 0
2, 90880, Note_on_c, 1, 76, 127
2, 91240, Note_off_c, 1, 70, 0
2, 91240, Note_off_c, 1, 73, 0
2, 91240, Note_off_c, 1, 76, 0
2, 91320, Note_on_c, 1, 73, 127
2, 91320, Note_on_c, 1, 77, 127
2, 91680, Note_off_c, 1, 73, 0
2, 91680, Note_off_c, 1, 77, 0
2, 91720, Note_on_c, 1, 77, 127
2, 92080, Note_off_c, 1, 77, 0
2, 92120, Note_on_c, 1, 67, 127
2, 92120, Note_on_c, 1, 73, 127
2, 92120, Note_on_c, 1, 75, 127
2, 92480, Note_off_c, 1, 67, 0
2, 92480, Note_off_c, 1, 73, 0
2, 92480, Note_off_c, 1, 75, 0
2, 92520, Note_on_c, 1, 72, 127
2, 93280, Note_off_c, 1, 72, 0
2, 93320, Note_on_c, 1, 76, 127
2, 93520, Note_off_c, 1, 76, 0
2, 93560, Note_on_c, 1, 76, 127
2, 93600, Note_off_c, 1, 76, 0
2, 93640, Note_on_c, 1, 77, 127
2, 93720, Note_off_c, 1, 77, 0
2, 93760, Note_on_c, 1, 80, 127
2, 93920, Note_off_c, 1, 80, 0
2, 93960, Note_on_c, 1, 82, 127
2, 94120, Note_off_c, 1, 82, 0
2, 94160, Note_on_c, 1, 83, 127
2, 94320, Note_off_c, 1, 83, 0
2, 94360, Note_on_c, 1, 82, 127
2, 94520, Note_off_c, 1, 82, 0
2, 94560, Note_on_c, 1, 78, 127
2, 94720, Note_off_c, 1, 78, 0
2, 94760, Note_on_c, 1, 77, 127
2, 94920, Note_off_c, 1, 77, 0
2, 94960, Note_on_c, 1, 81, 127
2, 95120, Note_off_c, 1, 81, 0
2, 95160, Note_on_c, 1, 82, 127
2, 95320, Note_off_c, 1, 82, 0
2, 95360, Note_on_c, 1, 83, 127
2, 95520, Note_off_c, 1, 83, 0
2, 95560, Note_on_c, 1, 82, 127
2, 95720, Note_off_c, 1, 82, 0
2, 95800, Note_on_c, 1, 80, 127
2, 96160, Note_off_c, 1, 80, 0
2, 96200, Note_on_c, 1, 42, 127
2, 96200, Note_on_c, 1, 82, 127
2, 96360, Note_off_c, 1, 82, 0
2, 96400, Note_on_c, 1, 82, 127
2, 96560, Note_off_c, 1, 42, 0
2, 96560, Note_off_c, 1, 82, 0
2, 96600, Note_on_c, 1, 68, 127
2, 96960, Note_off_c, 1, 68, 0
2, 97000, Note_on_c, 1, 82, 127
2, 97360, Note_off_c, 1, 82, 0
2, 97400, Note_on_c, 1, 51, 127
2, 97400, Note_on_c, 1, 78, 127
2, 97760, Note_off_c, 1, 51, 0
2, 97800, Note_on_c, 1, 66, 127
2, 98000, Note_off_c, 1, 66, 0
2, 98000, Note_off_c, 1, 78, 0
2, 98040, Note_on_c, 1, 66, 127
2, 98040, Note_on_c, 1, 78, 127
2, 98200, Note_off_c, 1, 66, 0
2, 98200, Note_off_c, 1, 78, 0
2, 98240, Note_on_c, 1, 48, 127
2, 98600, Note_off_c, 1, 48, 0
2, 98640, Note_on_c, 1, 51, 127
2, 99000, Note_off_c, 1, 51, 0
2, 99040, Note_on_c, 1, 78, 127
2, 99400, Note_off_c, 1, 78, 0
2, 99440, Note_on_c, 1, 81, 127
2, 99800, Note_off_c, 1, 81, 0
2, 99840, Note_on_c, 1, 80, 127
2, 100080, Note_off_c, 1, 80, 0
2, 100160, Note_on_c, 1, 81, 127
2, 100240, Note_off_c, 1, 81, 0
2, 100280, Note_on_c, 1, 78, 127
2, 100640, Note_off_c, 1, 78, 0
2, 100680, Note_on_c, 1, 63, 127
2, 101040, Note_off_c, 1, 63, 0
2, 101080, Note_on_c, 1, 61, 127
2, 101440, Note_off_c, 1, 61, 0
2, 101480, Note_on_c, 1, 80, 127
2, 101840, Note_off_c, 1, 80, 0
2, 101880, Note_on_c, 1, 76, 127
2, 102120, Note_off_c, 1, 76, 0
2, 102160, Note_on_c, 1, 75, 127
2, 102240, Note_off_c, 1, 75, 0
2, 102320, Note_on_c, 1, 73, 127
2, 102680, Note_off_c, 1, 73, 0
2, 102720, Note_on_c, 1, 68, 127
2, 103080, Note_off_c, 1, 68, 0
2, 103120, Note_on_c, 1, 64, 127
2, 103480, Note_off_c, 1, 64, 0
2, 103520, Note_on_c, 1, 68, 127
2, 103880, Note_off_c, 1, 68, 0
2, 103920, Note_on_c, 1, 48, 127
2, 103920, Note_on_c, 1, 66, 127
2, 104280, Note_off_c, 1, 48, 0
2, 104320, Note_on_c, 1, 49, 127
2, 104680, Note_off_c, 1, 49, 0
2, 104680, Note_off_c, 1, 66, 0
2, 104760, Note_on_c, 1, 47, 127
2, 104760, Note_on_c, 1, 63, 127
2, 105120, Note_off_c, 1, 47, 0
2, 105120, Note_off_c, 1, 63, 0
2, 105160, Note_on_c, 1, 44, 127
2, 105160, Note_on_c, 1, 61, 127
2, 105520, Note_off_c, 1, 44, 0
2, 105560, Note_on_c, 1, 45, 127
2, 105560, Note_on_c, 1, 57, 127
2, 105560, Note_off_c, 1, 61, 0
2, 105920, Note_off_c, 1, 45, 0
2, 105920, Note_off_c, 1, 57, 0
2, 105960, Note_on_c, 1, 54, 127
2, 105960, Note_on_c, 1, 61, 127
2, 106320, Note_off_c, 1, 54, 0
2, 106320, Note_off_c, 1, 61, 0
2, 120040, End_track
3, 0, Start_track
3, 0, Title_t, "MIDI"
3, 1536, End_track
0, 0, End_of_file
