0, 0, Header, 1, 3, 192
1, 0, Start_track
1, 0, Time_signature, 4, 2, 24, 8
1, 0, Tempo, 500000
1, 120040, End_track
2, 0, Start_track
2, 0, Text_t, "random instrument: random person i dunno whatev"
2, 0, Title_t, "Track 1"
2, 0, Note_on_c, 1, 58, 127
2, 0, Note_on_c, 1, 66, 127
2, 0, Note_on_c, 1, 78, 127
2, 0, Note_on_c, 1, 82, 127
2, 0, Note_on_c, 1, 90, 127
2, 40, Note_on_c, 1, 46, 127
2, 40, Note_off_c, 1, 66, 0
2, 40, Note_off_c, 1, 78, 0
2, 40, Note_on_c, 1, 86, 127
2, 40, Note_off_c, 1, 90, 0
2, 40, Note_on_c, 1, 94, 127
2, 80, Note_off_c, 1, 46, 0
2, 80, Note_off_c, 1, 58, 0
2, 80, Note_off_c, 1, 82, 0
2, 80, Note_off_c, 1, 86, 0
2, 80, Note_off_c, 1, 94, 0
2, 120, Note_on_c, 1, 58, 127
2, 120, Note_on_c, 1, 66, 127
2, 120, Note_on_c, 1, 78, 127
2, 120, Note_on_c, 1, 82, 127
2, 120, Note_on_c, 1, 90, 127
2, 360, Note_off_c, 1, 58, 0
2, 360, Note_off_c, 1, 66, 0
2, 360, Note_off_c, 1, 78, 0
2, 360, Note_off_c, 1, 82, 0
2, 360, Note_off_c, 1, 90, 0
2, 400, Note_on_c, 1, 51, 127
2, 400, Note_on_c, 1, 59, 127
2, 400, Note_on_c, 1, 71, 127
2, 400, Note_on_c, 1, 75, 127
2, 840, Note_off_c, 1, 51, 0
2, 840, Note_off_c, 1, 59, 0
2, 840, Note_off_c, 1, 71, 0
2, 840, Note_off_c, 1, 75, 0
2, 880, Note_on_c, 1, 44, 127
2, 880, Note_on_c, 1, 51, 127
2, 880, Note_on_c, 1, 63, 127
2, 880, Note_on_c, 1, 68, 127
2, 1640, Note_off_c, 1, 44, 0
2, 1640, Note_off_c, 1, 51, 0
2, 1640, Note_off_c, 1, 63, 0
2, 1640, Note_off_c, 1, 68, 0
2, 1680, Note_on_c, 1, 39, 127
2, 1680, Note_on_c, 1, 67, 127
2, 1680, Note_on_c, 1, 70, 127
2, 2040, Note_off_c, 1, 39, 0
2, 2040, Note_off_c, 1, 67, 0
2, 2040, Note_off_c, 1, 70, 0
2, 2080, Note_on_c, 1, 51, 127
2, 2080, Note_on_c, 1, 67, 127
2, 2240, Note_off_c, 1, 51, 0
2, 2240, Note_off_c, 1, 67, 0
2, 2280, Note_on_c, 1, 51, 127
2, 2280, Note_on_c, 1, 67, 127
2, 2520, Note_off_c, 1, 67, 0
2, 2560, Note_on_c, 1, 49, 127
2, 2560, Note_off_c, 1, 51, 0
2, 2560, Note_on_c, 1, 53, 127
2, 2560, Note_on_c, 1, 65, 127
2, 2560, Note_on_c, 1, 68, 127
2, 4400, Note_off_c, 1, 49, 0
2, 4400, Note_off_c, 1, 53, 0
2, 4400, Note_off_c, 1, 65, 0
2, 4400, Note_off_c, 1, 68, 0
2, 4440, Note_on_c, 1, 49, 127
2, 4440, Note_on_c, 1, 53, 127
2, 4440, Note_on_c, 1, 65, 127
2, 4440, Note_on_c, 1, 68, 127
2, 4680, Note_on_c, 1, 61, 127
2, 4680, Note_off_c, 1, 65, 0
2, 4720, Note_off_c, 1, 53, 0
2, 4720, Note_off_c, 1, 61, 0
2, 4720, Note_on_c, 1, 65, 127
2, 4720, Note_off_c, 1, 68, 0
2, 4760, Note_on_c, 1, 59, 127
2, 4760, Note_on_c, 1, 68, 127
2, 5800, Note_off_c, 1, 49, 0
2, 5800, Note_off_c, 1, 59, 0
2, 5800, Note_off_c, 1, 65, 0
2, 5800, Note_off_c, 1, 68, 0
2, 5840, Note_on_c, 1, 54, 127
2, 5840, Note_on_c, 1, 70, 127
2, 6680, Note_off_c, 1, 54, 0
2, 6680, Note_off_c, 1, 70, 0
2, 6760, Note_on_c, 1, 49, 127
2, 6760, Note_on_c, 1, 52, 127
2, 6760, Note_on_c, 1, 57, 127
2, 6760, Note_on_c, 1, 61, 127
2, 6760, Note_on_c, 1, 63, 127
2, 7360, Note_off_c, 1, 63, 0
2, 8160, Note_off_c, 1, 49, 0
2, 8160, Note_off_c, 1, 52, 0
2, 8160, Note_off_c, 1, 57, 0
2, 8160, Note_off_c, 1, 61, 0
2, 13400, Note_on_c, 1, 37, 127
2, 13400, Note_on_c, 1, 49, 127
2, 15240, Note_off_c, 1, 37, 0
2, 15240, Note_off_c, 1, 49, 0
2, 18240, Note_on_c, 1, 40, 127
2, 18240, Note_on_c, 1, 52, 127
2, 18240, Note_on_c, 1, 64, 127
2, 18920, Note_off_c, 1, 40, 0
2, 18920, Note_off_c, 1, 52, 0
2, 18920, Note_off_c, 1, 64, 0
2, 19000, Note_on_c, 1, 32, 127
2, 19000, Note_on_c, 1, 44, 127
2, 19000, Note_on_c, 1, 59, 127
2, 19000, Note_on_c, 1, 71, 127
2, 19400, Note_off_c, 1, 59, 0
2, 19440, Note_on_c, 1, 59, 127
2, 19800, Note_off_c, 1, 59, 0
2, 19840, Note_on_c, 1, 59, 127
2, 20200, Note_off_c, 1, 59, 0
2, 20240, Note_on_c, 1, 63, 127
2, 20600, Note_off_c, 1, 63, 0
2, 20640, Note_on_c, 1, 68, 127
2, 20840, Note_off_c, 1, 32, 0
2, 20840, Note_off_c, 1, 44, 0
2, 20840, Note_off_c, 1, 68, 0
2, 20840, Note_off_c, 1, 71, 0
2, 20880, Note_on_c, 1, 32, 127
2, 20880, Note_on_c, 1, 44, 127
2, 20880, Note_on_c, 1, 68, 127
2, 20880, Note_on_c, 1, 71, 127
2, 21040, Note_off_c, 1, 32, 0
2, 21040, Note_off_c, 1, 44, 0
2, 21040, Note_off_c, 1, 68, 0
2, 21040, Note_off_c, 1, 71, 0
2, 21080, Note_on_c, 1, 38, 127
2, 21080, Note_on_c, 1, 50, 127
2, 21080, Note_on_c, 1, 62, 127
2, 22280, Note_off_c, 1, 38, 0
2, 22280, Note_off_c, 1, 50, 0
2, 22280, Note_off_c, 1, 62, 0
2, 22320, Note_on_c, 1, 43, 127
2, 22320, Note_on_c, 1, 55, 127
2, 22320, Note_on_c, 1, 67, 127
2, 22960, Note_off_c, 1, 43, 0
2, 22960, Note_off_c, 1, 55, 0
2, 22960, Note_off_c, 1, 67, 0
2, 23000, Note_on_c, 1, 43, 127
2, 23000, Note_on_c, 1, 55, 127
2, 23000, Note_on_c, 1, 67, 127
2, 25520, Note_off_c, 1, 43, 0
2, 25520, Note_off_c, 1, 55, 0
2, 25520, Note_off_c, 1, 67, 0
2, 25560, Note_on_c, 1, 43, 127
2, 25560, Note_on_c, 1, 55, 127
2, 25560, Note_on_c, 1, 67, 127
2, 25720, Note_off_c, 1, 43, 0
2, 25720, Note_off_c, 1, 55, 0
2, 25720, Note_off_c, 1, 67, 0
2, 25760, Note_on_c, 1, 43, 127
2, 25760, Note_on_c, 1, 50, 127
2, 25760, Note_on_c, 1, 59, 127
2, 27680, Note_off_c, 1, 43, 0
2, 27680, Note_off_c, 1, 50, 0
2, 27680, Note_off_c, 1, 59, 0
2, 27720, Note_on_c, 1, 43, 127
2, 27720, Note_on_c, 1, 50, 127
2, 27720, Note_on_c, 1, 59, 127
2, 27880, Note_off_c, 1, 59, 0
2, 27920, Note_on_c, 1, 59, 127
2, 29840, Note_off_c, 1, 43, 0
2, 29840, Note_off_c, 1, 50, 0
2, 29840, Note_off_c, 1, 59, 0
2, 29880, Note_on_c, 1, 43, 127
2, 29880, Note_on_c, 1, 50, 127
2, 29880, Note_on_c, 1, 59, 127
2, 32440, Note_off_c, 1, 43, 0
2, 32440, Note_off_c, 1, 50, 0
2, 32440, Note_off_c, 1, 59, 0
2, 32480, Note_on_c, 1, 43, 127
2, 32480, Note_on_c, 1, 50, 127
2, 32480, Note_on_c, 1, 59, 127
2, 33640, Note_off_c, 1, 43, 0
2, 33640, Note_off_c, 1, 50, 0
2, 33640, Note_off_c, 1, 59, 0
2, 35640, Note_on_c, 1, 59, 127
2, 35880, Note_off_c, 1, 59, 0
2, 35920, Note_on_c, 1, 72, 127
2, 36480, Note_off_c, 1, 72, 0
2, 39080, Note_on_c, 1, 70, 127
2, 39280, Note_off_c, 1, 70, 0
2, 39320, Note_on_c, 1, 71, 127
2, 39480, Note_off_c, 1, 71, 0
2, 39520, Note_on_c, 1, 70, 127
2, 39920, Note_on_c, 1, 46, 127
2, 40320, Note_off_c, 1, 46, 0
2, 40320, Note_off_c, 1, 70, 0
2, 40400, Note_on_c, 1, 46, 127
2, 40400, Note_on_c, 1, 74, 127
2, 40960, Note_off_c, 1, 46, 0
2, 40960, Note_off_c, 1, 74, 0
2, 41000, Note_on_c, 1, 39, 127
2, 41000, Note_on_c, 1, 78, 127
2, 41800, Note_off_c, 1, 39, 0
2, 41800, Note_off_c, 1, 78, 0
2, 41840, Note_on_c, 1, 39, 127
2, 41840, Note_on_c, 1, 78, 127
2, 42240, Note_off_c, 1, 39, 0
2, 42240, Note_off_c, 1, 78, 0
2, 42320, Note_on_c, 1, 39, 127
2, 42320, Note_on_c, 1, 78, 127
2, 42680, Note_off_c, 1, 39, 0
2, 42720, Note_on_c, 1, 39, 127
2, 43080, Note_off_c, 1, 39, 0
2, 43120, Note_on_c, 1, 46, 127
2, 43120, Note_on_c, 1, 75, 127
2, 43120, Note_off_c, 1, 78, 0
2, 43480, Note_off_c, 1, 46, 0
2, 43520, Note_on_c, 1, 46, 127
2, 43880, Note_off_c, 1, 46, 0
2, 43920, Note_on_c, 1, 44, 127
2, 44240, Note_off_c, 1, 44, 0
2, 44240, Note_off_c, 1, 75, 0
2, 44280, Note_on_c, 1, 44, 127
2, 44280, Note_on_c, 1, 75, 127
2, 44320, Note_off_c, 1, 44, 0
2, 44360, Note_on_c, 1, 54, 127
2, 44760, Note_off_c, 1, 54, 0
2, 44800, Note_on_c, 1, 63, 127
2, 45160, Note_off_c, 1, 63, 0
2, 45160, Note_off_c, 1, 75, 0
2, 45200, Note_on_c, 1, 54, 127
2, 45200, Note_on_c, 1, 75, 127
2, 45600, Note_off_c, 1, 54, 0
2, 45640, Note_on_c, 1, 46, 127
2, 46000, Note_off_c, 1, 46, 0
2, 46040, Note_on_c, 1, 54, 127
2, 46360, Note_off_c, 1, 54, 0
2, 46360, Note_off_c, 1, 75, 0
2, 46400, Note_on_c, 1, 54, 127
2, 46400, Note_on_c, 1, 75, 127
2, 46440, Note_off_c, 1, 54, 0
2, 46480, Note_on_c, 1, 46, 127
2, 46840, Note_off_c, 1, 46, 0
2, 46880, Note_on_c, 1, 58, 127
2, 47280, Note_off_c, 1, 58, 0
2, 47320, Note_on_c, 1, 46, 127
2, 47680, Note_off_c, 1, 46, 0
2, 47720, Note_on_c, 1, 63, 127
2, 48080, Note_off_c, 1, 63, 0
2, 48120, Note_on_c, 1, 49, 127
2, 48480, Note_off_c, 1, 49, 0
2, 48520, Note_off_c, 1, 75, 0
2, 48560, Note_on_c, 1, 44, 127
2, 48560, Note_on_c, 1, 75, 127
2, 48920, Note_off_c, 1, 44, 0
2, 48920, Note_off_c, 1, 75, 0
2, 48960, Note_on_c, 1, 49, 127
2, 48960, Note_on_c, 1, 76, 127
2, 49320, Note_off_c, 1, 49, 0
2, 49360, Note_on_c, 1, 61, 127
2, 49720, Note_off_c, 1, 61, 0
2, 49720, Note_off_c, 1, 76, 0
2, 49760, Note_on_c, 1, 37, 127
2, 49760, Note_on_c, 1, 76, 127
2, 50120, Note_off_c, 1, 37, 0
2, 50160, Note_on_c, 1, 44, 127
2, 50520, Note_off_c, 1, 44, 0
2, 50560, Note_on_c, 1, 37, 127
2, 50920, Note_off_c, 1, 37, 0
2, 50920, Note_off_c, 1, 76, 0
2, 50960, Note_on_c, 1, 76, 127
2, 51000, Note_on_c, 1, 44, 127
2, 51360, Note_off_c, 1, 44, 0
2, 51400, Note_on_c, 1, 37, 127
2, 52160, Note_off_c, 1, 37, 0
2, 52160, Note_off_c, 1, 76, 0
2, 52200, Note_on_c, 1, 44, 127
2, 52200, Note_on_c, 1, 77, 127
2, 52560, Note_off_c, 1, 44, 0
2, 52600, Note_on_c, 1, 49, 127
2, 52960, Note_off_c, 1, 49, 0
2, 53000, Note_off_c, 1, 77, 0
2, 53040, Note_on_c, 1, 49, 127
2, 53040, Note_on_c, 1, 77, 127
2, 53400, Note_off_c, 1, 49, 0
2, 53440, Note_on_c, 1, 56, 127
2, 53800, Note_off_c, 1, 56, 0
2, 53840, Note_on_c, 1, 49, 127
2, 54200, Note_off_c, 1, 49, 0
2, 54240, Note_on_c, 1, 49, 127
2, 54600, Note_off_c, 1, 49, 0
2, 54640, Note_on_c, 1, 59, 127
2, 55000, Note_off_c, 1, 59, 0
2, 55040, Note_on_c, 1, 56, 127
2, 55360, Note_off_c, 1, 56, 0
2, 55360, Note_off_c, 1, 77, 0
2, 55400, Note_on_c, 1, 56, 127
2, 55400, Note_on_c, 1, 77, 127
2, 55440, Note_off_c, 1, 56, 0
2, 55480, Note_on_c, 1, 49, 127
2, 55840, Note_off_c, 1, 49, 0
2, 55880, Note_on_c, 1, 56, 127
2, 56240, Note_off_c, 1, 56, 0
2, 56280, Note_on_c, 1, 65, 127
2, 56640, Note_off_c, 1, 65, 0
2, 56640, Note_off_c, 1, 77, 0
2, 56680, Note_on_c, 1, 44, 127
2, 56680, Note_on_c, 1, 77, 127
2, 57040, Note_off_c, 1, 44, 0
2, 57080, Note_on_c, 1, 49, 127
2, 57440, Note_off_c, 1, 49, 0
2, 57480, Note_on_c, 1, 41, 127
2, 57640, Note_off_c, 1, 41, 0
2, 57640, Note_off_c, 1, 77, 0
2, 57680, Note_on_c, 1, 41, 127
2, 57680, Note_on_c, 1, 77, 127
2, 57880, Note_off_c, 1, 41, 0
2, 57880, Note_off_c, 1, 77, 0
2, 57920, Note_on_c, 1, 44, 127
2, 57920, Note_on_c, 1, 78, 127
2, 58280, Note_off_c, 1, 44, 0
2, 58320, Note_on_c, 1, 53, 127
2, 58680, Note_off_c, 1, 53, 0
2, 58720, Note_on_c, 1, 53, 127
2, 58720, Note_on_c, 1, 77, 127
2, 58720, Note_off_c, 1, 78, 0
2, 59080, Note_off_c, 1, 53, 0
2, 59120, Note_on_c, 1, 61, 127
2, 59480, Note_off_c, 1, 61, 0
2, 59480, Note_off_c, 1, 77, 0
2, 59520, Note_on_c, 1, 49, 127
2, 59520, Note_on_c, 1, 77, 127
2, 59880, Note_off_c, 1, 49, 0
2, 59920, Note_off_c, 1, 77, 0
2, 59960, Note_on_c, 1, 50, 127
2, 59960, Note_on_c, 1, 77, 127
2, 60320, Note_off_c, 1, 50, 0
2, 60360, Note_on_c, 1, 58, 127
2, 60720, Note_off_c, 1, 58, 0
2, 60760, Note_on_c, 1, 65, 127
2, 61120, Note_off_c, 1, 65, 0
2, 61120, Note_off_c, 1, 77, 0
2, 61160, Note_on_c, 1, 46, 127
2, 61160, Note_on_c, 1, 73, 127
2, 61520, Note_off_c, 1, 46, 0
2, 61560, Note_on_c, 1, 52, 127
2, 61920, Note_off_c, 1, 52, 0
2, 61960, Note_on_c, 1, 55, 127
2, 62200, Note_off_c, 1, 55, 0
2, 62200, Note_off_c, 1, 73, 0
2, 62240, Note_on_c, 1, 55, 127
2, 62240, Note_on_c, 1, 73, 127
2, 62360, Note_off_c, 1, 55, 0
2, 62360, Note_off_c, 1, 73, 0
2, 62400, Note_on_c, 1, 58, 127
2, 62400, Note_on_c, 1, 75, 127
2, 62800, Note_off_c, 1, 58, 0
2, 62800, Note_off_c, 1, 75, 0
2, 62840, Note_on_c, 1, 46, 127
2, 62840, Note_on_c, 1, 78, 127
2, 63200, Note_off_c, 1, 46, 0
2, 63240, Note_on_c, 1, 63, 127
2, 64040, Note_off_c, 1, 63, 0
2, 64040, Note_off_c, 1, 78, 0
2, 64080, Note_on_c, 1, 49, 127
2, 64080, Note_on_c, 1, 77, 127
2, 64400, Note_off_c, 1, 49, 0
2, 64400, Note_off_c, 1, 77, 0
2, 64440, Note_on_c, 1, 49, 127
2, 64440, Note_on_c, 1, 77, 127
2, 64480, Note_off_c, 1, 49, 0
2, 64520, Note_on_c, 1, 56, 127
2, 64880, Note_off_c, 1, 56, 0
2, 64920, Note_on_c, 1, 53, 127
2, 65280, Note_off_c, 1, 53, 0
2, 65320, Note_on_c, 1, 49, 127
2, 65680, Note_off_c, 1, 49, 0
2, 65720, Note_on_c, 1, 56, 127
2, 66080, Note_off_c, 1, 56, 0
2, 66120, Note_on_c, 1, 49, 127
2, 66480, Note_off_c, 1, 49, 0
2, 66520, Note_on_c, 1, 53, 127
2, 66760, Note_off_c, 1, 53, 0
2, 66760, Note_off_c, 1, 77, 0
2, 66800, Note_on_c, 1, 53, 127
2, 66800, Note_on_c, 1, 77, 127
2, 66960, Note_off_c, 1, 53, 0
2, 67000, Note_on_c, 1, 41, 127
2, 67360, Note_off_c, 1, 41, 0
2, 67360, Note_off_c, 1, 77, 0
2, 67400, Note_on_c, 1, 39, 127
2, 67400, Note_on_c, 1, 75, 127
2, 68160, Note_off_c, 1, 39, 0
2, 68200, Note_on_c, 1, 46, 127
2, 68560, Note_off_c, 1, 46, 0
2, 68600, Note_on_c, 1, 39, 127
2, 68960, Note_off_c, 1, 39, 0
2, 69000, Note_off_c, 1, 75, 0
2, 69040, Note_on_c, 1, 46, 127
2, 69040, Note_on_c, 1, 75, 127
2, 69400, Note_off_c, 1, 46, 0
2, 69440, Note_on_c, 1, 51, 127
2, 69800, Note_off_c, 1, 51, 0
2, 69840, Note_on_c, 1, 54, 127
2, 70200, Note_off_c, 1, 54, 0
2, 70200, Note_off_c, 1, 75, 0
2, 70240, Note_on_c, 1, 63, 127
2, 70240, Note_on_c, 1, 77, 127
2, 70600, Note_off_c, 1, 63, 0
2, 70600, Note_off_c, 1, 77, 0
2, 70640, Note_on_c, 1, 39, 127
2, 70640, Note_on_c, 1, 78, 127
2, 71040, Note_off_c, 1, 39, 0
2, 71040, Note_off_c, 1, 78, 0
2, 71120, Note_on_c, 1, 39, 127
2, 71120, Note_on_c, 1, 78, 127
2, 71480, Note_off_c, 1, 39, 0
2, 71520, Note_on_c, 1, 46, 127
2, 71880, Note_off_c, 1, 46, 0
2, 71920, Note_on_c, 1, 49, 127
2, 72280, Note_off_c, 1, 49, 0
2, 72320, Note_on_c, 1, 47, 127
2, 72680, Note_off_c, 1, 47, 0
2, 72720, Note_on_c, 1, 60, 127
2, 73080, Note_off_c, 1, 60, 0
2, 73080, Note_off_c, 1, 78, 0
2, 73160, Note_on_c, 1, 49, 127
2, 73160, Note_on_c, 1, 77, 127
2, 73520, Note_off_c, 1, 49, 0
2, 73560, Note_on_c, 1, 54, 127
2, 73920, Note_off_c, 1, 54, 0
2, 73960, Note_on_c, 1, 61, 127
2, 74320, Note_off_c, 1, 61, 0
2, 74320, Note_off_c, 1, 77, 0
2, 74360, Note_on_c, 1, 42, 127
2, 74360, Note_on_c, 1, 78, 127
2, 74720, Note_off_c, 1, 42, 0
2, 74760, Note_on_c, 1, 44, 127
2, 75160, Note_off_c, 1, 44, 0
2, 75200, Note_off_c, 1, 78, 0
2, 75240, Note_on_c, 1, 44, 127
2, 75240, Note_on_c, 1, 78, 127
2, 75600, Note_off_c, 1, 44, 0
2, 75640, Note_on_c, 1, 45, 127
2, 76000, Note_off_c, 1, 45, 0
2, 76040, Note_on_c, 1, 49, 127
2, 76440, Note_off_c, 1, 49, 0
2, 76480, Note_on_c, 1, 54, 127
2, 76880, Note_off_c, 1, 54, 0
2, 76920, Note_on_c, 1, 58, 127
2, 77280, Note_off_c, 1, 58, 0
2, 77320, Note_off_c, 1, 78, 0
2, 77360, Note_on_c, 1, 39, 127
2, 77360, Note_on_c, 1, 78, 127
2, 77720, Note_off_c, 1, 39, 0
2, 77760, Note_on_c, 1, 54, 127
2, 78120, Note_off_c, 1, 54, 0
2, 78160, Note_on_c, 1, 54, 127
2, 78520, Note_off_c, 1, 54, 0
2, 78560, Note_on_c, 1, 49, 127
2, 78960, Note_off_c, 1, 49, 0
2, 78960, Note_off_c, 1, 78, 0
2, 79000, Note_on_c, 1, 49, 127
2, 79000, Note_on_c, 1, 82, 127
2, 79320, Note_off_c, 1, 49, 0
2, 79320, Note_off_c, 1, 82, 0
2, 79360, Note_on_c, 1, 49, 127
2, 79360, Note_on_c, 1, 82, 127
2, 79400, Note_off_c, 1, 49, 0
2, 79440, Note_on_c, 1, 51, 127
2, 79800, Note_off_c, 1, 51, 0
2, 79840, Note_on_c, 1, 61, 127
2, 80200, Note_off_c, 1, 61, 0
2, 80200, Note_off_c, 1, 82, 0
2, 80240, Note_on_c, 1, 54, 127
2, 80240, Note_on_c, 1, 82, 127
2, 80600, Note_off_c, 1, 54, 0
2, 80640, Note_on_c, 1, 61, 127
2, 81000, Note_off_c, 1, 61, 0
2, 81040, Note_on_c, 1, 54, 127
2, 81400, Note_off_c, 1, 54, 0
2, 81440, Note_on_c, 1, 61, 127
2, 81640, Note_off_c, 1, 61, 0
2, 81640, Note_off_c, 1, 82, 0
2, 81680, Note_on_c, 1, 61, 127
2, 81680, Note_on_c, 1, 82, 127
2, 81880, Note_off_c, 1, 61, 0
2, 81880, Note_off_c, 1, 82, 0
2, 81920, Note_on_c, 1, 39, 127
2, 81920, Note_on_c, 1, 80, 127
2, 82280, Note_off_c, 1, 39, 0
2, 82280, Note_off_c, 1, 80, 0
2, 82320, Note_on_c, 1, 54, 127
2, 82320, Note_on_c, 1, 82, 127
2, 82680, Note_off_c, 1, 54, 0
2, 82720, Note_on_c, 1, 61, 127
2, 83080, Note_off_c, 1, 61, 0
2, 83080, Note_off_c, 1, 82, 0
2, 83120, Note_on_c, 1, 56, 127
2, 83120, Note_on_c, 1, 80, 127
2, 83480, Note_off_c, 1, 56, 0
2, 83520, Note_on_c, 1, 61, 127
2, 83840, Note_off_c, 1, 61, 0
2, 83840, Note_off_c, 1, 80, 0
2, 83880, Note_on_c, 1, 61, 127
2, 83880, Note_on_c, 1, 80, 127
2, 83920, Note_off_c, 1, 61, 0
2, 83920, Note_off_c, 1, 80, 0
2, 83960, Note_on_c, 1, 53, 127
2, 83960, Note_on_c, 1, 80, 127
2, 84320, Note_off_c, 1, 53, 0
2, 84320, Note_off_c, 1, 80, 0
2, 84360, Note_on_c, 1, 63, 127
2, 84360, Note_on_c, 1, 78, 127
2, 84720, Note_off_c, 1, 63, 0
2, 84760, Note_on_c, 1, 66, 127
2, 85160, Note_off_c, 1, 66, 0
2, 85200, Note_on_c, 1, 53, 127
2, 85560, Note_off_c, 1, 53, 0
2, 85600, Note_on_c, 1, 53, 127
2, 85960, Note_off_c, 1, 53, 0
2, 85960, Note_off_c, 1, 78, 0
2, 86000, Note_on_c, 1, 53, 127
2, 86000, Note_on_c, 1, 78, 127
2, 86040, Note_off_c, 1, 53, 0
2, 86080, Note_on_c, 1, 60, 127
2, 86440, Note_off_c, 1, 60, 0
2, 86480, Note_on_c, 1, 49, 127
2, 86480, Note_on_c, 1, 77, 127
2, 86480, Note_off_c, 1, 78, 0
2, 86840, Note_off_c, 1, 49, 0
2, 86880, Note_on_c, 1, 49, 127
2, 87240, Note_off_c, 1, 49, 0
2, 87280, Note_on_c, 1, 51, 127
2, 87640, Note_off_c, 1, 51, 0
2, 87680, Note_on_c, 1, 65, 127
2, 88080, Note_off_c, 1, 65, 0
2, 88080, Note_off_c, 1, 77, 0
2, 88160, Note_on_c, 1, 45, 127
2, 88160, Note_on_c, 1, 69, 127
2, 88520, Note_off_c, 1, 45, 0
2, 88560, Note_on_c, 1, 54, 127
2, 88920, Note_off_c, 1, 54, 0
2, 88960, Note_on_c, 1, 64, 127
2, 89320, Note_off_c, 1, 64, 0
2, 89360, Note_on_c, 1, 48, 127
2, 89720, Note_off_c, 1, 48, 0
2, 89760, Note_on_c, 1, 63, 127
2, 90120, Note_off_c, 1, 63, 0
2, 90160, Note_off_c, 1, 69, 0
2, 90200, Note_on_c, 1, 63, 127
2, 90200, Note_on_c, 1, 69, 127
2, 90560, Note_off_c, 1, 63, 0
2, 90600, Note_on_c, 1, 57, 127
2, 90960, Note_off_c, 1, 57, 0
2, 91000, Note_on_c, 1, 52, 127
2, 91000, Note_on_c, 1, 68, 127
2, 91000, Note_off_c, 1, 69, 0
2, 91360, Note_off_c, 1, 52, 0
2, 91360, Note_off_c, 1, 68, 0
2, 91400, Note_on_c, 1, 57, 127
2, 91400, Note_on_c, 1, 66, 127
2, 91760, Note_off_c, 1, 57, 0
2, 91800, Note_on_c, 1, 54, 127
2, 92200, Note_off_c, 1, 54, 0
2, 92240, Note_off_c, 1, 66, 0
2, 92280, Note_on_c, 1, 47, 127
2, 92280, Note_on_c, 1, 66, 127
2, 92640, Note_off_c, 1, 47, 0
2, 92680, Note_on_c, 1, 54, 127
2, 92680, Note_off_c, 1, 66, 0
2, 93040, Note_off_c, 1, 54, 0
2, 93080, Note_on_c, 1, 59, 127
2, 93440, Note_off_c, 1, 59, 0
2, 93480, Note_on_c, 1, 52, 127
2, 93840, Note_off_c, 1, 52, 0
2, 93880, Note_on_c, 1, 47, 127
2, 94240, Note_off_c, 1, 47, 0
2, 94280, Note_on_c, 1, 63, 127
2, 94280, Note_on_c, 1, 69, 127
2, 94280, Note_on_c, 1, 73, 127
2, 94280, Note_on_c, 1, 76, 127
2, 94280, Note_on_c, 1, 80, 127
2, 94680, Note_off_c, 1, 63, 0
2, 94680, Note_off_c, 1, 69, 0
2, 94680, Note_off_c, 1, 73, 0
2, 94680, Note_off_c, 1, 76, 0
2, 94680, Note_off_c, 1, 80, 0
2, 94720, Note_on_c, 1, 63, 127
2, 94720, Note_on_c, 1, 69, 127
2, 94720, Note_on_c, 1, 73, 127
2, 94720, Note_on_c, 1, 76, 127
2, 94720, Note_on_c, 1, 80, 127
2, 95520, Note_off_c, 1, 63, 0
2, 95520, Note_off_c, 1, 69, 0
2, 95520, Note_off_c, 1, 73, 0
2, 95520, Note_off_c, 1, 76, 0
2, 95520, Note_off_c, 1, 80, 0
2, 95560, Note_on_c, 1, 40, 127
2, 95560, Note_on_c, 1, 44, 127
2, 95560, Note_on_c, 1, 47, 127
2, 95560, Note_on_c, 1, 52, 127
2, 95560, Note_on_c, 1, 92, 127
2, 95560, Note_on_c, 1, 104, 127
2, 95600, Note_on_c, 1, 35, 127
2, 95600, Note_off_c, 1, 40, 0
2, 95600, Note_on_c, 1, 41, 127
2, 95600, Note_off_c, 1, 47, 0
2, 95600, Note_on_c, 1, 50, 127
2, 95600, Note_off_c, 1, 52, 0
2, 95600, Note_on_c, 1, 53, 127
2, 95600, Note_on_c, 1, 59, 127
2, 95600, Note_off_c, 1, 92, 0
2, 95600, Note_off_c, 1, 104, 0
2, 95640, Note_off_c, 1, 35, 0
2, 95640, Note_on_c, 1, 40, 127
2, 95640, Note_off_c, 1, 41, 0
2, 95640, Note_on_c, 1, 47, 127
2, 95640, Note_off_c, 1, 50, 0
2, 95640, Note_on_c, 1, 52, 127
2, 95640, Note_off_c, 1, 53, 0
2, 95640, Note_off_c, 1, 59, 0
2, 95640, Note_on_c, 1, 92, 127
2, 95640, Note_on_c, 1, 104, 127
2, 95680, Note_off_c, 1, 92, 0
2, 95680, Note_off_c, 1, 104, 0
2, 95720, Note_on_c, 1, 92, 127
2, 95720, Note_on_c, 1, 104, 127
2, 95760, Note_off_c, 1, 92, 0
2, 95760, Note_off_c, 1, 104, 0
2, 96320, Note_off_c, 1, 40, 0
2, 96320, Note_off_c, 1, 44, 0
2, 96320, Note_off_c, 1, 47, 0
2, 96320, Note_off_c, 1, 52, 0
2, 96360, Note_on_c, 1, 40, 127
2, 96800, Note_off_c, 1, 40, 0
2, 96840, Note_on_c, 1, 40, 127
2, 97200, Note_off_c, 1, 40, 0
2, 97240, Note_on_c, 1, 37, 127
2, 97600, Note_off_c, 1, 37, 0
2, 97640, Note_on_c, 1, 40, 127
2, 98000, Note_off_c, 1, 40, 0
2, 98040, Note_on_c, 1, 47, 127
2, 98400, Note_off_c, 1, 47, 0
2, 98440, Note_on_c, 1, 40, 127
2, 98800, Note_off_c, 1, 40, 0
2, 98840, Note_on_c, 1, 47, 127
2, 98960, Note_off_c, 1, 47, 0
2, 99000, Note_on_c, 1, 47, 127
2, 99240, Note_off_c, 1, 47, 0
2, 99280, Note_on_c, 1, 51, 127
2, 99680, Note_off_c, 1, 51, 0
2, 99720, Note_on_c, 1, 52, 127
2, 100080, Note_off_c, 1, 52, 0
2, 100120, Note_on_c, 1, 59, 127
2, 100880, Note_off_c, 1, 59, 0
2, 100920, Note_on_c, 1, 57, 127
2, 101280, Note_off_c, 1, 57, 0
2, 101360, Note_on_c, 1, 56, 127
2, 101760, Note_off_c, 1, 56, 0
2, 101800, Note_on_c, 1, 47, 127
2, 102160, Note_off_c, 1, 47, 0
2, 102200, Note_on_c, 1, 37, 127
2, 102200, Note_on_c, 1, 61, 127
2, 102960, Note_off_c, 1, 37, 0
2, 102960, Note_off_c, 1, 61, 0
2, 103000, Note_on_c, 1, 49, 127
2, 103320, Note_off_c, 1, 49, 0
2, 103360, Note_on_c, 1, 49, 127
2, 103400, Note_off_c, 1, 49, 0
2, 103440, Note_on_c, 1, 54, 127
2, 103800, Note_off_c, 1, 54, 0
2, 103840, Note_on_c, 1, 52, 127
2, 104200, Note_off_c, 1, 52, 0
2, 104240, Note_on_c, 1, 52, 127
2, 104600, Note_off_c, 1, 52, 0
2, 104640, Note_on_c, 1, 58, 127
2, 105040, Note_off_c, 1, 58, 0
2, 105040, Note_on_c, 1, 61, 127
2, 105440, Note_off_c, 1, 61, 0
2, 105480, Note_on_c, 1, 54, 127
2, 105840, Note_off_c, 1, 54, 0
2, 105880, Note_on_c, 1, 52, 127
2, 106240, Note_off_c, 1, 52, 0
2, 107360, Note_on_c, 1, 33, 127
2, 107360, Note_on_c, 1, 45, 127
2, 108160, Note_off_c, 1, 33, 0
2, 108160, Note_off_c, 1, 45, 0
2, 108200, Note_on_c, 1, 32, 127
2, 108200, Note_on_c, 1, 44, 127
2, 108560, Note_off_c, 1, 32, 0
2, 108560, Note_off_c, 1, 44, 0
2, 109480, Note_on_c, 1, 37, 127
2, 109480, Note_on_c, 1, 49, 127
2, 111080, Note_off_c, 1, 37, 0
2, 111080, Note_off_c, 1, 49, 0
2, 112200, Note_on_c, 1, 38, 127
2, 112200, Note_on_c, 1, 50, 127
2, 112960, Note_off_c, 1, 38, 0
2, 112960, Note_off_c, 1, 50, 0
2, 113040, Note_on_c, 1, 45, 127
2, 113040, Note_on_c, 1, 49, 127
2, 113040, Note_on_c, 1, 52, 127
2, 113040, Note_on_c, 1, 57, 127
2, 113800, Note_off_c, 1, 45, 0
2, 113800, Note_off_c, 1, 49, 0
2, 113800, Note_off_c, 1, 52, 0
2, 113800, Note_off_c, 1, 57, 0
2, 120040, End_track
3, 0, Start_track
3, 0, Title_t, "MIDI"
3, 1536, End_track
0, 0, End_of_file
