0, 0, Header, 1, 3, 192
1, 0, Start_track
1, 0, Time_signature, 4, 2, 24, 8
1, 0, Tempo, 500000
1, 120040, End_track
2, 0, Start_track
2, 0, Text_t, "random instrument: random person i dunno whatev"
2, 0, Title_t, "Track 1"
2, 0, Note_on_c, 1, 58, 127
2, 0, Note_on_c, 1, 66, 127
2, 0, Note_on_c, 1, 78, 127
2, 0, Note_on_c, 1, 82, 127
2, 0, Note_on_c, 1, 90, 127
2, 40, Note_off_c, 1, 58, 0
2, 40, Note_on_c, 1, 59, 127
2, 40, Note_off_c, 1, 66, 0
2, 40, Note_on_c, 1, 74, 127
2, 40, Note_off_c, 1, 82, 0
2, 40, Note_on_c, 1, 83, 127
2, 40, Note_on_c, 1, 86, 127
2, 40, Note_off_c, 1, 90, 0
2, 80, Note_off_c, 1, 59, 0
2, 80, Note_off_c, 1, 74, 0
2, 80, Note_off_c, 1, 78, 0
2, 80, Note_off_c, 1, 83, 0
2, 80, Note_off_c, 1, 86, 0
2, 120, Note_on_c, 1, 58, 127
2, 120, Note_on_c, 1, 66, 127
2, 120, Note_on_c, 1, 78, 127
2, 120, Note_on_c, 1, 82, 127
2, 120, Note_on_c, 1, 90, 127
2, 360, Note_off_c, 1, 58, 0
2, 360, Note_off_c, 1, 66, 0
2, 360, Note_off_c, 1, 78, 0
2, 360, Note_off_c, 1, 82, 0
2, 360, Note_off_c, 1, 90, 0
2, 400, Note_on_c, 1, 51, 127
2, 400, Note_on_c, 1, 59, 127
2, 400, Note_on_c, 1, 71, 127
2, 400, Note_on_c, 1, 75, 127
2, 840, Note_off_c, 1, 51, 0
2, 840, Note_off_c, 1, 59, 0
2, 840, Note_off_c, 1, 71, 0
2, 840, Note_off_c, 1, 75, 0
2, 880, Note_on_c, 1, 44, 127
2, 880, Note_on_c, 1, 51, 127
2, 880, Note_on_c, 1, 63, 127
2, 880, Note_on_c, 1, 68, 127
2, 1640, Note_off_c, 1, 44, 0
2, 1640, Note_off_c, 1, 51, 0
2, 1640, Note_off_c, 1, 63, 0
2, 1640, Note_off_c, 1, 68, 0
2, 1680, Note_on_c, 1, 39, 127
2, 1680, Note_on_c, 1, 67, 127
2, 1680, Note_on_c, 1, 70, 127
2, 2040, Note_off_c, 1, 39, 0
2, 2040, Note_off_c, 1, 67, 0
2, 2040, Note_off_c, 1, 70, 0
2, 2080, Note_on_c, 1, 51, 127
2, 2080, Note_on_c, 1, 67, 127
2, 2280, Note_off_c, 1, 51, 0
2, 2280, Note_off_c, 1, 67, 0
2, 2360, Note_on_c, 1, 51, 127
2, 2360, Note_on_c, 1, 67, 127
2, 2520, Note_off_c, 1, 67, 0
2, 2560, Note_on_c, 1, 70, 127
2, 2760, Note_off_c, 1, 51, 0
2, 2760, Note_off_c, 1, 70, 0
2, 2800, Note_on_c, 1, 48, 127
2, 2800, Note_on_c, 1, 67, 127
2, 2800, Note_on_c, 1, 72, 127
2, 3160, Note_off_c, 1, 48, 0
2, 3160, Note_off_c, 1, 67, 0
2, 3160, Note_off_c, 1, 72, 0
2, 3200, Note_on_c, 1, 48, 127
2, 3200, Note_on_c, 1, 55, 127
2, 3200, Note_on_c, 1, 63, 127
2, 3200, Note_on_c, 1, 75, 127
2, 3960, Note_off_c, 1, 48, 0
2, 3960, Note_off_c, 1, 55, 0
2, 3960, Note_off_c, 1, 63, 0
2, 3960, Note_off_c, 1, 75, 0
2, 4000, Note_on_c, 1, 46, 127
2, 4000, Note_on_c, 1, 51, 127
2, 4000, Note_on_c, 1, 67, 127
2, 4000, Note_on_c, 1, 75, 127
2, 4000, Note_on_c, 1, 79, 127
2, 4400, Note_off_c, 1, 46, 0
2, 4400, Note_off_c, 1, 51, 0
2, 4400, Note_off_c, 1, 67, 0
2, 4400, Note_off_c, 1, 75, 0
2, 4400, Note_off_c, 1, 79, 0
2, 4480, Note_on_c, 1, 46, 127
2, 4480, Note_on_c, 1, 51, 127
2, 4480, Note_on_c, 1, 67, 127
2, 4480, Note_on_c, 1, 75, 127
2, 4480, Note_on_c, 1, 79, 127
2, 4840, Note_off_c, 1, 46, 0
2, 4840, Note_off_c, 1, 51, 0
2, 4840, Note_off_c, 1, 67, 0
2, 4840, Note_off_c, 1, 75, 0
2, 4840, Note_off_c, 1, 79, 0
2, 4880, Note_on_c, 1, 46, 127
2, 4880, Note_on_c, 1, 51, 127
2, 4880, Note_on_c, 1, 67, 127
2, 4880, Note_on_c, 1, 75, 127
2, 4880, Note_on_c, 1, 79, 127
2, 5240, Note_off_c, 1, 46, 0
2, 5240, Note_off_c, 1, 51, 0
2, 5240, Note_off_c, 1, 67, 0
2, 5240, Note_off_c, 1, 75, 0
2, 5240, Note_off_c, 1, 79, 0
2, 5280, Note_on_c, 1, 46, 127
2, 5280, Note_on_c, 1, 51, 127
2, 5280, Note_on_c, 1, 67, 127
2, 5280, Note_on_c, 1, 75, 127
2, 5280, Note_on_c, 1, 79, 127
2, 5640, Note_off_c, 1, 46, 0
2, 5640, Note_off_c, 1, 51, 0
2, 5640, Note_off_c, 1, 67, 0
2, 5640, Note_off_c, 1, 75, 0
2, 5640, Note_off_c, 1, 79, 0
2, 5680, Note_on_c, 1, 46, 127
2, 5680, Note_on_c, 1, 51, 127
2, 5680, Note_on_c, 1, 67, 127
2, 5680, Note_on_c, 1, 75, 127
2, 5680, Note_on_c, 1, 79, 127
2, 6040, Note_off_c, 1, 46, 0
2, 6040, Note_off_c, 1, 51, 0
2, 6040, Note_off_c, 1, 67, 0
2, 6040, Note_off_c, 1, 75, 0
2, 6040, Note_off_c, 1, 79, 0
2, 6080, Note_on_c, 1, 46, 127
2, 6080, Note_on_c, 1, 51, 127
2, 6080, Note_on_c, 1, 67, 127
2, 6080, Note_on_c, 1, 75, 127
2, 6080, Note_on_c, 1, 79, 127
2, 6440, Note_off_c, 1, 46, 0
2, 6440, Note_off_c, 1, 51, 0
2, 6440, Note_off_c, 1, 67, 0
2, 6440, Note_off_c, 1, 75, 0
2, 6440, Note_off_c, 1, 79, 0
2, 6480, Note_on_c, 1, 46, 127
2, 6480, Note_on_c, 1, 51, 127
2, 6480, Note_on_c, 1, 67, 127
2, 6480, Note_on_c, 1, 75, 127
2, 6480, Note_on_c, 1, 79, 127
2, 6840, Note_off_c, 1, 46, 0
2, 6840, Note_off_c, 1, 51, 0
2, 6840, Note_off_c, 1, 67, 0
2, 6840, Note_off_c, 1, 75, 0
2, 6840, Note_off_c, 1, 79, 0
2, 6920, Note_on_c, 1, 46, 127
2, 6920, Note_on_c, 1, 51, 127
2, 6920, Note_on_c, 1, 67, 127
2, 6920, Note_on_c, 1, 75, 127
2, 6920, Note_on_c, 1, 79, 127
2, 7280, Note_off_c, 1, 46, 0
2, 7280, Note_off_c, 1, 51, 0
2, 7280, Note_off_c, 1, 67, 0
2, 7280, Note_off_c, 1, 75, 0
2, 7280, Note_off_c, 1, 79, 0
2, 7320, Note_on_c, 1, 46, 127
2, 7320, Note_on_c, 1, 51, 127
2, 7320, Note_on_c, 1, 67, 127
2, 7320, Note_on_c, 1, 75, 127
2, 7320, Note_on_c, 1, 79, 127
2, 7680, Note_off_c, 1, 46, 0
2, 7680, Note_off_c, 1, 51, 0
2, 7680, Note_off_c, 1, 67, 0
2, 7680, Note_off_c, 1, 75, 0
2, 7680, Note_off_c, 1, 79, 0
2, 7720, Note_on_c, 1, 46, 127
2, 7720, Note_on_c, 1, 51, 127
2, 7720, Note_on_c, 1, 67, 127
2, 7720, Note_on_c, 1, 75, 127
2, 7720, Note_on_c, 1, 79, 127
2, 8080, Note_off_c, 1, 46, 0
2, 8080, Note_off_c, 1, 51, 0
2, 8080, Note_off_c, 1, 67, 0
2, 8080, Note_off_c, 1, 75, 0
2, 8080, Note_off_c, 1, 79, 0
2, 8120, Note_on_c, 1, 46, 127
2, 8120, Note_on_c, 1, 51, 127
2, 8120, Note_on_c, 1, 67, 127
2, 8120, Note_on_c, 1, 75, 127
2, 8120, Note_on_c, 1, 79, 127
2, 8440, Note_on_c, 1, 33, 127
2, 8440, Note_on_c, 1, 45, 127
2, 8440, Note_off_c, 1, 46, 0
2, 8440, Note_off_c, 1, 51, 0
2, 8440, Note_on_c, 1, 73, 127
2, 8440, Note_off_c, 1, 75, 0
2, 8480, Note_off_c, 1, 33, 0
2, 8480, Note_off_c, 1, 45, 0
2, 8480, Note_off_c, 1, 67, 0
2, 8480, Note_off_c, 1, 73, 0
2, 8480, Note_off_c, 1, 79, 0
2, 8520, Note_on_c, 1, 46, 127
2, 8520, Note_on_c, 1, 51, 127
2, 8520, Note_on_c, 1, 67, 127
2, 8520, Note_on_c, 1, 75, 127
2, 8520, Note_on_c, 1, 79, 127
2, 8880, Note_off_c, 1, 46, 0
2, 8880, Note_off_c, 1, 51, 0
2, 8880, Note_off_c, 1, 67, 0
2, 8880, Note_off_c, 1, 75, 0
2, 8880, Note_off_c, 1, 79, 0
2, 8920, Note_on_c, 1, 46, 127
2, 8920, Note_on_c, 1, 51, 127
2, 8920, Note_on_c, 1, 67, 127
2, 8920, Note_on_c, 1, 75, 127
2, 8920, Note_on_c, 1, 79, 127
2, 9120, Note_off_c, 1, 46, 0
2, 9120, Note_off_c, 1, 51, 0
2, 9120, Note_off_c, 1, 67, 0
2, 9120, Note_off_c, 1, 75, 0
2, 9120, Note_off_c, 1, 79, 0
2, 9160, Note_on_c, 1, 46, 127
2, 9160, Note_on_c, 1, 51, 127
2, 9160, Note_on_c, 1, 67, 127
2, 9160, Note_on_c, 1, 75, 127
2, 9160, Note_on_c, 1, 79, 127
2, 9320, Note_off_c, 1, 46, 0
2, 9320, Note_off_c, 1, 51, 0
2, 9320, Note_off_c, 1, 67, 0
2, 9320, Note_off_c, 1, 75, 0
2, 9320, Note_off_c, 1, 79, 0
2, 9360, Note_on_c, 1, 46, 127
2, 9360, Note_on_c, 1, 51, 127
2, 9360, Note_on_c, 1, 67, 127
2, 9360, Note_on_c, 1, 75, 127
2, 9360, Note_on_c, 1, 79, 127
2, 9720, Note_off_c, 1, 46, 0
2, 9720, Note_off_c, 1, 51, 0
2, 9720, Note_off_c, 1, 67, 0
2, 9720, Note_off_c, 1, 75, 0
2, 9720, Note_off_c, 1, 79, 0
2, 9760, Note_on_c, 1, 46, 127
2, 9760, Note_on_c, 1, 51, 127
2, 9760, Note_on_c, 1, 67, 127
2, 9760, Note_on_c, 1, 75, 127
2, 9760, Note_on_c, 1, 79, 127
2, 10120, Note_off_c, 1, 46, 0
2, 10120, Note_off_c, 1, 51, 0
2, 10120, Note_off_c, 1, 67, 0
2, 10120, Note_off_c, 1, 75, 0
2, 10120, Note_off_c, 1, 79, 0
2, 10160, Note_on_c, 1, 46, 127
2, 10160, Note_on_c, 1, 51, 127
2, 10160, Note_on_c, 1, 67, 127
2, 10160, Note_on_c, 1, 75, 127
2, 10160, Note_on_c, 1, 79, 127
2, 10520, Note_off_c, 1, 46, 0
2, 10520, Note_off_c, 1, 51, 0
2, 10520, Note_off_c, 1, 67, 0
2, 10520, Note_off_c, 1, 75, 0
2, 10520, Note_off_c, 1, 79, 0
2, 10560, Note_on_c, 1, 46, 127
2, 10560, Note_on_c, 1, 51, 127
2, 10560, Note_on_c, 1, 67, 127
2, 10560, Note_on_c, 1, 75, 127
2, 10560, Note_on_c, 1, 79, 127
2, 10920, Note_off_c, 1, 46, 0
2, 10920, Note_off_c, 1, 51, 0
2, 10920, Note_off_c, 1, 67, 0
2, 10920, Note_off_c, 1, 75, 0
2, 10920, Note_off_c, 1, 79, 0
2, 10960, Note_on_c, 1, 46, 127
2, 10960, Note_on_c, 1, 51, 127
2, 10960, Note_on_c, 1, 67, 127
2, 10960, Note_on_c, 1, 75, 127
2, 10960, Note_on_c, 1, 79, 127
2, 11320, Note_off_c, 1, 46, 0
2, 11320, Note_off_c, 1, 51, 0
2, 11320, Note_off_c, 1, 67, 0
2, 11320, Note_off_c, 1, 75, 0
2, 11320, Note_off_c, 1, 79, 0
2, 11400, Note_on_c, 1, 46, 127
2, 11400, Note_on_c, 1, 51, 127
2, 11400, Note_on_c, 1, 67, 127
2, 11400, Note_on_c, 1, 75, 127
2, 11400, Note_on_c, 1, 79, 127
2, 11760, Note_off_c, 1, 46, 0
2, 11760, Note_off_c, 1, 51, 0
2, 11760, Note_off_c, 1, 67, 0
2, 11760, Note_off_c, 1, 75, 0
2, 11760, Note_off_c, 1, 79, 0
2, 11800, Note_on_c, 1, 46, 127
2, 11800, Note_on_c, 1, 51, 127
2, 11800, Note_on_c, 1, 67, 127
2, 11800, Note_on_c, 1, 75, 127
2, 11800, Note_on_c, 1, 79, 127
2, 12160, Note_off_c, 1, 46, 0
2, 12160, Note_off_c, 1, 51, 0
2, 12160, Note_off_c, 1, 67, 0
2, 12160, Note_off_c, 1, 75, 0
2, 12160, Note_off_c, 1, 79, 0
2, 12200, Note_on_c, 1, 46, 127
2, 12200, Note_on_c, 1, 51, 127
2, 12200, Note_on_c, 1, 67, 127
2, 12200, Note_on_c, 1, 75, 127
2, 12200, Note_on_c, 1, 79, 127
2, 12520, Note_off_c, 1, 46, 0
2, 12520, Note_off_c, 1, 51, 0
2, 12520, Note_off_c, 1, 67, 0
2, 12520, Note_off_c, 1, 75, 0
2, 12520, Note_off_c, 1, 79, 0
2, 12560, Note_on_c, 1, 46, 127
2, 12560, Note_on_c, 1, 51, 127
2, 12560, Note_on_c, 1, 67, 127
2, 12560, Note_on_c, 1, 75, 127
2, 12560, Note_on_c, 1, 79, 127
2, 12920, Note_off_c, 1, 46, 0
2, 12920, Note_off_c, 1, 51, 0
2, 12920, Note_off_c, 1, 67, 0
2, 12920, Note_off_c, 1, 75, 0
2, 12920, Note_off_c, 1, 79, 0
2, 12960, Note_on_c, 1, 46, 127
2, 12960, Note_on_c, 1, 51, 127
2, 12960, Note_on_c, 1, 67, 127
2, 12960, Note_on_c, 1, 75, 127
2, 12960, Note_on_c, 1, 79, 127
2, 13320, Note_off_c, 1, 46, 0
2, 13320, Note_off_c, 1, 51, 0
2, 13320, Note_off_c, 1, 67, 0
2, 13320, Note_off_c, 1, 75, 0
2, 13320, Note_off_c, 1, 79, 0
2, 13360, Note_on_c, 1, 46, 127
2, 13360, Note_on_c, 1, 51, 127
2, 13360, Note_on_c, 1, 67, 127
2, 13360, Note_on_c, 1, 75, 127
2, 13360, Note_on_c, 1, 79, 127
2, 13520, Note_off_c, 1, 46, 0
2, 13520, Note_off_c, 1, 51, 0
2, 13520, Note_off_c, 1, 67, 0
2, 13520, Note_off_c, 1, 75, 0
2, 13520, Note_off_c, 1, 79, 0
2, 13560, Note_on_c, 1, 46, 127
2, 13560, Note_on_c, 1, 51, 127
2, 13560, Note_on_c, 1, 67, 127
2, 13560, Note_on_c, 1, 75, 127
2, 13560, Note_on_c, 1, 79, 127
2, 13760, Note_off_c, 1, 46, 0
2, 13760, Note_off_c, 1, 51, 0
2, 13760, Note_off_c, 1, 67, 0
2, 13760, Note_off_c, 1, 75, 0
2, 13760, Note_off_c, 1, 79, 0
2, 13800, Note_on_c, 1, 46, 127
2, 13800, Note_on_c, 1, 51, 127
2, 13800, Note_on_c, 1, 67, 127
2, 13800, Note_on_c, 1, 75, 127
2, 13800, Note_on_c, 1, 79, 127
2, 14120, Note_off_c, 1, 46, 0
2, 14120, Note_off_c, 1, 51, 0
2, 14120, Note_off_c, 1, 67, 0
2, 14120, Note_off_c, 1, 75, 0
2, 14120, Note_off_c, 1, 79, 0
2, 14160, Note_on_c, 1, 46, 127
2, 14160, Note_on_c, 1, 51, 127
2, 14160, Note_on_c, 1, 67, 127
2, 14160, Note_on_c, 1, 75, 127
2, 14160, Note_on_c, 1, 79, 127
2, 14520, Note_off_c, 1, 46, 0
2, 14520, Note_off_c, 1, 51, 0
2, 14520, Note_off_c, 1, 67, 0
2, 14520, Note_off_c, 1, 75, 0
2, 14520, Note_off_c, 1, 79, 0
2, 14560, Note_on_c, 1, 46, 127
2, 14560, Note_on_c, 1, 51, 127
2, 14560, Note_on_c, 1, 67, 127
2, 14560, Note_on_c, 1, 75, 127
2, 14560, Note_on_c, 1, 79, 127
2, 14920, Note_off_c, 1, 46, 0
2, 14920, Note_off_c, 1, 51, 0
2, 14920, Note_off_c, 1, 67, 0
2, 14920, Note_off_c, 1, 75, 0
2, 14920, Note_off_c, 1, 79, 0
2, 14960, Note_on_c, 1, 46, 127
2, 14960, Note_on_c, 1, 51, 127
2, 14960, Note_on_c, 1, 67, 127
2, 14960, Note_on_c, 1, 75, 127
2, 14960, Note_on_c, 1, 79, 127
2, 15280, Note_off_c, 1, 46, 0
2, 15280, Note_off_c, 1, 51, 0
2, 15280, Note_off_c, 1, 67, 0
2, 15280, Note_off_c, 1, 75, 0
2, 15280, Note_off_c, 1, 79, 0
2, 15320, Note_on_c, 1, 46, 127
2, 15320, Note_on_c, 1, 51, 127
2, 15320, Note_on_c, 1, 67, 127
2, 15320, Note_on_c, 1, 75, 127
2, 15320, Note_on_c, 1, 79, 127
2, 15640, Note_off_c, 1, 46, 0
2, 15640, Note_off_c, 1, 51, 0
2, 15640, Note_off_c, 1, 67, 0
2, 15640, Note_off_c, 1, 75, 0
2, 15640, Note_off_c, 1, 79, 0
2, 15680, Note_on_c, 1, 46, 127
2, 15680, Note_on_c, 1, 51, 127
2, 15680, Note_on_c, 1, 67, 127
2, 15680, Note_on_c, 1, 75, 127
2, 15680, Note_on_c, 1, 79, 127
2, 15880, Note_off_c, 1, 46, 0
2, 15880, Note_off_c, 1, 51, 0
2, 15880, Note_off_c, 1, 67, 0
2, 15880, Note_off_c, 1, 75, 0
2, 15880, Note_off_c, 1, 79, 0
2, 15920, Note_on_c, 1, 46, 127
2, 15920, Note_on_c, 1, 51, 127
2, 15920, Note_on_c, 1, 67, 127
2, 15920, Note_on_c, 1, 75, 127
2, 15920, Note_on_c, 1, 79, 127
2, 16040, Note_off_c, 1, 46, 0
2, 16040, Note_off_c, 1, 51, 0
2, 16040, Note_off_c, 1, 67, 0
2, 16040, Note_off_c, 1, 75, 0
2, 16040, Note_off_c, 1, 79, 0
2, 16080, Note_on_c, 1, 57, 127
2, 16080, Note_on_c, 1, 60, 127
2, 16080, Note_on_c, 1, 63, 127
2, 16080, Note_on_c, 1, 72, 127
2, 16080, Note_on_c, 1, 78, 127
2, 16080, Note_on_c, 1, 83, 127
2, 16240, Note_off_c, 1, 57, 0
2, 16240, Note_off_c, 1, 60, 0
2, 16240, Note_off_c, 1, 63, 0
2, 16240, Note_off_c, 1, 72, 0
2, 16240, Note_off_c, 1, 78, 0
2, 16240, Note_off_c, 1, 83, 0
2, 16280, Note_on_c, 1, 40, 127
2, 16280, Note_on_c, 1, 52, 127
2, 16280, Note_on_c, 1, 78, 127
2, 16280, Note_on_c, 1, 83, 127
2, 16280, Note_on_c, 1, 87, 127
2, 16280, Note_on_c, 1, 90, 127
2, 16320, Note_off_c, 1, 40, 0
2, 16320, Note_on_c, 1, 45, 127
2, 16320, Note_off_c, 1, 52, 0
2, 16320, Note_off_c, 1, 78, 0
2, 16320, Note_off_c, 1, 83, 0
2, 16320, Note_off_c, 1, 90, 0
2, 16320, Note_on_c, 1, 99, 127
2, 16360, Note_off_c, 1, 45, 0
2, 16360, Note_on_c, 1, 56, 127
2, 16360, Note_on_c, 1, 59, 127
2, 16360, Note_on_c, 1, 61, 127
2, 16360, Note_on_c, 1, 68, 127
2, 16360, Note_on_c, 1, 71, 127
2, 16360, Note_on_c, 1, 73, 127
2, 16360, Note_off_c, 1, 87, 0
2, 16360, Note_off_c, 1, 99, 0
2, 16400, Note_off_c, 1, 56, 0
2, 16400, Note_off_c, 1, 59, 0
2, 16400, Note_off_c, 1, 61, 0
2, 16400, Note_off_c, 1, 68, 0
2, 16400, Note_off_c, 1, 71, 0
2, 16400, Note_off_c, 1, 73, 0
2, 16440, Note_on_c, 1, 41, 127
2, 16440, Note_on_c, 1, 48, 127
2, 16440, Note_on_c, 1, 51, 127
2, 16440, Note_on_c, 1, 53, 127
2, 16440, Note_on_c, 1, 65, 127
2, 16440, Note_on_c, 1, 69, 127
2, 16440, Note_on_c, 1, 77, 127
2, 16480, Note_on_c, 1, 39, 127
2, 16480, Note_off_c, 1, 41, 0
2, 16480, Note_on_c, 1, 46, 127
2, 16480, Note_off_c, 1, 48, 0
2, 16480, Note_off_c, 1, 51, 0
2, 16480, Note_off_c, 1, 53, 0
2, 16480, Note_on_c, 1, 62, 127
2, 16480, Note_off_c, 1, 65, 0
2, 16480, Note_on_c, 1, 67, 127
2, 16480, Note_off_c, 1, 69, 0
2, 16480, Note_on_c, 1, 70, 127
2, 16480, Note_off_c, 1, 77, 0
2, 16520, Note_off_c, 1, 39, 0
2, 16520, Note_on_c, 1, 41, 127
2, 16520, Note_off_c, 1, 46, 0
2, 16520, Note_on_c, 1, 48, 127
2, 16520, Note_on_c, 1, 51, 127
2, 16520, Note_on_c, 1, 53, 127
2, 16520, Note_off_c, 1, 62, 0
2, 16520, Note_on_c, 1, 65, 127
2, 16520, Note_off_c, 1, 67, 0
2, 16520, Note_on_c, 1, 69, 127
2, 16520, Note_off_c, 1, 70, 0
2, 16520, Note_on_c, 1, 77, 127
2, 16600, Note_off_c, 1, 41, 0
2, 16600, Note_off_c, 1, 48, 0
2, 16600, Note_off_c, 1, 51, 0
2, 16600, Note_off_c, 1, 53, 0
2, 16600, Note_off_c, 1, 65, 0
2, 16600, Note_off_c, 1, 69, 0
2, 16600, Note_off_c, 1, 77, 0
2, 16640, Note_on_c, 1, 39, 127
2, 16640, Note_on_c, 1, 42, 127
2, 16640, Note_on_c, 1, 51, 127
2, 16640, Note_on_c, 1, 54, 127
2, 16760, Note_off_c, 1, 39, 0
2, 16760, Note_off_c, 1, 42, 0
2, 16760, Note_off_c, 1, 51, 0
2, 16760, Note_off_c, 1, 54, 0
2, 16800, Note_on_c, 1, 39, 127
2, 16800, Note_on_c, 1, 42, 127
2, 16800, Note_on_c, 1, 51, 127
2, 16800, Note_on_c, 1, 54, 127
2, 17120, Note_off_c, 1, 39, 0
2, 17120, Note_off_c, 1, 42, 0
2, 17120, Note_off_c, 1, 51, 0
2, 17120, Note_off_c, 1, 54, 0
2, 17160, Note_on_c, 1, 46, 127
2, 17160, Note_on_c, 1, 58, 127
2, 17160, Note_on_c, 1, 67, 127
2, 17160, Note_on_c, 1, 74, 127
2, 17160, Note_on_c, 1, 79, 127
2, 17480, Note_off_c, 1, 46, 0
2, 17480, Note_off_c, 1, 58, 0
2, 17480, Note_off_c, 1, 67, 0
2, 17480, Note_off_c, 1, 74, 0
2, 17480, Note_off_c, 1, 79, 0
2, 17520, Note_on_c, 1, 45, 127
2, 17520, Note_on_c, 1, 67, 127
2, 17520, Note_on_c, 1, 76, 127
2, 17520, Note_on_c, 1, 82, 127
2, 17840, Note_off_c, 1, 45, 0
2, 17840, Note_off_c, 1, 67, 0
2, 17840, Note_off_c, 1, 76, 0
2, 17840, Note_off_c, 1, 82, 0
2, 17880, Note_on_c, 1, 50, 127
2, 17880, Note_on_c, 1, 55, 127
2, 17880, Note_on_c, 1, 60, 127
2, 17880, Note_on_c, 1, 65, 127
2, 17880, Note_on_c, 1, 67, 127
2, 17880, Note_on_c, 1, 77, 127
2, 17920, Note_off_c, 1, 50, 0
2, 17920, Note_off_c, 1, 60, 0
2, 17920, Note_on_c, 1, 62, 127
2, 17920, Note_on_c, 1, 64, 127
2, 17920, Note_off_c, 1, 65, 0
2, 17920, Note_off_c, 1, 67, 0
2, 17920, Note_on_c, 1, 70, 127
2, 17920, Note_on_c, 1, 74, 127
2, 17920, Note_on_c, 1, 76, 127
2, 17920, Note_off_c, 1, 77, 0
2, 17960, Note_on_c, 1, 50, 127
2, 17960, Note_on_c, 1, 60, 127
2, 17960, Note_off_c, 1, 62, 0
2, 17960, Note_off_c, 1, 64, 0
2, 17960, Note_on_c, 1, 65, 127
2, 17960, Note_on_c, 1, 67, 127
2, 17960, Note_off_c, 1, 70, 0
2, 17960, Note_off_c, 1, 74, 0
2, 17960, Note_off_c, 1, 76, 0
2, 17960, Note_on_c, 1, 77, 127
2, 18080, Note_off_c, 1, 50, 0
2, 18080, Note_on_c, 1, 52, 127
2, 18080, Note_off_c, 1, 60, 0
2, 18080, Note_off_c, 1, 65, 0
2, 18080, Note_off_c, 1, 67, 0
2, 18080, Note_on_c, 1, 76, 127
2, 18080, Note_off_c, 1, 77, 0
2, 18080, Note_on_c, 1, 79, 127
2, 18120, Note_off_c, 1, 52, 0
2, 18120, Note_off_c, 1, 55, 0
2, 18120, Note_off_c, 1, 76, 0
2, 18120, Note_off_c, 1, 79, 0
2, 18160, Note_on_c, 1, 50, 127
2, 18160, Note_on_c, 1, 55, 127
2, 18160, Note_on_c, 1, 60, 127
2, 18160, Note_on_c, 1, 65, 127
2, 18160, Note_on_c, 1, 67, 127
2, 18160, Note_on_c, 1, 77, 127
2, 18240, Note_off_c, 1, 50, 0
2, 18240, Note_off_c, 1, 55, 0
2, 18240, Note_off_c, 1, 60, 0
2, 18240, Note_off_c, 1, 65, 0
2, 18240, Note_off_c, 1, 67, 0
2, 18240, Note_off_c, 1, 77, 0
2, 18280, Note_on_c, 1, 47, 127
2, 18280, Note_on_c, 1, 59, 127
2, 18280, Note_on_c, 1, 66, 127
2, 18280, Note_on_c, 1, 73, 127
2, 18280, Note_on_c, 1, 76, 127
2, 18600, Note_off_c, 1, 47, 0
2, 18600, Note_off_c, 1, 59, 0
2, 18600, Note_off_c, 1, 66, 0
2, 18600, Note_off_c, 1, 73, 0
2, 18600, Note_off_c, 1, 76, 0
2, 18640, Note_on_c, 1, 30, 127
2, 18640, Note_on_c, 1, 59, 127
2, 18640, Note_on_c, 1, 62, 127
2, 18640, Note_on_c, 1, 71, 127
2, 18680, Note_off_c, 1, 30, 0
2, 18680, Note_off_c, 1, 59, 0
2, 18680, Note_on_c, 1, 65, 127
2, 18680, Note_off_c, 1, 71, 0
2, 18680, Note_on_c, 1, 73, 127
2, 18680, Note_on_c, 1, 78, 127
2, 18680, Note_on_c, 1, 85, 127
2, 18720, Note_on_c, 1, 42, 127
2, 18720, Note_on_c, 1, 50, 127
2, 18720, Note_on_c, 1, 57, 127
2, 18720, Note_off_c, 1, 62, 0
2, 18720, Note_off_c, 1, 65, 0
2, 18720, Note_off_c, 1, 73, 0
2, 18720, Note_off_c, 1, 78, 0
2, 18720, Note_on_c, 1, 84, 127
2, 18720, Note_off_c, 1, 85, 0
2, 18760, Note_on_c, 1, 37, 127
2, 18760, Note_off_c, 1, 42, 0
2, 18760, Note_off_c, 1, 50, 0
2, 18760, Note_off_c, 1, 57, 0
2, 18760, Note_off_c, 1, 84, 0
2, 18760, Note_on_c, 1, 86, 127
2, 18800, Note_off_c, 1, 37, 0
2, 18800, Note_on_c, 1, 45, 127
2, 18800, Note_on_c, 1, 54, 127
2, 18800, Note_on_c, 1, 60, 127
2, 18800, Note_on_c, 1, 64, 127
2, 18800, Note_on_c, 1, 69, 127
2, 18800, Note_on_c, 1, 76, 127
2, 18800, Note_on_c, 1, 78, 127
2, 18800, Note_off_c, 1, 86, 0
2, 18840, Note_on_c, 1, 30, 127
2, 18840, Note_off_c, 1, 45, 0
2, 18840, Note_off_c, 1, 54, 0
2, 18840, Note_on_c, 1, 59, 127
2, 18840, Note_off_c, 1, 60, 0
2, 18840, Note_on_c, 1, 62, 127
2, 18840, Note_off_c, 1, 64, 0
2, 18840, Note_off_c, 1, 69, 0
2, 18840, Note_on_c, 1, 71, 127
2, 18840, Note_off_c, 1, 76, 0
2, 18840, Note_off_c, 1, 78, 0
2, 18920, Note_off_c, 1, 30, 0
2, 18920, Note_on_c, 1, 43, 127
2, 18920, Note_off_c, 1, 59, 0
2, 18920, Note_off_c, 1, 62, 0
2, 18920, Note_off_c, 1, 71, 0
2, 18960, Note_off_c, 1, 43, 0
2, 19000, Note_on_c, 1, 51, 127
2, 19000, Note_on_c, 1, 54, 127
2, 19000, Note_on_c, 1, 59, 127
2, 19000, Note_on_c, 1, 95, 127
2, 19040, Note_off_c, 1, 51, 0
2, 19040, Note_on_c, 1, 53, 127
2, 19040, Note_off_c, 1, 54, 0
2, 19040, Note_on_c, 1, 55, 127
2, 19040, Note_on_c, 1, 58, 127
2, 19040, Note_off_c, 1, 59, 0
2, 19040, Note_on_c, 1, 60, 127
2, 19040, Note_on_c, 1, 64, 127
2, 19080, Note_on_c, 1, 49, 127
2, 19080, Note_off_c, 1, 53, 0
2, 19080, Note_off_c, 1, 55, 0
2, 19080, Note_on_c, 1, 56, 127
2, 19080, Note_off_c, 1, 58, 0
2, 19080, Note_on_c, 1, 59, 127
2, 19080, Note_off_c, 1, 60, 0
2, 19080, Note_off_c, 1, 64, 0
2, 19080, Note_on_c, 1, 82, 127
2, 19080, Note_off_c, 1, 95, 0
2, 19120, Note_off_c, 1, 49, 0
2, 19120, Note_off_c, 1, 56, 0
2, 19120, Note_off_c, 1, 59, 0
2, 19120, Note_on_c, 1, 74, 127
2, 19120, Note_on_c, 1, 81, 127
2, 19120, Note_off_c, 1, 82, 0
2, 19120, Note_on_c, 1, 88, 127
2, 19160, Note_on_c, 1, 47, 127
2, 19160, Note_on_c, 1, 51, 127
2, 19160, Note_on_c, 1, 56, 127
2, 19160, Note_off_c, 1, 74, 0
2, 19160, Note_on_c, 1, 76, 127
2, 19160, Note_off_c, 1, 81, 0
2, 19160, Note_off_c, 1, 88, 0
2, 19200, Note_off_c, 1, 47, 0
2, 19200, Note_off_c, 1, 51, 0
2, 19200, Note_off_c, 1, 56, 0
2, 19200, Note_on_c, 1, 57, 127
2, 19200, Note_on_c, 1, 65, 127
2, 19200, Note_on_c, 1, 71, 127
2, 19200, Note_off_c, 1, 76, 0
2, 19200, Note_on_c, 1, 80, 127
2, 19240, Note_on_c, 1, 35, 127
2, 19240, Note_on_c, 1, 47, 127
2, 19240, Note_on_c, 1, 49, 127
2, 19240, Note_on_c, 1, 53, 127
2, 19240, Note_off_c, 1, 57, 0
2, 19240, Note_on_c, 1, 61, 127
2, 19240, Note_off_c, 1, 65, 0
2, 19240, Note_off_c, 1, 71, 0
2, 19240, Note_off_c, 1, 80, 0
2, 19280, Note_off_c, 1, 35, 0
2, 19280, Note_off_c, 1, 47, 0
2, 19280, Note_off_c, 1, 49, 0
2, 19280, Note_off_c, 1, 53, 0
2, 19280, Note_off_c, 1, 61, 0
2, 19280, Note_on_c, 1, 63, 127
2, 19280, Note_on_c, 1, 91, 127
2, 19280, Note_on_c, 1, 94, 127
2, 19280, Note_on_c, 1, 98, 127
2, 19320, Note_off_c, 1, 63, 0
2, 19320, Note_off_c, 1, 91, 0
2, 19320, Note_off_c, 1, 94, 0
2, 19320, Note_off_c, 1, 98, 0
2, 19360, Note_on_c, 1, 62, 127
2, 19360, Note_on_c, 1, 86, 127
2, 19360, Note_on_c, 1, 94, 127
2, 19640, Note_off_c, 1, 62, 0
2, 19640, Note_off_c, 1, 94, 0
2, 19680, Note_off_c, 1, 86, 0
2, 19720, Note_on_c, 1, 50, 127
2, 19720, Note_on_c, 1, 53, 127
2, 19720, Note_on_c, 1, 60, 127
2, 19720, Note_on_c, 1, 77, 127
2, 19720, Note_on_c, 1, 84, 127
2, 19760, Note_on_c, 1, 49, 127
2, 19760, Note_off_c, 1, 50, 0
2, 19760, Note_on_c, 1, 52, 127
2, 19760, Note_off_c, 1, 53, 0
2, 19760, Note_on_c, 1, 58, 127
2, 19760, Note_off_c, 1, 60, 0
2, 19760, Note_on_c, 1, 73, 127
2, 19760, Note_off_c, 1, 77, 0
2, 19760, Note_off_c, 1, 84, 0
2, 19800, Note_off_c, 1, 49, 0
2, 19800, Note_off_c, 1, 52, 0
2, 19800, Note_off_c, 1, 58, 0
2, 19800, Note_on_c, 1, 68, 127
2, 19800, Note_on_c, 1, 76, 127
2, 19800, Note_on_c, 1, 88, 127
2, 19840, Note_on_c, 1, 60, 127
2, 19840, Note_on_c, 1, 62, 127
2, 19840, Note_off_c, 1, 68, 0
2, 19840, Note_on_c, 1, 69, 127
2, 19840, Note_off_c, 1, 73, 0
2, 19840, Note_off_c, 1, 76, 0
2, 19840, Note_on_c, 1, 82, 127
2, 19840, Note_off_c, 1, 88, 0
2, 19880, Note_on_c, 1, 45, 127
2, 19880, Note_on_c, 1, 49, 127
2, 19880, Note_on_c, 1, 52, 127
2, 19880, Note_on_c, 1, 57, 127
2, 19880, Note_off_c, 1, 60, 0
2, 19880, Note_off_c, 1, 62, 0
2, 19880, Note_on_c, 1, 73, 127
2, 19880, Note_on_c, 1, 76, 127
2, 19880, Note_on_c, 1, 79, 127
2, 19880, Note_off_c, 1, 82, 0
2, 19920, Note_off_c, 1, 45, 0
2, 19920, Note_off_c, 1, 49, 0
2, 19920, Note_on_c, 1, 51, 127
2, 19920, Note_off_c, 1, 52, 0
2, 19920, Note_off_c, 1, 57, 0
2, 19920, Note_on_c, 1, 61, 127
2, 19920, Note_off_c, 1, 69, 0
2, 19920, Note_on_c, 1, 70, 127
2, 19920, Note_off_c, 1, 76, 0
2, 19920, Note_on_c, 1, 77, 127
2, 19920, Note_off_c, 1, 79, 0
2, 19920, Note_on_c, 1, 82, 127
2, 19960, Note_on_c, 1, 45, 127
2, 19960, Note_on_c, 1, 49, 127
2, 19960, Note_off_c, 1, 51, 0
2, 19960, Note_on_c, 1, 52, 127
2, 19960, Note_on_c, 1, 57, 127
2, 19960, Note_off_c, 1, 61, 0
2, 19960, Note_on_c, 1, 69, 127
2, 19960, Note_off_c, 1, 70, 0
2, 19960, Note_on_c, 1, 76, 127
2, 19960, Note_off_c, 1, 77, 0
2, 19960, Note_on_c, 1, 79, 127
2, 19960, Note_off_c, 1, 82, 0
2, 20040, Note_off_c, 1, 45, 0
2, 20040, Note_off_c, 1, 49, 0
2, 20040, Note_off_c, 1, 52, 0
2, 20040, Note_off_c, 1, 57, 0
2, 20040, Note_off_c, 1, 69, 0
2, 20040, Note_off_c, 1, 73, 0
2, 20040, Note_off_c, 1, 76, 0
2, 20040, Note_off_c, 1, 79, 0
2, 20080, Note_on_c, 1, 51, 127
2, 20080, Note_on_c, 1, 55, 127
2, 20080, Note_on_c, 1, 67, 127
2, 20080, Note_on_c, 1, 75, 127
2, 20080, Note_on_c, 1, 79, 127
2, 20240, Note_off_c, 1, 51, 0
2, 20240, Note_off_c, 1, 55, 0
2, 20240, Note_off_c, 1, 67, 0
2, 20240, Note_off_c, 1, 75, 0
2, 20240, Note_off_c, 1, 79, 0
2, 20280, Note_on_c, 1, 51, 127
2, 20280, Note_on_c, 1, 55, 127
2, 20280, Note_on_c, 1, 67, 127
2, 20280, Note_on_c, 1, 75, 127
2, 20280, Note_on_c, 1, 79, 127
2, 20440, Note_off_c, 1, 51, 0
2, 20440, Note_off_c, 1, 55, 0
2, 20440, Note_off_c, 1, 67, 0
2, 20440, Note_off_c, 1, 75, 0
2, 20440, Note_off_c, 1, 79, 0
2, 20480, Note_on_c, 1, 55, 127
2, 20480, Note_on_c, 1, 69, 127
2, 20480, Note_on_c, 1, 73, 127
2, 20480, Note_on_c, 1, 76, 127
2, 20520, Note_on_c, 1, 39, 127
2, 20520, Note_on_c, 1, 43, 127
2, 20520, Note_on_c, 1, 46, 127
2, 20520, Note_on_c, 1, 51, 127
2, 20520, Note_off_c, 1, 55, 0
2, 20520, Note_off_c, 1, 69, 0
2, 20520, Note_off_c, 1, 73, 0
2, 20520, Note_off_c, 1, 76, 0
2, 20520, Note_on_c, 1, 94, 127
2, 20560, Note_off_c, 1, 39, 0
2, 20560, Note_off_c, 1, 43, 0
2, 20560, Note_off_c, 1, 46, 0
2, 20560, Note_off_c, 1, 51, 0
2, 20560, Note_on_c, 1, 57, 127
2, 20560, Note_on_c, 1, 67, 127
2, 20560, Note_on_c, 1, 69, 127
2, 20560, Note_on_c, 1, 73, 127
2, 20560, Note_off_c, 1, 94, 0
2, 20600, Note_on_c, 1, 45, 127
2, 20600, Note_on_c, 1, 49, 127
2, 20600, Note_on_c, 1, 55, 127
2, 20600, Note_off_c, 1, 57, 0
2, 20600, Note_on_c, 1, 61, 127
2, 20600, Note_off_c, 1, 67, 0
2, 20600, Note_off_c, 1, 69, 0
2, 20600, Note_off_c, 1, 73, 0
2, 20640, Note_off_c, 1, 45, 0
2, 20640, Note_off_c, 1, 49, 0
2, 20640, Note_on_c, 1, 50, 127
2, 20640, Note_off_c, 1, 61, 0
2, 20640, Note_on_c, 1, 67, 127
2, 20640, Note_on_c, 1, 71, 127
2, 20640, Note_on_c, 1, 72, 127
2, 20680, Note_off_c, 1, 50, 0
2, 20680, Note_on_c, 1, 54, 127
2, 20680, Note_off_c, 1, 55, 0
2, 20680, Note_on_c, 1, 60, 127
2, 20680, Note_on_c, 1, 62, 127
2, 20680, Note_off_c, 1, 67, 0
2, 20680, Note_off_c, 1, 71, 0
2, 20680, Note_off_c, 1, 72, 0
2, 20680, Note_on_c, 1, 73, 127
2, 20720, Note_on_c, 1, 43, 127
2, 20720, Note_on_c, 1, 48, 127
2, 20720, Note_off_c, 1, 62, 0
2, 20720, Note_on_c, 1, 69, 127
2, 20720, Note_on_c, 1, 72, 127
2, 20720, Note_off_c, 1, 73, 0
2, 20720, Note_on_c, 1, 75, 127
2, 20720, Note_on_c, 1, 78, 127
2, 20720, Note_on_c, 1, 81, 127
2, 20760, Note_off_c, 1, 43, 0
2, 20760, Note_off_c, 1, 48, 0
2, 20760, Note_off_c, 1, 54, 0
2, 20760, Note_off_c, 1, 60, 0
2, 20760, Note_off_c, 1, 69, 0
2, 20760, Note_off_c, 1, 72, 0
2, 20760, Note_off_c, 1, 75, 0
2, 20760, Note_off_c, 1, 78, 0
2, 20760, Note_off_c, 1, 81, 0
2, 20840, Note_on_c, 1, 46, 127
2, 20840, Note_on_c, 1, 53, 127
2, 20840, Note_on_c, 1, 56, 127
2, 20840, Note_on_c, 1, 58, 127
2, 20840, Note_on_c, 1, 62, 127
2, 20840, Note_on_c, 1, 68, 127
2, 20840, Note_on_c, 1, 74, 127
2, 21160, Note_off_c, 1, 46, 0
2, 21160, Note_off_c, 1, 53, 0
2, 21160, Note_off_c, 1, 56, 0
2, 21160, Note_off_c, 1, 58, 0
2, 21160, Note_off_c, 1, 62, 0
2, 21160, Note_off_c, 1, 68, 0
2, 21160, Note_off_c, 1, 74, 0
2, 21200, Note_on_c, 1, 46, 127
2, 21200, Note_on_c, 1, 53, 127
2, 21200, Note_on_c, 1, 56, 127
2, 21200, Note_on_c, 1, 58, 127
2, 21200, Note_on_c, 1, 62, 127
2, 21200, Note_on_c, 1, 68, 127
2, 21200, Note_on_c, 1, 74, 127
2, 21520, Note_off_c, 1, 46, 0
2, 21520, Note_off_c, 1, 53, 0
2, 21520, Note_off_c, 1, 56, 0
2, 21520, Note_off_c, 1, 58, 0
2, 21520, Note_off_c, 1, 62, 0
2, 21520, Note_off_c, 1, 68, 0
2, 21520, Note_off_c, 1, 74, 0
2, 21560, Note_on_c, 1, 46, 127
2, 21560, Note_on_c, 1, 53, 127
2, 21560, Note_on_c, 1, 56, 127
2, 21560, Note_on_c, 1, 58, 127
2, 21560, Note_on_c, 1, 62, 127
2, 21560, Note_on_c, 1, 68, 127
2, 21560, Note_on_c, 1, 74, 127
2, 21880, Note_off_c, 1, 46, 0
2, 21880, Note_off_c, 1, 53, 0
2, 21880, Note_off_c, 1, 56, 0
2, 21880, Note_off_c, 1, 58, 0
2, 21880, Note_off_c, 1, 62, 0
2, 21880, Note_off_c, 1, 68, 0
2, 21880, Note_off_c, 1, 74, 0
2, 21920, Note_on_c, 1, 46, 127
2, 21920, Note_on_c, 1, 53, 127
2, 21920, Note_on_c, 1, 56, 127
2, 21920, Note_on_c, 1, 58, 127
2, 21920, Note_on_c, 1, 62, 127
2, 21920, Note_on_c, 1, 68, 127
2, 21920, Note_on_c, 1, 74, 127
2, 22240, Note_off_c, 1, 46, 0
2, 22240, Note_off_c, 1, 53, 0
2, 22240, Note_off_c, 1, 56, 0
2, 22240, Note_off_c, 1, 58, 0
2, 22240, Note_off_c, 1, 62, 0
2, 22240, Note_off_c, 1, 68, 0
2, 22240, Note_off_c, 1, 74, 0
2, 22360, Note_on_c, 1, 46, 127
2, 22360, Note_on_c, 1, 53, 127
2, 22360, Note_on_c, 1, 56, 127
2, 22360, Note_on_c, 1, 58, 127
2, 22360, Note_on_c, 1, 62, 127
2, 22360, Note_on_c, 1, 68, 127
2, 22360, Note_on_c, 1, 74, 127
2, 22680, Note_off_c, 1, 46, 0
2, 22680, Note_off_c, 1, 53, 0
2, 22680, Note_off_c, 1, 56, 0
2, 22680, Note_off_c, 1, 58, 0
2, 22680, Note_off_c, 1, 62, 0
2, 22680, Note_off_c, 1, 68, 0
2, 22680, Note_off_c, 1, 74, 0
2, 22720, Note_on_c, 1, 46, 127
2, 22720, Note_on_c, 1, 53, 127
2, 22720, Note_on_c, 1, 56, 127
2, 22720, Note_on_c, 1, 58, 127
2, 22720, Note_on_c, 1, 62, 127
2, 22720, Note_on_c, 1, 68, 127
2, 22720, Note_on_c, 1, 74, 127
2, 23040, Note_off_c, 1, 46, 0
2, 23040, Note_off_c, 1, 53, 0
2, 23040, Note_off_c, 1, 56, 0
2, 23040, Note_off_c, 1, 58, 0
2, 23040, Note_off_c, 1, 62, 0
2, 23040, Note_off_c, 1, 68, 0
2, 23040, Note_off_c, 1, 74, 0
2, 23080, Note_on_c, 1, 46, 127
2, 23080, Note_on_c, 1, 53, 127
2, 23080, Note_on_c, 1, 56, 127
2, 23080, Note_on_c, 1, 58, 127
2, 23080, Note_on_c, 1, 62, 127
2, 23080, Note_on_c, 1, 68, 127
2, 23080, Note_on_c, 1, 74, 127
2, 23400, Note_off_c, 1, 46, 0
2, 23400, Note_off_c, 1, 53, 0
2, 23400, Note_off_c, 1, 56, 0
2, 23400, Note_off_c, 1, 58, 0
2, 23400, Note_off_c, 1, 62, 0
2, 23400, Note_off_c, 1, 68, 0
2, 23400, Note_off_c, 1, 74, 0
2, 23440, Note_on_c, 1, 46, 127
2, 23440, Note_on_c, 1, 53, 127
2, 23440, Note_on_c, 1, 56, 127
2, 23440, Note_on_c, 1, 58, 127
2, 23440, Note_on_c, 1, 62, 127
2, 23440, Note_on_c, 1, 68, 127
2, 23440, Note_on_c, 1, 74, 127
2, 23760, Note_off_c, 1, 46, 0
2, 23760, Note_off_c, 1, 53, 0
2, 23760, Note_off_c, 1, 56, 0
2, 23760, Note_off_c, 1, 58, 0
2, 23760, Note_off_c, 1, 62, 0
2, 23760, Note_off_c, 1, 68, 0
2, 23760, Note_off_c, 1, 74, 0
2, 23800, Note_on_c, 1, 46, 127
2, 23800, Note_on_c, 1, 53, 127
2, 23800, Note_on_c, 1, 56, 127
2, 23800, Note_on_c, 1, 58, 127
2, 23800, Note_on_c, 1, 62, 127
2, 23800, Note_on_c, 1, 68, 127
2, 23800, Note_on_c, 1, 74, 127
2, 24120, Note_off_c, 1, 46, 0
2, 24120, Note_off_c, 1, 53, 0
2, 24120, Note_off_c, 1, 56, 0
2, 24120, Note_off_c, 1, 58, 0
2, 24120, Note_off_c, 1, 62, 0
2, 24120, Note_off_c, 1, 68, 0
2, 24120, Note_off_c, 1, 74, 0
2, 24160, Note_on_c, 1, 46, 127
2, 24160, Note_on_c, 1, 53, 127
2, 24160, Note_on_c, 1, 56, 127
2, 24160, Note_on_c, 1, 58, 127
2, 24160, Note_on_c, 1, 62, 127
2, 24160, Note_on_c, 1, 68, 127
2, 24160, Note_on_c, 1, 74, 127
2, 24480, Note_off_c, 1, 46, 0
2, 24480, Note_off_c, 1, 53, 0
2, 24480, Note_on_c, 1, 54, 127
2, 24480, Note_off_c, 1, 56, 0
2, 24480, Note_off_c, 1, 58, 0
2, 24480, Note_on_c, 1, 61, 127
2, 24480, Note_off_c, 1, 62, 0
2, 24480, Note_on_c, 1, 64, 127
2, 24480, Note_off_c, 1, 68, 0
2, 24480, Note_on_c, 1, 70, 127
2, 24480, Note_off_c, 1, 74, 0
2, 24480, Note_on_c, 1, 76, 127
2, 24520, Note_off_c, 1, 54, 0
2, 24520, Note_off_c, 1, 61, 0
2, 24520, Note_off_c, 1, 64, 0
2, 24520, Note_off_c, 1, 70, 0
2, 24520, Note_off_c, 1, 76, 0
2, 24600, Note_on_c, 1, 46, 127
2, 24600, Note_on_c, 1, 53, 127
2, 24600, Note_on_c, 1, 56, 127
2, 24600, Note_on_c, 1, 58, 127
2, 24600, Note_on_c, 1, 62, 127
2, 24600, Note_on_c, 1, 68, 127
2, 24600, Note_on_c, 1, 74, 127
2, 24920, Note_off_c, 1, 46, 0
2, 24920, Note_off_c, 1, 53, 0
2, 24920, Note_off_c, 1, 56, 0
2, 24920, Note_off_c, 1, 58, 0
2, 24920, Note_off_c, 1, 62, 0
2, 24920, Note_off_c, 1, 68, 0
2, 24920, Note_off_c, 1, 74, 0
2, 24960, Note_on_c, 1, 46, 127
2, 24960, Note_on_c, 1, 53, 127
2, 24960, Note_on_c, 1, 56, 127
2, 24960, Note_on_c, 1, 58, 127
2, 24960, Note_on_c, 1, 62, 127
2, 24960, Note_on_c, 1, 68, 127
2, 24960, Note_on_c, 1, 74, 127
2, 25280, Note_off_c, 1, 46, 0
2, 25280, Note_off_c, 1, 53, 0
2, 25280, Note_off_c, 1, 56, 0
2, 25280, Note_off_c, 1, 58, 0
2, 25280, Note_off_c, 1, 62, 0
2, 25280, Note_off_c, 1, 68, 0
2, 25280, Note_off_c, 1, 74, 0
2, 25320, Note_on_c, 1, 46, 127
2, 25320, Note_on_c, 1, 53, 127
2, 25320, Note_on_c, 1, 56, 127
2, 25320, Note_on_c, 1, 58, 127
2, 25320, Note_on_c, 1, 62, 127
2, 25320, Note_on_c, 1, 68, 127
2, 25320, Note_on_c, 1, 74, 127
2, 25640, Note_off_c, 1, 46, 0
2, 25640, Note_off_c, 1, 53, 0
2, 25640, Note_off_c, 1, 56, 0
2, 25640, Note_off_c, 1, 58, 0
2, 25640, Note_off_c, 1, 62, 0
2, 25640, Note_off_c, 1, 68, 0
2, 25640, Note_off_c, 1, 74, 0
2, 25680, Note_on_c, 1, 46, 127
2, 25680, Note_on_c, 1, 53, 127
2, 25680, Note_on_c, 1, 56, 127
2, 25680, Note_on_c, 1, 58, 127
2, 25680, Note_on_c, 1, 62, 127
2, 25680, Note_on_c, 1, 68, 127
2, 25680, Note_on_c, 1, 74, 127
2, 26000, Note_off_c, 1, 46, 0
2, 26000, Note_off_c, 1, 53, 0
2, 26000, Note_off_c, 1, 56, 0
2, 26000, Note_off_c, 1, 58, 0
2, 26000, Note_off_c, 1, 62, 0
2, 26000, Note_off_c, 1, 68, 0
2, 26000, Note_off_c, 1, 74, 0
2, 26040, Note_on_c, 1, 46, 127
2, 26040, Note_on_c, 1, 53, 127
2, 26040, Note_on_c, 1, 56, 127
2, 26040, Note_on_c, 1, 58, 127
2, 26040, Note_on_c, 1, 62, 127
2, 26040, Note_on_c, 1, 68, 127
2, 26040, Note_on_c, 1, 74, 127
2, 26360, Note_off_c, 1, 46, 0
2, 26360, Note_off_c, 1, 53, 0
2, 26360, Note_off_c, 1, 56, 0
2, 26360, Note_off_c, 1, 58, 0
2, 26360, Note_off_c, 1, 62, 0
2, 26360, Note_off_c, 1, 68, 0
2, 26360, Note_off_c, 1, 74, 0
2, 26400, Note_on_c, 1, 46, 127
2, 26400, Note_on_c, 1, 53, 127
2, 26400, Note_on_c, 1, 56, 127
2, 26400, Note_on_c, 1, 58, 127
2, 26400, Note_on_c, 1, 62, 127
2, 26400, Note_on_c, 1, 68, 127
2, 26400, Note_on_c, 1, 74, 127
2, 26760, Note_off_c, 1, 46, 0
2, 26760, Note_off_c, 1, 53, 0
2, 26760, Note_off_c, 1, 56, 0
2, 26760, Note_off_c, 1, 58, 0
2, 26760, Note_off_c, 1, 62, 0
2, 26760, Note_off_c, 1, 68, 0
2, 26760, Note_off_c, 1, 74, 0
2, 26840, Note_on_c, 1, 46, 127
2, 26840, Note_on_c, 1, 53, 127
2, 26840, Note_on_c, 1, 56, 127
2, 26840, Note_on_c, 1, 58, 127
2, 26840, Note_on_c, 1, 62, 127
2, 26840, Note_on_c, 1, 68, 127
2, 26840, Note_on_c, 1, 74, 127
2, 27160, Note_off_c, 1, 46, 0
2, 27160, Note_off_c, 1, 53, 0
2, 27160, Note_off_c, 1, 56, 0
2, 27160, Note_off_c, 1, 58, 0
2, 27160, Note_off_c, 1, 62, 0
2, 27160, Note_off_c, 1, 68, 0
2, 27160, Note_off_c, 1, 74, 0
2, 27200, Note_on_c, 1, 46, 127
2, 27200, Note_on_c, 1, 53, 127
2, 27200, Note_on_c, 1, 56, 127
2, 27200, Note_on_c, 1, 58, 127
2, 27200, Note_on_c, 1, 62, 127
2, 27200, Note_on_c, 1, 68, 127
2, 27200, Note_on_c, 1, 74, 127
2, 27520, Note_off_c, 1, 46, 0
2, 27520, Note_off_c, 1, 53, 0
2, 27520, Note_off_c, 1, 56, 0
2, 27520, Note_off_c, 1, 58, 0
2, 27520, Note_off_c, 1, 62, 0
2, 27520, Note_off_c, 1, 68, 0
2, 27520, Note_off_c, 1, 74, 0
2, 27560, Note_on_c, 1, 46, 127
2, 27560, Note_on_c, 1, 53, 127
2, 27560, Note_on_c, 1, 56, 127
2, 27560, Note_on_c, 1, 58, 127
2, 27560, Note_on_c, 1, 62, 127
2, 27560, Note_on_c, 1, 68, 127
2, 27560, Note_on_c, 1, 74, 127
2, 27880, Note_off_c, 1, 46, 0
2, 27880, Note_on_c, 1, 49, 127
2, 27880, Note_on_c, 1, 50, 127
2, 27880, Note_off_c, 1, 53, 0
2, 27880, Note_off_c, 1, 56, 0
2, 27880, Note_off_c, 1, 58, 0
2, 27880, Note_off_c, 1, 62, 0
2, 27880, Note_off_c, 1, 68, 0
2, 27880, Note_off_c, 1, 74, 0
2, 27920, Note_on_c, 1, 46, 127
2, 27920, Note_off_c, 1, 49, 0
2, 27920, Note_off_c, 1, 50, 0
2, 27920, Note_on_c, 1, 53, 127
2, 27920, Note_on_c, 1, 56, 127
2, 27920, Note_on_c, 1, 58, 127
2, 27920, Note_on_c, 1, 62, 127
2, 27920, Note_on_c, 1, 68, 127
2, 27920, Note_on_c, 1, 74, 127
2, 28240, Note_off_c, 1, 46, 0
2, 28240, Note_off_c, 1, 53, 0
2, 28240, Note_off_c, 1, 56, 0
2, 28240, Note_off_c, 1, 58, 0
2, 28240, Note_off_c, 1, 62, 0
2, 28240, Note_off_c, 1, 68, 0
2, 28240, Note_off_c, 1, 74, 0
2, 28280, Note_on_c, 1, 37, 127
2, 28280, Note_on_c, 1, 58, 127
2, 28280, Note_on_c, 1, 65, 127
2, 28280, Note_on_c, 1, 68, 127
2, 28600, Note_off_c, 1, 37, 0
2, 28640, Note_on_c, 1, 34, 127
2, 28640, Note_on_c, 1, 46, 127
2, 28640, Note_off_c, 1, 58, 0
2, 28640, Note_off_c, 1, 68, 0
2, 28640, Note_on_c, 1, 72, 127
2, 28640, Note_on_c, 1, 75, 127
2, 28640, Note_on_c, 1, 77, 127
2, 28840, Note_off_c, 1, 34, 0
2, 28840, Note_off_c, 1, 46, 0
2, 28840, Note_off_c, 1, 65, 0
2, 28840, Note_off_c, 1, 72, 0
2, 28840, Note_off_c, 1, 75, 0
2, 28840, Note_off_c, 1, 77, 0
2, 28880, Note_on_c, 1, 34, 127
2, 28880, Note_on_c, 1, 46, 127
2, 28880, Note_on_c, 1, 65, 127
2, 28880, Note_on_c, 1, 72, 127
2, 28880, Note_on_c, 1, 75, 127
2, 28880, Note_on_c, 1, 77, 127
2, 29000, Note_off_c, 1, 34, 0
2, 29000, Note_off_c, 1, 46, 0
2, 29000, Note_off_c, 1, 65, 0
2, 29000, Note_off_c, 1, 72, 0
2, 29000, Note_off_c, 1, 75, 0
2, 29000, Note_off_c, 1, 77, 0
2, 29040, Note_on_c, 1, 40, 127
2, 29040, Note_on_c, 1, 49, 127
2, 29040, Note_on_c, 1, 68, 127
2, 29040, Note_on_c, 1, 76, 127
2, 29080, Note_off_c, 1, 40, 0
2, 29080, Note_on_c, 1, 43, 127
2, 29080, Note_on_c, 1, 58, 127
2, 29080, Note_on_c, 1, 63, 127
2, 29080, Note_off_c, 1, 68, 0
2, 29080, Note_off_c, 1, 76, 0
2, 29120, Note_on_c, 1, 37, 127
2, 29120, Note_off_c, 1, 43, 0
2, 29120, Note_off_c, 1, 49, 0
2, 29120, Note_off_c, 1, 58, 0
2, 29120, Note_on_c, 1, 61, 127
2, 29120, Note_off_c, 1, 63, 0
2, 29120, Note_on_c, 1, 65, 127
2, 29120, Note_on_c, 1, 73, 127
2, 29160, Note_off_c, 1, 37, 0
2, 29160, Note_on_c, 1, 48, 127
2, 29160, Note_on_c, 1, 56, 127
2, 29160, Note_off_c, 1, 61, 0
2, 29160, Note_off_c, 1, 65, 0
2, 29160, Note_on_c, 1, 66, 127
2, 29160, Note_on_c, 1, 68, 127
2, 29160, Note_off_c, 1, 73, 0
2, 29160, Note_on_c, 1, 75, 127
2, 29200, Note_on_c, 1, 43, 127
2, 29200, Note_off_c, 1, 48, 0
2, 29200, Note_on_c, 1, 49, 127
2, 29200, Note_off_c, 1, 56, 0
2, 29200, Note_on_c, 1, 58, 127
2, 29200, Note_on_c, 1, 63, 127
2, 29200, Note_off_c, 1, 66, 0
2, 29200, Note_off_c, 1, 68, 0
2, 29200, Note_off_c, 1, 75, 0
2, 29360, Note_off_c, 1, 43, 0
2, 29360, Note_off_c, 1, 49, 0
2, 29360, Note_off_c, 1, 58, 0
2, 29360, Note_off_c, 1, 63, 0
2, 29400, Note_on_c, 1, 57, 127
2, 29400, Note_on_c, 1, 64, 127
2, 29400, Note_on_c, 1, 72, 127
2, 29720, Note_off_c, 1, 57, 0
2, 29720, Note_off_c, 1, 64, 0
2, 29720, Note_off_c, 1, 72, 0
2, 29760, Note_on_c, 1, 57, 127
2, 29760, Note_on_c, 1, 64, 127
2, 29760, Note_on_c, 1, 72, 127
2, 30080, Note_off_c, 1, 57, 0
2, 30080, Note_off_c, 1, 64, 0
2, 30080, Note_off_c, 1, 72, 0
2, 30120, Note_on_c, 1, 50, 127
2, 30120, Note_on_c, 1, 58, 127
2, 30120, Note_on_c, 1, 62, 127
2, 30120, Note_on_c, 1, 70, 127
2, 30120, Note_on_c, 1, 77, 127
2, 30120, Note_on_c, 1, 80, 127
2, 30120, Note_on_c, 1, 82, 127
2, 30160, Note_off_c, 1, 50, 0
2, 30160, Note_on_c, 1, 55, 127
2, 30160, Note_off_c, 1, 58, 0
2, 30160, Note_off_c, 1, 70, 0
2, 30160, Note_on_c, 1, 71, 127
2, 30160, Note_off_c, 1, 77, 0
2, 30160, Note_on_c, 1, 78, 127
2, 30160, Note_off_c, 1, 80, 0
2, 30160, Note_off_c, 1, 82, 0
2, 30160, Note_on_c, 1, 86, 127
2, 30200, Note_on_c, 1, 50, 127
2, 30200, Note_off_c, 1, 55, 0
2, 30200, Note_on_c, 1, 58, 127
2, 30200, Note_on_c, 1, 70, 127
2, 30200, Note_off_c, 1, 71, 0
2, 30200, Note_on_c, 1, 77, 127
2, 30200, Note_off_c, 1, 78, 0
2, 30200, Note_on_c, 1, 80, 127
2, 30200, Note_on_c, 1, 82, 127
2, 30200, Note_off_c, 1, 86, 0
2, 30440, Note_off_c, 1, 50, 0
2, 30440, Note_off_c, 1, 58, 0
2, 30440, Note_off_c, 1, 62, 0
2, 30440, Note_off_c, 1, 70, 0
2, 30440, Note_off_c, 1, 77, 0
2, 30440, Note_off_c, 1, 80, 0
2, 30440, Note_off_c, 1, 82, 0
2, 30480, Note_on_c, 1, 55, 127
2, 30480, Note_on_c, 1, 58, 127
2, 30480, Note_on_c, 1, 64, 127
2, 30480, Note_on_c, 1, 73, 127
2, 30760, Note_off_c, 1, 55, 0
2, 30760, Note_off_c, 1, 58, 0
2, 30760, Note_off_c, 1, 64, 0
2, 30760, Note_off_c, 1, 73, 0
2, 30800, Note_on_c, 1, 57, 127
2, 30800, Note_on_c, 1, 65, 127
2, 30800, Note_on_c, 1, 74, 127
2, 31160, Note_off_c, 1, 57, 0
2, 31160, Note_off_c, 1, 65, 0
2, 31160, Note_off_c, 1, 74, 0
2, 31200, Note_on_c, 1, 57, 127
2, 31200, Note_on_c, 1, 65, 127
2, 31200, Note_on_c, 1, 74, 127
2, 31520, Note_off_c, 1, 57, 0
2, 31520, Note_off_c, 1, 65, 0
2, 31520, Note_off_c, 1, 74, 0
2, 31560, Note_on_c, 1, 48, 127
2, 31560, Note_on_c, 1, 64, 127
2, 31560, Note_on_c, 1, 67, 127
2, 31560, Note_on_c, 1, 72, 127
2, 31560, Note_on_c, 1, 79, 127
2, 32600, Note_off_c, 1, 48, 0
2, 32600, Note_off_c, 1, 64, 0
2, 32600, Note_off_c, 1, 67, 0
2, 32600, Note_off_c, 1, 72, 0
2, 32600, Note_off_c, 1, 79, 0
2, 32640, Note_on_c, 1, 45, 127
2, 32640, Note_on_c, 1, 52, 127
2, 32640, Note_on_c, 1, 61, 127
2, 32640, Note_on_c, 1, 64, 127
2, 32640, Note_on_c, 1, 68, 127
2, 33080, Note_on_c, 1, 59, 127
2, 33160, Note_off_c, 1, 45, 0
2, 33160, Note_off_c, 1, 52, 0
2, 33160, Note_off_c, 1, 59, 0
2, 33160, Note_off_c, 1, 61, 0
2, 33160, Note_off_c, 1, 64, 0
2, 33160, Note_off_c, 1, 68, 0
2, 33200, Note_on_c, 1, 45, 127
2, 33200, Note_on_c, 1, 52, 127
2, 33200, Note_on_c, 1, 61, 127
2, 33200, Note_on_c, 1, 64, 127
2, 33200, Note_on_c, 1, 68, 127
2, 33360, Note_off_c, 1, 45, 0
2, 33360, Note_off_c, 1, 52, 0
2, 33360, Note_off_c, 1, 61, 0
2, 33360, Note_off_c, 1, 64, 0
2, 33360, Note_off_c, 1, 68, 0
2, 33400, Note_on_c, 1, 63, 127
2, 33400, Note_on_c, 1, 66, 127
2, 33400, Note_on_c, 1, 68, 127
2, 33400, Note_on_c, 1, 92, 127
2, 33440, Note_on_c, 1, 47, 127
2, 33440, Note_on_c, 1, 61, 127
2, 33440, Note_off_c, 1, 63, 0
2, 33440, Note_on_c, 1, 65, 127
2, 33440, Note_off_c, 1, 66, 0
2, 33440, Note_on_c, 1, 80, 127
2, 33440, Note_off_c, 1, 92, 0
2, 33480, Note_on_c, 1, 27, 127
2, 33480, Note_on_c, 1, 39, 127
2, 33480, Note_off_c, 1, 47, 0
2, 33480, Note_on_c, 1, 49, 127
2, 33480, Note_on_c, 1, 51, 127
2, 33480, Note_on_c, 1, 55, 127
2, 33480, Note_on_c, 1, 60, 127
2, 33480, Note_off_c, 1, 61, 0
2, 33480, Note_on_c, 1, 63, 127
2, 33480, Note_off_c, 1, 65, 0
2, 33480, Note_off_c, 1, 68, 0
2, 33480, Note_off_c, 1, 80, 0
2, 33520, Note_off_c, 1, 27, 0
2, 33520, Note_off_c, 1, 39, 0
2, 33520, Note_off_c, 1, 49, 0
2, 33520, Note_off_c, 1, 51, 0
2, 33520, Note_off_c, 1, 55, 0
2, 33520, Note_off_c, 1, 60, 0
2, 33520, Note_on_c, 1, 61, 127
2, 33520, Note_off_c, 1, 63, 0
2, 33520, Note_on_c, 1, 66, 127
2, 33520, Note_on_c, 1, 70, 127
2, 33520, Note_on_c, 1, 73, 127
2, 33520, Note_on_c, 1, 85, 127
2, 33560, Note_on_c, 1, 47, 127
2, 33560, Note_on_c, 1, 65, 127
2, 33560, Note_off_c, 1, 66, 0
2, 33560, Note_on_c, 1, 68, 127
2, 33560, Note_off_c, 1, 70, 0
2, 33560, Note_off_c, 1, 73, 0
2, 33560, Note_on_c, 1, 80, 127
2, 33560, Note_off_c, 1, 85, 0
2, 33720, Note_off_c, 1, 47, 0
2, 33720, Note_on_c, 1, 49, 127
2, 33720, Note_on_c, 1, 56, 127
2, 33720, Note_off_c, 1, 61, 0
2, 33720, Note_off_c, 1, 68, 0
2, 33720, Note_on_c, 1, 72, 127
2, 33720, Note_on_c, 1, 75, 127
2, 33720, Note_off_c, 1, 80, 0
2, 33760, Note_on_c, 1, 47, 127
2, 33760, Note_off_c, 1, 49, 0
2, 33760, Note_off_c, 1, 56, 0
2, 33760, Note_on_c, 1, 61, 127
2, 33760, Note_on_c, 1, 68, 127
2, 33760, Note_off_c, 1, 72, 0
2, 33760, Note_off_c, 1, 75, 0
2, 33760, Note_on_c, 1, 80, 127
2, 34080, Note_off_c, 1, 47, 0
2, 34080, Note_off_c, 1, 61, 0
2, 34080, Note_off_c, 1, 65, 0
2, 34080, Note_off_c, 1, 68, 0
2, 34080, Note_off_c, 1, 80, 0
2, 34120, Note_on_c, 1, 33, 127
2, 34120, Note_on_c, 1, 45, 127
2, 34120, Note_on_c, 1, 89, 127
2, 34120, Note_on_c, 1, 93, 127
2, 34120, Note_on_c, 1, 101, 127
2, 34160, Note_off_c, 1, 33, 0
2, 34160, Note_off_c, 1, 45, 0
2, 34160, Note_on_c, 1, 58, 127
2, 34160, Note_on_c, 1, 63, 127
2, 34160, Note_on_c, 1, 67, 127
2, 34160, Note_off_c, 1, 89, 0
2, 34160, Note_off_c, 1, 101, 0
2, 34200, Note_on_c, 1, 40, 127
2, 34200, Note_off_c, 1, 58, 0
2, 34200, Note_off_c, 1, 63, 0
2, 34200, Note_off_c, 1, 67, 0
2, 34200, Note_on_c, 1, 74, 127
2, 34200, Note_on_c, 1, 83, 127
2, 34200, Note_on_c, 1, 86, 127
2, 34200, Note_off_c, 1, 93, 0
2, 34240, Note_off_c, 1, 40, 0
2, 34240, Note_on_c, 1, 55, 127
2, 34240, Note_off_c, 1, 74, 0
2, 34240, Note_on_c, 1, 79, 127
2, 34240, Note_off_c, 1, 83, 0
2, 34240, Note_off_c, 1, 86, 0
2, 34240, Note_on_c, 1, 90, 127
2, 34240, Note_on_c, 1, 91, 127
2, 34280, Note_on_c, 1, 53, 127
2, 34280, Note_off_c, 1, 55, 0
2, 34280, Note_on_c, 1, 56, 127
2, 34280, Note_on_c, 1, 59, 127
2, 34280, Note_on_c, 1, 62, 127
2, 34280, Note_off_c, 1, 79, 0
2, 34280, Note_off_c, 1, 90, 0
2, 34280, Note_off_c, 1, 91, 0
2, 34280, Note_on_c, 1, 95, 127
2, 34320, Note_on_c, 1, 41, 127
2, 34320, Note_off_c, 1, 53, 0
2, 34320, Note_off_c, 1, 56, 0
2, 34320, Note_off_c, 1, 59, 0
2, 34320, Note_off_c, 1, 62, 0
2, 34320, Note_on_c, 1, 74, 127
2, 34320, Note_on_c, 1, 77, 127
2, 34320, Note_on_c, 1, 80, 127
2, 34320, Note_on_c, 1, 83, 127
2, 34320, Note_on_c, 1, 86, 127
2, 34320, Note_off_c, 1, 95, 0
2, 34360, Note_off_c, 1, 41, 0
2, 34360, Note_on_c, 1, 46, 127
2, 34360, Note_on_c, 1, 58, 127
2, 34360, Note_off_c, 1, 74, 0
2, 34360, Note_off_c, 1, 77, 0
2, 34360, Note_off_c, 1, 80, 0
2, 34360, Note_off_c, 1, 83, 0
2, 34360, Note_on_c, 1, 84, 127
2, 34360, Note_off_c, 1, 86, 0
2, 34400, Note_on_c, 1, 51, 127
2, 34400, Note_on_c, 1, 55, 127
2, 34400, Note_off_c, 1, 58, 0
2, 34400, Note_on_c, 1, 61, 127
2, 34400, Note_on_c, 1, 70, 127
2, 34400, Note_off_c, 1, 84, 0
2, 34440, Note_on_c, 1, 34, 127
2, 34440, Note_off_c, 1, 46, 0
2, 34440, Note_off_c, 1, 51, 0
2, 34440, Note_off_c, 1, 55, 0
2, 34440, Note_off_c, 1, 61, 0
2, 34440, Note_off_c, 1, 70, 0
2, 34480, Note_off_c, 1, 34, 0
2, 34480, Note_on_c, 1, 47, 127
2, 34480, Note_on_c, 1, 77, 127
2, 34480, Note_on_c, 1, 91, 127
2, 34520, Note_on_c, 1, 35, 127
2, 34520, Note_off_c, 1, 47, 0
2, 34520, Note_on_c, 1, 54, 127
2, 34520, Note_on_c, 1, 59, 127
2, 34520, Note_on_c, 1, 64, 127
2, 34520, Note_on_c, 1, 68, 127
2, 34520, Note_on_c, 1, 71, 127
2, 34520, Note_off_c, 1, 77, 0
2, 34520, Note_off_c, 1, 91, 0
2, 34560, Note_off_c, 1, 35, 0
2, 34560, Note_on_c, 1, 44, 127
2, 34560, Note_on_c, 1, 48, 127
2, 34560, Note_off_c, 1, 54, 0
2, 34560, Note_off_c, 1, 59, 0
2, 34560, Note_off_c, 1, 64, 0
2, 34560, Note_off_c, 1, 68, 0
2, 34560, Note_off_c, 1, 71, 0
2, 34560, Note_on_c, 1, 72, 127
2, 34560, Note_on_c, 1, 74, 127
2, 34560, Note_on_c, 1, 84, 127
2, 34600, Note_off_c, 1, 48, 0
2, 34600, Note_on_c, 1, 56, 127
2, 34600, Note_on_c, 1, 70, 127
2, 34600, Note_off_c, 1, 72, 0
2, 34600, Note_on_c, 1, 73, 127
2, 34600, Note_off_c, 1, 74, 0
2, 34600, Note_on_c, 1, 77, 127
2, 34600, Note_off_c, 1, 84, 0
2, 34640, Note_off_c, 1, 44, 0
2, 34640, Note_off_c, 1, 56, 0
2, 34640, Note_on_c, 1, 64, 127
2, 34640, Note_on_c, 1, 69, 127
2, 34640, Note_off_c, 1, 70, 0
2, 34640, Note_on_c, 1, 72, 127
2, 34640, Note_off_c, 1, 73, 0
2, 34640, Note_on_c, 1, 84, 127
2, 34680, Note_on_c, 1, 52, 127
2, 34680, Note_on_c, 1, 60, 127
2, 34680, Note_off_c, 1, 64, 0
2, 34680, Note_on_c, 1, 67, 127
2, 34680, Note_off_c, 1, 69, 0
2, 34680, Note_off_c, 1, 77, 0
2, 34680, Note_on_c, 1, 82, 127
2, 34680, Note_off_c, 1, 84, 0
2, 34680, Note_on_c, 1, 91, 127
2, 34680, Note_on_c, 1, 94, 127
2, 34720, Note_off_c, 1, 52, 0
2, 34720, Note_off_c, 1, 60, 0
2, 34720, Note_off_c, 1, 67, 0
2, 34720, Note_on_c, 1, 80, 127
2, 34720, Note_off_c, 1, 82, 0
2, 34720, Note_on_c, 1, 84, 127
2, 34720, Note_on_c, 1, 87, 127
2, 34720, Note_off_c, 1, 91, 0
2, 34720, Note_on_c, 1, 92, 127
2, 34720, Note_off_c, 1, 94, 0
2, 34760, Note_on_c, 1, 50, 127
2, 34760, Note_on_c, 1, 62, 127
2, 34760, Note_off_c, 1, 72, 0
2, 34760, Note_off_c, 1, 84, 0
2, 34760, Note_off_c, 1, 87, 0
2, 34760, Note_off_c, 1, 92, 0
2, 34800, Note_off_c, 1, 50, 0
2, 34800, Note_off_c, 1, 62, 0
2, 34800, Note_off_c, 1, 80, 0
2, 34840, Note_on_c, 1, 45, 127
2, 34840, Note_on_c, 1, 57, 127
2, 34840, Note_on_c, 1, 73, 127
2, 34840, Note_on_c, 1, 79, 127
2, 35080, Note_off_c, 1, 45, 0
2, 35080, Note_on_c, 1, 48, 127
2, 35080, Note_on_c, 1, 50, 127
2, 35080, Note_on_c, 1, 54, 127
2, 35080, Note_off_c, 1, 57, 0
2, 35080, Note_on_c, 1, 60, 127
2, 35080, Note_on_c, 1, 72, 127
2, 35080, Note_off_c, 1, 73, 0
2, 35080, Note_on_c, 1, 74, 127
2, 35080, Note_on_c, 1, 78, 127
2, 35080, Note_off_c, 1, 79, 0
2, 35080, Note_on_c, 1, 84, 127
2, 35120, Note_on_c, 1, 45, 127
2, 35120, Note_off_c, 1, 48, 0
2, 35120, Note_off_c, 1, 50, 0
2, 35120, Note_off_c, 1, 54, 0
2, 35120, Note_on_c, 1, 57, 127
2, 35120, Note_off_c, 1, 60, 0
2, 35120, Note_off_c, 1, 72, 0
2, 35120, Note_on_c, 1, 73, 127
2, 35120, Note_off_c, 1, 74, 0
2, 35120, Note_off_c, 1, 78, 0
2, 35120, Note_on_c, 1, 79, 127
2, 35120, Note_off_c, 1, 84, 0
2, 35200, Note_off_c, 1, 45, 0
2, 35200, Note_off_c, 1, 57, 0
2, 35200, Note_off_c, 1, 73, 0
2, 35200, Note_off_c, 1, 79, 0
2, 35240, Note_on_c, 1, 45, 127
2, 35240, Note_on_c, 1, 57, 127
2, 35240, Note_on_c, 1, 73, 127
2, 35240, Note_on_c, 1, 79, 127
2, 35520, Note_off_c, 1, 45, 0
2, 35520, Note_off_c, 1, 57, 0
2, 35520, Note_off_c, 1, 73, 0
2, 35520, Note_off_c, 1, 79, 0
2, 35560, Note_on_c, 1, 50, 127
2, 35560, Note_on_c, 1, 59, 127
2, 35560, Note_on_c, 1, 62, 127
2, 35560, Note_on_c, 1, 66, 127
2, 35560, Note_on_c, 1, 71, 127
2, 35560, Note_on_c, 1, 74, 127
2, 35880, Note_off_c, 1, 50, 0
2, 35880, Note_off_c, 1, 59, 0
2, 35880, Note_off_c, 1, 62, 0
2, 35880, Note_off_c, 1, 66, 0
2, 35880, Note_off_c, 1, 71, 0
2, 35880, Note_off_c, 1, 74, 0
2, 35920, Note_on_c, 1, 50, 127
2, 35920, Note_on_c, 1, 59, 127
2, 35920, Note_on_c, 1, 62, 127
2, 35920, Note_on_c, 1, 66, 127
2, 35920, Note_on_c, 1, 71, 127
2, 35920, Note_on_c, 1, 74, 127
2, 36240, Note_off_c, 1, 50, 0
2, 36240, Note_off_c, 1, 59, 0
2, 36240, Note_off_c, 1, 62, 0
2, 36240, Note_off_c, 1, 66, 0
2, 36240, Note_off_c, 1, 71, 0
2, 36240, Note_off_c, 1, 74, 0
2, 36280, Note_on_c, 1, 43, 127
2, 36280, Note_on_c, 1, 53, 127
2, 36280, Note_on_c, 1, 55, 127
2, 36280, Note_on_c, 1, 62, 127
2, 36280, Note_on_c, 1, 67, 127
2, 36280, Note_on_c, 1, 71, 127
2, 36560, Note_off_c, 1, 43, 0
2, 36560, Note_off_c, 1, 53, 0
2, 36560, Note_off_c, 1, 55, 0
2, 36560, Note_off_c, 1, 62, 0
2, 36560, Note_off_c, 1, 67, 0
2, 36560, Note_off_c, 1, 71, 0
2, 36600, Note_on_c, 1, 61, 127
2, 36600, Note_on_c, 1, 68, 127
2, 36600, Note_on_c, 1, 77, 127
2, 36600, Note_on_c, 1, 84, 127
2, 36920, Note_off_c, 1, 61, 0
2, 36920, Note_off_c, 1, 68, 0
2, 36920, Note_off_c, 1, 77, 0
2, 36920, Note_off_c, 1, 84, 0
2, 36960, Note_on_c, 1, 32, 127
2, 36960, Note_on_c, 1, 38, 127
2, 36960, Note_on_c, 1, 44, 127
2, 36960, Note_on_c, 1, 71, 127
2, 37000, Note_off_c, 1, 32, 0
2, 37000, Note_off_c, 1, 38, 0
2, 37000, Note_off_c, 1, 44, 0
2, 37000, Note_on_c, 1, 52, 127
2, 37000, Note_on_c, 1, 54, 127
2, 37000, Note_on_c, 1, 69, 127
2, 37000, Note_off_c, 1, 71, 0
2, 37000, Note_on_c, 1, 80, 127
2, 37040, Note_off_c, 1, 52, 0
2, 37040, Note_off_c, 1, 54, 0
2, 37040, Note_off_c, 1, 69, 0
2, 37040, Note_on_c, 1, 70, 127
2, 37040, Note_on_c, 1, 72, 127
2, 37040, Note_on_c, 1, 78, 127
2, 37040, Note_off_c, 1, 80, 0
2, 37040, Note_on_c, 1, 87, 127
2, 37040, Note_on_c, 1, 89, 127
2, 37040, Note_on_c, 1, 93, 127
2, 37080, Note_off_c, 1, 70, 0
2, 37080, Note_off_c, 1, 72, 0
2, 37080, Note_off_c, 1, 78, 0
2, 37080, Note_off_c, 1, 87, 0
2, 37080, Note_off_c, 1, 89, 0
2, 37080, Note_off_c, 1, 93, 0
2, 37120, Note_on_c, 1, 39, 127
2, 37120, Note_on_c, 1, 80, 127
2, 37120, Note_on_c, 1, 86, 127
2, 37160, Note_off_c, 1, 39, 0
2, 37160, Note_on_c, 1, 46, 127
2, 37160, Note_on_c, 1, 56, 127
2, 37160, Note_on_c, 1, 64, 127
2, 37160, Note_on_c, 1, 68, 127
2, 37160, Note_off_c, 1, 80, 0
2, 37160, Note_off_c, 1, 86, 0
2, 37200, Note_off_c, 1, 46, 0
2, 37200, Note_on_c, 1, 52, 127
2, 37200, Note_on_c, 1, 54, 127
2, 37200, Note_off_c, 1, 56, 0
2, 37200, Note_off_c, 1, 64, 0
2, 37200, Note_off_c, 1, 68, 0
2, 37200, Note_on_c, 1, 69, 127
2, 37200, Note_on_c, 1, 80, 127
2, 37240, Note_on_c, 1, 46, 127
2, 37240, Note_off_c, 1, 52, 0
2, 37240, Note_off_c, 1, 54, 0
2, 37240, Note_on_c, 1, 58, 127
2, 37240, Note_off_c, 1, 69, 0
2, 37240, Note_off_c, 1, 80, 0
2, 37240, Note_on_c, 1, 83, 127
2, 37240, Note_on_c, 1, 88, 127
2, 37240, Note_on_c, 1, 95, 127
2, 37280, Note_off_c, 1, 46, 0
2, 37280, Note_off_c, 1, 58, 0
2, 37280, Note_off_c, 1, 83, 0
2, 37280, Note_off_c, 1, 88, 0
2, 37280, Note_off_c, 1, 95, 0
2, 37320, Note_on_c, 1, 58, 127
2, 37320, Note_on_c, 1, 61, 127
2, 37320, Note_on_c, 1, 66, 127
2, 37320, Note_on_c, 1, 70, 127
2, 37320, Note_on_c, 1, 73, 127
2, 37320, Note_on_c, 1, 78, 127
2, 37320, Note_on_c, 1, 82, 127
2, 37320, Note_on_c, 1, 85, 127
2, 37640, Note_off_c, 1, 58, 0
2, 37640, Note_off_c, 1, 61, 0
2, 37640, Note_off_c, 1, 66, 0
2, 37640, Note_off_c, 1, 70, 0
2, 37640, Note_off_c, 1, 73, 0
2, 37640, Note_off_c, 1, 78, 0
2, 37640, Note_off_c, 1, 82, 0
2, 37640, Note_off_c, 1, 85, 0
2, 37680, Note_on_c, 1, 53, 127
2, 37680, Note_on_c, 1, 72, 127
2, 37680, Note_on_c, 1, 77, 127
2, 37680, Note_on_c, 1, 82, 127
2, 37960, Note_off_c, 1, 53, 0
2, 37960, Note_off_c, 1, 72, 0
2, 37960, Note_off_c, 1, 77, 0
2, 37960, Note_off_c, 1, 82, 0
2, 38000, Note_on_c, 1, 48, 127
2, 38000, Note_on_c, 1, 55, 127
2, 38000, Note_on_c, 1, 58, 127
2, 38000, Note_on_c, 1, 70, 127
2, 38000, Note_on_c, 1, 74, 127
2, 38000, Note_on_c, 1, 77, 127
2, 38040, Note_off_c, 1, 48, 0
2, 38040, Note_on_c, 1, 52, 127
2, 38040, Note_on_c, 1, 54, 127
2, 38040, Note_off_c, 1, 55, 0
2, 38040, Note_on_c, 1, 57, 127
2, 38040, Note_off_c, 1, 58, 0
2, 38040, Note_on_c, 1, 64, 127
2, 38040, Note_off_c, 1, 70, 0
2, 38040, Note_off_c, 1, 74, 0
2, 38040, Note_on_c, 1, 76, 127
2, 38040, Note_off_c, 1, 77, 0
2, 38040, Note_on_c, 1, 88, 127
2, 38080, Note_on_c, 1, 49, 127
2, 38080, Note_off_c, 1, 52, 0
2, 38080, Note_off_c, 1, 54, 0
2, 38080, Note_off_c, 1, 57, 0
2, 38080, Note_off_c, 1, 64, 0
2, 38080, Note_on_c, 1, 75, 127
2, 38080, Note_off_c, 1, 76, 0
2, 38080, Note_on_c, 1, 78, 127
2, 38080, Note_on_c, 1, 87, 127
2, 38080, Note_off_c, 1, 88, 0
2, 38120, Note_on_c, 1, 45, 127
2, 38120, Note_off_c, 1, 49, 0
2, 38120, Note_on_c, 1, 56, 127
2, 38120, Note_on_c, 1, 61, 127
2, 38120, Note_off_c, 1, 75, 0
2, 38120, Note_on_c, 1, 76, 127
2, 38120, Note_off_c, 1, 78, 0
2, 38120, Note_on_c, 1, 83, 127
2, 38120, Note_off_c, 1, 87, 0
2, 38120, Note_on_c, 1, 88, 127
2, 38160, Note_off_c, 1, 45, 0
2, 38160, Note_on_c, 1, 49, 127
2, 38160, Note_on_c, 1, 54, 127
2, 38160, Note_on_c, 1, 60, 127
2, 38160, Note_off_c, 1, 61, 0
2, 38160, Note_off_c, 1, 76, 0
2, 38160, Note_on_c, 1, 80, 127
2, 38160, Note_off_c, 1, 83, 0
2, 38160, Note_off_c, 1, 88, 0
2, 38200, Note_off_c, 1, 49, 0
2, 38200, Note_off_c, 1, 54, 0
2, 38200, Note_on_c, 1, 55, 127
2, 38200, Note_off_c, 1, 56, 0
2, 38200, Note_off_c, 1, 60, 0
2, 38200, Note_on_c, 1, 76, 127
2, 38200, Note_on_c, 1, 79, 127
2, 38200, Note_off_c, 1, 80, 0
2, 38200, Note_on_c, 1, 88, 127
2, 38280, Note_on_c, 1, 40, 127
2, 38280, Note_on_c, 1, 43, 127
2, 38280, Note_on_c, 1, 52, 127
2, 38280, Note_off_c, 1, 55, 0
2, 38280, Note_on_c, 1, 67, 127
2, 38280, Note_off_c, 1, 76, 0
2, 38280, Note_off_c, 1, 79, 0
2, 38280, Note_off_c, 1, 88, 0
2, 38320, Note_off_c, 1, 40, 0
2, 38320, Note_off_c, 1, 43, 0
2, 38320, Note_off_c, 1, 52, 0
2, 38320, Note_off_c, 1, 67, 0
2, 38360, Note_on_c, 1, 55, 127
2, 38360, Note_on_c, 1, 63, 127
2, 38360, Note_on_c, 1, 66, 127
2, 38360, Note_on_c, 1, 87, 127
2, 38360, Note_on_c, 1, 90, 127
2, 38400, Note_on_c, 1, 53, 127
2, 38400, Note_off_c, 1, 63, 0
2, 38400, Note_off_c, 1, 66, 0
2, 38400, Note_on_c, 1, 67, 127
2, 38400, Note_on_c, 1, 72, 127
2, 38400, Note_off_c, 1, 87, 0
2, 38400, Note_off_c, 1, 90, 0
2, 38440, Note_on_c, 1, 44, 127
2, 38440, Note_on_c, 1, 51, 127
2, 38440, Note_off_c, 1, 55, 0
2, 38440, Note_on_c, 1, 56, 127
2, 38440, Note_on_c, 1, 60, 127
2, 38440, Note_off_c, 1, 72, 0
2, 38480, Note_on_c, 1, 31, 127
2, 38480, Note_on_c, 1, 39, 127
2, 38480, Note_on_c, 1, 43, 127
2, 38480, Note_off_c, 1, 44, 0
2, 38480, Note_off_c, 1, 51, 0
2, 38480, Note_off_c, 1, 53, 0
2, 38480, Note_off_c, 1, 56, 0
2, 38480, Note_off_c, 1, 60, 0
2, 38480, Note_off_c, 1, 67, 0
2, 38520, Note_off_c, 1, 31, 0
2, 38520, Note_off_c, 1, 39, 0
2, 38520, Note_off_c, 1, 43, 0
2, 38520, Note_on_c, 1, 57, 127
2, 38520, Note_on_c, 1, 65, 127
2, 38520, Note_on_c, 1, 72, 127
2, 38520, Note_on_c, 1, 75, 127
2, 38520, Note_on_c, 1, 77, 127
2, 38560, Note_off_c, 1, 57, 0
2, 38560, Note_on_c, 1, 67, 127
2, 38560, Note_on_c, 1, 70, 127
2, 38560, Note_off_c, 1, 72, 0
2, 38560, Note_on_c, 1, 73, 127
2, 38560, Note_off_c, 1, 75, 0
2, 38560, Note_off_c, 1, 77, 0
2, 38560, Note_on_c, 1, 84, 127
2, 38600, Note_on_c, 1, 60, 127
2, 38600, Note_off_c, 1, 65, 0
2, 38600, Note_off_c, 1, 67, 0
2, 38600, Note_on_c, 1, 68, 127
2, 38600, Note_off_c, 1, 70, 0
2, 38600, Note_on_c, 1, 72, 127
2, 38600, Note_off_c, 1, 73, 0
2, 38600, Note_on_c, 1, 79, 127
2, 38600, Note_off_c, 1, 84, 0
2, 38640, Note_off_c, 1, 60, 0
2, 38640, Note_off_c, 1, 68, 0
2, 38640, Note_off_c, 1, 72, 0
2, 38640, Note_off_c, 1, 79, 0
2, 38680, Note_on_c, 1, 35, 127
2, 38680, Note_on_c, 1, 38, 127
2, 38680, Note_on_c, 1, 47, 127
2, 38680, Note_on_c, 1, 76, 127
2, 38680, Note_on_c, 1, 79, 127
2, 38680, Note_on_c, 1, 85, 127
2, 38680, Note_on_c, 1, 86, 127
2, 38720, Note_off_c, 1, 35, 0
2, 38720, Note_off_c, 1, 38, 0
2, 38720, Note_off_c, 1, 47, 0
2, 38720, Note_on_c, 1, 54, 127
2, 38720, Note_on_c, 1, 59, 127
2, 38720, Note_on_c, 1, 62, 127
2, 38720, Note_on_c, 1, 66, 127
2, 38720, Note_on_c, 1, 74, 127
2, 38720, Note_off_c, 1, 76, 0
2, 38720, Note_on_c, 1, 78, 127
2, 38720, Note_off_c, 1, 79, 0
2, 38720, Note_on_c, 1, 83, 127
2, 38720, Note_off_c, 1, 85, 0
2, 38760, Note_off_c, 1, 54, 0
2, 38760, Note_off_c, 1, 59, 0
2, 38760, Note_off_c, 1, 62, 0
2, 38760, Note_off_c, 1, 66, 0
2, 38760, Note_on_c, 1, 68, 127
2, 38760, Note_off_c, 1, 74, 0
2, 38760, Note_on_c, 1, 75, 127
2, 38760, Note_off_c, 1, 78, 0
2, 38760, Note_off_c, 1, 86, 0
2, 38760, Note_on_c, 1, 92, 127
2, 38800, Note_on_c, 1, 44, 127
2, 38800, Note_off_c, 1, 68, 0
2, 38800, Note_off_c, 1, 75, 0
2, 38800, Note_on_c, 1, 82, 127
2, 38800, Note_off_c, 1, 83, 0
2, 38800, Note_on_c, 1, 86, 127
2, 38800, Note_on_c, 1, 89, 127
2, 38800, Note_off_c, 1, 92, 0
2, 38800, Note_on_c, 1, 94, 127
2, 38840, Note_off_c, 1, 44, 0
2, 38840, Note_on_c, 1, 55, 127
2, 38840, Note_on_c, 1, 66, 127
2, 38840, Note_on_c, 1, 72, 127
2, 38840, Note_on_c, 1, 81, 127
2, 38840, Note_off_c, 1, 82, 0
2, 38840, Note_off_c, 1, 86, 0
2, 38840, Note_off_c, 1, 89, 0
2, 38840, Note_off_c, 1, 94, 0
2, 38880, Note_on_c, 1, 47, 127
2, 38880, Note_on_c, 1, 51, 127
2, 38880, Note_on_c, 1, 54, 127
2, 38880, Note_off_c, 1, 55, 0
2, 38880, Note_on_c, 1, 57, 127
2, 38880, Note_off_c, 1, 66, 0
2, 38880, Note_off_c, 1, 72, 0
2, 38920, Note_on_c, 1, 33, 127
2, 38920, Note_on_c, 1, 37, 127
2, 38920, Note_on_c, 1, 45, 127
2, 38920, Note_off_c, 1, 47, 0
2, 38920, Note_off_c, 1, 51, 0
2, 38920, Note_off_c, 1, 57, 0
2, 38920, Note_off_c, 1, 81, 0
2, 38960, Note_off_c, 1, 33, 0
2, 38960, Note_off_c, 1, 37, 0
2, 38960, Note_off_c, 1, 45, 0
2, 38960, Note_on_c, 1, 47, 127
2, 38960, Note_on_c, 1, 48, 127
2, 38960, Note_off_c, 1, 54, 0
2, 38960, Note_on_c, 1, 55, 127
2, 38960, Note_on_c, 1, 59, 127
2, 38960, Note_on_c, 1, 60, 127
2, 39000, Note_off_c, 1, 47, 0
2, 39000, Note_off_c, 1, 48, 0
2, 39000, Note_off_c, 1, 55, 0
2, 39000, Note_off_c, 1, 59, 0
2, 39000, Note_off_c, 1, 60, 0
2, 39040, Note_on_c, 1, 37, 127
2, 39040, Note_on_c, 1, 49, 127
2, 39040, Note_on_c, 1, 73, 127
2, 39040, Note_on_c, 1, 77, 127
2, 39040, Note_on_c, 1, 82, 127
2, 39080, Note_off_c, 1, 37, 0
2, 39080, Note_off_c, 1, 49, 0
2, 39080, Note_on_c, 1, 50, 127
2, 39080, Note_on_c, 1, 61, 127
2, 39080, Note_on_c, 1, 64, 127
2, 39080, Note_off_c, 1, 73, 0
2, 39080, Note_off_c, 1, 77, 0
2, 39080, Note_on_c, 1, 79, 127
2, 39080, Note_off_c, 1, 82, 0
2, 39120, Note_on_c, 1, 35, 127
2, 39120, Note_off_c, 1, 50, 0
2, 39120, Note_on_c, 1, 54, 127
2, 39120, Note_off_c, 1, 61, 0
2, 39120, Note_on_c, 1, 66, 127
2, 39120, Note_on_c, 1, 70, 127
2, 39120, Note_on_c, 1, 76, 127
2, 39120, Note_off_c, 1, 79, 0
2, 39160, Note_off_c, 1, 35, 0
2, 39160, Note_off_c, 1, 54, 0
2, 39160, Note_off_c, 1, 64, 0
2, 39160, Note_off_c, 1, 66, 0
2, 39160, Note_off_c, 1, 70, 0
2, 39160, Note_on_c, 1, 72, 127
2, 39160, Note_on_c, 1, 79, 127
2, 39160, Note_on_c, 1, 83, 127
2, 39200, Note_off_c, 1, 72, 0
2, 39200, Note_on_c, 1, 74, 127
2, 39200, Note_off_c, 1, 76, 0
2, 39200, Note_off_c, 1, 79, 0
2, 39200, Note_on_c, 1, 82, 127
2, 39200, Note_off_c, 1, 83, 0
2, 39200, Note_on_c, 1, 89, 127
2, 39200, Note_on_c, 1, 101, 127
2, 39240, Note_on_c, 1, 48, 127
2, 39240, Note_on_c, 1, 64, 127
2, 39240, Note_off_c, 1, 74, 0
2, 39240, Note_off_c, 1, 82, 0
2, 39240, Note_on_c, 1, 84, 127
2, 39240, Note_off_c, 1, 89, 0
2, 39240, Note_on_c, 1, 93, 127
2, 39240, Note_off_c, 1, 101, 0
2, 39280, Note_off_c, 1, 48, 0
2, 39280, Note_off_c, 1, 64, 0
2, 39280, Note_off_c, 1, 84, 0
2, 39280, Note_off_c, 1, 93, 0
2, 39320, Note_on_c, 1, 59, 127
2, 39320, Note_on_c, 1, 63, 127
2, 39320, Note_on_c, 1, 68, 127
2, 39320, Note_on_c, 1, 85, 127
2, 39360, Note_on_c, 1, 57, 127
2, 39360, Note_off_c, 1, 59, 0
2, 39360, Note_on_c, 1, 60, 127
2, 39360, Note_off_c, 1, 68, 0
2, 39360, Note_on_c, 1, 72, 127
2, 39360, Note_on_c, 1, 78, 127
2, 39360, Note_off_c, 1, 85, 0
2, 39400, Note_on_c, 1, 39, 127
2, 39400, Note_on_c, 1, 50, 127
2, 39400, Note_on_c, 1, 55, 127
2, 39400, Note_off_c, 1, 57, 0
2, 39400, Note_off_c, 1, 60, 0
2, 39400, Note_on_c, 1, 62, 127
2, 39400, Note_off_c, 1, 63, 0
2, 39400, Note_on_c, 1, 67, 127
2, 39400, Note_off_c, 1, 72, 0
2, 39400, Note_off_c, 1, 78, 0
2, 39720, Note_off_c, 1, 39, 0
2, 39720, Note_off_c, 1, 50, 0
2, 39720, Note_off_c, 1, 55, 0
2, 39720, Note_off_c, 1, 62, 0
2, 39720, Note_off_c, 1, 67, 0
2, 39760, Note_on_c, 1, 56, 127
2, 39760, Note_on_c, 1, 60, 127
2, 39760, Note_on_c, 1, 65, 127
2, 39760, Note_on_c, 1, 68, 127
2, 39760, Note_on_c, 1, 84, 127
2, 40080, Note_off_c, 1, 56, 0
2, 40080, Note_off_c, 1, 60, 0
2, 40080, Note_off_c, 1, 65, 0
2, 40080, Note_off_c, 1, 68, 0
2, 40080, Note_on_c, 1, 75, 127
2, 40080, Note_on_c, 1, 78, 127
2, 40080, Note_on_c, 1, 87, 127
2, 40120, Note_on_c, 1, 56, 127
2, 40120, Note_on_c, 1, 72, 127
2, 40120, Note_off_c, 1, 75, 0
2, 40120, Note_off_c, 1, 78, 0
2, 40120, Note_on_c, 1, 80, 127
2, 40120, Note_off_c, 1, 87, 0
2, 40440, Note_off_c, 1, 56, 0
2, 40440, Note_off_c, 1, 72, 0
2, 40440, Note_off_c, 1, 80, 0
2, 40440, Note_off_c, 1, 84, 0
2, 40480, Note_on_c, 1, 39, 127
2, 40480, Note_on_c, 1, 46, 127
2, 40480, Note_on_c, 1, 49, 127
2, 40480, Note_on_c, 1, 51, 127
2, 40480, Note_on_c, 1, 73, 127
2, 40520, Note_off_c, 1, 39, 0
2, 40520, Note_off_c, 1, 49, 0
2, 40520, Note_on_c, 1, 54, 127
2, 40520, Note_on_c, 1, 57, 127
2, 40520, Note_on_c, 1, 60, 127
2, 40520, Note_off_c, 1, 73, 0
2, 40560, Note_on_c, 1, 38, 127
2, 40560, Note_off_c, 1, 51, 0
2, 40560, Note_on_c, 1, 53, 127
2, 40560, Note_off_c, 1, 54, 0
2, 40560, Note_on_c, 1, 56, 127
2, 40560, Note_off_c, 1, 57, 0
2, 40560, Note_on_c, 1, 58, 127
2, 40560, Note_off_c, 1, 60, 0
2, 40600, Note_off_c, 1, 38, 0
2, 40600, Note_on_c, 1, 51, 127
2, 40600, Note_off_c, 1, 53, 0
2, 40600, Note_on_c, 1, 54, 127
2, 40600, Note_off_c, 1, 56, 0
2, 40600, Note_on_c, 1, 57, 127
2, 40600, Note_off_c, 1, 58, 0
2, 40600, Note_on_c, 1, 60, 127
2, 40760, Note_on_c, 1, 39, 127
2, 40760, Note_off_c, 1, 46, 0
2, 40760, Note_off_c, 1, 51, 0
2, 40760, Note_on_c, 1, 53, 127
2, 40760, Note_off_c, 1, 54, 0
2, 40760, Note_off_c, 1, 57, 0
2, 40760, Note_off_c, 1, 60, 0
2, 40760, Note_on_c, 1, 80, 127
2, 40800, Note_on_c, 1, 33, 127
2, 40800, Note_off_c, 1, 39, 0
2, 40800, Note_on_c, 1, 40, 127
2, 40800, Note_on_c, 1, 45, 127
2, 40800, Note_off_c, 1, 53, 0
2, 40800, Note_off_c, 1, 80, 0
2, 40840, Note_off_c, 1, 33, 0
2, 40840, Note_off_c, 1, 40, 0
2, 40840, Note_off_c, 1, 45, 0
2, 40840, Note_on_c, 1, 46, 127
2, 40840, Note_on_c, 1, 51, 127
2, 40840, Note_on_c, 1, 54, 127
2, 40840, Note_on_c, 1, 57, 127
2, 40840, Note_on_c, 1, 60, 127
2, 41120, Note_off_c, 1, 46, 0
2, 41120, Note_off_c, 1, 51, 0
2, 41120, Note_off_c, 1, 54, 0
2, 41120, Note_off_c, 1, 57, 0
2, 41120, Note_off_c, 1, 60, 0
2, 41160, Note_on_c, 1, 40, 127
2, 41160, Note_on_c, 1, 52, 127
2, 41160, Note_on_c, 1, 56, 127
2, 41160, Note_on_c, 1, 59, 127
2, 41160, Note_on_c, 1, 64, 127
2, 41160, Note_on_c, 1, 68, 127
2, 41160, Note_on_c, 1, 76, 127
2, 41160, Note_on_c, 1, 80, 127
2, 41160, Note_on_c, 1, 88, 127
2, 41200, Note_off_c, 1, 40, 0
2, 41200, Note_off_c, 1, 52, 0
2, 41200, Note_on_c, 1, 55, 127
2, 41200, Note_off_c, 1, 56, 0
2, 41200, Note_off_c, 1, 64, 0
2, 41200, Note_on_c, 1, 65, 127
2, 41200, Note_off_c, 1, 68, 0
2, 41200, Note_off_c, 1, 76, 0
2, 41200, Note_on_c, 1, 77, 127
2, 41200, Note_off_c, 1, 80, 0
2, 41200, Note_on_c, 1, 83, 127
2, 41200, Note_off_c, 1, 88, 0
2, 41200, Note_on_c, 1, 89, 127
2, 41240, Note_on_c, 1, 49, 127
2, 41240, Note_on_c, 1, 53, 127
2, 41240, Note_off_c, 1, 55, 0
2, 41240, Note_on_c, 1, 57, 127
2, 41240, Note_off_c, 1, 59, 0
2, 41240, Note_off_c, 1, 65, 0
2, 41240, Note_on_c, 1, 69, 127
2, 41240, Note_on_c, 1, 75, 127
2, 41240, Note_off_c, 1, 77, 0
2, 41240, Note_off_c, 1, 83, 0
2, 41240, Note_off_c, 1, 89, 0
2, 41280, Note_on_c, 1, 46, 127
2, 41280, Note_off_c, 1, 49, 0
2, 41280, Note_off_c, 1, 53, 0
2, 41280, Note_on_c, 1, 56, 127
2, 41280, Note_off_c, 1, 57, 0
2, 41280, Note_off_c, 1, 69, 0
2, 41280, Note_off_c, 1, 75, 0
2, 41280, Note_on_c, 1, 86, 127
2, 41320, Note_off_c, 1, 46, 0
2, 41320, Note_on_c, 1, 49, 127
2, 41320, Note_on_c, 1, 53, 127
2, 41320, Note_on_c, 1, 61, 127
2, 41320, Note_on_c, 1, 75, 127
2, 41320, Note_off_c, 1, 86, 0
2, 41360, Note_off_c, 1, 49, 0
2, 41360, Note_on_c, 1, 52, 127
2, 41360, Note_off_c, 1, 53, 0
2, 41360, Note_on_c, 1, 60, 127
2, 41360, Note_off_c, 1, 61, 0
2, 41360, Note_on_c, 1, 66, 127
2, 41360, Note_off_c, 1, 75, 0
2, 41360, Note_on_c, 1, 78, 127
2, 41400, Note_on_c, 1, 34, 127
2, 41400, Note_on_c, 1, 39, 127
2, 41400, Note_on_c, 1, 46, 127
2, 41400, Note_off_c, 1, 52, 0
2, 41400, Note_off_c, 1, 56, 0
2, 41400, Note_off_c, 1, 60, 0
2, 41400, Note_off_c, 1, 66, 0
2, 41400, Note_on_c, 1, 75, 127
2, 41400, Note_off_c, 1, 78, 0
2, 41400, Note_on_c, 1, 87, 127
2, 41440, Note_off_c, 1, 34, 0
2, 41440, Note_off_c, 1, 39, 0
2, 41440, Note_off_c, 1, 46, 0
2, 41440, Note_on_c, 1, 50, 127
2, 41440, Note_on_c, 1, 51, 127
2, 41440, Note_off_c, 1, 75, 0
2, 41440, Note_off_c, 1, 87, 0
2, 41440, Note_on_c, 1, 93, 127
2, 41480, Note_off_c, 1, 50, 0
2, 41480, Note_off_c, 1, 51, 0
2, 41480, Note_off_c, 1, 93, 0
2, 41520, Note_on_c, 1, 52, 127
2, 41520, Note_on_c, 1, 59, 127
2, 41520, Note_on_c, 1, 64, 127
2, 41520, Note_on_c, 1, 80, 127
2, 41560, Note_on_c, 1, 39, 127
2, 41560, Note_on_c, 1, 47, 127
2, 41560, Note_off_c, 1, 52, 0
2, 41560, Note_on_c, 1, 58, 127
2, 41560, Note_off_c, 1, 59, 0
2, 41560, Note_on_c, 1, 63, 127
2, 41560, Note_off_c, 1, 64, 0
2, 41560, Note_on_c, 1, 70, 127
2, 41560, Note_off_c, 1, 80, 0
2, 42240, Note_off_c, 1, 39, 0
2, 42240, Note_off_c, 1, 47, 0
2, 42240, Note_on_c, 1, 53, 127
2, 42240, Note_on_c, 1, 67, 127
2, 42240, Note_off_c, 1, 70, 0
2, 42280, Note_off_c, 1, 53, 0
2, 42280, Note_on_c, 1, 57, 127
2, 42280, Note_off_c, 1, 63, 0
2, 42280, Note_off_c, 1, 67, 0
2, 42280, Note_on_c, 1, 80, 127
2, 42280, Note_on_c, 1, 81, 127
2, 42320, Note_off_c, 1, 57, 0
2, 42320, Note_off_c, 1, 58, 0
2, 42320, Note_on_c, 1, 59, 127
2, 42320, Note_on_c, 1, 64, 127
2, 42320, Note_on_c, 1, 67, 127
2, 42320, Note_on_c, 1, 71, 127
2, 42320, Note_off_c, 1, 80, 0
2, 42320, Note_off_c, 1, 81, 0
2, 42320, Note_on_c, 1, 91, 127
2, 42600, Note_off_c, 1, 59, 0
2, 42600, Note_off_c, 1, 64, 0
2, 42600, Note_off_c, 1, 67, 0
2, 42600, Note_off_c, 1, 71, 0
2, 42600, Note_off_c, 1, 91, 0
2, 42640, Note_on_c, 1, 59, 127
2, 42640, Note_on_c, 1, 62, 127
2, 42640, Note_on_c, 1, 66, 127
2, 42640, Note_on_c, 1, 83, 127
2, 43280, Note_off_c, 1, 59, 0
2, 43280, Note_off_c, 1, 62, 0
2, 43280, Note_off_c, 1, 66, 0
2, 43280, Note_off_c, 1, 83, 0
2, 43320, Note_on_c, 1, 59, 127
2, 43320, Note_on_c, 1, 62, 127
2, 43320, Note_on_c, 1, 66, 127
2, 43320, Note_on_c, 1, 83, 127
2, 43640, Note_off_c, 1, 59, 0
2, 43640, Note_off_c, 1, 62, 0
2, 43640, Note_off_c, 1, 66, 0
2, 43640, Note_off_c, 1, 83, 0
2, 43720, Note_on_c, 1, 59, 127
2, 43720, Note_on_c, 1, 62, 127
2, 43720, Note_on_c, 1, 66, 127
2, 43720, Note_on_c, 1, 83, 127
2, 44000, Note_off_c, 1, 59, 0
2, 44000, Note_off_c, 1, 62, 0
2, 44000, Note_off_c, 1, 66, 0
2, 44000, Note_off_c, 1, 83, 0
2, 44040, Note_on_c, 1, 55, 127
2, 44040, Note_on_c, 1, 71, 127
2, 44040, Note_on_c, 1, 74, 127
2, 44040, Note_on_c, 1, 79, 127
2, 44720, Note_off_c, 1, 55, 0
2, 44720, Note_off_c, 1, 71, 0
2, 44720, Note_off_c, 1, 74, 0
2, 44720, Note_off_c, 1, 79, 0
2, 44760, Note_on_c, 1, 55, 127
2, 44760, Note_on_c, 1, 71, 127
2, 44760, Note_on_c, 1, 74, 127
2, 44760, Note_on_c, 1, 79, 127
2, 45440, Note_off_c, 1, 55, 0
2, 45440, Note_off_c, 1, 71, 0
2, 45440, Note_off_c, 1, 74, 0
2, 45440, Note_off_c, 1, 79, 0
2, 45480, Note_on_c, 1, 55, 127
2, 45480, Note_on_c, 1, 74, 127
2, 45480, Note_on_c, 1, 79, 127
2, 45480, Note_on_c, 1, 83, 127
2, 45800, Note_off_c, 1, 55, 0
2, 45840, Note_off_c, 1, 74, 0
2, 45840, Note_off_c, 1, 79, 0
2, 45840, Note_off_c, 1, 83, 0
2, 45880, Note_on_c, 1, 43, 127
2, 45880, Note_on_c, 1, 74, 127
2, 45880, Note_on_c, 1, 79, 127
2, 45880, Note_on_c, 1, 83, 127
2, 46120, Note_off_c, 1, 43, 0
2, 46120, Note_on_c, 1, 65, 127
2, 46160, Note_off_c, 1, 65, 0
2, 46160, Note_off_c, 1, 74, 0
2, 46160, Note_off_c, 1, 79, 0
2, 46160, Note_off_c, 1, 83, 0
2, 46200, Note_on_c, 1, 55, 127
2, 46200, Note_on_c, 1, 58, 127
2, 46200, Note_on_c, 1, 64, 127
2, 46200, Note_on_c, 1, 70, 127
2, 46200, Note_on_c, 1, 74, 127
2, 46320, Note_off_c, 1, 55, 0
2, 46320, Note_on_c, 1, 57, 127
2, 46320, Note_off_c, 1, 58, 0
2, 46320, Note_off_c, 1, 64, 0
2, 46320, Note_on_c, 1, 66, 127
2, 46320, Note_off_c, 1, 70, 0
2, 46320, Note_off_c, 1, 74, 0
2, 46320, Note_on_c, 1, 90, 127
2, 46320, Note_on_c, 1, 93, 127
2, 46360, Note_on_c, 1, 55, 127
2, 46360, Note_off_c, 1, 57, 0
2, 46360, Note_on_c, 1, 58, 127
2, 46360, Note_on_c, 1, 64, 127
2, 46360, Note_off_c, 1, 66, 0
2, 46360, Note_on_c, 1, 70, 127
2, 46360, Note_on_c, 1, 74, 127
2, 46360, Note_off_c, 1, 90, 0
2, 46360, Note_off_c, 1, 93, 0
2, 46480, Note_off_c, 1, 55, 0
2, 46480, Note_off_c, 1, 58, 0
2, 46480, Note_off_c, 1, 64, 0
2, 46480, Note_on_c, 1, 75, 127
2, 46520, Note_off_c, 1, 70, 0
2, 46520, Note_off_c, 1, 74, 0
2, 46520, Note_off_c, 1, 75, 0
2, 46560, Note_on_c, 1, 38, 127
2, 46560, Note_on_c, 1, 52, 127
2, 46560, Note_on_c, 1, 70, 127
2, 46600, Note_off_c, 1, 38, 0
2, 46600, Note_off_c, 1, 52, 0
2, 46600, Note_on_c, 1, 60, 127
2, 46600, Note_on_c, 1, 67, 127
2, 46600, Note_on_c, 1, 76, 127
2, 46600, Note_on_c, 1, 82, 127
2, 46600, Note_on_c, 1, 88, 127
2, 46600, Note_on_c, 1, 96, 127
2, 47240, Note_off_c, 1, 60, 0
2, 47240, Note_off_c, 1, 67, 0
2, 47240, Note_off_c, 1, 70, 0
2, 47240, Note_off_c, 1, 76, 0
2, 47240, Note_off_c, 1, 82, 0
2, 47240, Note_off_c, 1, 88, 0
2, 47240, Note_off_c, 1, 96, 0
2, 47280, Note_on_c, 1, 47, 127
2, 47280, Note_on_c, 1, 50, 127
2, 47280, Note_on_c, 1, 69, 127
2, 47280, Note_on_c, 1, 81, 127
2, 47400, Note_off_c, 1, 47, 0
2, 47400, Note_off_c, 1, 50, 0
2, 47400, Note_off_c, 1, 69, 0
2, 47400, Note_off_c, 1, 81, 0
2, 47440, Note_on_c, 1, 64, 127
2, 47440, Note_on_c, 1, 68, 127
2, 47440, Note_on_c, 1, 73, 127
2, 47440, Note_on_c, 1, 76, 127
2, 47440, Note_on_c, 1, 80, 127
2, 47440, Note_on_c, 1, 83, 127
2, 47480, Note_on_c, 1, 60, 127
2, 47480, Note_off_c, 1, 64, 0
2, 47480, Note_on_c, 1, 67, 127
2, 47480, Note_off_c, 1, 68, 0
2, 47480, Note_on_c, 1, 69, 127
2, 47480, Note_off_c, 1, 73, 0
2, 47480, Note_off_c, 1, 76, 0
2, 47480, Note_on_c, 1, 78, 127
2, 47480, Note_off_c, 1, 80, 0
2, 47480, Note_off_c, 1, 83, 0
2, 47520, Note_on_c, 1, 48, 127
2, 47520, Note_off_c, 1, 67, 0
2, 47520, Note_off_c, 1, 69, 0
2, 47520, Note_on_c, 1, 81, 127
2, 47520, Note_on_c, 1, 87, 127
2, 47520, Note_on_c, 1, 90, 127
2, 47560, Note_on_c, 1, 39, 127
2, 47560, Note_on_c, 1, 43, 127
2, 47560, Note_off_c, 1, 48, 0
2, 47560, Note_on_c, 1, 51, 127
2, 47560, Note_on_c, 1, 55, 127
2, 47560, Note_off_c, 1, 60, 0
2, 47560, Note_on_c, 1, 61, 127
2, 47560, Note_off_c, 1, 78, 0
2, 47560, Note_off_c, 1, 81, 0
2, 47560, Note_off_c, 1, 87, 0
2, 47560, Note_off_c, 1, 90, 0
2, 47600, Note_off_c, 1, 39, 0
2, 47600, Note_off_c, 1, 43, 0
2, 47600, Note_off_c, 1, 51, 0
2, 47600, Note_off_c, 1, 55, 0
2, 47600, Note_off_c, 1, 61, 0
2, 47640, Note_on_c, 1, 45, 127
2, 47640, Note_on_c, 1, 50, 127
2, 47640, Note_on_c, 1, 53, 127
2, 47640, Note_on_c, 1, 62, 127
2, 47640, Note_on_c, 1, 74, 127
2, 47760, Note_off_c, 1, 45, 0
2, 47760, Note_off_c, 1, 50, 0
2, 47760, Note_off_c, 1, 53, 0
2, 47800, Note_on_c, 1, 45, 127
2, 47800, Note_on_c, 1, 50, 127
2, 47800, Note_on_c, 1, 53, 127
2, 47960, Note_off_c, 1, 45, 0
2, 47960, Note_off_c, 1, 50, 0
2, 47960, Note_off_c, 1, 53, 0
2, 48000, Note_off_c, 1, 62, 0
2, 48000, Note_off_c, 1, 74, 0
2, 48040, Note_on_c, 1, 45, 127
2, 48040, Note_on_c, 1, 50, 127
2, 48040, Note_on_c, 1, 53, 127
2, 48040, Note_on_c, 1, 62, 127
2, 48040, Note_on_c, 1, 74, 127
2, 48320, Note_off_c, 1, 45, 0
2, 48320, Note_off_c, 1, 50, 0
2, 48320, Note_off_c, 1, 53, 0
2, 48320, Note_off_c, 1, 62, 0
2, 48320, Note_off_c, 1, 74, 0
2, 48360, Note_on_c, 1, 45, 127
2, 48360, Note_on_c, 1, 50, 127
2, 48360, Note_on_c, 1, 53, 127
2, 48360, Note_on_c, 1, 62, 127
2, 48360, Note_on_c, 1, 74, 127
2, 48680, Note_off_c, 1, 45, 0
2, 48680, Note_off_c, 1, 50, 0
2, 48680, Note_off_c, 1, 53, 0
2, 48720, Note_on_c, 1, 55, 127
2, 48720, Note_on_c, 1, 60, 127
2, 48720, Note_off_c, 1, 62, 0
2, 48720, Note_on_c, 1, 64, 127
2, 48720, Note_on_c, 1, 67, 127
2, 49040, Note_off_c, 1, 55, 0
2, 49040, Note_off_c, 1, 60, 0
2, 49040, Note_off_c, 1, 64, 0
2, 49040, Note_off_c, 1, 67, 0
2, 49040, Note_off_c, 1, 74, 0
2, 49080, Note_on_c, 1, 50, 127
2, 49080, Note_on_c, 1, 55, 127
2, 49080, Note_on_c, 1, 60, 127
2, 49080, Note_on_c, 1, 64, 127
2, 49080, Note_on_c, 1, 67, 127
2, 49360, Note_off_c, 1, 50, 0
2, 49360, Note_off_c, 1, 55, 0
2, 49360, Note_off_c, 1, 60, 0
2, 49360, Note_off_c, 1, 64, 0
2, 49360, Note_off_c, 1, 67, 0
2, 49400, Note_on_c, 1, 31, 127
2, 49400, Note_on_c, 1, 43, 127
2, 49400, Note_on_c, 1, 64, 127
2, 49400, Note_on_c, 1, 71, 127
2, 49400, Note_on_c, 1, 76, 127
2, 49720, Note_off_c, 1, 31, 0
2, 49720, Note_off_c, 1, 43, 0
2, 49720, Note_off_c, 1, 64, 0
2, 49720, Note_off_c, 1, 71, 0
2, 49720, Note_off_c, 1, 76, 0
2, 49760, Note_on_c, 1, 69, 127
2, 49760, Note_on_c, 1, 83, 127
2, 49760, Note_on_c, 1, 95, 127
2, 50080, Note_off_c, 1, 69, 0
2, 50080, Note_off_c, 1, 83, 0
2, 50080, Note_off_c, 1, 95, 0
2, 50160, Note_on_c, 1, 38, 127
2, 50160, Note_on_c, 1, 50, 127
2, 50160, Note_on_c, 1, 72, 127
2, 50160, Note_on_c, 1, 78, 127
2, 50320, Note_off_c, 1, 38, 0
2, 50320, Note_on_c, 1, 40, 127
2, 50320, Note_on_c, 1, 43, 127
2, 50320, Note_off_c, 1, 50, 0
2, 50320, Note_on_c, 1, 52, 127
2, 50320, Note_on_c, 1, 60, 127
2, 50320, Note_off_c, 1, 72, 0
2, 50320, Note_off_c, 1, 78, 0
2, 50440, Note_off_c, 1, 40, 0
2, 50440, Note_off_c, 1, 43, 0
2, 50440, Note_off_c, 1, 52, 0
2, 50440, Note_off_c, 1, 60, 0
2, 50480, Note_on_c, 1, 55, 127
2, 50480, Note_on_c, 1, 67, 127
2, 50480, Note_on_c, 1, 72, 127
2, 50480, Note_on_c, 1, 76, 127
2, 50480, Note_on_c, 1, 84, 127
2, 50800, Note_off_c, 1, 55, 0
2, 50800, Note_off_c, 1, 67, 0
2, 50800, Note_off_c, 1, 72, 0
2, 50800, Note_off_c, 1, 76, 0
2, 50800, Note_off_c, 1, 84, 0
2, 50840, Note_on_c, 1, 52, 127
2, 50840, Note_on_c, 1, 64, 127
2, 50840, Note_on_c, 1, 72, 127
2, 50840, Note_on_c, 1, 79, 127
2, 51120, Note_off_c, 1, 52, 0
2, 51120, Note_off_c, 1, 64, 0
2, 51120, Note_off_c, 1, 72, 0
2, 51120, Note_off_c, 1, 79, 0
2, 51200, Note_on_c, 1, 52, 127
2, 51200, Note_on_c, 1, 64, 127
2, 51200, Note_on_c, 1, 72, 127
2, 51200, Note_on_c, 1, 79, 127
2, 51480, Note_off_c, 1, 52, 0
2, 51480, Note_off_c, 1, 64, 0
2, 51480, Note_off_c, 1, 72, 0
2, 51480, Note_off_c, 1, 79, 0
2, 51520, Note_on_c, 1, 52, 127
2, 51520, Note_on_c, 1, 64, 127
2, 51520, Note_on_c, 1, 72, 127
2, 51520, Note_on_c, 1, 79, 127
2, 51840, Note_off_c, 1, 52, 0
2, 51840, Note_off_c, 1, 64, 0
2, 51840, Note_off_c, 1, 72, 0
2, 51840, Note_off_c, 1, 79, 0
2, 51880, Note_on_c, 1, 52, 127
2, 51880, Note_on_c, 1, 64, 127
2, 51880, Note_on_c, 1, 72, 127
2, 51880, Note_on_c, 1, 79, 127
2, 52120, Note_off_c, 1, 52, 0
2, 52120, Note_off_c, 1, 64, 0
2, 52120, Note_off_c, 1, 72, 0
2, 52120, Note_off_c, 1, 79, 0
2, 52160, Note_on_c, 1, 52, 127
2, 52160, Note_on_c, 1, 64, 127
2, 52160, Note_on_c, 1, 72, 127
2, 52160, Note_on_c, 1, 79, 127
2, 52200, Note_off_c, 1, 52, 0
2, 52200, Note_off_c, 1, 64, 0
2, 52200, Note_off_c, 1, 72, 0
2, 52200, Note_off_c, 1, 79, 0
2, 52240, Note_on_c, 1, 52, 127
2, 52240, Note_on_c, 1, 64, 127
2, 52240, Note_on_c, 1, 72, 127
2, 52240, Note_on_c, 1, 79, 127
2, 52560, Note_off_c, 1, 52, 0
2, 52560, Note_off_c, 1, 64, 0
2, 52560, Note_off_c, 1, 72, 0
2, 52560, Note_off_c, 1, 79, 0
2, 52600, Note_on_c, 1, 52, 127
2, 52600, Note_on_c, 1, 64, 127
2, 52600, Note_on_c, 1, 72, 127
2, 52600, Note_on_c, 1, 79, 127
2, 52880, Note_off_c, 1, 52, 0
2, 52880, Note_off_c, 1, 64, 0
2, 52880, Note_off_c, 1, 72, 0
2, 52880, Note_off_c, 1, 79, 0
2, 52920, Note_on_c, 1, 52, 127
2, 52920, Note_on_c, 1, 64, 127
2, 52920, Note_on_c, 1, 72, 127
2, 52920, Note_on_c, 1, 79, 127
2, 53240, Note_off_c, 1, 52, 0
2, 53240, Note_off_c, 1, 64, 0
2, 53240, Note_off_c, 1, 72, 0
2, 53240, Note_off_c, 1, 79, 0
2, 53280, Note_on_c, 1, 52, 127
2, 53280, Note_on_c, 1, 64, 127
2, 53280, Note_on_c, 1, 72, 127
2, 53280, Note_on_c, 1, 79, 127
2, 53560, Note_off_c, 1, 52, 0
2, 53560, Note_off_c, 1, 64, 0
2, 53560, Note_off_c, 1, 72, 0
2, 53560, Note_off_c, 1, 79, 0
2, 53600, Note_on_c, 1, 47, 127
2, 53600, Note_on_c, 1, 56, 127
2, 53600, Note_on_c, 1, 66, 127
2, 53600, Note_on_c, 1, 71, 127
2, 53600, Note_on_c, 1, 78, 127
2, 53920, Note_off_c, 1, 47, 0
2, 53920, Note_off_c, 1, 56, 0
2, 53920, Note_off_c, 1, 66, 0
2, 53920, Note_off_c, 1, 71, 0
2, 53920, Note_off_c, 1, 78, 0
2, 53960, Note_on_c, 1, 56, 127
2, 53960, Note_on_c, 1, 59, 127
2, 53960, Note_on_c, 1, 63, 127
2, 53960, Note_on_c, 1, 68, 127
2, 53960, Note_on_c, 1, 75, 127
2, 53960, Note_on_c, 1, 80, 127
2, 53960, Note_on_c, 1, 83, 127
2, 53960, Note_on_c, 1, 87, 127
2, 54200, Note_off_c, 1, 56, 0
2, 54200, Note_off_c, 1, 59, 0
2, 54200, Note_off_c, 1, 63, 0
2, 54200, Note_off_c, 1, 68, 0
2, 54200, Note_off_c, 1, 75, 0
2, 54200, Note_off_c, 1, 80, 0
2, 54200, Note_off_c, 1, 83, 0
2, 54200, Note_off_c, 1, 87, 0
2, 54240, Note_on_c, 1, 56, 127
2, 54240, Note_on_c, 1, 59, 127
2, 54240, Note_on_c, 1, 63, 127
2, 54240, Note_on_c, 1, 68, 127
2, 54240, Note_on_c, 1, 75, 127
2, 54240, Note_on_c, 1, 80, 127
2, 54240, Note_on_c, 1, 83, 127
2, 54240, Note_on_c, 1, 87, 127
2, 54280, Note_off_c, 1, 56, 0
2, 54280, Note_off_c, 1, 59, 0
2, 54280, Note_off_c, 1, 63, 0
2, 54280, Note_off_c, 1, 68, 0
2, 54280, Note_off_c, 1, 75, 0
2, 54280, Note_off_c, 1, 80, 0
2, 54280, Note_off_c, 1, 83, 0
2, 54280, Note_off_c, 1, 87, 0
2, 54320, Note_on_c, 1, 56, 127
2, 54320, Note_on_c, 1, 59, 127
2, 54320, Note_on_c, 1, 63, 127
2, 54320, Note_on_c, 1, 68, 127
2, 54320, Note_on_c, 1, 75, 127
2, 54320, Note_on_c, 1, 80, 127
2, 54320, Note_on_c, 1, 83, 127
2, 54320, Note_on_c, 1, 87, 127
2, 54640, Note_off_c, 1, 56, 0
2, 54640, Note_off_c, 1, 59, 0
2, 54640, Note_off_c, 1, 63, 0
2, 54640, Note_off_c, 1, 68, 0
2, 54640, Note_off_c, 1, 75, 0
2, 54640, Note_off_c, 1, 80, 0
2, 54640, Note_off_c, 1, 83, 0
2, 54640, Note_off_c, 1, 87, 0
2, 54680, Note_on_c, 1, 56, 127
2, 54680, Note_on_c, 1, 59, 127
2, 54680, Note_on_c, 1, 63, 127
2, 54680, Note_on_c, 1, 68, 127
2, 54680, Note_on_c, 1, 75, 127
2, 54680, Note_on_c, 1, 80, 127
2, 54680, Note_on_c, 1, 83, 127
2, 54680, Note_on_c, 1, 87, 127
2, 55000, Note_off_c, 1, 56, 0
2, 55000, Note_off_c, 1, 59, 0
2, 55000, Note_off_c, 1, 63, 0
2, 55000, Note_off_c, 1, 68, 0
2, 55000, Note_off_c, 1, 75, 0
2, 55000, Note_off_c, 1, 80, 0
2, 55000, Note_off_c, 1, 83, 0
2, 55000, Note_off_c, 1, 87, 0
2, 55040, Note_on_c, 1, 44, 127
2, 55040, Note_on_c, 1, 56, 127
2, 55040, Note_on_c, 1, 63, 127
2, 55040, Note_on_c, 1, 68, 127
2, 55040, Note_on_c, 1, 71, 127
2, 55320, Note_off_c, 1, 44, 0
2, 55320, Note_off_c, 1, 56, 0
2, 55320, Note_off_c, 1, 63, 0
2, 55320, Note_off_c, 1, 68, 0
2, 55320, Note_off_c, 1, 71, 0
2, 55360, Note_on_c, 1, 44, 127
2, 55360, Note_on_c, 1, 66, 127
2, 55360, Note_on_c, 1, 73, 127
2, 55680, Note_off_c, 1, 44, 0
2, 55680, Note_off_c, 1, 66, 0
2, 55680, Note_off_c, 1, 73, 0
2, 55720, Note_on_c, 1, 43, 127
2, 55720, Note_on_c, 1, 48, 127
2, 55720, Note_on_c, 1, 64, 127
2, 55720, Note_on_c, 1, 67, 127
2, 55720, Note_on_c, 1, 76, 127
2, 56000, Note_off_c, 1, 43, 0
2, 56000, Note_off_c, 1, 48, 0
2, 56000, Note_off_c, 1, 64, 0
2, 56000, Note_off_c, 1, 67, 0
2, 56000, Note_off_c, 1, 76, 0
2, 56040, Note_on_c, 1, 33, 127
2, 56040, Note_on_c, 1, 36, 127
2, 56040, Note_on_c, 1, 45, 127
2, 56040, Note_on_c, 1, 69, 127
2, 56360, Note_off_c, 1, 33, 0
2, 56360, Note_off_c, 1, 36, 0
2, 56360, Note_off_c, 1, 45, 0
2, 56360, Note_off_c, 1, 69, 0
2, 56440, Note_on_c, 1, 33, 127
2, 56440, Note_on_c, 1, 36, 127
2, 56440, Note_on_c, 1, 45, 127
2, 56440, Note_on_c, 1, 69, 127
2, 56720, Note_off_c, 1, 33, 0
2, 56720, Note_off_c, 1, 36, 0
2, 56720, Note_off_c, 1, 45, 0
2, 56720, Note_off_c, 1, 69, 0
2, 56760, Note_on_c, 1, 33, 127
2, 56760, Note_on_c, 1, 36, 127
2, 56760, Note_on_c, 1, 45, 127
2, 56760, Note_on_c, 1, 69, 127
2, 57080, Note_off_c, 1, 33, 0
2, 57080, Note_off_c, 1, 36, 0
2, 57080, Note_off_c, 1, 45, 0
2, 57080, Note_off_c, 1, 69, 0
2, 57120, Note_on_c, 1, 33, 127
2, 57120, Note_on_c, 1, 36, 127
2, 57120, Note_on_c, 1, 45, 127
2, 57120, Note_on_c, 1, 69, 127
2, 57400, Note_off_c, 1, 33, 0
2, 57400, Note_off_c, 1, 36, 0
2, 57400, Note_off_c, 1, 45, 0
2, 57400, Note_off_c, 1, 69, 0
2, 57440, Note_on_c, 1, 33, 127
2, 57440, Note_on_c, 1, 36, 127
2, 57440, Note_on_c, 1, 45, 127
2, 57440, Note_on_c, 1, 69, 127
2, 57760, Note_off_c, 1, 33, 0
2, 57760, Note_off_c, 1, 36, 0
2, 57760, Note_off_c, 1, 45, 0
2, 57760, Note_off_c, 1, 69, 0
2, 57800, Note_on_c, 1, 33, 127
2, 57800, Note_on_c, 1, 36, 127
2, 57800, Note_on_c, 1, 45, 127
2, 57800, Note_on_c, 1, 69, 127
2, 58080, Note_off_c, 1, 33, 0
2, 58080, Note_off_c, 1, 36, 0
2, 58080, Note_off_c, 1, 45, 0
2, 58080, Note_off_c, 1, 69, 0
2, 58120, Note_on_c, 1, 37, 127
2, 58120, Note_on_c, 1, 44, 127
2, 58120, Note_on_c, 1, 49, 127
2, 58120, Note_on_c, 1, 64, 127
2, 58120, Note_on_c, 1, 76, 127
2, 58440, Note_off_c, 1, 64, 0
2, 58480, Note_off_c, 1, 37, 0
2, 58480, Note_off_c, 1, 44, 0
2, 58480, Note_off_c, 1, 49, 0
2, 58480, Note_off_c, 1, 76, 0
2, 58520, Note_on_c, 1, 37, 127
2, 58520, Note_on_c, 1, 44, 127
2, 58520, Note_on_c, 1, 49, 127
2, 58520, Note_on_c, 1, 68, 127
2, 58520, Note_on_c, 1, 76, 127
2, 58640, Note_off_c, 1, 68, 0
2, 58680, Note_on_c, 1, 73, 127
2, 58800, Note_off_c, 1, 37, 0
2, 58800, Note_off_c, 1, 44, 0
2, 58800, Note_off_c, 1, 49, 0
2, 58800, Note_off_c, 1, 73, 0
2, 58800, Note_off_c, 1, 76, 0
2, 58840, Note_on_c, 1, 37, 127
2, 58840, Note_on_c, 1, 44, 127
2, 58840, Note_on_c, 1, 49, 127
2, 58840, Note_on_c, 1, 73, 127
2, 58840, Note_on_c, 1, 76, 127
2, 59160, Note_off_c, 1, 37, 0
2, 59160, Note_off_c, 1, 44, 0
2, 59160, Note_off_c, 1, 49, 0
2, 59160, Note_off_c, 1, 73, 0
2, 59160, Note_off_c, 1, 76, 0
2, 59200, Note_on_c, 1, 55, 127
2, 59200, Note_on_c, 1, 62, 127
2, 59200, Note_on_c, 1, 68, 127
2, 59200, Note_on_c, 1, 71, 127
2, 59320, Note_off_c, 1, 55, 0
2, 59320, Note_off_c, 1, 62, 0
2, 59320, Note_off_c, 1, 68, 0
2, 59320, Note_off_c, 1, 71, 0
2, 59360, Note_on_c, 1, 55, 127
2, 59360, Note_on_c, 1, 62, 127
2, 59360, Note_on_c, 1, 68, 127
2, 59360, Note_on_c, 1, 71, 127
2, 59480, Note_off_c, 1, 55, 0
2, 59480, Note_off_c, 1, 62, 0
2, 59480, Note_off_c, 1, 68, 0
2, 59480, Note_off_c, 1, 71, 0
2, 59520, Note_on_c, 1, 55, 127
2, 59520, Note_on_c, 1, 62, 127
2, 59520, Note_on_c, 1, 68, 127
2, 59520, Note_on_c, 1, 71, 127
2, 59680, Note_off_c, 1, 55, 0
2, 59680, Note_off_c, 1, 62, 0
2, 59680, Note_off_c, 1, 68, 0
2, 59680, Note_off_c, 1, 71, 0
2, 59720, Note_on_c, 1, 55, 127
2, 59720, Note_on_c, 1, 62, 127
2, 59720, Note_on_c, 1, 68, 127
2, 59720, Note_on_c, 1, 71, 127
2, 59840, Note_off_c, 1, 55, 0
2, 59840, Note_off_c, 1, 62, 0
2, 59840, Note_off_c, 1, 68, 0
2, 59840, Note_off_c, 1, 71, 0
2, 59880, Note_on_c, 1, 55, 127
2, 59880, Note_on_c, 1, 62, 127
2, 59880, Note_on_c, 1, 68, 127
2, 59880, Note_on_c, 1, 71, 127
2, 60000, Note_off_c, 1, 55, 0
2, 60000, Note_off_c, 1, 62, 0
2, 60000, Note_off_c, 1, 68, 0
2, 60000, Note_off_c, 1, 71, 0
2, 60040, Note_on_c, 1, 55, 127
2, 60040, Note_on_c, 1, 62, 127
2, 60040, Note_on_c, 1, 68, 127
2, 60040, Note_on_c, 1, 71, 127
2, 60200, Note_off_c, 1, 55, 0
2, 60200, Note_off_c, 1, 62, 0
2, 60200, Note_off_c, 1, 68, 0
2, 60200, Note_off_c, 1, 71, 0
2, 60240, Note_on_c, 1, 55, 127
2, 60240, Note_on_c, 1, 62, 127
2, 60240, Note_on_c, 1, 68, 127
2, 60240, Note_on_c, 1, 71, 127
2, 60360, Note_off_c, 1, 55, 0
2, 60360, Note_off_c, 1, 62, 0
2, 60360, Note_off_c, 1, 68, 0
2, 60360, Note_off_c, 1, 71, 0
2, 60400, Note_on_c, 1, 55, 127
2, 60400, Note_on_c, 1, 62, 127
2, 60400, Note_on_c, 1, 68, 127
2, 60400, Note_on_c, 1, 71, 127
2, 60520, Note_off_c, 1, 55, 0
2, 60520, Note_off_c, 1, 62, 0
2, 60520, Note_off_c, 1, 68, 0
2, 60520, Note_off_c, 1, 71, 0
2, 60560, Note_on_c, 1, 55, 127
2, 60560, Note_on_c, 1, 62, 127
2, 60560, Note_on_c, 1, 68, 127
2, 60560, Note_on_c, 1, 71, 127
2, 60720, Note_off_c, 1, 55, 0
2, 60720, Note_off_c, 1, 62, 0
2, 60720, Note_off_c, 1, 68, 0
2, 60720, Note_off_c, 1, 71, 0
2, 60800, Note_on_c, 1, 55, 127
2, 60800, Note_on_c, 1, 62, 127
2, 60800, Note_on_c, 1, 68, 127
2, 60800, Note_on_c, 1, 71, 127
2, 60920, Note_off_c, 1, 55, 0
2, 60920, Note_off_c, 1, 62, 0
2, 60920, Note_off_c, 1, 68, 0
2, 60920, Note_off_c, 1, 71, 0
2, 60960, Note_on_c, 1, 55, 127
2, 60960, Note_on_c, 1, 62, 127
2, 60960, Note_on_c, 1, 68, 127
2, 60960, Note_on_c, 1, 71, 127
2, 61080, Note_off_c, 1, 55, 0
2, 61080, Note_off_c, 1, 62, 0
2, 61080, Note_off_c, 1, 68, 0
2, 61080, Note_off_c, 1, 71, 0
2, 61120, Note_on_c, 1, 55, 127
2, 61120, Note_on_c, 1, 62, 127
2, 61120, Note_on_c, 1, 68, 127
2, 61120, Note_on_c, 1, 71, 127
2, 61280, Note_off_c, 1, 55, 0
2, 61280, Note_off_c, 1, 62, 0
2, 61280, Note_off_c, 1, 68, 0
2, 61280, Note_off_c, 1, 71, 0
2, 61320, Note_on_c, 1, 55, 127
2, 61320, Note_on_c, 1, 62, 127
2, 61320, Note_on_c, 1, 68, 127
2, 61320, Note_on_c, 1, 71, 127
2, 61440, Note_off_c, 1, 55, 0
2, 61440, Note_off_c, 1, 62, 0
2, 61440, Note_off_c, 1, 68, 0
2, 61440, Note_off_c, 1, 71, 0
2, 61480, Note_on_c, 1, 55, 127
2, 61480, Note_on_c, 1, 62, 127
2, 61480, Note_on_c, 1, 68, 127
2, 61480, Note_on_c, 1, 71, 127
2, 61600, Note_off_c, 1, 55, 0
2, 61600, Note_off_c, 1, 62, 0
2, 61600, Note_off_c, 1, 68, 0
2, 61600, Note_off_c, 1, 71, 0
2, 61640, Note_on_c, 1, 55, 127
2, 61640, Note_on_c, 1, 62, 127
2, 61640, Note_on_c, 1, 68, 127
2, 61640, Note_on_c, 1, 71, 127
2, 61800, Note_off_c, 1, 55, 0
2, 61800, Note_off_c, 1, 62, 0
2, 61800, Note_off_c, 1, 68, 0
2, 61800, Note_off_c, 1, 71, 0
2, 61840, Note_on_c, 1, 55, 127
2, 61840, Note_on_c, 1, 62, 127
2, 61840, Note_on_c, 1, 68, 127
2, 61840, Note_on_c, 1, 71, 127
2, 61960, Note_off_c, 1, 55, 0
2, 61960, Note_off_c, 1, 62, 0
2, 61960, Note_off_c, 1, 68, 0
2, 61960, Note_off_c, 1, 71, 0
2, 62000, Note_on_c, 1, 55, 127
2, 62000, Note_on_c, 1, 62, 127
2, 62000, Note_on_c, 1, 68, 127
2, 62000, Note_on_c, 1, 71, 127
2, 62120, Note_off_c, 1, 55, 0
2, 62120, Note_off_c, 1, 62, 0
2, 62120, Note_off_c, 1, 68, 0
2, 62120, Note_off_c, 1, 71, 0
2, 62160, Note_on_c, 1, 55, 127
2, 62160, Note_on_c, 1, 62, 127
2, 62160, Note_on_c, 1, 68, 127
2, 62160, Note_on_c, 1, 71, 127
2, 62280, Note_off_c, 1, 55, 0
2, 62280, Note_off_c, 1, 62, 0
2, 62280, Note_off_c, 1, 68, 0
2, 62280, Note_off_c, 1, 71, 0
2, 62320, Note_on_c, 1, 55, 127
2, 62320, Note_on_c, 1, 62, 127
2, 62320, Note_on_c, 1, 68, 127
2, 62320, Note_on_c, 1, 71, 127
2, 62480, Note_off_c, 1, 55, 0
2, 62480, Note_off_c, 1, 62, 0
2, 62480, Note_off_c, 1, 68, 0
2, 62480, Note_off_c, 1, 71, 0
2, 62520, Note_on_c, 1, 55, 127
2, 62520, Note_on_c, 1, 62, 127
2, 62520, Note_on_c, 1, 68, 127
2, 62520, Note_on_c, 1, 71, 127
2, 62640, Note_off_c, 1, 55, 0
2, 62640, Note_off_c, 1, 62, 0
2, 62640, Note_off_c, 1, 68, 0
2, 62640, Note_off_c, 1, 71, 0
2, 62680, Note_on_c, 1, 55, 127
2, 62680, Note_on_c, 1, 62, 127
2, 62680, Note_on_c, 1, 68, 127
2, 62680, Note_on_c, 1, 71, 127
2, 62800, Note_off_c, 1, 55, 0
2, 62800, Note_off_c, 1, 62, 0
2, 62800, Note_off_c, 1, 68, 0
2, 62800, Note_off_c, 1, 71, 0
2, 62840, Note_on_c, 1, 58, 127
2, 62840, Note_on_c, 1, 67, 127
2, 62840, Note_on_c, 1, 72, 127
2, 62840, Note_on_c, 1, 75, 127
2, 62840, Note_on_c, 1, 82, 127
2, 62960, Note_off_c, 1, 58, 0
2, 62960, Note_off_c, 1, 67, 0
2, 62960, Note_off_c, 1, 72, 0
2, 62960, Note_off_c, 1, 75, 0
2, 62960, Note_off_c, 1, 82, 0
2, 63000, Note_on_c, 1, 58, 127
2, 63000, Note_on_c, 1, 67, 127
2, 63000, Note_on_c, 1, 72, 127
2, 63000, Note_on_c, 1, 75, 127
2, 63000, Note_on_c, 1, 82, 127
2, 63040, Note_off_c, 1, 58, 0
2, 63040, Note_off_c, 1, 67, 0
2, 63040, Note_off_c, 1, 72, 0
2, 63040, Note_off_c, 1, 75, 0
2, 63040, Note_off_c, 1, 82, 0
2, 63080, Note_on_c, 1, 58, 127
2, 63080, Note_on_c, 1, 67, 127
2, 63080, Note_on_c, 1, 72, 127
2, 63080, Note_on_c, 1, 75, 127
2, 63080, Note_on_c, 1, 82, 127
2, 63200, Note_off_c, 1, 58, 0
2, 63200, Note_off_c, 1, 67, 0
2, 63200, Note_off_c, 1, 72, 0
2, 63200, Note_off_c, 1, 75, 0
2, 63200, Note_off_c, 1, 82, 0
2, 63240, Note_on_c, 1, 58, 127
2, 63240, Note_on_c, 1, 60, 127
2, 63240, Note_on_c, 1, 67, 127
2, 63240, Note_on_c, 1, 77, 127
2, 63360, Note_off_c, 1, 58, 0
2, 63360, Note_off_c, 1, 60, 0
2, 63360, Note_off_c, 1, 67, 0
2, 63360, Note_off_c, 1, 77, 0
2, 63400, Note_on_c, 1, 58, 127
2, 63400, Note_on_c, 1, 61, 127
2, 63400, Note_on_c, 1, 64, 127
2, 63400, Note_on_c, 1, 67, 127
2, 63520, Note_off_c, 1, 58, 0
2, 63520, Note_off_c, 1, 61, 0
2, 63520, Note_off_c, 1, 64, 0
2, 63520, Note_off_c, 1, 67, 0
2, 63600, Note_on_c, 1, 50, 127
2, 63600, Note_on_c, 1, 62, 127
2, 63600, Note_on_c, 1, 72, 127
2, 63600, Note_on_c, 1, 77, 127
2, 63600, Note_on_c, 1, 81, 127
2, 63600, Note_on_c, 1, 84, 127
2, 63640, Note_on_c, 1, 47, 127
2, 63640, Note_off_c, 1, 50, 0
2, 63640, Note_on_c, 1, 55, 127
2, 63640, Note_off_c, 1, 62, 0
2, 63640, Note_on_c, 1, 67, 127
2, 63640, Note_off_c, 1, 72, 0
2, 63640, Note_on_c, 1, 75, 127
2, 63640, Note_off_c, 1, 77, 0
2, 63640, Note_on_c, 1, 78, 127
2, 63640, Note_off_c, 1, 81, 0
2, 63640, Note_off_c, 1, 84, 0
2, 63680, Note_off_c, 1, 47, 0
2, 63680, Note_on_c, 1, 57, 127
2, 63680, Note_on_c, 1, 64, 127
2, 63680, Note_off_c, 1, 67, 0
2, 63680, Note_off_c, 1, 75, 0
2, 63680, Note_off_c, 1, 78, 0
2, 63680, Note_on_c, 1, 83, 127
2, 63720, Note_off_c, 1, 55, 0
2, 63720, Note_off_c, 1, 57, 0
2, 63720, Note_off_c, 1, 64, 0
2, 63720, Note_off_c, 1, 83, 0
2, 63760, Note_on_c, 1, 67, 127
2, 63760, Note_on_c, 1, 77, 127
2, 63760, Note_on_c, 1, 86, 127
2, 63760, Note_on_c, 1, 89, 127
2, 63800, Note_off_c, 1, 67, 0
2, 63800, Note_on_c, 1, 71, 127
2, 63800, Note_on_c, 1, 80, 127
2, 63800, Note_on_c, 1, 85, 127
2, 63800, Note_off_c, 1, 86, 0
2, 63800, Note_off_c, 1, 89, 0
2, 63840, Note_on_c, 1, 67, 127
2, 63840, Note_off_c, 1, 71, 0
2, 63840, Note_off_c, 1, 80, 0
2, 63840, Note_off_c, 1, 85, 0
2, 63840, Note_on_c, 1, 86, 127
2, 63840, Note_on_c, 1, 89, 127
2, 63880, Note_off_c, 1, 67, 0
2, 63880, Note_off_c, 1, 77, 0
2, 63880, Note_off_c, 1, 86, 0
2, 63880, Note_off_c, 1, 89, 0
2, 63920, Note_on_c, 1, 67, 127
2, 63920, Note_on_c, 1, 77, 127
2, 63920, Note_on_c, 1, 86, 127
2, 63920, Note_on_c, 1, 89, 127
2, 64040, Note_off_c, 1, 67, 0
2, 64040, Note_off_c, 1, 77, 0
2, 64040, Note_off_c, 1, 86, 0
2, 64040, Note_off_c, 1, 89, 0
2, 64080, Note_on_c, 1, 67, 127
2, 64080, Note_on_c, 1, 77, 127
2, 64080, Note_on_c, 1, 86, 127
2, 64080, Note_on_c, 1, 89, 127
2, 64200, Note_off_c, 1, 67, 0
2, 64200, Note_off_c, 1, 77, 0
2, 64200, Note_off_c, 1, 86, 0
2, 64200, Note_off_c, 1, 89, 0
2, 64240, Note_on_c, 1, 67, 127
2, 64240, Note_on_c, 1, 77, 127
2, 64240, Note_on_c, 1, 86, 127
2, 64240, Note_on_c, 1, 89, 127
2, 64360, Note_off_c, 1, 67, 0
2, 64360, Note_off_c, 1, 77, 0
2, 64360, Note_off_c, 1, 86, 0
2, 64360, Note_off_c, 1, 89, 0
2, 64400, Note_on_c, 1, 55, 127
2, 64400, Note_on_c, 1, 76, 127
2, 64400, Note_on_c, 1, 85, 127
2, 64400, Note_on_c, 1, 88, 127
2, 64560, Note_off_c, 1, 55, 0
2, 64560, Note_off_c, 1, 76, 0
2, 64560, Note_off_c, 1, 85, 0
2, 64560, Note_off_c, 1, 88, 0
2, 64600, Note_on_c, 1, 55, 127
2, 64600, Note_on_c, 1, 76, 127
2, 64600, Note_on_c, 1, 85, 127
2, 64600, Note_on_c, 1, 88, 127
2, 64720, Note_off_c, 1, 55, 0
2, 64720, Note_off_c, 1, 76, 0
2, 64720, Note_off_c, 1, 85, 0
2, 64720, Note_off_c, 1, 88, 0
2, 64760, Note_on_c, 1, 55, 127
2, 64760, Note_on_c, 1, 76, 127
2, 64760, Note_on_c, 1, 85, 127
2, 64760, Note_on_c, 1, 88, 127
2, 64880, Note_off_c, 1, 55, 0
2, 64880, Note_off_c, 1, 76, 0
2, 64880, Note_off_c, 1, 85, 0
2, 64880, Note_off_c, 1, 88, 0
2, 64920, Note_on_c, 1, 55, 127
2, 64920, Note_on_c, 1, 76, 127
2, 64920, Note_on_c, 1, 85, 127
2, 64920, Note_on_c, 1, 88, 127
2, 65040, Note_off_c, 1, 55, 0
2, 65040, Note_off_c, 1, 76, 0
2, 65040, Note_off_c, 1, 85, 0
2, 65040, Note_off_c, 1, 88, 0
2, 65080, Note_on_c, 1, 55, 127
2, 65080, Note_on_c, 1, 76, 127
2, 65080, Note_on_c, 1, 85, 127
2, 65080, Note_on_c, 1, 88, 127
2, 65240, Note_off_c, 1, 55, 0
2, 65240, Note_off_c, 1, 76, 0
2, 65240, Note_off_c, 1, 85, 0
2, 65240, Note_off_c, 1, 88, 0
2, 65320, Note_on_c, 1, 55, 127
2, 65320, Note_on_c, 1, 76, 127
2, 65320, Note_on_c, 1, 85, 127
2, 65320, Note_on_c, 1, 88, 127
2, 65440, Note_off_c, 1, 55, 0
2, 65440, Note_off_c, 1, 76, 0
2, 65440, Note_off_c, 1, 85, 0
2, 65440, Note_off_c, 1, 88, 0
2, 65480, Note_on_c, 1, 55, 127
2, 65480, Note_on_c, 1, 76, 127
2, 65480, Note_on_c, 1, 85, 127
2, 65480, Note_on_c, 1, 88, 127
2, 65600, Note_off_c, 1, 55, 0
2, 65600, Note_off_c, 1, 76, 0
2, 65600, Note_off_c, 1, 85, 0
2, 65600, Note_off_c, 1, 88, 0
2, 65640, Note_on_c, 1, 52, 127
2, 65640, Note_on_c, 1, 57, 127
2, 65640, Note_on_c, 1, 60, 127
2, 65640, Note_on_c, 1, 64, 127
2, 65640, Note_on_c, 1, 69, 127
2, 65640, Note_on_c, 1, 72, 127
2, 65640, Note_on_c, 1, 76, 127
2, 65920, Note_off_c, 1, 52, 0
2, 65920, Note_off_c, 1, 57, 0
2, 65920, Note_off_c, 1, 60, 0
2, 65920, Note_off_c, 1, 64, 0
2, 65920, Note_off_c, 1, 69, 0
2, 65920, Note_off_c, 1, 72, 0
2, 65920, Note_off_c, 1, 76, 0
2, 65960, Note_on_c, 1, 60, 127
2, 65960, Note_on_c, 1, 65, 127
2, 65960, Note_on_c, 1, 68, 127
2, 65960, Note_on_c, 1, 72, 127
2, 65960, Note_on_c, 1, 80, 127
2, 66120, Note_off_c, 1, 60, 0
2, 66120, Note_off_c, 1, 65, 0
2, 66120, Note_off_c, 1, 68, 0
2, 66120, Note_off_c, 1, 72, 0
2, 66120, Note_off_c, 1, 80, 0
2, 66160, Note_on_c, 1, 55, 127
2, 66160, Note_on_c, 1, 59, 127
2, 66160, Note_on_c, 1, 67, 127
2, 66160, Note_on_c, 1, 76, 127
2, 66280, Note_off_c, 1, 55, 0
2, 66280, Note_off_c, 1, 59, 0
2, 66280, Note_off_c, 1, 67, 0
2, 66280, Note_off_c, 1, 76, 0
2, 66320, Note_on_c, 1, 62, 127
2, 66320, Note_on_c, 1, 65, 127
2, 66320, Note_on_c, 1, 71, 127
2, 66320, Note_on_c, 1, 74, 127
2, 66440, Note_off_c, 1, 62, 0
2, 66440, Note_off_c, 1, 65, 0
2, 66440, Note_off_c, 1, 71, 0
2, 66440, Note_off_c, 1, 74, 0
2, 66480, Note_on_c, 1, 62, 127
2, 66480, Note_on_c, 1, 65, 127
2, 66480, Note_on_c, 1, 71, 127
2, 66480, Note_on_c, 1, 74, 127
2, 66640, Note_off_c, 1, 62, 0
2, 66640, Note_off_c, 1, 65, 0
2, 66640, Note_off_c, 1, 71, 0
2, 66640, Note_off_c, 1, 74, 0
2, 66680, Note_on_c, 1, 62, 127
2, 66680, Note_on_c, 1, 65, 127
2, 66680, Note_on_c, 1, 71, 127
2, 66680, Note_on_c, 1, 74, 127
2, 66800, Note_off_c, 1, 62, 0
2, 66800, Note_off_c, 1, 65, 0
2, 66800, Note_off_c, 1, 71, 0
2, 66800, Note_off_c, 1, 74, 0
2, 66840, Note_on_c, 1, 62, 127
2, 66840, Note_on_c, 1, 65, 127
2, 66840, Note_on_c, 1, 71, 127
2, 66840, Note_on_c, 1, 74, 127
2, 66960, Note_off_c, 1, 62, 0
2, 66960, Note_off_c, 1, 65, 0
2, 66960, Note_off_c, 1, 71, 0
2, 66960, Note_off_c, 1, 74, 0
2, 67000, Note_on_c, 1, 62, 127
2, 67000, Note_on_c, 1, 65, 127
2, 67000, Note_on_c, 1, 71, 127
2, 67000, Note_on_c, 1, 74, 127
2, 67120, Note_off_c, 1, 62, 0
2, 67120, Note_off_c, 1, 65, 0
2, 67120, Note_off_c, 1, 71, 0
2, 67120, Note_off_c, 1, 74, 0
2, 67160, Note_on_c, 1, 67, 127
2, 67160, Note_on_c, 1, 75, 127
2, 67160, Note_on_c, 1, 79, 127
2, 67320, Note_off_c, 1, 67, 0
2, 67320, Note_off_c, 1, 75, 0
2, 67320, Note_off_c, 1, 79, 0
2, 67400, Note_on_c, 1, 61, 127
2, 67400, Note_on_c, 1, 64, 127
2, 67400, Note_on_c, 1, 77, 127
2, 67520, Note_off_c, 1, 61, 0
2, 67520, Note_off_c, 1, 64, 0
2, 67520, Note_off_c, 1, 77, 0
2, 67560, Note_on_c, 1, 44, 127
2, 67560, Note_on_c, 1, 70, 127
2, 67560, Note_on_c, 1, 78, 127
2, 67680, Note_off_c, 1, 44, 0
2, 67680, Note_off_c, 1, 70, 0
2, 67680, Note_off_c, 1, 78, 0
2, 67720, Note_on_c, 1, 61, 127
2, 67720, Note_on_c, 1, 66, 127
2, 67720, Note_on_c, 1, 70, 127
2, 67720, Note_on_c, 1, 77, 127
2, 67720, Note_on_c, 1, 82, 127
2, 67760, Note_on_c, 1, 56, 127
2, 67760, Note_off_c, 1, 61, 0
2, 67760, Note_off_c, 1, 66, 0
2, 67760, Note_on_c, 1, 68, 127
2, 67760, Note_off_c, 1, 70, 0
2, 67760, Note_on_c, 1, 73, 127
2, 67760, Note_on_c, 1, 76, 127
2, 67760, Note_off_c, 1, 77, 0
2, 67760, Note_on_c, 1, 80, 127
2, 67760, Note_off_c, 1, 82, 0
2, 67760, Note_on_c, 1, 85, 127
2, 67800, Note_off_c, 1, 56, 0
2, 67800, Note_on_c, 1, 63, 127
2, 67800, Note_off_c, 1, 73, 0
2, 67840, Note_off_c, 1, 63, 0
2, 67840, Note_on_c, 1, 65, 127
2, 67840, Note_off_c, 1, 68, 0
2, 67840, Note_off_c, 1, 76, 0
2, 67840, Note_on_c, 1, 78, 127
2, 67840, Note_off_c, 1, 80, 0
2, 67840, Note_off_c, 1, 85, 0
2, 67880, Note_off_c, 1, 65, 0
2, 67880, Note_off_c, 1, 78, 0
2, 67880, Note_on_c, 1, 89, 127
2, 67880, Note_on_c, 1, 92, 127
2, 67880, Note_on_c, 1, 97, 127
2, 67880, Note_on_c, 1, 101, 127
2, 67920, Note_on_c, 1, 46, 127
2, 67920, Note_on_c, 1, 51, 127
2, 67920, Note_on_c, 1, 58, 127
2, 67920, Note_on_c, 1, 75, 127
2, 67920, Note_off_c, 1, 89, 0
2, 67920, Note_off_c, 1, 92, 0
2, 67920, Note_off_c, 1, 97, 0
2, 67920, Note_off_c, 1, 101, 0
2, 67960, Note_on_c, 1, 39, 127
2, 67960, Note_on_c, 1, 45, 127
2, 67960, Note_off_c, 1, 46, 0
2, 67960, Note_on_c, 1, 56, 127
2, 67960, Note_off_c, 1, 58, 0
2, 67960, Note_on_c, 1, 59, 127
2, 67960, Note_on_c, 1, 72, 127
2, 67960, Note_off_c, 1, 75, 0
2, 67960, Note_on_c, 1, 78, 127
2, 67960, Note_on_c, 1, 84, 127
2, 68000, Note_off_c, 1, 39, 0
2, 68000, Note_off_c, 1, 45, 0
2, 68000, Note_on_c, 1, 54, 127
2, 68000, Note_off_c, 1, 59, 0
2, 68000, Note_off_c, 1, 72, 0
2, 68000, Note_off_c, 1, 78, 0
2, 68000, Note_off_c, 1, 84, 0
2, 68040, Note_off_c, 1, 51, 0
2, 68040, Note_off_c, 1, 54, 0
2, 68040, Note_off_c, 1, 56, 0
2, 68080, Note_on_c, 1, 57, 127
2, 68080, Note_on_c, 1, 60, 127
2, 68080, Note_on_c, 1, 67, 127
2, 68080, Note_on_c, 1, 69, 127
2, 68080, Note_on_c, 1, 72, 127
2, 68080, Note_on_c, 1, 79, 127
2, 68360, Note_off_c, 1, 57, 0
2, 68360, Note_off_c, 1, 60, 0
2, 68360, Note_off_c, 1, 67, 0
2, 68360, Note_off_c, 1, 69, 0
2, 68360, Note_off_c, 1, 72, 0
2, 68360, Note_off_c, 1, 79, 0
2, 68400, Note_on_c, 1, 41, 127
2, 68400, Note_on_c, 1, 57, 127
2, 68400, Note_on_c, 1, 69, 127
2, 68400, Note_on_c, 1, 72, 127
2, 68720, Note_off_c, 1, 41, 0
2, 68720, Note_off_c, 1, 57, 0
2, 68720, Note_off_c, 1, 69, 0
2, 68720, Note_off_c, 1, 72, 0
2, 68760, Note_on_c, 1, 36, 127
2, 68760, Note_on_c, 1, 48, 127
2, 68760, Note_on_c, 1, 63, 127
2, 68760, Note_on_c, 1, 67, 127
2, 68760, Note_on_c, 1, 72, 127
2, 68880, Note_off_c, 1, 63, 0
2, 68880, Note_on_c, 1, 64, 127
2, 69040, Note_off_c, 1, 36, 0
2, 69040, Note_off_c, 1, 48, 0
2, 69040, Note_off_c, 1, 64, 0
2, 69040, Note_off_c, 1, 67, 0
2, 69040, Note_off_c, 1, 72, 0
2, 69080, Note_on_c, 1, 51, 127
2, 69080, Note_on_c, 1, 55, 127
2, 69080, Note_on_c, 1, 63, 127
2, 69080, Note_on_c, 1, 67, 127
2, 69080, Note_on_c, 1, 72, 127
2, 69360, Note_off_c, 1, 51, 0
2, 69360, Note_off_c, 1, 55, 0
2, 69360, Note_off_c, 1, 63, 0
2, 69360, Note_off_c, 1, 67, 0
2, 69360, Note_off_c, 1, 72, 0
2, 69480, Note_on_c, 1, 51, 127
2, 69480, Note_on_c, 1, 55, 127
2, 69480, Note_on_c, 1, 63, 127
2, 69480, Note_on_c, 1, 67, 127
2, 69480, Note_on_c, 1, 72, 127
2, 69760, Note_off_c, 1, 51, 0
2, 69760, Note_off_c, 1, 55, 0
2, 69760, Note_off_c, 1, 63, 0
2, 69760, Note_off_c, 1, 67, 0
2, 69760, Note_off_c, 1, 72, 0
2, 69800, Note_on_c, 1, 51, 127
2, 69800, Note_on_c, 1, 55, 127
2, 69800, Note_on_c, 1, 63, 127
2, 69800, Note_on_c, 1, 67, 127
2, 69800, Note_on_c, 1, 72, 127
2, 70120, Note_off_c, 1, 51, 0
2, 70120, Note_off_c, 1, 55, 0
2, 70120, Note_off_c, 1, 63, 0
2, 70120, Note_off_c, 1, 67, 0
2, 70120, Note_off_c, 1, 72, 0
2, 70160, Note_on_c, 1, 51, 127
2, 70160, Note_on_c, 1, 55, 127
2, 70160, Note_on_c, 1, 63, 127
2, 70160, Note_on_c, 1, 67, 127
2, 70160, Note_on_c, 1, 72, 127
2, 70440, Note_off_c, 1, 51, 0
2, 70440, Note_off_c, 1, 55, 0
2, 70440, Note_off_c, 1, 63, 0
2, 70440, Note_off_c, 1, 67, 0
2, 70440, Note_off_c, 1, 72, 0
2, 70480, Note_on_c, 1, 51, 127
2, 70480, Note_on_c, 1, 55, 127
2, 70480, Note_on_c, 1, 63, 127
2, 70480, Note_on_c, 1, 67, 127
2, 70480, Note_on_c, 1, 72, 127
2, 70800, Note_off_c, 1, 51, 0
2, 70800, Note_off_c, 1, 55, 0
2, 70800, Note_off_c, 1, 63, 0
2, 70800, Note_off_c, 1, 67, 0
2, 70800, Note_off_c, 1, 72, 0
2, 70840, Note_on_c, 1, 45, 127
2, 70840, Note_on_c, 1, 48, 127
2, 70840, Note_on_c, 1, 57, 127
2, 70840, Note_on_c, 1, 60, 127
2, 70840, Note_on_c, 1, 69, 127
2, 70840, Note_on_c, 1, 72, 127
2, 71120, Note_off_c, 1, 45, 0
2, 71120, Note_off_c, 1, 48, 0
2, 71120, Note_off_c, 1, 57, 0
2, 71120, Note_off_c, 1, 60, 0
2, 71120, Note_off_c, 1, 69, 0
2, 71120, Note_off_c, 1, 72, 0
2, 71200, Note_on_c, 1, 45, 127
2, 71200, Note_on_c, 1, 48, 127
2, 71200, Note_on_c, 1, 57, 127
2, 71200, Note_on_c, 1, 60, 127
2, 71200, Note_on_c, 1, 69, 127
2, 71200, Note_on_c, 1, 72, 127
2, 71720, Note_off_c, 1, 45, 0
2, 71720, Note_off_c, 1, 48, 0
2, 71720, Note_off_c, 1, 57, 0
2, 71720, Note_off_c, 1, 60, 0
2, 71720, Note_off_c, 1, 69, 0
2, 71720, Note_off_c, 1, 72, 0
2, 71760, Note_on_c, 1, 45, 127
2, 71760, Note_on_c, 1, 48, 127
2, 71760, Note_on_c, 1, 57, 127
2, 71760, Note_on_c, 1, 60, 127
2, 71760, Note_on_c, 1, 69, 127
2, 71760, Note_on_c, 1, 72, 127
2, 71880, Note_off_c, 1, 45, 0
2, 71880, Note_off_c, 1, 48, 0
2, 71880, Note_off_c, 1, 57, 0
2, 71880, Note_off_c, 1, 60, 0
2, 71880, Note_off_c, 1, 69, 0
2, 71880, Note_off_c, 1, 72, 0
2, 71920, Note_on_c, 1, 45, 127
2, 71920, Note_on_c, 1, 48, 127
2, 71920, Note_on_c, 1, 57, 127
2, 71920, Note_on_c, 1, 60, 127
2, 71920, Note_on_c, 1, 69, 127
2, 71920, Note_on_c, 1, 72, 127
2, 72560, Note_off_c, 1, 45, 0
2, 72560, Note_off_c, 1, 48, 0
2, 72560, Note_off_c, 1, 57, 0
2, 72560, Note_off_c, 1, 60, 0
2, 72560, Note_off_c, 1, 69, 0
2, 72560, Note_off_c, 1, 72, 0
2, 72600, Note_on_c, 1, 45, 127
2, 72600, Note_on_c, 1, 48, 127
2, 72600, Note_on_c, 1, 57, 127
2, 72600, Note_on_c, 1, 60, 127
2, 72600, Note_on_c, 1, 69, 127
2, 72600, Note_on_c, 1, 72, 127
2, 73240, Note_off_c, 1, 45, 0
2, 73240, Note_off_c, 1, 48, 0
2, 73240, Note_off_c, 1, 57, 0
2, 73240, Note_off_c, 1, 60, 0
2, 73240, Note_off_c, 1, 69, 0
2, 73240, Note_off_c, 1, 72, 0
2, 73280, Note_on_c, 1, 46, 127
2, 73280, Note_on_c, 1, 49, 127
2, 73280, Note_on_c, 1, 58, 127
2, 73280, Note_on_c, 1, 61, 127
2, 73280, Note_on_c, 1, 70, 127
2, 73280, Note_on_c, 1, 73, 127
2, 73600, Note_off_c, 1, 46, 0
2, 73600, Note_off_c, 1, 49, 0
2, 73600, Note_off_c, 1, 58, 0
2, 73600, Note_off_c, 1, 61, 0
2, 73600, Note_off_c, 1, 70, 0
2, 73600, Note_off_c, 1, 73, 0
2, 73640, Note_on_c, 1, 48, 127
2, 73640, Note_on_c, 1, 56, 127
2, 73640, Note_on_c, 1, 65, 127
2, 73640, Note_on_c, 1, 74, 127
2, 73960, Note_off_c, 1, 48, 0
2, 73960, Note_off_c, 1, 56, 0
2, 73960, Note_off_c, 1, 65, 0
2, 73960, Note_off_c, 1, 74, 0
2, 74040, Note_on_c, 1, 48, 127
2, 74040, Note_on_c, 1, 52, 127
2, 74040, Note_on_c, 1, 60, 127
2, 74040, Note_on_c, 1, 64, 127
2, 74320, Note_off_c, 1, 48, 0
2, 74320, Note_off_c, 1, 52, 0
2, 74320, Note_off_c, 1, 60, 0
2, 74320, Note_off_c, 1, 64, 0
2, 74360, Note_on_c, 1, 48, 127
2, 74360, Note_on_c, 1, 52, 127
2, 74360, Note_on_c, 1, 60, 127
2, 74360, Note_on_c, 1, 64, 127
2, 74680, Note_off_c, 1, 48, 0
2, 74680, Note_off_c, 1, 52, 0
2, 74680, Note_off_c, 1, 60, 0
2, 74680, Note_off_c, 1, 64, 0
2, 74720, Note_on_c, 1, 55, 127
2, 74720, Note_on_c, 1, 58, 127
2, 74720, Note_on_c, 1, 62, 127
2, 74720, Note_on_c, 1, 67, 127
2, 74720, Note_on_c, 1, 70, 127
2, 75000, Note_off_c, 1, 55, 0
2, 75000, Note_off_c, 1, 58, 0
2, 75000, Note_off_c, 1, 62, 0
2, 75000, Note_off_c, 1, 67, 0
2, 75000, Note_off_c, 1, 70, 0
2, 75080, Note_on_c, 1, 55, 127
2, 75080, Note_on_c, 1, 58, 127
2, 75080, Note_on_c, 1, 62, 127
2, 75080, Note_on_c, 1, 67, 127
2, 75080, Note_on_c, 1, 70, 127
2, 75680, Note_off_c, 1, 55, 0
2, 75680, Note_off_c, 1, 58, 0
2, 75680, Note_off_c, 1, 62, 0
2, 75680, Note_off_c, 1, 67, 0
2, 75680, Note_off_c, 1, 70, 0
2, 75760, Note_on_c, 1, 55, 127
2, 75760, Note_on_c, 1, 58, 127
2, 75760, Note_on_c, 1, 62, 127
2, 75760, Note_on_c, 1, 67, 127
2, 75760, Note_on_c, 1, 70, 127
2, 76040, Note_off_c, 1, 55, 0
2, 76040, Note_off_c, 1, 58, 0
2, 76040, Note_off_c, 1, 62, 0
2, 76040, Note_on_c, 1, 64, 127
2, 76040, Note_off_c, 1, 67, 0
2, 76040, Note_off_c, 1, 70, 0
2, 76080, Note_off_c, 1, 64, 0
2, 76160, Note_on_c, 1, 48, 127
2, 76160, Note_on_c, 1, 55, 127
2, 76160, Note_on_c, 1, 58, 127
2, 76160, Note_on_c, 1, 60, 127
2, 76160, Note_on_c, 1, 64, 127
2, 76800, Note_off_c, 1, 48, 0
2, 76800, Note_off_c, 1, 55, 0
2, 76800, Note_off_c, 1, 58, 0
2, 76800, Note_off_c, 1, 60, 0
2, 76800, Note_off_c, 1, 64, 0
2, 76840, Note_on_c, 1, 43, 127
2, 76840, Note_on_c, 1, 47, 127
2, 76840, Note_on_c, 1, 52, 127
2, 76840, Note_on_c, 1, 59, 127
2, 76840, Note_on_c, 1, 71, 127
2, 77120, Note_off_c, 1, 43, 0
2, 77120, Note_off_c, 1, 47, 0
2, 77120, Note_off_c, 1, 52, 0
2, 77120, Note_off_c, 1, 59, 0
2, 77120, Note_off_c, 1, 71, 0
2, 77160, Note_on_c, 1, 43, 127
2, 77160, Note_on_c, 1, 57, 127
2, 77160, Note_on_c, 1, 66, 127
2, 77160, Note_on_c, 1, 72, 127
2, 77160, Note_on_c, 1, 78, 127
2, 77480, Note_off_c, 1, 43, 0
2, 77480, Note_off_c, 1, 57, 0
2, 77480, Note_off_c, 1, 66, 0
2, 77480, Note_off_c, 1, 72, 0
2, 77480, Note_off_c, 1, 78, 0
2, 77520, Note_on_c, 1, 71, 127
2, 77520, Note_on_c, 1, 75, 127
2, 77520, Note_on_c, 1, 83, 127
2, 77520, Note_on_c, 1, 91, 127
2, 77520, Note_on_c, 1, 99, 127
2, 77520, Note_on_c, 1, 103, 127
2, 77560, Note_on_c, 1, 29, 127
2, 77560, Note_on_c, 1, 41, 127
2, 77560, Note_on_c, 1, 65, 127
2, 77560, Note_on_c, 1, 69, 127
2, 77560, Note_off_c, 1, 71, 0
2, 77560, Note_on_c, 1, 74, 127
2, 77560, Note_off_c, 1, 75, 0
2, 77560, Note_on_c, 1, 77, 127
2, 77560, Note_off_c, 1, 83, 0
2, 77560, Note_off_c, 1, 91, 0
2, 77560, Note_off_c, 1, 99, 0
2, 77560, Note_off_c, 1, 103, 0
2, 77600, Note_off_c, 1, 29, 0
2, 77600, Note_off_c, 1, 41, 0
2, 77600, Note_on_c, 1, 48, 127
2, 77600, Note_on_c, 1, 52, 127
2, 77600, Note_on_c, 1, 60, 127
2, 77600, Note_off_c, 1, 65, 0
2, 77600, Note_off_c, 1, 69, 0
2, 77600, Note_on_c, 1, 71, 127
2, 77600, Note_off_c, 1, 74, 0
2, 77600, Note_on_c, 1, 76, 127
2, 77600, Note_off_c, 1, 77, 0
2, 77640, Note_on_c, 1, 38, 127
2, 77640, Note_off_c, 1, 48, 0
2, 77640, Note_on_c, 1, 50, 127
2, 77640, Note_off_c, 1, 52, 0
2, 77640, Note_on_c, 1, 59, 127
2, 77640, Note_off_c, 1, 60, 0
2, 77640, Note_on_c, 1, 62, 127
2, 77640, Note_on_c, 1, 67, 127
2, 77640, Note_off_c, 1, 76, 0
2, 77680, Note_on_c, 1, 36, 127
2, 77680, Note_off_c, 1, 38, 0
2, 77680, Note_on_c, 1, 48, 127
2, 77680, Note_off_c, 1, 50, 0
2, 77680, Note_off_c, 1, 59, 0
2, 77680, Note_off_c, 1, 62, 0
2, 77680, Note_off_c, 1, 67, 0
2, 77680, Note_off_c, 1, 71, 0
2, 77680, Note_on_c, 1, 78, 127
2, 77680, Note_on_c, 1, 80, 127
2, 77680, Note_on_c, 1, 84, 127
2, 77680, Note_on_c, 1, 87, 127
2, 77680, Note_on_c, 1, 92, 127
2, 77720, Note_off_c, 1, 36, 0
2, 77720, Note_on_c, 1, 44, 127
2, 77720, Note_off_c, 1, 48, 0
2, 77720, Note_off_c, 1, 78, 0
2, 77720, Note_off_c, 1, 80, 0
2, 77720, Note_off_c, 1, 84, 0
2, 77720, Note_on_c, 1, 90, 127
2, 77720, Note_off_c, 1, 92, 0
2, 77720, Note_on_c, 1, 99, 127
2, 77760, Note_on_c, 1, 36, 127
2, 77760, Note_off_c, 1, 44, 0
2, 77760, Note_on_c, 1, 48, 127
2, 77760, Note_on_c, 1, 78, 127
2, 77760, Note_on_c, 1, 80, 127
2, 77760, Note_on_c, 1, 84, 127
2, 77760, Note_off_c, 1, 90, 0
2, 77760, Note_on_c, 1, 92, 127
2, 77760, Note_off_c, 1, 99, 0
2, 77800, Note_off_c, 1, 36, 0
2, 77800, Note_off_c, 1, 48, 0
2, 77800, Note_off_c, 1, 78, 0
2, 77800, Note_off_c, 1, 80, 0
2, 77800, Note_off_c, 1, 84, 0
2, 77800, Note_off_c, 1, 87, 0
2, 77800, Note_off_c, 1, 92, 0
2, 77840, Note_on_c, 1, 35, 127
2, 77840, Note_on_c, 1, 41, 127
2, 77840, Note_on_c, 1, 44, 127
2, 77840, Note_on_c, 1, 47, 127
2, 77840, Note_on_c, 1, 86, 127
2, 77840, Note_on_c, 1, 89, 127
2, 77840, Note_on_c, 1, 92, 127
2, 77840, Note_on_c, 1, 98, 127
2, 78160, Note_off_c, 1, 35, 0
2, 78160, Note_off_c, 1, 41, 0
2, 78160, Note_off_c, 1, 44, 0
2, 78160, Note_off_c, 1, 47, 0
2, 78160, Note_off_c, 1, 86, 0
2, 78160, Note_off_c, 1, 89, 0
2, 78160, Note_off_c, 1, 92, 0
2, 78160, Note_off_c, 1, 98, 0
2, 78280, Note_on_c, 1, 48, 127
2, 78280, Note_on_c, 1, 55, 127
2, 78280, Note_on_c, 1, 57, 127
2, 78280, Note_on_c, 1, 63, 127
2, 78280, Note_on_c, 1, 69, 127
2, 78280, Note_on_c, 1, 75, 127
2, 78280, Note_on_c, 1, 79, 127
2, 78280, Note_on_c, 1, 81, 127
2, 78360, Note_on_c, 1, 67, 127
2, 78360, Note_off_c, 1, 69, 0
2, 78360, Note_off_c, 1, 75, 0
2, 78360, Note_off_c, 1, 81, 0
2, 78400, Note_off_c, 1, 67, 0
2, 78400, Note_off_c, 1, 79, 0
2, 78440, Note_off_c, 1, 48, 0
2, 78440, Note_off_c, 1, 55, 0
2, 78440, Note_off_c, 1, 57, 0
2, 78440, Note_off_c, 1, 63, 0
2, 78440, Note_on_c, 1, 64, 127
2, 78440, Note_on_c, 1, 71, 127
2, 78440, Note_on_c, 1, 83, 127
2, 78440, Note_on_c, 1, 90, 127
2, 78480, Note_on_c, 1, 47, 127
2, 78480, Note_on_c, 1, 56, 127
2, 78480, Note_on_c, 1, 63, 127
2, 78480, Note_off_c, 1, 64, 0
2, 78480, Note_on_c, 1, 66, 127
2, 78480, Note_off_c, 1, 71, 0
2, 78480, Note_on_c, 1, 74, 127
2, 78480, Note_off_c, 1, 83, 0
2, 78480, Note_off_c, 1, 90, 0
2, 78520, Note_off_c, 1, 47, 0
2, 78520, Note_off_c, 1, 56, 0
2, 78520, Note_on_c, 1, 59, 127
2, 78520, Note_on_c, 1, 62, 127
2, 78520, Note_off_c, 1, 63, 0
2, 78520, Note_off_c, 1, 66, 0
2, 78520, Note_on_c, 1, 67, 127
2, 78520, Note_off_c, 1, 74, 0
2, 78520, Note_on_c, 1, 79, 127
2, 78520, Note_on_c, 1, 86, 127
2, 78520, Note_on_c, 1, 89, 127
2, 78520, Note_on_c, 1, 91, 127
2, 78560, Note_off_c, 1, 59, 0
2, 78560, Note_off_c, 1, 62, 0
2, 78560, Note_off_c, 1, 67, 0
2, 78560, Note_off_c, 1, 79, 0
2, 78560, Note_off_c, 1, 86, 0
2, 78560, Note_off_c, 1, 89, 0
2, 78560, Note_off_c, 1, 91, 0
2, 78600, Note_on_c, 1, 49, 127
2, 78600, Note_on_c, 1, 53, 127
2, 78600, Note_on_c, 1, 59, 127
2, 78600, Note_on_c, 1, 68, 127
2, 78600, Note_on_c, 1, 73, 127
2, 78640, Note_off_c, 1, 49, 0
2, 78640, Note_off_c, 1, 53, 0
2, 78640, Note_off_c, 1, 59, 0
2, 78640, Note_off_c, 1, 68, 0
2, 78640, Note_on_c, 1, 70, 127
2, 78640, Note_off_c, 1, 73, 0
2, 78640, Note_on_c, 1, 77, 127
2, 78640, Note_on_c, 1, 86, 127
2, 78640, Note_on_c, 1, 98, 127
2, 78680, Note_on_c, 1, 58, 127
2, 78680, Note_on_c, 1, 62, 127
2, 78680, Note_on_c, 1, 65, 127
2, 78680, Note_off_c, 1, 77, 0
2, 78680, Note_on_c, 1, 80, 127
2, 78680, Note_off_c, 1, 86, 0
2, 78680, Note_on_c, 1, 92, 127
2, 78680, Note_off_c, 1, 98, 0
2, 78720, Note_off_c, 1, 58, 0
2, 78720, Note_off_c, 1, 62, 0
2, 78720, Note_off_c, 1, 65, 0
2, 78720, Note_on_c, 1, 77, 127
2, 78720, Note_off_c, 1, 80, 0
2, 78720, Note_on_c, 1, 86, 127
2, 78720, Note_off_c, 1, 92, 0
2, 78720, Note_on_c, 1, 98, 127
2, 78760, Note_off_c, 1, 70, 0
2, 78760, Note_off_c, 1, 77, 0
2, 78760, Note_on_c, 1, 81, 127
2, 78760, Note_on_c, 1, 82, 127
2, 78760, Note_off_c, 1, 86, 0
2, 78760, Note_on_c, 1, 93, 127
2, 78760, Note_on_c, 1, 94, 127
2, 78760, Note_off_c, 1, 98, 0
2, 78800, Note_on_c, 1, 57, 127
2, 78800, Note_on_c, 1, 60, 127
2, 78800, Note_on_c, 1, 65, 127
2, 78800, Note_on_c, 1, 69, 127
2, 78800, Note_on_c, 1, 72, 127
2, 78800, Note_on_c, 1, 77, 127
2, 78800, Note_off_c, 1, 81, 0
2, 78800, Note_off_c, 1, 82, 0
2, 78800, Note_on_c, 1, 83, 127
2, 78800, Note_off_c, 1, 93, 0
2, 78800, Note_off_c, 1, 94, 0
2, 78920, Note_off_c, 1, 57, 0
2, 78920, Note_off_c, 1, 60, 0
2, 78920, Note_off_c, 1, 65, 0
2, 78920, Note_off_c, 1, 69, 0
2, 78920, Note_off_c, 1, 72, 0
2, 78920, Note_off_c, 1, 77, 0
2, 78920, Note_off_c, 1, 83, 0
2, 78960, Note_on_c, 1, 32, 127
2, 78960, Note_on_c, 1, 55, 127
2, 78960, Note_on_c, 1, 57, 127
2, 78960, Note_on_c, 1, 61, 127
2, 78960, Note_on_c, 1, 64, 127
2, 79600, Note_off_c, 1, 32, 0
2, 79600, Note_off_c, 1, 55, 0
2, 79600, Note_off_c, 1, 57, 0
2, 79600, Note_off_c, 1, 61, 0
2, 79600, Note_off_c, 1, 64, 0
2, 79640, Note_on_c, 1, 41, 127
2, 79640, Note_on_c, 1, 53, 127
2, 79640, Note_on_c, 1, 56, 127
2, 79640, Note_on_c, 1, 61, 127
2, 79640, Note_on_c, 1, 65, 127
2, 79640, Note_on_c, 1, 68, 127
2, 79920, Note_off_c, 1, 41, 0
2, 79920, Note_off_c, 1, 53, 0
2, 79920, Note_off_c, 1, 56, 0
2, 79920, Note_off_c, 1, 61, 0
2, 79920, Note_off_c, 1, 65, 0
2, 79920, Note_off_c, 1, 68, 0
2, 80000, Note_on_c, 1, 45, 127
2, 80000, Note_on_c, 1, 50, 127
2, 80000, Note_on_c, 1, 53, 127
2, 80000, Note_on_c, 1, 69, 127
2, 80000, Note_on_c, 1, 74, 127
2, 80000, Note_on_c, 1, 81, 127
2, 80040, Note_on_c, 1, 33, 127
2, 80040, Note_off_c, 1, 50, 0
2, 80040, Note_on_c, 1, 65, 127
2, 80040, Note_off_c, 1, 69, 0
2, 80040, Note_on_c, 1, 73, 127
2, 80040, Note_off_c, 1, 74, 0
2, 80080, Note_off_c, 1, 33, 0
2, 80080, Note_on_c, 1, 50, 127
2, 80080, Note_off_c, 1, 65, 0
2, 80080, Note_on_c, 1, 69, 127
2, 80080, Note_off_c, 1, 73, 0
2, 80080, Note_on_c, 1, 74, 127
2, 80120, Note_off_c, 1, 45, 0
2, 80120, Note_off_c, 1, 50, 0
2, 80120, Note_off_c, 1, 53, 0
2, 80120, Note_on_c, 1, 57, 127
2, 80120, Note_on_c, 1, 61, 127
2, 80120, Note_on_c, 1, 64, 127
2, 80120, Note_off_c, 1, 69, 0
2, 80120, Note_off_c, 1, 74, 0
2, 80120, Note_off_c, 1, 81, 0
2, 80120, Note_on_c, 1, 85, 127
2, 80120, Note_on_c, 1, 88, 127
2, 80160, Note_on_c, 1, 45, 127
2, 80160, Note_on_c, 1, 50, 127
2, 80160, Note_on_c, 1, 53, 127
2, 80160, Note_off_c, 1, 57, 0
2, 80160, Note_off_c, 1, 61, 0
2, 80160, Note_off_c, 1, 64, 0
2, 80160, Note_on_c, 1, 69, 127
2, 80160, Note_on_c, 1, 74, 127
2, 80160, Note_on_c, 1, 81, 127
2, 80160, Note_off_c, 1, 85, 0
2, 80160, Note_off_c, 1, 88, 0
2, 80240, Note_off_c, 1, 45, 0
2, 80240, Note_off_c, 1, 50, 0
2, 80240, Note_off_c, 1, 53, 0
2, 80240, Note_off_c, 1, 69, 0
2, 80240, Note_off_c, 1, 74, 0
2, 80280, Note_off_c, 1, 81, 0
2, 80320, Note_on_c, 1, 48, 127
2, 80320, Note_on_c, 1, 59, 127
2, 80320, Note_on_c, 1, 62, 127
2, 80320, Note_on_c, 1, 65, 127
2, 80320, Note_on_c, 1, 67, 127
2, 80360, Note_on_c, 1, 34, 127
2, 80360, Note_on_c, 1, 41, 127
2, 80360, Note_on_c, 1, 44, 127
2, 80360, Note_off_c, 1, 48, 0
2, 80360, Note_on_c, 1, 53, 127
2, 80360, Note_on_c, 1, 56, 127
2, 80360, Note_on_c, 1, 58, 127
2, 80360, Note_off_c, 1, 59, 0
2, 80360, Note_off_c, 1, 62, 0
2, 80360, Note_off_c, 1, 65, 0
2, 80360, Note_off_c, 1, 67, 0
2, 80400, Note_off_c, 1, 34, 0
2, 80400, Note_off_c, 1, 41, 0
2, 80400, Note_off_c, 1, 44, 0
2, 80400, Note_off_c, 1, 53, 0
2, 80400, Note_off_c, 1, 56, 0
2, 80400, Note_off_c, 1, 58, 0
2, 80440, Note_on_c, 1, 34, 127
2, 80440, Note_on_c, 1, 41, 127
2, 80440, Note_on_c, 1, 44, 127
2, 80440, Note_on_c, 1, 53, 127
2, 80440, Note_on_c, 1, 56, 127
2, 80440, Note_on_c, 1, 58, 127
2, 80640, Note_off_c, 1, 34, 0
2, 80640, Note_off_c, 1, 41, 0
2, 80640, Note_off_c, 1, 44, 0
2, 80640, Note_off_c, 1, 53, 0
2, 80640, Note_off_c, 1, 56, 0
2, 80640, Note_off_c, 1, 58, 0
2, 80720, Note_on_c, 1, 53, 127
2, 80720, Note_on_c, 1, 58, 127
2, 80720, Note_on_c, 1, 62, 127
2, 80720, Note_on_c, 1, 74, 127
2, 80720, Note_on_c, 1, 82, 127
2, 81000, Note_off_c, 1, 53, 0
2, 81000, Note_off_c, 1, 58, 0
2, 81000, Note_off_c, 1, 62, 0
2, 81000, Note_off_c, 1, 74, 0
2, 81000, Note_off_c, 1, 82, 0
2, 81040, Note_on_c, 1, 58, 127
2, 81040, Note_on_c, 1, 62, 127
2, 81040, Note_on_c, 1, 78, 127
2, 81040, Note_on_c, 1, 82, 127
2, 81720, Note_off_c, 1, 58, 0
2, 81720, Note_off_c, 1, 62, 0
2, 81720, Note_off_c, 1, 78, 0
2, 81720, Note_off_c, 1, 82, 0
2, 81760, Note_on_c, 1, 57, 127
2, 81760, Note_on_c, 1, 60, 127
2, 81760, Note_on_c, 1, 64, 127
2, 81760, Note_on_c, 1, 69, 127
2, 81760, Note_on_c, 1, 76, 127
2, 81760, Note_on_c, 1, 81, 127
2, 81760, Note_on_c, 1, 84, 127
2, 81760, Note_on_c, 1, 88, 127
2, 82040, Note_off_c, 1, 57, 0
2, 82040, Note_off_c, 1, 60, 0
2, 82040, Note_off_c, 1, 64, 0
2, 82040, Note_off_c, 1, 69, 0
2, 82040, Note_off_c, 1, 76, 0
2, 82040, Note_off_c, 1, 81, 0
2, 82040, Note_off_c, 1, 84, 0
2, 82040, Note_off_c, 1, 88, 0
2, 82080, Note_on_c, 1, 57, 127
2, 82080, Note_on_c, 1, 60, 127
2, 82080, Note_on_c, 1, 64, 127
2, 82080, Note_on_c, 1, 69, 127
2, 82080, Note_on_c, 1, 76, 127
2, 82080, Note_on_c, 1, 81, 127
2, 82080, Note_on_c, 1, 84, 127
2, 82080, Note_on_c, 1, 88, 127
2, 82400, Note_off_c, 1, 57, 0
2, 82400, Note_off_c, 1, 60, 0
2, 82400, Note_off_c, 1, 64, 0
2, 82400, Note_off_c, 1, 69, 0
2, 82400, Note_off_c, 1, 76, 0
2, 82400, Note_off_c, 1, 81, 0
2, 82400, Note_off_c, 1, 84, 0
2, 82400, Note_off_c, 1, 88, 0
2, 82440, Note_on_c, 1, 54, 127
2, 82440, Note_on_c, 1, 59, 127
2, 82440, Note_on_c, 1, 62, 127
2, 82440, Note_on_c, 1, 83, 127
2, 82440, Note_on_c, 1, 86, 127
2, 82440, Note_on_c, 1, 88, 127
2, 82480, Note_off_c, 1, 54, 0
2, 82480, Note_off_c, 1, 59, 0
2, 82480, Note_off_c, 1, 62, 0
2, 82480, Note_off_c, 1, 83, 0
2, 82480, Note_off_c, 1, 86, 0
2, 82480, Note_off_c, 1, 88, 0
2, 82520, Note_on_c, 1, 70, 127
2, 82520, Note_on_c, 1, 77, 127
2, 82520, Note_on_c, 1, 79, 127
2, 82520, Note_on_c, 1, 84, 127
2, 82560, Note_on_c, 1, 53, 127
2, 82560, Note_on_c, 1, 57, 127
2, 82560, Note_on_c, 1, 60, 127
2, 82560, Note_on_c, 1, 68, 127
2, 82560, Note_off_c, 1, 70, 0
2, 82560, Note_off_c, 1, 77, 0
2, 82560, Note_off_c, 1, 79, 0
2, 82560, Note_off_c, 1, 84, 0
2, 82600, Note_on_c, 1, 48, 127
2, 82600, Note_on_c, 1, 51, 127
2, 82600, Note_off_c, 1, 53, 0
2, 82600, Note_off_c, 1, 60, 0
2, 82600, Note_off_c, 1, 68, 0
2, 82600, Note_on_c, 1, 79, 127
2, 82640, Note_on_c, 1, 44, 127
2, 82640, Note_off_c, 1, 48, 0
2, 82640, Note_on_c, 1, 50, 127
2, 82640, Note_off_c, 1, 51, 0
2, 82640, Note_on_c, 1, 54, 127
2, 82640, Note_off_c, 1, 57, 0
2, 82640, Note_on_c, 1, 60, 127
2, 82640, Note_on_c, 1, 62, 127
2, 82640, Note_off_c, 1, 79, 0
2, 82680, Note_off_c, 1, 44, 0
2, 82680, Note_off_c, 1, 50, 0
2, 82680, Note_off_c, 1, 54, 0
2, 82680, Note_off_c, 1, 60, 0
2, 82680, Note_off_c, 1, 62, 0
2, 82680, Note_on_c, 1, 64, 127
2, 82680, Note_on_c, 1, 72, 127
2, 82680, Note_on_c, 1, 75, 127
2, 82680, Note_on_c, 1, 78, 127
2, 82680, Note_on_c, 1, 81, 127
2, 82680, Note_on_c, 1, 90, 127
2, 82720, Note_on_c, 1, 48, 127
2, 82720, Note_on_c, 1, 53, 127
2, 82720, Note_on_c, 1, 56, 127
2, 82720, Note_on_c, 1, 60, 127
2, 82720, Note_off_c, 1, 64, 0
2, 82720, Note_off_c, 1, 72, 0
2, 82720, Note_off_c, 1, 75, 0
2, 82720, Note_off_c, 1, 78, 0
2, 82720, Note_off_c, 1, 81, 0
2, 82720, Note_off_c, 1, 90, 0
2, 82760, Note_off_c, 1, 48, 0
2, 82760, Note_off_c, 1, 53, 0
2, 82760, Note_off_c, 1, 56, 0
2, 82760, Note_off_c, 1, 60, 0
2, 82840, Note_on_c, 1, 48, 127
2, 82840, Note_on_c, 1, 53, 127
2, 82840, Note_on_c, 1, 57, 127
2, 82840, Note_on_c, 1, 77, 127
2, 83120, Note_off_c, 1, 48, 0
2, 83120, Note_off_c, 1, 53, 0
2, 83120, Note_off_c, 1, 57, 0
2, 83120, Note_off_c, 1, 77, 0
2, 83160, Note_on_c, 1, 48, 127
2, 83160, Note_on_c, 1, 53, 127
2, 83160, Note_on_c, 1, 57, 127
2, 83160, Note_on_c, 1, 77, 127
2, 83800, Note_off_c, 1, 48, 0
2, 83800, Note_off_c, 1, 53, 0
2, 83800, Note_off_c, 1, 57, 0
2, 83800, Note_off_c, 1, 77, 0
2, 83800, Note_on_c, 1, 81, 127
2, 83840, Note_on_c, 1, 48, 127
2, 83840, Note_on_c, 1, 53, 127
2, 83840, Note_on_c, 1, 57, 127
2, 83840, Note_on_c, 1, 77, 127
2, 83840, Note_off_c, 1, 81, 0
2, 84160, Note_off_c, 1, 48, 0
2, 84160, Note_off_c, 1, 53, 0
2, 84160, Note_off_c, 1, 57, 0
2, 84160, Note_off_c, 1, 77, 0
2, 84200, Note_on_c, 1, 60, 127
2, 84200, Note_on_c, 1, 65, 127
2, 84200, Note_on_c, 1, 68, 127
2, 84200, Note_on_c, 1, 72, 127
2, 84480, Note_off_c, 1, 60, 0
2, 84480, Note_off_c, 1, 65, 0
2, 84480, Note_off_c, 1, 68, 0
2, 84480, Note_off_c, 1, 72, 0
2, 84600, Note_on_c, 1, 60, 127
2, 84600, Note_on_c, 1, 65, 127
2, 84600, Note_on_c, 1, 68, 127
2, 84600, Note_on_c, 1, 72, 127
2, 84880, Note_off_c, 1, 60, 0
2, 84880, Note_off_c, 1, 65, 0
2, 84880, Note_off_c, 1, 68, 0
2, 84880, Note_off_c, 1, 72, 0
2, 84920, Note_on_c, 1, 60, 127
2, 84920, Note_on_c, 1, 65, 127
2, 84920, Note_on_c, 1, 68, 127
2, 84920, Note_on_c, 1, 72, 127
2, 85240, Note_off_c, 1, 60, 0
2, 85240, Note_off_c, 1, 65, 0
2, 85240, Note_off_c, 1, 68, 0
2, 85240, Note_off_c, 1, 72, 0
2, 85280, Note_on_c, 1, 60, 127
2, 85280, Note_on_c, 1, 65, 127
2, 85280, Note_on_c, 1, 68, 127
2, 85280, Note_on_c, 1, 72, 127
2, 85920, Note_off_c, 1, 60, 0
2, 85920, Note_off_c, 1, 65, 0
2, 85920, Note_off_c, 1, 68, 0
2, 85920, Note_off_c, 1, 72, 0
2, 85960, Note_on_c, 1, 46, 127
2, 85960, Note_on_c, 1, 56, 127
2, 85960, Note_on_c, 1, 70, 127
2, 86240, Note_off_c, 1, 70, 0
2, 86280, Note_on_c, 1, 70, 127
2, 86560, Note_off_c, 1, 46, 0
2, 86560, Note_off_c, 1, 56, 0
2, 86560, Note_off_c, 1, 70, 0
2, 86600, Note_on_c, 1, 46, 127
2, 86600, Note_on_c, 1, 56, 127
2, 86600, Note_on_c, 1, 70, 127
2, 86640, Note_off_c, 1, 46, 0
2, 86640, Note_off_c, 1, 56, 0
2, 86640, Note_off_c, 1, 70, 0
2, 86680, Note_on_c, 1, 58, 127
2, 86680, Note_on_c, 1, 60, 127
2, 86680, Note_on_c, 1, 72, 127
2, 86960, Note_off_c, 1, 72, 0
2, 87000, Note_off_c, 1, 58, 0
2, 87000, Note_off_c, 1, 60, 0
2, 87000, Note_on_c, 1, 67, 127
2, 87000, Note_on_c, 1, 72, 127
2, 87000, Note_on_c, 1, 76, 127
2, 87000, Note_on_c, 1, 88, 127
2, 87000, Note_on_c, 1, 96, 127
2, 87000, Note_on_c, 1, 100, 127
2, 87040, Note_on_c, 1, 63, 127
2, 87040, Note_off_c, 1, 67, 0
2, 87040, Note_on_c, 1, 70, 127
2, 87040, Note_off_c, 1, 72, 0
2, 87040, Note_on_c, 1, 73, 127
2, 87040, Note_on_c, 1, 75, 127
2, 87040, Note_off_c, 1, 76, 0
2, 87040, Note_on_c, 1, 87, 127
2, 87040, Note_off_c, 1, 88, 0
2, 87040, Note_off_c, 1, 96, 0
2, 87040, Note_off_c, 1, 100, 0
2, 87080, Note_on_c, 1, 40, 127
2, 87080, Note_on_c, 1, 44, 127
2, 87080, Note_on_c, 1, 52, 127
2, 87080, Note_off_c, 1, 63, 0
2, 87080, Note_off_c, 1, 70, 0
2, 87080, Note_off_c, 1, 75, 0
2, 87080, Note_off_c, 1, 87, 0
2, 87120, Note_off_c, 1, 44, 0
2, 87120, Note_on_c, 1, 50, 127
2, 87160, Note_off_c, 1, 40, 0
2, 87160, Note_off_c, 1, 50, 0
2, 87160, Note_off_c, 1, 52, 0
2, 87160, Note_on_c, 1, 53, 127
2, 87160, Note_on_c, 1, 57, 127
2, 87160, Note_on_c, 1, 60, 127
2, 87160, Note_on_c, 1, 63, 127
2, 87160, Note_off_c, 1, 73, 0
2, 87160, Note_on_c, 1, 75, 127
2, 87200, Note_off_c, 1, 53, 0
2, 87200, Note_off_c, 1, 57, 0
2, 87200, Note_off_c, 1, 60, 0
2, 87200, Note_on_c, 1, 70, 127
2, 87200, Note_on_c, 1, 73, 127
2, 87200, Note_on_c, 1, 87, 127
2, 87320, Note_on_c, 1, 60, 127
2, 87320, Note_off_c, 1, 63, 0
2, 87320, Note_off_c, 1, 70, 0
2, 87320, Note_off_c, 1, 73, 0
2, 87320, Note_off_c, 1, 75, 0
2, 87320, Note_off_c, 1, 87, 0
2, 87360, Note_on_c, 1, 45, 127
2, 87360, Note_on_c, 1, 54, 127
2, 87360, Note_on_c, 1, 57, 127
2, 87360, Note_off_c, 1, 60, 0
2, 87360, Note_on_c, 1, 62, 127
2, 87360, Note_on_c, 1, 66, 127
2, 87360, Note_on_c, 1, 69, 127
2, 88360, Note_off_c, 1, 45, 0
2, 88360, Note_off_c, 1, 54, 0
2, 88360, Note_off_c, 1, 57, 0
2, 88360, Note_off_c, 1, 62, 0
2, 88360, Note_off_c, 1, 66, 0
2, 88360, Note_off_c, 1, 69, 0
2, 88520, Note_on_c, 1, 41, 127
2, 88520, Note_on_c, 1, 53, 127
2, 88520, Note_on_c, 1, 74, 127
2, 88520, Note_on_c, 1, 81, 127
2, 88520, Note_on_c, 1, 86, 127
2, 88600, Note_off_c, 1, 41, 0
2, 88600, Note_off_c, 1, 53, 0
2, 88600, Note_off_c, 1, 74, 0
2, 88600, Note_off_c, 1, 81, 0
2, 88600, Note_off_c, 1, 86, 0
2, 88640, Note_on_c, 1, 41, 127
2, 88640, Note_on_c, 1, 53, 127
2, 88640, Note_on_c, 1, 74, 127
2, 88640, Note_on_c, 1, 81, 127
2, 88640, Note_on_c, 1, 86, 127
2, 88680, Note_off_c, 1, 41, 0
2, 88680, Note_on_c, 1, 47, 127
2, 88680, Note_off_c, 1, 53, 0
2, 88680, Note_on_c, 1, 54, 127
2, 88680, Note_on_c, 1, 57, 127
2, 88680, Note_on_c, 1, 60, 127
2, 88680, Note_off_c, 1, 74, 0
2, 88680, Note_on_c, 1, 75, 127
2, 88680, Note_off_c, 1, 81, 0
2, 88680, Note_off_c, 1, 86, 0
2, 88720, Note_off_c, 1, 47, 0
2, 88720, Note_on_c, 1, 48, 127
2, 88720, Note_off_c, 1, 54, 0
2, 88720, Note_off_c, 1, 57, 0
2, 88720, Note_off_c, 1, 60, 0
2, 88720, Note_on_c, 1, 68, 127
2, 88720, Note_on_c, 1, 78, 127
2, 88720, Note_on_c, 1, 82, 127
2, 88760, Note_off_c, 1, 48, 0
2, 88760, Note_on_c, 1, 71, 127
2, 88760, Note_off_c, 1, 75, 0
2, 88760, Note_on_c, 1, 76, 127
2, 88760, Note_off_c, 1, 78, 0
2, 88760, Note_on_c, 1, 80, 127
2, 88760, Note_off_c, 1, 82, 0
2, 88760, Note_on_c, 1, 88, 127
2, 88800, Note_on_c, 1, 48, 127
2, 88800, Note_off_c, 1, 71, 0
2, 88800, Note_on_c, 1, 75, 127
2, 88800, Note_off_c, 1, 76, 0
2, 88800, Note_on_c, 1, 78, 127
2, 88800, Note_off_c, 1, 80, 0
2, 88800, Note_on_c, 1, 82, 127
2, 88800, Note_off_c, 1, 88, 0
2, 88840, Note_off_c, 1, 48, 0
2, 88840, Note_off_c, 1, 68, 0
2, 88840, Note_off_c, 1, 75, 0
2, 88840, Note_off_c, 1, 78, 0
2, 88840, Note_off_c, 1, 82, 0
2, 88880, Note_on_c, 1, 55, 127
2, 88880, Note_on_c, 1, 62, 127
2, 88880, Note_on_c, 1, 83, 127
2, 88880, Note_on_c, 1, 86, 127
2, 89160, Note_off_c, 1, 55, 0
2, 89160, Note_off_c, 1, 62, 0
2, 89160, Note_off_c, 1, 83, 0
2, 89160, Note_off_c, 1, 86, 0
2, 89240, Note_on_c, 1, 65, 127
2, 89240, Note_on_c, 1, 74, 127
2, 89240, Note_on_c, 1, 81, 127
2, 89240, Note_on_c, 1, 89, 127
2, 89520, Note_off_c, 1, 65, 0
2, 89520, Note_off_c, 1, 74, 0
2, 89520, Note_off_c, 1, 81, 0
2, 89520, Note_off_c, 1, 89, 0
2, 89920, Note_on_c, 1, 55, 127
2, 89920, Note_on_c, 1, 58, 127
2, 89920, Note_on_c, 1, 70, 127
2, 89920, Note_on_c, 1, 73, 127
2, 89920, Note_on_c, 1, 82, 127
2, 89960, Note_on_c, 1, 36, 127
2, 89960, Note_on_c, 1, 40, 127
2, 89960, Note_on_c, 1, 43, 127
2, 89960, Note_on_c, 1, 48, 127
2, 89960, Note_off_c, 1, 55, 0
2, 89960, Note_off_c, 1, 58, 0
2, 89960, Note_off_c, 1, 70, 0
2, 89960, Note_off_c, 1, 73, 0
2, 89960, Note_off_c, 1, 82, 0
2, 89960, Note_on_c, 1, 84, 127
2, 89960, Note_on_c, 1, 88, 127
2, 89960, Note_on_c, 1, 91, 127
2, 89960, Note_on_c, 1, 96, 127
2, 90000, Note_off_c, 1, 36, 0
2, 90000, Note_off_c, 1, 40, 0
2, 90000, Note_off_c, 1, 43, 0
2, 90000, Note_on_c, 1, 47, 127
2, 90000, Note_off_c, 1, 48, 0
2, 90000, Note_on_c, 1, 51, 127
2, 90000, Note_on_c, 1, 56, 127
2, 90000, Note_on_c, 1, 75, 127
2, 90000, Note_off_c, 1, 84, 0
2, 90000, Note_on_c, 1, 87, 127
2, 90000, Note_off_c, 1, 88, 0
2, 90000, Note_off_c, 1, 91, 0
2, 90000, Note_off_c, 1, 96, 0
2, 90040, Note_off_c, 1, 47, 0
2, 90040, Note_off_c, 1, 51, 0
2, 90040, Note_on_c, 1, 53, 127
2, 90040, Note_on_c, 1, 55, 127
2, 90040, Note_off_c, 1, 56, 0
2, 90040, Note_on_c, 1, 58, 127
2, 90040, Note_off_c, 1, 75, 0
2, 90040, Note_on_c, 1, 79, 127
2, 90040, Note_off_c, 1, 87, 0
2, 90080, Note_on_c, 1, 46, 127
2, 90080, Note_on_c, 1, 48, 127
2, 90080, Note_on_c, 1, 52, 127
2, 90080, Note_off_c, 1, 53, 0
2, 90080, Note_off_c, 1, 55, 0
2, 90080, Note_off_c, 1, 58, 0
2, 90080, Note_on_c, 1, 60, 127
2, 90080, Note_on_c, 1, 64, 127
2, 90080, Note_on_c, 1, 72, 127
2, 90080, Note_off_c, 1, 79, 0
2, 90120, Note_off_c, 1, 48, 0
2, 90120, Note_on_c, 1, 50, 127
2, 90120, Note_off_c, 1, 52, 0
2, 90120, Note_on_c, 1, 53, 127
2, 90120, Note_on_c, 1, 58, 127
2, 90120, Note_off_c, 1, 60, 0
2, 90120, Note_off_c, 1, 64, 0
2, 90120, Note_on_c, 1, 68, 127
2, 90120, Note_off_c, 1, 72, 0
2, 90120, Note_on_c, 1, 80, 127
2, 90160, Note_on_c, 1, 27, 127
2, 90160, Note_on_c, 1, 39, 127
2, 90160, Note_off_c, 1, 46, 0
2, 90160, Note_off_c, 1, 50, 0
2, 90160, Note_off_c, 1, 53, 0
2, 90160, Note_off_c, 1, 58, 0
2, 90160, Note_off_c, 1, 68, 0
2, 90160, Note_off_c, 1, 80, 0
2, 90160, Note_on_c, 1, 87, 127
2, 90160, Note_on_c, 1, 91, 127
2, 90160, Note_on_c, 1, 94, 127
2, 90160, Note_on_c, 1, 99, 127
2, 90200, Note_off_c, 1, 27, 0
2, 90200, Note_off_c, 1, 39, 0
2, 90200, Note_on_c, 1, 61, 127
2, 90200, Note_on_c, 1, 71, 127
2, 90200, Note_on_c, 1, 76, 127
2, 90200, Note_on_c, 1, 83, 127
2, 90200, Note_off_c, 1, 87, 0
2, 90200, Note_off_c, 1, 91, 0
2, 90200, Note_off_c, 1, 94, 0
2, 90200, Note_off_c, 1, 99, 0
2, 90240, Note_off_c, 1, 61, 0
2, 90240, Note_on_c, 1, 69, 127
2, 90240, Note_off_c, 1, 71, 0
2, 90240, Note_on_c, 1, 72, 127
2, 90240, Note_off_c, 1, 76, 0
2, 90240, Note_on_c, 1, 82, 127
2, 90240, Note_off_c, 1, 83, 0
2, 90240, Note_on_c, 1, 85, 127
2, 90280, Note_on_c, 1, 60, 127
2, 90280, Note_on_c, 1, 63, 127
2, 90280, Note_on_c, 1, 66, 127
2, 90280, Note_off_c, 1, 69, 0
2, 90280, Note_off_c, 1, 72, 0
2, 90280, Note_on_c, 1, 74, 127
2, 90280, Note_on_c, 1, 78, 127
2, 90280, Note_off_c, 1, 82, 0
2, 90280, Note_off_c, 1, 85, 0
2, 90320, Note_on_c, 1, 58, 127
2, 90320, Note_off_c, 1, 60, 0
2, 90320, Note_off_c, 1, 63, 0
2, 90320, Note_off_c, 1, 66, 0
2, 90320, Note_on_c, 1, 77, 127
2, 90320, Note_off_c, 1, 78, 0
2, 90320, Note_on_c, 1, 86, 127
2, 90360, Note_off_c, 1, 58, 0
2, 90360, Note_on_c, 1, 59, 127
2, 90360, Note_on_c, 1, 62, 127
2, 90360, Note_on_c, 1, 71, 127
2, 90360, Note_off_c, 1, 74, 0
2, 90360, Note_off_c, 1, 77, 0
2, 90360, Note_on_c, 1, 79, 127
2, 90360, Note_on_c, 1, 91, 127
2, 90400, Note_on_c, 1, 55, 127
2, 90400, Note_on_c, 1, 58, 127
2, 90400, Note_off_c, 1, 59, 0
2, 90400, Note_on_c, 1, 60, 127
2, 90400, Note_off_c, 1, 62, 0
2, 90400, Note_on_c, 1, 64, 127
2, 90400, Note_off_c, 1, 71, 0
2, 90400, Note_off_c, 1, 79, 0
2, 90400, Note_on_c, 1, 82, 127
2, 90400, Note_off_c, 1, 86, 0
2, 90400, Note_off_c, 1, 91, 0
2, 90440, Note_off_c, 1, 55, 0
2, 90440, Note_off_c, 1, 58, 0
2, 90440, Note_off_c, 1, 60, 0
2, 90440, Note_on_c, 1, 63, 127
2, 90440, Note_off_c, 1, 64, 0
2, 90440, Note_on_c, 1, 67, 127
2, 90440, Note_on_c, 1, 72, 127
2, 90480, Note_on_c, 1, 41, 127
2, 90480, Note_on_c, 1, 50, 127
2, 90480, Note_on_c, 1, 56, 127
2, 90480, Note_on_c, 1, 61, 127
2, 90480, Note_off_c, 1, 63, 0
2, 90480, Note_off_c, 1, 67, 0
2, 90480, Note_off_c, 1, 72, 0
2, 90480, Note_off_c, 1, 82, 0
2, 90520, Note_off_c, 1, 41, 0
2, 90520, Note_off_c, 1, 50, 0
2, 90520, Note_off_c, 1, 56, 0
2, 90520, Note_on_c, 1, 57, 127
2, 90520, Note_off_c, 1, 61, 0
2, 90520, Note_on_c, 1, 62, 127
2, 90520, Note_on_c, 1, 66, 127
2, 90520, Note_on_c, 1, 78, 127
2, 90520, Note_on_c, 1, 81, 127
2, 90560, Note_off_c, 1, 57, 0
2, 90560, Note_off_c, 1, 62, 0
2, 90560, Note_off_c, 1, 66, 0
2, 90560, Note_off_c, 1, 78, 0
2, 90560, Note_off_c, 1, 81, 0
2, 90600, Note_on_c, 1, 46, 127
2, 90600, Note_on_c, 1, 48, 127
2, 90600, Note_on_c, 1, 64, 127
2, 90600, Note_on_c, 1, 67, 127
2, 90600, Note_on_c, 1, 72, 127
2, 90760, Note_off_c, 1, 46, 0
2, 90760, Note_off_c, 1, 48, 0
2, 90760, Note_off_c, 1, 64, 0
2, 90760, Note_off_c, 1, 67, 0
2, 90760, Note_off_c, 1, 72, 0
2, 90800, Note_on_c, 1, 46, 127
2, 90800, Note_on_c, 1, 48, 127
2, 90800, Note_on_c, 1, 64, 127
2, 90800, Note_on_c, 1, 67, 127
2, 90800, Note_on_c, 1, 72, 127
2, 90960, Note_off_c, 1, 46, 0
2, 90960, Note_off_c, 1, 48, 0
2, 90960, Note_off_c, 1, 64, 0
2, 90960, Note_off_c, 1, 67, 0
2, 90960, Note_off_c, 1, 72, 0
2, 91000, Note_on_c, 1, 51, 127
2, 91000, Note_on_c, 1, 82, 127
2, 91000, Note_on_c, 1, 85, 127
2, 91000, Note_on_c, 1, 91, 127
2, 91040, Note_on_c, 1, 46, 127
2, 91040, Note_on_c, 1, 50, 127
2, 91040, Note_off_c, 1, 51, 0
2, 91040, Note_on_c, 1, 58, 127
2, 91040, Note_on_c, 1, 64, 127
2, 91040, Note_on_c, 1, 67, 127
2, 91040, Note_on_c, 1, 74, 127
2, 91040, Note_off_c, 1, 82, 0
2, 91040, Note_off_c, 1, 85, 0
2, 91040, Note_off_c, 1, 91, 0
2, 91080, Note_off_c, 1, 46, 0
2, 91080, Note_off_c, 1, 50, 0
2, 91080, Note_off_c, 1, 58, 0
2, 91080, Note_on_c, 1, 60, 127
2, 91080, Note_off_c, 1, 64, 0
2, 91080, Note_on_c, 1, 65, 127
2, 91080, Note_off_c, 1, 74, 0
2, 91080, Note_on_c, 1, 79, 127
2, 91120, Note_on_c, 1, 40, 127
2, 91120, Note_on_c, 1, 43, 127
2, 91120, Note_on_c, 1, 47, 127
2, 91120, Note_off_c, 1, 60, 0
2, 91120, Note_off_c, 1, 65, 0
2, 91120, Note_off_c, 1, 79, 0
2, 91160, Note_on_c, 1, 39, 127
2, 91160, Note_off_c, 1, 40, 0
2, 91160, Note_off_c, 1, 43, 0
2, 91160, Note_off_c, 1, 47, 0
2, 91160, Note_on_c, 1, 54, 127
2, 91160, Note_on_c, 1, 60, 127
2, 91160, Note_on_c, 1, 63, 127
2, 91160, Note_on_c, 1, 66, 127
2, 91160, Note_off_c, 1, 67, 0
2, 91200, Note_off_c, 1, 39, 0
2, 91200, Note_on_c, 1, 48, 127
2, 91200, Note_off_c, 1, 54, 0
2, 91200, Note_off_c, 1, 63, 0
2, 91200, Note_off_c, 1, 66, 0
2, 91200, Note_on_c, 1, 70, 127
2, 91200, Note_on_c, 1, 72, 127
2, 91240, Note_on_c, 1, 39, 127
2, 91240, Note_off_c, 1, 48, 0
2, 91240, Note_on_c, 1, 54, 127
2, 91240, Note_on_c, 1, 63, 127
2, 91240, Note_on_c, 1, 66, 127
2, 91240, Note_off_c, 1, 70, 0
2, 91240, Note_off_c, 1, 72, 0
2, 91280, Note_off_c, 1, 39, 0
2, 91280, Note_off_c, 1, 54, 0
2, 91280, Note_off_c, 1, 60, 0
2, 91280, Note_off_c, 1, 63, 0
2, 91280, Note_off_c, 1, 66, 0
2, 91320, Note_on_c, 1, 48, 127
2, 91320, Note_on_c, 1, 55, 127
2, 91320, Note_on_c, 1, 60, 127
2, 91320, Note_on_c, 1, 77, 127
2, 91320, Note_on_c, 1, 89, 127
2, 91360, Note_off_c, 1, 48, 0
2, 91360, Note_on_c, 1, 51, 127
2, 91360, Note_off_c, 1, 55, 0
2, 91360, Note_on_c, 1, 58, 127
2, 91360, Note_on_c, 1, 63, 127
2, 91360, Note_on_c, 1, 67, 127
2, 91360, Note_off_c, 1, 77, 0
2, 91360, Note_on_c, 1, 82, 127
2, 91360, Note_off_c, 1, 89, 0
2, 91400, Note_on_c, 1, 56, 127
2, 91400, Note_off_c, 1, 60, 0
2, 91400, Note_off_c, 1, 63, 0
2, 91400, Note_off_c, 1, 67, 0
2, 91400, Note_on_c, 1, 78, 127
2, 91400, Note_off_c, 1, 82, 0
2, 91440, Note_on_c, 1, 44, 127
2, 91440, Note_off_c, 1, 51, 0
2, 91440, Note_off_c, 1, 58, 0
2, 91440, Note_on_c, 1, 76, 127
2, 91440, Note_off_c, 1, 78, 0
2, 91440, Note_on_c, 1, 88, 127
2, 91440, Note_on_c, 1, 100, 127
2, 91480, Note_off_c, 1, 44, 0
2, 91480, Note_off_c, 1, 56, 0
2, 91480, Note_off_c, 1, 76, 0
2, 91480, Note_off_c, 1, 88, 0
2, 91480, Note_off_c, 1, 100, 0
2, 91680, Note_on_c, 1, 29, 127
2, 91680, Note_on_c, 1, 41, 127
2, 91680, Note_on_c, 1, 45, 127
2, 91680, Note_on_c, 1, 48, 127
2, 91680, Note_on_c, 1, 53, 127
2, 91680, Note_on_c, 1, 57, 127
2, 91680, Note_on_c, 1, 72, 127
2, 91680, Note_on_c, 1, 84, 127
2, 91960, Note_off_c, 1, 29, 0
2, 91960, Note_off_c, 1, 41, 0
2, 91960, Note_off_c, 1, 45, 0
2, 91960, Note_off_c, 1, 48, 0
2, 91960, Note_off_c, 1, 53, 0
2, 91960, Note_off_c, 1, 57, 0
2, 91960, Note_off_c, 1, 72, 0
2, 91960, Note_off_c, 1, 84, 0
2, 92200, Note_on_c, 1, 45, 127
2, 92200, Note_on_c, 1, 52, 127
2, 92200, Note_on_c, 1, 83, 127
2, 92200, Note_on_c, 1, 91, 127
2, 92200, Note_on_c, 1, 95, 127
2, 92240, Note_on_c, 1, 44, 127
2, 92240, Note_off_c, 1, 45, 0
2, 92240, Note_on_c, 1, 47, 127
2, 92240, Note_on_c, 1, 49, 127
2, 92240, Note_off_c, 1, 52, 0
2, 92240, Note_on_c, 1, 53, 127
2, 92240, Note_on_c, 1, 59, 127
2, 92240, Note_off_c, 1, 83, 0
2, 92240, Note_off_c, 1, 91, 0
2, 92240, Note_off_c, 1, 95, 0
2, 92280, Note_off_c, 1, 44, 0
2, 92280, Note_off_c, 1, 47, 0
2, 92280, Note_off_c, 1, 49, 0
2, 92280, Note_off_c, 1, 53, 0
2, 92280, Note_off_c, 1, 59, 0
2, 92280, Note_on_c, 1, 70, 127
2, 92280, Note_on_c, 1, 73, 127
2, 92280, Note_on_c, 1, 87, 127
2, 92280, Note_on_c, 1, 94, 127
2, 92320, Note_off_c, 1, 70, 0
2, 92320, Note_off_c, 1, 73, 0
2, 92320, Note_off_c, 1, 87, 0
2, 92320, Note_off_c, 1, 94, 0
2, 92360, Note_on_c, 1, 69, 127
2, 92360, Note_on_c, 1, 75, 127
2, 92360, Note_on_c, 1, 78, 127
2, 92360, Note_on_c, 1, 87, 127
2, 92360, Note_on_c, 1, 90, 127
2, 92400, Note_on_c, 1, 45, 127
2, 92400, Note_on_c, 1, 62, 127
2, 92400, Note_on_c, 1, 66, 127
2, 92400, Note_off_c, 1, 69, 0
2, 92400, Note_on_c, 1, 74, 127
2, 92400, Note_off_c, 1, 75, 0
2, 92400, Note_off_c, 1, 78, 0
2, 92400, Note_off_c, 1, 87, 0
2, 92400, Note_off_c, 1, 90, 0
2, 92440, Note_off_c, 1, 45, 0
2, 92440, Note_off_c, 1, 62, 0
2, 92440, Note_off_c, 1, 66, 0
2, 92440, Note_on_c, 1, 69, 127
2, 92440, Note_off_c, 1, 74, 0
2, 92440, Note_on_c, 1, 75, 127
2, 92440, Note_on_c, 1, 78, 127
2, 92440, Note_on_c, 1, 87, 127
2, 92440, Note_on_c, 1, 90, 127
2, 92480, Note_off_c, 1, 87, 0
2, 92480, Note_off_c, 1, 90, 0
2, 92520, Note_on_c, 1, 48, 127
2, 92520, Note_on_c, 1, 52, 127
2, 92520, Note_on_c, 1, 60, 127
2, 92520, Note_on_c, 1, 63, 127
2, 92520, Note_off_c, 1, 78, 0
2, 92840, Note_off_c, 1, 48, 0
2, 92840, Note_off_c, 1, 52, 0
2, 92840, Note_off_c, 1, 60, 0
2, 92840, Note_off_c, 1, 63, 0
2, 92840, Note_off_c, 1, 69, 0
2, 92840, Note_off_c, 1, 75, 0
2, 92920, Note_on_c, 1, 48, 127
2, 92920, Note_on_c, 1, 52, 127
2, 92920, Note_on_c, 1, 60, 127
2, 92920, Note_on_c, 1, 63, 127
2, 92920, Note_on_c, 1, 69, 127
2, 92920, Note_on_c, 1, 75, 127
2, 93200, Note_off_c, 1, 48, 0
2, 93200, Note_off_c, 1, 52, 0
2, 93200, Note_off_c, 1, 60, 0
2, 93200, Note_off_c, 1, 63, 0
2, 93200, Note_off_c, 1, 69, 0
2, 93200, Note_off_c, 1, 75, 0
2, 93240, Note_on_c, 1, 48, 127
2, 93240, Note_on_c, 1, 52, 127
2, 93240, Note_on_c, 1, 60, 127
2, 93240, Note_on_c, 1, 63, 127
2, 93240, Note_on_c, 1, 69, 127
2, 93240, Note_on_c, 1, 75, 127
2, 93880, Note_off_c, 1, 48, 0
2, 93880, Note_off_c, 1, 52, 0
2, 93880, Note_off_c, 1, 60, 0
2, 93880, Note_off_c, 1, 63, 0
2, 93880, Note_off_c, 1, 69, 0
2, 93880, Note_off_c, 1, 75, 0
2, 93920, Note_on_c, 1, 32, 127
2, 93920, Note_on_c, 1, 44, 127
2, 93920, Note_on_c, 1, 65, 127
2, 93920, Note_on_c, 1, 71, 127
2, 94280, Note_off_c, 1, 32, 0
2, 94280, Note_off_c, 1, 44, 0
2, 94280, Note_on_c, 1, 63, 127
2, 94280, Note_off_c, 1, 65, 0
2, 94280, Note_on_c, 1, 69, 127
2, 94280, Note_off_c, 1, 71, 0
2, 94280, Note_on_c, 1, 73, 127
2, 94280, Note_on_c, 1, 76, 127
2, 94280, Note_on_c, 1, 80, 127
2, 94560, Note_off_c, 1, 63, 0
2, 94560, Note_off_c, 1, 69, 0
2, 94560, Note_off_c, 1, 73, 0
2, 94560, Note_off_c, 1, 76, 0
2, 94560, Note_off_c, 1, 80, 0
2, 94600, Note_on_c, 1, 47, 127
2, 94600, Note_on_c, 1, 54, 127
2, 94600, Note_on_c, 1, 59, 127
2, 94600, Note_on_c, 1, 62, 127
2, 94600, Note_on_c, 1, 66, 127
2, 94600, Note_on_c, 1, 78, 127
2, 94960, Note_off_c, 1, 47, 0
2, 94960, Note_off_c, 1, 54, 0
2, 94960, Note_off_c, 1, 59, 0
2, 94960, Note_off_c, 1, 62, 0
2, 94960, Note_off_c, 1, 66, 0
2, 94960, Note_off_c, 1, 78, 0
2, 95000, Note_on_c, 1, 47, 127
2, 95000, Note_on_c, 1, 54, 127
2, 95000, Note_on_c, 1, 59, 127
2, 95000, Note_on_c, 1, 62, 127
2, 95000, Note_on_c, 1, 66, 127
2, 95000, Note_on_c, 1, 78, 127
2, 95280, Note_off_c, 1, 47, 0
2, 95280, Note_off_c, 1, 54, 0
2, 95280, Note_off_c, 1, 59, 0
2, 95280, Note_off_c, 1, 62, 0
2, 95280, Note_off_c, 1, 66, 0
2, 95280, Note_off_c, 1, 78, 0
2, 95320, Note_on_c, 1, 35, 127
2, 95320, Note_on_c, 1, 47, 127
2, 95320, Note_on_c, 1, 54, 127
2, 95320, Note_on_c, 1, 57, 127
2, 95320, Note_on_c, 1, 63, 127
2, 95960, Note_off_c, 1, 35, 0
2, 95960, Note_off_c, 1, 47, 0
2, 95960, Note_off_c, 1, 54, 0
2, 95960, Note_off_c, 1, 57, 0
2, 95960, Note_off_c, 1, 63, 0
2, 96000, Note_on_c, 1, 33, 127
2, 96000, Note_on_c, 1, 49, 127
2, 96000, Note_on_c, 1, 52, 127
2, 96000, Note_on_c, 1, 57, 127
2, 96320, Note_off_c, 1, 33, 0
2, 96320, Note_off_c, 1, 49, 0
2, 96320, Note_off_c, 1, 52, 0
2, 96320, Note_off_c, 1, 57, 0
2, 96360, Note_on_c, 1, 40, 127
2, 96640, Note_off_c, 1, 40, 0
2, 96680, Note_on_c, 1, 40, 127
2, 96680, Note_on_c, 1, 47, 127
2, 96960, Note_off_c, 1, 40, 0
2, 96960, Note_off_c, 1, 47, 0
2, 97000, Note_on_c, 1, 50, 127
2, 97160, Note_off_c, 1, 50, 0
2, 97200, Note_on_c, 1, 50, 127
2, 97360, Note_off_c, 1, 50, 0
2, 97400, Note_on_c, 1, 54, 127
2, 97400, Note_on_c, 1, 60, 127
2, 97400, Note_on_c, 1, 69, 127
2, 97720, Note_off_c, 1, 54, 0
2, 97720, Note_off_c, 1, 60, 0
2, 97720, Note_off_c, 1, 69, 0
2, 97760, Note_on_c, 1, 50, 127
2, 97760, Note_on_c, 1, 69, 127
2, 97760, Note_on_c, 1, 71, 127
2, 97880, Note_on_c, 1, 48, 127
2, 97880, Note_off_c, 1, 50, 0
2, 97880, Note_off_c, 1, 69, 0
2, 97920, Note_off_c, 1, 48, 0
2, 97920, Note_on_c, 1, 50, 127
2, 97920, Note_on_c, 1, 69, 127
2, 98040, Note_off_c, 1, 50, 0
2, 98040, Note_off_c, 1, 69, 0
2, 98040, Note_off_c, 1, 71, 0
2, 98080, Note_on_c, 1, 54, 127
2, 98080, Note_on_c, 1, 62, 127
2, 98080, Note_on_c, 1, 71, 127
2, 98720, Note_off_c, 1, 62, 0
2, 98720, Note_off_c, 1, 71, 0
2, 98760, Note_on_c, 1, 62, 127
2, 98760, Note_on_c, 1, 71, 127
2, 99080, Note_off_c, 1, 71, 0
2, 99120, Note_off_c, 1, 54, 0
2, 99120, Note_on_c, 1, 56, 127
2, 99120, Note_off_c, 1, 62, 0
2, 99120, Note_on_c, 1, 75, 127
2, 99120, Note_on_c, 1, 83, 127
2, 99440, Note_off_c, 1, 56, 0
2, 99440, Note_off_c, 1, 75, 0
2, 99440, Note_off_c, 1, 83, 0
2, 99520, Note_on_c, 1, 58, 127
2, 99520, Note_on_c, 1, 66, 127
2, 99520, Note_on_c, 1, 72, 127
2, 99520, Note_on_c, 1, 84, 127
2, 99800, Note_off_c, 1, 58, 0
2, 99800, Note_off_c, 1, 66, 0
2, 99800, Note_off_c, 1, 72, 0
2, 99800, Note_off_c, 1, 84, 0
2, 99840, Note_on_c, 1, 60, 127
2, 99840, Note_on_c, 1, 65, 127
2, 99840, Note_on_c, 1, 68, 127
2, 99840, Note_on_c, 1, 72, 127
2, 99840, Note_on_c, 1, 80, 127
2, 100160, Note_off_c, 1, 60, 0
2, 100160, Note_off_c, 1, 65, 0
2, 100160, Note_off_c, 1, 68, 0
2, 100160, Note_off_c, 1, 72, 0
2, 100160, Note_off_c, 1, 80, 0
2, 100200, Note_on_c, 1, 53, 127
2, 100200, Note_on_c, 1, 60, 127
2, 100200, Note_on_c, 1, 68, 127
2, 100200, Note_on_c, 1, 74, 127
2, 100480, Note_off_c, 1, 53, 0
2, 100480, Note_off_c, 1, 68, 0
2, 100480, Note_off_c, 1, 74, 0
2, 100480, Note_on_c, 1, 76, 127
2, 100520, Note_on_c, 1, 48, 127
2, 100520, Note_off_c, 1, 60, 0
2, 100520, Note_on_c, 1, 67, 127
2, 100520, Note_on_c, 1, 72, 127
2, 100840, Note_off_c, 1, 48, 0
2, 100840, Note_off_c, 1, 67, 0
2, 100840, Note_off_c, 1, 72, 0
2, 100840, Note_off_c, 1, 76, 0
2, 100880, Note_on_c, 1, 28, 127
2, 100880, Note_on_c, 1, 33, 127
2, 100880, Note_on_c, 1, 35, 127
2, 100880, Note_on_c, 1, 53, 127
2, 100880, Note_on_c, 1, 59, 127
2, 100920, Note_off_c, 1, 28, 0
2, 100920, Note_on_c, 1, 32, 127
2, 100920, Note_off_c, 1, 33, 0
2, 100920, Note_off_c, 1, 35, 0
2, 100920, Note_on_c, 1, 39, 127
2, 100920, Note_on_c, 1, 44, 127
2, 100920, Note_off_c, 1, 53, 0
2, 100920, Note_off_c, 1, 59, 0
2, 100920, Note_on_c, 1, 63, 127
2, 101520, Note_off_c, 1, 32, 0
2, 101520, Note_off_c, 1, 39, 0
2, 101520, Note_off_c, 1, 44, 0
2, 101520, Note_off_c, 1, 63, 0
2, 101560, Note_on_c, 1, 47, 127
2, 101560, Note_on_c, 1, 84, 127
2, 101560, Note_on_c, 1, 87, 127
2, 101600, Note_off_c, 1, 47, 0
2, 101600, Note_on_c, 1, 58, 127
2, 101600, Note_on_c, 1, 60, 127
2, 101600, Note_on_c, 1, 65, 127
2, 101600, Note_on_c, 1, 72, 127
2, 101600, Note_on_c, 1, 75, 127
2, 101600, Note_off_c, 1, 84, 0
2, 101600, Note_off_c, 1, 87, 0
2, 101640, Note_off_c, 1, 58, 0
2, 101640, Note_off_c, 1, 60, 0
2, 101640, Note_off_c, 1, 65, 0
2, 101640, Note_off_c, 1, 72, 0
2, 101640, Note_off_c, 1, 75, 0
2, 101680, Note_on_c, 1, 54, 127
2, 101680, Note_on_c, 1, 58, 127
2, 101680, Note_on_c, 1, 64, 127
2, 101680, Note_on_c, 1, 67, 127
2, 101680, Note_on_c, 1, 73, 127
2, 101680, Note_on_c, 1, 79, 127
2, 101720, Note_off_c, 1, 54, 0
2, 101720, Note_on_c, 1, 55, 127
2, 101720, Note_off_c, 1, 58, 0
2, 101720, Note_on_c, 1, 60, 127
2, 101720, Note_off_c, 1, 64, 0
2, 101720, Note_off_c, 1, 67, 0
2, 101720, Note_on_c, 1, 70, 127
2, 101720, Note_off_c, 1, 73, 0
2, 101720, Note_on_c, 1, 74, 127
2, 101720, Note_off_c, 1, 79, 0
2, 101720, Note_on_c, 1, 82, 127
2, 101760, Note_off_c, 1, 55, 0
2, 101760, Note_off_c, 1, 60, 0
2, 101760, Note_on_c, 1, 66, 127
2, 101760, Note_off_c, 1, 70, 0
2, 101760, Note_off_c, 1, 82, 0
2, 101760, Note_on_c, 1, 83, 127
2, 101760, Note_on_c, 1, 86, 127
2, 101800, Note_on_c, 1, 48, 127
2, 101800, Note_on_c, 1, 54, 127
2, 101800, Note_off_c, 1, 66, 0
2, 101800, Note_on_c, 1, 70, 127
2, 101800, Note_off_c, 1, 74, 0
2, 101800, Note_on_c, 1, 76, 127
2, 101800, Note_off_c, 1, 83, 0
2, 101800, Note_off_c, 1, 86, 0
2, 101840, Note_on_c, 1, 34, 127
2, 101840, Note_on_c, 1, 43, 127
2, 101840, Note_off_c, 1, 48, 0
2, 101840, Note_on_c, 1, 50, 127
2, 101840, Note_off_c, 1, 54, 0
2, 101840, Note_on_c, 1, 62, 127
2, 101840, Note_off_c, 1, 70, 0
2, 101840, Note_off_c, 1, 76, 0
2, 101880, Note_off_c, 1, 34, 0
2, 101880, Note_on_c, 1, 38, 127
2, 101880, Note_off_c, 1, 43, 0
2, 101880, Note_off_c, 1, 50, 0
2, 101880, Note_off_c, 1, 62, 0
2, 101880, Note_on_c, 1, 75, 127
2, 101880, Note_on_c, 1, 78, 127
2, 101880, Note_on_c, 1, 82, 127
2, 101880, Note_on_c, 1, 87, 127
2, 101920, Note_off_c, 1, 38, 0
2, 101920, Note_on_c, 1, 46, 127
2, 101920, Note_on_c, 1, 53, 127
2, 101920, Note_on_c, 1, 56, 127
2, 101920, Note_off_c, 1, 75, 0
2, 101920, Note_off_c, 1, 78, 0
2, 101920, Note_on_c, 1, 80, 127
2, 101920, Note_off_c, 1, 82, 0
2, 101920, Note_off_c, 1, 87, 0
2, 101960, Note_off_c, 1, 46, 0
2, 101960, Note_on_c, 1, 51, 127
2, 101960, Note_off_c, 1, 53, 0
2, 101960, Note_off_c, 1, 56, 0
2, 101960, Note_on_c, 1, 62, 127
2, 101960, Note_on_c, 1, 65, 127
2, 101960, Note_on_c, 1, 68, 127
2, 101960, Note_off_c, 1, 80, 0
2, 102240, Note_off_c, 1, 51, 0
2, 102240, Note_off_c, 1, 62, 0
2, 102240, Note_off_c, 1, 65, 0
2, 102240, Note_off_c, 1, 68, 0
2, 102280, Note_on_c, 1, 47, 127
2, 102280, Note_on_c, 1, 50, 127
2, 102280, Note_on_c, 1, 83, 127
2, 102600, Note_off_c, 1, 47, 0
2, 102600, Note_off_c, 1, 50, 0
2, 102600, Note_on_c, 1, 71, 127
2, 102640, Note_on_c, 1, 50, 127
2, 102640, Note_on_c, 1, 52, 127
2, 102640, Note_on_c, 1, 61, 127
2, 102640, Note_off_c, 1, 71, 0
2, 102640, Note_off_c, 1, 83, 0
2, 102920, Note_off_c, 1, 52, 0
2, 102920, Note_off_c, 1, 61, 0
2, 102960, Note_on_c, 1, 48, 127
2, 102960, Note_on_c, 1, 65, 127
2, 102960, Note_on_c, 1, 71, 127
2, 103640, Note_off_c, 1, 48, 0
2, 103640, Note_off_c, 1, 50, 0
2, 103640, Note_off_c, 1, 65, 0
2, 103640, Note_off_c, 1, 71, 0
2, 103680, Note_on_c, 1, 49, 127
2, 103680, Note_on_c, 1, 56, 127
2, 103680, Note_on_c, 1, 76, 127
2, 103840, Note_off_c, 1, 49, 0
2, 103840, Note_off_c, 1, 56, 0
2, 103840, Note_off_c, 1, 76, 0
2, 103880, Note_on_c, 1, 49, 127
2, 103880, Note_on_c, 1, 56, 127
2, 103880, Note_on_c, 1, 76, 127
2, 104000, Note_off_c, 1, 49, 0
2, 104000, Note_off_c, 1, 56, 0
2, 104000, Note_off_c, 1, 76, 0
2, 104040, Note_on_c, 1, 55, 127
2, 104040, Note_on_c, 1, 58, 127
2, 104040, Note_on_c, 1, 65, 127
2, 104040, Note_on_c, 1, 67, 127
2, 104040, Note_on_c, 1, 70, 127
2, 104040, Note_on_c, 1, 77, 127
2, 104320, Note_off_c, 1, 55, 0
2, 104320, Note_off_c, 1, 58, 0
2, 104320, Note_off_c, 1, 65, 0
2, 104320, Note_off_c, 1, 67, 0
2, 104320, Note_off_c, 1, 70, 0
2, 104320, Note_off_c, 1, 77, 0
2, 104400, Note_on_c, 1, 53, 127
2, 104400, Note_on_c, 1, 56, 127
2, 104400, Note_on_c, 1, 58, 127
2, 104400, Note_on_c, 1, 62, 127
2, 104400, Note_on_c, 1, 70, 127
2, 104400, Note_on_c, 1, 82, 127
2, 104440, Note_off_c, 1, 62, 0
2, 104440, Note_on_c, 1, 65, 127
2, 104440, Note_off_c, 1, 70, 0
2, 104440, Note_off_c, 1, 82, 0
2, 104480, Note_on_c, 1, 48, 127
2, 104480, Note_off_c, 1, 53, 0
2, 104480, Note_off_c, 1, 56, 0
2, 104480, Note_off_c, 1, 58, 0
2, 104480, Note_off_c, 1, 65, 0
2, 104480, Note_on_c, 1, 72, 127
2, 104480, Note_on_c, 1, 73, 127
2, 104520, Note_off_c, 1, 48, 0
2, 104520, Note_on_c, 1, 58, 127
2, 104520, Note_on_c, 1, 62, 127
2, 104520, Note_off_c, 1, 72, 0
2, 104520, Note_on_c, 1, 85, 127
2, 104560, Note_off_c, 1, 58, 0
2, 104560, Note_on_c, 1, 59, 127
2, 104560, Note_off_c, 1, 62, 0
2, 104560, Note_on_c, 1, 71, 127
2, 104560, Note_off_c, 1, 73, 0
2, 104560, Note_on_c, 1, 74, 127
2, 104560, Note_on_c, 1, 80, 127
2, 104560, Note_off_c, 1, 85, 0
2, 104600, Note_off_c, 1, 59, 0
2, 104600, Note_on_c, 1, 69, 127
2, 104600, Note_off_c, 1, 71, 0
2, 104600, Note_on_c, 1, 72, 127
2, 104600, Note_off_c, 1, 74, 0
2, 104600, Note_on_c, 1, 75, 127
2, 104600, Note_on_c, 1, 77, 127
2, 104600, Note_off_c, 1, 80, 0
2, 104600, Note_on_c, 1, 84, 127
2, 104640, Note_on_c, 1, 42, 127
2, 104640, Note_on_c, 1, 50, 127
2, 104640, Note_on_c, 1, 54, 127
2, 104640, Note_off_c, 1, 69, 0
2, 104640, Note_off_c, 1, 72, 0
2, 104640, Note_on_c, 1, 74, 127
2, 104640, Note_off_c, 1, 75, 0
2, 104640, Note_off_c, 1, 77, 0
2, 104640, Note_on_c, 1, 83, 127
2, 104640, Note_off_c, 1, 84, 0
2, 104640, Note_on_c, 1, 86, 127
2, 104680, Note_off_c, 1, 42, 0
2, 104680, Note_off_c, 1, 50, 0
2, 104680, Note_off_c, 1, 54, 0
2, 104680, Note_off_c, 1, 74, 0
2, 104680, Note_off_c, 1, 83, 0
2, 104680, Note_off_c, 1, 86, 0
2, 104720, Note_on_c, 1, 46, 127
2, 104720, Note_on_c, 1, 51, 127
2, 104720, Note_on_c, 1, 66, 127
2, 104720, Note_on_c, 1, 70, 127
2, 105040, Note_off_c, 1, 51, 0
2, 105040, Note_off_c, 1, 66, 0
2, 105080, Note_on_c, 1, 50, 127
2, 105080, Note_on_c, 1, 65, 127
2, 105360, Note_off_c, 1, 50, 0
2, 105360, Note_off_c, 1, 65, 0
2, 105400, Note_on_c, 1, 53, 127
2, 105400, Note_on_c, 1, 68, 127
2, 105720, Note_off_c, 1, 53, 0
2, 105720, Note_off_c, 1, 68, 0
2, 105760, Note_on_c, 1, 51, 127
2, 105760, Note_on_c, 1, 66, 127
2, 105880, Note_off_c, 1, 51, 0
2, 105880, Note_off_c, 1, 66, 0
2, 105920, Note_on_c, 1, 51, 127
2, 105920, Note_on_c, 1, 66, 127
2, 106080, Note_off_c, 1, 51, 0
2, 106080, Note_off_c, 1, 66, 0
2, 106120, Note_on_c, 1, 51, 127
2, 106120, Note_on_c, 1, 66, 127
2, 106240, Note_off_c, 1, 51, 0
2, 106240, Note_off_c, 1, 66, 0
2, 106280, Note_on_c, 1, 50, 127
2, 106280, Note_on_c, 1, 65, 127
2, 106400, Note_off_c, 1, 46, 0
2, 106400, Note_off_c, 1, 50, 0
2, 106400, Note_off_c, 1, 65, 0
2, 106400, Note_off_c, 1, 70, 0
2, 106440, Note_on_c, 1, 46, 127
2, 106440, Note_on_c, 1, 50, 127
2, 106440, Note_on_c, 1, 65, 127
2, 106440, Note_on_c, 1, 70, 127
2, 106800, Note_off_c, 1, 50, 0
2, 106800, Note_off_c, 1, 65, 0
2, 106840, Note_on_c, 1, 50, 127
2, 106840, Note_on_c, 1, 65, 127
2, 107520, Note_off_c, 1, 50, 0
2, 107520, Note_off_c, 1, 65, 0
2, 107560, Note_off_c, 1, 46, 0
2, 107560, Note_on_c, 1, 47, 127
2, 107560, Note_on_c, 1, 55, 127
2, 107560, Note_on_c, 1, 59, 127
2, 107560, Note_on_c, 1, 64, 127
2, 107560, Note_off_c, 1, 70, 0
2, 107560, Note_on_c, 1, 71, 127
2, 107560, Note_on_c, 1, 76, 127
2, 107840, Note_off_c, 1, 47, 0
2, 107840, Note_off_c, 1, 55, 0
2, 107840, Note_off_c, 1, 59, 0
2, 107840, Note_off_c, 1, 64, 0
2, 107840, Note_off_c, 1, 71, 0
2, 107840, Note_off_c, 1, 76, 0
2, 107880, Note_on_c, 1, 47, 127
2, 107880, Note_on_c, 1, 55, 127
2, 107880, Note_on_c, 1, 59, 127
2, 107880, Note_on_c, 1, 64, 127
2, 107880, Note_on_c, 1, 71, 127
2, 107880, Note_on_c, 1, 76, 127
2, 108200, Note_off_c, 1, 47, 0
2, 108200, Note_off_c, 1, 55, 0
2, 108200, Note_off_c, 1, 59, 0
2, 108200, Note_off_c, 1, 64, 0
2, 108200, Note_off_c, 1, 71, 0
2, 108200, Note_off_c, 1, 76, 0
2, 108240, Note_on_c, 1, 47, 127
2, 108240, Note_on_c, 1, 55, 127
2, 108240, Note_on_c, 1, 59, 127
2, 108240, Note_on_c, 1, 64, 127
2, 108240, Note_on_c, 1, 71, 127
2, 108240, Note_on_c, 1, 76, 127
2, 108520, Note_off_c, 1, 47, 0
2, 108520, Note_off_c, 1, 55, 0
2, 108520, Note_off_c, 1, 59, 0
2, 108520, Note_off_c, 1, 64, 0
2, 108520, Note_off_c, 1, 71, 0
2, 108520, Note_off_c, 1, 76, 0
2, 108640, Note_on_c, 1, 47, 127
2, 108640, Note_on_c, 1, 55, 127
2, 108640, Note_on_c, 1, 59, 127
2, 108640, Note_on_c, 1, 64, 127
2, 108640, Note_on_c, 1, 71, 127
2, 108640, Note_on_c, 1, 76, 127
2, 108920, Note_off_c, 1, 47, 0
2, 108920, Note_off_c, 1, 55, 0
2, 108920, Note_off_c, 1, 59, 0
2, 108920, Note_off_c, 1, 64, 0
2, 108920, Note_off_c, 1, 71, 0
2, 108920, Note_off_c, 1, 76, 0
2, 108960, Note_on_c, 1, 47, 127
2, 108960, Note_on_c, 1, 55, 127
2, 108960, Note_on_c, 1, 59, 127
2, 108960, Note_on_c, 1, 64, 127
2, 108960, Note_on_c, 1, 71, 127
2, 108960, Note_on_c, 1, 76, 127
2, 109280, Note_off_c, 1, 47, 0
2, 109280, Note_off_c, 1, 55, 0
2, 109280, Note_off_c, 1, 59, 0
2, 109280, Note_off_c, 1, 64, 0
2, 109280, Note_off_c, 1, 71, 0
2, 109280, Note_off_c, 1, 76, 0
2, 109320, Note_on_c, 1, 47, 127
2, 109320, Note_on_c, 1, 55, 127
2, 109320, Note_on_c, 1, 59, 127
2, 109320, Note_on_c, 1, 64, 127
2, 109320, Note_on_c, 1, 71, 127
2, 109320, Note_on_c, 1, 76, 127
2, 109600, Note_off_c, 1, 47, 0
2, 109600, Note_off_c, 1, 55, 0
2, 109600, Note_off_c, 1, 59, 0
2, 109600, Note_off_c, 1, 64, 0
2, 109600, Note_off_c, 1, 71, 0
2, 109600, Note_off_c, 1, 76, 0
2, 109640, Note_on_c, 1, 47, 127
2, 109640, Note_on_c, 1, 55, 127
2, 109640, Note_on_c, 1, 59, 127
2, 109640, Note_on_c, 1, 64, 127
2, 109640, Note_on_c, 1, 71, 127
2, 109640, Note_on_c, 1, 76, 127
2, 109800, Note_off_c, 1, 47, 0
2, 109800, Note_off_c, 1, 55, 0
2, 109800, Note_off_c, 1, 59, 0
2, 109800, Note_off_c, 1, 64, 0
2, 109800, Note_off_c, 1, 71, 0
2, 109800, Note_off_c, 1, 76, 0
2, 109840, Note_on_c, 1, 41, 127
2, 109840, Note_on_c, 1, 46, 127
2, 109960, Note_off_c, 1, 41, 0
2, 109960, Note_off_c, 1, 46, 0
2, 110000, Note_on_c, 1, 34, 127
2, 110000, Note_on_c, 1, 54, 127
2, 110000, Note_on_c, 1, 58, 127
2, 110000, Note_on_c, 1, 63, 127
2, 110000, Note_on_c, 1, 66, 127
2, 110000, Note_on_c, 1, 74, 127
2, 110280, Note_off_c, 1, 34, 0
2, 110280, Note_off_c, 1, 54, 0
2, 110280, Note_off_c, 1, 58, 0
2, 110280, Note_off_c, 1, 63, 0
2, 110280, Note_off_c, 1, 66, 0
2, 110280, Note_off_c, 1, 74, 0
2, 110360, Note_on_c, 1, 41, 127
2, 110360, Note_on_c, 1, 53, 127
2, 110360, Note_on_c, 1, 60, 127
2, 110360, Note_on_c, 1, 65, 127
2, 110360, Note_on_c, 1, 69, 127
2, 110640, Note_off_c, 1, 53, 0
2, 110640, Note_off_c, 1, 60, 0
2, 110640, Note_off_c, 1, 65, 0
2, 110640, Note_off_c, 1, 69, 0
2, 110680, Note_on_c, 1, 53, 127
2, 110680, Note_on_c, 1, 70, 127
2, 110680, Note_on_c, 1, 77, 127
2, 110840, Note_off_c, 1, 41, 0
2, 110840, Note_off_c, 1, 53, 0
2, 110840, Note_off_c, 1, 70, 0
2, 110840, Note_off_c, 1, 77, 0
2, 110880, Note_on_c, 1, 41, 127
2, 110880, Note_on_c, 1, 53, 127
2, 110880, Note_on_c, 1, 70, 127
2, 110880, Note_on_c, 1, 77, 127
2, 111040, Note_off_c, 1, 41, 0
2, 111040, Note_off_c, 1, 53, 0
2, 111040, Note_off_c, 1, 70, 0
2, 111040, Note_off_c, 1, 77, 0
2, 111080, Note_on_c, 1, 48, 127
2, 111080, Note_on_c, 1, 53, 127
2, 111080, Note_on_c, 1, 60, 127
2, 111080, Note_on_c, 1, 63, 127
2, 111080, Note_on_c, 1, 70, 127
2, 111080, Note_on_c, 1, 75, 127
2, 111400, Note_off_c, 1, 48, 0
2, 111400, Note_off_c, 1, 53, 0
2, 111400, Note_off_c, 1, 60, 0
2, 111400, Note_off_c, 1, 63, 0
2, 111400, Note_off_c, 1, 70, 0
2, 111400, Note_off_c, 1, 75, 0
2, 111440, Note_on_c, 1, 41, 127
2, 111440, Note_on_c, 1, 53, 127
2, 111440, Note_on_c, 1, 60, 127
2, 111440, Note_on_c, 1, 65, 127
2, 111440, Note_on_c, 1, 69, 127
2, 111720, Note_off_c, 1, 41, 0
2, 111720, Note_off_c, 1, 53, 0
2, 111720, Note_off_c, 1, 60, 0
2, 111720, Note_off_c, 1, 65, 0
2, 111720, Note_off_c, 1, 69, 0
2, 111760, Note_on_c, 1, 38, 127
2, 111760, Note_on_c, 1, 50, 127
2, 111760, Note_on_c, 1, 57, 127
2, 111760, Note_on_c, 1, 60, 127
2, 112040, Note_off_c, 1, 38, 0
2, 112040, Note_off_c, 1, 50, 0
2, 112040, Note_off_c, 1, 60, 0
2, 112080, Note_off_c, 1, 57, 0
2, 112120, Note_on_c, 1, 38, 127
2, 112120, Note_on_c, 1, 50, 127
2, 112120, Note_on_c, 1, 57, 127
2, 112120, Note_on_c, 1, 60, 127
2, 112440, Note_off_c, 1, 38, 0
2, 112440, Note_off_c, 1, 50, 0
2, 112440, Note_off_c, 1, 57, 0
2, 112440, Note_off_c, 1, 60, 0
2, 112480, Note_on_c, 1, 38, 127
2, 112480, Note_on_c, 1, 50, 127
2, 112480, Note_on_c, 1, 62, 127
2, 112480, Note_on_c, 1, 72, 127
2, 112760, Note_off_c, 1, 38, 0
2, 112760, Note_off_c, 1, 50, 0
2, 112760, Note_off_c, 1, 62, 0
2, 112760, Note_off_c, 1, 72, 0
2, 112800, Note_on_c, 1, 38, 127
2, 112800, Note_on_c, 1, 50, 127
2, 112800, Note_on_c, 1, 57, 127
2, 112800, Note_on_c, 1, 62, 127
2, 112800, Note_on_c, 1, 66, 127
2, 113040, Note_off_c, 1, 38, 0
2, 113040, Note_off_c, 1, 50, 0
2, 113040, Note_off_c, 1, 57, 0
2, 113040, Note_off_c, 1, 62, 0
2, 113040, Note_off_c, 1, 66, 0
2, 113080, Note_on_c, 1, 38, 127
2, 113080, Note_on_c, 1, 50, 127
2, 113080, Note_on_c, 1, 57, 127
2, 113080, Note_on_c, 1, 62, 127
2, 113080, Note_on_c, 1, 66, 127
2, 113480, Note_off_c, 1, 38, 0
2, 113480, Note_off_c, 1, 50, 0
2, 113480, Note_off_c, 1, 57, 0
2, 113480, Note_off_c, 1, 62, 0
2, 113480, Note_off_c, 1, 66, 0
2, 113520, Note_on_c, 1, 40, 127
2, 113520, Note_on_c, 1, 47, 127
2, 113520, Note_on_c, 1, 57, 127
2, 113520, Note_on_c, 1, 61, 127
2, 114160, Note_off_c, 1, 40, 0
2, 114160, Note_off_c, 1, 47, 0
2, 114160, Note_off_c, 1, 57, 0
2, 114160, Note_off_c, 1, 61, 0
2, 114200, Note_on_c, 1, 66, 127
2, 114200, Note_on_c, 1, 70, 127
2, 114200, Note_on_c, 1, 76, 127
2, 114200, Note_on_c, 1, 78, 127
2, 114200, Note_on_c, 1, 85, 127
2, 114880, Note_off_c, 1, 66, 0
2, 114880, Note_off_c, 1, 70, 0
2, 114880, Note_off_c, 1, 76, 0
2, 114880, Note_off_c, 1, 78, 0
2, 114880, Note_off_c, 1, 85, 0
2, 114920, Note_on_c, 1, 45, 127
2, 114920, Note_on_c, 1, 48, 127
2, 114920, Note_on_c, 1, 53, 127
2, 114920, Note_on_c, 1, 57, 127
2, 114920, Note_on_c, 1, 64, 127
2, 114920, Note_on_c, 1, 76, 127
2, 114960, Note_on_c, 1, 39, 127
2, 114960, Note_off_c, 1, 45, 0
2, 114960, Note_on_c, 1, 47, 127
2, 114960, Note_off_c, 1, 48, 0
2, 114960, Note_off_c, 1, 53, 0
2, 114960, Note_on_c, 1, 54, 127
2, 114960, Note_off_c, 1, 57, 0
2, 114960, Note_off_c, 1, 64, 0
2, 114960, Note_on_c, 1, 73, 127
2, 114960, Note_off_c, 1, 76, 0
2, 114960, Note_on_c, 1, 85, 127
2, 115040, Note_off_c, 1, 39, 0
2, 115040, Note_off_c, 1, 47, 0
2, 115040, Note_off_c, 1, 54, 0
2, 115040, Note_off_c, 1, 73, 0
2, 115040, Note_off_c, 1, 85, 0
2, 115080, Note_on_c, 1, 39, 127
2, 115080, Note_on_c, 1, 47, 127
2, 115080, Note_on_c, 1, 54, 127
2, 115080, Note_on_c, 1, 73, 127
2, 115080, Note_on_c, 1, 85, 127
2, 116640, Note_off_c, 1, 39, 0
2, 116640, Note_off_c, 1, 47, 0
2, 116640, Note_off_c, 1, 54, 0
2, 116640, Note_off_c, 1, 73, 0
2, 116640, Note_off_c, 1, 85, 0
2, 116680, Note_on_c, 1, 51, 127
2, 116680, Note_on_c, 1, 72, 127
2, 116680, Note_on_c, 1, 75, 127
2, 116680, Note_on_c, 1, 78, 127
2, 116680, Note_on_c, 1, 82, 127
2, 116960, Note_off_c, 1, 51, 0
2, 116960, Note_off_c, 1, 72, 0
2, 116960, Note_off_c, 1, 75, 0
2, 116960, Note_off_c, 1, 78, 0
2, 116960, Note_off_c, 1, 82, 0
2, 117000, Note_on_c, 1, 51, 127
2, 117000, Note_on_c, 1, 72, 127
2, 117000, Note_on_c, 1, 75, 127
2, 117000, Note_on_c, 1, 78, 127
2, 117000, Note_on_c, 1, 82, 127
2, 117040, Note_on_c, 1, 49, 127
2, 117040, Note_off_c, 1, 51, 0
2, 117040, Note_on_c, 1, 70, 127
2, 117040, Note_off_c, 1, 72, 0
2, 117040, Note_off_c, 1, 75, 0
2, 117080, Note_on_c, 1, 43, 127
2, 117080, Note_off_c, 1, 49, 0
2, 117080, Note_on_c, 1, 73, 127
2, 117080, Note_on_c, 1, 76, 127
2, 117080, Note_off_c, 1, 78, 0
2, 117120, Note_on_c, 1, 41, 127
2, 117120, Note_off_c, 1, 43, 0
2, 117120, Note_on_c, 1, 49, 127
2, 117120, Note_on_c, 1, 56, 127
2, 117120, Note_on_c, 1, 59, 127
2, 117120, Note_on_c, 1, 68, 127
2, 117120, Note_off_c, 1, 70, 0
2, 117120, Note_on_c, 1, 71, 127
2, 117120, Note_off_c, 1, 73, 0
2, 117120, Note_off_c, 1, 76, 0
2, 117120, Note_off_c, 1, 82, 0
2, 117160, Note_off_c, 1, 41, 0
2, 117160, Note_on_c, 1, 43, 127
2, 117160, Note_off_c, 1, 49, 0
2, 117160, Note_off_c, 1, 56, 0
2, 117160, Note_off_c, 1, 59, 0
2, 117160, Note_off_c, 1, 68, 0
2, 117160, Note_on_c, 1, 70, 127
2, 117160, Note_off_c, 1, 71, 0
2, 117160, Note_on_c, 1, 73, 127
2, 117160, Note_on_c, 1, 76, 127
2, 117160, Note_on_c, 1, 82, 127
2, 117200, Note_off_c, 1, 43, 0
2, 117200, Note_on_c, 1, 50, 127
2, 117200, Note_on_c, 1, 61, 127
2, 117200, Note_on_c, 1, 66, 127
2, 117200, Note_off_c, 1, 70, 0
2, 117200, Note_off_c, 1, 73, 0
2, 117200, Note_off_c, 1, 76, 0
2, 117200, Note_off_c, 1, 82, 0
2, 117240, Note_on_c, 1, 43, 127
2, 117240, Note_off_c, 1, 50, 0
2, 117240, Note_off_c, 1, 61, 0
2, 117240, Note_off_c, 1, 66, 0
2, 117240, Note_on_c, 1, 70, 127
2, 117240, Note_on_c, 1, 73, 127
2, 117240, Note_on_c, 1, 76, 127
2, 117240, Note_on_c, 1, 82, 127
2, 117360, Note_off_c, 1, 43, 0
2, 117360, Note_on_c, 1, 49, 127
2, 117360, Note_on_c, 1, 61, 127
2, 117360, Note_off_c, 1, 70, 0
2, 117360, Note_off_c, 1, 73, 0
2, 117360, Note_on_c, 1, 75, 127
2, 117360, Note_off_c, 1, 76, 0
2, 117400, Note_on_c, 1, 46, 127
2, 117400, Note_off_c, 1, 49, 0
2, 117400, Note_on_c, 1, 58, 127
2, 117400, Note_off_c, 1, 61, 0
2, 117400, Note_off_c, 1, 75, 0
2, 117400, Note_on_c, 1, 77, 127
2, 117400, Note_on_c, 1, 89, 127
2, 117560, Note_off_c, 1, 46, 0
2, 117560, Note_on_c, 1, 55, 127
2, 117560, Note_on_c, 1, 72, 127
2, 117560, Note_off_c, 1, 77, 0
2, 117560, Note_on_c, 1, 79, 127
2, 117560, Note_off_c, 1, 82, 0
2, 117560, Note_on_c, 1, 84, 127
2, 117560, Note_off_c, 1, 89, 0
2, 117600, Note_on_c, 1, 46, 127
2, 117600, Note_off_c, 1, 55, 0
2, 117600, Note_off_c, 1, 72, 0
2, 117600, Note_on_c, 1, 77, 127
2, 117600, Note_off_c, 1, 79, 0
2, 117600, Note_on_c, 1, 82, 127
2, 117600, Note_off_c, 1, 84, 0
2, 117600, Note_on_c, 1, 89, 127
2, 117720, Note_off_c, 1, 46, 0
2, 117720, Note_off_c, 1, 58, 0
2, 117720, Note_off_c, 1, 77, 0
2, 117720, Note_off_c, 1, 82, 0
2, 117720, Note_off_c, 1, 89, 0
2, 117760, Note_on_c, 1, 54, 127
2, 117760, Note_on_c, 1, 79, 127
2, 117760, Note_on_c, 1, 85, 127
2, 117760, Note_on_c, 1, 88, 127
2, 117760, Note_on_c, 1, 91, 127
2, 117800, Note_on_c, 1, 34, 127
2, 117800, Note_on_c, 1, 46, 127
2, 117800, Note_off_c, 1, 54, 0
2, 117800, Note_on_c, 1, 55, 127
2, 117800, Note_on_c, 1, 58, 127
2, 117800, Note_on_c, 1, 62, 127
2, 117800, Note_off_c, 1, 79, 0
2, 117800, Note_off_c, 1, 85, 0
2, 117800, Note_off_c, 1, 88, 0
2, 117800, Note_off_c, 1, 91, 0
2, 117840, Note_off_c, 1, 34, 0
2, 117840, Note_on_c, 1, 41, 127
2, 117840, Note_off_c, 1, 55, 0
2, 117840, Note_off_c, 1, 58, 0
2, 117840, Note_off_c, 1, 62, 0
2, 117840, Note_on_c, 1, 70, 127
2, 117840, Note_on_c, 1, 82, 127
2, 117920, Note_off_c, 1, 41, 0
2, 117920, Note_off_c, 1, 46, 0
2, 117920, Note_on_c, 1, 65, 127
2, 117920, Note_on_c, 1, 74, 127
2, 117920, Note_off_c, 1, 82, 0
2, 117920, Note_on_c, 1, 86, 127
2, 117960, Note_on_c, 1, 58, 127
2, 117960, Note_off_c, 1, 65, 0
2, 117960, Note_off_c, 1, 70, 0
2, 117960, Note_off_c, 1, 74, 0
2, 117960, Note_on_c, 1, 77, 127
2, 117960, Note_on_c, 1, 82, 127
2, 117960, Note_on_c, 1, 85, 127
2, 117960, Note_off_c, 1, 86, 0
2, 118000, Note_on_c, 1, 41, 127
2, 118000, Note_on_c, 1, 46, 127
2, 118000, Note_off_c, 1, 58, 0
2, 118000, Note_on_c, 1, 70, 127
2, 118000, Note_off_c, 1, 77, 0
2, 118000, Note_off_c, 1, 85, 0
2, 118040, Note_off_c, 1, 41, 0
2, 118040, Note_off_c, 1, 70, 0
2, 118040, Note_off_c, 1, 82, 0
2, 118080, Note_off_c, 1, 46, 0
2, 118080, Note_on_c, 1, 60, 127
2, 118080, Note_on_c, 1, 78, 127
2, 118080, Note_on_c, 1, 83, 127
2, 118120, Note_on_c, 1, 48, 127
2, 118120, Note_on_c, 1, 53, 127
2, 118120, Note_off_c, 1, 60, 0
2, 118120, Note_on_c, 1, 68, 127
2, 118120, Note_on_c, 1, 77, 127
2, 118120, Note_off_c, 1, 78, 0
2, 118120, Note_on_c, 1, 80, 127
2, 118120, Note_off_c, 1, 83, 0
2, 119080, Note_off_c, 1, 48, 0
2, 119080, Note_off_c, 1, 53, 0
2, 119080, Note_off_c, 1, 68, 0
2, 119080, Note_off_c, 1, 77, 0
2, 119080, Note_off_c, 1, 80, 0
2, 119160, Note_on_c, 1, 48, 127
2, 119160, Note_on_c, 1, 53, 127
2, 119160, Note_on_c, 1, 57, 127
2, 119160, Note_on_c, 1, 60, 127
2, 119160, Note_on_c, 1, 77, 127
2, 119160, Note_on_c, 1, 81, 127
2, 119160, Note_on_c, 1, 84, 127
2, 119200, Note_on_c, 1, 43, 127
2, 119200, Note_off_c, 1, 48, 0
2, 119200, Note_off_c, 1, 53, 0
2, 119200, Note_off_c, 1, 57, 0
2, 119200, Note_on_c, 1, 58, 127
2, 119200, Note_off_c, 1, 60, 0
2, 119200, Note_on_c, 1, 61, 127
2, 119200, Note_on_c, 1, 64, 127
2, 119200, Note_on_c, 1, 67, 127
2, 119200, Note_off_c, 1, 77, 0
2, 119200, Note_off_c, 1, 81, 0
2, 119200, Note_off_c, 1, 84, 0
2, 119240, Note_off_c, 1, 43, 0
2, 119240, Note_on_c, 1, 48, 127
2, 119240, Note_on_c, 1, 53, 127
2, 119240, Note_on_c, 1, 57, 127
2, 119240, Note_off_c, 1, 58, 0
2, 119240, Note_on_c, 1, 60, 127
2, 119240, Note_off_c, 1, 61, 0
2, 119240, Note_off_c, 1, 64, 0
2, 119240, Note_off_c, 1, 67, 0
2, 119240, Note_on_c, 1, 77, 127
2, 119240, Note_on_c, 1, 81, 127
2, 119240, Note_on_c, 1, 84, 127
2, 119280, Note_off_c, 1, 48, 0
2, 119280, Note_off_c, 1, 53, 0
2, 119280, Note_on_c, 1, 55, 127
2, 119280, Note_off_c, 1, 57, 0
2, 119280, Note_off_c, 1, 60, 0
2, 119280, Note_on_c, 1, 76, 127
2, 119280, Note_off_c, 1, 77, 0
2, 119280, Note_on_c, 1, 79, 127
2, 119280, Note_off_c, 1, 81, 0
2, 119320, Note_on_c, 1, 42, 127
2, 119320, Note_on_c, 1, 54, 127
2, 119320, Note_off_c, 1, 55, 0
2, 119320, Note_on_c, 1, 66, 127
2, 119320, Note_on_c, 1, 70, 127
2, 119320, Note_off_c, 1, 76, 0
2, 119320, Note_off_c, 1, 79, 0
2, 119320, Note_on_c, 1, 82, 127
2, 119320, Note_off_c, 1, 84, 0
2, 119320, Note_on_c, 1, 94, 127
2, 119360, Note_off_c, 1, 42, 0
2, 119360, Note_on_c, 1, 48, 127
2, 119360, Note_on_c, 1, 53, 127
2, 119360, Note_off_c, 1, 54, 0
2, 119360, Note_on_c, 1, 57, 127
2, 119360, Note_on_c, 1, 60, 127
2, 119360, Note_off_c, 1, 66, 0
2, 119360, Note_off_c, 1, 70, 0
2, 119360, Note_off_c, 1, 82, 0
2, 119360, Note_on_c, 1, 84, 127
2, 119360, Note_off_c, 1, 94, 0
2, 119440, Note_off_c, 1, 48, 0
2, 119440, Note_off_c, 1, 53, 0
2, 119440, Note_off_c, 1, 57, 0
2, 119440, Note_off_c, 1, 60, 0
2, 119440, Note_off_c, 1, 84, 0
2, 119480, Note_on_c, 1, 41, 127
2, 119480, Note_on_c, 1, 80, 127
2, 119480, Note_on_c, 1, 84, 127
2, 119480, Note_on_c, 1, 89, 127
2, 119480, Note_on_c, 1, 92, 127
2, 119520, Note_on_c, 1, 38, 127
2, 119520, Note_off_c, 1, 41, 0
2, 119520, Note_on_c, 1, 50, 127
2, 119520, Note_on_c, 1, 54, 127
2, 119520, Note_on_c, 1, 60, 127
2, 119520, Note_off_c, 1, 80, 0
2, 119520, Note_off_c, 1, 84, 0
2, 119520, Note_off_c, 1, 89, 0
2, 119520, Note_off_c, 1, 92, 0
2, 119560, Note_on_c, 1, 34, 127
2, 119560, Note_off_c, 1, 38, 0
2, 119560, Note_off_c, 1, 50, 0
2, 119560, Note_off_c, 1, 54, 0
2, 119560, Note_on_c, 1, 55, 127
2, 119560, Note_on_c, 1, 58, 127
2, 119560, Note_off_c, 1, 60, 0
2, 119560, Note_on_c, 1, 63, 127
2, 119560, Note_on_c, 1, 67, 127
2, 119560, Note_on_c, 1, 70, 127
2, 119560, Note_on_c, 1, 75, 127
2, 119560, Note_on_c, 1, 79, 127
2, 119600, Note_on_c, 1, 27, 127
2, 119600, Note_off_c, 1, 34, 0
2, 119600, Note_on_c, 1, 39, 127
2, 119600, Note_on_c, 1, 61, 127
2, 119600, Note_off_c, 1, 63, 0
2, 119600, Note_off_c, 1, 67, 0
2, 119600, Note_off_c, 1, 70, 0
2, 119600, Note_off_c, 1, 75, 0
2, 119600, Note_off_c, 1, 79, 0
2, 119640, Note_off_c, 1, 27, 0
2, 119640, Note_on_c, 1, 43, 127
2, 119640, Note_on_c, 1, 46, 127
2, 119640, Note_on_c, 1, 51, 127
2, 119640, Note_off_c, 1, 55, 0
2, 119640, Note_off_c, 1, 58, 0
2, 119640, Note_off_c, 1, 61, 0
2, 119640, Note_on_c, 1, 87, 127
2, 119680, Note_off_c, 1, 39, 0
2, 119680, Note_off_c, 1, 46, 0
2, 119680, Note_off_c, 1, 51, 0
2, 119680, Note_on_c, 1, 55, 127
2, 119680, Note_on_c, 1, 63, 127
2, 119680, Note_on_c, 1, 67, 127
2, 119680, Note_on_c, 1, 72, 127
2, 119680, Note_off_c, 1, 87, 0
2, 119720, Note_off_c, 1, 43, 0
2, 119720, Note_on_c, 1, 46, 127
2, 119720, Note_on_c, 1, 53, 127
2, 119720, Note_off_c, 1, 55, 0
2, 119720, Note_off_c, 1, 63, 0
2, 119720, Note_on_c, 1, 65, 127
2, 119720, Note_off_c, 1, 67, 0
2, 119720, Note_on_c, 1, 69, 127
2, 119720, Note_on_c, 1, 77, 127
2, 119760, Note_off_c, 1, 53, 0
2, 119760, Note_off_c, 1, 65, 0
2, 119760, Note_off_c, 1, 69, 0
2, 119760, Note_on_c, 1, 75, 127
2, 119760, Note_off_c, 1, 77, 0
2, 119760, Note_on_c, 1, 78, 127
2, 119760, Note_on_c, 1, 81, 127
2, 119800, Note_off_c, 1, 46, 0
2, 119800, Note_off_c, 1, 75, 0
2, 119800, Note_on_c, 1, 77, 127
2, 119800, Note_off_c, 1, 78, 0
2, 119800, Note_off_c, 1, 81, 0
2, 119800, Note_on_c, 1, 89, 127
2, 119800, Note_on_c, 1, 93, 127
2, 119840, Note_on_c, 1, 29, 127
2, 119840, Note_on_c, 1, 41, 127
2, 119840, Note_on_c, 1, 65, 127
2, 119840, Note_off_c, 1, 72, 0
2, 119840, Note_on_c, 1, 73, 127
2, 119840, Note_off_c, 1, 77, 0
2, 119840, Note_off_c, 1, 89, 0
2, 119840, Note_off_c, 1, 93, 0
2, 119880, Note_off_c, 1, 29, 0
2, 119880, Note_off_c, 1, 41, 0
2, 119880, Note_on_c, 1, 55, 127
2, 119880, Note_off_c, 1, 65, 0
2, 119880, Note_off_c, 1, 73, 0
2, 119880, Note_on_c, 1, 74, 127
2, 119880, Note_on_c, 1, 75, 127
2, 119880, Note_on_c, 1, 77, 127
2, 119920, Note_on_c, 1, 36, 127
2, 119920, Note_on_c, 1, 42, 127
2, 119920, Note_on_c, 1, 45, 127
2, 119920, Note_on_c, 1, 51, 127
2, 119920, Note_off_c, 1, 55, 0
2, 119920, Note_off_c, 1, 74, 0
2, 119920, Note_off_c, 1, 75, 0
2, 119920, Note_off_c, 1, 77, 0
2, 119960, Note_on_c, 1, 32, 127
2, 119960, Note_off_c, 1, 36, 0
2, 119960, Note_off_c, 1, 42, 0
2, 119960, Note_on_c, 1, 44, 127
2, 119960, Note_off_c, 1, 45, 0
2, 119960, Note_off_c, 1, 51, 0
2, 119960, Note_on_c, 1, 78, 127
2, 119960, Note_on_c, 1, 84, 127
2, 119960, Note_on_c, 1, 89, 127
2, 120000, Note_off_c, 1, 32, 0
2, 120000, Note_off_c, 1, 44, 0
2, 120000, Note_off_c, 1, 78, 0
2, 120000, Note_off_c, 1, 84, 0
2, 120000, Note_off_c, 1, 89, 0
2, 120040, End_track
3, 0, Start_track
3, 0, Title_t, "MIDI"
3, 1536, End_track
0, 0, End_of_file
