0, 0, Header, 1, 3, 192
1, 0, Start_track
1, 0, Time_signature, 4, 2, 24, 8
1, 0, Tempo, 500000
1, 120040, End_track
2, 0, Start_track
2, 0, Text_t, "random instrument: random person i dunno whatev"
2, 0, Title_t, "Track 1"
2, 0, Note_on_c, 1, 58, 127
2, 0, Note_on_c, 1, 66, 127
2, 0, Note_on_c, 1, 78, 127
2, 0, Note_on_c, 1, 82, 127
2, 0, Note_on_c, 1, 90, 127
2, 40, Note_on_c, 1, 46, 127
2, 40, Note_off_c, 1, 66, 0
2, 40, Note_off_c, 1, 78, 0
2, 40, Note_on_c, 1, 86, 127
2, 40, Note_off_c, 1, 90, 0
2, 40, Note_on_c, 1, 94, 127
2, 80, Note_off_c, 1, 46, 0
2, 80, Note_off_c, 1, 58, 0
2, 80, Note_off_c, 1, 82, 0
2, 80, Note_off_c, 1, 86, 0
2, 80, Note_off_c, 1, 94, 0
2, 120, Note_on_c, 1, 58, 127
2, 120, Note_on_c, 1, 66, 127
2, 120, Note_on_c, 1, 78, 127
2, 120, Note_on_c, 1, 82, 127
2, 120, Note_on_c, 1, 90, 127
2, 360, Note_off_c, 1, 58, 0
2, 360, Note_off_c, 1, 66, 0
2, 360, Note_off_c, 1, 78, 0
2, 360, Note_off_c, 1, 82, 0
2, 360, Note_off_c, 1, 90, 0
2, 400, Note_on_c, 1, 51, 127
2, 400, Note_on_c, 1, 59, 127
2, 400, Note_on_c, 1, 71, 127
2, 400, Note_on_c, 1, 75, 127
2, 840, Note_off_c, 1, 51, 0
2, 840, Note_off_c, 1, 59, 0
2, 840, Note_off_c, 1, 71, 0
2, 840, Note_off_c, 1, 75, 0
2, 880, Note_on_c, 1, 44, 127
2, 880, Note_on_c, 1, 51, 127
2, 880, Note_on_c, 1, 63, 127
2, 880, Note_on_c, 1, 68, 127
2, 1640, Note_off_c, 1, 44, 0
2, 1640, Note_off_c, 1, 51, 0
2, 1640, Note_off_c, 1, 63, 0
2, 1640, Note_off_c, 1, 68, 0
2, 1680, Note_on_c, 1, 39, 127
2, 1680, Note_on_c, 1, 67, 127
2, 1680, Note_on_c, 1, 70, 127
2, 2040, Note_off_c, 1, 39, 0
2, 2040, Note_off_c, 1, 67, 0
2, 2040, Note_off_c, 1, 70, 0
2, 2080, Note_on_c, 1, 51, 127
2, 2080, Note_on_c, 1, 67, 127
2, 2240, Note_off_c, 1, 51, 0
2, 2240, Note_off_c, 1, 67, 0
2, 2280, Note_on_c, 1, 51, 127
2, 2280, Note_on_c, 1, 67, 127
2, 2520, Note_off_c, 1, 67, 0
2, 2560, Note_on_c, 1, 49, 127
2, 2560, Note_off_c, 1, 51, 0
2, 2560, Note_on_c, 1, 53, 127
2, 2560, Note_on_c, 1, 65, 127
2, 2560, Note_on_c, 1, 68, 127
2, 4400, Note_off_c, 1, 49, 0
2, 4400, Note_off_c, 1, 53, 0
2, 4400, Note_off_c, 1, 65, 0
2, 4400, Note_off_c, 1, 68, 0
2, 4440, Note_on_c, 1, 49, 127
2, 4440, Note_on_c, 1, 53, 127
2, 4440, Note_on_c, 1, 65, 127
2, 4440, Note_on_c, 1, 68, 127
2, 5000, Note_on_c, 1, 61, 127
2, 5000, Note_off_c, 1, 65, 0
2, 5040, Note_off_c, 1, 53, 0
2, 5040, Note_on_c, 1, 56, 127
2, 5040, Note_off_c, 1, 61, 0
2, 5040, Note_on_c, 1, 65, 127
2, 5040, Note_off_c, 1, 68, 0
2, 5040, Note_on_c, 1, 71, 127
2, 5080, Note_on_c, 1, 53, 127
2, 5080, Note_off_c, 1, 56, 0
2, 5080, Note_on_c, 1, 68, 127
2, 5080, Note_off_c, 1, 71, 0
2, 6880, Note_off_c, 1, 49, 0
2, 6880, Note_off_c, 1, 53, 0
2, 6880, Note_off_c, 1, 65, 0
2, 6880, Note_off_c, 1, 68, 0
2, 6920, Note_on_c, 1, 49, 127
2, 6920, Note_on_c, 1, 53, 127
2, 6920, Note_on_c, 1, 65, 127
2, 6920, Note_on_c, 1, 68, 127
2, 9040, Note_off_c, 1, 49, 0
2, 9040, Note_off_c, 1, 53, 0
2, 9040, Note_off_c, 1, 65, 0
2, 9040, Note_off_c, 1, 68, 0
2, 18240, Note_on_c, 1, 40, 127
2, 18240, Note_on_c, 1, 52, 127
2, 18240, Note_on_c, 1, 64, 127
2, 18920, Note_off_c, 1, 40, 0
2, 18920, Note_off_c, 1, 52, 0
2, 18920, Note_off_c, 1, 64, 0
2, 19000, Note_on_c, 1, 32, 127
2, 19000, Note_on_c, 1, 44, 127
2, 19000, Note_on_c, 1, 59, 127
2, 19000, Note_on_c, 1, 71, 127
2, 19400, Note_off_c, 1, 59, 0
2, 19440, Note_on_c, 1, 59, 127
2, 19800, Note_off_c, 1, 59, 0
2, 19840, Note_on_c, 1, 59, 127
2, 20200, Note_off_c, 1, 59, 0
2, 20240, Note_on_c, 1, 63, 127
2, 20600, Note_off_c, 1, 63, 0
2, 20640, Note_on_c, 1, 68, 127
2, 20840, Note_off_c, 1, 32, 0
2, 20840, Note_off_c, 1, 44, 0
2, 20840, Note_off_c, 1, 68, 0
2, 20840, Note_off_c, 1, 71, 0
2, 20880, Note_on_c, 1, 32, 127
2, 20880, Note_on_c, 1, 44, 127
2, 20880, Note_on_c, 1, 68, 127
2, 20880, Note_on_c, 1, 71, 127
2, 21040, Note_off_c, 1, 32, 0
2, 21040, Note_off_c, 1, 44, 0
2, 21040, Note_off_c, 1, 68, 0
2, 21040, Note_off_c, 1, 71, 0
2, 21080, Note_on_c, 1, 38, 127
2, 21080, Note_on_c, 1, 50, 127
2, 21080, Note_on_c, 1, 62, 127
2, 22280, Note_off_c, 1, 38, 0
2, 22280, Note_off_c, 1, 50, 0
2, 22280, Note_off_c, 1, 62, 0
2, 22320, Note_on_c, 1, 43, 127
2, 22320, Note_on_c, 1, 55, 127
2, 22320, Note_on_c, 1, 67, 127
2, 22960, Note_off_c, 1, 43, 0
2, 22960, Note_off_c, 1, 55, 0
2, 22960, Note_off_c, 1, 67, 0
2, 23000, Note_on_c, 1, 43, 127
2, 23000, Note_on_c, 1, 55, 127
2, 23000, Note_on_c, 1, 67, 127
2, 25480, Note_off_c, 1, 43, 0
2, 25480, Note_off_c, 1, 55, 0
2, 25480, Note_off_c, 1, 67, 0
2, 25520, Note_on_c, 1, 43, 127
2, 25520, Note_on_c, 1, 55, 127
2, 25520, Note_on_c, 1, 67, 127
2, 27600, Note_off_c, 1, 43, 0
2, 27600, Note_off_c, 1, 55, 0
2, 27600, Note_off_c, 1, 67, 0
2, 27640, Note_on_c, 1, 43, 127
2, 27640, Note_on_c, 1, 55, 127
2, 27640, Note_on_c, 1, 67, 127
2, 29920, Note_off_c, 1, 43, 0
2, 29920, Note_off_c, 1, 55, 0
2, 29920, Note_off_c, 1, 67, 0
2, 29960, Note_on_c, 1, 43, 127
2, 29960, Note_on_c, 1, 55, 127
2, 29960, Note_on_c, 1, 67, 127
2, 31600, Note_off_c, 1, 43, 0
2, 31600, Note_off_c, 1, 55, 0
2, 31600, Note_off_c, 1, 67, 0
2, 31640, Note_on_c, 1, 31, 127
2, 32040, Note_off_c, 1, 31, 0
2, 32080, Note_on_c, 1, 31, 127
2, 32240, Note_off_c, 1, 31, 0
2, 32280, Note_on_c, 1, 31, 127
2, 33080, Note_off_c, 1, 31, 0
2, 33120, Note_on_c, 1, 35, 127
2, 33120, Note_on_c, 1, 58, 127
2, 34560, Note_off_c, 1, 35, 0
2, 34560, Note_off_c, 1, 58, 0
2, 34600, Note_on_c, 1, 35, 127
2, 34600, Note_on_c, 1, 58, 127
2, 37200, Note_off_c, 1, 35, 0
2, 37200, Note_off_c, 1, 58, 0
2, 37240, Note_on_c, 1, 35, 127
2, 37240, Note_on_c, 1, 58, 127
2, 39840, Note_off_c, 1, 35, 0
2, 39840, Note_off_c, 1, 58, 0
2, 39880, Note_on_c, 1, 35, 127
2, 39880, Note_on_c, 1, 58, 127
2, 42440, Note_off_c, 1, 35, 0
2, 42440, Note_off_c, 1, 58, 0
2, 42480, Note_on_c, 1, 35, 127
2, 42480, Note_on_c, 1, 58, 127
2, 45120, Note_off_c, 1, 35, 0
2, 45120, Note_off_c, 1, 58, 0
2, 45160, Note_on_c, 1, 35, 127
2, 45160, Note_on_c, 1, 58, 127
2, 47760, Note_off_c, 1, 35, 0
2, 47760, Note_off_c, 1, 58, 0
2, 47800, Note_on_c, 1, 35, 127
2, 47800, Note_on_c, 1, 58, 127
2, 50560, Note_off_c, 1, 35, 0
2, 50560, Note_off_c, 1, 58, 0
2, 50600, Note_on_c, 1, 35, 127
2, 50600, Note_on_c, 1, 58, 127
2, 53480, Note_off_c, 1, 35, 0
2, 53480, Note_off_c, 1, 58, 0
2, 53520, Note_on_c, 1, 35, 127
2, 53520, Note_on_c, 1, 58, 127
2, 56320, Note_off_c, 1, 58, 0
2, 56320, Note_on_c, 1, 59, 127
2, 56360, Note_off_c, 1, 35, 0
2, 56360, Note_off_c, 1, 59, 0
2, 56400, Note_on_c, 1, 35, 127
2, 56400, Note_on_c, 1, 58, 127
2, 59160, Note_off_c, 1, 35, 0
2, 59160, Note_off_c, 1, 58, 0
2, 59200, Note_on_c, 1, 35, 127
2, 59200, Note_on_c, 1, 58, 127
2, 62000, Note_off_c, 1, 35, 0
2, 62000, Note_off_c, 1, 58, 0
2, 62040, Note_on_c, 1, 35, 127
2, 62040, Note_on_c, 1, 58, 127
2, 64840, Note_off_c, 1, 35, 0
2, 64840, Note_off_c, 1, 58, 0
2, 64880, Note_on_c, 1, 35, 127
2, 64880, Note_on_c, 1, 58, 127
2, 67600, Note_off_c, 1, 35, 0
2, 67600, Note_off_c, 1, 58, 0
2, 67640, Note_on_c, 1, 35, 127
2, 67640, Note_on_c, 1, 58, 127
2, 70200, Note_off_c, 1, 35, 0
2, 70200, Note_off_c, 1, 58, 0
2, 70280, Note_on_c, 1, 35, 127
2, 70280, Note_on_c, 1, 58, 127
2, 72960, Note_off_c, 1, 35, 0
2, 72960, Note_off_c, 1, 58, 0
2, 73000, Note_on_c, 1, 35, 127
2, 73000, Note_on_c, 1, 58, 127
2, 75720, Note_off_c, 1, 35, 0
2, 75720, Note_off_c, 1, 58, 0
2, 75760, Note_on_c, 1, 35, 127
2, 75760, Note_on_c, 1, 58, 127
2, 78560, Note_off_c, 1, 35, 0
2, 78560, Note_off_c, 1, 58, 0
2, 78600, Note_on_c, 1, 35, 127
2, 78600, Note_on_c, 1, 58, 127
2, 81320, Note_off_c, 1, 35, 0
2, 81320, Note_off_c, 1, 58, 0
2, 81360, Note_on_c, 1, 35, 127
2, 81360, Note_on_c, 1, 58, 127
2, 84120, Note_off_c, 1, 35, 0
2, 84120, Note_off_c, 1, 58, 0
2, 84160, Note_on_c, 1, 35, 127
2, 84160, Note_on_c, 1, 58, 127
2, 86880, Note_off_c, 1, 35, 0
2, 86880, Note_off_c, 1, 58, 0
2, 86920, Note_on_c, 1, 35, 127
2, 86920, Note_on_c, 1, 58, 127
2, 89760, Note_off_c, 1, 35, 0
2, 89760, Note_off_c, 1, 58, 0
2, 89800, Note_on_c, 1, 35, 127
2, 89800, Note_on_c, 1, 58, 127
2, 92560, Note_off_c, 1, 35, 0
2, 92560, Note_off_c, 1, 58, 0
2, 92600, Note_on_c, 1, 35, 127
2, 92600, Note_on_c, 1, 58, 127
2, 95360, Note_off_c, 1, 35, 0
2, 95360, Note_off_c, 1, 58, 0
2, 95400, Note_on_c, 1, 35, 127
2, 95400, Note_on_c, 1, 58, 127
2, 98080, Note_off_c, 1, 35, 0
2, 98080, Note_off_c, 1, 58, 0
2, 98120, Note_on_c, 1, 35, 127
2, 98120, Note_on_c, 1, 58, 127
2, 100760, Note_off_c, 1, 35, 0
2, 100760, Note_off_c, 1, 58, 0
2, 100800, Note_on_c, 1, 35, 127
2, 100800, Note_on_c, 1, 58, 127
2, 103680, Note_off_c, 1, 35, 0
2, 103680, Note_off_c, 1, 58, 0
2, 103720, Note_on_c, 1, 35, 127
2, 103720, Note_on_c, 1, 58, 127
2, 106520, Note_off_c, 1, 35, 0
2, 106520, Note_off_c, 1, 58, 0
2, 106560, Note_on_c, 1, 35, 127
2, 106560, Note_on_c, 1, 58, 127
2, 109280, Note_off_c, 1, 35, 0
2, 109280, Note_off_c, 1, 58, 0
2, 109320, Note_on_c, 1, 35, 127
2, 109320, Note_on_c, 1, 58, 127
2, 112120, Note_off_c, 1, 35, 0
2, 112120, Note_off_c, 1, 58, 0
2, 112160, Note_on_c, 1, 35, 127
2, 112160, Note_on_c, 1, 58, 127
2, 115160, Note_off_c, 1, 35, 0
2, 115160, Note_off_c, 1, 58, 0
2, 115200, Note_on_c, 1, 35, 127
2, 115200, Note_on_c, 1, 58, 127
2, 117960, Note_off_c, 1, 35, 0
2, 117960, Note_off_c, 1, 58, 0
2, 118000, Note_on_c, 1, 35, 127
2, 118000, Note_on_c, 1, 58, 127
2, 120000, Note_off_c, 1, 35, 0
2, 120000, Note_off_c, 1, 58, 0
2, 120040, End_track
3, 0, Start_track
3, 0, Title_t, "MIDI"
3, 1536, End_track
0, 0, End_of_file
