0, 0, Header, 1, 3, 192
1, 0, Start_track
1, 0, Time_signature, 4, 2, 24, 8
1, 0, Tempo, 500000
1, 120040, End_track
2, 0, Start_track
2, 0, Text_t, "random instrument: random person i dunno whatev"
2, 0, Title_t, "Track 1"
2, 0, Note_on_c, 1, 58, 127
2, 0, Note_on_c, 1, 66, 127
2, 0, Note_on_c, 1, 78, 127
2, 0, Note_on_c, 1, 82, 127
2, 0, Note_on_c, 1, 90, 127
2, 40, Note_on_c, 1, 46, 127
2, 40, Note_off_c, 1, 66, 0
2, 40, Note_off_c, 1, 78, 0
2, 40, Note_on_c, 1, 86, 127
2, 40, Note_off_c, 1, 90, 0
2, 40, Note_on_c, 1, 94, 127
2, 80, Note_off_c, 1, 46, 0
2, 80, Note_off_c, 1, 58, 0
2, 80, Note_off_c, 1, 82, 0
2, 80, Note_off_c, 1, 86, 0
2, 80, Note_off_c, 1, 94, 0
2, 120, Note_on_c, 1, 58, 127
2, 120, Note_on_c, 1, 66, 127
2, 120, Note_on_c, 1, 78, 127
2, 120, Note_on_c, 1, 82, 127
2, 120, Note_on_c, 1, 90, 127
2, 360, Note_off_c, 1, 58, 0
2, 360, Note_off_c, 1, 66, 0
2, 360, Note_off_c, 1, 78, 0
2, 360, Note_off_c, 1, 82, 0
2, 360, Note_off_c, 1, 90, 0
2, 400, Note_on_c, 1, 51, 127
2, 400, Note_on_c, 1, 59, 127
2, 400, Note_on_c, 1, 71, 127
2, 400, Note_on_c, 1, 75, 127
2, 840, Note_off_c, 1, 51, 0
2, 840, Note_off_c, 1, 59, 0
2, 840, Note_off_c, 1, 71, 0
2, 840, Note_off_c, 1, 75, 0
2, 880, Note_on_c, 1, 44, 127
2, 880, Note_on_c, 1, 51, 127
2, 880, Note_on_c, 1, 63, 127
2, 880, Note_on_c, 1, 68, 127
2, 1640, Note_off_c, 1, 44, 0
2, 1640, Note_off_c, 1, 51, 0
2, 1640, Note_off_c, 1, 63, 0
2, 1640, Note_off_c, 1, 68, 0
2, 1680, Note_on_c, 1, 39, 127
2, 1680, Note_on_c, 1, 67, 127
2, 1680, Note_on_c, 1, 70, 127
2, 2040, Note_off_c, 1, 39, 0
2, 2040, Note_off_c, 1, 67, 0
2, 2040, Note_off_c, 1, 70, 0
2, 2080, Note_on_c, 1, 51, 127
2, 2080, Note_on_c, 1, 67, 127
2, 2240, Note_off_c, 1, 51, 0
2, 2240, Note_off_c, 1, 67, 0
2, 2280, Note_on_c, 1, 51, 127
2, 2280, Note_on_c, 1, 67, 127
2, 2520, Note_off_c, 1, 67, 0
2, 2560, Note_on_c, 1, 49, 127
2, 2560, Note_off_c, 1, 51, 0
2, 2560, Note_on_c, 1, 53, 127
2, 2560, Note_on_c, 1, 65, 127
2, 2560, Note_on_c, 1, 68, 127
2, 4400, Note_off_c, 1, 49, 0
2, 4400, Note_off_c, 1, 53, 0
2, 4400, Note_off_c, 1, 65, 0
2, 4400, Note_off_c, 1, 68, 0
2, 4440, Note_on_c, 1, 49, 127
2, 4440, Note_on_c, 1, 53, 127
2, 4440, Note_on_c, 1, 65, 127
2, 4440, Note_on_c, 1, 68, 127
2, 4680, Note_on_c, 1, 61, 127
2, 4680, Note_off_c, 1, 65, 0
2, 4720, Note_off_c, 1, 53, 0
2, 4720, Note_off_c, 1, 61, 0
2, 4720, Note_on_c, 1, 65, 127
2, 4720, Note_off_c, 1, 68, 0
2, 4760, Note_on_c, 1, 59, 127
2, 4760, Note_on_c, 1, 68, 127
2, 5800, Note_off_c, 1, 49, 0
2, 5800, Note_off_c, 1, 59, 0
2, 5800, Note_off_c, 1, 65, 0
2, 5800, Note_off_c, 1, 68, 0
2, 5840, Note_on_c, 1, 54, 127
2, 5840, Note_on_c, 1, 70, 127
2, 6680, Note_off_c, 1, 54, 0
2, 6680, Note_off_c, 1, 70, 0
2, 6760, Note_on_c, 1, 49, 127
2, 6760, Note_on_c, 1, 52, 127
2, 6760, Note_on_c, 1, 57, 127
2, 6760, Note_on_c, 1, 61, 127
2, 6760, Note_on_c, 1, 63, 127
2, 7360, Note_off_c, 1, 63, 0
2, 8160, Note_off_c, 1, 49, 0
2, 8160, Note_off_c, 1, 52, 0
2, 8160, Note_off_c, 1, 57, 0
2, 8160, Note_off_c, 1, 61, 0
2, 13400, Note_on_c, 1, 37, 127
2, 13400, Note_on_c, 1, 49, 127
2, 15240, Note_off_c, 1, 37, 0
2, 15240, Note_off_c, 1, 49, 0
2, 18240, Note_on_c, 1, 40, 127
2, 18240, Note_on_c, 1, 52, 127
2, 18240, Note_on_c, 1, 64, 127
2, 18920, Note_off_c, 1, 40, 0
2, 18920, Note_off_c, 1, 52, 0
2, 18920, Note_off_c, 1, 64, 0
2, 19000, Note_on_c, 1, 32, 127
2, 19000, Note_on_c, 1, 44, 127
2, 19000, Note_on_c, 1, 59, 127
2, 19000, Note_on_c, 1, 71, 127
2, 19400, Note_off_c, 1, 59, 0
2, 19440, Note_on_c, 1, 59, 127
2, 19800, Note_off_c, 1, 59, 0
2, 19840, Note_on_c, 1, 59, 127
2, 20200, Note_off_c, 1, 59, 0
2, 20240, Note_on_c, 1, 63, 127
2, 20600, Note_off_c, 1, 63, 0
2, 20640, Note_on_c, 1, 68, 127
2, 20840, Note_off_c, 1, 32, 0
2, 20840, Note_off_c, 1, 44, 0
2, 20840, Note_off_c, 1, 68, 0
2, 20840, Note_off_c, 1, 71, 0
2, 20880, Note_on_c, 1, 32, 127
2, 20880, Note_on_c, 1, 44, 127
2, 20880, Note_on_c, 1, 68, 127
2, 20880, Note_on_c, 1, 71, 127
2, 21040, Note_off_c, 1, 32, 0
2, 21040, Note_off_c, 1, 44, 0
2, 21040, Note_off_c, 1, 68, 0
2, 21040, Note_off_c, 1, 71, 0
2, 21080, Note_on_c, 1, 38, 127
2, 21080, Note_on_c, 1, 50, 127
2, 21080, Note_on_c, 1, 62, 127
2, 22280, Note_off_c, 1, 38, 0
2, 22280, Note_off_c, 1, 50, 0
2, 22280, Note_off_c, 1, 62, 0
2, 22320, Note_on_c, 1, 43, 127
2, 22320, Note_on_c, 1, 55, 127
2, 22320, Note_on_c, 1, 67, 127
2, 22960, Note_off_c, 1, 43, 0
2, 22960, Note_off_c, 1, 55, 0
2, 22960, Note_off_c, 1, 67, 0
2, 23000, Note_on_c, 1, 43, 127
2, 23000, Note_on_c, 1, 55, 127
2, 23000, Note_on_c, 1, 67, 127
2, 25520, Note_off_c, 1, 43, 0
2, 25520, Note_off_c, 1, 55, 0
2, 25520, Note_off_c, 1, 67, 0
2, 25560, Note_on_c, 1, 43, 127
2, 25560, Note_on_c, 1, 55, 127
2, 25560, Note_on_c, 1, 67, 127
2, 25720, Note_off_c, 1, 43, 0
2, 25720, Note_off_c, 1, 55, 0
2, 25720, Note_off_c, 1, 67, 0
2, 25760, Note_on_c, 1, 43, 127
2, 25760, Note_on_c, 1, 50, 127
2, 25760, Note_on_c, 1, 59, 127
2, 27680, Note_off_c, 1, 43, 0
2, 27680, Note_off_c, 1, 50, 0
2, 27680, Note_off_c, 1, 59, 0
2, 27720, Note_on_c, 1, 43, 127
2, 27720, Note_on_c, 1, 50, 127
2, 27720, Note_on_c, 1, 59, 127
2, 27880, Note_off_c, 1, 59, 0
2, 27920, Note_on_c, 1, 59, 127
2, 29840, Note_off_c, 1, 43, 0
2, 29840, Note_off_c, 1, 50, 0
2, 29840, Note_off_c, 1, 59, 0
2, 29880, Note_on_c, 1, 43, 127
2, 29880, Note_on_c, 1, 50, 127
2, 29880, Note_on_c, 1, 59, 127
2, 32440, Note_off_c, 1, 43, 0
2, 32440, Note_off_c, 1, 50, 0
2, 32440, Note_off_c, 1, 59, 0
2, 32480, Note_on_c, 1, 43, 127
2, 32480, Note_on_c, 1, 50, 127
2, 32480, Note_on_c, 1, 59, 127
2, 33640, Note_off_c, 1, 43, 0
2, 33640, Note_off_c, 1, 50, 0
2, 33640, Note_off_c, 1, 59, 0
2, 35640, Note_on_c, 1, 59, 127
2, 35880, Note_off_c, 1, 59, 0
2, 35920, Note_on_c, 1, 72, 127
2, 36480, Note_off_c, 1, 72, 0
2, 39080, Note_on_c, 1, 70, 127
2, 39280, Note_off_c, 1, 70, 0
2, 39320, Note_on_c, 1, 71, 127
2, 39480, Note_off_c, 1, 71, 0
2, 39520, Note_on_c, 1, 70, 127
2, 39920, Note_on_c, 1, 46, 127
2, 40320, Note_off_c, 1, 46, 0
2, 40320, Note_off_c, 1, 70, 0
2, 40400, Note_on_c, 1, 46, 127
2, 40400, Note_on_c, 1, 74, 127
2, 40960, Note_off_c, 1, 46, 0
2, 40960, Note_off_c, 1, 74, 0
2, 41000, Note_on_c, 1, 39, 127
2, 41000, Note_on_c, 1, 78, 127
2, 41800, Note_off_c, 1, 39, 0
2, 41800, Note_off_c, 1, 78, 0
2, 41840, Note_on_c, 1, 39, 127
2, 41840, Note_on_c, 1, 78, 127
2, 42240, Note_off_c, 1, 39, 0
2, 42240, Note_off_c, 1, 78, 0
2, 42320, Note_on_c, 1, 39, 127
2, 42320, Note_on_c, 1, 78, 127
2, 42680, Note_off_c, 1, 39, 0
2, 42720, Note_on_c, 1, 39, 127
2, 43080, Note_off_c, 1, 39, 0
2, 43120, Note_on_c, 1, 46, 127
2, 43120, Note_on_c, 1, 75, 127
2, 43120, Note_off_c, 1, 78, 0
2, 43480, Note_off_c, 1, 46, 0
2, 43520, Note_on_c, 1, 46, 127
2, 43880, Note_off_c, 1, 46, 0
2, 43920, Note_on_c, 1, 44, 127
2, 44240, Note_off_c, 1, 44, 0
2, 44240, Note_off_c, 1, 75, 0
2, 44280, Note_on_c, 1, 44, 127
2, 44280, Note_on_c, 1, 75, 127
2, 44320, Note_off_c, 1, 44, 0
2, 44320, Note_on_c, 1, 73, 127
2, 44320, Note_off_c, 1, 75, 0
2, 44360, Note_on_c, 1, 51, 127
2, 44760, Note_off_c, 1, 51, 0
2, 44800, Note_on_c, 1, 44, 127
2, 45160, Note_off_c, 1, 44, 0
2, 45200, Note_on_c, 1, 61, 127
2, 45600, Note_off_c, 1, 61, 0
2, 45840, Note_on_c, 1, 51, 127
2, 46240, Note_off_c, 1, 51, 0
2, 46280, Note_on_c, 1, 44, 127
2, 46480, Note_off_c, 1, 44, 0
2, 46480, Note_off_c, 1, 73, 0
2, 46520, Note_on_c, 1, 44, 127
2, 46520, Note_on_c, 1, 73, 127
2, 46680, Note_off_c, 1, 44, 0
2, 46720, Note_on_c, 1, 56, 127
2, 47120, Note_off_c, 1, 56, 0
2, 47120, Note_off_c, 1, 73, 0
2, 47160, Note_on_c, 1, 39, 127
2, 47160, Note_on_c, 1, 71, 127
2, 47920, Note_off_c, 1, 39, 0
2, 47960, Note_on_c, 1, 59, 127
2, 47960, Note_on_c, 1, 68, 127
2, 48520, Note_off_c, 1, 59, 0
2, 48520, Note_off_c, 1, 68, 0
2, 48520, Note_off_c, 1, 71, 0
2, 48560, Note_on_c, 1, 59, 127
2, 48560, Note_on_c, 1, 68, 127
2, 48560, Note_on_c, 1, 71, 127
2, 48800, Note_off_c, 1, 59, 0
2, 48800, Note_off_c, 1, 68, 0
2, 48800, Note_off_c, 1, 71, 0
2, 48840, Note_on_c, 1, 58, 127
2, 48840, Note_on_c, 1, 61, 127
2, 48840, Note_on_c, 1, 70, 127
2, 50040, Note_off_c, 1, 58, 0
2, 50040, Note_off_c, 1, 61, 0
2, 50040, Note_off_c, 1, 70, 0
2, 50080, Note_on_c, 1, 47, 127
2, 50080, Note_on_c, 1, 73, 127
2, 50880, Note_off_c, 1, 73, 0
2, 50920, Note_off_c, 1, 47, 0
2, 50960, Note_on_c, 1, 47, 127
2, 50960, Note_on_c, 1, 54, 127
2, 50960, Note_on_c, 1, 71, 127
2, 51720, Note_off_c, 1, 47, 0
2, 51800, Note_on_c, 1, 47, 127
2, 52160, Note_off_c, 1, 47, 0
2, 52200, Note_on_c, 1, 47, 127
2, 53240, Note_off_c, 1, 47, 0
2, 53240, Note_off_c, 1, 54, 0
2, 53240, Note_off_c, 1, 71, 0
2, 53280, Note_on_c, 1, 47, 127
2, 53280, Note_on_c, 1, 54, 127
2, 53280, Note_on_c, 1, 71, 127
2, 53440, Note_off_c, 1, 47, 0
2, 53480, Note_on_c, 1, 47, 127
2, 54680, Note_off_c, 1, 47, 0
2, 54720, Note_on_c, 1, 47, 127
2, 55520, Note_off_c, 1, 47, 0
2, 55560, Note_off_c, 1, 54, 0
2, 55560, Note_off_c, 1, 71, 0
2, 55600, Note_on_c, 1, 47, 127
2, 55600, Note_on_c, 1, 54, 127
2, 55600, Note_on_c, 1, 71, 127
2, 56400, Note_off_c, 1, 47, 0
2, 56440, Note_on_c, 1, 47, 127
2, 58560, Note_off_c, 1, 47, 0
2, 58560, Note_off_c, 1, 54, 0
2, 58560, Note_off_c, 1, 71, 0
2, 58600, Note_on_c, 1, 47, 127
2, 58600, Note_on_c, 1, 54, 127
2, 58600, Note_on_c, 1, 71, 127
2, 58960, Note_off_c, 1, 47, 0
2, 59000, Note_on_c, 1, 47, 127
2, 60200, Note_off_c, 1, 47, 0
2, 60280, Note_on_c, 1, 47, 127
2, 61080, Note_off_c, 1, 47, 0
2, 61120, Note_off_c, 1, 54, 0
2, 61120, Note_off_c, 1, 71, 0
2, 61160, Note_on_c, 1, 47, 127
2, 61160, Note_on_c, 1, 54, 127
2, 61160, Note_on_c, 1, 71, 127
2, 62360, Note_off_c, 1, 47, 0
2, 62400, Note_on_c, 1, 47, 127
2, 63640, Note_off_c, 1, 47, 0
2, 63680, Note_on_c, 1, 47, 127
2, 64080, Note_off_c, 1, 47, 0
2, 64120, Note_off_c, 1, 54, 0
2, 64120, Note_off_c, 1, 71, 0
2, 64160, Note_on_c, 1, 47, 127
2, 64160, Note_on_c, 1, 54, 127
2, 64160, Note_on_c, 1, 71, 127
2, 64520, Note_off_c, 1, 47, 0
2, 64560, Note_on_c, 1, 47, 127
2, 65360, Note_off_c, 1, 47, 0
2, 65400, Note_on_c, 1, 47, 127
2, 65800, Note_off_c, 1, 47, 0
2, 65840, Note_on_c, 1, 47, 127
2, 66200, Note_off_c, 1, 47, 0
2, 66280, Note_on_c, 1, 47, 127
2, 66680, Note_off_c, 1, 47, 0
2, 66680, Note_off_c, 1, 54, 0
2, 66680, Note_off_c, 1, 71, 0
2, 66720, Note_on_c, 1, 54, 127
2, 66720, Note_on_c, 1, 71, 127
2, 66760, Note_on_c, 1, 47, 127
2, 67960, Note_off_c, 1, 47, 0
2, 68040, Note_on_c, 1, 47, 127
2, 68840, Note_off_c, 1, 47, 0
2, 68880, Note_on_c, 1, 47, 127
2, 68880, Note_off_c, 1, 71, 0
2, 68880, Note_on_c, 1, 73, 127
2, 69160, Note_on_c, 1, 71, 127
2, 69160, Note_off_c, 1, 73, 0
2, 69200, Note_off_c, 1, 47, 0
2, 69200, Note_off_c, 1, 54, 0
2, 69200, Note_off_c, 1, 71, 0
2, 69240, Note_on_c, 1, 47, 127
2, 69240, Note_on_c, 1, 54, 127
2, 69240, Note_on_c, 1, 71, 127
2, 69280, Note_off_c, 1, 47, 0
2, 69280, Note_off_c, 1, 71, 0
2, 69280, Note_on_c, 1, 73, 127
2, 69360, Note_on_c, 1, 47, 127
2, 69600, Note_on_c, 1, 71, 127
2, 69600, Note_off_c, 1, 73, 0
2, 69720, Note_off_c, 1, 47, 0
2, 69720, Note_off_c, 1, 71, 0
2, 69720, Note_on_c, 1, 73, 127
2, 70200, Note_off_c, 1, 54, 0
2, 70200, Note_off_c, 1, 73, 0
2, 70240, Note_on_c, 1, 47, 127
2, 70240, Note_on_c, 1, 54, 127
2, 70240, Note_on_c, 1, 71, 127
2, 71040, Note_off_c, 1, 47, 0
2, 71080, Note_on_c, 1, 47, 127
2, 71480, Note_off_c, 1, 47, 0
2, 71520, Note_off_c, 1, 54, 0
2, 71520, Note_off_c, 1, 71, 0
2, 71560, Note_on_c, 1, 47, 127
2, 71560, Note_on_c, 1, 54, 127
2, 71560, Note_on_c, 1, 71, 127
2, 71920, Note_off_c, 1, 47, 0
2, 71960, Note_on_c, 1, 47, 127
2, 72360, Note_off_c, 1, 47, 0
2, 72400, Note_on_c, 1, 47, 127
2, 74120, Note_off_c, 1, 47, 0
2, 74120, Note_off_c, 1, 54, 0
2, 74120, Note_off_c, 1, 71, 0
2, 74160, Note_on_c, 1, 47, 127
2, 74160, Note_on_c, 1, 54, 127
2, 74160, Note_on_c, 1, 71, 127
2, 74920, Note_off_c, 1, 47, 0
2, 74960, Note_on_c, 1, 47, 127
2, 75360, Note_off_c, 1, 47, 0
2, 75400, Note_on_c, 1, 47, 127
2, 76200, Note_off_c, 1, 47, 0
2, 76280, Note_on_c, 1, 47, 127
2, 76640, Note_off_c, 1, 47, 0
2, 76680, Note_on_c, 1, 47, 127
2, 77120, Note_off_c, 1, 47, 0
2, 77120, Note_off_c, 1, 54, 0
2, 77120, Note_off_c, 1, 71, 0
2, 77160, Note_on_c, 1, 47, 127
2, 77160, Note_on_c, 1, 54, 127
2, 77160, Note_on_c, 1, 71, 127
2, 77520, Note_off_c, 1, 47, 0
2, 77560, Note_on_c, 1, 47, 127
2, 78360, Note_off_c, 1, 47, 0
2, 78400, Note_on_c, 1, 47, 127
2, 79240, Note_off_c, 1, 47, 0
2, 79280, Note_off_c, 1, 54, 0
2, 79280, Note_off_c, 1, 71, 0
2, 79320, Note_on_c, 1, 47, 127
2, 79320, Note_on_c, 1, 54, 127
2, 79320, Note_on_c, 1, 71, 127
2, 79680, Note_off_c, 1, 47, 0
2, 79720, Note_on_c, 1, 47, 127
2, 80080, Note_off_c, 1, 47, 0
2, 80120, Note_on_c, 1, 47, 127
2, 81360, Note_off_c, 1, 47, 0
2, 81400, Note_on_c, 1, 47, 127
2, 81840, Note_off_c, 1, 47, 0
2, 81840, Note_off_c, 1, 54, 0
2, 81840, Note_off_c, 1, 71, 0
2, 81880, Note_on_c, 1, 47, 127
2, 81880, Note_on_c, 1, 54, 127
2, 81880, Note_on_c, 1, 71, 127
2, 82240, Note_off_c, 1, 47, 0
2, 82280, Note_on_c, 1, 47, 127
2, 83080, Note_off_c, 1, 47, 0
2, 83120, Note_on_c, 1, 47, 127
2, 83920, Note_off_c, 1, 47, 0
2, 84000, Note_on_c, 1, 47, 127
2, 84400, Note_off_c, 1, 47, 0
2, 84440, Note_off_c, 1, 54, 0
2, 84440, Note_off_c, 1, 71, 0
2, 84480, Note_on_c, 1, 47, 127
2, 84480, Note_on_c, 1, 54, 127
2, 84480, Note_on_c, 1, 71, 127
2, 86120, Note_off_c, 1, 47, 0
2, 86160, Note_on_c, 1, 47, 127
2, 86800, Note_off_c, 1, 47, 0
2, 86800, Note_off_c, 1, 54, 0
2, 86800, Note_off_c, 1, 71, 0
2, 86840, Note_on_c, 1, 47, 127
2, 86840, Note_on_c, 1, 54, 127
2, 86840, Note_on_c, 1, 71, 127
2, 87840, Note_off_c, 1, 47, 0
2, 87880, Note_on_c, 1, 47, 127
2, 88680, Note_off_c, 1, 47, 0
2, 88720, Note_on_c, 1, 47, 127
2, 89160, Note_off_c, 1, 47, 0
2, 89160, Note_off_c, 1, 54, 0
2, 89160, Note_off_c, 1, 71, 0
2, 89200, Note_on_c, 1, 47, 127
2, 89200, Note_on_c, 1, 54, 127
2, 89200, Note_on_c, 1, 71, 127
2, 90840, Note_off_c, 1, 47, 0
2, 90880, Note_on_c, 1, 47, 127
2, 91320, Note_off_c, 1, 47, 0
2, 91320, Note_off_c, 1, 54, 0
2, 91320, Note_off_c, 1, 71, 0
2, 91360, Note_on_c, 1, 47, 127
2, 91360, Note_on_c, 1, 54, 127
2, 91360, Note_on_c, 1, 71, 127
2, 91720, Note_off_c, 1, 47, 0
2, 91760, Note_on_c, 1, 47, 127
2, 92560, Note_off_c, 1, 47, 0
2, 92600, Note_on_c, 1, 47, 127
2, 93000, Note_off_c, 1, 47, 0
2, 93040, Note_on_c, 1, 47, 127
2, 93480, Note_off_c, 1, 47, 0
2, 93480, Note_off_c, 1, 54, 0
2, 93480, Note_off_c, 1, 71, 0
2, 93520, Note_on_c, 1, 47, 127
2, 93520, Note_on_c, 1, 54, 127
2, 93520, Note_on_c, 1, 71, 127
2, 94280, Note_off_c, 1, 47, 0
2, 94320, Note_on_c, 1, 47, 127
2, 96280, Note_off_c, 1, 47, 0
2, 96280, Note_off_c, 1, 54, 0
2, 96280, Note_off_c, 1, 71, 0
2, 96320, Note_on_c, 1, 47, 127
2, 96320, Note_on_c, 1, 54, 127
2, 96320, Note_on_c, 1, 71, 127
2, 96480, Note_off_c, 1, 47, 0
2, 96520, Note_on_c, 1, 47, 127
2, 97320, Note_off_c, 1, 47, 0
2, 97360, Note_on_c, 1, 47, 127
2, 98440, Note_off_c, 1, 47, 0
2, 98440, Note_off_c, 1, 54, 0
2, 98440, Note_off_c, 1, 71, 0
2, 98480, Note_on_c, 1, 47, 127
2, 98480, Note_on_c, 1, 54, 127
2, 98480, Note_on_c, 1, 71, 127
2, 98640, Note_off_c, 1, 47, 0
2, 98680, Note_on_c, 1, 47, 127
2, 99080, Note_off_c, 1, 47, 0
2, 99120, Note_on_c, 1, 47, 127
2, 99920, Note_off_c, 1, 47, 0
2, 99960, Note_on_c, 1, 47, 127
2, 100840, Note_off_c, 1, 47, 0
2, 100840, Note_off_c, 1, 54, 0
2, 100840, Note_off_c, 1, 71, 0
2, 100880, Note_on_c, 1, 47, 127
2, 100880, Note_on_c, 1, 54, 127
2, 100880, Note_on_c, 1, 71, 127
2, 101240, Note_off_c, 1, 47, 0
2, 101280, Note_on_c, 1, 47, 127
2, 102080, Note_off_c, 1, 47, 0
2, 102160, Note_on_c, 1, 47, 127
2, 102520, Note_off_c, 1, 47, 0
2, 102560, Note_on_c, 1, 47, 127
2, 102920, Note_off_c, 1, 47, 0
2, 102920, Note_on_c, 1, 66, 127
2, 102920, Note_off_c, 1, 71, 0
2, 102960, Note_off_c, 1, 66, 0
2, 102960, Note_on_c, 1, 71, 127
2, 103000, Note_on_c, 1, 47, 127
2, 103440, Note_off_c, 1, 47, 0
2, 103440, Note_off_c, 1, 54, 0
2, 103440, Note_off_c, 1, 71, 0
2, 103480, Note_on_c, 1, 47, 127
2, 103480, Note_on_c, 1, 54, 127
2, 103480, Note_on_c, 1, 71, 127
2, 103840, Note_off_c, 1, 47, 0
2, 103880, Note_on_c, 1, 47, 127
2, 104280, Note_off_c, 1, 47, 0
2, 104320, Note_on_c, 1, 47, 127
2, 104720, Note_off_c, 1, 47, 0
2, 104760, Note_on_c, 1, 47, 127
2, 105120, Note_off_c, 1, 47, 0
2, 105200, Note_on_c, 1, 47, 127
2, 105640, Note_off_c, 1, 47, 0
2, 105640, Note_off_c, 1, 54, 0
2, 105640, Note_off_c, 1, 71, 0
2, 105680, Note_on_c, 1, 47, 127
2, 105680, Note_on_c, 1, 54, 127
2, 105680, Note_on_c, 1, 71, 127
2, 106040, Note_off_c, 1, 47, 0
2, 106120, Note_on_c, 1, 47, 127
2, 107320, Note_off_c, 1, 47, 0
2, 107400, Note_on_c, 1, 47, 127
2, 108200, Note_off_c, 1, 47, 0
2, 108240, Note_off_c, 1, 54, 0
2, 108240, Note_off_c, 1, 71, 0
2, 108280, Note_on_c, 1, 47, 127
2, 108280, Note_on_c, 1, 54, 127
2, 108280, Note_on_c, 1, 71, 127
2, 108640, Note_off_c, 1, 47, 0
2, 108720, Note_on_c, 1, 47, 127
2, 109080, Note_off_c, 1, 47, 0
2, 109120, Note_on_c, 1, 47, 127
2, 110640, Note_off_c, 1, 47, 0
2, 110640, Note_off_c, 1, 54, 0
2, 110640, Note_off_c, 1, 71, 0
2, 110680, Note_on_c, 1, 47, 127
2, 110680, Note_on_c, 1, 54, 127
2, 110680, Note_on_c, 1, 71, 127
2, 111640, Note_off_c, 1, 47, 0
2, 111720, Note_on_c, 1, 47, 127
2, 112080, Note_off_c, 1, 47, 0
2, 112120, Note_on_c, 1, 47, 127
2, 113840, Note_off_c, 1, 47, 0
2, 113880, Note_off_c, 1, 54, 0
2, 113880, Note_off_c, 1, 71, 0
2, 113920, Note_on_c, 1, 47, 127
2, 113920, Note_on_c, 1, 54, 127
2, 113920, Note_on_c, 1, 71, 127
2, 114720, Note_off_c, 1, 47, 0
2, 114760, Note_on_c, 1, 47, 127
2, 115120, Note_off_c, 1, 47, 0
2, 115160, Note_on_c, 1, 47, 127
2, 115960, Note_off_c, 1, 47, 0
2, 116000, Note_on_c, 1, 47, 127
2, 116440, Note_off_c, 1, 47, 0
2, 116440, Note_off_c, 1, 54, 0
2, 116440, Note_off_c, 1, 71, 0
2, 116480, Note_on_c, 1, 47, 127
2, 116480, Note_on_c, 1, 54, 127
2, 116480, Note_on_c, 1, 71, 127
2, 116840, Note_off_c, 1, 47, 0
2, 116880, Note_on_c, 1, 47, 127
2, 117680, Note_off_c, 1, 47, 0
2, 117720, Note_on_c, 1, 47, 127
2, 118120, Note_off_c, 1, 47, 0
2, 118160, Note_on_c, 1, 47, 127
2, 119240, Note_off_c, 1, 47, 0
2, 119240, Note_off_c, 1, 54, 0
2, 119240, Note_off_c, 1, 71, 0
2, 119280, Note_on_c, 1, 47, 127
2, 119280, Note_on_c, 1, 54, 127
2, 119280, Note_on_c, 1, 71, 127
2, 120000, Note_off_c, 1, 47, 0
2, 120000, Note_off_c, 1, 54, 0
2, 120000, Note_off_c, 1, 71, 0
2, 120040, End_track
3, 0, Start_track
3, 0, Title_t, "MIDI"
3, 1536, End_track
0, 0, End_of_file
