0, 0, Header, 1, 3, 192
1, 0, Start_track
1, 0, Time_signature, 4, 2, 24, 8
1, 0, Tempo, 500000
1, 120040, End_track
2, 0, Start_track
2, 0, Text_t, "random instrument: random person i dunno whatev"
2, 0, Title_t, "Track 1"
2, 0, Note_on_c, 1, 58, 127
2, 0, Note_on_c, 1, 66, 127
2, 0, Note_on_c, 1, 78, 127
2, 0, Note_on_c, 1, 82, 127
2, 0, Note_on_c, 1, 90, 127
2, 520, Note_off_c, 1, 58, 0
2, 520, Note_off_c, 1, 66, 0
2, 520, Note_off_c, 1, 78, 0
2, 520, Note_off_c, 1, 82, 0
2, 520, Note_off_c, 1, 90, 0
2, 600, Note_on_c, 1, 37, 127
2, 600, Note_on_c, 1, 44, 127
2, 600, Note_on_c, 1, 68, 127
2, 600, Note_on_c, 1, 89, 127
2, 640, Note_off_c, 1, 44, 0
2, 640, Note_on_c, 1, 63, 127
2, 640, Note_on_c, 1, 73, 127
2, 640, Note_off_c, 1, 89, 0
2, 680, Note_off_c, 1, 37, 0
2, 680, Note_off_c, 1, 63, 0
2, 680, Note_off_c, 1, 68, 0
2, 680, Note_off_c, 1, 73, 0
2, 720, Note_on_c, 1, 45, 127
2, 720, Note_on_c, 1, 53, 127
2, 720, Note_on_c, 1, 62, 127
2, 720, Note_on_c, 1, 65, 127
2, 720, Note_on_c, 1, 70, 127
2, 2720, Note_off_c, 1, 45, 0
2, 2720, Note_off_c, 1, 53, 0
2, 2720, Note_off_c, 1, 62, 0
2, 2720, Note_off_c, 1, 65, 0
2, 2720, Note_off_c, 1, 70, 0
2, 2760, Note_on_c, 1, 45, 127
2, 2760, Note_on_c, 1, 53, 127
2, 2760, Note_on_c, 1, 62, 127
2, 2760, Note_on_c, 1, 65, 127
2, 2760, Note_on_c, 1, 70, 127
2, 4640, Note_off_c, 1, 45, 0
2, 4640, Note_off_c, 1, 53, 0
2, 4640, Note_off_c, 1, 62, 0
2, 4640, Note_off_c, 1, 65, 0
2, 4640, Note_off_c, 1, 70, 0
2, 4720, Note_on_c, 1, 44, 127
2, 5800, Note_off_c, 1, 44, 0
2, 5840, Note_on_c, 1, 44, 127
2, 6760, Note_off_c, 1, 44, 0
2, 6840, Note_on_c, 1, 44, 127
2, 7040, Note_off_c, 1, 44, 0
2, 7080, Note_on_c, 1, 49, 127
2, 7480, Note_off_c, 1, 49, 0
2, 7520, Note_on_c, 1, 47, 127
2, 7880, Note_off_c, 1, 47, 0
2, 7920, Note_on_c, 1, 44, 127
2, 8280, Note_off_c, 1, 44, 0
2, 8320, Note_on_c, 1, 42, 127
2, 8760, Note_off_c, 1, 42, 0
2, 8800, Note_on_c, 1, 40, 127
2, 9120, Note_off_c, 1, 40, 0
2, 9160, Note_on_c, 1, 40, 127
2, 9240, Note_off_c, 1, 40, 0
2, 9280, Note_on_c, 1, 44, 127
2, 10120, Note_off_c, 1, 44, 0
2, 10160, Note_on_c, 1, 44, 127
2, 10560, Note_off_c, 1, 44, 0
2, 10600, Note_on_c, 1, 41, 127
2, 11000, Note_off_c, 1, 41, 0
2, 11040, Note_on_c, 1, 53, 127
2, 11400, Note_off_c, 1, 53, 0
2, 11440, Note_on_c, 1, 53, 127
2, 11480, Note_off_c, 1, 53, 0
2, 11520, Note_on_c, 1, 51, 127
2, 11880, Note_off_c, 1, 51, 0
2, 11920, Note_on_c, 1, 46, 127
2, 12280, Note_off_c, 1, 46, 0
2, 18240, Note_on_c, 1, 40, 127
2, 18240, Note_on_c, 1, 52, 127
2, 18240, Note_on_c, 1, 64, 127
2, 18680, Note_off_c, 1, 40, 0
2, 18680, Note_off_c, 1, 52, 0
2, 18680, Note_off_c, 1, 64, 0
2, 18720, Note_on_c, 1, 42, 127
2, 18720, Note_on_c, 1, 54, 127
2, 18720, Note_on_c, 1, 66, 127
2, 19640, Note_off_c, 1, 42, 0
2, 19640, Note_off_c, 1, 54, 0
2, 19640, Note_off_c, 1, 66, 0
2, 35640, Note_on_c, 1, 59, 127
2, 35880, Note_off_c, 1, 59, 0
2, 35920, Note_on_c, 1, 72, 127
2, 36240, Note_off_c, 1, 72, 0
2, 36280, Note_on_c, 1, 75, 127
2, 36520, Note_off_c, 1, 75, 0
2, 36560, Note_on_c, 1, 76, 127
2, 36680, Note_off_c, 1, 76, 0
2, 36720, Note_on_c, 1, 77, 127
2, 38760, Note_off_c, 1, 77, 0
2, 38800, Note_on_c, 1, 77, 127
2, 39720, Note_off_c, 1, 77, 0
2, 39760, Note_on_c, 1, 75, 127
2, 40920, Note_off_c, 1, 75, 0
2, 41000, Note_on_c, 1, 75, 127
2, 42760, Note_off_c, 1, 75, 0
2, 42800, Note_on_c, 1, 73, 127
2, 43160, Note_off_c, 1, 73, 0
2, 67200, Note_on_c, 1, 52, 127
2, 67400, Note_on_c, 1, 61, 127
2, 67560, Note_off_c, 1, 52, 0
2, 67560, Note_off_c, 1, 61, 0
2, 67600, Note_on_c, 1, 50, 127
2, 67600, Note_on_c, 1, 59, 127
2, 69160, Note_off_c, 1, 50, 0
2, 69160, Note_off_c, 1, 59, 0
2, 69240, Note_on_c, 1, 52, 127
2, 69240, Note_on_c, 1, 59, 127
2, 69720, Note_off_c, 1, 52, 0
2, 69720, Note_off_c, 1, 59, 0
2, 74720, Note_on_c, 1, 55, 127
2, 74720, Note_on_c, 1, 58, 127
2, 74720, Note_on_c, 1, 62, 127
2, 74720, Note_on_c, 1, 67, 127
2, 74720, Note_on_c, 1, 70, 127
2, 75440, Note_off_c, 1, 55, 0
2, 75440, Note_off_c, 1, 58, 0
2, 75440, Note_off_c, 1, 62, 0
2, 75440, Note_off_c, 1, 67, 0
2, 75440, Note_off_c, 1, 70, 0
2, 107080, Note_on_c, 1, 57, 127
2, 107080, Note_on_c, 1, 64, 127
2, 107080, Note_on_c, 1, 73, 127
2, 107440, Note_on_c, 1, 69, 127
2, 107440, Note_off_c, 1, 73, 0
2, 107520, Note_off_c, 1, 69, 0
2, 107520, Note_on_c, 1, 73, 127
2, 108960, Note_off_c, 1, 64, 0
2, 109000, Note_on_c, 1, 64, 127
2, 110160, Note_off_c, 1, 57, 0
2, 110160, Note_off_c, 1, 64, 0
2, 110160, Note_off_c, 1, 73, 0
2, 110240, Note_on_c, 1, 76, 127
2, 111080, Note_off_c, 1, 76, 0
2, 111120, Note_on_c, 1, 76, 127
2, 111400, Note_off_c, 1, 76, 0
2, 111440, Note_on_c, 1, 74, 127
2, 112480, Note_off_c, 1, 74, 0
2, 112520, Note_on_c, 1, 74, 127
2, 113320, Note_off_c, 1, 74, 0
2, 113360, Note_on_c, 1, 78, 127
2, 113920, Note_off_c, 1, 78, 0
2, 113960, Note_on_c, 1, 76, 127
2, 114520, Note_off_c, 1, 76, 0
2, 114600, Note_on_c, 1, 76, 127
2, 116600, Note_off_c, 1, 76, 0
2, 116640, Note_on_c, 1, 76, 127
2, 118040, Note_off_c, 1, 76, 0
2, 118080, Note_on_c, 1, 74, 127
2, 118280, Note_off_c, 1, 74, 0
2, 118320, Note_on_c, 1, 74, 127
2, 118720, Note_off_c, 1, 74, 0
2, 118760, Note_on_c, 1, 74, 127
2, 119080, Note_off_c, 1, 74, 0
2, 120040, End_track
3, 0, Start_track
3, 0, Title_t, "MIDI"
3, 1536, End_track
0, 0, End_of_file
