0, 0, Header, 1, 3, 192
1, 0, Start_track
1, 0, Time_signature, 4, 2, 24, 8
1, 0, Tempo, 500000
1, 120040, End_track
2, 0, Start_track
2, 0, Text_t, "random instrument: random person i dunno whatev"
2, 0, Title_t, "Track 1"
2, 0, Note_on_c, 1, 58, 127
2, 0, Note_on_c, 1, 66, 127
2, 0, Note_on_c, 1, 78, 127
2, 0, Note_on_c, 1, 82, 127
2, 0, Note_on_c, 1, 90, 127
2, 40, Note_on_c, 1, 46, 127
2, 40, Note_off_c, 1, 66, 0
2, 40, Note_off_c, 1, 78, 0
2, 40, Note_on_c, 1, 86, 127
2, 40, Note_off_c, 1, 90, 0
2, 40, Note_on_c, 1, 94, 127
2, 80, Note_off_c, 1, 46, 0
2, 80, Note_off_c, 1, 58, 0
2, 80, Note_off_c, 1, 82, 0
2, 80, Note_off_c, 1, 86, 0
2, 80, Note_off_c, 1, 94, 0
2, 120, Note_on_c, 1, 47, 127
2, 120, Note_on_c, 1, 58, 127
2, 120, Note_on_c, 1, 62, 127
2, 120, Note_on_c, 1, 66, 127
2, 120, Note_on_c, 1, 70, 127
2, 120, Note_on_c, 1, 74, 127
2, 160, Note_off_c, 1, 47, 0
2, 160, Note_on_c, 1, 53, 127
2, 160, Note_off_c, 1, 58, 0
2, 160, Note_off_c, 1, 62, 0
2, 160, Note_off_c, 1, 66, 0
2, 160, Note_off_c, 1, 70, 0
2, 160, Note_off_c, 1, 74, 0
2, 160, Note_on_c, 1, 77, 127
2, 160, Note_on_c, 1, 85, 127
2, 200, Note_off_c, 1, 53, 0
2, 200, Note_on_c, 1, 74, 127
2, 200, Note_off_c, 1, 77, 0
2, 200, Note_on_c, 1, 83, 127
2, 200, Note_off_c, 1, 85, 0
2, 200, Note_on_c, 1, 95, 127
2, 240, Note_on_c, 1, 51, 127
2, 240, Note_on_c, 1, 55, 127
2, 240, Note_on_c, 1, 58, 127
2, 240, Note_on_c, 1, 63, 127
2, 240, Note_off_c, 1, 74, 0
2, 240, Note_on_c, 1, 82, 127
2, 240, Note_off_c, 1, 83, 0
2, 240, Note_on_c, 1, 91, 127
2, 240, Note_off_c, 1, 95, 0
2, 280, Note_off_c, 1, 51, 0
2, 280, Note_off_c, 1, 55, 0
2, 280, Note_off_c, 1, 63, 0
2, 280, Note_on_c, 1, 66, 127
2, 280, Note_on_c, 1, 78, 127
2, 280, Note_on_c, 1, 90, 127
2, 280, Note_off_c, 1, 91, 0
2, 320, Note_off_c, 1, 58, 0
2, 320, Note_off_c, 1, 66, 0
2, 320, Note_on_c, 1, 71, 127
2, 320, Note_on_c, 1, 74, 127
2, 320, Note_off_c, 1, 78, 0
2, 320, Note_on_c, 1, 87, 127
2, 320, Note_off_c, 1, 90, 0
2, 360, Note_on_c, 1, 51, 127
2, 360, Note_on_c, 1, 59, 127
2, 360, Note_on_c, 1, 66, 127
2, 360, Note_on_c, 1, 69, 127
2, 360, Note_off_c, 1, 71, 0
2, 360, Note_off_c, 1, 74, 0
2, 360, Note_on_c, 1, 75, 127
2, 360, Note_off_c, 1, 82, 0
2, 360, Note_on_c, 1, 85, 127
2, 360, Note_off_c, 1, 87, 0
2, 400, Note_off_c, 1, 66, 0
2, 400, Note_off_c, 1, 69, 0
2, 400, Note_on_c, 1, 71, 127
2, 400, Note_off_c, 1, 85, 0
2, 560, Note_on_c, 1, 55, 127
2, 560, Note_off_c, 1, 59, 0
2, 560, Note_off_c, 1, 75, 0
2, 600, Note_off_c, 1, 55, 0
2, 600, Note_on_c, 1, 59, 127
2, 600, Note_on_c, 1, 75, 127
2, 1000, Note_off_c, 1, 51, 0
2, 1000, Note_off_c, 1, 59, 0
2, 1000, Note_off_c, 1, 71, 0
2, 1000, Note_off_c, 1, 75, 0
2, 1040, Note_on_c, 1, 50, 127
2, 1040, Note_on_c, 1, 68, 127
2, 1040, Note_on_c, 1, 71, 127
2, 2240, Note_off_c, 1, 50, 0
2, 2240, Note_off_c, 1, 68, 0
2, 2240, Note_off_c, 1, 71, 0
2, 2320, Note_on_c, 1, 51, 127
2, 2320, Note_on_c, 1, 61, 127
2, 2320, Note_on_c, 1, 67, 127
2, 2320, Note_on_c, 1, 70, 127
2, 2880, Note_off_c, 1, 70, 0
2, 2920, Note_on_c, 1, 73, 127
2, 4080, Note_off_c, 1, 51, 0
2, 4080, Note_off_c, 1, 61, 0
2, 4080, Note_off_c, 1, 67, 0
2, 4080, Note_off_c, 1, 73, 0
2, 4120, Note_on_c, 1, 44, 127
2, 4120, Note_on_c, 1, 59, 127
2, 4120, Note_on_c, 1, 63, 127
2, 4120, Note_on_c, 1, 68, 127
2, 4560, Note_off_c, 1, 44, 0
2, 4560, Note_off_c, 1, 59, 0
2, 4560, Note_off_c, 1, 63, 0
2, 4560, Note_off_c, 1, 68, 0
2, 4600, Note_on_c, 1, 44, 127
2, 4600, Note_on_c, 1, 59, 127
2, 4600, Note_on_c, 1, 63, 127
2, 4600, Note_on_c, 1, 68, 127
2, 4720, Note_off_c, 1, 59, 0
2, 4720, Note_off_c, 1, 63, 0
2, 4720, Note_off_c, 1, 68, 0
2, 4760, Note_on_c, 1, 49, 127
2, 4760, Note_on_c, 1, 59, 127
2, 4760, Note_on_c, 1, 71, 127
2, 5520, Note_off_c, 1, 44, 0
2, 5520, Note_off_c, 1, 49, 0
2, 5520, Note_off_c, 1, 59, 0
2, 5520, Note_off_c, 1, 71, 0
2, 5560, Note_on_c, 1, 44, 127
2, 5560, Note_on_c, 1, 52, 127
2, 5560, Note_on_c, 1, 61, 127
2, 5560, Note_on_c, 1, 68, 127
2, 5560, Note_on_c, 1, 73, 127
2, 6320, Note_off_c, 1, 44, 0
2, 6320, Note_on_c, 1, 51, 127
2, 6320, Note_off_c, 1, 52, 0
2, 6320, Note_on_c, 1, 60, 127
2, 6320, Note_off_c, 1, 61, 0
2, 6320, Note_off_c, 1, 73, 0
2, 6360, Note_on_c, 1, 44, 127
2, 6360, Note_off_c, 1, 51, 0
2, 6360, Note_on_c, 1, 52, 127
2, 6360, Note_off_c, 1, 60, 0
2, 6360, Note_on_c, 1, 61, 127
2, 6360, Note_on_c, 1, 73, 127
2, 6720, Note_off_c, 1, 44, 0
2, 6720, Note_off_c, 1, 52, 0
2, 6720, Note_off_c, 1, 61, 0
2, 6720, Note_off_c, 1, 68, 0
2, 6720, Note_off_c, 1, 73, 0
2, 6760, Note_on_c, 1, 49, 127
2, 6760, Note_on_c, 1, 52, 127
2, 6760, Note_on_c, 1, 57, 127
2, 6760, Note_on_c, 1, 61, 127
2, 6760, Note_on_c, 1, 63, 127
2, 6920, Note_off_c, 1, 49, 0
2, 6920, Note_off_c, 1, 52, 0
2, 6920, Note_off_c, 1, 57, 0
2, 6920, Note_off_c, 1, 61, 0
2, 6920, Note_off_c, 1, 63, 0
2, 6960, Note_on_c, 1, 49, 127
2, 6960, Note_on_c, 1, 52, 127
2, 6960, Note_on_c, 1, 57, 127
2, 6960, Note_on_c, 1, 61, 127
2, 6960, Note_on_c, 1, 63, 127
2, 7200, Note_off_c, 1, 49, 0
2, 7200, Note_off_c, 1, 52, 0
2, 7200, Note_off_c, 1, 57, 0
2, 7200, Note_off_c, 1, 61, 0
2, 7200, Note_off_c, 1, 63, 0
2, 7240, Note_on_c, 1, 47, 127
2, 7240, Note_on_c, 1, 53, 127
2, 7240, Note_on_c, 1, 56, 127
2, 7240, Note_on_c, 1, 68, 127
2, 8000, Note_off_c, 1, 47, 0
2, 8000, Note_off_c, 1, 56, 0
2, 8000, Note_off_c, 1, 68, 0
2, 8040, Note_off_c, 1, 53, 0
2, 8040, Note_on_c, 1, 54, 127
2, 8040, Note_on_c, 1, 63, 127
2, 8040, Note_on_c, 1, 68, 127
2, 8400, Note_off_c, 1, 68, 0
2, 8440, Note_on_c, 1, 71, 127
2, 9000, Note_off_c, 1, 63, 0
2, 9040, Note_on_c, 1, 63, 127
2, 9200, Note_off_c, 1, 54, 0
2, 9200, Note_off_c, 1, 63, 0
2, 9200, Note_off_c, 1, 71, 0
2, 9240, Note_on_c, 1, 54, 127
2, 9240, Note_on_c, 1, 63, 127
2, 9280, Note_on_c, 1, 71, 127
2, 10040, Note_off_c, 1, 63, 0
2, 10040, Note_off_c, 1, 71, 0
2, 10080, Note_on_c, 1, 63, 127
2, 10080, Note_on_c, 1, 75, 127
2, 10840, Note_off_c, 1, 54, 0
2, 10840, Note_off_c, 1, 63, 0
2, 10840, Note_off_c, 1, 75, 0
2, 10880, Note_on_c, 1, 50, 127
2, 10880, Note_on_c, 1, 65, 127
2, 10880, Note_on_c, 1, 68, 127
2, 10880, Note_on_c, 1, 77, 127
2, 10920, Note_off_c, 1, 68, 0
2, 10920, Note_on_c, 1, 76, 127
2, 10920, Note_off_c, 1, 77, 0
2, 10960, Note_on_c, 1, 68, 127
2, 10960, Note_off_c, 1, 76, 0
2, 10960, Note_on_c, 1, 77, 127
2, 11040, Note_off_c, 1, 77, 0
2, 11200, Note_off_c, 1, 50, 0
2, 11200, Note_off_c, 1, 65, 0
2, 11200, Note_off_c, 1, 68, 0
2, 11240, Note_on_c, 1, 50, 127
2, 11240, Note_on_c, 1, 65, 127
2, 11240, Note_on_c, 1, 68, 127
2, 11280, Note_off_c, 1, 50, 0
2, 11280, Note_off_c, 1, 65, 0
2, 11280, Note_off_c, 1, 68, 0
2, 11320, Note_on_c, 1, 44, 127
2, 11320, Note_on_c, 1, 54, 127
2, 11320, Note_on_c, 1, 60, 127
2, 12480, Note_off_c, 1, 44, 0
2, 12480, Note_off_c, 1, 54, 0
2, 12480, Note_off_c, 1, 60, 0
2, 12520, Note_on_c, 1, 44, 127
2, 12520, Note_on_c, 1, 56, 127
2, 12520, Note_on_c, 1, 60, 127
2, 12520, Note_on_c, 1, 63, 127
2, 12920, Note_off_c, 1, 56, 0
2, 12920, Note_off_c, 1, 60, 0
2, 13280, Note_off_c, 1, 44, 0
2, 13360, Note_off_c, 1, 63, 0
2, 13400, Note_on_c, 1, 44, 127
2, 13400, Note_on_c, 1, 63, 127
2, 13760, Note_off_c, 1, 44, 0
2, 13800, Note_on_c, 1, 44, 127
2, 13800, Note_on_c, 1, 51, 127
2, 14160, Note_off_c, 1, 44, 0
2, 14160, Note_off_c, 1, 51, 0
2, 14200, Note_on_c, 1, 46, 127
2, 14200, Note_on_c, 1, 55, 127
2, 14200, Note_on_c, 1, 61, 127
2, 14200, Note_off_c, 1, 63, 0
2, 15560, Note_off_c, 1, 46, 0
2, 15560, Note_off_c, 1, 55, 0
2, 15560, Note_off_c, 1, 61, 0
2, 15600, Note_on_c, 1, 46, 127
2, 15600, Note_on_c, 1, 55, 127
2, 15600, Note_on_c, 1, 61, 127
2, 16080, Note_off_c, 1, 46, 0
2, 16080, Note_off_c, 1, 55, 0
2, 16080, Note_on_c, 1, 57, 127
2, 16080, Note_on_c, 1, 60, 127
2, 16080, Note_off_c, 1, 61, 0
2, 16080, Note_on_c, 1, 63, 127
2, 16080, Note_on_c, 1, 72, 127
2, 16080, Note_on_c, 1, 78, 127
2, 16080, Note_on_c, 1, 83, 127
2, 16240, Note_off_c, 1, 57, 0
2, 16240, Note_off_c, 1, 60, 0
2, 16240, Note_off_c, 1, 63, 0
2, 16240, Note_off_c, 1, 72, 0
2, 16240, Note_off_c, 1, 78, 0
2, 16240, Note_off_c, 1, 83, 0
2, 16280, Note_on_c, 1, 40, 127
2, 16280, Note_on_c, 1, 52, 127
2, 16280, Note_on_c, 1, 78, 127
2, 16280, Note_on_c, 1, 83, 127
2, 16280, Note_on_c, 1, 87, 127
2, 16280, Note_on_c, 1, 90, 127
2, 16320, Note_off_c, 1, 40, 0
2, 16320, Note_off_c, 1, 52, 0
2, 16320, Note_on_c, 1, 60, 127
2, 16320, Note_on_c, 1, 63, 127
2, 16320, Note_on_c, 1, 75, 127
2, 16320, Note_off_c, 1, 78, 0
2, 16320, Note_on_c, 1, 79, 127
2, 16320, Note_off_c, 1, 83, 0
2, 16320, Note_off_c, 1, 90, 0
2, 17080, Note_off_c, 1, 60, 0
2, 17080, Note_off_c, 1, 63, 0
2, 17080, Note_off_c, 1, 75, 0
2, 17080, Note_off_c, 1, 79, 0
2, 17080, Note_off_c, 1, 87, 0
2, 17120, Note_on_c, 1, 60, 127
2, 17120, Note_on_c, 1, 68, 127
2, 17120, Note_on_c, 1, 72, 127
2, 17120, Note_on_c, 1, 80, 127
2, 17120, Note_on_c, 1, 84, 127
2, 17680, Note_off_c, 1, 60, 0
2, 17680, Note_off_c, 1, 68, 0
2, 17680, Note_off_c, 1, 72, 0
2, 17680, Note_off_c, 1, 80, 0
2, 17680, Note_off_c, 1, 84, 0
2, 17720, Note_on_c, 1, 60, 127
2, 17720, Note_on_c, 1, 68, 127
2, 17720, Note_on_c, 1, 72, 127
2, 17720, Note_on_c, 1, 80, 127
2, 17720, Note_on_c, 1, 84, 127
2, 17960, Note_off_c, 1, 60, 0
2, 17960, Note_off_c, 1, 68, 0
2, 17960, Note_off_c, 1, 72, 0
2, 17960, Note_off_c, 1, 80, 0
2, 17960, Note_off_c, 1, 84, 0
2, 18000, Note_on_c, 1, 53, 127
2, 18000, Note_on_c, 1, 57, 127
2, 18000, Note_on_c, 1, 60, 127
2, 18000, Note_on_c, 1, 65, 127
2, 18000, Note_on_c, 1, 84, 127
2, 18760, Note_off_c, 1, 53, 0
2, 18760, Note_off_c, 1, 57, 0
2, 18760, Note_off_c, 1, 60, 0
2, 18760, Note_off_c, 1, 65, 0
2, 18760, Note_off_c, 1, 84, 0
2, 18800, Note_on_c, 1, 53, 127
2, 18800, Note_on_c, 1, 65, 127
2, 19160, Note_off_c, 1, 53, 0
2, 19160, Note_off_c, 1, 65, 0
2, 19200, Note_on_c, 1, 60, 127
2, 19200, Note_on_c, 1, 65, 127
2, 19200, Note_on_c, 1, 69, 127
2, 19200, Note_on_c, 1, 72, 127
2, 19200, Note_on_c, 1, 77, 127
2, 19200, Note_on_c, 1, 81, 127
2, 20040, Note_off_c, 1, 60, 0
2, 20040, Note_off_c, 1, 65, 0
2, 20040, Note_off_c, 1, 69, 0
2, 20040, Note_off_c, 1, 72, 0
2, 20040, Note_off_c, 1, 77, 0
2, 20040, Note_off_c, 1, 81, 0
2, 20080, Note_on_c, 1, 60, 127
2, 20080, Note_on_c, 1, 65, 127
2, 20080, Note_on_c, 1, 69, 127
2, 20080, Note_on_c, 1, 72, 127
2, 20080, Note_on_c, 1, 77, 127
2, 20080, Note_on_c, 1, 81, 127
2, 20840, Note_off_c, 1, 60, 0
2, 20840, Note_off_c, 1, 65, 0
2, 20840, Note_off_c, 1, 69, 0
2, 20840, Note_off_c, 1, 72, 0
2, 20840, Note_off_c, 1, 77, 0
2, 20840, Note_off_c, 1, 81, 0
2, 20880, Note_on_c, 1, 49, 127
2, 20880, Note_on_c, 1, 56, 127
2, 20880, Note_on_c, 1, 61, 127
2, 20880, Note_on_c, 1, 65, 127
2, 20880, Note_on_c, 1, 68, 127
2, 20880, Note_on_c, 1, 77, 127
2, 21880, Note_off_c, 1, 49, 0
2, 21880, Note_off_c, 1, 56, 0
2, 21880, Note_off_c, 1, 61, 0
2, 21880, Note_off_c, 1, 65, 0
2, 21880, Note_off_c, 1, 68, 0
2, 21880, Note_off_c, 1, 77, 0
2, 21920, Note_on_c, 1, 31, 127
2, 21920, Note_on_c, 1, 43, 127
2, 21920, Note_on_c, 1, 71, 127
2, 22280, Note_off_c, 1, 71, 0
2, 22320, Note_on_c, 1, 79, 127
2, 22520, Note_off_c, 1, 31, 0
2, 22520, Note_off_c, 1, 43, 0
2, 22520, Note_off_c, 1, 79, 0
2, 22560, Note_on_c, 1, 31, 127
2, 22560, Note_on_c, 1, 43, 127
2, 22560, Note_on_c, 1, 79, 127
2, 23000, Note_on_c, 1, 52, 127
2, 23000, Note_on_c, 1, 64, 127
2, 23000, Note_off_c, 1, 79, 0
2, 23120, Note_off_c, 1, 31, 0
2, 23120, Note_off_c, 1, 43, 0
2, 23120, Note_off_c, 1, 52, 0
2, 23120, Note_off_c, 1, 64, 0
2, 23160, Note_on_c, 1, 52, 127
2, 23160, Note_on_c, 1, 54, 127
2, 23160, Note_on_c, 1, 62, 127
2, 23160, Note_on_c, 1, 64, 127
2, 23200, Note_off_c, 1, 52, 0
2, 23200, Note_off_c, 1, 54, 0
2, 23200, Note_off_c, 1, 62, 0
2, 23200, Note_off_c, 1, 64, 0
2, 23200, Note_on_c, 1, 73, 127
2, 23200, Note_on_c, 1, 84, 127
2, 23200, Note_on_c, 1, 89, 127
2, 23200, Note_on_c, 1, 96, 127
2, 23240, Note_on_c, 1, 36, 127
2, 23240, Note_off_c, 1, 73, 0
2, 23240, Note_on_c, 1, 74, 127
2, 23240, Note_off_c, 1, 89, 0
2, 23240, Note_off_c, 1, 96, 0
2, 23280, Note_off_c, 1, 36, 0
2, 23280, Note_on_c, 1, 53, 127
2, 23280, Note_on_c, 1, 58, 127
2, 23280, Note_on_c, 1, 65, 127
2, 23280, Note_off_c, 1, 74, 0
2, 23280, Note_on_c, 1, 79, 127
2, 23280, Note_on_c, 1, 82, 127
2, 23280, Note_off_c, 1, 84, 0
2, 23320, Note_on_c, 1, 41, 127
2, 23320, Note_on_c, 1, 46, 127
2, 23320, Note_off_c, 1, 53, 0
2, 23320, Note_off_c, 1, 58, 0
2, 23320, Note_on_c, 1, 62, 127
2, 23320, Note_on_c, 1, 68, 127
2, 23320, Note_on_c, 1, 70, 127
2, 23320, Note_off_c, 1, 79, 0
2, 23320, Note_off_c, 1, 82, 0
2, 23360, Note_off_c, 1, 41, 0
2, 23360, Note_on_c, 1, 44, 127
2, 23360, Note_off_c, 1, 46, 0
2, 23360, Note_on_c, 1, 51, 127
2, 23360, Note_on_c, 1, 58, 127
2, 23360, Note_on_c, 1, 61, 127
2, 23360, Note_off_c, 1, 62, 0
2, 23360, Note_off_c, 1, 65, 0
2, 23360, Note_off_c, 1, 68, 0
2, 23360, Note_off_c, 1, 70, 0
2, 23360, Note_on_c, 1, 73, 127
2, 23400, Note_off_c, 1, 44, 0
2, 23400, Note_off_c, 1, 51, 0
2, 23400, Note_on_c, 1, 55, 127
2, 23400, Note_off_c, 1, 61, 0
2, 23400, Note_on_c, 1, 67, 127
2, 23400, Note_off_c, 1, 73, 0
2, 23400, Note_on_c, 1, 79, 127
2, 23400, Note_on_c, 1, 82, 127
2, 23440, Note_off_c, 1, 55, 0
2, 23440, Note_on_c, 1, 63, 127
2, 23440, Note_off_c, 1, 79, 0
2, 23440, Note_off_c, 1, 82, 0
2, 23440, Note_on_c, 1, 86, 127
2, 23480, Note_on_c, 1, 48, 127
2, 23480, Note_on_c, 1, 52, 127
2, 23480, Note_off_c, 1, 58, 0
2, 23480, Note_off_c, 1, 63, 0
2, 23480, Note_off_c, 1, 67, 0
2, 23480, Note_on_c, 1, 76, 127
2, 23480, Note_on_c, 1, 78, 127
2, 23480, Note_on_c, 1, 84, 127
2, 23480, Note_off_c, 1, 86, 0
2, 23480, Note_on_c, 1, 88, 127
2, 23520, Note_on_c, 1, 41, 127
2, 23520, Note_off_c, 1, 48, 0
2, 23520, Note_off_c, 1, 52, 0
2, 23520, Note_on_c, 1, 72, 127
2, 23520, Note_off_c, 1, 76, 0
2, 23520, Note_off_c, 1, 78, 0
2, 23520, Note_on_c, 1, 82, 127
2, 23520, Note_off_c, 1, 84, 0
2, 23520, Note_off_c, 1, 88, 0
2, 23560, Note_off_c, 1, 41, 0
2, 23560, Note_off_c, 1, 72, 0
2, 23560, Note_off_c, 1, 82, 0
2, 23560, Note_on_c, 1, 86, 127
2, 23560, Note_on_c, 1, 91, 127
2, 23560, Note_on_c, 1, 98, 127
2, 24200, Note_on_c, 1, 53, 127
2, 24200, Note_on_c, 1, 58, 127
2, 24200, Note_on_c, 1, 65, 127
2, 24200, Note_on_c, 1, 70, 127
2, 24200, Note_on_c, 1, 74, 127
2, 24200, Note_on_c, 1, 82, 127
2, 24200, Note_off_c, 1, 86, 0
2, 24200, Note_off_c, 1, 91, 0
2, 24200, Note_off_c, 1, 98, 0
2, 24240, Note_on_c, 1, 42, 127
2, 24240, Note_on_c, 1, 51, 127
2, 24240, Note_off_c, 1, 53, 0
2, 24240, Note_on_c, 1, 54, 127
2, 24240, Note_off_c, 1, 58, 0
2, 24240, Note_off_c, 1, 65, 0
2, 24240, Note_off_c, 1, 70, 0
2, 24240, Note_off_c, 1, 74, 0
2, 24240, Note_off_c, 1, 82, 0
2, 24240, Note_on_c, 1, 84, 127
2, 24240, Note_on_c, 1, 96, 127
2, 24280, Note_off_c, 1, 42, 0
2, 24280, Note_on_c, 1, 47, 127
2, 24280, Note_off_c, 1, 51, 0
2, 24280, Note_off_c, 1, 84, 0
2, 24280, Note_on_c, 1, 88, 127
2, 24280, Note_on_c, 1, 90, 127
2, 24280, Note_off_c, 1, 96, 0
2, 24320, Note_off_c, 1, 47, 0
2, 24320, Note_on_c, 1, 53, 127
2, 24320, Note_off_c, 1, 54, 0
2, 24320, Note_on_c, 1, 58, 127
2, 24320, Note_on_c, 1, 65, 127
2, 24320, Note_on_c, 1, 70, 127
2, 24320, Note_on_c, 1, 74, 127
2, 24320, Note_on_c, 1, 82, 127
2, 24320, Note_off_c, 1, 88, 0
2, 24320, Note_off_c, 1, 90, 0
2, 24360, Note_off_c, 1, 53, 0
2, 24360, Note_off_c, 1, 58, 0
2, 24360, Note_off_c, 1, 65, 0
2, 24360, Note_off_c, 1, 70, 0
2, 24360, Note_off_c, 1, 74, 0
2, 24360, Note_off_c, 1, 82, 0
2, 24400, Note_on_c, 1, 57, 127
2, 24400, Note_on_c, 1, 60, 127
2, 24400, Note_on_c, 1, 65, 127
2, 24400, Note_on_c, 1, 69, 127
2, 24400, Note_on_c, 1, 74, 127
2, 24440, Note_off_c, 1, 57, 0
2, 24440, Note_on_c, 1, 59, 127
2, 24440, Note_off_c, 1, 60, 0
2, 24440, Note_on_c, 1, 64, 127
2, 24440, Note_off_c, 1, 65, 0
2, 24440, Note_on_c, 1, 68, 127
2, 24440, Note_off_c, 1, 69, 0
2, 24440, Note_on_c, 1, 71, 127
2, 24440, Note_off_c, 1, 74, 0
2, 24440, Note_on_c, 1, 85, 127
2, 24480, Note_on_c, 1, 54, 127
2, 24480, Note_off_c, 1, 59, 0
2, 24480, Note_on_c, 1, 61, 127
2, 24480, Note_off_c, 1, 68, 0
2, 24480, Note_on_c, 1, 70, 127
2, 24480, Note_off_c, 1, 71, 0
2, 24480, Note_on_c, 1, 76, 127
2, 24480, Note_off_c, 1, 85, 0
2, 24520, Note_on_c, 1, 50, 127
2, 24520, Note_off_c, 1, 54, 0
2, 24520, Note_on_c, 1, 56, 127
2, 24520, Note_on_c, 1, 58, 127
2, 24520, Note_off_c, 1, 61, 0
2, 24520, Note_off_c, 1, 64, 0
2, 24520, Note_off_c, 1, 70, 0
2, 24520, Note_off_c, 1, 76, 0
2, 24520, Note_on_c, 1, 79, 127
2, 24520, Note_on_c, 1, 91, 127
2, 24600, Note_off_c, 1, 50, 0
2, 24600, Note_off_c, 1, 56, 0
2, 24600, Note_off_c, 1, 58, 0
2, 24600, Note_off_c, 1, 79, 0
2, 24600, Note_off_c, 1, 91, 0
2, 24640, Note_on_c, 1, 57, 127
2, 24640, Note_on_c, 1, 60, 127
2, 24640, Note_on_c, 1, 66, 127
2, 24640, Note_on_c, 1, 77, 127
2, 24640, Note_on_c, 1, 84, 127
2, 24640, Note_on_c, 1, 87, 127
2, 24640, Note_on_c, 1, 89, 127
2, 24680, Note_off_c, 1, 60, 0
2, 24680, Note_off_c, 1, 66, 0
2, 24680, Note_on_c, 1, 69, 127
2, 24680, Note_off_c, 1, 77, 0
2, 24680, Note_on_c, 1, 79, 127
2, 24680, Note_off_c, 1, 84, 0
2, 24680, Note_off_c, 1, 87, 0
2, 24680, Note_on_c, 1, 88, 127
2, 24680, Note_off_c, 1, 89, 0
2, 24720, Note_on_c, 1, 48, 127
2, 24720, Note_on_c, 1, 55, 127
2, 24720, Note_off_c, 1, 57, 0
2, 24720, Note_off_c, 1, 69, 0
2, 24720, Note_off_c, 1, 79, 0
2, 24720, Note_off_c, 1, 88, 0
2, 24720, Note_on_c, 1, 89, 127
2, 24760, Note_off_c, 1, 48, 0
2, 24760, Note_off_c, 1, 55, 0
2, 24760, Note_on_c, 1, 62, 127
2, 24760, Note_on_c, 1, 68, 127
2, 24760, Note_on_c, 1, 73, 127
2, 24760, Note_on_c, 1, 86, 127
2, 24760, Note_off_c, 1, 89, 0
2, 24760, Note_on_c, 1, 90, 127
2, 24760, Note_on_c, 1, 92, 127
2, 24800, Note_on_c, 1, 50, 127
2, 24800, Note_on_c, 1, 53, 127
2, 24800, Note_on_c, 1, 56, 127
2, 24800, Note_on_c, 1, 58, 127
2, 24800, Note_off_c, 1, 62, 0
2, 24800, Note_off_c, 1, 68, 0
2, 24800, Note_off_c, 1, 73, 0
2, 24800, Note_on_c, 1, 79, 127
2, 24800, Note_off_c, 1, 86, 0
2, 24800, Note_off_c, 1, 90, 0
2, 24800, Note_off_c, 1, 92, 0
2, 24840, Note_off_c, 1, 50, 0
2, 24840, Note_off_c, 1, 53, 0
2, 24840, Note_off_c, 1, 56, 0
2, 24840, Note_off_c, 1, 58, 0
2, 24840, Note_on_c, 1, 63, 127
2, 24840, Note_on_c, 1, 67, 127
2, 24840, Note_on_c, 1, 70, 127
2, 24840, Note_on_c, 1, 75, 127
2, 24840, Note_off_c, 1, 79, 0
2, 24840, Note_on_c, 1, 87, 127
2, 25840, Note_off_c, 1, 63, 0
2, 25840, Note_off_c, 1, 67, 0
2, 25840, Note_off_c, 1, 70, 0
2, 25840, Note_off_c, 1, 75, 0
2, 25840, Note_off_c, 1, 87, 0
2, 25880, Note_on_c, 1, 67, 127
2, 25880, Note_on_c, 1, 82, 127
2, 25880, Note_on_c, 1, 94, 127
2, 26160, Note_off_c, 1, 67, 0
2, 26160, Note_off_c, 1, 82, 0
2, 26160, Note_off_c, 1, 94, 0
2, 26200, Note_on_c, 1, 67, 127
2, 26200, Note_on_c, 1, 82, 127
2, 26200, Note_on_c, 1, 94, 127
2, 26680, Note_off_c, 1, 67, 0
2, 26680, Note_on_c, 1, 68, 127
2, 26680, Note_on_c, 1, 80, 127
2, 26680, Note_off_c, 1, 82, 0
2, 26680, Note_on_c, 1, 92, 127
2, 26680, Note_off_c, 1, 94, 0
2, 27080, Note_off_c, 1, 68, 0
2, 27120, Note_on_c, 1, 68, 127
2, 27480, Note_off_c, 1, 68, 0
2, 27480, Note_off_c, 1, 80, 0
2, 27480, Note_off_c, 1, 92, 0
2, 27520, Note_on_c, 1, 53, 127
2, 27520, Note_on_c, 1, 56, 127
2, 27520, Note_on_c, 1, 70, 127
2, 27520, Note_on_c, 1, 80, 127
2, 27560, Note_on_c, 1, 39, 127
2, 27560, Note_on_c, 1, 48, 127
2, 27560, Note_off_c, 1, 53, 0
2, 27560, Note_on_c, 1, 60, 127
2, 27560, Note_on_c, 1, 68, 127
2, 27560, Note_off_c, 1, 70, 0
2, 27560, Note_off_c, 1, 80, 0
2, 27600, Note_on_c, 1, 35, 127
2, 27600, Note_off_c, 1, 39, 0
2, 27600, Note_off_c, 1, 48, 0
2, 27600, Note_off_c, 1, 56, 0
2, 27600, Note_on_c, 1, 58, 127
2, 27600, Note_off_c, 1, 60, 0
2, 27600, Note_on_c, 1, 64, 127
2, 27640, Note_off_c, 1, 35, 0
2, 27640, Note_on_c, 1, 54, 127
2, 27640, Note_off_c, 1, 58, 0
2, 27640, Note_off_c, 1, 64, 0
2, 27640, Note_on_c, 1, 66, 127
2, 27640, Note_off_c, 1, 68, 0
2, 27640, Note_on_c, 1, 76, 127
2, 27640, Note_on_c, 1, 78, 127
2, 27640, Note_on_c, 1, 82, 127
2, 27640, Note_on_c, 1, 85, 127
2, 27640, Note_on_c, 1, 90, 127
2, 27680, Note_on_c, 1, 44, 127
2, 27680, Note_off_c, 1, 54, 0
2, 27680, Note_on_c, 1, 56, 127
2, 27680, Note_on_c, 1, 63, 127
2, 27680, Note_off_c, 1, 66, 0
2, 27680, Note_on_c, 1, 70, 127
2, 27680, Note_off_c, 1, 76, 0
2, 27680, Note_off_c, 1, 78, 0
2, 27680, Note_off_c, 1, 82, 0
2, 27680, Note_off_c, 1, 85, 0
2, 27680, Note_off_c, 1, 90, 0
2, 27720, Note_on_c, 1, 29, 127
2, 27720, Note_off_c, 1, 44, 0
2, 27720, Note_on_c, 1, 54, 127
2, 27720, Note_off_c, 1, 56, 0
2, 27720, Note_off_c, 1, 63, 0
2, 27720, Note_off_c, 1, 70, 0
2, 27760, Note_off_c, 1, 29, 0
2, 27760, Note_on_c, 1, 49, 127
2, 27760, Note_off_c, 1, 54, 0
2, 27760, Note_on_c, 1, 75, 127
2, 27760, Note_on_c, 1, 82, 127
2, 27800, Note_off_c, 1, 49, 0
2, 27800, Note_on_c, 1, 91, 127
2, 27840, Note_on_c, 1, 52, 127
2, 27840, Note_on_c, 1, 66, 127
2, 27840, Note_on_c, 1, 68, 127
2, 27840, Note_on_c, 1, 73, 127
2, 27840, Note_off_c, 1, 75, 0
2, 27840, Note_off_c, 1, 82, 0
2, 27840, Note_off_c, 1, 91, 0
2, 27880, Note_off_c, 1, 52, 0
2, 27880, Note_on_c, 1, 58, 127
2, 27880, Note_off_c, 1, 66, 0
2, 27880, Note_off_c, 1, 68, 0
2, 27880, Note_off_c, 1, 73, 0
2, 27880, Note_on_c, 1, 76, 127
2, 27880, Note_on_c, 1, 85, 127
2, 27920, Note_on_c, 1, 55, 127
2, 27920, Note_on_c, 1, 56, 127
2, 27920, Note_off_c, 1, 58, 0
2, 27920, Note_on_c, 1, 61, 127
2, 27920, Note_on_c, 1, 64, 127
2, 27920, Note_on_c, 1, 70, 127
2, 27920, Note_off_c, 1, 76, 0
2, 27920, Note_off_c, 1, 85, 0
2, 28280, Note_on_c, 1, 42, 127
2, 28280, Note_off_c, 1, 55, 0
2, 28280, Note_off_c, 1, 56, 0
2, 28280, Note_off_c, 1, 61, 0
2, 28280, Note_off_c, 1, 64, 0
2, 28280, Note_off_c, 1, 70, 0
2, 28280, Note_on_c, 1, 93, 127
2, 28280, Note_on_c, 1, 95, 127
2, 28320, Note_off_c, 1, 42, 0
2, 28320, Note_off_c, 1, 93, 0
2, 28320, Note_off_c, 1, 95, 0
2, 28360, Note_on_c, 1, 45, 127
2, 28360, Note_on_c, 1, 57, 127
2, 28360, Note_on_c, 1, 73, 127
2, 28360, Note_on_c, 1, 76, 127
2, 28360, Note_on_c, 1, 81, 127
2, 28360, Note_on_c, 1, 85, 127
2, 28720, Note_off_c, 1, 45, 0
2, 28720, Note_off_c, 1, 57, 0
2, 28720, Note_off_c, 1, 73, 0
2, 28720, Note_off_c, 1, 76, 0
2, 28720, Note_off_c, 1, 81, 0
2, 28720, Note_off_c, 1, 85, 0
2, 28760, Note_on_c, 1, 45, 127
2, 28760, Note_on_c, 1, 57, 127
2, 28760, Note_on_c, 1, 73, 127
2, 28760, Note_on_c, 1, 76, 127
2, 28760, Note_on_c, 1, 81, 127
2, 28760, Note_on_c, 1, 85, 127
2, 29120, Note_off_c, 1, 45, 0
2, 29120, Note_off_c, 1, 57, 0
2, 29120, Note_off_c, 1, 73, 0
2, 29120, Note_off_c, 1, 76, 0
2, 29120, Note_off_c, 1, 81, 0
2, 29120, Note_off_c, 1, 85, 0
2, 29160, Note_on_c, 1, 29, 127
2, 29160, Note_on_c, 1, 36, 127
2, 29160, Note_on_c, 1, 51, 127
2, 29160, Note_on_c, 1, 57, 127
2, 29200, Note_off_c, 1, 29, 0
2, 29200, Note_off_c, 1, 36, 0
2, 29200, Note_on_c, 1, 44, 127
2, 29200, Note_off_c, 1, 51, 0
2, 29200, Note_on_c, 1, 55, 127
2, 29200, Note_off_c, 1, 57, 0
2, 29200, Note_on_c, 1, 60, 127
2, 29200, Note_on_c, 1, 70, 127
2, 29240, Note_on_c, 1, 34, 127
2, 29240, Note_off_c, 1, 44, 0
2, 29240, Note_off_c, 1, 55, 0
2, 29240, Note_on_c, 1, 57, 127
2, 29240, Note_on_c, 1, 63, 127
2, 29240, Note_on_c, 1, 65, 127
2, 29240, Note_on_c, 1, 69, 127
2, 29240, Note_off_c, 1, 70, 0
2, 29240, Note_on_c, 1, 72, 127
2, 29240, Note_on_c, 1, 79, 127
2, 29280, Note_off_c, 1, 34, 0
2, 29280, Note_on_c, 1, 38, 127
2, 29280, Note_on_c, 1, 41, 127
2, 29280, Note_on_c, 1, 50, 127
2, 29280, Note_off_c, 1, 57, 0
2, 29280, Note_off_c, 1, 60, 0
2, 29280, Note_off_c, 1, 63, 0
2, 29280, Note_off_c, 1, 65, 0
2, 29280, Note_off_c, 1, 69, 0
2, 29280, Note_off_c, 1, 72, 0
2, 29280, Note_on_c, 1, 74, 127
2, 29280, Note_off_c, 1, 79, 0
2, 29280, Note_on_c, 1, 86, 127
2, 29320, Note_on_c, 1, 37, 127
2, 29320, Note_off_c, 1, 38, 0
2, 29320, Note_off_c, 1, 41, 0
2, 29320, Note_on_c, 1, 44, 127
2, 29320, Note_off_c, 1, 50, 0
2, 29320, Note_on_c, 1, 53, 127
2, 29320, Note_off_c, 1, 74, 0
2, 29320, Note_off_c, 1, 86, 0
2, 29360, Note_off_c, 1, 37, 0
2, 29360, Note_off_c, 1, 53, 0
2, 29360, Note_on_c, 1, 55, 127
2, 29360, Note_on_c, 1, 61, 127
2, 29360, Note_on_c, 1, 70, 127
2, 30560, Note_off_c, 1, 44, 0
2, 30560, Note_off_c, 1, 55, 0
2, 30560, Note_off_c, 1, 61, 0
2, 30560, Note_off_c, 1, 70, 0
2, 30640, Note_on_c, 1, 41, 127
2, 30640, Note_on_c, 1, 60, 127
2, 30640, Note_on_c, 1, 68, 127
2, 31600, Note_off_c, 1, 41, 0
2, 31600, Note_off_c, 1, 60, 0
2, 31600, Note_off_c, 1, 68, 0
2, 31640, Note_on_c, 1, 41, 127
2, 31640, Note_on_c, 1, 60, 127
2, 31640, Note_on_c, 1, 68, 127
2, 32800, Note_off_c, 1, 41, 0
2, 32800, Note_off_c, 1, 60, 0
2, 32800, Note_off_c, 1, 68, 0
2, 32880, Note_on_c, 1, 50, 127
2, 32880, Note_on_c, 1, 62, 127
2, 32880, Note_on_c, 1, 69, 127
2, 33640, Note_off_c, 1, 50, 0
2, 33640, Note_off_c, 1, 62, 0
2, 33640, Note_off_c, 1, 69, 0
2, 33680, Note_on_c, 1, 35, 127
2, 33680, Note_on_c, 1, 47, 127
2, 33680, Note_on_c, 1, 63, 127
2, 33680, Note_on_c, 1, 66, 127
2, 33680, Note_on_c, 1, 71, 127
2, 33680, Note_on_c, 1, 75, 127
2, 34840, Note_off_c, 1, 35, 0
2, 34840, Note_on_c, 1, 45, 127
2, 34840, Note_off_c, 1, 47, 0
2, 34840, Note_on_c, 1, 57, 127
2, 34840, Note_off_c, 1, 63, 0
2, 34840, Note_off_c, 1, 66, 0
2, 34840, Note_off_c, 1, 71, 0
2, 34840, Note_on_c, 1, 73, 127
2, 34840, Note_off_c, 1, 75, 0
2, 34840, Note_on_c, 1, 79, 127
2, 34880, Note_off_c, 1, 45, 0
2, 34880, Note_off_c, 1, 57, 0
2, 34880, Note_off_c, 1, 73, 0
2, 34880, Note_off_c, 1, 79, 0
2, 34920, Note_on_c, 1, 35, 127
2, 34920, Note_on_c, 1, 42, 127
2, 34920, Note_on_c, 1, 62, 127
2, 34920, Note_on_c, 1, 66, 127
2, 34960, Note_off_c, 1, 35, 0
2, 34960, Note_on_c, 1, 46, 127
2, 34960, Note_on_c, 1, 60, 127
2, 34960, Note_off_c, 1, 62, 0
2, 34960, Note_off_c, 1, 66, 0
2, 35000, Note_off_c, 1, 42, 0
2, 35000, Note_on_c, 1, 51, 127
2, 35000, Note_on_c, 1, 58, 127
2, 35000, Note_off_c, 1, 60, 0
2, 35000, Note_on_c, 1, 73, 127
2, 35000, Note_on_c, 1, 79, 127
2, 35000, Note_on_c, 1, 82, 127
2, 35040, Note_off_c, 1, 46, 0
2, 35040, Note_off_c, 1, 51, 0
2, 35040, Note_off_c, 1, 58, 0
2, 35040, Note_off_c, 1, 73, 0
2, 35040, Note_off_c, 1, 79, 0
2, 35040, Note_off_c, 1, 82, 0
2, 35080, Note_on_c, 1, 48, 127
2, 35080, Note_on_c, 1, 50, 127
2, 35080, Note_on_c, 1, 54, 127
2, 35080, Note_on_c, 1, 60, 127
2, 35080, Note_on_c, 1, 72, 127
2, 35080, Note_on_c, 1, 74, 127
2, 35080, Note_on_c, 1, 78, 127
2, 35080, Note_on_c, 1, 84, 127
2, 36040, Note_on_c, 1, 45, 127
2, 36040, Note_off_c, 1, 48, 0
2, 36040, Note_off_c, 1, 50, 0
2, 36040, Note_off_c, 1, 54, 0
2, 36040, Note_off_c, 1, 60, 0
2, 36040, Note_off_c, 1, 72, 0
2, 36040, Note_off_c, 1, 74, 0
2, 36040, Note_off_c, 1, 78, 0
2, 36040, Note_off_c, 1, 84, 0
2, 36080, Note_on_c, 1, 52, 127
2, 36080, Note_on_c, 1, 60, 127
2, 36080, Note_on_c, 1, 69, 127
2, 36080, Note_on_c, 1, 76, 127
2, 36080, Note_on_c, 1, 81, 127
2, 36640, Note_off_c, 1, 45, 0
2, 36640, Note_off_c, 1, 52, 0
2, 36640, Note_off_c, 1, 60, 0
2, 36640, Note_off_c, 1, 69, 0
2, 36640, Note_off_c, 1, 76, 0
2, 36640, Note_off_c, 1, 81, 0
2, 36680, Note_on_c, 1, 57, 127
2, 36680, Note_on_c, 1, 61, 127
2, 36680, Note_on_c, 1, 67, 127
2, 36680, Note_on_c, 1, 69, 127
2, 36680, Note_on_c, 1, 73, 127
2, 36680, Note_on_c, 1, 79, 127
2, 36680, Note_on_c, 1, 82, 127
2, 37080, Note_off_c, 1, 57, 0
2, 37080, Note_off_c, 1, 61, 0
2, 37080, Note_off_c, 1, 67, 0
2, 37080, Note_off_c, 1, 69, 0
2, 37080, Note_off_c, 1, 73, 0
2, 37080, Note_off_c, 1, 79, 0
2, 37080, Note_off_c, 1, 82, 0
2, 37120, Note_on_c, 1, 57, 127
2, 37120, Note_on_c, 1, 61, 127
2, 37120, Note_on_c, 1, 67, 127
2, 37120, Note_on_c, 1, 69, 127
2, 37120, Note_on_c, 1, 73, 127
2, 37120, Note_on_c, 1, 79, 127
2, 37120, Note_on_c, 1, 82, 127
2, 37480, Note_off_c, 1, 57, 0
2, 37480, Note_off_c, 1, 61, 0
2, 37480, Note_off_c, 1, 67, 0
2, 37480, Note_off_c, 1, 69, 0
2, 37480, Note_off_c, 1, 73, 0
2, 37480, Note_off_c, 1, 79, 0
2, 37480, Note_off_c, 1, 82, 0
2, 37520, Note_on_c, 1, 56, 127
2, 37520, Note_on_c, 1, 58, 127
2, 37520, Note_on_c, 1, 61, 127
2, 37520, Note_on_c, 1, 68, 127
2, 37520, Note_on_c, 1, 82, 127
2, 37520, Note_on_c, 1, 92, 127
2, 37520, Note_on_c, 1, 94, 127
2, 37560, Note_off_c, 1, 58, 0
2, 37560, Note_on_c, 1, 65, 127
2, 37560, Note_off_c, 1, 82, 0
2, 37560, Note_on_c, 1, 85, 127
2, 37560, Note_off_c, 1, 94, 0
2, 37560, Note_on_c, 1, 97, 127
2, 37640, Note_on_c, 1, 58, 127
2, 37640, Note_off_c, 1, 65, 0
2, 37640, Note_on_c, 1, 82, 127
2, 37640, Note_off_c, 1, 85, 0
2, 37640, Note_on_c, 1, 94, 127
2, 37640, Note_off_c, 1, 97, 0
2, 37920, Note_on_c, 1, 44, 127
2, 37920, Note_on_c, 1, 51, 127
2, 37920, Note_off_c, 1, 58, 0
2, 37920, Note_off_c, 1, 61, 0
2, 37920, Note_off_c, 1, 68, 0
2, 37920, Note_on_c, 1, 71, 127
2, 37920, Note_on_c, 1, 75, 127
2, 37920, Note_on_c, 1, 77, 127
2, 37920, Note_off_c, 1, 82, 0
2, 37920, Note_on_c, 1, 83, 127
2, 37920, Note_off_c, 1, 92, 0
2, 37920, Note_off_c, 1, 94, 0
2, 38280, Note_off_c, 1, 44, 0
2, 38280, Note_off_c, 1, 51, 0
2, 38280, Note_off_c, 1, 56, 0
2, 38280, Note_off_c, 1, 71, 0
2, 38280, Note_off_c, 1, 75, 0
2, 38280, Note_off_c, 1, 77, 0
2, 38280, Note_off_c, 1, 83, 0
2, 38320, Note_on_c, 1, 78, 127
2, 38320, Note_on_c, 1, 82, 127
2, 38320, Note_on_c, 1, 98, 127
2, 38360, Note_on_c, 1, 35, 127
2, 38360, Note_on_c, 1, 64, 127
2, 38360, Note_off_c, 1, 82, 0
2, 38360, Note_off_c, 1, 98, 0
2, 38400, Note_off_c, 1, 35, 0
2, 38400, Note_on_c, 1, 60, 127
2, 38400, Note_off_c, 1, 64, 0
2, 38400, Note_on_c, 1, 65, 127
2, 38400, Note_on_c, 1, 69, 127
2, 38400, Note_on_c, 1, 72, 127
2, 38400, Note_off_c, 1, 78, 0
2, 38400, Note_on_c, 1, 81, 127
2, 38400, Note_on_c, 1, 84, 127
2, 38400, Note_on_c, 1, 93, 127
2, 38440, Note_off_c, 1, 60, 0
2, 38440, Note_off_c, 1, 65, 0
2, 38440, Note_on_c, 1, 66, 127
2, 38440, Note_off_c, 1, 69, 0
2, 38440, Note_on_c, 1, 70, 127
2, 38440, Note_off_c, 1, 72, 0
2, 38440, Note_on_c, 1, 73, 127
2, 38440, Note_on_c, 1, 76, 127
2, 38440, Note_off_c, 1, 81, 0
2, 38440, Note_on_c, 1, 82, 127
2, 38440, Note_off_c, 1, 84, 0
2, 38440, Note_on_c, 1, 85, 127
2, 38440, Note_off_c, 1, 93, 0
2, 38480, Note_on_c, 1, 35, 127
2, 38480, Note_on_c, 1, 54, 127
2, 38480, Note_on_c, 1, 64, 127
2, 38480, Note_off_c, 1, 76, 0
2, 38480, Note_off_c, 1, 82, 0
2, 38480, Note_off_c, 1, 85, 0
2, 38520, Note_off_c, 1, 35, 0
2, 38520, Note_on_c, 1, 52, 127
2, 38520, Note_off_c, 1, 54, 0
2, 38520, Note_on_c, 1, 55, 127
2, 38520, Note_on_c, 1, 59, 127
2, 38520, Note_off_c, 1, 66, 0
2, 38520, Note_off_c, 1, 70, 0
2, 38520, Note_off_c, 1, 73, 0
2, 38520, Note_on_c, 1, 78, 127
2, 38560, Note_off_c, 1, 52, 0
2, 38560, Note_on_c, 1, 54, 127
2, 38560, Note_off_c, 1, 55, 0
2, 38560, Note_on_c, 1, 62, 127
2, 38560, Note_off_c, 1, 64, 0
2, 38560, Note_on_c, 1, 66, 127
2, 38560, Note_on_c, 1, 71, 127
2, 38560, Note_on_c, 1, 76, 127
2, 38560, Note_off_c, 1, 78, 0
2, 38600, Note_on_c, 1, 41, 127
2, 38600, Note_on_c, 1, 47, 127
2, 38600, Note_on_c, 1, 50, 127
2, 38600, Note_off_c, 1, 54, 0
2, 38600, Note_on_c, 1, 55, 127
2, 38600, Note_off_c, 1, 59, 0
2, 38600, Note_off_c, 1, 62, 0
2, 38600, Note_off_c, 1, 66, 0
2, 38600, Note_off_c, 1, 71, 0
2, 38600, Note_off_c, 1, 76, 0
2, 38640, Note_off_c, 1, 41, 0
2, 38640, Note_off_c, 1, 47, 0
2, 38640, Note_off_c, 1, 50, 0
2, 38640, Note_on_c, 1, 53, 127
2, 38640, Note_off_c, 1, 55, 0
2, 38640, Note_on_c, 1, 69, 127
2, 38640, Note_on_c, 1, 73, 127
2, 38640, Note_on_c, 1, 78, 127
2, 38640, Note_on_c, 1, 81, 127
2, 38680, Note_on_c, 1, 38, 127
2, 38680, Note_off_c, 1, 53, 0
2, 38680, Note_on_c, 1, 58, 127
2, 38680, Note_on_c, 1, 61, 127
2, 38680, Note_on_c, 1, 67, 127
2, 38680, Note_off_c, 1, 69, 0
2, 38680, Note_off_c, 1, 73, 0
2, 38680, Note_off_c, 1, 78, 0
2, 38680, Note_off_c, 1, 81, 0
2, 38720, Note_on_c, 1, 28, 127
2, 38720, Note_on_c, 1, 32, 127
2, 38720, Note_off_c, 1, 38, 0
2, 38720, Note_on_c, 1, 40, 127
2, 38720, Note_off_c, 1, 58, 0
2, 38720, Note_off_c, 1, 61, 0
2, 38720, Note_on_c, 1, 64, 127
2, 38720, Note_off_c, 1, 67, 0
2, 39080, Note_off_c, 1, 28, 0
2, 39080, Note_off_c, 1, 32, 0
2, 39080, Note_off_c, 1, 40, 0
2, 39080, Note_on_c, 1, 60, 127
2, 39080, Note_off_c, 1, 64, 0
2, 39120, Note_off_c, 1, 60, 0
2, 39160, Note_on_c, 1, 52, 127
2, 39160, Note_on_c, 1, 64, 127
2, 39160, Note_on_c, 1, 67, 127
2, 39160, Note_on_c, 1, 73, 127
2, 39160, Note_on_c, 1, 79, 127
2, 39200, Note_off_c, 1, 52, 0
2, 39200, Note_on_c, 1, 57, 127
2, 39200, Note_on_c, 1, 63, 127
2, 39200, Note_off_c, 1, 64, 0
2, 39200, Note_on_c, 1, 65, 127
2, 39200, Note_off_c, 1, 67, 0
2, 39200, Note_on_c, 1, 69, 127
2, 39200, Note_on_c, 1, 72, 127
2, 39200, Note_off_c, 1, 73, 0
2, 39200, Note_on_c, 1, 77, 127
2, 39200, Note_off_c, 1, 79, 0
2, 39240, Note_off_c, 1, 57, 0
2, 39240, Note_on_c, 1, 60, 127
2, 39240, Note_off_c, 1, 63, 0
2, 39240, Note_off_c, 1, 65, 0
2, 39240, Note_off_c, 1, 69, 0
2, 39240, Note_on_c, 1, 71, 127
2, 39240, Note_off_c, 1, 72, 0
2, 39240, Note_off_c, 1, 77, 0
2, 39240, Note_on_c, 1, 79, 127
2, 39240, Note_on_c, 1, 83, 127
2, 39280, Note_on_c, 1, 47, 127
2, 39280, Note_on_c, 1, 56, 127
2, 39280, Note_on_c, 1, 59, 127
2, 39280, Note_off_c, 1, 60, 0
2, 39280, Note_on_c, 1, 63, 127
2, 39280, Note_on_c, 1, 68, 127
2, 39280, Note_off_c, 1, 71, 0
2, 39280, Note_on_c, 1, 75, 127
2, 39280, Note_off_c, 1, 79, 0
2, 39280, Note_off_c, 1, 83, 0
2, 39320, Note_off_c, 1, 47, 0
2, 39320, Note_off_c, 1, 56, 0
2, 39320, Note_off_c, 1, 59, 0
2, 39320, Note_on_c, 1, 60, 127
2, 39320, Note_off_c, 1, 63, 0
2, 39320, Note_off_c, 1, 68, 0
2, 39320, Note_on_c, 1, 71, 127
2, 39320, Note_off_c, 1, 75, 0
2, 39320, Note_on_c, 1, 79, 127
2, 39320, Note_on_c, 1, 83, 127
2, 39360, Note_on_c, 1, 36, 127
2, 39360, Note_on_c, 1, 43, 127
2, 39360, Note_on_c, 1, 48, 127
2, 39360, Note_off_c, 1, 60, 0
2, 39360, Note_off_c, 1, 71, 0
2, 39360, Note_on_c, 1, 75, 127
2, 39360, Note_off_c, 1, 83, 0
2, 39360, Note_on_c, 1, 87, 127
2, 39440, Note_off_c, 1, 36, 0
2, 39440, Note_off_c, 1, 43, 0
2, 39440, Note_off_c, 1, 48, 0
2, 39440, Note_on_c, 1, 58, 127
2, 39440, Note_off_c, 1, 79, 0
2, 39440, Note_on_c, 1, 82, 127
2, 39440, Note_on_c, 1, 85, 127
2, 39480, Note_on_c, 1, 46, 127
2, 39480, Note_on_c, 1, 67, 127
2, 39480, Note_on_c, 1, 73, 127
2, 39480, Note_off_c, 1, 75, 0
2, 39480, Note_on_c, 1, 77, 127
2, 39480, Note_on_c, 1, 79, 127
2, 39480, Note_off_c, 1, 82, 0
2, 39480, Note_off_c, 1, 85, 0
2, 39480, Note_off_c, 1, 87, 0
2, 39520, Note_off_c, 1, 46, 0
2, 39520, Note_on_c, 1, 56, 127
2, 39520, Note_off_c, 1, 58, 0
2, 39520, Note_on_c, 1, 63, 127
2, 39520, Note_off_c, 1, 67, 0
2, 39520, Note_on_c, 1, 68, 127
2, 39520, Note_on_c, 1, 71, 127
2, 39520, Note_off_c, 1, 73, 0
2, 39520, Note_on_c, 1, 75, 127
2, 39520, Note_off_c, 1, 77, 0
2, 39520, Note_off_c, 1, 79, 0
2, 39520, Note_on_c, 1, 80, 127
2, 39520, Note_on_c, 1, 83, 127
2, 39560, Note_on_c, 1, 54, 127
2, 39560, Note_off_c, 1, 56, 0
2, 39560, Note_off_c, 1, 63, 0
2, 39560, Note_off_c, 1, 68, 0
2, 39560, Note_off_c, 1, 71, 0
2, 39560, Note_off_c, 1, 80, 0
2, 39560, Note_off_c, 1, 83, 0
2, 39560, Note_on_c, 1, 84, 127
2, 39560, Note_on_c, 1, 87, 127
2, 39600, Note_off_c, 1, 54, 0
2, 39600, Note_on_c, 1, 60, 127
2, 39600, Note_on_c, 1, 65, 127
2, 39600, Note_off_c, 1, 75, 0
2, 39600, Note_off_c, 1, 84, 0
2, 39600, Note_off_c, 1, 87, 0
2, 39600, Note_on_c, 1, 89, 127
2, 39600, Note_on_c, 1, 96, 127
2, 39640, Note_on_c, 1, 50, 127
2, 39640, Note_on_c, 1, 55, 127
2, 39640, Note_on_c, 1, 59, 127
2, 39640, Note_off_c, 1, 60, 0
2, 39640, Note_on_c, 1, 67, 127
2, 39640, Note_on_c, 1, 71, 127
2, 39640, Note_on_c, 1, 76, 127
2, 39640, Note_off_c, 1, 89, 0
2, 39640, Note_off_c, 1, 96, 0
2, 39680, Note_on_c, 1, 35, 127
2, 39680, Note_on_c, 1, 39, 127
2, 39680, Note_on_c, 1, 44, 127
2, 39680, Note_off_c, 1, 50, 0
2, 39680, Note_off_c, 1, 55, 0
2, 39680, Note_on_c, 1, 56, 127
2, 39680, Note_off_c, 1, 59, 0
2, 39680, Note_on_c, 1, 63, 127
2, 39680, Note_off_c, 1, 65, 0
2, 39680, Note_off_c, 1, 67, 0
2, 39680, Note_off_c, 1, 71, 0
2, 39680, Note_off_c, 1, 76, 0
2, 39720, Note_off_c, 1, 35, 0
2, 39720, Note_off_c, 1, 39, 0
2, 39720, Note_off_c, 1, 44, 0
2, 39720, Note_on_c, 1, 49, 127
2, 39720, Note_off_c, 1, 63, 0
2, 39720, Note_on_c, 1, 74, 127
2, 39760, Note_off_c, 1, 49, 0
2, 39760, Note_off_c, 1, 56, 0
2, 39760, Note_on_c, 1, 59, 127
2, 39760, Note_on_c, 1, 64, 127
2, 39760, Note_off_c, 1, 74, 0
2, 39760, Note_on_c, 1, 76, 127
2, 39760, Note_on_c, 1, 80, 127
2, 39760, Note_on_c, 1, 88, 127
2, 39920, Note_on_c, 1, 51, 127
2, 39920, Note_on_c, 1, 54, 127
2, 39920, Note_on_c, 1, 56, 127
2, 39920, Note_off_c, 1, 59, 0
2, 39920, Note_off_c, 1, 64, 0
2, 39920, Note_on_c, 1, 70, 127
2, 39920, Note_off_c, 1, 76, 0
2, 39920, Note_off_c, 1, 80, 0
2, 39920, Note_off_c, 1, 88, 0
2, 39960, Note_on_c, 1, 29, 127
2, 39960, Note_off_c, 1, 51, 0
2, 39960, Note_on_c, 1, 53, 127
2, 39960, Note_off_c, 1, 54, 0
2, 39960, Note_on_c, 1, 63, 127
2, 39960, Note_off_c, 1, 70, 0
2, 39960, Note_on_c, 1, 75, 127
2, 40000, Note_off_c, 1, 29, 0
2, 40000, Note_off_c, 1, 53, 0
2, 40000, Note_off_c, 1, 56, 0
2, 40000, Note_on_c, 1, 60, 127
2, 40000, Note_off_c, 1, 63, 0
2, 40000, Note_on_c, 1, 67, 127
2, 40000, Note_on_c, 1, 70, 127
2, 40000, Note_on_c, 1, 73, 127
2, 40000, Note_off_c, 1, 75, 0
2, 40000, Note_on_c, 1, 85, 127
2, 40080, Note_on_c, 1, 63, 127
2, 40080, Note_off_c, 1, 67, 0
2, 40080, Note_on_c, 1, 68, 127
2, 40080, Note_off_c, 1, 70, 0
2, 40080, Note_off_c, 1, 73, 0
2, 40080, Note_on_c, 1, 84, 127
2, 40080, Note_off_c, 1, 85, 0
2, 40080, Note_on_c, 1, 87, 127
2, 40080, Note_on_c, 1, 92, 127
2, 40120, Note_off_c, 1, 63, 0
2, 40120, Note_on_c, 1, 67, 127
2, 40120, Note_off_c, 1, 68, 0
2, 40120, Note_on_c, 1, 70, 127
2, 40120, Note_on_c, 1, 73, 127
2, 40120, Note_off_c, 1, 84, 0
2, 40120, Note_on_c, 1, 85, 127
2, 40120, Note_off_c, 1, 87, 0
2, 40120, Note_off_c, 1, 92, 0
2, 40720, Note_off_c, 1, 60, 0
2, 40720, Note_off_c, 1, 67, 0
2, 40720, Note_off_c, 1, 70, 0
2, 40720, Note_off_c, 1, 73, 0
2, 40720, Note_off_c, 1, 85, 0
2, 40760, Note_on_c, 1, 39, 127
2, 40760, Note_on_c, 1, 53, 127
2, 40760, Note_on_c, 1, 80, 127
2, 40800, Note_on_c, 1, 35, 127
2, 40800, Note_off_c, 1, 39, 0
2, 40800, Note_on_c, 1, 42, 127
2, 40800, Note_on_c, 1, 49, 127
2, 40800, Note_off_c, 1, 53, 0
2, 40800, Note_on_c, 1, 58, 127
2, 40800, Note_off_c, 1, 80, 0
2, 41160, Note_off_c, 1, 35, 0
2, 41160, Note_off_c, 1, 42, 0
2, 41160, Note_off_c, 1, 49, 0
2, 41160, Note_off_c, 1, 58, 0
2, 41200, Note_on_c, 1, 35, 127
2, 41200, Note_on_c, 1, 42, 127
2, 41200, Note_on_c, 1, 49, 127
2, 41200, Note_on_c, 1, 58, 127
2, 41960, Note_off_c, 1, 35, 0
2, 41960, Note_off_c, 1, 42, 0
2, 41960, Note_off_c, 1, 49, 0
2, 41960, Note_off_c, 1, 58, 0
2, 42000, Note_on_c, 1, 65, 127
2, 42000, Note_on_c, 1, 66, 127
2, 42000, Note_on_c, 1, 70, 127
2, 42000, Note_on_c, 1, 77, 127
2, 42000, Note_on_c, 1, 82, 127
2, 42000, Note_on_c, 1, 89, 127
2, 42960, Note_on_c, 1, 37, 127
2, 42960, Note_on_c, 1, 46, 127
2, 42960, Note_on_c, 1, 49, 127
2, 42960, Note_off_c, 1, 65, 0
2, 42960, Note_off_c, 1, 66, 0
2, 42960, Note_off_c, 1, 70, 0
2, 42960, Note_off_c, 1, 77, 0
2, 42960, Note_on_c, 1, 79, 127
2, 42960, Note_off_c, 1, 82, 0
2, 42960, Note_on_c, 1, 87, 127
2, 42960, Note_off_c, 1, 89, 0
2, 42960, Note_on_c, 1, 91, 127
2, 43000, Note_off_c, 1, 37, 0
2, 43000, Note_off_c, 1, 46, 0
2, 43000, Note_on_c, 1, 47, 127
2, 43000, Note_off_c, 1, 49, 0
2, 43000, Note_on_c, 1, 66, 127
2, 43000, Note_on_c, 1, 73, 127
2, 43000, Note_on_c, 1, 78, 127
2, 43000, Note_off_c, 1, 79, 0
2, 43000, Note_off_c, 1, 87, 0
2, 43000, Note_off_c, 1, 91, 0
2, 43320, Note_on_c, 1, 50, 127
2, 43320, Note_on_c, 1, 56, 127
2, 43320, Note_on_c, 1, 59, 127
2, 43320, Note_on_c, 1, 64, 127
2, 43320, Note_off_c, 1, 66, 0
2, 43320, Note_off_c, 1, 73, 0
2, 43320, Note_off_c, 1, 78, 0
2, 43360, Note_off_c, 1, 47, 0
2, 43360, Note_off_c, 1, 50, 0
2, 43360, Note_off_c, 1, 56, 0
2, 43360, Note_off_c, 1, 59, 0
2, 43360, Note_off_c, 1, 64, 0
2, 43440, Note_on_c, 1, 47, 127
2, 43440, Note_on_c, 1, 62, 127
2, 43440, Note_on_c, 1, 68, 127
2, 43440, Note_on_c, 1, 72, 127
2, 43440, Note_on_c, 1, 76, 127
2, 43480, Note_on_c, 1, 40, 127
2, 43480, Note_off_c, 1, 47, 0
2, 43480, Note_off_c, 1, 62, 0
2, 43480, Note_off_c, 1, 68, 0
2, 43480, Note_off_c, 1, 72, 0
2, 43480, Note_off_c, 1, 76, 0
2, 43480, Note_on_c, 1, 79, 127
2, 43480, Note_on_c, 1, 88, 127
2, 43520, Note_off_c, 1, 40, 0
2, 43520, Note_on_c, 1, 47, 127
2, 43520, Note_on_c, 1, 62, 127
2, 43520, Note_on_c, 1, 68, 127
2, 43520, Note_on_c, 1, 72, 127
2, 43520, Note_on_c, 1, 76, 127
2, 43520, Note_off_c, 1, 79, 0
2, 43520, Note_off_c, 1, 88, 0
2, 43600, Note_on_c, 1, 40, 127
2, 43600, Note_off_c, 1, 47, 0
2, 43600, Note_off_c, 1, 62, 0
2, 43600, Note_off_c, 1, 68, 0
2, 43600, Note_off_c, 1, 72, 0
2, 43600, Note_off_c, 1, 76, 0
2, 43600, Note_on_c, 1, 79, 127
2, 43600, Note_on_c, 1, 88, 127
2, 43640, Note_off_c, 1, 40, 0
2, 43640, Note_on_c, 1, 56, 127
2, 43640, Note_on_c, 1, 59, 127
2, 43640, Note_on_c, 1, 62, 127
2, 43640, Note_on_c, 1, 65, 127
2, 43640, Note_off_c, 1, 79, 0
2, 45200, Note_off_c, 1, 88, 0
2, 45600, Note_off_c, 1, 56, 0
2, 45600, Note_off_c, 1, 59, 0
2, 45600, Note_off_c, 1, 62, 0
2, 45600, Note_off_c, 1, 65, 0
2, 45640, Note_on_c, 1, 56, 127
2, 45640, Note_on_c, 1, 59, 127
2, 45640, Note_on_c, 1, 62, 127
2, 45640, Note_on_c, 1, 65, 127
2, 46080, Note_on_c, 1, 85, 127
2, 46440, Note_off_c, 1, 85, 0
2, 46480, Note_on_c, 1, 71, 127
2, 46840, Note_off_c, 1, 71, 0
2, 47680, Note_on_c, 1, 71, 127
2, 47840, Note_off_c, 1, 71, 0
2, 47880, Note_off_c, 1, 56, 0
2, 47880, Note_off_c, 1, 59, 0
2, 47880, Note_off_c, 1, 62, 0
2, 47880, Note_off_c, 1, 65, 0
2, 47920, Note_on_c, 1, 56, 127
2, 47920, Note_on_c, 1, 59, 127
2, 47920, Note_on_c, 1, 62, 127
2, 47920, Note_on_c, 1, 65, 127
2, 47920, Note_on_c, 1, 71, 127
2, 48160, Note_off_c, 1, 71, 0
2, 48200, Note_on_c, 1, 71, 127
2, 48280, Note_off_c, 1, 71, 0
2, 48320, Note_off_c, 1, 59, 0
2, 48320, Note_off_c, 1, 62, 0
2, 48320, Note_off_c, 1, 65, 0
2, 48320, Note_on_c, 1, 77, 127
2, 48320, Note_on_c, 1, 87, 127
2, 48680, Note_off_c, 1, 56, 0
2, 48680, Note_off_c, 1, 87, 0
2, 48720, Note_on_c, 1, 51, 127
2, 48720, Note_on_c, 1, 68, 127
2, 50120, Note_off_c, 1, 51, 0
2, 50120, Note_off_c, 1, 68, 0
2, 50120, Note_off_c, 1, 77, 0
2, 50160, Note_on_c, 1, 51, 127
2, 50160, Note_on_c, 1, 68, 127
2, 50160, Note_on_c, 1, 77, 127
2, 52360, Note_off_c, 1, 51, 0
2, 52360, Note_off_c, 1, 68, 0
2, 52360, Note_off_c, 1, 77, 0
2, 52400, Note_on_c, 1, 51, 127
2, 52400, Note_on_c, 1, 68, 127
2, 52400, Note_on_c, 1, 77, 127
2, 54760, Note_off_c, 1, 51, 0
2, 54760, Note_off_c, 1, 68, 0
2, 54760, Note_off_c, 1, 77, 0
2, 54800, Note_on_c, 1, 51, 127
2, 54800, Note_on_c, 1, 68, 127
2, 54800, Note_on_c, 1, 77, 127
2, 57000, Note_off_c, 1, 51, 0
2, 57000, Note_off_c, 1, 68, 0
2, 57000, Note_off_c, 1, 77, 0
2, 57040, Note_on_c, 1, 51, 127
2, 57040, Note_on_c, 1, 68, 127
2, 57040, Note_on_c, 1, 77, 127
2, 58800, Note_off_c, 1, 68, 0
2, 58800, Note_off_c, 1, 77, 0
2, 58840, Note_off_c, 1, 51, 0
2, 58880, Note_on_c, 1, 51, 127
2, 58880, Note_on_c, 1, 58, 127
2, 58880, Note_on_c, 1, 73, 127
2, 59440, Note_off_c, 1, 51, 0
2, 59440, Note_off_c, 1, 58, 0
2, 59440, Note_off_c, 1, 73, 0
2, 59480, Note_on_c, 1, 44, 127
2, 59480, Note_on_c, 1, 60, 127
2, 59480, Note_on_c, 1, 63, 127
2, 59480, Note_on_c, 1, 70, 127
2, 60880, Note_off_c, 1, 44, 0
2, 60880, Note_off_c, 1, 60, 0
2, 60880, Note_off_c, 1, 63, 0
2, 60880, Note_off_c, 1, 70, 0
2, 60920, Note_on_c, 1, 44, 127
2, 60920, Note_on_c, 1, 60, 127
2, 60920, Note_on_c, 1, 63, 127
2, 60920, Note_on_c, 1, 70, 127
2, 63120, Note_off_c, 1, 44, 0
2, 63120, Note_off_c, 1, 60, 0
2, 63120, Note_off_c, 1, 63, 0
2, 63120, Note_off_c, 1, 70, 0
2, 63160, Note_on_c, 1, 44, 127
2, 63160, Note_on_c, 1, 60, 127
2, 63160, Note_on_c, 1, 63, 127
2, 63160, Note_on_c, 1, 70, 127
2, 65360, Note_off_c, 1, 44, 0
2, 65360, Note_off_c, 1, 60, 0
2, 65360, Note_off_c, 1, 63, 0
2, 65360, Note_off_c, 1, 70, 0
2, 65400, Note_on_c, 1, 44, 127
2, 65400, Note_on_c, 1, 60, 127
2, 65400, Note_on_c, 1, 63, 127
2, 65400, Note_on_c, 1, 70, 127
2, 67360, Note_off_c, 1, 44, 0
2, 67360, Note_off_c, 1, 60, 0
2, 67360, Note_off_c, 1, 63, 0
2, 67360, Note_off_c, 1, 70, 0
2, 67440, Note_on_c, 1, 44, 127
2, 67440, Note_on_c, 1, 60, 127
2, 67440, Note_on_c, 1, 63, 127
2, 69000, Note_off_c, 1, 44, 0
2, 69000, Note_off_c, 1, 60, 0
2, 69000, Note_off_c, 1, 63, 0
2, 69040, Note_on_c, 1, 39, 127
2, 69040, Note_on_c, 1, 51, 127
2, 69040, Note_on_c, 1, 61, 127
2, 69040, Note_on_c, 1, 67, 127
2, 69480, Note_off_c, 1, 39, 0
2, 69480, Note_off_c, 1, 51, 0
2, 69480, Note_off_c, 1, 61, 0
2, 69480, Note_off_c, 1, 67, 0
2, 69520, Note_on_c, 1, 39, 127
2, 69520, Note_on_c, 1, 51, 127
2, 69520, Note_on_c, 1, 61, 127
2, 69520, Note_on_c, 1, 67, 127
2, 70200, Note_off_c, 1, 39, 0
2, 70200, Note_off_c, 1, 51, 0
2, 70200, Note_off_c, 1, 61, 0
2, 70200, Note_off_c, 1, 67, 0
2, 70240, Note_on_c, 1, 49, 127
2, 70240, Note_on_c, 1, 55, 127
2, 70240, Note_on_c, 1, 64, 127
2, 70240, Note_on_c, 1, 70, 127
2, 71400, Note_off_c, 1, 49, 0
2, 71400, Note_off_c, 1, 55, 0
2, 71400, Note_off_c, 1, 64, 0
2, 71400, Note_off_c, 1, 70, 0
2, 71480, Note_on_c, 1, 44, 127
2, 71480, Note_on_c, 1, 63, 127
2, 72000, Note_off_c, 1, 44, 0
2, 72080, Note_on_c, 1, 44, 127
2, 72440, Note_off_c, 1, 44, 0
2, 73840, Note_off_c, 1, 63, 0
2, 73880, Note_on_c, 1, 63, 127
2, 74720, Note_on_c, 1, 55, 127
2, 74720, Note_on_c, 1, 58, 127
2, 74720, Note_on_c, 1, 62, 127
2, 74720, Note_off_c, 1, 63, 0
2, 74720, Note_on_c, 1, 67, 127
2, 74720, Note_on_c, 1, 70, 127
2, 75280, Note_off_c, 1, 55, 0
2, 75280, Note_off_c, 1, 58, 0
2, 75280, Note_off_c, 1, 62, 0
2, 75280, Note_on_c, 1, 65, 127
2, 75280, Note_off_c, 1, 67, 0
2, 75280, Note_off_c, 1, 70, 0
2, 75680, Note_off_c, 1, 65, 0
2, 75720, Note_on_c, 1, 73, 127
2, 76120, Note_off_c, 1, 73, 0
2, 76160, Note_on_c, 1, 73, 127
2, 76320, Note_off_c, 1, 73, 0
2, 76320, Note_on_c, 1, 76, 127
2, 78360, Note_off_c, 1, 76, 0
2, 78400, Note_on_c, 1, 76, 127
2, 80400, Note_off_c, 1, 76, 0
2, 80440, Note_on_c, 1, 76, 127
2, 81480, Note_off_c, 1, 76, 0
2, 81520, Note_on_c, 1, 75, 127
2, 81800, Note_off_c, 1, 75, 0
2, 81840, Note_on_c, 1, 76, 127
2, 82200, Note_off_c, 1, 76, 0
2, 82240, Note_on_c, 1, 45, 127
2, 82240, Note_on_c, 1, 48, 127
2, 82240, Note_on_c, 1, 53, 127
2, 82240, Note_on_c, 1, 63, 127
2, 82600, Note_off_c, 1, 45, 0
2, 82600, Note_off_c, 1, 48, 0
2, 82600, Note_off_c, 1, 53, 0
2, 82600, Note_off_c, 1, 63, 0
2, 82640, Note_on_c, 1, 45, 127
2, 82640, Note_on_c, 1, 63, 127
2, 82680, Note_on_c, 1, 53, 127
2, 83040, Note_off_c, 1, 63, 0
2, 83440, Note_off_c, 1, 45, 0
2, 83440, Note_off_c, 1, 53, 0
2, 83480, Note_on_c, 1, 45, 127
2, 83480, Note_on_c, 1, 57, 127
2, 84880, Note_off_c, 1, 45, 0
2, 84880, Note_off_c, 1, 57, 0
2, 84920, Note_on_c, 1, 45, 127
2, 84920, Note_on_c, 1, 57, 127
2, 85280, Note_off_c, 1, 45, 0
2, 85280, Note_off_c, 1, 57, 0
2, 85320, Note_on_c, 1, 50, 127
2, 85320, Note_on_c, 1, 65, 127
2, 85680, Note_off_c, 1, 50, 0
2, 85720, Note_on_c, 1, 46, 127
2, 86080, Note_off_c, 1, 46, 0
2, 86120, Note_on_c, 1, 53, 127
2, 86480, Note_off_c, 1, 53, 0
2, 86520, Note_on_c, 1, 57, 127
2, 86880, Note_off_c, 1, 57, 0
2, 86880, Note_off_c, 1, 65, 0
2, 86960, Note_on_c, 1, 32, 127
2, 86960, Note_on_c, 1, 44, 127
2, 86960, Note_on_c, 1, 63, 127
2, 87360, Note_off_c, 1, 32, 0
2, 87360, Note_on_c, 1, 33, 127
2, 87360, Note_off_c, 1, 44, 0
2, 87360, Note_on_c, 1, 45, 127
2, 87360, Note_off_c, 1, 63, 0
2, 87360, Note_on_c, 1, 69, 127
2, 87360, Note_on_c, 1, 72, 127
2, 87720, Note_off_c, 1, 33, 0
2, 87720, Note_off_c, 1, 45, 0
2, 87720, Note_off_c, 1, 69, 0
2, 87720, Note_off_c, 1, 72, 0
2, 87760, Note_on_c, 1, 35, 127
2, 87760, Note_on_c, 1, 47, 127
2, 87760, Note_on_c, 1, 66, 127
2, 88160, Note_on_c, 1, 59, 127
2, 88160, Note_off_c, 1, 66, 0
2, 89120, Note_off_c, 1, 35, 0
2, 89120, Note_off_c, 1, 47, 0
2, 89120, Note_off_c, 1, 59, 0
2, 89160, Note_on_c, 1, 59, 127
2, 89360, Note_off_c, 1, 59, 0
2, 89400, Note_on_c, 1, 59, 127
2, 89560, Note_off_c, 1, 59, 0
2, 89600, Note_on_c, 1, 64, 127
2, 89960, Note_on_c, 1, 52, 127
2, 90000, Note_off_c, 1, 52, 0
2, 90800, Note_on_c, 1, 63, 127
2, 90800, Note_off_c, 1, 64, 0
2, 90800, Note_on_c, 1, 66, 127
2, 90800, Note_on_c, 1, 69, 127
2, 91400, Note_off_c, 1, 63, 0
2, 91400, Note_off_c, 1, 66, 0
2, 91400, Note_off_c, 1, 69, 0
2, 91440, Note_on_c, 1, 63, 127
2, 91440, Note_on_c, 1, 66, 127
2, 91440, Note_on_c, 1, 69, 127
2, 93400, Note_off_c, 1, 63, 0
2, 93400, Note_off_c, 1, 66, 0
2, 93400, Note_off_c, 1, 69, 0
2, 93480, Note_on_c, 1, 59, 127
2, 93480, Note_on_c, 1, 64, 127
2, 93480, Note_on_c, 1, 68, 127
2, 93840, Note_off_c, 1, 59, 0
2, 93840, Note_off_c, 1, 64, 0
2, 93840, Note_off_c, 1, 68, 0
2, 93880, Note_on_c, 1, 39, 127
2, 93880, Note_on_c, 1, 58, 127
2, 93880, Note_on_c, 1, 63, 127
2, 95040, Note_off_c, 1, 39, 0
2, 95040, Note_off_c, 1, 63, 0
2, 95080, Note_on_c, 1, 63, 127
2, 95480, Note_off_c, 1, 58, 0
2, 95480, Note_off_c, 1, 63, 0
2, 95520, Note_on_c, 1, 58, 127
2, 95520, Note_on_c, 1, 63, 127
2, 97080, Note_off_c, 1, 58, 0
2, 97080, Note_off_c, 1, 63, 0
2, 97120, Note_on_c, 1, 58, 127
2, 97120, Note_on_c, 1, 61, 127
2, 97120, Note_on_c, 1, 67, 127
2, 97640, Note_off_c, 1, 58, 0
2, 97640, Note_off_c, 1, 61, 0
2, 97640, Note_off_c, 1, 67, 0
2, 97680, Note_on_c, 1, 58, 127
2, 97680, Note_on_c, 1, 61, 127
2, 97680, Note_on_c, 1, 67, 127
2, 97920, Note_off_c, 1, 58, 0
2, 97920, Note_off_c, 1, 61, 0
2, 97920, Note_off_c, 1, 67, 0
2, 97960, Note_on_c, 1, 32, 127
2, 99320, Note_off_c, 1, 32, 0
2, 99360, Note_on_c, 1, 39, 127
2, 100080, Note_off_c, 1, 39, 0
2, 100120, Note_on_c, 1, 39, 127
2, 101760, Note_off_c, 1, 39, 0
2, 101800, Note_on_c, 1, 39, 127
2, 102160, Note_off_c, 1, 39, 0
2, 102200, Note_on_c, 1, 37, 127
2, 102200, Note_on_c, 1, 61, 127
2, 102400, Note_off_c, 1, 37, 0
2, 102400, Note_off_c, 1, 61, 0
2, 102440, Note_on_c, 1, 37, 127
2, 102440, Note_on_c, 1, 61, 127
2, 102640, Note_off_c, 1, 37, 0
2, 102640, Note_off_c, 1, 61, 0
2, 102680, Note_on_c, 1, 58, 127
2, 102680, Note_on_c, 1, 65, 127
2, 103240, Note_off_c, 1, 58, 0
2, 103240, Note_off_c, 1, 65, 0
2, 103280, Note_on_c, 1, 55, 127
2, 103280, Note_on_c, 1, 58, 127
2, 104040, Note_off_c, 1, 55, 0
2, 104040, Note_off_c, 1, 58, 0
2, 104080, Note_on_c, 1, 58, 127
2, 104080, Note_on_c, 1, 61, 127
2, 104680, Note_off_c, 1, 58, 0
2, 104680, Note_off_c, 1, 61, 0
2, 104720, Note_on_c, 1, 58, 127
2, 104720, Note_on_c, 1, 61, 127
2, 104880, Note_off_c, 1, 58, 0
2, 104880, Note_off_c, 1, 61, 0
2, 104920, Note_on_c, 1, 51, 127
2, 104920, Note_on_c, 1, 55, 127
2, 104920, Note_on_c, 1, 58, 127
2, 105680, Note_off_c, 1, 51, 0
2, 105680, Note_off_c, 1, 55, 0
2, 105680, Note_off_c, 1, 58, 0
2, 105720, Note_on_c, 1, 44, 127
2, 105720, Note_on_c, 1, 53, 127
2, 105720, Note_on_c, 1, 59, 127
2, 105720, Note_on_c, 1, 63, 127
2, 106480, Note_off_c, 1, 44, 0
2, 106480, Note_off_c, 1, 53, 0
2, 106480, Note_off_c, 1, 59, 0
2, 106480, Note_off_c, 1, 63, 0
2, 106520, Note_on_c, 1, 39, 127
2, 106520, Note_on_c, 1, 51, 127
2, 106520, Note_on_c, 1, 70, 127
2, 106520, Note_on_c, 1, 76, 127
2, 106520, Note_on_c, 1, 80, 127
2, 106880, Note_off_c, 1, 39, 0
2, 106880, Note_off_c, 1, 51, 0
2, 106880, Note_off_c, 1, 70, 0
2, 106880, Note_off_c, 1, 76, 0
2, 106880, Note_off_c, 1, 80, 0
2, 106920, Note_on_c, 1, 39, 127
2, 106920, Note_on_c, 1, 51, 127
2, 106920, Note_on_c, 1, 70, 127
2, 106920, Note_on_c, 1, 76, 127
2, 106920, Note_on_c, 1, 80, 127
2, 107120, Note_off_c, 1, 39, 0
2, 107120, Note_off_c, 1, 51, 0
2, 107120, Note_off_c, 1, 70, 0
2, 107120, Note_off_c, 1, 76, 0
2, 107120, Note_off_c, 1, 80, 0
2, 107160, Note_on_c, 1, 68, 127
2, 107160, Note_on_c, 1, 71, 127
2, 107160, Note_on_c, 1, 76, 127
2, 107160, Note_on_c, 1, 83, 127
2, 107160, Note_on_c, 1, 88, 127
2, 109160, Note_off_c, 1, 68, 0
2, 109160, Note_off_c, 1, 71, 0
2, 109160, Note_off_c, 1, 76, 0
2, 109160, Note_off_c, 1, 83, 0
2, 109160, Note_off_c, 1, 88, 0
2, 109200, Note_on_c, 1, 68, 127
2, 109200, Note_on_c, 1, 71, 127
2, 109200, Note_on_c, 1, 76, 127
2, 109200, Note_on_c, 1, 83, 127
2, 109200, Note_on_c, 1, 88, 127
2, 110160, Note_off_c, 1, 68, 0
2, 110160, Note_off_c, 1, 71, 0
2, 110160, Note_off_c, 1, 76, 0
2, 110160, Note_off_c, 1, 83, 0
2, 110160, Note_off_c, 1, 88, 0
2, 110200, Note_on_c, 1, 42, 127
2, 110200, Note_on_c, 1, 54, 127
2, 110200, Note_on_c, 1, 69, 127
2, 110200, Note_on_c, 1, 81, 127
2, 110760, Note_on_c, 1, 40, 127
2, 110760, Note_off_c, 1, 42, 0
2, 110760, Note_on_c, 1, 52, 127
2, 110760, Note_off_c, 1, 54, 0
2, 110760, Note_off_c, 1, 69, 0
2, 110760, Note_on_c, 1, 71, 127
2, 110760, Note_off_c, 1, 81, 0
2, 110760, Note_on_c, 1, 83, 127
2, 111360, Note_off_c, 1, 40, 0
2, 111360, Note_off_c, 1, 52, 0
2, 111400, Note_off_c, 1, 71, 0
2, 111400, Note_off_c, 1, 83, 0
2, 111440, Note_on_c, 1, 40, 127
2, 111440, Note_on_c, 1, 52, 127
2, 111440, Note_on_c, 1, 71, 127
2, 111440, Note_on_c, 1, 83, 127
2, 112600, Note_off_c, 1, 40, 0
2, 112600, Note_on_c, 1, 42, 127
2, 112600, Note_off_c, 1, 52, 0
2, 112600, Note_off_c, 1, 71, 0
2, 112600, Note_on_c, 1, 81, 127
2, 112600, Note_off_c, 1, 83, 0
2, 113640, Note_off_c, 1, 42, 0
2, 113640, Note_off_c, 1, 81, 0
2, 113680, Note_on_c, 1, 42, 127
2, 113680, Note_on_c, 1, 81, 127
2, 114440, Note_off_c, 1, 81, 0
2, 114480, Note_off_c, 1, 42, 0
2, 114480, Note_on_c, 1, 69, 127
2, 114480, Note_on_c, 1, 79, 127
2, 114480, Note_on_c, 1, 84, 127
2, 114480, Note_on_c, 1, 86, 127
2, 114480, Note_on_c, 1, 91, 127
2, 114520, Note_on_c, 1, 59, 127
2, 114520, Note_on_c, 1, 66, 127
2, 114520, Note_on_c, 1, 74, 127
2, 114520, Note_on_c, 1, 78, 127
2, 114520, Note_off_c, 1, 79, 0
2, 114520, Note_off_c, 1, 84, 0
2, 114520, Note_off_c, 1, 86, 0
2, 114520, Note_on_c, 1, 90, 127
2, 114520, Note_off_c, 1, 91, 0
2, 114560, Note_on_c, 1, 56, 127
2, 114560, Note_off_c, 1, 59, 0
2, 114560, Note_on_c, 1, 63, 127
2, 114560, Note_off_c, 1, 69, 0
2, 114560, Note_on_c, 1, 70, 127
2, 114560, Note_off_c, 1, 74, 0
2, 114560, Note_on_c, 1, 75, 127
2, 114560, Note_off_c, 1, 78, 0
2, 114560, Note_off_c, 1, 90, 0
2, 114600, Note_off_c, 1, 56, 0
2, 114600, Note_on_c, 1, 59, 127
2, 114600, Note_off_c, 1, 63, 0
2, 114600, Note_on_c, 1, 69, 127
2, 114600, Note_off_c, 1, 70, 0
2, 114600, Note_on_c, 1, 74, 127
2, 114600, Note_off_c, 1, 75, 0
2, 114600, Note_on_c, 1, 78, 127
2, 114600, Note_on_c, 1, 90, 127
2, 114880, Note_on_c, 1, 86, 127
2, 114880, Note_off_c, 1, 90, 0
2, 114960, Note_off_c, 1, 86, 0
2, 114960, Note_on_c, 1, 90, 127
2, 115000, Note_on_c, 1, 86, 127
2, 115000, Note_off_c, 1, 90, 0
2, 115040, Note_off_c, 1, 59, 0
2, 115040, Note_off_c, 1, 66, 0
2, 115040, Note_on_c, 1, 71, 127
2, 115040, Note_off_c, 1, 74, 0
2, 115040, Note_off_c, 1, 78, 0
2, 115040, Note_on_c, 1, 85, 127
2, 115040, Note_off_c, 1, 86, 0
2, 115080, Note_on_c, 1, 64, 127
2, 115080, Note_off_c, 1, 69, 0
2, 115080, Note_off_c, 1, 71, 0
2, 115080, Note_on_c, 1, 73, 127
2, 115080, Note_on_c, 1, 81, 127
2, 115800, Note_off_c, 1, 64, 0
2, 115800, Note_off_c, 1, 73, 0
2, 115800, Note_off_c, 1, 81, 0
2, 115800, Note_off_c, 1, 85, 0
2, 115840, Note_on_c, 1, 64, 127
2, 115840, Note_on_c, 1, 73, 127
2, 115840, Note_on_c, 1, 81, 127
2, 115840, Note_on_c, 1, 85, 127
2, 118800, Note_off_c, 1, 64, 0
2, 118800, Note_off_c, 1, 73, 0
2, 118800, Note_off_c, 1, 81, 0
2, 118800, Note_off_c, 1, 85, 0
2, 118840, Note_on_c, 1, 64, 127
2, 118840, Note_on_c, 1, 73, 127
2, 118840, Note_on_c, 1, 81, 127
2, 118840, Note_on_c, 1, 85, 127
2, 120000, Note_off_c, 1, 64, 0
2, 120000, Note_off_c, 1, 73, 0
2, 120000, Note_off_c, 1, 81, 0
2, 120000, Note_off_c, 1, 85, 0
2, 120040, End_track
3, 0, Start_track
3, 0, Title_t, "MIDI"
3, 1536, End_track
0, 0, End_of_file
