0, 0, Header, 1, 3, 192
1, 0, Start_track
1, 0, Time_signature, 4, 2, 24, 8
1, 0, Tempo, 500000
1, 120040, End_track
2, 0, Start_track
2, 0, Text_t, "random instrument: random person i dunno whatev"
2, 0, Title_t, "Track 1"
2, 0, Note_on_c, 1, 58, 127
2, 0, Note_on_c, 1, 66, 127
2, 0, Note_on_c, 1, 78, 127
2, 0, Note_on_c, 1, 82, 127
2, 0, Note_on_c, 1, 90, 127
2, 40, Note_off_c, 1, 58, 0
2, 40, Note_on_c, 1, 59, 127
2, 40, Note_off_c, 1, 66, 0
2, 40, Note_on_c, 1, 74, 127
2, 40, Note_off_c, 1, 82, 0
2, 40, Note_on_c, 1, 83, 127
2, 40, Note_on_c, 1, 86, 127
2, 40, Note_off_c, 1, 90, 0
2, 80, Note_off_c, 1, 59, 0
2, 80, Note_off_c, 1, 74, 0
2, 80, Note_off_c, 1, 78, 0
2, 80, Note_off_c, 1, 83, 0
2, 80, Note_off_c, 1, 86, 0
2, 120, Note_on_c, 1, 58, 127
2, 120, Note_on_c, 1, 66, 127
2, 120, Note_on_c, 1, 78, 127
2, 120, Note_on_c, 1, 82, 127
2, 120, Note_on_c, 1, 90, 127
2, 360, Note_off_c, 1, 58, 0
2, 360, Note_off_c, 1, 66, 0
2, 360, Note_off_c, 1, 78, 0
2, 360, Note_off_c, 1, 82, 0
2, 360, Note_off_c, 1, 90, 0
2, 400, Note_on_c, 1, 51, 127
2, 400, Note_on_c, 1, 59, 127
2, 400, Note_on_c, 1, 71, 127
2, 400, Note_on_c, 1, 75, 127
2, 840, Note_off_c, 1, 51, 0
2, 840, Note_off_c, 1, 59, 0
2, 840, Note_off_c, 1, 71, 0
2, 840, Note_off_c, 1, 75, 0
2, 880, Note_on_c, 1, 44, 127
2, 880, Note_on_c, 1, 51, 127
2, 880, Note_on_c, 1, 63, 127
2, 880, Note_on_c, 1, 68, 127
2, 1440, Note_off_c, 1, 51, 0
2, 1440, Note_on_c, 1, 56, 127
2, 1440, Note_off_c, 1, 63, 0
2, 1440, Note_off_c, 1, 68, 0
2, 1440, Note_on_c, 1, 72, 127
2, 1440, Note_on_c, 1, 80, 127
2, 1480, Note_off_c, 1, 44, 0
2, 1480, Note_off_c, 1, 56, 0
2, 1480, Note_off_c, 1, 72, 0
2, 1480, Note_off_c, 1, 80, 0
2, 1520, Note_on_c, 1, 39, 127
2, 1520, Note_on_c, 1, 45, 127
2, 1520, Note_on_c, 1, 60, 127
2, 1520, Note_on_c, 1, 66, 127
2, 1520, Note_on_c, 1, 69, 127
2, 1880, Note_off_c, 1, 39, 0
2, 1880, Note_off_c, 1, 45, 0
2, 1880, Note_off_c, 1, 66, 0
2, 1880, Note_on_c, 1, 67, 127
2, 1880, Note_off_c, 1, 69, 0
2, 1880, Note_on_c, 1, 70, 127
2, 1880, Note_on_c, 1, 77, 127
2, 1880, Note_on_c, 1, 89, 127
2, 1920, Note_off_c, 1, 60, 0
2, 1920, Note_off_c, 1, 67, 0
2, 1920, Note_off_c, 1, 70, 0
2, 1920, Note_off_c, 1, 77, 0
2, 1920, Note_off_c, 1, 89, 0
2, 1960, Note_on_c, 1, 52, 127
2, 1960, Note_on_c, 1, 68, 127
2, 2200, Note_on_c, 1, 59, 127
2, 2200, Note_on_c, 1, 62, 127
2, 2520, Note_off_c, 1, 52, 0
2, 2520, Note_off_c, 1, 59, 0
2, 2520, Note_off_c, 1, 62, 0
2, 2520, Note_off_c, 1, 68, 0
2, 2560, Note_on_c, 1, 52, 127
2, 2560, Note_on_c, 1, 59, 127
2, 2560, Note_on_c, 1, 62, 127
2, 2560, Note_on_c, 1, 68, 127
2, 2840, Note_off_c, 1, 52, 0
2, 2840, Note_off_c, 1, 59, 0
2, 2840, Note_off_c, 1, 62, 0
2, 2840, Note_off_c, 1, 68, 0
2, 2880, Note_on_c, 1, 40, 127
2, 2880, Note_on_c, 1, 76, 127
2, 3240, Note_off_c, 1, 40, 0
2, 3240, Note_off_c, 1, 76, 0
2, 3280, Note_on_c, 1, 52, 127
2, 3280, Note_on_c, 1, 74, 127
2, 3280, Note_on_c, 1, 84, 127
2, 3640, Note_off_c, 1, 52, 0
2, 3640, Note_off_c, 1, 74, 0
2, 3640, Note_off_c, 1, 84, 0
2, 3680, Note_on_c, 1, 63, 127
2, 3680, Note_on_c, 1, 66, 127
2, 3680, Note_on_c, 1, 72, 127
2, 3680, Note_on_c, 1, 81, 127
2, 4040, Note_off_c, 1, 63, 0
2, 4040, Note_off_c, 1, 66, 0
2, 4040, Note_off_c, 1, 72, 0
2, 4040, Note_off_c, 1, 81, 0
2, 4080, Note_on_c, 1, 63, 127
2, 4080, Note_on_c, 1, 66, 127
2, 4080, Note_on_c, 1, 72, 127
2, 4080, Note_on_c, 1, 78, 127
2, 4480, Note_off_c, 1, 63, 0
2, 4480, Note_off_c, 1, 66, 0
2, 4480, Note_off_c, 1, 72, 0
2, 4480, Note_off_c, 1, 78, 0
2, 4560, Note_on_c, 1, 63, 127
2, 4560, Note_on_c, 1, 66, 127
2, 4560, Note_on_c, 1, 72, 127
2, 4560, Note_on_c, 1, 78, 127
2, 4960, Note_off_c, 1, 63, 0
2, 4960, Note_off_c, 1, 66, 0
2, 4960, Note_off_c, 1, 72, 0
2, 4960, Note_off_c, 1, 78, 0
2, 5000, Note_on_c, 1, 55, 127
2, 5000, Note_on_c, 1, 64, 127
2, 5000, Note_on_c, 1, 72, 127
2, 5000, Note_on_c, 1, 76, 127
2, 5440, Note_off_c, 1, 55, 0
2, 5440, Note_off_c, 1, 64, 0
2, 5440, Note_off_c, 1, 72, 0
2, 5440, Note_off_c, 1, 76, 0
2, 5480, Note_on_c, 1, 41, 127
2, 5480, Note_on_c, 1, 53, 127
2, 5480, Note_on_c, 1, 62, 127
2, 5480, Note_on_c, 1, 67, 127
2, 5480, Note_on_c, 1, 71, 127
2, 5480, Note_on_c, 1, 74, 127
2, 5520, Note_on_c, 1, 38, 127
2, 5520, Note_off_c, 1, 41, 0
2, 5520, Note_on_c, 1, 50, 127
2, 5520, Note_off_c, 1, 53, 0
2, 5520, Note_off_c, 1, 62, 0
2, 5520, Note_off_c, 1, 74, 0
2, 5520, Note_on_c, 1, 76, 127
2, 5560, Note_on_c, 1, 35, 127
2, 5560, Note_off_c, 1, 38, 0
2, 5560, Note_off_c, 1, 50, 0
2, 5560, Note_off_c, 1, 71, 0
2, 5560, Note_on_c, 1, 74, 127
2, 5560, Note_off_c, 1, 76, 0
2, 5560, Note_on_c, 1, 77, 127
2, 5560, Note_on_c, 1, 79, 127
2, 5600, Note_off_c, 1, 35, 0
2, 5600, Note_on_c, 1, 45, 127
2, 5600, Note_on_c, 1, 49, 127
2, 5600, Note_on_c, 1, 57, 127
2, 5600, Note_off_c, 1, 67, 0
2, 5600, Note_off_c, 1, 74, 0
2, 5600, Note_off_c, 1, 77, 0
2, 5600, Note_off_c, 1, 79, 0
2, 5600, Note_on_c, 1, 88, 127
2, 5600, Note_on_c, 1, 97, 127
2, 5600, Note_on_c, 1, 100, 127
2, 5640, Note_on_c, 1, 40, 127
2, 5640, Note_on_c, 1, 42, 127
2, 5640, Note_off_c, 1, 45, 0
2, 5640, Note_off_c, 1, 49, 0
2, 5640, Note_off_c, 1, 57, 0
2, 5640, Note_on_c, 1, 75, 127
2, 5640, Note_off_c, 1, 88, 0
2, 5640, Note_off_c, 1, 97, 0
2, 5640, Note_off_c, 1, 100, 0
2, 5680, Note_off_c, 1, 40, 0
2, 5680, Note_off_c, 1, 42, 0
2, 5680, Note_on_c, 1, 67, 127
2, 5680, Note_off_c, 1, 75, 0
2, 5680, Note_on_c, 1, 79, 127
2, 5680, Note_on_c, 1, 86, 127
2, 5680, Note_on_c, 1, 94, 127
2, 5720, Note_on_c, 1, 31, 127
2, 5720, Note_on_c, 1, 43, 127
2, 5720, Note_off_c, 1, 67, 0
2, 5720, Note_on_c, 1, 73, 127
2, 5720, Note_on_c, 1, 76, 127
2, 5720, Note_off_c, 1, 79, 0
2, 5720, Note_on_c, 1, 82, 127
2, 5720, Note_on_c, 1, 85, 127
2, 5720, Note_off_c, 1, 86, 0
2, 5720, Note_off_c, 1, 94, 0
2, 5760, Note_off_c, 1, 31, 0
2, 5760, Note_off_c, 1, 43, 0
2, 5760, Note_on_c, 1, 47, 127
2, 5760, Note_on_c, 1, 57, 127
2, 5760, Note_on_c, 1, 67, 127
2, 5760, Note_on_c, 1, 71, 127
2, 5760, Note_off_c, 1, 73, 0
2, 5760, Note_off_c, 1, 76, 0
2, 5760, Note_off_c, 1, 82, 0
2, 5760, Note_off_c, 1, 85, 0
2, 5800, Note_on_c, 1, 42, 127
2, 5800, Note_on_c, 1, 44, 127
2, 5800, Note_off_c, 1, 47, 0
2, 5800, Note_on_c, 1, 49, 127
2, 5800, Note_on_c, 1, 53, 127
2, 5800, Note_off_c, 1, 57, 0
2, 5800, Note_off_c, 1, 67, 0
2, 5800, Note_off_c, 1, 71, 0
2, 5800, Note_on_c, 1, 81, 127
2, 5840, Note_off_c, 1, 42, 0
2, 5840, Note_off_c, 1, 44, 0
2, 5840, Note_off_c, 1, 49, 0
2, 5840, Note_off_c, 1, 53, 0
2, 5840, Note_on_c, 1, 65, 127
2, 5840, Note_on_c, 1, 70, 127
2, 5840, Note_on_c, 1, 78, 127
2, 5840, Note_off_c, 1, 81, 0
2, 5840, Note_on_c, 1, 85, 127
2, 5840, Note_on_c, 1, 90, 127
2, 5880, Note_off_c, 1, 65, 0
2, 5880, Note_off_c, 1, 70, 0
2, 5880, Note_off_c, 1, 78, 0
2, 5880, Note_off_c, 1, 85, 0
2, 5880, Note_off_c, 1, 90, 0
2, 5920, Note_on_c, 1, 64, 127
2, 5920, Note_on_c, 1, 68, 127
2, 5920, Note_on_c, 1, 70, 127
2, 5920, Note_on_c, 1, 73, 127
2, 5920, Note_on_c, 1, 76, 127
2, 5960, Note_on_c, 1, 61, 127
2, 5960, Note_on_c, 1, 63, 127
2, 5960, Note_off_c, 1, 64, 0
2, 5960, Note_on_c, 1, 67, 127
2, 5960, Note_off_c, 1, 68, 0
2, 5960, Note_off_c, 1, 70, 0
2, 5960, Note_off_c, 1, 73, 0
2, 5960, Note_off_c, 1, 76, 0
2, 5960, Note_on_c, 1, 81, 127
2, 6000, Note_off_c, 1, 61, 0
2, 6000, Note_off_c, 1, 63, 0
2, 6000, Note_on_c, 1, 64, 127
2, 6000, Note_off_c, 1, 67, 0
2, 6000, Note_on_c, 1, 68, 127
2, 6000, Note_on_c, 1, 70, 127
2, 6000, Note_on_c, 1, 73, 127
2, 6000, Note_on_c, 1, 76, 127
2, 6000, Note_off_c, 1, 81, 0
2, 6040, Note_off_c, 1, 64, 0
2, 6040, Note_on_c, 1, 67, 127
2, 6040, Note_off_c, 1, 68, 0
2, 6040, Note_off_c, 1, 70, 0
2, 6040, Note_on_c, 1, 71, 127
2, 6040, Note_on_c, 1, 79, 127
2, 6040, Note_on_c, 1, 83, 127
2, 6040, Note_on_c, 1, 88, 127
2, 6040, Note_on_c, 1, 95, 127
2, 6080, Note_on_c, 1, 47, 127
2, 6080, Note_on_c, 1, 54, 127
2, 6080, Note_on_c, 1, 63, 127
2, 6080, Note_off_c, 1, 67, 0
2, 6080, Note_on_c, 1, 69, 127
2, 6080, Note_off_c, 1, 73, 0
2, 6080, Note_off_c, 1, 76, 0
2, 6080, Note_off_c, 1, 79, 0
2, 6080, Note_off_c, 1, 83, 0
2, 6080, Note_off_c, 1, 88, 0
2, 6080, Note_off_c, 1, 95, 0
2, 6120, Note_on_c, 1, 42, 127
2, 6120, Note_off_c, 1, 47, 0
2, 6120, Note_on_c, 1, 59, 127
2, 6120, Note_on_c, 1, 62, 127
2, 6120, Note_off_c, 1, 63, 0
2, 6120, Note_on_c, 1, 66, 127
2, 6120, Note_off_c, 1, 69, 0
2, 6160, Note_off_c, 1, 42, 0
2, 6160, Note_on_c, 1, 45, 127
2, 6160, Note_off_c, 1, 54, 0
2, 6160, Note_off_c, 1, 59, 0
2, 6160, Note_off_c, 1, 62, 0
2, 6160, Note_off_c, 1, 66, 0
2, 6160, Note_on_c, 1, 67, 127
2, 6160, Note_on_c, 1, 69, 127
2, 6160, Note_off_c, 1, 71, 0
2, 6160, Note_on_c, 1, 73, 127
2, 6160, Note_on_c, 1, 81, 127
2, 6200, Note_on_c, 1, 42, 127
2, 6200, Note_off_c, 1, 45, 0
2, 6200, Note_on_c, 1, 52, 127
2, 6200, Note_on_c, 1, 59, 127
2, 6200, Note_on_c, 1, 64, 127
2, 6200, Note_off_c, 1, 67, 0
2, 6200, Note_off_c, 1, 69, 0
2, 6200, Note_off_c, 1, 73, 0
2, 6200, Note_off_c, 1, 81, 0
2, 6240, Note_off_c, 1, 42, 0
2, 6240, Note_off_c, 1, 52, 0
2, 6240, Note_on_c, 1, 57, 127
2, 6240, Note_off_c, 1, 59, 0
2, 6240, Note_on_c, 1, 61, 127
2, 6240, Note_off_c, 1, 64, 0
2, 6240, Note_on_c, 1, 69, 127
2, 6240, Note_on_c, 1, 72, 127
2, 6280, Note_on_c, 1, 45, 127
2, 6280, Note_on_c, 1, 53, 127
2, 6280, Note_off_c, 1, 61, 0
2, 6280, Note_off_c, 1, 69, 0
2, 6280, Note_on_c, 1, 77, 127
2, 6280, Note_on_c, 1, 84, 127
2, 6320, Note_off_c, 1, 45, 0
2, 6320, Note_off_c, 1, 53, 0
2, 6320, Note_off_c, 1, 57, 0
2, 6320, Note_off_c, 1, 72, 0
2, 6320, Note_off_c, 1, 77, 0
2, 6320, Note_off_c, 1, 84, 0
2, 6360, Note_on_c, 1, 50, 127
2, 6360, Note_on_c, 1, 54, 127
2, 6360, Note_on_c, 1, 59, 127
2, 6360, Note_on_c, 1, 71, 127
2, 6560, Note_off_c, 1, 71, 0
2, 6600, Note_on_c, 1, 71, 127
2, 6680, Note_off_c, 1, 50, 0
2, 6680, Note_off_c, 1, 54, 0
2, 6680, Note_off_c, 1, 59, 0
2, 6720, Note_off_c, 1, 71, 0
2, 6760, Note_on_c, 1, 49, 127
2, 6760, Note_on_c, 1, 52, 127
2, 6760, Note_on_c, 1, 57, 127
2, 6760, Note_on_c, 1, 61, 127
2, 6760, Note_on_c, 1, 63, 127
2, 6840, Note_off_c, 1, 49, 0
2, 6840, Note_off_c, 1, 52, 0
2, 6840, Note_off_c, 1, 57, 0
2, 6840, Note_off_c, 1, 61, 0
2, 6840, Note_off_c, 1, 63, 0
2, 6880, Note_on_c, 1, 49, 127
2, 6880, Note_on_c, 1, 52, 127
2, 6880, Note_on_c, 1, 57, 127
2, 6880, Note_on_c, 1, 61, 127
2, 6880, Note_on_c, 1, 63, 127
2, 7000, Note_off_c, 1, 63, 0
2, 7040, Note_on_c, 1, 63, 127
2, 7120, Note_off_c, 1, 49, 0
2, 7120, Note_off_c, 1, 52, 0
2, 7120, Note_off_c, 1, 63, 0
2, 7120, Note_on_c, 1, 66, 127
2, 7120, Note_on_c, 1, 86, 127
2, 7160, Note_off_c, 1, 57, 0
2, 7160, Note_off_c, 1, 61, 0
2, 7160, Note_off_c, 1, 66, 0
2, 7160, Note_off_c, 1, 86, 0
2, 7200, Note_on_c, 1, 49, 127
2, 7200, Note_on_c, 1, 52, 127
2, 7200, Note_on_c, 1, 57, 127
2, 7200, Note_on_c, 1, 61, 127
2, 7960, Note_off_c, 1, 49, 0
2, 7960, Note_off_c, 1, 52, 0
2, 7960, Note_off_c, 1, 57, 0
2, 7960, Note_off_c, 1, 61, 0
2, 8000, Note_on_c, 1, 41, 127
2, 8000, Note_on_c, 1, 53, 127
2, 8000, Note_on_c, 1, 57, 127
2, 8000, Note_on_c, 1, 60, 127
2, 8760, Note_off_c, 1, 41, 0
2, 8760, Note_off_c, 1, 53, 0
2, 8760, Note_off_c, 1, 57, 0
2, 8760, Note_off_c, 1, 60, 0
2, 8800, Note_on_c, 1, 48, 127
2, 8840, Note_off_c, 1, 48, 0
2, 8880, Note_on_c, 1, 48, 127
2, 9040, Note_off_c, 1, 48, 0
2, 9280, Note_on_c, 1, 81, 127
2, 9320, Note_on_c, 1, 79, 127
2, 9320, Note_off_c, 1, 81, 0
2, 9520, Note_off_c, 1, 79, 0
2, 9560, Note_on_c, 1, 77, 127
2, 10120, Note_off_c, 1, 77, 0
2, 10160, Note_on_c, 1, 75, 127
2, 10240, Note_off_c, 1, 75, 0
2, 10280, Note_on_c, 1, 74, 127
2, 10560, Note_off_c, 1, 74, 0
2, 10600, Note_on_c, 1, 76, 127
2, 10720, Note_off_c, 1, 76, 0
2, 10760, Note_on_c, 1, 77, 127
2, 10880, Note_off_c, 1, 77, 0
2, 10920, Note_on_c, 1, 52, 127
2, 10920, Note_on_c, 1, 76, 127
2, 11040, Note_off_c, 1, 52, 0
2, 11080, Note_on_c, 1, 60, 127
2, 11200, Note_off_c, 1, 60, 0
2, 11200, Note_off_c, 1, 76, 0
2, 11240, Note_on_c, 1, 60, 127
2, 11240, Note_on_c, 1, 76, 127
2, 11280, Note_off_c, 1, 60, 0
2, 11280, Note_off_c, 1, 76, 0
2, 11320, Note_on_c, 1, 52, 127
2, 11320, Note_on_c, 1, 76, 127
2, 11440, Note_off_c, 1, 52, 0
2, 11440, Note_off_c, 1, 76, 0
2, 11480, Note_on_c, 1, 57, 127
2, 11480, Note_on_c, 1, 74, 127
2, 11600, Note_off_c, 1, 57, 0
2, 11600, Note_off_c, 1, 74, 0
2, 11640, Note_on_c, 1, 62, 127
2, 11640, Note_on_c, 1, 72, 127
2, 11960, Note_off_c, 1, 62, 0
2, 11960, Note_off_c, 1, 72, 0
2, 12000, Note_on_c, 1, 62, 127
2, 12000, Note_on_c, 1, 73, 127
2, 12320, Note_off_c, 1, 62, 0
2, 12320, Note_off_c, 1, 73, 0
2, 12360, Note_on_c, 1, 67, 127
2, 12360, Note_on_c, 1, 74, 127
2, 12680, Note_off_c, 1, 67, 0
2, 12680, Note_off_c, 1, 74, 0
2, 12720, Note_on_c, 1, 52, 127
2, 12720, Note_on_c, 1, 77, 127
2, 13000, Note_off_c, 1, 52, 0
2, 13000, Note_off_c, 1, 77, 0
2, 13040, Note_on_c, 1, 48, 127
2, 13040, Note_on_c, 1, 77, 127
2, 13040, Note_on_c, 1, 83, 127
2, 13040, Note_on_c, 1, 91, 127
2, 13080, Note_on_c, 1, 36, 127
2, 13080, Note_on_c, 1, 62, 127
2, 13080, Note_on_c, 1, 65, 127
2, 13080, Note_on_c, 1, 67, 127
2, 13080, Note_off_c, 1, 77, 0
2, 13080, Note_off_c, 1, 83, 0
2, 13080, Note_off_c, 1, 91, 0
2, 13120, Note_off_c, 1, 36, 0
2, 13120, Note_off_c, 1, 48, 0
2, 13120, Note_off_c, 1, 65, 0
2, 13120, Note_on_c, 1, 66, 127
2, 13120, Note_off_c, 1, 67, 0
2, 13120, Note_on_c, 1, 69, 127
2, 13120, Note_on_c, 1, 72, 127
2, 13120, Note_on_c, 1, 78, 127
2, 13160, Note_off_c, 1, 62, 0
2, 13160, Note_off_c, 1, 66, 0
2, 13160, Note_off_c, 1, 69, 0
2, 13160, Note_off_c, 1, 72, 0
2, 13160, Note_off_c, 1, 78, 0
2, 13200, Note_on_c, 1, 48, 127
2, 13200, Note_on_c, 1, 55, 127
2, 13200, Note_on_c, 1, 63, 127
2, 13200, Note_on_c, 1, 67, 127
2, 13200, Note_on_c, 1, 71, 127
2, 13200, Note_on_c, 1, 75, 127
2, 13240, Note_off_c, 1, 55, 0
2, 13240, Note_off_c, 1, 63, 0
2, 13240, Note_off_c, 1, 67, 0
2, 13240, Note_off_c, 1, 71, 0
2, 13240, Note_off_c, 1, 75, 0
2, 13240, Note_on_c, 1, 77, 127
2, 13240, Note_on_c, 1, 83, 127
2, 13240, Note_on_c, 1, 91, 127
2, 13280, Note_on_c, 1, 38, 127
2, 13280, Note_off_c, 1, 48, 0
2, 13280, Note_on_c, 1, 50, 127
2, 13280, Note_on_c, 1, 71, 127
2, 13280, Note_on_c, 1, 74, 127
2, 13280, Note_on_c, 1, 80, 127
2, 13280, Note_off_c, 1, 91, 0
2, 13320, Note_off_c, 1, 38, 0
2, 13320, Note_on_c, 1, 48, 127
2, 13320, Note_off_c, 1, 50, 0
2, 13320, Note_on_c, 1, 53, 127
2, 13320, Note_on_c, 1, 69, 127
2, 13320, Note_off_c, 1, 71, 0
2, 13320, Note_off_c, 1, 77, 0
2, 13320, Note_off_c, 1, 80, 0
2, 13320, Note_off_c, 1, 83, 0
2, 13360, Note_on_c, 1, 36, 127
2, 13360, Note_on_c, 1, 46, 127
2, 13360, Note_off_c, 1, 48, 0
2, 13360, Note_off_c, 1, 53, 0
2, 13360, Note_on_c, 1, 62, 127
2, 13360, Note_off_c, 1, 69, 0
2, 13360, Note_off_c, 1, 74, 0
2, 13400, Note_off_c, 1, 36, 0
2, 13400, Note_on_c, 1, 45, 127
2, 13400, Note_off_c, 1, 46, 0
2, 13400, Note_on_c, 1, 57, 127
2, 13400, Note_off_c, 1, 62, 0
2, 13400, Note_on_c, 1, 63, 127
2, 13400, Note_on_c, 1, 66, 127
2, 13400, Note_on_c, 1, 69, 127
2, 13400, Note_on_c, 1, 81, 127
2, 13440, Note_on_c, 1, 40, 127
2, 13440, Note_off_c, 1, 45, 0
2, 13440, Note_off_c, 1, 57, 0
2, 13440, Note_off_c, 1, 63, 0
2, 13440, Note_off_c, 1, 66, 0
2, 13440, Note_off_c, 1, 69, 0
2, 13440, Note_off_c, 1, 81, 0
2, 13440, Note_on_c, 1, 90, 127
2, 13440, Note_on_c, 1, 92, 127
2, 13440, Note_on_c, 1, 95, 127
2, 13440, Note_on_c, 1, 98, 127
2, 13440, Note_on_c, 1, 102, 127
2, 13480, Note_on_c, 1, 36, 127
2, 13480, Note_off_c, 1, 40, 0
2, 13480, Note_on_c, 1, 43, 127
2, 13480, Note_on_c, 1, 55, 127
2, 13480, Note_on_c, 1, 59, 127
2, 13480, Note_on_c, 1, 62, 127
2, 13480, Note_off_c, 1, 90, 0
2, 13480, Note_off_c, 1, 92, 0
2, 13480, Note_off_c, 1, 95, 0
2, 13480, Note_off_c, 1, 98, 0
2, 13480, Note_off_c, 1, 102, 0
2, 13520, Note_off_c, 1, 36, 0
2, 13520, Note_off_c, 1, 43, 0
2, 13520, Note_on_c, 1, 46, 127
2, 13520, Note_off_c, 1, 59, 0
2, 13520, Note_off_c, 1, 62, 0
2, 13520, Note_on_c, 1, 79, 127
2, 13520, Note_on_c, 1, 82, 127
2, 13560, Note_on_c, 1, 36, 127
2, 13560, Note_off_c, 1, 46, 0
2, 13560, Note_on_c, 1, 48, 127
2, 13560, Note_off_c, 1, 55, 0
2, 13560, Note_on_c, 1, 67, 127
2, 13560, Note_on_c, 1, 72, 127
2, 13560, Note_on_c, 1, 76, 127
2, 13560, Note_off_c, 1, 79, 0
2, 13560, Note_off_c, 1, 82, 0
2, 13560, Note_on_c, 1, 84, 127
2, 13600, Note_off_c, 1, 36, 0
2, 13600, Note_on_c, 1, 45, 127
2, 13600, Note_on_c, 1, 54, 127
2, 13600, Note_on_c, 1, 66, 127
2, 13600, Note_off_c, 1, 67, 0
2, 13600, Note_off_c, 1, 72, 0
2, 13600, Note_off_c, 1, 76, 0
2, 13600, Note_off_c, 1, 84, 0
2, 13640, Note_on_c, 1, 35, 127
2, 13640, Note_off_c, 1, 45, 0
2, 13640, Note_on_c, 1, 47, 127
2, 13640, Note_off_c, 1, 48, 0
2, 13640, Note_off_c, 1, 54, 0
2, 13640, Note_off_c, 1, 66, 0
2, 13640, Note_on_c, 1, 98, 127
2, 13640, Note_on_c, 1, 100, 127
2, 13680, Note_off_c, 1, 35, 0
2, 13680, Note_off_c, 1, 47, 0
2, 13680, Note_on_c, 1, 71, 127
2, 13680, Note_on_c, 1, 76, 127
2, 13680, Note_on_c, 1, 79, 127
2, 13680, Note_on_c, 1, 95, 127
2, 13680, Note_off_c, 1, 98, 0
2, 13680, Note_off_c, 1, 100, 0
2, 13720, Note_on_c, 1, 36, 127
2, 13720, Note_on_c, 1, 48, 127
2, 13720, Note_off_c, 1, 71, 0
2, 13720, Note_off_c, 1, 76, 0
2, 13720, Note_off_c, 1, 79, 0
2, 13720, Note_on_c, 1, 82, 127
2, 13720, Note_off_c, 1, 95, 0
2, 13760, Note_off_c, 1, 36, 0
2, 13760, Note_off_c, 1, 48, 0
2, 13760, Note_off_c, 1, 82, 0
2, 13800, Note_on_c, 1, 70, 127
2, 13800, Note_on_c, 1, 76, 127
2, 13800, Note_on_c, 1, 79, 127
2, 13800, Note_on_c, 1, 81, 127
2, 13800, Note_on_c, 1, 88, 127
2, 13840, Note_on_c, 1, 50, 127
2, 13840, Note_off_c, 1, 70, 0
2, 13840, Note_off_c, 1, 76, 0
2, 13840, Note_off_c, 1, 79, 0
2, 13840, Note_on_c, 1, 86, 127
2, 13840, Note_off_c, 1, 88, 0
2, 13840, Note_on_c, 1, 93, 127
2, 13880, Note_on_c, 1, 38, 127
2, 13880, Note_on_c, 1, 55, 127
2, 13880, Note_on_c, 1, 67, 127
2, 13880, Note_off_c, 1, 81, 0
2, 13880, Note_off_c, 1, 86, 0
2, 13880, Note_off_c, 1, 93, 0
2, 13920, Note_off_c, 1, 38, 0
2, 13920, Note_off_c, 1, 55, 0
2, 13920, Note_on_c, 1, 57, 127
2, 13920, Note_on_c, 1, 60, 127
2, 13920, Note_on_c, 1, 90, 127
2, 13960, Note_off_c, 1, 57, 0
2, 13960, Note_off_c, 1, 60, 0
2, 13960, Note_off_c, 1, 67, 0
2, 13960, Note_on_c, 1, 81, 127
2, 13960, Note_on_c, 1, 86, 127
2, 13960, Note_off_c, 1, 90, 0
2, 13960, Note_on_c, 1, 93, 127
2, 14040, Note_off_c, 1, 50, 0
2, 14040, Note_on_c, 1, 56, 127
2, 14040, Note_on_c, 1, 78, 127
2, 14040, Note_off_c, 1, 81, 0
2, 14040, Note_off_c, 1, 93, 0
2, 14080, Note_on_c, 1, 31, 127
2, 14080, Note_on_c, 1, 35, 127
2, 14080, Note_on_c, 1, 38, 127
2, 14080, Note_on_c, 1, 43, 127
2, 14080, Note_on_c, 1, 50, 127
2, 14080, Note_off_c, 1, 56, 0
2, 14080, Note_on_c, 1, 59, 127
2, 14080, Note_off_c, 1, 78, 0
2, 14080, Note_off_c, 1, 86, 0
2, 14120, Note_off_c, 1, 31, 0
2, 14120, Note_off_c, 1, 35, 0
2, 14120, Note_off_c, 1, 38, 0
2, 14120, Note_off_c, 1, 43, 0
2, 14120, Note_off_c, 1, 50, 0
2, 14120, Note_off_c, 1, 59, 0
2, 14160, Note_on_c, 1, 50, 127
2, 14160, Note_on_c, 1, 55, 127
2, 14160, Note_on_c, 1, 71, 127
2, 14160, Note_on_c, 1, 83, 127
2, 14200, Note_off_c, 1, 50, 0
2, 14200, Note_off_c, 1, 55, 0
2, 14200, Note_on_c, 1, 60, 127
2, 14200, Note_on_c, 1, 64, 127
2, 14200, Note_on_c, 1, 69, 127
2, 14200, Note_off_c, 1, 71, 0
2, 14240, Note_on_c, 1, 46, 127
2, 14240, Note_off_c, 1, 60, 0
2, 14240, Note_off_c, 1, 64, 0
2, 14240, Note_off_c, 1, 69, 0
2, 14240, Note_off_c, 1, 83, 0
2, 14240, Note_on_c, 1, 86, 127
2, 14240, Note_on_c, 1, 94, 127
2, 14280, Note_off_c, 1, 46, 0
2, 14280, Note_on_c, 1, 71, 127
2, 14280, Note_on_c, 1, 83, 127
2, 14280, Note_off_c, 1, 86, 0
2, 14280, Note_off_c, 1, 94, 0
2, 14320, Note_on_c, 1, 54, 127
2, 14320, Note_on_c, 1, 66, 127
2, 14320, Note_off_c, 1, 71, 0
2, 14320, Note_on_c, 1, 81, 127
2, 14320, Note_off_c, 1, 83, 0
2, 14800, Note_off_c, 1, 54, 0
2, 14800, Note_off_c, 1, 66, 0
2, 14840, Note_on_c, 1, 59, 127
2, 14840, Note_on_c, 1, 62, 127
2, 14840, Note_on_c, 1, 79, 127
2, 14840, Note_off_c, 1, 81, 0
2, 15160, Note_off_c, 1, 59, 0
2, 15160, Note_off_c, 1, 62, 0
2, 15160, Note_off_c, 1, 79, 0
2, 15200, Note_on_c, 1, 53, 127
2, 15200, Note_on_c, 1, 57, 127
2, 15200, Note_on_c, 1, 62, 127
2, 15200, Note_on_c, 1, 81, 127
2, 15320, Note_off_c, 1, 81, 0
2, 15360, Note_on_c, 1, 77, 127
2, 15520, Note_off_c, 1, 53, 0
2, 15520, Note_off_c, 1, 57, 0
2, 15520, Note_off_c, 1, 62, 0
2, 15520, Note_off_c, 1, 77, 0
2, 15520, Note_on_c, 1, 78, 127
2, 15560, Note_off_c, 1, 78, 0
2, 15600, Note_on_c, 1, 55, 127
2, 15600, Note_on_c, 1, 60, 127
2, 15600, Note_on_c, 1, 64, 127
2, 15600, Note_on_c, 1, 79, 127
2, 15720, Note_off_c, 1, 79, 0
2, 15760, Note_on_c, 1, 84, 127
2, 15840, Note_off_c, 1, 84, 0
2, 15840, Note_on_c, 1, 86, 127
2, 15880, Note_off_c, 1, 86, 0
2, 15920, Note_on_c, 1, 53, 127
2, 15920, Note_off_c, 1, 55, 0
2, 15920, Note_on_c, 1, 63, 127
2, 15920, Note_off_c, 1, 64, 0
2, 15920, Note_on_c, 1, 87, 127
2, 16080, Note_off_c, 1, 53, 0
2, 16080, Note_on_c, 1, 57, 127
2, 16080, Note_on_c, 1, 72, 127
2, 16080, Note_on_c, 1, 78, 127
2, 16080, Note_on_c, 1, 83, 127
2, 16080, Note_off_c, 1, 87, 0
2, 16120, Note_on_c, 1, 53, 127
2, 16120, Note_off_c, 1, 57, 0
2, 16120, Note_off_c, 1, 72, 0
2, 16120, Note_off_c, 1, 78, 0
2, 16120, Note_off_c, 1, 83, 0
2, 16120, Note_on_c, 1, 87, 127
2, 16160, Note_off_c, 1, 87, 0
2, 16200, Note_on_c, 1, 87, 127
2, 16240, Note_off_c, 1, 53, 0
2, 16240, Note_off_c, 1, 60, 0
2, 16240, Note_off_c, 1, 63, 0
2, 16240, Note_off_c, 1, 87, 0
2, 16280, Note_on_c, 1, 52, 127
2, 16280, Note_on_c, 1, 72, 127
2, 16280, Note_on_c, 1, 84, 127
2, 16600, Note_off_c, 1, 52, 0
2, 16600, Note_off_c, 1, 72, 0
2, 16600, Note_off_c, 1, 84, 0
2, 16640, Note_on_c, 1, 60, 127
2, 16640, Note_on_c, 1, 64, 127
2, 16640, Note_on_c, 1, 71, 127
2, 16640, Note_on_c, 1, 83, 127
2, 16760, Note_off_c, 1, 60, 0
2, 16760, Note_on_c, 1, 61, 127
2, 16760, Note_off_c, 1, 64, 0
2, 16760, Note_off_c, 1, 71, 0
2, 16760, Note_on_c, 1, 81, 127
2, 16760, Note_off_c, 1, 83, 0
2, 16760, Note_on_c, 1, 88, 127
2, 16760, Note_on_c, 1, 91, 127
2, 16760, Note_on_c, 1, 93, 127
2, 16800, Note_on_c, 1, 60, 127
2, 16800, Note_off_c, 1, 61, 0
2, 16800, Note_on_c, 1, 64, 127
2, 16800, Note_on_c, 1, 71, 127
2, 16800, Note_off_c, 1, 81, 0
2, 16800, Note_on_c, 1, 83, 127
2, 16800, Note_off_c, 1, 88, 0
2, 16800, Note_off_c, 1, 91, 0
2, 16800, Note_off_c, 1, 93, 0
2, 16960, Note_off_c, 1, 60, 0
2, 16960, Note_off_c, 1, 64, 0
2, 16960, Note_off_c, 1, 71, 0
2, 16960, Note_off_c, 1, 83, 0
2, 17000, Note_on_c, 1, 38, 127
2, 17000, Note_on_c, 1, 81, 127
2, 17000, Note_on_c, 1, 84, 127
2, 17000, Note_on_c, 1, 93, 127
2, 17320, Note_off_c, 1, 38, 0
2, 17320, Note_off_c, 1, 81, 0
2, 17320, Note_off_c, 1, 84, 0
2, 17320, Note_off_c, 1, 93, 0
2, 17360, Note_on_c, 1, 55, 127
2, 17360, Note_on_c, 1, 58, 127
2, 17360, Note_on_c, 1, 77, 127
2, 17360, Note_on_c, 1, 80, 127
2, 17400, Note_on_c, 1, 43, 127
2, 17400, Note_off_c, 1, 58, 0
2, 17400, Note_on_c, 1, 62, 127
2, 17400, Note_on_c, 1, 69, 127
2, 17400, Note_on_c, 1, 72, 127
2, 17400, Note_off_c, 1, 77, 0
2, 17400, Note_off_c, 1, 80, 0
2, 17480, Note_off_c, 1, 43, 0
2, 17480, Note_on_c, 1, 52, 127
2, 17480, Note_off_c, 1, 55, 0
2, 17480, Note_off_c, 1, 62, 0
2, 17480, Note_on_c, 1, 64, 127
2, 17480, Note_on_c, 1, 66, 127
2, 17480, Note_on_c, 1, 68, 127
2, 17480, Note_off_c, 1, 69, 0
2, 17480, Note_off_c, 1, 72, 0
2, 17520, Note_on_c, 1, 43, 127
2, 17520, Note_on_c, 1, 47, 127
2, 17520, Note_on_c, 1, 50, 127
2, 17520, Note_off_c, 1, 52, 0
2, 17520, Note_on_c, 1, 53, 127
2, 17520, Note_off_c, 1, 64, 0
2, 17520, Note_off_c, 1, 66, 0
2, 17520, Note_off_c, 1, 68, 0
2, 17520, Note_on_c, 1, 79, 127
2, 17640, Note_off_c, 1, 43, 0
2, 17640, Note_off_c, 1, 47, 0
2, 17640, Note_off_c, 1, 50, 0
2, 17640, Note_off_c, 1, 53, 0
2, 17640, Note_off_c, 1, 79, 0
2, 17640, Note_on_c, 1, 91, 127
2, 17720, Note_on_c, 1, 38, 127
2, 17720, Note_on_c, 1, 90, 127
2, 17720, Note_off_c, 1, 91, 0
2, 17720, Note_on_c, 1, 96, 127
2, 17760, Note_off_c, 1, 38, 0
2, 17760, Note_off_c, 1, 90, 0
2, 17760, Note_off_c, 1, 96, 0
2, 17800, Note_on_c, 1, 48, 127
2, 17800, Note_on_c, 1, 52, 127
2, 17800, Note_on_c, 1, 57, 127
2, 17800, Note_on_c, 1, 60, 127
2, 17800, Note_on_c, 1, 87, 127
2, 17840, Note_off_c, 1, 48, 0
2, 17840, Note_off_c, 1, 52, 0
2, 17840, Note_off_c, 1, 57, 0
2, 17840, Note_on_c, 1, 58, 127
2, 17840, Note_off_c, 1, 60, 0
2, 17840, Note_on_c, 1, 62, 127
2, 17840, Note_on_c, 1, 64, 127
2, 17840, Note_on_c, 1, 67, 127
2, 17840, Note_on_c, 1, 74, 127
2, 17840, Note_on_c, 1, 86, 127
2, 17840, Note_off_c, 1, 87, 0
2, 17880, Note_on_c, 1, 45, 127
2, 17880, Note_off_c, 1, 58, 0
2, 17880, Note_off_c, 1, 62, 0
2, 17880, Note_off_c, 1, 67, 0
2, 17880, Note_on_c, 1, 69, 127
2, 17880, Note_on_c, 1, 72, 127
2, 17880, Note_off_c, 1, 74, 0
2, 17880, Note_on_c, 1, 81, 127
2, 17880, Note_off_c, 1, 86, 0
2, 17920, Note_off_c, 1, 45, 0
2, 17920, Note_off_c, 1, 72, 0
2, 17920, Note_on_c, 1, 73, 127
2, 17920, Note_on_c, 1, 85, 127
2, 17960, Note_on_c, 1, 47, 127
2, 17960, Note_on_c, 1, 52, 127
2, 17960, Note_on_c, 1, 62, 127
2, 17960, Note_off_c, 1, 64, 0
2, 17960, Note_off_c, 1, 69, 0
2, 17960, Note_off_c, 1, 73, 0
2, 17960, Note_on_c, 1, 76, 127
2, 17960, Note_off_c, 1, 81, 0
2, 17960, Note_off_c, 1, 85, 0
2, 18000, Note_off_c, 1, 47, 0
2, 18000, Note_off_c, 1, 52, 0
2, 18000, Note_on_c, 1, 59, 127
2, 18000, Note_off_c, 1, 62, 0
2, 18000, Note_on_c, 1, 63, 127
2, 18000, Note_on_c, 1, 69, 127
2, 18000, Note_off_c, 1, 76, 0
2, 18000, Note_on_c, 1, 84, 127
2, 18000, Note_on_c, 1, 86, 127
2, 18040, Note_off_c, 1, 59, 0
2, 18040, Note_on_c, 1, 60, 127
2, 18040, Note_off_c, 1, 63, 0
2, 18040, Note_on_c, 1, 64, 127
2, 18040, Note_on_c, 1, 67, 127
2, 18040, Note_off_c, 1, 69, 0
2, 18040, Note_off_c, 1, 84, 0
2, 18040, Note_off_c, 1, 86, 0
2, 18040, Note_on_c, 1, 96, 127
2, 18080, Note_on_c, 1, 52, 127
2, 18080, Note_on_c, 1, 55, 127
2, 18080, Note_off_c, 1, 60, 0
2, 18080, Note_off_c, 1, 64, 0
2, 18080, Note_off_c, 1, 67, 0
2, 18080, Note_on_c, 1, 76, 127
2, 18080, Note_on_c, 1, 79, 127
2, 18080, Note_off_c, 1, 96, 0
2, 18120, Note_off_c, 1, 55, 0
2, 18120, Note_on_c, 1, 60, 127
2, 18120, Note_off_c, 1, 76, 0
2, 18120, Note_on_c, 1, 89, 127
2, 18160, Note_off_c, 1, 52, 0
2, 18160, Note_off_c, 1, 60, 0
2, 18160, Note_on_c, 1, 63, 127
2, 18160, Note_on_c, 1, 67, 127
2, 18160, Note_on_c, 1, 73, 127
2, 18160, Note_off_c, 1, 79, 0
2, 18200, Note_on_c, 1, 52, 127
2, 18200, Note_on_c, 1, 60, 127
2, 18200, Note_off_c, 1, 63, 0
2, 18200, Note_off_c, 1, 67, 0
2, 18200, Note_off_c, 1, 73, 0
2, 18200, Note_on_c, 1, 79, 127
2, 18280, Note_off_c, 1, 52, 0
2, 18280, Note_off_c, 1, 60, 0
2, 18280, Note_on_c, 1, 66, 127
2, 18280, Note_off_c, 1, 79, 0
2, 18280, Note_off_c, 1, 89, 0
2, 18280, Note_on_c, 1, 90, 127
2, 18280, Note_on_c, 1, 102, 127
2, 18320, Note_on_c, 1, 52, 127
2, 18320, Note_on_c, 1, 60, 127
2, 18320, Note_off_c, 1, 66, 0
2, 18320, Note_on_c, 1, 79, 127
2, 18320, Note_on_c, 1, 89, 127
2, 18320, Note_off_c, 1, 90, 0
2, 18320, Note_off_c, 1, 102, 0
2, 18440, Note_off_c, 1, 52, 0
2, 18440, Note_off_c, 1, 60, 0
2, 18440, Note_off_c, 1, 79, 0
2, 18440, Note_off_c, 1, 89, 0
2, 18480, Note_on_c, 1, 51, 127
2, 18480, Note_on_c, 1, 55, 127
2, 18480, Note_on_c, 1, 68, 127
2, 18480, Note_on_c, 1, 80, 127
2, 18520, Note_off_c, 1, 51, 0
2, 18520, Note_off_c, 1, 68, 0
2, 18520, Note_on_c, 1, 76, 127
2, 18520, Note_off_c, 1, 80, 0
2, 18520, Note_on_c, 1, 82, 127
2, 18520, Note_on_c, 1, 84, 127
2, 18520, Note_on_c, 1, 88, 127
2, 18680, Note_off_c, 1, 55, 0
2, 18680, Note_on_c, 1, 57, 127
2, 18680, Note_on_c, 1, 63, 127
2, 18680, Note_on_c, 1, 71, 127
2, 18680, Note_off_c, 1, 76, 0
2, 18680, Note_on_c, 1, 77, 127
2, 18680, Note_off_c, 1, 82, 0
2, 18680, Note_off_c, 1, 84, 0
2, 18680, Note_off_c, 1, 88, 0
2, 18720, Note_on_c, 1, 28, 127
2, 18720, Note_on_c, 1, 40, 127
2, 18720, Note_off_c, 1, 57, 0
2, 18720, Note_on_c, 1, 59, 127
2, 18720, Note_off_c, 1, 63, 0
2, 18720, Note_on_c, 1, 64, 127
2, 18720, Note_on_c, 1, 66, 127
2, 18720, Note_off_c, 1, 77, 0
2, 18760, Note_off_c, 1, 28, 0
2, 18760, Note_off_c, 1, 40, 0
2, 18760, Note_on_c, 1, 42, 127
2, 18760, Note_on_c, 1, 54, 127
2, 18760, Note_off_c, 1, 59, 0
2, 18760, Note_on_c, 1, 61, 127
2, 18760, Note_off_c, 1, 64, 0
2, 18760, Note_off_c, 1, 66, 0
2, 18760, Note_off_c, 1, 71, 0
2, 18760, Note_on_c, 1, 76, 127
2, 18760, Note_on_c, 1, 88, 127
2, 18800, Note_off_c, 1, 42, 0
2, 18800, Note_off_c, 1, 54, 0
2, 18800, Note_off_c, 1, 61, 0
2, 18800, Note_off_c, 1, 76, 0
2, 18800, Note_off_c, 1, 88, 0
2, 18840, Note_on_c, 1, 59, 127
2, 18840, Note_on_c, 1, 67, 127
2, 18840, Note_on_c, 1, 78, 127
2, 18840, Note_on_c, 1, 79, 127
2, 18880, Note_on_c, 1, 58, 127
2, 18880, Note_off_c, 1, 59, 0
2, 18880, Note_on_c, 1, 62, 127
2, 18880, Note_off_c, 1, 67, 0
2, 18880, Note_on_c, 1, 70, 127
2, 18880, Note_off_c, 1, 78, 0
2, 18880, Note_off_c, 1, 79, 0
2, 18880, Note_on_c, 1, 86, 127
2, 18920, Note_off_c, 1, 58, 0
2, 18920, Note_off_c, 1, 62, 0
2, 18920, Note_off_c, 1, 70, 0
2, 18920, Note_on_c, 1, 79, 127
2, 18920, Note_on_c, 1, 88, 127
2, 18960, Note_on_c, 1, 58, 127
2, 18960, Note_on_c, 1, 62, 127
2, 18960, Note_off_c, 1, 79, 0
2, 18960, Note_on_c, 1, 81, 127
2, 18960, Note_off_c, 1, 86, 0
2, 18960, Note_off_c, 1, 88, 0
2, 19000, Note_on_c, 1, 51, 127
2, 19000, Note_on_c, 1, 54, 127
2, 19000, Note_off_c, 1, 58, 0
2, 19000, Note_on_c, 1, 59, 127
2, 19000, Note_off_c, 1, 62, 0
2, 19000, Note_off_c, 1, 81, 0
2, 19000, Note_on_c, 1, 95, 127
2, 19040, Note_on_c, 1, 44, 127
2, 19040, Note_on_c, 1, 48, 127
2, 19040, Note_off_c, 1, 51, 0
2, 19040, Note_on_c, 1, 52, 127
2, 19040, Note_off_c, 1, 54, 0
2, 19040, Note_off_c, 1, 59, 0
2, 19040, Note_on_c, 1, 84, 127
2, 19040, Note_off_c, 1, 95, 0
2, 19080, Note_off_c, 1, 44, 0
2, 19080, Note_off_c, 1, 48, 0
2, 19080, Note_on_c, 1, 49, 127
2, 19080, Note_off_c, 1, 52, 0
2, 19080, Note_on_c, 1, 56, 127
2, 19080, Note_on_c, 1, 59, 127
2, 19080, Note_on_c, 1, 82, 127
2, 19080, Note_off_c, 1, 84, 0
2, 19120, Note_off_c, 1, 49, 0
2, 19120, Note_off_c, 1, 56, 0
2, 19120, Note_off_c, 1, 59, 0
2, 19120, Note_off_c, 1, 82, 0
2, 19120, Note_on_c, 1, 83, 127
2, 19160, Note_off_c, 1, 83, 0
2, 19200, Note_on_c, 1, 57, 127
2, 19200, Note_on_c, 1, 65, 127
2, 19200, Note_on_c, 1, 71, 127
2, 19200, Note_on_c, 1, 80, 127
2, 19480, Note_off_c, 1, 57, 0
2, 19480, Note_off_c, 1, 65, 0
2, 19480, Note_off_c, 1, 71, 0
2, 19480, Note_off_c, 1, 80, 0
2, 19520, Note_on_c, 1, 44, 127
2, 19520, Note_on_c, 1, 69, 127
2, 19520, Note_on_c, 1, 73, 127
2, 19520, Note_on_c, 1, 78, 127
2, 19560, Note_on_c, 1, 34, 127
2, 19560, Note_off_c, 1, 44, 0
2, 19560, Note_on_c, 1, 66, 127
2, 19560, Note_off_c, 1, 69, 0
2, 19560, Note_on_c, 1, 70, 127
2, 19560, Note_off_c, 1, 73, 0
2, 19560, Note_on_c, 1, 75, 127
2, 19560, Note_off_c, 1, 78, 0
2, 19600, Note_off_c, 1, 34, 0
2, 19600, Note_on_c, 1, 37, 127
2, 19600, Note_on_c, 1, 49, 127
2, 19600, Note_on_c, 1, 64, 127
2, 19600, Note_off_c, 1, 66, 0
2, 19600, Note_off_c, 1, 70, 0
2, 19600, Note_off_c, 1, 75, 0
2, 19600, Note_on_c, 1, 76, 127
2, 19600, Note_on_c, 1, 88, 127
2, 19640, Note_off_c, 1, 37, 0
2, 19640, Note_on_c, 1, 44, 127
2, 19640, Note_off_c, 1, 49, 0
2, 19640, Note_off_c, 1, 64, 0
2, 19640, Note_on_c, 1, 69, 127
2, 19640, Note_on_c, 1, 73, 127
2, 19640, Note_off_c, 1, 76, 0
2, 19640, Note_on_c, 1, 78, 127
2, 19640, Note_off_c, 1, 88, 0
2, 19680, Note_on_c, 1, 34, 127
2, 19680, Note_off_c, 1, 44, 0
2, 19680, Note_on_c, 1, 66, 127
2, 19680, Note_off_c, 1, 69, 0
2, 19680, Note_on_c, 1, 70, 127
2, 19680, Note_off_c, 1, 73, 0
2, 19680, Note_on_c, 1, 75, 127
2, 19680, Note_off_c, 1, 78, 0
2, 19760, Note_off_c, 1, 34, 0
2, 19840, Note_off_c, 1, 66, 0
2, 19840, Note_off_c, 1, 70, 0
2, 19840, Note_off_c, 1, 75, 0
2, 19880, Note_on_c, 1, 52, 127
2, 19880, Note_on_c, 1, 60, 127
2, 19880, Note_on_c, 1, 64, 127
2, 19880, Note_on_c, 1, 67, 127
2, 19880, Note_on_c, 1, 72, 127
2, 19880, Note_on_c, 1, 79, 127
2, 20240, Note_off_c, 1, 52, 0
2, 20240, Note_off_c, 1, 60, 0
2, 20240, Note_off_c, 1, 64, 0
2, 20240, Note_off_c, 1, 67, 0
2, 20240, Note_off_c, 1, 72, 0
2, 20240, Note_off_c, 1, 79, 0
2, 20280, Note_on_c, 1, 52, 127
2, 20280, Note_on_c, 1, 60, 127
2, 20280, Note_on_c, 1, 64, 127
2, 20280, Note_on_c, 1, 67, 127
2, 20280, Note_on_c, 1, 72, 127
2, 20280, Note_on_c, 1, 79, 127
2, 20920, Note_off_c, 1, 52, 0
2, 20920, Note_off_c, 1, 60, 0
2, 20920, Note_off_c, 1, 64, 0
2, 20920, Note_off_c, 1, 67, 0
2, 20920, Note_off_c, 1, 72, 0
2, 20920, Note_off_c, 1, 79, 0
2, 21000, Note_on_c, 1, 46, 127
2, 21000, Note_on_c, 1, 50, 127
2, 21000, Note_on_c, 1, 53, 127
2, 21000, Note_on_c, 1, 65, 127
2, 21000, Note_on_c, 1, 70, 127
2, 21000, Note_on_c, 1, 74, 127
2, 21040, Note_off_c, 1, 46, 0
2, 21040, Note_off_c, 1, 50, 0
2, 21040, Note_off_c, 1, 53, 0
2, 21040, Note_on_c, 1, 61, 127
2, 21040, Note_on_c, 1, 64, 127
2, 21040, Note_off_c, 1, 65, 0
2, 21040, Note_on_c, 1, 67, 127
2, 21040, Note_on_c, 1, 69, 127
2, 21040, Note_off_c, 1, 70, 0
2, 21040, Note_off_c, 1, 74, 0
2, 21040, Note_on_c, 1, 76, 127
2, 21040, Note_on_c, 1, 79, 127
2, 21040, Note_on_c, 1, 81, 127
2, 21080, Note_on_c, 1, 58, 127
2, 21080, Note_off_c, 1, 61, 0
2, 21080, Note_on_c, 1, 62, 127
2, 21080, Note_off_c, 1, 64, 0
2, 21080, Note_on_c, 1, 65, 127
2, 21080, Note_off_c, 1, 67, 0
2, 21080, Note_off_c, 1, 69, 0
2, 21080, Note_on_c, 1, 71, 127
2, 21080, Note_off_c, 1, 76, 0
2, 21080, Note_off_c, 1, 79, 0
2, 21080, Note_off_c, 1, 81, 0
2, 21120, Note_on_c, 1, 38, 127
2, 21120, Note_on_c, 1, 50, 127
2, 21120, Note_off_c, 1, 58, 0
2, 21120, Note_off_c, 1, 65, 0
2, 21120, Note_on_c, 1, 67, 127
2, 21120, Note_off_c, 1, 71, 0
2, 21120, Note_on_c, 1, 72, 127
2, 21160, Note_off_c, 1, 38, 0
2, 21160, Note_off_c, 1, 50, 0
2, 21160, Note_on_c, 1, 58, 127
2, 21160, Note_off_c, 1, 62, 0
2, 21160, Note_off_c, 1, 67, 0
2, 21160, Note_on_c, 1, 70, 127
2, 21160, Note_off_c, 1, 72, 0
2, 21160, Note_on_c, 1, 89, 127
2, 21160, Note_on_c, 1, 94, 127
2, 21200, Note_on_c, 1, 51, 127
2, 21200, Note_off_c, 1, 58, 0
2, 21200, Note_on_c, 1, 60, 127
2, 21200, Note_on_c, 1, 64, 127
2, 21200, Note_on_c, 1, 69, 127
2, 21200, Note_off_c, 1, 70, 0
2, 21200, Note_on_c, 1, 76, 127
2, 21200, Note_off_c, 1, 89, 0
2, 21200, Note_off_c, 1, 94, 0
2, 21240, Note_on_c, 1, 36, 127
2, 21240, Note_off_c, 1, 51, 0
2, 21240, Note_off_c, 1, 60, 0
2, 21240, Note_off_c, 1, 64, 0
2, 21240, Note_on_c, 1, 65, 127
2, 21240, Note_off_c, 1, 69, 0
2, 21240, Note_off_c, 1, 76, 0
2, 21240, Note_on_c, 1, 85, 127
2, 21280, Note_off_c, 1, 36, 0
2, 21280, Note_off_c, 1, 65, 0
2, 21280, Note_off_c, 1, 85, 0
2, 21320, Note_on_c, 1, 56, 127
2, 21320, Note_on_c, 1, 71, 127
2, 21320, Note_on_c, 1, 73, 127
2, 21320, Note_on_c, 1, 80, 127
2, 21360, Note_on_c, 1, 54, 127
2, 21360, Note_off_c, 1, 56, 0
2, 21360, Note_on_c, 1, 59, 127
2, 21360, Note_on_c, 1, 62, 127
2, 21360, Note_on_c, 1, 65, 127
2, 21360, Note_off_c, 1, 71, 0
2, 21360, Note_off_c, 1, 73, 0
2, 21360, Note_off_c, 1, 80, 0
2, 21360, Note_on_c, 1, 95, 127
2, 21400, Note_on_c, 1, 47, 127
2, 21400, Note_on_c, 1, 57, 127
2, 21400, Note_off_c, 1, 59, 0
2, 21400, Note_off_c, 1, 62, 0
2, 21400, Note_off_c, 1, 65, 0
2, 21400, Note_on_c, 1, 78, 127
2, 21400, Note_off_c, 1, 95, 0
2, 21440, Note_off_c, 1, 47, 0
2, 21440, Note_off_c, 1, 54, 0
2, 21440, Note_off_c, 1, 57, 0
2, 21440, Note_on_c, 1, 58, 127
2, 21440, Note_on_c, 1, 61, 127
2, 21440, Note_on_c, 1, 66, 127
2, 21440, Note_on_c, 1, 74, 127
2, 21440, Note_off_c, 1, 78, 0
2, 21480, Note_on_c, 1, 29, 127
2, 21480, Note_on_c, 1, 43, 127
2, 21480, Note_off_c, 1, 61, 0
2, 21480, Note_off_c, 1, 66, 0
2, 21480, Note_off_c, 1, 74, 0
2, 21520, Note_off_c, 1, 29, 0
2, 21520, Note_on_c, 1, 36, 127
2, 21520, Note_off_c, 1, 43, 0
2, 21520, Note_on_c, 1, 46, 127
2, 21520, Note_on_c, 1, 52, 127
2, 21520, Note_on_c, 1, 55, 127
2, 21520, Note_off_c, 1, 58, 0
2, 21560, Note_off_c, 1, 36, 0
2, 21560, Note_off_c, 1, 46, 0
2, 21560, Note_on_c, 1, 50, 127
2, 21560, Note_off_c, 1, 52, 0
2, 21560, Note_off_c, 1, 55, 0
2, 21560, Note_on_c, 1, 57, 127
2, 21560, Note_on_c, 1, 59, 127
2, 21560, Note_on_c, 1, 65, 127
2, 21560, Note_on_c, 1, 69, 127
2, 21560, Note_on_c, 1, 71, 127
2, 21600, Note_on_c, 1, 44, 127
2, 21600, Note_on_c, 1, 49, 127
2, 21600, Note_off_c, 1, 50, 0
2, 21600, Note_on_c, 1, 53, 127
2, 21600, Note_on_c, 1, 56, 127
2, 21600, Note_off_c, 1, 57, 0
2, 21600, Note_off_c, 1, 59, 0
2, 21600, Note_off_c, 1, 65, 0
2, 21600, Note_off_c, 1, 69, 0
2, 21600, Note_off_c, 1, 71, 0
2, 21640, Note_on_c, 1, 42, 127
2, 21640, Note_off_c, 1, 44, 0
2, 21640, Note_off_c, 1, 49, 0
2, 21640, Note_off_c, 1, 53, 0
2, 21640, Note_off_c, 1, 56, 0
2, 21640, Note_on_c, 1, 64, 127
2, 21640, Note_on_c, 1, 66, 127
2, 21640, Note_on_c, 1, 74, 127
2, 21680, Note_off_c, 1, 42, 0
2, 21680, Note_on_c, 1, 45, 127
2, 21680, Note_off_c, 1, 64, 0
2, 21680, Note_off_c, 1, 66, 0
2, 21680, Note_off_c, 1, 74, 0
2, 21680, Note_on_c, 1, 84, 127
2, 21680, Note_on_c, 1, 94, 127
2, 21720, Note_on_c, 1, 38, 127
2, 21720, Note_on_c, 1, 43, 127
2, 21720, Note_off_c, 1, 45, 0
2, 21720, Note_on_c, 1, 50, 127
2, 21720, Note_on_c, 1, 79, 127
2, 21720, Note_off_c, 1, 84, 0
2, 21720, Note_off_c, 1, 94, 0
2, 21760, Note_on_c, 1, 37, 127
2, 21760, Note_off_c, 1, 38, 0
2, 21760, Note_off_c, 1, 43, 0
2, 21760, Note_on_c, 1, 49, 127
2, 21760, Note_off_c, 1, 50, 0
2, 21760, Note_on_c, 1, 53, 127
2, 21760, Note_on_c, 1, 58, 127
2, 21760, Note_on_c, 1, 61, 127
2, 21760, Note_off_c, 1, 79, 0
2, 21800, Note_off_c, 1, 37, 0
2, 21800, Note_on_c, 1, 39, 127
2, 21800, Note_off_c, 1, 49, 0
2, 21800, Note_off_c, 1, 53, 0
2, 21800, Note_off_c, 1, 58, 0
2, 21800, Note_off_c, 1, 61, 0
2, 21800, Note_on_c, 1, 83, 127
2, 21800, Note_on_c, 1, 87, 127
2, 21800, Note_on_c, 1, 92, 127
2, 21800, Note_on_c, 1, 95, 127
2, 21840, Note_off_c, 1, 39, 0
2, 21840, Note_on_c, 1, 40, 127
2, 21840, Note_on_c, 1, 50, 127
2, 21840, Note_on_c, 1, 55, 127
2, 21840, Note_off_c, 1, 83, 0
2, 21840, Note_off_c, 1, 87, 0
2, 21840, Note_off_c, 1, 92, 0
2, 21840, Note_off_c, 1, 95, 0
2, 21880, Note_off_c, 1, 40, 0
2, 21880, Note_off_c, 1, 50, 0
2, 21880, Note_on_c, 1, 66, 127
2, 21880, Note_on_c, 1, 74, 127
2, 21880, Note_on_c, 1, 81, 127
2, 21880, Note_on_c, 1, 84, 127
2, 21920, Note_on_c, 1, 31, 127
2, 21920, Note_on_c, 1, 43, 127
2, 21920, Note_off_c, 1, 55, 0
2, 21920, Note_off_c, 1, 66, 0
2, 21920, Note_on_c, 1, 71, 127
2, 21920, Note_off_c, 1, 74, 0
2, 21920, Note_off_c, 1, 81, 0
2, 21920, Note_off_c, 1, 84, 0
2, 21960, Note_off_c, 1, 31, 0
2, 21960, Note_on_c, 1, 42, 127
2, 21960, Note_off_c, 1, 43, 0
2, 21960, Note_on_c, 1, 46, 127
2, 21960, Note_off_c, 1, 71, 0
2, 21960, Note_on_c, 1, 75, 127
2, 22000, Note_off_c, 1, 42, 0
2, 22000, Note_off_c, 1, 46, 0
2, 22000, Note_off_c, 1, 75, 0
2, 22040, Note_on_c, 1, 29, 127
2, 22040, Note_on_c, 1, 45, 127
2, 22400, Note_off_c, 1, 29, 0
2, 22400, Note_off_c, 1, 45, 0
2, 22440, Note_on_c, 1, 29, 127
2, 22440, Note_on_c, 1, 45, 127
2, 22720, Note_off_c, 1, 29, 0
2, 22720, Note_off_c, 1, 45, 0
2, 22760, Note_on_c, 1, 38, 127
2, 22760, Note_on_c, 1, 47, 127
2, 23080, Note_off_c, 1, 38, 0
2, 23080, Note_off_c, 1, 47, 0
2, 23120, Note_on_c, 1, 53, 127
2, 23120, Note_on_c, 1, 68, 127
2, 23120, Note_on_c, 1, 74, 127
2, 23120, Note_on_c, 1, 85, 127
2, 23160, Note_off_c, 1, 53, 0
2, 23160, Note_on_c, 1, 54, 127
2, 23160, Note_on_c, 1, 57, 127
2, 23160, Note_on_c, 1, 62, 127
2, 23160, Note_on_c, 1, 66, 127
2, 23160, Note_off_c, 1, 68, 0
2, 23160, Note_on_c, 1, 78, 127
2, 23160, Note_off_c, 1, 85, 0
2, 23200, Note_off_c, 1, 54, 0
2, 23200, Note_on_c, 1, 61, 127
2, 23200, Note_off_c, 1, 62, 0
2, 23200, Note_off_c, 1, 74, 0
2, 23200, Note_off_c, 1, 78, 0
2, 23200, Note_on_c, 1, 81, 127
2, 23240, Note_off_c, 1, 61, 0
2, 23240, Note_off_c, 1, 66, 0
2, 23240, Note_on_c, 1, 76, 127
2, 23240, Note_on_c, 1, 79, 127
2, 23240, Note_off_c, 1, 81, 0
2, 23240, Note_on_c, 1, 85, 127
2, 23280, Note_on_c, 1, 61, 127
2, 23280, Note_on_c, 1, 66, 127
2, 23280, Note_off_c, 1, 76, 0
2, 23280, Note_off_c, 1, 79, 0
2, 23280, Note_on_c, 1, 81, 127
2, 23280, Note_off_c, 1, 85, 0
2, 23400, Note_off_c, 1, 81, 0
2, 23440, Note_off_c, 1, 57, 0
2, 23440, Note_off_c, 1, 61, 0
2, 23440, Note_off_c, 1, 66, 0
2, 23480, Note_on_c, 1, 59, 127
2, 23480, Note_on_c, 1, 100, 127
2, 23560, Note_on_c, 1, 52, 127
2, 23560, Note_off_c, 1, 59, 0
2, 23560, Note_on_c, 1, 93, 127
2, 23560, Note_off_c, 1, 100, 0
2, 23600, Note_off_c, 1, 52, 0
2, 23600, Note_on_c, 1, 59, 127
2, 23600, Note_off_c, 1, 93, 0
2, 23600, Note_on_c, 1, 100, 127
2, 23760, Note_off_c, 1, 59, 0
2, 23760, Note_on_c, 1, 92, 127
2, 23760, Note_off_c, 1, 100, 0
2, 23760, Note_on_c, 1, 102, 127
2, 23800, Note_on_c, 1, 88, 127
2, 23800, Note_off_c, 1, 92, 0
2, 23800, Note_off_c, 1, 102, 0
2, 23840, Note_on_c, 1, 41, 127
2, 23840, Note_on_c, 1, 76, 127
2, 23840, Note_on_c, 1, 84, 127
2, 23840, Note_off_c, 1, 88, 0
2, 23880, Note_off_c, 1, 41, 0
2, 23880, Note_on_c, 1, 55, 127
2, 23880, Note_on_c, 1, 64, 127
2, 23880, Note_off_c, 1, 76, 0
2, 23880, Note_off_c, 1, 84, 0
2, 23880, Note_on_c, 1, 91, 127
2, 23920, Note_on_c, 1, 50, 127
2, 23920, Note_on_c, 1, 58, 127
2, 23920, Note_on_c, 1, 62, 127
2, 23920, Note_off_c, 1, 64, 0
2, 23920, Note_on_c, 1, 66, 127
2, 23920, Note_off_c, 1, 91, 0
2, 23960, Note_on_c, 1, 41, 127
2, 23960, Note_off_c, 1, 50, 0
2, 23960, Note_off_c, 1, 55, 0
2, 23960, Note_off_c, 1, 58, 0
2, 23960, Note_off_c, 1, 62, 0
2, 23960, Note_off_c, 1, 66, 0
2, 23960, Note_on_c, 1, 76, 127
2, 23960, Note_on_c, 1, 84, 127
2, 24120, Note_off_c, 1, 41, 0
2, 24120, Note_off_c, 1, 76, 0
2, 24200, Note_on_c, 1, 64, 127
2, 24200, Note_on_c, 1, 67, 127
2, 24200, Note_on_c, 1, 81, 127
2, 24200, Note_on_c, 1, 83, 127
2, 24200, Note_off_c, 1, 84, 0
2, 24240, Note_on_c, 1, 40, 127
2, 24240, Note_on_c, 1, 48, 127
2, 24240, Note_off_c, 1, 64, 0
2, 24240, Note_off_c, 1, 67, 0
2, 24280, Note_off_c, 1, 40, 0
2, 24280, Note_on_c, 1, 47, 127
2, 24280, Note_off_c, 1, 48, 0
2, 24280, Note_on_c, 1, 54, 127
2, 24280, Note_off_c, 1, 81, 0
2, 24280, Note_off_c, 1, 83, 0
2, 24280, Note_on_c, 1, 88, 127
2, 24280, Note_on_c, 1, 90, 127
2, 24320, Note_off_c, 1, 47, 0
2, 24320, Note_off_c, 1, 54, 0
2, 24320, Note_on_c, 1, 64, 127
2, 24320, Note_on_c, 1, 67, 127
2, 24320, Note_on_c, 1, 81, 127
2, 24320, Note_on_c, 1, 83, 127
2, 24320, Note_off_c, 1, 88, 0
2, 24320, Note_off_c, 1, 90, 0
2, 24360, Note_on_c, 1, 61, 127
2, 24360, Note_off_c, 1, 64, 0
2, 24360, Note_off_c, 1, 67, 0
2, 24360, Note_on_c, 1, 73, 127
2, 24360, Note_on_c, 1, 80, 127
2, 24360, Note_off_c, 1, 81, 0
2, 24360, Note_off_c, 1, 83, 0
2, 24360, Note_on_c, 1, 85, 127
2, 24360, Note_on_c, 1, 88, 127
2, 24360, Note_on_c, 1, 92, 127
2, 24400, Note_on_c, 1, 58, 127
2, 24400, Note_on_c, 1, 67, 127
2, 24400, Note_on_c, 1, 77, 127
2, 24400, Note_off_c, 1, 80, 0
2, 24400, Note_off_c, 1, 85, 0
2, 24400, Note_off_c, 1, 88, 0
2, 24400, Note_off_c, 1, 92, 0
2, 24440, Note_on_c, 1, 50, 127
2, 24440, Note_on_c, 1, 55, 127
2, 24440, Note_off_c, 1, 58, 0
2, 24440, Note_off_c, 1, 61, 0
2, 24440, Note_on_c, 1, 62, 127
2, 24440, Note_off_c, 1, 73, 0
2, 24440, Note_on_c, 1, 76, 127
2, 24440, Note_off_c, 1, 77, 0
2, 24480, Note_on_c, 1, 32, 127
2, 24480, Note_on_c, 1, 38, 127
2, 24480, Note_on_c, 1, 44, 127
2, 24480, Note_off_c, 1, 50, 0
2, 24480, Note_off_c, 1, 55, 0
2, 24480, Note_off_c, 1, 62, 0
2, 24480, Note_off_c, 1, 67, 0
2, 24480, Note_off_c, 1, 76, 0
2, 24520, Note_off_c, 1, 32, 0
2, 24520, Note_off_c, 1, 38, 0
2, 24520, Note_off_c, 1, 44, 0
2, 24600, Note_on_c, 1, 52, 127
2, 24600, Note_on_c, 1, 55, 127
2, 24600, Note_on_c, 1, 64, 127
2, 24600, Note_on_c, 1, 72, 127
2, 24600, Note_on_c, 1, 76, 127
2, 24640, Note_off_c, 1, 52, 0
2, 24640, Note_off_c, 1, 55, 0
2, 24640, Note_on_c, 1, 57, 127
2, 24640, Note_off_c, 1, 64, 0
2, 24640, Note_on_c, 1, 67, 127
2, 24640, Note_on_c, 1, 69, 127
2, 24640, Note_off_c, 1, 72, 0
2, 24640, Note_off_c, 1, 76, 0
2, 24640, Note_on_c, 1, 81, 127
2, 24680, Note_on_c, 1, 52, 127
2, 24680, Note_on_c, 1, 55, 127
2, 24680, Note_off_c, 1, 57, 0
2, 24680, Note_on_c, 1, 64, 127
2, 24680, Note_off_c, 1, 67, 0
2, 24680, Note_off_c, 1, 69, 0
2, 24680, Note_on_c, 1, 72, 127
2, 24680, Note_on_c, 1, 76, 127
2, 24680, Note_off_c, 1, 81, 0
2, 24720, Note_off_c, 1, 52, 0
2, 24720, Note_off_c, 1, 55, 0
2, 24720, Note_on_c, 1, 57, 127
2, 24720, Note_off_c, 1, 64, 0
2, 24720, Note_on_c, 1, 67, 127
2, 24720, Note_on_c, 1, 69, 127
2, 24720, Note_off_c, 1, 72, 0
2, 24720, Note_off_c, 1, 76, 0
2, 24720, Note_on_c, 1, 81, 127
2, 24760, Note_on_c, 1, 52, 127
2, 24760, Note_on_c, 1, 55, 127
2, 24760, Note_off_c, 1, 57, 0
2, 24760, Note_on_c, 1, 64, 127
2, 24760, Note_off_c, 1, 67, 0
2, 24760, Note_off_c, 1, 69, 0
2, 24760, Note_on_c, 1, 72, 127
2, 24760, Note_on_c, 1, 76, 127
2, 24760, Note_off_c, 1, 81, 0
2, 24800, Note_on_c, 1, 50, 127
2, 24800, Note_off_c, 1, 52, 0
2, 24800, Note_on_c, 1, 53, 127
2, 24800, Note_off_c, 1, 55, 0
2, 24800, Note_on_c, 1, 56, 127
2, 24800, Note_on_c, 1, 58, 127
2, 24800, Note_off_c, 1, 64, 0
2, 24800, Note_off_c, 1, 72, 0
2, 24800, Note_off_c, 1, 76, 0
2, 24800, Note_on_c, 1, 79, 127
2, 24840, Note_on_c, 1, 28, 127
2, 24840, Note_on_c, 1, 47, 127
2, 24840, Note_off_c, 1, 50, 0
2, 24840, Note_on_c, 1, 52, 127
2, 24840, Note_off_c, 1, 53, 0
2, 24840, Note_on_c, 1, 55, 127
2, 24840, Note_off_c, 1, 56, 0
2, 24840, Note_off_c, 1, 58, 0
2, 24840, Note_on_c, 1, 60, 127
2, 24840, Note_off_c, 1, 79, 0
2, 24880, Note_off_c, 1, 28, 0
2, 24880, Note_off_c, 1, 47, 0
2, 24880, Note_off_c, 1, 52, 0
2, 24880, Note_off_c, 1, 55, 0
2, 24880, Note_off_c, 1, 60, 0
2, 24880, Note_on_c, 1, 81, 127
2, 24920, Note_on_c, 1, 63, 127
2, 24920, Note_on_c, 1, 69, 127
2, 24920, Note_on_c, 1, 72, 127
2, 24920, Note_on_c, 1, 75, 127
2, 24960, Note_off_c, 1, 63, 0
2, 24960, Note_on_c, 1, 66, 127
2, 25240, Note_off_c, 1, 66, 0
2, 25240, Note_off_c, 1, 69, 0
2, 25240, Note_off_c, 1, 72, 0
2, 25240, Note_off_c, 1, 75, 0
2, 25240, Note_off_c, 1, 81, 0
2, 25280, Note_on_c, 1, 90, 127
2, 25280, Note_on_c, 1, 92, 127
2, 25280, Note_on_c, 1, 99, 127
2, 25280, Note_on_c, 1, 100, 127
2, 25280, Note_on_c, 1, 102, 127
2, 25320, Note_on_c, 1, 54, 127
2, 25320, Note_on_c, 1, 57, 127
2, 25320, Note_on_c, 1, 62, 127
2, 25320, Note_off_c, 1, 90, 0
2, 25320, Note_off_c, 1, 92, 0
2, 25320, Note_on_c, 1, 93, 127
2, 25320, Note_on_c, 1, 98, 127
2, 25320, Note_off_c, 1, 99, 0
2, 25320, Note_off_c, 1, 100, 0
2, 25320, Note_off_c, 1, 102, 0
2, 25360, Note_on_c, 1, 45, 127
2, 25360, Note_off_c, 1, 54, 0
2, 25360, Note_off_c, 1, 62, 0
2, 25360, Note_on_c, 1, 65, 127
2, 25360, Note_on_c, 1, 75, 127
2, 25360, Note_on_c, 1, 77, 127
2, 25360, Note_off_c, 1, 93, 0
2, 25360, Note_off_c, 1, 98, 0
2, 25400, Note_off_c, 1, 45, 0
2, 25400, Note_on_c, 1, 46, 127
2, 25400, Note_on_c, 1, 51, 127
2, 25400, Note_off_c, 1, 65, 0
2, 25400, Note_on_c, 1, 66, 127
2, 25400, Note_off_c, 1, 77, 0
2, 25400, Note_on_c, 1, 78, 127
2, 25400, Note_on_c, 1, 81, 127
2, 25400, Note_on_c, 1, 84, 127
2, 25400, Note_on_c, 1, 87, 127
2, 25440, Note_on_c, 1, 42, 127
2, 25440, Note_off_c, 1, 46, 0
2, 25440, Note_off_c, 1, 51, 0
2, 25440, Note_on_c, 1, 52, 127
2, 25440, Note_off_c, 1, 57, 0
2, 25440, Note_on_c, 1, 64, 127
2, 25440, Note_off_c, 1, 66, 0
2, 25440, Note_on_c, 1, 69, 127
2, 25440, Note_off_c, 1, 75, 0
2, 25440, Note_off_c, 1, 78, 0
2, 25440, Note_off_c, 1, 81, 0
2, 25440, Note_off_c, 1, 84, 0
2, 25440, Note_off_c, 1, 87, 0
2, 25480, Note_off_c, 1, 42, 0
2, 25480, Note_on_c, 1, 51, 127
2, 25480, Note_off_c, 1, 52, 0
2, 25480, Note_on_c, 1, 57, 127
2, 25480, Note_on_c, 1, 59, 127
2, 25480, Note_off_c, 1, 64, 0
2, 25480, Note_on_c, 1, 68, 127
2, 25480, Note_off_c, 1, 69, 0
2, 25520, Note_on_c, 1, 43, 127
2, 25520, Note_off_c, 1, 51, 0
2, 25520, Note_on_c, 1, 52, 127
2, 25520, Note_off_c, 1, 57, 0
2, 25520, Note_off_c, 1, 59, 0
2, 25520, Note_on_c, 1, 61, 127
2, 25520, Note_off_c, 1, 68, 0
2, 25520, Note_on_c, 1, 73, 127
2, 25520, Note_on_c, 1, 76, 127
2, 25520, Note_on_c, 1, 85, 127
2, 25560, Note_off_c, 1, 43, 0
2, 25560, Note_off_c, 1, 52, 0
2, 25560, Note_off_c, 1, 61, 0
2, 25560, Note_off_c, 1, 73, 0
2, 25560, Note_off_c, 1, 85, 0
2, 25600, Note_off_c, 1, 76, 0
2, 25640, Note_on_c, 1, 58, 127
2, 25640, Note_on_c, 1, 63, 127
2, 25640, Note_on_c, 1, 66, 127
2, 25640, Note_on_c, 1, 75, 127
2, 25640, Note_on_c, 1, 87, 127
2, 25920, Note_off_c, 1, 58, 0
2, 25920, Note_off_c, 1, 63, 0
2, 25920, Note_off_c, 1, 66, 0
2, 25960, Note_off_c, 1, 75, 0
2, 25960, Note_off_c, 1, 87, 0
2, 26000, Note_on_c, 1, 53, 127
2, 26000, Note_on_c, 1, 58, 127
2, 26000, Note_on_c, 1, 94, 127
2, 26000, Note_on_c, 1, 98, 127
2, 26040, Note_off_c, 1, 53, 0
2, 26040, Note_on_c, 1, 77, 127
2, 26040, Note_on_c, 1, 85, 127
2, 26040, Note_off_c, 1, 94, 0
2, 26040, Note_off_c, 1, 98, 0
2, 26080, Note_on_c, 1, 51, 127
2, 26080, Note_off_c, 1, 58, 0
2, 26080, Note_on_c, 1, 67, 127
2, 26080, Note_off_c, 1, 77, 0
2, 26080, Note_on_c, 1, 82, 127
2, 26080, Note_off_c, 1, 85, 0
2, 26120, Note_off_c, 1, 51, 0
2, 26120, Note_on_c, 1, 58, 127
2, 26120, Note_off_c, 1, 67, 0
2, 26120, Note_off_c, 1, 82, 0
2, 26160, Note_on_c, 1, 53, 127
2, 26160, Note_off_c, 1, 58, 0
2, 26160, Note_on_c, 1, 87, 127
2, 26280, Note_off_c, 1, 53, 0
2, 26320, Note_on_c, 1, 39, 127
2, 26320, Note_on_c, 1, 51, 127
2, 26320, Note_on_c, 1, 63, 127
2, 26320, Note_on_c, 1, 71, 127
2, 26320, Note_on_c, 1, 75, 127
2, 26320, Note_off_c, 1, 87, 0
2, 26360, Note_on_c, 1, 38, 127
2, 26360, Note_off_c, 1, 39, 0
2, 26360, Note_on_c, 1, 50, 127
2, 26360, Note_off_c, 1, 51, 0
2, 26360, Note_off_c, 1, 63, 0
2, 26360, Note_off_c, 1, 75, 0
2, 26360, Note_on_c, 1, 77, 127
2, 26360, Note_on_c, 1, 83, 127
2, 26400, Note_off_c, 1, 38, 0
2, 26400, Note_off_c, 1, 50, 0
2, 26400, Note_on_c, 1, 64, 127
2, 26400, Note_off_c, 1, 71, 0
2, 26400, Note_off_c, 1, 83, 0
2, 26400, Note_on_c, 1, 84, 127
2, 26400, Note_on_c, 1, 87, 127
2, 26400, Note_on_c, 1, 89, 127
2, 26480, Note_on_c, 1, 52, 127
2, 26480, Note_on_c, 1, 55, 127
2, 26480, Note_on_c, 1, 59, 127
2, 26480, Note_off_c, 1, 77, 0
2, 26480, Note_off_c, 1, 84, 0
2, 26480, Note_off_c, 1, 87, 0
2, 26480, Note_on_c, 1, 88, 127
2, 26480, Note_off_c, 1, 89, 0
2, 26480, Note_on_c, 1, 90, 127
2, 26480, Note_on_c, 1, 91, 127
2, 26520, Note_off_c, 1, 52, 0
2, 26520, Note_off_c, 1, 55, 0
2, 26520, Note_on_c, 1, 58, 127
2, 26520, Note_off_c, 1, 59, 0
2, 26520, Note_off_c, 1, 64, 0
2, 26520, Note_on_c, 1, 65, 127
2, 26520, Note_on_c, 1, 70, 127
2, 26520, Note_on_c, 1, 75, 127
2, 26520, Note_on_c, 1, 77, 127
2, 26520, Note_off_c, 1, 88, 0
2, 26520, Note_off_c, 1, 90, 0
2, 26520, Note_off_c, 1, 91, 0
2, 26640, Note_off_c, 1, 58, 0
2, 26640, Note_off_c, 1, 65, 0
2, 26640, Note_off_c, 1, 70, 0
2, 26640, Note_off_c, 1, 75, 0
2, 26640, Note_off_c, 1, 77, 0
2, 26640, Note_on_c, 1, 83, 127
2, 26680, Note_on_c, 1, 65, 127
2, 26680, Note_on_c, 1, 79, 127
2, 26680, Note_on_c, 1, 81, 127
2, 26680, Note_off_c, 1, 83, 0
2, 26680, Note_on_c, 1, 88, 127
2, 26680, Note_on_c, 1, 91, 127
2, 26720, Note_on_c, 1, 54, 127
2, 26720, Note_on_c, 1, 59, 127
2, 26720, Note_on_c, 1, 62, 127
2, 26720, Note_off_c, 1, 79, 0
2, 26720, Note_off_c, 1, 88, 0
2, 26720, Note_off_c, 1, 91, 0
2, 26760, Note_off_c, 1, 54, 0
2, 26760, Note_off_c, 1, 59, 0
2, 26760, Note_off_c, 1, 62, 0
2, 26760, Note_off_c, 1, 65, 0
2, 26760, Note_off_c, 1, 81, 0
2, 26800, Note_on_c, 1, 32, 127
2, 26800, Note_on_c, 1, 44, 127
2, 26800, Note_on_c, 1, 80, 127
2, 26800, Note_on_c, 1, 84, 127
2, 26800, Note_on_c, 1, 90, 127
2, 26800, Note_on_c, 1, 92, 127
2, 26840, Note_off_c, 1, 32, 0
2, 26840, Note_off_c, 1, 44, 0
2, 26840, Note_on_c, 1, 66, 127
2, 26840, Note_on_c, 1, 72, 127
2, 26840, Note_on_c, 1, 78, 127
2, 26840, Note_off_c, 1, 80, 0
2, 26840, Note_on_c, 1, 82, 127
2, 26840, Note_off_c, 1, 84, 0
2, 26840, Note_off_c, 1, 90, 0
2, 26840, Note_off_c, 1, 92, 0
2, 26880, Note_on_c, 1, 38, 127
2, 26880, Note_on_c, 1, 47, 127
2, 26880, Note_on_c, 1, 50, 127
2, 26880, Note_off_c, 1, 66, 0
2, 26880, Note_off_c, 1, 72, 0
2, 26880, Note_off_c, 1, 78, 0
2, 26880, Note_off_c, 1, 82, 0
2, 26920, Note_off_c, 1, 38, 0
2, 26920, Note_off_c, 1, 47, 0
2, 26920, Note_off_c, 1, 50, 0
2, 26920, Note_on_c, 1, 54, 127
2, 26920, Note_on_c, 1, 59, 127
2, 26920, Note_on_c, 1, 63, 127
2, 26920, Note_on_c, 1, 71, 127
2, 26920, Note_on_c, 1, 80, 127
2, 26960, Note_on_c, 1, 53, 127
2, 26960, Note_off_c, 1, 54, 0
2, 26960, Note_on_c, 1, 58, 127
2, 26960, Note_off_c, 1, 59, 0
2, 26960, Note_on_c, 1, 60, 127
2, 26960, Note_off_c, 1, 63, 0
2, 26960, Note_on_c, 1, 68, 127
2, 26960, Note_off_c, 1, 71, 0
2, 26960, Note_off_c, 1, 80, 0
2, 27000, Note_off_c, 1, 53, 0
2, 27000, Note_off_c, 1, 58, 0
2, 27000, Note_off_c, 1, 60, 0
2, 27000, Note_off_c, 1, 68, 0
2, 27000, Note_on_c, 1, 80, 127
2, 27040, Note_off_c, 1, 80, 0
2, 27080, Note_on_c, 1, 43, 127
2, 27080, Note_on_c, 1, 57, 127
2, 27080, Note_on_c, 1, 60, 127
2, 27080, Note_on_c, 1, 65, 127
2, 27080, Note_on_c, 1, 72, 127
2, 27080, Note_on_c, 1, 77, 127
2, 27120, Note_off_c, 1, 43, 0
2, 27120, Note_off_c, 1, 57, 0
2, 27120, Note_off_c, 1, 60, 0
2, 27120, Note_off_c, 1, 65, 0
2, 27120, Note_off_c, 1, 72, 0
2, 27120, Note_on_c, 1, 87, 127
2, 27120, Note_on_c, 1, 90, 127
2, 27240, Note_on_c, 1, 72, 127
2, 27240, Note_on_c, 1, 73, 127
2, 27240, Note_off_c, 1, 87, 0
2, 27240, Note_off_c, 1, 90, 0
2, 27360, Note_off_c, 1, 72, 0
2, 27360, Note_off_c, 1, 73, 0
2, 27400, Note_off_c, 1, 77, 0
2, 27440, Note_on_c, 1, 32, 127
2, 27440, Note_on_c, 1, 52, 127
2, 27440, Note_on_c, 1, 56, 127
2, 27440, Note_on_c, 1, 61, 127
2, 27440, Note_on_c, 1, 64, 127
2, 27560, Note_off_c, 1, 32, 0
2, 27560, Note_on_c, 1, 42, 127
2, 27560, Note_on_c, 1, 50, 127
2, 27560, Note_off_c, 1, 52, 0
2, 27560, Note_off_c, 1, 56, 0
2, 27560, Note_on_c, 1, 58, 127
2, 27560, Note_off_c, 1, 61, 0
2, 27560, Note_on_c, 1, 62, 127
2, 27560, Note_off_c, 1, 64, 0
2, 27560, Note_on_c, 1, 68, 127
2, 27600, Note_off_c, 1, 42, 0
2, 27600, Note_off_c, 1, 50, 0
2, 27600, Note_off_c, 1, 58, 0
2, 27600, Note_off_c, 1, 62, 0
2, 27600, Note_on_c, 1, 74, 127
2, 27600, Note_on_c, 1, 82, 127
2, 27600, Note_on_c, 1, 88, 127
2, 27640, Note_on_c, 1, 43, 127
2, 27640, Note_on_c, 1, 46, 127
2, 27640, Note_on_c, 1, 62, 127
2, 27640, Note_on_c, 1, 65, 127
2, 27640, Note_on_c, 1, 70, 127
2, 27640, Note_off_c, 1, 74, 0
2, 27640, Note_off_c, 1, 82, 0
2, 27640, Note_off_c, 1, 88, 0
2, 27680, Note_off_c, 1, 43, 0
2, 27680, Note_off_c, 1, 46, 0
2, 27680, Note_off_c, 1, 62, 0
2, 27680, Note_off_c, 1, 65, 0
2, 27680, Note_off_c, 1, 68, 0
2, 27680, Note_on_c, 1, 79, 127
2, 27680, Note_on_c, 1, 82, 127
2, 27680, Note_on_c, 1, 86, 127
2, 27680, Note_on_c, 1, 94, 127
2, 27720, Note_on_c, 1, 29, 127
2, 27720, Note_on_c, 1, 54, 127
2, 27720, Note_off_c, 1, 70, 0
2, 27720, Note_off_c, 1, 79, 0
2, 27720, Note_off_c, 1, 82, 0
2, 27720, Note_off_c, 1, 86, 0
2, 27720, Note_off_c, 1, 94, 0
2, 27760, Note_off_c, 1, 29, 0
2, 27760, Note_on_c, 1, 49, 127
2, 27760, Note_off_c, 1, 54, 0
2, 27760, Note_on_c, 1, 75, 127
2, 27760, Note_on_c, 1, 82, 127
2, 28120, Note_off_c, 1, 49, 0
2, 28120, Note_off_c, 1, 75, 0
2, 28120, Note_off_c, 1, 82, 0
2, 28160, Note_on_c, 1, 61, 127
2, 28160, Note_on_c, 1, 66, 127
2, 28160, Note_on_c, 1, 72, 127
2, 28160, Note_on_c, 1, 76, 127
2, 28320, Note_off_c, 1, 66, 0
2, 28320, Note_on_c, 1, 68, 127
2, 28320, Note_on_c, 1, 71, 127
2, 28320, Note_off_c, 1, 72, 0
2, 28320, Note_on_c, 1, 73, 127
2, 28320, Note_off_c, 1, 76, 0
2, 28320, Note_on_c, 1, 77, 127
2, 28360, Note_on_c, 1, 66, 127
2, 28360, Note_off_c, 1, 68, 0
2, 28360, Note_off_c, 1, 71, 0
2, 28360, Note_on_c, 1, 72, 127
2, 28360, Note_off_c, 1, 73, 0
2, 28360, Note_on_c, 1, 76, 127
2, 28360, Note_off_c, 1, 77, 0
2, 28440, Note_off_c, 1, 61, 0
2, 28440, Note_off_c, 1, 66, 0
2, 28440, Note_off_c, 1, 72, 0
2, 28440, Note_off_c, 1, 76, 0
2, 28480, Note_on_c, 1, 50, 127
2, 28480, Note_on_c, 1, 57, 127
2, 28480, Note_on_c, 1, 74, 127
2, 28640, Note_off_c, 1, 50, 0
2, 28640, Note_off_c, 1, 57, 0
2, 28680, Note_on_c, 1, 50, 127
2, 28680, Note_on_c, 1, 60, 127
2, 28680, Note_on_c, 1, 69, 127
2, 28680, Note_off_c, 1, 74, 0
2, 28800, Note_off_c, 1, 50, 0
2, 28800, Note_off_c, 1, 60, 0
2, 28800, Note_off_c, 1, 69, 0
2, 28880, Note_on_c, 1, 60, 127
2, 28880, Note_on_c, 1, 62, 127
2, 28880, Note_on_c, 1, 71, 127
2, 29160, Note_on_c, 1, 69, 127
2, 29160, Note_off_c, 1, 71, 0
2, 29200, Note_on_c, 1, 58, 127
2, 29200, Note_off_c, 1, 62, 0
2, 29200, Note_on_c, 1, 67, 127
2, 29200, Note_off_c, 1, 69, 0
2, 29240, Note_on_c, 1, 46, 127
2, 29240, Note_on_c, 1, 53, 127
2, 29240, Note_on_c, 1, 56, 127
2, 29240, Note_off_c, 1, 60, 0
2, 29240, Note_on_c, 1, 62, 127
2, 29240, Note_off_c, 1, 67, 0
2, 29240, Note_on_c, 1, 68, 127
2, 29560, Note_off_c, 1, 46, 0
2, 29560, Note_off_c, 1, 53, 0
2, 29560, Note_off_c, 1, 56, 0
2, 29560, Note_off_c, 1, 58, 0
2, 29560, Note_off_c, 1, 62, 0
2, 29560, Note_off_c, 1, 68, 0
2, 29600, Note_on_c, 1, 46, 127
2, 29600, Note_on_c, 1, 53, 127
2, 29600, Note_on_c, 1, 56, 127
2, 29600, Note_on_c, 1, 58, 127
2, 29600, Note_on_c, 1, 62, 127
2, 29600, Note_on_c, 1, 68, 127
2, 30080, Note_off_c, 1, 46, 0
2, 30080, Note_off_c, 1, 53, 0
2, 30080, Note_off_c, 1, 56, 0
2, 30080, Note_off_c, 1, 58, 0
2, 30080, Note_off_c, 1, 62, 0
2, 30080, Note_off_c, 1, 68, 0
2, 30120, Note_on_c, 1, 51, 127
2, 30120, Note_on_c, 1, 55, 127
2, 30120, Note_on_c, 1, 60, 127
2, 30120, Note_on_c, 1, 67, 127
2, 30440, Note_off_c, 1, 51, 0
2, 30440, Note_off_c, 1, 55, 0
2, 30440, Note_off_c, 1, 60, 0
2, 30440, Note_off_c, 1, 67, 0
2, 30480, Note_on_c, 1, 31, 127
2, 30480, Note_on_c, 1, 43, 127
2, 30480, Note_on_c, 1, 48, 127
2, 30480, Note_on_c, 1, 52, 127
2, 30480, Note_on_c, 1, 55, 127
2, 30480, Note_on_c, 1, 58, 127
2, 30480, Note_on_c, 1, 60, 127
2, 30480, Note_on_c, 1, 64, 127
2, 30480, Note_on_c, 1, 70, 127
2, 30480, Note_on_c, 1, 72, 127
2, 30800, Note_off_c, 1, 31, 0
2, 30800, Note_on_c, 1, 36, 127
2, 30800, Note_off_c, 1, 43, 0
2, 30800, Note_off_c, 1, 52, 0
2, 30800, Note_off_c, 1, 55, 0
2, 30800, Note_off_c, 1, 58, 0
2, 30800, Note_off_c, 1, 64, 0
2, 30800, Note_off_c, 1, 70, 0
2, 30800, Note_off_c, 1, 72, 0
2, 30840, Note_off_c, 1, 36, 0
2, 30840, Note_off_c, 1, 48, 0
2, 30840, Note_on_c, 1, 53, 127
2, 30840, Note_on_c, 1, 58, 127
2, 30840, Note_off_c, 1, 60, 0
2, 30840, Note_on_c, 1, 62, 127
2, 30840, Note_on_c, 1, 65, 127
2, 30840, Note_on_c, 1, 72, 127
2, 31080, Note_off_c, 1, 53, 0
2, 31080, Note_off_c, 1, 58, 0
2, 31080, Note_off_c, 1, 62, 0
2, 31080, Note_off_c, 1, 65, 0
2, 31080, Note_off_c, 1, 72, 0
2, 31120, Note_on_c, 1, 53, 127
2, 31120, Note_on_c, 1, 58, 127
2, 31120, Note_on_c, 1, 62, 127
2, 31120, Note_on_c, 1, 65, 127
2, 31120, Note_on_c, 1, 72, 127
2, 31160, Note_off_c, 1, 53, 0
2, 31160, Note_off_c, 1, 58, 0
2, 31160, Note_off_c, 1, 62, 0
2, 31160, Note_off_c, 1, 65, 0
2, 31200, Note_on_c, 1, 55, 127
2, 31200, Note_on_c, 1, 59, 127
2, 31200, Note_on_c, 1, 66, 127
2, 31200, Note_on_c, 1, 71, 127
2, 31200, Note_off_c, 1, 72, 0
2, 31200, Note_on_c, 1, 74, 127
2, 31200, Note_on_c, 1, 78, 127
2, 31360, Note_on_c, 1, 67, 127
2, 31360, Note_off_c, 1, 71, 0
2, 31360, Note_off_c, 1, 74, 0
2, 31360, Note_off_c, 1, 78, 0
2, 31400, Note_off_c, 1, 67, 0
2, 31400, Note_on_c, 1, 71, 127
2, 31400, Note_on_c, 1, 74, 127
2, 31400, Note_on_c, 1, 78, 127
2, 31520, Note_off_c, 1, 55, 0
2, 31520, Note_off_c, 1, 59, 0
2, 31520, Note_off_c, 1, 66, 0
2, 31520, Note_off_c, 1, 71, 0
2, 31520, Note_off_c, 1, 74, 0
2, 31520, Note_off_c, 1, 78, 0
2, 31560, Note_on_c, 1, 48, 127
2, 31560, Note_on_c, 1, 64, 127
2, 31560, Note_on_c, 1, 67, 127
2, 31560, Note_on_c, 1, 72, 127
2, 31560, Note_on_c, 1, 79, 127
2, 32560, Note_off_c, 1, 48, 0
2, 32560, Note_off_c, 1, 64, 0
2, 32560, Note_off_c, 1, 67, 0
2, 32560, Note_off_c, 1, 72, 0
2, 32560, Note_off_c, 1, 79, 0
2, 32600, Note_on_c, 1, 23, 127
2, 32600, Note_on_c, 1, 56, 127
2, 32600, Note_on_c, 1, 65, 127
2, 32600, Note_on_c, 1, 68, 127
2, 32640, Note_off_c, 1, 23, 0
2, 32640, Note_on_c, 1, 45, 127
2, 32640, Note_on_c, 1, 52, 127
2, 32640, Note_off_c, 1, 56, 0
2, 32640, Note_on_c, 1, 61, 127
2, 32640, Note_on_c, 1, 64, 127
2, 32640, Note_off_c, 1, 65, 0
2, 32680, Note_off_c, 1, 45, 0
2, 32680, Note_off_c, 1, 52, 0
2, 32680, Note_off_c, 1, 61, 0
2, 32680, Note_off_c, 1, 64, 0
2, 32680, Note_on_c, 1, 71, 127
2, 32680, Note_on_c, 1, 73, 127
2, 32680, Note_on_c, 1, 77, 127
2, 32680, Note_on_c, 1, 85, 127
2, 32720, Note_on_c, 1, 40, 127
2, 32720, Note_on_c, 1, 44, 127
2, 32720, Note_on_c, 1, 47, 127
2, 32720, Note_on_c, 1, 52, 127
2, 32720, Note_off_c, 1, 68, 0
2, 32720, Note_off_c, 1, 71, 0
2, 32720, Note_off_c, 1, 73, 0
2, 32720, Note_off_c, 1, 77, 0
2, 32720, Note_on_c, 1, 81, 127
2, 32720, Note_off_c, 1, 85, 0
2, 32720, Note_on_c, 1, 93, 127
2, 32760, Note_off_c, 1, 40, 0
2, 32760, Note_off_c, 1, 44, 0
2, 32760, Note_off_c, 1, 47, 0
2, 32760, Note_off_c, 1, 52, 0
2, 32760, Note_on_c, 1, 58, 127
2, 32760, Note_on_c, 1, 65, 127
2, 32760, Note_on_c, 1, 69, 127
2, 32760, Note_on_c, 1, 76, 127
2, 32760, Note_off_c, 1, 81, 0
2, 32760, Note_off_c, 1, 93, 0
2, 32800, Note_off_c, 1, 58, 0
2, 32800, Note_off_c, 1, 65, 0
2, 32800, Note_off_c, 1, 69, 0
2, 32800, Note_on_c, 1, 75, 127
2, 32800, Note_off_c, 1, 76, 0
2, 32800, Note_on_c, 1, 80, 127
2, 32800, Note_on_c, 1, 83, 127
2, 32800, Note_on_c, 1, 87, 127
2, 32800, Note_on_c, 1, 92, 127
2, 32840, Note_off_c, 1, 75, 0
2, 32840, Note_off_c, 1, 80, 0
2, 32840, Note_on_c, 1, 86, 127
2, 32840, Note_off_c, 1, 87, 0
2, 32840, Note_on_c, 1, 88, 127
2, 32840, Note_off_c, 1, 92, 0
2, 32880, Note_on_c, 1, 46, 127
2, 32880, Note_on_c, 1, 60, 127
2, 32880, Note_on_c, 1, 69, 127
2, 32880, Note_on_c, 1, 72, 127
2, 32880, Note_off_c, 1, 83, 0
2, 32880, Note_off_c, 1, 86, 0
2, 32880, Note_off_c, 1, 88, 0
2, 32920, Note_off_c, 1, 46, 0
2, 32920, Note_off_c, 1, 60, 0
2, 32920, Note_off_c, 1, 69, 0
2, 32920, Note_off_c, 1, 72, 0
2, 32920, Note_on_c, 1, 73, 127
2, 32920, Note_on_c, 1, 76, 127
2, 32920, Note_on_c, 1, 84, 127
2, 32960, Note_on_c, 1, 37, 127
2, 32960, Note_on_c, 1, 66, 127
2, 32960, Note_off_c, 1, 73, 0
2, 32960, Note_off_c, 1, 76, 0
2, 32960, Note_off_c, 1, 84, 0
2, 32960, Note_on_c, 1, 90, 127
2, 33000, Note_on_c, 1, 49, 127
2, 33000, Note_on_c, 1, 54, 127
2, 33000, Note_on_c, 1, 59, 127
2, 33000, Note_off_c, 1, 66, 0
2, 33000, Note_off_c, 1, 90, 0
2, 33040, Note_off_c, 1, 37, 0
2, 33040, Note_off_c, 1, 49, 0
2, 33040, Note_off_c, 1, 54, 0
2, 33040, Note_off_c, 1, 59, 0
2, 33080, Note_on_c, 1, 49, 127
2, 33080, Note_on_c, 1, 52, 127
2, 33080, Note_on_c, 1, 55, 127
2, 33080, Note_on_c, 1, 58, 127
2, 33080, Note_on_c, 1, 70, 127
2, 33120, Note_off_c, 1, 49, 0
2, 33120, Note_off_c, 1, 52, 0
2, 33120, Note_on_c, 1, 53, 127
2, 33120, Note_off_c, 1, 55, 0
2, 33120, Note_on_c, 1, 61, 127
2, 33120, Note_on_c, 1, 65, 127
2, 33120, Note_off_c, 1, 70, 0
2, 33120, Note_on_c, 1, 89, 127
2, 33160, Note_on_c, 1, 37, 127
2, 33160, Note_off_c, 1, 53, 0
2, 33160, Note_off_c, 1, 61, 0
2, 33160, Note_on_c, 1, 63, 127
2, 33160, Note_off_c, 1, 65, 0
2, 33160, Note_on_c, 1, 73, 127
2, 33160, Note_off_c, 1, 89, 0
2, 33200, Note_off_c, 1, 37, 0
2, 33200, Note_on_c, 1, 47, 127
2, 33200, Note_on_c, 1, 54, 127
2, 33200, Note_off_c, 1, 58, 0
2, 33200, Note_on_c, 1, 59, 127
2, 33200, Note_off_c, 1, 63, 0
2, 33200, Note_off_c, 1, 73, 0
2, 33200, Note_on_c, 1, 75, 127
2, 33200, Note_on_c, 1, 81, 127
2, 33200, Note_on_c, 1, 83, 127
2, 33200, Note_on_c, 1, 87, 127
2, 33240, Note_on_c, 1, 46, 127
2, 33240, Note_on_c, 1, 51, 127
2, 33240, Note_off_c, 1, 59, 0
2, 33240, Note_on_c, 1, 66, 127
2, 33240, Note_off_c, 1, 75, 0
2, 33240, Note_off_c, 1, 81, 0
2, 33240, Note_off_c, 1, 83, 0
2, 33240, Note_off_c, 1, 87, 0
2, 33280, Note_off_c, 1, 46, 0
2, 33280, Note_off_c, 1, 47, 0
2, 33280, Note_off_c, 1, 51, 0
2, 33280, Note_off_c, 1, 54, 0
2, 33280, Note_off_c, 1, 66, 0
2, 33280, Note_on_c, 1, 68, 127
2, 33280, Note_on_c, 1, 76, 127
2, 33280, Note_on_c, 1, 79, 127
2, 33280, Note_on_c, 1, 84, 127
2, 33320, Note_off_c, 1, 68, 0
2, 33320, Note_off_c, 1, 76, 0
2, 33320, Note_off_c, 1, 79, 0
2, 33320, Note_off_c, 1, 84, 0
2, 33360, Note_on_c, 1, 61, 127
2, 33360, Note_on_c, 1, 64, 127
2, 33360, Note_on_c, 1, 67, 127
2, 33360, Note_on_c, 1, 79, 127
2, 33360, Note_on_c, 1, 82, 127
2, 34040, Note_off_c, 1, 61, 0
2, 34040, Note_off_c, 1, 64, 0
2, 34040, Note_off_c, 1, 67, 0
2, 34040, Note_off_c, 1, 79, 0
2, 34040, Note_off_c, 1, 82, 0
2, 34080, Note_on_c, 1, 54, 127
2, 34080, Note_on_c, 1, 66, 127
2, 34080, Note_on_c, 1, 86, 127
2, 34080, Note_on_c, 1, 93, 127
2, 34120, Note_on_c, 1, 33, 127
2, 34120, Note_on_c, 1, 45, 127
2, 34120, Note_off_c, 1, 54, 0
2, 34120, Note_off_c, 1, 66, 0
2, 34120, Note_off_c, 1, 86, 0
2, 34120, Note_on_c, 1, 89, 127
2, 34120, Note_on_c, 1, 101, 127
2, 34160, Note_off_c, 1, 33, 0
2, 34160, Note_off_c, 1, 45, 0
2, 34160, Note_on_c, 1, 58, 127
2, 34160, Note_on_c, 1, 63, 127
2, 34160, Note_on_c, 1, 67, 127
2, 34160, Note_off_c, 1, 89, 0
2, 34160, Note_off_c, 1, 101, 0
2, 34200, Note_on_c, 1, 37, 127
2, 34200, Note_on_c, 1, 48, 127
2, 34200, Note_on_c, 1, 56, 127
2, 34200, Note_off_c, 1, 58, 0
2, 34200, Note_on_c, 1, 60, 127
2, 34200, Note_off_c, 1, 63, 0
2, 34200, Note_off_c, 1, 67, 0
2, 34200, Note_off_c, 1, 93, 0
2, 34240, Note_off_c, 1, 37, 0
2, 34240, Note_on_c, 1, 42, 127
2, 34240, Note_off_c, 1, 48, 0
2, 34240, Note_on_c, 1, 53, 127
2, 34240, Note_off_c, 1, 56, 0
2, 34240, Note_on_c, 1, 58, 127
2, 34240, Note_off_c, 1, 60, 0
2, 34240, Note_on_c, 1, 61, 127
2, 34240, Note_on_c, 1, 68, 127
2, 34240, Note_on_c, 1, 73, 127
2, 34360, Note_on_c, 1, 33, 127
2, 34360, Note_off_c, 1, 42, 0
2, 34360, Note_on_c, 1, 51, 127
2, 34360, Note_off_c, 1, 53, 0
2, 34360, Note_off_c, 1, 58, 0
2, 34360, Note_off_c, 1, 61, 0
2, 34360, Note_on_c, 1, 63, 127
2, 34360, Note_off_c, 1, 68, 0
2, 34360, Note_off_c, 1, 73, 0
2, 34400, Note_off_c, 1, 33, 0
2, 34400, Note_off_c, 1, 51, 0
2, 34400, Note_off_c, 1, 63, 0
2, 34400, Note_on_c, 1, 77, 127
2, 34400, Note_on_c, 1, 80, 127
2, 34400, Note_on_c, 1, 86, 127
2, 34400, Note_on_c, 1, 101, 127
2, 34440, Note_on_c, 1, 43, 127
2, 34440, Note_on_c, 1, 57, 127
2, 34440, Note_on_c, 1, 67, 127
2, 34440, Note_on_c, 1, 73, 127
2, 34440, Note_off_c, 1, 77, 0
2, 34440, Note_off_c, 1, 80, 0
2, 34440, Note_off_c, 1, 86, 0
2, 34440, Note_off_c, 1, 101, 0
2, 34480, Note_off_c, 1, 43, 0
2, 34480, Note_on_c, 1, 47, 127
2, 34480, Note_off_c, 1, 57, 0
2, 34480, Note_off_c, 1, 67, 0
2, 34480, Note_off_c, 1, 73, 0
2, 34480, Note_on_c, 1, 77, 127
2, 34480, Note_on_c, 1, 91, 127
2, 34520, Note_on_c, 1, 43, 127
2, 34520, Note_off_c, 1, 47, 0
2, 34520, Note_on_c, 1, 57, 127
2, 34520, Note_on_c, 1, 67, 127
2, 34520, Note_on_c, 1, 73, 127
2, 34520, Note_off_c, 1, 77, 0
2, 34520, Note_off_c, 1, 91, 0
2, 34560, Note_off_c, 1, 43, 0
2, 34560, Note_on_c, 1, 44, 127
2, 34560, Note_on_c, 1, 48, 127
2, 34560, Note_off_c, 1, 57, 0
2, 34560, Note_off_c, 1, 67, 0
2, 34560, Note_on_c, 1, 72, 127
2, 34560, Note_off_c, 1, 73, 0
2, 34560, Note_on_c, 1, 74, 127
2, 34560, Note_on_c, 1, 84, 127
2, 34600, Note_off_c, 1, 48, 0
2, 34600, Note_on_c, 1, 56, 127
2, 34600, Note_on_c, 1, 70, 127
2, 34600, Note_off_c, 1, 72, 0
2, 34600, Note_on_c, 1, 73, 127
2, 34600, Note_off_c, 1, 74, 0
2, 34600, Note_on_c, 1, 77, 127
2, 34600, Note_off_c, 1, 84, 0
2, 34640, Note_off_c, 1, 44, 0
2, 34640, Note_off_c, 1, 56, 0
2, 34640, Note_on_c, 1, 58, 127
2, 34640, Note_on_c, 1, 63, 127
2, 34640, Note_on_c, 1, 67, 127
2, 34640, Note_off_c, 1, 70, 0
2, 34640, Note_off_c, 1, 73, 0
2, 34640, Note_on_c, 1, 82, 127
2, 34680, Note_off_c, 1, 63, 0
2, 34680, Note_off_c, 1, 67, 0
2, 34680, Note_on_c, 1, 70, 127
2, 34680, Note_off_c, 1, 77, 0
2, 34680, Note_on_c, 1, 80, 127
2, 34680, Note_off_c, 1, 82, 0
2, 34680, Note_on_c, 1, 92, 127
2, 34720, Note_off_c, 1, 58, 0
2, 34720, Note_on_c, 1, 59, 127
2, 34720, Note_on_c, 1, 63, 127
2, 34720, Note_on_c, 1, 69, 127
2, 34720, Note_off_c, 1, 70, 0
2, 34720, Note_off_c, 1, 80, 0
2, 34720, Note_on_c, 1, 85, 127
2, 34720, Note_off_c, 1, 92, 0
2, 34760, Note_on_c, 1, 44, 127
2, 34760, Note_on_c, 1, 56, 127
2, 34760, Note_off_c, 1, 59, 0
2, 34760, Note_off_c, 1, 63, 0
2, 34760, Note_off_c, 1, 69, 0
2, 34760, Note_on_c, 1, 70, 127
2, 34760, Note_on_c, 1, 73, 127
2, 34760, Note_on_c, 1, 77, 127
2, 34760, Note_off_c, 1, 85, 0
2, 35080, Note_off_c, 1, 44, 0
2, 35080, Note_on_c, 1, 48, 127
2, 35080, Note_on_c, 1, 50, 127
2, 35080, Note_on_c, 1, 54, 127
2, 35080, Note_off_c, 1, 56, 0
2, 35080, Note_on_c, 1, 60, 127
2, 35080, Note_off_c, 1, 70, 0
2, 35080, Note_on_c, 1, 72, 127
2, 35080, Note_off_c, 1, 73, 0
2, 35080, Note_on_c, 1, 74, 127
2, 35080, Note_off_c, 1, 77, 0
2, 35080, Note_on_c, 1, 78, 127
2, 35080, Note_on_c, 1, 84, 127
2, 35120, Note_on_c, 1, 46, 127
2, 35120, Note_off_c, 1, 48, 0
2, 35120, Note_off_c, 1, 50, 0
2, 35120, Note_off_c, 1, 54, 0
2, 35120, Note_on_c, 1, 62, 127
2, 35120, Note_on_c, 1, 70, 127
2, 35120, Note_off_c, 1, 72, 0
2, 35120, Note_off_c, 1, 74, 0
2, 35120, Note_off_c, 1, 78, 0
2, 35120, Note_off_c, 1, 84, 0
2, 35240, Note_off_c, 1, 46, 0
2, 35240, Note_off_c, 1, 60, 0
2, 35240, Note_off_c, 1, 62, 0
2, 35240, Note_off_c, 1, 70, 0
2, 35280, Note_on_c, 1, 46, 127
2, 35280, Note_on_c, 1, 60, 127
2, 35280, Note_on_c, 1, 62, 127
2, 35280, Note_on_c, 1, 70, 127
2, 35480, Note_off_c, 1, 46, 0
2, 35480, Note_off_c, 1, 60, 0
2, 35480, Note_off_c, 1, 62, 0
2, 35480, Note_off_c, 1, 70, 0
2, 35520, Note_on_c, 1, 39, 127
2, 35520, Note_on_c, 1, 67, 127
2, 35520, Note_on_c, 1, 70, 127
2, 35520, Note_on_c, 1, 72, 127
2, 35520, Note_on_c, 1, 75, 127
2, 36520, Note_off_c, 1, 39, 0
2, 36520, Note_off_c, 1, 67, 0
2, 36520, Note_off_c, 1, 70, 0
2, 36520, Note_off_c, 1, 72, 0
2, 36520, Note_off_c, 1, 75, 0
2, 36560, Note_on_c, 1, 33, 127
2, 36560, Note_on_c, 1, 45, 127
2, 36560, Note_on_c, 1, 69, 127
2, 36560, Note_on_c, 1, 72, 127
2, 36560, Note_on_c, 1, 77, 127
2, 36560, Note_on_c, 1, 81, 127
2, 36880, Note_off_c, 1, 69, 0
2, 36880, Note_off_c, 1, 77, 0
2, 36880, Note_off_c, 1, 81, 0
2, 36920, Note_off_c, 1, 33, 0
2, 36920, Note_off_c, 1, 45, 0
2, 36920, Note_on_c, 1, 46, 127
2, 36920, Note_on_c, 1, 57, 127
2, 36920, Note_on_c, 1, 63, 127
2, 37240, Note_off_c, 1, 46, 0
2, 37240, Note_off_c, 1, 57, 0
2, 37240, Note_off_c, 1, 63, 0
2, 37240, Note_off_c, 1, 72, 0
2, 37320, Note_on_c, 1, 46, 127
2, 37320, Note_on_c, 1, 53, 127
2, 37320, Note_on_c, 1, 60, 127
2, 37320, Note_on_c, 1, 65, 127
2, 37320, Note_on_c, 1, 69, 127
2, 37320, Note_on_c, 1, 72, 127
2, 37840, Note_off_c, 1, 60, 0
2, 37840, Note_on_c, 1, 61, 127
2, 37840, Note_off_c, 1, 72, 0
2, 37840, Note_on_c, 1, 73, 127
2, 37960, Note_off_c, 1, 46, 0
2, 37960, Note_off_c, 1, 53, 0
2, 37960, Note_off_c, 1, 61, 0
2, 37960, Note_off_c, 1, 65, 0
2, 37960, Note_off_c, 1, 69, 0
2, 37960, Note_off_c, 1, 73, 0
2, 38000, Note_on_c, 1, 48, 127
2, 38000, Note_on_c, 1, 55, 127
2, 38000, Note_on_c, 1, 58, 127
2, 38000, Note_on_c, 1, 70, 127
2, 38000, Note_on_c, 1, 74, 127
2, 38000, Note_on_c, 1, 77, 127
2, 38040, Note_on_c, 1, 43, 127
2, 38040, Note_off_c, 1, 48, 0
2, 38040, Note_on_c, 1, 51, 127
2, 38040, Note_off_c, 1, 58, 0
2, 38040, Note_on_c, 1, 63, 127
2, 38040, Note_off_c, 1, 70, 0
2, 38040, Note_on_c, 1, 72, 127
2, 38040, Note_off_c, 1, 74, 0
2, 38040, Note_off_c, 1, 77, 0
2, 38080, Note_on_c, 1, 36, 127
2, 38080, Note_off_c, 1, 43, 0
2, 38080, Note_on_c, 1, 48, 127
2, 38080, Note_off_c, 1, 51, 0
2, 38080, Note_off_c, 1, 55, 0
2, 38080, Note_on_c, 1, 60, 127
2, 38080, Note_off_c, 1, 63, 0
2, 38080, Note_on_c, 1, 80, 127
2, 38080, Note_on_c, 1, 88, 127
2, 38080, Note_on_c, 1, 92, 127
2, 38120, Note_off_c, 1, 36, 0
2, 38120, Note_on_c, 1, 43, 127
2, 38120, Note_off_c, 1, 48, 0
2, 38120, Note_on_c, 1, 51, 127
2, 38120, Note_on_c, 1, 55, 127
2, 38120, Note_off_c, 1, 60, 0
2, 38120, Note_on_c, 1, 63, 127
2, 38120, Note_off_c, 1, 80, 0
2, 38120, Note_off_c, 1, 88, 0
2, 38120, Note_off_c, 1, 92, 0
2, 38320, Note_off_c, 1, 51, 0
2, 38320, Note_off_c, 1, 55, 0
2, 38320, Note_off_c, 1, 63, 0
2, 38320, Note_off_c, 1, 72, 0
2, 38360, Note_off_c, 1, 43, 0
2, 38360, Note_on_c, 1, 48, 127
2, 38360, Note_on_c, 1, 58, 127
2, 38360, Note_on_c, 1, 70, 127
2, 38360, Note_on_c, 1, 80, 127
2, 38480, Note_on_c, 1, 40, 127
2, 38480, Note_on_c, 1, 47, 127
2, 38480, Note_off_c, 1, 48, 0
2, 38480, Note_on_c, 1, 52, 127
2, 38480, Note_off_c, 1, 58, 0
2, 38480, Note_on_c, 1, 67, 127
2, 38480, Note_off_c, 1, 70, 0
2, 38480, Note_on_c, 1, 71, 127
2, 38480, Note_off_c, 1, 80, 0
2, 38520, Note_off_c, 1, 40, 0
2, 38520, Note_off_c, 1, 47, 0
2, 38520, Note_off_c, 1, 52, 0
2, 38520, Note_on_c, 1, 60, 127
2, 38520, Note_on_c, 1, 77, 127
2, 38560, Note_on_c, 1, 48, 127
2, 38560, Note_off_c, 1, 60, 0
2, 38560, Note_on_c, 1, 62, 127
2, 38560, Note_on_c, 1, 64, 127
2, 38560, Note_off_c, 1, 67, 0
2, 38560, Note_off_c, 1, 71, 0
2, 38560, Note_on_c, 1, 74, 127
2, 38560, Note_off_c, 1, 77, 0
2, 38600, Note_on_c, 1, 41, 127
2, 38600, Note_on_c, 1, 47, 127
2, 38600, Note_off_c, 1, 48, 0
2, 38600, Note_on_c, 1, 50, 127
2, 38600, Note_on_c, 1, 55, 127
2, 38600, Note_off_c, 1, 62, 0
2, 38600, Note_off_c, 1, 64, 0
2, 38600, Note_off_c, 1, 74, 0
2, 38640, Note_off_c, 1, 41, 0
2, 38640, Note_on_c, 1, 45, 127
2, 38640, Note_off_c, 1, 47, 0
2, 38640, Note_on_c, 1, 48, 127
2, 38640, Note_off_c, 1, 50, 0
2, 38640, Note_on_c, 1, 53, 127
2, 38640, Note_off_c, 1, 55, 0
2, 38640, Note_on_c, 1, 81, 127
2, 38680, Note_on_c, 1, 41, 127
2, 38680, Note_off_c, 1, 45, 0
2, 38680, Note_off_c, 1, 53, 0
2, 38680, Note_off_c, 1, 81, 0
2, 38720, Note_on_c, 1, 38, 127
2, 38720, Note_off_c, 1, 41, 0
2, 38720, Note_off_c, 1, 48, 0
2, 38720, Note_on_c, 1, 50, 127
2, 38720, Note_on_c, 1, 53, 127
2, 38720, Note_on_c, 1, 57, 127
2, 38720, Note_on_c, 1, 62, 127
2, 39040, Note_off_c, 1, 38, 0
2, 39040, Note_off_c, 1, 50, 0
2, 39040, Note_off_c, 1, 53, 0
2, 39040, Note_off_c, 1, 57, 0
2, 39040, Note_off_c, 1, 62, 0
2, 39080, Note_on_c, 1, 55, 127
2, 39080, Note_on_c, 1, 57, 127
2, 39080, Note_on_c, 1, 61, 127
2, 39080, Note_on_c, 1, 66, 127
2, 39200, Note_off_c, 1, 66, 0
2, 39240, Note_on_c, 1, 48, 127
2, 39240, Note_off_c, 1, 55, 0
2, 39240, Note_off_c, 1, 57, 0
2, 39240, Note_off_c, 1, 61, 0
2, 39240, Note_on_c, 1, 64, 127
2, 39240, Note_on_c, 1, 84, 127
2, 39240, Note_on_c, 1, 93, 127
2, 39280, Note_off_c, 1, 48, 0
2, 39280, Note_off_c, 1, 64, 0
2, 39280, Note_off_c, 1, 84, 0
2, 39280, Note_off_c, 1, 93, 0
2, 39320, Note_on_c, 1, 32, 127
2, 39320, Note_on_c, 1, 44, 127
2, 39320, Note_on_c, 1, 62, 127
2, 39320, Note_on_c, 1, 72, 127
2, 39360, Note_off_c, 1, 32, 0
2, 39360, Note_off_c, 1, 44, 0
2, 39360, Note_on_c, 1, 55, 127
2, 39360, Note_on_c, 1, 60, 127
2, 39360, Note_off_c, 1, 62, 0
2, 39360, Note_on_c, 1, 66, 127
2, 39360, Note_off_c, 1, 72, 0
2, 39360, Note_on_c, 1, 78, 127
2, 39400, Note_off_c, 1, 55, 0
2, 39400, Note_on_c, 1, 57, 127
2, 39400, Note_off_c, 1, 60, 0
2, 39400, Note_off_c, 1, 66, 0
2, 39400, Note_on_c, 1, 67, 127
2, 39400, Note_on_c, 1, 74, 127
2, 39400, Note_on_c, 1, 76, 127
2, 39400, Note_off_c, 1, 78, 0
2, 39440, Note_on_c, 1, 61, 127
2, 39440, Note_off_c, 1, 67, 0
2, 39440, Note_on_c, 1, 69, 127
2, 39440, Note_off_c, 1, 74, 0
2, 39440, Note_off_c, 1, 76, 0
2, 39480, Note_on_c, 1, 33, 127
2, 39480, Note_on_c, 1, 45, 127
2, 39480, Note_off_c, 1, 61, 0
2, 39480, Note_off_c, 1, 69, 0
2, 39480, Note_on_c, 1, 72, 127
2, 39480, Note_on_c, 1, 75, 127
2, 39480, Note_on_c, 1, 79, 127
2, 39480, Note_on_c, 1, 84, 127
2, 39480, Note_on_c, 1, 87, 127
2, 39480, Note_on_c, 1, 91, 127
2, 39480, Note_on_c, 1, 96, 127
2, 39760, Note_off_c, 1, 33, 0
2, 39760, Note_off_c, 1, 45, 0
2, 39760, Note_off_c, 1, 57, 0
2, 39760, Note_off_c, 1, 72, 0
2, 39760, Note_off_c, 1, 75, 0
2, 39760, Note_off_c, 1, 79, 0
2, 39760, Note_off_c, 1, 84, 0
2, 39760, Note_off_c, 1, 87, 0
2, 39760, Note_off_c, 1, 91, 0
2, 39760, Note_off_c, 1, 96, 0
2, 39800, Note_on_c, 1, 36, 127
2, 39800, Note_on_c, 1, 48, 127
2, 39800, Note_on_c, 1, 60, 127
2, 39800, Note_on_c, 1, 64, 127
2, 39800, Note_on_c, 1, 69, 127
2, 39800, Note_on_c, 1, 72, 127
2, 40280, Note_off_c, 1, 60, 0
2, 40280, Note_off_c, 1, 72, 0
2, 40320, Note_on_c, 1, 60, 127
2, 40320, Note_on_c, 1, 72, 127
2, 40800, Note_off_c, 1, 60, 0
2, 40800, Note_off_c, 1, 72, 0
2, 40840, Note_off_c, 1, 36, 0
2, 40840, Note_off_c, 1, 48, 0
2, 40840, Note_off_c, 1, 64, 0
2, 40840, Note_off_c, 1, 69, 0
2, 40880, Note_on_c, 1, 35, 127
2, 40880, Note_on_c, 1, 47, 127
2, 40880, Note_on_c, 1, 54, 127
2, 40880, Note_on_c, 1, 59, 127
2, 40880, Note_on_c, 1, 63, 127
2, 40880, Note_on_c, 1, 78, 127
2, 40920, Note_off_c, 1, 35, 0
2, 40920, Note_off_c, 1, 47, 0
2, 40920, Note_on_c, 1, 52, 127
2, 40920, Note_on_c, 1, 57, 127
2, 40920, Note_off_c, 1, 78, 0
2, 40920, Note_on_c, 1, 87, 127
2, 40960, Note_off_c, 1, 52, 0
2, 40960, Note_off_c, 1, 57, 0
2, 40960, Note_on_c, 1, 58, 127
2, 40960, Note_off_c, 1, 59, 0
2, 40960, Note_on_c, 1, 61, 127
2, 40960, Note_off_c, 1, 87, 0
2, 40960, Note_on_c, 1, 90, 127
2, 41000, Note_off_c, 1, 54, 0
2, 41000, Note_off_c, 1, 58, 0
2, 41000, Note_off_c, 1, 61, 0
2, 41000, Note_off_c, 1, 63, 0
2, 41000, Note_on_c, 1, 64, 127
2, 41000, Note_on_c, 1, 80, 127
2, 41000, Note_on_c, 1, 85, 127
2, 41000, Note_on_c, 1, 88, 127
2, 41000, Note_off_c, 1, 90, 0
2, 41000, Note_on_c, 1, 92, 127
2, 41040, Note_on_c, 1, 42, 127
2, 41040, Note_on_c, 1, 46, 127
2, 41040, Note_on_c, 1, 54, 127
2, 41040, Note_off_c, 1, 64, 0
2, 41040, Note_on_c, 1, 74, 127
2, 41040, Note_off_c, 1, 80, 0
2, 41040, Note_off_c, 1, 85, 0
2, 41040, Note_on_c, 1, 86, 127
2, 41040, Note_off_c, 1, 88, 0
2, 41040, Note_off_c, 1, 92, 0
2, 41080, Note_off_c, 1, 42, 0
2, 41080, Note_off_c, 1, 46, 0
2, 41080, Note_on_c, 1, 57, 127
2, 41080, Note_on_c, 1, 62, 127
2, 41080, Note_off_c, 1, 74, 0
2, 41080, Note_on_c, 1, 80, 127
2, 41080, Note_off_c, 1, 86, 0
2, 41160, Note_on_c, 1, 31, 127
2, 41160, Note_on_c, 1, 38, 127
2, 41160, Note_off_c, 1, 54, 0
2, 41160, Note_off_c, 1, 57, 0
2, 41160, Note_off_c, 1, 62, 0
2, 41160, Note_on_c, 1, 63, 127
2, 41160, Note_on_c, 1, 66, 127
2, 41160, Note_on_c, 1, 69, 127
2, 41160, Note_on_c, 1, 72, 127
2, 41160, Note_off_c, 1, 80, 0
2, 41200, Note_off_c, 1, 31, 0
2, 41200, Note_off_c, 1, 38, 0
2, 41200, Note_off_c, 1, 63, 0
2, 41200, Note_off_c, 1, 66, 0
2, 41200, Note_off_c, 1, 69, 0
2, 41200, Note_off_c, 1, 72, 0
2, 41240, Note_on_c, 1, 55, 127
2, 41240, Note_on_c, 1, 58, 127
2, 41240, Note_on_c, 1, 61, 127
2, 41240, Note_on_c, 1, 64, 127
2, 41240, Note_on_c, 1, 73, 127
2, 41240, Note_on_c, 1, 85, 127
2, 41600, Note_off_c, 1, 55, 0
2, 41600, Note_off_c, 1, 58, 0
2, 41600, Note_off_c, 1, 61, 0
2, 41600, Note_off_c, 1, 64, 0
2, 41600, Note_off_c, 1, 73, 0
2, 41600, Note_off_c, 1, 85, 0
2, 41640, Note_on_c, 1, 55, 127
2, 41640, Note_on_c, 1, 58, 127
2, 41640, Note_on_c, 1, 61, 127
2, 41640, Note_on_c, 1, 64, 127
2, 41640, Note_on_c, 1, 73, 127
2, 41640, Note_on_c, 1, 85, 127
2, 43800, Note_off_c, 1, 55, 0
2, 43800, Note_off_c, 1, 58, 0
2, 43800, Note_off_c, 1, 61, 0
2, 43800, Note_off_c, 1, 64, 0
2, 43800, Note_off_c, 1, 73, 0
2, 43800, Note_off_c, 1, 85, 0
2, 43840, Note_on_c, 1, 55, 127
2, 43840, Note_on_c, 1, 58, 127
2, 43840, Note_on_c, 1, 61, 127
2, 43840, Note_on_c, 1, 64, 127
2, 43840, Note_on_c, 1, 73, 127
2, 43840, Note_on_c, 1, 85, 127
2, 45960, Note_off_c, 1, 55, 0
2, 45960, Note_off_c, 1, 58, 0
2, 45960, Note_off_c, 1, 61, 0
2, 45960, Note_off_c, 1, 64, 0
2, 45960, Note_off_c, 1, 73, 0
2, 45960, Note_off_c, 1, 85, 0
2, 46000, Note_on_c, 1, 55, 127
2, 46000, Note_on_c, 1, 58, 127
2, 46000, Note_on_c, 1, 61, 127
2, 46000, Note_on_c, 1, 64, 127
2, 46000, Note_on_c, 1, 73, 127
2, 46000, Note_on_c, 1, 85, 127
2, 46320, Note_off_c, 1, 55, 0
2, 46320, Note_on_c, 1, 57, 127
2, 46320, Note_off_c, 1, 58, 0
2, 46320, Note_off_c, 1, 61, 0
2, 46320, Note_off_c, 1, 64, 0
2, 46320, Note_on_c, 1, 66, 127
2, 46320, Note_off_c, 1, 73, 0
2, 46320, Note_off_c, 1, 85, 0
2, 46320, Note_on_c, 1, 90, 127
2, 46320, Note_on_c, 1, 93, 127
2, 46360, Note_on_c, 1, 61, 127
2, 46360, Note_off_c, 1, 66, 0
2, 46360, Note_on_c, 1, 78, 127
2, 46360, Note_on_c, 1, 81, 127
2, 46360, Note_on_c, 1, 85, 127
2, 46360, Note_off_c, 1, 90, 0
2, 46360, Note_off_c, 1, 93, 0
2, 46400, Note_on_c, 1, 53, 127
2, 46400, Note_on_c, 1, 56, 127
2, 46400, Note_off_c, 1, 57, 0
2, 46400, Note_on_c, 1, 59, 127
2, 46400, Note_on_c, 1, 70, 127
2, 46400, Note_off_c, 1, 78, 0
2, 46400, Note_off_c, 1, 81, 0
2, 46400, Note_off_c, 1, 85, 0
2, 46440, Note_on_c, 1, 32, 127
2, 46440, Note_on_c, 1, 44, 127
2, 46440, Note_off_c, 1, 53, 0
2, 46440, Note_off_c, 1, 56, 0
2, 46440, Note_off_c, 1, 59, 0
2, 46440, Note_off_c, 1, 61, 0
2, 46440, Note_off_c, 1, 70, 0
2, 46440, Note_on_c, 1, 91, 127
2, 46480, Note_off_c, 1, 32, 0
2, 46480, Note_off_c, 1, 44, 0
2, 46480, Note_on_c, 1, 47, 127
2, 46480, Note_on_c, 1, 49, 127
2, 46480, Note_on_c, 1, 53, 127
2, 46480, Note_on_c, 1, 56, 127
2, 46480, Note_on_c, 1, 80, 127
2, 46480, Note_off_c, 1, 91, 0
2, 46520, Note_on_c, 1, 45, 127
2, 46520, Note_off_c, 1, 47, 0
2, 46520, Note_off_c, 1, 49, 0
2, 46520, Note_off_c, 1, 53, 0
2, 46520, Note_off_c, 1, 56, 0
2, 46520, Note_off_c, 1, 80, 0
2, 46520, Note_on_c, 1, 90, 127
2, 46520, Note_on_c, 1, 95, 127
2, 46520, Note_on_c, 1, 99, 127
2, 46560, Note_off_c, 1, 45, 0
2, 46560, Note_on_c, 1, 50, 127
2, 46560, Note_on_c, 1, 54, 127
2, 46560, Note_on_c, 1, 62, 127
2, 46560, Note_on_c, 1, 65, 127
2, 46560, Note_on_c, 1, 71, 127
2, 46560, Note_on_c, 1, 77, 127
2, 46560, Note_off_c, 1, 90, 0
2, 46560, Note_off_c, 1, 95, 0
2, 46560, Note_off_c, 1, 99, 0
2, 46600, Note_on_c, 1, 44, 127
2, 46600, Note_on_c, 1, 45, 127
2, 46600, Note_off_c, 1, 50, 0
2, 46600, Note_off_c, 1, 54, 0
2, 46600, Note_off_c, 1, 62, 0
2, 46600, Note_off_c, 1, 65, 0
2, 46600, Note_off_c, 1, 71, 0
2, 46600, Note_off_c, 1, 77, 0
2, 46600, Note_on_c, 1, 102, 127
2, 46600, Note_on_c, 1, 105, 127
2, 46640, Note_off_c, 1, 44, 0
2, 46640, Note_off_c, 1, 45, 0
2, 46640, Note_on_c, 1, 57, 127
2, 46640, Note_on_c, 1, 62, 127
2, 46640, Note_on_c, 1, 66, 127
2, 46640, Note_on_c, 1, 74, 127
2, 46640, Note_on_c, 1, 84, 127
2, 46640, Note_off_c, 1, 102, 0
2, 46640, Note_off_c, 1, 105, 0
2, 46680, Note_off_c, 1, 57, 0
2, 46680, Note_off_c, 1, 62, 0
2, 46680, Note_off_c, 1, 66, 0
2, 46680, Note_off_c, 1, 74, 0
2, 46680, Note_off_c, 1, 84, 0
2, 46720, Note_on_c, 1, 74, 127
2, 46720, Note_on_c, 1, 82, 127
2, 46720, Note_on_c, 1, 92, 127
2, 46720, Note_on_c, 1, 94, 127
2, 46800, Note_on_c, 1, 65, 127
2, 46800, Note_off_c, 1, 74, 0
2, 46840, Note_off_c, 1, 65, 0
2, 46840, Note_on_c, 1, 74, 127
2, 46880, Note_on_c, 1, 65, 127
2, 46880, Note_on_c, 1, 69, 127
2, 46880, Note_on_c, 1, 73, 127
2, 46880, Note_off_c, 1, 74, 0
2, 46880, Note_off_c, 1, 82, 0
2, 46880, Note_off_c, 1, 92, 0
2, 46880, Note_off_c, 1, 94, 0
2, 46920, Note_on_c, 1, 42, 127
2, 46920, Note_off_c, 1, 65, 0
2, 46920, Note_on_c, 1, 66, 127
2, 46920, Note_on_c, 1, 67, 127
2, 46920, Note_off_c, 1, 69, 0
2, 46920, Note_off_c, 1, 73, 0
2, 47040, Note_on_c, 1, 48, 127
2, 47040, Note_on_c, 1, 51, 127
2, 47040, Note_on_c, 1, 56, 127
2, 47040, Note_off_c, 1, 66, 0
2, 47040, Note_off_c, 1, 67, 0
2, 47080, Note_off_c, 1, 42, 0
2, 47080, Note_off_c, 1, 48, 0
2, 47080, Note_off_c, 1, 51, 0
2, 47080, Note_on_c, 1, 54, 127
2, 47080, Note_off_c, 1, 56, 0
2, 47080, Note_on_c, 1, 61, 127
2, 47080, Note_on_c, 1, 66, 127
2, 47080, Note_on_c, 1, 77, 127
2, 47400, Note_off_c, 1, 54, 0
2, 47400, Note_off_c, 1, 61, 0
2, 47400, Note_off_c, 1, 66, 0
2, 47400, Note_off_c, 1, 77, 0
2, 47440, Note_on_c, 1, 57, 127
2, 47440, Note_on_c, 1, 81, 127
2, 47440, Note_on_c, 1, 86, 127
2, 47440, Note_on_c, 1, 90, 127
2, 47440, Note_on_c, 1, 93, 127
2, 47480, Note_off_c, 1, 57, 0
2, 47480, Note_on_c, 1, 60, 127
2, 47480, Note_on_c, 1, 67, 127
2, 47480, Note_on_c, 1, 69, 127
2, 47480, Note_on_c, 1, 78, 127
2, 47480, Note_off_c, 1, 81, 0
2, 47480, Note_off_c, 1, 86, 0
2, 47480, Note_off_c, 1, 90, 0
2, 47480, Note_off_c, 1, 93, 0
2, 47520, Note_on_c, 1, 48, 127
2, 47520, Note_off_c, 1, 67, 0
2, 47520, Note_off_c, 1, 69, 0
2, 47520, Note_on_c, 1, 81, 127
2, 47520, Note_on_c, 1, 87, 127
2, 47520, Note_on_c, 1, 90, 127
2, 47560, Note_on_c, 1, 45, 127
2, 47560, Note_off_c, 1, 48, 0
2, 47560, Note_on_c, 1, 52, 127
2, 47560, Note_on_c, 1, 55, 127
2, 47560, Note_off_c, 1, 60, 0
2, 47560, Note_off_c, 1, 78, 0
2, 47560, Note_off_c, 1, 81, 0
2, 47560, Note_on_c, 1, 85, 127
2, 47560, Note_off_c, 1, 87, 0
2, 47560, Note_off_c, 1, 90, 0
2, 47600, Note_off_c, 1, 45, 0
2, 47600, Note_off_c, 1, 52, 0
2, 47600, Note_off_c, 1, 55, 0
2, 47600, Note_on_c, 1, 59, 127
2, 47600, Note_on_c, 1, 68, 127
2, 47600, Note_on_c, 1, 74, 127
2, 47600, Note_on_c, 1, 76, 127
2, 47600, Note_on_c, 1, 80, 127
2, 47600, Note_off_c, 1, 85, 0
2, 47640, Note_on_c, 1, 48, 127
2, 47640, Note_on_c, 1, 58, 127
2, 47640, Note_off_c, 1, 59, 0
2, 47640, Note_on_c, 1, 64, 127
2, 47640, Note_on_c, 1, 65, 127
2, 47640, Note_off_c, 1, 68, 0
2, 47640, Note_on_c, 1, 72, 127
2, 47640, Note_off_c, 1, 74, 0
2, 47640, Note_off_c, 1, 76, 0
2, 47640, Note_off_c, 1, 80, 0
2, 47680, Note_on_c, 1, 47, 127
2, 47680, Note_off_c, 1, 48, 0
2, 47680, Note_on_c, 1, 57, 127
2, 47680, Note_off_c, 1, 58, 0
2, 47680, Note_on_c, 1, 62, 127
2, 47680, Note_off_c, 1, 64, 0
2, 47680, Note_off_c, 1, 65, 0
2, 47680, Note_on_c, 1, 68, 127
2, 47680, Note_on_c, 1, 71, 127
2, 47680, Note_off_c, 1, 72, 0
2, 47720, Note_off_c, 1, 47, 0
2, 47720, Note_off_c, 1, 68, 0
2, 47720, Note_off_c, 1, 71, 0
2, 47720, Note_on_c, 1, 83, 127
2, 47720, Note_on_c, 1, 85, 127
2, 47760, Note_on_c, 1, 61, 127
2, 47760, Note_off_c, 1, 62, 0
2, 47760, Note_on_c, 1, 64, 127
2, 47760, Note_on_c, 1, 72, 127
2, 47760, Note_off_c, 1, 83, 0
2, 47760, Note_off_c, 1, 85, 0
2, 47800, Note_on_c, 1, 55, 127
2, 47800, Note_off_c, 1, 57, 0
2, 47800, Note_off_c, 1, 64, 0
2, 47800, Note_on_c, 1, 70, 127
2, 47800, Note_off_c, 1, 72, 0
2, 47800, Note_on_c, 1, 79, 127
2, 47800, Note_on_c, 1, 82, 127
2, 47840, Note_off_c, 1, 55, 0
2, 47840, Note_off_c, 1, 61, 0
2, 47840, Note_on_c, 1, 65, 127
2, 47840, Note_on_c, 1, 68, 127
2, 47840, Note_off_c, 1, 70, 0
2, 47840, Note_on_c, 1, 72, 127
2, 47840, Note_off_c, 1, 79, 0
2, 47840, Note_off_c, 1, 82, 0
2, 47840, Note_on_c, 1, 83, 127
2, 47880, Note_on_c, 1, 52, 127
2, 47880, Note_off_c, 1, 65, 0
2, 47880, Note_on_c, 1, 66, 127
2, 47880, Note_off_c, 1, 68, 0
2, 47880, Note_off_c, 1, 72, 0
2, 47880, Note_on_c, 1, 73, 127
2, 47880, Note_on_c, 1, 82, 127
2, 47880, Note_off_c, 1, 83, 0
2, 47880, Note_on_c, 1, 85, 127
2, 47920, Note_off_c, 1, 52, 0
2, 47920, Note_off_c, 1, 66, 0
2, 47920, Note_off_c, 1, 73, 0
2, 47920, Note_off_c, 1, 82, 0
2, 47920, Note_off_c, 1, 85, 0
2, 47960, Note_on_c, 1, 46, 127
2, 47960, Note_on_c, 1, 50, 127
2, 47960, Note_on_c, 1, 62, 127
2, 47960, Note_on_c, 1, 68, 127
2, 47960, Note_on_c, 1, 70, 127
2, 47960, Note_on_c, 1, 77, 127
2, 48000, Note_off_c, 1, 46, 0
2, 48000, Note_off_c, 1, 50, 0
2, 48000, Note_off_c, 1, 62, 0
2, 48000, Note_off_c, 1, 68, 0
2, 48000, Note_on_c, 1, 69, 127
2, 48000, Note_off_c, 1, 70, 0
2, 48000, Note_on_c, 1, 73, 127
2, 48000, Note_on_c, 1, 76, 127
2, 48000, Note_off_c, 1, 77, 0
2, 48000, Note_on_c, 1, 88, 127
2, 48040, Note_on_c, 1, 67, 127
2, 48040, Note_off_c, 1, 69, 0
2, 48040, Note_off_c, 1, 76, 0
2, 48040, Note_on_c, 1, 82, 127
2, 48040, Note_off_c, 1, 88, 0
2, 48040, Note_on_c, 1, 94, 127
2, 48360, Note_off_c, 1, 67, 0
2, 48360, Note_off_c, 1, 73, 0
2, 48360, Note_off_c, 1, 82, 0
2, 48360, Note_off_c, 1, 94, 0
2, 48400, Note_on_c, 1, 33, 127
2, 48400, Note_on_c, 1, 45, 127
2, 48400, Note_on_c, 1, 66, 127
2, 48400, Note_on_c, 1, 72, 127
2, 48400, Note_on_c, 1, 76, 127
2, 49080, Note_off_c, 1, 33, 0
2, 49080, Note_off_c, 1, 45, 0
2, 49080, Note_off_c, 1, 66, 0
2, 49080, Note_off_c, 1, 72, 0
2, 49080, Note_off_c, 1, 76, 0
2, 49120, Note_on_c, 1, 42, 127
2, 49120, Note_on_c, 1, 50, 127
2, 49120, Note_on_c, 1, 78, 127
2, 49200, Note_on_c, 1, 39, 127
2, 49200, Note_off_c, 1, 42, 0
2, 49200, Note_on_c, 1, 49, 127
2, 49200, Note_off_c, 1, 50, 0
2, 49200, Note_on_c, 1, 51, 127
2, 49200, Note_on_c, 1, 70, 127
2, 49200, Note_on_c, 1, 73, 127
2, 49200, Note_on_c, 1, 75, 127
2, 49200, Note_off_c, 1, 78, 0
2, 49240, Note_off_c, 1, 39, 0
2, 49240, Note_on_c, 1, 41, 127
2, 49240, Note_on_c, 1, 46, 127
2, 49240, Note_off_c, 1, 49, 0
2, 49240, Note_off_c, 1, 51, 0
2, 49240, Note_on_c, 1, 53, 127
2, 49240, Note_off_c, 1, 70, 0
2, 49240, Note_off_c, 1, 73, 0
2, 49240, Note_off_c, 1, 75, 0
2, 49240, Note_on_c, 1, 87, 127
2, 49280, Note_off_c, 1, 41, 0
2, 49280, Note_off_c, 1, 46, 0
2, 49280, Note_on_c, 1, 52, 127
2, 49280, Note_off_c, 1, 53, 0
2, 49280, Note_on_c, 1, 56, 127
2, 49280, Note_on_c, 1, 59, 127
2, 49280, Note_on_c, 1, 61, 127
2, 49280, Note_on_c, 1, 80, 127
2, 49280, Note_off_c, 1, 87, 0
2, 49320, Note_off_c, 1, 52, 0
2, 49320, Note_off_c, 1, 56, 0
2, 49320, Note_off_c, 1, 59, 0
2, 49320, Note_off_c, 1, 61, 0
2, 49320, Note_on_c, 1, 77, 127
2, 49320, Note_off_c, 1, 80, 0
2, 49320, Note_on_c, 1, 85, 127
2, 49320, Note_on_c, 1, 89, 127
2, 49320, Note_on_c, 1, 97, 127
2, 49360, Note_off_c, 1, 77, 0
2, 49360, Note_off_c, 1, 85, 0
2, 49360, Note_on_c, 1, 87, 127
2, 49360, Note_off_c, 1, 89, 0
2, 49360, Note_on_c, 1, 91, 127
2, 49360, Note_on_c, 1, 93, 127
2, 49360, Note_off_c, 1, 97, 0
2, 49400, Note_on_c, 1, 31, 127
2, 49400, Note_on_c, 1, 43, 127
2, 49400, Note_on_c, 1, 64, 127
2, 49400, Note_on_c, 1, 71, 127
2, 49400, Note_on_c, 1, 76, 127
2, 49400, Note_off_c, 1, 87, 0
2, 49400, Note_off_c, 1, 91, 0
2, 49400, Note_off_c, 1, 93, 0
2, 49440, Note_off_c, 1, 31, 0
2, 49440, Note_off_c, 1, 43, 0
2, 49440, Note_on_c, 1, 50, 127
2, 49440, Note_on_c, 1, 54, 127
2, 49440, Note_on_c, 1, 59, 127
2, 49440, Note_on_c, 1, 62, 127
2, 49440, Note_off_c, 1, 64, 0
2, 49440, Note_off_c, 1, 71, 0
2, 49440, Note_off_c, 1, 76, 0
2, 49480, Note_on_c, 1, 33, 127
2, 49480, Note_on_c, 1, 40, 127
2, 49480, Note_on_c, 1, 43, 127
2, 49480, Note_on_c, 1, 45, 127
2, 49480, Note_on_c, 1, 49, 127
2, 49480, Note_off_c, 1, 50, 0
2, 49480, Note_off_c, 1, 54, 0
2, 49480, Note_on_c, 1, 57, 127
2, 49480, Note_off_c, 1, 59, 0
2, 49480, Note_on_c, 1, 61, 127
2, 49480, Note_off_c, 1, 62, 0
2, 49680, Note_off_c, 1, 33, 0
2, 49680, Note_on_c, 1, 35, 127
2, 49680, Note_on_c, 1, 38, 127
2, 49680, Note_off_c, 1, 40, 0
2, 49680, Note_off_c, 1, 43, 0
2, 49680, Note_off_c, 1, 45, 0
2, 49680, Note_on_c, 1, 47, 127
2, 49680, Note_off_c, 1, 49, 0
2, 49680, Note_off_c, 1, 57, 0
2, 49680, Note_off_c, 1, 61, 0
2, 49680, Note_on_c, 1, 71, 127
2, 49680, Note_on_c, 1, 83, 127
2, 49720, Note_off_c, 1, 35, 0
2, 49720, Note_off_c, 1, 38, 0
2, 49720, Note_on_c, 1, 42, 127
2, 49720, Note_off_c, 1, 47, 0
2, 49720, Note_off_c, 1, 71, 0
2, 49760, Note_off_c, 1, 42, 0
2, 49760, Note_on_c, 1, 44, 127
2, 49760, Note_on_c, 1, 48, 127
2, 49760, Note_on_c, 1, 52, 127
2, 49760, Note_off_c, 1, 83, 0
2, 49760, Note_on_c, 1, 84, 127
2, 50040, Note_off_c, 1, 44, 0
2, 50040, Note_off_c, 1, 48, 0
2, 50040, Note_off_c, 1, 52, 0
2, 50080, Note_off_c, 1, 84, 0
2, 50120, Note_on_c, 1, 31, 127
2, 50120, Note_on_c, 1, 43, 127
2, 50120, Note_on_c, 1, 67, 127
2, 50120, Note_on_c, 1, 71, 127
2, 50120, Note_on_c, 1, 74, 127
2, 50120, Note_on_c, 1, 77, 127
2, 50120, Note_on_c, 1, 79, 127
2, 50800, Note_off_c, 1, 31, 0
2, 50800, Note_off_c, 1, 43, 0
2, 50800, Note_on_c, 1, 58, 127
2, 50800, Note_on_c, 1, 62, 127
2, 50800, Note_off_c, 1, 67, 0
2, 50800, Note_off_c, 1, 71, 0
2, 50800, Note_off_c, 1, 74, 0
2, 50800, Note_off_c, 1, 79, 0
2, 50800, Note_on_c, 1, 89, 127
2, 50840, Note_on_c, 1, 46, 127
2, 50840, Note_on_c, 1, 54, 127
2, 50840, Note_off_c, 1, 58, 0
2, 50840, Note_off_c, 1, 62, 0
2, 50840, Note_on_c, 1, 73, 127
2, 50840, Note_off_c, 1, 77, 0
2, 50840, Note_on_c, 1, 83, 127
2, 50840, Note_off_c, 1, 89, 0
2, 50880, Note_on_c, 1, 44, 127
2, 50880, Note_off_c, 1, 46, 0
2, 50880, Note_off_c, 1, 54, 0
2, 50880, Note_on_c, 1, 56, 127
2, 50880, Note_on_c, 1, 69, 127
2, 50880, Note_on_c, 1, 76, 127
2, 50880, Note_off_c, 1, 83, 0
2, 50920, Note_on_c, 1, 51, 127
2, 50920, Note_off_c, 1, 56, 0
2, 50920, Note_on_c, 1, 58, 127
2, 50920, Note_on_c, 1, 63, 127
2, 50920, Note_off_c, 1, 69, 0
2, 50920, Note_off_c, 1, 76, 0
2, 50960, Note_off_c, 1, 44, 0
2, 50960, Note_off_c, 1, 51, 0
2, 50960, Note_on_c, 1, 56, 127
2, 50960, Note_off_c, 1, 58, 0
2, 50960, Note_on_c, 1, 67, 127
2, 50960, Note_on_c, 1, 75, 127
2, 51000, Note_on_c, 1, 26, 127
2, 51000, Note_on_c, 1, 53, 127
2, 51000, Note_off_c, 1, 56, 0
2, 51000, Note_on_c, 1, 58, 127
2, 51000, Note_off_c, 1, 63, 0
2, 51000, Note_off_c, 1, 67, 0
2, 51000, Note_off_c, 1, 73, 0
2, 51000, Note_off_c, 1, 75, 0
2, 51040, Note_off_c, 1, 26, 0
2, 51040, Note_on_c, 1, 50, 127
2, 51040, Note_off_c, 1, 53, 0
2, 51040, Note_off_c, 1, 58, 0
2, 51040, Note_on_c, 1, 79, 127
2, 51040, Note_on_c, 1, 85, 127
2, 51080, Note_off_c, 1, 50, 0
2, 51080, Note_on_c, 1, 53, 127
2, 51080, Note_on_c, 1, 57, 127
2, 51080, Note_on_c, 1, 65, 127
2, 51080, Note_on_c, 1, 73, 127
2, 51080, Note_off_c, 1, 85, 0
2, 51120, Note_on_c, 1, 45, 127
2, 51120, Note_on_c, 1, 49, 127
2, 51120, Note_off_c, 1, 53, 0
2, 51120, Note_off_c, 1, 57, 0
2, 51120, Note_off_c, 1, 65, 0
2, 51120, Note_off_c, 1, 73, 0
2, 51120, Note_on_c, 1, 78, 127
2, 51120, Note_off_c, 1, 79, 0
2, 51160, Note_on_c, 1, 44, 127
2, 51160, Note_off_c, 1, 45, 0
2, 51160, Note_off_c, 1, 49, 0
2, 51160, Note_on_c, 1, 52, 127
2, 51160, Note_on_c, 1, 59, 127
2, 51160, Note_on_c, 1, 64, 127
2, 51160, Note_on_c, 1, 68, 127
2, 51160, Note_on_c, 1, 76, 127
2, 51160, Note_off_c, 1, 78, 0
2, 51200, Note_off_c, 1, 44, 0
2, 51200, Note_on_c, 1, 49, 127
2, 51200, Note_off_c, 1, 52, 0
2, 51200, Note_off_c, 1, 64, 0
2, 51200, Note_on_c, 1, 65, 127
2, 51200, Note_off_c, 1, 68, 0
2, 51200, Note_off_c, 1, 76, 0
2, 51200, Note_on_c, 1, 95, 127
2, 51240, Note_off_c, 1, 49, 0
2, 51240, Note_on_c, 1, 51, 127
2, 51240, Note_on_c, 1, 56, 127
2, 51240, Note_off_c, 1, 59, 0
2, 51240, Note_on_c, 1, 60, 127
2, 51240, Note_on_c, 1, 63, 127
2, 51240, Note_off_c, 1, 65, 0
2, 51240, Note_on_c, 1, 68, 127
2, 51240, Note_on_c, 1, 72, 127
2, 51240, Note_on_c, 1, 77, 127
2, 51240, Note_off_c, 1, 95, 0
2, 51880, Note_off_c, 1, 51, 0
2, 51880, Note_off_c, 1, 56, 0
2, 51880, Note_off_c, 1, 60, 0
2, 51880, Note_off_c, 1, 63, 0
2, 51880, Note_off_c, 1, 68, 0
2, 51880, Note_off_c, 1, 72, 0
2, 51880, Note_off_c, 1, 77, 0
2, 51920, Note_on_c, 1, 53, 127
2, 51920, Note_on_c, 1, 58, 127
2, 51920, Note_on_c, 1, 80, 127
2, 51920, Note_on_c, 1, 87, 127
2, 51960, Note_on_c, 1, 52, 127
2, 51960, Note_off_c, 1, 53, 0
2, 51960, Note_on_c, 1, 55, 127
2, 51960, Note_off_c, 1, 58, 0
2, 51960, Note_on_c, 1, 60, 127
2, 51960, Note_on_c, 1, 64, 127
2, 51960, Note_on_c, 1, 67, 127
2, 51960, Note_on_c, 1, 72, 127
2, 51960, Note_on_c, 1, 79, 127
2, 51960, Note_off_c, 1, 80, 0
2, 51960, Note_off_c, 1, 87, 0
2, 52000, Note_off_c, 1, 52, 0
2, 52000, Note_off_c, 1, 55, 0
2, 52000, Note_off_c, 1, 60, 0
2, 52000, Note_off_c, 1, 64, 0
2, 52000, Note_on_c, 1, 66, 127
2, 52000, Note_off_c, 1, 67, 0
2, 52000, Note_off_c, 1, 72, 0
2, 52000, Note_on_c, 1, 74, 127
2, 52000, Note_on_c, 1, 78, 127
2, 52000, Note_off_c, 1, 79, 0
2, 52000, Note_on_c, 1, 83, 127
2, 52000, Note_on_c, 1, 90, 127
2, 52040, Note_off_c, 1, 66, 0
2, 52040, Note_off_c, 1, 74, 0
2, 52040, Note_off_c, 1, 78, 0
2, 52040, Note_off_c, 1, 83, 0
2, 52040, Note_off_c, 1, 90, 0
2, 52080, Note_on_c, 1, 33, 127
2, 52080, Note_on_c, 1, 45, 127
2, 52080, Note_on_c, 1, 69, 127
2, 52080, Note_on_c, 1, 73, 127
2, 52080, Note_on_c, 1, 81, 127
2, 52120, Note_off_c, 1, 33, 0
2, 52120, Note_off_c, 1, 45, 0
2, 52120, Note_off_c, 1, 69, 0
2, 52120, Note_on_c, 1, 72, 127
2, 52120, Note_off_c, 1, 73, 0
2, 52120, Note_on_c, 1, 77, 127
2, 52160, Note_off_c, 1, 72, 0
2, 52160, Note_off_c, 1, 77, 0
2, 52160, Note_off_c, 1, 81, 0
2, 52160, Note_on_c, 1, 91, 127
2, 52160, Note_on_c, 1, 94, 127
2, 52160, Note_on_c, 1, 99, 127
2, 52200, Note_on_c, 1, 42, 127
2, 52200, Note_on_c, 1, 76, 127
2, 52200, Note_on_c, 1, 81, 127
2, 52200, Note_on_c, 1, 84, 127
2, 52200, Note_on_c, 1, 88, 127
2, 52200, Note_off_c, 1, 91, 0
2, 52200, Note_off_c, 1, 94, 0
2, 52200, Note_off_c, 1, 99, 0
2, 52240, Note_off_c, 1, 42, 0
2, 52240, Note_on_c, 1, 47, 127
2, 52240, Note_on_c, 1, 54, 127
2, 52240, Note_on_c, 1, 59, 127
2, 52240, Note_off_c, 1, 76, 0
2, 52240, Note_on_c, 1, 78, 127
2, 52240, Note_off_c, 1, 81, 0
2, 52240, Note_off_c, 1, 84, 0
2, 52240, Note_off_c, 1, 88, 0
2, 52280, Note_off_c, 1, 47, 0
2, 52280, Note_on_c, 1, 48, 127
2, 52280, Note_on_c, 1, 51, 127
2, 52280, Note_off_c, 1, 54, 0
2, 52280, Note_off_c, 1, 59, 0
2, 52280, Note_off_c, 1, 78, 0
2, 52280, Note_on_c, 1, 89, 127
2, 52320, Note_off_c, 1, 48, 0
2, 52320, Note_off_c, 1, 51, 0
2, 52320, Note_on_c, 1, 76, 127
2, 52320, Note_on_c, 1, 81, 127
2, 52320, Note_on_c, 1, 84, 127
2, 52320, Note_on_c, 1, 88, 127
2, 52320, Note_off_c, 1, 89, 0
2, 52360, Note_on_c, 1, 57, 127
2, 52360, Note_on_c, 1, 60, 127
2, 52360, Note_on_c, 1, 66, 127
2, 52360, Note_off_c, 1, 81, 0
2, 52360, Note_off_c, 1, 84, 0
2, 52400, Note_on_c, 1, 48, 127
2, 52400, Note_off_c, 1, 57, 0
2, 52400, Note_off_c, 1, 60, 0
2, 52400, Note_off_c, 1, 66, 0
2, 52400, Note_on_c, 1, 68, 127
2, 52400, Note_off_c, 1, 76, 0
2, 52400, Note_off_c, 1, 88, 0
2, 52400, Note_on_c, 1, 89, 127
2, 52400, Note_on_c, 1, 96, 127
2, 52400, Note_on_c, 1, 97, 127
2, 52440, Note_off_c, 1, 48, 0
2, 52440, Note_on_c, 1, 53, 127
2, 52440, Note_on_c, 1, 59, 127
2, 52440, Note_on_c, 1, 63, 127
2, 52440, Note_off_c, 1, 68, 0
2, 52440, Note_off_c, 1, 89, 0
2, 52440, Note_off_c, 1, 96, 0
2, 52440, Note_off_c, 1, 97, 0
2, 52440, Note_on_c, 1, 99, 127
2, 52440, Note_on_c, 1, 101, 127
2, 52480, Note_on_c, 1, 45, 127
2, 52480, Note_on_c, 1, 50, 127
2, 52480, Note_on_c, 1, 58, 127
2, 52480, Note_off_c, 1, 59, 0
2, 52480, Note_off_c, 1, 63, 0
2, 52480, Note_off_c, 1, 99, 0
2, 52480, Note_off_c, 1, 101, 0
2, 52520, Note_off_c, 1, 45, 0
2, 52520, Note_off_c, 1, 50, 0
2, 52520, Note_off_c, 1, 53, 0
2, 52520, Note_off_c, 1, 58, 0
2, 52560, Note_on_c, 1, 47, 127
2, 52560, Note_on_c, 1, 51, 127
2, 52560, Note_on_c, 1, 56, 127
2, 52560, Note_on_c, 1, 73, 127
2, 52600, Note_off_c, 1, 47, 0
2, 52600, Note_off_c, 1, 56, 0
2, 52600, Note_on_c, 1, 58, 127
2, 52600, Note_on_c, 1, 61, 127
2, 52600, Note_on_c, 1, 63, 127
2, 52600, Note_off_c, 1, 73, 0
2, 52600, Note_on_c, 1, 75, 127
2, 52600, Note_on_c, 1, 79, 127
2, 52640, Note_on_c, 1, 48, 127
2, 52640, Note_on_c, 1, 50, 127
2, 52640, Note_off_c, 1, 51, 0
2, 52640, Note_on_c, 1, 53, 127
2, 52640, Note_on_c, 1, 55, 127
2, 52640, Note_off_c, 1, 58, 0
2, 52640, Note_off_c, 1, 61, 0
2, 52640, Note_off_c, 1, 63, 0
2, 52640, Note_off_c, 1, 75, 0
2, 52640, Note_on_c, 1, 77, 127
2, 52640, Note_off_c, 1, 79, 0
2, 52680, Note_off_c, 1, 48, 0
2, 52680, Note_off_c, 1, 50, 0
2, 52680, Note_off_c, 1, 53, 0
2, 52680, Note_off_c, 1, 55, 0
2, 52680, Note_off_c, 1, 77, 0
2, 52720, Note_on_c, 1, 68, 127
2, 52720, Note_on_c, 1, 76, 127
2, 53040, Note_off_c, 1, 68, 0
2, 53040, Note_off_c, 1, 76, 0
2, 53080, Note_on_c, 1, 30, 127
2, 53080, Note_on_c, 1, 56, 127
2, 53120, Note_off_c, 1, 30, 0
2, 53120, Note_on_c, 1, 50, 127
2, 53120, Note_on_c, 1, 55, 127
2, 53120, Note_off_c, 1, 56, 0
2, 53120, Note_on_c, 1, 58, 127
2, 53120, Note_on_c, 1, 62, 127
2, 53120, Note_on_c, 1, 82, 127
2, 53160, Note_on_c, 1, 39, 127
2, 53160, Note_on_c, 1, 40, 127
2, 53160, Note_off_c, 1, 50, 0
2, 53160, Note_on_c, 1, 52, 127
2, 53160, Note_off_c, 1, 62, 0
2, 53160, Note_off_c, 1, 82, 0
2, 53200, Note_off_c, 1, 39, 0
2, 53200, Note_off_c, 1, 40, 0
2, 53200, Note_on_c, 1, 50, 127
2, 53200, Note_off_c, 1, 52, 0
2, 53200, Note_on_c, 1, 62, 127
2, 53200, Note_on_c, 1, 82, 127
2, 53600, Note_off_c, 1, 50, 0
2, 53600, Note_off_c, 1, 55, 0
2, 53600, Note_off_c, 1, 58, 0
2, 53600, Note_off_c, 1, 62, 0
2, 53600, Note_off_c, 1, 82, 0
2, 53640, Note_on_c, 1, 81, 127
2, 53640, Note_on_c, 1, 84, 127
2, 53640, Note_on_c, 1, 87, 127
2, 53640, Note_on_c, 1, 93, 127
2, 54080, Note_on_c, 1, 39, 127
2, 54080, Note_on_c, 1, 51, 127
2, 54080, Note_on_c, 1, 60, 127
2, 54080, Note_on_c, 1, 67, 127
2, 54080, Note_off_c, 1, 81, 0
2, 54080, Note_off_c, 1, 84, 0
2, 54080, Note_off_c, 1, 87, 0
2, 54080, Note_off_c, 1, 93, 0
2, 54120, Note_off_c, 1, 39, 0
2, 54120, Note_off_c, 1, 51, 0
2, 54120, Note_off_c, 1, 60, 0
2, 54120, Note_off_c, 1, 67, 0
2, 54160, Note_on_c, 1, 39, 127
2, 54160, Note_on_c, 1, 51, 127
2, 54160, Note_on_c, 1, 60, 127
2, 54160, Note_on_c, 1, 67, 127
2, 54400, Note_off_c, 1, 39, 0
2, 54400, Note_off_c, 1, 51, 0
2, 54400, Note_off_c, 1, 60, 0
2, 54400, Note_off_c, 1, 67, 0
2, 54440, Note_on_c, 1, 48, 127
2, 54440, Note_on_c, 1, 55, 127
2, 54440, Note_on_c, 1, 64, 127
2, 54440, Note_on_c, 1, 67, 127
2, 55120, Note_off_c, 1, 48, 0
2, 55120, Note_off_c, 1, 55, 0
2, 55120, Note_off_c, 1, 64, 0
2, 55120, Note_off_c, 1, 67, 0
2, 55160, Note_on_c, 1, 47, 127
2, 55160, Note_on_c, 1, 54, 127
2, 55160, Note_on_c, 1, 62, 127
2, 55160, Note_on_c, 1, 66, 127
2, 55480, Note_off_c, 1, 47, 0
2, 55480, Note_off_c, 1, 54, 0
2, 55480, Note_off_c, 1, 62, 0
2, 55480, Note_off_c, 1, 66, 0
2, 55520, Note_on_c, 1, 50, 127
2, 55520, Note_on_c, 1, 56, 127
2, 55520, Note_on_c, 1, 66, 127
2, 55520, Note_on_c, 1, 72, 127
2, 56560, Note_off_c, 1, 50, 0
2, 56560, Note_off_c, 1, 56, 0
2, 56560, Note_off_c, 1, 66, 0
2, 56560, Note_off_c, 1, 72, 0
2, 56640, Note_on_c, 1, 55, 127
2, 56640, Note_on_c, 1, 58, 127
2, 56640, Note_on_c, 1, 65, 127
2, 56640, Note_on_c, 1, 74, 127
2, 56960, Note_off_c, 1, 74, 0
2, 57000, Note_on_c, 1, 46, 127
2, 57000, Note_on_c, 1, 50, 127
2, 57000, Note_on_c, 1, 54, 127
2, 57000, Note_off_c, 1, 55, 0
2, 57000, Note_off_c, 1, 58, 0
2, 57000, Note_on_c, 1, 60, 127
2, 57000, Note_off_c, 1, 65, 0
2, 57000, Note_on_c, 1, 69, 127
2, 57040, Note_on_c, 1, 32, 127
2, 57040, Note_on_c, 1, 44, 127
2, 57040, Note_off_c, 1, 46, 0
2, 57040, Note_off_c, 1, 50, 0
2, 57040, Note_off_c, 1, 54, 0
2, 57040, Note_off_c, 1, 60, 0
2, 57040, Note_on_c, 1, 62, 127
2, 57040, Note_on_c, 1, 68, 127
2, 57040, Note_off_c, 1, 69, 0
2, 57080, Note_off_c, 1, 32, 0
2, 57080, Note_on_c, 1, 42, 127
2, 57080, Note_off_c, 1, 44, 0
2, 57080, Note_on_c, 1, 46, 127
2, 57080, Note_on_c, 1, 59, 127
2, 57080, Note_off_c, 1, 62, 0
2, 57080, Note_on_c, 1, 63, 127
2, 57080, Note_off_c, 1, 68, 0
2, 57080, Note_on_c, 1, 71, 127
2, 57120, Note_off_c, 1, 42, 0
2, 57120, Note_on_c, 1, 50, 127
2, 57120, Note_on_c, 1, 54, 127
2, 57120, Note_off_c, 1, 59, 0
2, 57120, Note_on_c, 1, 60, 127
2, 57120, Note_off_c, 1, 63, 0
2, 57120, Note_off_c, 1, 71, 0
2, 57160, Note_off_c, 1, 46, 0
2, 57160, Note_off_c, 1, 50, 0
2, 57160, Note_off_c, 1, 54, 0
2, 57160, Note_off_c, 1, 60, 0
2, 57160, Note_on_c, 1, 62, 127
2, 57160, Note_on_c, 1, 72, 127
2, 57160, Note_on_c, 1, 74, 127
2, 57160, Note_on_c, 1, 77, 127
2, 57160, Note_on_c, 1, 84, 127
2, 57200, Note_on_c, 1, 39, 127
2, 57200, Note_on_c, 1, 48, 127
2, 57200, Note_on_c, 1, 58, 127
2, 57200, Note_on_c, 1, 60, 127
2, 57200, Note_off_c, 1, 62, 0
2, 57200, Note_on_c, 1, 63, 127
2, 57200, Note_on_c, 1, 67, 127
2, 57200, Note_off_c, 1, 72, 0
2, 57200, Note_off_c, 1, 74, 0
2, 57200, Note_off_c, 1, 77, 0
2, 57200, Note_off_c, 1, 84, 0
2, 57240, Note_off_c, 1, 39, 0
2, 57240, Note_on_c, 1, 40, 127
2, 57240, Note_on_c, 1, 47, 127
2, 57240, Note_off_c, 1, 48, 0
2, 57240, Note_on_c, 1, 52, 127
2, 57240, Note_off_c, 1, 58, 0
2, 57240, Note_off_c, 1, 60, 0
2, 57240, Note_off_c, 1, 63, 0
2, 57240, Note_on_c, 1, 64, 127
2, 57240, Note_on_c, 1, 76, 127
2, 57240, Note_on_c, 1, 79, 127
2, 57240, Note_on_c, 1, 88, 127
2, 57280, Note_off_c, 1, 40, 0
2, 57280, Note_off_c, 1, 47, 0
2, 57280, Note_off_c, 1, 52, 0
2, 57280, Note_on_c, 1, 53, 127
2, 57280, Note_off_c, 1, 64, 0
2, 57280, Note_on_c, 1, 75, 127
2, 57280, Note_off_c, 1, 76, 0
2, 57280, Note_on_c, 1, 77, 127
2, 57280, Note_off_c, 1, 79, 0
2, 57280, Note_off_c, 1, 88, 0
2, 57320, Note_off_c, 1, 53, 0
2, 57320, Note_off_c, 1, 75, 0
2, 57320, Note_off_c, 1, 77, 0
2, 57360, Note_on_c, 1, 29, 127
2, 57360, Note_on_c, 1, 41, 127
2, 57360, Note_on_c, 1, 65, 127
2, 57360, Note_off_c, 1, 67, 0
2, 57360, Note_on_c, 1, 68, 127
2, 57360, Note_on_c, 1, 72, 127
2, 58040, Note_off_c, 1, 29, 0
2, 58040, Note_off_c, 1, 41, 0
2, 58040, Note_off_c, 1, 65, 0
2, 58040, Note_off_c, 1, 68, 0
2, 58040, Note_off_c, 1, 72, 0
2, 58080, Note_on_c, 1, 48, 127
2, 58080, Note_on_c, 1, 53, 127
2, 58080, Note_on_c, 1, 55, 127
2, 58080, Note_on_c, 1, 62, 127
2, 58080, Note_on_c, 1, 67, 127
2, 58800, Note_off_c, 1, 48, 0
2, 58800, Note_off_c, 1, 53, 0
2, 58800, Note_off_c, 1, 55, 0
2, 58800, Note_off_c, 1, 62, 0
2, 58800, Note_off_c, 1, 67, 0
2, 58880, Note_on_c, 1, 46, 127
2, 58880, Note_on_c, 1, 52, 127
2, 58880, Note_on_c, 1, 64, 127
2, 58880, Note_on_c, 1, 67, 127
2, 58880, Note_on_c, 1, 76, 127
2, 59240, Note_off_c, 1, 46, 0
2, 59240, Note_off_c, 1, 52, 0
2, 59240, Note_off_c, 1, 64, 0
2, 59240, Note_off_c, 1, 67, 0
2, 59240, Note_off_c, 1, 76, 0
2, 59280, Note_on_c, 1, 43, 127
2, 59280, Note_on_c, 1, 48, 127
2, 59280, Note_on_c, 1, 64, 127
2, 59280, Note_on_c, 1, 67, 127
2, 59280, Note_on_c, 1, 76, 127
2, 59520, Note_off_c, 1, 48, 0
2, 59560, Note_on_c, 1, 55, 127
2, 59800, Note_off_c, 1, 43, 0
2, 59800, Note_off_c, 1, 55, 0
2, 59800, Note_off_c, 1, 64, 0
2, 59800, Note_off_c, 1, 67, 0
2, 59800, Note_off_c, 1, 76, 0
2, 59840, Note_on_c, 1, 43, 127
2, 59840, Note_on_c, 1, 55, 127
2, 59840, Note_on_c, 1, 64, 127
2, 59840, Note_on_c, 1, 67, 127
2, 59840, Note_on_c, 1, 76, 127
2, 60000, Note_off_c, 1, 55, 0
2, 60040, Note_on_c, 1, 55, 127
2, 60160, Note_off_c, 1, 43, 0
2, 60160, Note_off_c, 1, 55, 0
2, 60160, Note_off_c, 1, 64, 0
2, 60160, Note_off_c, 1, 67, 0
2, 60160, Note_off_c, 1, 76, 0
2, 60200, Note_on_c, 1, 42, 127
2, 60200, Note_on_c, 1, 51, 127
2, 60200, Note_on_c, 1, 54, 127
2, 60200, Note_on_c, 1, 60, 127
2, 60200, Note_on_c, 1, 66, 127
2, 60200, Note_on_c, 1, 69, 127
2, 60200, Note_on_c, 1, 72, 127
2, 60240, Note_off_c, 1, 54, 0
2, 60280, Note_on_c, 1, 54, 127
2, 60720, Note_off_c, 1, 42, 0
2, 60720, Note_off_c, 1, 51, 0
2, 60720, Note_off_c, 1, 54, 0
2, 60720, Note_off_c, 1, 60, 0
2, 60720, Note_off_c, 1, 66, 0
2, 60720, Note_off_c, 1, 69, 0
2, 60720, Note_off_c, 1, 72, 0
2, 60760, Note_on_c, 1, 58, 127
2, 60760, Note_on_c, 1, 61, 127
2, 60760, Note_on_c, 1, 63, 127
2, 60760, Note_on_c, 1, 67, 127
2, 60760, Note_on_c, 1, 70, 127
2, 60760, Note_on_c, 1, 75, 127
2, 60760, Note_on_c, 1, 82, 127
2, 60800, Note_on_c, 1, 56, 127
2, 60800, Note_off_c, 1, 61, 0
2, 60800, Note_off_c, 1, 70, 0
2, 60800, Note_on_c, 1, 73, 127
2, 60800, Note_off_c, 1, 75, 0
2, 60800, Note_off_c, 1, 82, 0
2, 60840, Note_off_c, 1, 56, 0
2, 60840, Note_on_c, 1, 61, 127
2, 60840, Note_on_c, 1, 70, 127
2, 60840, Note_off_c, 1, 73, 0
2, 60840, Note_on_c, 1, 75, 127
2, 60840, Note_on_c, 1, 82, 127
2, 60880, Note_off_c, 1, 58, 0
2, 60880, Note_off_c, 1, 61, 0
2, 60880, Note_off_c, 1, 63, 0
2, 60880, Note_off_c, 1, 67, 0
2, 60880, Note_off_c, 1, 70, 0
2, 60880, Note_off_c, 1, 75, 0
2, 60880, Note_off_c, 1, 82, 0
2, 60960, Note_on_c, 1, 51, 127
2, 60960, Note_on_c, 1, 61, 127
2, 60960, Note_on_c, 1, 78, 127
2, 60960, Note_on_c, 1, 81, 127
2, 61000, Note_off_c, 1, 51, 0
2, 61000, Note_off_c, 1, 61, 0
2, 61000, Note_on_c, 1, 64, 127
2, 61000, Note_on_c, 1, 70, 127
2, 61000, Note_on_c, 1, 72, 127
2, 61000, Note_off_c, 1, 78, 0
2, 61000, Note_on_c, 1, 80, 127
2, 61000, Note_off_c, 1, 81, 0
2, 61040, Note_off_c, 1, 64, 0
2, 61040, Note_off_c, 1, 70, 0
2, 61040, Note_off_c, 1, 72, 0
2, 61040, Note_off_c, 1, 80, 0
2, 61080, Note_on_c, 1, 39, 127
2, 61080, Note_on_c, 1, 42, 127
2, 61080, Note_on_c, 1, 51, 127
2, 61080, Note_on_c, 1, 71, 127
2, 61080, Note_on_c, 1, 83, 127
2, 61120, Note_on_c, 1, 35, 127
2, 61120, Note_off_c, 1, 39, 0
2, 61120, Note_off_c, 1, 42, 0
2, 61120, Note_on_c, 1, 47, 127
2, 61120, Note_on_c, 1, 54, 127
2, 61120, Note_on_c, 1, 57, 127
2, 61120, Note_on_c, 1, 60, 127
2, 61120, Note_off_c, 1, 71, 0
2, 61120, Note_off_c, 1, 83, 0
2, 61160, Note_off_c, 1, 35, 0
2, 61160, Note_off_c, 1, 47, 0
2, 61160, Note_off_c, 1, 51, 0
2, 61160, Note_off_c, 1, 54, 0
2, 61160, Note_off_c, 1, 57, 0
2, 61160, Note_off_c, 1, 60, 0
2, 61160, Note_on_c, 1, 61, 127
2, 61160, Note_on_c, 1, 67, 127
2, 61160, Note_on_c, 1, 70, 127
2, 61160, Note_on_c, 1, 79, 127
2, 61160, Note_on_c, 1, 87, 127
2, 61160, Note_on_c, 1, 91, 127
2, 61200, Note_off_c, 1, 61, 0
2, 61200, Note_on_c, 1, 65, 127
2, 61200, Note_off_c, 1, 67, 0
2, 61200, Note_on_c, 1, 69, 127
2, 61200, Note_off_c, 1, 70, 0
2, 61200, Note_on_c, 1, 72, 127
2, 61200, Note_on_c, 1, 75, 127
2, 61200, Note_off_c, 1, 79, 0
2, 61200, Note_off_c, 1, 87, 0
2, 61200, Note_on_c, 1, 89, 127
2, 61200, Note_off_c, 1, 91, 0
2, 61240, Note_on_c, 1, 53, 127
2, 61240, Note_off_c, 1, 69, 0
2, 61240, Note_off_c, 1, 72, 0
2, 61240, Note_off_c, 1, 75, 0
2, 61240, Note_on_c, 1, 81, 127
2, 61240, Note_on_c, 1, 84, 127
2, 61240, Note_off_c, 1, 89, 0
2, 61280, Note_off_c, 1, 53, 0
2, 61280, Note_off_c, 1, 65, 0
2, 61280, Note_off_c, 1, 81, 0
2, 61280, Note_off_c, 1, 84, 0
2, 61320, Note_on_c, 1, 41, 127
2, 61320, Note_on_c, 1, 47, 127
2, 61320, Note_on_c, 1, 53, 127
2, 61320, Note_on_c, 1, 80, 127
2, 61320, Note_on_c, 1, 86, 127
2, 61320, Note_on_c, 1, 92, 127
2, 61360, Note_off_c, 1, 41, 0
2, 61360, Note_off_c, 1, 47, 0
2, 61360, Note_off_c, 1, 53, 0
2, 61360, Note_on_c, 1, 66, 127
2, 61360, Note_on_c, 1, 69, 127
2, 61360, Note_off_c, 1, 80, 0
2, 61360, Note_on_c, 1, 85, 127
2, 61360, Note_off_c, 1, 86, 0
2, 61360, Note_off_c, 1, 92, 0
2, 61360, Note_on_c, 1, 93, 127
2, 61400, Note_on_c, 1, 41, 127
2, 61400, Note_on_c, 1, 47, 127
2, 61400, Note_on_c, 1, 53, 127
2, 61400, Note_off_c, 1, 66, 0
2, 61400, Note_off_c, 1, 69, 0
2, 61400, Note_on_c, 1, 80, 127
2, 61400, Note_off_c, 1, 85, 0
2, 61400, Note_on_c, 1, 86, 127
2, 61400, Note_on_c, 1, 92, 127
2, 61400, Note_off_c, 1, 93, 0
2, 61520, Note_off_c, 1, 47, 0
2, 61520, Note_on_c, 1, 65, 127
2, 61520, Note_on_c, 1, 68, 127
2, 61520, Note_on_c, 1, 73, 127
2, 61520, Note_on_c, 1, 77, 127
2, 61520, Note_off_c, 1, 80, 0
2, 61520, Note_off_c, 1, 86, 0
2, 61520, Note_off_c, 1, 92, 0
2, 61560, Note_on_c, 1, 47, 127
2, 61560, Note_off_c, 1, 65, 0
2, 61560, Note_off_c, 1, 68, 0
2, 61560, Note_off_c, 1, 73, 0
2, 61560, Note_off_c, 1, 77, 0
2, 61560, Note_on_c, 1, 80, 127
2, 61560, Note_on_c, 1, 86, 127
2, 61560, Note_on_c, 1, 92, 127
2, 61640, Note_off_c, 1, 41, 0
2, 61640, Note_off_c, 1, 47, 0
2, 61640, Note_off_c, 1, 53, 0
2, 61640, Note_off_c, 1, 80, 0
2, 61640, Note_off_c, 1, 86, 0
2, 61640, Note_off_c, 1, 92, 0
2, 61680, Note_on_c, 1, 53, 127
2, 61680, Note_on_c, 1, 81, 127
2, 61680, Note_on_c, 1, 84, 127
2, 61680, Note_on_c, 1, 89, 127
2, 61680, Note_on_c, 1, 93, 127
2, 62000, Note_off_c, 1, 53, 0
2, 62000, Note_off_c, 1, 81, 0
2, 62000, Note_off_c, 1, 84, 0
2, 62000, Note_off_c, 1, 89, 0
2, 62000, Note_off_c, 1, 93, 0
2, 62040, Note_on_c, 1, 53, 127
2, 62040, Note_on_c, 1, 81, 127
2, 62040, Note_on_c, 1, 84, 127
2, 62040, Note_on_c, 1, 89, 127
2, 62040, Note_on_c, 1, 93, 127
2, 62720, Note_on_c, 1, 43, 127
2, 62720, Note_on_c, 1, 48, 127
2, 62720, Note_on_c, 1, 51, 127
2, 62720, Note_off_c, 1, 53, 0
2, 62720, Note_on_c, 1, 55, 127
2, 62720, Note_on_c, 1, 63, 127
2, 62720, Note_on_c, 1, 72, 127
2, 62720, Note_off_c, 1, 81, 0
2, 62720, Note_off_c, 1, 84, 0
2, 62720, Note_off_c, 1, 89, 0
2, 62720, Note_off_c, 1, 93, 0
2, 62760, Note_off_c, 1, 43, 0
2, 62760, Note_off_c, 1, 48, 0
2, 62760, Note_on_c, 1, 49, 127
2, 62760, Note_off_c, 1, 51, 0
2, 62760, Note_on_c, 1, 52, 127
2, 62760, Note_on_c, 1, 57, 127
2, 62760, Note_on_c, 1, 61, 127
2, 62760, Note_off_c, 1, 63, 0
2, 62760, Note_on_c, 1, 64, 127
2, 62760, Note_off_c, 1, 72, 0
2, 62800, Note_on_c, 1, 42, 127
2, 62800, Note_off_c, 1, 52, 0
2, 62800, Note_off_c, 1, 55, 0
2, 62800, Note_off_c, 1, 57, 0
2, 62800, Note_on_c, 1, 58, 127
2, 62800, Note_off_c, 1, 61, 0
2, 62800, Note_off_c, 1, 64, 0
2, 62800, Note_on_c, 1, 73, 127
2, 62800, Note_on_c, 1, 78, 127
2, 62800, Note_on_c, 1, 82, 127
2, 62800, Note_on_c, 1, 85, 127
2, 62840, Note_off_c, 1, 42, 0
2, 62840, Note_off_c, 1, 49, 0
2, 62840, Note_off_c, 1, 58, 0
2, 62840, Note_on_c, 1, 59, 127
2, 62840, Note_on_c, 1, 63, 127
2, 62840, Note_off_c, 1, 78, 0
2, 62840, Note_on_c, 1, 81, 127
2, 62840, Note_off_c, 1, 82, 0
2, 62840, Note_off_c, 1, 85, 0
2, 62840, Note_on_c, 1, 93, 127
2, 62880, Note_off_c, 1, 59, 0
2, 62880, Note_on_c, 1, 62, 127
2, 62880, Note_off_c, 1, 63, 0
2, 62880, Note_on_c, 1, 65, 127
2, 62880, Note_on_c, 1, 69, 127
2, 62880, Note_off_c, 1, 73, 0
2, 62880, Note_on_c, 1, 77, 127
2, 62880, Note_off_c, 1, 93, 0
2, 62920, Note_on_c, 1, 39, 127
2, 62920, Note_off_c, 1, 62, 0
2, 62920, Note_off_c, 1, 65, 0
2, 62920, Note_on_c, 1, 68, 127
2, 62920, Note_off_c, 1, 69, 0
2, 62920, Note_on_c, 1, 70, 127
2, 62920, Note_on_c, 1, 75, 127
2, 62920, Note_off_c, 1, 77, 0
2, 62920, Note_off_c, 1, 81, 0
2, 62960, Note_off_c, 1, 39, 0
2, 62960, Note_on_c, 1, 63, 127
2, 62960, Note_off_c, 1, 68, 0
2, 62960, Note_off_c, 1, 70, 0
2, 62960, Note_on_c, 1, 71, 127
2, 62960, Note_off_c, 1, 75, 0
2, 62960, Note_on_c, 1, 80, 127
2, 62960, Note_on_c, 1, 90, 127
2, 63000, Note_off_c, 1, 63, 0
2, 63000, Note_off_c, 1, 71, 0
2, 63000, Note_off_c, 1, 80, 0
2, 63000, Note_off_c, 1, 90, 0
2, 63040, Note_on_c, 1, 63, 127
2, 63040, Note_on_c, 1, 71, 127
2, 63040, Note_on_c, 1, 80, 127
2, 63040, Note_on_c, 1, 90, 127
2, 63880, Note_off_c, 1, 63, 0
2, 63880, Note_off_c, 1, 71, 0
2, 63880, Note_off_c, 1, 80, 0
2, 63880, Note_off_c, 1, 90, 0
2, 63920, Note_on_c, 1, 63, 127
2, 63920, Note_on_c, 1, 71, 127
2, 63920, Note_on_c, 1, 80, 127
2, 63920, Note_on_c, 1, 90, 127
2, 65000, Note_on_c, 1, 61, 127
2, 65000, Note_off_c, 1, 63, 0
2, 65000, Note_on_c, 1, 66, 127
2, 65000, Note_off_c, 1, 71, 0
2, 65000, Note_off_c, 1, 80, 0
2, 65000, Note_off_c, 1, 90, 0
2, 65040, Note_off_c, 1, 61, 0
2, 65040, Note_off_c, 1, 66, 0
2, 65120, Note_on_c, 1, 64, 127
2, 65120, Note_on_c, 1, 67, 127
2, 65120, Note_on_c, 1, 71, 127
2, 65120, Note_on_c, 1, 76, 127
2, 65120, Note_on_c, 1, 83, 127
2, 65200, Note_on_c, 1, 45, 127
2, 65200, Note_off_c, 1, 64, 0
2, 65200, Note_off_c, 1, 67, 0
2, 65200, Note_off_c, 1, 71, 0
2, 65200, Note_off_c, 1, 76, 0
2, 65200, Note_off_c, 1, 83, 0
2, 65200, Note_on_c, 1, 85, 127
2, 65200, Note_on_c, 1, 88, 127
2, 65200, Note_on_c, 1, 97, 127
2, 65240, Note_off_c, 1, 45, 0
2, 65240, Note_on_c, 1, 64, 127
2, 65240, Note_on_c, 1, 67, 127
2, 65240, Note_on_c, 1, 71, 127
2, 65240, Note_on_c, 1, 76, 127
2, 65240, Note_on_c, 1, 83, 127
2, 65240, Note_off_c, 1, 85, 0
2, 65240, Note_off_c, 1, 88, 0
2, 65240, Note_off_c, 1, 97, 0
2, 65280, Note_on_c, 1, 45, 127
2, 65280, Note_off_c, 1, 64, 0
2, 65280, Note_off_c, 1, 67, 0
2, 65280, Note_off_c, 1, 71, 0
2, 65280, Note_off_c, 1, 76, 0
2, 65280, Note_off_c, 1, 83, 0
2, 65280, Note_on_c, 1, 85, 127
2, 65280, Note_on_c, 1, 88, 127
2, 65280, Note_on_c, 1, 97, 127
2, 65320, Note_off_c, 1, 45, 0
2, 65320, Note_on_c, 1, 64, 127
2, 65320, Note_on_c, 1, 67, 127
2, 65320, Note_on_c, 1, 71, 127
2, 65320, Note_on_c, 1, 76, 127
2, 65320, Note_on_c, 1, 83, 127
2, 65320, Note_off_c, 1, 85, 0
2, 65320, Note_off_c, 1, 88, 0
2, 65320, Note_off_c, 1, 97, 0
2, 65440, Note_off_c, 1, 64, 0
2, 65440, Note_off_c, 1, 67, 0
2, 65440, Note_off_c, 1, 71, 0
2, 65440, Note_off_c, 1, 76, 0
2, 65440, Note_off_c, 1, 83, 0
2, 65480, Note_on_c, 1, 61, 127
2, 65480, Note_on_c, 1, 68, 127
2, 65480, Note_on_c, 1, 77, 127
2, 65480, Note_on_c, 1, 85, 127
2, 66200, Note_off_c, 1, 61, 0
2, 66200, Note_off_c, 1, 68, 0
2, 66200, Note_off_c, 1, 77, 0
2, 66200, Note_off_c, 1, 85, 0
2, 66240, Note_on_c, 1, 37, 127
2, 66240, Note_on_c, 1, 49, 127
2, 66240, Note_on_c, 1, 65, 127
2, 66240, Note_on_c, 1, 70, 127
2, 66240, Note_on_c, 1, 77, 127
2, 66800, Note_off_c, 1, 37, 0
2, 66800, Note_off_c, 1, 49, 0
2, 66800, Note_on_c, 1, 51, 127
2, 66800, Note_on_c, 1, 58, 127
2, 66800, Note_off_c, 1, 65, 0
2, 66800, Note_on_c, 1, 67, 127
2, 66800, Note_off_c, 1, 70, 0
2, 66800, Note_off_c, 1, 77, 0
2, 66800, Note_on_c, 1, 79, 127
2, 66840, Note_off_c, 1, 67, 0
2, 66840, Note_on_c, 1, 75, 127
2, 66960, Note_off_c, 1, 51, 0
2, 66960, Note_off_c, 1, 58, 0
2, 66960, Note_off_c, 1, 75, 0
2, 66960, Note_off_c, 1, 79, 0
2, 67000, Note_on_c, 1, 63, 127
2, 67000, Note_on_c, 1, 69, 127
2, 67000, Note_on_c, 1, 72, 127
2, 67000, Note_on_c, 1, 77, 127
2, 67040, Note_on_c, 1, 51, 127
2, 67040, Note_on_c, 1, 58, 127
2, 67040, Note_off_c, 1, 63, 0
2, 67040, Note_off_c, 1, 69, 0
2, 67040, Note_off_c, 1, 72, 0
2, 67040, Note_on_c, 1, 75, 127
2, 67040, Note_off_c, 1, 77, 0
2, 67040, Note_on_c, 1, 79, 127
2, 67360, Note_off_c, 1, 51, 0
2, 67360, Note_off_c, 1, 58, 0
2, 67360, Note_off_c, 1, 75, 0
2, 67360, Note_off_c, 1, 79, 0
2, 67400, Note_on_c, 1, 51, 127
2, 67400, Note_on_c, 1, 58, 127
2, 67720, Note_off_c, 1, 51, 0
2, 67720, Note_off_c, 1, 58, 0
2, 67800, Note_on_c, 1, 51, 127
2, 67800, Note_on_c, 1, 58, 127
2, 68120, Note_off_c, 1, 58, 0
2, 68120, Note_on_c, 1, 63, 127
2, 68160, Note_on_c, 1, 58, 127
2, 68160, Note_off_c, 1, 63, 0
2, 68320, Note_off_c, 1, 58, 0
2, 68360, Note_on_c, 1, 63, 127
2, 68720, Note_off_c, 1, 51, 0
2, 68760, Note_on_c, 1, 51, 127
2, 69000, Note_off_c, 1, 63, 0
2, 69040, Note_off_c, 1, 51, 0
2, 69080, Note_on_c, 1, 51, 127
2, 69080, Note_on_c, 1, 63, 127
2, 69120, Note_off_c, 1, 51, 0
2, 69160, Note_on_c, 1, 51, 127
2, 69160, Note_off_c, 1, 63, 0
2, 69160, Note_on_c, 1, 75, 127
2, 69280, Note_off_c, 1, 75, 0
2, 69320, Note_off_c, 1, 51, 0
2, 69320, Note_on_c, 1, 59, 127
2, 69320, Note_on_c, 1, 75, 127
2, 69480, Note_off_c, 1, 59, 0
2, 69480, Note_off_c, 1, 75, 0
2, 69520, Note_on_c, 1, 35, 127
2, 69520, Note_on_c, 1, 66, 127
2, 69520, Note_on_c, 1, 69, 127
2, 69520, Note_on_c, 1, 71, 127
2, 69520, Note_on_c, 1, 75, 127
2, 69560, Note_off_c, 1, 35, 0
2, 69560, Note_on_c, 1, 44, 127
2, 69560, Note_on_c, 1, 49, 127
2, 69560, Note_on_c, 1, 65, 127
2, 69560, Note_off_c, 1, 66, 0
2, 69560, Note_on_c, 1, 68, 127
2, 69560, Note_off_c, 1, 69, 0
2, 69560, Note_off_c, 1, 71, 0
2, 69560, Note_on_c, 1, 72, 127
2, 69560, Note_off_c, 1, 75, 0
2, 69600, Note_on_c, 1, 33, 127
2, 69600, Note_on_c, 1, 42, 127
2, 69600, Note_off_c, 1, 44, 0
2, 69600, Note_on_c, 1, 45, 127
2, 69600, Note_off_c, 1, 49, 0
2, 69600, Note_on_c, 1, 54, 127
2, 69600, Note_on_c, 1, 60, 127
2, 69600, Note_on_c, 1, 63, 127
2, 69600, Note_off_c, 1, 65, 0
2, 69600, Note_off_c, 1, 68, 0
2, 69600, Note_off_c, 1, 72, 0
2, 69640, Note_off_c, 1, 33, 0
2, 69640, Note_off_c, 1, 42, 0
2, 69640, Note_off_c, 1, 45, 0
2, 69640, Note_off_c, 1, 54, 0
2, 69640, Note_on_c, 1, 59, 127
2, 69640, Note_off_c, 1, 60, 0
2, 69640, Note_off_c, 1, 63, 0
2, 69640, Note_on_c, 1, 65, 127
2, 69640, Note_on_c, 1, 70, 127
2, 69640, Note_on_c, 1, 77, 127
2, 69640, Note_on_c, 1, 86, 127
2, 69640, Note_on_c, 1, 89, 127
2, 69680, Note_off_c, 1, 59, 0
2, 69680, Note_off_c, 1, 65, 0
2, 69680, Note_on_c, 1, 67, 127
2, 69680, Note_off_c, 1, 70, 0
2, 69680, Note_on_c, 1, 71, 127
2, 69680, Note_on_c, 1, 76, 127
2, 69680, Note_off_c, 1, 77, 0
2, 69680, Note_on_c, 1, 78, 127
2, 69680, Note_off_c, 1, 86, 0
2, 69680, Note_off_c, 1, 89, 0
2, 69720, Note_off_c, 1, 67, 0
2, 69720, Note_on_c, 1, 68, 127
2, 69720, Note_on_c, 1, 70, 127
2, 69720, Note_off_c, 1, 71, 0
2, 69720, Note_off_c, 1, 76, 0
2, 69760, Note_on_c, 1, 67, 127
2, 69760, Note_off_c, 1, 68, 0
2, 69760, Note_off_c, 1, 70, 0
2, 69760, Note_off_c, 1, 78, 0
2, 69760, Note_on_c, 1, 88, 127
2, 69760, Note_on_c, 1, 95, 127
2, 69800, Note_on_c, 1, 34, 127
2, 69800, Note_on_c, 1, 44, 127
2, 69800, Note_on_c, 1, 53, 127
2, 69800, Note_off_c, 1, 67, 0
2, 69800, Note_off_c, 1, 88, 0
2, 69800, Note_off_c, 1, 95, 0
2, 69840, Note_off_c, 1, 34, 0
2, 69840, Note_off_c, 1, 44, 0
2, 69840, Note_on_c, 1, 50, 127
2, 69840, Note_on_c, 1, 52, 127
2, 69840, Note_off_c, 1, 53, 0
2, 69840, Note_on_c, 1, 56, 127
2, 69840, Note_on_c, 1, 76, 127
2, 69880, Note_off_c, 1, 50, 0
2, 69880, Note_off_c, 1, 52, 0
2, 69880, Note_on_c, 1, 60, 127
2, 69880, Note_on_c, 1, 63, 127
2, 69880, Note_off_c, 1, 76, 0
2, 69880, Note_on_c, 1, 92, 127
2, 69920, Note_on_c, 1, 51, 127
2, 69920, Note_off_c, 1, 56, 0
2, 69920, Note_on_c, 1, 58, 127
2, 69920, Note_off_c, 1, 60, 0
2, 69920, Note_off_c, 1, 63, 0
2, 69920, Note_on_c, 1, 67, 127
2, 69920, Note_on_c, 1, 73, 127
2, 69920, Note_off_c, 1, 92, 0
2, 70200, Note_off_c, 1, 51, 0
2, 70200, Note_off_c, 1, 58, 0
2, 70200, Note_off_c, 1, 67, 0
2, 70200, Note_off_c, 1, 73, 0
2, 70240, Note_on_c, 1, 37, 127
2, 70240, Note_on_c, 1, 49, 127
2, 70240, Note_on_c, 1, 80, 127
2, 70240, Note_on_c, 1, 87, 127
2, 70280, Note_on_c, 1, 36, 127
2, 70280, Note_off_c, 1, 37, 0
2, 70280, Note_on_c, 1, 41, 127
2, 70280, Note_on_c, 1, 43, 127
2, 70280, Note_on_c, 1, 48, 127
2, 70280, Note_off_c, 1, 49, 0
2, 70280, Note_on_c, 1, 50, 127
2, 70280, Note_off_c, 1, 80, 0
2, 70280, Note_off_c, 1, 87, 0
2, 70280, Note_on_c, 1, 96, 127
2, 70320, Note_off_c, 1, 36, 0
2, 70320, Note_off_c, 1, 41, 0
2, 70320, Note_off_c, 1, 43, 0
2, 70320, Note_off_c, 1, 48, 0
2, 70320, Note_off_c, 1, 50, 0
2, 70320, Note_on_c, 1, 55, 127
2, 70320, Note_on_c, 1, 68, 127
2, 70320, Note_on_c, 1, 76, 127
2, 70320, Note_on_c, 1, 80, 127
2, 70320, Note_off_c, 1, 96, 0
2, 70360, Note_on_c, 1, 37, 127
2, 70360, Note_on_c, 1, 49, 127
2, 70360, Note_off_c, 1, 55, 0
2, 70360, Note_on_c, 1, 56, 127
2, 70360, Note_on_c, 1, 66, 127
2, 70360, Note_off_c, 1, 68, 0
2, 70360, Note_off_c, 1, 76, 0
2, 70360, Note_off_c, 1, 80, 0
2, 70400, Note_off_c, 1, 37, 0
2, 70400, Note_off_c, 1, 49, 0
2, 70400, Note_on_c, 1, 52, 127
2, 70400, Note_on_c, 1, 60, 127
2, 70400, Note_off_c, 1, 66, 0
2, 70400, Note_on_c, 1, 75, 127
2, 70440, Note_on_c, 1, 49, 127
2, 70440, Note_off_c, 1, 52, 0
2, 70440, Note_off_c, 1, 56, 0
2, 70440, Note_on_c, 1, 57, 127
2, 70440, Note_off_c, 1, 60, 0
2, 70440, Note_on_c, 1, 64, 127
2, 70440, Note_off_c, 1, 75, 0
2, 70440, Note_on_c, 1, 81, 127
2, 70440, Note_on_c, 1, 93, 127
2, 70480, Note_on_c, 1, 51, 127
2, 70480, Note_off_c, 1, 57, 0
2, 70480, Note_off_c, 1, 64, 0
2, 70480, Note_on_c, 1, 75, 127
2, 70480, Note_off_c, 1, 81, 0
2, 70480, Note_off_c, 1, 93, 0
2, 70520, Note_off_c, 1, 49, 0
2, 70520, Note_off_c, 1, 51, 0
2, 70520, Note_on_c, 1, 58, 127
2, 70520, Note_on_c, 1, 68, 127
2, 70520, Note_on_c, 1, 85, 127
2, 70560, Note_on_c, 1, 52, 127
2, 70560, Note_on_c, 1, 63, 127
2, 70560, Note_off_c, 1, 68, 0
2, 70560, Note_off_c, 1, 75, 0
2, 70560, Note_off_c, 1, 85, 0
2, 70600, Note_on_c, 1, 51, 127
2, 70600, Note_off_c, 1, 52, 0
2, 70600, Note_on_c, 1, 61, 127
2, 70600, Note_off_c, 1, 63, 0
2, 70600, Note_on_c, 1, 79, 127
2, 70600, Note_on_c, 1, 87, 127
2, 70600, Note_on_c, 1, 91, 127
2, 70640, Note_on_c, 1, 49, 127
2, 70640, Note_off_c, 1, 51, 0
2, 70640, Note_on_c, 1, 55, 127
2, 70640, Note_off_c, 1, 58, 0
2, 70640, Note_on_c, 1, 67, 127
2, 70640, Note_on_c, 1, 70, 127
2, 70640, Note_off_c, 1, 79, 0
2, 70640, Note_on_c, 1, 82, 127
2, 70640, Note_off_c, 1, 87, 0
2, 70640, Note_on_c, 1, 88, 127
2, 70640, Note_off_c, 1, 91, 0
2, 70640, Note_on_c, 1, 94, 127
2, 70680, Note_off_c, 1, 49, 0
2, 70680, Note_off_c, 1, 55, 0
2, 70680, Note_off_c, 1, 61, 0
2, 70680, Note_off_c, 1, 67, 0
2, 70680, Note_off_c, 1, 70, 0
2, 70680, Note_on_c, 1, 72, 127
2, 70680, Note_off_c, 1, 88, 0
2, 70720, Note_on_c, 1, 35, 127
2, 70720, Note_on_c, 1, 47, 127
2, 70720, Note_on_c, 1, 64, 127
2, 70720, Note_on_c, 1, 68, 127
2, 70720, Note_on_c, 1, 71, 127
2, 70720, Note_off_c, 1, 72, 0
2, 70720, Note_off_c, 1, 82, 0
2, 70720, Note_off_c, 1, 94, 0
2, 70760, Note_off_c, 1, 35, 0
2, 70760, Note_on_c, 1, 41, 127
2, 70760, Note_off_c, 1, 47, 0
2, 70760, Note_on_c, 1, 53, 127
2, 70760, Note_on_c, 1, 61, 127
2, 70760, Note_off_c, 1, 64, 0
2, 70760, Note_on_c, 1, 65, 127
2, 70760, Note_off_c, 1, 68, 0
2, 70760, Note_off_c, 1, 71, 0
2, 70800, Note_off_c, 1, 41, 0
2, 70800, Note_off_c, 1, 53, 0
2, 70800, Note_off_c, 1, 61, 0
2, 70800, Note_off_c, 1, 65, 0
2, 70800, Note_on_c, 1, 68, 127
2, 70800, Note_on_c, 1, 75, 127
2, 70800, Note_on_c, 1, 78, 127
2, 70800, Note_on_c, 1, 83, 127
2, 70840, Note_on_c, 1, 36, 127
2, 70840, Note_on_c, 1, 43, 127
2, 70840, Note_on_c, 1, 48, 127
2, 70840, Note_on_c, 1, 58, 127
2, 70840, Note_on_c, 1, 64, 127
2, 70840, Note_off_c, 1, 68, 0
2, 70840, Note_on_c, 1, 72, 127
2, 70840, Note_off_c, 1, 75, 0
2, 70840, Note_off_c, 1, 78, 0
2, 70840, Note_off_c, 1, 83, 0
2, 70880, Note_off_c, 1, 36, 0
2, 70880, Note_off_c, 1, 43, 0
2, 70880, Note_off_c, 1, 48, 0
2, 70880, Note_on_c, 1, 54, 127
2, 70880, Note_off_c, 1, 64, 0
2, 70880, Note_on_c, 1, 66, 127
2, 70880, Note_off_c, 1, 72, 0
2, 70880, Note_on_c, 1, 76, 127
2, 70880, Note_on_c, 1, 80, 127
2, 70920, Note_on_c, 1, 34, 127
2, 70920, Note_on_c, 1, 46, 127
2, 70920, Note_off_c, 1, 54, 0
2, 70920, Note_off_c, 1, 58, 0
2, 70920, Note_on_c, 1, 62, 127
2, 70920, Note_on_c, 1, 65, 127
2, 70920, Note_off_c, 1, 66, 0
2, 70920, Note_on_c, 1, 74, 127
2, 70920, Note_off_c, 1, 76, 0
2, 70920, Note_off_c, 1, 80, 0
2, 70920, Note_on_c, 1, 86, 127
2, 70960, Note_off_c, 1, 34, 0
2, 70960, Note_off_c, 1, 46, 0
2, 70960, Note_on_c, 1, 53, 127
2, 70960, Note_off_c, 1, 62, 0
2, 70960, Note_off_c, 1, 65, 0
2, 70960, Note_on_c, 1, 68, 127
2, 70960, Note_on_c, 1, 71, 127
2, 70960, Note_off_c, 1, 74, 0
2, 70960, Note_on_c, 1, 75, 127
2, 70960, Note_off_c, 1, 86, 0
2, 71080, Note_off_c, 1, 53, 0
2, 71080, Note_off_c, 1, 68, 0
2, 71080, Note_off_c, 1, 71, 0
2, 71080, Note_off_c, 1, 75, 0
2, 71120, Note_on_c, 1, 53, 127
2, 71120, Note_on_c, 1, 68, 127
2, 71120, Note_on_c, 1, 71, 127
2, 71120, Note_on_c, 1, 75, 127
2, 71320, Note_off_c, 1, 53, 0
2, 71320, Note_off_c, 1, 68, 0
2, 71320, Note_off_c, 1, 71, 0
2, 71320, Note_off_c, 1, 75, 0
2, 71360, Note_on_c, 1, 45, 127
2, 71360, Note_on_c, 1, 55, 127
2, 71360, Note_on_c, 1, 64, 127
2, 71360, Note_on_c, 1, 69, 127
2, 71360, Note_on_c, 1, 76, 127
2, 71680, Note_off_c, 1, 55, 0
2, 71720, Note_on_c, 1, 57, 127
2, 72040, Note_off_c, 1, 45, 0
2, 72040, Note_off_c, 1, 57, 0
2, 72040, Note_off_c, 1, 64, 0
2, 72040, Note_off_c, 1, 69, 0
2, 72040, Note_off_c, 1, 76, 0
2, 72080, Note_on_c, 1, 34, 127
2, 72080, Note_on_c, 1, 46, 127
2, 72080, Note_on_c, 1, 54, 127
2, 72080, Note_on_c, 1, 58, 127
2, 72080, Note_on_c, 1, 66, 127
2, 72120, Note_off_c, 1, 34, 0
2, 72120, Note_off_c, 1, 46, 0
2, 72120, Note_off_c, 1, 54, 0
2, 72120, Note_off_c, 1, 58, 0
2, 72120, Note_on_c, 1, 61, 127
2, 72120, Note_on_c, 1, 63, 127
2, 72120, Note_off_c, 1, 66, 0
2, 72120, Note_on_c, 1, 67, 127
2, 72120, Note_on_c, 1, 90, 127
2, 72160, Note_on_c, 1, 54, 127
2, 72160, Note_on_c, 1, 59, 127
2, 72160, Note_off_c, 1, 61, 0
2, 72160, Note_off_c, 1, 63, 0
2, 72160, Note_on_c, 1, 64, 127
2, 72160, Note_on_c, 1, 66, 127
2, 72160, Note_off_c, 1, 67, 0
2, 72160, Note_on_c, 1, 71, 127
2, 72160, Note_on_c, 1, 76, 127
2, 72160, Note_on_c, 1, 78, 127
2, 72160, Note_off_c, 1, 90, 0
2, 72200, Note_on_c, 1, 38, 127
2, 72200, Note_on_c, 1, 42, 127
2, 72200, Note_on_c, 1, 45, 127
2, 72200, Note_on_c, 1, 50, 127
2, 72200, Note_off_c, 1, 54, 0
2, 72200, Note_off_c, 1, 59, 0
2, 72200, Note_on_c, 1, 62, 127
2, 72200, Note_off_c, 1, 64, 0
2, 72200, Note_on_c, 1, 69, 127
2, 72200, Note_off_c, 1, 71, 0
2, 72200, Note_on_c, 1, 74, 127
2, 72200, Note_off_c, 1, 76, 0
2, 72200, Note_on_c, 1, 81, 127
2, 72200, Note_on_c, 1, 86, 127
2, 72240, Note_off_c, 1, 38, 0
2, 72240, Note_off_c, 1, 45, 0
2, 72240, Note_off_c, 1, 50, 0
2, 72240, Note_on_c, 1, 57, 127
2, 72240, Note_off_c, 1, 66, 0
2, 72240, Note_off_c, 1, 78, 0
2, 72240, Note_off_c, 1, 81, 0
2, 72240, Note_off_c, 1, 86, 0
2, 72280, Note_off_c, 1, 42, 0
2, 72280, Note_off_c, 1, 57, 0
2, 72280, Note_on_c, 1, 61, 127
2, 72280, Note_off_c, 1, 62, 0
2, 72280, Note_on_c, 1, 63, 127
2, 72280, Note_on_c, 1, 67, 127
2, 72280, Note_off_c, 1, 69, 0
2, 72280, Note_on_c, 1, 71, 127
2, 72280, Note_off_c, 1, 74, 0
2, 72320, Note_on_c, 1, 45, 127
2, 72320, Note_on_c, 1, 53, 127
2, 72320, Note_on_c, 1, 57, 127
2, 72320, Note_off_c, 1, 61, 0
2, 72320, Note_off_c, 1, 63, 0
2, 72320, Note_off_c, 1, 67, 0
2, 72320, Note_off_c, 1, 71, 0
2, 72320, Note_on_c, 1, 72, 127
2, 72320, Note_on_c, 1, 82, 127
2, 72320, Note_on_c, 1, 84, 127
2, 72360, Note_off_c, 1, 45, 0
2, 72360, Note_off_c, 1, 53, 0
2, 72360, Note_off_c, 1, 57, 0
2, 72360, Note_on_c, 1, 62, 127
2, 72360, Note_on_c, 1, 70, 127
2, 72360, Note_off_c, 1, 72, 0
2, 72360, Note_on_c, 1, 73, 127
2, 72360, Note_on_c, 1, 79, 127
2, 72360, Note_off_c, 1, 82, 0
2, 72360, Note_off_c, 1, 84, 0
2, 72400, Note_on_c, 1, 51, 127
2, 72400, Note_on_c, 1, 58, 127
2, 72400, Note_off_c, 1, 62, 0
2, 72400, Note_on_c, 1, 68, 127
2, 72400, Note_off_c, 1, 70, 0
2, 72400, Note_off_c, 1, 73, 0
2, 72400, Note_on_c, 1, 74, 127
2, 72400, Note_on_c, 1, 77, 127
2, 72400, Note_off_c, 1, 79, 0
2, 72440, Note_on_c, 1, 45, 127
2, 72440, Note_on_c, 1, 50, 127
2, 72440, Note_off_c, 1, 51, 0
2, 72440, Note_on_c, 1, 54, 127
2, 72440, Note_off_c, 1, 58, 0
2, 72440, Note_off_c, 1, 68, 0
2, 72440, Note_off_c, 1, 74, 0
2, 72440, Note_off_c, 1, 77, 0
2, 72440, Note_on_c, 1, 89, 127
2, 72480, Note_off_c, 1, 45, 0
2, 72480, Note_off_c, 1, 50, 0
2, 72480, Note_on_c, 1, 51, 127
2, 72480, Note_off_c, 1, 54, 0
2, 72480, Note_on_c, 1, 57, 127
2, 72480, Note_on_c, 1, 60, 127
2, 72480, Note_on_c, 1, 66, 127
2, 72480, Note_on_c, 1, 69, 127
2, 72480, Note_on_c, 1, 72, 127
2, 72480, Note_off_c, 1, 89, 0
2, 72520, Note_off_c, 1, 51, 0
2, 72520, Note_off_c, 1, 57, 0
2, 72520, Note_off_c, 1, 60, 0
2, 72520, Note_on_c, 1, 65, 127
2, 72520, Note_off_c, 1, 66, 0
2, 72520, Note_on_c, 1, 68, 127
2, 72520, Note_off_c, 1, 69, 0
2, 72520, Note_on_c, 1, 94, 127
2, 72560, Note_on_c, 1, 53, 127
2, 72560, Note_off_c, 1, 65, 0
2, 72560, Note_off_c, 1, 68, 0
2, 72560, Note_off_c, 1, 72, 0
2, 72560, Note_on_c, 1, 73, 127
2, 72560, Note_on_c, 1, 80, 127
2, 72560, Note_off_c, 1, 94, 0
2, 72600, Note_on_c, 1, 51, 127
2, 72600, Note_off_c, 1, 53, 0
2, 72600, Note_on_c, 1, 54, 127
2, 72600, Note_on_c, 1, 59, 127
2, 72600, Note_off_c, 1, 73, 0
2, 72600, Note_on_c, 1, 77, 127
2, 72600, Note_off_c, 1, 80, 0
2, 72640, Note_on_c, 1, 35, 127
2, 72640, Note_on_c, 1, 47, 127
2, 72640, Note_on_c, 1, 50, 127
2, 72640, Note_off_c, 1, 51, 0
2, 72640, Note_on_c, 1, 62, 127
2, 72640, Note_off_c, 1, 77, 0
2, 72680, Note_off_c, 1, 35, 0
2, 72680, Note_off_c, 1, 47, 0
2, 72680, Note_off_c, 1, 50, 0
2, 72680, Note_off_c, 1, 54, 0
2, 72680, Note_on_c, 1, 55, 127
2, 72680, Note_on_c, 1, 58, 127
2, 72680, Note_off_c, 1, 59, 0
2, 72680, Note_on_c, 1, 61, 127
2, 72680, Note_off_c, 1, 62, 0
2, 72680, Note_on_c, 1, 64, 127
2, 72680, Note_on_c, 1, 84, 127
2, 72720, Note_off_c, 1, 55, 0
2, 72720, Note_on_c, 1, 56, 127
2, 72720, Note_off_c, 1, 58, 0
2, 72720, Note_off_c, 1, 61, 0
2, 72720, Note_off_c, 1, 64, 0
2, 72720, Note_on_c, 1, 67, 127
2, 72720, Note_on_c, 1, 73, 127
2, 72760, Note_off_c, 1, 56, 0
2, 72760, Note_off_c, 1, 67, 0
2, 72760, Note_off_c, 1, 73, 0
2, 72760, Note_off_c, 1, 84, 0
2, 72800, Note_on_c, 1, 51, 127
2, 72800, Note_on_c, 1, 58, 127
2, 72800, Note_on_c, 1, 61, 127
2, 72800, Note_on_c, 1, 64, 127
2, 72800, Note_on_c, 1, 68, 127
2, 73120, Note_off_c, 1, 61, 0
2, 73120, Note_on_c, 1, 63, 127
2, 73120, Note_off_c, 1, 64, 0
2, 73120, Note_on_c, 1, 77, 127
2, 73480, Note_off_c, 1, 51, 0
2, 73480, Note_off_c, 1, 58, 0
2, 73480, Note_off_c, 1, 63, 0
2, 73480, Note_off_c, 1, 68, 0
2, 73480, Note_off_c, 1, 77, 0
2, 73560, Note_on_c, 1, 46, 127
2, 73560, Note_on_c, 1, 50, 127
2, 73560, Note_on_c, 1, 58, 127
2, 73560, Note_on_c, 1, 62, 127
2, 73560, Note_on_c, 1, 65, 127
2, 73560, Note_on_c, 1, 70, 127
2, 73720, Note_off_c, 1, 50, 0
2, 74200, Note_off_c, 1, 58, 0
2, 74240, Note_off_c, 1, 46, 0
2, 74240, Note_off_c, 1, 62, 0
2, 74240, Note_off_c, 1, 65, 0
2, 74240, Note_off_c, 1, 70, 0
2, 74280, Note_on_c, 1, 44, 127
2, 74280, Note_on_c, 1, 56, 127
2, 74280, Note_on_c, 1, 63, 127
2, 74280, Note_on_c, 1, 68, 127
2, 74280, Note_on_c, 1, 72, 127
2, 74960, Note_off_c, 1, 44, 0
2, 74960, Note_off_c, 1, 56, 0
2, 74960, Note_off_c, 1, 63, 0
2, 74960, Note_off_c, 1, 68, 0
2, 74960, Note_off_c, 1, 72, 0
2, 75000, Note_on_c, 1, 44, 127
2, 75000, Note_on_c, 1, 56, 127
2, 75000, Note_on_c, 1, 63, 127
2, 75000, Note_on_c, 1, 68, 127
2, 75000, Note_on_c, 1, 72, 127
2, 75400, Note_on_c, 1, 39, 127
2, 75400, Note_off_c, 1, 44, 0
2, 75400, Note_on_c, 1, 51, 127
2, 75400, Note_off_c, 1, 56, 0
2, 75400, Note_on_c, 1, 67, 127
2, 75400, Note_off_c, 1, 68, 0
2, 75400, Note_on_c, 1, 70, 127
2, 75400, Note_off_c, 1, 72, 0
2, 75560, Note_off_c, 1, 39, 0
2, 75560, Note_off_c, 1, 51, 0
2, 75560, Note_off_c, 1, 63, 0
2, 75560, Note_off_c, 1, 67, 0
2, 75560, Note_off_c, 1, 70, 0
2, 75640, Note_on_c, 1, 43, 127
2, 75640, Note_on_c, 1, 50, 127
2, 75640, Note_on_c, 1, 71, 127
2, 75640, Note_on_c, 1, 77, 127
2, 75640, Note_on_c, 1, 81, 127
2, 75960, Note_off_c, 1, 71, 0
2, 75960, Note_off_c, 1, 77, 0
2, 75960, Note_off_c, 1, 81, 0
2, 76000, Note_on_c, 1, 71, 127
2, 76000, Note_on_c, 1, 77, 127
2, 76000, Note_on_c, 1, 81, 127
2, 76280, Note_off_c, 1, 71, 0
2, 76280, Note_off_c, 1, 77, 0
2, 76280, Note_off_c, 1, 81, 0
2, 76320, Note_off_c, 1, 50, 0
2, 76320, Note_on_c, 1, 51, 127
2, 76320, Note_on_c, 1, 63, 127
2, 76320, Note_on_c, 1, 70, 127
2, 77000, Note_off_c, 1, 43, 0
2, 77000, Note_off_c, 1, 51, 0
2, 77000, Note_off_c, 1, 63, 0
2, 77000, Note_off_c, 1, 70, 0
2, 77040, Note_on_c, 1, 38, 127
2, 77040, Note_on_c, 1, 50, 127
2, 77040, Note_on_c, 1, 73, 127
2, 77040, Note_on_c, 1, 79, 127
2, 77040, Note_on_c, 1, 81, 127
2, 77080, Note_off_c, 1, 38, 0
2, 77080, Note_off_c, 1, 50, 0
2, 77080, Note_on_c, 1, 58, 127
2, 77080, Note_on_c, 1, 68, 127
2, 77080, Note_off_c, 1, 73, 0
2, 77080, Note_on_c, 1, 74, 127
2, 77080, Note_off_c, 1, 79, 0
2, 77080, Note_on_c, 1, 80, 127
2, 77080, Note_off_c, 1, 81, 0
2, 77080, Note_on_c, 1, 91, 127
2, 77120, Note_on_c, 1, 41, 127
2, 77120, Note_on_c, 1, 53, 127
2, 77120, Note_off_c, 1, 58, 0
2, 77120, Note_off_c, 1, 68, 0
2, 77120, Note_off_c, 1, 74, 0
2, 77120, Note_on_c, 1, 75, 127
2, 77120, Note_off_c, 1, 80, 0
2, 77120, Note_on_c, 1, 82, 127
2, 77120, Note_on_c, 1, 86, 127
2, 77120, Note_off_c, 1, 91, 0
2, 77160, Note_off_c, 1, 41, 0
2, 77160, Note_off_c, 1, 53, 0
2, 77160, Note_on_c, 1, 59, 127
2, 77160, Note_off_c, 1, 75, 0
2, 77160, Note_on_c, 1, 80, 127
2, 77160, Note_off_c, 1, 82, 0
2, 77160, Note_off_c, 1, 86, 0
2, 77160, Note_on_c, 1, 87, 127
2, 77160, Note_on_c, 1, 92, 127
2, 77200, Note_off_c, 1, 59, 0
2, 77200, Note_on_c, 1, 60, 127
2, 77200, Note_on_c, 1, 64, 127
2, 77200, Note_on_c, 1, 67, 127
2, 77200, Note_on_c, 1, 72, 127
2, 77200, Note_on_c, 1, 76, 127
2, 77200, Note_off_c, 1, 80, 0
2, 77200, Note_on_c, 1, 84, 127
2, 77200, Note_off_c, 1, 87, 0
2, 77200, Note_off_c, 1, 92, 0
2, 77240, Note_on_c, 1, 36, 127
2, 77240, Note_on_c, 1, 48, 127
2, 77240, Note_on_c, 1, 58, 127
2, 77240, Note_off_c, 1, 64, 0
2, 77240, Note_on_c, 1, 70, 127
2, 77240, Note_off_c, 1, 72, 0
2, 77240, Note_off_c, 1, 76, 0
2, 77240, Note_off_c, 1, 84, 0
2, 77280, Note_off_c, 1, 36, 0
2, 77280, Note_on_c, 1, 41, 127
2, 77280, Note_off_c, 1, 48, 0
2, 77280, Note_on_c, 1, 51, 127
2, 77280, Note_on_c, 1, 53, 127
2, 77280, Note_off_c, 1, 58, 0
2, 77280, Note_off_c, 1, 60, 0
2, 77280, Note_off_c, 1, 67, 0
2, 77280, Note_off_c, 1, 70, 0
2, 77320, Note_off_c, 1, 41, 0
2, 77320, Note_on_c, 1, 43, 127
2, 77320, Note_on_c, 1, 46, 127
2, 77320, Note_off_c, 1, 51, 0
2, 77320, Note_on_c, 1, 52, 127
2, 77320, Note_off_c, 1, 53, 0
2, 77320, Note_on_c, 1, 64, 127
2, 77360, Note_off_c, 1, 43, 0
2, 77360, Note_off_c, 1, 46, 0
2, 77360, Note_off_c, 1, 52, 0
2, 77360, Note_off_c, 1, 64, 0
2, 77400, Note_on_c, 1, 30, 127
2, 77400, Note_on_c, 1, 37, 127
2, 77400, Note_on_c, 1, 42, 127
2, 77400, Note_on_c, 1, 61, 127
2, 77400, Note_on_c, 1, 73, 127
2, 77560, Note_off_c, 1, 30, 0
2, 77560, Note_off_c, 1, 37, 0
2, 77560, Note_off_c, 1, 42, 0
2, 77560, Note_off_c, 1, 61, 0
2, 77560, Note_off_c, 1, 73, 0
2, 77600, Note_on_c, 1, 30, 127
2, 77600, Note_on_c, 1, 37, 127
2, 77600, Note_on_c, 1, 42, 127
2, 77600, Note_on_c, 1, 61, 127
2, 77600, Note_on_c, 1, 73, 127
2, 77800, Note_off_c, 1, 30, 0
2, 77800, Note_off_c, 1, 37, 0
2, 77800, Note_off_c, 1, 42, 0
2, 77800, Note_off_c, 1, 61, 0
2, 77800, Note_off_c, 1, 73, 0
2, 77840, Note_on_c, 1, 36, 127
2, 77840, Note_on_c, 1, 63, 127
2, 78160, Note_off_c, 1, 36, 0
2, 78160, Note_off_c, 1, 63, 0
2, 78200, Note_on_c, 1, 36, 127
2, 78200, Note_on_c, 1, 60, 127
2, 78320, Note_off_c, 1, 60, 0
2, 78360, Note_off_c, 1, 36, 0
2, 78360, Note_on_c, 1, 48, 127
2, 78360, Note_on_c, 1, 72, 127
2, 78480, Note_off_c, 1, 48, 0
2, 78480, Note_off_c, 1, 72, 0
2, 78520, Note_on_c, 1, 36, 127
2, 78520, Note_on_c, 1, 70, 127
2, 78840, Note_off_c, 1, 36, 0
2, 78840, Note_on_c, 1, 67, 127
2, 78840, Note_off_c, 1, 70, 0
2, 78880, Note_on_c, 1, 36, 127
2, 78880, Note_on_c, 1, 63, 127
2, 79200, Note_off_c, 1, 36, 0
2, 79240, Note_on_c, 1, 36, 127
2, 79560, Note_off_c, 1, 36, 0
2, 79560, Note_off_c, 1, 63, 0
2, 79560, Note_on_c, 1, 65, 127
2, 79560, Note_off_c, 1, 67, 0
2, 79600, Note_on_c, 1, 52, 127
2, 79600, Note_on_c, 1, 55, 127
2, 79600, Note_on_c, 1, 60, 127
2, 79600, Note_on_c, 1, 64, 127
2, 79600, Note_off_c, 1, 65, 0
2, 79600, Note_on_c, 1, 72, 127
2, 79600, Note_on_c, 1, 76, 127
2, 79600, Note_on_c, 1, 79, 127
2, 79600, Note_on_c, 1, 84, 127
2, 79720, Note_off_c, 1, 52, 0
2, 79720, Note_off_c, 1, 55, 0
2, 79720, Note_off_c, 1, 60, 0
2, 79720, Note_off_c, 1, 64, 0
2, 79720, Note_off_c, 1, 72, 0
2, 79720, Note_off_c, 1, 76, 0
2, 79720, Note_off_c, 1, 79, 0
2, 79720, Note_off_c, 1, 84, 0
2, 79760, Note_on_c, 1, 52, 127
2, 79760, Note_on_c, 1, 55, 127
2, 79760, Note_on_c, 1, 60, 127
2, 79760, Note_on_c, 1, 64, 127
2, 79760, Note_on_c, 1, 72, 127
2, 79760, Note_on_c, 1, 76, 127
2, 79760, Note_on_c, 1, 79, 127
2, 79760, Note_on_c, 1, 84, 127
2, 79960, Note_on_c, 1, 39, 127
2, 79960, Note_off_c, 1, 52, 0
2, 79960, Note_on_c, 1, 58, 127
2, 79960, Note_off_c, 1, 60, 0
2, 79960, Note_off_c, 1, 64, 0
2, 79960, Note_off_c, 1, 72, 0
2, 79960, Note_off_c, 1, 76, 0
2, 79960, Note_off_c, 1, 79, 0
2, 79960, Note_off_c, 1, 84, 0
2, 80000, Note_on_c, 1, 38, 127
2, 80000, Note_off_c, 1, 39, 0
2, 80000, Note_on_c, 1, 63, 127
2, 80320, Note_off_c, 1, 38, 0
2, 80320, Note_on_c, 1, 41, 127
2, 80320, Note_off_c, 1, 55, 0
2, 80320, Note_off_c, 1, 58, 0
2, 80320, Note_off_c, 1, 63, 0
2, 80360, Note_on_c, 1, 38, 127
2, 80360, Note_off_c, 1, 41, 0
2, 80360, Note_on_c, 1, 45, 127
2, 80360, Note_on_c, 1, 48, 127
2, 80360, Note_on_c, 1, 50, 127
2, 80360, Note_on_c, 1, 72, 127
2, 80400, Note_off_c, 1, 45, 0
2, 80400, Note_off_c, 1, 48, 0
2, 80400, Note_on_c, 1, 65, 127
2, 80400, Note_off_c, 1, 72, 0
2, 80400, Note_on_c, 1, 83, 127
2, 80400, Note_on_c, 1, 89, 127
2, 80400, Note_on_c, 1, 95, 127
2, 80440, Note_off_c, 1, 38, 0
2, 80440, Note_on_c, 1, 40, 127
2, 80440, Note_off_c, 1, 50, 0
2, 80440, Note_on_c, 1, 54, 127
2, 80440, Note_on_c, 1, 55, 127
2, 80440, Note_on_c, 1, 62, 127
2, 80440, Note_off_c, 1, 65, 0
2, 80440, Note_on_c, 1, 67, 127
2, 80440, Note_off_c, 1, 83, 0
2, 80440, Note_off_c, 1, 89, 0
2, 80440, Note_off_c, 1, 95, 0
2, 80480, Note_on_c, 1, 38, 127
2, 80480, Note_off_c, 1, 40, 0
2, 80480, Note_on_c, 1, 45, 127
2, 80480, Note_on_c, 1, 50, 127
2, 80480, Note_off_c, 1, 54, 0
2, 80480, Note_off_c, 1, 55, 0
2, 80480, Note_off_c, 1, 62, 0
2, 80480, Note_off_c, 1, 67, 0
2, 80480, Note_on_c, 1, 74, 127
2, 80480, Note_on_c, 1, 77, 127
2, 80480, Note_on_c, 1, 81, 127
2, 80520, Note_off_c, 1, 38, 0
2, 80520, Note_off_c, 1, 45, 0
2, 80520, Note_off_c, 1, 50, 0
2, 80520, Note_on_c, 1, 54, 127
2, 80520, Note_on_c, 1, 61, 127
2, 80520, Note_on_c, 1, 64, 127
2, 80520, Note_on_c, 1, 70, 127
2, 80520, Note_off_c, 1, 74, 0
2, 80520, Note_off_c, 1, 77, 0
2, 80520, Note_on_c, 1, 80, 127
2, 80520, Note_off_c, 1, 81, 0
2, 80520, Note_on_c, 1, 92, 127
2, 80560, Note_off_c, 1, 54, 0
2, 80560, Note_on_c, 1, 56, 127
2, 80560, Note_on_c, 1, 63, 127
2, 80560, Note_off_c, 1, 64, 0
2, 80560, Note_on_c, 1, 65, 127
2, 80560, Note_off_c, 1, 70, 0
2, 80560, Note_off_c, 1, 80, 0
2, 80560, Note_off_c, 1, 92, 0
2, 80600, Note_off_c, 1, 56, 0
2, 80600, Note_off_c, 1, 61, 0
2, 80600, Note_on_c, 1, 62, 127
2, 80600, Note_off_c, 1, 63, 0
2, 80600, Note_off_c, 1, 65, 0
2, 80600, Note_on_c, 1, 69, 127
2, 80600, Note_on_c, 1, 74, 127
2, 80600, Note_on_c, 1, 83, 127
2, 80640, Note_on_c, 1, 45, 127
2, 80640, Note_on_c, 1, 57, 127
2, 80640, Note_off_c, 1, 62, 0
2, 80640, Note_on_c, 1, 65, 127
2, 80640, Note_off_c, 1, 69, 0
2, 80640, Note_on_c, 1, 73, 127
2, 80640, Note_off_c, 1, 74, 0
2, 80640, Note_on_c, 1, 79, 127
2, 80640, Note_off_c, 1, 83, 0
2, 80680, Note_on_c, 1, 40, 127
2, 80680, Note_off_c, 1, 45, 0
2, 80680, Note_off_c, 1, 57, 0
2, 80680, Note_on_c, 1, 59, 127
2, 80680, Note_on_c, 1, 60, 127
2, 80680, Note_off_c, 1, 65, 0
2, 80680, Note_off_c, 1, 73, 0
2, 80680, Note_off_c, 1, 79, 0
2, 80720, Note_off_c, 1, 40, 0
2, 80720, Note_on_c, 1, 47, 127
2, 80720, Note_on_c, 1, 52, 127
2, 80720, Note_on_c, 1, 55, 127
2, 80720, Note_off_c, 1, 59, 0
2, 80720, Note_off_c, 1, 60, 0
2, 81040, Note_off_c, 1, 47, 0
2, 81040, Note_off_c, 1, 52, 0
2, 81040, Note_off_c, 1, 55, 0
2, 81080, Note_on_c, 1, 45, 127
2, 81080, Note_on_c, 1, 57, 127
2, 81080, Note_on_c, 1, 60, 127
2, 81080, Note_on_c, 1, 62, 127
2, 81400, Note_off_c, 1, 45, 0
2, 81400, Note_off_c, 1, 57, 0
2, 81400, Note_off_c, 1, 60, 0
2, 81400, Note_off_c, 1, 62, 0
2, 81440, Note_on_c, 1, 49, 127
2, 81440, Note_on_c, 1, 54, 127
2, 81440, Note_on_c, 1, 59, 127
2, 81440, Note_on_c, 1, 61, 127
2, 81440, Note_on_c, 1, 68, 127
2, 81760, Note_off_c, 1, 54, 0
2, 81800, Note_on_c, 1, 54, 127
2, 82000, Note_off_c, 1, 49, 0
2, 82000, Note_off_c, 1, 54, 0
2, 82000, Note_off_c, 1, 59, 0
2, 82000, Note_off_c, 1, 61, 0
2, 82000, Note_off_c, 1, 68, 0
2, 82040, Note_on_c, 1, 49, 127
2, 82040, Note_on_c, 1, 54, 127
2, 82040, Note_on_c, 1, 59, 127
2, 82040, Note_on_c, 1, 61, 127
2, 82040, Note_on_c, 1, 68, 127
2, 82160, Note_off_c, 1, 49, 0
2, 82160, Note_off_c, 1, 54, 0
2, 82160, Note_off_c, 1, 59, 0
2, 82160, Note_off_c, 1, 61, 0
2, 82160, Note_off_c, 1, 68, 0
2, 82200, Note_on_c, 1, 35, 127
2, 82200, Note_on_c, 1, 47, 127
2, 82200, Note_on_c, 1, 63, 127
2, 82200, Note_on_c, 1, 68, 127
2, 82200, Note_on_c, 1, 75, 127
2, 82880, Note_off_c, 1, 35, 0
2, 82880, Note_off_c, 1, 47, 0
2, 82880, Note_off_c, 1, 63, 0
2, 82880, Note_off_c, 1, 68, 0
2, 82880, Note_off_c, 1, 75, 0
2, 82920, Note_on_c, 1, 35, 127
2, 82920, Note_on_c, 1, 47, 127
2, 82920, Note_on_c, 1, 83, 127
2, 82920, Note_on_c, 1, 95, 127
2, 83280, Note_off_c, 1, 35, 0
2, 83280, Note_off_c, 1, 47, 0
2, 83280, Note_off_c, 1, 83, 0
2, 83280, Note_off_c, 1, 95, 0
2, 83320, Note_on_c, 1, 39, 127
2, 83320, Note_on_c, 1, 44, 127
2, 83320, Note_on_c, 1, 56, 127
2, 83560, Note_off_c, 1, 56, 0
2, 83600, Note_on_c, 1, 56, 127
2, 83640, Note_off_c, 1, 56, 0
2, 83680, Note_on_c, 1, 32, 127
2, 83680, Note_off_c, 1, 39, 0
2, 83680, Note_on_c, 1, 59, 127
2, 83680, Note_on_c, 1, 68, 127
2, 83840, Note_off_c, 1, 59, 0
2, 83840, Note_off_c, 1, 68, 0
2, 83880, Note_off_c, 1, 32, 0
2, 83880, Note_on_c, 1, 33, 127
2, 83880, Note_off_c, 1, 44, 0
2, 83880, Note_on_c, 1, 45, 127
2, 83880, Note_on_c, 1, 54, 127
2, 83880, Note_on_c, 1, 66, 127
2, 84040, Note_off_c, 1, 33, 0
2, 84040, Note_off_c, 1, 45, 0
2, 84040, Note_off_c, 1, 54, 0
2, 84040, Note_off_c, 1, 66, 0
2, 84120, Note_on_c, 1, 32, 127
2, 84120, Note_on_c, 1, 44, 127
2, 84120, Note_on_c, 1, 64, 127
2, 84120, Note_on_c, 1, 71, 127
2, 84120, Note_on_c, 1, 76, 127
2, 84400, Note_off_c, 1, 32, 0
2, 84400, Note_off_c, 1, 44, 0
2, 84400, Note_off_c, 1, 64, 0
2, 84400, Note_off_c, 1, 71, 0
2, 84400, Note_off_c, 1, 76, 0
2, 84440, Note_on_c, 1, 50, 127
2, 84440, Note_on_c, 1, 59, 127
2, 84440, Note_on_c, 1, 65, 127
2, 84440, Note_on_c, 1, 67, 127
2, 84440, Note_on_c, 1, 74, 127
2, 84480, Note_on_c, 1, 36, 127
2, 84480, Note_on_c, 1, 48, 127
2, 84480, Note_off_c, 1, 50, 0
2, 84480, Note_off_c, 1, 59, 0
2, 84480, Note_off_c, 1, 65, 0
2, 84480, Note_off_c, 1, 67, 0
2, 84480, Note_off_c, 1, 74, 0
2, 84480, Note_on_c, 1, 79, 127
2, 84480, Note_on_c, 1, 82, 127
2, 84480, Note_on_c, 1, 84, 127
2, 84480, Note_on_c, 1, 88, 127
2, 84520, Note_off_c, 1, 36, 0
2, 84520, Note_off_c, 1, 48, 0
2, 84520, Note_on_c, 1, 52, 127
2, 84520, Note_on_c, 1, 56, 127
2, 84520, Note_on_c, 1, 59, 127
2, 84520, Note_on_c, 1, 73, 127
2, 84520, Note_on_c, 1, 76, 127
2, 84520, Note_off_c, 1, 79, 0
2, 84520, Note_on_c, 1, 80, 127
2, 84520, Note_off_c, 1, 82, 0
2, 84520, Note_off_c, 1, 84, 0
2, 84520, Note_off_c, 1, 88, 0
2, 84560, Note_on_c, 1, 49, 127
2, 84560, Note_off_c, 1, 52, 0
2, 84560, Note_off_c, 1, 56, 0
2, 84560, Note_off_c, 1, 59, 0
2, 84560, Note_on_c, 1, 61, 127
2, 84560, Note_on_c, 1, 70, 127
2, 84560, Note_off_c, 1, 73, 0
2, 84560, Note_off_c, 1, 76, 0
2, 84560, Note_on_c, 1, 78, 127
2, 84560, Note_off_c, 1, 80, 0
2, 84560, Note_on_c, 1, 82, 127
2, 84600, Note_on_c, 1, 46, 127
2, 84600, Note_off_c, 1, 49, 0
2, 84600, Note_on_c, 1, 58, 127
2, 84600, Note_off_c, 1, 61, 0
2, 84600, Note_off_c, 1, 70, 0
2, 84600, Note_off_c, 1, 82, 0
2, 84600, Note_on_c, 1, 85, 127
2, 84600, Note_on_c, 1, 90, 127
2, 84640, Note_off_c, 1, 46, 0
2, 84640, Note_off_c, 1, 58, 0
2, 84640, Note_on_c, 1, 60, 127
2, 84640, Note_on_c, 1, 72, 127
2, 84640, Note_off_c, 1, 78, 0
2, 84640, Note_on_c, 1, 80, 127
2, 84640, Note_off_c, 1, 85, 0
2, 84640, Note_off_c, 1, 90, 0
2, 84640, Note_on_c, 1, 92, 127
2, 84680, Note_on_c, 1, 45, 127
2, 84680, Note_on_c, 1, 57, 127
2, 84680, Note_off_c, 1, 60, 0
2, 84680, Note_off_c, 1, 72, 0
2, 84680, Note_off_c, 1, 80, 0
2, 84680, Note_on_c, 1, 88, 127
2, 84680, Note_off_c, 1, 92, 0
2, 84680, Note_on_c, 1, 93, 127
2, 84680, Note_on_c, 1, 97, 127
2, 84680, Note_on_c, 1, 100, 127
2, 84720, Note_off_c, 1, 45, 0
2, 84720, Note_off_c, 1, 57, 0
2, 84720, Note_on_c, 1, 67, 127
2, 84720, Note_on_c, 1, 68, 127
2, 84720, Note_on_c, 1, 73, 127
2, 84720, Note_on_c, 1, 77, 127
2, 84720, Note_off_c, 1, 88, 0
2, 84720, Note_off_c, 1, 93, 0
2, 84720, Note_off_c, 1, 97, 0
2, 84720, Note_off_c, 1, 100, 0
2, 84760, Note_on_c, 1, 44, 127
2, 84760, Note_on_c, 1, 51, 127
2, 84760, Note_on_c, 1, 55, 127
2, 84760, Note_on_c, 1, 58, 127
2, 84760, Note_off_c, 1, 67, 0
2, 84760, Note_off_c, 1, 68, 0
2, 84760, Note_off_c, 1, 73, 0
2, 84760, Note_off_c, 1, 77, 0
2, 84800, Note_off_c, 1, 44, 0
2, 84800, Note_off_c, 1, 51, 0
2, 84800, Note_on_c, 1, 52, 127
2, 84800, Note_off_c, 1, 55, 0
2, 84800, Note_off_c, 1, 58, 0
2, 84800, Note_on_c, 1, 60, 127
2, 84800, Note_on_c, 1, 64, 127
2, 84800, Note_on_c, 1, 72, 127
2, 84800, Note_on_c, 1, 79, 127
2, 84840, Note_on_c, 1, 42, 127
2, 84840, Note_off_c, 1, 52, 0
2, 84840, Note_on_c, 1, 54, 127
2, 84840, Note_off_c, 1, 60, 0
2, 84840, Note_off_c, 1, 64, 0
2, 84840, Note_on_c, 1, 69, 127
2, 84840, Note_off_c, 1, 72, 0
2, 84840, Note_on_c, 1, 73, 127
2, 84840, Note_on_c, 1, 78, 127
2, 84840, Note_off_c, 1, 79, 0
2, 84840, Note_on_c, 1, 81, 127
2, 84880, Note_off_c, 1, 42, 0
2, 84880, Note_on_c, 1, 44, 127
2, 84880, Note_off_c, 1, 54, 0
2, 84880, Note_on_c, 1, 56, 127
2, 84880, Note_off_c, 1, 69, 0
2, 84880, Note_off_c, 1, 73, 0
2, 84880, Note_off_c, 1, 78, 0
2, 84880, Note_on_c, 1, 80, 127
2, 84880, Note_off_c, 1, 81, 0
2, 84880, Note_on_c, 1, 84, 127
2, 84920, Note_off_c, 1, 44, 0
2, 84920, Note_off_c, 1, 56, 0
2, 84920, Note_on_c, 1, 66, 127
2, 84920, Note_on_c, 1, 69, 127
2, 84920, Note_on_c, 1, 73, 127
2, 84920, Note_on_c, 1, 78, 127
2, 84920, Note_off_c, 1, 80, 0
2, 84920, Note_off_c, 1, 84, 0
2, 84920, Note_on_c, 1, 90, 127
2, 84920, Note_on_c, 1, 93, 127
2, 84920, Note_on_c, 1, 97, 127
2, 84920, Note_on_c, 1, 102, 127
2, 84960, Note_on_c, 1, 42, 127
2, 84960, Note_on_c, 1, 54, 127
2, 84960, Note_off_c, 1, 66, 0
2, 84960, Note_on_c, 1, 81, 127
2, 84960, Note_off_c, 1, 90, 0
2, 84960, Note_off_c, 1, 93, 0
2, 84960, Note_off_c, 1, 97, 0
2, 84960, Note_off_c, 1, 102, 0
2, 85000, Note_off_c, 1, 42, 0
2, 85000, Note_on_c, 1, 49, 127
2, 85000, Note_off_c, 1, 54, 0
2, 85000, Note_on_c, 1, 61, 127
2, 85000, Note_off_c, 1, 69, 0
2, 85000, Note_on_c, 1, 70, 127
2, 85000, Note_off_c, 1, 73, 0
2, 85000, Note_off_c, 1, 81, 0
2, 85000, Note_on_c, 1, 82, 127
2, 85120, Note_off_c, 1, 70, 0
2, 85120, Note_off_c, 1, 78, 0
2, 85120, Note_off_c, 1, 82, 0
2, 85160, Note_on_c, 1, 70, 127
2, 85160, Note_on_c, 1, 78, 127
2, 85160, Note_on_c, 1, 82, 127
2, 85280, Note_off_c, 1, 70, 0
2, 85280, Note_off_c, 1, 78, 0
2, 85280, Note_off_c, 1, 82, 0
2, 85520, Note_on_c, 1, 63, 127
2, 85560, Note_off_c, 1, 63, 0
2, 86200, Note_off_c, 1, 49, 0
2, 86200, Note_off_c, 1, 61, 0
2, 86240, Note_on_c, 1, 41, 127
2, 86240, Note_on_c, 1, 47, 127
2, 86240, Note_on_c, 1, 50, 127
2, 86240, Note_on_c, 1, 53, 127
2, 86240, Note_on_c, 1, 59, 127
2, 86240, Note_on_c, 1, 71, 127
2, 86280, Note_on_c, 1, 34, 127
2, 86280, Note_off_c, 1, 41, 0
2, 86280, Note_off_c, 1, 47, 0
2, 86280, Note_off_c, 1, 50, 0
2, 86280, Note_off_c, 1, 53, 0
2, 86280, Note_off_c, 1, 59, 0
2, 86280, Note_on_c, 1, 67, 127
2, 86280, Note_on_c, 1, 70, 127
2, 86280, Note_off_c, 1, 71, 0
2, 86280, Note_on_c, 1, 74, 127
2, 86320, Note_off_c, 1, 34, 0
2, 86320, Note_off_c, 1, 67, 0
2, 86320, Note_off_c, 1, 70, 0
2, 86320, Note_off_c, 1, 74, 0
2, 86360, Note_on_c, 1, 34, 127
2, 86360, Note_on_c, 1, 67, 127
2, 86360, Note_on_c, 1, 70, 127
2, 86360, Note_on_c, 1, 74, 127
2, 86600, Note_off_c, 1, 34, 0
2, 86600, Note_on_c, 1, 39, 127
2, 86600, Note_on_c, 1, 46, 127
2, 86600, Note_off_c, 1, 67, 0
2, 86600, Note_off_c, 1, 70, 0
2, 86600, Note_off_c, 1, 74, 0
2, 86640, Note_off_c, 1, 39, 0
2, 86640, Note_on_c, 1, 45, 127
2, 86640, Note_off_c, 1, 46, 0
2, 86640, Note_on_c, 1, 55, 127
2, 86640, Note_on_c, 1, 60, 127
2, 86640, Note_on_c, 1, 69, 127
2, 86960, Note_off_c, 1, 45, 0
2, 86960, Note_off_c, 1, 55, 0
2, 86960, Note_off_c, 1, 60, 0
2, 86960, Note_off_c, 1, 69, 0
2, 87000, Note_on_c, 1, 67, 127
2, 87000, Note_on_c, 1, 72, 127
2, 87000, Note_on_c, 1, 76, 127
2, 87000, Note_on_c, 1, 88, 127
2, 87000, Note_on_c, 1, 96, 127
2, 87000, Note_on_c, 1, 100, 127
2, 87040, Note_on_c, 1, 45, 127
2, 87040, Note_on_c, 1, 52, 127
2, 87040, Note_on_c, 1, 57, 127
2, 87040, Note_off_c, 1, 67, 0
2, 87040, Note_off_c, 1, 72, 0
2, 87040, Note_on_c, 1, 73, 127
2, 87040, Note_on_c, 1, 85, 127
2, 87040, Note_off_c, 1, 88, 0
2, 87040, Note_off_c, 1, 96, 0
2, 87040, Note_off_c, 1, 100, 0
2, 87640, Note_off_c, 1, 45, 0
2, 87640, Note_off_c, 1, 52, 0
2, 87640, Note_off_c, 1, 57, 0
2, 87640, Note_off_c, 1, 73, 0
2, 87640, Note_off_c, 1, 76, 0
2, 87640, Note_off_c, 1, 85, 0
2, 87720, Note_on_c, 1, 45, 127
2, 87720, Note_on_c, 1, 52, 127
2, 87720, Note_on_c, 1, 57, 127
2, 87720, Note_on_c, 1, 73, 127
2, 87720, Note_on_c, 1, 76, 127
2, 87720, Note_on_c, 1, 85, 127
2, 88400, Note_off_c, 1, 45, 0
2, 88400, Note_off_c, 1, 52, 0
2, 88400, Note_off_c, 1, 57, 0
2, 88400, Note_off_c, 1, 73, 0
2, 88400, Note_off_c, 1, 76, 0
2, 88400, Note_off_c, 1, 85, 0
2, 88480, Note_on_c, 1, 63, 127
2, 88480, Note_on_c, 1, 64, 127
2, 88480, Note_on_c, 1, 68, 127
2, 88480, Note_on_c, 1, 71, 127
2, 88480, Note_on_c, 1, 75, 127
2, 88520, Note_on_c, 1, 36, 127
2, 88520, Note_on_c, 1, 48, 127
2, 88520, Note_on_c, 1, 58, 127
2, 88520, Note_off_c, 1, 64, 0
2, 88520, Note_off_c, 1, 68, 0
2, 88520, Note_on_c, 1, 69, 127
2, 88520, Note_off_c, 1, 71, 0
2, 88520, Note_off_c, 1, 75, 0
2, 88560, Note_on_c, 1, 33, 127
2, 88560, Note_off_c, 1, 36, 0
2, 88560, Note_off_c, 1, 48, 0
2, 88560, Note_on_c, 1, 52, 127
2, 88560, Note_on_c, 1, 57, 127
2, 88560, Note_off_c, 1, 58, 0
2, 88560, Note_on_c, 1, 61, 127
2, 88560, Note_off_c, 1, 63, 0
2, 88560, Note_on_c, 1, 64, 127
2, 88600, Note_off_c, 1, 33, 0
2, 88600, Note_on_c, 1, 45, 127
2, 88600, Note_on_c, 1, 55, 127
2, 88600, Note_off_c, 1, 57, 0
2, 88600, Note_off_c, 1, 61, 0
2, 88600, Note_on_c, 1, 76, 127
2, 88640, Note_off_c, 1, 45, 0
2, 88640, Note_off_c, 1, 52, 0
2, 88640, Note_off_c, 1, 55, 0
2, 88640, Note_on_c, 1, 63, 127
2, 88640, Note_off_c, 1, 69, 0
2, 88640, Note_on_c, 1, 71, 127
2, 88640, Note_off_c, 1, 76, 0
2, 88680, Note_on_c, 1, 47, 127
2, 88680, Note_on_c, 1, 54, 127
2, 88680, Note_on_c, 1, 57, 127
2, 88680, Note_on_c, 1, 60, 127
2, 88680, Note_off_c, 1, 63, 0
2, 88680, Note_off_c, 1, 64, 0
2, 88680, Note_off_c, 1, 71, 0
2, 88680, Note_on_c, 1, 75, 127
2, 88720, Note_off_c, 1, 47, 0
2, 88720, Note_on_c, 1, 55, 127
2, 88720, Note_off_c, 1, 57, 0
2, 88720, Note_on_c, 1, 59, 127
2, 88720, Note_off_c, 1, 60, 0
2, 88720, Note_off_c, 1, 75, 0
2, 88760, Note_off_c, 1, 54, 0
2, 88760, Note_off_c, 1, 55, 0
2, 88760, Note_off_c, 1, 59, 0
2, 88760, Note_on_c, 1, 68, 127
2, 88760, Note_on_c, 1, 71, 127
2, 88760, Note_on_c, 1, 76, 127
2, 88760, Note_on_c, 1, 80, 127
2, 88760, Note_on_c, 1, 88, 127
2, 88800, Note_off_c, 1, 68, 0
2, 88800, Note_off_c, 1, 71, 0
2, 88800, Note_off_c, 1, 76, 0
2, 88800, Note_off_c, 1, 80, 0
2, 88800, Note_off_c, 1, 88, 0
2, 88840, Note_on_c, 1, 56, 127
2, 88840, Note_on_c, 1, 63, 127
2, 88840, Note_on_c, 1, 68, 127
2, 88840, Note_on_c, 1, 71, 127
2, 88840, Note_on_c, 1, 80, 127
2, 88840, Note_on_c, 1, 87, 127
2, 88880, Note_on_c, 1, 50, 127
2, 88880, Note_off_c, 1, 56, 0
2, 88880, Note_on_c, 1, 57, 127
2, 88880, Note_off_c, 1, 63, 0
2, 88880, Note_on_c, 1, 65, 127
2, 88880, Note_off_c, 1, 68, 0
2, 88880, Note_off_c, 1, 71, 0
2, 88880, Note_on_c, 1, 74, 127
2, 88880, Note_on_c, 1, 77, 127
2, 88880, Note_off_c, 1, 80, 0
2, 88880, Note_on_c, 1, 81, 127
2, 88880, Note_on_c, 1, 86, 127
2, 88880, Note_off_c, 1, 87, 0
2, 88920, Note_off_c, 1, 50, 0
2, 88920, Note_on_c, 1, 56, 127
2, 88920, Note_off_c, 1, 57, 0
2, 88920, Note_on_c, 1, 63, 127
2, 88920, Note_off_c, 1, 65, 0
2, 88920, Note_on_c, 1, 68, 127
2, 88920, Note_on_c, 1, 71, 127
2, 88920, Note_off_c, 1, 74, 0
2, 88920, Note_off_c, 1, 77, 0
2, 88920, Note_on_c, 1, 80, 127
2, 88920, Note_off_c, 1, 81, 0
2, 88920, Note_off_c, 1, 86, 0
2, 88920, Note_on_c, 1, 87, 127
2, 89000, Note_on_c, 1, 54, 127
2, 89000, Note_off_c, 1, 56, 0
2, 89000, Note_on_c, 1, 59, 127
2, 89000, Note_on_c, 1, 66, 127
2, 89000, Note_off_c, 1, 68, 0
2, 89000, Note_off_c, 1, 71, 0
2, 89000, Note_on_c, 1, 75, 127
2, 89000, Note_on_c, 1, 78, 127
2, 89000, Note_off_c, 1, 80, 0
2, 89000, Note_off_c, 1, 87, 0
2, 89040, Note_off_c, 1, 54, 0
2, 89040, Note_on_c, 1, 56, 127
2, 89040, Note_off_c, 1, 59, 0
2, 89040, Note_off_c, 1, 66, 0
2, 89040, Note_on_c, 1, 68, 127
2, 89040, Note_on_c, 1, 71, 127
2, 89040, Note_off_c, 1, 75, 0
2, 89040, Note_off_c, 1, 78, 0
2, 89040, Note_on_c, 1, 80, 127
2, 89040, Note_on_c, 1, 87, 127
2, 89120, Note_on_c, 1, 47, 127
2, 89120, Note_on_c, 1, 54, 127
2, 89120, Note_off_c, 1, 56, 0
2, 89120, Note_off_c, 1, 63, 0
2, 89120, Note_off_c, 1, 68, 0
2, 89120, Note_off_c, 1, 71, 0
2, 89120, Note_off_c, 1, 80, 0
2, 89120, Note_off_c, 1, 87, 0
2, 89160, Note_off_c, 1, 47, 0
2, 89160, Note_on_c, 1, 52, 127
2, 89160, Note_off_c, 1, 54, 0
2, 89160, Note_on_c, 1, 62, 127
2, 89160, Note_on_c, 1, 74, 127
2, 89160, Note_on_c, 1, 95, 127
2, 89440, Note_on_c, 1, 38, 127
2, 89440, Note_on_c, 1, 42, 127
2, 89440, Note_on_c, 1, 50, 127
2, 89440, Note_off_c, 1, 52, 0
2, 89440, Note_off_c, 1, 62, 0
2, 89440, Note_off_c, 1, 74, 0
2, 89440, Note_on_c, 1, 78, 127
2, 89440, Note_on_c, 1, 90, 127
2, 89440, Note_off_c, 1, 95, 0
2, 89480, Note_off_c, 1, 38, 0
2, 89480, Note_off_c, 1, 42, 0
2, 89480, Note_on_c, 1, 44, 127
2, 89480, Note_off_c, 1, 50, 0
2, 89480, Note_on_c, 1, 52, 127
2, 89480, Note_on_c, 1, 59, 127
2, 89480, Note_off_c, 1, 78, 0
2, 89480, Note_off_c, 1, 90, 0
2, 89520, Note_off_c, 1, 44, 0
2, 89520, Note_off_c, 1, 52, 0
2, 89520, Note_off_c, 1, 59, 0
2, 89520, Note_on_c, 1, 61, 127
2, 89520, Note_on_c, 1, 64, 127
2, 89520, Note_on_c, 1, 67, 127
2, 89520, Note_on_c, 1, 69, 127
2, 89520, Note_on_c, 1, 88, 127
2, 89520, Note_on_c, 1, 91, 127
2, 89560, Note_on_c, 1, 44, 127
2, 89560, Note_on_c, 1, 51, 127
2, 89560, Note_off_c, 1, 61, 0
2, 89560, Note_off_c, 1, 64, 0
2, 89560, Note_off_c, 1, 67, 0
2, 89560, Note_off_c, 1, 69, 0
2, 89560, Note_off_c, 1, 88, 0
2, 89560, Note_on_c, 1, 89, 127
2, 89560, Note_off_c, 1, 91, 0
2, 89800, Note_off_c, 1, 44, 0
2, 89800, Note_off_c, 1, 51, 0
2, 89800, Note_off_c, 1, 89, 0
2, 89880, Note_on_c, 1, 58, 127
2, 89880, Note_on_c, 1, 76, 127
2, 89880, Note_on_c, 1, 79, 127
2, 89880, Note_on_c, 1, 87, 127
2, 89920, Note_on_c, 1, 55, 127
2, 89920, Note_on_c, 1, 70, 127
2, 89920, Note_on_c, 1, 73, 127
2, 89920, Note_off_c, 1, 76, 0
2, 89920, Note_off_c, 1, 79, 0
2, 89920, Note_on_c, 1, 82, 127
2, 89920, Note_off_c, 1, 87, 0
2, 89960, Note_off_c, 1, 55, 0
2, 89960, Note_off_c, 1, 58, 0
2, 89960, Note_on_c, 1, 66, 127
2, 89960, Note_off_c, 1, 70, 0
2, 89960, Note_off_c, 1, 73, 0
2, 89960, Note_on_c, 1, 74, 127
2, 89960, Note_on_c, 1, 78, 127
2, 89960, Note_on_c, 1, 86, 127
2, 90000, Note_on_c, 1, 47, 127
2, 90000, Note_on_c, 1, 51, 127
2, 90000, Note_on_c, 1, 56, 127
2, 90000, Note_off_c, 1, 66, 0
2, 90000, Note_off_c, 1, 74, 0
2, 90000, Note_on_c, 1, 75, 127
2, 90000, Note_off_c, 1, 78, 0
2, 90000, Note_off_c, 1, 82, 0
2, 90000, Note_off_c, 1, 86, 0
2, 90000, Note_on_c, 1, 87, 127
2, 90040, Note_off_c, 1, 47, 0
2, 90040, Note_off_c, 1, 51, 0
2, 90040, Note_on_c, 1, 53, 127
2, 90040, Note_on_c, 1, 55, 127
2, 90040, Note_off_c, 1, 56, 0
2, 90040, Note_on_c, 1, 58, 127
2, 90040, Note_off_c, 1, 75, 0
2, 90040, Note_on_c, 1, 79, 127
2, 90040, Note_off_c, 1, 87, 0
2, 90080, Note_on_c, 1, 42, 127
2, 90080, Note_off_c, 1, 53, 0
2, 90080, Note_on_c, 1, 54, 127
2, 90080, Note_off_c, 1, 55, 0
2, 90080, Note_off_c, 1, 58, 0
2, 90080, Note_off_c, 1, 79, 0
2, 90080, Note_on_c, 1, 92, 127
2, 90080, Note_on_c, 1, 93, 127
2, 90120, Note_on_c, 1, 29, 127
2, 90120, Note_off_c, 1, 42, 0
2, 90120, Note_off_c, 1, 54, 0
2, 90120, Note_on_c, 1, 57, 127
2, 90120, Note_on_c, 1, 60, 127
2, 90120, Note_on_c, 1, 69, 127
2, 90120, Note_off_c, 1, 92, 0
2, 90120, Note_off_c, 1, 93, 0
2, 90160, Note_off_c, 1, 29, 0
2, 90160, Note_off_c, 1, 57, 0
2, 90160, Note_off_c, 1, 60, 0
2, 90160, Note_off_c, 1, 69, 0
2, 90160, Note_on_c, 1, 89, 127
2, 90160, Note_on_c, 1, 91, 127
2, 90200, Note_on_c, 1, 61, 127
2, 90200, Note_on_c, 1, 71, 127
2, 90200, Note_on_c, 1, 76, 127
2, 90200, Note_on_c, 1, 83, 127
2, 90200, Note_off_c, 1, 89, 0
2, 90200, Note_off_c, 1, 91, 0
2, 90240, Note_on_c, 1, 44, 127
2, 90240, Note_on_c, 1, 48, 127
2, 90240, Note_on_c, 1, 56, 127
2, 90240, Note_off_c, 1, 61, 0
2, 90240, Note_off_c, 1, 71, 0
2, 90240, Note_off_c, 1, 76, 0
2, 90240, Note_off_c, 1, 83, 0
2, 90240, Note_on_c, 1, 84, 127
2, 90240, Note_on_c, 1, 96, 127
2, 90280, Note_off_c, 1, 44, 0
2, 90280, Note_off_c, 1, 48, 0
2, 90280, Note_off_c, 1, 56, 0
2, 90280, Note_on_c, 1, 60, 127
2, 90280, Note_on_c, 1, 63, 127
2, 90280, Note_on_c, 1, 66, 127
2, 90280, Note_on_c, 1, 74, 127
2, 90280, Note_on_c, 1, 78, 127
2, 90280, Note_off_c, 1, 84, 0
2, 90280, Note_off_c, 1, 96, 0
2, 90320, Note_on_c, 1, 44, 127
2, 90320, Note_on_c, 1, 48, 127
2, 90320, Note_on_c, 1, 56, 127
2, 90320, Note_off_c, 1, 60, 0
2, 90320, Note_off_c, 1, 63, 0
2, 90320, Note_off_c, 1, 66, 0
2, 90320, Note_off_c, 1, 74, 0
2, 90320, Note_off_c, 1, 78, 0
2, 90320, Note_on_c, 1, 84, 127
2, 90320, Note_on_c, 1, 96, 127
2, 90600, Note_off_c, 1, 44, 0
2, 90600, Note_off_c, 1, 48, 0
2, 90600, Note_off_c, 1, 56, 0
2, 90600, Note_off_c, 1, 84, 0
2, 90600, Note_off_c, 1, 96, 0
2, 90640, Note_on_c, 1, 44, 127
2, 90640, Note_on_c, 1, 48, 127
2, 90640, Note_on_c, 1, 56, 127
2, 90640, Note_on_c, 1, 84, 127
2, 90640, Note_on_c, 1, 96, 127
2, 90920, Note_off_c, 1, 44, 0
2, 90920, Note_off_c, 1, 48, 0
2, 90920, Note_off_c, 1, 56, 0
2, 90920, Note_off_c, 1, 84, 0
2, 90920, Note_off_c, 1, 96, 0
2, 90960, Note_on_c, 1, 47, 127
2, 90960, Note_on_c, 1, 80, 127
2, 90960, Note_on_c, 1, 83, 127
2, 90960, Note_on_c, 1, 87, 127
2, 90960, Note_on_c, 1, 92, 127
2, 91000, Note_off_c, 1, 47, 0
2, 91000, Note_on_c, 1, 59, 127
2, 91000, Note_on_c, 1, 75, 127
2, 91000, Note_on_c, 1, 79, 127
2, 91000, Note_off_c, 1, 80, 0
2, 91000, Note_off_c, 1, 92, 0
2, 91040, Note_off_c, 1, 59, 0
2, 91040, Note_on_c, 1, 68, 127
2, 91040, Note_off_c, 1, 75, 0
2, 91040, Note_on_c, 1, 76, 127
2, 91040, Note_off_c, 1, 79, 0
2, 91040, Note_on_c, 1, 81, 127
2, 91040, Note_off_c, 1, 83, 0
2, 91040, Note_on_c, 1, 85, 127
2, 91040, Note_off_c, 1, 87, 0
2, 91040, Note_on_c, 1, 88, 127
2, 91080, Note_on_c, 1, 62, 127
2, 91080, Note_on_c, 1, 67, 127
2, 91080, Note_off_c, 1, 68, 0
2, 91080, Note_on_c, 1, 70, 127
2, 91080, Note_off_c, 1, 76, 0
2, 91080, Note_off_c, 1, 81, 0
2, 91080, Note_off_c, 1, 85, 0
2, 91080, Note_off_c, 1, 88, 0
2, 91080, Note_on_c, 1, 91, 127
2, 91120, Note_off_c, 1, 62, 0
2, 91120, Note_on_c, 1, 65, 127
2, 91120, Note_off_c, 1, 67, 0
2, 91120, Note_off_c, 1, 70, 0
2, 91120, Note_on_c, 1, 77, 127
2, 91120, Note_on_c, 1, 81, 127
2, 91120, Note_on_c, 1, 85, 127
2, 91120, Note_off_c, 1, 91, 0
2, 91160, Note_on_c, 1, 47, 127
2, 91160, Note_off_c, 1, 65, 0
2, 91160, Note_off_c, 1, 77, 0
2, 91160, Note_on_c, 1, 80, 127
2, 91160, Note_off_c, 1, 81, 0
2, 91160, Note_on_c, 1, 83, 127
2, 91160, Note_off_c, 1, 85, 0
2, 91160, Note_on_c, 1, 87, 127
2, 91160, Note_on_c, 1, 92, 127
2, 91200, Note_off_c, 1, 47, 0
2, 91200, Note_on_c, 1, 51, 127
2, 91200, Note_on_c, 1, 56, 127
2, 91200, Note_on_c, 1, 66, 127
2, 91200, Note_on_c, 1, 72, 127
2, 91200, Note_on_c, 1, 78, 127
2, 91200, Note_off_c, 1, 80, 0
2, 91200, Note_off_c, 1, 83, 0
2, 91200, Note_off_c, 1, 87, 0
2, 91200, Note_off_c, 1, 92, 0
2, 91240, Note_on_c, 1, 47, 127
2, 91240, Note_off_c, 1, 51, 0
2, 91240, Note_off_c, 1, 56, 0
2, 91240, Note_off_c, 1, 66, 0
2, 91240, Note_off_c, 1, 72, 0
2, 91240, Note_off_c, 1, 78, 0
2, 91240, Note_on_c, 1, 80, 127
2, 91240, Note_on_c, 1, 83, 127
2, 91240, Note_on_c, 1, 87, 127
2, 91240, Note_on_c, 1, 92, 127
2, 91280, Note_off_c, 1, 47, 0
2, 91280, Note_on_c, 1, 73, 127
2, 91280, Note_off_c, 1, 80, 0
2, 91280, Note_on_c, 1, 81, 127
2, 91280, Note_off_c, 1, 83, 0
2, 91280, Note_on_c, 1, 85, 127
2, 91280, Note_off_c, 1, 87, 0
2, 91280, Note_off_c, 1, 92, 0
2, 91320, Note_on_c, 1, 48, 127
2, 91320, Note_on_c, 1, 55, 127
2, 91320, Note_on_c, 1, 60, 127
2, 91320, Note_off_c, 1, 73, 0
2, 91320, Note_on_c, 1, 77, 127
2, 91320, Note_off_c, 1, 81, 0
2, 91320, Note_off_c, 1, 85, 0
2, 91320, Note_on_c, 1, 89, 127
2, 91360, Note_off_c, 1, 48, 0
2, 91360, Note_on_c, 1, 51, 127
2, 91360, Note_off_c, 1, 55, 0
2, 91360, Note_on_c, 1, 58, 127
2, 91360, Note_on_c, 1, 63, 127
2, 91360, Note_on_c, 1, 67, 127
2, 91360, Note_off_c, 1, 77, 0
2, 91360, Note_on_c, 1, 82, 127
2, 91360, Note_off_c, 1, 89, 0
2, 91400, Note_on_c, 1, 48, 127
2, 91400, Note_off_c, 1, 51, 0
2, 91400, Note_on_c, 1, 55, 127
2, 91400, Note_off_c, 1, 58, 0
2, 91400, Note_off_c, 1, 60, 0
2, 91400, Note_off_c, 1, 67, 0
2, 91400, Note_on_c, 1, 72, 127
2, 91400, Note_on_c, 1, 74, 127
2, 91400, Note_on_c, 1, 79, 127
2, 91400, Note_off_c, 1, 82, 0
2, 91440, Note_on_c, 1, 44, 127
2, 91440, Note_off_c, 1, 48, 0
2, 91440, Note_off_c, 1, 55, 0
2, 91440, Note_on_c, 1, 56, 127
2, 91440, Note_off_c, 1, 63, 0
2, 91440, Note_off_c, 1, 72, 0
2, 91440, Note_off_c, 1, 74, 0
2, 91440, Note_on_c, 1, 76, 127
2, 91440, Note_off_c, 1, 79, 0
2, 91440, Note_on_c, 1, 88, 127
2, 91440, Note_on_c, 1, 100, 127
2, 91480, Note_off_c, 1, 44, 0
2, 91480, Note_on_c, 1, 49, 127
2, 91480, Note_off_c, 1, 56, 0
2, 91480, Note_on_c, 1, 57, 127
2, 91480, Note_on_c, 1, 61, 127
2, 91480, Note_on_c, 1, 63, 127
2, 91480, Note_on_c, 1, 66, 127
2, 91480, Note_off_c, 1, 76, 0
2, 91480, Note_off_c, 1, 88, 0
2, 91480, Note_off_c, 1, 100, 0
2, 91520, Note_off_c, 1, 49, 0
2, 91520, Note_on_c, 1, 52, 127
2, 91520, Note_off_c, 1, 57, 0
2, 91520, Note_on_c, 1, 58, 127
2, 91520, Note_off_c, 1, 63, 0
2, 91520, Note_on_c, 1, 64, 127
2, 91520, Note_on_c, 1, 73, 127
2, 91560, Note_on_c, 1, 47, 127
2, 91560, Note_off_c, 1, 58, 0
2, 91560, Note_off_c, 1, 61, 0
2, 91560, Note_off_c, 1, 64, 0
2, 91560, Note_off_c, 1, 66, 0
2, 91560, Note_off_c, 1, 73, 0
2, 91560, Note_on_c, 1, 76, 127
2, 91560, Note_on_c, 1, 78, 127
2, 91560, Note_on_c, 1, 84, 127
2, 91560, Note_on_c, 1, 88, 127
2, 91600, Note_on_c, 1, 37, 127
2, 91600, Note_off_c, 1, 47, 0
2, 91600, Note_off_c, 1, 52, 0
2, 91600, Note_on_c, 1, 71, 127
2, 91600, Note_on_c, 1, 74, 127
2, 91600, Note_off_c, 1, 76, 0
2, 91600, Note_on_c, 1, 83, 127
2, 91600, Note_off_c, 1, 84, 0
2, 91600, Note_off_c, 1, 88, 0
2, 91640, Note_off_c, 1, 37, 0
2, 91640, Note_off_c, 1, 71, 0
2, 91640, Note_off_c, 1, 74, 0
2, 91640, Note_off_c, 1, 78, 0
2, 91640, Note_off_c, 1, 83, 0
2, 91680, Note_on_c, 1, 29, 127
2, 91680, Note_on_c, 1, 41, 127
2, 91680, Note_on_c, 1, 45, 127
2, 91680, Note_on_c, 1, 48, 127
2, 91680, Note_on_c, 1, 53, 127
2, 91680, Note_on_c, 1, 57, 127
2, 91680, Note_on_c, 1, 72, 127
2, 91680, Note_on_c, 1, 84, 127
2, 92000, Note_off_c, 1, 29, 0
2, 92000, Note_off_c, 1, 41, 0
2, 92000, Note_off_c, 1, 45, 0
2, 92000, Note_off_c, 1, 48, 0
2, 92000, Note_off_c, 1, 53, 0
2, 92000, Note_off_c, 1, 57, 0
2, 92000, Note_off_c, 1, 72, 0
2, 92000, Note_off_c, 1, 84, 0
2, 92040, Note_on_c, 1, 43, 127
2, 92040, Note_on_c, 1, 47, 127
2, 92040, Note_on_c, 1, 52, 127
2, 92040, Note_on_c, 1, 59, 127
2, 92040, Note_on_c, 1, 64, 127
2, 92040, Note_on_c, 1, 71, 127
2, 92280, Note_off_c, 1, 47, 0
2, 92280, Note_off_c, 1, 59, 0
2, 92320, Note_on_c, 1, 47, 127
2, 92320, Note_on_c, 1, 59, 127
2, 92360, Note_off_c, 1, 43, 0
2, 92360, Note_off_c, 1, 47, 0
2, 92360, Note_off_c, 1, 52, 0
2, 92360, Note_off_c, 1, 59, 0
2, 92360, Note_off_c, 1, 64, 0
2, 92360, Note_on_c, 1, 69, 127
2, 92360, Note_off_c, 1, 71, 0
2, 92360, Note_on_c, 1, 75, 127
2, 92360, Note_on_c, 1, 78, 127
2, 92360, Note_on_c, 1, 87, 127
2, 92360, Note_on_c, 1, 90, 127
2, 92400, Note_on_c, 1, 36, 127
2, 92400, Note_on_c, 1, 39, 127
2, 92400, Note_on_c, 1, 44, 127
2, 92400, Note_on_c, 1, 48, 127
2, 92400, Note_on_c, 1, 60, 127
2, 92400, Note_on_c, 1, 63, 127
2, 92400, Note_on_c, 1, 68, 127
2, 92400, Note_off_c, 1, 69, 0
2, 92400, Note_on_c, 1, 72, 127
2, 92400, Note_off_c, 1, 75, 0
2, 92400, Note_off_c, 1, 78, 0
2, 92400, Note_off_c, 1, 87, 0
2, 92400, Note_off_c, 1, 90, 0
2, 92720, Note_off_c, 1, 36, 0
2, 92720, Note_off_c, 1, 39, 0
2, 92720, Note_off_c, 1, 44, 0
2, 92720, Note_off_c, 1, 48, 0
2, 92720, Note_off_c, 1, 60, 0
2, 92720, Note_off_c, 1, 63, 0
2, 92720, Note_off_c, 1, 68, 0
2, 92720, Note_off_c, 1, 72, 0
2, 92800, Note_on_c, 1, 46, 127
2, 92800, Note_on_c, 1, 63, 127
2, 92800, Note_on_c, 1, 66, 127
2, 92800, Note_on_c, 1, 70, 127
2, 93120, Note_off_c, 1, 46, 0
2, 93120, Note_on_c, 1, 58, 127
2, 93160, Note_on_c, 1, 45, 127
2, 93160, Note_off_c, 1, 58, 0
2, 93160, Note_on_c, 1, 62, 127
2, 93160, Note_off_c, 1, 63, 0
2, 93160, Note_on_c, 1, 65, 127
2, 93160, Note_off_c, 1, 66, 0
2, 93160, Note_on_c, 1, 69, 127
2, 93160, Note_off_c, 1, 70, 0
2, 93480, Note_off_c, 1, 45, 0
2, 93480, Note_off_c, 1, 62, 0
2, 93480, Note_off_c, 1, 65, 0
2, 93480, Note_off_c, 1, 69, 0
2, 93520, Note_on_c, 1, 37, 127
2, 93520, Note_on_c, 1, 49, 127
2, 93520, Note_on_c, 1, 61, 127
2, 93520, Note_on_c, 1, 65, 127
2, 93520, Note_on_c, 1, 68, 127
2, 93520, Note_on_c, 1, 71, 127
2, 93640, Note_off_c, 1, 37, 0
2, 93640, Note_off_c, 1, 49, 0
2, 93680, Note_on_c, 1, 37, 127
2, 93680, Note_on_c, 1, 49, 127
2, 93760, Note_off_c, 1, 37, 0
2, 93760, Note_off_c, 1, 49, 0
2, 93800, Note_on_c, 1, 33, 127
2, 93800, Note_on_c, 1, 53, 127
2, 93800, Note_on_c, 1, 56, 127
2, 93800, Note_on_c, 1, 59, 127
2, 93800, Note_off_c, 1, 61, 0
2, 93800, Note_off_c, 1, 65, 0
2, 93800, Note_off_c, 1, 68, 0
2, 93800, Note_off_c, 1, 71, 0
2, 93840, Note_off_c, 1, 33, 0
2, 93840, Note_off_c, 1, 53, 0
2, 93840, Note_off_c, 1, 56, 0
2, 93840, Note_off_c, 1, 59, 0
2, 93880, Note_on_c, 1, 38, 127
2, 93880, Note_on_c, 1, 67, 127
2, 93880, Note_on_c, 1, 70, 127
2, 93880, Note_on_c, 1, 79, 127
2, 94360, Note_off_c, 1, 38, 0
2, 94360, Note_on_c, 1, 50, 127
2, 94360, Note_off_c, 1, 79, 0
2, 94400, Note_off_c, 1, 50, 0
2, 94400, Note_on_c, 1, 57, 127
2, 94400, Note_on_c, 1, 64, 127
2, 94400, Note_off_c, 1, 67, 0
2, 94400, Note_on_c, 1, 69, 127
2, 94400, Note_off_c, 1, 70, 0
2, 94400, Note_on_c, 1, 72, 127
2, 94400, Note_on_c, 1, 78, 127
2, 94440, Note_on_c, 1, 53, 127
2, 94440, Note_off_c, 1, 57, 0
2, 94440, Note_on_c, 1, 58, 127
2, 94440, Note_off_c, 1, 64, 0
2, 94440, Note_on_c, 1, 67, 127
2, 94440, Note_off_c, 1, 69, 0
2, 94440, Note_off_c, 1, 72, 0
2, 94440, Note_off_c, 1, 78, 0
2, 94440, Note_on_c, 1, 85, 127
2, 94480, Note_on_c, 1, 49, 127
2, 94480, Note_off_c, 1, 53, 0
2, 94480, Note_on_c, 1, 56, 127
2, 94480, Note_off_c, 1, 58, 0
2, 94480, Note_on_c, 1, 66, 127
2, 94480, Note_off_c, 1, 67, 0
2, 94480, Note_on_c, 1, 72, 127
2, 94480, Note_on_c, 1, 77, 127
2, 94480, Note_off_c, 1, 85, 0
2, 94520, Note_off_c, 1, 49, 0
2, 94520, Note_off_c, 1, 56, 0
2, 94520, Note_off_c, 1, 66, 0
2, 94520, Note_off_c, 1, 72, 0
2, 94520, Note_off_c, 1, 77, 0
2, 94560, Note_on_c, 1, 36, 127
2, 94560, Note_on_c, 1, 39, 127
2, 94560, Note_on_c, 1, 51, 127
2, 94560, Note_on_c, 1, 54, 127
2, 94560, Note_on_c, 1, 57, 127
2, 94560, Note_on_c, 1, 60, 127
2, 94600, Note_off_c, 1, 36, 0
2, 94600, Note_on_c, 1, 38, 127
2, 94600, Note_off_c, 1, 39, 0
2, 94600, Note_on_c, 1, 45, 127
2, 94600, Note_off_c, 1, 51, 0
2, 94600, Note_off_c, 1, 54, 0
2, 94600, Note_off_c, 1, 57, 0
2, 94600, Note_off_c, 1, 60, 0
2, 94600, Note_on_c, 1, 66, 127
2, 94600, Note_on_c, 1, 72, 127
2, 94640, Note_off_c, 1, 38, 0
2, 94640, Note_off_c, 1, 45, 0
2, 94640, Note_off_c, 1, 66, 0
2, 94640, Note_off_c, 1, 72, 0
2, 94680, Note_on_c, 1, 48, 127
2, 94680, Note_on_c, 1, 70, 127
2, 94680, Note_on_c, 1, 74, 127
2, 94680, Note_on_c, 1, 76, 127
2, 94680, Note_on_c, 1, 79, 127
2, 94720, Note_on_c, 1, 45, 127
2, 94720, Note_off_c, 1, 48, 0
2, 94720, Note_on_c, 1, 57, 127
2, 94720, Note_on_c, 1, 66, 127
2, 94720, Note_on_c, 1, 69, 127
2, 94720, Note_off_c, 1, 70, 0
2, 94720, Note_off_c, 1, 76, 0
2, 94720, Note_off_c, 1, 79, 0
2, 94760, Note_off_c, 1, 45, 0
2, 94760, Note_off_c, 1, 57, 0
2, 94760, Note_on_c, 1, 58, 127
2, 94760, Note_on_c, 1, 65, 127
2, 94760, Note_off_c, 1, 66, 0
2, 94760, Note_on_c, 1, 67, 127
2, 94760, Note_off_c, 1, 69, 0
2, 94760, Note_off_c, 1, 74, 0
2, 94760, Note_on_c, 1, 85, 127
2, 94920, Note_off_c, 1, 58, 0
2, 94920, Note_off_c, 1, 65, 0
2, 94920, Note_off_c, 1, 67, 0
2, 94920, Note_off_c, 1, 85, 0
2, 94960, Note_on_c, 1, 58, 127
2, 94960, Note_on_c, 1, 65, 127
2, 94960, Note_on_c, 1, 67, 127
2, 94960, Note_on_c, 1, 85, 127
2, 95280, Note_off_c, 1, 58, 0
2, 95280, Note_off_c, 1, 65, 0
2, 95280, Note_on_c, 1, 66, 127
2, 95280, Note_off_c, 1, 67, 0
2, 95280, Note_on_c, 1, 69, 127
2, 95280, Note_on_c, 1, 72, 127
2, 95280, Note_off_c, 1, 85, 0
2, 95320, Note_on_c, 1, 58, 127
2, 95320, Note_on_c, 1, 65, 127
2, 95320, Note_off_c, 1, 66, 0
2, 95320, Note_on_c, 1, 67, 127
2, 95320, Note_off_c, 1, 69, 0
2, 95320, Note_off_c, 1, 72, 0
2, 95320, Note_on_c, 1, 85, 127
2, 95640, Note_off_c, 1, 85, 0
2, 95680, Note_off_c, 1, 58, 0
2, 95680, Note_on_c, 1, 63, 127
2, 95680, Note_off_c, 1, 67, 0
2, 95680, Note_on_c, 1, 72, 127
2, 95680, Note_on_c, 1, 96, 127
2, 96000, Note_on_c, 1, 53, 127
2, 96000, Note_off_c, 1, 63, 0
2, 96000, Note_off_c, 1, 65, 0
2, 96000, Note_off_c, 1, 72, 0
2, 96000, Note_off_c, 1, 96, 0
2, 96040, Note_off_c, 1, 53, 0
2, 96040, Note_on_c, 1, 63, 127
2, 96040, Note_on_c, 1, 65, 127
2, 96040, Note_on_c, 1, 72, 127
2, 96040, Note_on_c, 1, 96, 127
2, 96360, Note_on_c, 1, 53, 127
2, 96360, Note_off_c, 1, 63, 0
2, 96360, Note_off_c, 1, 65, 0
2, 96360, Note_off_c, 1, 72, 0
2, 96360, Note_off_c, 1, 96, 0
2, 96400, Note_off_c, 1, 53, 0
2, 96400, Note_on_c, 1, 58, 127
2, 96400, Note_on_c, 1, 65, 127
2, 96400, Note_on_c, 1, 73, 127
2, 96400, Note_on_c, 1, 82, 127
2, 96640, Note_on_c, 1, 77, 127
2, 96640, Note_off_c, 1, 82, 0
2, 96680, Note_off_c, 1, 58, 0
2, 96680, Note_off_c, 1, 65, 0
2, 96680, Note_off_c, 1, 73, 0
2, 96680, Note_off_c, 1, 77, 0
2, 96720, Note_on_c, 1, 58, 127
2, 96760, Note_on_c, 1, 53, 127
2, 96760, Note_off_c, 1, 58, 0
2, 96760, Note_on_c, 1, 64, 127
2, 96760, Note_on_c, 1, 70, 127
2, 96760, Note_on_c, 1, 72, 127
2, 97080, Note_off_c, 1, 53, 0
2, 97120, Note_on_c, 1, 67, 127
2, 97120, Note_on_c, 1, 84, 127
2, 97440, Note_on_c, 1, 61, 127
2, 97440, Note_off_c, 1, 64, 0
2, 97440, Note_off_c, 1, 67, 0
2, 97440, Note_off_c, 1, 70, 0
2, 97440, Note_off_c, 1, 72, 0
2, 97440, Note_off_c, 1, 84, 0
2, 97480, Note_on_c, 1, 48, 127
2, 97480, Note_off_c, 1, 61, 0
2, 97480, Note_on_c, 1, 63, 127
2, 97480, Note_on_c, 1, 69, 127
2, 97480, Note_on_c, 1, 72, 127
2, 97800, Note_off_c, 1, 48, 0
2, 97800, Note_off_c, 1, 63, 0
2, 97800, Note_on_c, 1, 65, 127
2, 97840, Note_on_c, 1, 45, 127
2, 97840, Note_on_c, 1, 48, 127
2, 97840, Note_on_c, 1, 51, 127
2, 97840, Note_on_c, 1, 54, 127
2, 97840, Note_on_c, 1, 63, 127
2, 97840, Note_off_c, 1, 65, 0
2, 97840, Note_off_c, 1, 69, 0
2, 97840, Note_off_c, 1, 72, 0
2, 98160, Note_off_c, 1, 45, 0
2, 98160, Note_off_c, 1, 48, 0
2, 98160, Note_off_c, 1, 51, 0
2, 98160, Note_off_c, 1, 54, 0
2, 98160, Note_off_c, 1, 63, 0
2, 98200, Note_on_c, 1, 36, 127
2, 98200, Note_on_c, 1, 58, 127
2, 98200, Note_on_c, 1, 61, 127
2, 98200, Note_on_c, 1, 67, 127
2, 98240, Note_off_c, 1, 36, 0
2, 98240, Note_on_c, 1, 48, 127
2, 98240, Note_on_c, 1, 56, 127
2, 98240, Note_off_c, 1, 58, 0
2, 98240, Note_off_c, 1, 61, 0
2, 98240, Note_off_c, 1, 67, 0
2, 98240, Note_on_c, 1, 73, 127
2, 98280, Note_off_c, 1, 56, 0
2, 98280, Note_on_c, 1, 58, 127
2, 98280, Note_on_c, 1, 61, 127
2, 98280, Note_on_c, 1, 67, 127
2, 98280, Note_off_c, 1, 73, 0
2, 98360, Note_on_c, 1, 50, 127
2, 98360, Note_off_c, 1, 58, 0
2, 98360, Note_on_c, 1, 59, 127
2, 98360, Note_off_c, 1, 61, 0
2, 98360, Note_off_c, 1, 67, 0
2, 98520, Note_off_c, 1, 50, 0
2, 98520, Note_off_c, 1, 59, 0
2, 98520, Note_on_c, 1, 60, 127
2, 98560, Note_on_c, 1, 36, 127
2, 98560, Note_off_c, 1, 48, 0
2, 98560, Note_off_c, 1, 60, 0
2, 98560, Note_on_c, 1, 79, 127
2, 98720, Note_off_c, 1, 36, 0
2, 98720, Note_off_c, 1, 79, 0
2, 98760, Note_on_c, 1, 36, 127
2, 98760, Note_on_c, 1, 79, 127
2, 98920, Note_off_c, 1, 36, 0
2, 98960, Note_on_c, 1, 45, 127
2, 98960, Note_on_c, 1, 51, 127
2, 98960, Note_on_c, 1, 54, 127
2, 98960, Note_on_c, 1, 59, 127
2, 98960, Note_off_c, 1, 79, 0
2, 99600, Note_off_c, 1, 45, 0
2, 99600, Note_off_c, 1, 51, 0
2, 99600, Note_off_c, 1, 54, 0
2, 99600, Note_off_c, 1, 59, 0
2, 99640, Note_on_c, 1, 48, 127
2, 100000, Note_on_c, 1, 55, 127
2, 100000, Note_on_c, 1, 64, 127
2, 100000, Note_on_c, 1, 67, 127
2, 100000, Note_on_c, 1, 72, 127
2, 100680, Note_off_c, 1, 48, 0
2, 100680, Note_off_c, 1, 55, 0
2, 100680, Note_off_c, 1, 64, 0
2, 100680, Note_off_c, 1, 67, 0
2, 100680, Note_off_c, 1, 72, 0
2, 100720, Note_on_c, 1, 41, 127
2, 100920, Note_off_c, 1, 41, 0
2, 100960, Note_on_c, 1, 41, 127
2, 101720, Note_on_c, 1, 40, 127
2, 101720, Note_off_c, 1, 41, 0
2, 101760, Note_off_c, 1, 40, 0
2, 101800, Note_on_c, 1, 48, 127
2, 102120, Note_off_c, 1, 48, 0
2, 102160, Note_on_c, 1, 45, 127
2, 102480, Note_off_c, 1, 45, 0
2, 102520, Note_on_c, 1, 45, 127
2, 102880, Note_off_c, 1, 45, 0
2, 102920, Note_on_c, 1, 54, 127
2, 102920, Note_on_c, 1, 66, 127
2, 103040, Note_off_c, 1, 54, 0
2, 103040, Note_off_c, 1, 66, 0
2, 103080, Note_on_c, 1, 54, 127
2, 103080, Note_on_c, 1, 66, 127
2, 103240, Note_off_c, 1, 54, 0
2, 103240, Note_off_c, 1, 66, 0
2, 103280, Note_on_c, 1, 54, 127
2, 103280, Note_on_c, 1, 57, 127
2, 103280, Note_on_c, 1, 69, 127
2, 103640, Note_off_c, 1, 54, 0
2, 103640, Note_off_c, 1, 57, 0
2, 103640, Note_off_c, 1, 69, 0
2, 103680, Note_on_c, 1, 49, 127
2, 103680, Note_on_c, 1, 56, 127
2, 103680, Note_on_c, 1, 76, 127
2, 104000, Note_off_c, 1, 49, 0
2, 104000, Note_off_c, 1, 56, 0
2, 104000, Note_off_c, 1, 76, 0
2, 104040, Note_on_c, 1, 55, 127
2, 104040, Note_on_c, 1, 58, 127
2, 104040, Note_on_c, 1, 65, 127
2, 104040, Note_on_c, 1, 67, 127
2, 104040, Note_on_c, 1, 70, 127
2, 104040, Note_on_c, 1, 77, 127
2, 104360, Note_off_c, 1, 55, 0
2, 104360, Note_off_c, 1, 58, 0
2, 104360, Note_off_c, 1, 65, 0
2, 104360, Note_off_c, 1, 67, 0
2, 104360, Note_off_c, 1, 70, 0
2, 104360, Note_off_c, 1, 77, 0
2, 104400, Note_on_c, 1, 55, 127
2, 104400, Note_on_c, 1, 58, 127
2, 104400, Note_on_c, 1, 65, 127
2, 104400, Note_on_c, 1, 67, 127
2, 104400, Note_on_c, 1, 70, 127
2, 104400, Note_on_c, 1, 77, 127
2, 104680, Note_off_c, 1, 55, 0
2, 104680, Note_off_c, 1, 58, 0
2, 104680, Note_off_c, 1, 65, 0
2, 104680, Note_off_c, 1, 67, 0
2, 104680, Note_off_c, 1, 70, 0
2, 104680, Note_off_c, 1, 77, 0
2, 104720, Note_on_c, 1, 46, 127
2, 104720, Note_on_c, 1, 51, 127
2, 104720, Note_on_c, 1, 66, 127
2, 104720, Note_on_c, 1, 70, 127
2, 105040, Note_off_c, 1, 51, 0
2, 105040, Note_off_c, 1, 66, 0
2, 105080, Note_on_c, 1, 50, 127
2, 105080, Note_on_c, 1, 65, 127
2, 105400, Note_off_c, 1, 46, 0
2, 105400, Note_off_c, 1, 50, 0
2, 105400, Note_off_c, 1, 65, 0
2, 105400, Note_off_c, 1, 70, 0
2, 105480, Note_on_c, 1, 53, 127
2, 105480, Note_on_c, 1, 60, 127
2, 105480, Note_on_c, 1, 63, 127
2, 105480, Note_on_c, 1, 69, 127
2, 105480, Note_on_c, 1, 75, 127
2, 105800, Note_off_c, 1, 53, 0
2, 105800, Note_off_c, 1, 60, 0
2, 105800, Note_off_c, 1, 63, 0
2, 105800, Note_off_c, 1, 75, 0
2, 105840, Note_on_c, 1, 46, 127
2, 105840, Note_on_c, 1, 53, 127
2, 105840, Note_on_c, 1, 56, 127
2, 105840, Note_on_c, 1, 62, 127
2, 105840, Note_on_c, 1, 65, 127
2, 105840, Note_off_c, 1, 69, 0
2, 105840, Note_on_c, 1, 71, 127
2, 106160, Note_off_c, 1, 46, 0
2, 106160, Note_off_c, 1, 53, 0
2, 106160, Note_off_c, 1, 56, 0
2, 106160, Note_off_c, 1, 62, 0
2, 106160, Note_off_c, 1, 65, 0
2, 106160, Note_off_c, 1, 71, 0
2, 106200, Note_on_c, 1, 46, 127
2, 106200, Note_on_c, 1, 53, 127
2, 106200, Note_on_c, 1, 56, 127
2, 106200, Note_on_c, 1, 70, 127
2, 106520, Note_off_c, 1, 46, 0
2, 106520, Note_off_c, 1, 53, 0
2, 106520, Note_off_c, 1, 56, 0
2, 106560, Note_on_c, 1, 46, 127
2, 106560, Note_on_c, 1, 53, 127
2, 106560, Note_on_c, 1, 56, 127
2, 106720, Note_off_c, 1, 70, 0
2, 106760, Note_off_c, 1, 46, 0
2, 106760, Note_on_c, 1, 48, 127
2, 106760, Note_on_c, 1, 59, 127
2, 106760, Note_on_c, 1, 62, 127
2, 106760, Note_on_c, 1, 65, 127
2, 106760, Note_on_c, 1, 68, 127
2, 106760, Note_on_c, 1, 71, 127
2, 106760, Note_on_c, 1, 74, 127
2, 106800, Note_on_c, 1, 47, 127
2, 106800, Note_off_c, 1, 48, 0
2, 106800, Note_off_c, 1, 53, 0
2, 106800, Note_off_c, 1, 56, 0
2, 106800, Note_off_c, 1, 62, 0
2, 106800, Note_off_c, 1, 65, 0
2, 106800, Note_off_c, 1, 68, 0
2, 106800, Note_off_c, 1, 71, 0
2, 106800, Note_off_c, 1, 74, 0
2, 106800, Note_on_c, 1, 81, 127
2, 106800, Note_on_c, 1, 87, 127
2, 106800, Note_on_c, 1, 90, 127
2, 106800, Note_on_c, 1, 95, 127
2, 106840, Note_off_c, 1, 47, 0
2, 106840, Note_off_c, 1, 59, 0
2, 106840, Note_off_c, 1, 81, 0
2, 106840, Note_on_c, 1, 86, 127
2, 106840, Note_off_c, 1, 87, 0
2, 106840, Note_off_c, 1, 90, 0
2, 106840, Note_on_c, 1, 93, 127
2, 106840, Note_off_c, 1, 95, 0
2, 106840, Note_on_c, 1, 98, 127
2, 106840, Note_on_c, 1, 105, 127
2, 106880, Note_off_c, 1, 86, 0
2, 106880, Note_off_c, 1, 93, 0
2, 106880, Note_off_c, 1, 98, 0
2, 106880, Note_off_c, 1, 105, 0
2, 106920, Note_on_c, 1, 43, 127
2, 106920, Note_on_c, 1, 52, 127
2, 106920, Note_on_c, 1, 59, 127
2, 106920, Note_on_c, 1, 64, 127
2, 106920, Note_on_c, 1, 67, 127
2, 106920, Note_on_c, 1, 71, 127
2, 106920, Note_on_c, 1, 76, 127
2, 106920, Note_on_c, 1, 79, 127
2, 107120, Note_off_c, 1, 43, 0
2, 107120, Note_on_c, 1, 50, 127
2, 107120, Note_off_c, 1, 52, 0
2, 107120, Note_off_c, 1, 59, 0
2, 107120, Note_on_c, 1, 61, 127
2, 107120, Note_off_c, 1, 64, 0
2, 107120, Note_off_c, 1, 67, 0
2, 107120, Note_off_c, 1, 76, 0
2, 107120, Note_on_c, 1, 78, 127
2, 107120, Note_off_c, 1, 79, 0
2, 107160, Note_on_c, 1, 43, 127
2, 107160, Note_off_c, 1, 50, 0
2, 107160, Note_on_c, 1, 52, 127
2, 107160, Note_on_c, 1, 59, 127
2, 107160, Note_off_c, 1, 61, 0
2, 107160, Note_on_c, 1, 64, 127
2, 107160, Note_on_c, 1, 67, 127
2, 107160, Note_on_c, 1, 76, 127
2, 107160, Note_off_c, 1, 78, 0
2, 107160, Note_on_c, 1, 79, 127
2, 107240, Note_off_c, 1, 43, 0
2, 107240, Note_off_c, 1, 52, 0
2, 107240, Note_off_c, 1, 59, 0
2, 107240, Note_off_c, 1, 64, 0
2, 107240, Note_off_c, 1, 67, 0
2, 107240, Note_off_c, 1, 71, 0
2, 107240, Note_off_c, 1, 76, 0
2, 107240, Note_off_c, 1, 79, 0
2, 107280, Note_on_c, 1, 45, 127
2, 107280, Note_on_c, 1, 53, 127
2, 107280, Note_on_c, 1, 68, 127
2, 107560, Note_off_c, 1, 53, 0
2, 107560, Note_on_c, 1, 65, 127
2, 107560, Note_off_c, 1, 68, 0
2, 107600, Note_off_c, 1, 45, 0
2, 107600, Note_off_c, 1, 65, 0
2, 107680, Note_on_c, 1, 59, 127
2, 107680, Note_on_c, 1, 62, 127
2, 107680, Note_on_c, 1, 79, 127
2, 107680, Note_on_c, 1, 91, 127
2, 107960, Note_off_c, 1, 59, 0
2, 107960, Note_off_c, 1, 62, 0
2, 108000, Note_on_c, 1, 56, 127
2, 108000, Note_on_c, 1, 62, 127
2, 108000, Note_on_c, 1, 72, 127
2, 108000, Note_off_c, 1, 79, 0
2, 108000, Note_on_c, 1, 84, 127
2, 108000, Note_off_c, 1, 91, 0
2, 108320, Note_off_c, 1, 56, 0
2, 108320, Note_off_c, 1, 62, 0
2, 108360, Note_on_c, 1, 38, 127
2, 108360, Note_on_c, 1, 54, 127
2, 108360, Note_on_c, 1, 62, 127
2, 108360, Note_off_c, 1, 84, 0
2, 108680, Note_off_c, 1, 38, 0
2, 108680, Note_off_c, 1, 54, 0
2, 108680, Note_off_c, 1, 62, 0
2, 108680, Note_off_c, 1, 72, 0
2, 108720, Note_on_c, 1, 50, 127
2, 108720, Note_on_c, 1, 62, 127
2, 108720, Note_on_c, 1, 67, 127
2, 108720, Note_on_c, 1, 70, 127
2, 108720, Note_on_c, 1, 74, 127
2, 109040, Note_off_c, 1, 50, 0
2, 109040, Note_off_c, 1, 62, 0
2, 109040, Note_off_c, 1, 67, 0
2, 109040, Note_off_c, 1, 70, 0
2, 109040, Note_off_c, 1, 74, 0
2, 109080, Note_on_c, 1, 50, 127
2, 109080, Note_on_c, 1, 62, 127
2, 109080, Note_on_c, 1, 67, 127
2, 109080, Note_on_c, 1, 70, 127
2, 109080, Note_on_c, 1, 74, 127
2, 109400, Note_off_c, 1, 50, 0
2, 109400, Note_off_c, 1, 62, 0
2, 109400, Note_off_c, 1, 67, 0
2, 109400, Note_off_c, 1, 70, 0
2, 109400, Note_off_c, 1, 74, 0
2, 109440, Note_on_c, 1, 50, 127
2, 109440, Note_on_c, 1, 62, 127
2, 109440, Note_on_c, 1, 67, 127
2, 109440, Note_on_c, 1, 70, 127
2, 109440, Note_on_c, 1, 74, 127
2, 109760, Note_off_c, 1, 50, 0
2, 109760, Note_off_c, 1, 62, 0
2, 109760, Note_off_c, 1, 67, 0
2, 109760, Note_off_c, 1, 70, 0
2, 109760, Note_off_c, 1, 74, 0
2, 109840, Note_on_c, 1, 60, 127
2, 109840, Note_on_c, 1, 74, 127
2, 109840, Note_on_c, 1, 78, 127
2, 109840, Note_on_c, 1, 81, 127
2, 109840, Note_on_c, 1, 86, 127
2, 109880, Note_on_c, 1, 44, 127
2, 109880, Note_on_c, 1, 51, 127
2, 109880, Note_off_c, 1, 60, 0
2, 109880, Note_on_c, 1, 72, 127
2, 109880, Note_off_c, 1, 74, 0
2, 109880, Note_off_c, 1, 78, 0
2, 109880, Note_on_c, 1, 80, 127
2, 109880, Note_off_c, 1, 81, 0
2, 109880, Note_off_c, 1, 86, 0
2, 109880, Note_on_c, 1, 87, 127
2, 109920, Note_off_c, 1, 44, 0
2, 109920, Note_on_c, 1, 62, 127
2, 109920, Note_on_c, 1, 68, 127
2, 109920, Note_off_c, 1, 80, 0
2, 109920, Note_off_c, 1, 87, 0
2, 109960, Note_on_c, 1, 49, 127
2, 109960, Note_off_c, 1, 51, 0
2, 109960, Note_on_c, 1, 53, 127
2, 109960, Note_on_c, 1, 61, 127
2, 109960, Note_off_c, 1, 62, 0
2, 109960, Note_off_c, 1, 68, 0
2, 109960, Note_on_c, 1, 69, 127
2, 109960, Note_off_c, 1, 72, 0
2, 110000, Note_on_c, 1, 38, 127
2, 110000, Note_on_c, 1, 42, 127
2, 110000, Note_off_c, 1, 49, 0
2, 110000, Note_off_c, 1, 53, 0
2, 110000, Note_off_c, 1, 61, 0
2, 110000, Note_off_c, 1, 69, 0
2, 110000, Note_on_c, 1, 77, 127
2, 110000, Note_on_c, 1, 78, 127
2, 110040, Note_off_c, 1, 38, 0
2, 110040, Note_off_c, 1, 42, 0
2, 110040, Note_on_c, 1, 55, 127
2, 110040, Note_on_c, 1, 75, 127
2, 110040, Note_off_c, 1, 77, 0
2, 110040, Note_off_c, 1, 78, 0
2, 110040, Note_on_c, 1, 79, 127
2, 110040, Note_on_c, 1, 82, 127
2, 110040, Note_on_c, 1, 87, 127
2, 110080, Note_on_c, 1, 45, 127
2, 110080, Note_off_c, 1, 55, 0
2, 110080, Note_on_c, 1, 69, 127
2, 110080, Note_off_c, 1, 75, 0
2, 110080, Note_off_c, 1, 82, 0
2, 110080, Note_off_c, 1, 87, 0
2, 110120, Note_off_c, 1, 45, 0
2, 110120, Note_off_c, 1, 69, 0
2, 110120, Note_off_c, 1, 79, 0
2, 110120, Note_on_c, 1, 82, 127
2, 110160, Note_on_c, 1, 46, 127
2, 110160, Note_on_c, 1, 49, 127
2, 110160, Note_on_c, 1, 53, 127
2, 110160, Note_on_c, 1, 58, 127
2, 110160, Note_on_c, 1, 70, 127
2, 110160, Note_off_c, 1, 82, 0
2, 110480, Note_off_c, 1, 46, 0
2, 110480, Note_off_c, 1, 49, 0
2, 110480, Note_off_c, 1, 53, 0
2, 110480, Note_off_c, 1, 58, 0
2, 110480, Note_off_c, 1, 70, 0
2, 110520, Note_on_c, 1, 63, 127
2, 110520, Note_on_c, 1, 72, 127
2, 110520, Note_on_c, 1, 80, 127
2, 110520, Note_on_c, 1, 89, 127
2, 110560, Note_on_c, 1, 51, 127
2, 110560, Note_on_c, 1, 56, 127
2, 110560, Note_on_c, 1, 60, 127
2, 110560, Note_off_c, 1, 63, 0
2, 110560, Note_off_c, 1, 72, 0
2, 110560, Note_on_c, 1, 84, 127
2, 110560, Note_on_c, 1, 87, 127
2, 110560, Note_off_c, 1, 89, 0
2, 110560, Note_on_c, 1, 92, 127
2, 110600, Note_on_c, 1, 50, 127
2, 110600, Note_off_c, 1, 51, 0
2, 110600, Note_off_c, 1, 56, 0
2, 110600, Note_off_c, 1, 60, 0
2, 110600, Note_on_c, 1, 63, 127
2, 110600, Note_on_c, 1, 66, 127
2, 110600, Note_on_c, 1, 70, 127
2, 110600, Note_on_c, 1, 75, 127
2, 110600, Note_off_c, 1, 80, 0
2, 110600, Note_off_c, 1, 84, 0
2, 110600, Note_off_c, 1, 87, 0
2, 110600, Note_off_c, 1, 92, 0
2, 110640, Note_on_c, 1, 32, 127
2, 110640, Note_off_c, 1, 50, 0
2, 110640, Note_off_c, 1, 63, 0
2, 110640, Note_off_c, 1, 66, 0
2, 110640, Note_off_c, 1, 70, 0
2, 110640, Note_on_c, 1, 80, 127
2, 110680, Note_off_c, 1, 32, 0
2, 110680, Note_on_c, 1, 39, 127
2, 110680, Note_on_c, 1, 51, 127
2, 110680, Note_on_c, 1, 58, 127
2, 110680, Note_on_c, 1, 61, 127
2, 110680, Note_on_c, 1, 69, 127
2, 110680, Note_off_c, 1, 75, 0
2, 110680, Note_off_c, 1, 80, 0
2, 110720, Note_on_c, 1, 43, 127
2, 110720, Note_off_c, 1, 58, 0
2, 110720, Note_off_c, 1, 61, 0
2, 110720, Note_on_c, 1, 67, 127
2, 110720, Note_off_c, 1, 69, 0
2, 110840, Note_off_c, 1, 39, 0
2, 110840, Note_off_c, 1, 43, 0
2, 110840, Note_off_c, 1, 51, 0
2, 110840, Note_off_c, 1, 67, 0
2, 110880, Note_on_c, 1, 52, 127
2, 110880, Note_on_c, 1, 59, 127
2, 110880, Note_on_c, 1, 66, 127
2, 110880, Note_on_c, 1, 69, 127
2, 110880, Note_on_c, 1, 75, 127
2, 111160, Note_off_c, 1, 52, 0
2, 111160, Note_off_c, 1, 59, 0
2, 111160, Note_off_c, 1, 66, 0
2, 111160, Note_off_c, 1, 69, 0
2, 111160, Note_off_c, 1, 75, 0
2, 111200, Note_on_c, 1, 65, 127
2, 111200, Note_on_c, 1, 70, 127
2, 111200, Note_on_c, 1, 85, 127
2, 111200, Note_on_c, 1, 92, 127
2, 111520, Note_off_c, 1, 65, 0
2, 111520, Note_off_c, 1, 70, 0
2, 111520, Note_off_c, 1, 85, 0
2, 111520, Note_off_c, 1, 92, 0
2, 111560, Note_on_c, 1, 65, 127
2, 111560, Note_on_c, 1, 70, 127
2, 111560, Note_on_c, 1, 85, 127
2, 111560, Note_on_c, 1, 92, 127
2, 111880, Note_off_c, 1, 65, 0
2, 111880, Note_off_c, 1, 70, 0
2, 111880, Note_off_c, 1, 85, 0
2, 111880, Note_off_c, 1, 92, 0
2, 111960, Note_on_c, 1, 43, 127
2, 111960, Note_on_c, 1, 49, 127
2, 111960, Note_on_c, 1, 59, 127
2, 111960, Note_on_c, 1, 65, 127
2, 111960, Note_on_c, 1, 68, 127
2, 112000, Note_off_c, 1, 43, 0
2, 112000, Note_off_c, 1, 49, 0
2, 112000, Note_on_c, 1, 51, 127
2, 112000, Note_on_c, 1, 54, 127
2, 112000, Note_on_c, 1, 58, 127
2, 112000, Note_off_c, 1, 59, 0
2, 112000, Note_off_c, 1, 65, 0
2, 112000, Note_on_c, 1, 66, 127
2, 112000, Note_off_c, 1, 68, 0
2, 112000, Note_on_c, 1, 78, 127
2, 112040, Note_on_c, 1, 43, 127
2, 112040, Note_on_c, 1, 49, 127
2, 112040, Note_off_c, 1, 51, 0
2, 112040, Note_off_c, 1, 54, 0
2, 112040, Note_off_c, 1, 58, 0
2, 112040, Note_on_c, 1, 59, 127
2, 112040, Note_on_c, 1, 65, 127
2, 112040, Note_off_c, 1, 66, 0
2, 112040, Note_on_c, 1, 68, 127
2, 112040, Note_off_c, 1, 78, 0
2, 112240, Note_off_c, 1, 43, 0
2, 112240, Note_off_c, 1, 49, 0
2, 112240, Note_off_c, 1, 59, 0
2, 112240, Note_off_c, 1, 65, 0
2, 112240, Note_off_c, 1, 68, 0
2, 112320, Note_on_c, 1, 47, 127
2, 112320, Note_on_c, 1, 52, 127
2, 112320, Note_on_c, 1, 59, 127
2, 112320, Note_on_c, 1, 62, 127
2, 112320, Note_on_c, 1, 64, 127
2, 112320, Note_on_c, 1, 74, 127
2, 112960, Note_off_c, 1, 47, 0
2, 112960, Note_off_c, 1, 52, 0
2, 112960, Note_off_c, 1, 59, 0
2, 112960, Note_off_c, 1, 62, 0
2, 112960, Note_off_c, 1, 64, 0
2, 112960, Note_off_c, 1, 74, 0
2, 113000, Note_on_c, 1, 63, 127
2, 113000, Note_on_c, 1, 67, 127
2, 113000, Note_on_c, 1, 77, 127
2, 113000, Note_on_c, 1, 89, 127
2, 113040, Note_on_c, 1, 55, 127
2, 113040, Note_on_c, 1, 60, 127
2, 113040, Note_on_c, 1, 62, 127
2, 113040, Note_off_c, 1, 63, 0
2, 113040, Note_on_c, 1, 64, 127
2, 113040, Note_off_c, 1, 67, 0
2, 113040, Note_off_c, 1, 77, 0
2, 113040, Note_off_c, 1, 89, 0
2, 113040, Note_on_c, 1, 91, 127
2, 113080, Note_off_c, 1, 55, 0
2, 113080, Note_on_c, 1, 56, 127
2, 113080, Note_off_c, 1, 62, 0
2, 113080, Note_off_c, 1, 64, 0
2, 113080, Note_on_c, 1, 67, 127
2, 113080, Note_on_c, 1, 76, 127
2, 113080, Note_off_c, 1, 91, 0
2, 113120, Note_on_c, 1, 55, 127
2, 113120, Note_off_c, 1, 56, 0
2, 113120, Note_on_c, 1, 59, 127
2, 113120, Note_off_c, 1, 60, 0
2, 113120, Note_off_c, 1, 76, 0
2, 113120, Note_on_c, 1, 103, 127
2, 113160, Note_on_c, 1, 50, 127
2, 113160, Note_off_c, 1, 55, 0
2, 113160, Note_on_c, 1, 56, 127
2, 113160, Note_on_c, 1, 58, 127
2, 113160, Note_off_c, 1, 59, 0
2, 113160, Note_on_c, 1, 64, 127
2, 113160, Note_off_c, 1, 67, 0
2, 113160, Note_off_c, 1, 103, 0
2, 113200, Note_on_c, 1, 43, 127
2, 113200, Note_off_c, 1, 50, 0
2, 113200, Note_on_c, 1, 55, 127
2, 113200, Note_off_c, 1, 56, 0
2, 113200, Note_off_c, 1, 58, 0
2, 113200, Note_on_c, 1, 60, 127
2, 113200, Note_on_c, 1, 69, 127
2, 113200, Note_on_c, 1, 72, 127
2, 113280, Note_off_c, 1, 43, 0
2, 113280, Note_off_c, 1, 55, 0
2, 113280, Note_on_c, 1, 59, 127
2, 113280, Note_off_c, 1, 60, 0
2, 113280, Note_off_c, 1, 64, 0
2, 113280, Note_off_c, 1, 69, 0
2, 113280, Note_off_c, 1, 72, 0
2, 113280, Note_on_c, 1, 86, 127
2, 113280, Note_on_c, 1, 92, 127
2, 113280, Note_on_c, 1, 95, 127
2, 113280, Note_on_c, 1, 98, 127
2, 113320, Note_off_c, 1, 59, 0
2, 113320, Note_off_c, 1, 86, 0
2, 113320, Note_off_c, 1, 92, 0
2, 113320, Note_off_c, 1, 95, 0
2, 113320, Note_off_c, 1, 98, 0
2, 113360, Note_on_c, 1, 44, 127
2, 113360, Note_on_c, 1, 48, 127
2, 113360, Note_on_c, 1, 56, 127
2, 113360, Note_on_c, 1, 60, 127
2, 113520, Note_off_c, 1, 56, 0
2, 113520, Note_off_c, 1, 60, 0
2, 113560, Note_on_c, 1, 63, 127
2, 113680, Note_off_c, 1, 44, 0
2, 113680, Note_off_c, 1, 48, 0
2, 113680, Note_off_c, 1, 63, 0
2, 113720, Note_on_c, 1, 44, 127
2, 113720, Note_on_c, 1, 48, 127
2, 113720, Note_on_c, 1, 63, 127
2, 114200, Note_off_c, 1, 44, 0
2, 114200, Note_off_c, 1, 48, 0
2, 114200, Note_off_c, 1, 63, 0
2, 114240, Note_on_c, 1, 44, 127
2, 114240, Note_on_c, 1, 48, 127
2, 114240, Note_on_c, 1, 63, 127
2, 114440, Note_off_c, 1, 44, 0
2, 114440, Note_on_c, 1, 46, 127
2, 114440, Note_off_c, 1, 48, 0
2, 114440, Note_off_c, 1, 63, 0
2, 114480, Note_on_c, 1, 38, 127
2, 114480, Note_off_c, 1, 46, 0
2, 114480, Note_on_c, 1, 47, 127
2, 114480, Note_on_c, 1, 50, 127
2, 114480, Note_on_c, 1, 83, 127
2, 114480, Note_on_c, 1, 89, 127
2, 114480, Note_on_c, 1, 92, 127
2, 114520, Note_off_c, 1, 38, 0
2, 114520, Note_off_c, 1, 47, 0
2, 114520, Note_off_c, 1, 50, 0
2, 114520, Note_on_c, 1, 70, 127
2, 114520, Note_on_c, 1, 73, 127
2, 114520, Note_on_c, 1, 77, 127
2, 114520, Note_on_c, 1, 80, 127
2, 114520, Note_off_c, 1, 83, 0
2, 114520, Note_on_c, 1, 85, 127
2, 114520, Note_off_c, 1, 89, 0
2, 114520, Note_off_c, 1, 92, 0
2, 114560, Note_on_c, 1, 56, 127
2, 114560, Note_on_c, 1, 63, 127
2, 114560, Note_on_c, 1, 66, 127
2, 114560, Note_off_c, 1, 73, 0
2, 114560, Note_on_c, 1, 75, 127
2, 114560, Note_off_c, 1, 77, 0
2, 114560, Note_off_c, 1, 80, 0
2, 114560, Note_off_c, 1, 85, 0
2, 114600, Note_on_c, 1, 31, 127
2, 114600, Note_on_c, 1, 34, 127
2, 114600, Note_on_c, 1, 43, 127
2, 114600, Note_off_c, 1, 56, 0
2, 114600, Note_off_c, 1, 63, 0
2, 114600, Note_off_c, 1, 66, 0
2, 114600, Note_off_c, 1, 70, 0
2, 114600, Note_on_c, 1, 72, 127
2, 114600, Note_on_c, 1, 79, 127
2, 114600, Note_on_c, 1, 81, 127
2, 114640, Note_off_c, 1, 31, 0
2, 114640, Note_off_c, 1, 34, 0
2, 114640, Note_off_c, 1, 43, 0
2, 114640, Note_on_c, 1, 62, 127
2, 114640, Note_on_c, 1, 71, 127
2, 114640, Note_off_c, 1, 72, 0
2, 114640, Note_off_c, 1, 75, 0
2, 114640, Note_on_c, 1, 77, 127
2, 114640, Note_off_c, 1, 79, 0
2, 114680, Note_on_c, 1, 44, 127
2, 114680, Note_on_c, 1, 49, 127
2, 114680, Note_off_c, 1, 62, 0
2, 114680, Note_off_c, 1, 81, 0
2, 114680, Note_on_c, 1, 83, 127
2, 114720, Note_off_c, 1, 49, 0
2, 114720, Note_on_c, 1, 56, 127
2, 114720, Note_off_c, 1, 71, 0
2, 114720, Note_on_c, 1, 76, 127
2, 114720, Note_off_c, 1, 77, 0
2, 114720, Note_on_c, 1, 80, 127
2, 114720, Note_off_c, 1, 83, 0
2, 114720, Note_on_c, 1, 92, 127
2, 114760, Note_on_c, 1, 33, 127
2, 114760, Note_on_c, 1, 40, 127
2, 114760, Note_off_c, 1, 44, 0
2, 114760, Note_off_c, 1, 56, 0
2, 114760, Note_off_c, 1, 76, 0
2, 114760, Note_off_c, 1, 80, 0
2, 114760, Note_on_c, 1, 90, 127
2, 114760, Note_off_c, 1, 92, 0
2, 114800, Note_off_c, 1, 33, 0
2, 114800, Note_off_c, 1, 40, 0
2, 114800, Note_on_c, 1, 52, 127
2, 114800, Note_on_c, 1, 55, 127
2, 114800, Note_on_c, 1, 58, 127
2, 114800, Note_on_c, 1, 60, 127
2, 114800, Note_on_c, 1, 82, 127
2, 114800, Note_on_c, 1, 86, 127
2, 114800, Note_off_c, 1, 90, 0
2, 114840, Note_on_c, 1, 49, 127
2, 114840, Note_off_c, 1, 52, 0
2, 114840, Note_on_c, 1, 57, 127
2, 114840, Note_off_c, 1, 58, 0
2, 114840, Note_on_c, 1, 67, 127
2, 114840, Note_off_c, 1, 82, 0
2, 114840, Note_off_c, 1, 86, 0
2, 114880, Note_on_c, 1, 34, 127
2, 114880, Note_on_c, 1, 41, 127
2, 114880, Note_on_c, 1, 44, 127
2, 114880, Note_on_c, 1, 46, 127
2, 114880, Note_off_c, 1, 49, 0
2, 114880, Note_on_c, 1, 50, 127
2, 114880, Note_off_c, 1, 55, 0
2, 114880, Note_off_c, 1, 57, 0
2, 114880, Note_on_c, 1, 58, 127
2, 114880, Note_off_c, 1, 60, 0
2, 114880, Note_on_c, 1, 62, 127
2, 114880, Note_off_c, 1, 67, 0
2, 114920, Note_off_c, 1, 34, 0
2, 114920, Note_off_c, 1, 41, 0
2, 114920, Note_off_c, 1, 44, 0
2, 114920, Note_off_c, 1, 46, 0
2, 114920, Note_off_c, 1, 50, 0
2, 114920, Note_off_c, 1, 58, 0
2, 114920, Note_off_c, 1, 62, 0
2, 114920, Note_on_c, 1, 67, 127
2, 114920, Note_on_c, 1, 77, 127
2, 114920, Note_on_c, 1, 83, 127
2, 114920, Note_on_c, 1, 91, 127
2, 114960, Note_on_c, 1, 52, 127
2, 114960, Note_on_c, 1, 58, 127
2, 114960, Note_on_c, 1, 60, 127
2, 114960, Note_off_c, 1, 67, 0
2, 114960, Note_off_c, 1, 77, 0
2, 114960, Note_on_c, 1, 81, 127
2, 114960, Note_off_c, 1, 83, 0
2, 114960, Note_off_c, 1, 91, 0
2, 114960, Note_on_c, 1, 93, 127
2, 115000, Note_on_c, 1, 31, 127
2, 115000, Note_on_c, 1, 43, 127
2, 115000, Note_off_c, 1, 52, 0
2, 115000, Note_off_c, 1, 58, 0
2, 115000, Note_off_c, 1, 60, 0
2, 115000, Note_on_c, 1, 62, 127
2, 115000, Note_on_c, 1, 67, 127
2, 115000, Note_on_c, 1, 72, 127
2, 115000, Note_off_c, 1, 81, 0
2, 115000, Note_off_c, 1, 93, 0
2, 115040, Note_off_c, 1, 31, 0
2, 115040, Note_off_c, 1, 43, 0
2, 115040, Note_on_c, 1, 58, 127
2, 115040, Note_off_c, 1, 62, 0
2, 115040, Note_on_c, 1, 65, 127
2, 115040, Note_off_c, 1, 67, 0
2, 115040, Note_on_c, 1, 68, 127
2, 115040, Note_off_c, 1, 72, 0
2, 115040, Note_on_c, 1, 85, 127
2, 115080, Note_on_c, 1, 52, 127
2, 115080, Note_off_c, 1, 58, 0
2, 115080, Note_off_c, 1, 68, 0
2, 115080, Note_on_c, 1, 69, 127
2, 115080, Note_on_c, 1, 73, 127
2, 115080, Note_off_c, 1, 85, 0
2, 115120, Note_off_c, 1, 52, 0
2, 115120, Note_off_c, 1, 65, 0
2, 115120, Note_off_c, 1, 69, 0
2, 115120, Note_off_c, 1, 73, 0
2, 115160, Note_on_c, 1, 51, 127
2, 115160, Note_on_c, 1, 63, 127
2, 115160, Note_on_c, 1, 67, 127
2, 115160, Note_on_c, 1, 75, 127
2, 115520, Note_on_c, 1, 58, 127
2, 115520, Note_off_c, 1, 75, 0
2, 115520, Note_on_c, 1, 77, 127
2, 115560, Note_off_c, 1, 77, 0
2, 115600, Note_on_c, 1, 77, 127
2, 115840, Note_off_c, 1, 51, 0
2, 115840, Note_off_c, 1, 58, 0
2, 115840, Note_off_c, 1, 63, 0
2, 115840, Note_off_c, 1, 67, 0
2, 115840, Note_off_c, 1, 77, 0
2, 115880, Note_on_c, 1, 53, 127
2, 115880, Note_on_c, 1, 57, 127
2, 115880, Note_on_c, 1, 63, 127
2, 115880, Note_on_c, 1, 73, 127
2, 115880, Note_on_c, 1, 75, 127
2, 115920, Note_off_c, 1, 75, 0
2, 116400, Note_on_c, 1, 72, 127
2, 116400, Note_off_c, 1, 73, 0
2, 116520, Note_on_c, 1, 45, 127
2, 116520, Note_on_c, 1, 52, 127
2, 116520, Note_off_c, 1, 53, 0
2, 116520, Note_off_c, 1, 57, 0
2, 116520, Note_on_c, 1, 61, 127
2, 116520, Note_off_c, 1, 63, 0
2, 116520, Note_off_c, 1, 72, 0
2, 116520, Note_on_c, 1, 79, 127
2, 116520, Note_on_c, 1, 81, 127
2, 116520, Note_on_c, 1, 93, 127
2, 116560, Note_off_c, 1, 45, 0
2, 116560, Note_off_c, 1, 52, 0
2, 116560, Note_off_c, 1, 61, 0
2, 116560, Note_off_c, 1, 79, 0
2, 116560, Note_off_c, 1, 81, 0
2, 116560, Note_off_c, 1, 93, 0
2, 116640, Note_on_c, 1, 54, 127
2, 116640, Note_on_c, 1, 63, 127
2, 116640, Note_on_c, 1, 70, 127
2, 116640, Note_on_c, 1, 82, 127
2, 117280, Note_off_c, 1, 54, 0
2, 117280, Note_off_c, 1, 63, 0
2, 117280, Note_off_c, 1, 70, 0
2, 117280, Note_off_c, 1, 82, 0
2, 117320, Note_on_c, 1, 57, 127
2, 117320, Note_on_c, 1, 65, 127
2, 117320, Note_on_c, 1, 86, 127
2, 117320, Note_on_c, 1, 98, 127
2, 117360, Note_on_c, 1, 46, 127
2, 117360, Note_on_c, 1, 53, 127
2, 117360, Note_off_c, 1, 57, 0
2, 117360, Note_on_c, 1, 58, 127
2, 117360, Note_on_c, 1, 61, 127
2, 117360, Note_on_c, 1, 77, 127
2, 117360, Note_off_c, 1, 86, 0
2, 117360, Note_off_c, 1, 98, 0
2, 117400, Note_on_c, 1, 44, 127
2, 117400, Note_off_c, 1, 46, 0
2, 117400, Note_on_c, 1, 51, 127
2, 117400, Note_on_c, 1, 56, 127
2, 117400, Note_off_c, 1, 58, 0
2, 117400, Note_on_c, 1, 60, 127
2, 117400, Note_off_c, 1, 61, 0
2, 117400, Note_off_c, 1, 65, 0
2, 117400, Note_off_c, 1, 77, 0
2, 117440, Note_off_c, 1, 44, 0
2, 117440, Note_off_c, 1, 51, 0
2, 117440, Note_off_c, 1, 53, 0
2, 117440, Note_off_c, 1, 56, 0
2, 117440, Note_on_c, 1, 58, 127
2, 117440, Note_off_c, 1, 60, 0
2, 117440, Note_on_c, 1, 75, 127
2, 117440, Note_on_c, 1, 78, 127
2, 117440, Note_on_c, 1, 84, 127
2, 117480, Note_off_c, 1, 58, 0
2, 117480, Note_on_c, 1, 70, 127
2, 117480, Note_off_c, 1, 75, 0
2, 117480, Note_on_c, 1, 77, 127
2, 117480, Note_off_c, 1, 78, 0
2, 117480, Note_on_c, 1, 80, 127
2, 117520, Note_on_c, 1, 43, 127
2, 117520, Note_on_c, 1, 46, 127
2, 117520, Note_on_c, 1, 49, 127
2, 117520, Note_on_c, 1, 51, 127
2, 117520, Note_on_c, 1, 55, 127
2, 117520, Note_on_c, 1, 58, 127
2, 117520, Note_off_c, 1, 70, 0
2, 117520, Note_off_c, 1, 77, 0
2, 117520, Note_off_c, 1, 80, 0
2, 117520, Note_off_c, 1, 84, 0
2, 117560, Note_off_c, 1, 43, 0
2, 117560, Note_off_c, 1, 46, 0
2, 117560, Note_off_c, 1, 49, 0
2, 117560, Note_off_c, 1, 51, 0
2, 117560, Note_on_c, 1, 72, 127
2, 117560, Note_on_c, 1, 79, 127
2, 117560, Note_on_c, 1, 84, 127
2, 117600, Note_off_c, 1, 55, 0
2, 117600, Note_off_c, 1, 58, 0
2, 117600, Note_on_c, 1, 61, 127
2, 117600, Note_on_c, 1, 63, 127
2, 117600, Note_off_c, 1, 72, 0
2, 117600, Note_on_c, 1, 78, 127
2, 117600, Note_off_c, 1, 79, 0
2, 117600, Note_off_c, 1, 84, 0
2, 117600, Note_on_c, 1, 90, 127
2, 117640, Note_off_c, 1, 61, 0
2, 117640, Note_off_c, 1, 63, 0
2, 117640, Note_off_c, 1, 78, 0
2, 117640, Note_off_c, 1, 90, 0
2, 117680, Note_on_c, 1, 64, 127
2, 117680, Note_on_c, 1, 71, 127
2, 117680, Note_on_c, 1, 76, 127
2, 117680, Note_on_c, 1, 79, 127
2, 117680, Note_on_c, 1, 91, 127
2, 118000, Note_off_c, 1, 64, 0
2, 118000, Note_off_c, 1, 71, 0
2, 118000, Note_off_c, 1, 76, 0
2, 118000, Note_off_c, 1, 79, 0
2, 118000, Note_off_c, 1, 91, 0
2, 118040, Note_on_c, 1, 49, 127
2, 118040, Note_on_c, 1, 54, 127
2, 118040, Note_on_c, 1, 69, 127
2, 118040, Note_on_c, 1, 73, 127
2, 118040, Note_on_c, 1, 78, 127
2, 118720, Note_off_c, 1, 49, 0
2, 118720, Note_off_c, 1, 54, 0
2, 118720, Note_off_c, 1, 69, 0
2, 118720, Note_off_c, 1, 73, 0
2, 118720, Note_off_c, 1, 78, 0
2, 118800, Note_on_c, 1, 41, 127
2, 118800, Note_on_c, 1, 53, 127
2, 118800, Note_on_c, 1, 72, 127
2, 118800, Note_on_c, 1, 77, 127
2, 118800, Note_on_c, 1, 81, 127
2, 118800, Note_on_c, 1, 84, 127
2, 119080, Note_off_c, 1, 41, 0
2, 119080, Note_off_c, 1, 53, 0
2, 119080, Note_off_c, 1, 72, 0
2, 119080, Note_off_c, 1, 77, 0
2, 119080, Note_off_c, 1, 81, 0
2, 119080, Note_off_c, 1, 84, 0
2, 119120, Note_on_c, 1, 41, 127
2, 119120, Note_on_c, 1, 53, 127
2, 119120, Note_on_c, 1, 72, 127
2, 119120, Note_on_c, 1, 77, 127
2, 119120, Note_on_c, 1, 81, 127
2, 119120, Note_on_c, 1, 84, 127
2, 119800, Note_off_c, 1, 41, 0
2, 119800, Note_off_c, 1, 53, 0
2, 119800, Note_off_c, 1, 81, 0
2, 119800, Note_off_c, 1, 84, 0
2, 119800, Note_on_c, 1, 89, 127
2, 119800, Note_on_c, 1, 93, 127
2, 119840, Note_off_c, 1, 72, 0
2, 119840, Note_off_c, 1, 77, 0
2, 119840, Note_off_c, 1, 89, 0
2, 119840, Note_off_c, 1, 93, 0
2, 119880, Note_on_c, 1, 45, 127
2, 119880, Note_on_c, 1, 57, 127
2, 119880, Note_on_c, 1, 75, 127
2, 119880, Note_on_c, 1, 78, 127
2, 119880, Note_on_c, 1, 83, 127
2, 120000, Note_off_c, 1, 45, 0
2, 120000, Note_off_c, 1, 57, 0
2, 120000, Note_off_c, 1, 75, 0
2, 120000, Note_off_c, 1, 78, 0
2, 120000, Note_off_c, 1, 83, 0
2, 120040, End_track
3, 0, Start_track
3, 0, Title_t, "MIDI"
3, 1536, End_track
0, 0, End_of_file
