0, 0, Header, 1, 3, 192
1, 0, Start_track
1, 0, Time_signature, 4, 2, 24, 8
1, 0, Tempo, 500000
1, 120040, End_track
2, 0, Start_track
2, 0, Text_t, "random instrument: random person i dunno whatev"
2, 0, Title_t, "Track 1"
2, 0, Note_on_c, 1, 58, 127
2, 0, Note_on_c, 1, 66, 127
2, 0, Note_on_c, 1, 78, 127
2, 0, Note_on_c, 1, 82, 127
2, 0, Note_on_c, 1, 90, 127
2, 360, Note_off_c, 1, 58, 0
2, 360, Note_off_c, 1, 66, 0
2, 360, Note_off_c, 1, 78, 0
2, 360, Note_off_c, 1, 82, 0
2, 360, Note_off_c, 1, 90, 0
2, 400, Note_on_c, 1, 51, 127
2, 400, Note_on_c, 1, 59, 127
2, 400, Note_on_c, 1, 71, 127
2, 400, Note_on_c, 1, 75, 127
2, 760, Note_off_c, 1, 51, 0
2, 760, Note_off_c, 1, 59, 0
2, 760, Note_off_c, 1, 71, 0
2, 760, Note_off_c, 1, 75, 0
2, 800, Note_on_c, 1, 51, 127
2, 800, Note_on_c, 1, 59, 127
2, 800, Note_on_c, 1, 71, 127
2, 800, Note_on_c, 1, 75, 127
2, 1280, Note_off_c, 1, 51, 0
2, 1280, Note_off_c, 1, 59, 0
2, 1280, Note_off_c, 1, 71, 0
2, 1280, Note_off_c, 1, 75, 0
2, 1320, Note_on_c, 1, 42, 127
2, 1320, Note_on_c, 1, 78, 127
2, 1720, Note_off_c, 1, 42, 0
2, 1760, Note_on_c, 1, 49, 127
2, 2120, Note_off_c, 1, 49, 0
2, 2160, Note_on_c, 1, 54, 127
2, 2520, Note_off_c, 1, 54, 0
2, 2560, Note_on_c, 1, 61, 127
2, 2920, Note_off_c, 1, 61, 0
2, 2920, Note_off_c, 1, 78, 0
2, 3000, Note_on_c, 1, 59, 127
2, 3000, Note_on_c, 1, 77, 127
2, 3360, Note_off_c, 1, 59, 0
2, 3360, Note_off_c, 1, 77, 0
2, 3400, Note_on_c, 1, 61, 127
2, 3400, Note_on_c, 1, 78, 127
2, 3760, Note_off_c, 1, 61, 0
2, 3760, Note_off_c, 1, 78, 0
2, 3800, Note_on_c, 1, 52, 127
2, 3800, Note_on_c, 1, 80, 127
2, 4160, Note_off_c, 1, 52, 0
2, 4200, Note_on_c, 1, 61, 127
2, 4560, Note_off_c, 1, 61, 0
2, 4600, Note_on_c, 1, 52, 127
2, 5000, Note_off_c, 1, 52, 0
2, 5000, Note_off_c, 1, 80, 0
2, 5080, Note_on_c, 1, 56, 127
2, 5080, Note_on_c, 1, 79, 127
2, 5440, Note_off_c, 1, 56, 0
2, 5480, Note_on_c, 1, 43, 127
2, 5480, Note_on_c, 1, 77, 127
2, 5480, Note_off_c, 1, 79, 0
2, 5840, Note_off_c, 1, 43, 0
2, 5880, Note_on_c, 1, 43, 127
2, 6200, Note_off_c, 1, 43, 0
2, 6240, Note_on_c, 1, 43, 127
2, 6600, Note_off_c, 1, 43, 0
2, 6640, Note_on_c, 1, 50, 127
2, 7000, Note_off_c, 1, 50, 0
2, 7040, Note_on_c, 1, 44, 127
2, 7360, Note_off_c, 1, 44, 0
2, 7360, Note_off_c, 1, 77, 0
2, 7400, Note_on_c, 1, 44, 127
2, 7400, Note_on_c, 1, 77, 127
2, 7440, Note_off_c, 1, 44, 0
2, 7480, Note_on_c, 1, 49, 127
2, 7840, Note_off_c, 1, 49, 0
2, 7880, Note_on_c, 1, 51, 127
2, 8240, Note_off_c, 1, 51, 0
2, 8280, Note_on_c, 1, 61, 127
2, 8640, Note_off_c, 1, 61, 0
2, 8640, Note_off_c, 1, 77, 0
2, 8680, Note_on_c, 1, 39, 127
2, 8680, Note_on_c, 1, 75, 127
2, 9040, Note_off_c, 1, 39, 0
2, 9040, Note_off_c, 1, 75, 0
2, 9080, Note_on_c, 1, 44, 127
2, 9080, Note_on_c, 1, 75, 127
2, 9440, Note_off_c, 1, 44, 0
2, 9480, Note_off_c, 1, 75, 0
2, 9520, Note_on_c, 1, 52, 127
2, 9520, Note_on_c, 1, 75, 127
2, 9880, Note_off_c, 1, 52, 0
2, 9880, Note_off_c, 1, 75, 0
2, 9920, Note_on_c, 1, 44, 127
2, 9920, Note_on_c, 1, 73, 127
2, 10280, Note_off_c, 1, 44, 0
2, 10320, Note_on_c, 1, 56, 127
2, 10680, Note_off_c, 1, 56, 0
2, 10720, Note_on_c, 1, 44, 127
2, 11080, Note_off_c, 1, 44, 0
2, 11120, Note_on_c, 1, 44, 127
2, 11480, Note_off_c, 1, 44, 0
2, 11480, Note_off_c, 1, 73, 0
2, 11520, Note_on_c, 1, 44, 127
2, 11520, Note_on_c, 1, 76, 127
2, 11880, Note_off_c, 1, 44, 0
2, 11920, Note_off_c, 1, 76, 0
2, 11960, Note_on_c, 1, 37, 127
2, 11960, Note_on_c, 1, 76, 127
2, 12320, Note_off_c, 1, 37, 0
2, 12320, Note_off_c, 1, 76, 0
2, 12360, Note_on_c, 1, 44, 127
2, 12360, Note_on_c, 1, 77, 127
2, 12720, Note_off_c, 1, 44, 0
2, 12760, Note_on_c, 1, 47, 127
2, 13120, Note_off_c, 1, 47, 0
2, 13160, Note_on_c, 1, 49, 127
2, 13160, Note_off_c, 1, 77, 0
2, 13160, Note_on_c, 1, 80, 127
2, 13520, Note_off_c, 1, 49, 0
2, 13560, Note_on_c, 1, 54, 127
2, 13560, Note_off_c, 1, 80, 0
2, 13560, Note_on_c, 1, 82, 127
2, 13920, Note_off_c, 1, 54, 0
2, 13960, Note_on_c, 1, 61, 127
2, 14120, Note_off_c, 1, 61, 0
2, 14120, Note_off_c, 1, 82, 0
2, 14160, Note_on_c, 1, 61, 127
2, 14160, Note_on_c, 1, 82, 127
2, 14360, Note_off_c, 1, 61, 0
2, 14360, Note_off_c, 1, 82, 0
2, 14400, Note_on_c, 1, 54, 127
2, 14400, Note_on_c, 1, 82, 127
2, 14760, Note_off_c, 1, 54, 0
2, 14800, Note_on_c, 1, 58, 127
2, 15160, Note_off_c, 1, 58, 0
2, 15160, Note_off_c, 1, 82, 0
2, 15200, Note_on_c, 1, 58, 127
2, 15200, Note_on_c, 1, 78, 127
2, 15560, Note_off_c, 1, 58, 0
2, 15600, Note_on_c, 1, 49, 127
2, 15960, Note_off_c, 1, 49, 0
2, 16000, Note_on_c, 1, 54, 127
2, 16360, Note_off_c, 1, 54, 0
2, 16400, Note_off_c, 1, 78, 0
2, 16440, Note_on_c, 1, 49, 127
2, 16440, Note_on_c, 1, 78, 127
2, 16800, Note_off_c, 1, 49, 0
2, 16840, Note_on_c, 1, 39, 127
2, 17200, Note_off_c, 1, 39, 0
2, 17200, Note_off_c, 1, 78, 0
2, 17240, Note_on_c, 1, 53, 127
2, 17240, Note_on_c, 1, 81, 127
2, 17600, Note_off_c, 1, 53, 0
2, 17640, Note_on_c, 1, 63, 127
2, 18000, Note_off_c, 1, 63, 0
2, 18000, Note_off_c, 1, 81, 0
2, 18040, Note_on_c, 1, 60, 127
2, 18040, Note_on_c, 1, 77, 127
2, 18400, Note_off_c, 1, 60, 0
2, 18440, Note_on_c, 1, 53, 127
2, 18640, Note_off_c, 1, 53, 0
2, 18640, Note_off_c, 1, 77, 0
2, 18680, Note_on_c, 1, 53, 127
2, 18680, Note_on_c, 1, 77, 127
2, 18840, Note_off_c, 1, 53, 0
2, 18880, Note_on_c, 1, 46, 127
2, 19240, Note_off_c, 1, 46, 0
2, 19280, Note_on_c, 1, 56, 127
2, 19640, Note_off_c, 1, 56, 0
2, 19640, Note_off_c, 1, 77, 0
2, 19680, Note_on_c, 1, 50, 127
2, 19680, Note_on_c, 1, 77, 127
2, 20040, Note_off_c, 1, 50, 0
2, 20080, Note_on_c, 1, 58, 127
2, 20440, Note_off_c, 1, 58, 0
2, 20440, Note_off_c, 1, 77, 0
2, 20480, Note_on_c, 1, 41, 127
2, 20480, Note_on_c, 1, 75, 127
2, 20800, Note_off_c, 1, 41, 0
2, 20800, Note_off_c, 1, 75, 0
2, 20840, Note_on_c, 1, 41, 127
2, 20840, Note_on_c, 1, 75, 127
2, 20880, Note_off_c, 1, 41, 0
2, 20880, Note_off_c, 1, 75, 0
2, 20920, Note_on_c, 1, 41, 127
2, 20920, Note_on_c, 1, 75, 127
2, 21280, Note_off_c, 1, 41, 0
2, 21280, Note_off_c, 1, 75, 0
2, 21320, Note_on_c, 1, 48, 127
2, 21320, Note_on_c, 1, 75, 127
2, 21680, Note_off_c, 1, 48, 0
2, 21720, Note_on_c, 1, 53, 127
2, 22080, Note_off_c, 1, 53, 0
2, 22080, Note_off_c, 1, 75, 0
2, 22120, Note_on_c, 1, 39, 127
2, 22120, Note_on_c, 1, 77, 127
2, 22480, Note_off_c, 1, 39, 0
2, 22480, Note_off_c, 1, 77, 0
2, 22520, Note_on_c, 1, 39, 127
2, 22520, Note_on_c, 1, 75, 127
2, 22880, Note_off_c, 1, 39, 0
2, 22920, Note_on_c, 1, 39, 127
2, 22920, Note_off_c, 1, 75, 0
2, 22920, Note_on_c, 1, 77, 127
2, 23120, Note_off_c, 1, 39, 0
2, 23120, Note_off_c, 1, 77, 0
2, 23160, Note_on_c, 1, 39, 127
2, 23160, Note_on_c, 1, 77, 127
2, 23320, Note_off_c, 1, 39, 0
2, 23320, Note_off_c, 1, 77, 0
2, 23360, Note_on_c, 1, 39, 127
2, 23360, Note_on_c, 1, 75, 127
2, 23720, Note_off_c, 1, 39, 0
2, 23760, Note_on_c, 1, 46, 127
2, 24120, Note_off_c, 1, 46, 0
2, 24160, Note_on_c, 1, 63, 127
2, 24520, Note_off_c, 1, 63, 0
2, 24520, Note_off_c, 1, 75, 0
2, 24560, Note_on_c, 1, 44, 127
2, 24560, Note_on_c, 1, 75, 127
2, 24920, Note_off_c, 1, 44, 0
2, 24960, Note_on_c, 1, 51, 127
2, 25360, Note_off_c, 1, 51, 0
2, 25360, Note_off_c, 1, 75, 0
2, 25440, Note_on_c, 1, 44, 127
2, 25440, Note_on_c, 1, 77, 127
2, 25760, Note_off_c, 1, 44, 0
2, 25800, Note_on_c, 1, 73, 127
2, 26160, Note_off_c, 1, 73, 0
2, 26200, Note_on_c, 1, 73, 127
2, 26560, Note_off_c, 1, 73, 0
2, 26560, Note_off_c, 1, 77, 0
2, 26600, Note_on_c, 1, 39, 127
2, 26960, Note_off_c, 1, 39, 0
2, 27000, Note_on_c, 1, 39, 127
2, 27000, Note_on_c, 1, 79, 127
2, 27360, Note_off_c, 1, 39, 0
2, 27400, Note_on_c, 1, 46, 127
2, 27720, Note_off_c, 1, 46, 0
2, 27720, Note_off_c, 1, 79, 0
2, 27760, Note_on_c, 1, 46, 127
2, 27760, Note_on_c, 1, 79, 127
2, 27800, Note_off_c, 1, 46, 0
2, 27840, Note_on_c, 1, 51, 127
2, 28200, Note_off_c, 1, 51, 0
2, 28240, Note_on_c, 1, 61, 127
2, 28600, Note_off_c, 1, 61, 0
2, 28640, Note_on_c, 1, 51, 127
2, 29000, Note_off_c, 1, 51, 0
2, 29000, Note_off_c, 1, 79, 0
2, 29040, Note_on_c, 1, 61, 127
2, 29040, Note_on_c, 1, 79, 127
2, 29400, Note_off_c, 1, 61, 0
2, 29440, Note_on_c, 1, 55, 127
2, 29800, Note_off_c, 1, 55, 0
2, 29800, Note_off_c, 1, 79, 0
2, 29880, Note_on_c, 1, 49, 127
2, 29880, Note_on_c, 1, 77, 127
2, 30200, Note_off_c, 1, 49, 0
2, 30240, Note_on_c, 1, 53, 127
2, 30600, Note_off_c, 1, 53, 0
2, 30640, Note_on_c, 1, 61, 127
2, 31000, Note_off_c, 1, 61, 0
2, 31040, Note_on_c, 1, 65, 127
2, 31400, Note_off_c, 1, 65, 0
2, 31400, Note_off_c, 1, 77, 0
2, 31440, Note_on_c, 1, 53, 127
2, 31440, Note_on_c, 1, 77, 127
2, 31800, Note_off_c, 1, 53, 0
2, 31840, Note_on_c, 1, 38, 127
2, 31920, Note_off_c, 1, 38, 0
2, 31920, Note_off_c, 1, 77, 0
2, 31960, Note_on_c, 1, 38, 127
2, 31960, Note_on_c, 1, 77, 127
2, 32240, Note_off_c, 1, 38, 0
2, 32240, Note_off_c, 1, 77, 0
2, 32280, Note_on_c, 1, 43, 127
2, 32280, Note_on_c, 1, 77, 127
2, 32640, Note_off_c, 1, 43, 0
2, 32640, Note_off_c, 1, 77, 0
2, 32680, Note_on_c, 1, 43, 127
2, 32680, Note_on_c, 1, 76, 127
2, 33040, Note_off_c, 1, 43, 0
2, 33080, Note_on_c, 1, 47, 127
2, 33440, Note_off_c, 1, 47, 0
2, 33480, Note_on_c, 1, 47, 127
2, 33840, Note_off_c, 1, 47, 0
2, 33880, Note_on_c, 1, 64, 127
2, 34240, Note_off_c, 1, 64, 0
2, 34240, Note_off_c, 1, 76, 0
2, 34280, Note_on_c, 1, 76, 127
2, 34320, Note_on_c, 1, 55, 127
2, 34680, Note_off_c, 1, 55, 0
2, 34720, Note_on_c, 1, 58, 127
2, 35080, Note_off_c, 1, 58, 0
2, 35120, Note_on_c, 1, 55, 127
2, 35480, Note_off_c, 1, 55, 0
2, 35520, Note_on_c, 1, 58, 127
2, 35880, Note_off_c, 1, 58, 0
2, 35880, Note_off_c, 1, 76, 0
2, 35920, Note_on_c, 1, 72, 127
2, 36280, Note_off_c, 1, 72, 0
2, 36360, Note_on_c, 1, 43, 127
2, 36360, Note_on_c, 1, 77, 127
2, 36720, Note_off_c, 1, 43, 0
2, 36760, Note_on_c, 1, 52, 127
2, 37120, Note_off_c, 1, 52, 0
2, 37120, Note_off_c, 1, 77, 0
2, 37160, Note_on_c, 1, 60, 127
2, 37160, Note_on_c, 1, 76, 127
2, 37520, Note_off_c, 1, 60, 0
2, 37520, Note_off_c, 1, 76, 0
2, 37560, Note_on_c, 1, 45, 127
2, 37560, Note_on_c, 1, 77, 127
2, 37920, Note_off_c, 1, 45, 0
2, 37960, Note_on_c, 1, 38, 127
2, 38360, Note_off_c, 1, 38, 0
2, 38400, Note_off_c, 1, 77, 0
2, 38440, Note_on_c, 1, 44, 127
2, 38440, Note_on_c, 1, 77, 127
2, 38800, Note_off_c, 1, 44, 0
2, 38840, Note_on_c, 1, 49, 127
2, 39200, Note_off_c, 1, 49, 0
2, 39240, Note_on_c, 1, 68, 127
2, 39600, Note_off_c, 1, 68, 0
2, 39600, Note_off_c, 1, 77, 0
2, 39640, Note_on_c, 1, 49, 127
2, 39640, Note_on_c, 1, 77, 127
2, 40000, Note_off_c, 1, 49, 0
2, 40040, Note_on_c, 1, 48, 127
2, 40400, Note_off_c, 1, 48, 0
2, 40440, Note_on_c, 1, 65, 127
2, 40640, Note_off_c, 1, 65, 0
2, 40640, Note_off_c, 1, 77, 0
2, 40680, Note_on_c, 1, 65, 127
2, 40680, Note_on_c, 1, 77, 127
2, 40840, Note_off_c, 1, 65, 0
2, 40840, Note_off_c, 1, 77, 0
2, 40880, Note_on_c, 1, 58, 127
2, 40880, Note_on_c, 1, 79, 127
2, 41240, Note_off_c, 1, 58, 0
2, 41280, Note_on_c, 1, 67, 127
2, 41640, Note_off_c, 1, 67, 0
2, 41680, Note_on_c, 1, 48, 127
2, 42040, Note_off_c, 1, 48, 0
2, 42080, Note_on_c, 1, 67, 127
2, 42440, Note_off_c, 1, 67, 0
2, 42480, Note_on_c, 1, 70, 127
2, 42880, Note_off_c, 1, 70, 0
2, 42880, Note_on_c, 1, 77, 127
2, 42880, Note_off_c, 1, 79, 0
2, 42920, Note_off_c, 1, 77, 0
2, 42960, Note_on_c, 1, 46, 127
2, 42960, Note_on_c, 1, 77, 127
2, 43320, Note_off_c, 1, 46, 0
2, 43320, Note_on_c, 1, 75, 127
2, 43320, Note_off_c, 1, 77, 0
2, 43360, Note_on_c, 1, 53, 127
2, 43720, Note_off_c, 1, 53, 0
2, 43760, Note_on_c, 1, 67, 127
2, 44120, Note_off_c, 1, 67, 0
2, 44160, Note_on_c, 1, 51, 127
2, 44520, Note_off_c, 1, 51, 0
2, 44560, Note_on_c, 1, 60, 127
2, 44920, Note_off_c, 1, 60, 0
2, 44960, Note_on_c, 1, 63, 127
2, 45160, Note_off_c, 1, 63, 0
2, 45160, Note_off_c, 1, 75, 0
2, 45200, Note_on_c, 1, 63, 127
2, 45200, Note_on_c, 1, 75, 127
2, 45360, Note_off_c, 1, 63, 0
2, 45360, Note_off_c, 1, 75, 0
2, 45400, Note_on_c, 1, 41, 127
2, 45400, Note_on_c, 1, 74, 127
2, 45760, Note_off_c, 1, 41, 0
2, 45800, Note_on_c, 1, 58, 127
2, 46160, Note_off_c, 1, 58, 0
2, 46160, Note_off_c, 1, 74, 0
2, 46200, Note_on_c, 1, 46, 127
2, 46200, Note_on_c, 1, 74, 127
2, 46560, Note_off_c, 1, 46, 0
2, 46600, Note_on_c, 1, 50, 127
2, 46960, Note_off_c, 1, 50, 0
2, 47000, Note_on_c, 1, 58, 127
2, 47360, Note_off_c, 1, 58, 0
2, 47360, Note_off_c, 1, 74, 0
2, 47440, Note_on_c, 1, 58, 127
2, 47440, Note_on_c, 1, 84, 127
2, 47800, Note_off_c, 1, 58, 0
2, 47840, Note_on_c, 1, 55, 127
2, 47840, Note_on_c, 1, 82, 127
2, 47840, Note_off_c, 1, 84, 0
2, 48200, Note_off_c, 1, 55, 0
2, 48240, Note_on_c, 1, 58, 127
2, 48600, Note_off_c, 1, 58, 0
2, 48600, Note_off_c, 1, 82, 0
2, 48640, Note_on_c, 1, 62, 127
2, 48640, Note_on_c, 1, 80, 127
2, 49000, Note_off_c, 1, 62, 0
2, 49000, Note_off_c, 1, 80, 0
2, 49040, Note_on_c, 1, 58, 127
2, 49040, Note_on_c, 1, 77, 127
2, 49400, Note_off_c, 1, 58, 0
2, 49400, Note_off_c, 1, 77, 0
2, 49440, Note_on_c, 1, 59, 127
2, 49440, Note_on_c, 1, 76, 127
2, 49760, Note_off_c, 1, 59, 0
2, 49760, Note_off_c, 1, 76, 0
2, 49800, Note_on_c, 1, 59, 127
2, 49800, Note_on_c, 1, 76, 127
2, 49840, Note_off_c, 1, 59, 0
2, 49840, Note_off_c, 1, 76, 0
2, 49880, Note_on_c, 1, 46, 127
2, 49880, Note_on_c, 1, 74, 127
2, 50240, Note_off_c, 1, 46, 0
2, 50240, Note_off_c, 1, 74, 0
2, 50280, Note_on_c, 1, 58, 127
2, 50280, Note_on_c, 1, 86, 127
2, 50640, Note_off_c, 1, 58, 0
2, 50640, Note_off_c, 1, 86, 0
2, 50680, Note_on_c, 1, 63, 127
2, 50680, Note_on_c, 1, 84, 127
2, 51040, Note_off_c, 1, 63, 0
2, 51080, Note_on_c, 1, 57, 127
2, 51440, Note_off_c, 1, 57, 0
2, 51480, Note_on_c, 1, 48, 127
2, 51840, Note_off_c, 1, 48, 0
2, 51880, Note_on_c, 1, 41, 127
2, 52200, Note_off_c, 1, 41, 0
2, 52200, Note_off_c, 1, 84, 0
2, 52240, Note_on_c, 1, 41, 127
2, 52240, Note_on_c, 1, 84, 127
2, 52280, Note_off_c, 1, 41, 0
2, 52280, Note_off_c, 1, 84, 0
2, 52320, Note_on_c, 1, 41, 127
2, 52320, Note_on_c, 1, 82, 127
2, 52680, Note_off_c, 1, 41, 0
2, 52680, Note_off_c, 1, 82, 0
2, 52720, Note_on_c, 1, 41, 127
2, 52720, Note_on_c, 1, 82, 127
2, 53080, Note_off_c, 1, 41, 0
2, 53120, Note_on_c, 1, 48, 127
2, 53480, Note_off_c, 1, 48, 0
2, 53520, Note_on_c, 1, 53, 127
2, 53880, Note_off_c, 1, 53, 0
2, 53880, Note_off_c, 1, 82, 0
2, 53920, Note_on_c, 1, 58, 127
2, 53920, Note_on_c, 1, 86, 127
2, 54280, Note_off_c, 1, 58, 0
2, 54320, Note_off_c, 1, 86, 0
2, 54360, Note_on_c, 1, 57, 127
2, 54360, Note_on_c, 1, 86, 127
2, 54720, Note_off_c, 1, 57, 0
2, 54720, Note_off_c, 1, 86, 0
2, 54760, Note_on_c, 1, 53, 127
2, 54760, Note_on_c, 1, 81, 127
2, 55120, Note_off_c, 1, 53, 0
2, 55160, Note_on_c, 1, 58, 127
2, 55520, Note_off_c, 1, 58, 0
2, 55520, Note_off_c, 1, 81, 0
2, 55560, Note_on_c, 1, 41, 127
2, 55560, Note_on_c, 1, 81, 127
2, 55920, Note_off_c, 1, 41, 0
2, 55960, Note_on_c, 1, 41, 127
2, 56320, Note_off_c, 1, 41, 0
2, 56320, Note_off_c, 1, 81, 0
2, 56360, Note_on_c, 1, 48, 127
2, 56360, Note_on_c, 1, 81, 127
2, 56680, Note_off_c, 1, 48, 0
2, 56680, Note_off_c, 1, 81, 0
2, 56720, Note_on_c, 1, 48, 127
2, 56720, Note_on_c, 1, 81, 127
2, 56760, Note_off_c, 1, 48, 0
2, 56800, Note_on_c, 1, 53, 127
2, 57160, Note_off_c, 1, 53, 0
2, 57200, Note_on_c, 1, 65, 127
2, 57560, Note_off_c, 1, 65, 0
2, 57560, Note_off_c, 1, 81, 0
2, 57600, Note_on_c, 1, 45, 127
2, 57600, Note_on_c, 1, 81, 127
2, 57960, Note_off_c, 1, 45, 0
2, 58000, Note_on_c, 1, 57, 127
2, 58360, Note_off_c, 1, 57, 0
2, 58400, Note_on_c, 1, 65, 127
2, 58760, Note_off_c, 1, 65, 0
2, 58760, Note_off_c, 1, 81, 0
2, 58800, Note_on_c, 1, 46, 127
2, 58800, Note_on_c, 1, 82, 127
2, 59000, Note_off_c, 1, 46, 0
2, 59000, Note_off_c, 1, 82, 0
2, 59040, Note_on_c, 1, 46, 127
2, 59040, Note_on_c, 1, 82, 127
2, 59200, Note_off_c, 1, 46, 0
2, 59240, Note_on_c, 1, 55, 127
2, 59600, Note_off_c, 1, 55, 0
2, 59600, Note_off_c, 1, 82, 0
2, 59640, Note_on_c, 1, 48, 127
2, 59640, Note_on_c, 1, 81, 127
2, 60000, Note_off_c, 1, 48, 0
2, 60040, Note_on_c, 1, 57, 127
2, 60400, Note_off_c, 1, 57, 0
2, 60400, Note_off_c, 1, 81, 0
2, 60440, Note_on_c, 1, 49, 127
2, 60440, Note_on_c, 1, 82, 127
2, 60800, Note_off_c, 1, 49, 0
2, 60840, Note_on_c, 1, 53, 127
2, 61040, Note_off_c, 1, 53, 0
2, 61040, Note_off_c, 1, 82, 0
2, 61080, Note_on_c, 1, 53, 127
2, 61080, Note_on_c, 1, 82, 127
2, 61240, Note_off_c, 1, 53, 0
2, 61280, Note_on_c, 1, 58, 127
2, 61280, Note_on_c, 1, 81, 127
2, 61280, Note_off_c, 1, 82, 0
2, 61640, Note_off_c, 1, 58, 0
2, 61640, Note_off_c, 1, 81, 0
2, 61680, Note_on_c, 1, 45, 127
2, 61680, Note_on_c, 1, 79, 127
2, 62040, Note_off_c, 1, 45, 0
2, 62040, Note_off_c, 1, 79, 0
2, 62080, Note_on_c, 1, 46, 127
2, 62080, Note_on_c, 1, 79, 127
2, 62440, Note_off_c, 1, 46, 0
2, 62480, Note_on_c, 1, 50, 127
2, 62840, Note_off_c, 1, 50, 0
2, 62840, Note_off_c, 1, 79, 0
2, 62880, Note_on_c, 1, 53, 127
2, 62880, Note_on_c, 1, 81, 127
2, 63240, Note_off_c, 1, 53, 0
2, 63280, Note_off_c, 1, 81, 0
2, 63320, Note_on_c, 1, 53, 127
2, 63320, Note_on_c, 1, 81, 127
2, 63680, Note_off_c, 1, 53, 0
2, 63720, Note_on_c, 1, 46, 127
2, 64080, Note_off_c, 1, 46, 0
2, 64080, Note_off_c, 1, 81, 0
2, 64120, Note_on_c, 1, 49, 127
2, 64120, Note_on_c, 1, 82, 127
2, 64480, Note_off_c, 1, 49, 0
2, 64520, Note_on_c, 1, 46, 127
2, 64880, Note_off_c, 1, 46, 0
2, 64880, Note_off_c, 1, 82, 0
2, 64920, Note_on_c, 1, 44, 127
2, 64920, Note_on_c, 1, 77, 127
2, 65280, Note_off_c, 1, 44, 0
2, 65320, Note_on_c, 1, 49, 127
2, 65600, Note_off_c, 1, 49, 0
2, 65600, Note_off_c, 1, 77, 0
2, 65640, Note_on_c, 1, 49, 127
2, 65640, Note_on_c, 1, 77, 127
2, 65720, Note_off_c, 1, 49, 0
2, 65760, Note_on_c, 1, 53, 127
2, 66120, Note_off_c, 1, 53, 0
2, 66160, Note_on_c, 1, 48, 127
2, 66520, Note_off_c, 1, 48, 0
2, 66520, Note_off_c, 1, 77, 0
2, 66560, Note_on_c, 1, 41, 127
2, 66560, Note_on_c, 1, 82, 127
2, 66920, Note_off_c, 1, 41, 0
2, 66920, Note_off_c, 1, 82, 0
2, 66960, Note_on_c, 1, 48, 127
2, 66960, Note_on_c, 1, 79, 127
2, 67320, Note_off_c, 1, 48, 0
2, 67360, Note_on_c, 1, 58, 127
2, 67720, Note_off_c, 1, 58, 0
2, 67720, Note_off_c, 1, 79, 0
2, 67760, Note_on_c, 1, 49, 127
2, 67760, Note_on_c, 1, 79, 127
2, 68120, Note_off_c, 1, 49, 0
2, 68120, Note_off_c, 1, 79, 0
2, 68160, Note_on_c, 1, 79, 127
2, 68200, Note_on_c, 1, 49, 127
2, 68560, Note_off_c, 1, 49, 0
2, 68560, Note_off_c, 1, 79, 0
2, 68600, Note_on_c, 1, 48, 127
2, 68600, Note_on_c, 1, 77, 127
2, 68960, Note_off_c, 1, 48, 0
2, 69000, Note_on_c, 1, 41, 127
2, 69360, Note_off_c, 1, 41, 0
2, 69400, Note_on_c, 1, 48, 127
2, 69760, Note_off_c, 1, 48, 0
2, 69800, Note_on_c, 1, 41, 127
2, 69800, Note_off_c, 1, 77, 0
2, 69800, Note_on_c, 1, 79, 127
2, 70160, Note_off_c, 1, 41, 0
2, 70200, Note_on_c, 1, 48, 127
2, 70520, Note_off_c, 1, 48, 0
2, 70520, Note_off_c, 1, 79, 0
2, 70560, Note_on_c, 1, 48, 127
2, 70560, Note_on_c, 1, 79, 127
2, 70600, Note_off_c, 1, 48, 0
2, 70640, Note_on_c, 1, 48, 127
2, 71000, Note_off_c, 1, 48, 0
2, 71040, Note_on_c, 1, 55, 127
2, 71400, Note_off_c, 1, 55, 0
2, 71400, Note_off_c, 1, 79, 0
2, 71440, Note_on_c, 1, 53, 127
2, 71440, Note_on_c, 1, 77, 127
2, 71800, Note_off_c, 1, 53, 0
2, 71840, Note_on_c, 1, 60, 127
2, 72200, Note_off_c, 1, 60, 0
2, 72200, Note_off_c, 1, 77, 0
2, 72240, Note_on_c, 1, 41, 127
2, 72240, Note_on_c, 1, 77, 127
2, 72600, Note_off_c, 1, 41, 0
2, 72640, Note_on_c, 1, 48, 127
2, 73000, Note_off_c, 1, 48, 0
2, 73000, Note_off_c, 1, 77, 0
2, 73040, Note_on_c, 1, 77, 127
2, 73080, Note_on_c, 1, 48, 127
2, 73440, Note_off_c, 1, 48, 0
2, 73480, Note_on_c, 1, 65, 127
2, 73840, Note_off_c, 1, 65, 0
2, 73880, Note_on_c, 1, 56, 127
2, 74240, Note_off_c, 1, 56, 0
2, 74280, Note_on_c, 1, 65, 127
2, 74680, Note_off_c, 1, 65, 0
2, 74720, Note_on_c, 1, 55, 127
2, 74720, Note_on_c, 1, 58, 127
2, 74720, Note_on_c, 1, 62, 127
2, 74720, Note_on_c, 1, 67, 127
2, 74720, Note_on_c, 1, 70, 127
2, 74720, Note_off_c, 1, 77, 0
2, 75280, Note_off_c, 1, 55, 0
2, 75280, Note_off_c, 1, 58, 0
2, 75280, Note_off_c, 1, 62, 0
2, 75280, Note_off_c, 1, 67, 0
2, 75280, Note_off_c, 1, 70, 0
2, 75320, Note_on_c, 1, 55, 127
2, 75320, Note_on_c, 1, 58, 127
2, 75320, Note_on_c, 1, 62, 127
2, 75320, Note_on_c, 1, 67, 127
2, 75320, Note_on_c, 1, 70, 127
2, 77560, Note_off_c, 1, 55, 0
2, 77560, Note_off_c, 1, 58, 0
2, 77560, Note_off_c, 1, 62, 0
2, 77560, Note_off_c, 1, 67, 0
2, 77560, Note_off_c, 1, 70, 0
2, 77640, Note_on_c, 1, 48, 127
2, 77640, Note_on_c, 1, 72, 127
2, 78040, Note_off_c, 1, 48, 0
2, 78040, Note_off_c, 1, 72, 0
2, 78080, Note_on_c, 1, 52, 127
2, 78080, Note_on_c, 1, 70, 127
2, 78840, Note_off_c, 1, 52, 0
2, 78840, Note_off_c, 1, 70, 0
2, 78880, Note_on_c, 1, 60, 127
2, 79240, Note_off_c, 1, 60, 0
2, 79280, Note_on_c, 1, 60, 127
2, 79640, Note_off_c, 1, 60, 0
2, 79720, Note_on_c, 1, 48, 127
2, 80080, Note_off_c, 1, 48, 0
2, 80120, Note_on_c, 1, 48, 127
2, 80480, Note_off_c, 1, 48, 0
2, 80560, Note_on_c, 1, 43, 127
2, 80920, Note_off_c, 1, 43, 0
2, 80960, Note_on_c, 1, 48, 127
2, 81320, Note_off_c, 1, 48, 0
2, 81360, Note_on_c, 1, 51, 127
2, 81760, Note_off_c, 1, 51, 0
2, 81800, Note_on_c, 1, 48, 127
2, 82000, Note_off_c, 1, 48, 0
2, 82040, Note_on_c, 1, 48, 127
2, 82200, Note_off_c, 1, 48, 0
2, 82240, Note_on_c, 1, 51, 127
2, 82600, Note_off_c, 1, 51, 0
2, 82640, Note_on_c, 1, 55, 127
2, 83000, Note_off_c, 1, 55, 0
2, 83040, Note_on_c, 1, 60, 127
2, 83400, Note_off_c, 1, 60, 0
2, 83440, Note_on_c, 1, 52, 127
2, 84240, Note_off_c, 1, 52, 0
2, 84280, Note_on_c, 1, 48, 127
2, 84360, Note_off_c, 1, 48, 0
2, 84400, Note_on_c, 1, 48, 127
2, 84680, Note_off_c, 1, 48, 0
2, 84720, Note_on_c, 1, 52, 127
2, 85520, Note_off_c, 1, 52, 0
2, 85560, Note_on_c, 1, 48, 127
2, 85920, Note_off_c, 1, 48, 0
2, 85960, Note_on_c, 1, 52, 127
2, 86320, Note_off_c, 1, 52, 0
2, 86360, Note_on_c, 1, 58, 127
2, 86560, Note_off_c, 1, 58, 0
2, 86600, Note_on_c, 1, 58, 127
2, 86760, Note_off_c, 1, 58, 0
2, 86800, Note_on_c, 1, 55, 127
2, 87160, Note_off_c, 1, 55, 0
2, 87200, Note_on_c, 1, 55, 127
2, 87960, Note_off_c, 1, 55, 0
2, 88000, Note_on_c, 1, 60, 127
2, 88360, Note_off_c, 1, 60, 0
2, 88400, Note_on_c, 1, 52, 127
2, 88800, Note_off_c, 1, 52, 0
2, 88880, Note_on_c, 1, 61, 127
2, 89240, Note_off_c, 1, 61, 0
2, 89280, Note_on_c, 1, 64, 127
2, 89640, Note_off_c, 1, 64, 0
2, 89680, Note_on_c, 1, 60, 127
2, 90440, Note_off_c, 1, 60, 0
2, 90480, Note_on_c, 1, 57, 127
2, 90840, Note_off_c, 1, 57, 0
2, 90880, Note_on_c, 1, 60, 127
2, 91320, Note_off_c, 1, 60, 0
2, 91360, Note_on_c, 1, 60, 127
2, 91680, Note_off_c, 1, 60, 0
2, 91720, Note_on_c, 1, 64, 127
2, 92080, Note_off_c, 1, 64, 0
2, 92120, Note_on_c, 1, 60, 127
2, 92480, Note_off_c, 1, 60, 0
2, 92520, Note_on_c, 1, 59, 127
2, 92920, Note_off_c, 1, 59, 0
2, 92920, Note_on_c, 1, 60, 127
2, 93320, Note_off_c, 1, 60, 0
2, 93360, Note_on_c, 1, 60, 127
2, 93560, Note_off_c, 1, 60, 0
2, 93600, Note_on_c, 1, 60, 127
2, 94560, Note_off_c, 1, 60, 0
2, 94600, Note_on_c, 1, 60, 127
2, 96440, Note_off_c, 1, 60, 0
2, 96480, Note_on_c, 1, 60, 127
2, 98240, Note_off_c, 1, 60, 0
2, 98280, Note_on_c, 1, 59, 127
2, 98720, Note_off_c, 1, 59, 0
2, 98760, Note_on_c, 1, 59, 127
2, 99120, Note_off_c, 1, 59, 0
2, 99160, Note_on_c, 1, 55, 127
2, 99520, Note_off_c, 1, 55, 0
2, 99560, Note_on_c, 1, 52, 127
2, 99960, Note_off_c, 1, 52, 0
2, 99960, Note_on_c, 1, 55, 127
2, 100320, Note_off_c, 1, 55, 0
2, 100360, Note_on_c, 1, 60, 127
2, 101160, Note_off_c, 1, 60, 0
2, 101240, Note_on_c, 1, 60, 127
2, 102400, Note_off_c, 1, 60, 0
2, 102440, Note_on_c, 1, 64, 127
2, 102800, Note_off_c, 1, 64, 0
2, 102840, Note_on_c, 1, 60, 127
2, 103200, Note_off_c, 1, 60, 0
2, 103240, Note_on_c, 1, 59, 127
2, 103600, Note_off_c, 1, 59, 0
2, 103640, Note_on_c, 1, 55, 127
2, 104360, Note_off_c, 1, 55, 0
2, 104400, Note_on_c, 1, 55, 127
2, 104440, Note_off_c, 1, 55, 0
2, 104480, Note_on_c, 1, 48, 127
2, 104840, Note_off_c, 1, 48, 0
2, 104880, Note_on_c, 1, 52, 127
2, 105240, Note_off_c, 1, 52, 0
2, 105280, Note_on_c, 1, 55, 127
2, 105640, Note_off_c, 1, 55, 0
2, 105680, Note_on_c, 1, 59, 127
2, 106040, Note_off_c, 1, 59, 0
2, 106080, Note_on_c, 1, 64, 127
2, 106440, Note_off_c, 1, 64, 0
2, 106480, Note_on_c, 1, 60, 127
2, 106840, Note_off_c, 1, 60, 0
2, 106880, Note_on_c, 1, 64, 127
2, 107480, Note_off_c, 1, 64, 0
2, 107520, Note_on_c, 1, 64, 127
2, 108120, Note_off_c, 1, 64, 0
2, 108160, Note_on_c, 1, 64, 127
2, 108520, Note_off_c, 1, 64, 0
2, 108560, Note_on_c, 1, 60, 127
2, 108920, Note_off_c, 1, 60, 0
2, 108960, Note_on_c, 1, 64, 127
2, 109720, Note_off_c, 1, 64, 0
2, 109800, Note_on_c, 1, 60, 127
2, 110160, Note_off_c, 1, 60, 0
2, 110200, Note_on_c, 1, 60, 127
2, 110960, Note_off_c, 1, 60, 0
2, 111000, Note_on_c, 1, 52, 127
2, 111360, Note_off_c, 1, 52, 0
2, 111400, Note_on_c, 1, 55, 127
2, 111760, Note_off_c, 1, 55, 0
2, 111800, Note_on_c, 1, 57, 127
2, 112120, Note_off_c, 1, 57, 0
2, 112160, Note_on_c, 1, 57, 127
2, 112200, Note_off_c, 1, 57, 0
2, 112240, Note_on_c, 1, 60, 127
2, 112600, Note_off_c, 1, 60, 0
2, 112640, Note_on_c, 1, 57, 127
2, 113000, Note_off_c, 1, 57, 0
2, 113040, Note_on_c, 1, 60, 127
2, 113400, Note_off_c, 1, 60, 0
2, 113440, Note_on_c, 1, 60, 127
2, 113800, Note_off_c, 1, 60, 0
2, 113840, Note_on_c, 1, 57, 127
2, 114200, Note_off_c, 1, 57, 0
2, 114240, Note_on_c, 1, 60, 127
2, 114560, Note_off_c, 1, 60, 0
2, 114600, Note_on_c, 1, 60, 127
2, 114640, Note_off_c, 1, 60, 0
2, 114680, Note_on_c, 1, 57, 127
2, 115040, Note_off_c, 1, 57, 0
2, 115080, Note_on_c, 1, 60, 127
2, 115440, Note_off_c, 1, 60, 0
2, 115480, Note_on_c, 1, 57, 127
2, 115840, Note_off_c, 1, 57, 0
2, 115880, Note_on_c, 1, 60, 127
2, 116240, Note_off_c, 1, 60, 0
2, 116280, Note_on_c, 1, 57, 127
2, 116640, Note_off_c, 1, 57, 0
2, 116680, Note_on_c, 1, 59, 127
2, 116880, Note_off_c, 1, 59, 0
2, 116920, Note_on_c, 1, 59, 127
2, 117040, Note_off_c, 1, 59, 0
2, 117080, Note_on_c, 1, 60, 127
2, 117840, Note_off_c, 1, 60, 0
2, 117880, Note_on_c, 1, 59, 127
2, 118240, Note_off_c, 1, 59, 0
2, 118280, Note_on_c, 1, 57, 127
2, 118640, Note_off_c, 1, 57, 0
2, 118680, Note_on_c, 1, 48, 127
2, 119040, Note_off_c, 1, 48, 0
2, 119120, Note_on_c, 1, 36, 127
2, 119480, Note_off_c, 1, 36, 0
2, 119520, Note_on_c, 1, 36, 127
2, 119880, Note_off_c, 1, 36, 0
2, 119920, Note_on_c, 1, 43, 127
2, 120000, Note_off_c, 1, 43, 0
2, 120040, End_track
3, 0, Start_track
3, 0, Title_t, "MIDI"
3, 1536, End_track
0, 0, End_of_file
