0, 0, Header, 1, 3, 192
1, 0, Start_track
1, 0, Time_signature, 4, 2, 24, 8
1, 0, Tempo, 500000
1, 120040, End_track
2, 0, Start_track
2, 0, Text_t, "random instrument: random person i dunno whatev"
2, 0, Title_t, "Track 1"
2, 0, Note_on_c, 1, 58, 127
2, 0, Note_on_c, 1, 66, 127
2, 0, Note_on_c, 1, 78, 127
2, 0, Note_on_c, 1, 82, 127
2, 0, Note_on_c, 1, 90, 127
2, 40, Note_off_c, 1, 58, 0
2, 40, Note_on_c, 1, 59, 127
2, 40, Note_off_c, 1, 66, 0
2, 40, Note_on_c, 1, 74, 127
2, 40, Note_off_c, 1, 82, 0
2, 40, Note_on_c, 1, 83, 127
2, 40, Note_on_c, 1, 86, 127
2, 40, Note_off_c, 1, 90, 0
2, 80, Note_on_c, 1, 49, 127
2, 80, Note_on_c, 1, 56, 127
2, 80, Note_off_c, 1, 59, 0
2, 80, Note_on_c, 1, 61, 127
2, 80, Note_off_c, 1, 74, 0
2, 80, Note_on_c, 1, 76, 127
2, 80, Note_off_c, 1, 78, 0
2, 80, Note_on_c, 1, 80, 127
2, 80, Note_off_c, 1, 83, 0
2, 80, Note_on_c, 1, 85, 127
2, 80, Note_off_c, 1, 86, 0
2, 120, Note_off_c, 1, 49, 0
2, 120, Note_off_c, 1, 56, 0
2, 120, Note_on_c, 1, 58, 127
2, 120, Note_off_c, 1, 61, 0
2, 120, Note_on_c, 1, 66, 127
2, 120, Note_off_c, 1, 76, 0
2, 120, Note_on_c, 1, 78, 127
2, 120, Note_off_c, 1, 80, 0
2, 120, Note_on_c, 1, 82, 127
2, 120, Note_off_c, 1, 85, 0
2, 120, Note_on_c, 1, 90, 127
2, 160, Note_off_c, 1, 58, 0
2, 160, Note_off_c, 1, 66, 0
2, 160, Note_off_c, 1, 78, 0
2, 160, Note_off_c, 1, 82, 0
2, 160, Note_off_c, 1, 90, 0
2, 200, Note_on_c, 1, 35, 127
2, 200, Note_on_c, 1, 39, 127
2, 200, Note_on_c, 1, 47, 127
2, 200, Note_on_c, 1, 50, 127
2, 240, Note_off_c, 1, 35, 0
2, 240, Note_off_c, 1, 39, 0
2, 240, Note_off_c, 1, 47, 0
2, 240, Note_off_c, 1, 50, 0
2, 240, Note_on_c, 1, 58, 127
2, 240, Note_on_c, 1, 64, 127
2, 240, Note_on_c, 1, 66, 127
2, 240, Note_on_c, 1, 73, 127
2, 240, Note_on_c, 1, 85, 127
2, 280, Note_on_c, 1, 35, 127
2, 280, Note_on_c, 1, 47, 127
2, 280, Note_off_c, 1, 58, 0
2, 280, Note_off_c, 1, 64, 0
2, 280, Note_off_c, 1, 66, 0
2, 280, Note_off_c, 1, 73, 0
2, 280, Note_on_c, 1, 78, 127
2, 280, Note_on_c, 1, 81, 127
2, 280, Note_on_c, 1, 83, 127
2, 280, Note_off_c, 1, 85, 0
2, 280, Note_on_c, 1, 87, 127
2, 320, Note_off_c, 1, 35, 0
2, 320, Note_off_c, 1, 47, 0
2, 320, Note_on_c, 1, 58, 127
2, 320, Note_on_c, 1, 64, 127
2, 320, Note_on_c, 1, 66, 127
2, 320, Note_on_c, 1, 73, 127
2, 320, Note_off_c, 1, 78, 0
2, 320, Note_off_c, 1, 81, 0
2, 320, Note_off_c, 1, 83, 0
2, 320, Note_on_c, 1, 85, 127
2, 320, Note_off_c, 1, 87, 0
2, 400, Note_off_c, 1, 58, 0
2, 400, Note_off_c, 1, 64, 0
2, 400, Note_off_c, 1, 66, 0
2, 400, Note_off_c, 1, 73, 0
2, 400, Note_off_c, 1, 85, 0
2, 480, Note_on_c, 1, 56, 127
2, 480, Note_on_c, 1, 58, 127
2, 480, Note_on_c, 1, 62, 127
2, 480, Note_on_c, 1, 67, 127
2, 520, Note_off_c, 1, 56, 0
2, 520, Note_off_c, 1, 58, 0
2, 520, Note_on_c, 1, 60, 127
2, 520, Note_off_c, 1, 62, 0
2, 520, Note_off_c, 1, 67, 0
2, 520, Note_on_c, 1, 70, 127
2, 520, Note_on_c, 1, 75, 127
2, 520, Note_on_c, 1, 78, 127
2, 520, Note_on_c, 1, 87, 127
2, 560, Note_on_c, 1, 41, 127
2, 560, Note_on_c, 1, 53, 127
2, 560, Note_on_c, 1, 63, 127
2, 560, Note_off_c, 1, 70, 0
2, 560, Note_off_c, 1, 75, 0
2, 560, Note_off_c, 1, 78, 0
2, 560, Note_off_c, 1, 87, 0
2, 600, Note_off_c, 1, 41, 0
2, 600, Note_on_c, 1, 46, 127
2, 600, Note_on_c, 1, 50, 127
2, 600, Note_off_c, 1, 60, 0
2, 600, Note_off_c, 1, 63, 0
2, 600, Note_on_c, 1, 72, 127
2, 640, Note_off_c, 1, 46, 0
2, 640, Note_off_c, 1, 50, 0
2, 640, Note_off_c, 1, 53, 0
2, 640, Note_on_c, 1, 56, 127
2, 640, Note_on_c, 1, 61, 127
2, 640, Note_on_c, 1, 64, 127
2, 640, Note_on_c, 1, 67, 127
2, 640, Note_off_c, 1, 72, 0
2, 640, Note_on_c, 1, 73, 127
2, 680, Note_off_c, 1, 61, 0
2, 680, Note_on_c, 1, 63, 127
2, 680, Note_off_c, 1, 64, 0
2, 680, Note_on_c, 1, 65, 127
2, 680, Note_off_c, 1, 67, 0
2, 680, Note_off_c, 1, 73, 0
2, 720, Note_on_c, 1, 41, 127
2, 720, Note_on_c, 1, 51, 127
2, 720, Note_on_c, 1, 53, 127
2, 720, Note_off_c, 1, 56, 0
2, 720, Note_off_c, 1, 63, 0
2, 720, Note_off_c, 1, 65, 0
2, 720, Note_on_c, 1, 72, 127
2, 920, Note_off_c, 1, 41, 0
2, 920, Note_off_c, 1, 51, 0
2, 920, Note_off_c, 1, 53, 0
2, 920, Note_off_c, 1, 72, 0
2, 960, Note_on_c, 1, 34, 127
2, 960, Note_on_c, 1, 82, 127
2, 960, Note_on_c, 1, 86, 127
2, 1000, Note_off_c, 1, 34, 0
2, 1000, Note_on_c, 1, 77, 127
2, 1000, Note_off_c, 1, 82, 0
2, 1000, Note_off_c, 1, 86, 0
2, 1000, Note_on_c, 1, 87, 127
2, 1000, Note_on_c, 1, 89, 127
2, 1040, Note_on_c, 1, 58, 127
2, 1040, Note_on_c, 1, 61, 127
2, 1040, Note_on_c, 1, 65, 127
2, 1040, Note_off_c, 1, 77, 0
2, 1040, Note_off_c, 1, 87, 0
2, 1080, Note_on_c, 1, 34, 127
2, 1080, Note_off_c, 1, 58, 0
2, 1080, Note_off_c, 1, 61, 0
2, 1080, Note_off_c, 1, 65, 0
2, 1080, Note_on_c, 1, 82, 127
2, 1080, Note_on_c, 1, 86, 127
2, 1080, Note_off_c, 1, 89, 0
2, 1120, Note_off_c, 1, 34, 0
2, 1120, Note_on_c, 1, 46, 127
2, 1120, Note_off_c, 1, 82, 0
2, 1120, Note_off_c, 1, 86, 0
2, 1160, Note_off_c, 1, 46, 0
2, 1200, Note_on_c, 1, 41, 127
2, 1200, Note_on_c, 1, 46, 127
2, 1200, Note_on_c, 1, 80, 127
2, 1280, Note_on_c, 1, 34, 127
2, 1280, Note_off_c, 1, 41, 0
2, 1280, Note_off_c, 1, 46, 0
2, 1280, Note_on_c, 1, 69, 127
2, 1280, Note_on_c, 1, 75, 127
2, 1280, Note_off_c, 1, 80, 0
2, 1320, Note_off_c, 1, 34, 0
2, 1320, Note_on_c, 1, 41, 127
2, 1320, Note_on_c, 1, 46, 127
2, 1320, Note_off_c, 1, 69, 0
2, 1320, Note_off_c, 1, 75, 0
2, 1320, Note_on_c, 1, 80, 127
2, 1360, Note_on_c, 1, 39, 127
2, 1360, Note_off_c, 1, 41, 0
2, 1360, Note_off_c, 1, 80, 0
2, 1360, Note_on_c, 1, 89, 127
2, 1360, Note_on_c, 1, 92, 127
2, 1400, Note_off_c, 1, 39, 0
2, 1400, Note_off_c, 1, 46, 0
2, 1400, Note_on_c, 1, 82, 127
2, 1400, Note_off_c, 1, 89, 0
2, 1400, Note_off_c, 1, 92, 0
2, 1440, Note_on_c, 1, 44, 127
2, 1440, Note_on_c, 1, 56, 127
2, 1440, Note_on_c, 1, 72, 127
2, 1440, Note_on_c, 1, 80, 127
2, 1440, Note_off_c, 1, 82, 0
2, 1680, Note_on_c, 1, 36, 127
2, 1680, Note_on_c, 1, 43, 127
2, 1680, Note_off_c, 1, 44, 0
2, 1680, Note_on_c, 1, 48, 127
2, 1680, Note_on_c, 1, 52, 127
2, 1680, Note_off_c, 1, 56, 0
2, 1680, Note_on_c, 1, 60, 127
2, 1680, Note_off_c, 1, 72, 0
2, 1680, Note_off_c, 1, 80, 0
2, 1680, Note_on_c, 1, 87, 127
2, 1720, Note_off_c, 1, 36, 0
2, 1720, Note_off_c, 1, 43, 0
2, 1720, Note_on_c, 1, 47, 127
2, 1720, Note_off_c, 1, 48, 0
2, 1720, Note_on_c, 1, 49, 127
2, 1720, Note_off_c, 1, 52, 0
2, 1720, Note_off_c, 1, 60, 0
2, 1720, Note_on_c, 1, 73, 127
2, 1720, Note_on_c, 1, 75, 127
2, 1720, Note_on_c, 1, 85, 127
2, 1720, Note_off_c, 1, 87, 0
2, 1760, Note_off_c, 1, 47, 0
2, 1760, Note_off_c, 1, 49, 0
2, 1760, Note_on_c, 1, 54, 127
2, 1760, Note_on_c, 1, 61, 127
2, 1760, Note_on_c, 1, 65, 127
2, 1760, Note_off_c, 1, 73, 0
2, 1760, Note_off_c, 1, 75, 0
2, 1760, Note_on_c, 1, 77, 127
2, 1800, Note_off_c, 1, 54, 0
2, 1800, Note_on_c, 1, 55, 127
2, 1800, Note_on_c, 1, 60, 127
2, 1800, Note_off_c, 1, 61, 0
2, 1800, Note_off_c, 1, 65, 0
2, 1800, Note_off_c, 1, 77, 0
2, 1800, Note_on_c, 1, 78, 127
2, 1800, Note_on_c, 1, 81, 127
2, 1800, Note_off_c, 1, 85, 0
2, 1800, Note_on_c, 1, 87, 127
2, 1840, Note_off_c, 1, 55, 0
2, 1840, Note_off_c, 1, 60, 0
2, 1840, Note_on_c, 1, 63, 127
2, 1840, Note_on_c, 1, 72, 127
2, 1840, Note_off_c, 1, 78, 0
2, 1840, Note_off_c, 1, 81, 0
2, 1840, Note_off_c, 1, 87, 0
2, 1840, Note_on_c, 1, 91, 127
2, 1880, Note_on_c, 1, 40, 127
2, 1880, Note_on_c, 1, 49, 127
2, 1880, Note_off_c, 1, 63, 0
2, 1880, Note_on_c, 1, 71, 127
2, 1880, Note_off_c, 1, 72, 0
2, 1880, Note_on_c, 1, 79, 127
2, 1880, Note_off_c, 1, 91, 0
2, 1920, Note_on_c, 1, 29, 127
2, 1920, Note_off_c, 1, 40, 0
2, 1920, Note_on_c, 1, 48, 127
2, 1920, Note_off_c, 1, 49, 0
2, 1920, Note_on_c, 1, 53, 127
2, 1920, Note_on_c, 1, 57, 127
2, 1920, Note_off_c, 1, 71, 0
2, 1920, Note_off_c, 1, 79, 0
2, 1960, Note_off_c, 1, 29, 0
2, 1960, Note_off_c, 1, 48, 0
2, 1960, Note_on_c, 1, 52, 127
2, 1960, Note_off_c, 1, 53, 0
2, 1960, Note_off_c, 1, 57, 0
2, 1960, Note_on_c, 1, 64, 127
2, 1960, Note_on_c, 1, 79, 127
2, 1960, Note_on_c, 1, 86, 127
2, 1960, Note_on_c, 1, 91, 127
2, 2000, Note_off_c, 1, 52, 0
2, 2000, Note_on_c, 1, 57, 127
2, 2000, Note_on_c, 1, 61, 127
2, 2000, Note_off_c, 1, 64, 0
2, 2000, Note_on_c, 1, 66, 127
2, 2000, Note_on_c, 1, 69, 127
2, 2000, Note_on_c, 1, 73, 127
2, 2000, Note_on_c, 1, 78, 127
2, 2000, Note_off_c, 1, 79, 0
2, 2000, Note_on_c, 1, 85, 127
2, 2000, Note_off_c, 1, 86, 0
2, 2000, Note_off_c, 1, 91, 0
2, 2040, Note_on_c, 1, 41, 127
2, 2040, Note_on_c, 1, 46, 127
2, 2040, Note_on_c, 1, 51, 127
2, 2040, Note_on_c, 1, 55, 127
2, 2040, Note_off_c, 1, 57, 0
2, 2040, Note_on_c, 1, 58, 127
2, 2040, Note_off_c, 1, 61, 0
2, 2040, Note_off_c, 1, 66, 0
2, 2040, Note_off_c, 1, 69, 0
2, 2040, Note_off_c, 1, 73, 0
2, 2040, Note_off_c, 1, 78, 0
2, 2040, Note_off_c, 1, 85, 0
2, 2080, Note_on_c, 1, 39, 127
2, 2080, Note_off_c, 1, 41, 0
2, 2080, Note_off_c, 1, 51, 0
2, 2080, Note_on_c, 1, 54, 127
2, 2080, Note_off_c, 1, 55, 0
2, 2080, Note_off_c, 1, 58, 0
2, 2080, Note_on_c, 1, 80, 127
2, 2120, Note_off_c, 1, 54, 0
2, 2120, Note_off_c, 1, 80, 0
2, 2160, Note_on_c, 1, 37, 127
2, 2160, Note_off_c, 1, 39, 0
2, 2160, Note_off_c, 1, 46, 0
2, 2160, Note_on_c, 1, 49, 127
2, 2160, Note_on_c, 1, 68, 127
2, 2160, Note_on_c, 1, 71, 127
2, 2160, Note_on_c, 1, 82, 127
2, 2400, Note_off_c, 1, 37, 0
2, 2400, Note_off_c, 1, 49, 0
2, 2400, Note_off_c, 1, 68, 0
2, 2400, Note_off_c, 1, 71, 0
2, 2400, Note_on_c, 1, 73, 127
2, 2400, Note_off_c, 1, 82, 0
2, 2440, Note_off_c, 1, 73, 0
2, 2480, Note_on_c, 1, 48, 127
2, 2480, Note_on_c, 1, 51, 127
2, 2480, Note_on_c, 1, 56, 127
2, 2480, Note_on_c, 1, 92, 127
2, 2520, Note_off_c, 1, 48, 0
2, 2520, Note_off_c, 1, 51, 0
2, 2520, Note_off_c, 1, 56, 0
2, 2520, Note_on_c, 1, 61, 127
2, 2520, Note_on_c, 1, 69, 127
2, 2520, Note_on_c, 1, 72, 127
2, 2520, Note_on_c, 1, 78, 127
2, 2520, Note_on_c, 1, 87, 127
2, 2520, Note_off_c, 1, 92, 0
2, 2560, Note_off_c, 1, 61, 0
2, 2560, Note_on_c, 1, 64, 127
2, 2560, Note_off_c, 1, 69, 0
2, 2560, Note_off_c, 1, 72, 0
2, 2560, Note_on_c, 1, 77, 127
2, 2560, Note_off_c, 1, 78, 0
2, 2560, Note_on_c, 1, 82, 127
2, 2560, Note_off_c, 1, 87, 0
2, 2560, Note_on_c, 1, 89, 127
2, 2600, Note_on_c, 1, 48, 127
2, 2600, Note_on_c, 1, 51, 127
2, 2600, Note_on_c, 1, 54, 127
2, 2600, Note_on_c, 1, 60, 127
2, 2600, Note_off_c, 1, 64, 0
2, 2600, Note_off_c, 1, 77, 0
2, 2600, Note_on_c, 1, 81, 127
2, 2600, Note_off_c, 1, 82, 0
2, 2600, Note_off_c, 1, 89, 0
2, 2600, Note_on_c, 1, 90, 127
2, 2600, Note_on_c, 1, 93, 127
2, 2640, Note_on_c, 1, 36, 127
2, 2640, Note_on_c, 1, 43, 127
2, 2640, Note_off_c, 1, 48, 0
2, 2640, Note_off_c, 1, 51, 0
2, 2640, Note_off_c, 1, 54, 0
2, 2640, Note_off_c, 1, 60, 0
2, 2640, Note_on_c, 1, 71, 127
2, 2640, Note_off_c, 1, 90, 0
2, 2640, Note_off_c, 1, 93, 0
2, 2680, Note_off_c, 1, 36, 0
2, 2680, Note_on_c, 1, 39, 127
2, 2680, Note_off_c, 1, 43, 0
2, 2680, Note_on_c, 1, 53, 127
2, 2680, Note_off_c, 1, 71, 0
2, 2680, Note_on_c, 1, 74, 127
2, 2680, Note_on_c, 1, 80, 127
2, 2680, Note_off_c, 1, 81, 0
2, 2680, Note_on_c, 1, 86, 127
2, 2720, Note_off_c, 1, 39, 0
2, 2720, Note_off_c, 1, 53, 0
2, 2720, Note_on_c, 1, 55, 127
2, 2720, Note_off_c, 1, 74, 0
2, 2720, Note_off_c, 1, 80, 0
2, 2720, Note_on_c, 1, 83, 127
2, 2720, Note_on_c, 1, 91, 127
2, 2760, Note_on_c, 1, 38, 127
2, 2760, Note_on_c, 1, 49, 127
2, 2760, Note_off_c, 1, 55, 0
2, 2760, Note_on_c, 1, 64, 127
2, 2760, Note_on_c, 1, 69, 127
2, 2760, Note_off_c, 1, 83, 0
2, 2760, Note_off_c, 1, 86, 0
2, 2760, Note_off_c, 1, 91, 0
2, 2800, Note_off_c, 1, 49, 0
2, 2800, Note_on_c, 1, 50, 127
2, 2800, Note_on_c, 1, 53, 127
2, 2800, Note_on_c, 1, 57, 127
2, 2800, Note_on_c, 1, 60, 127
2, 2800, Note_off_c, 1, 64, 0
2, 2800, Note_off_c, 1, 69, 0
2, 2800, Note_on_c, 1, 84, 127
2, 2800, Note_on_c, 1, 89, 127
2, 2800, Note_on_c, 1, 93, 127
2, 2840, Note_off_c, 1, 38, 0
2, 2840, Note_on_c, 1, 44, 127
2, 2840, Note_off_c, 1, 50, 0
2, 2840, Note_off_c, 1, 57, 0
2, 2840, Note_off_c, 1, 60, 0
2, 2840, Note_on_c, 1, 62, 127
2, 2840, Note_on_c, 1, 74, 127
2, 2840, Note_off_c, 1, 84, 0
2, 2840, Note_off_c, 1, 89, 0
2, 2840, Note_off_c, 1, 93, 0
2, 2880, Note_off_c, 1, 44, 0
2, 2880, Note_off_c, 1, 53, 0
2, 2880, Note_off_c, 1, 62, 0
2, 2880, Note_on_c, 1, 65, 127
2, 2880, Note_on_c, 1, 86, 127
2, 2880, Note_on_c, 1, 89, 127
2, 2920, Note_on_c, 1, 49, 127
2, 2920, Note_on_c, 1, 53, 127
2, 2920, Note_on_c, 1, 56, 127
2, 2920, Note_on_c, 1, 61, 127
2, 2920, Note_off_c, 1, 65, 0
2, 2920, Note_off_c, 1, 74, 0
2, 2920, Note_on_c, 1, 85, 127
2, 2920, Note_off_c, 1, 86, 0
2, 2920, Note_off_c, 1, 89, 0
2, 2960, Note_on_c, 1, 48, 127
2, 2960, Note_off_c, 1, 49, 0
2, 2960, Note_on_c, 1, 51, 127
2, 2960, Note_off_c, 1, 53, 0
2, 2960, Note_off_c, 1, 61, 0
2, 2960, Note_on_c, 1, 79, 127
2, 2960, Note_off_c, 1, 85, 0
2, 3000, Note_on_c, 1, 34, 127
2, 3000, Note_on_c, 1, 41, 127
2, 3000, Note_on_c, 1, 46, 127
2, 3000, Note_off_c, 1, 48, 0
2, 3000, Note_off_c, 1, 51, 0
2, 3000, Note_off_c, 1, 56, 0
2, 3000, Note_on_c, 1, 58, 127
2, 3000, Note_on_c, 1, 62, 127
2, 3000, Note_on_c, 1, 70, 127
2, 3000, Note_off_c, 1, 79, 0
2, 3040, Note_off_c, 1, 34, 0
2, 3040, Note_off_c, 1, 41, 0
2, 3040, Note_off_c, 1, 46, 0
2, 3040, Note_on_c, 1, 51, 127
2, 3040, Note_on_c, 1, 56, 127
2, 3040, Note_off_c, 1, 58, 0
2, 3040, Note_on_c, 1, 60, 127
2, 3040, Note_off_c, 1, 62, 0
2, 3040, Note_on_c, 1, 68, 127
2, 3040, Note_off_c, 1, 70, 0
2, 3040, Note_on_c, 1, 72, 127
2, 3040, Note_on_c, 1, 80, 127
2, 3080, Note_on_c, 1, 34, 127
2, 3080, Note_on_c, 1, 41, 127
2, 3080, Note_on_c, 1, 46, 127
2, 3080, Note_off_c, 1, 51, 0
2, 3080, Note_off_c, 1, 56, 0
2, 3080, Note_on_c, 1, 58, 127
2, 3080, Note_off_c, 1, 60, 0
2, 3080, Note_on_c, 1, 62, 127
2, 3080, Note_off_c, 1, 68, 0
2, 3080, Note_on_c, 1, 70, 127
2, 3080, Note_off_c, 1, 72, 0
2, 3080, Note_off_c, 1, 80, 0
2, 5080, Note_off_c, 1, 34, 0
2, 5080, Note_off_c, 1, 41, 0
2, 5080, Note_off_c, 1, 46, 0
2, 5080, Note_off_c, 1, 58, 0
2, 5080, Note_off_c, 1, 62, 0
2, 5080, Note_off_c, 1, 70, 0
2, 5120, Note_on_c, 1, 34, 127
2, 5120, Note_on_c, 1, 41, 127
2, 5120, Note_on_c, 1, 46, 127
2, 5120, Note_on_c, 1, 58, 127
2, 5120, Note_on_c, 1, 62, 127
2, 5120, Note_on_c, 1, 70, 127
2, 7720, Note_off_c, 1, 34, 0
2, 7720, Note_off_c, 1, 41, 0
2, 7720, Note_off_c, 1, 46, 0
2, 7720, Note_off_c, 1, 58, 0
2, 7720, Note_off_c, 1, 62, 0
2, 7720, Note_off_c, 1, 70, 0
2, 7760, Note_on_c, 1, 34, 127
2, 7760, Note_on_c, 1, 41, 127
2, 7760, Note_on_c, 1, 46, 127
2, 7760, Note_on_c, 1, 58, 127
2, 7760, Note_on_c, 1, 62, 127
2, 7760, Note_on_c, 1, 70, 127
2, 10120, Note_off_c, 1, 34, 0
2, 10120, Note_off_c, 1, 41, 0
2, 10120, Note_off_c, 1, 46, 0
2, 10120, Note_off_c, 1, 58, 0
2, 10120, Note_off_c, 1, 62, 0
2, 10120, Note_off_c, 1, 70, 0
2, 10160, Note_on_c, 1, 30, 127
2, 10160, Note_on_c, 1, 42, 127
2, 10160, Note_on_c, 1, 80, 127
2, 10160, Note_on_c, 1, 92, 127
2, 10200, Note_off_c, 1, 30, 0
2, 10200, Note_off_c, 1, 42, 0
2, 10200, Note_on_c, 1, 48, 127
2, 10200, Note_on_c, 1, 58, 127
2, 10200, Note_on_c, 1, 63, 127
2, 10200, Note_off_c, 1, 80, 0
2, 10200, Note_off_c, 1, 92, 0
2, 10240, Note_off_c, 1, 48, 0
2, 10240, Note_off_c, 1, 58, 0
2, 10240, Note_off_c, 1, 63, 0
2, 10280, Note_on_c, 1, 61, 127
2, 10280, Note_on_c, 1, 70, 127
2, 10280, Note_on_c, 1, 82, 127
2, 10280, Note_on_c, 1, 85, 127
2, 10320, Note_on_c, 1, 56, 127
2, 10320, Note_on_c, 1, 59, 127
2, 10320, Note_off_c, 1, 70, 0
2, 10320, Note_on_c, 1, 71, 127
2, 10320, Note_on_c, 1, 73, 127
2, 10320, Note_off_c, 1, 82, 0
2, 10320, Note_off_c, 1, 85, 0
2, 10360, Note_off_c, 1, 56, 0
2, 10360, Note_on_c, 1, 58, 127
2, 10360, Note_off_c, 1, 59, 0
2, 10360, Note_off_c, 1, 61, 0
2, 10360, Note_on_c, 1, 65, 127
2, 10360, Note_on_c, 1, 67, 127
2, 10360, Note_off_c, 1, 71, 0
2, 10360, Note_on_c, 1, 80, 127
2, 10400, Note_on_c, 1, 35, 127
2, 10400, Note_on_c, 1, 47, 127
2, 10400, Note_on_c, 1, 61, 127
2, 10400, Note_off_c, 1, 65, 0
2, 10400, Note_on_c, 1, 66, 127
2, 10400, Note_off_c, 1, 67, 0
2, 10400, Note_off_c, 1, 73, 0
2, 10400, Note_off_c, 1, 80, 0
2, 10440, Note_off_c, 1, 35, 0
2, 10440, Note_off_c, 1, 47, 0
2, 10440, Note_off_c, 1, 58, 0
2, 10440, Note_on_c, 1, 59, 127
2, 10440, Note_off_c, 1, 61, 0
2, 10440, Note_on_c, 1, 63, 127
2, 10440, Note_on_c, 1, 65, 127
2, 10440, Note_off_c, 1, 66, 0
2, 10440, Note_on_c, 1, 68, 127
2, 10440, Note_on_c, 1, 75, 127
2, 10480, Note_on_c, 1, 42, 127
2, 10480, Note_on_c, 1, 49, 127
2, 10480, Note_on_c, 1, 54, 127
2, 10480, Note_off_c, 1, 59, 0
2, 10480, Note_off_c, 1, 63, 0
2, 10480, Note_off_c, 1, 65, 0
2, 10480, Note_on_c, 1, 66, 127
2, 10480, Note_off_c, 1, 68, 0
2, 10480, Note_off_c, 1, 75, 0
2, 10480, Note_on_c, 1, 78, 127
2, 10560, Note_off_c, 1, 42, 0
2, 10560, Note_off_c, 1, 49, 0
2, 10560, Note_off_c, 1, 54, 0
2, 10560, Note_on_c, 1, 60, 127
2, 10560, Note_off_c, 1, 66, 0
2, 10560, Note_on_c, 1, 87, 127
2, 10560, Note_on_c, 1, 92, 127
2, 10600, Note_on_c, 1, 35, 127
2, 10600, Note_on_c, 1, 47, 127
2, 10600, Note_off_c, 1, 60, 0
2, 10600, Note_on_c, 1, 71, 127
2, 10600, Note_on_c, 1, 73, 127
2, 10600, Note_off_c, 1, 78, 0
2, 10600, Note_off_c, 1, 87, 0
2, 10600, Note_off_c, 1, 92, 0
2, 10640, Note_off_c, 1, 35, 0
2, 10640, Note_on_c, 1, 46, 127
2, 10640, Note_off_c, 1, 47, 0
2, 10640, Note_on_c, 1, 56, 127
2, 10640, Note_on_c, 1, 65, 127
2, 10640, Note_on_c, 1, 70, 127
2, 10640, Note_off_c, 1, 71, 0
2, 10640, Note_off_c, 1, 73, 0
2, 10640, Note_on_c, 1, 75, 127
2, 11000, Note_off_c, 1, 46, 0
2, 11000, Note_off_c, 1, 56, 0
2, 11000, Note_off_c, 1, 65, 0
2, 11000, Note_off_c, 1, 70, 0
2, 11000, Note_off_c, 1, 75, 0
2, 11040, Note_on_c, 1, 39, 127
2, 11040, Note_on_c, 1, 63, 127
2, 11040, Note_on_c, 1, 67, 127
2, 11040, Note_on_c, 1, 79, 127
2, 11600, Note_off_c, 1, 39, 0
2, 11600, Note_off_c, 1, 63, 0
2, 11600, Note_off_c, 1, 67, 0
2, 11600, Note_off_c, 1, 79, 0
2, 11640, Note_on_c, 1, 44, 127
2, 11640, Note_on_c, 1, 49, 127
2, 11640, Note_on_c, 1, 65, 127
2, 11640, Note_on_c, 1, 68, 127
2, 11640, Note_on_c, 1, 77, 127
2, 12040, Note_off_c, 1, 49, 0
2, 12440, Note_off_c, 1, 44, 0
2, 12440, Note_off_c, 1, 65, 0
2, 12440, Note_off_c, 1, 68, 0
2, 12440, Note_off_c, 1, 77, 0
2, 12520, Note_on_c, 1, 48, 127
2, 12520, Note_on_c, 1, 59, 127
2, 12520, Note_on_c, 1, 77, 127
2, 12560, Note_on_c, 1, 47, 127
2, 12560, Note_off_c, 1, 48, 0
2, 12560, Note_on_c, 1, 54, 127
2, 12560, Note_off_c, 1, 59, 0
2, 12560, Note_off_c, 1, 77, 0
2, 12560, Note_on_c, 1, 85, 127
2, 12560, Note_on_c, 1, 90, 127
2, 12600, Note_on_c, 1, 43, 127
2, 12600, Note_off_c, 1, 47, 0
2, 12600, Note_off_c, 1, 54, 0
2, 12600, Note_on_c, 1, 55, 127
2, 12600, Note_on_c, 1, 69, 127
2, 12600, Note_on_c, 1, 78, 127
2, 12600, Note_off_c, 1, 85, 0
2, 12600, Note_off_c, 1, 90, 0
2, 12640, Note_on_c, 1, 35, 127
2, 12640, Note_on_c, 1, 39, 127
2, 12640, Note_off_c, 1, 43, 0
2, 12640, Note_on_c, 1, 47, 127
2, 12640, Note_off_c, 1, 55, 0
2, 12640, Note_off_c, 1, 69, 0
2, 12640, Note_on_c, 1, 75, 127
2, 12640, Note_off_c, 1, 78, 0
2, 12640, Note_on_c, 1, 80, 127
2, 12640, Note_on_c, 1, 83, 127
2, 12640, Note_on_c, 1, 87, 127
2, 12680, Note_on_c, 1, 34, 127
2, 12680, Note_off_c, 1, 35, 0
2, 12680, Note_off_c, 1, 39, 0
2, 12680, Note_on_c, 1, 46, 127
2, 12680, Note_off_c, 1, 47, 0
2, 12680, Note_on_c, 1, 68, 127
2, 12680, Note_off_c, 1, 75, 0
2, 12680, Note_off_c, 1, 83, 0
2, 12680, Note_off_c, 1, 87, 0
2, 12720, Note_off_c, 1, 34, 0
2, 12720, Note_on_c, 1, 51, 127
2, 12720, Note_on_c, 1, 57, 127
2, 12720, Note_on_c, 1, 63, 127
2, 12720, Note_off_c, 1, 68, 0
2, 12720, Note_off_c, 1, 80, 0
2, 12760, Note_on_c, 1, 39, 127
2, 12760, Note_off_c, 1, 46, 0
2, 12760, Note_off_c, 1, 57, 0
2, 12760, Note_off_c, 1, 63, 0
2, 12760, Note_on_c, 1, 71, 127
2, 12760, Note_on_c, 1, 75, 127
2, 12760, Note_on_c, 1, 80, 127
2, 12760, Note_on_c, 1, 83, 127
2, 12800, Note_off_c, 1, 39, 0
2, 12800, Note_on_c, 1, 47, 127
2, 12800, Note_on_c, 1, 56, 127
2, 12800, Note_on_c, 1, 59, 127
2, 12800, Note_off_c, 1, 71, 0
2, 12800, Note_off_c, 1, 75, 0
2, 12800, Note_off_c, 1, 80, 0
2, 12800, Note_off_c, 1, 83, 0
2, 12800, Note_on_c, 1, 86, 127
2, 12840, Note_on_c, 1, 30, 127
2, 12840, Note_on_c, 1, 42, 127
2, 12840, Note_off_c, 1, 47, 0
2, 12840, Note_off_c, 1, 51, 0
2, 12840, Note_off_c, 1, 56, 0
2, 12840, Note_off_c, 1, 59, 0
2, 12840, Note_on_c, 1, 75, 127
2, 12840, Note_on_c, 1, 81, 127
2, 12840, Note_on_c, 1, 84, 127
2, 12840, Note_off_c, 1, 86, 0
2, 12840, Note_on_c, 1, 87, 127
2, 12880, Note_off_c, 1, 30, 0
2, 12880, Note_off_c, 1, 42, 0
2, 12880, Note_off_c, 1, 75, 0
2, 12880, Note_off_c, 1, 81, 0
2, 12880, Note_off_c, 1, 84, 0
2, 12880, Note_off_c, 1, 87, 0
2, 12920, Note_on_c, 1, 52, 127
2, 12920, Note_on_c, 1, 56, 127
2, 12920, Note_on_c, 1, 59, 127
2, 12920, Note_on_c, 1, 62, 127
2, 12920, Note_on_c, 1, 68, 127
2, 12920, Note_on_c, 1, 71, 127
2, 12920, Note_on_c, 1, 76, 127
2, 12960, Note_off_c, 1, 52, 0
2, 12960, Note_off_c, 1, 56, 0
2, 12960, Note_off_c, 1, 59, 0
2, 12960, Note_off_c, 1, 62, 0
2, 12960, Note_on_c, 1, 63, 127
2, 12960, Note_off_c, 1, 68, 0
2, 12960, Note_off_c, 1, 76, 0
2, 12960, Note_on_c, 1, 80, 127
2, 12960, Note_on_c, 1, 87, 127
2, 13000, Note_off_c, 1, 63, 0
2, 13000, Note_on_c, 1, 68, 127
2, 13000, Note_off_c, 1, 71, 0
2, 13000, Note_off_c, 1, 87, 0
2, 13000, Note_on_c, 1, 96, 127
2, 13040, Note_on_c, 1, 42, 127
2, 13040, Note_on_c, 1, 50, 127
2, 13040, Note_on_c, 1, 54, 127
2, 13040, Note_on_c, 1, 60, 127
2, 13040, Note_on_c, 1, 62, 127
2, 13040, Note_off_c, 1, 68, 0
2, 13040, Note_on_c, 1, 69, 127
2, 13040, Note_off_c, 1, 80, 0
2, 13040, Note_off_c, 1, 96, 0
2, 13120, Note_off_c, 1, 42, 0
2, 13120, Note_off_c, 1, 50, 0
2, 13120, Note_on_c, 1, 52, 127
2, 13120, Note_off_c, 1, 54, 0
2, 13120, Note_off_c, 1, 60, 0
2, 13120, Note_on_c, 1, 61, 127
2, 13120, Note_off_c, 1, 62, 0
2, 13120, Note_on_c, 1, 67, 127
2, 13120, Note_off_c, 1, 69, 0
2, 13120, Note_on_c, 1, 78, 127
2, 13160, Note_on_c, 1, 42, 127
2, 13160, Note_on_c, 1, 50, 127
2, 13160, Note_off_c, 1, 52, 0
2, 13160, Note_on_c, 1, 54, 127
2, 13160, Note_on_c, 1, 60, 127
2, 13160, Note_off_c, 1, 61, 0
2, 13160, Note_on_c, 1, 62, 127
2, 13160, Note_off_c, 1, 67, 0
2, 13160, Note_on_c, 1, 69, 127
2, 13160, Note_off_c, 1, 78, 0
2, 13280, Note_on_c, 1, 38, 127
2, 13280, Note_off_c, 1, 42, 0
2, 13280, Note_off_c, 1, 54, 0
2, 13280, Note_off_c, 1, 60, 0
2, 13280, Note_off_c, 1, 62, 0
2, 13280, Note_off_c, 1, 69, 0
2, 13280, Note_on_c, 1, 71, 127
2, 13280, Note_on_c, 1, 74, 127
2, 13280, Note_on_c, 1, 77, 127
2, 13280, Note_on_c, 1, 80, 127
2, 13280, Note_on_c, 1, 83, 127
2, 13320, Note_off_c, 1, 38, 0
2, 13320, Note_off_c, 1, 50, 0
2, 13320, Note_off_c, 1, 71, 0
2, 13320, Note_off_c, 1, 74, 0
2, 13320, Note_off_c, 1, 77, 0
2, 13320, Note_off_c, 1, 80, 0
2, 13320, Note_off_c, 1, 83, 0
2, 13360, Note_on_c, 1, 36, 127
2, 13360, Note_on_c, 1, 46, 127
2, 13360, Note_on_c, 1, 62, 127
2, 13400, Note_off_c, 1, 36, 0
2, 13400, Note_on_c, 1, 45, 127
2, 13400, Note_off_c, 1, 46, 0
2, 13400, Note_on_c, 1, 57, 127
2, 13400, Note_off_c, 1, 62, 0
2, 13400, Note_on_c, 1, 63, 127
2, 13400, Note_on_c, 1, 66, 127
2, 13400, Note_on_c, 1, 69, 127
2, 13400, Note_on_c, 1, 81, 127
2, 13440, Note_on_c, 1, 36, 127
2, 13440, Note_off_c, 1, 45, 0
2, 13440, Note_on_c, 1, 46, 127
2, 13440, Note_off_c, 1, 57, 0
2, 13440, Note_on_c, 1, 62, 127
2, 13440, Note_off_c, 1, 63, 0
2, 13440, Note_off_c, 1, 66, 0
2, 13440, Note_off_c, 1, 69, 0
2, 13440, Note_off_c, 1, 81, 0
2, 13520, Note_off_c, 1, 36, 0
2, 13520, Note_on_c, 1, 55, 127
2, 13520, Note_off_c, 1, 62, 0
2, 13520, Note_on_c, 1, 79, 127
2, 13520, Note_on_c, 1, 82, 127
2, 13560, Note_on_c, 1, 36, 127
2, 13560, Note_off_c, 1, 55, 0
2, 13560, Note_on_c, 1, 62, 127
2, 13560, Note_off_c, 1, 79, 0
2, 13560, Note_off_c, 1, 82, 0
2, 13720, Note_off_c, 1, 36, 0
2, 13720, Note_off_c, 1, 46, 0
2, 13720, Note_off_c, 1, 62, 0
2, 13760, Note_on_c, 1, 49, 127
2, 13760, Note_on_c, 1, 56, 127
2, 13760, Note_on_c, 1, 59, 127
2, 13760, Note_on_c, 1, 68, 127
2, 13760, Note_on_c, 1, 71, 127
2, 13760, Note_on_c, 1, 75, 127
2, 13840, Note_on_c, 1, 80, 127
2, 13880, Note_off_c, 1, 80, 0
2, 14120, Note_off_c, 1, 49, 0
2, 14120, Note_off_c, 1, 56, 0
2, 14120, Note_off_c, 1, 59, 0
2, 14120, Note_off_c, 1, 68, 0
2, 14120, Note_off_c, 1, 71, 0
2, 14120, Note_off_c, 1, 75, 0
2, 14160, Note_on_c, 1, 60, 127
2, 14160, Note_on_c, 1, 64, 127
2, 14160, Note_on_c, 1, 72, 127
2, 14160, Note_on_c, 1, 84, 127
2, 14160, Note_on_c, 1, 88, 127
2, 14160, Note_on_c, 1, 96, 127
2, 14200, Note_on_c, 1, 43, 127
2, 14200, Note_on_c, 1, 52, 127
2, 14200, Note_off_c, 1, 60, 0
2, 14200, Note_off_c, 1, 64, 0
2, 14200, Note_off_c, 1, 72, 0
2, 14200, Note_on_c, 1, 76, 127
2, 14200, Note_on_c, 1, 79, 127
2, 14200, Note_on_c, 1, 83, 127
2, 14200, Note_off_c, 1, 84, 0
2, 14200, Note_off_c, 1, 96, 0
2, 14240, Note_off_c, 1, 43, 0
2, 14240, Note_on_c, 1, 48, 127
2, 14240, Note_off_c, 1, 52, 0
2, 14240, Note_on_c, 1, 56, 127
2, 14240, Note_on_c, 1, 60, 127
2, 14240, Note_on_c, 1, 67, 127
2, 14240, Note_on_c, 1, 72, 127
2, 14240, Note_off_c, 1, 76, 0
2, 14240, Note_on_c, 1, 77, 127
2, 14240, Note_off_c, 1, 83, 0
2, 14240, Note_off_c, 1, 88, 0
2, 14280, Note_off_c, 1, 48, 0
2, 14280, Note_off_c, 1, 56, 0
2, 14280, Note_off_c, 1, 60, 0
2, 14280, Note_off_c, 1, 67, 0
2, 14280, Note_on_c, 1, 68, 127
2, 14280, Note_off_c, 1, 72, 0
2, 14280, Note_on_c, 1, 73, 127
2, 14280, Note_on_c, 1, 75, 127
2, 14280, Note_off_c, 1, 77, 0
2, 14280, Note_off_c, 1, 79, 0
2, 14280, Note_on_c, 1, 81, 127
2, 14320, Note_on_c, 1, 49, 127
2, 14320, Note_on_c, 1, 54, 127
2, 14320, Note_on_c, 1, 59, 127
2, 14320, Note_on_c, 1, 62, 127
2, 14320, Note_off_c, 1, 68, 0
2, 14320, Note_off_c, 1, 73, 0
2, 14320, Note_off_c, 1, 75, 0
2, 14320, Note_on_c, 1, 78, 127
2, 14320, Note_off_c, 1, 81, 0
2, 14320, Note_on_c, 1, 83, 127
2, 14320, Note_on_c, 1, 86, 127
2, 14320, Note_on_c, 1, 90, 127
2, 14360, Note_off_c, 1, 49, 0
2, 14360, Note_off_c, 1, 54, 0
2, 14360, Note_off_c, 1, 59, 0
2, 14360, Note_off_c, 1, 62, 0
2, 14360, Note_on_c, 1, 66, 127
2, 14360, Note_on_c, 1, 70, 127
2, 14360, Note_on_c, 1, 77, 127
2, 14360, Note_off_c, 1, 78, 0
2, 14360, Note_off_c, 1, 83, 0
2, 14360, Note_off_c, 1, 86, 0
2, 14360, Note_on_c, 1, 87, 127
2, 14360, Note_off_c, 1, 90, 0
2, 14360, Note_on_c, 1, 94, 127
2, 14360, Note_on_c, 1, 99, 127
2, 14400, Note_on_c, 1, 61, 127
2, 14400, Note_off_c, 1, 66, 0
2, 14400, Note_on_c, 1, 68, 127
2, 14400, Note_off_c, 1, 70, 0
2, 14400, Note_off_c, 1, 77, 0
2, 14400, Note_on_c, 1, 78, 127
2, 14400, Note_on_c, 1, 82, 127
2, 14400, Note_off_c, 1, 87, 0
2, 14400, Note_on_c, 1, 90, 127
2, 14400, Note_off_c, 1, 94, 0
2, 14400, Note_off_c, 1, 99, 0
2, 14440, Note_off_c, 1, 61, 0
2, 14440, Note_off_c, 1, 68, 0
2, 14440, Note_off_c, 1, 78, 0
2, 14440, Note_off_c, 1, 82, 0
2, 14440, Note_off_c, 1, 90, 0
2, 14480, Note_on_c, 1, 33, 127
2, 14480, Note_on_c, 1, 52, 127
2, 14480, Note_on_c, 1, 60, 127
2, 14480, Note_on_c, 1, 64, 127
2, 14520, Note_on_c, 1, 31, 127
2, 14520, Note_off_c, 1, 33, 0
2, 14520, Note_on_c, 1, 47, 127
2, 14520, Note_off_c, 1, 52, 0
2, 14520, Note_off_c, 1, 60, 0
2, 14520, Note_on_c, 1, 62, 127
2, 14520, Note_off_c, 1, 64, 0
2, 14520, Note_on_c, 1, 67, 127
2, 14560, Note_off_c, 1, 31, 0
2, 14560, Note_off_c, 1, 47, 0
2, 14560, Note_on_c, 1, 54, 127
2, 14560, Note_on_c, 1, 60, 127
2, 14560, Note_off_c, 1, 62, 0
2, 14560, Note_off_c, 1, 67, 0
2, 14560, Note_on_c, 1, 69, 127
2, 14560, Note_on_c, 1, 72, 127
2, 14600, Note_on_c, 1, 34, 127
2, 14600, Note_on_c, 1, 46, 127
2, 14600, Note_off_c, 1, 54, 0
2, 14600, Note_on_c, 1, 58, 127
2, 14600, Note_off_c, 1, 60, 0
2, 14600, Note_on_c, 1, 65, 127
2, 14600, Note_off_c, 1, 69, 0
2, 14600, Note_on_c, 1, 70, 127
2, 14600, Note_off_c, 1, 72, 0
2, 14960, Note_off_c, 1, 34, 0
2, 14960, Note_on_c, 1, 35, 127
2, 14960, Note_off_c, 1, 46, 0
2, 14960, Note_off_c, 1, 58, 0
2, 14960, Note_off_c, 1, 65, 0
2, 14960, Note_off_c, 1, 70, 0
2, 15000, Note_off_c, 1, 35, 0
2, 15000, Note_on_c, 1, 42, 127
2, 15000, Note_on_c, 1, 50, 127
2, 15000, Note_on_c, 1, 73, 127
2, 15040, Note_off_c, 1, 50, 0
2, 15040, Note_on_c, 1, 62, 127
2, 15040, Note_on_c, 1, 71, 127
2, 15040, Note_off_c, 1, 73, 0
2, 15040, Note_on_c, 1, 83, 127
2, 15360, Note_off_c, 1, 42, 0
2, 15360, Note_off_c, 1, 62, 0
2, 15360, Note_off_c, 1, 71, 0
2, 15360, Note_off_c, 1, 83, 0
2, 15400, Note_on_c, 1, 61, 127
2, 15400, Note_on_c, 1, 74, 127
2, 15400, Note_on_c, 1, 79, 127
2, 15400, Note_on_c, 1, 83, 127
2, 15600, Note_off_c, 1, 61, 0
2, 15600, Note_on_c, 1, 77, 127
2, 15600, Note_off_c, 1, 79, 0
2, 15600, Note_on_c, 1, 80, 127
2, 15600, Note_on_c, 1, 86, 127
2, 15600, Note_on_c, 1, 89, 127
2, 15600, Note_on_c, 1, 92, 127
2, 15600, Note_on_c, 1, 95, 127
2, 15600, Note_on_c, 1, 101, 127
2, 15640, Note_on_c, 1, 61, 127
2, 15640, Note_off_c, 1, 77, 0
2, 15640, Note_on_c, 1, 79, 127
2, 15640, Note_off_c, 1, 80, 0
2, 15640, Note_off_c, 1, 86, 0
2, 15640, Note_off_c, 1, 89, 0
2, 15640, Note_off_c, 1, 92, 0
2, 15640, Note_off_c, 1, 95, 0
2, 15640, Note_off_c, 1, 101, 0
2, 15680, Note_off_c, 1, 61, 0
2, 15680, Note_on_c, 1, 77, 127
2, 15680, Note_off_c, 1, 79, 0
2, 15680, Note_on_c, 1, 80, 127
2, 15680, Note_on_c, 1, 86, 127
2, 15680, Note_on_c, 1, 89, 127
2, 15680, Note_on_c, 1, 92, 127
2, 15680, Note_on_c, 1, 95, 127
2, 15680, Note_on_c, 1, 101, 127
2, 15760, Note_off_c, 1, 74, 0
2, 15760, Note_off_c, 1, 77, 0
2, 15760, Note_off_c, 1, 80, 0
2, 15760, Note_off_c, 1, 83, 0
2, 15760, Note_off_c, 1, 86, 0
2, 15760, Note_off_c, 1, 89, 0
2, 15760, Note_off_c, 1, 92, 0
2, 15760, Note_off_c, 1, 95, 0
2, 15760, Note_off_c, 1, 101, 0
2, 15800, Note_on_c, 1, 42, 127
2, 15800, Note_on_c, 1, 54, 127
2, 15800, Note_on_c, 1, 69, 127
2, 15800, Note_on_c, 1, 72, 127
2, 15800, Note_on_c, 1, 75, 127
2, 16600, Note_off_c, 1, 42, 0
2, 16600, Note_off_c, 1, 54, 0
2, 16600, Note_off_c, 1, 69, 0
2, 16600, Note_off_c, 1, 72, 0
2, 16600, Note_off_c, 1, 75, 0
2, 16680, Note_on_c, 1, 45, 127
2, 16680, Note_on_c, 1, 57, 127
2, 16680, Note_on_c, 1, 73, 127
2, 16680, Note_on_c, 1, 76, 127
2, 16920, Note_off_c, 1, 73, 0
2, 16960, Note_on_c, 1, 73, 127
2, 17040, Note_off_c, 1, 45, 0
2, 17040, Note_off_c, 1, 57, 0
2, 17040, Note_off_c, 1, 73, 0
2, 17040, Note_off_c, 1, 76, 0
2, 17080, Note_on_c, 1, 36, 127
2, 17080, Note_on_c, 1, 43, 127
2, 17080, Note_on_c, 1, 48, 127
2, 17080, Note_on_c, 1, 76, 127
2, 17080, Note_on_c, 1, 79, 127
2, 17080, Note_on_c, 1, 84, 127
2, 17080, Note_on_c, 1, 88, 127
2, 17840, Note_off_c, 1, 36, 0
2, 17840, Note_off_c, 1, 43, 0
2, 17840, Note_off_c, 1, 48, 0
2, 17840, Note_off_c, 1, 76, 0
2, 17840, Note_off_c, 1, 79, 0
2, 17840, Note_off_c, 1, 84, 0
2, 17840, Note_off_c, 1, 88, 0
2, 17880, Note_on_c, 1, 42, 127
2, 17880, Note_on_c, 1, 54, 127
2, 17880, Note_on_c, 1, 71, 127
2, 17880, Note_on_c, 1, 75, 127
2, 17880, Note_on_c, 1, 79, 127
2, 17880, Note_on_c, 1, 83, 127
2, 18640, Note_off_c, 1, 42, 0
2, 18640, Note_off_c, 1, 54, 0
2, 18640, Note_off_c, 1, 71, 0
2, 18640, Note_off_c, 1, 75, 0
2, 18640, Note_off_c, 1, 79, 0
2, 18640, Note_off_c, 1, 83, 0
2, 18680, Note_on_c, 1, 57, 127
2, 18680, Note_on_c, 1, 63, 127
2, 18680, Note_on_c, 1, 71, 127
2, 18680, Note_on_c, 1, 77, 127
2, 18880, Note_off_c, 1, 57, 0
2, 18880, Note_off_c, 1, 63, 0
2, 18880, Note_off_c, 1, 71, 0
2, 18880, Note_off_c, 1, 77, 0
2, 18920, Note_on_c, 1, 57, 127
2, 18920, Note_on_c, 1, 63, 127
2, 18920, Note_on_c, 1, 71, 127
2, 18920, Note_on_c, 1, 77, 127
2, 20480, Note_off_c, 1, 57, 0
2, 20480, Note_off_c, 1, 63, 0
2, 20480, Note_off_c, 1, 71, 0
2, 20480, Note_off_c, 1, 77, 0
2, 20600, Note_on_c, 1, 69, 127
2, 20760, Note_off_c, 1, 69, 0
2, 20800, Note_on_c, 1, 81, 127
2, 20960, Note_off_c, 1, 81, 0
2, 21040, Note_on_c, 1, 76, 127
2, 21080, Note_off_c, 1, 76, 0
2, 21120, Note_on_c, 1, 76, 127
2, 21280, Note_off_c, 1, 76, 0
2, 21320, Note_on_c, 1, 74, 127
2, 21400, Note_off_c, 1, 74, 0
2, 21440, Note_on_c, 1, 57, 127
2, 21440, Note_on_c, 1, 60, 127
2, 21440, Note_on_c, 1, 76, 127
2, 21760, Note_off_c, 1, 76, 0
2, 21800, Note_on_c, 1, 89, 127
2, 22000, Note_off_c, 1, 89, 0
2, 22040, Note_on_c, 1, 81, 127
2, 22320, Note_off_c, 1, 81, 0
2, 22360, Note_on_c, 1, 53, 127
2, 22360, Note_off_c, 1, 57, 0
2, 22360, Note_on_c, 1, 72, 127
2, 22400, Note_off_c, 1, 53, 0
2, 22400, Note_on_c, 1, 56, 127
2, 22400, Note_on_c, 1, 65, 127
2, 22400, Note_off_c, 1, 72, 0
2, 22400, Note_on_c, 1, 74, 127
2, 22720, Note_off_c, 1, 74, 0
2, 22760, Note_off_c, 1, 56, 0
2, 22760, Note_off_c, 1, 60, 0
2, 22760, Note_off_c, 1, 65, 0
2, 22760, Note_on_c, 1, 75, 127
2, 22800, Note_on_c, 1, 36, 127
2, 22800, Note_on_c, 1, 48, 127
2, 22800, Note_on_c, 1, 55, 127
2, 22800, Note_on_c, 1, 64, 127
2, 22800, Note_off_c, 1, 75, 0
2, 23120, Note_off_c, 1, 36, 0
2, 23120, Note_off_c, 1, 48, 0
2, 23120, Note_off_c, 1, 55, 0
2, 23120, Note_off_c, 1, 64, 0
2, 23160, Note_on_c, 1, 36, 127
2, 23160, Note_on_c, 1, 48, 127
2, 23160, Note_on_c, 1, 55, 127
2, 23160, Note_on_c, 1, 64, 127
2, 23600, Note_off_c, 1, 36, 0
2, 23600, Note_off_c, 1, 48, 0
2, 23600, Note_off_c, 1, 55, 0
2, 23600, Note_off_c, 1, 64, 0
2, 23640, Note_on_c, 1, 48, 127
2, 23640, Note_on_c, 1, 55, 127
2, 23640, Note_on_c, 1, 76, 127
2, 24360, Note_off_c, 1, 55, 0
2, 24360, Note_off_c, 1, 76, 0
2, 24400, Note_on_c, 1, 60, 127
2, 24400, Note_on_c, 1, 67, 127
2, 25120, Note_off_c, 1, 48, 0
2, 25120, Note_off_c, 1, 60, 0
2, 25120, Note_off_c, 1, 67, 0
2, 25160, Note_on_c, 1, 48, 127
2, 25160, Note_on_c, 1, 60, 127
2, 25160, Note_on_c, 1, 67, 127
2, 25200, Note_off_c, 1, 48, 0
2, 25200, Note_off_c, 1, 60, 0
2, 25200, Note_off_c, 1, 67, 0
2, 25240, Note_on_c, 1, 55, 127
2, 25240, Note_on_c, 1, 64, 127
2, 25240, Note_on_c, 1, 67, 127
2, 25600, Note_off_c, 1, 64, 0
2, 25600, Note_off_c, 1, 67, 0
2, 25640, Note_on_c, 1, 60, 127
2, 25640, Note_on_c, 1, 69, 127
2, 25640, Note_on_c, 1, 72, 127
2, 25960, Note_off_c, 1, 60, 0
2, 25960, Note_off_c, 1, 69, 0
2, 25960, Note_off_c, 1, 72, 0
2, 26000, Note_on_c, 1, 52, 127
2, 26000, Note_on_c, 1, 67, 127
2, 26360, Note_off_c, 1, 52, 0
2, 26360, Note_off_c, 1, 55, 0
2, 26360, Note_off_c, 1, 67, 0
2, 26400, Note_on_c, 1, 48, 127
2, 26400, Note_on_c, 1, 52, 127
2, 26400, Note_on_c, 1, 72, 127
2, 26760, Note_off_c, 1, 72, 0
2, 27120, Note_off_c, 1, 48, 0
2, 27120, Note_off_c, 1, 52, 0
2, 27160, Note_on_c, 1, 48, 127
2, 27160, Note_on_c, 1, 52, 127
2, 27200, Note_off_c, 1, 52, 0
2, 27240, Note_on_c, 1, 56, 127
2, 27240, Note_on_c, 1, 72, 127
2, 27560, Note_on_c, 1, 68, 127
2, 27560, Note_off_c, 1, 72, 0
2, 27600, Note_off_c, 1, 48, 0
2, 27600, Note_off_c, 1, 56, 0
2, 27600, Note_off_c, 1, 68, 0
2, 27640, Note_on_c, 1, 55, 127
2, 27640, Note_on_c, 1, 60, 127
2, 27640, Note_on_c, 1, 62, 127
2, 27640, Note_on_c, 1, 67, 127
2, 27960, Note_off_c, 1, 60, 0
2, 28000, Note_on_c, 1, 60, 127
2, 28360, Note_off_c, 1, 60, 0
2, 28360, Note_off_c, 1, 62, 0
2, 28360, Note_off_c, 1, 67, 0
2, 28400, Note_on_c, 1, 59, 127
2, 28400, Note_on_c, 1, 62, 127
2, 28400, Note_on_c, 1, 67, 127
2, 29200, Note_off_c, 1, 55, 0
2, 29200, Note_off_c, 1, 59, 0
2, 29200, Note_off_c, 1, 62, 0
2, 29240, Note_off_c, 1, 67, 0
2, 29280, Note_on_c, 1, 52, 127
2, 29280, Note_on_c, 1, 60, 127
2, 29280, Note_on_c, 1, 67, 127
2, 29640, Note_off_c, 1, 52, 0
2, 29640, Note_off_c, 1, 67, 0
2, 29680, Note_on_c, 1, 55, 127
2, 29680, Note_on_c, 1, 62, 127
2, 29680, Note_on_c, 1, 67, 127
2, 30040, Note_off_c, 1, 60, 0
2, 30040, Note_off_c, 1, 62, 0
2, 30080, Note_on_c, 1, 64, 127
2, 30080, Note_off_c, 1, 67, 0
2, 30080, Note_on_c, 1, 70, 127
2, 30080, Note_on_c, 1, 74, 127
2, 30440, Note_off_c, 1, 55, 0
2, 30440, Note_off_c, 1, 64, 0
2, 30440, Note_off_c, 1, 70, 0
2, 30440, Note_off_c, 1, 74, 0
2, 30480, Note_on_c, 1, 58, 127
2, 30480, Note_on_c, 1, 67, 127
2, 30480, Note_on_c, 1, 72, 127
2, 30840, Note_off_c, 1, 67, 0
2, 30840, Note_off_c, 1, 72, 0
2, 30880, Note_on_c, 1, 50, 127
2, 30880, Note_on_c, 1, 52, 127
2, 30880, Note_off_c, 1, 58, 0
2, 30880, Note_on_c, 1, 67, 127
2, 30880, Note_on_c, 1, 78, 127
2, 31240, Note_off_c, 1, 50, 0
2, 31240, Note_off_c, 1, 52, 0
2, 31240, Note_off_c, 1, 67, 0
2, 31240, Note_off_c, 1, 78, 0
2, 31280, Note_on_c, 1, 50, 127
2, 31280, Note_on_c, 1, 57, 127
2, 31280, Note_on_c, 1, 74, 127
2, 31280, Note_on_c, 1, 78, 127
2, 31520, Note_off_c, 1, 50, 0
2, 31520, Note_off_c, 1, 57, 0
2, 31520, Note_off_c, 1, 74, 0
2, 31520, Note_off_c, 1, 78, 0
2, 31560, Note_on_c, 1, 50, 127
2, 31560, Note_on_c, 1, 57, 127
2, 31560, Note_on_c, 1, 74, 127
2, 31560, Note_on_c, 1, 78, 127
2, 31680, Note_off_c, 1, 50, 0
2, 31680, Note_off_c, 1, 57, 0
2, 31680, Note_off_c, 1, 74, 0
2, 31680, Note_off_c, 1, 78, 0
2, 31720, Note_on_c, 1, 38, 127
2, 31720, Note_on_c, 1, 50, 127
2, 31720, Note_on_c, 1, 62, 127
2, 31720, Note_on_c, 1, 67, 127
2, 31720, Note_on_c, 1, 74, 127
2, 32480, Note_off_c, 1, 38, 0
2, 32480, Note_on_c, 1, 42, 127
2, 32480, Note_off_c, 1, 50, 0
2, 32480, Note_on_c, 1, 51, 127
2, 32480, Note_on_c, 1, 60, 127
2, 32480, Note_off_c, 1, 62, 0
2, 32480, Note_off_c, 1, 67, 0
2, 32480, Note_on_c, 1, 72, 127
2, 32480, Note_off_c, 1, 74, 0
2, 32520, Note_off_c, 1, 42, 0
2, 32520, Note_off_c, 1, 51, 0
2, 32520, Note_on_c, 1, 56, 127
2, 32520, Note_on_c, 1, 59, 127
2, 32520, Note_off_c, 1, 60, 0
2, 32520, Note_on_c, 1, 63, 127
2, 32520, Note_off_c, 1, 72, 0
2, 32520, Note_on_c, 1, 75, 127
2, 32520, Note_on_c, 1, 80, 127
2, 32560, Note_on_c, 1, 33, 127
2, 32560, Note_on_c, 1, 45, 127
2, 32560, Note_on_c, 1, 52, 127
2, 32560, Note_on_c, 1, 55, 127
2, 32560, Note_off_c, 1, 56, 0
2, 32560, Note_on_c, 1, 57, 127
2, 32560, Note_off_c, 1, 59, 0
2, 32560, Note_off_c, 1, 63, 0
2, 32560, Note_on_c, 1, 69, 127
2, 32560, Note_off_c, 1, 75, 0
2, 32560, Note_off_c, 1, 80, 0
2, 32600, Note_off_c, 1, 33, 0
2, 32600, Note_on_c, 1, 40, 127
2, 32600, Note_off_c, 1, 45, 0
2, 32600, Note_off_c, 1, 52, 0
2, 32600, Note_off_c, 1, 55, 0
2, 32600, Note_off_c, 1, 57, 0
2, 32600, Note_off_c, 1, 69, 0
2, 32600, Note_on_c, 1, 73, 127
2, 32600, Note_on_c, 1, 76, 127
2, 32600, Note_on_c, 1, 79, 127
2, 32600, Note_on_c, 1, 82, 127
2, 32600, Note_on_c, 1, 85, 127
2, 32640, Note_on_c, 1, 38, 127
2, 32640, Note_off_c, 1, 40, 0
2, 32640, Note_on_c, 1, 50, 127
2, 32640, Note_off_c, 1, 73, 0
2, 32640, Note_off_c, 1, 76, 0
2, 32640, Note_off_c, 1, 79, 0
2, 32640, Note_on_c, 1, 80, 127
2, 32640, Note_off_c, 1, 85, 0
2, 32640, Note_on_c, 1, 89, 127
2, 32640, Note_on_c, 1, 92, 127
2, 32680, Note_off_c, 1, 38, 0
2, 32680, Note_off_c, 1, 50, 0
2, 32680, Note_on_c, 1, 53, 127
2, 32680, Note_on_c, 1, 60, 127
2, 32680, Note_on_c, 1, 67, 127
2, 32680, Note_on_c, 1, 79, 127
2, 32680, Note_off_c, 1, 80, 0
2, 32680, Note_off_c, 1, 82, 0
2, 32680, Note_off_c, 1, 89, 0
2, 32680, Note_off_c, 1, 92, 0
2, 32720, Note_on_c, 1, 38, 127
2, 32720, Note_on_c, 1, 41, 127
2, 32720, Note_on_c, 1, 45, 127
2, 32720, Note_on_c, 1, 57, 127
2, 32720, Note_on_c, 1, 62, 127
2, 32720, Note_on_c, 1, 65, 127
2, 32720, Note_on_c, 1, 66, 127
2, 32720, Note_off_c, 1, 67, 0
2, 32720, Note_on_c, 1, 69, 127
2, 32720, Note_off_c, 1, 79, 0
2, 32880, Note_off_c, 1, 38, 0
2, 32880, Note_off_c, 1, 41, 0
2, 32880, Note_off_c, 1, 45, 0
2, 32880, Note_off_c, 1, 53, 0
2, 32880, Note_off_c, 1, 57, 0
2, 32880, Note_off_c, 1, 60, 0
2, 32880, Note_off_c, 1, 62, 0
2, 32880, Note_off_c, 1, 65, 0
2, 32880, Note_off_c, 1, 69, 0
2, 32920, Note_on_c, 1, 33, 127
2, 32920, Note_on_c, 1, 45, 127
2, 32920, Note_on_c, 1, 65, 127
2, 32920, Note_off_c, 1, 66, 0
2, 32920, Note_on_c, 1, 72, 127
2, 32920, Note_on_c, 1, 75, 127
2, 33280, Note_off_c, 1, 33, 0
2, 33280, Note_off_c, 1, 45, 0
2, 33280, Note_off_c, 1, 65, 0
2, 33280, Note_off_c, 1, 72, 0
2, 33280, Note_off_c, 1, 75, 0
2, 33320, Note_on_c, 1, 40, 127
2, 33320, Note_on_c, 1, 52, 127
2, 33320, Note_on_c, 1, 74, 127
2, 33320, Note_on_c, 1, 84, 127
2, 33680, Note_off_c, 1, 40, 0
2, 33680, Note_off_c, 1, 52, 0
2, 33680, Note_off_c, 1, 74, 0
2, 33680, Note_off_c, 1, 84, 0
2, 33720, Note_on_c, 1, 74, 127
2, 33720, Note_on_c, 1, 84, 127
2, 33760, Note_on_c, 1, 55, 127
2, 33760, Note_on_c, 1, 58, 127
2, 33760, Note_on_c, 1, 62, 127
2, 33760, Note_off_c, 1, 74, 0
2, 33760, Note_on_c, 1, 77, 127
2, 33760, Note_off_c, 1, 84, 0
2, 34120, Note_off_c, 1, 55, 0
2, 34120, Note_off_c, 1, 58, 0
2, 34120, Note_off_c, 1, 62, 0
2, 34120, Note_off_c, 1, 77, 0
2, 34160, Note_on_c, 1, 58, 127
2, 34160, Note_on_c, 1, 63, 127
2, 34160, Note_on_c, 1, 67, 127
2, 34160, Note_on_c, 1, 93, 127
2, 34520, Note_off_c, 1, 63, 0
2, 34520, Note_on_c, 1, 70, 127
2, 34520, Note_off_c, 1, 93, 0
2, 34560, Note_on_c, 1, 44, 127
2, 34560, Note_on_c, 1, 48, 127
2, 34560, Note_off_c, 1, 58, 0
2, 34560, Note_off_c, 1, 67, 0
2, 34560, Note_off_c, 1, 70, 0
2, 34560, Note_on_c, 1, 72, 127
2, 34560, Note_on_c, 1, 74, 127
2, 34560, Note_on_c, 1, 84, 127
2, 34600, Note_off_c, 1, 48, 0
2, 34600, Note_on_c, 1, 56, 127
2, 34600, Note_on_c, 1, 70, 127
2, 34600, Note_off_c, 1, 72, 0
2, 34600, Note_on_c, 1, 73, 127
2, 34600, Note_off_c, 1, 74, 0
2, 34600, Note_on_c, 1, 77, 127
2, 34600, Note_off_c, 1, 84, 0
2, 34640, Note_on_c, 1, 48, 127
2, 34640, Note_off_c, 1, 56, 0
2, 34640, Note_off_c, 1, 70, 0
2, 34640, Note_on_c, 1, 72, 127
2, 34640, Note_off_c, 1, 73, 0
2, 34640, Note_on_c, 1, 74, 127
2, 34640, Note_off_c, 1, 77, 0
2, 34640, Note_on_c, 1, 84, 127
2, 34760, Note_off_c, 1, 48, 0
2, 34760, Note_on_c, 1, 56, 127
2, 34760, Note_on_c, 1, 70, 127
2, 34760, Note_off_c, 1, 72, 0
2, 34760, Note_on_c, 1, 73, 127
2, 34760, Note_off_c, 1, 74, 0
2, 34760, Note_on_c, 1, 77, 127
2, 34760, Note_off_c, 1, 84, 0
2, 34800, Note_on_c, 1, 48, 127
2, 34800, Note_off_c, 1, 56, 0
2, 34800, Note_off_c, 1, 70, 0
2, 34800, Note_on_c, 1, 72, 127
2, 34800, Note_off_c, 1, 73, 0
2, 34800, Note_on_c, 1, 74, 127
2, 34800, Note_off_c, 1, 77, 0
2, 34800, Note_on_c, 1, 84, 127
2, 34840, Note_on_c, 1, 34, 127
2, 34840, Note_off_c, 1, 44, 0
2, 34840, Note_on_c, 1, 46, 127
2, 34840, Note_off_c, 1, 48, 0
2, 34840, Note_off_c, 1, 72, 0
2, 34840, Note_on_c, 1, 77, 127
2, 34840, Note_on_c, 1, 82, 127
2, 34840, Note_off_c, 1, 84, 0
2, 34880, Note_off_c, 1, 34, 0
2, 34880, Note_on_c, 1, 36, 127
2, 34880, Note_off_c, 1, 46, 0
2, 34880, Note_on_c, 1, 65, 127
2, 34880, Note_off_c, 1, 74, 0
2, 34880, Note_off_c, 1, 77, 0
2, 34880, Note_off_c, 1, 82, 0
2, 34880, Note_on_c, 1, 84, 127
2, 34920, Note_off_c, 1, 36, 0
2, 34920, Note_off_c, 1, 65, 0
2, 34920, Note_off_c, 1, 84, 0
2, 34960, Note_on_c, 1, 61, 127
2, 34960, Note_on_c, 1, 70, 127
2, 34960, Note_on_c, 1, 75, 127
2, 34960, Note_on_c, 1, 85, 127
2, 35000, Note_on_c, 1, 45, 127
2, 35000, Note_on_c, 1, 54, 127
2, 35000, Note_on_c, 1, 57, 127
2, 35000, Note_off_c, 1, 61, 0
2, 35000, Note_on_c, 1, 69, 127
2, 35000, Note_off_c, 1, 70, 0
2, 35000, Note_on_c, 1, 72, 127
2, 35000, Note_off_c, 1, 85, 0
2, 35040, Note_off_c, 1, 45, 0
2, 35040, Note_on_c, 1, 46, 127
2, 35040, Note_off_c, 1, 54, 0
2, 35040, Note_off_c, 1, 57, 0
2, 35040, Note_on_c, 1, 58, 127
2, 35040, Note_on_c, 1, 61, 127
2, 35040, Note_on_c, 1, 66, 127
2, 35040, Note_off_c, 1, 69, 0
2, 35040, Note_off_c, 1, 72, 0
2, 35040, Note_on_c, 1, 73, 127
2, 35040, Note_off_c, 1, 75, 0
2, 35080, Note_off_c, 1, 46, 0
2, 35080, Note_on_c, 1, 48, 127
2, 35080, Note_on_c, 1, 50, 127
2, 35080, Note_on_c, 1, 54, 127
2, 35080, Note_off_c, 1, 58, 0
2, 35080, Note_on_c, 1, 60, 127
2, 35080, Note_off_c, 1, 61, 0
2, 35080, Note_off_c, 1, 66, 0
2, 35080, Note_on_c, 1, 72, 127
2, 35080, Note_off_c, 1, 73, 0
2, 35080, Note_on_c, 1, 74, 127
2, 35080, Note_on_c, 1, 78, 127
2, 35080, Note_on_c, 1, 84, 127
2, 35120, Note_on_c, 1, 39, 127
2, 35120, Note_off_c, 1, 48, 0
2, 35120, Note_off_c, 1, 50, 0
2, 35120, Note_off_c, 1, 54, 0
2, 35120, Note_off_c, 1, 60, 0
2, 35120, Note_off_c, 1, 72, 0
2, 35120, Note_off_c, 1, 74, 0
2, 35120, Note_on_c, 1, 76, 127
2, 35120, Note_off_c, 1, 78, 0
2, 35120, Note_on_c, 1, 79, 127
2, 35120, Note_on_c, 1, 83, 127
2, 35120, Note_off_c, 1, 84, 0
2, 35120, Note_on_c, 1, 88, 127
2, 35160, Note_off_c, 1, 39, 0
2, 35160, Note_on_c, 1, 58, 127
2, 35160, Note_on_c, 1, 61, 127
2, 35160, Note_on_c, 1, 64, 127
2, 35160, Note_on_c, 1, 67, 127
2, 35160, Note_on_c, 1, 70, 127
2, 35160, Note_off_c, 1, 76, 0
2, 35160, Note_off_c, 1, 79, 0
2, 35160, Note_off_c, 1, 83, 0
2, 35160, Note_off_c, 1, 88, 0
2, 35160, Note_on_c, 1, 94, 127
2, 35200, Note_on_c, 1, 47, 127
2, 35200, Note_on_c, 1, 55, 127
2, 35200, Note_off_c, 1, 58, 0
2, 35200, Note_off_c, 1, 61, 0
2, 35200, Note_off_c, 1, 64, 0
2, 35200, Note_off_c, 1, 70, 0
2, 35200, Note_on_c, 1, 75, 127
2, 35200, Note_on_c, 1, 78, 127
2, 35200, Note_off_c, 1, 94, 0
2, 35240, Note_off_c, 1, 47, 0
2, 35240, Note_off_c, 1, 55, 0
2, 35240, Note_on_c, 1, 64, 127
2, 35240, Note_on_c, 1, 69, 127
2, 35240, Note_off_c, 1, 75, 0
2, 35240, Note_off_c, 1, 78, 0
2, 35240, Note_on_c, 1, 85, 127
2, 35280, Note_on_c, 1, 66, 127
2, 35280, Note_off_c, 1, 67, 0
2, 35280, Note_off_c, 1, 69, 0
2, 35280, Note_on_c, 1, 71, 127
2, 35280, Note_on_c, 1, 78, 127
2, 35280, Note_off_c, 1, 85, 0
2, 35320, Note_on_c, 1, 48, 127
2, 35320, Note_on_c, 1, 53, 127
2, 35320, Note_on_c, 1, 60, 127
2, 35320, Note_off_c, 1, 64, 0
2, 35320, Note_off_c, 1, 66, 0
2, 35320, Note_off_c, 1, 71, 0
2, 35320, Note_off_c, 1, 78, 0
2, 35320, Note_on_c, 1, 79, 127
2, 35320, Note_on_c, 1, 89, 127
2, 35320, Note_on_c, 1, 91, 127
2, 35360, Note_on_c, 1, 44, 127
2, 35360, Note_off_c, 1, 48, 0
2, 35360, Note_on_c, 1, 51, 127
2, 35360, Note_off_c, 1, 53, 0
2, 35360, Note_on_c, 1, 61, 127
2, 35360, Note_off_c, 1, 79, 0
2, 35360, Note_off_c, 1, 89, 0
2, 35360, Note_off_c, 1, 91, 0
2, 35400, Note_off_c, 1, 44, 0
2, 35400, Note_off_c, 1, 51, 0
2, 35400, Note_on_c, 1, 53, 127
2, 35400, Note_off_c, 1, 61, 0
2, 35400, Note_on_c, 1, 81, 127
2, 35400, Note_on_c, 1, 96, 127
2, 35440, Note_on_c, 1, 47, 127
2, 35440, Note_off_c, 1, 53, 0
2, 35440, Note_on_c, 1, 59, 127
2, 35440, Note_off_c, 1, 60, 0
2, 35440, Note_on_c, 1, 66, 127
2, 35440, Note_on_c, 1, 69, 127
2, 35440, Note_on_c, 1, 78, 127
2, 35440, Note_off_c, 1, 81, 0
2, 35440, Note_off_c, 1, 96, 0
2, 35480, Note_on_c, 1, 36, 127
2, 35480, Note_off_c, 1, 47, 0
2, 35480, Note_on_c, 1, 48, 127
2, 35480, Note_off_c, 1, 59, 0
2, 35480, Note_off_c, 1, 66, 0
2, 35480, Note_on_c, 1, 72, 127
2, 35480, Note_on_c, 1, 76, 127
2, 35480, Note_off_c, 1, 78, 0
2, 35480, Note_on_c, 1, 81, 127
2, 35520, Note_off_c, 1, 36, 0
2, 35520, Note_on_c, 1, 39, 127
2, 35520, Note_off_c, 1, 48, 0
2, 35520, Note_on_c, 1, 67, 127
2, 35520, Note_off_c, 1, 69, 0
2, 35520, Note_on_c, 1, 70, 127
2, 35520, Note_on_c, 1, 75, 127
2, 35520, Note_off_c, 1, 76, 0
2, 35520, Note_off_c, 1, 81, 0
2, 35560, Note_on_c, 1, 36, 127
2, 35560, Note_off_c, 1, 39, 0
2, 35560, Note_on_c, 1, 48, 127
2, 35560, Note_off_c, 1, 67, 0
2, 35560, Note_on_c, 1, 69, 127
2, 35560, Note_off_c, 1, 70, 0
2, 35560, Note_off_c, 1, 75, 0
2, 35560, Note_on_c, 1, 76, 127
2, 35560, Note_on_c, 1, 81, 127
2, 35720, Note_off_c, 1, 36, 0
2, 35720, Note_off_c, 1, 48, 0
2, 35720, Note_off_c, 1, 69, 0
2, 35720, Note_off_c, 1, 72, 0
2, 35720, Note_off_c, 1, 76, 0
2, 35720, Note_off_c, 1, 81, 0
2, 35800, Note_on_c, 1, 52, 127
2, 35800, Note_on_c, 1, 57, 127
2, 35800, Note_on_c, 1, 64, 127
2, 35800, Note_on_c, 1, 71, 127
2, 36520, Note_off_c, 1, 52, 0
2, 36520, Note_off_c, 1, 57, 0
2, 36520, Note_off_c, 1, 64, 0
2, 36520, Note_off_c, 1, 71, 0
2, 36560, Note_on_c, 1, 33, 127
2, 36560, Note_on_c, 1, 45, 127
2, 36560, Note_on_c, 1, 69, 127
2, 36560, Note_on_c, 1, 72, 127
2, 36560, Note_on_c, 1, 77, 127
2, 36560, Note_on_c, 1, 81, 127
2, 36920, Note_off_c, 1, 33, 0
2, 36920, Note_off_c, 1, 45, 0
2, 36920, Note_off_c, 1, 69, 0
2, 36920, Note_off_c, 1, 72, 0
2, 36920, Note_off_c, 1, 77, 0
2, 36920, Note_off_c, 1, 81, 0
2, 36960, Note_on_c, 1, 32, 127
2, 36960, Note_on_c, 1, 38, 127
2, 36960, Note_on_c, 1, 44, 127
2, 36960, Note_on_c, 1, 71, 127
2, 37000, Note_off_c, 1, 32, 0
2, 37000, Note_off_c, 1, 38, 0
2, 37000, Note_on_c, 1, 43, 127
2, 37000, Note_off_c, 1, 44, 0
2, 37000, Note_on_c, 1, 77, 127
2, 37000, Note_on_c, 1, 83, 127
2, 37040, Note_off_c, 1, 43, 0
2, 37040, Note_on_c, 1, 70, 127
2, 37040, Note_off_c, 1, 71, 0
2, 37040, Note_on_c, 1, 72, 127
2, 37040, Note_off_c, 1, 77, 0
2, 37040, Note_on_c, 1, 78, 127
2, 37040, Note_off_c, 1, 83, 0
2, 37040, Note_on_c, 1, 87, 127
2, 37040, Note_on_c, 1, 89, 127
2, 37040, Note_on_c, 1, 93, 127
2, 37080, Note_on_c, 1, 62, 127
2, 37080, Note_on_c, 1, 67, 127
2, 37080, Note_off_c, 1, 72, 0
2, 37080, Note_off_c, 1, 78, 0
2, 37080, Note_off_c, 1, 87, 0
2, 37080, Note_off_c, 1, 89, 0
2, 37120, Note_on_c, 1, 43, 127
2, 37120, Note_off_c, 1, 62, 0
2, 37120, Note_off_c, 1, 67, 0
2, 37120, Note_off_c, 1, 70, 0
2, 37120, Note_on_c, 1, 71, 127
2, 37120, Note_on_c, 1, 77, 127
2, 37120, Note_on_c, 1, 83, 127
2, 37120, Note_off_c, 1, 93, 0
2, 37160, Note_off_c, 1, 43, 0
2, 37160, Note_on_c, 1, 49, 127
2, 37160, Note_on_c, 1, 66, 127
2, 37160, Note_on_c, 1, 69, 127
2, 37160, Note_off_c, 1, 71, 0
2, 37160, Note_off_c, 1, 77, 0
2, 37160, Note_on_c, 1, 78, 127
2, 37160, Note_off_c, 1, 83, 0
2, 37200, Note_on_c, 1, 43, 127
2, 37200, Note_off_c, 1, 49, 0
2, 37200, Note_off_c, 1, 66, 0
2, 37200, Note_off_c, 1, 69, 0
2, 37200, Note_on_c, 1, 71, 127
2, 37200, Note_on_c, 1, 77, 127
2, 37200, Note_off_c, 1, 78, 0
2, 37200, Note_on_c, 1, 83, 127
2, 37280, Note_on_c, 1, 40, 127
2, 37280, Note_off_c, 1, 43, 0
2, 37280, Note_on_c, 1, 59, 127
2, 37280, Note_off_c, 1, 77, 0
2, 37280, Note_on_c, 1, 81, 127
2, 37280, Note_off_c, 1, 83, 0
2, 37320, Note_off_c, 1, 40, 0
2, 37320, Note_off_c, 1, 59, 0
2, 37320, Note_off_c, 1, 71, 0
2, 37320, Note_on_c, 1, 84, 127
2, 37360, Note_on_c, 1, 54, 127
2, 37360, Note_on_c, 1, 60, 127
2, 37360, Note_on_c, 1, 66, 127
2, 37360, Note_on_c, 1, 69, 127
2, 37360, Note_on_c, 1, 78, 127
2, 37360, Note_off_c, 1, 81, 0
2, 37360, Note_off_c, 1, 84, 0
2, 37520, Note_on_c, 1, 47, 127
2, 37520, Note_off_c, 1, 54, 0
2, 37520, Note_off_c, 1, 60, 0
2, 37520, Note_off_c, 1, 66, 0
2, 37520, Note_on_c, 1, 67, 127
2, 37520, Note_off_c, 1, 69, 0
2, 37520, Note_on_c, 1, 70, 127
2, 37520, Note_off_c, 1, 78, 0
2, 37520, Note_on_c, 1, 79, 127
2, 37560, Note_off_c, 1, 47, 0
2, 37560, Note_on_c, 1, 54, 127
2, 37560, Note_on_c, 1, 60, 127
2, 37560, Note_on_c, 1, 66, 127
2, 37560, Note_off_c, 1, 67, 0
2, 37560, Note_on_c, 1, 69, 127
2, 37560, Note_off_c, 1, 70, 0
2, 37560, Note_on_c, 1, 78, 127
2, 37560, Note_off_c, 1, 79, 0
2, 37680, Note_on_c, 1, 53, 127
2, 37680, Note_off_c, 1, 54, 0
2, 37680, Note_off_c, 1, 60, 0
2, 37680, Note_off_c, 1, 66, 0
2, 37680, Note_off_c, 1, 69, 0
2, 37680, Note_on_c, 1, 72, 127
2, 37680, Note_on_c, 1, 77, 127
2, 37680, Note_off_c, 1, 78, 0
2, 37680, Note_on_c, 1, 82, 127
2, 37720, Note_off_c, 1, 53, 0
2, 37720, Note_off_c, 1, 72, 0
2, 37720, Note_off_c, 1, 77, 0
2, 37720, Note_off_c, 1, 82, 0
2, 37760, Note_on_c, 1, 52, 127
2, 37760, Note_on_c, 1, 57, 127
2, 37760, Note_on_c, 1, 60, 127
2, 37760, Note_on_c, 1, 64, 127
2, 37760, Note_on_c, 1, 76, 127
2, 37960, Note_off_c, 1, 52, 0
2, 37960, Note_off_c, 1, 57, 0
2, 37960, Note_off_c, 1, 60, 0
2, 37960, Note_off_c, 1, 64, 0
2, 37960, Note_off_c, 1, 76, 0
2, 38000, Note_on_c, 1, 52, 127
2, 38000, Note_on_c, 1, 57, 127
2, 38000, Note_on_c, 1, 60, 127
2, 38000, Note_on_c, 1, 64, 127
2, 38000, Note_on_c, 1, 76, 127
2, 38560, Note_off_c, 1, 52, 0
2, 38560, Note_off_c, 1, 57, 0
2, 38560, Note_off_c, 1, 60, 0
2, 38560, Note_off_c, 1, 64, 0
2, 38560, Note_off_c, 1, 76, 0
2, 38600, Note_on_c, 1, 52, 127
2, 38600, Note_on_c, 1, 57, 127
2, 38600, Note_on_c, 1, 60, 127
2, 38600, Note_on_c, 1, 64, 127
2, 38600, Note_on_c, 1, 69, 127
2, 39720, Note_off_c, 1, 52, 0
2, 39720, Note_off_c, 1, 57, 0
2, 39720, Note_off_c, 1, 60, 0
2, 39720, Note_off_c, 1, 64, 0
2, 39720, Note_off_c, 1, 69, 0
2, 39760, Note_on_c, 1, 60, 127
2, 39760, Note_on_c, 1, 64, 127
2, 39760, Note_on_c, 1, 67, 127
2, 39760, Note_on_c, 1, 72, 127
2, 40160, Note_off_c, 1, 60, 0
2, 40160, Note_off_c, 1, 64, 0
2, 40160, Note_off_c, 1, 67, 0
2, 40160, Note_off_c, 1, 72, 0
2, 40200, Note_on_c, 1, 60, 127
2, 40200, Note_on_c, 1, 64, 127
2, 40200, Note_on_c, 1, 67, 127
2, 40200, Note_on_c, 1, 72, 127
2, 40560, Note_off_c, 1, 72, 0
2, 40600, Note_on_c, 1, 57, 127
2, 40600, Note_off_c, 1, 67, 0
2, 40600, Note_on_c, 1, 72, 127
2, 40960, Note_off_c, 1, 57, 0
2, 40960, Note_off_c, 1, 60, 0
2, 40960, Note_off_c, 1, 64, 0
2, 40960, Note_off_c, 1, 72, 0
2, 41000, Note_on_c, 1, 62, 127
2, 41000, Note_on_c, 1, 65, 127
2, 41000, Note_on_c, 1, 67, 127
2, 41000, Note_on_c, 1, 71, 127
2, 41360, Note_off_c, 1, 71, 0
2, 41400, Note_on_c, 1, 72, 127
2, 41760, Note_off_c, 1, 62, 0
2, 41760, Note_off_c, 1, 65, 0
2, 41760, Note_off_c, 1, 72, 0
2, 41800, Note_on_c, 1, 62, 127
2, 41800, Note_on_c, 1, 65, 127
2, 41800, Note_on_c, 1, 71, 127
2, 42160, Note_off_c, 1, 71, 0
2, 42200, Note_on_c, 1, 55, 127
2, 42200, Note_off_c, 1, 62, 0
2, 42200, Note_on_c, 1, 64, 127
2, 42200, Note_off_c, 1, 65, 0
2, 42200, Note_on_c, 1, 72, 127
2, 42440, Note_off_c, 1, 55, 0
2, 42440, Note_off_c, 1, 64, 0
2, 42440, Note_off_c, 1, 67, 0
2, 42440, Note_off_c, 1, 72, 0
2, 42480, Note_on_c, 1, 55, 127
2, 42480, Note_on_c, 1, 64, 127
2, 42480, Note_on_c, 1, 67, 127
2, 42480, Note_on_c, 1, 72, 127
2, 42600, Note_on_c, 1, 59, 127
2, 42600, Note_on_c, 1, 62, 127
2, 42600, Note_off_c, 1, 64, 0
2, 42600, Note_off_c, 1, 72, 0
2, 42640, Note_on_c, 1, 42, 127
2, 42640, Note_on_c, 1, 54, 127
2, 42640, Note_off_c, 1, 55, 0
2, 42640, Note_off_c, 1, 59, 0
2, 42640, Note_off_c, 1, 62, 0
2, 42640, Note_off_c, 1, 67, 0
2, 42640, Note_on_c, 1, 81, 127
2, 42640, Note_on_c, 1, 86, 127
2, 42640, Note_on_c, 1, 93, 127
2, 42680, Note_on_c, 1, 38, 127
2, 42680, Note_off_c, 1, 42, 0
2, 42680, Note_on_c, 1, 48, 127
2, 42680, Note_on_c, 1, 50, 127
2, 42680, Note_off_c, 1, 54, 0
2, 42680, Note_off_c, 1, 81, 0
2, 42680, Note_off_c, 1, 86, 0
2, 42680, Note_off_c, 1, 93, 0
2, 43000, Note_off_c, 1, 38, 0
2, 43000, Note_off_c, 1, 48, 0
2, 43000, Note_off_c, 1, 50, 0
2, 43040, Note_on_c, 1, 38, 127
2, 43040, Note_on_c, 1, 48, 127
2, 43040, Note_on_c, 1, 50, 127
2, 43400, Note_off_c, 1, 38, 0
2, 43400, Note_off_c, 1, 48, 0
2, 43400, Note_off_c, 1, 50, 0
2, 43440, Note_on_c, 1, 62, 127
2, 43440, Note_on_c, 1, 66, 127
2, 43440, Note_on_c, 1, 72, 127
2, 43440, Note_on_c, 1, 74, 127
2, 43440, Note_on_c, 1, 81, 127
2, 43440, Note_on_c, 1, 86, 127
2, 43840, Note_off_c, 1, 62, 0
2, 43840, Note_off_c, 1, 66, 0
2, 43840, Note_off_c, 1, 72, 0
2, 43840, Note_on_c, 1, 78, 127
2, 43840, Note_on_c, 1, 84, 127
2, 43840, Note_off_c, 1, 86, 0
2, 43960, Note_off_c, 1, 74, 0
2, 43960, Note_off_c, 1, 78, 0
2, 43960, Note_off_c, 1, 81, 0
2, 43960, Note_off_c, 1, 84, 0
2, 43960, Note_on_c, 1, 86, 127
2, 44000, Note_off_c, 1, 86, 0
2, 44040, Note_on_c, 1, 54, 127
2, 44040, Note_on_c, 1, 62, 127
2, 44040, Note_on_c, 1, 72, 127
2, 44040, Note_on_c, 1, 81, 127
2, 44080, Note_on_c, 1, 52, 127
2, 44080, Note_off_c, 1, 72, 0
2, 44080, Note_on_c, 1, 78, 127
2, 44080, Note_off_c, 1, 81, 0
2, 44120, Note_off_c, 1, 52, 0
2, 44120, Note_on_c, 1, 72, 127
2, 44120, Note_off_c, 1, 78, 0
2, 44120, Note_on_c, 1, 81, 127
2, 44360, Note_off_c, 1, 54, 0
2, 44360, Note_on_c, 1, 60, 127
2, 44360, Note_on_c, 1, 69, 127
2, 44360, Note_off_c, 1, 72, 0
2, 44360, Note_on_c, 1, 77, 127
2, 44360, Note_off_c, 1, 81, 0
2, 44400, Note_on_c, 1, 57, 127
2, 44400, Note_off_c, 1, 60, 0
2, 44400, Note_off_c, 1, 62, 0
2, 44400, Note_on_c, 1, 66, 127
2, 44400, Note_off_c, 1, 69, 0
2, 44400, Note_off_c, 1, 77, 0
2, 44400, Note_on_c, 1, 81, 127
2, 44400, Note_on_c, 1, 84, 127
2, 44440, Note_on_c, 1, 55, 127
2, 44440, Note_off_c, 1, 57, 0
2, 44440, Note_on_c, 1, 64, 127
2, 44440, Note_off_c, 1, 66, 0
2, 44440, Note_on_c, 1, 76, 127
2, 44440, Note_off_c, 1, 81, 0
2, 44440, Note_off_c, 1, 84, 0
2, 44440, Note_on_c, 1, 88, 127
2, 44480, Note_off_c, 1, 55, 0
2, 44480, Note_off_c, 1, 64, 0
2, 44480, Note_off_c, 1, 76, 0
2, 44480, Note_off_c, 1, 88, 0
2, 44520, Note_on_c, 1, 55, 127
2, 44520, Note_on_c, 1, 64, 127
2, 44520, Note_on_c, 1, 76, 127
2, 44520, Note_on_c, 1, 88, 127
2, 44640, Note_off_c, 1, 55, 0
2, 44640, Note_off_c, 1, 64, 0
2, 44640, Note_off_c, 1, 76, 0
2, 44640, Note_off_c, 1, 88, 0
2, 44680, Note_on_c, 1, 60, 127
2, 44680, Note_on_c, 1, 64, 127
2, 44680, Note_on_c, 1, 69, 127
2, 44680, Note_on_c, 1, 81, 127
2, 45040, Note_off_c, 1, 60, 0
2, 45040, Note_off_c, 1, 64, 0
2, 45040, Note_off_c, 1, 69, 0
2, 45040, Note_off_c, 1, 81, 0
2, 45080, Note_on_c, 1, 60, 127
2, 45080, Note_on_c, 1, 64, 127
2, 45080, Note_on_c, 1, 69, 127
2, 45080, Note_on_c, 1, 81, 127
2, 45640, Note_off_c, 1, 60, 0
2, 45640, Note_off_c, 1, 64, 0
2, 45640, Note_off_c, 1, 69, 0
2, 45640, Note_off_c, 1, 81, 0
2, 45680, Note_on_c, 1, 68, 127
2, 45680, Note_on_c, 1, 74, 127
2, 45680, Note_on_c, 1, 77, 127
2, 45680, Note_on_c, 1, 82, 127
2, 46040, Note_off_c, 1, 68, 0
2, 46040, Note_on_c, 1, 70, 127
2, 46080, Note_on_c, 1, 58, 127
2, 46440, Note_on_c, 1, 46, 127
2, 46440, Note_on_c, 1, 49, 127
2, 46440, Note_on_c, 1, 55, 127
2, 46440, Note_off_c, 1, 58, 0
2, 46440, Note_off_c, 1, 70, 0
2, 46440, Note_off_c, 1, 74, 0
2, 46440, Note_off_c, 1, 77, 0
2, 46440, Note_off_c, 1, 82, 0
2, 46480, Note_on_c, 1, 43, 127
2, 46480, Note_off_c, 1, 46, 0
2, 46480, Note_off_c, 1, 49, 0
2, 46480, Note_off_c, 1, 55, 0
2, 46480, Note_on_c, 1, 56, 127
2, 46480, Note_on_c, 1, 74, 127
2, 46480, Note_on_c, 1, 80, 127
2, 46520, Note_off_c, 1, 43, 0
2, 46520, Note_off_c, 1, 56, 0
2, 46520, Note_off_c, 1, 74, 0
2, 46520, Note_off_c, 1, 80, 0
2, 46560, Note_on_c, 1, 54, 127
2, 46560, Note_on_c, 1, 61, 127
2, 46560, Note_on_c, 1, 66, 127
2, 46560, Note_on_c, 1, 70, 127
2, 46560, Note_on_c, 1, 73, 127
2, 46560, Note_on_c, 1, 78, 127
2, 46560, Note_on_c, 1, 82, 127
2, 46560, Note_on_c, 1, 85, 127
2, 46600, Note_on_c, 1, 48, 127
2, 46600, Note_off_c, 1, 54, 0
2, 46600, Note_on_c, 1, 56, 127
2, 46600, Note_off_c, 1, 61, 0
2, 46600, Note_on_c, 1, 63, 127
2, 46600, Note_off_c, 1, 70, 0
2, 46600, Note_off_c, 1, 73, 0
2, 46600, Note_off_c, 1, 82, 0
2, 46600, Note_off_c, 1, 85, 0
2, 46640, Note_off_c, 1, 48, 0
2, 46640, Note_on_c, 1, 53, 127
2, 46640, Note_off_c, 1, 56, 0
2, 46640, Note_off_c, 1, 63, 0
2, 46640, Note_off_c, 1, 66, 0
2, 46640, Note_on_c, 1, 69, 127
2, 46640, Note_on_c, 1, 74, 127
2, 46640, Note_off_c, 1, 78, 0
2, 46640, Note_on_c, 1, 79, 127
2, 46680, Note_on_c, 1, 39, 127
2, 46680, Note_off_c, 1, 69, 0
2, 46680, Note_off_c, 1, 79, 0
2, 46720, Note_off_c, 1, 39, 0
2, 46720, Note_off_c, 1, 53, 0
2, 46720, Note_on_c, 1, 82, 127
2, 46720, Note_on_c, 1, 92, 127
2, 46720, Note_on_c, 1, 94, 127
2, 46760, Note_on_c, 1, 36, 127
2, 46760, Note_on_c, 1, 45, 127
2, 46760, Note_on_c, 1, 48, 127
2, 46760, Note_on_c, 1, 63, 127
2, 46760, Note_on_c, 1, 65, 127
2, 46760, Note_on_c, 1, 72, 127
2, 46760, Note_off_c, 1, 74, 0
2, 46760, Note_on_c, 1, 76, 127
2, 46760, Note_off_c, 1, 82, 0
2, 46760, Note_off_c, 1, 92, 0
2, 46760, Note_off_c, 1, 94, 0
2, 46800, Note_off_c, 1, 36, 0
2, 46800, Note_on_c, 1, 42, 127
2, 46800, Note_off_c, 1, 45, 0
2, 46800, Note_off_c, 1, 48, 0
2, 46800, Note_on_c, 1, 54, 127
2, 46800, Note_off_c, 1, 63, 0
2, 46800, Note_off_c, 1, 65, 0
2, 46800, Note_off_c, 1, 72, 0
2, 46800, Note_on_c, 1, 78, 127
2, 46840, Note_off_c, 1, 42, 0
2, 46840, Note_on_c, 1, 53, 127
2, 46840, Note_off_c, 1, 54, 0
2, 46840, Note_on_c, 1, 58, 127
2, 46840, Note_on_c, 1, 65, 127
2, 46840, Note_off_c, 1, 76, 0
2, 46840, Note_off_c, 1, 78, 0
2, 46840, Note_on_c, 1, 79, 127
2, 46840, Note_on_c, 1, 82, 127
2, 46880, Note_off_c, 1, 53, 0
2, 46880, Note_off_c, 1, 58, 0
2, 46880, Note_off_c, 1, 65, 0
2, 46880, Note_off_c, 1, 79, 0
2, 46880, Note_off_c, 1, 82, 0
2, 46920, Note_on_c, 1, 41, 127
2, 46920, Note_on_c, 1, 50, 127
2, 46920, Note_on_c, 1, 59, 127
2, 46920, Note_on_c, 1, 65, 127
2, 46920, Note_on_c, 1, 71, 127
2, 46960, Note_off_c, 1, 41, 0
2, 46960, Note_off_c, 1, 59, 0
2, 46960, Note_on_c, 1, 67, 127
2, 47000, Note_on_c, 1, 49, 127
2, 47000, Note_off_c, 1, 50, 0
2, 47000, Note_on_c, 1, 53, 127
2, 47000, Note_on_c, 1, 60, 127
2, 47000, Note_off_c, 1, 65, 0
2, 47000, Note_off_c, 1, 67, 0
2, 47000, Note_off_c, 1, 71, 0
2, 47000, Note_on_c, 1, 72, 127
2, 47000, Note_on_c, 1, 77, 127
2, 47040, Note_off_c, 1, 49, 0
2, 47040, Note_off_c, 1, 53, 0
2, 47040, Note_off_c, 1, 60, 0
2, 47040, Note_on_c, 1, 62, 127
2, 47040, Note_off_c, 1, 72, 0
2, 47040, Note_off_c, 1, 77, 0
2, 47040, Note_on_c, 1, 90, 127
2, 47040, Note_on_c, 1, 92, 127
2, 47040, Note_on_c, 1, 95, 127
2, 47040, Note_on_c, 1, 98, 127
2, 47040, Note_on_c, 1, 102, 127
2, 47080, Note_on_c, 1, 39, 127
2, 47080, Note_on_c, 1, 51, 127
2, 47080, Note_on_c, 1, 60, 127
2, 47080, Note_off_c, 1, 62, 0
2, 47080, Note_on_c, 1, 68, 127
2, 47080, Note_on_c, 1, 75, 127
2, 47080, Note_off_c, 1, 90, 0
2, 47080, Note_off_c, 1, 92, 0
2, 47080, Note_off_c, 1, 95, 0
2, 47080, Note_off_c, 1, 98, 0
2, 47080, Note_off_c, 1, 102, 0
2, 47120, Note_off_c, 1, 39, 0
2, 47120, Note_off_c, 1, 51, 0
2, 47120, Note_on_c, 1, 55, 127
2, 47120, Note_on_c, 1, 59, 127
2, 47120, Note_off_c, 1, 60, 0
2, 47120, Note_on_c, 1, 62, 127
2, 47120, Note_on_c, 1, 65, 127
2, 47120, Note_on_c, 1, 67, 127
2, 47120, Note_off_c, 1, 68, 0
2, 47120, Note_off_c, 1, 75, 0
2, 47120, Note_on_c, 1, 83, 127
2, 47160, Note_off_c, 1, 55, 0
2, 47160, Note_off_c, 1, 59, 0
2, 47160, Note_on_c, 1, 61, 127
2, 47160, Note_off_c, 1, 62, 0
2, 47160, Note_off_c, 1, 65, 0
2, 47160, Note_off_c, 1, 67, 0
2, 47160, Note_on_c, 1, 68, 127
2, 47160, Note_on_c, 1, 70, 127
2, 47160, Note_on_c, 1, 82, 127
2, 47160, Note_off_c, 1, 83, 0
2, 47200, Note_on_c, 1, 48, 127
2, 47200, Note_on_c, 1, 60, 127
2, 47200, Note_off_c, 1, 61, 0
2, 47200, Note_off_c, 1, 68, 0
2, 47200, Note_off_c, 1, 70, 0
2, 47200, Note_on_c, 1, 88, 127
2, 47200, Note_on_c, 1, 91, 127
2, 47200, Note_on_c, 1, 96, 127
2, 47240, Note_off_c, 1, 48, 0
2, 47240, Note_off_c, 1, 60, 0
2, 47240, Note_on_c, 1, 70, 127
2, 47240, Note_on_c, 1, 73, 127
2, 47240, Note_off_c, 1, 88, 0
2, 47240, Note_off_c, 1, 91, 0
2, 47240, Note_on_c, 1, 94, 127
2, 47240, Note_off_c, 1, 96, 0
2, 47240, Note_on_c, 1, 97, 127
2, 47280, Note_on_c, 1, 32, 127
2, 47280, Note_on_c, 1, 44, 127
2, 47280, Note_on_c, 1, 56, 127
2, 47280, Note_on_c, 1, 66, 127
2, 47280, Note_off_c, 1, 73, 0
2, 47280, Note_on_c, 1, 75, 127
2, 47280, Note_off_c, 1, 82, 0
2, 47280, Note_off_c, 1, 94, 0
2, 47280, Note_off_c, 1, 97, 0
2, 47320, Note_off_c, 1, 32, 0
2, 47320, Note_off_c, 1, 44, 0
2, 47320, Note_off_c, 1, 56, 0
2, 47320, Note_on_c, 1, 65, 127
2, 47320, Note_off_c, 1, 66, 0
2, 47320, Note_off_c, 1, 70, 0
2, 47320, Note_on_c, 1, 71, 127
2, 47320, Note_on_c, 1, 74, 127
2, 47320, Note_off_c, 1, 75, 0
2, 47320, Note_on_c, 1, 91, 127
2, 47360, Note_off_c, 1, 65, 0
2, 47360, Note_on_c, 1, 67, 127
2, 47360, Note_off_c, 1, 74, 0
2, 47360, Note_on_c, 1, 75, 127
2, 47360, Note_on_c, 1, 79, 127
2, 47360, Note_off_c, 1, 91, 0
2, 47400, Note_on_c, 1, 52, 127
2, 47400, Note_on_c, 1, 65, 127
2, 47400, Note_off_c, 1, 67, 0
2, 47400, Note_on_c, 1, 74, 127
2, 47400, Note_off_c, 1, 75, 0
2, 47400, Note_off_c, 1, 79, 0
2, 47440, Note_off_c, 1, 52, 0
2, 47440, Note_on_c, 1, 64, 127
2, 47440, Note_off_c, 1, 65, 0
2, 47440, Note_on_c, 1, 68, 127
2, 47440, Note_off_c, 1, 71, 0
2, 47440, Note_on_c, 1, 73, 127
2, 47440, Note_off_c, 1, 74, 0
2, 47440, Note_on_c, 1, 76, 127
2, 47440, Note_on_c, 1, 80, 127
2, 47440, Note_on_c, 1, 83, 127
2, 47480, Note_on_c, 1, 41, 127
2, 47480, Note_on_c, 1, 46, 127
2, 47480, Note_on_c, 1, 62, 127
2, 47480, Note_off_c, 1, 64, 0
2, 47480, Note_off_c, 1, 68, 0
2, 47480, Note_off_c, 1, 73, 0
2, 47480, Note_off_c, 1, 76, 0
2, 47480, Note_off_c, 1, 80, 0
2, 47480, Note_off_c, 1, 83, 0
2, 47520, Note_off_c, 1, 41, 0
2, 47520, Note_off_c, 1, 46, 0
2, 47520, Note_on_c, 1, 48, 127
2, 47520, Note_on_c, 1, 60, 127
2, 47520, Note_off_c, 1, 62, 0
2, 47520, Note_on_c, 1, 78, 127
2, 47520, Note_on_c, 1, 81, 127
2, 47520, Note_on_c, 1, 87, 127
2, 47520, Note_on_c, 1, 90, 127
2, 47560, Note_off_c, 1, 48, 0
2, 47560, Note_on_c, 1, 49, 127
2, 47560, Note_on_c, 1, 57, 127
2, 47560, Note_off_c, 1, 60, 0
2, 47560, Note_on_c, 1, 61, 127
2, 47560, Note_on_c, 1, 74, 127
2, 47560, Note_off_c, 1, 78, 0
2, 47560, Note_off_c, 1, 81, 0
2, 47560, Note_off_c, 1, 87, 0
2, 47560, Note_off_c, 1, 90, 0
2, 47600, Note_off_c, 1, 49, 0
2, 47600, Note_off_c, 1, 57, 0
2, 47600, Note_on_c, 1, 59, 127
2, 47600, Note_off_c, 1, 61, 0
2, 47600, Note_on_c, 1, 68, 127
2, 47600, Note_on_c, 1, 76, 127
2, 47600, Note_on_c, 1, 80, 127
2, 47640, Note_off_c, 1, 59, 0
2, 47640, Note_on_c, 1, 60, 127
2, 47640, Note_off_c, 1, 68, 0
2, 47640, Note_on_c, 1, 71, 127
2, 47640, Note_off_c, 1, 74, 0
2, 47640, Note_off_c, 1, 76, 0
2, 47640, Note_on_c, 1, 78, 127
2, 47640, Note_off_c, 1, 80, 0
2, 47640, Note_on_c, 1, 88, 127
2, 47680, Note_on_c, 1, 47, 127
2, 47680, Note_on_c, 1, 57, 127
2, 47680, Note_off_c, 1, 60, 0
2, 47680, Note_on_c, 1, 62, 127
2, 47680, Note_on_c, 1, 68, 127
2, 47680, Note_off_c, 1, 78, 0
2, 47680, Note_off_c, 1, 88, 0
2, 47720, Note_off_c, 1, 47, 0
2, 47720, Note_on_c, 1, 60, 127
2, 47720, Note_off_c, 1, 62, 0
2, 47720, Note_on_c, 1, 67, 127
2, 47720, Note_off_c, 1, 68, 0
2, 47720, Note_off_c, 1, 71, 0
2, 47720, Note_on_c, 1, 72, 127
2, 48080, Note_off_c, 1, 57, 0
2, 48080, Note_off_c, 1, 67, 0
2, 48080, Note_off_c, 1, 72, 0
2, 48120, Note_on_c, 1, 57, 127
2, 48120, Note_on_c, 1, 65, 127
2, 48120, Note_on_c, 1, 72, 127
2, 48520, Note_off_c, 1, 57, 0
2, 48520, Note_off_c, 1, 60, 0
2, 48520, Note_off_c, 1, 65, 0
2, 48520, Note_off_c, 1, 72, 0
2, 48560, Note_on_c, 1, 57, 127
2, 48560, Note_on_c, 1, 60, 127
2, 48560, Note_on_c, 1, 65, 127
2, 48560, Note_on_c, 1, 72, 127
2, 48920, Note_off_c, 1, 57, 0
2, 48920, Note_off_c, 1, 60, 0
2, 48920, Note_off_c, 1, 65, 0
2, 48920, Note_off_c, 1, 72, 0
2, 48960, Note_on_c, 1, 65, 127
2, 48960, Note_on_c, 1, 69, 127
2, 48960, Note_on_c, 1, 72, 127
2, 48960, Note_on_c, 1, 77, 127
2, 49520, Note_off_c, 1, 65, 0
2, 49560, Note_on_c, 1, 65, 127
2, 50120, Note_on_c, 1, 39, 127
2, 50120, Note_on_c, 1, 51, 127
2, 50120, Note_off_c, 1, 65, 0
2, 50120, Note_on_c, 1, 67, 127
2, 50120, Note_off_c, 1, 69, 0
2, 50120, Note_off_c, 1, 72, 0
2, 50120, Note_off_c, 1, 77, 0
2, 50520, Note_off_c, 1, 39, 0
2, 50520, Note_off_c, 1, 51, 0
2, 50520, Note_off_c, 1, 67, 0
2, 50560, Note_on_c, 1, 41, 127
2, 50560, Note_on_c, 1, 53, 127
2, 50560, Note_on_c, 1, 65, 127
2, 50760, Note_off_c, 1, 41, 0
2, 50760, Note_off_c, 1, 53, 0
2, 50760, Note_off_c, 1, 65, 0
2, 50800, Note_on_c, 1, 41, 127
2, 50800, Note_on_c, 1, 53, 127
2, 50800, Note_on_c, 1, 65, 127
2, 51120, Note_off_c, 1, 53, 0
2, 51120, Note_off_c, 1, 65, 0
2, 51160, Note_off_c, 1, 41, 0
2, 51200, Note_on_c, 1, 77, 127
2, 51200, Note_on_c, 1, 80, 127
2, 51200, Note_on_c, 1, 86, 127
2, 51200, Note_on_c, 1, 89, 127
2, 51600, Note_on_c, 1, 53, 127
2, 51760, Note_off_c, 1, 53, 0
2, 51960, Note_off_c, 1, 77, 0
2, 51960, Note_off_c, 1, 80, 0
2, 51960, Note_off_c, 1, 86, 0
2, 51960, Note_off_c, 1, 89, 0
2, 52000, Note_on_c, 1, 77, 127
2, 52000, Note_on_c, 1, 80, 127
2, 52000, Note_on_c, 1, 86, 127
2, 52000, Note_on_c, 1, 89, 127
2, 52400, Note_on_c, 1, 53, 127
2, 52400, Note_on_c, 1, 58, 127
2, 52400, Note_on_c, 1, 62, 127
2, 52400, Note_off_c, 1, 77, 0
2, 52400, Note_off_c, 1, 80, 0
2, 52400, Note_on_c, 1, 82, 127
2, 52400, Note_on_c, 1, 94, 127
2, 52760, Note_off_c, 1, 53, 0
2, 52760, Note_off_c, 1, 58, 0
2, 52760, Note_off_c, 1, 62, 0
2, 52760, Note_off_c, 1, 82, 0
2, 52760, Note_off_c, 1, 86, 0
2, 52760, Note_off_c, 1, 89, 0
2, 52760, Note_off_c, 1, 94, 0
2, 52800, Note_on_c, 1, 36, 127
2, 52800, Note_on_c, 1, 43, 127
2, 52800, Note_on_c, 1, 51, 127
2, 52840, Note_off_c, 1, 36, 0
2, 52840, Note_off_c, 1, 43, 0
2, 52840, Note_off_c, 1, 51, 0
2, 52880, Note_on_c, 1, 36, 127
2, 52880, Note_on_c, 1, 43, 127
2, 52880, Note_on_c, 1, 51, 127
2, 53080, Note_off_c, 1, 36, 0
2, 53080, Note_off_c, 1, 43, 0
2, 53080, Note_on_c, 1, 48, 127
2, 53080, Note_off_c, 1, 51, 0
2, 53080, Note_on_c, 1, 52, 127
2, 53080, Note_on_c, 1, 55, 127
2, 53080, Note_on_c, 1, 60, 127
2, 53080, Note_on_c, 1, 72, 127
2, 53120, Note_on_c, 1, 41, 127
2, 53120, Note_off_c, 1, 48, 0
2, 53120, Note_off_c, 1, 52, 0
2, 53120, Note_off_c, 1, 55, 0
2, 53120, Note_off_c, 1, 60, 0
2, 53120, Note_off_c, 1, 72, 0
2, 53120, Note_on_c, 1, 77, 127
2, 53120, Note_on_c, 1, 84, 127
2, 53160, Note_on_c, 1, 39, 127
2, 53160, Note_on_c, 1, 40, 127
2, 53160, Note_off_c, 1, 41, 0
2, 53160, Note_on_c, 1, 52, 127
2, 53160, Note_on_c, 1, 55, 127
2, 53160, Note_on_c, 1, 58, 127
2, 53160, Note_off_c, 1, 77, 0
2, 53160, Note_off_c, 1, 84, 0
2, 53200, Note_off_c, 1, 39, 0
2, 53200, Note_off_c, 1, 40, 0
2, 53200, Note_off_c, 1, 52, 0
2, 53200, Note_off_c, 1, 55, 0
2, 53200, Note_off_c, 1, 58, 0
2, 53240, Note_on_c, 1, 34, 127
2, 53600, Note_off_c, 1, 34, 0
2, 53640, Note_on_c, 1, 34, 127
2, 54000, Note_off_c, 1, 34, 0
2, 54040, Note_on_c, 1, 36, 127
2, 54760, Note_off_c, 1, 36, 0
2, 54840, Note_on_c, 1, 34, 127
2, 55040, Note_off_c, 1, 34, 0
2, 55080, Note_on_c, 1, 34, 127
2, 55640, Note_off_c, 1, 34, 0
2, 55680, Note_on_c, 1, 36, 127
2, 56800, Note_off_c, 1, 36, 0
2, 56880, Note_on_c, 1, 61, 127
2, 56880, Note_on_c, 1, 76, 127
2, 56880, Note_on_c, 1, 82, 127
2, 56880, Note_on_c, 1, 88, 127
2, 56920, Note_on_c, 1, 36, 127
2, 56920, Note_on_c, 1, 46, 127
2, 56920, Note_on_c, 1, 55, 127
2, 56920, Note_off_c, 1, 61, 0
2, 56920, Note_on_c, 1, 64, 127
2, 56920, Note_off_c, 1, 76, 0
2, 56920, Note_off_c, 1, 82, 0
2, 56920, Note_off_c, 1, 88, 0
2, 56960, Note_off_c, 1, 36, 0
2, 56960, Note_off_c, 1, 46, 0
2, 56960, Note_off_c, 1, 55, 0
2, 56960, Note_off_c, 1, 64, 0
2, 56960, Note_on_c, 1, 74, 127
2, 56960, Note_on_c, 1, 75, 127
2, 56960, Note_on_c, 1, 79, 127
2, 56960, Note_on_c, 1, 87, 127
2, 57000, Note_off_c, 1, 74, 0
2, 57000, Note_off_c, 1, 75, 0
2, 57000, Note_off_c, 1, 79, 0
2, 57000, Note_off_c, 1, 87, 0
2, 57040, Note_on_c, 1, 66, 127
2, 57040, Note_on_c, 1, 73, 127
2, 57040, Note_on_c, 1, 78, 127
2, 57040, Note_on_c, 1, 82, 127
2, 57040, Note_on_c, 1, 90, 127
2, 57080, Note_on_c, 1, 31, 127
2, 57080, Note_off_c, 1, 66, 0
2, 57080, Note_off_c, 1, 73, 0
2, 57080, Note_on_c, 1, 74, 127
2, 57080, Note_on_c, 1, 77, 127
2, 57080, Note_off_c, 1, 78, 0
2, 57080, Note_on_c, 1, 80, 127
2, 57080, Note_off_c, 1, 82, 0
2, 57080, Note_off_c, 1, 90, 0
2, 57120, Note_off_c, 1, 31, 0
2, 57120, Note_on_c, 1, 61, 127
2, 57120, Note_off_c, 1, 74, 0
2, 57120, Note_on_c, 1, 76, 127
2, 57120, Note_off_c, 1, 77, 0
2, 57120, Note_off_c, 1, 80, 0
2, 57120, Note_on_c, 1, 82, 127
2, 57120, Note_on_c, 1, 88, 127
2, 57160, Note_on_c, 1, 48, 127
2, 57160, Note_on_c, 1, 52, 127
2, 57160, Note_on_c, 1, 57, 127
2, 57160, Note_off_c, 1, 61, 0
2, 57160, Note_off_c, 1, 76, 0
2, 57160, Note_off_c, 1, 82, 0
2, 57160, Note_on_c, 1, 83, 127
2, 57160, Note_off_c, 1, 88, 0
2, 57200, Note_on_c, 1, 39, 127
2, 57200, Note_off_c, 1, 52, 0
2, 57200, Note_off_c, 1, 57, 0
2, 57200, Note_on_c, 1, 58, 127
2, 57200, Note_on_c, 1, 60, 127
2, 57200, Note_on_c, 1, 63, 127
2, 57200, Note_on_c, 1, 67, 127
2, 57200, Note_off_c, 1, 83, 0
2, 57240, Note_off_c, 1, 39, 0
2, 57240, Note_off_c, 1, 48, 0
2, 57240, Note_off_c, 1, 58, 0
2, 57240, Note_on_c, 1, 62, 127
2, 57240, Note_off_c, 1, 63, 0
2, 57240, Note_off_c, 1, 67, 0
2, 57240, Note_on_c, 1, 69, 127
2, 57240, Note_on_c, 1, 90, 127
2, 57280, Note_on_c, 1, 40, 127
2, 57280, Note_off_c, 1, 60, 0
2, 57280, Note_off_c, 1, 62, 0
2, 57280, Note_off_c, 1, 69, 0
2, 57280, Note_on_c, 1, 71, 127
2, 57280, Note_off_c, 1, 90, 0
2, 57280, Note_on_c, 1, 92, 127
2, 57280, Note_on_c, 1, 95, 127
2, 57320, Note_off_c, 1, 40, 0
2, 57320, Note_on_c, 1, 41, 127
2, 57320, Note_on_c, 1, 51, 127
2, 57320, Note_on_c, 1, 54, 127
2, 57320, Note_on_c, 1, 59, 127
2, 57320, Note_on_c, 1, 66, 127
2, 57320, Note_off_c, 1, 92, 0
2, 57320, Note_off_c, 1, 95, 0
2, 57680, Note_off_c, 1, 41, 0
2, 57680, Note_off_c, 1, 51, 0
2, 57680, Note_off_c, 1, 54, 0
2, 57680, Note_off_c, 1, 59, 0
2, 57680, Note_off_c, 1, 66, 0
2, 57680, Note_off_c, 1, 71, 0
2, 57720, Note_on_c, 1, 46, 127
2, 57720, Note_on_c, 1, 70, 127
2, 57720, Note_on_c, 1, 74, 127
2, 57720, Note_on_c, 1, 79, 127
2, 57720, Note_on_c, 1, 82, 127
2, 58480, Note_off_c, 1, 46, 0
2, 58480, Note_off_c, 1, 70, 0
2, 58480, Note_off_c, 1, 74, 0
2, 58480, Note_off_c, 1, 79, 0
2, 58480, Note_off_c, 1, 82, 0
2, 58520, Note_on_c, 1, 38, 127
2, 58520, Note_on_c, 1, 50, 127
2, 58520, Note_on_c, 1, 67, 127
2, 58520, Note_on_c, 1, 70, 127
2, 58520, Note_on_c, 1, 74, 127
2, 58520, Note_on_c, 1, 79, 127
2, 59160, Note_off_c, 1, 38, 0
2, 59160, Note_off_c, 1, 50, 0
2, 59160, Note_off_c, 1, 67, 0
2, 59160, Note_off_c, 1, 70, 0
2, 59160, Note_off_c, 1, 74, 0
2, 59160, Note_off_c, 1, 79, 0
2, 59200, Note_on_c, 1, 38, 127
2, 59200, Note_on_c, 1, 50, 127
2, 59200, Note_on_c, 1, 67, 127
2, 59200, Note_on_c, 1, 70, 127
2, 59200, Note_on_c, 1, 74, 127
2, 59200, Note_on_c, 1, 79, 127
2, 59320, Note_off_c, 1, 38, 0
2, 59320, Note_off_c, 1, 50, 0
2, 59320, Note_off_c, 1, 67, 0
2, 59320, Note_off_c, 1, 70, 0
2, 59320, Note_off_c, 1, 74, 0
2, 59320, Note_off_c, 1, 79, 0
2, 59360, Note_on_c, 1, 57, 127
2, 59360, Note_on_c, 1, 69, 127
2, 59360, Note_on_c, 1, 77, 127
2, 59360, Note_on_c, 1, 81, 127
2, 60120, Note_off_c, 1, 57, 0
2, 60120, Note_off_c, 1, 69, 0
2, 60120, Note_off_c, 1, 77, 0
2, 60120, Note_off_c, 1, 81, 0
2, 60160, Note_on_c, 1, 53, 127
2, 60160, Note_on_c, 1, 60, 127
2, 60160, Note_on_c, 1, 63, 127
2, 60160, Note_on_c, 1, 65, 127
2, 60160, Note_on_c, 1, 69, 127
2, 60720, Note_off_c, 1, 53, 0
2, 60720, Note_off_c, 1, 60, 0
2, 60720, Note_off_c, 1, 63, 0
2, 60720, Note_off_c, 1, 65, 0
2, 60720, Note_off_c, 1, 69, 0
2, 60760, Note_on_c, 1, 55, 127
2, 60760, Note_on_c, 1, 67, 127
2, 61160, Note_off_c, 1, 55, 0
2, 61160, Note_off_c, 1, 67, 0
2, 61200, Note_on_c, 1, 55, 127
2, 61200, Note_on_c, 1, 67, 127
2, 61560, Note_off_c, 1, 55, 0
2, 61560, Note_off_c, 1, 67, 0
2, 61600, Note_on_c, 1, 41, 127
2, 61600, Note_on_c, 1, 60, 127
2, 61600, Note_on_c, 1, 68, 127
2, 61600, Note_on_c, 1, 72, 127
2, 62160, Note_off_c, 1, 41, 0
2, 62160, Note_off_c, 1, 60, 0
2, 62160, Note_off_c, 1, 72, 0
2, 62160, Note_on_c, 1, 75, 127
2, 62160, Note_on_c, 1, 77, 127
2, 62160, Note_on_c, 1, 80, 127
2, 62200, Note_on_c, 1, 31, 127
2, 62200, Note_on_c, 1, 55, 127
2, 62200, Note_on_c, 1, 58, 127
2, 62200, Note_on_c, 1, 64, 127
2, 62200, Note_off_c, 1, 68, 0
2, 62200, Note_off_c, 1, 75, 0
2, 62200, Note_off_c, 1, 77, 0
2, 62200, Note_off_c, 1, 80, 0
2, 62240, Note_off_c, 1, 31, 0
2, 62240, Note_off_c, 1, 55, 0
2, 62240, Note_on_c, 1, 63, 127
2, 62240, Note_off_c, 1, 64, 0
2, 62240, Note_on_c, 1, 82, 127
2, 62240, Note_on_c, 1, 89, 127
2, 62240, Note_on_c, 1, 94, 127
2, 62280, Note_on_c, 1, 36, 127
2, 62280, Note_off_c, 1, 58, 0
2, 62280, Note_off_c, 1, 63, 0
2, 62280, Note_on_c, 1, 70, 127
2, 62280, Note_on_c, 1, 76, 127
2, 62280, Note_on_c, 1, 78, 127
2, 62280, Note_off_c, 1, 89, 0
2, 62280, Note_off_c, 1, 94, 0
2, 62320, Note_off_c, 1, 36, 0
2, 62320, Note_on_c, 1, 47, 127
2, 62320, Note_on_c, 1, 54, 127
2, 62320, Note_on_c, 1, 57, 127
2, 62320, Note_on_c, 1, 67, 127
2, 62320, Note_off_c, 1, 70, 0
2, 62320, Note_on_c, 1, 72, 127
2, 62320, Note_off_c, 1, 78, 0
2, 62320, Note_on_c, 1, 79, 127
2, 62320, Note_off_c, 1, 82, 0
2, 62360, Note_off_c, 1, 47, 0
2, 62360, Note_off_c, 1, 54, 0
2, 62360, Note_off_c, 1, 57, 0
2, 62360, Note_off_c, 1, 67, 0
2, 62360, Note_off_c, 1, 72, 0
2, 62360, Note_off_c, 1, 76, 0
2, 62360, Note_off_c, 1, 79, 0
2, 62400, Note_on_c, 1, 65, 127
2, 62400, Note_on_c, 1, 72, 127
2, 62760, Note_off_c, 1, 65, 0
2, 62760, Note_off_c, 1, 72, 0
2, 62800, Note_on_c, 1, 81, 127
2, 62800, Note_on_c, 1, 87, 127
2, 63160, Note_off_c, 1, 81, 0
2, 63160, Note_off_c, 1, 87, 0
2, 63200, Note_on_c, 1, 66, 127
2, 63200, Note_on_c, 1, 69, 127
2, 63200, Note_on_c, 1, 81, 127
2, 63200, Note_on_c, 1, 84, 127
2, 63400, Note_off_c, 1, 66, 0
2, 63400, Note_off_c, 1, 69, 0
2, 63400, Note_off_c, 1, 81, 0
2, 63400, Note_off_c, 1, 84, 0
2, 63440, Note_on_c, 1, 66, 127
2, 63440, Note_on_c, 1, 69, 127
2, 63440, Note_on_c, 1, 81, 127
2, 63440, Note_on_c, 1, 84, 127
2, 63800, Note_off_c, 1, 66, 0
2, 63800, Note_off_c, 1, 69, 0
2, 63800, Note_off_c, 1, 81, 0
2, 63800, Note_off_c, 1, 84, 0
2, 63840, Note_on_c, 1, 41, 127
2, 63840, Note_on_c, 1, 81, 127
2, 63840, Note_on_c, 1, 87, 127
2, 63840, Note_on_c, 1, 89, 127
2, 63880, Note_off_c, 1, 41, 0
2, 63880, Note_on_c, 1, 58, 127
2, 63880, Note_off_c, 1, 81, 0
2, 63880, Note_on_c, 1, 85, 127
2, 63880, Note_off_c, 1, 87, 0
2, 63880, Note_on_c, 1, 88, 127
2, 63880, Note_off_c, 1, 89, 0
2, 63920, Note_off_c, 1, 58, 0
2, 63920, Note_on_c, 1, 63, 127
2, 63920, Note_on_c, 1, 81, 127
2, 63920, Note_on_c, 1, 84, 127
2, 63920, Note_off_c, 1, 85, 0
2, 63920, Note_off_c, 1, 88, 0
2, 63960, Note_on_c, 1, 60, 127
2, 63960, Note_off_c, 1, 63, 0
2, 63960, Note_on_c, 1, 75, 127
2, 63960, Note_off_c, 1, 84, 0
2, 63960, Note_on_c, 1, 87, 127
2, 64000, Note_on_c, 1, 55, 127
2, 64000, Note_off_c, 1, 60, 0
2, 64000, Note_off_c, 1, 75, 0
2, 64000, Note_on_c, 1, 79, 127
2, 64000, Note_off_c, 1, 81, 0
2, 64000, Note_on_c, 1, 82, 127
2, 64000, Note_off_c, 1, 87, 0
2, 64040, Note_on_c, 1, 45, 127
2, 64040, Note_on_c, 1, 50, 127
2, 64040, Note_off_c, 1, 55, 0
2, 64040, Note_on_c, 1, 59, 127
2, 64040, Note_on_c, 1, 68, 127
2, 64040, Note_off_c, 1, 79, 0
2, 64040, Note_off_c, 1, 82, 0
2, 64080, Note_off_c, 1, 45, 0
2, 64080, Note_off_c, 1, 50, 0
2, 64080, Note_on_c, 1, 53, 127
2, 64080, Note_off_c, 1, 59, 0
2, 64080, Note_on_c, 1, 67, 127
2, 64080, Note_off_c, 1, 68, 0
2, 64080, Note_on_c, 1, 74, 127
2, 64080, Note_on_c, 1, 79, 127
2, 64080, Note_on_c, 1, 82, 127
2, 64120, Note_off_c, 1, 53, 0
2, 64120, Note_off_c, 1, 74, 0
2, 64120, Note_on_c, 1, 75, 127
2, 64120, Note_off_c, 1, 82, 0
2, 64120, Note_on_c, 1, 84, 127
2, 64160, Note_on_c, 1, 65, 127
2, 64160, Note_off_c, 1, 67, 0
2, 64160, Note_on_c, 1, 69, 127
2, 64160, Note_on_c, 1, 72, 127
2, 64160, Note_on_c, 1, 77, 127
2, 64160, Note_off_c, 1, 79, 0
2, 64160, Note_on_c, 1, 81, 127
2, 64160, Note_off_c, 1, 84, 0
2, 64200, Note_off_c, 1, 65, 0
2, 64200, Note_off_c, 1, 69, 0
2, 64200, Note_off_c, 1, 72, 0
2, 64200, Note_off_c, 1, 75, 0
2, 64200, Note_off_c, 1, 77, 0
2, 64200, Note_off_c, 1, 81, 0
2, 64240, Note_on_c, 1, 71, 127
2, 64240, Note_on_c, 1, 76, 127
2, 64240, Note_on_c, 1, 80, 127
2, 64240, Note_on_c, 1, 86, 127
2, 64240, Note_on_c, 1, 88, 127
2, 65000, Note_off_c, 1, 71, 0
2, 65000, Note_off_c, 1, 76, 0
2, 65000, Note_off_c, 1, 80, 0
2, 65000, Note_off_c, 1, 86, 0
2, 65000, Note_off_c, 1, 88, 0
2, 65040, Note_on_c, 1, 47, 127
2, 65040, Note_on_c, 1, 54, 127
2, 65040, Note_on_c, 1, 75, 127
2, 65040, Note_on_c, 1, 78, 127
2, 65440, Note_off_c, 1, 47, 0
2, 65440, Note_off_c, 1, 54, 0
2, 65440, Note_off_c, 1, 75, 0
2, 65440, Note_off_c, 1, 78, 0
2, 65480, Note_on_c, 1, 47, 127
2, 65480, Note_on_c, 1, 54, 127
2, 65480, Note_on_c, 1, 75, 127
2, 65480, Note_on_c, 1, 78, 127
2, 65840, Note_off_c, 1, 47, 0
2, 65840, Note_off_c, 1, 54, 0
2, 65840, Note_off_c, 1, 75, 0
2, 65840, Note_off_c, 1, 78, 0
2, 65880, Note_on_c, 1, 48, 127
2, 65880, Note_on_c, 1, 72, 127
2, 65880, Note_on_c, 1, 76, 127
2, 65880, Note_on_c, 1, 79, 127
2, 66240, Note_off_c, 1, 48, 0
2, 66280, Note_on_c, 1, 60, 127
2, 66640, Note_off_c, 1, 60, 0
2, 66680, Note_on_c, 1, 48, 127
2, 66680, Note_on_c, 1, 55, 127
2, 66680, Note_on_c, 1, 60, 127
2, 66680, Note_off_c, 1, 72, 0
2, 66680, Note_off_c, 1, 79, 0
2, 67040, Note_off_c, 1, 48, 0
2, 67040, Note_off_c, 1, 55, 0
2, 67040, Note_off_c, 1, 60, 0
2, 67040, Note_off_c, 1, 76, 0
2, 67080, Note_on_c, 1, 69, 127
2, 67080, Note_on_c, 1, 74, 127
2, 67080, Note_on_c, 1, 82, 127
2, 67120, Note_on_c, 1, 35, 127
2, 67120, Note_on_c, 1, 47, 127
2, 67120, Note_on_c, 1, 55, 127
2, 67120, Note_on_c, 1, 59, 127
2, 67120, Note_on_c, 1, 64, 127
2, 67120, Note_off_c, 1, 69, 0
2, 67120, Note_off_c, 1, 74, 0
2, 67120, Note_off_c, 1, 82, 0
2, 67160, Note_off_c, 1, 35, 0
2, 67160, Note_off_c, 1, 47, 0
2, 67160, Note_off_c, 1, 55, 0
2, 67160, Note_off_c, 1, 59, 0
2, 67160, Note_off_c, 1, 64, 0
2, 67160, Note_on_c, 1, 74, 127
2, 67160, Note_on_c, 1, 82, 127
2, 67200, Note_off_c, 1, 82, 0
2, 67200, Note_on_c, 1, 84, 127
2, 67240, Note_on_c, 1, 82, 127
2, 67240, Note_off_c, 1, 84, 0
2, 67480, Note_off_c, 1, 74, 0
2, 67480, Note_off_c, 1, 82, 0
2, 67520, Note_on_c, 1, 70, 127
2, 67520, Note_on_c, 1, 74, 127
2, 67520, Note_on_c, 1, 82, 127
2, 67880, Note_off_c, 1, 70, 0
2, 67880, Note_off_c, 1, 74, 0
2, 67880, Note_off_c, 1, 82, 0
2, 67920, Note_on_c, 1, 60, 127
2, 67920, Note_on_c, 1, 72, 127
2, 67920, Note_on_c, 1, 76, 127
2, 67920, Note_on_c, 1, 79, 127
2, 69080, Note_off_c, 1, 60, 0
2, 69080, Note_off_c, 1, 72, 0
2, 69080, Note_off_c, 1, 76, 0
2, 69080, Note_off_c, 1, 79, 0
2, 69120, Note_on_c, 1, 39, 127
2, 69120, Note_on_c, 1, 46, 127
2, 69120, Note_on_c, 1, 67, 127
2, 69120, Note_on_c, 1, 70, 127
2, 69120, Note_on_c, 1, 75, 127
2, 69160, Note_off_c, 1, 39, 0
2, 69160, Note_off_c, 1, 46, 0
2, 69160, Note_on_c, 1, 54, 127
2, 69160, Note_on_c, 1, 56, 127
2, 69160, Note_on_c, 1, 59, 127
2, 69160, Note_on_c, 1, 62, 127
2, 69160, Note_on_c, 1, 66, 127
2, 69160, Note_off_c, 1, 67, 0
2, 69160, Note_off_c, 1, 70, 0
2, 69160, Note_off_c, 1, 75, 0
2, 69200, Note_off_c, 1, 54, 0
2, 69200, Note_off_c, 1, 56, 0
2, 69200, Note_off_c, 1, 59, 0
2, 69200, Note_off_c, 1, 62, 0
2, 69200, Note_off_c, 1, 66, 0
2, 69200, Note_on_c, 1, 76, 127
2, 69200, Note_on_c, 1, 79, 127
2, 69200, Note_on_c, 1, 83, 127
2, 69200, Note_on_c, 1, 86, 127
2, 69240, Note_on_c, 1, 45, 127
2, 69240, Note_on_c, 1, 54, 127
2, 69240, Note_on_c, 1, 57, 127
2, 69240, Note_on_c, 1, 66, 127
2, 69240, Note_off_c, 1, 76, 0
2, 69240, Note_off_c, 1, 79, 0
2, 69240, Note_off_c, 1, 83, 0
2, 69240, Note_off_c, 1, 86, 0
2, 69280, Note_off_c, 1, 45, 0
2, 69280, Note_off_c, 1, 54, 0
2, 69280, Note_on_c, 1, 55, 127
2, 69280, Note_off_c, 1, 57, 0
2, 69280, Note_on_c, 1, 64, 127
2, 69280, Note_off_c, 1, 66, 0
2, 69280, Note_on_c, 1, 67, 127
2, 69280, Note_on_c, 1, 83, 127
2, 69280, Note_on_c, 1, 86, 127
2, 69320, Note_on_c, 1, 48, 127
2, 69320, Note_off_c, 1, 55, 0
2, 69320, Note_on_c, 1, 62, 127
2, 69320, Note_off_c, 1, 64, 0
2, 69320, Note_off_c, 1, 67, 0
2, 69320, Note_on_c, 1, 68, 127
2, 69320, Note_on_c, 1, 72, 127
2, 69320, Note_on_c, 1, 77, 127
2, 69320, Note_off_c, 1, 83, 0
2, 69320, Note_off_c, 1, 86, 0
2, 69360, Note_off_c, 1, 48, 0
2, 69360, Note_on_c, 1, 53, 127
2, 69360, Note_on_c, 1, 57, 127
2, 69360, Note_on_c, 1, 60, 127
2, 69360, Note_off_c, 1, 62, 0
2, 69360, Note_off_c, 1, 68, 0
2, 69360, Note_off_c, 1, 77, 0
2, 69360, Note_on_c, 1, 81, 127
2, 69360, Note_on_c, 1, 84, 127
2, 69400, Note_on_c, 1, 38, 127
2, 69400, Note_on_c, 1, 43, 127
2, 69400, Note_on_c, 1, 50, 127
2, 69400, Note_off_c, 1, 53, 0
2, 69400, Note_off_c, 1, 57, 0
2, 69400, Note_off_c, 1, 60, 0
2, 69400, Note_on_c, 1, 61, 127
2, 69400, Note_on_c, 1, 67, 127
2, 69400, Note_off_c, 1, 72, 0
2, 69400, Note_on_c, 1, 73, 127
2, 69400, Note_off_c, 1, 81, 0
2, 69400, Note_off_c, 1, 84, 0
2, 69440, Note_off_c, 1, 38, 0
2, 69440, Note_off_c, 1, 43, 0
2, 69440, Note_on_c, 1, 48, 127
2, 69440, Note_off_c, 1, 50, 0
2, 69440, Note_on_c, 1, 52, 127
2, 69440, Note_on_c, 1, 57, 127
2, 69440, Note_on_c, 1, 60, 127
2, 69440, Note_off_c, 1, 61, 0
2, 69440, Note_off_c, 1, 67, 0
2, 69440, Note_on_c, 1, 69, 127
2, 69440, Note_off_c, 1, 73, 0
2, 69480, Note_off_c, 1, 48, 0
2, 69480, Note_off_c, 1, 52, 0
2, 69480, Note_off_c, 1, 57, 0
2, 69480, Note_off_c, 1, 60, 0
2, 69480, Note_off_c, 1, 69, 0
2, 69520, Note_on_c, 1, 35, 127
2, 69520, Note_on_c, 1, 66, 127
2, 69520, Note_on_c, 1, 69, 127
2, 69520, Note_on_c, 1, 71, 127
2, 69520, Note_on_c, 1, 75, 127
2, 69560, Note_off_c, 1, 35, 0
2, 69560, Note_off_c, 1, 66, 0
2, 69560, Note_off_c, 1, 69, 0
2, 69560, Note_off_c, 1, 71, 0
2, 69560, Note_off_c, 1, 75, 0
2, 69600, Note_on_c, 1, 53, 127
2, 69600, Note_on_c, 1, 80, 127
2, 69600, Note_on_c, 1, 85, 127
2, 69600, Note_on_c, 1, 92, 127
2, 69640, Note_on_c, 1, 60, 127
2, 69640, Note_on_c, 1, 65, 127
2, 69640, Note_on_c, 1, 69, 127
2, 69640, Note_on_c, 1, 74, 127
2, 69640, Note_on_c, 1, 77, 127
2, 69640, Note_off_c, 1, 80, 0
2, 69640, Note_off_c, 1, 85, 0
2, 69640, Note_off_c, 1, 92, 0
2, 69680, Note_off_c, 1, 53, 0
2, 69680, Note_off_c, 1, 60, 0
2, 69680, Note_off_c, 1, 65, 0
2, 69680, Note_on_c, 1, 67, 127
2, 69680, Note_off_c, 1, 69, 0
2, 69680, Note_on_c, 1, 71, 127
2, 69680, Note_off_c, 1, 74, 0
2, 69680, Note_on_c, 1, 76, 127
2, 69680, Note_off_c, 1, 77, 0
2, 69680, Note_on_c, 1, 78, 127
2, 69720, Note_on_c, 1, 53, 127
2, 69720, Note_off_c, 1, 67, 0
2, 69720, Note_off_c, 1, 71, 0
2, 69720, Note_off_c, 1, 76, 0
2, 69720, Note_off_c, 1, 78, 0
2, 69720, Note_on_c, 1, 80, 127
2, 69720, Note_on_c, 1, 85, 127
2, 69720, Note_on_c, 1, 92, 127
2, 69760, Note_off_c, 1, 53, 0
2, 69760, Note_on_c, 1, 67, 127
2, 69760, Note_off_c, 1, 80, 0
2, 69760, Note_off_c, 1, 85, 0
2, 69760, Note_on_c, 1, 88, 127
2, 69760, Note_off_c, 1, 92, 0
2, 69760, Note_on_c, 1, 95, 127
2, 69800, Note_on_c, 1, 34, 127
2, 69800, Note_on_c, 1, 44, 127
2, 69800, Note_on_c, 1, 53, 127
2, 69800, Note_off_c, 1, 67, 0
2, 69800, Note_off_c, 1, 88, 0
2, 69800, Note_off_c, 1, 95, 0
2, 70320, Note_off_c, 1, 34, 0
2, 70320, Note_off_c, 1, 44, 0
2, 70320, Note_off_c, 1, 53, 0
2, 70360, Note_on_c, 1, 37, 127
2, 70360, Note_on_c, 1, 49, 127
2, 70360, Note_on_c, 1, 56, 127
2, 70360, Note_on_c, 1, 66, 127
2, 70400, Note_off_c, 1, 37, 0
2, 70400, Note_off_c, 1, 49, 0
2, 70400, Note_off_c, 1, 56, 0
2, 70400, Note_off_c, 1, 66, 0
2, 70400, Note_on_c, 1, 73, 127
2, 70400, Note_on_c, 1, 75, 127
2, 70400, Note_on_c, 1, 78, 127
2, 70400, Note_on_c, 1, 85, 127
2, 70720, Note_off_c, 1, 73, 0
2, 70720, Note_off_c, 1, 75, 0
2, 70720, Note_off_c, 1, 78, 0
2, 70720, Note_off_c, 1, 85, 0
2, 70760, Note_on_c, 1, 57, 127
2, 70760, Note_on_c, 1, 60, 127
2, 70760, Note_on_c, 1, 75, 127
2, 70760, Note_on_c, 1, 78, 127
2, 71120, Note_off_c, 1, 57, 0
2, 71120, Note_off_c, 1, 60, 0
2, 71120, Note_off_c, 1, 75, 0
2, 71120, Note_off_c, 1, 78, 0
2, 71160, Note_on_c, 1, 57, 127
2, 71160, Note_on_c, 1, 60, 127
2, 71160, Note_on_c, 1, 75, 127
2, 71160, Note_on_c, 1, 78, 127
2, 71520, Note_off_c, 1, 57, 0
2, 71520, Note_off_c, 1, 60, 0
2, 71520, Note_off_c, 1, 75, 0
2, 71520, Note_off_c, 1, 78, 0
2, 71600, Note_on_c, 1, 59, 127
2, 71600, Note_on_c, 1, 66, 127
2, 71600, Note_on_c, 1, 69, 127
2, 71600, Note_on_c, 1, 89, 127
2, 71640, Note_on_c, 1, 57, 127
2, 71640, Note_off_c, 1, 59, 0
2, 71640, Note_on_c, 1, 61, 127
2, 71640, Note_on_c, 1, 64, 127
2, 71640, Note_off_c, 1, 66, 0
2, 71640, Note_off_c, 1, 69, 0
2, 71640, Note_on_c, 1, 75, 127
2, 71640, Note_off_c, 1, 89, 0
2, 71680, Note_on_c, 1, 45, 127
2, 71680, Note_off_c, 1, 57, 0
2, 71680, Note_off_c, 1, 61, 0
2, 71680, Note_off_c, 1, 64, 0
2, 71680, Note_off_c, 1, 75, 0
2, 71680, Note_on_c, 1, 97, 127
2, 71720, Note_off_c, 1, 45, 0
2, 71720, Note_on_c, 1, 59, 127
2, 71720, Note_on_c, 1, 66, 127
2, 71720, Note_on_c, 1, 69, 127
2, 71720, Note_on_c, 1, 89, 127
2, 71720, Note_off_c, 1, 97, 0
2, 71760, Note_off_c, 1, 59, 0
2, 71760, Note_off_c, 1, 66, 0
2, 71760, Note_off_c, 1, 69, 0
2, 71760, Note_on_c, 1, 72, 127
2, 71760, Note_on_c, 1, 78, 127
2, 71760, Note_on_c, 1, 83, 127
2, 71760, Note_off_c, 1, 89, 0
2, 71760, Note_on_c, 1, 93, 127
2, 71800, Note_on_c, 1, 62, 127
2, 71800, Note_on_c, 1, 65, 127
2, 71800, Note_off_c, 1, 72, 0
2, 71800, Note_on_c, 1, 76, 127
2, 71800, Note_off_c, 1, 78, 0
2, 71800, Note_off_c, 1, 83, 0
2, 71800, Note_on_c, 1, 88, 127
2, 71800, Note_on_c, 1, 91, 127
2, 71800, Note_off_c, 1, 93, 0
2, 71840, Note_on_c, 1, 42, 127
2, 71840, Note_on_c, 1, 58, 127
2, 71840, Note_off_c, 1, 65, 0
2, 71840, Note_on_c, 1, 68, 127
2, 71840, Note_off_c, 1, 76, 0
2, 71840, Note_off_c, 1, 88, 0
2, 71840, Note_off_c, 1, 91, 0
2, 71880, Note_off_c, 1, 42, 0
2, 71880, Note_off_c, 1, 58, 0
2, 71880, Note_on_c, 1, 59, 127
2, 71880, Note_on_c, 1, 61, 127
2, 71880, Note_off_c, 1, 62, 0
2, 71880, Note_off_c, 1, 68, 0
2, 71880, Note_on_c, 1, 90, 127
2, 71920, Note_on_c, 1, 52, 127
2, 71920, Note_off_c, 1, 59, 0
2, 71920, Note_off_c, 1, 61, 0
2, 71920, Note_on_c, 1, 66, 127
2, 71920, Note_on_c, 1, 75, 127
2, 71920, Note_off_c, 1, 90, 0
2, 71960, Note_off_c, 1, 52, 0
2, 71960, Note_off_c, 1, 66, 0
2, 71960, Note_off_c, 1, 75, 0
2, 72000, Note_on_c, 1, 61, 127
2, 72000, Note_on_c, 1, 64, 127
2, 72000, Note_on_c, 1, 67, 127
2, 72000, Note_on_c, 1, 70, 127
2, 72000, Note_on_c, 1, 82, 127
2, 72360, Note_off_c, 1, 61, 0
2, 72360, Note_off_c, 1, 64, 0
2, 72360, Note_off_c, 1, 67, 0
2, 72360, Note_off_c, 1, 70, 0
2, 72360, Note_off_c, 1, 82, 0
2, 72400, Note_on_c, 1, 66, 127
2, 72400, Note_on_c, 1, 86, 127
2, 72400, Note_on_c, 1, 89, 127
2, 72440, Note_on_c, 1, 59, 127
2, 72440, Note_off_c, 1, 66, 0
2, 72440, Note_on_c, 1, 67, 127
2, 72440, Note_on_c, 1, 74, 127
2, 72440, Note_off_c, 1, 89, 0
2, 72480, Note_off_c, 1, 59, 0
2, 72480, Note_off_c, 1, 67, 0
2, 72480, Note_off_c, 1, 74, 0
2, 72480, Note_off_c, 1, 86, 0
2, 72480, Note_on_c, 1, 95, 127
2, 72480, Note_on_c, 1, 97, 127
2, 72480, Note_on_c, 1, 99, 127
2, 72480, Note_on_c, 1, 100, 127
2, 72520, Note_on_c, 1, 59, 127
2, 72520, Note_on_c, 1, 67, 127
2, 72520, Note_on_c, 1, 74, 127
2, 72520, Note_on_c, 1, 86, 127
2, 72520, Note_off_c, 1, 95, 0
2, 72520, Note_off_c, 1, 97, 0
2, 72520, Note_off_c, 1, 99, 0
2, 72520, Note_off_c, 1, 100, 0
2, 72560, Note_on_c, 1, 47, 127
2, 72560, Note_on_c, 1, 54, 127
2, 72560, Note_off_c, 1, 59, 0
2, 72560, Note_off_c, 1, 67, 0
2, 72560, Note_on_c, 1, 71, 127
2, 72560, Note_off_c, 1, 74, 0
2, 72560, Note_off_c, 1, 86, 0
2, 72560, Note_on_c, 1, 87, 127
2, 72600, Note_off_c, 1, 47, 0
2, 72600, Note_on_c, 1, 51, 127
2, 72600, Note_on_c, 1, 59, 127
2, 72600, Note_off_c, 1, 71, 0
2, 72600, Note_on_c, 1, 77, 127
2, 72600, Note_off_c, 1, 87, 0
2, 72640, Note_on_c, 1, 36, 127
2, 72640, Note_on_c, 1, 43, 127
2, 72640, Note_on_c, 1, 48, 127
2, 72640, Note_off_c, 1, 51, 0
2, 72640, Note_off_c, 1, 54, 0
2, 72640, Note_off_c, 1, 59, 0
2, 72640, Note_on_c, 1, 70, 127
2, 72640, Note_on_c, 1, 75, 127
2, 72640, Note_off_c, 1, 77, 0
2, 72640, Note_on_c, 1, 82, 127
2, 72680, Note_off_c, 1, 36, 0
2, 72680, Note_off_c, 1, 43, 0
2, 72680, Note_off_c, 1, 48, 0
2, 72680, Note_off_c, 1, 75, 0
2, 72680, Note_on_c, 1, 79, 127
2, 72680, Note_on_c, 1, 86, 127
2, 72680, Note_on_c, 1, 94, 127
2, 72720, Note_on_c, 1, 43, 127
2, 72720, Note_off_c, 1, 70, 0
2, 72720, Note_off_c, 1, 86, 0
2, 72720, Note_on_c, 1, 88, 127
2, 72720, Note_on_c, 1, 91, 127
2, 72720, Note_off_c, 1, 94, 0
2, 72760, Note_off_c, 1, 43, 0
2, 72760, Note_off_c, 1, 79, 0
2, 72760, Note_off_c, 1, 82, 0
2, 72760, Note_off_c, 1, 88, 0
2, 72760, Note_off_c, 1, 91, 0
2, 72800, Note_on_c, 1, 55, 127
2, 72800, Note_on_c, 1, 59, 127
2, 72800, Note_on_c, 1, 62, 127
2, 72800, Note_on_c, 1, 83, 127
2, 73160, Note_off_c, 1, 83, 0
2, 73200, Note_on_c, 1, 83, 127
2, 73560, Note_off_c, 1, 55, 0
2, 73560, Note_off_c, 1, 59, 0
2, 73560, Note_off_c, 1, 62, 0
2, 73560, Note_off_c, 1, 83, 0
2, 73600, Note_on_c, 1, 55, 127
2, 73600, Note_on_c, 1, 59, 127
2, 73600, Note_on_c, 1, 62, 127
2, 73600, Note_on_c, 1, 83, 127
2, 73960, Note_off_c, 1, 83, 0
2, 74000, Note_off_c, 1, 55, 0
2, 74000, Note_off_c, 1, 59, 0
2, 74000, Note_off_c, 1, 62, 0
2, 74040, Note_on_c, 1, 55, 127
2, 74040, Note_on_c, 1, 59, 127
2, 74040, Note_on_c, 1, 62, 127
2, 74040, Note_on_c, 1, 83, 127
2, 74400, Note_off_c, 1, 83, 0
2, 74400, Note_on_c, 1, 91, 127
2, 74440, Note_on_c, 1, 83, 127
2, 74440, Note_off_c, 1, 91, 0
2, 74640, Note_off_c, 1, 83, 0
2, 74760, Note_on_c, 1, 91, 127
2, 74800, Note_off_c, 1, 55, 0
2, 74800, Note_off_c, 1, 59, 0
2, 74800, Note_off_c, 1, 62, 0
2, 74800, Note_off_c, 1, 91, 0
2, 74840, Note_on_c, 1, 55, 127
2, 74840, Note_on_c, 1, 59, 127
2, 74840, Note_on_c, 1, 62, 127
2, 75200, Note_off_c, 1, 55, 0
2, 75200, Note_off_c, 1, 59, 0
2, 75200, Note_off_c, 1, 62, 0
2, 75240, Note_on_c, 1, 41, 127
2, 75240, Note_on_c, 1, 51, 127
2, 75240, Note_on_c, 1, 57, 127
2, 75240, Note_on_c, 1, 60, 127
2, 75240, Note_on_c, 1, 69, 127
2, 75600, Note_off_c, 1, 41, 0
2, 75600, Note_off_c, 1, 51, 0
2, 75600, Note_off_c, 1, 57, 0
2, 75600, Note_off_c, 1, 60, 0
2, 75600, Note_off_c, 1, 69, 0
2, 75640, Note_on_c, 1, 43, 127
2, 75640, Note_on_c, 1, 50, 127
2, 75640, Note_on_c, 1, 71, 127
2, 75640, Note_on_c, 1, 77, 127
2, 75640, Note_on_c, 1, 81, 127
2, 75680, Note_off_c, 1, 43, 0
2, 75680, Note_on_c, 1, 44, 127
2, 75680, Note_on_c, 1, 49, 127
2, 75680, Note_off_c, 1, 50, 0
2, 75680, Note_on_c, 1, 52, 127
2, 75680, Note_off_c, 1, 71, 0
2, 75680, Note_off_c, 1, 77, 0
2, 75680, Note_off_c, 1, 81, 0
2, 75720, Note_on_c, 1, 43, 127
2, 75720, Note_off_c, 1, 44, 0
2, 75720, Note_off_c, 1, 49, 0
2, 75720, Note_on_c, 1, 50, 127
2, 75720, Note_off_c, 1, 52, 0
2, 75720, Note_on_c, 1, 71, 127
2, 75720, Note_on_c, 1, 77, 127
2, 75720, Note_on_c, 1, 81, 127
2, 76000, Note_off_c, 1, 71, 0
2, 76000, Note_off_c, 1, 77, 0
2, 76000, Note_off_c, 1, 81, 0
2, 76040, Note_off_c, 1, 43, 0
2, 76040, Note_off_c, 1, 50, 0
2, 76080, Note_on_c, 1, 50, 127
2, 76080, Note_on_c, 1, 55, 127
2, 76080, Note_on_c, 1, 62, 127
2, 76080, Note_on_c, 1, 67, 127
2, 76080, Note_on_c, 1, 71, 127
2, 76440, Note_on_c, 1, 43, 127
2, 76440, Note_off_c, 1, 55, 0
2, 76440, Note_off_c, 1, 62, 0
2, 76440, Note_off_c, 1, 67, 0
2, 76440, Note_off_c, 1, 71, 0
2, 76480, Note_on_c, 1, 59, 127
2, 76480, Note_on_c, 1, 74, 127
2, 76840, Note_off_c, 1, 43, 0
2, 76840, Note_off_c, 1, 50, 0
2, 76840, Note_off_c, 1, 59, 0
2, 76840, Note_off_c, 1, 74, 0
2, 76880, Note_on_c, 1, 43, 127
2, 76880, Note_on_c, 1, 50, 127
2, 76880, Note_on_c, 1, 59, 127
2, 76880, Note_on_c, 1, 74, 127
2, 77240, Note_off_c, 1, 74, 0
2, 77280, Note_on_c, 1, 74, 127
2, 77640, Note_off_c, 1, 43, 0
2, 77640, Note_off_c, 1, 50, 0
2, 77640, Note_off_c, 1, 59, 0
2, 77640, Note_off_c, 1, 74, 0
2, 77680, Note_on_c, 1, 50, 127
2, 77680, Note_on_c, 1, 56, 127
2, 77680, Note_on_c, 1, 59, 127
2, 77680, Note_on_c, 1, 71, 127
2, 78200, Note_off_c, 1, 50, 0
2, 78200, Note_off_c, 1, 56, 0
2, 78200, Note_off_c, 1, 59, 0
2, 78200, Note_off_c, 1, 71, 0
2, 78240, Note_on_c, 1, 50, 127
2, 78240, Note_on_c, 1, 56, 127
2, 78240, Note_on_c, 1, 59, 127
2, 78240, Note_on_c, 1, 71, 127
2, 78440, Note_off_c, 1, 50, 0
2, 78440, Note_off_c, 1, 56, 0
2, 78440, Note_off_c, 1, 59, 0
2, 78440, Note_on_c, 1, 64, 127
2, 78440, Note_on_c, 1, 83, 127
2, 78440, Note_on_c, 1, 90, 127
2, 78480, Note_off_c, 1, 64, 0
2, 78480, Note_off_c, 1, 71, 0
2, 78480, Note_off_c, 1, 83, 0
2, 78480, Note_off_c, 1, 90, 0
2, 78520, Note_on_c, 1, 58, 127
2, 78520, Note_on_c, 1, 70, 127
2, 78520, Note_on_c, 1, 74, 127
2, 78520, Note_on_c, 1, 79, 127
2, 79240, Note_on_c, 1, 55, 127
2, 79240, Note_off_c, 1, 58, 0
2, 79240, Note_off_c, 1, 70, 0
2, 79240, Note_off_c, 1, 74, 0
2, 79240, Note_off_c, 1, 79, 0
2, 79280, Note_on_c, 1, 72, 127
2, 79280, Note_on_c, 1, 79, 127
2, 79640, Note_off_c, 1, 55, 0
2, 79680, Note_on_c, 1, 51, 127
2, 79680, Note_on_c, 1, 53, 127
2, 79680, Note_on_c, 1, 60, 127
2, 79680, Note_on_c, 1, 64, 127
2, 79680, Note_off_c, 1, 72, 0
2, 79680, Note_off_c, 1, 79, 0
2, 79720, Note_off_c, 1, 51, 0
2, 79720, Note_off_c, 1, 53, 0
2, 79720, Note_on_c, 1, 56, 127
2, 79720, Note_off_c, 1, 60, 0
2, 79720, Note_off_c, 1, 64, 0
2, 79720, Note_on_c, 1, 78, 127
2, 79720, Note_on_c, 1, 83, 127
2, 79720, Note_on_c, 1, 86, 127
2, 79720, Note_on_c, 1, 90, 127
2, 79760, Note_off_c, 1, 56, 0
2, 79760, Note_on_c, 1, 57, 127
2, 79760, Note_on_c, 1, 62, 127
2, 79760, Note_on_c, 1, 64, 127
2, 79760, Note_on_c, 1, 69, 127
2, 79760, Note_off_c, 1, 78, 0
2, 79760, Note_on_c, 1, 81, 127
2, 79760, Note_off_c, 1, 83, 0
2, 79760, Note_off_c, 1, 86, 0
2, 79760, Note_off_c, 1, 90, 0
2, 79800, Note_on_c, 1, 56, 127
2, 79800, Note_off_c, 1, 57, 0
2, 79800, Note_off_c, 1, 62, 0
2, 79800, Note_off_c, 1, 64, 0
2, 79800, Note_off_c, 1, 69, 0
2, 79800, Note_on_c, 1, 78, 127
2, 79800, Note_off_c, 1, 81, 0
2, 79800, Note_on_c, 1, 83, 127
2, 79800, Note_on_c, 1, 86, 127
2, 79800, Note_on_c, 1, 90, 127
2, 80040, Note_off_c, 1, 56, 0
2, 80040, Note_on_c, 1, 62, 127
2, 80040, Note_on_c, 1, 66, 127
2, 80040, Note_off_c, 1, 78, 0
2, 80040, Note_on_c, 1, 81, 127
2, 80040, Note_off_c, 1, 83, 0
2, 80040, Note_off_c, 1, 86, 0
2, 80040, Note_on_c, 1, 88, 127
2, 80040, Note_off_c, 1, 90, 0
2, 80080, Note_on_c, 1, 51, 127
2, 80080, Note_off_c, 1, 62, 0
2, 80080, Note_on_c, 1, 63, 127
2, 80080, Note_off_c, 1, 66, 0
2, 80080, Note_on_c, 1, 75, 127
2, 80080, Note_off_c, 1, 81, 0
2, 80080, Note_on_c, 1, 82, 127
2, 80080, Note_on_c, 1, 87, 127
2, 80080, Note_off_c, 1, 88, 0
2, 80120, Note_off_c, 1, 51, 0
2, 80120, Note_on_c, 1, 54, 127
2, 80120, Note_on_c, 1, 62, 127
2, 80120, Note_off_c, 1, 63, 0
2, 80120, Note_on_c, 1, 66, 127
2, 80120, Note_on_c, 1, 70, 127
2, 80120, Note_off_c, 1, 75, 0
2, 80120, Note_on_c, 1, 77, 127
2, 80120, Note_on_c, 1, 80, 127
2, 80120, Note_off_c, 1, 87, 0
2, 80400, Note_off_c, 1, 54, 0
2, 80400, Note_off_c, 1, 62, 0
2, 80400, Note_off_c, 1, 66, 0
2, 80400, Note_off_c, 1, 70, 0
2, 80400, Note_off_c, 1, 77, 0
2, 80400, Note_off_c, 1, 80, 0
2, 80400, Note_off_c, 1, 82, 0
2, 80440, Note_on_c, 1, 54, 127
2, 80440, Note_on_c, 1, 62, 127
2, 80440, Note_on_c, 1, 66, 127
2, 80440, Note_on_c, 1, 70, 127
2, 80440, Note_on_c, 1, 77, 127
2, 80440, Note_on_c, 1, 80, 127
2, 80440, Note_on_c, 1, 82, 127
2, 80880, Note_off_c, 1, 54, 0
2, 80880, Note_off_c, 1, 62, 0
2, 80880, Note_off_c, 1, 66, 0
2, 80880, Note_off_c, 1, 70, 0
2, 80880, Note_off_c, 1, 77, 0
2, 80880, Note_off_c, 1, 80, 0
2, 80880, Note_off_c, 1, 82, 0
2, 80920, Note_on_c, 1, 38, 127
2, 80920, Note_on_c, 1, 74, 127
2, 80920, Note_on_c, 1, 81, 127
2, 81080, Note_on_c, 1, 69, 127
2, 81080, Note_off_c, 1, 74, 0
2, 81240, Note_off_c, 1, 38, 0
2, 81240, Note_off_c, 1, 69, 0
2, 81240, Note_on_c, 1, 74, 127
2, 81280, Note_on_c, 1, 38, 127
2, 81280, Note_on_c, 1, 69, 127
2, 81280, Note_off_c, 1, 74, 0
2, 81640, Note_off_c, 1, 38, 0
2, 81680, Note_on_c, 1, 38, 127
2, 82040, Note_off_c, 1, 38, 0
2, 82040, Note_off_c, 1, 69, 0
2, 82040, Note_off_c, 1, 81, 0
2, 82080, Note_on_c, 1, 50, 127
2, 82080, Note_on_c, 1, 69, 127
2, 82080, Note_on_c, 1, 81, 127
2, 82440, Note_off_c, 1, 50, 0
2, 82480, Note_on_c, 1, 50, 127
2, 82600, Note_off_c, 1, 50, 0
2, 82600, Note_off_c, 1, 69, 0
2, 82600, Note_off_c, 1, 81, 0
2, 82640, Note_on_c, 1, 50, 127
2, 82640, Note_on_c, 1, 69, 127
2, 82640, Note_on_c, 1, 81, 127
2, 82880, Note_off_c, 1, 50, 0
2, 82920, Note_on_c, 1, 50, 127
2, 83280, Note_off_c, 1, 50, 0
2, 83280, Note_off_c, 1, 69, 0
2, 83280, Note_off_c, 1, 81, 0
2, 83320, Note_on_c, 1, 54, 127
2, 83320, Note_on_c, 1, 74, 127
2, 83320, Note_on_c, 1, 86, 127
2, 83680, Note_off_c, 1, 54, 0
2, 83720, Note_on_c, 1, 57, 127
2, 84040, Note_off_c, 1, 57, 0
2, 84080, Note_on_c, 1, 62, 127
2, 84440, Note_off_c, 1, 86, 0
2, 84480, Note_on_c, 1, 30, 127
2, 84480, Note_on_c, 1, 42, 127
2, 84480, Note_off_c, 1, 62, 0
2, 84480, Note_on_c, 1, 72, 127
2, 84480, Note_off_c, 1, 74, 0
2, 84480, Note_on_c, 1, 81, 127
2, 84480, Note_on_c, 1, 86, 127
2, 84480, Note_on_c, 1, 90, 127
2, 84480, Note_on_c, 1, 93, 127
2, 84520, Note_off_c, 1, 30, 0
2, 84520, Note_off_c, 1, 42, 0
2, 84520, Note_on_c, 1, 52, 127
2, 84520, Note_on_c, 1, 56, 127
2, 84520, Note_on_c, 1, 59, 127
2, 84520, Note_off_c, 1, 72, 0
2, 84520, Note_on_c, 1, 73, 127
2, 84520, Note_on_c, 1, 76, 127
2, 84520, Note_on_c, 1, 80, 127
2, 84520, Note_off_c, 1, 81, 0
2, 84520, Note_off_c, 1, 86, 0
2, 84520, Note_off_c, 1, 90, 0
2, 84520, Note_off_c, 1, 93, 0
2, 84560, Note_off_c, 1, 52, 0
2, 84560, Note_off_c, 1, 56, 0
2, 84560, Note_off_c, 1, 59, 0
2, 84560, Note_off_c, 1, 73, 0
2, 84560, Note_off_c, 1, 76, 0
2, 84560, Note_off_c, 1, 80, 0
2, 84600, Note_on_c, 1, 39, 127
2, 84600, Note_on_c, 1, 48, 127
2, 84600, Note_on_c, 1, 54, 127
2, 84600, Note_on_c, 1, 59, 127
2, 84640, Note_off_c, 1, 39, 0
2, 84640, Note_off_c, 1, 48, 0
2, 84640, Note_on_c, 1, 52, 127
2, 84640, Note_off_c, 1, 54, 0
2, 84640, Note_on_c, 1, 56, 127
2, 84640, Note_off_c, 1, 59, 0
2, 84640, Note_on_c, 1, 61, 127
2, 84640, Note_on_c, 1, 71, 127
2, 84640, Note_on_c, 1, 76, 127
2, 84640, Note_on_c, 1, 80, 127
2, 84680, Note_on_c, 1, 45, 127
2, 84680, Note_off_c, 1, 52, 0
2, 84680, Note_off_c, 1, 56, 0
2, 84680, Note_on_c, 1, 57, 127
2, 84680, Note_off_c, 1, 61, 0
2, 84680, Note_off_c, 1, 71, 0
2, 84680, Note_off_c, 1, 76, 0
2, 84680, Note_off_c, 1, 80, 0
2, 84680, Note_on_c, 1, 88, 127
2, 84680, Note_on_c, 1, 93, 127
2, 84680, Note_on_c, 1, 97, 127
2, 84680, Note_on_c, 1, 100, 127
2, 84720, Note_off_c, 1, 45, 0
2, 84720, Note_off_c, 1, 57, 0
2, 84720, Note_on_c, 1, 67, 127
2, 84720, Note_on_c, 1, 68, 127
2, 84720, Note_on_c, 1, 73, 127
2, 84720, Note_on_c, 1, 77, 127
2, 84720, Note_off_c, 1, 88, 0
2, 84720, Note_off_c, 1, 93, 0
2, 84720, Note_off_c, 1, 97, 0
2, 84720, Note_off_c, 1, 100, 0
2, 84760, Note_on_c, 1, 50, 127
2, 84760, Note_on_c, 1, 55, 127
2, 84760, Note_on_c, 1, 64, 127
2, 84760, Note_off_c, 1, 67, 0
2, 84760, Note_off_c, 1, 68, 0
2, 84760, Note_off_c, 1, 77, 0
2, 84800, Note_off_c, 1, 50, 0
2, 84800, Note_off_c, 1, 55, 0
2, 84800, Note_on_c, 1, 58, 127
2, 84800, Note_on_c, 1, 63, 127
2, 84800, Note_off_c, 1, 64, 0
2, 84800, Note_off_c, 1, 73, 0
2, 84800, Note_on_c, 1, 83, 127
2, 84840, Note_on_c, 1, 42, 127
2, 84840, Note_on_c, 1, 54, 127
2, 84840, Note_off_c, 1, 58, 0
2, 84840, Note_off_c, 1, 63, 0
2, 84840, Note_on_c, 1, 69, 127
2, 84840, Note_on_c, 1, 73, 127
2, 84840, Note_on_c, 1, 78, 127
2, 84840, Note_on_c, 1, 81, 127
2, 84840, Note_off_c, 1, 83, 0
2, 84880, Note_off_c, 1, 42, 0
2, 84880, Note_off_c, 1, 54, 0
2, 84880, Note_off_c, 1, 69, 0
2, 84880, Note_off_c, 1, 73, 0
2, 84880, Note_off_c, 1, 78, 0
2, 84880, Note_off_c, 1, 81, 0
2, 84920, Note_on_c, 1, 57, 127
2, 84920, Note_on_c, 1, 70, 127
2, 84920, Note_on_c, 1, 82, 127
2, 85680, Note_off_c, 1, 57, 0
2, 85720, Note_on_c, 1, 57, 127
2, 86080, Note_off_c, 1, 57, 0
2, 86120, Note_on_c, 1, 62, 127
2, 86480, Note_off_c, 1, 62, 0
2, 86520, Note_off_c, 1, 70, 0
2, 86520, Note_off_c, 1, 82, 0
2, 86560, Note_on_c, 1, 58, 127
2, 86560, Note_on_c, 1, 63, 127
2, 86560, Note_on_c, 1, 67, 127
2, 86560, Note_on_c, 1, 70, 127
2, 86560, Note_on_c, 1, 82, 127
2, 86880, Note_off_c, 1, 58, 0
2, 86880, Note_off_c, 1, 63, 0
2, 86880, Note_off_c, 1, 67, 0
2, 86960, Note_on_c, 1, 58, 127
2, 86960, Note_on_c, 1, 62, 127
2, 86960, Note_on_c, 1, 68, 127
2, 86960, Note_off_c, 1, 70, 0
2, 86960, Note_on_c, 1, 72, 127
2, 86960, Note_off_c, 1, 82, 0
2, 86960, Note_on_c, 1, 84, 127
2, 87320, Note_off_c, 1, 58, 0
2, 87320, Note_off_c, 1, 62, 0
2, 87320, Note_off_c, 1, 68, 0
2, 87320, Note_off_c, 1, 72, 0
2, 87320, Note_off_c, 1, 84, 0
2, 87360, Note_on_c, 1, 74, 127
2, 87360, Note_on_c, 1, 79, 127
2, 87360, Note_on_c, 1, 82, 127
2, 87360, Note_on_c, 1, 86, 127
2, 88760, Note_off_c, 1, 74, 0
2, 88760, Note_off_c, 1, 79, 0
2, 88760, Note_off_c, 1, 82, 0
2, 88760, Note_off_c, 1, 86, 0
2, 88800, Note_on_c, 1, 74, 127
2, 88800, Note_on_c, 1, 79, 127
2, 88800, Note_on_c, 1, 82, 127
2, 88800, Note_on_c, 1, 86, 127
2, 90880, Note_off_c, 1, 74, 0
2, 90880, Note_off_c, 1, 79, 0
2, 90880, Note_off_c, 1, 82, 0
2, 90880, Note_off_c, 1, 86, 0
2, 90920, Note_on_c, 1, 74, 127
2, 90920, Note_on_c, 1, 79, 127
2, 90920, Note_on_c, 1, 82, 127
2, 90920, Note_on_c, 1, 86, 127
2, 91000, Note_off_c, 1, 74, 0
2, 91000, Note_off_c, 1, 79, 0
2, 91000, Note_off_c, 1, 82, 0
2, 91000, Note_off_c, 1, 86, 0
2, 91040, Note_on_c, 1, 74, 127
2, 91040, Note_on_c, 1, 79, 127
2, 91040, Note_on_c, 1, 82, 127
2, 91040, Note_on_c, 1, 86, 127
2, 91840, Note_on_c, 1, 58, 127
2, 92000, Note_off_c, 1, 58, 0
2, 92960, Note_off_c, 1, 74, 0
2, 92960, Note_off_c, 1, 79, 0
2, 92960, Note_off_c, 1, 82, 0
2, 92960, Note_off_c, 1, 86, 0
2, 93000, Note_on_c, 1, 74, 127
2, 93000, Note_on_c, 1, 79, 127
2, 93000, Note_on_c, 1, 82, 127
2, 93000, Note_on_c, 1, 86, 127
2, 93400, Note_off_c, 1, 74, 0
2, 93400, Note_off_c, 1, 79, 0
2, 93400, Note_off_c, 1, 82, 0
2, 93400, Note_off_c, 1, 86, 0
2, 93480, Note_on_c, 1, 86, 127
2, 93840, Note_off_c, 1, 86, 0
2, 93880, Note_on_c, 1, 64, 127
2, 93880, Note_on_c, 1, 85, 127
2, 93880, Note_on_c, 1, 91, 127
2, 93920, Note_on_c, 1, 59, 127
2, 93920, Note_on_c, 1, 79, 127
2, 93920, Note_on_c, 1, 83, 127
2, 93920, Note_off_c, 1, 85, 0
2, 93960, Note_off_c, 1, 59, 0
2, 93960, Note_off_c, 1, 64, 0
2, 93960, Note_off_c, 1, 79, 0
2, 93960, Note_on_c, 1, 82, 127
2, 93960, Note_off_c, 1, 83, 0
2, 93960, Note_off_c, 1, 91, 0
2, 93960, Note_on_c, 1, 92, 127
2, 93960, Note_on_c, 1, 94, 127
2, 94000, Note_on_c, 1, 52, 127
2, 94000, Note_on_c, 1, 57, 127
2, 94000, Note_on_c, 1, 72, 127
2, 94000, Note_on_c, 1, 79, 127
2, 94000, Note_off_c, 1, 82, 0
2, 94000, Note_off_c, 1, 92, 0
2, 94000, Note_off_c, 1, 94, 0
2, 94040, Note_off_c, 1, 52, 0
2, 94040, Note_off_c, 1, 57, 0
2, 94040, Note_on_c, 1, 59, 127
2, 94040, Note_on_c, 1, 62, 127
2, 94040, Note_on_c, 1, 67, 127
2, 94040, Note_off_c, 1, 72, 0
2, 94040, Note_on_c, 1, 75, 127
2, 94040, Note_off_c, 1, 79, 0
2, 94080, Note_off_c, 1, 62, 0
2, 94080, Note_on_c, 1, 64, 127
2, 94080, Note_off_c, 1, 67, 0
2, 94080, Note_off_c, 1, 75, 0
2, 94080, Note_on_c, 1, 79, 127
2, 94080, Note_on_c, 1, 83, 127
2, 94080, Note_on_c, 1, 91, 127
2, 94240, Note_off_c, 1, 59, 0
2, 94240, Note_off_c, 1, 64, 0
2, 94240, Note_on_c, 1, 70, 127
2, 94240, Note_on_c, 1, 75, 127
2, 94240, Note_off_c, 1, 83, 0
2, 94280, Note_on_c, 1, 63, 127
2, 94280, Note_on_c, 1, 69, 127
2, 94280, Note_off_c, 1, 70, 0
2, 94280, Note_on_c, 1, 73, 127
2, 94280, Note_off_c, 1, 75, 0
2, 94280, Note_on_c, 1, 76, 127
2, 94280, Note_off_c, 1, 79, 0
2, 94280, Note_on_c, 1, 80, 127
2, 94280, Note_off_c, 1, 91, 0
2, 94640, Note_off_c, 1, 63, 0
2, 94640, Note_on_c, 1, 68, 127
2, 94640, Note_off_c, 1, 69, 0
2, 94640, Note_off_c, 1, 76, 0
2, 94640, Note_on_c, 1, 77, 127
2, 94680, Note_on_c, 1, 52, 127
2, 94680, Note_on_c, 1, 59, 127
2, 94680, Note_off_c, 1, 73, 0
2, 94680, Note_on_c, 1, 76, 127
2, 94680, Note_off_c, 1, 77, 0
2, 94680, Note_off_c, 1, 80, 0
2, 94680, Note_on_c, 1, 85, 127
2, 94680, Note_on_c, 1, 88, 127
2, 95080, Note_off_c, 1, 52, 0
2, 95080, Note_off_c, 1, 59, 0
2, 95080, Note_off_c, 1, 68, 0
2, 95080, Note_off_c, 1, 76, 0
2, 95080, Note_off_c, 1, 85, 0
2, 95080, Note_off_c, 1, 88, 0
2, 95120, Note_on_c, 1, 52, 127
2, 95120, Note_on_c, 1, 59, 127
2, 95120, Note_on_c, 1, 68, 127
2, 95120, Note_on_c, 1, 76, 127
2, 95120, Note_on_c, 1, 85, 127
2, 95120, Note_on_c, 1, 88, 127
2, 97080, Note_off_c, 1, 52, 0
2, 97080, Note_off_c, 1, 59, 0
2, 97080, Note_off_c, 1, 68, 0
2, 97080, Note_off_c, 1, 76, 0
2, 97080, Note_off_c, 1, 85, 0
2, 97080, Note_off_c, 1, 88, 0
2, 97120, Note_on_c, 1, 69, 127
2, 97120, Note_on_c, 1, 85, 127
2, 97520, Note_off_c, 1, 69, 0
2, 97520, Note_off_c, 1, 85, 0
2, 97560, Note_on_c, 1, 54, 127
2, 97560, Note_on_c, 1, 78, 127
2, 97560, Note_on_c, 1, 90, 127
2, 97560, Note_on_c, 1, 93, 127
2, 97680, Note_on_c, 1, 62, 127
2, 97680, Note_on_c, 1, 64, 127
2, 97680, Note_off_c, 1, 78, 0
2, 97680, Note_off_c, 1, 90, 0
2, 97680, Note_off_c, 1, 93, 0
2, 97720, Note_off_c, 1, 62, 0
2, 97720, Note_off_c, 1, 64, 0
2, 97720, Note_on_c, 1, 78, 127
2, 97720, Note_on_c, 1, 90, 127
2, 97720, Note_on_c, 1, 93, 127
2, 97840, Note_on_c, 1, 38, 127
2, 97840, Note_on_c, 1, 66, 127
2, 97840, Note_on_c, 1, 70, 127
2, 97840, Note_off_c, 1, 78, 0
2, 97840, Note_off_c, 1, 90, 0
2, 97840, Note_off_c, 1, 93, 0
2, 97880, Note_off_c, 1, 38, 0
2, 97880, Note_on_c, 1, 58, 127
2, 97880, Note_on_c, 1, 64, 127
2, 97880, Note_off_c, 1, 66, 0
2, 97880, Note_off_c, 1, 70, 0
2, 97880, Note_on_c, 1, 88, 127
2, 97920, Note_off_c, 1, 54, 0
2, 97920, Note_off_c, 1, 58, 0
2, 97920, Note_on_c, 1, 61, 127
2, 97920, Note_off_c, 1, 64, 0
2, 97960, Note_on_c, 1, 45, 127
2, 97960, Note_on_c, 1, 52, 127
2, 97960, Note_off_c, 1, 61, 0
2, 97960, Note_on_c, 1, 85, 127
2, 97960, Note_on_c, 1, 93, 127
2, 98720, Note_off_c, 1, 45, 0
2, 98720, Note_off_c, 1, 52, 0
2, 98720, Note_off_c, 1, 85, 0
2, 98720, Note_off_c, 1, 88, 0
2, 98720, Note_off_c, 1, 93, 0
2, 98760, Note_on_c, 1, 53, 127
2, 98760, Note_on_c, 1, 60, 127
2, 98760, Note_on_c, 1, 68, 127
2, 98760, Note_on_c, 1, 72, 127
2, 98760, Note_on_c, 1, 75, 127
2, 98760, Note_on_c, 1, 79, 127
2, 99760, Note_off_c, 1, 53, 0
2, 99760, Note_off_c, 1, 60, 0
2, 99760, Note_off_c, 1, 68, 0
2, 99760, Note_off_c, 1, 72, 0
2, 99760, Note_off_c, 1, 75, 0
2, 99760, Note_off_c, 1, 79, 0
2, 99800, Note_on_c, 1, 53, 127
2, 99800, Note_on_c, 1, 60, 127
2, 99800, Note_on_c, 1, 68, 127
2, 99800, Note_on_c, 1, 72, 127
2, 99800, Note_on_c, 1, 75, 127
2, 99800, Note_on_c, 1, 79, 127
2, 100160, Note_on_c, 1, 47, 127
2, 100160, Note_off_c, 1, 53, 0
2, 100160, Note_off_c, 1, 60, 0
2, 100160, Note_off_c, 1, 68, 0
2, 100160, Note_off_c, 1, 72, 0
2, 100160, Note_off_c, 1, 75, 0
2, 100160, Note_on_c, 1, 76, 127
2, 100160, Note_off_c, 1, 79, 0
2, 100160, Note_on_c, 1, 88, 127
2, 100200, Note_on_c, 1, 42, 127
2, 100200, Note_off_c, 1, 47, 0
2, 100200, Note_on_c, 1, 49, 127
2, 100200, Note_on_c, 1, 54, 127
2, 100200, Note_on_c, 1, 69, 127
2, 100200, Note_on_c, 1, 71, 127
2, 100200, Note_off_c, 1, 76, 0
2, 100200, Note_on_c, 1, 81, 127
2, 100200, Note_off_c, 1, 88, 0
2, 100560, Note_on_c, 1, 34, 127
2, 100560, Note_off_c, 1, 42, 0
2, 100560, Note_off_c, 1, 49, 0
2, 100560, Note_off_c, 1, 54, 0
2, 100560, Note_off_c, 1, 69, 0
2, 100560, Note_off_c, 1, 71, 0
2, 100560, Note_on_c, 1, 80, 127
2, 100560, Note_off_c, 1, 81, 0
2, 100600, Note_off_c, 1, 34, 0
2, 100600, Note_on_c, 1, 42, 127
2, 100600, Note_on_c, 1, 49, 127
2, 100600, Note_on_c, 1, 54, 127
2, 100600, Note_on_c, 1, 69, 127
2, 100600, Note_on_c, 1, 71, 127
2, 100600, Note_off_c, 1, 80, 0
2, 100600, Note_on_c, 1, 81, 127
2, 100640, Note_off_c, 1, 42, 0
2, 100640, Note_off_c, 1, 49, 0
2, 100640, Note_on_c, 1, 57, 127
2, 100640, Note_on_c, 1, 64, 127
2, 100640, Note_off_c, 1, 69, 0
2, 100640, Note_off_c, 1, 71, 0
2, 100640, Note_on_c, 1, 72, 127
2, 100640, Note_off_c, 1, 81, 0
2, 100680, Note_on_c, 1, 42, 127
2, 100680, Note_on_c, 1, 49, 127
2, 100680, Note_off_c, 1, 57, 0
2, 100680, Note_off_c, 1, 64, 0
2, 100680, Note_on_c, 1, 69, 127
2, 100680, Note_on_c, 1, 71, 127
2, 100680, Note_off_c, 1, 72, 0
2, 100680, Note_on_c, 1, 81, 127
2, 100760, Note_off_c, 1, 42, 0
2, 100760, Note_on_c, 1, 46, 127
2, 100760, Note_off_c, 1, 49, 0
2, 100760, Note_off_c, 1, 54, 0
2, 100760, Note_on_c, 1, 65, 127
2, 100760, Note_off_c, 1, 69, 0
2, 100760, Note_on_c, 1, 70, 127
2, 100760, Note_off_c, 1, 71, 0
2, 100760, Note_on_c, 1, 76, 127
2, 100760, Note_off_c, 1, 81, 0
2, 100800, Note_on_c, 1, 42, 127
2, 100800, Note_off_c, 1, 46, 0
2, 100800, Note_on_c, 1, 49, 127
2, 100800, Note_on_c, 1, 54, 127
2, 100800, Note_off_c, 1, 65, 0
2, 100800, Note_on_c, 1, 69, 127
2, 100800, Note_off_c, 1, 70, 0
2, 100800, Note_on_c, 1, 71, 127
2, 100800, Note_off_c, 1, 76, 0
2, 100800, Note_on_c, 1, 81, 127
2, 100960, Note_off_c, 1, 42, 0
2, 100960, Note_off_c, 1, 49, 0
2, 100960, Note_off_c, 1, 54, 0
2, 100960, Note_off_c, 1, 69, 0
2, 100960, Note_off_c, 1, 71, 0
2, 100960, Note_off_c, 1, 81, 0
2, 101000, Note_on_c, 1, 56, 127
2, 101000, Note_on_c, 1, 63, 127
2, 101000, Note_on_c, 1, 66, 127
2, 101000, Note_on_c, 1, 88, 127
2, 101040, Note_on_c, 1, 52, 127
2, 101040, Note_on_c, 1, 62, 127
2, 101040, Note_off_c, 1, 63, 0
2, 101040, Note_off_c, 1, 66, 0
2, 101040, Note_on_c, 1, 75, 127
2, 101040, Note_off_c, 1, 88, 0
2, 101080, Note_off_c, 1, 52, 0
2, 101080, Note_on_c, 1, 55, 127
2, 101080, Note_off_c, 1, 56, 0
2, 101080, Note_on_c, 1, 60, 127
2, 101080, Note_off_c, 1, 62, 0
2, 101080, Note_on_c, 1, 63, 127
2, 101080, Note_on_c, 1, 66, 127
2, 101080, Note_on_c, 1, 72, 127
2, 101080, Note_off_c, 1, 75, 0
2, 101120, Note_on_c, 1, 52, 127
2, 101120, Note_off_c, 1, 55, 0
2, 101120, Note_on_c, 1, 56, 127
2, 101120, Note_off_c, 1, 60, 0
2, 101120, Note_on_c, 1, 62, 127
2, 101120, Note_off_c, 1, 63, 0
2, 101120, Note_off_c, 1, 66, 0
2, 101120, Note_off_c, 1, 72, 0
2, 101120, Note_on_c, 1, 73, 127
2, 101160, Note_on_c, 1, 41, 127
2, 101160, Note_on_c, 1, 45, 127
2, 101160, Note_on_c, 1, 50, 127
2, 101160, Note_off_c, 1, 52, 0
2, 101160, Note_on_c, 1, 53, 127
2, 101160, Note_off_c, 1, 56, 0
2, 101160, Note_on_c, 1, 57, 127
2, 101160, Note_on_c, 1, 69, 127
2, 101160, Note_off_c, 1, 73, 0
2, 101200, Note_off_c, 1, 41, 0
2, 101200, Note_off_c, 1, 45, 0
2, 101200, Note_off_c, 1, 50, 0
2, 101200, Note_off_c, 1, 53, 0
2, 101200, Note_on_c, 1, 56, 127
2, 101200, Note_off_c, 1, 57, 0
2, 101200, Note_off_c, 1, 62, 0
2, 101200, Note_on_c, 1, 63, 127
2, 101200, Note_on_c, 1, 68, 127
2, 101200, Note_off_c, 1, 69, 0
2, 101200, Note_on_c, 1, 82, 127
2, 101200, Note_on_c, 1, 84, 127
2, 101240, Note_on_c, 1, 34, 127
2, 101240, Note_on_c, 1, 42, 127
2, 101240, Note_on_c, 1, 46, 127
2, 101240, Note_off_c, 1, 56, 0
2, 101240, Note_on_c, 1, 58, 127
2, 101240, Note_on_c, 1, 66, 127
2, 101240, Note_off_c, 1, 68, 0
2, 101240, Note_on_c, 1, 70, 127
2, 101240, Note_off_c, 1, 82, 0
2, 101240, Note_off_c, 1, 84, 0
2, 101280, Note_off_c, 1, 34, 0
2, 101280, Note_off_c, 1, 42, 0
2, 101280, Note_off_c, 1, 46, 0
2, 101280, Note_on_c, 1, 47, 127
2, 101280, Note_on_c, 1, 54, 127
2, 101280, Note_on_c, 1, 57, 127
2, 101280, Note_off_c, 1, 58, 0
2, 101280, Note_on_c, 1, 59, 127
2, 101280, Note_off_c, 1, 63, 0
2, 101280, Note_off_c, 1, 66, 0
2, 101280, Note_on_c, 1, 69, 127
2, 101280, Note_off_c, 1, 70, 0
2, 101320, Note_off_c, 1, 47, 0
2, 101320, Note_off_c, 1, 54, 0
2, 101320, Note_on_c, 1, 55, 127
2, 101320, Note_off_c, 1, 57, 0
2, 101320, Note_off_c, 1, 59, 0
2, 101320, Note_on_c, 1, 60, 127
2, 101320, Note_on_c, 1, 63, 127
2, 101320, Note_on_c, 1, 66, 127
2, 101320, Note_off_c, 1, 69, 0
2, 101320, Note_on_c, 1, 72, 127
2, 101360, Note_off_c, 1, 55, 0
2, 101360, Note_on_c, 1, 56, 127
2, 101360, Note_off_c, 1, 60, 0
2, 101360, Note_off_c, 1, 63, 0
2, 101360, Note_off_c, 1, 66, 0
2, 101360, Note_off_c, 1, 72, 0
2, 101400, Note_off_c, 1, 56, 0
2, 101400, Note_on_c, 1, 81, 127
2, 101400, Note_on_c, 1, 87, 127
2, 101400, Note_on_c, 1, 99, 127
2, 101440, Note_on_c, 1, 46, 127
2, 101440, Note_on_c, 1, 58, 127
2, 101440, Note_off_c, 1, 81, 0
2, 101440, Note_off_c, 1, 87, 0
2, 101440, Note_on_c, 1, 90, 127
2, 101440, Note_off_c, 1, 99, 0
2, 101480, Note_off_c, 1, 46, 0
2, 101480, Note_off_c, 1, 58, 0
2, 101480, Note_on_c, 1, 62, 127
2, 101480, Note_on_c, 1, 71, 127
2, 101480, Note_on_c, 1, 83, 127
2, 101480, Note_off_c, 1, 90, 0
2, 101480, Note_on_c, 1, 91, 127
2, 101520, Note_on_c, 1, 46, 127
2, 101520, Note_on_c, 1, 58, 127
2, 101520, Note_off_c, 1, 62, 0
2, 101520, Note_off_c, 1, 71, 0
2, 101520, Note_off_c, 1, 83, 0
2, 101520, Note_on_c, 1, 90, 127
2, 101520, Note_off_c, 1, 91, 0
2, 101560, Note_off_c, 1, 46, 0
2, 101560, Note_on_c, 1, 47, 127
2, 101560, Note_off_c, 1, 58, 0
2, 101560, Note_on_c, 1, 84, 127
2, 101560, Note_on_c, 1, 87, 127
2, 101560, Note_off_c, 1, 90, 0
2, 101600, Note_off_c, 1, 47, 0
2, 101600, Note_on_c, 1, 58, 127
2, 101600, Note_on_c, 1, 60, 127
2, 101600, Note_on_c, 1, 65, 127
2, 101600, Note_on_c, 1, 72, 127
2, 101600, Note_on_c, 1, 75, 127
2, 101600, Note_off_c, 1, 84, 0
2, 101600, Note_off_c, 1, 87, 0
2, 101640, Note_on_c, 1, 48, 127
2, 101640, Note_on_c, 1, 52, 127
2, 101640, Note_on_c, 1, 57, 127
2, 101640, Note_off_c, 1, 58, 0
2, 101640, Note_off_c, 1, 60, 0
2, 101640, Note_off_c, 1, 65, 0
2, 101640, Note_off_c, 1, 72, 0
2, 101640, Note_off_c, 1, 75, 0
2, 101640, Note_on_c, 1, 93, 127
2, 101680, Note_off_c, 1, 48, 0
2, 101680, Note_off_c, 1, 52, 0
2, 101680, Note_off_c, 1, 57, 0
2, 101680, Note_off_c, 1, 93, 0
2, 101720, Note_on_c, 1, 52, 127
2, 101720, Note_on_c, 1, 62, 127
2, 101720, Note_on_c, 1, 64, 127
2, 101720, Note_on_c, 1, 79, 127
2, 101720, Note_on_c, 1, 83, 127
2, 101760, Note_off_c, 1, 52, 0
2, 101760, Note_off_c, 1, 62, 0
2, 101760, Note_off_c, 1, 64, 0
2, 101760, Note_off_c, 1, 79, 0
2, 101760, Note_on_c, 1, 81, 127
2, 101760, Note_off_c, 1, 83, 0
2, 101800, Note_on_c, 1, 41, 127
2, 101800, Note_on_c, 1, 53, 127
2, 101800, Note_on_c, 1, 56, 127
2, 101800, Note_on_c, 1, 59, 127
2, 101800, Note_on_c, 1, 65, 127
2, 101800, Note_on_c, 1, 69, 127
2, 101800, Note_on_c, 1, 77, 127
2, 101800, Note_off_c, 1, 81, 0
2, 101840, Note_on_c, 1, 34, 127
2, 101840, Note_off_c, 1, 41, 0
2, 101840, Note_on_c, 1, 43, 127
2, 101840, Note_on_c, 1, 50, 127
2, 101840, Note_off_c, 1, 53, 0
2, 101840, Note_off_c, 1, 56, 0
2, 101840, Note_off_c, 1, 59, 0
2, 101840, Note_on_c, 1, 62, 127
2, 101840, Note_off_c, 1, 65, 0
2, 101840, Note_off_c, 1, 69, 0
2, 101840, Note_off_c, 1, 77, 0
2, 101880, Note_off_c, 1, 34, 0
2, 101880, Note_on_c, 1, 38, 127
2, 101880, Note_off_c, 1, 43, 0
2, 101880, Note_off_c, 1, 50, 0
2, 101880, Note_off_c, 1, 62, 0
2, 101880, Note_on_c, 1, 75, 127
2, 101880, Note_on_c, 1, 78, 127
2, 101880, Note_on_c, 1, 82, 127
2, 101880, Note_on_c, 1, 87, 127
2, 101920, Note_off_c, 1, 38, 0
2, 101920, Note_on_c, 1, 60, 127
2, 101920, Note_on_c, 1, 67, 127
2, 101920, Note_on_c, 1, 70, 127
2, 101920, Note_on_c, 1, 72, 127
2, 101920, Note_off_c, 1, 75, 0
2, 101920, Note_on_c, 1, 77, 127
2, 101920, Note_off_c, 1, 78, 0
2, 101920, Note_off_c, 1, 82, 0
2, 101920, Note_off_c, 1, 87, 0
2, 101960, Note_on_c, 1, 37, 127
2, 101960, Note_on_c, 1, 46, 127
2, 101960, Note_off_c, 1, 60, 0
2, 101960, Note_off_c, 1, 67, 0
2, 101960, Note_off_c, 1, 72, 0
2, 101960, Note_on_c, 1, 73, 127
2, 101960, Note_off_c, 1, 77, 0
2, 102000, Note_off_c, 1, 37, 0
2, 102000, Note_on_c, 1, 40, 127
2, 102000, Note_off_c, 1, 46, 0
2, 102000, Note_on_c, 1, 52, 127
2, 102000, Note_on_c, 1, 61, 127
2, 102000, Note_on_c, 1, 64, 127
2, 102000, Note_off_c, 1, 70, 0
2, 102000, Note_off_c, 1, 73, 0
2, 102040, Note_off_c, 1, 40, 0
2, 102040, Note_off_c, 1, 52, 0
2, 102040, Note_on_c, 1, 55, 127
2, 102040, Note_off_c, 1, 61, 0
2, 102040, Note_on_c, 1, 62, 127
2, 102040, Note_off_c, 1, 64, 0
2, 102040, Note_on_c, 1, 72, 127
2, 102040, Note_on_c, 1, 81, 127
2, 102040, Note_on_c, 1, 84, 127
2, 102080, Note_on_c, 1, 48, 127
2, 102080, Note_on_c, 1, 53, 127
2, 102080, Note_off_c, 1, 55, 0
2, 102080, Note_off_c, 1, 62, 0
2, 102080, Note_on_c, 1, 65, 127
2, 102080, Note_on_c, 1, 67, 127
2, 102080, Note_off_c, 1, 72, 0
2, 102080, Note_off_c, 1, 81, 0
2, 102080, Note_off_c, 1, 84, 0
2, 102120, Note_on_c, 1, 47, 127
2, 102120, Note_off_c, 1, 48, 0
2, 102120, Note_off_c, 1, 53, 0
2, 102120, Note_on_c, 1, 55, 127
2, 102120, Note_on_c, 1, 58, 127
2, 102120, Note_off_c, 1, 65, 0
2, 102120, Note_off_c, 1, 67, 0
2, 102120, Note_on_c, 1, 73, 127
2, 102160, Note_off_c, 1, 47, 0
2, 102160, Note_off_c, 1, 55, 0
2, 102160, Note_off_c, 1, 58, 0
2, 102160, Note_off_c, 1, 73, 0
2, 102200, Note_on_c, 1, 45, 127
2, 102200, Note_on_c, 1, 84, 127
2, 102200, Note_on_c, 1, 93, 127
2, 102200, Note_on_c, 1, 96, 127
2, 102240, Note_on_c, 1, 38, 127
2, 102240, Note_on_c, 1, 50, 127
2, 102240, Note_on_c, 1, 77, 127
2, 102240, Note_on_c, 1, 81, 127
2, 102240, Note_off_c, 1, 84, 0
2, 102240, Note_off_c, 1, 93, 0
2, 102240, Note_off_c, 1, 96, 0
2, 102280, Note_off_c, 1, 38, 0
2, 102280, Note_off_c, 1, 50, 0
2, 102280, Note_off_c, 1, 77, 0
2, 102280, Note_off_c, 1, 81, 0
2, 102280, Note_on_c, 1, 84, 127
2, 102280, Note_on_c, 1, 93, 127
2, 102280, Note_on_c, 1, 96, 127
2, 102520, Note_off_c, 1, 45, 0
2, 102520, Note_on_c, 1, 50, 127
2, 102560, Note_on_c, 1, 38, 127
2, 102560, Note_off_c, 1, 50, 0
2, 102560, Note_off_c, 1, 84, 0
2, 102560, Note_off_c, 1, 93, 0
2, 102560, Note_off_c, 1, 96, 0
2, 102600, Note_off_c, 1, 38, 0
2, 102600, Note_on_c, 1, 40, 127
2, 102600, Note_on_c, 1, 50, 127
2, 102600, Note_on_c, 1, 62, 127
2, 102600, Note_on_c, 1, 65, 127
2, 102600, Note_on_c, 1, 69, 127
2, 102600, Note_on_c, 1, 74, 127
2, 102960, Note_on_c, 1, 38, 127
2, 102960, Note_off_c, 1, 40, 0
2, 102960, Note_off_c, 1, 50, 0
2, 102960, Note_off_c, 1, 62, 0
2, 102960, Note_off_c, 1, 65, 0
2, 102960, Note_off_c, 1, 69, 0
2, 102960, Note_off_c, 1, 74, 0
2, 103000, Note_off_c, 1, 38, 0
2, 103000, Note_on_c, 1, 51, 127
2, 103000, Note_on_c, 1, 58, 127
2, 103000, Note_on_c, 1, 63, 127
2, 103000, Note_on_c, 1, 77, 127
2, 103000, Note_on_c, 1, 89, 127
2, 103040, Note_on_c, 1, 29, 127
2, 103040, Note_on_c, 1, 41, 127
2, 103040, Note_off_c, 1, 51, 0
2, 103040, Note_off_c, 1, 58, 0
2, 103040, Note_off_c, 1, 63, 0
2, 103040, Note_off_c, 1, 77, 0
2, 103040, Note_on_c, 1, 83, 127
2, 103040, Note_on_c, 1, 86, 127
2, 103040, Note_off_c, 1, 89, 0
2, 103040, Note_on_c, 1, 91, 127
2, 103040, Note_on_c, 1, 95, 127
2, 103080, Note_off_c, 1, 29, 0
2, 103080, Note_off_c, 1, 41, 0
2, 103080, Note_on_c, 1, 63, 127
2, 103080, Note_on_c, 1, 72, 127
2, 103080, Note_on_c, 1, 75, 127
2, 103080, Note_on_c, 1, 77, 127
2, 103080, Note_off_c, 1, 83, 0
2, 103080, Note_off_c, 1, 86, 0
2, 103080, Note_on_c, 1, 89, 127
2, 103080, Note_off_c, 1, 91, 0
2, 103080, Note_off_c, 1, 95, 0
2, 103120, Note_on_c, 1, 37, 127
2, 103120, Note_on_c, 1, 42, 127
2, 103120, Note_on_c, 1, 49, 127
2, 103120, Note_off_c, 1, 63, 0
2, 103120, Note_off_c, 1, 72, 0
2, 103120, Note_on_c, 1, 73, 127
2, 103120, Note_off_c, 1, 75, 0
2, 103120, Note_off_c, 1, 77, 0
2, 103120, Note_on_c, 1, 78, 127
2, 103120, Note_on_c, 1, 81, 127
2, 103120, Note_on_c, 1, 85, 127
2, 103120, Note_off_c, 1, 89, 0
2, 103160, Note_off_c, 1, 37, 0
2, 103160, Note_off_c, 1, 42, 0
2, 103160, Note_off_c, 1, 49, 0
2, 103160, Note_on_c, 1, 55, 127
2, 103160, Note_on_c, 1, 60, 127
2, 103160, Note_on_c, 1, 70, 127
2, 103160, Note_off_c, 1, 73, 0
2, 103160, Note_on_c, 1, 77, 127
2, 103160, Note_off_c, 1, 78, 0
2, 103160, Note_off_c, 1, 81, 0
2, 103160, Note_off_c, 1, 85, 0
2, 103200, Note_on_c, 1, 57, 127
2, 103200, Note_off_c, 1, 60, 0
2, 103200, Note_on_c, 1, 61, 127
2, 103200, Note_on_c, 1, 64, 127
2, 103200, Note_off_c, 1, 70, 0
2, 103200, Note_on_c, 1, 73, 127
2, 103200, Note_off_c, 1, 77, 0
2, 103240, Note_off_c, 1, 55, 0
2, 103240, Note_on_c, 1, 56, 127
2, 103240, Note_off_c, 1, 57, 0
2, 103240, Note_on_c, 1, 60, 127
2, 103240, Note_off_c, 1, 61, 0
2, 103240, Note_off_c, 1, 64, 0
2, 103240, Note_on_c, 1, 66, 127
2, 103240, Note_on_c, 1, 68, 127
2, 103240, Note_off_c, 1, 73, 0
2, 103240, Note_on_c, 1, 81, 127
2, 103280, Note_off_c, 1, 56, 0
2, 103280, Note_off_c, 1, 60, 0
2, 103280, Note_off_c, 1, 66, 0
2, 103280, Note_on_c, 1, 67, 127
2, 103280, Note_off_c, 1, 68, 0
2, 103280, Note_on_c, 1, 77, 127
2, 103280, Note_on_c, 1, 93, 127
2, 103320, Note_on_c, 1, 56, 127
2, 103320, Note_on_c, 1, 59, 127
2, 103320, Note_on_c, 1, 64, 127
2, 103320, Note_off_c, 1, 67, 0
2, 103320, Note_on_c, 1, 76, 127
2, 103320, Note_off_c, 1, 77, 0
2, 103320, Note_off_c, 1, 81, 0
2, 103320, Note_on_c, 1, 83, 127
2, 103320, Note_on_c, 1, 88, 127
2, 103320, Note_off_c, 1, 93, 0
2, 103360, Note_off_c, 1, 56, 0
2, 103360, Note_off_c, 1, 59, 0
2, 103360, Note_off_c, 1, 64, 0
2, 103360, Note_on_c, 1, 66, 127
2, 103360, Note_on_c, 1, 75, 127
2, 103360, Note_off_c, 1, 76, 0
2, 103360, Note_on_c, 1, 78, 127
2, 103360, Note_on_c, 1, 82, 127
2, 103360, Note_off_c, 1, 83, 0
2, 103360, Note_off_c, 1, 88, 0
2, 103360, Note_on_c, 1, 94, 127
2, 103400, Note_on_c, 1, 44, 127
2, 103400, Note_on_c, 1, 56, 127
2, 103400, Note_on_c, 1, 64, 127
2, 103400, Note_off_c, 1, 66, 0
2, 103400, Note_on_c, 1, 72, 127
2, 103400, Note_off_c, 1, 75, 0
2, 103400, Note_off_c, 1, 82, 0
2, 103400, Note_off_c, 1, 94, 0
2, 103560, Note_on_c, 1, 42, 127
2, 103560, Note_off_c, 1, 44, 0
2, 103560, Note_on_c, 1, 47, 127
2, 103560, Note_off_c, 1, 56, 0
2, 103560, Note_off_c, 1, 64, 0
2, 103560, Note_off_c, 1, 72, 0
2, 103560, Note_on_c, 1, 76, 127
2, 103560, Note_off_c, 1, 78, 0
2, 103560, Note_on_c, 1, 81, 127
2, 103560, Note_on_c, 1, 88, 127
2, 103600, Note_off_c, 1, 42, 0
2, 103600, Note_on_c, 1, 44, 127
2, 103600, Note_off_c, 1, 47, 0
2, 103600, Note_on_c, 1, 56, 127
2, 103600, Note_on_c, 1, 64, 127
2, 103600, Note_on_c, 1, 72, 127
2, 103600, Note_off_c, 1, 76, 0
2, 103600, Note_on_c, 1, 78, 127
2, 103600, Note_off_c, 1, 81, 0
2, 103600, Note_off_c, 1, 88, 0
2, 103640, Note_off_c, 1, 44, 0
2, 103640, Note_on_c, 1, 54, 127
2, 103640, Note_off_c, 1, 56, 0
2, 103640, Note_off_c, 1, 64, 0
2, 103640, Note_on_c, 1, 65, 127
2, 103640, Note_on_c, 1, 69, 127
2, 103640, Note_off_c, 1, 72, 0
2, 103640, Note_on_c, 1, 73, 127
2, 103640, Note_off_c, 1, 78, 0
2, 103680, Note_on_c, 1, 42, 127
2, 103680, Note_on_c, 1, 51, 127
2, 103680, Note_off_c, 1, 54, 0
2, 103680, Note_on_c, 1, 61, 127
2, 103680, Note_off_c, 1, 65, 0
2, 103680, Note_off_c, 1, 69, 0
2, 103680, Note_on_c, 1, 70, 127
2, 103680, Note_off_c, 1, 73, 0
2, 103720, Note_off_c, 1, 42, 0
2, 103720, Note_on_c, 1, 47, 127
2, 103720, Note_off_c, 1, 51, 0
2, 103720, Note_on_c, 1, 54, 127
2, 103720, Note_off_c, 1, 61, 0
2, 103720, Note_off_c, 1, 70, 0
2, 103720, Note_on_c, 1, 73, 127
2, 103720, Note_on_c, 1, 76, 127
2, 103760, Note_off_c, 1, 47, 0
2, 103760, Note_off_c, 1, 54, 0
2, 103760, Note_off_c, 1, 73, 0
2, 103760, Note_off_c, 1, 76, 0
2, 103840, Note_on_c, 1, 39, 127
2, 103840, Note_on_c, 1, 47, 127
2, 103840, Note_on_c, 1, 58, 127
2, 103840, Note_on_c, 1, 63, 127
2, 103840, Note_on_c, 1, 70, 127
2, 104600, Note_off_c, 1, 39, 0
2, 104600, Note_off_c, 1, 47, 0
2, 104600, Note_off_c, 1, 58, 0
2, 104600, Note_off_c, 1, 63, 0
2, 104600, Note_on_c, 1, 69, 127
2, 104600, Note_off_c, 1, 70, 0
2, 104600, Note_on_c, 1, 72, 127
2, 104600, Note_on_c, 1, 75, 127
2, 104600, Note_on_c, 1, 77, 127
2, 104600, Note_on_c, 1, 84, 127
2, 104640, Note_on_c, 1, 59, 127
2, 104640, Note_on_c, 1, 62, 127
2, 104640, Note_on_c, 1, 65, 127
2, 104640, Note_on_c, 1, 68, 127
2, 104640, Note_off_c, 1, 69, 0
2, 104640, Note_off_c, 1, 72, 0
2, 104640, Note_off_c, 1, 75, 0
2, 104640, Note_off_c, 1, 77, 0
2, 104640, Note_on_c, 1, 79, 127
2, 104640, Note_off_c, 1, 84, 0
2, 104680, Note_on_c, 1, 38, 127
2, 104680, Note_off_c, 1, 62, 0
2, 104680, Note_off_c, 1, 65, 0
2, 104680, Note_off_c, 1, 68, 0
2, 104680, Note_on_c, 1, 76, 127
2, 104680, Note_off_c, 1, 79, 0
2, 104720, Note_off_c, 1, 38, 0
2, 104720, Note_on_c, 1, 46, 127
2, 104720, Note_on_c, 1, 51, 127
2, 104720, Note_off_c, 1, 59, 0
2, 104720, Note_on_c, 1, 66, 127
2, 104720, Note_on_c, 1, 70, 127
2, 104720, Note_off_c, 1, 76, 0
2, 104760, Note_off_c, 1, 46, 0
2, 104760, Note_off_c, 1, 51, 0
2, 104760, Note_on_c, 1, 56, 127
2, 104760, Note_on_c, 1, 62, 127
2, 104760, Note_off_c, 1, 66, 0
2, 104760, Note_on_c, 1, 68, 127
2, 104760, Note_off_c, 1, 70, 0
2, 104760, Note_on_c, 1, 73, 127
2, 104800, Note_on_c, 1, 36, 127
2, 104800, Note_off_c, 1, 56, 0
2, 104800, Note_off_c, 1, 62, 0
2, 104800, Note_off_c, 1, 68, 0
2, 104800, Note_off_c, 1, 73, 0
2, 104800, Note_on_c, 1, 77, 127
2, 104800, Note_on_c, 1, 80, 127
2, 104800, Note_on_c, 1, 83, 127
2, 104800, Note_on_c, 1, 85, 127
2, 104800, Note_on_c, 1, 89, 127
2, 104840, Note_off_c, 1, 36, 0
2, 104840, Note_on_c, 1, 53, 127
2, 104840, Note_on_c, 1, 58, 127
2, 104840, Note_on_c, 1, 62, 127
2, 104840, Note_on_c, 1, 65, 127
2, 104840, Note_off_c, 1, 77, 0
2, 104840, Note_off_c, 1, 80, 0
2, 104840, Note_off_c, 1, 83, 0
2, 104840, Note_on_c, 1, 84, 127
2, 104840, Note_off_c, 1, 85, 0
2, 104840, Note_off_c, 1, 89, 0
2, 104880, Note_on_c, 1, 44, 127
2, 104880, Note_on_c, 1, 50, 127
2, 104880, Note_off_c, 1, 53, 0
2, 104880, Note_on_c, 1, 57, 127
2, 104880, Note_off_c, 1, 58, 0
2, 104880, Note_off_c, 1, 65, 0
2, 104880, Note_on_c, 1, 66, 127
2, 104880, Note_on_c, 1, 74, 127
2, 104880, Note_off_c, 1, 84, 0
2, 104920, Note_off_c, 1, 44, 0
2, 104920, Note_off_c, 1, 50, 0
2, 104920, Note_on_c, 1, 55, 127
2, 104920, Note_off_c, 1, 57, 0
2, 104920, Note_off_c, 1, 62, 0
2, 104920, Note_on_c, 1, 65, 127
2, 104920, Note_off_c, 1, 66, 0
2, 104920, Note_on_c, 1, 67, 127
2, 104920, Note_on_c, 1, 71, 127
2, 104920, Note_on_c, 1, 79, 127
2, 104960, Note_on_c, 1, 35, 127
2, 104960, Note_on_c, 1, 40, 127
2, 104960, Note_on_c, 1, 47, 127
2, 104960, Note_off_c, 1, 55, 0
2, 104960, Note_on_c, 1, 59, 127
2, 104960, Note_off_c, 1, 65, 0
2, 104960, Note_off_c, 1, 67, 0
2, 104960, Note_on_c, 1, 68, 127
2, 104960, Note_off_c, 1, 74, 0
2, 104960, Note_off_c, 1, 79, 0
2, 104960, Note_on_c, 1, 83, 127
2, 104960, Note_on_c, 1, 88, 127
2, 104960, Note_on_c, 1, 92, 127
2, 105000, Note_off_c, 1, 35, 0
2, 105000, Note_off_c, 1, 40, 0
2, 105000, Note_off_c, 1, 47, 0
2, 105000, Note_off_c, 1, 59, 0
2, 105000, Note_off_c, 1, 68, 0
2, 105000, Note_off_c, 1, 71, 0
2, 105000, Note_on_c, 1, 72, 127
2, 105000, Note_on_c, 1, 80, 127
2, 105000, Note_off_c, 1, 88, 0
2, 105000, Note_on_c, 1, 89, 127
2, 105000, Note_off_c, 1, 92, 0
2, 105000, Note_on_c, 1, 98, 127
2, 105160, Note_off_c, 1, 98, 0
2, 105200, Note_on_c, 1, 99, 127
2, 105240, Note_on_c, 1, 98, 127
2, 105240, Note_off_c, 1, 99, 0
2, 105280, Note_off_c, 1, 98, 0
2, 105280, Note_on_c, 1, 99, 127
2, 105320, Note_on_c, 1, 98, 127
2, 105320, Note_off_c, 1, 99, 0
2, 105360, Note_off_c, 1, 98, 0
2, 105360, Note_on_c, 1, 99, 127
2, 105400, Note_off_c, 1, 72, 0
2, 105400, Note_off_c, 1, 80, 0
2, 105400, Note_off_c, 1, 83, 0
2, 105400, Note_off_c, 1, 89, 0
2, 105400, Note_off_c, 1, 99, 0
2, 105440, Note_on_c, 1, 50, 127
2, 105440, Note_on_c, 1, 52, 127
2, 105440, Note_on_c, 1, 56, 127
2, 105440, Note_on_c, 1, 66, 127
2, 105480, Note_on_c, 1, 31, 127
2, 105480, Note_on_c, 1, 39, 127
2, 105480, Note_off_c, 1, 50, 0
2, 105480, Note_off_c, 1, 52, 0
2, 105480, Note_off_c, 1, 56, 0
2, 105480, Note_off_c, 1, 66, 0
2, 105480, Note_on_c, 1, 96, 127
2, 105520, Note_on_c, 1, 27, 127
2, 105520, Note_off_c, 1, 31, 0
2, 105520, Note_on_c, 1, 58, 127
2, 105520, Note_on_c, 1, 63, 127
2, 105520, Note_on_c, 1, 65, 127
2, 105520, Note_on_c, 1, 70, 127
2, 105520, Note_on_c, 1, 80, 127
2, 105520, Note_on_c, 1, 94, 127
2, 105520, Note_off_c, 1, 96, 0
2, 105560, Note_off_c, 1, 27, 0
2, 105560, Note_on_c, 1, 31, 127
2, 105560, Note_off_c, 1, 58, 0
2, 105560, Note_off_c, 1, 63, 0
2, 105560, Note_off_c, 1, 65, 0
2, 105560, Note_off_c, 1, 70, 0
2, 105560, Note_off_c, 1, 80, 0
2, 105560, Note_off_c, 1, 94, 0
2, 105560, Note_on_c, 1, 96, 127
2, 105600, Note_off_c, 1, 31, 0
2, 105600, Note_off_c, 1, 39, 0
2, 105600, Note_on_c, 1, 51, 127
2, 105600, Note_on_c, 1, 58, 127
2, 105600, Note_on_c, 1, 73, 127
2, 105600, Note_on_c, 1, 75, 127
2, 105600, Note_on_c, 1, 79, 127
2, 105600, Note_on_c, 1, 82, 127
2, 105600, Note_on_c, 1, 87, 127
2, 105600, Note_off_c, 1, 96, 0
2, 105640, Note_on_c, 1, 31, 127
2, 105640, Note_on_c, 1, 39, 127
2, 105640, Note_off_c, 1, 51, 0
2, 105640, Note_off_c, 1, 58, 0
2, 105640, Note_off_c, 1, 73, 0
2, 105640, Note_off_c, 1, 75, 0
2, 105640, Note_off_c, 1, 79, 0
2, 105640, Note_off_c, 1, 82, 0
2, 105640, Note_off_c, 1, 87, 0
2, 105640, Note_on_c, 1, 96, 127
2, 105800, Note_off_c, 1, 31, 0
2, 105800, Note_off_c, 1, 39, 0
2, 105800, Note_on_c, 1, 65, 127
2, 105800, Note_on_c, 1, 77, 127
2, 105800, Note_on_c, 1, 80, 127
2, 105800, Note_on_c, 1, 85, 127
2, 105800, Note_off_c, 1, 96, 0
2, 105840, Note_on_c, 1, 35, 127
2, 105840, Note_on_c, 1, 44, 127
2, 105840, Note_on_c, 1, 47, 127
2, 105840, Note_on_c, 1, 62, 127
2, 105840, Note_on_c, 1, 64, 127
2, 105840, Note_off_c, 1, 65, 0
2, 105840, Note_on_c, 1, 71, 127
2, 105840, Note_on_c, 1, 75, 127
2, 105840, Note_off_c, 1, 77, 0
2, 105840, Note_off_c, 1, 80, 0
2, 105840, Note_off_c, 1, 85, 0
2, 106440, Note_off_c, 1, 35, 0
2, 106440, Note_off_c, 1, 44, 0
2, 106440, Note_off_c, 1, 47, 0
2, 106440, Note_off_c, 1, 62, 0
2, 106440, Note_off_c, 1, 64, 0
2, 106440, Note_off_c, 1, 71, 0
2, 106440, Note_off_c, 1, 75, 0
2, 106480, Note_on_c, 1, 35, 127
2, 106480, Note_on_c, 1, 44, 127
2, 106480, Note_on_c, 1, 47, 127
2, 106480, Note_on_c, 1, 62, 127
2, 106480, Note_on_c, 1, 64, 127
2, 106480, Note_on_c, 1, 71, 127
2, 106480, Note_on_c, 1, 75, 127
2, 108640, Note_off_c, 1, 35, 0
2, 108640, Note_off_c, 1, 44, 0
2, 108640, Note_off_c, 1, 47, 0
2, 108640, Note_off_c, 1, 62, 0
2, 108640, Note_off_c, 1, 64, 0
2, 108640, Note_off_c, 1, 71, 0
2, 108640, Note_off_c, 1, 75, 0
2, 108680, Note_on_c, 1, 35, 127
2, 108680, Note_on_c, 1, 44, 127
2, 108680, Note_on_c, 1, 47, 127
2, 108680, Note_on_c, 1, 62, 127
2, 108680, Note_on_c, 1, 64, 127
2, 108680, Note_on_c, 1, 71, 127
2, 108680, Note_on_c, 1, 75, 127
2, 111080, Note_off_c, 1, 35, 0
2, 111080, Note_off_c, 1, 44, 0
2, 111080, Note_off_c, 1, 47, 0
2, 111080, Note_off_c, 1, 62, 0
2, 111080, Note_off_c, 1, 64, 0
2, 111080, Note_off_c, 1, 71, 0
2, 111080, Note_off_c, 1, 75, 0
2, 111120, Note_on_c, 1, 35, 127
2, 111120, Note_on_c, 1, 44, 127
2, 111120, Note_on_c, 1, 47, 127
2, 111120, Note_on_c, 1, 62, 127
2, 111120, Note_on_c, 1, 64, 127
2, 111120, Note_on_c, 1, 71, 127
2, 111120, Note_on_c, 1, 75, 127
2, 111520, Note_off_c, 1, 35, 0
2, 111520, Note_off_c, 1, 44, 0
2, 111520, Note_off_c, 1, 47, 0
2, 111520, Note_off_c, 1, 62, 0
2, 111520, Note_off_c, 1, 64, 0
2, 111520, Note_off_c, 1, 71, 0
2, 111520, Note_off_c, 1, 75, 0
2, 111560, Note_on_c, 1, 35, 127
2, 111560, Note_on_c, 1, 44, 127
2, 111560, Note_on_c, 1, 47, 127
2, 111560, Note_on_c, 1, 62, 127
2, 111560, Note_on_c, 1, 64, 127
2, 111560, Note_on_c, 1, 71, 127
2, 111560, Note_on_c, 1, 75, 127
2, 112320, Note_off_c, 1, 75, 0
2, 112320, Note_on_c, 1, 76, 127
2, 113920, Note_off_c, 1, 35, 0
2, 113920, Note_off_c, 1, 44, 0
2, 113920, Note_off_c, 1, 47, 0
2, 113920, Note_off_c, 1, 62, 0
2, 113920, Note_off_c, 1, 64, 0
2, 113920, Note_off_c, 1, 71, 0
2, 113920, Note_off_c, 1, 76, 0
2, 114000, Note_on_c, 1, 59, 127
2, 114000, Note_on_c, 1, 65, 127
2, 114000, Note_on_c, 1, 69, 127
2, 114000, Note_on_c, 1, 71, 127
2, 114000, Note_on_c, 1, 75, 127
2, 114000, Note_on_c, 1, 81, 127
2, 114360, Note_off_c, 1, 59, 0
2, 114360, Note_off_c, 1, 65, 0
2, 114360, Note_off_c, 1, 69, 0
2, 114360, Note_off_c, 1, 71, 0
2, 114360, Note_off_c, 1, 75, 0
2, 114360, Note_off_c, 1, 81, 0
2, 114400, Note_on_c, 1, 43, 127
2, 114400, Note_on_c, 1, 55, 127
2, 114400, Note_on_c, 1, 64, 127
2, 114400, Note_on_c, 1, 69, 127
2, 114760, Note_off_c, 1, 64, 0
2, 114760, Note_off_c, 1, 69, 0
2, 114800, Note_off_c, 1, 43, 0
2, 114800, Note_on_c, 1, 52, 127
2, 114800, Note_on_c, 1, 58, 127
2, 114800, Note_on_c, 1, 60, 127
2, 114800, Note_on_c, 1, 82, 127
2, 114800, Note_on_c, 1, 86, 127
2, 114840, Note_on_c, 1, 49, 127
2, 114840, Note_off_c, 1, 52, 0
2, 114840, Note_on_c, 1, 57, 127
2, 114840, Note_off_c, 1, 58, 0
2, 114840, Note_on_c, 1, 67, 127
2, 114840, Note_off_c, 1, 82, 0
2, 114840, Note_off_c, 1, 86, 0
2, 114880, Note_off_c, 1, 49, 0
2, 114880, Note_off_c, 1, 55, 0
2, 114880, Note_off_c, 1, 57, 0
2, 114880, Note_off_c, 1, 60, 0
2, 114880, Note_off_c, 1, 67, 0
2, 114880, Note_on_c, 1, 68, 127
2, 114880, Note_on_c, 1, 72, 127
2, 114880, Note_on_c, 1, 78, 127
2, 114880, Note_on_c, 1, 90, 127
2, 114880, Note_on_c, 1, 99, 127
2, 114920, Note_on_c, 1, 48, 127
2, 114920, Note_off_c, 1, 68, 0
2, 114920, Note_off_c, 1, 72, 0
2, 114920, Note_on_c, 1, 81, 127
2, 114920, Note_on_c, 1, 87, 127
2, 114920, Note_off_c, 1, 99, 0
2, 114960, Note_off_c, 1, 48, 0
2, 114960, Note_on_c, 1, 52, 127
2, 114960, Note_on_c, 1, 58, 127
2, 114960, Note_on_c, 1, 60, 127
2, 114960, Note_off_c, 1, 78, 0
2, 114960, Note_off_c, 1, 87, 0
2, 114960, Note_off_c, 1, 90, 0
2, 114960, Note_on_c, 1, 93, 127
2, 115000, Note_on_c, 1, 31, 127
2, 115000, Note_on_c, 1, 43, 127
2, 115000, Note_off_c, 1, 52, 0
2, 115000, Note_off_c, 1, 58, 0
2, 115000, Note_off_c, 1, 60, 0
2, 115000, Note_on_c, 1, 62, 127
2, 115000, Note_on_c, 1, 67, 127
2, 115000, Note_on_c, 1, 72, 127
2, 115000, Note_off_c, 1, 81, 0
2, 115000, Note_off_c, 1, 93, 0
2, 115040, Note_off_c, 1, 31, 0
2, 115040, Note_off_c, 1, 43, 0
2, 115040, Note_on_c, 1, 53, 127
2, 115040, Note_on_c, 1, 55, 127
2, 115040, Note_off_c, 1, 62, 0
2, 115040, Note_off_c, 1, 67, 0
2, 115040, Note_on_c, 1, 69, 127
2, 115040, Note_on_c, 1, 71, 127
2, 115040, Note_off_c, 1, 72, 0
2, 115080, Note_on_c, 1, 48, 127
2, 115080, Note_on_c, 1, 59, 127
2, 115080, Note_on_c, 1, 67, 127
2, 115080, Note_off_c, 1, 69, 0
2, 115080, Note_off_c, 1, 71, 0
2, 115120, Note_on_c, 1, 35, 127
2, 115120, Note_on_c, 1, 38, 127
2, 115120, Note_on_c, 1, 47, 127
2, 115120, Note_off_c, 1, 48, 0
2, 115120, Note_off_c, 1, 53, 0
2, 115120, Note_off_c, 1, 55, 0
2, 115120, Note_off_c, 1, 59, 0
2, 115160, Note_off_c, 1, 35, 0
2, 115160, Note_off_c, 1, 38, 0
2, 115160, Note_off_c, 1, 47, 0
2, 115160, Note_off_c, 1, 67, 0
2, 115200, Note_on_c, 1, 70, 127
2, 115200, Note_on_c, 1, 74, 127
2, 115200, Note_on_c, 1, 79, 127
2, 115200, Note_on_c, 1, 82, 127
2, 115200, Note_on_c, 1, 86, 127
2, 115200, Note_on_c, 1, 91, 127
2, 115760, Note_off_c, 1, 70, 0
2, 115760, Note_off_c, 1, 74, 0
2, 115760, Note_off_c, 1, 79, 0
2, 115760, Note_off_c, 1, 82, 0
2, 115760, Note_off_c, 1, 86, 0
2, 115760, Note_off_c, 1, 91, 0
2, 115800, Note_on_c, 1, 61, 127
2, 115840, Note_on_c, 1, 60, 127
2, 115840, Note_off_c, 1, 61, 0
2, 116000, Note_off_c, 1, 60, 0
2, 116040, Note_on_c, 1, 60, 127
2, 116200, Note_off_c, 1, 60, 0
2, 116240, Note_on_c, 1, 38, 127
2, 116240, Note_on_c, 1, 46, 127
2, 116240, Note_on_c, 1, 62, 127
2, 116240, Note_on_c, 1, 74, 127
2, 116280, Note_off_c, 1, 46, 0
2, 116280, Note_off_c, 1, 62, 0
2, 116280, Note_off_c, 1, 74, 0
2, 116440, Note_on_c, 1, 50, 127
2, 116440, Note_on_c, 1, 55, 127
2, 116440, Note_on_c, 1, 59, 127
2, 116440, Note_on_c, 1, 62, 127
2, 116440, Note_on_c, 1, 67, 127
2, 116440, Note_on_c, 1, 71, 127
2, 116440, Note_on_c, 1, 74, 127
2, 116440, Note_on_c, 1, 79, 127
2, 116800, Note_off_c, 1, 50, 0
2, 116800, Note_off_c, 1, 55, 0
2, 116800, Note_off_c, 1, 59, 0
2, 116800, Note_off_c, 1, 62, 0
2, 116800, Note_off_c, 1, 67, 0
2, 116800, Note_off_c, 1, 71, 0
2, 116800, Note_off_c, 1, 74, 0
2, 116800, Note_off_c, 1, 79, 0
2, 116840, Note_off_c, 1, 38, 0
2, 116840, Note_on_c, 1, 49, 127
2, 116840, Note_on_c, 1, 54, 127
2, 116840, Note_on_c, 1, 57, 127
2, 116840, Note_on_c, 1, 73, 127
2, 117200, Note_off_c, 1, 49, 0
2, 117200, Note_on_c, 1, 50, 127
2, 117200, Note_off_c, 1, 54, 0
2, 117200, Note_off_c, 1, 57, 0
2, 117200, Note_on_c, 1, 61, 127
2, 117200, Note_on_c, 1, 66, 127
2, 117200, Note_off_c, 1, 73, 0
2, 117240, Note_on_c, 1, 32, 127
2, 117240, Note_off_c, 1, 50, 0
2, 117240, Note_on_c, 1, 52, 127
2, 117240, Note_on_c, 1, 55, 127
2, 117240, Note_on_c, 1, 58, 127
2, 117240, Note_off_c, 1, 61, 0
2, 117240, Note_off_c, 1, 66, 0
2, 117280, Note_off_c, 1, 32, 0
2, 117280, Note_on_c, 1, 51, 127
2, 117280, Note_off_c, 1, 52, 0
2, 117280, Note_off_c, 1, 55, 0
2, 117280, Note_on_c, 1, 56, 127
2, 117280, Note_off_c, 1, 58, 0
2, 117280, Note_on_c, 1, 59, 127
2, 117280, Note_on_c, 1, 62, 127
2, 117280, Note_on_c, 1, 68, 127
2, 117320, Note_on_c, 1, 44, 127
2, 117320, Note_off_c, 1, 51, 0
2, 117320, Note_off_c, 1, 56, 0
2, 117320, Note_off_c, 1, 59, 0
2, 117320, Note_on_c, 1, 61, 127
2, 117320, Note_off_c, 1, 62, 0
2, 117320, Note_on_c, 1, 64, 127
2, 117320, Note_on_c, 1, 67, 127
2, 117320, Note_off_c, 1, 68, 0
2, 117320, Note_on_c, 1, 69, 127
2, 117320, Note_on_c, 1, 73, 127
2, 117360, Note_off_c, 1, 44, 0
2, 117360, Note_on_c, 1, 46, 127
2, 117360, Note_on_c, 1, 53, 127
2, 117360, Note_on_c, 1, 60, 127
2, 117360, Note_off_c, 1, 61, 0
2, 117360, Note_on_c, 1, 63, 127
2, 117360, Note_off_c, 1, 64, 0
2, 117360, Note_off_c, 1, 67, 0
2, 117360, Note_off_c, 1, 69, 0
2, 117360, Note_on_c, 1, 72, 127
2, 117360, Note_off_c, 1, 73, 0
2, 117400, Note_on_c, 1, 35, 127
2, 117400, Note_on_c, 1, 42, 127
2, 117400, Note_off_c, 1, 46, 0
2, 117400, Note_off_c, 1, 53, 0
2, 117400, Note_off_c, 1, 60, 0
2, 117400, Note_off_c, 1, 63, 0
2, 117400, Note_off_c, 1, 72, 0
2, 117400, Note_on_c, 1, 89, 127
2, 117440, Note_off_c, 1, 35, 0
2, 117440, Note_off_c, 1, 42, 0
2, 117440, Note_on_c, 1, 44, 127
2, 117440, Note_on_c, 1, 47, 127
2, 117440, Note_on_c, 1, 60, 127
2, 117440, Note_on_c, 1, 65, 127
2, 117440, Note_on_c, 1, 72, 127
2, 117440, Note_off_c, 1, 89, 0
2, 117480, Note_off_c, 1, 44, 0
2, 117480, Note_off_c, 1, 47, 0
2, 117480, Note_off_c, 1, 60, 0
2, 117480, Note_off_c, 1, 65, 0
2, 117480, Note_on_c, 1, 70, 127
2, 117480, Note_off_c, 1, 72, 0
2, 117480, Note_on_c, 1, 77, 127
2, 117480, Note_on_c, 1, 80, 127
2, 117480, Note_on_c, 1, 84, 127
2, 117520, Note_on_c, 1, 31, 127
2, 117520, Note_on_c, 1, 39, 127
2, 117520, Note_on_c, 1, 43, 127
2, 117520, Note_on_c, 1, 63, 127
2, 117520, Note_off_c, 1, 70, 0
2, 117520, Note_off_c, 1, 77, 0
2, 117520, Note_off_c, 1, 80, 0
2, 117520, Note_off_c, 1, 84, 0
2, 117560, Note_off_c, 1, 31, 0
2, 117560, Note_off_c, 1, 39, 0
2, 117560, Note_off_c, 1, 43, 0
2, 117560, Note_on_c, 1, 55, 127
2, 117560, Note_on_c, 1, 58, 127
2, 117560, Note_off_c, 1, 63, 0
2, 117560, Note_on_c, 1, 72, 127
2, 117560, Note_on_c, 1, 79, 127
2, 117560, Note_on_c, 1, 84, 127
2, 117600, Note_off_c, 1, 55, 0
2, 117600, Note_off_c, 1, 58, 0
2, 117600, Note_off_c, 1, 72, 0
2, 117600, Note_off_c, 1, 79, 0
2, 117600, Note_off_c, 1, 84, 0
2, 117640, Note_on_c, 1, 37, 127
2, 117640, Note_on_c, 1, 43, 127
2, 117640, Note_on_c, 1, 61, 127
2, 117640, Note_on_c, 1, 65, 127
2, 117680, Note_off_c, 1, 37, 0
2, 117680, Note_off_c, 1, 43, 0
2, 117680, Note_on_c, 1, 46, 127
2, 117680, Note_on_c, 1, 57, 127
2, 117680, Note_off_c, 1, 61, 0
2, 117680, Note_on_c, 1, 63, 127
2, 117720, Note_on_c, 1, 37, 127
2, 117720, Note_on_c, 1, 43, 127
2, 117720, Note_off_c, 1, 46, 0
2, 117720, Note_off_c, 1, 57, 0
2, 117720, Note_on_c, 1, 61, 127
2, 117720, Note_off_c, 1, 63, 0
2, 117960, Note_off_c, 1, 37, 0
2, 117960, Note_off_c, 1, 43, 0
2, 117960, Note_off_c, 1, 61, 0
2, 117960, Note_off_c, 1, 65, 0
2, 118000, Note_on_c, 1, 37, 127
2, 118000, Note_on_c, 1, 43, 127
2, 118000, Note_on_c, 1, 61, 127
2, 118000, Note_on_c, 1, 65, 127
2, 118040, Note_off_c, 1, 37, 0
2, 118040, Note_off_c, 1, 43, 0
2, 118040, Note_on_c, 1, 49, 127
2, 118040, Note_on_c, 1, 54, 127
2, 118040, Note_off_c, 1, 61, 0
2, 118040, Note_off_c, 1, 65, 0
2, 118040, Note_on_c, 1, 69, 127
2, 118040, Note_on_c, 1, 73, 127
2, 118040, Note_on_c, 1, 78, 127
2, 118080, Note_off_c, 1, 54, 0
2, 118080, Note_on_c, 1, 57, 127
2, 118080, Note_on_c, 1, 66, 127
2, 118080, Note_off_c, 1, 73, 0
2, 118080, Note_on_c, 1, 74, 127
2, 118080, Note_off_c, 1, 78, 0
2, 118840, Note_off_c, 1, 49, 0
2, 118840, Note_off_c, 1, 57, 0
2, 118840, Note_off_c, 1, 66, 0
2, 118840, Note_off_c, 1, 69, 0
2, 118840, Note_off_c, 1, 74, 0
2, 118880, Note_on_c, 1, 54, 127
2, 118880, Note_on_c, 1, 59, 127
2, 118880, Note_on_c, 1, 71, 127
2, 118880, Note_on_c, 1, 74, 127
2, 118880, Note_on_c, 1, 80, 127
2, 118920, Note_on_c, 1, 35, 127
2, 118920, Note_on_c, 1, 40, 127
2, 118920, Note_on_c, 1, 47, 127
2, 118920, Note_off_c, 1, 54, 0
2, 118920, Note_off_c, 1, 59, 0
2, 118920, Note_off_c, 1, 71, 0
2, 118920, Note_off_c, 1, 80, 0
2, 118960, Note_off_c, 1, 35, 0
2, 118960, Note_off_c, 1, 40, 0
2, 118960, Note_off_c, 1, 47, 0
2, 118960, Note_on_c, 1, 69, 127
2, 118960, Note_on_c, 1, 72, 127
2, 118960, Note_off_c, 1, 74, 0
2, 118960, Note_on_c, 1, 77, 127
2, 118960, Note_on_c, 1, 81, 127
2, 118960, Note_on_c, 1, 87, 127
2, 118960, Note_on_c, 1, 96, 127
2, 118960, Note_on_c, 1, 99, 127
2, 119000, Note_on_c, 1, 60, 127
2, 119000, Note_on_c, 1, 63, 127
2, 119000, Note_on_c, 1, 65, 127
2, 119000, Note_off_c, 1, 69, 0
2, 119000, Note_on_c, 1, 70, 127
2, 119000, Note_off_c, 1, 72, 0
2, 119000, Note_off_c, 1, 81, 0
2, 119000, Note_on_c, 1, 82, 127
2, 119000, Note_off_c, 1, 87, 0
2, 119000, Note_off_c, 1, 96, 0
2, 119000, Note_off_c, 1, 99, 0
2, 119040, Note_on_c, 1, 36, 127
2, 119040, Note_on_c, 1, 48, 127
2, 119040, Note_off_c, 1, 60, 0
2, 119040, Note_off_c, 1, 63, 0
2, 119040, Note_off_c, 1, 65, 0
2, 119040, Note_on_c, 1, 68, 127
2, 119040, Note_off_c, 1, 70, 0
2, 119040, Note_on_c, 1, 75, 127
2, 119040, Note_off_c, 1, 77, 0
2, 119040, Note_off_c, 1, 82, 0
2, 119080, Note_off_c, 1, 36, 0
2, 119080, Note_off_c, 1, 48, 0
2, 119080, Note_on_c, 1, 49, 127
2, 119080, Note_on_c, 1, 57, 127
2, 119080, Note_off_c, 1, 68, 0
2, 119080, Note_on_c, 1, 69, 127
2, 119120, Note_on_c, 1, 36, 127
2, 119120, Note_on_c, 1, 48, 127
2, 119120, Note_off_c, 1, 49, 0
2, 119120, Note_on_c, 1, 55, 127
2, 119120, Note_off_c, 1, 57, 0
2, 119120, Note_on_c, 1, 60, 127
2, 119120, Note_on_c, 1, 65, 127
2, 119120, Note_off_c, 1, 69, 0
2, 119120, Note_off_c, 1, 75, 0
2, 119160, Note_off_c, 1, 36, 0
2, 119160, Note_on_c, 1, 53, 127
2, 119160, Note_off_c, 1, 55, 0
2, 119160, Note_on_c, 1, 57, 127
2, 119160, Note_off_c, 1, 65, 0
2, 119160, Note_on_c, 1, 77, 127
2, 119160, Note_on_c, 1, 81, 127
2, 119160, Note_on_c, 1, 84, 127
2, 119200, Note_off_c, 1, 48, 0
2, 119200, Note_off_c, 1, 53, 0
2, 119200, Note_off_c, 1, 60, 0
2, 119200, Note_on_c, 1, 69, 127
2, 119200, Note_off_c, 1, 77, 0
2, 119200, Note_off_c, 1, 84, 0
2, 119200, Note_on_c, 1, 85, 127
2, 119200, Note_on_c, 1, 90, 127
2, 119200, Note_on_c, 1, 93, 127
2, 119240, Note_on_c, 1, 45, 127
2, 119240, Note_on_c, 1, 54, 127
2, 119240, Note_on_c, 1, 63, 127
2, 119240, Note_on_c, 1, 66, 127
2, 119240, Note_off_c, 1, 69, 0
2, 119240, Note_on_c, 1, 75, 127
2, 119240, Note_off_c, 1, 81, 0
2, 119240, Note_off_c, 1, 85, 0
2, 119240, Note_off_c, 1, 90, 0
2, 119240, Note_off_c, 1, 93, 0
2, 119280, Note_off_c, 1, 45, 0
2, 119280, Note_off_c, 1, 54, 0
2, 119280, Note_on_c, 1, 56, 127
2, 119280, Note_off_c, 1, 57, 0
2, 119280, Note_on_c, 1, 87, 127
2, 119320, Note_on_c, 1, 52, 127
2, 119320, Note_off_c, 1, 56, 0
2, 119320, Note_on_c, 1, 57, 127
2, 119320, Note_on_c, 1, 59, 127
2, 119320, Note_off_c, 1, 63, 0
2, 119320, Note_off_c, 1, 66, 0
2, 119320, Note_on_c, 1, 67, 127
2, 119320, Note_off_c, 1, 75, 0
2, 119320, Note_off_c, 1, 87, 0
2, 119640, Note_off_c, 1, 52, 0
2, 119640, Note_off_c, 1, 57, 0
2, 119640, Note_off_c, 1, 59, 0
2, 119640, Note_off_c, 1, 67, 0
2, 119680, Note_on_c, 1, 50, 127
2, 119680, Note_on_c, 1, 57, 127
2, 119680, Note_on_c, 1, 60, 127
2, 119680, Note_on_c, 1, 65, 127
2, 119680, Note_on_c, 1, 69, 127
2, 119680, Note_on_c, 1, 72, 127
2, 119680, Note_on_c, 1, 77, 127
2, 119720, Note_on_c, 1, 35, 127
2, 119720, Note_on_c, 1, 38, 127
2, 119720, Note_on_c, 1, 41, 127
2, 119720, Note_off_c, 1, 50, 0
2, 119720, Note_off_c, 1, 57, 0
2, 119720, Note_off_c, 1, 60, 0
2, 119720, Note_off_c, 1, 65, 0
2, 119720, Note_off_c, 1, 69, 0
2, 119720, Note_off_c, 1, 72, 0
2, 119720, Note_off_c, 1, 77, 0
2, 119760, Note_off_c, 1, 35, 0
2, 119760, Note_off_c, 1, 38, 0
2, 119760, Note_off_c, 1, 41, 0
2, 119760, Note_on_c, 1, 46, 127
2, 119760, Note_on_c, 1, 53, 127
2, 119760, Note_on_c, 1, 56, 127
2, 119760, Note_on_c, 1, 65, 127
2, 119760, Note_on_c, 1, 68, 127
2, 119760, Note_on_c, 1, 74, 127
2, 119800, Note_off_c, 1, 46, 0
2, 119800, Note_off_c, 1, 53, 0
2, 119800, Note_off_c, 1, 56, 0
2, 119800, Note_off_c, 1, 65, 0
2, 119800, Note_off_c, 1, 68, 0
2, 119800, Note_on_c, 1, 72, 127
2, 119800, Note_off_c, 1, 74, 0
2, 119800, Note_on_c, 1, 77, 127
2, 119800, Note_on_c, 1, 89, 127
2, 119800, Note_on_c, 1, 93, 127
2, 119840, Note_on_c, 1, 55, 127
2, 119840, Note_on_c, 1, 61, 127
2, 119840, Note_on_c, 1, 63, 127
2, 119840, Note_on_c, 1, 70, 127
2, 119840, Note_off_c, 1, 72, 0
2, 119840, Note_off_c, 1, 77, 0
2, 119840, Note_off_c, 1, 89, 0
2, 119840, Note_off_c, 1, 93, 0
2, 119840, Note_on_c, 1, 94, 127
2, 119840, Note_on_c, 1, 97, 127
2, 119880, Note_on_c, 1, 37, 127
2, 119880, Note_off_c, 1, 55, 0
2, 119880, Note_off_c, 1, 61, 0
2, 119880, Note_off_c, 1, 63, 0
2, 119880, Note_on_c, 1, 64, 127
2, 119880, Note_off_c, 1, 70, 0
2, 119880, Note_on_c, 1, 76, 127
2, 119880, Note_off_c, 1, 94, 0
2, 119880, Note_off_c, 1, 97, 0
2, 119920, Note_off_c, 1, 37, 0
2, 119920, Note_off_c, 1, 64, 0
2, 119920, Note_on_c, 1, 65, 127
2, 119920, Note_on_c, 1, 71, 127
2, 119920, Note_on_c, 1, 75, 127
2, 119920, Note_off_c, 1, 76, 0
2, 119920, Note_on_c, 1, 89, 127
2, 119920, Note_on_c, 1, 92, 127
2, 119920, Note_on_c, 1, 101, 127
2, 119960, Note_on_c, 1, 32, 127
2, 119960, Note_on_c, 1, 44, 127
2, 119960, Note_off_c, 1, 65, 0
2, 119960, Note_off_c, 1, 71, 0
2, 119960, Note_off_c, 1, 75, 0
2, 119960, Note_on_c, 1, 78, 127
2, 119960, Note_on_c, 1, 84, 127
2, 119960, Note_off_c, 1, 92, 0
2, 119960, Note_off_c, 1, 101, 0
2, 120000, Note_off_c, 1, 32, 0
2, 120000, Note_off_c, 1, 44, 0
2, 120000, Note_off_c, 1, 78, 0
2, 120000, Note_off_c, 1, 84, 0
2, 120000, Note_off_c, 1, 89, 0
2, 120040, End_track
3, 0, Start_track
3, 0, Title_t, "MIDI"
3, 1536, End_track
0, 0, End_of_file
