0, 0, Header, 1, 3, 192
1, 0, Start_track
1, 0, Time_signature, 4, 2, 24, 8
1, 0, Tempo, 500000
1, 120040, End_track
2, 0, Start_track
2, 0, Text_t, "random instrument: random person i dunno whatev"
2, 0, Title_t, "Track 1"
2, 0, Note_on_c, 1, 58, 127
2, 0, Note_on_c, 1, 66, 127
2, 0, Note_on_c, 1, 78, 127
2, 0, Note_on_c, 1, 82, 127
2, 0, Note_on_c, 1, 90, 127
2, 40, Note_on_c, 1, 46, 127
2, 40, Note_off_c, 1, 66, 0
2, 40, Note_off_c, 1, 78, 0
2, 40, Note_on_c, 1, 86, 127
2, 40, Note_off_c, 1, 90, 0
2, 40, Note_on_c, 1, 94, 127
2, 80, Note_off_c, 1, 46, 0
2, 80, Note_off_c, 1, 58, 0
2, 80, Note_off_c, 1, 82, 0
2, 80, Note_off_c, 1, 86, 0
2, 80, Note_off_c, 1, 94, 0
2, 120, Note_on_c, 1, 47, 127
2, 120, Note_on_c, 1, 58, 127
2, 120, Note_on_c, 1, 62, 127
2, 120, Note_on_c, 1, 66, 127
2, 120, Note_on_c, 1, 70, 127
2, 120, Note_on_c, 1, 74, 127
2, 160, Note_off_c, 1, 47, 0
2, 160, Note_off_c, 1, 62, 0
2, 160, Note_off_c, 1, 70, 0
2, 160, Note_off_c, 1, 74, 0
2, 160, Note_on_c, 1, 78, 127
2, 160, Note_on_c, 1, 82, 127
2, 160, Note_on_c, 1, 90, 127
2, 360, Note_off_c, 1, 58, 0
2, 360, Note_off_c, 1, 66, 0
2, 360, Note_off_c, 1, 78, 0
2, 360, Note_off_c, 1, 82, 0
2, 360, Note_off_c, 1, 90, 0
2, 400, Note_on_c, 1, 51, 127
2, 400, Note_on_c, 1, 59, 127
2, 400, Note_on_c, 1, 71, 127
2, 400, Note_on_c, 1, 75, 127
2, 840, Note_off_c, 1, 51, 0
2, 840, Note_off_c, 1, 59, 0
2, 840, Note_off_c, 1, 71, 0
2, 840, Note_off_c, 1, 75, 0
2, 880, Note_on_c, 1, 49, 127
2, 880, Note_on_c, 1, 55, 127
2, 880, Note_on_c, 1, 57, 127
2, 880, Note_on_c, 1, 61, 127
2, 880, Note_on_c, 1, 64, 127
2, 880, Note_on_c, 1, 69, 127
2, 1200, Note_off_c, 1, 49, 0
2, 1200, Note_off_c, 1, 55, 0
2, 1200, Note_off_c, 1, 57, 0
2, 1200, Note_off_c, 1, 61, 0
2, 1200, Note_off_c, 1, 64, 0
2, 1200, Note_off_c, 1, 69, 0
2, 1240, Note_on_c, 1, 51, 127
2, 1240, Note_on_c, 1, 57, 127
2, 1240, Note_on_c, 1, 63, 127
2, 1240, Note_on_c, 1, 75, 127
2, 1800, Note_off_c, 1, 51, 0
2, 1800, Note_off_c, 1, 57, 0
2, 1800, Note_off_c, 1, 63, 0
2, 1800, Note_off_c, 1, 75, 0
2, 1840, Note_on_c, 1, 63, 127
2, 1840, Note_on_c, 1, 72, 127
2, 1840, Note_on_c, 1, 91, 127
2, 2120, Note_off_c, 1, 63, 0
2, 2120, Note_off_c, 1, 72, 0
2, 2120, Note_off_c, 1, 91, 0
2, 2160, Note_on_c, 1, 63, 127
2, 2160, Note_on_c, 1, 72, 127
2, 2160, Note_on_c, 1, 91, 127
2, 2240, Note_off_c, 1, 63, 0
2, 2240, Note_off_c, 1, 72, 0
2, 2240, Note_off_c, 1, 91, 0
2, 2280, Note_on_c, 1, 63, 127
2, 2280, Note_on_c, 1, 72, 127
2, 2280, Note_on_c, 1, 91, 127
2, 2640, Note_off_c, 1, 63, 0
2, 2640, Note_off_c, 1, 72, 0
2, 2640, Note_off_c, 1, 91, 0
2, 2680, Note_on_c, 1, 38, 127
2, 2680, Note_on_c, 1, 67, 127
2, 2680, Note_on_c, 1, 83, 127
2, 2680, Note_on_c, 1, 86, 127
2, 2680, Note_on_c, 1, 90, 127
2, 2720, Note_off_c, 1, 38, 0
2, 2720, Note_on_c, 1, 52, 127
2, 2720, Note_on_c, 1, 57, 127
2, 2720, Note_on_c, 1, 61, 127
2, 2720, Note_on_c, 1, 64, 127
2, 2720, Note_off_c, 1, 67, 0
2, 2720, Note_on_c, 1, 69, 127
2, 2720, Note_on_c, 1, 73, 127
2, 2720, Note_on_c, 1, 76, 127
2, 2720, Note_on_c, 1, 81, 127
2, 2720, Note_off_c, 1, 83, 0
2, 2720, Note_off_c, 1, 86, 0
2, 2720, Note_off_c, 1, 90, 0
2, 3040, Note_off_c, 1, 52, 0
2, 3040, Note_off_c, 1, 57, 0
2, 3040, Note_off_c, 1, 61, 0
2, 3040, Note_off_c, 1, 64, 0
2, 3040, Note_off_c, 1, 69, 0
2, 3040, Note_off_c, 1, 73, 0
2, 3040, Note_off_c, 1, 76, 0
2, 3040, Note_off_c, 1, 81, 0
2, 3080, Note_on_c, 1, 47, 127
2, 3080, Note_on_c, 1, 57, 127
2, 3080, Note_on_c, 1, 63, 127
2, 3080, Note_on_c, 1, 67, 127
2, 3440, Note_off_c, 1, 47, 0
2, 3440, Note_off_c, 1, 57, 0
2, 3440, Note_off_c, 1, 63, 0
2, 3440, Note_off_c, 1, 67, 0
2, 3480, Note_on_c, 1, 50, 127
2, 3480, Note_on_c, 1, 58, 127
2, 3480, Note_on_c, 1, 68, 127
2, 3480, Note_on_c, 1, 77, 127
2, 4240, Note_off_c, 1, 50, 0
2, 4240, Note_off_c, 1, 58, 0
2, 4240, Note_off_c, 1, 68, 0
2, 4240, Note_off_c, 1, 77, 0
2, 4320, Note_on_c, 1, 51, 127
2, 4320, Note_on_c, 1, 58, 127
2, 4320, Note_on_c, 1, 67, 127
2, 4320, Note_on_c, 1, 75, 127
2, 5040, Note_off_c, 1, 51, 0
2, 5040, Note_off_c, 1, 58, 0
2, 5040, Note_off_c, 1, 67, 0
2, 5040, Note_off_c, 1, 75, 0
2, 5120, Note_on_c, 1, 51, 127
2, 5120, Note_on_c, 1, 58, 127
2, 5120, Note_on_c, 1, 67, 127
2, 5120, Note_on_c, 1, 75, 127
2, 6280, Note_off_c, 1, 51, 0
2, 6280, Note_off_c, 1, 58, 0
2, 6280, Note_off_c, 1, 67, 0
2, 6280, Note_off_c, 1, 75, 0
2, 6360, Note_on_c, 1, 51, 127
2, 6360, Note_on_c, 1, 58, 127
2, 6360, Note_on_c, 1, 67, 127
2, 6360, Note_on_c, 1, 75, 127
2, 7680, Note_off_c, 1, 51, 0
2, 7680, Note_off_c, 1, 58, 0
2, 7680, Note_off_c, 1, 67, 0
2, 7680, Note_off_c, 1, 75, 0
2, 9640, Note_on_c, 1, 53, 127
2, 9640, Note_on_c, 1, 57, 127
2, 9640, Note_on_c, 1, 59, 127
2, 9640, Note_on_c, 1, 62, 127
2, 9680, Note_on_c, 1, 38, 127
2, 9680, Note_on_c, 1, 44, 127
2, 9680, Note_off_c, 1, 53, 0
2, 9680, Note_off_c, 1, 59, 0
2, 9680, Note_on_c, 1, 69, 127
2, 9720, Note_on_c, 1, 37, 127
2, 9720, Note_off_c, 1, 38, 0
2, 9720, Note_off_c, 1, 57, 0
2, 9720, Note_off_c, 1, 62, 0
2, 9720, Note_on_c, 1, 68, 127
2, 9720, Note_off_c, 1, 69, 0
2, 9720, Note_on_c, 1, 89, 127
2, 9760, Note_off_c, 1, 37, 0
2, 9760, Note_on_c, 1, 38, 127
2, 9760, Note_on_c, 1, 57, 127
2, 9760, Note_on_c, 1, 62, 127
2, 9760, Note_off_c, 1, 68, 0
2, 9760, Note_on_c, 1, 69, 127
2, 9760, Note_off_c, 1, 89, 0
2, 10000, Note_off_c, 1, 38, 0
2, 10000, Note_off_c, 1, 44, 0
2, 10000, Note_off_c, 1, 57, 0
2, 10000, Note_off_c, 1, 62, 0
2, 10000, Note_off_c, 1, 69, 0
2, 10040, Note_on_c, 1, 42, 127
2, 10040, Note_on_c, 1, 49, 127
2, 10560, Note_off_c, 1, 42, 0
2, 10560, Note_off_c, 1, 49, 0
2, 10680, Note_on_c, 1, 42, 127
2, 10680, Note_on_c, 1, 49, 127
2, 11200, Note_off_c, 1, 42, 0
2, 11200, Note_off_c, 1, 49, 0
2, 11280, Note_on_c, 1, 42, 127
2, 11280, Note_on_c, 1, 49, 127
2, 11840, Note_off_c, 1, 42, 0
2, 11840, Note_off_c, 1, 49, 0
2, 11880, Note_on_c, 1, 42, 127
2, 11880, Note_on_c, 1, 49, 127
2, 12440, Note_off_c, 1, 42, 0
2, 12440, Note_off_c, 1, 49, 0
2, 13320, Note_on_c, 1, 42, 127
2, 13320, Note_on_c, 1, 54, 127
2, 13880, Note_off_c, 1, 42, 0
2, 13880, Note_off_c, 1, 54, 0
2, 13920, Note_on_c, 1, 49, 127
2, 13920, Note_on_c, 1, 53, 127
2, 13920, Note_on_c, 1, 56, 127
2, 13920, Note_on_c, 1, 59, 127
2, 13920, Note_on_c, 1, 61, 127
2, 15040, Note_off_c, 1, 49, 0
2, 15040, Note_off_c, 1, 53, 0
2, 15040, Note_off_c, 1, 56, 0
2, 15040, Note_off_c, 1, 59, 0
2, 15040, Note_off_c, 1, 61, 0
2, 15080, Note_on_c, 1, 49, 127
2, 15080, Note_on_c, 1, 53, 127
2, 15080, Note_on_c, 1, 56, 127
2, 15080, Note_on_c, 1, 59, 127
2, 15080, Note_on_c, 1, 61, 127
2, 15120, Note_off_c, 1, 49, 0
2, 15120, Note_off_c, 1, 53, 0
2, 15120, Note_off_c, 1, 56, 0
2, 15120, Note_off_c, 1, 59, 0
2, 15120, Note_off_c, 1, 61, 0
2, 15160, Note_on_c, 1, 49, 127
2, 15160, Note_on_c, 1, 53, 127
2, 15160, Note_on_c, 1, 56, 127
2, 15160, Note_on_c, 1, 59, 127
2, 15160, Note_on_c, 1, 61, 127
2, 15920, Note_off_c, 1, 53, 0
2, 15920, Note_off_c, 1, 56, 0
2, 15920, Note_off_c, 1, 59, 0
2, 15960, Note_on_c, 1, 53, 127
2, 15960, Note_on_c, 1, 56, 127
2, 15960, Note_on_c, 1, 59, 127
2, 17120, Note_off_c, 1, 53, 0
2, 17120, Note_off_c, 1, 56, 0
2, 17120, Note_off_c, 1, 59, 0
2, 17160, Note_on_c, 1, 53, 127
2, 17160, Note_on_c, 1, 56, 127
2, 17160, Note_on_c, 1, 59, 127
2, 17400, Note_off_c, 1, 49, 0
2, 17400, Note_off_c, 1, 53, 0
2, 17400, Note_off_c, 1, 56, 0
2, 17400, Note_off_c, 1, 59, 0
2, 17400, Note_off_c, 1, 61, 0
2, 17440, Note_on_c, 1, 49, 127
2, 17440, Note_on_c, 1, 53, 127
2, 17440, Note_on_c, 1, 56, 127
2, 17440, Note_on_c, 1, 59, 127
2, 17440, Note_on_c, 1, 61, 127
2, 17560, Note_off_c, 1, 53, 0
2, 17560, Note_off_c, 1, 56, 0
2, 17560, Note_off_c, 1, 59, 0
2, 17600, Note_on_c, 1, 53, 127
2, 17600, Note_on_c, 1, 56, 127
2, 17600, Note_on_c, 1, 59, 127
2, 19120, Note_on_c, 1, 44, 127
2, 19120, Note_off_c, 1, 49, 0
2, 19120, Note_off_c, 1, 53, 0
2, 19120, Note_on_c, 1, 54, 127
2, 19120, Note_off_c, 1, 56, 0
2, 19120, Note_off_c, 1, 59, 0
2, 19120, Note_on_c, 1, 60, 127
2, 19120, Note_off_c, 1, 61, 0
2, 19120, Note_on_c, 1, 63, 127
2, 19120, Note_on_c, 1, 68, 127
2, 19160, Note_off_c, 1, 44, 0
2, 19160, Note_off_c, 1, 54, 0
2, 19160, Note_off_c, 1, 60, 0
2, 19160, Note_off_c, 1, 63, 0
2, 19160, Note_off_c, 1, 68, 0
2, 19200, Note_on_c, 1, 46, 127
2, 19200, Note_on_c, 1, 50, 127
2, 19200, Note_on_c, 1, 56, 127
2, 19200, Note_on_c, 1, 65, 127
2, 19560, Note_off_c, 1, 46, 0
2, 19560, Note_off_c, 1, 50, 0
2, 19560, Note_off_c, 1, 56, 0
2, 19560, Note_off_c, 1, 65, 0
2, 19600, Note_on_c, 1, 46, 127
2, 19600, Note_on_c, 1, 50, 127
2, 19600, Note_on_c, 1, 56, 127
2, 19600, Note_on_c, 1, 65, 127
2, 20000, Note_off_c, 1, 46, 0
2, 20000, Note_off_c, 1, 50, 0
2, 20000, Note_off_c, 1, 56, 0
2, 20000, Note_off_c, 1, 65, 0
2, 20040, Note_on_c, 1, 25, 127
2, 20040, Note_on_c, 1, 37, 127
2, 20040, Note_on_c, 1, 65, 127
2, 20040, Note_on_c, 1, 73, 127
2, 20080, Note_off_c, 1, 25, 0
2, 20080, Note_off_c, 1, 37, 0
2, 20080, Note_on_c, 1, 49, 127
2, 20080, Note_on_c, 1, 53, 127
2, 20080, Note_on_c, 1, 59, 127
2, 20080, Note_off_c, 1, 65, 0
2, 20080, Note_off_c, 1, 73, 0
2, 20080, Note_on_c, 1, 91, 127
2, 20120, Note_off_c, 1, 49, 0
2, 20120, Note_on_c, 1, 50, 127
2, 20120, Note_on_c, 1, 52, 127
2, 20120, Note_off_c, 1, 53, 0
2, 20120, Note_on_c, 1, 55, 127
2, 20120, Note_on_c, 1, 57, 127
2, 20120, Note_off_c, 1, 59, 0
2, 20120, Note_on_c, 1, 61, 127
2, 20120, Note_on_c, 1, 66, 127
2, 20120, Note_off_c, 1, 91, 0
2, 20160, Note_off_c, 1, 50, 0
2, 20160, Note_off_c, 1, 52, 0
2, 20160, Note_on_c, 1, 53, 127
2, 20160, Note_off_c, 1, 55, 0
2, 20160, Note_off_c, 1, 57, 0
2, 20160, Note_on_c, 1, 58, 127
2, 20160, Note_off_c, 1, 61, 0
2, 20160, Note_on_c, 1, 65, 127
2, 20160, Note_off_c, 1, 66, 0
2, 20160, Note_on_c, 1, 74, 127
2, 20160, Note_on_c, 1, 79, 127
2, 20200, Note_on_c, 1, 47, 127
2, 20200, Note_on_c, 1, 50, 127
2, 20200, Note_off_c, 1, 53, 0
2, 20200, Note_on_c, 1, 55, 127
2, 20200, Note_off_c, 1, 58, 0
2, 20200, Note_on_c, 1, 59, 127
2, 20200, Note_off_c, 1, 65, 0
2, 20200, Note_off_c, 1, 74, 0
2, 20200, Note_off_c, 1, 79, 0
2, 20200, Note_on_c, 1, 89, 127
2, 20240, Note_off_c, 1, 47, 0
2, 20240, Note_off_c, 1, 50, 0
2, 20240, Note_off_c, 1, 55, 0
2, 20240, Note_on_c, 1, 58, 127
2, 20240, Note_off_c, 1, 59, 0
2, 20240, Note_on_c, 1, 63, 127
2, 20240, Note_on_c, 1, 73, 127
2, 20240, Note_on_c, 1, 87, 127
2, 20240, Note_off_c, 1, 89, 0
2, 20280, Note_off_c, 1, 58, 0
2, 20280, Note_off_c, 1, 63, 0
2, 20280, Note_on_c, 1, 64, 127
2, 20280, Note_on_c, 1, 66, 127
2, 20280, Note_on_c, 1, 69, 127
2, 20280, Note_off_c, 1, 73, 0
2, 20280, Note_on_c, 1, 78, 127
2, 20280, Note_off_c, 1, 87, 0
2, 21000, Note_on_c, 1, 46, 127
2, 21000, Note_on_c, 1, 50, 127
2, 21000, Note_on_c, 1, 53, 127
2, 21000, Note_off_c, 1, 64, 0
2, 21000, Note_on_c, 1, 65, 127
2, 21000, Note_off_c, 1, 66, 0
2, 21000, Note_off_c, 1, 69, 0
2, 21000, Note_on_c, 1, 70, 127
2, 21000, Note_on_c, 1, 74, 127
2, 21000, Note_off_c, 1, 78, 0
2, 21040, Note_off_c, 1, 46, 0
2, 21040, Note_off_c, 1, 50, 0
2, 21040, Note_off_c, 1, 53, 0
2, 21040, Note_on_c, 1, 61, 127
2, 21040, Note_on_c, 1, 64, 127
2, 21040, Note_off_c, 1, 65, 0
2, 21040, Note_on_c, 1, 67, 127
2, 21040, Note_on_c, 1, 69, 127
2, 21040, Note_off_c, 1, 70, 0
2, 21040, Note_off_c, 1, 74, 0
2, 21040, Note_on_c, 1, 76, 127
2, 21040, Note_on_c, 1, 79, 127
2, 21040, Note_on_c, 1, 81, 127
2, 21080, Note_on_c, 1, 35, 127
2, 21080, Note_on_c, 1, 45, 127
2, 21080, Note_off_c, 1, 61, 0
2, 21080, Note_off_c, 1, 64, 0
2, 21080, Note_off_c, 1, 67, 0
2, 21080, Note_off_c, 1, 69, 0
2, 21080, Note_off_c, 1, 76, 0
2, 21080, Note_off_c, 1, 79, 0
2, 21080, Note_off_c, 1, 81, 0
2, 21120, Note_off_c, 1, 35, 0
2, 21120, Note_off_c, 1, 45, 0
2, 21120, Note_on_c, 1, 76, 127
2, 21120, Note_on_c, 1, 83, 127
2, 21120, Note_on_c, 1, 90, 127
2, 21160, Note_on_c, 1, 46, 127
2, 21160, Note_on_c, 1, 55, 127
2, 21160, Note_on_c, 1, 58, 127
2, 21160, Note_on_c, 1, 63, 127
2, 21160, Note_on_c, 1, 67, 127
2, 21160, Note_on_c, 1, 70, 127
2, 21160, Note_off_c, 1, 76, 0
2, 21160, Note_off_c, 1, 83, 0
2, 21160, Note_off_c, 1, 90, 0
2, 21200, Note_off_c, 1, 46, 0
2, 21200, Note_off_c, 1, 55, 0
2, 21200, Note_off_c, 1, 58, 0
2, 21200, Note_off_c, 1, 63, 0
2, 21200, Note_off_c, 1, 67, 0
2, 21200, Note_off_c, 1, 70, 0
2, 21240, Note_on_c, 1, 52, 127
2, 21240, Note_on_c, 1, 56, 127
2, 21240, Note_on_c, 1, 64, 127
2, 21240, Note_on_c, 1, 76, 127
2, 21640, Note_off_c, 1, 52, 0
2, 21640, Note_off_c, 1, 56, 0
2, 21640, Note_off_c, 1, 64, 0
2, 21640, Note_off_c, 1, 76, 0
2, 21680, Note_on_c, 1, 52, 127
2, 21680, Note_on_c, 1, 56, 127
2, 21680, Note_on_c, 1, 64, 127
2, 21680, Note_on_c, 1, 76, 127
2, 23640, Note_off_c, 1, 52, 0
2, 23640, Note_off_c, 1, 56, 0
2, 23640, Note_off_c, 1, 64, 0
2, 23640, Note_off_c, 1, 76, 0
2, 23680, Note_on_c, 1, 52, 127
2, 23680, Note_on_c, 1, 56, 127
2, 23680, Note_on_c, 1, 64, 127
2, 23680, Note_on_c, 1, 76, 127
2, 26160, Note_off_c, 1, 52, 0
2, 26160, Note_off_c, 1, 56, 0
2, 26160, Note_off_c, 1, 64, 0
2, 26160, Note_off_c, 1, 76, 0
2, 26200, Note_on_c, 1, 52, 127
2, 26200, Note_on_c, 1, 56, 127
2, 26200, Note_on_c, 1, 64, 127
2, 26200, Note_on_c, 1, 76, 127
2, 29480, Note_off_c, 1, 52, 0
2, 29480, Note_off_c, 1, 56, 0
2, 29480, Note_off_c, 1, 64, 0
2, 29480, Note_off_c, 1, 76, 0
2, 29520, Note_on_c, 1, 52, 127
2, 29520, Note_on_c, 1, 56, 127
2, 29520, Note_on_c, 1, 64, 127
2, 29520, Note_on_c, 1, 76, 127
2, 32360, Note_off_c, 1, 52, 0
2, 32360, Note_off_c, 1, 56, 0
2, 32360, Note_off_c, 1, 64, 0
2, 32360, Note_off_c, 1, 76, 0
2, 32400, Note_on_c, 1, 52, 127
2, 32400, Note_on_c, 1, 56, 127
2, 32400, Note_on_c, 1, 64, 127
2, 32400, Note_on_c, 1, 76, 127
2, 35160, Note_off_c, 1, 52, 0
2, 35160, Note_off_c, 1, 56, 0
2, 35160, Note_off_c, 1, 64, 0
2, 35160, Note_off_c, 1, 76, 0
2, 35200, Note_on_c, 1, 52, 127
2, 35200, Note_on_c, 1, 56, 127
2, 35200, Note_on_c, 1, 64, 127
2, 35200, Note_on_c, 1, 76, 127
2, 37400, Note_off_c, 1, 52, 0
2, 37400, Note_off_c, 1, 56, 0
2, 37400, Note_off_c, 1, 64, 0
2, 37400, Note_off_c, 1, 76, 0
2, 37440, Note_on_c, 1, 40, 127
2, 37440, Note_on_c, 1, 52, 127
2, 37440, Note_on_c, 1, 71, 127
2, 37440, Note_on_c, 1, 76, 127
2, 37440, Note_on_c, 1, 80, 127
2, 37840, Note_off_c, 1, 40, 0
2, 37840, Note_off_c, 1, 52, 0
2, 37840, Note_off_c, 1, 71, 0
2, 37840, Note_off_c, 1, 76, 0
2, 37840, Note_off_c, 1, 80, 0
2, 37880, Note_on_c, 1, 40, 127
2, 37880, Note_on_c, 1, 52, 127
2, 37880, Note_on_c, 1, 71, 127
2, 37880, Note_on_c, 1, 76, 127
2, 37880, Note_on_c, 1, 80, 127
2, 38240, Note_off_c, 1, 40, 0
2, 38240, Note_off_c, 1, 52, 0
2, 38240, Note_off_c, 1, 71, 0
2, 38240, Note_off_c, 1, 76, 0
2, 38240, Note_off_c, 1, 80, 0
2, 38320, Note_on_c, 1, 40, 127
2, 38320, Note_on_c, 1, 52, 127
2, 38320, Note_on_c, 1, 83, 127
2, 38880, Note_off_c, 1, 40, 0
2, 38880, Note_off_c, 1, 52, 0
2, 38880, Note_off_c, 1, 83, 0
2, 38920, Note_on_c, 1, 41, 127
2, 38920, Note_on_c, 1, 53, 127
2, 38920, Note_on_c, 1, 81, 127
2, 40160, Note_off_c, 1, 41, 0
2, 40160, Note_off_c, 1, 53, 0
2, 40160, Note_off_c, 1, 81, 0
2, 40200, Note_on_c, 1, 41, 127
2, 40200, Note_on_c, 1, 53, 127
2, 40200, Note_on_c, 1, 81, 127
2, 42520, Note_off_c, 1, 41, 0
2, 42520, Note_off_c, 1, 53, 0
2, 42520, Note_off_c, 1, 81, 0
2, 42560, Note_on_c, 1, 41, 127
2, 42560, Note_on_c, 1, 53, 127
2, 42560, Note_on_c, 1, 81, 127
2, 43760, Note_off_c, 1, 41, 0
2, 43760, Note_off_c, 1, 53, 0
2, 43800, Note_on_c, 1, 41, 127
2, 44160, Note_off_c, 1, 41, 0
2, 44160, Note_off_c, 1, 81, 0
2, 44200, Note_on_c, 1, 48, 127
2, 44200, Note_on_c, 1, 81, 127
2, 44560, Note_off_c, 1, 48, 0
2, 44600, Note_on_c, 1, 52, 127
2, 44800, Note_off_c, 1, 52, 0
2, 44800, Note_off_c, 1, 81, 0
2, 44840, Note_on_c, 1, 52, 127
2, 44840, Note_on_c, 1, 81, 127
2, 45000, Note_off_c, 1, 52, 0
2, 45040, Note_on_c, 1, 60, 127
2, 45400, Note_off_c, 1, 60, 0
2, 45440, Note_on_c, 1, 41, 127
2, 45800, Note_off_c, 1, 41, 0
2, 45840, Note_on_c, 1, 48, 127
2, 46200, Note_off_c, 1, 48, 0
2, 46240, Note_on_c, 1, 53, 127
2, 46600, Note_off_c, 1, 53, 0
2, 46640, Note_on_c, 1, 63, 127
2, 47000, Note_off_c, 1, 63, 0
2, 47040, Note_off_c, 1, 81, 0
2, 47080, Note_on_c, 1, 53, 127
2, 47080, Note_on_c, 1, 81, 127
2, 47440, Note_off_c, 1, 53, 0
2, 47480, Note_on_c, 1, 53, 127
2, 47840, Note_off_c, 1, 53, 0
2, 47880, Note_on_c, 1, 60, 127
2, 48240, Note_off_c, 1, 60, 0
2, 48240, Note_off_c, 1, 81, 0
2, 48280, Note_on_c, 1, 48, 127
2, 48280, Note_on_c, 1, 79, 127
2, 48640, Note_off_c, 1, 48, 0
2, 48680, Note_on_c, 1, 58, 127
2, 48680, Note_off_c, 1, 79, 0
2, 48680, Note_on_c, 1, 82, 127
2, 49040, Note_off_c, 1, 58, 0
2, 49040, Note_off_c, 1, 82, 0
2, 49080, Note_on_c, 1, 53, 127
2, 49080, Note_on_c, 1, 71, 127
2, 49440, Note_off_c, 1, 53, 0
2, 49440, Note_off_c, 1, 71, 0
2, 49480, Note_on_c, 1, 71, 127
2, 49520, Note_on_c, 1, 55, 127
2, 49880, Note_off_c, 1, 55, 0
2, 49880, Note_off_c, 1, 71, 0
2, 49920, Note_on_c, 1, 50, 127
2, 49920, Note_on_c, 1, 66, 127
2, 50320, Note_on_c, 1, 60, 127
2, 50680, Note_off_c, 1, 50, 0
2, 50680, Note_off_c, 1, 60, 0
2, 50680, Note_off_c, 1, 66, 0
2, 50720, Note_on_c, 1, 43, 127
2, 50720, Note_on_c, 1, 72, 127
2, 51440, Note_off_c, 1, 43, 0
2, 51440, Note_off_c, 1, 72, 0
2, 51480, Note_on_c, 1, 43, 127
2, 51480, Note_on_c, 1, 72, 127
2, 51520, Note_off_c, 1, 43, 0
2, 51560, Note_on_c, 1, 43, 127
2, 52320, Note_off_c, 1, 43, 0
2, 52360, Note_on_c, 1, 52, 127
2, 52720, Note_off_c, 1, 52, 0
2, 52720, Note_off_c, 1, 72, 0
2, 52760, Note_on_c, 1, 39, 127
2, 52760, Note_on_c, 1, 63, 127
2, 53120, Note_off_c, 1, 39, 0
2, 53120, Note_off_c, 1, 63, 0
2, 53160, Note_on_c, 1, 48, 127
2, 53520, Note_off_c, 1, 48, 0
2, 53560, Note_on_c, 1, 43, 127
2, 53760, Note_off_c, 1, 43, 0
2, 53800, Note_on_c, 1, 43, 127
2, 53960, Note_off_c, 1, 43, 0
2, 54000, Note_on_c, 1, 49, 127
2, 54360, Note_off_c, 1, 49, 0
2, 54400, Note_on_c, 1, 36, 127
2, 54760, Note_off_c, 1, 36, 0
2, 59520, Note_on_c, 1, 79, 127
2, 59760, Note_off_c, 1, 79, 0
2, 59800, Note_on_c, 1, 80, 127
2, 60080, Note_off_c, 1, 80, 0
2, 60120, Note_on_c, 1, 55, 127
2, 60120, Note_on_c, 1, 57, 127
2, 60120, Note_on_c, 1, 73, 127
2, 60480, Note_off_c, 1, 57, 0
2, 60480, Note_off_c, 1, 73, 0
2, 60520, Note_on_c, 1, 57, 127
2, 60520, Note_on_c, 1, 73, 127
2, 60880, Note_off_c, 1, 57, 0
2, 60880, Note_off_c, 1, 73, 0
2, 60920, Note_on_c, 1, 57, 127
2, 60920, Note_on_c, 1, 73, 127
2, 61280, Note_off_c, 1, 57, 0
2, 61280, Note_off_c, 1, 73, 0
2, 61320, Note_on_c, 1, 41, 127
2, 61320, Note_on_c, 1, 47, 127
2, 61320, Note_on_c, 1, 53, 127
2, 61320, Note_off_c, 1, 55, 0
2, 61320, Note_on_c, 1, 80, 127
2, 61320, Note_on_c, 1, 86, 127
2, 61320, Note_on_c, 1, 92, 127
2, 61680, Note_off_c, 1, 41, 0
2, 61680, Note_off_c, 1, 47, 0
2, 61680, Note_off_c, 1, 53, 0
2, 61680, Note_off_c, 1, 80, 0
2, 61680, Note_off_c, 1, 86, 0
2, 61680, Note_off_c, 1, 92, 0
2, 61720, Note_on_c, 1, 41, 127
2, 61720, Note_on_c, 1, 47, 127
2, 61720, Note_on_c, 1, 53, 127
2, 61720, Note_on_c, 1, 80, 127
2, 61720, Note_on_c, 1, 86, 127
2, 61720, Note_on_c, 1, 92, 127
2, 62120, Note_off_c, 1, 41, 0
2, 62120, Note_off_c, 1, 47, 0
2, 62120, Note_off_c, 1, 53, 0
2, 62120, Note_off_c, 1, 80, 0
2, 62120, Note_off_c, 1, 86, 0
2, 62120, Note_off_c, 1, 92, 0
2, 62160, Note_on_c, 1, 68, 127
2, 62160, Note_on_c, 1, 75, 127
2, 62160, Note_on_c, 1, 77, 127
2, 62160, Note_on_c, 1, 80, 127
2, 62920, Note_off_c, 1, 68, 0
2, 62920, Note_off_c, 1, 75, 0
2, 62920, Note_off_c, 1, 77, 0
2, 62920, Note_off_c, 1, 80, 0
2, 62960, Note_on_c, 1, 39, 127
2, 62960, Note_on_c, 1, 51, 127
2, 62960, Note_on_c, 1, 58, 127
2, 63320, Note_off_c, 1, 58, 0
2, 63360, Note_on_c, 1, 61, 127
2, 63720, Note_off_c, 1, 39, 0
2, 63720, Note_off_c, 1, 51, 0
2, 63720, Note_off_c, 1, 61, 0
2, 63760, Note_on_c, 1, 39, 127
2, 63880, Note_off_c, 1, 39, 0
2, 63920, Note_on_c, 1, 39, 127
2, 64160, Note_off_c, 1, 39, 0
2, 64200, Note_on_c, 1, 39, 127
2, 64560, Note_off_c, 1, 39, 0
2, 64600, Note_on_c, 1, 46, 127
2, 64600, Note_on_c, 1, 58, 127
2, 64600, Note_on_c, 1, 67, 127
2, 64600, Note_on_c, 1, 70, 127
2, 65360, Note_off_c, 1, 46, 0
2, 65360, Note_off_c, 1, 58, 0
2, 65360, Note_off_c, 1, 67, 0
2, 65360, Note_off_c, 1, 70, 0
2, 65400, Note_on_c, 1, 44, 127
2, 65800, Note_on_c, 1, 63, 127
2, 65800, Note_on_c, 1, 72, 127
2, 66040, Note_off_c, 1, 44, 0
2, 66040, Note_off_c, 1, 63, 0
2, 66040, Note_off_c, 1, 72, 0
2, 66080, Note_on_c, 1, 44, 127
2, 66080, Note_on_c, 1, 63, 127
2, 66080, Note_on_c, 1, 72, 127
2, 66240, Note_off_c, 1, 63, 0
2, 66240, Note_off_c, 1, 72, 0
2, 66280, Note_on_c, 1, 63, 127
2, 66280, Note_on_c, 1, 72, 127
2, 66640, Note_off_c, 1, 63, 0
2, 66640, Note_off_c, 1, 72, 0
2, 67040, Note_off_c, 1, 44, 0
2, 67080, Note_on_c, 1, 44, 127
2, 67440, Note_off_c, 1, 44, 0
2, 67480, Note_on_c, 1, 43, 127
2, 67840, Note_off_c, 1, 43, 0
2, 67880, Note_on_c, 1, 44, 127
2, 68240, Note_off_c, 1, 44, 0
2, 68280, Note_on_c, 1, 47, 127
2, 68640, Note_off_c, 1, 47, 0
2, 68720, Note_on_c, 1, 40, 127
2, 69080, Note_off_c, 1, 40, 0
2, 69120, Note_on_c, 1, 46, 127
2, 69480, Note_off_c, 1, 46, 0
2, 69520, Note_on_c, 1, 37, 127
2, 69880, Note_off_c, 1, 37, 0
2, 69920, Note_on_c, 1, 32, 127
2, 70680, Note_off_c, 1, 32, 0
2, 70760, Note_on_c, 1, 39, 127
2, 71040, Note_off_c, 1, 39, 0
2, 71080, Note_on_c, 1, 39, 127
2, 71120, Note_off_c, 1, 39, 0
2, 71160, Note_on_c, 1, 39, 127
2, 71560, Note_off_c, 1, 39, 0
2, 71600, Note_on_c, 1, 48, 127
2, 71960, Note_off_c, 1, 48, 0
2, 72000, Note_on_c, 1, 42, 127
2, 72360, Note_off_c, 1, 42, 0
2, 72400, Note_on_c, 1, 39, 127
2, 72760, Note_off_c, 1, 39, 0
2, 72800, Note_on_c, 1, 39, 127
2, 72800, Note_on_c, 1, 61, 127
2, 73160, Note_off_c, 1, 39, 0
2, 73160, Note_off_c, 1, 61, 0
2, 73200, Note_on_c, 1, 54, 127
2, 73200, Note_on_c, 1, 60, 127
2, 73400, Note_off_c, 1, 54, 0
2, 73400, Note_off_c, 1, 60, 0
2, 73440, Note_on_c, 1, 54, 127
2, 73440, Note_on_c, 1, 60, 127
2, 73600, Note_off_c, 1, 54, 0
2, 73600, Note_on_c, 1, 56, 127
2, 73600, Note_off_c, 1, 60, 0
2, 73640, Note_on_c, 1, 63, 127
2, 74000, Note_off_c, 1, 56, 0
2, 74000, Note_off_c, 1, 63, 0
2, 74040, Note_on_c, 1, 54, 127
2, 74040, Note_on_c, 1, 63, 127
2, 74400, Note_off_c, 1, 54, 0
2, 74400, Note_off_c, 1, 63, 0
2, 74440, Note_on_c, 1, 45, 127
2, 74440, Note_on_c, 1, 61, 127
2, 74800, Note_off_c, 1, 45, 0
2, 74800, Note_off_c, 1, 61, 0
2, 74840, Note_on_c, 1, 52, 127
2, 74840, Note_on_c, 1, 56, 127
2, 75200, Note_off_c, 1, 52, 0
2, 75200, Note_off_c, 1, 56, 0
2, 75240, Note_on_c, 1, 46, 127
2, 75240, Note_on_c, 1, 62, 127
2, 75600, Note_off_c, 1, 46, 0
2, 75600, Note_off_c, 1, 62, 0
2, 75680, Note_on_c, 1, 44, 127
2, 75680, Note_on_c, 1, 60, 127
2, 75680, Note_on_c, 1, 63, 127
2, 76040, Note_off_c, 1, 44, 0
2, 76040, Note_off_c, 1, 60, 0
2, 76040, Note_off_c, 1, 63, 0
2, 76040, Note_on_c, 1, 64, 127
2, 76080, Note_on_c, 1, 49, 127
2, 76440, Note_off_c, 1, 49, 0
2, 76440, Note_off_c, 1, 64, 0
2, 76480, Note_on_c, 1, 51, 127
2, 76480, Note_on_c, 1, 67, 127
2, 76840, Note_off_c, 1, 51, 0
2, 76840, Note_off_c, 1, 67, 0
2, 76880, Note_on_c, 1, 58, 127
2, 76880, Note_on_c, 1, 66, 127
2, 77240, Note_off_c, 1, 58, 0
2, 77240, Note_off_c, 1, 66, 0
2, 77280, Note_on_c, 1, 54, 127
2, 77280, Note_on_c, 1, 63, 127
2, 77640, Note_off_c, 1, 54, 0
2, 77640, Note_off_c, 1, 63, 0
2, 77680, Note_on_c, 1, 52, 127
2, 77680, Note_on_c, 1, 68, 127
2, 78040, Note_off_c, 1, 52, 0
2, 78040, Note_off_c, 1, 68, 0
2, 78120, Note_on_c, 1, 34, 127
2, 78120, Note_on_c, 1, 46, 127
2, 78120, Note_on_c, 1, 58, 127
2, 79680, Note_off_c, 1, 34, 0
2, 79680, Note_off_c, 1, 46, 0
2, 79680, Note_off_c, 1, 58, 0
2, 79720, Note_on_c, 1, 34, 127
2, 79720, Note_on_c, 1, 46, 127
2, 79720, Note_on_c, 1, 58, 127
2, 80480, Note_off_c, 1, 58, 0
2, 80520, Note_on_c, 1, 50, 127
2, 80720, Note_off_c, 1, 34, 0
2, 80720, Note_off_c, 1, 46, 0
2, 80720, Note_off_c, 1, 50, 0
2, 80760, Note_on_c, 1, 34, 127
2, 80760, Note_on_c, 1, 46, 127
2, 80760, Note_on_c, 1, 50, 127
2, 82800, Note_off_c, 1, 34, 0
2, 82800, Note_off_c, 1, 46, 0
2, 82800, Note_off_c, 1, 50, 0
2, 82840, Note_on_c, 1, 34, 127
2, 82840, Note_on_c, 1, 46, 127
2, 82840, Note_on_c, 1, 50, 127
2, 83400, Note_off_c, 1, 34, 0
2, 83400, Note_off_c, 1, 46, 0
2, 83400, Note_off_c, 1, 50, 0
2, 83480, Note_on_c, 1, 34, 127
2, 83480, Note_on_c, 1, 46, 127
2, 83480, Note_on_c, 1, 58, 127
2, 84840, Note_off_c, 1, 34, 0
2, 84840, Note_off_c, 1, 46, 0
2, 84840, Note_off_c, 1, 58, 0
2, 86960, Note_on_c, 1, 32, 127
2, 86960, Note_on_c, 1, 44, 127
2, 86960, Note_on_c, 1, 63, 127
2, 87720, Note_off_c, 1, 63, 0
2, 87760, Note_on_c, 1, 54, 127
2, 89760, Note_off_c, 1, 54, 0
2, 89760, Note_on_c, 1, 60, 127
2, 90160, Note_off_c, 1, 60, 0
2, 90200, Note_off_c, 1, 32, 0
2, 90200, Note_off_c, 1, 44, 0
2, 90240, Note_on_c, 1, 32, 127
2, 90240, Note_on_c, 1, 44, 127
2, 92440, Note_off_c, 1, 32, 0
2, 92440, Note_off_c, 1, 44, 0
2, 92480, Note_on_c, 1, 32, 127
2, 92480, Note_on_c, 1, 44, 127
2, 93840, Note_off_c, 1, 32, 0
2, 93840, Note_off_c, 1, 44, 0
2, 93880, Note_on_c, 1, 32, 127
2, 93880, Note_on_c, 1, 44, 127
2, 94440, Note_off_c, 1, 32, 0
2, 94440, Note_off_c, 1, 44, 0
2, 98080, Note_on_c, 1, 39, 127
2, 98080, Note_on_c, 1, 51, 127
2, 98320, Note_off_c, 1, 51, 0
2, 98480, Note_off_c, 1, 39, 0
2, 99760, Note_on_c, 1, 47, 127
2, 99760, Note_on_c, 1, 75, 127
2, 100320, Note_off_c, 1, 47, 0
2, 100320, Note_off_c, 1, 75, 0
2, 100360, Note_on_c, 1, 40, 127
2, 100360, Note_on_c, 1, 64, 127
2, 100360, Note_on_c, 1, 68, 127
2, 100680, Note_on_c, 1, 47, 127
2, 100720, Note_off_c, 1, 40, 0
2, 100720, Note_on_c, 1, 41, 127
2, 100720, Note_off_c, 1, 47, 0
2, 100720, Note_off_c, 1, 64, 0
2, 100720, Note_off_c, 1, 68, 0
2, 100760, Note_on_c, 1, 40, 127
2, 100760, Note_off_c, 1, 41, 0
2, 100760, Note_on_c, 1, 64, 127
2, 100760, Note_on_c, 1, 68, 127
2, 101120, Note_off_c, 1, 64, 0
2, 101120, Note_off_c, 1, 68, 0
2, 101160, Note_on_c, 1, 59, 127
2, 101160, Note_on_c, 1, 68, 127
2, 101520, Note_off_c, 1, 59, 0
2, 101520, Note_off_c, 1, 68, 0
2, 101560, Note_on_c, 1, 66, 127
2, 101720, Note_off_c, 1, 40, 0
2, 101720, Note_off_c, 1, 66, 0
2, 101760, Note_on_c, 1, 40, 127
2, 101760, Note_on_c, 1, 66, 127
2, 103200, Note_off_c, 1, 40, 0
2, 103200, Note_off_c, 1, 66, 0
2, 103240, Note_on_c, 1, 56, 127
2, 103240, Note_on_c, 1, 59, 127
2, 103240, Note_on_c, 1, 62, 127
2, 103240, Note_on_c, 1, 65, 127
2, 103920, Note_off_c, 1, 56, 0
2, 103920, Note_off_c, 1, 59, 0
2, 103920, Note_off_c, 1, 62, 0
2, 103920, Note_off_c, 1, 65, 0
2, 103960, Note_on_c, 1, 56, 127
2, 103960, Note_on_c, 1, 59, 127
2, 103960, Note_on_c, 1, 62, 127
2, 103960, Note_on_c, 1, 65, 127
2, 104040, Note_off_c, 1, 56, 0
2, 104040, Note_off_c, 1, 59, 0
2, 104040, Note_off_c, 1, 62, 0
2, 104040, Note_off_c, 1, 65, 0
2, 104040, Note_on_c, 1, 68, 127
2, 104080, Note_on_c, 1, 61, 127
2, 104440, Note_off_c, 1, 61, 0
2, 104480, Note_on_c, 1, 63, 127
2, 104840, Note_off_c, 1, 63, 0
2, 104840, Note_off_c, 1, 68, 0
2, 104880, Note_on_c, 1, 59, 127
2, 104880, Note_on_c, 1, 66, 127
2, 105440, Note_off_c, 1, 59, 0
2, 105440, Note_off_c, 1, 66, 0
2, 105480, Note_on_c, 1, 54, 127
2, 105480, Note_on_c, 1, 59, 127
2, 105480, Note_on_c, 1, 61, 127
2, 105480, Note_on_c, 1, 69, 127
2, 105480, Note_on_c, 1, 78, 127
2, 105520, Note_on_c, 1, 27, 127
2, 105520, Note_on_c, 1, 39, 127
2, 105520, Note_off_c, 1, 54, 0
2, 105520, Note_on_c, 1, 58, 127
2, 105520, Note_off_c, 1, 59, 0
2, 105520, Note_off_c, 1, 61, 0
2, 105520, Note_on_c, 1, 63, 127
2, 105520, Note_on_c, 1, 65, 127
2, 105520, Note_off_c, 1, 69, 0
2, 105520, Note_on_c, 1, 70, 127
2, 105520, Note_off_c, 1, 78, 0
2, 105520, Note_on_c, 1, 80, 127
2, 105520, Note_on_c, 1, 94, 127
2, 105560, Note_off_c, 1, 27, 0
2, 105560, Note_off_c, 1, 39, 0
2, 105560, Note_off_c, 1, 58, 0
2, 105560, Note_off_c, 1, 65, 0
2, 105560, Note_on_c, 1, 66, 127
2, 105560, Note_on_c, 1, 69, 127
2, 105560, Note_off_c, 1, 70, 0
2, 105560, Note_on_c, 1, 71, 127
2, 105560, Note_off_c, 1, 80, 0
2, 105560, Note_on_c, 1, 92, 127
2, 105560, Note_off_c, 1, 94, 0
2, 105600, Note_on_c, 1, 55, 127
2, 105600, Note_on_c, 1, 59, 127
2, 105600, Note_on_c, 1, 60, 127
2, 105600, Note_off_c, 1, 63, 0
2, 105600, Note_off_c, 1, 66, 0
2, 105600, Note_on_c, 1, 67, 127
2, 105600, Note_off_c, 1, 69, 0
2, 105600, Note_off_c, 1, 92, 0
2, 105640, Note_on_c, 1, 52, 127
2, 105640, Note_off_c, 1, 55, 0
2, 105640, Note_off_c, 1, 60, 0
2, 105640, Note_off_c, 1, 71, 0
2, 105640, Note_on_c, 1, 95, 127
2, 105640, Note_on_c, 1, 96, 127
2, 105680, Note_on_c, 1, 41, 127
2, 105680, Note_on_c, 1, 44, 127
2, 105680, Note_off_c, 1, 52, 0
2, 105680, Note_off_c, 1, 59, 0
2, 105680, Note_off_c, 1, 67, 0
2, 105680, Note_on_c, 1, 68, 127
2, 105680, Note_off_c, 1, 95, 0
2, 105680, Note_off_c, 1, 96, 0
2, 105720, Note_off_c, 1, 44, 0
2, 105720, Note_on_c, 1, 60, 127
2, 105720, Note_on_c, 1, 65, 127
2, 105720, Note_off_c, 1, 68, 0
2, 105720, Note_on_c, 1, 70, 127
2, 105760, Note_on_c, 1, 40, 127
2, 105760, Note_off_c, 1, 41, 0
2, 105760, Note_on_c, 1, 54, 127
2, 105760, Note_off_c, 1, 60, 0
2, 105760, Note_on_c, 1, 64, 127
2, 105760, Note_off_c, 1, 65, 0
2, 105760, Note_on_c, 1, 69, 127
2, 105760, Note_off_c, 1, 70, 0
2, 105800, Note_on_c, 1, 39, 127
2, 105800, Note_off_c, 1, 40, 0
2, 105800, Note_off_c, 1, 54, 0
2, 105800, Note_off_c, 1, 64, 0
2, 105800, Note_off_c, 1, 69, 0
2, 105800, Note_on_c, 1, 80, 127
2, 105840, Note_on_c, 1, 35, 127
2, 105840, Note_off_c, 1, 39, 0
2, 105840, Note_on_c, 1, 44, 127
2, 105840, Note_on_c, 1, 47, 127
2, 105840, Note_on_c, 1, 62, 127
2, 105840, Note_on_c, 1, 64, 127
2, 105840, Note_on_c, 1, 71, 127
2, 105840, Note_on_c, 1, 75, 127
2, 105840, Note_off_c, 1, 80, 0
2, 105880, Note_off_c, 1, 35, 0
2, 105880, Note_off_c, 1, 44, 0
2, 105880, Note_on_c, 1, 46, 127
2, 105880, Note_off_c, 1, 47, 0
2, 105880, Note_off_c, 1, 62, 0
2, 105880, Note_off_c, 1, 64, 0
2, 105880, Note_off_c, 1, 71, 0
2, 105880, Note_off_c, 1, 75, 0
2, 105880, Note_on_c, 1, 86, 127
2, 105880, Note_on_c, 1, 91, 127
2, 105920, Note_on_c, 1, 35, 127
2, 105920, Note_on_c, 1, 44, 127
2, 105920, Note_off_c, 1, 46, 0
2, 105920, Note_on_c, 1, 47, 127
2, 105920, Note_on_c, 1, 62, 127
2, 105920, Note_on_c, 1, 64, 127
2, 105920, Note_on_c, 1, 71, 127
2, 105920, Note_on_c, 1, 75, 127
2, 105920, Note_off_c, 1, 86, 0
2, 105920, Note_off_c, 1, 91, 0
2, 106280, Note_off_c, 1, 35, 0
2, 106280, Note_off_c, 1, 44, 0
2, 106280, Note_off_c, 1, 47, 0
2, 106280, Note_off_c, 1, 62, 0
2, 106280, Note_off_c, 1, 64, 0
2, 106280, Note_off_c, 1, 71, 0
2, 106280, Note_off_c, 1, 75, 0
2, 106320, Note_on_c, 1, 35, 127
2, 106320, Note_on_c, 1, 44, 127
2, 106320, Note_on_c, 1, 47, 127
2, 106320, Note_on_c, 1, 62, 127
2, 106320, Note_on_c, 1, 64, 127
2, 106320, Note_on_c, 1, 71, 127
2, 106320, Note_on_c, 1, 75, 127
2, 108320, Note_off_c, 1, 35, 0
2, 108320, Note_off_c, 1, 44, 0
2, 108320, Note_off_c, 1, 47, 0
2, 108320, Note_off_c, 1, 62, 0
2, 108320, Note_off_c, 1, 64, 0
2, 108320, Note_off_c, 1, 71, 0
2, 108320, Note_off_c, 1, 75, 0
2, 108360, Note_on_c, 1, 35, 127
2, 108360, Note_on_c, 1, 44, 127
2, 108360, Note_on_c, 1, 47, 127
2, 108360, Note_on_c, 1, 62, 127
2, 108360, Note_on_c, 1, 64, 127
2, 108360, Note_on_c, 1, 71, 127
2, 108360, Note_on_c, 1, 75, 127
2, 110360, Note_off_c, 1, 35, 0
2, 110360, Note_off_c, 1, 44, 0
2, 110360, Note_off_c, 1, 47, 0
2, 110360, Note_off_c, 1, 62, 0
2, 110360, Note_off_c, 1, 64, 0
2, 110360, Note_off_c, 1, 71, 0
2, 110360, Note_off_c, 1, 75, 0
2, 110400, Note_on_c, 1, 35, 127
2, 110400, Note_on_c, 1, 44, 127
2, 110400, Note_on_c, 1, 47, 127
2, 110400, Note_on_c, 1, 62, 127
2, 110400, Note_on_c, 1, 64, 127
2, 110400, Note_on_c, 1, 71, 127
2, 110400, Note_on_c, 1, 75, 127
2, 112400, Note_off_c, 1, 35, 0
2, 112400, Note_off_c, 1, 44, 0
2, 112400, Note_off_c, 1, 47, 0
2, 112400, Note_off_c, 1, 62, 0
2, 112400, Note_off_c, 1, 64, 0
2, 112400, Note_off_c, 1, 71, 0
2, 112400, Note_off_c, 1, 75, 0
2, 112440, Note_on_c, 1, 35, 127
2, 112440, Note_on_c, 1, 44, 127
2, 112440, Note_on_c, 1, 47, 127
2, 112440, Note_on_c, 1, 62, 127
2, 112440, Note_on_c, 1, 64, 127
2, 112440, Note_on_c, 1, 71, 127
2, 112440, Note_on_c, 1, 75, 127
2, 113000, Note_off_c, 1, 35, 0
2, 113000, Note_off_c, 1, 44, 0
2, 113000, Note_off_c, 1, 47, 0
2, 113000, Note_off_c, 1, 62, 0
2, 113000, Note_off_c, 1, 64, 0
2, 113000, Note_off_c, 1, 71, 0
2, 113000, Note_off_c, 1, 75, 0
2, 115800, Note_on_c, 1, 61, 127
2, 117200, Note_off_c, 1, 61, 0
2, 117240, Note_on_c, 1, 61, 127
2, 117400, Note_off_c, 1, 61, 0
2, 117440, Note_on_c, 1, 63, 127
2, 118200, Note_off_c, 1, 63, 0
2, 118240, Note_on_c, 1, 61, 127
2, 118640, Note_on_c, 1, 59, 127
2, 118640, Note_off_c, 1, 61, 0
2, 119000, Note_off_c, 1, 59, 0
2, 119040, Note_on_c, 1, 61, 127
2, 119520, Note_off_c, 1, 61, 0
2, 119560, Note_on_c, 1, 61, 127
2, 119840, Note_off_c, 1, 61, 0
2, 119880, Note_on_c, 1, 61, 127
2, 120000, Note_off_c, 1, 61, 0
2, 120040, End_track
3, 0, Start_track
3, 0, Title_t, "MIDI"
3, 1536, End_track
0, 0, End_of_file
