0, 0, Header, 1, 3, 192
1, 0, Start_track
1, 0, Time_signature, 4, 2, 24, 8
1, 0, Tempo, 500000
1, 120040, End_track
2, 0, Start_track
2, 0, Text_t, "random instrument: random person i dunno whatev"
2, 0, Title_t, "Track 1"
2, 0, Note_on_c, 1, 58, 127
2, 0, Note_on_c, 1, 66, 127
2, 0, Note_on_c, 1, 78, 127
2, 0, Note_on_c, 1, 82, 127
2, 0, Note_on_c, 1, 90, 127
2, 40, Note_off_c, 1, 58, 0
2, 40, Note_on_c, 1, 59, 127
2, 40, Note_off_c, 1, 66, 0
2, 40, Note_on_c, 1, 74, 127
2, 40, Note_off_c, 1, 82, 0
2, 40, Note_on_c, 1, 83, 127
2, 40, Note_on_c, 1, 86, 127
2, 40, Note_off_c, 1, 90, 0
2, 80, Note_off_c, 1, 59, 0
2, 80, Note_off_c, 1, 74, 0
2, 80, Note_off_c, 1, 78, 0
2, 80, Note_off_c, 1, 83, 0
2, 80, Note_off_c, 1, 86, 0
2, 120, Note_on_c, 1, 58, 127
2, 120, Note_on_c, 1, 66, 127
2, 120, Note_on_c, 1, 78, 127
2, 120, Note_on_c, 1, 82, 127
2, 120, Note_on_c, 1, 90, 127
2, 360, Note_off_c, 1, 58, 0
2, 360, Note_off_c, 1, 66, 0
2, 360, Note_off_c, 1, 78, 0
2, 360, Note_off_c, 1, 82, 0
2, 360, Note_off_c, 1, 90, 0
2, 400, Note_on_c, 1, 51, 127
2, 400, Note_on_c, 1, 59, 127
2, 400, Note_on_c, 1, 71, 127
2, 400, Note_on_c, 1, 75, 127
2, 840, Note_off_c, 1, 51, 0
2, 840, Note_off_c, 1, 59, 0
2, 840, Note_off_c, 1, 71, 0
2, 840, Note_off_c, 1, 75, 0
2, 880, Note_on_c, 1, 44, 127
2, 880, Note_on_c, 1, 51, 127
2, 880, Note_on_c, 1, 63, 127
2, 880, Note_on_c, 1, 68, 127
2, 1640, Note_off_c, 1, 44, 0
2, 1640, Note_off_c, 1, 51, 0
2, 1640, Note_off_c, 1, 63, 0
2, 1640, Note_off_c, 1, 68, 0
2, 1680, Note_on_c, 1, 39, 127
2, 1680, Note_on_c, 1, 67, 127
2, 1680, Note_on_c, 1, 70, 127
2, 2040, Note_off_c, 1, 39, 0
2, 2040, Note_off_c, 1, 67, 0
2, 2040, Note_off_c, 1, 70, 0
2, 2080, Note_on_c, 1, 51, 127
2, 2080, Note_on_c, 1, 67, 127
2, 2280, Note_off_c, 1, 51, 0
2, 2280, Note_off_c, 1, 67, 0
2, 2360, Note_on_c, 1, 51, 127
2, 2360, Note_on_c, 1, 67, 127
2, 2520, Note_off_c, 1, 67, 0
2, 2560, Note_on_c, 1, 70, 127
2, 2760, Note_off_c, 1, 51, 0
2, 2760, Note_off_c, 1, 70, 0
2, 2800, Note_on_c, 1, 48, 127
2, 2800, Note_on_c, 1, 67, 127
2, 2800, Note_on_c, 1, 72, 127
2, 3160, Note_off_c, 1, 48, 0
2, 3160, Note_off_c, 1, 67, 0
2, 3160, Note_off_c, 1, 72, 0
2, 3200, Note_on_c, 1, 48, 127
2, 3200, Note_on_c, 1, 55, 127
2, 3200, Note_on_c, 1, 63, 127
2, 3200, Note_on_c, 1, 75, 127
2, 3960, Note_off_c, 1, 48, 0
2, 3960, Note_off_c, 1, 55, 0
2, 3960, Note_off_c, 1, 63, 0
2, 3960, Note_off_c, 1, 75, 0
2, 4000, Note_on_c, 1, 46, 127
2, 4000, Note_on_c, 1, 51, 127
2, 4000, Note_on_c, 1, 67, 127
2, 4000, Note_on_c, 1, 75, 127
2, 4000, Note_on_c, 1, 79, 127
2, 4400, Note_off_c, 1, 46, 0
2, 4400, Note_off_c, 1, 51, 0
2, 4400, Note_off_c, 1, 67, 0
2, 4400, Note_off_c, 1, 75, 0
2, 4400, Note_off_c, 1, 79, 0
2, 4480, Note_on_c, 1, 46, 127
2, 4480, Note_on_c, 1, 51, 127
2, 4480, Note_on_c, 1, 67, 127
2, 4480, Note_on_c, 1, 75, 127
2, 4480, Note_on_c, 1, 79, 127
2, 4840, Note_off_c, 1, 46, 0
2, 4840, Note_off_c, 1, 51, 0
2, 4840, Note_off_c, 1, 67, 0
2, 4840, Note_off_c, 1, 75, 0
2, 4840, Note_off_c, 1, 79, 0
2, 4880, Note_on_c, 1, 46, 127
2, 4880, Note_on_c, 1, 51, 127
2, 4880, Note_on_c, 1, 67, 127
2, 4880, Note_on_c, 1, 75, 127
2, 4880, Note_on_c, 1, 79, 127
2, 5240, Note_off_c, 1, 46, 0
2, 5240, Note_off_c, 1, 51, 0
2, 5240, Note_off_c, 1, 67, 0
2, 5240, Note_off_c, 1, 75, 0
2, 5240, Note_off_c, 1, 79, 0
2, 5280, Note_on_c, 1, 46, 127
2, 5280, Note_on_c, 1, 51, 127
2, 5280, Note_on_c, 1, 67, 127
2, 5280, Note_on_c, 1, 75, 127
2, 5280, Note_on_c, 1, 79, 127
2, 5640, Note_off_c, 1, 46, 0
2, 5640, Note_off_c, 1, 51, 0
2, 5640, Note_off_c, 1, 67, 0
2, 5640, Note_off_c, 1, 75, 0
2, 5640, Note_off_c, 1, 79, 0
2, 5680, Note_on_c, 1, 46, 127
2, 5680, Note_on_c, 1, 51, 127
2, 5680, Note_on_c, 1, 67, 127
2, 5680, Note_on_c, 1, 75, 127
2, 5680, Note_on_c, 1, 79, 127
2, 6040, Note_off_c, 1, 46, 0
2, 6040, Note_off_c, 1, 51, 0
2, 6040, Note_off_c, 1, 67, 0
2, 6040, Note_off_c, 1, 75, 0
2, 6040, Note_off_c, 1, 79, 0
2, 6080, Note_on_c, 1, 46, 127
2, 6080, Note_on_c, 1, 51, 127
2, 6080, Note_on_c, 1, 67, 127
2, 6080, Note_on_c, 1, 75, 127
2, 6080, Note_on_c, 1, 79, 127
2, 6440, Note_off_c, 1, 46, 0
2, 6440, Note_off_c, 1, 51, 0
2, 6440, Note_off_c, 1, 67, 0
2, 6440, Note_off_c, 1, 75, 0
2, 6440, Note_off_c, 1, 79, 0
2, 6480, Note_on_c, 1, 46, 127
2, 6480, Note_on_c, 1, 51, 127
2, 6480, Note_on_c, 1, 67, 127
2, 6480, Note_on_c, 1, 75, 127
2, 6480, Note_on_c, 1, 79, 127
2, 6840, Note_off_c, 1, 46, 0
2, 6840, Note_off_c, 1, 51, 0
2, 6840, Note_off_c, 1, 67, 0
2, 6840, Note_off_c, 1, 75, 0
2, 6840, Note_off_c, 1, 79, 0
2, 6920, Note_on_c, 1, 46, 127
2, 6920, Note_on_c, 1, 51, 127
2, 6920, Note_on_c, 1, 67, 127
2, 6920, Note_on_c, 1, 75, 127
2, 6920, Note_on_c, 1, 79, 127
2, 7280, Note_off_c, 1, 46, 0
2, 7280, Note_off_c, 1, 51, 0
2, 7280, Note_off_c, 1, 67, 0
2, 7280, Note_off_c, 1, 75, 0
2, 7280, Note_off_c, 1, 79, 0
2, 7320, Note_on_c, 1, 46, 127
2, 7320, Note_on_c, 1, 51, 127
2, 7320, Note_on_c, 1, 67, 127
2, 7320, Note_on_c, 1, 75, 127
2, 7320, Note_on_c, 1, 79, 127
2, 7680, Note_off_c, 1, 46, 0
2, 7680, Note_off_c, 1, 51, 0
2, 7680, Note_off_c, 1, 67, 0
2, 7680, Note_off_c, 1, 75, 0
2, 7680, Note_off_c, 1, 79, 0
2, 7720, Note_on_c, 1, 46, 127
2, 7720, Note_on_c, 1, 51, 127
2, 7720, Note_on_c, 1, 67, 127
2, 7720, Note_on_c, 1, 75, 127
2, 7720, Note_on_c, 1, 79, 127
2, 8080, Note_off_c, 1, 46, 0
2, 8080, Note_off_c, 1, 51, 0
2, 8080, Note_off_c, 1, 67, 0
2, 8080, Note_off_c, 1, 75, 0
2, 8080, Note_off_c, 1, 79, 0
2, 8120, Note_on_c, 1, 46, 127
2, 8120, Note_on_c, 1, 51, 127
2, 8120, Note_on_c, 1, 67, 127
2, 8120, Note_on_c, 1, 75, 127
2, 8120, Note_on_c, 1, 79, 127
2, 8440, Note_on_c, 1, 33, 127
2, 8440, Note_on_c, 1, 45, 127
2, 8440, Note_off_c, 1, 46, 0
2, 8440, Note_off_c, 1, 51, 0
2, 8440, Note_on_c, 1, 73, 127
2, 8440, Note_off_c, 1, 75, 0
2, 8480, Note_off_c, 1, 33, 0
2, 8480, Note_off_c, 1, 45, 0
2, 8480, Note_off_c, 1, 67, 0
2, 8480, Note_off_c, 1, 73, 0
2, 8480, Note_off_c, 1, 79, 0
2, 8520, Note_on_c, 1, 46, 127
2, 8520, Note_on_c, 1, 51, 127
2, 8520, Note_on_c, 1, 67, 127
2, 8520, Note_on_c, 1, 75, 127
2, 8520, Note_on_c, 1, 79, 127
2, 8880, Note_off_c, 1, 46, 0
2, 8880, Note_off_c, 1, 51, 0
2, 8880, Note_off_c, 1, 67, 0
2, 8880, Note_off_c, 1, 75, 0
2, 8880, Note_off_c, 1, 79, 0
2, 8920, Note_on_c, 1, 46, 127
2, 8920, Note_on_c, 1, 51, 127
2, 8920, Note_on_c, 1, 67, 127
2, 8920, Note_on_c, 1, 75, 127
2, 8920, Note_on_c, 1, 79, 127
2, 9120, Note_off_c, 1, 46, 0
2, 9120, Note_off_c, 1, 51, 0
2, 9120, Note_off_c, 1, 67, 0
2, 9120, Note_off_c, 1, 75, 0
2, 9120, Note_off_c, 1, 79, 0
2, 9160, Note_on_c, 1, 46, 127
2, 9160, Note_on_c, 1, 51, 127
2, 9160, Note_on_c, 1, 67, 127
2, 9160, Note_on_c, 1, 75, 127
2, 9160, Note_on_c, 1, 79, 127
2, 9320, Note_off_c, 1, 46, 0
2, 9320, Note_off_c, 1, 51, 0
2, 9320, Note_off_c, 1, 67, 0
2, 9320, Note_off_c, 1, 75, 0
2, 9320, Note_off_c, 1, 79, 0
2, 9360, Note_on_c, 1, 46, 127
2, 9360, Note_on_c, 1, 51, 127
2, 9360, Note_on_c, 1, 67, 127
2, 9360, Note_on_c, 1, 75, 127
2, 9360, Note_on_c, 1, 79, 127
2, 9720, Note_off_c, 1, 46, 0
2, 9720, Note_off_c, 1, 51, 0
2, 9720, Note_off_c, 1, 67, 0
2, 9720, Note_off_c, 1, 75, 0
2, 9720, Note_off_c, 1, 79, 0
2, 9760, Note_on_c, 1, 46, 127
2, 9760, Note_on_c, 1, 51, 127
2, 9760, Note_on_c, 1, 67, 127
2, 9760, Note_on_c, 1, 75, 127
2, 9760, Note_on_c, 1, 79, 127
2, 10120, Note_off_c, 1, 46, 0
2, 10120, Note_off_c, 1, 51, 0
2, 10120, Note_off_c, 1, 67, 0
2, 10120, Note_off_c, 1, 75, 0
2, 10120, Note_off_c, 1, 79, 0
2, 10160, Note_on_c, 1, 46, 127
2, 10160, Note_on_c, 1, 51, 127
2, 10160, Note_on_c, 1, 67, 127
2, 10160, Note_on_c, 1, 75, 127
2, 10160, Note_on_c, 1, 79, 127
2, 10520, Note_off_c, 1, 46, 0
2, 10520, Note_off_c, 1, 51, 0
2, 10520, Note_off_c, 1, 67, 0
2, 10520, Note_off_c, 1, 75, 0
2, 10520, Note_off_c, 1, 79, 0
2, 10560, Note_on_c, 1, 46, 127
2, 10560, Note_on_c, 1, 51, 127
2, 10560, Note_on_c, 1, 67, 127
2, 10560, Note_on_c, 1, 75, 127
2, 10560, Note_on_c, 1, 79, 127
2, 10920, Note_off_c, 1, 46, 0
2, 10920, Note_off_c, 1, 51, 0
2, 10920, Note_off_c, 1, 67, 0
2, 10920, Note_off_c, 1, 75, 0
2, 10920, Note_off_c, 1, 79, 0
2, 10960, Note_on_c, 1, 46, 127
2, 10960, Note_on_c, 1, 51, 127
2, 10960, Note_on_c, 1, 67, 127
2, 10960, Note_on_c, 1, 75, 127
2, 10960, Note_on_c, 1, 79, 127
2, 11320, Note_off_c, 1, 46, 0
2, 11320, Note_off_c, 1, 51, 0
2, 11320, Note_off_c, 1, 67, 0
2, 11320, Note_off_c, 1, 75, 0
2, 11320, Note_off_c, 1, 79, 0
2, 11400, Note_on_c, 1, 46, 127
2, 11400, Note_on_c, 1, 51, 127
2, 11400, Note_on_c, 1, 67, 127
2, 11400, Note_on_c, 1, 75, 127
2, 11400, Note_on_c, 1, 79, 127
2, 11760, Note_off_c, 1, 46, 0
2, 11760, Note_off_c, 1, 51, 0
2, 11760, Note_off_c, 1, 67, 0
2, 11760, Note_off_c, 1, 75, 0
2, 11760, Note_off_c, 1, 79, 0
2, 11800, Note_on_c, 1, 46, 127
2, 11800, Note_on_c, 1, 51, 127
2, 11800, Note_on_c, 1, 67, 127
2, 11800, Note_on_c, 1, 75, 127
2, 11800, Note_on_c, 1, 79, 127
2, 12160, Note_off_c, 1, 46, 0
2, 12160, Note_off_c, 1, 51, 0
2, 12160, Note_off_c, 1, 67, 0
2, 12160, Note_off_c, 1, 75, 0
2, 12160, Note_off_c, 1, 79, 0
2, 12200, Note_on_c, 1, 46, 127
2, 12200, Note_on_c, 1, 51, 127
2, 12200, Note_on_c, 1, 67, 127
2, 12200, Note_on_c, 1, 75, 127
2, 12200, Note_on_c, 1, 79, 127
2, 12560, Note_off_c, 1, 46, 0
2, 12560, Note_off_c, 1, 51, 0
2, 12560, Note_off_c, 1, 67, 0
2, 12560, Note_off_c, 1, 75, 0
2, 12560, Note_off_c, 1, 79, 0
2, 12600, Note_on_c, 1, 46, 127
2, 12600, Note_on_c, 1, 51, 127
2, 12600, Note_on_c, 1, 67, 127
2, 12600, Note_on_c, 1, 75, 127
2, 12600, Note_on_c, 1, 79, 127
2, 12960, Note_off_c, 1, 46, 0
2, 12960, Note_off_c, 1, 51, 0
2, 12960, Note_off_c, 1, 67, 0
2, 12960, Note_off_c, 1, 75, 0
2, 12960, Note_off_c, 1, 79, 0
2, 13000, Note_on_c, 1, 46, 127
2, 13000, Note_on_c, 1, 51, 127
2, 13000, Note_on_c, 1, 67, 127
2, 13000, Note_on_c, 1, 75, 127
2, 13000, Note_on_c, 1, 79, 127
2, 13360, Note_off_c, 1, 46, 0
2, 13360, Note_off_c, 1, 51, 0
2, 13360, Note_off_c, 1, 67, 0
2, 13360, Note_off_c, 1, 75, 0
2, 13360, Note_off_c, 1, 79, 0
2, 13400, Note_on_c, 1, 46, 127
2, 13400, Note_on_c, 1, 51, 127
2, 13400, Note_on_c, 1, 67, 127
2, 13400, Note_on_c, 1, 75, 127
2, 13400, Note_on_c, 1, 79, 127
2, 13680, Note_off_c, 1, 46, 0
2, 13680, Note_off_c, 1, 51, 0
2, 13680, Note_off_c, 1, 67, 0
2, 13680, Note_off_c, 1, 75, 0
2, 13680, Note_off_c, 1, 79, 0
2, 13720, Note_on_c, 1, 46, 127
2, 13720, Note_on_c, 1, 51, 127
2, 13720, Note_on_c, 1, 67, 127
2, 13720, Note_on_c, 1, 75, 127
2, 13720, Note_on_c, 1, 79, 127
2, 13800, Note_off_c, 1, 46, 0
2, 13800, Note_off_c, 1, 51, 0
2, 13800, Note_off_c, 1, 67, 0
2, 13800, Note_off_c, 1, 75, 0
2, 13800, Note_off_c, 1, 79, 0
2, 13840, Note_on_c, 1, 46, 127
2, 13840, Note_on_c, 1, 51, 127
2, 13840, Note_on_c, 1, 67, 127
2, 13840, Note_on_c, 1, 75, 127
2, 13840, Note_on_c, 1, 79, 127
2, 14200, Note_off_c, 1, 46, 0
2, 14200, Note_off_c, 1, 51, 0
2, 14200, Note_off_c, 1, 67, 0
2, 14200, Note_off_c, 1, 75, 0
2, 14200, Note_off_c, 1, 79, 0
2, 14240, Note_on_c, 1, 46, 127
2, 14240, Note_on_c, 1, 51, 127
2, 14240, Note_on_c, 1, 67, 127
2, 14240, Note_on_c, 1, 75, 127
2, 14240, Note_on_c, 1, 79, 127
2, 14600, Note_off_c, 1, 46, 0
2, 14600, Note_off_c, 1, 51, 0
2, 14600, Note_off_c, 1, 67, 0
2, 14600, Note_off_c, 1, 75, 0
2, 14600, Note_off_c, 1, 79, 0
2, 14640, Note_on_c, 1, 46, 127
2, 14640, Note_on_c, 1, 51, 127
2, 14640, Note_on_c, 1, 67, 127
2, 14640, Note_on_c, 1, 75, 127
2, 14640, Note_on_c, 1, 79, 127
2, 15000, Note_off_c, 1, 46, 0
2, 15000, Note_off_c, 1, 51, 0
2, 15000, Note_off_c, 1, 67, 0
2, 15000, Note_off_c, 1, 75, 0
2, 15000, Note_off_c, 1, 79, 0
2, 15040, Note_on_c, 1, 46, 127
2, 15040, Note_on_c, 1, 51, 127
2, 15040, Note_on_c, 1, 67, 127
2, 15040, Note_on_c, 1, 75, 127
2, 15040, Note_on_c, 1, 79, 127
2, 15400, Note_off_c, 1, 46, 0
2, 15400, Note_off_c, 1, 51, 0
2, 15400, Note_off_c, 1, 67, 0
2, 15400, Note_off_c, 1, 75, 0
2, 15400, Note_off_c, 1, 79, 0
2, 15440, Note_on_c, 1, 46, 127
2, 15440, Note_on_c, 1, 51, 127
2, 15440, Note_on_c, 1, 67, 127
2, 15440, Note_on_c, 1, 75, 127
2, 15440, Note_on_c, 1, 79, 127
2, 15800, Note_off_c, 1, 46, 0
2, 15800, Note_off_c, 1, 51, 0
2, 15800, Note_off_c, 1, 67, 0
2, 15800, Note_off_c, 1, 75, 0
2, 15800, Note_off_c, 1, 79, 0
2, 15880, Note_on_c, 1, 59, 127
2, 15880, Note_on_c, 1, 66, 127
2, 15880, Note_on_c, 1, 69, 127
2, 15880, Note_on_c, 1, 78, 127
2, 15880, Note_on_c, 1, 81, 127
2, 16240, Note_off_c, 1, 59, 0
2, 16240, Note_off_c, 1, 66, 0
2, 16240, Note_off_c, 1, 69, 0
2, 16240, Note_off_c, 1, 78, 0
2, 16240, Note_off_c, 1, 81, 0
2, 16280, Note_on_c, 1, 48, 127
2, 16280, Note_on_c, 1, 55, 127
2, 16280, Note_on_c, 1, 67, 127
2, 16280, Note_on_c, 1, 72, 127
2, 16280, Note_on_c, 1, 79, 127
2, 16640, Note_off_c, 1, 48, 0
2, 16640, Note_off_c, 1, 55, 0
2, 16640, Note_off_c, 1, 67, 0
2, 16640, Note_off_c, 1, 72, 0
2, 16640, Note_off_c, 1, 79, 0
2, 16680, Note_on_c, 1, 55, 127
2, 16680, Note_on_c, 1, 62, 127
2, 16680, Note_on_c, 1, 67, 127
2, 16680, Note_on_c, 1, 94, 127
2, 16720, Note_off_c, 1, 55, 0
2, 16720, Note_off_c, 1, 62, 0
2, 16720, Note_on_c, 1, 63, 127
2, 16720, Note_off_c, 1, 67, 0
2, 16720, Note_on_c, 1, 72, 127
2, 16720, Note_on_c, 1, 76, 127
2, 16720, Note_off_c, 1, 94, 0
2, 16760, Note_on_c, 1, 59, 127
2, 16760, Note_on_c, 1, 62, 127
2, 16760, Note_off_c, 1, 63, 0
2, 16760, Note_on_c, 1, 64, 127
2, 16760, Note_on_c, 1, 68, 127
2, 16760, Note_on_c, 1, 71, 127
2, 16760, Note_off_c, 1, 72, 0
2, 16760, Note_on_c, 1, 74, 127
2, 16760, Note_on_c, 1, 83, 127
2, 16800, Note_off_c, 1, 59, 0
2, 16800, Note_off_c, 1, 62, 0
2, 16800, Note_on_c, 1, 63, 127
2, 16800, Note_off_c, 1, 64, 0
2, 16800, Note_off_c, 1, 68, 0
2, 16800, Note_off_c, 1, 71, 0
2, 16800, Note_on_c, 1, 72, 127
2, 16800, Note_off_c, 1, 74, 0
2, 16800, Note_off_c, 1, 83, 0
2, 17040, Note_off_c, 1, 63, 0
2, 17040, Note_off_c, 1, 72, 0
2, 17040, Note_off_c, 1, 76, 0
2, 17080, Note_on_c, 1, 56, 127
2, 17080, Note_on_c, 1, 63, 127
2, 17080, Note_on_c, 1, 80, 127
2, 17080, Note_on_c, 1, 84, 127
2, 17400, Note_off_c, 1, 56, 0
2, 17400, Note_off_c, 1, 63, 0
2, 17400, Note_off_c, 1, 80, 0
2, 17400, Note_off_c, 1, 84, 0
2, 17480, Note_on_c, 1, 52, 127
2, 17480, Note_on_c, 1, 64, 127
2, 17480, Note_on_c, 1, 66, 127
2, 17480, Note_on_c, 1, 68, 127
2, 17520, Note_on_c, 1, 38, 127
2, 17520, Note_off_c, 1, 52, 0
2, 17520, Note_on_c, 1, 58, 127
2, 17520, Note_on_c, 1, 62, 127
2, 17520, Note_off_c, 1, 64, 0
2, 17520, Note_off_c, 1, 66, 0
2, 17520, Note_off_c, 1, 68, 0
2, 17520, Note_on_c, 1, 70, 127
2, 17560, Note_off_c, 1, 38, 0
2, 17560, Note_off_c, 1, 58, 0
2, 17560, Note_off_c, 1, 70, 0
2, 17560, Note_on_c, 1, 72, 127
2, 17560, Note_on_c, 1, 75, 127
2, 17560, Note_on_c, 1, 82, 127
2, 17600, Note_on_c, 1, 50, 127
2, 17600, Note_on_c, 1, 58, 127
2, 17600, Note_off_c, 1, 62, 0
2, 17600, Note_on_c, 1, 65, 127
2, 17600, Note_on_c, 1, 70, 127
2, 17600, Note_off_c, 1, 72, 0
2, 17600, Note_off_c, 1, 75, 0
2, 17640, Note_on_c, 1, 34, 127
2, 17640, Note_off_c, 1, 50, 0
2, 17640, Note_off_c, 1, 58, 0
2, 17640, Note_on_c, 1, 60, 127
2, 17640, Note_off_c, 1, 65, 0
2, 17640, Note_on_c, 1, 68, 127
2, 17640, Note_off_c, 1, 70, 0
2, 17640, Note_on_c, 1, 73, 127
2, 17640, Note_on_c, 1, 79, 127
2, 17640, Note_off_c, 1, 82, 0
2, 17680, Note_off_c, 1, 34, 0
2, 17680, Note_on_c, 1, 59, 127
2, 17680, Note_off_c, 1, 60, 0
2, 17680, Note_on_c, 1, 63, 127
2, 17680, Note_off_c, 1, 73, 0
2, 17720, Note_on_c, 1, 38, 127
2, 17720, Note_off_c, 1, 59, 0
2, 17720, Note_off_c, 1, 63, 0
2, 17720, Note_off_c, 1, 68, 0
2, 17720, Note_off_c, 1, 79, 0
2, 17720, Note_on_c, 1, 90, 127
2, 17720, Note_on_c, 1, 96, 127
2, 17760, Note_off_c, 1, 38, 0
2, 17760, Note_on_c, 1, 64, 127
2, 17760, Note_off_c, 1, 90, 0
2, 17760, Note_on_c, 1, 92, 127
2, 17800, Note_off_c, 1, 64, 0
2, 17800, Note_off_c, 1, 92, 0
2, 17800, Note_off_c, 1, 96, 0
2, 17920, Note_on_c, 1, 58, 127
2, 17920, Note_on_c, 1, 62, 127
2, 17920, Note_on_c, 1, 65, 127
2, 17920, Note_on_c, 1, 70, 127
2, 17920, Note_on_c, 1, 74, 127
2, 17920, Note_on_c, 1, 79, 127
2, 18280, Note_off_c, 1, 58, 0
2, 18280, Note_off_c, 1, 62, 0
2, 18280, Note_off_c, 1, 65, 0
2, 18280, Note_off_c, 1, 70, 0
2, 18280, Note_off_c, 1, 74, 0
2, 18320, Note_on_c, 1, 58, 127
2, 18320, Note_on_c, 1, 62, 127
2, 18320, Note_on_c, 1, 65, 127
2, 18320, Note_on_c, 1, 70, 127
2, 18320, Note_on_c, 1, 74, 127
2, 18640, Note_off_c, 1, 58, 0
2, 18640, Note_off_c, 1, 62, 0
2, 18640, Note_off_c, 1, 65, 0
2, 18640, Note_off_c, 1, 70, 0
2, 18640, Note_off_c, 1, 74, 0
2, 18640, Note_off_c, 1, 79, 0
2, 18640, Note_on_c, 1, 82, 127
2, 18680, Note_off_c, 1, 82, 0
2, 18720, Note_on_c, 1, 48, 127
2, 18720, Note_on_c, 1, 55, 127
2, 18720, Note_on_c, 1, 72, 127
2, 18720, Note_on_c, 1, 76, 127
2, 18720, Note_on_c, 1, 82, 127
2, 18720, Note_on_c, 1, 84, 127
2, 18760, Note_on_c, 1, 42, 127
2, 18760, Note_off_c, 1, 48, 0
2, 18760, Note_on_c, 1, 54, 127
2, 18760, Note_off_c, 1, 55, 0
2, 18760, Note_on_c, 1, 61, 127
2, 18760, Note_off_c, 1, 72, 0
2, 18760, Note_off_c, 1, 82, 0
2, 18760, Note_off_c, 1, 84, 0
2, 18760, Note_on_c, 1, 88, 127
2, 18800, Note_off_c, 1, 42, 0
2, 18800, Note_on_c, 1, 48, 127
2, 18800, Note_off_c, 1, 54, 0
2, 18800, Note_on_c, 1, 55, 127
2, 18800, Note_off_c, 1, 61, 0
2, 18800, Note_on_c, 1, 72, 127
2, 18800, Note_on_c, 1, 82, 127
2, 18800, Note_on_c, 1, 84, 127
2, 18800, Note_off_c, 1, 88, 0
2, 19000, Note_off_c, 1, 48, 0
2, 19000, Note_on_c, 1, 51, 127
2, 19000, Note_off_c, 1, 55, 0
2, 19000, Note_on_c, 1, 58, 127
2, 19000, Note_off_c, 1, 72, 0
2, 19000, Note_off_c, 1, 76, 0
2, 19000, Note_off_c, 1, 82, 0
2, 19000, Note_off_c, 1, 84, 0
2, 19000, Note_on_c, 1, 91, 127
2, 19040, Note_off_c, 1, 51, 0
2, 19040, Note_off_c, 1, 58, 0
2, 19040, Note_off_c, 1, 91, 0
2, 19080, Note_on_c, 1, 49, 127
2, 19080, Note_on_c, 1, 56, 127
2, 19080, Note_on_c, 1, 59, 127
2, 19080, Note_on_c, 1, 82, 127
2, 19120, Note_on_c, 1, 47, 127
2, 19120, Note_off_c, 1, 49, 0
2, 19120, Note_on_c, 1, 52, 127
2, 19120, Note_off_c, 1, 56, 0
2, 19120, Note_on_c, 1, 62, 127
2, 19120, Note_on_c, 1, 66, 127
2, 19120, Note_on_c, 1, 74, 127
2, 19120, Note_on_c, 1, 78, 127
2, 19120, Note_off_c, 1, 82, 0
2, 19160, Note_off_c, 1, 47, 0
2, 19160, Note_on_c, 1, 49, 127
2, 19160, Note_off_c, 1, 52, 0
2, 19160, Note_on_c, 1, 56, 127
2, 19160, Note_off_c, 1, 62, 0
2, 19160, Note_off_c, 1, 66, 0
2, 19160, Note_off_c, 1, 74, 0
2, 19160, Note_off_c, 1, 78, 0
2, 19160, Note_on_c, 1, 82, 127
2, 19440, Note_off_c, 1, 49, 0
2, 19440, Note_off_c, 1, 56, 0
2, 19440, Note_off_c, 1, 59, 0
2, 19440, Note_off_c, 1, 82, 0
2, 19480, Note_on_c, 1, 45, 127
2, 19480, Note_on_c, 1, 57, 127
2, 19480, Note_on_c, 1, 71, 127
2, 19480, Note_on_c, 1, 78, 127
2, 19480, Note_on_c, 1, 81, 127
2, 19840, Note_off_c, 1, 45, 0
2, 19840, Note_off_c, 1, 57, 0
2, 19840, Note_off_c, 1, 71, 0
2, 19840, Note_off_c, 1, 78, 0
2, 19840, Note_off_c, 1, 81, 0
2, 19920, Note_on_c, 1, 55, 127
2, 19920, Note_on_c, 1, 67, 127
2, 19920, Note_on_c, 1, 72, 127
2, 19920, Note_on_c, 1, 76, 127
2, 19920, Note_on_c, 1, 84, 127
2, 20240, Note_off_c, 1, 55, 0
2, 20240, Note_off_c, 1, 67, 0
2, 20240, Note_off_c, 1, 72, 0
2, 20240, Note_off_c, 1, 76, 0
2, 20240, Note_off_c, 1, 84, 0
2, 20320, Note_on_c, 1, 45, 127
2, 20320, Note_on_c, 1, 52, 127
2, 20320, Note_on_c, 1, 57, 127
2, 20320, Note_on_c, 1, 73, 127
2, 20320, Note_on_c, 1, 76, 127
2, 20320, Note_on_c, 1, 85, 127
2, 20680, Note_off_c, 1, 45, 0
2, 20680, Note_off_c, 1, 52, 0
2, 20680, Note_off_c, 1, 57, 0
2, 20680, Note_off_c, 1, 73, 0
2, 20680, Note_off_c, 1, 76, 0
2, 20680, Note_off_c, 1, 85, 0
2, 20720, Note_on_c, 1, 45, 127
2, 20720, Note_on_c, 1, 52, 127
2, 20720, Note_on_c, 1, 57, 127
2, 20720, Note_on_c, 1, 73, 127
2, 20720, Note_on_c, 1, 76, 127
2, 20720, Note_on_c, 1, 85, 127
2, 21080, Note_off_c, 1, 45, 0
2, 21080, Note_off_c, 1, 52, 0
2, 21080, Note_off_c, 1, 57, 0
2, 21080, Note_off_c, 1, 73, 0
2, 21080, Note_off_c, 1, 76, 0
2, 21080, Note_off_c, 1, 85, 0
2, 21120, Note_on_c, 1, 45, 127
2, 21120, Note_on_c, 1, 52, 127
2, 21120, Note_on_c, 1, 57, 127
2, 21120, Note_on_c, 1, 73, 127
2, 21120, Note_on_c, 1, 76, 127
2, 21120, Note_on_c, 1, 85, 127
2, 21480, Note_off_c, 1, 45, 0
2, 21480, Note_off_c, 1, 52, 0
2, 21480, Note_off_c, 1, 57, 0
2, 21480, Note_off_c, 1, 73, 0
2, 21480, Note_off_c, 1, 76, 0
2, 21480, Note_off_c, 1, 85, 0
2, 21520, Note_on_c, 1, 45, 127
2, 21520, Note_on_c, 1, 52, 127
2, 21520, Note_on_c, 1, 57, 127
2, 21520, Note_on_c, 1, 73, 127
2, 21520, Note_on_c, 1, 76, 127
2, 21520, Note_on_c, 1, 85, 127
2, 21880, Note_off_c, 1, 45, 0
2, 21880, Note_off_c, 1, 52, 0
2, 21880, Note_off_c, 1, 57, 0
2, 21880, Note_off_c, 1, 73, 0
2, 21880, Note_off_c, 1, 76, 0
2, 21880, Note_off_c, 1, 85, 0
2, 21920, Note_on_c, 1, 45, 127
2, 21920, Note_on_c, 1, 52, 127
2, 21920, Note_on_c, 1, 57, 127
2, 21920, Note_on_c, 1, 73, 127
2, 21920, Note_on_c, 1, 76, 127
2, 21920, Note_on_c, 1, 85, 127
2, 22280, Note_off_c, 1, 45, 0
2, 22280, Note_off_c, 1, 52, 0
2, 22280, Note_off_c, 1, 57, 0
2, 22280, Note_off_c, 1, 73, 0
2, 22280, Note_off_c, 1, 76, 0
2, 22280, Note_off_c, 1, 85, 0
2, 22360, Note_on_c, 1, 61, 127
2, 22360, Note_on_c, 1, 64, 127
2, 22360, Note_on_c, 1, 69, 127
2, 22360, Note_on_c, 1, 73, 127
2, 22360, Note_on_c, 1, 85, 127
2, 22520, Note_on_c, 1, 81, 127
2, 22520, Note_off_c, 1, 85, 0
2, 22720, Note_off_c, 1, 61, 0
2, 22720, Note_off_c, 1, 64, 0
2, 22720, Note_off_c, 1, 69, 0
2, 22720, Note_off_c, 1, 73, 0
2, 22720, Note_off_c, 1, 81, 0
2, 22760, Note_on_c, 1, 64, 127
2, 22760, Note_on_c, 1, 68, 127
2, 22760, Note_on_c, 1, 76, 127
2, 22760, Note_on_c, 1, 83, 127
2, 23000, Note_off_c, 1, 68, 0
2, 23000, Note_off_c, 1, 83, 0
2, 23120, Note_off_c, 1, 64, 0
2, 23120, Note_off_c, 1, 76, 0
2, 23160, Note_on_c, 1, 44, 127
2, 23160, Note_on_c, 1, 54, 127
2, 23160, Note_on_c, 1, 56, 127
2, 23160, Note_on_c, 1, 71, 127
2, 23160, Note_on_c, 1, 78, 127
2, 23160, Note_on_c, 1, 83, 127
2, 23520, Note_off_c, 1, 44, 0
2, 23520, Note_off_c, 1, 54, 0
2, 23520, Note_off_c, 1, 56, 0
2, 23520, Note_off_c, 1, 71, 0
2, 23520, Note_off_c, 1, 78, 0
2, 23520, Note_off_c, 1, 83, 0
2, 23560, Note_on_c, 1, 44, 127
2, 23560, Note_on_c, 1, 54, 127
2, 23560, Note_on_c, 1, 56, 127
2, 23560, Note_on_c, 1, 71, 127
2, 23560, Note_on_c, 1, 78, 127
2, 23560, Note_on_c, 1, 83, 127
2, 23920, Note_off_c, 1, 44, 0
2, 23920, Note_off_c, 1, 54, 0
2, 23920, Note_off_c, 1, 56, 0
2, 23920, Note_off_c, 1, 71, 0
2, 23920, Note_off_c, 1, 78, 0
2, 23920, Note_off_c, 1, 83, 0
2, 23960, Note_on_c, 1, 44, 127
2, 23960, Note_on_c, 1, 54, 127
2, 23960, Note_on_c, 1, 56, 127
2, 23960, Note_on_c, 1, 71, 127
2, 23960, Note_on_c, 1, 78, 127
2, 23960, Note_on_c, 1, 83, 127
2, 24280, Note_off_c, 1, 44, 0
2, 24280, Note_off_c, 1, 54, 0
2, 24280, Note_off_c, 1, 56, 0
2, 24280, Note_off_c, 1, 71, 0
2, 24280, Note_off_c, 1, 78, 0
2, 24280, Note_off_c, 1, 83, 0
2, 24400, Note_on_c, 1, 44, 127
2, 24400, Note_on_c, 1, 54, 127
2, 24400, Note_on_c, 1, 56, 127
2, 24400, Note_on_c, 1, 71, 127
2, 24400, Note_on_c, 1, 78, 127
2, 24400, Note_on_c, 1, 83, 127
2, 24720, Note_off_c, 1, 44, 0
2, 24720, Note_off_c, 1, 54, 0
2, 24720, Note_off_c, 1, 56, 0
2, 24720, Note_off_c, 1, 71, 0
2, 24720, Note_off_c, 1, 78, 0
2, 24720, Note_off_c, 1, 83, 0
2, 24760, Note_on_c, 1, 40, 127
2, 24760, Note_on_c, 1, 47, 127
2, 24760, Note_on_c, 1, 52, 127
2, 24760, Note_on_c, 1, 63, 127
2, 24760, Note_on_c, 1, 69, 127
2, 24760, Note_on_c, 1, 71, 127
2, 24760, Note_on_c, 1, 75, 127
2, 25520, Note_off_c, 1, 40, 0
2, 25520, Note_off_c, 1, 47, 0
2, 25520, Note_off_c, 1, 52, 0
2, 25520, Note_off_c, 1, 63, 0
2, 25520, Note_off_c, 1, 69, 0
2, 25520, Note_off_c, 1, 71, 0
2, 25520, Note_off_c, 1, 75, 0
2, 25560, Note_on_c, 1, 62, 127
2, 25560, Note_on_c, 1, 66, 127
2, 25560, Note_on_c, 1, 71, 127
2, 25560, Note_on_c, 1, 78, 127
2, 25560, Note_on_c, 1, 86, 127
2, 25920, Note_off_c, 1, 62, 0
2, 25920, Note_off_c, 1, 66, 0
2, 25920, Note_off_c, 1, 71, 0
2, 25920, Note_off_c, 1, 78, 0
2, 25920, Note_off_c, 1, 86, 0
2, 25960, Note_on_c, 1, 51, 127
2, 25960, Note_on_c, 1, 57, 127
2, 25960, Note_on_c, 1, 66, 127
2, 25960, Note_on_c, 1, 71, 127
2, 26160, Note_off_c, 1, 51, 0
2, 26160, Note_off_c, 1, 57, 0
2, 26160, Note_off_c, 1, 66, 0
2, 26160, Note_off_c, 1, 71, 0
2, 26200, Note_on_c, 1, 51, 127
2, 26200, Note_on_c, 1, 57, 127
2, 26200, Note_on_c, 1, 66, 127
2, 26200, Note_on_c, 1, 71, 127
2, 26320, Note_off_c, 1, 51, 0
2, 26320, Note_off_c, 1, 57, 0
2, 26320, Note_off_c, 1, 66, 0
2, 26320, Note_off_c, 1, 71, 0
2, 26360, Note_on_c, 1, 38, 127
2, 26360, Note_on_c, 1, 50, 127
2, 26360, Note_on_c, 1, 71, 127
2, 26360, Note_on_c, 1, 77, 127
2, 26360, Note_on_c, 1, 83, 127
2, 26400, Note_off_c, 1, 38, 0
2, 26400, Note_off_c, 1, 50, 0
2, 26400, Note_on_c, 1, 64, 127
2, 26400, Note_off_c, 1, 71, 0
2, 26400, Note_off_c, 1, 83, 0
2, 26400, Note_on_c, 1, 84, 127
2, 26400, Note_on_c, 1, 87, 127
2, 26400, Note_on_c, 1, 89, 127
2, 26720, Note_off_c, 1, 64, 0
2, 26720, Note_on_c, 1, 65, 127
2, 26720, Note_off_c, 1, 77, 0
2, 26720, Note_off_c, 1, 84, 0
2, 26720, Note_off_c, 1, 87, 0
2, 26720, Note_off_c, 1, 89, 0
2, 26760, Note_on_c, 1, 55, 127
2, 26760, Note_on_c, 1, 58, 127
2, 26760, Note_off_c, 1, 65, 0
2, 26760, Note_on_c, 1, 66, 127
2, 27120, Note_off_c, 1, 55, 0
2, 27120, Note_off_c, 1, 58, 0
2, 27120, Note_off_c, 1, 66, 0
2, 27160, Note_on_c, 1, 57, 127
2, 27160, Note_on_c, 1, 58, 127
2, 27160, Note_on_c, 1, 63, 127
2, 27160, Note_on_c, 1, 67, 127
2, 27200, Note_on_c, 1, 55, 127
2, 27200, Note_off_c, 1, 57, 0
2, 27200, Note_off_c, 1, 63, 0
2, 27320, Note_off_c, 1, 55, 0
2, 27320, Note_off_c, 1, 58, 0
2, 27320, Note_off_c, 1, 67, 0
2, 27360, Note_on_c, 1, 32, 127
2, 27360, Note_on_c, 1, 44, 127
2, 27360, Note_on_c, 1, 55, 127
2, 27360, Note_on_c, 1, 67, 127
2, 27400, Note_off_c, 1, 32, 0
2, 27400, Note_off_c, 1, 44, 0
2, 27400, Note_off_c, 1, 55, 0
2, 27400, Note_off_c, 1, 67, 0
2, 27560, Note_on_c, 1, 34, 127
2, 27560, Note_on_c, 1, 46, 127
2, 27560, Note_on_c, 1, 55, 127
2, 27560, Note_on_c, 1, 67, 127
2, 27920, Note_off_c, 1, 34, 0
2, 27920, Note_off_c, 1, 46, 0
2, 27920, Note_off_c, 1, 55, 0
2, 27920, Note_off_c, 1, 67, 0
2, 27960, Note_on_c, 1, 44, 127
2, 27960, Note_on_c, 1, 56, 127
2, 27960, Note_on_c, 1, 59, 127
2, 27960, Note_on_c, 1, 68, 127
2, 28280, Note_off_c, 1, 44, 0
2, 28280, Note_off_c, 1, 56, 0
2, 28280, Note_off_c, 1, 59, 0
2, 28280, Note_off_c, 1, 68, 0
2, 28400, Note_on_c, 1, 44, 127
2, 28400, Note_on_c, 1, 56, 127
2, 28400, Note_on_c, 1, 59, 127
2, 28400, Note_on_c, 1, 68, 127
2, 28760, Note_off_c, 1, 44, 0
2, 28760, Note_off_c, 1, 56, 0
2, 28760, Note_off_c, 1, 59, 0
2, 28760, Note_off_c, 1, 68, 0
2, 28800, Note_on_c, 1, 52, 127
2, 28800, Note_on_c, 1, 56, 127
2, 28800, Note_on_c, 1, 59, 127
2, 28800, Note_on_c, 1, 64, 127
2, 29160, Note_off_c, 1, 52, 0
2, 29160, Note_off_c, 1, 56, 0
2, 29160, Note_off_c, 1, 59, 0
2, 29160, Note_off_c, 1, 64, 0
2, 29200, Note_on_c, 1, 65, 127
2, 29200, Note_on_c, 1, 71, 127
2, 29200, Note_on_c, 1, 74, 127
2, 29200, Note_on_c, 1, 93, 127
2, 29560, Note_off_c, 1, 65, 0
2, 29560, Note_off_c, 1, 71, 0
2, 29560, Note_off_c, 1, 74, 0
2, 29560, Note_off_c, 1, 93, 0
2, 29600, Note_on_c, 1, 33, 127
2, 29600, Note_on_c, 1, 45, 127
2, 29600, Note_on_c, 1, 52, 127
2, 29600, Note_on_c, 1, 61, 127
2, 29600, Note_on_c, 1, 64, 127
2, 29960, Note_off_c, 1, 33, 0
2, 29960, Note_off_c, 1, 45, 0
2, 29960, Note_off_c, 1, 52, 0
2, 29960, Note_off_c, 1, 61, 0
2, 29960, Note_off_c, 1, 64, 0
2, 30000, Note_on_c, 1, 47, 127
2, 30000, Note_on_c, 1, 59, 127
2, 30000, Note_on_c, 1, 62, 127
2, 30000, Note_on_c, 1, 66, 127
2, 30000, Note_on_c, 1, 71, 127
2, 30480, Note_off_c, 1, 47, 0
2, 30480, Note_off_c, 1, 59, 0
2, 30480, Note_off_c, 1, 62, 0
2, 30480, Note_off_c, 1, 66, 0
2, 30480, Note_off_c, 1, 71, 0
2, 30520, Note_on_c, 1, 47, 127
2, 30520, Note_on_c, 1, 59, 127
2, 30520, Note_on_c, 1, 62, 127
2, 30520, Note_on_c, 1, 66, 127
2, 30520, Note_on_c, 1, 71, 127
2, 30800, Note_off_c, 1, 47, 0
2, 30800, Note_off_c, 1, 59, 0
2, 30800, Note_off_c, 1, 62, 0
2, 30800, Note_off_c, 1, 66, 0
2, 30800, Note_off_c, 1, 71, 0
2, 30840, Note_on_c, 1, 45, 127
2, 30840, Note_on_c, 1, 53, 127
2, 30840, Note_on_c, 1, 62, 127
2, 30840, Note_on_c, 1, 69, 127
2, 30840, Note_on_c, 1, 74, 127
2, 31200, Note_off_c, 1, 45, 0
2, 31200, Note_off_c, 1, 53, 0
2, 31200, Note_off_c, 1, 62, 0
2, 31200, Note_off_c, 1, 69, 0
2, 31200, Note_off_c, 1, 74, 0
2, 31240, Note_on_c, 1, 75, 127
2, 31240, Note_on_c, 1, 84, 127
2, 31240, Note_on_c, 1, 96, 127
2, 31240, Note_on_c, 1, 104, 127
2, 31280, Note_on_c, 1, 48, 127
2, 31280, Note_on_c, 1, 56, 127
2, 31280, Note_on_c, 1, 60, 127
2, 31280, Note_on_c, 1, 68, 127
2, 31280, Note_on_c, 1, 72, 127
2, 31280, Note_on_c, 1, 74, 127
2, 31280, Note_off_c, 1, 75, 0
2, 31280, Note_on_c, 1, 76, 127
2, 31280, Note_off_c, 1, 84, 0
2, 31280, Note_off_c, 1, 96, 0
2, 31280, Note_off_c, 1, 104, 0
2, 31320, Note_off_c, 1, 48, 0
2, 31320, Note_on_c, 1, 50, 127
2, 31320, Note_on_c, 1, 53, 127
2, 31320, Note_off_c, 1, 56, 0
2, 31320, Note_on_c, 1, 57, 127
2, 31320, Note_off_c, 1, 60, 0
2, 31320, Note_on_c, 1, 62, 127
2, 31320, Note_off_c, 1, 68, 0
2, 31320, Note_on_c, 1, 69, 127
2, 31320, Note_off_c, 1, 72, 0
2, 31320, Note_off_c, 1, 74, 0
2, 31320, Note_off_c, 1, 76, 0
2, 31360, Note_off_c, 1, 50, 0
2, 31360, Note_off_c, 1, 53, 0
2, 31360, Note_off_c, 1, 57, 0
2, 31360, Note_on_c, 1, 60, 127
2, 31360, Note_off_c, 1, 62, 0
2, 31360, Note_on_c, 1, 65, 127
2, 31360, Note_off_c, 1, 69, 0
2, 31360, Note_on_c, 1, 93, 127
2, 31360, Note_on_c, 1, 96, 127
2, 31400, Note_on_c, 1, 36, 127
2, 31400, Note_on_c, 1, 43, 127
2, 31400, Note_on_c, 1, 48, 127
2, 31400, Note_on_c, 1, 63, 127
2, 31400, Note_off_c, 1, 65, 0
2, 31400, Note_on_c, 1, 67, 127
2, 31400, Note_off_c, 1, 93, 0
2, 31400, Note_off_c, 1, 96, 0
2, 31440, Note_off_c, 1, 36, 0
2, 31440, Note_off_c, 1, 43, 0
2, 31440, Note_on_c, 1, 46, 127
2, 31440, Note_off_c, 1, 48, 0
2, 31440, Note_on_c, 1, 52, 127
2, 31440, Note_on_c, 1, 56, 127
2, 31440, Note_off_c, 1, 60, 0
2, 31440, Note_off_c, 1, 63, 0
2, 31440, Note_on_c, 1, 64, 127
2, 31440, Note_off_c, 1, 67, 0
2, 31440, Note_on_c, 1, 68, 127
2, 31480, Note_off_c, 1, 46, 0
2, 31480, Note_on_c, 1, 49, 127
2, 31480, Note_off_c, 1, 52, 0
2, 31480, Note_on_c, 1, 53, 127
2, 31480, Note_off_c, 1, 56, 0
2, 31480, Note_off_c, 1, 64, 0
2, 31480, Note_on_c, 1, 65, 127
2, 31480, Note_off_c, 1, 68, 0
2, 31480, Note_on_c, 1, 73, 127
2, 31520, Note_on_c, 1, 46, 127
2, 31520, Note_off_c, 1, 49, 0
2, 31520, Note_on_c, 1, 52, 127
2, 31520, Note_off_c, 1, 53, 0
2, 31520, Note_on_c, 1, 56, 127
2, 31520, Note_on_c, 1, 64, 127
2, 31520, Note_off_c, 1, 65, 0
2, 31520, Note_on_c, 1, 68, 127
2, 31520, Note_off_c, 1, 73, 0
2, 31560, Note_on_c, 1, 40, 127
2, 31560, Note_off_c, 1, 46, 0
2, 31560, Note_off_c, 1, 52, 0
2, 31560, Note_on_c, 1, 54, 127
2, 31560, Note_on_c, 1, 55, 127
2, 31560, Note_off_c, 1, 56, 0
2, 31560, Note_on_c, 1, 62, 127
2, 31560, Note_off_c, 1, 64, 0
2, 31560, Note_on_c, 1, 67, 127
2, 31560, Note_off_c, 1, 68, 0
2, 31600, Note_off_c, 1, 40, 0
2, 31600, Note_off_c, 1, 54, 0
2, 31600, Note_off_c, 1, 55, 0
2, 31600, Note_off_c, 1, 62, 0
2, 31600, Note_off_c, 1, 67, 0
2, 31640, Note_on_c, 1, 50, 127
2, 31640, Note_on_c, 1, 62, 127
2, 31640, Note_on_c, 1, 74, 127
2, 31640, Note_on_c, 1, 83, 127
2, 31720, Note_on_c, 1, 44, 127
2, 31720, Note_off_c, 1, 50, 0
2, 31720, Note_on_c, 1, 51, 127
2, 31720, Note_off_c, 1, 62, 0
2, 31720, Note_on_c, 1, 73, 127
2, 31720, Note_off_c, 1, 74, 0
2, 31720, Note_on_c, 1, 78, 127
2, 31720, Note_off_c, 1, 83, 0
2, 31760, Note_off_c, 1, 44, 0
2, 31760, Note_on_c, 1, 50, 127
2, 31760, Note_off_c, 1, 51, 0
2, 31760, Note_on_c, 1, 62, 127
2, 31760, Note_off_c, 1, 73, 0
2, 31760, Note_on_c, 1, 74, 127
2, 31760, Note_off_c, 1, 78, 0
2, 31760, Note_on_c, 1, 83, 127
2, 31960, Note_off_c, 1, 50, 0
2, 31960, Note_off_c, 1, 62, 0
2, 31960, Note_off_c, 1, 74, 0
2, 31960, Note_off_c, 1, 83, 0
2, 32000, Note_on_c, 1, 48, 127
2, 32000, Note_on_c, 1, 52, 127
2, 32000, Note_on_c, 1, 66, 127
2, 32000, Note_on_c, 1, 76, 127
2, 32360, Note_off_c, 1, 48, 0
2, 32360, Note_off_c, 1, 52, 0
2, 32360, Note_off_c, 1, 66, 0
2, 32360, Note_off_c, 1, 76, 0
2, 32400, Note_on_c, 1, 48, 127
2, 32400, Note_on_c, 1, 52, 127
2, 32400, Note_on_c, 1, 66, 127
2, 32400, Note_on_c, 1, 76, 127
2, 32760, Note_off_c, 1, 48, 0
2, 32760, Note_off_c, 1, 52, 0
2, 32760, Note_off_c, 1, 66, 0
2, 32760, Note_off_c, 1, 76, 0
2, 32840, Note_on_c, 1, 31, 127
2, 32840, Note_on_c, 1, 43, 127
2, 32840, Note_on_c, 1, 70, 127
2, 32840, Note_on_c, 1, 75, 127
2, 32840, Note_on_c, 1, 87, 127
2, 32880, Note_off_c, 1, 31, 0
2, 32880, Note_off_c, 1, 43, 0
2, 32880, Note_on_c, 1, 46, 127
2, 32880, Note_on_c, 1, 60, 127
2, 32880, Note_on_c, 1, 69, 127
2, 32880, Note_off_c, 1, 70, 0
2, 32880, Note_on_c, 1, 72, 127
2, 32880, Note_off_c, 1, 75, 0
2, 32880, Note_off_c, 1, 87, 0
2, 32920, Note_on_c, 1, 31, 127
2, 32920, Note_on_c, 1, 43, 127
2, 32920, Note_off_c, 1, 46, 0
2, 32920, Note_off_c, 1, 60, 0
2, 32920, Note_off_c, 1, 69, 0
2, 32920, Note_on_c, 1, 70, 127
2, 32920, Note_off_c, 1, 72, 0
2, 32920, Note_on_c, 1, 79, 127
2, 32920, Note_on_c, 1, 82, 127
2, 32920, Note_on_c, 1, 87, 127
2, 32920, Note_on_c, 1, 91, 127
2, 33000, Note_off_c, 1, 31, 0
2, 33000, Note_off_c, 1, 43, 0
2, 33000, Note_on_c, 1, 52, 127
2, 33000, Note_off_c, 1, 70, 0
2, 33000, Note_off_c, 1, 79, 0
2, 33000, Note_off_c, 1, 82, 0
2, 33000, Note_off_c, 1, 87, 0
2, 33000, Note_on_c, 1, 89, 127
2, 33000, Note_off_c, 1, 91, 0
2, 33040, Note_off_c, 1, 52, 0
2, 33040, Note_on_c, 1, 64, 127
2, 33040, Note_on_c, 1, 72, 127
2, 33040, Note_on_c, 1, 75, 127
2, 33040, Note_on_c, 1, 78, 127
2, 33040, Note_on_c, 1, 81, 127
2, 33040, Note_off_c, 1, 89, 0
2, 33080, Note_on_c, 1, 31, 127
2, 33080, Note_on_c, 1, 43, 127
2, 33080, Note_off_c, 1, 64, 0
2, 33080, Note_on_c, 1, 70, 127
2, 33080, Note_off_c, 1, 72, 0
2, 33080, Note_off_c, 1, 75, 0
2, 33080, Note_off_c, 1, 78, 0
2, 33080, Note_on_c, 1, 79, 127
2, 33080, Note_off_c, 1, 81, 0
2, 33080, Note_on_c, 1, 82, 127
2, 33080, Note_on_c, 1, 87, 127
2, 33080, Note_on_c, 1, 91, 127
2, 33120, Note_off_c, 1, 31, 0
2, 33120, Note_off_c, 1, 43, 0
2, 33120, Note_on_c, 1, 64, 127
2, 33120, Note_off_c, 1, 70, 0
2, 33120, Note_on_c, 1, 72, 127
2, 33120, Note_on_c, 1, 75, 127
2, 33120, Note_on_c, 1, 78, 127
2, 33120, Note_off_c, 1, 79, 0
2, 33120, Note_on_c, 1, 81, 127
2, 33120, Note_off_c, 1, 82, 0
2, 33120, Note_off_c, 1, 87, 0
2, 33120, Note_off_c, 1, 91, 0
2, 33160, Note_off_c, 1, 64, 0
2, 33160, Note_off_c, 1, 72, 0
2, 33160, Note_off_c, 1, 75, 0
2, 33160, Note_off_c, 1, 78, 0
2, 33160, Note_off_c, 1, 81, 0
2, 33200, Note_on_c, 1, 47, 127
2, 33200, Note_on_c, 1, 54, 127
2, 33200, Note_on_c, 1, 59, 127
2, 33200, Note_on_c, 1, 75, 127
2, 33200, Note_on_c, 1, 81, 127
2, 33200, Note_on_c, 1, 83, 127
2, 33200, Note_on_c, 1, 87, 127
2, 33240, Note_on_c, 1, 46, 127
2, 33240, Note_on_c, 1, 51, 127
2, 33240, Note_off_c, 1, 59, 0
2, 33240, Note_on_c, 1, 66, 127
2, 33240, Note_off_c, 1, 75, 0
2, 33240, Note_off_c, 1, 81, 0
2, 33240, Note_off_c, 1, 83, 0
2, 33240, Note_off_c, 1, 87, 0
2, 33280, Note_off_c, 1, 46, 0
2, 33280, Note_off_c, 1, 47, 0
2, 33280, Note_off_c, 1, 51, 0
2, 33280, Note_off_c, 1, 54, 0
2, 33280, Note_off_c, 1, 66, 0
2, 33280, Note_on_c, 1, 68, 127
2, 33280, Note_on_c, 1, 76, 127
2, 33280, Note_on_c, 1, 79, 127
2, 33280, Note_on_c, 1, 84, 127
2, 33320, Note_on_c, 1, 34, 127
2, 33320, Note_on_c, 1, 46, 127
2, 33320, Note_off_c, 1, 68, 0
2, 33320, Note_off_c, 1, 76, 0
2, 33320, Note_off_c, 1, 79, 0
2, 33320, Note_off_c, 1, 84, 0
2, 33320, Note_on_c, 1, 93, 127
2, 33360, Note_off_c, 1, 34, 0
2, 33360, Note_on_c, 1, 40, 127
2, 33360, Note_off_c, 1, 46, 0
2, 33360, Note_on_c, 1, 47, 127
2, 33360, Note_on_c, 1, 59, 127
2, 33360, Note_on_c, 1, 63, 127
2, 33360, Note_on_c, 1, 68, 127
2, 33360, Note_off_c, 1, 93, 0
2, 33400, Note_off_c, 1, 40, 0
2, 33400, Note_off_c, 1, 47, 0
2, 33400, Note_off_c, 1, 59, 0
2, 33400, Note_on_c, 1, 66, 127
2, 33400, Note_on_c, 1, 92, 127
2, 33440, Note_on_c, 1, 60, 127
2, 33440, Note_off_c, 1, 66, 0
2, 33440, Note_off_c, 1, 68, 0
2, 33440, Note_on_c, 1, 72, 127
2, 33440, Note_on_c, 1, 75, 127
2, 33440, Note_on_c, 1, 87, 127
2, 33440, Note_off_c, 1, 92, 0
2, 33480, Note_off_c, 1, 60, 0
2, 33480, Note_off_c, 1, 63, 0
2, 33480, Note_off_c, 1, 72, 0
2, 33480, Note_off_c, 1, 75, 0
2, 33480, Note_on_c, 1, 84, 127
2, 33480, Note_off_c, 1, 87, 0
2, 33480, Note_on_c, 1, 89, 127
2, 33480, Note_on_c, 1, 92, 127
2, 33480, Note_on_c, 1, 96, 127
2, 33520, Note_on_c, 1, 61, 127
2, 33520, Note_on_c, 1, 66, 127
2, 33520, Note_on_c, 1, 70, 127
2, 33520, Note_on_c, 1, 73, 127
2, 33520, Note_off_c, 1, 84, 0
2, 33520, Note_on_c, 1, 85, 127
2, 33520, Note_off_c, 1, 89, 0
2, 33520, Note_off_c, 1, 92, 0
2, 33520, Note_off_c, 1, 96, 0
2, 33560, Note_off_c, 1, 61, 0
2, 33560, Note_off_c, 1, 66, 0
2, 33560, Note_off_c, 1, 70, 0
2, 33560, Note_off_c, 1, 73, 0
2, 33560, Note_off_c, 1, 85, 0
2, 33600, Note_on_c, 1, 50, 127
2, 33600, Note_on_c, 1, 55, 127
2, 33600, Note_on_c, 1, 79, 127
2, 33920, Note_off_c, 1, 50, 0
2, 33920, Note_off_c, 1, 55, 0
2, 33920, Note_on_c, 1, 59, 127
2, 33960, Note_off_c, 1, 59, 0
2, 33960, Note_off_c, 1, 79, 0
2, 34000, Note_on_c, 1, 57, 127
2, 34000, Note_on_c, 1, 60, 127
2, 34000, Note_on_c, 1, 63, 127
2, 34000, Note_on_c, 1, 68, 127
2, 34000, Note_on_c, 1, 76, 127
2, 34040, Note_off_c, 1, 60, 0
2, 34040, Note_off_c, 1, 63, 0
2, 34040, Note_on_c, 1, 67, 127
2, 34040, Note_off_c, 1, 68, 0
2, 34040, Note_on_c, 1, 73, 127
2, 34040, Note_off_c, 1, 76, 0
2, 34040, Note_on_c, 1, 79, 127
2, 34080, Note_on_c, 1, 56, 127
2, 34080, Note_off_c, 1, 57, 0
2, 34080, Note_on_c, 1, 60, 127
2, 34080, Note_on_c, 1, 66, 127
2, 34080, Note_off_c, 1, 67, 0
2, 34080, Note_on_c, 1, 68, 127
2, 34080, Note_off_c, 1, 73, 0
2, 34080, Note_off_c, 1, 79, 0
2, 34080, Note_on_c, 1, 85, 127
2, 34120, Note_on_c, 1, 39, 127
2, 34120, Note_off_c, 1, 56, 0
2, 34120, Note_on_c, 1, 58, 127
2, 34120, Note_off_c, 1, 60, 0
2, 34120, Note_off_c, 1, 66, 0
2, 34120, Note_off_c, 1, 68, 0
2, 34120, Note_on_c, 1, 70, 127
2, 34120, Note_on_c, 1, 80, 127
2, 34120, Note_off_c, 1, 85, 0
2, 34160, Note_off_c, 1, 39, 0
2, 34160, Note_on_c, 1, 63, 127
2, 34160, Note_on_c, 1, 67, 127
2, 34160, Note_off_c, 1, 70, 0
2, 34160, Note_off_c, 1, 80, 0
2, 34160, Note_on_c, 1, 93, 127
2, 34200, Note_on_c, 1, 37, 127
2, 34200, Note_on_c, 1, 48, 127
2, 34200, Note_on_c, 1, 56, 127
2, 34200, Note_off_c, 1, 58, 0
2, 34200, Note_on_c, 1, 60, 127
2, 34200, Note_off_c, 1, 63, 0
2, 34200, Note_off_c, 1, 67, 0
2, 34200, Note_off_c, 1, 93, 0
2, 34240, Note_on_c, 1, 35, 127
2, 34240, Note_off_c, 1, 37, 0
2, 34240, Note_on_c, 1, 47, 127
2, 34240, Note_off_c, 1, 48, 0
2, 34240, Note_off_c, 1, 56, 0
2, 34240, Note_off_c, 1, 60, 0
2, 34240, Note_on_c, 1, 75, 127
2, 34240, Note_on_c, 1, 79, 127
2, 34240, Note_on_c, 1, 83, 127
2, 34280, Note_off_c, 1, 35, 0
2, 34280, Note_on_c, 1, 37, 127
2, 34280, Note_off_c, 1, 47, 0
2, 34280, Note_on_c, 1, 73, 127
2, 34280, Note_off_c, 1, 75, 0
2, 34280, Note_off_c, 1, 79, 0
2, 34280, Note_on_c, 1, 82, 127
2, 34280, Note_off_c, 1, 83, 0
2, 34320, Note_off_c, 1, 37, 0
2, 34320, Note_off_c, 1, 73, 0
2, 34320, Note_off_c, 1, 82, 0
2, 34360, Note_on_c, 1, 34, 127
2, 34360, Note_on_c, 1, 41, 127
2, 34360, Note_on_c, 1, 65, 127
2, 34360, Note_on_c, 1, 69, 127
2, 34360, Note_on_c, 1, 74, 127
2, 34360, Note_on_c, 1, 77, 127
2, 34400, Note_off_c, 1, 34, 0
2, 34400, Note_off_c, 1, 41, 0
2, 34400, Note_on_c, 1, 46, 127
2, 34400, Note_on_c, 1, 58, 127
2, 34400, Note_on_c, 1, 63, 127
2, 34400, Note_off_c, 1, 65, 0
2, 34400, Note_on_c, 1, 68, 127
2, 34400, Note_off_c, 1, 69, 0
2, 34400, Note_on_c, 1, 72, 127
2, 34400, Note_off_c, 1, 74, 0
2, 34400, Note_off_c, 1, 77, 0
2, 34440, Note_off_c, 1, 46, 0
2, 34440, Note_on_c, 1, 55, 127
2, 34440, Note_off_c, 1, 58, 0
2, 34440, Note_off_c, 1, 63, 0
2, 34440, Note_on_c, 1, 67, 127
2, 34440, Note_off_c, 1, 68, 0
2, 34440, Note_off_c, 1, 72, 0
2, 34440, Note_on_c, 1, 76, 127
2, 34440, Note_on_c, 1, 83, 127
2, 34480, Note_on_c, 1, 47, 127
2, 34480, Note_off_c, 1, 55, 0
2, 34480, Note_off_c, 1, 67, 0
2, 34480, Note_off_c, 1, 76, 0
2, 34480, Note_on_c, 1, 77, 127
2, 34480, Note_off_c, 1, 83, 0
2, 34480, Note_on_c, 1, 91, 127
2, 34520, Note_on_c, 1, 35, 127
2, 34520, Note_off_c, 1, 47, 0
2, 34520, Note_on_c, 1, 54, 127
2, 34520, Note_on_c, 1, 59, 127
2, 34520, Note_on_c, 1, 64, 127
2, 34520, Note_on_c, 1, 68, 127
2, 34520, Note_on_c, 1, 71, 127
2, 34520, Note_off_c, 1, 77, 0
2, 34520, Note_off_c, 1, 91, 0
2, 34560, Note_off_c, 1, 35, 0
2, 34560, Note_on_c, 1, 44, 127
2, 34560, Note_on_c, 1, 48, 127
2, 34560, Note_off_c, 1, 54, 0
2, 34560, Note_off_c, 1, 59, 0
2, 34560, Note_off_c, 1, 64, 0
2, 34560, Note_off_c, 1, 68, 0
2, 34560, Note_off_c, 1, 71, 0
2, 34560, Note_on_c, 1, 72, 127
2, 34560, Note_on_c, 1, 74, 127
2, 34560, Note_on_c, 1, 84, 127
2, 34600, Note_off_c, 1, 48, 0
2, 34600, Note_on_c, 1, 56, 127
2, 34600, Note_on_c, 1, 70, 127
2, 34600, Note_off_c, 1, 72, 0
2, 34600, Note_on_c, 1, 73, 127
2, 34600, Note_off_c, 1, 74, 0
2, 34600, Note_on_c, 1, 77, 127
2, 34600, Note_off_c, 1, 84, 0
2, 34640, Note_off_c, 1, 44, 0
2, 34640, Note_on_c, 1, 48, 127
2, 34640, Note_off_c, 1, 56, 0
2, 34640, Note_on_c, 1, 57, 127
2, 34640, Note_off_c, 1, 70, 0
2, 34640, Note_off_c, 1, 73, 0
2, 34640, Note_on_c, 1, 76, 127
2, 34640, Note_off_c, 1, 77, 0
2, 34640, Note_on_c, 1, 78, 127
2, 34680, Note_off_c, 1, 48, 0
2, 34680, Note_on_c, 1, 49, 127
2, 34680, Note_on_c, 1, 52, 127
2, 34680, Note_on_c, 1, 54, 127
2, 34680, Note_off_c, 1, 57, 0
2, 34680, Note_on_c, 1, 58, 127
2, 34680, Note_off_c, 1, 76, 0
2, 34680, Note_off_c, 1, 78, 0
2, 34680, Note_on_c, 1, 82, 127
2, 34720, Note_off_c, 1, 49, 0
2, 34720, Note_off_c, 1, 52, 0
2, 34720, Note_off_c, 1, 54, 0
2, 34720, Note_off_c, 1, 58, 0
2, 34720, Note_off_c, 1, 82, 0
2, 34720, Note_on_c, 1, 84, 127
2, 34760, Note_on_c, 1, 61, 127
2, 34760, Note_on_c, 1, 69, 127
2, 34760, Note_on_c, 1, 72, 127
2, 34760, Note_on_c, 1, 75, 127
2, 34760, Note_on_c, 1, 81, 127
2, 34760, Note_off_c, 1, 84, 0
2, 34880, Note_off_c, 1, 61, 0
2, 34880, Note_off_c, 1, 69, 0
2, 34880, Note_off_c, 1, 72, 0
2, 34880, Note_off_c, 1, 75, 0
2, 34880, Note_off_c, 1, 81, 0
2, 34920, Note_on_c, 1, 61, 127
2, 34920, Note_on_c, 1, 69, 127
2, 34920, Note_on_c, 1, 72, 127
2, 34920, Note_on_c, 1, 75, 127
2, 34920, Note_on_c, 1, 81, 127
2, 35160, Note_off_c, 1, 61, 0
2, 35160, Note_off_c, 1, 69, 0
2, 35160, Note_off_c, 1, 72, 0
2, 35160, Note_off_c, 1, 75, 0
2, 35160, Note_off_c, 1, 81, 0
2, 35200, Note_on_c, 1, 61, 127
2, 35200, Note_on_c, 1, 64, 127
2, 35200, Note_on_c, 1, 66, 127
2, 35200, Note_on_c, 1, 70, 127
2, 35200, Note_on_c, 1, 73, 127
2, 35200, Note_on_c, 1, 82, 127
2, 35440, Note_on_c, 1, 59, 127
2, 35440, Note_off_c, 1, 61, 0
2, 35440, Note_off_c, 1, 64, 0
2, 35440, Note_on_c, 1, 69, 127
2, 35440, Note_off_c, 1, 70, 0
2, 35440, Note_on_c, 1, 71, 127
2, 35440, Note_off_c, 1, 73, 0
2, 35440, Note_off_c, 1, 82, 0
2, 35480, Note_on_c, 1, 62, 127
2, 35480, Note_off_c, 1, 69, 0
2, 35480, Note_off_c, 1, 71, 0
2, 35480, Note_on_c, 1, 83, 127
2, 35520, Note_off_c, 1, 59, 0
2, 35520, Note_off_c, 1, 62, 0
2, 35520, Note_off_c, 1, 66, 0
2, 35520, Note_on_c, 1, 85, 127
2, 35560, Note_on_c, 1, 61, 127
2, 35560, Note_on_c, 1, 64, 127
2, 35560, Note_on_c, 1, 66, 127
2, 35560, Note_on_c, 1, 70, 127
2, 35560, Note_on_c, 1, 73, 127
2, 35560, Note_on_c, 1, 78, 127
2, 35560, Note_off_c, 1, 83, 0
2, 35560, Note_off_c, 1, 85, 0
2, 35880, Note_off_c, 1, 61, 0
2, 35880, Note_off_c, 1, 64, 0
2, 35880, Note_off_c, 1, 66, 0
2, 35880, Note_off_c, 1, 70, 0
2, 35880, Note_off_c, 1, 73, 0
2, 35880, Note_off_c, 1, 78, 0
2, 35920, Note_on_c, 1, 56, 127
2, 35920, Note_on_c, 1, 76, 127
2, 35920, Note_on_c, 1, 80, 127
2, 36280, Note_off_c, 1, 56, 0
2, 36320, Note_on_c, 1, 52, 127
2, 36680, Note_off_c, 1, 52, 0
2, 36680, Note_off_c, 1, 76, 0
2, 36680, Note_off_c, 1, 80, 0
2, 36720, Note_on_c, 1, 75, 127
2, 36720, Note_on_c, 1, 82, 127
2, 36720, Note_on_c, 1, 90, 127
2, 36920, Note_off_c, 1, 75, 0
2, 36920, Note_off_c, 1, 82, 0
2, 36920, Note_off_c, 1, 90, 0
2, 36960, Note_on_c, 1, 75, 127
2, 36960, Note_on_c, 1, 82, 127
2, 36960, Note_on_c, 1, 90, 127
2, 37080, Note_off_c, 1, 75, 0
2, 37080, Note_off_c, 1, 82, 0
2, 37080, Note_off_c, 1, 90, 0
2, 37120, Note_on_c, 1, 58, 127
2, 37120, Note_on_c, 1, 61, 127
2, 37120, Note_on_c, 1, 80, 127
2, 37120, Note_on_c, 1, 82, 127
2, 37120, Note_on_c, 1, 85, 127
2, 37200, Note_on_c, 1, 56, 127
2, 37200, Note_off_c, 1, 58, 0
2, 37200, Note_off_c, 1, 61, 0
2, 37240, Note_off_c, 1, 56, 0
2, 37240, Note_on_c, 1, 58, 127
2, 37240, Note_on_c, 1, 61, 127
2, 37280, Note_on_c, 1, 56, 127
2, 37280, Note_off_c, 1, 58, 0
2, 37280, Note_off_c, 1, 61, 0
2, 37440, Note_off_c, 1, 56, 0
2, 37440, Note_on_c, 1, 61, 127
2, 37440, Note_on_c, 1, 73, 127
2, 37440, Note_on_c, 1, 77, 127
2, 37440, Note_off_c, 1, 80, 0
2, 37440, Note_off_c, 1, 82, 0
2, 37480, Note_off_c, 1, 61, 0
2, 37480, Note_off_c, 1, 73, 0
2, 37480, Note_off_c, 1, 77, 0
2, 37480, Note_off_c, 1, 85, 0
2, 37520, Note_on_c, 1, 56, 127
2, 37520, Note_on_c, 1, 58, 127
2, 37520, Note_on_c, 1, 61, 127
2, 37520, Note_on_c, 1, 68, 127
2, 37520, Note_on_c, 1, 82, 127
2, 37520, Note_on_c, 1, 92, 127
2, 37520, Note_on_c, 1, 94, 127
2, 37560, Note_on_c, 1, 49, 127
2, 37560, Note_off_c, 1, 56, 0
2, 37560, Note_off_c, 1, 58, 0
2, 37560, Note_off_c, 1, 61, 0
2, 37560, Note_off_c, 1, 68, 0
2, 37560, Note_on_c, 1, 81, 127
2, 37560, Note_off_c, 1, 82, 0
2, 37560, Note_on_c, 1, 83, 127
2, 37560, Note_off_c, 1, 92, 0
2, 37560, Note_off_c, 1, 94, 0
2, 37600, Note_off_c, 1, 49, 0
2, 37600, Note_on_c, 1, 69, 127
2, 37600, Note_off_c, 1, 81, 0
2, 37600, Note_off_c, 1, 83, 0
2, 37600, Note_on_c, 1, 84, 127
2, 37600, Note_on_c, 1, 89, 127
2, 37600, Note_on_c, 1, 93, 127
2, 37600, Note_on_c, 1, 96, 127
2, 37640, Note_on_c, 1, 56, 127
2, 37640, Note_on_c, 1, 58, 127
2, 37640, Note_on_c, 1, 61, 127
2, 37640, Note_on_c, 1, 68, 127
2, 37640, Note_off_c, 1, 69, 0
2, 37640, Note_on_c, 1, 82, 127
2, 37640, Note_off_c, 1, 84, 0
2, 37640, Note_off_c, 1, 89, 0
2, 37640, Note_on_c, 1, 92, 127
2, 37640, Note_off_c, 1, 93, 0
2, 37640, Note_on_c, 1, 94, 127
2, 37640, Note_off_c, 1, 96, 0
2, 37680, Note_on_c, 1, 53, 127
2, 37680, Note_off_c, 1, 56, 0
2, 37680, Note_off_c, 1, 58, 0
2, 37680, Note_off_c, 1, 61, 0
2, 37680, Note_off_c, 1, 68, 0
2, 37680, Note_on_c, 1, 72, 127
2, 37680, Note_on_c, 1, 77, 127
2, 37680, Note_off_c, 1, 92, 0
2, 37680, Note_off_c, 1, 94, 0
2, 37720, Note_off_c, 1, 53, 0
2, 37720, Note_on_c, 1, 61, 127
2, 37720, Note_on_c, 1, 63, 127
2, 37720, Note_on_c, 1, 66, 127
2, 37720, Note_on_c, 1, 68, 127
2, 37720, Note_off_c, 1, 77, 0
2, 37720, Note_on_c, 1, 78, 127
2, 37720, Note_off_c, 1, 82, 0
2, 37720, Note_on_c, 1, 87, 127
2, 37800, Note_off_c, 1, 63, 0
2, 37800, Note_off_c, 1, 66, 0
2, 37800, Note_on_c, 1, 71, 127
2, 37800, Note_off_c, 1, 72, 0
2, 37800, Note_on_c, 1, 74, 127
2, 37800, Note_on_c, 1, 77, 127
2, 37800, Note_off_c, 1, 78, 0
2, 37800, Note_off_c, 1, 87, 0
2, 37840, Note_off_c, 1, 61, 0
2, 37840, Note_off_c, 1, 68, 0
2, 37840, Note_off_c, 1, 71, 0
2, 37840, Note_off_c, 1, 74, 0
2, 37840, Note_off_c, 1, 77, 0
2, 37920, Note_on_c, 1, 61, 127
2, 37920, Note_on_c, 1, 68, 127
2, 37920, Note_on_c, 1, 71, 127
2, 37920, Note_on_c, 1, 74, 127
2, 37920, Note_on_c, 1, 77, 127
2, 38640, Note_off_c, 1, 61, 0
2, 38640, Note_off_c, 1, 68, 0
2, 38640, Note_off_c, 1, 71, 0
2, 38640, Note_off_c, 1, 74, 0
2, 38640, Note_off_c, 1, 77, 0
2, 38680, Note_on_c, 1, 63, 127
2, 38680, Note_on_c, 1, 83, 127
2, 39040, Note_off_c, 1, 63, 0
2, 39040, Note_off_c, 1, 83, 0
2, 39080, Note_on_c, 1, 66, 127
2, 39080, Note_on_c, 1, 83, 127
2, 39240, Note_on_c, 1, 82, 127
2, 39240, Note_off_c, 1, 83, 0
2, 39280, Note_off_c, 1, 66, 0
2, 39280, Note_off_c, 1, 82, 0
2, 39320, Note_on_c, 1, 66, 127
2, 39320, Note_on_c, 1, 82, 127
2, 39480, Note_off_c, 1, 66, 0
2, 39480, Note_off_c, 1, 82, 0
2, 39520, Note_on_c, 1, 38, 127
2, 39520, Note_on_c, 1, 50, 127
2, 39520, Note_on_c, 1, 64, 127
2, 39520, Note_on_c, 1, 68, 127
2, 39520, Note_on_c, 1, 71, 127
2, 39880, Note_off_c, 1, 38, 0
2, 39880, Note_off_c, 1, 50, 0
2, 39880, Note_off_c, 1, 64, 0
2, 39880, Note_off_c, 1, 68, 0
2, 39880, Note_off_c, 1, 71, 0
2, 39920, Note_on_c, 1, 38, 127
2, 39920, Note_on_c, 1, 50, 127
2, 39920, Note_on_c, 1, 64, 127
2, 39920, Note_on_c, 1, 68, 127
2, 39920, Note_on_c, 1, 71, 127
2, 40280, Note_off_c, 1, 38, 0
2, 40280, Note_off_c, 1, 50, 0
2, 40280, Note_off_c, 1, 64, 0
2, 40280, Note_off_c, 1, 68, 0
2, 40280, Note_off_c, 1, 71, 0
2, 40320, Note_on_c, 1, 38, 127
2, 40320, Note_on_c, 1, 50, 127
2, 40320, Note_on_c, 1, 64, 127
2, 40320, Note_on_c, 1, 68, 127
2, 40320, Note_on_c, 1, 71, 127
2, 40680, Note_off_c, 1, 38, 0
2, 40680, Note_off_c, 1, 50, 0
2, 40680, Note_off_c, 1, 64, 0
2, 40680, Note_off_c, 1, 68, 0
2, 40680, Note_off_c, 1, 71, 0
2, 40720, Note_on_c, 1, 38, 127
2, 40720, Note_on_c, 1, 50, 127
2, 40720, Note_on_c, 1, 64, 127
2, 40720, Note_on_c, 1, 68, 127
2, 40720, Note_on_c, 1, 71, 127
2, 41080, Note_off_c, 1, 38, 0
2, 41080, Note_off_c, 1, 50, 0
2, 41080, Note_off_c, 1, 64, 0
2, 41080, Note_off_c, 1, 68, 0
2, 41080, Note_off_c, 1, 71, 0
2, 41120, Note_on_c, 1, 38, 127
2, 41120, Note_on_c, 1, 50, 127
2, 41120, Note_on_c, 1, 64, 127
2, 41120, Note_on_c, 1, 68, 127
2, 41120, Note_on_c, 1, 71, 127
2, 41480, Note_off_c, 1, 38, 0
2, 41480, Note_off_c, 1, 50, 0
2, 41480, Note_off_c, 1, 64, 0
2, 41480, Note_off_c, 1, 68, 0
2, 41480, Note_off_c, 1, 71, 0
2, 41560, Note_on_c, 1, 38, 127
2, 41560, Note_on_c, 1, 50, 127
2, 41560, Note_on_c, 1, 64, 127
2, 41560, Note_on_c, 1, 68, 127
2, 41560, Note_on_c, 1, 71, 127
2, 41920, Note_off_c, 1, 38, 0
2, 41920, Note_off_c, 1, 50, 0
2, 41920, Note_off_c, 1, 64, 0
2, 41920, Note_off_c, 1, 68, 0
2, 41920, Note_off_c, 1, 71, 0
2, 41960, Note_on_c, 1, 38, 127
2, 41960, Note_on_c, 1, 50, 127
2, 41960, Note_on_c, 1, 64, 127
2, 41960, Note_on_c, 1, 68, 127
2, 41960, Note_on_c, 1, 71, 127
2, 42320, Note_off_c, 1, 38, 0
2, 42320, Note_off_c, 1, 50, 0
2, 42320, Note_off_c, 1, 64, 0
2, 42320, Note_off_c, 1, 68, 0
2, 42320, Note_off_c, 1, 71, 0
2, 42360, Note_on_c, 1, 38, 127
2, 42360, Note_on_c, 1, 50, 127
2, 42360, Note_on_c, 1, 64, 127
2, 42360, Note_on_c, 1, 68, 127
2, 42360, Note_on_c, 1, 71, 127
2, 42720, Note_off_c, 1, 38, 0
2, 42720, Note_off_c, 1, 50, 0
2, 42720, Note_off_c, 1, 64, 0
2, 42720, Note_off_c, 1, 68, 0
2, 42720, Note_off_c, 1, 71, 0
2, 42760, Note_on_c, 1, 38, 127
2, 42760, Note_on_c, 1, 50, 127
2, 42760, Note_on_c, 1, 64, 127
2, 42760, Note_on_c, 1, 68, 127
2, 42760, Note_on_c, 1, 71, 127
2, 43120, Note_off_c, 1, 38, 0
2, 43120, Note_off_c, 1, 50, 0
2, 43120, Note_off_c, 1, 64, 0
2, 43120, Note_off_c, 1, 68, 0
2, 43120, Note_off_c, 1, 71, 0
2, 43160, Note_on_c, 1, 38, 127
2, 43160, Note_on_c, 1, 50, 127
2, 43160, Note_on_c, 1, 64, 127
2, 43160, Note_on_c, 1, 68, 127
2, 43160, Note_on_c, 1, 71, 127
2, 43480, Note_off_c, 1, 38, 0
2, 43480, Note_off_c, 1, 50, 0
2, 43480, Note_off_c, 1, 64, 0
2, 43480, Note_off_c, 1, 68, 0
2, 43480, Note_off_c, 1, 71, 0
2, 43600, Note_on_c, 1, 38, 127
2, 43600, Note_on_c, 1, 50, 127
2, 43600, Note_on_c, 1, 64, 127
2, 43600, Note_on_c, 1, 68, 127
2, 43600, Note_on_c, 1, 71, 127
2, 43960, Note_off_c, 1, 38, 0
2, 43960, Note_off_c, 1, 50, 0
2, 43960, Note_off_c, 1, 64, 0
2, 43960, Note_off_c, 1, 68, 0
2, 43960, Note_off_c, 1, 71, 0
2, 44000, Note_on_c, 1, 38, 127
2, 44000, Note_on_c, 1, 50, 127
2, 44000, Note_on_c, 1, 64, 127
2, 44000, Note_on_c, 1, 68, 127
2, 44000, Note_on_c, 1, 71, 127
2, 44360, Note_off_c, 1, 38, 0
2, 44360, Note_off_c, 1, 50, 0
2, 44360, Note_off_c, 1, 64, 0
2, 44360, Note_off_c, 1, 68, 0
2, 44360, Note_off_c, 1, 71, 0
2, 44400, Note_on_c, 1, 38, 127
2, 44400, Note_on_c, 1, 50, 127
2, 44400, Note_on_c, 1, 64, 127
2, 44400, Note_on_c, 1, 68, 127
2, 44400, Note_on_c, 1, 71, 127
2, 44760, Note_off_c, 1, 38, 0
2, 44760, Note_off_c, 1, 50, 0
2, 44760, Note_off_c, 1, 64, 0
2, 44760, Note_off_c, 1, 68, 0
2, 44760, Note_off_c, 1, 71, 0
2, 44800, Note_on_c, 1, 38, 127
2, 44800, Note_on_c, 1, 50, 127
2, 44800, Note_on_c, 1, 64, 127
2, 44800, Note_on_c, 1, 68, 127
2, 44800, Note_on_c, 1, 71, 127
2, 45120, Note_off_c, 1, 38, 0
2, 45120, Note_off_c, 1, 50, 0
2, 45120, Note_off_c, 1, 64, 0
2, 45120, Note_off_c, 1, 68, 0
2, 45120, Note_off_c, 1, 71, 0
2, 45200, Note_on_c, 1, 38, 127
2, 45200, Note_on_c, 1, 50, 127
2, 45200, Note_on_c, 1, 64, 127
2, 45200, Note_on_c, 1, 68, 127
2, 45200, Note_on_c, 1, 71, 127
2, 45560, Note_off_c, 1, 38, 0
2, 45560, Note_off_c, 1, 50, 0
2, 45560, Note_off_c, 1, 64, 0
2, 45560, Note_off_c, 1, 68, 0
2, 45560, Note_off_c, 1, 71, 0
2, 45640, Note_on_c, 1, 38, 127
2, 45640, Note_on_c, 1, 50, 127
2, 45640, Note_on_c, 1, 64, 127
2, 45640, Note_on_c, 1, 68, 127
2, 45640, Note_on_c, 1, 71, 127
2, 46000, Note_off_c, 1, 38, 0
2, 46000, Note_off_c, 1, 50, 0
2, 46000, Note_off_c, 1, 64, 0
2, 46000, Note_off_c, 1, 68, 0
2, 46000, Note_off_c, 1, 71, 0
2, 46040, Note_on_c, 1, 38, 127
2, 46040, Note_on_c, 1, 50, 127
2, 46040, Note_on_c, 1, 64, 127
2, 46040, Note_on_c, 1, 68, 127
2, 46040, Note_on_c, 1, 71, 127
2, 46400, Note_off_c, 1, 38, 0
2, 46400, Note_off_c, 1, 50, 0
2, 46400, Note_off_c, 1, 64, 0
2, 46400, Note_off_c, 1, 68, 0
2, 46400, Note_off_c, 1, 71, 0
2, 46440, Note_on_c, 1, 38, 127
2, 46440, Note_on_c, 1, 50, 127
2, 46440, Note_on_c, 1, 64, 127
2, 46440, Note_on_c, 1, 68, 127
2, 46440, Note_on_c, 1, 71, 127
2, 46800, Note_off_c, 1, 38, 0
2, 46800, Note_off_c, 1, 50, 0
2, 46800, Note_off_c, 1, 64, 0
2, 46800, Note_off_c, 1, 68, 0
2, 46800, Note_off_c, 1, 71, 0
2, 46840, Note_on_c, 1, 38, 127
2, 46840, Note_on_c, 1, 50, 127
2, 46840, Note_on_c, 1, 64, 127
2, 46840, Note_on_c, 1, 68, 127
2, 46840, Note_on_c, 1, 71, 127
2, 47200, Note_off_c, 1, 38, 0
2, 47200, Note_off_c, 1, 50, 0
2, 47200, Note_off_c, 1, 64, 0
2, 47200, Note_off_c, 1, 68, 0
2, 47200, Note_off_c, 1, 71, 0
2, 47240, Note_on_c, 1, 38, 127
2, 47240, Note_on_c, 1, 50, 127
2, 47240, Note_on_c, 1, 64, 127
2, 47240, Note_on_c, 1, 68, 127
2, 47240, Note_on_c, 1, 71, 127
2, 47600, Note_off_c, 1, 38, 0
2, 47600, Note_off_c, 1, 50, 0
2, 47600, Note_off_c, 1, 64, 0
2, 47600, Note_off_c, 1, 68, 0
2, 47600, Note_off_c, 1, 71, 0
2, 47680, Note_on_c, 1, 47, 127
2, 47680, Note_on_c, 1, 57, 127
2, 47680, Note_on_c, 1, 62, 127
2, 47680, Note_on_c, 1, 68, 127
2, 47680, Note_on_c, 1, 71, 127
2, 47800, Note_on_c, 1, 45, 127
2, 47800, Note_off_c, 1, 47, 0
2, 47800, Note_on_c, 1, 60, 127
2, 47800, Note_off_c, 1, 62, 0
2, 47800, Note_off_c, 1, 68, 0
2, 47800, Note_on_c, 1, 69, 127
2, 47800, Note_off_c, 1, 71, 0
2, 47800, Note_on_c, 1, 72, 127
2, 48440, Note_off_c, 1, 45, 0
2, 48440, Note_off_c, 1, 57, 0
2, 48440, Note_off_c, 1, 60, 0
2, 48440, Note_off_c, 1, 69, 0
2, 48440, Note_off_c, 1, 72, 0
2, 48480, Note_on_c, 1, 49, 127
2, 48480, Note_on_c, 1, 56, 127
2, 48480, Note_on_c, 1, 61, 127
2, 48480, Note_on_c, 1, 66, 127
2, 48480, Note_on_c, 1, 70, 127
2, 48480, Note_on_c, 1, 73, 127
2, 49200, Note_off_c, 1, 49, 0
2, 49200, Note_off_c, 1, 56, 0
2, 49200, Note_off_c, 1, 61, 0
2, 49200, Note_off_c, 1, 66, 0
2, 49200, Note_off_c, 1, 70, 0
2, 49200, Note_off_c, 1, 73, 0
2, 49240, Note_on_c, 1, 41, 127
2, 49240, Note_on_c, 1, 46, 127
2, 49240, Note_on_c, 1, 53, 127
2, 49240, Note_on_c, 1, 87, 127
2, 49600, Note_off_c, 1, 41, 0
2, 49600, Note_off_c, 1, 46, 0
2, 49600, Note_off_c, 1, 53, 0
2, 49600, Note_off_c, 1, 87, 0
2, 49640, Note_on_c, 1, 40, 127
2, 49640, Note_on_c, 1, 55, 127
2, 49640, Note_on_c, 1, 71, 127
2, 49640, Note_on_c, 1, 79, 127
2, 49640, Note_on_c, 1, 83, 127
2, 49680, Note_off_c, 1, 40, 0
2, 49680, Note_on_c, 1, 51, 127
2, 49680, Note_off_c, 1, 55, 0
2, 49680, Note_on_c, 1, 61, 127
2, 49680, Note_on_c, 1, 65, 127
2, 49680, Note_on_c, 1, 70, 127
2, 49680, Note_off_c, 1, 71, 0
2, 49680, Note_on_c, 1, 75, 127
2, 49680, Note_off_c, 1, 79, 0
2, 49680, Note_off_c, 1, 83, 0
2, 49720, Note_off_c, 1, 51, 0
2, 49720, Note_off_c, 1, 61, 0
2, 49720, Note_off_c, 1, 65, 0
2, 49720, Note_off_c, 1, 70, 0
2, 49720, Note_off_c, 1, 75, 0
2, 49760, Note_on_c, 1, 51, 127
2, 49760, Note_on_c, 1, 61, 127
2, 49760, Note_on_c, 1, 65, 127
2, 49760, Note_on_c, 1, 70, 127
2, 49760, Note_on_c, 1, 75, 127
2, 50040, Note_off_c, 1, 51, 0
2, 50040, Note_off_c, 1, 61, 0
2, 50040, Note_off_c, 1, 65, 0
2, 50040, Note_off_c, 1, 70, 0
2, 50040, Note_off_c, 1, 75, 0
2, 50080, Note_on_c, 1, 41, 127
2, 50080, Note_on_c, 1, 51, 127
2, 50080, Note_on_c, 1, 60, 127
2, 50080, Note_on_c, 1, 65, 127
2, 50080, Note_on_c, 1, 72, 127
2, 50440, Note_off_c, 1, 41, 0
2, 50440, Note_off_c, 1, 51, 0
2, 50440, Note_off_c, 1, 60, 0
2, 50440, Note_off_c, 1, 65, 0
2, 50440, Note_off_c, 1, 72, 0
2, 50480, Note_on_c, 1, 41, 127
2, 50480, Note_on_c, 1, 50, 127
2, 50480, Note_on_c, 1, 58, 127
2, 50480, Note_on_c, 1, 65, 127
2, 50480, Note_on_c, 1, 70, 127
2, 50640, Note_off_c, 1, 50, 0
2, 50680, Note_on_c, 1, 53, 127
2, 50800, Note_off_c, 1, 53, 0
2, 50840, Note_off_c, 1, 41, 0
2, 50840, Note_off_c, 1, 58, 0
2, 50840, Note_off_c, 1, 65, 0
2, 50840, Note_off_c, 1, 70, 0
2, 50880, Note_on_c, 1, 41, 127
2, 50880, Note_on_c, 1, 51, 127
2, 50880, Note_on_c, 1, 60, 127
2, 50880, Note_on_c, 1, 65, 127
2, 50880, Note_on_c, 1, 69, 127
2, 50880, Note_on_c, 1, 72, 127
2, 51160, Note_on_c, 1, 53, 127
2, 51200, Note_off_c, 1, 53, 0
2, 51480, Note_on_c, 1, 53, 127
2, 51520, Note_off_c, 1, 53, 0
2, 51840, Note_off_c, 1, 41, 0
2, 51840, Note_off_c, 1, 51, 0
2, 51840, Note_off_c, 1, 60, 0
2, 51840, Note_off_c, 1, 65, 0
2, 51840, Note_off_c, 1, 69, 0
2, 51840, Note_off_c, 1, 72, 0
2, 51880, Note_on_c, 1, 41, 127
2, 51880, Note_on_c, 1, 51, 127
2, 51880, Note_on_c, 1, 60, 127
2, 51880, Note_on_c, 1, 65, 127
2, 51880, Note_on_c, 1, 69, 127
2, 51880, Note_on_c, 1, 72, 127
2, 52080, Note_off_c, 1, 41, 0
2, 52080, Note_off_c, 1, 51, 0
2, 52080, Note_off_c, 1, 60, 0
2, 52080, Note_off_c, 1, 65, 0
2, 52080, Note_off_c, 1, 69, 0
2, 52080, Note_off_c, 1, 72, 0
2, 52120, Note_on_c, 1, 41, 127
2, 52120, Note_on_c, 1, 51, 127
2, 52120, Note_on_c, 1, 53, 127
2, 52120, Note_on_c, 1, 60, 127
2, 52120, Note_on_c, 1, 65, 127
2, 52120, Note_on_c, 1, 69, 127
2, 52120, Note_on_c, 1, 72, 127
2, 52720, Note_off_c, 1, 53, 0
2, 52880, Note_off_c, 1, 41, 0
2, 52880, Note_off_c, 1, 51, 0
2, 52880, Note_off_c, 1, 60, 0
2, 52880, Note_off_c, 1, 65, 0
2, 52880, Note_off_c, 1, 69, 0
2, 52880, Note_off_c, 1, 72, 0
2, 52920, Note_on_c, 1, 55, 127
2, 52920, Note_on_c, 1, 60, 127
2, 52920, Note_on_c, 1, 65, 127
2, 53280, Note_off_c, 1, 55, 0
2, 53280, Note_off_c, 1, 60, 0
2, 53280, Note_off_c, 1, 65, 0
2, 53320, Note_on_c, 1, 55, 127
2, 53320, Note_on_c, 1, 58, 127
2, 53320, Note_on_c, 1, 64, 127
2, 53680, Note_off_c, 1, 55, 0
2, 53680, Note_off_c, 1, 58, 0
2, 53680, Note_off_c, 1, 64, 0
2, 53720, Note_on_c, 1, 53, 127
2, 53720, Note_on_c, 1, 57, 127
2, 53720, Note_on_c, 1, 60, 127
2, 53720, Note_on_c, 1, 65, 127
2, 54000, Note_off_c, 1, 53, 0
2, 54000, Note_off_c, 1, 57, 0
2, 54000, Note_off_c, 1, 60, 0
2, 54000, Note_off_c, 1, 65, 0
2, 54040, Note_on_c, 1, 53, 127
2, 54040, Note_on_c, 1, 57, 127
2, 54040, Note_on_c, 1, 60, 127
2, 54040, Note_on_c, 1, 65, 127
2, 54120, Note_off_c, 1, 57, 0
2, 54120, Note_off_c, 1, 60, 0
2, 54160, Note_on_c, 1, 57, 127
2, 54160, Note_on_c, 1, 60, 127
2, 55320, Note_off_c, 1, 57, 0
2, 55320, Note_off_c, 1, 60, 0
2, 55360, Note_on_c, 1, 44, 127
2, 55360, Note_off_c, 1, 53, 0
2, 55360, Note_off_c, 1, 65, 0
2, 55360, Note_on_c, 1, 66, 127
2, 55360, Note_on_c, 1, 73, 127
2, 55720, Note_off_c, 1, 44, 0
2, 55720, Note_off_c, 1, 66, 0
2, 55720, Note_off_c, 1, 73, 0
2, 55760, Note_on_c, 1, 53, 127
2, 55760, Note_on_c, 1, 70, 127
2, 55760, Note_on_c, 1, 77, 127
2, 56120, Note_off_c, 1, 53, 0
2, 56120, Note_off_c, 1, 70, 0
2, 56120, Note_off_c, 1, 77, 0
2, 56200, Note_on_c, 1, 57, 127
2, 56200, Note_on_c, 1, 69, 127
2, 56200, Note_on_c, 1, 77, 127
2, 56560, Note_off_c, 1, 57, 0
2, 56560, Note_off_c, 1, 69, 0
2, 56560, Note_off_c, 1, 77, 0
2, 56600, Note_on_c, 1, 52, 127
2, 56600, Note_on_c, 1, 64, 127
2, 56600, Note_on_c, 1, 65, 127
2, 56600, Note_on_c, 1, 71, 127
2, 56600, Note_on_c, 1, 74, 127
2, 56640, Note_on_c, 1, 39, 127
2, 56640, Note_off_c, 1, 52, 0
2, 56640, Note_on_c, 1, 61, 127
2, 56640, Note_off_c, 1, 64, 0
2, 56640, Note_off_c, 1, 71, 0
2, 56640, Note_off_c, 1, 74, 0
2, 56640, Note_on_c, 1, 75, 127
2, 56680, Note_off_c, 1, 39, 0
2, 56680, Note_on_c, 1, 52, 127
2, 56680, Note_off_c, 1, 61, 0
2, 56680, Note_on_c, 1, 64, 127
2, 56680, Note_on_c, 1, 71, 127
2, 56680, Note_on_c, 1, 74, 127
2, 56680, Note_off_c, 1, 75, 0
2, 56880, Note_off_c, 1, 52, 0
2, 56880, Note_on_c, 1, 61, 127
2, 56880, Note_off_c, 1, 64, 0
2, 56880, Note_off_c, 1, 65, 0
2, 56880, Note_off_c, 1, 71, 0
2, 56880, Note_off_c, 1, 74, 0
2, 56880, Note_on_c, 1, 76, 127
2, 56880, Note_on_c, 1, 82, 127
2, 56880, Note_on_c, 1, 88, 127
2, 56920, Note_on_c, 1, 52, 127
2, 56920, Note_off_c, 1, 61, 0
2, 56920, Note_on_c, 1, 64, 127
2, 56920, Note_on_c, 1, 65, 127
2, 56920, Note_on_c, 1, 71, 127
2, 56920, Note_on_c, 1, 74, 127
2, 56920, Note_off_c, 1, 76, 0
2, 56920, Note_off_c, 1, 82, 0
2, 56920, Note_off_c, 1, 88, 0
2, 56960, Note_on_c, 1, 48, 127
2, 56960, Note_off_c, 1, 52, 0
2, 56960, Note_off_c, 1, 64, 0
2, 56960, Note_off_c, 1, 71, 0
2, 56960, Note_off_c, 1, 74, 0
2, 57000, Note_on_c, 1, 46, 127
2, 57000, Note_off_c, 1, 48, 0
2, 57000, Note_on_c, 1, 50, 127
2, 57000, Note_on_c, 1, 54, 127
2, 57000, Note_on_c, 1, 60, 127
2, 57000, Note_off_c, 1, 65, 0
2, 57000, Note_on_c, 1, 69, 127
2, 57040, Note_on_c, 1, 36, 127
2, 57040, Note_off_c, 1, 50, 0
2, 57040, Note_off_c, 1, 54, 0
2, 57040, Note_on_c, 1, 55, 127
2, 57040, Note_on_c, 1, 64, 127
2, 57040, Note_off_c, 1, 69, 0
2, 57040, Note_on_c, 1, 72, 127
2, 57080, Note_off_c, 1, 36, 0
2, 57080, Note_off_c, 1, 46, 0
2, 57080, Note_off_c, 1, 55, 0
2, 57080, Note_on_c, 1, 56, 127
2, 57080, Note_off_c, 1, 60, 0
2, 57080, Note_off_c, 1, 64, 0
2, 57080, Note_off_c, 1, 72, 0
2, 57080, Note_on_c, 1, 77, 127
2, 57080, Note_on_c, 1, 80, 127
2, 57080, Note_on_c, 1, 84, 127
2, 57080, Note_on_c, 1, 89, 127
2, 57120, Note_on_c, 1, 46, 127
2, 57120, Note_on_c, 1, 50, 127
2, 57120, Note_on_c, 1, 54, 127
2, 57120, Note_off_c, 1, 56, 0
2, 57120, Note_on_c, 1, 60, 127
2, 57120, Note_on_c, 1, 69, 127
2, 57120, Note_off_c, 1, 77, 0
2, 57120, Note_off_c, 1, 80, 0
2, 57120, Note_off_c, 1, 84, 0
2, 57120, Note_off_c, 1, 89, 0
2, 57160, Note_off_c, 1, 46, 0
2, 57160, Note_on_c, 1, 47, 127
2, 57160, Note_off_c, 1, 50, 0
2, 57160, Note_on_c, 1, 56, 127
2, 57160, Note_off_c, 1, 60, 0
2, 57160, Note_on_c, 1, 62, 127
2, 57160, Note_off_c, 1, 69, 0
2, 57200, Note_on_c, 1, 39, 127
2, 57200, Note_off_c, 1, 47, 0
2, 57200, Note_on_c, 1, 48, 127
2, 57200, Note_off_c, 1, 54, 0
2, 57200, Note_off_c, 1, 56, 0
2, 57200, Note_on_c, 1, 58, 127
2, 57200, Note_on_c, 1, 60, 127
2, 57200, Note_off_c, 1, 62, 0
2, 57200, Note_on_c, 1, 63, 127
2, 57200, Note_on_c, 1, 67, 127
2, 57240, Note_off_c, 1, 39, 0
2, 57240, Note_on_c, 1, 46, 127
2, 57240, Note_off_c, 1, 48, 0
2, 57240, Note_off_c, 1, 58, 0
2, 57240, Note_on_c, 1, 59, 127
2, 57240, Note_off_c, 1, 60, 0
2, 57240, Note_off_c, 1, 63, 0
2, 57240, Note_on_c, 1, 65, 127
2, 57240, Note_off_c, 1, 67, 0
2, 57240, Note_on_c, 1, 77, 127
2, 57280, Note_off_c, 1, 46, 0
2, 57280, Note_on_c, 1, 49, 127
2, 57280, Note_on_c, 1, 52, 127
2, 57280, Note_on_c, 1, 56, 127
2, 57280, Note_off_c, 1, 59, 0
2, 57280, Note_on_c, 1, 64, 127
2, 57280, Note_off_c, 1, 65, 0
2, 57280, Note_on_c, 1, 71, 127
2, 57280, Note_on_c, 1, 76, 127
2, 57280, Note_off_c, 1, 77, 0
2, 57320, Note_off_c, 1, 49, 0
2, 57320, Note_off_c, 1, 52, 0
2, 57320, Note_on_c, 1, 55, 127
2, 57320, Note_off_c, 1, 56, 0
2, 57320, Note_on_c, 1, 58, 127
2, 57320, Note_on_c, 1, 63, 127
2, 57320, Note_off_c, 1, 64, 0
2, 57320, Note_off_c, 1, 71, 0
2, 57320, Note_off_c, 1, 76, 0
2, 57320, Note_on_c, 1, 87, 127
2, 57320, Note_on_c, 1, 91, 127
2, 57320, Note_on_c, 1, 94, 127
2, 57360, Note_off_c, 1, 55, 0
2, 57360, Note_off_c, 1, 58, 0
2, 57360, Note_off_c, 1, 63, 0
2, 57360, Note_off_c, 1, 87, 0
2, 57360, Note_off_c, 1, 91, 0
2, 57360, Note_off_c, 1, 94, 0
2, 57400, Note_on_c, 1, 42, 127
2, 57400, Note_on_c, 1, 46, 127
2, 57400, Note_on_c, 1, 49, 127
2, 57400, Note_on_c, 1, 52, 127
2, 57400, Note_on_c, 1, 82, 127
2, 57400, Note_on_c, 1, 85, 127
2, 57440, Note_off_c, 1, 42, 0
2, 57440, Note_off_c, 1, 46, 0
2, 57440, Note_off_c, 1, 49, 0
2, 57440, Note_off_c, 1, 52, 0
2, 57440, Note_on_c, 1, 58, 127
2, 57440, Note_on_c, 1, 61, 127
2, 57440, Note_on_c, 1, 68, 127
2, 57440, Note_on_c, 1, 76, 127
2, 57440, Note_off_c, 1, 82, 0
2, 57480, Note_on_c, 1, 37, 127
2, 57480, Note_on_c, 1, 42, 127
2, 57480, Note_on_c, 1, 49, 127
2, 57480, Note_on_c, 1, 65, 127
2, 57480, Note_off_c, 1, 68, 0
2, 57480, Note_off_c, 1, 76, 0
2, 57480, Note_off_c, 1, 85, 0
2, 57520, Note_off_c, 1, 37, 0
2, 57520, Note_off_c, 1, 42, 0
2, 57520, Note_off_c, 1, 49, 0
2, 57520, Note_off_c, 1, 65, 0
2, 57520, Note_on_c, 1, 66, 127
2, 57520, Note_on_c, 1, 76, 127
2, 57520, Note_on_c, 1, 85, 127
2, 57560, Note_off_c, 1, 66, 0
2, 57560, Note_on_c, 1, 68, 127
2, 57600, Note_off_c, 1, 58, 0
2, 57600, Note_on_c, 1, 60, 127
2, 57600, Note_off_c, 1, 61, 0
2, 57600, Note_on_c, 1, 66, 127
2, 57600, Note_off_c, 1, 68, 0
2, 57600, Note_off_c, 1, 76, 0
2, 57600, Note_on_c, 1, 81, 127
2, 57600, Note_off_c, 1, 85, 0
2, 57600, Note_on_c, 1, 88, 127
2, 57600, Note_on_c, 1, 93, 127
2, 57640, Note_on_c, 1, 43, 127
2, 57640, Note_on_c, 1, 50, 127
2, 57640, Note_off_c, 1, 60, 0
2, 57640, Note_off_c, 1, 66, 0
2, 57640, Note_on_c, 1, 75, 127
2, 57640, Note_on_c, 1, 78, 127
2, 57640, Note_on_c, 1, 84, 127
2, 57640, Note_off_c, 1, 88, 0
2, 57640, Note_off_c, 1, 93, 0
2, 57680, Note_off_c, 1, 43, 0
2, 57680, Note_off_c, 1, 50, 0
2, 57680, Note_on_c, 1, 58, 127
2, 57680, Note_on_c, 1, 61, 127
2, 57680, Note_on_c, 1, 68, 127
2, 57680, Note_off_c, 1, 75, 0
2, 57680, Note_on_c, 1, 76, 127
2, 57680, Note_off_c, 1, 78, 0
2, 57680, Note_off_c, 1, 81, 0
2, 57680, Note_off_c, 1, 84, 0
2, 57680, Note_on_c, 1, 85, 127
2, 57720, Note_on_c, 1, 46, 127
2, 57720, Note_on_c, 1, 55, 127
2, 57720, Note_off_c, 1, 58, 0
2, 57720, Note_on_c, 1, 65, 127
2, 57720, Note_off_c, 1, 68, 0
2, 57720, Note_on_c, 1, 70, 127
2, 57720, Note_off_c, 1, 76, 0
2, 57720, Note_on_c, 1, 77, 127
2, 57720, Note_on_c, 1, 79, 127
2, 57720, Note_off_c, 1, 85, 0
2, 57760, Note_off_c, 1, 46, 0
2, 57760, Note_off_c, 1, 55, 0
2, 57760, Note_on_c, 1, 58, 127
2, 57760, Note_off_c, 1, 65, 0
2, 57760, Note_on_c, 1, 68, 127
2, 57760, Note_off_c, 1, 70, 0
2, 57760, Note_on_c, 1, 76, 127
2, 57760, Note_off_c, 1, 77, 0
2, 57760, Note_off_c, 1, 79, 0
2, 57760, Note_on_c, 1, 85, 127
2, 58160, Note_off_c, 1, 58, 0
2, 58160, Note_off_c, 1, 61, 0
2, 58160, Note_off_c, 1, 68, 0
2, 58160, Note_off_c, 1, 76, 0
2, 58160, Note_off_c, 1, 85, 0
2, 58240, Note_on_c, 1, 58, 127
2, 58240, Note_on_c, 1, 61, 127
2, 58240, Note_on_c, 1, 68, 127
2, 58240, Note_on_c, 1, 75, 127
2, 58600, Note_off_c, 1, 58, 0
2, 58600, Note_off_c, 1, 61, 0
2, 58600, Note_off_c, 1, 68, 0
2, 58600, Note_off_c, 1, 75, 0
2, 58640, Note_on_c, 1, 58, 127
2, 58640, Note_on_c, 1, 61, 127
2, 58640, Note_on_c, 1, 68, 127
2, 58640, Note_on_c, 1, 75, 127
2, 58960, Note_off_c, 1, 58, 0
2, 58960, Note_off_c, 1, 61, 0
2, 58960, Note_off_c, 1, 68, 0
2, 59000, Note_on_c, 1, 58, 127
2, 59000, Note_on_c, 1, 61, 127
2, 59000, Note_on_c, 1, 68, 127
2, 59360, Note_off_c, 1, 58, 0
2, 59360, Note_off_c, 1, 61, 0
2, 59360, Note_off_c, 1, 68, 0
2, 59400, Note_on_c, 1, 58, 127
2, 59400, Note_on_c, 1, 61, 127
2, 59400, Note_on_c, 1, 68, 127
2, 59760, Note_off_c, 1, 58, 0
2, 59760, Note_off_c, 1, 61, 0
2, 59760, Note_off_c, 1, 68, 0
2, 59800, Note_on_c, 1, 58, 127
2, 59800, Note_on_c, 1, 61, 127
2, 59800, Note_on_c, 1, 68, 127
2, 60160, Note_off_c, 1, 58, 0
2, 60160, Note_off_c, 1, 61, 0
2, 60160, Note_off_c, 1, 68, 0
2, 60200, Note_on_c, 1, 58, 127
2, 60200, Note_on_c, 1, 61, 127
2, 60200, Note_on_c, 1, 68, 127
2, 60520, Note_off_c, 1, 58, 0
2, 60520, Note_off_c, 1, 61, 0
2, 60520, Note_off_c, 1, 68, 0
2, 60520, Note_off_c, 1, 75, 0
2, 60560, Note_on_c, 1, 58, 127
2, 60560, Note_on_c, 1, 61, 127
2, 60560, Note_on_c, 1, 68, 127
2, 60560, Note_on_c, 1, 75, 127
2, 60600, Note_off_c, 1, 58, 0
2, 60600, Note_off_c, 1, 61, 0
2, 60600, Note_off_c, 1, 68, 0
2, 60640, Note_on_c, 1, 58, 127
2, 60640, Note_on_c, 1, 61, 127
2, 60640, Note_on_c, 1, 68, 127
2, 61000, Note_off_c, 1, 58, 0
2, 61000, Note_off_c, 1, 61, 0
2, 61000, Note_off_c, 1, 68, 0
2, 61040, Note_on_c, 1, 58, 127
2, 61040, Note_on_c, 1, 61, 127
2, 61040, Note_on_c, 1, 68, 127
2, 61360, Note_off_c, 1, 58, 0
2, 61360, Note_off_c, 1, 61, 0
2, 61360, Note_off_c, 1, 68, 0
2, 61400, Note_on_c, 1, 58, 127
2, 61400, Note_on_c, 1, 61, 127
2, 61400, Note_on_c, 1, 68, 127
2, 61720, Note_off_c, 1, 58, 0
2, 61720, Note_off_c, 1, 61, 0
2, 61720, Note_off_c, 1, 68, 0
2, 61760, Note_on_c, 1, 58, 127
2, 61760, Note_on_c, 1, 61, 127
2, 61760, Note_on_c, 1, 68, 127
2, 62120, Note_off_c, 1, 58, 0
2, 62120, Note_off_c, 1, 61, 0
2, 62120, Note_off_c, 1, 68, 0
2, 62160, Note_on_c, 1, 58, 127
2, 62160, Note_on_c, 1, 61, 127
2, 62160, Note_on_c, 1, 68, 127
2, 62480, Note_off_c, 1, 58, 0
2, 62480, Note_off_c, 1, 61, 0
2, 62480, Note_off_c, 1, 68, 0
2, 62520, Note_on_c, 1, 60, 127
2, 62520, Note_on_c, 1, 66, 127
2, 62520, Note_on_c, 1, 69, 127
2, 62640, Note_off_c, 1, 60, 0
2, 62640, Note_off_c, 1, 66, 0
2, 62640, Note_off_c, 1, 69, 0
2, 62640, Note_off_c, 1, 75, 0
2, 62680, Note_on_c, 1, 60, 127
2, 62680, Note_on_c, 1, 66, 127
2, 62680, Note_on_c, 1, 69, 127
2, 62680, Note_on_c, 1, 75, 127
2, 62920, Note_off_c, 1, 60, 0
2, 62920, Note_off_c, 1, 66, 0
2, 62920, Note_off_c, 1, 69, 0
2, 62920, Note_off_c, 1, 75, 0
2, 62960, Note_on_c, 1, 52, 127
2, 62960, Note_on_c, 1, 59, 127
2, 62960, Note_on_c, 1, 65, 127
2, 62960, Note_on_c, 1, 68, 127
2, 62960, Note_on_c, 1, 71, 127
2, 62960, Note_on_c, 1, 77, 127
2, 63320, Note_off_c, 1, 52, 0
2, 63320, Note_off_c, 1, 59, 0
2, 63320, Note_off_c, 1, 65, 0
2, 63320, Note_off_c, 1, 68, 0
2, 63320, Note_off_c, 1, 71, 0
2, 63320, Note_off_c, 1, 77, 0
2, 63360, Note_on_c, 1, 57, 127
2, 63360, Note_on_c, 1, 66, 127
2, 63360, Note_on_c, 1, 69, 127
2, 63360, Note_on_c, 1, 74, 127
2, 63360, Note_on_c, 1, 78, 127
2, 63720, Note_off_c, 1, 57, 0
2, 63720, Note_off_c, 1, 66, 0
2, 63720, Note_off_c, 1, 69, 0
2, 63720, Note_off_c, 1, 74, 0
2, 63720, Note_off_c, 1, 78, 0
2, 63760, Note_on_c, 1, 57, 127
2, 63760, Note_on_c, 1, 66, 127
2, 63760, Note_on_c, 1, 69, 127
2, 63760, Note_on_c, 1, 74, 127
2, 63760, Note_on_c, 1, 78, 127
2, 64120, Note_off_c, 1, 57, 0
2, 64120, Note_off_c, 1, 66, 0
2, 64120, Note_off_c, 1, 69, 0
2, 64120, Note_off_c, 1, 74, 0
2, 64120, Note_off_c, 1, 78, 0
2, 64160, Note_on_c, 1, 57, 127
2, 64160, Note_on_c, 1, 66, 127
2, 64160, Note_on_c, 1, 69, 127
2, 64160, Note_on_c, 1, 74, 127
2, 64160, Note_on_c, 1, 78, 127
2, 64520, Note_off_c, 1, 57, 0
2, 64520, Note_off_c, 1, 66, 0
2, 64520, Note_off_c, 1, 69, 0
2, 64520, Note_off_c, 1, 74, 0
2, 64520, Note_off_c, 1, 78, 0
2, 64560, Note_on_c, 1, 57, 127
2, 64560, Note_on_c, 1, 66, 127
2, 64560, Note_on_c, 1, 69, 127
2, 64560, Note_on_c, 1, 74, 127
2, 64560, Note_on_c, 1, 78, 127
2, 64760, Note_off_c, 1, 57, 0
2, 64760, Note_off_c, 1, 66, 0
2, 64760, Note_off_c, 1, 69, 0
2, 64760, Note_off_c, 1, 74, 0
2, 64760, Note_off_c, 1, 78, 0
2, 64800, Note_on_c, 1, 57, 127
2, 64800, Note_on_c, 1, 66, 127
2, 64800, Note_on_c, 1, 69, 127
2, 64800, Note_on_c, 1, 74, 127
2, 64800, Note_on_c, 1, 78, 127
2, 64960, Note_off_c, 1, 66, 0
2, 64960, Note_off_c, 1, 69, 0
2, 64960, Note_off_c, 1, 74, 0
2, 64960, Note_off_c, 1, 78, 0
2, 65000, Note_on_c, 1, 66, 127
2, 65000, Note_on_c, 1, 69, 127
2, 65000, Note_on_c, 1, 74, 127
2, 65000, Note_on_c, 1, 78, 127
2, 65360, Note_off_c, 1, 57, 0
2, 65360, Note_off_c, 1, 66, 0
2, 65360, Note_off_c, 1, 69, 0
2, 65360, Note_off_c, 1, 74, 0
2, 65360, Note_off_c, 1, 78, 0
2, 65400, Note_on_c, 1, 51, 127
2, 65400, Note_on_c, 1, 55, 127
2, 65400, Note_on_c, 1, 58, 127
2, 65400, Note_on_c, 1, 69, 127
2, 65720, Note_off_c, 1, 51, 0
2, 65720, Note_off_c, 1, 55, 0
2, 65720, Note_off_c, 1, 58, 0
2, 65800, Note_on_c, 1, 51, 127
2, 65800, Note_on_c, 1, 55, 127
2, 65800, Note_on_c, 1, 58, 127
2, 66040, Note_off_c, 1, 51, 0
2, 66040, Note_off_c, 1, 55, 0
2, 66040, Note_off_c, 1, 58, 0
2, 66200, Note_on_c, 1, 51, 127
2, 66200, Note_on_c, 1, 55, 127
2, 66200, Note_on_c, 1, 58, 127
2, 66520, Note_off_c, 1, 51, 0
2, 66520, Note_off_c, 1, 55, 0
2, 66520, Note_off_c, 1, 58, 0
2, 66560, Note_off_c, 1, 69, 0
2, 66600, Note_on_c, 1, 51, 127
2, 66600, Note_on_c, 1, 55, 127
2, 66600, Note_on_c, 1, 58, 127
2, 66600, Note_on_c, 1, 69, 127
2, 66920, Note_off_c, 1, 51, 0
2, 66920, Note_off_c, 1, 55, 0
2, 66920, Note_off_c, 1, 58, 0
2, 66960, Note_off_c, 1, 69, 0
2, 67000, Note_on_c, 1, 69, 127
2, 67040, Note_on_c, 1, 51, 127
2, 67040, Note_on_c, 1, 55, 127
2, 67040, Note_on_c, 1, 58, 127
2, 67280, Note_off_c, 1, 51, 0
2, 67280, Note_off_c, 1, 55, 0
2, 67280, Note_off_c, 1, 58, 0
2, 67440, Note_on_c, 1, 51, 127
2, 67440, Note_on_c, 1, 55, 127
2, 67440, Note_on_c, 1, 58, 127
2, 67680, Note_off_c, 1, 51, 0
2, 67680, Note_off_c, 1, 55, 0
2, 67680, Note_off_c, 1, 58, 0
2, 67840, Note_on_c, 1, 51, 127
2, 67840, Note_on_c, 1, 55, 127
2, 67840, Note_on_c, 1, 58, 127
2, 68080, Note_off_c, 1, 51, 0
2, 68080, Note_off_c, 1, 55, 0
2, 68080, Note_off_c, 1, 58, 0
2, 68240, Note_on_c, 1, 51, 127
2, 68240, Note_on_c, 1, 55, 127
2, 68240, Note_on_c, 1, 58, 127
2, 68480, Note_off_c, 1, 51, 0
2, 68480, Note_off_c, 1, 55, 0
2, 68480, Note_off_c, 1, 58, 0
2, 68640, Note_on_c, 1, 51, 127
2, 68640, Note_on_c, 1, 55, 127
2, 68640, Note_on_c, 1, 58, 127
2, 68880, Note_off_c, 1, 51, 0
2, 68880, Note_off_c, 1, 55, 0
2, 68880, Note_off_c, 1, 58, 0
2, 69000, Note_off_c, 1, 69, 0
2, 69080, Note_on_c, 1, 51, 127
2, 69080, Note_on_c, 1, 55, 127
2, 69080, Note_on_c, 1, 58, 127
2, 69080, Note_on_c, 1, 69, 127
2, 69360, Note_off_c, 1, 51, 0
2, 69360, Note_off_c, 1, 55, 0
2, 69360, Note_off_c, 1, 58, 0
2, 69440, Note_on_c, 1, 51, 127
2, 69440, Note_on_c, 1, 55, 127
2, 69440, Note_on_c, 1, 58, 127
2, 69720, Note_off_c, 1, 51, 0
2, 69720, Note_off_c, 1, 55, 0
2, 69720, Note_off_c, 1, 58, 0
2, 69800, Note_on_c, 1, 51, 127
2, 69800, Note_on_c, 1, 55, 127
2, 69800, Note_on_c, 1, 58, 127
2, 70040, Note_off_c, 1, 51, 0
2, 70040, Note_off_c, 1, 55, 0
2, 70040, Note_off_c, 1, 58, 0
2, 70080, Note_on_c, 1, 51, 127
2, 70080, Note_on_c, 1, 55, 127
2, 70080, Note_on_c, 1, 58, 127
2, 70320, Note_off_c, 1, 51, 0
2, 70320, Note_off_c, 1, 55, 0
2, 70320, Note_off_c, 1, 58, 0
2, 70360, Note_off_c, 1, 69, 0
2, 70400, Note_on_c, 1, 51, 127
2, 70400, Note_on_c, 1, 55, 127
2, 70400, Note_on_c, 1, 58, 127
2, 70400, Note_on_c, 1, 69, 127
2, 70640, Note_off_c, 1, 51, 0
2, 70640, Note_off_c, 1, 55, 0
2, 70640, Note_off_c, 1, 58, 0
2, 70680, Note_on_c, 1, 51, 127
2, 70680, Note_on_c, 1, 55, 127
2, 70680, Note_on_c, 1, 58, 127
2, 70920, Note_off_c, 1, 51, 0
2, 70920, Note_off_c, 1, 55, 0
2, 70920, Note_off_c, 1, 58, 0
2, 71000, Note_on_c, 1, 51, 127
2, 71000, Note_on_c, 1, 55, 127
2, 71000, Note_on_c, 1, 58, 127
2, 71200, Note_off_c, 1, 51, 0
2, 71200, Note_off_c, 1, 55, 0
2, 71200, Note_off_c, 1, 58, 0
2, 71200, Note_off_c, 1, 69, 0
2, 71240, Note_on_c, 1, 51, 127
2, 71240, Note_on_c, 1, 55, 127
2, 71240, Note_on_c, 1, 58, 127
2, 71240, Note_on_c, 1, 69, 127
2, 71280, Note_off_c, 1, 51, 0
2, 71280, Note_off_c, 1, 55, 0
2, 71280, Note_off_c, 1, 58, 0
2, 71320, Note_on_c, 1, 51, 127
2, 71320, Note_on_c, 1, 55, 127
2, 71320, Note_on_c, 1, 58, 127
2, 71560, Note_off_c, 1, 51, 0
2, 71560, Note_off_c, 1, 55, 0
2, 71560, Note_off_c, 1, 58, 0
2, 71600, Note_off_c, 1, 69, 0
2, 71640, Note_on_c, 1, 33, 127
2, 71640, Note_on_c, 1, 45, 127
2, 71640, Note_on_c, 1, 60, 127
2, 71640, Note_on_c, 1, 67, 127
2, 71640, Note_on_c, 1, 72, 127
2, 72200, Note_off_c, 1, 33, 0
2, 72200, Note_off_c, 1, 45, 0
2, 72200, Note_off_c, 1, 60, 0
2, 72200, Note_off_c, 1, 67, 0
2, 72200, Note_off_c, 1, 72, 0
2, 72240, Note_on_c, 1, 55, 127
2, 72240, Note_on_c, 1, 62, 127
2, 72240, Note_on_c, 1, 76, 127
2, 72240, Note_on_c, 1, 88, 127
2, 72800, Note_off_c, 1, 55, 0
2, 72800, Note_off_c, 1, 62, 0
2, 72800, Note_off_c, 1, 76, 0
2, 72800, Note_off_c, 1, 88, 0
2, 72840, Note_on_c, 1, 43, 127
2, 72840, Note_on_c, 1, 57, 127
2, 72840, Note_on_c, 1, 60, 127
2, 72840, Note_on_c, 1, 62, 127
2, 72840, Note_on_c, 1, 66, 127
2, 72840, Note_on_c, 1, 69, 127
2, 72840, Note_on_c, 1, 72, 127
2, 73080, Note_on_c, 1, 50, 127
2, 73080, Note_off_c, 1, 60, 0
2, 73080, Note_off_c, 1, 62, 0
2, 73080, Note_off_c, 1, 66, 0
2, 73080, Note_off_c, 1, 69, 0
2, 73080, Note_off_c, 1, 72, 0
2, 73120, Note_off_c, 1, 50, 0
2, 73120, Note_on_c, 1, 60, 127
2, 73120, Note_on_c, 1, 62, 127
2, 73120, Note_on_c, 1, 66, 127
2, 73120, Note_on_c, 1, 69, 127
2, 73120, Note_on_c, 1, 72, 127
2, 73240, Note_off_c, 1, 43, 0
2, 73240, Note_off_c, 1, 57, 0
2, 73240, Note_off_c, 1, 60, 0
2, 73240, Note_off_c, 1, 62, 0
2, 73240, Note_off_c, 1, 66, 0
2, 73240, Note_off_c, 1, 69, 0
2, 73240, Note_off_c, 1, 72, 0
2, 73280, Note_on_c, 1, 43, 127
2, 73280, Note_on_c, 1, 57, 127
2, 73280, Note_on_c, 1, 60, 127
2, 73280, Note_on_c, 1, 62, 127
2, 73280, Note_on_c, 1, 66, 127
2, 73280, Note_on_c, 1, 69, 127
2, 73280, Note_on_c, 1, 72, 127
2, 73400, Note_off_c, 1, 43, 0
2, 73400, Note_off_c, 1, 57, 0
2, 73400, Note_off_c, 1, 60, 0
2, 73400, Note_off_c, 1, 62, 0
2, 73400, Note_off_c, 1, 66, 0
2, 73400, Note_off_c, 1, 69, 0
2, 73400, Note_off_c, 1, 72, 0
2, 73400, Note_on_c, 1, 74, 127
2, 73440, Note_off_c, 1, 74, 0
2, 73480, Note_on_c, 1, 32, 127
2, 73480, Note_on_c, 1, 52, 127
2, 73480, Note_on_c, 1, 57, 127
2, 73480, Note_on_c, 1, 61, 127
2, 73480, Note_on_c, 1, 64, 127
2, 74040, Note_off_c, 1, 32, 0
2, 74040, Note_off_c, 1, 52, 0
2, 74040, Note_off_c, 1, 57, 0
2, 74040, Note_off_c, 1, 61, 0
2, 74040, Note_off_c, 1, 64, 0
2, 74080, Note_on_c, 1, 36, 127
2, 74080, Note_on_c, 1, 48, 127
2, 74080, Note_on_c, 1, 58, 127
2, 74080, Note_on_c, 1, 64, 127
2, 74080, Note_on_c, 1, 72, 127
2, 74640, Note_off_c, 1, 36, 0
2, 74640, Note_off_c, 1, 48, 0
2, 74640, Note_off_c, 1, 58, 0
2, 74640, Note_off_c, 1, 64, 0
2, 74640, Note_off_c, 1, 72, 0
2, 74680, Note_on_c, 1, 53, 127
2, 74680, Note_on_c, 1, 56, 127
2, 74680, Note_on_c, 1, 61, 127
2, 74680, Note_on_c, 1, 65, 127
2, 74680, Note_on_c, 1, 68, 127
2, 74680, Note_on_c, 1, 73, 127
2, 74680, Note_on_c, 1, 77, 127
2, 75440, Note_off_c, 1, 53, 0
2, 75440, Note_off_c, 1, 56, 0
2, 75440, Note_off_c, 1, 61, 0
2, 75440, Note_off_c, 1, 65, 0
2, 75440, Note_off_c, 1, 68, 0
2, 75440, Note_off_c, 1, 73, 0
2, 75440, Note_off_c, 1, 77, 0
2, 75480, Note_on_c, 1, 53, 127
2, 75480, Note_on_c, 1, 56, 127
2, 75480, Note_on_c, 1, 61, 127
2, 75480, Note_on_c, 1, 65, 127
2, 75480, Note_on_c, 1, 68, 127
2, 75480, Note_on_c, 1, 73, 127
2, 75480, Note_on_c, 1, 77, 127
2, 75680, Note_off_c, 1, 53, 0
2, 75680, Note_off_c, 1, 56, 0
2, 75680, Note_off_c, 1, 61, 0
2, 75680, Note_off_c, 1, 65, 0
2, 75680, Note_off_c, 1, 68, 0
2, 75680, Note_off_c, 1, 73, 0
2, 75680, Note_off_c, 1, 77, 0
2, 75720, Note_on_c, 1, 41, 127
2, 75720, Note_on_c, 1, 53, 127
2, 75720, Note_on_c, 1, 63, 127
2, 75720, Note_on_c, 1, 65, 127
2, 75720, Note_on_c, 1, 69, 127
2, 75720, Note_on_c, 1, 74, 127
2, 77680, Note_off_c, 1, 41, 0
2, 77680, Note_off_c, 1, 53, 0
2, 77680, Note_off_c, 1, 63, 0
2, 77680, Note_off_c, 1, 65, 0
2, 77680, Note_off_c, 1, 69, 0
2, 77680, Note_off_c, 1, 74, 0
2, 77720, Note_on_c, 1, 41, 127
2, 77720, Note_on_c, 1, 53, 127
2, 77720, Note_on_c, 1, 63, 127
2, 77720, Note_on_c, 1, 65, 127
2, 77720, Note_on_c, 1, 69, 127
2, 77720, Note_on_c, 1, 74, 127
2, 79680, Note_off_c, 1, 41, 0
2, 79680, Note_off_c, 1, 53, 0
2, 79680, Note_off_c, 1, 63, 0
2, 79680, Note_off_c, 1, 65, 0
2, 79680, Note_off_c, 1, 69, 0
2, 79680, Note_off_c, 1, 74, 0
2, 79720, Note_on_c, 1, 41, 127
2, 79720, Note_on_c, 1, 53, 127
2, 79720, Note_on_c, 1, 63, 127
2, 79720, Note_on_c, 1, 65, 127
2, 79720, Note_on_c, 1, 69, 127
2, 79720, Note_on_c, 1, 74, 127
2, 79880, Note_on_c, 1, 72, 127
2, 79880, Note_off_c, 1, 74, 0
2, 80120, Note_off_c, 1, 41, 0
2, 80120, Note_off_c, 1, 53, 0
2, 80120, Note_off_c, 1, 63, 0
2, 80120, Note_off_c, 1, 65, 0
2, 80120, Note_off_c, 1, 69, 0
2, 80120, Note_off_c, 1, 72, 0
2, 80160, Note_on_c, 1, 41, 127
2, 80160, Note_on_c, 1, 53, 127
2, 80160, Note_on_c, 1, 63, 127
2, 80160, Note_on_c, 1, 65, 127
2, 80160, Note_on_c, 1, 69, 127
2, 80160, Note_on_c, 1, 72, 127
2, 80920, Note_off_c, 1, 41, 0
2, 80920, Note_off_c, 1, 53, 0
2, 80920, Note_off_c, 1, 63, 0
2, 80920, Note_off_c, 1, 65, 0
2, 80920, Note_off_c, 1, 69, 0
2, 80920, Note_off_c, 1, 72, 0
2, 80960, Note_on_c, 1, 41, 127
2, 80960, Note_on_c, 1, 53, 127
2, 80960, Note_on_c, 1, 63, 127
2, 80960, Note_on_c, 1, 65, 127
2, 80960, Note_on_c, 1, 69, 127
2, 80960, Note_on_c, 1, 72, 127
2, 81480, Note_off_c, 1, 41, 0
2, 81480, Note_off_c, 1, 53, 0
2, 81480, Note_off_c, 1, 63, 0
2, 81480, Note_off_c, 1, 65, 0
2, 81480, Note_off_c, 1, 69, 0
2, 81480, Note_off_c, 1, 72, 0
2, 81520, Note_on_c, 1, 41, 127
2, 81520, Note_on_c, 1, 53, 127
2, 81520, Note_on_c, 1, 63, 127
2, 81520, Note_on_c, 1, 65, 127
2, 81520, Note_on_c, 1, 69, 127
2, 81520, Note_on_c, 1, 72, 127
2, 82040, Note_off_c, 1, 41, 0
2, 82040, Note_off_c, 1, 53, 0
2, 82040, Note_off_c, 1, 63, 0
2, 82040, Note_off_c, 1, 65, 0
2, 82040, Note_off_c, 1, 69, 0
2, 82040, Note_off_c, 1, 72, 0
2, 82080, Note_on_c, 1, 41, 127
2, 82080, Note_on_c, 1, 53, 127
2, 82080, Note_on_c, 1, 63, 127
2, 82080, Note_on_c, 1, 65, 127
2, 82080, Note_on_c, 1, 69, 127
2, 82080, Note_on_c, 1, 72, 127
2, 82680, Note_off_c, 1, 41, 0
2, 82680, Note_off_c, 1, 53, 0
2, 82680, Note_off_c, 1, 63, 0
2, 82680, Note_off_c, 1, 65, 0
2, 82680, Note_off_c, 1, 69, 0
2, 82680, Note_off_c, 1, 72, 0
2, 82720, Note_on_c, 1, 51, 127
2, 82720, Note_on_c, 1, 62, 127
2, 82720, Note_on_c, 1, 65, 127
2, 82720, Note_on_c, 1, 71, 127
2, 83280, Note_off_c, 1, 51, 0
2, 83280, Note_off_c, 1, 62, 0
2, 83280, Note_off_c, 1, 65, 0
2, 83280, Note_off_c, 1, 71, 0
2, 83320, Note_on_c, 1, 46, 127
2, 83320, Note_on_c, 1, 56, 127
2, 83320, Note_on_c, 1, 58, 127
2, 83320, Note_on_c, 1, 73, 127
2, 83320, Note_on_c, 1, 80, 127
2, 83320, Note_on_c, 1, 85, 127
2, 83840, Note_off_c, 1, 46, 0
2, 83840, Note_off_c, 1, 56, 0
2, 83840, Note_off_c, 1, 58, 0
2, 83840, Note_off_c, 1, 73, 0
2, 83840, Note_off_c, 1, 80, 0
2, 83840, Note_off_c, 1, 85, 0
2, 83920, Note_on_c, 1, 40, 127
2, 83920, Note_on_c, 1, 45, 127
2, 83920, Note_on_c, 1, 56, 127
2, 83920, Note_on_c, 1, 61, 127
2, 83920, Note_on_c, 1, 68, 127
2, 84720, Note_off_c, 1, 40, 0
2, 84720, Note_off_c, 1, 45, 0
2, 84720, Note_off_c, 1, 56, 0
2, 84720, Note_off_c, 1, 61, 0
2, 84720, Note_off_c, 1, 68, 0
2, 84760, Note_on_c, 1, 40, 127
2, 84760, Note_on_c, 1, 45, 127
2, 84760, Note_on_c, 1, 56, 127
2, 84760, Note_on_c, 1, 61, 127
2, 84760, Note_on_c, 1, 68, 127
2, 86280, Note_on_c, 1, 44, 127
2, 86280, Note_off_c, 1, 45, 0
2, 87000, Note_off_c, 1, 40, 0
2, 87000, Note_off_c, 1, 44, 0
2, 87000, Note_off_c, 1, 56, 0
2, 87000, Note_off_c, 1, 61, 0
2, 87000, Note_on_c, 1, 67, 127
2, 87000, Note_off_c, 1, 68, 0
2, 87000, Note_on_c, 1, 72, 127
2, 87000, Note_on_c, 1, 76, 127
2, 87000, Note_on_c, 1, 88, 127
2, 87000, Note_on_c, 1, 96, 127
2, 87000, Note_on_c, 1, 100, 127
2, 87040, Note_off_c, 1, 67, 0
2, 87040, Note_off_c, 1, 72, 0
2, 87040, Note_off_c, 1, 76, 0
2, 87040, Note_off_c, 1, 88, 0
2, 87040, Note_off_c, 1, 96, 0
2, 87040, Note_off_c, 1, 100, 0
2, 87080, Note_on_c, 1, 35, 127
2, 87080, Note_on_c, 1, 42, 127
2, 87080, Note_on_c, 1, 64, 127
2, 87080, Note_on_c, 1, 67, 127
2, 87080, Note_on_c, 1, 70, 127
2, 87080, Note_on_c, 1, 73, 127
2, 87120, Note_off_c, 1, 35, 0
2, 87120, Note_off_c, 1, 42, 0
2, 87120, Note_on_c, 1, 52, 127
2, 87120, Note_off_c, 1, 67, 0
2, 87120, Note_off_c, 1, 70, 0
2, 87120, Note_off_c, 1, 73, 0
2, 87120, Note_on_c, 1, 81, 127
2, 87120, Note_on_c, 1, 88, 127
2, 87120, Note_on_c, 1, 93, 127
2, 87160, Note_on_c, 1, 35, 127
2, 87160, Note_on_c, 1, 42, 127
2, 87160, Note_off_c, 1, 52, 0
2, 87160, Note_on_c, 1, 67, 127
2, 87160, Note_on_c, 1, 70, 127
2, 87160, Note_on_c, 1, 73, 127
2, 87160, Note_off_c, 1, 81, 0
2, 87160, Note_off_c, 1, 88, 0
2, 87160, Note_off_c, 1, 93, 0
2, 87200, Note_off_c, 1, 35, 0
2, 87200, Note_off_c, 1, 42, 0
2, 87200, Note_on_c, 1, 55, 127
2, 87200, Note_off_c, 1, 64, 0
2, 87200, Note_off_c, 1, 67, 0
2, 87200, Note_off_c, 1, 70, 0
2, 87200, Note_off_c, 1, 73, 0
2, 87200, Note_on_c, 1, 79, 127
2, 87200, Note_on_c, 1, 87, 127
2, 87240, Note_on_c, 1, 46, 127
2, 87240, Note_off_c, 1, 55, 0
2, 87240, Note_on_c, 1, 56, 127
2, 87240, Note_on_c, 1, 58, 127
2, 87240, Note_on_c, 1, 64, 127
2, 87240, Note_on_c, 1, 68, 127
2, 87240, Note_on_c, 1, 73, 127
2, 87240, Note_off_c, 1, 79, 0
2, 87240, Note_off_c, 1, 87, 0
2, 87280, Note_on_c, 1, 42, 127
2, 87280, Note_on_c, 1, 45, 127
2, 87280, Note_off_c, 1, 46, 0
2, 87280, Note_on_c, 1, 54, 127
2, 87280, Note_off_c, 1, 56, 0
2, 87280, Note_off_c, 1, 58, 0
2, 87280, Note_off_c, 1, 64, 0
2, 87280, Note_off_c, 1, 68, 0
2, 87280, Note_off_c, 1, 73, 0
2, 87280, Note_on_c, 1, 85, 127
2, 87320, Note_off_c, 1, 42, 0
2, 87320, Note_off_c, 1, 45, 0
2, 87320, Note_off_c, 1, 54, 0
2, 87320, Note_on_c, 1, 57, 127
2, 87320, Note_on_c, 1, 63, 127
2, 87320, Note_on_c, 1, 81, 127
2, 87320, Note_off_c, 1, 85, 0
2, 87360, Note_on_c, 1, 51, 127
2, 87360, Note_off_c, 1, 57, 0
2, 87360, Note_on_c, 1, 58, 127
2, 87360, Note_on_c, 1, 61, 127
2, 87360, Note_off_c, 1, 63, 0
2, 87360, Note_on_c, 1, 67, 127
2, 87360, Note_on_c, 1, 73, 127
2, 87360, Note_on_c, 1, 77, 127
2, 87360, Note_off_c, 1, 81, 0
2, 87400, Note_off_c, 1, 51, 0
2, 87400, Note_off_c, 1, 58, 0
2, 87400, Note_off_c, 1, 61, 0
2, 87400, Note_off_c, 1, 67, 0
2, 87400, Note_off_c, 1, 73, 0
2, 87400, Note_off_c, 1, 77, 0
2, 87400, Note_on_c, 1, 92, 127
2, 87400, Note_on_c, 1, 95, 127
2, 87400, Note_on_c, 1, 98, 127
2, 87440, Note_on_c, 1, 47, 127
2, 87440, Note_on_c, 1, 54, 127
2, 87440, Note_on_c, 1, 61, 127
2, 87440, Note_off_c, 1, 92, 0
2, 87440, Note_off_c, 1, 98, 0
2, 87480, Note_on_c, 1, 27, 127
2, 87480, Note_on_c, 1, 39, 127
2, 87480, Note_off_c, 1, 47, 0
2, 87480, Note_off_c, 1, 54, 0
2, 87480, Note_off_c, 1, 61, 0
2, 87480, Note_on_c, 1, 72, 127
2, 87480, Note_on_c, 1, 80, 127
2, 87480, Note_on_c, 1, 84, 127
2, 87480, Note_off_c, 1, 95, 0
2, 87520, Note_off_c, 1, 27, 0
2, 87520, Note_on_c, 1, 35, 127
2, 87520, Note_off_c, 1, 39, 0
2, 87520, Note_on_c, 1, 47, 127
2, 87520, Note_on_c, 1, 62, 127
2, 87520, Note_off_c, 1, 72, 0
2, 87520, Note_off_c, 1, 80, 0
2, 87520, Note_on_c, 1, 82, 127
2, 87520, Note_off_c, 1, 84, 0
2, 87520, Note_on_c, 1, 94, 127
2, 87560, Note_off_c, 1, 35, 0
2, 87560, Note_off_c, 1, 47, 0
2, 87560, Note_on_c, 1, 49, 127
2, 87560, Note_on_c, 1, 55, 127
2, 87560, Note_off_c, 1, 62, 0
2, 87560, Note_on_c, 1, 64, 127
2, 87560, Note_on_c, 1, 69, 127
2, 87560, Note_on_c, 1, 73, 127
2, 87560, Note_off_c, 1, 82, 0
2, 87560, Note_off_c, 1, 94, 0
2, 87600, Note_off_c, 1, 49, 0
2, 87600, Note_off_c, 1, 55, 0
2, 87600, Note_off_c, 1, 64, 0
2, 87600, Note_off_c, 1, 69, 0
2, 87600, Note_off_c, 1, 73, 0
2, 87600, Note_on_c, 1, 91, 127
2, 87600, Note_on_c, 1, 92, 127
2, 87600, Note_on_c, 1, 95, 127
2, 87600, Note_on_c, 1, 96, 127
2, 87640, Note_on_c, 1, 66, 127
2, 87640, Note_on_c, 1, 70, 127
2, 87640, Note_on_c, 1, 73, 127
2, 87640, Note_on_c, 1, 76, 127
2, 87640, Note_off_c, 1, 92, 0
2, 87640, Note_off_c, 1, 95, 0
2, 87640, Note_off_c, 1, 96, 0
2, 87680, Note_off_c, 1, 66, 0
2, 87680, Note_on_c, 1, 69, 127
2, 87680, Note_off_c, 1, 70, 0
2, 87680, Note_off_c, 1, 73, 0
2, 87680, Note_off_c, 1, 76, 0
2, 87680, Note_on_c, 1, 85, 127
2, 87680, Note_off_c, 1, 91, 0
2, 87680, Note_on_c, 1, 97, 127
2, 87680, Note_on_c, 1, 98, 127
2, 87720, Note_on_c, 1, 64, 127
2, 87720, Note_on_c, 1, 67, 127
2, 87720, Note_on_c, 1, 74, 127
2, 87720, Note_off_c, 1, 85, 0
2, 87720, Note_off_c, 1, 97, 0
2, 87720, Note_off_c, 1, 98, 0
2, 87760, Note_on_c, 1, 38, 127
2, 87760, Note_on_c, 1, 42, 127
2, 87760, Note_on_c, 1, 50, 127
2, 87760, Note_off_c, 1, 64, 0
2, 87760, Note_off_c, 1, 67, 0
2, 87760, Note_off_c, 1, 69, 0
2, 87760, Note_off_c, 1, 74, 0
2, 87760, Note_on_c, 1, 78, 127
2, 87760, Note_on_c, 1, 81, 127
2, 87760, Note_on_c, 1, 86, 127
2, 87760, Note_on_c, 1, 90, 127
2, 87800, Note_off_c, 1, 38, 0
2, 87800, Note_off_c, 1, 42, 0
2, 87800, Note_off_c, 1, 50, 0
2, 87800, Note_on_c, 1, 56, 127
2, 87800, Note_on_c, 1, 59, 127
2, 87800, Note_on_c, 1, 62, 127
2, 87800, Note_on_c, 1, 64, 127
2, 87800, Note_on_c, 1, 71, 127
2, 87800, Note_on_c, 1, 74, 127
2, 87800, Note_off_c, 1, 78, 0
2, 87800, Note_off_c, 1, 81, 0
2, 87800, Note_off_c, 1, 86, 0
2, 87800, Note_off_c, 1, 90, 0
2, 87840, Note_off_c, 1, 56, 0
2, 87840, Note_off_c, 1, 59, 0
2, 87840, Note_off_c, 1, 62, 0
2, 87840, Note_off_c, 1, 64, 0
2, 87840, Note_off_c, 1, 71, 0
2, 87840, Note_off_c, 1, 74, 0
2, 87840, Note_on_c, 1, 83, 127
2, 87840, Note_on_c, 1, 92, 127
2, 87840, Note_on_c, 1, 95, 127
2, 87880, Note_on_c, 1, 53, 127
2, 87880, Note_on_c, 1, 61, 127
2, 87880, Note_on_c, 1, 66, 127
2, 87880, Note_on_c, 1, 70, 127
2, 87880, Note_on_c, 1, 73, 127
2, 87880, Note_off_c, 1, 83, 0
2, 87880, Note_off_c, 1, 92, 0
2, 87880, Note_off_c, 1, 95, 0
2, 87920, Note_on_c, 1, 41, 127
2, 87920, Note_on_c, 1, 45, 127
2, 87920, Note_on_c, 1, 50, 127
2, 87920, Note_on_c, 1, 57, 127
2, 87920, Note_off_c, 1, 61, 0
2, 87920, Note_off_c, 1, 66, 0
2, 87920, Note_off_c, 1, 70, 0
2, 87920, Note_off_c, 1, 73, 0
2, 87960, Note_off_c, 1, 41, 0
2, 87960, Note_off_c, 1, 45, 0
2, 87960, Note_off_c, 1, 50, 0
2, 87960, Note_off_c, 1, 57, 0
2, 87960, Note_on_c, 1, 61, 127
2, 87960, Note_on_c, 1, 66, 127
2, 87960, Note_on_c, 1, 70, 127
2, 87960, Note_on_c, 1, 73, 127
2, 88000, Note_off_c, 1, 53, 0
2, 88000, Note_off_c, 1, 61, 0
2, 88000, Note_off_c, 1, 66, 0
2, 88000, Note_off_c, 1, 70, 0
2, 88000, Note_on_c, 1, 72, 127
2, 88000, Note_off_c, 1, 73, 0
2, 88000, Note_on_c, 1, 79, 127
2, 88000, Note_on_c, 1, 82, 127
2, 88000, Note_on_c, 1, 89, 127
2, 88000, Note_on_c, 1, 96, 127
2, 88000, Note_on_c, 1, 101, 127
2, 88040, Note_on_c, 1, 53, 127
2, 88040, Note_on_c, 1, 61, 127
2, 88040, Note_on_c, 1, 66, 127
2, 88040, Note_on_c, 1, 70, 127
2, 88040, Note_off_c, 1, 72, 0
2, 88040, Note_on_c, 1, 73, 127
2, 88040, Note_off_c, 1, 79, 0
2, 88040, Note_off_c, 1, 82, 0
2, 88040, Note_off_c, 1, 89, 0
2, 88040, Note_off_c, 1, 96, 0
2, 88040, Note_off_c, 1, 101, 0
2, 88200, Note_off_c, 1, 61, 0
2, 88200, Note_off_c, 1, 66, 0
2, 88200, Note_on_c, 1, 69, 127
2, 88200, Note_off_c, 1, 70, 0
2, 88200, Note_off_c, 1, 73, 0
2, 88200, Note_on_c, 1, 75, 127
2, 88200, Note_on_c, 1, 77, 127
2, 88240, Note_off_c, 1, 53, 0
2, 88240, Note_on_c, 1, 61, 127
2, 88240, Note_off_c, 1, 69, 0
2, 88240, Note_off_c, 1, 75, 0
2, 88240, Note_off_c, 1, 77, 0
2, 88280, Note_on_c, 1, 53, 127
2, 88280, Note_on_c, 1, 56, 127
2, 88280, Note_on_c, 1, 82, 127
2, 88280, Note_on_c, 1, 84, 127
2, 88320, Note_off_c, 1, 53, 0
2, 88320, Note_off_c, 1, 56, 0
2, 88320, Note_off_c, 1, 61, 0
2, 88320, Note_on_c, 1, 63, 127
2, 88320, Note_off_c, 1, 84, 0
2, 88320, Note_on_c, 1, 87, 127
2, 88320, Note_on_c, 1, 94, 127
2, 88360, Note_on_c, 1, 44, 127
2, 88360, Note_on_c, 1, 68, 127
2, 88360, Note_on_c, 1, 73, 127
2, 88360, Note_on_c, 1, 75, 127
2, 88360, Note_off_c, 1, 82, 0
2, 88360, Note_off_c, 1, 87, 0
2, 88360, Note_off_c, 1, 94, 0
2, 88400, Note_off_c, 1, 44, 0
2, 88400, Note_on_c, 1, 45, 127
2, 88400, Note_on_c, 1, 52, 127
2, 88400, Note_on_c, 1, 59, 127
2, 88400, Note_on_c, 1, 62, 127
2, 88400, Note_off_c, 1, 63, 0
2, 88400, Note_on_c, 1, 67, 127
2, 88400, Note_off_c, 1, 68, 0
2, 88400, Note_off_c, 1, 73, 0
2, 88400, Note_off_c, 1, 75, 0
2, 88440, Note_off_c, 1, 45, 0
2, 88440, Note_off_c, 1, 52, 0
2, 88440, Note_on_c, 1, 56, 127
2, 88440, Note_off_c, 1, 59, 0
2, 88440, Note_off_c, 1, 62, 0
2, 88440, Note_on_c, 1, 65, 127
2, 88440, Note_off_c, 1, 67, 0
2, 88440, Note_on_c, 1, 79, 127
2, 88440, Note_on_c, 1, 84, 127
2, 88480, Note_off_c, 1, 56, 0
2, 88480, Note_on_c, 1, 63, 127
2, 88480, Note_on_c, 1, 64, 127
2, 88480, Note_off_c, 1, 65, 0
2, 88480, Note_on_c, 1, 68, 127
2, 88480, Note_on_c, 1, 71, 127
2, 88480, Note_on_c, 1, 75, 127
2, 88480, Note_off_c, 1, 79, 0
2, 88480, Note_off_c, 1, 84, 0
2, 88520, Note_on_c, 1, 50, 127
2, 88520, Note_on_c, 1, 56, 127
2, 88520, Note_on_c, 1, 61, 127
2, 88520, Note_off_c, 1, 63, 0
2, 88520, Note_off_c, 1, 64, 0
2, 88520, Note_off_c, 1, 68, 0
2, 88520, Note_off_c, 1, 71, 0
2, 88520, Note_off_c, 1, 75, 0
2, 88560, Note_on_c, 1, 44, 127
2, 88560, Note_on_c, 1, 48, 127
2, 88560, Note_off_c, 1, 50, 0
2, 88560, Note_on_c, 1, 53, 127
2, 88560, Note_off_c, 1, 56, 0
2, 88560, Note_off_c, 1, 61, 0
2, 88560, Note_on_c, 1, 84, 127
2, 88600, Note_off_c, 1, 44, 0
2, 88600, Note_on_c, 1, 45, 127
2, 88600, Note_off_c, 1, 48, 0
2, 88600, Note_on_c, 1, 50, 127
2, 88600, Note_on_c, 1, 51, 127
2, 88600, Note_off_c, 1, 53, 0
2, 88600, Note_on_c, 1, 63, 127
2, 88600, Note_on_c, 1, 66, 127
2, 88600, Note_on_c, 1, 75, 127
2, 88600, Note_off_c, 1, 84, 0
2, 88640, Note_off_c, 1, 45, 0
2, 88640, Note_off_c, 1, 50, 0
2, 88640, Note_off_c, 1, 63, 0
2, 88640, Note_off_c, 1, 66, 0
2, 88640, Note_off_c, 1, 75, 0
2, 88640, Note_on_c, 1, 80, 127
2, 88640, Note_on_c, 1, 83, 127
2, 88680, Note_on_c, 1, 47, 127
2, 88680, Note_off_c, 1, 51, 0
2, 88680, Note_on_c, 1, 54, 127
2, 88680, Note_on_c, 1, 57, 127
2, 88680, Note_on_c, 1, 60, 127
2, 88680, Note_on_c, 1, 75, 127
2, 88680, Note_off_c, 1, 80, 0
2, 88680, Note_off_c, 1, 83, 0
2, 88720, Note_off_c, 1, 75, 0
2, 88720, Note_on_c, 1, 78, 127
2, 88760, Note_off_c, 1, 47, 0
2, 88760, Note_on_c, 1, 49, 127
2, 88760, Note_on_c, 1, 56, 127
2, 88760, Note_off_c, 1, 57, 0
2, 88760, Note_off_c, 1, 60, 0
2, 88760, Note_on_c, 1, 63, 127
2, 88760, Note_on_c, 1, 68, 127
2, 88760, Note_off_c, 1, 78, 0
2, 88800, Note_on_c, 1, 36, 127
2, 88800, Note_on_c, 1, 45, 127
2, 88800, Note_off_c, 1, 49, 0
2, 88800, Note_off_c, 1, 54, 0
2, 88800, Note_on_c, 1, 66, 127
2, 88840, Note_off_c, 1, 36, 0
2, 88840, Note_off_c, 1, 45, 0
2, 88840, Note_off_c, 1, 56, 0
2, 88840, Note_off_c, 1, 63, 0
2, 88840, Note_off_c, 1, 66, 0
2, 88840, Note_off_c, 1, 68, 0
2, 88880, Note_on_c, 1, 50, 127
2, 88880, Note_on_c, 1, 57, 127
2, 88880, Note_on_c, 1, 65, 127
2, 88880, Note_on_c, 1, 74, 127
2, 88880, Note_on_c, 1, 77, 127
2, 88880, Note_on_c, 1, 81, 127
2, 88880, Note_on_c, 1, 86, 127
2, 89080, Note_off_c, 1, 50, 0
2, 89080, Note_off_c, 1, 57, 0
2, 89080, Note_off_c, 1, 65, 0
2, 89080, Note_off_c, 1, 74, 0
2, 89080, Note_off_c, 1, 77, 0
2, 89080, Note_off_c, 1, 81, 0
2, 89080, Note_off_c, 1, 86, 0
2, 89120, Note_on_c, 1, 50, 127
2, 89120, Note_on_c, 1, 57, 127
2, 89120, Note_on_c, 1, 65, 127
2, 89120, Note_on_c, 1, 74, 127
2, 89120, Note_on_c, 1, 77, 127
2, 89120, Note_on_c, 1, 81, 127
2, 89120, Note_on_c, 1, 86, 127
2, 89480, Note_off_c, 1, 50, 0
2, 89480, Note_off_c, 1, 57, 0
2, 89480, Note_off_c, 1, 65, 0
2, 89480, Note_off_c, 1, 74, 0
2, 89480, Note_off_c, 1, 77, 0
2, 89480, Note_off_c, 1, 81, 0
2, 89480, Note_off_c, 1, 86, 0
2, 89520, Note_on_c, 1, 51, 127
2, 89520, Note_on_c, 1, 54, 127
2, 89520, Note_on_c, 1, 59, 127
2, 89520, Note_on_c, 1, 83, 127
2, 89840, Note_off_c, 1, 83, 0
2, 89880, Note_off_c, 1, 51, 0
2, 89880, Note_off_c, 1, 54, 0
2, 89880, Note_off_c, 1, 59, 0
2, 89880, Note_on_c, 1, 83, 127
2, 89920, Note_on_c, 1, 55, 127
2, 89920, Note_on_c, 1, 58, 127
2, 89920, Note_on_c, 1, 70, 127
2, 89920, Note_on_c, 1, 73, 127
2, 89920, Note_on_c, 1, 82, 127
2, 89920, Note_off_c, 1, 83, 0
2, 89960, Note_on_c, 1, 50, 127
2, 89960, Note_off_c, 1, 55, 0
2, 89960, Note_off_c, 1, 58, 0
2, 89960, Note_on_c, 1, 66, 127
2, 89960, Note_on_c, 1, 69, 127
2, 89960, Note_off_c, 1, 70, 0
2, 89960, Note_on_c, 1, 72, 127
2, 89960, Note_off_c, 1, 73, 0
2, 89960, Note_on_c, 1, 78, 127
2, 89960, Note_off_c, 1, 82, 0
2, 90000, Note_on_c, 1, 47, 127
2, 90000, Note_off_c, 1, 50, 0
2, 90000, Note_on_c, 1, 51, 127
2, 90000, Note_on_c, 1, 56, 127
2, 90000, Note_off_c, 1, 66, 0
2, 90000, Note_off_c, 1, 69, 0
2, 90000, Note_off_c, 1, 72, 0
2, 90000, Note_on_c, 1, 75, 127
2, 90000, Note_off_c, 1, 78, 0
2, 90000, Note_on_c, 1, 87, 127
2, 90040, Note_off_c, 1, 47, 0
2, 90040, Note_off_c, 1, 51, 0
2, 90040, Note_on_c, 1, 53, 127
2, 90040, Note_on_c, 1, 55, 127
2, 90040, Note_off_c, 1, 56, 0
2, 90040, Note_on_c, 1, 58, 127
2, 90040, Note_off_c, 1, 75, 0
2, 90040, Note_on_c, 1, 79, 127
2, 90040, Note_off_c, 1, 87, 0
2, 90080, Note_on_c, 1, 52, 127
2, 90080, Note_off_c, 1, 53, 0
2, 90080, Note_off_c, 1, 55, 0
2, 90080, Note_off_c, 1, 58, 0
2, 90080, Note_on_c, 1, 66, 127
2, 90080, Note_on_c, 1, 69, 127
2, 90080, Note_on_c, 1, 78, 127
2, 90080, Note_off_c, 1, 79, 0
2, 90280, Note_off_c, 1, 52, 0
2, 90280, Note_on_c, 1, 60, 127
2, 90280, Note_on_c, 1, 63, 127
2, 90280, Note_off_c, 1, 69, 0
2, 90280, Note_on_c, 1, 74, 127
2, 90320, Note_on_c, 1, 38, 127
2, 90320, Note_on_c, 1, 43, 127
2, 90320, Note_on_c, 1, 53, 127
2, 90320, Note_off_c, 1, 60, 0
2, 90320, Note_off_c, 1, 63, 0
2, 90320, Note_on_c, 1, 65, 127
2, 90320, Note_off_c, 1, 66, 0
2, 90320, Note_off_c, 1, 74, 0
2, 90320, Note_off_c, 1, 78, 0
2, 90360, Note_on_c, 1, 31, 127
2, 90360, Note_off_c, 1, 38, 0
2, 90360, Note_off_c, 1, 43, 0
2, 90360, Note_off_c, 1, 53, 0
2, 90360, Note_on_c, 1, 60, 127
2, 90360, Note_on_c, 1, 62, 127
2, 90360, Note_off_c, 1, 65, 0
2, 90400, Note_off_c, 1, 31, 0
2, 90400, Note_on_c, 1, 38, 127
2, 90400, Note_on_c, 1, 46, 127
2, 90400, Note_on_c, 1, 54, 127
2, 90400, Note_on_c, 1, 58, 127
2, 90400, Note_off_c, 1, 60, 0
2, 90400, Note_off_c, 1, 62, 0
2, 90400, Note_on_c, 1, 70, 127
2, 90440, Note_on_c, 1, 31, 127
2, 90440, Note_off_c, 1, 38, 0
2, 90440, Note_off_c, 1, 46, 0
2, 90440, Note_off_c, 1, 54, 0
2, 90440, Note_off_c, 1, 58, 0
2, 90440, Note_on_c, 1, 60, 127
2, 90440, Note_on_c, 1, 62, 127
2, 90440, Note_off_c, 1, 70, 0
2, 90480, Note_off_c, 1, 31, 0
2, 90480, Note_on_c, 1, 41, 127
2, 90480, Note_on_c, 1, 50, 127
2, 90480, Note_on_c, 1, 56, 127
2, 90480, Note_off_c, 1, 60, 0
2, 90480, Note_on_c, 1, 61, 127
2, 90480, Note_off_c, 1, 62, 0
2, 90520, Note_on_c, 1, 31, 127
2, 90520, Note_off_c, 1, 41, 0
2, 90520, Note_off_c, 1, 50, 0
2, 90520, Note_off_c, 1, 56, 0
2, 90520, Note_on_c, 1, 60, 127
2, 90520, Note_off_c, 1, 61, 0
2, 90520, Note_on_c, 1, 62, 127
2, 90680, Note_off_c, 1, 31, 0
2, 90680, Note_on_c, 1, 47, 127
2, 90680, Note_on_c, 1, 59, 127
2, 90680, Note_off_c, 1, 60, 0
2, 90680, Note_on_c, 1, 71, 127
2, 91000, Note_off_c, 1, 47, 0
2, 91000, Note_off_c, 1, 59, 0
2, 91000, Note_off_c, 1, 62, 0
2, 91000, Note_off_c, 1, 71, 0
2, 91040, Note_on_c, 1, 47, 127
2, 91040, Note_on_c, 1, 59, 127
2, 91040, Note_on_c, 1, 62, 127
2, 91040, Note_on_c, 1, 71, 127
2, 91320, Note_off_c, 1, 47, 0
2, 91320, Note_off_c, 1, 59, 0
2, 91320, Note_off_c, 1, 62, 0
2, 91320, Note_off_c, 1, 71, 0
2, 91360, Note_on_c, 1, 59, 127
2, 91360, Note_on_c, 1, 62, 127
2, 91360, Note_on_c, 1, 66, 127
2, 91360, Note_on_c, 1, 71, 127
2, 92080, Note_off_c, 1, 59, 0
2, 92080, Note_off_c, 1, 62, 0
2, 92080, Note_off_c, 1, 66, 0
2, 92080, Note_off_c, 1, 71, 0
2, 92120, Note_on_c, 1, 47, 127
2, 92120, Note_on_c, 1, 58, 127
2, 92120, Note_on_c, 1, 64, 127
2, 92200, Note_off_c, 1, 64, 0
2, 92200, Note_on_c, 1, 66, 127
2, 92240, Note_off_c, 1, 66, 0
2, 92480, Note_off_c, 1, 47, 0
2, 92480, Note_off_c, 1, 58, 0
2, 92520, Note_on_c, 1, 38, 127
2, 92520, Note_on_c, 1, 57, 127
2, 92520, Note_on_c, 1, 66, 127
2, 93080, Note_off_c, 1, 38, 0
2, 93080, Note_off_c, 1, 57, 0
2, 93080, Note_off_c, 1, 66, 0
2, 93120, Note_on_c, 1, 38, 127
2, 93120, Note_on_c, 1, 57, 127
2, 93120, Note_on_c, 1, 66, 127
2, 93320, Note_off_c, 1, 38, 0
2, 93320, Note_off_c, 1, 57, 0
2, 93320, Note_off_c, 1, 66, 0
2, 93360, Note_on_c, 1, 50, 127
2, 93360, Note_on_c, 1, 56, 127
2, 93360, Note_on_c, 1, 59, 127
2, 93360, Note_on_c, 1, 71, 127
2, 94480, Note_off_c, 1, 50, 0
2, 94480, Note_off_c, 1, 56, 0
2, 94480, Note_off_c, 1, 59, 0
2, 94480, Note_off_c, 1, 71, 0
2, 94520, Note_on_c, 1, 51, 127
2, 94520, Note_on_c, 1, 56, 127
2, 94520, Note_on_c, 1, 66, 127
2, 94520, Note_on_c, 1, 72, 127
2, 95120, Note_off_c, 1, 51, 0
2, 95120, Note_off_c, 1, 56, 0
2, 95120, Note_off_c, 1, 66, 0
2, 95120, Note_off_c, 1, 72, 0
2, 95160, Note_on_c, 1, 51, 127
2, 95160, Note_on_c, 1, 56, 127
2, 95160, Note_on_c, 1, 66, 127
2, 95160, Note_on_c, 1, 72, 127
2, 95680, Note_off_c, 1, 51, 0
2, 95680, Note_off_c, 1, 56, 0
2, 95680, Note_off_c, 1, 66, 0
2, 95680, Note_off_c, 1, 72, 0
2, 95720, Note_on_c, 1, 55, 127
2, 95720, Note_on_c, 1, 93, 127
2, 95720, Note_on_c, 1, 96, 127
2, 95760, Note_on_c, 1, 35, 127
2, 95760, Note_on_c, 1, 47, 127
2, 95760, Note_off_c, 1, 55, 0
2, 95760, Note_on_c, 1, 63, 127
2, 95760, Note_on_c, 1, 66, 127
2, 95760, Note_on_c, 1, 75, 127
2, 95760, Note_on_c, 1, 87, 127
2, 95760, Note_off_c, 1, 93, 0
2, 95760, Note_off_c, 1, 96, 0
2, 95800, Note_off_c, 1, 35, 0
2, 95800, Note_off_c, 1, 47, 0
2, 95800, Note_on_c, 1, 49, 127
2, 95800, Note_on_c, 1, 52, 127
2, 95800, Note_on_c, 1, 56, 127
2, 95800, Note_on_c, 1, 61, 127
2, 95800, Note_off_c, 1, 63, 0
2, 95800, Note_off_c, 1, 66, 0
2, 95800, Note_off_c, 1, 75, 0
2, 95800, Note_on_c, 1, 84, 127
2, 95800, Note_off_c, 1, 87, 0
2, 95840, Note_on_c, 1, 35, 127
2, 95840, Note_on_c, 1, 47, 127
2, 95840, Note_off_c, 1, 49, 0
2, 95840, Note_off_c, 1, 52, 0
2, 95840, Note_off_c, 1, 56, 0
2, 95840, Note_off_c, 1, 61, 0
2, 95840, Note_on_c, 1, 63, 127
2, 95840, Note_on_c, 1, 66, 127
2, 95840, Note_on_c, 1, 75, 127
2, 95840, Note_off_c, 1, 84, 0
2, 95840, Note_on_c, 1, 87, 127
2, 96480, Note_off_c, 1, 35, 0
2, 96480, Note_off_c, 1, 47, 0
2, 96480, Note_off_c, 1, 63, 0
2, 96480, Note_off_c, 1, 66, 0
2, 96480, Note_off_c, 1, 75, 0
2, 96480, Note_off_c, 1, 87, 0
2, 96520, Note_on_c, 1, 30, 127
2, 96520, Note_on_c, 1, 81, 127
2, 96520, Note_on_c, 1, 85, 127
2, 96520, Note_on_c, 1, 90, 127
2, 96520, Note_on_c, 1, 93, 127
2, 96560, Note_off_c, 1, 30, 0
2, 96560, Note_on_c, 1, 55, 127
2, 96560, Note_on_c, 1, 59, 127
2, 96560, Note_on_c, 1, 64, 127
2, 96560, Note_on_c, 1, 67, 127
2, 96560, Note_on_c, 1, 70, 127
2, 96560, Note_off_c, 1, 81, 0
2, 96560, Note_off_c, 1, 85, 0
2, 96560, Note_off_c, 1, 90, 0
2, 96560, Note_off_c, 1, 93, 0
2, 96600, Note_on_c, 1, 42, 127
2, 96600, Note_off_c, 1, 55, 0
2, 96600, Note_off_c, 1, 59, 0
2, 96600, Note_off_c, 1, 64, 0
2, 96600, Note_off_c, 1, 67, 0
2, 96600, Note_off_c, 1, 70, 0
2, 96600, Note_on_c, 1, 81, 127
2, 96600, Note_on_c, 1, 85, 127
2, 96600, Note_on_c, 1, 90, 127
2, 96600, Note_on_c, 1, 93, 127
2, 96640, Note_off_c, 1, 42, 0
2, 96640, Note_on_c, 1, 57, 127
2, 96640, Note_on_c, 1, 69, 127
2, 96640, Note_on_c, 1, 88, 127
2, 96640, Note_off_c, 1, 90, 0
2, 96640, Note_off_c, 1, 93, 0
2, 96680, Note_on_c, 1, 41, 127
2, 96680, Note_on_c, 1, 44, 127
2, 96680, Note_on_c, 1, 51, 127
2, 96680, Note_on_c, 1, 56, 127
2, 96680, Note_off_c, 1, 57, 0
2, 96680, Note_on_c, 1, 60, 127
2, 96680, Note_on_c, 1, 61, 127
2, 96680, Note_on_c, 1, 66, 127
2, 96680, Note_on_c, 1, 68, 127
2, 96680, Note_off_c, 1, 69, 0
2, 96680, Note_off_c, 1, 81, 0
2, 96680, Note_off_c, 1, 85, 0
2, 96680, Note_off_c, 1, 88, 0
2, 96720, Note_off_c, 1, 41, 0
2, 96720, Note_off_c, 1, 44, 0
2, 96720, Note_on_c, 1, 48, 127
2, 96720, Note_off_c, 1, 51, 0
2, 96720, Note_on_c, 1, 54, 127
2, 96720, Note_off_c, 1, 56, 0
2, 96720, Note_on_c, 1, 57, 127
2, 96720, Note_off_c, 1, 60, 0
2, 96720, Note_off_c, 1, 61, 0
2, 96720, Note_off_c, 1, 68, 0
2, 96720, Note_on_c, 1, 78, 127
2, 96760, Note_on_c, 1, 41, 127
2, 96760, Note_on_c, 1, 46, 127
2, 96760, Note_off_c, 1, 48, 0
2, 96760, Note_on_c, 1, 50, 127
2, 96760, Note_off_c, 1, 54, 0
2, 96760, Note_off_c, 1, 57, 0
2, 96760, Note_off_c, 1, 66, 0
2, 96760, Note_off_c, 1, 78, 0
2, 96760, Note_on_c, 1, 83, 127
2, 96800, Note_off_c, 1, 41, 0
2, 96800, Note_off_c, 1, 46, 0
2, 96800, Note_on_c, 1, 48, 127
2, 96800, Note_off_c, 1, 50, 0
2, 96800, Note_on_c, 1, 54, 127
2, 96800, Note_on_c, 1, 57, 127
2, 96800, Note_on_c, 1, 66, 127
2, 96800, Note_on_c, 1, 78, 127
2, 96800, Note_off_c, 1, 83, 0
2, 97080, Note_off_c, 1, 48, 0
2, 97080, Note_off_c, 1, 54, 0
2, 97080, Note_off_c, 1, 57, 0
2, 97080, Note_off_c, 1, 66, 0
2, 97080, Note_off_c, 1, 78, 0
2, 97160, Note_on_c, 1, 55, 127
2, 97160, Note_on_c, 1, 83, 127
2, 97160, Note_on_c, 1, 86, 127
2, 97160, Note_on_c, 1, 91, 127
2, 97160, Note_on_c, 1, 95, 127
2, 97520, Note_on_c, 1, 46, 127
2, 97520, Note_on_c, 1, 54, 127
2, 97520, Note_off_c, 1, 55, 0
2, 97520, Note_on_c, 1, 63, 127
2, 97520, Note_on_c, 1, 66, 127
2, 97520, Note_on_c, 1, 70, 127
2, 97520, Note_off_c, 1, 83, 0
2, 97520, Note_off_c, 1, 86, 0
2, 97520, Note_off_c, 1, 91, 0
2, 97520, Note_off_c, 1, 95, 0
2, 97560, Note_off_c, 1, 46, 0
2, 97560, Note_off_c, 1, 63, 0
2, 97560, Note_off_c, 1, 66, 0
2, 97560, Note_off_c, 1, 70, 0
2, 97560, Note_on_c, 1, 78, 127
2, 97560, Note_on_c, 1, 90, 127
2, 97560, Note_on_c, 1, 93, 127
2, 97600, Note_on_c, 1, 38, 127
2, 97600, Note_off_c, 1, 54, 0
2, 97600, Note_on_c, 1, 71, 127
2, 97600, Note_on_c, 1, 76, 127
2, 97600, Note_off_c, 1, 78, 0
2, 97600, Note_off_c, 1, 90, 0
2, 97600, Note_off_c, 1, 93, 0
2, 97640, Note_off_c, 1, 38, 0
2, 97640, Note_on_c, 1, 59, 127
2, 97640, Note_on_c, 1, 69, 127
2, 97640, Note_on_c, 1, 75, 127
2, 97640, Note_off_c, 1, 76, 0
2, 97640, Note_on_c, 1, 80, 127
2, 97680, Note_on_c, 1, 54, 127
2, 97680, Note_off_c, 1, 59, 0
2, 97680, Note_on_c, 1, 62, 127
2, 97680, Note_on_c, 1, 64, 127
2, 97680, Note_off_c, 1, 69, 0
2, 97680, Note_off_c, 1, 71, 0
2, 97680, Note_off_c, 1, 75, 0
2, 97680, Note_off_c, 1, 80, 0
2, 97720, Note_on_c, 1, 38, 127
2, 97720, Note_off_c, 1, 54, 0
2, 97720, Note_off_c, 1, 62, 0
2, 97720, Note_off_c, 1, 64, 0
2, 97720, Note_on_c, 1, 76, 127
2, 97760, Note_off_c, 1, 38, 0
2, 97760, Note_on_c, 1, 49, 127
2, 97760, Note_on_c, 1, 52, 127
2, 97760, Note_on_c, 1, 54, 127
2, 97760, Note_on_c, 1, 58, 127
2, 97760, Note_on_c, 1, 61, 127
2, 97760, Note_on_c, 1, 64, 127
2, 97760, Note_off_c, 1, 76, 0
2, 98120, Note_off_c, 1, 49, 0
2, 98120, Note_off_c, 1, 52, 0
2, 98120, Note_off_c, 1, 54, 0
2, 98120, Note_off_c, 1, 58, 0
2, 98120, Note_off_c, 1, 61, 0
2, 98120, Note_off_c, 1, 64, 0
2, 98160, Note_on_c, 1, 35, 127
2, 98160, Note_on_c, 1, 47, 127
2, 98160, Note_on_c, 1, 56, 127
2, 98160, Note_on_c, 1, 64, 127
2, 98160, Note_on_c, 1, 68, 127
2, 99320, Note_off_c, 1, 35, 0
2, 99320, Note_off_c, 1, 47, 0
2, 99320, Note_off_c, 1, 56, 0
2, 99320, Note_off_c, 1, 64, 0
2, 99320, Note_off_c, 1, 68, 0
2, 99400, Note_on_c, 1, 49, 127
2, 99400, Note_on_c, 1, 56, 127
2, 99400, Note_on_c, 1, 64, 127
2, 99400, Note_on_c, 1, 70, 127
2, 99720, Note_off_c, 1, 49, 0
2, 99720, Note_off_c, 1, 64, 0
2, 99720, Note_off_c, 1, 70, 0
2, 99800, Note_on_c, 1, 49, 127
2, 99800, Note_on_c, 1, 64, 127
2, 99800, Note_on_c, 1, 70, 127
2, 100120, Note_off_c, 1, 49, 0
2, 100120, Note_off_c, 1, 64, 0
2, 100120, Note_off_c, 1, 70, 0
2, 100200, Note_on_c, 1, 49, 127
2, 100200, Note_on_c, 1, 64, 127
2, 100200, Note_on_c, 1, 70, 127
2, 100520, Note_off_c, 1, 49, 0
2, 100520, Note_off_c, 1, 64, 0
2, 100520, Note_off_c, 1, 70, 0
2, 100600, Note_on_c, 1, 49, 127
2, 100600, Note_on_c, 1, 64, 127
2, 100600, Note_on_c, 1, 70, 127
2, 100920, Note_off_c, 1, 49, 0
2, 100920, Note_off_c, 1, 64, 0
2, 100920, Note_off_c, 1, 70, 0
2, 101000, Note_on_c, 1, 63, 127
2, 101000, Note_on_c, 1, 66, 127
2, 101000, Note_on_c, 1, 88, 127
2, 101040, Note_on_c, 1, 52, 127
2, 101040, Note_on_c, 1, 62, 127
2, 101040, Note_off_c, 1, 63, 0
2, 101040, Note_off_c, 1, 66, 0
2, 101040, Note_on_c, 1, 75, 127
2, 101040, Note_off_c, 1, 88, 0
2, 101080, Note_off_c, 1, 52, 0
2, 101080, Note_on_c, 1, 55, 127
2, 101080, Note_off_c, 1, 56, 0
2, 101080, Note_on_c, 1, 60, 127
2, 101080, Note_off_c, 1, 62, 0
2, 101080, Note_on_c, 1, 63, 127
2, 101080, Note_on_c, 1, 66, 127
2, 101080, Note_on_c, 1, 72, 127
2, 101080, Note_off_c, 1, 75, 0
2, 101120, Note_on_c, 1, 52, 127
2, 101120, Note_off_c, 1, 55, 0
2, 101120, Note_on_c, 1, 56, 127
2, 101120, Note_off_c, 1, 60, 0
2, 101120, Note_on_c, 1, 62, 127
2, 101120, Note_off_c, 1, 63, 0
2, 101120, Note_off_c, 1, 66, 0
2, 101120, Note_off_c, 1, 72, 0
2, 101120, Note_on_c, 1, 73, 127
2, 101160, Note_on_c, 1, 71, 127
2, 101160, Note_off_c, 1, 73, 0
2, 101200, Note_off_c, 1, 52, 0
2, 101200, Note_off_c, 1, 62, 0
2, 101200, Note_on_c, 1, 63, 127
2, 101200, Note_on_c, 1, 68, 127
2, 101200, Note_off_c, 1, 71, 0
2, 101200, Note_on_c, 1, 82, 127
2, 101200, Note_on_c, 1, 84, 127
2, 101240, Note_on_c, 1, 48, 127
2, 101240, Note_on_c, 1, 55, 127
2, 101240, Note_off_c, 1, 56, 0
2, 101240, Note_on_c, 1, 57, 127
2, 101240, Note_on_c, 1, 60, 127
2, 101240, Note_on_c, 1, 66, 127
2, 101240, Note_off_c, 1, 68, 0
2, 101240, Note_off_c, 1, 82, 0
2, 101240, Note_off_c, 1, 84, 0
2, 101280, Note_off_c, 1, 48, 0
2, 101280, Note_off_c, 1, 55, 0
2, 101280, Note_on_c, 1, 56, 127
2, 101280, Note_off_c, 1, 57, 0
2, 101280, Note_off_c, 1, 60, 0
2, 101280, Note_off_c, 1, 66, 0
2, 101280, Note_on_c, 1, 68, 127
2, 101280, Note_on_c, 1, 82, 127
2, 101280, Note_on_c, 1, 84, 127
2, 101320, Note_on_c, 1, 55, 127
2, 101320, Note_off_c, 1, 56, 0
2, 101320, Note_on_c, 1, 60, 127
2, 101320, Note_on_c, 1, 66, 127
2, 101320, Note_off_c, 1, 68, 0
2, 101320, Note_on_c, 1, 72, 127
2, 101320, Note_off_c, 1, 82, 0
2, 101320, Note_off_c, 1, 84, 0
2, 101360, Note_off_c, 1, 55, 0
2, 101360, Note_on_c, 1, 56, 127
2, 101360, Note_off_c, 1, 60, 0
2, 101360, Note_off_c, 1, 63, 0
2, 101360, Note_off_c, 1, 66, 0
2, 101360, Note_off_c, 1, 72, 0
2, 101400, Note_off_c, 1, 56, 0
2, 101440, Note_on_c, 1, 56, 127
2, 101440, Note_on_c, 1, 63, 127
2, 101440, Note_on_c, 1, 66, 127
2, 101440, Note_on_c, 1, 71, 127
2, 101760, Note_off_c, 1, 63, 0
2, 101760, Note_off_c, 1, 66, 0
2, 101760, Note_off_c, 1, 71, 0
2, 101800, Note_on_c, 1, 41, 127
2, 101800, Note_on_c, 1, 53, 127
2, 101800, Note_on_c, 1, 59, 127
2, 101800, Note_on_c, 1, 65, 127
2, 101800, Note_on_c, 1, 69, 127
2, 101800, Note_on_c, 1, 77, 127
2, 101840, Note_on_c, 1, 34, 127
2, 101840, Note_off_c, 1, 41, 0
2, 101840, Note_on_c, 1, 43, 127
2, 101840, Note_on_c, 1, 50, 127
2, 101840, Note_off_c, 1, 53, 0
2, 101840, Note_off_c, 1, 56, 0
2, 101840, Note_off_c, 1, 59, 0
2, 101840, Note_on_c, 1, 62, 127
2, 101840, Note_off_c, 1, 65, 0
2, 101840, Note_off_c, 1, 69, 0
2, 101840, Note_off_c, 1, 77, 0
2, 101880, Note_off_c, 1, 34, 0
2, 101880, Note_off_c, 1, 43, 0
2, 101880, Note_off_c, 1, 50, 0
2, 101880, Note_on_c, 1, 55, 127
2, 101880, Note_off_c, 1, 62, 0
2, 101880, Note_on_c, 1, 72, 127
2, 101880, Note_on_c, 1, 75, 127
2, 101880, Note_on_c, 1, 78, 127
2, 101880, Note_on_c, 1, 82, 127
2, 101920, Note_on_c, 1, 53, 127
2, 101920, Note_off_c, 1, 55, 0
2, 101920, Note_on_c, 1, 63, 127
2, 101920, Note_on_c, 1, 66, 127
2, 101920, Note_off_c, 1, 72, 0
2, 101920, Note_off_c, 1, 75, 0
2, 101920, Note_off_c, 1, 78, 0
2, 101920, Note_off_c, 1, 82, 0
2, 101920, Note_on_c, 1, 90, 127
2, 101960, Note_off_c, 1, 53, 0
2, 101960, Note_on_c, 1, 55, 127
2, 101960, Note_off_c, 1, 63, 0
2, 101960, Note_off_c, 1, 66, 0
2, 101960, Note_on_c, 1, 72, 127
2, 101960, Note_on_c, 1, 75, 127
2, 101960, Note_on_c, 1, 78, 127
2, 101960, Note_on_c, 1, 82, 127
2, 101960, Note_off_c, 1, 90, 0
2, 102160, Note_off_c, 1, 55, 0
2, 102160, Note_off_c, 1, 72, 0
2, 102160, Note_off_c, 1, 75, 0
2, 102160, Note_off_c, 1, 78, 0
2, 102160, Note_off_c, 1, 82, 0
2, 102200, Note_on_c, 1, 67, 127
2, 102200, Note_on_c, 1, 73, 127
2, 102200, Note_on_c, 1, 77, 127
2, 102200, Note_on_c, 1, 91, 127
2, 102200, Note_on_c, 1, 94, 127
2, 102200, Note_on_c, 1, 103, 127
2, 102560, Note_off_c, 1, 67, 0
2, 102560, Note_off_c, 1, 73, 0
2, 102560, Note_off_c, 1, 77, 0
2, 102560, Note_off_c, 1, 91, 0
2, 102560, Note_off_c, 1, 94, 0
2, 102560, Note_off_c, 1, 103, 0
2, 102600, Note_on_c, 1, 48, 127
2, 102600, Note_on_c, 1, 68, 127
2, 102600, Note_on_c, 1, 72, 127
2, 102600, Note_on_c, 1, 76, 127
2, 102920, Note_off_c, 1, 68, 0
2, 102920, Note_off_c, 1, 72, 0
2, 102920, Note_off_c, 1, 76, 0
2, 102960, Note_on_c, 1, 47, 127
2, 102960, Note_off_c, 1, 48, 0
2, 102960, Note_on_c, 1, 50, 127
2, 102960, Note_on_c, 1, 53, 127
2, 102960, Note_on_c, 1, 62, 127
2, 103000, Note_off_c, 1, 47, 0
2, 103000, Note_off_c, 1, 50, 0
2, 103000, Note_on_c, 1, 51, 127
2, 103000, Note_off_c, 1, 53, 0
2, 103000, Note_on_c, 1, 58, 127
2, 103000, Note_off_c, 1, 62, 0
2, 103000, Note_on_c, 1, 63, 127
2, 103000, Note_on_c, 1, 77, 127
2, 103000, Note_on_c, 1, 89, 127
2, 103040, Note_on_c, 1, 46, 127
2, 103040, Note_on_c, 1, 55, 127
2, 103040, Note_off_c, 1, 58, 0
2, 103040, Note_off_c, 1, 63, 0
2, 103040, Note_off_c, 1, 77, 0
2, 103040, Note_on_c, 1, 80, 127
2, 103040, Note_off_c, 1, 89, 0
2, 103080, Note_off_c, 1, 46, 0
2, 103080, Note_off_c, 1, 51, 0
2, 103080, Note_off_c, 1, 55, 0
2, 103080, Note_on_c, 1, 63, 127
2, 103080, Note_on_c, 1, 72, 127
2, 103080, Note_on_c, 1, 75, 127
2, 103080, Note_on_c, 1, 77, 127
2, 103080, Note_off_c, 1, 80, 0
2, 103080, Note_on_c, 1, 89, 127
2, 103120, Note_on_c, 1, 36, 127
2, 103120, Note_on_c, 1, 48, 127
2, 103120, Note_on_c, 1, 56, 127
2, 103120, Note_on_c, 1, 60, 127
2, 103120, Note_off_c, 1, 63, 0
2, 103120, Note_on_c, 1, 67, 127
2, 103120, Note_off_c, 1, 72, 0
2, 103120, Note_off_c, 1, 75, 0
2, 103120, Note_off_c, 1, 77, 0
2, 103120, Note_off_c, 1, 89, 0
2, 103160, Note_off_c, 1, 36, 0
2, 103160, Note_on_c, 1, 45, 127
2, 103160, Note_off_c, 1, 56, 0
2, 103160, Note_off_c, 1, 60, 0
2, 103160, Note_off_c, 1, 67, 0
2, 103160, Note_on_c, 1, 72, 127
2, 103160, Note_on_c, 1, 77, 127
2, 103160, Note_on_c, 1, 84, 127
2, 103320, Note_off_c, 1, 45, 0
2, 103320, Note_off_c, 1, 48, 0
2, 103320, Note_off_c, 1, 72, 0
2, 103320, Note_off_c, 1, 77, 0
2, 103320, Note_off_c, 1, 84, 0
2, 103360, Note_on_c, 1, 45, 127
2, 103360, Note_on_c, 1, 48, 127
2, 103360, Note_on_c, 1, 72, 127
2, 103360, Note_on_c, 1, 77, 127
2, 103360, Note_on_c, 1, 84, 127
2, 103400, Note_off_c, 1, 45, 0
2, 103400, Note_on_c, 1, 52, 127
2, 103400, Note_off_c, 1, 72, 0
2, 103400, Note_off_c, 1, 77, 0
2, 103400, Note_on_c, 1, 79, 127
2, 103400, Note_on_c, 1, 82, 127
2, 103400, Note_off_c, 1, 84, 0
2, 103760, Note_off_c, 1, 48, 0
2, 103760, Note_off_c, 1, 52, 0
2, 103760, Note_off_c, 1, 79, 0
2, 103760, Note_off_c, 1, 82, 0
2, 103800, Note_on_c, 1, 38, 127
2, 103800, Note_on_c, 1, 45, 127
2, 103800, Note_on_c, 1, 50, 127
2, 103800, Note_on_c, 1, 81, 127
2, 103800, Note_on_c, 1, 93, 127
2, 104120, Note_off_c, 1, 38, 0
2, 104120, Note_off_c, 1, 45, 0
2, 104120, Note_off_c, 1, 50, 0
2, 104120, Note_off_c, 1, 81, 0
2, 104120, Note_off_c, 1, 93, 0
2, 104160, Note_on_c, 1, 46, 127
2, 104160, Note_on_c, 1, 53, 127
2, 104160, Note_on_c, 1, 56, 127
2, 104160, Note_on_c, 1, 68, 127
2, 104160, Note_on_c, 1, 71, 127
2, 104160, Note_on_c, 1, 75, 127
2, 104160, Note_on_c, 1, 80, 127
2, 104520, Note_off_c, 1, 68, 0
2, 104520, Note_off_c, 1, 80, 0
2, 104560, Note_on_c, 1, 66, 127
2, 104560, Note_on_c, 1, 78, 127
2, 104880, Note_off_c, 1, 46, 0
2, 104880, Note_off_c, 1, 53, 0
2, 104880, Note_off_c, 1, 56, 0
2, 104880, Note_off_c, 1, 66, 0
2, 104880, Note_off_c, 1, 71, 0
2, 104880, Note_off_c, 1, 75, 0
2, 104880, Note_off_c, 1, 78, 0
2, 104960, Note_on_c, 1, 35, 127
2, 104960, Note_on_c, 1, 40, 127
2, 104960, Note_on_c, 1, 47, 127
2, 104960, Note_on_c, 1, 59, 127
2, 104960, Note_on_c, 1, 68, 127
2, 104960, Note_on_c, 1, 71, 127
2, 104960, Note_on_c, 1, 83, 127
2, 104960, Note_on_c, 1, 88, 127
2, 104960, Note_on_c, 1, 92, 127
2, 105000, Note_off_c, 1, 35, 0
2, 105000, Note_on_c, 1, 39, 127
2, 105000, Note_off_c, 1, 40, 0
2, 105000, Note_off_c, 1, 47, 0
2, 105000, Note_on_c, 1, 50, 127
2, 105000, Note_on_c, 1, 58, 127
2, 105000, Note_off_c, 1, 59, 0
2, 105000, Note_on_c, 1, 65, 127
2, 105000, Note_off_c, 1, 68, 0
2, 105000, Note_off_c, 1, 71, 0
2, 105000, Note_off_c, 1, 83, 0
2, 105000, Note_off_c, 1, 88, 0
2, 105000, Note_off_c, 1, 92, 0
2, 105040, Note_off_c, 1, 39, 0
2, 105040, Note_on_c, 1, 46, 127
2, 105040, Note_off_c, 1, 50, 0
2, 105040, Note_off_c, 1, 65, 0
2, 105040, Note_on_c, 1, 82, 127
2, 105040, Note_on_c, 1, 86, 127
2, 105040, Note_on_c, 1, 94, 127
2, 105080, Note_off_c, 1, 46, 0
2, 105080, Note_off_c, 1, 58, 0
2, 105080, Note_on_c, 1, 65, 127
2, 105080, Note_on_c, 1, 77, 127
2, 105080, Note_off_c, 1, 82, 0
2, 105080, Note_on_c, 1, 84, 127
2, 105080, Note_off_c, 1, 86, 0
2, 105080, Note_on_c, 1, 87, 127
2, 105080, Note_on_c, 1, 89, 127
2, 105080, Note_off_c, 1, 94, 0
2, 105120, Note_on_c, 1, 39, 127
2, 105120, Note_on_c, 1, 50, 127
2, 105120, Note_on_c, 1, 58, 127
2, 105120, Note_on_c, 1, 67, 127
2, 105120, Note_off_c, 1, 77, 0
2, 105120, Note_off_c, 1, 84, 0
2, 105120, Note_off_c, 1, 87, 0
2, 105120, Note_off_c, 1, 89, 0
2, 105160, Note_off_c, 1, 39, 0
2, 105160, Note_off_c, 1, 50, 0
2, 105160, Note_on_c, 1, 56, 127
2, 105160, Note_off_c, 1, 58, 0
2, 105160, Note_on_c, 1, 59, 127
2, 105160, Note_off_c, 1, 67, 0
2, 105160, Note_on_c, 1, 82, 127
2, 105160, Note_on_c, 1, 89, 127
2, 105200, Note_on_c, 1, 44, 127
2, 105200, Note_on_c, 1, 53, 127
2, 105200, Note_off_c, 1, 56, 0
2, 105200, Note_off_c, 1, 59, 0
2, 105200, Note_off_c, 1, 65, 0
2, 105200, Note_on_c, 1, 77, 127
2, 105200, Note_on_c, 1, 80, 127
2, 105200, Note_off_c, 1, 82, 0
2, 105200, Note_off_c, 1, 89, 0
2, 105240, Note_on_c, 1, 41, 127
2, 105240, Note_off_c, 1, 44, 0
2, 105240, Note_on_c, 1, 58, 127
2, 105240, Note_off_c, 1, 77, 0
2, 105240, Note_on_c, 1, 82, 127
2, 105240, Note_on_c, 1, 94, 127
2, 105280, Note_off_c, 1, 41, 0
2, 105280, Note_off_c, 1, 53, 0
2, 105280, Note_on_c, 1, 55, 127
2, 105280, Note_off_c, 1, 58, 0
2, 105280, Note_on_c, 1, 59, 127
2, 105280, Note_on_c, 1, 62, 127
2, 105280, Note_on_c, 1, 69, 127
2, 105280, Note_on_c, 1, 79, 127
2, 105280, Note_off_c, 1, 80, 0
2, 105280, Note_off_c, 1, 82, 0
2, 105280, Note_off_c, 1, 94, 0
2, 105320, Note_off_c, 1, 55, 0
2, 105320, Note_off_c, 1, 59, 0
2, 105320, Note_off_c, 1, 69, 0
2, 105320, Note_off_c, 1, 79, 0
2, 105320, Note_on_c, 1, 83, 127
2, 105320, Note_on_c, 1, 86, 127
2, 105320, Note_on_c, 1, 90, 127
2, 105320, Note_on_c, 1, 95, 127
2, 105360, Note_off_c, 1, 62, 0
2, 105360, Note_off_c, 1, 83, 0
2, 105360, Note_off_c, 1, 86, 0
2, 105360, Note_off_c, 1, 90, 0
2, 105360, Note_off_c, 1, 95, 0
2, 105400, Note_on_c, 1, 58, 127
2, 105400, Note_on_c, 1, 71, 127
2, 105400, Note_on_c, 1, 76, 127
2, 105400, Note_on_c, 1, 83, 127
2, 105760, Note_off_c, 1, 58, 0
2, 105760, Note_off_c, 1, 71, 0
2, 105760, Note_off_c, 1, 76, 0
2, 105760, Note_off_c, 1, 83, 0
2, 105800, Note_on_c, 1, 31, 127
2, 105800, Note_on_c, 1, 36, 127
2, 105800, Note_on_c, 1, 38, 127
2, 105800, Note_on_c, 1, 71, 127
2, 105800, Note_on_c, 1, 77, 127
2, 105800, Note_on_c, 1, 80, 127
2, 105840, Note_off_c, 1, 31, 0
2, 105840, Note_on_c, 1, 35, 127
2, 105840, Note_off_c, 1, 36, 0
2, 105840, Note_off_c, 1, 38, 0
2, 105840, Note_on_c, 1, 44, 127
2, 105840, Note_on_c, 1, 47, 127
2, 105840, Note_on_c, 1, 62, 127
2, 105840, Note_on_c, 1, 64, 127
2, 105840, Note_on_c, 1, 75, 127
2, 105840, Note_off_c, 1, 77, 0
2, 105840, Note_off_c, 1, 80, 0
2, 105880, Note_off_c, 1, 35, 0
2, 105880, Note_off_c, 1, 44, 0
2, 105880, Note_on_c, 1, 46, 127
2, 105880, Note_off_c, 1, 47, 0
2, 105880, Note_off_c, 1, 62, 0
2, 105880, Note_off_c, 1, 64, 0
2, 105880, Note_off_c, 1, 71, 0
2, 105880, Note_off_c, 1, 75, 0
2, 105880, Note_on_c, 1, 86, 127
2, 105880, Note_on_c, 1, 91, 127
2, 105920, Note_on_c, 1, 35, 127
2, 105920, Note_on_c, 1, 44, 127
2, 105920, Note_off_c, 1, 46, 0
2, 105920, Note_on_c, 1, 47, 127
2, 105920, Note_on_c, 1, 62, 127
2, 105920, Note_on_c, 1, 64, 127
2, 105920, Note_on_c, 1, 71, 127
2, 105920, Note_on_c, 1, 75, 127
2, 105920, Note_off_c, 1, 86, 0
2, 105920, Note_off_c, 1, 91, 0
2, 107560, Note_off_c, 1, 35, 0
2, 107560, Note_off_c, 1, 44, 0
2, 107560, Note_off_c, 1, 47, 0
2, 107560, Note_off_c, 1, 62, 0
2, 107560, Note_off_c, 1, 64, 0
2, 107560, Note_off_c, 1, 71, 0
2, 107560, Note_off_c, 1, 75, 0
2, 107600, Note_on_c, 1, 35, 127
2, 107600, Note_on_c, 1, 44, 127
2, 107600, Note_on_c, 1, 47, 127
2, 107600, Note_on_c, 1, 62, 127
2, 107600, Note_on_c, 1, 64, 127
2, 107600, Note_on_c, 1, 71, 127
2, 107600, Note_on_c, 1, 75, 127
2, 109400, Note_off_c, 1, 35, 0
2, 109400, Note_off_c, 1, 44, 0
2, 109400, Note_off_c, 1, 47, 0
2, 109400, Note_off_c, 1, 62, 0
2, 109400, Note_off_c, 1, 64, 0
2, 109400, Note_off_c, 1, 71, 0
2, 109400, Note_off_c, 1, 75, 0
2, 109440, Note_on_c, 1, 67, 127
2, 109440, Note_on_c, 1, 76, 127
2, 109440, Note_on_c, 1, 79, 127
2, 109440, Note_on_c, 1, 83, 127
2, 109440, Note_on_c, 1, 88, 127
2, 110040, Note_off_c, 1, 67, 0
2, 110040, Note_off_c, 1, 76, 0
2, 110040, Note_off_c, 1, 79, 0
2, 110040, Note_off_c, 1, 83, 0
2, 110040, Note_off_c, 1, 88, 0
2, 110080, Note_on_c, 1, 67, 127
2, 110080, Note_on_c, 1, 76, 127
2, 110080, Note_on_c, 1, 79, 127
2, 110080, Note_on_c, 1, 83, 127
2, 110080, Note_on_c, 1, 88, 127
2, 110640, Note_off_c, 1, 67, 0
2, 110640, Note_off_c, 1, 76, 0
2, 110640, Note_off_c, 1, 79, 0
2, 110640, Note_off_c, 1, 83, 0
2, 110640, Note_off_c, 1, 88, 0
2, 110680, Note_on_c, 1, 52, 127
2, 110680, Note_on_c, 1, 56, 127
2, 110680, Note_on_c, 1, 62, 127
2, 110680, Note_on_c, 1, 69, 127
2, 111040, Note_off_c, 1, 52, 0
2, 111040, Note_off_c, 1, 56, 0
2, 111040, Note_on_c, 1, 61, 127
2, 111040, Note_off_c, 1, 62, 0
2, 111040, Note_on_c, 1, 64, 127
2, 111080, Note_on_c, 1, 52, 127
2, 111080, Note_on_c, 1, 68, 127
2, 111080, Note_off_c, 1, 69, 0
2, 111440, Note_off_c, 1, 52, 0
2, 111440, Note_off_c, 1, 61, 0
2, 111440, Note_off_c, 1, 64, 0
2, 111440, Note_off_c, 1, 68, 0
2, 111480, Note_on_c, 1, 63, 127
2, 111480, Note_on_c, 1, 72, 127
2, 111480, Note_on_c, 1, 75, 127
2, 111480, Note_on_c, 1, 77, 127
2, 111480, Note_on_c, 1, 89, 127
2, 112440, Note_off_c, 1, 63, 0
2, 112440, Note_off_c, 1, 72, 0
2, 112440, Note_off_c, 1, 75, 0
2, 112440, Note_off_c, 1, 77, 0
2, 112440, Note_off_c, 1, 89, 0
2, 112480, Note_on_c, 1, 63, 127
2, 112480, Note_on_c, 1, 72, 127
2, 112480, Note_on_c, 1, 75, 127
2, 112480, Note_on_c, 1, 77, 127
2, 112480, Note_on_c, 1, 89, 127
2, 112720, Note_off_c, 1, 63, 0
2, 112720, Note_off_c, 1, 72, 0
2, 112720, Note_off_c, 1, 75, 0
2, 112720, Note_off_c, 1, 77, 0
2, 112720, Note_off_c, 1, 89, 0
2, 112760, Note_on_c, 1, 65, 127
2, 112760, Note_on_c, 1, 69, 127
2, 112760, Note_on_c, 1, 71, 127
2, 113320, Note_off_c, 1, 65, 0
2, 113320, Note_off_c, 1, 69, 0
2, 113320, Note_off_c, 1, 71, 0
2, 113360, Note_on_c, 1, 66, 127
2, 113360, Note_on_c, 1, 69, 127
2, 113760, Note_on_c, 1, 62, 127
2, 114120, Note_on_c, 1, 61, 127
2, 114120, Note_off_c, 1, 62, 0
2, 114560, Note_off_c, 1, 61, 0
2, 114560, Note_off_c, 1, 66, 0
2, 114560, Note_off_c, 1, 69, 0
2, 114600, Note_on_c, 1, 61, 127
2, 114600, Note_on_c, 1, 66, 127
2, 114600, Note_on_c, 1, 69, 127
2, 115760, Note_off_c, 1, 61, 0
2, 115800, Note_on_c, 1, 74, 127
2, 115920, Note_off_c, 1, 74, 0
2, 115960, Note_on_c, 1, 74, 127
2, 116120, Note_off_c, 1, 74, 0
2, 116160, Note_on_c, 1, 81, 127
2, 116760, Note_off_c, 1, 66, 0
2, 116760, Note_off_c, 1, 69, 0
2, 116760, Note_off_c, 1, 81, 0
2, 116800, Note_on_c, 1, 66, 127
2, 116800, Note_on_c, 1, 69, 127
2, 116800, Note_on_c, 1, 81, 127
2, 117160, Note_off_c, 1, 66, 0
2, 117160, Note_off_c, 1, 69, 0
2, 117160, Note_off_c, 1, 81, 0
2, 117200, Note_on_c, 1, 66, 127
2, 117200, Note_on_c, 1, 69, 127
2, 117560, Note_off_c, 1, 66, 0
2, 117560, Note_off_c, 1, 69, 0
2, 117600, Note_on_c, 1, 57, 127
2, 117960, Note_off_c, 1, 57, 0
2, 118000, Note_on_c, 1, 55, 127
2, 118360, Note_off_c, 1, 55, 0
2, 118400, Note_on_c, 1, 59, 127
2, 118760, Note_off_c, 1, 59, 0
2, 118800, Note_on_c, 1, 50, 127
2, 118960, Note_off_c, 1, 50, 0
2, 119000, Note_on_c, 1, 50, 127
2, 119200, Note_off_c, 1, 50, 0
2, 119240, Note_on_c, 1, 55, 127
2, 119600, Note_off_c, 1, 55, 0
2, 119640, Note_on_c, 1, 48, 127
2, 120000, Note_off_c, 1, 48, 0
2, 120040, End_track
3, 0, Start_track
3, 0, Title_t, "MIDI"
3, 1536, End_track
0, 0, End_of_file
