0, 0, Header, 1, 3, 192
1, 0, Start_track
1, 0, Time_signature, 4, 2, 24, 8
1, 0, Tempo, 500000
1, 120040, End_track
2, 0, Start_track
2, 0, Text_t, "random instrument: random person i dunno whatev"
2, 0, Title_t, "Track 1"
2, 0, Note_on_c, 1, 58, 127
2, 0, Note_on_c, 1, 66, 127
2, 0, Note_on_c, 1, 78, 127
2, 0, Note_on_c, 1, 82, 127
2, 0, Note_on_c, 1, 90, 127
2, 360, Note_off_c, 1, 58, 0
2, 360, Note_off_c, 1, 66, 0
2, 360, Note_off_c, 1, 78, 0
2, 360, Note_off_c, 1, 82, 0
2, 360, Note_off_c, 1, 90, 0
2, 400, Note_on_c, 1, 51, 127
2, 400, Note_on_c, 1, 59, 127
2, 400, Note_on_c, 1, 71, 127
2, 400, Note_on_c, 1, 75, 127
2, 760, Note_off_c, 1, 51, 0
2, 760, Note_off_c, 1, 59, 0
2, 760, Note_off_c, 1, 71, 0
2, 760, Note_off_c, 1, 75, 0
2, 800, Note_on_c, 1, 51, 127
2, 800, Note_on_c, 1, 59, 127
2, 800, Note_on_c, 1, 71, 127
2, 800, Note_on_c, 1, 75, 127
2, 1280, Note_off_c, 1, 51, 0
2, 1280, Note_off_c, 1, 59, 0
2, 1280, Note_off_c, 1, 71, 0
2, 1280, Note_off_c, 1, 75, 0
2, 1320, Note_on_c, 1, 42, 127
2, 1320, Note_on_c, 1, 78, 127
2, 1720, Note_off_c, 1, 42, 0
2, 1760, Note_on_c, 1, 49, 127
2, 2120, Note_off_c, 1, 49, 0
2, 2160, Note_on_c, 1, 54, 127
2, 2520, Note_off_c, 1, 54, 0
2, 2560, Note_on_c, 1, 61, 127
2, 2920, Note_off_c, 1, 61, 0
2, 2920, Note_off_c, 1, 78, 0
2, 3000, Note_on_c, 1, 59, 127
2, 3000, Note_on_c, 1, 77, 127
2, 3360, Note_off_c, 1, 59, 0
2, 3360, Note_off_c, 1, 77, 0
2, 3400, Note_on_c, 1, 61, 127
2, 3400, Note_on_c, 1, 78, 127
2, 3760, Note_off_c, 1, 61, 0
2, 3760, Note_off_c, 1, 78, 0
2, 3800, Note_on_c, 1, 52, 127
2, 3800, Note_on_c, 1, 80, 127
2, 4160, Note_off_c, 1, 52, 0
2, 4200, Note_on_c, 1, 61, 127
2, 4560, Note_off_c, 1, 61, 0
2, 4600, Note_on_c, 1, 52, 127
2, 5000, Note_off_c, 1, 52, 0
2, 5000, Note_off_c, 1, 80, 0
2, 5080, Note_on_c, 1, 56, 127
2, 5080, Note_on_c, 1, 79, 127
2, 5440, Note_off_c, 1, 56, 0
2, 5480, Note_on_c, 1, 43, 127
2, 5480, Note_on_c, 1, 77, 127
2, 5480, Note_off_c, 1, 79, 0
2, 5840, Note_off_c, 1, 43, 0
2, 5880, Note_on_c, 1, 43, 127
2, 6200, Note_off_c, 1, 43, 0
2, 6240, Note_on_c, 1, 43, 127
2, 6600, Note_off_c, 1, 43, 0
2, 6640, Note_on_c, 1, 50, 127
2, 7000, Note_off_c, 1, 50, 0
2, 7040, Note_on_c, 1, 44, 127
2, 7360, Note_off_c, 1, 44, 0
2, 7360, Note_off_c, 1, 77, 0
2, 7400, Note_on_c, 1, 44, 127
2, 7400, Note_on_c, 1, 77, 127
2, 7440, Note_off_c, 1, 44, 0
2, 7480, Note_on_c, 1, 49, 127
2, 7840, Note_off_c, 1, 49, 0
2, 7880, Note_on_c, 1, 51, 127
2, 8240, Note_off_c, 1, 51, 0
2, 8280, Note_on_c, 1, 61, 127
2, 8640, Note_off_c, 1, 61, 0
2, 8640, Note_off_c, 1, 77, 0
2, 8680, Note_on_c, 1, 39, 127
2, 8680, Note_on_c, 1, 75, 127
2, 9040, Note_off_c, 1, 39, 0
2, 9040, Note_off_c, 1, 75, 0
2, 9080, Note_on_c, 1, 44, 127
2, 9080, Note_on_c, 1, 75, 127
2, 9440, Note_off_c, 1, 44, 0
2, 9480, Note_off_c, 1, 75, 0
2, 9520, Note_on_c, 1, 52, 127
2, 9520, Note_on_c, 1, 75, 127
2, 9880, Note_off_c, 1, 52, 0
2, 9880, Note_off_c, 1, 75, 0
2, 9920, Note_on_c, 1, 44, 127
2, 9920, Note_on_c, 1, 73, 127
2, 10280, Note_off_c, 1, 44, 0
2, 10320, Note_on_c, 1, 56, 127
2, 10680, Note_off_c, 1, 56, 0
2, 10720, Note_on_c, 1, 44, 127
2, 11080, Note_off_c, 1, 44, 0
2, 11120, Note_on_c, 1, 44, 127
2, 11480, Note_off_c, 1, 44, 0
2, 11520, Note_on_c, 1, 56, 127
2, 11880, Note_off_c, 1, 56, 0
2, 11920, Note_off_c, 1, 73, 0
2, 11960, Note_on_c, 1, 44, 127
2, 11960, Note_on_c, 1, 73, 127
2, 12320, Note_off_c, 1, 44, 0
2, 12360, Note_on_c, 1, 56, 127
2, 12720, Note_off_c, 1, 56, 0
2, 12760, Note_on_c, 1, 56, 127
2, 13120, Note_off_c, 1, 56, 0
2, 13120, Note_off_c, 1, 73, 0
2, 13160, Note_on_c, 1, 49, 127
2, 13160, Note_on_c, 1, 80, 127
2, 13520, Note_off_c, 1, 49, 0
2, 13560, Note_on_c, 1, 37, 127
2, 13920, Note_off_c, 1, 37, 0
2, 13960, Note_on_c, 1, 37, 127
2, 14040, Note_off_c, 1, 37, 0
2, 14040, Note_off_c, 1, 80, 0
2, 14080, Note_on_c, 1, 37, 127
2, 14080, Note_on_c, 1, 80, 127
2, 14360, Note_off_c, 1, 37, 0
2, 14400, Note_on_c, 1, 37, 127
2, 14760, Note_off_c, 1, 37, 0
2, 14760, Note_off_c, 1, 80, 0
2, 14800, Note_on_c, 1, 42, 127
2, 14800, Note_on_c, 1, 80, 127
2, 15160, Note_off_c, 1, 42, 0
2, 15160, Note_off_c, 1, 80, 0
2, 15200, Note_on_c, 1, 47, 127
2, 15200, Note_on_c, 1, 80, 127
2, 15560, Note_off_c, 1, 47, 0
2, 15600, Note_on_c, 1, 37, 127
2, 15960, Note_off_c, 1, 37, 0
2, 15960, Note_off_c, 1, 80, 0
2, 16000, Note_on_c, 1, 49, 127
2, 16000, Note_on_c, 1, 80, 127
2, 16160, Note_off_c, 1, 49, 0
2, 16160, Note_off_c, 1, 80, 0
2, 16200, Note_on_c, 1, 49, 127
2, 16200, Note_on_c, 1, 80, 127
2, 16400, Note_off_c, 1, 49, 0
2, 16440, Note_on_c, 1, 37, 127
2, 16800, Note_off_c, 1, 37, 0
2, 16800, Note_off_c, 1, 80, 0
2, 16840, Note_on_c, 1, 45, 127
2, 16840, Note_on_c, 1, 78, 127
2, 17200, Note_off_c, 1, 45, 0
2, 17240, Note_on_c, 1, 49, 127
2, 17600, Note_off_c, 1, 49, 0
2, 17640, Note_on_c, 1, 54, 127
2, 18000, Note_off_c, 1, 54, 0
2, 18040, Note_on_c, 1, 49, 127
2, 18400, Note_off_c, 1, 49, 0
2, 18440, Note_off_c, 1, 78, 0
2, 18480, Note_on_c, 1, 47, 127
2, 18480, Note_on_c, 1, 78, 127
2, 18840, Note_off_c, 1, 47, 0
2, 18880, Note_on_c, 1, 54, 127
2, 19240, Note_off_c, 1, 54, 0
2, 19280, Note_on_c, 1, 49, 127
2, 19640, Note_off_c, 1, 49, 0
2, 19680, Note_on_c, 1, 54, 127
2, 20040, Note_off_c, 1, 54, 0
2, 20080, Note_on_c, 1, 51, 127
2, 20440, Note_off_c, 1, 51, 0
2, 20480, Note_on_c, 1, 54, 127
2, 20560, Note_off_c, 1, 54, 0
2, 20560, Note_off_c, 1, 78, 0
2, 20600, Note_on_c, 1, 54, 127
2, 20600, Note_on_c, 1, 78, 127
2, 20880, Note_off_c, 1, 54, 0
2, 20920, Note_on_c, 1, 49, 127
2, 21280, Note_off_c, 1, 49, 0
2, 21280, Note_off_c, 1, 78, 0
2, 21320, Note_on_c, 1, 49, 127
2, 21320, Note_on_c, 1, 78, 127
2, 21680, Note_off_c, 1, 49, 0
2, 21720, Note_on_c, 1, 63, 127
2, 22080, Note_off_c, 1, 63, 0
2, 22080, Note_off_c, 1, 78, 0
2, 22120, Note_on_c, 1, 49, 127
2, 22120, Note_on_c, 1, 77, 127
2, 22480, Note_off_c, 1, 49, 0
2, 22520, Note_on_c, 1, 56, 127
2, 22840, Note_off_c, 1, 56, 0
2, 22840, Note_off_c, 1, 77, 0
2, 22880, Note_on_c, 1, 56, 127
2, 22880, Note_on_c, 1, 77, 127
2, 22920, Note_off_c, 1, 56, 0
2, 22960, Note_on_c, 1, 49, 127
2, 23320, Note_off_c, 1, 49, 0
2, 23360, Note_on_c, 1, 61, 127
2, 23720, Note_off_c, 1, 61, 0
2, 23720, Note_off_c, 1, 77, 0
2, 23760, Note_on_c, 1, 39, 127
2, 23760, Note_on_c, 1, 75, 127
2, 24120, Note_off_c, 1, 39, 0
2, 24160, Note_on_c, 1, 46, 127
2, 24520, Note_off_c, 1, 46, 0
2, 24520, Note_off_c, 1, 75, 0
2, 24560, Note_on_c, 1, 44, 127
2, 24560, Note_on_c, 1, 75, 127
2, 24920, Note_off_c, 1, 44, 0
2, 24920, Note_off_c, 1, 75, 0
2, 25000, Note_on_c, 1, 44, 127
2, 25000, Note_on_c, 1, 73, 127
2, 25360, Note_off_c, 1, 44, 0
2, 25400, Note_on_c, 1, 56, 127
2, 25760, Note_off_c, 1, 56, 0
2, 25800, Note_on_c, 1, 61, 127
2, 26160, Note_off_c, 1, 61, 0
2, 26200, Note_on_c, 1, 52, 127
2, 26560, Note_off_c, 1, 52, 0
2, 26600, Note_on_c, 1, 61, 127
2, 26960, Note_off_c, 1, 61, 0
2, 27000, Note_on_c, 1, 56, 127
2, 27120, Note_off_c, 1, 56, 0
2, 27120, Note_off_c, 1, 73, 0
2, 27160, Note_on_c, 1, 56, 127
2, 27160, Note_on_c, 1, 73, 127
2, 27400, Note_off_c, 1, 56, 0
2, 27400, Note_off_c, 1, 73, 0
2, 27440, Note_on_c, 1, 51, 127
2, 27440, Note_on_c, 1, 72, 127
2, 27800, Note_off_c, 1, 51, 0
2, 27800, Note_off_c, 1, 72, 0
2, 27840, Note_on_c, 1, 75, 127
2, 28200, Note_off_c, 1, 75, 0
2, 28240, Note_on_c, 1, 49, 127
2, 28240, Note_on_c, 1, 76, 127
2, 28600, Note_off_c, 1, 49, 0
2, 28640, Note_on_c, 1, 56, 127
2, 29000, Note_off_c, 1, 56, 0
2, 29040, Note_on_c, 1, 59, 127
2, 29400, Note_off_c, 1, 59, 0
2, 29400, Note_off_c, 1, 76, 0
2, 29480, Note_on_c, 1, 51, 127
2, 29480, Note_on_c, 1, 78, 127
2, 29840, Note_off_c, 1, 51, 0
2, 29880, Note_on_c, 1, 59, 127
2, 30240, Note_off_c, 1, 59, 0
2, 30280, Note_on_c, 1, 47, 127
2, 30640, Note_off_c, 1, 47, 0
2, 30680, Note_on_c, 1, 47, 127
2, 31040, Note_off_c, 1, 47, 0
2, 31080, Note_on_c, 1, 51, 127
2, 31440, Note_off_c, 1, 51, 0
2, 31480, Note_on_c, 1, 54, 127
2, 31680, Note_off_c, 1, 54, 0
2, 31680, Note_off_c, 1, 78, 0
2, 31720, Note_on_c, 1, 54, 127
2, 31720, Note_on_c, 1, 78, 127
2, 31880, Note_off_c, 1, 54, 0
2, 31920, Note_on_c, 1, 56, 127
2, 32280, Note_off_c, 1, 56, 0
2, 32320, Note_on_c, 1, 47, 127
2, 32680, Note_off_c, 1, 47, 0
2, 32720, Note_on_c, 1, 51, 127
2, 33080, Note_off_c, 1, 51, 0
2, 33120, Note_on_c, 1, 60, 127
2, 33480, Note_off_c, 1, 60, 0
2, 33480, Note_off_c, 1, 78, 0
2, 33520, Note_on_c, 1, 41, 127
2, 33520, Note_on_c, 1, 75, 127
2, 33880, Note_off_c, 1, 41, 0
2, 33920, Note_off_c, 1, 75, 0
2, 33960, Note_on_c, 1, 57, 127
2, 33960, Note_on_c, 1, 75, 127
2, 34280, Note_off_c, 1, 57, 0
2, 34320, Note_on_c, 1, 44, 127
2, 34680, Note_off_c, 1, 44, 0
2, 34720, Note_on_c, 1, 49, 127
2, 35080, Note_off_c, 1, 49, 0
2, 35120, Note_on_c, 1, 51, 127
2, 35480, Note_off_c, 1, 51, 0
2, 35520, Note_on_c, 1, 59, 127
2, 35880, Note_off_c, 1, 59, 0
2, 35880, Note_off_c, 1, 75, 0
2, 35920, Note_on_c, 1, 47, 127
2, 35920, Note_on_c, 1, 73, 127
2, 36320, Note_off_c, 1, 47, 0
2, 36320, Note_off_c, 1, 73, 0
2, 36360, Note_on_c, 1, 47, 127
2, 36360, Note_on_c, 1, 73, 127
2, 36720, Note_off_c, 1, 47, 0
2, 36760, Note_on_c, 1, 56, 127
2, 37120, Note_off_c, 1, 56, 0
2, 37120, Note_off_c, 1, 73, 0
2, 37160, Note_on_c, 1, 51, 127
2, 37160, Note_on_c, 1, 71, 127
2, 37520, Note_off_c, 1, 51, 0
2, 37560, Note_on_c, 1, 61, 127
2, 37920, Note_off_c, 1, 61, 0
2, 37920, Note_off_c, 1, 71, 0
2, 37960, Note_on_c, 1, 54, 127
2, 37960, Note_on_c, 1, 70, 127
2, 38520, Note_off_c, 1, 54, 0
2, 38520, Note_off_c, 1, 70, 0
2, 38560, Note_on_c, 1, 54, 127
2, 38560, Note_on_c, 1, 70, 127
2, 38760, Note_off_c, 1, 54, 0
2, 38760, Note_off_c, 1, 70, 0
2, 38800, Note_on_c, 1, 51, 127
2, 38800, Note_on_c, 1, 71, 127
2, 39160, Note_off_c, 1, 51, 0
2, 39200, Note_on_c, 1, 56, 127
2, 39560, Note_off_c, 1, 56, 0
2, 39600, Note_on_c, 1, 61, 127
2, 39960, Note_off_c, 1, 61, 0
2, 39960, Note_off_c, 1, 71, 0
2, 40000, Note_on_c, 1, 56, 127
2, 40000, Note_on_c, 1, 71, 127
2, 40360, Note_off_c, 1, 56, 0
2, 40400, Note_on_c, 1, 61, 127
2, 40720, Note_off_c, 1, 71, 0
2, 40760, Note_off_c, 1, 61, 0
2, 40800, Note_on_c, 1, 61, 127
2, 40800, Note_on_c, 1, 71, 127
2, 41160, Note_off_c, 1, 61, 0
2, 41160, Note_off_c, 1, 71, 0
2, 41200, Note_on_c, 1, 49, 127
2, 41200, Note_on_c, 1, 70, 127
2, 41560, Note_off_c, 1, 49, 0
2, 41600, Note_on_c, 1, 64, 127
2, 41960, Note_off_c, 1, 64, 0
2, 42000, Note_on_c, 1, 54, 127
2, 42360, Note_off_c, 1, 54, 0
2, 42400, Note_on_c, 1, 64, 127
2, 42760, Note_off_c, 1, 64, 0
2, 42760, Note_off_c, 1, 70, 0
2, 42800, Note_on_c, 1, 59, 127
2, 42800, Note_on_c, 1, 63, 127
2, 43160, Note_off_c, 1, 59, 0
2, 43160, Note_off_c, 1, 63, 0
2, 43240, Note_on_c, 1, 59, 127
2, 43240, Note_on_c, 1, 63, 127
2, 44000, Note_off_c, 1, 59, 0
2, 44000, Note_off_c, 1, 63, 0
2, 44040, Note_on_c, 1, 59, 127
2, 44040, Note_on_c, 1, 63, 127
2, 44800, Note_off_c, 1, 59, 0
2, 44800, Note_off_c, 1, 63, 0
2, 44840, Note_on_c, 1, 59, 127
2, 44840, Note_on_c, 1, 63, 127
2, 45600, Note_off_c, 1, 59, 0
2, 45600, Note_off_c, 1, 63, 0
2, 45640, Note_on_c, 1, 59, 127
2, 45640, Note_on_c, 1, 63, 127
2, 46080, Note_off_c, 1, 59, 0
2, 46080, Note_off_c, 1, 63, 0
2, 46120, Note_on_c, 1, 52, 127
2, 46120, Note_on_c, 1, 59, 127
2, 46480, Note_off_c, 1, 52, 0
2, 46480, Note_off_c, 1, 59, 0
2, 59520, Note_on_c, 1, 79, 127
2, 60080, Note_off_c, 1, 79, 0
2, 60120, Note_on_c, 1, 77, 127
2, 60480, Note_off_c, 1, 77, 0
2, 60520, Note_on_c, 1, 76, 127
2, 60880, Note_off_c, 1, 76, 0
2, 60920, Note_on_c, 1, 77, 127
2, 61280, Note_off_c, 1, 77, 0
2, 61320, Note_on_c, 1, 76, 127
2, 61680, Note_off_c, 1, 76, 0
2, 61760, Note_on_c, 1, 77, 127
2, 62120, Note_off_c, 1, 77, 0
2, 62160, Note_on_c, 1, 76, 127
2, 62520, Note_off_c, 1, 76, 0
2, 62560, Note_on_c, 1, 48, 127
2, 62920, Note_off_c, 1, 48, 0
2, 62960, Note_on_c, 1, 53, 127
2, 63320, Note_off_c, 1, 53, 0
2, 63360, Note_on_c, 1, 60, 127
2, 63720, Note_off_c, 1, 60, 0
2, 63760, Note_on_c, 1, 64, 127
2, 64120, Note_off_c, 1, 64, 0
2, 64160, Note_on_c, 1, 64, 127
2, 65040, Note_on_c, 1, 60, 127
2, 65040, Note_off_c, 1, 64, 0
2, 65400, Note_off_c, 1, 60, 0
2, 65440, Note_on_c, 1, 57, 127
2, 66200, Note_off_c, 1, 57, 0
2, 66240, Note_on_c, 1, 55, 127
2, 66440, Note_off_c, 1, 55, 0
2, 66480, Note_on_c, 1, 55, 127
2, 67040, Note_off_c, 1, 55, 0
2, 67080, Note_on_c, 1, 60, 127
2, 68240, Note_off_c, 1, 60, 0
2, 68280, Note_on_c, 1, 57, 127
2, 68640, Note_off_c, 1, 57, 0
2, 68680, Note_on_c, 1, 57, 127
2, 68840, Note_off_c, 1, 57, 0
2, 68880, Note_on_c, 1, 57, 127
2, 69080, Note_off_c, 1, 57, 0
2, 69120, Note_on_c, 1, 60, 127
2, 69480, Note_off_c, 1, 60, 0
2, 69520, Note_on_c, 1, 57, 127
2, 69880, Note_off_c, 1, 57, 0
2, 69920, Note_on_c, 1, 60, 127
2, 70280, Note_off_c, 1, 60, 0
2, 70320, Note_on_c, 1, 57, 127
2, 70680, Note_off_c, 1, 57, 0
2, 70720, Note_on_c, 1, 60, 127
2, 71080, Note_off_c, 1, 60, 0
2, 71160, Note_on_c, 1, 57, 127
2, 71520, Note_off_c, 1, 57, 0
2, 71560, Note_on_c, 1, 60, 127
2, 71920, Note_off_c, 1, 60, 0
2, 71960, Note_on_c, 1, 64, 127
2, 72320, Note_off_c, 1, 64, 0
2, 72360, Note_on_c, 1, 60, 127
2, 72720, Note_off_c, 1, 60, 0
2, 72760, Note_on_c, 1, 61, 127
2, 73120, Note_off_c, 1, 61, 0
2, 73160, Note_on_c, 1, 62, 127
2, 73520, Note_off_c, 1, 62, 0
2, 73600, Note_on_c, 1, 57, 127
2, 73960, Note_off_c, 1, 57, 0
2, 74000, Note_on_c, 1, 55, 127
2, 74360, Note_off_c, 1, 55, 0
2, 74400, Note_on_c, 1, 53, 127
2, 74760, Note_off_c, 1, 53, 0
2, 74800, Note_on_c, 1, 57, 127
2, 75160, Note_off_c, 1, 57, 0
2, 75200, Note_on_c, 1, 53, 127
2, 75560, Note_off_c, 1, 53, 0
2, 75600, Note_on_c, 1, 50, 127
2, 75960, Note_off_c, 1, 50, 0
2, 76040, Note_on_c, 1, 64, 127
2, 76400, Note_off_c, 1, 64, 0
2, 76440, Note_on_c, 1, 62, 127
2, 76800, Note_off_c, 1, 62, 0
2, 76840, Note_on_c, 1, 58, 127
2, 77200, Note_off_c, 1, 58, 0
2, 77240, Note_on_c, 1, 62, 127
2, 77600, Note_off_c, 1, 62, 0
2, 77640, Note_on_c, 1, 59, 127
2, 78000, Note_off_c, 1, 59, 0
2, 78040, Note_on_c, 1, 53, 127
2, 78400, Note_off_c, 1, 53, 0
2, 78480, Note_on_c, 1, 48, 127
2, 78840, Note_off_c, 1, 48, 0
2, 78880, Note_on_c, 1, 57, 127
2, 79240, Note_off_c, 1, 57, 0
2, 79280, Note_on_c, 1, 60, 127
2, 79640, Note_off_c, 1, 60, 0
2, 79680, Note_on_c, 1, 57, 127
2, 80040, Note_off_c, 1, 57, 0
2, 80080, Note_on_c, 1, 55, 127
2, 80440, Note_off_c, 1, 55, 0
2, 80480, Note_on_c, 1, 53, 127
2, 80800, Note_off_c, 1, 53, 0
2, 80840, Note_on_c, 1, 53, 127
2, 80880, Note_off_c, 1, 53, 0
2, 80920, Note_on_c, 1, 60, 127
2, 81280, Note_off_c, 1, 60, 0
2, 81320, Note_on_c, 1, 57, 127
2, 81680, Note_off_c, 1, 57, 0
2, 81720, Note_on_c, 1, 60, 127
2, 82080, Note_off_c, 1, 60, 0
2, 82120, Note_on_c, 1, 64, 127
2, 82880, Note_off_c, 1, 64, 0
2, 82920, Note_on_c, 1, 60, 127
2, 83280, Note_off_c, 1, 60, 0
2, 83360, Note_on_c, 1, 55, 127
2, 83720, Note_off_c, 1, 55, 0
2, 83760, Note_on_c, 1, 57, 127
2, 84120, Note_off_c, 1, 57, 0
2, 84160, Note_on_c, 1, 60, 127
2, 84520, Note_off_c, 1, 60, 0
2, 84560, Note_on_c, 1, 57, 127
2, 84920, Note_off_c, 1, 57, 0
2, 84960, Note_on_c, 1, 60, 127
2, 85320, Note_off_c, 1, 60, 0
2, 85360, Note_on_c, 1, 57, 127
2, 85720, Note_off_c, 1, 57, 0
2, 85800, Note_on_c, 1, 57, 127
2, 86160, Note_off_c, 1, 57, 0
2, 86200, Note_on_c, 1, 55, 127
2, 86560, Note_off_c, 1, 55, 0
2, 86600, Note_on_c, 1, 58, 127
2, 86960, Note_off_c, 1, 58, 0
2, 87000, Note_on_c, 1, 57, 127
2, 87360, Note_off_c, 1, 57, 0
2, 87400, Note_on_c, 1, 53, 127
2, 87760, Note_off_c, 1, 53, 0
2, 87800, Note_on_c, 1, 52, 127
2, 88160, Note_off_c, 1, 52, 0
2, 88240, Note_on_c, 1, 55, 127
2, 88600, Note_off_c, 1, 55, 0
2, 88640, Note_on_c, 1, 57, 127
2, 89000, Note_off_c, 1, 57, 0
2, 89040, Note_on_c, 1, 55, 127
2, 89400, Note_off_c, 1, 55, 0
2, 89440, Note_on_c, 1, 47, 127
2, 89800, Note_off_c, 1, 47, 0
2, 89840, Note_on_c, 1, 50, 127
2, 90200, Note_off_c, 1, 50, 0
2, 90240, Note_on_c, 1, 36, 127
2, 90600, Note_off_c, 1, 36, 0
2, 90680, Note_on_c, 1, 47, 127
2, 91000, Note_off_c, 1, 47, 0
2, 91080, Note_on_c, 1, 48, 127
2, 91440, Note_off_c, 1, 48, 0
2, 91480, Note_on_c, 1, 52, 127
2, 91840, Note_off_c, 1, 52, 0
2, 91880, Note_on_c, 1, 55, 127
2, 92240, Note_off_c, 1, 55, 0
2, 92280, Note_on_c, 1, 52, 127
2, 92280, Note_on_c, 1, 60, 127
2, 92640, Note_off_c, 1, 52, 0
2, 92640, Note_off_c, 1, 60, 0
2, 92680, Note_on_c, 1, 54, 127
2, 93040, Note_off_c, 1, 54, 0
2, 93120, Note_on_c, 1, 55, 127
2, 93480, Note_off_c, 1, 55, 0
2, 93520, Note_on_c, 1, 55, 127
2, 93880, Note_off_c, 1, 55, 0
2, 93920, Note_on_c, 1, 59, 127
2, 94280, Note_off_c, 1, 59, 0
2, 94320, Note_on_c, 1, 55, 127
2, 94680, Note_off_c, 1, 55, 0
2, 94720, Note_on_c, 1, 59, 127
2, 95080, Note_off_c, 1, 59, 0
2, 95120, Note_on_c, 1, 55, 127
2, 95480, Note_off_c, 1, 55, 0
2, 95560, Note_on_c, 1, 54, 127
2, 95920, Note_off_c, 1, 54, 0
2, 95960, Note_on_c, 1, 55, 127
2, 96320, Note_off_c, 1, 55, 0
2, 96360, Note_on_c, 1, 64, 127
2, 96720, Note_off_c, 1, 64, 0
2, 96760, Note_on_c, 1, 60, 127
2, 97120, Note_off_c, 1, 60, 0
2, 97160, Note_on_c, 1, 57, 127
2, 97520, Note_off_c, 1, 57, 0
2, 97600, Note_on_c, 1, 59, 127
2, 97960, Note_off_c, 1, 59, 0
2, 98000, Note_on_c, 1, 55, 127
2, 98360, Note_off_c, 1, 55, 0
2, 98400, Note_on_c, 1, 59, 127
2, 98760, Note_off_c, 1, 59, 0
2, 98800, Note_on_c, 1, 55, 127
2, 99160, Note_off_c, 1, 55, 0
2, 99200, Note_on_c, 1, 64, 127
2, 99560, Note_off_c, 1, 64, 0
2, 99600, Note_on_c, 1, 62, 127
2, 99960, Note_off_c, 1, 62, 0
2, 100040, Note_on_c, 1, 60, 127
2, 100400, Note_off_c, 1, 60, 0
2, 100440, Note_on_c, 1, 64, 127
2, 100800, Note_off_c, 1, 64, 0
2, 100840, Note_on_c, 1, 60, 127
2, 101200, Note_off_c, 1, 60, 0
2, 101240, Note_on_c, 1, 57, 127
2, 101600, Note_off_c, 1, 57, 0
2, 101640, Note_on_c, 1, 52, 127
2, 102000, Note_off_c, 1, 52, 0
2, 102040, Note_on_c, 1, 48, 127
2, 102400, Note_off_c, 1, 48, 0
2, 102480, Note_on_c, 1, 48, 127
2, 102800, Note_off_c, 1, 48, 0
2, 102840, Note_on_c, 1, 51, 127
2, 103200, Note_off_c, 1, 51, 0
2, 103240, Note_on_c, 1, 47, 127
2, 103600, Note_off_c, 1, 47, 0
2, 103640, Note_on_c, 1, 50, 127
2, 104000, Note_off_c, 1, 50, 0
2, 104040, Note_on_c, 1, 47, 127
2, 104400, Note_off_c, 1, 47, 0
2, 104440, Note_on_c, 1, 52, 127
2, 104760, Note_off_c, 1, 52, 0
2, 104800, Note_on_c, 1, 52, 127
2, 104840, Note_off_c, 1, 52, 0
2, 104880, Note_on_c, 1, 52, 127
2, 105240, Note_off_c, 1, 52, 0
2, 105280, Note_on_c, 1, 55, 127
2, 105640, Note_off_c, 1, 55, 0
2, 105680, Note_on_c, 1, 59, 127
2, 106040, Note_off_c, 1, 59, 0
2, 106080, Note_on_c, 1, 64, 127
2, 106440, Note_off_c, 1, 64, 0
2, 106480, Note_on_c, 1, 60, 127
2, 106840, Note_off_c, 1, 60, 0
2, 106880, Note_on_c, 1, 52, 127
2, 107080, Note_off_c, 1, 52, 0
2, 107120, Note_on_c, 1, 52, 127
2, 107280, Note_off_c, 1, 52, 0
2, 107320, Note_on_c, 1, 45, 127
2, 107680, Note_off_c, 1, 45, 0
2, 107720, Note_on_c, 1, 45, 127
2, 108080, Note_off_c, 1, 45, 0
2, 108120, Note_on_c, 1, 52, 127
2, 108480, Note_off_c, 1, 52, 0
2, 108520, Note_on_c, 1, 55, 127
2, 108880, Note_off_c, 1, 55, 0
2, 108920, Note_on_c, 1, 52, 127
2, 109280, Note_off_c, 1, 52, 0
2, 109360, Note_on_c, 1, 55, 127
2, 109720, Note_off_c, 1, 55, 0
2, 109760, Note_on_c, 1, 52, 127
2, 110120, Note_off_c, 1, 52, 0
2, 110160, Note_on_c, 1, 55, 127
2, 110520, Note_off_c, 1, 55, 0
2, 110560, Note_on_c, 1, 60, 127
2, 110920, Note_off_c, 1, 60, 0
2, 110960, Note_on_c, 1, 64, 127
2, 111320, Note_off_c, 1, 64, 0
2, 111360, Note_on_c, 1, 67, 127
2, 111560, Note_off_c, 1, 67, 0
2, 111600, Note_on_c, 1, 67, 127
2, 111760, Note_off_c, 1, 67, 0
2, 111800, Note_on_c, 1, 64, 127
2, 112160, Note_off_c, 1, 64, 0
2, 112200, Note_on_c, 1, 48, 127
2, 112560, Note_off_c, 1, 48, 0
2, 112600, Note_on_c, 1, 55, 127
2, 112960, Note_off_c, 1, 55, 0
2, 113000, Note_on_c, 1, 45, 127
2, 113360, Note_off_c, 1, 45, 0
2, 113400, Note_on_c, 1, 43, 127
2, 113720, Note_off_c, 1, 43, 0
2, 113760, Note_on_c, 1, 43, 127
2, 113800, Note_off_c, 1, 43, 0
2, 113840, Note_on_c, 1, 43, 127
2, 114200, Note_off_c, 1, 43, 0
2, 114240, Note_on_c, 1, 43, 127
2, 114600, Note_off_c, 1, 43, 0
2, 114640, Note_on_c, 1, 43, 127
2, 115000, Note_off_c, 1, 43, 0
2, 115040, Note_on_c, 1, 47, 127
2, 115400, Note_off_c, 1, 47, 0
2, 115440, Note_on_c, 1, 47, 127
2, 115800, Note_off_c, 1, 47, 0
2, 115840, Note_on_c, 1, 59, 127
2, 116160, Note_off_c, 1, 59, 0
2, 116200, Note_on_c, 1, 59, 127
2, 116240, Note_off_c, 1, 59, 0
2, 116280, Note_on_c, 1, 55, 127
2, 116640, Note_off_c, 1, 55, 0
2, 116680, Note_on_c, 1, 59, 127
2, 117040, Note_off_c, 1, 59, 0
2, 117080, Note_on_c, 1, 55, 127
2, 117440, Note_off_c, 1, 55, 0
2, 117480, Note_on_c, 1, 47, 127
2, 117840, Note_off_c, 1, 47, 0
2, 117880, Note_on_c, 1, 48, 127
2, 118240, Note_off_c, 1, 48, 0
2, 118280, Note_on_c, 1, 57, 127
2, 118640, Note_off_c, 1, 57, 0
2, 118720, Note_on_c, 1, 57, 127
2, 119080, Note_off_c, 1, 57, 0
2, 119120, Note_on_c, 1, 60, 127
2, 119480, Note_off_c, 1, 60, 0
2, 119520, Note_on_c, 1, 57, 127
2, 119880, Note_off_c, 1, 57, 0
2, 119920, Note_on_c, 1, 60, 127
2, 120000, Note_off_c, 1, 60, 0
2, 120040, End_track
3, 0, Start_track
3, 0, Title_t, "MIDI"
3, 1536, End_track
0, 0, End_of_file
