0, 0, Header, 1, 3, 192
1, 0, Start_track
1, 0, Time_signature, 4, 2, 24, 8
1, 0, Tempo, 500000
1, 120040, End_track
2, 0, Start_track
2, 0, Text_t, "random instrument: random person i dunno whatev"
2, 0, Title_t, "Track 1"
2, 0, Note_on_c, 1, 58, 127
2, 0, Note_on_c, 1, 66, 127
2, 0, Note_on_c, 1, 78, 127
2, 0, Note_on_c, 1, 82, 127
2, 0, Note_on_c, 1, 90, 127
2, 40, Note_on_c, 1, 46, 127
2, 40, Note_off_c, 1, 66, 0
2, 40, Note_off_c, 1, 78, 0
2, 40, Note_on_c, 1, 86, 127
2, 40, Note_off_c, 1, 90, 0
2, 40, Note_on_c, 1, 94, 127
2, 80, Note_off_c, 1, 46, 0
2, 80, Note_off_c, 1, 58, 0
2, 80, Note_off_c, 1, 82, 0
2, 80, Note_off_c, 1, 86, 0
2, 80, Note_off_c, 1, 94, 0
2, 120, Note_on_c, 1, 47, 127
2, 120, Note_on_c, 1, 58, 127
2, 120, Note_on_c, 1, 62, 127
2, 120, Note_on_c, 1, 66, 127
2, 120, Note_on_c, 1, 70, 127
2, 120, Note_on_c, 1, 74, 127
2, 160, Note_off_c, 1, 47, 0
2, 160, Note_off_c, 1, 62, 0
2, 160, Note_off_c, 1, 70, 0
2, 160, Note_off_c, 1, 74, 0
2, 160, Note_on_c, 1, 78, 127
2, 160, Note_on_c, 1, 82, 127
2, 160, Note_on_c, 1, 90, 127
2, 360, Note_off_c, 1, 58, 0
2, 360, Note_off_c, 1, 66, 0
2, 360, Note_off_c, 1, 78, 0
2, 360, Note_off_c, 1, 82, 0
2, 360, Note_off_c, 1, 90, 0
2, 400, Note_on_c, 1, 51, 127
2, 400, Note_on_c, 1, 59, 127
2, 400, Note_on_c, 1, 71, 127
2, 400, Note_on_c, 1, 75, 127
2, 840, Note_off_c, 1, 51, 0
2, 840, Note_off_c, 1, 59, 0
2, 840, Note_off_c, 1, 71, 0
2, 840, Note_off_c, 1, 75, 0
2, 880, Note_on_c, 1, 49, 127
2, 880, Note_on_c, 1, 55, 127
2, 880, Note_on_c, 1, 57, 127
2, 880, Note_on_c, 1, 61, 127
2, 880, Note_on_c, 1, 64, 127
2, 880, Note_on_c, 1, 69, 127
2, 1200, Note_off_c, 1, 49, 0
2, 1200, Note_off_c, 1, 55, 0
2, 1200, Note_off_c, 1, 57, 0
2, 1200, Note_off_c, 1, 61, 0
2, 1200, Note_off_c, 1, 64, 0
2, 1200, Note_off_c, 1, 69, 0
2, 1240, Note_on_c, 1, 51, 127
2, 1240, Note_on_c, 1, 57, 127
2, 1240, Note_on_c, 1, 63, 127
2, 1240, Note_on_c, 1, 75, 127
2, 1800, Note_off_c, 1, 51, 0
2, 1800, Note_off_c, 1, 57, 0
2, 1800, Note_off_c, 1, 63, 0
2, 1800, Note_off_c, 1, 75, 0
2, 1840, Note_on_c, 1, 63, 127
2, 1840, Note_on_c, 1, 72, 127
2, 1840, Note_on_c, 1, 91, 127
2, 2120, Note_off_c, 1, 63, 0
2, 2120, Note_off_c, 1, 72, 0
2, 2120, Note_off_c, 1, 91, 0
2, 2160, Note_on_c, 1, 63, 127
2, 2160, Note_on_c, 1, 72, 127
2, 2160, Note_on_c, 1, 91, 127
2, 2240, Note_off_c, 1, 63, 0
2, 2240, Note_off_c, 1, 72, 0
2, 2240, Note_off_c, 1, 91, 0
2, 2280, Note_on_c, 1, 63, 127
2, 2280, Note_on_c, 1, 72, 127
2, 2280, Note_on_c, 1, 91, 127
2, 2640, Note_off_c, 1, 63, 0
2, 2640, Note_off_c, 1, 72, 0
2, 2640, Note_off_c, 1, 91, 0
2, 2680, Note_on_c, 1, 63, 127
2, 2680, Note_on_c, 1, 72, 127
2, 2680, Note_on_c, 1, 91, 127
2, 3040, Note_off_c, 1, 63, 0
2, 3040, Note_off_c, 1, 72, 0
2, 3040, Note_off_c, 1, 91, 0
2, 3080, Note_on_c, 1, 63, 127
2, 3080, Note_on_c, 1, 72, 127
2, 3080, Note_on_c, 1, 91, 127
2, 3440, Note_off_c, 1, 63, 0
2, 3440, Note_off_c, 1, 91, 0
2, 3480, Note_on_c, 1, 63, 127
2, 3480, Note_on_c, 1, 91, 127
2, 3840, Note_off_c, 1, 63, 0
2, 3840, Note_off_c, 1, 91, 0
2, 3880, Note_on_c, 1, 63, 127
2, 3880, Note_on_c, 1, 89, 127
2, 4240, Note_off_c, 1, 63, 0
2, 4240, Note_off_c, 1, 89, 0
2, 4280, Note_off_c, 1, 72, 0
2, 4320, Note_on_c, 1, 63, 127
2, 4320, Note_on_c, 1, 72, 127
2, 4320, Note_on_c, 1, 89, 127
2, 4640, Note_off_c, 1, 63, 0
2, 4640, Note_off_c, 1, 89, 0
2, 4680, Note_on_c, 1, 58, 127
2, 4680, Note_on_c, 1, 70, 127
2, 4680, Note_off_c, 1, 72, 0
2, 4680, Note_on_c, 1, 77, 127
2, 4680, Note_on_c, 1, 80, 127
2, 4720, Note_on_c, 1, 34, 127
2, 4720, Note_on_c, 1, 41, 127
2, 4720, Note_off_c, 1, 58, 0
2, 4720, Note_on_c, 1, 69, 127
2, 4720, Note_off_c, 1, 70, 0
2, 4720, Note_on_c, 1, 72, 127
2, 4720, Note_on_c, 1, 75, 127
2, 4720, Note_off_c, 1, 80, 0
2, 4760, Note_off_c, 1, 34, 0
2, 4760, Note_off_c, 1, 41, 0
2, 4760, Note_on_c, 1, 53, 127
2, 4760, Note_on_c, 1, 58, 127
2, 4760, Note_on_c, 1, 63, 127
2, 4760, Note_off_c, 1, 69, 0
2, 4760, Note_off_c, 1, 72, 0
2, 4760, Note_off_c, 1, 77, 0
2, 4800, Note_on_c, 1, 34, 127
2, 4800, Note_on_c, 1, 41, 127
2, 4800, Note_off_c, 1, 53, 0
2, 4800, Note_off_c, 1, 58, 0
2, 4800, Note_off_c, 1, 63, 0
2, 4800, Note_on_c, 1, 69, 127
2, 4800, Note_on_c, 1, 72, 127
2, 4800, Note_on_c, 1, 77, 127
2, 4920, Note_off_c, 1, 34, 0
2, 4920, Note_off_c, 1, 41, 0
2, 4920, Note_on_c, 1, 58, 127
2, 4920, Note_on_c, 1, 62, 127
2, 4920, Note_on_c, 1, 65, 127
2, 4920, Note_off_c, 1, 69, 0
2, 4920, Note_off_c, 1, 72, 0
2, 4920, Note_off_c, 1, 75, 0
2, 4920, Note_off_c, 1, 77, 0
2, 4920, Note_on_c, 1, 91, 127
2, 4960, Note_on_c, 1, 34, 127
2, 4960, Note_on_c, 1, 41, 127
2, 4960, Note_off_c, 1, 58, 0
2, 4960, Note_off_c, 1, 62, 0
2, 4960, Note_off_c, 1, 65, 0
2, 4960, Note_on_c, 1, 69, 127
2, 4960, Note_on_c, 1, 72, 127
2, 4960, Note_on_c, 1, 75, 127
2, 4960, Note_on_c, 1, 77, 127
2, 4960, Note_off_c, 1, 91, 0
2, 5040, Note_off_c, 1, 34, 0
2, 5040, Note_off_c, 1, 41, 0
2, 5040, Note_off_c, 1, 69, 0
2, 5040, Note_off_c, 1, 72, 0
2, 5040, Note_off_c, 1, 75, 0
2, 5040, Note_off_c, 1, 77, 0
2, 5080, Note_on_c, 1, 55, 127
2, 5080, Note_on_c, 1, 58, 127
2, 5080, Note_on_c, 1, 67, 127
2, 5080, Note_on_c, 1, 85, 127
2, 5080, Note_on_c, 1, 88, 127
2, 5080, Note_on_c, 1, 97, 127
2, 5120, Note_on_c, 1, 27, 127
2, 5120, Note_off_c, 1, 55, 0
2, 5120, Note_off_c, 1, 58, 0
2, 5120, Note_off_c, 1, 67, 0
2, 5120, Note_off_c, 1, 85, 0
2, 5120, Note_on_c, 1, 87, 127
2, 5120, Note_off_c, 1, 88, 0
2, 5120, Note_off_c, 1, 97, 0
2, 5440, Note_off_c, 1, 27, 0
2, 5440, Note_off_c, 1, 87, 0
2, 5480, Note_on_c, 1, 41, 127
2, 5480, Note_on_c, 1, 53, 127
2, 5480, Note_on_c, 1, 62, 127
2, 5480, Note_on_c, 1, 67, 127
2, 5480, Note_on_c, 1, 71, 127
2, 5480, Note_on_c, 1, 74, 127
2, 5520, Note_off_c, 1, 41, 0
2, 5520, Note_off_c, 1, 53, 0
2, 5520, Note_off_c, 1, 62, 0
2, 5520, Note_off_c, 1, 67, 0
2, 5520, Note_off_c, 1, 71, 0
2, 5520, Note_on_c, 1, 73, 127
2, 5520, Note_off_c, 1, 74, 0
2, 5520, Note_on_c, 1, 77, 127
2, 5520, Note_on_c, 1, 82, 127
2, 5520, Note_on_c, 1, 89, 127
2, 5560, Note_on_c, 1, 46, 127
2, 5560, Note_off_c, 1, 73, 0
2, 5560, Note_on_c, 1, 74, 127
2, 5560, Note_off_c, 1, 77, 0
2, 5560, Note_on_c, 1, 86, 127
2, 5560, Note_off_c, 1, 89, 0
2, 5600, Note_off_c, 1, 46, 0
2, 5600, Note_on_c, 1, 73, 127
2, 5600, Note_off_c, 1, 74, 0
2, 5600, Note_on_c, 1, 77, 127
2, 5600, Note_off_c, 1, 86, 0
2, 5600, Note_on_c, 1, 89, 127
2, 5840, Note_off_c, 1, 73, 0
2, 5840, Note_off_c, 1, 77, 0
2, 5840, Note_off_c, 1, 82, 0
2, 5840, Note_off_c, 1, 89, 0
2, 5880, Note_on_c, 1, 35, 127
2, 5880, Note_on_c, 1, 83, 127
2, 5880, Note_on_c, 1, 91, 127
2, 5880, Note_on_c, 1, 95, 127
2, 5920, Note_off_c, 1, 35, 0
2, 5920, Note_on_c, 1, 60, 127
2, 5920, Note_on_c, 1, 63, 127
2, 5920, Note_on_c, 1, 75, 127
2, 5920, Note_on_c, 1, 79, 127
2, 5920, Note_off_c, 1, 83, 0
2, 5920, Note_on_c, 1, 87, 127
2, 5920, Note_off_c, 1, 91, 0
2, 5920, Note_off_c, 1, 95, 0
2, 6240, Note_off_c, 1, 60, 0
2, 6240, Note_off_c, 1, 63, 0
2, 6240, Note_off_c, 1, 75, 0
2, 6240, Note_off_c, 1, 79, 0
2, 6240, Note_off_c, 1, 87, 0
2, 6320, Note_on_c, 1, 60, 127
2, 6320, Note_on_c, 1, 63, 127
2, 6320, Note_on_c, 1, 75, 127
2, 6320, Note_on_c, 1, 79, 127
2, 6320, Note_on_c, 1, 87, 127
2, 6680, Note_off_c, 1, 60, 0
2, 6680, Note_off_c, 1, 63, 0
2, 6680, Note_off_c, 1, 75, 0
2, 6680, Note_off_c, 1, 79, 0
2, 6680, Note_off_c, 1, 87, 0
2, 6720, Note_on_c, 1, 60, 127
2, 6720, Note_on_c, 1, 63, 127
2, 6720, Note_on_c, 1, 75, 127
2, 6720, Note_on_c, 1, 79, 127
2, 6720, Note_on_c, 1, 87, 127
2, 7040, Note_off_c, 1, 60, 0
2, 7040, Note_off_c, 1, 63, 0
2, 7040, Note_off_c, 1, 75, 0
2, 7040, Note_off_c, 1, 79, 0
2, 7040, Note_off_c, 1, 87, 0
2, 7080, Note_on_c, 1, 58, 127
2, 7080, Note_on_c, 1, 61, 127
2, 7080, Note_on_c, 1, 68, 127
2, 7080, Note_on_c, 1, 75, 127
2, 7440, Note_off_c, 1, 58, 0
2, 7440, Note_off_c, 1, 61, 0
2, 7440, Note_off_c, 1, 68, 0
2, 7440, Note_off_c, 1, 75, 0
2, 7480, Note_on_c, 1, 54, 127
2, 7480, Note_on_c, 1, 66, 127
2, 7480, Note_on_c, 1, 70, 127
2, 7480, Note_on_c, 1, 75, 127
2, 7840, Note_off_c, 1, 54, 0
2, 7840, Note_on_c, 1, 73, 127
2, 7840, Note_off_c, 1, 75, 0
2, 7880, Note_on_c, 1, 54, 127
2, 8240, Note_off_c, 1, 54, 0
2, 8240, Note_off_c, 1, 66, 0
2, 8240, Note_off_c, 1, 70, 0
2, 8240, Note_off_c, 1, 73, 0
2, 8280, Note_on_c, 1, 59, 127
2, 8280, Note_on_c, 1, 63, 127
2, 8280, Note_on_c, 1, 66, 127
2, 8280, Note_on_c, 1, 75, 127
2, 8520, Note_off_c, 1, 59, 0
2, 8520, Note_off_c, 1, 63, 0
2, 8520, Note_off_c, 1, 66, 0
2, 8520, Note_off_c, 1, 75, 0
2, 8560, Note_on_c, 1, 59, 127
2, 8560, Note_on_c, 1, 63, 127
2, 8560, Note_on_c, 1, 66, 127
2, 8560, Note_on_c, 1, 75, 127
2, 8720, Note_off_c, 1, 59, 0
2, 8720, Note_off_c, 1, 63, 0
2, 8720, Note_off_c, 1, 66, 0
2, 8720, Note_off_c, 1, 75, 0
2, 8760, Note_on_c, 1, 61, 127
2, 8760, Note_on_c, 1, 66, 127
2, 8760, Note_on_c, 1, 70, 127
2, 8760, Note_on_c, 1, 78, 127
2, 9080, Note_off_c, 1, 61, 0
2, 9080, Note_off_c, 1, 66, 0
2, 9080, Note_off_c, 1, 70, 0
2, 9080, Note_off_c, 1, 78, 0
2, 9160, Note_on_c, 1, 61, 127
2, 9160, Note_on_c, 1, 65, 127
2, 9160, Note_on_c, 1, 73, 127
2, 9160, Note_on_c, 1, 80, 127
2, 9880, Note_off_c, 1, 61, 0
2, 9880, Note_off_c, 1, 65, 0
2, 9880, Note_off_c, 1, 73, 0
2, 9880, Note_off_c, 1, 80, 0
2, 9920, Note_on_c, 1, 61, 127
2, 9920, Note_on_c, 1, 73, 127
2, 9920, Note_on_c, 1, 77, 127
2, 9920, Note_on_c, 1, 80, 127
2, 10280, Note_off_c, 1, 61, 0
2, 10280, Note_off_c, 1, 73, 0
2, 10280, Note_off_c, 1, 77, 0
2, 10280, Note_off_c, 1, 80, 0
2, 10320, Note_on_c, 1, 54, 127
2, 10320, Note_on_c, 1, 61, 127
2, 10320, Note_on_c, 1, 70, 127
2, 10320, Note_on_c, 1, 73, 127
2, 10720, Note_off_c, 1, 54, 0
2, 10720, Note_off_c, 1, 61, 0
2, 10720, Note_off_c, 1, 70, 0
2, 10720, Note_off_c, 1, 73, 0
2, 10760, Note_on_c, 1, 54, 127
2, 10760, Note_on_c, 1, 61, 127
2, 10760, Note_on_c, 1, 70, 127
2, 10760, Note_on_c, 1, 73, 127
2, 11120, Note_off_c, 1, 54, 0
2, 11120, Note_off_c, 1, 61, 0
2, 11120, Note_off_c, 1, 70, 0
2, 11120, Note_off_c, 1, 73, 0
2, 11160, Note_on_c, 1, 44, 127
2, 11160, Note_on_c, 1, 72, 127
2, 11160, Note_on_c, 1, 75, 127
2, 11520, Note_off_c, 1, 44, 0
2, 11520, Note_off_c, 1, 72, 0
2, 11520, Note_off_c, 1, 75, 0
2, 11560, Note_on_c, 1, 49, 127
2, 11560, Note_on_c, 1, 72, 127
2, 11560, Note_on_c, 1, 75, 127
2, 11920, Note_off_c, 1, 49, 0
2, 11920, Note_off_c, 1, 72, 0
2, 11920, Note_off_c, 1, 75, 0
2, 11960, Note_on_c, 1, 49, 127
2, 11960, Note_on_c, 1, 56, 127
2, 11960, Note_on_c, 1, 73, 127
2, 11960, Note_on_c, 1, 77, 127
2, 12320, Note_off_c, 1, 49, 0
2, 12320, Note_off_c, 1, 56, 0
2, 12320, Note_off_c, 1, 73, 0
2, 12320, Note_off_c, 1, 77, 0
2, 12360, Note_on_c, 1, 49, 127
2, 12360, Note_on_c, 1, 56, 127
2, 12360, Note_on_c, 1, 73, 127
2, 12360, Note_on_c, 1, 77, 127
2, 12920, Note_off_c, 1, 49, 0
2, 12920, Note_off_c, 1, 56, 0
2, 12920, Note_off_c, 1, 73, 0
2, 12920, Note_off_c, 1, 77, 0
2, 12960, Note_on_c, 1, 49, 127
2, 12960, Note_on_c, 1, 56, 127
2, 12960, Note_on_c, 1, 73, 127
2, 12960, Note_on_c, 1, 77, 127
2, 13160, Note_off_c, 1, 49, 0
2, 13160, Note_off_c, 1, 56, 0
2, 13160, Note_off_c, 1, 73, 0
2, 13160, Note_off_c, 1, 77, 0
2, 18240, Note_on_c, 1, 40, 127
2, 18240, Note_on_c, 1, 52, 127
2, 18240, Note_on_c, 1, 64, 127
2, 18600, Note_off_c, 1, 40, 0
2, 18600, Note_off_c, 1, 52, 0
2, 18600, Note_off_c, 1, 64, 0
2, 18640, Note_on_c, 1, 33, 127
2, 18640, Note_on_c, 1, 57, 127
2, 19680, Note_off_c, 1, 57, 0
2, 19680, Note_on_c, 1, 64, 127
2, 19760, Note_off_c, 1, 33, 0
2, 19760, Note_off_c, 1, 64, 0
2, 19800, Note_on_c, 1, 33, 127
2, 19800, Note_on_c, 1, 64, 127
2, 19840, Note_off_c, 1, 33, 0
2, 21040, Note_off_c, 1, 64, 0
2, 21080, Note_on_c, 1, 35, 127
2, 21080, Note_on_c, 1, 45, 127
2, 21120, Note_off_c, 1, 35, 0
2, 21120, Note_on_c, 1, 40, 127
2, 21120, Note_off_c, 1, 45, 0
2, 21120, Note_on_c, 1, 72, 127
2, 21120, Note_on_c, 1, 76, 127
2, 21800, Note_off_c, 1, 40, 0
2, 21800, Note_off_c, 1, 72, 0
2, 21840, Note_off_c, 1, 76, 0
2, 21880, Note_on_c, 1, 55, 127
2, 21880, Note_on_c, 1, 66, 127
2, 21880, Note_on_c, 1, 74, 127
2, 21880, Note_on_c, 1, 81, 127
2, 21880, Note_on_c, 1, 84, 127
2, 21920, Note_on_c, 1, 34, 127
2, 21920, Note_on_c, 1, 46, 127
2, 21920, Note_on_c, 1, 49, 127
2, 21920, Note_off_c, 1, 55, 0
2, 21920, Note_on_c, 1, 61, 127
2, 21920, Note_off_c, 1, 66, 0
2, 21920, Note_off_c, 1, 74, 0
2, 21920, Note_off_c, 1, 81, 0
2, 21920, Note_off_c, 1, 84, 0
2, 23400, Note_off_c, 1, 34, 0
2, 23400, Note_off_c, 1, 46, 0
2, 23400, Note_off_c, 1, 49, 0
2, 23400, Note_off_c, 1, 61, 0
2, 23440, Note_on_c, 1, 54, 127
2, 23440, Note_on_c, 1, 63, 127
2, 23440, Note_on_c, 1, 66, 127
2, 23440, Note_on_c, 1, 71, 127
2, 23440, Note_on_c, 1, 78, 127
2, 23960, Note_off_c, 1, 54, 0
2, 23960, Note_off_c, 1, 63, 0
2, 23960, Note_off_c, 1, 66, 0
2, 23960, Note_off_c, 1, 71, 0
2, 23960, Note_off_c, 1, 78, 0
2, 24000, Note_on_c, 1, 54, 127
2, 24000, Note_on_c, 1, 63, 127
2, 24000, Note_on_c, 1, 66, 127
2, 24000, Note_on_c, 1, 71, 127
2, 24000, Note_on_c, 1, 78, 127
2, 26000, Note_off_c, 1, 54, 0
2, 26000, Note_off_c, 1, 63, 0
2, 26000, Note_off_c, 1, 66, 0
2, 26000, Note_off_c, 1, 71, 0
2, 26000, Note_off_c, 1, 78, 0
2, 26040, Note_on_c, 1, 54, 127
2, 26040, Note_on_c, 1, 63, 127
2, 26040, Note_on_c, 1, 66, 127
2, 26040, Note_on_c, 1, 71, 127
2, 26040, Note_on_c, 1, 78, 127
2, 26840, Note_off_c, 1, 54, 0
2, 26840, Note_off_c, 1, 63, 0
2, 26840, Note_off_c, 1, 66, 0
2, 26840, Note_off_c, 1, 71, 0
2, 26840, Note_off_c, 1, 78, 0
2, 26920, Note_on_c, 1, 43, 127
2, 26920, Note_on_c, 1, 53, 127
2, 26920, Note_on_c, 1, 62, 127
2, 26920, Note_on_c, 1, 67, 127
2, 26920, Note_on_c, 1, 74, 127
2, 28160, Note_off_c, 1, 43, 0
2, 28160, Note_off_c, 1, 53, 0
2, 28160, Note_off_c, 1, 62, 0
2, 28160, Note_off_c, 1, 67, 0
2, 28160, Note_off_c, 1, 74, 0
2, 28200, Note_on_c, 1, 43, 127
2, 28200, Note_on_c, 1, 53, 127
2, 28200, Note_on_c, 1, 62, 127
2, 28200, Note_on_c, 1, 67, 127
2, 28200, Note_on_c, 1, 74, 127
2, 28320, Note_off_c, 1, 53, 0
2, 28360, Note_on_c, 1, 55, 127
2, 28720, Note_off_c, 1, 55, 0
2, 28760, Note_on_c, 1, 55, 127
2, 29080, Note_off_c, 1, 62, 0
2, 29080, Note_off_c, 1, 67, 0
2, 29080, Note_off_c, 1, 74, 0
2, 29120, Note_off_c, 1, 43, 0
2, 29120, Note_off_c, 1, 55, 0
2, 29160, Note_on_c, 1, 43, 127
2, 29160, Note_on_c, 1, 53, 127
2, 29160, Note_on_c, 1, 62, 127
2, 29160, Note_on_c, 1, 67, 127
2, 29160, Note_on_c, 1, 74, 127
2, 30520, Note_off_c, 1, 53, 0
2, 30560, Note_off_c, 1, 43, 0
2, 30560, Note_off_c, 1, 62, 0
2, 30560, Note_off_c, 1, 67, 0
2, 30560, Note_off_c, 1, 74, 0
2, 30600, Note_on_c, 1, 43, 127
2, 30600, Note_on_c, 1, 53, 127
2, 30600, Note_on_c, 1, 62, 127
2, 30600, Note_on_c, 1, 67, 127
2, 30600, Note_on_c, 1, 74, 127
2, 30960, Note_off_c, 1, 53, 0
2, 31000, Note_on_c, 1, 55, 127
2, 31720, Note_off_c, 1, 43, 0
2, 31720, Note_off_c, 1, 55, 0
2, 31720, Note_off_c, 1, 62, 0
2, 31720, Note_off_c, 1, 67, 0
2, 31720, Note_off_c, 1, 74, 0
2, 31800, Note_on_c, 1, 43, 127
2, 31800, Note_on_c, 1, 53, 127
2, 31800, Note_on_c, 1, 62, 127
2, 31800, Note_on_c, 1, 67, 127
2, 31800, Note_on_c, 1, 74, 127
2, 32760, Note_off_c, 1, 53, 0
2, 32800, Note_on_c, 1, 55, 127
2, 32920, Note_off_c, 1, 62, 0
2, 32920, Note_off_c, 1, 67, 0
2, 32920, Note_off_c, 1, 74, 0
2, 32960, Note_off_c, 1, 43, 0
2, 32960, Note_off_c, 1, 55, 0
2, 33040, Note_on_c, 1, 43, 127
2, 33040, Note_on_c, 1, 55, 127
2, 33040, Note_on_c, 1, 62, 127
2, 33040, Note_on_c, 1, 67, 127
2, 33040, Note_on_c, 1, 74, 127
2, 33560, Note_off_c, 1, 62, 0
2, 33560, Note_off_c, 1, 67, 0
2, 33560, Note_off_c, 1, 74, 0
2, 33600, Note_off_c, 1, 43, 0
2, 33600, Note_off_c, 1, 55, 0
2, 33640, Note_on_c, 1, 43, 127
2, 33640, Note_on_c, 1, 55, 127
2, 33640, Note_on_c, 1, 62, 127
2, 33640, Note_on_c, 1, 67, 127
2, 33640, Note_on_c, 1, 74, 127
2, 34000, Note_off_c, 1, 62, 0
2, 34000, Note_off_c, 1, 67, 0
2, 34000, Note_off_c, 1, 74, 0
2, 34040, Note_on_c, 1, 62, 127
2, 34040, Note_on_c, 1, 67, 127
2, 34040, Note_on_c, 1, 74, 127
2, 34360, Note_off_c, 1, 55, 0
2, 34360, Note_off_c, 1, 62, 0
2, 34360, Note_off_c, 1, 67, 0
2, 34360, Note_off_c, 1, 74, 0
2, 34440, Note_on_c, 1, 53, 127
2, 34440, Note_on_c, 1, 62, 127
2, 34440, Note_on_c, 1, 67, 127
2, 34440, Note_on_c, 1, 74, 127
2, 35000, Note_off_c, 1, 53, 0
2, 35040, Note_on_c, 1, 55, 127
2, 35200, Note_off_c, 1, 43, 0
2, 35200, Note_off_c, 1, 55, 0
2, 35200, Note_off_c, 1, 62, 0
2, 35200, Note_off_c, 1, 67, 0
2, 35200, Note_off_c, 1, 74, 0
2, 35280, Note_on_c, 1, 43, 127
2, 35280, Note_on_c, 1, 52, 127
2, 35280, Note_on_c, 1, 60, 127
2, 35280, Note_on_c, 1, 67, 127
2, 35280, Note_on_c, 1, 72, 127
2, 36040, Note_off_c, 1, 52, 0
2, 36080, Note_on_c, 1, 55, 127
2, 36240, Note_off_c, 1, 55, 0
2, 36280, Note_on_c, 1, 55, 127
2, 36440, Note_off_c, 1, 43, 0
2, 36440, Note_off_c, 1, 55, 0
2, 36440, Note_off_c, 1, 60, 0
2, 36440, Note_off_c, 1, 67, 0
2, 36440, Note_off_c, 1, 72, 0
2, 36480, Note_on_c, 1, 43, 127
2, 36480, Note_on_c, 1, 53, 127
2, 36480, Note_on_c, 1, 62, 127
2, 36480, Note_on_c, 1, 67, 127
2, 36480, Note_on_c, 1, 71, 127
2, 36480, Note_on_c, 1, 74, 127
2, 37480, Note_off_c, 1, 43, 0
2, 37480, Note_off_c, 1, 53, 0
2, 37480, Note_off_c, 1, 62, 0
2, 37480, Note_off_c, 1, 67, 0
2, 37480, Note_off_c, 1, 71, 0
2, 37480, Note_off_c, 1, 74, 0
2, 37520, Note_on_c, 1, 43, 127
2, 37520, Note_on_c, 1, 53, 127
2, 37520, Note_on_c, 1, 62, 127
2, 37520, Note_on_c, 1, 67, 127
2, 37520, Note_on_c, 1, 71, 127
2, 37520, Note_on_c, 1, 74, 127
2, 37720, Note_on_c, 1, 55, 127
2, 39280, Note_off_c, 1, 43, 0
2, 39280, Note_off_c, 1, 53, 0
2, 39280, Note_off_c, 1, 55, 0
2, 39280, Note_off_c, 1, 62, 0
2, 39280, Note_off_c, 1, 67, 0
2, 39280, Note_off_c, 1, 71, 0
2, 39280, Note_off_c, 1, 74, 0
2, 39320, Note_on_c, 1, 43, 127
2, 39320, Note_on_c, 1, 53, 127
2, 39320, Note_on_c, 1, 55, 127
2, 39320, Note_on_c, 1, 62, 127
2, 39320, Note_on_c, 1, 67, 127
2, 39320, Note_on_c, 1, 71, 127
2, 39320, Note_on_c, 1, 74, 127
2, 39720, Note_off_c, 1, 43, 0
2, 39720, Note_off_c, 1, 53, 0
2, 39720, Note_off_c, 1, 55, 0
2, 39720, Note_off_c, 1, 62, 0
2, 39720, Note_off_c, 1, 67, 0
2, 39720, Note_off_c, 1, 71, 0
2, 39720, Note_off_c, 1, 74, 0
2, 39760, Note_on_c, 1, 43, 127
2, 39760, Note_on_c, 1, 53, 127
2, 39760, Note_on_c, 1, 55, 127
2, 39760, Note_on_c, 1, 62, 127
2, 39760, Note_on_c, 1, 67, 127
2, 39760, Note_on_c, 1, 71, 127
2, 39760, Note_on_c, 1, 74, 127
2, 41960, Note_off_c, 1, 43, 0
2, 41960, Note_off_c, 1, 53, 0
2, 41960, Note_off_c, 1, 62, 0
2, 41960, Note_off_c, 1, 74, 0
2, 41960, Note_on_c, 1, 79, 127
2, 42120, Note_off_c, 1, 55, 0
2, 42120, Note_off_c, 1, 67, 0
2, 42120, Note_off_c, 1, 71, 0
2, 42120, Note_off_c, 1, 79, 0
2, 42200, Note_on_c, 1, 55, 127
2, 42200, Note_on_c, 1, 64, 127
2, 42200, Note_on_c, 1, 67, 127
2, 42200, Note_on_c, 1, 72, 127
2, 43320, Note_off_c, 1, 55, 0
2, 43320, Note_off_c, 1, 64, 0
2, 43320, Note_off_c, 1, 67, 0
2, 43320, Note_off_c, 1, 72, 0
2, 43360, Note_on_c, 1, 43, 127
2, 43360, Note_on_c, 1, 64, 127
2, 43360, Note_on_c, 1, 72, 127
2, 44320, Note_off_c, 1, 43, 0
2, 44360, Note_off_c, 1, 64, 0
2, 44360, Note_off_c, 1, 72, 0
2, 44400, Note_on_c, 1, 64, 127
2, 44400, Note_on_c, 1, 72, 127
2, 44960, Note_off_c, 1, 64, 0
2, 44960, Note_off_c, 1, 72, 0
2, 45000, Note_on_c, 1, 54, 127
2, 45000, Note_on_c, 1, 72, 127
2, 45000, Note_on_c, 1, 81, 127
2, 46160, Note_off_c, 1, 54, 0
2, 46160, Note_off_c, 1, 72, 0
2, 46160, Note_off_c, 1, 81, 0
2, 46200, Note_on_c, 1, 54, 127
2, 46200, Note_on_c, 1, 72, 127
2, 46200, Note_on_c, 1, 81, 127
2, 46960, Note_off_c, 1, 54, 0
2, 46960, Note_off_c, 1, 72, 0
2, 46960, Note_off_c, 1, 81, 0
2, 47040, Note_on_c, 1, 50, 127
2, 47040, Note_on_c, 1, 70, 127
2, 47040, Note_on_c, 1, 74, 127
2, 47040, Note_on_c, 1, 79, 127
2, 47800, Note_off_c, 1, 50, 0
2, 47800, Note_off_c, 1, 70, 0
2, 47800, Note_off_c, 1, 74, 0
2, 47800, Note_off_c, 1, 79, 0
2, 47840, Note_on_c, 1, 68, 127
2, 47840, Note_on_c, 1, 71, 127
2, 47840, Note_on_c, 1, 74, 127
2, 47840, Note_on_c, 1, 80, 127
2, 48800, Note_off_c, 1, 68, 0
2, 48800, Note_off_c, 1, 71, 0
2, 48800, Note_off_c, 1, 74, 0
2, 48800, Note_off_c, 1, 80, 0
2, 48840, Note_on_c, 1, 65, 127
2, 48840, Note_on_c, 1, 68, 127
2, 48840, Note_on_c, 1, 73, 127
2, 49240, Note_on_c, 1, 80, 127
2, 49400, Note_off_c, 1, 80, 0
2, 49440, Note_off_c, 1, 65, 0
2, 49440, Note_off_c, 1, 68, 0
2, 49440, Note_off_c, 1, 73, 0
2, 49480, Note_on_c, 1, 65, 127
2, 49480, Note_on_c, 1, 68, 127
2, 49480, Note_on_c, 1, 73, 127
2, 49720, Note_off_c, 1, 73, 0
2, 49840, Note_off_c, 1, 65, 0
2, 49840, Note_off_c, 1, 68, 0
2, 49880, Note_on_c, 1, 45, 127
2, 49880, Note_on_c, 1, 57, 127
2, 49880, Note_on_c, 1, 61, 127
2, 49880, Note_on_c, 1, 67, 127
2, 49880, Note_on_c, 1, 73, 127
2, 51000, Note_off_c, 1, 45, 0
2, 51000, Note_off_c, 1, 57, 0
2, 51000, Note_off_c, 1, 61, 0
2, 51000, Note_off_c, 1, 67, 0
2, 51000, Note_off_c, 1, 73, 0
2, 51080, Note_on_c, 1, 46, 127
2, 51080, Note_on_c, 1, 58, 127
2, 51080, Note_on_c, 1, 65, 127
2, 51080, Note_on_c, 1, 70, 127
2, 51080, Note_on_c, 1, 74, 127
2, 51480, Note_off_c, 1, 46, 0
2, 51480, Note_off_c, 1, 58, 0
2, 51480, Note_off_c, 1, 65, 0
2, 51480, Note_off_c, 1, 70, 0
2, 51480, Note_off_c, 1, 74, 0
2, 51520, Note_on_c, 1, 46, 127
2, 51520, Note_on_c, 1, 58, 127
2, 51520, Note_on_c, 1, 65, 127
2, 51520, Note_on_c, 1, 70, 127
2, 51520, Note_on_c, 1, 74, 127
2, 52240, Note_off_c, 1, 65, 0
2, 52240, Note_off_c, 1, 70, 0
2, 52240, Note_off_c, 1, 74, 0
2, 52280, Note_off_c, 1, 58, 0
2, 52320, Note_on_c, 1, 43, 127
2, 52320, Note_off_c, 1, 46, 0
2, 52320, Note_on_c, 1, 55, 127
2, 52320, Note_on_c, 1, 67, 127
2, 52320, Note_on_c, 1, 70, 127
2, 52320, Note_on_c, 1, 75, 127
2, 52320, Note_on_c, 1, 79, 127
2, 52880, Note_off_c, 1, 43, 0
2, 52880, Note_off_c, 1, 55, 0
2, 52880, Note_off_c, 1, 67, 0
2, 52880, Note_off_c, 1, 70, 0
2, 52880, Note_off_c, 1, 75, 0
2, 52880, Note_off_c, 1, 79, 0
2, 52920, Note_on_c, 1, 43, 127
2, 52920, Note_on_c, 1, 55, 127
2, 52920, Note_on_c, 1, 67, 127
2, 52920, Note_on_c, 1, 70, 127
2, 52920, Note_on_c, 1, 75, 127
2, 52920, Note_on_c, 1, 79, 127
2, 53480, Note_off_c, 1, 43, 0
2, 53480, Note_off_c, 1, 55, 0
2, 53480, Note_off_c, 1, 67, 0
2, 53480, Note_off_c, 1, 70, 0
2, 53480, Note_off_c, 1, 75, 0
2, 53480, Note_off_c, 1, 79, 0
2, 53560, Note_on_c, 1, 43, 127
2, 53560, Note_on_c, 1, 55, 127
2, 53560, Note_on_c, 1, 67, 127
2, 53560, Note_on_c, 1, 75, 127
2, 54120, Note_off_c, 1, 43, 0
2, 54120, Note_off_c, 1, 55, 0
2, 54120, Note_off_c, 1, 67, 0
2, 54120, Note_off_c, 1, 75, 0
2, 54200, Note_on_c, 1, 43, 127
2, 54200, Note_on_c, 1, 55, 127
2, 54200, Note_on_c, 1, 67, 127
2, 54200, Note_on_c, 1, 75, 127
2, 54760, Note_off_c, 1, 43, 0
2, 54760, Note_off_c, 1, 55, 0
2, 54760, Note_off_c, 1, 67, 0
2, 54760, Note_off_c, 1, 75, 0
2, 54800, Note_on_c, 1, 46, 127
2, 54800, Note_on_c, 1, 50, 127
2, 54800, Note_on_c, 1, 53, 127
2, 54800, Note_on_c, 1, 58, 127
2, 54800, Note_on_c, 1, 65, 127
2, 54800, Note_on_c, 1, 70, 127
2, 54800, Note_on_c, 1, 74, 127
2, 54800, Note_on_c, 1, 77, 127
2, 55600, Note_off_c, 1, 46, 0
2, 55600, Note_off_c, 1, 50, 0
2, 55600, Note_off_c, 1, 53, 0
2, 55600, Note_off_c, 1, 58, 0
2, 55600, Note_off_c, 1, 65, 0
2, 55600, Note_off_c, 1, 70, 0
2, 55600, Note_off_c, 1, 74, 0
2, 55600, Note_off_c, 1, 77, 0
2, 55640, Note_on_c, 1, 46, 127
2, 55640, Note_on_c, 1, 50, 127
2, 55640, Note_on_c, 1, 53, 127
2, 55640, Note_on_c, 1, 58, 127
2, 55640, Note_on_c, 1, 65, 127
2, 55640, Note_on_c, 1, 70, 127
2, 55640, Note_on_c, 1, 74, 127
2, 55640, Note_on_c, 1, 77, 127
2, 56000, Note_off_c, 1, 46, 0
2, 56000, Note_off_c, 1, 50, 0
2, 56000, Note_off_c, 1, 53, 0
2, 56000, Note_off_c, 1, 58, 0
2, 56000, Note_off_c, 1, 65, 0
2, 56000, Note_off_c, 1, 70, 0
2, 56000, Note_off_c, 1, 74, 0
2, 56000, Note_off_c, 1, 77, 0
2, 56040, Note_on_c, 1, 41, 127
2, 56040, Note_on_c, 1, 49, 127
2, 56040, Note_on_c, 1, 56, 127
2, 56040, Note_on_c, 1, 61, 127
2, 56040, Note_on_c, 1, 68, 127
2, 56040, Note_on_c, 1, 73, 127
2, 57000, Note_off_c, 1, 41, 0
2, 57000, Note_off_c, 1, 49, 0
2, 57000, Note_off_c, 1, 56, 0
2, 57000, Note_off_c, 1, 61, 0
2, 57000, Note_off_c, 1, 68, 0
2, 57000, Note_off_c, 1, 73, 0
2, 57040, Note_on_c, 1, 37, 127
2, 57040, Note_on_c, 1, 45, 127
2, 57040, Note_on_c, 1, 49, 127
2, 57040, Note_on_c, 1, 74, 127
2, 57040, Note_on_c, 1, 86, 127
2, 57080, Note_off_c, 1, 37, 0
2, 57080, Note_off_c, 1, 45, 0
2, 57080, Note_off_c, 1, 49, 0
2, 57080, Note_on_c, 1, 69, 127
2, 57080, Note_off_c, 1, 74, 0
2, 57080, Note_on_c, 1, 81, 127
2, 57080, Note_on_c, 1, 84, 127
2, 57080, Note_off_c, 1, 86, 0
2, 57080, Note_on_c, 1, 87, 127
2, 57080, Note_on_c, 1, 93, 127
2, 57120, Note_on_c, 1, 47, 127
2, 57120, Note_on_c, 1, 50, 127
2, 57120, Note_on_c, 1, 54, 127
2, 57120, Note_on_c, 1, 62, 127
2, 57120, Note_off_c, 1, 69, 0
2, 57120, Note_on_c, 1, 76, 127
2, 57120, Note_off_c, 1, 81, 0
2, 57120, Note_off_c, 1, 84, 0
2, 57120, Note_off_c, 1, 87, 0
2, 57120, Note_on_c, 1, 88, 127
2, 57120, Note_off_c, 1, 93, 0
2, 57160, Note_off_c, 1, 47, 0
2, 57160, Note_off_c, 1, 50, 0
2, 57160, Note_off_c, 1, 54, 0
2, 57160, Note_off_c, 1, 62, 0
2, 57160, Note_on_c, 1, 66, 127
2, 57160, Note_on_c, 1, 67, 127
2, 57160, Note_on_c, 1, 71, 127
2, 57160, Note_off_c, 1, 76, 0
2, 57160, Note_on_c, 1, 78, 127
2, 57160, Note_off_c, 1, 88, 0
2, 57160, Note_on_c, 1, 90, 127
2, 57200, Note_on_c, 1, 54, 127
2, 57200, Note_on_c, 1, 64, 127
2, 57200, Note_off_c, 1, 66, 0
2, 57200, Note_off_c, 1, 67, 0
2, 57200, Note_on_c, 1, 68, 127
2, 57200, Note_off_c, 1, 90, 0
2, 57240, Note_on_c, 1, 40, 127
2, 57240, Note_on_c, 1, 52, 127
2, 57240, Note_off_c, 1, 54, 0
2, 57240, Note_on_c, 1, 61, 127
2, 57240, Note_off_c, 1, 64, 0
2, 57240, Note_off_c, 1, 71, 0
2, 57240, Note_on_c, 1, 73, 127
2, 57240, Note_off_c, 1, 78, 0
2, 57240, Note_on_c, 1, 80, 127
2, 57280, Note_on_c, 1, 39, 127
2, 57280, Note_off_c, 1, 40, 0
2, 57280, Note_on_c, 1, 46, 127
2, 57280, Note_off_c, 1, 52, 0
2, 57280, Note_on_c, 1, 58, 127
2, 57280, Note_off_c, 1, 61, 0
2, 57280, Note_on_c, 1, 63, 127
2, 57280, Note_off_c, 1, 68, 0
2, 57280, Note_on_c, 1, 70, 127
2, 57280, Note_off_c, 1, 73, 0
2, 57280, Note_off_c, 1, 80, 0
2, 57640, Note_off_c, 1, 39, 0
2, 57640, Note_off_c, 1, 46, 0
2, 57640, Note_off_c, 1, 58, 0
2, 57640, Note_off_c, 1, 63, 0
2, 57640, Note_off_c, 1, 70, 0
2, 57680, Note_on_c, 1, 39, 127
2, 57680, Note_on_c, 1, 46, 127
2, 57680, Note_on_c, 1, 58, 127
2, 57680, Note_on_c, 1, 63, 127
2, 57680, Note_on_c, 1, 70, 127
2, 57840, Note_off_c, 1, 46, 0
2, 57880, Note_off_c, 1, 39, 0
2, 57880, Note_on_c, 1, 46, 127
2, 57880, Note_on_c, 1, 52, 127
2, 57880, Note_off_c, 1, 58, 0
2, 57880, Note_on_c, 1, 67, 127
2, 57880, Note_off_c, 1, 70, 0
2, 57880, Note_on_c, 1, 75, 127
2, 59840, Note_off_c, 1, 46, 0
2, 59840, Note_off_c, 1, 52, 0
2, 59840, Note_off_c, 1, 63, 0
2, 59840, Note_off_c, 1, 67, 0
2, 59840, Note_off_c, 1, 75, 0
2, 59920, Note_on_c, 1, 53, 127
2, 59920, Note_on_c, 1, 60, 127
2, 59920, Note_on_c, 1, 72, 127
2, 59920, Note_on_c, 1, 76, 127
2, 60280, Note_off_c, 1, 72, 0
2, 60280, Note_off_c, 1, 76, 0
2, 60320, Note_on_c, 1, 72, 127
2, 60320, Note_on_c, 1, 76, 127
2, 60680, Note_off_c, 1, 53, 0
2, 60680, Note_off_c, 1, 60, 0
2, 60680, Note_off_c, 1, 72, 0
2, 60680, Note_off_c, 1, 76, 0
2, 60720, Note_on_c, 1, 53, 127
2, 60720, Note_on_c, 1, 60, 127
2, 60720, Note_on_c, 1, 77, 127
2, 61480, Note_off_c, 1, 53, 0
2, 61480, Note_off_c, 1, 60, 0
2, 61480, Note_off_c, 1, 77, 0
2, 61520, Note_on_c, 1, 53, 127
2, 61520, Note_on_c, 1, 57, 127
2, 61520, Note_on_c, 1, 65, 127
2, 61520, Note_on_c, 1, 69, 127
2, 61920, Note_off_c, 1, 69, 0
2, 61920, Note_on_c, 1, 72, 127
2, 62240, Note_off_c, 1, 53, 0
2, 62240, Note_off_c, 1, 57, 0
2, 62240, Note_off_c, 1, 65, 0
2, 62240, Note_off_c, 1, 72, 0
2, 62280, Note_on_c, 1, 53, 127
2, 62280, Note_on_c, 1, 57, 127
2, 62280, Note_on_c, 1, 65, 127
2, 62280, Note_on_c, 1, 72, 127
2, 62760, Note_off_c, 1, 57, 0
2, 62760, Note_off_c, 1, 65, 0
2, 62800, Note_on_c, 1, 57, 127
2, 62800, Note_on_c, 1, 65, 127
2, 63560, Note_off_c, 1, 57, 0
2, 63560, Note_off_c, 1, 65, 0
2, 63600, Note_on_c, 1, 60, 127
2, 63600, Note_on_c, 1, 65, 127
2, 63600, Note_on_c, 1, 69, 127
2, 64280, Note_off_c, 1, 53, 0
2, 64280, Note_off_c, 1, 60, 0
2, 64280, Note_off_c, 1, 65, 0
2, 64280, Note_off_c, 1, 69, 0
2, 64280, Note_off_c, 1, 72, 0
2, 64320, Note_on_c, 1, 53, 127
2, 64320, Note_on_c, 1, 60, 127
2, 64320, Note_on_c, 1, 65, 127
2, 64320, Note_on_c, 1, 69, 127
2, 64320, Note_on_c, 1, 72, 127
2, 66000, Note_off_c, 1, 53, 0
2, 66000, Note_off_c, 1, 60, 0
2, 66000, Note_off_c, 1, 65, 0
2, 66000, Note_off_c, 1, 69, 0
2, 66000, Note_off_c, 1, 72, 0
2, 67200, Note_on_c, 1, 52, 127
2, 67560, Note_off_c, 1, 52, 0
2, 67600, Note_on_c, 1, 41, 127
2, 67960, Note_off_c, 1, 41, 0
2, 68000, Note_on_c, 1, 45, 127
2, 68760, Note_off_c, 1, 45, 0
2, 68800, Note_on_c, 1, 48, 127
2, 69080, Note_off_c, 1, 48, 0
2, 69120, Note_on_c, 1, 48, 127
2, 69200, Note_off_c, 1, 48, 0
2, 69240, Note_on_c, 1, 50, 127
2, 69600, Note_off_c, 1, 50, 0
2, 69640, Note_on_c, 1, 57, 127
2, 70000, Note_off_c, 1, 57, 0
2, 70040, Note_on_c, 1, 53, 127
2, 70400, Note_off_c, 1, 53, 0
2, 70440, Note_on_c, 1, 52, 127
2, 70800, Note_off_c, 1, 52, 0
2, 70840, Note_on_c, 1, 58, 127
2, 71200, Note_off_c, 1, 58, 0
2, 71240, Note_on_c, 1, 57, 127
2, 71440, Note_off_c, 1, 57, 0
2, 71480, Note_on_c, 1, 57, 127
2, 71640, Note_off_c, 1, 57, 0
2, 71680, Note_on_c, 1, 60, 127
2, 72040, Note_off_c, 1, 60, 0
2, 72080, Note_on_c, 1, 57, 127
2, 72440, Note_off_c, 1, 57, 0
2, 72480, Note_on_c, 1, 53, 127
2, 72840, Note_off_c, 1, 53, 0
2, 72880, Note_on_c, 1, 58, 127
2, 73240, Note_off_c, 1, 58, 0
2, 73280, Note_on_c, 1, 52, 127
2, 73840, Note_off_c, 1, 52, 0
2, 73880, Note_on_c, 1, 52, 127
2, 74080, Note_off_c, 1, 52, 0
2, 74120, Note_on_c, 1, 53, 127
2, 74480, Note_off_c, 1, 53, 0
2, 74520, Note_on_c, 1, 62, 127
2, 74880, Note_off_c, 1, 62, 0
2, 74920, Note_on_c, 1, 64, 127
2, 75280, Note_off_c, 1, 64, 0
2, 75280, Note_on_c, 1, 65, 127
2, 75680, Note_off_c, 1, 65, 0
2, 75720, Note_on_c, 1, 64, 127
2, 76080, Note_off_c, 1, 64, 0
2, 76160, Note_on_c, 1, 61, 127
2, 76520, Note_off_c, 1, 61, 0
2, 76560, Note_on_c, 1, 57, 127
2, 76920, Note_off_c, 1, 57, 0
2, 76960, Note_on_c, 1, 55, 127
2, 77320, Note_off_c, 1, 55, 0
2, 77360, Note_on_c, 1, 57, 127
2, 78120, Note_off_c, 1, 57, 0
2, 78160, Note_on_c, 1, 60, 127
2, 78520, Note_off_c, 1, 60, 0
2, 78560, Note_on_c, 1, 57, 127
2, 78760, Note_off_c, 1, 57, 0
2, 78800, Note_on_c, 1, 57, 127
2, 78960, Note_off_c, 1, 57, 0
2, 79000, Note_on_c, 1, 61, 127
2, 79360, Note_off_c, 1, 61, 0
2, 79360, Note_on_c, 1, 62, 127
2, 80160, Note_off_c, 1, 62, 0
2, 80200, Note_on_c, 1, 65, 127
2, 80560, Note_off_c, 1, 65, 0
2, 80600, Note_on_c, 1, 62, 127
2, 80960, Note_off_c, 1, 62, 0
2, 81000, Note_on_c, 1, 62, 127
2, 81360, Note_off_c, 1, 62, 0
2, 81440, Note_on_c, 1, 67, 127
2, 81800, Note_off_c, 1, 67, 0
2, 81840, Note_on_c, 1, 70, 127
2, 82200, Note_off_c, 1, 70, 0
2, 82240, Note_on_c, 1, 69, 127
2, 82600, Note_off_c, 1, 69, 0
2, 82640, Note_on_c, 1, 60, 127
2, 82640, Note_on_c, 1, 62, 127
2, 83400, Note_off_c, 1, 60, 0
2, 83400, Note_off_c, 1, 62, 0
2, 83440, Note_on_c, 1, 48, 127
2, 83440, Note_on_c, 1, 69, 127
2, 83800, Note_off_c, 1, 48, 0
2, 83800, Note_off_c, 1, 69, 0
2, 83840, Note_on_c, 1, 69, 127
2, 83880, Note_on_c, 1, 52, 127
2, 84240, Note_off_c, 1, 52, 0
2, 84280, Note_on_c, 1, 61, 127
2, 84640, Note_off_c, 1, 61, 0
2, 84680, Note_on_c, 1, 57, 127
2, 85040, Note_off_c, 1, 57, 0
2, 85080, Note_on_c, 1, 50, 127
2, 85440, Note_off_c, 1, 50, 0
2, 85480, Note_on_c, 1, 52, 127
2, 85840, Note_off_c, 1, 52, 0
2, 85880, Note_on_c, 1, 54, 127
2, 86200, Note_off_c, 1, 54, 0
2, 86200, Note_off_c, 1, 69, 0
2, 86240, Note_on_c, 1, 54, 127
2, 86240, Note_on_c, 1, 69, 127
2, 86280, Note_off_c, 1, 54, 0
2, 86280, Note_off_c, 1, 69, 0
2, 86320, Note_on_c, 1, 55, 127
2, 86320, Note_on_c, 1, 72, 127
2, 86680, Note_off_c, 1, 55, 0
2, 86680, Note_off_c, 1, 72, 0
2, 86720, Note_on_c, 1, 57, 127
2, 86720, Note_on_c, 1, 70, 127
2, 87080, Note_off_c, 1, 57, 0
2, 87080, Note_on_c, 1, 69, 127
2, 87080, Note_off_c, 1, 70, 0
2, 87120, Note_on_c, 1, 55, 127
2, 87480, Note_off_c, 1, 55, 0
2, 87520, Note_on_c, 1, 53, 127
2, 87880, Note_off_c, 1, 53, 0
2, 87880, Note_off_c, 1, 69, 0
2, 87920, Note_on_c, 1, 60, 127
2, 87920, Note_on_c, 1, 63, 127
2, 88280, Note_off_c, 1, 60, 0
2, 88280, Note_off_c, 1, 63, 0
2, 88320, Note_on_c, 1, 53, 127
2, 88680, Note_off_c, 1, 53, 0
2, 88760, Note_on_c, 1, 48, 127
2, 89120, Note_off_c, 1, 48, 0
2, 89160, Note_on_c, 1, 59, 127
2, 89520, Note_off_c, 1, 59, 0
2, 89560, Note_on_c, 1, 57, 127
2, 89920, Note_off_c, 1, 57, 0
2, 89960, Note_on_c, 1, 55, 127
2, 90320, Note_off_c, 1, 55, 0
2, 90360, Note_on_c, 1, 52, 127
2, 90720, Note_off_c, 1, 52, 0
2, 90760, Note_on_c, 1, 43, 127
2, 91000, Note_off_c, 1, 43, 0
2, 91040, Note_on_c, 1, 43, 127
2, 91160, Note_off_c, 1, 43, 0
2, 91200, Note_on_c, 1, 46, 127
2, 91560, Note_off_c, 1, 46, 0
2, 91600, Note_on_c, 1, 48, 127
2, 91960, Note_off_c, 1, 48, 0
2, 92000, Note_on_c, 1, 57, 127
2, 92360, Note_off_c, 1, 57, 0
2, 92400, Note_on_c, 1, 60, 127
2, 92760, Note_off_c, 1, 60, 0
2, 92800, Note_on_c, 1, 69, 127
2, 93120, Note_off_c, 1, 69, 0
2, 93160, Note_on_c, 1, 69, 127
2, 93240, Note_on_c, 1, 53, 127
2, 93600, Note_off_c, 1, 53, 0
2, 93600, Note_off_c, 1, 69, 0
2, 93640, Note_on_c, 1, 65, 127
2, 94000, Note_off_c, 1, 65, 0
2, 94040, Note_on_c, 1, 59, 127
2, 94040, Note_on_c, 1, 69, 127
2, 94400, Note_off_c, 1, 59, 0
2, 94400, Note_off_c, 1, 69, 0
2, 94440, Note_on_c, 1, 64, 127
2, 94440, Note_on_c, 1, 67, 127
2, 94800, Note_off_c, 1, 64, 0
2, 94800, Note_off_c, 1, 67, 0
2, 94840, Note_on_c, 1, 48, 127
2, 94840, Note_on_c, 1, 76, 127
2, 95200, Note_off_c, 1, 48, 0
2, 95200, Note_off_c, 1, 76, 0
2, 95280, Note_on_c, 1, 48, 127
2, 95280, Note_on_c, 1, 81, 127
2, 95640, Note_off_c, 1, 48, 0
2, 95680, Note_on_c, 1, 52, 127
2, 96040, Note_off_c, 1, 52, 0
2, 96040, Note_off_c, 1, 81, 0
2, 96080, Note_on_c, 1, 62, 127
2, 96080, Note_on_c, 1, 79, 127
2, 96440, Note_off_c, 1, 62, 0
2, 96440, Note_off_c, 1, 79, 0
2, 96480, Note_on_c, 1, 53, 127
2, 96480, Note_on_c, 1, 77, 127
2, 96840, Note_off_c, 1, 53, 0
2, 96880, Note_on_c, 1, 48, 127
2, 97240, Note_off_c, 1, 48, 0
2, 97280, Note_on_c, 1, 52, 127
2, 97480, Note_off_c, 1, 52, 0
2, 97480, Note_off_c, 1, 77, 0
2, 97520, Note_on_c, 1, 52, 127
2, 97520, Note_on_c, 1, 77, 127
2, 97640, Note_off_c, 1, 52, 0
2, 97680, Note_on_c, 1, 48, 127
2, 98040, Note_off_c, 1, 48, 0
2, 98080, Note_on_c, 1, 56, 127
2, 98440, Note_off_c, 1, 56, 0
2, 98480, Note_on_c, 1, 48, 127
2, 98840, Note_off_c, 1, 48, 0
2, 98880, Note_on_c, 1, 54, 127
2, 98880, Note_off_c, 1, 77, 0
2, 98880, Note_on_c, 1, 78, 127
2, 98880, Note_on_c, 1, 80, 127
2, 99160, Note_off_c, 1, 80, 0
2, 99200, Note_on_c, 1, 80, 127
2, 99240, Note_off_c, 1, 54, 0
2, 99240, Note_off_c, 1, 80, 0
2, 99280, Note_on_c, 1, 48, 127
2, 99640, Note_off_c, 1, 48, 0
2, 99680, Note_off_c, 1, 78, 0
2, 99720, Note_on_c, 1, 49, 127
2, 99720, Note_on_c, 1, 76, 127
2, 100040, Note_off_c, 1, 49, 0
2, 100080, Note_on_c, 1, 56, 127
2, 100440, Note_off_c, 1, 56, 0
2, 100480, Note_on_c, 1, 60, 127
2, 100840, Note_off_c, 1, 60, 0
2, 100840, Note_off_c, 1, 76, 0
2, 100880, Note_on_c, 1, 43, 127
2, 100880, Note_on_c, 1, 76, 127
2, 101240, Note_off_c, 1, 43, 0
2, 101280, Note_on_c, 1, 45, 127
2, 101640, Note_off_c, 1, 45, 0
2, 101680, Note_on_c, 1, 46, 127
2, 102000, Note_off_c, 1, 46, 0
2, 102040, Note_off_c, 1, 76, 0
2, 102080, Note_on_c, 1, 40, 127
2, 102080, Note_on_c, 1, 76, 127
2, 102440, Note_off_c, 1, 40, 0
2, 102480, Note_on_c, 1, 48, 127
2, 102840, Note_off_c, 1, 48, 0
2, 102880, Note_on_c, 1, 54, 127
2, 103240, Note_off_c, 1, 54, 0
2, 103280, Note_on_c, 1, 60, 127
2, 103640, Note_off_c, 1, 60, 0
2, 103640, Note_off_c, 1, 76, 0
2, 103680, Note_on_c, 1, 43, 127
2, 103680, Note_on_c, 1, 76, 127
2, 104040, Note_off_c, 1, 43, 0
2, 104080, Note_on_c, 1, 48, 127
2, 104440, Note_off_c, 1, 48, 0
2, 104480, Note_off_c, 1, 76, 0
2, 104520, Note_on_c, 1, 40, 127
2, 104520, Note_on_c, 1, 76, 127
2, 104840, Note_off_c, 1, 40, 0
2, 104920, Note_on_c, 1, 43, 127
2, 105280, Note_off_c, 1, 43, 0
2, 105320, Note_on_c, 1, 47, 127
2, 105680, Note_off_c, 1, 47, 0
2, 105680, Note_off_c, 1, 76, 0
2, 105720, Note_on_c, 1, 40, 127
2, 105720, Note_on_c, 1, 74, 127
2, 106080, Note_off_c, 1, 40, 0
2, 106080, Note_off_c, 1, 74, 0
2, 106120, Note_on_c, 1, 47, 127
2, 106120, Note_on_c, 1, 74, 127
2, 106480, Note_off_c, 1, 47, 0
2, 106520, Note_on_c, 1, 56, 127
2, 106880, Note_off_c, 1, 56, 0
2, 106880, Note_off_c, 1, 74, 0
2, 106960, Note_on_c, 1, 47, 127
2, 106960, Note_on_c, 1, 73, 127
2, 107320, Note_off_c, 1, 47, 0
2, 107360, Note_on_c, 1, 54, 127
2, 107720, Note_off_c, 1, 54, 0
2, 107760, Note_on_c, 1, 45, 127
2, 108120, Note_off_c, 1, 45, 0
2, 108160, Note_on_c, 1, 57, 127
2, 108520, Note_off_c, 1, 57, 0
2, 108560, Note_on_c, 1, 55, 127
2, 108920, Note_off_c, 1, 55, 0
2, 108960, Note_on_c, 1, 57, 127
2, 109320, Note_off_c, 1, 57, 0
2, 109360, Note_off_c, 1, 73, 0
2, 109400, Note_on_c, 1, 45, 127
2, 109400, Note_on_c, 1, 73, 127
2, 109760, Note_off_c, 1, 45, 0
2, 109800, Note_on_c, 1, 53, 127
2, 110160, Note_off_c, 1, 53, 0
2, 110160, Note_off_c, 1, 73, 0
2, 110200, Note_on_c, 1, 45, 127
2, 110200, Note_on_c, 1, 69, 127
2, 110560, Note_off_c, 1, 45, 0
2, 110600, Note_on_c, 1, 50, 127
2, 110960, Note_off_c, 1, 50, 0
2, 111000, Note_on_c, 1, 52, 127
2, 111360, Note_off_c, 1, 52, 0
2, 111400, Note_on_c, 1, 57, 127
2, 111600, Note_off_c, 1, 57, 0
2, 111600, Note_off_c, 1, 69, 0
2, 111640, Note_on_c, 1, 57, 127
2, 111640, Note_on_c, 1, 69, 127
2, 112000, Note_off_c, 1, 57, 0
2, 112040, Note_on_c, 1, 49, 127
2, 112400, Note_off_c, 1, 49, 0
2, 112440, Note_on_c, 1, 54, 127
2, 112800, Note_off_c, 1, 54, 0
2, 112840, Note_on_c, 1, 57, 127
2, 113200, Note_off_c, 1, 57, 0
2, 113240, Note_on_c, 1, 52, 127
2, 113600, Note_off_c, 1, 52, 0
2, 113600, Note_off_c, 1, 69, 0
2, 113640, Note_on_c, 1, 53, 127
2, 113640, Note_on_c, 1, 65, 127
2, 113840, Note_off_c, 1, 53, 0
2, 113840, Note_off_c, 1, 65, 0
2, 113880, Note_on_c, 1, 53, 127
2, 113880, Note_on_c, 1, 65, 127
2, 114040, Note_off_c, 1, 53, 0
2, 114080, Note_on_c, 1, 50, 127
2, 114440, Note_off_c, 1, 50, 0
2, 114440, Note_off_c, 1, 65, 0
2, 114480, Note_on_c, 1, 50, 127
2, 114480, Note_on_c, 1, 65, 127
2, 114840, Note_off_c, 1, 50, 0
2, 114880, Note_on_c, 1, 50, 127
2, 115200, Note_off_c, 1, 50, 0
2, 115240, Note_off_c, 1, 65, 0
2, 115280, Note_on_c, 1, 47, 127
2, 115280, Note_on_c, 1, 62, 127
2, 116040, Note_off_c, 1, 47, 0
2, 116040, Note_off_c, 1, 62, 0
2, 116040, Note_on_c, 1, 66, 127
2, 116080, Note_off_c, 1, 66, 0
2, 116120, Note_on_c, 1, 48, 127
2, 116120, Note_on_c, 1, 66, 127
2, 116440, Note_off_c, 1, 48, 0
2, 116480, Note_on_c, 1, 54, 127
2, 116840, Note_off_c, 1, 54, 0
2, 116880, Note_on_c, 1, 47, 127
2, 117240, Note_off_c, 1, 47, 0
2, 117280, Note_on_c, 1, 50, 127
2, 117640, Note_off_c, 1, 50, 0
2, 117640, Note_off_c, 1, 66, 0
2, 117680, Note_on_c, 1, 52, 127
2, 117680, Note_on_c, 1, 67, 127
2, 118040, Note_off_c, 1, 52, 0
2, 118040, Note_off_c, 1, 67, 0
2, 118080, Note_on_c, 1, 54, 127
2, 118080, Note_on_c, 1, 69, 127
2, 118280, Note_off_c, 1, 54, 0
2, 118280, Note_off_c, 1, 69, 0
2, 118320, Note_on_c, 1, 54, 127
2, 118320, Note_on_c, 1, 69, 127
2, 118480, Note_off_c, 1, 54, 0
2, 118520, Note_on_c, 1, 57, 127
2, 118880, Note_off_c, 1, 57, 0
2, 118920, Note_on_c, 1, 48, 127
2, 119280, Note_off_c, 1, 48, 0
2, 119320, Note_on_c, 1, 45, 127
2, 119680, Note_off_c, 1, 45, 0
2, 119720, Note_on_c, 1, 48, 127
2, 120000, Note_off_c, 1, 48, 0
2, 120000, Note_off_c, 1, 69, 0
2, 120040, End_track
3, 0, Start_track
3, 0, Title_t, "MIDI"
3, 1536, End_track
0, 0, End_of_file
