0, 0, Header, 1, 3, 192
1, 0, Start_track
1, 0, Time_signature, 4, 2, 24, 8
1, 0, Tempo, 500000
1, 120040, End_track
2, 0, Start_track
2, 0, Text_t, "random instrument: random person i dunno whatev"
2, 0, Title_t, "Track 1"
2, 0, Note_on_c, 1, 58, 127
2, 0, Note_on_c, 1, 66, 127
2, 0, Note_on_c, 1, 78, 127
2, 0, Note_on_c, 1, 82, 127
2, 0, Note_on_c, 1, 90, 127
2, 40, Note_on_c, 1, 46, 127
2, 40, Note_off_c, 1, 66, 0
2, 40, Note_off_c, 1, 78, 0
2, 40, Note_on_c, 1, 86, 127
2, 40, Note_off_c, 1, 90, 0
2, 40, Note_on_c, 1, 94, 127
2, 80, Note_off_c, 1, 46, 0
2, 80, Note_off_c, 1, 58, 0
2, 80, Note_off_c, 1, 82, 0
2, 80, Note_off_c, 1, 86, 0
2, 80, Note_off_c, 1, 94, 0
2, 120, Note_on_c, 1, 47, 127
2, 120, Note_on_c, 1, 58, 127
2, 120, Note_on_c, 1, 62, 127
2, 120, Note_on_c, 1, 66, 127
2, 120, Note_on_c, 1, 70, 127
2, 120, Note_on_c, 1, 74, 127
2, 160, Note_off_c, 1, 47, 0
2, 160, Note_off_c, 1, 62, 0
2, 160, Note_off_c, 1, 70, 0
2, 160, Note_off_c, 1, 74, 0
2, 160, Note_on_c, 1, 78, 127
2, 160, Note_on_c, 1, 82, 127
2, 160, Note_on_c, 1, 90, 127
2, 360, Note_off_c, 1, 58, 0
2, 360, Note_off_c, 1, 66, 0
2, 360, Note_off_c, 1, 78, 0
2, 360, Note_off_c, 1, 82, 0
2, 360, Note_off_c, 1, 90, 0
2, 400, Note_on_c, 1, 51, 127
2, 400, Note_on_c, 1, 59, 127
2, 400, Note_on_c, 1, 71, 127
2, 400, Note_on_c, 1, 75, 127
2, 840, Note_off_c, 1, 51, 0
2, 840, Note_off_c, 1, 59, 0
2, 840, Note_off_c, 1, 71, 0
2, 840, Note_off_c, 1, 75, 0
2, 880, Note_on_c, 1, 49, 127
2, 880, Note_on_c, 1, 55, 127
2, 880, Note_on_c, 1, 57, 127
2, 880, Note_on_c, 1, 61, 127
2, 880, Note_on_c, 1, 64, 127
2, 880, Note_on_c, 1, 69, 127
2, 1200, Note_off_c, 1, 49, 0
2, 1200, Note_off_c, 1, 55, 0
2, 1200, Note_off_c, 1, 57, 0
2, 1200, Note_off_c, 1, 61, 0
2, 1200, Note_off_c, 1, 64, 0
2, 1200, Note_off_c, 1, 69, 0
2, 1240, Note_on_c, 1, 51, 127
2, 1240, Note_on_c, 1, 57, 127
2, 1240, Note_on_c, 1, 63, 127
2, 1240, Note_on_c, 1, 75, 127
2, 1800, Note_off_c, 1, 51, 0
2, 1800, Note_off_c, 1, 57, 0
2, 1800, Note_off_c, 1, 63, 0
2, 1800, Note_off_c, 1, 75, 0
2, 1840, Note_on_c, 1, 63, 127
2, 1840, Note_on_c, 1, 72, 127
2, 1840, Note_on_c, 1, 91, 127
2, 2120, Note_off_c, 1, 63, 0
2, 2120, Note_off_c, 1, 72, 0
2, 2120, Note_off_c, 1, 91, 0
2, 2160, Note_on_c, 1, 63, 127
2, 2160, Note_on_c, 1, 72, 127
2, 2160, Note_on_c, 1, 91, 127
2, 2240, Note_off_c, 1, 63, 0
2, 2240, Note_off_c, 1, 72, 0
2, 2240, Note_off_c, 1, 91, 0
2, 2280, Note_on_c, 1, 63, 127
2, 2280, Note_on_c, 1, 72, 127
2, 2280, Note_on_c, 1, 91, 127
2, 2640, Note_off_c, 1, 63, 0
2, 2640, Note_off_c, 1, 72, 0
2, 2640, Note_off_c, 1, 91, 0
2, 2680, Note_on_c, 1, 63, 127
2, 2680, Note_on_c, 1, 72, 127
2, 2680, Note_on_c, 1, 91, 127
2, 3040, Note_off_c, 1, 63, 0
2, 3040, Note_off_c, 1, 72, 0
2, 3040, Note_off_c, 1, 91, 0
2, 3080, Note_on_c, 1, 63, 127
2, 3080, Note_on_c, 1, 72, 127
2, 3080, Note_on_c, 1, 91, 127
2, 3440, Note_off_c, 1, 63, 0
2, 3440, Note_off_c, 1, 91, 0
2, 3480, Note_on_c, 1, 63, 127
2, 3480, Note_on_c, 1, 91, 127
2, 3840, Note_off_c, 1, 63, 0
2, 3840, Note_off_c, 1, 91, 0
2, 3880, Note_on_c, 1, 63, 127
2, 3880, Note_on_c, 1, 89, 127
2, 4240, Note_off_c, 1, 63, 0
2, 4240, Note_off_c, 1, 89, 0
2, 4280, Note_off_c, 1, 72, 0
2, 4320, Note_on_c, 1, 41, 127
2, 4320, Note_on_c, 1, 70, 127
2, 4320, Note_on_c, 1, 73, 127
2, 4640, Note_off_c, 1, 41, 0
2, 4680, Note_on_c, 1, 58, 127
2, 4680, Note_off_c, 1, 73, 0
2, 4680, Note_on_c, 1, 77, 127
2, 4680, Note_on_c, 1, 80, 127
2, 4720, Note_off_c, 1, 58, 0
2, 5040, Note_off_c, 1, 70, 0
2, 5040, Note_off_c, 1, 77, 0
2, 5040, Note_off_c, 1, 80, 0
2, 5080, Note_on_c, 1, 68, 127
2, 5080, Note_on_c, 1, 77, 127
2, 5080, Note_on_c, 1, 82, 127
2, 5440, Note_off_c, 1, 77, 0
2, 5440, Note_off_c, 1, 82, 0
2, 5480, Note_on_c, 1, 77, 127
2, 5480, Note_on_c, 1, 82, 127
2, 5800, Note_off_c, 1, 68, 0
2, 5800, Note_off_c, 1, 77, 0
2, 5800, Note_off_c, 1, 82, 0
2, 5840, Note_on_c, 1, 65, 127
2, 6440, Note_off_c, 1, 65, 0
2, 6480, Note_on_c, 1, 65, 127
2, 7040, Note_off_c, 1, 65, 0
2, 7080, Note_on_c, 1, 58, 127
2, 7080, Note_on_c, 1, 61, 127
2, 7080, Note_on_c, 1, 68, 127
2, 7080, Note_on_c, 1, 75, 127
2, 7840, Note_off_c, 1, 58, 0
2, 7840, Note_off_c, 1, 61, 0
2, 7840, Note_off_c, 1, 68, 0
2, 7880, Note_on_c, 1, 58, 127
2, 7880, Note_on_c, 1, 61, 127
2, 7880, Note_on_c, 1, 68, 127
2, 8640, Note_off_c, 1, 58, 0
2, 8640, Note_off_c, 1, 61, 0
2, 8640, Note_off_c, 1, 68, 0
2, 8640, Note_off_c, 1, 75, 0
2, 8720, Note_on_c, 1, 58, 127
2, 8720, Note_on_c, 1, 61, 127
2, 8720, Note_on_c, 1, 68, 127
2, 8720, Note_on_c, 1, 75, 127
2, 9120, Note_off_c, 1, 58, 0
2, 9120, Note_off_c, 1, 61, 0
2, 9120, Note_off_c, 1, 68, 0
2, 9120, Note_off_c, 1, 75, 0
2, 9160, Note_on_c, 1, 58, 127
2, 9160, Note_on_c, 1, 61, 127
2, 9160, Note_on_c, 1, 68, 127
2, 9160, Note_on_c, 1, 75, 127
2, 9520, Note_off_c, 1, 58, 0
2, 9520, Note_off_c, 1, 61, 0
2, 9520, Note_off_c, 1, 68, 0
2, 9520, Note_off_c, 1, 75, 0
2, 9560, Note_on_c, 1, 58, 127
2, 9560, Note_on_c, 1, 61, 127
2, 9560, Note_on_c, 1, 68, 127
2, 9560, Note_on_c, 1, 75, 127
2, 9920, Note_off_c, 1, 58, 0
2, 9920, Note_off_c, 1, 61, 0
2, 9920, Note_off_c, 1, 68, 0
2, 9920, Note_off_c, 1, 75, 0
2, 9960, Note_on_c, 1, 58, 127
2, 9960, Note_on_c, 1, 61, 127
2, 9960, Note_on_c, 1, 68, 127
2, 9960, Note_on_c, 1, 75, 127
2, 10280, Note_off_c, 1, 58, 0
2, 10280, Note_off_c, 1, 61, 0
2, 10280, Note_off_c, 1, 68, 0
2, 10320, Note_on_c, 1, 58, 127
2, 10320, Note_on_c, 1, 61, 127
2, 10320, Note_on_c, 1, 68, 127
2, 10640, Note_off_c, 1, 61, 0
2, 10640, Note_off_c, 1, 68, 0
2, 10640, Note_off_c, 1, 75, 0
2, 10680, Note_on_c, 1, 61, 127
2, 10680, Note_on_c, 1, 68, 127
2, 10680, Note_on_c, 1, 75, 127
2, 10920, Note_off_c, 1, 58, 0
2, 10920, Note_off_c, 1, 61, 0
2, 10920, Note_off_c, 1, 68, 0
2, 10920, Note_off_c, 1, 75, 0
2, 10960, Note_on_c, 1, 58, 127
2, 10960, Note_on_c, 1, 61, 127
2, 10960, Note_on_c, 1, 68, 127
2, 10960, Note_on_c, 1, 75, 127
2, 11080, Note_off_c, 1, 58, 0
2, 11080, Note_off_c, 1, 61, 0
2, 11080, Note_off_c, 1, 68, 0
2, 11120, Note_on_c, 1, 58, 127
2, 11120, Note_on_c, 1, 61, 127
2, 11120, Note_on_c, 1, 67, 127
2, 11480, Note_off_c, 1, 58, 0
2, 11480, Note_off_c, 1, 61, 0
2, 11480, Note_off_c, 1, 67, 0
2, 11480, Note_off_c, 1, 75, 0
2, 11520, Note_on_c, 1, 56, 127
2, 11520, Note_on_c, 1, 60, 127
2, 11520, Note_on_c, 1, 63, 127
2, 11520, Note_on_c, 1, 68, 127
2, 11520, Note_on_c, 1, 72, 127
2, 11920, Note_off_c, 1, 56, 0
2, 11920, Note_off_c, 1, 60, 0
2, 11920, Note_off_c, 1, 63, 0
2, 11920, Note_off_c, 1, 68, 0
2, 11920, Note_off_c, 1, 72, 0
2, 11960, Note_on_c, 1, 59, 127
2, 11960, Note_on_c, 1, 65, 127
2, 11960, Note_on_c, 1, 67, 127
2, 12320, Note_off_c, 1, 59, 0
2, 12320, Note_off_c, 1, 65, 0
2, 12320, Note_off_c, 1, 67, 0
2, 12360, Note_on_c, 1, 59, 127
2, 12360, Note_on_c, 1, 65, 127
2, 12360, Note_on_c, 1, 67, 127
2, 12720, Note_off_c, 1, 59, 0
2, 12720, Note_off_c, 1, 65, 0
2, 12720, Note_off_c, 1, 67, 0
2, 12760, Note_on_c, 1, 59, 127
2, 12760, Note_on_c, 1, 65, 127
2, 12760, Note_on_c, 1, 67, 127
2, 13120, Note_off_c, 1, 59, 0
2, 13120, Note_off_c, 1, 65, 0
2, 13120, Note_off_c, 1, 67, 0
2, 13200, Note_on_c, 1, 59, 127
2, 13200, Note_on_c, 1, 65, 127
2, 13200, Note_on_c, 1, 67, 127
2, 13560, Note_off_c, 1, 59, 0
2, 13560, Note_off_c, 1, 65, 0
2, 13560, Note_off_c, 1, 67, 0
2, 13600, Note_on_c, 1, 59, 127
2, 13600, Note_on_c, 1, 65, 127
2, 13600, Note_on_c, 1, 67, 127
2, 14360, Note_off_c, 1, 59, 0
2, 14400, Note_on_c, 1, 59, 127
2, 14760, Note_off_c, 1, 59, 0
2, 14760, Note_off_c, 1, 65, 0
2, 14760, Note_off_c, 1, 67, 0
2, 14800, Note_on_c, 1, 59, 127
2, 14800, Note_on_c, 1, 65, 127
2, 14800, Note_on_c, 1, 67, 127
2, 15600, Note_off_c, 1, 59, 0
2, 15600, Note_off_c, 1, 65, 0
2, 15600, Note_off_c, 1, 67, 0
2, 15680, Note_on_c, 1, 58, 127
2, 15680, Note_on_c, 1, 61, 127
2, 15680, Note_on_c, 1, 64, 127
2, 16080, Note_on_c, 1, 57, 127
2, 16080, Note_off_c, 1, 58, 0
2, 16080, Note_on_c, 1, 60, 127
2, 16080, Note_off_c, 1, 61, 0
2, 16080, Note_on_c, 1, 63, 127
2, 16080, Note_off_c, 1, 64, 0
2, 16080, Note_on_c, 1, 72, 127
2, 16080, Note_on_c, 1, 78, 127
2, 16080, Note_on_c, 1, 83, 127
2, 16440, Note_off_c, 1, 57, 0
2, 16440, Note_off_c, 1, 60, 0
2, 16440, Note_off_c, 1, 63, 0
2, 16440, Note_off_c, 1, 72, 0
2, 16440, Note_off_c, 1, 78, 0
2, 16440, Note_off_c, 1, 83, 0
2, 16480, Note_on_c, 1, 51, 127
2, 16480, Note_on_c, 1, 53, 127
2, 16480, Note_on_c, 1, 56, 127
2, 16480, Note_on_c, 1, 58, 127
2, 16480, Note_on_c, 1, 62, 127
2, 16480, Note_on_c, 1, 68, 127
2, 16840, Note_off_c, 1, 51, 0
2, 16840, Note_off_c, 1, 53, 0
2, 16840, Note_off_c, 1, 56, 0
2, 16840, Note_off_c, 1, 58, 0
2, 16840, Note_off_c, 1, 62, 0
2, 16840, Note_off_c, 1, 68, 0
2, 16880, Note_on_c, 1, 34, 127
2, 16880, Note_on_c, 1, 63, 127
2, 16880, Note_on_c, 1, 69, 127
2, 17240, Note_off_c, 1, 34, 0
2, 17240, Note_off_c, 1, 63, 0
2, 17240, Note_off_c, 1, 69, 0
2, 17280, Note_on_c, 1, 55, 127
2, 17280, Note_on_c, 1, 58, 127
2, 17280, Note_on_c, 1, 64, 127
2, 17280, Note_on_c, 1, 72, 127
2, 17840, Note_off_c, 1, 55, 0
2, 17840, Note_off_c, 1, 58, 0
2, 17840, Note_off_c, 1, 64, 0
2, 17840, Note_off_c, 1, 72, 0
2, 17880, Note_on_c, 1, 55, 127
2, 17880, Note_on_c, 1, 58, 127
2, 17880, Note_on_c, 1, 64, 127
2, 17880, Note_on_c, 1, 72, 127
2, 18080, Note_off_c, 1, 55, 0
2, 18080, Note_off_c, 1, 58, 0
2, 18080, Note_off_c, 1, 64, 0
2, 18080, Note_off_c, 1, 72, 0
2, 18120, Note_on_c, 1, 52, 127
2, 18120, Note_on_c, 1, 60, 127
2, 18120, Note_on_c, 1, 64, 127
2, 18120, Note_on_c, 1, 71, 127
2, 18480, Note_off_c, 1, 71, 0
2, 18520, Note_on_c, 1, 71, 127
2, 18880, Note_off_c, 1, 52, 0
2, 18880, Note_off_c, 1, 60, 0
2, 18880, Note_off_c, 1, 64, 0
2, 18880, Note_off_c, 1, 71, 0
2, 18920, Note_on_c, 1, 52, 127
2, 18920, Note_on_c, 1, 60, 127
2, 18920, Note_on_c, 1, 64, 127
2, 18920, Note_on_c, 1, 71, 127
2, 19280, Note_off_c, 1, 71, 0
2, 19720, Note_off_c, 1, 52, 0
2, 19720, Note_off_c, 1, 60, 0
2, 19720, Note_off_c, 1, 64, 0
2, 19760, Note_on_c, 1, 44, 127
2, 19760, Note_on_c, 1, 60, 127
2, 19760, Note_on_c, 1, 69, 127
2, 19920, Note_off_c, 1, 44, 0
2, 19920, Note_off_c, 1, 60, 0
2, 19920, Note_off_c, 1, 69, 0
2, 19960, Note_on_c, 1, 44, 127
2, 19960, Note_on_c, 1, 60, 127
2, 19960, Note_on_c, 1, 69, 127
2, 20160, Note_off_c, 1, 44, 0
2, 20200, Note_on_c, 1, 44, 127
2, 20960, Note_off_c, 1, 44, 0
2, 21000, Note_on_c, 1, 51, 127
2, 21000, Note_on_c, 1, 58, 127
2, 21000, Note_off_c, 1, 60, 0
2, 21000, Note_on_c, 1, 65, 127
2, 21000, Note_off_c, 1, 69, 0
2, 21000, Note_on_c, 1, 70, 127
2, 21360, Note_off_c, 1, 58, 0
2, 21360, Note_off_c, 1, 65, 0
2, 21360, Note_off_c, 1, 70, 0
2, 21400, Note_on_c, 1, 58, 127
2, 21400, Note_on_c, 1, 65, 127
2, 21400, Note_on_c, 1, 73, 127
2, 21760, Note_off_c, 1, 51, 0
2, 21760, Note_off_c, 1, 65, 0
2, 21760, Note_off_c, 1, 73, 0
2, 21800, Note_off_c, 1, 58, 0
2, 21840, Note_on_c, 1, 51, 127
2, 21840, Note_on_c, 1, 58, 127
2, 21840, Note_on_c, 1, 65, 127
2, 21840, Note_on_c, 1, 73, 127
2, 22200, Note_off_c, 1, 51, 0
2, 22200, Note_off_c, 1, 58, 0
2, 22200, Note_off_c, 1, 65, 0
2, 22200, Note_off_c, 1, 73, 0
2, 22240, Note_on_c, 1, 51, 127
2, 22240, Note_on_c, 1, 60, 127
2, 22240, Note_on_c, 1, 77, 127
2, 22600, Note_off_c, 1, 51, 0
2, 22600, Note_off_c, 1, 60, 0
2, 22600, Note_off_c, 1, 77, 0
2, 22640, Note_on_c, 1, 51, 127
2, 22640, Note_on_c, 1, 61, 127
2, 22640, Note_on_c, 1, 67, 127
2, 22640, Note_on_c, 1, 72, 127
2, 23400, Note_off_c, 1, 72, 0
2, 23440, Note_on_c, 1, 75, 127
2, 24200, Note_off_c, 1, 51, 0
2, 24200, Note_off_c, 1, 61, 0
2, 24200, Note_off_c, 1, 67, 0
2, 24200, Note_off_c, 1, 75, 0
2, 24240, Note_on_c, 1, 51, 127
2, 24240, Note_on_c, 1, 58, 127
2, 24280, Note_off_c, 1, 58, 0
2, 24280, Note_on_c, 1, 61, 127
2, 24280, Note_on_c, 1, 67, 127
2, 24280, Note_on_c, 1, 75, 127
2, 25480, Note_off_c, 1, 51, 0
2, 25480, Note_off_c, 1, 61, 0
2, 25480, Note_off_c, 1, 67, 0
2, 25480, Note_off_c, 1, 75, 0
2, 25520, Note_on_c, 1, 51, 127
2, 25520, Note_on_c, 1, 58, 127
2, 25520, Note_on_c, 1, 63, 127
2, 25520, Note_on_c, 1, 68, 127
2, 25520, Note_on_c, 1, 72, 127
2, 26160, Note_off_c, 1, 51, 0
2, 26160, Note_off_c, 1, 58, 0
2, 26160, Note_off_c, 1, 63, 0
2, 26160, Note_off_c, 1, 68, 0
2, 26160, Note_off_c, 1, 72, 0
2, 26200, Note_on_c, 1, 51, 127
2, 26200, Note_on_c, 1, 58, 127
2, 26200, Note_on_c, 1, 63, 127
2, 26200, Note_on_c, 1, 68, 127
2, 26200, Note_on_c, 1, 72, 127
2, 27560, Note_on_c, 1, 67, 127
2, 27560, Note_off_c, 1, 68, 0
2, 27560, Note_on_c, 1, 70, 127
2, 27560, Note_off_c, 1, 72, 0
2, 28320, Note_off_c, 1, 51, 0
2, 28320, Note_off_c, 1, 58, 0
2, 28320, Note_off_c, 1, 63, 0
2, 28320, Note_off_c, 1, 67, 0
2, 28320, Note_off_c, 1, 70, 0
2, 28360, Note_on_c, 1, 51, 127
2, 28360, Note_on_c, 1, 58, 127
2, 28360, Note_on_c, 1, 63, 127
2, 28360, Note_on_c, 1, 67, 127
2, 28360, Note_on_c, 1, 70, 127
2, 28800, Note_off_c, 1, 51, 0
2, 28800, Note_off_c, 1, 58, 0
2, 28800, Note_off_c, 1, 63, 0
2, 28800, Note_off_c, 1, 67, 0
2, 28800, Note_off_c, 1, 70, 0
2, 28840, Note_on_c, 1, 56, 127
2, 28840, Note_on_c, 1, 63, 127
2, 28840, Note_on_c, 1, 68, 127
2, 28840, Note_on_c, 1, 73, 127
2, 29800, Note_off_c, 1, 73, 0
2, 29840, Note_on_c, 1, 72, 127
2, 30000, Note_off_c, 1, 56, 0
2, 30000, Note_off_c, 1, 63, 0
2, 30000, Note_off_c, 1, 68, 0
2, 30000, Note_off_c, 1, 72, 0
2, 30040, Note_on_c, 1, 47, 127
2, 30040, Note_on_c, 1, 54, 127
2, 30040, Note_on_c, 1, 63, 127
2, 30040, Note_on_c, 1, 68, 127
2, 30320, Note_off_c, 1, 47, 0
2, 30320, Note_off_c, 1, 54, 0
2, 30320, Note_off_c, 1, 63, 0
2, 30320, Note_off_c, 1, 68, 0
2, 30360, Note_on_c, 1, 47, 127
2, 30360, Note_on_c, 1, 54, 127
2, 30360, Note_on_c, 1, 63, 127
2, 30360, Note_on_c, 1, 68, 127
2, 30840, Note_off_c, 1, 47, 0
2, 30840, Note_off_c, 1, 54, 0
2, 30840, Note_off_c, 1, 63, 0
2, 30840, Note_off_c, 1, 68, 0
2, 30880, Note_on_c, 1, 51, 127
2, 30880, Note_on_c, 1, 57, 127
2, 30880, Note_on_c, 1, 65, 127
2, 30880, Note_on_c, 1, 77, 127
2, 31640, Note_off_c, 1, 51, 0
2, 31640, Note_off_c, 1, 57, 0
2, 31640, Note_off_c, 1, 65, 0
2, 31640, Note_off_c, 1, 77, 0
2, 31680, Note_on_c, 1, 46, 127
2, 31680, Note_on_c, 1, 50, 127
2, 31680, Note_on_c, 1, 58, 127
2, 31680, Note_on_c, 1, 65, 127
2, 31680, Note_on_c, 1, 70, 127
2, 32240, Note_off_c, 1, 50, 0
2, 32280, Note_on_c, 1, 53, 127
2, 32440, Note_off_c, 1, 58, 0
2, 32440, Note_off_c, 1, 70, 0
2, 32480, Note_off_c, 1, 46, 0
2, 32480, Note_off_c, 1, 53, 0
2, 32480, Note_off_c, 1, 65, 0
2, 32520, Note_on_c, 1, 46, 127
2, 32520, Note_on_c, 1, 53, 127
2, 32520, Note_on_c, 1, 58, 127
2, 32520, Note_on_c, 1, 65, 127
2, 32520, Note_on_c, 1, 70, 127
2, 32840, Note_off_c, 1, 58, 0
2, 32840, Note_off_c, 1, 70, 0
2, 32880, Note_off_c, 1, 46, 0
2, 32880, Note_off_c, 1, 53, 0
2, 32880, Note_off_c, 1, 65, 0
2, 32920, Note_on_c, 1, 51, 127
2, 32920, Note_on_c, 1, 55, 127
2, 32920, Note_on_c, 1, 58, 127
2, 32920, Note_on_c, 1, 79, 127
2, 33640, Note_off_c, 1, 51, 0
2, 33640, Note_off_c, 1, 55, 0
2, 33640, Note_off_c, 1, 58, 0
2, 33640, Note_off_c, 1, 79, 0
2, 33720, Note_on_c, 1, 51, 127
2, 33720, Note_on_c, 1, 55, 127
2, 33720, Note_on_c, 1, 58, 127
2, 33720, Note_on_c, 1, 79, 127
2, 34720, Note_off_c, 1, 51, 0
2, 34720, Note_off_c, 1, 55, 0
2, 34720, Note_off_c, 1, 58, 0
2, 34720, Note_off_c, 1, 79, 0
2, 34760, Note_on_c, 1, 51, 127
2, 34760, Note_on_c, 1, 55, 127
2, 34760, Note_on_c, 1, 58, 127
2, 34760, Note_on_c, 1, 79, 127
2, 35320, Note_off_c, 1, 51, 0
2, 35320, Note_off_c, 1, 55, 0
2, 35320, Note_off_c, 1, 58, 0
2, 35320, Note_off_c, 1, 79, 0
2, 35360, Note_on_c, 1, 67, 127
2, 35360, Note_on_c, 1, 70, 127
2, 35360, Note_on_c, 1, 76, 127
2, 35360, Note_on_c, 1, 82, 127
2, 36960, Note_off_c, 1, 67, 0
2, 36960, Note_off_c, 1, 70, 0
2, 36960, Note_off_c, 1, 76, 0
2, 36960, Note_off_c, 1, 82, 0
2, 37000, Note_on_c, 1, 67, 127
2, 37000, Note_on_c, 1, 70, 127
2, 37000, Note_on_c, 1, 76, 127
2, 37000, Note_on_c, 1, 82, 127
2, 38560, Note_off_c, 1, 67, 0
2, 38560, Note_off_c, 1, 70, 0
2, 38560, Note_off_c, 1, 76, 0
2, 38560, Note_off_c, 1, 82, 0
2, 38600, Note_on_c, 1, 67, 127
2, 38600, Note_on_c, 1, 70, 127
2, 38600, Note_on_c, 1, 76, 127
2, 38600, Note_on_c, 1, 82, 127
2, 39400, Note_off_c, 1, 67, 0
2, 39400, Note_off_c, 1, 70, 0
2, 39400, Note_off_c, 1, 76, 0
2, 39400, Note_off_c, 1, 82, 0
2, 39440, Note_on_c, 1, 67, 127
2, 39440, Note_on_c, 1, 70, 127
2, 39440, Note_on_c, 1, 76, 127
2, 39440, Note_on_c, 1, 82, 127
2, 42000, Note_off_c, 1, 67, 0
2, 42000, Note_off_c, 1, 70, 0
2, 42000, Note_off_c, 1, 76, 0
2, 42000, Note_off_c, 1, 82, 0
2, 42040, Note_on_c, 1, 67, 127
2, 42040, Note_on_c, 1, 70, 127
2, 42040, Note_on_c, 1, 76, 127
2, 42040, Note_on_c, 1, 82, 127
2, 43440, Note_off_c, 1, 67, 0
2, 43440, Note_off_c, 1, 70, 0
2, 43440, Note_off_c, 1, 76, 0
2, 43440, Note_off_c, 1, 82, 0
2, 43480, Note_on_c, 1, 60, 127
2, 43480, Note_on_c, 1, 63, 127
2, 43480, Note_on_c, 1, 67, 127
2, 44240, Note_off_c, 1, 60, 0
2, 44240, Note_off_c, 1, 63, 0
2, 44240, Note_off_c, 1, 67, 0
2, 44320, Note_on_c, 1, 43, 127
2, 44320, Note_on_c, 1, 50, 127
2, 44320, Note_on_c, 1, 60, 127
2, 44320, Note_on_c, 1, 67, 127
2, 45480, Note_off_c, 1, 43, 0
2, 45480, Note_off_c, 1, 50, 0
2, 45480, Note_off_c, 1, 60, 0
2, 45480, Note_off_c, 1, 67, 0
2, 45520, Note_on_c, 1, 43, 127
2, 45520, Note_on_c, 1, 50, 127
2, 45520, Note_on_c, 1, 59, 127
2, 45520, Note_on_c, 1, 67, 127
2, 46720, Note_off_c, 1, 43, 0
2, 46720, Note_off_c, 1, 50, 0
2, 46720, Note_off_c, 1, 59, 0
2, 46720, Note_off_c, 1, 67, 0
2, 46760, Note_on_c, 1, 43, 127
2, 46760, Note_on_c, 1, 50, 127
2, 46760, Note_on_c, 1, 59, 127
2, 46760, Note_on_c, 1, 67, 127
2, 48920, Note_off_c, 1, 43, 0
2, 48920, Note_off_c, 1, 50, 0
2, 48920, Note_off_c, 1, 59, 0
2, 48920, Note_off_c, 1, 67, 0
2, 64600, Note_on_c, 1, 41, 127
2, 64600, Note_on_c, 1, 48, 127
2, 64840, Note_off_c, 1, 41, 0
2, 64840, Note_off_c, 1, 48, 0
2, 65200, Note_on_c, 1, 41, 127
2, 65200, Note_on_c, 1, 57, 127
2, 65200, Note_on_c, 1, 60, 127
2, 65200, Note_on_c, 1, 65, 127
2, 66960, Note_off_c, 1, 41, 0
2, 66960, Note_off_c, 1, 57, 0
2, 66960, Note_off_c, 1, 60, 0
2, 66960, Note_off_c, 1, 65, 0
2, 67200, Note_on_c, 1, 52, 127
2, 67600, Note_off_c, 1, 52, 0
2, 67640, Note_on_c, 1, 53, 127
2, 68400, Note_off_c, 1, 53, 0
2, 68440, Note_on_c, 1, 48, 127
2, 69200, Note_off_c, 1, 48, 0
2, 69280, Note_on_c, 1, 51, 127
2, 69640, Note_off_c, 1, 51, 0
2, 69680, Note_on_c, 1, 48, 127
2, 70040, Note_off_c, 1, 48, 0
2, 70080, Note_on_c, 1, 52, 127
2, 70480, Note_on_c, 1, 48, 127
2, 70480, Note_off_c, 1, 52, 0
2, 70840, Note_off_c, 1, 48, 0
2, 70880, Note_on_c, 1, 48, 127
2, 71240, Note_off_c, 1, 48, 0
2, 71280, Note_on_c, 1, 45, 127
2, 71280, Note_on_c, 1, 60, 127
2, 71480, Note_off_c, 1, 45, 0
2, 71480, Note_off_c, 1, 60, 0
2, 71520, Note_on_c, 1, 45, 127
2, 71520, Note_on_c, 1, 60, 127
2, 71680, Note_off_c, 1, 45, 0
2, 71720, Note_on_c, 1, 43, 127
2, 72080, Note_off_c, 1, 43, 0
2, 72120, Note_on_c, 1, 48, 127
2, 72480, Note_off_c, 1, 48, 0
2, 73680, Note_off_c, 1, 60, 0
2, 73760, Note_on_c, 1, 60, 127
2, 74120, Note_off_c, 1, 60, 0
2, 74160, Note_on_c, 1, 61, 127
2, 74560, Note_on_c, 1, 60, 127
2, 74560, Note_off_c, 1, 61, 0
2, 75960, Note_off_c, 1, 60, 0
2, 76000, Note_on_c, 1, 60, 127
2, 76160, Note_off_c, 1, 60, 0
2, 76200, Note_on_c, 1, 62, 127
2, 76960, Note_off_c, 1, 62, 0
2, 77000, Note_on_c, 1, 60, 127
2, 77360, Note_off_c, 1, 60, 0
2, 77400, Note_on_c, 1, 50, 127
2, 77760, Note_off_c, 1, 50, 0
2, 77800, Note_on_c, 1, 48, 127
2, 78160, Note_off_c, 1, 48, 0
2, 78240, Note_on_c, 1, 48, 127
2, 78600, Note_off_c, 1, 48, 0
2, 78640, Note_on_c, 1, 46, 127
2, 79000, Note_off_c, 1, 46, 0
2, 79040, Note_on_c, 1, 48, 127
2, 79400, Note_off_c, 1, 48, 0
2, 79440, Note_on_c, 1, 60, 127
2, 79800, Note_off_c, 1, 60, 0
2, 79840, Note_on_c, 1, 50, 127
2, 80200, Note_off_c, 1, 50, 0
2, 80240, Note_on_c, 1, 48, 127
2, 80400, Note_off_c, 1, 48, 0
2, 80440, Note_on_c, 1, 48, 127
2, 80640, Note_off_c, 1, 48, 0
2, 80680, Note_on_c, 1, 50, 127
2, 81040, Note_off_c, 1, 50, 0
2, 81080, Note_on_c, 1, 49, 127
2, 81440, Note_off_c, 1, 49, 0
2, 81480, Note_on_c, 1, 61, 127
2, 81840, Note_off_c, 1, 61, 0
2, 81880, Note_on_c, 1, 53, 127
2, 82240, Note_off_c, 1, 53, 0
2, 82280, Note_on_c, 1, 45, 127
2, 82600, Note_off_c, 1, 45, 0
2, 82640, Note_on_c, 1, 45, 127
2, 82680, Note_off_c, 1, 45, 0
2, 82720, Note_on_c, 1, 53, 127
2, 83080, Note_off_c, 1, 53, 0
2, 83120, Note_on_c, 1, 50, 127
2, 83480, Note_off_c, 1, 50, 0
2, 83520, Note_on_c, 1, 48, 127
2, 83880, Note_off_c, 1, 48, 0
2, 83920, Note_on_c, 1, 52, 127
2, 84280, Note_off_c, 1, 52, 0
2, 84320, Note_on_c, 1, 53, 127
2, 84680, Note_off_c, 1, 53, 0
2, 84720, Note_on_c, 1, 64, 127
2, 85000, Note_off_c, 1, 64, 0
2, 85040, Note_on_c, 1, 64, 127
2, 85120, Note_off_c, 1, 64, 0
2, 85160, Note_on_c, 1, 57, 127
2, 85520, Note_off_c, 1, 57, 0
2, 85560, Note_on_c, 1, 60, 127
2, 85920, Note_off_c, 1, 60, 0
2, 85960, Note_on_c, 1, 57, 127
2, 86320, Note_off_c, 1, 57, 0
2, 86360, Note_on_c, 1, 58, 127
2, 86720, Note_off_c, 1, 58, 0
2, 86760, Note_on_c, 1, 61, 127
2, 87120, Note_off_c, 1, 61, 0
2, 87200, Note_on_c, 1, 55, 127
2, 87560, Note_off_c, 1, 55, 0
2, 87600, Note_on_c, 1, 48, 127
2, 87960, Note_off_c, 1, 48, 0
2, 88000, Note_on_c, 1, 57, 127
2, 88360, Note_off_c, 1, 57, 0
2, 88400, Note_on_c, 1, 52, 127
2, 88760, Note_off_c, 1, 52, 0
2, 88800, Note_on_c, 1, 55, 127
2, 89160, Note_off_c, 1, 55, 0
2, 89200, Note_on_c, 1, 49, 127
2, 89400, Note_off_c, 1, 49, 0
2, 89440, Note_on_c, 1, 49, 127
2, 89560, Note_off_c, 1, 49, 0
2, 89600, Note_on_c, 1, 55, 127
2, 89960, Note_off_c, 1, 55, 0
2, 90000, Note_on_c, 1, 57, 127
2, 90360, Note_off_c, 1, 57, 0
2, 90400, Note_on_c, 1, 55, 127
2, 90760, Note_off_c, 1, 55, 0
2, 90800, Note_on_c, 1, 62, 127
2, 91160, Note_off_c, 1, 62, 0
2, 91200, Note_on_c, 1, 60, 127
2, 91560, Note_off_c, 1, 60, 0
2, 91640, Note_on_c, 1, 57, 127
2, 92000, Note_off_c, 1, 57, 0
2, 92040, Note_on_c, 1, 55, 127
2, 92400, Note_off_c, 1, 55, 0
2, 92440, Note_on_c, 1, 62, 127
2, 92800, Note_off_c, 1, 62, 0
2, 92840, Note_on_c, 1, 64, 127
2, 93200, Note_off_c, 1, 64, 0
2, 93240, Note_on_c, 1, 77, 127
2, 93600, Note_off_c, 1, 77, 0
2, 93640, Note_on_c, 1, 65, 127
2, 93840, Note_off_c, 1, 65, 0
2, 93880, Note_on_c, 1, 65, 127
2, 94040, Note_off_c, 1, 65, 0
2, 94080, Note_on_c, 1, 64, 127
2, 94440, Note_off_c, 1, 64, 0
2, 94480, Note_on_c, 1, 65, 127
2, 94840, Note_off_c, 1, 65, 0
2, 94880, Note_on_c, 1, 64, 127
2, 95240, Note_off_c, 1, 64, 0
2, 95280, Note_on_c, 1, 65, 127
2, 95640, Note_off_c, 1, 65, 0
2, 95680, Note_on_c, 1, 69, 127
2, 96040, Note_off_c, 1, 69, 0
2, 96120, Note_on_c, 1, 66, 127
2, 96880, Note_off_c, 1, 66, 0
2, 96920, Note_on_c, 1, 64, 127
2, 97280, Note_off_c, 1, 64, 0
2, 97320, Note_on_c, 1, 69, 127
2, 98080, Note_on_c, 1, 67, 127
2, 98080, Note_off_c, 1, 69, 0
2, 98280, Note_off_c, 1, 67, 0
2, 98320, Note_on_c, 1, 67, 127
2, 98560, Note_off_c, 1, 67, 0
2, 98600, Note_on_c, 1, 67, 127
2, 98920, Note_off_c, 1, 67, 0
2, 98960, Note_on_c, 1, 66, 127
2, 99320, Note_off_c, 1, 66, 0
2, 99360, Note_on_c, 1, 65, 127
2, 99720, Note_off_c, 1, 65, 0
2, 99760, Note_on_c, 1, 62, 127
2, 100120, Note_off_c, 1, 62, 0
2, 100160, Note_on_c, 1, 58, 127
2, 100520, Note_off_c, 1, 58, 0
2, 100560, Note_on_c, 1, 55, 127
2, 100920, Note_off_c, 1, 55, 0
2, 101000, Note_on_c, 1, 52, 127
2, 101000, Note_on_c, 1, 70, 127
2, 101360, Note_off_c, 1, 52, 0
2, 101360, Note_off_c, 1, 70, 0
2, 101400, Note_on_c, 1, 53, 127
2, 101760, Note_off_c, 1, 53, 0
2, 101800, Note_on_c, 1, 50, 127
2, 102160, Note_off_c, 1, 50, 0
2, 102200, Note_on_c, 1, 37, 127
2, 102200, Note_on_c, 1, 61, 127
2, 102560, Note_off_c, 1, 37, 0
2, 102560, Note_off_c, 1, 61, 0
2, 102600, Note_on_c, 1, 52, 127
2, 102600, Note_on_c, 1, 69, 127
2, 102960, Note_off_c, 1, 52, 0
2, 102960, Note_off_c, 1, 69, 0
2, 103000, Note_on_c, 1, 45, 127
2, 103000, Note_on_c, 1, 76, 127
2, 103320, Note_off_c, 1, 45, 0
2, 103320, Note_off_c, 1, 76, 0
2, 103360, Note_on_c, 1, 45, 127
2, 103360, Note_on_c, 1, 76, 127
2, 103400, Note_off_c, 1, 45, 0
2, 103400, Note_off_c, 1, 76, 0
2, 103440, Note_on_c, 1, 45, 127
2, 103440, Note_on_c, 1, 78, 127
2, 103800, Note_off_c, 1, 45, 0
2, 103800, Note_off_c, 1, 78, 0
2, 103840, Note_on_c, 1, 46, 127
2, 103840, Note_on_c, 1, 79, 127
2, 104200, Note_off_c, 1, 46, 0
2, 104200, Note_off_c, 1, 79, 0
2, 104240, Note_on_c, 1, 50, 127
2, 104240, Note_on_c, 1, 79, 127
2, 104600, Note_off_c, 1, 50, 0
2, 104600, Note_off_c, 1, 79, 0
2, 104640, Note_on_c, 1, 50, 127
2, 104640, Note_on_c, 1, 77, 127
2, 105000, Note_off_c, 1, 50, 0
2, 105000, Note_off_c, 1, 77, 0
2, 105040, Note_on_c, 1, 45, 127
2, 105040, Note_on_c, 1, 78, 127
2, 105400, Note_off_c, 1, 45, 0
2, 105440, Note_on_c, 1, 50, 127
2, 105800, Note_off_c, 1, 50, 0
2, 105800, Note_off_c, 1, 78, 0
2, 105880, Note_on_c, 1, 46, 127
2, 105880, Note_on_c, 1, 86, 127
2, 105880, Note_on_c, 1, 91, 127
2, 105920, Note_on_c, 1, 45, 127
2, 105920, Note_off_c, 1, 46, 0
2, 105920, Note_on_c, 1, 47, 127
2, 105920, Note_on_c, 1, 57, 127
2, 105920, Note_on_c, 1, 63, 127
2, 105920, Note_on_c, 1, 66, 127
2, 105920, Note_on_c, 1, 71, 127
2, 105920, Note_on_c, 1, 75, 127
2, 105920, Note_off_c, 1, 86, 0
2, 105920, Note_off_c, 1, 91, 0
2, 105960, Note_off_c, 1, 45, 0
2, 105960, Note_off_c, 1, 47, 0
2, 105960, Note_on_c, 1, 53, 127
2, 105960, Note_off_c, 1, 57, 0
2, 105960, Note_on_c, 1, 62, 127
2, 105960, Note_off_c, 1, 63, 0
2, 105960, Note_off_c, 1, 66, 0
2, 105960, Note_off_c, 1, 71, 0
2, 105960, Note_off_c, 1, 75, 0
2, 105960, Note_on_c, 1, 82, 127
2, 105960, Note_on_c, 1, 94, 127
2, 106080, Note_on_c, 1, 47, 127
2, 106080, Note_off_c, 1, 53, 0
2, 106080, Note_on_c, 1, 57, 127
2, 106080, Note_off_c, 1, 62, 0
2, 106080, Note_off_c, 1, 82, 0
2, 106080, Note_on_c, 1, 87, 127
2, 106080, Note_off_c, 1, 94, 0
2, 106120, Note_off_c, 1, 47, 0
2, 106120, Note_on_c, 1, 53, 127
2, 106120, Note_off_c, 1, 57, 0
2, 106120, Note_on_c, 1, 62, 127
2, 106120, Note_on_c, 1, 82, 127
2, 106120, Note_off_c, 1, 87, 0
2, 106120, Note_on_c, 1, 94, 127
2, 106240, Note_on_c, 1, 45, 127
2, 106240, Note_off_c, 1, 53, 0
2, 106240, Note_off_c, 1, 62, 0
2, 106240, Note_off_c, 1, 82, 0
2, 106240, Note_on_c, 1, 86, 127
2, 106240, Note_off_c, 1, 94, 0
2, 106280, Note_on_c, 1, 50, 127
2, 106280, Note_on_c, 1, 54, 127
2, 106280, Note_on_c, 1, 78, 127
2, 106280, Note_off_c, 1, 86, 0
2, 106640, Note_off_c, 1, 45, 0
2, 106640, Note_off_c, 1, 50, 0
2, 106640, Note_off_c, 1, 54, 0
2, 106640, Note_off_c, 1, 78, 0
2, 106680, Note_on_c, 1, 45, 127
2, 106680, Note_on_c, 1, 50, 127
2, 106680, Note_on_c, 1, 54, 127
2, 106680, Note_on_c, 1, 78, 127
2, 107440, Note_off_c, 1, 45, 0
2, 107440, Note_off_c, 1, 50, 0
2, 107440, Note_off_c, 1, 54, 0
2, 107440, Note_off_c, 1, 78, 0
2, 107480, Note_on_c, 1, 45, 127
2, 107480, Note_on_c, 1, 50, 127
2, 107480, Note_on_c, 1, 54, 127
2, 107480, Note_on_c, 1, 78, 127
2, 108240, Note_off_c, 1, 45, 0
2, 108240, Note_off_c, 1, 50, 0
2, 108240, Note_off_c, 1, 54, 0
2, 108240, Note_off_c, 1, 78, 0
2, 108320, Note_on_c, 1, 45, 127
2, 108320, Note_on_c, 1, 78, 127
2, 108680, Note_off_c, 1, 45, 0
2, 108720, Note_on_c, 1, 42, 127
2, 109080, Note_off_c, 1, 42, 0
2, 109120, Note_on_c, 1, 49, 127
2, 109480, Note_off_c, 1, 49, 0
2, 109520, Note_on_c, 1, 47, 127
2, 109880, Note_off_c, 1, 47, 0
2, 109920, Note_on_c, 1, 55, 127
2, 109920, Note_on_c, 1, 76, 127
2, 109920, Note_off_c, 1, 78, 0
2, 110280, Note_off_c, 1, 55, 0
2, 110320, Note_on_c, 1, 47, 127
2, 110320, Note_off_c, 1, 76, 0
2, 110320, Note_on_c, 1, 87, 127
2, 110640, Note_off_c, 1, 47, 0
2, 110640, Note_off_c, 1, 87, 0
2, 110680, Note_on_c, 1, 47, 127
2, 110680, Note_on_c, 1, 87, 127
2, 110720, Note_off_c, 1, 47, 0
2, 110720, Note_off_c, 1, 87, 0
2, 110760, Note_on_c, 1, 56, 127
2, 110760, Note_on_c, 1, 76, 127
2, 111120, Note_off_c, 1, 56, 0
2, 111160, Note_on_c, 1, 45, 127
2, 111520, Note_off_c, 1, 45, 0
2, 111560, Note_on_c, 1, 52, 127
2, 111920, Note_off_c, 1, 52, 0
2, 111960, Note_on_c, 1, 64, 127
2, 112320, Note_off_c, 1, 64, 0
2, 112320, Note_off_c, 1, 76, 0
2, 112360, Note_on_c, 1, 57, 127
2, 112360, Note_on_c, 1, 66, 127
2, 112360, Note_on_c, 1, 76, 127
2, 112720, Note_off_c, 1, 66, 0
2, 112720, Note_off_c, 1, 76, 0
2, 112760, Note_off_c, 1, 57, 0
2, 112800, Note_on_c, 1, 57, 127
2, 112800, Note_on_c, 1, 66, 127
2, 112800, Note_on_c, 1, 76, 127
2, 113160, Note_off_c, 1, 57, 0
2, 113160, Note_off_c, 1, 66, 0
2, 113160, Note_off_c, 1, 76, 0
2, 113200, Note_on_c, 1, 50, 127
2, 113200, Note_on_c, 1, 78, 127
2, 113560, Note_off_c, 1, 50, 0
2, 113600, Note_on_c, 1, 57, 127
2, 113960, Note_off_c, 1, 57, 0
2, 113960, Note_off_c, 1, 78, 0
2, 114000, Note_on_c, 1, 40, 127
2, 114000, Note_on_c, 1, 73, 127
2, 114360, Note_off_c, 1, 40, 0
2, 114360, Note_off_c, 1, 73, 0
2, 114400, Note_on_c, 1, 50, 127
2, 114400, Note_on_c, 1, 69, 127
2, 114760, Note_off_c, 1, 50, 0
2, 114800, Note_on_c, 1, 52, 127
2, 115000, Note_off_c, 1, 52, 0
2, 115000, Note_off_c, 1, 69, 0
2, 115040, Note_on_c, 1, 52, 127
2, 115040, Note_on_c, 1, 69, 127
2, 115160, Note_off_c, 1, 52, 0
2, 115200, Note_off_c, 1, 69, 0
2, 115200, Note_on_c, 1, 70, 127
2, 115200, Note_on_c, 1, 74, 127
2, 115200, Note_on_c, 1, 79, 127
2, 115200, Note_on_c, 1, 82, 127
2, 115200, Note_on_c, 1, 86, 127
2, 115200, Note_on_c, 1, 91, 127
2, 115560, Note_off_c, 1, 70, 0
2, 115560, Note_off_c, 1, 74, 0
2, 115560, Note_off_c, 1, 79, 0
2, 115560, Note_off_c, 1, 82, 0
2, 115560, Note_off_c, 1, 86, 0
2, 115560, Note_off_c, 1, 91, 0
2, 115600, Note_on_c, 1, 54, 127
2, 115600, Note_on_c, 1, 81, 127
2, 115960, Note_off_c, 1, 54, 0
2, 116000, Note_on_c, 1, 45, 127
2, 116360, Note_off_c, 1, 45, 0
2, 116360, Note_off_c, 1, 81, 0
2, 116400, Note_on_c, 1, 38, 127
2, 116400, Note_on_c, 1, 78, 127
2, 116760, Note_off_c, 1, 38, 0
2, 116760, Note_off_c, 1, 78, 0
2, 116800, Note_on_c, 1, 45, 127
2, 116800, Note_on_c, 1, 78, 127
2, 117160, Note_off_c, 1, 45, 0
2, 117200, Note_off_c, 1, 78, 0
2, 117240, Note_on_c, 1, 38, 127
2, 117240, Note_on_c, 1, 78, 127
2, 117560, Note_off_c, 1, 38, 0
2, 117560, Note_off_c, 1, 78, 0
2, 117600, Note_on_c, 1, 45, 127
2, 117600, Note_on_c, 1, 78, 127
2, 117960, Note_off_c, 1, 45, 0
2, 118000, Note_on_c, 1, 50, 127
2, 118360, Note_off_c, 1, 50, 0
2, 118400, Note_on_c, 1, 57, 127
2, 118760, Note_off_c, 1, 57, 0
2, 118800, Note_on_c, 1, 50, 127
2, 119160, Note_off_c, 1, 50, 0
2, 119200, Note_on_c, 1, 61, 127
2, 119440, Note_off_c, 1, 78, 0
2, 119480, Note_off_c, 1, 61, 0
2, 119520, Note_on_c, 1, 61, 127
2, 119520, Note_on_c, 1, 78, 127
2, 119600, Note_off_c, 1, 61, 0
2, 119600, Note_off_c, 1, 78, 0
2, 119640, Note_on_c, 1, 45, 127
2, 119640, Note_on_c, 1, 78, 127
2, 120000, Note_off_c, 1, 45, 0
2, 120000, Note_off_c, 1, 78, 0
2, 120040, End_track
3, 0, Start_track
3, 0, Title_t, "MIDI"
3, 1536, End_track
0, 0, End_of_file
