0, 0, Header, 1, 3, 192
1, 0, Start_track
1, 0, Time_signature, 4, 2, 24, 8
1, 0, Tempo, 500000
1, 120040, End_track
2, 0, Start_track
2, 0, Text_t, "random instrument: random person i dunno whatev"
2, 0, Title_t, "Track 1"
2, 0, Note_on_c, 1, 58, 127
2, 0, Note_on_c, 1, 66, 127
2, 0, Note_on_c, 1, 78, 127
2, 0, Note_on_c, 1, 82, 127
2, 0, Note_on_c, 1, 90, 127
2, 40, Note_off_c, 1, 58, 0
2, 40, Note_on_c, 1, 59, 127
2, 40, Note_off_c, 1, 66, 0
2, 40, Note_on_c, 1, 74, 127
2, 40, Note_off_c, 1, 82, 0
2, 40, Note_on_c, 1, 83, 127
2, 40, Note_on_c, 1, 86, 127
2, 40, Note_off_c, 1, 90, 0
2, 80, Note_on_c, 1, 49, 127
2, 80, Note_on_c, 1, 56, 127
2, 80, Note_off_c, 1, 59, 0
2, 80, Note_on_c, 1, 61, 127
2, 80, Note_off_c, 1, 74, 0
2, 80, Note_on_c, 1, 76, 127
2, 80, Note_off_c, 1, 78, 0
2, 80, Note_on_c, 1, 80, 127
2, 80, Note_off_c, 1, 83, 0
2, 80, Note_on_c, 1, 85, 127
2, 80, Note_off_c, 1, 86, 0
2, 120, Note_off_c, 1, 49, 0
2, 120, Note_off_c, 1, 56, 0
2, 120, Note_on_c, 1, 58, 127
2, 120, Note_off_c, 1, 61, 0
2, 120, Note_on_c, 1, 66, 127
2, 120, Note_off_c, 1, 76, 0
2, 120, Note_on_c, 1, 78, 127
2, 120, Note_off_c, 1, 80, 0
2, 120, Note_on_c, 1, 82, 127
2, 120, Note_off_c, 1, 85, 0
2, 120, Note_on_c, 1, 90, 127
2, 160, Note_off_c, 1, 58, 0
2, 160, Note_off_c, 1, 66, 0
2, 160, Note_off_c, 1, 78, 0
2, 160, Note_off_c, 1, 82, 0
2, 160, Note_off_c, 1, 90, 0
2, 200, Note_on_c, 1, 35, 127
2, 200, Note_on_c, 1, 39, 127
2, 200, Note_on_c, 1, 47, 127
2, 200, Note_on_c, 1, 50, 127
2, 240, Note_off_c, 1, 35, 0
2, 240, Note_off_c, 1, 39, 0
2, 240, Note_off_c, 1, 47, 0
2, 240, Note_off_c, 1, 50, 0
2, 240, Note_on_c, 1, 58, 127
2, 240, Note_on_c, 1, 64, 127
2, 240, Note_on_c, 1, 66, 127
2, 240, Note_on_c, 1, 73, 127
2, 240, Note_on_c, 1, 85, 127
2, 280, Note_on_c, 1, 35, 127
2, 280, Note_on_c, 1, 47, 127
2, 280, Note_off_c, 1, 58, 0
2, 280, Note_off_c, 1, 64, 0
2, 280, Note_off_c, 1, 66, 0
2, 280, Note_off_c, 1, 73, 0
2, 280, Note_on_c, 1, 78, 127
2, 280, Note_on_c, 1, 81, 127
2, 280, Note_on_c, 1, 83, 127
2, 280, Note_off_c, 1, 85, 0
2, 280, Note_on_c, 1, 87, 127
2, 320, Note_off_c, 1, 35, 0
2, 320, Note_off_c, 1, 47, 0
2, 320, Note_on_c, 1, 58, 127
2, 320, Note_on_c, 1, 64, 127
2, 320, Note_on_c, 1, 66, 127
2, 320, Note_on_c, 1, 73, 127
2, 320, Note_off_c, 1, 78, 0
2, 320, Note_off_c, 1, 81, 0
2, 320, Note_off_c, 1, 83, 0
2, 320, Note_on_c, 1, 85, 127
2, 320, Note_off_c, 1, 87, 0
2, 400, Note_off_c, 1, 58, 0
2, 400, Note_off_c, 1, 64, 0
2, 400, Note_off_c, 1, 66, 0
2, 400, Note_off_c, 1, 73, 0
2, 400, Note_off_c, 1, 85, 0
2, 480, Note_on_c, 1, 56, 127
2, 480, Note_on_c, 1, 58, 127
2, 480, Note_on_c, 1, 62, 127
2, 480, Note_on_c, 1, 67, 127
2, 520, Note_off_c, 1, 56, 0
2, 520, Note_off_c, 1, 58, 0
2, 520, Note_on_c, 1, 60, 127
2, 520, Note_off_c, 1, 62, 0
2, 520, Note_off_c, 1, 67, 0
2, 520, Note_on_c, 1, 70, 127
2, 520, Note_on_c, 1, 75, 127
2, 520, Note_on_c, 1, 78, 127
2, 520, Note_on_c, 1, 87, 127
2, 560, Note_on_c, 1, 41, 127
2, 560, Note_on_c, 1, 53, 127
2, 560, Note_on_c, 1, 63, 127
2, 560, Note_off_c, 1, 70, 0
2, 560, Note_off_c, 1, 75, 0
2, 560, Note_off_c, 1, 78, 0
2, 560, Note_off_c, 1, 87, 0
2, 600, Note_off_c, 1, 41, 0
2, 600, Note_on_c, 1, 46, 127
2, 600, Note_on_c, 1, 50, 127
2, 600, Note_off_c, 1, 60, 0
2, 600, Note_off_c, 1, 63, 0
2, 600, Note_on_c, 1, 72, 127
2, 640, Note_off_c, 1, 46, 0
2, 640, Note_off_c, 1, 50, 0
2, 640, Note_off_c, 1, 53, 0
2, 640, Note_on_c, 1, 56, 127
2, 640, Note_on_c, 1, 61, 127
2, 640, Note_on_c, 1, 64, 127
2, 640, Note_on_c, 1, 67, 127
2, 640, Note_off_c, 1, 72, 0
2, 640, Note_on_c, 1, 73, 127
2, 680, Note_off_c, 1, 61, 0
2, 680, Note_on_c, 1, 63, 127
2, 680, Note_off_c, 1, 64, 0
2, 680, Note_on_c, 1, 65, 127
2, 680, Note_off_c, 1, 67, 0
2, 680, Note_off_c, 1, 73, 0
2, 720, Note_on_c, 1, 41, 127
2, 720, Note_on_c, 1, 51, 127
2, 720, Note_on_c, 1, 53, 127
2, 720, Note_off_c, 1, 56, 0
2, 720, Note_off_c, 1, 63, 0
2, 720, Note_off_c, 1, 65, 0
2, 720, Note_on_c, 1, 72, 127
2, 920, Note_off_c, 1, 41, 0
2, 920, Note_off_c, 1, 51, 0
2, 920, Note_off_c, 1, 53, 0
2, 920, Note_off_c, 1, 72, 0
2, 960, Note_on_c, 1, 34, 127
2, 960, Note_on_c, 1, 82, 127
2, 960, Note_on_c, 1, 86, 127
2, 1000, Note_off_c, 1, 34, 0
2, 1000, Note_on_c, 1, 77, 127
2, 1000, Note_off_c, 1, 82, 0
2, 1000, Note_off_c, 1, 86, 0
2, 1000, Note_on_c, 1, 87, 127
2, 1000, Note_on_c, 1, 89, 127
2, 1040, Note_on_c, 1, 58, 127
2, 1040, Note_on_c, 1, 61, 127
2, 1040, Note_on_c, 1, 65, 127
2, 1040, Note_off_c, 1, 77, 0
2, 1040, Note_off_c, 1, 87, 0
2, 1080, Note_on_c, 1, 34, 127
2, 1080, Note_off_c, 1, 58, 0
2, 1080, Note_off_c, 1, 61, 0
2, 1080, Note_off_c, 1, 65, 0
2, 1080, Note_on_c, 1, 82, 127
2, 1080, Note_on_c, 1, 86, 127
2, 1080, Note_off_c, 1, 89, 0
2, 1120, Note_off_c, 1, 34, 0
2, 1120, Note_on_c, 1, 46, 127
2, 1120, Note_off_c, 1, 82, 0
2, 1120, Note_off_c, 1, 86, 0
2, 1160, Note_off_c, 1, 46, 0
2, 1200, Note_on_c, 1, 46, 127
2, 1200, Note_on_c, 1, 65, 127
2, 1200, Note_on_c, 1, 70, 127
2, 1200, Note_on_c, 1, 75, 127
2, 1200, Note_on_c, 1, 77, 127
2, 1240, Note_on_c, 1, 41, 127
2, 1240, Note_on_c, 1, 45, 127
2, 1240, Note_off_c, 1, 46, 0
2, 1240, Note_on_c, 1, 53, 127
2, 1240, Note_off_c, 1, 65, 0
2, 1240, Note_off_c, 1, 70, 0
2, 1240, Note_off_c, 1, 75, 0
2, 1240, Note_on_c, 1, 81, 127
2, 1240, Note_on_c, 1, 85, 127
2, 1240, Note_on_c, 1, 89, 127
2, 1280, Note_off_c, 1, 41, 0
2, 1280, Note_off_c, 1, 45, 0
2, 1280, Note_on_c, 1, 47, 127
2, 1280, Note_on_c, 1, 51, 127
2, 1280, Note_off_c, 1, 53, 0
2, 1280, Note_on_c, 1, 54, 127
2, 1280, Note_on_c, 1, 57, 127
2, 1280, Note_on_c, 1, 65, 127
2, 1280, Note_off_c, 1, 81, 0
2, 1280, Note_off_c, 1, 85, 0
2, 1280, Note_off_c, 1, 89, 0
2, 1320, Note_off_c, 1, 47, 0
2, 1320, Note_off_c, 1, 51, 0
2, 1320, Note_off_c, 1, 54, 0
2, 1320, Note_off_c, 1, 57, 0
2, 1320, Note_on_c, 1, 70, 127
2, 1320, Note_on_c, 1, 82, 127
2, 1360, Note_off_c, 1, 65, 0
2, 1360, Note_off_c, 1, 70, 0
2, 1360, Note_on_c, 1, 74, 127
2, 1360, Note_off_c, 1, 77, 0
2, 1360, Note_on_c, 1, 80, 127
2, 1400, Note_off_c, 1, 74, 0
2, 1400, Note_off_c, 1, 80, 0
2, 1440, Note_on_c, 1, 44, 127
2, 1440, Note_on_c, 1, 56, 127
2, 1440, Note_on_c, 1, 72, 127
2, 1440, Note_on_c, 1, 80, 127
2, 1440, Note_off_c, 1, 82, 0
2, 1640, Note_off_c, 1, 44, 0
2, 1640, Note_off_c, 1, 56, 0
2, 1640, Note_off_c, 1, 72, 0
2, 1640, Note_off_c, 1, 80, 0
2, 1680, Note_on_c, 1, 44, 127
2, 1680, Note_on_c, 1, 46, 127
2, 1680, Note_on_c, 1, 50, 127
2, 1680, Note_on_c, 1, 53, 127
2, 1680, Note_on_c, 1, 58, 127
2, 2120, Note_off_c, 1, 44, 0
2, 2120, Note_off_c, 1, 46, 0
2, 2120, Note_off_c, 1, 50, 0
2, 2120, Note_off_c, 1, 53, 0
2, 2120, Note_off_c, 1, 58, 0
2, 2160, Note_on_c, 1, 41, 127
2, 2160, Note_on_c, 1, 46, 127
2, 2160, Note_on_c, 1, 50, 127
2, 2160, Note_on_c, 1, 56, 127
2, 2160, Note_on_c, 1, 58, 127
2, 2480, Note_off_c, 1, 41, 0
2, 2480, Note_off_c, 1, 46, 0
2, 2480, Note_off_c, 1, 50, 0
2, 2480, Note_off_c, 1, 56, 0
2, 2480, Note_off_c, 1, 58, 0
2, 2520, Note_on_c, 1, 41, 127
2, 2520, Note_on_c, 1, 46, 127
2, 2520, Note_on_c, 1, 50, 127
2, 2520, Note_on_c, 1, 56, 127
2, 2520, Note_on_c, 1, 58, 127
2, 2640, Note_off_c, 1, 41, 0
2, 2640, Note_off_c, 1, 46, 0
2, 2640, Note_off_c, 1, 50, 0
2, 2640, Note_off_c, 1, 56, 0
2, 2640, Note_off_c, 1, 58, 0
2, 2680, Note_on_c, 1, 39, 127
2, 2680, Note_on_c, 1, 53, 127
2, 2680, Note_on_c, 1, 74, 127
2, 2680, Note_on_c, 1, 80, 127
2, 2680, Note_on_c, 1, 86, 127
2, 2720, Note_off_c, 1, 39, 0
2, 2720, Note_on_c, 1, 50, 127
2, 2720, Note_off_c, 1, 53, 0
2, 2720, Note_on_c, 1, 56, 127
2, 2720, Note_on_c, 1, 58, 127
2, 2720, Note_off_c, 1, 74, 0
2, 2720, Note_off_c, 1, 80, 0
2, 2720, Note_on_c, 1, 82, 127
2, 2720, Note_on_c, 1, 85, 127
2, 2720, Note_off_c, 1, 86, 0
2, 2720, Note_on_c, 1, 94, 127
2, 2760, Note_on_c, 1, 39, 127
2, 2760, Note_off_c, 1, 50, 0
2, 2760, Note_on_c, 1, 53, 127
2, 2760, Note_off_c, 1, 56, 0
2, 2760, Note_off_c, 1, 58, 0
2, 2760, Note_on_c, 1, 74, 127
2, 2760, Note_on_c, 1, 80, 127
2, 2760, Note_off_c, 1, 82, 0
2, 2760, Note_off_c, 1, 85, 0
2, 2760, Note_on_c, 1, 86, 127
2, 2760, Note_off_c, 1, 94, 0
2, 2880, Note_off_c, 1, 39, 0
2, 2880, Note_off_c, 1, 53, 0
2, 2880, Note_off_c, 1, 74, 0
2, 2880, Note_off_c, 1, 80, 0
2, 2880, Note_on_c, 1, 82, 127
2, 2880, Note_off_c, 1, 86, 0
2, 2920, Note_on_c, 1, 45, 127
2, 2920, Note_on_c, 1, 57, 127
2, 2920, Note_off_c, 1, 82, 0
2, 2920, Note_on_c, 1, 102, 127
2, 3120, Note_off_c, 1, 45, 0
2, 3120, Note_off_c, 1, 57, 0
2, 3120, Note_off_c, 1, 102, 0
2, 3160, Note_on_c, 1, 58, 127
2, 3160, Note_on_c, 1, 66, 127
2, 3160, Note_on_c, 1, 70, 127
2, 3160, Note_on_c, 1, 82, 127
2, 3160, Note_on_c, 1, 85, 127
2, 3160, Note_on_c, 1, 90, 127
2, 3160, Note_on_c, 1, 94, 127
2, 3200, Note_off_c, 1, 58, 0
2, 3200, Note_off_c, 1, 66, 0
2, 3200, Note_off_c, 1, 70, 0
2, 3200, Note_on_c, 1, 78, 127
2, 3200, Note_on_c, 1, 81, 127
2, 3200, Note_off_c, 1, 82, 0
2, 3200, Note_off_c, 1, 85, 0
2, 3200, Note_on_c, 1, 86, 127
2, 3200, Note_off_c, 1, 90, 0
2, 3200, Note_off_c, 1, 94, 0
2, 3200, Note_on_c, 1, 98, 127
2, 3240, Note_on_c, 1, 51, 127
2, 3240, Note_on_c, 1, 53, 127
2, 3240, Note_on_c, 1, 57, 127
2, 3240, Note_on_c, 1, 73, 127
2, 3240, Note_off_c, 1, 78, 0
2, 3240, Note_off_c, 1, 81, 0
2, 3240, Note_off_c, 1, 86, 0
2, 3240, Note_off_c, 1, 98, 0
2, 3280, Note_on_c, 1, 29, 127
2, 3280, Note_off_c, 1, 51, 0
2, 3280, Note_off_c, 1, 53, 0
2, 3280, Note_off_c, 1, 57, 0
2, 3280, Note_on_c, 1, 58, 127
2, 3280, Note_on_c, 1, 61, 127
2, 3280, Note_on_c, 1, 68, 127
2, 3280, Note_off_c, 1, 73, 0
2, 3320, Note_off_c, 1, 29, 0
2, 3320, Note_on_c, 1, 46, 127
2, 3320, Note_off_c, 1, 61, 0
2, 3320, Note_off_c, 1, 68, 0
2, 3320, Note_on_c, 1, 89, 127
2, 3320, Note_on_c, 1, 101, 127
2, 3360, Note_off_c, 1, 46, 0
2, 3360, Note_off_c, 1, 58, 0
2, 3360, Note_off_c, 1, 89, 0
2, 3360, Note_off_c, 1, 101, 0
2, 3400, Note_on_c, 1, 67, 127
2, 3400, Note_on_c, 1, 69, 127
2, 3400, Note_on_c, 1, 76, 127
2, 3400, Note_on_c, 1, 82, 127
2, 3440, Note_on_c, 1, 55, 127
2, 3440, Note_off_c, 1, 69, 0
2, 3440, Note_on_c, 1, 73, 127
2, 3440, Note_off_c, 1, 76, 0
2, 3440, Note_on_c, 1, 77, 127
2, 3440, Note_on_c, 1, 80, 127
2, 3440, Note_off_c, 1, 82, 0
2, 3440, Note_on_c, 1, 85, 127
2, 3480, Note_off_c, 1, 55, 0
2, 3480, Note_on_c, 1, 69, 127
2, 3480, Note_off_c, 1, 73, 0
2, 3480, Note_on_c, 1, 76, 127
2, 3480, Note_off_c, 1, 77, 0
2, 3480, Note_off_c, 1, 80, 0
2, 3480, Note_on_c, 1, 82, 127
2, 3480, Note_off_c, 1, 85, 0
2, 3520, Note_on_c, 1, 57, 127
2, 3520, Note_on_c, 1, 60, 127
2, 3520, Note_on_c, 1, 65, 127
2, 3520, Note_off_c, 1, 67, 0
2, 3520, Note_off_c, 1, 76, 0
2, 3520, Note_on_c, 1, 81, 127
2, 3520, Note_off_c, 1, 82, 0
2, 3520, Note_on_c, 1, 86, 127
2, 3560, Note_on_c, 1, 48, 127
2, 3560, Note_on_c, 1, 52, 127
2, 3560, Note_off_c, 1, 57, 0
2, 3560, Note_off_c, 1, 60, 0
2, 3560, Note_off_c, 1, 65, 0
2, 3560, Note_on_c, 1, 67, 127
2, 3560, Note_off_c, 1, 69, 0
2, 3560, Note_on_c, 1, 73, 127
2, 3560, Note_off_c, 1, 81, 0
2, 3560, Note_off_c, 1, 86, 0
2, 3600, Note_off_c, 1, 48, 0
2, 3600, Note_off_c, 1, 52, 0
2, 3600, Note_off_c, 1, 67, 0
2, 3600, Note_off_c, 1, 73, 0
2, 3640, Note_on_c, 1, 62, 127
2, 3640, Note_on_c, 1, 77, 127
2, 3640, Note_on_c, 1, 82, 127
2, 3840, Note_off_c, 1, 62, 0
2, 3840, Note_off_c, 1, 77, 0
2, 3840, Note_off_c, 1, 82, 0
2, 3880, Note_on_c, 1, 61, 127
2, 3880, Note_on_c, 1, 80, 127
2, 3880, Note_on_c, 1, 90, 127
2, 4080, Note_off_c, 1, 90, 0
2, 4120, Note_off_c, 1, 61, 0
2, 4120, Note_on_c, 1, 65, 127
2, 4120, Note_on_c, 1, 73, 127
2, 4120, Note_on_c, 1, 85, 127
2, 4320, Note_off_c, 1, 65, 0
2, 4320, Note_off_c, 1, 73, 0
2, 4320, Note_off_c, 1, 80, 0
2, 4320, Note_off_c, 1, 85, 0
2, 4360, Note_on_c, 1, 76, 127
2, 4360, Note_on_c, 1, 77, 127
2, 4360, Note_on_c, 1, 82, 127
2, 4360, Note_on_c, 1, 84, 127
2, 4400, Note_on_c, 1, 38, 127
2, 4400, Note_off_c, 1, 76, 0
2, 4400, Note_off_c, 1, 77, 0
2, 4400, Note_off_c, 1, 82, 0
2, 4400, Note_off_c, 1, 84, 0
2, 4400, Note_on_c, 1, 93, 127
2, 4440, Note_off_c, 1, 38, 0
2, 4440, Note_off_c, 1, 93, 0
2, 4440, Note_on_c, 1, 99, 127
2, 4440, Note_on_c, 1, 103, 127
2, 4480, Note_on_c, 1, 39, 127
2, 4480, Note_on_c, 1, 81, 127
2, 4480, Note_on_c, 1, 83, 127
2, 4480, Note_on_c, 1, 90, 127
2, 4480, Note_on_c, 1, 93, 127
2, 4480, Note_off_c, 1, 99, 0
2, 4480, Note_off_c, 1, 103, 0
2, 4520, Note_off_c, 1, 39, 0
2, 4520, Note_off_c, 1, 81, 0
2, 4520, Note_off_c, 1, 83, 0
2, 4520, Note_off_c, 1, 90, 0
2, 4520, Note_off_c, 1, 93, 0
2, 4560, Note_on_c, 1, 56, 127
2, 4560, Note_on_c, 1, 59, 127
2, 4560, Note_on_c, 1, 62, 127
2, 4560, Note_on_c, 1, 64, 127
2, 4560, Note_on_c, 1, 67, 127
2, 4560, Note_on_c, 1, 71, 127
2, 4560, Note_on_c, 1, 75, 127
2, 4600, Note_on_c, 1, 36, 127
2, 4600, Note_off_c, 1, 56, 0
2, 4600, Note_off_c, 1, 59, 0
2, 4600, Note_off_c, 1, 62, 0
2, 4600, Note_off_c, 1, 64, 0
2, 4600, Note_off_c, 1, 67, 0
2, 4600, Note_off_c, 1, 71, 0
2, 4600, Note_off_c, 1, 75, 0
2, 4600, Note_on_c, 1, 91, 127
2, 4640, Note_off_c, 1, 36, 0
2, 4640, Note_on_c, 1, 52, 127
2, 4640, Note_on_c, 1, 64, 127
2, 4640, Note_on_c, 1, 74, 127
2, 4640, Note_on_c, 1, 80, 127
2, 4640, Note_on_c, 1, 86, 127
2, 4640, Note_off_c, 1, 91, 0
2, 4680, Note_off_c, 1, 52, 0
2, 4680, Note_on_c, 1, 58, 127
2, 4680, Note_off_c, 1, 64, 0
2, 4680, Note_on_c, 1, 70, 127
2, 4680, Note_off_c, 1, 74, 0
2, 4680, Note_on_c, 1, 77, 127
2, 4680, Note_off_c, 1, 86, 0
2, 4720, Note_on_c, 1, 49, 127
2, 4720, Note_on_c, 1, 52, 127
2, 4720, Note_on_c, 1, 54, 127
2, 4720, Note_off_c, 1, 58, 0
2, 4720, Note_on_c, 1, 61, 127
2, 4720, Note_on_c, 1, 64, 127
2, 4720, Note_on_c, 1, 66, 127
2, 4720, Note_off_c, 1, 70, 0
2, 4720, Note_off_c, 1, 77, 0
2, 4720, Note_off_c, 1, 80, 0
2, 4760, Note_on_c, 1, 37, 127
2, 4760, Note_on_c, 1, 41, 127
2, 4760, Note_off_c, 1, 52, 0
2, 4760, Note_off_c, 1, 54, 0
2, 4760, Note_off_c, 1, 61, 0
2, 4760, Note_off_c, 1, 64, 0
2, 4760, Note_on_c, 1, 78, 127
2, 4800, Note_off_c, 1, 37, 0
2, 4800, Note_off_c, 1, 41, 0
2, 4800, Note_on_c, 1, 43, 127
2, 4800, Note_off_c, 1, 49, 0
2, 4800, Note_on_c, 1, 50, 127
2, 4800, Note_off_c, 1, 66, 0
2, 4800, Note_on_c, 1, 83, 127
2, 4800, Note_on_c, 1, 90, 127
2, 4840, Note_off_c, 1, 43, 0
2, 4840, Note_off_c, 1, 50, 0
2, 4840, Note_off_c, 1, 78, 0
2, 4840, Note_off_c, 1, 83, 0
2, 4840, Note_off_c, 1, 90, 0
2, 4880, Note_on_c, 1, 47, 127
2, 4880, Note_on_c, 1, 57, 127
2, 4880, Note_on_c, 1, 74, 127
2, 4880, Note_on_c, 1, 77, 127
2, 4920, Note_off_c, 1, 47, 0
2, 4920, Note_off_c, 1, 57, 0
2, 4920, Note_on_c, 1, 65, 127
2, 4920, Note_on_c, 1, 69, 127
2, 4920, Note_off_c, 1, 77, 0
2, 4920, Note_on_c, 1, 81, 127
2, 5080, Note_off_c, 1, 65, 0
2, 5080, Note_off_c, 1, 69, 0
2, 5080, Note_off_c, 1, 74, 0
2, 5080, Note_off_c, 1, 81, 0
2, 5120, Note_on_c, 1, 51, 127
2, 5120, Note_on_c, 1, 54, 127
2, 5120, Note_on_c, 1, 78, 127
2, 5120, Note_on_c, 1, 81, 127
2, 5320, Note_off_c, 1, 51, 0
2, 5320, Note_off_c, 1, 54, 0
2, 5320, Note_off_c, 1, 78, 0
2, 5320, Note_off_c, 1, 81, 0
2, 5360, Note_on_c, 1, 51, 127
2, 5360, Note_on_c, 1, 73, 127
2, 5360, Note_on_c, 1, 81, 127
2, 5560, Note_off_c, 1, 51, 0
2, 5560, Note_off_c, 1, 73, 0
2, 5560, Note_off_c, 1, 81, 0
2, 5600, Note_on_c, 1, 51, 127
2, 5600, Note_on_c, 1, 73, 127
2, 5600, Note_on_c, 1, 81, 127
2, 5800, Note_off_c, 1, 51, 0
2, 5800, Note_off_c, 1, 73, 0
2, 5800, Note_off_c, 1, 81, 0
2, 5840, Note_on_c, 1, 51, 127
2, 5840, Note_on_c, 1, 73, 127
2, 5840, Note_on_c, 1, 81, 127
2, 6040, Note_off_c, 1, 51, 0
2, 6040, Note_off_c, 1, 73, 0
2, 6040, Note_off_c, 1, 81, 0
2, 6080, Note_on_c, 1, 51, 127
2, 6080, Note_on_c, 1, 73, 127
2, 6080, Note_on_c, 1, 81, 127
2, 6280, Note_off_c, 1, 51, 0
2, 6280, Note_off_c, 1, 73, 0
2, 6280, Note_off_c, 1, 81, 0
2, 6320, Note_on_c, 1, 75, 127
2, 6320, Note_on_c, 1, 80, 127
2, 6320, Note_on_c, 1, 83, 127
2, 6320, Note_on_c, 1, 87, 127
2, 6520, Note_off_c, 1, 75, 0
2, 6520, Note_off_c, 1, 80, 0
2, 6520, Note_off_c, 1, 83, 0
2, 6520, Note_off_c, 1, 87, 0
2, 6560, Note_on_c, 1, 25, 127
2, 6560, Note_on_c, 1, 37, 127
2, 6560, Note_on_c, 1, 80, 127
2, 6560, Note_on_c, 1, 85, 127
2, 6560, Note_on_c, 1, 89, 127
2, 6560, Note_on_c, 1, 92, 127
2, 6600, Note_off_c, 1, 25, 0
2, 6600, Note_off_c, 1, 37, 0
2, 6600, Note_on_c, 1, 41, 127
2, 6600, Note_on_c, 1, 53, 127
2, 6600, Note_on_c, 1, 56, 127
2, 6600, Note_on_c, 1, 73, 127
2, 6600, Note_off_c, 1, 85, 0
2, 6600, Note_off_c, 1, 89, 0
2, 6600, Note_off_c, 1, 92, 0
2, 6640, Note_off_c, 1, 41, 0
2, 6640, Note_off_c, 1, 53, 0
2, 6640, Note_off_c, 1, 56, 0
2, 6640, Note_off_c, 1, 73, 0
2, 6640, Note_off_c, 1, 80, 0
2, 6680, Note_on_c, 1, 41, 127
2, 6680, Note_on_c, 1, 53, 127
2, 6680, Note_on_c, 1, 56, 127
2, 6680, Note_on_c, 1, 73, 127
2, 6680, Note_on_c, 1, 80, 127
2, 6760, Note_off_c, 1, 41, 0
2, 6760, Note_on_c, 1, 49, 127
2, 6760, Note_on_c, 1, 52, 127
2, 6760, Note_off_c, 1, 53, 0
2, 6760, Note_off_c, 1, 56, 0
2, 6760, Note_on_c, 1, 57, 127
2, 6760, Note_on_c, 1, 61, 127
2, 6760, Note_on_c, 1, 63, 127
2, 6760, Note_off_c, 1, 73, 0
2, 6760, Note_off_c, 1, 80, 0
2, 6800, Note_off_c, 1, 49, 0
2, 6800, Note_off_c, 1, 52, 0
2, 6800, Note_off_c, 1, 57, 0
2, 6800, Note_off_c, 1, 61, 0
2, 6800, Note_off_c, 1, 63, 0
2, 6840, Note_on_c, 1, 64, 127
2, 6840, Note_on_c, 1, 71, 127
2, 6840, Note_on_c, 1, 100, 127
2, 7680, Note_off_c, 1, 64, 0
2, 7680, Note_off_c, 1, 71, 0
2, 7680, Note_off_c, 1, 100, 0
2, 8040, Note_on_c, 1, 29, 127
2, 8040, Note_on_c, 1, 41, 127
2, 8040, Note_on_c, 1, 69, 127
2, 8040, Note_on_c, 1, 76, 127
2, 8200, Note_off_c, 1, 76, 0
2, 8240, Note_on_c, 1, 76, 127
2, 8400, Note_off_c, 1, 76, 0
2, 8440, Note_off_c, 1, 29, 0
2, 8440, Note_off_c, 1, 41, 0
2, 8440, Note_off_c, 1, 69, 0
2, 8440, Note_on_c, 1, 81, 127
2, 8440, Note_on_c, 1, 84, 127
2, 8440, Note_on_c, 1, 88, 127
2, 8480, Note_on_c, 1, 58, 127
2, 8480, Note_off_c, 1, 81, 0
2, 8480, Note_off_c, 1, 84, 0
2, 8480, Note_off_c, 1, 88, 0
2, 8480, Note_on_c, 1, 92, 127
2, 8680, Note_off_c, 1, 58, 0
2, 8720, Note_on_c, 1, 34, 127
2, 8720, Note_on_c, 1, 40, 127
2, 8720, Note_on_c, 1, 46, 127
2, 8720, Note_off_c, 1, 92, 0
2, 8760, Note_off_c, 1, 34, 0
2, 8760, Note_on_c, 1, 38, 127
2, 8760, Note_off_c, 1, 40, 0
2, 8760, Note_off_c, 1, 46, 0
2, 8760, Note_on_c, 1, 50, 127
2, 8760, Note_on_c, 1, 77, 127
2, 8760, Note_on_c, 1, 83, 127
2, 8800, Note_on_c, 1, 34, 127
2, 8800, Note_off_c, 1, 38, 0
2, 8800, Note_on_c, 1, 40, 127
2, 8800, Note_on_c, 1, 46, 127
2, 8800, Note_off_c, 1, 50, 0
2, 8800, Note_off_c, 1, 77, 0
2, 8800, Note_off_c, 1, 83, 0
2, 8840, Note_off_c, 1, 34, 0
2, 8840, Note_off_c, 1, 40, 0
2, 8840, Note_off_c, 1, 46, 0
2, 8840, Note_on_c, 1, 49, 127
2, 8840, Note_on_c, 1, 51, 127
2, 8840, Note_on_c, 1, 65, 127
2, 8880, Note_on_c, 1, 39, 127
2, 8880, Note_off_c, 1, 49, 0
2, 8880, Note_off_c, 1, 51, 0
2, 8880, Note_on_c, 1, 55, 127
2, 8880, Note_off_c, 1, 65, 0
2, 8880, Note_on_c, 1, 75, 127
2, 8880, Note_on_c, 1, 79, 127
2, 8880, Note_on_c, 1, 82, 127
2, 8920, Note_off_c, 1, 39, 0
2, 8920, Note_off_c, 1, 55, 0
2, 8920, Note_off_c, 1, 75, 0
2, 8920, Note_off_c, 1, 79, 0
2, 8920, Note_off_c, 1, 82, 0
2, 8960, Note_on_c, 1, 47, 127
2, 8960, Note_on_c, 1, 54, 127
2, 8960, Note_on_c, 1, 57, 127
2, 8960, Note_on_c, 1, 66, 127
2, 8960, Note_on_c, 1, 69, 127
2, 8960, Note_on_c, 1, 73, 127
2, 8960, Note_on_c, 1, 78, 127
2, 9040, Note_off_c, 1, 78, 0
2, 9080, Note_on_c, 1, 78, 127
2, 9160, Note_off_c, 1, 78, 0
2, 9200, Note_on_c, 1, 78, 127
2, 9360, Note_off_c, 1, 47, 0
2, 9360, Note_off_c, 1, 54, 0
2, 9360, Note_off_c, 1, 57, 0
2, 9360, Note_off_c, 1, 66, 0
2, 9360, Note_off_c, 1, 69, 0
2, 9360, Note_off_c, 1, 73, 0
2, 9360, Note_off_c, 1, 78, 0
2, 9400, Note_on_c, 1, 47, 127
2, 9400, Note_on_c, 1, 54, 127
2, 9400, Note_on_c, 1, 57, 127
2, 9400, Note_on_c, 1, 66, 127
2, 9400, Note_on_c, 1, 69, 127
2, 9400, Note_on_c, 1, 73, 127
2, 9400, Note_on_c, 1, 78, 127
2, 9480, Note_off_c, 1, 78, 0
2, 9520, Note_on_c, 1, 78, 127
2, 9640, Note_off_c, 1, 47, 0
2, 9640, Note_on_c, 1, 53, 127
2, 9640, Note_off_c, 1, 54, 0
2, 9640, Note_on_c, 1, 59, 127
2, 9640, Note_on_c, 1, 62, 127
2, 9640, Note_off_c, 1, 66, 0
2, 9640, Note_off_c, 1, 69, 0
2, 9640, Note_off_c, 1, 73, 0
2, 9640, Note_off_c, 1, 78, 0
2, 9680, Note_off_c, 1, 53, 0
2, 9680, Note_off_c, 1, 57, 0
2, 9680, Note_off_c, 1, 59, 0
2, 9680, Note_off_c, 1, 62, 0
2, 9680, Note_on_c, 1, 75, 127
2, 9680, Note_on_c, 1, 79, 127
2, 9720, Note_on_c, 1, 38, 127
2, 9720, Note_on_c, 1, 50, 127
2, 9720, Note_on_c, 1, 68, 127
2, 9720, Note_on_c, 1, 70, 127
2, 9720, Note_off_c, 1, 75, 0
2, 9720, Note_on_c, 1, 77, 127
2, 9720, Note_off_c, 1, 79, 0
2, 9720, Note_on_c, 1, 80, 127
2, 9920, Note_off_c, 1, 38, 0
2, 9920, Note_off_c, 1, 50, 0
2, 9920, Note_on_c, 1, 61, 127
2, 9920, Note_off_c, 1, 68, 0
2, 9920, Note_off_c, 1, 70, 0
2, 9920, Note_on_c, 1, 76, 127
2, 9920, Note_off_c, 1, 77, 0
2, 9920, Note_on_c, 1, 79, 127
2, 9920, Note_off_c, 1, 80, 0
2, 9920, Note_on_c, 1, 82, 127
2, 9960, Note_on_c, 1, 67, 127
2, 9960, Note_off_c, 1, 76, 0
2, 9960, Note_off_c, 1, 79, 0
2, 9960, Note_off_c, 1, 82, 0
2, 9960, Note_on_c, 1, 88, 127
2, 9960, Note_on_c, 1, 101, 127
2, 10000, Note_off_c, 1, 61, 0
2, 10000, Note_off_c, 1, 67, 0
2, 10000, Note_on_c, 1, 83, 127
2, 10000, Note_on_c, 1, 86, 127
2, 10000, Note_off_c, 1, 88, 0
2, 10000, Note_on_c, 1, 89, 127
2, 10000, Note_on_c, 1, 92, 127
2, 10000, Note_on_c, 1, 95, 127
2, 10000, Note_off_c, 1, 101, 0
2, 10040, Note_on_c, 1, 67, 127
2, 10040, Note_on_c, 1, 70, 127
2, 10040, Note_on_c, 1, 73, 127
2, 10040, Note_on_c, 1, 74, 127
2, 10040, Note_off_c, 1, 83, 0
2, 10040, Note_off_c, 1, 86, 0
2, 10040, Note_off_c, 1, 89, 0
2, 10040, Note_off_c, 1, 92, 0
2, 10040, Note_off_c, 1, 95, 0
2, 10080, Note_on_c, 1, 38, 127
2, 10080, Note_on_c, 1, 41, 127
2, 10080, Note_on_c, 1, 44, 127
2, 10080, Note_on_c, 1, 50, 127
2, 10080, Note_off_c, 1, 67, 0
2, 10080, Note_off_c, 1, 70, 0
2, 10080, Note_off_c, 1, 73, 0
2, 10080, Note_off_c, 1, 74, 0
2, 10080, Note_on_c, 1, 77, 127
2, 10080, Note_on_c, 1, 80, 127
2, 10080, Note_on_c, 1, 83, 127
2, 10080, Note_on_c, 1, 89, 127
2, 10120, Note_off_c, 1, 38, 0
2, 10120, Note_off_c, 1, 41, 0
2, 10120, Note_off_c, 1, 44, 0
2, 10120, Note_off_c, 1, 50, 0
2, 10120, Note_off_c, 1, 77, 0
2, 10120, Note_off_c, 1, 80, 0
2, 10120, Note_off_c, 1, 83, 0
2, 10120, Note_off_c, 1, 89, 0
2, 10160, Note_on_c, 1, 67, 127
2, 10160, Note_on_c, 1, 75, 127
2, 10160, Note_on_c, 1, 84, 127
2, 10160, Note_on_c, 1, 94, 127
2, 10560, Note_off_c, 1, 67, 0
2, 10560, Note_off_c, 1, 75, 0
2, 10560, Note_off_c, 1, 84, 0
2, 10560, Note_off_c, 1, 94, 0
2, 10600, Note_on_c, 1, 41, 127
2, 10600, Note_on_c, 1, 53, 127
2, 10600, Note_on_c, 1, 60, 127
2, 10600, Note_on_c, 1, 70, 127
2, 10600, Note_on_c, 1, 72, 127
2, 10640, Note_off_c, 1, 41, 0
2, 10640, Note_off_c, 1, 53, 0
2, 10640, Note_off_c, 1, 60, 0
2, 10640, Note_on_c, 1, 66, 127
2, 10640, Note_on_c, 1, 69, 127
2, 10640, Note_off_c, 1, 70, 0
2, 10640, Note_on_c, 1, 71, 127
2, 10640, Note_off_c, 1, 72, 0
2, 10640, Note_on_c, 1, 75, 127
2, 10640, Note_on_c, 1, 83, 127
2, 10680, Note_on_c, 1, 63, 127
2, 10680, Note_off_c, 1, 66, 0
2, 10680, Note_off_c, 1, 69, 0
2, 10680, Note_off_c, 1, 71, 0
2, 10680, Note_off_c, 1, 75, 0
2, 10680, Note_on_c, 1, 82, 127
2, 10720, Note_off_c, 1, 63, 0
2, 10720, Note_on_c, 1, 66, 127
2, 10720, Note_on_c, 1, 69, 127
2, 10720, Note_on_c, 1, 71, 127
2, 10720, Note_on_c, 1, 75, 127
2, 10720, Note_off_c, 1, 82, 0
2, 10800, Note_on_c, 1, 52, 127
2, 10800, Note_on_c, 1, 61, 127
2, 10800, Note_on_c, 1, 64, 127
2, 10800, Note_off_c, 1, 66, 0
2, 10800, Note_off_c, 1, 69, 0
2, 10800, Note_off_c, 1, 71, 0
2, 10800, Note_off_c, 1, 75, 0
2, 10800, Note_on_c, 1, 81, 127
2, 10800, Note_off_c, 1, 83, 0
2, 10800, Note_on_c, 1, 93, 127
2, 10840, Note_on_c, 1, 51, 127
2, 10840, Note_off_c, 1, 52, 0
2, 10840, Note_on_c, 1, 56, 127
2, 10840, Note_on_c, 1, 59, 127
2, 10840, Note_off_c, 1, 61, 0
2, 10840, Note_on_c, 1, 62, 127
2, 10840, Note_off_c, 1, 64, 0
2, 10840, Note_on_c, 1, 71, 127
2, 10840, Note_off_c, 1, 81, 0
2, 10840, Note_off_c, 1, 93, 0
2, 11040, Note_off_c, 1, 51, 0
2, 11040, Note_off_c, 1, 56, 0
2, 11040, Note_off_c, 1, 59, 0
2, 11040, Note_off_c, 1, 62, 0
2, 11040, Note_off_c, 1, 71, 0
2, 11080, Note_on_c, 1, 55, 127
2, 11080, Note_on_c, 1, 59, 127
2, 11080, Note_on_c, 1, 62, 127
2, 11080, Note_on_c, 1, 72, 127
2, 11080, Note_on_c, 1, 84, 127
2, 11200, Note_off_c, 1, 55, 0
2, 11200, Note_off_c, 1, 59, 0
2, 11200, Note_on_c, 1, 68, 127
2, 11200, Note_off_c, 1, 72, 0
2, 11200, Note_off_c, 1, 84, 0
2, 11200, Note_on_c, 1, 86, 127
2, 11200, Note_on_c, 1, 89, 127
2, 11240, Note_on_c, 1, 55, 127
2, 11240, Note_on_c, 1, 59, 127
2, 11240, Note_off_c, 1, 68, 0
2, 11240, Note_on_c, 1, 72, 127
2, 11240, Note_on_c, 1, 84, 127
2, 11240, Note_off_c, 1, 86, 0
2, 11240, Note_off_c, 1, 89, 0
2, 11280, Note_off_c, 1, 55, 0
2, 11280, Note_off_c, 1, 59, 0
2, 11280, Note_on_c, 1, 60, 127
2, 11280, Note_off_c, 1, 62, 0
2, 11280, Note_off_c, 1, 72, 0
2, 11280, Note_on_c, 1, 74, 127
2, 11280, Note_on_c, 1, 79, 127
2, 11280, Note_on_c, 1, 82, 127
2, 11280, Note_off_c, 1, 84, 0
2, 11280, Note_on_c, 1, 86, 127
2, 11320, Note_off_c, 1, 60, 0
2, 11320, Note_off_c, 1, 74, 0
2, 11320, Note_off_c, 1, 79, 0
2, 11320, Note_off_c, 1, 82, 0
2, 11320, Note_off_c, 1, 86, 0
2, 11360, Note_on_c, 1, 57, 127
2, 11360, Note_on_c, 1, 81, 127
2, 11360, Note_on_c, 1, 89, 127
2, 11520, Note_off_c, 1, 57, 0
2, 11520, Note_off_c, 1, 81, 0
2, 11520, Note_off_c, 1, 89, 0
2, 11560, Note_on_c, 1, 77, 127
2, 11600, Note_on_c, 1, 57, 127
2, 11600, Note_on_c, 1, 61, 127
2, 11600, Note_on_c, 1, 67, 127
2, 11600, Note_on_c, 1, 69, 127
2, 11600, Note_off_c, 1, 77, 0
2, 11600, Note_on_c, 1, 79, 127
2, 11640, Note_off_c, 1, 57, 0
2, 11640, Note_on_c, 1, 64, 127
2, 11640, Note_off_c, 1, 69, 0
2, 11640, Note_on_c, 1, 76, 127
2, 11640, Note_off_c, 1, 79, 0
2, 11680, Note_on_c, 1, 42, 127
2, 11680, Note_on_c, 1, 45, 127
2, 11680, Note_on_c, 1, 49, 127
2, 11680, Note_on_c, 1, 54, 127
2, 11680, Note_off_c, 1, 61, 0
2, 11680, Note_off_c, 1, 64, 0
2, 11680, Note_off_c, 1, 67, 0
2, 11680, Note_off_c, 1, 76, 0
2, 11680, Note_on_c, 1, 78, 127
2, 11680, Note_on_c, 1, 81, 127
2, 11720, Note_off_c, 1, 42, 0
2, 11720, Note_off_c, 1, 45, 0
2, 11720, Note_off_c, 1, 49, 0
2, 11720, Note_off_c, 1, 54, 0
2, 11720, Note_on_c, 1, 57, 127
2, 11720, Note_on_c, 1, 61, 127
2, 11720, Note_on_c, 1, 67, 127
2, 11720, Note_on_c, 1, 69, 127
2, 11720, Note_on_c, 1, 76, 127
2, 11720, Note_off_c, 1, 78, 0
2, 11720, Note_off_c, 1, 81, 0
2, 11760, Note_on_c, 1, 29, 127
2, 11760, Note_on_c, 1, 41, 127
2, 11760, Note_on_c, 1, 53, 127
2, 11760, Note_on_c, 1, 60, 127
2, 11760, Note_off_c, 1, 61, 0
2, 11760, Note_on_c, 1, 65, 127
2, 11760, Note_off_c, 1, 67, 0
2, 11760, Note_off_c, 1, 69, 0
2, 11760, Note_off_c, 1, 76, 0
2, 11800, Note_off_c, 1, 29, 0
2, 11800, Note_off_c, 1, 41, 0
2, 11800, Note_off_c, 1, 53, 0
2, 11800, Note_off_c, 1, 60, 0
2, 11800, Note_on_c, 1, 61, 127
2, 11800, Note_off_c, 1, 65, 0
2, 11800, Note_on_c, 1, 67, 127
2, 11800, Note_on_c, 1, 69, 127
2, 11800, Note_on_c, 1, 76, 127
2, 12040, Note_off_c, 1, 57, 0
2, 12040, Note_off_c, 1, 61, 0
2, 12040, Note_off_c, 1, 67, 0
2, 12040, Note_off_c, 1, 69, 0
2, 12040, Note_off_c, 1, 76, 0
2, 12080, Note_on_c, 1, 53, 127
2, 12080, Note_on_c, 1, 60, 127
2, 12080, Note_on_c, 1, 65, 127
2, 12080, Note_on_c, 1, 69, 127
2, 12080, Note_on_c, 1, 77, 127
2, 12520, Note_off_c, 1, 77, 0
2, 12560, Note_on_c, 1, 79, 127
2, 12720, Note_on_c, 1, 77, 127
2, 12720, Note_off_c, 1, 79, 0
2, 12760, Note_off_c, 1, 77, 0
2, 12800, Note_on_c, 1, 79, 127
2, 12880, Note_off_c, 1, 79, 0
2, 12920, Note_on_c, 1, 79, 127
2, 13000, Note_off_c, 1, 53, 0
2, 13000, Note_off_c, 1, 60, 0
2, 13000, Note_off_c, 1, 65, 0
2, 13000, Note_off_c, 1, 69, 0
2, 13000, Note_off_c, 1, 79, 0
2, 13040, Note_on_c, 1, 53, 127
2, 13040, Note_on_c, 1, 60, 127
2, 13040, Note_on_c, 1, 65, 127
2, 13040, Note_on_c, 1, 69, 127
2, 13040, Note_on_c, 1, 81, 127
2, 13360, Note_off_c, 1, 53, 0
2, 13360, Note_off_c, 1, 60, 0
2, 13360, Note_off_c, 1, 65, 0
2, 13360, Note_off_c, 1, 69, 0
2, 13360, Note_off_c, 1, 81, 0
2, 13400, Note_on_c, 1, 29, 127
2, 13400, Note_on_c, 1, 60, 127
2, 13400, Note_on_c, 1, 65, 127
2, 13400, Note_on_c, 1, 69, 127
2, 13400, Note_on_c, 1, 72, 127
2, 13440, Note_off_c, 1, 29, 0
2, 13440, Note_on_c, 1, 53, 127
2, 13440, Note_off_c, 1, 72, 0
2, 13440, Note_on_c, 1, 81, 127
2, 13520, Note_off_c, 1, 53, 0
2, 13520, Note_off_c, 1, 60, 0
2, 13520, Note_off_c, 1, 65, 0
2, 13520, Note_off_c, 1, 69, 0
2, 13520, Note_off_c, 1, 81, 0
2, 13520, Note_on_c, 1, 84, 127
2, 13520, Note_on_c, 1, 86, 127
2, 13560, Note_on_c, 1, 45, 127
2, 13560, Note_on_c, 1, 54, 127
2, 13560, Note_on_c, 1, 57, 127
2, 13560, Note_on_c, 1, 63, 127
2, 13560, Note_on_c, 1, 69, 127
2, 13560, Note_on_c, 1, 72, 127
2, 13560, Note_on_c, 1, 75, 127
2, 13560, Note_off_c, 1, 84, 0
2, 13560, Note_off_c, 1, 86, 0
2, 13960, Note_off_c, 1, 57, 0
2, 14000, Note_on_c, 1, 57, 127
2, 14200, Note_off_c, 1, 57, 0
2, 14240, Note_on_c, 1, 57, 127
2, 14320, Note_off_c, 1, 57, 0
2, 14480, Note_on_c, 1, 57, 127
2, 14640, Note_off_c, 1, 57, 0
2, 14680, Note_on_c, 1, 57, 127
2, 14800, Note_off_c, 1, 57, 0
2, 14840, Note_off_c, 1, 54, 0
2, 14840, Note_on_c, 1, 57, 127
2, 14840, Note_off_c, 1, 63, 0
2, 14840, Note_on_c, 1, 64, 127
2, 14840, Note_on_c, 1, 67, 127
2, 14840, Note_off_c, 1, 69, 0
2, 14840, Note_on_c, 1, 71, 127
2, 14840, Note_off_c, 1, 72, 0
2, 14840, Note_off_c, 1, 75, 0
2, 14880, Note_off_c, 1, 45, 0
2, 14880, Note_on_c, 1, 47, 127
2, 14880, Note_on_c, 1, 54, 127
2, 14880, Note_off_c, 1, 57, 0
2, 14880, Note_on_c, 1, 62, 127
2, 14880, Note_off_c, 1, 64, 0
2, 14880, Note_on_c, 1, 66, 127
2, 14880, Note_off_c, 1, 67, 0
2, 14880, Note_on_c, 1, 70, 127
2, 14880, Note_off_c, 1, 71, 0
2, 14880, Note_on_c, 1, 74, 127
2, 14920, Note_on_c, 1, 33, 127
2, 14920, Note_on_c, 1, 45, 127
2, 14920, Note_off_c, 1, 47, 0
2, 14920, Note_off_c, 1, 54, 0
2, 14920, Note_on_c, 1, 60, 127
2, 14920, Note_off_c, 1, 62, 0
2, 14920, Note_on_c, 1, 64, 127
2, 14920, Note_off_c, 1, 70, 0
2, 14920, Note_on_c, 1, 72, 127
2, 14920, Note_off_c, 1, 74, 0
2, 15080, Note_off_c, 1, 33, 0
2, 15080, Note_on_c, 1, 49, 127
2, 15080, Note_on_c, 1, 52, 127
2, 15080, Note_on_c, 1, 58, 127
2, 15080, Note_off_c, 1, 60, 0
2, 15080, Note_on_c, 1, 61, 127
2, 15080, Note_off_c, 1, 66, 0
2, 15080, Note_on_c, 1, 67, 127
2, 15080, Note_off_c, 1, 72, 0
2, 15120, Note_off_c, 1, 45, 0
2, 15120, Note_off_c, 1, 49, 0
2, 15120, Note_off_c, 1, 52, 0
2, 15120, Note_off_c, 1, 58, 0
2, 15120, Note_off_c, 1, 61, 0
2, 15120, Note_off_c, 1, 64, 0
2, 15120, Note_off_c, 1, 67, 0
2, 15160, Note_on_c, 1, 60, 127
2, 15160, Note_on_c, 1, 65, 127
2, 15160, Note_on_c, 1, 70, 127
2, 15160, Note_on_c, 1, 72, 127
2, 15160, Note_on_c, 1, 96, 127
2, 15200, Note_off_c, 1, 60, 0
2, 15200, Note_on_c, 1, 64, 127
2, 15200, Note_off_c, 1, 65, 0
2, 15200, Note_on_c, 1, 67, 127
2, 15200, Note_on_c, 1, 69, 127
2, 15200, Note_off_c, 1, 70, 0
2, 15200, Note_off_c, 1, 72, 0
2, 15200, Note_on_c, 1, 95, 127
2, 15200, Note_off_c, 1, 96, 0
2, 15240, Note_off_c, 1, 64, 0
2, 15240, Note_off_c, 1, 67, 0
2, 15240, Note_off_c, 1, 69, 0
2, 15240, Note_off_c, 1, 95, 0
2, 15280, Note_on_c, 1, 51, 127
2, 15280, Note_on_c, 1, 75, 127
2, 15280, Note_on_c, 1, 83, 127
2, 15280, Note_on_c, 1, 87, 127
2, 15320, Note_off_c, 1, 51, 0
2, 15320, Note_on_c, 1, 63, 127
2, 15320, Note_on_c, 1, 71, 127
2, 15320, Note_off_c, 1, 75, 0
2, 15320, Note_on_c, 1, 78, 127
2, 15320, Note_off_c, 1, 87, 0
2, 15320, Note_on_c, 1, 91, 127
2, 15360, Note_on_c, 1, 46, 127
2, 15360, Note_on_c, 1, 62, 127
2, 15360, Note_off_c, 1, 63, 0
2, 15360, Note_on_c, 1, 65, 127
2, 15360, Note_on_c, 1, 68, 127
2, 15360, Note_off_c, 1, 71, 0
2, 15360, Note_on_c, 1, 72, 127
2, 15360, Note_off_c, 1, 78, 0
2, 15360, Note_off_c, 1, 83, 0
2, 15360, Note_off_c, 1, 91, 0
2, 15400, Note_on_c, 1, 42, 127
2, 15400, Note_off_c, 1, 46, 0
2, 15400, Note_on_c, 1, 47, 127
2, 15400, Note_on_c, 1, 54, 127
2, 15400, Note_off_c, 1, 62, 0
2, 15400, Note_off_c, 1, 65, 0
2, 15400, Note_off_c, 1, 68, 0
2, 15400, Note_on_c, 1, 70, 127
2, 15400, Note_off_c, 1, 72, 0
2, 15400, Note_on_c, 1, 73, 127
2, 15400, Note_on_c, 1, 74, 127
2, 15400, Note_on_c, 1, 80, 127
2, 15400, Note_on_c, 1, 86, 127
2, 15440, Note_off_c, 1, 42, 0
2, 15440, Note_off_c, 1, 47, 0
2, 15440, Note_off_c, 1, 54, 0
2, 15440, Note_off_c, 1, 70, 0
2, 15440, Note_off_c, 1, 73, 0
2, 15440, Note_off_c, 1, 74, 0
2, 15440, Note_off_c, 1, 80, 0
2, 15440, Note_off_c, 1, 86, 0
2, 15480, Note_on_c, 1, 45, 127
2, 15480, Note_on_c, 1, 77, 127
2, 15480, Note_on_c, 1, 83, 127
2, 15480, Note_on_c, 1, 89, 127
2, 15520, Note_on_c, 1, 44, 127
2, 15520, Note_off_c, 1, 45, 0
2, 15520, Note_on_c, 1, 47, 127
2, 15520, Note_on_c, 1, 52, 127
2, 15520, Note_on_c, 1, 56, 127
2, 15520, Note_off_c, 1, 77, 0
2, 15520, Note_off_c, 1, 89, 0
2, 15520, Note_on_c, 1, 95, 127
2, 15560, Note_on_c, 1, 35, 127
2, 15560, Note_off_c, 1, 44, 0
2, 15560, Note_on_c, 1, 51, 127
2, 15560, Note_off_c, 1, 52, 0
2, 15560, Note_on_c, 1, 54, 127
2, 15560, Note_off_c, 1, 56, 0
2, 15560, Note_on_c, 1, 57, 127
2, 15560, Note_on_c, 1, 59, 127
2, 15560, Note_off_c, 1, 83, 0
2, 15560, Note_off_c, 1, 95, 0
2, 15600, Note_on_c, 1, 42, 127
2, 15600, Note_off_c, 1, 51, 0
2, 15600, Note_on_c, 1, 52, 127
2, 15600, Note_off_c, 1, 54, 0
2, 15600, Note_off_c, 1, 57, 0
2, 15600, Note_on_c, 1, 62, 127
2, 15600, Note_on_c, 1, 64, 127
2, 15600, Note_on_c, 1, 66, 127
2, 15600, Note_on_c, 1, 71, 127
2, 15640, Note_off_c, 1, 35, 0
2, 15640, Note_off_c, 1, 42, 0
2, 15640, Note_off_c, 1, 47, 0
2, 15640, Note_off_c, 1, 52, 0
2, 15640, Note_on_c, 1, 58, 127
2, 15640, Note_off_c, 1, 59, 0
2, 15640, Note_on_c, 1, 61, 127
2, 15640, Note_off_c, 1, 62, 0
2, 15640, Note_on_c, 1, 65, 127
2, 15640, Note_off_c, 1, 66, 0
2, 15640, Note_off_c, 1, 71, 0
2, 15640, Note_on_c, 1, 73, 127
2, 15640, Note_on_c, 1, 76, 127
2, 15640, Note_on_c, 1, 77, 127
2, 15680, Note_off_c, 1, 58, 0
2, 15680, Note_off_c, 1, 61, 0
2, 15680, Note_off_c, 1, 64, 0
2, 15680, Note_off_c, 1, 65, 0
2, 15680, Note_on_c, 1, 68, 127
2, 15680, Note_off_c, 1, 73, 0
2, 15680, Note_off_c, 1, 76, 0
2, 15680, Note_off_c, 1, 77, 0
2, 15680, Note_on_c, 1, 84, 127
2, 15680, Note_on_c, 1, 87, 127
2, 15680, Note_on_c, 1, 92, 127
2, 15680, Note_on_c, 1, 96, 127
2, 15720, Note_on_c, 1, 58, 127
2, 15720, Note_on_c, 1, 61, 127
2, 15720, Note_on_c, 1, 64, 127
2, 15720, Note_on_c, 1, 65, 127
2, 15720, Note_off_c, 1, 68, 0
2, 15720, Note_on_c, 1, 73, 127
2, 15720, Note_on_c, 1, 76, 127
2, 15720, Note_on_c, 1, 77, 127
2, 15720, Note_off_c, 1, 84, 0
2, 15720, Note_off_c, 1, 87, 0
2, 15720, Note_off_c, 1, 92, 0
2, 15720, Note_off_c, 1, 96, 0
2, 15800, Note_on_c, 1, 32, 127
2, 15800, Note_on_c, 1, 40, 127
2, 15800, Note_on_c, 1, 44, 127
2, 15800, Note_off_c, 1, 58, 0
2, 15800, Note_off_c, 1, 61, 0
2, 15800, Note_off_c, 1, 64, 0
2, 15800, Note_off_c, 1, 65, 0
2, 15800, Note_on_c, 1, 68, 127
2, 15800, Note_off_c, 1, 73, 0
2, 15800, Note_off_c, 1, 76, 0
2, 15800, Note_off_c, 1, 77, 0
2, 15840, Note_off_c, 1, 32, 0
2, 15840, Note_off_c, 1, 40, 0
2, 15840, Note_off_c, 1, 44, 0
2, 15840, Note_on_c, 1, 51, 127
2, 15840, Note_off_c, 1, 68, 0
2, 15840, Note_on_c, 1, 80, 127
2, 15840, Note_on_c, 1, 84, 127
2, 15840, Note_on_c, 1, 87, 127
2, 15840, Note_on_c, 1, 92, 127
2, 15880, Note_off_c, 1, 51, 0
2, 15880, Note_on_c, 1, 55, 127
2, 15880, Note_on_c, 1, 62, 127
2, 15880, Note_on_c, 1, 65, 127
2, 15880, Note_on_c, 1, 71, 127
2, 15880, Note_off_c, 1, 80, 0
2, 15880, Note_off_c, 1, 84, 0
2, 15880, Note_off_c, 1, 87, 0
2, 15920, Note_off_c, 1, 55, 0
2, 15920, Note_off_c, 1, 62, 0
2, 15920, Note_on_c, 1, 63, 127
2, 15920, Note_off_c, 1, 65, 0
2, 15920, Note_off_c, 1, 71, 0
2, 15920, Note_on_c, 1, 72, 127
2, 15920, Note_on_c, 1, 80, 127
2, 15920, Note_on_c, 1, 87, 127
2, 15920, Note_on_c, 1, 89, 127
2, 15920, Note_off_c, 1, 92, 0
2, 15960, Note_on_c, 1, 47, 127
2, 15960, Note_on_c, 1, 53, 127
2, 15960, Note_on_c, 1, 56, 127
2, 15960, Note_on_c, 1, 61, 127
2, 15960, Note_off_c, 1, 63, 0
2, 15960, Note_off_c, 1, 72, 0
2, 15960, Note_on_c, 1, 73, 127
2, 15960, Note_off_c, 1, 80, 0
2, 15960, Note_off_c, 1, 87, 0
2, 15960, Note_off_c, 1, 89, 0
2, 16000, Note_off_c, 1, 47, 0
2, 16000, Note_on_c, 1, 51, 127
2, 16000, Note_off_c, 1, 53, 0
2, 16000, Note_off_c, 1, 56, 0
2, 16000, Note_on_c, 1, 59, 127
2, 16000, Note_off_c, 1, 61, 0
2, 16000, Note_on_c, 1, 63, 127
2, 16000, Note_on_c, 1, 69, 127
2, 16000, Note_on_c, 1, 71, 127
2, 16000, Note_off_c, 1, 73, 0
2, 16040, Note_on_c, 1, 44, 127
2, 16040, Note_off_c, 1, 51, 0
2, 16040, Note_on_c, 1, 54, 127
2, 16040, Note_off_c, 1, 59, 0
2, 16040, Note_on_c, 1, 60, 127
2, 16040, Note_off_c, 1, 63, 0
2, 16040, Note_on_c, 1, 64, 127
2, 16040, Note_off_c, 1, 69, 0
2, 16040, Note_off_c, 1, 71, 0
2, 16080, Note_off_c, 1, 44, 0
2, 16080, Note_off_c, 1, 54, 0
2, 16080, Note_on_c, 1, 57, 127
2, 16080, Note_on_c, 1, 63, 127
2, 16080, Note_off_c, 1, 64, 0
2, 16080, Note_on_c, 1, 72, 127
2, 16080, Note_on_c, 1, 78, 127
2, 16080, Note_on_c, 1, 83, 127
2, 16120, Note_off_c, 1, 57, 0
2, 16120, Note_off_c, 1, 60, 0
2, 16120, Note_off_c, 1, 63, 0
2, 16120, Note_off_c, 1, 72, 0
2, 16120, Note_off_c, 1, 78, 0
2, 16120, Note_off_c, 1, 83, 0
2, 16160, Note_on_c, 1, 52, 127
2, 16160, Note_on_c, 1, 55, 127
2, 16160, Note_on_c, 1, 58, 127
2, 16160, Note_on_c, 1, 61, 127
2, 16160, Note_on_c, 1, 70, 127
2, 17200, Note_on_c, 1, 29, 127
2, 17200, Note_on_c, 1, 40, 127
2, 17200, Note_on_c, 1, 41, 127
2, 17200, Note_on_c, 1, 48, 127
2, 17200, Note_on_c, 1, 53, 127
2, 17200, Note_off_c, 1, 55, 0
2, 17200, Note_off_c, 1, 58, 0
2, 17200, Note_on_c, 1, 60, 127
2, 17200, Note_off_c, 1, 61, 0
2, 17200, Note_on_c, 1, 69, 127
2, 17200, Note_off_c, 1, 70, 0
2, 17200, Note_on_c, 1, 72, 127
2, 17240, Note_off_c, 1, 29, 0
2, 17240, Note_off_c, 1, 40, 0
2, 17240, Note_off_c, 1, 41, 0
2, 17240, Note_off_c, 1, 48, 0
2, 17240, Note_off_c, 1, 52, 0
2, 17240, Note_off_c, 1, 53, 0
2, 17240, Note_off_c, 1, 60, 0
2, 17240, Note_off_c, 1, 69, 0
2, 17240, Note_off_c, 1, 72, 0
2, 17280, Note_on_c, 1, 36, 127
2, 17280, Note_on_c, 1, 62, 127
2, 17280, Note_on_c, 1, 70, 127
2, 17320, Note_off_c, 1, 36, 0
2, 17320, Note_on_c, 1, 49, 127
2, 17320, Note_on_c, 1, 55, 127
2, 17320, Note_on_c, 1, 61, 127
2, 17320, Note_off_c, 1, 62, 0
2, 17320, Note_on_c, 1, 65, 127
2, 17320, Note_on_c, 1, 77, 127
2, 17360, Note_off_c, 1, 49, 0
2, 17360, Note_on_c, 1, 58, 127
2, 17360, Note_off_c, 1, 61, 0
2, 17360, Note_off_c, 1, 65, 0
2, 17360, Note_off_c, 1, 70, 0
2, 17360, Note_on_c, 1, 80, 127
2, 17400, Note_off_c, 1, 58, 0
2, 17400, Note_on_c, 1, 62, 127
2, 17400, Note_on_c, 1, 68, 127
2, 17400, Note_on_c, 1, 71, 127
2, 17400, Note_off_c, 1, 77, 0
2, 17400, Note_off_c, 1, 80, 0
2, 17440, Note_off_c, 1, 55, 0
2, 17440, Note_off_c, 1, 62, 0
2, 17440, Note_off_c, 1, 68, 0
2, 17440, Note_off_c, 1, 71, 0
2, 17480, Note_on_c, 1, 52, 127
2, 17480, Note_on_c, 1, 64, 127
2, 17480, Note_on_c, 1, 66, 127
2, 17480, Note_on_c, 1, 68, 127
2, 17520, Note_off_c, 1, 52, 0
2, 17520, Note_on_c, 1, 63, 127
2, 17520, Note_off_c, 1, 64, 0
2, 17520, Note_off_c, 1, 66, 0
2, 17520, Note_on_c, 1, 67, 127
2, 17520, Note_off_c, 1, 68, 0
2, 17520, Note_on_c, 1, 75, 127
2, 17520, Note_on_c, 1, 79, 127
2, 17520, Note_on_c, 1, 82, 127
2, 17520, Note_on_c, 1, 87, 127
2, 17600, Note_off_c, 1, 63, 0
2, 17600, Note_off_c, 1, 67, 0
2, 17600, Note_off_c, 1, 75, 0
2, 17600, Note_off_c, 1, 79, 0
2, 17600, Note_off_c, 1, 82, 0
2, 17600, Note_off_c, 1, 87, 0
2, 17640, Note_on_c, 1, 63, 127
2, 17640, Note_on_c, 1, 67, 127
2, 17640, Note_on_c, 1, 75, 127
2, 17640, Note_on_c, 1, 79, 127
2, 17640, Note_on_c, 1, 82, 127
2, 17640, Note_on_c, 1, 87, 127
2, 17920, Note_off_c, 1, 63, 0
2, 17920, Note_off_c, 1, 67, 0
2, 17920, Note_off_c, 1, 75, 0
2, 17920, Note_off_c, 1, 79, 0
2, 17920, Note_off_c, 1, 82, 0
2, 17920, Note_off_c, 1, 87, 0
2, 17960, Note_on_c, 1, 48, 127
2, 17960, Note_on_c, 1, 55, 127
2, 17960, Note_on_c, 1, 63, 127
2, 17960, Note_on_c, 1, 87, 127
2, 17960, Note_on_c, 1, 99, 127
2, 18000, Note_on_c, 1, 34, 127
2, 18000, Note_on_c, 1, 39, 127
2, 18000, Note_on_c, 1, 46, 127
2, 18000, Note_off_c, 1, 48, 0
2, 18000, Note_off_c, 1, 55, 0
2, 18000, Note_off_c, 1, 63, 0
2, 18000, Note_on_c, 1, 82, 127
2, 18000, Note_on_c, 1, 90, 127
2, 18000, Note_on_c, 1, 94, 127
2, 18000, Note_off_c, 1, 99, 0
2, 18040, Note_off_c, 1, 34, 0
2, 18040, Note_off_c, 1, 39, 0
2, 18040, Note_off_c, 1, 46, 0
2, 18040, Note_on_c, 1, 59, 127
2, 18040, Note_on_c, 1, 62, 127
2, 18040, Note_on_c, 1, 65, 127
2, 18040, Note_on_c, 1, 74, 127
2, 18040, Note_off_c, 1, 82, 0
2, 18040, Note_on_c, 1, 86, 127
2, 18040, Note_off_c, 1, 87, 0
2, 18040, Note_off_c, 1, 90, 0
2, 18040, Note_off_c, 1, 94, 0
2, 18080, Note_on_c, 1, 34, 127
2, 18080, Note_on_c, 1, 39, 127
2, 18080, Note_on_c, 1, 46, 127
2, 18080, Note_off_c, 1, 59, 0
2, 18080, Note_off_c, 1, 62, 0
2, 18080, Note_off_c, 1, 65, 0
2, 18080, Note_off_c, 1, 74, 0
2, 18080, Note_on_c, 1, 82, 127
2, 18080, Note_off_c, 1, 86, 0
2, 18080, Note_on_c, 1, 87, 127
2, 18080, Note_on_c, 1, 90, 127
2, 18080, Note_on_c, 1, 94, 127
2, 18120, Note_off_c, 1, 34, 0
2, 18120, Note_on_c, 1, 42, 127
2, 18120, Note_on_c, 1, 51, 127
2, 18120, Note_on_c, 1, 78, 127
2, 18120, Note_off_c, 1, 82, 0
2, 18120, Note_off_c, 1, 87, 0
2, 18120, Note_off_c, 1, 94, 0
2, 18160, Note_off_c, 1, 39, 0
2, 18160, Note_off_c, 1, 42, 0
2, 18160, Note_off_c, 1, 46, 0
2, 18160, Note_off_c, 1, 51, 0
2, 18160, Note_off_c, 1, 78, 0
2, 18160, Note_off_c, 1, 90, 0
2, 18200, Note_on_c, 1, 48, 127
2, 18200, Note_on_c, 1, 55, 127
2, 18200, Note_on_c, 1, 62, 127
2, 18200, Note_on_c, 1, 96, 127
2, 18240, Note_on_c, 1, 41, 127
2, 18240, Note_on_c, 1, 46, 127
2, 18240, Note_off_c, 1, 48, 0
2, 18240, Note_on_c, 1, 50, 127
2, 18240, Note_off_c, 1, 55, 0
2, 18240, Note_off_c, 1, 62, 0
2, 18240, Note_on_c, 1, 72, 127
2, 18240, Note_off_c, 1, 96, 0
2, 18280, Note_off_c, 1, 41, 0
2, 18280, Note_off_c, 1, 46, 0
2, 18280, Note_off_c, 1, 50, 0
2, 18280, Note_on_c, 1, 56, 127
2, 18280, Note_on_c, 1, 63, 127
2, 18280, Note_on_c, 1, 68, 127
2, 18280, Note_off_c, 1, 72, 0
2, 18280, Note_on_c, 1, 73, 127
2, 18280, Note_on_c, 1, 77, 127
2, 18320, Note_on_c, 1, 48, 127
2, 18320, Note_on_c, 1, 50, 127
2, 18320, Note_off_c, 1, 56, 0
2, 18320, Note_on_c, 1, 57, 127
2, 18320, Note_on_c, 1, 60, 127
2, 18320, Note_off_c, 1, 63, 0
2, 18320, Note_on_c, 1, 65, 127
2, 18320, Note_off_c, 1, 68, 0
2, 18320, Note_off_c, 1, 73, 0
2, 18320, Note_off_c, 1, 77, 0
2, 18360, Note_on_c, 1, 39, 127
2, 18360, Note_on_c, 1, 42, 127
2, 18360, Note_on_c, 1, 44, 127
2, 18360, Note_off_c, 1, 50, 0
2, 18360, Note_off_c, 1, 57, 0
2, 18360, Note_off_c, 1, 60, 0
2, 18360, Note_off_c, 1, 65, 0
2, 18400, Note_off_c, 1, 39, 0
2, 18400, Note_off_c, 1, 42, 0
2, 18400, Note_off_c, 1, 44, 0
2, 18400, Note_off_c, 1, 48, 0
2, 18440, Note_on_c, 1, 39, 127
2, 18440, Note_on_c, 1, 44, 127
2, 18440, Note_on_c, 1, 59, 127
2, 18440, Note_on_c, 1, 71, 127
2, 18480, Note_off_c, 1, 39, 0
2, 18480, Note_off_c, 1, 44, 0
2, 18480, Note_off_c, 1, 59, 0
2, 18480, Note_on_c, 1, 65, 127
2, 18480, Note_off_c, 1, 71, 0
2, 18480, Note_on_c, 1, 98, 127
2, 18480, Note_on_c, 1, 101, 127
2, 18520, Note_on_c, 1, 63, 127
2, 18520, Note_on_c, 1, 64, 127
2, 18520, Note_off_c, 1, 65, 0
2, 18520, Note_on_c, 1, 67, 127
2, 18520, Note_on_c, 1, 69, 127
2, 18520, Note_on_c, 1, 76, 127
2, 18520, Note_on_c, 1, 79, 127
2, 18520, Note_on_c, 1, 81, 127
2, 18520, Note_off_c, 1, 98, 0
2, 18520, Note_off_c, 1, 101, 0
2, 18560, Note_on_c, 1, 55, 127
2, 18560, Note_off_c, 1, 63, 0
2, 18560, Note_off_c, 1, 64, 0
2, 18560, Note_off_c, 1, 67, 0
2, 18560, Note_off_c, 1, 69, 0
2, 18560, Note_off_c, 1, 76, 0
2, 18560, Note_off_c, 1, 79, 0
2, 18560, Note_off_c, 1, 81, 0
2, 18560, Note_on_c, 1, 86, 127
2, 18560, Note_on_c, 1, 98, 127
2, 18600, Note_off_c, 1, 55, 0
2, 18600, Note_on_c, 1, 56, 127
2, 18600, Note_on_c, 1, 60, 127
2, 18600, Note_off_c, 1, 86, 0
2, 18600, Note_on_c, 1, 87, 127
2, 18600, Note_off_c, 1, 98, 0
2, 18600, Note_on_c, 1, 99, 127
2, 18640, Note_on_c, 1, 47, 127
2, 18640, Note_on_c, 1, 50, 127
2, 18640, Note_off_c, 1, 56, 0
2, 18640, Note_off_c, 1, 60, 0
2, 18640, Note_on_c, 1, 79, 127
2, 18640, Note_off_c, 1, 87, 0
2, 18640, Note_on_c, 1, 91, 127
2, 18640, Note_off_c, 1, 99, 0
2, 18680, Note_off_c, 1, 47, 0
2, 18680, Note_off_c, 1, 50, 0
2, 18680, Note_on_c, 1, 62, 127
2, 18680, Note_on_c, 1, 65, 127
2, 18680, Note_on_c, 1, 73, 127
2, 18680, Note_on_c, 1, 78, 127
2, 18680, Note_off_c, 1, 79, 0
2, 18680, Note_on_c, 1, 85, 127
2, 18680, Note_off_c, 1, 91, 0
2, 18720, Note_on_c, 1, 31, 127
2, 18720, Note_on_c, 1, 36, 127
2, 18720, Note_on_c, 1, 38, 127
2, 18720, Note_on_c, 1, 55, 127
2, 18720, Note_off_c, 1, 62, 0
2, 18720, Note_off_c, 1, 65, 0
2, 18720, Note_off_c, 1, 73, 0
2, 18720, Note_off_c, 1, 78, 0
2, 18720, Note_off_c, 1, 85, 0
2, 18760, Note_off_c, 1, 31, 0
2, 18760, Note_off_c, 1, 36, 0
2, 18760, Note_off_c, 1, 38, 0
2, 18760, Note_on_c, 1, 42, 127
2, 18760, Note_on_c, 1, 54, 127
2, 18760, Note_off_c, 1, 55, 0
2, 18760, Note_on_c, 1, 61, 127
2, 18760, Note_on_c, 1, 76, 127
2, 18760, Note_on_c, 1, 88, 127
2, 18800, Note_off_c, 1, 42, 0
2, 18800, Note_off_c, 1, 54, 0
2, 18800, Note_off_c, 1, 61, 0
2, 18800, Note_off_c, 1, 76, 0
2, 18800, Note_off_c, 1, 88, 0
2, 18840, Note_on_c, 1, 46, 127
2, 18840, Note_on_c, 1, 55, 127
2, 18840, Note_on_c, 1, 61, 127
2, 18840, Note_on_c, 1, 63, 127
2, 18840, Note_on_c, 1, 67, 127
2, 18840, Note_on_c, 1, 70, 127
2, 18880, Note_off_c, 1, 46, 0
2, 18880, Note_on_c, 1, 51, 127
2, 18880, Note_off_c, 1, 55, 0
2, 18880, Note_on_c, 1, 58, 127
2, 18880, Note_off_c, 1, 61, 0
2, 18880, Note_off_c, 1, 63, 0
2, 18880, Note_off_c, 1, 67, 0
2, 18880, Note_off_c, 1, 70, 0
2, 18880, Note_on_c, 1, 72, 127
2, 18880, Note_on_c, 1, 84, 127
2, 18920, Note_on_c, 1, 37, 127
2, 18920, Note_off_c, 1, 51, 0
2, 18920, Note_off_c, 1, 58, 0
2, 18920, Note_on_c, 1, 68, 127
2, 18920, Note_off_c, 1, 72, 0
2, 18920, Note_on_c, 1, 75, 127
2, 18920, Note_on_c, 1, 83, 127
2, 18920, Note_off_c, 1, 84, 0
2, 18960, Note_off_c, 1, 37, 0
2, 18960, Note_on_c, 1, 59, 127
2, 18960, Note_off_c, 1, 68, 0
2, 18960, Note_on_c, 1, 70, 127
2, 18960, Note_on_c, 1, 71, 127
2, 18960, Note_on_c, 1, 73, 127
2, 18960, Note_on_c, 1, 74, 127
2, 18960, Note_off_c, 1, 75, 0
2, 18960, Note_off_c, 1, 83, 0
2, 19000, Note_on_c, 1, 51, 127
2, 19000, Note_on_c, 1, 54, 127
2, 19000, Note_off_c, 1, 70, 0
2, 19000, Note_off_c, 1, 71, 0
2, 19000, Note_off_c, 1, 73, 0
2, 19000, Note_off_c, 1, 74, 0
2, 19000, Note_on_c, 1, 95, 127
2, 19040, Note_on_c, 1, 39, 127
2, 19040, Note_on_c, 1, 45, 127
2, 19040, Note_on_c, 1, 47, 127
2, 19040, Note_off_c, 1, 54, 0
2, 19040, Note_on_c, 1, 57, 127
2, 19040, Note_on_c, 1, 73, 127
2, 19040, Note_on_c, 1, 85, 127
2, 19040, Note_off_c, 1, 95, 0
2, 19080, Note_off_c, 1, 39, 0
2, 19080, Note_off_c, 1, 45, 0
2, 19080, Note_off_c, 1, 47, 0
2, 19080, Note_on_c, 1, 49, 127
2, 19080, Note_off_c, 1, 51, 0
2, 19080, Note_on_c, 1, 56, 127
2, 19080, Note_off_c, 1, 57, 0
2, 19080, Note_off_c, 1, 73, 0
2, 19080, Note_on_c, 1, 82, 127
2, 19080, Note_off_c, 1, 85, 0
2, 19120, Note_on_c, 1, 48, 127
2, 19120, Note_off_c, 1, 49, 0
2, 19120, Note_on_c, 1, 51, 127
2, 19120, Note_off_c, 1, 59, 0
2, 19120, Note_on_c, 1, 60, 127
2, 19120, Note_on_c, 1, 68, 127
2, 19120, Note_on_c, 1, 80, 127
2, 19120, Note_off_c, 1, 82, 0
2, 19160, Note_off_c, 1, 48, 0
2, 19160, Note_on_c, 1, 49, 127
2, 19160, Note_off_c, 1, 51, 0
2, 19160, Note_on_c, 1, 52, 127
2, 19160, Note_off_c, 1, 60, 0
2, 19160, Note_on_c, 1, 61, 127
2, 19160, Note_off_c, 1, 68, 0
2, 19160, Note_on_c, 1, 85, 127
2, 19160, Note_on_c, 1, 88, 127
2, 19160, Note_on_c, 1, 92, 127
2, 19200, Note_off_c, 1, 52, 0
2, 19200, Note_off_c, 1, 56, 0
2, 19200, Note_on_c, 1, 77, 127
2, 19200, Note_off_c, 1, 80, 0
2, 19200, Note_off_c, 1, 85, 0
2, 19200, Note_off_c, 1, 88, 0
2, 19200, Note_on_c, 1, 89, 127
2, 19200, Note_off_c, 1, 92, 0
2, 19240, Note_off_c, 1, 49, 0
2, 19240, Note_off_c, 1, 61, 0
2, 19240, Note_off_c, 1, 77, 0
2, 19240, Note_off_c, 1, 89, 0
2, 19280, Note_on_c, 1, 63, 127
2, 19280, Note_on_c, 1, 91, 127
2, 19280, Note_on_c, 1, 94, 127
2, 19280, Note_on_c, 1, 98, 127
2, 19320, Note_on_c, 1, 32, 127
2, 19320, Note_on_c, 1, 56, 127
2, 19320, Note_on_c, 1, 59, 127
2, 19320, Note_off_c, 1, 63, 0
2, 19320, Note_off_c, 1, 91, 0
2, 19320, Note_off_c, 1, 94, 0
2, 19320, Note_off_c, 1, 98, 0
2, 19360, Note_off_c, 1, 32, 0
2, 19360, Note_off_c, 1, 56, 0
2, 19360, Note_off_c, 1, 59, 0
2, 19360, Note_on_c, 1, 64, 127
2, 19360, Note_on_c, 1, 67, 127
2, 19360, Note_on_c, 1, 71, 127
2, 19360, Note_on_c, 1, 81, 127
2, 19360, Note_on_c, 1, 85, 127
2, 19360, Note_on_c, 1, 88, 127
2, 19400, Note_on_c, 1, 30, 127
2, 19400, Note_on_c, 1, 35, 127
2, 19400, Note_on_c, 1, 37, 127
2, 19400, Note_off_c, 1, 64, 0
2, 19400, Note_off_c, 1, 67, 0
2, 19400, Note_off_c, 1, 71, 0
2, 19400, Note_on_c, 1, 72, 127
2, 19400, Note_off_c, 1, 81, 0
2, 19400, Note_off_c, 1, 85, 0
2, 19400, Note_off_c, 1, 88, 0
2, 19440, Note_off_c, 1, 30, 0
2, 19440, Note_off_c, 1, 35, 0
2, 19440, Note_off_c, 1, 37, 0
2, 19440, Note_on_c, 1, 64, 127
2, 19440, Note_on_c, 1, 67, 127
2, 19440, Note_off_c, 1, 72, 0
2, 19440, Note_on_c, 1, 83, 127
2, 19440, Note_on_c, 1, 88, 127
2, 19480, Note_off_c, 1, 64, 0
2, 19480, Note_off_c, 1, 67, 0
2, 19480, Note_on_c, 1, 75, 127
2, 19480, Note_off_c, 1, 83, 0
2, 19480, Note_off_c, 1, 88, 0
2, 19520, Note_on_c, 1, 44, 127
2, 19520, Note_on_c, 1, 69, 127
2, 19520, Note_on_c, 1, 73, 127
2, 19520, Note_off_c, 1, 75, 0
2, 19520, Note_on_c, 1, 78, 127
2, 19560, Note_on_c, 1, 39, 127
2, 19560, Note_off_c, 1, 44, 0
2, 19560, Note_on_c, 1, 51, 127
2, 19560, Note_off_c, 1, 69, 0
2, 19560, Note_on_c, 1, 71, 127
2, 19560, Note_off_c, 1, 73, 0
2, 19560, Note_on_c, 1, 82, 127
2, 19600, Note_off_c, 1, 39, 0
2, 19600, Note_on_c, 1, 44, 127
2, 19600, Note_off_c, 1, 51, 0
2, 19600, Note_on_c, 1, 69, 127
2, 19600, Note_off_c, 1, 71, 0
2, 19600, Note_on_c, 1, 73, 127
2, 19600, Note_off_c, 1, 82, 0
2, 19680, Note_off_c, 1, 44, 0
2, 19680, Note_off_c, 1, 69, 0
2, 19680, Note_off_c, 1, 73, 0
2, 19680, Note_off_c, 1, 78, 0
2, 19720, Note_on_c, 1, 44, 127
2, 19720, Note_on_c, 1, 69, 127
2, 19720, Note_on_c, 1, 73, 127
2, 19720, Note_on_c, 1, 78, 127
2, 19920, Note_on_c, 1, 42, 127
2, 19920, Note_off_c, 1, 44, 0
2, 19920, Note_on_c, 1, 54, 127
2, 19920, Note_off_c, 1, 69, 0
2, 19920, Note_on_c, 1, 70, 127
2, 19920, Note_off_c, 1, 73, 0
2, 19920, Note_off_c, 1, 78, 0
2, 19920, Note_on_c, 1, 82, 127
2, 19960, Note_off_c, 1, 42, 0
2, 19960, Note_off_c, 1, 54, 0
2, 19960, Note_off_c, 1, 70, 0
2, 19960, Note_off_c, 1, 82, 0
2, 20000, Note_on_c, 1, 42, 127
2, 20000, Note_on_c, 1, 45, 127
2, 20000, Note_on_c, 1, 73, 127
2, 20000, Note_on_c, 1, 81, 127
2, 20360, Note_off_c, 1, 42, 0
2, 20360, Note_off_c, 1, 45, 0
2, 20360, Note_off_c, 1, 73, 0
2, 20360, Note_off_c, 1, 81, 0
2, 20400, Note_on_c, 1, 47, 127
2, 20400, Note_on_c, 1, 54, 127
2, 20400, Note_on_c, 1, 62, 127
2, 20400, Note_on_c, 1, 66, 127
2, 20760, Note_off_c, 1, 47, 0
2, 20760, Note_off_c, 1, 54, 0
2, 20760, Note_off_c, 1, 62, 0
2, 20760, Note_off_c, 1, 66, 0
2, 20800, Note_on_c, 1, 35, 127
2, 20800, Note_on_c, 1, 47, 127
2, 20800, Note_on_c, 1, 55, 127
2, 20800, Note_on_c, 1, 59, 127
2, 20800, Note_on_c, 1, 64, 127
2, 20800, Note_on_c, 1, 67, 127
2, 21640, Note_off_c, 1, 35, 0
2, 21640, Note_off_c, 1, 47, 0
2, 21640, Note_off_c, 1, 55, 0
2, 21640, Note_off_c, 1, 59, 0
2, 21640, Note_off_c, 1, 64, 0
2, 21640, Note_off_c, 1, 67, 0
2, 21680, Note_on_c, 1, 45, 127
2, 21680, Note_on_c, 1, 84, 127
2, 21680, Note_on_c, 1, 94, 127
2, 21720, Note_off_c, 1, 45, 0
2, 21720, Note_on_c, 1, 46, 127
2, 21720, Note_on_c, 1, 49, 127
2, 21720, Note_on_c, 1, 53, 127
2, 21720, Note_on_c, 1, 58, 127
2, 21720, Note_off_c, 1, 84, 0
2, 21720, Note_off_c, 1, 94, 0
2, 21760, Note_on_c, 1, 32, 127
2, 21760, Note_on_c, 1, 39, 127
2, 21760, Note_off_c, 1, 46, 0
2, 21760, Note_off_c, 1, 49, 0
2, 21760, Note_off_c, 1, 53, 0
2, 21760, Note_off_c, 1, 58, 0
2, 21760, Note_on_c, 1, 64, 127
2, 21760, Note_on_c, 1, 67, 127
2, 21760, Note_on_c, 1, 70, 127
2, 21760, Note_on_c, 1, 73, 127
2, 21800, Note_off_c, 1, 32, 0
2, 21800, Note_off_c, 1, 39, 0
2, 21800, Note_on_c, 1, 46, 127
2, 21800, Note_on_c, 1, 49, 127
2, 21800, Note_on_c, 1, 53, 127
2, 21800, Note_on_c, 1, 58, 127
2, 21800, Note_off_c, 1, 64, 0
2, 21800, Note_off_c, 1, 67, 0
2, 21800, Note_off_c, 1, 70, 0
2, 21800, Note_off_c, 1, 73, 0
2, 21880, Note_off_c, 1, 46, 0
2, 21880, Note_off_c, 1, 49, 0
2, 21880, Note_off_c, 1, 53, 0
2, 21880, Note_off_c, 1, 58, 0
2, 21920, Note_on_c, 1, 41, 127
2, 21920, Note_on_c, 1, 48, 127
2, 21920, Note_on_c, 1, 55, 127
2, 21920, Note_on_c, 1, 58, 127
2, 21920, Note_on_c, 1, 62, 127
2, 21960, Note_on_c, 1, 32, 127
2, 21960, Note_off_c, 1, 41, 0
2, 21960, Note_off_c, 1, 48, 0
2, 21960, Note_off_c, 1, 55, 0
2, 21960, Note_off_c, 1, 58, 0
2, 21960, Note_on_c, 1, 59, 127
2, 21960, Note_off_c, 1, 62, 0
2, 21960, Note_on_c, 1, 64, 127
2, 22000, Note_off_c, 1, 32, 0
2, 22000, Note_off_c, 1, 64, 0
2, 22000, Note_on_c, 1, 66, 127
2, 22000, Note_on_c, 1, 69, 127
2, 22000, Note_on_c, 1, 73, 127
2, 22000, Note_on_c, 1, 76, 127
2, 22040, Note_on_c, 1, 41, 127
2, 22040, Note_on_c, 1, 53, 127
2, 22040, Note_off_c, 1, 59, 0
2, 22040, Note_off_c, 1, 66, 0
2, 22040, Note_off_c, 1, 69, 0
2, 22040, Note_off_c, 1, 73, 0
2, 22040, Note_off_c, 1, 76, 0
2, 22040, Note_on_c, 1, 77, 127
2, 22040, Note_on_c, 1, 81, 127
2, 22040, Note_on_c, 1, 86, 127
2, 22040, Note_on_c, 1, 89, 127
2, 22080, Note_on_c, 1, 39, 127
2, 22080, Note_off_c, 1, 41, 0
2, 22080, Note_on_c, 1, 51, 127
2, 22080, Note_off_c, 1, 53, 0
2, 22080, Note_on_c, 1, 61, 127
2, 22080, Note_on_c, 1, 66, 127
2, 22080, Note_on_c, 1, 70, 127
2, 22080, Note_on_c, 1, 73, 127
2, 22080, Note_off_c, 1, 77, 0
2, 22080, Note_off_c, 1, 81, 0
2, 22080, Note_on_c, 1, 82, 127
2, 22080, Note_off_c, 1, 86, 0
2, 22080, Note_off_c, 1, 89, 0
2, 22120, Note_off_c, 1, 39, 0
2, 22120, Note_off_c, 1, 51, 0
2, 22120, Note_on_c, 1, 54, 127
2, 22120, Note_on_c, 1, 63, 127
2, 22120, Note_off_c, 1, 66, 0
2, 22120, Note_off_c, 1, 70, 0
2, 22120, Note_off_c, 1, 73, 0
2, 22160, Note_off_c, 1, 54, 0
2, 22160, Note_on_c, 1, 55, 127
2, 22160, Note_off_c, 1, 61, 0
2, 22160, Note_off_c, 1, 63, 0
2, 22160, Note_on_c, 1, 64, 127
2, 22160, Note_on_c, 1, 72, 127
2, 22160, Note_on_c, 1, 81, 127
2, 22160, Note_off_c, 1, 82, 0
2, 22160, Note_on_c, 1, 84, 127
2, 22520, Note_off_c, 1, 55, 0
2, 22520, Note_off_c, 1, 64, 0
2, 22520, Note_off_c, 1, 72, 0
2, 22520, Note_off_c, 1, 81, 0
2, 22520, Note_off_c, 1, 84, 0
2, 22560, Note_on_c, 1, 43, 127
2, 22560, Note_on_c, 1, 48, 127
2, 22560, Note_on_c, 1, 52, 127
2, 22560, Note_on_c, 1, 64, 127
2, 22560, Note_on_c, 1, 72, 127
2, 22560, Note_on_c, 1, 76, 127
2, 22920, Note_off_c, 1, 48, 0
2, 22920, Note_off_c, 1, 52, 0
2, 22920, Note_on_c, 1, 59, 127
2, 22920, Note_off_c, 1, 64, 0
2, 22920, Note_on_c, 1, 67, 127
2, 22920, Note_on_c, 1, 71, 127
2, 22920, Note_off_c, 1, 72, 0
2, 22920, Note_on_c, 1, 74, 127
2, 22920, Note_off_c, 1, 76, 0
2, 22960, Note_off_c, 1, 43, 0
2, 22960, Note_off_c, 1, 59, 0
2, 22960, Note_off_c, 1, 67, 0
2, 22960, Note_off_c, 1, 71, 0
2, 22960, Note_off_c, 1, 74, 0
2, 23000, Note_on_c, 1, 44, 127
2, 23000, Note_on_c, 1, 51, 127
2, 23000, Note_on_c, 1, 60, 127
2, 23000, Note_on_c, 1, 62, 127
2, 23000, Note_on_c, 1, 72, 127
2, 23040, Note_off_c, 1, 44, 0
2, 23040, Note_off_c, 1, 51, 0
2, 23040, Note_on_c, 1, 57, 127
2, 23040, Note_off_c, 1, 60, 0
2, 23040, Note_on_c, 1, 76, 127
2, 23040, Note_on_c, 1, 84, 127
2, 23080, Note_on_c, 1, 44, 127
2, 23080, Note_on_c, 1, 51, 127
2, 23080, Note_off_c, 1, 57, 0
2, 23080, Note_on_c, 1, 60, 127
2, 23080, Note_off_c, 1, 76, 0
2, 23080, Note_off_c, 1, 84, 0
2, 23200, Note_off_c, 1, 44, 0
2, 23200, Note_off_c, 1, 51, 0
2, 23200, Note_off_c, 1, 60, 0
2, 23200, Note_off_c, 1, 72, 0
2, 23200, Note_on_c, 1, 74, 127
2, 23200, Note_on_c, 1, 78, 127
2, 23200, Note_on_c, 1, 83, 127
2, 23200, Note_on_c, 1, 86, 127
2, 23240, Note_on_c, 1, 34, 127
2, 23240, Note_on_c, 1, 54, 127
2, 23240, Note_on_c, 1, 57, 127
2, 23240, Note_on_c, 1, 60, 127
2, 23240, Note_off_c, 1, 62, 0
2, 23240, Note_off_c, 1, 74, 0
2, 23240, Note_off_c, 1, 78, 0
2, 23240, Note_off_c, 1, 83, 0
2, 23240, Note_off_c, 1, 86, 0
2, 23280, Note_off_c, 1, 34, 0
2, 23280, Note_on_c, 1, 44, 127
2, 23280, Note_off_c, 1, 54, 0
2, 23280, Note_off_c, 1, 57, 0
2, 23280, Note_on_c, 1, 63, 127
2, 23280, Note_on_c, 1, 66, 127
2, 23280, Note_on_c, 1, 68, 127
2, 23320, Note_off_c, 1, 44, 0
2, 23320, Note_on_c, 1, 45, 127
2, 23320, Note_on_c, 1, 48, 127
2, 23320, Note_off_c, 1, 60, 0
2, 23320, Note_off_c, 1, 63, 0
2, 23320, Note_off_c, 1, 66, 0
2, 23320, Note_off_c, 1, 68, 0
2, 23320, Note_on_c, 1, 79, 127
2, 23320, Note_on_c, 1, 87, 127
2, 23360, Note_off_c, 1, 45, 0
2, 23360, Note_off_c, 1, 48, 0
2, 23360, Note_on_c, 1, 51, 127
2, 23360, Note_on_c, 1, 58, 127
2, 23360, Note_on_c, 1, 67, 127
2, 23360, Note_off_c, 1, 79, 0
2, 23360, Note_on_c, 1, 82, 127
2, 23400, Note_on_c, 1, 41, 127
2, 23400, Note_on_c, 1, 50, 127
2, 23400, Note_off_c, 1, 51, 0
2, 23400, Note_off_c, 1, 58, 0
2, 23400, Note_off_c, 1, 67, 0
2, 23400, Note_off_c, 1, 82, 0
2, 23400, Note_off_c, 1, 87, 0
2, 23400, Note_on_c, 1, 89, 127
2, 23440, Note_off_c, 1, 41, 0
2, 23440, Note_off_c, 1, 50, 0
2, 23440, Note_on_c, 1, 59, 127
2, 23440, Note_on_c, 1, 62, 127
2, 23440, Note_on_c, 1, 64, 127
2, 23440, Note_on_c, 1, 76, 127
2, 23440, Note_on_c, 1, 84, 127
2, 23440, Note_off_c, 1, 89, 0
2, 23480, Note_on_c, 1, 56, 127
2, 23480, Note_off_c, 1, 59, 0
2, 23480, Note_off_c, 1, 62, 0
2, 23480, Note_off_c, 1, 64, 0
2, 23480, Note_on_c, 1, 72, 127
2, 23480, Note_off_c, 1, 76, 0
2, 23480, Note_on_c, 1, 78, 127
2, 23520, Note_off_c, 1, 56, 0
2, 23520, Note_on_c, 1, 68, 127
2, 23520, Note_off_c, 1, 72, 0
2, 23520, Note_on_c, 1, 76, 127
2, 23520, Note_off_c, 1, 78, 0
2, 23520, Note_off_c, 1, 84, 0
2, 23520, Note_on_c, 1, 86, 127
2, 23560, Note_off_c, 1, 68, 0
2, 23560, Note_off_c, 1, 76, 0
2, 23560, Note_on_c, 1, 82, 127
2, 23560, Note_on_c, 1, 85, 127
2, 23560, Note_off_c, 1, 86, 0
2, 23560, Note_on_c, 1, 88, 127
2, 23560, Note_on_c, 1, 94, 127
2, 23600, Note_on_c, 1, 53, 127
2, 23600, Note_on_c, 1, 60, 127
2, 23600, Note_off_c, 1, 82, 0
2, 23600, Note_on_c, 1, 83, 127
2, 23600, Note_off_c, 1, 85, 0
2, 23600, Note_on_c, 1, 87, 127
2, 23600, Note_off_c, 1, 88, 0
2, 23600, Note_off_c, 1, 94, 0
2, 23640, Note_on_c, 1, 38, 127
2, 23640, Note_on_c, 1, 50, 127
2, 23640, Note_off_c, 1, 53, 0
2, 23640, Note_off_c, 1, 60, 0
2, 23640, Note_on_c, 1, 69, 127
2, 23640, Note_on_c, 1, 72, 127
2, 23640, Note_on_c, 1, 77, 127
2, 23640, Note_on_c, 1, 81, 127
2, 23640, Note_off_c, 1, 83, 0
2, 23640, Note_off_c, 1, 87, 0
2, 23680, Note_on_c, 1, 30, 127
2, 23680, Note_on_c, 1, 37, 127
2, 23680, Note_off_c, 1, 38, 0
2, 23680, Note_on_c, 1, 46, 127
2, 23680, Note_off_c, 1, 50, 0
2, 23680, Note_off_c, 1, 69, 0
2, 23680, Note_off_c, 1, 72, 0
2, 23680, Note_off_c, 1, 77, 0
2, 23680, Note_off_c, 1, 81, 0
2, 23720, Note_off_c, 1, 30, 0
2, 23720, Note_off_c, 1, 37, 0
2, 23720, Note_off_c, 1, 46, 0
2, 23720, Note_on_c, 1, 57, 127
2, 23720, Note_on_c, 1, 70, 127
2, 23720, Note_on_c, 1, 78, 127
2, 23760, Note_off_c, 1, 57, 0
2, 23760, Note_off_c, 1, 70, 0
2, 23760, Note_off_c, 1, 78, 0
2, 23760, Note_on_c, 1, 92, 127
2, 23760, Note_on_c, 1, 102, 127
2, 23800, Note_on_c, 1, 59, 127
2, 23800, Note_on_c, 1, 66, 127
2, 23800, Note_on_c, 1, 81, 127
2, 23800, Note_on_c, 1, 85, 127
2, 23800, Note_off_c, 1, 92, 0
2, 23800, Note_off_c, 1, 102, 0
2, 24160, Note_off_c, 1, 59, 0
2, 24160, Note_off_c, 1, 66, 0
2, 24160, Note_off_c, 1, 81, 0
2, 24160, Note_off_c, 1, 85, 0
2, 24200, Note_on_c, 1, 59, 127
2, 24200, Note_on_c, 1, 66, 127
2, 24200, Note_on_c, 1, 81, 127
2, 24200, Note_on_c, 1, 85, 127
2, 26160, Note_off_c, 1, 59, 0
2, 26160, Note_off_c, 1, 66, 0
2, 26160, Note_off_c, 1, 81, 0
2, 26160, Note_off_c, 1, 85, 0
2, 26200, Note_on_c, 1, 59, 127
2, 26200, Note_on_c, 1, 66, 127
2, 26200, Note_on_c, 1, 81, 127
2, 26200, Note_on_c, 1, 85, 127
2, 26520, Note_on_c, 1, 37, 127
2, 26520, Note_off_c, 1, 59, 0
2, 26520, Note_off_c, 1, 66, 0
2, 26520, Note_off_c, 1, 81, 0
2, 26520, Note_off_c, 1, 85, 0
2, 26560, Note_off_c, 1, 37, 0
2, 26560, Note_on_c, 1, 56, 127
2, 26560, Note_on_c, 1, 64, 127
2, 26560, Note_on_c, 1, 68, 127
2, 26560, Note_on_c, 1, 73, 127
2, 26560, Note_on_c, 1, 76, 127
2, 26560, Note_on_c, 1, 80, 127
2, 26560, Note_on_c, 1, 85, 127
2, 26560, Note_on_c, 1, 87, 127
2, 26560, Note_on_c, 1, 88, 127
2, 26600, Note_on_c, 1, 48, 127
2, 26600, Note_off_c, 1, 56, 0
2, 26600, Note_off_c, 1, 64, 0
2, 26600, Note_off_c, 1, 68, 0
2, 26600, Note_off_c, 1, 73, 0
2, 26600, Note_off_c, 1, 76, 0
2, 26600, Note_on_c, 1, 79, 127
2, 26600, Note_off_c, 1, 80, 0
2, 26600, Note_on_c, 1, 84, 127
2, 26600, Note_off_c, 1, 85, 0
2, 26600, Note_off_c, 1, 87, 0
2, 26600, Note_off_c, 1, 88, 0
2, 26600, Note_on_c, 1, 91, 127
2, 26640, Note_off_c, 1, 48, 0
2, 26640, Note_on_c, 1, 63, 127
2, 26640, Note_on_c, 1, 75, 127
2, 26640, Note_off_c, 1, 79, 0
2, 26640, Note_off_c, 1, 84, 0
2, 26640, Note_on_c, 1, 88, 127
2, 26640, Note_off_c, 1, 91, 0
2, 26640, Note_on_c, 1, 94, 127
2, 26680, Note_off_c, 1, 63, 0
2, 26680, Note_on_c, 1, 69, 127
2, 26680, Note_off_c, 1, 75, 0
2, 26680, Note_on_c, 1, 78, 127
2, 26680, Note_on_c, 1, 81, 127
2, 26680, Note_off_c, 1, 88, 0
2, 26680, Note_on_c, 1, 93, 127
2, 26680, Note_off_c, 1, 94, 0
2, 26680, Note_on_c, 1, 98, 127
2, 26680, Note_on_c, 1, 100, 127
2, 26720, Note_off_c, 1, 69, 0
2, 26720, Note_on_c, 1, 77, 127
2, 26720, Note_off_c, 1, 78, 0
2, 26720, Note_on_c, 1, 80, 127
2, 26720, Note_off_c, 1, 81, 0
2, 26720, Note_on_c, 1, 83, 127
2, 26720, Note_on_c, 1, 92, 127
2, 26720, Note_off_c, 1, 93, 0
2, 26720, Note_off_c, 1, 98, 0
2, 26720, Note_off_c, 1, 100, 0
2, 26760, Note_on_c, 1, 55, 127
2, 26760, Note_on_c, 1, 58, 127
2, 26760, Note_on_c, 1, 66, 127
2, 26760, Note_off_c, 1, 77, 0
2, 26760, Note_off_c, 1, 80, 0
2, 26760, Note_off_c, 1, 83, 0
2, 26760, Note_off_c, 1, 92, 0
2, 26800, Note_on_c, 1, 44, 127
2, 26800, Note_on_c, 1, 48, 127
2, 26800, Note_on_c, 1, 53, 127
2, 26800, Note_off_c, 1, 55, 0
2, 26800, Note_off_c, 1, 58, 0
2, 26800, Note_off_c, 1, 66, 0
2, 26800, Note_on_c, 1, 89, 127
2, 26840, Note_off_c, 1, 44, 0
2, 26840, Note_off_c, 1, 48, 0
2, 26840, Note_off_c, 1, 53, 0
2, 26840, Note_on_c, 1, 66, 127
2, 26840, Note_on_c, 1, 72, 127
2, 26840, Note_on_c, 1, 78, 127
2, 26840, Note_on_c, 1, 82, 127
2, 26840, Note_off_c, 1, 89, 0
2, 26880, Note_on_c, 1, 30, 127
2, 26880, Note_on_c, 1, 42, 127
2, 26880, Note_on_c, 1, 59, 127
2, 26880, Note_on_c, 1, 61, 127
2, 26880, Note_on_c, 1, 64, 127
2, 26880, Note_off_c, 1, 66, 0
2, 26880, Note_on_c, 1, 71, 127
2, 26880, Note_off_c, 1, 72, 0
2, 26880, Note_off_c, 1, 78, 0
2, 26880, Note_off_c, 1, 82, 0
2, 26920, Note_off_c, 1, 30, 0
2, 26920, Note_off_c, 1, 42, 0
2, 26920, Note_on_c, 1, 56, 127
2, 26920, Note_off_c, 1, 59, 0
2, 26920, Note_on_c, 1, 60, 127
2, 26920, Note_off_c, 1, 61, 0
2, 26920, Note_off_c, 1, 64, 0
2, 26920, Note_off_c, 1, 71, 0
2, 26920, Note_on_c, 1, 75, 127
2, 26920, Note_on_c, 1, 77, 127
2, 26960, Note_off_c, 1, 56, 0
2, 26960, Note_off_c, 1, 60, 0
2, 26960, Note_on_c, 1, 61, 127
2, 26960, Note_on_c, 1, 68, 127
2, 26960, Note_on_c, 1, 80, 127
2, 27000, Note_off_c, 1, 61, 0
2, 27000, Note_off_c, 1, 68, 0
2, 27000, Note_off_c, 1, 77, 0
2, 27000, Note_off_c, 1, 80, 0
2, 27000, Note_on_c, 1, 81, 127
2, 27000, Note_on_c, 1, 87, 127
2, 27000, Note_on_c, 1, 90, 127
2, 27000, Note_on_c, 1, 93, 127
2, 27040, Note_on_c, 1, 65, 127
2, 27040, Note_on_c, 1, 68, 127
2, 27040, Note_off_c, 1, 75, 0
2, 27040, Note_off_c, 1, 81, 0
2, 27040, Note_on_c, 1, 83, 127
2, 27040, Note_on_c, 1, 86, 127
2, 27040, Note_off_c, 1, 87, 0
2, 27040, Note_off_c, 1, 90, 0
2, 27040, Note_on_c, 1, 92, 127
2, 27040, Note_off_c, 1, 93, 0
2, 27080, Note_on_c, 1, 43, 127
2, 27080, Note_on_c, 1, 57, 127
2, 27080, Note_on_c, 1, 60, 127
2, 27080, Note_off_c, 1, 68, 0
2, 27080, Note_on_c, 1, 72, 127
2, 27080, Note_on_c, 1, 77, 127
2, 27080, Note_off_c, 1, 83, 0
2, 27080, Note_off_c, 1, 86, 0
2, 27080, Note_off_c, 1, 92, 0
2, 27120, Note_off_c, 1, 43, 0
2, 27120, Note_on_c, 1, 46, 127
2, 27120, Note_on_c, 1, 50, 127
2, 27120, Note_off_c, 1, 57, 0
2, 27120, Note_on_c, 1, 58, 127
2, 27120, Note_off_c, 1, 60, 0
2, 27120, Note_off_c, 1, 72, 0
2, 27120, Note_off_c, 1, 77, 0
2, 27160, Note_off_c, 1, 46, 0
2, 27160, Note_off_c, 1, 50, 0
2, 27160, Note_off_c, 1, 58, 0
2, 27160, Note_on_c, 1, 60, 127
2, 27160, Note_off_c, 1, 65, 0
2, 27160, Note_on_c, 1, 72, 127
2, 27160, Note_on_c, 1, 84, 127
2, 27160, Note_on_c, 1, 94, 127
2, 27200, Note_on_c, 1, 45, 127
2, 27200, Note_on_c, 1, 51, 127
2, 27200, Note_on_c, 1, 53, 127
2, 27200, Note_on_c, 1, 58, 127
2, 27200, Note_off_c, 1, 60, 0
2, 27200, Note_on_c, 1, 63, 127
2, 27200, Note_on_c, 1, 65, 127
2, 27200, Note_off_c, 1, 72, 0
2, 27200, Note_off_c, 1, 84, 0
2, 27200, Note_off_c, 1, 94, 0
2, 27240, Note_off_c, 1, 45, 0
2, 27240, Note_off_c, 1, 51, 0
2, 27240, Note_off_c, 1, 53, 0
2, 27240, Note_on_c, 1, 54, 127
2, 27240, Note_off_c, 1, 58, 0
2, 27240, Note_off_c, 1, 63, 0
2, 27240, Note_off_c, 1, 65, 0
2, 27240, Note_on_c, 1, 66, 127
2, 27240, Note_on_c, 1, 73, 127
2, 27240, Note_on_c, 1, 82, 127
2, 27240, Note_on_c, 1, 85, 127
2, 27280, Note_on_c, 1, 46, 127
2, 27280, Note_off_c, 1, 54, 0
2, 27280, Note_on_c, 1, 58, 127
2, 27280, Note_on_c, 1, 64, 127
2, 27280, Note_off_c, 1, 66, 0
2, 27280, Note_on_c, 1, 68, 127
2, 27280, Note_off_c, 1, 73, 0
2, 27280, Note_off_c, 1, 82, 0
2, 27280, Note_off_c, 1, 85, 0
2, 27320, Note_off_c, 1, 46, 0
2, 27320, Note_off_c, 1, 58, 0
2, 27320, Note_on_c, 1, 59, 127
2, 27320, Note_off_c, 1, 64, 0
2, 27320, Note_off_c, 1, 68, 0
2, 27320, Note_on_c, 1, 78, 127
2, 27320, Note_on_c, 1, 86, 127
2, 27360, Note_on_c, 1, 32, 127
2, 27360, Note_on_c, 1, 44, 127
2, 27360, Note_on_c, 1, 55, 127
2, 27360, Note_off_c, 1, 59, 0
2, 27360, Note_on_c, 1, 67, 127
2, 27360, Note_off_c, 1, 78, 0
2, 27360, Note_off_c, 1, 86, 0
2, 27400, Note_off_c, 1, 32, 0
2, 27400, Note_off_c, 1, 44, 0
2, 27400, Note_off_c, 1, 55, 0
2, 27400, Note_on_c, 1, 59, 127
2, 27400, Note_on_c, 1, 61, 127
2, 27400, Note_on_c, 1, 64, 127
2, 27400, Note_on_c, 1, 71, 127
2, 27400, Note_on_c, 1, 78, 127
2, 27400, Note_on_c, 1, 85, 127
2, 27400, Note_on_c, 1, 90, 127
2, 27440, Note_on_c, 1, 40, 127
2, 27440, Note_off_c, 1, 59, 0
2, 27440, Note_off_c, 1, 61, 0
2, 27440, Note_off_c, 1, 64, 0
2, 27440, Note_off_c, 1, 67, 0
2, 27440, Note_off_c, 1, 71, 0
2, 27440, Note_off_c, 1, 78, 0
2, 27440, Note_off_c, 1, 85, 0
2, 27440, Note_off_c, 1, 90, 0
2, 27440, Note_on_c, 1, 94, 127
2, 27440, Note_on_c, 1, 95, 127
2, 27480, Note_off_c, 1, 40, 0
2, 27480, Note_on_c, 1, 44, 127
2, 27480, Note_on_c, 1, 53, 127
2, 27480, Note_on_c, 1, 59, 127
2, 27480, Note_on_c, 1, 63, 127
2, 27480, Note_on_c, 1, 89, 127
2, 27480, Note_off_c, 1, 94, 0
2, 27480, Note_off_c, 1, 95, 0
2, 27520, Note_off_c, 1, 44, 0
2, 27520, Note_on_c, 1, 52, 127
2, 27520, Note_off_c, 1, 53, 0
2, 27520, Note_on_c, 1, 68, 127
2, 27520, Note_on_c, 1, 75, 127
2, 27520, Note_off_c, 1, 89, 0
2, 27560, Note_on_c, 1, 42, 127
2, 27560, Note_on_c, 1, 50, 127
2, 27560, Note_off_c, 1, 52, 0
2, 27560, Note_on_c, 1, 58, 127
2, 27560, Note_off_c, 1, 59, 0
2, 27560, Note_on_c, 1, 62, 127
2, 27560, Note_off_c, 1, 63, 0
2, 27560, Note_off_c, 1, 75, 0
2, 27600, Note_off_c, 1, 42, 0
2, 27600, Note_off_c, 1, 50, 0
2, 27600, Note_off_c, 1, 58, 0
2, 27600, Note_off_c, 1, 62, 0
2, 27600, Note_on_c, 1, 74, 127
2, 27600, Note_on_c, 1, 82, 127
2, 27600, Note_on_c, 1, 88, 127
2, 27640, Note_on_c, 1, 37, 127
2, 27640, Note_off_c, 1, 68, 0
2, 27640, Note_off_c, 1, 74, 0
2, 27640, Note_on_c, 1, 76, 127
2, 27640, Note_on_c, 1, 81, 127
2, 27640, Note_off_c, 1, 82, 0
2, 27640, Note_off_c, 1, 88, 0
2, 27680, Note_off_c, 1, 37, 0
2, 27680, Note_on_c, 1, 49, 127
2, 27680, Note_on_c, 1, 61, 127
2, 27680, Note_off_c, 1, 76, 0
2, 27680, Note_off_c, 1, 81, 0
2, 27680, Note_on_c, 1, 87, 127
2, 27680, Note_on_c, 1, 89, 127
2, 27720, Note_on_c, 1, 29, 127
2, 27720, Note_off_c, 1, 49, 0
2, 27720, Note_on_c, 1, 54, 127
2, 27720, Note_off_c, 1, 61, 0
2, 27720, Note_off_c, 1, 87, 0
2, 27720, Note_off_c, 1, 89, 0
2, 27760, Note_off_c, 1, 29, 0
2, 27760, Note_on_c, 1, 49, 127
2, 27760, Note_off_c, 1, 54, 0
2, 27760, Note_on_c, 1, 75, 127
2, 27760, Note_on_c, 1, 82, 127
2, 27800, Note_off_c, 1, 49, 0
2, 27800, Note_off_c, 1, 75, 0
2, 27800, Note_off_c, 1, 82, 0
2, 27800, Note_on_c, 1, 84, 127
2, 27800, Note_on_c, 1, 86, 127
2, 27840, Note_on_c, 1, 45, 127
2, 27840, Note_on_c, 1, 54, 127
2, 27840, Note_on_c, 1, 57, 127
2, 27840, Note_on_c, 1, 63, 127
2, 27840, Note_on_c, 1, 69, 127
2, 27840, Note_off_c, 1, 84, 0
2, 27840, Note_off_c, 1, 86, 0
2, 27880, Note_on_c, 1, 41, 127
2, 27880, Note_off_c, 1, 45, 0
2, 27880, Note_on_c, 1, 53, 127
2, 27880, Note_off_c, 1, 54, 0
2, 27880, Note_off_c, 1, 57, 0
2, 27880, Note_off_c, 1, 63, 0
2, 27880, Note_off_c, 1, 69, 0
2, 27880, Note_on_c, 1, 75, 127
2, 27880, Note_on_c, 1, 82, 127
2, 27880, Note_on_c, 1, 87, 127
2, 28360, Note_off_c, 1, 41, 0
2, 28360, Note_off_c, 1, 53, 0
2, 28360, Note_off_c, 1, 75, 0
2, 28360, Note_off_c, 1, 82, 0
2, 28360, Note_off_c, 1, 87, 0
2, 28400, Note_on_c, 1, 41, 127
2, 28400, Note_on_c, 1, 53, 127
2, 28400, Note_on_c, 1, 75, 127
2, 28400, Note_on_c, 1, 82, 127
2, 28400, Note_on_c, 1, 87, 127
2, 28920, Note_off_c, 1, 41, 0
2, 28920, Note_off_c, 1, 53, 0
2, 28920, Note_on_c, 1, 61, 127
2, 28920, Note_off_c, 1, 75, 0
2, 28920, Note_off_c, 1, 82, 0
2, 28920, Note_on_c, 1, 83, 127
2, 28920, Note_off_c, 1, 87, 0
2, 28920, Note_on_c, 1, 89, 127
2, 28960, Note_on_c, 1, 41, 127
2, 28960, Note_on_c, 1, 53, 127
2, 28960, Note_off_c, 1, 61, 0
2, 28960, Note_on_c, 1, 75, 127
2, 28960, Note_on_c, 1, 82, 127
2, 28960, Note_off_c, 1, 83, 0
2, 28960, Note_on_c, 1, 87, 127
2, 28960, Note_off_c, 1, 89, 0
2, 30600, Note_off_c, 1, 41, 0
2, 30600, Note_on_c, 1, 45, 127
2, 30600, Note_on_c, 1, 52, 127
2, 30600, Note_off_c, 1, 53, 0
2, 30600, Note_on_c, 1, 59, 127
2, 30600, Note_on_c, 1, 62, 127
2, 30600, Note_off_c, 1, 75, 0
2, 30600, Note_off_c, 1, 82, 0
2, 30600, Note_off_c, 1, 87, 0
2, 30640, Note_off_c, 1, 45, 0
2, 30640, Note_on_c, 1, 49, 127
2, 30640, Note_off_c, 1, 52, 0
2, 30640, Note_on_c, 1, 55, 127
2, 30640, Note_off_c, 1, 62, 0
2, 30640, Note_on_c, 1, 64, 127
2, 30640, Note_on_c, 1, 76, 127
2, 30680, Note_off_c, 1, 49, 0
2, 30680, Note_on_c, 1, 51, 127
2, 30680, Note_off_c, 1, 55, 0
2, 30680, Note_off_c, 1, 64, 0
2, 30680, Note_on_c, 1, 65, 127
2, 30680, Note_on_c, 1, 70, 127
2, 30680, Note_off_c, 1, 76, 0
2, 30680, Note_on_c, 1, 77, 127
2, 30720, Note_off_c, 1, 51, 0
2, 30720, Note_off_c, 1, 59, 0
2, 30720, Note_off_c, 1, 65, 0
2, 30720, Note_on_c, 1, 66, 127
2, 30720, Note_off_c, 1, 70, 0
2, 30720, Note_on_c, 1, 76, 127
2, 30720, Note_off_c, 1, 77, 0
2, 30720, Note_on_c, 1, 92, 127
2, 30760, Note_on_c, 1, 44, 127
2, 30760, Note_on_c, 1, 56, 127
2, 30760, Note_off_c, 1, 66, 0
2, 30760, Note_off_c, 1, 76, 0
2, 30760, Note_on_c, 1, 78, 127
2, 30760, Note_on_c, 1, 80, 127
2, 30760, Note_on_c, 1, 84, 127
2, 30760, Note_on_c, 1, 87, 127
2, 30760, Note_off_c, 1, 92, 0
2, 30800, Note_off_c, 1, 44, 0
2, 30800, Note_off_c, 1, 56, 0
2, 30800, Note_off_c, 1, 78, 0
2, 30800, Note_off_c, 1, 80, 0
2, 30800, Note_off_c, 1, 84, 0
2, 30800, Note_off_c, 1, 87, 0
2, 30840, Note_on_c, 1, 58, 127
2, 30840, Note_on_c, 1, 60, 127
2, 31240, Note_on_c, 1, 55, 127
2, 31240, Note_off_c, 1, 60, 0
2, 31240, Note_on_c, 1, 62, 127
2, 31240, Note_on_c, 1, 69, 127
2, 31320, Note_off_c, 1, 55, 0
2, 31320, Note_off_c, 1, 58, 0
2, 31320, Note_off_c, 1, 62, 0
2, 31320, Note_off_c, 1, 69, 0
2, 31360, Note_on_c, 1, 55, 127
2, 31360, Note_on_c, 1, 58, 127
2, 31360, Note_on_c, 1, 62, 127
2, 31360, Note_on_c, 1, 69, 127
2, 31440, Note_off_c, 1, 58, 0
2, 31440, Note_off_c, 1, 62, 0
2, 31440, Note_off_c, 1, 69, 0
2, 31480, Note_on_c, 1, 49, 127
2, 31480, Note_on_c, 1, 53, 127
2, 31480, Note_off_c, 1, 55, 0
2, 31480, Note_on_c, 1, 65, 127
2, 31480, Note_on_c, 1, 73, 127
2, 31840, Note_off_c, 1, 49, 0
2, 31840, Note_off_c, 1, 53, 0
2, 31840, Note_off_c, 1, 65, 0
2, 31840, Note_off_c, 1, 73, 0
2, 31880, Note_on_c, 1, 49, 127
2, 31880, Note_on_c, 1, 70, 127
2, 31880, Note_on_c, 1, 77, 127
2, 32640, Note_off_c, 1, 49, 0
2, 32640, Note_off_c, 1, 70, 0
2, 32640, Note_off_c, 1, 77, 0
2, 32680, Note_on_c, 1, 53, 127
2, 32680, Note_on_c, 1, 60, 127
2, 32680, Note_on_c, 1, 67, 127
2, 32680, Note_on_c, 1, 79, 127
2, 32720, Note_on_c, 1, 47, 127
2, 32720, Note_off_c, 1, 53, 0
2, 32720, Note_on_c, 1, 57, 127
2, 32720, Note_on_c, 1, 59, 127
2, 32720, Note_off_c, 1, 60, 0
2, 32720, Note_off_c, 1, 67, 0
2, 32720, Note_on_c, 1, 74, 127
2, 32720, Note_off_c, 1, 79, 0
2, 32720, Note_on_c, 1, 81, 127
2, 32720, Note_on_c, 1, 86, 127
2, 33080, Note_off_c, 1, 47, 0
2, 33080, Note_off_c, 1, 57, 0
2, 33080, Note_off_c, 1, 59, 0
2, 33080, Note_off_c, 1, 74, 0
2, 33080, Note_off_c, 1, 81, 0
2, 33080, Note_off_c, 1, 86, 0
2, 33120, Note_on_c, 1, 49, 127
2, 33120, Note_on_c, 1, 57, 127
2, 33120, Note_on_c, 1, 61, 127
2, 33120, Note_on_c, 1, 76, 127
2, 33120, Note_on_c, 1, 81, 127
2, 33120, Note_on_c, 1, 88, 127
2, 33320, Note_off_c, 1, 49, 0
2, 33320, Note_off_c, 1, 57, 0
2, 33320, Note_off_c, 1, 61, 0
2, 33320, Note_off_c, 1, 76, 0
2, 33320, Note_off_c, 1, 81, 0
2, 33320, Note_off_c, 1, 88, 0
2, 33360, Note_on_c, 1, 49, 127
2, 33360, Note_on_c, 1, 57, 127
2, 33360, Note_on_c, 1, 61, 127
2, 33360, Note_on_c, 1, 76, 127
2, 33360, Note_on_c, 1, 81, 127
2, 33360, Note_on_c, 1, 88, 127
2, 33720, Note_off_c, 1, 49, 0
2, 33720, Note_off_c, 1, 57, 0
2, 33720, Note_off_c, 1, 61, 0
2, 33720, Note_off_c, 1, 76, 0
2, 33720, Note_off_c, 1, 81, 0
2, 33720, Note_off_c, 1, 88, 0
2, 33800, Note_on_c, 1, 41, 127
2, 33800, Note_on_c, 1, 44, 127
2, 33800, Note_on_c, 1, 51, 127
2, 33800, Note_on_c, 1, 60, 127
2, 33800, Note_on_c, 1, 66, 127
2, 33800, Note_on_c, 1, 68, 127
2, 34360, Note_off_c, 1, 41, 0
2, 34400, Note_off_c, 1, 44, 0
2, 34400, Note_on_c, 1, 46, 127
2, 34400, Note_off_c, 1, 51, 0
2, 34400, Note_on_c, 1, 58, 127
2, 34400, Note_off_c, 1, 60, 0
2, 34400, Note_on_c, 1, 63, 127
2, 34400, Note_off_c, 1, 66, 0
2, 34400, Note_on_c, 1, 72, 127
2, 34440, Note_off_c, 1, 46, 0
2, 34440, Note_on_c, 1, 54, 127
2, 34440, Note_on_c, 1, 66, 127
2, 34440, Note_off_c, 1, 68, 0
2, 34440, Note_on_c, 1, 70, 127
2, 34440, Note_off_c, 1, 72, 0
2, 34440, Note_on_c, 1, 75, 127
2, 34440, Note_on_c, 1, 87, 127
2, 34480, Note_on_c, 1, 47, 127
2, 34480, Note_off_c, 1, 54, 0
2, 34480, Note_off_c, 1, 58, 0
2, 34480, Note_off_c, 1, 63, 0
2, 34480, Note_off_c, 1, 66, 0
2, 34480, Note_off_c, 1, 70, 0
2, 34480, Note_off_c, 1, 75, 0
2, 34480, Note_on_c, 1, 77, 127
2, 34480, Note_off_c, 1, 87, 0
2, 34480, Note_on_c, 1, 91, 127
2, 34520, Note_on_c, 1, 35, 127
2, 34520, Note_off_c, 1, 47, 0
2, 34520, Note_on_c, 1, 54, 127
2, 34520, Note_on_c, 1, 59, 127
2, 34520, Note_on_c, 1, 64, 127
2, 34520, Note_on_c, 1, 68, 127
2, 34520, Note_on_c, 1, 71, 127
2, 34520, Note_off_c, 1, 77, 0
2, 34520, Note_off_c, 1, 91, 0
2, 34560, Note_off_c, 1, 35, 0
2, 34560, Note_on_c, 1, 44, 127
2, 34560, Note_on_c, 1, 48, 127
2, 34560, Note_off_c, 1, 54, 0
2, 34560, Note_off_c, 1, 59, 0
2, 34560, Note_off_c, 1, 64, 0
2, 34560, Note_off_c, 1, 68, 0
2, 34560, Note_off_c, 1, 71, 0
2, 34560, Note_on_c, 1, 72, 127
2, 34560, Note_on_c, 1, 74, 127
2, 34560, Note_on_c, 1, 84, 127
2, 34600, Note_off_c, 1, 48, 0
2, 34600, Note_on_c, 1, 56, 127
2, 34600, Note_on_c, 1, 70, 127
2, 34600, Note_off_c, 1, 72, 0
2, 34600, Note_on_c, 1, 73, 127
2, 34600, Note_off_c, 1, 74, 0
2, 34600, Note_on_c, 1, 77, 127
2, 34600, Note_off_c, 1, 84, 0
2, 34640, Note_on_c, 1, 43, 127
2, 34640, Note_off_c, 1, 44, 0
2, 34640, Note_on_c, 1, 50, 127
2, 34640, Note_off_c, 1, 56, 0
2, 34640, Note_off_c, 1, 70, 0
2, 34640, Note_off_c, 1, 73, 0
2, 34640, Note_on_c, 1, 74, 127
2, 34640, Note_off_c, 1, 77, 0
2, 34640, Note_on_c, 1, 79, 127
2, 34640, Note_on_c, 1, 83, 127
2, 34640, Note_on_c, 1, 86, 127
2, 34680, Note_off_c, 1, 43, 0
2, 34680, Note_off_c, 1, 50, 0
2, 34680, Note_on_c, 1, 52, 127
2, 34680, Note_on_c, 1, 60, 127
2, 34680, Note_on_c, 1, 67, 127
2, 34680, Note_on_c, 1, 72, 127
2, 34680, Note_off_c, 1, 74, 0
2, 34680, Note_off_c, 1, 79, 0
2, 34680, Note_on_c, 1, 82, 127
2, 34680, Note_off_c, 1, 83, 0
2, 34680, Note_off_c, 1, 86, 0
2, 34680, Note_on_c, 1, 91, 127
2, 34680, Note_on_c, 1, 94, 127
2, 34720, Note_on_c, 1, 44, 127
2, 34720, Note_off_c, 1, 52, 0
2, 34720, Note_on_c, 1, 56, 127
2, 34720, Note_off_c, 1, 60, 0
2, 34720, Note_off_c, 1, 67, 0
2, 34720, Note_off_c, 1, 72, 0
2, 34720, Note_on_c, 1, 75, 127
2, 34720, Note_on_c, 1, 78, 127
2, 34720, Note_off_c, 1, 82, 0
2, 34720, Note_on_c, 1, 85, 127
2, 34720, Note_off_c, 1, 91, 0
2, 34720, Note_off_c, 1, 94, 0
2, 34760, Note_off_c, 1, 44, 0
2, 34760, Note_off_c, 1, 56, 0
2, 34760, Note_off_c, 1, 75, 0
2, 34760, Note_off_c, 1, 78, 0
2, 34760, Note_off_c, 1, 85, 0
2, 34800, Note_on_c, 1, 48, 127
2, 34800, Note_on_c, 1, 53, 127
2, 34800, Note_on_c, 1, 55, 127
2, 34800, Note_on_c, 1, 59, 127
2, 34800, Note_on_c, 1, 81, 127
2, 34840, Note_on_c, 1, 34, 127
2, 34840, Note_on_c, 1, 46, 127
2, 34840, Note_off_c, 1, 48, 0
2, 34840, Note_off_c, 1, 53, 0
2, 34840, Note_off_c, 1, 55, 0
2, 34840, Note_off_c, 1, 59, 0
2, 34840, Note_on_c, 1, 74, 127
2, 34840, Note_on_c, 1, 77, 127
2, 34840, Note_off_c, 1, 81, 0
2, 34840, Note_on_c, 1, 82, 127
2, 34880, Note_off_c, 1, 34, 0
2, 34880, Note_on_c, 1, 37, 127
2, 34880, Note_off_c, 1, 46, 0
2, 34880, Note_on_c, 1, 49, 127
2, 34880, Note_on_c, 1, 61, 127
2, 34880, Note_on_c, 1, 73, 127
2, 34880, Note_off_c, 1, 74, 0
2, 34880, Note_off_c, 1, 77, 0
2, 34880, Note_on_c, 1, 81, 127
2, 34880, Note_off_c, 1, 82, 0
2, 34880, Note_on_c, 1, 93, 127
2, 34920, Note_on_c, 1, 34, 127
2, 34920, Note_off_c, 1, 37, 0
2, 34920, Note_on_c, 1, 46, 127
2, 34920, Note_off_c, 1, 49, 0
2, 34920, Note_off_c, 1, 61, 0
2, 34920, Note_off_c, 1, 73, 0
2, 34920, Note_on_c, 1, 74, 127
2, 34920, Note_on_c, 1, 77, 127
2, 34920, Note_off_c, 1, 81, 0
2, 34920, Note_on_c, 1, 82, 127
2, 34920, Note_off_c, 1, 93, 0
2, 35520, Note_off_c, 1, 34, 0
2, 35520, Note_off_c, 1, 46, 0
2, 35520, Note_off_c, 1, 74, 0
2, 35520, Note_off_c, 1, 77, 0
2, 35520, Note_off_c, 1, 82, 0
2, 35560, Note_on_c, 1, 34, 127
2, 35560, Note_on_c, 1, 46, 127
2, 35560, Note_on_c, 1, 74, 127
2, 35560, Note_on_c, 1, 77, 127
2, 35560, Note_on_c, 1, 82, 127
2, 35640, Note_off_c, 1, 34, 0
2, 35640, Note_off_c, 1, 46, 0
2, 35640, Note_off_c, 1, 74, 0
2, 35640, Note_off_c, 1, 77, 0
2, 35640, Note_off_c, 1, 82, 0
2, 35680, Note_on_c, 1, 51, 127
2, 35680, Note_on_c, 1, 54, 127
2, 35680, Note_on_c, 1, 58, 127
2, 35680, Note_on_c, 1, 63, 127
2, 35680, Note_on_c, 1, 66, 127
2, 35680, Note_on_c, 1, 70, 127
2, 36440, Note_off_c, 1, 51, 0
2, 36440, Note_off_c, 1, 54, 0
2, 36440, Note_off_c, 1, 58, 0
2, 36440, Note_off_c, 1, 63, 0
2, 36440, Note_off_c, 1, 66, 0
2, 36440, Note_off_c, 1, 70, 0
2, 36480, Note_on_c, 1, 40, 127
2, 36480, Note_on_c, 1, 49, 127
2, 36480, Note_on_c, 1, 58, 127
2, 36480, Note_on_c, 1, 67, 127
2, 36800, Note_off_c, 1, 40, 0
2, 36800, Note_on_c, 1, 45, 127
2, 36800, Note_off_c, 1, 58, 0
2, 36800, Note_off_c, 1, 67, 0
2, 36840, Note_on_c, 1, 41, 127
2, 36840, Note_off_c, 1, 45, 0
2, 36840, Note_off_c, 1, 49, 0
2, 36840, Note_on_c, 1, 50, 127
2, 36840, Note_on_c, 1, 53, 127
2, 36840, Note_on_c, 1, 62, 127
2, 36840, Note_on_c, 1, 70, 127
2, 36840, Note_on_c, 1, 74, 127
2, 36880, Note_off_c, 1, 41, 0
2, 36880, Note_off_c, 1, 50, 0
2, 36880, Note_off_c, 1, 53, 0
2, 36880, Note_off_c, 1, 62, 0
2, 36880, Note_on_c, 1, 63, 127
2, 36880, Note_off_c, 1, 70, 0
2, 36880, Note_off_c, 1, 74, 0
2, 36880, Note_on_c, 1, 85, 127
2, 36880, Note_on_c, 1, 88, 127
2, 36880, Note_on_c, 1, 91, 127
2, 36920, Note_on_c, 1, 46, 127
2, 36920, Note_on_c, 1, 57, 127
2, 36920, Note_on_c, 1, 72, 127
2, 36920, Note_off_c, 1, 85, 0
2, 36920, Note_off_c, 1, 88, 0
2, 36920, Note_off_c, 1, 91, 0
2, 36960, Note_on_c, 1, 32, 127
2, 36960, Note_on_c, 1, 38, 127
2, 36960, Note_on_c, 1, 44, 127
2, 36960, Note_off_c, 1, 46, 0
2, 36960, Note_off_c, 1, 57, 0
2, 36960, Note_off_c, 1, 63, 0
2, 36960, Note_on_c, 1, 71, 127
2, 36960, Note_off_c, 1, 72, 0
2, 37000, Note_off_c, 1, 32, 0
2, 37000, Note_off_c, 1, 38, 0
2, 37000, Note_on_c, 1, 43, 127
2, 37000, Note_off_c, 1, 44, 0
2, 37000, Note_on_c, 1, 77, 127
2, 37000, Note_on_c, 1, 83, 127
2, 37040, Note_off_c, 1, 43, 0
2, 37040, Note_on_c, 1, 70, 127
2, 37040, Note_off_c, 1, 71, 0
2, 37040, Note_on_c, 1, 72, 127
2, 37040, Note_off_c, 1, 77, 0
2, 37040, Note_on_c, 1, 78, 127
2, 37040, Note_off_c, 1, 83, 0
2, 37040, Note_on_c, 1, 87, 127
2, 37040, Note_on_c, 1, 89, 127
2, 37040, Note_on_c, 1, 93, 127
2, 37080, Note_on_c, 1, 55, 127
2, 37080, Note_on_c, 1, 63, 127
2, 37080, Note_on_c, 1, 66, 127
2, 37080, Note_off_c, 1, 70, 0
2, 37080, Note_off_c, 1, 78, 0
2, 37080, Note_on_c, 1, 81, 127
2, 37080, Note_on_c, 1, 84, 127
2, 37080, Note_off_c, 1, 87, 0
2, 37080, Note_off_c, 1, 89, 0
2, 37080, Note_off_c, 1, 93, 0
2, 37120, Note_on_c, 1, 59, 127
2, 37120, Note_on_c, 1, 62, 127
2, 37120, Note_off_c, 1, 63, 0
2, 37120, Note_on_c, 1, 65, 127
2, 37120, Note_off_c, 1, 66, 0
2, 37120, Note_off_c, 1, 72, 0
2, 37120, Note_off_c, 1, 81, 0
2, 37120, Note_off_c, 1, 84, 0
2, 37120, Note_on_c, 1, 88, 127
2, 37120, Note_on_c, 1, 89, 127
2, 37160, Note_on_c, 1, 41, 127
2, 37160, Note_on_c, 1, 44, 127
2, 37160, Note_on_c, 1, 53, 127
2, 37160, Note_off_c, 1, 55, 0
2, 37160, Note_off_c, 1, 59, 0
2, 37160, Note_off_c, 1, 62, 0
2, 37160, Note_off_c, 1, 65, 0
2, 37160, Note_on_c, 1, 73, 127
2, 37160, Note_on_c, 1, 80, 127
2, 37160, Note_off_c, 1, 88, 0
2, 37160, Note_off_c, 1, 89, 0
2, 37200, Note_off_c, 1, 41, 0
2, 37200, Note_off_c, 1, 44, 0
2, 37200, Note_on_c, 1, 48, 127
2, 37200, Note_off_c, 1, 53, 0
2, 37200, Note_off_c, 1, 73, 0
2, 37200, Note_off_c, 1, 80, 0
2, 37240, Note_on_c, 1, 46, 127
2, 37240, Note_off_c, 1, 48, 0
2, 37240, Note_on_c, 1, 58, 127
2, 37240, Note_on_c, 1, 83, 127
2, 37240, Note_on_c, 1, 88, 127
2, 37240, Note_on_c, 1, 95, 127
2, 37280, Note_off_c, 1, 46, 0
2, 37280, Note_off_c, 1, 58, 0
2, 37280, Note_on_c, 1, 60, 127
2, 37280, Note_on_c, 1, 67, 127
2, 37280, Note_on_c, 1, 70, 127
2, 37280, Note_off_c, 1, 83, 0
2, 37280, Note_off_c, 1, 88, 0
2, 37280, Note_on_c, 1, 91, 127
2, 37280, Note_off_c, 1, 95, 0
2, 37320, Note_off_c, 1, 60, 0
2, 37320, Note_on_c, 1, 63, 127
2, 37320, Note_off_c, 1, 70, 0
2, 37320, Note_on_c, 1, 72, 127
2, 37320, Note_on_c, 1, 79, 127
2, 37440, Note_off_c, 1, 63, 0
2, 37440, Note_off_c, 1, 67, 0
2, 37440, Note_off_c, 1, 72, 0
2, 37440, Note_off_c, 1, 79, 0
2, 37440, Note_off_c, 1, 91, 0
2, 37480, Note_on_c, 1, 63, 127
2, 37480, Note_on_c, 1, 67, 127
2, 37480, Note_on_c, 1, 72, 127
2, 37480, Note_on_c, 1, 79, 127
2, 37480, Note_on_c, 1, 91, 127
2, 38080, Note_off_c, 1, 63, 0
2, 38080, Note_off_c, 1, 67, 0
2, 38080, Note_off_c, 1, 72, 0
2, 38080, Note_off_c, 1, 79, 0
2, 38080, Note_off_c, 1, 91, 0
2, 38120, Note_on_c, 1, 63, 127
2, 38120, Note_on_c, 1, 67, 127
2, 38120, Note_on_c, 1, 72, 127
2, 38120, Note_on_c, 1, 79, 127
2, 38120, Note_on_c, 1, 91, 127
2, 38880, Note_off_c, 1, 63, 0
2, 38880, Note_off_c, 1, 67, 0
2, 38880, Note_off_c, 1, 72, 0
2, 38880, Note_off_c, 1, 79, 0
2, 38880, Note_off_c, 1, 91, 0
2, 38920, Note_on_c, 1, 68, 127
2, 38920, Note_on_c, 1, 72, 127
2, 38920, Note_on_c, 1, 91, 127
2, 38920, Note_on_c, 1, 103, 127
2, 38920, Note_on_c, 1, 104, 127
2, 38960, Note_on_c, 1, 56, 127
2, 38960, Note_on_c, 1, 60, 127
2, 38960, Note_on_c, 1, 65, 127
2, 38960, Note_off_c, 1, 68, 0
2, 38960, Note_off_c, 1, 72, 0
2, 38960, Note_off_c, 1, 91, 0
2, 38960, Note_on_c, 1, 92, 127
2, 38960, Note_off_c, 1, 103, 0
2, 38960, Note_off_c, 1, 104, 0
2, 39000, Note_on_c, 1, 63, 127
2, 39000, Note_off_c, 1, 65, 0
2, 39000, Note_on_c, 1, 68, 127
2, 39040, Note_on_c, 1, 35, 127
2, 39040, Note_on_c, 1, 47, 127
2, 39040, Note_on_c, 1, 53, 127
2, 39040, Note_off_c, 1, 56, 0
2, 39040, Note_on_c, 1, 57, 127
2, 39040, Note_off_c, 1, 60, 0
2, 39040, Note_off_c, 1, 63, 0
2, 39040, Note_off_c, 1, 68, 0
2, 39040, Note_off_c, 1, 92, 0
2, 39080, Note_off_c, 1, 35, 0
2, 39080, Note_off_c, 1, 47, 0
2, 39080, Note_off_c, 1, 53, 0
2, 39080, Note_off_c, 1, 57, 0
2, 39080, Note_on_c, 1, 58, 127
2, 39080, Note_on_c, 1, 64, 127
2, 39080, Note_on_c, 1, 67, 127
2, 39080, Note_on_c, 1, 84, 127
2, 39120, Note_off_c, 1, 64, 0
2, 39120, Note_off_c, 1, 67, 0
2, 39120, Note_on_c, 1, 87, 127
2, 39160, Note_on_c, 1, 52, 127
2, 39160, Note_off_c, 1, 58, 0
2, 39160, Note_on_c, 1, 64, 127
2, 39160, Note_on_c, 1, 67, 127
2, 39160, Note_on_c, 1, 73, 127
2, 39160, Note_on_c, 1, 79, 127
2, 39160, Note_off_c, 1, 84, 0
2, 39160, Note_off_c, 1, 87, 0
2, 39200, Note_off_c, 1, 52, 0
2, 39200, Note_on_c, 1, 57, 127
2, 39200, Note_on_c, 1, 63, 127
2, 39200, Note_off_c, 1, 64, 0
2, 39200, Note_on_c, 1, 65, 127
2, 39200, Note_off_c, 1, 67, 0
2, 39200, Note_on_c, 1, 69, 127
2, 39200, Note_on_c, 1, 72, 127
2, 39200, Note_off_c, 1, 73, 0
2, 39200, Note_on_c, 1, 77, 127
2, 39200, Note_off_c, 1, 79, 0
2, 39240, Note_on_c, 1, 48, 127
2, 39240, Note_off_c, 1, 57, 0
2, 39240, Note_off_c, 1, 63, 0
2, 39240, Note_on_c, 1, 64, 127
2, 39240, Note_off_c, 1, 65, 0
2, 39240, Note_off_c, 1, 69, 0
2, 39240, Note_off_c, 1, 72, 0
2, 39240, Note_off_c, 1, 77, 0
2, 39240, Note_on_c, 1, 84, 127
2, 39240, Note_on_c, 1, 93, 127
2, 39280, Note_off_c, 1, 48, 0
2, 39280, Note_off_c, 1, 64, 0
2, 39280, Note_off_c, 1, 84, 0
2, 39280, Note_off_c, 1, 93, 0
2, 39320, Note_on_c, 1, 53, 127
2, 39320, Note_on_c, 1, 57, 127
2, 39320, Note_on_c, 1, 62, 127
2, 39320, Note_on_c, 1, 65, 127
2, 39320, Note_on_c, 1, 81, 127
2, 39320, Note_on_c, 1, 86, 127
2, 39360, Note_on_c, 1, 39, 127
2, 39360, Note_on_c, 1, 51, 127
2, 39360, Note_off_c, 1, 53, 0
2, 39360, Note_off_c, 1, 57, 0
2, 39360, Note_off_c, 1, 62, 0
2, 39360, Note_off_c, 1, 65, 0
2, 39360, Note_on_c, 1, 79, 127
2, 39360, Note_off_c, 1, 81, 0
2, 39360, Note_on_c, 1, 85, 127
2, 39360, Note_off_c, 1, 86, 0
2, 39360, Note_on_c, 1, 91, 127
2, 39640, Note_off_c, 1, 39, 0
2, 39640, Note_off_c, 1, 51, 0
2, 39640, Note_off_c, 1, 79, 0
2, 39640, Note_off_c, 1, 85, 0
2, 39640, Note_off_c, 1, 91, 0
2, 39680, Note_on_c, 1, 39, 127
2, 39680, Note_on_c, 1, 51, 127
2, 39680, Note_on_c, 1, 79, 127
2, 39680, Note_on_c, 1, 85, 127
2, 39680, Note_on_c, 1, 91, 127
2, 40520, Note_off_c, 1, 39, 0
2, 40520, Note_off_c, 1, 51, 0
2, 40520, Note_off_c, 1, 79, 0
2, 40520, Note_off_c, 1, 85, 0
2, 40520, Note_off_c, 1, 91, 0
2, 40560, Note_on_c, 1, 62, 127
2, 40560, Note_on_c, 1, 65, 127
2, 40560, Note_on_c, 1, 68, 127
2, 40560, Note_on_c, 1, 71, 127
2, 40560, Note_on_c, 1, 82, 127
2, 40600, Note_off_c, 1, 62, 0
2, 40600, Note_off_c, 1, 71, 0
2, 40600, Note_on_c, 1, 73, 127
2, 40600, Note_off_c, 1, 82, 0
2, 40600, Note_on_c, 1, 85, 127
2, 40640, Note_on_c, 1, 62, 127
2, 40640, Note_off_c, 1, 68, 0
2, 40640, Note_on_c, 1, 70, 127
2, 40640, Note_off_c, 1, 73, 0
2, 40640, Note_on_c, 1, 82, 127
2, 40640, Note_off_c, 1, 85, 0
2, 40640, Note_on_c, 1, 89, 127
2, 40680, Note_off_c, 1, 62, 0
2, 40680, Note_on_c, 1, 68, 127
2, 40680, Note_off_c, 1, 70, 0
2, 40680, Note_on_c, 1, 73, 127
2, 40680, Note_off_c, 1, 82, 0
2, 40680, Note_on_c, 1, 85, 127
2, 40680, Note_off_c, 1, 89, 0
2, 41720, Note_off_c, 1, 65, 0
2, 41720, Note_off_c, 1, 68, 0
2, 41720, Note_off_c, 1, 73, 0
2, 41720, Note_off_c, 1, 85, 0
2, 41760, Note_on_c, 1, 65, 127
2, 41760, Note_on_c, 1, 68, 127
2, 41760, Note_on_c, 1, 73, 127
2, 41760, Note_on_c, 1, 85, 127
2, 41840, Note_off_c, 1, 85, 0
2, 41880, Note_on_c, 1, 53, 127
2, 42240, Note_off_c, 1, 53, 0
2, 42240, Note_off_c, 1, 65, 0
2, 42240, Note_off_c, 1, 68, 0
2, 42240, Note_off_c, 1, 73, 0
2, 42280, Note_on_c, 1, 34, 127
2, 42280, Note_on_c, 1, 46, 127
2, 42280, Note_on_c, 1, 56, 127
2, 42280, Note_on_c, 1, 75, 127
2, 42640, Note_off_c, 1, 34, 0
2, 42640, Note_off_c, 1, 46, 0
2, 42640, Note_off_c, 1, 56, 0
2, 42640, Note_off_c, 1, 75, 0
2, 42680, Note_on_c, 1, 48, 127
2, 42680, Note_on_c, 1, 55, 127
2, 42680, Note_on_c, 1, 58, 127
2, 42680, Note_on_c, 1, 89, 127
2, 42720, Note_on_c, 1, 43, 127
2, 42720, Note_off_c, 1, 48, 0
2, 42720, Note_on_c, 1, 51, 127
2, 42720, Note_off_c, 1, 58, 0
2, 42720, Note_on_c, 1, 75, 127
2, 42720, Note_on_c, 1, 82, 127
2, 42720, Note_on_c, 1, 87, 127
2, 42720, Note_off_c, 1, 89, 0
2, 42760, Note_off_c, 1, 43, 0
2, 42760, Note_on_c, 1, 47, 127
2, 42760, Note_off_c, 1, 51, 0
2, 42760, Note_off_c, 1, 55, 0
2, 42760, Note_on_c, 1, 57, 127
2, 42760, Note_on_c, 1, 67, 127
2, 42760, Note_on_c, 1, 74, 127
2, 42760, Note_off_c, 1, 75, 0
2, 42760, Note_on_c, 1, 77, 127
2, 42760, Note_on_c, 1, 81, 127
2, 42760, Note_off_c, 1, 82, 0
2, 42760, Note_off_c, 1, 87, 0
2, 42800, Note_off_c, 1, 47, 0
2, 42800, Note_off_c, 1, 57, 0
2, 42800, Note_on_c, 1, 60, 127
2, 42800, Note_on_c, 1, 70, 127
2, 42800, Note_on_c, 1, 73, 127
2, 42800, Note_off_c, 1, 74, 0
2, 42800, Note_off_c, 1, 77, 0
2, 42800, Note_off_c, 1, 81, 0
2, 42800, Note_on_c, 1, 85, 127
2, 42840, Note_on_c, 1, 31, 127
2, 42840, Note_on_c, 1, 38, 127
2, 42840, Note_on_c, 1, 43, 127
2, 42840, Note_off_c, 1, 60, 0
2, 42840, Note_off_c, 1, 67, 0
2, 42840, Note_off_c, 1, 73, 0
2, 42840, Note_on_c, 1, 74, 127
2, 42840, Note_off_c, 1, 85, 0
2, 42880, Note_off_c, 1, 31, 0
2, 42880, Note_on_c, 1, 37, 127
2, 42880, Note_off_c, 1, 38, 0
2, 42880, Note_on_c, 1, 42, 127
2, 42880, Note_off_c, 1, 43, 0
2, 42880, Note_on_c, 1, 61, 127
2, 42880, Note_on_c, 1, 66, 127
2, 42880, Note_on_c, 1, 69, 127
2, 42880, Note_off_c, 1, 70, 0
2, 42880, Note_off_c, 1, 74, 0
2, 42920, Note_off_c, 1, 37, 0
2, 42920, Note_on_c, 1, 40, 127
2, 42920, Note_off_c, 1, 42, 0
2, 42920, Note_on_c, 1, 52, 127
2, 42920, Note_off_c, 1, 61, 0
2, 42920, Note_off_c, 1, 66, 0
2, 42920, Note_off_c, 1, 69, 0
2, 42920, Note_on_c, 1, 70, 127
2, 42920, Note_on_c, 1, 72, 127
2, 42920, Note_on_c, 1, 79, 127
2, 42920, Note_on_c, 1, 82, 127
2, 42960, Note_off_c, 1, 40, 0
2, 42960, Note_off_c, 1, 52, 0
2, 42960, Note_on_c, 1, 67, 127
2, 42960, Note_off_c, 1, 70, 0
2, 42960, Note_off_c, 1, 72, 0
2, 42960, Note_on_c, 1, 76, 127
2, 42960, Note_off_c, 1, 79, 0
2, 42960, Note_on_c, 1, 85, 127
2, 43000, Note_on_c, 1, 50, 127
2, 43000, Note_on_c, 1, 53, 127
2, 43000, Note_on_c, 1, 58, 127
2, 43000, Note_on_c, 1, 62, 127
2, 43000, Note_off_c, 1, 67, 0
2, 43000, Note_off_c, 1, 76, 0
2, 43000, Note_on_c, 1, 77, 127
2, 43000, Note_off_c, 1, 82, 0
2, 43000, Note_off_c, 1, 85, 0
2, 43040, Note_off_c, 1, 50, 0
2, 43040, Note_off_c, 1, 53, 0
2, 43040, Note_off_c, 1, 58, 0
2, 43040, Note_on_c, 1, 59, 127
2, 43040, Note_off_c, 1, 62, 0
2, 43040, Note_on_c, 1, 65, 127
2, 43040, Note_off_c, 1, 77, 0
2, 43040, Note_on_c, 1, 87, 127
2, 43080, Note_on_c, 1, 55, 127
2, 43080, Note_on_c, 1, 62, 127
2, 43080, Note_off_c, 1, 65, 0
2, 43080, Note_off_c, 1, 87, 0
2, 43080, Note_on_c, 1, 92, 127
2, 43120, Note_off_c, 1, 55, 0
2, 43120, Note_on_c, 1, 57, 127
2, 43120, Note_off_c, 1, 62, 0
2, 43120, Note_on_c, 1, 63, 127
2, 43120, Note_on_c, 1, 66, 127
2, 43120, Note_on_c, 1, 76, 127
2, 43120, Note_off_c, 1, 92, 0
2, 43160, Note_on_c, 1, 36, 127
2, 43160, Note_off_c, 1, 57, 0
2, 43160, Note_off_c, 1, 59, 0
2, 43160, Note_off_c, 1, 63, 0
2, 43160, Note_off_c, 1, 66, 0
2, 43160, Note_off_c, 1, 76, 0
2, 43160, Note_on_c, 1, 77, 127
2, 43160, Note_on_c, 1, 84, 127
2, 43200, Note_on_c, 1, 32, 127
2, 43200, Note_off_c, 1, 36, 0
2, 43200, Note_on_c, 1, 37, 127
2, 43200, Note_on_c, 1, 40, 127
2, 43200, Note_on_c, 1, 44, 127
2, 43200, Note_on_c, 1, 56, 127
2, 43200, Note_on_c, 1, 61, 127
2, 43200, Note_on_c, 1, 64, 127
2, 43200, Note_on_c, 1, 68, 127
2, 43200, Note_off_c, 1, 77, 0
2, 43200, Note_off_c, 1, 84, 0
2, 43240, Note_off_c, 1, 32, 0
2, 43240, Note_off_c, 1, 37, 0
2, 43240, Note_off_c, 1, 40, 0
2, 43240, Note_off_c, 1, 44, 0
2, 43240, Note_off_c, 1, 56, 0
2, 43240, Note_off_c, 1, 61, 0
2, 43240, Note_off_c, 1, 64, 0
2, 43240, Note_off_c, 1, 68, 0
2, 43280, Note_on_c, 1, 32, 127
2, 43280, Note_on_c, 1, 36, 127
2, 43280, Note_on_c, 1, 42, 127
2, 43280, Note_on_c, 1, 44, 127
2, 43280, Note_on_c, 1, 51, 127
2, 43280, Note_on_c, 1, 54, 127
2, 43280, Note_on_c, 1, 59, 127
2, 43280, Note_on_c, 1, 72, 127
2, 43280, Note_on_c, 1, 80, 127
2, 43280, Note_on_c, 1, 84, 127
2, 43320, Note_off_c, 1, 32, 0
2, 43320, Note_off_c, 1, 36, 0
2, 43320, Note_on_c, 1, 38, 127
2, 43320, Note_off_c, 1, 42, 0
2, 43320, Note_off_c, 1, 44, 0
2, 43320, Note_off_c, 1, 51, 0
2, 43320, Note_off_c, 1, 54, 0
2, 43320, Note_off_c, 1, 59, 0
2, 43320, Note_on_c, 1, 69, 127
2, 43320, Note_off_c, 1, 72, 0
2, 43320, Note_off_c, 1, 80, 0
2, 43320, Note_off_c, 1, 84, 0
2, 43320, Note_on_c, 1, 90, 127
2, 43320, Note_on_c, 1, 93, 127
2, 43360, Note_off_c, 1, 38, 0
2, 43360, Note_on_c, 1, 57, 127
2, 43360, Note_on_c, 1, 62, 127
2, 43360, Note_on_c, 1, 65, 127
2, 43360, Note_off_c, 1, 90, 0
2, 43400, Note_on_c, 1, 48, 127
2, 43400, Note_off_c, 1, 57, 0
2, 43400, Note_on_c, 1, 58, 127
2, 43400, Note_on_c, 1, 60, 127
2, 43400, Note_off_c, 1, 65, 0
2, 43400, Note_on_c, 1, 67, 127
2, 43400, Note_off_c, 1, 69, 0
2, 43400, Note_off_c, 1, 93, 0
2, 43440, Note_on_c, 1, 47, 127
2, 43440, Note_off_c, 1, 48, 0
2, 43440, Note_off_c, 1, 58, 0
2, 43440, Note_off_c, 1, 60, 0
2, 43440, Note_off_c, 1, 67, 0
2, 43440, Note_on_c, 1, 68, 127
2, 43440, Note_on_c, 1, 72, 127
2, 43440, Note_on_c, 1, 76, 127
2, 43480, Note_on_c, 1, 40, 127
2, 43480, Note_off_c, 1, 47, 0
2, 43480, Note_off_c, 1, 62, 0
2, 43480, Note_off_c, 1, 68, 0
2, 43480, Note_off_c, 1, 72, 0
2, 43480, Note_off_c, 1, 76, 0
2, 43480, Note_on_c, 1, 79, 127
2, 43480, Note_on_c, 1, 88, 127
2, 43520, Note_off_c, 1, 40, 0
2, 43520, Note_on_c, 1, 71, 127
2, 43520, Note_on_c, 1, 73, 127
2, 43520, Note_on_c, 1, 76, 127
2, 43520, Note_off_c, 1, 79, 0
2, 43560, Note_off_c, 1, 71, 0
2, 43560, Note_off_c, 1, 73, 0
2, 43560, Note_on_c, 1, 86, 127
2, 43600, Note_on_c, 1, 40, 127
2, 43600, Note_off_c, 1, 76, 0
2, 43600, Note_on_c, 1, 79, 127
2, 43600, Note_off_c, 1, 86, 0
2, 43640, Note_off_c, 1, 40, 0
2, 43640, Note_off_c, 1, 79, 0
2, 43640, Note_on_c, 1, 85, 127
2, 43640, Note_off_c, 1, 88, 0
2, 43640, Note_on_c, 1, 89, 127
2, 43680, Note_on_c, 1, 57, 127
2, 43680, Note_on_c, 1, 60, 127
2, 43680, Note_on_c, 1, 66, 127
2, 43680, Note_on_c, 1, 69, 127
2, 43680, Note_on_c, 1, 75, 127
2, 43680, Note_on_c, 1, 78, 127
2, 43680, Note_on_c, 1, 84, 127
2, 43680, Note_off_c, 1, 85, 0
2, 43680, Note_off_c, 1, 89, 0
2, 43720, Note_on_c, 1, 32, 127
2, 43720, Note_on_c, 1, 44, 127
2, 43720, Note_on_c, 1, 53, 127
2, 43720, Note_off_c, 1, 57, 0
2, 43720, Note_off_c, 1, 60, 0
2, 43720, Note_on_c, 1, 65, 127
2, 43720, Note_off_c, 1, 66, 0
2, 43720, Note_off_c, 1, 69, 0
2, 43720, Note_on_c, 1, 72, 127
2, 43720, Note_off_c, 1, 75, 0
2, 43720, Note_off_c, 1, 78, 0
2, 43800, Note_off_c, 1, 32, 0
2, 43800, Note_off_c, 1, 44, 0
2, 43800, Note_off_c, 1, 53, 0
2, 43800, Note_off_c, 1, 65, 0
2, 43800, Note_off_c, 1, 72, 0
2, 43800, Note_off_c, 1, 84, 0
2, 43840, Note_on_c, 1, 32, 127
2, 43840, Note_on_c, 1, 44, 127
2, 43840, Note_on_c, 1, 53, 127
2, 43840, Note_on_c, 1, 65, 127
2, 43840, Note_on_c, 1, 72, 127
2, 43840, Note_on_c, 1, 84, 127
2, 44080, Note_off_c, 1, 32, 0
2, 44080, Note_off_c, 1, 44, 0
2, 44080, Note_off_c, 1, 53, 0
2, 44080, Note_off_c, 1, 65, 0
2, 44080, Note_off_c, 1, 72, 0
2, 44080, Note_on_c, 1, 75, 127
2, 44080, Note_on_c, 1, 79, 127
2, 44080, Note_off_c, 1, 84, 0
2, 44120, Note_on_c, 1, 53, 127
2, 44120, Note_off_c, 1, 75, 0
2, 44120, Note_off_c, 1, 79, 0
2, 44120, Note_on_c, 1, 86, 127
2, 44120, Note_on_c, 1, 89, 127
2, 44120, Note_on_c, 1, 94, 127
2, 44120, Note_on_c, 1, 98, 127
2, 44160, Note_on_c, 1, 43, 127
2, 44160, Note_off_c, 1, 53, 0
2, 44160, Note_on_c, 1, 55, 127
2, 44160, Note_on_c, 1, 63, 127
2, 44160, Note_on_c, 1, 70, 127
2, 44160, Note_on_c, 1, 73, 127
2, 44160, Note_off_c, 1, 86, 0
2, 44160, Note_off_c, 1, 89, 0
2, 44160, Note_off_c, 1, 94, 0
2, 44160, Note_off_c, 1, 98, 0
2, 44200, Note_off_c, 1, 43, 0
2, 44200, Note_on_c, 1, 53, 127
2, 44200, Note_off_c, 1, 55, 0
2, 44200, Note_off_c, 1, 63, 0
2, 44200, Note_off_c, 1, 70, 0
2, 44200, Note_off_c, 1, 73, 0
2, 44200, Note_on_c, 1, 86, 127
2, 44200, Note_on_c, 1, 89, 127
2, 44200, Note_on_c, 1, 94, 127
2, 44200, Note_on_c, 1, 98, 127
2, 44480, Note_on_c, 1, 43, 127
2, 44480, Note_on_c, 1, 47, 127
2, 44480, Note_on_c, 1, 50, 127
2, 44480, Note_on_c, 1, 74, 127
2, 44480, Note_off_c, 1, 86, 0
2, 44480, Note_off_c, 1, 89, 0
2, 44480, Note_off_c, 1, 94, 0
2, 44480, Note_off_c, 1, 98, 0
2, 44520, Note_off_c, 1, 43, 0
2, 44520, Note_off_c, 1, 47, 0
2, 44520, Note_off_c, 1, 50, 0
2, 44520, Note_off_c, 1, 53, 0
2, 44520, Note_off_c, 1, 74, 0
2, 44560, Note_on_c, 1, 45, 127
2, 44560, Note_on_c, 1, 70, 127
2, 44560, Note_on_c, 1, 77, 127
2, 44560, Note_on_c, 1, 80, 127
2, 44560, Note_on_c, 1, 82, 127
2, 44600, Note_off_c, 1, 45, 0
2, 44600, Note_on_c, 1, 57, 127
2, 44600, Note_on_c, 1, 63, 127
2, 44600, Note_on_c, 1, 65, 127
2, 44600, Note_off_c, 1, 70, 0
2, 44600, Note_on_c, 1, 72, 127
2, 44600, Note_off_c, 1, 80, 0
2, 44600, Note_off_c, 1, 82, 0
2, 44640, Note_off_c, 1, 57, 0
2, 44640, Note_on_c, 1, 58, 127
2, 44640, Note_off_c, 1, 65, 0
2, 44640, Note_off_c, 1, 72, 0
2, 44640, Note_on_c, 1, 73, 127
2, 44640, Note_off_c, 1, 77, 0
2, 44640, Note_on_c, 1, 91, 127
2, 44680, Note_on_c, 1, 41, 127
2, 44680, Note_off_c, 1, 58, 0
2, 44680, Note_off_c, 1, 63, 0
2, 44680, Note_off_c, 1, 73, 0
2, 44680, Note_on_c, 1, 74, 127
2, 44680, Note_on_c, 1, 77, 127
2, 44680, Note_on_c, 1, 82, 127
2, 44680, Note_on_c, 1, 86, 127
2, 44680, Note_off_c, 1, 91, 0
2, 44720, Note_off_c, 1, 41, 0
2, 44720, Note_on_c, 1, 48, 127
2, 44720, Note_on_c, 1, 58, 127
2, 44720, Note_on_c, 1, 64, 127
2, 44720, Note_on_c, 1, 65, 127
2, 44720, Note_on_c, 1, 72, 127
2, 44720, Note_off_c, 1, 74, 0
2, 44720, Note_off_c, 1, 77, 0
2, 44720, Note_off_c, 1, 82, 0
2, 44720, Note_off_c, 1, 86, 0
2, 45800, Note_off_c, 1, 48, 0
2, 45800, Note_off_c, 1, 58, 0
2, 45800, Note_off_c, 1, 64, 0
2, 45800, Note_off_c, 1, 65, 0
2, 45800, Note_off_c, 1, 72, 0
2, 45840, Note_on_c, 1, 48, 127
2, 45840, Note_on_c, 1, 58, 127
2, 45840, Note_on_c, 1, 64, 127
2, 45840, Note_on_c, 1, 65, 127
2, 45840, Note_on_c, 1, 72, 127
2, 47440, Note_off_c, 1, 48, 0
2, 47440, Note_on_c, 1, 57, 127
2, 47440, Note_off_c, 1, 58, 0
2, 47440, Note_off_c, 1, 64, 0
2, 47440, Note_off_c, 1, 65, 0
2, 47440, Note_off_c, 1, 72, 0
2, 47440, Note_on_c, 1, 81, 127
2, 47440, Note_on_c, 1, 86, 127
2, 47440, Note_on_c, 1, 90, 127
2, 47440, Note_on_c, 1, 93, 127
2, 47480, Note_off_c, 1, 57, 0
2, 47480, Note_on_c, 1, 60, 127
2, 47480, Note_on_c, 1, 67, 127
2, 47480, Note_on_c, 1, 69, 127
2, 47480, Note_on_c, 1, 78, 127
2, 47480, Note_off_c, 1, 81, 0
2, 47480, Note_off_c, 1, 86, 0
2, 47480, Note_off_c, 1, 90, 0
2, 47480, Note_off_c, 1, 93, 0
2, 47520, Note_on_c, 1, 48, 127
2, 47520, Note_off_c, 1, 67, 0
2, 47520, Note_off_c, 1, 69, 0
2, 47520, Note_on_c, 1, 81, 127
2, 47520, Note_on_c, 1, 87, 127
2, 47520, Note_on_c, 1, 90, 127
2, 47560, Note_off_c, 1, 48, 0
2, 47560, Note_off_c, 1, 60, 0
2, 47560, Note_off_c, 1, 78, 0
2, 47560, Note_off_c, 1, 81, 0
2, 47560, Note_off_c, 1, 87, 0
2, 47560, Note_off_c, 1, 90, 0
2, 47600, Note_on_c, 1, 62, 127
2, 47600, Note_on_c, 1, 65, 127
2, 47600, Note_on_c, 1, 78, 127
2, 47640, Note_off_c, 1, 62, 0
2, 47640, Note_off_c, 1, 65, 0
2, 47640, Note_off_c, 1, 78, 0
2, 47680, Note_on_c, 1, 47, 127
2, 47680, Note_on_c, 1, 57, 127
2, 47680, Note_on_c, 1, 62, 127
2, 47680, Note_on_c, 1, 68, 127
2, 47680, Note_on_c, 1, 71, 127
2, 47720, Note_on_c, 1, 45, 127
2, 47720, Note_off_c, 1, 47, 0
2, 47720, Note_on_c, 1, 60, 127
2, 47720, Note_off_c, 1, 62, 0
2, 47720, Note_off_c, 1, 68, 0
2, 47720, Note_on_c, 1, 69, 127
2, 47720, Note_off_c, 1, 71, 0
2, 47720, Note_on_c, 1, 72, 127
2, 48480, Note_off_c, 1, 45, 0
2, 48480, Note_off_c, 1, 57, 0
2, 48480, Note_off_c, 1, 60, 0
2, 48480, Note_on_c, 1, 64, 127
2, 48520, Note_on_c, 1, 46, 127
2, 48520, Note_on_c, 1, 57, 127
2, 48520, Note_on_c, 1, 60, 127
2, 48520, Note_off_c, 1, 64, 0
2, 48520, Note_on_c, 1, 65, 127
2, 49040, Note_off_c, 1, 46, 0
2, 49040, Note_off_c, 1, 57, 0
2, 49040, Note_off_c, 1, 60, 0
2, 49040, Note_off_c, 1, 65, 0
2, 49040, Note_off_c, 1, 69, 0
2, 49040, Note_off_c, 1, 72, 0
2, 49120, Note_on_c, 1, 34, 127
2, 49120, Note_on_c, 1, 46, 127
2, 49120, Note_on_c, 1, 62, 127
2, 49120, Note_on_c, 1, 65, 127
2, 49120, Note_on_c, 1, 70, 127
2, 49680, Note_off_c, 1, 34, 0
2, 49680, Note_off_c, 1, 46, 0
2, 49680, Note_off_c, 1, 62, 0
2, 49680, Note_off_c, 1, 65, 0
2, 49680, Note_off_c, 1, 70, 0
2, 49720, Note_on_c, 1, 34, 127
2, 49720, Note_on_c, 1, 46, 127
2, 49720, Note_on_c, 1, 62, 127
2, 49720, Note_on_c, 1, 65, 127
2, 49720, Note_on_c, 1, 70, 127
2, 49960, Note_off_c, 1, 34, 0
2, 49960, Note_off_c, 1, 46, 0
2, 49960, Note_off_c, 1, 62, 0
2, 49960, Note_off_c, 1, 65, 0
2, 49960, Note_off_c, 1, 70, 0
2, 50000, Note_on_c, 1, 58, 127
2, 50000, Note_on_c, 1, 62, 127
2, 50000, Note_on_c, 1, 65, 127
2, 50000, Note_on_c, 1, 81, 127
2, 50000, Note_on_c, 1, 93, 127
2, 50400, Note_off_c, 1, 58, 0
2, 50400, Note_off_c, 1, 62, 0
2, 50400, Note_off_c, 1, 65, 0
2, 50400, Note_off_c, 1, 81, 0
2, 50400, Note_off_c, 1, 93, 0
2, 50440, Note_on_c, 1, 43, 127
2, 50440, Note_on_c, 1, 58, 127
2, 50440, Note_on_c, 1, 62, 127
2, 50440, Note_on_c, 1, 74, 127
2, 50800, Note_off_c, 1, 43, 0
2, 50800, Note_off_c, 1, 74, 0
2, 50800, Note_on_c, 1, 77, 127
2, 50800, Note_on_c, 1, 89, 127
2, 50840, Note_off_c, 1, 58, 0
2, 50840, Note_off_c, 1, 62, 0
2, 50840, Note_on_c, 1, 83, 127
2, 50840, Note_on_c, 1, 85, 127
2, 50840, Note_off_c, 1, 89, 0
2, 50880, Note_on_c, 1, 51, 127
2, 50880, Note_on_c, 1, 55, 127
2, 50880, Note_on_c, 1, 58, 127
2, 50880, Note_on_c, 1, 60, 127
2, 50880, Note_on_c, 1, 70, 127
2, 50880, Note_on_c, 1, 74, 127
2, 50880, Note_off_c, 1, 77, 0
2, 50880, Note_off_c, 1, 83, 0
2, 50880, Note_off_c, 1, 85, 0
2, 50920, Note_on_c, 1, 44, 127
2, 50920, Note_off_c, 1, 55, 0
2, 50920, Note_off_c, 1, 60, 0
2, 50920, Note_on_c, 1, 63, 127
2, 50920, Note_off_c, 1, 70, 0
2, 50920, Note_on_c, 1, 73, 127
2, 50920, Note_off_c, 1, 74, 0
2, 50960, Note_off_c, 1, 44, 0
2, 50960, Note_off_c, 1, 51, 0
2, 50960, Note_on_c, 1, 56, 127
2, 50960, Note_off_c, 1, 58, 0
2, 50960, Note_on_c, 1, 67, 127
2, 50960, Note_on_c, 1, 75, 127
2, 51000, Note_on_c, 1, 51, 127
2, 51000, Note_on_c, 1, 55, 127
2, 51000, Note_off_c, 1, 56, 0
2, 51000, Note_on_c, 1, 58, 127
2, 51000, Note_on_c, 1, 60, 127
2, 51000, Note_off_c, 1, 63, 0
2, 51000, Note_off_c, 1, 67, 0
2, 51000, Note_on_c, 1, 70, 127
2, 51000, Note_off_c, 1, 73, 0
2, 51000, Note_off_c, 1, 75, 0
2, 51240, Note_off_c, 1, 51, 0
2, 51240, Note_off_c, 1, 55, 0
2, 51240, Note_off_c, 1, 58, 0
2, 51240, Note_off_c, 1, 60, 0
2, 51240, Note_off_c, 1, 70, 0
2, 51280, Note_on_c, 1, 42, 127
2, 51280, Note_on_c, 1, 54, 127
2, 51280, Note_on_c, 1, 65, 127
2, 51280, Note_on_c, 1, 77, 127
2, 51320, Note_on_c, 1, 41, 127
2, 51320, Note_off_c, 1, 42, 0
2, 51320, Note_on_c, 1, 44, 127
2, 51320, Note_on_c, 1, 50, 127
2, 51320, Note_off_c, 1, 54, 0
2, 51320, Note_on_c, 1, 63, 127
2, 51320, Note_off_c, 1, 65, 0
2, 51320, Note_off_c, 1, 77, 0
2, 51360, Note_off_c, 1, 41, 0
2, 51360, Note_on_c, 1, 49, 127
2, 51360, Note_off_c, 1, 50, 0
2, 51360, Note_on_c, 1, 53, 127
2, 51360, Note_on_c, 1, 59, 127
2, 51360, Note_on_c, 1, 61, 127
2, 51360, Note_off_c, 1, 63, 0
2, 51360, Note_on_c, 1, 65, 127
2, 51360, Note_on_c, 1, 73, 127
2, 51400, Note_on_c, 1, 42, 127
2, 51400, Note_off_c, 1, 44, 0
2, 51400, Note_off_c, 1, 49, 0
2, 51400, Note_off_c, 1, 53, 0
2, 51400, Note_on_c, 1, 54, 127
2, 51400, Note_off_c, 1, 59, 0
2, 51400, Note_off_c, 1, 61, 0
2, 51400, Note_off_c, 1, 73, 0
2, 51400, Note_on_c, 1, 77, 127
2, 51440, Note_on_c, 1, 35, 127
2, 51440, Note_off_c, 1, 42, 0
2, 51440, Note_on_c, 1, 47, 127
2, 51440, Note_on_c, 1, 62, 127
2, 51440, Note_off_c, 1, 65, 0
2, 51440, Note_on_c, 1, 66, 127
2, 51440, Note_off_c, 1, 77, 0
2, 51480, Note_off_c, 1, 35, 0
2, 51480, Note_off_c, 1, 47, 0
2, 51480, Note_off_c, 1, 54, 0
2, 51480, Note_off_c, 1, 62, 0
2, 51480, Note_off_c, 1, 66, 0
2, 51480, Note_on_c, 1, 67, 127
2, 51480, Note_on_c, 1, 70, 127
2, 51480, Note_on_c, 1, 76, 127
2, 51480, Note_on_c, 1, 87, 127
2, 51480, Note_on_c, 1, 100, 127
2, 51520, Note_on_c, 1, 52, 127
2, 51520, Note_on_c, 1, 59, 127
2, 51520, Note_on_c, 1, 62, 127
2, 51520, Note_off_c, 1, 67, 0
2, 51520, Note_on_c, 1, 68, 127
2, 51520, Note_off_c, 1, 70, 0
2, 51520, Note_on_c, 1, 72, 127
2, 51520, Note_off_c, 1, 76, 0
2, 51520, Note_on_c, 1, 84, 127
2, 51520, Note_off_c, 1, 87, 0
2, 51520, Note_off_c, 1, 100, 0
2, 51560, Note_on_c, 1, 41, 127
2, 51560, Note_on_c, 1, 48, 127
2, 51560, Note_off_c, 1, 52, 0
2, 51560, Note_on_c, 1, 53, 127
2, 51560, Note_off_c, 1, 59, 0
2, 51560, Note_off_c, 1, 62, 0
2, 51560, Note_off_c, 1, 84, 0
2, 51600, Note_off_c, 1, 41, 0
2, 51600, Note_off_c, 1, 48, 0
2, 51600, Note_on_c, 1, 52, 127
2, 51600, Note_off_c, 1, 53, 0
2, 51600, Note_on_c, 1, 59, 127
2, 51600, Note_on_c, 1, 62, 127
2, 51600, Note_on_c, 1, 84, 127
2, 51640, Note_off_c, 1, 52, 0
2, 51640, Note_on_c, 1, 58, 127
2, 51640, Note_off_c, 1, 59, 0
2, 51640, Note_on_c, 1, 61, 127
2, 51640, Note_off_c, 1, 62, 0
2, 51640, Note_on_c, 1, 67, 127
2, 51640, Note_off_c, 1, 68, 0
2, 51640, Note_off_c, 1, 72, 0
2, 51680, Note_on_c, 1, 52, 127
2, 51680, Note_off_c, 1, 58, 0
2, 51680, Note_on_c, 1, 59, 127
2, 51680, Note_off_c, 1, 61, 0
2, 51680, Note_on_c, 1, 63, 127
2, 51680, Note_on_c, 1, 64, 127
2, 51680, Note_off_c, 1, 67, 0
2, 51680, Note_on_c, 1, 71, 127
2, 51680, Note_on_c, 1, 75, 127
2, 51680, Note_on_c, 1, 76, 127
2, 51680, Note_off_c, 1, 84, 0
2, 51720, Note_off_c, 1, 52, 0
2, 51720, Note_off_c, 1, 59, 0
2, 51720, Note_off_c, 1, 63, 0
2, 51720, Note_off_c, 1, 64, 0
2, 51720, Note_off_c, 1, 71, 0
2, 51720, Note_off_c, 1, 75, 0
2, 51720, Note_off_c, 1, 76, 0
2, 51760, Note_on_c, 1, 52, 127
2, 51760, Note_on_c, 1, 59, 127
2, 51760, Note_on_c, 1, 63, 127
2, 51760, Note_on_c, 1, 64, 127
2, 51760, Note_on_c, 1, 71, 127
2, 51760, Note_on_c, 1, 75, 127
2, 51760, Note_on_c, 1, 76, 127
2, 52080, Note_off_c, 1, 52, 0
2, 52080, Note_off_c, 1, 59, 0
2, 52080, Note_off_c, 1, 63, 0
2, 52080, Note_off_c, 1, 64, 0
2, 52080, Note_off_c, 1, 71, 0
2, 52080, Note_off_c, 1, 75, 0
2, 52080, Note_off_c, 1, 76, 0
2, 52120, Note_on_c, 1, 59, 127
2, 52120, Note_on_c, 1, 66, 127
2, 52120, Note_on_c, 1, 69, 127
2, 52120, Note_on_c, 1, 71, 127
2, 52120, Note_on_c, 1, 75, 127
2, 52120, Note_on_c, 1, 78, 127
2, 52480, Note_off_c, 1, 59, 0
2, 52480, Note_off_c, 1, 66, 0
2, 52480, Note_off_c, 1, 69, 0
2, 52480, Note_off_c, 1, 71, 0
2, 52480, Note_off_c, 1, 75, 0
2, 52480, Note_off_c, 1, 78, 0
2, 52520, Note_on_c, 1, 48, 127
2, 52520, Note_on_c, 1, 55, 127
2, 52520, Note_on_c, 1, 60, 127
2, 52520, Note_on_c, 1, 64, 127
2, 52520, Note_on_c, 1, 67, 127
2, 52920, Note_off_c, 1, 48, 0
2, 52920, Note_off_c, 1, 64, 0
2, 52920, Note_on_c, 1, 65, 127
2, 52920, Note_off_c, 1, 67, 0
2, 53080, Note_off_c, 1, 65, 0
2, 53120, Note_on_c, 1, 48, 127
2, 53120, Note_off_c, 1, 60, 0
2, 53120, Note_on_c, 1, 64, 127
2, 53520, Note_off_c, 1, 48, 0
2, 53520, Note_off_c, 1, 55, 0
2, 53520, Note_off_c, 1, 64, 0
2, 53560, Note_on_c, 1, 48, 127
2, 53560, Note_on_c, 1, 55, 127
2, 53560, Note_on_c, 1, 64, 127
2, 53560, Note_on_c, 1, 72, 127
2, 53920, Note_off_c, 1, 72, 0
2, 53960, Note_off_c, 1, 48, 0
2, 53960, Note_off_c, 1, 55, 0
2, 53960, Note_off_c, 1, 64, 0
2, 54000, Note_on_c, 1, 48, 127
2, 54000, Note_on_c, 1, 55, 127
2, 54000, Note_on_c, 1, 64, 127
2, 54000, Note_on_c, 1, 74, 127
2, 54440, Note_on_c, 1, 67, 127
2, 54440, Note_off_c, 1, 74, 0
2, 54760, Note_off_c, 1, 48, 0
2, 54760, Note_off_c, 1, 55, 0
2, 54760, Note_off_c, 1, 64, 0
2, 54760, Note_off_c, 1, 67, 0
2, 54800, Note_on_c, 1, 46, 127
2, 54800, Note_on_c, 1, 50, 127
2, 54800, Note_on_c, 1, 53, 127
2, 54800, Note_on_c, 1, 58, 127
2, 54800, Note_on_c, 1, 65, 127
2, 54800, Note_on_c, 1, 70, 127
2, 54800, Note_on_c, 1, 74, 127
2, 54800, Note_on_c, 1, 77, 127
2, 55560, Note_off_c, 1, 46, 0
2, 55560, Note_off_c, 1, 50, 0
2, 55560, Note_off_c, 1, 53, 0
2, 55560, Note_off_c, 1, 58, 0
2, 55560, Note_off_c, 1, 65, 0
2, 55560, Note_off_c, 1, 70, 0
2, 55560, Note_off_c, 1, 74, 0
2, 55560, Note_off_c, 1, 77, 0
2, 55600, Note_on_c, 1, 58, 127
2, 55600, Note_on_c, 1, 61, 127
2, 55600, Note_on_c, 1, 65, 127
2, 55600, Note_on_c, 1, 70, 127
2, 55600, Note_on_c, 1, 73, 127
2, 55600, Note_on_c, 1, 82, 127
2, 55600, Note_on_c, 1, 85, 127
2, 55640, Note_on_c, 1, 51, 127
2, 55640, Note_off_c, 1, 58, 0
2, 55640, Note_on_c, 1, 60, 127
2, 55640, Note_off_c, 1, 61, 0
2, 55640, Note_on_c, 1, 63, 127
2, 55640, Note_off_c, 1, 65, 0
2, 55640, Note_on_c, 1, 66, 127
2, 55640, Note_off_c, 1, 70, 0
2, 55640, Note_on_c, 1, 77, 127
2, 55640, Note_off_c, 1, 82, 0
2, 55640, Note_off_c, 1, 85, 0
2, 55680, Note_off_c, 1, 51, 0
2, 55680, Note_off_c, 1, 60, 0
2, 55680, Note_on_c, 1, 62, 127
2, 55680, Note_off_c, 1, 63, 0
2, 55680, Note_off_c, 1, 66, 0
2, 55680, Note_off_c, 1, 73, 0
2, 55680, Note_off_c, 1, 77, 0
2, 55680, Note_on_c, 1, 86, 127
2, 55680, Note_on_c, 1, 89, 127
2, 55680, Note_on_c, 1, 93, 127
2, 55680, Note_on_c, 1, 98, 127
2, 55720, Note_on_c, 1, 45, 127
2, 55720, Note_on_c, 1, 49, 127
2, 55720, Note_off_c, 1, 62, 0
2, 55720, Note_on_c, 1, 67, 127
2, 55720, Note_on_c, 1, 79, 127
2, 55720, Note_off_c, 1, 86, 0
2, 55720, Note_off_c, 1, 89, 0
2, 55720, Note_off_c, 1, 93, 0
2, 55720, Note_off_c, 1, 98, 0
2, 55760, Note_on_c, 1, 39, 127
2, 55760, Note_on_c, 1, 43, 127
2, 55760, Note_off_c, 1, 45, 0
2, 55760, Note_off_c, 1, 49, 0
2, 55760, Note_on_c, 1, 51, 127
2, 55760, Note_off_c, 1, 67, 0
2, 55760, Note_on_c, 1, 68, 127
2, 55760, Note_off_c, 1, 79, 0
2, 55760, Note_on_c, 1, 80, 127
2, 55960, Note_on_c, 1, 35, 127
2, 55960, Note_off_c, 1, 39, 0
2, 55960, Note_off_c, 1, 43, 0
2, 55960, Note_off_c, 1, 51, 0
2, 55960, Note_off_c, 1, 68, 0
2, 55960, Note_off_c, 1, 80, 0
2, 56000, Note_off_c, 1, 35, 0
2, 56000, Note_on_c, 1, 62, 127
2, 56000, Note_on_c, 1, 84, 127
2, 56000, Note_on_c, 1, 88, 127
2, 56000, Note_on_c, 1, 96, 127
2, 56040, Note_on_c, 1, 40, 127
2, 56040, Note_on_c, 1, 46, 127
2, 56040, Note_on_c, 1, 48, 127
2, 56040, Note_on_c, 1, 55, 127
2, 56040, Note_off_c, 1, 62, 0
2, 56040, Note_on_c, 1, 76, 127
2, 56040, Note_off_c, 1, 88, 0
2, 56040, Note_on_c, 1, 90, 127
2, 56040, Note_off_c, 1, 96, 0
2, 56080, Note_off_c, 1, 40, 0
2, 56080, Note_off_c, 1, 46, 0
2, 56080, Note_off_c, 1, 48, 0
2, 56080, Note_off_c, 1, 55, 0
2, 56080, Note_off_c, 1, 76, 0
2, 56080, Note_off_c, 1, 84, 0
2, 56080, Note_off_c, 1, 90, 0
2, 56120, Note_on_c, 1, 36, 127
2, 56120, Note_on_c, 1, 48, 127
2, 56120, Note_on_c, 1, 60, 127
2, 56120, Note_on_c, 1, 65, 127
2, 56120, Note_on_c, 1, 68, 127
2, 56120, Note_on_c, 1, 74, 127
2, 56160, Note_on_c, 1, 32, 127
2, 56160, Note_off_c, 1, 36, 0
2, 56160, Note_off_c, 1, 48, 0
2, 56160, Note_off_c, 1, 60, 0
2, 56160, Note_off_c, 1, 65, 0
2, 56160, Note_off_c, 1, 68, 0
2, 56160, Note_off_c, 1, 74, 0
2, 56160, Note_on_c, 1, 86, 127
2, 56160, Note_on_c, 1, 89, 127
2, 56160, Note_on_c, 1, 91, 127
2, 56200, Note_off_c, 1, 32, 0
2, 56200, Note_on_c, 1, 36, 127
2, 56200, Note_on_c, 1, 48, 127
2, 56200, Note_on_c, 1, 60, 127
2, 56200, Note_on_c, 1, 65, 127
2, 56200, Note_on_c, 1, 68, 127
2, 56200, Note_on_c, 1, 74, 127
2, 56200, Note_off_c, 1, 86, 0
2, 56200, Note_off_c, 1, 89, 0
2, 56200, Note_off_c, 1, 91, 0
2, 56240, Note_off_c, 1, 36, 0
2, 56240, Note_on_c, 1, 40, 127
2, 56240, Note_on_c, 1, 46, 127
2, 56240, Note_on_c, 1, 55, 127
2, 56240, Note_off_c, 1, 60, 0
2, 56240, Note_off_c, 1, 65, 0
2, 56240, Note_off_c, 1, 68, 0
2, 56240, Note_off_c, 1, 74, 0
2, 56240, Note_on_c, 1, 76, 127
2, 56240, Note_on_c, 1, 84, 127
2, 56240, Note_on_c, 1, 90, 127
2, 56800, Note_off_c, 1, 40, 0
2, 56800, Note_off_c, 1, 46, 0
2, 56800, Note_off_c, 1, 48, 0
2, 56800, Note_off_c, 1, 55, 0
2, 56800, Note_on_c, 1, 64, 127
2, 56800, Note_on_c, 1, 72, 127
2, 56800, Note_off_c, 1, 76, 0
2, 56800, Note_on_c, 1, 79, 127
2, 56800, Note_off_c, 1, 90, 0
2, 56800, Note_on_c, 1, 91, 127
2, 56840, Note_off_c, 1, 64, 0
2, 56840, Note_off_c, 1, 72, 0
2, 56840, Note_off_c, 1, 79, 0
2, 56840, Note_off_c, 1, 84, 0
2, 56840, Note_off_c, 1, 91, 0
2, 56880, Note_on_c, 1, 61, 127
2, 56880, Note_on_c, 1, 76, 127
2, 56880, Note_on_c, 1, 82, 127
2, 56880, Note_on_c, 1, 88, 127
2, 56920, Note_on_c, 1, 57, 127
2, 56920, Note_off_c, 1, 61, 0
2, 56920, Note_on_c, 1, 62, 127
2, 56920, Note_on_c, 1, 66, 127
2, 56920, Note_off_c, 1, 76, 0
2, 56920, Note_off_c, 1, 82, 0
2, 56920, Note_off_c, 1, 88, 0
2, 56920, Note_on_c, 1, 92, 127
2, 56920, Note_on_c, 1, 101, 127
2, 56920, Note_on_c, 1, 104, 127
2, 56960, Note_on_c, 1, 54, 127
2, 56960, Note_off_c, 1, 57, 0
2, 56960, Note_on_c, 1, 59, 127
2, 56960, Note_off_c, 1, 62, 0
2, 56960, Note_on_c, 1, 68, 127
2, 56960, Note_on_c, 1, 80, 127
2, 56960, Note_off_c, 1, 92, 0
2, 56960, Note_off_c, 1, 101, 0
2, 56960, Note_off_c, 1, 104, 0
2, 57000, Note_on_c, 1, 46, 127
2, 57000, Note_on_c, 1, 50, 127
2, 57000, Note_off_c, 1, 59, 0
2, 57000, Note_on_c, 1, 60, 127
2, 57000, Note_off_c, 1, 66, 0
2, 57000, Note_off_c, 1, 68, 0
2, 57000, Note_on_c, 1, 69, 127
2, 57000, Note_off_c, 1, 80, 0
2, 57040, Note_on_c, 1, 37, 127
2, 57040, Note_on_c, 1, 45, 127
2, 57040, Note_off_c, 1, 46, 0
2, 57040, Note_on_c, 1, 49, 127
2, 57040, Note_off_c, 1, 50, 0
2, 57040, Note_off_c, 1, 54, 0
2, 57040, Note_off_c, 1, 60, 0
2, 57040, Note_off_c, 1, 69, 0
2, 57040, Note_on_c, 1, 74, 127
2, 57040, Note_on_c, 1, 86, 127
2, 57080, Note_off_c, 1, 37, 0
2, 57080, Note_off_c, 1, 45, 0
2, 57080, Note_off_c, 1, 49, 0
2, 57080, Note_on_c, 1, 69, 127
2, 57080, Note_off_c, 1, 74, 0
2, 57080, Note_on_c, 1, 81, 127
2, 57080, Note_on_c, 1, 84, 127
2, 57080, Note_off_c, 1, 86, 0
2, 57080, Note_on_c, 1, 87, 127
2, 57080, Note_on_c, 1, 93, 127
2, 57120, Note_on_c, 1, 43, 127
2, 57120, Note_on_c, 1, 48, 127
2, 57120, Note_on_c, 1, 55, 127
2, 57120, Note_on_c, 1, 65, 127
2, 57120, Note_off_c, 1, 69, 0
2, 57120, Note_off_c, 1, 81, 0
2, 57120, Note_off_c, 1, 84, 0
2, 57120, Note_off_c, 1, 87, 0
2, 57120, Note_off_c, 1, 93, 0
2, 57160, Note_off_c, 1, 43, 0
2, 57160, Note_on_c, 1, 52, 127
2, 57160, Note_off_c, 1, 55, 0
2, 57160, Note_on_c, 1, 57, 127
2, 57160, Note_off_c, 1, 65, 0
2, 57160, Note_on_c, 1, 83, 127
2, 57200, Note_on_c, 1, 39, 127
2, 57200, Note_off_c, 1, 52, 0
2, 57200, Note_off_c, 1, 57, 0
2, 57200, Note_on_c, 1, 58, 127
2, 57200, Note_on_c, 1, 60, 127
2, 57200, Note_on_c, 1, 63, 127
2, 57200, Note_on_c, 1, 67, 127
2, 57200, Note_off_c, 1, 83, 0
2, 57240, Note_off_c, 1, 39, 0
2, 57240, Note_off_c, 1, 48, 0
2, 57240, Note_off_c, 1, 58, 0
2, 57240, Note_off_c, 1, 60, 0
2, 57240, Note_off_c, 1, 63, 0
2, 57240, Note_off_c, 1, 67, 0
2, 57280, Note_on_c, 1, 45, 127
2, 57280, Note_on_c, 1, 48, 127
2, 57280, Note_on_c, 1, 54, 127
2, 57280, Note_on_c, 1, 64, 127
2, 58440, Note_off_c, 1, 45, 0
2, 58440, Note_off_c, 1, 48, 0
2, 58440, Note_off_c, 1, 54, 0
2, 58440, Note_off_c, 1, 64, 0
2, 58480, Note_on_c, 1, 45, 127
2, 58480, Note_on_c, 1, 48, 127
2, 58480, Note_on_c, 1, 54, 127
2, 58480, Note_on_c, 1, 64, 127
2, 58920, Note_off_c, 1, 45, 0
2, 58920, Note_off_c, 1, 48, 0
2, 58920, Note_off_c, 1, 54, 0
2, 58920, Note_off_c, 1, 64, 0
2, 58960, Note_on_c, 1, 35, 127
2, 58960, Note_on_c, 1, 47, 127
2, 58960, Note_on_c, 1, 64, 127
2, 58960, Note_on_c, 1, 68, 127
2, 58960, Note_on_c, 1, 71, 127
2, 58960, Note_on_c, 1, 76, 127
2, 59560, Note_off_c, 1, 35, 0
2, 59560, Note_off_c, 1, 47, 0
2, 59560, Note_off_c, 1, 64, 0
2, 59560, Note_off_c, 1, 68, 0
2, 59560, Note_off_c, 1, 71, 0
2, 59560, Note_off_c, 1, 76, 0
2, 59560, Note_on_c, 1, 80, 127
2, 59560, Note_on_c, 1, 88, 127
2, 59560, Note_on_c, 1, 92, 127
2, 59600, Note_on_c, 1, 72, 127
2, 59600, Note_on_c, 1, 74, 127
2, 59600, Note_on_c, 1, 79, 127
2, 59600, Note_off_c, 1, 80, 0
2, 59600, Note_off_c, 1, 88, 0
2, 59600, Note_on_c, 1, 89, 127
2, 59600, Note_on_c, 1, 91, 127
2, 59600, Note_off_c, 1, 92, 0
2, 59600, Note_on_c, 1, 95, 127
2, 59640, Note_on_c, 1, 47, 127
2, 59640, Note_on_c, 1, 56, 127
2, 59640, Note_on_c, 1, 68, 127
2, 59640, Note_off_c, 1, 72, 0
2, 59640, Note_off_c, 1, 74, 0
2, 59640, Note_on_c, 1, 76, 127
2, 59640, Note_off_c, 1, 79, 0
2, 59640, Note_off_c, 1, 89, 0
2, 59640, Note_off_c, 1, 91, 0
2, 59640, Note_off_c, 1, 95, 0
2, 59680, Note_off_c, 1, 47, 0
2, 59680, Note_off_c, 1, 56, 0
2, 59680, Note_off_c, 1, 68, 0
2, 59680, Note_on_c, 1, 72, 127
2, 59680, Note_on_c, 1, 74, 127
2, 59680, Note_off_c, 1, 76, 0
2, 59680, Note_on_c, 1, 79, 127
2, 59680, Note_on_c, 1, 89, 127
2, 59680, Note_on_c, 1, 91, 127
2, 59680, Note_on_c, 1, 95, 127
2, 59800, Note_off_c, 1, 79, 0
2, 59800, Note_on_c, 1, 80, 127
2, 59880, Note_on_c, 1, 79, 127
2, 59880, Note_off_c, 1, 80, 0
2, 59920, Note_off_c, 1, 79, 0
2, 59920, Note_on_c, 1, 80, 127
2, 59960, Note_off_c, 1, 72, 0
2, 59960, Note_off_c, 1, 74, 0
2, 59960, Note_off_c, 1, 80, 0
2, 59960, Note_off_c, 1, 89, 0
2, 59960, Note_off_c, 1, 91, 0
2, 59960, Note_off_c, 1, 95, 0
2, 60000, Note_on_c, 1, 54, 127
2, 60000, Note_on_c, 1, 61, 127
2, 60000, Note_on_c, 1, 70, 127
2, 60000, Note_on_c, 1, 73, 127
2, 60000, Note_on_c, 1, 82, 127
2, 60000, Note_on_c, 1, 85, 127
2, 60360, Note_off_c, 1, 54, 0
2, 60360, Note_off_c, 1, 61, 0
2, 60360, Note_off_c, 1, 70, 0
2, 60360, Note_off_c, 1, 73, 0
2, 60360, Note_off_c, 1, 82, 0
2, 60360, Note_off_c, 1, 85, 0
2, 60480, Note_on_c, 1, 41, 127
2, 60480, Note_on_c, 1, 53, 127
2, 60480, Note_on_c, 1, 86, 127
2, 60480, Note_on_c, 1, 98, 127
2, 60840, Note_off_c, 1, 41, 0
2, 60840, Note_off_c, 1, 53, 0
2, 60840, Note_off_c, 1, 86, 0
2, 60840, Note_off_c, 1, 98, 0
2, 60880, Note_on_c, 1, 51, 127
2, 60880, Note_on_c, 1, 61, 127
2, 60880, Note_on_c, 1, 66, 127
2, 60880, Note_on_c, 1, 77, 127
2, 60920, Note_off_c, 1, 51, 0
2, 60920, Note_on_c, 1, 53, 127
2, 60920, Note_on_c, 1, 60, 127
2, 60920, Note_off_c, 1, 61, 0
2, 60920, Note_off_c, 1, 66, 0
2, 60920, Note_on_c, 1, 75, 127
2, 60920, Note_off_c, 1, 77, 0
2, 60920, Note_on_c, 1, 80, 127
2, 60960, Note_on_c, 1, 51, 127
2, 60960, Note_off_c, 1, 53, 0
2, 60960, Note_off_c, 1, 60, 0
2, 60960, Note_on_c, 1, 61, 127
2, 60960, Note_off_c, 1, 75, 0
2, 60960, Note_on_c, 1, 78, 127
2, 60960, Note_off_c, 1, 80, 0
2, 60960, Note_on_c, 1, 81, 127
2, 61000, Note_off_c, 1, 51, 0
2, 61000, Note_on_c, 1, 53, 127
2, 61000, Note_on_c, 1, 60, 127
2, 61000, Note_off_c, 1, 61, 0
2, 61000, Note_on_c, 1, 75, 127
2, 61000, Note_off_c, 1, 78, 0
2, 61000, Note_on_c, 1, 80, 127
2, 61000, Note_off_c, 1, 81, 0
2, 61240, Note_off_c, 1, 53, 0
2, 61240, Note_off_c, 1, 60, 0
2, 61240, Note_on_c, 1, 62, 127
2, 61240, Note_on_c, 1, 65, 127
2, 61240, Note_off_c, 1, 80, 0
2, 61240, Note_on_c, 1, 84, 127
2, 61240, Note_on_c, 1, 87, 127
2, 61280, Note_off_c, 1, 62, 0
2, 61280, Note_off_c, 1, 65, 0
2, 61280, Note_off_c, 1, 75, 0
2, 61280, Note_off_c, 1, 84, 0
2, 61280, Note_off_c, 1, 87, 0
2, 61320, Note_on_c, 1, 41, 127
2, 61320, Note_on_c, 1, 47, 127
2, 61320, Note_on_c, 1, 53, 127
2, 61320, Note_on_c, 1, 80, 127
2, 61320, Note_on_c, 1, 86, 127
2, 61320, Note_on_c, 1, 92, 127
2, 61360, Note_off_c, 1, 41, 0
2, 61360, Note_off_c, 1, 47, 0
2, 61360, Note_off_c, 1, 53, 0
2, 61360, Note_on_c, 1, 66, 127
2, 61360, Note_on_c, 1, 69, 127
2, 61360, Note_off_c, 1, 80, 0
2, 61360, Note_on_c, 1, 85, 127
2, 61360, Note_off_c, 1, 86, 0
2, 61360, Note_off_c, 1, 92, 0
2, 61360, Note_on_c, 1, 93, 127
2, 61400, Note_on_c, 1, 41, 127
2, 61400, Note_on_c, 1, 47, 127
2, 61400, Note_on_c, 1, 53, 127
2, 61400, Note_off_c, 1, 66, 0
2, 61400, Note_off_c, 1, 69, 0
2, 61400, Note_on_c, 1, 80, 127
2, 61400, Note_off_c, 1, 85, 0
2, 61400, Note_on_c, 1, 86, 127
2, 61400, Note_on_c, 1, 92, 127
2, 61400, Note_off_c, 1, 93, 0
2, 61520, Note_off_c, 1, 47, 0
2, 61520, Note_on_c, 1, 65, 127
2, 61520, Note_on_c, 1, 68, 127
2, 61520, Note_on_c, 1, 73, 127
2, 61520, Note_on_c, 1, 77, 127
2, 61520, Note_off_c, 1, 80, 0
2, 61520, Note_off_c, 1, 86, 0
2, 61520, Note_off_c, 1, 92, 0
2, 61560, Note_on_c, 1, 47, 127
2, 61560, Note_off_c, 1, 65, 0
2, 61560, Note_off_c, 1, 68, 0
2, 61560, Note_off_c, 1, 73, 0
2, 61560, Note_off_c, 1, 77, 0
2, 61560, Note_on_c, 1, 80, 127
2, 61560, Note_on_c, 1, 86, 127
2, 61560, Note_on_c, 1, 92, 127
2, 61680, Note_off_c, 1, 41, 0
2, 61680, Note_off_c, 1, 47, 0
2, 61680, Note_off_c, 1, 53, 0
2, 61680, Note_off_c, 1, 80, 0
2, 61680, Note_off_c, 1, 86, 0
2, 61680, Note_off_c, 1, 92, 0
2, 61720, Note_on_c, 1, 47, 127
2, 61720, Note_on_c, 1, 59, 127
2, 61720, Note_on_c, 1, 65, 127
2, 61720, Note_on_c, 1, 74, 127
2, 62080, Note_off_c, 1, 47, 0
2, 62080, Note_off_c, 1, 59, 0
2, 62120, Note_on_c, 1, 58, 127
2, 62120, Note_on_c, 1, 64, 127
2, 62120, Note_off_c, 1, 65, 0
2, 62120, Note_on_c, 1, 66, 127
2, 62120, Note_on_c, 1, 70, 127
2, 62120, Note_off_c, 1, 74, 0
2, 62120, Note_on_c, 1, 75, 127
2, 62120, Note_on_c, 1, 78, 127
2, 62160, Note_off_c, 1, 58, 0
2, 62160, Note_off_c, 1, 64, 0
2, 62160, Note_off_c, 1, 66, 0
2, 62160, Note_on_c, 1, 68, 127
2, 62160, Note_off_c, 1, 70, 0
2, 62160, Note_on_c, 1, 77, 127
2, 62160, Note_off_c, 1, 78, 0
2, 62160, Note_on_c, 1, 80, 127
2, 62200, Note_on_c, 1, 58, 127
2, 62200, Note_on_c, 1, 64, 127
2, 62200, Note_on_c, 1, 66, 127
2, 62200, Note_off_c, 1, 68, 0
2, 62200, Note_on_c, 1, 70, 127
2, 62200, Note_off_c, 1, 77, 0
2, 62200, Note_on_c, 1, 78, 127
2, 62200, Note_off_c, 1, 80, 0
2, 62440, Note_off_c, 1, 58, 0
2, 62440, Note_off_c, 1, 64, 0
2, 62440, Note_off_c, 1, 66, 0
2, 62440, Note_off_c, 1, 70, 0
2, 62440, Note_off_c, 1, 75, 0
2, 62440, Note_off_c, 1, 78, 0
2, 62480, Note_on_c, 1, 58, 127
2, 62480, Note_on_c, 1, 64, 127
2, 62480, Note_on_c, 1, 66, 127
2, 62480, Note_on_c, 1, 70, 127
2, 62480, Note_on_c, 1, 75, 127
2, 62480, Note_on_c, 1, 78, 127
2, 62520, Note_off_c, 1, 58, 0
2, 62520, Note_off_c, 1, 64, 0
2, 62520, Note_off_c, 1, 66, 0
2, 62520, Note_off_c, 1, 70, 0
2, 62520, Note_off_c, 1, 75, 0
2, 62520, Note_off_c, 1, 78, 0
2, 62560, Note_on_c, 1, 51, 127
2, 62560, Note_on_c, 1, 58, 127
2, 62560, Note_on_c, 1, 84, 127
2, 62920, Note_off_c, 1, 51, 0
2, 62920, Note_off_c, 1, 58, 0
2, 62920, Note_on_c, 1, 82, 127
2, 62920, Note_off_c, 1, 84, 0
2, 62960, Note_on_c, 1, 62, 127
2, 62960, Note_off_c, 1, 82, 0
2, 62960, Note_on_c, 1, 84, 127
2, 62960, Note_on_c, 1, 89, 127
2, 63040, Note_on_c, 1, 55, 127
2, 63040, Note_off_c, 1, 62, 0
2, 63040, Note_on_c, 1, 82, 127
2, 63040, Note_off_c, 1, 89, 0
2, 63080, Note_off_c, 1, 55, 0
2, 63080, Note_on_c, 1, 65, 127
2, 63080, Note_on_c, 1, 69, 127
2, 63080, Note_on_c, 1, 72, 127
2, 63080, Note_on_c, 1, 75, 127
2, 63080, Note_off_c, 1, 82, 0
2, 63080, Note_off_c, 1, 84, 0
2, 63080, Note_on_c, 1, 85, 127
2, 63120, Note_on_c, 1, 48, 127
2, 63120, Note_on_c, 1, 59, 127
2, 63120, Note_off_c, 1, 65, 0
2, 63120, Note_off_c, 1, 69, 0
2, 63120, Note_off_c, 1, 72, 0
2, 63120, Note_off_c, 1, 75, 0
2, 63120, Note_on_c, 1, 76, 127
2, 63120, Note_off_c, 1, 85, 0
2, 63160, Note_off_c, 1, 48, 0
2, 63160, Note_off_c, 1, 59, 0
2, 63160, Note_on_c, 1, 62, 127
2, 63160, Note_off_c, 1, 76, 0
2, 63160, Note_on_c, 1, 84, 127
2, 63160, Note_on_c, 1, 89, 127
2, 63200, Note_on_c, 1, 33, 127
2, 63200, Note_off_c, 1, 62, 0
2, 63200, Note_off_c, 1, 84, 0
2, 63200, Note_on_c, 1, 87, 127
2, 63200, Note_off_c, 1, 89, 0
2, 63200, Note_on_c, 1, 90, 127
2, 63240, Note_off_c, 1, 33, 0
2, 63240, Note_on_c, 1, 44, 127
2, 63240, Note_on_c, 1, 56, 127
2, 63240, Note_on_c, 1, 76, 127
2, 63240, Note_on_c, 1, 80, 127
2, 63240, Note_on_c, 1, 85, 127
2, 63240, Note_off_c, 1, 87, 0
2, 63240, Note_on_c, 1, 88, 127
2, 63240, Note_off_c, 1, 90, 0
2, 63280, Note_on_c, 1, 41, 127
2, 63280, Note_off_c, 1, 44, 0
2, 63280, Note_on_c, 1, 53, 127
2, 63280, Note_off_c, 1, 56, 0
2, 63280, Note_on_c, 1, 63, 127
2, 63280, Note_on_c, 1, 75, 127
2, 63280, Note_off_c, 1, 76, 0
2, 63280, Note_off_c, 1, 80, 0
2, 63280, Note_off_c, 1, 88, 0
2, 63280, Note_on_c, 1, 97, 127
2, 63320, Note_off_c, 1, 41, 0
2, 63320, Note_off_c, 1, 53, 0
2, 63320, Note_off_c, 1, 63, 0
2, 63320, Note_off_c, 1, 75, 0
2, 63320, Note_on_c, 1, 82, 127
2, 63320, Note_off_c, 1, 85, 0
2, 63320, Note_off_c, 1, 97, 0
2, 63360, Note_on_c, 1, 41, 127
2, 63360, Note_on_c, 1, 45, 127
2, 63360, Note_on_c, 1, 53, 127
2, 63360, Note_off_c, 1, 82, 0
2, 63720, Note_off_c, 1, 41, 0
2, 63720, Note_off_c, 1, 45, 0
2, 63720, Note_off_c, 1, 53, 0
2, 63760, Note_on_c, 1, 54, 127
2, 63760, Note_on_c, 1, 61, 127
2, 63760, Note_on_c, 1, 63, 127
2, 63760, Note_on_c, 1, 66, 127
2, 63760, Note_on_c, 1, 70, 127
2, 63800, Note_on_c, 1, 48, 127
2, 63800, Note_off_c, 1, 54, 0
2, 63800, Note_on_c, 1, 60, 127
2, 63800, Note_off_c, 1, 61, 0
2, 63800, Note_off_c, 1, 63, 0
2, 63800, Note_on_c, 1, 65, 127
2, 63800, Note_off_c, 1, 66, 0
2, 63800, Note_on_c, 1, 68, 127
2, 63800, Note_off_c, 1, 70, 0
2, 63800, Note_on_c, 1, 72, 127
2, 64440, Note_on_c, 1, 55, 127
2, 64440, Note_off_c, 1, 60, 0
2, 64440, Note_on_c, 1, 64, 127
2, 64440, Note_off_c, 1, 65, 0
2, 64440, Note_off_c, 1, 68, 0
2, 64440, Note_on_c, 1, 70, 127
2, 64440, Note_off_c, 1, 72, 0
2, 64440, Note_on_c, 1, 76, 127
2, 64480, Note_off_c, 1, 55, 0
2, 64480, Note_on_c, 1, 60, 127
2, 64480, Note_off_c, 1, 64, 0
2, 64480, Note_on_c, 1, 65, 127
2, 64480, Note_on_c, 1, 68, 127
2, 64480, Note_off_c, 1, 70, 0
2, 64480, Note_on_c, 1, 72, 127
2, 64480, Note_off_c, 1, 76, 0
2, 64520, Note_off_c, 1, 48, 0
2, 64520, Note_off_c, 1, 60, 0
2, 64520, Note_off_c, 1, 65, 0
2, 64520, Note_off_c, 1, 68, 0
2, 64520, Note_off_c, 1, 72, 0
2, 64600, Note_on_c, 1, 41, 127
2, 64600, Note_on_c, 1, 67, 127
2, 64600, Note_on_c, 1, 68, 127
2, 64600, Note_on_c, 1, 72, 127
2, 64640, Note_off_c, 1, 41, 0
2, 64640, Note_on_c, 1, 48, 127
2, 64640, Note_on_c, 1, 55, 127
2, 64640, Note_on_c, 1, 64, 127
2, 64640, Note_off_c, 1, 67, 0
2, 64640, Note_off_c, 1, 68, 0
2, 64640, Note_on_c, 1, 70, 127
2, 64680, Note_on_c, 1, 30, 127
2, 64680, Note_on_c, 1, 46, 127
2, 64680, Note_off_c, 1, 48, 0
2, 64680, Note_off_c, 1, 55, 0
2, 64680, Note_off_c, 1, 64, 0
2, 64680, Note_off_c, 1, 70, 0
2, 64680, Note_off_c, 1, 72, 0
2, 64720, Note_off_c, 1, 30, 0
2, 64720, Note_off_c, 1, 46, 0
2, 64720, Note_on_c, 1, 55, 127
2, 64720, Note_on_c, 1, 60, 127
2, 64720, Note_on_c, 1, 63, 127
2, 64720, Note_on_c, 1, 66, 127
2, 64720, Note_on_c, 1, 93, 127
2, 64760, Note_on_c, 1, 37, 127
2, 64760, Note_on_c, 1, 44, 127
2, 64760, Note_off_c, 1, 55, 0
2, 64760, Note_off_c, 1, 60, 0
2, 64760, Note_off_c, 1, 63, 0
2, 64760, Note_on_c, 1, 64, 127
2, 64760, Note_off_c, 1, 66, 0
2, 64760, Note_on_c, 1, 68, 127
2, 64760, Note_on_c, 1, 75, 127
2, 64760, Note_on_c, 1, 76, 127
2, 64760, Note_off_c, 1, 93, 0
2, 64800, Note_off_c, 1, 37, 0
2, 64800, Note_off_c, 1, 44, 0
2, 64800, Note_on_c, 1, 47, 127
2, 64800, Note_on_c, 1, 56, 127
2, 64800, Note_on_c, 1, 62, 127
2, 64800, Note_off_c, 1, 64, 0
2, 64800, Note_on_c, 1, 66, 127
2, 64800, Note_off_c, 1, 68, 0
2, 64800, Note_on_c, 1, 71, 127
2, 64800, Note_off_c, 1, 75, 0
2, 64800, Note_off_c, 1, 76, 0
2, 64840, Note_on_c, 1, 41, 127
2, 64840, Note_off_c, 1, 47, 0
2, 64840, Note_off_c, 1, 56, 0
2, 64840, Note_on_c, 1, 57, 127
2, 64840, Note_on_c, 1, 61, 127
2, 64840, Note_off_c, 1, 62, 0
2, 64840, Note_off_c, 1, 66, 0
2, 64840, Note_on_c, 1, 69, 127
2, 64840, Note_off_c, 1, 71, 0
2, 64880, Note_on_c, 1, 35, 127
2, 64880, Note_on_c, 1, 38, 127
2, 64880, Note_off_c, 1, 41, 0
2, 64880, Note_on_c, 1, 47, 127
2, 64880, Note_off_c, 1, 57, 0
2, 64880, Note_off_c, 1, 61, 0
2, 64880, Note_on_c, 1, 65, 127
2, 64880, Note_off_c, 1, 69, 0
2, 64920, Note_on_c, 1, 34, 127
2, 64920, Note_off_c, 1, 35, 0
2, 64920, Note_off_c, 1, 38, 0
2, 64920, Note_on_c, 1, 46, 127
2, 64920, Note_off_c, 1, 47, 0
2, 64920, Note_on_c, 1, 67, 127
2, 64920, Note_on_c, 1, 77, 127
2, 64960, Note_off_c, 1, 34, 0
2, 64960, Note_off_c, 1, 46, 0
2, 64960, Note_on_c, 1, 58, 127
2, 64960, Note_on_c, 1, 62, 127
2, 64960, Note_off_c, 1, 67, 0
2, 64960, Note_on_c, 1, 70, 127
2, 64960, Note_on_c, 1, 74, 127
2, 64960, Note_off_c, 1, 77, 0
2, 64960, Note_on_c, 1, 79, 127
2, 65000, Note_off_c, 1, 58, 0
2, 65000, Note_off_c, 1, 62, 0
2, 65000, Note_off_c, 1, 65, 0
2, 65000, Note_off_c, 1, 70, 0
2, 65000, Note_off_c, 1, 74, 0
2, 65000, Note_off_c, 1, 79, 0
2, 65040, Note_on_c, 1, 36, 127
2, 65040, Note_on_c, 1, 43, 127
2, 65040, Note_on_c, 1, 48, 127
2, 65040, Note_on_c, 1, 67, 127
2, 65040, Note_on_c, 1, 79, 127
2, 66200, Note_off_c, 1, 36, 0
2, 66200, Note_off_c, 1, 43, 0
2, 66200, Note_off_c, 1, 48, 0
2, 66200, Note_off_c, 1, 67, 0
2, 66200, Note_off_c, 1, 79, 0
2, 66240, Note_on_c, 1, 45, 127
2, 66240, Note_on_c, 1, 52, 127
2, 66240, Note_on_c, 1, 55, 127
2, 66240, Note_on_c, 1, 64, 127
2, 66240, Note_on_c, 1, 70, 127
2, 66240, Note_on_c, 1, 74, 127
2, 66240, Note_on_c, 1, 76, 127
2, 66840, Note_off_c, 1, 45, 0
2, 66840, Note_off_c, 1, 52, 0
2, 66840, Note_off_c, 1, 55, 0
2, 66840, Note_off_c, 1, 64, 0
2, 66840, Note_off_c, 1, 70, 0
2, 66840, Note_off_c, 1, 74, 0
2, 66840, Note_off_c, 1, 76, 0
2, 66880, Note_on_c, 1, 45, 127
2, 66880, Note_on_c, 1, 52, 127
2, 66880, Note_on_c, 1, 55, 127
2, 66880, Note_on_c, 1, 64, 127
2, 66880, Note_on_c, 1, 70, 127
2, 66880, Note_on_c, 1, 74, 127
2, 66880, Note_on_c, 1, 76, 127
2, 67040, Note_off_c, 1, 45, 0
2, 67040, Note_off_c, 1, 52, 0
2, 67040, Note_off_c, 1, 55, 0
2, 67040, Note_off_c, 1, 64, 0
2, 67040, Note_off_c, 1, 70, 0
2, 67040, Note_off_c, 1, 74, 0
2, 67040, Note_off_c, 1, 76, 0
2, 67080, Note_on_c, 1, 52, 127
2, 67080, Note_on_c, 1, 55, 127
2, 67080, Note_on_c, 1, 70, 127
2, 67080, Note_on_c, 1, 74, 127
2, 67120, Note_on_c, 1, 45, 127
2, 67120, Note_on_c, 1, 64, 127
2, 67120, Note_on_c, 1, 76, 127
2, 67680, Note_off_c, 1, 45, 0
2, 67680, Note_off_c, 1, 52, 0
2, 67680, Note_off_c, 1, 55, 0
2, 67680, Note_off_c, 1, 64, 0
2, 67680, Note_off_c, 1, 70, 0
2, 67680, Note_off_c, 1, 74, 0
2, 67680, Note_off_c, 1, 76, 0
2, 67720, Note_on_c, 1, 61, 127
2, 67720, Note_on_c, 1, 66, 127
2, 67720, Note_on_c, 1, 70, 127
2, 67720, Note_on_c, 1, 77, 127
2, 67720, Note_on_c, 1, 82, 127
2, 67760, Note_on_c, 1, 56, 127
2, 67760, Note_off_c, 1, 61, 0
2, 67760, Note_off_c, 1, 66, 0
2, 67760, Note_on_c, 1, 68, 127
2, 67760, Note_off_c, 1, 70, 0
2, 67760, Note_on_c, 1, 73, 127
2, 67760, Note_on_c, 1, 76, 127
2, 67760, Note_off_c, 1, 77, 0
2, 67760, Note_on_c, 1, 80, 127
2, 67760, Note_off_c, 1, 82, 0
2, 67760, Note_on_c, 1, 85, 127
2, 67800, Note_off_c, 1, 56, 0
2, 67800, Note_on_c, 1, 59, 127
2, 67800, Note_on_c, 1, 61, 127
2, 67800, Note_on_c, 1, 67, 127
2, 67800, Note_off_c, 1, 68, 0
2, 67800, Note_on_c, 1, 70, 127
2, 67800, Note_off_c, 1, 73, 0
2, 67800, Note_on_c, 1, 79, 127
2, 67800, Note_off_c, 1, 80, 0
2, 67800, Note_on_c, 1, 82, 127
2, 67800, Note_off_c, 1, 85, 0
2, 67800, Note_on_c, 1, 88, 127
2, 67840, Note_off_c, 1, 59, 0
2, 67840, Note_on_c, 1, 66, 127
2, 67840, Note_off_c, 1, 67, 0
2, 67840, Note_off_c, 1, 76, 0
2, 67840, Note_on_c, 1, 77, 127
2, 67840, Note_off_c, 1, 79, 0
2, 67840, Note_off_c, 1, 88, 0
2, 67880, Note_off_c, 1, 61, 0
2, 67880, Note_off_c, 1, 66, 0
2, 67880, Note_off_c, 1, 70, 0
2, 67880, Note_off_c, 1, 77, 0
2, 67880, Note_off_c, 1, 82, 0
2, 67880, Note_on_c, 1, 89, 127
2, 67880, Note_on_c, 1, 92, 127
2, 67880, Note_on_c, 1, 97, 127
2, 67880, Note_on_c, 1, 101, 127
2, 67920, Note_on_c, 1, 58, 127
2, 67920, Note_on_c, 1, 63, 127
2, 67920, Note_on_c, 1, 81, 127
2, 67920, Note_on_c, 1, 84, 127
2, 67920, Note_off_c, 1, 89, 0
2, 67920, Note_on_c, 1, 90, 127
2, 67920, Note_off_c, 1, 92, 0
2, 67920, Note_off_c, 1, 97, 0
2, 67920, Note_off_c, 1, 101, 0
2, 68000, Note_off_c, 1, 58, 0
2, 68040, Note_on_c, 1, 52, 127
2, 68040, Note_off_c, 1, 63, 0
2, 68040, Note_on_c, 1, 64, 127
2, 68040, Note_off_c, 1, 81, 0
2, 68040, Note_off_c, 1, 84, 0
2, 68040, Note_off_c, 1, 90, 0
2, 68040, Note_on_c, 1, 93, 127
2, 68040, Note_on_c, 1, 97, 127
2, 68040, Note_on_c, 1, 100, 127
2, 68040, Note_on_c, 1, 105, 127
2, 68080, Note_on_c, 1, 33, 127
2, 68080, Note_on_c, 1, 40, 127
2, 68080, Note_on_c, 1, 45, 127
2, 68080, Note_off_c, 1, 52, 0
2, 68080, Note_off_c, 1, 64, 0
2, 68080, Note_off_c, 1, 93, 0
2, 68080, Note_off_c, 1, 97, 0
2, 68080, Note_off_c, 1, 100, 0
2, 68080, Note_off_c, 1, 105, 0
2, 68120, Note_off_c, 1, 33, 0
2, 68120, Note_off_c, 1, 40, 0
2, 68120, Note_on_c, 1, 41, 127
2, 68120, Note_off_c, 1, 45, 0
2, 68120, Note_on_c, 1, 46, 127
2, 68120, Note_on_c, 1, 61, 127
2, 68120, Note_on_c, 1, 70, 127
2, 68160, Note_on_c, 1, 37, 127
2, 68160, Note_on_c, 1, 40, 127
2, 68160, Note_off_c, 1, 41, 0
2, 68160, Note_off_c, 1, 46, 0
2, 68160, Note_on_c, 1, 49, 127
2, 68160, Note_off_c, 1, 61, 0
2, 68160, Note_off_c, 1, 70, 0
2, 68480, Note_off_c, 1, 37, 0
2, 68480, Note_off_c, 1, 40, 0
2, 68480, Note_off_c, 1, 49, 0
2, 68520, Note_on_c, 1, 67, 127
2, 68520, Note_on_c, 1, 70, 127
2, 68520, Note_on_c, 1, 73, 127
2, 68520, Note_on_c, 1, 76, 127
2, 68520, Note_on_c, 1, 82, 127
2, 68920, Note_on_c, 1, 35, 127
2, 68920, Note_on_c, 1, 44, 127
2, 68920, Note_off_c, 1, 67, 0
2, 68920, Note_off_c, 1, 70, 0
2, 68920, Note_off_c, 1, 73, 0
2, 68920, Note_off_c, 1, 76, 0
2, 68920, Note_on_c, 1, 80, 127
2, 68920, Note_off_c, 1, 82, 0
2, 68960, Note_off_c, 1, 35, 0
2, 68960, Note_off_c, 1, 44, 0
2, 68960, Note_off_c, 1, 80, 0
2, 69000, Note_on_c, 1, 28, 127
2, 69000, Note_on_c, 1, 33, 127
2, 69000, Note_on_c, 1, 35, 127
2, 69000, Note_on_c, 1, 62, 127
2, 69040, Note_off_c, 1, 28, 0
2, 69040, Note_off_c, 1, 33, 0
2, 69040, Note_off_c, 1, 35, 0
2, 69040, Note_on_c, 1, 47, 127
2, 69040, Note_on_c, 1, 54, 127
2, 69040, Note_on_c, 1, 57, 127
2, 69040, Note_off_c, 1, 62, 0
2, 69040, Note_on_c, 1, 78, 127
2, 69080, Note_off_c, 1, 47, 0
2, 69080, Note_on_c, 1, 49, 127
2, 69080, Note_off_c, 1, 54, 0
2, 69080, Note_on_c, 1, 61, 127
2, 69080, Note_on_c, 1, 72, 127
2, 69080, Note_off_c, 1, 78, 0
2, 69120, Note_on_c, 1, 39, 127
2, 69120, Note_on_c, 1, 46, 127
2, 69120, Note_off_c, 1, 49, 0
2, 69120, Note_off_c, 1, 57, 0
2, 69120, Note_off_c, 1, 61, 0
2, 69120, Note_on_c, 1, 67, 127
2, 69120, Note_on_c, 1, 70, 127
2, 69120, Note_off_c, 1, 72, 0
2, 69120, Note_on_c, 1, 75, 127
2, 69160, Note_off_c, 1, 39, 0
2, 69160, Note_off_c, 1, 46, 0
2, 69160, Note_on_c, 1, 51, 127
2, 69160, Note_on_c, 1, 63, 127
2, 69160, Note_on_c, 1, 66, 127
2, 69160, Note_off_c, 1, 67, 0
2, 69160, Note_on_c, 1, 69, 127
2, 69160, Note_off_c, 1, 70, 0
2, 69160, Note_off_c, 1, 75, 0
2, 69200, Note_off_c, 1, 51, 0
2, 69200, Note_on_c, 1, 55, 127
2, 69200, Note_on_c, 1, 58, 127
2, 69200, Note_on_c, 1, 61, 127
2, 69200, Note_off_c, 1, 66, 0
2, 69200, Note_off_c, 1, 69, 0
2, 69200, Note_on_c, 1, 84, 127
2, 69240, Note_off_c, 1, 55, 0
2, 69240, Note_off_c, 1, 58, 0
2, 69240, Note_on_c, 1, 59, 127
2, 69240, Note_off_c, 1, 61, 0
2, 69240, Note_on_c, 1, 67, 127
2, 69240, Note_on_c, 1, 71, 127
2, 69240, Note_on_c, 1, 75, 127
2, 69240, Note_on_c, 1, 82, 127
2, 69240, Note_off_c, 1, 84, 0
2, 69320, Note_off_c, 1, 59, 0
2, 69320, Note_on_c, 1, 61, 127
2, 69320, Note_off_c, 1, 63, 0
2, 69320, Note_on_c, 1, 65, 127
2, 69320, Note_off_c, 1, 67, 0
2, 69320, Note_off_c, 1, 71, 0
2, 69320, Note_off_c, 1, 75, 0
2, 69320, Note_on_c, 1, 85, 127
2, 69360, Note_off_c, 1, 61, 0
2, 69360, Note_off_c, 1, 65, 0
2, 69360, Note_off_c, 1, 82, 0
2, 69360, Note_on_c, 1, 87, 127
2, 69400, Note_on_c, 1, 64, 127
2, 69400, Note_on_c, 1, 67, 127
2, 69400, Note_on_c, 1, 72, 127
2, 69400, Note_on_c, 1, 82, 127
2, 69400, Note_off_c, 1, 85, 0
2, 69400, Note_off_c, 1, 87, 0
2, 69400, Note_on_c, 1, 91, 127
2, 69560, Note_off_c, 1, 72, 0
2, 69600, Note_on_c, 1, 72, 127
2, 69640, Note_off_c, 1, 72, 0
2, 69640, Note_on_c, 1, 74, 127
2, 69720, Note_on_c, 1, 72, 127
2, 69720, Note_off_c, 1, 74, 0
2, 69760, Note_off_c, 1, 64, 0
2, 69760, Note_off_c, 1, 67, 0
2, 69760, Note_off_c, 1, 72, 0
2, 69760, Note_off_c, 1, 82, 0
2, 69760, Note_off_c, 1, 91, 0
2, 69800, Note_on_c, 1, 64, 127
2, 69800, Note_on_c, 1, 67, 127
2, 69800, Note_on_c, 1, 72, 127
2, 69800, Note_on_c, 1, 82, 127
2, 69800, Note_on_c, 1, 91, 127
2, 70000, Note_off_c, 1, 72, 0
2, 70000, Note_on_c, 1, 74, 127
2, 70040, Note_on_c, 1, 72, 127
2, 70040, Note_off_c, 1, 74, 0
2, 70120, Note_off_c, 1, 72, 0
2, 70120, Note_on_c, 1, 74, 127
2, 70160, Note_off_c, 1, 64, 0
2, 70160, Note_off_c, 1, 67, 0
2, 70160, Note_off_c, 1, 74, 0
2, 70160, Note_off_c, 1, 82, 0
2, 70160, Note_off_c, 1, 91, 0
2, 70240, Note_on_c, 1, 37, 127
2, 70240, Note_on_c, 1, 49, 127
2, 70240, Note_on_c, 1, 80, 127
2, 70240, Note_on_c, 1, 87, 127
2, 70280, Note_on_c, 1, 36, 127
2, 70280, Note_off_c, 1, 37, 0
2, 70280, Note_on_c, 1, 41, 127
2, 70280, Note_on_c, 1, 43, 127
2, 70280, Note_on_c, 1, 48, 127
2, 70280, Note_off_c, 1, 49, 0
2, 70280, Note_on_c, 1, 50, 127
2, 70280, Note_off_c, 1, 80, 0
2, 70280, Note_off_c, 1, 87, 0
2, 70280, Note_on_c, 1, 96, 127
2, 70320, Note_off_c, 1, 36, 0
2, 70320, Note_off_c, 1, 41, 0
2, 70320, Note_off_c, 1, 43, 0
2, 70320, Note_off_c, 1, 48, 0
2, 70320, Note_off_c, 1, 50, 0
2, 70320, Note_on_c, 1, 55, 127
2, 70320, Note_on_c, 1, 68, 127
2, 70320, Note_on_c, 1, 76, 127
2, 70320, Note_on_c, 1, 80, 127
2, 70320, Note_off_c, 1, 96, 0
2, 70360, Note_on_c, 1, 37, 127
2, 70360, Note_on_c, 1, 49, 127
2, 70360, Note_off_c, 1, 55, 0
2, 70360, Note_on_c, 1, 56, 127
2, 70360, Note_on_c, 1, 66, 127
2, 70360, Note_off_c, 1, 68, 0
2, 70360, Note_off_c, 1, 76, 0
2, 70360, Note_off_c, 1, 80, 0
2, 70400, Note_off_c, 1, 37, 0
2, 70400, Note_on_c, 1, 46, 127
2, 70400, Note_off_c, 1, 49, 0
2, 70400, Note_off_c, 1, 56, 0
2, 70400, Note_off_c, 1, 66, 0
2, 70400, Note_on_c, 1, 67, 127
2, 70400, Note_on_c, 1, 70, 127
2, 70400, Note_on_c, 1, 74, 127
2, 70400, Note_on_c, 1, 77, 127
2, 70440, Note_off_c, 1, 46, 0
2, 70440, Note_on_c, 1, 49, 127
2, 70440, Note_on_c, 1, 59, 127
2, 70440, Note_off_c, 1, 67, 0
2, 70440, Note_off_c, 1, 70, 0
2, 70440, Note_off_c, 1, 74, 0
2, 70440, Note_off_c, 1, 77, 0
2, 70440, Note_on_c, 1, 81, 127
2, 70440, Note_on_c, 1, 85, 127
2, 70480, Note_on_c, 1, 51, 127
2, 70480, Note_off_c, 1, 59, 0
2, 70480, Note_on_c, 1, 75, 127
2, 70480, Note_off_c, 1, 81, 0
2, 70480, Note_off_c, 1, 85, 0
2, 70520, Note_off_c, 1, 49, 0
2, 70520, Note_off_c, 1, 51, 0
2, 70520, Note_on_c, 1, 61, 127
2, 70520, Note_on_c, 1, 65, 127
2, 70520, Note_off_c, 1, 75, 0
2, 70520, Note_on_c, 1, 91, 127
2, 70520, Note_on_c, 1, 92, 127
2, 70520, Note_on_c, 1, 94, 127
2, 70560, Note_on_c, 1, 36, 127
2, 70560, Note_off_c, 1, 61, 0
2, 70560, Note_on_c, 1, 64, 127
2, 70560, Note_off_c, 1, 65, 0
2, 70560, Note_on_c, 1, 79, 127
2, 70560, Note_on_c, 1, 84, 127
2, 70560, Note_off_c, 1, 91, 0
2, 70560, Note_off_c, 1, 92, 0
2, 70560, Note_off_c, 1, 94, 0
2, 70600, Note_off_c, 1, 36, 0
2, 70600, Note_on_c, 1, 51, 127
2, 70600, Note_on_c, 1, 58, 127
2, 70600, Note_on_c, 1, 61, 127
2, 70600, Note_off_c, 1, 64, 0
2, 70600, Note_off_c, 1, 84, 0
2, 70600, Note_on_c, 1, 87, 127
2, 70600, Note_on_c, 1, 91, 127
2, 70640, Note_on_c, 1, 41, 127
2, 70640, Note_on_c, 1, 48, 127
2, 70640, Note_off_c, 1, 51, 0
2, 70640, Note_on_c, 1, 53, 127
2, 70640, Note_off_c, 1, 58, 0
2, 70640, Note_off_c, 1, 61, 0
2, 70640, Note_on_c, 1, 72, 127
2, 70640, Note_off_c, 1, 79, 0
2, 70640, Note_on_c, 1, 80, 127
2, 70640, Note_off_c, 1, 87, 0
2, 70640, Note_off_c, 1, 91, 0
2, 71000, Note_off_c, 1, 41, 0
2, 71000, Note_off_c, 1, 48, 0
2, 71000, Note_off_c, 1, 53, 0
2, 71000, Note_on_c, 1, 59, 127
2, 71000, Note_off_c, 1, 72, 0
2, 71000, Note_off_c, 1, 80, 0
2, 71000, Note_on_c, 1, 87, 127
2, 71040, Note_off_c, 1, 59, 0
2, 71040, Note_off_c, 1, 87, 0
2, 71080, Note_on_c, 1, 44, 127
2, 71080, Note_on_c, 1, 45, 127
2, 71080, Note_on_c, 1, 64, 127
2, 71080, Note_on_c, 1, 74, 127
2, 71120, Note_off_c, 1, 44, 0
2, 71120, Note_off_c, 1, 45, 0
2, 71120, Note_on_c, 1, 55, 127
2, 71120, Note_off_c, 1, 64, 0
2, 71120, Note_off_c, 1, 74, 0
2, 71120, Note_on_c, 1, 76, 127
2, 71120, Note_on_c, 1, 82, 127
2, 71160, Note_on_c, 1, 39, 127
2, 71160, Note_on_c, 1, 48, 127
2, 71160, Note_off_c, 1, 55, 0
2, 71160, Note_on_c, 1, 63, 127
2, 71160, Note_on_c, 1, 66, 127
2, 71160, Note_off_c, 1, 76, 0
2, 71160, Note_off_c, 1, 82, 0
2, 71200, Note_on_c, 1, 36, 127
2, 71200, Note_off_c, 1, 39, 0
2, 71200, Note_off_c, 1, 48, 0
2, 71200, Note_on_c, 1, 57, 127
2, 71200, Note_off_c, 1, 63, 0
2, 71240, Note_off_c, 1, 36, 0
2, 71240, Note_off_c, 1, 57, 0
2, 71240, Note_on_c, 1, 62, 127
2, 71240, Note_on_c, 1, 65, 127
2, 71240, Note_off_c, 1, 66, 0
2, 71240, Note_on_c, 1, 69, 127
2, 71240, Note_on_c, 1, 77, 127
2, 71240, Note_on_c, 1, 81, 127
2, 71240, Note_on_c, 1, 89, 127
2, 71280, Note_off_c, 1, 65, 0
2, 71280, Note_on_c, 1, 66, 127
2, 71280, Note_on_c, 1, 72, 127
2, 71280, Note_on_c, 1, 76, 127
2, 71280, Note_off_c, 1, 77, 0
2, 71280, Note_off_c, 1, 81, 0
2, 71280, Note_off_c, 1, 89, 0
2, 71280, Note_on_c, 1, 90, 127
2, 71280, Note_on_c, 1, 100, 127
2, 71320, Note_off_c, 1, 62, 0
2, 71320, Note_off_c, 1, 66, 0
2, 71320, Note_on_c, 1, 68, 127
2, 71320, Note_off_c, 1, 69, 0
2, 71320, Note_off_c, 1, 72, 0
2, 71320, Note_on_c, 1, 75, 127
2, 71320, Note_off_c, 1, 76, 0
2, 71320, Note_on_c, 1, 80, 127
2, 71320, Note_on_c, 1, 83, 127
2, 71320, Note_on_c, 1, 87, 127
2, 71320, Note_off_c, 1, 90, 0
2, 71320, Note_on_c, 1, 95, 127
2, 71320, Note_off_c, 1, 100, 0
2, 71360, Note_on_c, 1, 42, 127
2, 71360, Note_off_c, 1, 68, 0
2, 71360, Note_off_c, 1, 75, 0
2, 71360, Note_off_c, 1, 80, 0
2, 71360, Note_on_c, 1, 81, 127
2, 71360, Note_off_c, 1, 83, 0
2, 71360, Note_on_c, 1, 85, 127
2, 71360, Note_off_c, 1, 87, 0
2, 71360, Note_on_c, 1, 90, 127
2, 71360, Note_on_c, 1, 93, 127
2, 71360, Note_off_c, 1, 95, 0
2, 71400, Note_off_c, 1, 42, 0
2, 71400, Note_on_c, 1, 54, 127
2, 71400, Note_on_c, 1, 58, 127
2, 71400, Note_on_c, 1, 61, 127
2, 71400, Note_on_c, 1, 66, 127
2, 71400, Note_off_c, 1, 81, 0
2, 71400, Note_on_c, 1, 82, 127
2, 71400, Note_off_c, 1, 85, 0
2, 71400, Note_off_c, 1, 90, 0
2, 71400, Note_off_c, 1, 93, 0
2, 71400, Note_on_c, 1, 94, 127
2, 71440, Note_off_c, 1, 54, 0
2, 71440, Note_off_c, 1, 58, 0
2, 71440, Note_off_c, 1, 61, 0
2, 71440, Note_off_c, 1, 66, 0
2, 71440, Note_off_c, 1, 82, 0
2, 71440, Note_off_c, 1, 94, 0
2, 71480, Note_on_c, 1, 58, 127
2, 71480, Note_on_c, 1, 63, 127
2, 71480, Note_on_c, 1, 67, 127
2, 71840, Note_off_c, 1, 58, 0
2, 71840, Note_off_c, 1, 63, 0
2, 71840, Note_off_c, 1, 67, 0
2, 71880, Note_on_c, 1, 43, 127
2, 71880, Note_on_c, 1, 45, 127
2, 71880, Note_on_c, 1, 50, 127
2, 71880, Note_on_c, 1, 54, 127
2, 71880, Note_on_c, 1, 69, 127
2, 72080, Note_off_c, 1, 43, 0
2, 72080, Note_off_c, 1, 45, 0
2, 72080, Note_off_c, 1, 50, 0
2, 72080, Note_off_c, 1, 54, 0
2, 72080, Note_on_c, 1, 62, 127
2, 72080, Note_on_c, 1, 67, 127
2, 72080, Note_off_c, 1, 69, 0
2, 72080, Note_on_c, 1, 77, 127
2, 72080, Note_on_c, 1, 83, 127
2, 72120, Note_on_c, 1, 43, 127
2, 72120, Note_on_c, 1, 45, 127
2, 72120, Note_on_c, 1, 50, 127
2, 72120, Note_on_c, 1, 54, 127
2, 72120, Note_off_c, 1, 62, 0
2, 72120, Note_off_c, 1, 67, 0
2, 72120, Note_on_c, 1, 69, 127
2, 72120, Note_off_c, 1, 77, 0
2, 72120, Note_off_c, 1, 83, 0
2, 72280, Note_on_c, 1, 34, 127
2, 72280, Note_off_c, 1, 43, 0
2, 72280, Note_off_c, 1, 45, 0
2, 72280, Note_on_c, 1, 46, 127
2, 72280, Note_off_c, 1, 50, 0
2, 72280, Note_off_c, 1, 54, 0
2, 72280, Note_off_c, 1, 69, 0
2, 72320, Note_on_c, 1, 58, 127
2, 72320, Note_on_c, 1, 62, 127
2, 73080, Note_off_c, 1, 34, 0
2, 73080, Note_off_c, 1, 46, 0
2, 73080, Note_on_c, 1, 53, 127
2, 73080, Note_off_c, 1, 58, 0
2, 73080, Note_off_c, 1, 62, 0
2, 73080, Note_on_c, 1, 63, 127
2, 73120, Note_on_c, 1, 34, 127
2, 73120, Note_on_c, 1, 46, 127
2, 73120, Note_off_c, 1, 63, 0
2, 73320, Note_off_c, 1, 34, 0
2, 73320, Note_off_c, 1, 46, 0
2, 73320, Note_off_c, 1, 53, 0
2, 73360, Note_on_c, 1, 34, 127
2, 73360, Note_on_c, 1, 46, 127
2, 73360, Note_on_c, 1, 53, 127
2, 73520, Note_off_c, 1, 34, 0
2, 73520, Note_off_c, 1, 46, 0
2, 73520, Note_off_c, 1, 53, 0
2, 73560, Note_on_c, 1, 46, 127
2, 73560, Note_on_c, 1, 50, 127
2, 73560, Note_on_c, 1, 58, 127
2, 73560, Note_on_c, 1, 62, 127
2, 73560, Note_on_c, 1, 65, 127
2, 73560, Note_on_c, 1, 70, 127
2, 73720, Note_off_c, 1, 50, 0
2, 73960, Note_off_c, 1, 46, 0
2, 73960, Note_off_c, 1, 58, 0
2, 73960, Note_off_c, 1, 62, 0
2, 73960, Note_off_c, 1, 65, 0
2, 73960, Note_off_c, 1, 70, 0
2, 74000, Note_on_c, 1, 51, 127
2, 74000, Note_on_c, 1, 60, 127
2, 74000, Note_on_c, 1, 61, 127
2, 74000, Note_on_c, 1, 67, 127
2, 74360, Note_off_c, 1, 51, 0
2, 74360, Note_off_c, 1, 60, 0
2, 74360, Note_off_c, 1, 61, 0
2, 74360, Note_off_c, 1, 67, 0
2, 74400, Note_on_c, 1, 51, 127
2, 74400, Note_on_c, 1, 58, 127
2, 74400, Note_on_c, 1, 63, 127
2, 74400, Note_on_c, 1, 68, 127
2, 74400, Note_on_c, 1, 72, 127
2, 74400, Note_on_c, 1, 75, 127
2, 74720, Note_off_c, 1, 51, 0
2, 74720, Note_on_c, 1, 55, 127
2, 74720, Note_on_c, 1, 62, 127
2, 74720, Note_off_c, 1, 63, 0
2, 74720, Note_on_c, 1, 67, 127
2, 74720, Note_off_c, 1, 68, 0
2, 74720, Note_on_c, 1, 70, 127
2, 74720, Note_off_c, 1, 72, 0
2, 74720, Note_off_c, 1, 75, 0
2, 74760, Note_on_c, 1, 51, 127
2, 74760, Note_off_c, 1, 55, 0
2, 74760, Note_off_c, 1, 62, 0
2, 74760, Note_on_c, 1, 63, 127
2, 74760, Note_off_c, 1, 67, 0
2, 74760, Note_on_c, 1, 68, 127
2, 74760, Note_off_c, 1, 70, 0
2, 74760, Note_on_c, 1, 72, 127
2, 74760, Note_on_c, 1, 75, 127
2, 75160, Note_off_c, 1, 51, 0
2, 75160, Note_off_c, 1, 58, 0
2, 75160, Note_off_c, 1, 63, 0
2, 75160, Note_off_c, 1, 68, 0
2, 75160, Note_off_c, 1, 72, 0
2, 75160, Note_off_c, 1, 75, 0
2, 75200, Note_on_c, 1, 51, 127
2, 75200, Note_on_c, 1, 58, 127
2, 75200, Note_on_c, 1, 63, 127
2, 75200, Note_on_c, 1, 68, 127
2, 75200, Note_on_c, 1, 72, 127
2, 75200, Note_on_c, 1, 75, 127
2, 75600, Note_off_c, 1, 51, 0
2, 75600, Note_off_c, 1, 58, 0
2, 75600, Note_off_c, 1, 63, 0
2, 75600, Note_off_c, 1, 68, 0
2, 75600, Note_off_c, 1, 72, 0
2, 75600, Note_off_c, 1, 75, 0
2, 75640, Note_on_c, 1, 51, 127
2, 75640, Note_on_c, 1, 58, 127
2, 75640, Note_on_c, 1, 63, 127
2, 75640, Note_on_c, 1, 68, 127
2, 75640, Note_on_c, 1, 72, 127
2, 75640, Note_on_c, 1, 75, 127
2, 76040, Note_off_c, 1, 51, 0
2, 76040, Note_off_c, 1, 58, 0
2, 76040, Note_off_c, 1, 63, 0
2, 76040, Note_off_c, 1, 68, 0
2, 76040, Note_off_c, 1, 72, 0
2, 76040, Note_off_c, 1, 75, 0
2, 76080, Note_on_c, 1, 51, 127
2, 76080, Note_on_c, 1, 58, 127
2, 76080, Note_on_c, 1, 63, 127
2, 76080, Note_on_c, 1, 67, 127
2, 76080, Note_on_c, 1, 70, 127
2, 77240, Note_off_c, 1, 51, 0
2, 77240, Note_off_c, 1, 58, 0
2, 77240, Note_off_c, 1, 63, 0
2, 77240, Note_off_c, 1, 67, 0
2, 77240, Note_off_c, 1, 70, 0
2, 77280, Note_on_c, 1, 58, 127
2, 77280, Note_on_c, 1, 62, 127
2, 77280, Note_on_c, 1, 65, 127
2, 77280, Note_on_c, 1, 70, 127
2, 77680, Note_off_c, 1, 58, 0
2, 77680, Note_off_c, 1, 62, 0
2, 77680, Note_off_c, 1, 65, 0
2, 77680, Note_off_c, 1, 70, 0
2, 77720, Note_on_c, 1, 58, 127
2, 77720, Note_on_c, 1, 70, 127
2, 77760, Note_on_c, 1, 62, 127
2, 77760, Note_on_c, 1, 65, 127
2, 78120, Note_on_c, 1, 53, 127
2, 78120, Note_off_c, 1, 58, 0
2, 78120, Note_off_c, 1, 62, 0
2, 78120, Note_off_c, 1, 65, 0
2, 78160, Note_off_c, 1, 53, 0
2, 78160, Note_on_c, 1, 56, 127
2, 78160, Note_on_c, 1, 59, 127
2, 78160, Note_on_c, 1, 63, 127
2, 78160, Note_on_c, 1, 68, 127
2, 78160, Note_off_c, 1, 70, 0
2, 78160, Note_on_c, 1, 75, 127
2, 78480, Note_off_c, 1, 75, 0
2, 78520, Note_off_c, 1, 56, 0
2, 78520, Note_off_c, 1, 59, 0
2, 78520, Note_off_c, 1, 63, 0
2, 78520, Note_off_c, 1, 68, 0
2, 78560, Note_on_c, 1, 58, 127
2, 78560, Note_on_c, 1, 62, 127
2, 78560, Note_on_c, 1, 68, 127
2, 78560, Note_on_c, 1, 77, 127
2, 79320, Note_off_c, 1, 58, 0
2, 79320, Note_off_c, 1, 62, 0
2, 79320, Note_off_c, 1, 68, 0
2, 79320, Note_off_c, 1, 77, 0
2, 79360, Note_on_c, 1, 58, 127
2, 79360, Note_on_c, 1, 68, 127
2, 79360, Note_on_c, 1, 70, 127
2, 79720, Note_off_c, 1, 58, 0
2, 79720, Note_off_c, 1, 68, 0
2, 79720, Note_off_c, 1, 70, 0
2, 79760, Note_on_c, 1, 58, 127
2, 79760, Note_on_c, 1, 68, 127
2, 79760, Note_on_c, 1, 70, 127
2, 80200, Note_off_c, 1, 58, 0
2, 80200, Note_off_c, 1, 68, 0
2, 80200, Note_off_c, 1, 70, 0
2, 80240, Note_on_c, 1, 58, 127
2, 80240, Note_on_c, 1, 65, 127
2, 80240, Note_on_c, 1, 74, 127
2, 80240, Note_on_c, 1, 77, 127
2, 80600, Note_off_c, 1, 58, 0
2, 80640, Note_on_c, 1, 58, 127
2, 82280, Note_off_c, 1, 58, 0
2, 82280, Note_off_c, 1, 65, 0
2, 82280, Note_off_c, 1, 74, 0
2, 82280, Note_off_c, 1, 77, 0
2, 82360, Note_on_c, 1, 46, 127
2, 82360, Note_on_c, 1, 70, 127
2, 82720, Note_off_c, 1, 46, 0
2, 82720, Note_off_c, 1, 70, 0
2, 82760, Note_on_c, 1, 51, 127
2, 82760, Note_on_c, 1, 75, 127
2, 83120, Note_off_c, 1, 51, 0
2, 83120, Note_off_c, 1, 75, 0
2, 83200, Note_on_c, 1, 48, 127
2, 83200, Note_on_c, 1, 68, 127
2, 83560, Note_off_c, 1, 48, 0
2, 83560, Note_off_c, 1, 68, 0
2, 83600, Note_on_c, 1, 51, 127
2, 83600, Note_on_c, 1, 67, 127
2, 83960, Note_off_c, 1, 51, 0
2, 83960, Note_off_c, 1, 67, 0
2, 84000, Note_on_c, 1, 48, 127
2, 84000, Note_on_c, 1, 75, 127
2, 84400, Note_off_c, 1, 48, 0
2, 84400, Note_off_c, 1, 75, 0
2, 84480, Note_on_c, 1, 46, 127
2, 84480, Note_on_c, 1, 55, 127
2, 84480, Note_on_c, 1, 58, 127
2, 84480, Note_on_c, 1, 63, 127
2, 84480, Note_on_c, 1, 70, 127
2, 84840, Note_off_c, 1, 46, 0
2, 84840, Note_off_c, 1, 55, 0
2, 84840, Note_off_c, 1, 58, 0
2, 84840, Note_on_c, 1, 67, 127
2, 84840, Note_off_c, 1, 70, 0
2, 84880, Note_on_c, 1, 44, 127
2, 84880, Note_on_c, 1, 56, 127
2, 84880, Note_off_c, 1, 63, 0
2, 84880, Note_off_c, 1, 67, 0
2, 84880, Note_on_c, 1, 80, 127
2, 84880, Note_on_c, 1, 84, 127
2, 84920, Note_off_c, 1, 44, 0
2, 84920, Note_off_c, 1, 56, 0
2, 84920, Note_on_c, 1, 66, 127
2, 84920, Note_on_c, 1, 69, 127
2, 84920, Note_on_c, 1, 73, 127
2, 84920, Note_on_c, 1, 78, 127
2, 84920, Note_off_c, 1, 80, 0
2, 84920, Note_off_c, 1, 84, 0
2, 84920, Note_on_c, 1, 90, 127
2, 84920, Note_on_c, 1, 93, 127
2, 84920, Note_on_c, 1, 97, 127
2, 84920, Note_on_c, 1, 102, 127
2, 84960, Note_on_c, 1, 56, 127
2, 84960, Note_on_c, 1, 60, 127
2, 84960, Note_off_c, 1, 66, 0
2, 84960, Note_on_c, 1, 67, 127
2, 84960, Note_off_c, 1, 69, 0
2, 84960, Note_off_c, 1, 78, 0
2, 84960, Note_off_c, 1, 90, 0
2, 84960, Note_off_c, 1, 93, 0
2, 84960, Note_off_c, 1, 97, 0
2, 84960, Note_off_c, 1, 102, 0
2, 85000, Note_off_c, 1, 56, 0
2, 85000, Note_off_c, 1, 60, 0
2, 85000, Note_on_c, 1, 63, 127
2, 85000, Note_off_c, 1, 67, 0
2, 85000, Note_off_c, 1, 73, 0
2, 85000, Note_on_c, 1, 75, 127
2, 85000, Note_on_c, 1, 78, 127
2, 85000, Note_on_c, 1, 82, 127
2, 85040, Note_on_c, 1, 39, 127
2, 85040, Note_on_c, 1, 49, 127
2, 85040, Note_on_c, 1, 54, 127
2, 85040, Note_on_c, 1, 58, 127
2, 85040, Note_on_c, 1, 61, 127
2, 85040, Note_off_c, 1, 63, 0
2, 85040, Note_off_c, 1, 75, 0
2, 85040, Note_off_c, 1, 78, 0
2, 85040, Note_off_c, 1, 82, 0
2, 85080, Note_off_c, 1, 39, 0
2, 85080, Note_on_c, 1, 46, 127
2, 85080, Note_off_c, 1, 49, 0
2, 85080, Note_on_c, 1, 50, 127
2, 85080, Note_off_c, 1, 54, 0
2, 85080, Note_on_c, 1, 55, 127
2, 85080, Note_off_c, 1, 58, 0
2, 85080, Note_off_c, 1, 61, 0
2, 85080, Note_on_c, 1, 82, 127
2, 85120, Note_on_c, 1, 37, 127
2, 85120, Note_off_c, 1, 46, 0
2, 85120, Note_on_c, 1, 49, 127
2, 85120, Note_off_c, 1, 50, 0
2, 85120, Note_off_c, 1, 55, 0
2, 85120, Note_on_c, 1, 57, 127
2, 85120, Note_on_c, 1, 62, 127
2, 85120, Note_on_c, 1, 66, 127
2, 85120, Note_off_c, 1, 82, 0
2, 85160, Note_off_c, 1, 37, 0
2, 85160, Note_off_c, 1, 49, 0
2, 85160, Note_on_c, 1, 56, 127
2, 85160, Note_off_c, 1, 57, 0
2, 85160, Note_off_c, 1, 62, 0
2, 85160, Note_off_c, 1, 66, 0
2, 85160, Note_on_c, 1, 77, 127
2, 85160, Note_on_c, 1, 82, 127
2, 85160, Note_on_c, 1, 86, 127
2, 85200, Note_off_c, 1, 56, 0
2, 85200, Note_on_c, 1, 65, 127
2, 85200, Note_off_c, 1, 82, 0
2, 85200, Note_on_c, 1, 84, 127
2, 85200, Note_off_c, 1, 86, 0
2, 85200, Note_on_c, 1, 93, 127
2, 85200, Note_on_c, 1, 96, 127
2, 85240, Note_on_c, 1, 63, 127
2, 85240, Note_on_c, 1, 69, 127
2, 85240, Note_on_c, 1, 73, 127
2, 85240, Note_off_c, 1, 77, 0
2, 85240, Note_off_c, 1, 84, 0
2, 85240, Note_off_c, 1, 93, 0
2, 85240, Note_off_c, 1, 96, 0
2, 85280, Note_on_c, 1, 44, 127
2, 85280, Note_on_c, 1, 58, 127
2, 85280, Note_on_c, 1, 60, 127
2, 85280, Note_off_c, 1, 63, 0
2, 85280, Note_off_c, 1, 65, 0
2, 85280, Note_off_c, 1, 69, 0
2, 85280, Note_off_c, 1, 73, 0
2, 85320, Note_on_c, 1, 39, 127
2, 85320, Note_off_c, 1, 44, 0
2, 85320, Note_on_c, 1, 47, 127
2, 85320, Note_off_c, 1, 60, 0
2, 85320, Note_on_c, 1, 66, 127
2, 85320, Note_on_c, 1, 70, 127
2, 85640, Note_off_c, 1, 39, 0
2, 85640, Note_off_c, 1, 47, 0
2, 85640, Note_on_c, 1, 50, 127
2, 85640, Note_off_c, 1, 58, 0
2, 85640, Note_on_c, 1, 59, 127
2, 85640, Note_off_c, 1, 66, 0
2, 85640, Note_off_c, 1, 70, 0
2, 85640, Note_on_c, 1, 71, 127
2, 85640, Note_on_c, 1, 83, 127
2, 85680, Note_off_c, 1, 50, 0
2, 85680, Note_on_c, 1, 53, 127
2, 85680, Note_off_c, 1, 59, 0
2, 85680, Note_off_c, 1, 71, 0
2, 85680, Note_on_c, 1, 82, 127
2, 85680, Note_off_c, 1, 83, 0
2, 85720, Note_off_c, 1, 53, 0
2, 85720, Note_on_c, 1, 58, 127
2, 85720, Note_on_c, 1, 67, 127
2, 85720, Note_on_c, 1, 70, 127
2, 85720, Note_on_c, 1, 75, 127
2, 85720, Note_on_c, 1, 79, 127
2, 86480, Note_off_c, 1, 58, 0
2, 86480, Note_off_c, 1, 67, 0
2, 86480, Note_off_c, 1, 70, 0
2, 86480, Note_off_c, 1, 75, 0
2, 86480, Note_off_c, 1, 79, 0
2, 86480, Note_off_c, 1, 82, 0
2, 86560, Note_on_c, 1, 56, 127
2, 86560, Note_on_c, 1, 61, 127
2, 86560, Note_on_c, 1, 68, 127
2, 86560, Note_on_c, 1, 73, 127
2, 86560, Note_on_c, 1, 77, 127
2, 87320, Note_off_c, 1, 56, 0
2, 87320, Note_off_c, 1, 61, 0
2, 87320, Note_off_c, 1, 68, 0
2, 87320, Note_off_c, 1, 73, 0
2, 87320, Note_off_c, 1, 77, 0
2, 87360, Note_on_c, 1, 51, 127
2, 87360, Note_on_c, 1, 58, 127
2, 87360, Note_on_c, 1, 61, 127
2, 87360, Note_on_c, 1, 73, 127
2, 88160, Note_off_c, 1, 51, 0
2, 88160, Note_off_c, 1, 58, 0
2, 88160, Note_off_c, 1, 61, 0
2, 88160, Note_off_c, 1, 73, 0
2, 88200, Note_on_c, 1, 53, 127
2, 88200, Note_on_c, 1, 69, 127
2, 88200, Note_on_c, 1, 75, 127
2, 88200, Note_on_c, 1, 77, 127
2, 88760, Note_off_c, 1, 53, 0
2, 88760, Note_off_c, 1, 69, 0
2, 88760, Note_off_c, 1, 75, 0
2, 88760, Note_off_c, 1, 77, 0
2, 88800, Note_on_c, 1, 53, 127
2, 88800, Note_on_c, 1, 69, 127
2, 88800, Note_on_c, 1, 75, 127
2, 88800, Note_on_c, 1, 77, 127
2, 89400, Note_off_c, 1, 53, 0
2, 89400, Note_off_c, 1, 69, 0
2, 89400, Note_off_c, 1, 75, 0
2, 89400, Note_off_c, 1, 77, 0
2, 89440, Note_on_c, 1, 38, 127
2, 89440, Note_on_c, 1, 42, 127
2, 89440, Note_on_c, 1, 50, 127
2, 89440, Note_on_c, 1, 78, 127
2, 89440, Note_on_c, 1, 90, 127
2, 89800, Note_off_c, 1, 38, 0
2, 89800, Note_off_c, 1, 42, 0
2, 89800, Note_off_c, 1, 50, 0
2, 89800, Note_off_c, 1, 78, 0
2, 89800, Note_off_c, 1, 90, 0
2, 89840, Note_on_c, 1, 50, 127
2, 89840, Note_on_c, 1, 56, 127
2, 89840, Note_on_c, 1, 58, 127
2, 89840, Note_on_c, 1, 68, 127
2, 89840, Note_on_c, 1, 80, 127
2, 89880, Note_off_c, 1, 50, 0
2, 89880, Note_off_c, 1, 58, 0
2, 89880, Note_on_c, 1, 60, 127
2, 89880, Note_on_c, 1, 63, 127
2, 89880, Note_off_c, 1, 68, 0
2, 89880, Note_on_c, 1, 79, 127
2, 89880, Note_off_c, 1, 80, 0
2, 89920, Note_on_c, 1, 55, 127
2, 89920, Note_off_c, 1, 56, 0
2, 89920, Note_on_c, 1, 58, 127
2, 89920, Note_off_c, 1, 60, 0
2, 89920, Note_off_c, 1, 63, 0
2, 89920, Note_on_c, 1, 70, 127
2, 89920, Note_on_c, 1, 73, 127
2, 89920, Note_off_c, 1, 79, 0
2, 89920, Note_on_c, 1, 82, 127
2, 89960, Note_off_c, 1, 55, 0
2, 89960, Note_on_c, 1, 56, 127
2, 89960, Note_off_c, 1, 58, 0
2, 89960, Note_on_c, 1, 60, 127
2, 89960, Note_on_c, 1, 63, 127
2, 89960, Note_off_c, 1, 70, 0
2, 89960, Note_off_c, 1, 73, 0
2, 89960, Note_on_c, 1, 79, 127
2, 89960, Note_off_c, 1, 82, 0
2, 90000, Note_on_c, 1, 47, 127
2, 90000, Note_on_c, 1, 51, 127
2, 90000, Note_off_c, 1, 60, 0
2, 90000, Note_off_c, 1, 63, 0
2, 90000, Note_on_c, 1, 75, 127
2, 90000, Note_off_c, 1, 79, 0
2, 90000, Note_on_c, 1, 87, 127
2, 90040, Note_off_c, 1, 47, 0
2, 90040, Note_off_c, 1, 51, 0
2, 90040, Note_on_c, 1, 53, 127
2, 90040, Note_on_c, 1, 55, 127
2, 90040, Note_off_c, 1, 56, 0
2, 90040, Note_on_c, 1, 58, 127
2, 90040, Note_off_c, 1, 75, 0
2, 90040, Note_on_c, 1, 79, 127
2, 90040, Note_off_c, 1, 87, 0
2, 90080, Note_off_c, 1, 55, 0
2, 90080, Note_off_c, 1, 58, 0
2, 90080, Note_off_c, 1, 79, 0
2, 90080, Note_on_c, 1, 80, 127
2, 90080, Note_on_c, 1, 85, 127
2, 90080, Note_on_c, 1, 92, 127
2, 90120, Note_on_c, 1, 35, 127
2, 90120, Note_off_c, 1, 53, 0
2, 90120, Note_on_c, 1, 71, 127
2, 90120, Note_off_c, 1, 85, 0
2, 90120, Note_off_c, 1, 92, 0
2, 90160, Note_off_c, 1, 35, 0
2, 90160, Note_on_c, 1, 66, 127
2, 90160, Note_on_c, 1, 69, 127
2, 90160, Note_off_c, 1, 71, 0
2, 90160, Note_on_c, 1, 72, 127
2, 90160, Note_on_c, 1, 74, 127
2, 90160, Note_off_c, 1, 80, 0
2, 90160, Note_on_c, 1, 84, 127
2, 90200, Note_on_c, 1, 61, 127
2, 90200, Note_off_c, 1, 66, 0
2, 90200, Note_off_c, 1, 69, 0
2, 90200, Note_on_c, 1, 71, 127
2, 90200, Note_off_c, 1, 72, 0
2, 90200, Note_off_c, 1, 74, 0
2, 90200, Note_on_c, 1, 76, 127
2, 90200, Note_on_c, 1, 83, 127
2, 90200, Note_off_c, 1, 84, 0
2, 90240, Note_on_c, 1, 44, 127
2, 90240, Note_on_c, 1, 48, 127
2, 90240, Note_on_c, 1, 56, 127
2, 90240, Note_off_c, 1, 61, 0
2, 90240, Note_off_c, 1, 71, 0
2, 90240, Note_off_c, 1, 76, 0
2, 90240, Note_off_c, 1, 83, 0
2, 90240, Note_on_c, 1, 84, 127
2, 90240, Note_on_c, 1, 96, 127
2, 91000, Note_off_c, 1, 44, 0
2, 91000, Note_off_c, 1, 48, 0
2, 91000, Note_off_c, 1, 56, 0
2, 91000, Note_off_c, 1, 84, 0
2, 91000, Note_off_c, 1, 96, 0
2, 91040, Note_on_c, 1, 44, 127
2, 91040, Note_on_c, 1, 48, 127
2, 91040, Note_on_c, 1, 56, 127
2, 91040, Note_on_c, 1, 84, 127
2, 91040, Note_on_c, 1, 96, 127
2, 91080, Note_off_c, 1, 44, 0
2, 91080, Note_off_c, 1, 48, 0
2, 91080, Note_off_c, 1, 56, 0
2, 91080, Note_on_c, 1, 60, 127
2, 91080, Note_on_c, 1, 68, 127
2, 91080, Note_off_c, 1, 84, 0
2, 91080, Note_off_c, 1, 96, 0
2, 91120, Note_on_c, 1, 48, 127
2, 91120, Note_off_c, 1, 60, 0
2, 91120, Note_on_c, 1, 64, 127
2, 91120, Note_on_c, 1, 76, 127
2, 91440, Note_on_c, 1, 44, 127
2, 91440, Note_off_c, 1, 48, 0
2, 91440, Note_on_c, 1, 56, 127
2, 91440, Note_off_c, 1, 64, 0
2, 91440, Note_off_c, 1, 68, 0
2, 91440, Note_on_c, 1, 88, 127
2, 91440, Note_on_c, 1, 100, 127
2, 91480, Note_off_c, 1, 44, 0
2, 91480, Note_off_c, 1, 56, 0
2, 91480, Note_off_c, 1, 76, 0
2, 91480, Note_off_c, 1, 88, 0
2, 91480, Note_off_c, 1, 100, 0
2, 91520, Note_on_c, 1, 56, 127
2, 91520, Note_on_c, 1, 64, 127
2, 91520, Note_on_c, 1, 73, 127
2, 91520, Note_on_c, 1, 76, 127
2, 92680, Note_off_c, 1, 64, 0
2, 92680, Note_off_c, 1, 76, 0
2, 92720, Note_on_c, 1, 64, 127
2, 92720, Note_on_c, 1, 76, 127
2, 93080, Note_off_c, 1, 64, 0
2, 93080, Note_off_c, 1, 73, 0
2, 93080, Note_off_c, 1, 76, 0
2, 93120, Note_off_c, 1, 56, 0
2, 93160, Note_on_c, 1, 56, 127
2, 93160, Note_on_c, 1, 60, 127
2, 93160, Note_on_c, 1, 68, 127
2, 93160, Note_on_c, 1, 72, 127
2, 93520, Note_off_c, 1, 56, 0
2, 93520, Note_off_c, 1, 60, 0
2, 93520, Note_off_c, 1, 68, 0
2, 93520, Note_off_c, 1, 72, 0
2, 93560, Note_on_c, 1, 50, 127
2, 93560, Note_on_c, 1, 70, 127
2, 93560, Note_on_c, 1, 77, 127
2, 94320, Note_on_c, 1, 49, 127
2, 94320, Note_off_c, 1, 50, 0
2, 94320, Note_off_c, 1, 70, 0
2, 94320, Note_off_c, 1, 77, 0
2, 94360, Note_on_c, 1, 65, 127
2, 94360, Note_on_c, 1, 68, 127
2, 94360, Note_on_c, 1, 70, 127
2, 94720, Note_off_c, 1, 49, 0
2, 94760, Note_on_c, 1, 46, 127
2, 95120, Note_off_c, 1, 46, 0
2, 95120, Note_off_c, 1, 65, 0
2, 95120, Note_off_c, 1, 68, 0
2, 95160, Note_on_c, 1, 48, 127
2, 95160, Note_on_c, 1, 56, 127
2, 95160, Note_off_c, 1, 70, 0
2, 95160, Note_on_c, 1, 78, 127
2, 95400, Note_off_c, 1, 48, 0
2, 95400, Note_off_c, 1, 56, 0
2, 95400, Note_off_c, 1, 78, 0
2, 95440, Note_on_c, 1, 48, 127
2, 95440, Note_on_c, 1, 56, 127
2, 95440, Note_on_c, 1, 78, 127
2, 95600, Note_off_c, 1, 48, 0
2, 95600, Note_off_c, 1, 56, 0
2, 95600, Note_off_c, 1, 78, 0
2, 95640, Note_on_c, 1, 40, 127
2, 95640, Note_on_c, 1, 49, 127
2, 95640, Note_on_c, 1, 57, 127
2, 95640, Note_on_c, 1, 61, 127
2, 96560, Note_off_c, 1, 40, 0
2, 96560, Note_off_c, 1, 49, 0
2, 96560, Note_off_c, 1, 57, 0
2, 96560, Note_off_c, 1, 61, 0
2, 96640, Note_on_c, 1, 60, 127
2, 96640, Note_on_c, 1, 65, 127
2, 96640, Note_on_c, 1, 68, 127
2, 96640, Note_on_c, 1, 72, 127
2, 96640, Note_on_c, 1, 80, 127
2, 97200, Note_on_c, 1, 53, 127
2, 97200, Note_off_c, 1, 60, 0
2, 97200, Note_off_c, 1, 65, 0
2, 97200, Note_off_c, 1, 80, 0
2, 97600, Note_off_c, 1, 53, 0
2, 97600, Note_off_c, 1, 68, 0
2, 97600, Note_off_c, 1, 72, 0
2, 97680, Note_on_c, 1, 55, 127
2, 97680, Note_on_c, 1, 62, 127
2, 97680, Note_on_c, 1, 65, 127
2, 97680, Note_on_c, 1, 71, 127
2, 97680, Note_on_c, 1, 74, 127
2, 98440, Note_off_c, 1, 55, 0
2, 98440, Note_off_c, 1, 62, 0
2, 98440, Note_off_c, 1, 65, 0
2, 98440, Note_off_c, 1, 71, 0
2, 98440, Note_off_c, 1, 74, 0
2, 99080, Note_on_c, 1, 53, 127
2, 99080, Note_on_c, 1, 60, 127
2, 99080, Note_on_c, 1, 69, 127
2, 99080, Note_on_c, 1, 72, 127
2, 100200, Note_off_c, 1, 53, 0
2, 100200, Note_off_c, 1, 60, 0
2, 100200, Note_off_c, 1, 69, 0
2, 100200, Note_off_c, 1, 72, 0
2, 100240, Note_on_c, 1, 53, 127
2, 100240, Note_on_c, 1, 60, 127
2, 100240, Note_on_c, 1, 69, 127
2, 100240, Note_on_c, 1, 72, 127
2, 100640, Note_off_c, 1, 60, 0
2, 100680, Note_off_c, 1, 53, 0
2, 100680, Note_off_c, 1, 69, 0
2, 100680, Note_off_c, 1, 72, 0
2, 100720, Note_on_c, 1, 41, 127
2, 101480, Note_off_c, 1, 41, 0
2, 101520, Note_on_c, 1, 43, 127
2, 101520, Note_on_c, 1, 70, 127
2, 101880, Note_off_c, 1, 43, 0
2, 101880, Note_off_c, 1, 70, 0
2, 101920, Note_on_c, 1, 43, 127
2, 101920, Note_on_c, 1, 69, 127
2, 102280, Note_off_c, 1, 43, 0
2, 102280, Note_off_c, 1, 69, 0
2, 102320, Note_on_c, 1, 45, 127
2, 102320, Note_on_c, 1, 52, 127
2, 102320, Note_on_c, 1, 60, 127
2, 102520, Note_off_c, 1, 45, 0
2, 102520, Note_off_c, 1, 52, 0
2, 102520, Note_off_c, 1, 60, 0
2, 102560, Note_on_c, 1, 45, 127
2, 102560, Note_on_c, 1, 52, 127
2, 102560, Note_on_c, 1, 60, 127
2, 102920, Note_off_c, 1, 45, 0
2, 102920, Note_off_c, 1, 52, 0
2, 102920, Note_on_c, 1, 54, 127
2, 102920, Note_off_c, 1, 60, 0
2, 102920, Note_on_c, 1, 66, 127
2, 103360, Note_off_c, 1, 54, 0
2, 103360, Note_on_c, 1, 75, 127
2, 103360, Note_on_c, 1, 78, 127
2, 103360, Note_on_c, 1, 82, 127
2, 103360, Note_on_c, 1, 94, 127
2, 103400, Note_on_c, 1, 65, 127
2, 103400, Note_off_c, 1, 66, 0
2, 103400, Note_off_c, 1, 75, 0
2, 103400, Note_off_c, 1, 78, 0
2, 103400, Note_off_c, 1, 82, 0
2, 103400, Note_on_c, 1, 86, 127
2, 103400, Note_on_c, 1, 89, 127
2, 103400, Note_on_c, 1, 91, 127
2, 103400, Note_off_c, 1, 94, 0
2, 103440, Note_on_c, 1, 33, 127
2, 103440, Note_on_c, 1, 51, 127
2, 103440, Note_on_c, 1, 53, 127
2, 103440, Note_off_c, 1, 65, 0
2, 103440, Note_off_c, 1, 86, 0
2, 103440, Note_off_c, 1, 89, 0
2, 103440, Note_off_c, 1, 91, 0
2, 103480, Note_off_c, 1, 33, 0
2, 103480, Note_on_c, 1, 41, 127
2, 103480, Note_on_c, 1, 74, 127
2, 103520, Note_off_c, 1, 41, 0
2, 103520, Note_off_c, 1, 51, 0
2, 103520, Note_off_c, 1, 53, 0
2, 103520, Note_on_c, 1, 58, 127
2, 103520, Note_on_c, 1, 66, 127
2, 103520, Note_on_c, 1, 84, 127
2, 103560, Note_on_c, 1, 41, 127
2, 103560, Note_on_c, 1, 51, 127
2, 103560, Note_on_c, 1, 53, 127
2, 103560, Note_off_c, 1, 58, 0
2, 103560, Note_off_c, 1, 66, 0
2, 103560, Note_off_c, 1, 74, 0
2, 103560, Note_off_c, 1, 84, 0
2, 103720, Note_off_c, 1, 41, 0
2, 103720, Note_off_c, 1, 51, 0
2, 103720, Note_off_c, 1, 53, 0
2, 103760, Note_on_c, 1, 41, 127
2, 103760, Note_on_c, 1, 51, 127
2, 103760, Note_on_c, 1, 53, 127
2, 104120, Note_off_c, 1, 41, 0
2, 104120, Note_off_c, 1, 51, 0
2, 104120, Note_off_c, 1, 53, 0
2, 104160, Note_on_c, 1, 46, 127
2, 104160, Note_on_c, 1, 55, 127
2, 104160, Note_on_c, 1, 72, 127
2, 104520, Note_off_c, 1, 55, 0
2, 104520, Note_off_c, 1, 72, 0
2, 104560, Note_off_c, 1, 46, 0
2, 104600, Note_on_c, 1, 46, 127
2, 104600, Note_on_c, 1, 49, 127
2, 104600, Note_on_c, 1, 61, 127
2, 104600, Note_on_c, 1, 73, 127
2, 104960, Note_off_c, 1, 46, 0
2, 104960, Note_on_c, 1, 48, 127
2, 104960, Note_off_c, 1, 49, 0
2, 104960, Note_on_c, 1, 51, 127
2, 104960, Note_off_c, 1, 61, 0
2, 104960, Note_off_c, 1, 73, 0
2, 105000, Note_off_c, 1, 48, 0
2, 105000, Note_off_c, 1, 51, 0
2, 105000, Note_on_c, 1, 87, 127
2, 105000, Note_on_c, 1, 96, 127
2, 105000, Note_on_c, 1, 103, 127
2, 105040, Note_on_c, 1, 59, 127
2, 105040, Note_on_c, 1, 66, 127
2, 105040, Note_on_c, 1, 69, 127
2, 105040, Note_on_c, 1, 74, 127
2, 105040, Note_on_c, 1, 78, 127
2, 105040, Note_off_c, 1, 87, 0
2, 105040, Note_on_c, 1, 90, 127
2, 105040, Note_off_c, 1, 96, 0
2, 105040, Note_off_c, 1, 103, 0
2, 105080, Note_on_c, 1, 53, 127
2, 105080, Note_off_c, 1, 59, 0
2, 105080, Note_off_c, 1, 66, 0
2, 105080, Note_off_c, 1, 69, 0
2, 105080, Note_off_c, 1, 74, 0
2, 105080, Note_on_c, 1, 77, 127
2, 105080, Note_off_c, 1, 78, 0
2, 105080, Note_on_c, 1, 79, 127
2, 105080, Note_on_c, 1, 82, 127
2, 105080, Note_off_c, 1, 90, 0
2, 105120, Note_off_c, 1, 53, 0
2, 105120, Note_off_c, 1, 77, 0
2, 105120, Note_off_c, 1, 79, 0
2, 105120, Note_off_c, 1, 82, 0
2, 105120, Note_on_c, 1, 87, 127
2, 105120, Note_on_c, 1, 96, 127
2, 105120, Note_on_c, 1, 103, 127
2, 105160, Note_on_c, 1, 43, 127
2, 105160, Note_on_c, 1, 44, 127
2, 105160, Note_on_c, 1, 55, 127
2, 105160, Note_on_c, 1, 59, 127
2, 105160, Note_on_c, 1, 62, 127
2, 105160, Note_on_c, 1, 67, 127
2, 105160, Note_off_c, 1, 87, 0
2, 105160, Note_off_c, 1, 96, 0
2, 105160, Note_off_c, 1, 103, 0
2, 105200, Note_off_c, 1, 43, 0
2, 105200, Note_off_c, 1, 44, 0
2, 105200, Note_on_c, 1, 49, 127
2, 105200, Note_off_c, 1, 55, 0
2, 105200, Note_on_c, 1, 56, 127
2, 105200, Note_off_c, 1, 62, 0
2, 105200, Note_off_c, 1, 67, 0
2, 105200, Note_on_c, 1, 73, 127
2, 105200, Note_on_c, 1, 80, 127
2, 105240, Note_on_c, 1, 29, 127
2, 105240, Note_off_c, 1, 49, 0
2, 105240, Note_off_c, 1, 56, 0
2, 105240, Note_off_c, 1, 59, 0
2, 105240, Note_off_c, 1, 73, 0
2, 105240, Note_on_c, 1, 75, 127
2, 105240, Note_off_c, 1, 80, 0
2, 105280, Note_off_c, 1, 29, 0
2, 105280, Note_on_c, 1, 55, 127
2, 105280, Note_on_c, 1, 59, 127
2, 105280, Note_on_c, 1, 62, 127
2, 105280, Note_on_c, 1, 69, 127
2, 105280, Note_off_c, 1, 75, 0
2, 105280, Note_on_c, 1, 79, 127
2, 105320, Note_on_c, 1, 39, 127
2, 105320, Note_on_c, 1, 46, 127
2, 105320, Note_on_c, 1, 51, 127
2, 105320, Note_off_c, 1, 55, 0
2, 105320, Note_on_c, 1, 58, 127
2, 105320, Note_off_c, 1, 59, 0
2, 105320, Note_off_c, 1, 62, 0
2, 105320, Note_on_c, 1, 67, 127
2, 105320, Note_off_c, 1, 69, 0
2, 105320, Note_off_c, 1, 79, 0
2, 105360, Note_off_c, 1, 39, 0
2, 105360, Note_off_c, 1, 46, 0
2, 105360, Note_off_c, 1, 51, 0
2, 105360, Note_off_c, 1, 58, 0
2, 105360, Note_off_c, 1, 67, 0
2, 105400, Note_on_c, 1, 44, 127
2, 105400, Note_on_c, 1, 56, 127
2, 105400, Note_on_c, 1, 66, 127
2, 105400, Note_on_c, 1, 68, 127
2, 105400, Note_on_c, 1, 72, 127
2, 105400, Note_on_c, 1, 75, 127
2, 106160, Note_off_c, 1, 44, 0
2, 106160, Note_off_c, 1, 56, 0
2, 106160, Note_off_c, 1, 66, 0
2, 106160, Note_off_c, 1, 68, 0
2, 106160, Note_off_c, 1, 72, 0
2, 106160, Note_off_c, 1, 75, 0
2, 106200, Note_on_c, 1, 42, 127
2, 106200, Note_on_c, 1, 51, 127
2, 106200, Note_on_c, 1, 59, 127
2, 106200, Note_on_c, 1, 66, 127
2, 106520, Note_off_c, 1, 59, 0
2, 106560, Note_on_c, 1, 59, 127
2, 106760, Note_off_c, 1, 42, 0
2, 106760, Note_off_c, 1, 51, 0
2, 106760, Note_off_c, 1, 59, 0
2, 106760, Note_off_c, 1, 66, 0
2, 106800, Note_on_c, 1, 42, 127
2, 106800, Note_on_c, 1, 51, 127
2, 106800, Note_on_c, 1, 59, 127
2, 106800, Note_on_c, 1, 66, 127
2, 109280, Note_off_c, 1, 42, 0
2, 109280, Note_off_c, 1, 51, 0
2, 109280, Note_off_c, 1, 59, 0
2, 109280, Note_off_c, 1, 66, 0
2, 109320, Note_on_c, 1, 42, 127
2, 109320, Note_on_c, 1, 51, 127
2, 109320, Note_on_c, 1, 59, 127
2, 109320, Note_on_c, 1, 66, 127
2, 112040, Note_off_c, 1, 42, 0
2, 112040, Note_off_c, 1, 51, 0
2, 112040, Note_off_c, 1, 59, 0
2, 112040, Note_off_c, 1, 66, 0
2, 112080, Note_on_c, 1, 42, 127
2, 112080, Note_on_c, 1, 51, 127
2, 112080, Note_on_c, 1, 59, 127
2, 112080, Note_on_c, 1, 66, 127
2, 113000, Note_off_c, 1, 59, 0
2, 114200, Note_off_c, 1, 51, 0
2, 114200, Note_off_c, 1, 66, 0
2, 114600, Note_off_c, 1, 42, 0
2, 114640, Note_on_c, 1, 39, 127
2, 114760, Note_off_c, 1, 39, 0
2, 114800, Note_on_c, 1, 39, 127
2, 114920, Note_off_c, 1, 39, 0
2, 114920, Note_on_c, 1, 41, 127
2, 114960, Note_on_c, 1, 39, 127
2, 114960, Note_off_c, 1, 41, 0
2, 115040, Note_off_c, 1, 39, 0
2, 115080, Note_on_c, 1, 64, 127
2, 115080, Note_on_c, 1, 73, 127
2, 115080, Note_on_c, 1, 81, 127
2, 115080, Note_on_c, 1, 85, 127
2, 116200, Note_off_c, 1, 73, 0
2, 116200, Note_off_c, 1, 81, 0
2, 116200, Note_off_c, 1, 85, 0
2, 116240, Note_on_c, 1, 38, 127
2, 116240, Note_on_c, 1, 46, 127
2, 116240, Note_on_c, 1, 62, 127
2, 116240, Note_off_c, 1, 64, 0
2, 116240, Note_on_c, 1, 74, 127
2, 116280, Note_off_c, 1, 46, 0
2, 116280, Note_off_c, 1, 62, 0
2, 116280, Note_off_c, 1, 74, 0
2, 116640, Note_off_c, 1, 38, 0
2, 116680, Note_on_c, 1, 58, 127
2, 116680, Note_on_c, 1, 66, 127
2, 116680, Note_on_c, 1, 78, 127
2, 116680, Note_on_c, 1, 83, 127
2, 116720, Note_off_c, 1, 58, 0
2, 116720, Note_on_c, 1, 59, 127
2, 116720, Note_on_c, 1, 69, 127
2, 116720, Note_on_c, 1, 72, 127
2, 116720, Note_on_c, 1, 76, 127
2, 116720, Note_off_c, 1, 78, 0
2, 116720, Note_off_c, 1, 83, 0
2, 116760, Note_on_c, 1, 58, 127
2, 116760, Note_off_c, 1, 59, 0
2, 116760, Note_on_c, 1, 63, 127
2, 116760, Note_off_c, 1, 66, 0
2, 116760, Note_off_c, 1, 69, 0
2, 116760, Note_off_c, 1, 72, 0
2, 116760, Note_off_c, 1, 76, 0
2, 116760, Note_on_c, 1, 81, 127
2, 116760, Note_on_c, 1, 86, 127
2, 116800, Note_off_c, 1, 58, 0
2, 116800, Note_off_c, 1, 63, 0
2, 116800, Note_off_c, 1, 81, 0
2, 116800, Note_off_c, 1, 86, 0
2, 116840, Note_on_c, 1, 49, 127
2, 116840, Note_on_c, 1, 54, 127
2, 116840, Note_on_c, 1, 57, 127
2, 116840, Note_on_c, 1, 73, 127
2, 116880, Note_on_c, 1, 32, 127
2, 116880, Note_off_c, 1, 49, 0
2, 116880, Note_on_c, 1, 52, 127
2, 116880, Note_off_c, 1, 54, 0
2, 116880, Note_on_c, 1, 56, 127
2, 116880, Note_off_c, 1, 57, 0
2, 116880, Note_on_c, 1, 61, 127
2, 116880, Note_on_c, 1, 64, 127
2, 116880, Note_on_c, 1, 68, 127
2, 116880, Note_off_c, 1, 73, 0
2, 116920, Note_off_c, 1, 32, 0
2, 116920, Note_off_c, 1, 52, 0
2, 116920, Note_off_c, 1, 56, 0
2, 116920, Note_on_c, 1, 59, 127
2, 116920, Note_off_c, 1, 61, 0
2, 116920, Note_off_c, 1, 64, 0
2, 116920, Note_on_c, 1, 66, 127
2, 116920, Note_off_c, 1, 68, 0
2, 116920, Note_on_c, 1, 82, 127
2, 116920, Note_on_c, 1, 85, 127
2, 116960, Note_on_c, 1, 47, 127
2, 116960, Note_on_c, 1, 56, 127
2, 116960, Note_off_c, 1, 59, 0
2, 116960, Note_on_c, 1, 62, 127
2, 116960, Note_on_c, 1, 71, 127
2, 116960, Note_off_c, 1, 82, 0
2, 116960, Note_off_c, 1, 85, 0
2, 117000, Note_off_c, 1, 47, 0
2, 117000, Note_off_c, 1, 62, 0
2, 117000, Note_on_c, 1, 63, 127
2, 117000, Note_off_c, 1, 66, 0
2, 117000, Note_off_c, 1, 71, 0
2, 117000, Note_on_c, 1, 82, 127
2, 117000, Note_on_c, 1, 85, 127
2, 117040, Note_on_c, 1, 52, 127
2, 117040, Note_on_c, 1, 59, 127
2, 117040, Note_on_c, 1, 61, 127
2, 117040, Note_off_c, 1, 63, 0
2, 117040, Note_off_c, 1, 82, 0
2, 117040, Note_off_c, 1, 85, 0
2, 117040, Note_on_c, 1, 88, 127
2, 117080, Note_on_c, 1, 41, 127
2, 117080, Note_off_c, 1, 52, 0
2, 117080, Note_off_c, 1, 56, 0
2, 117080, Note_off_c, 1, 59, 0
2, 117080, Note_off_c, 1, 61, 0
2, 117080, Note_on_c, 1, 63, 127
2, 117080, Note_on_c, 1, 65, 127
2, 117080, Note_on_c, 1, 67, 127
2, 117080, Note_on_c, 1, 69, 127
2, 117080, Note_off_c, 1, 88, 0
2, 117120, Note_off_c, 1, 41, 0
2, 117120, Note_on_c, 1, 50, 127
2, 117120, Note_on_c, 1, 54, 127
2, 117120, Note_off_c, 1, 65, 0
2, 117120, Note_on_c, 1, 66, 127
2, 117120, Note_off_c, 1, 67, 0
2, 117120, Note_off_c, 1, 69, 0
2, 117120, Note_on_c, 1, 70, 127
2, 117160, Note_off_c, 1, 50, 0
2, 117160, Note_off_c, 1, 54, 0
2, 117160, Note_on_c, 1, 55, 127
2, 117160, Note_off_c, 1, 63, 0
2, 117160, Note_off_c, 1, 66, 0
2, 117160, Note_on_c, 1, 69, 127
2, 117160, Note_off_c, 1, 70, 0
2, 117160, Note_on_c, 1, 75, 127
2, 117160, Note_on_c, 1, 77, 127
2, 117160, Note_on_c, 1, 81, 127
2, 117200, Note_on_c, 1, 50, 127
2, 117200, Note_off_c, 1, 55, 0
2, 117200, Note_on_c, 1, 61, 127
2, 117200, Note_on_c, 1, 66, 127
2, 117200, Note_off_c, 1, 69, 0
2, 117200, Note_off_c, 1, 75, 0
2, 117200, Note_off_c, 1, 77, 0
2, 117200, Note_off_c, 1, 81, 0
2, 117240, Note_on_c, 1, 32, 127
2, 117240, Note_off_c, 1, 50, 0
2, 117240, Note_on_c, 1, 52, 127
2, 117240, Note_on_c, 1, 55, 127
2, 117240, Note_on_c, 1, 58, 127
2, 117240, Note_off_c, 1, 61, 0
2, 117240, Note_off_c, 1, 66, 0
2, 117280, Note_off_c, 1, 32, 0
2, 117280, Note_on_c, 1, 46, 127
2, 117280, Note_off_c, 1, 52, 0
2, 117280, Note_off_c, 1, 55, 0
2, 117280, Note_off_c, 1, 58, 0
2, 117280, Note_on_c, 1, 78, 127
2, 117280, Note_on_c, 1, 80, 127
2, 117320, Note_off_c, 1, 46, 0
2, 117320, Note_on_c, 1, 57, 127
2, 117320, Note_on_c, 1, 65, 127
2, 117320, Note_off_c, 1, 78, 0
2, 117320, Note_off_c, 1, 80, 0
2, 117320, Note_on_c, 1, 86, 127
2, 117320, Note_on_c, 1, 98, 127
2, 117360, Note_off_c, 1, 57, 0
2, 117360, Note_off_c, 1, 65, 0
2, 117360, Note_on_c, 1, 70, 127
2, 117360, Note_on_c, 1, 79, 127
2, 117360, Note_off_c, 1, 86, 0
2, 117360, Note_on_c, 1, 87, 127
2, 117360, Note_on_c, 1, 91, 127
2, 117400, Note_on_c, 1, 50, 127
2, 117400, Note_on_c, 1, 58, 127
2, 117400, Note_on_c, 1, 64, 127
2, 117400, Note_on_c, 1, 67, 127
2, 117400, Note_off_c, 1, 70, 0
2, 117400, Note_off_c, 1, 79, 0
2, 117400, Note_off_c, 1, 87, 0
2, 117400, Note_off_c, 1, 91, 0
2, 117400, Note_off_c, 1, 98, 0
2, 117440, Note_on_c, 1, 29, 127
2, 117440, Note_off_c, 1, 50, 0
2, 117440, Note_on_c, 1, 57, 127
2, 117440, Note_off_c, 1, 58, 0
2, 117440, Note_on_c, 1, 60, 127
2, 117440, Note_off_c, 1, 64, 0
2, 117440, Note_off_c, 1, 67, 0
2, 117440, Note_on_c, 1, 69, 127
2, 117480, Note_off_c, 1, 29, 0
2, 117480, Note_off_c, 1, 57, 0
2, 117480, Note_off_c, 1, 60, 0
2, 117480, Note_off_c, 1, 69, 0
2, 117520, Note_on_c, 1, 53, 127
2, 117520, Note_on_c, 1, 60, 127
2, 117520, Note_on_c, 1, 63, 127
2, 117520, Note_on_c, 1, 69, 127
2, 117520, Note_on_c, 1, 75, 127
2, 117520, Note_on_c, 1, 81, 127
2, 117560, Note_off_c, 1, 53, 0
2, 117560, Note_on_c, 1, 55, 127
2, 117560, Note_on_c, 1, 58, 127
2, 117560, Note_off_c, 1, 60, 0
2, 117560, Note_off_c, 1, 63, 0
2, 117560, Note_off_c, 1, 69, 0
2, 117560, Note_on_c, 1, 72, 127
2, 117560, Note_off_c, 1, 75, 0
2, 117560, Note_on_c, 1, 79, 127
2, 117560, Note_off_c, 1, 81, 0
2, 117560, Note_on_c, 1, 84, 127
2, 117600, Note_on_c, 1, 53, 127
2, 117600, Note_off_c, 1, 55, 0
2, 117600, Note_off_c, 1, 58, 0
2, 117600, Note_on_c, 1, 60, 127
2, 117600, Note_on_c, 1, 63, 127
2, 117600, Note_on_c, 1, 69, 127
2, 117600, Note_off_c, 1, 72, 0
2, 117600, Note_on_c, 1, 75, 127
2, 117600, Note_off_c, 1, 79, 0
2, 117600, Note_on_c, 1, 81, 127
2, 117600, Note_off_c, 1, 84, 0
2, 117880, Note_off_c, 1, 53, 0
2, 117880, Note_on_c, 1, 54, 127
2, 117880, Note_off_c, 1, 63, 0
2, 117880, Note_off_c, 1, 69, 0
2, 117880, Note_off_c, 1, 75, 0
2, 117880, Note_off_c, 1, 81, 0
2, 117920, Note_on_c, 1, 53, 127
2, 117920, Note_off_c, 1, 54, 0
2, 117920, Note_on_c, 1, 63, 127
2, 117920, Note_on_c, 1, 69, 127
2, 117920, Note_on_c, 1, 75, 127
2, 117920, Note_on_c, 1, 81, 127
2, 118280, Note_on_c, 1, 45, 127
2, 118280, Note_off_c, 1, 53, 0
2, 118280, Note_on_c, 1, 54, 127
2, 118280, Note_off_c, 1, 60, 0
2, 118280, Note_off_c, 1, 63, 0
2, 118280, Note_off_c, 1, 69, 0
2, 118280, Note_off_c, 1, 75, 0
2, 118280, Note_off_c, 1, 81, 0
2, 118320, Note_on_c, 1, 52, 127
2, 118320, Note_off_c, 1, 54, 0
2, 118320, Note_on_c, 1, 59, 127
2, 118680, Note_off_c, 1, 45, 0
2, 118680, Note_off_c, 1, 52, 0
2, 118680, Note_off_c, 1, 59, 0
2, 118760, Note_on_c, 1, 45, 127
2, 118760, Note_on_c, 1, 59, 127
2, 118760, Note_on_c, 1, 62, 127
2, 118760, Note_on_c, 1, 64, 127
2, 118760, Note_on_c, 1, 68, 127
2, 118760, Note_on_c, 1, 71, 127
2, 118760, Note_on_c, 1, 74, 127
2, 119520, Note_off_c, 1, 45, 0
2, 119520, Note_off_c, 1, 59, 0
2, 119520, Note_off_c, 1, 62, 0
2, 119520, Note_off_c, 1, 64, 0
2, 119520, Note_off_c, 1, 68, 0
2, 119520, Note_off_c, 1, 71, 0
2, 119520, Note_off_c, 1, 74, 0
2, 119560, Note_on_c, 1, 34, 127
2, 119560, Note_on_c, 1, 55, 127
2, 119560, Note_on_c, 1, 58, 127
2, 119560, Note_on_c, 1, 63, 127
2, 119560, Note_on_c, 1, 67, 127
2, 119560, Note_on_c, 1, 70, 127
2, 119560, Note_on_c, 1, 75, 127
2, 119560, Note_on_c, 1, 79, 127
2, 119960, Note_off_c, 1, 34, 0
2, 119960, Note_on_c, 1, 45, 127
2, 119960, Note_off_c, 1, 55, 0
2, 119960, Note_on_c, 1, 56, 127
2, 119960, Note_off_c, 1, 58, 0
2, 119960, Note_on_c, 1, 62, 127
2, 119960, Note_off_c, 1, 63, 0
2, 119960, Note_off_c, 1, 67, 0
2, 119960, Note_off_c, 1, 70, 0
2, 119960, Note_on_c, 1, 71, 127
2, 119960, Note_on_c, 1, 74, 127
2, 119960, Note_off_c, 1, 75, 0
2, 119960, Note_on_c, 1, 78, 127
2, 119960, Note_off_c, 1, 79, 0
2, 120000, Note_off_c, 1, 45, 0
2, 120000, Note_off_c, 1, 56, 0
2, 120000, Note_off_c, 1, 62, 0
2, 120000, Note_off_c, 1, 71, 0
2, 120000, Note_off_c, 1, 74, 0
2, 120000, Note_off_c, 1, 78, 0
2, 120040, End_track
3, 0, Start_track
3, 0, Title_t, "MIDI"
3, 1536, End_track
0, 0, End_of_file
