0, 0, Header, 1, 3, 192
1, 0, Start_track
1, 0, Time_signature, 4, 2, 24, 8
1, 0, Tempo, 500000
1, 120040, End_track
2, 0, Start_track
2, 0, Text_t, "random instrument: random person i dunno whatev"
2, 0, Title_t, "Track 1"
2, 0, Note_on_c, 1, 58, 127
2, 0, Note_on_c, 1, 66, 127
2, 0, Note_on_c, 1, 78, 127
2, 0, Note_on_c, 1, 82, 127
2, 0, Note_on_c, 1, 90, 127
2, 40, Note_off_c, 1, 58, 0
2, 40, Note_on_c, 1, 59, 127
2, 40, Note_off_c, 1, 66, 0
2, 40, Note_on_c, 1, 74, 127
2, 40, Note_off_c, 1, 82, 0
2, 40, Note_on_c, 1, 83, 127
2, 40, Note_on_c, 1, 86, 127
2, 40, Note_off_c, 1, 90, 0
2, 80, Note_on_c, 1, 49, 127
2, 80, Note_on_c, 1, 56, 127
2, 80, Note_off_c, 1, 59, 0
2, 80, Note_on_c, 1, 61, 127
2, 80, Note_off_c, 1, 74, 0
2, 80, Note_on_c, 1, 76, 127
2, 80, Note_off_c, 1, 78, 0
2, 80, Note_on_c, 1, 80, 127
2, 80, Note_off_c, 1, 83, 0
2, 80, Note_on_c, 1, 85, 127
2, 80, Note_off_c, 1, 86, 0
2, 120, Note_off_c, 1, 49, 0
2, 120, Note_off_c, 1, 56, 0
2, 120, Note_on_c, 1, 58, 127
2, 120, Note_off_c, 1, 61, 0
2, 120, Note_on_c, 1, 66, 127
2, 120, Note_off_c, 1, 76, 0
2, 120, Note_on_c, 1, 78, 127
2, 120, Note_off_c, 1, 80, 0
2, 120, Note_on_c, 1, 82, 127
2, 120, Note_off_c, 1, 85, 0
2, 120, Note_on_c, 1, 90, 127
2, 160, Note_off_c, 1, 58, 0
2, 160, Note_off_c, 1, 66, 0
2, 160, Note_off_c, 1, 78, 0
2, 160, Note_off_c, 1, 82, 0
2, 160, Note_off_c, 1, 90, 0
2, 200, Note_on_c, 1, 35, 127
2, 200, Note_on_c, 1, 39, 127
2, 200, Note_on_c, 1, 47, 127
2, 200, Note_on_c, 1, 50, 127
2, 240, Note_off_c, 1, 35, 0
2, 240, Note_off_c, 1, 39, 0
2, 240, Note_off_c, 1, 47, 0
2, 240, Note_off_c, 1, 50, 0
2, 240, Note_on_c, 1, 58, 127
2, 240, Note_on_c, 1, 64, 127
2, 240, Note_on_c, 1, 66, 127
2, 240, Note_on_c, 1, 73, 127
2, 240, Note_on_c, 1, 85, 127
2, 280, Note_on_c, 1, 35, 127
2, 280, Note_on_c, 1, 47, 127
2, 280, Note_off_c, 1, 58, 0
2, 280, Note_off_c, 1, 64, 0
2, 280, Note_off_c, 1, 66, 0
2, 280, Note_off_c, 1, 73, 0
2, 280, Note_on_c, 1, 78, 127
2, 280, Note_on_c, 1, 81, 127
2, 280, Note_on_c, 1, 83, 127
2, 280, Note_off_c, 1, 85, 0
2, 280, Note_on_c, 1, 87, 127
2, 320, Note_off_c, 1, 35, 0
2, 320, Note_off_c, 1, 47, 0
2, 320, Note_on_c, 1, 58, 127
2, 320, Note_on_c, 1, 64, 127
2, 320, Note_on_c, 1, 66, 127
2, 320, Note_on_c, 1, 73, 127
2, 320, Note_off_c, 1, 78, 0
2, 320, Note_off_c, 1, 81, 0
2, 320, Note_off_c, 1, 83, 0
2, 320, Note_on_c, 1, 85, 127
2, 320, Note_off_c, 1, 87, 0
2, 400, Note_off_c, 1, 58, 0
2, 400, Note_off_c, 1, 64, 0
2, 400, Note_off_c, 1, 66, 0
2, 400, Note_off_c, 1, 73, 0
2, 400, Note_off_c, 1, 85, 0
2, 480, Note_on_c, 1, 56, 127
2, 480, Note_on_c, 1, 58, 127
2, 480, Note_on_c, 1, 62, 127
2, 480, Note_on_c, 1, 67, 127
2, 520, Note_off_c, 1, 56, 0
2, 520, Note_off_c, 1, 58, 0
2, 520, Note_on_c, 1, 60, 127
2, 520, Note_off_c, 1, 62, 0
2, 520, Note_off_c, 1, 67, 0
2, 520, Note_on_c, 1, 70, 127
2, 520, Note_on_c, 1, 75, 127
2, 520, Note_on_c, 1, 78, 127
2, 520, Note_on_c, 1, 87, 127
2, 560, Note_on_c, 1, 41, 127
2, 560, Note_on_c, 1, 53, 127
2, 560, Note_on_c, 1, 63, 127
2, 560, Note_off_c, 1, 70, 0
2, 560, Note_off_c, 1, 75, 0
2, 560, Note_off_c, 1, 78, 0
2, 560, Note_off_c, 1, 87, 0
2, 600, Note_off_c, 1, 41, 0
2, 600, Note_on_c, 1, 46, 127
2, 600, Note_on_c, 1, 50, 127
2, 600, Note_off_c, 1, 60, 0
2, 600, Note_off_c, 1, 63, 0
2, 600, Note_on_c, 1, 72, 127
2, 640, Note_off_c, 1, 46, 0
2, 640, Note_off_c, 1, 50, 0
2, 640, Note_off_c, 1, 53, 0
2, 640, Note_on_c, 1, 56, 127
2, 640, Note_on_c, 1, 61, 127
2, 640, Note_on_c, 1, 64, 127
2, 640, Note_on_c, 1, 67, 127
2, 640, Note_off_c, 1, 72, 0
2, 640, Note_on_c, 1, 73, 127
2, 680, Note_off_c, 1, 61, 0
2, 680, Note_on_c, 1, 63, 127
2, 680, Note_off_c, 1, 64, 0
2, 680, Note_on_c, 1, 65, 127
2, 680, Note_off_c, 1, 67, 0
2, 680, Note_off_c, 1, 73, 0
2, 720, Note_on_c, 1, 41, 127
2, 720, Note_on_c, 1, 51, 127
2, 720, Note_on_c, 1, 53, 127
2, 720, Note_off_c, 1, 56, 0
2, 720, Note_off_c, 1, 63, 0
2, 720, Note_off_c, 1, 65, 0
2, 720, Note_on_c, 1, 72, 127
2, 920, Note_off_c, 1, 41, 0
2, 920, Note_off_c, 1, 51, 0
2, 920, Note_off_c, 1, 53, 0
2, 920, Note_off_c, 1, 72, 0
2, 960, Note_on_c, 1, 34, 127
2, 960, Note_on_c, 1, 82, 127
2, 960, Note_on_c, 1, 86, 127
2, 1000, Note_off_c, 1, 34, 0
2, 1000, Note_on_c, 1, 77, 127
2, 1000, Note_off_c, 1, 82, 0
2, 1000, Note_off_c, 1, 86, 0
2, 1000, Note_on_c, 1, 87, 127
2, 1000, Note_on_c, 1, 89, 127
2, 1040, Note_on_c, 1, 58, 127
2, 1040, Note_on_c, 1, 61, 127
2, 1040, Note_on_c, 1, 65, 127
2, 1040, Note_off_c, 1, 77, 0
2, 1040, Note_off_c, 1, 87, 0
2, 1080, Note_on_c, 1, 34, 127
2, 1080, Note_off_c, 1, 58, 0
2, 1080, Note_off_c, 1, 61, 0
2, 1080, Note_off_c, 1, 65, 0
2, 1080, Note_on_c, 1, 82, 127
2, 1080, Note_on_c, 1, 86, 127
2, 1080, Note_off_c, 1, 89, 0
2, 1120, Note_off_c, 1, 34, 0
2, 1120, Note_on_c, 1, 46, 127
2, 1120, Note_off_c, 1, 82, 0
2, 1120, Note_off_c, 1, 86, 0
2, 1160, Note_off_c, 1, 46, 0
2, 1200, Note_on_c, 1, 41, 127
2, 1200, Note_on_c, 1, 46, 127
2, 1200, Note_on_c, 1, 80, 127
2, 1280, Note_on_c, 1, 34, 127
2, 1280, Note_off_c, 1, 41, 0
2, 1280, Note_off_c, 1, 46, 0
2, 1280, Note_on_c, 1, 69, 127
2, 1280, Note_on_c, 1, 75, 127
2, 1280, Note_off_c, 1, 80, 0
2, 1320, Note_off_c, 1, 34, 0
2, 1320, Note_on_c, 1, 41, 127
2, 1320, Note_on_c, 1, 46, 127
2, 1320, Note_off_c, 1, 69, 0
2, 1320, Note_off_c, 1, 75, 0
2, 1320, Note_on_c, 1, 80, 127
2, 1360, Note_on_c, 1, 39, 127
2, 1360, Note_off_c, 1, 41, 0
2, 1360, Note_off_c, 1, 80, 0
2, 1360, Note_on_c, 1, 89, 127
2, 1360, Note_on_c, 1, 92, 127
2, 1400, Note_off_c, 1, 39, 0
2, 1400, Note_off_c, 1, 46, 0
2, 1400, Note_on_c, 1, 82, 127
2, 1400, Note_off_c, 1, 89, 0
2, 1400, Note_off_c, 1, 92, 0
2, 1440, Note_on_c, 1, 44, 127
2, 1440, Note_on_c, 1, 56, 127
2, 1440, Note_on_c, 1, 72, 127
2, 1440, Note_on_c, 1, 80, 127
2, 1440, Note_off_c, 1, 82, 0
2, 1680, Note_on_c, 1, 36, 127
2, 1680, Note_on_c, 1, 43, 127
2, 1680, Note_off_c, 1, 44, 0
2, 1680, Note_on_c, 1, 48, 127
2, 1680, Note_on_c, 1, 52, 127
2, 1680, Note_off_c, 1, 56, 0
2, 1680, Note_on_c, 1, 60, 127
2, 1680, Note_off_c, 1, 72, 0
2, 1680, Note_off_c, 1, 80, 0
2, 1680, Note_on_c, 1, 87, 127
2, 1720, Note_off_c, 1, 36, 0
2, 1720, Note_off_c, 1, 43, 0
2, 1720, Note_on_c, 1, 47, 127
2, 1720, Note_off_c, 1, 48, 0
2, 1720, Note_on_c, 1, 49, 127
2, 1720, Note_off_c, 1, 52, 0
2, 1720, Note_off_c, 1, 60, 0
2, 1720, Note_on_c, 1, 73, 127
2, 1720, Note_on_c, 1, 75, 127
2, 1720, Note_on_c, 1, 85, 127
2, 1720, Note_off_c, 1, 87, 0
2, 1760, Note_off_c, 1, 47, 0
2, 1760, Note_off_c, 1, 49, 0
2, 1760, Note_on_c, 1, 54, 127
2, 1760, Note_on_c, 1, 61, 127
2, 1760, Note_on_c, 1, 65, 127
2, 1760, Note_off_c, 1, 73, 0
2, 1760, Note_off_c, 1, 75, 0
2, 1760, Note_on_c, 1, 77, 127
2, 1800, Note_off_c, 1, 54, 0
2, 1800, Note_on_c, 1, 55, 127
2, 1800, Note_on_c, 1, 60, 127
2, 1800, Note_off_c, 1, 61, 0
2, 1800, Note_off_c, 1, 65, 0
2, 1800, Note_off_c, 1, 77, 0
2, 1800, Note_on_c, 1, 78, 127
2, 1800, Note_on_c, 1, 81, 127
2, 1800, Note_off_c, 1, 85, 0
2, 1800, Note_on_c, 1, 87, 127
2, 1840, Note_off_c, 1, 55, 0
2, 1840, Note_off_c, 1, 60, 0
2, 1840, Note_on_c, 1, 63, 127
2, 1840, Note_on_c, 1, 72, 127
2, 1840, Note_off_c, 1, 78, 0
2, 1840, Note_off_c, 1, 81, 0
2, 1840, Note_off_c, 1, 87, 0
2, 1840, Note_on_c, 1, 91, 127
2, 1880, Note_on_c, 1, 40, 127
2, 1880, Note_on_c, 1, 49, 127
2, 1880, Note_off_c, 1, 63, 0
2, 1880, Note_on_c, 1, 71, 127
2, 1880, Note_off_c, 1, 72, 0
2, 1880, Note_on_c, 1, 79, 127
2, 1880, Note_off_c, 1, 91, 0
2, 1920, Note_on_c, 1, 29, 127
2, 1920, Note_off_c, 1, 40, 0
2, 1920, Note_on_c, 1, 48, 127
2, 1920, Note_off_c, 1, 49, 0
2, 1920, Note_on_c, 1, 53, 127
2, 1920, Note_on_c, 1, 57, 127
2, 1920, Note_off_c, 1, 71, 0
2, 1920, Note_off_c, 1, 79, 0
2, 1960, Note_off_c, 1, 29, 0
2, 1960, Note_off_c, 1, 48, 0
2, 1960, Note_on_c, 1, 52, 127
2, 1960, Note_off_c, 1, 53, 0
2, 1960, Note_off_c, 1, 57, 0
2, 1960, Note_on_c, 1, 64, 127
2, 1960, Note_on_c, 1, 79, 127
2, 1960, Note_on_c, 1, 86, 127
2, 1960, Note_on_c, 1, 91, 127
2, 2000, Note_off_c, 1, 52, 0
2, 2000, Note_on_c, 1, 57, 127
2, 2000, Note_on_c, 1, 61, 127
2, 2000, Note_off_c, 1, 64, 0
2, 2000, Note_on_c, 1, 66, 127
2, 2000, Note_on_c, 1, 69, 127
2, 2000, Note_on_c, 1, 73, 127
2, 2000, Note_on_c, 1, 78, 127
2, 2000, Note_off_c, 1, 79, 0
2, 2000, Note_on_c, 1, 85, 127
2, 2000, Note_off_c, 1, 86, 0
2, 2000, Note_off_c, 1, 91, 0
2, 2040, Note_on_c, 1, 41, 127
2, 2040, Note_on_c, 1, 46, 127
2, 2040, Note_on_c, 1, 51, 127
2, 2040, Note_on_c, 1, 55, 127
2, 2040, Note_off_c, 1, 57, 0
2, 2040, Note_on_c, 1, 58, 127
2, 2040, Note_off_c, 1, 61, 0
2, 2040, Note_off_c, 1, 66, 0
2, 2040, Note_off_c, 1, 69, 0
2, 2040, Note_off_c, 1, 73, 0
2, 2040, Note_off_c, 1, 78, 0
2, 2040, Note_off_c, 1, 85, 0
2, 2080, Note_on_c, 1, 39, 127
2, 2080, Note_off_c, 1, 41, 0
2, 2080, Note_off_c, 1, 51, 0
2, 2080, Note_on_c, 1, 54, 127
2, 2080, Note_off_c, 1, 55, 0
2, 2080, Note_off_c, 1, 58, 0
2, 2080, Note_on_c, 1, 80, 127
2, 2120, Note_off_c, 1, 54, 0
2, 2120, Note_off_c, 1, 80, 0
2, 2160, Note_on_c, 1, 37, 127
2, 2160, Note_off_c, 1, 39, 0
2, 2160, Note_off_c, 1, 46, 0
2, 2160, Note_on_c, 1, 49, 127
2, 2160, Note_on_c, 1, 68, 127
2, 2160, Note_on_c, 1, 71, 127
2, 2160, Note_on_c, 1, 82, 127
2, 2400, Note_off_c, 1, 37, 0
2, 2400, Note_off_c, 1, 49, 0
2, 2400, Note_off_c, 1, 68, 0
2, 2400, Note_off_c, 1, 71, 0
2, 2400, Note_on_c, 1, 73, 127
2, 2400, Note_off_c, 1, 82, 0
2, 2440, Note_off_c, 1, 73, 0
2, 2480, Note_on_c, 1, 48, 127
2, 2480, Note_on_c, 1, 51, 127
2, 2480, Note_on_c, 1, 56, 127
2, 2480, Note_on_c, 1, 92, 127
2, 2520, Note_off_c, 1, 48, 0
2, 2520, Note_off_c, 1, 51, 0
2, 2520, Note_off_c, 1, 56, 0
2, 2520, Note_on_c, 1, 61, 127
2, 2520, Note_on_c, 1, 69, 127
2, 2520, Note_on_c, 1, 72, 127
2, 2520, Note_on_c, 1, 78, 127
2, 2520, Note_on_c, 1, 87, 127
2, 2520, Note_off_c, 1, 92, 0
2, 2560, Note_off_c, 1, 61, 0
2, 2560, Note_on_c, 1, 64, 127
2, 2560, Note_off_c, 1, 69, 0
2, 2560, Note_off_c, 1, 72, 0
2, 2560, Note_on_c, 1, 77, 127
2, 2560, Note_off_c, 1, 78, 0
2, 2560, Note_on_c, 1, 82, 127
2, 2560, Note_off_c, 1, 87, 0
2, 2560, Note_on_c, 1, 89, 127
2, 2600, Note_on_c, 1, 48, 127
2, 2600, Note_on_c, 1, 51, 127
2, 2600, Note_on_c, 1, 54, 127
2, 2600, Note_on_c, 1, 60, 127
2, 2600, Note_off_c, 1, 64, 0
2, 2600, Note_off_c, 1, 77, 0
2, 2600, Note_on_c, 1, 81, 127
2, 2600, Note_off_c, 1, 82, 0
2, 2600, Note_off_c, 1, 89, 0
2, 2600, Note_on_c, 1, 90, 127
2, 2600, Note_on_c, 1, 93, 127
2, 2640, Note_on_c, 1, 36, 127
2, 2640, Note_on_c, 1, 43, 127
2, 2640, Note_off_c, 1, 48, 0
2, 2640, Note_off_c, 1, 51, 0
2, 2640, Note_off_c, 1, 54, 0
2, 2640, Note_off_c, 1, 60, 0
2, 2640, Note_on_c, 1, 71, 127
2, 2640, Note_off_c, 1, 90, 0
2, 2640, Note_off_c, 1, 93, 0
2, 2680, Note_off_c, 1, 36, 0
2, 2680, Note_on_c, 1, 39, 127
2, 2680, Note_off_c, 1, 43, 0
2, 2680, Note_on_c, 1, 53, 127
2, 2680, Note_off_c, 1, 71, 0
2, 2680, Note_on_c, 1, 74, 127
2, 2680, Note_on_c, 1, 80, 127
2, 2680, Note_off_c, 1, 81, 0
2, 2680, Note_on_c, 1, 86, 127
2, 2720, Note_off_c, 1, 39, 0
2, 2720, Note_off_c, 1, 53, 0
2, 2720, Note_on_c, 1, 55, 127
2, 2720, Note_off_c, 1, 74, 0
2, 2720, Note_off_c, 1, 80, 0
2, 2720, Note_on_c, 1, 83, 127
2, 2720, Note_on_c, 1, 91, 127
2, 2760, Note_on_c, 1, 38, 127
2, 2760, Note_on_c, 1, 49, 127
2, 2760, Note_off_c, 1, 55, 0
2, 2760, Note_on_c, 1, 64, 127
2, 2760, Note_on_c, 1, 69, 127
2, 2760, Note_off_c, 1, 83, 0
2, 2760, Note_off_c, 1, 86, 0
2, 2760, Note_off_c, 1, 91, 0
2, 2800, Note_off_c, 1, 49, 0
2, 2800, Note_on_c, 1, 50, 127
2, 2800, Note_on_c, 1, 53, 127
2, 2800, Note_on_c, 1, 57, 127
2, 2800, Note_on_c, 1, 60, 127
2, 2800, Note_off_c, 1, 64, 0
2, 2800, Note_off_c, 1, 69, 0
2, 2800, Note_on_c, 1, 84, 127
2, 2800, Note_on_c, 1, 89, 127
2, 2800, Note_on_c, 1, 93, 127
2, 2840, Note_off_c, 1, 38, 0
2, 2840, Note_on_c, 1, 44, 127
2, 2840, Note_off_c, 1, 50, 0
2, 2840, Note_off_c, 1, 57, 0
2, 2840, Note_off_c, 1, 60, 0
2, 2840, Note_on_c, 1, 62, 127
2, 2840, Note_on_c, 1, 74, 127
2, 2840, Note_off_c, 1, 84, 0
2, 2840, Note_off_c, 1, 89, 0
2, 2840, Note_off_c, 1, 93, 0
2, 2880, Note_off_c, 1, 44, 0
2, 2880, Note_off_c, 1, 53, 0
2, 2880, Note_off_c, 1, 62, 0
2, 2880, Note_on_c, 1, 65, 127
2, 2880, Note_on_c, 1, 86, 127
2, 2880, Note_on_c, 1, 89, 127
2, 2920, Note_on_c, 1, 49, 127
2, 2920, Note_on_c, 1, 53, 127
2, 2920, Note_on_c, 1, 56, 127
2, 2920, Note_on_c, 1, 61, 127
2, 2920, Note_off_c, 1, 65, 0
2, 2920, Note_off_c, 1, 74, 0
2, 2920, Note_on_c, 1, 85, 127
2, 2920, Note_off_c, 1, 86, 0
2, 2920, Note_off_c, 1, 89, 0
2, 2960, Note_on_c, 1, 48, 127
2, 2960, Note_off_c, 1, 49, 0
2, 2960, Note_on_c, 1, 51, 127
2, 2960, Note_off_c, 1, 53, 0
2, 2960, Note_off_c, 1, 61, 0
2, 2960, Note_on_c, 1, 79, 127
2, 2960, Note_off_c, 1, 85, 0
2, 3000, Note_on_c, 1, 34, 127
2, 3000, Note_on_c, 1, 41, 127
2, 3000, Note_on_c, 1, 46, 127
2, 3000, Note_off_c, 1, 48, 0
2, 3000, Note_off_c, 1, 51, 0
2, 3000, Note_off_c, 1, 56, 0
2, 3000, Note_on_c, 1, 58, 127
2, 3000, Note_on_c, 1, 62, 127
2, 3000, Note_on_c, 1, 70, 127
2, 3000, Note_off_c, 1, 79, 0
2, 3040, Note_off_c, 1, 34, 0
2, 3040, Note_off_c, 1, 41, 0
2, 3040, Note_off_c, 1, 46, 0
2, 3040, Note_on_c, 1, 51, 127
2, 3040, Note_on_c, 1, 56, 127
2, 3040, Note_off_c, 1, 58, 0
2, 3040, Note_on_c, 1, 60, 127
2, 3040, Note_off_c, 1, 62, 0
2, 3040, Note_on_c, 1, 68, 127
2, 3040, Note_off_c, 1, 70, 0
2, 3040, Note_on_c, 1, 72, 127
2, 3040, Note_on_c, 1, 80, 127
2, 3080, Note_on_c, 1, 34, 127
2, 3080, Note_on_c, 1, 41, 127
2, 3080, Note_on_c, 1, 46, 127
2, 3080, Note_off_c, 1, 51, 0
2, 3080, Note_off_c, 1, 56, 0
2, 3080, Note_on_c, 1, 58, 127
2, 3080, Note_off_c, 1, 60, 0
2, 3080, Note_on_c, 1, 62, 127
2, 3080, Note_off_c, 1, 68, 0
2, 3080, Note_on_c, 1, 70, 127
2, 3080, Note_off_c, 1, 72, 0
2, 3080, Note_off_c, 1, 80, 0
2, 5080, Note_off_c, 1, 34, 0
2, 5080, Note_off_c, 1, 41, 0
2, 5080, Note_off_c, 1, 46, 0
2, 5080, Note_off_c, 1, 58, 0
2, 5080, Note_off_c, 1, 62, 0
2, 5080, Note_off_c, 1, 70, 0
2, 5120, Note_on_c, 1, 34, 127
2, 5120, Note_on_c, 1, 41, 127
2, 5120, Note_on_c, 1, 46, 127
2, 5120, Note_on_c, 1, 58, 127
2, 5120, Note_on_c, 1, 62, 127
2, 5120, Note_on_c, 1, 70, 127
2, 7720, Note_off_c, 1, 34, 0
2, 7720, Note_off_c, 1, 41, 0
2, 7720, Note_off_c, 1, 46, 0
2, 7720, Note_off_c, 1, 58, 0
2, 7720, Note_off_c, 1, 62, 0
2, 7720, Note_off_c, 1, 70, 0
2, 7760, Note_on_c, 1, 34, 127
2, 7760, Note_on_c, 1, 41, 127
2, 7760, Note_on_c, 1, 46, 127
2, 7760, Note_on_c, 1, 58, 127
2, 7760, Note_on_c, 1, 62, 127
2, 7760, Note_on_c, 1, 70, 127
2, 10120, Note_off_c, 1, 34, 0
2, 10120, Note_off_c, 1, 41, 0
2, 10120, Note_off_c, 1, 46, 0
2, 10120, Note_off_c, 1, 58, 0
2, 10120, Note_off_c, 1, 62, 0
2, 10120, Note_off_c, 1, 70, 0
2, 10160, Note_on_c, 1, 30, 127
2, 10160, Note_on_c, 1, 42, 127
2, 10160, Note_on_c, 1, 80, 127
2, 10160, Note_on_c, 1, 92, 127
2, 10200, Note_off_c, 1, 30, 0
2, 10200, Note_off_c, 1, 42, 0
2, 10200, Note_on_c, 1, 48, 127
2, 10200, Note_on_c, 1, 58, 127
2, 10200, Note_on_c, 1, 63, 127
2, 10200, Note_off_c, 1, 80, 0
2, 10200, Note_off_c, 1, 92, 0
2, 10240, Note_off_c, 1, 48, 0
2, 10240, Note_off_c, 1, 58, 0
2, 10240, Note_off_c, 1, 63, 0
2, 10280, Note_on_c, 1, 61, 127
2, 10280, Note_on_c, 1, 70, 127
2, 10280, Note_on_c, 1, 82, 127
2, 10280, Note_on_c, 1, 85, 127
2, 10320, Note_on_c, 1, 56, 127
2, 10320, Note_on_c, 1, 59, 127
2, 10320, Note_off_c, 1, 70, 0
2, 10320, Note_on_c, 1, 71, 127
2, 10320, Note_on_c, 1, 73, 127
2, 10320, Note_off_c, 1, 82, 0
2, 10320, Note_off_c, 1, 85, 0
2, 10360, Note_off_c, 1, 56, 0
2, 10360, Note_on_c, 1, 58, 127
2, 10360, Note_off_c, 1, 59, 0
2, 10360, Note_off_c, 1, 61, 0
2, 10360, Note_on_c, 1, 65, 127
2, 10360, Note_on_c, 1, 67, 127
2, 10360, Note_off_c, 1, 71, 0
2, 10360, Note_on_c, 1, 80, 127
2, 10400, Note_on_c, 1, 35, 127
2, 10400, Note_on_c, 1, 47, 127
2, 10400, Note_on_c, 1, 61, 127
2, 10400, Note_off_c, 1, 65, 0
2, 10400, Note_on_c, 1, 66, 127
2, 10400, Note_off_c, 1, 67, 0
2, 10400, Note_off_c, 1, 73, 0
2, 10400, Note_off_c, 1, 80, 0
2, 10440, Note_off_c, 1, 35, 0
2, 10440, Note_off_c, 1, 47, 0
2, 10440, Note_off_c, 1, 58, 0
2, 10440, Note_on_c, 1, 59, 127
2, 10440, Note_off_c, 1, 61, 0
2, 10440, Note_on_c, 1, 63, 127
2, 10440, Note_on_c, 1, 65, 127
2, 10440, Note_off_c, 1, 66, 0
2, 10440, Note_on_c, 1, 68, 127
2, 10440, Note_on_c, 1, 75, 127
2, 10480, Note_on_c, 1, 42, 127
2, 10480, Note_on_c, 1, 49, 127
2, 10480, Note_on_c, 1, 54, 127
2, 10480, Note_off_c, 1, 59, 0
2, 10480, Note_off_c, 1, 63, 0
2, 10480, Note_off_c, 1, 65, 0
2, 10480, Note_on_c, 1, 66, 127
2, 10480, Note_off_c, 1, 68, 0
2, 10480, Note_off_c, 1, 75, 0
2, 10480, Note_on_c, 1, 78, 127
2, 10560, Note_off_c, 1, 42, 0
2, 10560, Note_off_c, 1, 49, 0
2, 10560, Note_off_c, 1, 54, 0
2, 10560, Note_on_c, 1, 60, 127
2, 10560, Note_off_c, 1, 66, 0
2, 10560, Note_on_c, 1, 87, 127
2, 10560, Note_on_c, 1, 92, 127
2, 10600, Note_on_c, 1, 35, 127
2, 10600, Note_on_c, 1, 47, 127
2, 10600, Note_off_c, 1, 60, 0
2, 10600, Note_on_c, 1, 71, 127
2, 10600, Note_on_c, 1, 73, 127
2, 10600, Note_off_c, 1, 78, 0
2, 10600, Note_off_c, 1, 87, 0
2, 10600, Note_off_c, 1, 92, 0
2, 10640, Note_off_c, 1, 35, 0
2, 10640, Note_on_c, 1, 46, 127
2, 10640, Note_off_c, 1, 47, 0
2, 10640, Note_on_c, 1, 56, 127
2, 10640, Note_on_c, 1, 65, 127
2, 10640, Note_on_c, 1, 70, 127
2, 10640, Note_off_c, 1, 71, 0
2, 10640, Note_off_c, 1, 73, 0
2, 10640, Note_on_c, 1, 75, 127
2, 11000, Note_off_c, 1, 46, 0
2, 11000, Note_off_c, 1, 56, 0
2, 11000, Note_off_c, 1, 65, 0
2, 11000, Note_off_c, 1, 70, 0
2, 11000, Note_off_c, 1, 75, 0
2, 11040, Note_on_c, 1, 39, 127
2, 11040, Note_on_c, 1, 63, 127
2, 11040, Note_on_c, 1, 67, 127
2, 11040, Note_on_c, 1, 79, 127
2, 11600, Note_off_c, 1, 39, 0
2, 11600, Note_off_c, 1, 63, 0
2, 11600, Note_off_c, 1, 67, 0
2, 11600, Note_off_c, 1, 79, 0
2, 11640, Note_on_c, 1, 44, 127
2, 11640, Note_on_c, 1, 49, 127
2, 11640, Note_on_c, 1, 65, 127
2, 11640, Note_on_c, 1, 68, 127
2, 11640, Note_on_c, 1, 77, 127
2, 12040, Note_off_c, 1, 49, 0
2, 12440, Note_off_c, 1, 44, 0
2, 12440, Note_off_c, 1, 65, 0
2, 12440, Note_off_c, 1, 68, 0
2, 12440, Note_off_c, 1, 77, 0
2, 12520, Note_on_c, 1, 48, 127
2, 12520, Note_on_c, 1, 59, 127
2, 12520, Note_on_c, 1, 77, 127
2, 12560, Note_on_c, 1, 47, 127
2, 12560, Note_off_c, 1, 48, 0
2, 12560, Note_on_c, 1, 54, 127
2, 12560, Note_off_c, 1, 59, 0
2, 12560, Note_off_c, 1, 77, 0
2, 12560, Note_on_c, 1, 85, 127
2, 12560, Note_on_c, 1, 90, 127
2, 12600, Note_on_c, 1, 43, 127
2, 12600, Note_off_c, 1, 47, 0
2, 12600, Note_off_c, 1, 54, 0
2, 12600, Note_on_c, 1, 55, 127
2, 12600, Note_on_c, 1, 69, 127
2, 12600, Note_on_c, 1, 78, 127
2, 12600, Note_off_c, 1, 85, 0
2, 12600, Note_off_c, 1, 90, 0
2, 12640, Note_on_c, 1, 35, 127
2, 12640, Note_on_c, 1, 39, 127
2, 12640, Note_off_c, 1, 43, 0
2, 12640, Note_on_c, 1, 47, 127
2, 12640, Note_off_c, 1, 55, 0
2, 12640, Note_off_c, 1, 69, 0
2, 12640, Note_on_c, 1, 75, 127
2, 12640, Note_off_c, 1, 78, 0
2, 12640, Note_on_c, 1, 80, 127
2, 12640, Note_on_c, 1, 83, 127
2, 12640, Note_on_c, 1, 87, 127
2, 12680, Note_on_c, 1, 34, 127
2, 12680, Note_off_c, 1, 35, 0
2, 12680, Note_off_c, 1, 39, 0
2, 12680, Note_on_c, 1, 46, 127
2, 12680, Note_off_c, 1, 47, 0
2, 12680, Note_on_c, 1, 68, 127
2, 12680, Note_off_c, 1, 75, 0
2, 12680, Note_off_c, 1, 83, 0
2, 12680, Note_off_c, 1, 87, 0
2, 12720, Note_off_c, 1, 34, 0
2, 12720, Note_on_c, 1, 51, 127
2, 12720, Note_on_c, 1, 57, 127
2, 12720, Note_on_c, 1, 63, 127
2, 12720, Note_off_c, 1, 68, 0
2, 12720, Note_off_c, 1, 80, 0
2, 12760, Note_on_c, 1, 39, 127
2, 12760, Note_off_c, 1, 46, 0
2, 12760, Note_off_c, 1, 57, 0
2, 12760, Note_off_c, 1, 63, 0
2, 12760, Note_on_c, 1, 71, 127
2, 12760, Note_on_c, 1, 75, 127
2, 12760, Note_on_c, 1, 80, 127
2, 12760, Note_on_c, 1, 83, 127
2, 12800, Note_off_c, 1, 39, 0
2, 12800, Note_on_c, 1, 47, 127
2, 12800, Note_on_c, 1, 56, 127
2, 12800, Note_on_c, 1, 59, 127
2, 12800, Note_off_c, 1, 71, 0
2, 12800, Note_off_c, 1, 75, 0
2, 12800, Note_off_c, 1, 80, 0
2, 12800, Note_off_c, 1, 83, 0
2, 12800, Note_on_c, 1, 86, 127
2, 12840, Note_on_c, 1, 30, 127
2, 12840, Note_on_c, 1, 42, 127
2, 12840, Note_off_c, 1, 47, 0
2, 12840, Note_off_c, 1, 51, 0
2, 12840, Note_off_c, 1, 56, 0
2, 12840, Note_off_c, 1, 59, 0
2, 12840, Note_on_c, 1, 75, 127
2, 12840, Note_on_c, 1, 81, 127
2, 12840, Note_on_c, 1, 84, 127
2, 12840, Note_off_c, 1, 86, 0
2, 12840, Note_on_c, 1, 87, 127
2, 12880, Note_off_c, 1, 30, 0
2, 12880, Note_off_c, 1, 42, 0
2, 12880, Note_off_c, 1, 75, 0
2, 12880, Note_off_c, 1, 81, 0
2, 12880, Note_off_c, 1, 84, 0
2, 12880, Note_off_c, 1, 87, 0
2, 12920, Note_on_c, 1, 52, 127
2, 12920, Note_on_c, 1, 56, 127
2, 12920, Note_on_c, 1, 59, 127
2, 12920, Note_on_c, 1, 62, 127
2, 12920, Note_on_c, 1, 68, 127
2, 12920, Note_on_c, 1, 71, 127
2, 12920, Note_on_c, 1, 76, 127
2, 12960, Note_off_c, 1, 52, 0
2, 12960, Note_off_c, 1, 56, 0
2, 12960, Note_off_c, 1, 59, 0
2, 12960, Note_off_c, 1, 62, 0
2, 12960, Note_on_c, 1, 63, 127
2, 12960, Note_off_c, 1, 68, 0
2, 12960, Note_off_c, 1, 76, 0
2, 12960, Note_on_c, 1, 80, 127
2, 12960, Note_on_c, 1, 87, 127
2, 13000, Note_off_c, 1, 63, 0
2, 13000, Note_on_c, 1, 68, 127
2, 13000, Note_off_c, 1, 71, 0
2, 13000, Note_off_c, 1, 87, 0
2, 13000, Note_on_c, 1, 96, 127
2, 13040, Note_on_c, 1, 42, 127
2, 13040, Note_on_c, 1, 50, 127
2, 13040, Note_on_c, 1, 54, 127
2, 13040, Note_on_c, 1, 60, 127
2, 13040, Note_on_c, 1, 62, 127
2, 13040, Note_off_c, 1, 68, 0
2, 13040, Note_on_c, 1, 69, 127
2, 13040, Note_off_c, 1, 80, 0
2, 13040, Note_off_c, 1, 96, 0
2, 13120, Note_off_c, 1, 42, 0
2, 13120, Note_off_c, 1, 50, 0
2, 13120, Note_on_c, 1, 52, 127
2, 13120, Note_off_c, 1, 54, 0
2, 13120, Note_off_c, 1, 60, 0
2, 13120, Note_on_c, 1, 61, 127
2, 13120, Note_off_c, 1, 62, 0
2, 13120, Note_on_c, 1, 67, 127
2, 13120, Note_off_c, 1, 69, 0
2, 13120, Note_on_c, 1, 78, 127
2, 13160, Note_on_c, 1, 42, 127
2, 13160, Note_on_c, 1, 50, 127
2, 13160, Note_off_c, 1, 52, 0
2, 13160, Note_on_c, 1, 54, 127
2, 13160, Note_on_c, 1, 60, 127
2, 13160, Note_off_c, 1, 61, 0
2, 13160, Note_on_c, 1, 62, 127
2, 13160, Note_off_c, 1, 67, 0
2, 13160, Note_on_c, 1, 69, 127
2, 13160, Note_off_c, 1, 78, 0
2, 13280, Note_on_c, 1, 38, 127
2, 13280, Note_off_c, 1, 42, 0
2, 13280, Note_off_c, 1, 54, 0
2, 13280, Note_off_c, 1, 60, 0
2, 13280, Note_off_c, 1, 62, 0
2, 13280, Note_off_c, 1, 69, 0
2, 13280, Note_on_c, 1, 71, 127
2, 13280, Note_on_c, 1, 74, 127
2, 13280, Note_on_c, 1, 77, 127
2, 13280, Note_on_c, 1, 80, 127
2, 13280, Note_on_c, 1, 83, 127
2, 13320, Note_off_c, 1, 38, 0
2, 13320, Note_off_c, 1, 50, 0
2, 13320, Note_off_c, 1, 71, 0
2, 13320, Note_off_c, 1, 74, 0
2, 13320, Note_off_c, 1, 77, 0
2, 13320, Note_off_c, 1, 80, 0
2, 13320, Note_off_c, 1, 83, 0
2, 13360, Note_on_c, 1, 36, 127
2, 13360, Note_on_c, 1, 46, 127
2, 13360, Note_on_c, 1, 62, 127
2, 13400, Note_off_c, 1, 36, 0
2, 13400, Note_on_c, 1, 45, 127
2, 13400, Note_off_c, 1, 46, 0
2, 13400, Note_on_c, 1, 57, 127
2, 13400, Note_off_c, 1, 62, 0
2, 13400, Note_on_c, 1, 63, 127
2, 13400, Note_on_c, 1, 66, 127
2, 13400, Note_on_c, 1, 69, 127
2, 13400, Note_on_c, 1, 81, 127
2, 13440, Note_on_c, 1, 36, 127
2, 13440, Note_off_c, 1, 45, 0
2, 13440, Note_on_c, 1, 46, 127
2, 13440, Note_off_c, 1, 57, 0
2, 13440, Note_on_c, 1, 62, 127
2, 13440, Note_off_c, 1, 63, 0
2, 13440, Note_off_c, 1, 66, 0
2, 13440, Note_off_c, 1, 69, 0
2, 13440, Note_off_c, 1, 81, 0
2, 13520, Note_off_c, 1, 36, 0
2, 13520, Note_on_c, 1, 55, 127
2, 13520, Note_off_c, 1, 62, 0
2, 13520, Note_on_c, 1, 79, 127
2, 13520, Note_on_c, 1, 82, 127
2, 13560, Note_on_c, 1, 36, 127
2, 13560, Note_off_c, 1, 55, 0
2, 13560, Note_on_c, 1, 62, 127
2, 13560, Note_off_c, 1, 79, 0
2, 13560, Note_off_c, 1, 82, 0
2, 13720, Note_off_c, 1, 36, 0
2, 13720, Note_off_c, 1, 46, 0
2, 13720, Note_off_c, 1, 62, 0
2, 13760, Note_on_c, 1, 49, 127
2, 13760, Note_on_c, 1, 56, 127
2, 13760, Note_on_c, 1, 59, 127
2, 13760, Note_on_c, 1, 68, 127
2, 13760, Note_on_c, 1, 71, 127
2, 13760, Note_on_c, 1, 75, 127
2, 13840, Note_on_c, 1, 80, 127
2, 13880, Note_off_c, 1, 80, 0
2, 14120, Note_off_c, 1, 49, 0
2, 14120, Note_off_c, 1, 56, 0
2, 14120, Note_off_c, 1, 59, 0
2, 14120, Note_off_c, 1, 68, 0
2, 14120, Note_off_c, 1, 71, 0
2, 14120, Note_off_c, 1, 75, 0
2, 14160, Note_on_c, 1, 60, 127
2, 14160, Note_on_c, 1, 64, 127
2, 14160, Note_on_c, 1, 72, 127
2, 14160, Note_on_c, 1, 84, 127
2, 14160, Note_on_c, 1, 88, 127
2, 14160, Note_on_c, 1, 96, 127
2, 14200, Note_on_c, 1, 43, 127
2, 14200, Note_on_c, 1, 52, 127
2, 14200, Note_off_c, 1, 60, 0
2, 14200, Note_off_c, 1, 64, 0
2, 14200, Note_off_c, 1, 72, 0
2, 14200, Note_on_c, 1, 76, 127
2, 14200, Note_on_c, 1, 79, 127
2, 14200, Note_on_c, 1, 83, 127
2, 14200, Note_off_c, 1, 84, 0
2, 14200, Note_off_c, 1, 96, 0
2, 14240, Note_off_c, 1, 43, 0
2, 14240, Note_on_c, 1, 48, 127
2, 14240, Note_off_c, 1, 52, 0
2, 14240, Note_on_c, 1, 56, 127
2, 14240, Note_on_c, 1, 60, 127
2, 14240, Note_on_c, 1, 67, 127
2, 14240, Note_on_c, 1, 72, 127
2, 14240, Note_off_c, 1, 76, 0
2, 14240, Note_on_c, 1, 77, 127
2, 14240, Note_off_c, 1, 83, 0
2, 14240, Note_off_c, 1, 88, 0
2, 14280, Note_off_c, 1, 48, 0
2, 14280, Note_off_c, 1, 56, 0
2, 14280, Note_off_c, 1, 60, 0
2, 14280, Note_off_c, 1, 67, 0
2, 14280, Note_on_c, 1, 68, 127
2, 14280, Note_off_c, 1, 72, 0
2, 14280, Note_on_c, 1, 73, 127
2, 14280, Note_on_c, 1, 75, 127
2, 14280, Note_off_c, 1, 77, 0
2, 14280, Note_off_c, 1, 79, 0
2, 14280, Note_on_c, 1, 81, 127
2, 14320, Note_on_c, 1, 49, 127
2, 14320, Note_on_c, 1, 54, 127
2, 14320, Note_on_c, 1, 59, 127
2, 14320, Note_on_c, 1, 62, 127
2, 14320, Note_off_c, 1, 68, 0
2, 14320, Note_off_c, 1, 73, 0
2, 14320, Note_off_c, 1, 75, 0
2, 14320, Note_on_c, 1, 78, 127
2, 14320, Note_off_c, 1, 81, 0
2, 14320, Note_on_c, 1, 83, 127
2, 14320, Note_on_c, 1, 86, 127
2, 14320, Note_on_c, 1, 90, 127
2, 14360, Note_off_c, 1, 49, 0
2, 14360, Note_off_c, 1, 54, 0
2, 14360, Note_off_c, 1, 59, 0
2, 14360, Note_off_c, 1, 62, 0
2, 14360, Note_on_c, 1, 66, 127
2, 14360, Note_on_c, 1, 70, 127
2, 14360, Note_on_c, 1, 77, 127
2, 14360, Note_off_c, 1, 78, 0
2, 14360, Note_off_c, 1, 83, 0
2, 14360, Note_off_c, 1, 86, 0
2, 14360, Note_on_c, 1, 87, 127
2, 14360, Note_off_c, 1, 90, 0
2, 14360, Note_on_c, 1, 94, 127
2, 14360, Note_on_c, 1, 99, 127
2, 14400, Note_on_c, 1, 61, 127
2, 14400, Note_off_c, 1, 66, 0
2, 14400, Note_on_c, 1, 68, 127
2, 14400, Note_off_c, 1, 70, 0
2, 14400, Note_off_c, 1, 77, 0
2, 14400, Note_on_c, 1, 78, 127
2, 14400, Note_on_c, 1, 82, 127
2, 14400, Note_off_c, 1, 87, 0
2, 14400, Note_on_c, 1, 90, 127
2, 14400, Note_off_c, 1, 94, 0
2, 14400, Note_off_c, 1, 99, 0
2, 14440, Note_off_c, 1, 61, 0
2, 14440, Note_off_c, 1, 68, 0
2, 14440, Note_off_c, 1, 78, 0
2, 14440, Note_off_c, 1, 82, 0
2, 14440, Note_off_c, 1, 90, 0
2, 14480, Note_on_c, 1, 33, 127
2, 14480, Note_on_c, 1, 52, 127
2, 14480, Note_on_c, 1, 60, 127
2, 14480, Note_on_c, 1, 64, 127
2, 14520, Note_on_c, 1, 31, 127
2, 14520, Note_off_c, 1, 33, 0
2, 14520, Note_on_c, 1, 47, 127
2, 14520, Note_off_c, 1, 52, 0
2, 14520, Note_off_c, 1, 60, 0
2, 14520, Note_on_c, 1, 62, 127
2, 14520, Note_off_c, 1, 64, 0
2, 14520, Note_on_c, 1, 67, 127
2, 14560, Note_off_c, 1, 31, 0
2, 14560, Note_off_c, 1, 47, 0
2, 14560, Note_on_c, 1, 54, 127
2, 14560, Note_on_c, 1, 60, 127
2, 14560, Note_off_c, 1, 62, 0
2, 14560, Note_off_c, 1, 67, 0
2, 14560, Note_on_c, 1, 69, 127
2, 14560, Note_on_c, 1, 72, 127
2, 14600, Note_on_c, 1, 34, 127
2, 14600, Note_on_c, 1, 46, 127
2, 14600, Note_off_c, 1, 54, 0
2, 14600, Note_on_c, 1, 58, 127
2, 14600, Note_off_c, 1, 60, 0
2, 14600, Note_on_c, 1, 65, 127
2, 14600, Note_off_c, 1, 69, 0
2, 14600, Note_on_c, 1, 70, 127
2, 14600, Note_off_c, 1, 72, 0
2, 14960, Note_off_c, 1, 34, 0
2, 14960, Note_on_c, 1, 35, 127
2, 14960, Note_off_c, 1, 46, 0
2, 14960, Note_off_c, 1, 58, 0
2, 14960, Note_off_c, 1, 65, 0
2, 14960, Note_off_c, 1, 70, 0
2, 15000, Note_off_c, 1, 35, 0
2, 15000, Note_on_c, 1, 42, 127
2, 15000, Note_on_c, 1, 50, 127
2, 15000, Note_on_c, 1, 73, 127
2, 15040, Note_off_c, 1, 50, 0
2, 15040, Note_on_c, 1, 62, 127
2, 15040, Note_on_c, 1, 71, 127
2, 15040, Note_off_c, 1, 73, 0
2, 15040, Note_on_c, 1, 83, 127
2, 15360, Note_off_c, 1, 42, 0
2, 15360, Note_off_c, 1, 62, 0
2, 15360, Note_off_c, 1, 71, 0
2, 15360, Note_off_c, 1, 83, 0
2, 15400, Note_on_c, 1, 61, 127
2, 15400, Note_on_c, 1, 74, 127
2, 15400, Note_on_c, 1, 79, 127
2, 15400, Note_on_c, 1, 83, 127
2, 15600, Note_off_c, 1, 61, 0
2, 15600, Note_on_c, 1, 77, 127
2, 15600, Note_off_c, 1, 79, 0
2, 15600, Note_on_c, 1, 80, 127
2, 15600, Note_on_c, 1, 86, 127
2, 15600, Note_on_c, 1, 89, 127
2, 15600, Note_on_c, 1, 92, 127
2, 15600, Note_on_c, 1, 95, 127
2, 15600, Note_on_c, 1, 101, 127
2, 15640, Note_on_c, 1, 61, 127
2, 15640, Note_off_c, 1, 77, 0
2, 15640, Note_on_c, 1, 79, 127
2, 15640, Note_off_c, 1, 80, 0
2, 15640, Note_off_c, 1, 86, 0
2, 15640, Note_off_c, 1, 89, 0
2, 15640, Note_off_c, 1, 92, 0
2, 15640, Note_off_c, 1, 95, 0
2, 15640, Note_off_c, 1, 101, 0
2, 15680, Note_off_c, 1, 61, 0
2, 15680, Note_on_c, 1, 77, 127
2, 15680, Note_off_c, 1, 79, 0
2, 15680, Note_on_c, 1, 80, 127
2, 15680, Note_on_c, 1, 86, 127
2, 15680, Note_on_c, 1, 89, 127
2, 15680, Note_on_c, 1, 92, 127
2, 15680, Note_on_c, 1, 95, 127
2, 15680, Note_on_c, 1, 101, 127
2, 15760, Note_off_c, 1, 74, 0
2, 15760, Note_off_c, 1, 77, 0
2, 15760, Note_off_c, 1, 80, 0
2, 15760, Note_off_c, 1, 83, 0
2, 15760, Note_off_c, 1, 86, 0
2, 15760, Note_off_c, 1, 89, 0
2, 15760, Note_off_c, 1, 92, 0
2, 15760, Note_off_c, 1, 95, 0
2, 15760, Note_off_c, 1, 101, 0
2, 15800, Note_on_c, 1, 42, 127
2, 15800, Note_on_c, 1, 54, 127
2, 15800, Note_on_c, 1, 69, 127
2, 15800, Note_on_c, 1, 72, 127
2, 15800, Note_on_c, 1, 75, 127
2, 16600, Note_off_c, 1, 42, 0
2, 16600, Note_off_c, 1, 54, 0
2, 16600, Note_off_c, 1, 69, 0
2, 16600, Note_off_c, 1, 72, 0
2, 16600, Note_off_c, 1, 75, 0
2, 16680, Note_on_c, 1, 45, 127
2, 16680, Note_on_c, 1, 57, 127
2, 16680, Note_on_c, 1, 73, 127
2, 16680, Note_on_c, 1, 76, 127
2, 16920, Note_off_c, 1, 73, 0
2, 16960, Note_on_c, 1, 73, 127
2, 17040, Note_off_c, 1, 45, 0
2, 17040, Note_off_c, 1, 57, 0
2, 17040, Note_off_c, 1, 73, 0
2, 17040, Note_off_c, 1, 76, 0
2, 17080, Note_on_c, 1, 36, 127
2, 17080, Note_on_c, 1, 43, 127
2, 17080, Note_on_c, 1, 48, 127
2, 17080, Note_on_c, 1, 76, 127
2, 17080, Note_on_c, 1, 79, 127
2, 17080, Note_on_c, 1, 84, 127
2, 17080, Note_on_c, 1, 88, 127
2, 17840, Note_off_c, 1, 36, 0
2, 17840, Note_off_c, 1, 43, 0
2, 17840, Note_off_c, 1, 48, 0
2, 17840, Note_off_c, 1, 76, 0
2, 17840, Note_off_c, 1, 79, 0
2, 17840, Note_off_c, 1, 84, 0
2, 17840, Note_off_c, 1, 88, 0
2, 17880, Note_on_c, 1, 42, 127
2, 17880, Note_on_c, 1, 54, 127
2, 17880, Note_on_c, 1, 71, 127
2, 17880, Note_on_c, 1, 75, 127
2, 17880, Note_on_c, 1, 79, 127
2, 17880, Note_on_c, 1, 83, 127
2, 18640, Note_off_c, 1, 42, 0
2, 18640, Note_off_c, 1, 54, 0
2, 18640, Note_off_c, 1, 71, 0
2, 18640, Note_off_c, 1, 75, 0
2, 18640, Note_off_c, 1, 79, 0
2, 18640, Note_off_c, 1, 83, 0
2, 18680, Note_on_c, 1, 57, 127
2, 18680, Note_on_c, 1, 63, 127
2, 18680, Note_on_c, 1, 71, 127
2, 18680, Note_on_c, 1, 77, 127
2, 18880, Note_off_c, 1, 57, 0
2, 18880, Note_off_c, 1, 63, 0
2, 18880, Note_off_c, 1, 71, 0
2, 18880, Note_off_c, 1, 77, 0
2, 18920, Note_on_c, 1, 57, 127
2, 18920, Note_on_c, 1, 63, 127
2, 18920, Note_on_c, 1, 71, 127
2, 18920, Note_on_c, 1, 77, 127
2, 20480, Note_off_c, 1, 57, 0
2, 20480, Note_off_c, 1, 63, 0
2, 20480, Note_off_c, 1, 71, 0
2, 20480, Note_off_c, 1, 77, 0
2, 20600, Note_on_c, 1, 69, 127
2, 20760, Note_off_c, 1, 69, 0
2, 20800, Note_on_c, 1, 81, 127
2, 20960, Note_off_c, 1, 81, 0
2, 21040, Note_on_c, 1, 76, 127
2, 21080, Note_off_c, 1, 76, 0
2, 21120, Note_on_c, 1, 76, 127
2, 21280, Note_off_c, 1, 76, 0
2, 21320, Note_on_c, 1, 74, 127
2, 21400, Note_off_c, 1, 74, 0
2, 21440, Note_on_c, 1, 57, 127
2, 21440, Note_on_c, 1, 60, 127
2, 21440, Note_on_c, 1, 76, 127
2, 21760, Note_off_c, 1, 76, 0
2, 21800, Note_on_c, 1, 89, 127
2, 22000, Note_off_c, 1, 89, 0
2, 22040, Note_on_c, 1, 81, 127
2, 22320, Note_off_c, 1, 81, 0
2, 22360, Note_on_c, 1, 53, 127
2, 22360, Note_off_c, 1, 57, 0
2, 22360, Note_on_c, 1, 72, 127
2, 22400, Note_off_c, 1, 53, 0
2, 22400, Note_on_c, 1, 56, 127
2, 22400, Note_on_c, 1, 65, 127
2, 22400, Note_off_c, 1, 72, 0
2, 22400, Note_on_c, 1, 74, 127
2, 22720, Note_off_c, 1, 74, 0
2, 22760, Note_off_c, 1, 56, 0
2, 22760, Note_off_c, 1, 60, 0
2, 22760, Note_off_c, 1, 65, 0
2, 22760, Note_on_c, 1, 75, 127
2, 22800, Note_on_c, 1, 36, 127
2, 22800, Note_on_c, 1, 48, 127
2, 22800, Note_on_c, 1, 55, 127
2, 22800, Note_on_c, 1, 64, 127
2, 22800, Note_off_c, 1, 75, 0
2, 23120, Note_off_c, 1, 36, 0
2, 23120, Note_off_c, 1, 48, 0
2, 23120, Note_off_c, 1, 55, 0
2, 23120, Note_off_c, 1, 64, 0
2, 23160, Note_on_c, 1, 36, 127
2, 23160, Note_on_c, 1, 48, 127
2, 23160, Note_on_c, 1, 55, 127
2, 23160, Note_on_c, 1, 64, 127
2, 23600, Note_off_c, 1, 36, 0
2, 23600, Note_off_c, 1, 48, 0
2, 23600, Note_off_c, 1, 55, 0
2, 23600, Note_off_c, 1, 64, 0
2, 23640, Note_on_c, 1, 48, 127
2, 23640, Note_on_c, 1, 55, 127
2, 23640, Note_on_c, 1, 76, 127
2, 24360, Note_off_c, 1, 55, 0
2, 24360, Note_off_c, 1, 76, 0
2, 24400, Note_on_c, 1, 60, 127
2, 24400, Note_on_c, 1, 67, 127
2, 25120, Note_off_c, 1, 48, 0
2, 25120, Note_off_c, 1, 60, 0
2, 25120, Note_off_c, 1, 67, 0
2, 25160, Note_on_c, 1, 48, 127
2, 25160, Note_on_c, 1, 60, 127
2, 25160, Note_on_c, 1, 67, 127
2, 25200, Note_off_c, 1, 48, 0
2, 25200, Note_off_c, 1, 60, 0
2, 25200, Note_off_c, 1, 67, 0
2, 25240, Note_on_c, 1, 55, 127
2, 25240, Note_on_c, 1, 64, 127
2, 25240, Note_on_c, 1, 67, 127
2, 25600, Note_off_c, 1, 64, 0
2, 25600, Note_off_c, 1, 67, 0
2, 25640, Note_on_c, 1, 60, 127
2, 25640, Note_on_c, 1, 69, 127
2, 25640, Note_on_c, 1, 72, 127
2, 25960, Note_off_c, 1, 60, 0
2, 25960, Note_off_c, 1, 69, 0
2, 25960, Note_off_c, 1, 72, 0
2, 26000, Note_on_c, 1, 52, 127
2, 26000, Note_on_c, 1, 67, 127
2, 26360, Note_off_c, 1, 52, 0
2, 26360, Note_off_c, 1, 55, 0
2, 26360, Note_off_c, 1, 67, 0
2, 26400, Note_on_c, 1, 48, 127
2, 26400, Note_on_c, 1, 52, 127
2, 26400, Note_on_c, 1, 72, 127
2, 26760, Note_off_c, 1, 72, 0
2, 27120, Note_off_c, 1, 48, 0
2, 27120, Note_off_c, 1, 52, 0
2, 27160, Note_on_c, 1, 48, 127
2, 27160, Note_on_c, 1, 52, 127
2, 27200, Note_off_c, 1, 52, 0
2, 27240, Note_on_c, 1, 56, 127
2, 27240, Note_on_c, 1, 72, 127
2, 27560, Note_on_c, 1, 68, 127
2, 27560, Note_off_c, 1, 72, 0
2, 27600, Note_off_c, 1, 48, 0
2, 27600, Note_off_c, 1, 56, 0
2, 27600, Note_off_c, 1, 68, 0
2, 27640, Note_on_c, 1, 55, 127
2, 27640, Note_on_c, 1, 60, 127
2, 27640, Note_on_c, 1, 62, 127
2, 27640, Note_on_c, 1, 67, 127
2, 27960, Note_off_c, 1, 60, 0
2, 28000, Note_on_c, 1, 60, 127
2, 28360, Note_off_c, 1, 60, 0
2, 28360, Note_off_c, 1, 62, 0
2, 28360, Note_off_c, 1, 67, 0
2, 28400, Note_on_c, 1, 59, 127
2, 28400, Note_on_c, 1, 62, 127
2, 28400, Note_on_c, 1, 67, 127
2, 29200, Note_off_c, 1, 55, 0
2, 29200, Note_off_c, 1, 59, 0
2, 29200, Note_off_c, 1, 62, 0
2, 29240, Note_off_c, 1, 67, 0
2, 29280, Note_on_c, 1, 52, 127
2, 29280, Note_on_c, 1, 60, 127
2, 29280, Note_on_c, 1, 67, 127
2, 29640, Note_off_c, 1, 52, 0
2, 29640, Note_off_c, 1, 67, 0
2, 29680, Note_on_c, 1, 55, 127
2, 29680, Note_on_c, 1, 62, 127
2, 29680, Note_on_c, 1, 67, 127
2, 30040, Note_off_c, 1, 60, 0
2, 30040, Note_off_c, 1, 62, 0
2, 30080, Note_on_c, 1, 64, 127
2, 30080, Note_off_c, 1, 67, 0
2, 30080, Note_on_c, 1, 70, 127
2, 30080, Note_on_c, 1, 74, 127
2, 30440, Note_off_c, 1, 55, 0
2, 30440, Note_off_c, 1, 64, 0
2, 30440, Note_off_c, 1, 70, 0
2, 30440, Note_off_c, 1, 74, 0
2, 30480, Note_on_c, 1, 58, 127
2, 30480, Note_on_c, 1, 67, 127
2, 30480, Note_on_c, 1, 72, 127
2, 30840, Note_off_c, 1, 67, 0
2, 30840, Note_off_c, 1, 72, 0
2, 30880, Note_on_c, 1, 50, 127
2, 30880, Note_on_c, 1, 52, 127
2, 30880, Note_off_c, 1, 58, 0
2, 30880, Note_on_c, 1, 67, 127
2, 30880, Note_on_c, 1, 78, 127
2, 31240, Note_off_c, 1, 50, 0
2, 31240, Note_off_c, 1, 52, 0
2, 31240, Note_off_c, 1, 67, 0
2, 31240, Note_off_c, 1, 78, 0
2, 31280, Note_on_c, 1, 50, 127
2, 31280, Note_on_c, 1, 57, 127
2, 31280, Note_on_c, 1, 74, 127
2, 31280, Note_on_c, 1, 78, 127
2, 31520, Note_off_c, 1, 50, 0
2, 31520, Note_off_c, 1, 57, 0
2, 31520, Note_off_c, 1, 74, 0
2, 31520, Note_off_c, 1, 78, 0
2, 31560, Note_on_c, 1, 50, 127
2, 31560, Note_on_c, 1, 57, 127
2, 31560, Note_on_c, 1, 74, 127
2, 31560, Note_on_c, 1, 78, 127
2, 31680, Note_off_c, 1, 50, 0
2, 31680, Note_off_c, 1, 57, 0
2, 31680, Note_off_c, 1, 74, 0
2, 31680, Note_off_c, 1, 78, 0
2, 31720, Note_on_c, 1, 38, 127
2, 31720, Note_on_c, 1, 50, 127
2, 31720, Note_on_c, 1, 62, 127
2, 31720, Note_on_c, 1, 67, 127
2, 31720, Note_on_c, 1, 74, 127
2, 32480, Note_off_c, 1, 38, 0
2, 32480, Note_on_c, 1, 42, 127
2, 32480, Note_off_c, 1, 50, 0
2, 32480, Note_on_c, 1, 51, 127
2, 32480, Note_on_c, 1, 60, 127
2, 32480, Note_off_c, 1, 62, 0
2, 32480, Note_off_c, 1, 67, 0
2, 32480, Note_on_c, 1, 72, 127
2, 32480, Note_off_c, 1, 74, 0
2, 32520, Note_off_c, 1, 42, 0
2, 32520, Note_off_c, 1, 51, 0
2, 32520, Note_on_c, 1, 56, 127
2, 32520, Note_on_c, 1, 59, 127
2, 32520, Note_off_c, 1, 60, 0
2, 32520, Note_on_c, 1, 63, 127
2, 32520, Note_off_c, 1, 72, 0
2, 32520, Note_on_c, 1, 75, 127
2, 32520, Note_on_c, 1, 80, 127
2, 32560, Note_on_c, 1, 33, 127
2, 32560, Note_on_c, 1, 45, 127
2, 32560, Note_on_c, 1, 52, 127
2, 32560, Note_on_c, 1, 55, 127
2, 32560, Note_off_c, 1, 56, 0
2, 32560, Note_on_c, 1, 57, 127
2, 32560, Note_off_c, 1, 59, 0
2, 32560, Note_off_c, 1, 63, 0
2, 32560, Note_on_c, 1, 69, 127
2, 32560, Note_off_c, 1, 75, 0
2, 32560, Note_off_c, 1, 80, 0
2, 32600, Note_off_c, 1, 33, 0
2, 32600, Note_on_c, 1, 40, 127
2, 32600, Note_off_c, 1, 45, 0
2, 32600, Note_off_c, 1, 52, 0
2, 32600, Note_off_c, 1, 55, 0
2, 32600, Note_off_c, 1, 57, 0
2, 32600, Note_off_c, 1, 69, 0
2, 32600, Note_on_c, 1, 73, 127
2, 32600, Note_on_c, 1, 76, 127
2, 32600, Note_on_c, 1, 79, 127
2, 32600, Note_on_c, 1, 82, 127
2, 32600, Note_on_c, 1, 85, 127
2, 32640, Note_on_c, 1, 38, 127
2, 32640, Note_off_c, 1, 40, 0
2, 32640, Note_on_c, 1, 50, 127
2, 32640, Note_off_c, 1, 73, 0
2, 32640, Note_off_c, 1, 76, 0
2, 32640, Note_off_c, 1, 79, 0
2, 32640, Note_on_c, 1, 80, 127
2, 32640, Note_off_c, 1, 85, 0
2, 32640, Note_on_c, 1, 89, 127
2, 32640, Note_on_c, 1, 92, 127
2, 32680, Note_off_c, 1, 38, 0
2, 32680, Note_off_c, 1, 50, 0
2, 32680, Note_on_c, 1, 53, 127
2, 32680, Note_on_c, 1, 60, 127
2, 32680, Note_on_c, 1, 67, 127
2, 32680, Note_on_c, 1, 79, 127
2, 32680, Note_off_c, 1, 80, 0
2, 32680, Note_off_c, 1, 82, 0
2, 32680, Note_off_c, 1, 89, 0
2, 32680, Note_off_c, 1, 92, 0
2, 32720, Note_on_c, 1, 38, 127
2, 32720, Note_on_c, 1, 41, 127
2, 32720, Note_on_c, 1, 45, 127
2, 32720, Note_on_c, 1, 57, 127
2, 32720, Note_on_c, 1, 62, 127
2, 32720, Note_on_c, 1, 65, 127
2, 32720, Note_on_c, 1, 66, 127
2, 32720, Note_off_c, 1, 67, 0
2, 32720, Note_on_c, 1, 69, 127
2, 32720, Note_off_c, 1, 79, 0
2, 32880, Note_on_c, 1, 36, 127
2, 32880, Note_off_c, 1, 38, 0
2, 32880, Note_off_c, 1, 41, 0
2, 32880, Note_on_c, 1, 43, 127
2, 32880, Note_off_c, 1, 45, 0
2, 32880, Note_off_c, 1, 53, 0
2, 32880, Note_off_c, 1, 57, 0
2, 32880, Note_off_c, 1, 60, 0
2, 32880, Note_off_c, 1, 62, 0
2, 32880, Note_off_c, 1, 65, 0
2, 32880, Note_off_c, 1, 66, 0
2, 32880, Note_off_c, 1, 69, 0
2, 32880, Note_on_c, 1, 74, 127
2, 32880, Note_on_c, 1, 78, 127
2, 32920, Note_off_c, 1, 36, 0
2, 32920, Note_off_c, 1, 43, 0
2, 32920, Note_on_c, 1, 53, 127
2, 32920, Note_on_c, 1, 67, 127
2, 32920, Note_on_c, 1, 69, 127
2, 32920, Note_off_c, 1, 74, 0
2, 32920, Note_on_c, 1, 75, 127
2, 32920, Note_off_c, 1, 78, 0
2, 33280, Note_off_c, 1, 53, 0
2, 33280, Note_off_c, 1, 67, 0
2, 33280, Note_off_c, 1, 69, 0
2, 33280, Note_off_c, 1, 75, 0
2, 33320, Note_on_c, 1, 59, 127
2, 33320, Note_on_c, 1, 67, 127
2, 33320, Note_on_c, 1, 74, 127
2, 33480, Note_off_c, 1, 67, 0
2, 33520, Note_off_c, 1, 59, 0
2, 33520, Note_off_c, 1, 74, 0
2, 33560, Note_on_c, 1, 59, 127
2, 33560, Note_on_c, 1, 67, 127
2, 33560, Note_on_c, 1, 74, 127
2, 34320, Note_off_c, 1, 74, 0
2, 34360, Note_on_c, 1, 74, 127
2, 35320, Note_off_c, 1, 74, 0
2, 35360, Note_on_c, 1, 74, 127
2, 35640, Note_off_c, 1, 67, 0
2, 35640, Note_off_c, 1, 74, 0
2, 35680, Note_on_c, 1, 67, 127
2, 35680, Note_on_c, 1, 74, 127
2, 35880, Note_off_c, 1, 59, 0
2, 35880, Note_off_c, 1, 67, 0
2, 35880, Note_off_c, 1, 74, 0
2, 35920, Note_on_c, 1, 72, 127
2, 35960, Note_on_c, 1, 58, 127
2, 35960, Note_on_c, 1, 60, 127
2, 35960, Note_on_c, 1, 63, 127
2, 35960, Note_on_c, 1, 67, 127
2, 36000, Note_off_c, 1, 58, 0
2, 36000, Note_off_c, 1, 60, 0
2, 36000, Note_off_c, 1, 63, 0
2, 36000, Note_off_c, 1, 67, 0
2, 36000, Note_off_c, 1, 72, 0
2, 36040, Note_on_c, 1, 58, 127
2, 36040, Note_on_c, 1, 64, 127
2, 36040, Note_on_c, 1, 66, 127
2, 36040, Note_on_c, 1, 72, 127
2, 36800, Note_on_c, 1, 47, 127
2, 36800, Note_off_c, 1, 58, 0
2, 36800, Note_off_c, 1, 64, 0
2, 36800, Note_off_c, 1, 66, 0
2, 36800, Note_off_c, 1, 72, 0
2, 36840, Note_off_c, 1, 47, 0
2, 36840, Note_on_c, 1, 55, 127
2, 36840, Note_on_c, 1, 65, 127
2, 36840, Note_on_c, 1, 67, 127
2, 36840, Note_on_c, 1, 83, 127
2, 36880, Note_on_c, 1, 54, 127
2, 36880, Note_off_c, 1, 55, 0
2, 36880, Note_on_c, 1, 64, 127
2, 36880, Note_off_c, 1, 65, 0
2, 36880, Note_on_c, 1, 70, 127
2, 36880, Note_on_c, 1, 74, 127
2, 36880, Note_off_c, 1, 83, 0
2, 36920, Note_on_c, 1, 46, 127
2, 36920, Note_off_c, 1, 54, 0
2, 36920, Note_on_c, 1, 57, 127
2, 36920, Note_on_c, 1, 63, 127
2, 36920, Note_off_c, 1, 64, 0
2, 36920, Note_off_c, 1, 67, 0
2, 36920, Note_off_c, 1, 70, 0
2, 36920, Note_on_c, 1, 72, 127
2, 36920, Note_off_c, 1, 74, 0
2, 36960, Note_off_c, 1, 46, 0
2, 36960, Note_on_c, 1, 55, 127
2, 36960, Note_off_c, 1, 57, 0
2, 36960, Note_off_c, 1, 63, 0
2, 36960, Note_on_c, 1, 65, 127
2, 36960, Note_on_c, 1, 67, 127
2, 36960, Note_off_c, 1, 72, 0
2, 36960, Note_on_c, 1, 83, 127
2, 37000, Note_on_c, 1, 79, 127
2, 37000, Note_off_c, 1, 83, 0
2, 37040, Note_off_c, 1, 79, 0
2, 37040, Note_on_c, 1, 83, 127
2, 37160, Note_off_c, 1, 65, 0
2, 37160, Note_off_c, 1, 67, 0
2, 37160, Note_off_c, 1, 83, 0
2, 37200, Note_off_c, 1, 55, 0
2, 37200, Note_on_c, 1, 69, 127
2, 37200, Note_on_c, 1, 76, 127
2, 37200, Note_on_c, 1, 88, 127
2, 37200, Note_on_c, 1, 91, 127
2, 37240, Note_on_c, 1, 57, 127
2, 37240, Note_on_c, 1, 60, 127
2, 37240, Note_off_c, 1, 69, 0
2, 37240, Note_on_c, 1, 72, 127
2, 37240, Note_off_c, 1, 76, 0
2, 37240, Note_on_c, 1, 81, 127
2, 37240, Note_off_c, 1, 88, 0
2, 37240, Note_off_c, 1, 91, 0
2, 37280, Note_off_c, 1, 57, 0
2, 37280, Note_on_c, 1, 67, 127
2, 37280, Note_on_c, 1, 70, 127
2, 37280, Note_off_c, 1, 72, 0
2, 37280, Note_off_c, 1, 81, 0
2, 37280, Note_on_c, 1, 91, 127
2, 37320, Note_on_c, 1, 57, 127
2, 37320, Note_off_c, 1, 67, 0
2, 37320, Note_off_c, 1, 70, 0
2, 37320, Note_on_c, 1, 72, 127
2, 37320, Note_on_c, 1, 81, 127
2, 37320, Note_off_c, 1, 91, 0
2, 37400, Note_off_c, 1, 60, 0
2, 37400, Note_on_c, 1, 63, 127
2, 37400, Note_on_c, 1, 65, 127
2, 37400, Note_on_c, 1, 75, 127
2, 37400, Note_on_c, 1, 77, 127
2, 37400, Note_on_c, 1, 84, 127
2, 37440, Note_on_c, 1, 46, 127
2, 37440, Note_off_c, 1, 57, 0
2, 37440, Note_on_c, 1, 58, 127
2, 37440, Note_off_c, 1, 63, 0
2, 37440, Note_off_c, 1, 65, 0
2, 37440, Note_on_c, 1, 68, 127
2, 37440, Note_off_c, 1, 72, 0
2, 37440, Note_on_c, 1, 73, 127
2, 37440, Note_off_c, 1, 75, 0
2, 37440, Note_on_c, 1, 80, 127
2, 37440, Note_off_c, 1, 81, 0
2, 37440, Note_off_c, 1, 84, 0
2, 37480, Note_off_c, 1, 46, 0
2, 37480, Note_off_c, 1, 58, 0
2, 37480, Note_off_c, 1, 68, 0
2, 37480, Note_on_c, 1, 71, 127
2, 37480, Note_off_c, 1, 73, 0
2, 37480, Note_off_c, 1, 77, 0
2, 37480, Note_on_c, 1, 78, 127
2, 37480, Note_off_c, 1, 80, 0
2, 37480, Note_on_c, 1, 86, 127
2, 37480, Note_on_c, 1, 98, 127
2, 37520, Note_on_c, 1, 47, 127
2, 37520, Note_on_c, 1, 67, 127
2, 37520, Note_on_c, 1, 70, 127
2, 37520, Note_off_c, 1, 71, 0
2, 37520, Note_off_c, 1, 78, 0
2, 37520, Note_on_c, 1, 79, 127
2, 37520, Note_off_c, 1, 86, 0
2, 37520, Note_off_c, 1, 98, 0
2, 37560, Note_off_c, 1, 47, 0
2, 37560, Note_on_c, 1, 63, 127
2, 37560, Note_on_c, 1, 65, 127
2, 37560, Note_off_c, 1, 67, 0
2, 37560, Note_on_c, 1, 68, 127
2, 37560, Note_off_c, 1, 70, 0
2, 37560, Note_on_c, 1, 71, 127
2, 37560, Note_off_c, 1, 79, 0
2, 37600, Note_on_c, 1, 60, 127
2, 37600, Note_off_c, 1, 63, 0
2, 37600, Note_off_c, 1, 65, 0
2, 37600, Note_off_c, 1, 68, 0
2, 37600, Note_off_c, 1, 71, 0
2, 37600, Note_on_c, 1, 72, 127
2, 37600, Note_on_c, 1, 87, 127
2, 37600, Note_on_c, 1, 90, 127
2, 37640, Note_on_c, 1, 45, 127
2, 37640, Note_on_c, 1, 54, 127
2, 37640, Note_on_c, 1, 59, 127
2, 37640, Note_off_c, 1, 60, 0
2, 37640, Note_on_c, 1, 63, 127
2, 37640, Note_off_c, 1, 72, 0
2, 37640, Note_off_c, 1, 87, 0
2, 37640, Note_off_c, 1, 90, 0
2, 37680, Note_off_c, 1, 45, 0
2, 37680, Note_off_c, 1, 54, 0
2, 37680, Note_on_c, 1, 57, 127
2, 37680, Note_off_c, 1, 59, 0
2, 37680, Note_off_c, 1, 63, 0
2, 37680, Note_on_c, 1, 64, 127
2, 37680, Note_on_c, 1, 72, 127
2, 37680, Note_on_c, 1, 81, 127
2, 37680, Note_on_c, 1, 88, 127
2, 37680, Note_on_c, 1, 93, 127
2, 37720, Note_on_c, 1, 45, 127
2, 37720, Note_on_c, 1, 54, 127
2, 37720, Note_off_c, 1, 57, 0
2, 37720, Note_off_c, 1, 64, 0
2, 37720, Note_off_c, 1, 72, 0
2, 37720, Note_on_c, 1, 78, 127
2, 37720, Note_on_c, 1, 86, 127
2, 37720, Note_off_c, 1, 88, 0
2, 37720, Note_off_c, 1, 93, 0
2, 37760, Note_off_c, 1, 45, 0
2, 37760, Note_on_c, 1, 52, 127
2, 37760, Note_off_c, 1, 54, 0
2, 37760, Note_on_c, 1, 57, 127
2, 37760, Note_on_c, 1, 60, 127
2, 37760, Note_on_c, 1, 64, 127
2, 37760, Note_on_c, 1, 76, 127
2, 37760, Note_off_c, 1, 78, 0
2, 37760, Note_off_c, 1, 81, 0
2, 37760, Note_off_c, 1, 86, 0
2, 37800, Note_on_c, 1, 31, 127
2, 37800, Note_on_c, 1, 43, 127
2, 37800, Note_off_c, 1, 52, 0
2, 37800, Note_off_c, 1, 57, 0
2, 37800, Note_off_c, 1, 60, 0
2, 37800, Note_off_c, 1, 64, 0
2, 37800, Note_on_c, 1, 70, 127
2, 37800, Note_off_c, 1, 76, 0
2, 37800, Note_on_c, 1, 79, 127
2, 37840, Note_off_c, 1, 31, 0
2, 37840, Note_on_c, 1, 37, 127
2, 37840, Note_off_c, 1, 43, 0
2, 37840, Note_on_c, 1, 44, 127
2, 37840, Note_on_c, 1, 49, 127
2, 37840, Note_on_c, 1, 52, 127
2, 37840, Note_on_c, 1, 61, 127
2, 37840, Note_on_c, 1, 64, 127
2, 37840, Note_off_c, 1, 70, 0
2, 37840, Note_off_c, 1, 79, 0
2, 37880, Note_off_c, 1, 37, 0
2, 37880, Note_on_c, 1, 40, 127
2, 37880, Note_off_c, 1, 44, 0
2, 37880, Note_off_c, 1, 49, 0
2, 37880, Note_off_c, 1, 52, 0
2, 37880, Note_on_c, 1, 58, 127
2, 37880, Note_off_c, 1, 64, 0
2, 37880, Note_on_c, 1, 67, 127
2, 37880, Note_on_c, 1, 70, 127
2, 37920, Note_off_c, 1, 40, 0
2, 37920, Note_on_c, 1, 45, 127
2, 37920, Note_on_c, 1, 49, 127
2, 37920, Note_on_c, 1, 52, 127
2, 37920, Note_on_c, 1, 55, 127
2, 37920, Note_off_c, 1, 58, 0
2, 37920, Note_off_c, 1, 61, 0
2, 37920, Note_off_c, 1, 67, 0
2, 37920, Note_off_c, 1, 70, 0
2, 37920, Note_on_c, 1, 75, 127
2, 37960, Note_off_c, 1, 45, 0
2, 37960, Note_off_c, 1, 49, 0
2, 37960, Note_off_c, 1, 52, 0
2, 37960, Note_off_c, 1, 55, 0
2, 37960, Note_off_c, 1, 75, 0
2, 38000, Note_on_c, 1, 43, 127
2, 38000, Note_on_c, 1, 50, 127
2, 38000, Note_on_c, 1, 54, 127
2, 38000, Note_on_c, 1, 59, 127
2, 38000, Note_on_c, 1, 71, 127
2, 38000, Note_on_c, 1, 83, 127
2, 38040, Note_off_c, 1, 43, 0
2, 38040, Note_off_c, 1, 50, 0
2, 38040, Note_on_c, 1, 52, 127
2, 38040, Note_on_c, 1, 57, 127
2, 38040, Note_off_c, 1, 59, 0
2, 38040, Note_on_c, 1, 64, 127
2, 38040, Note_off_c, 1, 71, 0
2, 38040, Note_on_c, 1, 76, 127
2, 38040, Note_off_c, 1, 83, 0
2, 38040, Note_on_c, 1, 88, 127
2, 38080, Note_off_c, 1, 52, 0
2, 38080, Note_off_c, 1, 54, 0
2, 38080, Note_off_c, 1, 57, 0
2, 38080, Note_on_c, 1, 58, 127
2, 38080, Note_off_c, 1, 64, 0
2, 38080, Note_on_c, 1, 67, 127
2, 38080, Note_on_c, 1, 84, 127
2, 38080, Note_off_c, 1, 88, 0
2, 38120, Note_on_c, 1, 51, 127
2, 38120, Note_on_c, 1, 56, 127
2, 38120, Note_off_c, 1, 58, 0
2, 38120, Note_on_c, 1, 60, 127
2, 38120, Note_off_c, 1, 67, 0
2, 38120, Note_off_c, 1, 76, 0
2, 38120, Note_off_c, 1, 84, 0
2, 38120, Note_on_c, 1, 96, 127
2, 38160, Note_on_c, 1, 33, 127
2, 38160, Note_on_c, 1, 45, 127
2, 38160, Note_on_c, 1, 54, 127
2, 38160, Note_off_c, 1, 56, 0
2, 38160, Note_on_c, 1, 57, 127
2, 38160, Note_off_c, 1, 60, 0
2, 38160, Note_on_c, 1, 69, 127
2, 38160, Note_off_c, 1, 96, 0
2, 38200, Note_off_c, 1, 33, 0
2, 38200, Note_off_c, 1, 45, 0
2, 38200, Note_off_c, 1, 51, 0
2, 38200, Note_off_c, 1, 54, 0
2, 38200, Note_on_c, 1, 55, 127
2, 38200, Note_off_c, 1, 57, 0
2, 38200, Note_off_c, 1, 69, 0
2, 38200, Note_on_c, 1, 76, 127
2, 38200, Note_on_c, 1, 79, 127
2, 38200, Note_on_c, 1, 88, 127
2, 38240, Note_on_c, 1, 33, 127
2, 38240, Note_on_c, 1, 45, 127
2, 38240, Note_on_c, 1, 61, 127
2, 38240, Note_on_c, 1, 67, 127
2, 38240, Note_off_c, 1, 76, 0
2, 38240, Note_off_c, 1, 79, 0
2, 38240, Note_off_c, 1, 88, 0
2, 38280, Note_off_c, 1, 33, 0
2, 38280, Note_off_c, 1, 45, 0
2, 38280, Note_on_c, 1, 49, 127
2, 38280, Note_off_c, 1, 55, 0
2, 38280, Note_on_c, 1, 56, 127
2, 38280, Note_off_c, 1, 61, 0
2, 38280, Note_on_c, 1, 62, 127
2, 38280, Note_on_c, 1, 65, 127
2, 38280, Note_off_c, 1, 67, 0
2, 38280, Note_on_c, 1, 68, 127
2, 38280, Note_on_c, 1, 74, 127
2, 38320, Note_off_c, 1, 49, 0
2, 38320, Note_off_c, 1, 56, 0
2, 38320, Note_off_c, 1, 62, 0
2, 38320, Note_off_c, 1, 65, 0
2, 38320, Note_off_c, 1, 68, 0
2, 38320, Note_off_c, 1, 74, 0
2, 38320, Note_on_c, 1, 78, 127
2, 38320, Note_on_c, 1, 82, 127
2, 38320, Note_on_c, 1, 98, 127
2, 38360, Note_on_c, 1, 48, 127
2, 38360, Note_on_c, 1, 58, 127
2, 38360, Note_on_c, 1, 70, 127
2, 38360, Note_off_c, 1, 78, 0
2, 38360, Note_on_c, 1, 80, 127
2, 38360, Note_off_c, 1, 82, 0
2, 38360, Note_off_c, 1, 98, 0
2, 38400, Note_off_c, 1, 48, 0
2, 38400, Note_off_c, 1, 58, 0
2, 38400, Note_off_c, 1, 70, 0
2, 38400, Note_off_c, 1, 80, 0
2, 38440, Note_on_c, 1, 45, 127
2, 38440, Note_on_c, 1, 60, 127
2, 38440, Note_on_c, 1, 63, 127
2, 38440, Note_on_c, 1, 65, 127
2, 39200, Note_off_c, 1, 45, 0
2, 39200, Note_on_c, 1, 57, 127
2, 39200, Note_off_c, 1, 60, 0
2, 39240, Note_on_c, 1, 48, 127
2, 39240, Note_off_c, 1, 57, 0
2, 39240, Note_off_c, 1, 63, 0
2, 39240, Note_on_c, 1, 64, 127
2, 39240, Note_off_c, 1, 65, 0
2, 39240, Note_on_c, 1, 84, 127
2, 39240, Note_on_c, 1, 93, 127
2, 39280, Note_on_c, 1, 47, 127
2, 39280, Note_off_c, 1, 48, 0
2, 39280, Note_on_c, 1, 56, 127
2, 39280, Note_on_c, 1, 59, 127
2, 39280, Note_on_c, 1, 63, 127
2, 39280, Note_off_c, 1, 64, 0
2, 39280, Note_on_c, 1, 68, 127
2, 39280, Note_on_c, 1, 75, 127
2, 39280, Note_off_c, 1, 84, 0
2, 39280, Note_off_c, 1, 93, 0
2, 39320, Note_on_c, 1, 39, 127
2, 39320, Note_off_c, 1, 56, 0
2, 39320, Note_off_c, 1, 59, 0
2, 39320, Note_off_c, 1, 63, 0
2, 39320, Note_on_c, 1, 67, 127
2, 39320, Note_off_c, 1, 68, 0
2, 39320, Note_on_c, 1, 71, 127
2, 39320, Note_off_c, 1, 75, 0
2, 39360, Note_off_c, 1, 39, 0
2, 39360, Note_off_c, 1, 47, 0
2, 39360, Note_on_c, 1, 63, 127
2, 39360, Note_off_c, 1, 67, 0
2, 39360, Note_on_c, 1, 69, 127
2, 39360, Note_off_c, 1, 71, 0
2, 39360, Note_on_c, 1, 84, 127
2, 39360, Note_on_c, 1, 93, 127
2, 39400, Note_on_c, 1, 39, 127
2, 39400, Note_on_c, 1, 50, 127
2, 39400, Note_on_c, 1, 55, 127
2, 39400, Note_on_c, 1, 62, 127
2, 39400, Note_off_c, 1, 63, 0
2, 39400, Note_on_c, 1, 67, 127
2, 39400, Note_off_c, 1, 69, 0
2, 39400, Note_off_c, 1, 84, 0
2, 39400, Note_off_c, 1, 93, 0
2, 39440, Note_off_c, 1, 39, 0
2, 39440, Note_off_c, 1, 50, 0
2, 39440, Note_off_c, 1, 55, 0
2, 39440, Note_on_c, 1, 58, 127
2, 39440, Note_off_c, 1, 62, 0
2, 39440, Note_off_c, 1, 67, 0
2, 39440, Note_on_c, 1, 75, 127
2, 39440, Note_on_c, 1, 82, 127
2, 39440, Note_on_c, 1, 85, 127
2, 39440, Note_on_c, 1, 87, 127
2, 39480, Note_on_c, 1, 49, 127
2, 39480, Note_off_c, 1, 58, 0
2, 39480, Note_on_c, 1, 61, 127
2, 39480, Note_on_c, 1, 67, 127
2, 39480, Note_on_c, 1, 69, 127
2, 39480, Note_on_c, 1, 73, 127
2, 39480, Note_off_c, 1, 75, 0
2, 39480, Note_off_c, 1, 82, 0
2, 39480, Note_off_c, 1, 85, 0
2, 39480, Note_off_c, 1, 87, 0
2, 39520, Note_on_c, 1, 47, 127
2, 39520, Note_off_c, 1, 49, 0
2, 39520, Note_on_c, 1, 56, 127
2, 39520, Note_off_c, 1, 61, 0
2, 39520, Note_on_c, 1, 65, 127
2, 39520, Note_off_c, 1, 67, 0
2, 39520, Note_on_c, 1, 68, 127
2, 39520, Note_off_c, 1, 69, 0
2, 39520, Note_off_c, 1, 73, 0
2, 39520, Note_on_c, 1, 77, 127
2, 39560, Note_off_c, 1, 47, 0
2, 39560, Note_on_c, 1, 54, 127
2, 39560, Note_off_c, 1, 56, 0
2, 39560, Note_off_c, 1, 65, 0
2, 39560, Note_off_c, 1, 68, 0
2, 39560, Note_on_c, 1, 75, 127
2, 39560, Note_off_c, 1, 77, 0
2, 39560, Note_on_c, 1, 84, 127
2, 39560, Note_on_c, 1, 87, 127
2, 39600, Note_off_c, 1, 54, 0
2, 39600, Note_off_c, 1, 75, 0
2, 39600, Note_off_c, 1, 84, 0
2, 39600, Note_off_c, 1, 87, 0
2, 39640, Note_on_c, 1, 50, 127
2, 39640, Note_on_c, 1, 55, 127
2, 39640, Note_on_c, 1, 59, 127
2, 39640, Note_on_c, 1, 65, 127
2, 39640, Note_on_c, 1, 67, 127
2, 39640, Note_on_c, 1, 71, 127
2, 39640, Note_on_c, 1, 76, 127
2, 39680, Note_on_c, 1, 35, 127
2, 39680, Note_on_c, 1, 39, 127
2, 39680, Note_on_c, 1, 44, 127
2, 39680, Note_off_c, 1, 50, 0
2, 39680, Note_off_c, 1, 55, 0
2, 39680, Note_on_c, 1, 56, 127
2, 39680, Note_off_c, 1, 59, 0
2, 39680, Note_on_c, 1, 63, 127
2, 39680, Note_off_c, 1, 65, 0
2, 39680, Note_off_c, 1, 67, 0
2, 39680, Note_off_c, 1, 71, 0
2, 39680, Note_off_c, 1, 76, 0
2, 39720, Note_off_c, 1, 35, 0
2, 39720, Note_off_c, 1, 39, 0
2, 39720, Note_off_c, 1, 44, 0
2, 39720, Note_on_c, 1, 50, 127
2, 39720, Note_on_c, 1, 55, 127
2, 39720, Note_off_c, 1, 56, 0
2, 39720, Note_on_c, 1, 59, 127
2, 39720, Note_off_c, 1, 63, 0
2, 39720, Note_on_c, 1, 65, 127
2, 39720, Note_on_c, 1, 67, 127
2, 39720, Note_on_c, 1, 71, 127
2, 39720, Note_on_c, 1, 76, 127
2, 39800, Note_off_c, 1, 50, 0
2, 39800, Note_off_c, 1, 55, 0
2, 39800, Note_off_c, 1, 59, 0
2, 39800, Note_on_c, 1, 64, 127
2, 39800, Note_off_c, 1, 65, 0
2, 39800, Note_off_c, 1, 67, 0
2, 39800, Note_off_c, 1, 71, 0
2, 39800, Note_off_c, 1, 76, 0
2, 39840, Note_on_c, 1, 87, 127
2, 39840, Note_on_c, 1, 88, 127
2, 39840, Note_on_c, 1, 92, 127
2, 39880, Note_on_c, 1, 40, 127
2, 39880, Note_on_c, 1, 52, 127
2, 39880, Note_on_c, 1, 59, 127
2, 39880, Note_off_c, 1, 64, 0
2, 39880, Note_on_c, 1, 80, 127
2, 39880, Note_on_c, 1, 84, 127
2, 39880, Note_off_c, 1, 87, 0
2, 39880, Note_off_c, 1, 88, 0
2, 39880, Note_off_c, 1, 92, 0
2, 39880, Note_on_c, 1, 96, 127
2, 39920, Note_off_c, 1, 40, 0
2, 39920, Note_off_c, 1, 52, 0
2, 39920, Note_on_c, 1, 55, 127
2, 39920, Note_off_c, 1, 59, 0
2, 39920, Note_on_c, 1, 60, 127
2, 39920, Note_on_c, 1, 64, 127
2, 39920, Note_on_c, 1, 67, 127
2, 39920, Note_off_c, 1, 80, 0
2, 39920, Note_off_c, 1, 84, 0
2, 39920, Note_on_c, 1, 88, 127
2, 39920, Note_off_c, 1, 96, 0
2, 39960, Note_on_c, 1, 29, 127
2, 39960, Note_on_c, 1, 53, 127
2, 39960, Note_off_c, 1, 55, 0
2, 39960, Note_on_c, 1, 56, 127
2, 39960, Note_off_c, 1, 60, 0
2, 39960, Note_on_c, 1, 63, 127
2, 39960, Note_off_c, 1, 64, 0
2, 39960, Note_off_c, 1, 67, 0
2, 39960, Note_on_c, 1, 75, 127
2, 39960, Note_off_c, 1, 88, 0
2, 40000, Note_off_c, 1, 29, 0
2, 40000, Note_off_c, 1, 53, 0
2, 40000, Note_off_c, 1, 56, 0
2, 40000, Note_off_c, 1, 63, 0
2, 40000, Note_off_c, 1, 75, 0
2, 40000, Note_on_c, 1, 81, 127
2, 40000, Note_on_c, 1, 85, 127
2, 40040, Note_on_c, 1, 44, 127
2, 40040, Note_on_c, 1, 56, 127
2, 40040, Note_on_c, 1, 79, 127
2, 40040, Note_off_c, 1, 81, 0
2, 40040, Note_on_c, 1, 82, 127
2, 40040, Note_on_c, 1, 88, 127
2, 40040, Note_on_c, 1, 91, 127
2, 40080, Note_off_c, 1, 44, 0
2, 40080, Note_off_c, 1, 56, 0
2, 40080, Note_on_c, 1, 60, 127
2, 40080, Note_on_c, 1, 63, 127
2, 40080, Note_on_c, 1, 68, 127
2, 40080, Note_off_c, 1, 79, 0
2, 40080, Note_off_c, 1, 82, 0
2, 40080, Note_on_c, 1, 84, 127
2, 40080, Note_off_c, 1, 85, 0
2, 40080, Note_on_c, 1, 87, 127
2, 40080, Note_off_c, 1, 88, 0
2, 40080, Note_off_c, 1, 91, 0
2, 40080, Note_on_c, 1, 92, 127
2, 40120, Note_on_c, 1, 44, 127
2, 40120, Note_on_c, 1, 56, 127
2, 40120, Note_off_c, 1, 60, 0
2, 40120, Note_off_c, 1, 63, 0
2, 40120, Note_off_c, 1, 68, 0
2, 40120, Note_on_c, 1, 79, 127
2, 40120, Note_on_c, 1, 82, 127
2, 40120, Note_off_c, 1, 84, 0
2, 40120, Note_on_c, 1, 85, 127
2, 40120, Note_off_c, 1, 87, 0
2, 40120, Note_on_c, 1, 88, 127
2, 40120, Note_on_c, 1, 91, 127
2, 40120, Note_off_c, 1, 92, 0
2, 40160, Note_off_c, 1, 44, 0
2, 40160, Note_off_c, 1, 56, 0
2, 40160, Note_off_c, 1, 79, 0
2, 40160, Note_off_c, 1, 82, 0
2, 40160, Note_off_c, 1, 85, 0
2, 40160, Note_off_c, 1, 88, 0
2, 40160, Note_off_c, 1, 91, 0
2, 40200, Note_on_c, 1, 44, 127
2, 40200, Note_on_c, 1, 56, 127
2, 40200, Note_on_c, 1, 79, 127
2, 40200, Note_on_c, 1, 82, 127
2, 40200, Note_on_c, 1, 85, 127
2, 40200, Note_on_c, 1, 88, 127
2, 40200, Note_on_c, 1, 91, 127
2, 40440, Note_off_c, 1, 44, 0
2, 40440, Note_off_c, 1, 56, 0
2, 40440, Note_off_c, 1, 79, 0
2, 40440, Note_off_c, 1, 82, 0
2, 40440, Note_off_c, 1, 85, 0
2, 40440, Note_off_c, 1, 88, 0
2, 40440, Note_off_c, 1, 91, 0
2, 40480, Note_on_c, 1, 55, 127
2, 40480, Note_on_c, 1, 58, 127
2, 40480, Note_on_c, 1, 61, 127
2, 40480, Note_on_c, 1, 63, 127
2, 40480, Note_on_c, 1, 67, 127
2, 40480, Note_on_c, 1, 70, 127
2, 40480, Note_on_c, 1, 77, 127
2, 40800, Note_on_c, 1, 46, 127
2, 40800, Note_off_c, 1, 55, 0
2, 40800, Note_off_c, 1, 58, 0
2, 40800, Note_on_c, 1, 60, 127
2, 40800, Note_off_c, 1, 61, 0
2, 40800, Note_off_c, 1, 63, 0
2, 40800, Note_on_c, 1, 65, 127
2, 40800, Note_off_c, 1, 67, 0
2, 40800, Note_on_c, 1, 69, 127
2, 40800, Note_off_c, 1, 70, 0
2, 40800, Note_off_c, 1, 77, 0
2, 40840, Note_off_c, 1, 46, 0
2, 40840, Note_off_c, 1, 60, 0
2, 40840, Note_off_c, 1, 65, 0
2, 40840, Note_on_c, 1, 66, 127
2, 40840, Note_off_c, 1, 69, 0
2, 40840, Note_on_c, 1, 73, 127
2, 40840, Note_on_c, 1, 79, 127
2, 40880, Note_on_c, 1, 50, 127
2, 40880, Note_on_c, 1, 52, 127
2, 40880, Note_on_c, 1, 59, 127
2, 40880, Note_off_c, 1, 66, 0
2, 40880, Note_off_c, 1, 73, 0
2, 40880, Note_off_c, 1, 79, 0
2, 40880, Note_on_c, 1, 92, 127
2, 40920, Note_off_c, 1, 50, 0
2, 40920, Note_on_c, 1, 54, 127
2, 40920, Note_on_c, 1, 57, 127
2, 40920, Note_on_c, 1, 63, 127
2, 40920, Note_on_c, 1, 87, 127
2, 40920, Note_off_c, 1, 92, 0
2, 40960, Note_on_c, 1, 45, 127
2, 40960, Note_off_c, 1, 52, 0
2, 40960, Note_off_c, 1, 54, 0
2, 40960, Note_off_c, 1, 57, 0
2, 40960, Note_on_c, 1, 66, 127
2, 40960, Note_off_c, 1, 87, 0
2, 41000, Note_on_c, 1, 40, 127
2, 41000, Note_off_c, 1, 45, 0
2, 41000, Note_on_c, 1, 50, 127
2, 41000, Note_off_c, 1, 59, 0
2, 41000, Note_on_c, 1, 61, 127
2, 41000, Note_off_c, 1, 63, 0
2, 41000, Note_on_c, 1, 64, 127
2, 41000, Note_off_c, 1, 66, 0
2, 41040, Note_off_c, 1, 40, 0
2, 41040, Note_off_c, 1, 50, 0
2, 41040, Note_on_c, 1, 54, 127
2, 41040, Note_on_c, 1, 58, 127
2, 41040, Note_off_c, 1, 64, 0
2, 41040, Note_on_c, 1, 66, 127
2, 41040, Note_on_c, 1, 73, 127
2, 41040, Note_on_c, 1, 76, 127
2, 41080, Note_off_c, 1, 54, 0
2, 41080, Note_on_c, 1, 57, 127
2, 41080, Note_off_c, 1, 58, 0
2, 41080, Note_off_c, 1, 61, 0
2, 41080, Note_on_c, 1, 62, 127
2, 41080, Note_off_c, 1, 66, 0
2, 41080, Note_off_c, 1, 73, 0
2, 41080, Note_on_c, 1, 75, 127
2, 41080, Note_off_c, 1, 76, 0
2, 41080, Note_on_c, 1, 82, 127
2, 41080, Note_on_c, 1, 87, 127
2, 41120, Note_on_c, 1, 36, 127
2, 41120, Note_on_c, 1, 48, 127
2, 41120, Note_on_c, 1, 54, 127
2, 41120, Note_off_c, 1, 57, 0
2, 41120, Note_off_c, 1, 62, 0
2, 41120, Note_on_c, 1, 65, 127
2, 41120, Note_off_c, 1, 75, 0
2, 41120, Note_off_c, 1, 82, 0
2, 41120, Note_off_c, 1, 87, 0
2, 41160, Note_off_c, 1, 36, 0
2, 41160, Note_off_c, 1, 48, 0
2, 41160, Note_on_c, 1, 50, 127
2, 41160, Note_off_c, 1, 54, 0
2, 41160, Note_on_c, 1, 59, 127
2, 41160, Note_on_c, 1, 62, 127
2, 41160, Note_off_c, 1, 65, 0
2, 41160, Note_on_c, 1, 74, 127
2, 41160, Note_on_c, 1, 79, 127
2, 41160, Note_on_c, 1, 86, 127
2, 41200, Note_on_c, 1, 33, 127
2, 41200, Note_off_c, 1, 50, 0
2, 41200, Note_off_c, 1, 59, 0
2, 41200, Note_off_c, 1, 62, 0
2, 41200, Note_off_c, 1, 74, 0
2, 41200, Note_off_c, 1, 79, 0
2, 41200, Note_off_c, 1, 86, 0
2, 41240, Note_off_c, 1, 33, 0
2, 41240, Note_on_c, 1, 42, 127
2, 41240, Note_on_c, 1, 47, 127
2, 41240, Note_on_c, 1, 51, 127
2, 41240, Note_on_c, 1, 81, 127
2, 41280, Note_off_c, 1, 42, 0
2, 41280, Note_on_c, 1, 46, 127
2, 41280, Note_off_c, 1, 47, 0
2, 41280, Note_off_c, 1, 51, 0
2, 41280, Note_on_c, 1, 56, 127
2, 41280, Note_off_c, 1, 81, 0
2, 41280, Note_on_c, 1, 86, 127
2, 41320, Note_off_c, 1, 46, 0
2, 41320, Note_on_c, 1, 49, 127
2, 41320, Note_on_c, 1, 53, 127
2, 41320, Note_on_c, 1, 61, 127
2, 41320, Note_on_c, 1, 75, 127
2, 41320, Note_off_c, 1, 86, 0
2, 41360, Note_on_c, 1, 46, 127
2, 41360, Note_off_c, 1, 49, 0
2, 41360, Note_off_c, 1, 53, 0
2, 41360, Note_off_c, 1, 61, 0
2, 41360, Note_on_c, 1, 62, 127
2, 41360, Note_on_c, 1, 65, 127
2, 41360, Note_on_c, 1, 70, 127
2, 41360, Note_off_c, 1, 75, 0
2, 41400, Note_on_c, 1, 42, 127
2, 41400, Note_off_c, 1, 46, 0
2, 41400, Note_on_c, 1, 47, 127
2, 41400, Note_on_c, 1, 51, 127
2, 41400, Note_off_c, 1, 56, 0
2, 41400, Note_off_c, 1, 62, 0
2, 41400, Note_off_c, 1, 65, 0
2, 41400, Note_off_c, 1, 70, 0
2, 41400, Note_on_c, 1, 81, 127
2, 41440, Note_on_c, 1, 36, 127
2, 41440, Note_on_c, 1, 45, 127
2, 41440, Note_off_c, 1, 47, 0
2, 41440, Note_off_c, 1, 81, 0
2, 41480, Note_on_c, 1, 35, 127
2, 41480, Note_off_c, 1, 36, 0
2, 41480, Note_on_c, 1, 40, 127
2, 41480, Note_off_c, 1, 42, 0
2, 41480, Note_off_c, 1, 45, 0
2, 41480, Note_on_c, 1, 47, 127
2, 41480, Note_off_c, 1, 51, 0
2, 41480, Note_on_c, 1, 59, 127
2, 41520, Note_off_c, 1, 35, 0
2, 41520, Note_off_c, 1, 40, 0
2, 41520, Note_off_c, 1, 47, 0
2, 41520, Note_on_c, 1, 65, 127
2, 41520, Note_on_c, 1, 68, 127
2, 41520, Note_on_c, 1, 74, 127
2, 41520, Note_on_c, 1, 77, 127
2, 41560, Note_on_c, 1, 48, 127
2, 41560, Note_on_c, 1, 53, 127
2, 41560, Note_on_c, 1, 56, 127
2, 41560, Note_on_c, 1, 62, 127
2, 41560, Note_on_c, 1, 71, 127
2, 41600, Note_off_c, 1, 48, 0
2, 41600, Note_off_c, 1, 53, 0
2, 41600, Note_off_c, 1, 56, 0
2, 41600, Note_off_c, 1, 59, 0
2, 41600, Note_off_c, 1, 62, 0
2, 41600, Note_off_c, 1, 65, 0
2, 41600, Note_off_c, 1, 68, 0
2, 41600, Note_off_c, 1, 71, 0
2, 41600, Note_off_c, 1, 77, 0
2, 41600, Note_on_c, 1, 83, 127
2, 41600, Note_on_c, 1, 86, 127
2, 41640, Note_on_c, 1, 46, 127
2, 41640, Note_on_c, 1, 76, 127
2, 41640, Note_off_c, 1, 83, 0
2, 41640, Note_off_c, 1, 86, 0
2, 41960, Note_off_c, 1, 46, 0
2, 41960, Note_off_c, 1, 74, 0
2, 41960, Note_off_c, 1, 76, 0
2, 42000, Note_on_c, 1, 46, 127
2, 42000, Note_on_c, 1, 76, 127
2, 42040, Note_on_c, 1, 64, 127
2, 42040, Note_off_c, 1, 76, 0
2, 42240, Note_on_c, 1, 61, 127
2, 42400, Note_off_c, 1, 61, 0
2, 42800, Note_off_c, 1, 64, 0
2, 42840, Note_on_c, 1, 64, 127
2, 43200, Note_off_c, 1, 46, 0
2, 43200, Note_off_c, 1, 64, 0
2, 43280, Note_on_c, 1, 46, 127
2, 43600, Note_off_c, 1, 46, 0
2, 43680, Note_on_c, 1, 47, 127
2, 43680, Note_on_c, 1, 75, 127
2, 43680, Note_on_c, 1, 87, 127
2, 44040, Note_off_c, 1, 47, 0
2, 44040, Note_off_c, 1, 75, 0
2, 44040, Note_off_c, 1, 87, 0
2, 44080, Note_on_c, 1, 47, 127
2, 44080, Note_on_c, 1, 75, 127
2, 44080, Note_on_c, 1, 87, 127
2, 44880, Note_off_c, 1, 47, 0
2, 44880, Note_on_c, 1, 51, 127
2, 44920, Note_off_c, 1, 51, 0
2, 44920, Note_on_c, 1, 56, 127
2, 44920, Note_on_c, 1, 59, 127
2, 45280, Note_off_c, 1, 56, 0
2, 45280, Note_off_c, 1, 59, 0
2, 45280, Note_off_c, 1, 75, 0
2, 45280, Note_off_c, 1, 87, 0
2, 45320, Note_on_c, 1, 52, 127
2, 45320, Note_on_c, 1, 56, 127
2, 45320, Note_on_c, 1, 64, 127
2, 45680, Note_off_c, 1, 56, 0
2, 45680, Note_off_c, 1, 64, 0
2, 45720, Note_on_c, 1, 59, 127
2, 46040, Note_off_c, 1, 52, 0
2, 46040, Note_off_c, 1, 59, 0
2, 46120, Note_on_c, 1, 52, 127
2, 46120, Note_on_c, 1, 59, 127
2, 46320, Note_off_c, 1, 52, 0
2, 46320, Note_off_c, 1, 59, 0
2, 46360, Note_on_c, 1, 52, 127
2, 46360, Note_on_c, 1, 59, 127
2, 47120, Note_off_c, 1, 52, 0
2, 47120, Note_off_c, 1, 59, 0
2, 47160, Note_on_c, 1, 52, 127
2, 47520, Note_off_c, 1, 52, 0
2, 47560, Note_on_c, 1, 48, 127
2, 47560, Note_on_c, 1, 60, 127
2, 47560, Note_on_c, 1, 65, 127
2, 47560, Note_on_c, 1, 69, 127
2, 47920, Note_off_c, 1, 48, 0
2, 47920, Note_on_c, 1, 50, 127
2, 47920, Note_off_c, 1, 60, 0
2, 47920, Note_off_c, 1, 65, 0
2, 47920, Note_off_c, 1, 69, 0
2, 47960, Note_on_c, 1, 39, 127
2, 47960, Note_on_c, 1, 46, 127
2, 47960, Note_off_c, 1, 50, 0
2, 47960, Note_on_c, 1, 56, 127
2, 47960, Note_on_c, 1, 63, 127
2, 47960, Note_on_c, 1, 68, 127
2, 48280, Note_off_c, 1, 39, 0
2, 48280, Note_on_c, 1, 44, 127
2, 48280, Note_off_c, 1, 46, 0
2, 48280, Note_on_c, 1, 47, 127
2, 48280, Note_on_c, 1, 52, 127
2, 48280, Note_off_c, 1, 56, 0
2, 48280, Note_off_c, 1, 63, 0
2, 48280, Note_off_c, 1, 68, 0
2, 48280, Note_on_c, 1, 75, 127
2, 48320, Note_on_c, 1, 38, 127
2, 48320, Note_off_c, 1, 44, 0
2, 48320, Note_off_c, 1, 47, 0
2, 48320, Note_off_c, 1, 52, 0
2, 48320, Note_on_c, 1, 66, 127
2, 48320, Note_off_c, 1, 75, 0
2, 48360, Note_off_c, 1, 38, 0
2, 48360, Note_on_c, 1, 55, 127
2, 48360, Note_on_c, 1, 58, 127
2, 48360, Note_on_c, 1, 64, 127
2, 48360, Note_off_c, 1, 66, 0
2, 48360, Note_on_c, 1, 76, 127
2, 48360, Note_on_c, 1, 77, 127
2, 48400, Note_on_c, 1, 47, 127
2, 48400, Note_on_c, 1, 52, 127
2, 48400, Note_off_c, 1, 55, 0
2, 48400, Note_off_c, 1, 58, 0
2, 48400, Note_on_c, 1, 63, 127
2, 48400, Note_off_c, 1, 64, 0
2, 48400, Note_on_c, 1, 69, 127
2, 48400, Note_off_c, 1, 76, 0
2, 48400, Note_off_c, 1, 77, 0
2, 48440, Note_off_c, 1, 47, 0
2, 48440, Note_off_c, 1, 52, 0
2, 48440, Note_off_c, 1, 63, 0
2, 48440, Note_off_c, 1, 69, 0
2, 48480, Note_on_c, 1, 52, 127
2, 48480, Note_on_c, 1, 59, 127
2, 48480, Note_on_c, 1, 62, 127
2, 48480, Note_on_c, 1, 72, 127
2, 48520, Note_off_c, 1, 52, 0
2, 48520, Note_on_c, 1, 56, 127
2, 48520, Note_on_c, 1, 58, 127
2, 48520, Note_off_c, 1, 59, 0
2, 48520, Note_on_c, 1, 61, 127
2, 48520, Note_off_c, 1, 62, 0
2, 48520, Note_on_c, 1, 64, 127
2, 48520, Note_on_c, 1, 68, 127
2, 48520, Note_off_c, 1, 72, 0
2, 48520, Note_on_c, 1, 80, 127
2, 48560, Note_on_c, 1, 47, 127
2, 48560, Note_off_c, 1, 56, 0
2, 48560, Note_off_c, 1, 58, 0
2, 48560, Note_on_c, 1, 59, 127
2, 48560, Note_off_c, 1, 61, 0
2, 48560, Note_off_c, 1, 64, 0
2, 48560, Note_off_c, 1, 68, 0
2, 48560, Note_on_c, 1, 73, 127
2, 48600, Note_on_c, 1, 36, 127
2, 48600, Note_on_c, 1, 43, 127
2, 48600, Note_off_c, 1, 47, 0
2, 48600, Note_on_c, 1, 48, 127
2, 48600, Note_off_c, 1, 59, 0
2, 48600, Note_on_c, 1, 70, 127
2, 48600, Note_off_c, 1, 73, 0
2, 48600, Note_on_c, 1, 76, 127
2, 48600, Note_off_c, 1, 80, 0
2, 48600, Note_on_c, 1, 82, 127
2, 48640, Note_on_c, 1, 35, 127
2, 48640, Note_off_c, 1, 36, 0
2, 48640, Note_off_c, 1, 43, 0
2, 48640, Note_off_c, 1, 48, 0
2, 48640, Note_on_c, 1, 62, 127
2, 48640, Note_on_c, 1, 66, 127
2, 48640, Note_on_c, 1, 69, 127
2, 48640, Note_off_c, 1, 70, 0
2, 48640, Note_off_c, 1, 76, 0
2, 48640, Note_off_c, 1, 82, 0
2, 48680, Note_off_c, 1, 35, 0
2, 48680, Note_on_c, 1, 52, 127
2, 48680, Note_on_c, 1, 55, 127
2, 48680, Note_off_c, 1, 62, 0
2, 48680, Note_off_c, 1, 66, 0
2, 48680, Note_off_c, 1, 69, 0
2, 48680, Note_on_c, 1, 83, 127
2, 48720, Note_on_c, 1, 35, 127
2, 48720, Note_off_c, 1, 52, 0
2, 48720, Note_off_c, 1, 55, 0
2, 48720, Note_on_c, 1, 62, 127
2, 48720, Note_on_c, 1, 66, 127
2, 48720, Note_on_c, 1, 69, 127
2, 48720, Note_off_c, 1, 83, 0
2, 48760, Note_off_c, 1, 35, 0
2, 48760, Note_off_c, 1, 62, 0
2, 48760, Note_off_c, 1, 66, 0
2, 48760, Note_off_c, 1, 69, 0
2, 48800, Note_on_c, 1, 55, 127
2, 48800, Note_on_c, 1, 62, 127
2, 48800, Note_on_c, 1, 65, 127
2, 48800, Note_on_c, 1, 67, 127
2, 48800, Note_on_c, 1, 69, 127
2, 49560, Note_off_c, 1, 55, 0
2, 49560, Note_off_c, 1, 62, 0
2, 49560, Note_off_c, 1, 65, 0
2, 49560, Note_off_c, 1, 67, 0
2, 49560, Note_off_c, 1, 69, 0
2, 49600, Note_on_c, 1, 55, 127
2, 49600, Note_on_c, 1, 77, 127
2, 49600, Note_on_c, 1, 85, 127
2, 49640, Note_on_c, 1, 49, 127
2, 49640, Note_on_c, 1, 53, 127
2, 49640, Note_off_c, 1, 55, 0
2, 49640, Note_on_c, 1, 56, 127
2, 49640, Note_on_c, 1, 61, 127
2, 49640, Note_on_c, 1, 73, 127
2, 49640, Note_on_c, 1, 80, 127
2, 49640, Note_on_c, 1, 83, 127
2, 49640, Note_off_c, 1, 85, 0
2, 49680, Note_off_c, 1, 49, 0
2, 49680, Note_off_c, 1, 53, 0
2, 49680, Note_on_c, 1, 55, 127
2, 49680, Note_off_c, 1, 56, 0
2, 49680, Note_off_c, 1, 61, 0
2, 49680, Note_off_c, 1, 73, 0
2, 49680, Note_off_c, 1, 80, 0
2, 49680, Note_off_c, 1, 83, 0
2, 49680, Note_on_c, 1, 85, 127
2, 49720, Note_on_c, 1, 40, 127
2, 49720, Note_off_c, 1, 55, 0
2, 49720, Note_on_c, 1, 67, 127
2, 49720, Note_on_c, 1, 70, 127
2, 49720, Note_on_c, 1, 76, 127
2, 49720, Note_off_c, 1, 77, 0
2, 49720, Note_off_c, 1, 85, 0
2, 49760, Note_off_c, 1, 40, 0
2, 49760, Note_on_c, 1, 52, 127
2, 49760, Note_on_c, 1, 54, 127
2, 49760, Note_off_c, 1, 67, 0
2, 49760, Note_off_c, 1, 70, 0
2, 49760, Note_off_c, 1, 76, 0
2, 49760, Note_on_c, 1, 78, 127
2, 49800, Note_on_c, 1, 44, 127
2, 49800, Note_off_c, 1, 52, 0
2, 49800, Note_off_c, 1, 54, 0
2, 49800, Note_on_c, 1, 64, 127
2, 49800, Note_on_c, 1, 73, 127
2, 49800, Note_off_c, 1, 78, 0
2, 49800, Note_on_c, 1, 85, 127
2, 49840, Note_on_c, 1, 36, 127
2, 49840, Note_off_c, 1, 44, 0
2, 49840, Note_on_c, 1, 45, 127
2, 49840, Note_off_c, 1, 64, 0
2, 49840, Note_on_c, 1, 72, 127
2, 49840, Note_off_c, 1, 73, 0
2, 49840, Note_on_c, 1, 81, 127
2, 49840, Note_off_c, 1, 85, 0
2, 49880, Note_off_c, 1, 36, 0
2, 49880, Note_off_c, 1, 45, 0
2, 49880, Note_on_c, 1, 54, 127
2, 49880, Note_on_c, 1, 64, 127
2, 49880, Note_on_c, 1, 79, 127
2, 49880, Note_off_c, 1, 81, 0
2, 49920, Note_on_c, 1, 45, 127
2, 49920, Note_off_c, 1, 54, 0
2, 49920, Note_on_c, 1, 61, 127
2, 49920, Note_off_c, 1, 64, 0
2, 49920, Note_on_c, 1, 69, 127
2, 49920, Note_off_c, 1, 72, 0
2, 49920, Note_off_c, 1, 79, 0
2, 49920, Note_on_c, 1, 81, 127
2, 49960, Note_off_c, 1, 45, 0
2, 49960, Note_off_c, 1, 61, 0
2, 49960, Note_off_c, 1, 69, 0
2, 49960, Note_off_c, 1, 81, 0
2, 50000, Note_on_c, 1, 58, 127
2, 50000, Note_on_c, 1, 62, 127
2, 50000, Note_on_c, 1, 65, 127
2, 50000, Note_on_c, 1, 81, 127
2, 50000, Note_on_c, 1, 93, 127
2, 50360, Note_on_c, 1, 41, 127
2, 50360, Note_off_c, 1, 58, 0
2, 50360, Note_off_c, 1, 62, 0
2, 50360, Note_off_c, 1, 65, 0
2, 50360, Note_off_c, 1, 81, 0
2, 50360, Note_off_c, 1, 93, 0
2, 50400, Note_off_c, 1, 41, 0
2, 50400, Note_on_c, 1, 57, 127
2, 50400, Note_on_c, 1, 64, 127
2, 50400, Note_on_c, 1, 67, 127
2, 50400, Note_on_c, 1, 69, 127
2, 50400, Note_on_c, 1, 76, 127
2, 50400, Note_on_c, 1, 85, 127
2, 50400, Note_on_c, 1, 88, 127
2, 50440, Note_on_c, 1, 41, 127
2, 50440, Note_off_c, 1, 57, 0
2, 50440, Note_on_c, 1, 59, 127
2, 50440, Note_off_c, 1, 64, 0
2, 50440, Note_off_c, 1, 67, 0
2, 50440, Note_off_c, 1, 76, 0
2, 50440, Note_off_c, 1, 85, 0
2, 50440, Note_off_c, 1, 88, 0
2, 50480, Note_off_c, 1, 41, 0
2, 50480, Note_off_c, 1, 59, 0
2, 50480, Note_off_c, 1, 69, 0
2, 50520, Note_on_c, 1, 41, 127
2, 50520, Note_on_c, 1, 59, 127
2, 50520, Note_on_c, 1, 69, 127
2, 50800, Note_off_c, 1, 41, 0
2, 50800, Note_off_c, 1, 59, 0
2, 50800, Note_off_c, 1, 69, 0
2, 50840, Note_on_c, 1, 46, 127
2, 50840, Note_on_c, 1, 54, 127
2, 50840, Note_on_c, 1, 73, 127
2, 50840, Note_on_c, 1, 83, 127
2, 50880, Note_on_c, 1, 43, 127
2, 50880, Note_off_c, 1, 46, 0
2, 50880, Note_off_c, 1, 54, 0
2, 50880, Note_on_c, 1, 60, 127
2, 50880, Note_on_c, 1, 62, 127
2, 50880, Note_on_c, 1, 66, 127
2, 50880, Note_off_c, 1, 73, 0
2, 50880, Note_off_c, 1, 83, 0
2, 50920, Note_off_c, 1, 43, 0
2, 50920, Note_on_c, 1, 46, 127
2, 50920, Note_on_c, 1, 54, 127
2, 50920, Note_off_c, 1, 60, 0
2, 50920, Note_off_c, 1, 62, 0
2, 50920, Note_off_c, 1, 66, 0
2, 50920, Note_on_c, 1, 73, 127
2, 50920, Note_on_c, 1, 82, 127
2, 50960, Note_off_c, 1, 46, 0
2, 50960, Note_off_c, 1, 54, 0
2, 50960, Note_on_c, 1, 55, 127
2, 50960, Note_on_c, 1, 57, 127
2, 50960, Note_on_c, 1, 62, 127
2, 50960, Note_off_c, 1, 73, 0
2, 50960, Note_off_c, 1, 82, 0
2, 51000, Note_off_c, 1, 55, 0
2, 51000, Note_off_c, 1, 57, 0
2, 51000, Note_off_c, 1, 62, 0
2, 51000, Note_on_c, 1, 63, 127
2, 51000, Note_on_c, 1, 64, 127
2, 51000, Note_on_c, 1, 74, 127
2, 51000, Note_on_c, 1, 76, 127
2, 51040, Note_on_c, 1, 46, 127
2, 51040, Note_on_c, 1, 54, 127
2, 51040, Note_off_c, 1, 63, 0
2, 51040, Note_off_c, 1, 64, 0
2, 51040, Note_on_c, 1, 73, 127
2, 51040, Note_off_c, 1, 74, 0
2, 51040, Note_off_c, 1, 76, 0
2, 51040, Note_on_c, 1, 83, 127
2, 51160, Note_off_c, 1, 54, 0
2, 51160, Note_on_c, 1, 60, 127
2, 51160, Note_on_c, 1, 61, 127
2, 51160, Note_off_c, 1, 83, 0
2, 51200, Note_off_c, 1, 46, 0
2, 51200, Note_off_c, 1, 60, 0
2, 51200, Note_off_c, 1, 61, 0
2, 51200, Note_off_c, 1, 73, 0
2, 51240, Note_on_c, 1, 44, 127
2, 51240, Note_on_c, 1, 48, 127
2, 51240, Note_on_c, 1, 78, 127
2, 51240, Note_on_c, 1, 90, 127
2, 52000, Note_off_c, 1, 44, 0
2, 52000, Note_off_c, 1, 48, 0
2, 52000, Note_off_c, 1, 78, 0
2, 52000, Note_on_c, 1, 86, 127
2, 52000, Note_off_c, 1, 90, 0
2, 52040, Note_on_c, 1, 48, 127
2, 52040, Note_on_c, 1, 70, 127
2, 52040, Note_on_c, 1, 73, 127
2, 52040, Note_on_c, 1, 78, 127
2, 52040, Note_off_c, 1, 86, 0
2, 52080, Note_on_c, 1, 45, 127
2, 52080, Note_off_c, 1, 48, 0
2, 52080, Note_on_c, 1, 51, 127
2, 52080, Note_on_c, 1, 53, 127
2, 52080, Note_on_c, 1, 60, 127
2, 52080, Note_on_c, 1, 65, 127
2, 52080, Note_off_c, 1, 70, 0
2, 52080, Note_off_c, 1, 73, 0
2, 52080, Note_off_c, 1, 78, 0
2, 52120, Note_off_c, 1, 45, 0
2, 52120, Note_off_c, 1, 51, 0
2, 52120, Note_off_c, 1, 53, 0
2, 52120, Note_on_c, 1, 59, 127
2, 52120, Note_off_c, 1, 60, 0
2, 52120, Note_off_c, 1, 65, 0
2, 52120, Note_on_c, 1, 81, 127
2, 52120, Note_on_c, 1, 90, 127
2, 52120, Note_on_c, 1, 93, 127
2, 52160, Note_off_c, 1, 59, 0
2, 52160, Note_off_c, 1, 81, 0
2, 52160, Note_off_c, 1, 90, 0
2, 52160, Note_on_c, 1, 91, 127
2, 52160, Note_off_c, 1, 93, 0
2, 52160, Note_on_c, 1, 94, 127
2, 52160, Note_on_c, 1, 99, 127
2, 52200, Note_on_c, 1, 45, 127
2, 52200, Note_on_c, 1, 51, 127
2, 52200, Note_on_c, 1, 53, 127
2, 52200, Note_on_c, 1, 60, 127
2, 52200, Note_on_c, 1, 65, 127
2, 52200, Note_off_c, 1, 91, 0
2, 52200, Note_off_c, 1, 94, 0
2, 52200, Note_off_c, 1, 99, 0
2, 52400, Note_off_c, 1, 45, 0
2, 52400, Note_off_c, 1, 51, 0
2, 52400, Note_on_c, 1, 58, 127
2, 52400, Note_off_c, 1, 60, 0
2, 52400, Note_on_c, 1, 62, 127
2, 52400, Note_off_c, 1, 65, 0
2, 52400, Note_on_c, 1, 82, 127
2, 52400, Note_on_c, 1, 86, 127
2, 52400, Note_on_c, 1, 89, 127
2, 52400, Note_on_c, 1, 94, 127
2, 52440, Note_off_c, 1, 53, 0
2, 52440, Note_off_c, 1, 58, 0
2, 52440, Note_off_c, 1, 62, 0
2, 52440, Note_off_c, 1, 82, 0
2, 52440, Note_off_c, 1, 86, 0
2, 52440, Note_off_c, 1, 89, 0
2, 52440, Note_off_c, 1, 94, 0
2, 52480, Note_on_c, 1, 45, 127
2, 52480, Note_on_c, 1, 50, 127
2, 52480, Note_on_c, 1, 53, 127
2, 52480, Note_on_c, 1, 58, 127
2, 52520, Note_off_c, 1, 45, 0
2, 52520, Note_off_c, 1, 50, 0
2, 52520, Note_off_c, 1, 53, 0
2, 52520, Note_off_c, 1, 58, 0
2, 52520, Note_on_c, 1, 67, 127
2, 52520, Note_on_c, 1, 70, 127
2, 52520, Note_on_c, 1, 73, 127
2, 52520, Note_on_c, 1, 91, 127
2, 52560, Note_on_c, 1, 62, 127
2, 52560, Note_off_c, 1, 67, 0
2, 52560, Note_on_c, 1, 68, 127
2, 52560, Note_off_c, 1, 70, 0
2, 52560, Note_on_c, 1, 71, 127
2, 52560, Note_off_c, 1, 73, 0
2, 52560, Note_on_c, 1, 74, 127
2, 52560, Note_on_c, 1, 80, 127
2, 52560, Note_off_c, 1, 91, 0
2, 52600, Note_on_c, 1, 57, 127
2, 52600, Note_off_c, 1, 62, 0
2, 52600, Note_on_c, 1, 65, 127
2, 52600, Note_off_c, 1, 68, 0
2, 52600, Note_off_c, 1, 74, 0
2, 52640, Note_on_c, 1, 48, 127
2, 52640, Note_on_c, 1, 50, 127
2, 52640, Note_on_c, 1, 53, 127
2, 52640, Note_on_c, 1, 55, 127
2, 52640, Note_off_c, 1, 57, 0
2, 52640, Note_off_c, 1, 65, 0
2, 52640, Note_off_c, 1, 71, 0
2, 52640, Note_on_c, 1, 77, 127
2, 52640, Note_off_c, 1, 80, 0
2, 52680, Note_off_c, 1, 48, 0
2, 52680, Note_off_c, 1, 50, 0
2, 52680, Note_off_c, 1, 53, 0
2, 52680, Note_off_c, 1, 55, 0
2, 52680, Note_on_c, 1, 59, 127
2, 52680, Note_on_c, 1, 63, 127
2, 52680, Note_on_c, 1, 65, 127
2, 52680, Note_on_c, 1, 75, 127
2, 52680, Note_off_c, 1, 77, 0
2, 52720, Note_on_c, 1, 50, 127
2, 52720, Note_on_c, 1, 52, 127
2, 52720, Note_on_c, 1, 56, 127
2, 52720, Note_off_c, 1, 59, 0
2, 52720, Note_off_c, 1, 63, 0
2, 52720, Note_on_c, 1, 64, 127
2, 52720, Note_off_c, 1, 65, 0
2, 52720, Note_off_c, 1, 75, 0
2, 52760, Note_on_c, 1, 37, 127
2, 52760, Note_off_c, 1, 50, 0
2, 52760, Note_off_c, 1, 52, 0
2, 52760, Note_off_c, 1, 56, 0
2, 52760, Note_on_c, 1, 59, 127
2, 52760, Note_on_c, 1, 67, 127
2, 52800, Note_off_c, 1, 37, 0
2, 52800, Note_on_c, 1, 47, 127
2, 52800, Note_on_c, 1, 49, 127
2, 52800, Note_on_c, 1, 53, 127
2, 52800, Note_on_c, 1, 61, 127
2, 52800, Note_off_c, 1, 64, 0
2, 52800, Note_off_c, 1, 67, 0
2, 52840, Note_off_c, 1, 47, 0
2, 52840, Note_off_c, 1, 49, 0
2, 52840, Note_off_c, 1, 53, 0
2, 52840, Note_off_c, 1, 59, 0
2, 52840, Note_off_c, 1, 61, 0
2, 52880, Note_on_c, 1, 45, 127
2, 52880, Note_on_c, 1, 52, 127
2, 52880, Note_on_c, 1, 65, 127
2, 52880, Note_on_c, 1, 72, 127
2, 52880, Note_on_c, 1, 75, 127
2, 52880, Note_on_c, 1, 77, 127
2, 53640, Note_off_c, 1, 45, 0
2, 53640, Note_off_c, 1, 52, 0
2, 53640, Note_off_c, 1, 65, 0
2, 53640, Note_off_c, 1, 72, 0
2, 53640, Note_off_c, 1, 75, 0
2, 53640, Note_off_c, 1, 77, 0
2, 53680, Note_on_c, 1, 64, 127
2, 53680, Note_on_c, 1, 88, 127
2, 54440, Note_off_c, 1, 64, 0
2, 54440, Note_off_c, 1, 88, 0
2, 54480, Note_on_c, 1, 34, 127
2, 54480, Note_on_c, 1, 76, 127
2, 54480, Note_on_c, 1, 88, 127
2, 54520, Note_off_c, 1, 34, 0
2, 54520, Note_on_c, 1, 35, 127
2, 54520, Note_on_c, 1, 44, 127
2, 54520, Note_on_c, 1, 47, 127
2, 54520, Note_on_c, 1, 64, 127
2, 54520, Note_off_c, 1, 88, 0
2, 54880, Note_off_c, 1, 35, 0
2, 54880, Note_off_c, 1, 44, 0
2, 54880, Note_off_c, 1, 47, 0
2, 54880, Note_off_c, 1, 64, 0
2, 54880, Note_off_c, 1, 76, 0
2, 54920, Note_on_c, 1, 35, 127
2, 54920, Note_on_c, 1, 44, 127
2, 54920, Note_on_c, 1, 47, 127
2, 54920, Note_on_c, 1, 64, 127
2, 54920, Note_on_c, 1, 76, 127
2, 55680, Note_off_c, 1, 35, 0
2, 55680, Note_off_c, 1, 44, 0
2, 55680, Note_off_c, 1, 47, 0
2, 55680, Note_off_c, 1, 64, 0
2, 55680, Note_off_c, 1, 76, 0
2, 55720, Note_on_c, 1, 45, 127
2, 55720, Note_on_c, 1, 49, 127
2, 55720, Note_on_c, 1, 67, 127
2, 55720, Note_on_c, 1, 79, 127
2, 55760, Note_off_c, 1, 45, 0
2, 55760, Note_off_c, 1, 49, 0
2, 55760, Note_off_c, 1, 67, 0
2, 55760, Note_on_c, 1, 77, 127
2, 55760, Note_off_c, 1, 79, 0
2, 55760, Note_on_c, 1, 80, 127
2, 55760, Note_on_c, 1, 85, 127
2, 55760, Note_on_c, 1, 89, 127
2, 55760, Note_on_c, 1, 97, 127
2, 55800, Note_off_c, 1, 77, 0
2, 55800, Note_off_c, 1, 80, 0
2, 55800, Note_off_c, 1, 85, 0
2, 55800, Note_off_c, 1, 89, 0
2, 55800, Note_off_c, 1, 97, 0
2, 55840, Note_on_c, 1, 35, 127
2, 55840, Note_on_c, 1, 47, 127
2, 55840, Note_on_c, 1, 63, 127
2, 55840, Note_on_c, 1, 78, 127
2, 55880, Note_on_c, 1, 32, 127
2, 55880, Note_off_c, 1, 35, 0
2, 55880, Note_on_c, 1, 44, 127
2, 55880, Note_off_c, 1, 47, 0
2, 55880, Note_off_c, 1, 63, 0
2, 55880, Note_on_c, 1, 73, 127
2, 55880, Note_off_c, 1, 78, 0
2, 55880, Note_on_c, 1, 80, 127
2, 55920, Note_off_c, 1, 32, 0
2, 55920, Note_on_c, 1, 40, 127
2, 55920, Note_off_c, 1, 44, 0
2, 55920, Note_on_c, 1, 69, 127
2, 55920, Note_on_c, 1, 71, 127
2, 55920, Note_on_c, 1, 72, 127
2, 55920, Note_off_c, 1, 73, 0
2, 55920, Note_on_c, 1, 74, 127
2, 55920, Note_off_c, 1, 80, 0
2, 55960, Note_off_c, 1, 40, 0
2, 55960, Note_on_c, 1, 56, 127
2, 55960, Note_on_c, 1, 60, 127
2, 55960, Note_on_c, 1, 63, 127
2, 55960, Note_off_c, 1, 69, 0
2, 55960, Note_off_c, 1, 71, 0
2, 55960, Note_off_c, 1, 72, 0
2, 55960, Note_off_c, 1, 74, 0
2, 55960, Note_on_c, 1, 75, 127
2, 55960, Note_on_c, 1, 84, 127
2, 55960, Note_on_c, 1, 87, 127
2, 56000, Note_off_c, 1, 56, 0
2, 56000, Note_off_c, 1, 60, 0
2, 56000, Note_on_c, 1, 62, 127
2, 56000, Note_off_c, 1, 63, 0
2, 56000, Note_off_c, 1, 75, 0
2, 56000, Note_off_c, 1, 87, 0
2, 56000, Note_on_c, 1, 88, 127
2, 56000, Note_on_c, 1, 96, 127
2, 56040, Note_on_c, 1, 32, 127
2, 56040, Note_on_c, 1, 44, 127
2, 56040, Note_off_c, 1, 62, 0
2, 56040, Note_on_c, 1, 73, 127
2, 56040, Note_on_c, 1, 80, 127
2, 56040, Note_off_c, 1, 84, 0
2, 56040, Note_off_c, 1, 88, 0
2, 56040, Note_off_c, 1, 96, 0
2, 56080, Note_off_c, 1, 32, 0
2, 56080, Note_off_c, 1, 44, 0
2, 56080, Note_on_c, 1, 56, 127
2, 56080, Note_on_c, 1, 60, 127
2, 56080, Note_off_c, 1, 73, 0
2, 56080, Note_off_c, 1, 80, 0
2, 56080, Note_on_c, 1, 84, 127
2, 56120, Note_on_c, 1, 46, 127
2, 56120, Note_on_c, 1, 53, 127
2, 56120, Note_off_c, 1, 56, 0
2, 56120, Note_on_c, 1, 58, 127
2, 56120, Note_on_c, 1, 63, 127
2, 56120, Note_on_c, 1, 67, 127
2, 56120, Note_off_c, 1, 84, 0
2, 56480, Note_off_c, 1, 46, 0
2, 56480, Note_off_c, 1, 53, 0
2, 56480, Note_on_c, 1, 54, 127
2, 56480, Note_on_c, 1, 57, 127
2, 56480, Note_off_c, 1, 58, 0
2, 56480, Note_off_c, 1, 60, 0
2, 56480, Note_on_c, 1, 62, 127
2, 56480, Note_off_c, 1, 63, 0
2, 56480, Note_off_c, 1, 67, 0
2, 56480, Note_on_c, 1, 69, 127
2, 56480, Note_on_c, 1, 75, 127
2, 56480, Note_on_c, 1, 81, 127
2, 56520, Note_on_c, 1, 46, 127
2, 56520, Note_on_c, 1, 53, 127
2, 56520, Note_off_c, 1, 54, 0
2, 56520, Note_off_c, 1, 57, 0
2, 56520, Note_on_c, 1, 58, 127
2, 56520, Note_on_c, 1, 60, 127
2, 56520, Note_off_c, 1, 62, 0
2, 56520, Note_on_c, 1, 63, 127
2, 56520, Note_on_c, 1, 67, 127
2, 56520, Note_off_c, 1, 69, 0
2, 56520, Note_off_c, 1, 75, 0
2, 56520, Note_off_c, 1, 81, 0
2, 56880, Note_off_c, 1, 46, 0
2, 56880, Note_off_c, 1, 53, 0
2, 56880, Note_off_c, 1, 58, 0
2, 56880, Note_off_c, 1, 60, 0
2, 56880, Note_on_c, 1, 61, 127
2, 56880, Note_off_c, 1, 63, 0
2, 56880, Note_off_c, 1, 67, 0
2, 56880, Note_on_c, 1, 76, 127
2, 56880, Note_on_c, 1, 82, 127
2, 56880, Note_on_c, 1, 88, 127
2, 56920, Note_off_c, 1, 61, 0
2, 56920, Note_off_c, 1, 76, 0
2, 56920, Note_off_c, 1, 82, 0
2, 56920, Note_off_c, 1, 88, 0
2, 56960, Note_on_c, 1, 54, 127
2, 56960, Note_on_c, 1, 59, 127
2, 56960, Note_on_c, 1, 66, 127
2, 56960, Note_on_c, 1, 68, 127
2, 56960, Note_on_c, 1, 80, 127
2, 57320, Note_off_c, 1, 54, 0
2, 57320, Note_off_c, 1, 59, 0
2, 57320, Note_off_c, 1, 66, 0
2, 57320, Note_off_c, 1, 68, 0
2, 57320, Note_off_c, 1, 80, 0
2, 57360, Note_on_c, 1, 59, 127
2, 57360, Note_on_c, 1, 64, 127
2, 57360, Note_on_c, 1, 67, 127
2, 57360, Note_on_c, 1, 79, 127
2, 57360, Note_on_c, 1, 91, 127
2, 58120, Note_on_c, 1, 37, 127
2, 58120, Note_on_c, 1, 44, 127
2, 58120, Note_on_c, 1, 49, 127
2, 58120, Note_off_c, 1, 59, 0
2, 58120, Note_off_c, 1, 67, 0
2, 58120, Note_on_c, 1, 76, 127
2, 58120, Note_off_c, 1, 79, 0
2, 58120, Note_off_c, 1, 91, 0
2, 58160, Note_off_c, 1, 37, 0
2, 58160, Note_off_c, 1, 44, 0
2, 58160, Note_off_c, 1, 49, 0
2, 58160, Note_on_c, 1, 50, 127
2, 58160, Note_on_c, 1, 55, 127
2, 58160, Note_on_c, 1, 59, 127
2, 58160, Note_off_c, 1, 64, 0
2, 58160, Note_on_c, 1, 67, 127
2, 58160, Note_on_c, 1, 79, 127
2, 58480, Note_off_c, 1, 50, 0
2, 58480, Note_off_c, 1, 55, 0
2, 58480, Note_off_c, 1, 59, 0
2, 58480, Note_off_c, 1, 67, 0
2, 58480, Note_off_c, 1, 76, 0
2, 58480, Note_off_c, 1, 79, 0
2, 58520, Note_on_c, 1, 38, 127
2, 58520, Note_on_c, 1, 50, 127
2, 58520, Note_on_c, 1, 67, 127
2, 58520, Note_on_c, 1, 70, 127
2, 58520, Note_on_c, 1, 74, 127
2, 58520, Note_on_c, 1, 79, 127
2, 59160, Note_off_c, 1, 38, 0
2, 59160, Note_off_c, 1, 50, 0
2, 59160, Note_off_c, 1, 67, 0
2, 59160, Note_off_c, 1, 70, 0
2, 59160, Note_off_c, 1, 74, 0
2, 59160, Note_off_c, 1, 79, 0
2, 59200, Note_on_c, 1, 38, 127
2, 59200, Note_on_c, 1, 50, 127
2, 59200, Note_on_c, 1, 67, 127
2, 59200, Note_on_c, 1, 70, 127
2, 59200, Note_on_c, 1, 74, 127
2, 59200, Note_on_c, 1, 79, 127
2, 59320, Note_off_c, 1, 38, 0
2, 59320, Note_off_c, 1, 50, 0
2, 59320, Note_off_c, 1, 67, 0
2, 59320, Note_off_c, 1, 70, 0
2, 59320, Note_off_c, 1, 74, 0
2, 59320, Note_off_c, 1, 79, 0
2, 59360, Note_on_c, 1, 57, 127
2, 59360, Note_on_c, 1, 69, 127
2, 59360, Note_on_c, 1, 77, 127
2, 59360, Note_on_c, 1, 81, 127
2, 59920, Note_off_c, 1, 57, 0
2, 59960, Note_on_c, 1, 57, 127
2, 60320, Note_off_c, 1, 57, 0
2, 60720, Note_on_c, 1, 64, 127
2, 60720, Note_off_c, 1, 69, 0
2, 60920, Note_off_c, 1, 64, 0
2, 60920, Note_on_c, 1, 72, 127
2, 60920, Note_on_c, 1, 76, 127
2, 60920, Note_off_c, 1, 77, 0
2, 60920, Note_off_c, 1, 81, 0
2, 60960, Note_on_c, 1, 64, 127
2, 60960, Note_off_c, 1, 72, 0
2, 60960, Note_off_c, 1, 76, 0
2, 60960, Note_on_c, 1, 77, 127
2, 60960, Note_on_c, 1, 81, 127
2, 61320, Note_off_c, 1, 64, 0
2, 61360, Note_on_c, 1, 65, 127
2, 61680, Note_off_c, 1, 65, 0
2, 61680, Note_off_c, 1, 77, 0
2, 61680, Note_off_c, 1, 81, 0
2, 61720, Note_on_c, 1, 65, 127
2, 61720, Note_on_c, 1, 77, 127
2, 61720, Note_on_c, 1, 81, 127
2, 61760, Note_off_c, 1, 65, 0
2, 61800, Note_on_c, 1, 62, 127
2, 61960, Note_off_c, 1, 62, 0
2, 62000, Note_on_c, 1, 62, 127
2, 62160, Note_off_c, 1, 62, 0
2, 62200, Note_on_c, 1, 62, 127
2, 62560, Note_off_c, 1, 62, 0
2, 62560, Note_off_c, 1, 77, 0
2, 62560, Note_off_c, 1, 81, 0
2, 62600, Note_on_c, 1, 67, 127
2, 62600, Note_on_c, 1, 76, 127
2, 62600, Note_on_c, 1, 79, 127
2, 62960, Note_off_c, 1, 67, 0
2, 63000, Note_on_c, 1, 66, 127
2, 63360, Note_off_c, 1, 66, 0
2, 63360, Note_off_c, 1, 76, 0
2, 63360, Note_off_c, 1, 79, 0
2, 63400, Note_on_c, 1, 33, 127
2, 63400, Note_on_c, 1, 36, 127
2, 63400, Note_on_c, 1, 41, 127
2, 63400, Note_on_c, 1, 45, 127
2, 63400, Note_on_c, 1, 57, 127
2, 63440, Note_off_c, 1, 33, 0
2, 63440, Note_off_c, 1, 36, 0
2, 63440, Note_off_c, 1, 41, 0
2, 63440, Note_off_c, 1, 45, 0
2, 63440, Note_off_c, 1, 57, 0
2, 63440, Note_on_c, 1, 79, 127
2, 63440, Note_on_c, 1, 82, 127
2, 63440, Note_on_c, 1, 85, 127
2, 63440, Note_on_c, 1, 88, 127
2, 63440, Note_on_c, 1, 91, 127
2, 63440, Note_on_c, 1, 94, 127
2, 63440, Note_on_c, 1, 97, 127
2, 63440, Note_on_c, 1, 100, 127
2, 63440, Note_on_c, 1, 106, 127
2, 63480, Note_on_c, 1, 46, 127
2, 63480, Note_on_c, 1, 72, 127
2, 63480, Note_off_c, 1, 79, 0
2, 63480, Note_on_c, 1, 80, 127
2, 63480, Note_off_c, 1, 82, 0
2, 63480, Note_off_c, 1, 85, 0
2, 63480, Note_off_c, 1, 88, 0
2, 63480, Note_off_c, 1, 91, 0
2, 63480, Note_off_c, 1, 94, 0
2, 63480, Note_off_c, 1, 97, 0
2, 63480, Note_off_c, 1, 100, 0
2, 63480, Note_off_c, 1, 106, 0
2, 63520, Note_off_c, 1, 46, 0
2, 63520, Note_off_c, 1, 72, 0
2, 63520, Note_on_c, 1, 79, 127
2, 63520, Note_off_c, 1, 80, 0
2, 63520, Note_on_c, 1, 82, 127
2, 63520, Note_on_c, 1, 85, 127
2, 63520, Note_on_c, 1, 88, 127
2, 63520, Note_on_c, 1, 91, 127
2, 63520, Note_on_c, 1, 94, 127
2, 63520, Note_on_c, 1, 97, 127
2, 63520, Note_on_c, 1, 100, 127
2, 63520, Note_on_c, 1, 106, 127
2, 63560, Note_on_c, 1, 69, 127
2, 63560, Note_on_c, 1, 77, 127
2, 63560, Note_off_c, 1, 79, 0
2, 63560, Note_off_c, 1, 82, 0
2, 63560, Note_off_c, 1, 85, 0
2, 63560, Note_off_c, 1, 88, 0
2, 63560, Note_off_c, 1, 91, 0
2, 63560, Note_off_c, 1, 94, 0
2, 63560, Note_off_c, 1, 97, 0
2, 63560, Note_off_c, 1, 100, 0
2, 63560, Note_on_c, 1, 101, 127
2, 63560, Note_off_c, 1, 106, 0
2, 63600, Note_on_c, 1, 50, 127
2, 63600, Note_on_c, 1, 62, 127
2, 63600, Note_off_c, 1, 69, 0
2, 63600, Note_on_c, 1, 72, 127
2, 63600, Note_on_c, 1, 81, 127
2, 63600, Note_on_c, 1, 84, 127
2, 63600, Note_off_c, 1, 101, 0
2, 63640, Note_off_c, 1, 50, 0
2, 63640, Note_off_c, 1, 62, 0
2, 63640, Note_off_c, 1, 72, 0
2, 63640, Note_off_c, 1, 77, 0
2, 63640, Note_off_c, 1, 84, 0
2, 63640, Note_on_c, 1, 86, 127
2, 63640, Note_on_c, 1, 90, 127
2, 63680, Note_on_c, 1, 55, 127
2, 63680, Note_on_c, 1, 57, 127
2, 63680, Note_on_c, 1, 64, 127
2, 63680, Note_off_c, 1, 81, 0
2, 63680, Note_on_c, 1, 83, 127
2, 63680, Note_off_c, 1, 86, 0
2, 63680, Note_off_c, 1, 90, 0
2, 63720, Note_on_c, 1, 50, 127
2, 63720, Note_off_c, 1, 55, 0
2, 63720, Note_on_c, 1, 60, 127
2, 63720, Note_on_c, 1, 63, 127
2, 63720, Note_off_c, 1, 64, 0
2, 63720, Note_on_c, 1, 67, 127
2, 63720, Note_off_c, 1, 83, 0
2, 63760, Note_off_c, 1, 50, 0
2, 63760, Note_off_c, 1, 57, 0
2, 63760, Note_off_c, 1, 60, 0
2, 63760, Note_off_c, 1, 63, 0
2, 63760, Note_off_c, 1, 67, 0
2, 63760, Note_on_c, 1, 82, 127
2, 63760, Note_on_c, 1, 84, 127
2, 63800, Note_on_c, 1, 66, 127
2, 63800, Note_on_c, 1, 71, 127
2, 63800, Note_on_c, 1, 74, 127
2, 63800, Note_on_c, 1, 76, 127
2, 63800, Note_off_c, 1, 82, 0
2, 63800, Note_off_c, 1, 84, 0
2, 63880, Note_off_c, 1, 66, 0
2, 63880, Note_off_c, 1, 71, 0
2, 63880, Note_off_c, 1, 74, 0
2, 63880, Note_off_c, 1, 76, 0
2, 63920, Note_on_c, 1, 66, 127
2, 63920, Note_on_c, 1, 71, 127
2, 63920, Note_on_c, 1, 74, 127
2, 63920, Note_on_c, 1, 76, 127
2, 64040, Note_on_c, 1, 45, 127
2, 64040, Note_on_c, 1, 50, 127
2, 64040, Note_on_c, 1, 59, 127
2, 64040, Note_off_c, 1, 66, 0
2, 64040, Note_on_c, 1, 68, 127
2, 64040, Note_off_c, 1, 71, 0
2, 64040, Note_off_c, 1, 74, 0
2, 64040, Note_off_c, 1, 76, 0
2, 64080, Note_off_c, 1, 45, 0
2, 64080, Note_off_c, 1, 50, 0
2, 64080, Note_on_c, 1, 51, 127
2, 64080, Note_on_c, 1, 53, 127
2, 64080, Note_on_c, 1, 57, 127
2, 64080, Note_off_c, 1, 59, 0
2, 64080, Note_on_c, 1, 60, 127
2, 64080, Note_on_c, 1, 65, 127
2, 64080, Note_off_c, 1, 68, 0
2, 64080, Note_on_c, 1, 72, 127
2, 64120, Note_off_c, 1, 51, 0
2, 64120, Note_off_c, 1, 53, 0
2, 64120, Note_off_c, 1, 57, 0
2, 64120, Note_off_c, 1, 60, 0
2, 64120, Note_off_c, 1, 65, 0
2, 64120, Note_on_c, 1, 66, 127
2, 64120, Note_on_c, 1, 71, 127
2, 64120, Note_off_c, 1, 72, 0
2, 64120, Note_on_c, 1, 74, 127
2, 64120, Note_on_c, 1, 76, 127
2, 64160, Note_off_c, 1, 66, 0
2, 64160, Note_off_c, 1, 76, 0
2, 64160, Note_on_c, 1, 80, 127
2, 64160, Note_on_c, 1, 86, 127
2, 64200, Note_on_c, 1, 69, 127
2, 64200, Note_off_c, 1, 71, 0
2, 64200, Note_off_c, 1, 74, 0
2, 64200, Note_off_c, 1, 80, 0
2, 64200, Note_on_c, 1, 83, 127
2, 64200, Note_off_c, 1, 86, 0
2, 64240, Note_off_c, 1, 69, 0
2, 64240, Note_on_c, 1, 71, 127
2, 64240, Note_on_c, 1, 76, 127
2, 64240, Note_on_c, 1, 80, 127
2, 64240, Note_off_c, 1, 83, 0
2, 64240, Note_on_c, 1, 86, 127
2, 64240, Note_on_c, 1, 88, 127
2, 65000, Note_off_c, 1, 71, 0
2, 65000, Note_on_c, 1, 72, 127
2, 65000, Note_off_c, 1, 76, 0
2, 65000, Note_on_c, 1, 79, 127
2, 65000, Note_off_c, 1, 80, 0
2, 65000, Note_on_c, 1, 82, 127
2, 65000, Note_on_c, 1, 84, 127
2, 65000, Note_off_c, 1, 86, 0
2, 65000, Note_off_c, 1, 88, 0
2, 65040, Note_on_c, 1, 36, 127
2, 65040, Note_on_c, 1, 43, 127
2, 65040, Note_on_c, 1, 48, 127
2, 65040, Note_on_c, 1, 67, 127
2, 65040, Note_off_c, 1, 72, 0
2, 65040, Note_off_c, 1, 82, 0
2, 65040, Note_off_c, 1, 84, 0
2, 65400, Note_off_c, 1, 36, 0
2, 65400, Note_off_c, 1, 43, 0
2, 65400, Note_off_c, 1, 48, 0
2, 65400, Note_on_c, 1, 76, 127
2, 65400, Note_off_c, 1, 79, 0
2, 65440, Note_on_c, 1, 37, 127
2, 65440, Note_on_c, 1, 49, 127
2, 65440, Note_on_c, 1, 69, 127
2, 65440, Note_off_c, 1, 76, 0
2, 65800, Note_off_c, 1, 37, 0
2, 65800, Note_off_c, 1, 49, 0
2, 65800, Note_off_c, 1, 67, 0
2, 65800, Note_off_c, 1, 69, 0
2, 65880, Note_on_c, 1, 30, 127
2, 65880, Note_on_c, 1, 42, 127
2, 65880, Note_on_c, 1, 80, 127
2, 65880, Note_on_c, 1, 89, 127
2, 65880, Note_on_c, 1, 92, 127
2, 65920, Note_off_c, 1, 30, 0
2, 65920, Note_off_c, 1, 42, 0
2, 65920, Note_off_c, 1, 89, 0
2, 65920, Note_off_c, 1, 92, 0
2, 65920, Note_on_c, 1, 94, 127
2, 65960, Note_on_c, 1, 66, 127
2, 65960, Note_on_c, 1, 70, 127
2, 65960, Note_off_c, 1, 80, 0
2, 65960, Note_on_c, 1, 89, 127
2, 65960, Note_off_c, 1, 94, 0
2, 65960, Note_on_c, 1, 101, 127
2, 65960, Note_on_c, 1, 102, 127
2, 66000, Note_on_c, 1, 54, 127
2, 66000, Note_on_c, 1, 58, 127
2, 66000, Note_on_c, 1, 62, 127
2, 66000, Note_off_c, 1, 70, 0
2, 66000, Note_on_c, 1, 86, 127
2, 66000, Note_off_c, 1, 89, 0
2, 66000, Note_on_c, 1, 98, 127
2, 66000, Note_off_c, 1, 101, 0
2, 66000, Note_off_c, 1, 102, 0
2, 66040, Note_on_c, 1, 36, 127
2, 66040, Note_on_c, 1, 38, 127
2, 66040, Note_off_c, 1, 54, 0
2, 66040, Note_off_c, 1, 58, 0
2, 66040, Note_off_c, 1, 62, 0
2, 66040, Note_off_c, 1, 66, 0
2, 66040, Note_on_c, 1, 75, 127
2, 66040, Note_on_c, 1, 77, 127
2, 66040, Note_on_c, 1, 84, 127
2, 66040, Note_off_c, 1, 86, 0
2, 66040, Note_off_c, 1, 98, 0
2, 66080, Note_off_c, 1, 36, 0
2, 66080, Note_off_c, 1, 38, 0
2, 66080, Note_on_c, 1, 57, 127
2, 66080, Note_on_c, 1, 59, 127
2, 66080, Note_on_c, 1, 62, 127
2, 66080, Note_on_c, 1, 64, 127
2, 66080, Note_on_c, 1, 68, 127
2, 66080, Note_on_c, 1, 74, 127
2, 66080, Note_off_c, 1, 75, 0
2, 66080, Note_off_c, 1, 77, 0
2, 66080, Note_on_c, 1, 83, 127
2, 66080, Note_off_c, 1, 84, 0
2, 66120, Note_off_c, 1, 57, 0
2, 66120, Note_off_c, 1, 59, 0
2, 66120, Note_on_c, 1, 60, 127
2, 66120, Note_off_c, 1, 62, 0
2, 66120, Note_off_c, 1, 64, 0
2, 66120, Note_on_c, 1, 66, 127
2, 66120, Note_off_c, 1, 68, 0
2, 66120, Note_off_c, 1, 74, 0
2, 66120, Note_off_c, 1, 83, 0
2, 66120, Note_on_c, 1, 94, 127
2, 66160, Note_on_c, 1, 57, 127
2, 66160, Note_on_c, 1, 59, 127
2, 66160, Note_off_c, 1, 60, 0
2, 66160, Note_on_c, 1, 62, 127
2, 66160, Note_on_c, 1, 64, 127
2, 66160, Note_off_c, 1, 66, 0
2, 66160, Note_on_c, 1, 68, 127
2, 66160, Note_on_c, 1, 74, 127
2, 66160, Note_on_c, 1, 83, 127
2, 66160, Note_off_c, 1, 94, 0
2, 66200, Note_off_c, 1, 57, 0
2, 66200, Note_off_c, 1, 59, 0
2, 66200, Note_on_c, 1, 61, 127
2, 66200, Note_off_c, 1, 62, 0
2, 66200, Note_on_c, 1, 66, 127
2, 66200, Note_off_c, 1, 68, 0
2, 66200, Note_off_c, 1, 74, 0
2, 66200, Note_on_c, 1, 78, 127
2, 66200, Note_off_c, 1, 83, 0
2, 66200, Note_on_c, 1, 90, 127
2, 66240, Note_off_c, 1, 61, 0
2, 66240, Note_off_c, 1, 64, 0
2, 66240, Note_off_c, 1, 66, 0
2, 66240, Note_on_c, 1, 73, 127
2, 66240, Note_off_c, 1, 78, 0
2, 66240, Note_on_c, 1, 85, 127
2, 66240, Note_on_c, 1, 88, 127
2, 66240, Note_off_c, 1, 90, 0
2, 66240, Note_on_c, 1, 93, 127
2, 66240, Note_on_c, 1, 97, 127
2, 66280, Note_on_c, 1, 32, 127
2, 66280, Note_on_c, 1, 44, 127
2, 66280, Note_on_c, 1, 51, 127
2, 66280, Note_on_c, 1, 56, 127
2, 66280, Note_on_c, 1, 60, 127
2, 66280, Note_on_c, 1, 61, 127
2, 66280, Note_on_c, 1, 66, 127
2, 66280, Note_on_c, 1, 68, 127
2, 66280, Note_off_c, 1, 73, 0
2, 66280, Note_off_c, 1, 85, 0
2, 66280, Note_off_c, 1, 88, 0
2, 66280, Note_off_c, 1, 93, 0
2, 66280, Note_off_c, 1, 97, 0
2, 66640, Note_off_c, 1, 32, 0
2, 66640, Note_off_c, 1, 44, 0
2, 66640, Note_off_c, 1, 51, 0
2, 66640, Note_on_c, 1, 53, 127
2, 66640, Note_off_c, 1, 56, 0
2, 66640, Note_on_c, 1, 57, 127
2, 66640, Note_off_c, 1, 60, 0
2, 66640, Note_off_c, 1, 61, 0
2, 66640, Note_off_c, 1, 66, 0
2, 66640, Note_off_c, 1, 68, 0
2, 66640, Note_on_c, 1, 77, 127
2, 66640, Note_on_c, 1, 81, 127
2, 66680, Note_on_c, 1, 43, 127
2, 66680, Note_on_c, 1, 51, 127
2, 66680, Note_off_c, 1, 53, 0
2, 66680, Note_off_c, 1, 57, 0
2, 66680, Note_on_c, 1, 61, 127
2, 66680, Note_on_c, 1, 70, 127
2, 66680, Note_on_c, 1, 73, 127
2, 66680, Note_off_c, 1, 77, 0
2, 66680, Note_off_c, 1, 81, 0
2, 67040, Note_off_c, 1, 43, 0
2, 67040, Note_off_c, 1, 51, 0
2, 67040, Note_off_c, 1, 61, 0
2, 67040, Note_off_c, 1, 70, 0
2, 67040, Note_off_c, 1, 73, 0
2, 67080, Note_on_c, 1, 69, 127
2, 67080, Note_on_c, 1, 74, 127
2, 67080, Note_on_c, 1, 82, 127
2, 67120, Note_on_c, 1, 62, 127
2, 67120, Note_off_c, 1, 69, 0
2, 67120, Note_off_c, 1, 74, 0
2, 67120, Note_on_c, 1, 79, 127
2, 67160, Note_off_c, 1, 62, 0
2, 67160, Note_on_c, 1, 74, 127
2, 67160, Note_off_c, 1, 79, 0
2, 67200, Note_on_c, 1, 62, 127
2, 67200, Note_off_c, 1, 74, 0
2, 67200, Note_on_c, 1, 79, 127
2, 67240, Note_off_c, 1, 62, 0
2, 67240, Note_on_c, 1, 74, 127
2, 67240, Note_off_c, 1, 79, 0
2, 67280, Note_on_c, 1, 60, 127
2, 67280, Note_on_c, 1, 63, 127
2, 67280, Note_on_c, 1, 69, 127
2, 67280, Note_off_c, 1, 74, 0
2, 67280, Note_on_c, 1, 81, 127
2, 67280, Note_off_c, 1, 82, 0
2, 67840, Note_off_c, 1, 60, 0
2, 67840, Note_off_c, 1, 63, 0
2, 67840, Note_off_c, 1, 69, 0
2, 67840, Note_off_c, 1, 81, 0
2, 67880, Note_on_c, 1, 60, 127
2, 67880, Note_on_c, 1, 63, 127
2, 67880, Note_on_c, 1, 69, 127
2, 67880, Note_on_c, 1, 81, 127
2, 68320, Note_off_c, 1, 60, 0
2, 68320, Note_off_c, 1, 63, 0
2, 68320, Note_off_c, 1, 69, 0
2, 68320, Note_off_c, 1, 81, 0
2, 68360, Note_on_c, 1, 58, 127
2, 68360, Note_on_c, 1, 61, 127
2, 68360, Note_on_c, 1, 67, 127
2, 68360, Note_on_c, 1, 70, 127
2, 68360, Note_on_c, 1, 73, 127
2, 68360, Note_on_c, 1, 79, 127
2, 68920, Note_on_c, 1, 35, 127
2, 68920, Note_on_c, 1, 44, 127
2, 68920, Note_off_c, 1, 58, 0
2, 68920, Note_off_c, 1, 61, 0
2, 68920, Note_off_c, 1, 67, 0
2, 68920, Note_off_c, 1, 70, 0
2, 68920, Note_off_c, 1, 73, 0
2, 68920, Note_off_c, 1, 79, 0
2, 68920, Note_on_c, 1, 80, 127
2, 68960, Note_off_c, 1, 35, 0
2, 68960, Note_off_c, 1, 44, 0
2, 68960, Note_on_c, 1, 46, 127
2, 68960, Note_on_c, 1, 54, 127
2, 68960, Note_on_c, 1, 65, 127
2, 68960, Note_on_c, 1, 73, 127
2, 68960, Note_on_c, 1, 77, 127
2, 68960, Note_off_c, 1, 80, 0
2, 69120, Note_on_c, 1, 39, 127
2, 69120, Note_off_c, 1, 54, 0
2, 69120, Note_off_c, 1, 65, 0
2, 69120, Note_on_c, 1, 67, 127
2, 69120, Note_on_c, 1, 70, 127
2, 69120, Note_off_c, 1, 73, 0
2, 69120, Note_on_c, 1, 75, 127
2, 69120, Note_off_c, 1, 77, 0
2, 69160, Note_off_c, 1, 39, 0
2, 69160, Note_off_c, 1, 46, 0
2, 69160, Note_on_c, 1, 65, 127
2, 69160, Note_off_c, 1, 67, 0
2, 69160, Note_off_c, 1, 70, 0
2, 69160, Note_on_c, 1, 82, 127
2, 69520, Note_on_c, 1, 35, 127
2, 69520, Note_off_c, 1, 65, 0
2, 69520, Note_on_c, 1, 66, 127
2, 69520, Note_on_c, 1, 69, 127
2, 69520, Note_on_c, 1, 71, 127
2, 69520, Note_off_c, 1, 82, 0
2, 69560, Note_off_c, 1, 35, 0
2, 69560, Note_on_c, 1, 44, 127
2, 69560, Note_on_c, 1, 49, 127
2, 69560, Note_on_c, 1, 65, 127
2, 69560, Note_off_c, 1, 66, 0
2, 69560, Note_on_c, 1, 68, 127
2, 69560, Note_off_c, 1, 69, 0
2, 69560, Note_off_c, 1, 71, 0
2, 69560, Note_on_c, 1, 72, 127
2, 69560, Note_off_c, 1, 75, 0
2, 69600, Note_off_c, 1, 44, 0
2, 69600, Note_off_c, 1, 49, 0
2, 69600, Note_off_c, 1, 65, 0
2, 69600, Note_off_c, 1, 68, 0
2, 69600, Note_off_c, 1, 72, 0
2, 69640, Note_on_c, 1, 59, 127
2, 69640, Note_on_c, 1, 65, 127
2, 69640, Note_on_c, 1, 70, 127
2, 69640, Note_on_c, 1, 77, 127
2, 69640, Note_on_c, 1, 86, 127
2, 69640, Note_on_c, 1, 89, 127
2, 69680, Note_off_c, 1, 59, 0
2, 69680, Note_off_c, 1, 65, 0
2, 69680, Note_on_c, 1, 67, 127
2, 69680, Note_off_c, 1, 70, 0
2, 69680, Note_on_c, 1, 71, 127
2, 69680, Note_on_c, 1, 76, 127
2, 69680, Note_off_c, 1, 77, 0
2, 69680, Note_on_c, 1, 78, 127
2, 69680, Note_off_c, 1, 86, 0
2, 69680, Note_off_c, 1, 89, 0
2, 69720, Note_on_c, 1, 59, 127
2, 69720, Note_on_c, 1, 65, 127
2, 69720, Note_off_c, 1, 67, 0
2, 69720, Note_on_c, 1, 70, 127
2, 69720, Note_off_c, 1, 71, 0
2, 69720, Note_off_c, 1, 76, 0
2, 69720, Note_on_c, 1, 77, 127
2, 69720, Note_off_c, 1, 78, 0
2, 69720, Note_on_c, 1, 86, 127
2, 69720, Note_on_c, 1, 89, 127
2, 69760, Note_off_c, 1, 59, 0
2, 69760, Note_off_c, 1, 70, 0
2, 69760, Note_on_c, 1, 71, 127
2, 69760, Note_off_c, 1, 77, 0
2, 69760, Note_on_c, 1, 82, 127
2, 69760, Note_off_c, 1, 86, 0
2, 69760, Note_off_c, 1, 89, 0
2, 69800, Note_on_c, 1, 46, 127
2, 69800, Note_on_c, 1, 53, 127
2, 69800, Note_off_c, 1, 65, 0
2, 69800, Note_off_c, 1, 71, 0
2, 69800, Note_on_c, 1, 74, 127
2, 69960, Note_off_c, 1, 46, 0
2, 69960, Note_off_c, 1, 53, 0
2, 69960, Note_off_c, 1, 74, 0
2, 69960, Note_off_c, 1, 82, 0
2, 70000, Note_on_c, 1, 63, 127
2, 70000, Note_on_c, 1, 65, 127
2, 70000, Note_on_c, 1, 86, 127
2, 70200, Note_off_c, 1, 63, 0
2, 70200, Note_off_c, 1, 65, 0
2, 70200, Note_off_c, 1, 86, 0
2, 70240, Note_on_c, 1, 37, 127
2, 70240, Note_on_c, 1, 49, 127
2, 70240, Note_on_c, 1, 80, 127
2, 70240, Note_on_c, 1, 87, 127
2, 70280, Note_on_c, 1, 36, 127
2, 70280, Note_off_c, 1, 37, 0
2, 70280, Note_on_c, 1, 41, 127
2, 70280, Note_on_c, 1, 43, 127
2, 70280, Note_on_c, 1, 48, 127
2, 70280, Note_off_c, 1, 49, 0
2, 70280, Note_on_c, 1, 50, 127
2, 70280, Note_off_c, 1, 80, 0
2, 70280, Note_off_c, 1, 87, 0
2, 70280, Note_on_c, 1, 96, 127
2, 70320, Note_off_c, 1, 36, 0
2, 70320, Note_off_c, 1, 41, 0
2, 70320, Note_off_c, 1, 43, 0
2, 70320, Note_off_c, 1, 50, 0
2, 70320, Note_on_c, 1, 52, 127
2, 70320, Note_on_c, 1, 57, 127
2, 70320, Note_on_c, 1, 60, 127
2, 70320, Note_on_c, 1, 84, 127
2, 70320, Note_off_c, 1, 96, 0
2, 70360, Note_on_c, 1, 37, 127
2, 70360, Note_off_c, 1, 48, 0
2, 70360, Note_on_c, 1, 49, 127
2, 70360, Note_off_c, 1, 52, 0
2, 70360, Note_on_c, 1, 56, 127
2, 70360, Note_off_c, 1, 57, 0
2, 70360, Note_off_c, 1, 60, 0
2, 70360, Note_on_c, 1, 66, 127
2, 70360, Note_off_c, 1, 84, 0
2, 70400, Note_off_c, 1, 37, 0
2, 70400, Note_on_c, 1, 46, 127
2, 70400, Note_off_c, 1, 49, 0
2, 70400, Note_off_c, 1, 56, 0
2, 70400, Note_off_c, 1, 66, 0
2, 70400, Note_on_c, 1, 67, 127
2, 70400, Note_on_c, 1, 70, 127
2, 70400, Note_on_c, 1, 74, 127
2, 70400, Note_on_c, 1, 77, 127
2, 70440, Note_on_c, 1, 45, 127
2, 70440, Note_off_c, 1, 46, 0
2, 70440, Note_on_c, 1, 57, 127
2, 70440, Note_on_c, 1, 63, 127
2, 70440, Note_off_c, 1, 67, 0
2, 70440, Note_on_c, 1, 69, 127
2, 70440, Note_off_c, 1, 70, 0
2, 70440, Note_on_c, 1, 73, 127
2, 70440, Note_off_c, 1, 74, 0
2, 70440, Note_on_c, 1, 75, 127
2, 70440, Note_off_c, 1, 77, 0
2, 70480, Note_off_c, 1, 45, 0
2, 70480, Note_on_c, 1, 49, 127
2, 70480, Note_on_c, 1, 51, 127
2, 70480, Note_off_c, 1, 57, 0
2, 70480, Note_off_c, 1, 63, 0
2, 70480, Note_off_c, 1, 69, 0
2, 70480, Note_off_c, 1, 73, 0
2, 70520, Note_on_c, 1, 32, 127
2, 70520, Note_on_c, 1, 44, 127
2, 70520, Note_off_c, 1, 49, 0
2, 70520, Note_on_c, 1, 60, 127
2, 70520, Note_on_c, 1, 63, 127
2, 70520, Note_on_c, 1, 68, 127
2, 70520, Note_on_c, 1, 72, 127
2, 70520, Note_off_c, 1, 75, 0
2, 70560, Note_off_c, 1, 32, 0
2, 70560, Note_off_c, 1, 44, 0
2, 70560, Note_off_c, 1, 51, 0
2, 70560, Note_on_c, 1, 52, 127
2, 70560, Note_on_c, 1, 58, 127
2, 70560, Note_off_c, 1, 60, 0
2, 70560, Note_off_c, 1, 68, 0
2, 70560, Note_off_c, 1, 72, 0
2, 70600, Note_off_c, 1, 52, 0
2, 70600, Note_off_c, 1, 58, 0
2, 70600, Note_off_c, 1, 63, 0
2, 70640, Note_on_c, 1, 57, 127
2, 70640, Note_on_c, 1, 93, 127
2, 70640, Note_on_c, 1, 95, 127
2, 70640, Note_on_c, 1, 97, 127
2, 70640, Note_on_c, 1, 98, 127
2, 70680, Note_off_c, 1, 57, 0
2, 70680, Note_on_c, 1, 61, 127
2, 70680, Note_on_c, 1, 70, 127
2, 70680, Note_on_c, 1, 79, 127
2, 70680, Note_on_c, 1, 88, 127
2, 70680, Note_off_c, 1, 93, 0
2, 70680, Note_off_c, 1, 95, 0
2, 70680, Note_off_c, 1, 97, 0
2, 70680, Note_off_c, 1, 98, 0
2, 70800, Note_on_c, 1, 49, 127
2, 70800, Note_on_c, 1, 53, 127
2, 70800, Note_on_c, 1, 77, 127
2, 70800, Note_on_c, 1, 82, 127
2, 70800, Note_off_c, 1, 88, 0
2, 70840, Note_off_c, 1, 49, 0
2, 70840, Note_off_c, 1, 53, 0
2, 70840, Note_off_c, 1, 77, 0
2, 70840, Note_off_c, 1, 82, 0
2, 70840, Note_on_c, 1, 88, 127
2, 71400, Note_off_c, 1, 61, 0
2, 71400, Note_off_c, 1, 70, 0
2, 71400, Note_off_c, 1, 79, 0
2, 71400, Note_off_c, 1, 88, 0
2, 71480, Note_on_c, 1, 58, 127
2, 71480, Note_on_c, 1, 63, 127
2, 71480, Note_on_c, 1, 67, 127
2, 71840, Note_off_c, 1, 58, 0
2, 71840, Note_off_c, 1, 63, 0
2, 71840, Note_off_c, 1, 67, 0
2, 71880, Note_on_c, 1, 43, 127
2, 71880, Note_on_c, 1, 45, 127
2, 71880, Note_on_c, 1, 50, 127
2, 71880, Note_on_c, 1, 54, 127
2, 71880, Note_on_c, 1, 69, 127
2, 72040, Note_off_c, 1, 43, 0
2, 72040, Note_off_c, 1, 45, 0
2, 72040, Note_off_c, 1, 50, 0
2, 72040, Note_off_c, 1, 54, 0
2, 72040, Note_off_c, 1, 69, 0
2, 72080, Note_on_c, 1, 43, 127
2, 72080, Note_on_c, 1, 45, 127
2, 72080, Note_on_c, 1, 50, 127
2, 72080, Note_on_c, 1, 54, 127
2, 72080, Note_on_c, 1, 69, 127
2, 72120, Note_on_c, 1, 37, 127
2, 72120, Note_on_c, 1, 41, 127
2, 72120, Note_off_c, 1, 43, 0
2, 72120, Note_off_c, 1, 45, 0
2, 72120, Note_on_c, 1, 49, 127
2, 72120, Note_off_c, 1, 50, 0
2, 72120, Note_off_c, 1, 54, 0
2, 72120, Note_off_c, 1, 69, 0
2, 72160, Note_off_c, 1, 37, 0
2, 72160, Note_off_c, 1, 41, 0
2, 72160, Note_on_c, 1, 43, 127
2, 72160, Note_on_c, 1, 45, 127
2, 72160, Note_off_c, 1, 49, 0
2, 72160, Note_on_c, 1, 50, 127
2, 72160, Note_on_c, 1, 54, 127
2, 72160, Note_on_c, 1, 69, 127
2, 72320, Note_off_c, 1, 43, 0
2, 72320, Note_on_c, 1, 44, 127
2, 72320, Note_off_c, 1, 45, 0
2, 72320, Note_off_c, 1, 50, 0
2, 72320, Note_off_c, 1, 54, 0
2, 72320, Note_on_c, 1, 59, 127
2, 72320, Note_on_c, 1, 63, 127
2, 72320, Note_off_c, 1, 69, 0
2, 72360, Note_off_c, 1, 44, 0
2, 72360, Note_off_c, 1, 59, 0
2, 72360, Note_on_c, 1, 62, 127
2, 72360, Note_off_c, 1, 63, 0
2, 72360, Note_on_c, 1, 70, 127
2, 72360, Note_on_c, 1, 73, 127
2, 72360, Note_on_c, 1, 79, 127
2, 72720, Note_off_c, 1, 62, 0
2, 72720, Note_on_c, 1, 69, 127
2, 72720, Note_off_c, 1, 70, 0
2, 72720, Note_off_c, 1, 73, 0
2, 72720, Note_off_c, 1, 79, 0
2, 72720, Note_on_c, 1, 81, 127
2, 72760, Note_on_c, 1, 45, 127
2, 72760, Note_on_c, 1, 53, 127
2, 72760, Note_on_c, 1, 62, 127
2, 72760, Note_on_c, 1, 65, 127
2, 72760, Note_off_c, 1, 69, 0
2, 72760, Note_on_c, 1, 73, 127
2, 72760, Note_off_c, 1, 81, 0
2, 73520, Note_off_c, 1, 45, 0
2, 73520, Note_off_c, 1, 53, 0
2, 73520, Note_off_c, 1, 62, 0
2, 73520, Note_off_c, 1, 65, 0
2, 73520, Note_off_c, 1, 73, 0
2, 73560, Note_on_c, 1, 46, 127
2, 73560, Note_on_c, 1, 50, 127
2, 73560, Note_on_c, 1, 58, 127
2, 73560, Note_on_c, 1, 62, 127
2, 73560, Note_on_c, 1, 65, 127
2, 73560, Note_on_c, 1, 70, 127
2, 73720, Note_off_c, 1, 50, 0
2, 73760, Note_on_c, 1, 53, 127
2, 73960, Note_off_c, 1, 46, 0
2, 73960, Note_off_c, 1, 53, 0
2, 73960, Note_off_c, 1, 58, 0
2, 73960, Note_off_c, 1, 62, 0
2, 73960, Note_off_c, 1, 65, 0
2, 73960, Note_off_c, 1, 70, 0
2, 74040, Note_on_c, 1, 44, 127
2, 74040, Note_on_c, 1, 50, 127
2, 74040, Note_on_c, 1, 62, 127
2, 74040, Note_on_c, 1, 65, 127
2, 74040, Note_on_c, 1, 74, 127
2, 74120, Note_off_c, 1, 50, 0
2, 74240, Note_on_c, 1, 53, 127
2, 74400, Note_off_c, 1, 44, 0
2, 74400, Note_off_c, 1, 53, 0
2, 74400, Note_off_c, 1, 62, 0
2, 74400, Note_off_c, 1, 65, 0
2, 74400, Note_off_c, 1, 74, 0
2, 74440, Note_on_c, 1, 43, 127
2, 74440, Note_on_c, 1, 53, 127
2, 74440, Note_on_c, 1, 62, 127
2, 74440, Note_on_c, 1, 67, 127
2, 74440, Note_on_c, 1, 74, 127
2, 74800, Note_off_c, 1, 53, 0
2, 74840, Note_on_c, 1, 55, 127
2, 75160, Note_off_c, 1, 62, 0
2, 75160, Note_off_c, 1, 67, 0
2, 75160, Note_off_c, 1, 74, 0
2, 75240, Note_on_c, 1, 41, 127
2, 75240, Note_off_c, 1, 43, 0
2, 75240, Note_on_c, 1, 51, 127
2, 75240, Note_off_c, 1, 55, 0
2, 75240, Note_on_c, 1, 57, 127
2, 75240, Note_on_c, 1, 60, 127
2, 75240, Note_on_c, 1, 69, 127
2, 75600, Note_off_c, 1, 41, 0
2, 75600, Note_off_c, 1, 51, 0
2, 75600, Note_off_c, 1, 57, 0
2, 75600, Note_off_c, 1, 60, 0
2, 75600, Note_off_c, 1, 69, 0
2, 75640, Note_on_c, 1, 43, 127
2, 75640, Note_on_c, 1, 50, 127
2, 75640, Note_on_c, 1, 71, 127
2, 75640, Note_on_c, 1, 77, 127
2, 75640, Note_on_c, 1, 81, 127
2, 76120, Note_off_c, 1, 43, 0
2, 76120, Note_off_c, 1, 50, 0
2, 76120, Note_off_c, 1, 71, 0
2, 76120, Note_off_c, 1, 77, 0
2, 76120, Note_off_c, 1, 81, 0
2, 76160, Note_on_c, 1, 43, 127
2, 76160, Note_on_c, 1, 50, 127
2, 76160, Note_on_c, 1, 71, 127
2, 76160, Note_on_c, 1, 77, 127
2, 76160, Note_on_c, 1, 81, 127
2, 76400, Note_off_c, 1, 43, 0
2, 76400, Note_off_c, 1, 50, 0
2, 76400, Note_off_c, 1, 71, 0
2, 76400, Note_off_c, 1, 77, 0
2, 76400, Note_off_c, 1, 81, 0
2, 76440, Note_on_c, 1, 72, 127
2, 76440, Note_on_c, 1, 84, 127
2, 76440, Note_on_c, 1, 89, 127
2, 76440, Note_on_c, 1, 93, 127
2, 76440, Note_on_c, 1, 96, 127
2, 76760, Note_off_c, 1, 84, 0
2, 76760, Note_off_c, 1, 89, 0
2, 76760, Note_off_c, 1, 93, 0
2, 76760, Note_off_c, 1, 96, 0
2, 76800, Note_on_c, 1, 38, 127
2, 76800, Note_on_c, 1, 77, 127
2, 76800, Note_on_c, 1, 81, 127
2, 76840, Note_off_c, 1, 38, 0
2, 76840, Note_on_c, 1, 43, 127
2, 76840, Note_on_c, 1, 47, 127
2, 76840, Note_on_c, 1, 52, 127
2, 76840, Note_on_c, 1, 59, 127
2, 76840, Note_on_c, 1, 71, 127
2, 76840, Note_off_c, 1, 72, 0
2, 76840, Note_off_c, 1, 77, 0
2, 76840, Note_off_c, 1, 81, 0
2, 76880, Note_off_c, 1, 43, 0
2, 76880, Note_off_c, 1, 47, 0
2, 76880, Note_on_c, 1, 58, 127
2, 76880, Note_off_c, 1, 59, 0
2, 76880, Note_on_c, 1, 60, 127
2, 76920, Note_on_c, 1, 39, 127
2, 76920, Note_on_c, 1, 51, 127
2, 76920, Note_off_c, 1, 52, 0
2, 76920, Note_off_c, 1, 58, 0
2, 76920, Note_off_c, 1, 60, 0
2, 76920, Note_on_c, 1, 62, 127
2, 76920, Note_off_c, 1, 71, 0
2, 76920, Note_on_c, 1, 74, 127
2, 76960, Note_on_c, 1, 38, 127
2, 76960, Note_off_c, 1, 39, 0
2, 76960, Note_on_c, 1, 43, 127
2, 76960, Note_off_c, 1, 51, 0
2, 76960, Note_off_c, 1, 62, 0
2, 76960, Note_on_c, 1, 67, 127
2, 76960, Note_off_c, 1, 74, 0
2, 76960, Note_on_c, 1, 79, 127
2, 77000, Note_off_c, 1, 38, 0
2, 77000, Note_off_c, 1, 43, 0
2, 77000, Note_on_c, 1, 54, 127
2, 77000, Note_on_c, 1, 56, 127
2, 77000, Note_on_c, 1, 59, 127
2, 77000, Note_on_c, 1, 61, 127
2, 77000, Note_on_c, 1, 65, 127
2, 77000, Note_off_c, 1, 67, 0
2, 77000, Note_on_c, 1, 71, 127
2, 77000, Note_on_c, 1, 73, 127
2, 77000, Note_off_c, 1, 79, 0
2, 77040, Note_on_c, 1, 38, 127
2, 77040, Note_on_c, 1, 50, 127
2, 77040, Note_off_c, 1, 54, 0
2, 77040, Note_off_c, 1, 56, 0
2, 77040, Note_off_c, 1, 59, 0
2, 77040, Note_off_c, 1, 61, 0
2, 77040, Note_off_c, 1, 65, 0
2, 77040, Note_off_c, 1, 71, 0
2, 77040, Note_on_c, 1, 79, 127
2, 77040, Note_on_c, 1, 81, 127
2, 77080, Note_off_c, 1, 38, 0
2, 77080, Note_on_c, 1, 42, 127
2, 77080, Note_on_c, 1, 47, 127
2, 77080, Note_off_c, 1, 50, 0
2, 77080, Note_on_c, 1, 63, 127
2, 77080, Note_on_c, 1, 66, 127
2, 77080, Note_on_c, 1, 71, 127
2, 77080, Note_off_c, 1, 73, 0
2, 77080, Note_on_c, 1, 75, 127
2, 77080, Note_off_c, 1, 79, 0
2, 77080, Note_off_c, 1, 81, 0
2, 77120, Note_off_c, 1, 42, 0
2, 77120, Note_off_c, 1, 47, 0
2, 77120, Note_off_c, 1, 63, 0
2, 77120, Note_on_c, 1, 67, 127
2, 77120, Note_off_c, 1, 71, 0
2, 77120, Note_off_c, 1, 75, 0
2, 77120, Note_on_c, 1, 85, 127
2, 77120, Note_on_c, 1, 90, 127
2, 77160, Note_on_c, 1, 59, 127
2, 77160, Note_off_c, 1, 66, 0
2, 77160, Note_off_c, 1, 67, 0
2, 77160, Note_on_c, 1, 80, 127
2, 77160, Note_off_c, 1, 85, 0
2, 77160, Note_on_c, 1, 87, 127
2, 77160, Note_off_c, 1, 90, 0
2, 77160, Note_on_c, 1, 92, 127
2, 77200, Note_on_c, 1, 49, 127
2, 77200, Note_on_c, 1, 58, 127
2, 77200, Note_off_c, 1, 59, 0
2, 77200, Note_on_c, 1, 73, 127
2, 77200, Note_on_c, 1, 77, 127
2, 77200, Note_off_c, 1, 80, 0
2, 77200, Note_on_c, 1, 83, 127
2, 77200, Note_on_c, 1, 85, 127
2, 77200, Note_off_c, 1, 87, 0
2, 77200, Note_off_c, 1, 92, 0
2, 77240, Note_off_c, 1, 49, 0
2, 77240, Note_on_c, 1, 65, 127
2, 77240, Note_on_c, 1, 70, 127
2, 77240, Note_off_c, 1, 73, 0
2, 77240, Note_off_c, 1, 77, 0
2, 77240, Note_on_c, 1, 78, 127
2, 77240, Note_off_c, 1, 83, 0
2, 77240, Note_off_c, 1, 85, 0
2, 77280, Note_on_c, 1, 49, 127
2, 77280, Note_off_c, 1, 65, 0
2, 77280, Note_off_c, 1, 70, 0
2, 77280, Note_on_c, 1, 73, 127
2, 77280, Note_on_c, 1, 77, 127
2, 77280, Note_off_c, 1, 78, 0
2, 77280, Note_on_c, 1, 83, 127
2, 77280, Note_on_c, 1, 85, 127
2, 77360, Note_on_c, 1, 41, 127
2, 77360, Note_on_c, 1, 46, 127
2, 77360, Note_off_c, 1, 49, 0
2, 77360, Note_on_c, 1, 50, 127
2, 77360, Note_on_c, 1, 53, 127
2, 77360, Note_off_c, 1, 58, 0
2, 77360, Note_on_c, 1, 68, 127
2, 77360, Note_off_c, 1, 73, 0
2, 77360, Note_off_c, 1, 77, 0
2, 77360, Note_on_c, 1, 80, 127
2, 77360, Note_off_c, 1, 83, 0
2, 77360, Note_off_c, 1, 85, 0
2, 77400, Note_off_c, 1, 41, 0
2, 77400, Note_on_c, 1, 43, 127
2, 77400, Note_off_c, 1, 46, 0
2, 77400, Note_off_c, 1, 50, 0
2, 77400, Note_off_c, 1, 53, 0
2, 77400, Note_on_c, 1, 63, 127
2, 77400, Note_off_c, 1, 68, 0
2, 77400, Note_on_c, 1, 79, 127
2, 77400, Note_off_c, 1, 80, 0
2, 77400, Note_on_c, 1, 82, 127
2, 77400, Note_on_c, 1, 86, 127
2, 77440, Note_off_c, 1, 43, 0
2, 77440, Note_on_c, 1, 54, 127
2, 77440, Note_on_c, 1, 58, 127
2, 77440, Note_on_c, 1, 69, 127
2, 77440, Note_on_c, 1, 75, 127
2, 77440, Note_off_c, 1, 79, 0
2, 77440, Note_off_c, 1, 82, 0
2, 77440, Note_off_c, 1, 86, 0
2, 77480, Note_off_c, 1, 54, 0
2, 77480, Note_off_c, 1, 58, 0
2, 77480, Note_on_c, 1, 62, 127
2, 77480, Note_off_c, 1, 63, 0
2, 77480, Note_on_c, 1, 65, 127
2, 77480, Note_on_c, 1, 67, 127
2, 77480, Note_off_c, 1, 69, 0
2, 77480, Note_on_c, 1, 71, 127
2, 77480, Note_on_c, 1, 74, 127
2, 77480, Note_off_c, 1, 75, 0
2, 77480, Note_on_c, 1, 79, 127
2, 77480, Note_on_c, 1, 86, 127
2, 77520, Note_off_c, 1, 62, 0
2, 77520, Note_off_c, 1, 65, 0
2, 77520, Note_off_c, 1, 67, 0
2, 77520, Note_off_c, 1, 71, 0
2, 77520, Note_off_c, 1, 74, 0
2, 77520, Note_off_c, 1, 79, 0
2, 77520, Note_off_c, 1, 86, 0
2, 77560, Note_on_c, 1, 29, 127
2, 77560, Note_on_c, 1, 41, 127
2, 77560, Note_on_c, 1, 65, 127
2, 77560, Note_on_c, 1, 69, 127
2, 77560, Note_on_c, 1, 74, 127
2, 77560, Note_on_c, 1, 77, 127
2, 77600, Note_off_c, 1, 29, 0
2, 77600, Note_off_c, 1, 41, 0
2, 77600, Note_on_c, 1, 48, 127
2, 77600, Note_on_c, 1, 52, 127
2, 77600, Note_on_c, 1, 60, 127
2, 77600, Note_off_c, 1, 65, 0
2, 77600, Note_off_c, 1, 69, 0
2, 77600, Note_on_c, 1, 71, 127
2, 77600, Note_off_c, 1, 74, 0
2, 77600, Note_on_c, 1, 76, 127
2, 77600, Note_off_c, 1, 77, 0
2, 77640, Note_on_c, 1, 38, 127
2, 77640, Note_off_c, 1, 48, 0
2, 77640, Note_on_c, 1, 50, 127
2, 77640, Note_off_c, 1, 52, 0
2, 77640, Note_on_c, 1, 59, 127
2, 77640, Note_off_c, 1, 60, 0
2, 77640, Note_on_c, 1, 62, 127
2, 77640, Note_on_c, 1, 67, 127
2, 77640, Note_off_c, 1, 76, 0
2, 77680, Note_on_c, 1, 32, 127
2, 77680, Note_off_c, 1, 38, 0
2, 77680, Note_on_c, 1, 44, 127
2, 77680, Note_off_c, 1, 50, 0
2, 77680, Note_off_c, 1, 59, 0
2, 77680, Note_off_c, 1, 62, 0
2, 77680, Note_on_c, 1, 65, 127
2, 77680, Note_off_c, 1, 67, 0
2, 77680, Note_on_c, 1, 73, 127
2, 77680, Note_on_c, 1, 77, 127
2, 77720, Note_off_c, 1, 32, 0
2, 77720, Note_off_c, 1, 65, 0
2, 77720, Note_off_c, 1, 71, 0
2, 77720, Note_off_c, 1, 73, 0
2, 77720, Note_off_c, 1, 77, 0
2, 77720, Note_on_c, 1, 87, 127
2, 77720, Note_on_c, 1, 90, 127
2, 77720, Note_on_c, 1, 99, 127
2, 77760, Note_on_c, 1, 43, 127
2, 77760, Note_off_c, 1, 44, 0
2, 77760, Note_on_c, 1, 50, 127
2, 77760, Note_on_c, 1, 55, 127
2, 77760, Note_on_c, 1, 67, 127
2, 77760, Note_on_c, 1, 70, 127
2, 77760, Note_on_c, 1, 74, 127
2, 77760, Note_on_c, 1, 79, 127
2, 77760, Note_off_c, 1, 87, 0
2, 77760, Note_off_c, 1, 90, 0
2, 77760, Note_off_c, 1, 99, 0
2, 77800, Note_on_c, 1, 38, 127
2, 77800, Note_on_c, 1, 42, 127
2, 77800, Note_off_c, 1, 43, 0
2, 77800, Note_on_c, 1, 53, 127
2, 77800, Note_off_c, 1, 55, 0
2, 77800, Note_off_c, 1, 67, 0
2, 77800, Note_off_c, 1, 70, 0
2, 77800, Note_off_c, 1, 74, 0
2, 77800, Note_off_c, 1, 79, 0
2, 77840, Note_off_c, 1, 38, 0
2, 77840, Note_on_c, 1, 39, 127
2, 77840, Note_off_c, 1, 42, 0
2, 77840, Note_on_c, 1, 44, 127
2, 77840, Note_off_c, 1, 50, 0
2, 77840, Note_off_c, 1, 53, 0
2, 77840, Note_on_c, 1, 56, 127
2, 77840, Note_on_c, 1, 77, 127
2, 77840, Note_on_c, 1, 80, 127
2, 77840, Note_on_c, 1, 87, 127
2, 77840, Note_on_c, 1, 89, 127
2, 77880, Note_off_c, 1, 39, 0
2, 77880, Note_off_c, 1, 44, 0
2, 77880, Note_on_c, 1, 50, 127
2, 77880, Note_on_c, 1, 53, 127
2, 77880, Note_on_c, 1, 58, 127
2, 77880, Note_off_c, 1, 77, 0
2, 77880, Note_off_c, 1, 80, 0
2, 77880, Note_on_c, 1, 86, 127
2, 77880, Note_off_c, 1, 87, 0
2, 77880, Note_off_c, 1, 89, 0
2, 77920, Note_off_c, 1, 50, 0
2, 77920, Note_on_c, 1, 51, 127
2, 77920, Note_off_c, 1, 53, 0
2, 77920, Note_off_c, 1, 56, 0
2, 77920, Note_on_c, 1, 63, 127
2, 77920, Note_on_c, 1, 75, 127
2, 77920, Note_on_c, 1, 79, 127
2, 77920, Note_off_c, 1, 86, 0
2, 77920, Note_on_c, 1, 87, 127
2, 77960, Note_on_c, 1, 38, 127
2, 77960, Note_on_c, 1, 50, 127
2, 77960, Note_off_c, 1, 51, 0
2, 77960, Note_on_c, 1, 55, 127
2, 77960, Note_on_c, 1, 61, 127
2, 77960, Note_off_c, 1, 63, 0
2, 77960, Note_on_c, 1, 67, 127
2, 77960, Note_off_c, 1, 75, 0
2, 77960, Note_off_c, 1, 79, 0
2, 77960, Note_off_c, 1, 87, 0
2, 78000, Note_off_c, 1, 38, 0
2, 78000, Note_off_c, 1, 50, 0
2, 78000, Note_off_c, 1, 55, 0
2, 78000, Note_off_c, 1, 58, 0
2, 78000, Note_off_c, 1, 61, 0
2, 78000, Note_off_c, 1, 67, 0
2, 78040, Note_on_c, 1, 38, 127
2, 78040, Note_on_c, 1, 50, 127
2, 78040, Note_on_c, 1, 55, 127
2, 78040, Note_on_c, 1, 58, 127
2, 78040, Note_on_c, 1, 61, 127
2, 78040, Note_on_c, 1, 67, 127
2, 78360, Note_off_c, 1, 38, 0
2, 78360, Note_off_c, 1, 50, 0
2, 78360, Note_off_c, 1, 55, 0
2, 78360, Note_off_c, 1, 58, 0
2, 78360, Note_off_c, 1, 61, 0
2, 78360, Note_off_c, 1, 67, 0
2, 78400, Note_on_c, 1, 41, 127
2, 78400, Note_on_c, 1, 60, 127
2, 78400, Note_on_c, 1, 63, 127
2, 78400, Note_on_c, 1, 66, 127
2, 78400, Note_on_c, 1, 69, 127
2, 79160, Note_off_c, 1, 41, 0
2, 79160, Note_off_c, 1, 60, 0
2, 79160, Note_off_c, 1, 63, 0
2, 79160, Note_off_c, 1, 66, 0
2, 79160, Note_off_c, 1, 69, 0
2, 79160, Note_on_c, 1, 80, 127
2, 79160, Note_on_c, 1, 83, 127
2, 79160, Note_on_c, 1, 89, 127
2, 79200, Note_on_c, 1, 63, 127
2, 79200, Note_on_c, 1, 75, 127
2, 79200, Note_off_c, 1, 80, 0
2, 79200, Note_on_c, 1, 81, 127
2, 79200, Note_off_c, 1, 83, 0
2, 79200, Note_on_c, 1, 84, 127
2, 79200, Note_off_c, 1, 89, 0
2, 79280, Note_off_c, 1, 63, 0
2, 79280, Note_on_c, 1, 72, 127
2, 79560, Note_off_c, 1, 72, 0
2, 79560, Note_off_c, 1, 75, 0
2, 79560, Note_off_c, 1, 81, 0
2, 79560, Note_off_c, 1, 84, 0
2, 79600, Note_on_c, 1, 52, 127
2, 79600, Note_on_c, 1, 55, 127
2, 79600, Note_on_c, 1, 60, 127
2, 79600, Note_on_c, 1, 64, 127
2, 79600, Note_on_c, 1, 72, 127
2, 79600, Note_on_c, 1, 76, 127
2, 79600, Note_on_c, 1, 79, 127
2, 79600, Note_on_c, 1, 84, 127
2, 79960, Note_on_c, 1, 39, 127
2, 79960, Note_off_c, 1, 52, 0
2, 79960, Note_on_c, 1, 58, 127
2, 79960, Note_off_c, 1, 60, 0
2, 79960, Note_off_c, 1, 64, 0
2, 79960, Note_off_c, 1, 72, 0
2, 79960, Note_off_c, 1, 76, 0
2, 79960, Note_off_c, 1, 79, 0
2, 79960, Note_off_c, 1, 84, 0
2, 80000, Note_off_c, 1, 39, 0
2, 80000, Note_on_c, 1, 52, 127
2, 80000, Note_off_c, 1, 58, 0
2, 80000, Note_on_c, 1, 60, 127
2, 80000, Note_on_c, 1, 64, 127
2, 80000, Note_on_c, 1, 72, 127
2, 80000, Note_on_c, 1, 76, 127
2, 80000, Note_on_c, 1, 79, 127
2, 80000, Note_on_c, 1, 84, 127
2, 80360, Note_off_c, 1, 52, 0
2, 80360, Note_off_c, 1, 55, 0
2, 80360, Note_off_c, 1, 60, 0
2, 80360, Note_off_c, 1, 64, 0
2, 80360, Note_off_c, 1, 72, 0
2, 80360, Note_off_c, 1, 76, 0
2, 80360, Note_off_c, 1, 79, 0
2, 80360, Note_off_c, 1, 84, 0
2, 80440, Note_on_c, 1, 66, 127
2, 80440, Note_on_c, 1, 73, 127
2, 80440, Note_on_c, 1, 78, 127
2, 80440, Note_on_c, 1, 81, 127
2, 80440, Note_on_c, 1, 85, 127
2, 80440, Note_on_c, 1, 93, 127
2, 80480, Note_on_c, 1, 32, 127
2, 80480, Note_on_c, 1, 56, 127
2, 80480, Note_on_c, 1, 59, 127
2, 80480, Note_off_c, 1, 66, 0
2, 80480, Note_off_c, 1, 73, 0
2, 80480, Note_off_c, 1, 78, 0
2, 80480, Note_off_c, 1, 81, 0
2, 80480, Note_off_c, 1, 85, 0
2, 80480, Note_off_c, 1, 93, 0
2, 80520, Note_off_c, 1, 32, 0
2, 80520, Note_on_c, 1, 52, 127
2, 80520, Note_off_c, 1, 56, 0
2, 80520, Note_on_c, 1, 57, 127
2, 80520, Note_off_c, 1, 59, 0
2, 80520, Note_on_c, 1, 64, 127
2, 80520, Note_on_c, 1, 69, 127
2, 80520, Note_on_c, 1, 74, 127
2, 80560, Note_off_c, 1, 52, 0
2, 80560, Note_on_c, 1, 56, 127
2, 80560, Note_off_c, 1, 57, 0
2, 80560, Note_on_c, 1, 61, 127
2, 80560, Note_on_c, 1, 63, 127
2, 80560, Note_off_c, 1, 64, 0
2, 80560, Note_on_c, 1, 65, 127
2, 80560, Note_off_c, 1, 69, 0
2, 80560, Note_off_c, 1, 74, 0
2, 80600, Note_on_c, 1, 45, 127
2, 80600, Note_on_c, 1, 50, 127
2, 80600, Note_off_c, 1, 56, 0
2, 80600, Note_on_c, 1, 60, 127
2, 80600, Note_off_c, 1, 61, 0
2, 80600, Note_off_c, 1, 63, 0
2, 80600, Note_on_c, 1, 72, 127
2, 80640, Note_off_c, 1, 45, 0
2, 80640, Note_off_c, 1, 50, 0
2, 80640, Note_off_c, 1, 60, 0
2, 80640, Note_off_c, 1, 65, 0
2, 80640, Note_on_c, 1, 66, 127
2, 80640, Note_off_c, 1, 72, 0
2, 80640, Note_on_c, 1, 73, 127
2, 80640, Note_on_c, 1, 78, 127
2, 80640, Note_on_c, 1, 81, 127
2, 80640, Note_on_c, 1, 85, 127
2, 80640, Note_on_c, 1, 93, 127
2, 80720, Note_on_c, 1, 47, 127
2, 80720, Note_on_c, 1, 52, 127
2, 80720, Note_on_c, 1, 55, 127
2, 80720, Note_off_c, 1, 66, 0
2, 80720, Note_off_c, 1, 73, 0
2, 80720, Note_off_c, 1, 78, 0
2, 80720, Note_off_c, 1, 81, 0
2, 80720, Note_off_c, 1, 85, 0
2, 80720, Note_off_c, 1, 93, 0
2, 80760, Note_off_c, 1, 47, 0
2, 80760, Note_off_c, 1, 52, 0
2, 80760, Note_off_c, 1, 55, 0
2, 80800, Note_on_c, 1, 51, 127
2, 80800, Note_on_c, 1, 54, 127
2, 80800, Note_on_c, 1, 58, 127
2, 80800, Note_on_c, 1, 63, 127
2, 80800, Note_on_c, 1, 70, 127
2, 80800, Note_on_c, 1, 78, 127
2, 80800, Note_on_c, 1, 82, 127
2, 80840, Note_on_c, 1, 35, 127
2, 80840, Note_on_c, 1, 47, 127
2, 80840, Note_off_c, 1, 51, 0
2, 80840, Note_on_c, 1, 53, 127
2, 80840, Note_off_c, 1, 54, 0
2, 80840, Note_off_c, 1, 58, 0
2, 80840, Note_off_c, 1, 63, 0
2, 80840, Note_on_c, 1, 65, 127
2, 80840, Note_on_c, 1, 68, 127
2, 80840, Note_off_c, 1, 70, 0
2, 80840, Note_off_c, 1, 78, 0
2, 80840, Note_off_c, 1, 82, 0
2, 80880, Note_off_c, 1, 35, 0
2, 80880, Note_off_c, 1, 47, 0
2, 80880, Note_off_c, 1, 53, 0
2, 80880, Note_on_c, 1, 55, 127
2, 80880, Note_on_c, 1, 57, 127
2, 80880, Note_on_c, 1, 61, 127
2, 80880, Note_off_c, 1, 65, 0
2, 80880, Note_on_c, 1, 67, 127
2, 80880, Note_off_c, 1, 68, 0
2, 80880, Note_on_c, 1, 69, 127
2, 80880, Note_on_c, 1, 73, 127
2, 80920, Note_on_c, 1, 41, 127
2, 80920, Note_on_c, 1, 48, 127
2, 80920, Note_on_c, 1, 53, 127
2, 80920, Note_off_c, 1, 55, 0
2, 80920, Note_on_c, 1, 56, 127
2, 80920, Note_off_c, 1, 57, 0
2, 80920, Note_on_c, 1, 59, 127
2, 80920, Note_off_c, 1, 61, 0
2, 80920, Note_off_c, 1, 67, 0
2, 80920, Note_off_c, 1, 69, 0
2, 80920, Note_off_c, 1, 73, 0
2, 80920, Note_on_c, 1, 77, 127
2, 80920, Note_on_c, 1, 81, 127
2, 80920, Note_on_c, 1, 89, 127
2, 80960, Note_off_c, 1, 41, 0
2, 80960, Note_off_c, 1, 48, 0
2, 80960, Note_off_c, 1, 53, 0
2, 80960, Note_off_c, 1, 56, 0
2, 80960, Note_off_c, 1, 59, 0
2, 80960, Note_on_c, 1, 63, 127
2, 80960, Note_on_c, 1, 67, 127
2, 80960, Note_off_c, 1, 77, 0
2, 80960, Note_on_c, 1, 79, 127
2, 80960, Note_off_c, 1, 81, 0
2, 80960, Note_off_c, 1, 89, 0
2, 80960, Note_on_c, 1, 90, 127
2, 81000, Note_on_c, 1, 58, 127
2, 81000, Note_off_c, 1, 67, 0
2, 81000, Note_on_c, 1, 77, 127
2, 81000, Note_off_c, 1, 79, 0
2, 81000, Note_on_c, 1, 84, 127
2, 81000, Note_off_c, 1, 90, 0
2, 81040, Note_on_c, 1, 40, 127
2, 81040, Note_on_c, 1, 52, 127
2, 81040, Note_on_c, 1, 57, 127
2, 81040, Note_off_c, 1, 58, 0
2, 81040, Note_off_c, 1, 63, 0
2, 81040, Note_on_c, 1, 73, 127
2, 81040, Note_off_c, 1, 77, 0
2, 81040, Note_on_c, 1, 79, 127
2, 81040, Note_on_c, 1, 83, 127
2, 81040, Note_off_c, 1, 84, 0
2, 81080, Note_off_c, 1, 40, 0
2, 81080, Note_off_c, 1, 52, 0
2, 81080, Note_on_c, 1, 54, 127
2, 81080, Note_off_c, 1, 57, 0
2, 81080, Note_off_c, 1, 73, 0
2, 81080, Note_off_c, 1, 79, 0
2, 81080, Note_on_c, 1, 81, 127
2, 81080, Note_off_c, 1, 83, 0
2, 81080, Note_on_c, 1, 86, 127
2, 81080, Note_on_c, 1, 90, 127
2, 81080, Note_on_c, 1, 93, 127
2, 81120, Note_off_c, 1, 54, 0
2, 81120, Note_on_c, 1, 57, 127
2, 81120, Note_on_c, 1, 66, 127
2, 81120, Note_on_c, 1, 75, 127
2, 81120, Note_off_c, 1, 81, 0
2, 81120, Note_off_c, 1, 86, 0
2, 81120, Note_on_c, 1, 87, 127
2, 81120, Note_off_c, 1, 90, 0
2, 81120, Note_off_c, 1, 93, 0
2, 81160, Note_off_c, 1, 57, 0
2, 81160, Note_off_c, 1, 66, 0
2, 81160, Note_off_c, 1, 75, 0
2, 81160, Note_off_c, 1, 87, 0
2, 81200, Note_on_c, 1, 48, 127
2, 81200, Note_on_c, 1, 52, 127
2, 81200, Note_on_c, 1, 56, 127
2, 81200, Note_on_c, 1, 58, 127
2, 81200, Note_on_c, 1, 60, 127
2, 81200, Note_on_c, 1, 64, 127
2, 81200, Note_on_c, 1, 68, 127
2, 81200, Note_on_c, 1, 70, 127
2, 81200, Note_on_c, 1, 72, 127
2, 81960, Note_off_c, 1, 48, 0
2, 81960, Note_off_c, 1, 52, 0
2, 81960, Note_off_c, 1, 56, 0
2, 81960, Note_off_c, 1, 58, 0
2, 81960, Note_off_c, 1, 60, 0
2, 81960, Note_off_c, 1, 64, 0
2, 81960, Note_off_c, 1, 68, 0
2, 81960, Note_off_c, 1, 70, 0
2, 81960, Note_off_c, 1, 72, 0
2, 82000, Note_on_c, 1, 49, 127
2, 82000, Note_on_c, 1, 54, 127
2, 82000, Note_on_c, 1, 76, 127
2, 82000, Note_on_c, 1, 78, 127
2, 82000, Note_on_c, 1, 82, 127
2, 82360, Note_off_c, 1, 82, 0
2, 82400, Note_off_c, 1, 49, 0
2, 82400, Note_off_c, 1, 54, 0
2, 82400, Note_off_c, 1, 76, 0
2, 82400, Note_off_c, 1, 78, 0
2, 82440, Note_on_c, 1, 49, 127
2, 82440, Note_on_c, 1, 54, 127
2, 82440, Note_on_c, 1, 76, 127
2, 82440, Note_on_c, 1, 78, 127
2, 82440, Note_on_c, 1, 85, 127
2, 82800, Note_off_c, 1, 49, 0
2, 82800, Note_off_c, 1, 54, 0
2, 82800, Note_off_c, 1, 76, 0
2, 82800, Note_off_c, 1, 78, 0
2, 82800, Note_off_c, 1, 85, 0
2, 82840, Note_on_c, 1, 37, 127
2, 82840, Note_on_c, 1, 49, 127
2, 82840, Note_on_c, 1, 68, 127
2, 82840, Note_on_c, 1, 73, 127
2, 82840, Note_on_c, 1, 77, 127
2, 82840, Note_on_c, 1, 80, 127
2, 83560, Note_off_c, 1, 37, 0
2, 83560, Note_off_c, 1, 49, 0
2, 83560, Note_off_c, 1, 68, 0
2, 83560, Note_off_c, 1, 73, 0
2, 83560, Note_off_c, 1, 77, 0
2, 83560, Note_off_c, 1, 80, 0
2, 83600, Note_on_c, 1, 37, 127
2, 83600, Note_on_c, 1, 49, 127
2, 83600, Note_on_c, 1, 68, 127
2, 83600, Note_on_c, 1, 73, 127
2, 83600, Note_on_c, 1, 77, 127
2, 83600, Note_on_c, 1, 80, 127
2, 84320, Note_off_c, 1, 37, 0
2, 84320, Note_off_c, 1, 49, 0
2, 84320, Note_off_c, 1, 68, 0
2, 84320, Note_off_c, 1, 73, 0
2, 84320, Note_off_c, 1, 77, 0
2, 84320, Note_off_c, 1, 80, 0
2, 84440, Note_on_c, 1, 50, 127
2, 84440, Note_on_c, 1, 59, 127
2, 84440, Note_on_c, 1, 65, 127
2, 84440, Note_on_c, 1, 67, 127
2, 84440, Note_on_c, 1, 74, 127
2, 84480, Note_on_c, 1, 30, 127
2, 84480, Note_on_c, 1, 42, 127
2, 84480, Note_off_c, 1, 50, 0
2, 84480, Note_off_c, 1, 59, 0
2, 84480, Note_off_c, 1, 65, 0
2, 84480, Note_off_c, 1, 67, 0
2, 84480, Note_on_c, 1, 72, 127
2, 84480, Note_off_c, 1, 74, 0
2, 84480, Note_on_c, 1, 81, 127
2, 84480, Note_on_c, 1, 86, 127
2, 84480, Note_on_c, 1, 90, 127
2, 84480, Note_on_c, 1, 93, 127
2, 84520, Note_off_c, 1, 30, 0
2, 84520, Note_off_c, 1, 42, 0
2, 84520, Note_on_c, 1, 52, 127
2, 84520, Note_on_c, 1, 56, 127
2, 84520, Note_on_c, 1, 59, 127
2, 84520, Note_off_c, 1, 72, 0
2, 84520, Note_on_c, 1, 73, 127
2, 84520, Note_on_c, 1, 76, 127
2, 84520, Note_on_c, 1, 80, 127
2, 84520, Note_off_c, 1, 81, 0
2, 84520, Note_off_c, 1, 86, 0
2, 84520, Note_off_c, 1, 90, 0
2, 84520, Note_off_c, 1, 93, 0
2, 84560, Note_on_c, 1, 44, 127
2, 84560, Note_off_c, 1, 56, 0
2, 84560, Note_off_c, 1, 59, 0
2, 84560, Note_on_c, 1, 62, 127
2, 84560, Note_off_c, 1, 73, 0
2, 84560, Note_off_c, 1, 76, 0
2, 84560, Note_off_c, 1, 80, 0
2, 84600, Note_on_c, 1, 41, 127
2, 84600, Note_off_c, 1, 44, 0
2, 84600, Note_on_c, 1, 48, 127
2, 84600, Note_off_c, 1, 52, 0
2, 84600, Note_on_c, 1, 57, 127
2, 84600, Note_off_c, 1, 62, 0
2, 84600, Note_on_c, 1, 81, 127
2, 84600, Note_on_c, 1, 84, 127
2, 84600, Note_on_c, 1, 89, 127
2, 84600, Note_on_c, 1, 93, 127
2, 84640, Note_off_c, 1, 41, 0
2, 84640, Note_off_c, 1, 48, 0
2, 84640, Note_off_c, 1, 57, 0
2, 84640, Note_on_c, 1, 60, 127
2, 84640, Note_on_c, 1, 72, 127
2, 84640, Note_on_c, 1, 80, 127
2, 84640, Note_off_c, 1, 81, 0
2, 84640, Note_off_c, 1, 84, 0
2, 84640, Note_off_c, 1, 89, 0
2, 84640, Note_on_c, 1, 92, 127
2, 84640, Note_off_c, 1, 93, 0
2, 84680, Note_on_c, 1, 45, 127
2, 84680, Note_on_c, 1, 57, 127
2, 84680, Note_off_c, 1, 60, 0
2, 84680, Note_off_c, 1, 72, 0
2, 84680, Note_off_c, 1, 80, 0
2, 84680, Note_on_c, 1, 88, 127
2, 84680, Note_off_c, 1, 92, 0
2, 84680, Note_on_c, 1, 93, 127
2, 84680, Note_on_c, 1, 97, 127
2, 84680, Note_on_c, 1, 100, 127
2, 84720, Note_off_c, 1, 45, 0
2, 84720, Note_off_c, 1, 57, 0
2, 84720, Note_on_c, 1, 67, 127
2, 84720, Note_on_c, 1, 68, 127
2, 84720, Note_on_c, 1, 73, 127
2, 84720, Note_on_c, 1, 77, 127
2, 84720, Note_off_c, 1, 88, 0
2, 84720, Note_off_c, 1, 93, 0
2, 84720, Note_off_c, 1, 97, 0
2, 84720, Note_off_c, 1, 100, 0
2, 84760, Note_on_c, 1, 39, 127
2, 84760, Note_on_c, 1, 51, 127
2, 84760, Note_on_c, 1, 56, 127
2, 84760, Note_on_c, 1, 60, 127
2, 84760, Note_off_c, 1, 67, 0
2, 84760, Note_off_c, 1, 68, 0
2, 84760, Note_off_c, 1, 73, 0
2, 84760, Note_off_c, 1, 77, 0
2, 84800, Note_off_c, 1, 39, 0
2, 84800, Note_off_c, 1, 51, 0
2, 84800, Note_off_c, 1, 56, 0
2, 84800, Note_on_c, 1, 58, 127
2, 84800, Note_off_c, 1, 60, 0
2, 84800, Note_on_c, 1, 63, 127
2, 84800, Note_on_c, 1, 83, 127
2, 84840, Note_on_c, 1, 42, 127
2, 84840, Note_on_c, 1, 54, 127
2, 84840, Note_off_c, 1, 58, 0
2, 84840, Note_off_c, 1, 63, 0
2, 84840, Note_on_c, 1, 69, 127
2, 84840, Note_on_c, 1, 73, 127
2, 84840, Note_on_c, 1, 78, 127
2, 84840, Note_on_c, 1, 81, 127
2, 84840, Note_off_c, 1, 83, 0
2, 84880, Note_off_c, 1, 42, 0
2, 84880, Note_on_c, 1, 44, 127
2, 84880, Note_off_c, 1, 54, 0
2, 84880, Note_on_c, 1, 56, 127
2, 84880, Note_off_c, 1, 69, 0
2, 84880, Note_off_c, 1, 73, 0
2, 84880, Note_off_c, 1, 78, 0
2, 84880, Note_on_c, 1, 80, 127
2, 84880, Note_off_c, 1, 81, 0
2, 84880, Note_on_c, 1, 84, 127
2, 84920, Note_on_c, 1, 42, 127
2, 84920, Note_off_c, 1, 44, 0
2, 84920, Note_on_c, 1, 54, 127
2, 84920, Note_off_c, 1, 56, 0
2, 84920, Note_on_c, 1, 69, 127
2, 84920, Note_on_c, 1, 73, 127
2, 84920, Note_on_c, 1, 78, 127
2, 84920, Note_off_c, 1, 80, 0
2, 84920, Note_on_c, 1, 81, 127
2, 84920, Note_off_c, 1, 84, 0
2, 85200, Note_off_c, 1, 42, 0
2, 85200, Note_off_c, 1, 54, 0
2, 85200, Note_off_c, 1, 69, 0
2, 85200, Note_off_c, 1, 73, 0
2, 85200, Note_off_c, 1, 78, 0
2, 85200, Note_off_c, 1, 81, 0
2, 85240, Note_on_c, 1, 27, 127
2, 85240, Note_on_c, 1, 39, 127
2, 85240, Note_on_c, 1, 61, 127
2, 85240, Note_on_c, 1, 63, 127
2, 85240, Note_on_c, 1, 67, 127
2, 85240, Note_on_c, 1, 72, 127
2, 85800, Note_off_c, 1, 27, 0
2, 85800, Note_off_c, 1, 39, 0
2, 85800, Note_off_c, 1, 61, 0
2, 85800, Note_off_c, 1, 63, 0
2, 85800, Note_off_c, 1, 67, 0
2, 85800, Note_off_c, 1, 72, 0
2, 85840, Note_on_c, 1, 51, 127
2, 85840, Note_on_c, 1, 58, 127
2, 85840, Note_on_c, 1, 67, 127
2, 85840, Note_on_c, 1, 75, 127
2, 86560, Note_off_c, 1, 51, 0
2, 86560, Note_off_c, 1, 58, 0
2, 86560, Note_off_c, 1, 67, 0
2, 86560, Note_off_c, 1, 75, 0
2, 86600, Note_on_c, 1, 51, 127
2, 86600, Note_on_c, 1, 58, 127
2, 86600, Note_on_c, 1, 67, 127
2, 86600, Note_on_c, 1, 75, 127
2, 89000, Note_off_c, 1, 51, 0
2, 89000, Note_off_c, 1, 58, 0
2, 89000, Note_off_c, 1, 67, 0
2, 89000, Note_off_c, 1, 75, 0
2, 89040, Note_on_c, 1, 51, 127
2, 89040, Note_on_c, 1, 58, 127
2, 89040, Note_on_c, 1, 67, 127
2, 89040, Note_on_c, 1, 75, 127
2, 89400, Note_off_c, 1, 51, 0
2, 89400, Note_off_c, 1, 58, 0
2, 89400, Note_off_c, 1, 67, 0
2, 89400, Note_off_c, 1, 75, 0
2, 89440, Note_on_c, 1, 49, 127
2, 89440, Note_on_c, 1, 57, 127
2, 89440, Note_on_c, 1, 64, 127
2, 89440, Note_on_c, 1, 69, 127
2, 89800, Note_off_c, 1, 49, 0
2, 89800, Note_off_c, 1, 57, 0
2, 89800, Note_off_c, 1, 64, 0
2, 89800, Note_off_c, 1, 69, 0
2, 89840, Note_on_c, 1, 46, 127
2, 89840, Note_on_c, 1, 49, 127
2, 89840, Note_on_c, 1, 56, 127
2, 89840, Note_on_c, 1, 61, 127
2, 89840, Note_on_c, 1, 64, 127
2, 89880, Note_off_c, 1, 46, 0
2, 89880, Note_off_c, 1, 49, 0
2, 89880, Note_on_c, 1, 53, 127
2, 89880, Note_off_c, 1, 56, 0
2, 89880, Note_off_c, 1, 61, 0
2, 89880, Note_on_c, 1, 63, 127
2, 89880, Note_off_c, 1, 64, 0
2, 89880, Note_on_c, 1, 73, 127
2, 89920, Note_off_c, 1, 53, 0
2, 89920, Note_on_c, 1, 55, 127
2, 89920, Note_on_c, 1, 58, 127
2, 89920, Note_off_c, 1, 63, 0
2, 89920, Note_on_c, 1, 70, 127
2, 89920, Note_on_c, 1, 82, 127
2, 89960, Note_on_c, 1, 53, 127
2, 89960, Note_off_c, 1, 55, 0
2, 89960, Note_off_c, 1, 58, 0
2, 89960, Note_on_c, 1, 63, 127
2, 89960, Note_off_c, 1, 70, 0
2, 89960, Note_off_c, 1, 82, 0
2, 90040, Note_on_c, 1, 55, 127
2, 90040, Note_on_c, 1, 58, 127
2, 90040, Note_off_c, 1, 63, 0
2, 90040, Note_off_c, 1, 73, 0
2, 90040, Note_on_c, 1, 79, 127
2, 90080, Note_off_c, 1, 55, 0
2, 90080, Note_off_c, 1, 58, 0
2, 90080, Note_on_c, 1, 63, 127
2, 90080, Note_on_c, 1, 73, 127
2, 90080, Note_off_c, 1, 79, 0
2, 90360, Note_off_c, 1, 53, 0
2, 90360, Note_off_c, 1, 63, 0
2, 90360, Note_off_c, 1, 73, 0
2, 90400, Note_on_c, 1, 54, 127
2, 90400, Note_on_c, 1, 58, 127
2, 90400, Note_on_c, 1, 66, 127
2, 90400, Note_on_c, 1, 75, 127
2, 90920, Note_off_c, 1, 54, 0
2, 90920, Note_off_c, 1, 58, 0
2, 90920, Note_off_c, 1, 66, 0
2, 90920, Note_off_c, 1, 75, 0
2, 90960, Note_on_c, 1, 54, 127
2, 90960, Note_on_c, 1, 58, 127
2, 90960, Note_on_c, 1, 66, 127
2, 90960, Note_on_c, 1, 75, 127
2, 91160, Note_off_c, 1, 54, 0
2, 91160, Note_off_c, 1, 58, 0
2, 91160, Note_off_c, 1, 66, 0
2, 91160, Note_off_c, 1, 75, 0
2, 91200, Note_on_c, 1, 54, 127
2, 91200, Note_on_c, 1, 58, 127
2, 91200, Note_on_c, 1, 66, 127
2, 91200, Note_on_c, 1, 75, 127
2, 91920, Note_off_c, 1, 54, 0
2, 91920, Note_off_c, 1, 58, 0
2, 91920, Note_off_c, 1, 66, 0
2, 91920, Note_off_c, 1, 75, 0
2, 91960, Note_on_c, 1, 50, 127
2, 91960, Note_on_c, 1, 57, 127
2, 91960, Note_on_c, 1, 65, 127
2, 91960, Note_on_c, 1, 77, 127
2, 92720, Note_off_c, 1, 50, 0
2, 92720, Note_off_c, 1, 57, 0
2, 92720, Note_off_c, 1, 65, 0
2, 92720, Note_off_c, 1, 77, 0
2, 92760, Note_on_c, 1, 50, 127
2, 92760, Note_on_c, 1, 55, 127
2, 92760, Note_on_c, 1, 60, 127
2, 92760, Note_on_c, 1, 62, 127
2, 92760, Note_on_c, 1, 69, 127
2, 92960, Note_off_c, 1, 50, 0
2, 92960, Note_off_c, 1, 55, 0
2, 92960, Note_off_c, 1, 60, 0
2, 92960, Note_off_c, 1, 62, 0
2, 92960, Note_off_c, 1, 69, 0
2, 93000, Note_on_c, 1, 50, 127
2, 93000, Note_on_c, 1, 55, 127
2, 93000, Note_on_c, 1, 60, 127
2, 93000, Note_on_c, 1, 62, 127
2, 93000, Note_on_c, 1, 69, 127
2, 93520, Note_off_c, 1, 50, 0
2, 93520, Note_off_c, 1, 55, 0
2, 93520, Note_off_c, 1, 60, 0
2, 93520, Note_off_c, 1, 62, 0
2, 93520, Note_off_c, 1, 69, 0
2, 93560, Note_on_c, 1, 50, 127
2, 93560, Note_on_c, 1, 70, 127
2, 93560, Note_on_c, 1, 77, 127
2, 94280, Note_off_c, 1, 50, 0
2, 94280, Note_on_c, 1, 63, 127
2, 94280, Note_on_c, 1, 69, 127
2, 94280, Note_off_c, 1, 70, 0
2, 94280, Note_on_c, 1, 73, 127
2, 94280, Note_on_c, 1, 76, 127
2, 94280, Note_off_c, 1, 77, 0
2, 94280, Note_on_c, 1, 80, 127
2, 94320, Note_on_c, 1, 44, 127
2, 94320, Note_on_c, 1, 51, 127
2, 94320, Note_off_c, 1, 69, 0
2, 94320, Note_on_c, 1, 72, 127
2, 94320, Note_off_c, 1, 73, 0
2, 94320, Note_on_c, 1, 75, 127
2, 94320, Note_off_c, 1, 76, 0
2, 94320, Note_off_c, 1, 80, 0
2, 95080, Note_off_c, 1, 44, 0
2, 95080, Note_off_c, 1, 51, 0
2, 95080, Note_off_c, 1, 63, 0
2, 95080, Note_off_c, 1, 72, 0
2, 95080, Note_off_c, 1, 75, 0
2, 95120, Note_on_c, 1, 44, 127
2, 95120, Note_on_c, 1, 51, 127
2, 95120, Note_on_c, 1, 63, 127
2, 95120, Note_on_c, 1, 72, 127
2, 95120, Note_on_c, 1, 75, 127
2, 96320, Note_off_c, 1, 44, 0
2, 96320, Note_off_c, 1, 51, 0
2, 96320, Note_off_c, 1, 63, 0
2, 96320, Note_off_c, 1, 72, 0
2, 96320, Note_off_c, 1, 75, 0
2, 96360, Note_on_c, 1, 44, 127
2, 96360, Note_on_c, 1, 51, 127
2, 96360, Note_on_c, 1, 63, 127
2, 96360, Note_on_c, 1, 72, 127
2, 96360, Note_on_c, 1, 75, 127
2, 97080, Note_off_c, 1, 44, 0
2, 97080, Note_off_c, 1, 51, 0
2, 97080, Note_off_c, 1, 63, 0
2, 97080, Note_off_c, 1, 72, 0
2, 97080, Note_off_c, 1, 75, 0
2, 97120, Note_on_c, 1, 44, 127
2, 97120, Note_on_c, 1, 51, 127
2, 97120, Note_on_c, 1, 63, 127
2, 97120, Note_on_c, 1, 72, 127
2, 97120, Note_on_c, 1, 75, 127
2, 97560, Note_off_c, 1, 44, 0
2, 97560, Note_off_c, 1, 51, 0
2, 97560, Note_on_c, 1, 54, 127
2, 97560, Note_off_c, 1, 63, 0
2, 97560, Note_off_c, 1, 72, 0
2, 97560, Note_off_c, 1, 75, 0
2, 97560, Note_on_c, 1, 78, 127
2, 97560, Note_on_c, 1, 90, 127
2, 97560, Note_on_c, 1, 93, 127
2, 97600, Note_on_c, 1, 43, 127
2, 97600, Note_off_c, 1, 54, 0
2, 97600, Note_on_c, 1, 62, 127
2, 97600, Note_on_c, 1, 66, 127
2, 97600, Note_on_c, 1, 71, 127
2, 97600, Note_off_c, 1, 78, 0
2, 97600, Note_off_c, 1, 90, 0
2, 97600, Note_off_c, 1, 93, 0
2, 97640, Note_off_c, 1, 43, 0
2, 97640, Note_off_c, 1, 62, 0
2, 97640, Note_on_c, 1, 69, 127
2, 97640, Note_off_c, 1, 71, 0
2, 97640, Note_on_c, 1, 98, 127
2, 97680, Note_on_c, 1, 54, 127
2, 97680, Note_on_c, 1, 62, 127
2, 97680, Note_on_c, 1, 64, 127
2, 97680, Note_off_c, 1, 66, 0
2, 97680, Note_off_c, 1, 69, 0
2, 97680, Note_off_c, 1, 98, 0
2, 97720, Note_off_c, 1, 54, 0
2, 97720, Note_off_c, 1, 62, 0
2, 97720, Note_off_c, 1, 64, 0
2, 97760, Note_on_c, 1, 30, 127
2, 97760, Note_on_c, 1, 42, 127
2, 97760, Note_on_c, 1, 71, 127
2, 97760, Note_on_c, 1, 77, 127
2, 97760, Note_on_c, 1, 80, 127
2, 97760, Note_on_c, 1, 86, 127
2, 98240, Note_off_c, 1, 30, 0
2, 98240, Note_off_c, 1, 42, 0
2, 98240, Note_on_c, 1, 54, 127
2, 98240, Note_on_c, 1, 59, 127
2, 98240, Note_on_c, 1, 62, 127
2, 98240, Note_on_c, 1, 68, 127
2, 98280, Note_off_c, 1, 54, 0
2, 98280, Note_off_c, 1, 59, 0
2, 98280, Note_off_c, 1, 62, 0
2, 98280, Note_off_c, 1, 68, 0
2, 98280, Note_off_c, 1, 71, 0
2, 98280, Note_off_c, 1, 77, 0
2, 98280, Note_off_c, 1, 80, 0
2, 98280, Note_off_c, 1, 86, 0
2, 98320, Note_on_c, 1, 64, 127
2, 98320, Note_on_c, 1, 72, 127
2, 98320, Note_on_c, 1, 91, 127
2, 98320, Note_on_c, 1, 93, 127
2, 98360, Note_on_c, 1, 52, 127
2, 98360, Note_on_c, 1, 59, 127
2, 98360, Note_off_c, 1, 64, 0
2, 98360, Note_off_c, 1, 72, 0
2, 98360, Note_on_c, 1, 74, 127
2, 98360, Note_on_c, 1, 78, 127
2, 98360, Note_off_c, 1, 91, 0
2, 98360, Note_off_c, 1, 93, 0
2, 98400, Note_on_c, 1, 40, 127
2, 98400, Note_on_c, 1, 44, 127
2, 98400, Note_on_c, 1, 47, 127
2, 98400, Note_on_c, 1, 50, 127
2, 98400, Note_off_c, 1, 52, 0
2, 98400, Note_off_c, 1, 59, 0
2, 98400, Note_off_c, 1, 74, 0
2, 98400, Note_off_c, 1, 78, 0
2, 98400, Note_on_c, 1, 80, 127
2, 98400, Note_on_c, 1, 83, 127
2, 98440, Note_off_c, 1, 40, 0
2, 98440, Note_off_c, 1, 44, 0
2, 98440, Note_off_c, 1, 47, 0
2, 98440, Note_off_c, 1, 50, 0
2, 98440, Note_on_c, 1, 54, 127
2, 98440, Note_on_c, 1, 59, 127
2, 98440, Note_on_c, 1, 61, 127
2, 98440, Note_on_c, 1, 63, 127
2, 98440, Note_off_c, 1, 80, 0
2, 98440, Note_off_c, 1, 83, 0
2, 98440, Note_on_c, 1, 90, 127
2, 98480, Note_off_c, 1, 54, 0
2, 98480, Note_on_c, 1, 56, 127
2, 98480, Note_off_c, 1, 59, 0
2, 98480, Note_off_c, 1, 61, 0
2, 98480, Note_on_c, 1, 78, 127
2, 98480, Note_on_c, 1, 80, 127
2, 98480, Note_off_c, 1, 90, 0
2, 98520, Note_on_c, 1, 47, 127
2, 98520, Note_off_c, 1, 56, 0
2, 98520, Note_on_c, 1, 57, 127
2, 98520, Note_off_c, 1, 63, 0
2, 98520, Note_on_c, 1, 66, 127
2, 98520, Note_on_c, 1, 69, 127
2, 98520, Note_on_c, 1, 73, 127
2, 98520, Note_off_c, 1, 80, 0
2, 98560, Note_off_c, 1, 47, 0
2, 98560, Note_on_c, 1, 51, 127
2, 98560, Note_off_c, 1, 57, 0
2, 98560, Note_on_c, 1, 63, 127
2, 98560, Note_off_c, 1, 66, 0
2, 98560, Note_off_c, 1, 69, 0
2, 98560, Note_on_c, 1, 75, 127
2, 98560, Note_off_c, 1, 78, 0
2, 98560, Note_on_c, 1, 79, 127
2, 98560, Note_on_c, 1, 82, 127
2, 98600, Note_on_c, 1, 58, 127
2, 98600, Note_on_c, 1, 61, 127
2, 98600, Note_off_c, 1, 63, 0
2, 98600, Note_on_c, 1, 64, 127
2, 98600, Note_on_c, 1, 71, 127
2, 98600, Note_off_c, 1, 73, 0
2, 98600, Note_off_c, 1, 75, 0
2, 98600, Note_off_c, 1, 79, 0
2, 98600, Note_off_c, 1, 82, 0
2, 98640, Note_on_c, 1, 50, 127
2, 98640, Note_off_c, 1, 51, 0
2, 98640, Note_on_c, 1, 56, 127
2, 98640, Note_off_c, 1, 58, 0
2, 98640, Note_off_c, 1, 61, 0
2, 98640, Note_off_c, 1, 64, 0
2, 98640, Note_off_c, 1, 71, 0
2, 98640, Note_on_c, 1, 75, 127
2, 98680, Note_off_c, 1, 50, 0
2, 98680, Note_on_c, 1, 53, 127
2, 98680, Note_off_c, 1, 56, 0
2, 98680, Note_off_c, 1, 75, 0
2, 98680, Note_on_c, 1, 77, 127
2, 98680, Note_on_c, 1, 86, 127
2, 98720, Note_on_c, 1, 62, 127
2, 98720, Note_on_c, 1, 69, 127
2, 98720, Note_on_c, 1, 74, 127
2, 98720, Note_off_c, 1, 77, 0
2, 98720, Note_off_c, 1, 86, 0
2, 99080, Note_off_c, 1, 53, 0
2, 99080, Note_off_c, 1, 62, 0
2, 99080, Note_off_c, 1, 69, 0
2, 99080, Note_off_c, 1, 74, 0
2, 99120, Note_on_c, 1, 56, 127
2, 99120, Note_on_c, 1, 75, 127
2, 99120, Note_on_c, 1, 83, 127
2, 99520, Note_off_c, 1, 56, 0
2, 99520, Note_off_c, 1, 75, 0
2, 99520, Note_off_c, 1, 83, 0
2, 99560, Note_on_c, 1, 34, 127
2, 99560, Note_on_c, 1, 46, 127
2, 99560, Note_on_c, 1, 55, 127
2, 99560, Note_on_c, 1, 62, 127
2, 99600, Note_off_c, 1, 34, 0
2, 99600, Note_on_c, 1, 41, 127
2, 99600, Note_off_c, 1, 46, 0
2, 99600, Note_on_c, 1, 48, 127
2, 99600, Note_on_c, 1, 58, 127
2, 99600, Note_off_c, 1, 62, 0
2, 99600, Note_on_c, 1, 64, 127
2, 99640, Note_off_c, 1, 41, 0
2, 99640, Note_off_c, 1, 48, 0
2, 99640, Note_on_c, 1, 53, 127
2, 99640, Note_off_c, 1, 55, 0
2, 99640, Note_off_c, 1, 58, 0
2, 99640, Note_on_c, 1, 63, 127
2, 99640, Note_off_c, 1, 64, 0
2, 99640, Note_on_c, 1, 75, 127
2, 99640, Note_on_c, 1, 78, 127
2, 99680, Note_on_c, 1, 42, 127
2, 99680, Note_on_c, 1, 49, 127
2, 99680, Note_off_c, 1, 53, 0
2, 99680, Note_on_c, 1, 54, 127
2, 99680, Note_on_c, 1, 58, 127
2, 99680, Note_on_c, 1, 61, 127
2, 99680, Note_off_c, 1, 63, 0
2, 99680, Note_on_c, 1, 68, 127
2, 99680, Note_off_c, 1, 75, 0
2, 99680, Note_off_c, 1, 78, 0
2, 99720, Note_off_c, 1, 42, 0
2, 99720, Note_off_c, 1, 54, 0
2, 99720, Note_off_c, 1, 58, 0
2, 99720, Note_on_c, 1, 66, 127
2, 99760, Note_off_c, 1, 49, 0
2, 99760, Note_on_c, 1, 57, 127
2, 99760, Note_off_c, 1, 61, 0
2, 99760, Note_on_c, 1, 64, 127
2, 99760, Note_off_c, 1, 66, 0
2, 99760, Note_off_c, 1, 68, 0
2, 99760, Note_on_c, 1, 73, 127
2, 99760, Note_on_c, 1, 81, 127
2, 99760, Note_on_c, 1, 83, 127
2, 99760, Note_on_c, 1, 88, 127
2, 99800, Note_on_c, 1, 54, 127
2, 99800, Note_off_c, 1, 57, 0
2, 99800, Note_on_c, 1, 59, 127
2, 99800, Note_off_c, 1, 64, 0
2, 99800, Note_on_c, 1, 66, 127
2, 99800, Note_off_c, 1, 73, 0
2, 99800, Note_on_c, 1, 78, 127
2, 99800, Note_off_c, 1, 81, 0
2, 99800, Note_off_c, 1, 88, 0
2, 99840, Note_on_c, 1, 52, 127
2, 99840, Note_off_c, 1, 54, 0
2, 99840, Note_off_c, 1, 59, 0
2, 99840, Note_off_c, 1, 66, 0
2, 99840, Note_off_c, 1, 78, 0
2, 99840, Note_on_c, 1, 93, 127
2, 99840, Note_on_c, 1, 97, 127
2, 99880, Note_off_c, 1, 52, 0
2, 99880, Note_on_c, 1, 74, 127
2, 99880, Note_on_c, 1, 77, 127
2, 99880, Note_on_c, 1, 86, 127
2, 99880, Note_on_c, 1, 89, 127
2, 99880, Note_off_c, 1, 93, 0
2, 99880, Note_on_c, 1, 95, 127
2, 99880, Note_off_c, 1, 97, 0
2, 99920, Note_on_c, 1, 41, 127
2, 99920, Note_on_c, 1, 57, 127
2, 99920, Note_off_c, 1, 74, 0
2, 99920, Note_on_c, 1, 81, 127
2, 99920, Note_off_c, 1, 83, 0
2, 99920, Note_on_c, 1, 84, 127
2, 99920, Note_off_c, 1, 86, 0
2, 99920, Note_off_c, 1, 89, 0
2, 99920, Note_off_c, 1, 95, 0
2, 99960, Note_off_c, 1, 41, 0
2, 99960, Note_on_c, 1, 47, 127
2, 99960, Note_off_c, 1, 57, 0
2, 99960, Note_on_c, 1, 59, 127
2, 99960, Note_off_c, 1, 77, 0
2, 99960, Note_off_c, 1, 81, 0
2, 99960, Note_off_c, 1, 84, 0
2, 99960, Note_on_c, 1, 89, 127
2, 99960, Note_on_c, 1, 95, 127
2, 99960, Note_on_c, 1, 98, 127
2, 99960, Note_on_c, 1, 101, 127
2, 100000, Note_off_c, 1, 47, 0
2, 100000, Note_on_c, 1, 56, 127
2, 100000, Note_off_c, 1, 59, 0
2, 100000, Note_on_c, 1, 61, 127
2, 100000, Note_on_c, 1, 65, 127
2, 100000, Note_on_c, 1, 73, 127
2, 100000, Note_on_c, 1, 82, 127
2, 100000, Note_off_c, 1, 89, 0
2, 100000, Note_off_c, 1, 95, 0
2, 100000, Note_off_c, 1, 98, 0
2, 100000, Note_off_c, 1, 101, 0
2, 100040, Note_on_c, 1, 41, 127
2, 100040, Note_off_c, 1, 56, 0
2, 100040, Note_on_c, 1, 57, 127
2, 100040, Note_off_c, 1, 61, 0
2, 100040, Note_off_c, 1, 65, 0
2, 100040, Note_off_c, 1, 73, 0
2, 100040, Note_on_c, 1, 77, 127
2, 100040, Note_on_c, 1, 81, 127
2, 100040, Note_off_c, 1, 82, 0
2, 100040, Note_on_c, 1, 84, 127
2, 100160, Note_on_c, 1, 48, 127
2, 100200, Note_off_c, 1, 48, 0
2, 100280, Note_off_c, 1, 41, 0
2, 100280, Note_off_c, 1, 57, 0
2, 100280, Note_off_c, 1, 77, 0
2, 100280, Note_off_c, 1, 81, 0
2, 100280, Note_off_c, 1, 84, 0
2, 100320, Note_on_c, 1, 40, 127
2, 100320, Note_on_c, 1, 43, 127
2, 100320, Note_on_c, 1, 48, 127
2, 100320, Note_on_c, 1, 52, 127
2, 100320, Note_on_c, 1, 76, 127
2, 100320, Note_on_c, 1, 79, 127
2, 100320, Note_on_c, 1, 84, 127
2, 100320, Note_on_c, 1, 88, 127
2, 100360, Note_off_c, 1, 40, 0
2, 100360, Note_off_c, 1, 43, 0
2, 100360, Note_off_c, 1, 48, 0
2, 100360, Note_off_c, 1, 52, 0
2, 100360, Note_on_c, 1, 55, 127
2, 100360, Note_on_c, 1, 59, 127
2, 100360, Note_on_c, 1, 62, 127
2, 100360, Note_on_c, 1, 72, 127
2, 100360, Note_off_c, 1, 76, 0
2, 100360, Note_off_c, 1, 79, 0
2, 100360, Note_off_c, 1, 84, 0
2, 100360, Note_off_c, 1, 88, 0
2, 100400, Note_on_c, 1, 35, 127
2, 100400, Note_on_c, 1, 47, 127
2, 100400, Note_off_c, 1, 62, 0
2, 100400, Note_on_c, 1, 64, 127
2, 100400, Note_off_c, 1, 72, 0
2, 100440, Note_off_c, 1, 35, 0
2, 100440, Note_off_c, 1, 47, 0
2, 100440, Note_on_c, 1, 61, 127
2, 100440, Note_off_c, 1, 64, 0
2, 100440, Note_on_c, 1, 71, 127
2, 100480, Note_on_c, 1, 39, 127
2, 100480, Note_off_c, 1, 55, 0
2, 100480, Note_off_c, 1, 59, 0
2, 100480, Note_off_c, 1, 61, 0
2, 100480, Note_on_c, 1, 67, 127
2, 100480, Note_off_c, 1, 71, 0
2, 100480, Note_on_c, 1, 91, 127
2, 100480, Note_on_c, 1, 94, 127
2, 100520, Note_off_c, 1, 39, 0
2, 100520, Note_on_c, 1, 46, 127
2, 100520, Note_on_c, 1, 63, 127
2, 100520, Note_off_c, 1, 67, 0
2, 100520, Note_on_c, 1, 69, 127
2, 100520, Note_off_c, 1, 91, 0
2, 100520, Note_off_c, 1, 94, 0
2, 100560, Note_on_c, 1, 43, 127
2, 100560, Note_off_c, 1, 46, 0
2, 100560, Note_on_c, 1, 50, 127
2, 100560, Note_on_c, 1, 53, 127
2, 100560, Note_on_c, 1, 55, 127
2, 100560, Note_off_c, 1, 63, 0
2, 100560, Note_off_c, 1, 69, 0
2, 100560, Note_on_c, 1, 77, 127
2, 100600, Note_off_c, 1, 43, 0
2, 100600, Note_on_c, 1, 47, 127
2, 100600, Note_off_c, 1, 50, 0
2, 100600, Note_off_c, 1, 53, 0
2, 100600, Note_off_c, 1, 55, 0
2, 100600, Note_on_c, 1, 60, 127
2, 100600, Note_on_c, 1, 66, 127
2, 100600, Note_on_c, 1, 69, 127
2, 100600, Note_on_c, 1, 74, 127
2, 100600, Note_off_c, 1, 77, 0
2, 100640, Note_off_c, 1, 47, 0
2, 100640, Note_on_c, 1, 57, 127
2, 100640, Note_off_c, 1, 69, 0
2, 100640, Note_off_c, 1, 74, 0
2, 100640, Note_on_c, 1, 78, 127
2, 100640, Note_on_c, 1, 79, 127
2, 100680, Note_on_c, 1, 55, 127
2, 100680, Note_off_c, 1, 57, 0
2, 100680, Note_on_c, 1, 58, 127
2, 100680, Note_off_c, 1, 60, 0
2, 100680, Note_on_c, 1, 63, 127
2, 100680, Note_off_c, 1, 66, 0
2, 100680, Note_on_c, 1, 67, 127
2, 100680, Note_on_c, 1, 70, 127
2, 100680, Note_on_c, 1, 75, 127
2, 100680, Note_off_c, 1, 78, 0
2, 100680, Note_off_c, 1, 79, 0
2, 100680, Note_on_c, 1, 82, 127
2, 100720, Note_on_c, 1, 36, 127
2, 100720, Note_on_c, 1, 48, 127
2, 100720, Note_off_c, 1, 58, 0
2, 100720, Note_off_c, 1, 63, 0
2, 100720, Note_off_c, 1, 70, 0
2, 100720, Note_off_c, 1, 75, 0
2, 100720, Note_on_c, 1, 76, 127
2, 100720, Note_off_c, 1, 82, 0
2, 100720, Note_on_c, 1, 84, 127
2, 100720, Note_on_c, 1, 88, 127
2, 101480, Note_off_c, 1, 36, 0
2, 101480, Note_off_c, 1, 48, 0
2, 101480, Note_off_c, 1, 55, 0
2, 101480, Note_off_c, 1, 67, 0
2, 101480, Note_off_c, 1, 76, 0
2, 101480, Note_off_c, 1, 84, 0
2, 101480, Note_off_c, 1, 88, 0
2, 101520, Note_on_c, 1, 46, 127
2, 101520, Note_on_c, 1, 62, 127
2, 101520, Note_on_c, 1, 65, 127
2, 101520, Note_on_c, 1, 77, 127
2, 101880, Note_off_c, 1, 46, 0
2, 101880, Note_off_c, 1, 62, 0
2, 101880, Note_off_c, 1, 65, 0
2, 101880, Note_off_c, 1, 77, 0
2, 101920, Note_on_c, 1, 46, 127
2, 101920, Note_on_c, 1, 63, 127
2, 101920, Note_on_c, 1, 67, 127
2, 101920, Note_on_c, 1, 79, 127
2, 102520, Note_off_c, 1, 46, 0
2, 102520, Note_off_c, 1, 63, 0
2, 102520, Note_off_c, 1, 67, 0
2, 102520, Note_off_c, 1, 79, 0
2, 102560, Note_on_c, 1, 53, 127
2, 102560, Note_on_c, 1, 58, 127
2, 102560, Note_on_c, 1, 72, 127
2, 102920, Note_off_c, 1, 58, 0
2, 102960, Note_on_c, 1, 58, 127
2, 103320, Note_off_c, 1, 58, 0
2, 103360, Note_on_c, 1, 57, 127
2, 103360, Note_on_c, 1, 65, 127
2, 103720, Note_off_c, 1, 57, 0
2, 103720, Note_off_c, 1, 65, 0
2, 103760, Note_on_c, 1, 57, 127
2, 103760, Note_on_c, 1, 65, 127
2, 103960, Note_off_c, 1, 53, 0
2, 103960, Note_off_c, 1, 57, 0
2, 103960, Note_off_c, 1, 65, 0
2, 103960, Note_off_c, 1, 72, 0
2, 104000, Note_on_c, 1, 53, 127
2, 104000, Note_on_c, 1, 57, 127
2, 104000, Note_on_c, 1, 65, 127
2, 104000, Note_on_c, 1, 72, 127
2, 104360, Note_off_c, 1, 53, 0
2, 104360, Note_off_c, 1, 57, 0
2, 104360, Note_off_c, 1, 65, 0
2, 104360, Note_off_c, 1, 72, 0
2, 104400, Note_on_c, 1, 53, 127
2, 104400, Note_on_c, 1, 57, 127
2, 104400, Note_on_c, 1, 60, 127
2, 104400, Note_on_c, 1, 65, 127
2, 104400, Note_on_c, 1, 69, 127
2, 105160, Note_off_c, 1, 53, 0
2, 105160, Note_off_c, 1, 57, 0
2, 105160, Note_off_c, 1, 60, 0
2, 105160, Note_off_c, 1, 65, 0
2, 105160, Note_off_c, 1, 69, 0
2, 105200, Note_on_c, 1, 28, 127
2, 105200, Note_on_c, 1, 40, 127
2, 105200, Note_on_c, 1, 58, 127
2, 105200, Note_on_c, 1, 60, 127
2, 105200, Note_on_c, 1, 63, 127
2, 105200, Note_on_c, 1, 70, 127
2, 105240, Note_off_c, 1, 28, 0
2, 105240, Note_off_c, 1, 40, 0
2, 105240, Note_off_c, 1, 58, 0
2, 105240, Note_on_c, 1, 59, 127
2, 105240, Note_off_c, 1, 60, 0
2, 105240, Note_on_c, 1, 66, 127
2, 105240, Note_off_c, 1, 70, 0
2, 105240, Note_on_c, 1, 71, 127
2, 105240, Note_on_c, 1, 82, 127
2, 105280, Note_on_c, 1, 55, 127
2, 105280, Note_on_c, 1, 62, 127
2, 105280, Note_off_c, 1, 63, 0
2, 105280, Note_off_c, 1, 66, 0
2, 105280, Note_on_c, 1, 69, 127
2, 105280, Note_off_c, 1, 71, 0
2, 105280, Note_on_c, 1, 79, 127
2, 105280, Note_off_c, 1, 82, 0
2, 105320, Note_off_c, 1, 55, 0
2, 105320, Note_off_c, 1, 62, 0
2, 105320, Note_on_c, 1, 63, 127
2, 105320, Note_on_c, 1, 66, 127
2, 105320, Note_off_c, 1, 69, 0
2, 105320, Note_on_c, 1, 71, 127
2, 105320, Note_off_c, 1, 79, 0
2, 105320, Note_on_c, 1, 82, 127
2, 105360, Note_off_c, 1, 63, 0
2, 105360, Note_on_c, 1, 64, 127
2, 105360, Note_off_c, 1, 66, 0
2, 105360, Note_off_c, 1, 71, 0
2, 105360, Note_on_c, 1, 79, 127
2, 105360, Note_off_c, 1, 82, 0
2, 105360, Note_on_c, 1, 83, 127
2, 105360, Note_on_c, 1, 91, 127
2, 105400, Note_on_c, 1, 42, 127
2, 105400, Note_on_c, 1, 54, 127
2, 105400, Note_off_c, 1, 59, 0
2, 105400, Note_off_c, 1, 64, 0
2, 105400, Note_off_c, 1, 79, 0
2, 105400, Note_on_c, 1, 81, 127
2, 105400, Note_off_c, 1, 83, 0
2, 105400, Note_on_c, 1, 85, 127
2, 105400, Note_off_c, 1, 91, 0
2, 105400, Note_on_c, 1, 93, 127
2, 105440, Note_off_c, 1, 42, 0
2, 105440, Note_off_c, 1, 54, 0
2, 105440, Note_on_c, 1, 65, 127
2, 105440, Note_on_c, 1, 74, 127
2, 105440, Note_off_c, 1, 81, 0
2, 105440, Note_on_c, 1, 82, 127
2, 105440, Note_off_c, 1, 85, 0
2, 105440, Note_on_c, 1, 89, 127
2, 105440, Note_off_c, 1, 93, 0
2, 105480, Note_on_c, 1, 50, 127
2, 105480, Note_on_c, 1, 55, 127
2, 105480, Note_on_c, 1, 62, 127
2, 105480, Note_off_c, 1, 65, 0
2, 105480, Note_off_c, 1, 74, 0
2, 105480, Note_on_c, 1, 77, 127
2, 105480, Note_off_c, 1, 82, 0
2, 105480, Note_off_c, 1, 89, 0
2, 105520, Note_on_c, 1, 27, 127
2, 105520, Note_on_c, 1, 39, 127
2, 105520, Note_off_c, 1, 50, 0
2, 105520, Note_off_c, 1, 55, 0
2, 105520, Note_on_c, 1, 58, 127
2, 105520, Note_off_c, 1, 62, 0
2, 105520, Note_on_c, 1, 63, 127
2, 105520, Note_on_c, 1, 65, 127
2, 105520, Note_on_c, 1, 70, 127
2, 105520, Note_off_c, 1, 77, 0
2, 105520, Note_on_c, 1, 80, 127
2, 105520, Note_on_c, 1, 94, 127
2, 105560, Note_off_c, 1, 27, 0
2, 105560, Note_off_c, 1, 39, 0
2, 105560, Note_on_c, 1, 41, 127
2, 105560, Note_on_c, 1, 53, 127
2, 105560, Note_off_c, 1, 58, 0
2, 105560, Note_off_c, 1, 63, 0
2, 105560, Note_on_c, 1, 69, 127
2, 105560, Note_off_c, 1, 70, 0
2, 105560, Note_on_c, 1, 73, 127
2, 105560, Note_off_c, 1, 80, 0
2, 105560, Note_off_c, 1, 94, 0
2, 105600, Note_off_c, 1, 41, 0
2, 105600, Note_off_c, 1, 65, 0
2, 105600, Note_off_c, 1, 69, 0
2, 105600, Note_on_c, 1, 77, 127
2, 105600, Note_on_c, 1, 82, 127
2, 105640, Note_on_c, 1, 48, 127
2, 105640, Note_off_c, 1, 53, 0
2, 105640, Note_on_c, 1, 60, 127
2, 105640, Note_off_c, 1, 73, 0
2, 105640, Note_off_c, 1, 77, 0
2, 105640, Note_off_c, 1, 82, 0
2, 105640, Note_on_c, 1, 95, 127
2, 105640, Note_on_c, 1, 98, 127
2, 105640, Note_on_c, 1, 103, 127
2, 105640, Note_on_c, 1, 107, 127
2, 105680, Note_off_c, 1, 48, 0
2, 105680, Note_on_c, 1, 53, 127
2, 105680, Note_off_c, 1, 60, 0
2, 105680, Note_on_c, 1, 73, 127
2, 105680, Note_on_c, 1, 77, 127
2, 105680, Note_on_c, 1, 82, 127
2, 105680, Note_off_c, 1, 95, 0
2, 105680, Note_off_c, 1, 98, 0
2, 105680, Note_off_c, 1, 103, 0
2, 105680, Note_off_c, 1, 107, 0
2, 105760, Note_on_c, 1, 37, 127
2, 105760, Note_off_c, 1, 53, 0
2, 105760, Note_off_c, 1, 73, 0
2, 105760, Note_off_c, 1, 82, 0
2, 105760, Note_on_c, 1, 89, 127
2, 105800, Note_off_c, 1, 37, 0
2, 105800, Note_on_c, 1, 68, 127
2, 105800, Note_off_c, 1, 77, 0
2, 105800, Note_on_c, 1, 78, 127
2, 105800, Note_on_c, 1, 80, 127
2, 105800, Note_on_c, 1, 84, 127
2, 105800, Note_on_c, 1, 88, 127
2, 105800, Note_off_c, 1, 89, 0
2, 105840, Note_on_c, 1, 53, 127
2, 105840, Note_on_c, 1, 58, 127
2, 105840, Note_on_c, 1, 60, 127
2, 105840, Note_off_c, 1, 68, 0
2, 105840, Note_off_c, 1, 78, 0
2, 105840, Note_off_c, 1, 80, 0
2, 105840, Note_off_c, 1, 84, 0
2, 105840, Note_off_c, 1, 88, 0
2, 105840, Note_on_c, 1, 96, 127
2, 105880, Note_on_c, 1, 46, 127
2, 105880, Note_off_c, 1, 53, 0
2, 105880, Note_off_c, 1, 58, 0
2, 105880, Note_off_c, 1, 60, 0
2, 105880, Note_on_c, 1, 86, 127
2, 105880, Note_on_c, 1, 91, 127
2, 105880, Note_off_c, 1, 96, 0
2, 105920, Note_on_c, 1, 45, 127
2, 105920, Note_off_c, 1, 46, 0
2, 105920, Note_on_c, 1, 47, 127
2, 105920, Note_on_c, 1, 57, 127
2, 105920, Note_on_c, 1, 63, 127
2, 105920, Note_on_c, 1, 66, 127
2, 105920, Note_on_c, 1, 71, 127
2, 105920, Note_on_c, 1, 75, 127
2, 105920, Note_off_c, 1, 86, 0
2, 105920, Note_off_c, 1, 91, 0
2, 105960, Note_off_c, 1, 47, 0
2, 105960, Note_on_c, 1, 53, 127
2, 105960, Note_off_c, 1, 63, 0
2, 105960, Note_on_c, 1, 64, 127
2, 105960, Note_off_c, 1, 66, 0
2, 105960, Note_off_c, 1, 71, 0
2, 105960, Note_off_c, 1, 75, 0
2, 106000, Note_on_c, 1, 41, 127
2, 106000, Note_off_c, 1, 53, 0
2, 106000, Note_off_c, 1, 57, 0
2, 106000, Note_on_c, 1, 61, 127
2, 106000, Note_on_c, 1, 67, 127
2, 106000, Note_on_c, 1, 69, 127
2, 106080, Note_off_c, 1, 41, 0
2, 106080, Note_off_c, 1, 45, 0
2, 106080, Note_off_c, 1, 61, 0
2, 106080, Note_off_c, 1, 64, 0
2, 106080, Note_off_c, 1, 67, 0
2, 106080, Note_off_c, 1, 69, 0
2, 106120, Note_on_c, 1, 41, 127
2, 106120, Note_on_c, 1, 45, 127
2, 106120, Note_on_c, 1, 61, 127
2, 106120, Note_on_c, 1, 64, 127
2, 106120, Note_on_c, 1, 67, 127
2, 106120, Note_on_c, 1, 69, 127
2, 106320, Note_off_c, 1, 41, 0
2, 106320, Note_off_c, 1, 45, 0
2, 106320, Note_on_c, 1, 49, 127
2, 106320, Note_off_c, 1, 64, 0
2, 106320, Note_on_c, 1, 66, 127
2, 106320, Note_off_c, 1, 67, 0
2, 106320, Note_on_c, 1, 68, 127
2, 106320, Note_off_c, 1, 69, 0
2, 106360, Note_off_c, 1, 49, 0
2, 106360, Note_off_c, 1, 61, 0
2, 106360, Note_off_c, 1, 66, 0
2, 106360, Note_off_c, 1, 68, 0
2, 106400, Note_on_c, 1, 48, 127
2, 106400, Note_on_c, 1, 65, 127
2, 106400, Note_on_c, 1, 69, 127
2, 106400, Note_on_c, 1, 72, 127
2, 106760, Note_off_c, 1, 65, 0
2, 106760, Note_off_c, 1, 69, 0
2, 106800, Note_on_c, 1, 47, 127
2, 106800, Note_off_c, 1, 48, 0
2, 106800, Note_on_c, 1, 59, 127
2, 106800, Note_off_c, 1, 72, 0
2, 106800, Note_on_c, 1, 81, 127
2, 106800, Note_on_c, 1, 87, 127
2, 106800, Note_on_c, 1, 90, 127
2, 106800, Note_on_c, 1, 95, 127
2, 106840, Note_off_c, 1, 47, 0
2, 106840, Note_off_c, 1, 59, 0
2, 106840, Note_off_c, 1, 81, 0
2, 106840, Note_on_c, 1, 86, 127
2, 106840, Note_off_c, 1, 87, 0
2, 106840, Note_off_c, 1, 90, 0
2, 106840, Note_on_c, 1, 93, 127
2, 106840, Note_off_c, 1, 95, 0
2, 106840, Note_on_c, 1, 98, 127
2, 106840, Note_on_c, 1, 105, 127
2, 106880, Note_on_c, 1, 58, 127
2, 106880, Note_on_c, 1, 60, 127
2, 106880, Note_off_c, 1, 86, 0
2, 106880, Note_on_c, 1, 89, 127
2, 106880, Note_off_c, 1, 93, 0
2, 106880, Note_off_c, 1, 98, 0
2, 106880, Note_off_c, 1, 105, 0
2, 106920, Note_on_c, 1, 47, 127
2, 106920, Note_off_c, 1, 58, 0
2, 106920, Note_on_c, 1, 59, 127
2, 106920, Note_off_c, 1, 60, 0
2, 106920, Note_on_c, 1, 79, 127
2, 106920, Note_on_c, 1, 83, 127
2, 106920, Note_on_c, 1, 88, 127
2, 106920, Note_off_c, 1, 89, 0
2, 106920, Note_on_c, 1, 91, 127
2, 106960, Note_off_c, 1, 47, 0
2, 106960, Note_off_c, 1, 59, 0
2, 106960, Note_on_c, 1, 63, 127
2, 106960, Note_on_c, 1, 68, 127
2, 106960, Note_off_c, 1, 79, 0
2, 106960, Note_on_c, 1, 81, 127
2, 106960, Note_off_c, 1, 83, 0
2, 106960, Note_off_c, 1, 88, 0
2, 106960, Note_off_c, 1, 91, 0
2, 107000, Note_on_c, 1, 45, 127
2, 107000, Note_off_c, 1, 63, 0
2, 107000, Note_on_c, 1, 67, 127
2, 107000, Note_off_c, 1, 68, 0
2, 107000, Note_on_c, 1, 71, 127
2, 107000, Note_on_c, 1, 76, 127
2, 107000, Note_off_c, 1, 81, 0
2, 107040, Note_off_c, 1, 45, 0
2, 107040, Note_on_c, 1, 52, 127
2, 107040, Note_off_c, 1, 67, 0
2, 107040, Note_off_c, 1, 71, 0
2, 107040, Note_off_c, 1, 76, 0
2, 107040, Note_on_c, 1, 77, 127
2, 107040, Note_on_c, 1, 80, 127
2, 107040, Note_on_c, 1, 84, 127
2, 107040, Note_on_c, 1, 89, 127
2, 107080, Note_on_c, 1, 50, 127
2, 107080, Note_off_c, 1, 52, 0
2, 107080, Note_on_c, 1, 57, 127
2, 107080, Note_on_c, 1, 67, 127
2, 107080, Note_on_c, 1, 73, 127
2, 107080, Note_off_c, 1, 77, 0
2, 107080, Note_on_c, 1, 78, 127
2, 107080, Note_off_c, 1, 80, 0
2, 107080, Note_off_c, 1, 84, 0
2, 107080, Note_off_c, 1, 89, 0
2, 107120, Note_on_c, 1, 41, 127
2, 107120, Note_off_c, 1, 50, 0
2, 107120, Note_on_c, 1, 53, 127
2, 107120, Note_off_c, 1, 57, 0
2, 107120, Note_on_c, 1, 65, 127
2, 107120, Note_off_c, 1, 67, 0
2, 107120, Note_on_c, 1, 69, 127
2, 107120, Note_off_c, 1, 73, 0
2, 107120, Note_on_c, 1, 74, 127
2, 107120, Note_on_c, 1, 77, 127
2, 107120, Note_off_c, 1, 78, 0
2, 107160, Note_off_c, 1, 41, 0
2, 107160, Note_off_c, 1, 53, 0
2, 107160, Note_off_c, 1, 65, 0
2, 107160, Note_off_c, 1, 69, 0
2, 107160, Note_off_c, 1, 74, 0
2, 107160, Note_off_c, 1, 77, 0
2, 107200, Note_on_c, 1, 83, 127
2, 107200, Note_on_c, 1, 89, 127
2, 107200, Note_on_c, 1, 101, 127
2, 107240, Note_on_c, 1, 44, 127
2, 107240, Note_on_c, 1, 47, 127
2, 107240, Note_on_c, 1, 64, 127
2, 107240, Note_on_c, 1, 76, 127
2, 107240, Note_off_c, 1, 83, 0
2, 107240, Note_off_c, 1, 89, 0
2, 107240, Note_off_c, 1, 101, 0
2, 107280, Note_off_c, 1, 44, 0
2, 107280, Note_off_c, 1, 47, 0
2, 107280, Note_off_c, 1, 64, 0
2, 107280, Note_off_c, 1, 76, 0
2, 107280, Note_on_c, 1, 81, 127
2, 107280, Note_on_c, 1, 83, 127
2, 107280, Note_on_c, 1, 93, 127
2, 107280, Note_on_c, 1, 95, 127
2, 107320, Note_on_c, 1, 65, 127
2, 107320, Note_on_c, 1, 68, 127
2, 107320, Note_on_c, 1, 72, 127
2, 107320, Note_off_c, 1, 81, 0
2, 107320, Note_off_c, 1, 83, 0
2, 107320, Note_off_c, 1, 93, 0
2, 107320, Note_on_c, 1, 94, 127
2, 107320, Note_off_c, 1, 95, 0
2, 107360, Note_off_c, 1, 65, 0
2, 107360, Note_off_c, 1, 68, 0
2, 107360, Note_off_c, 1, 72, 0
2, 107360, Note_on_c, 1, 86, 127
2, 107360, Note_on_c, 1, 89, 127
2, 107360, Note_off_c, 1, 94, 0
2, 107360, Note_on_c, 1, 95, 127
2, 107400, Note_on_c, 1, 36, 127
2, 107400, Note_on_c, 1, 45, 127
2, 107400, Note_on_c, 1, 53, 127
2, 107400, Note_on_c, 1, 62, 127
2, 107400, Note_off_c, 1, 86, 0
2, 107400, Note_off_c, 1, 89, 0
2, 107400, Note_off_c, 1, 95, 0
2, 107440, Note_off_c, 1, 36, 0
2, 107440, Note_on_c, 1, 39, 127
2, 107440, Note_off_c, 1, 45, 0
2, 107440, Note_on_c, 1, 51, 127
2, 107440, Note_off_c, 1, 53, 0
2, 107440, Note_off_c, 1, 62, 0
2, 107440, Note_on_c, 1, 69, 127
2, 107440, Note_on_c, 1, 73, 127
2, 107440, Note_on_c, 1, 79, 127
2, 107440, Note_on_c, 1, 81, 127
2, 107480, Note_off_c, 1, 39, 0
2, 107480, Note_on_c, 1, 40, 127
2, 107480, Note_off_c, 1, 51, 0
2, 107480, Note_off_c, 1, 69, 0
2, 107480, Note_off_c, 1, 73, 0
2, 107480, Note_off_c, 1, 79, 0
2, 107480, Note_off_c, 1, 81, 0
2, 107480, Note_on_c, 1, 93, 127
2, 107520, Note_on_c, 1, 36, 127
2, 107520, Note_on_c, 1, 39, 127
2, 107520, Note_off_c, 1, 40, 0
2, 107520, Note_on_c, 1, 44, 127
2, 107520, Note_on_c, 1, 60, 127
2, 107520, Note_on_c, 1, 72, 127
2, 107520, Note_off_c, 1, 93, 0
2, 107560, Note_off_c, 1, 36, 0
2, 107560, Note_off_c, 1, 39, 0
2, 107560, Note_off_c, 1, 44, 0
2, 107560, Note_on_c, 1, 47, 127
2, 107560, Note_on_c, 1, 55, 127
2, 107560, Note_on_c, 1, 59, 127
2, 107560, Note_off_c, 1, 60, 0
2, 107560, Note_on_c, 1, 64, 127
2, 107560, Note_on_c, 1, 71, 127
2, 107560, Note_off_c, 1, 72, 0
2, 107560, Note_on_c, 1, 76, 127
2, 107600, Note_on_c, 1, 54, 127
2, 107600, Note_off_c, 1, 55, 0
2, 107600, Note_on_c, 1, 57, 127
2, 107600, Note_off_c, 1, 59, 0
2, 107600, Note_off_c, 1, 64, 0
2, 107600, Note_on_c, 1, 66, 127
2, 107600, Note_on_c, 1, 69, 127
2, 107600, Note_off_c, 1, 71, 0
2, 107600, Note_on_c, 1, 73, 127
2, 107600, Note_off_c, 1, 76, 0
2, 108160, Note_off_c, 1, 47, 0
2, 108160, Note_off_c, 1, 54, 0
2, 108160, Note_off_c, 1, 57, 0
2, 108160, Note_off_c, 1, 66, 0
2, 108160, Note_off_c, 1, 69, 0
2, 108160, Note_off_c, 1, 73, 0
2, 108200, Note_on_c, 1, 47, 127
2, 108200, Note_on_c, 1, 54, 127
2, 108200, Note_on_c, 1, 57, 127
2, 108200, Note_on_c, 1, 66, 127
2, 108200, Note_on_c, 1, 69, 127
2, 108200, Note_on_c, 1, 73, 127
2, 108400, Note_off_c, 1, 47, 0
2, 108400, Note_off_c, 1, 54, 0
2, 108400, Note_off_c, 1, 57, 0
2, 108400, Note_on_c, 1, 59, 127
2, 108400, Note_off_c, 1, 66, 0
2, 108400, Note_off_c, 1, 69, 0
2, 108400, Note_off_c, 1, 73, 0
2, 108400, Note_on_c, 1, 80, 127
2, 108400, Note_on_c, 1, 81, 127
2, 108440, Note_on_c, 1, 48, 127
2, 108440, Note_off_c, 1, 59, 0
2, 108440, Note_on_c, 1, 65, 127
2, 108440, Note_on_c, 1, 70, 127
2, 108440, Note_on_c, 1, 74, 127
2, 108440, Note_off_c, 1, 80, 0
2, 108480, Note_on_c, 1, 43, 127
2, 108480, Note_off_c, 1, 48, 0
2, 108480, Note_on_c, 1, 49, 127
2, 108480, Note_on_c, 1, 59, 127
2, 108480, Note_on_c, 1, 61, 127
2, 108480, Note_off_c, 1, 65, 0
2, 108480, Note_off_c, 1, 70, 0
2, 108480, Note_off_c, 1, 74, 0
2, 108480, Note_off_c, 1, 81, 0
2, 108520, Note_off_c, 1, 43, 0
2, 108520, Note_on_c, 1, 48, 127
2, 108520, Note_off_c, 1, 49, 0
2, 108520, Note_off_c, 1, 59, 0
2, 108520, Note_off_c, 1, 61, 0
2, 108520, Note_on_c, 1, 65, 127
2, 108520, Note_on_c, 1, 70, 127
2, 108520, Note_on_c, 1, 74, 127
2, 108520, Note_on_c, 1, 81, 127
2, 108760, Note_on_c, 1, 41, 127
2, 108760, Note_off_c, 1, 48, 0
2, 108760, Note_on_c, 1, 58, 127
2, 108760, Note_on_c, 1, 62, 127
2, 108760, Note_off_c, 1, 65, 0
2, 108760, Note_off_c, 1, 81, 0
2, 108800, Note_off_c, 1, 41, 0
2, 108800, Note_on_c, 1, 43, 127
2, 108800, Note_off_c, 1, 58, 0
2, 108800, Note_off_c, 1, 62, 0
2, 108800, Note_off_c, 1, 70, 0
2, 108800, Note_off_c, 1, 74, 0
2, 108800, Note_on_c, 1, 89, 127
2, 108800, Note_on_c, 1, 98, 127
2, 108840, Note_off_c, 1, 43, 0
2, 108840, Note_on_c, 1, 60, 127
2, 108840, Note_on_c, 1, 70, 127
2, 108840, Note_on_c, 1, 73, 127
2, 108840, Note_on_c, 1, 76, 127
2, 108840, Note_off_c, 1, 89, 0
2, 108840, Note_off_c, 1, 98, 0
2, 109200, Note_off_c, 1, 60, 0
2, 109200, Note_on_c, 1, 64, 127
2, 109200, Note_off_c, 1, 70, 0
2, 109200, Note_off_c, 1, 73, 0
2, 109200, Note_off_c, 1, 76, 0
2, 109240, Note_on_c, 1, 48, 127
2, 109240, Note_on_c, 1, 53, 127
2, 109240, Note_on_c, 1, 62, 127
2, 109240, Note_off_c, 1, 64, 0
2, 109240, Note_on_c, 1, 67, 127
2, 109240, Note_on_c, 1, 74, 127
2, 109560, Note_off_c, 1, 53, 0
2, 109600, Note_off_c, 1, 62, 0
2, 109600, Note_off_c, 1, 74, 0
2, 109640, Note_on_c, 1, 39, 127
2, 109640, Note_off_c, 1, 48, 0
2, 109640, Note_on_c, 1, 51, 127
2, 109640, Note_on_c, 1, 61, 127
2, 109640, Note_on_c, 1, 63, 127
2, 109640, Note_on_c, 1, 70, 127
2, 110160, Note_off_c, 1, 39, 0
2, 110160, Note_off_c, 1, 51, 0
2, 110160, Note_off_c, 1, 61, 0
2, 110160, Note_off_c, 1, 63, 0
2, 110160, Note_off_c, 1, 67, 0
2, 110160, Note_off_c, 1, 70, 0
2, 110240, Note_on_c, 1, 44, 127
2, 110240, Note_on_c, 1, 62, 127
2, 110240, Note_on_c, 1, 71, 127
2, 110240, Note_on_c, 1, 74, 127
2, 110280, Note_on_c, 1, 56, 127
2, 110320, Note_off_c, 1, 56, 0
2, 110960, Note_off_c, 1, 44, 0
2, 110960, Note_off_c, 1, 62, 0
2, 110960, Note_off_c, 1, 71, 0
2, 110960, Note_off_c, 1, 74, 0
2, 111000, Note_on_c, 1, 54, 127
2, 111000, Note_on_c, 1, 56, 127
2, 111000, Note_on_c, 1, 63, 127
2, 111000, Note_on_c, 1, 72, 127
2, 111760, Note_on_c, 1, 38, 127
2, 111760, Note_on_c, 1, 50, 127
2, 111760, Note_off_c, 1, 54, 0
2, 111760, Note_off_c, 1, 56, 0
2, 111760, Note_on_c, 1, 57, 127
2, 111760, Note_on_c, 1, 60, 127
2, 111760, Note_off_c, 1, 63, 0
2, 111760, Note_off_c, 1, 72, 0
2, 111800, Note_off_c, 1, 38, 0
2, 111800, Note_on_c, 1, 43, 127
2, 111800, Note_off_c, 1, 50, 0
2, 111800, Note_on_c, 1, 53, 127
2, 111800, Note_off_c, 1, 57, 0
2, 111800, Note_off_c, 1, 60, 0
2, 111800, Note_on_c, 1, 63, 127
2, 111800, Note_on_c, 1, 70, 127
2, 112120, Note_off_c, 1, 43, 0
2, 112120, Note_off_c, 1, 70, 0
2, 112160, Note_off_c, 1, 53, 0
2, 112160, Note_off_c, 1, 63, 0
2, 112200, Note_on_c, 1, 43, 127
2, 112200, Note_on_c, 1, 53, 127
2, 112200, Note_on_c, 1, 63, 127
2, 112200, Note_on_c, 1, 70, 127
2, 112520, Note_off_c, 1, 43, 0
2, 112520, Note_on_c, 1, 69, 127
2, 112520, Note_off_c, 1, 70, 0
2, 112920, Note_off_c, 1, 53, 0
2, 112920, Note_off_c, 1, 63, 0
2, 112920, Note_on_c, 1, 65, 127
2, 112920, Note_on_c, 1, 72, 127
2, 112960, Note_on_c, 1, 41, 127
2, 112960, Note_on_c, 1, 63, 127
2, 112960, Note_off_c, 1, 65, 0
2, 113320, Note_off_c, 1, 41, 0
2, 113320, Note_off_c, 1, 63, 0
2, 113320, Note_off_c, 1, 69, 0
2, 113320, Note_off_c, 1, 72, 0
2, 113360, Note_on_c, 1, 41, 127
2, 113360, Note_on_c, 1, 63, 127
2, 113360, Note_on_c, 1, 69, 127
2, 113360, Note_on_c, 1, 72, 127
2, 113720, Note_off_c, 1, 41, 0
2, 113760, Note_on_c, 1, 53, 127
2, 113760, Note_on_c, 1, 58, 127
2, 113760, Note_on_c, 1, 67, 127
2, 113760, Note_off_c, 1, 69, 0
2, 113760, Note_on_c, 1, 70, 127
2, 113760, Note_off_c, 1, 72, 0
2, 114120, Note_off_c, 1, 53, 0
2, 114120, Note_off_c, 1, 58, 0
2, 114120, Note_off_c, 1, 63, 0
2, 114120, Note_off_c, 1, 67, 0
2, 114120, Note_off_c, 1, 70, 0
2, 114200, Note_on_c, 1, 58, 127
2, 114200, Note_on_c, 1, 65, 127
2, 114200, Note_on_c, 1, 70, 127
2, 114200, Note_on_c, 1, 74, 127
2, 114960, Note_off_c, 1, 58, 0
2, 115000, Note_on_c, 1, 63, 127
2, 115000, Note_off_c, 1, 65, 0
2, 115000, Note_off_c, 1, 74, 0
2, 115000, Note_on_c, 1, 75, 127
2, 115000, Note_on_c, 1, 80, 127
2, 115320, Note_off_c, 1, 80, 0
2, 115360, Note_on_c, 1, 43, 127
2, 115360, Note_off_c, 1, 63, 0
2, 115360, Note_on_c, 1, 65, 127
2, 115360, Note_on_c, 1, 74, 127
2, 115360, Note_off_c, 1, 75, 0
2, 116120, Note_off_c, 1, 43, 0
2, 116120, Note_off_c, 1, 65, 0
2, 116120, Note_off_c, 1, 70, 0
2, 116120, Note_off_c, 1, 74, 0
2, 116200, Note_on_c, 1, 69, 127
2, 116200, Note_on_c, 1, 72, 127
2, 116200, Note_on_c, 1, 75, 127
2, 116200, Note_on_c, 1, 78, 127
2, 116200, Note_on_c, 1, 80, 127
2, 116200, Note_on_c, 1, 84, 127
2, 116240, Note_on_c, 1, 38, 127
2, 116240, Note_on_c, 1, 46, 127
2, 116240, Note_on_c, 1, 62, 127
2, 116240, Note_off_c, 1, 69, 0
2, 116240, Note_off_c, 1, 72, 0
2, 116240, Note_on_c, 1, 74, 127
2, 116240, Note_off_c, 1, 75, 0
2, 116240, Note_off_c, 1, 78, 0
2, 116240, Note_off_c, 1, 80, 0
2, 116240, Note_off_c, 1, 84, 0
2, 116280, Note_off_c, 1, 46, 0
2, 116280, Note_on_c, 1, 50, 127
2, 116280, Note_on_c, 1, 56, 127
2, 116280, Note_off_c, 1, 62, 0
2, 116280, Note_on_c, 1, 68, 127
2, 116280, Note_on_c, 1, 71, 127
2, 116280, Note_off_c, 1, 74, 0
2, 116280, Note_on_c, 1, 80, 127
2, 116320, Note_off_c, 1, 50, 0
2, 116320, Note_on_c, 1, 52, 127
2, 116320, Note_off_c, 1, 56, 0
2, 116320, Note_on_c, 1, 67, 127
2, 116320, Note_off_c, 1, 68, 0
2, 116320, Note_off_c, 1, 71, 0
2, 116320, Note_on_c, 1, 79, 127
2, 116320, Note_off_c, 1, 80, 0
2, 116360, Note_off_c, 1, 38, 0
2, 116360, Note_off_c, 1, 52, 0
2, 116360, Note_on_c, 1, 53, 127
2, 116360, Note_on_c, 1, 58, 127
2, 116360, Note_on_c, 1, 65, 127
2, 116360, Note_on_c, 1, 70, 127
2, 116360, Note_on_c, 1, 74, 127
2, 116360, Note_off_c, 1, 79, 0
2, 116400, Note_on_c, 1, 48, 127
2, 116400, Note_off_c, 1, 53, 0
2, 116400, Note_on_c, 1, 55, 127
2, 116400, Note_off_c, 1, 58, 0
2, 116400, Note_off_c, 1, 67, 0
2, 116400, Note_off_c, 1, 70, 0
2, 116400, Note_on_c, 1, 72, 127
2, 116400, Note_off_c, 1, 74, 0
2, 116440, Note_on_c, 1, 38, 127
2, 116440, Note_off_c, 1, 48, 0
2, 116440, Note_on_c, 1, 50, 127
2, 116440, Note_on_c, 1, 59, 127
2, 116440, Note_on_c, 1, 62, 127
2, 116440, Note_off_c, 1, 65, 0
2, 116440, Note_on_c, 1, 67, 127
2, 116440, Note_on_c, 1, 71, 127
2, 116440, Note_off_c, 1, 72, 0
2, 116440, Note_on_c, 1, 74, 127
2, 116440, Note_on_c, 1, 79, 127
2, 116480, Note_off_c, 1, 38, 0
2, 116480, Note_off_c, 1, 50, 0
2, 116480, Note_on_c, 1, 58, 127
2, 116480, Note_off_c, 1, 59, 0
2, 116480, Note_off_c, 1, 62, 0
2, 116480, Note_on_c, 1, 64, 127
2, 116480, Note_off_c, 1, 71, 0
2, 116480, Note_off_c, 1, 74, 0
2, 116480, Note_off_c, 1, 79, 0
2, 116520, Note_off_c, 1, 55, 0
2, 116520, Note_off_c, 1, 58, 0
2, 116520, Note_on_c, 1, 60, 127
2, 116520, Note_off_c, 1, 64, 0
2, 116520, Note_off_c, 1, 67, 0
2, 116520, Note_on_c, 1, 70, 127
2, 116520, Note_on_c, 1, 72, 127
2, 116520, Note_on_c, 1, 76, 127
2, 116520, Note_on_c, 1, 80, 127
2, 116560, Note_on_c, 1, 34, 127
2, 116560, Note_on_c, 1, 43, 127
2, 116560, Note_off_c, 1, 60, 0
2, 116560, Note_on_c, 1, 62, 127
2, 116560, Note_off_c, 1, 70, 0
2, 116560, Note_off_c, 1, 72, 0
2, 116560, Note_off_c, 1, 76, 0
2, 116560, Note_off_c, 1, 80, 0
2, 116600, Note_off_c, 1, 34, 0
2, 116600, Note_on_c, 1, 41, 127
2, 116600, Note_off_c, 1, 43, 0
2, 116600, Note_on_c, 1, 51, 127
2, 116600, Note_on_c, 1, 53, 127
2, 116600, Note_off_c, 1, 62, 0
2, 116600, Note_on_c, 1, 75, 127
2, 116800, Note_on_c, 1, 36, 127
2, 116800, Note_off_c, 1, 41, 0
2, 116800, Note_off_c, 1, 51, 0
2, 116800, Note_off_c, 1, 53, 0
2, 116800, Note_on_c, 1, 65, 127
2, 116800, Note_on_c, 1, 69, 127
2, 116800, Note_off_c, 1, 75, 0
2, 116840, Note_off_c, 1, 36, 0
2, 116840, Note_on_c, 1, 45, 127
2, 116840, Note_on_c, 1, 57, 127
2, 116840, Note_on_c, 1, 64, 127
2, 116840, Note_off_c, 1, 65, 0
2, 116840, Note_on_c, 1, 67, 127
2, 116840, Note_off_c, 1, 69, 0
2, 116840, Note_on_c, 1, 73, 127
2, 116840, Note_on_c, 1, 76, 127
2, 116880, Note_on_c, 1, 32, 127
2, 116880, Note_off_c, 1, 45, 0
2, 116880, Note_on_c, 1, 52, 127
2, 116880, Note_on_c, 1, 56, 127
2, 116880, Note_off_c, 1, 57, 0
2, 116880, Note_on_c, 1, 61, 127
2, 116880, Note_off_c, 1, 67, 0
2, 116880, Note_on_c, 1, 68, 127
2, 116880, Note_off_c, 1, 73, 0
2, 116880, Note_off_c, 1, 76, 0
2, 116920, Note_off_c, 1, 32, 0
2, 116920, Note_on_c, 1, 45, 127
2, 116920, Note_off_c, 1, 52, 0
2, 116920, Note_off_c, 1, 56, 0
2, 116920, Note_on_c, 1, 57, 127
2, 116920, Note_off_c, 1, 61, 0
2, 116920, Note_on_c, 1, 67, 127
2, 116920, Note_off_c, 1, 68, 0
2, 116920, Note_on_c, 1, 73, 127
2, 116920, Note_on_c, 1, 76, 127
2, 116960, Note_off_c, 1, 45, 0
2, 116960, Note_off_c, 1, 57, 0
2, 116960, Note_off_c, 1, 64, 0
2, 116960, Note_off_c, 1, 67, 0
2, 116960, Note_off_c, 1, 73, 0
2, 116960, Note_off_c, 1, 76, 0
2, 117000, Note_on_c, 1, 32, 127
2, 117000, Note_on_c, 1, 38, 127
2, 117000, Note_on_c, 1, 41, 127
2, 117000, Note_on_c, 1, 44, 127
2, 117000, Note_on_c, 1, 51, 127
2, 117000, Note_on_c, 1, 53, 127
2, 117040, Note_off_c, 1, 32, 0
2, 117040, Note_off_c, 1, 38, 0
2, 117040, Note_off_c, 1, 41, 0
2, 117040, Note_off_c, 1, 44, 0
2, 117040, Note_off_c, 1, 51, 0
2, 117040, Note_on_c, 1, 52, 127
2, 117040, Note_off_c, 1, 53, 0
2, 117040, Note_on_c, 1, 56, 127
2, 117040, Note_on_c, 1, 59, 127
2, 117040, Note_on_c, 1, 61, 127
2, 117040, Note_on_c, 1, 88, 127
2, 117080, Note_on_c, 1, 43, 127
2, 117080, Note_off_c, 1, 52, 0
2, 117080, Note_off_c, 1, 56, 0
2, 117080, Note_off_c, 1, 59, 0
2, 117080, Note_off_c, 1, 61, 0
2, 117080, Note_on_c, 1, 70, 127
2, 117080, Note_on_c, 1, 73, 127
2, 117080, Note_on_c, 1, 76, 127
2, 117080, Note_on_c, 1, 82, 127
2, 117080, Note_off_c, 1, 88, 0
2, 117120, Note_off_c, 1, 43, 0
2, 117120, Note_on_c, 1, 50, 127
2, 117120, Note_on_c, 1, 54, 127
2, 117120, Note_on_c, 1, 63, 127
2, 117120, Note_on_c, 1, 66, 127
2, 117120, Note_off_c, 1, 73, 0
2, 117120, Note_off_c, 1, 76, 0
2, 117120, Note_off_c, 1, 82, 0
2, 117160, Note_off_c, 1, 50, 0
2, 117160, Note_off_c, 1, 54, 0
2, 117160, Note_on_c, 1, 55, 127
2, 117160, Note_off_c, 1, 63, 0
2, 117160, Note_off_c, 1, 66, 0
2, 117160, Note_on_c, 1, 69, 127
2, 117160, Note_off_c, 1, 70, 0
2, 117160, Note_on_c, 1, 75, 127
2, 117160, Note_on_c, 1, 77, 127
2, 117160, Note_on_c, 1, 81, 127
2, 117200, Note_on_c, 1, 50, 127
2, 117200, Note_off_c, 1, 55, 0
2, 117200, Note_on_c, 1, 61, 127
2, 117200, Note_on_c, 1, 66, 127
2, 117200, Note_off_c, 1, 69, 0
2, 117200, Note_off_c, 1, 75, 0
2, 117200, Note_off_c, 1, 77, 0
2, 117200, Note_off_c, 1, 81, 0
2, 117240, Note_on_c, 1, 32, 127
2, 117240, Note_off_c, 1, 50, 0
2, 117240, Note_on_c, 1, 52, 127
2, 117240, Note_on_c, 1, 55, 127
2, 117240, Note_on_c, 1, 58, 127
2, 117240, Note_off_c, 1, 61, 0
2, 117240, Note_off_c, 1, 66, 0
2, 117280, Note_off_c, 1, 32, 0
2, 117280, Note_on_c, 1, 51, 127
2, 117280, Note_off_c, 1, 52, 0
2, 117280, Note_off_c, 1, 55, 0
2, 117280, Note_on_c, 1, 56, 127
2, 117280, Note_off_c, 1, 58, 0
2, 117280, Note_on_c, 1, 59, 127
2, 117280, Note_on_c, 1, 62, 127
2, 117280, Note_on_c, 1, 68, 127
2, 117320, Note_off_c, 1, 51, 0
2, 117320, Note_off_c, 1, 56, 0
2, 117320, Note_on_c, 1, 57, 127
2, 117320, Note_off_c, 1, 59, 0
2, 117320, Note_off_c, 1, 62, 0
2, 117320, Note_on_c, 1, 65, 127
2, 117320, Note_off_c, 1, 68, 0
2, 117320, Note_on_c, 1, 86, 127
2, 117320, Note_on_c, 1, 98, 127
2, 117360, Note_off_c, 1, 57, 0
2, 117360, Note_on_c, 1, 58, 127
2, 117360, Note_on_c, 1, 64, 127
2, 117360, Note_off_c, 1, 65, 0
2, 117360, Note_on_c, 1, 73, 127
2, 117360, Note_on_c, 1, 79, 127
2, 117360, Note_off_c, 1, 86, 0
2, 117360, Note_off_c, 1, 98, 0
2, 117400, Note_on_c, 1, 50, 127
2, 117400, Note_on_c, 1, 67, 127
2, 117400, Note_off_c, 1, 73, 0
2, 117400, Note_off_c, 1, 79, 0
2, 117560, Note_off_c, 1, 50, 0
2, 117560, Note_on_c, 1, 55, 127
2, 117560, Note_off_c, 1, 64, 0
2, 117560, Note_off_c, 1, 67, 0
2, 117560, Note_on_c, 1, 72, 127
2, 117560, Note_on_c, 1, 79, 127
2, 117560, Note_on_c, 1, 84, 127
2, 117600, Note_on_c, 1, 50, 127
2, 117600, Note_off_c, 1, 55, 0
2, 117600, Note_on_c, 1, 64, 127
2, 117600, Note_on_c, 1, 67, 127
2, 117600, Note_off_c, 1, 72, 0
2, 117600, Note_off_c, 1, 79, 0
2, 117600, Note_off_c, 1, 84, 0
2, 118160, Note_off_c, 1, 50, 0
2, 118160, Note_off_c, 1, 58, 0
2, 118160, Note_off_c, 1, 64, 0
2, 118160, Note_off_c, 1, 67, 0
2, 118240, Note_on_c, 1, 42, 127
2, 118240, Note_on_c, 1, 57, 127
2, 118240, Note_on_c, 1, 61, 127
2, 118240, Note_on_c, 1, 63, 127
2, 120000, Note_off_c, 1, 42, 0
2, 120000, Note_off_c, 1, 57, 0
2, 120000, Note_off_c, 1, 61, 0
2, 120000, Note_off_c, 1, 63, 0
2, 120040, End_track
3, 0, Start_track
3, 0, Title_t, "MIDI"
3, 1536, End_track
0, 0, End_of_file
