0, 0, Header, 1, 3, 192
1, 0, Start_track
1, 0, Time_signature, 4, 2, 24, 8
1, 0, Tempo, 500000
1, 120040, End_track
2, 0, Start_track
2, 0, Text_t, "random instrument: random person i dunno whatev"
2, 0, Title_t, "Track 1"
2, 0, Note_on_c, 1, 58, 127
2, 0, Note_on_c, 1, 66, 127
2, 0, Note_on_c, 1, 78, 127
2, 0, Note_on_c, 1, 82, 127
2, 0, Note_on_c, 1, 90, 127
2, 40, Note_on_c, 1, 46, 127
2, 40, Note_off_c, 1, 66, 0
2, 40, Note_off_c, 1, 78, 0
2, 40, Note_on_c, 1, 86, 127
2, 40, Note_off_c, 1, 90, 0
2, 40, Note_on_c, 1, 94, 127
2, 80, Note_off_c, 1, 46, 0
2, 80, Note_off_c, 1, 58, 0
2, 80, Note_off_c, 1, 82, 0
2, 80, Note_off_c, 1, 86, 0
2, 80, Note_off_c, 1, 94, 0
2, 120, Note_on_c, 1, 58, 127
2, 120, Note_on_c, 1, 66, 127
2, 120, Note_on_c, 1, 78, 127
2, 120, Note_on_c, 1, 82, 127
2, 120, Note_on_c, 1, 90, 127
2, 360, Note_off_c, 1, 58, 0
2, 360, Note_off_c, 1, 66, 0
2, 360, Note_off_c, 1, 78, 0
2, 360, Note_off_c, 1, 82, 0
2, 360, Note_off_c, 1, 90, 0
2, 400, Note_on_c, 1, 51, 127
2, 400, Note_on_c, 1, 59, 127
2, 400, Note_on_c, 1, 71, 127
2, 400, Note_on_c, 1, 75, 127
2, 840, Note_off_c, 1, 51, 0
2, 840, Note_off_c, 1, 59, 0
2, 840, Note_off_c, 1, 71, 0
2, 840, Note_off_c, 1, 75, 0
2, 880, Note_on_c, 1, 44, 127
2, 880, Note_on_c, 1, 51, 127
2, 880, Note_on_c, 1, 63, 127
2, 880, Note_on_c, 1, 68, 127
2, 1640, Note_off_c, 1, 44, 0
2, 1640, Note_off_c, 1, 51, 0
2, 1640, Note_off_c, 1, 63, 0
2, 1640, Note_off_c, 1, 68, 0
2, 1680, Note_on_c, 1, 39, 127
2, 1680, Note_on_c, 1, 67, 127
2, 1680, Note_on_c, 1, 70, 127
2, 2040, Note_off_c, 1, 39, 0
2, 2040, Note_off_c, 1, 67, 0
2, 2040, Note_off_c, 1, 70, 0
2, 2080, Note_on_c, 1, 51, 127
2, 2080, Note_on_c, 1, 67, 127
2, 2240, Note_off_c, 1, 51, 0
2, 2240, Note_off_c, 1, 67, 0
2, 5240, Note_on_c, 1, 43, 127
2, 5240, Note_on_c, 1, 50, 127
2, 5240, Note_on_c, 1, 60, 127
2, 5240, Note_on_c, 1, 62, 127
2, 5240, Note_on_c, 1, 69, 127
2, 5600, Note_off_c, 1, 43, 0
2, 5600, Note_off_c, 1, 50, 0
2, 5600, Note_off_c, 1, 60, 0
2, 5600, Note_off_c, 1, 62, 0
2, 5600, Note_off_c, 1, 69, 0
2, 10640, Note_on_c, 1, 58, 127
2, 11200, Note_off_c, 1, 58, 0
2, 11240, Note_on_c, 1, 46, 127
2, 11600, Note_off_c, 1, 46, 0
2, 11640, Note_on_c, 1, 58, 127
2, 12000, Note_off_c, 1, 58, 0
2, 12040, Note_on_c, 1, 53, 127
2, 12400, Note_off_c, 1, 53, 0
2, 12480, Note_on_c, 1, 58, 127
2, 12840, Note_off_c, 1, 58, 0
2, 12880, Note_on_c, 1, 46, 127
2, 13240, Note_off_c, 1, 46, 0
2, 13280, Note_on_c, 1, 46, 127
2, 13280, Note_on_c, 1, 58, 127
2, 13280, Note_on_c, 1, 62, 127
2, 14000, Note_off_c, 1, 46, 0
2, 14000, Note_off_c, 1, 58, 0
2, 14000, Note_off_c, 1, 62, 0
2, 18240, Note_on_c, 1, 40, 127
2, 18240, Note_on_c, 1, 52, 127
2, 18240, Note_on_c, 1, 64, 127
2, 18600, Note_off_c, 1, 40, 0
2, 18600, Note_off_c, 1, 52, 0
2, 18600, Note_off_c, 1, 64, 0
2, 18640, Note_on_c, 1, 33, 127
2, 18640, Note_on_c, 1, 57, 127
2, 19600, Note_off_c, 1, 33, 0
2, 19600, Note_off_c, 1, 57, 0
2, 19640, Note_on_c, 1, 33, 127
2, 19640, Note_on_c, 1, 57, 127
2, 19680, Note_off_c, 1, 57, 0
2, 19680, Note_on_c, 1, 64, 127
2, 19840, Note_off_c, 1, 33, 0
2, 21040, Note_off_c, 1, 64, 0
2, 21080, Note_on_c, 1, 35, 127
2, 21080, Note_on_c, 1, 45, 127
2, 21120, Note_off_c, 1, 35, 0
2, 21120, Note_on_c, 1, 40, 127
2, 21120, Note_off_c, 1, 45, 0
2, 21120, Note_on_c, 1, 72, 127
2, 21120, Note_on_c, 1, 76, 127
2, 21600, Note_off_c, 1, 40, 0
2, 21600, Note_off_c, 1, 72, 0
2, 21600, Note_off_c, 1, 76, 0
2, 21640, Note_on_c, 1, 40, 127
2, 21640, Note_on_c, 1, 72, 127
2, 21640, Note_on_c, 1, 76, 127
2, 21880, Note_off_c, 1, 40, 0
2, 21880, Note_off_c, 1, 72, 0
2, 21880, Note_off_c, 1, 76, 0
2, 21920, Note_on_c, 1, 31, 127
2, 21920, Note_on_c, 1, 43, 127
2, 21920, Note_on_c, 1, 71, 127
2, 22880, Note_off_c, 1, 71, 0
2, 22920, Note_on_c, 1, 71, 127
2, 23000, Note_on_c, 1, 52, 127
2, 23000, Note_on_c, 1, 64, 127
2, 23000, Note_off_c, 1, 71, 0
2, 23040, Note_off_c, 1, 52, 0
2, 23040, Note_off_c, 1, 64, 0
2, 23040, Note_on_c, 1, 71, 127
2, 23640, Note_off_c, 1, 31, 0
2, 23640, Note_off_c, 1, 43, 0
2, 23640, Note_off_c, 1, 71, 0
2, 23680, Note_on_c, 1, 31, 127
2, 23680, Note_on_c, 1, 43, 127
2, 23680, Note_on_c, 1, 71, 127
2, 23840, Note_off_c, 1, 71, 0
2, 23840, Note_on_c, 1, 74, 127
2, 23840, Note_on_c, 1, 79, 127
2, 23880, Note_off_c, 1, 79, 0
2, 23920, Note_on_c, 1, 71, 127
2, 23920, Note_off_c, 1, 74, 0
2, 24120, Note_off_c, 1, 71, 0
2, 24160, Note_on_c, 1, 71, 127
2, 25080, Note_off_c, 1, 71, 0
2, 25120, Note_on_c, 1, 59, 127
2, 25880, Note_off_c, 1, 31, 0
2, 25880, Note_off_c, 1, 43, 0
2, 25880, Note_off_c, 1, 59, 0
2, 25920, Note_on_c, 1, 31, 127
2, 25920, Note_on_c, 1, 43, 127
2, 25920, Note_on_c, 1, 59, 127
2, 27120, Note_off_c, 1, 59, 0
2, 27160, Note_on_c, 1, 59, 127
2, 28160, Note_off_c, 1, 31, 0
2, 28160, Note_off_c, 1, 43, 0
2, 28160, Note_off_c, 1, 59, 0
2, 28200, Note_on_c, 1, 31, 127
2, 28200, Note_on_c, 1, 43, 127
2, 28200, Note_on_c, 1, 59, 127
2, 28760, Note_off_c, 1, 31, 0
2, 28760, Note_off_c, 1, 43, 0
2, 28760, Note_off_c, 1, 59, 0
2, 28800, Note_on_c, 1, 31, 127
2, 28800, Note_on_c, 1, 43, 127
2, 28800, Note_on_c, 1, 59, 127
2, 29960, Note_off_c, 1, 31, 0
2, 29960, Note_off_c, 1, 43, 0
2, 29960, Note_off_c, 1, 59, 0
2, 30040, Note_on_c, 1, 39, 127
2, 30040, Note_on_c, 1, 63, 127
2, 31880, Note_off_c, 1, 63, 0
2, 31920, Note_off_c, 1, 39, 0
2, 31960, Note_on_c, 1, 39, 127
2, 31960, Note_on_c, 1, 63, 127
2, 34440, Note_off_c, 1, 39, 0
2, 34440, Note_off_c, 1, 63, 0
2, 34480, Note_on_c, 1, 39, 127
2, 34480, Note_on_c, 1, 63, 127
2, 35880, Note_off_c, 1, 39, 0
2, 35880, Note_off_c, 1, 63, 0
2, 35920, Note_on_c, 1, 44, 127
2, 35920, Note_on_c, 1, 68, 127
2, 36680, Note_off_c, 1, 44, 0
2, 36680, Note_off_c, 1, 68, 0
2, 36720, Note_on_c, 1, 44, 127
2, 36720, Note_on_c, 1, 68, 127
2, 38880, Note_off_c, 1, 44, 0
2, 38880, Note_off_c, 1, 68, 0
2, 38920, Note_on_c, 1, 44, 127
2, 38920, Note_on_c, 1, 68, 127
2, 40960, Note_off_c, 1, 44, 0
2, 40960, Note_off_c, 1, 68, 0
2, 41000, Note_on_c, 1, 44, 127
2, 41000, Note_on_c, 1, 68, 127
2, 43240, Note_off_c, 1, 44, 0
2, 43240, Note_off_c, 1, 68, 0
2, 43320, Note_on_c, 1, 44, 127
2, 43320, Note_on_c, 1, 68, 127
2, 45440, Note_off_c, 1, 44, 0
2, 45440, Note_off_c, 1, 68, 0
2, 45480, Note_on_c, 1, 44, 127
2, 45480, Note_on_c, 1, 68, 127
2, 47640, Note_off_c, 1, 44, 0
2, 47640, Note_off_c, 1, 68, 0
2, 47680, Note_on_c, 1, 44, 127
2, 47680, Note_on_c, 1, 68, 127
2, 49400, Note_off_c, 1, 44, 0
2, 49400, Note_on_c, 1, 56, 127
2, 49400, Note_off_c, 1, 68, 0
2, 49400, Note_on_c, 1, 80, 127
2, 49880, Note_off_c, 1, 56, 0
2, 49880, Note_off_c, 1, 80, 0
2, 49920, Note_on_c, 1, 56, 127
2, 49920, Note_on_c, 1, 80, 127
2, 51960, Note_off_c, 1, 56, 0
2, 51960, Note_off_c, 1, 80, 0
2, 52040, Note_on_c, 1, 44, 127
2, 53000, Note_off_c, 1, 44, 0
2, 54920, Note_on_c, 1, 52, 127
2, 55320, Note_off_c, 1, 52, 0
2, 55360, Note_on_c, 1, 60, 127
2, 56760, Note_off_c, 1, 60, 0
2, 56800, Note_on_c, 1, 60, 127
2, 59040, Note_off_c, 1, 60, 0
2, 59040, Note_on_c, 1, 61, 127
2, 59080, Note_off_c, 1, 61, 0
2, 59080, Note_on_c, 1, 62, 127
2, 59160, Note_off_c, 1, 62, 0
2, 59200, Note_on_c, 1, 62, 127
2, 59760, Note_off_c, 1, 62, 0
2, 59760, Note_on_c, 1, 63, 127
2, 61880, Note_off_c, 1, 63, 0
2, 61920, Note_on_c, 1, 63, 127
2, 62720, Note_on_c, 1, 60, 127
2, 62720, Note_off_c, 1, 63, 0
2, 63120, Note_off_c, 1, 60, 0
2, 63160, Note_on_c, 1, 63, 127
2, 64280, Note_off_c, 1, 63, 0
2, 64320, Note_on_c, 1, 63, 127
2, 66360, Note_off_c, 1, 63, 0
2, 66400, Note_on_c, 1, 63, 127
2, 68520, Note_off_c, 1, 63, 0
2, 68560, Note_on_c, 1, 63, 127
2, 70200, Note_off_c, 1, 63, 0
2, 70240, Note_on_c, 1, 60, 127
2, 70640, Note_off_c, 1, 60, 0
2, 70680, Note_on_c, 1, 60, 127
2, 71040, Note_off_c, 1, 60, 0
2, 71080, Note_on_c, 1, 58, 127
2, 71480, Note_on_c, 1, 63, 127
2, 71480, Note_on_c, 1, 67, 127
2, 72640, Note_off_c, 1, 58, 0
2, 72640, Note_off_c, 1, 63, 0
2, 72640, Note_off_c, 1, 67, 0
2, 72680, Note_on_c, 1, 53, 127
2, 72680, Note_on_c, 1, 58, 127
2, 72680, Note_on_c, 1, 62, 127
2, 72680, Note_on_c, 1, 65, 127
2, 73080, Note_off_c, 1, 53, 0
2, 73080, Note_off_c, 1, 58, 0
2, 73080, Note_off_c, 1, 62, 0
2, 73080, Note_off_c, 1, 65, 0
2, 73120, Note_on_c, 1, 53, 127
2, 73120, Note_on_c, 1, 58, 127
2, 73120, Note_on_c, 1, 62, 127
2, 73120, Note_on_c, 1, 65, 127
2, 74720, Note_off_c, 1, 53, 0
2, 74720, Note_on_c, 1, 55, 127
2, 74720, Note_off_c, 1, 65, 0
2, 74720, Note_on_c, 1, 67, 127
2, 74720, Note_on_c, 1, 70, 127
2, 74920, Note_off_c, 1, 67, 0
2, 74920, Note_off_c, 1, 70, 0
2, 75040, Note_off_c, 1, 55, 0
2, 75040, Note_off_c, 1, 58, 0
2, 75040, Note_off_c, 1, 62, 0
2, 75080, Note_on_c, 1, 55, 127
2, 75080, Note_on_c, 1, 58, 127
2, 75080, Note_on_c, 1, 62, 127
2, 76400, Note_off_c, 1, 55, 0
2, 76400, Note_off_c, 1, 58, 0
2, 76400, Note_off_c, 1, 62, 0
2, 78120, Note_on_c, 1, 34, 127
2, 78120, Note_on_c, 1, 46, 127
2, 78120, Note_on_c, 1, 58, 127
2, 81040, Note_off_c, 1, 34, 0
2, 81040, Note_off_c, 1, 46, 0
2, 81040, Note_off_c, 1, 58, 0
2, 81080, Note_on_c, 1, 34, 127
2, 81080, Note_on_c, 1, 46, 127
2, 81080, Note_on_c, 1, 58, 127
2, 81480, Note_off_c, 1, 34, 0
2, 81480, Note_off_c, 1, 46, 0
2, 81480, Note_off_c, 1, 58, 0
2, 82360, Note_on_c, 1, 46, 127
2, 82360, Note_on_c, 1, 70, 127
2, 82800, Note_off_c, 1, 46, 0
2, 82800, Note_off_c, 1, 70, 0
2, 82840, Note_on_c, 1, 46, 127
2, 82840, Note_on_c, 1, 70, 127
2, 83280, Note_off_c, 1, 46, 0
2, 83280, Note_off_c, 1, 70, 0
2, 83320, Note_on_c, 1, 39, 127
2, 83320, Note_on_c, 1, 78, 127
2, 84360, Note_off_c, 1, 39, 0
2, 84360, Note_off_c, 1, 78, 0
2, 84400, Note_on_c, 1, 39, 127
2, 84400, Note_on_c, 1, 78, 127
2, 84560, Note_off_c, 1, 39, 0
2, 84560, Note_off_c, 1, 78, 0
2, 84600, Note_on_c, 1, 47, 127
2, 84600, Note_on_c, 1, 75, 127
2, 85520, Note_off_c, 1, 47, 0
2, 85520, Note_off_c, 1, 75, 0
2, 85560, Note_on_c, 1, 42, 127
2, 85560, Note_on_c, 1, 73, 127
2, 86120, Note_off_c, 1, 42, 0
2, 86120, Note_off_c, 1, 73, 0
2, 86160, Note_on_c, 1, 42, 127
2, 86160, Note_on_c, 1, 70, 127
2, 86160, Note_on_c, 1, 73, 127
2, 86520, Note_off_c, 1, 42, 0
2, 86520, Note_off_c, 1, 70, 0
2, 86520, Note_off_c, 1, 73, 0
2, 86560, Note_on_c, 1, 42, 127
2, 86560, Note_on_c, 1, 70, 127
2, 86560, Note_on_c, 1, 73, 127
2, 88000, Note_off_c, 1, 70, 0
2, 88000, Note_off_c, 1, 73, 0
2, 88040, Note_on_c, 1, 75, 127
2, 88560, Note_off_c, 1, 42, 0
2, 88560, Note_off_c, 1, 75, 0
2, 88600, Note_on_c, 1, 42, 127
2, 88600, Note_on_c, 1, 75, 127
2, 88640, Note_off_c, 1, 42, 0
2, 88680, Note_on_c, 1, 37, 127
2, 88680, Note_on_c, 1, 74, 127
2, 88680, Note_off_c, 1, 75, 0
2, 89240, Note_off_c, 1, 37, 0
2, 89240, Note_off_c, 1, 74, 0
2, 89280, Note_on_c, 1, 35, 127
2, 89280, Note_on_c, 1, 73, 127
2, 90200, Note_off_c, 1, 35, 0
2, 90200, Note_off_c, 1, 73, 0
2, 90240, Note_on_c, 1, 42, 127
2, 90240, Note_on_c, 1, 73, 127
2, 90640, Note_off_c, 1, 42, 0
2, 90640, Note_off_c, 1, 73, 0
2, 90680, Note_on_c, 1, 42, 127
2, 90680, Note_on_c, 1, 73, 127
2, 90840, Note_off_c, 1, 42, 0
2, 90840, Note_off_c, 1, 73, 0
2, 90880, Note_on_c, 1, 42, 127
2, 90880, Note_on_c, 1, 73, 127
2, 91440, Note_off_c, 1, 42, 0
2, 91440, Note_off_c, 1, 73, 0
2, 91480, Note_on_c, 1, 42, 127
2, 91480, Note_on_c, 1, 73, 127
2, 92040, Note_off_c, 1, 42, 0
2, 92040, Note_off_c, 1, 73, 0
2, 92080, Note_on_c, 1, 42, 127
2, 92080, Note_on_c, 1, 76, 127
2, 92640, Note_off_c, 1, 42, 0
2, 92640, Note_off_c, 1, 76, 0
2, 92720, Note_on_c, 1, 42, 127
2, 92720, Note_on_c, 1, 76, 127
2, 93240, Note_off_c, 1, 42, 0
2, 93280, Note_on_c, 1, 58, 127
2, 93640, Note_off_c, 1, 58, 0
2, 93640, Note_off_c, 1, 76, 0
2, 93680, Note_on_c, 1, 42, 127
2, 93680, Note_on_c, 1, 76, 127
2, 94040, Note_off_c, 1, 42, 0
2, 94080, Note_on_c, 1, 42, 127
2, 94480, Note_off_c, 1, 42, 0
2, 94480, Note_off_c, 1, 76, 0
2, 94520, Note_on_c, 1, 42, 127
2, 94520, Note_on_c, 1, 76, 127
2, 94880, Note_off_c, 1, 42, 0
2, 94920, Note_off_c, 1, 76, 0
2, 94960, Note_on_c, 1, 49, 127
2, 94960, Note_on_c, 1, 76, 127
2, 95320, Note_off_c, 1, 49, 0
2, 95360, Note_on_c, 1, 58, 127
2, 95720, Note_off_c, 1, 58, 0
2, 95720, Note_off_c, 1, 76, 0
2, 95760, Note_on_c, 1, 37, 127
2, 95760, Note_on_c, 1, 65, 127
2, 96560, Note_off_c, 1, 37, 0
2, 96560, Note_off_c, 1, 65, 0
2, 96600, Note_on_c, 1, 68, 127
2, 97000, Note_off_c, 1, 68, 0
2, 97040, Note_on_c, 1, 47, 127
2, 97040, Note_on_c, 1, 68, 127
2, 97200, Note_off_c, 1, 47, 0
2, 97240, Note_on_c, 1, 54, 127
2, 97600, Note_off_c, 1, 54, 0
2, 97600, Note_off_c, 1, 68, 0
2, 97640, Note_on_c, 1, 54, 127
2, 97640, Note_on_c, 1, 70, 127
2, 98040, Note_off_c, 1, 54, 0
2, 98040, Note_off_c, 1, 70, 0
2, 98080, Note_on_c, 1, 67, 127
2, 98640, Note_off_c, 1, 67, 0
2, 98680, Note_on_c, 1, 49, 127
2, 98680, Note_on_c, 1, 64, 127
2, 99080, Note_off_c, 1, 49, 0
2, 99080, Note_off_c, 1, 64, 0
2, 99120, Note_on_c, 1, 42, 127
2, 99120, Note_on_c, 1, 70, 127
2, 99480, Note_off_c, 1, 42, 0
2, 99480, Note_off_c, 1, 70, 0
2, 99520, Note_on_c, 1, 70, 127
2, 99560, Note_on_c, 1, 49, 127
2, 99560, Note_off_c, 1, 70, 0
2, 99560, Note_on_c, 1, 73, 127
2, 99920, Note_off_c, 1, 49, 0
2, 99960, Note_on_c, 1, 58, 127
2, 100720, Note_off_c, 1, 73, 0
2, 100760, Note_on_c, 1, 75, 127
2, 101560, Note_off_c, 1, 58, 0
2, 101560, Note_off_c, 1, 75, 0
2, 101600, Note_on_c, 1, 56, 127
2, 101600, Note_on_c, 1, 65, 127
2, 101600, Note_on_c, 1, 73, 127
2, 101880, Note_off_c, 1, 56, 0
2, 101880, Note_off_c, 1, 65, 0
2, 101880, Note_off_c, 1, 73, 0
2, 101920, Note_on_c, 1, 56, 127
2, 101920, Note_on_c, 1, 65, 127
2, 101920, Note_on_c, 1, 73, 127
2, 102000, Note_off_c, 1, 56, 0
2, 102000, Note_off_c, 1, 65, 0
2, 102000, Note_off_c, 1, 73, 0
2, 102040, Note_on_c, 1, 46, 127
2, 102040, Note_on_c, 1, 53, 127
2, 102040, Note_on_c, 1, 57, 127
2, 102040, Note_on_c, 1, 65, 127
2, 102040, Note_on_c, 1, 75, 127
2, 102400, Note_off_c, 1, 65, 0
2, 102440, Note_on_c, 1, 65, 127
2, 102640, Note_off_c, 1, 65, 0
2, 102680, Note_on_c, 1, 65, 127
2, 102760, Note_on_c, 1, 63, 127
2, 102760, Note_off_c, 1, 65, 0
2, 102800, Note_off_c, 1, 63, 0
2, 102840, Note_on_c, 1, 65, 127
2, 103120, Note_off_c, 1, 65, 0
2, 103160, Note_on_c, 1, 65, 127
2, 104080, Note_off_c, 1, 65, 0
2, 104120, Note_off_c, 1, 46, 0
2, 104120, Note_off_c, 1, 53, 0
2, 104120, Note_off_c, 1, 57, 0
2, 104120, Note_off_c, 1, 75, 0
2, 104160, Note_on_c, 1, 46, 127
2, 104160, Note_on_c, 1, 53, 127
2, 104160, Note_on_c, 1, 57, 127
2, 104160, Note_on_c, 1, 65, 127
2, 104160, Note_on_c, 1, 75, 127
2, 104920, Note_off_c, 1, 65, 0
2, 104960, Note_on_c, 1, 65, 127
2, 105320, Note_off_c, 1, 65, 0
2, 105360, Note_on_c, 1, 65, 127
2, 105520, Note_on_c, 1, 63, 127
2, 105520, Note_off_c, 1, 65, 0
2, 105560, Note_off_c, 1, 63, 0
2, 105560, Note_on_c, 1, 65, 127
2, 106520, Note_off_c, 1, 46, 0
2, 106520, Note_off_c, 1, 53, 0
2, 106520, Note_off_c, 1, 57, 0
2, 106520, Note_off_c, 1, 65, 0
2, 106520, Note_off_c, 1, 75, 0
2, 106560, Note_on_c, 1, 46, 127
2, 106560, Note_on_c, 1, 53, 127
2, 106560, Note_on_c, 1, 57, 127
2, 106560, Note_on_c, 1, 65, 127
2, 106560, Note_on_c, 1, 75, 127
2, 106800, Note_off_c, 1, 65, 0
2, 106840, Note_on_c, 1, 65, 127
2, 106960, Note_off_c, 1, 65, 0
2, 107000, Note_on_c, 1, 63, 127
2, 107360, Note_off_c, 1, 63, 0
2, 107360, Note_on_c, 1, 65, 127
2, 107760, Note_off_c, 1, 65, 0
2, 107800, Note_on_c, 1, 65, 127
2, 108160, Note_off_c, 1, 65, 0
2, 108200, Note_on_c, 1, 65, 127
2, 108240, Note_on_c, 1, 63, 127
2, 108240, Note_off_c, 1, 65, 0
2, 108280, Note_off_c, 1, 63, 0
2, 108280, Note_on_c, 1, 65, 127
2, 108560, Note_off_c, 1, 65, 0
2, 108600, Note_on_c, 1, 65, 127
2, 108720, Note_off_c, 1, 46, 0
2, 108720, Note_off_c, 1, 53, 0
2, 108720, Note_off_c, 1, 57, 0
2, 108720, Note_off_c, 1, 65, 0
2, 108720, Note_off_c, 1, 75, 0
2, 108760, Note_on_c, 1, 46, 127
2, 108760, Note_on_c, 1, 53, 127
2, 108760, Note_on_c, 1, 57, 127
2, 108760, Note_on_c, 1, 65, 127
2, 108760, Note_on_c, 1, 75, 127
2, 108840, Note_off_c, 1, 65, 0
2, 108880, Note_on_c, 1, 65, 127
2, 109000, Note_off_c, 1, 65, 0
2, 109040, Note_on_c, 1, 65, 127
2, 109400, Note_off_c, 1, 65, 0
2, 109440, Note_on_c, 1, 63, 127
2, 109480, Note_off_c, 1, 63, 0
2, 109520, Note_on_c, 1, 63, 127
2, 109560, Note_off_c, 1, 63, 0
2, 109600, Note_on_c, 1, 63, 127
2, 109640, Note_off_c, 1, 63, 0
2, 109680, Note_on_c, 1, 65, 127
2, 109800, Note_off_c, 1, 65, 0
2, 109840, Note_on_c, 1, 65, 127
2, 110200, Note_off_c, 1, 65, 0
2, 110240, Note_on_c, 1, 63, 127
2, 110400, Note_off_c, 1, 63, 0
2, 110440, Note_on_c, 1, 63, 127
2, 110600, Note_off_c, 1, 63, 0
2, 110640, Note_on_c, 1, 65, 127
2, 111000, Note_off_c, 1, 65, 0
2, 111040, Note_off_c, 1, 46, 0
2, 111040, Note_off_c, 1, 53, 0
2, 111040, Note_off_c, 1, 57, 0
2, 111040, Note_off_c, 1, 75, 0
2, 111080, Note_on_c, 1, 46, 127
2, 111080, Note_on_c, 1, 53, 127
2, 111080, Note_on_c, 1, 57, 127
2, 111080, Note_on_c, 1, 65, 127
2, 111080, Note_on_c, 1, 75, 127
2, 111240, Note_off_c, 1, 65, 0
2, 111280, Note_on_c, 1, 65, 127
2, 111440, Note_off_c, 1, 65, 0
2, 111480, Note_on_c, 1, 65, 127
2, 111840, Note_off_c, 1, 65, 0
2, 112000, Note_on_c, 1, 65, 127
2, 112040, Note_off_c, 1, 65, 0
2, 112080, Note_on_c, 1, 65, 127
2, 112120, Note_off_c, 1, 65, 0
2, 112160, Note_on_c, 1, 65, 127
2, 112200, Note_off_c, 1, 65, 0
2, 112280, Note_on_c, 1, 65, 127
2, 112400, Note_on_c, 1, 63, 127
2, 112400, Note_off_c, 1, 65, 0
2, 112440, Note_off_c, 1, 63, 0
2, 112480, Note_on_c, 1, 63, 127
2, 112520, Note_off_c, 1, 63, 0
2, 112520, Note_on_c, 1, 65, 127
2, 112560, Note_on_c, 1, 63, 127
2, 112560, Note_off_c, 1, 65, 0
2, 112600, Note_off_c, 1, 63, 0
2, 112680, Note_on_c, 1, 65, 127
2, 112720, Note_off_c, 1, 65, 0
2, 112760, Note_on_c, 1, 65, 127
2, 112800, Note_off_c, 1, 65, 0
2, 112880, Note_on_c, 1, 65, 127
2, 112920, Note_on_c, 1, 63, 127
2, 112920, Note_off_c, 1, 65, 0
2, 112960, Note_off_c, 1, 63, 0
2, 112960, Note_on_c, 1, 65, 127
2, 113040, Note_off_c, 1, 65, 0
2, 113080, Note_on_c, 1, 65, 127
2, 113280, Note_off_c, 1, 46, 0
2, 113280, Note_off_c, 1, 53, 0
2, 113280, Note_off_c, 1, 57, 0
2, 113280, Note_off_c, 1, 65, 0
2, 113280, Note_off_c, 1, 75, 0
2, 113320, Note_on_c, 1, 46, 127
2, 113320, Note_on_c, 1, 53, 127
2, 113320, Note_on_c, 1, 57, 127
2, 113320, Note_on_c, 1, 65, 127
2, 113320, Note_on_c, 1, 75, 127
2, 113480, Note_off_c, 1, 65, 0
2, 113520, Note_on_c, 1, 65, 127
2, 113560, Note_off_c, 1, 65, 0
2, 113600, Note_on_c, 1, 65, 127
2, 113680, Note_off_c, 1, 65, 0
2, 113720, Note_on_c, 1, 65, 127
2, 113880, Note_off_c, 1, 65, 0
2, 113920, Note_on_c, 1, 65, 127
2, 114280, Note_off_c, 1, 57, 0
2, 114280, Note_off_c, 1, 65, 0
2, 114280, Note_off_c, 1, 75, 0
2, 114320, Note_on_c, 1, 57, 127
2, 114320, Note_on_c, 1, 65, 127
2, 114320, Note_on_c, 1, 75, 127
2, 114520, Note_off_c, 1, 65, 0
2, 114560, Note_on_c, 1, 65, 127
2, 114880, Note_on_c, 1, 63, 127
2, 114880, Note_off_c, 1, 65, 0
2, 114920, Note_off_c, 1, 63, 0
2, 114920, Note_on_c, 1, 65, 127
2, 115080, Note_off_c, 1, 65, 0
2, 115120, Note_on_c, 1, 63, 127
2, 115160, Note_off_c, 1, 63, 0
2, 115160, Note_on_c, 1, 65, 127
2, 115320, Note_on_c, 1, 63, 127
2, 115320, Note_off_c, 1, 65, 0
2, 115360, Note_off_c, 1, 63, 0
2, 115400, Note_on_c, 1, 65, 127
2, 115520, Note_off_c, 1, 46, 0
2, 115520, Note_off_c, 1, 53, 0
2, 115520, Note_off_c, 1, 57, 0
2, 115520, Note_off_c, 1, 65, 0
2, 115520, Note_off_c, 1, 75, 0
2, 115560, Note_on_c, 1, 46, 127
2, 115560, Note_on_c, 1, 53, 127
2, 115560, Note_on_c, 1, 57, 127
2, 115560, Note_on_c, 1, 75, 127
2, 116000, Note_on_c, 1, 63, 127
2, 116160, Note_off_c, 1, 63, 0
2, 116200, Note_on_c, 1, 63, 127
2, 116280, Note_off_c, 1, 63, 0
2, 116280, Note_on_c, 1, 65, 127
2, 116320, Note_off_c, 1, 65, 0
2, 116400, Note_on_c, 1, 65, 127
2, 116520, Note_on_c, 1, 63, 127
2, 116520, Note_off_c, 1, 65, 0
2, 116560, Note_off_c, 1, 63, 0
2, 116560, Note_on_c, 1, 65, 127
2, 116760, Note_off_c, 1, 65, 0
2, 116800, Note_on_c, 1, 65, 127
2, 116840, Note_off_c, 1, 65, 0
2, 116880, Note_on_c, 1, 65, 127
2, 116960, Note_off_c, 1, 65, 0
2, 117200, Note_on_c, 1, 65, 127
2, 117320, Note_off_c, 1, 65, 0
2, 117400, Note_on_c, 1, 63, 127
2, 117560, Note_off_c, 1, 63, 0
2, 117600, Note_on_c, 1, 65, 127
2, 117800, Note_off_c, 1, 46, 0
2, 117800, Note_off_c, 1, 53, 0
2, 117800, Note_off_c, 1, 57, 0
2, 117800, Note_off_c, 1, 65, 0
2, 117800, Note_off_c, 1, 75, 0
2, 117840, Note_on_c, 1, 46, 127
2, 117840, Note_on_c, 1, 53, 127
2, 117840, Note_on_c, 1, 57, 127
2, 117840, Note_on_c, 1, 65, 127
2, 117840, Note_on_c, 1, 75, 127
2, 118160, Note_off_c, 1, 65, 0
2, 118240, Note_on_c, 1, 65, 127
2, 118360, Note_off_c, 1, 65, 0
2, 118400, Note_on_c, 1, 65, 127
2, 118480, Note_on_c, 1, 63, 127
2, 118480, Note_off_c, 1, 65, 0
2, 118520, Note_off_c, 1, 63, 0
2, 118520, Note_on_c, 1, 65, 127
2, 118760, Note_off_c, 1, 65, 0
2, 118800, Note_on_c, 1, 65, 127
2, 119160, Note_off_c, 1, 65, 0
2, 119200, Note_on_c, 1, 65, 127
2, 119560, Note_off_c, 1, 65, 0
2, 119600, Note_on_c, 1, 65, 127
2, 119920, Note_off_c, 1, 65, 0
2, 119960, Note_on_c, 1, 65, 127
2, 120000, Note_off_c, 1, 46, 0
2, 120000, Note_off_c, 1, 53, 0
2, 120000, Note_off_c, 1, 57, 0
2, 120000, Note_off_c, 1, 65, 0
2, 120000, Note_off_c, 1, 75, 0
2, 120040, End_track
3, 0, Start_track
3, 0, Title_t, "MIDI"
3, 1536, End_track
0, 0, End_of_file
