0, 0, Header, 1, 3, 192
1, 0, Start_track
1, 0, Time_signature, 4, 2, 24, 8
1, 0, Tempo, 500000
1, 120040, End_track
2, 0, Start_track
2, 0, Text_t, "random instrument: random person i dunno whatev"
2, 0, Title_t, "Track 1"
2, 0, Note_on_c, 1, 58, 127
2, 0, Note_on_c, 1, 66, 127
2, 0, Note_on_c, 1, 78, 127
2, 0, Note_on_c, 1, 82, 127
2, 0, Note_on_c, 1, 90, 127
2, 40, Note_on_c, 1, 46, 127
2, 40, Note_off_c, 1, 66, 0
2, 40, Note_off_c, 1, 78, 0
2, 40, Note_on_c, 1, 86, 127
2, 40, Note_off_c, 1, 90, 0
2, 40, Note_on_c, 1, 94, 127
2, 80, Note_off_c, 1, 46, 0
2, 80, Note_off_c, 1, 58, 0
2, 80, Note_off_c, 1, 82, 0
2, 80, Note_off_c, 1, 86, 0
2, 80, Note_off_c, 1, 94, 0
2, 120, Note_on_c, 1, 47, 127
2, 120, Note_on_c, 1, 58, 127
2, 120, Note_on_c, 1, 62, 127
2, 120, Note_on_c, 1, 66, 127
2, 120, Note_on_c, 1, 70, 127
2, 120, Note_on_c, 1, 74, 127
2, 160, Note_off_c, 1, 47, 0
2, 160, Note_on_c, 1, 53, 127
2, 160, Note_off_c, 1, 58, 0
2, 160, Note_off_c, 1, 62, 0
2, 160, Note_off_c, 1, 66, 0
2, 160, Note_off_c, 1, 70, 0
2, 160, Note_off_c, 1, 74, 0
2, 160, Note_on_c, 1, 77, 127
2, 160, Note_on_c, 1, 85, 127
2, 200, Note_off_c, 1, 53, 0
2, 200, Note_on_c, 1, 74, 127
2, 200, Note_off_c, 1, 77, 0
2, 200, Note_on_c, 1, 83, 127
2, 200, Note_off_c, 1, 85, 0
2, 200, Note_on_c, 1, 95, 127
2, 240, Note_on_c, 1, 51, 127
2, 240, Note_on_c, 1, 55, 127
2, 240, Note_on_c, 1, 58, 127
2, 240, Note_on_c, 1, 63, 127
2, 240, Note_off_c, 1, 74, 0
2, 240, Note_on_c, 1, 82, 127
2, 240, Note_off_c, 1, 83, 0
2, 240, Note_on_c, 1, 91, 127
2, 240, Note_off_c, 1, 95, 0
2, 280, Note_off_c, 1, 51, 0
2, 280, Note_off_c, 1, 55, 0
2, 280, Note_off_c, 1, 63, 0
2, 280, Note_on_c, 1, 66, 127
2, 280, Note_on_c, 1, 78, 127
2, 280, Note_on_c, 1, 90, 127
2, 280, Note_off_c, 1, 91, 0
2, 320, Note_off_c, 1, 58, 0
2, 320, Note_off_c, 1, 66, 0
2, 320, Note_on_c, 1, 71, 127
2, 320, Note_on_c, 1, 74, 127
2, 320, Note_off_c, 1, 78, 0
2, 320, Note_on_c, 1, 87, 127
2, 320, Note_off_c, 1, 90, 0
2, 360, Note_on_c, 1, 51, 127
2, 360, Note_on_c, 1, 59, 127
2, 360, Note_on_c, 1, 66, 127
2, 360, Note_on_c, 1, 69, 127
2, 360, Note_off_c, 1, 71, 0
2, 360, Note_off_c, 1, 74, 0
2, 360, Note_on_c, 1, 75, 127
2, 360, Note_off_c, 1, 82, 0
2, 360, Note_on_c, 1, 85, 127
2, 360, Note_off_c, 1, 87, 0
2, 400, Note_off_c, 1, 66, 0
2, 400, Note_off_c, 1, 69, 0
2, 400, Note_on_c, 1, 71, 127
2, 400, Note_off_c, 1, 85, 0
2, 560, Note_on_c, 1, 55, 127
2, 560, Note_off_c, 1, 59, 0
2, 560, Note_off_c, 1, 75, 0
2, 600, Note_off_c, 1, 55, 0
2, 600, Note_on_c, 1, 59, 127
2, 600, Note_on_c, 1, 75, 127
2, 1000, Note_off_c, 1, 51, 0
2, 1000, Note_off_c, 1, 59, 0
2, 1000, Note_off_c, 1, 71, 0
2, 1000, Note_off_c, 1, 75, 0
2, 1040, Note_on_c, 1, 50, 127
2, 1040, Note_on_c, 1, 68, 127
2, 1040, Note_on_c, 1, 71, 127
2, 2240, Note_off_c, 1, 50, 0
2, 2240, Note_off_c, 1, 68, 0
2, 2240, Note_off_c, 1, 71, 0
2, 2320, Note_on_c, 1, 51, 127
2, 2320, Note_on_c, 1, 61, 127
2, 2320, Note_on_c, 1, 67, 127
2, 2320, Note_on_c, 1, 70, 127
2, 2880, Note_off_c, 1, 70, 0
2, 2920, Note_on_c, 1, 73, 127
2, 4080, Note_off_c, 1, 51, 0
2, 4080, Note_off_c, 1, 61, 0
2, 4080, Note_off_c, 1, 67, 0
2, 4080, Note_off_c, 1, 73, 0
2, 4120, Note_on_c, 1, 44, 127
2, 4120, Note_on_c, 1, 59, 127
2, 4120, Note_on_c, 1, 63, 127
2, 4120, Note_on_c, 1, 68, 127
2, 4560, Note_off_c, 1, 44, 0
2, 4560, Note_off_c, 1, 59, 0
2, 4560, Note_off_c, 1, 63, 0
2, 4560, Note_off_c, 1, 68, 0
2, 4600, Note_on_c, 1, 44, 127
2, 4600, Note_on_c, 1, 59, 127
2, 4600, Note_on_c, 1, 63, 127
2, 4600, Note_on_c, 1, 68, 127
2, 4720, Note_off_c, 1, 59, 0
2, 4720, Note_off_c, 1, 63, 0
2, 4720, Note_off_c, 1, 68, 0
2, 4760, Note_on_c, 1, 59, 127
2, 4760, Note_on_c, 1, 63, 127
2, 4760, Note_on_c, 1, 68, 127
2, 5960, Note_off_c, 1, 44, 0
2, 5960, Note_off_c, 1, 59, 0
2, 5960, Note_off_c, 1, 63, 0
2, 5960, Note_off_c, 1, 68, 0
2, 6000, Note_on_c, 1, 44, 127
2, 6000, Note_on_c, 1, 51, 127
2, 6000, Note_on_c, 1, 56, 127
2, 6000, Note_on_c, 1, 60, 127
2, 6000, Note_on_c, 1, 63, 127
2, 6000, Note_on_c, 1, 72, 127
2, 6720, Note_off_c, 1, 44, 0
2, 6720, Note_off_c, 1, 51, 0
2, 6720, Note_off_c, 1, 56, 0
2, 6720, Note_off_c, 1, 60, 0
2, 6720, Note_off_c, 1, 63, 0
2, 6720, Note_off_c, 1, 72, 0
2, 6760, Note_on_c, 1, 44, 127
2, 6760, Note_on_c, 1, 51, 127
2, 6760, Note_on_c, 1, 56, 127
2, 6760, Note_on_c, 1, 60, 127
2, 6760, Note_on_c, 1, 63, 127
2, 6760, Note_on_c, 1, 72, 127
2, 7040, Note_off_c, 1, 44, 0
2, 7040, Note_off_c, 1, 51, 0
2, 7040, Note_off_c, 1, 56, 0
2, 7040, Note_off_c, 1, 60, 0
2, 7040, Note_off_c, 1, 63, 0
2, 7040, Note_off_c, 1, 72, 0
2, 7080, Note_on_c, 1, 58, 127
2, 7080, Note_on_c, 1, 61, 127
2, 7080, Note_on_c, 1, 68, 127
2, 7080, Note_on_c, 1, 75, 127
2, 8240, Note_off_c, 1, 58, 0
2, 8240, Note_off_c, 1, 61, 0
2, 8240, Note_off_c, 1, 68, 0
2, 8240, Note_off_c, 1, 75, 0
2, 8280, Note_on_c, 1, 58, 127
2, 8280, Note_on_c, 1, 61, 127
2, 8280, Note_on_c, 1, 68, 127
2, 8280, Note_on_c, 1, 75, 127
2, 8640, Note_off_c, 1, 58, 0
2, 8640, Note_off_c, 1, 61, 0
2, 8640, Note_off_c, 1, 68, 0
2, 8640, Note_off_c, 1, 75, 0
2, 8720, Note_on_c, 1, 58, 127
2, 8720, Note_on_c, 1, 61, 127
2, 8720, Note_on_c, 1, 68, 127
2, 8720, Note_on_c, 1, 75, 127
2, 9880, Note_off_c, 1, 58, 0
2, 9880, Note_off_c, 1, 61, 0
2, 9880, Note_off_c, 1, 68, 0
2, 9880, Note_off_c, 1, 75, 0
2, 9920, Note_on_c, 1, 40, 127
2, 9920, Note_on_c, 1, 45, 127
2, 9920, Note_on_c, 1, 57, 127
2, 9920, Note_on_c, 1, 61, 127
2, 9920, Note_on_c, 1, 69, 127
2, 10520, Note_off_c, 1, 45, 0
2, 10520, Note_on_c, 1, 46, 127
2, 10800, Note_on_c, 1, 45, 127
2, 10800, Note_off_c, 1, 46, 0
2, 11240, Note_off_c, 1, 40, 0
2, 11240, Note_off_c, 1, 45, 0
2, 11240, Note_off_c, 1, 57, 0
2, 11240, Note_off_c, 1, 61, 0
2, 11240, Note_off_c, 1, 69, 0
2, 11280, Note_on_c, 1, 40, 127
2, 11280, Note_on_c, 1, 45, 127
2, 11280, Note_on_c, 1, 57, 127
2, 11280, Note_on_c, 1, 61, 127
2, 11280, Note_on_c, 1, 69, 127
2, 12160, Note_off_c, 1, 45, 0
2, 12160, Note_on_c, 1, 46, 127
2, 12560, Note_off_c, 1, 40, 0
2, 12560, Note_off_c, 1, 46, 0
2, 12560, Note_off_c, 1, 57, 0
2, 12560, Note_off_c, 1, 61, 0
2, 12560, Note_off_c, 1, 69, 0
2, 14880, Note_on_c, 1, 35, 127
2, 14880, Note_on_c, 1, 59, 127
2, 14960, Note_off_c, 1, 59, 0
2, 15000, Note_on_c, 1, 59, 127
2, 15080, Note_off_c, 1, 59, 0
2, 15120, Note_on_c, 1, 59, 127
2, 15240, Note_off_c, 1, 35, 0
2, 15240, Note_off_c, 1, 59, 0
2, 18240, Note_on_c, 1, 40, 127
2, 18240, Note_on_c, 1, 52, 127
2, 18240, Note_on_c, 1, 64, 127
2, 20480, Note_off_c, 1, 40, 0
2, 20480, Note_off_c, 1, 52, 0
2, 20480, Note_off_c, 1, 64, 0
2, 20600, Note_on_c, 1, 69, 127
2, 20960, Note_off_c, 1, 69, 0
2, 21000, Note_on_c, 1, 71, 127
2, 21280, Note_off_c, 1, 71, 0
2, 21320, Note_on_c, 1, 69, 127
2, 21880, Note_off_c, 1, 69, 0
2, 21920, Note_on_c, 1, 31, 127
2, 21920, Note_on_c, 1, 43, 127
2, 21920, Note_on_c, 1, 71, 127
2, 22880, Note_off_c, 1, 71, 0
2, 22920, Note_on_c, 1, 71, 127
2, 23000, Note_on_c, 1, 52, 127
2, 23000, Note_on_c, 1, 64, 127
2, 23000, Note_off_c, 1, 71, 0
2, 23040, Note_off_c, 1, 31, 0
2, 23040, Note_off_c, 1, 43, 0
2, 23040, Note_off_c, 1, 52, 0
2, 23040, Note_off_c, 1, 64, 0
2, 23080, Note_on_c, 1, 31, 127
2, 23080, Note_on_c, 1, 43, 127
2, 23080, Note_on_c, 1, 52, 127
2, 23080, Note_on_c, 1, 64, 127
2, 23720, Note_off_c, 1, 52, 0
2, 23760, Note_off_c, 1, 31, 0
2, 23760, Note_on_c, 1, 41, 127
2, 23760, Note_off_c, 1, 43, 0
2, 23760, Note_on_c, 1, 57, 127
2, 23760, Note_on_c, 1, 60, 127
2, 23760, Note_on_c, 1, 63, 127
2, 23760, Note_off_c, 1, 64, 0
2, 24920, Note_off_c, 1, 41, 0
2, 24920, Note_off_c, 1, 57, 0
2, 24920, Note_off_c, 1, 60, 0
2, 24920, Note_off_c, 1, 63, 0
2, 25000, Note_on_c, 1, 46, 127
2, 25000, Note_on_c, 1, 58, 127
2, 25000, Note_on_c, 1, 62, 127
2, 25800, Note_on_c, 1, 53, 127
2, 25800, Note_off_c, 1, 58, 0
2, 26760, Note_off_c, 1, 46, 0
2, 26760, Note_off_c, 1, 53, 0
2, 26760, Note_off_c, 1, 62, 0
2, 26800, Note_on_c, 1, 46, 127
2, 26800, Note_on_c, 1, 53, 127
2, 26800, Note_on_c, 1, 62, 127
2, 27320, Note_off_c, 1, 46, 0
2, 27320, Note_off_c, 1, 53, 0
2, 27320, Note_off_c, 1, 62, 0
2, 27360, Note_on_c, 1, 43, 127
2, 27360, Note_on_c, 1, 72, 127
2, 28800, Note_off_c, 1, 43, 0
2, 28800, Note_off_c, 1, 72, 0
2, 28840, Note_on_c, 1, 43, 127
2, 28880, Note_on_c, 1, 67, 127
2, 29200, Note_off_c, 1, 43, 0
2, 29240, Note_on_c, 1, 50, 127
2, 30360, Note_off_c, 1, 50, 0
2, 30360, Note_off_c, 1, 67, 0
2, 30400, Note_on_c, 1, 53, 127
2, 30400, Note_on_c, 1, 62, 127
2, 30960, Note_off_c, 1, 53, 0
2, 30960, Note_off_c, 1, 62, 0
2, 31040, Note_on_c, 1, 51, 127
2, 31040, Note_on_c, 1, 67, 127
2, 31600, Note_off_c, 1, 51, 0
2, 31600, Note_off_c, 1, 67, 0
2, 31640, Note_on_c, 1, 50, 127
2, 31640, Note_on_c, 1, 65, 127
2, 32040, Note_on_c, 1, 58, 127
2, 32040, Note_off_c, 1, 65, 0
2, 32040, Note_on_c, 1, 77, 127
2, 32200, Note_off_c, 1, 50, 0
2, 32200, Note_off_c, 1, 58, 0
2, 32200, Note_off_c, 1, 77, 0
2, 32240, Note_on_c, 1, 58, 127
2, 32240, Note_on_c, 1, 62, 127
2, 32240, Note_on_c, 1, 77, 127
2, 32800, Note_off_c, 1, 77, 0
2, 32840, Note_on_c, 1, 74, 127
2, 33240, Note_off_c, 1, 58, 0
2, 33240, Note_off_c, 1, 62, 0
2, 33240, Note_off_c, 1, 74, 0
2, 33280, Note_on_c, 1, 58, 127
2, 33280, Note_on_c, 1, 62, 127
2, 33280, Note_on_c, 1, 74, 127
2, 33440, Note_off_c, 1, 58, 0
2, 33440, Note_off_c, 1, 62, 0
2, 33440, Note_off_c, 1, 74, 0
2, 33480, Note_on_c, 1, 60, 127
2, 33480, Note_on_c, 1, 63, 127
2, 34040, Note_off_c, 1, 60, 0
2, 34040, Note_off_c, 1, 63, 0
2, 34080, Note_on_c, 1, 52, 127
2, 34080, Note_on_c, 1, 60, 127
2, 34080, Note_on_c, 1, 67, 127
2, 34080, Note_on_c, 1, 72, 127
2, 35200, Note_off_c, 1, 52, 0
2, 35200, Note_off_c, 1, 60, 0
2, 35200, Note_off_c, 1, 67, 0
2, 35200, Note_off_c, 1, 72, 0
2, 35240, Note_on_c, 1, 57, 127
2, 35240, Note_on_c, 1, 62, 127
2, 35240, Note_on_c, 1, 65, 127
2, 35240, Note_on_c, 1, 74, 127
2, 35760, Note_off_c, 1, 57, 0
2, 35760, Note_off_c, 1, 62, 0
2, 35760, Note_off_c, 1, 65, 0
2, 35760, Note_off_c, 1, 74, 0
2, 35800, Note_on_c, 1, 57, 127
2, 35800, Note_on_c, 1, 62, 127
2, 35800, Note_on_c, 1, 65, 127
2, 35800, Note_on_c, 1, 74, 127
2, 35840, Note_off_c, 1, 57, 0
2, 35840, Note_off_c, 1, 62, 0
2, 35840, Note_off_c, 1, 65, 0
2, 35840, Note_off_c, 1, 74, 0
2, 35920, Note_on_c, 1, 57, 127
2, 35920, Note_on_c, 1, 62, 127
2, 35920, Note_on_c, 1, 65, 127
2, 35920, Note_on_c, 1, 69, 127
2, 37680, Note_off_c, 1, 57, 0
2, 37680, Note_off_c, 1, 62, 0
2, 37680, Note_off_c, 1, 65, 0
2, 37680, Note_off_c, 1, 69, 0
2, 37720, Note_on_c, 1, 48, 127
2, 37720, Note_on_c, 1, 55, 127
2, 37720, Note_on_c, 1, 60, 127
2, 37720, Note_on_c, 1, 64, 127
2, 37720, Note_on_c, 1, 67, 127
2, 37920, Note_off_c, 1, 48, 0
2, 37920, Note_off_c, 1, 55, 0
2, 37920, Note_off_c, 1, 60, 0
2, 37920, Note_off_c, 1, 64, 0
2, 37920, Note_off_c, 1, 67, 0
2, 37960, Note_on_c, 1, 48, 127
2, 37960, Note_on_c, 1, 55, 127
2, 37960, Note_on_c, 1, 60, 127
2, 37960, Note_on_c, 1, 64, 127
2, 37960, Note_on_c, 1, 67, 127
2, 39960, Note_off_c, 1, 48, 0
2, 39960, Note_off_c, 1, 55, 0
2, 39960, Note_off_c, 1, 60, 0
2, 39960, Note_off_c, 1, 64, 0
2, 39960, Note_off_c, 1, 67, 0
2, 40000, Note_on_c, 1, 48, 127
2, 40000, Note_on_c, 1, 55, 127
2, 40000, Note_on_c, 1, 60, 127
2, 40000, Note_on_c, 1, 64, 127
2, 40000, Note_on_c, 1, 67, 127
2, 42160, Note_off_c, 1, 60, 0
2, 42160, Note_off_c, 1, 64, 0
2, 42200, Note_off_c, 1, 48, 0
2, 42200, Note_off_c, 1, 55, 0
2, 42200, Note_off_c, 1, 67, 0
2, 42240, Note_on_c, 1, 48, 127
2, 42240, Note_on_c, 1, 55, 127
2, 42240, Note_on_c, 1, 60, 127
2, 42240, Note_on_c, 1, 64, 127
2, 42240, Note_on_c, 1, 67, 127
2, 44240, Note_off_c, 1, 48, 0
2, 44240, Note_off_c, 1, 55, 0
2, 44240, Note_off_c, 1, 60, 0
2, 44240, Note_off_c, 1, 64, 0
2, 44240, Note_off_c, 1, 67, 0
2, 44280, Note_on_c, 1, 48, 127
2, 44280, Note_on_c, 1, 55, 127
2, 44280, Note_on_c, 1, 60, 127
2, 44280, Note_on_c, 1, 64, 127
2, 44280, Note_on_c, 1, 67, 127
2, 46480, Note_off_c, 1, 48, 0
2, 46480, Note_off_c, 1, 55, 0
2, 46480, Note_off_c, 1, 60, 0
2, 46480, Note_off_c, 1, 64, 0
2, 46480, Note_off_c, 1, 67, 0
2, 46520, Note_on_c, 1, 48, 127
2, 46520, Note_on_c, 1, 55, 127
2, 46520, Note_on_c, 1, 60, 127
2, 46520, Note_on_c, 1, 64, 127
2, 46520, Note_on_c, 1, 67, 127
2, 48520, Note_off_c, 1, 48, 0
2, 48520, Note_off_c, 1, 55, 0
2, 48520, Note_off_c, 1, 60, 0
2, 48520, Note_off_c, 1, 64, 0
2, 48520, Note_off_c, 1, 67, 0
2, 48560, Note_on_c, 1, 48, 127
2, 48560, Note_on_c, 1, 55, 127
2, 48560, Note_on_c, 1, 60, 127
2, 48560, Note_on_c, 1, 64, 127
2, 48560, Note_on_c, 1, 67, 127
2, 49280, Note_off_c, 1, 48, 0
2, 49280, Note_off_c, 1, 55, 0
2, 49280, Note_off_c, 1, 60, 0
2, 49280, Note_off_c, 1, 64, 0
2, 49280, Note_off_c, 1, 67, 0
2, 49360, Note_on_c, 1, 48, 127
2, 49360, Note_on_c, 1, 55, 127
2, 49360, Note_on_c, 1, 60, 127
2, 49360, Note_on_c, 1, 64, 127
2, 49360, Note_on_c, 1, 67, 127
2, 50760, Note_off_c, 1, 48, 0
2, 50760, Note_off_c, 1, 55, 0
2, 50760, Note_off_c, 1, 60, 0
2, 50760, Note_off_c, 1, 64, 0
2, 50760, Note_off_c, 1, 67, 0
2, 50800, Note_on_c, 1, 48, 127
2, 50800, Note_on_c, 1, 55, 127
2, 50800, Note_on_c, 1, 60, 127
2, 50800, Note_on_c, 1, 64, 127
2, 50800, Note_on_c, 1, 67, 127
2, 52800, Note_off_c, 1, 48, 0
2, 52800, Note_off_c, 1, 55, 0
2, 52800, Note_off_c, 1, 60, 0
2, 52800, Note_off_c, 1, 64, 0
2, 52800, Note_off_c, 1, 67, 0
2, 52840, Note_on_c, 1, 48, 127
2, 52840, Note_on_c, 1, 55, 127
2, 52840, Note_on_c, 1, 60, 127
2, 52840, Note_on_c, 1, 64, 127
2, 52840, Note_on_c, 1, 67, 127
2, 53920, Note_on_c, 1, 46, 127
2, 53920, Note_off_c, 1, 48, 0
2, 54160, Note_off_c, 1, 46, 0
2, 54160, Note_off_c, 1, 55, 0
2, 54160, Note_off_c, 1, 60, 0
2, 54160, Note_off_c, 1, 64, 0
2, 54160, Note_off_c, 1, 67, 0
2, 54240, Note_on_c, 1, 48, 127
2, 54240, Note_on_c, 1, 55, 127
2, 54240, Note_on_c, 1, 60, 127
2, 54240, Note_on_c, 1, 64, 127
2, 54240, Note_on_c, 1, 67, 127
2, 54440, Note_off_c, 1, 60, 0
2, 54480, Note_on_c, 1, 60, 127
2, 54840, Note_off_c, 1, 48, 0
2, 54840, Note_off_c, 1, 55, 0
2, 54840, Note_off_c, 1, 60, 0
2, 54840, Note_off_c, 1, 64, 0
2, 54840, Note_off_c, 1, 67, 0
2, 54880, Note_on_c, 1, 48, 127
2, 54880, Note_on_c, 1, 55, 127
2, 54880, Note_on_c, 1, 60, 127
2, 54880, Note_on_c, 1, 64, 127
2, 54880, Note_on_c, 1, 67, 127
2, 56000, Note_off_c, 1, 48, 0
2, 56040, Note_on_c, 1, 48, 127
2, 56880, Note_off_c, 1, 48, 0
2, 56880, Note_off_c, 1, 55, 0
2, 56880, Note_off_c, 1, 60, 0
2, 56880, Note_off_c, 1, 64, 0
2, 56880, Note_off_c, 1, 67, 0
2, 56920, Note_on_c, 1, 48, 127
2, 56920, Note_on_c, 1, 55, 127
2, 56920, Note_on_c, 1, 60, 127
2, 56920, Note_on_c, 1, 64, 127
2, 56920, Note_on_c, 1, 67, 127
2, 58720, Note_off_c, 1, 48, 0
2, 58720, Note_off_c, 1, 55, 0
2, 58720, Note_off_c, 1, 60, 0
2, 58720, Note_off_c, 1, 64, 0
2, 58720, Note_off_c, 1, 67, 0
2, 58760, Note_on_c, 1, 48, 127
2, 58760, Note_on_c, 1, 55, 127
2, 58760, Note_on_c, 1, 60, 127
2, 58760, Note_on_c, 1, 64, 127
2, 58760, Note_on_c, 1, 67, 127
2, 60560, Note_off_c, 1, 48, 0
2, 60560, Note_off_c, 1, 55, 0
2, 60560, Note_off_c, 1, 60, 0
2, 60560, Note_off_c, 1, 64, 0
2, 60560, Note_off_c, 1, 67, 0
2, 60600, Note_on_c, 1, 48, 127
2, 60600, Note_on_c, 1, 55, 127
2, 60600, Note_on_c, 1, 60, 127
2, 60600, Note_on_c, 1, 64, 127
2, 60600, Note_on_c, 1, 67, 127
2, 62120, Note_on_c, 1, 72, 127
2, 62160, Note_off_c, 1, 72, 0
2, 62400, Note_off_c, 1, 48, 0
2, 62400, Note_off_c, 1, 55, 0
2, 62400, Note_off_c, 1, 60, 0
2, 62400, Note_off_c, 1, 64, 0
2, 62400, Note_off_c, 1, 67, 0
2, 62440, Note_on_c, 1, 48, 127
2, 62440, Note_on_c, 1, 55, 127
2, 62440, Note_on_c, 1, 60, 127
2, 62440, Note_on_c, 1, 64, 127
2, 62440, Note_on_c, 1, 67, 127
2, 63400, Note_off_c, 1, 48, 0
2, 63400, Note_off_c, 1, 55, 0
2, 63400, Note_off_c, 1, 60, 0
2, 63400, Note_off_c, 1, 64, 0
2, 63400, Note_off_c, 1, 67, 0
2, 63440, Note_on_c, 1, 45, 127
2, 63440, Note_on_c, 1, 52, 127
2, 63440, Note_on_c, 1, 57, 127
2, 63440, Note_on_c, 1, 60, 127
2, 64440, Note_off_c, 1, 45, 0
2, 64440, Note_off_c, 1, 52, 0
2, 64440, Note_off_c, 1, 57, 0
2, 64440, Note_off_c, 1, 60, 0
2, 64480, Note_on_c, 1, 45, 127
2, 64480, Note_on_c, 1, 52, 127
2, 64480, Note_on_c, 1, 57, 127
2, 64480, Note_on_c, 1, 60, 127
2, 64600, Note_off_c, 1, 45, 0
2, 64640, Note_on_c, 1, 33, 127
2, 64640, Note_on_c, 1, 36, 127
2, 64640, Note_on_c, 1, 45, 127
2, 64640, Note_off_c, 1, 52, 0
2, 64640, Note_off_c, 1, 57, 0
2, 64640, Note_off_c, 1, 60, 0
2, 66360, Note_off_c, 1, 33, 0
2, 66360, Note_off_c, 1, 36, 0
2, 66360, Note_off_c, 1, 45, 0
2, 66400, Note_on_c, 1, 33, 127
2, 66400, Note_on_c, 1, 36, 127
2, 66400, Note_on_c, 1, 45, 127
2, 67040, Note_off_c, 1, 33, 0
2, 67040, Note_off_c, 1, 36, 0
2, 67040, Note_off_c, 1, 45, 0
2, 67080, Note_on_c, 1, 43, 127
2, 67080, Note_on_c, 1, 50, 127
2, 67080, Note_on_c, 1, 59, 127
2, 67080, Note_on_c, 1, 62, 127
2, 67640, Note_off_c, 1, 59, 0
2, 67640, Note_off_c, 1, 62, 0
2, 67680, Note_on_c, 1, 86, 127
2, 68240, Note_off_c, 1, 86, 0
2, 68280, Note_on_c, 1, 86, 127
2, 68480, Note_off_c, 1, 43, 0
2, 68480, Note_off_c, 1, 50, 0
2, 68480, Note_off_c, 1, 86, 0
2, 68520, Note_on_c, 1, 43, 127
2, 68520, Note_on_c, 1, 50, 127
2, 68520, Note_on_c, 1, 86, 127
2, 68920, Note_on_c, 1, 60, 127
2, 68920, Note_on_c, 1, 69, 127
2, 69480, Note_off_c, 1, 43, 0
2, 69480, Note_off_c, 1, 50, 0
2, 69480, Note_off_c, 1, 60, 0
2, 69480, Note_off_c, 1, 69, 0
2, 69480, Note_off_c, 1, 86, 0
2, 69520, Note_on_c, 1, 53, 127
2, 69520, Note_on_c, 1, 58, 127
2, 69520, Note_on_c, 1, 62, 127
2, 69520, Note_on_c, 1, 65, 127
2, 69520, Note_on_c, 1, 77, 127
2, 69520, Note_on_c, 1, 82, 127
2, 69520, Note_on_c, 1, 86, 127
2, 69520, Note_on_c, 1, 89, 127
2, 70200, Note_off_c, 1, 53, 0
2, 70200, Note_off_c, 1, 58, 0
2, 70200, Note_off_c, 1, 62, 0
2, 70200, Note_off_c, 1, 65, 0
2, 70200, Note_off_c, 1, 77, 0
2, 70200, Note_off_c, 1, 82, 0
2, 70200, Note_off_c, 1, 86, 0
2, 70200, Note_off_c, 1, 89, 0
2, 72560, Note_on_c, 1, 41, 127
2, 72560, Note_on_c, 1, 48, 127
2, 72560, Note_on_c, 1, 53, 127
2, 72560, Note_on_c, 1, 57, 127
2, 72560, Note_on_c, 1, 60, 127
2, 72560, Note_on_c, 1, 65, 127
2, 73560, Note_off_c, 1, 41, 0
2, 73560, Note_off_c, 1, 48, 0
2, 73560, Note_off_c, 1, 53, 0
2, 73560, Note_off_c, 1, 57, 0
2, 73560, Note_off_c, 1, 60, 0
2, 73560, Note_off_c, 1, 65, 0
2, 73600, Note_on_c, 1, 41, 127
2, 73600, Note_on_c, 1, 48, 127
2, 73600, Note_on_c, 1, 53, 127
2, 73600, Note_on_c, 1, 57, 127
2, 73600, Note_on_c, 1, 60, 127
2, 73600, Note_on_c, 1, 65, 127
2, 75800, Note_off_c, 1, 41, 0
2, 75800, Note_off_c, 1, 48, 0
2, 75800, Note_off_c, 1, 53, 0
2, 75800, Note_off_c, 1, 57, 0
2, 75800, Note_off_c, 1, 60, 0
2, 75800, Note_off_c, 1, 65, 0
2, 75840, Note_on_c, 1, 41, 127
2, 75840, Note_on_c, 1, 48, 127
2, 75840, Note_on_c, 1, 53, 127
2, 75840, Note_on_c, 1, 57, 127
2, 75840, Note_on_c, 1, 60, 127
2, 75840, Note_on_c, 1, 65, 127
2, 76800, Note_off_c, 1, 65, 0
2, 77840, Note_off_c, 1, 41, 0
2, 77840, Note_off_c, 1, 48, 0
2, 77840, Note_off_c, 1, 53, 0
2, 77840, Note_off_c, 1, 57, 0
2, 77840, Note_off_c, 1, 60, 0
2, 77880, Note_on_c, 1, 41, 127
2, 77880, Note_on_c, 1, 48, 127
2, 77880, Note_on_c, 1, 53, 127
2, 77880, Note_on_c, 1, 57, 127
2, 77880, Note_on_c, 1, 60, 127
2, 79760, Note_off_c, 1, 41, 0
2, 79760, Note_off_c, 1, 48, 0
2, 79760, Note_off_c, 1, 53, 0
2, 79760, Note_off_c, 1, 57, 0
2, 79760, Note_off_c, 1, 60, 0
2, 79920, Note_on_c, 1, 56, 127
2, 79920, Note_on_c, 1, 68, 127
2, 79920, Note_on_c, 1, 73, 127
2, 79920, Note_on_c, 1, 77, 127
2, 79920, Note_on_c, 1, 83, 127
2, 79960, Note_off_c, 1, 56, 0
2, 79960, Note_on_c, 1, 62, 127
2, 79960, Note_on_c, 1, 71, 127
2, 79960, Note_off_c, 1, 73, 0
2, 79960, Note_on_c, 1, 80, 127
2, 79960, Note_off_c, 1, 83, 0
2, 80000, Note_on_c, 1, 39, 127
2, 80000, Note_on_c, 1, 43, 127
2, 80000, Note_on_c, 1, 46, 127
2, 80000, Note_on_c, 1, 51, 127
2, 80000, Note_off_c, 1, 62, 0
2, 80000, Note_off_c, 1, 68, 0
2, 80000, Note_off_c, 1, 71, 0
2, 80000, Note_off_c, 1, 77, 0
2, 80000, Note_off_c, 1, 80, 0
2, 80040, Note_on_c, 1, 33, 127
2, 80040, Note_off_c, 1, 39, 0
2, 80040, Note_off_c, 1, 43, 0
2, 80040, Note_on_c, 1, 45, 127
2, 80040, Note_off_c, 1, 46, 0
2, 80040, Note_off_c, 1, 51, 0
2, 80040, Note_on_c, 1, 53, 127
2, 80040, Note_on_c, 1, 65, 127
2, 80040, Note_on_c, 1, 73, 127
2, 80040, Note_on_c, 1, 81, 127
2, 80080, Note_off_c, 1, 33, 0
2, 80080, Note_off_c, 1, 45, 0
2, 80080, Note_on_c, 1, 51, 127
2, 80080, Note_off_c, 1, 53, 0
2, 80080, Note_on_c, 1, 63, 127
2, 80080, Note_off_c, 1, 65, 0
2, 80080, Note_off_c, 1, 73, 0
2, 80080, Note_on_c, 1, 75, 127
2, 80080, Note_off_c, 1, 81, 0
2, 80080, Note_on_c, 1, 82, 127
2, 80080, Note_on_c, 1, 87, 127
2, 80120, Note_off_c, 1, 51, 0
2, 80120, Note_on_c, 1, 54, 127
2, 80120, Note_on_c, 1, 62, 127
2, 80120, Note_off_c, 1, 63, 0
2, 80120, Note_on_c, 1, 66, 127
2, 80120, Note_on_c, 1, 70, 127
2, 80120, Note_off_c, 1, 75, 0
2, 80120, Note_on_c, 1, 77, 127
2, 80120, Note_on_c, 1, 80, 127
2, 80120, Note_off_c, 1, 87, 0
2, 80160, Note_on_c, 1, 53, 127
2, 80160, Note_off_c, 1, 54, 0
2, 80160, Note_off_c, 1, 62, 0
2, 80160, Note_on_c, 1, 65, 127
2, 80160, Note_off_c, 1, 66, 0
2, 80160, Note_off_c, 1, 70, 0
2, 80160, Note_on_c, 1, 74, 127
2, 80160, Note_off_c, 1, 77, 0
2, 80160, Note_off_c, 1, 80, 0
2, 80200, Note_on_c, 1, 47, 127
2, 80200, Note_off_c, 1, 53, 0
2, 80200, Note_on_c, 1, 59, 127
2, 80200, Note_on_c, 1, 60, 127
2, 80200, Note_on_c, 1, 64, 127
2, 80200, Note_off_c, 1, 65, 0
2, 80200, Note_off_c, 1, 74, 0
2, 80200, Note_off_c, 1, 82, 0
2, 80240, Note_off_c, 1, 47, 0
2, 80240, Note_on_c, 1, 54, 127
2, 80240, Note_off_c, 1, 59, 0
2, 80240, Note_off_c, 1, 60, 0
2, 80240, Note_on_c, 1, 62, 127
2, 80240, Note_off_c, 1, 64, 0
2, 80240, Note_on_c, 1, 66, 127
2, 80240, Note_on_c, 1, 70, 127
2, 80240, Note_on_c, 1, 77, 127
2, 80240, Note_on_c, 1, 80, 127
2, 80240, Note_on_c, 1, 82, 127
2, 80280, Note_on_c, 1, 39, 127
2, 80280, Note_on_c, 1, 43, 127
2, 80280, Note_on_c, 1, 46, 127
2, 80280, Note_on_c, 1, 51, 127
2, 80280, Note_off_c, 1, 54, 0
2, 80280, Note_off_c, 1, 62, 0
2, 80280, Note_off_c, 1, 66, 0
2, 80280, Note_off_c, 1, 70, 0
2, 80280, Note_off_c, 1, 77, 0
2, 80280, Note_off_c, 1, 80, 0
2, 80280, Note_off_c, 1, 82, 0
2, 80320, Note_off_c, 1, 39, 0
2, 80320, Note_off_c, 1, 43, 0
2, 80320, Note_off_c, 1, 46, 0
2, 80320, Note_on_c, 1, 48, 127
2, 80320, Note_off_c, 1, 51, 0
2, 80320, Note_on_c, 1, 59, 127
2, 80320, Note_on_c, 1, 62, 127
2, 80320, Note_on_c, 1, 65, 127
2, 80320, Note_on_c, 1, 67, 127
2, 80360, Note_on_c, 1, 34, 127
2, 80360, Note_on_c, 1, 41, 127
2, 80360, Note_on_c, 1, 44, 127
2, 80360, Note_off_c, 1, 48, 0
2, 80360, Note_on_c, 1, 53, 127
2, 80360, Note_on_c, 1, 56, 127
2, 80360, Note_on_c, 1, 58, 127
2, 80360, Note_off_c, 1, 59, 0
2, 80360, Note_off_c, 1, 62, 0
2, 80360, Note_off_c, 1, 65, 0
2, 80360, Note_off_c, 1, 67, 0
2, 80400, Note_off_c, 1, 34, 0
2, 80400, Note_off_c, 1, 41, 0
2, 80400, Note_off_c, 1, 44, 0
2, 80400, Note_on_c, 1, 50, 127
2, 80400, Note_off_c, 1, 53, 0
2, 80400, Note_on_c, 1, 55, 127
2, 80400, Note_off_c, 1, 56, 0
2, 80400, Note_off_c, 1, 58, 0
2, 80400, Note_on_c, 1, 77, 127
2, 80400, Note_on_c, 1, 79, 127
2, 80440, Note_off_c, 1, 50, 0
2, 80440, Note_off_c, 1, 55, 0
2, 80440, Note_off_c, 1, 77, 0
2, 80440, Note_off_c, 1, 79, 0
2, 80520, Note_on_c, 1, 45, 127
2, 80520, Note_on_c, 1, 48, 127
2, 80520, Note_on_c, 1, 53, 127
2, 80520, Note_on_c, 1, 77, 127
2, 81080, Note_off_c, 1, 45, 0
2, 81080, Note_off_c, 1, 48, 0
2, 81080, Note_off_c, 1, 53, 0
2, 81080, Note_off_c, 1, 77, 0
2, 81120, Note_on_c, 1, 45, 127
2, 81120, Note_on_c, 1, 48, 127
2, 81120, Note_on_c, 1, 53, 127
2, 81120, Note_on_c, 1, 77, 127
2, 81680, Note_off_c, 1, 45, 0
2, 81680, Note_off_c, 1, 48, 0
2, 81680, Note_off_c, 1, 53, 0
2, 81680, Note_off_c, 1, 77, 0
2, 81720, Note_on_c, 1, 38, 127
2, 81720, Note_on_c, 1, 45, 127
2, 81720, Note_on_c, 1, 49, 127
2, 81720, Note_on_c, 1, 55, 127
2, 81720, Note_on_c, 1, 64, 127
2, 82120, Note_off_c, 1, 38, 0
2, 82120, Note_off_c, 1, 45, 0
2, 82120, Note_off_c, 1, 49, 0
2, 82120, Note_off_c, 1, 55, 0
2, 82120, Note_off_c, 1, 64, 0
2, 82160, Note_on_c, 1, 38, 127
2, 82160, Note_on_c, 1, 45, 127
2, 82160, Note_on_c, 1, 49, 127
2, 82160, Note_on_c, 1, 55, 127
2, 82160, Note_on_c, 1, 64, 127
2, 82320, Note_off_c, 1, 38, 0
2, 82320, Note_off_c, 1, 45, 0
2, 82320, Note_off_c, 1, 49, 0
2, 82320, Note_off_c, 1, 55, 0
2, 82320, Note_off_c, 1, 64, 0
2, 82360, Note_on_c, 1, 38, 127
2, 82360, Note_on_c, 1, 45, 127
2, 82360, Note_on_c, 1, 49, 127
2, 82360, Note_on_c, 1, 55, 127
2, 82360, Note_on_c, 1, 57, 127
2, 82920, Note_off_c, 1, 38, 0
2, 82920, Note_off_c, 1, 45, 0
2, 82920, Note_off_c, 1, 49, 0
2, 82920, Note_off_c, 1, 55, 0
2, 82920, Note_off_c, 1, 57, 0
2, 82960, Note_on_c, 1, 38, 127
2, 82960, Note_on_c, 1, 45, 127
2, 82960, Note_on_c, 1, 49, 127
2, 82960, Note_on_c, 1, 55, 127
2, 82960, Note_on_c, 1, 57, 127
2, 83520, Note_off_c, 1, 38, 0
2, 83520, Note_off_c, 1, 45, 0
2, 83520, Note_off_c, 1, 49, 0
2, 83520, Note_off_c, 1, 55, 0
2, 83520, Note_off_c, 1, 57, 0
2, 83560, Note_on_c, 1, 38, 127
2, 83560, Note_on_c, 1, 45, 127
2, 83560, Note_on_c, 1, 49, 127
2, 83560, Note_on_c, 1, 55, 127
2, 83560, Note_on_c, 1, 57, 127
2, 84120, Note_off_c, 1, 38, 0
2, 84120, Note_off_c, 1, 45, 0
2, 84120, Note_off_c, 1, 49, 0
2, 84120, Note_off_c, 1, 55, 0
2, 84120, Note_off_c, 1, 57, 0
2, 84160, Note_on_c, 1, 52, 127
2, 84160, Note_on_c, 1, 64, 127
2, 84160, Note_on_c, 1, 71, 127
2, 84160, Note_on_c, 1, 76, 127
2, 84160, Note_on_c, 1, 80, 127
2, 84160, Note_on_c, 1, 83, 127
2, 84360, Note_off_c, 1, 52, 0
2, 84360, Note_off_c, 1, 64, 0
2, 84360, Note_off_c, 1, 71, 0
2, 84360, Note_off_c, 1, 76, 0
2, 84360, Note_off_c, 1, 80, 0
2, 84360, Note_off_c, 1, 83, 0
2, 84400, Note_on_c, 1, 52, 127
2, 84400, Note_on_c, 1, 64, 127
2, 84400, Note_on_c, 1, 71, 127
2, 84400, Note_on_c, 1, 76, 127
2, 84400, Note_on_c, 1, 80, 127
2, 84400, Note_on_c, 1, 83, 127
2, 84680, Note_off_c, 1, 52, 0
2, 84680, Note_off_c, 1, 64, 0
2, 84680, Note_off_c, 1, 71, 0
2, 84680, Note_off_c, 1, 76, 0
2, 84680, Note_off_c, 1, 80, 0
2, 84680, Note_off_c, 1, 83, 0
2, 84800, Note_on_c, 1, 58, 127
2, 84800, Note_on_c, 1, 63, 127
2, 84800, Note_on_c, 1, 83, 127
2, 84840, Note_on_c, 1, 42, 127
2, 84840, Note_on_c, 1, 54, 127
2, 84840, Note_off_c, 1, 58, 0
2, 84840, Note_off_c, 1, 63, 0
2, 84840, Note_on_c, 1, 69, 127
2, 84840, Note_on_c, 1, 73, 127
2, 84840, Note_on_c, 1, 78, 127
2, 84840, Note_on_c, 1, 81, 127
2, 84840, Note_off_c, 1, 83, 0
2, 84880, Note_off_c, 1, 42, 0
2, 84880, Note_on_c, 1, 57, 127
2, 84880, Note_on_c, 1, 60, 127
2, 84880, Note_on_c, 1, 62, 127
2, 84880, Note_off_c, 1, 69, 0
2, 84880, Note_off_c, 1, 73, 0
2, 84880, Note_off_c, 1, 78, 0
2, 84880, Note_off_c, 1, 81, 0
2, 84880, Note_on_c, 1, 86, 127
2, 84920, Note_off_c, 1, 54, 0
2, 84920, Note_on_c, 1, 56, 127
2, 84920, Note_off_c, 1, 57, 0
2, 84920, Note_off_c, 1, 60, 0
2, 84920, Note_off_c, 1, 62, 0
2, 84920, Note_on_c, 1, 63, 127
2, 84920, Note_on_c, 1, 78, 127
2, 84920, Note_on_c, 1, 80, 127
2, 84920, Note_off_c, 1, 86, 0
2, 84960, Note_on_c, 1, 45, 127
2, 84960, Note_off_c, 1, 56, 0
2, 84960, Note_on_c, 1, 57, 127
2, 84960, Note_off_c, 1, 63, 0
2, 84960, Note_on_c, 1, 69, 127
2, 84960, Note_on_c, 1, 73, 127
2, 84960, Note_off_c, 1, 80, 0
2, 84960, Note_on_c, 1, 81, 127
2, 85000, Note_off_c, 1, 45, 0
2, 85000, Note_off_c, 1, 57, 0
2, 85000, Note_on_c, 1, 63, 127
2, 85000, Note_off_c, 1, 69, 0
2, 85000, Note_off_c, 1, 73, 0
2, 85000, Note_on_c, 1, 75, 127
2, 85000, Note_off_c, 1, 81, 0
2, 85000, Note_on_c, 1, 82, 127
2, 85040, Note_off_c, 1, 63, 0
2, 85040, Note_off_c, 1, 75, 0
2, 85040, Note_off_c, 1, 78, 0
2, 85040, Note_off_c, 1, 82, 0
2, 85400, Note_on_c, 1, 44, 127
2, 85400, Note_on_c, 1, 51, 127
2, 85400, Note_on_c, 1, 56, 127
2, 85400, Note_on_c, 1, 75, 127
2, 85400, Note_on_c, 1, 80, 127
2, 85400, Note_on_c, 1, 84, 127
2, 85400, Note_on_c, 1, 87, 127
2, 86400, Note_off_c, 1, 44, 0
2, 86400, Note_off_c, 1, 51, 0
2, 86400, Note_off_c, 1, 56, 0
2, 86400, Note_off_c, 1, 75, 0
2, 86400, Note_off_c, 1, 80, 0
2, 86400, Note_off_c, 1, 84, 0
2, 86400, Note_off_c, 1, 87, 0
2, 86440, Note_on_c, 1, 44, 127
2, 86440, Note_on_c, 1, 51, 127
2, 86440, Note_on_c, 1, 56, 127
2, 86440, Note_on_c, 1, 75, 127
2, 86440, Note_on_c, 1, 80, 127
2, 86440, Note_on_c, 1, 84, 127
2, 86440, Note_on_c, 1, 87, 127
2, 86560, Note_off_c, 1, 44, 0
2, 86560, Note_off_c, 1, 51, 0
2, 86560, Note_off_c, 1, 56, 0
2, 86560, Note_off_c, 1, 75, 0
2, 86560, Note_off_c, 1, 80, 0
2, 86560, Note_off_c, 1, 84, 0
2, 86560, Note_off_c, 1, 87, 0
2, 86640, Note_on_c, 1, 44, 127
2, 86640, Note_on_c, 1, 51, 127
2, 86640, Note_on_c, 1, 56, 127
2, 86640, Note_on_c, 1, 75, 127
2, 86640, Note_on_c, 1, 80, 127
2, 86640, Note_on_c, 1, 84, 127
2, 86640, Note_on_c, 1, 87, 127
2, 87800, Note_off_c, 1, 44, 0
2, 87800, Note_off_c, 1, 51, 0
2, 87800, Note_off_c, 1, 56, 0
2, 87800, Note_off_c, 1, 75, 0
2, 87800, Note_off_c, 1, 80, 0
2, 87800, Note_off_c, 1, 84, 0
2, 87800, Note_off_c, 1, 87, 0
2, 87840, Note_on_c, 1, 44, 127
2, 87840, Note_on_c, 1, 51, 127
2, 87840, Note_on_c, 1, 56, 127
2, 87840, Note_on_c, 1, 75, 127
2, 87840, Note_on_c, 1, 80, 127
2, 87840, Note_on_c, 1, 84, 127
2, 87840, Note_on_c, 1, 87, 127
2, 88400, Note_off_c, 1, 44, 0
2, 88400, Note_off_c, 1, 51, 0
2, 88400, Note_off_c, 1, 56, 0
2, 88400, Note_off_c, 1, 75, 0
2, 88400, Note_off_c, 1, 80, 0
2, 88400, Note_off_c, 1, 84, 0
2, 88400, Note_off_c, 1, 87, 0
2, 88480, Note_on_c, 1, 44, 127
2, 88480, Note_on_c, 1, 51, 127
2, 88480, Note_on_c, 1, 56, 127
2, 88480, Note_on_c, 1, 75, 127
2, 88480, Note_on_c, 1, 80, 127
2, 88480, Note_on_c, 1, 84, 127
2, 88480, Note_on_c, 1, 87, 127
2, 89040, Note_off_c, 1, 44, 0
2, 89040, Note_off_c, 1, 51, 0
2, 89040, Note_off_c, 1, 56, 0
2, 89040, Note_off_c, 1, 75, 0
2, 89040, Note_off_c, 1, 80, 0
2, 89040, Note_off_c, 1, 84, 0
2, 89040, Note_off_c, 1, 87, 0
2, 89080, Note_on_c, 1, 44, 127
2, 89080, Note_on_c, 1, 51, 127
2, 89080, Note_on_c, 1, 56, 127
2, 89080, Note_on_c, 1, 75, 127
2, 89080, Note_on_c, 1, 80, 127
2, 89080, Note_on_c, 1, 84, 127
2, 89080, Note_on_c, 1, 87, 127
2, 90240, Note_off_c, 1, 44, 0
2, 90240, Note_off_c, 1, 51, 0
2, 90240, Note_off_c, 1, 56, 0
2, 90240, Note_off_c, 1, 75, 0
2, 90240, Note_off_c, 1, 80, 0
2, 90240, Note_off_c, 1, 84, 0
2, 90240, Note_off_c, 1, 87, 0
2, 90280, Note_on_c, 1, 60, 127
2, 90280, Note_on_c, 1, 63, 127
2, 90280, Note_on_c, 1, 66, 127
2, 90280, Note_on_c, 1, 74, 127
2, 90280, Note_on_c, 1, 78, 127
2, 90320, Note_on_c, 1, 58, 127
2, 90320, Note_off_c, 1, 60, 0
2, 90320, Note_on_c, 1, 61, 127
2, 90320, Note_off_c, 1, 66, 0
2, 90320, Note_on_c, 1, 67, 127
2, 90320, Note_off_c, 1, 74, 0
2, 90320, Note_off_c, 1, 78, 0
2, 90320, Note_on_c, 1, 94, 127
2, 90360, Note_on_c, 1, 35, 127
2, 90360, Note_on_c, 1, 52, 127
2, 90360, Note_off_c, 1, 58, 0
2, 90360, Note_off_c, 1, 61, 0
2, 90360, Note_off_c, 1, 63, 0
2, 90360, Note_off_c, 1, 67, 0
2, 90360, Note_on_c, 1, 78, 127
2, 90360, Note_on_c, 1, 83, 127
2, 90360, Note_on_c, 1, 87, 127
2, 90360, Note_off_c, 1, 94, 0
2, 90400, Note_off_c, 1, 35, 0
2, 90400, Note_off_c, 1, 52, 0
2, 90400, Note_on_c, 1, 68, 127
2, 90400, Note_on_c, 1, 72, 127
2, 90400, Note_off_c, 1, 83, 0
2, 90400, Note_off_c, 1, 87, 0
2, 90400, Note_on_c, 1, 90, 127
2, 90400, Note_on_c, 1, 101, 127
2, 90440, Note_off_c, 1, 68, 0
2, 90440, Note_off_c, 1, 72, 0
2, 90440, Note_off_c, 1, 78, 0
2, 90440, Note_off_c, 1, 90, 0
2, 90440, Note_off_c, 1, 101, 0
2, 90480, Note_on_c, 1, 41, 127
2, 90480, Note_on_c, 1, 50, 127
2, 90480, Note_on_c, 1, 56, 127
2, 90480, Note_on_c, 1, 61, 127
2, 90520, Note_off_c, 1, 41, 0
2, 90520, Note_off_c, 1, 50, 0
2, 90520, Note_on_c, 1, 55, 127
2, 90520, Note_off_c, 1, 56, 0
2, 90520, Note_on_c, 1, 63, 127
2, 90520, Note_on_c, 1, 70, 127
2, 90520, Note_on_c, 1, 79, 127
2, 90560, Note_on_c, 1, 43, 127
2, 90560, Note_on_c, 1, 48, 127
2, 90560, Note_off_c, 1, 55, 0
2, 90560, Note_on_c, 1, 58, 127
2, 90560, Note_on_c, 1, 60, 127
2, 90560, Note_off_c, 1, 61, 0
2, 90560, Note_off_c, 1, 63, 0
2, 90560, Note_on_c, 1, 64, 127
2, 90560, Note_off_c, 1, 70, 0
2, 90560, Note_off_c, 1, 79, 0
2, 90600, Note_off_c, 1, 48, 0
2, 90600, Note_on_c, 1, 49, 127
2, 90600, Note_on_c, 1, 57, 127
2, 90600, Note_off_c, 1, 58, 0
2, 90600, Note_off_c, 1, 60, 0
2, 90600, Note_off_c, 1, 64, 0
2, 90600, Note_on_c, 1, 65, 127
2, 90640, Note_off_c, 1, 43, 0
2, 90640, Note_off_c, 1, 49, 0
2, 90640, Note_off_c, 1, 57, 0
2, 90640, Note_on_c, 1, 62, 127
2, 90640, Note_off_c, 1, 65, 0
2, 90640, Note_on_c, 1, 79, 127
2, 90640, Note_on_c, 1, 82, 127
2, 90640, Note_on_c, 1, 87, 127
2, 90680, Note_on_c, 1, 51, 127
2, 90680, Note_on_c, 1, 57, 127
2, 90680, Note_off_c, 1, 79, 0
2, 90680, Note_off_c, 1, 82, 0
2, 90680, Note_off_c, 1, 87, 0
2, 90720, Note_off_c, 1, 51, 0
2, 90720, Note_off_c, 1, 57, 0
2, 90720, Note_on_c, 1, 73, 127
2, 90720, Note_on_c, 1, 74, 127
2, 90720, Note_on_c, 1, 76, 127
2, 90720, Note_on_c, 1, 77, 127
2, 90760, Note_on_c, 1, 40, 127
2, 90760, Note_on_c, 1, 43, 127
2, 90760, Note_on_c, 1, 52, 127
2, 90760, Note_off_c, 1, 62, 0
2, 90760, Note_off_c, 1, 73, 0
2, 90760, Note_off_c, 1, 74, 0
2, 90760, Note_off_c, 1, 76, 0
2, 90760, Note_off_c, 1, 77, 0
2, 90760, Note_on_c, 1, 87, 127
2, 90800, Note_off_c, 1, 40, 0
2, 90800, Note_off_c, 1, 43, 0
2, 90800, Note_off_c, 1, 52, 0
2, 90800, Note_on_c, 1, 59, 127
2, 90800, Note_on_c, 1, 71, 127
2, 90800, Note_on_c, 1, 79, 127
2, 90800, Note_on_c, 1, 91, 127
2, 90840, Note_off_c, 1, 59, 0
2, 90840, Note_off_c, 1, 71, 0
2, 90840, Note_off_c, 1, 79, 0
2, 90840, Note_off_c, 1, 87, 0
2, 90840, Note_off_c, 1, 91, 0
2, 90920, Note_on_c, 1, 44, 127
2, 90920, Note_on_c, 1, 59, 127
2, 90920, Note_on_c, 1, 66, 127
2, 90920, Note_on_c, 1, 80, 127
2, 90960, Note_off_c, 1, 44, 0
2, 90960, Note_on_c, 1, 49, 127
2, 90960, Note_on_c, 1, 53, 127
2, 90960, Note_on_c, 1, 56, 127
2, 90960, Note_on_c, 1, 61, 127
2, 90960, Note_off_c, 1, 66, 0
2, 90960, Note_off_c, 1, 80, 0
2, 90960, Note_on_c, 1, 86, 127
2, 91000, Note_off_c, 1, 49, 0
2, 91000, Note_on_c, 1, 51, 127
2, 91000, Note_off_c, 1, 53, 0
2, 91000, Note_off_c, 1, 56, 0
2, 91000, Note_off_c, 1, 59, 0
2, 91000, Note_off_c, 1, 61, 0
2, 91000, Note_on_c, 1, 82, 127
2, 91000, Note_on_c, 1, 85, 127
2, 91000, Note_off_c, 1, 86, 0
2, 91000, Note_on_c, 1, 91, 127
2, 91040, Note_on_c, 1, 49, 127
2, 91040, Note_off_c, 1, 51, 0
2, 91040, Note_on_c, 1, 53, 127
2, 91040, Note_on_c, 1, 56, 127
2, 91040, Note_on_c, 1, 59, 127
2, 91040, Note_on_c, 1, 61, 127
2, 91040, Note_off_c, 1, 82, 0
2, 91040, Note_off_c, 1, 85, 0
2, 91040, Note_on_c, 1, 86, 127
2, 91040, Note_off_c, 1, 91, 0
2, 91080, Note_off_c, 1, 49, 0
2, 91080, Note_off_c, 1, 53, 0
2, 91080, Note_off_c, 1, 56, 0
2, 91080, Note_off_c, 1, 59, 0
2, 91080, Note_off_c, 1, 61, 0
2, 91080, Note_on_c, 1, 62, 127
2, 91080, Note_on_c, 1, 67, 127
2, 91080, Note_on_c, 1, 70, 127
2, 91080, Note_off_c, 1, 86, 0
2, 91080, Note_on_c, 1, 91, 127
2, 91120, Note_on_c, 1, 49, 127
2, 91120, Note_on_c, 1, 53, 127
2, 91120, Note_on_c, 1, 56, 127
2, 91120, Note_on_c, 1, 59, 127
2, 91120, Note_on_c, 1, 61, 127
2, 91120, Note_off_c, 1, 62, 0
2, 91120, Note_off_c, 1, 67, 0
2, 91120, Note_off_c, 1, 70, 0
2, 91120, Note_on_c, 1, 86, 127
2, 91120, Note_off_c, 1, 91, 0
2, 91480, Note_off_c, 1, 49, 0
2, 91480, Note_off_c, 1, 53, 0
2, 91480, Note_off_c, 1, 56, 0
2, 91480, Note_off_c, 1, 59, 0
2, 91480, Note_off_c, 1, 61, 0
2, 91480, Note_off_c, 1, 86, 0
2, 91520, Note_on_c, 1, 52, 127
2, 91520, Note_on_c, 1, 58, 127
2, 91520, Note_on_c, 1, 61, 127
2, 91520, Note_on_c, 1, 64, 127
2, 91520, Note_on_c, 1, 66, 127
2, 91520, Note_on_c, 1, 73, 127
2, 91920, Note_on_c, 1, 49, 127
2, 91920, Note_off_c, 1, 52, 0
2, 91920, Note_on_c, 1, 56, 127
2, 91920, Note_off_c, 1, 58, 0
2, 91920, Note_on_c, 1, 59, 127
2, 91920, Note_off_c, 1, 61, 0
2, 91920, Note_on_c, 1, 63, 127
2, 91920, Note_off_c, 1, 64, 0
2, 91920, Note_on_c, 1, 68, 127
2, 91920, Note_off_c, 1, 73, 0
2, 91960, Note_off_c, 1, 49, 0
2, 91960, Note_on_c, 1, 55, 127
2, 91960, Note_off_c, 1, 56, 0
2, 91960, Note_on_c, 1, 57, 127
2, 91960, Note_off_c, 1, 59, 0
2, 91960, Note_off_c, 1, 63, 0
2, 91960, Note_on_c, 1, 64, 127
2, 91960, Note_off_c, 1, 66, 0
2, 91960, Note_off_c, 1, 68, 0
2, 91960, Note_on_c, 1, 70, 127
2, 92000, Note_off_c, 1, 55, 0
2, 92000, Note_off_c, 1, 57, 0
2, 92000, Note_off_c, 1, 64, 0
2, 92000, Note_off_c, 1, 70, 0
2, 92120, Note_on_c, 1, 47, 127
2, 92120, Note_on_c, 1, 58, 127
2, 92120, Note_on_c, 1, 64, 127
2, 92160, Note_off_c, 1, 47, 0
2, 92160, Note_off_c, 1, 58, 0
2, 92160, Note_off_c, 1, 64, 0
2, 92160, Note_on_c, 1, 79, 127
2, 92160, Note_on_c, 1, 82, 127
2, 92160, Note_on_c, 1, 88, 127
2, 92160, Note_on_c, 1, 100, 127
2, 92200, Note_on_c, 1, 47, 127
2, 92200, Note_on_c, 1, 58, 127
2, 92200, Note_on_c, 1, 66, 127
2, 92200, Note_off_c, 1, 79, 0
2, 92200, Note_off_c, 1, 82, 0
2, 92200, Note_off_c, 1, 88, 0
2, 92200, Note_off_c, 1, 100, 0
2, 92520, Note_off_c, 1, 47, 0
2, 92520, Note_off_c, 1, 58, 0
2, 92520, Note_off_c, 1, 66, 0
2, 92560, Note_on_c, 1, 47, 127
2, 92560, Note_on_c, 1, 58, 127
2, 92560, Note_on_c, 1, 66, 127
2, 92680, Note_off_c, 1, 47, 0
2, 92680, Note_on_c, 1, 54, 127
2, 92680, Note_off_c, 1, 58, 0
2, 92680, Note_off_c, 1, 66, 0
2, 92720, Note_off_c, 1, 54, 0
2, 92760, Note_on_c, 1, 50, 127
2, 92760, Note_on_c, 1, 55, 127
2, 92760, Note_on_c, 1, 60, 127
2, 92760, Note_on_c, 1, 62, 127
2, 92760, Note_on_c, 1, 69, 127
2, 93320, Note_off_c, 1, 50, 0
2, 93320, Note_off_c, 1, 55, 0
2, 93320, Note_off_c, 1, 60, 0
2, 93320, Note_off_c, 1, 62, 0
2, 93320, Note_off_c, 1, 69, 0
2, 93360, Note_on_c, 1, 41, 127
2, 93360, Note_on_c, 1, 48, 127
2, 93360, Note_on_c, 1, 60, 127
2, 93360, Note_on_c, 1, 65, 127
2, 93360, Note_on_c, 1, 69, 127
2, 94520, Note_off_c, 1, 41, 0
2, 94520, Note_off_c, 1, 48, 0
2, 94520, Note_off_c, 1, 60, 0
2, 94520, Note_off_c, 1, 65, 0
2, 94520, Note_off_c, 1, 69, 0
2, 94600, Note_on_c, 1, 41, 127
2, 94600, Note_on_c, 1, 51, 127
2, 94600, Note_on_c, 1, 60, 127
2, 94600, Note_on_c, 1, 65, 127
2, 94600, Note_on_c, 1, 69, 127
2, 94600, Note_on_c, 1, 72, 127
2, 95160, Note_on_c, 1, 53, 127
2, 96320, Note_off_c, 1, 41, 0
2, 96320, Note_off_c, 1, 51, 0
2, 96320, Note_off_c, 1, 53, 0
2, 96320, Note_off_c, 1, 60, 0
2, 96320, Note_off_c, 1, 65, 0
2, 96320, Note_off_c, 1, 69, 0
2, 96320, Note_off_c, 1, 72, 0
2, 96400, Note_on_c, 1, 41, 127
2, 96400, Note_on_c, 1, 51, 127
2, 96400, Note_on_c, 1, 53, 127
2, 96400, Note_on_c, 1, 60, 127
2, 96400, Note_on_c, 1, 65, 127
2, 96400, Note_on_c, 1, 69, 127
2, 96400, Note_on_c, 1, 72, 127
2, 96800, Note_off_c, 1, 41, 0
2, 96800, Note_off_c, 1, 51, 0
2, 96800, Note_off_c, 1, 53, 0
2, 96800, Note_off_c, 1, 60, 0
2, 96800, Note_off_c, 1, 65, 0
2, 96800, Note_off_c, 1, 69, 0
2, 96800, Note_off_c, 1, 72, 0
2, 96840, Note_on_c, 1, 41, 127
2, 96840, Note_on_c, 1, 51, 127
2, 96840, Note_on_c, 1, 53, 127
2, 96840, Note_on_c, 1, 60, 127
2, 96840, Note_on_c, 1, 65, 127
2, 96840, Note_on_c, 1, 69, 127
2, 96840, Note_on_c, 1, 72, 127
2, 97600, Note_off_c, 1, 41, 0
2, 97600, Note_off_c, 1, 51, 0
2, 97600, Note_off_c, 1, 53, 0
2, 97600, Note_off_c, 1, 60, 0
2, 97600, Note_off_c, 1, 65, 0
2, 97600, Note_off_c, 1, 69, 0
2, 97600, Note_off_c, 1, 72, 0
2, 97640, Note_on_c, 1, 58, 127
2, 97640, Note_on_c, 1, 61, 127
2, 97640, Note_on_c, 1, 65, 127
2, 97640, Note_on_c, 1, 70, 127
2, 97640, Note_on_c, 1, 73, 127
2, 98800, Note_off_c, 1, 58, 0
2, 98800, Note_off_c, 1, 61, 0
2, 98800, Note_off_c, 1, 65, 0
2, 98800, Note_off_c, 1, 70, 0
2, 98800, Note_off_c, 1, 73, 0
2, 98880, Note_on_c, 1, 41, 127
2, 98880, Note_on_c, 1, 49, 127
2, 98880, Note_on_c, 1, 59, 127
2, 98880, Note_on_c, 1, 73, 127
2, 98920, Note_off_c, 1, 41, 0
2, 98920, Note_on_c, 1, 48, 127
2, 98920, Note_off_c, 1, 49, 0
2, 98920, Note_off_c, 1, 59, 0
2, 98920, Note_on_c, 1, 61, 127
2, 98960, Note_on_c, 1, 41, 127
2, 98960, Note_off_c, 1, 48, 0
2, 98960, Note_on_c, 1, 49, 127
2, 98960, Note_on_c, 1, 59, 127
2, 98960, Note_off_c, 1, 61, 0
2, 99080, Note_on_c, 1, 24, 127
2, 99080, Note_on_c, 1, 36, 127
2, 99080, Note_off_c, 1, 41, 0
2, 99080, Note_off_c, 1, 49, 0
2, 99080, Note_off_c, 1, 59, 0
2, 99080, Note_off_c, 1, 73, 0
2, 99080, Note_on_c, 1, 79, 127
2, 99120, Note_off_c, 1, 24, 0
2, 99120, Note_off_c, 1, 36, 0
2, 99120, Note_on_c, 1, 56, 127
2, 99120, Note_on_c, 1, 75, 127
2, 99120, Note_off_c, 1, 79, 0
2, 99120, Note_on_c, 1, 83, 127
2, 99160, Note_on_c, 1, 63, 127
2, 99160, Note_off_c, 1, 75, 0
2, 99160, Note_on_c, 1, 77, 127
2, 99160, Note_off_c, 1, 83, 0
2, 99160, Note_on_c, 1, 85, 127
2, 99440, Note_off_c, 1, 56, 0
2, 99440, Note_off_c, 1, 63, 0
2, 99440, Note_off_c, 1, 77, 0
2, 99440, Note_off_c, 1, 85, 0
2, 99480, Note_on_c, 1, 50, 127
2, 99480, Note_on_c, 1, 62, 127
2, 99480, Note_on_c, 1, 79, 127
2, 99480, Note_on_c, 1, 83, 127
2, 99480, Note_on_c, 1, 86, 127
2, 100000, Note_off_c, 1, 50, 0
2, 100000, Note_off_c, 1, 62, 0
2, 100000, Note_off_c, 1, 79, 0
2, 100000, Note_off_c, 1, 83, 0
2, 100000, Note_off_c, 1, 86, 0
2, 100080, Note_on_c, 1, 49, 127
2, 100080, Note_on_c, 1, 53, 127
2, 100080, Note_on_c, 1, 59, 127
2, 100080, Note_on_c, 1, 61, 127
2, 100080, Note_on_c, 1, 68, 127
2, 100080, Note_on_c, 1, 73, 127
2, 100880, Note_off_c, 1, 49, 0
2, 100880, Note_off_c, 1, 53, 0
2, 100880, Note_off_c, 1, 59, 0
2, 100880, Note_off_c, 1, 61, 0
2, 100880, Note_off_c, 1, 68, 0
2, 100880, Note_off_c, 1, 73, 0
2, 100920, Note_on_c, 1, 49, 127
2, 100920, Note_on_c, 1, 53, 127
2, 100920, Note_on_c, 1, 59, 127
2, 100920, Note_on_c, 1, 61, 127
2, 100920, Note_on_c, 1, 68, 127
2, 100920, Note_on_c, 1, 73, 127
2, 101280, Note_off_c, 1, 53, 0
2, 101280, Note_off_c, 1, 59, 0
2, 101280, Note_off_c, 1, 61, 0
2, 101280, Note_off_c, 1, 68, 0
2, 101320, Note_on_c, 1, 53, 127
2, 101320, Note_on_c, 1, 59, 127
2, 101320, Note_on_c, 1, 61, 127
2, 101320, Note_on_c, 1, 68, 127
2, 102480, Note_off_c, 1, 49, 0
2, 102480, Note_off_c, 1, 53, 0
2, 102480, Note_off_c, 1, 59, 0
2, 102480, Note_off_c, 1, 61, 0
2, 102480, Note_off_c, 1, 68, 0
2, 102480, Note_off_c, 1, 73, 0
2, 102520, Note_on_c, 1, 49, 127
2, 102520, Note_on_c, 1, 53, 127
2, 102520, Note_on_c, 1, 59, 127
2, 102520, Note_on_c, 1, 61, 127
2, 102520, Note_on_c, 1, 68, 127
2, 102520, Note_on_c, 1, 73, 127
2, 103080, Note_off_c, 1, 53, 0
2, 103080, Note_off_c, 1, 59, 0
2, 103080, Note_off_c, 1, 61, 0
2, 103080, Note_off_c, 1, 68, 0
2, 103120, Note_off_c, 1, 49, 0
2, 103120, Note_off_c, 1, 73, 0
2, 103160, Note_on_c, 1, 49, 127
2, 103160, Note_on_c, 1, 53, 127
2, 103160, Note_on_c, 1, 59, 127
2, 103160, Note_on_c, 1, 61, 127
2, 103160, Note_on_c, 1, 68, 127
2, 103160, Note_on_c, 1, 73, 127
2, 103720, Note_off_c, 1, 53, 0
2, 103720, Note_off_c, 1, 59, 0
2, 103720, Note_off_c, 1, 61, 0
2, 103720, Note_off_c, 1, 68, 0
2, 103760, Note_off_c, 1, 49, 0
2, 103760, Note_on_c, 1, 64, 127
2, 103760, Note_on_c, 1, 67, 127
2, 103760, Note_on_c, 1, 70, 127
2, 103760, Note_off_c, 1, 73, 0
2, 103760, Note_on_c, 1, 76, 127
2, 103760, Note_on_c, 1, 82, 127
2, 103760, Note_on_c, 1, 88, 127
2, 103800, Note_on_c, 1, 38, 127
2, 103800, Note_on_c, 1, 45, 127
2, 103800, Note_on_c, 1, 50, 127
2, 103800, Note_off_c, 1, 64, 0
2, 103800, Note_off_c, 1, 67, 0
2, 103800, Note_off_c, 1, 70, 0
2, 103800, Note_off_c, 1, 76, 0
2, 103800, Note_on_c, 1, 81, 127
2, 103800, Note_off_c, 1, 82, 0
2, 103800, Note_off_c, 1, 88, 0
2, 103800, Note_on_c, 1, 93, 127
2, 103840, Note_off_c, 1, 38, 0
2, 103840, Note_off_c, 1, 45, 0
2, 103840, Note_off_c, 1, 50, 0
2, 103840, Note_on_c, 1, 51, 127
2, 103840, Note_on_c, 1, 58, 127
2, 103840, Note_on_c, 1, 63, 127
2, 103840, Note_on_c, 1, 73, 127
2, 103840, Note_on_c, 1, 79, 127
2, 103840, Note_off_c, 1, 81, 0
2, 103840, Note_off_c, 1, 93, 0
2, 103880, Note_on_c, 1, 38, 127
2, 103880, Note_on_c, 1, 45, 127
2, 103880, Note_on_c, 1, 50, 127
2, 103880, Note_off_c, 1, 51, 0
2, 103880, Note_off_c, 1, 58, 0
2, 103880, Note_off_c, 1, 63, 0
2, 103880, Note_off_c, 1, 73, 0
2, 103880, Note_off_c, 1, 79, 0
2, 103880, Note_on_c, 1, 81, 127
2, 103880, Note_on_c, 1, 93, 127
2, 103920, Note_off_c, 1, 38, 0
2, 103920, Note_off_c, 1, 45, 0
2, 103920, Note_off_c, 1, 50, 0
2, 103920, Note_on_c, 1, 55, 127
2, 103920, Note_on_c, 1, 66, 127
2, 103920, Note_on_c, 1, 72, 127
2, 103920, Note_off_c, 1, 81, 0
2, 103920, Note_on_c, 1, 83, 127
2, 103920, Note_off_c, 1, 93, 0
2, 103960, Note_on_c, 1, 38, 127
2, 103960, Note_on_c, 1, 45, 127
2, 103960, Note_on_c, 1, 50, 127
2, 103960, Note_off_c, 1, 55, 0
2, 103960, Note_off_c, 1, 66, 0
2, 103960, Note_off_c, 1, 72, 0
2, 103960, Note_on_c, 1, 81, 127
2, 103960, Note_off_c, 1, 83, 0
2, 103960, Note_on_c, 1, 93, 127
2, 104320, Note_off_c, 1, 38, 0
2, 104320, Note_off_c, 1, 45, 0
2, 104320, Note_off_c, 1, 50, 0
2, 104320, Note_off_c, 1, 81, 0
2, 104320, Note_off_c, 1, 93, 0
2, 104360, Note_on_c, 1, 57, 127
2, 104360, Note_on_c, 1, 62, 127
2, 104360, Note_on_c, 1, 69, 127
2, 104360, Note_on_c, 1, 72, 127
2, 104360, Note_on_c, 1, 84, 127
2, 104400, Note_on_c, 1, 44, 127
2, 104400, Note_off_c, 1, 57, 0
2, 104400, Note_off_c, 1, 62, 0
2, 104400, Note_on_c, 1, 66, 127
2, 104400, Note_off_c, 1, 72, 0
2, 104400, Note_on_c, 1, 73, 127
2, 104400, Note_off_c, 1, 84, 0
2, 104440, Note_off_c, 1, 44, 0
2, 104440, Note_on_c, 1, 53, 127
2, 104440, Note_on_c, 1, 63, 127
2, 104440, Note_off_c, 1, 66, 0
2, 104440, Note_off_c, 1, 69, 0
2, 104480, Note_on_c, 1, 36, 127
2, 104480, Note_on_c, 1, 48, 127
2, 104480, Note_off_c, 1, 53, 0
2, 104480, Note_off_c, 1, 63, 0
2, 104480, Note_on_c, 1, 65, 127
2, 104480, Note_off_c, 1, 73, 0
2, 104480, Note_on_c, 1, 74, 127
2, 104480, Note_on_c, 1, 77, 127
2, 104520, Note_off_c, 1, 36, 0
2, 104520, Note_off_c, 1, 48, 0
2, 104520, Note_on_c, 1, 55, 127
2, 104520, Note_on_c, 1, 61, 127
2, 104520, Note_on_c, 1, 72, 127
2, 104520, Note_off_c, 1, 74, 0
2, 104520, Note_off_c, 1, 77, 0
2, 104560, Note_off_c, 1, 61, 0
2, 104560, Note_on_c, 1, 63, 127
2, 104560, Note_off_c, 1, 65, 0
2, 104560, Note_on_c, 1, 66, 127
2, 104600, Note_on_c, 1, 46, 127
2, 104600, Note_on_c, 1, 50, 127
2, 104600, Note_on_c, 1, 54, 127
2, 104600, Note_off_c, 1, 55, 0
2, 104600, Note_off_c, 1, 63, 0
2, 104600, Note_off_c, 1, 72, 0
2, 104600, Note_on_c, 1, 74, 127
2, 104600, Note_on_c, 1, 78, 127
2, 104640, Note_off_c, 1, 46, 0
2, 104640, Note_off_c, 1, 50, 0
2, 104640, Note_off_c, 1, 54, 0
2, 104640, Note_on_c, 1, 62, 127
2, 104640, Note_on_c, 1, 71, 127
2, 104640, Note_off_c, 1, 74, 0
2, 104640, Note_off_c, 1, 78, 0
2, 104640, Note_on_c, 1, 85, 127
2, 104680, Note_on_c, 1, 58, 127
2, 104680, Note_off_c, 1, 62, 0
2, 104680, Note_off_c, 1, 66, 0
2, 104680, Note_on_c, 1, 76, 127
2, 104680, Note_on_c, 1, 83, 127
2, 104680, Note_off_c, 1, 85, 0
2, 104720, Note_on_c, 1, 49, 127
2, 104720, Note_on_c, 1, 53, 127
2, 104720, Note_on_c, 1, 56, 127
2, 104720, Note_off_c, 1, 58, 0
2, 104720, Note_on_c, 1, 59, 127
2, 104720, Note_on_c, 1, 65, 127
2, 104720, Note_on_c, 1, 68, 127
2, 104720, Note_off_c, 1, 71, 0
2, 104720, Note_off_c, 1, 76, 0
2, 104720, Note_off_c, 1, 83, 0
2, 104760, Note_off_c, 1, 49, 0
2, 104760, Note_off_c, 1, 53, 0
2, 104760, Note_off_c, 1, 59, 0
2, 104760, Note_on_c, 1, 62, 127
2, 104760, Note_off_c, 1, 65, 0
2, 104760, Note_on_c, 1, 73, 127
2, 104800, Note_on_c, 1, 51, 127
2, 104800, Note_on_c, 1, 54, 127
2, 104800, Note_off_c, 1, 62, 0
2, 104800, Note_off_c, 1, 68, 0
2, 104800, Note_on_c, 1, 70, 127
2, 104800, Note_off_c, 1, 73, 0
2, 104920, Note_off_c, 1, 51, 0
2, 104920, Note_off_c, 1, 54, 0
2, 104920, Note_off_c, 1, 56, 0
2, 104920, Note_off_c, 1, 70, 0
2, 104960, Note_on_c, 1, 53, 127
2, 104960, Note_on_c, 1, 56, 127
2, 104960, Note_on_c, 1, 61, 127
2, 104960, Note_on_c, 1, 73, 127
2, 105360, Note_off_c, 1, 53, 0
2, 105360, Note_off_c, 1, 56, 0
2, 105360, Note_off_c, 1, 61, 0
2, 105360, Note_off_c, 1, 73, 0
2, 105400, Note_on_c, 1, 53, 127
2, 105400, Note_on_c, 1, 56, 127
2, 105400, Note_on_c, 1, 61, 127
2, 105400, Note_on_c, 1, 73, 127
2, 106000, Note_off_c, 1, 73, 0
2, 106040, Note_on_c, 1, 73, 127
2, 106160, Note_off_c, 1, 53, 0
2, 106160, Note_off_c, 1, 56, 0
2, 106160, Note_off_c, 1, 61, 0
2, 106160, Note_off_c, 1, 73, 0
2, 106200, Note_on_c, 1, 53, 127
2, 106200, Note_on_c, 1, 56, 127
2, 106200, Note_on_c, 1, 61, 127
2, 106200, Note_on_c, 1, 73, 127
2, 106760, Note_off_c, 1, 53, 0
2, 106760, Note_off_c, 1, 56, 0
2, 106760, Note_off_c, 1, 61, 0
2, 106760, Note_off_c, 1, 73, 0
2, 106800, Note_on_c, 1, 49, 127
2, 106800, Note_on_c, 1, 55, 127
2, 106800, Note_on_c, 1, 58, 127
2, 106800, Note_on_c, 1, 70, 127
2, 107360, Note_off_c, 1, 55, 0
2, 107360, Note_off_c, 1, 58, 0
2, 107400, Note_on_c, 1, 51, 127
2, 107400, Note_on_c, 1, 63, 127
2, 107600, Note_off_c, 1, 49, 0
2, 107600, Note_off_c, 1, 51, 0
2, 107600, Note_off_c, 1, 63, 0
2, 107600, Note_off_c, 1, 70, 0
2, 107640, Note_on_c, 1, 49, 127
2, 107640, Note_on_c, 1, 51, 127
2, 107640, Note_on_c, 1, 63, 127
2, 107640, Note_on_c, 1, 70, 127
2, 108000, Note_off_c, 1, 49, 0
2, 108000, Note_off_c, 1, 51, 0
2, 108000, Note_off_c, 1, 63, 0
2, 108000, Note_off_c, 1, 70, 0
2, 108040, Note_on_c, 1, 49, 127
2, 108040, Note_on_c, 1, 55, 127
2, 108040, Note_on_c, 1, 58, 127
2, 108040, Note_on_c, 1, 61, 127
2, 108600, Note_off_c, 1, 49, 0
2, 108600, Note_off_c, 1, 55, 0
2, 108600, Note_off_c, 1, 58, 0
2, 108640, Note_on_c, 1, 49, 127
2, 108640, Note_on_c, 1, 55, 127
2, 108640, Note_on_c, 1, 58, 127
2, 109640, Note_on_c, 1, 39, 127
2, 109640, Note_off_c, 1, 49, 0
2, 109640, Note_on_c, 1, 51, 127
2, 109640, Note_off_c, 1, 55, 0
2, 109640, Note_off_c, 1, 58, 0
2, 109640, Note_on_c, 1, 63, 127
2, 109640, Note_on_c, 1, 67, 127
2, 109640, Note_on_c, 1, 70, 127
2, 109680, Note_off_c, 1, 39, 0
2, 109680, Note_off_c, 1, 51, 0
2, 109680, Note_off_c, 1, 61, 0
2, 109680, Note_off_c, 1, 63, 0
2, 109680, Note_off_c, 1, 67, 0
2, 109680, Note_off_c, 1, 70, 0
2, 109720, Note_on_c, 1, 39, 127
2, 109720, Note_on_c, 1, 51, 127
2, 109720, Note_on_c, 1, 61, 127
2, 109720, Note_on_c, 1, 63, 127
2, 109720, Note_on_c, 1, 67, 127
2, 109720, Note_on_c, 1, 70, 127
2, 109800, Note_off_c, 1, 39, 0
2, 109800, Note_off_c, 1, 51, 0
2, 109800, Note_off_c, 1, 61, 0
2, 109800, Note_off_c, 1, 63, 0
2, 109800, Note_off_c, 1, 67, 0
2, 109800, Note_off_c, 1, 70, 0
2, 109880, Note_on_c, 1, 34, 127
2, 109880, Note_on_c, 1, 46, 127
2, 109880, Note_on_c, 1, 54, 127
2, 109880, Note_on_c, 1, 61, 127
2, 109880, Note_on_c, 1, 64, 127
2, 109880, Note_on_c, 1, 66, 127
2, 111040, Note_off_c, 1, 34, 0
2, 111040, Note_off_c, 1, 46, 0
2, 111040, Note_off_c, 1, 54, 0
2, 111040, Note_off_c, 1, 61, 0
2, 111040, Note_off_c, 1, 64, 0
2, 111040, Note_off_c, 1, 66, 0
2, 111080, Note_on_c, 1, 34, 127
2, 111080, Note_on_c, 1, 46, 127
2, 111080, Note_on_c, 1, 54, 127
2, 111080, Note_on_c, 1, 61, 127
2, 111080, Note_on_c, 1, 64, 127
2, 111080, Note_on_c, 1, 66, 127
2, 111880, Note_off_c, 1, 34, 0
2, 111880, Note_off_c, 1, 46, 0
2, 111880, Note_off_c, 1, 54, 0
2, 111880, Note_off_c, 1, 61, 0
2, 111880, Note_off_c, 1, 64, 0
2, 111880, Note_off_c, 1, 66, 0
2, 111920, Note_on_c, 1, 34, 127
2, 111920, Note_on_c, 1, 46, 127
2, 111920, Note_on_c, 1, 54, 127
2, 111920, Note_on_c, 1, 61, 127
2, 111920, Note_on_c, 1, 64, 127
2, 111920, Note_on_c, 1, 66, 127
2, 112280, Note_off_c, 1, 34, 0
2, 112280, Note_off_c, 1, 46, 0
2, 112280, Note_off_c, 1, 54, 0
2, 112280, Note_off_c, 1, 61, 0
2, 112280, Note_off_c, 1, 64, 0
2, 112280, Note_off_c, 1, 66, 0
2, 112320, Note_on_c, 1, 34, 127
2, 112320, Note_on_c, 1, 46, 127
2, 112320, Note_on_c, 1, 54, 127
2, 112320, Note_on_c, 1, 61, 127
2, 112320, Note_on_c, 1, 64, 127
2, 112320, Note_on_c, 1, 66, 127
2, 113480, Note_off_c, 1, 34, 0
2, 113480, Note_off_c, 1, 46, 0
2, 113480, Note_off_c, 1, 54, 0
2, 113480, Note_off_c, 1, 61, 0
2, 113480, Note_off_c, 1, 64, 0
2, 113480, Note_off_c, 1, 66, 0
2, 113520, Note_on_c, 1, 34, 127
2, 113520, Note_on_c, 1, 46, 127
2, 113520, Note_on_c, 1, 54, 127
2, 113520, Note_on_c, 1, 61, 127
2, 113520, Note_on_c, 1, 64, 127
2, 113520, Note_on_c, 1, 66, 127
2, 113920, Note_off_c, 1, 34, 0
2, 113920, Note_off_c, 1, 46, 0
2, 113920, Note_off_c, 1, 54, 0
2, 113920, Note_off_c, 1, 61, 0
2, 113920, Note_off_c, 1, 64, 0
2, 113920, Note_off_c, 1, 66, 0
2, 113960, Note_on_c, 1, 34, 127
2, 113960, Note_on_c, 1, 46, 127
2, 113960, Note_on_c, 1, 54, 127
2, 113960, Note_on_c, 1, 61, 127
2, 113960, Note_on_c, 1, 64, 127
2, 113960, Note_on_c, 1, 66, 127
2, 114720, Note_off_c, 1, 34, 0
2, 114720, Note_off_c, 1, 46, 0
2, 114720, Note_off_c, 1, 54, 0
2, 114720, Note_off_c, 1, 61, 0
2, 114720, Note_off_c, 1, 64, 0
2, 114720, Note_off_c, 1, 66, 0
2, 114760, Note_on_c, 1, 34, 127
2, 114760, Note_on_c, 1, 46, 127
2, 114760, Note_on_c, 1, 54, 127
2, 114760, Note_on_c, 1, 61, 127
2, 114760, Note_on_c, 1, 64, 127
2, 114760, Note_on_c, 1, 66, 127
2, 115920, Note_off_c, 1, 34, 0
2, 115920, Note_off_c, 1, 46, 0
2, 115920, Note_off_c, 1, 54, 0
2, 115920, Note_off_c, 1, 61, 0
2, 115920, Note_off_c, 1, 64, 0
2, 115920, Note_off_c, 1, 66, 0
2, 116000, Note_on_c, 1, 34, 127
2, 116000, Note_on_c, 1, 46, 127
2, 116000, Note_on_c, 1, 54, 127
2, 116000, Note_on_c, 1, 61, 127
2, 116000, Note_on_c, 1, 64, 127
2, 116000, Note_on_c, 1, 66, 127
2, 117160, Note_off_c, 1, 34, 0
2, 117160, Note_off_c, 1, 46, 0
2, 117160, Note_off_c, 1, 54, 0
2, 117160, Note_off_c, 1, 61, 0
2, 117160, Note_off_c, 1, 64, 0
2, 117160, Note_off_c, 1, 66, 0
2, 117200, Note_on_c, 1, 34, 127
2, 117200, Note_on_c, 1, 46, 127
2, 117200, Note_on_c, 1, 54, 127
2, 117200, Note_on_c, 1, 61, 127
2, 117200, Note_on_c, 1, 64, 127
2, 117200, Note_on_c, 1, 66, 127
2, 117960, Note_off_c, 1, 54, 0
2, 118000, Note_on_c, 1, 54, 127
2, 118200, Note_off_c, 1, 34, 0
2, 118200, Note_off_c, 1, 46, 0
2, 118200, Note_off_c, 1, 54, 0
2, 118200, Note_off_c, 1, 61, 0
2, 118200, Note_off_c, 1, 64, 0
2, 118200, Note_off_c, 1, 66, 0
2, 118240, Note_on_c, 1, 34, 127
2, 118240, Note_on_c, 1, 46, 127
2, 118240, Note_on_c, 1, 54, 127
2, 118240, Note_on_c, 1, 61, 127
2, 118240, Note_on_c, 1, 64, 127
2, 118240, Note_on_c, 1, 66, 127
2, 119000, Note_off_c, 1, 34, 0
2, 119000, Note_off_c, 1, 46, 0
2, 119000, Note_off_c, 1, 54, 0
2, 119000, Note_off_c, 1, 61, 0
2, 119000, Note_off_c, 1, 64, 0
2, 119000, Note_off_c, 1, 66, 0
2, 119040, Note_on_c, 1, 34, 127
2, 119040, Note_on_c, 1, 46, 127
2, 119040, Note_on_c, 1, 54, 127
2, 119040, Note_on_c, 1, 61, 127
2, 119040, Note_on_c, 1, 64, 127
2, 119040, Note_on_c, 1, 66, 127
2, 119440, Note_off_c, 1, 54, 0
2, 119480, Note_on_c, 1, 54, 127
2, 119520, Note_off_c, 1, 54, 0
2, 119560, Note_on_c, 1, 54, 127
2, 120000, Note_off_c, 1, 34, 0
2, 120000, Note_off_c, 1, 46, 0
2, 120000, Note_off_c, 1, 54, 0
2, 120000, Note_off_c, 1, 61, 0
2, 120000, Note_off_c, 1, 64, 0
2, 120000, Note_off_c, 1, 66, 0
2, 120040, End_track
3, 0, Start_track
3, 0, Title_t, "MIDI"
3, 1536, End_track
0, 0, End_of_file
