0, 0, Header, 1, 3, 192
1, 0, Start_track
1, 0, Time_signature, 4, 2, 24, 8
1, 0, Tempo, 500000
1, 120040, End_track
2, 0, Start_track
2, 0, Text_t, "random instrument: random person i dunno whatev"
2, 0, Title_t, "Track 1"
2, 0, Note_on_c, 1, 58, 127
2, 0, Note_on_c, 1, 66, 127
2, 0, Note_on_c, 1, 78, 127
2, 0, Note_on_c, 1, 82, 127
2, 0, Note_on_c, 1, 90, 127
2, 40, Note_off_c, 1, 58, 0
2, 40, Note_on_c, 1, 59, 127
2, 40, Note_off_c, 1, 66, 0
2, 40, Note_on_c, 1, 74, 127
2, 40, Note_off_c, 1, 82, 0
2, 40, Note_on_c, 1, 83, 127
2, 40, Note_on_c, 1, 86, 127
2, 40, Note_off_c, 1, 90, 0
2, 80, Note_off_c, 1, 59, 0
2, 80, Note_off_c, 1, 74, 0
2, 80, Note_off_c, 1, 78, 0
2, 80, Note_off_c, 1, 83, 0
2, 80, Note_off_c, 1, 86, 0
2, 120, Note_on_c, 1, 58, 127
2, 120, Note_on_c, 1, 66, 127
2, 120, Note_on_c, 1, 78, 127
2, 120, Note_on_c, 1, 82, 127
2, 120, Note_on_c, 1, 90, 127
2, 360, Note_off_c, 1, 58, 0
2, 360, Note_off_c, 1, 66, 0
2, 360, Note_off_c, 1, 78, 0
2, 360, Note_off_c, 1, 82, 0
2, 360, Note_off_c, 1, 90, 0
2, 400, Note_on_c, 1, 51, 127
2, 400, Note_on_c, 1, 59, 127
2, 400, Note_on_c, 1, 71, 127
2, 400, Note_on_c, 1, 75, 127
2, 840, Note_off_c, 1, 51, 0
2, 840, Note_off_c, 1, 59, 0
2, 840, Note_off_c, 1, 71, 0
2, 840, Note_off_c, 1, 75, 0
2, 880, Note_on_c, 1, 44, 127
2, 880, Note_on_c, 1, 51, 127
2, 880, Note_on_c, 1, 63, 127
2, 880, Note_on_c, 1, 68, 127
2, 1640, Note_off_c, 1, 44, 0
2, 1640, Note_off_c, 1, 51, 0
2, 1640, Note_off_c, 1, 63, 0
2, 1640, Note_off_c, 1, 68, 0
2, 1680, Note_on_c, 1, 39, 127
2, 1680, Note_on_c, 1, 67, 127
2, 1680, Note_on_c, 1, 70, 127
2, 2040, Note_off_c, 1, 39, 0
2, 2040, Note_off_c, 1, 67, 0
2, 2040, Note_off_c, 1, 70, 0
2, 2080, Note_on_c, 1, 51, 127
2, 2080, Note_on_c, 1, 67, 127
2, 2280, Note_off_c, 1, 51, 0
2, 2280, Note_off_c, 1, 67, 0
2, 2360, Note_on_c, 1, 51, 127
2, 2360, Note_on_c, 1, 67, 127
2, 2520, Note_off_c, 1, 67, 0
2, 2560, Note_on_c, 1, 70, 127
2, 2760, Note_off_c, 1, 51, 0
2, 2760, Note_off_c, 1, 70, 0
2, 2800, Note_on_c, 1, 48, 127
2, 2800, Note_on_c, 1, 67, 127
2, 2800, Note_on_c, 1, 72, 127
2, 3160, Note_off_c, 1, 48, 0
2, 3160, Note_off_c, 1, 67, 0
2, 3160, Note_off_c, 1, 72, 0
2, 3200, Note_on_c, 1, 48, 127
2, 3200, Note_on_c, 1, 55, 127
2, 3200, Note_on_c, 1, 63, 127
2, 3200, Note_on_c, 1, 75, 127
2, 3960, Note_off_c, 1, 48, 0
2, 3960, Note_off_c, 1, 55, 0
2, 3960, Note_off_c, 1, 63, 0
2, 3960, Note_off_c, 1, 75, 0
2, 4000, Note_on_c, 1, 46, 127
2, 4000, Note_on_c, 1, 51, 127
2, 4000, Note_on_c, 1, 67, 127
2, 4000, Note_on_c, 1, 75, 127
2, 4000, Note_on_c, 1, 79, 127
2, 4400, Note_off_c, 1, 46, 0
2, 4400, Note_off_c, 1, 51, 0
2, 4400, Note_off_c, 1, 67, 0
2, 4400, Note_off_c, 1, 75, 0
2, 4400, Note_off_c, 1, 79, 0
2, 4480, Note_on_c, 1, 46, 127
2, 4480, Note_on_c, 1, 51, 127
2, 4480, Note_on_c, 1, 67, 127
2, 4480, Note_on_c, 1, 75, 127
2, 4480, Note_on_c, 1, 79, 127
2, 4840, Note_off_c, 1, 46, 0
2, 4840, Note_off_c, 1, 51, 0
2, 4840, Note_off_c, 1, 67, 0
2, 4840, Note_off_c, 1, 75, 0
2, 4840, Note_off_c, 1, 79, 0
2, 4880, Note_on_c, 1, 46, 127
2, 4880, Note_on_c, 1, 51, 127
2, 4880, Note_on_c, 1, 67, 127
2, 4880, Note_on_c, 1, 75, 127
2, 4880, Note_on_c, 1, 79, 127
2, 5240, Note_off_c, 1, 46, 0
2, 5240, Note_off_c, 1, 51, 0
2, 5240, Note_off_c, 1, 67, 0
2, 5240, Note_off_c, 1, 75, 0
2, 5240, Note_off_c, 1, 79, 0
2, 5280, Note_on_c, 1, 46, 127
2, 5280, Note_on_c, 1, 51, 127
2, 5280, Note_on_c, 1, 67, 127
2, 5280, Note_on_c, 1, 75, 127
2, 5280, Note_on_c, 1, 79, 127
2, 5640, Note_off_c, 1, 46, 0
2, 5640, Note_off_c, 1, 51, 0
2, 5640, Note_off_c, 1, 67, 0
2, 5640, Note_off_c, 1, 75, 0
2, 5640, Note_off_c, 1, 79, 0
2, 5680, Note_on_c, 1, 46, 127
2, 5680, Note_on_c, 1, 51, 127
2, 5680, Note_on_c, 1, 67, 127
2, 5680, Note_on_c, 1, 75, 127
2, 5680, Note_on_c, 1, 79, 127
2, 6040, Note_off_c, 1, 46, 0
2, 6040, Note_off_c, 1, 51, 0
2, 6040, Note_off_c, 1, 67, 0
2, 6040, Note_off_c, 1, 75, 0
2, 6040, Note_off_c, 1, 79, 0
2, 6080, Note_on_c, 1, 46, 127
2, 6080, Note_on_c, 1, 51, 127
2, 6080, Note_on_c, 1, 67, 127
2, 6080, Note_on_c, 1, 75, 127
2, 6080, Note_on_c, 1, 79, 127
2, 6440, Note_off_c, 1, 46, 0
2, 6440, Note_off_c, 1, 51, 0
2, 6440, Note_off_c, 1, 67, 0
2, 6440, Note_off_c, 1, 75, 0
2, 6440, Note_off_c, 1, 79, 0
2, 6480, Note_on_c, 1, 46, 127
2, 6480, Note_on_c, 1, 51, 127
2, 6480, Note_on_c, 1, 67, 127
2, 6480, Note_on_c, 1, 75, 127
2, 6480, Note_on_c, 1, 79, 127
2, 6840, Note_off_c, 1, 46, 0
2, 6840, Note_off_c, 1, 51, 0
2, 6840, Note_off_c, 1, 67, 0
2, 6840, Note_off_c, 1, 75, 0
2, 6840, Note_off_c, 1, 79, 0
2, 6920, Note_on_c, 1, 46, 127
2, 6920, Note_on_c, 1, 51, 127
2, 6920, Note_on_c, 1, 67, 127
2, 6920, Note_on_c, 1, 75, 127
2, 6920, Note_on_c, 1, 79, 127
2, 7280, Note_off_c, 1, 46, 0
2, 7280, Note_off_c, 1, 51, 0
2, 7280, Note_off_c, 1, 67, 0
2, 7280, Note_off_c, 1, 75, 0
2, 7280, Note_off_c, 1, 79, 0
2, 7320, Note_on_c, 1, 46, 127
2, 7320, Note_on_c, 1, 51, 127
2, 7320, Note_on_c, 1, 67, 127
2, 7320, Note_on_c, 1, 75, 127
2, 7320, Note_on_c, 1, 79, 127
2, 7680, Note_off_c, 1, 46, 0
2, 7680, Note_off_c, 1, 51, 0
2, 7680, Note_off_c, 1, 67, 0
2, 7680, Note_off_c, 1, 75, 0
2, 7680, Note_off_c, 1, 79, 0
2, 7720, Note_on_c, 1, 46, 127
2, 7720, Note_on_c, 1, 51, 127
2, 7720, Note_on_c, 1, 67, 127
2, 7720, Note_on_c, 1, 75, 127
2, 7720, Note_on_c, 1, 79, 127
2, 8080, Note_off_c, 1, 46, 0
2, 8080, Note_off_c, 1, 51, 0
2, 8080, Note_off_c, 1, 67, 0
2, 8080, Note_off_c, 1, 75, 0
2, 8080, Note_off_c, 1, 79, 0
2, 8120, Note_on_c, 1, 46, 127
2, 8120, Note_on_c, 1, 51, 127
2, 8120, Note_on_c, 1, 67, 127
2, 8120, Note_on_c, 1, 75, 127
2, 8120, Note_on_c, 1, 79, 127
2, 8440, Note_on_c, 1, 33, 127
2, 8440, Note_on_c, 1, 45, 127
2, 8440, Note_off_c, 1, 46, 0
2, 8440, Note_off_c, 1, 51, 0
2, 8440, Note_on_c, 1, 73, 127
2, 8440, Note_off_c, 1, 75, 0
2, 8480, Note_off_c, 1, 33, 0
2, 8480, Note_off_c, 1, 45, 0
2, 8480, Note_off_c, 1, 67, 0
2, 8480, Note_off_c, 1, 73, 0
2, 8480, Note_off_c, 1, 79, 0
2, 8520, Note_on_c, 1, 46, 127
2, 8520, Note_on_c, 1, 51, 127
2, 8520, Note_on_c, 1, 67, 127
2, 8520, Note_on_c, 1, 75, 127
2, 8520, Note_on_c, 1, 79, 127
2, 8880, Note_off_c, 1, 46, 0
2, 8880, Note_off_c, 1, 51, 0
2, 8880, Note_off_c, 1, 67, 0
2, 8880, Note_off_c, 1, 75, 0
2, 8880, Note_off_c, 1, 79, 0
2, 8920, Note_on_c, 1, 46, 127
2, 8920, Note_on_c, 1, 51, 127
2, 8920, Note_on_c, 1, 67, 127
2, 8920, Note_on_c, 1, 75, 127
2, 8920, Note_on_c, 1, 79, 127
2, 9120, Note_off_c, 1, 46, 0
2, 9120, Note_off_c, 1, 51, 0
2, 9120, Note_off_c, 1, 67, 0
2, 9120, Note_off_c, 1, 75, 0
2, 9120, Note_off_c, 1, 79, 0
2, 9160, Note_on_c, 1, 46, 127
2, 9160, Note_on_c, 1, 51, 127
2, 9160, Note_on_c, 1, 67, 127
2, 9160, Note_on_c, 1, 75, 127
2, 9160, Note_on_c, 1, 79, 127
2, 9320, Note_off_c, 1, 46, 0
2, 9320, Note_off_c, 1, 51, 0
2, 9320, Note_off_c, 1, 67, 0
2, 9320, Note_off_c, 1, 75, 0
2, 9320, Note_off_c, 1, 79, 0
2, 9360, Note_on_c, 1, 46, 127
2, 9360, Note_on_c, 1, 51, 127
2, 9360, Note_on_c, 1, 67, 127
2, 9360, Note_on_c, 1, 75, 127
2, 9360, Note_on_c, 1, 79, 127
2, 9720, Note_off_c, 1, 46, 0
2, 9720, Note_off_c, 1, 51, 0
2, 9720, Note_off_c, 1, 67, 0
2, 9720, Note_off_c, 1, 75, 0
2, 9720, Note_off_c, 1, 79, 0
2, 9760, Note_on_c, 1, 46, 127
2, 9760, Note_on_c, 1, 51, 127
2, 9760, Note_on_c, 1, 67, 127
2, 9760, Note_on_c, 1, 75, 127
2, 9760, Note_on_c, 1, 79, 127
2, 10120, Note_off_c, 1, 46, 0
2, 10120, Note_off_c, 1, 51, 0
2, 10120, Note_off_c, 1, 67, 0
2, 10120, Note_off_c, 1, 75, 0
2, 10120, Note_off_c, 1, 79, 0
2, 10160, Note_on_c, 1, 46, 127
2, 10160, Note_on_c, 1, 51, 127
2, 10160, Note_on_c, 1, 67, 127
2, 10160, Note_on_c, 1, 75, 127
2, 10160, Note_on_c, 1, 79, 127
2, 10520, Note_off_c, 1, 46, 0
2, 10520, Note_off_c, 1, 51, 0
2, 10520, Note_off_c, 1, 67, 0
2, 10520, Note_off_c, 1, 75, 0
2, 10520, Note_off_c, 1, 79, 0
2, 10560, Note_on_c, 1, 46, 127
2, 10560, Note_on_c, 1, 51, 127
2, 10560, Note_on_c, 1, 67, 127
2, 10560, Note_on_c, 1, 75, 127
2, 10560, Note_on_c, 1, 79, 127
2, 10920, Note_off_c, 1, 46, 0
2, 10920, Note_off_c, 1, 51, 0
2, 10920, Note_off_c, 1, 67, 0
2, 10920, Note_off_c, 1, 75, 0
2, 10920, Note_off_c, 1, 79, 0
2, 10960, Note_on_c, 1, 46, 127
2, 10960, Note_on_c, 1, 51, 127
2, 10960, Note_on_c, 1, 67, 127
2, 10960, Note_on_c, 1, 75, 127
2, 10960, Note_on_c, 1, 79, 127
2, 11320, Note_off_c, 1, 46, 0
2, 11320, Note_off_c, 1, 51, 0
2, 11320, Note_off_c, 1, 67, 0
2, 11320, Note_off_c, 1, 75, 0
2, 11320, Note_off_c, 1, 79, 0
2, 11400, Note_on_c, 1, 46, 127
2, 11400, Note_on_c, 1, 51, 127
2, 11400, Note_on_c, 1, 67, 127
2, 11400, Note_on_c, 1, 75, 127
2, 11400, Note_on_c, 1, 79, 127
2, 11760, Note_off_c, 1, 46, 0
2, 11760, Note_off_c, 1, 51, 0
2, 11760, Note_off_c, 1, 67, 0
2, 11760, Note_off_c, 1, 75, 0
2, 11760, Note_off_c, 1, 79, 0
2, 11800, Note_on_c, 1, 46, 127
2, 11800, Note_on_c, 1, 51, 127
2, 11800, Note_on_c, 1, 67, 127
2, 11800, Note_on_c, 1, 75, 127
2, 11800, Note_on_c, 1, 79, 127
2, 12160, Note_off_c, 1, 46, 0
2, 12160, Note_off_c, 1, 51, 0
2, 12160, Note_off_c, 1, 67, 0
2, 12160, Note_off_c, 1, 75, 0
2, 12160, Note_off_c, 1, 79, 0
2, 12200, Note_on_c, 1, 46, 127
2, 12200, Note_on_c, 1, 51, 127
2, 12200, Note_on_c, 1, 67, 127
2, 12200, Note_on_c, 1, 75, 127
2, 12200, Note_on_c, 1, 79, 127
2, 12560, Note_off_c, 1, 46, 0
2, 12560, Note_off_c, 1, 51, 0
2, 12560, Note_off_c, 1, 67, 0
2, 12560, Note_off_c, 1, 75, 0
2, 12560, Note_off_c, 1, 79, 0
2, 12600, Note_on_c, 1, 46, 127
2, 12600, Note_on_c, 1, 51, 127
2, 12600, Note_on_c, 1, 67, 127
2, 12600, Note_on_c, 1, 75, 127
2, 12600, Note_on_c, 1, 79, 127
2, 12960, Note_off_c, 1, 46, 0
2, 12960, Note_off_c, 1, 51, 0
2, 12960, Note_off_c, 1, 67, 0
2, 12960, Note_off_c, 1, 75, 0
2, 12960, Note_off_c, 1, 79, 0
2, 13000, Note_on_c, 1, 46, 127
2, 13000, Note_on_c, 1, 51, 127
2, 13000, Note_on_c, 1, 67, 127
2, 13000, Note_on_c, 1, 75, 127
2, 13000, Note_on_c, 1, 79, 127
2, 13360, Note_off_c, 1, 46, 0
2, 13360, Note_off_c, 1, 51, 0
2, 13360, Note_off_c, 1, 67, 0
2, 13360, Note_off_c, 1, 75, 0
2, 13360, Note_off_c, 1, 79, 0
2, 13400, Note_on_c, 1, 46, 127
2, 13400, Note_on_c, 1, 51, 127
2, 13400, Note_on_c, 1, 67, 127
2, 13400, Note_on_c, 1, 75, 127
2, 13400, Note_on_c, 1, 79, 127
2, 13680, Note_off_c, 1, 46, 0
2, 13680, Note_off_c, 1, 51, 0
2, 13680, Note_off_c, 1, 67, 0
2, 13680, Note_off_c, 1, 75, 0
2, 13680, Note_off_c, 1, 79, 0
2, 13720, Note_on_c, 1, 46, 127
2, 13720, Note_on_c, 1, 51, 127
2, 13720, Note_on_c, 1, 67, 127
2, 13720, Note_on_c, 1, 75, 127
2, 13720, Note_on_c, 1, 79, 127
2, 13800, Note_off_c, 1, 46, 0
2, 13800, Note_off_c, 1, 51, 0
2, 13800, Note_off_c, 1, 67, 0
2, 13800, Note_off_c, 1, 75, 0
2, 13800, Note_off_c, 1, 79, 0
2, 13840, Note_on_c, 1, 46, 127
2, 13840, Note_on_c, 1, 51, 127
2, 13840, Note_on_c, 1, 67, 127
2, 13840, Note_on_c, 1, 75, 127
2, 13840, Note_on_c, 1, 79, 127
2, 14200, Note_off_c, 1, 46, 0
2, 14200, Note_off_c, 1, 51, 0
2, 14200, Note_off_c, 1, 67, 0
2, 14200, Note_off_c, 1, 75, 0
2, 14200, Note_off_c, 1, 79, 0
2, 14240, Note_on_c, 1, 46, 127
2, 14240, Note_on_c, 1, 51, 127
2, 14240, Note_on_c, 1, 67, 127
2, 14240, Note_on_c, 1, 75, 127
2, 14240, Note_on_c, 1, 79, 127
2, 14600, Note_off_c, 1, 46, 0
2, 14600, Note_off_c, 1, 51, 0
2, 14600, Note_off_c, 1, 67, 0
2, 14600, Note_off_c, 1, 75, 0
2, 14600, Note_off_c, 1, 79, 0
2, 14640, Note_on_c, 1, 46, 127
2, 14640, Note_on_c, 1, 51, 127
2, 14640, Note_on_c, 1, 67, 127
2, 14640, Note_on_c, 1, 75, 127
2, 14640, Note_on_c, 1, 79, 127
2, 15000, Note_off_c, 1, 46, 0
2, 15000, Note_off_c, 1, 51, 0
2, 15000, Note_off_c, 1, 67, 0
2, 15000, Note_off_c, 1, 75, 0
2, 15000, Note_off_c, 1, 79, 0
2, 15040, Note_on_c, 1, 46, 127
2, 15040, Note_on_c, 1, 51, 127
2, 15040, Note_on_c, 1, 67, 127
2, 15040, Note_on_c, 1, 75, 127
2, 15040, Note_on_c, 1, 79, 127
2, 15400, Note_off_c, 1, 46, 0
2, 15400, Note_off_c, 1, 51, 0
2, 15400, Note_off_c, 1, 67, 0
2, 15400, Note_off_c, 1, 75, 0
2, 15400, Note_off_c, 1, 79, 0
2, 15440, Note_on_c, 1, 46, 127
2, 15440, Note_on_c, 1, 51, 127
2, 15440, Note_on_c, 1, 67, 127
2, 15440, Note_on_c, 1, 75, 127
2, 15440, Note_on_c, 1, 79, 127
2, 15800, Note_off_c, 1, 46, 0
2, 15800, Note_off_c, 1, 51, 0
2, 15800, Note_off_c, 1, 67, 0
2, 15800, Note_off_c, 1, 75, 0
2, 15800, Note_off_c, 1, 79, 0
2, 15880, Note_on_c, 1, 59, 127
2, 15880, Note_on_c, 1, 66, 127
2, 15880, Note_on_c, 1, 69, 127
2, 15880, Note_on_c, 1, 78, 127
2, 15880, Note_on_c, 1, 81, 127
2, 16240, Note_off_c, 1, 59, 0
2, 16240, Note_off_c, 1, 66, 0
2, 16240, Note_off_c, 1, 69, 0
2, 16240, Note_off_c, 1, 78, 0
2, 16240, Note_off_c, 1, 81, 0
2, 16280, Note_on_c, 1, 48, 127
2, 16280, Note_on_c, 1, 55, 127
2, 16280, Note_on_c, 1, 67, 127
2, 16280, Note_on_c, 1, 72, 127
2, 16280, Note_on_c, 1, 79, 127
2, 16640, Note_off_c, 1, 48, 0
2, 16640, Note_off_c, 1, 55, 0
2, 16640, Note_off_c, 1, 67, 0
2, 16640, Note_off_c, 1, 72, 0
2, 16640, Note_off_c, 1, 79, 0
2, 16680, Note_on_c, 1, 55, 127
2, 16680, Note_on_c, 1, 62, 127
2, 16680, Note_on_c, 1, 67, 127
2, 16680, Note_on_c, 1, 94, 127
2, 16720, Note_off_c, 1, 55, 0
2, 16720, Note_off_c, 1, 62, 0
2, 16720, Note_on_c, 1, 63, 127
2, 16720, Note_off_c, 1, 67, 0
2, 16720, Note_on_c, 1, 72, 127
2, 16720, Note_on_c, 1, 76, 127
2, 16720, Note_off_c, 1, 94, 0
2, 16760, Note_on_c, 1, 59, 127
2, 16760, Note_on_c, 1, 62, 127
2, 16760, Note_off_c, 1, 63, 0
2, 16760, Note_on_c, 1, 64, 127
2, 16760, Note_on_c, 1, 68, 127
2, 16760, Note_on_c, 1, 71, 127
2, 16760, Note_off_c, 1, 72, 0
2, 16760, Note_on_c, 1, 74, 127
2, 16760, Note_on_c, 1, 83, 127
2, 16800, Note_off_c, 1, 59, 0
2, 16800, Note_off_c, 1, 62, 0
2, 16800, Note_on_c, 1, 63, 127
2, 16800, Note_off_c, 1, 64, 0
2, 16800, Note_off_c, 1, 68, 0
2, 16800, Note_off_c, 1, 71, 0
2, 16800, Note_on_c, 1, 72, 127
2, 16800, Note_off_c, 1, 74, 0
2, 16800, Note_off_c, 1, 83, 0
2, 17040, Note_off_c, 1, 63, 0
2, 17040, Note_off_c, 1, 72, 0
2, 17040, Note_off_c, 1, 76, 0
2, 17080, Note_on_c, 1, 56, 127
2, 17080, Note_on_c, 1, 63, 127
2, 17080, Note_on_c, 1, 80, 127
2, 17080, Note_on_c, 1, 84, 127
2, 17400, Note_off_c, 1, 56, 0
2, 17400, Note_off_c, 1, 63, 0
2, 17400, Note_off_c, 1, 80, 0
2, 17400, Note_off_c, 1, 84, 0
2, 17480, Note_on_c, 1, 52, 127
2, 17480, Note_on_c, 1, 64, 127
2, 17480, Note_on_c, 1, 66, 127
2, 17480, Note_on_c, 1, 68, 127
2, 17520, Note_on_c, 1, 38, 127
2, 17520, Note_off_c, 1, 52, 0
2, 17520, Note_on_c, 1, 58, 127
2, 17520, Note_on_c, 1, 62, 127
2, 17520, Note_off_c, 1, 64, 0
2, 17520, Note_off_c, 1, 66, 0
2, 17520, Note_off_c, 1, 68, 0
2, 17520, Note_on_c, 1, 70, 127
2, 17560, Note_off_c, 1, 38, 0
2, 17560, Note_off_c, 1, 58, 0
2, 17560, Note_off_c, 1, 70, 0
2, 17560, Note_on_c, 1, 72, 127
2, 17560, Note_on_c, 1, 75, 127
2, 17560, Note_on_c, 1, 82, 127
2, 17600, Note_on_c, 1, 50, 127
2, 17600, Note_on_c, 1, 58, 127
2, 17600, Note_off_c, 1, 62, 0
2, 17600, Note_on_c, 1, 65, 127
2, 17600, Note_on_c, 1, 70, 127
2, 17600, Note_off_c, 1, 72, 0
2, 17600, Note_off_c, 1, 75, 0
2, 17640, Note_on_c, 1, 34, 127
2, 17640, Note_off_c, 1, 50, 0
2, 17640, Note_off_c, 1, 58, 0
2, 17640, Note_on_c, 1, 60, 127
2, 17640, Note_off_c, 1, 65, 0
2, 17640, Note_on_c, 1, 68, 127
2, 17640, Note_off_c, 1, 70, 0
2, 17640, Note_on_c, 1, 73, 127
2, 17640, Note_on_c, 1, 79, 127
2, 17640, Note_off_c, 1, 82, 0
2, 17680, Note_off_c, 1, 34, 0
2, 17680, Note_on_c, 1, 59, 127
2, 17680, Note_off_c, 1, 60, 0
2, 17680, Note_on_c, 1, 63, 127
2, 17680, Note_off_c, 1, 73, 0
2, 17720, Note_on_c, 1, 38, 127
2, 17720, Note_off_c, 1, 59, 0
2, 17720, Note_off_c, 1, 63, 0
2, 17720, Note_off_c, 1, 68, 0
2, 17720, Note_off_c, 1, 79, 0
2, 17720, Note_on_c, 1, 90, 127
2, 17720, Note_on_c, 1, 96, 127
2, 17760, Note_off_c, 1, 38, 0
2, 17760, Note_on_c, 1, 64, 127
2, 17760, Note_off_c, 1, 90, 0
2, 17760, Note_on_c, 1, 92, 127
2, 17800, Note_off_c, 1, 64, 0
2, 17800, Note_off_c, 1, 92, 0
2, 17800, Note_off_c, 1, 96, 0
2, 17920, Note_on_c, 1, 58, 127
2, 17920, Note_on_c, 1, 62, 127
2, 17920, Note_on_c, 1, 65, 127
2, 17920, Note_on_c, 1, 70, 127
2, 17920, Note_on_c, 1, 74, 127
2, 17920, Note_on_c, 1, 79, 127
2, 18280, Note_off_c, 1, 58, 0
2, 18280, Note_off_c, 1, 62, 0
2, 18280, Note_off_c, 1, 65, 0
2, 18280, Note_off_c, 1, 70, 0
2, 18280, Note_off_c, 1, 74, 0
2, 18320, Note_on_c, 1, 58, 127
2, 18320, Note_on_c, 1, 62, 127
2, 18320, Note_on_c, 1, 65, 127
2, 18320, Note_on_c, 1, 70, 127
2, 18320, Note_on_c, 1, 74, 127
2, 18640, Note_off_c, 1, 58, 0
2, 18640, Note_off_c, 1, 62, 0
2, 18640, Note_off_c, 1, 65, 0
2, 18640, Note_off_c, 1, 70, 0
2, 18640, Note_off_c, 1, 74, 0
2, 18640, Note_off_c, 1, 79, 0
2, 18640, Note_on_c, 1, 82, 127
2, 18680, Note_off_c, 1, 82, 0
2, 18720, Note_on_c, 1, 48, 127
2, 18720, Note_on_c, 1, 55, 127
2, 18720, Note_on_c, 1, 72, 127
2, 18720, Note_on_c, 1, 76, 127
2, 18720, Note_on_c, 1, 82, 127
2, 18720, Note_on_c, 1, 84, 127
2, 18760, Note_on_c, 1, 42, 127
2, 18760, Note_off_c, 1, 48, 0
2, 18760, Note_on_c, 1, 54, 127
2, 18760, Note_off_c, 1, 55, 0
2, 18760, Note_on_c, 1, 61, 127
2, 18760, Note_off_c, 1, 72, 0
2, 18760, Note_off_c, 1, 82, 0
2, 18760, Note_off_c, 1, 84, 0
2, 18760, Note_on_c, 1, 88, 127
2, 18800, Note_off_c, 1, 42, 0
2, 18800, Note_on_c, 1, 48, 127
2, 18800, Note_off_c, 1, 54, 0
2, 18800, Note_on_c, 1, 55, 127
2, 18800, Note_off_c, 1, 61, 0
2, 18800, Note_on_c, 1, 72, 127
2, 18800, Note_on_c, 1, 82, 127
2, 18800, Note_on_c, 1, 84, 127
2, 18800, Note_off_c, 1, 88, 0
2, 19000, Note_off_c, 1, 48, 0
2, 19000, Note_on_c, 1, 51, 127
2, 19000, Note_off_c, 1, 55, 0
2, 19000, Note_on_c, 1, 58, 127
2, 19000, Note_off_c, 1, 72, 0
2, 19000, Note_off_c, 1, 76, 0
2, 19000, Note_off_c, 1, 82, 0
2, 19000, Note_off_c, 1, 84, 0
2, 19000, Note_on_c, 1, 91, 127
2, 19040, Note_off_c, 1, 51, 0
2, 19040, Note_off_c, 1, 58, 0
2, 19040, Note_off_c, 1, 91, 0
2, 19080, Note_on_c, 1, 49, 127
2, 19080, Note_on_c, 1, 56, 127
2, 19080, Note_on_c, 1, 59, 127
2, 19080, Note_on_c, 1, 82, 127
2, 19120, Note_on_c, 1, 47, 127
2, 19120, Note_off_c, 1, 49, 0
2, 19120, Note_on_c, 1, 52, 127
2, 19120, Note_off_c, 1, 56, 0
2, 19120, Note_on_c, 1, 62, 127
2, 19120, Note_on_c, 1, 66, 127
2, 19120, Note_on_c, 1, 74, 127
2, 19120, Note_on_c, 1, 78, 127
2, 19120, Note_off_c, 1, 82, 0
2, 19160, Note_off_c, 1, 47, 0
2, 19160, Note_on_c, 1, 49, 127
2, 19160, Note_off_c, 1, 52, 0
2, 19160, Note_on_c, 1, 56, 127
2, 19160, Note_off_c, 1, 62, 0
2, 19160, Note_off_c, 1, 66, 0
2, 19160, Note_off_c, 1, 74, 0
2, 19160, Note_off_c, 1, 78, 0
2, 19160, Note_on_c, 1, 82, 127
2, 19400, Note_on_c, 1, 30, 127
2, 19400, Note_on_c, 1, 35, 127
2, 19400, Note_on_c, 1, 37, 127
2, 19400, Note_off_c, 1, 49, 0
2, 19400, Note_off_c, 1, 56, 0
2, 19400, Note_off_c, 1, 59, 0
2, 19400, Note_on_c, 1, 72, 127
2, 19400, Note_off_c, 1, 82, 0
2, 19440, Note_off_c, 1, 30, 0
2, 19440, Note_off_c, 1, 35, 0
2, 19440, Note_off_c, 1, 37, 0
2, 19440, Note_off_c, 1, 72, 0
2, 19480, Note_on_c, 1, 45, 127
2, 19480, Note_on_c, 1, 57, 127
2, 19480, Note_on_c, 1, 71, 127
2, 19480, Note_on_c, 1, 78, 127
2, 19480, Note_on_c, 1, 81, 127
2, 19840, Note_off_c, 1, 45, 0
2, 19840, Note_off_c, 1, 57, 0
2, 19840, Note_off_c, 1, 71, 0
2, 19840, Note_off_c, 1, 78, 0
2, 19840, Note_off_c, 1, 81, 0
2, 19920, Note_on_c, 1, 55, 127
2, 19920, Note_on_c, 1, 67, 127
2, 19920, Note_on_c, 1, 72, 127
2, 19920, Note_on_c, 1, 76, 127
2, 19920, Note_on_c, 1, 84, 127
2, 20240, Note_off_c, 1, 55, 0
2, 20240, Note_off_c, 1, 67, 0
2, 20240, Note_off_c, 1, 72, 0
2, 20240, Note_off_c, 1, 76, 0
2, 20240, Note_off_c, 1, 84, 0
2, 20320, Note_on_c, 1, 45, 127
2, 20320, Note_on_c, 1, 52, 127
2, 20320, Note_on_c, 1, 57, 127
2, 20320, Note_on_c, 1, 73, 127
2, 20320, Note_on_c, 1, 76, 127
2, 20320, Note_on_c, 1, 85, 127
2, 20680, Note_off_c, 1, 45, 0
2, 20680, Note_off_c, 1, 52, 0
2, 20680, Note_off_c, 1, 57, 0
2, 20680, Note_off_c, 1, 73, 0
2, 20680, Note_off_c, 1, 76, 0
2, 20680, Note_off_c, 1, 85, 0
2, 20720, Note_on_c, 1, 45, 127
2, 20720, Note_on_c, 1, 52, 127
2, 20720, Note_on_c, 1, 57, 127
2, 20720, Note_on_c, 1, 73, 127
2, 20720, Note_on_c, 1, 76, 127
2, 20720, Note_on_c, 1, 85, 127
2, 21080, Note_off_c, 1, 45, 0
2, 21080, Note_off_c, 1, 52, 0
2, 21080, Note_off_c, 1, 57, 0
2, 21080, Note_off_c, 1, 73, 0
2, 21080, Note_off_c, 1, 76, 0
2, 21080, Note_off_c, 1, 85, 0
2, 21120, Note_on_c, 1, 45, 127
2, 21120, Note_on_c, 1, 52, 127
2, 21120, Note_on_c, 1, 57, 127
2, 21120, Note_on_c, 1, 73, 127
2, 21120, Note_on_c, 1, 76, 127
2, 21120, Note_on_c, 1, 85, 127
2, 21480, Note_off_c, 1, 45, 0
2, 21480, Note_off_c, 1, 52, 0
2, 21480, Note_off_c, 1, 57, 0
2, 21480, Note_off_c, 1, 73, 0
2, 21480, Note_off_c, 1, 76, 0
2, 21480, Note_off_c, 1, 85, 0
2, 21520, Note_on_c, 1, 45, 127
2, 21520, Note_on_c, 1, 52, 127
2, 21520, Note_on_c, 1, 57, 127
2, 21520, Note_on_c, 1, 73, 127
2, 21520, Note_on_c, 1, 76, 127
2, 21520, Note_on_c, 1, 85, 127
2, 21880, Note_off_c, 1, 45, 0
2, 21880, Note_off_c, 1, 52, 0
2, 21880, Note_off_c, 1, 57, 0
2, 21880, Note_off_c, 1, 73, 0
2, 21880, Note_off_c, 1, 76, 0
2, 21880, Note_off_c, 1, 85, 0
2, 21920, Note_on_c, 1, 31, 127
2, 21920, Note_on_c, 1, 43, 127
2, 21920, Note_on_c, 1, 71, 127
2, 22080, Note_off_c, 1, 71, 0
2, 22080, Note_on_c, 1, 74, 127
2, 22120, Note_off_c, 1, 31, 0
2, 22120, Note_off_c, 1, 43, 0
2, 22120, Note_off_c, 1, 74, 0
2, 22160, Note_on_c, 1, 31, 127
2, 22160, Note_on_c, 1, 43, 127
2, 22160, Note_on_c, 1, 71, 127
2, 22720, Note_off_c, 1, 31, 0
2, 22720, Note_off_c, 1, 43, 0
2, 22720, Note_off_c, 1, 71, 0
2, 22760, Note_on_c, 1, 38, 127
2, 22760, Note_on_c, 1, 47, 127
2, 23080, Note_off_c, 1, 38, 0
2, 23080, Note_off_c, 1, 47, 0
2, 23160, Note_on_c, 1, 38, 127
2, 23160, Note_on_c, 1, 47, 127
2, 23480, Note_off_c, 1, 38, 0
2, 23480, Note_off_c, 1, 47, 0
2, 23520, Note_on_c, 1, 38, 127
2, 23520, Note_on_c, 1, 47, 127
2, 23880, Note_off_c, 1, 38, 0
2, 23880, Note_off_c, 1, 47, 0
2, 23920, Note_on_c, 1, 38, 127
2, 23920, Note_on_c, 1, 48, 127
2, 24280, Note_off_c, 1, 38, 0
2, 24280, Note_off_c, 1, 48, 0
2, 24360, Note_on_c, 1, 48, 127
2, 24720, Note_off_c, 1, 48, 0
2, 24760, Note_on_c, 1, 36, 127
2, 24760, Note_on_c, 1, 48, 127
2, 24760, Note_on_c, 1, 55, 127
2, 25160, Note_off_c, 1, 36, 0
2, 25160, Note_off_c, 1, 48, 0
2, 25160, Note_off_c, 1, 55, 0
2, 25200, Note_on_c, 1, 55, 127
2, 25520, Note_off_c, 1, 55, 0
2, 25560, Note_on_c, 1, 53, 127
2, 25600, Note_off_c, 1, 53, 0
2, 25600, Note_on_c, 1, 55, 127
2, 25920, Note_off_c, 1, 55, 0
2, 25960, Note_on_c, 1, 43, 127
2, 25960, Note_on_c, 1, 50, 127
2, 26160, Note_off_c, 1, 43, 0
2, 26160, Note_off_c, 1, 50, 0
2, 26200, Note_on_c, 1, 43, 127
2, 26200, Note_on_c, 1, 50, 127
2, 26320, Note_off_c, 1, 43, 0
2, 26320, Note_off_c, 1, 50, 0
2, 26400, Note_on_c, 1, 43, 127
2, 26760, Note_off_c, 1, 43, 0
2, 26800, Note_on_c, 1, 38, 127
2, 27160, Note_off_c, 1, 38, 0
2, 27200, Note_on_c, 1, 40, 127
2, 27560, Note_off_c, 1, 40, 0
2, 27600, Note_on_c, 1, 36, 127
2, 27600, Note_on_c, 1, 67, 127
2, 27960, Note_off_c, 1, 36, 0
2, 27960, Note_off_c, 1, 67, 0
2, 28000, Note_on_c, 1, 38, 127
2, 28000, Note_on_c, 1, 66, 127
2, 28320, Note_off_c, 1, 38, 0
2, 28320, Note_off_c, 1, 66, 0
2, 28360, Note_on_c, 1, 38, 127
2, 28360, Note_on_c, 1, 66, 127
2, 28400, Note_off_c, 1, 38, 0
2, 28400, Note_off_c, 1, 66, 0
2, 28440, Note_on_c, 1, 50, 127
2, 28440, Note_on_c, 1, 57, 127
2, 28440, Note_on_c, 1, 60, 127
2, 28440, Note_on_c, 1, 62, 127
2, 28480, Note_off_c, 1, 60, 0
2, 28480, Note_off_c, 1, 62, 0
2, 28480, Note_on_c, 1, 74, 127
2, 28520, Note_on_c, 1, 55, 127
2, 28520, Note_off_c, 1, 57, 0
2, 28520, Note_on_c, 1, 59, 127
2, 28520, Note_off_c, 1, 74, 0
2, 28800, Note_off_c, 1, 50, 0
2, 28800, Note_off_c, 1, 55, 0
2, 28800, Note_off_c, 1, 59, 0
2, 28840, Note_on_c, 1, 50, 127
2, 28840, Note_on_c, 1, 55, 127
2, 28840, Note_on_c, 1, 59, 127
2, 30400, Note_off_c, 1, 50, 0
2, 30400, Note_off_c, 1, 55, 0
2, 30400, Note_off_c, 1, 59, 0
2, 30480, Note_on_c, 1, 31, 127
2, 30480, Note_on_c, 1, 43, 127
2, 30480, Note_on_c, 1, 48, 127
2, 30480, Note_on_c, 1, 52, 127
2, 30480, Note_on_c, 1, 55, 127
2, 30480, Note_on_c, 1, 58, 127
2, 30480, Note_on_c, 1, 60, 127
2, 30480, Note_on_c, 1, 64, 127
2, 30480, Note_on_c, 1, 70, 127
2, 30480, Note_on_c, 1, 72, 127
2, 30520, Note_off_c, 1, 31, 0
2, 30520, Note_on_c, 1, 38, 127
2, 30520, Note_off_c, 1, 43, 0
2, 30520, Note_off_c, 1, 48, 0
2, 30520, Note_off_c, 1, 52, 0
2, 30520, Note_off_c, 1, 55, 0
2, 30520, Note_on_c, 1, 57, 127
2, 30520, Note_off_c, 1, 58, 0
2, 30520, Note_off_c, 1, 64, 0
2, 30520, Note_on_c, 1, 66, 127
2, 30520, Note_off_c, 1, 70, 0
2, 30520, Note_off_c, 1, 72, 0
2, 30560, Note_on_c, 1, 31, 127
2, 30560, Note_off_c, 1, 38, 0
2, 30560, Note_on_c, 1, 43, 127
2, 30560, Note_on_c, 1, 48, 127
2, 30560, Note_on_c, 1, 52, 127
2, 30560, Note_on_c, 1, 55, 127
2, 30560, Note_off_c, 1, 57, 0
2, 30560, Note_on_c, 1, 58, 127
2, 30560, Note_on_c, 1, 64, 127
2, 30560, Note_off_c, 1, 66, 0
2, 30560, Note_on_c, 1, 70, 127
2, 30560, Note_on_c, 1, 72, 127
2, 30800, Note_off_c, 1, 48, 0
2, 30800, Note_off_c, 1, 52, 0
2, 30800, Note_off_c, 1, 58, 0
2, 30800, Note_off_c, 1, 60, 0
2, 30800, Note_off_c, 1, 64, 0
2, 30800, Note_off_c, 1, 70, 0
2, 30800, Note_off_c, 1, 72, 0
2, 31240, Note_off_c, 1, 31, 0
2, 31240, Note_off_c, 1, 43, 0
2, 31240, Note_off_c, 1, 55, 0
2, 31280, Note_on_c, 1, 31, 127
2, 31280, Note_on_c, 1, 43, 127
2, 31280, Note_on_c, 1, 55, 127
2, 32040, Note_off_c, 1, 31, 0
2, 32040, Note_off_c, 1, 43, 0
2, 32040, Note_off_c, 1, 55, 0
2, 32080, Note_on_c, 1, 30, 127
2, 32080, Note_on_c, 1, 42, 127
2, 32080, Note_on_c, 1, 54, 127
2, 32480, Note_off_c, 1, 30, 0
2, 32480, Note_on_c, 1, 37, 127
2, 32480, Note_off_c, 1, 42, 0
2, 32480, Note_off_c, 1, 54, 0
2, 32480, Note_on_c, 1, 71, 127
2, 32480, Note_on_c, 1, 76, 127
2, 32480, Note_on_c, 1, 82, 127
2, 32520, Note_off_c, 1, 37, 0
2, 32520, Note_on_c, 1, 56, 127
2, 32520, Note_on_c, 1, 59, 127
2, 32520, Note_on_c, 1, 63, 127
2, 32520, Note_off_c, 1, 71, 0
2, 32520, Note_on_c, 1, 75, 127
2, 32520, Note_off_c, 1, 76, 0
2, 32520, Note_on_c, 1, 80, 127
2, 32520, Note_off_c, 1, 82, 0
2, 32560, Note_off_c, 1, 56, 0
2, 32560, Note_off_c, 1, 59, 0
2, 32560, Note_off_c, 1, 63, 0
2, 32560, Note_off_c, 1, 75, 0
2, 32560, Note_off_c, 1, 80, 0
2, 32600, Note_on_c, 1, 56, 127
2, 32600, Note_on_c, 1, 64, 127
2, 32600, Note_on_c, 1, 68, 127
2, 32600, Note_on_c, 1, 71, 127
2, 32600, Note_on_c, 1, 78, 127
2, 32600, Note_on_c, 1, 83, 127
2, 32640, Note_on_c, 1, 37, 127
2, 32640, Note_off_c, 1, 56, 0
2, 32640, Note_on_c, 1, 63, 127
2, 32640, Note_off_c, 1, 64, 0
2, 32640, Note_off_c, 1, 68, 0
2, 32640, Note_on_c, 1, 76, 127
2, 32640, Note_off_c, 1, 78, 0
2, 32640, Note_off_c, 1, 83, 0
2, 32680, Note_off_c, 1, 37, 0
2, 32680, Note_off_c, 1, 63, 0
2, 32680, Note_on_c, 1, 68, 127
2, 32680, Note_on_c, 1, 73, 127
2, 32680, Note_off_c, 1, 76, 0
2, 32680, Note_on_c, 1, 77, 127
2, 32680, Note_on_c, 1, 85, 127
2, 32720, Note_on_c, 1, 37, 127
2, 32720, Note_off_c, 1, 68, 0
2, 32720, Note_off_c, 1, 73, 0
2, 32720, Note_on_c, 1, 76, 127
2, 32720, Note_off_c, 1, 77, 0
2, 32720, Note_on_c, 1, 82, 127
2, 32720, Note_off_c, 1, 85, 0
2, 32760, Note_on_c, 1, 63, 127
2, 32800, Note_off_c, 1, 63, 0
2, 32840, Note_on_c, 1, 63, 127
2, 32880, Note_off_c, 1, 37, 0
2, 32880, Note_off_c, 1, 63, 0
2, 32880, Note_off_c, 1, 71, 0
2, 32880, Note_off_c, 1, 76, 0
2, 32880, Note_off_c, 1, 82, 0
2, 32920, Note_on_c, 1, 25, 127
2, 32920, Note_on_c, 1, 37, 127
2, 32920, Note_on_c, 1, 44, 127
2, 32920, Note_on_c, 1, 49, 127
2, 32920, Note_on_c, 1, 61, 127
2, 32920, Note_on_c, 1, 68, 127
2, 32920, Note_on_c, 1, 73, 127
2, 33680, Note_off_c, 1, 25, 0
2, 33680, Note_off_c, 1, 37, 0
2, 33680, Note_off_c, 1, 44, 0
2, 33680, Note_off_c, 1, 49, 0
2, 33680, Note_off_c, 1, 61, 0
2, 33680, Note_off_c, 1, 68, 0
2, 33680, Note_off_c, 1, 73, 0
2, 33720, Note_on_c, 1, 49, 127
2, 33720, Note_on_c, 1, 56, 127
2, 33720, Note_on_c, 1, 65, 127
2, 33720, Note_on_c, 1, 72, 127
2, 33720, Note_on_c, 1, 75, 127
2, 34480, Note_off_c, 1, 49, 0
2, 34480, Note_off_c, 1, 56, 0
2, 34480, Note_off_c, 1, 65, 0
2, 34480, Note_off_c, 1, 72, 0
2, 34480, Note_off_c, 1, 75, 0
2, 34520, Note_on_c, 1, 40, 127
2, 34520, Note_on_c, 1, 52, 127
2, 34520, Note_on_c, 1, 67, 127
2, 34520, Note_on_c, 1, 71, 127
2, 34520, Note_on_c, 1, 75, 127
2, 34720, Note_off_c, 1, 40, 0
2, 34720, Note_off_c, 1, 52, 0
2, 34720, Note_off_c, 1, 67, 0
2, 34720, Note_off_c, 1, 71, 0
2, 34720, Note_off_c, 1, 75, 0
2, 34760, Note_on_c, 1, 40, 127
2, 34760, Note_on_c, 1, 52, 127
2, 34760, Note_on_c, 1, 67, 127
2, 34760, Note_on_c, 1, 71, 127
2, 34760, Note_on_c, 1, 75, 127
2, 34960, Note_on_c, 1, 74, 127
2, 34960, Note_off_c, 1, 75, 0
2, 35320, Note_off_c, 1, 40, 0
2, 35320, Note_off_c, 1, 52, 0
2, 35320, Note_off_c, 1, 67, 0
2, 35320, Note_off_c, 1, 71, 0
2, 35320, Note_off_c, 1, 74, 0
2, 35360, Note_on_c, 1, 62, 127
2, 35360, Note_on_c, 1, 64, 127
2, 35360, Note_on_c, 1, 67, 127
2, 35360, Note_on_c, 1, 86, 127
2, 35520, Note_off_c, 1, 86, 0
2, 35560, Note_on_c, 1, 86, 127
2, 35600, Note_off_c, 1, 86, 0
2, 35960, Note_on_c, 1, 58, 127
2, 35960, Note_on_c, 1, 60, 127
2, 35960, Note_off_c, 1, 62, 0
2, 35960, Note_on_c, 1, 63, 127
2, 35960, Note_off_c, 1, 64, 0
2, 35960, Note_on_c, 1, 72, 127
2, 36000, Note_on_c, 1, 51, 127
2, 36000, Note_off_c, 1, 60, 0
2, 36000, Note_on_c, 1, 62, 127
2, 36000, Note_off_c, 1, 63, 0
2, 36000, Note_off_c, 1, 72, 0
2, 36000, Note_on_c, 1, 74, 127
2, 36040, Note_off_c, 1, 51, 0
2, 36040, Note_on_c, 1, 56, 127
2, 36040, Note_off_c, 1, 58, 0
2, 36040, Note_on_c, 1, 61, 127
2, 36040, Note_off_c, 1, 62, 0
2, 36040, Note_on_c, 1, 64, 127
2, 36040, Note_off_c, 1, 67, 0
2, 36040, Note_on_c, 1, 68, 127
2, 36040, Note_off_c, 1, 74, 0
2, 36040, Note_on_c, 1, 76, 127
2, 36040, Note_on_c, 1, 80, 127
2, 36040, Note_on_c, 1, 85, 127
2, 36040, Note_on_c, 1, 88, 127
2, 36080, Note_on_c, 1, 51, 127
2, 36080, Note_off_c, 1, 56, 0
2, 36080, Note_on_c, 1, 58, 127
2, 36080, Note_off_c, 1, 61, 0
2, 36080, Note_on_c, 1, 62, 127
2, 36080, Note_off_c, 1, 64, 0
2, 36080, Note_on_c, 1, 67, 127
2, 36080, Note_off_c, 1, 68, 0
2, 36080, Note_on_c, 1, 74, 127
2, 36080, Note_off_c, 1, 76, 0
2, 36080, Note_off_c, 1, 80, 0
2, 36080, Note_off_c, 1, 85, 0
2, 36080, Note_off_c, 1, 88, 0
2, 36120, Note_off_c, 1, 51, 0
2, 36120, Note_off_c, 1, 58, 0
2, 36120, Note_off_c, 1, 62, 0
2, 36120, Note_off_c, 1, 67, 0
2, 36120, Note_off_c, 1, 74, 0
2, 36160, Note_on_c, 1, 61, 127
2, 36160, Note_on_c, 1, 62, 127
2, 36160, Note_on_c, 1, 67, 127
2, 36160, Note_on_c, 1, 70, 127
2, 36160, Note_on_c, 1, 71, 127
2, 36160, Note_on_c, 1, 73, 127
2, 36160, Note_on_c, 1, 74, 127
2, 36200, Note_on_c, 1, 49, 127
2, 36200, Note_on_c, 1, 55, 127
2, 36200, Note_on_c, 1, 58, 127
2, 36200, Note_off_c, 1, 61, 0
2, 36200, Note_off_c, 1, 62, 0
2, 36200, Note_on_c, 1, 63, 127
2, 36200, Note_off_c, 1, 67, 0
2, 36200, Note_off_c, 1, 70, 0
2, 36200, Note_off_c, 1, 71, 0
2, 36200, Note_off_c, 1, 73, 0
2, 36200, Note_off_c, 1, 74, 0
2, 36200, Note_on_c, 1, 82, 127
2, 36200, Note_on_c, 1, 93, 127
2, 36240, Note_on_c, 1, 44, 127
2, 36240, Note_on_c, 1, 45, 127
2, 36240, Note_off_c, 1, 49, 0
2, 36240, Note_off_c, 1, 55, 0
2, 36240, Note_off_c, 1, 58, 0
2, 36240, Note_off_c, 1, 63, 0
2, 36240, Note_off_c, 1, 82, 0
2, 36240, Note_off_c, 1, 93, 0
2, 36240, Note_on_c, 1, 102, 127
2, 36240, Note_on_c, 1, 105, 127
2, 36280, Note_on_c, 1, 41, 127
2, 36280, Note_on_c, 1, 43, 127
2, 36280, Note_off_c, 1, 44, 0
2, 36280, Note_off_c, 1, 45, 0
2, 36280, Note_on_c, 1, 50, 127
2, 36280, Note_on_c, 1, 55, 127
2, 36280, Note_on_c, 1, 57, 127
2, 36280, Note_off_c, 1, 102, 0
2, 36280, Note_off_c, 1, 105, 0
2, 36320, Note_off_c, 1, 41, 0
2, 36320, Note_off_c, 1, 43, 0
2, 36320, Note_off_c, 1, 50, 0
2, 36320, Note_off_c, 1, 55, 0
2, 36320, Note_on_c, 1, 81, 127
2, 36320, Note_on_c, 1, 90, 127
2, 36320, Note_on_c, 1, 93, 127
2, 36360, Note_on_c, 1, 44, 127
2, 36360, Note_on_c, 1, 51, 127
2, 36360, Note_off_c, 1, 57, 0
2, 36360, Note_on_c, 1, 58, 127
2, 36360, Note_on_c, 1, 75, 127
2, 36360, Note_on_c, 1, 79, 127
2, 36360, Note_off_c, 1, 81, 0
2, 36360, Note_on_c, 1, 85, 127
2, 36360, Note_on_c, 1, 87, 127
2, 36360, Note_off_c, 1, 90, 0
2, 36360, Note_off_c, 1, 93, 0
2, 36400, Note_off_c, 1, 44, 0
2, 36400, Note_off_c, 1, 51, 0
2, 36400, Note_off_c, 1, 58, 0
2, 36400, Note_on_c, 1, 59, 127
2, 36400, Note_on_c, 1, 64, 127
2, 36400, Note_on_c, 1, 67, 127
2, 36400, Note_on_c, 1, 72, 127
2, 36400, Note_off_c, 1, 75, 0
2, 36400, Note_on_c, 1, 76, 127
2, 36400, Note_off_c, 1, 79, 0
2, 36400, Note_on_c, 1, 83, 127
2, 36400, Note_off_c, 1, 85, 0
2, 36400, Note_off_c, 1, 87, 0
2, 36400, Note_on_c, 1, 88, 127
2, 36440, Note_on_c, 1, 43, 127
2, 36440, Note_on_c, 1, 45, 127
2, 36440, Note_on_c, 1, 57, 127
2, 36440, Note_off_c, 1, 59, 0
2, 36440, Note_off_c, 1, 64, 0
2, 36440, Note_on_c, 1, 66, 127
2, 36440, Note_off_c, 1, 67, 0
2, 36440, Note_off_c, 1, 72, 0
2, 36440, Note_off_c, 1, 76, 0
2, 36440, Note_off_c, 1, 83, 0
2, 36440, Note_on_c, 1, 84, 127
2, 36440, Note_on_c, 1, 86, 127
2, 36440, Note_off_c, 1, 88, 0
2, 36480, Note_off_c, 1, 43, 0
2, 36480, Note_off_c, 1, 45, 0
2, 36480, Note_off_c, 1, 57, 0
2, 36480, Note_on_c, 1, 61, 127
2, 36480, Note_off_c, 1, 66, 0
2, 36480, Note_on_c, 1, 68, 127
2, 36480, Note_on_c, 1, 72, 127
2, 36480, Note_off_c, 1, 86, 0
2, 36480, Note_on_c, 1, 92, 127
2, 36480, Note_on_c, 1, 96, 127
2, 36520, Note_off_c, 1, 61, 0
2, 36520, Note_off_c, 1, 68, 0
2, 36520, Note_off_c, 1, 72, 0
2, 36520, Note_off_c, 1, 84, 0
2, 36520, Note_off_c, 1, 92, 0
2, 36520, Note_off_c, 1, 96, 0
2, 36560, Note_on_c, 1, 33, 127
2, 36560, Note_on_c, 1, 45, 127
2, 36560, Note_on_c, 1, 69, 127
2, 36560, Note_on_c, 1, 72, 127
2, 36560, Note_on_c, 1, 77, 127
2, 36560, Note_on_c, 1, 81, 127
2, 36760, Note_off_c, 1, 33, 0
2, 36760, Note_off_c, 1, 45, 0
2, 36760, Note_off_c, 1, 69, 0
2, 36760, Note_off_c, 1, 72, 0
2, 36760, Note_off_c, 1, 77, 0
2, 36760, Note_off_c, 1, 81, 0
2, 36800, Note_on_c, 1, 33, 127
2, 36800, Note_on_c, 1, 45, 127
2, 36800, Note_on_c, 1, 69, 127
2, 36800, Note_on_c, 1, 72, 127
2, 36800, Note_on_c, 1, 77, 127
2, 36800, Note_on_c, 1, 81, 127
2, 36960, Note_off_c, 1, 33, 0
2, 36960, Note_off_c, 1, 45, 0
2, 36960, Note_off_c, 1, 69, 0
2, 36960, Note_off_c, 1, 72, 0
2, 36960, Note_off_c, 1, 77, 0
2, 36960, Note_off_c, 1, 81, 0
2, 37000, Note_on_c, 1, 43, 127
2, 37000, Note_on_c, 1, 71, 127
2, 37000, Note_on_c, 1, 77, 127
2, 37000, Note_on_c, 1, 83, 127
2, 37360, Note_off_c, 1, 43, 0
2, 37360, Note_on_c, 1, 45, 127
2, 37360, Note_off_c, 1, 71, 0
2, 37360, Note_off_c, 1, 77, 0
2, 37360, Note_off_c, 1, 83, 0
2, 37400, Note_off_c, 1, 45, 0
2, 37400, Note_on_c, 1, 53, 127
2, 37400, Note_on_c, 1, 64, 127
2, 37400, Note_on_c, 1, 73, 127
2, 37480, Note_off_c, 1, 53, 0
2, 37480, Note_on_c, 1, 57, 127
2, 37480, Note_on_c, 1, 61, 127
2, 37480, Note_off_c, 1, 64, 0
2, 37480, Note_on_c, 1, 65, 127
2, 37520, Note_on_c, 1, 53, 127
2, 37520, Note_off_c, 1, 57, 0
2, 37520, Note_off_c, 1, 61, 0
2, 37520, Note_on_c, 1, 64, 127
2, 37520, Note_off_c, 1, 65, 0
2, 37640, Note_off_c, 1, 53, 0
2, 37640, Note_off_c, 1, 64, 0
2, 37640, Note_on_c, 1, 65, 127
2, 37680, Note_on_c, 1, 45, 127
2, 37680, Note_off_c, 1, 65, 0
2, 37680, Note_off_c, 1, 73, 0
2, 37680, Note_on_c, 1, 75, 127
2, 37680, Note_on_c, 1, 78, 127
2, 37680, Note_on_c, 1, 84, 127
2, 37720, Note_on_c, 1, 54, 127
2, 37720, Note_off_c, 1, 75, 0
2, 37720, Note_on_c, 1, 81, 127
2, 37720, Note_off_c, 1, 84, 0
2, 37720, Note_on_c, 1, 86, 127
2, 37760, Note_off_c, 1, 54, 0
2, 37760, Note_off_c, 1, 78, 0
2, 37760, Note_off_c, 1, 81, 0
2, 37760, Note_off_c, 1, 86, 0
2, 37800, Note_on_c, 1, 43, 127
2, 37800, Note_off_c, 1, 45, 0
2, 37800, Note_on_c, 1, 60, 127
2, 37800, Note_on_c, 1, 71, 127
2, 38160, Note_off_c, 1, 43, 0
2, 38160, Note_off_c, 1, 60, 0
2, 38160, Note_off_c, 1, 71, 0
2, 38200, Note_on_c, 1, 36, 127
2, 38200, Note_on_c, 1, 58, 127
2, 38200, Note_on_c, 1, 64, 127
2, 38200, Note_on_c, 1, 67, 127
2, 38560, Note_off_c, 1, 36, 0
2, 38560, Note_off_c, 1, 58, 0
2, 38560, Note_off_c, 1, 64, 0
2, 38560, Note_off_c, 1, 67, 0
2, 38600, Note_on_c, 1, 41, 127
2, 38600, Note_on_c, 1, 48, 127
2, 38600, Note_on_c, 1, 53, 127
2, 38600, Note_on_c, 1, 57, 127
2, 38600, Note_on_c, 1, 60, 127
2, 38600, Note_on_c, 1, 62, 127
2, 38920, Note_off_c, 1, 41, 0
2, 38920, Note_off_c, 1, 48, 0
2, 38920, Note_off_c, 1, 53, 0
2, 38920, Note_off_c, 1, 57, 0
2, 38920, Note_off_c, 1, 60, 0
2, 38920, Note_off_c, 1, 62, 0
2, 38960, Note_on_c, 1, 41, 127
2, 38960, Note_on_c, 1, 48, 127
2, 38960, Note_on_c, 1, 53, 127
2, 39040, Note_on_c, 1, 57, 127
2, 39040, Note_on_c, 1, 60, 127
2, 39040, Note_on_c, 1, 62, 127
2, 39280, Note_off_c, 1, 57, 0
2, 39280, Note_off_c, 1, 60, 0
2, 39280, Note_off_c, 1, 62, 0
2, 39320, Note_off_c, 1, 41, 0
2, 39320, Note_off_c, 1, 48, 0
2, 39320, Note_on_c, 1, 57, 127
2, 39320, Note_on_c, 1, 62, 127
2, 39320, Note_on_c, 1, 65, 127
2, 39320, Note_on_c, 1, 81, 127
2, 39320, Note_on_c, 1, 86, 127
2, 39360, Note_off_c, 1, 53, 0
2, 39360, Note_on_c, 1, 60, 127
2, 39360, Note_off_c, 1, 62, 0
2, 39360, Note_on_c, 1, 63, 127
2, 39360, Note_off_c, 1, 65, 0
2, 39360, Note_on_c, 1, 72, 127
2, 39360, Note_on_c, 1, 78, 127
2, 39360, Note_off_c, 1, 81, 0
2, 39360, Note_off_c, 1, 86, 0
2, 39400, Note_off_c, 1, 57, 0
2, 39400, Note_off_c, 1, 60, 0
2, 39400, Note_off_c, 1, 63, 0
2, 39400, Note_off_c, 1, 72, 0
2, 39400, Note_off_c, 1, 78, 0
2, 39440, Note_on_c, 1, 57, 127
2, 39440, Note_on_c, 1, 60, 127
2, 39440, Note_on_c, 1, 69, 127
2, 39440, Note_on_c, 1, 72, 127
2, 39440, Note_on_c, 1, 81, 127
2, 39800, Note_off_c, 1, 57, 0
2, 39800, Note_off_c, 1, 60, 0
2, 39800, Note_on_c, 1, 64, 127
2, 39800, Note_off_c, 1, 69, 0
2, 39800, Note_off_c, 1, 72, 0
2, 39800, Note_off_c, 1, 81, 0
2, 39840, Note_on_c, 1, 87, 127
2, 39840, Note_on_c, 1, 88, 127
2, 39840, Note_on_c, 1, 92, 127
2, 39880, Note_on_c, 1, 57, 127
2, 39880, Note_on_c, 1, 59, 127
2, 39880, Note_off_c, 1, 64, 0
2, 39880, Note_on_c, 1, 66, 127
2, 39880, Note_on_c, 1, 73, 127
2, 39880, Note_off_c, 1, 87, 0
2, 39880, Note_off_c, 1, 88, 0
2, 39880, Note_off_c, 1, 92, 0
2, 39920, Note_on_c, 1, 55, 127
2, 39920, Note_off_c, 1, 57, 0
2, 39920, Note_off_c, 1, 59, 0
2, 39920, Note_on_c, 1, 60, 127
2, 39920, Note_on_c, 1, 64, 127
2, 39920, Note_off_c, 1, 66, 0
2, 39920, Note_on_c, 1, 67, 127
2, 39920, Note_off_c, 1, 73, 0
2, 39920, Note_on_c, 1, 88, 127
2, 39960, Note_on_c, 1, 29, 127
2, 39960, Note_on_c, 1, 53, 127
2, 39960, Note_off_c, 1, 55, 0
2, 39960, Note_on_c, 1, 56, 127
2, 39960, Note_off_c, 1, 60, 0
2, 39960, Note_on_c, 1, 63, 127
2, 39960, Note_off_c, 1, 64, 0
2, 39960, Note_off_c, 1, 67, 0
2, 39960, Note_on_c, 1, 75, 127
2, 39960, Note_off_c, 1, 88, 0
2, 40000, Note_off_c, 1, 29, 0
2, 40000, Note_off_c, 1, 53, 0
2, 40000, Note_off_c, 1, 56, 0
2, 40000, Note_on_c, 1, 60, 127
2, 40000, Note_on_c, 1, 69, 127
2, 40000, Note_on_c, 1, 74, 127
2, 40000, Note_off_c, 1, 75, 0
2, 40000, Note_on_c, 1, 81, 127
2, 40040, Note_on_c, 1, 44, 127
2, 40040, Note_on_c, 1, 56, 127
2, 40040, Note_off_c, 1, 60, 0
2, 40040, Note_off_c, 1, 63, 0
2, 40040, Note_off_c, 1, 69, 0
2, 40040, Note_off_c, 1, 74, 0
2, 40040, Note_on_c, 1, 79, 127
2, 40040, Note_off_c, 1, 81, 0
2, 40040, Note_on_c, 1, 82, 127
2, 40040, Note_on_c, 1, 85, 127
2, 40040, Note_on_c, 1, 88, 127
2, 40040, Note_on_c, 1, 91, 127
2, 40080, Note_off_c, 1, 44, 0
2, 40080, Note_off_c, 1, 56, 0
2, 40080, Note_on_c, 1, 60, 127
2, 40080, Note_on_c, 1, 63, 127
2, 40080, Note_on_c, 1, 68, 127
2, 40080, Note_off_c, 1, 79, 0
2, 40080, Note_off_c, 1, 82, 0
2, 40080, Note_on_c, 1, 84, 127
2, 40080, Note_off_c, 1, 85, 0
2, 40080, Note_on_c, 1, 87, 127
2, 40080, Note_off_c, 1, 88, 0
2, 40080, Note_off_c, 1, 91, 0
2, 40080, Note_on_c, 1, 92, 127
2, 40120, Note_on_c, 1, 56, 127
2, 40120, Note_off_c, 1, 60, 0
2, 40120, Note_off_c, 1, 63, 0
2, 40120, Note_off_c, 1, 68, 0
2, 40120, Note_on_c, 1, 72, 127
2, 40120, Note_on_c, 1, 80, 127
2, 40120, Note_off_c, 1, 87, 0
2, 40120, Note_off_c, 1, 92, 0
2, 40160, Note_on_c, 1, 43, 127
2, 40160, Note_off_c, 1, 56, 0
2, 40160, Note_off_c, 1, 72, 0
2, 40160, Note_on_c, 1, 75, 127
2, 40160, Note_on_c, 1, 79, 127
2, 40160, Note_off_c, 1, 80, 0
2, 40160, Note_on_c, 1, 82, 127
2, 40160, Note_off_c, 1, 84, 0
2, 40160, Note_on_c, 1, 87, 127
2, 40200, Note_off_c, 1, 43, 0
2, 40200, Note_off_c, 1, 75, 0
2, 40200, Note_off_c, 1, 79, 0
2, 40200, Note_off_c, 1, 82, 0
2, 40200, Note_off_c, 1, 87, 0
2, 40240, Note_on_c, 1, 36, 127
2, 40240, Note_on_c, 1, 48, 127
2, 40240, Note_on_c, 1, 56, 127
2, 40240, Note_on_c, 1, 68, 127
2, 40240, Note_on_c, 1, 80, 127
2, 40240, Note_on_c, 1, 88, 127
2, 40240, Note_on_c, 1, 92, 127
2, 40800, Note_off_c, 1, 36, 0
2, 40800, Note_off_c, 1, 48, 0
2, 40800, Note_off_c, 1, 56, 0
2, 40800, Note_off_c, 1, 68, 0
2, 40800, Note_off_c, 1, 80, 0
2, 40800, Note_off_c, 1, 88, 0
2, 40800, Note_off_c, 1, 92, 0
2, 40840, Note_on_c, 1, 66, 127
2, 40840, Note_on_c, 1, 73, 127
2, 40840, Note_on_c, 1, 79, 127
2, 41160, Note_off_c, 1, 66, 0
2, 41160, Note_off_c, 1, 73, 0
2, 41160, Note_off_c, 1, 79, 0
2, 41200, Note_on_c, 1, 66, 127
2, 41200, Note_on_c, 1, 73, 127
2, 41200, Note_on_c, 1, 79, 127
2, 41240, Note_off_c, 1, 66, 0
2, 41240, Note_off_c, 1, 73, 0
2, 41240, Note_off_c, 1, 79, 0
2, 41280, Note_on_c, 1, 46, 127
2, 41280, Note_on_c, 1, 56, 127
2, 41280, Note_on_c, 1, 86, 127
2, 41320, Note_off_c, 1, 46, 0
2, 41320, Note_on_c, 1, 49, 127
2, 41320, Note_on_c, 1, 53, 127
2, 41320, Note_on_c, 1, 61, 127
2, 41320, Note_on_c, 1, 75, 127
2, 41320, Note_off_c, 1, 86, 0
2, 41360, Note_off_c, 1, 49, 0
2, 41360, Note_off_c, 1, 53, 0
2, 41360, Note_off_c, 1, 56, 0
2, 41360, Note_on_c, 1, 60, 127
2, 41360, Note_off_c, 1, 61, 0
2, 41360, Note_off_c, 1, 75, 0
2, 41360, Note_on_c, 1, 83, 127
2, 41360, Note_on_c, 1, 92, 127
2, 41400, Note_on_c, 1, 30, 127
2, 41400, Note_on_c, 1, 37, 127
2, 41400, Note_on_c, 1, 42, 127
2, 41400, Note_off_c, 1, 60, 0
2, 41400, Note_on_c, 1, 81, 127
2, 41400, Note_off_c, 1, 83, 0
2, 41400, Note_on_c, 1, 84, 127
2, 41400, Note_off_c, 1, 92, 0
2, 41440, Note_off_c, 1, 30, 0
2, 41440, Note_off_c, 1, 37, 0
2, 41440, Note_off_c, 1, 42, 0
2, 41440, Note_on_c, 1, 58, 127
2, 41440, Note_on_c, 1, 63, 127
2, 41440, Note_on_c, 1, 75, 127
2, 41440, Note_off_c, 1, 81, 0
2, 41440, Note_on_c, 1, 82, 127
2, 41440, Note_off_c, 1, 84, 0
2, 41480, Note_on_c, 1, 41, 127
2, 41480, Note_on_c, 1, 53, 127
2, 41480, Note_off_c, 1, 58, 0
2, 41480, Note_off_c, 1, 63, 0
2, 41480, Note_on_c, 1, 67, 127
2, 41480, Note_off_c, 1, 82, 0
2, 41520, Note_off_c, 1, 41, 0
2, 41520, Note_off_c, 1, 53, 0
2, 41520, Note_on_c, 1, 59, 127
2, 41520, Note_on_c, 1, 65, 127
2, 41520, Note_off_c, 1, 67, 0
2, 41520, Note_on_c, 1, 68, 127
2, 41520, Note_on_c, 1, 74, 127
2, 41520, Note_off_c, 1, 75, 0
2, 41520, Note_on_c, 1, 77, 127
2, 41560, Note_on_c, 1, 48, 127
2, 41560, Note_on_c, 1, 53, 127
2, 41560, Note_on_c, 1, 56, 127
2, 41560, Note_on_c, 1, 62, 127
2, 41560, Note_on_c, 1, 71, 127
2, 41600, Note_on_c, 1, 42, 127
2, 41600, Note_on_c, 1, 46, 127
2, 41600, Note_off_c, 1, 48, 0
2, 41600, Note_on_c, 1, 51, 127
2, 41600, Note_off_c, 1, 53, 0
2, 41600, Note_off_c, 1, 56, 0
2, 41600, Note_off_c, 1, 59, 0
2, 41600, Note_off_c, 1, 62, 0
2, 41600, Note_off_c, 1, 65, 0
2, 41600, Note_off_c, 1, 68, 0
2, 41600, Note_off_c, 1, 71, 0
2, 41600, Note_off_c, 1, 74, 0
2, 41600, Note_off_c, 1, 77, 0
2, 41640, Note_off_c, 1, 42, 0
2, 41640, Note_off_c, 1, 51, 0
2, 41640, Note_on_c, 1, 74, 127
2, 41640, Note_on_c, 1, 76, 127
2, 41680, Note_on_c, 1, 43, 127
2, 41680, Note_off_c, 1, 46, 0
2, 41680, Note_on_c, 1, 48, 127
2, 41680, Note_on_c, 1, 70, 127
2, 41680, Note_off_c, 1, 74, 0
2, 41680, Note_off_c, 1, 76, 0
2, 41680, Note_on_c, 1, 82, 127
2, 42040, Note_off_c, 1, 43, 0
2, 42040, Note_off_c, 1, 48, 0
2, 42040, Note_off_c, 1, 70, 0
2, 42040, Note_off_c, 1, 82, 0
2, 42080, Note_on_c, 1, 42, 127
2, 42080, Note_on_c, 1, 54, 127
2, 42080, Note_on_c, 1, 87, 127
2, 42080, Note_on_c, 1, 99, 127
2, 42120, Note_on_c, 1, 30, 127
2, 42120, Note_on_c, 1, 49, 127
2, 42120, Note_on_c, 1, 57, 127
2, 42120, Note_off_c, 1, 87, 0
2, 42120, Note_off_c, 1, 99, 0
2, 43240, Note_off_c, 1, 30, 0
2, 43240, Note_off_c, 1, 42, 0
2, 43240, Note_off_c, 1, 49, 0
2, 43240, Note_off_c, 1, 54, 0
2, 43240, Note_off_c, 1, 57, 0
2, 43280, Note_on_c, 1, 32, 127
2, 43280, Note_on_c, 1, 36, 127
2, 43280, Note_on_c, 1, 42, 127
2, 43280, Note_on_c, 1, 44, 127
2, 43280, Note_on_c, 1, 51, 127
2, 43280, Note_on_c, 1, 54, 127
2, 43280, Note_on_c, 1, 59, 127
2, 43280, Note_on_c, 1, 72, 127
2, 43280, Note_on_c, 1, 80, 127
2, 43280, Note_on_c, 1, 84, 127
2, 43320, Note_off_c, 1, 32, 0
2, 43320, Note_off_c, 1, 36, 0
2, 43320, Note_off_c, 1, 42, 0
2, 43320, Note_on_c, 1, 47, 127
2, 43320, Note_off_c, 1, 54, 0
2, 43320, Note_on_c, 1, 56, 127
2, 43320, Note_off_c, 1, 59, 0
2, 43320, Note_on_c, 1, 68, 127
2, 43320, Note_on_c, 1, 71, 127
2, 43320, Note_off_c, 1, 72, 0
2, 43320, Note_on_c, 1, 75, 127
2, 43320, Note_off_c, 1, 84, 0
2, 43440, Note_off_c, 1, 44, 0
2, 43440, Note_off_c, 1, 51, 0
2, 43440, Note_off_c, 1, 56, 0
2, 43440, Note_on_c, 1, 62, 127
2, 43440, Note_off_c, 1, 71, 0
2, 43440, Note_on_c, 1, 72, 127
2, 43440, Note_off_c, 1, 75, 0
2, 43440, Note_on_c, 1, 76, 127
2, 43440, Note_off_c, 1, 80, 0
2, 43480, Note_off_c, 1, 47, 0
2, 43480, Note_off_c, 1, 62, 0
2, 43480, Note_off_c, 1, 68, 0
2, 43480, Note_off_c, 1, 72, 0
2, 43480, Note_off_c, 1, 76, 0
2, 43520, Note_on_c, 1, 44, 127
2, 43520, Note_on_c, 1, 47, 127
2, 43520, Note_on_c, 1, 51, 127
2, 43520, Note_on_c, 1, 56, 127
2, 43520, Note_on_c, 1, 68, 127
2, 43520, Note_on_c, 1, 71, 127
2, 43520, Note_on_c, 1, 75, 127
2, 43520, Note_on_c, 1, 80, 127
2, 43720, Note_off_c, 1, 44, 0
2, 43720, Note_off_c, 1, 47, 0
2, 43720, Note_off_c, 1, 51, 0
2, 43720, Note_off_c, 1, 56, 0
2, 43720, Note_on_c, 1, 63, 127
2, 43720, Note_on_c, 1, 65, 127
2, 43720, Note_off_c, 1, 68, 0
2, 43720, Note_on_c, 1, 69, 127
2, 43720, Note_off_c, 1, 71, 0
2, 43720, Note_off_c, 1, 75, 0
2, 43720, Note_off_c, 1, 80, 0
2, 43720, Note_on_c, 1, 87, 127
2, 43760, Note_on_c, 1, 49, 127
2, 43760, Note_on_c, 1, 52, 127
2, 43760, Note_on_c, 1, 61, 127
2, 43760, Note_off_c, 1, 63, 0
2, 43760, Note_off_c, 1, 65, 0
2, 43760, Note_off_c, 1, 69, 0
2, 43760, Note_on_c, 1, 76, 127
2, 43760, Note_off_c, 1, 87, 0
2, 43760, Note_on_c, 1, 88, 127
2, 43880, Note_off_c, 1, 49, 0
2, 43880, Note_off_c, 1, 52, 0
2, 43880, Note_off_c, 1, 61, 0
2, 43880, Note_off_c, 1, 76, 0
2, 43880, Note_off_c, 1, 88, 0
2, 43920, Note_on_c, 1, 49, 127
2, 43920, Note_on_c, 1, 56, 127
2, 43920, Note_on_c, 1, 64, 127
2, 43920, Note_on_c, 1, 73, 127
2, 43920, Note_on_c, 1, 75, 127
2, 43920, Note_on_c, 1, 80, 127
2, 43960, Note_on_c, 1, 32, 127
2, 43960, Note_on_c, 1, 44, 127
2, 43960, Note_off_c, 1, 49, 0
2, 43960, Note_off_c, 1, 56, 0
2, 43960, Note_on_c, 1, 57, 127
2, 43960, Note_on_c, 1, 60, 127
2, 43960, Note_off_c, 1, 64, 0
2, 43960, Note_off_c, 1, 73, 0
2, 43960, Note_off_c, 1, 75, 0
2, 43960, Note_off_c, 1, 80, 0
2, 44640, Note_off_c, 1, 32, 0
2, 44640, Note_off_c, 1, 44, 0
2, 44640, Note_off_c, 1, 57, 0
2, 44640, Note_off_c, 1, 60, 0
2, 44720, Note_on_c, 1, 39, 127
2, 44720, Note_on_c, 1, 51, 127
2, 44720, Note_on_c, 1, 55, 127
2, 44720, Note_on_c, 1, 58, 127
2, 44720, Note_on_c, 1, 63, 127
2, 45640, Note_off_c, 1, 39, 0
2, 45640, Note_off_c, 1, 51, 0
2, 45640, Note_off_c, 1, 55, 0
2, 45640, Note_off_c, 1, 58, 0
2, 45640, Note_off_c, 1, 63, 0
2, 45680, Note_on_c, 1, 39, 127
2, 45680, Note_on_c, 1, 51, 127
2, 45680, Note_on_c, 1, 55, 127
2, 45680, Note_on_c, 1, 58, 127
2, 45680, Note_on_c, 1, 63, 127
2, 46120, Note_off_c, 1, 39, 0
2, 46120, Note_off_c, 1, 51, 0
2, 46120, Note_off_c, 1, 55, 0
2, 46120, Note_off_c, 1, 58, 0
2, 46120, Note_off_c, 1, 63, 0
2, 46160, Note_on_c, 1, 51, 127
2, 46160, Note_on_c, 1, 56, 127
2, 46160, Note_on_c, 1, 60, 127
2, 46160, Note_on_c, 1, 68, 127
2, 46520, Note_off_c, 1, 51, 0
2, 46520, Note_off_c, 1, 56, 0
2, 46520, Note_off_c, 1, 60, 0
2, 46520, Note_off_c, 1, 68, 0
2, 46560, Note_on_c, 1, 51, 127
2, 46560, Note_on_c, 1, 56, 127
2, 46560, Note_on_c, 1, 60, 127
2, 46560, Note_on_c, 1, 68, 127
2, 47120, Note_off_c, 1, 68, 0
2, 47160, Note_on_c, 1, 68, 127
2, 47320, Note_off_c, 1, 51, 0
2, 47320, Note_off_c, 1, 56, 0
2, 47320, Note_off_c, 1, 60, 0
2, 47320, Note_off_c, 1, 68, 0
2, 47360, Note_on_c, 1, 49, 127
2, 47360, Note_on_c, 1, 56, 127
2, 47360, Note_on_c, 1, 65, 127
2, 47360, Note_on_c, 1, 68, 127
2, 47800, Note_off_c, 1, 49, 0
2, 47800, Note_off_c, 1, 56, 0
2, 47800, Note_off_c, 1, 65, 0
2, 47800, Note_off_c, 1, 68, 0
2, 47840, Note_on_c, 1, 49, 127
2, 47840, Note_on_c, 1, 56, 127
2, 47840, Note_on_c, 1, 65, 127
2, 47840, Note_on_c, 1, 68, 127
2, 48560, Note_on_c, 1, 61, 127
2, 48560, Note_off_c, 1, 68, 0
2, 48600, Note_off_c, 1, 49, 0
2, 48600, Note_off_c, 1, 56, 0
2, 48600, Note_off_c, 1, 61, 0
2, 48600, Note_off_c, 1, 65, 0
2, 48640, Note_on_c, 1, 67, 127
2, 48640, Note_on_c, 1, 70, 127
2, 48640, Note_on_c, 1, 73, 127
2, 48640, Note_on_c, 1, 76, 127
2, 48640, Note_on_c, 1, 85, 127
2, 50200, Note_off_c, 1, 67, 0
2, 50200, Note_off_c, 1, 70, 0
2, 50200, Note_off_c, 1, 73, 0
2, 50200, Note_off_c, 1, 76, 0
2, 50200, Note_off_c, 1, 85, 0
2, 50240, Note_on_c, 1, 67, 127
2, 50240, Note_on_c, 1, 70, 127
2, 50240, Note_on_c, 1, 73, 127
2, 50240, Note_on_c, 1, 76, 127
2, 50240, Note_on_c, 1, 85, 127
2, 51960, Note_off_c, 1, 67, 0
2, 51960, Note_off_c, 1, 70, 0
2, 51960, Note_off_c, 1, 73, 0
2, 51960, Note_off_c, 1, 76, 0
2, 51960, Note_off_c, 1, 85, 0
2, 52040, Note_on_c, 1, 48, 127
2, 52040, Note_on_c, 1, 70, 127
2, 52040, Note_on_c, 1, 73, 127
2, 52040, Note_on_c, 1, 78, 127
2, 52080, Note_on_c, 1, 45, 127
2, 52080, Note_off_c, 1, 48, 0
2, 52080, Note_on_c, 1, 51, 127
2, 52080, Note_on_c, 1, 53, 127
2, 52080, Note_on_c, 1, 60, 127
2, 52080, Note_on_c, 1, 65, 127
2, 52080, Note_off_c, 1, 70, 0
2, 52080, Note_off_c, 1, 73, 0
2, 52080, Note_off_c, 1, 78, 0
2, 52120, Note_off_c, 1, 45, 0
2, 52120, Note_off_c, 1, 51, 0
2, 52120, Note_off_c, 1, 53, 0
2, 52120, Note_on_c, 1, 59, 127
2, 52120, Note_off_c, 1, 60, 0
2, 52120, Note_off_c, 1, 65, 0
2, 52120, Note_on_c, 1, 81, 127
2, 52120, Note_on_c, 1, 90, 127
2, 52120, Note_on_c, 1, 93, 127
2, 52160, Note_off_c, 1, 59, 0
2, 52160, Note_off_c, 1, 81, 0
2, 52160, Note_off_c, 1, 90, 0
2, 52160, Note_on_c, 1, 91, 127
2, 52160, Note_off_c, 1, 93, 0
2, 52160, Note_on_c, 1, 94, 127
2, 52160, Note_on_c, 1, 99, 127
2, 52200, Note_on_c, 1, 45, 127
2, 52200, Note_on_c, 1, 51, 127
2, 52200, Note_on_c, 1, 53, 127
2, 52200, Note_on_c, 1, 60, 127
2, 52200, Note_on_c, 1, 65, 127
2, 52200, Note_off_c, 1, 91, 0
2, 52200, Note_off_c, 1, 94, 0
2, 52200, Note_off_c, 1, 99, 0
2, 52360, Note_off_c, 1, 45, 0
2, 52360, Note_off_c, 1, 51, 0
2, 52360, Note_off_c, 1, 53, 0
2, 52360, Note_off_c, 1, 60, 0
2, 52360, Note_off_c, 1, 65, 0
2, 52400, Note_on_c, 1, 45, 127
2, 52400, Note_on_c, 1, 51, 127
2, 52400, Note_on_c, 1, 53, 127
2, 52400, Note_on_c, 1, 60, 127
2, 52400, Note_on_c, 1, 65, 127
2, 52640, Note_off_c, 1, 45, 0
2, 52640, Note_on_c, 1, 48, 127
2, 52640, Note_on_c, 1, 50, 127
2, 52640, Note_off_c, 1, 51, 0
2, 52640, Note_on_c, 1, 55, 127
2, 52640, Note_off_c, 1, 60, 0
2, 52640, Note_off_c, 1, 65, 0
2, 52640, Note_on_c, 1, 77, 127
2, 52680, Note_off_c, 1, 48, 0
2, 52680, Note_off_c, 1, 50, 0
2, 52680, Note_off_c, 1, 53, 0
2, 52680, Note_off_c, 1, 55, 0
2, 52680, Note_off_c, 1, 77, 0
2, 52720, Note_on_c, 1, 43, 127
2, 52720, Note_on_c, 1, 46, 127
2, 52720, Note_on_c, 1, 51, 127
2, 52720, Note_on_c, 1, 70, 127
2, 53480, Note_off_c, 1, 43, 0
2, 53480, Note_off_c, 1, 46, 0
2, 53480, Note_off_c, 1, 51, 0
2, 53480, Note_off_c, 1, 70, 0
2, 53520, Note_on_c, 1, 46, 127
2, 53520, Note_on_c, 1, 58, 127
2, 53520, Note_on_c, 1, 60, 127
2, 53520, Note_on_c, 1, 67, 127
2, 53520, Note_on_c, 1, 72, 127
2, 53880, Note_off_c, 1, 46, 0
2, 53880, Note_off_c, 1, 58, 0
2, 53880, Note_off_c, 1, 60, 0
2, 53880, Note_off_c, 1, 72, 0
2, 53880, Note_on_c, 1, 79, 127
2, 53920, Note_on_c, 1, 46, 127
2, 53920, Note_on_c, 1, 58, 127
2, 53920, Note_on_c, 1, 60, 127
2, 53920, Note_on_c, 1, 72, 127
2, 53920, Note_off_c, 1, 79, 0
2, 54440, Note_off_c, 1, 46, 0
2, 54440, Note_off_c, 1, 58, 0
2, 54440, Note_off_c, 1, 60, 0
2, 54440, Note_off_c, 1, 67, 0
2, 54440, Note_off_c, 1, 72, 0
2, 54480, Note_on_c, 1, 46, 127
2, 54480, Note_on_c, 1, 58, 127
2, 54480, Note_on_c, 1, 60, 127
2, 54480, Note_on_c, 1, 67, 127
2, 54480, Note_on_c, 1, 72, 127
2, 54680, Note_off_c, 1, 46, 0
2, 54680, Note_off_c, 1, 58, 0
2, 54680, Note_off_c, 1, 60, 0
2, 54680, Note_off_c, 1, 67, 0
2, 54680, Note_off_c, 1, 72, 0
2, 54720, Note_on_c, 1, 62, 127
2, 54720, Note_on_c, 1, 66, 127
2, 54720, Note_on_c, 1, 78, 127
2, 54720, Note_on_c, 1, 89, 127
2, 54760, Note_on_c, 1, 42, 127
2, 54760, Note_on_c, 1, 46, 127
2, 54760, Note_on_c, 1, 47, 127
2, 54760, Note_on_c, 1, 59, 127
2, 54760, Note_off_c, 1, 62, 0
2, 54760, Note_on_c, 1, 70, 127
2, 54760, Note_off_c, 1, 78, 0
2, 54760, Note_off_c, 1, 89, 0
2, 54800, Note_off_c, 1, 42, 0
2, 54800, Note_off_c, 1, 46, 0
2, 54800, Note_on_c, 1, 50, 127
2, 54800, Note_on_c, 1, 54, 127
2, 54800, Note_off_c, 1, 59, 0
2, 54800, Note_on_c, 1, 62, 127
2, 54800, Note_off_c, 1, 66, 0
2, 54800, Note_off_c, 1, 70, 0
2, 54800, Note_on_c, 1, 74, 127
2, 54840, Note_on_c, 1, 49, 127
2, 54840, Note_off_c, 1, 50, 0
2, 54840, Note_on_c, 1, 52, 127
2, 54840, Note_off_c, 1, 54, 0
2, 54840, Note_on_c, 1, 55, 127
2, 54840, Note_off_c, 1, 62, 0
2, 54840, Note_off_c, 1, 74, 0
2, 54880, Note_off_c, 1, 47, 0
2, 54880, Note_off_c, 1, 49, 0
2, 54880, Note_off_c, 1, 52, 0
2, 54880, Note_off_c, 1, 55, 0
2, 54920, Note_on_c, 1, 44, 127
2, 54920, Note_on_c, 1, 49, 127
2, 54920, Note_on_c, 1, 51, 127
2, 54920, Note_on_c, 1, 56, 127
2, 54920, Note_on_c, 1, 61, 127
2, 54920, Note_on_c, 1, 68, 127
2, 55680, Note_off_c, 1, 44, 0
2, 55680, Note_off_c, 1, 49, 0
2, 55680, Note_off_c, 1, 51, 0
2, 55680, Note_off_c, 1, 56, 0
2, 55680, Note_off_c, 1, 61, 0
2, 55680, Note_off_c, 1, 68, 0
2, 55720, Note_on_c, 1, 45, 127
2, 55720, Note_on_c, 1, 49, 127
2, 55720, Note_on_c, 1, 67, 127
2, 55720, Note_on_c, 1, 79, 127
2, 55760, Note_off_c, 1, 45, 0
2, 55760, Note_off_c, 1, 49, 0
2, 55760, Note_off_c, 1, 67, 0
2, 55760, Note_on_c, 1, 77, 127
2, 55760, Note_off_c, 1, 79, 0
2, 55760, Note_on_c, 1, 80, 127
2, 55760, Note_on_c, 1, 85, 127
2, 55760, Note_on_c, 1, 89, 127
2, 55760, Note_on_c, 1, 97, 127
2, 55800, Note_on_c, 1, 46, 127
2, 55800, Note_on_c, 1, 58, 127
2, 55800, Note_off_c, 1, 77, 0
2, 55800, Note_off_c, 1, 80, 0
2, 55800, Note_on_c, 1, 83, 127
2, 55800, Note_off_c, 1, 85, 0
2, 55800, Note_on_c, 1, 88, 127
2, 55800, Note_off_c, 1, 89, 0
2, 55800, Note_on_c, 1, 95, 127
2, 55800, Note_off_c, 1, 97, 0
2, 55840, Note_on_c, 1, 41, 127
2, 55840, Note_off_c, 1, 46, 0
2, 55840, Note_off_c, 1, 58, 0
2, 55840, Note_on_c, 1, 68, 127
2, 55840, Note_on_c, 1, 74, 127
2, 55840, Note_on_c, 1, 77, 127
2, 55840, Note_off_c, 1, 83, 0
2, 55840, Note_off_c, 1, 88, 0
2, 55840, Note_off_c, 1, 95, 0
2, 55880, Note_on_c, 1, 35, 127
2, 55880, Note_off_c, 1, 41, 0
2, 55880, Note_on_c, 1, 60, 127
2, 55880, Note_on_c, 1, 64, 127
2, 55880, Note_off_c, 1, 68, 0
2, 55880, Note_off_c, 1, 74, 0
2, 55880, Note_off_c, 1, 77, 0
2, 55920, Note_off_c, 1, 35, 0
2, 55920, Note_on_c, 1, 57, 127
2, 55920, Note_off_c, 1, 60, 0
2, 55920, Note_on_c, 1, 63, 127
2, 55920, Note_off_c, 1, 64, 0
2, 55920, Note_on_c, 1, 66, 127
2, 55920, Note_on_c, 1, 72, 127
2, 55920, Note_on_c, 1, 75, 127
2, 55960, Note_on_c, 1, 48, 127
2, 55960, Note_off_c, 1, 57, 0
2, 55960, Note_off_c, 1, 63, 0
2, 55960, Note_off_c, 1, 66, 0
2, 55960, Note_off_c, 1, 72, 0
2, 55960, Note_off_c, 1, 75, 0
2, 55960, Note_on_c, 1, 93, 127
2, 55960, Note_on_c, 1, 96, 127
2, 56000, Note_off_c, 1, 48, 0
2, 56000, Note_on_c, 1, 62, 127
2, 56000, Note_on_c, 1, 84, 127
2, 56000, Note_on_c, 1, 88, 127
2, 56000, Note_off_c, 1, 93, 0
2, 56040, Note_on_c, 1, 40, 127
2, 56040, Note_on_c, 1, 46, 127
2, 56040, Note_on_c, 1, 48, 127
2, 56040, Note_on_c, 1, 55, 127
2, 56040, Note_off_c, 1, 62, 0
2, 56040, Note_on_c, 1, 76, 127
2, 56040, Note_off_c, 1, 88, 0
2, 56040, Note_on_c, 1, 90, 127
2, 56040, Note_off_c, 1, 96, 0
2, 56080, Note_off_c, 1, 40, 0
2, 56080, Note_off_c, 1, 46, 0
2, 56080, Note_off_c, 1, 48, 0
2, 56080, Note_off_c, 1, 55, 0
2, 56080, Note_off_c, 1, 76, 0
2, 56080, Note_off_c, 1, 84, 0
2, 56080, Note_on_c, 1, 85, 127
2, 56080, Note_off_c, 1, 90, 0
2, 56080, Note_on_c, 1, 91, 127
2, 56120, Note_on_c, 1, 65, 127
2, 56120, Note_on_c, 1, 69, 127
2, 56120, Note_on_c, 1, 72, 127
2, 56120, Note_on_c, 1, 75, 127
2, 56120, Note_off_c, 1, 85, 0
2, 56120, Note_on_c, 1, 89, 127
2, 56120, Note_off_c, 1, 91, 0
2, 56320, Note_on_c, 1, 87, 127
2, 56320, Note_off_c, 1, 89, 0
2, 56640, Note_off_c, 1, 65, 0
2, 56640, Note_off_c, 1, 69, 0
2, 56640, Note_off_c, 1, 72, 0
2, 56640, Note_off_c, 1, 75, 0
2, 56640, Note_off_c, 1, 87, 0
2, 56680, Note_on_c, 1, 65, 127
2, 56680, Note_on_c, 1, 69, 127
2, 56680, Note_on_c, 1, 72, 127
2, 56680, Note_on_c, 1, 75, 127
2, 56680, Note_on_c, 1, 87, 127
2, 56920, Note_off_c, 1, 65, 0
2, 56920, Note_off_c, 1, 69, 0
2, 56920, Note_off_c, 1, 72, 0
2, 56920, Note_off_c, 1, 75, 0
2, 56920, Note_on_c, 1, 77, 127
2, 56920, Note_on_c, 1, 82, 127
2, 56920, Note_on_c, 1, 86, 127
2, 56920, Note_off_c, 1, 87, 0
2, 56920, Note_on_c, 1, 89, 127
2, 56960, Note_on_c, 1, 74, 127
2, 56960, Note_on_c, 1, 75, 127
2, 56960, Note_off_c, 1, 77, 0
2, 56960, Note_on_c, 1, 79, 127
2, 56960, Note_off_c, 1, 82, 0
2, 56960, Note_off_c, 1, 86, 0
2, 56960, Note_on_c, 1, 87, 127
2, 56960, Note_off_c, 1, 89, 0
2, 57000, Note_on_c, 1, 37, 127
2, 57000, Note_on_c, 1, 49, 127
2, 57000, Note_on_c, 1, 56, 127
2, 57000, Note_on_c, 1, 61, 127
2, 57000, Note_on_c, 1, 65, 127
2, 57000, Note_on_c, 1, 68, 127
2, 57000, Note_on_c, 1, 73, 127
2, 57000, Note_off_c, 1, 74, 0
2, 57000, Note_off_c, 1, 75, 0
2, 57000, Note_on_c, 1, 77, 127
2, 57000, Note_off_c, 1, 79, 0
2, 57000, Note_off_c, 1, 87, 0
2, 57040, Note_on_c, 1, 36, 127
2, 57040, Note_off_c, 1, 37, 0
2, 57040, Note_on_c, 1, 46, 127
2, 57040, Note_off_c, 1, 49, 0
2, 57040, Note_on_c, 1, 55, 127
2, 57040, Note_off_c, 1, 56, 0
2, 57040, Note_on_c, 1, 60, 127
2, 57040, Note_off_c, 1, 61, 0
2, 57040, Note_on_c, 1, 64, 127
2, 57040, Note_off_c, 1, 65, 0
2, 57040, Note_off_c, 1, 68, 0
2, 57040, Note_on_c, 1, 72, 127
2, 57040, Note_off_c, 1, 73, 0
2, 57040, Note_off_c, 1, 77, 0
2, 57080, Note_off_c, 1, 36, 0
2, 57080, Note_on_c, 1, 37, 127
2, 57080, Note_off_c, 1, 46, 0
2, 57080, Note_on_c, 1, 49, 127
2, 57080, Note_off_c, 1, 55, 0
2, 57080, Note_on_c, 1, 56, 127
2, 57080, Note_off_c, 1, 60, 0
2, 57080, Note_on_c, 1, 61, 127
2, 57080, Note_off_c, 1, 64, 0
2, 57080, Note_on_c, 1, 65, 127
2, 57080, Note_on_c, 1, 68, 127
2, 57080, Note_off_c, 1, 72, 0
2, 57080, Note_on_c, 1, 73, 127
2, 57080, Note_on_c, 1, 77, 127
2, 57760, Note_off_c, 1, 37, 0
2, 57760, Note_off_c, 1, 49, 0
2, 57760, Note_off_c, 1, 56, 0
2, 57760, Note_off_c, 1, 61, 0
2, 57760, Note_off_c, 1, 65, 0
2, 57760, Note_off_c, 1, 68, 0
2, 57760, Note_off_c, 1, 73, 0
2, 57760, Note_off_c, 1, 77, 0
2, 57800, Note_on_c, 1, 65, 127
2, 57800, Note_on_c, 1, 68, 127
2, 57800, Note_on_c, 1, 77, 127
2, 57800, Note_on_c, 1, 80, 127
2, 57800, Note_on_c, 1, 85, 127
2, 57840, Note_on_c, 1, 37, 127
2, 57840, Note_off_c, 1, 65, 0
2, 57840, Note_off_c, 1, 68, 0
2, 57880, Note_off_c, 1, 37, 0
2, 57880, Note_on_c, 1, 65, 127
2, 57880, Note_on_c, 1, 68, 127
2, 57960, Note_off_c, 1, 65, 0
2, 57960, Note_off_c, 1, 68, 0
2, 58000, Note_on_c, 1, 65, 127
2, 58000, Note_on_c, 1, 68, 127
2, 58160, Note_off_c, 1, 65, 0
2, 58160, Note_off_c, 1, 68, 0
2, 58200, Note_on_c, 1, 65, 127
2, 58200, Note_on_c, 1, 68, 127
2, 58360, Note_off_c, 1, 65, 0
2, 58360, Note_off_c, 1, 68, 0
2, 58400, Note_on_c, 1, 65, 127
2, 58400, Note_on_c, 1, 68, 127
2, 58560, Note_off_c, 1, 65, 0
2, 58560, Note_off_c, 1, 68, 0
2, 58560, Note_on_c, 1, 73, 127
2, 58560, Note_off_c, 1, 80, 0
2, 58600, Note_on_c, 1, 59, 127
2, 58600, Note_on_c, 1, 64, 127
2, 58600, Note_on_c, 1, 68, 127
2, 58600, Note_on_c, 1, 71, 127
2, 58600, Note_off_c, 1, 73, 0
2, 58600, Note_off_c, 1, 77, 0
2, 58600, Note_on_c, 1, 83, 127
2, 58600, Note_off_c, 1, 85, 0
2, 58680, Note_off_c, 1, 59, 0
2, 58680, Note_off_c, 1, 64, 0
2, 58680, Note_off_c, 1, 68, 0
2, 58680, Note_off_c, 1, 71, 0
2, 58680, Note_off_c, 1, 83, 0
2, 58720, Note_on_c, 1, 59, 127
2, 58720, Note_on_c, 1, 64, 127
2, 58720, Note_on_c, 1, 68, 127
2, 58720, Note_on_c, 1, 71, 127
2, 58720, Note_on_c, 1, 83, 127
2, 58840, Note_on_c, 1, 57, 127
2, 58840, Note_off_c, 1, 59, 0
2, 58840, Note_off_c, 1, 64, 0
2, 58840, Note_on_c, 1, 67, 127
2, 58840, Note_off_c, 1, 68, 0
2, 58840, Note_on_c, 1, 69, 127
2, 58840, Note_off_c, 1, 71, 0
2, 58840, Note_on_c, 1, 76, 127
2, 58840, Note_on_c, 1, 78, 127
2, 58840, Note_off_c, 1, 83, 0
2, 58840, Note_on_c, 1, 85, 127
2, 58840, Note_on_c, 1, 86, 127
2, 58880, Note_off_c, 1, 57, 0
2, 58880, Note_on_c, 1, 63, 127
2, 58880, Note_off_c, 1, 67, 0
2, 58880, Note_on_c, 1, 73, 127
2, 58880, Note_off_c, 1, 76, 0
2, 58880, Note_off_c, 1, 78, 0
2, 58880, Note_on_c, 1, 83, 127
2, 58880, Note_off_c, 1, 85, 0
2, 58880, Note_off_c, 1, 86, 0
2, 58920, Note_on_c, 1, 51, 127
2, 58920, Note_on_c, 1, 55, 127
2, 58920, Note_on_c, 1, 60, 127
2, 58920, Note_on_c, 1, 61, 127
2, 58920, Note_off_c, 1, 63, 0
2, 58920, Note_off_c, 1, 69, 0
2, 58920, Note_on_c, 1, 72, 127
2, 58920, Note_off_c, 1, 73, 0
2, 58920, Note_on_c, 1, 75, 127
2, 58920, Note_off_c, 1, 83, 0
2, 58960, Note_on_c, 1, 34, 127
2, 58960, Note_on_c, 1, 46, 127
2, 58960, Note_off_c, 1, 51, 0
2, 58960, Note_off_c, 1, 55, 0
2, 58960, Note_on_c, 1, 59, 127
2, 58960, Note_off_c, 1, 60, 0
2, 58960, Note_off_c, 1, 61, 0
2, 58960, Note_on_c, 1, 62, 127
2, 58960, Note_off_c, 1, 72, 0
2, 58960, Note_off_c, 1, 75, 0
2, 59000, Note_off_c, 1, 34, 0
2, 59000, Note_off_c, 1, 46, 0
2, 59000, Note_off_c, 1, 59, 0
2, 59000, Note_off_c, 1, 62, 0
2, 59040, Note_on_c, 1, 75, 127
2, 59040, Note_on_c, 1, 81, 127
2, 59040, Note_on_c, 1, 83, 127
2, 59040, Note_on_c, 1, 87, 127
2, 59400, Note_on_c, 1, 46, 127
2, 59400, Note_on_c, 1, 74, 127
2, 59400, Note_off_c, 1, 75, 0
2, 59400, Note_off_c, 1, 81, 0
2, 59400, Note_off_c, 1, 83, 0
2, 59400, Note_on_c, 1, 86, 127
2, 59440, Note_on_c, 1, 34, 127
2, 59440, Note_on_c, 1, 37, 127
2, 59440, Note_on_c, 1, 70, 127
2, 59440, Note_off_c, 1, 74, 0
2, 59440, Note_on_c, 1, 82, 127
2, 59440, Note_off_c, 1, 86, 0
2, 59440, Note_off_c, 1, 87, 0
2, 59480, Note_off_c, 1, 34, 0
2, 59480, Note_off_c, 1, 37, 0
2, 59480, Note_off_c, 1, 46, 0
2, 59480, Note_on_c, 1, 58, 127
2, 59480, Note_on_c, 1, 61, 127
2, 59480, Note_on_c, 1, 63, 127
2, 59480, Note_on_c, 1, 67, 127
2, 59520, Note_on_c, 1, 51, 127
2, 59520, Note_off_c, 1, 61, 0
2, 59520, Note_off_c, 1, 63, 0
2, 59520, Note_off_c, 1, 67, 0
2, 59520, Note_off_c, 1, 70, 0
2, 59520, Note_on_c, 1, 73, 127
2, 59520, Note_on_c, 1, 76, 127
2, 59520, Note_off_c, 1, 82, 0
2, 59560, Note_off_c, 1, 51, 0
2, 59560, Note_off_c, 1, 58, 0
2, 59560, Note_on_c, 1, 65, 127
2, 59560, Note_on_c, 1, 69, 127
2, 59560, Note_off_c, 1, 76, 0
2, 59560, Note_on_c, 1, 77, 127
2, 59560, Note_on_c, 1, 81, 127
2, 59560, Note_on_c, 1, 88, 127
2, 59600, Note_on_c, 1, 34, 127
2, 59600, Note_on_c, 1, 46, 127
2, 59600, Note_on_c, 1, 62, 127
2, 59600, Note_on_c, 1, 68, 127
2, 59600, Note_off_c, 1, 69, 0
2, 59600, Note_off_c, 1, 73, 0
2, 59600, Note_off_c, 1, 77, 0
2, 59600, Note_off_c, 1, 81, 0
2, 59600, Note_off_c, 1, 88, 0
2, 59640, Note_off_c, 1, 34, 0
2, 59640, Note_on_c, 1, 36, 127
2, 59640, Note_on_c, 1, 56, 127
2, 59640, Note_off_c, 1, 68, 0
2, 59680, Note_off_c, 1, 36, 0
2, 59680, Note_off_c, 1, 46, 0
2, 59680, Note_off_c, 1, 56, 0
2, 59680, Note_off_c, 1, 62, 0
2, 59680, Note_on_c, 1, 69, 127
2, 59680, Note_on_c, 1, 73, 127
2, 59680, Note_on_c, 1, 77, 127
2, 59680, Note_on_c, 1, 81, 127
2, 59680, Note_on_c, 1, 88, 127
2, 59800, Note_off_c, 1, 65, 0
2, 59800, Note_off_c, 1, 69, 0
2, 59800, Note_on_c, 1, 71, 127
2, 59800, Note_off_c, 1, 73, 0
2, 59800, Note_off_c, 1, 77, 0
2, 59800, Note_off_c, 1, 81, 0
2, 59800, Note_on_c, 1, 83, 127
2, 59800, Note_off_c, 1, 88, 0
2, 59840, Note_on_c, 1, 57, 127
2, 59840, Note_on_c, 1, 61, 127
2, 59840, Note_on_c, 1, 69, 127
2, 59840, Note_off_c, 1, 71, 0
2, 59840, Note_off_c, 1, 83, 0
2, 59840, Note_on_c, 1, 90, 127
2, 59840, Note_on_c, 1, 93, 127
2, 59880, Note_off_c, 1, 57, 0
2, 59880, Note_on_c, 1, 60, 127
2, 59880, Note_off_c, 1, 61, 0
2, 59880, Note_on_c, 1, 66, 127
2, 59880, Note_off_c, 1, 69, 0
2, 59880, Note_on_c, 1, 81, 127
2, 59880, Note_on_c, 1, 88, 127
2, 59880, Note_off_c, 1, 90, 0
2, 59920, Note_off_c, 1, 60, 0
2, 59920, Note_off_c, 1, 66, 0
2, 59920, Note_on_c, 1, 75, 127
2, 59920, Note_on_c, 1, 78, 127
2, 59920, Note_off_c, 1, 81, 0
2, 59920, Note_on_c, 1, 84, 127
2, 59920, Note_off_c, 1, 88, 0
2, 59920, Note_on_c, 1, 90, 127
2, 59920, Note_on_c, 1, 92, 127
2, 59920, Note_off_c, 1, 93, 0
2, 59960, Note_on_c, 1, 57, 127
2, 59960, Note_on_c, 1, 60, 127
2, 59960, Note_on_c, 1, 64, 127
2, 59960, Note_off_c, 1, 75, 0
2, 59960, Note_off_c, 1, 78, 0
2, 59960, Note_on_c, 1, 83, 127
2, 59960, Note_off_c, 1, 84, 0
2, 59960, Note_off_c, 1, 90, 0
2, 59960, Note_off_c, 1, 92, 0
2, 60000, Note_on_c, 1, 37, 127
2, 60000, Note_on_c, 1, 49, 127
2, 60000, Note_off_c, 1, 57, 0
2, 60000, Note_off_c, 1, 60, 0
2, 60000, Note_off_c, 1, 64, 0
2, 60000, Note_on_c, 1, 73, 127
2, 60000, Note_on_c, 1, 78, 127
2, 60000, Note_on_c, 1, 82, 127
2, 60000, Note_off_c, 1, 83, 0
2, 60000, Note_on_c, 1, 85, 127
2, 60040, Note_off_c, 1, 37, 0
2, 60040, Note_off_c, 1, 49, 0
2, 60040, Note_on_c, 1, 60, 127
2, 60040, Note_on_c, 1, 66, 127
2, 60040, Note_off_c, 1, 73, 0
2, 60040, Note_off_c, 1, 78, 0
2, 60040, Note_on_c, 1, 81, 127
2, 60040, Note_off_c, 1, 82, 0
2, 60040, Note_off_c, 1, 85, 0
2, 60040, Note_on_c, 1, 88, 127
2, 60040, Note_on_c, 1, 93, 127
2, 60200, Note_off_c, 1, 60, 0
2, 60200, Note_off_c, 1, 66, 0
2, 60200, Note_off_c, 1, 81, 0
2, 60200, Note_off_c, 1, 88, 0
2, 60200, Note_off_c, 1, 93, 0
2, 60240, Note_on_c, 1, 54, 127
2, 60240, Note_on_c, 1, 59, 127
2, 60240, Note_on_c, 1, 79, 127
2, 60240, Note_on_c, 1, 81, 127
2, 60800, Note_off_c, 1, 54, 0
2, 60800, Note_off_c, 1, 59, 0
2, 60800, Note_off_c, 1, 79, 0
2, 60800, Note_off_c, 1, 81, 0
2, 60840, Note_on_c, 1, 54, 127
2, 60840, Note_on_c, 1, 59, 127
2, 60840, Note_on_c, 1, 79, 127
2, 60840, Note_on_c, 1, 81, 127
2, 61040, Note_off_c, 1, 54, 0
2, 61040, Note_off_c, 1, 59, 0
2, 61040, Note_off_c, 1, 79, 0
2, 61040, Note_off_c, 1, 81, 0
2, 61080, Note_on_c, 1, 51, 127
2, 61080, Note_on_c, 1, 55, 127
2, 61080, Note_on_c, 1, 71, 127
2, 61080, Note_on_c, 1, 78, 127
2, 61080, Note_on_c, 1, 83, 127
2, 61120, Note_on_c, 1, 50, 127
2, 61120, Note_off_c, 1, 51, 0
2, 61120, Note_on_c, 1, 59, 127
2, 61120, Note_on_c, 1, 67, 127
2, 61120, Note_off_c, 1, 71, 0
2, 61120, Note_on_c, 1, 77, 127
2, 61120, Note_off_c, 1, 78, 0
2, 61120, Note_off_c, 1, 83, 0
2, 61160, Note_on_c, 1, 38, 127
2, 61160, Note_on_c, 1, 46, 127
2, 61160, Note_off_c, 1, 50, 0
2, 61160, Note_off_c, 1, 59, 0
2, 61160, Note_on_c, 1, 62, 127
2, 61160, Note_off_c, 1, 67, 0
2, 61160, Note_off_c, 1, 77, 0
2, 61200, Note_off_c, 1, 38, 0
2, 61200, Note_off_c, 1, 46, 0
2, 61200, Note_off_c, 1, 55, 0
2, 61200, Note_on_c, 1, 61, 127
2, 61200, Note_off_c, 1, 62, 0
2, 61200, Note_on_c, 1, 65, 127
2, 61200, Note_on_c, 1, 77, 127
2, 61200, Note_on_c, 1, 80, 127
2, 61200, Note_on_c, 1, 85, 127
2, 61240, Note_on_c, 1, 38, 127
2, 61240, Note_on_c, 1, 41, 127
2, 61240, Note_on_c, 1, 45, 127
2, 61240, Note_on_c, 1, 50, 127
2, 61240, Note_on_c, 1, 53, 127
2, 61240, Note_on_c, 1, 57, 127
2, 61240, Note_off_c, 1, 61, 0
2, 61240, Note_on_c, 1, 62, 127
2, 61240, Note_off_c, 1, 65, 0
2, 61240, Note_off_c, 1, 77, 0
2, 61240, Note_off_c, 1, 80, 0
2, 61240, Note_off_c, 1, 85, 0
2, 61280, Note_off_c, 1, 38, 0
2, 61280, Note_off_c, 1, 41, 0
2, 61280, Note_off_c, 1, 45, 0
2, 61280, Note_off_c, 1, 50, 0
2, 61280, Note_off_c, 1, 53, 0
2, 61280, Note_off_c, 1, 57, 0
2, 61280, Note_off_c, 1, 62, 0
2, 61280, Note_on_c, 1, 64, 127
2, 61280, Note_on_c, 1, 76, 127
2, 61280, Note_on_c, 1, 79, 127
2, 61280, Note_on_c, 1, 88, 127
2, 61320, Note_on_c, 1, 41, 127
2, 61320, Note_on_c, 1, 47, 127
2, 61320, Note_on_c, 1, 53, 127
2, 61320, Note_off_c, 1, 64, 0
2, 61320, Note_off_c, 1, 76, 0
2, 61320, Note_off_c, 1, 79, 0
2, 61320, Note_on_c, 1, 80, 127
2, 61320, Note_on_c, 1, 86, 127
2, 61320, Note_off_c, 1, 88, 0
2, 61320, Note_on_c, 1, 92, 127
2, 61360, Note_off_c, 1, 41, 0
2, 61360, Note_off_c, 1, 47, 0
2, 61360, Note_off_c, 1, 53, 0
2, 61360, Note_on_c, 1, 66, 127
2, 61360, Note_on_c, 1, 69, 127
2, 61360, Note_off_c, 1, 80, 0
2, 61360, Note_on_c, 1, 85, 127
2, 61360, Note_off_c, 1, 86, 0
2, 61360, Note_off_c, 1, 92, 0
2, 61360, Note_on_c, 1, 93, 127
2, 61400, Note_on_c, 1, 40, 127
2, 61400, Note_off_c, 1, 66, 0
2, 61400, Note_off_c, 1, 69, 0
2, 61400, Note_on_c, 1, 76, 127
2, 61400, Note_on_c, 1, 79, 127
2, 61400, Note_on_c, 1, 88, 127
2, 61400, Note_off_c, 1, 93, 0
2, 61440, Note_off_c, 1, 40, 0
2, 61440, Note_on_c, 1, 51, 127
2, 61440, Note_on_c, 1, 64, 127
2, 61440, Note_off_c, 1, 76, 0
2, 61440, Note_off_c, 1, 79, 0
2, 61440, Note_off_c, 1, 85, 0
2, 61440, Note_off_c, 1, 88, 0
2, 61480, Note_on_c, 1, 38, 127
2, 61480, Note_on_c, 1, 50, 127
2, 61480, Note_off_c, 1, 51, 0
2, 61480, Note_off_c, 1, 64, 0
2, 61480, Note_on_c, 1, 67, 127
2, 61480, Note_on_c, 1, 70, 127
2, 61480, Note_on_c, 1, 76, 127
2, 61480, Note_on_c, 1, 79, 127
2, 61520, Note_off_c, 1, 38, 0
2, 61520, Note_on_c, 1, 41, 127
2, 61520, Note_off_c, 1, 50, 0
2, 61520, Note_on_c, 1, 53, 127
2, 61520, Note_on_c, 1, 65, 127
2, 61520, Note_off_c, 1, 67, 0
2, 61520, Note_on_c, 1, 68, 127
2, 61520, Note_off_c, 1, 70, 0
2, 61520, Note_on_c, 1, 73, 127
2, 61520, Note_off_c, 1, 76, 0
2, 61520, Note_on_c, 1, 77, 127
2, 61520, Note_off_c, 1, 79, 0
2, 61560, Note_on_c, 1, 38, 127
2, 61560, Note_off_c, 1, 41, 0
2, 61560, Note_on_c, 1, 50, 127
2, 61560, Note_off_c, 1, 53, 0
2, 61560, Note_off_c, 1, 65, 0
2, 61560, Note_on_c, 1, 67, 127
2, 61560, Note_off_c, 1, 68, 0
2, 61560, Note_on_c, 1, 70, 127
2, 61560, Note_off_c, 1, 73, 0
2, 61560, Note_on_c, 1, 76, 127
2, 61560, Note_off_c, 1, 77, 0
2, 61560, Note_on_c, 1, 79, 127
2, 61840, Note_off_c, 1, 38, 0
2, 61840, Note_off_c, 1, 50, 0
2, 61840, Note_off_c, 1, 67, 0
2, 61840, Note_off_c, 1, 70, 0
2, 61840, Note_off_c, 1, 76, 0
2, 61840, Note_off_c, 1, 79, 0
2, 61880, Note_on_c, 1, 68, 127
2, 61880, Note_on_c, 1, 89, 127
2, 61880, Note_on_c, 1, 97, 127
2, 61920, Note_on_c, 1, 41, 127
2, 61920, Note_on_c, 1, 48, 127
2, 61920, Note_on_c, 1, 53, 127
2, 61920, Note_on_c, 1, 56, 127
2, 61920, Note_on_c, 1, 61, 127
2, 61920, Note_off_c, 1, 68, 0
2, 61920, Note_off_c, 1, 89, 0
2, 61920, Note_off_c, 1, 97, 0
2, 61960, Note_off_c, 1, 41, 0
2, 61960, Note_off_c, 1, 48, 0
2, 61960, Note_off_c, 1, 53, 0
2, 61960, Note_off_c, 1, 56, 0
2, 61960, Note_off_c, 1, 61, 0
2, 61960, Note_on_c, 1, 62, 127
2, 61960, Note_on_c, 1, 76, 127
2, 61960, Note_on_c, 1, 77, 127
2, 61960, Note_on_c, 1, 81, 127
2, 62000, Note_on_c, 1, 43, 127
2, 62000, Note_on_c, 1, 48, 127
2, 62000, Note_on_c, 1, 51, 127
2, 62000, Note_on_c, 1, 55, 127
2, 62000, Note_on_c, 1, 60, 127
2, 62000, Note_off_c, 1, 62, 0
2, 62000, Note_on_c, 1, 63, 127
2, 62000, Note_on_c, 1, 67, 127
2, 62000, Note_on_c, 1, 72, 127
2, 62000, Note_off_c, 1, 76, 0
2, 62000, Note_off_c, 1, 77, 0
2, 62000, Note_off_c, 1, 81, 0
2, 62040, Note_off_c, 1, 48, 0
2, 62040, Note_on_c, 1, 50, 127
2, 62040, Note_off_c, 1, 51, 0
2, 62040, Note_off_c, 1, 55, 0
2, 62040, Note_on_c, 1, 59, 127
2, 62040, Note_off_c, 1, 60, 0
2, 62040, Note_off_c, 1, 63, 0
2, 62040, Note_on_c, 1, 65, 127
2, 62040, Note_off_c, 1, 67, 0
2, 62040, Note_on_c, 1, 68, 127
2, 62040, Note_off_c, 1, 72, 0
2, 62080, Note_off_c, 1, 43, 0
2, 62080, Note_off_c, 1, 50, 0
2, 62080, Note_off_c, 1, 59, 0
2, 62080, Note_off_c, 1, 68, 0
2, 62080, Note_on_c, 1, 103, 127
2, 62120, Note_on_c, 1, 52, 127
2, 62120, Note_off_c, 1, 65, 0
2, 62120, Note_on_c, 1, 80, 127
2, 62120, Note_on_c, 1, 90, 127
2, 62120, Note_on_c, 1, 93, 127
2, 62120, Note_off_c, 1, 103, 0
2, 62160, Note_off_c, 1, 52, 0
2, 62160, Note_on_c, 1, 68, 127
2, 62160, Note_on_c, 1, 75, 127
2, 62160, Note_on_c, 1, 77, 127
2, 62160, Note_off_c, 1, 90, 0
2, 62160, Note_off_c, 1, 93, 0
2, 62200, Note_on_c, 1, 31, 127
2, 62200, Note_on_c, 1, 55, 127
2, 62200, Note_on_c, 1, 58, 127
2, 62200, Note_on_c, 1, 64, 127
2, 62200, Note_off_c, 1, 68, 0
2, 62200, Note_off_c, 1, 75, 0
2, 62200, Note_off_c, 1, 77, 0
2, 62200, Note_off_c, 1, 80, 0
2, 62240, Note_off_c, 1, 31, 0
2, 62240, Note_off_c, 1, 55, 0
2, 62240, Note_on_c, 1, 63, 127
2, 62240, Note_off_c, 1, 64, 0
2, 62240, Note_on_c, 1, 82, 127
2, 62240, Note_on_c, 1, 89, 127
2, 62240, Note_on_c, 1, 94, 127
2, 62280, Note_on_c, 1, 43, 127
2, 62280, Note_on_c, 1, 55, 127
2, 62280, Note_off_c, 1, 58, 0
2, 62280, Note_off_c, 1, 63, 0
2, 62280, Note_on_c, 1, 74, 127
2, 62280, Note_on_c, 1, 76, 127
2, 62280, Note_off_c, 1, 82, 0
2, 62280, Note_off_c, 1, 89, 0
2, 62280, Note_off_c, 1, 94, 0
2, 62320, Note_on_c, 1, 37, 127
2, 62320, Note_off_c, 1, 43, 0
2, 62320, Note_off_c, 1, 55, 0
2, 62320, Note_on_c, 1, 70, 127
2, 62320, Note_on_c, 1, 73, 127
2, 62320, Note_off_c, 1, 74, 0
2, 62320, Note_on_c, 1, 75, 127
2, 62320, Note_off_c, 1, 76, 0
2, 62320, Note_on_c, 1, 79, 127
2, 62360, Note_on_c, 1, 45, 127
2, 62360, Note_on_c, 1, 49, 127
2, 62360, Note_on_c, 1, 67, 127
2, 62360, Note_off_c, 1, 70, 0
2, 62360, Note_off_c, 1, 73, 0
2, 62360, Note_off_c, 1, 75, 0
2, 62360, Note_on_c, 1, 76, 127
2, 62360, Note_off_c, 1, 79, 0
2, 62400, Note_off_c, 1, 37, 0
2, 62400, Note_off_c, 1, 45, 0
2, 62400, Note_off_c, 1, 49, 0
2, 62400, Note_off_c, 1, 67, 0
2, 62400, Note_on_c, 1, 70, 127
2, 62400, Note_on_c, 1, 73, 127
2, 62400, Note_on_c, 1, 75, 127
2, 62400, Note_off_c, 1, 76, 0
2, 62400, Note_on_c, 1, 79, 127
2, 62440, Note_on_c, 1, 46, 127
2, 62440, Note_on_c, 1, 50, 127
2, 62440, Note_on_c, 1, 53, 127
2, 62440, Note_off_c, 1, 70, 0
2, 62440, Note_off_c, 1, 73, 0
2, 62440, Note_on_c, 1, 74, 127
2, 62440, Note_off_c, 1, 75, 0
2, 62440, Note_on_c, 1, 77, 127
2, 62440, Note_off_c, 1, 79, 0
2, 62440, Note_on_c, 1, 82, 127
2, 62480, Note_off_c, 1, 50, 0
2, 62480, Note_on_c, 1, 58, 127
2, 62480, Note_on_c, 1, 63, 127
2, 62480, Note_on_c, 1, 70, 127
2, 62480, Note_off_c, 1, 74, 0
2, 62480, Note_off_c, 1, 82, 0
2, 62520, Note_on_c, 1, 34, 127
2, 62520, Note_off_c, 1, 46, 0
2, 62520, Note_off_c, 1, 53, 0
2, 62520, Note_off_c, 1, 58, 0
2, 62520, Note_off_c, 1, 63, 0
2, 62520, Note_off_c, 1, 70, 0
2, 62520, Note_on_c, 1, 71, 127
2, 62520, Note_off_c, 1, 77, 0
2, 62520, Note_on_c, 1, 78, 127
2, 62520, Note_on_c, 1, 80, 127
2, 62520, Note_on_c, 1, 83, 127
2, 62560, Note_off_c, 1, 34, 0
2, 62560, Note_on_c, 1, 51, 127
2, 62560, Note_on_c, 1, 58, 127
2, 62560, Note_off_c, 1, 71, 0
2, 62560, Note_off_c, 1, 78, 0
2, 62560, Note_off_c, 1, 80, 0
2, 62560, Note_off_c, 1, 83, 0
2, 62560, Note_on_c, 1, 84, 127
2, 62600, Note_off_c, 1, 51, 0
2, 62600, Note_off_c, 1, 58, 0
2, 62600, Note_on_c, 1, 65, 127
2, 62600, Note_on_c, 1, 85, 127
2, 62640, Note_off_c, 1, 65, 0
2, 62640, Note_off_c, 1, 84, 0
2, 62640, Note_off_c, 1, 85, 0
2, 62680, Note_on_c, 1, 44, 127
2, 62680, Note_on_c, 1, 56, 127
2, 62680, Note_on_c, 1, 72, 127
2, 62680, Note_on_c, 1, 77, 127
2, 63000, Note_off_c, 1, 44, 0
2, 63000, Note_off_c, 1, 56, 0
2, 63000, Note_off_c, 1, 72, 0
2, 63000, Note_off_c, 1, 77, 0
2, 63040, Note_on_c, 1, 44, 127
2, 63040, Note_on_c, 1, 56, 127
2, 63040, Note_on_c, 1, 72, 127
2, 63040, Note_on_c, 1, 77, 127
2, 63080, Note_off_c, 1, 44, 0
2, 63080, Note_off_c, 1, 56, 0
2, 63080, Note_off_c, 1, 72, 0
2, 63080, Note_off_c, 1, 77, 0
2, 63120, Note_on_c, 1, 58, 127
2, 63120, Note_on_c, 1, 62, 127
2, 63120, Note_on_c, 1, 66, 127
2, 63120, Note_on_c, 1, 72, 127
2, 63120, Note_on_c, 1, 82, 127
2, 63160, Note_on_c, 1, 55, 127
2, 63160, Note_off_c, 1, 58, 0
2, 63160, Note_off_c, 1, 62, 0
2, 63160, Note_on_c, 1, 65, 127
2, 63160, Note_off_c, 1, 66, 0
2, 63160, Note_on_c, 1, 67, 127
2, 63160, Note_off_c, 1, 72, 0
2, 63160, Note_on_c, 1, 73, 127
2, 63160, Note_on_c, 1, 77, 127
2, 63160, Note_off_c, 1, 82, 0
2, 63200, Note_on_c, 1, 33, 127
2, 63200, Note_off_c, 1, 55, 0
2, 63200, Note_off_c, 1, 65, 0
2, 63200, Note_off_c, 1, 67, 0
2, 63200, Note_off_c, 1, 73, 0
2, 63200, Note_off_c, 1, 77, 0
2, 63200, Note_on_c, 1, 87, 127
2, 63200, Note_on_c, 1, 90, 127
2, 63240, Note_off_c, 1, 33, 0
2, 63240, Note_on_c, 1, 39, 127
2, 63240, Note_on_c, 1, 47, 127
2, 63240, Note_on_c, 1, 59, 127
2, 63240, Note_on_c, 1, 66, 127
2, 63240, Note_on_c, 1, 69, 127
2, 63240, Note_off_c, 1, 87, 0
2, 63240, Note_off_c, 1, 90, 0
2, 63280, Note_off_c, 1, 39, 0
2, 63280, Note_off_c, 1, 47, 0
2, 63280, Note_on_c, 1, 55, 127
2, 63280, Note_off_c, 1, 59, 0
2, 63280, Note_on_c, 1, 65, 127
2, 63280, Note_off_c, 1, 66, 0
2, 63280, Note_on_c, 1, 67, 127
2, 63280, Note_off_c, 1, 69, 0
2, 63280, Note_on_c, 1, 73, 127
2, 63280, Note_on_c, 1, 77, 127
2, 63320, Note_off_c, 1, 55, 0
2, 63320, Note_off_c, 1, 65, 0
2, 63320, Note_on_c, 1, 69, 127
2, 63320, Note_on_c, 1, 72, 127
2, 63320, Note_off_c, 1, 73, 0
2, 63320, Note_on_c, 1, 75, 127
2, 63320, Note_off_c, 1, 77, 0
2, 63320, Note_on_c, 1, 84, 127
2, 63360, Note_on_c, 1, 53, 127
2, 63360, Note_on_c, 1, 57, 127
2, 63360, Note_on_c, 1, 60, 127
2, 63360, Note_on_c, 1, 65, 127
2, 63360, Note_off_c, 1, 67, 0
2, 63360, Note_off_c, 1, 69, 0
2, 63360, Note_off_c, 1, 72, 0
2, 63360, Note_off_c, 1, 75, 0
2, 63360, Note_off_c, 1, 84, 0
2, 63360, Note_on_c, 1, 98, 127
2, 63360, Note_on_c, 1, 99, 127
2, 63400, Note_on_c, 1, 33, 127
2, 63400, Note_on_c, 1, 36, 127
2, 63400, Note_on_c, 1, 41, 127
2, 63400, Note_on_c, 1, 45, 127
2, 63400, Note_off_c, 1, 53, 0
2, 63400, Note_off_c, 1, 60, 0
2, 63400, Note_off_c, 1, 65, 0
2, 63400, Note_off_c, 1, 98, 0
2, 63400, Note_off_c, 1, 99, 0
2, 63440, Note_off_c, 1, 33, 0
2, 63440, Note_off_c, 1, 36, 0
2, 63440, Note_off_c, 1, 41, 0
2, 63440, Note_off_c, 1, 45, 0
2, 63440, Note_on_c, 1, 55, 127
2, 63440, Note_off_c, 1, 57, 0
2, 63440, Note_on_c, 1, 60, 127
2, 63440, Note_on_c, 1, 62, 127
2, 63440, Note_on_c, 1, 82, 127
2, 63480, Note_on_c, 1, 46, 127
2, 63480, Note_off_c, 1, 55, 0
2, 63480, Note_off_c, 1, 60, 0
2, 63480, Note_off_c, 1, 62, 0
2, 63480, Note_on_c, 1, 72, 127
2, 63480, Note_on_c, 1, 80, 127
2, 63480, Note_off_c, 1, 82, 0
2, 63520, Note_off_c, 1, 46, 0
2, 63520, Note_on_c, 1, 50, 127
2, 63520, Note_on_c, 1, 62, 127
2, 63520, Note_off_c, 1, 72, 0
2, 63520, Note_on_c, 1, 78, 127
2, 63520, Note_on_c, 1, 83, 127
2, 63520, Note_on_c, 1, 90, 127
2, 63880, Note_off_c, 1, 50, 0
2, 63880, Note_on_c, 1, 51, 127
2, 63880, Note_off_c, 1, 62, 0
2, 63880, Note_on_c, 1, 66, 127
2, 63880, Note_on_c, 1, 73, 127
2, 63880, Note_off_c, 1, 78, 0
2, 63880, Note_off_c, 1, 80, 0
2, 63880, Note_off_c, 1, 83, 0
2, 63880, Note_off_c, 1, 90, 0
2, 63920, Note_on_c, 1, 41, 127
2, 63920, Note_on_c, 1, 45, 127
2, 63920, Note_off_c, 1, 51, 0
2, 63920, Note_on_c, 1, 53, 127
2, 63920, Note_on_c, 1, 63, 127
2, 63920, Note_off_c, 1, 66, 0
2, 63920, Note_on_c, 1, 72, 127
2, 63920, Note_off_c, 1, 73, 0
2, 63920, Note_on_c, 1, 75, 127
2, 65040, Note_off_c, 1, 41, 0
2, 65040, Note_off_c, 1, 45, 0
2, 65040, Note_off_c, 1, 53, 0
2, 65040, Note_off_c, 1, 63, 0
2, 65040, Note_off_c, 1, 72, 0
2, 65040, Note_off_c, 1, 75, 0
2, 65120, Note_on_c, 1, 64, 127
2, 65120, Note_on_c, 1, 67, 127
2, 65120, Note_on_c, 1, 71, 127
2, 65120, Note_on_c, 1, 76, 127
2, 65120, Note_on_c, 1, 83, 127
2, 65280, Note_on_c, 1, 45, 127
2, 65280, Note_off_c, 1, 64, 0
2, 65280, Note_off_c, 1, 67, 0
2, 65280, Note_off_c, 1, 71, 0
2, 65280, Note_off_c, 1, 76, 0
2, 65280, Note_off_c, 1, 83, 0
2, 65280, Note_on_c, 1, 85, 127
2, 65280, Note_on_c, 1, 88, 127
2, 65280, Note_on_c, 1, 97, 127
2, 65320, Note_off_c, 1, 45, 0
2, 65320, Note_on_c, 1, 64, 127
2, 65320, Note_on_c, 1, 67, 127
2, 65320, Note_on_c, 1, 71, 127
2, 65320, Note_on_c, 1, 76, 127
2, 65320, Note_on_c, 1, 83, 127
2, 65320, Note_off_c, 1, 85, 0
2, 65320, Note_off_c, 1, 88, 0
2, 65320, Note_off_c, 1, 97, 0
2, 65360, Note_off_c, 1, 64, 0
2, 65360, Note_off_c, 1, 67, 0
2, 65360, Note_off_c, 1, 71, 0
2, 65360, Note_off_c, 1, 76, 0
2, 65360, Note_off_c, 1, 83, 0
2, 65400, Note_on_c, 1, 64, 127
2, 65400, Note_on_c, 1, 67, 127
2, 65400, Note_on_c, 1, 71, 127
2, 65400, Note_on_c, 1, 76, 127
2, 65400, Note_on_c, 1, 83, 127
2, 65920, Note_off_c, 1, 64, 0
2, 65920, Note_off_c, 1, 67, 0
2, 65920, Note_off_c, 1, 71, 0
2, 65920, Note_off_c, 1, 76, 0
2, 65920, Note_off_c, 1, 83, 0
2, 65960, Note_on_c, 1, 50, 127
2, 65960, Note_on_c, 1, 53, 127
2, 65960, Note_on_c, 1, 56, 127
2, 65960, Note_on_c, 1, 59, 127
2, 67360, Note_off_c, 1, 50, 0
2, 67360, Note_off_c, 1, 53, 0
2, 67360, Note_off_c, 1, 56, 0
2, 67360, Note_off_c, 1, 59, 0
2, 67400, Note_on_c, 1, 50, 127
2, 67400, Note_on_c, 1, 53, 127
2, 67400, Note_on_c, 1, 56, 127
2, 67400, Note_on_c, 1, 59, 127
2, 69560, Note_off_c, 1, 50, 0
2, 69560, Note_off_c, 1, 53, 0
2, 69560, Note_off_c, 1, 56, 0
2, 69560, Note_off_c, 1, 59, 0
2, 69600, Note_on_c, 1, 50, 127
2, 69600, Note_on_c, 1, 53, 127
2, 69600, Note_on_c, 1, 56, 127
2, 69600, Note_on_c, 1, 59, 127
2, 70200, Note_off_c, 1, 50, 0
2, 70200, Note_off_c, 1, 53, 0
2, 70200, Note_off_c, 1, 56, 0
2, 70200, Note_off_c, 1, 59, 0
2, 70240, Note_on_c, 1, 64, 127
2, 70240, Note_on_c, 1, 67, 127
2, 70240, Note_on_c, 1, 70, 127
2, 70240, Note_on_c, 1, 73, 127
2, 71040, Note_off_c, 1, 64, 0
2, 71040, Note_off_c, 1, 67, 0
2, 71040, Note_off_c, 1, 70, 0
2, 71040, Note_off_c, 1, 73, 0
2, 71080, Note_on_c, 1, 64, 127
2, 71080, Note_on_c, 1, 67, 127
2, 71080, Note_on_c, 1, 70, 127
2, 71080, Note_on_c, 1, 73, 127
2, 71720, Note_off_c, 1, 64, 0
2, 71720, Note_off_c, 1, 67, 0
2, 71720, Note_off_c, 1, 70, 0
2, 71720, Note_off_c, 1, 73, 0
2, 71760, Note_on_c, 1, 64, 127
2, 71760, Note_on_c, 1, 67, 127
2, 71760, Note_on_c, 1, 70, 127
2, 71760, Note_on_c, 1, 73, 127
2, 72320, Note_off_c, 1, 64, 0
2, 72320, Note_off_c, 1, 67, 0
2, 72320, Note_off_c, 1, 70, 0
2, 72320, Note_off_c, 1, 73, 0
2, 72360, Note_on_c, 1, 64, 127
2, 72360, Note_on_c, 1, 67, 127
2, 72360, Note_on_c, 1, 70, 127
2, 72360, Note_on_c, 1, 73, 127
2, 73560, Note_on_c, 1, 46, 127
2, 73560, Note_on_c, 1, 50, 127
2, 73560, Note_on_c, 1, 58, 127
2, 73560, Note_on_c, 1, 62, 127
2, 73560, Note_off_c, 1, 64, 0
2, 73560, Note_on_c, 1, 65, 127
2, 73560, Note_off_c, 1, 67, 0
2, 73560, Note_off_c, 1, 73, 0
2, 73720, Note_off_c, 1, 50, 0
2, 73760, Note_off_c, 1, 46, 0
2, 73760, Note_off_c, 1, 58, 0
2, 73760, Note_off_c, 1, 62, 0
2, 73760, Note_off_c, 1, 65, 0
2, 73760, Note_off_c, 1, 70, 0
2, 73800, Note_on_c, 1, 46, 127
2, 73800, Note_on_c, 1, 58, 127
2, 73800, Note_on_c, 1, 62, 127
2, 73800, Note_on_c, 1, 65, 127
2, 73800, Note_on_c, 1, 70, 127
2, 74160, Note_off_c, 1, 62, 0
2, 74160, Note_off_c, 1, 65, 0
2, 74200, Note_on_c, 1, 55, 127
2, 74200, Note_off_c, 1, 58, 0
2, 74200, Note_on_c, 1, 62, 127
2, 74200, Note_on_c, 1, 65, 127
2, 74200, Note_off_c, 1, 70, 0
2, 74560, Note_off_c, 1, 55, 0
2, 74560, Note_off_c, 1, 62, 0
2, 74560, Note_off_c, 1, 65, 0
2, 74600, Note_off_c, 1, 46, 0
2, 74600, Note_on_c, 1, 53, 127
2, 74600, Note_on_c, 1, 58, 127
2, 74600, Note_on_c, 1, 62, 127
2, 75800, Note_off_c, 1, 53, 0
2, 75800, Note_off_c, 1, 58, 0
2, 75800, Note_off_c, 1, 62, 0
2, 75880, Note_on_c, 1, 53, 127
2, 75880, Note_on_c, 1, 58, 127
2, 75880, Note_on_c, 1, 62, 127
2, 76400, Note_off_c, 1, 53, 0
2, 76400, Note_off_c, 1, 58, 0
2, 76400, Note_off_c, 1, 62, 0
2, 78120, Note_on_c, 1, 34, 127
2, 78120, Note_on_c, 1, 46, 127
2, 78120, Note_on_c, 1, 58, 127
2, 79280, Note_on_c, 1, 56, 127
2, 79280, Note_off_c, 1, 58, 0
2, 79320, Note_on_c, 1, 62, 127
2, 79680, Note_off_c, 1, 62, 0
2, 79720, Note_off_c, 1, 34, 0
2, 79720, Note_off_c, 1, 46, 0
2, 79720, Note_off_c, 1, 56, 0
2, 79760, Note_on_c, 1, 34, 127
2, 79760, Note_on_c, 1, 46, 127
2, 79760, Note_on_c, 1, 56, 127
2, 79760, Note_on_c, 1, 65, 127
2, 80120, Note_off_c, 1, 34, 0
2, 80120, Note_off_c, 1, 46, 0
2, 80120, Note_off_c, 1, 56, 0
2, 80120, Note_off_c, 1, 65, 0
2, 80160, Note_on_c, 1, 47, 127
2, 80160, Note_on_c, 1, 71, 127
2, 80160, Note_on_c, 1, 75, 127
2, 80160, Note_on_c, 1, 78, 127
2, 80160, Note_on_c, 1, 81, 127
2, 80200, Note_off_c, 1, 47, 0
2, 80200, Note_on_c, 1, 51, 127
2, 80200, Note_on_c, 1, 55, 127
2, 80200, Note_on_c, 1, 58, 127
2, 80200, Note_on_c, 1, 68, 127
2, 80200, Note_off_c, 1, 71, 0
2, 80200, Note_off_c, 1, 75, 0
2, 80200, Note_off_c, 1, 78, 0
2, 80200, Note_off_c, 1, 81, 0
2, 80240, Note_on_c, 1, 41, 127
2, 80240, Note_off_c, 1, 51, 0
2, 80240, Note_on_c, 1, 53, 127
2, 80240, Note_off_c, 1, 55, 0
2, 80240, Note_off_c, 1, 58, 0
2, 80240, Note_on_c, 1, 63, 127
2, 80240, Note_off_c, 1, 68, 0
2, 80240, Note_on_c, 1, 69, 127
2, 80240, Note_on_c, 1, 75, 127
2, 80280, Note_off_c, 1, 41, 0
2, 80280, Note_on_c, 1, 58, 127
2, 80280, Note_off_c, 1, 63, 0
2, 80280, Note_on_c, 1, 65, 127
2, 80280, Note_on_c, 1, 67, 127
2, 80280, Note_off_c, 1, 69, 0
2, 80280, Note_on_c, 1, 70, 127
2, 80280, Note_on_c, 1, 74, 127
2, 80280, Note_off_c, 1, 75, 0
2, 80320, Note_on_c, 1, 48, 127
2, 80320, Note_off_c, 1, 53, 0
2, 80320, Note_off_c, 1, 58, 0
2, 80320, Note_on_c, 1, 59, 127
2, 80320, Note_on_c, 1, 62, 127
2, 80320, Note_off_c, 1, 70, 0
2, 80320, Note_off_c, 1, 74, 0
2, 80360, Note_on_c, 1, 34, 127
2, 80360, Note_on_c, 1, 41, 127
2, 80360, Note_on_c, 1, 44, 127
2, 80360, Note_off_c, 1, 48, 0
2, 80360, Note_on_c, 1, 53, 127
2, 80360, Note_on_c, 1, 56, 127
2, 80360, Note_on_c, 1, 58, 127
2, 80360, Note_off_c, 1, 59, 0
2, 80360, Note_off_c, 1, 62, 0
2, 80360, Note_off_c, 1, 65, 0
2, 80360, Note_off_c, 1, 67, 0
2, 80400, Note_on_c, 1, 31, 127
2, 80400, Note_off_c, 1, 41, 0
2, 80400, Note_on_c, 1, 43, 127
2, 80400, Note_off_c, 1, 44, 0
2, 80400, Note_off_c, 1, 53, 0
2, 80400, Note_off_c, 1, 56, 0
2, 80400, Note_off_c, 1, 58, 0
2, 80400, Note_on_c, 1, 75, 127
2, 80400, Note_on_c, 1, 87, 127
2, 80440, Note_off_c, 1, 31, 0
2, 80440, Note_off_c, 1, 34, 0
2, 80440, Note_off_c, 1, 43, 0
2, 80440, Note_on_c, 1, 51, 127
2, 80440, Note_on_c, 1, 63, 127
2, 80440, Note_on_c, 1, 74, 127
2, 80440, Note_off_c, 1, 75, 0
2, 80440, Note_on_c, 1, 86, 127
2, 80440, Note_off_c, 1, 87, 0
2, 80480, Note_off_c, 1, 51, 0
2, 80480, Note_on_c, 1, 53, 127
2, 80480, Note_on_c, 1, 60, 127
2, 80480, Note_on_c, 1, 66, 127
2, 80480, Note_on_c, 1, 73, 127
2, 80480, Note_off_c, 1, 74, 0
2, 80480, Note_off_c, 1, 86, 0
2, 80520, Note_on_c, 1, 49, 127
2, 80520, Note_off_c, 1, 53, 0
2, 80520, Note_on_c, 1, 59, 127
2, 80520, Note_off_c, 1, 60, 0
2, 80520, Note_on_c, 1, 61, 127
2, 80520, Note_off_c, 1, 63, 0
2, 80520, Note_off_c, 1, 66, 0
2, 80520, Note_off_c, 1, 73, 0
2, 80560, Note_off_c, 1, 49, 0
2, 80560, Note_on_c, 1, 56, 127
2, 80560, Note_off_c, 1, 59, 0
2, 80560, Note_on_c, 1, 63, 127
2, 80560, Note_on_c, 1, 65, 127
2, 80600, Note_off_c, 1, 56, 0
2, 80600, Note_off_c, 1, 61, 0
2, 80600, Note_off_c, 1, 65, 0
2, 80600, Note_on_c, 1, 67, 127
2, 80600, Note_on_c, 1, 75, 127
2, 80600, Note_on_c, 1, 79, 127
2, 80600, Note_on_c, 1, 82, 127
2, 80600, Note_on_c, 1, 87, 127
2, 80640, Note_on_c, 1, 42, 127
2, 80640, Note_on_c, 1, 47, 127
2, 80640, Note_on_c, 1, 51, 127
2, 80640, Note_on_c, 1, 54, 127
2, 80640, Note_off_c, 1, 63, 0
2, 80640, Note_off_c, 1, 67, 0
2, 80640, Note_on_c, 1, 69, 127
2, 80640, Note_off_c, 1, 75, 0
2, 80640, Note_off_c, 1, 79, 0
2, 80640, Note_on_c, 1, 81, 127
2, 80640, Note_off_c, 1, 82, 0
2, 80640, Note_off_c, 1, 87, 0
2, 80680, Note_off_c, 1, 42, 0
2, 80680, Note_off_c, 1, 47, 0
2, 80680, Note_on_c, 1, 50, 127
2, 80680, Note_off_c, 1, 51, 0
2, 80680, Note_off_c, 1, 54, 0
2, 80680, Note_on_c, 1, 58, 127
2, 80680, Note_on_c, 1, 66, 127
2, 80680, Note_off_c, 1, 69, 0
2, 80680, Note_on_c, 1, 72, 127
2, 80680, Note_off_c, 1, 81, 0
2, 80720, Note_off_c, 1, 50, 0
2, 80720, Note_on_c, 1, 56, 127
2, 80720, Note_off_c, 1, 58, 0
2, 80720, Note_on_c, 1, 60, 127
2, 80720, Note_on_c, 1, 65, 127
2, 80720, Note_off_c, 1, 66, 0
2, 80720, Note_on_c, 1, 68, 127
2, 80720, Note_off_c, 1, 72, 0
2, 80720, Note_on_c, 1, 80, 127
2, 80720, Note_on_c, 1, 92, 127
2, 80760, Note_on_c, 1, 46, 127
2, 80760, Note_off_c, 1, 56, 0
2, 80760, Note_off_c, 1, 60, 0
2, 80760, Note_off_c, 1, 65, 0
2, 80760, Note_off_c, 1, 68, 0
2, 80760, Note_on_c, 1, 74, 127
2, 80760, Note_on_c, 1, 79, 127
2, 80760, Note_off_c, 1, 80, 0
2, 80760, Note_on_c, 1, 82, 127
2, 80760, Note_on_c, 1, 86, 127
2, 80760, Note_off_c, 1, 92, 0
2, 80800, Note_off_c, 1, 46, 0
2, 80800, Note_on_c, 1, 51, 127
2, 80800, Note_on_c, 1, 54, 127
2, 80800, Note_on_c, 1, 58, 127
2, 80800, Note_on_c, 1, 63, 127
2, 80800, Note_on_c, 1, 70, 127
2, 80800, Note_off_c, 1, 74, 0
2, 80800, Note_on_c, 1, 78, 127
2, 80800, Note_off_c, 1, 79, 0
2, 80800, Note_off_c, 1, 86, 0
2, 80840, Note_on_c, 1, 35, 127
2, 80840, Note_on_c, 1, 47, 127
2, 80840, Note_off_c, 1, 51, 0
2, 80840, Note_on_c, 1, 53, 127
2, 80840, Note_off_c, 1, 54, 0
2, 80840, Note_off_c, 1, 58, 0
2, 80840, Note_off_c, 1, 63, 0
2, 80840, Note_on_c, 1, 65, 127
2, 80840, Note_on_c, 1, 68, 127
2, 80840, Note_off_c, 1, 70, 0
2, 80840, Note_off_c, 1, 78, 0
2, 80840, Note_off_c, 1, 82, 0
2, 80880, Note_off_c, 1, 35, 0
2, 80880, Note_on_c, 1, 43, 127
2, 80880, Note_off_c, 1, 47, 0
2, 80880, Note_on_c, 1, 49, 127
2, 80880, Note_off_c, 1, 53, 0
2, 80880, Note_off_c, 1, 65, 0
2, 80880, Note_off_c, 1, 68, 0
2, 80880, Note_on_c, 1, 73, 127
2, 80920, Note_off_c, 1, 43, 0
2, 80920, Note_off_c, 1, 49, 0
2, 80920, Note_on_c, 1, 58, 127
2, 80920, Note_off_c, 1, 73, 0
2, 80920, Note_on_c, 1, 82, 127
2, 80920, Note_on_c, 1, 94, 127
2, 80960, Note_on_c, 1, 54, 127
2, 80960, Note_off_c, 1, 58, 0
2, 81960, Note_off_c, 1, 54, 0
2, 81960, Note_off_c, 1, 82, 0
2, 81960, Note_off_c, 1, 94, 0
2, 82000, Note_on_c, 1, 54, 127
2, 82000, Note_on_c, 1, 82, 127
2, 82000, Note_on_c, 1, 94, 127
2, 82360, Note_off_c, 1, 54, 0
2, 82360, Note_off_c, 1, 82, 0
2, 82360, Note_off_c, 1, 94, 0
2, 82400, Note_on_c, 1, 34, 127
2, 82400, Note_on_c, 1, 46, 127
2, 82400, Note_on_c, 1, 76, 127
2, 82400, Note_on_c, 1, 79, 127
2, 82400, Note_on_c, 1, 86, 127
2, 82440, Note_off_c, 1, 34, 0
2, 82440, Note_off_c, 1, 46, 0
2, 82440, Note_on_c, 1, 52, 127
2, 82440, Note_on_c, 1, 69, 127
2, 82440, Note_on_c, 1, 72, 127
2, 82440, Note_off_c, 1, 76, 0
2, 82440, Note_on_c, 1, 78, 127
2, 82440, Note_off_c, 1, 79, 0
2, 82440, Note_off_c, 1, 86, 0
2, 82480, Note_on_c, 1, 39, 127
2, 82480, Note_off_c, 1, 52, 0
2, 82480, Note_on_c, 1, 68, 127
2, 82480, Note_off_c, 1, 69, 0
2, 82480, Note_off_c, 1, 72, 0
2, 82480, Note_on_c, 1, 76, 127
2, 82480, Note_off_c, 1, 78, 0
2, 83160, Note_off_c, 1, 39, 0
2, 83160, Note_off_c, 1, 68, 0
2, 83160, Note_off_c, 1, 76, 0
2, 83200, Note_on_c, 1, 48, 127
2, 83200, Note_on_c, 1, 68, 127
2, 83760, Note_off_c, 1, 48, 0
2, 83760, Note_off_c, 1, 68, 0
2, 83800, Note_on_c, 1, 53, 127
2, 83800, Note_on_c, 1, 59, 127
2, 83800, Note_on_c, 1, 61, 127
2, 83800, Note_on_c, 1, 68, 127
2, 84200, Note_off_c, 1, 53, 0
2, 84200, Note_off_c, 1, 59, 0
2, 84200, Note_off_c, 1, 61, 0
2, 84200, Note_off_c, 1, 68, 0
2, 84240, Note_on_c, 1, 53, 127
2, 84240, Note_on_c, 1, 59, 127
2, 84240, Note_on_c, 1, 61, 127
2, 84240, Note_on_c, 1, 68, 127
2, 84400, Note_off_c, 1, 53, 0
2, 84400, Note_off_c, 1, 59, 0
2, 84400, Note_off_c, 1, 61, 0
2, 84400, Note_off_c, 1, 68, 0
2, 84440, Note_on_c, 1, 54, 127
2, 84440, Note_on_c, 1, 66, 127
2, 84440, Note_on_c, 1, 70, 127
2, 84440, Note_on_c, 1, 75, 127
2, 85600, Note_off_c, 1, 54, 0
2, 85600, Note_off_c, 1, 75, 0
2, 85640, Note_on_c, 1, 50, 127
2, 85640, Note_on_c, 1, 59, 127
2, 85640, Note_off_c, 1, 66, 0
2, 85640, Note_off_c, 1, 70, 0
2, 85640, Note_on_c, 1, 71, 127
2, 85640, Note_on_c, 1, 83, 127
2, 86200, Note_off_c, 1, 50, 0
2, 86200, Note_off_c, 1, 59, 0
2, 86200, Note_off_c, 1, 71, 0
2, 86200, Note_off_c, 1, 83, 0
2, 86280, Note_on_c, 1, 39, 127
2, 86280, Note_on_c, 1, 58, 127
2, 86280, Note_on_c, 1, 63, 127
2, 86280, Note_on_c, 1, 67, 127
2, 86840, Note_off_c, 1, 58, 0
2, 86840, Note_off_c, 1, 63, 0
2, 86840, Note_off_c, 1, 67, 0
2, 86880, Note_off_c, 1, 39, 0
2, 86880, Note_on_c, 1, 41, 127
2, 86880, Note_on_c, 1, 58, 127
2, 86880, Note_on_c, 1, 65, 127
2, 87440, Note_off_c, 1, 41, 0
2, 88040, Note_off_c, 1, 58, 0
2, 88040, Note_off_c, 1, 65, 0
2, 88080, Note_on_c, 1, 51, 127
2, 88080, Note_on_c, 1, 70, 127
2, 88280, Note_off_c, 1, 51, 0
2, 88280, Note_off_c, 1, 70, 0
2, 88320, Note_on_c, 1, 51, 127
2, 88320, Note_on_c, 1, 70, 127
2, 88680, Note_off_c, 1, 51, 0
2, 88680, Note_off_c, 1, 70, 0
2, 88720, Note_on_c, 1, 59, 127
2, 88720, Note_on_c, 1, 68, 127
2, 89080, Note_off_c, 1, 59, 0
2, 89080, Note_off_c, 1, 68, 0
2, 89120, Note_on_c, 1, 58, 127
2, 89120, Note_on_c, 1, 67, 127
2, 89680, Note_off_c, 1, 58, 0
2, 89680, Note_off_c, 1, 67, 0
2, 89720, Note_on_c, 1, 56, 127
2, 89720, Note_on_c, 1, 64, 127
2, 89720, Note_on_c, 1, 68, 127
2, 90320, Note_off_c, 1, 56, 0
2, 90320, Note_off_c, 1, 64, 0
2, 90320, Note_off_c, 1, 68, 0
2, 90360, Note_on_c, 1, 56, 127
2, 90360, Note_on_c, 1, 64, 127
2, 90360, Note_on_c, 1, 68, 127
2, 90920, Note_off_c, 1, 56, 0
2, 90920, Note_off_c, 1, 64, 0
2, 90920, Note_off_c, 1, 68, 0
2, 90960, Note_on_c, 1, 46, 127
2, 90960, Note_on_c, 1, 56, 127
2, 90960, Note_on_c, 1, 64, 127
2, 91520, Note_off_c, 1, 46, 0
2, 91560, Note_on_c, 1, 47, 127
2, 92120, Note_off_c, 1, 47, 0
2, 92120, Note_off_c, 1, 56, 0
2, 92120, Note_off_c, 1, 64, 0
2, 92160, Note_on_c, 1, 79, 127
2, 92160, Note_on_c, 1, 82, 127
2, 92160, Note_on_c, 1, 88, 127
2, 92160, Note_on_c, 1, 100, 127
2, 92200, Note_on_c, 1, 45, 127
2, 92200, Note_on_c, 1, 52, 127
2, 92200, Note_off_c, 1, 79, 0
2, 92200, Note_off_c, 1, 82, 0
2, 92200, Note_on_c, 1, 83, 127
2, 92200, Note_off_c, 1, 88, 0
2, 92200, Note_on_c, 1, 91, 127
2, 92200, Note_on_c, 1, 95, 127
2, 92200, Note_off_c, 1, 100, 0
2, 92240, Note_on_c, 1, 44, 127
2, 92240, Note_off_c, 1, 45, 0
2, 92240, Note_on_c, 1, 47, 127
2, 92240, Note_on_c, 1, 49, 127
2, 92240, Note_off_c, 1, 52, 0
2, 92240, Note_on_c, 1, 53, 127
2, 92240, Note_on_c, 1, 59, 127
2, 92240, Note_off_c, 1, 83, 0
2, 92240, Note_off_c, 1, 91, 0
2, 92240, Note_off_c, 1, 95, 0
2, 92280, Note_off_c, 1, 44, 0
2, 92280, Note_off_c, 1, 47, 0
2, 92280, Note_off_c, 1, 49, 0
2, 92280, Note_off_c, 1, 53, 0
2, 92280, Note_off_c, 1, 59, 0
2, 92280, Note_on_c, 1, 70, 127
2, 92280, Note_on_c, 1, 73, 127
2, 92280, Note_on_c, 1, 87, 127
2, 92280, Note_on_c, 1, 94, 127
2, 92320, Note_on_c, 1, 64, 127
2, 92320, Note_on_c, 1, 67, 127
2, 92320, Note_on_c, 1, 68, 127
2, 92320, Note_off_c, 1, 70, 0
2, 92320, Note_on_c, 1, 81, 127
2, 92320, Note_on_c, 1, 85, 127
2, 92320, Note_off_c, 1, 87, 0
2, 92320, Note_off_c, 1, 94, 0
2, 92360, Note_off_c, 1, 64, 0
2, 92360, Note_off_c, 1, 67, 0
2, 92360, Note_off_c, 1, 68, 0
2, 92360, Note_off_c, 1, 73, 0
2, 92360, Note_off_c, 1, 81, 0
2, 92360, Note_off_c, 1, 85, 0
2, 92400, Note_on_c, 1, 44, 127
2, 92400, Note_on_c, 1, 75, 127
2, 92400, Note_on_c, 1, 83, 127
2, 92400, Note_on_c, 1, 87, 127
2, 92440, Note_off_c, 1, 44, 0
2, 92440, Note_on_c, 1, 47, 127
2, 92440, Note_on_c, 1, 54, 127
2, 92440, Note_on_c, 1, 58, 127
2, 92440, Note_on_c, 1, 66, 127
2, 92440, Note_off_c, 1, 75, 0
2, 92440, Note_off_c, 1, 83, 0
2, 92440, Note_off_c, 1, 87, 0
2, 92480, Note_on_c, 1, 43, 127
2, 92480, Note_off_c, 1, 47, 0
2, 92480, Note_on_c, 1, 50, 127
2, 92480, Note_off_c, 1, 54, 0
2, 92480, Note_on_c, 1, 55, 127
2, 92480, Note_off_c, 1, 58, 0
2, 92480, Note_on_c, 1, 65, 127
2, 92480, Note_off_c, 1, 66, 0
2, 92480, Note_on_c, 1, 71, 127
2, 92480, Note_on_c, 1, 79, 127
2, 92520, Note_on_c, 1, 38, 127
2, 92520, Note_off_c, 1, 43, 0
2, 92520, Note_on_c, 1, 46, 127
2, 92520, Note_off_c, 1, 50, 0
2, 92520, Note_off_c, 1, 55, 0
2, 92520, Note_off_c, 1, 65, 0
2, 92520, Note_on_c, 1, 70, 127
2, 92520, Note_off_c, 1, 71, 0
2, 92520, Note_off_c, 1, 79, 0
2, 92560, Note_off_c, 1, 38, 0
2, 92560, Note_off_c, 1, 46, 0
2, 92560, Note_on_c, 1, 47, 127
2, 92560, Note_on_c, 1, 73, 127
2, 92560, Note_on_c, 1, 75, 127
2, 92600, Note_off_c, 1, 47, 0
2, 92600, Note_on_c, 1, 54, 127
2, 92600, Note_on_c, 1, 57, 127
2, 92600, Note_off_c, 1, 70, 0
2, 92600, Note_off_c, 1, 73, 0
2, 92600, Note_on_c, 1, 74, 127
2, 92600, Note_off_c, 1, 75, 0
2, 92600, Note_on_c, 1, 78, 127
2, 92600, Note_on_c, 1, 80, 127
2, 92640, Note_off_c, 1, 54, 0
2, 92640, Note_on_c, 1, 55, 127
2, 92640, Note_off_c, 1, 57, 0
2, 92640, Note_off_c, 1, 74, 0
2, 92640, Note_off_c, 1, 78, 0
2, 92640, Note_off_c, 1, 80, 0
2, 92640, Note_on_c, 1, 85, 127
2, 92640, Note_on_c, 1, 88, 127
2, 92640, Note_on_c, 1, 91, 127
2, 92640, Note_on_c, 1, 97, 127
2, 92680, Note_on_c, 1, 54, 127
2, 92680, Note_off_c, 1, 55, 0
2, 92680, Note_on_c, 1, 57, 127
2, 92680, Note_on_c, 1, 73, 127
2, 92680, Note_on_c, 1, 81, 127
2, 92680, Note_off_c, 1, 88, 0
2, 92680, Note_off_c, 1, 91, 0
2, 92680, Note_off_c, 1, 97, 0
2, 92720, Note_on_c, 1, 41, 127
2, 92720, Note_on_c, 1, 51, 127
2, 92720, Note_off_c, 1, 54, 0
2, 92720, Note_on_c, 1, 60, 127
2, 92720, Note_on_c, 1, 63, 127
2, 92720, Note_off_c, 1, 73, 0
2, 92720, Note_off_c, 1, 81, 0
2, 92720, Note_off_c, 1, 85, 0
2, 92760, Note_off_c, 1, 41, 0
2, 92760, Note_off_c, 1, 51, 0
2, 92760, Note_off_c, 1, 57, 0
2, 92760, Note_off_c, 1, 60, 0
2, 92760, Note_off_c, 1, 63, 0
2, 92800, Note_on_c, 1, 46, 127
2, 92800, Note_on_c, 1, 63, 127
2, 92800, Note_on_c, 1, 66, 127
2, 92800, Note_on_c, 1, 70, 127
2, 93360, Note_off_c, 1, 46, 0
2, 93360, Note_off_c, 1, 63, 0
2, 93360, Note_off_c, 1, 66, 0
2, 93360, Note_off_c, 1, 70, 0
2, 93400, Note_on_c, 1, 56, 127
2, 93400, Note_on_c, 1, 63, 127
2, 93400, Note_on_c, 1, 66, 127
2, 93400, Note_on_c, 1, 80, 127
2, 93400, Note_on_c, 1, 84, 127
2, 93400, Note_on_c, 1, 92, 127
2, 93440, Note_on_c, 1, 47, 127
2, 93440, Note_on_c, 1, 51, 127
2, 93440, Note_on_c, 1, 54, 127
2, 93440, Note_off_c, 1, 56, 0
2, 93440, Note_off_c, 1, 63, 0
2, 93440, Note_off_c, 1, 66, 0
2, 93440, Note_on_c, 1, 77, 127
2, 93440, Note_off_c, 1, 80, 0
2, 93440, Note_on_c, 1, 81, 127
2, 93440, Note_off_c, 1, 84, 0
2, 93440, Note_on_c, 1, 89, 127
2, 93440, Note_off_c, 1, 92, 0
2, 93480, Note_on_c, 1, 44, 127
2, 93480, Note_off_c, 1, 51, 0
2, 93480, Note_off_c, 1, 54, 0
2, 93480, Note_on_c, 1, 56, 127
2, 93480, Note_on_c, 1, 71, 127
2, 93480, Note_off_c, 1, 77, 0
2, 93480, Note_off_c, 1, 81, 0
2, 93480, Note_off_c, 1, 89, 0
2, 93520, Note_off_c, 1, 47, 0
2, 93520, Note_off_c, 1, 56, 0
2, 93520, Note_off_c, 1, 71, 0
2, 93520, Note_on_c, 1, 88, 127
2, 93560, Note_off_c, 1, 44, 0
2, 93560, Note_on_c, 1, 47, 127
2, 93560, Note_on_c, 1, 56, 127
2, 93560, Note_on_c, 1, 59, 127
2, 93560, Note_on_c, 1, 65, 127
2, 93560, Note_on_c, 1, 68, 127
2, 93560, Note_off_c, 1, 88, 0
2, 93600, Note_on_c, 1, 38, 127
2, 93600, Note_off_c, 1, 47, 0
2, 93600, Note_on_c, 1, 50, 127
2, 93600, Note_off_c, 1, 56, 0
2, 93600, Note_off_c, 1, 59, 0
2, 93600, Note_off_c, 1, 68, 0
2, 93600, Note_on_c, 1, 69, 127
2, 93600, Note_on_c, 1, 71, 127
2, 93600, Note_on_c, 1, 74, 127
2, 93640, Note_off_c, 1, 38, 0
2, 93640, Note_on_c, 1, 43, 127
2, 93640, Note_on_c, 1, 47, 127
2, 93640, Note_off_c, 1, 50, 0
2, 93640, Note_on_c, 1, 52, 127
2, 93640, Note_off_c, 1, 65, 0
2, 93640, Note_off_c, 1, 69, 0
2, 93640, Note_off_c, 1, 71, 0
2, 93640, Note_off_c, 1, 74, 0
2, 93640, Note_on_c, 1, 91, 127
2, 93680, Note_off_c, 1, 43, 0
2, 93680, Note_off_c, 1, 47, 0
2, 93680, Note_on_c, 1, 51, 127
2, 93680, Note_off_c, 1, 52, 0
2, 93680, Note_on_c, 1, 57, 127
2, 93680, Note_on_c, 1, 60, 127
2, 93680, Note_on_c, 1, 81, 127
2, 93680, Note_off_c, 1, 91, 0
2, 93720, Note_on_c, 1, 44, 127
2, 93720, Note_on_c, 1, 47, 127
2, 93720, Note_off_c, 1, 51, 0
2, 93720, Note_off_c, 1, 57, 0
2, 93720, Note_off_c, 1, 60, 0
2, 93720, Note_off_c, 1, 81, 0
2, 93760, Note_off_c, 1, 47, 0
2, 93760, Note_on_c, 1, 71, 127
2, 94360, Note_off_c, 1, 44, 0
2, 94400, Note_on_c, 1, 57, 127
2, 94400, Note_on_c, 1, 64, 127
2, 94400, Note_on_c, 1, 69, 127
2, 94400, Note_off_c, 1, 71, 0
2, 94400, Note_on_c, 1, 72, 127
2, 94400, Note_on_c, 1, 78, 127
2, 94440, Note_on_c, 1, 53, 127
2, 94440, Note_off_c, 1, 57, 0
2, 94440, Note_on_c, 1, 58, 127
2, 94440, Note_off_c, 1, 64, 0
2, 94440, Note_on_c, 1, 67, 127
2, 94440, Note_off_c, 1, 69, 0
2, 94440, Note_off_c, 1, 72, 0
2, 94440, Note_off_c, 1, 78, 0
2, 94440, Note_on_c, 1, 85, 127
2, 94480, Note_off_c, 1, 53, 0
2, 94480, Note_off_c, 1, 58, 0
2, 94480, Note_off_c, 1, 67, 0
2, 94480, Note_off_c, 1, 85, 0
2, 94520, Note_on_c, 1, 45, 127
2, 94520, Note_on_c, 1, 56, 127
2, 94520, Note_on_c, 1, 61, 127
2, 94520, Note_on_c, 1, 64, 127
2, 94520, Note_on_c, 1, 71, 127
2, 94520, Note_on_c, 1, 76, 127
2, 94560, Note_off_c, 1, 45, 0
2, 94560, Note_on_c, 1, 52, 127
2, 94560, Note_on_c, 1, 55, 127
2, 94560, Note_off_c, 1, 56, 0
2, 94560, Note_on_c, 1, 60, 127
2, 94560, Note_off_c, 1, 61, 0
2, 94560, Note_off_c, 1, 64, 0
2, 94560, Note_off_c, 1, 71, 0
2, 94560, Note_off_c, 1, 76, 0
2, 94560, Note_on_c, 1, 88, 127
2, 94600, Note_on_c, 1, 50, 127
2, 94600, Note_off_c, 1, 52, 0
2, 94600, Note_off_c, 1, 55, 0
2, 94600, Note_off_c, 1, 60, 0
2, 94600, Note_on_c, 1, 66, 127
2, 94600, Note_on_c, 1, 69, 127
2, 94600, Note_on_c, 1, 71, 127
2, 94600, Note_on_c, 1, 74, 127
2, 94600, Note_off_c, 1, 88, 0
2, 94640, Note_on_c, 1, 41, 127
2, 94640, Note_off_c, 1, 50, 0
2, 94640, Note_on_c, 1, 53, 127
2, 94640, Note_off_c, 1, 66, 0
2, 94640, Note_on_c, 1, 67, 127
2, 94640, Note_off_c, 1, 69, 0
2, 94640, Note_off_c, 1, 71, 0
2, 94640, Note_off_c, 1, 74, 0
2, 94640, Note_on_c, 1, 75, 127
2, 94640, Note_on_c, 1, 79, 127
2, 94680, Note_on_c, 1, 32, 127
2, 94680, Note_off_c, 1, 41, 0
2, 94680, Note_on_c, 1, 44, 127
2, 94680, Note_off_c, 1, 53, 0
2, 94680, Note_off_c, 1, 67, 0
2, 94680, Note_on_c, 1, 69, 127
2, 94680, Note_on_c, 1, 72, 127
2, 94680, Note_on_c, 1, 78, 127
2, 94680, Note_off_c, 1, 79, 0
2, 94680, Note_on_c, 1, 81, 127
2, 94720, Note_off_c, 1, 32, 0
2, 94720, Note_off_c, 1, 44, 0
2, 94720, Note_on_c, 1, 62, 127
2, 94720, Note_on_c, 1, 68, 127
2, 94720, Note_off_c, 1, 69, 0
2, 94720, Note_on_c, 1, 71, 127
2, 94720, Note_off_c, 1, 72, 0
2, 94720, Note_off_c, 1, 75, 0
2, 94720, Note_on_c, 1, 76, 127
2, 94720, Note_off_c, 1, 78, 0
2, 94720, Note_off_c, 1, 81, 0
2, 94720, Note_on_c, 1, 88, 127
2, 94760, Note_on_c, 1, 47, 127
2, 94760, Note_off_c, 1, 62, 0
2, 94760, Note_on_c, 1, 63, 127
2, 94760, Note_on_c, 1, 66, 127
2, 94760, Note_off_c, 1, 68, 0
2, 94760, Note_off_c, 1, 76, 0
2, 94760, Note_on_c, 1, 83, 127
2, 94760, Note_off_c, 1, 88, 0
2, 94800, Note_on_c, 1, 41, 127
2, 94800, Note_off_c, 1, 47, 0
2, 94800, Note_on_c, 1, 58, 127
2, 94800, Note_off_c, 1, 63, 0
2, 94800, Note_on_c, 1, 65, 127
2, 94800, Note_off_c, 1, 66, 0
2, 94800, Note_on_c, 1, 67, 127
2, 94800, Note_off_c, 1, 71, 0
2, 94800, Note_off_c, 1, 83, 0
2, 94840, Note_off_c, 1, 41, 0
2, 94840, Note_on_c, 1, 55, 127
2, 94840, Note_off_c, 1, 58, 0
2, 94840, Note_off_c, 1, 65, 0
2, 94840, Note_off_c, 1, 67, 0
2, 94840, Note_on_c, 1, 69, 127
2, 94840, Note_on_c, 1, 73, 127
2, 94840, Note_on_c, 1, 77, 127
2, 94840, Note_on_c, 1, 81, 127
2, 94880, Note_off_c, 1, 55, 0
2, 94880, Note_off_c, 1, 69, 0
2, 94880, Note_off_c, 1, 73, 0
2, 94880, Note_off_c, 1, 77, 0
2, 94880, Note_on_c, 1, 79, 127
2, 94880, Note_on_c, 1, 80, 127
2, 94880, Note_off_c, 1, 81, 0
2, 94880, Note_on_c, 1, 87, 127
2, 94920, Note_on_c, 1, 71, 127
2, 94920, Note_off_c, 1, 79, 0
2, 94920, Note_off_c, 1, 80, 0
2, 94920, Note_off_c, 1, 87, 0
2, 94920, Note_on_c, 1, 95, 127
2, 94920, Note_on_c, 1, 97, 127
2, 94960, Note_off_c, 1, 71, 0
2, 94960, Note_on_c, 1, 81, 127
2, 94960, Note_off_c, 1, 95, 0
2, 94960, Note_off_c, 1, 97, 0
2, 95000, Note_on_c, 1, 37, 127
2, 95000, Note_on_c, 1, 44, 127
2, 95000, Note_on_c, 1, 49, 127
2, 95000, Note_on_c, 1, 52, 127
2, 95000, Note_on_c, 1, 56, 127
2, 95000, Note_on_c, 1, 61, 127
2, 95000, Note_on_c, 1, 64, 127
2, 95000, Note_on_c, 1, 73, 127
2, 95000, Note_off_c, 1, 81, 0
2, 95040, Note_off_c, 1, 37, 0
2, 95040, Note_off_c, 1, 44, 0
2, 95040, Note_off_c, 1, 49, 0
2, 95040, Note_off_c, 1, 52, 0
2, 95040, Note_off_c, 1, 56, 0
2, 95040, Note_on_c, 1, 68, 127
2, 95040, Note_on_c, 1, 69, 127
2, 95040, Note_off_c, 1, 73, 0
2, 95040, Note_on_c, 1, 81, 127
2, 95040, Note_on_c, 1, 85, 127
2, 95040, Note_on_c, 1, 88, 127
2, 95040, Note_on_c, 1, 92, 127
2, 95080, Note_off_c, 1, 61, 0
2, 95080, Note_off_c, 1, 64, 0
2, 95080, Note_on_c, 1, 65, 127
2, 95080, Note_off_c, 1, 68, 0
2, 95080, Note_off_c, 1, 69, 0
2, 95080, Note_on_c, 1, 71, 127
2, 95080, Note_on_c, 1, 75, 127
2, 95080, Note_on_c, 1, 80, 127
2, 95080, Note_off_c, 1, 81, 0
2, 95080, Note_on_c, 1, 83, 127
2, 95080, Note_off_c, 1, 85, 0
2, 95080, Note_off_c, 1, 88, 0
2, 95080, Note_off_c, 1, 92, 0
2, 95120, Note_on_c, 1, 42, 127
2, 95120, Note_on_c, 1, 45, 127
2, 95120, Note_on_c, 1, 54, 127
2, 95120, Note_off_c, 1, 65, 0
2, 95120, Note_on_c, 1, 66, 127
2, 95120, Note_off_c, 1, 71, 0
2, 95120, Note_off_c, 1, 75, 0
2, 95120, Note_off_c, 1, 80, 0
2, 95120, Note_off_c, 1, 83, 0
2, 95160, Note_off_c, 1, 42, 0
2, 95160, Note_off_c, 1, 45, 0
2, 95160, Note_off_c, 1, 54, 0
2, 95160, Note_on_c, 1, 61, 127
2, 95160, Note_on_c, 1, 73, 127
2, 95160, Note_on_c, 1, 76, 127
2, 95200, Note_on_c, 1, 56, 127
2, 95200, Note_off_c, 1, 61, 0
2, 95200, Note_on_c, 1, 63, 127
2, 95200, Note_off_c, 1, 66, 0
2, 95200, Note_on_c, 1, 68, 127
2, 95200, Note_on_c, 1, 71, 127
2, 95200, Note_off_c, 1, 73, 0
2, 95200, Note_off_c, 1, 76, 0
2, 95200, Note_on_c, 1, 80, 127
2, 95200, Note_on_c, 1, 87, 127
2, 95240, Note_on_c, 1, 47, 127
2, 95240, Note_off_c, 1, 56, 0
2, 95240, Note_off_c, 1, 63, 0
2, 95240, Note_on_c, 1, 64, 127
2, 95240, Note_off_c, 1, 68, 0
2, 95240, Note_on_c, 1, 70, 127
2, 95240, Note_off_c, 1, 71, 0
2, 95240, Note_on_c, 1, 76, 127
2, 95240, Note_off_c, 1, 80, 0
2, 95240, Note_off_c, 1, 87, 0
2, 95280, Note_on_c, 1, 56, 127
2, 95280, Note_on_c, 1, 63, 127
2, 95280, Note_off_c, 1, 64, 0
2, 95280, Note_on_c, 1, 66, 127
2, 95280, Note_off_c, 1, 70, 0
2, 95280, Note_on_c, 1, 71, 127
2, 95280, Note_off_c, 1, 76, 0
2, 95320, Note_on_c, 1, 35, 127
2, 95320, Note_on_c, 1, 42, 127
2, 95320, Note_off_c, 1, 47, 0
2, 95320, Note_off_c, 1, 56, 0
2, 95320, Note_off_c, 1, 63, 0
2, 95320, Note_off_c, 1, 66, 0
2, 95320, Note_off_c, 1, 71, 0
2, 95320, Note_on_c, 1, 95, 127
2, 95360, Note_on_c, 1, 33, 127
2, 95360, Note_off_c, 1, 35, 0
2, 95360, Note_off_c, 1, 42, 0
2, 95360, Note_on_c, 1, 45, 127
2, 95360, Note_on_c, 1, 57, 127
2, 95360, Note_on_c, 1, 61, 127
2, 95360, Note_on_c, 1, 69, 127
2, 95360, Note_off_c, 1, 95, 0
2, 95400, Note_off_c, 1, 33, 0
2, 95400, Note_off_c, 1, 45, 0
2, 95400, Note_on_c, 1, 49, 127
2, 95400, Note_on_c, 1, 53, 127
2, 95400, Note_off_c, 1, 57, 0
2, 95400, Note_off_c, 1, 61, 0
2, 95400, Note_off_c, 1, 69, 0
2, 95400, Note_on_c, 1, 82, 127
2, 95400, Note_on_c, 1, 90, 127
2, 95400, Note_on_c, 1, 94, 127
2, 95440, Note_off_c, 1, 49, 0
2, 95440, Note_on_c, 1, 51, 127
2, 95440, Note_off_c, 1, 53, 0
2, 95440, Note_on_c, 1, 55, 127
2, 95440, Note_on_c, 1, 68, 127
2, 95440, Note_on_c, 1, 74, 127
2, 95440, Note_off_c, 1, 82, 0
2, 95440, Note_off_c, 1, 90, 0
2, 95440, Note_off_c, 1, 94, 0
2, 95480, Note_on_c, 1, 38, 127
2, 95480, Note_off_c, 1, 51, 0
2, 95480, Note_off_c, 1, 55, 0
2, 95480, Note_off_c, 1, 68, 0
2, 95480, Note_on_c, 1, 83, 127
2, 95520, Note_off_c, 1, 38, 0
2, 95520, Note_on_c, 1, 51, 127
2, 95520, Note_on_c, 1, 55, 127
2, 95520, Note_on_c, 1, 68, 127
2, 95520, Note_off_c, 1, 83, 0
2, 95560, Note_on_c, 1, 40, 127
2, 95560, Note_on_c, 1, 44, 127
2, 95560, Note_on_c, 1, 47, 127
2, 95560, Note_off_c, 1, 51, 0
2, 95560, Note_on_c, 1, 52, 127
2, 95560, Note_off_c, 1, 55, 0
2, 95560, Note_off_c, 1, 68, 0
2, 95560, Note_off_c, 1, 74, 0
2, 95560, Note_on_c, 1, 92, 127
2, 95560, Note_on_c, 1, 104, 127
2, 95600, Note_on_c, 1, 35, 127
2, 95600, Note_off_c, 1, 40, 0
2, 95600, Note_on_c, 1, 41, 127
2, 95600, Note_off_c, 1, 47, 0
2, 95600, Note_on_c, 1, 50, 127
2, 95600, Note_off_c, 1, 52, 0
2, 95600, Note_on_c, 1, 53, 127
2, 95600, Note_on_c, 1, 59, 127
2, 95600, Note_off_c, 1, 92, 0
2, 95600, Note_off_c, 1, 104, 0
2, 95640, Note_off_c, 1, 35, 0
2, 95640, Note_off_c, 1, 41, 0
2, 95640, Note_off_c, 1, 44, 0
2, 95640, Note_off_c, 1, 50, 0
2, 95640, Note_off_c, 1, 53, 0
2, 95640, Note_on_c, 1, 54, 127
2, 95640, Note_on_c, 1, 58, 127
2, 95640, Note_off_c, 1, 59, 0
2, 95640, Note_on_c, 1, 66, 127
2, 95640, Note_on_c, 1, 73, 127
2, 95640, Note_on_c, 1, 76, 127
2, 95680, Note_on_c, 1, 47, 127
2, 95680, Note_off_c, 1, 54, 0
2, 95680, Note_on_c, 1, 55, 127
2, 95680, Note_off_c, 1, 58, 0
2, 95680, Note_on_c, 1, 62, 127
2, 95680, Note_on_c, 1, 65, 127
2, 95680, Note_off_c, 1, 66, 0
2, 95680, Note_on_c, 1, 69, 127
2, 95680, Note_off_c, 1, 73, 0
2, 95680, Note_off_c, 1, 76, 0
2, 95720, Note_off_c, 1, 47, 0
2, 95720, Note_off_c, 1, 62, 0
2, 95720, Note_off_c, 1, 65, 0
2, 95720, Note_off_c, 1, 69, 0
2, 95720, Note_on_c, 1, 93, 127
2, 95720, Note_on_c, 1, 96, 127
2, 95760, Note_off_c, 1, 55, 0
2, 95760, Note_on_c, 1, 59, 127
2, 95760, Note_on_c, 1, 63, 127
2, 95760, Note_on_c, 1, 68, 127
2, 95760, Note_on_c, 1, 85, 127
2, 95760, Note_off_c, 1, 93, 0
2, 95760, Note_off_c, 1, 96, 0
2, 95800, Note_on_c, 1, 51, 127
2, 95800, Note_on_c, 1, 54, 127
2, 95800, Note_on_c, 1, 57, 127
2, 95800, Note_off_c, 1, 63, 0
2, 95800, Note_on_c, 1, 65, 127
2, 95800, Note_off_c, 1, 68, 0
2, 95800, Note_off_c, 1, 85, 0
2, 95840, Note_on_c, 1, 30, 127
2, 95840, Note_on_c, 1, 42, 127
2, 95840, Note_off_c, 1, 51, 0
2, 95840, Note_off_c, 1, 54, 0
2, 95840, Note_on_c, 1, 56, 127
2, 95840, Note_off_c, 1, 57, 0
2, 95840, Note_off_c, 1, 59, 0
2, 95840, Note_on_c, 1, 63, 127
2, 95840, Note_off_c, 1, 65, 0
2, 95840, Note_on_c, 1, 68, 127
2, 95880, Note_off_c, 1, 30, 0
2, 95880, Note_off_c, 1, 42, 0
2, 95880, Note_on_c, 1, 51, 127
2, 95880, Note_on_c, 1, 54, 127
2, 95880, Note_off_c, 1, 56, 0
2, 95880, Note_on_c, 1, 57, 127
2, 95880, Note_on_c, 1, 59, 127
2, 95880, Note_off_c, 1, 63, 0
2, 95880, Note_on_c, 1, 65, 127
2, 95880, Note_off_c, 1, 68, 0
2, 95920, Note_on_c, 1, 45, 127
2, 95920, Note_off_c, 1, 51, 0
2, 95920, Note_off_c, 1, 54, 0
2, 95920, Note_off_c, 1, 57, 0
2, 95920, Note_off_c, 1, 59, 0
2, 95920, Note_off_c, 1, 65, 0
2, 95920, Note_on_c, 1, 71, 127
2, 95920, Note_on_c, 1, 80, 127
2, 95920, Note_on_c, 1, 83, 127
2, 95960, Note_on_c, 1, 32, 127
2, 95960, Note_on_c, 1, 44, 127
2, 95960, Note_off_c, 1, 45, 0
2, 95960, Note_off_c, 1, 71, 0
2, 95960, Note_on_c, 1, 73, 127
2, 95960, Note_on_c, 1, 75, 127
2, 95960, Note_off_c, 1, 83, 0
2, 95960, Note_on_c, 1, 85, 127
2, 96000, Note_off_c, 1, 32, 0
2, 96000, Note_off_c, 1, 44, 0
2, 96000, Note_on_c, 1, 62, 127
2, 96000, Note_on_c, 1, 67, 127
2, 96000, Note_on_c, 1, 69, 127
2, 96000, Note_off_c, 1, 73, 0
2, 96000, Note_on_c, 1, 74, 127
2, 96000, Note_off_c, 1, 75, 0
2, 96000, Note_off_c, 1, 80, 0
2, 96000, Note_off_c, 1, 85, 0
2, 96000, Note_on_c, 1, 91, 127
2, 96000, Note_on_c, 1, 96, 127
2, 96040, Note_off_c, 1, 62, 0
2, 96040, Note_off_c, 1, 67, 0
2, 96040, Note_off_c, 1, 69, 0
2, 96040, Note_on_c, 1, 71, 127
2, 96040, Note_off_c, 1, 74, 0
2, 96040, Note_on_c, 1, 79, 127
2, 96040, Note_on_c, 1, 82, 127
2, 96040, Note_on_c, 1, 88, 127
2, 96040, Note_off_c, 1, 91, 0
2, 96040, Note_off_c, 1, 96, 0
2, 96040, Note_on_c, 1, 97, 127
2, 96080, Note_on_c, 1, 36, 127
2, 96080, Note_on_c, 1, 49, 127
2, 96080, Note_on_c, 1, 52, 127
2, 96080, Note_on_c, 1, 55, 127
2, 96080, Note_off_c, 1, 71, 0
2, 96080, Note_off_c, 1, 79, 0
2, 96080, Note_off_c, 1, 82, 0
2, 96080, Note_off_c, 1, 88, 0
2, 96080, Note_off_c, 1, 97, 0
2, 96120, Note_off_c, 1, 36, 0
2, 96120, Note_off_c, 1, 52, 0
2, 96120, Note_off_c, 1, 55, 0
2, 96120, Note_on_c, 1, 61, 127
2, 96120, Note_on_c, 1, 76, 127
2, 96120, Note_on_c, 1, 79, 127
2, 96120, Note_on_c, 1, 82, 127
2, 96120, Note_on_c, 1, 88, 127
2, 96160, Note_on_c, 1, 39, 127
2, 96160, Note_on_c, 1, 46, 127
2, 96160, Note_off_c, 1, 49, 0
2, 96160, Note_on_c, 1, 59, 127
2, 96160, Note_off_c, 1, 61, 0
2, 96160, Note_on_c, 1, 66, 127
2, 96160, Note_on_c, 1, 69, 127
2, 96160, Note_on_c, 1, 71, 127
2, 96160, Note_off_c, 1, 76, 0
2, 96160, Note_off_c, 1, 79, 0
2, 96160, Note_off_c, 1, 82, 0
2, 96160, Note_off_c, 1, 88, 0
2, 96200, Note_off_c, 1, 39, 0
2, 96200, Note_off_c, 1, 46, 0
2, 96200, Note_off_c, 1, 59, 0
2, 96200, Note_on_c, 1, 62, 127
2, 96200, Note_on_c, 1, 64, 127
2, 96200, Note_off_c, 1, 66, 0
2, 96200, Note_on_c, 1, 68, 127
2, 96200, Note_off_c, 1, 69, 0
2, 96200, Note_off_c, 1, 71, 0
2, 96200, Note_on_c, 1, 75, 127
2, 96240, Note_off_c, 1, 62, 0
2, 96240, Note_off_c, 1, 68, 0
2, 96240, Note_on_c, 1, 73, 127
2, 96240, Note_off_c, 1, 75, 0
2, 96240, Note_on_c, 1, 79, 127
2, 96240, Note_on_c, 1, 81, 127
2, 96240, Note_on_c, 1, 85, 127
2, 96280, Note_on_c, 1, 40, 127
2, 96280, Note_off_c, 1, 64, 0
2, 96280, Note_on_c, 1, 68, 127
2, 96280, Note_off_c, 1, 73, 0
2, 96280, Note_on_c, 1, 74, 127
2, 96280, Note_off_c, 1, 79, 0
2, 96280, Note_on_c, 1, 80, 127
2, 96280, Note_off_c, 1, 81, 0
2, 96280, Note_off_c, 1, 85, 0
2, 96320, Note_off_c, 1, 40, 0
2, 96320, Note_on_c, 1, 53, 127
2, 96320, Note_off_c, 1, 68, 0
2, 96320, Note_on_c, 1, 69, 127
2, 96320, Note_off_c, 1, 74, 0
2, 96320, Note_on_c, 1, 75, 127
2, 96320, Note_on_c, 1, 79, 127
2, 96320, Note_off_c, 1, 80, 0
2, 96360, Note_off_c, 1, 53, 0
2, 96360, Note_off_c, 1, 69, 0
2, 96360, Note_on_c, 1, 74, 127
2, 96360, Note_off_c, 1, 75, 0
2, 96360, Note_off_c, 1, 79, 0
2, 96360, Note_on_c, 1, 80, 127
2, 96360, Note_on_c, 1, 83, 127
2, 96400, Note_on_c, 1, 54, 127
2, 96400, Note_on_c, 1, 61, 127
2, 96400, Note_on_c, 1, 65, 127
2, 96400, Note_off_c, 1, 74, 0
2, 96400, Note_on_c, 1, 77, 127
2, 96400, Note_off_c, 1, 80, 0
2, 96400, Note_off_c, 1, 83, 0
2, 96400, Note_on_c, 1, 85, 127
2, 96400, Note_on_c, 1, 89, 127
2, 96440, Note_off_c, 1, 54, 0
2, 96440, Note_on_c, 1, 56, 127
2, 96440, Note_on_c, 1, 59, 127
2, 96440, Note_off_c, 1, 61, 0
2, 96440, Note_on_c, 1, 64, 127
2, 96440, Note_off_c, 1, 65, 0
2, 96440, Note_on_c, 1, 68, 127
2, 96440, Note_on_c, 1, 76, 127
2, 96440, Note_off_c, 1, 77, 0
2, 96440, Note_on_c, 1, 83, 127
2, 96440, Note_off_c, 1, 85, 0
2, 96440, Note_off_c, 1, 89, 0
2, 96480, Note_off_c, 1, 56, 0
2, 96480, Note_off_c, 1, 59, 0
2, 96480, Note_off_c, 1, 64, 0
2, 96480, Note_on_c, 1, 65, 127
2, 96480, Note_on_c, 1, 67, 127
2, 96480, Note_off_c, 1, 68, 0
2, 96480, Note_on_c, 1, 71, 127
2, 96480, Note_off_c, 1, 76, 0
2, 96480, Note_on_c, 1, 77, 127
2, 96480, Note_on_c, 1, 79, 127
2, 96480, Note_on_c, 1, 89, 127
2, 96520, Note_off_c, 1, 65, 0
2, 96520, Note_off_c, 1, 67, 0
2, 96520, Note_off_c, 1, 71, 0
2, 96520, Note_off_c, 1, 77, 0
2, 96520, Note_off_c, 1, 79, 0
2, 96520, Note_off_c, 1, 83, 0
2, 96520, Note_off_c, 1, 89, 0
2, 96560, Note_on_c, 1, 56, 127
2, 96560, Note_on_c, 1, 59, 127
2, 96560, Note_on_c, 1, 64, 127
2, 96560, Note_on_c, 1, 68, 127
2, 96560, Note_on_c, 1, 76, 127
2, 96560, Note_on_c, 1, 83, 127
2, 96600, Note_on_c, 1, 46, 127
2, 96600, Note_on_c, 1, 50, 127
2, 96600, Note_off_c, 1, 56, 0
2, 96600, Note_off_c, 1, 59, 0
2, 96600, Note_on_c, 1, 62, 127
2, 96600, Note_off_c, 1, 64, 0
2, 96600, Note_off_c, 1, 76, 0
2, 96600, Note_off_c, 1, 83, 0
2, 96640, Note_off_c, 1, 46, 0
2, 96640, Note_off_c, 1, 62, 0
2, 96640, Note_off_c, 1, 68, 0
2, 96640, Note_on_c, 1, 80, 127
2, 96640, Note_on_c, 1, 83, 127
2, 96640, Note_on_c, 1, 86, 127
2, 96640, Note_on_c, 1, 92, 127
2, 96680, Note_on_c, 1, 38, 127
2, 96680, Note_on_c, 1, 40, 127
2, 96680, Note_on_c, 1, 47, 127
2, 96680, Note_off_c, 1, 50, 0
2, 96680, Note_on_c, 1, 52, 127
2, 96680, Note_on_c, 1, 56, 127
2, 96680, Note_on_c, 1, 59, 127
2, 96680, Note_on_c, 1, 64, 127
2, 96680, Note_off_c, 1, 80, 0
2, 96680, Note_off_c, 1, 83, 0
2, 96680, Note_off_c, 1, 86, 0
2, 96680, Note_off_c, 1, 92, 0
2, 96720, Note_off_c, 1, 38, 0
2, 96720, Note_off_c, 1, 40, 0
2, 96720, Note_off_c, 1, 47, 0
2, 96720, Note_on_c, 1, 50, 127
2, 96720, Note_off_c, 1, 52, 0
2, 96720, Note_off_c, 1, 56, 0
2, 96720, Note_off_c, 1, 59, 0
2, 96720, Note_off_c, 1, 64, 0
2, 96720, Note_on_c, 1, 80, 127
2, 96720, Note_on_c, 1, 83, 127
2, 96720, Note_on_c, 1, 86, 127
2, 96720, Note_on_c, 1, 92, 127
2, 96800, Note_off_c, 1, 50, 0
2, 96800, Note_on_c, 1, 61, 127
2, 96800, Note_on_c, 1, 65, 127
2, 96800, Note_on_c, 1, 67, 127
2, 96800, Note_on_c, 1, 70, 127
2, 96800, Note_on_c, 1, 79, 127
2, 96800, Note_off_c, 1, 83, 0
2, 96800, Note_off_c, 1, 86, 0
2, 96800, Note_off_c, 1, 92, 0
2, 96840, Note_on_c, 1, 44, 127
2, 96840, Note_off_c, 1, 61, 0
2, 96840, Note_off_c, 1, 65, 0
2, 96840, Note_on_c, 1, 66, 127
2, 96840, Note_off_c, 1, 67, 0
2, 96840, Note_on_c, 1, 68, 127
2, 96840, Note_off_c, 1, 70, 0
2, 96840, Note_on_c, 1, 72, 127
2, 96840, Note_on_c, 1, 76, 127
2, 96840, Note_off_c, 1, 79, 0
2, 96840, Note_off_c, 1, 80, 0
2, 96880, Note_on_c, 1, 37, 127
2, 96880, Note_off_c, 1, 44, 0
2, 96880, Note_on_c, 1, 51, 127
2, 96880, Note_off_c, 1, 68, 0
2, 96880, Note_off_c, 1, 72, 0
2, 96880, Note_off_c, 1, 76, 0
2, 96880, Note_on_c, 1, 78, 127
2, 96920, Note_off_c, 1, 37, 0
2, 96920, Note_on_c, 1, 44, 127
2, 96920, Note_off_c, 1, 51, 0
2, 96920, Note_on_c, 1, 68, 127
2, 96920, Note_on_c, 1, 72, 127
2, 96920, Note_on_c, 1, 76, 127
2, 96920, Note_off_c, 1, 78, 0
2, 97000, Note_off_c, 1, 44, 0
2, 97000, Note_off_c, 1, 66, 0
2, 97000, Note_off_c, 1, 68, 0
2, 97000, Note_off_c, 1, 72, 0
2, 97000, Note_off_c, 1, 76, 0
2, 97040, Note_on_c, 1, 32, 127
2, 97040, Note_on_c, 1, 40, 127
2, 97040, Note_on_c, 1, 97, 127
2, 97480, Note_off_c, 1, 97, 0
2, 97560, Note_off_c, 1, 32, 0
2, 97560, Note_off_c, 1, 40, 0
2, 97560, Note_on_c, 1, 54, 127
2, 97560, Note_on_c, 1, 78, 127
2, 97560, Note_on_c, 1, 90, 127
2, 97560, Note_on_c, 1, 93, 127
2, 97600, Note_on_c, 1, 32, 127
2, 97600, Note_on_c, 1, 40, 127
2, 97600, Note_off_c, 1, 54, 0
2, 97600, Note_off_c, 1, 78, 0
2, 97600, Note_off_c, 1, 90, 0
2, 97600, Note_off_c, 1, 93, 0
2, 98000, Note_off_c, 1, 32, 0
2, 98000, Note_off_c, 1, 40, 0
2, 98000, Note_on_c, 1, 50, 127
2, 98000, Note_on_c, 1, 52, 127
2, 98040, Note_on_c, 1, 36, 127
2, 98040, Note_off_c, 1, 50, 0
2, 98040, Note_on_c, 1, 67, 127
2, 98040, Note_on_c, 1, 81, 127
2, 98400, Note_off_c, 1, 36, 0
2, 98400, Note_off_c, 1, 52, 0
2, 98400, Note_off_c, 1, 67, 0
2, 98440, Note_on_c, 1, 62, 127
2, 98440, Note_off_c, 1, 81, 0
2, 98440, Note_on_c, 1, 84, 127
2, 98440, Note_on_c, 1, 89, 127
2, 98480, Note_on_c, 1, 56, 127
2, 98480, Note_off_c, 1, 62, 0
2, 98480, Note_on_c, 1, 63, 127
2, 98480, Note_on_c, 1, 78, 127
2, 98480, Note_on_c, 1, 80, 127
2, 98480, Note_off_c, 1, 84, 0
2, 98480, Note_off_c, 1, 89, 0
2, 98560, Note_off_c, 1, 56, 0
2, 98560, Note_off_c, 1, 63, 0
2, 98560, Note_off_c, 1, 78, 0
2, 98560, Note_off_c, 1, 80, 0
2, 98600, Note_on_c, 1, 56, 127
2, 98600, Note_on_c, 1, 63, 127
2, 98600, Note_on_c, 1, 78, 127
2, 98600, Note_on_c, 1, 80, 127
2, 98640, Note_off_c, 1, 78, 0
2, 98680, Note_on_c, 1, 78, 127
2, 99040, Note_off_c, 1, 56, 0
2, 99040, Note_off_c, 1, 63, 0
2, 99040, Note_off_c, 1, 78, 0
2, 99080, Note_on_c, 1, 51, 127
2, 99080, Note_on_c, 1, 72, 127
2, 100240, Note_off_c, 1, 51, 0
2, 100640, Note_off_c, 1, 72, 0
2, 100640, Note_off_c, 1, 80, 0
2, 100720, Note_on_c, 1, 41, 127
2, 101120, Note_off_c, 1, 41, 0
2, 101160, Note_on_c, 1, 47, 127
2, 101160, Note_on_c, 1, 63, 127
2, 101160, Note_on_c, 1, 72, 127
2, 101720, Note_off_c, 1, 47, 0
2, 101760, Note_on_c, 1, 57, 127
2, 102320, Note_off_c, 1, 57, 0
2, 102360, Note_on_c, 1, 57, 127
2, 102920, Note_on_c, 1, 54, 127
2, 102920, Note_off_c, 1, 57, 0
2, 102920, Note_off_c, 1, 63, 0
2, 102920, Note_on_c, 1, 66, 127
2, 102920, Note_off_c, 1, 72, 0
2, 102960, Note_off_c, 1, 54, 0
2, 102960, Note_off_c, 1, 66, 0
2, 103000, Note_on_c, 1, 44, 127
2, 103000, Note_on_c, 1, 64, 127
2, 103000, Note_on_c, 1, 68, 127
2, 103800, Note_on_c, 1, 39, 127
2, 103800, Note_off_c, 1, 44, 0
2, 103800, Note_on_c, 1, 51, 127
2, 103800, Note_off_c, 1, 64, 0
2, 103800, Note_off_c, 1, 68, 0
2, 103800, Note_on_c, 1, 79, 127
2, 103800, Note_on_c, 1, 82, 127
2, 103800, Note_on_c, 1, 87, 127
2, 103800, Note_on_c, 1, 91, 127
2, 104360, Note_off_c, 1, 39, 0
2, 104360, Note_off_c, 1, 51, 0
2, 104360, Note_off_c, 1, 79, 0
2, 104360, Note_off_c, 1, 82, 0
2, 104360, Note_off_c, 1, 87, 0
2, 104360, Note_off_c, 1, 91, 0
2, 104400, Note_on_c, 1, 42, 127
2, 104400, Note_on_c, 1, 47, 127
2, 104400, Note_on_c, 1, 54, 127
2, 104400, Note_on_c, 1, 75, 127
2, 104400, Note_on_c, 1, 81, 127
2, 104400, Note_on_c, 1, 83, 127
2, 104400, Note_on_c, 1, 87, 127
2, 105400, Note_off_c, 1, 42, 0
2, 105400, Note_off_c, 1, 47, 0
2, 105400, Note_off_c, 1, 54, 0
2, 105400, Note_off_c, 1, 75, 0
2, 105400, Note_off_c, 1, 81, 0
2, 105400, Note_off_c, 1, 83, 0
2, 105400, Note_off_c, 1, 87, 0
2, 105440, Note_on_c, 1, 42, 127
2, 105440, Note_on_c, 1, 47, 127
2, 105440, Note_on_c, 1, 54, 127
2, 105440, Note_on_c, 1, 75, 127
2, 105440, Note_on_c, 1, 81, 127
2, 105440, Note_on_c, 1, 83, 127
2, 105440, Note_on_c, 1, 87, 127
2, 106360, Note_off_c, 1, 42, 0
2, 106360, Note_off_c, 1, 47, 0
2, 106360, Note_off_c, 1, 54, 0
2, 106360, Note_off_c, 1, 75, 0
2, 106360, Note_off_c, 1, 81, 0
2, 106360, Note_off_c, 1, 83, 0
2, 106360, Note_off_c, 1, 87, 0
2, 107080, Note_on_c, 1, 57, 127
2, 107080, Note_on_c, 1, 64, 127
2, 107080, Note_on_c, 1, 73, 127
2, 107440, Note_on_c, 1, 69, 127
2, 107440, Note_off_c, 1, 73, 0
2, 107480, Note_off_c, 1, 57, 0
2, 107480, Note_off_c, 1, 64, 0
2, 107480, Note_off_c, 1, 69, 0
2, 107520, Note_on_c, 1, 57, 127
2, 107520, Note_on_c, 1, 64, 127
2, 107520, Note_on_c, 1, 73, 127
2, 108480, Note_on_c, 1, 69, 127
2, 108480, Note_off_c, 1, 73, 0
2, 109080, Note_off_c, 1, 57, 0
2, 109080, Note_off_c, 1, 64, 0
2, 109080, Note_off_c, 1, 69, 0
2, 109120, Note_on_c, 1, 45, 127
2, 109120, Note_on_c, 1, 73, 127
2, 109480, Note_off_c, 1, 45, 0
2, 109520, Note_off_c, 1, 73, 0
2, 109560, Note_on_c, 1, 57, 127
2, 109560, Note_on_c, 1, 73, 127
2, 109920, Note_off_c, 1, 57, 0
2, 109920, Note_off_c, 1, 73, 0
2, 109960, Note_on_c, 1, 38, 127
2, 109960, Note_on_c, 1, 74, 127
2, 110520, Note_off_c, 1, 38, 0
2, 110520, Note_off_c, 1, 74, 0
2, 110560, Note_on_c, 1, 38, 127
2, 110560, Note_on_c, 1, 71, 127
2, 111120, Note_off_c, 1, 38, 0
2, 111120, Note_off_c, 1, 71, 0
2, 111160, Note_on_c, 1, 73, 127
2, 111520, Note_off_c, 1, 73, 0
2, 111600, Note_on_c, 1, 42, 127
2, 111600, Note_on_c, 1, 74, 127
2, 112360, Note_off_c, 1, 74, 0
2, 112400, Note_on_c, 1, 61, 127
2, 112400, Note_on_c, 1, 64, 127
2, 113160, Note_off_c, 1, 42, 0
2, 113160, Note_off_c, 1, 64, 0
2, 113600, Note_off_c, 1, 61, 0
2, 113640, Note_on_c, 1, 61, 127
2, 114040, Note_off_c, 1, 61, 0
2, 114040, Note_on_c, 1, 62, 127
2, 115640, Note_on_c, 1, 61, 127
2, 115640, Note_off_c, 1, 62, 0
2, 115840, Note_off_c, 1, 61, 0
2, 115880, Note_on_c, 1, 61, 127
2, 116640, Note_off_c, 1, 61, 0
2, 116680, Note_on_c, 1, 59, 127
2, 117040, Note_off_c, 1, 59, 0
2, 117080, Note_on_c, 1, 56, 127
2, 117480, Note_on_c, 1, 82, 127
2, 117840, Note_off_c, 1, 56, 0
2, 117880, Note_on_c, 1, 61, 127
2, 118080, Note_off_c, 1, 61, 0
2, 118080, Note_off_c, 1, 82, 0
2, 118120, Note_on_c, 1, 61, 127
2, 118120, Note_on_c, 1, 82, 127
2, 118280, Note_off_c, 1, 61, 0
2, 118280, Note_off_c, 1, 82, 0
2, 118320, Note_on_c, 1, 51, 127
2, 118320, Note_on_c, 1, 84, 127
2, 119440, Note_off_c, 1, 51, 0
2, 119440, Note_off_c, 1, 84, 0
2, 119480, Note_on_c, 1, 51, 127
2, 119480, Note_on_c, 1, 84, 127
2, 120000, Note_off_c, 1, 51, 0
2, 120000, Note_off_c, 1, 84, 0
2, 120040, End_track
3, 0, Start_track
3, 0, Title_t, "MIDI"
3, 1536, End_track
0, 0, End_of_file
