0, 0, Header, 1, 3, 192
1, 0, Start_track
1, 0, Time_signature, 4, 2, 24, 8
1, 0, Tempo, 500000
1, 120040, End_track
2, 0, Start_track
2, 0, Text_t, "random instrument: random person i dunno whatev"
2, 0, Title_t, "Track 1"
2, 0, Note_on_c, 1, 58, 127
2, 0, Note_on_c, 1, 66, 127
2, 0, Note_on_c, 1, 78, 127
2, 0, Note_on_c, 1, 82, 127
2, 0, Note_on_c, 1, 90, 127
2, 40, Note_on_c, 1, 46, 127
2, 40, Note_off_c, 1, 66, 0
2, 40, Note_off_c, 1, 78, 0
2, 40, Note_on_c, 1, 86, 127
2, 40, Note_off_c, 1, 90, 0
2, 40, Note_on_c, 1, 94, 127
2, 80, Note_off_c, 1, 46, 0
2, 80, Note_off_c, 1, 58, 0
2, 80, Note_off_c, 1, 82, 0
2, 80, Note_off_c, 1, 86, 0
2, 80, Note_off_c, 1, 94, 0
2, 120, Note_on_c, 1, 47, 127
2, 120, Note_on_c, 1, 58, 127
2, 120, Note_on_c, 1, 62, 127
2, 120, Note_on_c, 1, 66, 127
2, 120, Note_on_c, 1, 70, 127
2, 120, Note_on_c, 1, 74, 127
2, 160, Note_off_c, 1, 47, 0
2, 160, Note_on_c, 1, 53, 127
2, 160, Note_off_c, 1, 58, 0
2, 160, Note_off_c, 1, 62, 0
2, 160, Note_off_c, 1, 66, 0
2, 160, Note_off_c, 1, 70, 0
2, 160, Note_off_c, 1, 74, 0
2, 160, Note_on_c, 1, 77, 127
2, 160, Note_on_c, 1, 85, 127
2, 200, Note_off_c, 1, 53, 0
2, 200, Note_on_c, 1, 74, 127
2, 200, Note_off_c, 1, 77, 0
2, 200, Note_on_c, 1, 83, 127
2, 200, Note_off_c, 1, 85, 0
2, 200, Note_on_c, 1, 95, 127
2, 240, Note_on_c, 1, 51, 127
2, 240, Note_on_c, 1, 55, 127
2, 240, Note_on_c, 1, 58, 127
2, 240, Note_on_c, 1, 63, 127
2, 240, Note_off_c, 1, 74, 0
2, 240, Note_on_c, 1, 82, 127
2, 240, Note_off_c, 1, 83, 0
2, 240, Note_on_c, 1, 91, 127
2, 240, Note_off_c, 1, 95, 0
2, 280, Note_off_c, 1, 51, 0
2, 280, Note_off_c, 1, 55, 0
2, 280, Note_off_c, 1, 63, 0
2, 280, Note_on_c, 1, 66, 127
2, 280, Note_on_c, 1, 78, 127
2, 280, Note_on_c, 1, 90, 127
2, 280, Note_off_c, 1, 91, 0
2, 320, Note_off_c, 1, 58, 0
2, 320, Note_off_c, 1, 66, 0
2, 320, Note_on_c, 1, 71, 127
2, 320, Note_on_c, 1, 74, 127
2, 320, Note_off_c, 1, 78, 0
2, 320, Note_on_c, 1, 87, 127
2, 320, Note_off_c, 1, 90, 0
2, 360, Note_on_c, 1, 51, 127
2, 360, Note_on_c, 1, 59, 127
2, 360, Note_on_c, 1, 66, 127
2, 360, Note_on_c, 1, 69, 127
2, 360, Note_off_c, 1, 71, 0
2, 360, Note_off_c, 1, 74, 0
2, 360, Note_on_c, 1, 75, 127
2, 360, Note_off_c, 1, 82, 0
2, 360, Note_on_c, 1, 85, 127
2, 360, Note_off_c, 1, 87, 0
2, 400, Note_off_c, 1, 66, 0
2, 400, Note_off_c, 1, 69, 0
2, 400, Note_on_c, 1, 71, 127
2, 400, Note_off_c, 1, 85, 0
2, 560, Note_on_c, 1, 55, 127
2, 560, Note_off_c, 1, 59, 0
2, 560, Note_off_c, 1, 75, 0
2, 600, Note_off_c, 1, 55, 0
2, 600, Note_on_c, 1, 59, 127
2, 600, Note_on_c, 1, 75, 127
2, 1000, Note_off_c, 1, 51, 0
2, 1000, Note_off_c, 1, 59, 0
2, 1000, Note_off_c, 1, 71, 0
2, 1000, Note_off_c, 1, 75, 0
2, 1040, Note_on_c, 1, 50, 127
2, 1040, Note_on_c, 1, 68, 127
2, 1040, Note_on_c, 1, 71, 127
2, 2240, Note_off_c, 1, 50, 0
2, 2240, Note_off_c, 1, 68, 0
2, 2240, Note_off_c, 1, 71, 0
2, 2320, Note_on_c, 1, 51, 127
2, 2320, Note_on_c, 1, 61, 127
2, 2320, Note_on_c, 1, 67, 127
2, 2320, Note_on_c, 1, 70, 127
2, 2880, Note_off_c, 1, 70, 0
2, 2920, Note_on_c, 1, 73, 127
2, 4080, Note_off_c, 1, 51, 0
2, 4080, Note_off_c, 1, 61, 0
2, 4080, Note_off_c, 1, 67, 0
2, 4080, Note_off_c, 1, 73, 0
2, 4120, Note_on_c, 1, 44, 127
2, 4120, Note_on_c, 1, 59, 127
2, 4120, Note_on_c, 1, 63, 127
2, 4120, Note_on_c, 1, 68, 127
2, 4560, Note_off_c, 1, 44, 0
2, 4560, Note_off_c, 1, 59, 0
2, 4560, Note_off_c, 1, 63, 0
2, 4560, Note_off_c, 1, 68, 0
2, 4600, Note_on_c, 1, 44, 127
2, 4600, Note_on_c, 1, 59, 127
2, 4600, Note_on_c, 1, 63, 127
2, 4600, Note_on_c, 1, 68, 127
2, 4720, Note_off_c, 1, 59, 0
2, 4720, Note_off_c, 1, 63, 0
2, 4720, Note_off_c, 1, 68, 0
2, 4760, Note_on_c, 1, 49, 127
2, 4760, Note_on_c, 1, 59, 127
2, 4760, Note_on_c, 1, 71, 127
2, 5520, Note_off_c, 1, 44, 0
2, 5520, Note_off_c, 1, 49, 0
2, 5520, Note_off_c, 1, 59, 0
2, 5520, Note_off_c, 1, 71, 0
2, 5560, Note_on_c, 1, 44, 127
2, 5560, Note_on_c, 1, 52, 127
2, 5560, Note_on_c, 1, 61, 127
2, 5560, Note_on_c, 1, 68, 127
2, 5560, Note_on_c, 1, 73, 127
2, 6320, Note_off_c, 1, 44, 0
2, 6320, Note_on_c, 1, 51, 127
2, 6320, Note_off_c, 1, 52, 0
2, 6320, Note_on_c, 1, 60, 127
2, 6320, Note_off_c, 1, 61, 0
2, 6320, Note_off_c, 1, 73, 0
2, 6360, Note_on_c, 1, 44, 127
2, 6360, Note_off_c, 1, 51, 0
2, 6360, Note_on_c, 1, 52, 127
2, 6360, Note_off_c, 1, 60, 0
2, 6360, Note_on_c, 1, 61, 127
2, 6360, Note_on_c, 1, 73, 127
2, 6720, Note_off_c, 1, 44, 0
2, 6720, Note_off_c, 1, 52, 0
2, 6720, Note_off_c, 1, 61, 0
2, 6720, Note_off_c, 1, 68, 0
2, 6720, Note_off_c, 1, 73, 0
2, 6760, Note_on_c, 1, 49, 127
2, 6760, Note_on_c, 1, 52, 127
2, 6760, Note_on_c, 1, 57, 127
2, 6760, Note_on_c, 1, 61, 127
2, 6760, Note_on_c, 1, 63, 127
2, 6920, Note_off_c, 1, 49, 0
2, 6920, Note_off_c, 1, 52, 0
2, 6920, Note_off_c, 1, 57, 0
2, 6920, Note_off_c, 1, 61, 0
2, 6920, Note_off_c, 1, 63, 0
2, 6960, Note_on_c, 1, 49, 127
2, 6960, Note_on_c, 1, 52, 127
2, 6960, Note_on_c, 1, 57, 127
2, 6960, Note_on_c, 1, 61, 127
2, 6960, Note_on_c, 1, 63, 127
2, 7200, Note_off_c, 1, 49, 0
2, 7200, Note_off_c, 1, 52, 0
2, 7200, Note_off_c, 1, 57, 0
2, 7200, Note_off_c, 1, 61, 0
2, 7200, Note_off_c, 1, 63, 0
2, 7240, Note_on_c, 1, 47, 127
2, 7240, Note_on_c, 1, 53, 127
2, 7240, Note_on_c, 1, 56, 127
2, 7240, Note_on_c, 1, 68, 127
2, 8000, Note_off_c, 1, 47, 0
2, 8000, Note_off_c, 1, 56, 0
2, 8000, Note_off_c, 1, 68, 0
2, 8040, Note_off_c, 1, 53, 0
2, 8040, Note_on_c, 1, 54, 127
2, 8040, Note_on_c, 1, 63, 127
2, 8040, Note_on_c, 1, 68, 127
2, 8400, Note_off_c, 1, 68, 0
2, 8440, Note_on_c, 1, 71, 127
2, 9200, Note_off_c, 1, 54, 0
2, 9200, Note_off_c, 1, 63, 0
2, 9200, Note_off_c, 1, 71, 0
2, 9240, Note_on_c, 1, 54, 127
2, 9240, Note_on_c, 1, 63, 127
2, 9280, Note_on_c, 1, 71, 127
2, 10040, Note_off_c, 1, 63, 0
2, 10040, Note_off_c, 1, 71, 0
2, 10080, Note_on_c, 1, 63, 127
2, 10080, Note_on_c, 1, 75, 127
2, 10840, Note_off_c, 1, 54, 0
2, 10840, Note_off_c, 1, 63, 0
2, 10840, Note_off_c, 1, 75, 0
2, 10880, Note_on_c, 1, 49, 127
2, 10880, Note_on_c, 1, 59, 127
2, 10880, Note_on_c, 1, 65, 127
2, 10880, Note_on_c, 1, 73, 127
2, 11400, Note_off_c, 1, 49, 0
2, 11400, Note_off_c, 1, 59, 0
2, 11400, Note_off_c, 1, 65, 0
2, 11400, Note_off_c, 1, 73, 0
2, 11440, Note_on_c, 1, 49, 127
2, 11440, Note_on_c, 1, 59, 127
2, 11440, Note_on_c, 1, 65, 127
2, 11440, Note_on_c, 1, 73, 127
2, 12480, Note_off_c, 1, 49, 0
2, 12480, Note_off_c, 1, 59, 0
2, 12480, Note_off_c, 1, 65, 0
2, 12480, Note_off_c, 1, 73, 0
2, 13400, Note_on_c, 1, 37, 127
2, 13400, Note_on_c, 1, 49, 127
2, 14040, Note_off_c, 1, 37, 0
2, 14040, Note_off_c, 1, 49, 0
2, 14080, Note_on_c, 1, 37, 127
2, 14080, Note_on_c, 1, 49, 127
2, 15240, Note_off_c, 1, 37, 0
2, 15240, Note_off_c, 1, 49, 0
2, 15280, Note_on_c, 1, 37, 127
2, 15280, Note_on_c, 1, 49, 127
2, 16280, Note_off_c, 1, 37, 0
2, 16280, Note_off_c, 1, 49, 0
2, 16320, Note_on_c, 1, 37, 127
2, 16320, Note_on_c, 1, 49, 127
2, 16720, Note_on_c, 1, 61, 127
2, 16920, Note_off_c, 1, 61, 0
2, 16960, Note_on_c, 1, 61, 127
2, 17120, Note_off_c, 1, 61, 0
2, 17160, Note_on_c, 1, 55, 127
2, 17520, Note_off_c, 1, 55, 0
2, 17560, Note_on_c, 1, 61, 127
2, 17960, Note_off_c, 1, 61, 0
2, 18000, Note_on_c, 1, 56, 127
2, 18360, Note_off_c, 1, 56, 0
2, 18400, Note_on_c, 1, 61, 127
2, 18560, Note_off_c, 1, 37, 0
2, 18560, Note_off_c, 1, 49, 0
2, 18560, Note_off_c, 1, 61, 0
2, 18600, Note_on_c, 1, 37, 127
2, 18600, Note_on_c, 1, 49, 127
2, 18600, Note_on_c, 1, 61, 127
2, 18800, Note_off_c, 1, 61, 0
2, 18840, Note_on_c, 1, 56, 127
2, 19200, Note_off_c, 1, 56, 0
2, 19240, Note_on_c, 1, 56, 127
2, 19640, Note_off_c, 1, 56, 0
2, 19680, Note_on_c, 1, 61, 127
2, 20040, Note_off_c, 1, 61, 0
2, 20080, Note_on_c, 1, 61, 127
2, 20440, Note_off_c, 1, 61, 0
2, 20480, Note_on_c, 1, 61, 127
2, 20880, Note_off_c, 1, 37, 0
2, 20880, Note_off_c, 1, 49, 0
2, 20880, Note_off_c, 1, 61, 0
2, 20960, Note_on_c, 1, 49, 127
2, 20960, Note_on_c, 1, 56, 127
2, 20960, Note_on_c, 1, 77, 127
2, 21280, Note_off_c, 1, 77, 0
2, 21320, Note_on_c, 1, 77, 127
2, 21680, Note_off_c, 1, 77, 0
2, 21720, Note_on_c, 1, 77, 127
2, 22120, Note_off_c, 1, 77, 0
2, 22160, Note_on_c, 1, 77, 127
2, 22520, Note_off_c, 1, 77, 0
2, 22560, Note_on_c, 1, 77, 127
2, 22920, Note_off_c, 1, 56, 0
2, 22960, Note_off_c, 1, 49, 0
2, 22960, Note_off_c, 1, 77, 0
2, 23000, Note_on_c, 1, 49, 127
2, 23000, Note_on_c, 1, 65, 127
2, 23000, Note_on_c, 1, 77, 127
2, 23360, Note_on_c, 1, 37, 127
2, 23360, Note_off_c, 1, 49, 0
2, 23360, Note_off_c, 1, 65, 0
2, 23400, Note_off_c, 1, 37, 0
2, 23400, Note_on_c, 1, 49, 127
2, 23400, Note_on_c, 1, 65, 127
2, 23760, Note_off_c, 1, 49, 0
2, 23800, Note_on_c, 1, 56, 127
2, 24160, Note_off_c, 1, 56, 0
2, 24200, Note_on_c, 1, 56, 127
2, 24560, Note_off_c, 1, 56, 0
2, 24600, Note_on_c, 1, 56, 127
2, 24960, Note_off_c, 1, 56, 0
2, 24960, Note_off_c, 1, 65, 0
2, 25000, Note_off_c, 1, 77, 0
2, 25040, Note_on_c, 1, 61, 127
2, 25040, Note_on_c, 1, 65, 127
2, 25040, Note_on_c, 1, 77, 127
2, 25400, Note_off_c, 1, 61, 0
2, 25400, Note_off_c, 1, 65, 0
2, 25400, Note_off_c, 1, 77, 0
2, 25440, Note_on_c, 1, 51, 127
2, 25440, Note_on_c, 1, 60, 127
2, 25440, Note_on_c, 1, 75, 127
2, 25800, Note_off_c, 1, 60, 0
2, 25800, Note_off_c, 1, 75, 0
2, 25840, Note_on_c, 1, 61, 127
2, 25840, Note_on_c, 1, 75, 127
2, 26640, Note_off_c, 1, 51, 0
2, 26640, Note_off_c, 1, 61, 0
2, 26680, Note_on_c, 1, 44, 127
2, 27040, Note_off_c, 1, 44, 0
2, 27040, Note_off_c, 1, 75, 0
2, 27080, Note_on_c, 1, 80, 127
2, 27120, Note_on_c, 1, 44, 127
2, 27520, Note_off_c, 1, 44, 0
2, 27560, Note_on_c, 1, 51, 127
2, 27920, Note_off_c, 1, 51, 0
2, 27960, Note_on_c, 1, 68, 127
2, 28360, Note_on_c, 1, 44, 127
2, 29160, Note_off_c, 1, 68, 0
2, 29200, Note_off_c, 1, 44, 0
2, 29200, Note_off_c, 1, 80, 0
2, 29240, Note_on_c, 1, 50, 127
2, 29240, Note_on_c, 1, 52, 127
2, 29240, Note_on_c, 1, 59, 127
2, 29240, Note_on_c, 1, 68, 127
2, 30400, Note_off_c, 1, 50, 0
2, 30400, Note_off_c, 1, 52, 0
2, 30400, Note_off_c, 1, 59, 0
2, 30400, Note_off_c, 1, 68, 0
2, 30480, Note_on_c, 1, 31, 127
2, 30480, Note_on_c, 1, 43, 127
2, 30480, Note_on_c, 1, 48, 127
2, 30480, Note_on_c, 1, 52, 127
2, 30480, Note_on_c, 1, 55, 127
2, 30480, Note_on_c, 1, 58, 127
2, 30480, Note_on_c, 1, 60, 127
2, 30480, Note_on_c, 1, 64, 127
2, 30480, Note_on_c, 1, 70, 127
2, 30480, Note_on_c, 1, 72, 127
2, 31200, Note_off_c, 1, 31, 0
2, 31200, Note_off_c, 1, 43, 0
2, 31200, Note_off_c, 1, 48, 0
2, 31200, Note_off_c, 1, 52, 0
2, 31200, Note_off_c, 1, 55, 0
2, 31200, Note_off_c, 1, 58, 0
2, 31200, Note_off_c, 1, 60, 0
2, 31200, Note_off_c, 1, 64, 0
2, 31200, Note_off_c, 1, 70, 0
2, 31200, Note_off_c, 1, 72, 0
2, 31240, Note_on_c, 1, 31, 127
2, 31240, Note_on_c, 1, 43, 127
2, 31240, Note_on_c, 1, 48, 127
2, 31240, Note_on_c, 1, 52, 127
2, 31240, Note_on_c, 1, 55, 127
2, 31240, Note_on_c, 1, 58, 127
2, 31240, Note_on_c, 1, 60, 127
2, 31240, Note_on_c, 1, 64, 127
2, 31240, Note_on_c, 1, 70, 127
2, 31240, Note_on_c, 1, 72, 127
2, 31280, Note_off_c, 1, 31, 0
2, 31280, Note_off_c, 1, 43, 0
2, 31280, Note_off_c, 1, 48, 0
2, 31280, Note_off_c, 1, 52, 0
2, 31280, Note_off_c, 1, 55, 0
2, 31280, Note_off_c, 1, 58, 0
2, 31280, Note_off_c, 1, 60, 0
2, 31280, Note_off_c, 1, 64, 0
2, 31280, Note_off_c, 1, 70, 0
2, 31280, Note_off_c, 1, 72, 0
2, 31320, Note_on_c, 1, 44, 127
2, 31320, Note_on_c, 1, 55, 127
2, 31320, Note_on_c, 1, 61, 127
2, 31400, Note_off_c, 1, 61, 0
2, 31400, Note_on_c, 1, 63, 127
2, 32120, Note_off_c, 1, 55, 0
2, 32120, Note_off_c, 1, 63, 0
2, 32120, Note_on_c, 1, 75, 127
2, 32160, Note_on_c, 1, 51, 127
2, 32160, Note_on_c, 1, 67, 127
2, 32160, Note_on_c, 1, 70, 127
2, 32160, Note_off_c, 1, 75, 0
2, 32520, Note_off_c, 1, 44, 0
2, 32520, Note_off_c, 1, 51, 0
2, 32520, Note_off_c, 1, 67, 0
2, 32520, Note_off_c, 1, 70, 0
2, 32560, Note_on_c, 1, 48, 127
2, 32560, Note_on_c, 1, 56, 127
2, 32560, Note_on_c, 1, 63, 127
2, 32560, Note_on_c, 1, 68, 127
2, 32560, Note_on_c, 1, 75, 127
2, 33240, Note_off_c, 1, 48, 0
2, 33240, Note_off_c, 1, 56, 0
2, 33240, Note_off_c, 1, 63, 0
2, 33240, Note_off_c, 1, 68, 0
2, 33240, Note_off_c, 1, 75, 0
2, 33280, Note_on_c, 1, 48, 127
2, 33280, Note_on_c, 1, 56, 127
2, 33280, Note_on_c, 1, 63, 127
2, 33280, Note_on_c, 1, 68, 127
2, 33280, Note_on_c, 1, 75, 127
2, 33800, Note_off_c, 1, 48, 0
2, 33800, Note_off_c, 1, 56, 0
2, 33800, Note_off_c, 1, 63, 0
2, 33800, Note_off_c, 1, 68, 0
2, 33800, Note_off_c, 1, 75, 0
2, 33840, Note_on_c, 1, 54, 127
2, 33840, Note_on_c, 1, 58, 127
2, 33840, Note_on_c, 1, 61, 127
2, 33840, Note_on_c, 1, 66, 127
2, 33840, Note_on_c, 1, 73, 127
2, 33840, Note_on_c, 1, 78, 127
2, 33840, Note_on_c, 1, 82, 127
2, 33840, Note_on_c, 1, 85, 127
2, 34200, Note_off_c, 1, 54, 0
2, 34200, Note_off_c, 1, 58, 0
2, 34200, Note_off_c, 1, 61, 0
2, 34200, Note_off_c, 1, 66, 0
2, 34200, Note_off_c, 1, 73, 0
2, 34200, Note_off_c, 1, 78, 0
2, 34200, Note_off_c, 1, 82, 0
2, 34200, Note_off_c, 1, 85, 0
2, 34240, Note_on_c, 1, 42, 127
2, 34240, Note_on_c, 1, 53, 127
2, 34240, Note_on_c, 1, 58, 127
2, 34240, Note_on_c, 1, 61, 127
2, 34240, Note_on_c, 1, 68, 127
2, 34240, Note_on_c, 1, 73, 127
2, 34600, Note_off_c, 1, 42, 0
2, 34600, Note_off_c, 1, 53, 0
2, 34600, Note_off_c, 1, 58, 0
2, 34600, Note_off_c, 1, 61, 0
2, 34600, Note_off_c, 1, 68, 0
2, 34600, Note_off_c, 1, 73, 0
2, 34640, Note_on_c, 1, 25, 127
2, 34640, Note_on_c, 1, 37, 127
2, 34640, Note_on_c, 1, 55, 127
2, 35040, Note_off_c, 1, 25, 0
2, 35040, Note_off_c, 1, 37, 0
2, 35040, Note_off_c, 1, 55, 0
2, 35080, Note_on_c, 1, 58, 127
2, 35080, Note_on_c, 1, 60, 127
2, 35080, Note_on_c, 1, 63, 127
2, 35080, Note_on_c, 1, 65, 127
2, 35080, Note_on_c, 1, 69, 127
2, 35080, Note_on_c, 1, 75, 127
2, 35080, Note_on_c, 1, 77, 127
2, 35440, Note_on_c, 1, 54, 127
2, 35440, Note_on_c, 1, 57, 127
2, 35440, Note_off_c, 1, 58, 0
2, 35440, Note_on_c, 1, 62, 127
2, 35440, Note_off_c, 1, 63, 0
2, 35440, Note_off_c, 1, 65, 0
2, 35440, Note_on_c, 1, 66, 127
2, 35440, Note_off_c, 1, 69, 0
2, 35440, Note_off_c, 1, 75, 0
2, 35440, Note_off_c, 1, 77, 0
2, 35440, Note_on_c, 1, 88, 127
2, 35480, Note_off_c, 1, 54, 0
2, 35480, Note_off_c, 1, 57, 0
2, 35480, Note_off_c, 1, 60, 0
2, 35480, Note_off_c, 1, 62, 0
2, 35480, Note_off_c, 1, 66, 0
2, 35480, Note_off_c, 1, 88, 0
2, 35560, Note_on_c, 1, 37, 127
2, 35560, Note_on_c, 1, 40, 127
2, 35560, Note_on_c, 1, 49, 127
2, 35560, Note_on_c, 1, 69, 127
2, 35560, Note_on_c, 1, 81, 127
2, 36360, Note_off_c, 1, 37, 0
2, 36360, Note_off_c, 1, 40, 0
2, 36360, Note_off_c, 1, 49, 0
2, 36360, Note_off_c, 1, 69, 0
2, 36360, Note_off_c, 1, 81, 0
2, 36400, Note_on_c, 1, 38, 127
2, 36400, Note_on_c, 1, 42, 127
2, 36400, Note_on_c, 1, 50, 127
2, 36400, Note_on_c, 1, 66, 127
2, 36400, Note_on_c, 1, 69, 127
2, 36400, Note_on_c, 1, 74, 127
2, 36400, Note_on_c, 1, 78, 127
2, 37160, Note_off_c, 1, 38, 0
2, 37160, Note_off_c, 1, 42, 0
2, 37160, Note_off_c, 1, 50, 0
2, 37160, Note_off_c, 1, 66, 0
2, 37160, Note_off_c, 1, 69, 0
2, 37160, Note_off_c, 1, 74, 0
2, 37160, Note_off_c, 1, 78, 0
2, 37200, Note_on_c, 1, 69, 127
2, 37200, Note_on_c, 1, 76, 127
2, 37200, Note_on_c, 1, 88, 127
2, 37200, Note_on_c, 1, 91, 127
2, 37240, Note_on_c, 1, 41, 127
2, 37240, Note_on_c, 1, 52, 127
2, 37240, Note_on_c, 1, 57, 127
2, 37240, Note_off_c, 1, 69, 0
2, 37240, Note_on_c, 1, 72, 127
2, 37240, Note_off_c, 1, 76, 0
2, 37240, Note_on_c, 1, 79, 127
2, 37240, Note_on_c, 1, 84, 127
2, 37240, Note_off_c, 1, 88, 0
2, 37240, Note_off_c, 1, 91, 0
2, 37280, Note_off_c, 1, 41, 0
2, 37280, Note_off_c, 1, 52, 0
2, 37280, Note_on_c, 1, 55, 127
2, 37280, Note_off_c, 1, 57, 0
2, 37280, Note_on_c, 1, 61, 127
2, 37280, Note_on_c, 1, 65, 127
2, 37280, Note_off_c, 1, 79, 0
2, 37280, Note_off_c, 1, 84, 0
2, 37320, Note_on_c, 1, 41, 127
2, 37320, Note_on_c, 1, 52, 127
2, 37320, Note_off_c, 1, 55, 0
2, 37320, Note_on_c, 1, 57, 127
2, 37320, Note_off_c, 1, 61, 0
2, 37320, Note_off_c, 1, 65, 0
2, 37320, Note_on_c, 1, 79, 127
2, 37320, Note_on_c, 1, 84, 127
2, 37840, Note_off_c, 1, 41, 0
2, 37840, Note_off_c, 1, 52, 0
2, 37840, Note_off_c, 1, 57, 0
2, 37840, Note_off_c, 1, 72, 0
2, 37840, Note_off_c, 1, 79, 0
2, 37840, Note_off_c, 1, 84, 0
2, 37880, Note_on_c, 1, 41, 127
2, 37880, Note_on_c, 1, 52, 127
2, 37880, Note_on_c, 1, 57, 127
2, 37880, Note_on_c, 1, 72, 127
2, 37880, Note_on_c, 1, 79, 127
2, 37880, Note_on_c, 1, 84, 127
2, 38040, Note_off_c, 1, 41, 0
2, 38040, Note_off_c, 1, 52, 0
2, 38040, Note_off_c, 1, 57, 0
2, 38040, Note_off_c, 1, 72, 0
2, 38040, Note_off_c, 1, 79, 0
2, 38040, Note_on_c, 1, 82, 127
2, 38040, Note_off_c, 1, 84, 0
2, 38040, Note_on_c, 1, 87, 127
2, 38040, Note_on_c, 1, 91, 127
2, 38040, Note_on_c, 1, 94, 127
2, 38080, Note_on_c, 1, 41, 127
2, 38080, Note_on_c, 1, 52, 127
2, 38080, Note_on_c, 1, 57, 127
2, 38080, Note_on_c, 1, 72, 127
2, 38080, Note_on_c, 1, 79, 127
2, 38080, Note_off_c, 1, 82, 0
2, 38080, Note_on_c, 1, 84, 127
2, 38080, Note_off_c, 1, 87, 0
2, 38080, Note_off_c, 1, 91, 0
2, 38080, Note_off_c, 1, 94, 0
2, 38880, Note_off_c, 1, 41, 0
2, 38880, Note_off_c, 1, 52, 0
2, 38880, Note_off_c, 1, 57, 0
2, 38880, Note_off_c, 1, 72, 0
2, 38880, Note_off_c, 1, 79, 0
2, 38880, Note_off_c, 1, 84, 0
2, 38920, Note_on_c, 1, 41, 127
2, 38920, Note_on_c, 1, 52, 127
2, 38920, Note_on_c, 1, 57, 127
2, 38920, Note_on_c, 1, 72, 127
2, 38920, Note_on_c, 1, 79, 127
2, 38920, Note_on_c, 1, 84, 127
2, 39720, Note_off_c, 1, 41, 0
2, 39720, Note_off_c, 1, 52, 0
2, 39720, Note_off_c, 1, 57, 0
2, 39720, Note_off_c, 1, 72, 0
2, 39720, Note_off_c, 1, 79, 0
2, 39720, Note_off_c, 1, 84, 0
2, 39760, Note_on_c, 1, 60, 127
2, 39760, Note_on_c, 1, 69, 127
2, 39760, Note_on_c, 1, 77, 127
2, 39760, Note_on_c, 1, 89, 127
2, 40160, Note_off_c, 1, 60, 0
2, 40160, Note_off_c, 1, 69, 0
2, 40160, Note_off_c, 1, 77, 0
2, 40160, Note_off_c, 1, 89, 0
2, 40200, Note_on_c, 1, 60, 127
2, 40200, Note_on_c, 1, 69, 127
2, 40200, Note_on_c, 1, 77, 127
2, 40200, Note_on_c, 1, 89, 127
2, 41800, Note_off_c, 1, 60, 0
2, 41800, Note_off_c, 1, 69, 0
2, 41800, Note_off_c, 1, 77, 0
2, 41800, Note_off_c, 1, 89, 0
2, 41840, Note_on_c, 1, 48, 127
2, 41840, Note_on_c, 1, 54, 127
2, 41840, Note_on_c, 1, 58, 127
2, 41840, Note_on_c, 1, 65, 127
2, 41880, Note_on_c, 1, 46, 127
2, 41880, Note_off_c, 1, 48, 0
2, 41880, Note_off_c, 1, 54, 0
2, 41880, Note_off_c, 1, 65, 0
2, 41880, Note_on_c, 1, 80, 127
2, 41880, Note_on_c, 1, 82, 127
2, 41880, Note_on_c, 1, 86, 127
2, 41880, Note_on_c, 1, 89, 127
2, 41920, Note_on_c, 1, 44, 127
2, 41920, Note_off_c, 1, 46, 0
2, 41920, Note_on_c, 1, 51, 127
2, 41920, Note_off_c, 1, 58, 0
2, 41920, Note_on_c, 1, 59, 127
2, 41920, Note_on_c, 1, 67, 127
2, 41920, Note_off_c, 1, 80, 0
2, 41920, Note_off_c, 1, 82, 0
2, 41920, Note_off_c, 1, 86, 0
2, 41920, Note_off_c, 1, 89, 0
2, 41960, Note_off_c, 1, 44, 0
2, 41960, Note_off_c, 1, 51, 0
2, 41960, Note_on_c, 1, 58, 127
2, 41960, Note_off_c, 1, 59, 0
2, 41960, Note_on_c, 1, 62, 127
2, 41960, Note_on_c, 1, 65, 127
2, 41960, Note_off_c, 1, 67, 0
2, 41960, Note_on_c, 1, 74, 127
2, 41960, Note_on_c, 1, 77, 127
2, 41960, Note_on_c, 1, 80, 127
2, 42000, Note_on_c, 1, 46, 127
2, 42000, Note_off_c, 1, 62, 0
2, 42000, Note_off_c, 1, 65, 0
2, 42000, Note_off_c, 1, 74, 0
2, 42000, Note_off_c, 1, 77, 0
2, 42000, Note_on_c, 1, 82, 127
2, 42000, Note_on_c, 1, 86, 127
2, 42000, Note_on_c, 1, 89, 127
2, 42040, Note_on_c, 1, 40, 127
2, 42040, Note_on_c, 1, 44, 127
2, 42040, Note_off_c, 1, 46, 0
2, 42040, Note_on_c, 1, 47, 127
2, 42040, Note_on_c, 1, 52, 127
2, 42040, Note_off_c, 1, 58, 0
2, 42040, Note_on_c, 1, 71, 127
2, 42040, Note_on_c, 1, 76, 127
2, 42040, Note_off_c, 1, 82, 0
2, 42040, Note_on_c, 1, 83, 127
2, 42040, Note_off_c, 1, 86, 0
2, 42040, Note_off_c, 1, 89, 0
2, 42080, Note_off_c, 1, 40, 0
2, 42080, Note_off_c, 1, 44, 0
2, 42080, Note_off_c, 1, 47, 0
2, 42080, Note_off_c, 1, 52, 0
2, 42080, Note_off_c, 1, 71, 0
2, 42080, Note_off_c, 1, 76, 0
2, 42080, Note_off_c, 1, 80, 0
2, 42080, Note_off_c, 1, 83, 0
2, 42120, Note_on_c, 1, 41, 127
2, 42120, Note_on_c, 1, 82, 127
2, 42120, Note_on_c, 1, 91, 127
2, 42120, Note_on_c, 1, 94, 127
2, 42160, Note_on_c, 1, 36, 127
2, 42160, Note_off_c, 1, 41, 0
2, 42160, Note_on_c, 1, 48, 127
2, 42160, Note_on_c, 1, 51, 127
2, 42160, Note_on_c, 1, 54, 127
2, 42160, Note_on_c, 1, 57, 127
2, 42160, Note_off_c, 1, 82, 0
2, 42160, Note_off_c, 1, 91, 0
2, 42160, Note_off_c, 1, 94, 0
2, 42200, Note_off_c, 1, 36, 0
2, 42200, Note_off_c, 1, 48, 0
2, 42200, Note_off_c, 1, 51, 0
2, 42200, Note_off_c, 1, 54, 0
2, 42200, Note_on_c, 1, 56, 127
2, 42200, Note_off_c, 1, 57, 0
2, 42200, Note_on_c, 1, 66, 127
2, 42200, Note_on_c, 1, 71, 127
2, 42200, Note_on_c, 1, 81, 127
2, 42240, Note_on_c, 1, 53, 127
2, 42240, Note_off_c, 1, 56, 0
2, 42240, Note_on_c, 1, 58, 127
2, 42240, Note_on_c, 1, 63, 127
2, 42240, Note_off_c, 1, 66, 0
2, 42240, Note_on_c, 1, 67, 127
2, 42240, Note_off_c, 1, 71, 0
2, 42240, Note_off_c, 1, 81, 0
2, 42280, Note_on_c, 1, 34, 127
2, 42280, Note_on_c, 1, 46, 127
2, 42280, Note_off_c, 1, 53, 0
2, 42280, Note_on_c, 1, 56, 127
2, 42280, Note_off_c, 1, 58, 0
2, 42280, Note_off_c, 1, 63, 0
2, 42280, Note_off_c, 1, 67, 0
2, 42280, Note_on_c, 1, 75, 127
2, 42680, Note_off_c, 1, 34, 0
2, 42680, Note_off_c, 1, 46, 0
2, 42680, Note_off_c, 1, 56, 0
2, 42680, Note_off_c, 1, 75, 0
2, 42720, Note_on_c, 1, 43, 127
2, 42720, Note_on_c, 1, 51, 127
2, 42720, Note_on_c, 1, 55, 127
2, 42720, Note_on_c, 1, 75, 127
2, 42720, Note_on_c, 1, 82, 127
2, 42720, Note_on_c, 1, 87, 127
2, 42760, Note_off_c, 1, 43, 0
2, 42760, Note_off_c, 1, 51, 0
2, 42760, Note_off_c, 1, 55, 0
2, 42760, Note_on_c, 1, 62, 127
2, 42760, Note_on_c, 1, 67, 127
2, 42760, Note_on_c, 1, 69, 127
2, 42760, Note_on_c, 1, 72, 127
2, 42760, Note_off_c, 1, 75, 0
2, 42760, Note_off_c, 1, 87, 0
2, 42800, Note_on_c, 1, 37, 127
2, 42800, Note_on_c, 1, 44, 127
2, 42800, Note_on_c, 1, 58, 127
2, 42800, Note_off_c, 1, 62, 0
2, 42800, Note_on_c, 1, 66, 127
2, 42800, Note_off_c, 1, 67, 0
2, 42800, Note_off_c, 1, 69, 0
2, 42800, Note_off_c, 1, 72, 0
2, 42800, Note_off_c, 1, 82, 0
2, 42840, Note_off_c, 1, 37, 0
2, 42840, Note_on_c, 1, 39, 127
2, 42840, Note_off_c, 1, 44, 0
2, 42840, Note_on_c, 1, 50, 127
2, 42840, Note_off_c, 1, 58, 0
2, 42840, Note_on_c, 1, 59, 127
2, 42840, Note_off_c, 1, 66, 0
2, 42840, Note_on_c, 1, 71, 127
2, 42880, Note_off_c, 1, 39, 0
2, 42880, Note_off_c, 1, 50, 0
2, 42880, Note_on_c, 1, 67, 127
2, 42880, Note_on_c, 1, 70, 127
2, 42880, Note_off_c, 1, 71, 0
2, 42880, Note_on_c, 1, 76, 127
2, 42880, Note_on_c, 1, 85, 127
2, 42920, Note_on_c, 1, 37, 127
2, 42920, Note_on_c, 1, 44, 127
2, 42920, Note_on_c, 1, 54, 127
2, 42920, Note_off_c, 1, 59, 0
2, 42920, Note_on_c, 1, 63, 127
2, 42920, Note_off_c, 1, 67, 0
2, 42920, Note_off_c, 1, 70, 0
2, 42920, Note_off_c, 1, 76, 0
2, 42920, Note_off_c, 1, 85, 0
2, 43480, Note_off_c, 1, 37, 0
2, 43480, Note_off_c, 1, 44, 0
2, 43480, Note_off_c, 1, 54, 0
2, 43480, Note_off_c, 1, 63, 0
2, 43520, Note_on_c, 1, 71, 127
2, 43520, Note_on_c, 1, 73, 127
2, 43520, Note_on_c, 1, 76, 127
2, 43520, Note_on_c, 1, 88, 127
2, 43560, Note_on_c, 1, 40, 127
2, 43560, Note_on_c, 1, 45, 127
2, 43560, Note_on_c, 1, 52, 127
2, 43560, Note_on_c, 1, 69, 127
2, 43560, Note_off_c, 1, 71, 0
2, 43560, Note_off_c, 1, 73, 0
2, 43560, Note_on_c, 1, 81, 127
2, 43560, Note_off_c, 1, 88, 0
2, 43920, Note_off_c, 1, 81, 0
2, 43960, Note_off_c, 1, 40, 0
2, 43960, Note_off_c, 1, 45, 0
2, 43960, Note_off_c, 1, 52, 0
2, 43960, Note_off_c, 1, 69, 0
2, 43960, Note_off_c, 1, 76, 0
2, 44000, Note_on_c, 1, 40, 127
2, 44000, Note_on_c, 1, 45, 127
2, 44000, Note_on_c, 1, 52, 127
2, 44000, Note_on_c, 1, 69, 127
2, 44000, Note_on_c, 1, 76, 127
2, 44360, Note_off_c, 1, 40, 0
2, 44360, Note_off_c, 1, 45, 0
2, 44360, Note_off_c, 1, 52, 0
2, 44360, Note_off_c, 1, 69, 0
2, 44360, Note_off_c, 1, 76, 0
2, 44400, Note_on_c, 1, 57, 127
2, 44400, Note_on_c, 1, 66, 127
2, 44400, Note_on_c, 1, 81, 127
2, 44400, Note_on_c, 1, 84, 127
2, 44440, Note_on_c, 1, 50, 127
2, 44440, Note_off_c, 1, 81, 0
2, 44440, Note_on_c, 1, 83, 127
2, 44440, Note_off_c, 1, 84, 0
2, 44760, Note_off_c, 1, 50, 0
2, 44760, Note_off_c, 1, 57, 0
2, 44760, Note_off_c, 1, 66, 0
2, 44760, Note_on_c, 1, 81, 127
2, 44760, Note_off_c, 1, 83, 0
2, 44800, Note_on_c, 1, 57, 127
2, 44800, Note_on_c, 1, 64, 127
2, 44800, Note_on_c, 1, 76, 127
2, 45160, Note_off_c, 1, 64, 0
2, 45160, Note_off_c, 1, 76, 0
2, 45200, Note_on_c, 1, 64, 127
2, 45200, Note_on_c, 1, 76, 127
2, 45560, Note_off_c, 1, 64, 0
2, 45560, Note_off_c, 1, 76, 0
2, 45600, Note_on_c, 1, 64, 127
2, 45600, Note_on_c, 1, 76, 127
2, 46000, Note_off_c, 1, 64, 0
2, 46000, Note_off_c, 1, 76, 0
2, 46040, Note_off_c, 1, 57, 0
2, 46040, Note_off_c, 1, 81, 0
2, 46080, Note_on_c, 1, 57, 127
2, 46080, Note_on_c, 1, 64, 127
2, 46080, Note_on_c, 1, 76, 127
2, 46080, Note_on_c, 1, 81, 127
2, 46440, Note_off_c, 1, 76, 0
2, 46440, Note_on_c, 1, 79, 127
2, 46440, Note_off_c, 1, 81, 0
2, 46480, Note_on_c, 1, 76, 127
2, 46480, Note_off_c, 1, 79, 0
2, 46480, Note_on_c, 1, 81, 127
2, 46840, Note_off_c, 1, 64, 0
2, 46840, Note_off_c, 1, 76, 0
2, 46840, Note_off_c, 1, 81, 0
2, 46880, Note_on_c, 1, 64, 127
2, 46880, Note_on_c, 1, 76, 127
2, 46880, Note_on_c, 1, 81, 127
2, 47240, Note_off_c, 1, 64, 0
2, 47240, Note_off_c, 1, 76, 0
2, 47280, Note_on_c, 1, 64, 127
2, 47280, Note_on_c, 1, 76, 127
2, 47640, Note_off_c, 1, 64, 0
2, 47640, Note_off_c, 1, 76, 0
2, 47640, Note_off_c, 1, 81, 0
2, 47680, Note_on_c, 1, 47, 127
2, 47680, Note_on_c, 1, 62, 127
2, 47680, Note_on_c, 1, 68, 127
2, 47680, Note_on_c, 1, 71, 127
2, 47840, Note_on_c, 1, 45, 127
2, 47840, Note_off_c, 1, 47, 0
2, 47840, Note_on_c, 1, 60, 127
2, 47840, Note_off_c, 1, 62, 0
2, 47840, Note_off_c, 1, 68, 0
2, 47840, Note_on_c, 1, 69, 127
2, 47840, Note_off_c, 1, 71, 0
2, 47840, Note_on_c, 1, 72, 127
2, 48320, Note_off_c, 1, 45, 0
2, 48320, Note_off_c, 1, 57, 0
2, 48320, Note_off_c, 1, 60, 0
2, 48320, Note_off_c, 1, 69, 0
2, 48320, Note_off_c, 1, 72, 0
2, 48360, Note_on_c, 1, 45, 127
2, 48360, Note_on_c, 1, 57, 127
2, 48360, Note_on_c, 1, 60, 127
2, 48360, Note_on_c, 1, 69, 127
2, 48360, Note_on_c, 1, 72, 127
2, 48520, Note_off_c, 1, 45, 0
2, 48520, Note_off_c, 1, 57, 0
2, 48520, Note_off_c, 1, 60, 0
2, 48520, Note_off_c, 1, 69, 0
2, 48520, Note_off_c, 1, 72, 0
2, 48560, Note_on_c, 1, 47, 127
2, 48560, Note_on_c, 1, 59, 127
2, 48560, Note_on_c, 1, 73, 127
2, 48560, Note_on_c, 1, 80, 127
2, 49320, Note_off_c, 1, 47, 0
2, 49320, Note_off_c, 1, 59, 0
2, 49320, Note_off_c, 1, 73, 0
2, 49320, Note_off_c, 1, 80, 0
2, 49360, Note_on_c, 1, 46, 127
2, 49360, Note_on_c, 1, 89, 127
2, 49360, Note_on_c, 1, 94, 127
2, 49400, Note_off_c, 1, 46, 0
2, 49400, Note_on_c, 1, 65, 127
2, 49400, Note_on_c, 1, 69, 127
2, 49400, Note_on_c, 1, 75, 127
2, 49400, Note_on_c, 1, 84, 127
2, 49400, Note_off_c, 1, 89, 0
2, 49400, Note_off_c, 1, 94, 0
2, 49440, Note_on_c, 1, 36, 127
2, 49440, Note_on_c, 1, 53, 127
2, 49440, Note_on_c, 1, 60, 127
2, 49440, Note_off_c, 1, 65, 0
2, 49440, Note_off_c, 1, 75, 0
2, 49440, Note_off_c, 1, 84, 0
2, 49480, Note_off_c, 1, 36, 0
2, 49480, Note_off_c, 1, 53, 0
2, 49480, Note_off_c, 1, 60, 0
2, 49480, Note_on_c, 1, 65, 127
2, 49480, Note_on_c, 1, 75, 127
2, 49480, Note_on_c, 1, 84, 127
2, 49720, Note_on_c, 1, 49, 127
2, 49720, Note_on_c, 1, 54, 127
2, 49720, Note_on_c, 1, 64, 127
2, 49720, Note_off_c, 1, 65, 0
2, 49720, Note_on_c, 1, 66, 127
2, 49720, Note_off_c, 1, 69, 0
2, 49720, Note_on_c, 1, 70, 127
2, 49720, Note_off_c, 1, 75, 0
2, 49720, Note_off_c, 1, 84, 0
2, 49760, Note_off_c, 1, 49, 0
2, 49760, Note_off_c, 1, 54, 0
2, 49760, Note_off_c, 1, 64, 0
2, 49760, Note_on_c, 1, 65, 127
2, 49760, Note_off_c, 1, 66, 0
2, 49760, Note_on_c, 1, 69, 127
2, 49760, Note_off_c, 1, 70, 0
2, 49760, Note_on_c, 1, 75, 127
2, 49760, Note_on_c, 1, 84, 127
2, 50120, Note_off_c, 1, 65, 0
2, 50120, Note_off_c, 1, 69, 0
2, 50120, Note_off_c, 1, 75, 0
2, 50120, Note_off_c, 1, 84, 0
2, 50160, Note_on_c, 1, 54, 127
2, 50160, Note_on_c, 1, 90, 127
2, 50160, Note_on_c, 1, 102, 127
2, 50360, Note_off_c, 1, 54, 0
2, 50360, Note_off_c, 1, 90, 0
2, 50360, Note_off_c, 1, 102, 0
2, 50400, Note_on_c, 1, 54, 127
2, 50400, Note_on_c, 1, 90, 127
2, 50400, Note_on_c, 1, 102, 127
2, 50560, Note_on_c, 1, 59, 127
2, 50560, Note_on_c, 1, 63, 127
2, 50560, Note_on_c, 1, 83, 127
2, 50560, Note_on_c, 1, 87, 127
2, 50560, Note_off_c, 1, 102, 0
2, 50920, Note_off_c, 1, 54, 0
2, 50920, Note_off_c, 1, 59, 0
2, 50920, Note_off_c, 1, 63, 0
2, 50920, Note_off_c, 1, 87, 0
2, 50920, Note_off_c, 1, 90, 0
2, 50960, Note_off_c, 1, 83, 0
2, 51000, Note_on_c, 1, 33, 127
2, 51000, Note_on_c, 1, 45, 127
2, 51000, Note_on_c, 1, 66, 127
2, 51000, Note_on_c, 1, 72, 127
2, 51000, Note_on_c, 1, 76, 127
2, 51760, Note_off_c, 1, 33, 0
2, 51760, Note_off_c, 1, 45, 0
2, 51760, Note_off_c, 1, 66, 0
2, 51760, Note_off_c, 1, 72, 0
2, 51760, Note_off_c, 1, 76, 0
2, 51800, Note_on_c, 1, 65, 127
2, 51800, Note_on_c, 1, 72, 127
2, 51800, Note_on_c, 1, 75, 127
2, 51800, Note_on_c, 1, 82, 127
2, 52480, Note_off_c, 1, 65, 0
2, 52480, Note_off_c, 1, 72, 0
2, 52480, Note_off_c, 1, 75, 0
2, 52480, Note_off_c, 1, 82, 0
2, 52520, Note_on_c, 1, 65, 127
2, 52520, Note_on_c, 1, 72, 127
2, 52520, Note_on_c, 1, 75, 127
2, 52520, Note_on_c, 1, 82, 127
2, 52600, Note_off_c, 1, 65, 0
2, 52600, Note_off_c, 1, 72, 0
2, 52600, Note_off_c, 1, 75, 0
2, 52600, Note_off_c, 1, 82, 0
2, 52640, Note_on_c, 1, 48, 127
2, 52640, Note_on_c, 1, 50, 127
2, 52640, Note_on_c, 1, 53, 127
2, 52640, Note_on_c, 1, 55, 127
2, 52640, Note_on_c, 1, 77, 127
2, 52680, Note_off_c, 1, 48, 0
2, 52680, Note_off_c, 1, 50, 0
2, 52680, Note_off_c, 1, 53, 0
2, 52680, Note_off_c, 1, 55, 0
2, 52680, Note_on_c, 1, 58, 127
2, 52680, Note_on_c, 1, 66, 127
2, 52680, Note_on_c, 1, 70, 127
2, 52680, Note_on_c, 1, 75, 127
2, 52680, Note_off_c, 1, 77, 0
2, 52680, Note_on_c, 1, 78, 127
2, 52680, Note_on_c, 1, 82, 127
2, 52720, Note_on_c, 1, 51, 127
2, 52720, Note_on_c, 1, 53, 127
2, 52720, Note_on_c, 1, 57, 127
2, 52720, Note_off_c, 1, 58, 0
2, 52720, Note_on_c, 1, 60, 127
2, 52720, Note_on_c, 1, 65, 127
2, 52720, Note_off_c, 1, 66, 0
2, 52720, Note_on_c, 1, 69, 127
2, 52720, Note_off_c, 1, 70, 0
2, 52720, Note_off_c, 1, 75, 0
2, 52720, Note_off_c, 1, 78, 0
2, 52720, Note_off_c, 1, 82, 0
2, 52760, Note_on_c, 1, 46, 127
2, 52760, Note_off_c, 1, 51, 0
2, 52760, Note_on_c, 1, 56, 127
2, 52760, Note_off_c, 1, 57, 0
2, 52760, Note_on_c, 1, 58, 127
2, 52760, Note_off_c, 1, 60, 0
2, 52760, Note_off_c, 1, 65, 0
2, 52760, Note_off_c, 1, 69, 0
2, 52760, Note_on_c, 1, 82, 127
2, 52800, Note_off_c, 1, 46, 0
2, 52800, Note_on_c, 1, 50, 127
2, 52800, Note_off_c, 1, 53, 0
2, 52800, Note_off_c, 1, 56, 0
2, 52800, Note_off_c, 1, 58, 0
2, 52800, Note_on_c, 1, 65, 127
2, 52800, Note_on_c, 1, 70, 127
2, 52800, Note_on_c, 1, 72, 127
2, 52800, Note_off_c, 1, 82, 0
2, 52840, Note_off_c, 1, 50, 0
2, 52840, Note_on_c, 1, 51, 127
2, 52840, Note_on_c, 1, 55, 127
2, 52840, Note_on_c, 1, 61, 127
2, 52840, Note_off_c, 1, 65, 0
2, 52840, Note_off_c, 1, 70, 0
2, 52840, Note_off_c, 1, 72, 0
2, 52840, Note_on_c, 1, 73, 127
2, 52840, Note_on_c, 1, 79, 127
2, 52880, Note_on_c, 1, 49, 127
2, 52880, Note_on_c, 1, 54, 127
2, 52880, Note_off_c, 1, 55, 0
2, 52880, Note_on_c, 1, 56, 127
2, 52880, Note_off_c, 1, 61, 0
2, 52880, Note_off_c, 1, 73, 0
2, 52880, Note_off_c, 1, 79, 0
2, 52880, Note_on_c, 1, 80, 127
2, 52920, Note_off_c, 1, 49, 0
2, 52920, Note_off_c, 1, 51, 0
2, 52920, Note_on_c, 1, 53, 127
2, 52920, Note_off_c, 1, 54, 0
2, 52920, Note_on_c, 1, 65, 127
2, 52920, Note_on_c, 1, 68, 127
2, 52920, Note_on_c, 1, 71, 127
2, 52920, Note_off_c, 1, 80, 0
2, 52960, Note_on_c, 1, 51, 127
2, 52960, Note_off_c, 1, 53, 0
2, 52960, Note_off_c, 1, 56, 0
2, 52960, Note_on_c, 1, 58, 127
2, 52960, Note_off_c, 1, 65, 0
2, 52960, Note_off_c, 1, 68, 0
2, 52960, Note_off_c, 1, 71, 0
2, 52960, Note_on_c, 1, 86, 127
2, 53000, Note_on_c, 1, 50, 127
2, 53000, Note_off_c, 1, 51, 0
2, 53000, Note_on_c, 1, 55, 127
2, 53000, Note_on_c, 1, 61, 127
2, 53000, Note_on_c, 1, 70, 127
2, 53000, Note_off_c, 1, 86, 0
2, 53040, Note_off_c, 1, 50, 0
2, 53040, Note_off_c, 1, 55, 0
2, 53040, Note_off_c, 1, 58, 0
2, 53040, Note_off_c, 1, 61, 0
2, 53040, Note_on_c, 1, 68, 127
2, 53040, Note_off_c, 1, 70, 0
2, 53040, Note_on_c, 1, 77, 127
2, 53040, Note_on_c, 1, 85, 127
2, 53040, Note_on_c, 1, 89, 127
2, 53040, Note_on_c, 1, 97, 127
2, 53400, Note_off_c, 1, 68, 0
2, 53400, Note_off_c, 1, 77, 0
2, 53400, Note_off_c, 1, 85, 0
2, 53400, Note_off_c, 1, 89, 0
2, 53400, Note_off_c, 1, 97, 0
2, 53440, Note_on_c, 1, 72, 127
2, 53800, Note_off_c, 1, 72, 0
2, 53840, Note_on_c, 1, 52, 127
2, 53840, Note_on_c, 1, 60, 127
2, 53840, Note_on_c, 1, 64, 127
2, 53840, Note_on_c, 1, 71, 127
2, 54240, Note_on_c, 1, 69, 127
2, 54240, Note_off_c, 1, 71, 0
2, 54480, Note_off_c, 1, 52, 0
2, 54480, Note_off_c, 1, 60, 0
2, 54480, Note_off_c, 1, 64, 0
2, 54480, Note_off_c, 1, 69, 0
2, 54520, Note_on_c, 1, 52, 127
2, 54520, Note_on_c, 1, 60, 127
2, 54520, Note_on_c, 1, 64, 127
2, 54520, Note_on_c, 1, 69, 127
2, 54880, Note_off_c, 1, 60, 0
2, 54880, Note_off_c, 1, 64, 0
2, 54920, Note_on_c, 1, 60, 127
2, 54920, Note_on_c, 1, 64, 127
2, 55280, Note_off_c, 1, 60, 0
2, 55280, Note_off_c, 1, 64, 0
2, 55280, Note_off_c, 1, 69, 0
2, 55320, Note_on_c, 1, 60, 127
2, 55320, Note_on_c, 1, 64, 127
2, 55320, Note_on_c, 1, 69, 127
2, 56120, Note_off_c, 1, 52, 0
2, 56120, Note_off_c, 1, 60, 0
2, 56120, Note_off_c, 1, 64, 0
2, 56120, Note_off_c, 1, 69, 0
2, 56160, Note_on_c, 1, 52, 127
2, 56160, Note_on_c, 1, 63, 127
2, 56160, Note_on_c, 1, 66, 127
2, 56160, Note_on_c, 1, 72, 127
2, 56680, Note_off_c, 1, 52, 0
2, 56680, Note_off_c, 1, 63, 0
2, 56680, Note_off_c, 1, 66, 0
2, 56680, Note_off_c, 1, 72, 0
2, 56720, Note_on_c, 1, 52, 127
2, 56720, Note_on_c, 1, 63, 127
2, 56720, Note_on_c, 1, 66, 127
2, 56720, Note_on_c, 1, 72, 127
2, 57400, Note_off_c, 1, 52, 0
2, 57400, Note_off_c, 1, 63, 0
2, 57400, Note_off_c, 1, 66, 0
2, 57400, Note_off_c, 1, 72, 0
2, 57440, Note_on_c, 1, 52, 127
2, 57440, Note_on_c, 1, 56, 127
2, 57440, Note_on_c, 1, 64, 127
2, 57440, Note_on_c, 1, 71, 127
2, 58200, Note_off_c, 1, 71, 0
2, 58200, Note_on_c, 1, 73, 127
2, 58240, Note_on_c, 1, 71, 127
2, 58240, Note_off_c, 1, 73, 0
2, 58440, Note_off_c, 1, 64, 0
2, 58480, Note_off_c, 1, 52, 0
2, 58480, Note_off_c, 1, 56, 0
2, 58480, Note_off_c, 1, 71, 0
2, 58520, Note_on_c, 1, 52, 127
2, 58520, Note_on_c, 1, 56, 127
2, 58520, Note_on_c, 1, 64, 127
2, 58520, Note_on_c, 1, 71, 127
2, 59080, Note_off_c, 1, 52, 0
2, 59080, Note_off_c, 1, 56, 0
2, 59080, Note_off_c, 1, 64, 0
2, 59080, Note_off_c, 1, 71, 0
2, 59120, Note_on_c, 1, 34, 127
2, 59120, Note_on_c, 1, 46, 127
2, 59120, Note_on_c, 1, 58, 127
2, 59120, Note_on_c, 1, 61, 127
2, 59120, Note_on_c, 1, 67, 127
2, 60680, Note_on_c, 1, 33, 127
2, 60680, Note_off_c, 1, 34, 0
2, 60680, Note_off_c, 1, 46, 0
2, 60680, Note_on_c, 1, 49, 127
2, 60680, Note_off_c, 1, 58, 0
2, 60680, Note_off_c, 1, 61, 0
2, 60680, Note_off_c, 1, 67, 0
2, 60720, Note_off_c, 1, 33, 0
2, 60720, Note_off_c, 1, 49, 0
2, 60760, Note_on_c, 1, 33, 127
2, 60760, Note_on_c, 1, 49, 127
2, 62760, Note_off_c, 1, 33, 0
2, 62760, Note_off_c, 1, 49, 0
2, 62800, Note_on_c, 1, 33, 127
2, 62800, Note_on_c, 1, 49, 127
2, 65120, Note_off_c, 1, 33, 0
2, 65120, Note_off_c, 1, 49, 0
2, 65160, Note_on_c, 1, 33, 127
2, 65160, Note_on_c, 1, 49, 127
2, 65920, Note_off_c, 1, 33, 0
2, 65920, Note_off_c, 1, 49, 0
2, 65960, Note_on_c, 1, 50, 127
2, 65960, Note_on_c, 1, 53, 127
2, 65960, Note_on_c, 1, 56, 127
2, 65960, Note_on_c, 1, 59, 127
2, 67360, Note_off_c, 1, 50, 0
2, 67360, Note_off_c, 1, 53, 0
2, 67360, Note_off_c, 1, 56, 0
2, 67360, Note_off_c, 1, 59, 0
2, 67400, Note_on_c, 1, 50, 127
2, 67400, Note_on_c, 1, 53, 127
2, 67400, Note_on_c, 1, 56, 127
2, 67400, Note_on_c, 1, 59, 127
2, 69760, Note_off_c, 1, 50, 0
2, 69760, Note_off_c, 1, 53, 0
2, 69760, Note_off_c, 1, 56, 0
2, 69760, Note_off_c, 1, 59, 0
2, 69800, Note_on_c, 1, 50, 127
2, 69800, Note_on_c, 1, 53, 127
2, 69800, Note_on_c, 1, 56, 127
2, 69800, Note_on_c, 1, 59, 127
2, 70200, Note_off_c, 1, 50, 0
2, 70200, Note_off_c, 1, 53, 0
2, 70200, Note_off_c, 1, 56, 0
2, 70200, Note_off_c, 1, 59, 0
2, 70240, Note_on_c, 1, 64, 127
2, 70240, Note_on_c, 1, 67, 127
2, 70240, Note_on_c, 1, 70, 127
2, 70240, Note_on_c, 1, 73, 127
2, 71600, Note_off_c, 1, 64, 0
2, 71600, Note_off_c, 1, 67, 0
2, 71600, Note_off_c, 1, 70, 0
2, 71600, Note_off_c, 1, 73, 0
2, 71640, Note_on_c, 1, 69, 127
2, 71640, Note_on_c, 1, 71, 127
2, 71640, Note_on_c, 1, 74, 127
2, 71640, Note_on_c, 1, 77, 127
2, 72160, Note_off_c, 1, 69, 0
2, 72160, Note_off_c, 1, 71, 0
2, 72160, Note_off_c, 1, 74, 0
2, 72160, Note_off_c, 1, 77, 0
2, 72200, Note_on_c, 1, 69, 127
2, 72200, Note_on_c, 1, 71, 127
2, 72200, Note_on_c, 1, 74, 127
2, 72200, Note_on_c, 1, 77, 127
2, 72240, Note_off_c, 1, 69, 0
2, 72240, Note_off_c, 1, 71, 0
2, 72240, Note_off_c, 1, 74, 0
2, 72240, Note_off_c, 1, 77, 0
2, 72280, Note_on_c, 1, 67, 127
2, 72280, Note_on_c, 1, 72, 127
2, 72280, Note_on_c, 1, 75, 127
2, 72280, Note_on_c, 1, 79, 127
2, 72280, Note_on_c, 1, 91, 127
2, 72320, Note_on_c, 1, 33, 127
2, 72320, Note_on_c, 1, 45, 127
2, 72320, Note_off_c, 1, 67, 0
2, 72320, Note_off_c, 1, 72, 0
2, 72320, Note_on_c, 1, 74, 127
2, 72320, Note_off_c, 1, 75, 0
2, 72320, Note_on_c, 1, 77, 127
2, 72320, Note_off_c, 1, 79, 0
2, 72320, Note_on_c, 1, 82, 127
2, 72320, Note_off_c, 1, 91, 0
2, 72840, Note_off_c, 1, 33, 0
2, 72840, Note_off_c, 1, 45, 0
2, 72880, Note_on_c, 1, 47, 127
2, 72880, Note_on_c, 1, 59, 127
2, 72880, Note_on_c, 1, 62, 127
2, 72880, Note_on_c, 1, 69, 127
2, 72880, Note_off_c, 1, 74, 0
2, 72880, Note_off_c, 1, 77, 0
2, 72880, Note_off_c, 1, 82, 0
2, 73640, Note_off_c, 1, 47, 0
2, 73640, Note_off_c, 1, 59, 0
2, 73640, Note_off_c, 1, 62, 0
2, 73640, Note_off_c, 1, 69, 0
2, 73680, Note_on_c, 1, 47, 127
2, 73680, Note_on_c, 1, 54, 127
2, 73680, Note_on_c, 1, 61, 127
2, 73680, Note_on_c, 1, 66, 127
2, 73680, Note_on_c, 1, 70, 127
2, 73680, Note_on_c, 1, 73, 127
2, 74240, Note_off_c, 1, 47, 0
2, 74240, Note_off_c, 1, 54, 0
2, 74240, Note_off_c, 1, 61, 0
2, 74240, Note_off_c, 1, 66, 0
2, 74240, Note_off_c, 1, 70, 0
2, 74240, Note_off_c, 1, 73, 0
2, 74320, Note_on_c, 1, 44, 127
2, 74320, Note_on_c, 1, 90, 127
2, 74320, Note_on_c, 1, 93, 127
2, 74360, Note_on_c, 1, 40, 127
2, 74360, Note_off_c, 1, 44, 0
2, 74360, Note_on_c, 1, 47, 127
2, 74360, Note_on_c, 1, 61, 127
2, 74360, Note_on_c, 1, 64, 127
2, 74360, Note_on_c, 1, 71, 127
2, 74360, Note_off_c, 1, 90, 0
2, 74360, Note_off_c, 1, 93, 0
2, 74400, Note_off_c, 1, 40, 0
2, 74400, Note_off_c, 1, 47, 0
2, 74400, Note_on_c, 1, 54, 127
2, 74400, Note_off_c, 1, 61, 0
2, 74400, Note_off_c, 1, 64, 0
2, 74400, Note_on_c, 1, 68, 127
2, 74400, Note_on_c, 1, 80, 127
2, 74440, Note_on_c, 1, 35, 127
2, 74440, Note_on_c, 1, 47, 127
2, 74440, Note_off_c, 1, 54, 0
2, 74440, Note_off_c, 1, 71, 0
2, 74440, Note_on_c, 1, 74, 127
2, 74440, Note_off_c, 1, 80, 0
2, 74480, Note_off_c, 1, 35, 0
2, 74480, Note_on_c, 1, 40, 127
2, 74480, Note_on_c, 1, 61, 127
2, 74480, Note_on_c, 1, 64, 127
2, 74480, Note_off_c, 1, 68, 0
2, 74480, Note_on_c, 1, 71, 127
2, 74480, Note_off_c, 1, 74, 0
2, 75680, Note_off_c, 1, 40, 0
2, 75680, Note_off_c, 1, 47, 0
2, 75680, Note_off_c, 1, 61, 0
2, 75680, Note_off_c, 1, 64, 0
2, 75680, Note_off_c, 1, 71, 0
2, 75720, Note_on_c, 1, 40, 127
2, 75720, Note_on_c, 1, 52, 127
2, 75720, Note_on_c, 1, 61, 127
2, 75720, Note_on_c, 1, 64, 127
2, 75720, Note_on_c, 1, 73, 127
2, 76080, Note_off_c, 1, 40, 0
2, 76080, Note_off_c, 1, 52, 0
2, 76080, Note_off_c, 1, 61, 0
2, 76080, Note_off_c, 1, 64, 0
2, 76080, Note_off_c, 1, 73, 0
2, 76120, Note_on_c, 1, 58, 127
2, 76120, Note_on_c, 1, 64, 127
2, 76120, Note_on_c, 1, 72, 127
2, 76120, Note_on_c, 1, 81, 127
2, 76160, Note_on_c, 1, 41, 127
2, 76160, Note_on_c, 1, 48, 127
2, 76160, Note_on_c, 1, 52, 127
2, 76160, Note_off_c, 1, 64, 0
2, 76160, Note_on_c, 1, 67, 127
2, 76160, Note_off_c, 1, 72, 0
2, 76160, Note_off_c, 1, 81, 0
2, 76200, Note_off_c, 1, 41, 0
2, 76200, Note_off_c, 1, 48, 0
2, 76200, Note_off_c, 1, 52, 0
2, 76200, Note_on_c, 1, 56, 127
2, 76200, Note_on_c, 1, 61, 127
2, 76200, Note_on_c, 1, 64, 127
2, 76200, Note_off_c, 1, 67, 0
2, 76200, Note_on_c, 1, 68, 127
2, 76240, Note_off_c, 1, 56, 0
2, 76240, Note_on_c, 1, 57, 127
2, 76240, Note_off_c, 1, 58, 0
2, 76240, Note_off_c, 1, 61, 0
2, 76240, Note_off_c, 1, 64, 0
2, 76240, Note_off_c, 1, 68, 0
2, 76240, Note_on_c, 1, 77, 127
2, 76240, Note_on_c, 1, 84, 127
2, 76240, Note_on_c, 1, 87, 127
2, 76240, Note_on_c, 1, 89, 127
2, 76280, Note_off_c, 1, 57, 0
2, 76280, Note_off_c, 1, 77, 0
2, 76280, Note_off_c, 1, 84, 0
2, 76280, Note_off_c, 1, 87, 0
2, 76280, Note_off_c, 1, 89, 0
2, 76320, Note_on_c, 1, 41, 127
2, 76320, Note_on_c, 1, 48, 127
2, 76320, Note_on_c, 1, 52, 127
2, 76320, Note_on_c, 1, 58, 127
2, 76320, Note_on_c, 1, 67, 127
2, 78320, Note_off_c, 1, 41, 0
2, 78320, Note_off_c, 1, 48, 0
2, 78320, Note_off_c, 1, 52, 0
2, 78320, Note_off_c, 1, 58, 0
2, 78320, Note_off_c, 1, 67, 0
2, 78360, Note_on_c, 1, 41, 127
2, 78360, Note_on_c, 1, 48, 127
2, 78360, Note_on_c, 1, 52, 127
2, 78360, Note_on_c, 1, 58, 127
2, 78360, Note_on_c, 1, 67, 127
2, 79320, Note_off_c, 1, 41, 0
2, 79320, Note_off_c, 1, 48, 0
2, 79320, Note_off_c, 1, 52, 0
2, 79320, Note_off_c, 1, 58, 0
2, 79320, Note_off_c, 1, 67, 0
2, 79360, Note_on_c, 1, 51, 127
2, 79360, Note_on_c, 1, 63, 127
2, 79360, Note_on_c, 1, 69, 127
2, 79360, Note_on_c, 1, 71, 127
2, 79920, Note_off_c, 1, 51, 0
2, 79960, Note_on_c, 1, 51, 127
2, 80360, Note_off_c, 1, 51, 0
2, 80400, Note_off_c, 1, 63, 0
2, 80400, Note_off_c, 1, 69, 0
2, 80400, Note_off_c, 1, 71, 0
2, 80440, Note_on_c, 1, 51, 127
2, 80440, Note_on_c, 1, 63, 127
2, 80440, Note_on_c, 1, 69, 127
2, 80440, Note_on_c, 1, 71, 127
2, 80840, Note_off_c, 1, 51, 0
2, 80840, Note_on_c, 1, 52, 127
2, 80840, Note_on_c, 1, 57, 127
2, 80840, Note_on_c, 1, 62, 127
2, 80840, Note_off_c, 1, 63, 0
2, 80840, Note_on_c, 1, 66, 127
2, 80840, Note_off_c, 1, 69, 0
2, 80840, Note_off_c, 1, 71, 0
2, 81240, Note_off_c, 1, 52, 0
2, 81240, Note_off_c, 1, 57, 0
2, 81240, Note_off_c, 1, 62, 0
2, 81240, Note_off_c, 1, 66, 0
2, 81280, Note_on_c, 1, 56, 127
2, 81280, Note_on_c, 1, 59, 127
2, 81280, Note_on_c, 1, 64, 127
2, 81280, Note_on_c, 1, 82, 127
2, 82040, Note_off_c, 1, 56, 0
2, 82040, Note_off_c, 1, 59, 0
2, 82040, Note_off_c, 1, 64, 0
2, 82040, Note_off_c, 1, 82, 0
2, 82080, Note_on_c, 1, 56, 127
2, 82080, Note_on_c, 1, 59, 127
2, 82080, Note_on_c, 1, 64, 127
2, 82080, Note_on_c, 1, 82, 127
2, 82680, Note_off_c, 1, 56, 0
2, 82680, Note_off_c, 1, 59, 0
2, 82680, Note_off_c, 1, 64, 0
2, 82680, Note_off_c, 1, 82, 0
2, 82720, Note_on_c, 1, 56, 127
2, 82720, Note_on_c, 1, 59, 127
2, 82720, Note_on_c, 1, 64, 127
2, 82720, Note_on_c, 1, 82, 127
2, 83080, Note_off_c, 1, 56, 0
2, 83080, Note_off_c, 1, 59, 0
2, 83080, Note_off_c, 1, 64, 0
2, 83080, Note_off_c, 1, 82, 0
2, 83120, Note_on_c, 1, 56, 127
2, 83120, Note_on_c, 1, 59, 127
2, 83120, Note_on_c, 1, 64, 127
2, 83120, Note_on_c, 1, 82, 127
2, 83880, Note_off_c, 1, 56, 0
2, 83880, Note_off_c, 1, 59, 0
2, 83880, Note_off_c, 1, 64, 0
2, 83880, Note_off_c, 1, 82, 0
2, 83920, Note_on_c, 1, 56, 127
2, 83920, Note_on_c, 1, 59, 127
2, 83920, Note_on_c, 1, 64, 127
2, 83920, Note_on_c, 1, 82, 127
2, 84280, Note_off_c, 1, 56, 0
2, 84280, Note_off_c, 1, 59, 0
2, 84280, Note_off_c, 1, 64, 0
2, 84280, Note_off_c, 1, 82, 0
2, 84280, Note_on_c, 1, 90, 127
2, 84320, Note_on_c, 1, 56, 127
2, 84320, Note_on_c, 1, 59, 127
2, 84320, Note_on_c, 1, 64, 127
2, 84320, Note_on_c, 1, 82, 127
2, 84320, Note_off_c, 1, 90, 0
2, 84920, Note_off_c, 1, 56, 0
2, 84920, Note_off_c, 1, 59, 0
2, 84920, Note_off_c, 1, 64, 0
2, 84920, Note_off_c, 1, 82, 0
2, 84960, Note_on_c, 1, 56, 127
2, 84960, Note_on_c, 1, 59, 127
2, 84960, Note_on_c, 1, 64, 127
2, 84960, Note_on_c, 1, 82, 127
2, 85320, Note_off_c, 1, 56, 0
2, 85320, Note_off_c, 1, 59, 0
2, 85320, Note_off_c, 1, 64, 0
2, 85320, Note_off_c, 1, 82, 0
2, 85360, Note_on_c, 1, 54, 127
2, 85360, Note_on_c, 1, 61, 127
2, 85360, Note_on_c, 1, 64, 127
2, 85360, Note_on_c, 1, 66, 127
2, 85360, Note_on_c, 1, 70, 127
2, 85360, Note_on_c, 1, 73, 127
2, 85360, Note_on_c, 1, 76, 127
2, 85360, Note_on_c, 1, 82, 127
2, 85720, Note_on_c, 1, 52, 127
2, 85720, Note_off_c, 1, 54, 0
2, 85720, Note_off_c, 1, 61, 0
2, 85720, Note_on_c, 1, 63, 127
2, 85720, Note_off_c, 1, 64, 0
2, 85720, Note_on_c, 1, 69, 127
2, 85720, Note_off_c, 1, 70, 0
2, 85720, Note_off_c, 1, 73, 0
2, 85720, Note_off_c, 1, 76, 0
2, 85720, Note_off_c, 1, 82, 0
2, 85760, Note_off_c, 1, 52, 0
2, 85760, Note_on_c, 1, 54, 127
2, 85760, Note_on_c, 1, 61, 127
2, 85760, Note_off_c, 1, 63, 0
2, 85760, Note_on_c, 1, 64, 127
2, 85760, Note_off_c, 1, 69, 0
2, 85760, Note_on_c, 1, 70, 127
2, 85760, Note_on_c, 1, 73, 127
2, 85760, Note_on_c, 1, 76, 127
2, 85760, Note_on_c, 1, 82, 127
2, 85920, Note_off_c, 1, 54, 0
2, 85920, Note_off_c, 1, 61, 0
2, 85920, Note_off_c, 1, 64, 0
2, 85920, Note_off_c, 1, 66, 0
2, 85920, Note_off_c, 1, 70, 0
2, 85920, Note_off_c, 1, 73, 0
2, 85920, Note_off_c, 1, 76, 0
2, 85920, Note_off_c, 1, 82, 0
2, 85960, Note_on_c, 1, 57, 127
2, 85960, Note_on_c, 1, 64, 127
2, 85960, Note_on_c, 1, 66, 127
2, 85960, Note_on_c, 1, 69, 127
2, 85960, Note_on_c, 1, 72, 127
2, 85960, Note_on_c, 1, 76, 127
2, 85960, Note_on_c, 1, 78, 127
2, 86000, Note_off_c, 1, 57, 0
2, 86000, Note_off_c, 1, 64, 0
2, 86000, Note_off_c, 1, 69, 0
2, 86000, Note_off_c, 1, 72, 0
2, 86000, Note_on_c, 1, 73, 127
2, 86000, Note_on_c, 1, 75, 127
2, 86000, Note_off_c, 1, 76, 0
2, 86000, Note_off_c, 1, 78, 0
2, 86000, Note_on_c, 1, 80, 127
2, 86040, Note_on_c, 1, 45, 127
2, 86040, Note_off_c, 1, 66, 0
2, 86040, Note_on_c, 1, 69, 127
2, 86040, Note_off_c, 1, 75, 0
2, 86040, Note_on_c, 1, 76, 127
2, 86040, Note_off_c, 1, 80, 0
2, 86040, Note_on_c, 1, 81, 127
2, 86080, Note_off_c, 1, 45, 0
2, 86080, Note_on_c, 1, 61, 127
2, 86080, Note_off_c, 1, 69, 0
2, 86080, Note_on_c, 1, 71, 127
2, 86080, Note_off_c, 1, 76, 0
2, 86080, Note_off_c, 1, 81, 0
2, 86080, Note_on_c, 1, 85, 127
2, 86120, Note_on_c, 1, 57, 127
2, 86120, Note_off_c, 1, 61, 0
2, 86120, Note_on_c, 1, 63, 127
2, 86120, Note_on_c, 1, 65, 127
2, 86120, Note_off_c, 1, 71, 0
2, 86120, Note_off_c, 1, 73, 0
2, 86120, Note_off_c, 1, 85, 0
2, 86120, Note_on_c, 1, 86, 127
2, 86160, Note_on_c, 1, 47, 127
2, 86160, Note_on_c, 1, 51, 127
2, 86160, Note_on_c, 1, 56, 127
2, 86160, Note_off_c, 1, 57, 0
2, 86160, Note_off_c, 1, 63, 0
2, 86160, Note_off_c, 1, 65, 0
2, 86160, Note_on_c, 1, 83, 127
2, 86160, Note_off_c, 1, 86, 0
2, 86200, Note_off_c, 1, 47, 0
2, 86200, Note_off_c, 1, 51, 0
2, 86200, Note_off_c, 1, 56, 0
2, 86200, Note_on_c, 1, 71, 127
2, 86200, Note_on_c, 1, 74, 127
2, 86200, Note_on_c, 1, 76, 127
2, 86200, Note_off_c, 1, 83, 0
2, 86240, Note_on_c, 1, 56, 127
2, 86240, Note_on_c, 1, 59, 127
2, 86280, Note_on_c, 1, 52, 127
2, 86280, Note_off_c, 1, 56, 0
2, 86280, Note_off_c, 1, 59, 0
2, 86520, Note_off_c, 1, 52, 0
2, 86560, Note_on_c, 1, 52, 127
2, 86800, Note_off_c, 1, 52, 0
2, 86840, Note_on_c, 1, 52, 127
2, 86960, Note_off_c, 1, 52, 0
2, 87160, Note_off_c, 1, 71, 0
2, 87160, Note_off_c, 1, 74, 0
2, 87160, Note_off_c, 1, 76, 0
2, 87200, Note_on_c, 1, 64, 127
2, 87200, Note_on_c, 1, 68, 127
2, 87200, Note_on_c, 1, 71, 127
2, 87200, Note_on_c, 1, 74, 127
2, 87200, Note_on_c, 1, 76, 127
2, 87760, Note_off_c, 1, 64, 0
2, 87760, Note_off_c, 1, 68, 0
2, 87760, Note_off_c, 1, 71, 0
2, 87760, Note_off_c, 1, 74, 0
2, 87760, Note_off_c, 1, 76, 0
2, 87800, Note_on_c, 1, 56, 127
2, 87800, Note_on_c, 1, 59, 127
2, 87800, Note_on_c, 1, 62, 127
2, 87800, Note_on_c, 1, 64, 127
2, 87800, Note_on_c, 1, 71, 127
2, 87800, Note_on_c, 1, 74, 127
2, 87840, Note_off_c, 1, 56, 0
2, 87840, Note_on_c, 1, 57, 127
2, 87840, Note_off_c, 1, 59, 0
2, 87840, Note_on_c, 1, 60, 127
2, 87840, Note_off_c, 1, 62, 0
2, 87840, Note_off_c, 1, 71, 0
2, 87840, Note_off_c, 1, 74, 0
2, 87840, Note_on_c, 1, 80, 127
2, 87880, Note_on_c, 1, 45, 127
2, 87880, Note_on_c, 1, 52, 127
2, 87880, Note_off_c, 1, 57, 0
2, 87880, Note_on_c, 1, 59, 127
2, 87880, Note_off_c, 1, 60, 0
2, 87880, Note_off_c, 1, 64, 0
2, 87880, Note_off_c, 1, 80, 0
2, 87920, Note_on_c, 1, 43, 127
2, 87920, Note_off_c, 1, 45, 0
2, 87920, Note_on_c, 1, 50, 127
2, 87920, Note_off_c, 1, 52, 0
2, 87920, Note_off_c, 1, 59, 0
2, 87920, Note_on_c, 1, 74, 127
2, 87920, Note_on_c, 1, 78, 127
2, 87920, Note_on_c, 1, 86, 127
2, 87960, Note_off_c, 1, 43, 0
2, 87960, Note_on_c, 1, 45, 127
2, 87960, Note_off_c, 1, 50, 0
2, 87960, Note_on_c, 1, 52, 127
2, 87960, Note_on_c, 1, 59, 127
2, 87960, Note_off_c, 1, 74, 0
2, 87960, Note_off_c, 1, 78, 0
2, 87960, Note_off_c, 1, 86, 0
2, 88360, Note_off_c, 1, 45, 0
2, 88360, Note_off_c, 1, 52, 0
2, 88360, Note_off_c, 1, 59, 0
2, 88400, Note_on_c, 1, 47, 127
2, 88400, Note_on_c, 1, 59, 127
2, 88400, Note_on_c, 1, 63, 127
2, 88400, Note_on_c, 1, 66, 127
2, 88400, Note_on_c, 1, 69, 127
2, 89400, Note_off_c, 1, 59, 0
2, 89440, Note_off_c, 1, 47, 0
2, 89440, Note_off_c, 1, 63, 0
2, 89440, Note_off_c, 1, 66, 0
2, 89440, Note_off_c, 1, 69, 0
2, 89480, Note_on_c, 1, 47, 127
2, 89480, Note_on_c, 1, 59, 127
2, 89480, Note_on_c, 1, 63, 127
2, 89480, Note_on_c, 1, 66, 127
2, 89480, Note_on_c, 1, 69, 127
2, 89800, Note_off_c, 1, 47, 0
2, 89800, Note_off_c, 1, 59, 0
2, 89800, Note_off_c, 1, 63, 0
2, 89800, Note_off_c, 1, 66, 0
2, 89800, Note_off_c, 1, 69, 0
2, 89880, Note_on_c, 1, 38, 127
2, 89880, Note_on_c, 1, 59, 127
2, 89880, Note_on_c, 1, 65, 127
2, 89880, Note_on_c, 1, 68, 127
2, 91040, Note_off_c, 1, 38, 0
2, 91040, Note_off_c, 1, 59, 0
2, 91040, Note_off_c, 1, 65, 0
2, 91040, Note_off_c, 1, 68, 0
2, 91080, Note_on_c, 1, 62, 127
2, 91080, Note_on_c, 1, 67, 127
2, 91080, Note_on_c, 1, 70, 127
2, 91080, Note_on_c, 1, 91, 127
2, 91120, Note_on_c, 1, 57, 127
2, 91120, Note_on_c, 1, 60, 127
2, 91120, Note_off_c, 1, 62, 0
2, 91120, Note_on_c, 1, 63, 127
2, 91120, Note_on_c, 1, 66, 127
2, 91120, Note_off_c, 1, 67, 0
2, 91120, Note_off_c, 1, 70, 0
2, 91120, Note_on_c, 1, 75, 127
2, 91120, Note_off_c, 1, 91, 0
2, 91160, Note_on_c, 1, 43, 127
2, 91160, Note_on_c, 1, 47, 127
2, 91160, Note_off_c, 1, 57, 0
2, 91160, Note_off_c, 1, 60, 0
2, 91160, Note_on_c, 1, 61, 127
2, 91160, Note_off_c, 1, 63, 0
2, 91160, Note_off_c, 1, 66, 0
2, 91160, Note_off_c, 1, 75, 0
2, 91200, Note_off_c, 1, 47, 0
2, 91200, Note_on_c, 1, 48, 127
2, 91200, Note_on_c, 1, 58, 127
2, 91200, Note_on_c, 1, 60, 127
2, 91200, Note_off_c, 1, 61, 0
2, 91240, Note_off_c, 1, 43, 0
2, 91240, Note_off_c, 1, 48, 0
2, 91240, Note_on_c, 1, 54, 127
2, 91240, Note_off_c, 1, 58, 0
2, 91240, Note_off_c, 1, 60, 0
2, 91240, Note_on_c, 1, 78, 127
2, 91240, Note_on_c, 1, 83, 127
2, 91240, Note_on_c, 1, 90, 127
2, 91280, Note_on_c, 1, 41, 127
2, 91280, Note_on_c, 1, 48, 127
2, 91280, Note_off_c, 1, 54, 0
2, 91280, Note_on_c, 1, 57, 127
2, 91280, Note_on_c, 1, 63, 127
2, 91280, Note_on_c, 1, 67, 127
2, 91280, Note_off_c, 1, 78, 0
2, 91280, Note_off_c, 1, 83, 0
2, 91280, Note_off_c, 1, 90, 0
2, 91320, Note_off_c, 1, 41, 0
2, 91320, Note_off_c, 1, 48, 0
2, 91320, Note_off_c, 1, 57, 0
2, 91320, Note_on_c, 1, 60, 127
2, 91320, Note_off_c, 1, 63, 0
2, 91320, Note_on_c, 1, 70, 127
2, 91320, Note_on_c, 1, 73, 127
2, 91320, Note_on_c, 1, 77, 127
2, 91360, Note_on_c, 1, 56, 127
2, 91360, Note_off_c, 1, 60, 0
2, 91360, Note_on_c, 1, 63, 127
2, 91360, Note_off_c, 1, 67, 0
2, 91360, Note_off_c, 1, 70, 0
2, 91360, Note_off_c, 1, 73, 0
2, 91360, Note_off_c, 1, 77, 0
2, 91360, Note_on_c, 1, 85, 127
2, 91400, Note_on_c, 1, 51, 127
2, 91400, Note_off_c, 1, 56, 0
2, 91400, Note_off_c, 1, 63, 0
2, 91400, Note_on_c, 1, 73, 127
2, 91400, Note_on_c, 1, 83, 127
2, 91400, Note_off_c, 1, 85, 0
2, 91440, Note_off_c, 1, 51, 0
2, 91440, Note_off_c, 1, 73, 0
2, 91440, Note_off_c, 1, 83, 0
2, 91480, Note_on_c, 1, 49, 127
2, 91480, Note_on_c, 1, 57, 127
2, 91480, Note_on_c, 1, 61, 127
2, 91480, Note_on_c, 1, 63, 127
2, 91480, Note_on_c, 1, 66, 127
2, 91520, Note_on_c, 1, 44, 127
2, 91520, Note_on_c, 1, 47, 127
2, 91520, Note_off_c, 1, 49, 0
2, 91520, Note_on_c, 1, 52, 127
2, 91520, Note_off_c, 1, 57, 0
2, 91520, Note_off_c, 1, 61, 0
2, 91520, Note_off_c, 1, 63, 0
2, 91520, Note_on_c, 1, 64, 127
2, 91520, Note_off_c, 1, 66, 0
2, 91520, Note_on_c, 1, 76, 127
2, 91560, Note_off_c, 1, 44, 0
2, 91560, Note_off_c, 1, 47, 0
2, 91560, Note_on_c, 1, 51, 127
2, 91560, Note_off_c, 1, 52, 0
2, 91560, Note_off_c, 1, 64, 0
2, 91560, Note_on_c, 1, 65, 127
2, 91560, Note_on_c, 1, 69, 127
2, 91560, Note_on_c, 1, 73, 127
2, 91560, Note_off_c, 1, 76, 0
2, 91600, Note_off_c, 1, 51, 0
2, 91600, Note_on_c, 1, 54, 127
2, 91600, Note_on_c, 1, 63, 127
2, 91600, Note_off_c, 1, 65, 0
2, 91600, Note_on_c, 1, 66, 127
2, 91640, Note_on_c, 1, 52, 127
2, 91640, Note_off_c, 1, 54, 0
2, 91640, Note_on_c, 1, 59, 127
2, 91640, Note_off_c, 1, 66, 0
2, 91640, Note_off_c, 1, 69, 0
2, 91640, Note_on_c, 1, 71, 127
2, 91640, Note_off_c, 1, 73, 0
2, 91680, Note_on_c, 1, 45, 127
2, 91680, Note_on_c, 1, 49, 127
2, 91680, Note_on_c, 1, 54, 127
2, 91680, Note_off_c, 1, 59, 0
2, 91680, Note_off_c, 1, 63, 0
2, 91680, Note_off_c, 1, 71, 0
2, 91720, Note_off_c, 1, 45, 0
2, 91720, Note_off_c, 1, 49, 0
2, 91720, Note_on_c, 1, 51, 127
2, 91720, Note_off_c, 1, 52, 0
2, 91720, Note_off_c, 1, 54, 0
2, 91720, Note_on_c, 1, 69, 127
2, 91720, Note_on_c, 1, 72, 127
2, 91720, Note_on_c, 1, 75, 127
2, 91720, Note_on_c, 1, 77, 127
2, 91760, Note_on_c, 1, 42, 127
2, 91760, Note_off_c, 1, 51, 0
2, 91760, Note_on_c, 1, 53, 127
2, 91760, Note_on_c, 1, 58, 127
2, 91760, Note_off_c, 1, 69, 0
2, 91760, Note_off_c, 1, 72, 0
2, 91760, Note_off_c, 1, 75, 0
2, 91760, Note_off_c, 1, 77, 0
2, 91800, Note_off_c, 1, 42, 0
2, 91800, Note_off_c, 1, 53, 0
2, 91800, Note_on_c, 1, 70, 127
2, 91800, Note_on_c, 1, 84, 127
2, 91840, Note_off_c, 1, 58, 0
2, 91840, Note_on_c, 1, 63, 127
2, 91840, Note_on_c, 1, 67, 127
2, 91840, Note_off_c, 1, 70, 0
2, 91840, Note_off_c, 1, 84, 0
2, 91840, Note_on_c, 1, 87, 127
2, 91880, Note_on_c, 1, 58, 127
2, 91880, Note_off_c, 1, 63, 0
2, 91880, Note_on_c, 1, 73, 127
2, 91880, Note_on_c, 1, 75, 127
2, 91880, Note_on_c, 1, 79, 127
2, 91880, Note_off_c, 1, 87, 0
2, 91920, Note_off_c, 1, 58, 0
2, 91920, Note_off_c, 1, 67, 0
2, 91920, Note_off_c, 1, 73, 0
2, 91920, Note_off_c, 1, 75, 0
2, 91920, Note_off_c, 1, 79, 0
2, 91960, Note_on_c, 1, 62, 127
2, 91960, Note_on_c, 1, 68, 127
2, 91960, Note_on_c, 1, 71, 127
2, 91960, Note_on_c, 1, 76, 127
2, 91960, Note_on_c, 1, 80, 127
2, 92720, Note_on_c, 1, 47, 127
2, 92720, Note_on_c, 1, 54, 127
2, 92720, Note_off_c, 1, 62, 0
2, 92720, Note_off_c, 1, 68, 0
2, 92720, Note_off_c, 1, 71, 0
2, 92720, Note_off_c, 1, 76, 0
2, 92720, Note_off_c, 1, 80, 0
2, 92760, Note_off_c, 1, 47, 0
2, 92760, Note_off_c, 1, 54, 0
2, 92760, Note_on_c, 1, 62, 127
2, 92760, Note_on_c, 1, 68, 127
2, 92760, Note_on_c, 1, 71, 127
2, 92760, Note_on_c, 1, 76, 127
2, 92760, Note_on_c, 1, 80, 127
2, 93520, Note_on_c, 1, 40, 127
2, 93520, Note_on_c, 1, 48, 127
2, 93520, Note_off_c, 1, 62, 0
2, 93520, Note_off_c, 1, 68, 0
2, 93520, Note_on_c, 1, 70, 127
2, 93520, Note_off_c, 1, 71, 0
2, 93520, Note_off_c, 1, 76, 0
2, 93520, Note_off_c, 1, 80, 0
2, 93560, Note_off_c, 1, 40, 0
2, 93560, Note_off_c, 1, 48, 0
2, 93560, Note_off_c, 1, 70, 0
2, 93600, Note_on_c, 1, 62, 127
2, 93600, Note_on_c, 1, 68, 127
2, 93600, Note_on_c, 1, 71, 127
2, 93600, Note_on_c, 1, 76, 127
2, 93600, Note_on_c, 1, 80, 127
2, 94360, Note_off_c, 1, 62, 0
2, 94360, Note_off_c, 1, 68, 0
2, 94360, Note_off_c, 1, 71, 0
2, 94360, Note_off_c, 1, 76, 0
2, 94360, Note_off_c, 1, 80, 0
2, 94400, Note_on_c, 1, 57, 127
2, 94400, Note_on_c, 1, 64, 127
2, 94400, Note_on_c, 1, 69, 127
2, 94400, Note_on_c, 1, 72, 127
2, 94400, Note_on_c, 1, 78, 127
2, 94440, Note_on_c, 1, 53, 127
2, 94440, Note_off_c, 1, 57, 0
2, 94440, Note_on_c, 1, 60, 127
2, 94440, Note_off_c, 1, 64, 0
2, 94440, Note_off_c, 1, 72, 0
2, 94440, Note_on_c, 1, 75, 127
2, 94440, Note_on_c, 1, 77, 127
2, 94440, Note_off_c, 1, 78, 0
2, 95560, Note_off_c, 1, 53, 0
2, 95560, Note_off_c, 1, 60, 0
2, 95560, Note_off_c, 1, 69, 0
2, 95560, Note_off_c, 1, 75, 0
2, 95560, Note_off_c, 1, 77, 0
2, 95640, Note_on_c, 1, 41, 127
2, 95640, Note_on_c, 1, 48, 127
2, 95640, Note_on_c, 1, 60, 127
2, 95640, Note_on_c, 1, 65, 127
2, 95640, Note_on_c, 1, 68, 127
2, 95640, Note_on_c, 1, 72, 127
2, 96480, Note_off_c, 1, 60, 0
2, 96520, Note_on_c, 1, 60, 127
2, 96640, Note_off_c, 1, 60, 0
2, 96800, Note_off_c, 1, 41, 0
2, 96800, Note_off_c, 1, 48, 0
2, 96800, Note_off_c, 1, 65, 0
2, 96800, Note_off_c, 1, 68, 0
2, 96800, Note_off_c, 1, 72, 0
2, 96840, Note_on_c, 1, 55, 127
2, 96840, Note_on_c, 1, 79, 127
2, 96840, Note_on_c, 1, 91, 127
2, 97400, Note_off_c, 1, 55, 0
2, 97440, Note_on_c, 1, 59, 127
2, 97440, Note_on_c, 1, 64, 127
2, 97440, Note_on_c, 1, 74, 127
2, 97440, Note_off_c, 1, 79, 0
2, 97440, Note_on_c, 1, 86, 127
2, 97440, Note_off_c, 1, 91, 0
2, 97480, Note_on_c, 1, 41, 127
2, 97480, Note_on_c, 1, 48, 127
2, 97480, Note_on_c, 1, 58, 127
2, 97480, Note_off_c, 1, 59, 0
2, 97480, Note_on_c, 1, 60, 127
2, 97480, Note_on_c, 1, 63, 127
2, 97480, Note_off_c, 1, 64, 0
2, 97480, Note_on_c, 1, 67, 127
2, 97480, Note_off_c, 1, 74, 0
2, 97480, Note_off_c, 1, 86, 0
2, 97520, Note_off_c, 1, 41, 0
2, 97520, Note_off_c, 1, 48, 0
2, 97520, Note_off_c, 1, 58, 0
2, 97520, Note_off_c, 1, 60, 0
2, 97520, Note_off_c, 1, 63, 0
2, 97520, Note_off_c, 1, 67, 0
2, 97560, Note_on_c, 1, 54, 127
2, 97560, Note_on_c, 1, 78, 127
2, 97560, Note_on_c, 1, 90, 127
2, 97560, Note_on_c, 1, 93, 127
2, 97600, Note_on_c, 1, 44, 127
2, 97600, Note_off_c, 1, 54, 0
2, 97600, Note_on_c, 1, 56, 127
2, 97600, Note_on_c, 1, 68, 127
2, 97600, Note_on_c, 1, 72, 127
2, 97600, Note_on_c, 1, 77, 127
2, 97600, Note_off_c, 1, 78, 0
2, 97600, Note_off_c, 1, 90, 0
2, 97600, Note_off_c, 1, 93, 0
2, 97640, Note_off_c, 1, 44, 0
2, 97640, Note_off_c, 1, 56, 0
2, 97640, Note_on_c, 1, 59, 127
2, 97640, Note_on_c, 1, 66, 127
2, 97640, Note_on_c, 1, 71, 127
2, 97640, Note_off_c, 1, 72, 0
2, 97640, Note_off_c, 1, 77, 0
2, 97680, Note_on_c, 1, 40, 127
2, 97680, Note_on_c, 1, 52, 127
2, 97680, Note_off_c, 1, 59, 0
2, 97680, Note_off_c, 1, 66, 0
2, 97680, Note_off_c, 1, 68, 0
2, 97680, Note_off_c, 1, 71, 0
2, 97680, Note_on_c, 1, 76, 127
2, 97680, Note_on_c, 1, 80, 127
2, 97680, Note_on_c, 1, 83, 127
2, 97680, Note_on_c, 1, 88, 127
2, 97720, Note_off_c, 1, 40, 0
2, 97720, Note_on_c, 1, 50, 127
2, 97720, Note_off_c, 1, 52, 0
2, 97720, Note_off_c, 1, 76, 0
2, 97720, Note_off_c, 1, 80, 0
2, 97720, Note_off_c, 1, 83, 0
2, 97720, Note_on_c, 1, 84, 127
2, 97720, Note_off_c, 1, 88, 0
2, 97720, Note_on_c, 1, 90, 127
2, 97760, Note_on_c, 1, 39, 127
2, 97760, Note_on_c, 1, 45, 127
2, 97760, Note_off_c, 1, 50, 0
2, 97760, Note_on_c, 1, 58, 127
2, 97760, Note_on_c, 1, 63, 127
2, 97760, Note_on_c, 1, 70, 127
2, 97760, Note_off_c, 1, 84, 0
2, 97760, Note_off_c, 1, 90, 0
2, 97800, Note_off_c, 1, 39, 0
2, 97800, Note_off_c, 1, 45, 0
2, 97800, Note_off_c, 1, 58, 0
2, 97800, Note_off_c, 1, 63, 0
2, 97800, Note_on_c, 1, 74, 127
2, 97800, Note_on_c, 1, 80, 127
2, 97800, Note_on_c, 1, 82, 127
2, 97840, Note_on_c, 1, 38, 127
2, 97840, Note_on_c, 1, 54, 127
2, 97840, Note_on_c, 1, 66, 127
2, 97840, Note_off_c, 1, 74, 0
2, 97840, Note_off_c, 1, 80, 0
2, 97840, Note_off_c, 1, 82, 0
2, 97880, Note_off_c, 1, 38, 0
2, 97880, Note_off_c, 1, 54, 0
2, 97880, Note_off_c, 1, 66, 0
2, 97880, Note_on_c, 1, 69, 127
2, 97880, Note_off_c, 1, 70, 0
2, 97880, Note_on_c, 1, 72, 127
2, 97880, Note_on_c, 1, 77, 127
2, 97880, Note_on_c, 1, 81, 127
2, 97880, Note_on_c, 1, 84, 127
2, 97920, Note_off_c, 1, 69, 0
2, 97920, Note_off_c, 1, 77, 0
2, 97920, Note_off_c, 1, 81, 0
2, 97920, Note_on_c, 1, 82, 127
2, 97920, Note_off_c, 1, 84, 0
2, 97920, Note_on_c, 1, 94, 127
2, 98000, Note_on_c, 1, 33, 127
2, 98000, Note_on_c, 1, 52, 127
2, 98000, Note_on_c, 1, 62, 127
2, 98000, Note_on_c, 1, 64, 127
2, 98000, Note_on_c, 1, 68, 127
2, 98000, Note_off_c, 1, 72, 0
2, 98000, Note_on_c, 1, 74, 127
2, 98000, Note_off_c, 1, 82, 0
2, 98000, Note_off_c, 1, 94, 0
2, 98040, Note_off_c, 1, 33, 0
2, 98040, Note_off_c, 1, 52, 0
2, 98040, Note_off_c, 1, 62, 0
2, 98040, Note_off_c, 1, 64, 0
2, 98040, Note_off_c, 1, 68, 0
2, 98040, Note_off_c, 1, 74, 0
2, 98080, Note_on_c, 1, 53, 127
2, 98080, Note_on_c, 1, 57, 127
2, 98080, Note_on_c, 1, 61, 127
2, 98080, Note_on_c, 1, 93, 127
2, 98080, Note_on_c, 1, 97, 127
2, 98120, Note_on_c, 1, 41, 127
2, 98120, Note_on_c, 1, 48, 127
2, 98120, Note_off_c, 1, 53, 0
2, 98120, Note_on_c, 1, 55, 127
2, 98120, Note_off_c, 1, 57, 0
2, 98120, Note_off_c, 1, 61, 0
2, 98120, Note_on_c, 1, 76, 127
2, 98120, Note_on_c, 1, 82, 127
2, 98120, Note_on_c, 1, 88, 127
2, 98120, Note_off_c, 1, 93, 0
2, 98120, Note_off_c, 1, 97, 0
2, 98160, Note_off_c, 1, 41, 0
2, 98160, Note_off_c, 1, 48, 0
2, 98160, Note_off_c, 1, 55, 0
2, 98160, Note_on_c, 1, 57, 127
2, 98160, Note_on_c, 1, 60, 127
2, 98160, Note_on_c, 1, 69, 127
2, 98160, Note_on_c, 1, 72, 127
2, 98160, Note_off_c, 1, 76, 0
2, 98160, Note_off_c, 1, 82, 0
2, 98160, Note_on_c, 1, 84, 127
2, 98160, Note_off_c, 1, 88, 0
2, 98200, Note_on_c, 1, 36, 127
2, 98200, Note_off_c, 1, 57, 0
2, 98200, Note_on_c, 1, 58, 127
2, 98200, Note_off_c, 1, 60, 0
2, 98200, Note_on_c, 1, 61, 127
2, 98200, Note_on_c, 1, 67, 127
2, 98200, Note_off_c, 1, 69, 0
2, 98200, Note_off_c, 1, 72, 0
2, 98200, Note_off_c, 1, 84, 0
2, 98240, Note_off_c, 1, 36, 0
2, 98240, Note_on_c, 1, 52, 127
2, 98240, Note_off_c, 1, 58, 0
2, 98240, Note_off_c, 1, 61, 0
2, 98240, Note_on_c, 1, 64, 127
2, 98240, Note_off_c, 1, 67, 0
2, 98240, Note_on_c, 1, 74, 127
2, 98240, Note_on_c, 1, 76, 127
2, 98240, Note_on_c, 1, 80, 127
2, 98240, Note_on_c, 1, 83, 127
2, 98240, Note_on_c, 1, 88, 127
2, 98280, Note_on_c, 1, 39, 127
2, 98280, Note_on_c, 1, 49, 127
2, 98280, Note_off_c, 1, 52, 0
2, 98280, Note_on_c, 1, 61, 127
2, 98280, Note_on_c, 1, 68, 127
2, 98280, Note_on_c, 1, 73, 127
2, 98280, Note_off_c, 1, 74, 0
2, 98280, Note_off_c, 1, 76, 0
2, 98280, Note_off_c, 1, 80, 0
2, 98280, Note_off_c, 1, 83, 0
2, 98280, Note_off_c, 1, 88, 0
2, 98320, Note_off_c, 1, 39, 0
2, 98320, Note_off_c, 1, 49, 0
2, 98320, Note_on_c, 1, 56, 127
2, 98320, Note_on_c, 1, 60, 127
2, 98320, Note_off_c, 1, 64, 0
2, 98320, Note_on_c, 1, 72, 127
2, 98320, Note_off_c, 1, 73, 0
2, 98360, Note_on_c, 1, 36, 127
2, 98360, Note_on_c, 1, 41, 127
2, 98360, Note_on_c, 1, 44, 127
2, 98360, Note_on_c, 1, 48, 127
2, 98360, Note_off_c, 1, 56, 0
2, 98360, Note_off_c, 1, 60, 0
2, 98360, Note_off_c, 1, 61, 0
2, 98360, Note_off_c, 1, 68, 0
2, 98360, Note_off_c, 1, 72, 0
2, 98400, Note_off_c, 1, 36, 0
2, 98400, Note_off_c, 1, 41, 0
2, 98400, Note_off_c, 1, 44, 0
2, 98400, Note_on_c, 1, 45, 127
2, 98400, Note_off_c, 1, 48, 0
2, 98400, Note_on_c, 1, 52, 127
2, 98400, Note_on_c, 1, 56, 127
2, 98400, Note_on_c, 1, 62, 127
2, 98400, Note_on_c, 1, 64, 127
2, 98440, Note_off_c, 1, 45, 0
2, 98440, Note_off_c, 1, 52, 0
2, 98440, Note_off_c, 1, 56, 0
2, 98440, Note_on_c, 1, 61, 127
2, 98440, Note_off_c, 1, 62, 0
2, 98440, Note_on_c, 1, 70, 127
2, 98440, Note_on_c, 1, 73, 127
2, 98440, Note_on_c, 1, 79, 127
2, 98440, Note_on_c, 1, 82, 127
2, 98440, Note_on_c, 1, 88, 127
2, 98440, Note_on_c, 1, 91, 127
2, 98480, Note_on_c, 1, 41, 127
2, 98480, Note_on_c, 1, 53, 127
2, 98480, Note_off_c, 1, 61, 0
2, 98480, Note_off_c, 1, 64, 0
2, 98480, Note_off_c, 1, 70, 0
2, 98480, Note_off_c, 1, 73, 0
2, 98480, Note_off_c, 1, 79, 0
2, 98480, Note_off_c, 1, 82, 0
2, 98480, Note_on_c, 1, 87, 127
2, 98480, Note_off_c, 1, 88, 0
2, 98480, Note_off_c, 1, 91, 0
2, 98480, Note_on_c, 1, 93, 127
2, 98480, Note_on_c, 1, 99, 127
2, 98640, Note_off_c, 1, 41, 0
2, 98640, Note_off_c, 1, 53, 0
2, 98640, Note_off_c, 1, 87, 0
2, 98640, Note_off_c, 1, 99, 0
2, 98680, Note_on_c, 1, 48, 127
2, 98680, Note_on_c, 1, 60, 127
2, 98680, Note_on_c, 1, 67, 127
2, 98680, Note_on_c, 1, 72, 127
2, 98680, Note_on_c, 1, 77, 127
2, 98680, Note_on_c, 1, 79, 127
2, 98680, Note_off_c, 1, 93, 0
2, 99240, Note_off_c, 1, 48, 0
2, 99240, Note_off_c, 1, 60, 0
2, 99240, Note_off_c, 1, 67, 0
2, 99240, Note_off_c, 1, 72, 0
2, 99240, Note_off_c, 1, 77, 0
2, 99240, Note_off_c, 1, 79, 0
2, 99280, Note_on_c, 1, 40, 127
2, 99280, Note_on_c, 1, 52, 127
2, 99280, Note_on_c, 1, 76, 127
2, 99280, Note_on_c, 1, 79, 127
2, 99280, Note_on_c, 1, 84, 127
2, 99400, Note_off_c, 1, 40, 0
2, 99400, Note_off_c, 1, 52, 0
2, 99400, Note_on_c, 1, 61, 127
2, 99400, Note_on_c, 1, 67, 127
2, 99400, Note_off_c, 1, 76, 0
2, 99400, Note_off_c, 1, 79, 0
2, 99400, Note_on_c, 1, 82, 127
2, 99440, Note_on_c, 1, 40, 127
2, 99440, Note_on_c, 1, 52, 127
2, 99440, Note_off_c, 1, 61, 0
2, 99440, Note_off_c, 1, 67, 0
2, 99440, Note_on_c, 1, 76, 127
2, 99440, Note_on_c, 1, 79, 127
2, 99440, Note_off_c, 1, 82, 0
2, 99480, Note_off_c, 1, 40, 0
2, 99480, Note_off_c, 1, 52, 0
2, 99480, Note_off_c, 1, 76, 0
2, 99480, Note_off_c, 1, 79, 0
2, 99480, Note_off_c, 1, 84, 0
2, 99520, Note_on_c, 1, 40, 127
2, 99520, Note_on_c, 1, 52, 127
2, 99520, Note_on_c, 1, 76, 127
2, 99520, Note_on_c, 1, 79, 127
2, 99520, Note_on_c, 1, 84, 127
2, 99560, Note_on_c, 1, 34, 127
2, 99560, Note_off_c, 1, 40, 0
2, 99560, Note_on_c, 1, 46, 127
2, 99560, Note_off_c, 1, 52, 0
2, 99560, Note_on_c, 1, 55, 127
2, 99560, Note_on_c, 1, 62, 127
2, 99560, Note_off_c, 1, 76, 0
2, 99560, Note_off_c, 1, 79, 0
2, 99560, Note_off_c, 1, 84, 0
2, 99600, Note_off_c, 1, 34, 0
2, 99600, Note_on_c, 1, 41, 127
2, 99600, Note_off_c, 1, 46, 0
2, 99600, Note_on_c, 1, 48, 127
2, 99600, Note_on_c, 1, 58, 127
2, 99600, Note_off_c, 1, 62, 0
2, 99600, Note_on_c, 1, 64, 127
2, 99640, Note_on_c, 1, 40, 127
2, 99640, Note_off_c, 1, 41, 0
2, 99640, Note_off_c, 1, 48, 0
2, 99640, Note_on_c, 1, 52, 127
2, 99640, Note_off_c, 1, 55, 0
2, 99640, Note_off_c, 1, 58, 0
2, 99640, Note_off_c, 1, 64, 0
2, 99640, Note_on_c, 1, 76, 127
2, 99640, Note_on_c, 1, 79, 127
2, 99640, Note_on_c, 1, 84, 127
2, 99680, Note_off_c, 1, 40, 0
2, 99680, Note_off_c, 1, 52, 0
2, 99680, Note_on_c, 1, 60, 127
2, 99680, Note_on_c, 1, 67, 127
2, 99680, Note_on_c, 1, 72, 127
2, 99680, Note_off_c, 1, 76, 0
2, 99680, Note_off_c, 1, 79, 0
2, 99720, Note_on_c, 1, 41, 127
2, 99720, Note_on_c, 1, 53, 127
2, 99720, Note_off_c, 1, 60, 0
2, 99720, Note_off_c, 1, 67, 0
2, 99720, Note_on_c, 1, 81, 127
2, 99720, Note_off_c, 1, 84, 0
2, 99880, Note_off_c, 1, 41, 0
2, 99880, Note_off_c, 1, 53, 0
2, 99920, Note_on_c, 1, 41, 127
2, 99920, Note_on_c, 1, 53, 127
2, 100320, Note_off_c, 1, 41, 0
2, 100320, Note_off_c, 1, 53, 0
2, 100480, Note_off_c, 1, 81, 0
2, 100520, Note_on_c, 1, 60, 127
2, 100520, Note_on_c, 1, 69, 127
2, 100520, Note_off_c, 1, 72, 0
2, 100520, Note_on_c, 1, 89, 127
2, 101080, Note_off_c, 1, 60, 0
2, 101080, Note_off_c, 1, 89, 0
2, 101120, Note_on_c, 1, 57, 127
2, 101120, Note_on_c, 1, 62, 127
2, 101120, Note_on_c, 1, 65, 127
2, 101120, Note_on_c, 1, 81, 127
2, 101520, Note_off_c, 1, 57, 0
2, 101520, Note_off_c, 1, 62, 0
2, 101520, Note_off_c, 1, 65, 0
2, 101520, Note_off_c, 1, 69, 0
2, 101520, Note_off_c, 1, 81, 0
2, 101560, Note_on_c, 1, 57, 127
2, 101560, Note_on_c, 1, 62, 127
2, 101560, Note_on_c, 1, 65, 127
2, 101560, Note_on_c, 1, 69, 127
2, 101560, Note_on_c, 1, 81, 127
2, 101680, Note_off_c, 1, 57, 0
2, 101680, Note_off_c, 1, 62, 0
2, 101680, Note_off_c, 1, 65, 0
2, 101760, Note_on_c, 1, 57, 127
2, 101760, Note_on_c, 1, 62, 127
2, 101760, Note_on_c, 1, 65, 127
2, 102320, Note_off_c, 1, 57, 0
2, 102320, Note_off_c, 1, 62, 0
2, 102320, Note_off_c, 1, 65, 0
2, 102360, Note_on_c, 1, 57, 127
2, 102360, Note_on_c, 1, 62, 127
2, 102360, Note_on_c, 1, 65, 127
2, 102920, Note_off_c, 1, 57, 0
2, 102920, Note_off_c, 1, 62, 0
2, 102920, Note_off_c, 1, 65, 0
2, 102960, Note_on_c, 1, 57, 127
2, 102960, Note_on_c, 1, 62, 127
2, 102960, Note_on_c, 1, 65, 127
2, 103320, Note_off_c, 1, 57, 0
2, 103320, Note_off_c, 1, 62, 0
2, 103320, Note_off_c, 1, 65, 0
2, 103520, Note_off_c, 1, 69, 0
2, 103520, Note_off_c, 1, 81, 0
2, 103600, Note_on_c, 1, 57, 127
2, 103600, Note_on_c, 1, 69, 127
2, 103600, Note_on_c, 1, 73, 127
2, 103600, Note_on_c, 1, 81, 127
2, 103960, Note_off_c, 1, 81, 0
2, 104000, Note_on_c, 1, 81, 127
2, 104160, Note_off_c, 1, 57, 0
2, 104200, Note_on_c, 1, 57, 127
2, 104560, Note_off_c, 1, 57, 0
2, 104560, Note_off_c, 1, 69, 0
2, 104560, Note_off_c, 1, 73, 0
2, 104560, Note_off_c, 1, 81, 0
2, 104600, Note_on_c, 1, 69, 127
2, 104600, Note_on_c, 1, 72, 127
2, 104600, Note_on_c, 1, 75, 127
2, 104600, Note_on_c, 1, 77, 127
2, 104600, Note_on_c, 1, 84, 127
2, 104640, Note_on_c, 1, 62, 127
2, 104640, Note_on_c, 1, 66, 127
2, 104640, Note_off_c, 1, 69, 0
2, 104640, Note_on_c, 1, 71, 127
2, 104640, Note_off_c, 1, 72, 0
2, 104640, Note_off_c, 1, 75, 0
2, 104640, Note_off_c, 1, 77, 0
2, 104640, Note_off_c, 1, 84, 0
2, 104640, Note_on_c, 1, 85, 127
2, 104680, Note_on_c, 1, 45, 127
2, 104680, Note_off_c, 1, 62, 0
2, 104680, Note_off_c, 1, 66, 0
2, 104680, Note_on_c, 1, 78, 127
2, 104680, Note_off_c, 1, 85, 0
2, 104760, Note_on_c, 1, 33, 127
2, 104760, Note_on_c, 1, 40, 127
2, 104760, Note_off_c, 1, 71, 0
2, 104760, Note_off_c, 1, 78, 0
2, 104760, Note_on_c, 1, 88, 127
2, 104760, Note_on_c, 1, 93, 127
2, 104760, Note_on_c, 1, 100, 127
2, 104800, Note_off_c, 1, 33, 0
2, 104800, Note_on_c, 1, 39, 127
2, 104800, Note_off_c, 1, 40, 0
2, 104800, Note_off_c, 1, 45, 0
2, 104800, Note_on_c, 1, 51, 127
2, 104800, Note_on_c, 1, 69, 127
2, 104800, Note_on_c, 1, 75, 127
2, 104800, Note_on_c, 1, 77, 127
2, 104800, Note_off_c, 1, 88, 0
2, 104800, Note_off_c, 1, 93, 0
2, 104800, Note_off_c, 1, 100, 0
2, 104840, Note_off_c, 1, 39, 0
2, 104840, Note_off_c, 1, 51, 0
2, 104840, Note_on_c, 1, 62, 127
2, 104840, Note_on_c, 1, 64, 127
2, 104840, Note_off_c, 1, 69, 0
2, 104840, Note_off_c, 1, 75, 0
2, 104840, Note_off_c, 1, 77, 0
2, 104840, Note_on_c, 1, 86, 127
2, 104880, Note_on_c, 1, 59, 127
2, 104880, Note_off_c, 1, 62, 0
2, 104880, Note_off_c, 1, 64, 0
2, 104880, Note_on_c, 1, 71, 127
2, 104880, Note_on_c, 1, 75, 127
2, 104880, Note_on_c, 1, 81, 127
2, 104880, Note_off_c, 1, 86, 0
2, 104920, Note_on_c, 1, 58, 127
2, 104920, Note_off_c, 1, 59, 0
2, 104920, Note_off_c, 1, 81, 0
2, 104920, Note_on_c, 1, 83, 127
2, 104960, Note_off_c, 1, 58, 0
2, 104960, Note_off_c, 1, 75, 0
2, 105000, Note_off_c, 1, 71, 0
2, 105000, Note_off_c, 1, 83, 0
2, 105000, Note_on_c, 1, 87, 127
2, 105000, Note_on_c, 1, 96, 127
2, 105000, Note_on_c, 1, 103, 127
2, 105040, Note_on_c, 1, 46, 127
2, 105040, Note_on_c, 1, 54, 127
2, 105040, Note_on_c, 1, 70, 127
2, 105040, Note_on_c, 1, 74, 127
2, 105040, Note_off_c, 1, 87, 0
2, 105040, Note_off_c, 1, 96, 0
2, 105040, Note_off_c, 1, 103, 0
2, 105080, Note_off_c, 1, 46, 0
2, 105080, Note_on_c, 1, 53, 127
2, 105080, Note_off_c, 1, 54, 0
2, 105080, Note_off_c, 1, 70, 0
2, 105080, Note_off_c, 1, 74, 0
2, 105080, Note_on_c, 1, 77, 127
2, 105080, Note_on_c, 1, 79, 127
2, 105080, Note_on_c, 1, 82, 127
2, 105120, Note_on_c, 1, 46, 127
2, 105120, Note_off_c, 1, 53, 0
2, 105120, Note_on_c, 1, 58, 127
2, 105120, Note_on_c, 1, 64, 127
2, 105120, Note_on_c, 1, 66, 127
2, 105120, Note_on_c, 1, 73, 127
2, 105120, Note_off_c, 1, 77, 0
2, 105120, Note_off_c, 1, 79, 0
2, 105120, Note_off_c, 1, 82, 0
2, 105160, Note_off_c, 1, 46, 0
2, 105160, Note_off_c, 1, 58, 0
2, 105160, Note_off_c, 1, 64, 0
2, 105160, Note_off_c, 1, 66, 0
2, 105160, Note_off_c, 1, 73, 0
2, 105200, Note_on_c, 1, 28, 127
2, 105200, Note_on_c, 1, 40, 127
2, 105200, Note_on_c, 1, 58, 127
2, 105200, Note_on_c, 1, 60, 127
2, 105200, Note_on_c, 1, 63, 127
2, 105200, Note_on_c, 1, 70, 127
2, 105240, Note_off_c, 1, 28, 0
2, 105240, Note_off_c, 1, 40, 0
2, 105240, Note_on_c, 1, 55, 127
2, 105240, Note_on_c, 1, 57, 127
2, 105240, Note_off_c, 1, 58, 0
2, 105240, Note_off_c, 1, 63, 0
2, 105240, Note_on_c, 1, 64, 127
2, 105240, Note_off_c, 1, 70, 0
2, 105240, Note_on_c, 1, 71, 127
2, 105280, Note_off_c, 1, 57, 0
2, 105280, Note_on_c, 1, 59, 127
2, 105280, Note_off_c, 1, 60, 0
2, 105280, Note_on_c, 1, 62, 127
2, 105280, Note_off_c, 1, 64, 0
2, 105280, Note_on_c, 1, 69, 127
2, 105280, Note_off_c, 1, 71, 0
2, 105280, Note_on_c, 1, 79, 127
2, 105320, Note_off_c, 1, 55, 0
2, 105320, Note_off_c, 1, 59, 0
2, 105320, Note_off_c, 1, 69, 0
2, 105320, Note_off_c, 1, 79, 0
2, 105320, Note_on_c, 1, 83, 127
2, 105320, Note_on_c, 1, 86, 127
2, 105320, Note_on_c, 1, 90, 127
2, 105320, Note_on_c, 1, 95, 127
2, 105360, Note_on_c, 1, 49, 127
2, 105360, Note_on_c, 1, 52, 127
2, 105360, Note_on_c, 1, 58, 127
2, 105360, Note_on_c, 1, 61, 127
2, 105360, Note_off_c, 1, 62, 0
2, 105360, Note_on_c, 1, 73, 127
2, 105360, Note_off_c, 1, 83, 0
2, 105360, Note_off_c, 1, 86, 0
2, 105360, Note_off_c, 1, 90, 0
2, 105360, Note_off_c, 1, 95, 0
2, 105400, Note_off_c, 1, 49, 0
2, 105400, Note_off_c, 1, 52, 0
2, 105400, Note_off_c, 1, 61, 0
2, 105400, Note_on_c, 1, 71, 127
2, 105400, Note_off_c, 1, 73, 0
2, 105400, Note_on_c, 1, 76, 127
2, 105400, Note_on_c, 1, 83, 127
2, 105440, Note_on_c, 1, 50, 127
2, 105440, Note_on_c, 1, 52, 127
2, 105440, Note_on_c, 1, 56, 127
2, 105440, Note_off_c, 1, 58, 0
2, 105440, Note_on_c, 1, 66, 127
2, 105440, Note_off_c, 1, 71, 0
2, 105440, Note_off_c, 1, 76, 0
2, 105440, Note_off_c, 1, 83, 0
2, 105480, Note_on_c, 1, 31, 127
2, 105480, Note_on_c, 1, 39, 127
2, 105480, Note_off_c, 1, 50, 0
2, 105480, Note_off_c, 1, 52, 0
2, 105480, Note_off_c, 1, 56, 0
2, 105480, Note_off_c, 1, 66, 0
2, 105480, Note_on_c, 1, 96, 127
2, 105520, Note_off_c, 1, 31, 0
2, 105520, Note_off_c, 1, 39, 0
2, 105520, Note_on_c, 1, 60, 127
2, 105520, Note_on_c, 1, 65, 127
2, 105520, Note_on_c, 1, 69, 127
2, 105520, Note_on_c, 1, 77, 127
2, 105520, Note_on_c, 1, 81, 127
2, 105520, Note_on_c, 1, 84, 127
2, 105520, Note_on_c, 1, 86, 127
2, 105520, Note_off_c, 1, 96, 0
2, 105560, Note_on_c, 1, 45, 127
2, 105560, Note_on_c, 1, 57, 127
2, 105560, Note_off_c, 1, 60, 0
2, 105560, Note_off_c, 1, 65, 0
2, 105560, Note_off_c, 1, 69, 0
2, 105560, Note_off_c, 1, 77, 0
2, 105560, Note_off_c, 1, 81, 0
2, 105560, Note_off_c, 1, 84, 0
2, 105560, Note_off_c, 1, 86, 0
2, 105600, Note_off_c, 1, 45, 0
2, 105600, Note_off_c, 1, 57, 0
2, 105600, Note_on_c, 1, 65, 127
2, 105600, Note_on_c, 1, 67, 127
2, 105600, Note_on_c, 1, 70, 127
2, 105600, Note_on_c, 1, 72, 127
2, 105600, Note_on_c, 1, 76, 127
2, 105600, Note_on_c, 1, 82, 127
2, 105600, Note_on_c, 1, 91, 127
2, 105760, Note_off_c, 1, 65, 0
2, 105760, Note_off_c, 1, 67, 0
2, 105760, Note_off_c, 1, 70, 0
2, 105760, Note_off_c, 1, 72, 0
2, 105760, Note_off_c, 1, 76, 0
2, 105760, Note_off_c, 1, 82, 0
2, 105760, Note_off_c, 1, 91, 0
2, 105800, Note_on_c, 1, 65, 127
2, 105800, Note_on_c, 1, 67, 127
2, 105800, Note_on_c, 1, 70, 127
2, 105800, Note_on_c, 1, 72, 127
2, 105800, Note_on_c, 1, 76, 127
2, 105800, Note_on_c, 1, 82, 127
2, 105800, Note_on_c, 1, 91, 127
2, 106000, Note_on_c, 1, 41, 127
2, 106000, Note_on_c, 1, 45, 127
2, 106000, Note_on_c, 1, 61, 127
2, 106000, Note_on_c, 1, 64, 127
2, 106000, Note_off_c, 1, 65, 0
2, 106000, Note_on_c, 1, 69, 127
2, 106000, Note_off_c, 1, 70, 0
2, 106000, Note_off_c, 1, 72, 0
2, 106000, Note_off_c, 1, 76, 0
2, 106000, Note_off_c, 1, 82, 0
2, 106000, Note_off_c, 1, 91, 0
2, 106040, Note_off_c, 1, 41, 0
2, 106040, Note_off_c, 1, 45, 0
2, 106040, Note_on_c, 1, 47, 127
2, 106040, Note_on_c, 1, 54, 127
2, 106040, Note_off_c, 1, 61, 0
2, 106040, Note_off_c, 1, 64, 0
2, 106040, Note_off_c, 1, 67, 0
2, 106040, Note_off_c, 1, 69, 0
2, 106040, Note_on_c, 1, 75, 127
2, 106040, Note_on_c, 1, 78, 127
2, 106040, Note_on_c, 1, 87, 127
2, 106200, Note_off_c, 1, 87, 0
2, 106400, Note_off_c, 1, 47, 0
2, 106400, Note_off_c, 1, 54, 0
2, 106400, Note_off_c, 1, 75, 0
2, 106400, Note_off_c, 1, 78, 0
2, 106440, Note_on_c, 1, 32, 127
2, 106440, Note_on_c, 1, 40, 127
2, 106440, Note_on_c, 1, 44, 127
2, 106440, Note_on_c, 1, 83, 127
2, 106440, Note_on_c, 1, 86, 127
2, 106440, Note_on_c, 1, 88, 127
2, 106440, Note_on_c, 1, 95, 127
2, 107000, Note_off_c, 1, 32, 0
2, 107000, Note_off_c, 1, 40, 0
2, 107000, Note_off_c, 1, 44, 0
2, 107000, Note_off_c, 1, 83, 0
2, 107000, Note_off_c, 1, 86, 0
2, 107000, Note_off_c, 1, 88, 0
2, 107000, Note_off_c, 1, 95, 0
2, 107040, Note_on_c, 1, 32, 127
2, 107040, Note_on_c, 1, 40, 127
2, 107040, Note_on_c, 1, 44, 127
2, 107040, Note_on_c, 1, 83, 127
2, 107040, Note_on_c, 1, 86, 127
2, 107040, Note_on_c, 1, 88, 127
2, 107040, Note_on_c, 1, 95, 127
2, 107600, Note_off_c, 1, 32, 0
2, 107600, Note_off_c, 1, 40, 0
2, 107600, Note_off_c, 1, 44, 0
2, 107600, Note_off_c, 1, 83, 0
2, 107600, Note_off_c, 1, 86, 0
2, 107600, Note_off_c, 1, 88, 0
2, 107600, Note_off_c, 1, 95, 0
2, 107640, Note_on_c, 1, 34, 127
2, 107640, Note_on_c, 1, 46, 127
2, 107640, Note_on_c, 1, 74, 127
2, 107640, Note_on_c, 1, 80, 127
2, 107640, Note_on_c, 1, 82, 127
2, 107680, Note_off_c, 1, 34, 0
2, 107680, Note_off_c, 1, 46, 0
2, 107680, Note_on_c, 1, 59, 127
2, 107680, Note_on_c, 1, 62, 127
2, 107680, Note_off_c, 1, 74, 0
2, 107680, Note_on_c, 1, 79, 127
2, 107680, Note_off_c, 1, 80, 0
2, 107680, Note_off_c, 1, 82, 0
2, 107680, Note_on_c, 1, 91, 127
2, 107720, Note_off_c, 1, 59, 0
2, 107720, Note_off_c, 1, 62, 0
2, 107720, Note_off_c, 1, 79, 0
2, 107720, Note_off_c, 1, 91, 0
2, 107760, Note_on_c, 1, 43, 127
2, 107760, Note_on_c, 1, 50, 127
2, 107760, Note_on_c, 1, 58, 127
2, 107760, Note_on_c, 1, 69, 127
2, 107800, Note_off_c, 1, 43, 0
2, 107800, Note_off_c, 1, 50, 0
2, 107800, Note_off_c, 1, 58, 0
2, 107800, Note_on_c, 1, 59, 127
2, 107800, Note_on_c, 1, 62, 127
2, 107800, Note_off_c, 1, 69, 0
2, 107800, Note_on_c, 1, 79, 127
2, 107800, Note_on_c, 1, 91, 127
2, 107840, Note_on_c, 1, 43, 127
2, 107840, Note_on_c, 1, 55, 127
2, 107840, Note_on_c, 1, 58, 127
2, 107840, Note_off_c, 1, 59, 0
2, 107840, Note_on_c, 1, 67, 127
2, 107840, Note_on_c, 1, 74, 127
2, 107840, Note_off_c, 1, 79, 0
2, 107840, Note_on_c, 1, 82, 127
2, 107840, Note_on_c, 1, 86, 127
2, 107840, Note_off_c, 1, 91, 0
2, 107880, Note_on_c, 1, 36, 127
2, 107880, Note_off_c, 1, 43, 0
2, 107880, Note_on_c, 1, 48, 127
2, 107880, Note_off_c, 1, 55, 0
2, 107880, Note_off_c, 1, 58, 0
2, 107880, Note_off_c, 1, 62, 0
2, 107880, Note_off_c, 1, 67, 0
2, 107880, Note_on_c, 1, 69, 127
2, 107880, Note_off_c, 1, 74, 0
2, 107880, Note_on_c, 1, 75, 127
2, 107880, Note_off_c, 1, 82, 0
2, 107880, Note_off_c, 1, 86, 0
2, 107920, Note_off_c, 1, 36, 0
2, 107920, Note_off_c, 1, 48, 0
2, 107920, Note_off_c, 1, 69, 0
2, 107920, Note_off_c, 1, 75, 0
2, 107920, Note_on_c, 1, 79, 127
2, 107920, Note_on_c, 1, 91, 127
2, 107960, Note_on_c, 1, 41, 127
2, 107960, Note_on_c, 1, 53, 127
2, 107960, Note_on_c, 1, 77, 127
2, 107960, Note_off_c, 1, 79, 0
2, 107960, Note_on_c, 1, 86, 127
2, 107960, Note_on_c, 1, 89, 127
2, 107960, Note_off_c, 1, 91, 0
2, 108240, Note_off_c, 1, 41, 0
2, 108240, Note_off_c, 1, 53, 0
2, 108240, Note_off_c, 1, 77, 0
2, 108240, Note_on_c, 1, 84, 127
2, 108240, Note_off_c, 1, 86, 0
2, 108240, Note_off_c, 1, 89, 0
2, 108240, Note_on_c, 1, 96, 127
2, 108280, Note_on_c, 1, 41, 127
2, 108280, Note_on_c, 1, 53, 127
2, 108280, Note_on_c, 1, 77, 127
2, 108280, Note_off_c, 1, 84, 0
2, 108280, Note_on_c, 1, 86, 127
2, 108280, Note_on_c, 1, 89, 127
2, 108280, Note_off_c, 1, 96, 0
2, 108840, Note_off_c, 1, 41, 0
2, 108840, Note_off_c, 1, 53, 0
2, 108840, Note_off_c, 1, 77, 0
2, 108840, Note_off_c, 1, 86, 0
2, 108840, Note_off_c, 1, 89, 0
2, 108880, Note_on_c, 1, 30, 127
2, 108880, Note_on_c, 1, 55, 127
2, 108880, Note_on_c, 1, 58, 127
2, 108880, Note_on_c, 1, 63, 127
2, 109640, Note_off_c, 1, 30, 0
2, 109640, Note_off_c, 1, 55, 0
2, 109640, Note_off_c, 1, 58, 0
2, 109640, Note_off_c, 1, 63, 0
2, 109680, Note_on_c, 1, 40, 127
2, 109680, Note_on_c, 1, 54, 127
2, 109680, Note_on_c, 1, 69, 127
2, 109720, Note_off_c, 1, 40, 0
2, 109720, Note_on_c, 1, 47, 127
2, 109720, Note_on_c, 1, 51, 127
2, 109720, Note_on_c, 1, 59, 127
2, 109720, Note_off_c, 1, 69, 0
2, 109720, Note_on_c, 1, 79, 127
2, 109760, Note_off_c, 1, 47, 0
2, 109760, Note_off_c, 1, 51, 0
2, 109760, Note_off_c, 1, 54, 0
2, 109760, Note_off_c, 1, 59, 0
2, 109760, Note_on_c, 1, 62, 127
2, 109760, Note_on_c, 1, 73, 127
2, 109760, Note_on_c, 1, 76, 127
2, 109760, Note_off_c, 1, 79, 0
2, 109760, Note_on_c, 1, 81, 127
2, 109800, Note_off_c, 1, 62, 0
2, 109800, Note_off_c, 1, 73, 0
2, 109800, Note_off_c, 1, 76, 0
2, 109800, Note_off_c, 1, 81, 0
2, 109840, Note_on_c, 1, 45, 127
2, 109840, Note_on_c, 1, 47, 127
2, 109840, Note_on_c, 1, 51, 127
2, 109840, Note_on_c, 1, 54, 127
2, 109840, Note_on_c, 1, 78, 127
2, 109880, Note_on_c, 1, 39, 127
2, 109880, Note_off_c, 1, 45, 0
2, 109880, Note_on_c, 1, 46, 127
2, 109880, Note_off_c, 1, 47, 0
2, 109880, Note_off_c, 1, 54, 0
2, 109880, Note_on_c, 1, 67, 127
2, 109880, Note_on_c, 1, 70, 127
2, 109880, Note_off_c, 1, 78, 0
2, 109920, Note_off_c, 1, 39, 0
2, 109920, Note_off_c, 1, 46, 0
2, 109920, Note_off_c, 1, 51, 0
2, 109920, Note_on_c, 1, 55, 127
2, 109920, Note_on_c, 1, 65, 127
2, 109920, Note_off_c, 1, 67, 0
2, 109920, Note_off_c, 1, 70, 0
2, 109920, Note_on_c, 1, 82, 127
2, 109920, Note_on_c, 1, 83, 127
2, 109960, Note_on_c, 1, 47, 127
2, 109960, Note_off_c, 1, 55, 0
2, 109960, Note_on_c, 1, 59, 127
2, 109960, Note_off_c, 1, 65, 0
2, 109960, Note_on_c, 1, 68, 127
2, 109960, Note_on_c, 1, 73, 127
2, 109960, Note_on_c, 1, 77, 127
2, 109960, Note_on_c, 1, 80, 127
2, 109960, Note_off_c, 1, 82, 0
2, 109960, Note_off_c, 1, 83, 0
2, 110000, Note_on_c, 1, 43, 127
2, 110000, Note_on_c, 1, 55, 127
2, 110000, Note_off_c, 1, 59, 0
2, 110000, Note_on_c, 1, 62, 127
2, 110000, Note_on_c, 1, 67, 127
2, 110000, Note_off_c, 1, 68, 0
2, 110000, Note_on_c, 1, 71, 127
2, 110000, Note_off_c, 1, 73, 0
2, 110000, Note_off_c, 1, 77, 0
2, 110000, Note_off_c, 1, 80, 0
2, 110040, Note_off_c, 1, 43, 0
2, 110040, Note_off_c, 1, 47, 0
2, 110040, Note_off_c, 1, 62, 0
2, 110040, Note_off_c, 1, 67, 0
2, 110040, Note_off_c, 1, 71, 0
2, 110040, Note_on_c, 1, 75, 127
2, 110040, Note_on_c, 1, 79, 127
2, 110040, Note_on_c, 1, 82, 127
2, 110040, Note_on_c, 1, 87, 127
2, 110080, Note_on_c, 1, 34, 127
2, 110080, Note_on_c, 1, 44, 127
2, 110080, Note_off_c, 1, 55, 0
2, 110080, Note_off_c, 1, 75, 0
2, 110080, Note_off_c, 1, 79, 0
2, 110080, Note_off_c, 1, 82, 0
2, 110080, Note_on_c, 1, 86, 127
2, 110120, Note_off_c, 1, 34, 0
2, 110120, Note_off_c, 1, 44, 0
2, 110120, Note_on_c, 1, 62, 127
2, 110120, Note_on_c, 1, 66, 127
2, 110120, Note_on_c, 1, 73, 127
2, 110120, Note_on_c, 1, 78, 127
2, 110120, Note_on_c, 1, 85, 127
2, 110120, Note_off_c, 1, 86, 0
2, 110120, Note_off_c, 1, 87, 0
2, 110160, Note_on_c, 1, 65, 127
2, 110160, Note_off_c, 1, 66, 0
2, 110200, Note_off_c, 1, 65, 0
2, 110200, Note_on_c, 1, 66, 127
2, 110240, Note_off_c, 1, 62, 0
2, 110240, Note_off_c, 1, 66, 0
2, 110280, Note_off_c, 1, 73, 0
2, 110280, Note_off_c, 1, 78, 0
2, 110280, Note_off_c, 1, 85, 0
2, 110320, Note_on_c, 1, 47, 127
2, 110320, Note_on_c, 1, 87, 127
2, 110880, Note_off_c, 1, 47, 0
2, 110880, Note_off_c, 1, 87, 0
2, 110920, Note_on_c, 1, 52, 127
2, 110920, Note_on_c, 1, 59, 127
2, 110920, Note_on_c, 1, 61, 127
2, 110920, Note_on_c, 1, 69, 127
2, 111200, Note_on_c, 1, 49, 127
2, 111200, Note_off_c, 1, 52, 0
2, 111200, Note_on_c, 1, 56, 127
2, 111200, Note_off_c, 1, 61, 0
2, 111200, Note_on_c, 1, 62, 127
2, 111200, Note_on_c, 1, 68, 127
2, 111200, Note_off_c, 1, 69, 0
2, 111240, Note_off_c, 1, 49, 0
2, 111240, Note_on_c, 1, 52, 127
2, 111240, Note_off_c, 1, 59, 0
2, 111240, Note_on_c, 1, 61, 127
2, 111240, Note_off_c, 1, 62, 0
2, 111240, Note_on_c, 1, 64, 127
2, 111280, Note_off_c, 1, 52, 0
2, 111280, Note_off_c, 1, 56, 0
2, 111280, Note_on_c, 1, 59, 127
2, 111280, Note_off_c, 1, 61, 0
2, 111280, Note_on_c, 1, 63, 127
2, 111280, Note_off_c, 1, 64, 0
2, 111280, Note_off_c, 1, 68, 0
2, 111280, Note_on_c, 1, 70, 127
2, 111280, Note_on_c, 1, 78, 127
2, 111320, Note_on_c, 1, 52, 127
2, 111320, Note_off_c, 1, 59, 0
2, 111320, Note_off_c, 1, 63, 0
2, 111320, Note_on_c, 1, 69, 127
2, 111320, Note_off_c, 1, 70, 0
2, 111320, Note_on_c, 1, 71, 127
2, 111320, Note_off_c, 1, 78, 0
2, 111480, Note_off_c, 1, 52, 0
2, 111480, Note_off_c, 1, 69, 0
2, 111480, Note_off_c, 1, 71, 0
2, 111520, Note_on_c, 1, 52, 127
2, 111520, Note_on_c, 1, 79, 127
2, 111920, Note_off_c, 1, 52, 0
2, 111920, Note_off_c, 1, 79, 0
2, 111960, Note_on_c, 1, 52, 127
2, 111960, Note_on_c, 1, 79, 127
2, 112120, Note_off_c, 1, 52, 0
2, 112120, Note_off_c, 1, 79, 0
2, 112120, Note_on_c, 1, 80, 127
2, 112160, Note_on_c, 1, 47, 127
2, 112720, Note_off_c, 1, 47, 0
2, 112720, Note_off_c, 1, 80, 0
2, 112760, Note_on_c, 1, 52, 127
2, 112760, Note_on_c, 1, 79, 127
2, 113320, Note_off_c, 1, 52, 0
2, 113360, Note_on_c, 1, 47, 127
2, 113920, Note_off_c, 1, 47, 0
2, 113920, Note_off_c, 1, 79, 0
2, 113960, Note_on_c, 1, 40, 127
2, 113960, Note_on_c, 1, 79, 127
2, 114360, Note_off_c, 1, 40, 0
2, 114360, Note_off_c, 1, 79, 0
2, 114400, Note_on_c, 1, 40, 127
2, 114400, Note_on_c, 1, 79, 127
2, 114560, Note_off_c, 1, 40, 0
2, 114560, Note_off_c, 1, 79, 0
2, 114600, Note_on_c, 1, 40, 127
2, 114600, Note_on_c, 1, 76, 127
2, 115160, Note_off_c, 1, 40, 0
2, 115160, Note_off_c, 1, 76, 0
2, 115200, Note_on_c, 1, 70, 127
2, 115200, Note_on_c, 1, 74, 127
2, 115200, Note_on_c, 1, 79, 127
2, 115200, Note_on_c, 1, 82, 127
2, 115200, Note_on_c, 1, 86, 127
2, 115200, Note_on_c, 1, 91, 127
2, 115760, Note_off_c, 1, 70, 0
2, 115760, Note_off_c, 1, 74, 0
2, 115760, Note_off_c, 1, 79, 0
2, 115760, Note_off_c, 1, 82, 0
2, 115760, Note_off_c, 1, 86, 0
2, 115760, Note_off_c, 1, 91, 0
2, 115800, Note_on_c, 1, 59, 127
2, 115800, Note_on_c, 1, 62, 127
2, 115800, Note_on_c, 1, 66, 127
2, 115800, Note_on_c, 1, 71, 127
2, 115800, Note_on_c, 1, 74, 127
2, 116360, Note_off_c, 1, 59, 0
2, 116360, Note_off_c, 1, 62, 0
2, 116360, Note_off_c, 1, 66, 0
2, 116360, Note_off_c, 1, 71, 0
2, 116360, Note_off_c, 1, 74, 0
2, 116440, Note_on_c, 1, 45, 127
2, 116440, Note_on_c, 1, 55, 127
2, 116440, Note_on_c, 1, 64, 127
2, 116440, Note_on_c, 1, 69, 127
2, 116440, Note_on_c, 1, 73, 127
2, 116440, Note_on_c, 1, 76, 127
2, 117000, Note_off_c, 1, 55, 0
2, 117040, Note_on_c, 1, 57, 127
2, 117560, Note_off_c, 1, 45, 0
2, 117560, Note_off_c, 1, 57, 0
2, 117560, Note_off_c, 1, 64, 0
2, 117560, Note_off_c, 1, 69, 0
2, 117560, Note_off_c, 1, 73, 0
2, 117560, Note_off_c, 1, 76, 0
2, 117640, Note_on_c, 1, 45, 127
2, 117640, Note_on_c, 1, 57, 127
2, 117640, Note_on_c, 1, 83, 127
2, 118200, Note_off_c, 1, 45, 0
2, 118200, Note_off_c, 1, 57, 0
2, 118200, Note_off_c, 1, 83, 0
2, 118240, Note_on_c, 1, 45, 127
2, 118240, Note_on_c, 1, 57, 127
2, 118240, Note_on_c, 1, 76, 127
2, 118440, Note_off_c, 1, 45, 0
2, 118440, Note_off_c, 1, 57, 0
2, 118440, Note_off_c, 1, 76, 0
2, 118480, Note_on_c, 1, 45, 127
2, 118480, Note_on_c, 1, 57, 127
2, 118480, Note_on_c, 1, 76, 127
2, 118800, Note_off_c, 1, 76, 0
2, 118840, Note_off_c, 1, 45, 0
2, 118840, Note_off_c, 1, 57, 0
2, 118880, Note_on_c, 1, 45, 127
2, 118880, Note_on_c, 1, 57, 127
2, 118880, Note_on_c, 1, 76, 127
2, 119440, Note_off_c, 1, 45, 0
2, 119440, Note_off_c, 1, 57, 0
2, 119440, Note_off_c, 1, 76, 0
2, 119480, Note_on_c, 1, 41, 127
2, 119480, Note_on_c, 1, 80, 127
2, 119480, Note_on_c, 1, 84, 127
2, 119480, Note_on_c, 1, 89, 127
2, 119480, Note_on_c, 1, 92, 127
2, 120000, Note_off_c, 1, 41, 0
2, 120000, Note_off_c, 1, 80, 0
2, 120000, Note_off_c, 1, 84, 0
2, 120000, Note_off_c, 1, 89, 0
2, 120000, Note_off_c, 1, 92, 0
2, 120040, End_track
3, 0, Start_track
3, 0, Title_t, "MIDI"
3, 1536, End_track
0, 0, End_of_file
