0, 0, Header, 1, 3, 192
1, 0, Start_track
1, 0, Time_signature, 4, 2, 24, 8
1, 0, Tempo, 500000
1, 120040, End_track
2, 0, Start_track
2, 0, Text_t, "random instrument: random person i dunno whatev"
2, 0, Title_t, "Track 1"
2, 0, Note_on_c, 1, 58, 127
2, 0, Note_on_c, 1, 66, 127
2, 0, Note_on_c, 1, 78, 127
2, 0, Note_on_c, 1, 82, 127
2, 0, Note_on_c, 1, 90, 127
2, 40, Note_off_c, 1, 58, 0
2, 40, Note_on_c, 1, 59, 127
2, 40, Note_off_c, 1, 66, 0
2, 40, Note_on_c, 1, 74, 127
2, 40, Note_off_c, 1, 82, 0
2, 40, Note_on_c, 1, 83, 127
2, 40, Note_on_c, 1, 86, 127
2, 40, Note_off_c, 1, 90, 0
2, 80, Note_off_c, 1, 59, 0
2, 80, Note_off_c, 1, 74, 0
2, 80, Note_off_c, 1, 78, 0
2, 80, Note_off_c, 1, 83, 0
2, 80, Note_off_c, 1, 86, 0
2, 120, Note_on_c, 1, 58, 127
2, 120, Note_on_c, 1, 66, 127
2, 120, Note_on_c, 1, 78, 127
2, 120, Note_on_c, 1, 82, 127
2, 120, Note_on_c, 1, 90, 127
2, 360, Note_off_c, 1, 58, 0
2, 360, Note_off_c, 1, 66, 0
2, 360, Note_off_c, 1, 78, 0
2, 360, Note_off_c, 1, 82, 0
2, 360, Note_off_c, 1, 90, 0
2, 400, Note_on_c, 1, 51, 127
2, 400, Note_on_c, 1, 59, 127
2, 400, Note_on_c, 1, 71, 127
2, 400, Note_on_c, 1, 75, 127
2, 840, Note_off_c, 1, 51, 0
2, 840, Note_off_c, 1, 59, 0
2, 840, Note_off_c, 1, 71, 0
2, 840, Note_off_c, 1, 75, 0
2, 880, Note_on_c, 1, 44, 127
2, 880, Note_on_c, 1, 51, 127
2, 880, Note_on_c, 1, 63, 127
2, 880, Note_on_c, 1, 68, 127
2, 1640, Note_off_c, 1, 44, 0
2, 1640, Note_off_c, 1, 51, 0
2, 1640, Note_off_c, 1, 63, 0
2, 1640, Note_off_c, 1, 68, 0
2, 1680, Note_on_c, 1, 39, 127
2, 1680, Note_on_c, 1, 67, 127
2, 1680, Note_on_c, 1, 70, 127
2, 2040, Note_off_c, 1, 39, 0
2, 2040, Note_off_c, 1, 67, 0
2, 2040, Note_off_c, 1, 70, 0
2, 2080, Note_on_c, 1, 51, 127
2, 2080, Note_on_c, 1, 67, 127
2, 2280, Note_off_c, 1, 51, 0
2, 2280, Note_off_c, 1, 67, 0
2, 2360, Note_on_c, 1, 51, 127
2, 2360, Note_on_c, 1, 67, 127
2, 2520, Note_off_c, 1, 67, 0
2, 2560, Note_on_c, 1, 70, 127
2, 2760, Note_off_c, 1, 51, 0
2, 2760, Note_off_c, 1, 70, 0
2, 2800, Note_on_c, 1, 48, 127
2, 2800, Note_on_c, 1, 67, 127
2, 2800, Note_on_c, 1, 72, 127
2, 3160, Note_off_c, 1, 48, 0
2, 3160, Note_off_c, 1, 67, 0
2, 3160, Note_off_c, 1, 72, 0
2, 3200, Note_on_c, 1, 48, 127
2, 3200, Note_on_c, 1, 55, 127
2, 3200, Note_on_c, 1, 63, 127
2, 3200, Note_on_c, 1, 75, 127
2, 3960, Note_off_c, 1, 48, 0
2, 3960, Note_off_c, 1, 55, 0
2, 3960, Note_off_c, 1, 63, 0
2, 3960, Note_off_c, 1, 75, 0
2, 4000, Note_on_c, 1, 46, 127
2, 4000, Note_on_c, 1, 51, 127
2, 4000, Note_on_c, 1, 67, 127
2, 4000, Note_on_c, 1, 75, 127
2, 4000, Note_on_c, 1, 79, 127
2, 4400, Note_off_c, 1, 46, 0
2, 4400, Note_off_c, 1, 51, 0
2, 4400, Note_off_c, 1, 67, 0
2, 4400, Note_off_c, 1, 75, 0
2, 4400, Note_off_c, 1, 79, 0
2, 4480, Note_on_c, 1, 46, 127
2, 4480, Note_on_c, 1, 51, 127
2, 4480, Note_on_c, 1, 67, 127
2, 4480, Note_on_c, 1, 75, 127
2, 4480, Note_on_c, 1, 79, 127
2, 4840, Note_off_c, 1, 46, 0
2, 4840, Note_off_c, 1, 51, 0
2, 4840, Note_off_c, 1, 67, 0
2, 4840, Note_off_c, 1, 75, 0
2, 4840, Note_off_c, 1, 79, 0
2, 4880, Note_on_c, 1, 46, 127
2, 4880, Note_on_c, 1, 51, 127
2, 4880, Note_on_c, 1, 67, 127
2, 4880, Note_on_c, 1, 75, 127
2, 4880, Note_on_c, 1, 79, 127
2, 5240, Note_off_c, 1, 46, 0
2, 5240, Note_off_c, 1, 51, 0
2, 5240, Note_off_c, 1, 67, 0
2, 5240, Note_off_c, 1, 75, 0
2, 5240, Note_off_c, 1, 79, 0
2, 5280, Note_on_c, 1, 46, 127
2, 5280, Note_on_c, 1, 51, 127
2, 5280, Note_on_c, 1, 67, 127
2, 5280, Note_on_c, 1, 75, 127
2, 5280, Note_on_c, 1, 79, 127
2, 5640, Note_off_c, 1, 46, 0
2, 5640, Note_off_c, 1, 51, 0
2, 5640, Note_off_c, 1, 67, 0
2, 5640, Note_off_c, 1, 75, 0
2, 5640, Note_off_c, 1, 79, 0
2, 5680, Note_on_c, 1, 46, 127
2, 5680, Note_on_c, 1, 51, 127
2, 5680, Note_on_c, 1, 67, 127
2, 5680, Note_on_c, 1, 75, 127
2, 5680, Note_on_c, 1, 79, 127
2, 6040, Note_off_c, 1, 46, 0
2, 6040, Note_off_c, 1, 51, 0
2, 6040, Note_off_c, 1, 67, 0
2, 6040, Note_off_c, 1, 75, 0
2, 6040, Note_off_c, 1, 79, 0
2, 6080, Note_on_c, 1, 46, 127
2, 6080, Note_on_c, 1, 51, 127
2, 6080, Note_on_c, 1, 67, 127
2, 6080, Note_on_c, 1, 75, 127
2, 6080, Note_on_c, 1, 79, 127
2, 6440, Note_off_c, 1, 46, 0
2, 6440, Note_off_c, 1, 51, 0
2, 6440, Note_off_c, 1, 67, 0
2, 6440, Note_off_c, 1, 75, 0
2, 6440, Note_off_c, 1, 79, 0
2, 6480, Note_on_c, 1, 46, 127
2, 6480, Note_on_c, 1, 51, 127
2, 6480, Note_on_c, 1, 67, 127
2, 6480, Note_on_c, 1, 75, 127
2, 6480, Note_on_c, 1, 79, 127
2, 6840, Note_off_c, 1, 46, 0
2, 6840, Note_off_c, 1, 51, 0
2, 6840, Note_off_c, 1, 67, 0
2, 6840, Note_off_c, 1, 75, 0
2, 6840, Note_off_c, 1, 79, 0
2, 6920, Note_on_c, 1, 46, 127
2, 6920, Note_on_c, 1, 51, 127
2, 6920, Note_on_c, 1, 67, 127
2, 6920, Note_on_c, 1, 75, 127
2, 6920, Note_on_c, 1, 79, 127
2, 7280, Note_off_c, 1, 46, 0
2, 7280, Note_off_c, 1, 51, 0
2, 7280, Note_off_c, 1, 67, 0
2, 7280, Note_off_c, 1, 75, 0
2, 7280, Note_off_c, 1, 79, 0
2, 7320, Note_on_c, 1, 46, 127
2, 7320, Note_on_c, 1, 51, 127
2, 7320, Note_on_c, 1, 67, 127
2, 7320, Note_on_c, 1, 75, 127
2, 7320, Note_on_c, 1, 79, 127
2, 7680, Note_off_c, 1, 46, 0
2, 7680, Note_off_c, 1, 51, 0
2, 7680, Note_off_c, 1, 67, 0
2, 7680, Note_off_c, 1, 75, 0
2, 7680, Note_off_c, 1, 79, 0
2, 7720, Note_on_c, 1, 46, 127
2, 7720, Note_on_c, 1, 51, 127
2, 7720, Note_on_c, 1, 67, 127
2, 7720, Note_on_c, 1, 75, 127
2, 7720, Note_on_c, 1, 79, 127
2, 8080, Note_off_c, 1, 46, 0
2, 8080, Note_off_c, 1, 51, 0
2, 8080, Note_off_c, 1, 67, 0
2, 8080, Note_off_c, 1, 75, 0
2, 8080, Note_off_c, 1, 79, 0
2, 8120, Note_on_c, 1, 46, 127
2, 8120, Note_on_c, 1, 51, 127
2, 8120, Note_on_c, 1, 67, 127
2, 8120, Note_on_c, 1, 75, 127
2, 8120, Note_on_c, 1, 79, 127
2, 8440, Note_on_c, 1, 33, 127
2, 8440, Note_on_c, 1, 45, 127
2, 8440, Note_off_c, 1, 46, 0
2, 8440, Note_off_c, 1, 51, 0
2, 8440, Note_on_c, 1, 73, 127
2, 8440, Note_off_c, 1, 75, 0
2, 8480, Note_off_c, 1, 33, 0
2, 8480, Note_off_c, 1, 45, 0
2, 8480, Note_off_c, 1, 67, 0
2, 8480, Note_off_c, 1, 73, 0
2, 8480, Note_off_c, 1, 79, 0
2, 8520, Note_on_c, 1, 46, 127
2, 8520, Note_on_c, 1, 51, 127
2, 8520, Note_on_c, 1, 67, 127
2, 8520, Note_on_c, 1, 75, 127
2, 8520, Note_on_c, 1, 79, 127
2, 8880, Note_off_c, 1, 46, 0
2, 8880, Note_off_c, 1, 51, 0
2, 8880, Note_off_c, 1, 67, 0
2, 8880, Note_off_c, 1, 75, 0
2, 8880, Note_off_c, 1, 79, 0
2, 8920, Note_on_c, 1, 46, 127
2, 8920, Note_on_c, 1, 51, 127
2, 8920, Note_on_c, 1, 67, 127
2, 8920, Note_on_c, 1, 75, 127
2, 8920, Note_on_c, 1, 79, 127
2, 9120, Note_off_c, 1, 46, 0
2, 9120, Note_off_c, 1, 51, 0
2, 9120, Note_off_c, 1, 67, 0
2, 9120, Note_off_c, 1, 75, 0
2, 9120, Note_off_c, 1, 79, 0
2, 9160, Note_on_c, 1, 46, 127
2, 9160, Note_on_c, 1, 51, 127
2, 9160, Note_on_c, 1, 67, 127
2, 9160, Note_on_c, 1, 75, 127
2, 9160, Note_on_c, 1, 79, 127
2, 9320, Note_off_c, 1, 46, 0
2, 9320, Note_off_c, 1, 51, 0
2, 9320, Note_off_c, 1, 67, 0
2, 9320, Note_off_c, 1, 75, 0
2, 9320, Note_off_c, 1, 79, 0
2, 9360, Note_on_c, 1, 46, 127
2, 9360, Note_on_c, 1, 51, 127
2, 9360, Note_on_c, 1, 67, 127
2, 9360, Note_on_c, 1, 75, 127
2, 9360, Note_on_c, 1, 79, 127
2, 9720, Note_off_c, 1, 46, 0
2, 9720, Note_off_c, 1, 51, 0
2, 9720, Note_off_c, 1, 67, 0
2, 9720, Note_off_c, 1, 75, 0
2, 9720, Note_off_c, 1, 79, 0
2, 9760, Note_on_c, 1, 46, 127
2, 9760, Note_on_c, 1, 51, 127
2, 9760, Note_on_c, 1, 67, 127
2, 9760, Note_on_c, 1, 75, 127
2, 9760, Note_on_c, 1, 79, 127
2, 10120, Note_off_c, 1, 46, 0
2, 10120, Note_off_c, 1, 51, 0
2, 10120, Note_off_c, 1, 67, 0
2, 10120, Note_off_c, 1, 75, 0
2, 10120, Note_off_c, 1, 79, 0
2, 10160, Note_on_c, 1, 46, 127
2, 10160, Note_on_c, 1, 51, 127
2, 10160, Note_on_c, 1, 67, 127
2, 10160, Note_on_c, 1, 75, 127
2, 10160, Note_on_c, 1, 79, 127
2, 10520, Note_off_c, 1, 46, 0
2, 10520, Note_off_c, 1, 51, 0
2, 10520, Note_off_c, 1, 67, 0
2, 10520, Note_off_c, 1, 75, 0
2, 10520, Note_off_c, 1, 79, 0
2, 10560, Note_on_c, 1, 46, 127
2, 10560, Note_on_c, 1, 51, 127
2, 10560, Note_on_c, 1, 67, 127
2, 10560, Note_on_c, 1, 75, 127
2, 10560, Note_on_c, 1, 79, 127
2, 10920, Note_off_c, 1, 46, 0
2, 10920, Note_off_c, 1, 51, 0
2, 10920, Note_off_c, 1, 67, 0
2, 10920, Note_off_c, 1, 75, 0
2, 10920, Note_off_c, 1, 79, 0
2, 10960, Note_on_c, 1, 46, 127
2, 10960, Note_on_c, 1, 51, 127
2, 10960, Note_on_c, 1, 67, 127
2, 10960, Note_on_c, 1, 75, 127
2, 10960, Note_on_c, 1, 79, 127
2, 11320, Note_off_c, 1, 46, 0
2, 11320, Note_off_c, 1, 51, 0
2, 11320, Note_off_c, 1, 67, 0
2, 11320, Note_off_c, 1, 75, 0
2, 11320, Note_off_c, 1, 79, 0
2, 11400, Note_on_c, 1, 46, 127
2, 11400, Note_on_c, 1, 51, 127
2, 11400, Note_on_c, 1, 67, 127
2, 11400, Note_on_c, 1, 75, 127
2, 11400, Note_on_c, 1, 79, 127
2, 11760, Note_off_c, 1, 46, 0
2, 11760, Note_off_c, 1, 51, 0
2, 11760, Note_off_c, 1, 67, 0
2, 11760, Note_off_c, 1, 75, 0
2, 11760, Note_off_c, 1, 79, 0
2, 11800, Note_on_c, 1, 46, 127
2, 11800, Note_on_c, 1, 51, 127
2, 11800, Note_on_c, 1, 67, 127
2, 11800, Note_on_c, 1, 75, 127
2, 11800, Note_on_c, 1, 79, 127
2, 12160, Note_off_c, 1, 46, 0
2, 12160, Note_off_c, 1, 51, 0
2, 12160, Note_off_c, 1, 67, 0
2, 12160, Note_off_c, 1, 75, 0
2, 12160, Note_off_c, 1, 79, 0
2, 12200, Note_on_c, 1, 46, 127
2, 12200, Note_on_c, 1, 51, 127
2, 12200, Note_on_c, 1, 67, 127
2, 12200, Note_on_c, 1, 75, 127
2, 12200, Note_on_c, 1, 79, 127
2, 12560, Note_off_c, 1, 46, 0
2, 12560, Note_off_c, 1, 51, 0
2, 12560, Note_off_c, 1, 67, 0
2, 12560, Note_off_c, 1, 75, 0
2, 12560, Note_off_c, 1, 79, 0
2, 12600, Note_on_c, 1, 46, 127
2, 12600, Note_on_c, 1, 51, 127
2, 12600, Note_on_c, 1, 67, 127
2, 12600, Note_on_c, 1, 75, 127
2, 12600, Note_on_c, 1, 79, 127
2, 12960, Note_off_c, 1, 46, 0
2, 12960, Note_off_c, 1, 51, 0
2, 12960, Note_off_c, 1, 67, 0
2, 12960, Note_off_c, 1, 75, 0
2, 12960, Note_off_c, 1, 79, 0
2, 13000, Note_on_c, 1, 46, 127
2, 13000, Note_on_c, 1, 51, 127
2, 13000, Note_on_c, 1, 67, 127
2, 13000, Note_on_c, 1, 75, 127
2, 13000, Note_on_c, 1, 79, 127
2, 13360, Note_off_c, 1, 46, 0
2, 13360, Note_off_c, 1, 51, 0
2, 13360, Note_off_c, 1, 67, 0
2, 13360, Note_off_c, 1, 75, 0
2, 13360, Note_off_c, 1, 79, 0
2, 13400, Note_on_c, 1, 46, 127
2, 13400, Note_on_c, 1, 51, 127
2, 13400, Note_on_c, 1, 67, 127
2, 13400, Note_on_c, 1, 75, 127
2, 13400, Note_on_c, 1, 79, 127
2, 13680, Note_off_c, 1, 46, 0
2, 13680, Note_off_c, 1, 51, 0
2, 13680, Note_off_c, 1, 67, 0
2, 13680, Note_off_c, 1, 75, 0
2, 13680, Note_off_c, 1, 79, 0
2, 13720, Note_on_c, 1, 46, 127
2, 13720, Note_on_c, 1, 51, 127
2, 13720, Note_on_c, 1, 67, 127
2, 13720, Note_on_c, 1, 75, 127
2, 13720, Note_on_c, 1, 79, 127
2, 13800, Note_off_c, 1, 46, 0
2, 13800, Note_off_c, 1, 51, 0
2, 13800, Note_off_c, 1, 67, 0
2, 13800, Note_off_c, 1, 75, 0
2, 13800, Note_off_c, 1, 79, 0
2, 13840, Note_on_c, 1, 46, 127
2, 13840, Note_on_c, 1, 51, 127
2, 13840, Note_on_c, 1, 67, 127
2, 13840, Note_on_c, 1, 75, 127
2, 13840, Note_on_c, 1, 79, 127
2, 14200, Note_off_c, 1, 46, 0
2, 14200, Note_off_c, 1, 51, 0
2, 14200, Note_off_c, 1, 67, 0
2, 14200, Note_off_c, 1, 75, 0
2, 14200, Note_off_c, 1, 79, 0
2, 14240, Note_on_c, 1, 46, 127
2, 14240, Note_on_c, 1, 51, 127
2, 14240, Note_on_c, 1, 67, 127
2, 14240, Note_on_c, 1, 75, 127
2, 14240, Note_on_c, 1, 79, 127
2, 14600, Note_off_c, 1, 46, 0
2, 14600, Note_off_c, 1, 51, 0
2, 14600, Note_off_c, 1, 67, 0
2, 14600, Note_off_c, 1, 75, 0
2, 14600, Note_off_c, 1, 79, 0
2, 14640, Note_on_c, 1, 46, 127
2, 14640, Note_on_c, 1, 51, 127
2, 14640, Note_on_c, 1, 67, 127
2, 14640, Note_on_c, 1, 75, 127
2, 14640, Note_on_c, 1, 79, 127
2, 15000, Note_off_c, 1, 46, 0
2, 15000, Note_off_c, 1, 51, 0
2, 15000, Note_off_c, 1, 67, 0
2, 15000, Note_off_c, 1, 75, 0
2, 15000, Note_off_c, 1, 79, 0
2, 15040, Note_on_c, 1, 46, 127
2, 15040, Note_on_c, 1, 51, 127
2, 15040, Note_on_c, 1, 67, 127
2, 15040, Note_on_c, 1, 75, 127
2, 15040, Note_on_c, 1, 79, 127
2, 15400, Note_off_c, 1, 46, 0
2, 15400, Note_off_c, 1, 51, 0
2, 15400, Note_off_c, 1, 67, 0
2, 15400, Note_off_c, 1, 75, 0
2, 15400, Note_off_c, 1, 79, 0
2, 15440, Note_on_c, 1, 46, 127
2, 15440, Note_on_c, 1, 51, 127
2, 15440, Note_on_c, 1, 67, 127
2, 15440, Note_on_c, 1, 75, 127
2, 15440, Note_on_c, 1, 79, 127
2, 15800, Note_off_c, 1, 46, 0
2, 15800, Note_off_c, 1, 51, 0
2, 15800, Note_off_c, 1, 67, 0
2, 15800, Note_off_c, 1, 75, 0
2, 15800, Note_off_c, 1, 79, 0
2, 15880, Note_on_c, 1, 59, 127
2, 15880, Note_on_c, 1, 66, 127
2, 15880, Note_on_c, 1, 69, 127
2, 15880, Note_on_c, 1, 78, 127
2, 15880, Note_on_c, 1, 81, 127
2, 16240, Note_off_c, 1, 59, 0
2, 16240, Note_off_c, 1, 66, 0
2, 16240, Note_off_c, 1, 69, 0
2, 16240, Note_off_c, 1, 78, 0
2, 16240, Note_off_c, 1, 81, 0
2, 16280, Note_on_c, 1, 48, 127
2, 16280, Note_on_c, 1, 55, 127
2, 16280, Note_on_c, 1, 67, 127
2, 16280, Note_on_c, 1, 72, 127
2, 16280, Note_on_c, 1, 79, 127
2, 16640, Note_off_c, 1, 48, 0
2, 16640, Note_off_c, 1, 55, 0
2, 16640, Note_off_c, 1, 67, 0
2, 16640, Note_off_c, 1, 72, 0
2, 16640, Note_off_c, 1, 79, 0
2, 16680, Note_on_c, 1, 55, 127
2, 16680, Note_on_c, 1, 62, 127
2, 16680, Note_on_c, 1, 67, 127
2, 16680, Note_on_c, 1, 94, 127
2, 16720, Note_off_c, 1, 55, 0
2, 16720, Note_off_c, 1, 62, 0
2, 16720, Note_on_c, 1, 63, 127
2, 16720, Note_off_c, 1, 67, 0
2, 16720, Note_on_c, 1, 72, 127
2, 16720, Note_on_c, 1, 76, 127
2, 16720, Note_off_c, 1, 94, 0
2, 16760, Note_on_c, 1, 59, 127
2, 16760, Note_on_c, 1, 62, 127
2, 16760, Note_off_c, 1, 63, 0
2, 16760, Note_on_c, 1, 64, 127
2, 16760, Note_on_c, 1, 68, 127
2, 16760, Note_on_c, 1, 71, 127
2, 16760, Note_off_c, 1, 72, 0
2, 16760, Note_on_c, 1, 74, 127
2, 16760, Note_on_c, 1, 83, 127
2, 16800, Note_off_c, 1, 59, 0
2, 16800, Note_off_c, 1, 62, 0
2, 16800, Note_on_c, 1, 63, 127
2, 16800, Note_off_c, 1, 64, 0
2, 16800, Note_off_c, 1, 68, 0
2, 16800, Note_off_c, 1, 71, 0
2, 16800, Note_on_c, 1, 72, 127
2, 16800, Note_off_c, 1, 74, 0
2, 16800, Note_off_c, 1, 83, 0
2, 17040, Note_off_c, 1, 63, 0
2, 17040, Note_off_c, 1, 72, 0
2, 17040, Note_off_c, 1, 76, 0
2, 17080, Note_on_c, 1, 56, 127
2, 17080, Note_on_c, 1, 63, 127
2, 17080, Note_on_c, 1, 80, 127
2, 17080, Note_on_c, 1, 84, 127
2, 17400, Note_off_c, 1, 56, 0
2, 17400, Note_off_c, 1, 63, 0
2, 17400, Note_off_c, 1, 80, 0
2, 17400, Note_off_c, 1, 84, 0
2, 17480, Note_on_c, 1, 52, 127
2, 17480, Note_on_c, 1, 64, 127
2, 17480, Note_on_c, 1, 66, 127
2, 17480, Note_on_c, 1, 68, 127
2, 17520, Note_on_c, 1, 38, 127
2, 17520, Note_off_c, 1, 52, 0
2, 17520, Note_on_c, 1, 58, 127
2, 17520, Note_on_c, 1, 62, 127
2, 17520, Note_off_c, 1, 64, 0
2, 17520, Note_off_c, 1, 66, 0
2, 17520, Note_off_c, 1, 68, 0
2, 17520, Note_on_c, 1, 70, 127
2, 17560, Note_off_c, 1, 38, 0
2, 17560, Note_off_c, 1, 58, 0
2, 17560, Note_off_c, 1, 70, 0
2, 17560, Note_on_c, 1, 72, 127
2, 17560, Note_on_c, 1, 75, 127
2, 17560, Note_on_c, 1, 82, 127
2, 17600, Note_on_c, 1, 50, 127
2, 17600, Note_on_c, 1, 58, 127
2, 17600, Note_off_c, 1, 62, 0
2, 17600, Note_on_c, 1, 65, 127
2, 17600, Note_on_c, 1, 70, 127
2, 17600, Note_off_c, 1, 72, 0
2, 17600, Note_off_c, 1, 75, 0
2, 17640, Note_on_c, 1, 34, 127
2, 17640, Note_off_c, 1, 50, 0
2, 17640, Note_off_c, 1, 58, 0
2, 17640, Note_on_c, 1, 60, 127
2, 17640, Note_off_c, 1, 65, 0
2, 17640, Note_on_c, 1, 68, 127
2, 17640, Note_off_c, 1, 70, 0
2, 17640, Note_on_c, 1, 73, 127
2, 17640, Note_on_c, 1, 79, 127
2, 17640, Note_off_c, 1, 82, 0
2, 17680, Note_off_c, 1, 34, 0
2, 17680, Note_on_c, 1, 59, 127
2, 17680, Note_off_c, 1, 60, 0
2, 17680, Note_on_c, 1, 63, 127
2, 17680, Note_off_c, 1, 73, 0
2, 17720, Note_on_c, 1, 38, 127
2, 17720, Note_off_c, 1, 59, 0
2, 17720, Note_off_c, 1, 63, 0
2, 17720, Note_off_c, 1, 68, 0
2, 17720, Note_off_c, 1, 79, 0
2, 17720, Note_on_c, 1, 90, 127
2, 17720, Note_on_c, 1, 96, 127
2, 17760, Note_off_c, 1, 38, 0
2, 17760, Note_on_c, 1, 64, 127
2, 17760, Note_off_c, 1, 90, 0
2, 17760, Note_on_c, 1, 92, 127
2, 17800, Note_off_c, 1, 64, 0
2, 17800, Note_off_c, 1, 92, 0
2, 17800, Note_off_c, 1, 96, 0
2, 17920, Note_on_c, 1, 58, 127
2, 17920, Note_on_c, 1, 62, 127
2, 17920, Note_on_c, 1, 65, 127
2, 17920, Note_on_c, 1, 70, 127
2, 17920, Note_on_c, 1, 74, 127
2, 17920, Note_on_c, 1, 79, 127
2, 18280, Note_off_c, 1, 58, 0
2, 18280, Note_off_c, 1, 62, 0
2, 18280, Note_off_c, 1, 65, 0
2, 18280, Note_off_c, 1, 70, 0
2, 18280, Note_off_c, 1, 74, 0
2, 18320, Note_on_c, 1, 58, 127
2, 18320, Note_on_c, 1, 62, 127
2, 18320, Note_on_c, 1, 65, 127
2, 18320, Note_on_c, 1, 70, 127
2, 18320, Note_on_c, 1, 74, 127
2, 18640, Note_off_c, 1, 58, 0
2, 18640, Note_off_c, 1, 62, 0
2, 18640, Note_off_c, 1, 65, 0
2, 18640, Note_off_c, 1, 70, 0
2, 18640, Note_off_c, 1, 74, 0
2, 18640, Note_off_c, 1, 79, 0
2, 18640, Note_on_c, 1, 82, 127
2, 18680, Note_off_c, 1, 82, 0
2, 18720, Note_on_c, 1, 48, 127
2, 18720, Note_on_c, 1, 55, 127
2, 18720, Note_on_c, 1, 72, 127
2, 18720, Note_on_c, 1, 76, 127
2, 18720, Note_on_c, 1, 82, 127
2, 18720, Note_on_c, 1, 84, 127
2, 18760, Note_on_c, 1, 42, 127
2, 18760, Note_off_c, 1, 48, 0
2, 18760, Note_on_c, 1, 54, 127
2, 18760, Note_off_c, 1, 55, 0
2, 18760, Note_on_c, 1, 61, 127
2, 18760, Note_off_c, 1, 72, 0
2, 18760, Note_off_c, 1, 82, 0
2, 18760, Note_off_c, 1, 84, 0
2, 18760, Note_on_c, 1, 88, 127
2, 18800, Note_off_c, 1, 42, 0
2, 18800, Note_on_c, 1, 48, 127
2, 18800, Note_off_c, 1, 54, 0
2, 18800, Note_on_c, 1, 55, 127
2, 18800, Note_off_c, 1, 61, 0
2, 18800, Note_on_c, 1, 72, 127
2, 18800, Note_on_c, 1, 82, 127
2, 18800, Note_on_c, 1, 84, 127
2, 18800, Note_off_c, 1, 88, 0
2, 19000, Note_off_c, 1, 48, 0
2, 19000, Note_on_c, 1, 51, 127
2, 19000, Note_off_c, 1, 55, 0
2, 19000, Note_on_c, 1, 58, 127
2, 19000, Note_off_c, 1, 72, 0
2, 19000, Note_off_c, 1, 76, 0
2, 19000, Note_off_c, 1, 82, 0
2, 19000, Note_off_c, 1, 84, 0
2, 19000, Note_on_c, 1, 91, 127
2, 19040, Note_off_c, 1, 51, 0
2, 19040, Note_off_c, 1, 58, 0
2, 19040, Note_off_c, 1, 91, 0
2, 19080, Note_on_c, 1, 49, 127
2, 19080, Note_on_c, 1, 56, 127
2, 19080, Note_on_c, 1, 59, 127
2, 19080, Note_on_c, 1, 82, 127
2, 19120, Note_on_c, 1, 47, 127
2, 19120, Note_off_c, 1, 49, 0
2, 19120, Note_on_c, 1, 52, 127
2, 19120, Note_off_c, 1, 56, 0
2, 19120, Note_on_c, 1, 62, 127
2, 19120, Note_on_c, 1, 66, 127
2, 19120, Note_on_c, 1, 74, 127
2, 19120, Note_on_c, 1, 78, 127
2, 19120, Note_off_c, 1, 82, 0
2, 19160, Note_off_c, 1, 47, 0
2, 19160, Note_on_c, 1, 49, 127
2, 19160, Note_off_c, 1, 52, 0
2, 19160, Note_on_c, 1, 56, 127
2, 19160, Note_off_c, 1, 62, 0
2, 19160, Note_off_c, 1, 66, 0
2, 19160, Note_off_c, 1, 74, 0
2, 19160, Note_off_c, 1, 78, 0
2, 19160, Note_on_c, 1, 82, 127
2, 19440, Note_off_c, 1, 49, 0
2, 19440, Note_off_c, 1, 56, 0
2, 19440, Note_off_c, 1, 59, 0
2, 19440, Note_off_c, 1, 82, 0
2, 19480, Note_on_c, 1, 45, 127
2, 19480, Note_on_c, 1, 57, 127
2, 19480, Note_on_c, 1, 71, 127
2, 19480, Note_on_c, 1, 78, 127
2, 19480, Note_on_c, 1, 81, 127
2, 19840, Note_off_c, 1, 45, 0
2, 19840, Note_off_c, 1, 57, 0
2, 19840, Note_off_c, 1, 71, 0
2, 19840, Note_off_c, 1, 78, 0
2, 19840, Note_off_c, 1, 81, 0
2, 19920, Note_on_c, 1, 55, 127
2, 19920, Note_on_c, 1, 67, 127
2, 19920, Note_on_c, 1, 72, 127
2, 19920, Note_on_c, 1, 76, 127
2, 19920, Note_on_c, 1, 84, 127
2, 20240, Note_off_c, 1, 55, 0
2, 20240, Note_off_c, 1, 67, 0
2, 20240, Note_off_c, 1, 72, 0
2, 20240, Note_off_c, 1, 76, 0
2, 20240, Note_off_c, 1, 84, 0
2, 20320, Note_on_c, 1, 45, 127
2, 20320, Note_on_c, 1, 52, 127
2, 20320, Note_on_c, 1, 57, 127
2, 20320, Note_on_c, 1, 73, 127
2, 20320, Note_on_c, 1, 76, 127
2, 20320, Note_on_c, 1, 85, 127
2, 20680, Note_off_c, 1, 45, 0
2, 20680, Note_off_c, 1, 52, 0
2, 20680, Note_off_c, 1, 57, 0
2, 20680, Note_off_c, 1, 73, 0
2, 20680, Note_off_c, 1, 76, 0
2, 20680, Note_off_c, 1, 85, 0
2, 20720, Note_on_c, 1, 45, 127
2, 20720, Note_on_c, 1, 52, 127
2, 20720, Note_on_c, 1, 57, 127
2, 20720, Note_on_c, 1, 73, 127
2, 20720, Note_on_c, 1, 76, 127
2, 20720, Note_on_c, 1, 85, 127
2, 21080, Note_off_c, 1, 45, 0
2, 21080, Note_off_c, 1, 52, 0
2, 21080, Note_off_c, 1, 57, 0
2, 21080, Note_off_c, 1, 73, 0
2, 21080, Note_off_c, 1, 76, 0
2, 21080, Note_off_c, 1, 85, 0
2, 21120, Note_on_c, 1, 45, 127
2, 21120, Note_on_c, 1, 52, 127
2, 21120, Note_on_c, 1, 57, 127
2, 21120, Note_on_c, 1, 73, 127
2, 21120, Note_on_c, 1, 76, 127
2, 21120, Note_on_c, 1, 85, 127
2, 21480, Note_off_c, 1, 45, 0
2, 21480, Note_off_c, 1, 52, 0
2, 21480, Note_off_c, 1, 57, 0
2, 21480, Note_off_c, 1, 73, 0
2, 21480, Note_off_c, 1, 76, 0
2, 21480, Note_off_c, 1, 85, 0
2, 21520, Note_on_c, 1, 45, 127
2, 21520, Note_on_c, 1, 52, 127
2, 21520, Note_on_c, 1, 57, 127
2, 21520, Note_on_c, 1, 73, 127
2, 21520, Note_on_c, 1, 76, 127
2, 21520, Note_on_c, 1, 85, 127
2, 21880, Note_off_c, 1, 45, 0
2, 21880, Note_off_c, 1, 52, 0
2, 21880, Note_off_c, 1, 57, 0
2, 21880, Note_off_c, 1, 73, 0
2, 21880, Note_off_c, 1, 76, 0
2, 21880, Note_off_c, 1, 85, 0
2, 21920, Note_on_c, 1, 45, 127
2, 21920, Note_on_c, 1, 52, 127
2, 21920, Note_on_c, 1, 57, 127
2, 21920, Note_on_c, 1, 73, 127
2, 21920, Note_on_c, 1, 76, 127
2, 21920, Note_on_c, 1, 85, 127
2, 22280, Note_off_c, 1, 45, 0
2, 22280, Note_off_c, 1, 52, 0
2, 22280, Note_off_c, 1, 57, 0
2, 22280, Note_off_c, 1, 73, 0
2, 22280, Note_off_c, 1, 76, 0
2, 22280, Note_off_c, 1, 85, 0
2, 22360, Note_on_c, 1, 61, 127
2, 22360, Note_on_c, 1, 64, 127
2, 22360, Note_on_c, 1, 69, 127
2, 22360, Note_on_c, 1, 73, 127
2, 22360, Note_on_c, 1, 85, 127
2, 22520, Note_on_c, 1, 81, 127
2, 22520, Note_off_c, 1, 85, 0
2, 22720, Note_off_c, 1, 61, 0
2, 22720, Note_off_c, 1, 64, 0
2, 22720, Note_off_c, 1, 69, 0
2, 22720, Note_off_c, 1, 73, 0
2, 22720, Note_off_c, 1, 81, 0
2, 22760, Note_on_c, 1, 64, 127
2, 22760, Note_on_c, 1, 68, 127
2, 22760, Note_on_c, 1, 76, 127
2, 22760, Note_on_c, 1, 83, 127
2, 23000, Note_off_c, 1, 68, 0
2, 23000, Note_off_c, 1, 83, 0
2, 23120, Note_off_c, 1, 64, 0
2, 23120, Note_off_c, 1, 76, 0
2, 23160, Note_on_c, 1, 44, 127
2, 23160, Note_on_c, 1, 54, 127
2, 23160, Note_on_c, 1, 56, 127
2, 23160, Note_on_c, 1, 71, 127
2, 23160, Note_on_c, 1, 78, 127
2, 23160, Note_on_c, 1, 83, 127
2, 23520, Note_off_c, 1, 44, 0
2, 23520, Note_off_c, 1, 54, 0
2, 23520, Note_off_c, 1, 56, 0
2, 23520, Note_off_c, 1, 71, 0
2, 23520, Note_off_c, 1, 78, 0
2, 23520, Note_off_c, 1, 83, 0
2, 23560, Note_on_c, 1, 44, 127
2, 23560, Note_on_c, 1, 54, 127
2, 23560, Note_on_c, 1, 56, 127
2, 23560, Note_on_c, 1, 71, 127
2, 23560, Note_on_c, 1, 78, 127
2, 23560, Note_on_c, 1, 83, 127
2, 23920, Note_off_c, 1, 44, 0
2, 23920, Note_off_c, 1, 54, 0
2, 23920, Note_off_c, 1, 56, 0
2, 23920, Note_off_c, 1, 71, 0
2, 23920, Note_off_c, 1, 78, 0
2, 23920, Note_off_c, 1, 83, 0
2, 23960, Note_on_c, 1, 44, 127
2, 23960, Note_on_c, 1, 54, 127
2, 23960, Note_on_c, 1, 56, 127
2, 23960, Note_on_c, 1, 71, 127
2, 23960, Note_on_c, 1, 78, 127
2, 23960, Note_on_c, 1, 83, 127
2, 24280, Note_off_c, 1, 44, 0
2, 24280, Note_off_c, 1, 54, 0
2, 24280, Note_off_c, 1, 56, 0
2, 24280, Note_off_c, 1, 71, 0
2, 24280, Note_off_c, 1, 78, 0
2, 24280, Note_off_c, 1, 83, 0
2, 24400, Note_on_c, 1, 44, 127
2, 24400, Note_on_c, 1, 54, 127
2, 24400, Note_on_c, 1, 56, 127
2, 24400, Note_on_c, 1, 71, 127
2, 24400, Note_on_c, 1, 78, 127
2, 24400, Note_on_c, 1, 83, 127
2, 24720, Note_off_c, 1, 44, 0
2, 24720, Note_off_c, 1, 54, 0
2, 24720, Note_off_c, 1, 56, 0
2, 24720, Note_off_c, 1, 71, 0
2, 24720, Note_off_c, 1, 78, 0
2, 24720, Note_off_c, 1, 83, 0
2, 24760, Note_on_c, 1, 40, 127
2, 24760, Note_on_c, 1, 47, 127
2, 24760, Note_on_c, 1, 52, 127
2, 24760, Note_on_c, 1, 63, 127
2, 24760, Note_on_c, 1, 69, 127
2, 24760, Note_on_c, 1, 71, 127
2, 24760, Note_on_c, 1, 75, 127
2, 25520, Note_off_c, 1, 40, 0
2, 25520, Note_off_c, 1, 47, 0
2, 25520, Note_off_c, 1, 52, 0
2, 25520, Note_off_c, 1, 63, 0
2, 25520, Note_off_c, 1, 69, 0
2, 25520, Note_off_c, 1, 71, 0
2, 25520, Note_off_c, 1, 75, 0
2, 25560, Note_on_c, 1, 62, 127
2, 25560, Note_on_c, 1, 66, 127
2, 25560, Note_on_c, 1, 71, 127
2, 25560, Note_on_c, 1, 78, 127
2, 25560, Note_on_c, 1, 86, 127
2, 25920, Note_off_c, 1, 62, 0
2, 25920, Note_off_c, 1, 66, 0
2, 25920, Note_off_c, 1, 71, 0
2, 25920, Note_off_c, 1, 78, 0
2, 25920, Note_off_c, 1, 86, 0
2, 25960, Note_on_c, 1, 51, 127
2, 25960, Note_on_c, 1, 57, 127
2, 25960, Note_on_c, 1, 66, 127
2, 25960, Note_on_c, 1, 71, 127
2, 26160, Note_off_c, 1, 51, 0
2, 26160, Note_off_c, 1, 57, 0
2, 26160, Note_off_c, 1, 66, 0
2, 26160, Note_off_c, 1, 71, 0
2, 26200, Note_on_c, 1, 51, 127
2, 26200, Note_on_c, 1, 57, 127
2, 26200, Note_on_c, 1, 66, 127
2, 26200, Note_on_c, 1, 71, 127
2, 26320, Note_off_c, 1, 51, 0
2, 26320, Note_off_c, 1, 57, 0
2, 26320, Note_off_c, 1, 66, 0
2, 26320, Note_off_c, 1, 71, 0
2, 26360, Note_on_c, 1, 38, 127
2, 26360, Note_on_c, 1, 50, 127
2, 26360, Note_on_c, 1, 71, 127
2, 26360, Note_on_c, 1, 77, 127
2, 26360, Note_on_c, 1, 83, 127
2, 26400, Note_off_c, 1, 38, 0
2, 26400, Note_off_c, 1, 50, 0
2, 26400, Note_on_c, 1, 64, 127
2, 26400, Note_off_c, 1, 71, 0
2, 26400, Note_off_c, 1, 83, 0
2, 26400, Note_on_c, 1, 84, 127
2, 26400, Note_on_c, 1, 87, 127
2, 26400, Note_on_c, 1, 89, 127
2, 26720, Note_off_c, 1, 64, 0
2, 26720, Note_on_c, 1, 65, 127
2, 26720, Note_off_c, 1, 77, 0
2, 26720, Note_off_c, 1, 84, 0
2, 26720, Note_off_c, 1, 87, 0
2, 26720, Note_off_c, 1, 89, 0
2, 26760, Note_on_c, 1, 55, 127
2, 26760, Note_on_c, 1, 58, 127
2, 26760, Note_off_c, 1, 65, 0
2, 26760, Note_on_c, 1, 66, 127
2, 27120, Note_off_c, 1, 55, 0
2, 27120, Note_off_c, 1, 58, 0
2, 27120, Note_off_c, 1, 66, 0
2, 27160, Note_on_c, 1, 57, 127
2, 27160, Note_on_c, 1, 58, 127
2, 27160, Note_on_c, 1, 63, 127
2, 27160, Note_on_c, 1, 67, 127
2, 27200, Note_on_c, 1, 55, 127
2, 27200, Note_off_c, 1, 57, 0
2, 27200, Note_off_c, 1, 63, 0
2, 27320, Note_off_c, 1, 55, 0
2, 27320, Note_off_c, 1, 58, 0
2, 27320, Note_off_c, 1, 67, 0
2, 27360, Note_on_c, 1, 32, 127
2, 27360, Note_on_c, 1, 44, 127
2, 27360, Note_on_c, 1, 55, 127
2, 27360, Note_on_c, 1, 67, 127
2, 27400, Note_off_c, 1, 32, 0
2, 27400, Note_off_c, 1, 44, 0
2, 27400, Note_off_c, 1, 55, 0
2, 27400, Note_off_c, 1, 67, 0
2, 27560, Note_on_c, 1, 34, 127
2, 27560, Note_on_c, 1, 46, 127
2, 27560, Note_on_c, 1, 55, 127
2, 27560, Note_on_c, 1, 67, 127
2, 27920, Note_off_c, 1, 34, 0
2, 27920, Note_off_c, 1, 46, 0
2, 27920, Note_off_c, 1, 55, 0
2, 27920, Note_off_c, 1, 67, 0
2, 27960, Note_on_c, 1, 44, 127
2, 27960, Note_on_c, 1, 56, 127
2, 27960, Note_on_c, 1, 59, 127
2, 27960, Note_on_c, 1, 68, 127
2, 28280, Note_off_c, 1, 44, 0
2, 28280, Note_off_c, 1, 56, 0
2, 28280, Note_off_c, 1, 59, 0
2, 28280, Note_off_c, 1, 68, 0
2, 28400, Note_on_c, 1, 44, 127
2, 28400, Note_on_c, 1, 56, 127
2, 28400, Note_on_c, 1, 59, 127
2, 28400, Note_on_c, 1, 68, 127
2, 28760, Note_off_c, 1, 44, 0
2, 28760, Note_off_c, 1, 56, 0
2, 28760, Note_off_c, 1, 59, 0
2, 28760, Note_off_c, 1, 68, 0
2, 28800, Note_on_c, 1, 52, 127
2, 28800, Note_on_c, 1, 56, 127
2, 28800, Note_on_c, 1, 59, 127
2, 28800, Note_on_c, 1, 64, 127
2, 29160, Note_off_c, 1, 52, 0
2, 29160, Note_off_c, 1, 56, 0
2, 29160, Note_off_c, 1, 59, 0
2, 29160, Note_off_c, 1, 64, 0
2, 29200, Note_on_c, 1, 65, 127
2, 29200, Note_on_c, 1, 71, 127
2, 29200, Note_on_c, 1, 74, 127
2, 29200, Note_on_c, 1, 93, 127
2, 29560, Note_off_c, 1, 65, 0
2, 29560, Note_off_c, 1, 71, 0
2, 29560, Note_off_c, 1, 74, 0
2, 29560, Note_off_c, 1, 93, 0
2, 29600, Note_on_c, 1, 33, 127
2, 29600, Note_on_c, 1, 45, 127
2, 29600, Note_on_c, 1, 52, 127
2, 29600, Note_on_c, 1, 61, 127
2, 29600, Note_on_c, 1, 64, 127
2, 29960, Note_off_c, 1, 33, 0
2, 29960, Note_off_c, 1, 45, 0
2, 29960, Note_off_c, 1, 52, 0
2, 29960, Note_off_c, 1, 61, 0
2, 29960, Note_off_c, 1, 64, 0
2, 30000, Note_on_c, 1, 47, 127
2, 30000, Note_on_c, 1, 59, 127
2, 30000, Note_on_c, 1, 62, 127
2, 30000, Note_on_c, 1, 66, 127
2, 30000, Note_on_c, 1, 71, 127
2, 30480, Note_off_c, 1, 47, 0
2, 30480, Note_off_c, 1, 59, 0
2, 30480, Note_off_c, 1, 62, 0
2, 30480, Note_off_c, 1, 66, 0
2, 30480, Note_off_c, 1, 71, 0
2, 30520, Note_on_c, 1, 47, 127
2, 30520, Note_on_c, 1, 59, 127
2, 30520, Note_on_c, 1, 62, 127
2, 30520, Note_on_c, 1, 66, 127
2, 30520, Note_on_c, 1, 71, 127
2, 30800, Note_off_c, 1, 47, 0
2, 30800, Note_off_c, 1, 59, 0
2, 30800, Note_off_c, 1, 62, 0
2, 30800, Note_off_c, 1, 66, 0
2, 30800, Note_off_c, 1, 71, 0
2, 30840, Note_on_c, 1, 45, 127
2, 30840, Note_on_c, 1, 53, 127
2, 30840, Note_on_c, 1, 62, 127
2, 30840, Note_on_c, 1, 69, 127
2, 30840, Note_on_c, 1, 74, 127
2, 31200, Note_off_c, 1, 45, 0
2, 31200, Note_off_c, 1, 53, 0
2, 31200, Note_off_c, 1, 62, 0
2, 31200, Note_off_c, 1, 69, 0
2, 31200, Note_off_c, 1, 74, 0
2, 31240, Note_on_c, 1, 75, 127
2, 31240, Note_on_c, 1, 84, 127
2, 31240, Note_on_c, 1, 96, 127
2, 31240, Note_on_c, 1, 104, 127
2, 31280, Note_on_c, 1, 48, 127
2, 31280, Note_on_c, 1, 56, 127
2, 31280, Note_on_c, 1, 60, 127
2, 31280, Note_on_c, 1, 68, 127
2, 31280, Note_on_c, 1, 72, 127
2, 31280, Note_on_c, 1, 74, 127
2, 31280, Note_off_c, 1, 75, 0
2, 31280, Note_on_c, 1, 76, 127
2, 31280, Note_off_c, 1, 84, 0
2, 31280, Note_off_c, 1, 96, 0
2, 31280, Note_off_c, 1, 104, 0
2, 31320, Note_off_c, 1, 48, 0
2, 31320, Note_on_c, 1, 50, 127
2, 31320, Note_on_c, 1, 53, 127
2, 31320, Note_off_c, 1, 56, 0
2, 31320, Note_on_c, 1, 57, 127
2, 31320, Note_off_c, 1, 60, 0
2, 31320, Note_on_c, 1, 62, 127
2, 31320, Note_off_c, 1, 68, 0
2, 31320, Note_on_c, 1, 69, 127
2, 31320, Note_off_c, 1, 72, 0
2, 31320, Note_off_c, 1, 74, 0
2, 31320, Note_off_c, 1, 76, 0
2, 31360, Note_off_c, 1, 50, 0
2, 31360, Note_off_c, 1, 53, 0
2, 31360, Note_off_c, 1, 57, 0
2, 31360, Note_on_c, 1, 60, 127
2, 31360, Note_off_c, 1, 62, 0
2, 31360, Note_on_c, 1, 65, 127
2, 31360, Note_off_c, 1, 69, 0
2, 31360, Note_on_c, 1, 93, 127
2, 31360, Note_on_c, 1, 96, 127
2, 31400, Note_on_c, 1, 36, 127
2, 31400, Note_on_c, 1, 43, 127
2, 31400, Note_on_c, 1, 48, 127
2, 31400, Note_on_c, 1, 63, 127
2, 31400, Note_off_c, 1, 65, 0
2, 31400, Note_on_c, 1, 67, 127
2, 31400, Note_off_c, 1, 93, 0
2, 31400, Note_off_c, 1, 96, 0
2, 31440, Note_off_c, 1, 36, 0
2, 31440, Note_off_c, 1, 43, 0
2, 31440, Note_on_c, 1, 46, 127
2, 31440, Note_off_c, 1, 48, 0
2, 31440, Note_on_c, 1, 52, 127
2, 31440, Note_on_c, 1, 56, 127
2, 31440, Note_off_c, 1, 60, 0
2, 31440, Note_off_c, 1, 63, 0
2, 31440, Note_on_c, 1, 64, 127
2, 31440, Note_off_c, 1, 67, 0
2, 31440, Note_on_c, 1, 68, 127
2, 31480, Note_off_c, 1, 46, 0
2, 31480, Note_on_c, 1, 49, 127
2, 31480, Note_off_c, 1, 52, 0
2, 31480, Note_on_c, 1, 53, 127
2, 31480, Note_off_c, 1, 56, 0
2, 31480, Note_off_c, 1, 64, 0
2, 31480, Note_on_c, 1, 65, 127
2, 31480, Note_off_c, 1, 68, 0
2, 31480, Note_on_c, 1, 73, 127
2, 31520, Note_on_c, 1, 46, 127
2, 31520, Note_off_c, 1, 49, 0
2, 31520, Note_on_c, 1, 52, 127
2, 31520, Note_off_c, 1, 53, 0
2, 31520, Note_on_c, 1, 56, 127
2, 31520, Note_on_c, 1, 64, 127
2, 31520, Note_off_c, 1, 65, 0
2, 31520, Note_on_c, 1, 68, 127
2, 31520, Note_off_c, 1, 73, 0
2, 31560, Note_on_c, 1, 40, 127
2, 31560, Note_off_c, 1, 46, 0
2, 31560, Note_off_c, 1, 52, 0
2, 31560, Note_on_c, 1, 54, 127
2, 31560, Note_on_c, 1, 55, 127
2, 31560, Note_off_c, 1, 56, 0
2, 31560, Note_on_c, 1, 62, 127
2, 31560, Note_off_c, 1, 64, 0
2, 31560, Note_on_c, 1, 67, 127
2, 31560, Note_off_c, 1, 68, 0
2, 31600, Note_off_c, 1, 40, 0
2, 31600, Note_off_c, 1, 54, 0
2, 31600, Note_off_c, 1, 55, 0
2, 31600, Note_off_c, 1, 62, 0
2, 31600, Note_off_c, 1, 67, 0
2, 31640, Note_on_c, 1, 50, 127
2, 31640, Note_on_c, 1, 62, 127
2, 31640, Note_on_c, 1, 74, 127
2, 31640, Note_on_c, 1, 83, 127
2, 31720, Note_on_c, 1, 44, 127
2, 31720, Note_off_c, 1, 50, 0
2, 31720, Note_on_c, 1, 51, 127
2, 31720, Note_off_c, 1, 62, 0
2, 31720, Note_on_c, 1, 73, 127
2, 31720, Note_off_c, 1, 74, 0
2, 31720, Note_on_c, 1, 78, 127
2, 31720, Note_off_c, 1, 83, 0
2, 31760, Note_off_c, 1, 44, 0
2, 31760, Note_on_c, 1, 50, 127
2, 31760, Note_off_c, 1, 51, 0
2, 31760, Note_on_c, 1, 62, 127
2, 31760, Note_off_c, 1, 73, 0
2, 31760, Note_on_c, 1, 74, 127
2, 31760, Note_off_c, 1, 78, 0
2, 31760, Note_on_c, 1, 83, 127
2, 31960, Note_off_c, 1, 50, 0
2, 31960, Note_off_c, 1, 62, 0
2, 31960, Note_off_c, 1, 74, 0
2, 31960, Note_off_c, 1, 83, 0
2, 32000, Note_on_c, 1, 48, 127
2, 32000, Note_on_c, 1, 52, 127
2, 32000, Note_on_c, 1, 66, 127
2, 32000, Note_on_c, 1, 76, 127
2, 32360, Note_off_c, 1, 48, 0
2, 32360, Note_off_c, 1, 52, 0
2, 32360, Note_off_c, 1, 66, 0
2, 32360, Note_off_c, 1, 76, 0
2, 32400, Note_on_c, 1, 48, 127
2, 32400, Note_on_c, 1, 52, 127
2, 32400, Note_on_c, 1, 66, 127
2, 32400, Note_on_c, 1, 76, 127
2, 32760, Note_off_c, 1, 48, 0
2, 32760, Note_off_c, 1, 52, 0
2, 32760, Note_off_c, 1, 66, 0
2, 32760, Note_off_c, 1, 76, 0
2, 32840, Note_on_c, 1, 31, 127
2, 32840, Note_on_c, 1, 43, 127
2, 32840, Note_on_c, 1, 70, 127
2, 32840, Note_on_c, 1, 75, 127
2, 32840, Note_on_c, 1, 87, 127
2, 32880, Note_off_c, 1, 31, 0
2, 32880, Note_off_c, 1, 43, 0
2, 32880, Note_on_c, 1, 46, 127
2, 32880, Note_on_c, 1, 60, 127
2, 32880, Note_on_c, 1, 69, 127
2, 32880, Note_off_c, 1, 70, 0
2, 32880, Note_on_c, 1, 72, 127
2, 32880, Note_off_c, 1, 75, 0
2, 32880, Note_off_c, 1, 87, 0
2, 32920, Note_on_c, 1, 31, 127
2, 32920, Note_on_c, 1, 43, 127
2, 32920, Note_off_c, 1, 46, 0
2, 32920, Note_off_c, 1, 60, 0
2, 32920, Note_off_c, 1, 69, 0
2, 32920, Note_on_c, 1, 70, 127
2, 32920, Note_off_c, 1, 72, 0
2, 32920, Note_on_c, 1, 79, 127
2, 32920, Note_on_c, 1, 82, 127
2, 32920, Note_on_c, 1, 87, 127
2, 32920, Note_on_c, 1, 91, 127
2, 33000, Note_off_c, 1, 31, 0
2, 33000, Note_off_c, 1, 43, 0
2, 33000, Note_on_c, 1, 52, 127
2, 33000, Note_off_c, 1, 70, 0
2, 33000, Note_off_c, 1, 79, 0
2, 33000, Note_off_c, 1, 82, 0
2, 33000, Note_off_c, 1, 87, 0
2, 33000, Note_on_c, 1, 89, 127
2, 33000, Note_off_c, 1, 91, 0
2, 33040, Note_off_c, 1, 52, 0
2, 33040, Note_on_c, 1, 64, 127
2, 33040, Note_on_c, 1, 72, 127
2, 33040, Note_on_c, 1, 75, 127
2, 33040, Note_on_c, 1, 78, 127
2, 33040, Note_on_c, 1, 81, 127
2, 33040, Note_off_c, 1, 89, 0
2, 33080, Note_on_c, 1, 31, 127
2, 33080, Note_on_c, 1, 43, 127
2, 33080, Note_off_c, 1, 64, 0
2, 33080, Note_on_c, 1, 70, 127
2, 33080, Note_off_c, 1, 72, 0
2, 33080, Note_off_c, 1, 75, 0
2, 33080, Note_off_c, 1, 78, 0
2, 33080, Note_on_c, 1, 79, 127
2, 33080, Note_off_c, 1, 81, 0
2, 33080, Note_on_c, 1, 82, 127
2, 33080, Note_on_c, 1, 87, 127
2, 33080, Note_on_c, 1, 91, 127
2, 33120, Note_off_c, 1, 31, 0
2, 33120, Note_off_c, 1, 43, 0
2, 33120, Note_on_c, 1, 64, 127
2, 33120, Note_off_c, 1, 70, 0
2, 33120, Note_on_c, 1, 72, 127
2, 33120, Note_on_c, 1, 75, 127
2, 33120, Note_on_c, 1, 78, 127
2, 33120, Note_off_c, 1, 79, 0
2, 33120, Note_on_c, 1, 81, 127
2, 33120, Note_off_c, 1, 82, 0
2, 33120, Note_off_c, 1, 87, 0
2, 33120, Note_off_c, 1, 91, 0
2, 33160, Note_off_c, 1, 64, 0
2, 33160, Note_off_c, 1, 72, 0
2, 33160, Note_off_c, 1, 75, 0
2, 33160, Note_off_c, 1, 78, 0
2, 33160, Note_off_c, 1, 81, 0
2, 33200, Note_on_c, 1, 47, 127
2, 33200, Note_on_c, 1, 54, 127
2, 33200, Note_on_c, 1, 59, 127
2, 33200, Note_on_c, 1, 75, 127
2, 33200, Note_on_c, 1, 81, 127
2, 33200, Note_on_c, 1, 83, 127
2, 33200, Note_on_c, 1, 87, 127
2, 33240, Note_on_c, 1, 46, 127
2, 33240, Note_on_c, 1, 51, 127
2, 33240, Note_off_c, 1, 59, 0
2, 33240, Note_on_c, 1, 66, 127
2, 33240, Note_off_c, 1, 75, 0
2, 33240, Note_off_c, 1, 81, 0
2, 33240, Note_off_c, 1, 83, 0
2, 33240, Note_off_c, 1, 87, 0
2, 33280, Note_off_c, 1, 46, 0
2, 33280, Note_off_c, 1, 47, 0
2, 33280, Note_off_c, 1, 51, 0
2, 33280, Note_off_c, 1, 54, 0
2, 33280, Note_off_c, 1, 66, 0
2, 33280, Note_on_c, 1, 68, 127
2, 33280, Note_on_c, 1, 76, 127
2, 33280, Note_on_c, 1, 79, 127
2, 33280, Note_on_c, 1, 84, 127
2, 33320, Note_on_c, 1, 34, 127
2, 33320, Note_on_c, 1, 46, 127
2, 33320, Note_off_c, 1, 68, 0
2, 33320, Note_off_c, 1, 76, 0
2, 33320, Note_off_c, 1, 79, 0
2, 33320, Note_off_c, 1, 84, 0
2, 33320, Note_on_c, 1, 93, 127
2, 33360, Note_off_c, 1, 34, 0
2, 33360, Note_on_c, 1, 40, 127
2, 33360, Note_off_c, 1, 46, 0
2, 33360, Note_on_c, 1, 47, 127
2, 33360, Note_on_c, 1, 59, 127
2, 33360, Note_on_c, 1, 63, 127
2, 33360, Note_on_c, 1, 68, 127
2, 33360, Note_off_c, 1, 93, 0
2, 33400, Note_off_c, 1, 40, 0
2, 33400, Note_off_c, 1, 47, 0
2, 33400, Note_off_c, 1, 59, 0
2, 33400, Note_on_c, 1, 66, 127
2, 33400, Note_on_c, 1, 92, 127
2, 33440, Note_on_c, 1, 60, 127
2, 33440, Note_off_c, 1, 66, 0
2, 33440, Note_off_c, 1, 68, 0
2, 33440, Note_on_c, 1, 72, 127
2, 33440, Note_on_c, 1, 75, 127
2, 33440, Note_on_c, 1, 87, 127
2, 33440, Note_off_c, 1, 92, 0
2, 33480, Note_off_c, 1, 60, 0
2, 33480, Note_off_c, 1, 63, 0
2, 33480, Note_off_c, 1, 72, 0
2, 33480, Note_off_c, 1, 75, 0
2, 33480, Note_on_c, 1, 84, 127
2, 33480, Note_off_c, 1, 87, 0
2, 33480, Note_on_c, 1, 89, 127
2, 33480, Note_on_c, 1, 92, 127
2, 33480, Note_on_c, 1, 96, 127
2, 33520, Note_on_c, 1, 61, 127
2, 33520, Note_on_c, 1, 66, 127
2, 33520, Note_on_c, 1, 70, 127
2, 33520, Note_on_c, 1, 73, 127
2, 33520, Note_off_c, 1, 84, 0
2, 33520, Note_on_c, 1, 85, 127
2, 33520, Note_off_c, 1, 89, 0
2, 33520, Note_off_c, 1, 92, 0
2, 33520, Note_off_c, 1, 96, 0
2, 33560, Note_off_c, 1, 61, 0
2, 33560, Note_off_c, 1, 66, 0
2, 33560, Note_off_c, 1, 70, 0
2, 33560, Note_off_c, 1, 73, 0
2, 33560, Note_off_c, 1, 85, 0
2, 33600, Note_on_c, 1, 50, 127
2, 33600, Note_on_c, 1, 55, 127
2, 33600, Note_on_c, 1, 79, 127
2, 33920, Note_off_c, 1, 50, 0
2, 33920, Note_off_c, 1, 55, 0
2, 33920, Note_on_c, 1, 59, 127
2, 33960, Note_off_c, 1, 59, 0
2, 33960, Note_off_c, 1, 79, 0
2, 34000, Note_on_c, 1, 57, 127
2, 34000, Note_on_c, 1, 60, 127
2, 34000, Note_on_c, 1, 63, 127
2, 34000, Note_on_c, 1, 68, 127
2, 34000, Note_on_c, 1, 76, 127
2, 34040, Note_off_c, 1, 60, 0
2, 34040, Note_off_c, 1, 63, 0
2, 34040, Note_on_c, 1, 67, 127
2, 34040, Note_off_c, 1, 68, 0
2, 34040, Note_on_c, 1, 73, 127
2, 34040, Note_off_c, 1, 76, 0
2, 34040, Note_on_c, 1, 79, 127
2, 34080, Note_on_c, 1, 56, 127
2, 34080, Note_off_c, 1, 57, 0
2, 34080, Note_on_c, 1, 60, 127
2, 34080, Note_on_c, 1, 66, 127
2, 34080, Note_off_c, 1, 67, 0
2, 34080, Note_on_c, 1, 68, 127
2, 34080, Note_off_c, 1, 73, 0
2, 34080, Note_off_c, 1, 79, 0
2, 34080, Note_on_c, 1, 85, 127
2, 34120, Note_on_c, 1, 39, 127
2, 34120, Note_off_c, 1, 56, 0
2, 34120, Note_on_c, 1, 58, 127
2, 34120, Note_off_c, 1, 60, 0
2, 34120, Note_off_c, 1, 66, 0
2, 34120, Note_off_c, 1, 68, 0
2, 34120, Note_on_c, 1, 70, 127
2, 34120, Note_on_c, 1, 80, 127
2, 34120, Note_off_c, 1, 85, 0
2, 34160, Note_off_c, 1, 39, 0
2, 34160, Note_on_c, 1, 63, 127
2, 34160, Note_on_c, 1, 67, 127
2, 34160, Note_off_c, 1, 70, 0
2, 34160, Note_off_c, 1, 80, 0
2, 34160, Note_on_c, 1, 93, 127
2, 34200, Note_on_c, 1, 37, 127
2, 34200, Note_on_c, 1, 48, 127
2, 34200, Note_on_c, 1, 56, 127
2, 34200, Note_off_c, 1, 58, 0
2, 34200, Note_on_c, 1, 60, 127
2, 34200, Note_off_c, 1, 63, 0
2, 34200, Note_off_c, 1, 67, 0
2, 34200, Note_off_c, 1, 93, 0
2, 34240, Note_on_c, 1, 35, 127
2, 34240, Note_off_c, 1, 37, 0
2, 34240, Note_on_c, 1, 47, 127
2, 34240, Note_off_c, 1, 48, 0
2, 34240, Note_off_c, 1, 56, 0
2, 34240, Note_off_c, 1, 60, 0
2, 34240, Note_on_c, 1, 75, 127
2, 34240, Note_on_c, 1, 79, 127
2, 34240, Note_on_c, 1, 83, 127
2, 34280, Note_off_c, 1, 35, 0
2, 34280, Note_on_c, 1, 37, 127
2, 34280, Note_off_c, 1, 47, 0
2, 34280, Note_on_c, 1, 73, 127
2, 34280, Note_off_c, 1, 75, 0
2, 34280, Note_off_c, 1, 79, 0
2, 34280, Note_on_c, 1, 82, 127
2, 34280, Note_off_c, 1, 83, 0
2, 34320, Note_off_c, 1, 37, 0
2, 34320, Note_off_c, 1, 73, 0
2, 34320, Note_off_c, 1, 82, 0
2, 34360, Note_on_c, 1, 34, 127
2, 34360, Note_on_c, 1, 41, 127
2, 34360, Note_on_c, 1, 65, 127
2, 34360, Note_on_c, 1, 69, 127
2, 34360, Note_on_c, 1, 74, 127
2, 34360, Note_on_c, 1, 77, 127
2, 34400, Note_off_c, 1, 34, 0
2, 34400, Note_off_c, 1, 41, 0
2, 34400, Note_on_c, 1, 46, 127
2, 34400, Note_on_c, 1, 58, 127
2, 34400, Note_on_c, 1, 63, 127
2, 34400, Note_off_c, 1, 65, 0
2, 34400, Note_on_c, 1, 68, 127
2, 34400, Note_off_c, 1, 69, 0
2, 34400, Note_on_c, 1, 72, 127
2, 34400, Note_off_c, 1, 74, 0
2, 34400, Note_off_c, 1, 77, 0
2, 34440, Note_off_c, 1, 46, 0
2, 34440, Note_on_c, 1, 55, 127
2, 34440, Note_off_c, 1, 58, 0
2, 34440, Note_off_c, 1, 63, 0
2, 34440, Note_on_c, 1, 67, 127
2, 34440, Note_off_c, 1, 68, 0
2, 34440, Note_off_c, 1, 72, 0
2, 34440, Note_on_c, 1, 76, 127
2, 34440, Note_on_c, 1, 83, 127
2, 34480, Note_on_c, 1, 47, 127
2, 34480, Note_off_c, 1, 55, 0
2, 34480, Note_off_c, 1, 67, 0
2, 34480, Note_off_c, 1, 76, 0
2, 34480, Note_on_c, 1, 77, 127
2, 34480, Note_off_c, 1, 83, 0
2, 34480, Note_on_c, 1, 91, 127
2, 34520, Note_on_c, 1, 35, 127
2, 34520, Note_off_c, 1, 47, 0
2, 34520, Note_on_c, 1, 54, 127
2, 34520, Note_on_c, 1, 59, 127
2, 34520, Note_on_c, 1, 64, 127
2, 34520, Note_on_c, 1, 68, 127
2, 34520, Note_on_c, 1, 71, 127
2, 34520, Note_off_c, 1, 77, 0
2, 34520, Note_off_c, 1, 91, 0
2, 34560, Note_off_c, 1, 35, 0
2, 34560, Note_on_c, 1, 44, 127
2, 34560, Note_on_c, 1, 48, 127
2, 34560, Note_off_c, 1, 54, 0
2, 34560, Note_off_c, 1, 59, 0
2, 34560, Note_off_c, 1, 64, 0
2, 34560, Note_off_c, 1, 68, 0
2, 34560, Note_off_c, 1, 71, 0
2, 34560, Note_on_c, 1, 72, 127
2, 34560, Note_on_c, 1, 74, 127
2, 34560, Note_on_c, 1, 84, 127
2, 34600, Note_off_c, 1, 48, 0
2, 34600, Note_on_c, 1, 56, 127
2, 34600, Note_on_c, 1, 70, 127
2, 34600, Note_off_c, 1, 72, 0
2, 34600, Note_on_c, 1, 73, 127
2, 34600, Note_off_c, 1, 74, 0
2, 34600, Note_on_c, 1, 77, 127
2, 34600, Note_off_c, 1, 84, 0
2, 34640, Note_off_c, 1, 44, 0
2, 34640, Note_on_c, 1, 48, 127
2, 34640, Note_off_c, 1, 56, 0
2, 34640, Note_on_c, 1, 57, 127
2, 34640, Note_off_c, 1, 70, 0
2, 34640, Note_off_c, 1, 73, 0
2, 34640, Note_on_c, 1, 76, 127
2, 34640, Note_off_c, 1, 77, 0
2, 34640, Note_on_c, 1, 78, 127
2, 34680, Note_off_c, 1, 48, 0
2, 34680, Note_on_c, 1, 49, 127
2, 34680, Note_on_c, 1, 52, 127
2, 34680, Note_on_c, 1, 54, 127
2, 34680, Note_off_c, 1, 57, 0
2, 34680, Note_on_c, 1, 58, 127
2, 34680, Note_off_c, 1, 76, 0
2, 34680, Note_off_c, 1, 78, 0
2, 34680, Note_on_c, 1, 82, 127
2, 34720, Note_off_c, 1, 49, 0
2, 34720, Note_off_c, 1, 52, 0
2, 34720, Note_off_c, 1, 54, 0
2, 34720, Note_off_c, 1, 58, 0
2, 34720, Note_off_c, 1, 82, 0
2, 34720, Note_on_c, 1, 84, 127
2, 34760, Note_on_c, 1, 61, 127
2, 34760, Note_on_c, 1, 69, 127
2, 34760, Note_on_c, 1, 72, 127
2, 34760, Note_on_c, 1, 75, 127
2, 34760, Note_on_c, 1, 81, 127
2, 34760, Note_off_c, 1, 84, 0
2, 34880, Note_off_c, 1, 61, 0
2, 34880, Note_off_c, 1, 69, 0
2, 34880, Note_off_c, 1, 72, 0
2, 34880, Note_off_c, 1, 75, 0
2, 34880, Note_off_c, 1, 81, 0
2, 34920, Note_on_c, 1, 61, 127
2, 34920, Note_on_c, 1, 69, 127
2, 34920, Note_on_c, 1, 72, 127
2, 34920, Note_on_c, 1, 75, 127
2, 34920, Note_on_c, 1, 81, 127
2, 35160, Note_off_c, 1, 61, 0
2, 35160, Note_off_c, 1, 69, 0
2, 35160, Note_off_c, 1, 72, 0
2, 35160, Note_off_c, 1, 75, 0
2, 35160, Note_off_c, 1, 81, 0
2, 35200, Note_on_c, 1, 61, 127
2, 35200, Note_on_c, 1, 64, 127
2, 35200, Note_on_c, 1, 66, 127
2, 35200, Note_on_c, 1, 70, 127
2, 35200, Note_on_c, 1, 73, 127
2, 35200, Note_on_c, 1, 82, 127
2, 35440, Note_on_c, 1, 59, 127
2, 35440, Note_off_c, 1, 61, 0
2, 35440, Note_off_c, 1, 64, 0
2, 35440, Note_on_c, 1, 69, 127
2, 35440, Note_off_c, 1, 70, 0
2, 35440, Note_on_c, 1, 71, 127
2, 35440, Note_off_c, 1, 73, 0
2, 35440, Note_off_c, 1, 82, 0
2, 35480, Note_on_c, 1, 62, 127
2, 35480, Note_off_c, 1, 69, 0
2, 35480, Note_off_c, 1, 71, 0
2, 35480, Note_on_c, 1, 83, 127
2, 35520, Note_off_c, 1, 59, 0
2, 35520, Note_off_c, 1, 62, 0
2, 35520, Note_off_c, 1, 66, 0
2, 35520, Note_on_c, 1, 85, 127
2, 35560, Note_on_c, 1, 61, 127
2, 35560, Note_on_c, 1, 64, 127
2, 35560, Note_on_c, 1, 66, 127
2, 35560, Note_on_c, 1, 70, 127
2, 35560, Note_on_c, 1, 73, 127
2, 35560, Note_on_c, 1, 78, 127
2, 35560, Note_off_c, 1, 83, 0
2, 35560, Note_off_c, 1, 85, 0
2, 35880, Note_off_c, 1, 61, 0
2, 35880, Note_off_c, 1, 64, 0
2, 35880, Note_off_c, 1, 66, 0
2, 35880, Note_off_c, 1, 70, 0
2, 35880, Note_off_c, 1, 73, 0
2, 35880, Note_off_c, 1, 78, 0
2, 35920, Note_on_c, 1, 56, 127
2, 35920, Note_on_c, 1, 76, 127
2, 35920, Note_on_c, 1, 80, 127
2, 36280, Note_off_c, 1, 56, 0
2, 36320, Note_on_c, 1, 52, 127
2, 36680, Note_off_c, 1, 52, 0
2, 36680, Note_off_c, 1, 76, 0
2, 36680, Note_off_c, 1, 80, 0
2, 36720, Note_on_c, 1, 75, 127
2, 36720, Note_on_c, 1, 82, 127
2, 36720, Note_on_c, 1, 90, 127
2, 36920, Note_off_c, 1, 75, 0
2, 36920, Note_off_c, 1, 82, 0
2, 36920, Note_off_c, 1, 90, 0
2, 36960, Note_on_c, 1, 75, 127
2, 36960, Note_on_c, 1, 82, 127
2, 36960, Note_on_c, 1, 90, 127
2, 37080, Note_off_c, 1, 75, 0
2, 37080, Note_off_c, 1, 82, 0
2, 37080, Note_off_c, 1, 90, 0
2, 37120, Note_on_c, 1, 58, 127
2, 37120, Note_on_c, 1, 61, 127
2, 37120, Note_on_c, 1, 80, 127
2, 37120, Note_on_c, 1, 82, 127
2, 37120, Note_on_c, 1, 85, 127
2, 37200, Note_on_c, 1, 56, 127
2, 37200, Note_off_c, 1, 58, 0
2, 37200, Note_off_c, 1, 61, 0
2, 37240, Note_off_c, 1, 56, 0
2, 37240, Note_on_c, 1, 58, 127
2, 37240, Note_on_c, 1, 61, 127
2, 37280, Note_on_c, 1, 56, 127
2, 37280, Note_off_c, 1, 58, 0
2, 37280, Note_off_c, 1, 61, 0
2, 37440, Note_off_c, 1, 56, 0
2, 37440, Note_on_c, 1, 61, 127
2, 37440, Note_on_c, 1, 73, 127
2, 37440, Note_on_c, 1, 77, 127
2, 37440, Note_off_c, 1, 80, 0
2, 37440, Note_off_c, 1, 82, 0
2, 37480, Note_off_c, 1, 61, 0
2, 37480, Note_off_c, 1, 73, 0
2, 37480, Note_off_c, 1, 77, 0
2, 37480, Note_off_c, 1, 85, 0
2, 37520, Note_on_c, 1, 56, 127
2, 37520, Note_on_c, 1, 58, 127
2, 37520, Note_on_c, 1, 61, 127
2, 37520, Note_on_c, 1, 68, 127
2, 37520, Note_on_c, 1, 82, 127
2, 37520, Note_on_c, 1, 92, 127
2, 37520, Note_on_c, 1, 94, 127
2, 37560, Note_on_c, 1, 49, 127
2, 37560, Note_off_c, 1, 56, 0
2, 37560, Note_off_c, 1, 58, 0
2, 37560, Note_off_c, 1, 61, 0
2, 37560, Note_off_c, 1, 68, 0
2, 37560, Note_on_c, 1, 81, 127
2, 37560, Note_off_c, 1, 82, 0
2, 37560, Note_on_c, 1, 83, 127
2, 37560, Note_off_c, 1, 92, 0
2, 37560, Note_off_c, 1, 94, 0
2, 37600, Note_off_c, 1, 49, 0
2, 37600, Note_on_c, 1, 69, 127
2, 37600, Note_off_c, 1, 81, 0
2, 37600, Note_off_c, 1, 83, 0
2, 37600, Note_on_c, 1, 84, 127
2, 37600, Note_on_c, 1, 89, 127
2, 37600, Note_on_c, 1, 93, 127
2, 37600, Note_on_c, 1, 96, 127
2, 37640, Note_on_c, 1, 56, 127
2, 37640, Note_on_c, 1, 58, 127
2, 37640, Note_on_c, 1, 61, 127
2, 37640, Note_on_c, 1, 68, 127
2, 37640, Note_off_c, 1, 69, 0
2, 37640, Note_on_c, 1, 82, 127
2, 37640, Note_off_c, 1, 84, 0
2, 37640, Note_off_c, 1, 89, 0
2, 37640, Note_on_c, 1, 92, 127
2, 37640, Note_off_c, 1, 93, 0
2, 37640, Note_on_c, 1, 94, 127
2, 37640, Note_off_c, 1, 96, 0
2, 37680, Note_on_c, 1, 53, 127
2, 37680, Note_off_c, 1, 56, 0
2, 37680, Note_off_c, 1, 58, 0
2, 37680, Note_off_c, 1, 61, 0
2, 37680, Note_off_c, 1, 68, 0
2, 37680, Note_on_c, 1, 72, 127
2, 37680, Note_on_c, 1, 77, 127
2, 37680, Note_off_c, 1, 92, 0
2, 37680, Note_off_c, 1, 94, 0
2, 37720, Note_off_c, 1, 53, 0
2, 37720, Note_on_c, 1, 61, 127
2, 37720, Note_on_c, 1, 63, 127
2, 37720, Note_on_c, 1, 66, 127
2, 37720, Note_on_c, 1, 68, 127
2, 37720, Note_off_c, 1, 77, 0
2, 37720, Note_on_c, 1, 78, 127
2, 37720, Note_off_c, 1, 82, 0
2, 37720, Note_on_c, 1, 87, 127
2, 37800, Note_off_c, 1, 63, 0
2, 37800, Note_off_c, 1, 66, 0
2, 37800, Note_on_c, 1, 71, 127
2, 37800, Note_off_c, 1, 72, 0
2, 37800, Note_on_c, 1, 74, 127
2, 37800, Note_on_c, 1, 77, 127
2, 37800, Note_off_c, 1, 78, 0
2, 37800, Note_off_c, 1, 87, 0
2, 37840, Note_off_c, 1, 61, 0
2, 37840, Note_off_c, 1, 68, 0
2, 37840, Note_off_c, 1, 71, 0
2, 37840, Note_off_c, 1, 74, 0
2, 37840, Note_off_c, 1, 77, 0
2, 37920, Note_on_c, 1, 61, 127
2, 37920, Note_on_c, 1, 68, 127
2, 37920, Note_on_c, 1, 71, 127
2, 37920, Note_on_c, 1, 74, 127
2, 37920, Note_on_c, 1, 77, 127
2, 38640, Note_off_c, 1, 61, 0
2, 38640, Note_off_c, 1, 68, 0
2, 38640, Note_off_c, 1, 71, 0
2, 38640, Note_off_c, 1, 74, 0
2, 38640, Note_off_c, 1, 77, 0
2, 38680, Note_on_c, 1, 63, 127
2, 38680, Note_on_c, 1, 83, 127
2, 39040, Note_off_c, 1, 63, 0
2, 39040, Note_off_c, 1, 83, 0
2, 39080, Note_on_c, 1, 66, 127
2, 39080, Note_on_c, 1, 83, 127
2, 39240, Note_on_c, 1, 82, 127
2, 39240, Note_off_c, 1, 83, 0
2, 39280, Note_off_c, 1, 66, 0
2, 39280, Note_off_c, 1, 82, 0
2, 39320, Note_on_c, 1, 66, 127
2, 39320, Note_on_c, 1, 82, 127
2, 39480, Note_off_c, 1, 66, 0
2, 39480, Note_off_c, 1, 82, 0
2, 39520, Note_on_c, 1, 38, 127
2, 39520, Note_on_c, 1, 50, 127
2, 39520, Note_on_c, 1, 64, 127
2, 39520, Note_on_c, 1, 68, 127
2, 39520, Note_on_c, 1, 71, 127
2, 39880, Note_off_c, 1, 38, 0
2, 39880, Note_off_c, 1, 50, 0
2, 39880, Note_off_c, 1, 64, 0
2, 39880, Note_off_c, 1, 68, 0
2, 39880, Note_off_c, 1, 71, 0
2, 39920, Note_on_c, 1, 38, 127
2, 39920, Note_on_c, 1, 50, 127
2, 39920, Note_on_c, 1, 64, 127
2, 39920, Note_on_c, 1, 68, 127
2, 39920, Note_on_c, 1, 71, 127
2, 40280, Note_off_c, 1, 38, 0
2, 40280, Note_off_c, 1, 50, 0
2, 40280, Note_off_c, 1, 64, 0
2, 40280, Note_off_c, 1, 68, 0
2, 40280, Note_off_c, 1, 71, 0
2, 40320, Note_on_c, 1, 38, 127
2, 40320, Note_on_c, 1, 50, 127
2, 40320, Note_on_c, 1, 64, 127
2, 40320, Note_on_c, 1, 68, 127
2, 40320, Note_on_c, 1, 71, 127
2, 40680, Note_off_c, 1, 38, 0
2, 40680, Note_off_c, 1, 50, 0
2, 40680, Note_off_c, 1, 64, 0
2, 40680, Note_off_c, 1, 68, 0
2, 40680, Note_off_c, 1, 71, 0
2, 40720, Note_on_c, 1, 38, 127
2, 40720, Note_on_c, 1, 50, 127
2, 40720, Note_on_c, 1, 64, 127
2, 40720, Note_on_c, 1, 68, 127
2, 40720, Note_on_c, 1, 71, 127
2, 41080, Note_off_c, 1, 38, 0
2, 41080, Note_off_c, 1, 50, 0
2, 41080, Note_off_c, 1, 64, 0
2, 41080, Note_off_c, 1, 68, 0
2, 41080, Note_off_c, 1, 71, 0
2, 41120, Note_on_c, 1, 38, 127
2, 41120, Note_on_c, 1, 50, 127
2, 41120, Note_on_c, 1, 64, 127
2, 41120, Note_on_c, 1, 68, 127
2, 41120, Note_on_c, 1, 71, 127
2, 41480, Note_off_c, 1, 38, 0
2, 41480, Note_off_c, 1, 50, 0
2, 41480, Note_off_c, 1, 64, 0
2, 41480, Note_off_c, 1, 68, 0
2, 41480, Note_off_c, 1, 71, 0
2, 41560, Note_on_c, 1, 38, 127
2, 41560, Note_on_c, 1, 50, 127
2, 41560, Note_on_c, 1, 64, 127
2, 41560, Note_on_c, 1, 68, 127
2, 41560, Note_on_c, 1, 71, 127
2, 41920, Note_off_c, 1, 38, 0
2, 41920, Note_off_c, 1, 50, 0
2, 41920, Note_off_c, 1, 64, 0
2, 41920, Note_off_c, 1, 68, 0
2, 41920, Note_off_c, 1, 71, 0
2, 41960, Note_on_c, 1, 38, 127
2, 41960, Note_on_c, 1, 50, 127
2, 41960, Note_on_c, 1, 64, 127
2, 41960, Note_on_c, 1, 68, 127
2, 41960, Note_on_c, 1, 71, 127
2, 42320, Note_off_c, 1, 38, 0
2, 42320, Note_off_c, 1, 50, 0
2, 42320, Note_off_c, 1, 64, 0
2, 42320, Note_off_c, 1, 68, 0
2, 42320, Note_off_c, 1, 71, 0
2, 42360, Note_on_c, 1, 38, 127
2, 42360, Note_on_c, 1, 50, 127
2, 42360, Note_on_c, 1, 64, 127
2, 42360, Note_on_c, 1, 68, 127
2, 42360, Note_on_c, 1, 71, 127
2, 42720, Note_off_c, 1, 38, 0
2, 42720, Note_off_c, 1, 50, 0
2, 42720, Note_off_c, 1, 64, 0
2, 42720, Note_off_c, 1, 68, 0
2, 42720, Note_off_c, 1, 71, 0
2, 42760, Note_on_c, 1, 38, 127
2, 42760, Note_on_c, 1, 50, 127
2, 42760, Note_on_c, 1, 64, 127
2, 42760, Note_on_c, 1, 68, 127
2, 42760, Note_on_c, 1, 71, 127
2, 43120, Note_off_c, 1, 38, 0
2, 43120, Note_off_c, 1, 50, 0
2, 43120, Note_off_c, 1, 64, 0
2, 43120, Note_off_c, 1, 68, 0
2, 43120, Note_off_c, 1, 71, 0
2, 43160, Note_on_c, 1, 38, 127
2, 43160, Note_on_c, 1, 50, 127
2, 43160, Note_on_c, 1, 64, 127
2, 43160, Note_on_c, 1, 68, 127
2, 43160, Note_on_c, 1, 71, 127
2, 43480, Note_off_c, 1, 38, 0
2, 43480, Note_off_c, 1, 50, 0
2, 43480, Note_off_c, 1, 64, 0
2, 43480, Note_off_c, 1, 68, 0
2, 43480, Note_off_c, 1, 71, 0
2, 43600, Note_on_c, 1, 38, 127
2, 43600, Note_on_c, 1, 50, 127
2, 43600, Note_on_c, 1, 64, 127
2, 43600, Note_on_c, 1, 68, 127
2, 43600, Note_on_c, 1, 71, 127
2, 43960, Note_off_c, 1, 38, 0
2, 43960, Note_off_c, 1, 50, 0
2, 43960, Note_off_c, 1, 64, 0
2, 43960, Note_off_c, 1, 68, 0
2, 43960, Note_off_c, 1, 71, 0
2, 44000, Note_on_c, 1, 38, 127
2, 44000, Note_on_c, 1, 50, 127
2, 44000, Note_on_c, 1, 64, 127
2, 44000, Note_on_c, 1, 68, 127
2, 44000, Note_on_c, 1, 71, 127
2, 44360, Note_off_c, 1, 38, 0
2, 44360, Note_off_c, 1, 50, 0
2, 44360, Note_off_c, 1, 64, 0
2, 44360, Note_off_c, 1, 68, 0
2, 44360, Note_off_c, 1, 71, 0
2, 44400, Note_on_c, 1, 38, 127
2, 44400, Note_on_c, 1, 50, 127
2, 44400, Note_on_c, 1, 64, 127
2, 44400, Note_on_c, 1, 68, 127
2, 44400, Note_on_c, 1, 71, 127
2, 44760, Note_off_c, 1, 38, 0
2, 44760, Note_off_c, 1, 50, 0
2, 44760, Note_off_c, 1, 64, 0
2, 44760, Note_off_c, 1, 68, 0
2, 44760, Note_off_c, 1, 71, 0
2, 44800, Note_on_c, 1, 38, 127
2, 44800, Note_on_c, 1, 50, 127
2, 44800, Note_on_c, 1, 64, 127
2, 44800, Note_on_c, 1, 68, 127
2, 44800, Note_on_c, 1, 71, 127
2, 45120, Note_off_c, 1, 38, 0
2, 45120, Note_off_c, 1, 50, 0
2, 45120, Note_off_c, 1, 64, 0
2, 45120, Note_off_c, 1, 68, 0
2, 45120, Note_off_c, 1, 71, 0
2, 45200, Note_on_c, 1, 38, 127
2, 45200, Note_on_c, 1, 50, 127
2, 45200, Note_on_c, 1, 64, 127
2, 45200, Note_on_c, 1, 68, 127
2, 45200, Note_on_c, 1, 71, 127
2, 45560, Note_off_c, 1, 38, 0
2, 45560, Note_off_c, 1, 50, 0
2, 45560, Note_off_c, 1, 64, 0
2, 45560, Note_off_c, 1, 68, 0
2, 45560, Note_off_c, 1, 71, 0
2, 45640, Note_on_c, 1, 38, 127
2, 45640, Note_on_c, 1, 50, 127
2, 45640, Note_on_c, 1, 64, 127
2, 45640, Note_on_c, 1, 68, 127
2, 45640, Note_on_c, 1, 71, 127
2, 46000, Note_off_c, 1, 38, 0
2, 46000, Note_off_c, 1, 50, 0
2, 46000, Note_off_c, 1, 64, 0
2, 46000, Note_off_c, 1, 68, 0
2, 46000, Note_off_c, 1, 71, 0
2, 46040, Note_on_c, 1, 38, 127
2, 46040, Note_on_c, 1, 50, 127
2, 46040, Note_on_c, 1, 64, 127
2, 46040, Note_on_c, 1, 68, 127
2, 46040, Note_on_c, 1, 71, 127
2, 46400, Note_off_c, 1, 38, 0
2, 46400, Note_off_c, 1, 50, 0
2, 46400, Note_off_c, 1, 64, 0
2, 46400, Note_off_c, 1, 68, 0
2, 46400, Note_off_c, 1, 71, 0
2, 46440, Note_on_c, 1, 38, 127
2, 46440, Note_on_c, 1, 50, 127
2, 46440, Note_on_c, 1, 64, 127
2, 46440, Note_on_c, 1, 68, 127
2, 46440, Note_on_c, 1, 71, 127
2, 46800, Note_off_c, 1, 38, 0
2, 46800, Note_off_c, 1, 50, 0
2, 46800, Note_off_c, 1, 64, 0
2, 46800, Note_off_c, 1, 68, 0
2, 46800, Note_off_c, 1, 71, 0
2, 46840, Note_on_c, 1, 38, 127
2, 46840, Note_on_c, 1, 50, 127
2, 46840, Note_on_c, 1, 64, 127
2, 46840, Note_on_c, 1, 68, 127
2, 46840, Note_on_c, 1, 71, 127
2, 47200, Note_off_c, 1, 38, 0
2, 47200, Note_off_c, 1, 50, 0
2, 47200, Note_off_c, 1, 64, 0
2, 47200, Note_off_c, 1, 68, 0
2, 47200, Note_off_c, 1, 71, 0
2, 47240, Note_on_c, 1, 38, 127
2, 47240, Note_on_c, 1, 50, 127
2, 47240, Note_on_c, 1, 64, 127
2, 47240, Note_on_c, 1, 68, 127
2, 47240, Note_on_c, 1, 71, 127
2, 47600, Note_off_c, 1, 38, 0
2, 47600, Note_off_c, 1, 50, 0
2, 47600, Note_off_c, 1, 64, 0
2, 47600, Note_off_c, 1, 68, 0
2, 47600, Note_off_c, 1, 71, 0
2, 47680, Note_on_c, 1, 47, 127
2, 47680, Note_on_c, 1, 57, 127
2, 47680, Note_on_c, 1, 62, 127
2, 47680, Note_on_c, 1, 68, 127
2, 47680, Note_on_c, 1, 71, 127
2, 47800, Note_on_c, 1, 45, 127
2, 47800, Note_off_c, 1, 47, 0
2, 47800, Note_on_c, 1, 60, 127
2, 47800, Note_off_c, 1, 62, 0
2, 47800, Note_off_c, 1, 68, 0
2, 47800, Note_on_c, 1, 69, 127
2, 47800, Note_off_c, 1, 71, 0
2, 47800, Note_on_c, 1, 72, 127
2, 48440, Note_off_c, 1, 45, 0
2, 48440, Note_off_c, 1, 57, 0
2, 48440, Note_off_c, 1, 60, 0
2, 48440, Note_off_c, 1, 69, 0
2, 48440, Note_off_c, 1, 72, 0
2, 48480, Note_on_c, 1, 49, 127
2, 48480, Note_on_c, 1, 56, 127
2, 48480, Note_on_c, 1, 61, 127
2, 48480, Note_on_c, 1, 66, 127
2, 48480, Note_on_c, 1, 70, 127
2, 48480, Note_on_c, 1, 73, 127
2, 49200, Note_off_c, 1, 49, 0
2, 49200, Note_off_c, 1, 56, 0
2, 49200, Note_off_c, 1, 61, 0
2, 49200, Note_off_c, 1, 66, 0
2, 49200, Note_off_c, 1, 70, 0
2, 49200, Note_off_c, 1, 73, 0
2, 49240, Note_on_c, 1, 41, 127
2, 49240, Note_on_c, 1, 46, 127
2, 49240, Note_on_c, 1, 53, 127
2, 49240, Note_on_c, 1, 87, 127
2, 49600, Note_off_c, 1, 41, 0
2, 49600, Note_off_c, 1, 46, 0
2, 49600, Note_off_c, 1, 53, 0
2, 49600, Note_off_c, 1, 87, 0
2, 49640, Note_on_c, 1, 40, 127
2, 49640, Note_on_c, 1, 55, 127
2, 49640, Note_on_c, 1, 71, 127
2, 49640, Note_on_c, 1, 79, 127
2, 49640, Note_on_c, 1, 83, 127
2, 49680, Note_off_c, 1, 40, 0
2, 49680, Note_on_c, 1, 51, 127
2, 49680, Note_off_c, 1, 55, 0
2, 49680, Note_on_c, 1, 61, 127
2, 49680, Note_on_c, 1, 65, 127
2, 49680, Note_on_c, 1, 70, 127
2, 49680, Note_off_c, 1, 71, 0
2, 49680, Note_on_c, 1, 75, 127
2, 49680, Note_off_c, 1, 79, 0
2, 49680, Note_off_c, 1, 83, 0
2, 49720, Note_off_c, 1, 51, 0
2, 49720, Note_off_c, 1, 61, 0
2, 49720, Note_off_c, 1, 65, 0
2, 49720, Note_off_c, 1, 70, 0
2, 49720, Note_off_c, 1, 75, 0
2, 49760, Note_on_c, 1, 51, 127
2, 49760, Note_on_c, 1, 61, 127
2, 49760, Note_on_c, 1, 65, 127
2, 49760, Note_on_c, 1, 70, 127
2, 49760, Note_on_c, 1, 75, 127
2, 50040, Note_off_c, 1, 51, 0
2, 50040, Note_off_c, 1, 61, 0
2, 50040, Note_off_c, 1, 65, 0
2, 50040, Note_off_c, 1, 70, 0
2, 50040, Note_off_c, 1, 75, 0
2, 50080, Note_on_c, 1, 41, 127
2, 50080, Note_on_c, 1, 51, 127
2, 50080, Note_on_c, 1, 60, 127
2, 50080, Note_on_c, 1, 65, 127
2, 50080, Note_on_c, 1, 72, 127
2, 50440, Note_off_c, 1, 41, 0
2, 50440, Note_off_c, 1, 51, 0
2, 50440, Note_off_c, 1, 60, 0
2, 50440, Note_off_c, 1, 65, 0
2, 50440, Note_off_c, 1, 72, 0
2, 50480, Note_on_c, 1, 41, 127
2, 50480, Note_on_c, 1, 50, 127
2, 50480, Note_on_c, 1, 58, 127
2, 50480, Note_on_c, 1, 65, 127
2, 50480, Note_on_c, 1, 70, 127
2, 50640, Note_off_c, 1, 50, 0
2, 50680, Note_on_c, 1, 53, 127
2, 50800, Note_off_c, 1, 53, 0
2, 50840, Note_off_c, 1, 41, 0
2, 50840, Note_off_c, 1, 58, 0
2, 50840, Note_off_c, 1, 65, 0
2, 50840, Note_off_c, 1, 70, 0
2, 50880, Note_on_c, 1, 41, 127
2, 50880, Note_on_c, 1, 51, 127
2, 50880, Note_on_c, 1, 60, 127
2, 50880, Note_on_c, 1, 65, 127
2, 50880, Note_on_c, 1, 69, 127
2, 50880, Note_on_c, 1, 72, 127
2, 51160, Note_on_c, 1, 53, 127
2, 51200, Note_off_c, 1, 53, 0
2, 51480, Note_on_c, 1, 53, 127
2, 51520, Note_off_c, 1, 53, 0
2, 51840, Note_off_c, 1, 41, 0
2, 51840, Note_off_c, 1, 51, 0
2, 51840, Note_off_c, 1, 60, 0
2, 51840, Note_off_c, 1, 65, 0
2, 51840, Note_off_c, 1, 69, 0
2, 51840, Note_off_c, 1, 72, 0
2, 51880, Note_on_c, 1, 41, 127
2, 51880, Note_on_c, 1, 51, 127
2, 51880, Note_on_c, 1, 60, 127
2, 51880, Note_on_c, 1, 65, 127
2, 51880, Note_on_c, 1, 69, 127
2, 51880, Note_on_c, 1, 72, 127
2, 52080, Note_off_c, 1, 41, 0
2, 52080, Note_off_c, 1, 51, 0
2, 52080, Note_off_c, 1, 60, 0
2, 52080, Note_off_c, 1, 65, 0
2, 52080, Note_off_c, 1, 69, 0
2, 52080, Note_off_c, 1, 72, 0
2, 52120, Note_on_c, 1, 41, 127
2, 52120, Note_on_c, 1, 51, 127
2, 52120, Note_on_c, 1, 53, 127
2, 52120, Note_on_c, 1, 60, 127
2, 52120, Note_on_c, 1, 65, 127
2, 52120, Note_on_c, 1, 69, 127
2, 52120, Note_on_c, 1, 72, 127
2, 52720, Note_off_c, 1, 53, 0
2, 52880, Note_off_c, 1, 41, 0
2, 52880, Note_off_c, 1, 51, 0
2, 52880, Note_off_c, 1, 60, 0
2, 52880, Note_off_c, 1, 65, 0
2, 52880, Note_off_c, 1, 69, 0
2, 52880, Note_off_c, 1, 72, 0
2, 52920, Note_on_c, 1, 55, 127
2, 52920, Note_on_c, 1, 60, 127
2, 52920, Note_on_c, 1, 65, 127
2, 53080, Note_on_c, 1, 58, 127
2, 53080, Note_off_c, 1, 60, 0
2, 53080, Note_on_c, 1, 63, 127
2, 53080, Note_off_c, 1, 65, 0
2, 53120, Note_off_c, 1, 58, 0
2, 53120, Note_on_c, 1, 60, 127
2, 53120, Note_off_c, 1, 63, 0
2, 53120, Note_on_c, 1, 65, 127
2, 53280, Note_off_c, 1, 55, 0
2, 53280, Note_off_c, 1, 60, 0
2, 53280, Note_off_c, 1, 65, 0
2, 53320, Note_on_c, 1, 55, 127
2, 53320, Note_on_c, 1, 58, 127
2, 53320, Note_on_c, 1, 64, 127
2, 53680, Note_off_c, 1, 55, 0
2, 53680, Note_off_c, 1, 58, 0
2, 53680, Note_off_c, 1, 64, 0
2, 53720, Note_on_c, 1, 53, 127
2, 53720, Note_on_c, 1, 57, 127
2, 53720, Note_on_c, 1, 60, 127
2, 53720, Note_on_c, 1, 65, 127
2, 54000, Note_off_c, 1, 53, 0
2, 54000, Note_off_c, 1, 57, 0
2, 54000, Note_off_c, 1, 60, 0
2, 54000, Note_off_c, 1, 65, 0
2, 54040, Note_on_c, 1, 53, 127
2, 54040, Note_on_c, 1, 57, 127
2, 54040, Note_on_c, 1, 60, 127
2, 54040, Note_on_c, 1, 65, 127
2, 54120, Note_off_c, 1, 57, 0
2, 54120, Note_off_c, 1, 60, 0
2, 54160, Note_on_c, 1, 57, 127
2, 54160, Note_on_c, 1, 60, 127
2, 54160, Note_on_c, 1, 63, 127
2, 54160, Note_off_c, 1, 65, 0
2, 54520, Note_off_c, 1, 53, 0
2, 54520, Note_off_c, 1, 57, 0
2, 54520, Note_off_c, 1, 60, 0
2, 54520, Note_off_c, 1, 63, 0
2, 54560, Note_on_c, 1, 53, 127
2, 54560, Note_on_c, 1, 57, 127
2, 54560, Note_on_c, 1, 60, 127
2, 54560, Note_on_c, 1, 63, 127
2, 54560, Note_on_c, 1, 65, 127
2, 55320, Note_off_c, 1, 53, 0
2, 55320, Note_off_c, 1, 57, 0
2, 55320, Note_off_c, 1, 60, 0
2, 55320, Note_off_c, 1, 63, 0
2, 55320, Note_off_c, 1, 65, 0
2, 55360, Note_on_c, 1, 46, 127
2, 55360, Note_on_c, 1, 53, 127
2, 55360, Note_on_c, 1, 58, 127
2, 55360, Note_on_c, 1, 62, 127
2, 55360, Note_on_c, 1, 65, 127
2, 55360, Note_on_c, 1, 74, 127
2, 56120, Note_off_c, 1, 46, 0
2, 56120, Note_off_c, 1, 53, 0
2, 56120, Note_off_c, 1, 58, 0
2, 56120, Note_off_c, 1, 62, 0
2, 56120, Note_off_c, 1, 65, 0
2, 56120, Note_off_c, 1, 74, 0
2, 56200, Note_on_c, 1, 65, 127
2, 56200, Note_on_c, 1, 69, 127
2, 56200, Note_on_c, 1, 72, 127
2, 56200, Note_on_c, 1, 77, 127
2, 56200, Note_on_c, 1, 89, 127
2, 56560, Note_off_c, 1, 65, 0
2, 56560, Note_off_c, 1, 69, 0
2, 56560, Note_off_c, 1, 72, 0
2, 56560, Note_off_c, 1, 77, 0
2, 56560, Note_off_c, 1, 89, 0
2, 56600, Note_on_c, 1, 52, 127
2, 56600, Note_on_c, 1, 64, 127
2, 56600, Note_on_c, 1, 65, 127
2, 56600, Note_on_c, 1, 71, 127
2, 56600, Note_on_c, 1, 74, 127
2, 56640, Note_off_c, 1, 52, 0
2, 56640, Note_on_c, 1, 63, 127
2, 56640, Note_off_c, 1, 64, 0
2, 56640, Note_off_c, 1, 65, 0
2, 56640, Note_on_c, 1, 66, 127
2, 56640, Note_off_c, 1, 71, 0
2, 56640, Note_on_c, 1, 72, 127
2, 56640, Note_off_c, 1, 74, 0
2, 56640, Note_on_c, 1, 75, 127
2, 56640, Note_on_c, 1, 78, 127
2, 56680, Note_off_c, 1, 63, 0
2, 56680, Note_off_c, 1, 66, 0
2, 56680, Note_on_c, 1, 69, 127
2, 56680, Note_off_c, 1, 72, 0
2, 56680, Note_off_c, 1, 78, 0
2, 56680, Note_on_c, 1, 81, 127
2, 56680, Note_on_c, 1, 87, 127
2, 56720, Note_on_c, 1, 36, 127
2, 56720, Note_on_c, 1, 52, 127
2, 56720, Note_on_c, 1, 56, 127
2, 56720, Note_on_c, 1, 61, 127
2, 56720, Note_on_c, 1, 64, 127
2, 56720, Note_off_c, 1, 69, 0
2, 56720, Note_off_c, 1, 75, 0
2, 56720, Note_off_c, 1, 81, 0
2, 56720, Note_off_c, 1, 87, 0
2, 56760, Note_off_c, 1, 36, 0
2, 56760, Note_off_c, 1, 52, 0
2, 56760, Note_off_c, 1, 56, 0
2, 56760, Note_off_c, 1, 61, 0
2, 56760, Note_on_c, 1, 63, 127
2, 56760, Note_off_c, 1, 64, 0
2, 56760, Note_on_c, 1, 66, 127
2, 56760, Note_on_c, 1, 72, 127
2, 56760, Note_on_c, 1, 75, 127
2, 56760, Note_on_c, 1, 78, 127
2, 56800, Note_off_c, 1, 63, 0
2, 56800, Note_on_c, 1, 64, 127
2, 56800, Note_off_c, 1, 66, 0
2, 56800, Note_off_c, 1, 75, 0
2, 56800, Note_off_c, 1, 78, 0
2, 56800, Note_on_c, 1, 79, 127
2, 56800, Note_on_c, 1, 84, 127
2, 56800, Note_on_c, 1, 91, 127
2, 56840, Note_on_c, 1, 53, 127
2, 56840, Note_on_c, 1, 59, 127
2, 56840, Note_off_c, 1, 64, 0
2, 56840, Note_on_c, 1, 65, 127
2, 56840, Note_on_c, 1, 68, 127
2, 56840, Note_off_c, 1, 79, 0
2, 56840, Note_on_c, 1, 80, 127
2, 56840, Note_off_c, 1, 84, 0
2, 56840, Note_off_c, 1, 91, 0
2, 56880, Note_off_c, 1, 53, 0
2, 56880, Note_off_c, 1, 59, 0
2, 56880, Note_on_c, 1, 61, 127
2, 56880, Note_off_c, 1, 65, 0
2, 56880, Note_off_c, 1, 68, 0
2, 56880, Note_off_c, 1, 72, 0
2, 56880, Note_on_c, 1, 76, 127
2, 56880, Note_off_c, 1, 80, 0
2, 56880, Note_on_c, 1, 82, 127
2, 56880, Note_on_c, 1, 88, 127
2, 56920, Note_on_c, 1, 35, 127
2, 56920, Note_on_c, 1, 42, 127
2, 56920, Note_on_c, 1, 47, 127
2, 56920, Note_off_c, 1, 76, 0
2, 56920, Note_off_c, 1, 82, 0
2, 56920, Note_off_c, 1, 88, 0
2, 56960, Note_off_c, 1, 35, 0
2, 56960, Note_off_c, 1, 42, 0
2, 56960, Note_off_c, 1, 47, 0
2, 56960, Note_off_c, 1, 61, 0
2, 57000, Note_on_c, 1, 48, 127
2, 57000, Note_on_c, 1, 55, 127
2, 57000, Note_on_c, 1, 63, 127
2, 57000, Note_on_c, 1, 72, 127
2, 57000, Note_on_c, 1, 75, 127
2, 57000, Note_on_c, 1, 79, 127
2, 57000, Note_on_c, 1, 84, 127
2, 57360, Note_off_c, 1, 48, 0
2, 57360, Note_off_c, 1, 55, 0
2, 57360, Note_off_c, 1, 63, 0
2, 57360, Note_off_c, 1, 72, 0
2, 57360, Note_off_c, 1, 75, 0
2, 57360, Note_off_c, 1, 79, 0
2, 57360, Note_off_c, 1, 84, 0
2, 57400, Note_on_c, 1, 48, 127
2, 57400, Note_on_c, 1, 55, 127
2, 57400, Note_on_c, 1, 63, 127
2, 57400, Note_on_c, 1, 72, 127
2, 57400, Note_on_c, 1, 75, 127
2, 57400, Note_on_c, 1, 79, 127
2, 57400, Note_on_c, 1, 84, 127
2, 57760, Note_off_c, 1, 48, 0
2, 57760, Note_off_c, 1, 55, 0
2, 57760, Note_off_c, 1, 63, 0
2, 57760, Note_off_c, 1, 72, 0
2, 57760, Note_off_c, 1, 75, 0
2, 57760, Note_off_c, 1, 79, 0
2, 57760, Note_off_c, 1, 84, 0
2, 57800, Note_on_c, 1, 43, 127
2, 57800, Note_on_c, 1, 55, 127
2, 57800, Note_on_c, 1, 67, 127
2, 57800, Note_on_c, 1, 70, 127
2, 57800, Note_on_c, 1, 75, 127
2, 57800, Note_on_c, 1, 79, 127
2, 58120, Note_off_c, 1, 43, 0
2, 58120, Note_off_c, 1, 55, 0
2, 58120, Note_off_c, 1, 67, 0
2, 58120, Note_off_c, 1, 70, 0
2, 58120, Note_off_c, 1, 75, 0
2, 58120, Note_off_c, 1, 79, 0
2, 58240, Note_on_c, 1, 58, 127
2, 58240, Note_on_c, 1, 61, 127
2, 58240, Note_on_c, 1, 68, 127
2, 58240, Note_on_c, 1, 75, 127
2, 58600, Note_off_c, 1, 58, 0
2, 58600, Note_off_c, 1, 61, 0
2, 58600, Note_off_c, 1, 68, 0
2, 58600, Note_off_c, 1, 75, 0
2, 58640, Note_on_c, 1, 58, 127
2, 58640, Note_on_c, 1, 61, 127
2, 58640, Note_on_c, 1, 68, 127
2, 58640, Note_on_c, 1, 75, 127
2, 58960, Note_off_c, 1, 58, 0
2, 58960, Note_off_c, 1, 61, 0
2, 58960, Note_off_c, 1, 68, 0
2, 59000, Note_on_c, 1, 58, 127
2, 59000, Note_on_c, 1, 61, 127
2, 59000, Note_on_c, 1, 68, 127
2, 59320, Note_off_c, 1, 58, 0
2, 59320, Note_off_c, 1, 61, 0
2, 59320, Note_off_c, 1, 68, 0
2, 59360, Note_on_c, 1, 58, 127
2, 59360, Note_on_c, 1, 61, 127
2, 59360, Note_on_c, 1, 68, 127
2, 59720, Note_off_c, 1, 58, 0
2, 59720, Note_off_c, 1, 61, 0
2, 59720, Note_off_c, 1, 68, 0
2, 59720, Note_off_c, 1, 75, 0
2, 59760, Note_on_c, 1, 53, 127
2, 59760, Note_on_c, 1, 61, 127
2, 59760, Note_on_c, 1, 67, 127
2, 59760, Note_on_c, 1, 70, 127
2, 59760, Note_on_c, 1, 77, 127
2, 59800, Note_on_c, 1, 59, 127
2, 59800, Note_off_c, 1, 61, 0
2, 59800, Note_off_c, 1, 67, 0
2, 59800, Note_off_c, 1, 70, 0
2, 59800, Note_on_c, 1, 71, 127
2, 59800, Note_on_c, 1, 74, 127
2, 59800, Note_off_c, 1, 77, 0
2, 59840, Note_off_c, 1, 53, 0
2, 59840, Note_on_c, 1, 57, 127
2, 59840, Note_off_c, 1, 59, 0
2, 59840, Note_on_c, 1, 61, 127
2, 59840, Note_on_c, 1, 69, 127
2, 59840, Note_off_c, 1, 71, 0
2, 59840, Note_off_c, 1, 74, 0
2, 59840, Note_on_c, 1, 90, 127
2, 59840, Note_on_c, 1, 93, 127
2, 59880, Note_off_c, 1, 57, 0
2, 59880, Note_off_c, 1, 61, 0
2, 59880, Note_on_c, 1, 62, 127
2, 59880, Note_on_c, 1, 65, 127
2, 59880, Note_off_c, 1, 69, 0
2, 59880, Note_on_c, 1, 74, 127
2, 59880, Note_on_c, 1, 77, 127
2, 59880, Note_on_c, 1, 89, 127
2, 59880, Note_off_c, 1, 90, 0
2, 59880, Note_off_c, 1, 93, 0
2, 59920, Note_on_c, 1, 53, 127
2, 59920, Note_on_c, 1, 60, 127
2, 59920, Note_off_c, 1, 62, 0
2, 59920, Note_off_c, 1, 65, 0
2, 59920, Note_on_c, 1, 72, 127
2, 59920, Note_off_c, 1, 74, 0
2, 59920, Note_on_c, 1, 76, 127
2, 59920, Note_off_c, 1, 77, 0
2, 59920, Note_off_c, 1, 89, 0
2, 59960, Note_off_c, 1, 53, 0
2, 59960, Note_off_c, 1, 60, 0
2, 59960, Note_on_c, 1, 65, 127
2, 59960, Note_on_c, 1, 69, 127
2, 59960, Note_off_c, 1, 72, 0
2, 59960, Note_on_c, 1, 74, 127
2, 59960, Note_off_c, 1, 76, 0
2, 59960, Note_on_c, 1, 83, 127
2, 59960, Note_on_c, 1, 95, 127
2, 60000, Note_on_c, 1, 54, 127
2, 60000, Note_on_c, 1, 61, 127
2, 60000, Note_off_c, 1, 65, 0
2, 60000, Note_off_c, 1, 69, 0
2, 60000, Note_on_c, 1, 70, 127
2, 60000, Note_on_c, 1, 73, 127
2, 60000, Note_off_c, 1, 74, 0
2, 60000, Note_on_c, 1, 82, 127
2, 60000, Note_off_c, 1, 83, 0
2, 60000, Note_on_c, 1, 85, 127
2, 60000, Note_off_c, 1, 95, 0
2, 60040, Note_on_c, 1, 36, 127
2, 60040, Note_on_c, 1, 48, 127
2, 60040, Note_on_c, 1, 51, 127
2, 60040, Note_off_c, 1, 54, 0
2, 60040, Note_on_c, 1, 55, 127
2, 60040, Note_on_c, 1, 60, 127
2, 60040, Note_off_c, 1, 61, 0
2, 60040, Note_off_c, 1, 70, 0
2, 60040, Note_off_c, 1, 73, 0
2, 60040, Note_off_c, 1, 82, 0
2, 60040, Note_off_c, 1, 85, 0
2, 60080, Note_off_c, 1, 36, 0
2, 60080, Note_off_c, 1, 48, 0
2, 60080, Note_off_c, 1, 51, 0
2, 60080, Note_off_c, 1, 55, 0
2, 60080, Note_off_c, 1, 60, 0
2, 60120, Note_on_c, 1, 53, 127
2, 60120, Note_on_c, 1, 75, 127
2, 60160, Note_on_c, 1, 51, 127
2, 60160, Note_off_c, 1, 53, 0
2, 60160, Note_on_c, 1, 58, 127
2, 60160, Note_on_c, 1, 63, 127
2, 60160, Note_on_c, 1, 66, 127
2, 60160, Note_on_c, 1, 78, 127
2, 60360, Note_off_c, 1, 51, 0
2, 60360, Note_off_c, 1, 58, 0
2, 60360, Note_off_c, 1, 63, 0
2, 60360, Note_off_c, 1, 66, 0
2, 60360, Note_off_c, 1, 75, 0
2, 60360, Note_off_c, 1, 78, 0
2, 60400, Note_on_c, 1, 51, 127
2, 60400, Note_on_c, 1, 58, 127
2, 60400, Note_on_c, 1, 63, 127
2, 60400, Note_on_c, 1, 66, 127
2, 60400, Note_on_c, 1, 75, 127
2, 60400, Note_on_c, 1, 78, 127
2, 60560, Note_off_c, 1, 51, 0
2, 60560, Note_off_c, 1, 58, 0
2, 60560, Note_off_c, 1, 63, 0
2, 60560, Note_off_c, 1, 66, 0
2, 60560, Note_off_c, 1, 75, 0
2, 60560, Note_off_c, 1, 78, 0
2, 60600, Note_on_c, 1, 44, 127
2, 60600, Note_on_c, 1, 50, 127
2, 60600, Note_on_c, 1, 53, 127
2, 60600, Note_on_c, 1, 56, 127
2, 60640, Note_off_c, 1, 44, 0
2, 60640, Note_off_c, 1, 50, 0
2, 60640, Note_on_c, 1, 52, 127
2, 60640, Note_off_c, 1, 53, 0
2, 60640, Note_off_c, 1, 56, 0
2, 60640, Note_on_c, 1, 60, 127
2, 60640, Note_on_c, 1, 72, 127
2, 60640, Note_on_c, 1, 79, 127
2, 60680, Note_off_c, 1, 52, 0
2, 60680, Note_on_c, 1, 55, 127
2, 60680, Note_on_c, 1, 57, 127
2, 60680, Note_off_c, 1, 60, 0
2, 60680, Note_on_c, 1, 64, 127
2, 60680, Note_on_c, 1, 69, 127
2, 60680, Note_off_c, 1, 72, 0
2, 60680, Note_on_c, 1, 76, 127
2, 60680, Note_off_c, 1, 79, 0
2, 60720, Note_on_c, 1, 52, 127
2, 60720, Note_off_c, 1, 55, 0
2, 60720, Note_off_c, 1, 57, 0
2, 60720, Note_on_c, 1, 60, 127
2, 60720, Note_off_c, 1, 64, 0
2, 60720, Note_off_c, 1, 69, 0
2, 60720, Note_on_c, 1, 72, 127
2, 60720, Note_off_c, 1, 76, 0
2, 60720, Note_on_c, 1, 79, 127
2, 61360, Note_off_c, 1, 52, 0
2, 61360, Note_off_c, 1, 60, 0
2, 61360, Note_off_c, 1, 72, 0
2, 61360, Note_off_c, 1, 79, 0
2, 61400, Note_on_c, 1, 51, 127
2, 61400, Note_on_c, 1, 54, 127
2, 61400, Note_on_c, 1, 57, 127
2, 61400, Note_on_c, 1, 60, 127
2, 61400, Note_on_c, 1, 63, 127
2, 61400, Note_on_c, 1, 66, 127
2, 61400, Note_on_c, 1, 69, 127
2, 61760, Note_off_c, 1, 51, 0
2, 61760, Note_off_c, 1, 54, 0
2, 61760, Note_off_c, 1, 57, 0
2, 61760, Note_off_c, 1, 60, 0
2, 61760, Note_off_c, 1, 63, 0
2, 61760, Note_off_c, 1, 66, 0
2, 61760, Note_off_c, 1, 69, 0
2, 61800, Note_on_c, 1, 33, 127
2, 61800, Note_on_c, 1, 39, 127
2, 61800, Note_on_c, 1, 45, 127
2, 61800, Note_on_c, 1, 87, 127
2, 61840, Note_off_c, 1, 33, 0
2, 61840, Note_off_c, 1, 39, 0
2, 61840, Note_on_c, 1, 53, 127
2, 61840, Note_on_c, 1, 60, 127
2, 61840, Note_on_c, 1, 65, 127
2, 61840, Note_on_c, 1, 74, 127
2, 61840, Note_off_c, 1, 87, 0
2, 61880, Note_off_c, 1, 45, 0
2, 61880, Note_off_c, 1, 53, 0
2, 61880, Note_off_c, 1, 60, 0
2, 61880, Note_off_c, 1, 65, 0
2, 61880, Note_on_c, 1, 68, 127
2, 61880, Note_off_c, 1, 74, 0
2, 61880, Note_on_c, 1, 89, 127
2, 61880, Note_on_c, 1, 97, 127
2, 61920, Note_on_c, 1, 64, 127
2, 61920, Note_off_c, 1, 68, 0
2, 61920, Note_on_c, 1, 77, 127
2, 61920, Note_on_c, 1, 84, 127
2, 61920, Note_on_c, 1, 87, 127
2, 61920, Note_off_c, 1, 97, 0
2, 61960, Note_on_c, 1, 49, 127
2, 61960, Note_on_c, 1, 53, 127
2, 61960, Note_on_c, 1, 56, 127
2, 61960, Note_on_c, 1, 61, 127
2, 61960, Note_off_c, 1, 64, 0
2, 61960, Note_off_c, 1, 77, 0
2, 61960, Note_off_c, 1, 84, 0
2, 61960, Note_off_c, 1, 87, 0
2, 61960, Note_off_c, 1, 89, 0
2, 61960, Note_on_c, 1, 92, 127
2, 62000, Note_on_c, 1, 45, 127
2, 62000, Note_off_c, 1, 49, 0
2, 62000, Note_off_c, 1, 56, 0
2, 62000, Note_on_c, 1, 60, 127
2, 62000, Note_off_c, 1, 61, 0
2, 62000, Note_on_c, 1, 65, 127
2, 62000, Note_on_c, 1, 74, 127
2, 62000, Note_off_c, 1, 92, 0
2, 62160, Note_off_c, 1, 45, 0
2, 62160, Note_off_c, 1, 53, 0
2, 62160, Note_off_c, 1, 60, 0
2, 62160, Note_off_c, 1, 65, 0
2, 62160, Note_off_c, 1, 74, 0
2, 62200, Note_on_c, 1, 31, 127
2, 62200, Note_on_c, 1, 55, 127
2, 62200, Note_on_c, 1, 58, 127
2, 62200, Note_on_c, 1, 64, 127
2, 62240, Note_off_c, 1, 31, 0
2, 62240, Note_off_c, 1, 55, 0
2, 62240, Note_on_c, 1, 63, 127
2, 62240, Note_off_c, 1, 64, 0
2, 62240, Note_on_c, 1, 82, 127
2, 62240, Note_on_c, 1, 89, 127
2, 62240, Note_on_c, 1, 94, 127
2, 62280, Note_off_c, 1, 58, 0
2, 62280, Note_off_c, 1, 63, 0
2, 62280, Note_off_c, 1, 82, 0
2, 62280, Note_off_c, 1, 89, 0
2, 62280, Note_off_c, 1, 94, 0
2, 62320, Note_on_c, 1, 58, 127
2, 62320, Note_on_c, 1, 63, 127
2, 62320, Note_on_c, 1, 82, 127
2, 62320, Note_on_c, 1, 89, 127
2, 62320, Note_on_c, 1, 94, 127
2, 62360, Note_on_c, 1, 39, 127
2, 62360, Note_off_c, 1, 58, 0
2, 62360, Note_off_c, 1, 63, 0
2, 62360, Note_on_c, 1, 67, 127
2, 62360, Note_on_c, 1, 87, 127
2, 62360, Note_off_c, 1, 89, 0
2, 62360, Note_off_c, 1, 94, 0
2, 62400, Note_off_c, 1, 39, 0
2, 62400, Note_on_c, 1, 58, 127
2, 62400, Note_on_c, 1, 63, 127
2, 62400, Note_off_c, 1, 67, 0
2, 62400, Note_off_c, 1, 87, 0
2, 62400, Note_on_c, 1, 89, 127
2, 62400, Note_on_c, 1, 94, 127
2, 62520, Note_off_c, 1, 58, 0
2, 62520, Note_off_c, 1, 63, 0
2, 62560, Note_on_c, 1, 51, 127
2, 62560, Note_on_c, 1, 58, 127
2, 62560, Note_off_c, 1, 82, 0
2, 62560, Note_on_c, 1, 84, 127
2, 62560, Note_off_c, 1, 89, 0
2, 62560, Note_off_c, 1, 94, 0
2, 62600, Note_off_c, 1, 51, 0
2, 62600, Note_off_c, 1, 58, 0
2, 62600, Note_on_c, 1, 82, 127
2, 62600, Note_off_c, 1, 84, 0
2, 62600, Note_on_c, 1, 89, 127
2, 62600, Note_on_c, 1, 94, 127
2, 62640, Note_on_c, 1, 48, 127
2, 62640, Note_on_c, 1, 53, 127
2, 62640, Note_on_c, 1, 63, 127
2, 62640, Note_on_c, 1, 65, 127
2, 62640, Note_on_c, 1, 69, 127
2, 62640, Note_off_c, 1, 82, 0
2, 62640, Note_off_c, 1, 89, 0
2, 62640, Note_off_c, 1, 94, 0
2, 62960, Note_off_c, 1, 48, 0
2, 62960, Note_off_c, 1, 53, 0
2, 62960, Note_off_c, 1, 63, 0
2, 62960, Note_off_c, 1, 65, 0
2, 62960, Note_off_c, 1, 69, 0
2, 63040, Note_on_c, 1, 48, 127
2, 63040, Note_on_c, 1, 53, 127
2, 63040, Note_on_c, 1, 63, 127
2, 63040, Note_on_c, 1, 65, 127
2, 63400, Note_off_c, 1, 48, 0
2, 63400, Note_off_c, 1, 53, 0
2, 63400, Note_off_c, 1, 63, 0
2, 63400, Note_off_c, 1, 65, 0
2, 63440, Note_on_c, 1, 53, 127
2, 63440, Note_on_c, 1, 60, 127
2, 63440, Note_on_c, 1, 72, 127
2, 63440, Note_on_c, 1, 81, 127
2, 63800, Note_off_c, 1, 60, 0
2, 63800, Note_off_c, 1, 72, 0
2, 63800, Note_off_c, 1, 81, 0
2, 63840, Note_on_c, 1, 60, 127
2, 63840, Note_on_c, 1, 72, 127
2, 63840, Note_on_c, 1, 81, 127
2, 64200, Note_off_c, 1, 60, 0
2, 64200, Note_off_c, 1, 72, 0
2, 64200, Note_off_c, 1, 81, 0
2, 64240, Note_off_c, 1, 53, 0
2, 64280, Note_on_c, 1, 53, 127
2, 64280, Note_on_c, 1, 60, 127
2, 64280, Note_on_c, 1, 72, 127
2, 64280, Note_on_c, 1, 81, 127
2, 64640, Note_on_c, 1, 48, 127
2, 64640, Note_off_c, 1, 53, 0
2, 64640, Note_off_c, 1, 60, 0
2, 64640, Note_off_c, 1, 72, 0
2, 64640, Note_off_c, 1, 81, 0
2, 64680, Note_on_c, 1, 30, 127
2, 64680, Note_on_c, 1, 46, 127
2, 64680, Note_off_c, 1, 48, 0
2, 65040, Note_off_c, 1, 30, 0
2, 65040, Note_off_c, 1, 46, 0
2, 65080, Note_on_c, 1, 40, 127
2, 65080, Note_on_c, 1, 44, 127
2, 65080, Note_on_c, 1, 52, 127
2, 65080, Note_on_c, 1, 59, 127
2, 65080, Note_on_c, 1, 71, 127
2, 65120, Note_off_c, 1, 40, 0
2, 65120, Note_off_c, 1, 44, 0
2, 65120, Note_on_c, 1, 47, 127
2, 65120, Note_off_c, 1, 52, 0
2, 65120, Note_on_c, 1, 54, 127
2, 65120, Note_on_c, 1, 57, 127
2, 65120, Note_on_c, 1, 63, 127
2, 65120, Note_on_c, 1, 66, 127
2, 65160, Note_off_c, 1, 47, 0
2, 65160, Note_on_c, 1, 49, 127
2, 65160, Note_on_c, 1, 52, 127
2, 65160, Note_off_c, 1, 54, 0
2, 65160, Note_off_c, 1, 57, 0
2, 65160, Note_on_c, 1, 61, 127
2, 65160, Note_off_c, 1, 63, 0
2, 65160, Note_off_c, 1, 66, 0
2, 65160, Note_off_c, 1, 71, 0
2, 65200, Note_off_c, 1, 49, 0
2, 65200, Note_on_c, 1, 50, 127
2, 65200, Note_off_c, 1, 52, 0
2, 65200, Note_off_c, 1, 59, 0
2, 65200, Note_on_c, 1, 60, 127
2, 65200, Note_off_c, 1, 61, 0
2, 65200, Note_on_c, 1, 77, 127
2, 65200, Note_on_c, 1, 81, 127
2, 65240, Note_on_c, 1, 47, 127
2, 65240, Note_off_c, 1, 50, 0
2, 65240, Note_on_c, 1, 54, 127
2, 65240, Note_on_c, 1, 57, 127
2, 65240, Note_on_c, 1, 59, 127
2, 65240, Note_off_c, 1, 60, 0
2, 65240, Note_on_c, 1, 63, 127
2, 65240, Note_on_c, 1, 66, 127
2, 65240, Note_on_c, 1, 71, 127
2, 65240, Note_off_c, 1, 77, 0
2, 65240, Note_off_c, 1, 81, 0
2, 65280, Note_off_c, 1, 47, 0
2, 65280, Note_on_c, 1, 48, 127
2, 65280, Note_on_c, 1, 50, 127
2, 65280, Note_off_c, 1, 54, 0
2, 65280, Note_off_c, 1, 57, 0
2, 65280, Note_off_c, 1, 59, 0
2, 65280, Note_off_c, 1, 63, 0
2, 65280, Note_on_c, 1, 65, 127
2, 65280, Note_off_c, 1, 66, 0
2, 65320, Note_on_c, 1, 38, 127
2, 65320, Note_on_c, 1, 41, 127
2, 65320, Note_on_c, 1, 45, 127
2, 65320, Note_off_c, 1, 48, 0
2, 65320, Note_on_c, 1, 53, 127
2, 65320, Note_on_c, 1, 57, 127
2, 65320, Note_off_c, 1, 71, 0
2, 65360, Note_off_c, 1, 38, 0
2, 65360, Note_off_c, 1, 41, 0
2, 65360, Note_off_c, 1, 45, 0
2, 65360, Note_on_c, 1, 48, 127
2, 65360, Note_off_c, 1, 50, 0
2, 65360, Note_off_c, 1, 53, 0
2, 65360, Note_on_c, 1, 56, 127
2, 65360, Note_off_c, 1, 57, 0
2, 65360, Note_on_c, 1, 59, 127
2, 65360, Note_off_c, 1, 65, 0
2, 65360, Note_on_c, 1, 74, 127
2, 65400, Note_off_c, 1, 48, 0
2, 65400, Note_off_c, 1, 56, 0
2, 65400, Note_off_c, 1, 59, 0
2, 65400, Note_on_c, 1, 68, 127
2, 65400, Note_off_c, 1, 74, 0
2, 65400, Note_on_c, 1, 75, 127
2, 65400, Note_on_c, 1, 89, 127
2, 65440, Note_off_c, 1, 68, 0
2, 65440, Note_off_c, 1, 75, 0
2, 65440, Note_off_c, 1, 89, 0
2, 65480, Note_on_c, 1, 58, 127
2, 65480, Note_on_c, 1, 60, 127
2, 65480, Note_on_c, 1, 69, 127
2, 65480, Note_on_c, 1, 77, 127
2, 65840, Note_off_c, 1, 58, 0
2, 65840, Note_off_c, 1, 60, 0
2, 65840, Note_off_c, 1, 69, 0
2, 65840, Note_off_c, 1, 77, 0
2, 65880, Note_on_c, 1, 53, 127
2, 65880, Note_on_c, 1, 93, 127
2, 65920, Note_on_c, 1, 84, 127
2, 65920, Note_off_c, 1, 93, 0
2, 66240, Note_off_c, 1, 53, 0
2, 66280, Note_on_c, 1, 60, 127
2, 66280, Note_on_c, 1, 64, 127
2, 66280, Note_on_c, 1, 70, 127
2, 66280, Note_off_c, 1, 84, 0
2, 66280, Note_on_c, 1, 86, 127
2, 66360, Note_off_c, 1, 60, 0
2, 66360, Note_off_c, 1, 64, 0
2, 66360, Note_off_c, 1, 70, 0
2, 66360, Note_off_c, 1, 86, 0
2, 66400, Note_on_c, 1, 60, 127
2, 66400, Note_on_c, 1, 64, 127
2, 66400, Note_on_c, 1, 70, 127
2, 66400, Note_on_c, 1, 86, 127
2, 66480, Note_off_c, 1, 86, 0
2, 66520, Note_on_c, 1, 84, 127
2, 66680, Note_off_c, 1, 60, 0
2, 66680, Note_off_c, 1, 64, 0
2, 66680, Note_off_c, 1, 70, 0
2, 66680, Note_off_c, 1, 84, 0
2, 66720, Note_on_c, 1, 60, 127
2, 66720, Note_on_c, 1, 70, 127
2, 66720, Note_on_c, 1, 81, 127
2, 67080, Note_off_c, 1, 60, 0
2, 67080, Note_off_c, 1, 70, 0
2, 67080, Note_off_c, 1, 81, 0
2, 67120, Note_on_c, 1, 60, 127
2, 67120, Note_on_c, 1, 66, 127
2, 67120, Note_on_c, 1, 70, 127
2, 67120, Note_on_c, 1, 80, 127
2, 67440, Note_off_c, 1, 60, 0
2, 67440, Note_off_c, 1, 66, 0
2, 67440, Note_off_c, 1, 70, 0
2, 67440, Note_off_c, 1, 80, 0
2, 67520, Note_on_c, 1, 60, 127
2, 67520, Note_on_c, 1, 66, 127
2, 67520, Note_on_c, 1, 70, 127
2, 67520, Note_on_c, 1, 80, 127
2, 67840, Note_off_c, 1, 60, 0
2, 67840, Note_off_c, 1, 66, 0
2, 67840, Note_off_c, 1, 70, 0
2, 67840, Note_off_c, 1, 80, 0
2, 67920, Note_on_c, 1, 60, 127
2, 67920, Note_on_c, 1, 66, 127
2, 67920, Note_on_c, 1, 70, 127
2, 67920, Note_on_c, 1, 80, 127
2, 68240, Note_off_c, 1, 60, 0
2, 68240, Note_off_c, 1, 66, 0
2, 68240, Note_off_c, 1, 70, 0
2, 68240, Note_off_c, 1, 80, 0
2, 68320, Note_on_c, 1, 60, 127
2, 68320, Note_on_c, 1, 66, 127
2, 68320, Note_on_c, 1, 70, 127
2, 68320, Note_on_c, 1, 80, 127
2, 68440, Note_off_c, 1, 60, 0
2, 68440, Note_off_c, 1, 66, 0
2, 68440, Note_off_c, 1, 70, 0
2, 68440, Note_off_c, 1, 80, 0
2, 68480, Note_on_c, 1, 60, 127
2, 68480, Note_on_c, 1, 66, 127
2, 68480, Note_on_c, 1, 70, 127
2, 68480, Note_on_c, 1, 80, 127
2, 68600, Note_off_c, 1, 80, 0
2, 68640, Note_on_c, 1, 80, 127
2, 68720, Note_off_c, 1, 60, 0
2, 68720, Note_off_c, 1, 66, 0
2, 68720, Note_off_c, 1, 70, 0
2, 68720, Note_off_c, 1, 80, 0
2, 68760, Note_on_c, 1, 54, 127
2, 68760, Note_on_c, 1, 58, 127
2, 68760, Note_on_c, 1, 63, 127
2, 68760, Note_on_c, 1, 83, 127
2, 69120, Note_off_c, 1, 54, 0
2, 69120, Note_off_c, 1, 58, 0
2, 69120, Note_off_c, 1, 63, 0
2, 69120, Note_off_c, 1, 83, 0
2, 69160, Note_on_c, 1, 51, 127
2, 69160, Note_on_c, 1, 55, 127
2, 69160, Note_on_c, 1, 58, 127
2, 69160, Note_on_c, 1, 63, 127
2, 69160, Note_on_c, 1, 92, 127
2, 69520, Note_off_c, 1, 51, 0
2, 69520, Note_off_c, 1, 55, 0
2, 69520, Note_off_c, 1, 58, 0
2, 69520, Note_off_c, 1, 63, 0
2, 69520, Note_on_c, 1, 84, 127
2, 69520, Note_off_c, 1, 92, 0
2, 69560, Note_on_c, 1, 44, 127
2, 69560, Note_on_c, 1, 49, 127
2, 69560, Note_on_c, 1, 65, 127
2, 69560, Note_on_c, 1, 68, 127
2, 69560, Note_on_c, 1, 72, 127
2, 69560, Note_off_c, 1, 84, 0
2, 69600, Note_off_c, 1, 44, 0
2, 69600, Note_off_c, 1, 49, 0
2, 69600, Note_on_c, 1, 87, 127
2, 69640, Note_on_c, 1, 43, 127
2, 69640, Note_on_c, 1, 47, 127
2, 69640, Note_on_c, 1, 60, 127
2, 69640, Note_on_c, 1, 64, 127
2, 69640, Note_off_c, 1, 65, 0
2, 69640, Note_off_c, 1, 68, 0
2, 69640, Note_off_c, 1, 87, 0
2, 69680, Note_off_c, 1, 43, 0
2, 69680, Note_off_c, 1, 47, 0
2, 69680, Note_off_c, 1, 60, 0
2, 69680, Note_off_c, 1, 64, 0
2, 69680, Note_on_c, 1, 65, 127
2, 69680, Note_on_c, 1, 68, 127
2, 69680, Note_on_c, 1, 87, 127
2, 69800, Note_off_c, 1, 87, 0
2, 69800, Note_on_c, 1, 89, 127
2, 69840, Note_on_c, 1, 87, 127
2, 69840, Note_off_c, 1, 89, 0
2, 69880, Note_off_c, 1, 65, 0
2, 69880, Note_off_c, 1, 68, 0
2, 69880, Note_off_c, 1, 72, 0
2, 69880, Note_off_c, 1, 87, 0
2, 69960, Note_on_c, 1, 61, 127
2, 69960, Note_on_c, 1, 64, 127
2, 69960, Note_on_c, 1, 67, 127
2, 69960, Note_on_c, 1, 72, 127
2, 70280, Note_off_c, 1, 64, 0
2, 70280, Note_off_c, 1, 67, 0
2, 70280, Note_off_c, 1, 72, 0
2, 70320, Note_off_c, 1, 61, 0
2, 70360, Note_on_c, 1, 40, 127
2, 70360, Note_on_c, 1, 52, 127
2, 70360, Note_on_c, 1, 58, 127
2, 70360, Note_on_c, 1, 74, 127
2, 70400, Note_off_c, 1, 40, 0
2, 70400, Note_off_c, 1, 52, 0
2, 70400, Note_on_c, 1, 55, 127
2, 70400, Note_on_c, 1, 62, 127
2, 70400, Note_on_c, 1, 67, 127
2, 70400, Note_on_c, 1, 69, 127
2, 70400, Note_off_c, 1, 74, 0
2, 70440, Note_on_c, 1, 53, 127
2, 70440, Note_off_c, 1, 55, 0
2, 70440, Note_off_c, 1, 58, 0
2, 70440, Note_on_c, 1, 59, 127
2, 70440, Note_on_c, 1, 61, 127
2, 70440, Note_off_c, 1, 62, 0
2, 70440, Note_off_c, 1, 67, 0
2, 70440, Note_off_c, 1, 69, 0
2, 70440, Note_on_c, 1, 77, 127
2, 70480, Note_off_c, 1, 53, 0
2, 70480, Note_off_c, 1, 59, 0
2, 70480, Note_off_c, 1, 61, 0
2, 70480, Note_off_c, 1, 77, 0
2, 70520, Note_on_c, 1, 61, 127
2, 70520, Note_on_c, 1, 65, 127
2, 70520, Note_on_c, 1, 91, 127
2, 70520, Note_on_c, 1, 92, 127
2, 70520, Note_on_c, 1, 94, 127
2, 70560, Note_on_c, 1, 36, 127
2, 70560, Note_off_c, 1, 61, 0
2, 70560, Note_on_c, 1, 64, 127
2, 70560, Note_off_c, 1, 65, 0
2, 70560, Note_on_c, 1, 79, 127
2, 70560, Note_on_c, 1, 84, 127
2, 70560, Note_off_c, 1, 91, 0
2, 70560, Note_off_c, 1, 92, 0
2, 70560, Note_off_c, 1, 94, 0
2, 70600, Note_off_c, 1, 36, 0
2, 70600, Note_on_c, 1, 51, 127
2, 70600, Note_on_c, 1, 58, 127
2, 70600, Note_on_c, 1, 61, 127
2, 70600, Note_off_c, 1, 64, 0
2, 70600, Note_off_c, 1, 84, 0
2, 70600, Note_on_c, 1, 87, 127
2, 70600, Note_on_c, 1, 91, 127
2, 70640, Note_on_c, 1, 72, 127
2, 70640, Note_off_c, 1, 79, 0
2, 70640, Note_off_c, 1, 87, 0
2, 70640, Note_off_c, 1, 91, 0
2, 70680, Note_off_c, 1, 51, 0
2, 70680, Note_off_c, 1, 58, 0
2, 70680, Note_off_c, 1, 61, 0
2, 70680, Note_on_c, 1, 82, 127
2, 70680, Note_on_c, 1, 94, 127
2, 70720, Note_off_c, 1, 72, 0
2, 70720, Note_off_c, 1, 82, 0
2, 70720, Note_off_c, 1, 94, 0
2, 70760, Note_on_c, 1, 60, 127
2, 70760, Note_on_c, 1, 69, 127
2, 70760, Note_on_c, 1, 78, 127
2, 70760, Note_on_c, 1, 81, 127
2, 71120, Note_off_c, 1, 60, 0
2, 71120, Note_off_c, 1, 69, 0
2, 71120, Note_off_c, 1, 78, 0
2, 71120, Note_off_c, 1, 81, 0
2, 71160, Note_on_c, 1, 29, 127
2, 71160, Note_on_c, 1, 69, 127
2, 71160, Note_on_c, 1, 76, 127
2, 71200, Note_off_c, 1, 29, 0
2, 71200, Note_on_c, 1, 57, 127
2, 71200, Note_on_c, 1, 64, 127
2, 71200, Note_on_c, 1, 67, 127
2, 71200, Note_on_c, 1, 73, 127
2, 71200, Note_off_c, 1, 76, 0
2, 71200, Note_on_c, 1, 81, 127
2, 71240, Note_off_c, 1, 57, 0
2, 71240, Note_on_c, 1, 62, 127
2, 71240, Note_off_c, 1, 64, 0
2, 71240, Note_on_c, 1, 65, 127
2, 71240, Note_off_c, 1, 67, 0
2, 71240, Note_off_c, 1, 73, 0
2, 71240, Note_on_c, 1, 77, 127
2, 71240, Note_on_c, 1, 89, 127
2, 71280, Note_off_c, 1, 62, 0
2, 71280, Note_off_c, 1, 65, 0
2, 71280, Note_off_c, 1, 69, 0
2, 71280, Note_off_c, 1, 77, 0
2, 71280, Note_on_c, 1, 80, 127
2, 71280, Note_off_c, 1, 81, 0
2, 71280, Note_on_c, 1, 83, 127
2, 71280, Note_on_c, 1, 86, 127
2, 71280, Note_on_c, 1, 92, 127
2, 71280, Note_on_c, 1, 95, 127
2, 71280, Note_on_c, 1, 98, 127
2, 71280, Note_on_c, 1, 101, 127
2, 71280, Note_on_c, 1, 107, 127
2, 71320, Note_off_c, 1, 80, 0
2, 71320, Note_on_c, 1, 81, 127
2, 71320, Note_off_c, 1, 83, 0
2, 71320, Note_off_c, 1, 86, 0
2, 71320, Note_off_c, 1, 89, 0
2, 71320, Note_off_c, 1, 92, 0
2, 71320, Note_off_c, 1, 95, 0
2, 71320, Note_off_c, 1, 98, 0
2, 71320, Note_off_c, 1, 101, 0
2, 71320, Note_off_c, 1, 107, 0
2, 71360, Note_on_c, 1, 42, 127
2, 71360, Note_on_c, 1, 76, 127
2, 71360, Note_off_c, 1, 81, 0
2, 71360, Note_on_c, 1, 88, 127
2, 71520, Note_off_c, 1, 42, 0
2, 71560, Note_on_c, 1, 55, 127
2, 71720, Note_off_c, 1, 55, 0
2, 71760, Note_on_c, 1, 55, 127
2, 71920, Note_off_c, 1, 55, 0
2, 71920, Note_off_c, 1, 76, 0
2, 71920, Note_off_c, 1, 88, 0
2, 71960, Note_on_c, 1, 50, 127
2, 71960, Note_on_c, 1, 79, 127
2, 71960, Note_on_c, 1, 91, 127
2, 72120, Note_off_c, 1, 50, 0
2, 72160, Note_on_c, 1, 48, 127
2, 72320, Note_off_c, 1, 48, 0
2, 72320, Note_off_c, 1, 79, 0
2, 72320, Note_off_c, 1, 91, 0
2, 72360, Note_on_c, 1, 67, 127
2, 72360, Note_on_c, 1, 81, 127
2, 72360, Note_on_c, 1, 85, 127
2, 72400, Note_on_c, 1, 61, 127
2, 72400, Note_on_c, 1, 64, 127
2, 72400, Note_off_c, 1, 67, 0
2, 72400, Note_on_c, 1, 88, 127
2, 72440, Note_on_c, 1, 59, 127
2, 72440, Note_off_c, 1, 61, 0
2, 72440, Note_off_c, 1, 64, 0
2, 72440, Note_on_c, 1, 67, 127
2, 72440, Note_on_c, 1, 74, 127
2, 72440, Note_off_c, 1, 81, 0
2, 72440, Note_off_c, 1, 85, 0
2, 72440, Note_on_c, 1, 86, 127
2, 72440, Note_off_c, 1, 88, 0
2, 72480, Note_off_c, 1, 59, 0
2, 72480, Note_off_c, 1, 67, 0
2, 72480, Note_off_c, 1, 74, 0
2, 72480, Note_off_c, 1, 86, 0
2, 72520, Note_on_c, 1, 47, 127
2, 72520, Note_on_c, 1, 58, 127
2, 72520, Note_on_c, 1, 88, 127
2, 72560, Note_off_c, 1, 47, 0
2, 72560, Note_off_c, 1, 58, 0
2, 72560, Note_on_c, 1, 67, 127
2, 72560, Note_on_c, 1, 81, 127
2, 72560, Note_on_c, 1, 83, 127
2, 72560, Note_off_c, 1, 88, 0
2, 72600, Note_off_c, 1, 67, 0
2, 72600, Note_on_c, 1, 73, 127
2, 72600, Note_on_c, 1, 74, 127
2, 72600, Note_on_c, 1, 78, 127
2, 72600, Note_off_c, 1, 83, 0
2, 72640, Note_on_c, 1, 69, 127
2, 72640, Note_off_c, 1, 73, 0
2, 72640, Note_off_c, 1, 74, 0
2, 72640, Note_off_c, 1, 78, 0
2, 72640, Note_off_c, 1, 81, 0
2, 72640, Note_on_c, 1, 85, 127
2, 72640, Note_on_c, 1, 97, 127
2, 72680, Note_off_c, 1, 69, 0
2, 72680, Note_on_c, 1, 70, 127
2, 72680, Note_on_c, 1, 79, 127
2, 72680, Note_on_c, 1, 82, 127
2, 72680, Note_off_c, 1, 85, 0
2, 72680, Note_on_c, 1, 86, 127
2, 72680, Note_on_c, 1, 94, 127
2, 72680, Note_off_c, 1, 97, 0
2, 72720, Note_on_c, 1, 69, 127
2, 72720, Note_off_c, 1, 70, 0
2, 72720, Note_off_c, 1, 79, 0
2, 72720, Note_on_c, 1, 81, 127
2, 72720, Note_off_c, 1, 82, 0
2, 72720, Note_off_c, 1, 86, 0
2, 72720, Note_off_c, 1, 94, 0
2, 72760, Note_off_c, 1, 69, 0
2, 72760, Note_off_c, 1, 81, 0
2, 72800, Note_on_c, 1, 67, 127
2, 72800, Note_on_c, 1, 71, 127
2, 72800, Note_on_c, 1, 83, 127
2, 72800, Note_on_c, 1, 91, 127
2, 72800, Note_on_c, 1, 95, 127
2, 73120, Note_on_c, 1, 59, 127
2, 73120, Note_off_c, 1, 67, 0
2, 73120, Note_off_c, 1, 71, 0
2, 73160, Note_off_c, 1, 59, 0
2, 73160, Note_off_c, 1, 83, 0
2, 73160, Note_off_c, 1, 91, 0
2, 73160, Note_off_c, 1, 95, 0
2, 73200, Note_on_c, 1, 40, 127
2, 73200, Note_on_c, 1, 52, 127
2, 73200, Note_on_c, 1, 74, 127
2, 73200, Note_on_c, 1, 80, 127
2, 73200, Note_on_c, 1, 86, 127
2, 73560, Note_off_c, 1, 40, 0
2, 73560, Note_off_c, 1, 52, 0
2, 73560, Note_off_c, 1, 74, 0
2, 73560, Note_off_c, 1, 80, 0
2, 73560, Note_off_c, 1, 86, 0
2, 73600, Note_on_c, 1, 36, 127
2, 73600, Note_on_c, 1, 40, 127
2, 73600, Note_on_c, 1, 48, 127
2, 73600, Note_on_c, 1, 57, 127
2, 73960, Note_off_c, 1, 36, 0
2, 73960, Note_off_c, 1, 40, 0
2, 73960, Note_off_c, 1, 48, 0
2, 73960, Note_off_c, 1, 57, 0
2, 74000, Note_on_c, 1, 33, 127
2, 74000, Note_on_c, 1, 40, 127
2, 74000, Note_on_c, 1, 45, 127
2, 74000, Note_on_c, 1, 59, 127
2, 74320, Note_off_c, 1, 33, 0
2, 74320, Note_off_c, 1, 40, 0
2, 74320, Note_off_c, 1, 45, 0
2, 74320, Note_off_c, 1, 59, 0
2, 74360, Note_on_c, 1, 33, 127
2, 74360, Note_on_c, 1, 40, 127
2, 74360, Note_on_c, 1, 45, 127
2, 74360, Note_on_c, 1, 59, 127
2, 74720, Note_off_c, 1, 33, 0
2, 74720, Note_off_c, 1, 40, 0
2, 74720, Note_off_c, 1, 45, 0
2, 74720, Note_on_c, 1, 55, 127
2, 74720, Note_on_c, 1, 58, 127
2, 74720, Note_off_c, 1, 59, 0
2, 74720, Note_on_c, 1, 62, 127
2, 74720, Note_on_c, 1, 67, 127
2, 74720, Note_on_c, 1, 70, 127
2, 74760, Note_off_c, 1, 55, 0
2, 74760, Note_off_c, 1, 58, 0
2, 74760, Note_off_c, 1, 62, 0
2, 74760, Note_off_c, 1, 67, 0
2, 74760, Note_off_c, 1, 70, 0
2, 74800, Note_on_c, 1, 48, 127
2, 74800, Note_on_c, 1, 63, 127
2, 74800, Note_on_c, 1, 104, 127
2, 74800, Note_on_c, 1, 106, 127
2, 74840, Note_on_c, 1, 37, 127
2, 74840, Note_on_c, 1, 44, 127
2, 74840, Note_off_c, 1, 48, 0
2, 74840, Note_on_c, 1, 53, 127
2, 74840, Note_off_c, 1, 63, 0
2, 74840, Note_on_c, 1, 65, 127
2, 74840, Note_on_c, 1, 77, 127
2, 74840, Note_off_c, 1, 104, 0
2, 74840, Note_off_c, 1, 106, 0
2, 77160, Note_off_c, 1, 37, 0
2, 77160, Note_off_c, 1, 44, 0
2, 77160, Note_off_c, 1, 53, 0
2, 77160, Note_off_c, 1, 65, 0
2, 77160, Note_off_c, 1, 77, 0
2, 77200, Note_on_c, 1, 37, 127
2, 77200, Note_on_c, 1, 44, 127
2, 77200, Note_on_c, 1, 53, 127
2, 77200, Note_on_c, 1, 65, 127
2, 77200, Note_on_c, 1, 77, 127
2, 78200, Note_off_c, 1, 37, 0
2, 78200, Note_off_c, 1, 44, 0
2, 78200, Note_off_c, 1, 53, 0
2, 78200, Note_off_c, 1, 65, 0
2, 78200, Note_off_c, 1, 77, 0
2, 78240, Note_on_c, 1, 42, 127
2, 78240, Note_on_c, 1, 61, 127
2, 78240, Note_on_c, 1, 78, 127
2, 78280, Note_off_c, 1, 42, 0
2, 78280, Note_on_c, 1, 52, 127
2, 78280, Note_on_c, 1, 54, 127
2, 78280, Note_off_c, 1, 78, 0
2, 78280, Note_on_c, 1, 83, 127
2, 78320, Note_on_c, 1, 42, 127
2, 78320, Note_off_c, 1, 52, 0
2, 78320, Note_off_c, 1, 54, 0
2, 78320, Note_on_c, 1, 78, 127
2, 78320, Note_off_c, 1, 83, 0
2, 78440, Note_off_c, 1, 42, 0
2, 78440, Note_off_c, 1, 61, 0
2, 78440, Note_on_c, 1, 64, 127
2, 78440, Note_on_c, 1, 71, 127
2, 78440, Note_off_c, 1, 78, 0
2, 78440, Note_on_c, 1, 83, 127
2, 78440, Note_on_c, 1, 90, 127
2, 78480, Note_on_c, 1, 42, 127
2, 78480, Note_on_c, 1, 61, 127
2, 78480, Note_off_c, 1, 64, 0
2, 78480, Note_on_c, 1, 69, 127
2, 78480, Note_off_c, 1, 71, 0
2, 78480, Note_on_c, 1, 78, 127
2, 78480, Note_off_c, 1, 83, 0
2, 78480, Note_off_c, 1, 90, 0
2, 78520, Note_off_c, 1, 69, 0
2, 78560, Note_on_c, 1, 69, 127
2, 78600, Note_off_c, 1, 42, 0
2, 78600, Note_on_c, 1, 49, 127
2, 78600, Note_on_c, 1, 53, 127
2, 78600, Note_on_c, 1, 59, 127
2, 78600, Note_off_c, 1, 61, 0
2, 78600, Note_on_c, 1, 68, 127
2, 78600, Note_off_c, 1, 69, 0
2, 78600, Note_on_c, 1, 73, 127
2, 78600, Note_off_c, 1, 78, 0
2, 78640, Note_off_c, 1, 49, 0
2, 78640, Note_off_c, 1, 53, 0
2, 78640, Note_off_c, 1, 59, 0
2, 78640, Note_off_c, 1, 73, 0
2, 78640, Note_on_c, 1, 81, 127
2, 78640, Note_on_c, 1, 82, 127
2, 78680, Note_on_c, 1, 43, 127
2, 78680, Note_on_c, 1, 50, 127
2, 78680, Note_on_c, 1, 55, 127
2, 78680, Note_off_c, 1, 68, 0
2, 78680, Note_on_c, 1, 77, 127
2, 78680, Note_on_c, 1, 79, 127
2, 78680, Note_off_c, 1, 81, 0
2, 78680, Note_off_c, 1, 82, 0
2, 78680, Note_on_c, 1, 83, 127
2, 78680, Note_on_c, 1, 86, 127
2, 78720, Note_on_c, 1, 36, 127
2, 78720, Note_off_c, 1, 43, 0
2, 78720, Note_off_c, 1, 50, 0
2, 78720, Note_off_c, 1, 55, 0
2, 78720, Note_on_c, 1, 58, 127
2, 78720, Note_on_c, 1, 61, 127
2, 78720, Note_on_c, 1, 64, 127
2, 78720, Note_on_c, 1, 67, 127
2, 78720, Note_off_c, 1, 77, 0
2, 78720, Note_off_c, 1, 79, 0
2, 78720, Note_off_c, 1, 83, 0
2, 78720, Note_off_c, 1, 86, 0
2, 78760, Note_off_c, 1, 36, 0
2, 78760, Note_on_c, 1, 43, 127
2, 78760, Note_on_c, 1, 50, 127
2, 78760, Note_on_c, 1, 55, 127
2, 78760, Note_off_c, 1, 58, 0
2, 78760, Note_off_c, 1, 61, 0
2, 78760, Note_off_c, 1, 64, 0
2, 78760, Note_off_c, 1, 67, 0
2, 78760, Note_on_c, 1, 77, 127
2, 78760, Note_on_c, 1, 79, 127
2, 78760, Note_on_c, 1, 83, 127
2, 78760, Note_on_c, 1, 86, 127
2, 78800, Note_off_c, 1, 43, 0
2, 78800, Note_off_c, 1, 50, 0
2, 78800, Note_off_c, 1, 55, 0
2, 78800, Note_off_c, 1, 77, 0
2, 78800, Note_off_c, 1, 79, 0
2, 78800, Note_off_c, 1, 83, 0
2, 78800, Note_off_c, 1, 86, 0
2, 78840, Note_on_c, 1, 59, 127
2, 78840, Note_on_c, 1, 64, 127
2, 78840, Note_on_c, 1, 68, 127
2, 78840, Note_on_c, 1, 71, 127
2, 78840, Note_on_c, 1, 76, 127
2, 78840, Note_on_c, 1, 80, 127
2, 78840, Note_on_c, 1, 83, 127
2, 78840, Note_on_c, 1, 88, 127
2, 79200, Note_off_c, 1, 59, 0
2, 79200, Note_off_c, 1, 64, 0
2, 79200, Note_off_c, 1, 68, 0
2, 79200, Note_off_c, 1, 71, 0
2, 79200, Note_off_c, 1, 76, 0
2, 79200, Note_off_c, 1, 80, 0
2, 79200, Note_off_c, 1, 83, 0
2, 79200, Note_off_c, 1, 88, 0
2, 79280, Note_on_c, 1, 30, 127
2, 79280, Note_on_c, 1, 42, 127
2, 79280, Note_on_c, 1, 58, 127
2, 79280, Note_on_c, 1, 66, 127
2, 79280, Note_on_c, 1, 70, 127
2, 80040, Note_off_c, 1, 30, 0
2, 80040, Note_off_c, 1, 42, 0
2, 80040, Note_off_c, 1, 58, 0
2, 80040, Note_off_c, 1, 66, 0
2, 80040, Note_off_c, 1, 70, 0
2, 80080, Note_on_c, 1, 45, 127
2, 80080, Note_on_c, 1, 52, 127
2, 80080, Note_on_c, 1, 56, 127
2, 80080, Note_on_c, 1, 59, 127
2, 80080, Note_on_c, 1, 62, 127
2, 80080, Note_on_c, 1, 71, 127
2, 80120, Note_off_c, 1, 45, 0
2, 80120, Note_off_c, 1, 52, 0
2, 80120, Note_off_c, 1, 56, 0
2, 80120, Note_on_c, 1, 57, 127
2, 80120, Note_off_c, 1, 59, 0
2, 80120, Note_on_c, 1, 61, 127
2, 80120, Note_off_c, 1, 62, 0
2, 80120, Note_on_c, 1, 64, 127
2, 80120, Note_off_c, 1, 71, 0
2, 80120, Note_on_c, 1, 85, 127
2, 80120, Note_on_c, 1, 88, 127
2, 80160, Note_on_c, 1, 45, 127
2, 80160, Note_on_c, 1, 52, 127
2, 80160, Note_on_c, 1, 56, 127
2, 80160, Note_off_c, 1, 57, 0
2, 80160, Note_on_c, 1, 59, 127
2, 80160, Note_off_c, 1, 61, 0
2, 80160, Note_on_c, 1, 62, 127
2, 80160, Note_off_c, 1, 64, 0
2, 80160, Note_on_c, 1, 71, 127
2, 80160, Note_off_c, 1, 85, 0
2, 80160, Note_off_c, 1, 88, 0
2, 80360, Note_off_c, 1, 71, 0
2, 80400, Note_off_c, 1, 45, 0
2, 80400, Note_on_c, 1, 50, 127
2, 80400, Note_off_c, 1, 52, 0
2, 80400, Note_on_c, 1, 55, 127
2, 80400, Note_off_c, 1, 56, 0
2, 80400, Note_off_c, 1, 59, 0
2, 80400, Note_off_c, 1, 62, 0
2, 80400, Note_on_c, 1, 77, 127
2, 80400, Note_on_c, 1, 79, 127
2, 80440, Note_off_c, 1, 50, 0
2, 80440, Note_off_c, 1, 55, 0
2, 80440, Note_off_c, 1, 77, 0
2, 80440, Note_off_c, 1, 79, 0
2, 80480, Note_on_c, 1, 47, 127
2, 80480, Note_on_c, 1, 56, 127
2, 80480, Note_on_c, 1, 71, 127
2, 80480, Note_on_c, 1, 76, 127
2, 80800, Note_off_c, 1, 71, 0
2, 80840, Note_on_c, 1, 64, 127
2, 81160, Note_off_c, 1, 47, 0
2, 81160, Note_off_c, 1, 56, 0
2, 81160, Note_off_c, 1, 64, 0
2, 81160, Note_off_c, 1, 76, 0
2, 81280, Note_on_c, 1, 47, 127
2, 81280, Note_on_c, 1, 52, 127
2, 81280, Note_on_c, 1, 67, 127
2, 81280, Note_on_c, 1, 71, 127
2, 81280, Note_on_c, 1, 79, 127
2, 81440, Note_off_c, 1, 52, 0
2, 81480, Note_on_c, 1, 52, 127
2, 81600, Note_off_c, 1, 52, 0
2, 81600, Note_on_c, 1, 59, 127
2, 81640, Note_off_c, 1, 59, 0
2, 81680, Note_on_c, 1, 59, 127
2, 82040, Note_off_c, 1, 47, 0
2, 82040, Note_off_c, 1, 59, 0
2, 82040, Note_off_c, 1, 67, 0
2, 82040, Note_off_c, 1, 71, 0
2, 82040, Note_off_c, 1, 79, 0
2, 82080, Note_on_c, 1, 43, 127
2, 82080, Note_on_c, 1, 57, 127
2, 82080, Note_on_c, 1, 65, 127
2, 82080, Note_on_c, 1, 77, 127
2, 82400, Note_off_c, 1, 43, 0
2, 82400, Note_off_c, 1, 57, 0
2, 82400, Note_off_c, 1, 65, 0
2, 82400, Note_off_c, 1, 77, 0
2, 82440, Note_on_c, 1, 52, 127
2, 82440, Note_on_c, 1, 69, 127
2, 82440, Note_on_c, 1, 72, 127
2, 82440, Note_on_c, 1, 78, 127
2, 82480, Note_on_c, 1, 51, 127
2, 82480, Note_off_c, 1, 52, 0
2, 82480, Note_on_c, 1, 66, 127
2, 82480, Note_off_c, 1, 69, 0
2, 82480, Note_on_c, 1, 71, 127
2, 82480, Note_off_c, 1, 72, 0
2, 82480, Note_on_c, 1, 76, 127
2, 82480, Note_off_c, 1, 78, 0
2, 82520, Note_off_c, 1, 51, 0
2, 82520, Note_off_c, 1, 66, 0
2, 82520, Note_on_c, 1, 67, 127
2, 82520, Note_off_c, 1, 71, 0
2, 82520, Note_on_c, 1, 79, 127
2, 82520, Note_on_c, 1, 88, 127
2, 82560, Note_on_c, 1, 47, 127
2, 82560, Note_on_c, 1, 54, 127
2, 82560, Note_on_c, 1, 57, 127
2, 82560, Note_off_c, 1, 67, 0
2, 82560, Note_on_c, 1, 72, 127
2, 82560, Note_off_c, 1, 79, 0
2, 82560, Note_off_c, 1, 88, 0
2, 82600, Note_off_c, 1, 47, 0
2, 82600, Note_off_c, 1, 54, 0
2, 82600, Note_off_c, 1, 57, 0
2, 82600, Note_off_c, 1, 72, 0
2, 82600, Note_off_c, 1, 76, 0
2, 82640, Note_on_c, 1, 33, 127
2, 82640, Note_on_c, 1, 54, 127
2, 82640, Note_on_c, 1, 57, 127
2, 82640, Note_on_c, 1, 62, 127
2, 82640, Note_on_c, 1, 66, 127
2, 82640, Note_on_c, 1, 69, 127
2, 82640, Note_on_c, 1, 74, 127
2, 82640, Note_on_c, 1, 81, 127
2, 82800, Note_off_c, 1, 33, 0
2, 82800, Note_off_c, 1, 54, 0
2, 82800, Note_off_c, 1, 57, 0
2, 82800, Note_off_c, 1, 62, 0
2, 82800, Note_off_c, 1, 66, 0
2, 82800, Note_off_c, 1, 69, 0
2, 82800, Note_off_c, 1, 74, 0
2, 82800, Note_off_c, 1, 81, 0
2, 82840, Note_on_c, 1, 53, 127
2, 82840, Note_on_c, 1, 58, 127
2, 82840, Note_on_c, 1, 61, 127
2, 82840, Note_on_c, 1, 64, 127
2, 82840, Note_on_c, 1, 67, 127
2, 82840, Note_on_c, 1, 68, 127
2, 82880, Note_on_c, 1, 40, 127
2, 82880, Note_on_c, 1, 45, 127
2, 82880, Note_on_c, 1, 52, 127
2, 82880, Note_off_c, 1, 53, 0
2, 82880, Note_off_c, 1, 58, 0
2, 82880, Note_off_c, 1, 61, 0
2, 82880, Note_off_c, 1, 64, 0
2, 82880, Note_off_c, 1, 67, 0
2, 82880, Note_off_c, 1, 68, 0
2, 82880, Note_on_c, 1, 69, 127
2, 82920, Note_on_c, 1, 31, 127
2, 82920, Note_off_c, 1, 40, 0
2, 82920, Note_off_c, 1, 45, 0
2, 82920, Note_off_c, 1, 52, 0
2, 82920, Note_on_c, 1, 59, 127
2, 82920, Note_on_c, 1, 64, 127
2, 82920, Note_on_c, 1, 68, 127
2, 82920, Note_off_c, 1, 69, 0
2, 82920, Note_on_c, 1, 71, 127
2, 82960, Note_off_c, 1, 31, 0
2, 82960, Note_on_c, 1, 40, 127
2, 82960, Note_on_c, 1, 45, 127
2, 82960, Note_on_c, 1, 52, 127
2, 82960, Note_off_c, 1, 59, 0
2, 82960, Note_off_c, 1, 64, 0
2, 82960, Note_off_c, 1, 68, 0
2, 82960, Note_on_c, 1, 69, 127
2, 82960, Note_off_c, 1, 71, 0
2, 83000, Note_off_c, 1, 40, 0
2, 83000, Note_off_c, 1, 45, 0
2, 83000, Note_off_c, 1, 52, 0
2, 83000, Note_on_c, 1, 55, 127
2, 83000, Note_on_c, 1, 67, 127
2, 83000, Note_off_c, 1, 69, 0
2, 83000, Note_on_c, 1, 79, 127
2, 83000, Note_on_c, 1, 83, 127
2, 83000, Note_on_c, 1, 91, 127
2, 83160, Note_off_c, 1, 55, 0
2, 83160, Note_off_c, 1, 67, 0
2, 83160, Note_off_c, 1, 79, 0
2, 83160, Note_off_c, 1, 83, 0
2, 83160, Note_off_c, 1, 91, 0
2, 83240, Note_on_c, 1, 64, 127
2, 83240, Note_on_c, 1, 67, 127
2, 83240, Note_on_c, 1, 72, 127
2, 83240, Note_on_c, 1, 76, 127
2, 83240, Note_on_c, 1, 83, 127
2, 83240, Note_on_c, 1, 84, 127
2, 83240, Note_on_c, 1, 91, 127
2, 83240, Note_on_c, 1, 95, 127
2, 83440, Note_off_c, 1, 64, 0
2, 83440, Note_off_c, 1, 67, 0
2, 83440, Note_off_c, 1, 72, 0
2, 83440, Note_off_c, 1, 76, 0
2, 83440, Note_off_c, 1, 83, 0
2, 83440, Note_off_c, 1, 84, 0
2, 83440, Note_off_c, 1, 91, 0
2, 83440, Note_off_c, 1, 95, 0
2, 83480, Note_on_c, 1, 64, 127
2, 83480, Note_on_c, 1, 67, 127
2, 83480, Note_on_c, 1, 72, 127
2, 83480, Note_on_c, 1, 76, 127
2, 83480, Note_on_c, 1, 83, 127
2, 83480, Note_on_c, 1, 84, 127
2, 83480, Note_on_c, 1, 91, 127
2, 83480, Note_on_c, 1, 95, 127
2, 83960, Note_off_c, 1, 64, 0
2, 83960, Note_off_c, 1, 67, 0
2, 83960, Note_off_c, 1, 72, 0
2, 83960, Note_off_c, 1, 76, 0
2, 83960, Note_off_c, 1, 83, 0
2, 83960, Note_off_c, 1, 84, 0
2, 83960, Note_off_c, 1, 91, 0
2, 83960, Note_off_c, 1, 95, 0
2, 84000, Note_on_c, 1, 43, 127
2, 84000, Note_on_c, 1, 47, 127
2, 84000, Note_on_c, 1, 55, 127
2, 84000, Note_on_c, 1, 62, 127
2, 84360, Note_off_c, 1, 43, 0
2, 84360, Note_off_c, 1, 47, 0
2, 84360, Note_off_c, 1, 55, 0
2, 84360, Note_off_c, 1, 62, 0
2, 84400, Note_on_c, 1, 43, 127
2, 84400, Note_on_c, 1, 47, 127
2, 84400, Note_on_c, 1, 55, 127
2, 84400, Note_on_c, 1, 62, 127
2, 84760, Note_off_c, 1, 43, 0
2, 84760, Note_off_c, 1, 47, 0
2, 84760, Note_off_c, 1, 55, 0
2, 84760, Note_off_c, 1, 62, 0
2, 84800, Note_on_c, 1, 58, 127
2, 84800, Note_on_c, 1, 63, 127
2, 84800, Note_on_c, 1, 83, 127
2, 84840, Note_on_c, 1, 42, 127
2, 84840, Note_on_c, 1, 54, 127
2, 84840, Note_off_c, 1, 58, 0
2, 84840, Note_off_c, 1, 63, 0
2, 84840, Note_on_c, 1, 69, 127
2, 84840, Note_on_c, 1, 73, 127
2, 84840, Note_on_c, 1, 78, 127
2, 84840, Note_on_c, 1, 81, 127
2, 84840, Note_off_c, 1, 83, 0
2, 84880, Note_off_c, 1, 42, 0
2, 84880, Note_off_c, 1, 54, 0
2, 84880, Note_on_c, 1, 58, 127
2, 84880, Note_on_c, 1, 63, 127
2, 84880, Note_on_c, 1, 66, 127
2, 84880, Note_off_c, 1, 69, 0
2, 84880, Note_on_c, 1, 72, 127
2, 84880, Note_off_c, 1, 73, 0
2, 84880, Note_on_c, 1, 75, 127
2, 84880, Note_off_c, 1, 78, 0
2, 84880, Note_off_c, 1, 81, 0
2, 84880, Note_on_c, 1, 82, 127
2, 84880, Note_on_c, 1, 87, 127
2, 84920, Note_on_c, 1, 51, 127
2, 84920, Note_off_c, 1, 58, 0
2, 84920, Note_off_c, 1, 63, 0
2, 84920, Note_off_c, 1, 66, 0
2, 84920, Note_off_c, 1, 72, 0
2, 84920, Note_off_c, 1, 75, 0
2, 84920, Note_on_c, 1, 80, 127
2, 84920, Note_off_c, 1, 82, 0
2, 84920, Note_on_c, 1, 83, 127
2, 84920, Note_on_c, 1, 92, 127
2, 84960, Note_on_c, 1, 42, 127
2, 84960, Note_off_c, 1, 51, 0
2, 84960, Note_on_c, 1, 54, 127
2, 84960, Note_on_c, 1, 69, 127
2, 84960, Note_on_c, 1, 73, 127
2, 84960, Note_on_c, 1, 78, 127
2, 84960, Note_off_c, 1, 80, 0
2, 84960, Note_on_c, 1, 81, 127
2, 84960, Note_off_c, 1, 83, 0
2, 84960, Note_off_c, 1, 87, 0
2, 84960, Note_off_c, 1, 92, 0
2, 85160, Note_off_c, 1, 42, 0
2, 85160, Note_off_c, 1, 54, 0
2, 85160, Note_off_c, 1, 69, 0
2, 85160, Note_off_c, 1, 73, 0
2, 85160, Note_off_c, 1, 78, 0
2, 85160, Note_off_c, 1, 81, 0
2, 85200, Note_on_c, 1, 66, 127
2, 85200, Note_on_c, 1, 74, 127
2, 85200, Note_on_c, 1, 81, 127
2, 85200, Note_on_c, 1, 84, 127
2, 85200, Note_on_c, 1, 93, 127
2, 85240, Note_on_c, 1, 36, 127
2, 85240, Note_on_c, 1, 39, 127
2, 85240, Note_on_c, 1, 48, 127
2, 85240, Note_on_c, 1, 60, 127
2, 85240, Note_off_c, 1, 66, 0
2, 85240, Note_off_c, 1, 74, 0
2, 85240, Note_off_c, 1, 81, 0
2, 85240, Note_off_c, 1, 84, 0
2, 85240, Note_off_c, 1, 93, 0
2, 85280, Note_off_c, 1, 36, 0
2, 85280, Note_off_c, 1, 39, 0
2, 85280, Note_off_c, 1, 48, 0
2, 85280, Note_on_c, 1, 55, 127
2, 85280, Note_off_c, 1, 60, 0
2, 85280, Note_on_c, 1, 66, 127
2, 85280, Note_on_c, 1, 71, 127
2, 85280, Note_on_c, 1, 78, 127
2, 85320, Note_on_c, 1, 50, 127
2, 85320, Note_on_c, 1, 57, 127
2, 85320, Note_off_c, 1, 66, 0
2, 85320, Note_off_c, 1, 71, 0
2, 85320, Note_on_c, 1, 77, 127
2, 85320, Note_off_c, 1, 78, 0
2, 85360, Note_off_c, 1, 50, 0
2, 85360, Note_on_c, 1, 54, 127
2, 85360, Note_off_c, 1, 55, 0
2, 85360, Note_off_c, 1, 57, 0
2, 85360, Note_on_c, 1, 59, 127
2, 85360, Note_on_c, 1, 61, 127
2, 85360, Note_on_c, 1, 69, 127
2, 85360, Note_off_c, 1, 77, 0
2, 85400, Note_off_c, 1, 54, 0
2, 85400, Note_off_c, 1, 59, 0
2, 85400, Note_off_c, 1, 61, 0
2, 85400, Note_on_c, 1, 62, 127
2, 85400, Note_off_c, 1, 69, 0
2, 85400, Note_on_c, 1, 71, 127
2, 85400, Note_on_c, 1, 76, 127
2, 85400, Note_on_c, 1, 83, 127
2, 85520, Note_off_c, 1, 62, 0
2, 85520, Note_off_c, 1, 71, 0
2, 85520, Note_off_c, 1, 76, 0
2, 85560, Note_on_c, 1, 44, 127
2, 85560, Note_on_c, 1, 56, 127
2, 85560, Note_on_c, 1, 78, 127
2, 85560, Note_on_c, 1, 81, 127
2, 85560, Note_off_c, 1, 83, 0
2, 85560, Note_on_c, 1, 85, 127
2, 85600, Note_off_c, 1, 44, 0
2, 85600, Note_off_c, 1, 56, 0
2, 85600, Note_on_c, 1, 66, 127
2, 85600, Note_on_c, 1, 73, 127
2, 85600, Note_on_c, 1, 76, 127
2, 85600, Note_off_c, 1, 78, 0
2, 85600, Note_off_c, 1, 81, 0
2, 85600, Note_on_c, 1, 83, 127
2, 85600, Note_off_c, 1, 85, 0
2, 85640, Note_off_c, 1, 66, 0
2, 85640, Note_off_c, 1, 73, 0
2, 85640, Note_off_c, 1, 76, 0
2, 85640, Note_off_c, 1, 83, 0
2, 85680, Note_on_c, 1, 66, 127
2, 85680, Note_on_c, 1, 73, 127
2, 85680, Note_on_c, 1, 76, 127
2, 85680, Note_on_c, 1, 83, 127
2, 85800, Note_on_c, 1, 82, 127
2, 85800, Note_off_c, 1, 83, 0
2, 85960, Note_off_c, 1, 66, 0
2, 85960, Note_off_c, 1, 73, 0
2, 85960, Note_off_c, 1, 76, 0
2, 85960, Note_off_c, 1, 82, 0
2, 86040, Note_on_c, 1, 48, 127
2, 86040, Note_on_c, 1, 53, 127
2, 86040, Note_on_c, 1, 60, 127
2, 86040, Note_on_c, 1, 62, 127
2, 86040, Note_on_c, 1, 65, 127
2, 86080, Note_off_c, 1, 48, 0
2, 86080, Note_off_c, 1, 53, 0
2, 86080, Note_off_c, 1, 60, 0
2, 86080, Note_on_c, 1, 61, 127
2, 86080, Note_off_c, 1, 62, 0
2, 86080, Note_off_c, 1, 65, 0
2, 86080, Note_on_c, 1, 71, 127
2, 86080, Note_on_c, 1, 73, 127
2, 86080, Note_on_c, 1, 85, 127
2, 86120, Note_on_c, 1, 55, 127
2, 86120, Note_off_c, 1, 61, 0
2, 86120, Note_on_c, 1, 65, 127
2, 86120, Note_on_c, 1, 69, 127
2, 86120, Note_off_c, 1, 71, 0
2, 86120, Note_on_c, 1, 72, 127
2, 86120, Note_off_c, 1, 73, 0
2, 86120, Note_on_c, 1, 79, 127
2, 86120, Note_off_c, 1, 85, 0
2, 86160, Note_off_c, 1, 55, 0
2, 86160, Note_off_c, 1, 65, 0
2, 86160, Note_on_c, 1, 66, 127
2, 86160, Note_off_c, 1, 69, 0
2, 86160, Note_on_c, 1, 70, 127
2, 86160, Note_off_c, 1, 72, 0
2, 86160, Note_off_c, 1, 79, 0
2, 86160, Note_on_c, 1, 82, 127
2, 86160, Note_on_c, 1, 93, 127
2, 86200, Note_on_c, 1, 65, 127
2, 86200, Note_off_c, 1, 66, 0
2, 86200, Note_off_c, 1, 70, 0
2, 86200, Note_on_c, 1, 72, 127
2, 86200, Note_on_c, 1, 75, 127
2, 86200, Note_off_c, 1, 93, 0
2, 86240, Note_on_c, 1, 41, 127
2, 86240, Note_on_c, 1, 47, 127
2, 86240, Note_on_c, 1, 50, 127
2, 86240, Note_on_c, 1, 53, 127
2, 86240, Note_on_c, 1, 59, 127
2, 86240, Note_off_c, 1, 65, 0
2, 86240, Note_on_c, 1, 71, 127
2, 86240, Note_off_c, 1, 72, 0
2, 86240, Note_off_c, 1, 75, 0
2, 86240, Note_off_c, 1, 82, 0
2, 86280, Note_off_c, 1, 41, 0
2, 86280, Note_off_c, 1, 47, 0
2, 86280, Note_off_c, 1, 50, 0
2, 86280, Note_off_c, 1, 53, 0
2, 86280, Note_off_c, 1, 59, 0
2, 86280, Note_on_c, 1, 74, 127
2, 86280, Note_on_c, 1, 77, 127
2, 86280, Note_on_c, 1, 78, 127
2, 86320, Note_on_c, 1, 47, 127
2, 86320, Note_on_c, 1, 69, 127
2, 86320, Note_off_c, 1, 71, 0
2, 86320, Note_off_c, 1, 74, 0
2, 86320, Note_on_c, 1, 75, 127
2, 86320, Note_off_c, 1, 77, 0
2, 86320, Note_off_c, 1, 78, 0
2, 86320, Note_on_c, 1, 81, 127
2, 86360, Note_off_c, 1, 47, 0
2, 86360, Note_off_c, 1, 69, 0
2, 86360, Note_off_c, 1, 75, 0
2, 86360, Note_off_c, 1, 81, 0
2, 86400, Note_on_c, 1, 74, 127
2, 86400, Note_on_c, 1, 76, 127
2, 86400, Note_on_c, 1, 82, 127
2, 86400, Note_on_c, 1, 86, 127
2, 86760, Note_off_c, 1, 74, 0
2, 86760, Note_off_c, 1, 76, 0
2, 86760, Note_on_c, 1, 78, 127
2, 86760, Note_off_c, 1, 82, 0
2, 86760, Note_off_c, 1, 86, 0
2, 86800, Note_on_c, 1, 50, 127
2, 86800, Note_on_c, 1, 53, 127
2, 86800, Note_on_c, 1, 57, 127
2, 86800, Note_on_c, 1, 62, 127
2, 86800, Note_on_c, 1, 74, 127
2, 86800, Note_on_c, 1, 77, 127
2, 86800, Note_off_c, 1, 78, 0
2, 86800, Note_on_c, 1, 81, 127
2, 86800, Note_on_c, 1, 86, 127
2, 87520, Note_off_c, 1, 50, 0
2, 87520, Note_off_c, 1, 53, 0
2, 87520, Note_off_c, 1, 57, 0
2, 87520, Note_off_c, 1, 62, 0
2, 87520, Note_off_c, 1, 74, 0
2, 87520, Note_off_c, 1, 77, 0
2, 87520, Note_off_c, 1, 81, 0
2, 87520, Note_off_c, 1, 86, 0
2, 87560, Note_on_c, 1, 50, 127
2, 87560, Note_on_c, 1, 53, 127
2, 87560, Note_on_c, 1, 57, 127
2, 87560, Note_on_c, 1, 62, 127
2, 87560, Note_on_c, 1, 74, 127
2, 87560, Note_on_c, 1, 77, 127
2, 87560, Note_on_c, 1, 81, 127
2, 87560, Note_on_c, 1, 86, 127
2, 87960, Note_off_c, 1, 50, 0
2, 87960, Note_off_c, 1, 53, 0
2, 87960, Note_off_c, 1, 57, 0
2, 87960, Note_off_c, 1, 62, 0
2, 87960, Note_off_c, 1, 74, 0
2, 87960, Note_off_c, 1, 77, 0
2, 87960, Note_off_c, 1, 81, 0
2, 87960, Note_off_c, 1, 86, 0
2, 88000, Note_on_c, 1, 45, 127
2, 88000, Note_on_c, 1, 54, 127
2, 88000, Note_on_c, 1, 74, 127
2, 88360, Note_off_c, 1, 45, 0
2, 88360, Note_off_c, 1, 54, 0
2, 88360, Note_off_c, 1, 74, 0
2, 88400, Note_on_c, 1, 35, 127
2, 88400, Note_on_c, 1, 42, 127
2, 88400, Note_on_c, 1, 47, 127
2, 88400, Note_on_c, 1, 59, 127
2, 88720, Note_off_c, 1, 35, 0
2, 88720, Note_off_c, 1, 42, 0
2, 88720, Note_off_c, 1, 47, 0
2, 88720, Note_off_c, 1, 59, 0
2, 88760, Note_on_c, 1, 38, 127
2, 88760, Note_on_c, 1, 42, 127
2, 88760, Note_on_c, 1, 50, 127
2, 89080, Note_off_c, 1, 38, 0
2, 89080, Note_off_c, 1, 42, 0
2, 89080, Note_off_c, 1, 50, 0
2, 89120, Note_on_c, 1, 38, 127
2, 89120, Note_on_c, 1, 42, 127
2, 89120, Note_on_c, 1, 50, 127
2, 89480, Note_off_c, 1, 38, 0
2, 89480, Note_off_c, 1, 42, 0
2, 89480, Note_off_c, 1, 50, 0
2, 89520, Note_on_c, 1, 38, 127
2, 89520, Note_on_c, 1, 42, 127
2, 89520, Note_on_c, 1, 50, 127
2, 89880, Note_off_c, 1, 38, 0
2, 89880, Note_off_c, 1, 42, 0
2, 89880, Note_off_c, 1, 50, 0
2, 89960, Note_on_c, 1, 38, 127
2, 89960, Note_on_c, 1, 42, 127
2, 89960, Note_on_c, 1, 50, 127
2, 90280, Note_off_c, 1, 38, 0
2, 90280, Note_off_c, 1, 42, 0
2, 90280, Note_off_c, 1, 50, 0
2, 90320, Note_on_c, 1, 38, 127
2, 90320, Note_on_c, 1, 42, 127
2, 90320, Note_on_c, 1, 50, 127
2, 91040, Note_off_c, 1, 38, 0
2, 91040, Note_off_c, 1, 42, 0
2, 91040, Note_off_c, 1, 50, 0
2, 91080, Note_on_c, 1, 35, 127
2, 91080, Note_on_c, 1, 42, 127
2, 91080, Note_on_c, 1, 47, 127
2, 91080, Note_on_c, 1, 54, 127
2, 91440, Note_off_c, 1, 35, 0
2, 91440, Note_off_c, 1, 42, 0
2, 91440, Note_off_c, 1, 47, 0
2, 91440, Note_off_c, 1, 54, 0
2, 91480, Note_on_c, 1, 40, 127
2, 91480, Note_on_c, 1, 41, 127
2, 91480, Note_on_c, 1, 42, 127
2, 91520, Note_off_c, 1, 40, 0
2, 91520, Note_off_c, 1, 41, 0
2, 91520, Note_off_c, 1, 42, 0
2, 91520, Note_on_c, 1, 47, 127
2, 91520, Note_on_c, 1, 50, 127
2, 91520, Note_on_c, 1, 53, 127
2, 91520, Note_on_c, 1, 56, 127
2, 91520, Note_on_c, 1, 71, 127
2, 91560, Note_off_c, 1, 50, 0
2, 91560, Note_on_c, 1, 52, 127
2, 91560, Note_off_c, 1, 53, 0
2, 91560, Note_off_c, 1, 56, 0
2, 91560, Note_off_c, 1, 71, 0
2, 91560, Note_on_c, 1, 76, 127
2, 91560, Note_on_c, 1, 78, 127
2, 91560, Note_on_c, 1, 84, 127
2, 91560, Note_on_c, 1, 88, 127
2, 91600, Note_on_c, 1, 40, 127
2, 91600, Note_on_c, 1, 41, 127
2, 91600, Note_on_c, 1, 42, 127
2, 91600, Note_off_c, 1, 47, 0
2, 91600, Note_off_c, 1, 52, 0
2, 91600, Note_off_c, 1, 76, 0
2, 91600, Note_off_c, 1, 78, 0
2, 91600, Note_off_c, 1, 84, 0
2, 91600, Note_off_c, 1, 88, 0
2, 91800, Note_off_c, 1, 40, 0
2, 91800, Note_off_c, 1, 41, 0
2, 91800, Note_off_c, 1, 42, 0
2, 91840, Note_on_c, 1, 36, 127
2, 91840, Note_on_c, 1, 51, 127
2, 91840, Note_on_c, 1, 54, 127
2, 91840, Note_on_c, 1, 57, 127
2, 92200, Note_off_c, 1, 36, 0
2, 92200, Note_on_c, 1, 45, 127
2, 92200, Note_off_c, 1, 51, 0
2, 92200, Note_on_c, 1, 52, 127
2, 92200, Note_off_c, 1, 54, 0
2, 92200, Note_off_c, 1, 57, 0
2, 92200, Note_on_c, 1, 83, 127
2, 92200, Note_on_c, 1, 91, 127
2, 92200, Note_on_c, 1, 95, 127
2, 92240, Note_off_c, 1, 45, 0
2, 92240, Note_off_c, 1, 52, 0
2, 92240, Note_off_c, 1, 83, 0
2, 92240, Note_off_c, 1, 91, 0
2, 92240, Note_off_c, 1, 95, 0
2, 92280, Note_on_c, 1, 49, 127
2, 92280, Note_on_c, 1, 52, 127
2, 92280, Note_on_c, 1, 57, 127
2, 92280, Note_on_c, 1, 61, 127
2, 92280, Note_on_c, 1, 79, 127
2, 92320, Note_on_c, 1, 36, 127
2, 92320, Note_on_c, 1, 43, 127
2, 92320, Note_off_c, 1, 49, 0
2, 92320, Note_off_c, 1, 52, 0
2, 92320, Note_on_c, 1, 55, 127
2, 92320, Note_off_c, 1, 57, 0
2, 92320, Note_on_c, 1, 60, 127
2, 92320, Note_off_c, 1, 61, 0
2, 92320, Note_on_c, 1, 63, 127
2, 92320, Note_off_c, 1, 79, 0
2, 92360, Note_off_c, 1, 36, 0
2, 92360, Note_off_c, 1, 43, 0
2, 92360, Note_off_c, 1, 55, 0
2, 92360, Note_off_c, 1, 60, 0
2, 92360, Note_off_c, 1, 63, 0
2, 92360, Note_on_c, 1, 74, 127
2, 92360, Note_on_c, 1, 86, 127
2, 92360, Note_on_c, 1, 90, 127
2, 92360, Note_on_c, 1, 93, 127
2, 92360, Note_on_c, 1, 98, 127
2, 92400, Note_on_c, 1, 36, 127
2, 92400, Note_on_c, 1, 39, 127
2, 92400, Note_on_c, 1, 44, 127
2, 92400, Note_on_c, 1, 48, 127
2, 92400, Note_on_c, 1, 60, 127
2, 92400, Note_on_c, 1, 63, 127
2, 92400, Note_on_c, 1, 68, 127
2, 92400, Note_on_c, 1, 72, 127
2, 92400, Note_off_c, 1, 74, 0
2, 92400, Note_off_c, 1, 86, 0
2, 92400, Note_off_c, 1, 90, 0
2, 92400, Note_off_c, 1, 93, 0
2, 92400, Note_off_c, 1, 98, 0
2, 92440, Note_off_c, 1, 36, 0
2, 92440, Note_off_c, 1, 39, 0
2, 92440, Note_off_c, 1, 44, 0
2, 92440, Note_off_c, 1, 48, 0
2, 92440, Note_on_c, 1, 49, 127
2, 92440, Note_on_c, 1, 52, 127
2, 92440, Note_on_c, 1, 57, 127
2, 92440, Note_off_c, 1, 60, 0
2, 92440, Note_on_c, 1, 61, 127
2, 92440, Note_off_c, 1, 63, 0
2, 92440, Note_off_c, 1, 68, 0
2, 92440, Note_off_c, 1, 72, 0
2, 92440, Note_on_c, 1, 79, 127
2, 92480, Note_on_c, 1, 45, 127
2, 92480, Note_off_c, 1, 49, 0
2, 92480, Note_off_c, 1, 61, 0
2, 92480, Note_off_c, 1, 79, 0
2, 92480, Note_on_c, 1, 81, 127
2, 92520, Note_on_c, 1, 31, 127
2, 92520, Note_on_c, 1, 43, 127
2, 92520, Note_off_c, 1, 45, 0
2, 92520, Note_off_c, 1, 52, 0
2, 92520, Note_off_c, 1, 57, 0
2, 92520, Note_on_c, 1, 66, 127
2, 92520, Note_on_c, 1, 78, 127
2, 92520, Note_off_c, 1, 81, 0
2, 92560, Note_off_c, 1, 31, 0
2, 92560, Note_on_c, 1, 33, 127
2, 92560, Note_on_c, 1, 42, 127
2, 92560, Note_off_c, 1, 43, 0
2, 92560, Note_off_c, 1, 66, 0
2, 92560, Note_off_c, 1, 78, 0
2, 92600, Note_off_c, 1, 33, 0
2, 92600, Note_off_c, 1, 42, 0
2, 92640, Note_on_c, 1, 40, 127
2, 92640, Note_on_c, 1, 55, 127
2, 92640, Note_on_c, 1, 78, 127
2, 92960, Note_off_c, 1, 40, 0
2, 92960, Note_off_c, 1, 55, 0
2, 92960, Note_off_c, 1, 78, 0
2, 93000, Note_on_c, 1, 54, 127
2, 93000, Note_on_c, 1, 66, 127
2, 93000, Note_on_c, 1, 69, 127
2, 93000, Note_on_c, 1, 74, 127
2, 93000, Note_on_c, 1, 78, 127
2, 93360, Note_off_c, 1, 54, 0
2, 93360, Note_off_c, 1, 66, 0
2, 93360, Note_off_c, 1, 69, 0
2, 93360, Note_off_c, 1, 74, 0
2, 93360, Note_off_c, 1, 78, 0
2, 93400, Note_on_c, 1, 56, 127
2, 93400, Note_on_c, 1, 63, 127
2, 93400, Note_on_c, 1, 66, 127
2, 93400, Note_on_c, 1, 80, 127
2, 93400, Note_on_c, 1, 84, 127
2, 93400, Note_on_c, 1, 92, 127
2, 93440, Note_on_c, 1, 47, 127
2, 93440, Note_on_c, 1, 51, 127
2, 93440, Note_on_c, 1, 54, 127
2, 93440, Note_off_c, 1, 56, 0
2, 93440, Note_off_c, 1, 63, 0
2, 93440, Note_off_c, 1, 66, 0
2, 93440, Note_on_c, 1, 77, 127
2, 93440, Note_off_c, 1, 80, 0
2, 93440, Note_on_c, 1, 81, 127
2, 93440, Note_off_c, 1, 84, 0
2, 93440, Note_on_c, 1, 89, 127
2, 93440, Note_off_c, 1, 92, 0
2, 93480, Note_on_c, 1, 44, 127
2, 93480, Note_off_c, 1, 51, 0
2, 93480, Note_off_c, 1, 54, 0
2, 93480, Note_on_c, 1, 56, 127
2, 93480, Note_on_c, 1, 71, 127
2, 93480, Note_off_c, 1, 77, 0
2, 93480, Note_off_c, 1, 81, 0
2, 93480, Note_off_c, 1, 89, 0
2, 93520, Note_off_c, 1, 47, 0
2, 93520, Note_off_c, 1, 56, 0
2, 93520, Note_off_c, 1, 71, 0
2, 93520, Note_on_c, 1, 88, 127
2, 93560, Note_off_c, 1, 44, 0
2, 93560, Note_on_c, 1, 47, 127
2, 93560, Note_on_c, 1, 56, 127
2, 93560, Note_on_c, 1, 59, 127
2, 93560, Note_on_c, 1, 65, 127
2, 93560, Note_on_c, 1, 68, 127
2, 93560, Note_off_c, 1, 88, 0
2, 93600, Note_off_c, 1, 47, 0
2, 93600, Note_on_c, 1, 49, 127
2, 93600, Note_on_c, 1, 52, 127
2, 93600, Note_off_c, 1, 56, 0
2, 93600, Note_off_c, 1, 59, 0
2, 93600, Note_off_c, 1, 65, 0
2, 93600, Note_off_c, 1, 68, 0
2, 93600, Note_on_c, 1, 88, 127
2, 93640, Note_on_c, 1, 47, 127
2, 93640, Note_off_c, 1, 49, 0
2, 93640, Note_off_c, 1, 52, 0
2, 93640, Note_on_c, 1, 56, 127
2, 93640, Note_on_c, 1, 59, 127
2, 93640, Note_on_c, 1, 65, 127
2, 93640, Note_on_c, 1, 68, 127
2, 93640, Note_off_c, 1, 88, 0
2, 93720, Note_off_c, 1, 47, 0
2, 93720, Note_off_c, 1, 56, 0
2, 93720, Note_off_c, 1, 59, 0
2, 93720, Note_off_c, 1, 65, 0
2, 93720, Note_off_c, 1, 68, 0
2, 93760, Note_on_c, 1, 30, 127
2, 93760, Note_on_c, 1, 42, 127
2, 93760, Note_on_c, 1, 54, 127
2, 93760, Note_on_c, 1, 73, 127
2, 93800, Note_off_c, 1, 30, 0
2, 93800, Note_off_c, 1, 42, 0
2, 93800, Note_on_c, 1, 48, 127
2, 93800, Note_on_c, 1, 52, 127
2, 93800, Note_off_c, 1, 54, 0
2, 93800, Note_on_c, 1, 58, 127
2, 93800, Note_on_c, 1, 61, 127
2, 93800, Note_on_c, 1, 66, 127
2, 93800, Note_off_c, 1, 73, 0
2, 94120, Note_off_c, 1, 48, 0
2, 94120, Note_off_c, 1, 52, 0
2, 94120, Note_off_c, 1, 58, 0
2, 94120, Note_off_c, 1, 61, 0
2, 94120, Note_off_c, 1, 66, 0
2, 94160, Note_on_c, 1, 33, 127
2, 94160, Note_on_c, 1, 45, 127
2, 94160, Note_on_c, 1, 60, 127
2, 94160, Note_on_c, 1, 72, 127
2, 94480, Note_off_c, 1, 33, 0
2, 94480, Note_off_c, 1, 45, 0
2, 94480, Note_off_c, 1, 60, 0
2, 94480, Note_off_c, 1, 72, 0
2, 94560, Note_on_c, 1, 29, 127
2, 94560, Note_on_c, 1, 61, 127
2, 94560, Note_on_c, 1, 73, 127
2, 94920, Note_off_c, 1, 29, 0
2, 94920, Note_off_c, 1, 61, 0
2, 94920, Note_off_c, 1, 73, 0
2, 94960, Note_on_c, 1, 53, 127
2, 94960, Note_on_c, 1, 57, 127
2, 94960, Note_on_c, 1, 63, 127
2, 94960, Note_on_c, 1, 65, 127
2, 95640, Note_off_c, 1, 57, 0
2, 95640, Note_off_c, 1, 63, 0
2, 95640, Note_off_c, 1, 65, 0
2, 95680, Note_off_c, 1, 53, 0
2, 95680, Note_on_c, 1, 54, 127
2, 95680, Note_on_c, 1, 57, 127
2, 95680, Note_on_c, 1, 64, 127
2, 96040, Note_off_c, 1, 54, 0
2, 96040, Note_off_c, 1, 57, 0
2, 96040, Note_off_c, 1, 64, 0
2, 96080, Note_on_c, 1, 42, 127
2, 96080, Note_on_c, 1, 54, 127
2, 96080, Note_on_c, 1, 62, 127
2, 96080, Note_on_c, 1, 71, 127
2, 96080, Note_on_c, 1, 74, 127
2, 96800, Note_off_c, 1, 42, 0
2, 96800, Note_off_c, 1, 54, 0
2, 96800, Note_off_c, 1, 62, 0
2, 96800, Note_off_c, 1, 71, 0
2, 96800, Note_off_c, 1, 74, 0
2, 96880, Note_on_c, 1, 37, 127
2, 96880, Note_on_c, 1, 49, 127
2, 96880, Note_on_c, 1, 67, 127
2, 96880, Note_on_c, 1, 70, 127
2, 97600, Note_off_c, 1, 37, 0
2, 97600, Note_off_c, 1, 49, 0
2, 97600, Note_off_c, 1, 67, 0
2, 97600, Note_off_c, 1, 70, 0
2, 97640, Note_on_c, 1, 36, 127
2, 97640, Note_on_c, 1, 48, 127
2, 97640, Note_on_c, 1, 70, 127
2, 97640, Note_on_c, 1, 76, 127
2, 97960, Note_off_c, 1, 36, 0
2, 97960, Note_off_c, 1, 48, 0
2, 97960, Note_off_c, 1, 70, 0
2, 97960, Note_off_c, 1, 76, 0
2, 98000, Note_on_c, 1, 36, 127
2, 98000, Note_on_c, 1, 48, 127
2, 98000, Note_on_c, 1, 70, 127
2, 98000, Note_on_c, 1, 76, 127
2, 98320, Note_off_c, 1, 36, 0
2, 98320, Note_off_c, 1, 48, 0
2, 98320, Note_off_c, 1, 70, 0
2, 98320, Note_off_c, 1, 76, 0
2, 98360, Note_on_c, 1, 36, 127
2, 98360, Note_on_c, 1, 48, 127
2, 98360, Note_on_c, 1, 70, 127
2, 98360, Note_on_c, 1, 76, 127
2, 98680, Note_off_c, 1, 36, 0
2, 98680, Note_off_c, 1, 48, 0
2, 98680, Note_off_c, 1, 70, 0
2, 98680, Note_off_c, 1, 76, 0
2, 98720, Note_on_c, 1, 36, 127
2, 98720, Note_on_c, 1, 48, 127
2, 98720, Note_on_c, 1, 70, 127
2, 98720, Note_on_c, 1, 76, 127
2, 99040, Note_off_c, 1, 36, 0
2, 99040, Note_off_c, 1, 48, 0
2, 99040, Note_off_c, 1, 70, 0
2, 99040, Note_off_c, 1, 76, 0
2, 99160, Note_on_c, 1, 39, 127
2, 99160, Note_on_c, 1, 43, 127
2, 99160, Note_on_c, 1, 46, 127
2, 99160, Note_on_c, 1, 51, 127
2, 99160, Note_on_c, 1, 75, 127
2, 99160, Note_on_c, 1, 79, 127
2, 99160, Note_on_c, 1, 82, 127
2, 99160, Note_on_c, 1, 87, 127
2, 99480, Note_off_c, 1, 39, 0
2, 99480, Note_off_c, 1, 43, 0
2, 99480, Note_off_c, 1, 46, 0
2, 99480, Note_off_c, 1, 51, 0
2, 99480, Note_off_c, 1, 75, 0
2, 99480, Note_off_c, 1, 79, 0
2, 99480, Note_off_c, 1, 82, 0
2, 99480, Note_off_c, 1, 87, 0
2, 99520, Note_on_c, 1, 45, 127
2, 99520, Note_on_c, 1, 57, 127
2, 99520, Note_on_c, 1, 64, 127
2, 99520, Note_on_c, 1, 66, 127
2, 99520, Note_on_c, 1, 72, 127
2, 99560, Note_on_c, 1, 34, 127
2, 99560, Note_off_c, 1, 45, 0
2, 99560, Note_on_c, 1, 46, 127
2, 99560, Note_on_c, 1, 55, 127
2, 99560, Note_off_c, 1, 57, 0
2, 99560, Note_on_c, 1, 62, 127
2, 99560, Note_off_c, 1, 64, 0
2, 99560, Note_off_c, 1, 66, 0
2, 99560, Note_off_c, 1, 72, 0
2, 99600, Note_off_c, 1, 34, 0
2, 99600, Note_on_c, 1, 45, 127
2, 99600, Note_off_c, 1, 46, 0
2, 99600, Note_off_c, 1, 55, 0
2, 99600, Note_on_c, 1, 57, 127
2, 99600, Note_off_c, 1, 62, 0
2, 99600, Note_on_c, 1, 64, 127
2, 99600, Note_on_c, 1, 66, 127
2, 99600, Note_on_c, 1, 72, 127
2, 99840, Note_off_c, 1, 45, 0
2, 99840, Note_off_c, 1, 57, 0
2, 99840, Note_off_c, 1, 64, 0
2, 99840, Note_off_c, 1, 66, 0
2, 99840, Note_off_c, 1, 72, 0
2, 99880, Note_on_c, 1, 45, 127
2, 99880, Note_on_c, 1, 57, 127
2, 99880, Note_on_c, 1, 64, 127
2, 99880, Note_on_c, 1, 66, 127
2, 99880, Note_on_c, 1, 72, 127
2, 100200, Note_off_c, 1, 45, 0
2, 100200, Note_off_c, 1, 57, 0
2, 100200, Note_off_c, 1, 64, 0
2, 100200, Note_off_c, 1, 66, 0
2, 100200, Note_off_c, 1, 72, 0
2, 100240, Note_on_c, 1, 45, 127
2, 100240, Note_on_c, 1, 57, 127
2, 100240, Note_on_c, 1, 64, 127
2, 100240, Note_on_c, 1, 66, 127
2, 100240, Note_on_c, 1, 72, 127
2, 100560, Note_off_c, 1, 45, 0
2, 100560, Note_off_c, 1, 57, 0
2, 100560, Note_off_c, 1, 64, 0
2, 100560, Note_off_c, 1, 66, 0
2, 100560, Note_off_c, 1, 72, 0
2, 100600, Note_on_c, 1, 45, 127
2, 100600, Note_on_c, 1, 57, 127
2, 100600, Note_on_c, 1, 64, 127
2, 100600, Note_on_c, 1, 66, 127
2, 100600, Note_on_c, 1, 72, 127
2, 100920, Note_off_c, 1, 45, 0
2, 100920, Note_off_c, 1, 57, 0
2, 100920, Note_off_c, 1, 64, 0
2, 100920, Note_on_c, 1, 65, 127
2, 100920, Note_off_c, 1, 66, 0
2, 100920, Note_off_c, 1, 72, 0
2, 100960, Note_on_c, 1, 45, 127
2, 100960, Note_on_c, 1, 57, 127
2, 100960, Note_on_c, 1, 64, 127
2, 100960, Note_off_c, 1, 65, 0
2, 100960, Note_on_c, 1, 66, 127
2, 100960, Note_on_c, 1, 72, 127
2, 101080, Note_off_c, 1, 45, 0
2, 101080, Note_off_c, 1, 57, 0
2, 101080, Note_off_c, 1, 64, 0
2, 101080, Note_off_c, 1, 66, 0
2, 101080, Note_off_c, 1, 72, 0
2, 101120, Note_on_c, 1, 45, 127
2, 101120, Note_on_c, 1, 57, 127
2, 101120, Note_on_c, 1, 64, 127
2, 101120, Note_on_c, 1, 66, 127
2, 101120, Note_on_c, 1, 72, 127
2, 101280, Note_off_c, 1, 45, 0
2, 101280, Note_off_c, 1, 57, 0
2, 101280, Note_off_c, 1, 64, 0
2, 101280, Note_on_c, 1, 65, 127
2, 101280, Note_off_c, 1, 66, 0
2, 101280, Note_off_c, 1, 72, 0
2, 101320, Note_off_c, 1, 65, 0
2, 101360, Note_on_c, 1, 72, 127
2, 101360, Note_on_c, 1, 80, 127
2, 101360, Note_on_c, 1, 90, 127
2, 101360, Note_on_c, 1, 92, 127
2, 101400, Note_on_c, 1, 53, 127
2, 101400, Note_off_c, 1, 72, 0
2, 101400, Note_off_c, 1, 80, 0
2, 101400, Note_on_c, 1, 89, 127
2, 101400, Note_off_c, 1, 90, 0
2, 101400, Note_off_c, 1, 92, 0
2, 101400, Note_on_c, 1, 101, 127
2, 101440, Note_off_c, 1, 53, 0
2, 101440, Note_on_c, 1, 72, 127
2, 101440, Note_on_c, 1, 80, 127
2, 101440, Note_off_c, 1, 89, 0
2, 101440, Note_on_c, 1, 90, 127
2, 101440, Note_on_c, 1, 92, 127
2, 101440, Note_off_c, 1, 101, 0
2, 101640, Note_on_c, 1, 63, 127
2, 101640, Note_off_c, 1, 72, 0
2, 101640, Note_off_c, 1, 80, 0
2, 101640, Note_off_c, 1, 90, 0
2, 101640, Note_off_c, 1, 92, 0
2, 101680, Note_on_c, 1, 60, 127
2, 101680, Note_off_c, 1, 63, 0
2, 101680, Note_on_c, 1, 64, 127
2, 101680, Note_on_c, 1, 67, 127
2, 101680, Note_on_c, 1, 79, 127
2, 101680, Note_on_c, 1, 82, 127
2, 102000, Note_off_c, 1, 60, 0
2, 102000, Note_off_c, 1, 64, 0
2, 102000, Note_off_c, 1, 67, 0
2, 102000, Note_off_c, 1, 79, 0
2, 102000, Note_off_c, 1, 82, 0
2, 102040, Note_on_c, 1, 46, 127
2, 102040, Note_on_c, 1, 53, 127
2, 102040, Note_on_c, 1, 57, 127
2, 102040, Note_on_c, 1, 65, 127
2, 102040, Note_on_c, 1, 75, 127
2, 102120, Note_on_c, 1, 63, 127
2, 102120, Note_off_c, 1, 65, 0
2, 102160, Note_off_c, 1, 63, 0
2, 102160, Note_on_c, 1, 65, 127
2, 102240, Note_on_c, 1, 63, 127
2, 102240, Note_off_c, 1, 65, 0
2, 102280, Note_off_c, 1, 63, 0
2, 102280, Note_on_c, 1, 65, 127
2, 102360, Note_off_c, 1, 65, 0
2, 102400, Note_on_c, 1, 65, 127
2, 102520, Note_on_c, 1, 63, 127
2, 102520, Note_off_c, 1, 65, 0
2, 102560, Note_off_c, 1, 63, 0
2, 102560, Note_on_c, 1, 65, 127
2, 102640, Note_off_c, 1, 65, 0
2, 102680, Note_on_c, 1, 65, 127
2, 102720, Note_off_c, 1, 65, 0
2, 102760, Note_on_c, 1, 63, 127
2, 102880, Note_off_c, 1, 63, 0
2, 102880, Note_on_c, 1, 65, 127
2, 102920, Note_on_c, 1, 63, 127
2, 102920, Note_off_c, 1, 65, 0
2, 103000, Note_off_c, 1, 63, 0
2, 103000, Note_on_c, 1, 65, 127
2, 103120, Note_off_c, 1, 65, 0
2, 103160, Note_off_c, 1, 46, 0
2, 103160, Note_off_c, 1, 53, 0
2, 103160, Note_off_c, 1, 57, 0
2, 103160, Note_off_c, 1, 75, 0
2, 103200, Note_on_c, 1, 46, 127
2, 103200, Note_on_c, 1, 53, 127
2, 103200, Note_on_c, 1, 57, 127
2, 103200, Note_on_c, 1, 63, 127
2, 103200, Note_on_c, 1, 75, 127
2, 103240, Note_off_c, 1, 63, 0
2, 103240, Note_on_c, 1, 65, 127
2, 103280, Note_on_c, 1, 63, 127
2, 103280, Note_off_c, 1, 65, 0
2, 103480, Note_off_c, 1, 63, 0
2, 103520, Note_off_c, 1, 46, 0
2, 103520, Note_off_c, 1, 53, 0
2, 103520, Note_off_c, 1, 57, 0
2, 103520, Note_off_c, 1, 75, 0
2, 103560, Note_on_c, 1, 46, 127
2, 103560, Note_on_c, 1, 53, 127
2, 103560, Note_on_c, 1, 57, 127
2, 103560, Note_on_c, 1, 63, 127
2, 103560, Note_on_c, 1, 75, 127
2, 103880, Note_off_c, 1, 46, 0
2, 103880, Note_off_c, 1, 53, 0
2, 103880, Note_off_c, 1, 57, 0
2, 103880, Note_off_c, 1, 63, 0
2, 103880, Note_off_c, 1, 75, 0
2, 103920, Note_on_c, 1, 47, 127
2, 103920, Note_on_c, 1, 54, 127
2, 103920, Note_on_c, 1, 81, 127
2, 104240, Note_off_c, 1, 47, 0
2, 104240, Note_off_c, 1, 54, 0
2, 104240, Note_off_c, 1, 81, 0
2, 104240, Note_on_c, 1, 83, 127
2, 104280, Note_on_c, 1, 49, 127
2, 104280, Note_on_c, 1, 56, 127
2, 104280, Note_on_c, 1, 68, 127
2, 104280, Note_on_c, 1, 73, 127
2, 104280, Note_on_c, 1, 76, 127
2, 104280, Note_on_c, 1, 80, 127
2, 104280, Note_off_c, 1, 83, 0
2, 104320, Note_off_c, 1, 49, 0
2, 104320, Note_on_c, 1, 50, 127
2, 104320, Note_on_c, 1, 53, 127
2, 104320, Note_off_c, 1, 56, 0
2, 104320, Note_on_c, 1, 58, 127
2, 104320, Note_on_c, 1, 62, 127
2, 104320, Note_off_c, 1, 68, 0
2, 104320, Note_off_c, 1, 73, 0
2, 104320, Note_off_c, 1, 76, 0
2, 104360, Note_off_c, 1, 50, 0
2, 104360, Note_off_c, 1, 53, 0
2, 104360, Note_off_c, 1, 58, 0
2, 104360, Note_off_c, 1, 62, 0
2, 104360, Note_off_c, 1, 80, 0
2, 104360, Note_on_c, 1, 87, 127
2, 104360, Note_on_c, 1, 88, 127
2, 104360, Note_on_c, 1, 95, 127
2, 104400, Note_on_c, 1, 49, 127
2, 104400, Note_on_c, 1, 56, 127
2, 104400, Note_on_c, 1, 68, 127
2, 104400, Note_on_c, 1, 73, 127
2, 104400, Note_on_c, 1, 76, 127
2, 104400, Note_on_c, 1, 80, 127
2, 104400, Note_off_c, 1, 87, 0
2, 104400, Note_off_c, 1, 88, 0
2, 104400, Note_off_c, 1, 95, 0
2, 104640, Note_off_c, 1, 49, 0
2, 104640, Note_off_c, 1, 56, 0
2, 104640, Note_off_c, 1, 68, 0
2, 104640, Note_off_c, 1, 73, 0
2, 104640, Note_off_c, 1, 76, 0
2, 104640, Note_off_c, 1, 80, 0
2, 104680, Note_on_c, 1, 46, 127
2, 104680, Note_on_c, 1, 53, 127
2, 104680, Note_on_c, 1, 57, 127
2, 104680, Note_on_c, 1, 62, 127
2, 104680, Note_on_c, 1, 74, 127
2, 104680, Note_on_c, 1, 86, 127
2, 104720, Note_on_c, 1, 51, 127
2, 104720, Note_off_c, 1, 53, 0
2, 104720, Note_off_c, 1, 57, 0
2, 104720, Note_off_c, 1, 62, 0
2, 104720, Note_on_c, 1, 66, 127
2, 104720, Note_on_c, 1, 70, 127
2, 104720, Note_off_c, 1, 74, 0
2, 104720, Note_off_c, 1, 86, 0
2, 104760, Note_off_c, 1, 46, 0
2, 104760, Note_off_c, 1, 51, 0
2, 104760, Note_on_c, 1, 56, 127
2, 104760, Note_on_c, 1, 62, 127
2, 104760, Note_off_c, 1, 66, 0
2, 104760, Note_on_c, 1, 68, 127
2, 104760, Note_off_c, 1, 70, 0
2, 104760, Note_on_c, 1, 73, 127
2, 104800, Note_on_c, 1, 46, 127
2, 104800, Note_on_c, 1, 49, 127
2, 104800, Note_on_c, 1, 53, 127
2, 104800, Note_off_c, 1, 56, 0
2, 104800, Note_on_c, 1, 58, 127
2, 104800, Note_off_c, 1, 62, 0
2, 104800, Note_off_c, 1, 68, 0
2, 104800, Note_off_c, 1, 73, 0
2, 104840, Note_off_c, 1, 46, 0
2, 104840, Note_off_c, 1, 53, 0
2, 104840, Note_on_c, 1, 55, 127
2, 104840, Note_off_c, 1, 58, 0
2, 104840, Note_on_c, 1, 61, 127
2, 104840, Note_on_c, 1, 64, 127
2, 104880, Note_on_c, 1, 44, 127
2, 104880, Note_off_c, 1, 49, 0
2, 104880, Note_on_c, 1, 50, 127
2, 104880, Note_off_c, 1, 55, 0
2, 104880, Note_on_c, 1, 57, 127
2, 104880, Note_off_c, 1, 61, 0
2, 104880, Note_on_c, 1, 62, 127
2, 104880, Note_off_c, 1, 64, 0
2, 104880, Note_on_c, 1, 66, 127
2, 104880, Note_on_c, 1, 74, 127
2, 104920, Note_off_c, 1, 44, 0
2, 104920, Note_off_c, 1, 50, 0
2, 104920, Note_off_c, 1, 57, 0
2, 104920, Note_on_c, 1, 58, 127
2, 104920, Note_off_c, 1, 62, 0
2, 104920, Note_off_c, 1, 66, 0
2, 104920, Note_on_c, 1, 67, 127
2, 104920, Note_on_c, 1, 70, 127
2, 104920, Note_off_c, 1, 74, 0
2, 104920, Note_on_c, 1, 82, 127
2, 104920, Note_on_c, 1, 87, 127
2, 104920, Note_on_c, 1, 91, 127
2, 104960, Note_on_c, 1, 35, 127
2, 104960, Note_on_c, 1, 40, 127
2, 104960, Note_on_c, 1, 47, 127
2, 104960, Note_off_c, 1, 58, 0
2, 104960, Note_on_c, 1, 59, 127
2, 104960, Note_off_c, 1, 67, 0
2, 104960, Note_on_c, 1, 68, 127
2, 104960, Note_off_c, 1, 70, 0
2, 104960, Note_on_c, 1, 71, 127
2, 104960, Note_off_c, 1, 82, 0
2, 104960, Note_on_c, 1, 83, 127
2, 104960, Note_off_c, 1, 87, 0
2, 104960, Note_on_c, 1, 88, 127
2, 104960, Note_off_c, 1, 91, 0
2, 104960, Note_on_c, 1, 92, 127
2, 105000, Note_off_c, 1, 35, 0
2, 105000, Note_off_c, 1, 40, 0
2, 105000, Note_off_c, 1, 47, 0
2, 105000, Note_off_c, 1, 59, 0
2, 105000, Note_off_c, 1, 68, 0
2, 105000, Note_off_c, 1, 71, 0
2, 105000, Note_off_c, 1, 83, 0
2, 105000, Note_off_c, 1, 88, 0
2, 105000, Note_off_c, 1, 92, 0
2, 105040, Note_on_c, 1, 53, 127
2, 105040, Note_on_c, 1, 58, 127
2, 105040, Note_on_c, 1, 62, 127
2, 105040, Note_on_c, 1, 82, 127
2, 105040, Note_on_c, 1, 86, 127
2, 105080, Note_off_c, 1, 58, 0
2, 105080, Note_off_c, 1, 62, 0
2, 105080, Note_on_c, 1, 77, 127
2, 105080, Note_on_c, 1, 79, 127
2, 105080, Note_off_c, 1, 86, 0
2, 105120, Note_on_c, 1, 46, 127
2, 105120, Note_off_c, 1, 53, 0
2, 105120, Note_on_c, 1, 58, 127
2, 105120, Note_on_c, 1, 64, 127
2, 105120, Note_on_c, 1, 66, 127
2, 105120, Note_on_c, 1, 73, 127
2, 105120, Note_off_c, 1, 77, 0
2, 105120, Note_off_c, 1, 79, 0
2, 105120, Note_off_c, 1, 82, 0
2, 105160, Note_off_c, 1, 46, 0
2, 105160, Note_off_c, 1, 58, 0
2, 105160, Note_off_c, 1, 64, 0
2, 105160, Note_off_c, 1, 66, 0
2, 105160, Note_off_c, 1, 73, 0
2, 105200, Note_on_c, 1, 44, 127
2, 105200, Note_on_c, 1, 56, 127
2, 105200, Note_on_c, 1, 68, 127
2, 105200, Note_on_c, 1, 71, 127
2, 105200, Note_on_c, 1, 78, 127
2, 105240, Note_off_c, 1, 44, 0
2, 105240, Note_off_c, 1, 56, 0
2, 105240, Note_on_c, 1, 65, 127
2, 105240, Note_off_c, 1, 71, 0
2, 105240, Note_off_c, 1, 78, 0
2, 105240, Note_on_c, 1, 79, 127
2, 105240, Note_on_c, 1, 91, 127
2, 105240, Note_on_c, 1, 94, 127
2, 105280, Note_on_c, 1, 27, 127
2, 105280, Note_off_c, 1, 65, 0
2, 105280, Note_on_c, 1, 66, 127
2, 105280, Note_off_c, 1, 68, 0
2, 105280, Note_on_c, 1, 72, 127
2, 105280, Note_off_c, 1, 79, 0
2, 105280, Note_off_c, 1, 91, 0
2, 105280, Note_off_c, 1, 94, 0
2, 105320, Note_off_c, 1, 27, 0
2, 105320, Note_on_c, 1, 50, 127
2, 105320, Note_on_c, 1, 53, 127
2, 105320, Note_on_c, 1, 62, 127
2, 105320, Note_on_c, 1, 65, 127
2, 105320, Note_off_c, 1, 66, 0
2, 105320, Note_on_c, 1, 70, 127
2, 105320, Note_off_c, 1, 72, 0
2, 105360, Note_off_c, 1, 50, 0
2, 105360, Note_off_c, 1, 53, 0
2, 105360, Note_off_c, 1, 62, 0
2, 105360, Note_off_c, 1, 65, 0
2, 105360, Note_off_c, 1, 70, 0
2, 105360, Note_on_c, 1, 89, 127
2, 105400, Note_on_c, 1, 42, 127
2, 105400, Note_on_c, 1, 54, 127
2, 105400, Note_on_c, 1, 81, 127
2, 105400, Note_on_c, 1, 85, 127
2, 105400, Note_off_c, 1, 89, 0
2, 105400, Note_on_c, 1, 93, 127
2, 105440, Note_off_c, 1, 42, 0
2, 105440, Note_on_c, 1, 56, 127
2, 105440, Note_on_c, 1, 60, 127
2, 105440, Note_off_c, 1, 81, 0
2, 105440, Note_on_c, 1, 84, 127
2, 105440, Note_off_c, 1, 85, 0
2, 105440, Note_off_c, 1, 93, 0
2, 105480, Note_on_c, 1, 50, 127
2, 105480, Note_off_c, 1, 54, 0
2, 105480, Note_on_c, 1, 55, 127
2, 105480, Note_off_c, 1, 56, 0
2, 105480, Note_off_c, 1, 60, 0
2, 105480, Note_on_c, 1, 62, 127
2, 105480, Note_on_c, 1, 77, 127
2, 105480, Note_off_c, 1, 84, 0
2, 105520, Note_on_c, 1, 27, 127
2, 105520, Note_on_c, 1, 39, 127
2, 105520, Note_off_c, 1, 50, 0
2, 105520, Note_off_c, 1, 55, 0
2, 105520, Note_on_c, 1, 58, 127
2, 105520, Note_off_c, 1, 62, 0
2, 105520, Note_on_c, 1, 63, 127
2, 105520, Note_on_c, 1, 65, 127
2, 105520, Note_on_c, 1, 70, 127
2, 105520, Note_off_c, 1, 77, 0
2, 105520, Note_on_c, 1, 80, 127
2, 105520, Note_on_c, 1, 94, 127
2, 105560, Note_off_c, 1, 27, 0
2, 105560, Note_off_c, 1, 39, 0
2, 105560, Note_on_c, 1, 44, 127
2, 105560, Note_on_c, 1, 51, 127
2, 105560, Note_off_c, 1, 58, 0
2, 105560, Note_off_c, 1, 63, 0
2, 105560, Note_off_c, 1, 65, 0
2, 105560, Note_off_c, 1, 70, 0
2, 105560, Note_off_c, 1, 80, 0
2, 105560, Note_on_c, 1, 82, 127
2, 105560, Note_off_c, 1, 94, 0
2, 105600, Note_off_c, 1, 44, 0
2, 105600, Note_off_c, 1, 51, 0
2, 105600, Note_on_c, 1, 65, 127
2, 105600, Note_on_c, 1, 67, 127
2, 105600, Note_on_c, 1, 70, 127
2, 105600, Note_on_c, 1, 72, 127
2, 105600, Note_on_c, 1, 76, 127
2, 105600, Note_on_c, 1, 91, 127
2, 105640, Note_on_c, 1, 48, 127
2, 105640, Note_on_c, 1, 60, 127
2, 105640, Note_off_c, 1, 65, 0
2, 105640, Note_off_c, 1, 67, 0
2, 105640, Note_off_c, 1, 70, 0
2, 105640, Note_off_c, 1, 72, 0
2, 105640, Note_off_c, 1, 76, 0
2, 105640, Note_off_c, 1, 82, 0
2, 105640, Note_off_c, 1, 91, 0
2, 105640, Note_on_c, 1, 95, 127
2, 105640, Note_on_c, 1, 98, 127
2, 105640, Note_on_c, 1, 103, 127
2, 105640, Note_on_c, 1, 107, 127
2, 105680, Note_off_c, 1, 48, 0
2, 105680, Note_on_c, 1, 54, 127
2, 105680, Note_on_c, 1, 57, 127
2, 105680, Note_off_c, 1, 60, 0
2, 105680, Note_on_c, 1, 66, 127
2, 105680, Note_on_c, 1, 78, 127
2, 105680, Note_on_c, 1, 86, 127
2, 105680, Note_off_c, 1, 95, 0
2, 105680, Note_off_c, 1, 98, 0
2, 105680, Note_off_c, 1, 103, 0
2, 105680, Note_off_c, 1, 107, 0
2, 105720, Note_off_c, 1, 54, 0
2, 105720, Note_off_c, 1, 57, 0
2, 105720, Note_off_c, 1, 66, 0
2, 105720, Note_off_c, 1, 78, 0
2, 105720, Note_off_c, 1, 86, 0
2, 105760, Note_on_c, 1, 39, 127
2, 105760, Note_on_c, 1, 60, 127
2, 105760, Note_on_c, 1, 80, 127
2, 105760, Note_on_c, 1, 84, 127
2, 105800, Note_off_c, 1, 39, 0
2, 105800, Note_on_c, 1, 54, 127
2, 105800, Note_on_c, 1, 58, 127
2, 105800, Note_off_c, 1, 60, 0
2, 105800, Note_on_c, 1, 70, 127
2, 105800, Note_on_c, 1, 76, 127
2, 105800, Note_off_c, 1, 80, 0
2, 105800, Note_off_c, 1, 84, 0
2, 105840, Note_on_c, 1, 53, 127
2, 105840, Note_off_c, 1, 54, 0
2, 105840, Note_on_c, 1, 60, 127
2, 105840, Note_off_c, 1, 70, 0
2, 105840, Note_off_c, 1, 76, 0
2, 105840, Note_on_c, 1, 96, 127
2, 105880, Note_on_c, 1, 46, 127
2, 105880, Note_off_c, 1, 53, 0
2, 105880, Note_off_c, 1, 58, 0
2, 105880, Note_off_c, 1, 60, 0
2, 105880, Note_on_c, 1, 86, 127
2, 105880, Note_on_c, 1, 91, 127
2, 105880, Note_off_c, 1, 96, 0
2, 105920, Note_off_c, 1, 46, 0
2, 105920, Note_on_c, 1, 50, 127
2, 105920, Note_on_c, 1, 58, 127
2, 105920, Note_on_c, 1, 61, 127
2, 105920, Note_on_c, 1, 67, 127
2, 105920, Note_on_c, 1, 75, 127
2, 105920, Note_off_c, 1, 86, 0
2, 105920, Note_off_c, 1, 91, 0
2, 105960, Note_on_c, 1, 45, 127
2, 105960, Note_off_c, 1, 50, 0
2, 105960, Note_on_c, 1, 53, 127
2, 105960, Note_on_c, 1, 57, 127
2, 105960, Note_off_c, 1, 58, 0
2, 105960, Note_off_c, 1, 61, 0
2, 105960, Note_on_c, 1, 64, 127
2, 105960, Note_off_c, 1, 67, 0
2, 105960, Note_off_c, 1, 75, 0
2, 106000, Note_on_c, 1, 41, 127
2, 106000, Note_off_c, 1, 53, 0
2, 106000, Note_off_c, 1, 57, 0
2, 106000, Note_on_c, 1, 61, 127
2, 106000, Note_on_c, 1, 67, 127
2, 106000, Note_on_c, 1, 69, 127
2, 106040, Note_off_c, 1, 41, 0
2, 106040, Note_off_c, 1, 45, 0
2, 106040, Note_on_c, 1, 47, 127
2, 106040, Note_on_c, 1, 54, 127
2, 106040, Note_off_c, 1, 61, 0
2, 106040, Note_off_c, 1, 64, 0
2, 106040, Note_off_c, 1, 67, 0
2, 106040, Note_off_c, 1, 69, 0
2, 106040, Note_on_c, 1, 75, 127
2, 106040, Note_on_c, 1, 78, 127
2, 106040, Note_on_c, 1, 87, 127
2, 106080, Note_off_c, 1, 54, 0
2, 106080, Note_on_c, 1, 57, 127
2, 106080, Note_off_c, 1, 75, 0
2, 106080, Note_off_c, 1, 78, 0
2, 106120, Note_off_c, 1, 47, 0
2, 106120, Note_on_c, 1, 48, 127
2, 106120, Note_on_c, 1, 55, 127
2, 106120, Note_off_c, 1, 57, 0
2, 106120, Note_on_c, 1, 58, 127
2, 106120, Note_on_c, 1, 76, 127
2, 106120, Note_off_c, 1, 87, 0
2, 106120, Note_on_c, 1, 91, 127
2, 106280, Note_off_c, 1, 91, 0
2, 106320, Note_on_c, 1, 91, 127
2, 106440, Note_off_c, 1, 48, 0
2, 106440, Note_off_c, 1, 55, 0
2, 106440, Note_off_c, 1, 58, 0
2, 106440, Note_off_c, 1, 76, 0
2, 106440, Note_on_c, 1, 84, 127
2, 106440, Note_off_c, 1, 91, 0
2, 106520, Note_on_c, 1, 39, 127
2, 106520, Note_on_c, 1, 51, 127
2, 106520, Note_on_c, 1, 70, 127
2, 106520, Note_on_c, 1, 76, 127
2, 106520, Note_on_c, 1, 80, 127
2, 106520, Note_off_c, 1, 84, 0
2, 106560, Note_off_c, 1, 39, 0
2, 106560, Note_on_c, 1, 43, 127
2, 106560, Note_on_c, 1, 50, 127
2, 106560, Note_off_c, 1, 51, 0
2, 106560, Note_on_c, 1, 55, 127
2, 106560, Note_off_c, 1, 70, 0
2, 106560, Note_off_c, 1, 76, 0
2, 106560, Note_off_c, 1, 80, 0
2, 106560, Note_on_c, 1, 91, 127
2, 106560, Note_on_c, 1, 95, 127
2, 106600, Note_on_c, 1, 39, 127
2, 106600, Note_off_c, 1, 43, 0
2, 106600, Note_off_c, 1, 50, 0
2, 106600, Note_on_c, 1, 51, 127
2, 106600, Note_off_c, 1, 55, 0
2, 106600, Note_on_c, 1, 70, 127
2, 106600, Note_on_c, 1, 76, 127
2, 106600, Note_on_c, 1, 80, 127
2, 106600, Note_off_c, 1, 91, 0
2, 106600, Note_off_c, 1, 95, 0
2, 106840, Note_off_c, 1, 39, 0
2, 106840, Note_off_c, 1, 51, 0
2, 106840, Note_off_c, 1, 70, 0
2, 106840, Note_off_c, 1, 76, 0
2, 106840, Note_off_c, 1, 80, 0
2, 106880, Note_on_c, 1, 50, 127
2, 106880, Note_on_c, 1, 55, 127
2, 106880, Note_on_c, 1, 64, 127
2, 106880, Note_on_c, 1, 69, 127
2, 107480, Note_off_c, 1, 50, 0
2, 107480, Note_off_c, 1, 55, 0
2, 107480, Note_off_c, 1, 64, 0
2, 107480, Note_off_c, 1, 69, 0
2, 107520, Note_on_c, 1, 50, 127
2, 107520, Note_on_c, 1, 55, 127
2, 107520, Note_on_c, 1, 64, 127
2, 107520, Note_on_c, 1, 69, 127
2, 107840, Note_off_c, 1, 50, 0
2, 107840, Note_off_c, 1, 55, 0
2, 107840, Note_off_c, 1, 64, 0
2, 107880, Note_on_c, 1, 50, 127
2, 107880, Note_on_c, 1, 55, 127
2, 107880, Note_on_c, 1, 64, 127
2, 108240, Note_on_c, 1, 54, 127
2, 108240, Note_off_c, 1, 55, 0
2, 108240, Note_on_c, 1, 62, 127
2, 108240, Note_off_c, 1, 64, 0
2, 108600, Note_off_c, 1, 50, 0
2, 108600, Note_off_c, 1, 54, 0
2, 108600, Note_off_c, 1, 62, 0
2, 108640, Note_on_c, 1, 57, 127
2, 109000, Note_off_c, 1, 57, 0
2, 109000, Note_off_c, 1, 69, 0
2, 109040, Note_on_c, 1, 43, 127
2, 109040, Note_on_c, 1, 49, 127
2, 109040, Note_on_c, 1, 61, 127
2, 109040, Note_on_c, 1, 67, 127
2, 109040, Note_on_c, 1, 71, 127
2, 109400, Note_off_c, 1, 43, 0
2, 109400, Note_off_c, 1, 49, 0
2, 109400, Note_off_c, 1, 61, 0
2, 109400, Note_off_c, 1, 67, 0
2, 109400, Note_off_c, 1, 71, 0
2, 109480, Note_on_c, 1, 35, 127
2, 109480, Note_on_c, 1, 47, 127
2, 109480, Note_on_c, 1, 79, 127
2, 109480, Note_on_c, 1, 85, 127
2, 109480, Note_on_c, 1, 91, 127
2, 109800, Note_off_c, 1, 35, 0
2, 109800, Note_off_c, 1, 47, 0
2, 109800, Note_off_c, 1, 79, 0
2, 109800, Note_off_c, 1, 85, 0
2, 109800, Note_off_c, 1, 91, 0
2, 109840, Note_on_c, 1, 60, 127
2, 109840, Note_on_c, 1, 74, 127
2, 109840, Note_on_c, 1, 78, 127
2, 109840, Note_on_c, 1, 81, 127
2, 109840, Note_on_c, 1, 86, 127
2, 109880, Note_on_c, 1, 48, 127
2, 109880, Note_on_c, 1, 53, 127
2, 109880, Note_on_c, 1, 58, 127
2, 109880, Note_off_c, 1, 60, 0
2, 109880, Note_on_c, 1, 62, 127
2, 109880, Note_on_c, 1, 67, 127
2, 109880, Note_off_c, 1, 74, 0
2, 109880, Note_off_c, 1, 78, 0
2, 109880, Note_off_c, 1, 81, 0
2, 109880, Note_off_c, 1, 86, 0
2, 109920, Note_off_c, 1, 48, 0
2, 109920, Note_off_c, 1, 53, 0
2, 109920, Note_on_c, 1, 55, 127
2, 109920, Note_off_c, 1, 58, 0
2, 109920, Note_off_c, 1, 62, 0
2, 109920, Note_on_c, 1, 65, 127
2, 109920, Note_off_c, 1, 67, 0
2, 109920, Note_on_c, 1, 82, 127
2, 109920, Note_on_c, 1, 83, 127
2, 109960, Note_on_c, 1, 48, 127
2, 109960, Note_on_c, 1, 53, 127
2, 109960, Note_off_c, 1, 55, 0
2, 109960, Note_on_c, 1, 58, 127
2, 109960, Note_on_c, 1, 62, 127
2, 109960, Note_off_c, 1, 65, 0
2, 109960, Note_on_c, 1, 67, 127
2, 109960, Note_off_c, 1, 82, 0
2, 109960, Note_off_c, 1, 83, 0
2, 110040, Note_off_c, 1, 48, 0
2, 110040, Note_off_c, 1, 53, 0
2, 110040, Note_on_c, 1, 55, 127
2, 110040, Note_off_c, 1, 58, 0
2, 110040, Note_off_c, 1, 62, 0
2, 110040, Note_off_c, 1, 67, 0
2, 110040, Note_on_c, 1, 75, 127
2, 110040, Note_on_c, 1, 79, 127
2, 110040, Note_on_c, 1, 82, 127
2, 110040, Note_on_c, 1, 87, 127
2, 110080, Note_on_c, 1, 48, 127
2, 110080, Note_on_c, 1, 53, 127
2, 110080, Note_off_c, 1, 55, 0
2, 110080, Note_on_c, 1, 58, 127
2, 110080, Note_on_c, 1, 62, 127
2, 110080, Note_on_c, 1, 67, 127
2, 110080, Note_off_c, 1, 75, 0
2, 110080, Note_off_c, 1, 79, 0
2, 110080, Note_off_c, 1, 82, 0
2, 110080, Note_off_c, 1, 87, 0
2, 110160, Note_off_c, 1, 48, 0
2, 110160, Note_off_c, 1, 53, 0
2, 110160, Note_off_c, 1, 58, 0
2, 110160, Note_off_c, 1, 62, 0
2, 110160, Note_off_c, 1, 67, 0
2, 110200, Note_on_c, 1, 33, 127
2, 110200, Note_on_c, 1, 45, 127
2, 110200, Note_on_c, 1, 60, 127
2, 110200, Note_on_c, 1, 72, 127
2, 110520, Note_off_c, 1, 33, 0
2, 110520, Note_off_c, 1, 45, 0
2, 110520, Note_off_c, 1, 60, 0
2, 110520, Note_off_c, 1, 72, 0
2, 110560, Note_on_c, 1, 48, 127
2, 110560, Note_on_c, 1, 52, 127
2, 110560, Note_on_c, 1, 67, 127
2, 110560, Note_on_c, 1, 79, 127
2, 110880, Note_off_c, 1, 48, 0
2, 110880, Note_off_c, 1, 52, 0
2, 110880, Note_off_c, 1, 67, 0
2, 110880, Note_off_c, 1, 79, 0
2, 110920, Note_on_c, 1, 48, 127
2, 110920, Note_on_c, 1, 52, 127
2, 110920, Note_on_c, 1, 67, 127
2, 110920, Note_on_c, 1, 79, 127
2, 111240, Note_off_c, 1, 48, 0
2, 111240, Note_off_c, 1, 52, 0
2, 111240, Note_off_c, 1, 67, 0
2, 111240, Note_off_c, 1, 79, 0
2, 111280, Note_on_c, 1, 46, 127
2, 111280, Note_on_c, 1, 58, 127
2, 111280, Note_on_c, 1, 66, 127
2, 111280, Note_on_c, 1, 73, 127
2, 111560, Note_off_c, 1, 46, 0
2, 111560, Note_off_c, 1, 58, 0
2, 111560, Note_off_c, 1, 66, 0
2, 111560, Note_off_c, 1, 73, 0
2, 111600, Note_on_c, 1, 46, 127
2, 111600, Note_on_c, 1, 58, 127
2, 111600, Note_on_c, 1, 66, 127
2, 111600, Note_on_c, 1, 73, 127
2, 111640, Note_off_c, 1, 46, 0
2, 111640, Note_off_c, 1, 58, 0
2, 111640, Note_off_c, 1, 66, 0
2, 111640, Note_off_c, 1, 73, 0
2, 111680, Note_on_c, 1, 51, 127
2, 111680, Note_on_c, 1, 56, 127
2, 111680, Note_on_c, 1, 66, 127
2, 111680, Note_on_c, 1, 72, 127
2, 112000, Note_off_c, 1, 51, 0
2, 112000, Note_on_c, 1, 54, 127
2, 112000, Note_off_c, 1, 56, 0
2, 112000, Note_off_c, 1, 66, 0
2, 112000, Note_off_c, 1, 72, 0
2, 112040, Note_on_c, 1, 51, 127
2, 112040, Note_off_c, 1, 54, 0
2, 112040, Note_on_c, 1, 56, 127
2, 112040, Note_on_c, 1, 66, 127
2, 112040, Note_on_c, 1, 72, 127
2, 112360, Note_off_c, 1, 51, 0
2, 112360, Note_off_c, 1, 56, 0
2, 112360, Note_off_c, 1, 66, 0
2, 112360, Note_off_c, 1, 72, 0
2, 112400, Note_on_c, 1, 40, 127
2, 112400, Note_on_c, 1, 56, 127
2, 112400, Note_on_c, 1, 64, 127
2, 112760, Note_off_c, 1, 40, 0
2, 112760, Note_off_c, 1, 56, 0
2, 112760, Note_off_c, 1, 64, 0
2, 112800, Note_on_c, 1, 40, 127
2, 112800, Note_on_c, 1, 52, 127
2, 112800, Note_on_c, 1, 56, 127
2, 112800, Note_on_c, 1, 68, 127
2, 113120, Note_off_c, 1, 40, 0
2, 113120, Note_off_c, 1, 52, 0
2, 113120, Note_off_c, 1, 56, 0
2, 113120, Note_off_c, 1, 68, 0
2, 113160, Note_on_c, 1, 40, 127
2, 113160, Note_on_c, 1, 52, 127
2, 113160, Note_on_c, 1, 56, 127
2, 113160, Note_on_c, 1, 68, 127
2, 113480, Note_off_c, 1, 40, 0
2, 113480, Note_off_c, 1, 52, 0
2, 113480, Note_off_c, 1, 56, 0
2, 113480, Note_off_c, 1, 68, 0
2, 113520, Note_on_c, 1, 40, 127
2, 113520, Note_on_c, 1, 52, 127
2, 113520, Note_on_c, 1, 56, 127
2, 113520, Note_on_c, 1, 68, 127
2, 113840, Note_off_c, 1, 40, 0
2, 113840, Note_off_c, 1, 52, 0
2, 113840, Note_off_c, 1, 56, 0
2, 113840, Note_off_c, 1, 68, 0
2, 113960, Note_on_c, 1, 50, 127
2, 113960, Note_on_c, 1, 60, 127
2, 113960, Note_on_c, 1, 66, 127
2, 113960, Note_on_c, 1, 69, 127
2, 113960, Note_on_c, 1, 78, 127
2, 115360, Note_off_c, 1, 50, 0
2, 115360, Note_off_c, 1, 60, 0
2, 115360, Note_off_c, 1, 66, 0
2, 115360, Note_off_c, 1, 69, 0
2, 115360, Note_off_c, 1, 78, 0
2, 115400, Note_on_c, 1, 42, 127
2, 115400, Note_on_c, 1, 48, 127
2, 115400, Note_on_c, 1, 54, 127
2, 115400, Note_on_c, 1, 81, 127
2, 115400, Note_on_c, 1, 87, 127
2, 115400, Note_on_c, 1, 93, 127
2, 115920, Note_off_c, 1, 42, 0
2, 115920, Note_off_c, 1, 48, 0
2, 115920, Note_off_c, 1, 54, 0
2, 115920, Note_off_c, 1, 81, 0
2, 115920, Note_off_c, 1, 87, 0
2, 115920, Note_off_c, 1, 93, 0
2, 116000, Note_on_c, 1, 36, 127
2, 116000, Note_on_c, 1, 48, 127
2, 116000, Note_on_c, 1, 56, 127
2, 116000, Note_on_c, 1, 63, 127
2, 116000, Note_on_c, 1, 66, 127
2, 117640, Note_off_c, 1, 36, 0
2, 117640, Note_off_c, 1, 48, 0
2, 117640, Note_off_c, 1, 56, 0
2, 117640, Note_off_c, 1, 63, 0
2, 117640, Note_off_c, 1, 66, 0
2, 117680, Note_on_c, 1, 36, 127
2, 117680, Note_on_c, 1, 48, 127
2, 117680, Note_on_c, 1, 56, 127
2, 117680, Note_on_c, 1, 63, 127
2, 117680, Note_on_c, 1, 66, 127
2, 118240, Note_off_c, 1, 36, 0
2, 118240, Note_off_c, 1, 48, 0
2, 118240, Note_off_c, 1, 56, 0
2, 118240, Note_off_c, 1, 63, 0
2, 118240, Note_off_c, 1, 66, 0
2, 118280, Note_on_c, 1, 36, 127
2, 118280, Note_on_c, 1, 48, 127
2, 118280, Note_on_c, 1, 56, 127
2, 118280, Note_on_c, 1, 63, 127
2, 118280, Note_on_c, 1, 66, 127
2, 120000, Note_off_c, 1, 36, 0
2, 120000, Note_off_c, 1, 48, 0
2, 120000, Note_off_c, 1, 56, 0
2, 120000, Note_off_c, 1, 63, 0
2, 120000, Note_off_c, 1, 66, 0
2, 120040, End_track
3, 0, Start_track
3, 0, Title_t, "MIDI"
3, 1536, End_track
0, 0, End_of_file
