0, 0, Header, 1, 3, 192
1, 0, Start_track
1, 0, Time_signature, 4, 2, 24, 8
1, 0, Tempo, 500000
1, 120040, End_track
2, 0, Start_track
2, 0, Text_t, "random instrument: random person i dunno whatev"
2, 0, Title_t, "Track 1"
2, 0, Note_on_c, 1, 58, 127
2, 0, Note_on_c, 1, 66, 127
2, 0, Note_on_c, 1, 78, 127
2, 0, Note_on_c, 1, 82, 127
2, 0, Note_on_c, 1, 90, 127
2, 40, Note_on_c, 1, 46, 127
2, 40, Note_off_c, 1, 66, 0
2, 40, Note_off_c, 1, 78, 0
2, 40, Note_on_c, 1, 86, 127
2, 40, Note_off_c, 1, 90, 0
2, 40, Note_on_c, 1, 94, 127
2, 80, Note_off_c, 1, 46, 0
2, 80, Note_off_c, 1, 58, 0
2, 80, Note_off_c, 1, 82, 0
2, 80, Note_off_c, 1, 86, 0
2, 80, Note_off_c, 1, 94, 0
2, 120, Note_on_c, 1, 47, 127
2, 120, Note_on_c, 1, 58, 127
2, 120, Note_on_c, 1, 62, 127
2, 120, Note_on_c, 1, 66, 127
2, 120, Note_on_c, 1, 70, 127
2, 120, Note_on_c, 1, 74, 127
2, 160, Note_off_c, 1, 47, 0
2, 160, Note_off_c, 1, 62, 0
2, 160, Note_off_c, 1, 70, 0
2, 160, Note_off_c, 1, 74, 0
2, 160, Note_on_c, 1, 78, 127
2, 160, Note_on_c, 1, 82, 127
2, 160, Note_on_c, 1, 90, 127
2, 360, Note_off_c, 1, 58, 0
2, 360, Note_off_c, 1, 66, 0
2, 360, Note_off_c, 1, 78, 0
2, 360, Note_off_c, 1, 82, 0
2, 360, Note_off_c, 1, 90, 0
2, 400, Note_on_c, 1, 51, 127
2, 400, Note_on_c, 1, 59, 127
2, 400, Note_on_c, 1, 71, 127
2, 400, Note_on_c, 1, 75, 127
2, 840, Note_off_c, 1, 51, 0
2, 840, Note_off_c, 1, 59, 0
2, 840, Note_off_c, 1, 71, 0
2, 840, Note_off_c, 1, 75, 0
2, 880, Note_on_c, 1, 49, 127
2, 880, Note_on_c, 1, 55, 127
2, 880, Note_on_c, 1, 57, 127
2, 880, Note_on_c, 1, 61, 127
2, 880, Note_on_c, 1, 64, 127
2, 880, Note_on_c, 1, 69, 127
2, 1200, Note_off_c, 1, 49, 0
2, 1200, Note_off_c, 1, 55, 0
2, 1200, Note_off_c, 1, 57, 0
2, 1200, Note_off_c, 1, 61, 0
2, 1200, Note_off_c, 1, 64, 0
2, 1200, Note_off_c, 1, 69, 0
2, 1240, Note_on_c, 1, 51, 127
2, 1240, Note_on_c, 1, 57, 127
2, 1240, Note_on_c, 1, 63, 127
2, 1240, Note_on_c, 1, 75, 127
2, 1800, Note_off_c, 1, 51, 0
2, 1800, Note_off_c, 1, 57, 0
2, 1800, Note_off_c, 1, 63, 0
2, 1800, Note_off_c, 1, 75, 0
2, 1840, Note_on_c, 1, 63, 127
2, 1840, Note_on_c, 1, 72, 127
2, 1840, Note_on_c, 1, 91, 127
2, 2120, Note_off_c, 1, 63, 0
2, 2120, Note_off_c, 1, 72, 0
2, 2120, Note_off_c, 1, 91, 0
2, 2160, Note_on_c, 1, 63, 127
2, 2160, Note_on_c, 1, 72, 127
2, 2160, Note_on_c, 1, 91, 127
2, 2240, Note_off_c, 1, 63, 0
2, 2240, Note_off_c, 1, 72, 0
2, 2240, Note_off_c, 1, 91, 0
2, 2280, Note_on_c, 1, 63, 127
2, 2280, Note_on_c, 1, 72, 127
2, 2280, Note_on_c, 1, 91, 127
2, 2640, Note_off_c, 1, 63, 0
2, 2640, Note_off_c, 1, 72, 0
2, 2640, Note_off_c, 1, 91, 0
2, 2680, Note_on_c, 1, 63, 127
2, 2680, Note_on_c, 1, 72, 127
2, 2680, Note_on_c, 1, 91, 127
2, 3040, Note_off_c, 1, 63, 0
2, 3040, Note_off_c, 1, 72, 0
2, 3040, Note_off_c, 1, 91, 0
2, 3080, Note_on_c, 1, 63, 127
2, 3080, Note_on_c, 1, 72, 127
2, 3080, Note_on_c, 1, 91, 127
2, 3440, Note_off_c, 1, 63, 0
2, 3440, Note_off_c, 1, 91, 0
2, 3480, Note_on_c, 1, 63, 127
2, 3480, Note_on_c, 1, 91, 127
2, 3840, Note_off_c, 1, 63, 0
2, 3840, Note_off_c, 1, 91, 0
2, 3880, Note_on_c, 1, 63, 127
2, 3880, Note_on_c, 1, 89, 127
2, 4240, Note_off_c, 1, 63, 0
2, 4240, Note_off_c, 1, 89, 0
2, 4280, Note_off_c, 1, 72, 0
2, 4320, Note_on_c, 1, 41, 127
2, 4320, Note_on_c, 1, 70, 127
2, 4320, Note_on_c, 1, 73, 127
2, 4640, Note_off_c, 1, 41, 0
2, 4680, Note_on_c, 1, 58, 127
2, 4680, Note_off_c, 1, 73, 0
2, 4680, Note_on_c, 1, 77, 127
2, 4680, Note_on_c, 1, 80, 127
2, 4720, Note_off_c, 1, 58, 0
2, 5040, Note_off_c, 1, 70, 0
2, 5040, Note_off_c, 1, 77, 0
2, 5040, Note_off_c, 1, 80, 0
2, 5080, Note_on_c, 1, 68, 127
2, 5080, Note_on_c, 1, 77, 127
2, 5080, Note_on_c, 1, 82, 127
2, 5440, Note_off_c, 1, 77, 0
2, 5440, Note_off_c, 1, 82, 0
2, 5480, Note_on_c, 1, 77, 127
2, 5480, Note_on_c, 1, 82, 127
2, 5800, Note_off_c, 1, 68, 0
2, 5800, Note_off_c, 1, 77, 0
2, 5800, Note_off_c, 1, 82, 0
2, 5840, Note_on_c, 1, 65, 127
2, 6440, Note_off_c, 1, 65, 0
2, 6480, Note_on_c, 1, 65, 127
2, 7040, Note_off_c, 1, 65, 0
2, 7080, Note_on_c, 1, 58, 127
2, 7080, Note_on_c, 1, 61, 127
2, 7080, Note_on_c, 1, 68, 127
2, 7080, Note_on_c, 1, 75, 127
2, 7840, Note_off_c, 1, 58, 0
2, 7840, Note_off_c, 1, 61, 0
2, 7840, Note_off_c, 1, 68, 0
2, 7880, Note_on_c, 1, 58, 127
2, 7880, Note_on_c, 1, 61, 127
2, 7880, Note_on_c, 1, 68, 127
2, 8640, Note_off_c, 1, 58, 0
2, 8640, Note_off_c, 1, 61, 0
2, 8640, Note_off_c, 1, 68, 0
2, 8640, Note_off_c, 1, 75, 0
2, 8720, Note_on_c, 1, 58, 127
2, 8720, Note_on_c, 1, 61, 127
2, 8720, Note_on_c, 1, 68, 127
2, 8720, Note_on_c, 1, 75, 127
2, 9120, Note_off_c, 1, 58, 0
2, 9120, Note_off_c, 1, 61, 0
2, 9120, Note_off_c, 1, 68, 0
2, 9120, Note_off_c, 1, 75, 0
2, 9160, Note_on_c, 1, 58, 127
2, 9160, Note_on_c, 1, 61, 127
2, 9160, Note_on_c, 1, 68, 127
2, 9160, Note_on_c, 1, 75, 127
2, 9520, Note_off_c, 1, 58, 0
2, 9520, Note_off_c, 1, 61, 0
2, 9520, Note_off_c, 1, 68, 0
2, 9520, Note_off_c, 1, 75, 0
2, 9560, Note_on_c, 1, 58, 127
2, 9560, Note_on_c, 1, 61, 127
2, 9560, Note_on_c, 1, 68, 127
2, 9560, Note_on_c, 1, 75, 127
2, 9920, Note_off_c, 1, 58, 0
2, 9920, Note_off_c, 1, 61, 0
2, 9920, Note_off_c, 1, 68, 0
2, 9920, Note_off_c, 1, 75, 0
2, 9960, Note_on_c, 1, 58, 127
2, 9960, Note_on_c, 1, 61, 127
2, 9960, Note_on_c, 1, 68, 127
2, 9960, Note_on_c, 1, 75, 127
2, 10280, Note_off_c, 1, 58, 0
2, 10280, Note_off_c, 1, 61, 0
2, 10280, Note_off_c, 1, 68, 0
2, 10320, Note_on_c, 1, 58, 127
2, 10320, Note_on_c, 1, 61, 127
2, 10320, Note_on_c, 1, 68, 127
2, 10640, Note_off_c, 1, 61, 0
2, 10640, Note_off_c, 1, 68, 0
2, 10640, Note_off_c, 1, 75, 0
2, 10680, Note_on_c, 1, 61, 127
2, 10680, Note_on_c, 1, 68, 127
2, 10680, Note_on_c, 1, 75, 127
2, 10920, Note_off_c, 1, 58, 0
2, 10920, Note_off_c, 1, 61, 0
2, 10920, Note_off_c, 1, 68, 0
2, 10920, Note_off_c, 1, 75, 0
2, 10960, Note_on_c, 1, 58, 127
2, 10960, Note_on_c, 1, 61, 127
2, 10960, Note_on_c, 1, 68, 127
2, 10960, Note_on_c, 1, 75, 127
2, 11080, Note_off_c, 1, 58, 0
2, 11080, Note_off_c, 1, 61, 0
2, 11080, Note_off_c, 1, 68, 0
2, 11120, Note_on_c, 1, 58, 127
2, 11120, Note_on_c, 1, 61, 127
2, 11120, Note_on_c, 1, 67, 127
2, 11480, Note_off_c, 1, 58, 0
2, 11480, Note_off_c, 1, 61, 0
2, 11480, Note_off_c, 1, 67, 0
2, 11480, Note_off_c, 1, 75, 0
2, 11520, Note_on_c, 1, 56, 127
2, 11520, Note_on_c, 1, 60, 127
2, 11520, Note_on_c, 1, 63, 127
2, 11520, Note_on_c, 1, 68, 127
2, 11520, Note_on_c, 1, 72, 127
2, 11920, Note_off_c, 1, 56, 0
2, 11920, Note_off_c, 1, 60, 0
2, 11920, Note_off_c, 1, 63, 0
2, 11920, Note_off_c, 1, 68, 0
2, 11920, Note_off_c, 1, 72, 0
2, 11960, Note_on_c, 1, 59, 127
2, 11960, Note_on_c, 1, 65, 127
2, 11960, Note_on_c, 1, 67, 127
2, 12320, Note_off_c, 1, 59, 0
2, 12320, Note_off_c, 1, 65, 0
2, 12320, Note_off_c, 1, 67, 0
2, 12360, Note_on_c, 1, 59, 127
2, 12360, Note_on_c, 1, 65, 127
2, 12360, Note_on_c, 1, 67, 127
2, 12720, Note_off_c, 1, 59, 0
2, 12720, Note_off_c, 1, 65, 0
2, 12720, Note_off_c, 1, 67, 0
2, 12760, Note_on_c, 1, 59, 127
2, 12760, Note_on_c, 1, 65, 127
2, 12760, Note_on_c, 1, 67, 127
2, 13120, Note_off_c, 1, 59, 0
2, 13120, Note_off_c, 1, 65, 0
2, 13120, Note_off_c, 1, 67, 0
2, 13200, Note_on_c, 1, 59, 127
2, 13200, Note_on_c, 1, 65, 127
2, 13200, Note_on_c, 1, 67, 127
2, 13560, Note_off_c, 1, 59, 0
2, 13560, Note_off_c, 1, 65, 0
2, 13560, Note_off_c, 1, 67, 0
2, 13600, Note_on_c, 1, 59, 127
2, 13600, Note_on_c, 1, 65, 127
2, 13600, Note_on_c, 1, 67, 127
2, 14360, Note_off_c, 1, 59, 0
2, 14400, Note_on_c, 1, 59, 127
2, 14760, Note_off_c, 1, 59, 0
2, 14760, Note_off_c, 1, 65, 0
2, 14760, Note_off_c, 1, 67, 0
2, 14800, Note_on_c, 1, 59, 127
2, 14800, Note_on_c, 1, 65, 127
2, 14800, Note_on_c, 1, 67, 127
2, 15600, Note_off_c, 1, 59, 0
2, 15600, Note_off_c, 1, 65, 0
2, 15600, Note_off_c, 1, 67, 0
2, 15680, Note_on_c, 1, 58, 127
2, 15680, Note_on_c, 1, 61, 127
2, 15680, Note_on_c, 1, 64, 127
2, 16080, Note_on_c, 1, 57, 127
2, 16080, Note_off_c, 1, 58, 0
2, 16080, Note_on_c, 1, 60, 127
2, 16080, Note_off_c, 1, 61, 0
2, 16080, Note_on_c, 1, 63, 127
2, 16080, Note_off_c, 1, 64, 0
2, 16080, Note_on_c, 1, 72, 127
2, 16080, Note_on_c, 1, 78, 127
2, 16080, Note_on_c, 1, 83, 127
2, 16440, Note_off_c, 1, 57, 0
2, 16440, Note_off_c, 1, 60, 0
2, 16440, Note_off_c, 1, 63, 0
2, 16440, Note_off_c, 1, 72, 0
2, 16440, Note_off_c, 1, 78, 0
2, 16440, Note_off_c, 1, 83, 0
2, 16480, Note_on_c, 1, 51, 127
2, 16480, Note_on_c, 1, 53, 127
2, 16480, Note_on_c, 1, 56, 127
2, 16480, Note_on_c, 1, 58, 127
2, 16480, Note_on_c, 1, 62, 127
2, 16480, Note_on_c, 1, 68, 127
2, 16840, Note_off_c, 1, 51, 0
2, 16840, Note_off_c, 1, 53, 0
2, 16840, Note_off_c, 1, 56, 0
2, 16840, Note_off_c, 1, 58, 0
2, 16840, Note_off_c, 1, 62, 0
2, 16840, Note_off_c, 1, 68, 0
2, 16880, Note_on_c, 1, 34, 127
2, 16880, Note_on_c, 1, 63, 127
2, 16880, Note_on_c, 1, 69, 127
2, 17240, Note_off_c, 1, 34, 0
2, 17240, Note_off_c, 1, 63, 0
2, 17240, Note_off_c, 1, 69, 0
2, 17280, Note_on_c, 1, 55, 127
2, 17280, Note_on_c, 1, 58, 127
2, 17280, Note_on_c, 1, 64, 127
2, 17280, Note_on_c, 1, 72, 127
2, 17840, Note_off_c, 1, 55, 0
2, 17840, Note_off_c, 1, 58, 0
2, 17840, Note_off_c, 1, 64, 0
2, 17840, Note_off_c, 1, 72, 0
2, 17880, Note_on_c, 1, 55, 127
2, 17880, Note_on_c, 1, 58, 127
2, 17880, Note_on_c, 1, 64, 127
2, 17880, Note_on_c, 1, 72, 127
2, 18080, Note_off_c, 1, 55, 0
2, 18080, Note_off_c, 1, 58, 0
2, 18080, Note_off_c, 1, 64, 0
2, 18080, Note_off_c, 1, 72, 0
2, 18120, Note_on_c, 1, 52, 127
2, 18120, Note_on_c, 1, 60, 127
2, 18120, Note_on_c, 1, 64, 127
2, 18120, Note_on_c, 1, 71, 127
2, 18480, Note_off_c, 1, 71, 0
2, 18520, Note_on_c, 1, 71, 127
2, 18880, Note_off_c, 1, 52, 0
2, 18880, Note_off_c, 1, 60, 0
2, 18880, Note_off_c, 1, 64, 0
2, 18880, Note_off_c, 1, 71, 0
2, 18920, Note_on_c, 1, 52, 127
2, 18920, Note_on_c, 1, 60, 127
2, 18920, Note_on_c, 1, 64, 127
2, 18920, Note_on_c, 1, 71, 127
2, 19280, Note_off_c, 1, 71, 0
2, 19720, Note_off_c, 1, 52, 0
2, 19720, Note_off_c, 1, 60, 0
2, 19720, Note_off_c, 1, 64, 0
2, 19760, Note_on_c, 1, 44, 127
2, 19760, Note_on_c, 1, 60, 127
2, 19760, Note_on_c, 1, 69, 127
2, 19920, Note_off_c, 1, 44, 0
2, 19920, Note_off_c, 1, 60, 0
2, 19920, Note_off_c, 1, 69, 0
2, 19960, Note_on_c, 1, 44, 127
2, 19960, Note_on_c, 1, 60, 127
2, 19960, Note_on_c, 1, 69, 127
2, 20160, Note_off_c, 1, 44, 0
2, 20200, Note_on_c, 1, 44, 127
2, 20960, Note_off_c, 1, 44, 0
2, 21000, Note_on_c, 1, 51, 127
2, 21000, Note_on_c, 1, 58, 127
2, 21000, Note_off_c, 1, 60, 0
2, 21000, Note_on_c, 1, 65, 127
2, 21000, Note_off_c, 1, 69, 0
2, 21000, Note_on_c, 1, 70, 127
2, 21360, Note_off_c, 1, 58, 0
2, 21360, Note_off_c, 1, 65, 0
2, 21360, Note_off_c, 1, 70, 0
2, 21400, Note_on_c, 1, 58, 127
2, 21400, Note_on_c, 1, 65, 127
2, 21400, Note_on_c, 1, 73, 127
2, 21760, Note_off_c, 1, 51, 0
2, 21760, Note_off_c, 1, 65, 0
2, 21760, Note_off_c, 1, 73, 0
2, 21800, Note_off_c, 1, 58, 0
2, 21840, Note_on_c, 1, 51, 127
2, 21840, Note_on_c, 1, 58, 127
2, 21840, Note_on_c, 1, 65, 127
2, 21840, Note_on_c, 1, 73, 127
2, 22200, Note_off_c, 1, 51, 0
2, 22200, Note_off_c, 1, 58, 0
2, 22200, Note_off_c, 1, 65, 0
2, 22200, Note_off_c, 1, 73, 0
2, 22240, Note_on_c, 1, 51, 127
2, 22240, Note_on_c, 1, 60, 127
2, 22240, Note_on_c, 1, 77, 127
2, 22600, Note_off_c, 1, 51, 0
2, 22600, Note_off_c, 1, 60, 0
2, 22600, Note_off_c, 1, 77, 0
2, 22640, Note_on_c, 1, 51, 127
2, 22640, Note_on_c, 1, 61, 127
2, 22640, Note_on_c, 1, 67, 127
2, 22640, Note_on_c, 1, 72, 127
2, 23400, Note_off_c, 1, 72, 0
2, 23440, Note_on_c, 1, 75, 127
2, 24200, Note_off_c, 1, 51, 0
2, 24200, Note_off_c, 1, 61, 0
2, 24200, Note_off_c, 1, 67, 0
2, 24200, Note_off_c, 1, 75, 0
2, 24240, Note_on_c, 1, 51, 127
2, 24240, Note_on_c, 1, 58, 127
2, 24280, Note_off_c, 1, 58, 0
2, 24280, Note_on_c, 1, 61, 127
2, 24280, Note_on_c, 1, 67, 127
2, 24280, Note_on_c, 1, 75, 127
2, 25480, Note_off_c, 1, 51, 0
2, 25480, Note_off_c, 1, 61, 0
2, 25480, Note_off_c, 1, 67, 0
2, 25480, Note_off_c, 1, 75, 0
2, 25520, Note_on_c, 1, 51, 127
2, 25520, Note_on_c, 1, 58, 127
2, 25520, Note_on_c, 1, 63, 127
2, 25520, Note_on_c, 1, 68, 127
2, 25520, Note_on_c, 1, 72, 127
2, 26160, Note_off_c, 1, 51, 0
2, 26160, Note_off_c, 1, 58, 0
2, 26160, Note_off_c, 1, 63, 0
2, 26160, Note_off_c, 1, 68, 0
2, 26160, Note_off_c, 1, 72, 0
2, 26200, Note_on_c, 1, 51, 127
2, 26200, Note_on_c, 1, 58, 127
2, 26200, Note_on_c, 1, 63, 127
2, 26200, Note_on_c, 1, 68, 127
2, 26200, Note_on_c, 1, 72, 127
2, 27560, Note_on_c, 1, 67, 127
2, 27560, Note_off_c, 1, 68, 0
2, 27560, Note_on_c, 1, 70, 127
2, 27560, Note_off_c, 1, 72, 0
2, 28320, Note_off_c, 1, 51, 0
2, 28320, Note_off_c, 1, 58, 0
2, 28320, Note_off_c, 1, 63, 0
2, 28320, Note_off_c, 1, 67, 0
2, 28320, Note_off_c, 1, 70, 0
2, 28360, Note_on_c, 1, 51, 127
2, 28360, Note_on_c, 1, 58, 127
2, 28360, Note_on_c, 1, 63, 127
2, 28360, Note_on_c, 1, 67, 127
2, 28360, Note_on_c, 1, 70, 127
2, 28800, Note_off_c, 1, 51, 0
2, 28800, Note_off_c, 1, 58, 0
2, 28800, Note_off_c, 1, 63, 0
2, 28800, Note_off_c, 1, 67, 0
2, 28800, Note_off_c, 1, 70, 0
2, 28840, Note_on_c, 1, 56, 127
2, 28840, Note_on_c, 1, 63, 127
2, 28840, Note_on_c, 1, 68, 127
2, 28840, Note_on_c, 1, 73, 127
2, 29800, Note_off_c, 1, 73, 0
2, 29840, Note_on_c, 1, 72, 127
2, 30000, Note_off_c, 1, 56, 0
2, 30000, Note_off_c, 1, 63, 0
2, 30000, Note_off_c, 1, 68, 0
2, 30000, Note_off_c, 1, 72, 0
2, 30040, Note_on_c, 1, 47, 127
2, 30040, Note_on_c, 1, 54, 127
2, 30040, Note_on_c, 1, 63, 127
2, 30040, Note_on_c, 1, 68, 127
2, 30320, Note_off_c, 1, 47, 0
2, 30320, Note_off_c, 1, 54, 0
2, 30320, Note_off_c, 1, 63, 0
2, 30320, Note_off_c, 1, 68, 0
2, 30360, Note_on_c, 1, 47, 127
2, 30360, Note_on_c, 1, 54, 127
2, 30360, Note_on_c, 1, 63, 127
2, 30360, Note_on_c, 1, 68, 127
2, 30840, Note_off_c, 1, 47, 0
2, 30840, Note_off_c, 1, 54, 0
2, 30840, Note_off_c, 1, 63, 0
2, 30840, Note_off_c, 1, 68, 0
2, 30880, Note_on_c, 1, 51, 127
2, 30880, Note_on_c, 1, 57, 127
2, 30880, Note_on_c, 1, 65, 127
2, 30880, Note_on_c, 1, 77, 127
2, 31640, Note_off_c, 1, 51, 0
2, 31640, Note_off_c, 1, 57, 0
2, 31640, Note_off_c, 1, 65, 0
2, 31640, Note_off_c, 1, 77, 0
2, 31680, Note_on_c, 1, 46, 127
2, 31680, Note_on_c, 1, 50, 127
2, 31680, Note_on_c, 1, 58, 127
2, 31680, Note_on_c, 1, 65, 127
2, 31680, Note_on_c, 1, 70, 127
2, 32240, Note_off_c, 1, 50, 0
2, 32280, Note_on_c, 1, 53, 127
2, 32440, Note_off_c, 1, 58, 0
2, 32440, Note_off_c, 1, 70, 0
2, 32480, Note_off_c, 1, 46, 0
2, 32480, Note_off_c, 1, 53, 0
2, 32480, Note_off_c, 1, 65, 0
2, 32520, Note_on_c, 1, 46, 127
2, 32520, Note_on_c, 1, 53, 127
2, 32520, Note_on_c, 1, 58, 127
2, 32520, Note_on_c, 1, 65, 127
2, 32520, Note_on_c, 1, 70, 127
2, 32840, Note_off_c, 1, 58, 0
2, 32840, Note_off_c, 1, 70, 0
2, 32880, Note_off_c, 1, 46, 0
2, 32880, Note_off_c, 1, 53, 0
2, 32880, Note_off_c, 1, 65, 0
2, 32920, Note_on_c, 1, 51, 127
2, 32920, Note_on_c, 1, 55, 127
2, 32920, Note_on_c, 1, 58, 127
2, 32920, Note_on_c, 1, 79, 127
2, 33640, Note_off_c, 1, 51, 0
2, 33640, Note_off_c, 1, 55, 0
2, 33640, Note_off_c, 1, 58, 0
2, 33640, Note_off_c, 1, 79, 0
2, 33720, Note_on_c, 1, 51, 127
2, 33720, Note_on_c, 1, 55, 127
2, 33720, Note_on_c, 1, 58, 127
2, 33720, Note_on_c, 1, 79, 127
2, 34720, Note_off_c, 1, 51, 0
2, 34720, Note_off_c, 1, 55, 0
2, 34720, Note_off_c, 1, 58, 0
2, 34720, Note_off_c, 1, 79, 0
2, 34760, Note_on_c, 1, 51, 127
2, 34760, Note_on_c, 1, 55, 127
2, 34760, Note_on_c, 1, 58, 127
2, 34760, Note_on_c, 1, 79, 127
2, 35320, Note_off_c, 1, 51, 0
2, 35320, Note_off_c, 1, 55, 0
2, 35320, Note_off_c, 1, 58, 0
2, 35320, Note_off_c, 1, 79, 0
2, 35360, Note_on_c, 1, 67, 127
2, 35360, Note_on_c, 1, 70, 127
2, 35360, Note_on_c, 1, 76, 127
2, 35360, Note_on_c, 1, 82, 127
2, 36960, Note_off_c, 1, 67, 0
2, 36960, Note_off_c, 1, 70, 0
2, 36960, Note_off_c, 1, 76, 0
2, 36960, Note_off_c, 1, 82, 0
2, 37000, Note_on_c, 1, 67, 127
2, 37000, Note_on_c, 1, 70, 127
2, 37000, Note_on_c, 1, 76, 127
2, 37000, Note_on_c, 1, 82, 127
2, 38560, Note_off_c, 1, 67, 0
2, 38560, Note_off_c, 1, 70, 0
2, 38560, Note_off_c, 1, 76, 0
2, 38560, Note_off_c, 1, 82, 0
2, 38600, Note_on_c, 1, 67, 127
2, 38600, Note_on_c, 1, 70, 127
2, 38600, Note_on_c, 1, 76, 127
2, 38600, Note_on_c, 1, 82, 127
2, 39400, Note_off_c, 1, 67, 0
2, 39400, Note_off_c, 1, 70, 0
2, 39400, Note_off_c, 1, 76, 0
2, 39400, Note_off_c, 1, 82, 0
2, 39440, Note_on_c, 1, 67, 127
2, 39440, Note_on_c, 1, 70, 127
2, 39440, Note_on_c, 1, 76, 127
2, 39440, Note_on_c, 1, 82, 127
2, 42000, Note_off_c, 1, 67, 0
2, 42000, Note_off_c, 1, 70, 0
2, 42000, Note_off_c, 1, 76, 0
2, 42000, Note_off_c, 1, 82, 0
2, 42040, Note_on_c, 1, 67, 127
2, 42040, Note_on_c, 1, 70, 127
2, 42040, Note_on_c, 1, 76, 127
2, 42040, Note_on_c, 1, 82, 127
2, 43440, Note_off_c, 1, 67, 0
2, 43440, Note_off_c, 1, 70, 0
2, 43440, Note_off_c, 1, 76, 0
2, 43440, Note_off_c, 1, 82, 0
2, 43480, Note_on_c, 1, 60, 127
2, 43480, Note_on_c, 1, 63, 127
2, 43480, Note_on_c, 1, 67, 127
2, 44240, Note_off_c, 1, 60, 0
2, 44240, Note_off_c, 1, 63, 0
2, 44240, Note_off_c, 1, 67, 0
2, 44320, Note_on_c, 1, 43, 127
2, 44320, Note_on_c, 1, 50, 127
2, 44320, Note_on_c, 1, 60, 127
2, 44320, Note_on_c, 1, 67, 127
2, 45480, Note_off_c, 1, 43, 0
2, 45480, Note_off_c, 1, 50, 0
2, 45480, Note_off_c, 1, 60, 0
2, 45480, Note_off_c, 1, 67, 0
2, 45520, Note_on_c, 1, 43, 127
2, 45520, Note_on_c, 1, 50, 127
2, 45520, Note_on_c, 1, 59, 127
2, 45520, Note_on_c, 1, 67, 127
2, 46720, Note_off_c, 1, 43, 0
2, 46720, Note_off_c, 1, 50, 0
2, 46720, Note_off_c, 1, 59, 0
2, 46720, Note_off_c, 1, 67, 0
2, 46760, Note_on_c, 1, 43, 127
2, 46760, Note_on_c, 1, 50, 127
2, 46760, Note_on_c, 1, 59, 127
2, 46760, Note_on_c, 1, 67, 127
2, 48920, Note_off_c, 1, 43, 0
2, 48920, Note_off_c, 1, 50, 0
2, 48920, Note_off_c, 1, 59, 0
2, 48920, Note_off_c, 1, 67, 0
2, 54920, Note_on_c, 1, 52, 127
2, 55680, Note_off_c, 1, 52, 0
2, 55720, Note_on_c, 1, 54, 127
2, 56080, Note_off_c, 1, 54, 0
2, 56120, Note_on_c, 1, 58, 127
2, 56480, Note_off_c, 1, 58, 0
2, 56520, Note_on_c, 1, 54, 127
2, 56880, Note_off_c, 1, 54, 0
2, 56960, Note_on_c, 1, 54, 127
2, 57760, Note_off_c, 1, 54, 0
2, 57760, Note_on_c, 1, 58, 127
2, 58120, Note_off_c, 1, 58, 0
2, 58160, Note_on_c, 1, 56, 127
2, 58520, Note_off_c, 1, 56, 0
2, 58560, Note_on_c, 1, 50, 127
2, 58920, Note_off_c, 1, 50, 0
2, 58960, Note_on_c, 1, 59, 127
2, 59160, Note_off_c, 1, 59, 0
2, 59200, Note_on_c, 1, 59, 127
2, 59360, Note_off_c, 1, 59, 0
2, 59400, Note_on_c, 1, 66, 127
2, 59760, Note_off_c, 1, 66, 0
2, 59800, Note_on_c, 1, 64, 127
2, 60160, Note_off_c, 1, 64, 0
2, 60200, Note_on_c, 1, 61, 127
2, 60560, Note_off_c, 1, 61, 0
2, 60600, Note_on_c, 1, 59, 127
2, 60960, Note_off_c, 1, 59, 0
2, 61000, Note_on_c, 1, 54, 127
2, 61600, Note_off_c, 1, 54, 0
2, 61640, Note_on_c, 1, 54, 127
2, 61800, Note_off_c, 1, 54, 0
2, 61840, Note_on_c, 1, 52, 127
2, 62600, Note_off_c, 1, 52, 0
2, 62640, Note_on_c, 1, 54, 127
2, 63400, Note_off_c, 1, 54, 0
2, 63440, Note_on_c, 1, 52, 127
2, 63840, Note_off_c, 1, 52, 0
2, 63920, Note_on_c, 1, 54, 127
2, 64280, Note_off_c, 1, 54, 0
2, 64320, Note_on_c, 1, 54, 127
2, 64680, Note_off_c, 1, 54, 0
2, 64720, Note_on_c, 1, 62, 127
2, 64720, Note_on_c, 1, 67, 127
2, 64720, Note_on_c, 1, 70, 127
2, 65480, Note_off_c, 1, 62, 0
2, 65480, Note_off_c, 1, 67, 0
2, 65480, Note_off_c, 1, 70, 0
2, 65520, Note_on_c, 1, 51, 127
2, 65880, Note_off_c, 1, 51, 0
2, 65920, Note_on_c, 1, 50, 127
2, 66120, Note_off_c, 1, 50, 0
2, 66160, Note_on_c, 1, 50, 127
2, 66320, Note_off_c, 1, 50, 0
2, 66360, Note_on_c, 1, 50, 127
2, 66720, Note_off_c, 1, 50, 0
2, 66760, Note_on_c, 1, 60, 127
2, 67120, Note_off_c, 1, 60, 0
2, 67160, Note_on_c, 1, 64, 127
2, 67160, Note_on_c, 1, 67, 127
2, 67160, Note_on_c, 1, 69, 127
2, 67920, Note_off_c, 1, 64, 0
2, 67920, Note_off_c, 1, 67, 0
2, 67920, Note_off_c, 1, 69, 0
2, 67960, Note_on_c, 1, 50, 127
2, 68320, Note_off_c, 1, 50, 0
2, 68360, Note_on_c, 1, 45, 127
2, 68680, Note_off_c, 1, 45, 0
2, 68720, Note_on_c, 1, 45, 127
2, 68760, Note_off_c, 1, 45, 0
2, 68800, Note_on_c, 1, 57, 127
2, 69160, Note_off_c, 1, 57, 0
2, 69200, Note_on_c, 1, 57, 127
2, 69560, Note_off_c, 1, 57, 0
2, 69600, Note_on_c, 1, 52, 127
2, 69960, Note_off_c, 1, 52, 0
2, 70000, Note_on_c, 1, 50, 127
2, 70200, Note_off_c, 1, 50, 0
2, 70400, Note_on_c, 1, 48, 127
2, 70760, Note_off_c, 1, 48, 0
2, 70800, Note_on_c, 1, 57, 127
2, 71080, Note_off_c, 1, 57, 0
2, 71120, Note_on_c, 1, 57, 127
2, 71200, Note_off_c, 1, 57, 0
2, 71240, Note_on_c, 1, 57, 127
2, 71600, Note_off_c, 1, 57, 0
2, 71640, Note_on_c, 1, 57, 127
2, 72000, Note_off_c, 1, 57, 0
2, 72040, Note_on_c, 1, 55, 127
2, 72400, Note_off_c, 1, 55, 0
2, 72440, Note_on_c, 1, 52, 127
2, 72800, Note_off_c, 1, 52, 0
2, 72840, Note_on_c, 1, 57, 127
2, 73200, Note_off_c, 1, 57, 0
2, 73280, Note_on_c, 1, 52, 127
2, 73640, Note_off_c, 1, 52, 0
2, 73680, Note_on_c, 1, 57, 127
2, 74040, Note_off_c, 1, 57, 0
2, 74080, Note_on_c, 1, 65, 127
2, 74440, Note_off_c, 1, 65, 0
2, 74480, Note_on_c, 1, 59, 127
2, 74840, Note_off_c, 1, 59, 0
2, 74880, Note_on_c, 1, 60, 127
2, 75240, Note_off_c, 1, 60, 0
2, 75280, Note_on_c, 1, 65, 127
2, 75480, Note_off_c, 1, 65, 0
2, 75520, Note_on_c, 1, 65, 127
2, 75680, Note_off_c, 1, 65, 0
2, 75720, Note_on_c, 1, 64, 127
2, 76080, Note_off_c, 1, 64, 0
2, 76120, Note_on_c, 1, 65, 127
2, 76480, Note_off_c, 1, 65, 0
2, 76520, Note_on_c, 1, 60, 127
2, 76880, Note_off_c, 1, 60, 0
2, 76920, Note_on_c, 1, 58, 127
2, 77280, Note_off_c, 1, 58, 0
2, 77320, Note_on_c, 1, 59, 127
2, 77680, Note_off_c, 1, 59, 0
2, 77720, Note_on_c, 1, 64, 127
2, 77720, Note_on_c, 1, 67, 127
2, 77920, Note_off_c, 1, 64, 0
2, 77920, Note_off_c, 1, 67, 0
2, 77960, Note_on_c, 1, 64, 127
2, 77960, Note_on_c, 1, 67, 127
2, 78120, Note_off_c, 1, 64, 0
2, 78120, Note_off_c, 1, 67, 0
2, 78160, Note_on_c, 1, 60, 127
2, 79320, Note_off_c, 1, 60, 0
2, 79360, Note_on_c, 1, 62, 127
2, 79720, Note_off_c, 1, 62, 0
2, 79760, Note_on_c, 1, 62, 127
2, 80120, Note_off_c, 1, 62, 0
2, 80160, Note_on_c, 1, 61, 127
2, 80400, Note_off_c, 1, 61, 0
2, 80440, Note_on_c, 1, 61, 127
2, 80600, Note_off_c, 1, 61, 0
2, 80600, Note_on_c, 1, 62, 127
2, 80960, Note_off_c, 1, 62, 0
2, 81000, Note_on_c, 1, 62, 127
2, 81760, Note_off_c, 1, 62, 0
2, 81800, Note_on_c, 1, 64, 127
2, 82160, Note_off_c, 1, 64, 0
2, 82200, Note_on_c, 1, 65, 127
2, 82560, Note_off_c, 1, 65, 0
2, 82640, Note_on_c, 1, 60, 127
2, 82640, Note_on_c, 1, 62, 127
2, 83400, Note_off_c, 1, 60, 0
2, 83400, Note_off_c, 1, 62, 0
2, 83440, Note_on_c, 1, 64, 127
2, 83440, Note_on_c, 1, 67, 127
2, 84200, Note_off_c, 1, 64, 0
2, 84200, Note_off_c, 1, 67, 0
2, 84240, Note_on_c, 1, 60, 127
2, 84240, Note_on_c, 1, 69, 127
2, 84640, Note_off_c, 1, 60, 0
2, 84640, Note_off_c, 1, 69, 0
2, 84680, Note_on_c, 1, 60, 127
2, 84680, Note_on_c, 1, 69, 127
2, 85040, Note_off_c, 1, 60, 0
2, 85040, Note_off_c, 1, 69, 0
2, 85080, Note_on_c, 1, 60, 127
2, 85080, Note_on_c, 1, 69, 127
2, 86640, Note_off_c, 1, 60, 0
2, 86640, Note_off_c, 1, 69, 0
2, 86680, Note_on_c, 1, 51, 127
2, 86680, Note_on_c, 1, 59, 127
2, 86880, Note_off_c, 1, 51, 0
2, 86880, Note_off_c, 1, 59, 0
2, 86920, Note_on_c, 1, 51, 127
2, 86920, Note_on_c, 1, 59, 127
2, 88680, Note_on_c, 1, 47, 127
2, 88680, Note_off_c, 1, 51, 0
2, 88680, Note_off_c, 1, 59, 0
2, 89080, Note_off_c, 1, 47, 0
2, 89160, Note_on_c, 1, 59, 127
2, 89520, Note_off_c, 1, 59, 0
2, 89560, Note_on_c, 1, 57, 127
2, 90320, Note_off_c, 1, 57, 0
2, 90360, Note_on_c, 1, 54, 127
2, 90720, Note_off_c, 1, 54, 0
2, 90760, Note_on_c, 1, 47, 127
2, 91120, Note_off_c, 1, 47, 0
2, 91160, Note_on_c, 1, 49, 127
2, 91360, Note_off_c, 1, 49, 0
2, 91400, Note_on_c, 1, 49, 127
2, 91920, Note_off_c, 1, 49, 0
2, 91960, Note_on_c, 1, 47, 127
2, 92320, Note_off_c, 1, 47, 0
2, 92360, Note_on_c, 1, 54, 127
2, 92720, Note_off_c, 1, 54, 0
2, 92760, Note_on_c, 1, 40, 127
2, 93120, Note_off_c, 1, 40, 0
2, 93160, Note_on_c, 1, 47, 127
2, 93480, Note_off_c, 1, 47, 0
2, 93520, Note_on_c, 1, 47, 127
2, 93560, Note_off_c, 1, 47, 0
2, 93600, Note_on_c, 1, 52, 127
2, 94360, Note_off_c, 1, 52, 0
2, 94400, Note_on_c, 1, 47, 127
2, 94760, Note_off_c, 1, 47, 0
2, 94800, Note_on_c, 1, 47, 127
2, 95160, Note_off_c, 1, 47, 0
2, 95200, Note_on_c, 1, 52, 127
2, 95560, Note_off_c, 1, 52, 0
2, 95640, Note_on_c, 1, 44, 127
2, 96000, Note_off_c, 1, 44, 0
2, 96040, Note_on_c, 1, 47, 127
2, 96400, Note_off_c, 1, 47, 0
2, 96440, Note_on_c, 1, 48, 127
2, 96800, Note_off_c, 1, 48, 0
2, 96840, Note_on_c, 1, 40, 127
2, 97200, Note_off_c, 1, 40, 0
2, 97240, Note_on_c, 1, 47, 127
2, 97600, Note_off_c, 1, 47, 0
2, 97640, Note_on_c, 1, 40, 127
2, 97880, Note_off_c, 1, 40, 0
2, 97920, Note_on_c, 1, 40, 127
2, 98040, Note_off_c, 1, 40, 0
2, 98080, Note_on_c, 1, 40, 127
2, 98440, Note_off_c, 1, 40, 0
2, 98480, Note_on_c, 1, 47, 127
2, 98840, Note_off_c, 1, 47, 0
2, 98880, Note_on_c, 1, 40, 127
2, 99240, Note_off_c, 1, 40, 0
2, 99280, Note_on_c, 1, 47, 127
2, 99640, Note_off_c, 1, 47, 0
2, 99680, Note_on_c, 1, 47, 127
2, 100000, Note_off_c, 1, 47, 0
2, 100040, Note_on_c, 1, 47, 127
2, 100080, Note_off_c, 1, 47, 0
2, 100120, Note_on_c, 1, 47, 127
2, 100480, Note_off_c, 1, 47, 0
2, 100520, Note_on_c, 1, 47, 127
2, 100880, Note_off_c, 1, 47, 0
2, 100920, Note_on_c, 1, 47, 127
2, 101280, Note_off_c, 1, 47, 0
2, 101320, Note_on_c, 1, 47, 127
2, 101680, Note_off_c, 1, 47, 0
2, 101720, Note_on_c, 1, 40, 127
2, 102080, Note_off_c, 1, 40, 0
2, 102160, Note_on_c, 1, 45, 127
2, 102520, Note_off_c, 1, 45, 0
2, 102560, Note_on_c, 1, 40, 127
2, 102920, Note_off_c, 1, 40, 0
2, 102960, Note_on_c, 1, 40, 127
2, 103320, Note_off_c, 1, 40, 0
2, 103360, Note_on_c, 1, 35, 127
2, 103720, Note_off_c, 1, 35, 0
2, 103760, Note_on_c, 1, 35, 127
2, 104120, Note_off_c, 1, 35, 0
2, 104200, Note_on_c, 1, 35, 127
2, 104560, Note_off_c, 1, 35, 0
2, 104600, Note_on_c, 1, 47, 127
2, 104960, Note_off_c, 1, 47, 0
2, 105000, Note_on_c, 1, 47, 127
2, 105360, Note_off_c, 1, 47, 0
2, 105400, Note_on_c, 1, 53, 127
2, 105760, Note_off_c, 1, 53, 0
2, 105800, Note_on_c, 1, 47, 127
2, 106160, Note_off_c, 1, 47, 0
2, 106200, Note_on_c, 1, 40, 127
2, 106520, Note_off_c, 1, 40, 0
2, 106560, Note_on_c, 1, 40, 127
2, 106600, Note_off_c, 1, 40, 0
2, 106640, Note_on_c, 1, 47, 127
2, 107000, Note_off_c, 1, 47, 0
2, 107040, Note_on_c, 1, 52, 127
2, 107400, Note_off_c, 1, 52, 0
2, 107440, Note_on_c, 1, 53, 127
2, 107800, Note_off_c, 1, 53, 0
2, 107840, Note_on_c, 1, 57, 127
2, 108200, Note_off_c, 1, 57, 0
2, 108240, Note_on_c, 1, 49, 127
2, 108600, Note_off_c, 1, 49, 0
2, 108640, Note_on_c, 1, 55, 127
2, 109040, Note_off_c, 1, 55, 0
2, 109080, Note_on_c, 1, 55, 127
2, 109440, Note_off_c, 1, 55, 0
2, 109480, Note_on_c, 1, 57, 127
2, 109840, Note_off_c, 1, 57, 0
2, 109880, Note_on_c, 1, 56, 127
2, 110280, Note_off_c, 1, 56, 0
2, 110280, Note_on_c, 1, 57, 127
2, 110640, Note_off_c, 1, 57, 0
2, 110680, Note_on_c, 1, 52, 127
2, 111040, Note_off_c, 1, 52, 0
2, 111080, Note_on_c, 1, 57, 127
2, 111400, Note_off_c, 1, 57, 0
2, 111440, Note_on_c, 1, 57, 127
2, 111480, Note_off_c, 1, 57, 0
2, 111520, Note_on_c, 1, 52, 127
2, 111520, Note_on_c, 1, 64, 127
2, 112280, Note_off_c, 1, 52, 0
2, 112280, Note_off_c, 1, 64, 0
2, 112320, Note_on_c, 1, 61, 127
2, 112680, Note_off_c, 1, 61, 0
2, 112720, Note_on_c, 1, 57, 127
2, 113080, Note_off_c, 1, 57, 0
2, 113120, Note_on_c, 1, 59, 127
2, 113480, Note_off_c, 1, 59, 0
2, 113560, Note_on_c, 1, 52, 127
2, 113920, Note_off_c, 1, 52, 0
2, 113960, Note_on_c, 1, 45, 127
2, 114320, Note_off_c, 1, 45, 0
2, 114360, Note_on_c, 1, 45, 127
2, 114720, Note_off_c, 1, 45, 0
2, 114760, Note_on_c, 1, 45, 127
2, 115120, Note_off_c, 1, 45, 0
2, 115160, Note_on_c, 1, 52, 127
2, 115520, Note_off_c, 1, 52, 0
2, 115560, Note_on_c, 1, 59, 127
2, 115560, Note_on_c, 1, 69, 127
2, 115960, Note_off_c, 1, 59, 0
2, 115960, Note_off_c, 1, 69, 0
2, 116000, Note_on_c, 1, 59, 127
2, 116000, Note_on_c, 1, 69, 127
2, 116760, Note_off_c, 1, 59, 0
2, 116800, Note_on_c, 1, 52, 127
2, 116800, Note_on_c, 1, 60, 127
2, 116800, Note_off_c, 1, 69, 0
2, 116800, Note_on_c, 1, 71, 127
2, 117160, Note_off_c, 1, 52, 0
2, 117160, Note_off_c, 1, 60, 0
2, 117160, Note_off_c, 1, 71, 0
2, 117200, Note_on_c, 1, 66, 127
2, 117200, Note_on_c, 1, 69, 127
2, 117560, Note_off_c, 1, 66, 0
2, 117560, Note_off_c, 1, 69, 0
2, 117600, Note_on_c, 1, 48, 127
2, 117960, Note_off_c, 1, 48, 0
2, 118000, Note_on_c, 1, 52, 127
2, 118000, Note_on_c, 1, 69, 127
2, 118200, Note_off_c, 1, 52, 0
2, 118200, Note_off_c, 1, 69, 0
2, 118240, Note_on_c, 1, 52, 127
2, 118240, Note_on_c, 1, 69, 127
2, 118400, Note_off_c, 1, 69, 0
2, 118440, Note_on_c, 1, 62, 127
2, 118800, Note_off_c, 1, 52, 0
2, 118800, Note_off_c, 1, 62, 0
2, 118840, Note_on_c, 1, 49, 127
2, 118840, Note_on_c, 1, 61, 127
2, 119200, Note_off_c, 1, 49, 0
2, 119200, Note_off_c, 1, 61, 0
2, 119240, Note_on_c, 1, 45, 127
2, 119240, Note_on_c, 1, 62, 127
2, 119600, Note_off_c, 1, 45, 0
2, 119600, Note_off_c, 1, 62, 0
2, 119640, Note_on_c, 1, 48, 127
2, 120000, Note_off_c, 1, 48, 0
2, 120040, End_track
3, 0, Start_track
3, 0, Title_t, "MIDI"
3, 1536, End_track
0, 0, End_of_file
