0, 0, Header, 1, 3, 192
1, 0, Start_track
1, 0, Time_signature, 4, 2, 24, 8
1, 0, Tempo, 500000
1, 120040, End_track
2, 0, Start_track
2, 0, Text_t, "random instrument: random person i dunno whatev"
2, 0, Title_t, "Track 1"
2, 0, Note_on_c, 1, 58, 127
2, 0, Note_on_c, 1, 66, 127
2, 0, Note_on_c, 1, 78, 127
2, 0, Note_on_c, 1, 82, 127
2, 0, Note_on_c, 1, 90, 127
2, 520, Note_off_c, 1, 58, 0
2, 520, Note_off_c, 1, 66, 0
2, 520, Note_off_c, 1, 78, 0
2, 520, Note_off_c, 1, 82, 0
2, 520, Note_off_c, 1, 90, 0
2, 600, Note_on_c, 1, 37, 127
2, 600, Note_on_c, 1, 44, 127
2, 600, Note_on_c, 1, 68, 127
2, 600, Note_on_c, 1, 89, 127
2, 640, Note_off_c, 1, 44, 0
2, 640, Note_on_c, 1, 63, 127
2, 640, Note_on_c, 1, 73, 127
2, 640, Note_off_c, 1, 89, 0
2, 680, Note_off_c, 1, 37, 0
2, 680, Note_off_c, 1, 63, 0
2, 680, Note_off_c, 1, 68, 0
2, 680, Note_off_c, 1, 73, 0
2, 720, Note_on_c, 1, 45, 127
2, 720, Note_on_c, 1, 53, 127
2, 720, Note_on_c, 1, 62, 127
2, 720, Note_on_c, 1, 65, 127
2, 720, Note_on_c, 1, 70, 127
2, 2720, Note_off_c, 1, 45, 0
2, 2720, Note_off_c, 1, 53, 0
2, 2720, Note_off_c, 1, 62, 0
2, 2720, Note_off_c, 1, 65, 0
2, 2720, Note_off_c, 1, 70, 0
2, 2760, Note_on_c, 1, 45, 127
2, 2760, Note_on_c, 1, 53, 127
2, 2760, Note_on_c, 1, 62, 127
2, 2760, Note_on_c, 1, 65, 127
2, 2760, Note_on_c, 1, 70, 127
2, 4680, Note_off_c, 1, 45, 0
2, 4680, Note_off_c, 1, 53, 0
2, 4680, Note_off_c, 1, 62, 0
2, 4680, Note_off_c, 1, 65, 0
2, 4680, Note_off_c, 1, 70, 0
2, 4720, Note_on_c, 1, 45, 127
2, 4720, Note_on_c, 1, 53, 127
2, 4720, Note_on_c, 1, 62, 127
2, 4720, Note_on_c, 1, 65, 127
2, 4720, Note_on_c, 1, 70, 127
2, 6720, Note_off_c, 1, 45, 0
2, 6720, Note_off_c, 1, 53, 0
2, 6720, Note_off_c, 1, 62, 0
2, 6720, Note_off_c, 1, 65, 0
2, 6720, Note_off_c, 1, 70, 0
2, 18240, Note_on_c, 1, 40, 127
2, 18240, Note_on_c, 1, 52, 127
2, 18240, Note_on_c, 1, 64, 127
2, 18920, Note_off_c, 1, 40, 0
2, 18920, Note_off_c, 1, 52, 0
2, 18920, Note_off_c, 1, 64, 0
2, 18960, Note_on_c, 1, 38, 127
2, 18960, Note_on_c, 1, 50, 127
2, 18960, Note_on_c, 1, 62, 127
2, 21120, Note_off_c, 1, 38, 0
2, 21120, Note_off_c, 1, 50, 0
2, 21120, Note_off_c, 1, 62, 0
2, 21160, Note_on_c, 1, 38, 127
2, 21160, Note_on_c, 1, 50, 127
2, 21160, Note_on_c, 1, 62, 127
2, 23640, Note_off_c, 1, 38, 0
2, 23640, Note_off_c, 1, 50, 0
2, 23640, Note_off_c, 1, 62, 0
2, 23680, Note_on_c, 1, 38, 127
2, 23680, Note_on_c, 1, 50, 127
2, 23680, Note_on_c, 1, 62, 127
2, 26120, Note_off_c, 1, 38, 0
2, 26120, Note_off_c, 1, 50, 0
2, 26120, Note_off_c, 1, 62, 0
2, 26160, Note_on_c, 1, 38, 127
2, 26160, Note_on_c, 1, 50, 127
2, 26160, Note_on_c, 1, 62, 127
2, 27320, Note_off_c, 1, 38, 0
2, 27320, Note_off_c, 1, 50, 0
2, 27320, Note_off_c, 1, 62, 0
2, 27360, Note_on_c, 1, 38, 127
2, 27360, Note_on_c, 1, 50, 127
2, 27360, Note_on_c, 1, 69, 127
2, 28320, Note_off_c, 1, 38, 0
2, 28320, Note_off_c, 1, 50, 0
2, 28320, Note_off_c, 1, 69, 0
2, 28360, Note_on_c, 1, 38, 127
2, 28360, Note_on_c, 1, 50, 127
2, 28360, Note_on_c, 1, 69, 127
2, 30440, Note_off_c, 1, 38, 0
2, 30440, Note_off_c, 1, 50, 0
2, 30440, Note_off_c, 1, 69, 0
2, 30480, Note_on_c, 1, 38, 127
2, 30480, Note_on_c, 1, 50, 127
2, 30480, Note_on_c, 1, 69, 127
2, 32640, Note_off_c, 1, 38, 0
2, 32640, Note_off_c, 1, 50, 0
2, 32640, Note_off_c, 1, 69, 0
2, 32720, Note_on_c, 1, 57, 127
2, 32720, Note_on_c, 1, 69, 127
2, 34560, Note_off_c, 1, 57, 0
2, 34560, Note_off_c, 1, 69, 0
2, 34600, Note_on_c, 1, 57, 127
2, 34600, Note_on_c, 1, 69, 127
2, 34840, Note_off_c, 1, 57, 0
2, 34840, Note_off_c, 1, 69, 0
2, 34880, Note_on_c, 1, 57, 127
2, 34880, Note_on_c, 1, 69, 127
2, 35520, Note_off_c, 1, 57, 0
2, 35520, Note_off_c, 1, 69, 0
2, 35560, Note_on_c, 1, 57, 127
2, 35560, Note_on_c, 1, 69, 127
2, 36000, Note_off_c, 1, 57, 0
2, 36040, Note_on_c, 1, 57, 127
2, 36680, Note_off_c, 1, 57, 0
2, 36680, Note_off_c, 1, 69, 0
2, 36720, Note_on_c, 1, 54, 127
2, 36720, Note_on_c, 1, 66, 127
2, 36920, Note_off_c, 1, 54, 0
2, 36920, Note_off_c, 1, 66, 0
2, 37000, Note_on_c, 1, 57, 127
2, 37000, Note_on_c, 1, 69, 127
2, 37400, Note_off_c, 1, 57, 0
2, 37400, Note_off_c, 1, 69, 0
2, 37440, Note_on_c, 1, 54, 127
2, 37440, Note_on_c, 1, 66, 127
2, 39560, Note_off_c, 1, 54, 0
2, 39560, Note_off_c, 1, 66, 0
2, 39600, Note_on_c, 1, 54, 127
2, 39600, Note_on_c, 1, 66, 127
2, 41720, Note_off_c, 1, 54, 0
2, 41720, Note_off_c, 1, 66, 0
2, 41760, Note_on_c, 1, 54, 127
2, 41760, Note_on_c, 1, 66, 127
2, 44160, Note_off_c, 1, 54, 0
2, 44160, Note_off_c, 1, 66, 0
2, 44200, Note_on_c, 1, 54, 127
2, 44200, Note_on_c, 1, 66, 127
2, 46360, Note_off_c, 1, 54, 0
2, 46360, Note_off_c, 1, 66, 0
2, 46440, Note_on_c, 1, 54, 127
2, 46440, Note_on_c, 1, 66, 127
2, 48640, Note_off_c, 1, 54, 0
2, 48640, Note_off_c, 1, 66, 0
2, 48680, Note_on_c, 1, 54, 127
2, 48680, Note_on_c, 1, 66, 127
2, 50640, Note_off_c, 1, 54, 0
2, 50640, Note_off_c, 1, 66, 0
2, 50720, Note_on_c, 1, 56, 127
2, 50720, Note_on_c, 1, 68, 127
2, 51880, Note_off_c, 1, 56, 0
2, 51880, Note_off_c, 1, 68, 0
2, 51920, Note_on_c, 1, 54, 127
2, 51920, Note_on_c, 1, 66, 127
2, 52480, Note_off_c, 1, 54, 0
2, 52480, Note_off_c, 1, 66, 0
2, 52520, Note_on_c, 1, 54, 127
2, 52520, Note_on_c, 1, 66, 127
2, 52920, Note_off_c, 1, 54, 0
2, 52920, Note_off_c, 1, 66, 0
2, 52960, Note_on_c, 1, 54, 127
2, 52960, Note_on_c, 1, 66, 127
2, 53120, Note_off_c, 1, 54, 0
2, 53120, Note_off_c, 1, 66, 0
2, 53160, Note_on_c, 1, 54, 127
2, 53160, Note_on_c, 1, 66, 127
2, 54320, Note_off_c, 1, 54, 0
2, 54320, Note_off_c, 1, 66, 0
2, 54360, Note_on_c, 1, 32, 127
2, 54360, Note_on_c, 1, 75, 127
2, 54960, Note_off_c, 1, 32, 0
2, 54960, Note_off_c, 1, 75, 0
2, 55000, Note_on_c, 1, 32, 127
2, 55000, Note_on_c, 1, 75, 127
2, 57200, Note_off_c, 1, 32, 0
2, 57200, Note_off_c, 1, 75, 0
2, 57240, Note_on_c, 1, 32, 127
2, 57240, Note_on_c, 1, 75, 127
2, 59560, Note_off_c, 1, 32, 0
2, 59560, Note_off_c, 1, 75, 0
2, 59600, Note_on_c, 1, 32, 127
2, 59600, Note_on_c, 1, 75, 127
2, 62000, Note_off_c, 1, 32, 0
2, 62000, Note_off_c, 1, 75, 0
2, 62040, Note_on_c, 1, 32, 127
2, 62040, Note_on_c, 1, 75, 127
2, 64400, Note_off_c, 1, 32, 0
2, 64400, Note_off_c, 1, 75, 0
2, 64440, Note_on_c, 1, 32, 127
2, 64440, Note_on_c, 1, 75, 127
2, 66640, Note_off_c, 1, 32, 0
2, 66640, Note_off_c, 1, 75, 0
2, 66680, Note_on_c, 1, 32, 127
2, 66680, Note_on_c, 1, 75, 127
2, 68960, Note_off_c, 1, 32, 0
2, 68960, Note_off_c, 1, 75, 0
2, 69000, Note_on_c, 1, 32, 127
2, 69000, Note_on_c, 1, 75, 127
2, 70760, Note_on_c, 1, 71, 127
2, 70760, Note_off_c, 1, 75, 0
2, 70800, Note_off_c, 1, 71, 0
2, 70800, Note_on_c, 1, 75, 127
2, 71200, Note_off_c, 1, 32, 0
2, 71200, Note_off_c, 1, 75, 0
2, 71240, Note_on_c, 1, 32, 127
2, 71240, Note_on_c, 1, 75, 127
2, 73640, Note_off_c, 1, 32, 0
2, 73640, Note_off_c, 1, 75, 0
2, 73680, Note_on_c, 1, 32, 127
2, 73680, Note_on_c, 1, 75, 127
2, 76120, Note_off_c, 1, 32, 0
2, 76120, Note_off_c, 1, 75, 0
2, 76160, Note_on_c, 1, 32, 127
2, 76160, Note_on_c, 1, 75, 127
2, 78440, Note_off_c, 1, 32, 0
2, 78440, Note_off_c, 1, 75, 0
2, 78480, Note_on_c, 1, 32, 127
2, 78480, Note_on_c, 1, 75, 127
2, 80720, Note_off_c, 1, 32, 0
2, 80720, Note_off_c, 1, 75, 0
2, 80760, Note_on_c, 1, 32, 127
2, 80760, Note_on_c, 1, 75, 127
2, 83240, Note_off_c, 1, 32, 0
2, 83240, Note_off_c, 1, 75, 0
2, 83280, Note_on_c, 1, 32, 127
2, 83280, Note_on_c, 1, 75, 127
2, 85960, Note_off_c, 1, 32, 0
2, 85960, Note_off_c, 1, 75, 0
2, 86000, Note_on_c, 1, 32, 127
2, 86000, Note_on_c, 1, 75, 127
2, 88240, Note_off_c, 1, 32, 0
2, 88240, Note_off_c, 1, 75, 0
2, 88280, Note_on_c, 1, 32, 127
2, 88280, Note_on_c, 1, 75, 127
2, 90760, Note_off_c, 1, 32, 0
2, 90760, Note_off_c, 1, 75, 0
2, 90800, Note_on_c, 1, 32, 127
2, 90800, Note_on_c, 1, 75, 127
2, 93200, Note_off_c, 1, 32, 0
2, 93200, Note_off_c, 1, 75, 0
2, 93240, Note_on_c, 1, 32, 127
2, 93240, Note_on_c, 1, 75, 127
2, 95560, Note_off_c, 1, 32, 0
2, 95560, Note_off_c, 1, 75, 0
2, 95600, Note_on_c, 1, 32, 127
2, 95600, Note_on_c, 1, 75, 127
2, 97640, Note_off_c, 1, 32, 0
2, 97640, Note_off_c, 1, 75, 0
2, 97680, Note_on_c, 1, 32, 127
2, 97680, Note_on_c, 1, 75, 127
2, 99920, Note_off_c, 1, 32, 0
2, 99920, Note_off_c, 1, 75, 0
2, 99960, Note_on_c, 1, 32, 127
2, 99960, Note_on_c, 1, 75, 127
2, 102600, Note_off_c, 1, 32, 0
2, 102600, Note_off_c, 1, 75, 0
2, 102640, Note_on_c, 1, 32, 127
2, 102640, Note_on_c, 1, 75, 127
2, 105320, Note_off_c, 1, 32, 0
2, 105320, Note_off_c, 1, 75, 0
2, 105360, Note_on_c, 1, 32, 127
2, 105360, Note_on_c, 1, 75, 127
2, 107840, Note_off_c, 1, 32, 0
2, 107840, Note_off_c, 1, 75, 0
2, 107880, Note_on_c, 1, 32, 127
2, 107880, Note_on_c, 1, 75, 127
2, 110280, Note_off_c, 1, 32, 0
2, 110280, Note_off_c, 1, 75, 0
2, 110320, Note_on_c, 1, 32, 127
2, 110320, Note_on_c, 1, 75, 127
2, 112600, Note_off_c, 1, 32, 0
2, 112600, Note_off_c, 1, 75, 0
2, 112640, Note_on_c, 1, 32, 127
2, 112640, Note_on_c, 1, 75, 127
2, 114720, Note_off_c, 1, 32, 0
2, 114720, Note_off_c, 1, 75, 0
2, 114760, Note_on_c, 1, 32, 127
2, 114760, Note_on_c, 1, 75, 127
2, 116960, Note_off_c, 1, 32, 0
2, 116960, Note_off_c, 1, 75, 0
2, 117000, Note_on_c, 1, 32, 127
2, 117000, Note_on_c, 1, 75, 127
2, 119080, Note_off_c, 1, 32, 0
2, 119080, Note_off_c, 1, 75, 0
2, 119120, Note_on_c, 1, 32, 127
2, 119120, Note_on_c, 1, 75, 127
2, 120000, Note_off_c, 1, 32, 0
2, 120000, Note_off_c, 1, 75, 0
2, 120040, End_track
3, 0, Start_track
3, 0, Title_t, "MIDI"
3, 1536, End_track
0, 0, End_of_file
