0, 0, Header, 1, 3, 192
1, 0, Start_track
1, 0, Time_signature, 4, 2, 24, 8
1, 0, Tempo, 500000
1, 120040, End_track
2, 0, Start_track
2, 0, Text_t, "random instrument: random person i dunno whatev"
2, 0, Title_t, "Track 1"
2, 0, Note_on_c, 1, 34, 127
2, 0, Note_on_c, 1, 53, 127
2, 0, Note_on_c, 1, 56, 127
2, 0, Note_on_c, 1, 62, 127
2, 40, Note_off_c, 1, 34, 0
2, 40, Note_off_c, 1, 53, 0
2, 40, Note_off_c, 1, 56, 0
2, 40, Note_off_c, 1, 62, 0
2, 40, Note_on_c, 1, 67, 127
2, 40, Note_on_c, 1, 76, 127
2, 40, Note_on_c, 1, 79, 127
2, 40, Note_on_c, 1, 85, 127
2, 40, Note_on_c, 1, 88, 127
2, 80, Note_off_c, 1, 67, 0
2, 80, Note_off_c, 1, 76, 0
2, 80, Note_off_c, 1, 79, 0
2, 80, Note_off_c, 1, 85, 0
2, 80, Note_off_c, 1, 88, 0
2, 120, Note_on_c, 1, 34, 127
2, 120, Note_on_c, 1, 53, 127
2, 120, Note_on_c, 1, 56, 127
2, 120, Note_on_c, 1, 62, 127
2, 160, Note_off_c, 1, 34, 0
2, 160, Note_on_c, 1, 43, 127
2, 160, Note_on_c, 1, 47, 127
2, 160, Note_off_c, 1, 53, 0
2, 160, Note_on_c, 1, 55, 127
2, 160, Note_off_c, 1, 56, 0
2, 160, Note_off_c, 1, 62, 0
2, 160, Note_on_c, 1, 79, 127
2, 160, Note_on_c, 1, 83, 127
2, 160, Note_on_c, 1, 87, 127
2, 160, Note_on_c, 1, 91, 127
2, 200, Note_on_c, 1, 34, 127
2, 200, Note_off_c, 1, 43, 0
2, 200, Note_off_c, 1, 47, 0
2, 200, Note_on_c, 1, 53, 127
2, 200, Note_off_c, 1, 55, 0
2, 200, Note_on_c, 1, 56, 127
2, 200, Note_on_c, 1, 62, 127
2, 200, Note_off_c, 1, 79, 0
2, 200, Note_off_c, 1, 83, 0
2, 200, Note_off_c, 1, 87, 0
2, 200, Note_off_c, 1, 91, 0
2, 680, Note_off_c, 1, 34, 0
2, 680, Note_off_c, 1, 53, 0
2, 680, Note_off_c, 1, 56, 0
2, 680, Note_off_c, 1, 62, 0
2, 5240, Note_on_c, 1, 43, 127
2, 5240, Note_on_c, 1, 50, 127
2, 5240, Note_on_c, 1, 60, 127
2, 5240, Note_on_c, 1, 62, 127
2, 5240, Note_on_c, 1, 69, 127
2, 5600, Note_off_c, 1, 43, 0
2, 5600, Note_off_c, 1, 50, 0
2, 5600, Note_off_c, 1, 60, 0
2, 5600, Note_off_c, 1, 62, 0
2, 5600, Note_off_c, 1, 69, 0
2, 5640, Note_on_c, 1, 40, 127
2, 5640, Note_on_c, 1, 52, 127
2, 5640, Note_on_c, 1, 55, 127
2, 5640, Note_on_c, 1, 64, 127
2, 6040, Note_off_c, 1, 40, 0
2, 6040, Note_off_c, 1, 52, 0
2, 6040, Note_off_c, 1, 55, 0
2, 6040, Note_off_c, 1, 64, 0
2, 7560, Note_on_c, 1, 51, 127
2, 7560, Note_on_c, 1, 54, 127
2, 7560, Note_on_c, 1, 59, 127
2, 7880, Note_off_c, 1, 51, 0
2, 7880, Note_off_c, 1, 54, 0
2, 7880, Note_off_c, 1, 59, 0
2, 7920, Note_on_c, 1, 51, 127
2, 7920, Note_on_c, 1, 54, 127
2, 7920, Note_on_c, 1, 59, 127
2, 8360, Note_off_c, 1, 51, 0
2, 8360, Note_off_c, 1, 54, 0
2, 8360, Note_off_c, 1, 59, 0
2, 10640, Note_on_c, 1, 58, 127
2, 10720, Note_off_c, 1, 58, 0
2, 10760, Note_on_c, 1, 55, 127
2, 10800, Note_off_c, 1, 55, 0
2, 10800, Note_on_c, 1, 58, 127
2, 10840, Note_off_c, 1, 58, 0
2, 10880, Note_on_c, 1, 58, 127
2, 11040, Note_off_c, 1, 58, 0
2, 11080, Note_on_c, 1, 53, 127
2, 11440, Note_off_c, 1, 53, 0
2, 11480, Note_on_c, 1, 46, 127
2, 11840, Note_off_c, 1, 46, 0
2, 11880, Note_on_c, 1, 46, 127
2, 12240, Note_off_c, 1, 46, 0
2, 12280, Note_on_c, 1, 53, 127
2, 12640, Note_off_c, 1, 53, 0
2, 12680, Note_on_c, 1, 46, 127
2, 12840, Note_off_c, 1, 46, 0
2, 12880, Note_on_c, 1, 46, 127
2, 13080, Note_off_c, 1, 46, 0
2, 13120, Note_on_c, 1, 46, 127
2, 13480, Note_off_c, 1, 46, 0
2, 13520, Note_on_c, 1, 46, 127
2, 13840, Note_off_c, 1, 46, 0
2, 13920, Note_on_c, 1, 46, 127
2, 14280, Note_off_c, 1, 46, 0
2, 14320, Note_on_c, 1, 46, 127
2, 14680, Note_off_c, 1, 46, 0
2, 14720, Note_on_c, 1, 51, 127
2, 14920, Note_off_c, 1, 51, 0
2, 14960, Note_on_c, 1, 51, 127
2, 15080, Note_off_c, 1, 51, 0
2, 15120, Note_on_c, 1, 49, 127
2, 15480, Note_off_c, 1, 49, 0
2, 15520, Note_on_c, 1, 46, 127
2, 15840, Note_off_c, 1, 46, 0
2, 15920, Note_on_c, 1, 51, 127
2, 16240, Note_off_c, 1, 51, 0
2, 16320, Note_on_c, 1, 58, 127
2, 16640, Note_off_c, 1, 58, 0
2, 16680, Note_on_c, 1, 53, 127
2, 16960, Note_off_c, 1, 53, 0
2, 17000, Note_on_c, 1, 53, 127
2, 17080, Note_off_c, 1, 53, 0
2, 17120, Note_on_c, 1, 51, 127
2, 17440, Note_off_c, 1, 51, 0
2, 17480, Note_on_c, 1, 46, 127
2, 17840, Note_off_c, 1, 46, 0
2, 17880, Note_on_c, 1, 53, 127
2, 18240, Note_off_c, 1, 53, 0
2, 18280, Note_on_c, 1, 46, 127
2, 18600, Note_off_c, 1, 46, 0
2, 18640, Note_on_c, 1, 39, 127
2, 19000, Note_off_c, 1, 39, 0
2, 19080, Note_on_c, 1, 46, 127
2, 19440, Note_off_c, 1, 46, 0
2, 19480, Note_on_c, 1, 51, 127
2, 19840, Note_off_c, 1, 51, 0
2, 19880, Note_on_c, 1, 53, 127
2, 20240, Note_off_c, 1, 53, 0
2, 20280, Note_on_c, 1, 51, 127
2, 20640, Note_off_c, 1, 51, 0
2, 20680, Note_on_c, 1, 46, 127
2, 21000, Note_off_c, 1, 46, 0
2, 21120, Note_on_c, 1, 51, 127
2, 21120, Note_on_c, 1, 58, 127
2, 21120, Note_on_c, 1, 63, 127
2, 21120, Note_on_c, 1, 67, 127
2, 21120, Note_on_c, 1, 70, 127
2, 21880, Note_off_c, 1, 51, 0
2, 21880, Note_off_c, 1, 58, 0
2, 21880, Note_off_c, 1, 63, 0
2, 21880, Note_off_c, 1, 67, 0
2, 21880, Note_off_c, 1, 70, 0
2, 21920, Note_on_c, 1, 51, 127
2, 21920, Note_on_c, 1, 58, 127
2, 21920, Note_on_c, 1, 63, 127
2, 21920, Note_on_c, 1, 67, 127
2, 21920, Note_on_c, 1, 70, 127
2, 21920, Note_on_c, 1, 75, 127
2, 23080, Note_off_c, 1, 51, 0
2, 23080, Note_off_c, 1, 58, 0
2, 23080, Note_off_c, 1, 63, 0
2, 23080, Note_off_c, 1, 67, 0
2, 23080, Note_off_c, 1, 70, 0
2, 23080, Note_off_c, 1, 75, 0
2, 24480, Note_on_c, 1, 54, 127
2, 24480, Note_on_c, 1, 61, 127
2, 24480, Note_on_c, 1, 64, 127
2, 24480, Note_on_c, 1, 70, 127
2, 24480, Note_on_c, 1, 76, 127
2, 24640, Note_off_c, 1, 76, 0
2, 24680, Note_on_c, 1, 76, 127
2, 24720, Note_off_c, 1, 76, 0
2, 24920, Note_off_c, 1, 70, 0
2, 24920, Note_on_c, 1, 71, 127
2, 25000, Note_on_c, 1, 70, 127
2, 25000, Note_off_c, 1, 71, 0
2, 25040, Note_off_c, 1, 54, 0
2, 25040, Note_on_c, 1, 59, 127
2, 25040, Note_off_c, 1, 61, 0
2, 25040, Note_off_c, 1, 64, 0
2, 25040, Note_off_c, 1, 70, 0
2, 25040, Note_on_c, 1, 71, 127
2, 25080, Note_on_c, 1, 54, 127
2, 25080, Note_off_c, 1, 59, 0
2, 25080, Note_on_c, 1, 61, 127
2, 25080, Note_on_c, 1, 64, 127
2, 25080, Note_on_c, 1, 70, 127
2, 25080, Note_off_c, 1, 71, 0
2, 25240, Note_off_c, 1, 70, 0
2, 25280, Note_on_c, 1, 73, 127
2, 25440, Note_off_c, 1, 73, 0
2, 25480, Note_on_c, 1, 66, 127
2, 25840, Note_off_c, 1, 54, 0
2, 25840, Note_off_c, 1, 61, 0
2, 25840, Note_off_c, 1, 64, 0
2, 25840, Note_off_c, 1, 66, 0
2, 25880, Note_on_c, 1, 47, 127
2, 25880, Note_on_c, 1, 59, 127
2, 25880, Note_on_c, 1, 63, 127
2, 25880, Note_on_c, 1, 71, 127
2, 25960, Note_off_c, 1, 47, 0
2, 25960, Note_off_c, 1, 59, 0
2, 25960, Note_off_c, 1, 63, 0
2, 25960, Note_off_c, 1, 71, 0
2, 26000, Note_on_c, 1, 47, 127
2, 26000, Note_on_c, 1, 59, 127
2, 26000, Note_on_c, 1, 63, 127
2, 26000, Note_on_c, 1, 71, 127
2, 26640, Note_off_c, 1, 47, 0
2, 26640, Note_off_c, 1, 59, 0
2, 26640, Note_off_c, 1, 63, 0
2, 26640, Note_off_c, 1, 71, 0
2, 26720, Note_on_c, 1, 47, 127
2, 26720, Note_on_c, 1, 54, 127
2, 26720, Note_on_c, 1, 59, 127
2, 26720, Note_on_c, 1, 63, 127
2, 27680, Note_off_c, 1, 47, 0
2, 27680, Note_off_c, 1, 54, 0
2, 27680, Note_off_c, 1, 59, 0
2, 27680, Note_off_c, 1, 63, 0
2, 28720, Note_on_c, 1, 58, 127
2, 28800, Note_off_c, 1, 58, 0
2, 28840, Note_on_c, 1, 59, 127
2, 28880, Note_off_c, 1, 59, 0
2, 28920, Note_on_c, 1, 58, 127
2, 28960, Note_on_c, 1, 56, 127
2, 28960, Note_off_c, 1, 58, 0
2, 29000, Note_off_c, 1, 56, 0
2, 29040, Note_on_c, 1, 56, 127
2, 29080, Note_off_c, 1, 56, 0
2, 29120, Note_on_c, 1, 53, 127
2, 29200, Note_off_c, 1, 53, 0
2, 29240, Note_on_c, 1, 51, 127
2, 29280, Note_off_c, 1, 51, 0
2, 29320, Note_on_c, 1, 56, 127
2, 29400, Note_off_c, 1, 56, 0
2, 29440, Note_on_c, 1, 51, 127
2, 29480, Note_off_c, 1, 51, 0
2, 29520, Note_on_c, 1, 56, 127
2, 29600, Note_off_c, 1, 56, 0
2, 29640, Note_on_c, 1, 55, 127
2, 29680, Note_off_c, 1, 55, 0
2, 29720, Note_on_c, 1, 56, 127
2, 29800, Note_off_c, 1, 56, 0
2, 29840, Note_on_c, 1, 54, 127
2, 29880, Note_off_c, 1, 54, 0
2, 29920, Note_on_c, 1, 58, 127
2, 30000, Note_off_c, 1, 58, 0
2, 30040, Note_on_c, 1, 56, 127
2, 30080, Note_off_c, 1, 56, 0
2, 30120, Note_on_c, 1, 57, 127
2, 30200, Note_off_c, 1, 57, 0
2, 30240, Note_on_c, 1, 56, 127
2, 30280, Note_off_c, 1, 56, 0
2, 30320, Note_on_c, 1, 58, 127
2, 30400, Note_off_c, 1, 58, 0
2, 30480, Note_on_c, 1, 56, 127
2, 30520, Note_off_c, 1, 56, 0
2, 30560, Note_on_c, 1, 58, 127
2, 30640, Note_off_c, 1, 58, 0
2, 30680, Note_on_c, 1, 56, 127
2, 30720, Note_off_c, 1, 56, 0
2, 30760, Note_on_c, 1, 53, 127
2, 30840, Note_off_c, 1, 53, 0
2, 30880, Note_on_c, 1, 51, 127
2, 30920, Note_off_c, 1, 51, 0
2, 30960, Note_on_c, 1, 50, 127
2, 31320, Note_off_c, 1, 50, 0
2, 31360, Note_on_c, 1, 51, 127
2, 31520, Note_off_c, 1, 51, 0
2, 31560, Note_on_c, 1, 58, 127
2, 31720, Note_off_c, 1, 58, 0
2, 31760, Note_on_c, 1, 53, 127
2, 31920, Note_off_c, 1, 53, 0
2, 31960, Note_on_c, 1, 54, 127
2, 32120, Note_off_c, 1, 54, 0
2, 32160, Note_on_c, 1, 53, 127
2, 32320, Note_off_c, 1, 53, 0
2, 32360, Note_on_c, 1, 58, 127
2, 32520, Note_off_c, 1, 58, 0
2, 32600, Note_on_c, 1, 62, 127
2, 32760, Note_off_c, 1, 62, 0
2, 32800, Note_on_c, 1, 65, 127
2, 32880, Note_off_c, 1, 65, 0
2, 32880, Note_on_c, 1, 66, 127
2, 32920, Note_on_c, 1, 65, 127
2, 32920, Note_off_c, 1, 66, 0
2, 33000, Note_off_c, 1, 65, 0
2, 33000, Note_on_c, 1, 66, 127
2, 33360, Note_off_c, 1, 66, 0
2, 33400, Note_on_c, 1, 70, 127
2, 33760, Note_off_c, 1, 70, 0
2, 33800, Note_on_c, 1, 69, 127
2, 33960, Note_off_c, 1, 69, 0
2, 34000, Note_on_c, 1, 66, 127
2, 34160, Note_off_c, 1, 66, 0
2, 34200, Note_on_c, 1, 70, 127
2, 34360, Note_off_c, 1, 70, 0
2, 34400, Note_on_c, 1, 70, 127
2, 34560, Note_off_c, 1, 70, 0
2, 34640, Note_on_c, 1, 71, 127
2, 34800, Note_off_c, 1, 71, 0
2, 34840, Note_on_c, 1, 45, 127
2, 34840, Note_on_c, 1, 57, 127
2, 34840, Note_on_c, 1, 73, 127
2, 34840, Note_on_c, 1, 79, 127
2, 35520, Note_on_c, 1, 67, 127
2, 35600, Note_off_c, 1, 67, 0
2, 35640, Note_off_c, 1, 45, 0
2, 35640, Note_off_c, 1, 57, 0
2, 35640, Note_on_c, 1, 59, 127
2, 35640, Note_off_c, 1, 73, 0
2, 35640, Note_off_c, 1, 79, 0
2, 35680, Note_on_c, 1, 43, 127
2, 35680, Note_on_c, 1, 58, 127
2, 35680, Note_off_c, 1, 59, 0
2, 35840, Note_off_c, 1, 43, 0
2, 36240, Note_off_c, 1, 58, 0
2, 36280, Note_on_c, 1, 55, 127
2, 36440, Note_off_c, 1, 55, 0
2, 36480, Note_on_c, 1, 54, 127
2, 36680, Note_off_c, 1, 54, 0
2, 36720, Note_on_c, 1, 54, 127
2, 36880, Note_off_c, 1, 54, 0
2, 36920, Note_on_c, 1, 65, 127
2, 37120, Note_off_c, 1, 65, 0
2, 37160, Note_on_c, 1, 66, 127
2, 37400, Note_off_c, 1, 66, 0
2, 37440, Note_on_c, 1, 66, 127
2, 37520, Note_off_c, 1, 66, 0
2, 37560, Note_on_c, 1, 66, 127
2, 37720, Note_off_c, 1, 66, 0
2, 37760, Note_on_c, 1, 70, 127
2, 37920, Note_off_c, 1, 70, 0
2, 37960, Note_on_c, 1, 51, 127
2, 37960, Note_on_c, 1, 66, 127
2, 38120, Note_off_c, 1, 66, 0
2, 38160, Note_on_c, 1, 67, 127
2, 38320, Note_off_c, 1, 51, 0
2, 38320, Note_off_c, 1, 67, 0
2, 38360, Note_on_c, 1, 44, 127
2, 38360, Note_on_c, 1, 59, 127
2, 38360, Note_on_c, 1, 68, 127
2, 38760, Note_off_c, 1, 44, 0
2, 38760, Note_off_c, 1, 59, 0
2, 38760, Note_off_c, 1, 68, 0
2, 38800, Note_on_c, 1, 44, 127
2, 38800, Note_on_c, 1, 59, 127
2, 38800, Note_on_c, 1, 68, 127
2, 39160, Note_off_c, 1, 59, 0
2, 39160, Note_off_c, 1, 68, 0
2, 39200, Note_on_c, 1, 59, 127
2, 39200, Note_on_c, 1, 71, 127
2, 39560, Note_off_c, 1, 59, 0
2, 39560, Note_off_c, 1, 71, 0
2, 39600, Note_off_c, 1, 44, 0
2, 39600, Note_on_c, 1, 47, 127
2, 39600, Note_on_c, 1, 63, 127
2, 39600, Note_on_c, 1, 68, 127
2, 40360, Note_off_c, 1, 47, 0
2, 40360, Note_off_c, 1, 68, 0
2, 40400, Note_on_c, 1, 48, 127
2, 40400, Note_on_c, 1, 69, 127
2, 40960, Note_off_c, 1, 48, 0
2, 40960, Note_off_c, 1, 63, 0
2, 40960, Note_off_c, 1, 69, 0
2, 41000, Note_on_c, 1, 48, 127
2, 41000, Note_on_c, 1, 63, 127
2, 41000, Note_on_c, 1, 69, 127
2, 41200, Note_off_c, 1, 48, 0
2, 41200, Note_off_c, 1, 63, 0
2, 41200, Note_off_c, 1, 69, 0
2, 41240, Note_on_c, 1, 47, 127
2, 41240, Note_on_c, 1, 65, 127
2, 41240, Note_on_c, 1, 74, 127
2, 41600, Note_off_c, 1, 65, 0
2, 41600, Note_off_c, 1, 74, 0
2, 41640, Note_on_c, 1, 66, 127
2, 41640, Note_on_c, 1, 73, 127
2, 42000, Note_off_c, 1, 47, 0
2, 42040, Note_on_c, 1, 47, 127
2, 42400, Note_off_c, 1, 47, 0
2, 42400, Note_off_c, 1, 73, 0
2, 42440, Note_on_c, 1, 57, 127
2, 42440, Note_on_c, 1, 73, 127
2, 42800, Note_off_c, 1, 57, 0
2, 42800, Note_off_c, 1, 73, 0
2, 42840, Note_off_c, 1, 66, 0
2, 42880, Note_on_c, 1, 57, 127
2, 42880, Note_on_c, 1, 66, 127
2, 42880, Note_on_c, 1, 73, 127
2, 43240, Note_off_c, 1, 57, 0
2, 43240, Note_off_c, 1, 73, 0
2, 43280, Note_on_c, 1, 44, 127
2, 43280, Note_on_c, 1, 63, 127
2, 43280, Note_off_c, 1, 66, 0
2, 43280, Note_on_c, 1, 75, 127
2, 43640, Note_off_c, 1, 44, 0
2, 43640, Note_off_c, 1, 63, 0
2, 43640, Note_off_c, 1, 75, 0
2, 43680, Note_on_c, 1, 56, 127
2, 43680, Note_on_c, 1, 64, 127
2, 43680, Note_on_c, 1, 71, 127
2, 44040, Note_off_c, 1, 64, 0
2, 44080, Note_on_c, 1, 64, 127
2, 44440, Note_off_c, 1, 56, 0
2, 44440, Note_off_c, 1, 71, 0
2, 44480, Note_on_c, 1, 59, 127
2, 44480, Note_on_c, 1, 74, 127
2, 44800, Note_off_c, 1, 59, 0
2, 44800, Note_off_c, 1, 74, 0
2, 44880, Note_off_c, 1, 64, 0
2, 44920, Note_on_c, 1, 64, 127
2, 44920, Note_on_c, 1, 68, 127
2, 44920, Note_on_c, 1, 73, 127
2, 45320, Note_off_c, 1, 68, 0
2, 45320, Note_on_c, 1, 71, 127
2, 45320, Note_off_c, 1, 73, 0
2, 45320, Note_on_c, 1, 75, 127
2, 45560, Note_off_c, 1, 75, 0
2, 45600, Note_on_c, 1, 69, 127
2, 45600, Note_off_c, 1, 71, 0
2, 45600, Note_on_c, 1, 75, 127
2, 45680, Note_off_c, 1, 64, 0
2, 45680, Note_off_c, 1, 69, 0
2, 45680, Note_off_c, 1, 75, 0
2, 45720, Note_on_c, 1, 63, 127
2, 45720, Note_on_c, 1, 71, 127
2, 45720, Note_on_c, 1, 78, 127
2, 46080, Note_off_c, 1, 63, 0
2, 46120, Note_on_c, 1, 54, 127
2, 46120, Note_on_c, 1, 66, 127
2, 46120, Note_on_c, 1, 67, 127
2, 46120, Note_off_c, 1, 71, 0
2, 46120, Note_on_c, 1, 76, 127
2, 46120, Note_off_c, 1, 78, 0
2, 46480, Note_off_c, 1, 54, 0
2, 46480, Note_off_c, 1, 67, 0
2, 46480, Note_off_c, 1, 76, 0
2, 46520, Note_on_c, 1, 54, 127
2, 46520, Note_on_c, 1, 71, 127
2, 46520, Note_on_c, 1, 76, 127
2, 46680, Note_off_c, 1, 76, 0
2, 46720, Note_on_c, 1, 76, 127
2, 46880, Note_off_c, 1, 76, 0
2, 46920, Note_off_c, 1, 54, 0
2, 46920, Note_off_c, 1, 66, 0
2, 46920, Note_off_c, 1, 71, 0
2, 46960, Note_on_c, 1, 44, 127
2, 46960, Note_on_c, 1, 49, 127
2, 46960, Note_on_c, 1, 65, 127
2, 46960, Note_on_c, 1, 71, 127
2, 46960, Note_on_c, 1, 77, 127
2, 47320, Note_on_c, 1, 42, 127
2, 47320, Note_off_c, 1, 44, 0
2, 47320, Note_off_c, 1, 49, 0
2, 47320, Note_off_c, 1, 65, 0
2, 47320, Note_on_c, 1, 75, 127
2, 47320, Note_off_c, 1, 77, 0
2, 47360, Note_off_c, 1, 42, 0
2, 47360, Note_on_c, 1, 66, 127
2, 47360, Note_off_c, 1, 71, 0
2, 47360, Note_on_c, 1, 72, 127
2, 47360, Note_off_c, 1, 75, 0
2, 47360, Note_on_c, 1, 83, 127
2, 47720, Note_on_c, 1, 69, 127
2, 47720, Note_off_c, 1, 72, 0
2, 47720, Note_off_c, 1, 83, 0
2, 47760, Note_on_c, 1, 47, 127
2, 47760, Note_off_c, 1, 66, 0
2, 47760, Note_off_c, 1, 69, 0
2, 47760, Note_on_c, 1, 78, 127
2, 47760, Note_on_c, 1, 83, 127
2, 47920, Note_off_c, 1, 47, 0
2, 47960, Note_on_c, 1, 71, 127
2, 47960, Note_off_c, 1, 78, 0
2, 47960, Note_on_c, 1, 85, 127
2, 48000, Note_off_c, 1, 85, 0
2, 48120, Note_off_c, 1, 71, 0
2, 48120, Note_off_c, 1, 83, 0
2, 48160, Note_on_c, 1, 66, 127
2, 48920, Note_off_c, 1, 66, 0
2, 49000, Note_on_c, 1, 41, 127
2, 49000, Note_on_c, 1, 60, 127
2, 49000, Note_on_c, 1, 65, 127
2, 49000, Note_on_c, 1, 68, 127
2, 49360, Note_off_c, 1, 41, 0
2, 49400, Note_on_c, 1, 41, 127
2, 49400, Note_on_c, 1, 53, 127
2, 49400, Note_off_c, 1, 68, 0
2, 49760, Note_off_c, 1, 41, 0
2, 49760, Note_off_c, 1, 60, 0
2, 49800, Note_on_c, 1, 41, 127
2, 49960, Note_off_c, 1, 65, 0
2, 50200, Note_on_c, 1, 65, 127
2, 50960, Note_off_c, 1, 65, 0
2, 51000, Note_off_c, 1, 41, 0
2, 51000, Note_off_c, 1, 53, 0
2, 51040, Note_on_c, 1, 41, 127
2, 51040, Note_on_c, 1, 53, 127
2, 51040, Note_on_c, 1, 57, 127
2, 51280, Note_off_c, 1, 57, 0
2, 51440, Note_on_c, 1, 60, 127
2, 51640, Note_off_c, 1, 60, 0
2, 51680, Note_on_c, 1, 60, 127
2, 51800, Note_off_c, 1, 60, 0
2, 51840, Note_on_c, 1, 60, 127
2, 52200, Note_off_c, 1, 60, 0
2, 52240, Note_on_c, 1, 60, 127
2, 52480, Note_off_c, 1, 60, 0
2, 52640, Note_on_c, 1, 48, 127
2, 52640, Note_on_c, 1, 57, 127
2, 52640, Note_on_c, 1, 65, 127
2, 53000, Note_off_c, 1, 41, 0
2, 53000, Note_off_c, 1, 48, 0
2, 53000, Note_off_c, 1, 53, 0
2, 53000, Note_off_c, 1, 57, 0
2, 53000, Note_off_c, 1, 65, 0
2, 53080, Note_on_c, 1, 61, 127
2, 53080, Note_on_c, 1, 68, 127
2, 53080, Note_on_c, 1, 71, 127
2, 53080, Note_on_c, 1, 73, 127
2, 53080, Note_on_c, 1, 77, 127
2, 53080, Note_on_c, 1, 85, 127
2, 53840, Note_off_c, 1, 61, 0
2, 53840, Note_off_c, 1, 68, 0
2, 53840, Note_off_c, 1, 71, 0
2, 53840, Note_off_c, 1, 73, 0
2, 53840, Note_off_c, 1, 77, 0
2, 53840, Note_off_c, 1, 85, 0
2, 53880, Note_on_c, 1, 65, 127
2, 55080, Note_off_c, 1, 65, 0
2, 55120, Note_on_c, 1, 65, 127
2, 55480, Note_off_c, 1, 65, 0
2, 55560, Note_on_c, 1, 65, 127
2, 57200, Note_off_c, 1, 65, 0
2, 57240, Note_on_c, 1, 65, 127
2, 59160, Note_off_c, 1, 65, 0
2, 59200, Note_on_c, 1, 65, 127
2, 60240, Note_off_c, 1, 65, 0
2, 60280, Note_on_c, 1, 62, 127
2, 61040, Note_off_c, 1, 62, 0
2, 61080, Note_on_c, 1, 64, 127
2, 61120, Note_off_c, 1, 64, 0
2, 61120, Note_on_c, 1, 65, 127
2, 61240, Note_off_c, 1, 65, 0
2, 61280, Note_on_c, 1, 65, 127
2, 61360, Note_on_c, 1, 64, 127
2, 61360, Note_off_c, 1, 65, 0
2, 61480, Note_off_c, 1, 64, 0
2, 61520, Note_on_c, 1, 65, 127
2, 61920, Note_off_c, 1, 65, 0
2, 61960, Note_on_c, 1, 65, 127
2, 62920, Note_off_c, 1, 65, 0
2, 62960, Note_on_c, 1, 39, 127
2, 62960, Note_on_c, 1, 51, 127
2, 62960, Note_on_c, 1, 58, 127
2, 63280, Note_off_c, 1, 39, 0
2, 63280, Note_off_c, 1, 51, 0
2, 63280, Note_off_c, 1, 58, 0
2, 63320, Note_on_c, 1, 39, 127
2, 63320, Note_on_c, 1, 51, 127
2, 63320, Note_on_c, 1, 58, 127
2, 63400, Note_off_c, 1, 58, 0
2, 63440, Note_on_c, 1, 59, 127
2, 63800, Note_off_c, 1, 59, 0
2, 63840, Note_on_c, 1, 63, 127
2, 64200, Note_off_c, 1, 39, 0
2, 64240, Note_on_c, 1, 43, 127
2, 64640, Note_off_c, 1, 51, 0
2, 64680, Note_on_c, 1, 41, 127
2, 64680, Note_off_c, 1, 43, 0
2, 64680, Note_on_c, 1, 60, 127
2, 64680, Note_off_c, 1, 63, 0
2, 64680, Note_on_c, 1, 68, 127
2, 65040, Note_off_c, 1, 41, 0
2, 65040, Note_off_c, 1, 60, 0
2, 65040, Note_off_c, 1, 68, 0
2, 65080, Note_on_c, 1, 41, 127
2, 65080, Note_on_c, 1, 57, 127
2, 65080, Note_on_c, 1, 60, 127
2, 65080, Note_on_c, 1, 65, 127
2, 65360, Note_off_c, 1, 41, 0
2, 65360, Note_off_c, 1, 57, 0
2, 65360, Note_off_c, 1, 60, 0
2, 65360, Note_off_c, 1, 65, 0
2, 65400, Note_on_c, 1, 41, 127
2, 65400, Note_on_c, 1, 57, 127
2, 65400, Note_on_c, 1, 60, 127
2, 65400, Note_on_c, 1, 65, 127
2, 65840, Note_off_c, 1, 41, 0
2, 65840, Note_off_c, 1, 57, 0
2, 65840, Note_off_c, 1, 60, 0
2, 65840, Note_off_c, 1, 65, 0
2, 67200, Note_on_c, 1, 52, 127
2, 67560, Note_off_c, 1, 52, 0
2, 67600, Note_on_c, 1, 57, 127
2, 67960, Note_off_c, 1, 57, 0
2, 68000, Note_on_c, 1, 62, 127
2, 68840, Note_off_c, 1, 62, 0
2, 68880, Note_on_c, 1, 62, 127
2, 69200, Note_off_c, 1, 62, 0
2, 69240, Note_on_c, 1, 62, 127
2, 69640, Note_off_c, 1, 62, 0
2, 69680, Note_on_c, 1, 60, 127
2, 69680, Note_on_c, 1, 62, 127
2, 70200, Note_off_c, 1, 60, 0
2, 70200, Note_off_c, 1, 62, 0
2, 70280, Note_on_c, 1, 60, 127
2, 70280, Note_on_c, 1, 62, 127
2, 70880, Note_off_c, 1, 60, 0
2, 70880, Note_off_c, 1, 62, 0
2, 70920, Note_on_c, 1, 60, 127
2, 70920, Note_on_c, 1, 62, 127
2, 72520, Note_off_c, 1, 62, 0
2, 72920, Note_off_c, 1, 60, 0
2, 74720, Note_on_c, 1, 55, 127
2, 74720, Note_on_c, 1, 58, 127
2, 74720, Note_on_c, 1, 62, 127
2, 74720, Note_on_c, 1, 67, 127
2, 74720, Note_on_c, 1, 70, 127
2, 75440, Note_off_c, 1, 55, 0
2, 75440, Note_off_c, 1, 58, 0
2, 75440, Note_off_c, 1, 62, 0
2, 75440, Note_off_c, 1, 67, 0
2, 75440, Note_off_c, 1, 70, 0
2, 75480, Note_on_c, 1, 55, 127
2, 75480, Note_on_c, 1, 58, 127
2, 75480, Note_on_c, 1, 62, 127
2, 75480, Note_on_c, 1, 67, 127
2, 75480, Note_on_c, 1, 70, 127
2, 75920, Note_off_c, 1, 55, 0
2, 75920, Note_off_c, 1, 58, 0
2, 75920, Note_off_c, 1, 62, 0
2, 75920, Note_off_c, 1, 67, 0
2, 75920, Note_off_c, 1, 70, 0
2, 78120, Note_on_c, 1, 34, 127
2, 78120, Note_on_c, 1, 46, 127
2, 78120, Note_on_c, 1, 58, 127
2, 78440, Note_off_c, 1, 34, 0
2, 78440, Note_off_c, 1, 46, 0
2, 78440, Note_off_c, 1, 58, 0
2, 78480, Note_on_c, 1, 34, 127
2, 78480, Note_on_c, 1, 46, 127
2, 78480, Note_on_c, 1, 58, 127
2, 79320, Note_off_c, 1, 34, 0
2, 79320, Note_off_c, 1, 46, 0
2, 79320, Note_off_c, 1, 58, 0
2, 79360, Note_on_c, 1, 35, 127
2, 79360, Note_on_c, 1, 47, 127
2, 79360, Note_on_c, 1, 59, 127
2, 80560, Note_off_c, 1, 35, 0
2, 80560, Note_off_c, 1, 47, 0
2, 80560, Note_off_c, 1, 59, 0
2, 80600, Note_on_c, 1, 35, 127
2, 80600, Note_on_c, 1, 47, 127
2, 80600, Note_on_c, 1, 59, 127
2, 82600, Note_off_c, 1, 35, 0
2, 82600, Note_on_c, 1, 36, 127
2, 82600, Note_off_c, 1, 47, 0
2, 82600, Note_on_c, 1, 48, 127
2, 82600, Note_off_c, 1, 59, 0
2, 82600, Note_on_c, 1, 60, 127
2, 82640, Note_off_c, 1, 36, 0
2, 82640, Note_off_c, 1, 48, 0
2, 82640, Note_off_c, 1, 60, 0
2, 82680, Note_on_c, 1, 36, 127
2, 82680, Note_on_c, 1, 48, 127
2, 82680, Note_on_c, 1, 60, 127
2, 84840, Note_off_c, 1, 36, 0
2, 84840, Note_off_c, 1, 48, 0
2, 84840, Note_off_c, 1, 60, 0
2, 84880, Note_on_c, 1, 36, 127
2, 84880, Note_on_c, 1, 48, 127
2, 84880, Note_on_c, 1, 60, 127
2, 87080, Note_off_c, 1, 36, 0
2, 87080, Note_off_c, 1, 48, 0
2, 87080, Note_off_c, 1, 60, 0
2, 87120, Note_on_c, 1, 36, 127
2, 87120, Note_on_c, 1, 48, 127
2, 87120, Note_on_c, 1, 60, 127
2, 89240, Note_off_c, 1, 36, 0
2, 89240, Note_off_c, 1, 48, 0
2, 89240, Note_off_c, 1, 60, 0
2, 89280, Note_on_c, 1, 36, 127
2, 89280, Note_on_c, 1, 48, 127
2, 89280, Note_on_c, 1, 60, 127
2, 89800, Note_off_c, 1, 36, 0
2, 89800, Note_off_c, 1, 48, 0
2, 89800, Note_off_c, 1, 60, 0
2, 89840, Note_on_c, 1, 41, 127
2, 89840, Note_on_c, 1, 53, 127
2, 89840, Note_on_c, 1, 65, 127
2, 91000, Note_off_c, 1, 41, 0
2, 91000, Note_off_c, 1, 53, 0
2, 91000, Note_off_c, 1, 65, 0
2, 92200, Note_on_c, 1, 45, 127
2, 92200, Note_on_c, 1, 52, 127
2, 92200, Note_on_c, 1, 83, 127
2, 92200, Note_on_c, 1, 91, 127
2, 92200, Note_on_c, 1, 95, 127
2, 92240, Note_on_c, 1, 44, 127
2, 92240, Note_off_c, 1, 45, 0
2, 92240, Note_on_c, 1, 47, 127
2, 92240, Note_on_c, 1, 49, 127
2, 92240, Note_off_c, 1, 52, 0
2, 92240, Note_on_c, 1, 53, 127
2, 92240, Note_on_c, 1, 59, 127
2, 92240, Note_off_c, 1, 83, 0
2, 92240, Note_off_c, 1, 91, 0
2, 92240, Note_off_c, 1, 95, 0
2, 92280, Note_off_c, 1, 44, 0
2, 92280, Note_off_c, 1, 47, 0
2, 92280, Note_on_c, 1, 52, 127
2, 92280, Note_off_c, 1, 53, 0
2, 92280, Note_on_c, 1, 57, 127
2, 92280, Note_off_c, 1, 59, 0
2, 92280, Note_on_c, 1, 61, 127
2, 92280, Note_on_c, 1, 79, 127
2, 92320, Note_on_c, 1, 45, 127
2, 92320, Note_off_c, 1, 49, 0
2, 92320, Note_off_c, 1, 57, 0
2, 92320, Note_off_c, 1, 61, 0
2, 92320, Note_off_c, 1, 79, 0
2, 92320, Note_on_c, 1, 83, 127
2, 92320, Note_on_c, 1, 91, 127
2, 92320, Note_on_c, 1, 95, 127
2, 92360, Note_off_c, 1, 45, 0
2, 92360, Note_off_c, 1, 52, 0
2, 92360, Note_off_c, 1, 83, 0
2, 92360, Note_off_c, 1, 91, 0
2, 92360, Note_off_c, 1, 95, 0
2, 95040, Note_on_c, 1, 58, 127
2, 95240, Note_off_c, 1, 58, 0
2, 95280, Note_on_c, 1, 58, 127
2, 96280, Note_off_c, 1, 58, 0
2, 96320, Note_on_c, 1, 61, 127
2, 97080, Note_off_c, 1, 61, 0
2, 97160, Note_on_c, 1, 61, 127
2, 97920, Note_off_c, 1, 61, 0
2, 97960, Note_on_c, 1, 66, 127
2, 98720, Note_off_c, 1, 66, 0
2, 98760, Note_on_c, 1, 68, 127
2, 99320, Note_off_c, 1, 68, 0
2, 99360, Note_on_c, 1, 65, 127
2, 99480, Note_off_c, 1, 65, 0
2, 99520, Note_on_c, 1, 65, 127
2, 100160, Note_off_c, 1, 65, 0
2, 100200, Note_on_c, 1, 63, 127
2, 101400, Note_off_c, 1, 63, 0
2, 101440, Note_on_c, 1, 63, 127
2, 101840, Note_off_c, 1, 63, 0
2, 101840, Note_on_c, 1, 64, 127
2, 102000, Note_off_c, 1, 64, 0
2, 102040, Note_on_c, 1, 68, 127
2, 102600, Note_off_c, 1, 68, 0
2, 102640, Note_on_c, 1, 68, 127
2, 103400, Note_off_c, 1, 68, 0
2, 103480, Note_on_c, 1, 68, 127
2, 103840, Note_off_c, 1, 68, 0
2, 104040, Note_on_c, 1, 68, 127
2, 104240, Note_off_c, 1, 68, 0
2, 104280, Note_on_c, 1, 69, 127
2, 104480, Note_off_c, 1, 69, 0
2, 104520, Note_on_c, 1, 71, 127
2, 105080, Note_off_c, 1, 71, 0
2, 105120, Note_on_c, 1, 75, 127
2, 105480, Note_off_c, 1, 75, 0
2, 105560, Note_on_c, 1, 74, 127
2, 105920, Note_off_c, 1, 74, 0
2, 105960, Note_on_c, 1, 77, 127
2, 106760, Note_on_c, 1, 56, 127
2, 107120, Note_off_c, 1, 56, 0
2, 107160, Note_on_c, 1, 65, 127
2, 107480, Note_off_c, 1, 65, 0
2, 107480, Note_off_c, 1, 77, 0
2, 107520, Note_on_c, 1, 65, 127
2, 107520, Note_on_c, 1, 77, 127
2, 107800, Note_off_c, 1, 77, 0
2, 107840, Note_on_c, 1, 80, 127
2, 108200, Note_off_c, 1, 65, 0
2, 109480, Note_off_c, 1, 80, 0
2, 109520, Note_on_c, 1, 80, 127
2, 110160, Note_off_c, 1, 80, 0
2, 110200, Note_on_c, 1, 82, 127
2, 110280, Note_off_c, 1, 82, 0
2, 110320, Note_on_c, 1, 47, 127
2, 110320, Note_on_c, 1, 87, 127
2, 110880, Note_off_c, 1, 87, 0
2, 110920, Note_on_c, 1, 89, 127
2, 111080, Note_off_c, 1, 47, 0
2, 111080, Note_off_c, 1, 89, 0
2, 111120, Note_on_c, 1, 51, 127
2, 111120, Note_on_c, 1, 84, 127
2, 111440, Note_off_c, 1, 51, 0
2, 111440, Note_off_c, 1, 84, 0
2, 111480, Note_on_c, 1, 51, 127
2, 111480, Note_on_c, 1, 84, 127
2, 113600, Note_off_c, 1, 51, 0
2, 113600, Note_off_c, 1, 84, 0
2, 113640, Note_on_c, 1, 51, 127
2, 113640, Note_on_c, 1, 84, 127
2, 113720, Note_off_c, 1, 84, 0
2, 113720, Note_on_c, 1, 85, 127
2, 113920, Note_off_c, 1, 85, 0
2, 113960, Note_on_c, 1, 85, 127
2, 114560, Note_off_c, 1, 51, 0
2, 114560, Note_off_c, 1, 85, 0
2, 114600, Note_on_c, 1, 51, 127
2, 114600, Note_on_c, 1, 84, 127
2, 115160, Note_off_c, 1, 51, 0
2, 115200, Note_on_c, 1, 56, 127
2, 115760, Note_off_c, 1, 56, 0
2, 115760, Note_off_c, 1, 84, 0
2, 115800, Note_on_c, 1, 56, 127
2, 115800, Note_on_c, 1, 84, 127
2, 115840, Note_off_c, 1, 84, 0
2, 115880, Note_on_c, 1, 80, 127
2, 117480, Note_off_c, 1, 80, 0
2, 117480, Note_on_c, 1, 82, 127
2, 117520, Note_on_c, 1, 80, 127
2, 117520, Note_off_c, 1, 82, 0
2, 117720, Note_off_c, 1, 56, 0
2, 117720, Note_off_c, 1, 80, 0
2, 117760, Note_on_c, 1, 56, 127
2, 117760, Note_on_c, 1, 80, 127
2, 118040, Note_off_c, 1, 56, 0
2, 118040, Note_off_c, 1, 80, 0
2, 118080, Note_on_c, 1, 49, 127
2, 118080, Note_on_c, 1, 82, 127
2, 119920, Note_off_c, 1, 49, 0
2, 119920, Note_off_c, 1, 82, 0
2, 119960, Note_on_c, 1, 49, 127
2, 119960, Note_on_c, 1, 82, 127
2, 120000, Note_off_c, 1, 49, 0
2, 120000, Note_off_c, 1, 82, 0
2, 120040, End_track
3, 0, Start_track
3, 0, Title_t, "MIDI"
3, 1536, End_track
0, 0, End_of_file
