0, 0, Header, 1, 3, 192
1, 0, Start_track
1, 0, Time_signature, 4, 2, 24, 8
1, 0, Tempo, 500000
1, 120040, End_track
2, 0, Start_track
2, 0, Text_t, "random instrument: random person i dunno whatev"
2, 0, Title_t, "Track 1"
2, 0, Note_on_c, 1, 34, 127
2, 0, Note_on_c, 1, 53, 127
2, 0, Note_on_c, 1, 56, 127
2, 0, Note_on_c, 1, 62, 127
2, 40, Note_off_c, 1, 34, 0
2, 40, Note_off_c, 1, 53, 0
2, 40, Note_off_c, 1, 56, 0
2, 40, Note_off_c, 1, 62, 0
2, 80, Note_on_c, 1, 31, 127
2, 80, Note_on_c, 1, 43, 127
2, 80, Note_on_c, 1, 59, 127
2, 80, Note_on_c, 1, 65, 127
2, 80, Note_on_c, 1, 67, 127
2, 120, Note_off_c, 1, 31, 0
2, 120, Note_on_c, 1, 34, 127
2, 120, Note_off_c, 1, 43, 0
2, 120, Note_on_c, 1, 53, 127
2, 120, Note_on_c, 1, 56, 127
2, 120, Note_off_c, 1, 59, 0
2, 120, Note_on_c, 1, 62, 127
2, 120, Note_off_c, 1, 65, 0
2, 120, Note_off_c, 1, 67, 0
2, 160, Note_off_c, 1, 34, 0
2, 160, Note_on_c, 1, 43, 127
2, 160, Note_on_c, 1, 47, 127
2, 160, Note_off_c, 1, 53, 0
2, 160, Note_on_c, 1, 55, 127
2, 160, Note_off_c, 1, 56, 0
2, 160, Note_off_c, 1, 62, 0
2, 160, Note_on_c, 1, 79, 127
2, 160, Note_on_c, 1, 83, 127
2, 160, Note_on_c, 1, 87, 127
2, 160, Note_on_c, 1, 91, 127
2, 200, Note_on_c, 1, 34, 127
2, 200, Note_off_c, 1, 43, 0
2, 200, Note_off_c, 1, 47, 0
2, 200, Note_on_c, 1, 53, 127
2, 200, Note_off_c, 1, 55, 0
2, 200, Note_on_c, 1, 56, 127
2, 200, Note_on_c, 1, 62, 127
2, 200, Note_off_c, 1, 79, 0
2, 200, Note_off_c, 1, 83, 0
2, 200, Note_off_c, 1, 87, 0
2, 200, Note_off_c, 1, 91, 0
2, 320, Note_off_c, 1, 34, 0
2, 320, Note_off_c, 1, 53, 0
2, 320, Note_off_c, 1, 56, 0
2, 320, Note_off_c, 1, 62, 0
2, 320, Note_on_c, 1, 65, 127
2, 360, Note_on_c, 1, 34, 127
2, 360, Note_on_c, 1, 53, 127
2, 360, Note_on_c, 1, 56, 127
2, 360, Note_on_c, 1, 62, 127
2, 360, Note_off_c, 1, 65, 0
2, 480, Note_off_c, 1, 34, 0
2, 480, Note_on_c, 1, 49, 127
2, 480, Note_off_c, 1, 53, 0
2, 480, Note_on_c, 1, 54, 127
2, 480, Note_off_c, 1, 56, 0
2, 480, Note_off_c, 1, 62, 0
2, 480, Note_on_c, 1, 64, 127
2, 480, Note_on_c, 1, 66, 127
2, 480, Note_on_c, 1, 70, 127
2, 520, Note_on_c, 1, 34, 127
2, 520, Note_off_c, 1, 49, 0
2, 520, Note_on_c, 1, 53, 127
2, 520, Note_off_c, 1, 54, 0
2, 520, Note_on_c, 1, 56, 127
2, 520, Note_on_c, 1, 62, 127
2, 520, Note_off_c, 1, 64, 0
2, 520, Note_off_c, 1, 66, 0
2, 520, Note_off_c, 1, 70, 0
2, 1040, Note_off_c, 1, 62, 0
2, 1240, Note_off_c, 1, 34, 0
2, 1240, Note_off_c, 1, 53, 0
2, 1240, Note_on_c, 1, 55, 127
2, 1240, Note_off_c, 1, 56, 0
2, 1240, Note_on_c, 1, 77, 127
2, 1240, Note_on_c, 1, 80, 127
2, 1280, Note_on_c, 1, 34, 127
2, 1280, Note_on_c, 1, 53, 127
2, 1280, Note_off_c, 1, 55, 0
2, 1280, Note_on_c, 1, 56, 127
2, 1280, Note_off_c, 1, 77, 0
2, 1280, Note_off_c, 1, 80, 0
2, 1760, Note_off_c, 1, 56, 0
2, 1920, Note_off_c, 1, 53, 0
2, 1920, Note_on_c, 1, 58, 127
2, 2000, Note_off_c, 1, 34, 0
2, 2000, Note_off_c, 1, 58, 0
2, 5160, Note_on_c, 1, 48, 127
2, 5160, Note_on_c, 1, 55, 127
2, 5160, Note_on_c, 1, 60, 127
2, 5160, Note_on_c, 1, 64, 127
2, 5200, Note_off_c, 1, 48, 0
2, 5440, Note_on_c, 1, 48, 127
2, 5520, Note_off_c, 1, 48, 0
2, 5680, Note_off_c, 1, 55, 0
2, 5680, Note_off_c, 1, 60, 0
2, 5680, Note_off_c, 1, 64, 0
2, 5720, Note_on_c, 1, 52, 127
2, 5720, Note_on_c, 1, 59, 127
2, 5720, Note_on_c, 1, 62, 127
2, 5960, Note_off_c, 1, 52, 0
2, 5960, Note_off_c, 1, 59, 0
2, 5960, Note_off_c, 1, 62, 0
2, 6000, Note_on_c, 1, 52, 127
2, 6000, Note_on_c, 1, 57, 127
2, 6000, Note_on_c, 1, 60, 127
2, 7040, Note_off_c, 1, 52, 0
2, 7040, Note_off_c, 1, 57, 0
2, 7040, Note_off_c, 1, 60, 0
2, 7080, Note_on_c, 1, 50, 127
2, 7080, Note_on_c, 1, 57, 127
2, 7080, Note_on_c, 1, 60, 127
2, 7080, Note_on_c, 1, 66, 127
2, 7360, Note_off_c, 1, 50, 0
2, 7360, Note_off_c, 1, 57, 0
2, 7360, Note_off_c, 1, 60, 0
2, 7360, Note_off_c, 1, 66, 0
2, 7400, Note_on_c, 1, 50, 127
2, 7400, Note_on_c, 1, 57, 127
2, 7400, Note_on_c, 1, 60, 127
2, 7400, Note_on_c, 1, 66, 127
2, 7920, Note_off_c, 1, 66, 0
2, 7960, Note_on_c, 1, 71, 127
2, 8160, Note_off_c, 1, 71, 0
2, 8640, Note_off_c, 1, 50, 0
2, 8640, Note_off_c, 1, 57, 0
2, 8640, Note_off_c, 1, 60, 0
2, 14960, Note_on_c, 1, 35, 127
2, 15040, Note_off_c, 1, 35, 0
2, 15080, Note_on_c, 1, 35, 127
2, 15120, Note_off_c, 1, 35, 0
2, 15160, Note_on_c, 1, 30, 127
2, 15240, Note_off_c, 1, 30, 0
2, 15280, Note_on_c, 1, 30, 127
2, 15320, Note_off_c, 1, 30, 0
2, 15360, Note_on_c, 1, 30, 127
2, 15520, Note_off_c, 1, 30, 0
2, 15560, Note_on_c, 1, 30, 127
2, 15640, Note_off_c, 1, 30, 0
2, 15680, Note_on_c, 1, 30, 127
2, 15760, Note_off_c, 1, 30, 0
2, 15800, Note_on_c, 1, 30, 127
2, 15840, Note_off_c, 1, 30, 0
2, 15880, Note_on_c, 1, 30, 127
2, 15960, Note_off_c, 1, 30, 0
2, 16000, Note_on_c, 1, 30, 127
2, 16080, Note_off_c, 1, 30, 0
2, 16080, Note_on_c, 1, 57, 127
2, 16080, Note_on_c, 1, 60, 127
2, 16080, Note_on_c, 1, 63, 127
2, 16080, Note_on_c, 1, 72, 127
2, 16080, Note_on_c, 1, 78, 127
2, 16080, Note_on_c, 1, 83, 127
2, 16120, Note_off_c, 1, 57, 0
2, 16120, Note_off_c, 1, 60, 0
2, 16120, Note_off_c, 1, 63, 0
2, 16120, Note_off_c, 1, 72, 0
2, 16120, Note_off_c, 1, 78, 0
2, 16120, Note_off_c, 1, 83, 0
2, 16160, Note_on_c, 1, 59, 127
2, 16160, Note_on_c, 1, 65, 127
2, 16160, Note_on_c, 1, 71, 127
2, 16160, Note_on_c, 1, 77, 127
2, 16200, Note_off_c, 1, 59, 0
2, 16200, Note_off_c, 1, 65, 0
2, 16200, Note_off_c, 1, 71, 0
2, 16200, Note_off_c, 1, 77, 0
2, 16280, Note_on_c, 1, 63, 127
2, 16280, Note_on_c, 1, 66, 127
2, 16280, Note_on_c, 1, 71, 127
2, 16280, Note_on_c, 1, 75, 127
2, 16320, Note_off_c, 1, 63, 0
2, 16320, Note_off_c, 1, 66, 0
2, 16320, Note_off_c, 1, 71, 0
2, 16320, Note_off_c, 1, 75, 0
2, 16360, Note_on_c, 1, 59, 127
2, 16360, Note_on_c, 1, 62, 127
2, 16360, Note_on_c, 1, 71, 127
2, 16360, Note_on_c, 1, 74, 127
2, 16440, Note_off_c, 1, 59, 0
2, 16440, Note_off_c, 1, 62, 0
2, 16440, Note_off_c, 1, 71, 0
2, 16440, Note_off_c, 1, 74, 0
2, 16480, Note_on_c, 1, 58, 127
2, 16480, Note_on_c, 1, 61, 127
2, 16480, Note_on_c, 1, 70, 127
2, 16480, Note_on_c, 1, 73, 127
2, 16520, Note_off_c, 1, 58, 0
2, 16520, Note_off_c, 1, 61, 0
2, 16520, Note_off_c, 1, 70, 0
2, 16520, Note_off_c, 1, 73, 0
2, 16560, Note_on_c, 1, 54, 127
2, 16560, Note_on_c, 1, 58, 127
2, 16560, Note_on_c, 1, 66, 127
2, 16560, Note_on_c, 1, 70, 127
2, 16600, Note_off_c, 1, 54, 0
2, 16600, Note_off_c, 1, 58, 0
2, 16600, Note_off_c, 1, 66, 0
2, 16600, Note_off_c, 1, 70, 0
2, 16640, Note_on_c, 1, 54, 127
2, 16640, Note_on_c, 1, 58, 127
2, 16640, Note_on_c, 1, 66, 127
2, 16640, Note_on_c, 1, 70, 127
2, 16680, Note_off_c, 1, 54, 0
2, 16680, Note_off_c, 1, 58, 0
2, 16680, Note_off_c, 1, 66, 0
2, 16680, Note_off_c, 1, 70, 0
2, 16720, Note_on_c, 1, 54, 127
2, 16720, Note_on_c, 1, 58, 127
2, 16720, Note_on_c, 1, 66, 127
2, 16720, Note_on_c, 1, 70, 127
2, 16760, Note_off_c, 1, 54, 0
2, 16760, Note_off_c, 1, 58, 0
2, 16760, Note_off_c, 1, 66, 0
2, 16760, Note_off_c, 1, 70, 0
2, 16800, Note_on_c, 1, 35, 127
2, 16800, Note_on_c, 1, 47, 127
2, 16800, Note_on_c, 1, 71, 127
2, 16800, Note_on_c, 1, 83, 127
2, 16840, Note_off_c, 1, 35, 0
2, 16840, Note_off_c, 1, 47, 0
2, 16840, Note_off_c, 1, 71, 0
2, 16840, Note_off_c, 1, 83, 0
2, 16880, Note_on_c, 1, 59, 127
2, 16880, Note_on_c, 1, 63, 127
2, 16880, Note_on_c, 1, 71, 127
2, 16880, Note_on_c, 1, 75, 127
2, 16920, Note_off_c, 1, 59, 0
2, 16920, Note_off_c, 1, 63, 0
2, 16920, Note_off_c, 1, 71, 0
2, 16920, Note_off_c, 1, 75, 0
2, 16960, Note_on_c, 1, 59, 127
2, 16960, Note_on_c, 1, 63, 127
2, 16960, Note_on_c, 1, 71, 127
2, 16960, Note_on_c, 1, 75, 127
2, 17000, Note_off_c, 1, 59, 0
2, 17000, Note_off_c, 1, 63, 0
2, 17000, Note_off_c, 1, 71, 0
2, 17000, Note_off_c, 1, 75, 0
2, 17040, Note_on_c, 1, 59, 127
2, 17040, Note_on_c, 1, 63, 127
2, 17040, Note_on_c, 1, 71, 127
2, 17040, Note_on_c, 1, 75, 127
2, 17080, Note_off_c, 1, 59, 0
2, 17080, Note_off_c, 1, 63, 0
2, 17080, Note_off_c, 1, 71, 0
2, 17080, Note_off_c, 1, 75, 0
2, 17120, Note_on_c, 1, 58, 127
2, 17120, Note_on_c, 1, 61, 127
2, 17120, Note_on_c, 1, 70, 127
2, 17120, Note_on_c, 1, 73, 127
2, 17160, Note_off_c, 1, 58, 0
2, 17160, Note_off_c, 1, 61, 0
2, 17160, Note_off_c, 1, 70, 0
2, 17160, Note_off_c, 1, 73, 0
2, 17200, Note_on_c, 1, 51, 127
2, 17200, Note_on_c, 1, 54, 127
2, 17200, Note_on_c, 1, 63, 127
2, 17200, Note_on_c, 1, 66, 127
2, 17240, Note_off_c, 1, 51, 0
2, 17240, Note_off_c, 1, 54, 0
2, 17240, Note_off_c, 1, 63, 0
2, 17240, Note_off_c, 1, 66, 0
2, 17280, Note_on_c, 1, 51, 127
2, 17280, Note_on_c, 1, 54, 127
2, 17280, Note_on_c, 1, 63, 127
2, 17280, Note_on_c, 1, 66, 127
2, 17360, Note_off_c, 1, 51, 0
2, 17360, Note_off_c, 1, 54, 0
2, 17360, Note_off_c, 1, 63, 0
2, 17360, Note_off_c, 1, 66, 0
2, 17400, Note_on_c, 1, 51, 127
2, 17400, Note_on_c, 1, 54, 127
2, 17400, Note_on_c, 1, 63, 127
2, 17400, Note_on_c, 1, 66, 127
2, 17440, Note_off_c, 1, 51, 0
2, 17440, Note_off_c, 1, 54, 0
2, 17440, Note_off_c, 1, 63, 0
2, 17440, Note_off_c, 1, 66, 0
2, 17480, Note_on_c, 1, 51, 127
2, 17480, Note_on_c, 1, 54, 127
2, 17480, Note_on_c, 1, 63, 127
2, 17480, Note_on_c, 1, 66, 127
2, 17520, Note_off_c, 1, 51, 0
2, 17520, Note_off_c, 1, 54, 0
2, 17520, Note_off_c, 1, 63, 0
2, 17520, Note_off_c, 1, 66, 0
2, 17560, Note_on_c, 1, 51, 127
2, 17560, Note_on_c, 1, 54, 127
2, 17560, Note_on_c, 1, 63, 127
2, 17560, Note_on_c, 1, 66, 127
2, 17600, Note_off_c, 1, 51, 0
2, 17600, Note_off_c, 1, 54, 0
2, 17600, Note_off_c, 1, 63, 0
2, 17600, Note_off_c, 1, 66, 0
2, 17640, Note_on_c, 1, 51, 127
2, 17640, Note_on_c, 1, 54, 127
2, 17640, Note_on_c, 1, 63, 127
2, 17640, Note_on_c, 1, 66, 127
2, 17680, Note_off_c, 1, 51, 0
2, 17680, Note_off_c, 1, 54, 0
2, 17680, Note_off_c, 1, 63, 0
2, 17680, Note_off_c, 1, 66, 0
2, 17720, Note_on_c, 1, 51, 127
2, 17720, Note_on_c, 1, 54, 127
2, 17720, Note_on_c, 1, 63, 127
2, 17720, Note_on_c, 1, 66, 127
2, 17760, Note_off_c, 1, 51, 0
2, 17760, Note_off_c, 1, 54, 0
2, 17760, Note_off_c, 1, 63, 0
2, 17760, Note_off_c, 1, 66, 0
2, 17800, Note_on_c, 1, 43, 127
2, 17800, Note_on_c, 1, 47, 127
2, 17800, Note_on_c, 1, 50, 127
2, 17800, Note_on_c, 1, 55, 127
2, 17800, Note_on_c, 1, 62, 127
2, 17800, Note_on_c, 1, 67, 127
2, 17800, Note_on_c, 1, 71, 127
2, 17800, Note_on_c, 1, 74, 127
2, 17840, Note_off_c, 1, 43, 0
2, 17840, Note_off_c, 1, 47, 0
2, 17840, Note_off_c, 1, 50, 0
2, 17840, Note_off_c, 1, 55, 0
2, 17840, Note_off_c, 1, 62, 0
2, 17840, Note_off_c, 1, 67, 0
2, 17840, Note_off_c, 1, 71, 0
2, 17840, Note_off_c, 1, 74, 0
2, 17880, Note_on_c, 1, 43, 127
2, 17880, Note_on_c, 1, 47, 127
2, 17880, Note_on_c, 1, 50, 127
2, 17880, Note_on_c, 1, 55, 127
2, 17880, Note_on_c, 1, 62, 127
2, 17880, Note_on_c, 1, 67, 127
2, 17880, Note_on_c, 1, 71, 127
2, 17880, Note_on_c, 1, 74, 127
2, 17920, Note_off_c, 1, 43, 0
2, 17920, Note_off_c, 1, 47, 0
2, 17920, Note_off_c, 1, 50, 0
2, 17920, Note_off_c, 1, 55, 0
2, 17920, Note_off_c, 1, 62, 0
2, 17920, Note_off_c, 1, 67, 0
2, 17920, Note_off_c, 1, 71, 0
2, 17920, Note_off_c, 1, 74, 0
2, 17960, Note_on_c, 1, 43, 127
2, 17960, Note_on_c, 1, 47, 127
2, 17960, Note_on_c, 1, 50, 127
2, 17960, Note_on_c, 1, 55, 127
2, 17960, Note_on_c, 1, 62, 127
2, 17960, Note_on_c, 1, 67, 127
2, 17960, Note_on_c, 1, 71, 127
2, 17960, Note_on_c, 1, 74, 127
2, 18000, Note_off_c, 1, 43, 0
2, 18000, Note_off_c, 1, 47, 0
2, 18000, Note_off_c, 1, 50, 0
2, 18000, Note_off_c, 1, 55, 0
2, 18000, Note_off_c, 1, 62, 0
2, 18000, Note_off_c, 1, 67, 0
2, 18000, Note_off_c, 1, 71, 0
2, 18000, Note_off_c, 1, 74, 0
2, 18040, Note_on_c, 1, 43, 127
2, 18040, Note_on_c, 1, 47, 127
2, 18040, Note_on_c, 1, 50, 127
2, 18040, Note_on_c, 1, 55, 127
2, 18040, Note_on_c, 1, 62, 127
2, 18040, Note_on_c, 1, 67, 127
2, 18040, Note_on_c, 1, 71, 127
2, 18040, Note_on_c, 1, 74, 127
2, 18120, Note_off_c, 1, 43, 0
2, 18120, Note_off_c, 1, 47, 0
2, 18120, Note_off_c, 1, 50, 0
2, 18120, Note_off_c, 1, 55, 0
2, 18120, Note_off_c, 1, 62, 0
2, 18120, Note_off_c, 1, 67, 0
2, 18120, Note_off_c, 1, 71, 0
2, 18120, Note_off_c, 1, 74, 0
2, 18160, Note_on_c, 1, 43, 127
2, 18160, Note_on_c, 1, 47, 127
2, 18160, Note_on_c, 1, 50, 127
2, 18160, Note_on_c, 1, 55, 127
2, 18160, Note_on_c, 1, 62, 127
2, 18160, Note_on_c, 1, 67, 127
2, 18160, Note_on_c, 1, 71, 127
2, 18160, Note_on_c, 1, 74, 127
2, 18200, Note_off_c, 1, 43, 0
2, 18200, Note_off_c, 1, 47, 0
2, 18200, Note_off_c, 1, 50, 0
2, 18200, Note_off_c, 1, 55, 0
2, 18200, Note_off_c, 1, 62, 0
2, 18200, Note_off_c, 1, 67, 0
2, 18200, Note_off_c, 1, 71, 0
2, 18200, Note_off_c, 1, 74, 0
2, 18240, Note_on_c, 1, 43, 127
2, 18240, Note_on_c, 1, 47, 127
2, 18240, Note_on_c, 1, 50, 127
2, 18240, Note_on_c, 1, 55, 127
2, 18240, Note_on_c, 1, 62, 127
2, 18240, Note_on_c, 1, 67, 127
2, 18240, Note_on_c, 1, 71, 127
2, 18240, Note_on_c, 1, 74, 127
2, 18280, Note_off_c, 1, 43, 0
2, 18280, Note_off_c, 1, 47, 0
2, 18280, Note_off_c, 1, 50, 0
2, 18280, Note_off_c, 1, 55, 0
2, 18280, Note_off_c, 1, 62, 0
2, 18280, Note_off_c, 1, 67, 0
2, 18280, Note_off_c, 1, 71, 0
2, 18280, Note_off_c, 1, 74, 0
2, 18320, Note_on_c, 1, 48, 127
2, 18320, Note_on_c, 1, 52, 127
2, 18320, Note_on_c, 1, 55, 127
2, 18320, Note_on_c, 1, 60, 127
2, 18320, Note_on_c, 1, 64, 127
2, 18320, Note_on_c, 1, 67, 127
2, 18320, Note_on_c, 1, 72, 127
2, 18320, Note_on_c, 1, 76, 127
2, 18360, Note_off_c, 1, 48, 0
2, 18360, Note_off_c, 1, 52, 0
2, 18360, Note_off_c, 1, 55, 0
2, 18360, Note_off_c, 1, 60, 0
2, 18360, Note_off_c, 1, 64, 0
2, 18360, Note_off_c, 1, 67, 0
2, 18360, Note_off_c, 1, 72, 0
2, 18360, Note_off_c, 1, 76, 0
2, 18400, Note_on_c, 1, 48, 127
2, 18400, Note_on_c, 1, 52, 127
2, 18400, Note_on_c, 1, 55, 127
2, 18400, Note_on_c, 1, 60, 127
2, 18400, Note_on_c, 1, 64, 127
2, 18400, Note_on_c, 1, 67, 127
2, 18400, Note_on_c, 1, 72, 127
2, 18400, Note_on_c, 1, 76, 127
2, 18440, Note_off_c, 1, 48, 0
2, 18440, Note_off_c, 1, 52, 0
2, 18440, Note_off_c, 1, 55, 0
2, 18440, Note_off_c, 1, 60, 0
2, 18440, Note_off_c, 1, 64, 0
2, 18440, Note_off_c, 1, 67, 0
2, 18440, Note_off_c, 1, 72, 0
2, 18440, Note_off_c, 1, 76, 0
2, 18480, Note_on_c, 1, 48, 127
2, 18480, Note_on_c, 1, 52, 127
2, 18480, Note_on_c, 1, 55, 127
2, 18480, Note_on_c, 1, 60, 127
2, 18480, Note_on_c, 1, 64, 127
2, 18480, Note_on_c, 1, 67, 127
2, 18480, Note_on_c, 1, 72, 127
2, 18480, Note_on_c, 1, 76, 127
2, 18600, Note_off_c, 1, 48, 0
2, 18600, Note_off_c, 1, 52, 0
2, 18600, Note_off_c, 1, 55, 0
2, 18600, Note_off_c, 1, 60, 0
2, 18600, Note_off_c, 1, 64, 0
2, 18600, Note_off_c, 1, 67, 0
2, 18600, Note_off_c, 1, 72, 0
2, 18600, Note_off_c, 1, 76, 0
2, 18640, Note_on_c, 1, 43, 127
2, 18640, Note_on_c, 1, 47, 127
2, 18640, Note_on_c, 1, 50, 127
2, 18640, Note_on_c, 1, 55, 127
2, 18640, Note_on_c, 1, 62, 127
2, 18640, Note_on_c, 1, 67, 127
2, 18640, Note_on_c, 1, 71, 127
2, 18640, Note_on_c, 1, 74, 127
2, 18680, Note_off_c, 1, 43, 0
2, 18680, Note_off_c, 1, 47, 0
2, 18680, Note_off_c, 1, 50, 0
2, 18680, Note_off_c, 1, 55, 0
2, 18680, Note_off_c, 1, 62, 0
2, 18680, Note_off_c, 1, 67, 0
2, 18680, Note_off_c, 1, 71, 0
2, 18680, Note_off_c, 1, 74, 0
2, 18720, Note_on_c, 1, 43, 127
2, 18720, Note_on_c, 1, 47, 127
2, 18720, Note_on_c, 1, 50, 127
2, 18720, Note_on_c, 1, 55, 127
2, 18720, Note_on_c, 1, 62, 127
2, 18720, Note_on_c, 1, 67, 127
2, 18720, Note_on_c, 1, 71, 127
2, 18720, Note_on_c, 1, 74, 127
2, 18760, Note_off_c, 1, 43, 0
2, 18760, Note_off_c, 1, 47, 0
2, 18760, Note_off_c, 1, 50, 0
2, 18760, Note_off_c, 1, 55, 0
2, 18760, Note_off_c, 1, 62, 0
2, 18760, Note_off_c, 1, 67, 0
2, 18760, Note_off_c, 1, 71, 0
2, 18760, Note_off_c, 1, 74, 0
2, 18800, Note_on_c, 1, 43, 127
2, 18800, Note_on_c, 1, 47, 127
2, 18800, Note_on_c, 1, 50, 127
2, 18800, Note_on_c, 1, 55, 127
2, 18800, Note_on_c, 1, 62, 127
2, 18800, Note_on_c, 1, 67, 127
2, 18800, Note_on_c, 1, 71, 127
2, 18800, Note_on_c, 1, 74, 127
2, 18880, Note_off_c, 1, 43, 0
2, 18880, Note_off_c, 1, 47, 0
2, 18880, Note_off_c, 1, 50, 0
2, 18880, Note_off_c, 1, 55, 0
2, 18880, Note_off_c, 1, 62, 0
2, 18880, Note_off_c, 1, 67, 0
2, 18880, Note_off_c, 1, 71, 0
2, 18880, Note_off_c, 1, 74, 0
2, 18920, Note_on_c, 1, 43, 127
2, 18920, Note_on_c, 1, 47, 127
2, 18920, Note_on_c, 1, 50, 127
2, 18920, Note_on_c, 1, 55, 127
2, 18920, Note_on_c, 1, 62, 127
2, 18920, Note_on_c, 1, 67, 127
2, 18920, Note_on_c, 1, 71, 127
2, 18920, Note_on_c, 1, 74, 127
2, 18960, Note_off_c, 1, 43, 0
2, 18960, Note_off_c, 1, 47, 0
2, 18960, Note_off_c, 1, 50, 0
2, 18960, Note_off_c, 1, 55, 0
2, 18960, Note_off_c, 1, 62, 0
2, 18960, Note_off_c, 1, 67, 0
2, 18960, Note_off_c, 1, 71, 0
2, 18960, Note_off_c, 1, 74, 0
2, 19000, Note_on_c, 1, 43, 127
2, 19000, Note_on_c, 1, 47, 127
2, 19000, Note_on_c, 1, 50, 127
2, 19000, Note_on_c, 1, 55, 127
2, 19000, Note_on_c, 1, 62, 127
2, 19000, Note_on_c, 1, 67, 127
2, 19000, Note_on_c, 1, 71, 127
2, 19000, Note_on_c, 1, 74, 127
2, 19040, Note_off_c, 1, 43, 0
2, 19040, Note_off_c, 1, 47, 0
2, 19040, Note_off_c, 1, 50, 0
2, 19040, Note_off_c, 1, 55, 0
2, 19040, Note_off_c, 1, 62, 0
2, 19040, Note_off_c, 1, 67, 0
2, 19040, Note_off_c, 1, 71, 0
2, 19040, Note_off_c, 1, 74, 0
2, 19080, Note_on_c, 1, 58, 127
2, 19080, Note_on_c, 1, 62, 127
2, 19080, Note_on_c, 1, 65, 127
2, 19080, Note_on_c, 1, 82, 127
2, 19080, Note_on_c, 1, 94, 127
2, 19120, Note_off_c, 1, 58, 0
2, 19120, Note_off_c, 1, 62, 0
2, 19120, Note_off_c, 1, 65, 0
2, 19120, Note_off_c, 1, 82, 0
2, 19120, Note_off_c, 1, 94, 0
2, 19160, Note_on_c, 1, 33, 127
2, 19160, Note_on_c, 1, 45, 127
2, 19160, Note_on_c, 1, 69, 127
2, 19160, Note_on_c, 1, 74, 127
2, 19160, Note_on_c, 1, 78, 127
2, 19160, Note_on_c, 1, 81, 127
2, 19200, Note_off_c, 1, 33, 0
2, 19200, Note_off_c, 1, 45, 0
2, 19200, Note_on_c, 1, 60, 127
2, 19200, Note_on_c, 1, 65, 127
2, 19200, Note_on_c, 1, 72, 127
2, 19200, Note_off_c, 1, 74, 0
2, 19200, Note_on_c, 1, 77, 127
2, 19200, Note_off_c, 1, 78, 0
2, 19240, Note_off_c, 1, 60, 0
2, 19240, Note_off_c, 1, 65, 0
2, 19240, Note_off_c, 1, 69, 0
2, 19240, Note_off_c, 1, 72, 0
2, 19240, Note_off_c, 1, 77, 0
2, 19240, Note_off_c, 1, 81, 0
2, 19280, Note_on_c, 1, 33, 127
2, 19280, Note_on_c, 1, 45, 127
2, 19280, Note_on_c, 1, 69, 127
2, 19280, Note_on_c, 1, 74, 127
2, 19280, Note_on_c, 1, 78, 127
2, 19280, Note_on_c, 1, 81, 127
2, 19320, Note_off_c, 1, 33, 0
2, 19320, Note_off_c, 1, 45, 0
2, 19320, Note_off_c, 1, 69, 0
2, 19320, Note_off_c, 1, 74, 0
2, 19320, Note_off_c, 1, 78, 0
2, 19320, Note_off_c, 1, 81, 0
2, 19360, Note_on_c, 1, 33, 127
2, 19360, Note_on_c, 1, 45, 127
2, 19360, Note_on_c, 1, 69, 127
2, 19360, Note_on_c, 1, 74, 127
2, 19360, Note_on_c, 1, 78, 127
2, 19360, Note_on_c, 1, 81, 127
2, 19400, Note_off_c, 1, 33, 0
2, 19400, Note_off_c, 1, 45, 0
2, 19400, Note_off_c, 1, 69, 0
2, 19400, Note_off_c, 1, 74, 0
2, 19400, Note_off_c, 1, 78, 0
2, 19400, Note_off_c, 1, 81, 0
2, 19480, Note_on_c, 1, 33, 127
2, 19480, Note_on_c, 1, 45, 127
2, 19480, Note_on_c, 1, 69, 127
2, 19480, Note_on_c, 1, 74, 127
2, 19480, Note_on_c, 1, 78, 127
2, 19480, Note_on_c, 1, 81, 127
2, 19520, Note_off_c, 1, 33, 0
2, 19520, Note_off_c, 1, 45, 0
2, 19520, Note_off_c, 1, 69, 0
2, 19520, Note_off_c, 1, 74, 0
2, 19520, Note_off_c, 1, 78, 0
2, 19520, Note_off_c, 1, 81, 0
2, 19560, Note_on_c, 1, 33, 127
2, 19560, Note_on_c, 1, 45, 127
2, 19560, Note_on_c, 1, 69, 127
2, 19560, Note_on_c, 1, 74, 127
2, 19560, Note_on_c, 1, 78, 127
2, 19560, Note_on_c, 1, 81, 127
2, 19600, Note_off_c, 1, 33, 0
2, 19600, Note_off_c, 1, 45, 0
2, 19600, Note_off_c, 1, 69, 0
2, 19600, Note_off_c, 1, 74, 0
2, 19600, Note_off_c, 1, 78, 0
2, 19600, Note_off_c, 1, 81, 0
2, 19640, Note_on_c, 1, 33, 127
2, 19640, Note_on_c, 1, 45, 127
2, 19640, Note_on_c, 1, 69, 127
2, 19640, Note_on_c, 1, 74, 127
2, 19640, Note_on_c, 1, 78, 127
2, 19640, Note_on_c, 1, 81, 127
2, 19680, Note_off_c, 1, 33, 0
2, 19680, Note_off_c, 1, 45, 0
2, 19680, Note_off_c, 1, 69, 0
2, 19680, Note_off_c, 1, 74, 0
2, 19680, Note_off_c, 1, 78, 0
2, 19680, Note_off_c, 1, 81, 0
2, 19720, Note_on_c, 1, 33, 127
2, 19720, Note_on_c, 1, 45, 127
2, 19720, Note_on_c, 1, 69, 127
2, 19720, Note_on_c, 1, 74, 127
2, 19720, Note_on_c, 1, 78, 127
2, 19720, Note_on_c, 1, 81, 127
2, 19760, Note_off_c, 1, 33, 0
2, 19760, Note_off_c, 1, 45, 0
2, 19760, Note_off_c, 1, 69, 0
2, 19760, Note_off_c, 1, 74, 0
2, 19760, Note_off_c, 1, 78, 0
2, 19760, Note_off_c, 1, 81, 0
2, 19800, Note_on_c, 1, 44, 127
2, 19800, Note_on_c, 1, 69, 127
2, 19800, Note_on_c, 1, 74, 127
2, 19800, Note_on_c, 1, 78, 127
2, 19800, Note_on_c, 1, 81, 127
2, 19880, Note_off_c, 1, 44, 0
2, 19880, Note_off_c, 1, 69, 0
2, 19880, Note_off_c, 1, 74, 0
2, 19880, Note_off_c, 1, 78, 0
2, 19880, Note_off_c, 1, 81, 0
2, 19920, Note_on_c, 1, 44, 127
2, 19920, Note_on_c, 1, 54, 127
2, 19920, Note_on_c, 1, 63, 127
2, 19920, Note_on_c, 1, 68, 127
2, 19920, Note_on_c, 1, 75, 127
2, 19960, Note_off_c, 1, 44, 0
2, 19960, Note_off_c, 1, 54, 0
2, 19960, Note_off_c, 1, 63, 0
2, 19960, Note_off_c, 1, 68, 0
2, 19960, Note_off_c, 1, 75, 0
2, 20000, Note_on_c, 1, 40, 127
2, 20000, Note_on_c, 1, 76, 127
2, 20000, Note_on_c, 1, 88, 127
2, 20040, Note_off_c, 1, 40, 0
2, 20040, Note_off_c, 1, 76, 0
2, 20040, Note_off_c, 1, 88, 0
2, 20080, Note_on_c, 1, 39, 127
2, 20080, Note_on_c, 1, 47, 127
2, 20080, Note_on_c, 1, 61, 127
2, 20080, Note_on_c, 1, 65, 127
2, 20080, Note_on_c, 1, 73, 127
2, 20120, Note_off_c, 1, 39, 0
2, 20120, Note_off_c, 1, 47, 0
2, 20120, Note_off_c, 1, 61, 0
2, 20120, Note_off_c, 1, 65, 0
2, 20120, Note_off_c, 1, 73, 0
2, 20160, Note_on_c, 1, 47, 127
2, 20160, Note_on_c, 1, 54, 127
2, 20160, Note_on_c, 1, 57, 127
2, 20160, Note_on_c, 1, 59, 127
2, 20160, Note_on_c, 1, 63, 127
2, 20160, Note_on_c, 1, 71, 127
2, 20200, Note_off_c, 1, 47, 0
2, 20200, Note_off_c, 1, 54, 0
2, 20200, Note_off_c, 1, 57, 0
2, 20200, Note_off_c, 1, 59, 0
2, 20200, Note_off_c, 1, 63, 0
2, 20200, Note_off_c, 1, 71, 0
2, 20240, Note_on_c, 1, 47, 127
2, 20240, Note_on_c, 1, 54, 127
2, 20240, Note_on_c, 1, 57, 127
2, 20240, Note_on_c, 1, 59, 127
2, 20240, Note_on_c, 1, 63, 127
2, 20240, Note_on_c, 1, 71, 127
2, 20320, Note_off_c, 1, 47, 0
2, 20320, Note_off_c, 1, 54, 0
2, 20320, Note_off_c, 1, 57, 0
2, 20320, Note_off_c, 1, 59, 0
2, 20320, Note_off_c, 1, 63, 0
2, 20320, Note_off_c, 1, 71, 0
2, 20360, Note_on_c, 1, 47, 127
2, 20360, Note_on_c, 1, 54, 127
2, 20360, Note_on_c, 1, 57, 127
2, 20360, Note_on_c, 1, 59, 127
2, 20360, Note_on_c, 1, 63, 127
2, 20360, Note_on_c, 1, 71, 127
2, 20400, Note_off_c, 1, 47, 0
2, 20400, Note_off_c, 1, 54, 0
2, 20400, Note_off_c, 1, 57, 0
2, 20400, Note_off_c, 1, 59, 0
2, 20400, Note_off_c, 1, 63, 0
2, 20400, Note_off_c, 1, 71, 0
2, 20440, Note_on_c, 1, 47, 127
2, 20440, Note_on_c, 1, 54, 127
2, 20440, Note_on_c, 1, 57, 127
2, 20440, Note_on_c, 1, 59, 127
2, 20440, Note_on_c, 1, 63, 127
2, 20440, Note_on_c, 1, 71, 127
2, 20480, Note_off_c, 1, 47, 0
2, 20480, Note_off_c, 1, 54, 0
2, 20480, Note_off_c, 1, 57, 0
2, 20480, Note_off_c, 1, 59, 0
2, 20480, Note_off_c, 1, 63, 0
2, 20480, Note_off_c, 1, 71, 0
2, 20520, Note_on_c, 1, 47, 127
2, 20520, Note_on_c, 1, 54, 127
2, 20520, Note_on_c, 1, 57, 127
2, 20520, Note_on_c, 1, 59, 127
2, 20520, Note_on_c, 1, 63, 127
2, 20520, Note_on_c, 1, 71, 127
2, 20760, Note_off_c, 1, 47, 0
2, 20760, Note_off_c, 1, 54, 0
2, 20760, Note_off_c, 1, 57, 0
2, 20760, Note_off_c, 1, 59, 0
2, 20760, Note_off_c, 1, 63, 0
2, 20760, Note_off_c, 1, 71, 0
2, 20800, Note_on_c, 1, 42, 127
2, 20800, Note_on_c, 1, 54, 127
2, 20840, Note_off_c, 1, 42, 0
2, 20840, Note_off_c, 1, 54, 0
2, 20880, Note_on_c, 1, 49, 127
2, 20880, Note_on_c, 1, 56, 127
2, 20880, Note_on_c, 1, 61, 127
2, 20880, Note_on_c, 1, 65, 127
2, 20880, Note_on_c, 1, 68, 127
2, 20880, Note_on_c, 1, 77, 127
2, 20920, Note_off_c, 1, 49, 0
2, 20920, Note_off_c, 1, 56, 0
2, 20920, Note_off_c, 1, 61, 0
2, 20920, Note_off_c, 1, 65, 0
2, 20920, Note_off_c, 1, 68, 0
2, 20920, Note_off_c, 1, 77, 0
2, 20960, Note_on_c, 1, 49, 127
2, 20960, Note_on_c, 1, 56, 127
2, 20960, Note_on_c, 1, 61, 127
2, 20960, Note_on_c, 1, 65, 127
2, 20960, Note_on_c, 1, 68, 127
2, 20960, Note_on_c, 1, 77, 127
2, 21000, Note_off_c, 1, 49, 0
2, 21000, Note_off_c, 1, 56, 0
2, 21000, Note_off_c, 1, 61, 0
2, 21000, Note_off_c, 1, 65, 0
2, 21000, Note_off_c, 1, 68, 0
2, 21000, Note_off_c, 1, 77, 0
2, 21040, Note_on_c, 1, 49, 127
2, 21040, Note_on_c, 1, 56, 127
2, 21040, Note_on_c, 1, 61, 127
2, 21040, Note_on_c, 1, 65, 127
2, 21040, Note_on_c, 1, 68, 127
2, 21040, Note_on_c, 1, 77, 127
2, 21080, Note_off_c, 1, 49, 0
2, 21080, Note_off_c, 1, 56, 0
2, 21080, Note_off_c, 1, 61, 0
2, 21080, Note_off_c, 1, 65, 0
2, 21080, Note_off_c, 1, 68, 0
2, 21080, Note_off_c, 1, 77, 0
2, 21120, Note_on_c, 1, 49, 127
2, 21120, Note_on_c, 1, 56, 127
2, 21120, Note_on_c, 1, 61, 127
2, 21120, Note_on_c, 1, 65, 127
2, 21120, Note_on_c, 1, 68, 127
2, 21120, Note_on_c, 1, 77, 127
2, 21160, Note_off_c, 1, 49, 0
2, 21160, Note_off_c, 1, 56, 0
2, 21160, Note_off_c, 1, 61, 0
2, 21160, Note_off_c, 1, 65, 0
2, 21160, Note_off_c, 1, 68, 0
2, 21160, Note_off_c, 1, 77, 0
2, 21200, Note_on_c, 1, 61, 127
2, 21200, Note_on_c, 1, 70, 127
2, 21200, Note_on_c, 1, 76, 127
2, 21200, Note_on_c, 1, 88, 127
2, 21240, Note_off_c, 1, 61, 0
2, 21240, Note_off_c, 1, 70, 0
2, 21240, Note_off_c, 1, 76, 0
2, 21240, Note_off_c, 1, 88, 0
2, 21320, Note_on_c, 1, 73, 127
2, 21320, Note_on_c, 1, 78, 127
2, 21320, Note_on_c, 1, 82, 127
2, 21320, Note_on_c, 1, 85, 127
2, 21360, Note_off_c, 1, 73, 0
2, 21360, Note_off_c, 1, 78, 0
2, 21360, Note_off_c, 1, 82, 0
2, 21360, Note_off_c, 1, 85, 0
2, 21400, Note_on_c, 1, 58, 127
2, 21400, Note_on_c, 1, 62, 127
2, 21400, Note_on_c, 1, 67, 127
2, 21400, Note_on_c, 1, 74, 127
2, 21400, Note_on_c, 1, 79, 127
2, 21440, Note_off_c, 1, 58, 0
2, 21440, Note_off_c, 1, 62, 0
2, 21440, Note_off_c, 1, 67, 0
2, 21440, Note_off_c, 1, 74, 0
2, 21440, Note_off_c, 1, 79, 0
2, 21520, Note_on_c, 1, 60, 127
2, 21520, Note_on_c, 1, 62, 127
2, 21520, Note_on_c, 1, 72, 127
2, 21520, Note_on_c, 1, 74, 127
2, 21560, Note_off_c, 1, 60, 0
2, 21560, Note_off_c, 1, 62, 0
2, 21560, Note_off_c, 1, 72, 0
2, 21560, Note_off_c, 1, 74, 0
2, 21600, Note_on_c, 1, 53, 127
2, 21600, Note_on_c, 1, 61, 127
2, 21600, Note_on_c, 1, 65, 127
2, 21600, Note_on_c, 1, 73, 127
2, 21640, Note_off_c, 1, 53, 0
2, 21640, Note_off_c, 1, 61, 0
2, 21640, Note_off_c, 1, 65, 0
2, 21640, Note_off_c, 1, 73, 0
2, 21680, Note_on_c, 1, 53, 127
2, 21680, Note_on_c, 1, 61, 127
2, 21680, Note_on_c, 1, 65, 127
2, 21680, Note_on_c, 1, 73, 127
2, 21760, Note_off_c, 1, 53, 0
2, 21760, Note_off_c, 1, 61, 0
2, 21760, Note_off_c, 1, 65, 0
2, 21760, Note_off_c, 1, 73, 0
2, 21800, Note_on_c, 1, 53, 127
2, 21800, Note_on_c, 1, 61, 127
2, 21800, Note_on_c, 1, 65, 127
2, 21800, Note_on_c, 1, 73, 127
2, 21840, Note_off_c, 1, 53, 0
2, 21840, Note_off_c, 1, 61, 0
2, 21840, Note_off_c, 1, 65, 0
2, 21840, Note_off_c, 1, 73, 0
2, 21880, Note_on_c, 1, 53, 127
2, 21880, Note_on_c, 1, 61, 127
2, 21880, Note_on_c, 1, 65, 127
2, 21880, Note_on_c, 1, 73, 127
2, 21920, Note_off_c, 1, 53, 0
2, 21920, Note_off_c, 1, 61, 0
2, 21920, Note_off_c, 1, 65, 0
2, 21920, Note_off_c, 1, 73, 0
2, 21960, Note_on_c, 1, 53, 127
2, 21960, Note_on_c, 1, 61, 127
2, 21960, Note_on_c, 1, 65, 127
2, 21960, Note_on_c, 1, 73, 127
2, 22080, Note_off_c, 1, 53, 0
2, 22080, Note_off_c, 1, 61, 0
2, 22080, Note_off_c, 1, 65, 0
2, 22080, Note_off_c, 1, 73, 0
2, 22120, Note_on_c, 1, 61, 127
2, 22120, Note_on_c, 1, 73, 127
2, 22240, Note_off_c, 1, 61, 0
2, 22240, Note_off_c, 1, 73, 0
2, 22320, Note_on_c, 1, 61, 127
2, 22320, Note_on_c, 1, 73, 127
2, 22360, Note_off_c, 1, 61, 0
2, 22360, Note_off_c, 1, 73, 0
2, 22400, Note_on_c, 1, 61, 127
2, 22400, Note_on_c, 1, 73, 127
2, 22440, Note_off_c, 1, 61, 0
2, 22440, Note_off_c, 1, 73, 0
2, 22480, Note_on_c, 1, 38, 127
2, 22480, Note_on_c, 1, 50, 127
2, 22480, Note_on_c, 1, 68, 127
2, 22480, Note_on_c, 1, 71, 127
2, 22480, Note_on_c, 1, 74, 127
2, 22480, Note_on_c, 1, 77, 127
2, 22600, Note_off_c, 1, 38, 0
2, 22600, Note_off_c, 1, 50, 0
2, 22600, Note_off_c, 1, 68, 0
2, 22600, Note_off_c, 1, 71, 0
2, 22600, Note_off_c, 1, 74, 0
2, 22600, Note_off_c, 1, 77, 0
2, 22640, Note_on_c, 1, 38, 127
2, 22640, Note_on_c, 1, 50, 127
2, 22640, Note_on_c, 1, 68, 127
2, 22640, Note_on_c, 1, 71, 127
2, 22640, Note_on_c, 1, 74, 127
2, 22640, Note_on_c, 1, 77, 127
2, 22680, Note_off_c, 1, 38, 0
2, 22680, Note_off_c, 1, 50, 0
2, 22680, Note_off_c, 1, 68, 0
2, 22680, Note_off_c, 1, 71, 0
2, 22680, Note_off_c, 1, 74, 0
2, 22680, Note_off_c, 1, 77, 0
2, 22720, Note_on_c, 1, 38, 127
2, 22720, Note_on_c, 1, 50, 127
2, 22720, Note_on_c, 1, 68, 127
2, 22720, Note_on_c, 1, 71, 127
2, 22720, Note_on_c, 1, 74, 127
2, 22720, Note_on_c, 1, 77, 127
2, 22760, Note_off_c, 1, 38, 0
2, 22760, Note_off_c, 1, 50, 0
2, 22760, Note_off_c, 1, 68, 0
2, 22760, Note_off_c, 1, 71, 0
2, 22760, Note_off_c, 1, 74, 0
2, 22760, Note_off_c, 1, 77, 0
2, 22800, Note_on_c, 1, 38, 127
2, 22800, Note_on_c, 1, 50, 127
2, 22800, Note_on_c, 1, 68, 127
2, 22800, Note_on_c, 1, 71, 127
2, 22800, Note_on_c, 1, 74, 127
2, 22800, Note_on_c, 1, 77, 127
2, 22920, Note_off_c, 1, 68, 0
2, 22920, Note_off_c, 1, 71, 0
2, 22920, Note_off_c, 1, 77, 0
2, 23000, Note_on_c, 1, 31, 127
2, 23000, Note_off_c, 1, 38, 0
2, 23000, Note_on_c, 1, 43, 127
2, 23000, Note_off_c, 1, 50, 0
2, 23000, Note_on_c, 1, 52, 127
2, 23000, Note_on_c, 1, 64, 127
2, 23000, Note_off_c, 1, 74, 0
2, 23040, Note_off_c, 1, 31, 0
2, 23040, Note_off_c, 1, 43, 0
2, 23040, Note_off_c, 1, 52, 0
2, 23040, Note_off_c, 1, 64, 0
2, 23080, Note_on_c, 1, 53, 127
2, 23080, Note_on_c, 1, 65, 127
2, 23120, Note_off_c, 1, 53, 0
2, 23120, Note_off_c, 1, 65, 0
2, 23160, Note_on_c, 1, 54, 127
2, 23160, Note_on_c, 1, 66, 127
2, 23320, Note_on_c, 1, 58, 127
2, 23320, Note_on_c, 1, 61, 127
2, 23360, Note_off_c, 1, 58, 0
2, 23360, Note_off_c, 1, 61, 0
2, 23400, Note_on_c, 1, 58, 127
2, 23400, Note_on_c, 1, 61, 127
2, 23440, Note_off_c, 1, 58, 0
2, 23440, Note_off_c, 1, 61, 0
2, 23480, Note_on_c, 1, 57, 127
2, 23480, Note_on_c, 1, 62, 127
2, 23520, Note_off_c, 1, 57, 0
2, 23520, Note_off_c, 1, 62, 0
2, 23560, Note_off_c, 1, 54, 0
2, 23560, Note_off_c, 1, 66, 0
2, 23600, Note_on_c, 1, 42, 127
2, 23600, Note_on_c, 1, 54, 127
2, 23600, Note_on_c, 1, 66, 127
2, 23640, Note_off_c, 1, 42, 0
2, 23640, Note_off_c, 1, 54, 0
2, 23640, Note_off_c, 1, 66, 0
2, 23680, Note_on_c, 1, 61, 127
2, 23680, Note_on_c, 1, 73, 127
2, 23720, Note_off_c, 1, 61, 0
2, 23720, Note_off_c, 1, 73, 0
2, 23760, Note_on_c, 1, 66, 127
2, 23760, Note_on_c, 1, 78, 127
2, 23800, Note_on_c, 1, 67, 127
2, 23800, Note_on_c, 1, 79, 127
2, 23840, Note_off_c, 1, 66, 0
2, 23840, Note_off_c, 1, 67, 0
2, 23840, Note_off_c, 1, 78, 0
2, 23840, Note_off_c, 1, 79, 0
2, 23880, Note_on_c, 1, 65, 127
2, 23880, Note_on_c, 1, 77, 127
2, 23920, Note_on_c, 1, 63, 127
2, 23920, Note_on_c, 1, 75, 127
2, 24080, Note_off_c, 1, 63, 0
2, 24080, Note_off_c, 1, 65, 0
2, 24080, Note_off_c, 1, 75, 0
2, 24080, Note_off_c, 1, 77, 0
2, 24120, Note_on_c, 1, 57, 127
2, 24120, Note_on_c, 1, 61, 127
2, 24120, Note_on_c, 1, 69, 127
2, 24160, Note_off_c, 1, 57, 0
2, 24160, Note_off_c, 1, 61, 0
2, 24160, Note_off_c, 1, 69, 0
2, 24200, Note_on_c, 1, 57, 127
2, 24200, Note_on_c, 1, 69, 127
2, 24240, Note_off_c, 1, 57, 0
2, 24240, Note_off_c, 1, 69, 0
2, 24280, Note_on_c, 1, 52, 127
2, 24280, Note_on_c, 1, 64, 127
2, 24320, Note_off_c, 1, 52, 0
2, 24320, Note_off_c, 1, 64, 0
2, 24360, Note_on_c, 1, 57, 127
2, 24360, Note_on_c, 1, 69, 127
2, 24400, Note_on_c, 1, 55, 127
2, 24400, Note_off_c, 1, 57, 0
2, 24400, Note_on_c, 1, 67, 127
2, 24400, Note_off_c, 1, 69, 0
2, 24400, Note_on_c, 1, 73, 127
2, 24400, Note_on_c, 1, 76, 127
2, 24440, Note_off_c, 1, 55, 0
2, 24440, Note_off_c, 1, 67, 0
2, 24440, Note_off_c, 1, 73, 0
2, 24440, Note_off_c, 1, 76, 0
2, 24480, Note_on_c, 1, 54, 127
2, 24480, Note_on_c, 1, 61, 127
2, 24480, Note_on_c, 1, 64, 127
2, 24480, Note_on_c, 1, 70, 127
2, 24480, Note_on_c, 1, 76, 127
2, 24520, Note_off_c, 1, 54, 0
2, 24520, Note_off_c, 1, 61, 0
2, 24520, Note_off_c, 1, 64, 0
2, 24520, Note_off_c, 1, 70, 0
2, 24520, Note_off_c, 1, 76, 0
2, 24560, Note_on_c, 1, 54, 127
2, 24560, Note_on_c, 1, 66, 127
2, 24560, Note_on_c, 1, 69, 127
2, 24560, Note_on_c, 1, 81, 127
2, 24600, Note_off_c, 1, 54, 0
2, 24600, Note_off_c, 1, 66, 0
2, 24600, Note_off_c, 1, 69, 0
2, 24600, Note_off_c, 1, 81, 0
2, 24640, Note_on_c, 1, 52, 127
2, 24640, Note_on_c, 1, 58, 127
2, 24640, Note_on_c, 1, 60, 127
2, 24640, Note_on_c, 1, 67, 127
2, 24640, Note_on_c, 1, 70, 127
2, 24640, Note_on_c, 1, 72, 127
2, 24680, Note_off_c, 1, 52, 0
2, 24680, Note_off_c, 1, 58, 0
2, 24680, Note_off_c, 1, 60, 0
2, 24680, Note_off_c, 1, 67, 0
2, 24680, Note_off_c, 1, 70, 0
2, 24680, Note_off_c, 1, 72, 0
2, 24720, Note_on_c, 1, 52, 127
2, 24720, Note_on_c, 1, 58, 127
2, 24720, Note_on_c, 1, 60, 127
2, 24720, Note_on_c, 1, 67, 127
2, 24720, Note_on_c, 1, 70, 127
2, 24720, Note_on_c, 1, 72, 127
2, 24760, Note_off_c, 1, 52, 0
2, 24760, Note_off_c, 1, 58, 0
2, 24760, Note_off_c, 1, 60, 0
2, 24760, Note_off_c, 1, 67, 0
2, 24760, Note_off_c, 1, 70, 0
2, 24760, Note_off_c, 1, 72, 0
2, 24800, Note_on_c, 1, 52, 127
2, 24800, Note_on_c, 1, 58, 127
2, 24800, Note_on_c, 1, 60, 127
2, 24800, Note_on_c, 1, 67, 127
2, 24800, Note_on_c, 1, 70, 127
2, 24800, Note_on_c, 1, 72, 127
2, 24840, Note_off_c, 1, 52, 0
2, 24840, Note_off_c, 1, 58, 0
2, 24840, Note_off_c, 1, 60, 0
2, 24840, Note_off_c, 1, 67, 0
2, 24840, Note_off_c, 1, 70, 0
2, 24840, Note_off_c, 1, 72, 0
2, 24880, Note_on_c, 1, 52, 127
2, 24880, Note_on_c, 1, 58, 127
2, 24880, Note_on_c, 1, 60, 127
2, 24880, Note_on_c, 1, 67, 127
2, 24880, Note_on_c, 1, 70, 127
2, 24880, Note_on_c, 1, 72, 127
2, 24920, Note_off_c, 1, 52, 0
2, 24920, Note_off_c, 1, 58, 0
2, 24920, Note_off_c, 1, 60, 0
2, 24920, Note_off_c, 1, 67, 0
2, 24920, Note_off_c, 1, 70, 0
2, 24920, Note_off_c, 1, 72, 0
2, 24960, Note_on_c, 1, 52, 127
2, 24960, Note_on_c, 1, 58, 127
2, 24960, Note_on_c, 1, 60, 127
2, 24960, Note_on_c, 1, 67, 127
2, 24960, Note_on_c, 1, 70, 127
2, 24960, Note_on_c, 1, 72, 127
2, 25040, Note_off_c, 1, 52, 0
2, 25040, Note_off_c, 1, 58, 0
2, 25040, Note_off_c, 1, 60, 0
2, 25040, Note_off_c, 1, 67, 0
2, 25040, Note_off_c, 1, 70, 0
2, 25040, Note_off_c, 1, 72, 0
2, 25080, Note_on_c, 1, 52, 127
2, 25080, Note_on_c, 1, 58, 127
2, 25080, Note_on_c, 1, 60, 127
2, 25080, Note_on_c, 1, 67, 127
2, 25080, Note_on_c, 1, 70, 127
2, 25080, Note_on_c, 1, 72, 127
2, 25120, Note_off_c, 1, 52, 0
2, 25120, Note_off_c, 1, 58, 0
2, 25120, Note_off_c, 1, 60, 0
2, 25120, Note_off_c, 1, 67, 0
2, 25120, Note_off_c, 1, 70, 0
2, 25120, Note_off_c, 1, 72, 0
2, 25160, Note_on_c, 1, 52, 127
2, 25160, Note_on_c, 1, 58, 127
2, 25160, Note_on_c, 1, 60, 127
2, 25160, Note_on_c, 1, 67, 127
2, 25160, Note_on_c, 1, 70, 127
2, 25160, Note_on_c, 1, 72, 127
2, 25200, Note_off_c, 1, 52, 0
2, 25200, Note_off_c, 1, 58, 0
2, 25200, Note_off_c, 1, 60, 0
2, 25200, Note_off_c, 1, 67, 0
2, 25200, Note_off_c, 1, 70, 0
2, 25200, Note_off_c, 1, 72, 0
2, 25240, Note_on_c, 1, 52, 127
2, 25240, Note_on_c, 1, 58, 127
2, 25240, Note_on_c, 1, 60, 127
2, 25240, Note_on_c, 1, 67, 127
2, 25240, Note_on_c, 1, 70, 127
2, 25240, Note_on_c, 1, 72, 127
2, 25280, Note_off_c, 1, 52, 0
2, 25280, Note_off_c, 1, 58, 0
2, 25280, Note_off_c, 1, 60, 0
2, 25280, Note_off_c, 1, 67, 0
2, 25280, Note_off_c, 1, 70, 0
2, 25280, Note_off_c, 1, 72, 0
2, 25320, Note_on_c, 1, 52, 127
2, 25320, Note_on_c, 1, 58, 127
2, 25320, Note_on_c, 1, 60, 127
2, 25320, Note_on_c, 1, 67, 127
2, 25320, Note_on_c, 1, 70, 127
2, 25320, Note_on_c, 1, 72, 127
2, 25360, Note_off_c, 1, 52, 0
2, 25360, Note_off_c, 1, 58, 0
2, 25360, Note_off_c, 1, 60, 0
2, 25360, Note_off_c, 1, 67, 0
2, 25360, Note_off_c, 1, 70, 0
2, 25360, Note_off_c, 1, 72, 0
2, 25400, Note_on_c, 1, 52, 127
2, 25400, Note_on_c, 1, 58, 127
2, 25400, Note_on_c, 1, 60, 127
2, 25400, Note_on_c, 1, 67, 127
2, 25400, Note_on_c, 1, 70, 127
2, 25400, Note_on_c, 1, 72, 127
2, 25480, Note_off_c, 1, 52, 0
2, 25480, Note_off_c, 1, 58, 0
2, 25480, Note_off_c, 1, 60, 0
2, 25480, Note_off_c, 1, 67, 0
2, 25480, Note_off_c, 1, 70, 0
2, 25480, Note_off_c, 1, 72, 0
2, 25520, Note_on_c, 1, 59, 127
2, 25520, Note_on_c, 1, 71, 127
2, 25560, Note_off_c, 1, 59, 0
2, 25560, Note_off_c, 1, 71, 0
2, 25600, Note_on_c, 1, 52, 127
2, 25600, Note_on_c, 1, 58, 127
2, 25600, Note_on_c, 1, 60, 127
2, 25600, Note_on_c, 1, 67, 127
2, 25600, Note_on_c, 1, 70, 127
2, 25600, Note_on_c, 1, 72, 127
2, 25640, Note_off_c, 1, 52, 0
2, 25640, Note_off_c, 1, 58, 0
2, 25640, Note_off_c, 1, 60, 0
2, 25640, Note_off_c, 1, 67, 0
2, 25640, Note_off_c, 1, 70, 0
2, 25640, Note_off_c, 1, 72, 0
2, 25680, Note_on_c, 1, 52, 127
2, 25680, Note_on_c, 1, 58, 127
2, 25680, Note_on_c, 1, 60, 127
2, 25680, Note_on_c, 1, 67, 127
2, 25680, Note_on_c, 1, 70, 127
2, 25680, Note_on_c, 1, 72, 127
2, 25720, Note_off_c, 1, 52, 0
2, 25720, Note_off_c, 1, 58, 0
2, 25720, Note_off_c, 1, 60, 0
2, 25720, Note_off_c, 1, 67, 0
2, 25720, Note_off_c, 1, 70, 0
2, 25720, Note_off_c, 1, 72, 0
2, 25760, Note_on_c, 1, 52, 127
2, 25760, Note_on_c, 1, 58, 127
2, 25760, Note_on_c, 1, 60, 127
2, 25760, Note_on_c, 1, 67, 127
2, 25760, Note_on_c, 1, 70, 127
2, 25760, Note_on_c, 1, 72, 127
2, 25800, Note_off_c, 1, 52, 0
2, 25800, Note_off_c, 1, 58, 0
2, 25800, Note_off_c, 1, 60, 0
2, 25800, Note_off_c, 1, 67, 0
2, 25800, Note_off_c, 1, 70, 0
2, 25800, Note_off_c, 1, 72, 0
2, 25840, Note_on_c, 1, 52, 127
2, 25840, Note_on_c, 1, 58, 127
2, 25840, Note_on_c, 1, 60, 127
2, 25840, Note_on_c, 1, 67, 127
2, 25840, Note_on_c, 1, 70, 127
2, 25840, Note_on_c, 1, 72, 127
2, 25880, Note_off_c, 1, 52, 0
2, 25880, Note_off_c, 1, 58, 0
2, 25880, Note_off_c, 1, 60, 0
2, 25880, Note_off_c, 1, 67, 0
2, 25880, Note_off_c, 1, 70, 0
2, 25880, Note_off_c, 1, 72, 0
2, 25920, Note_on_c, 1, 52, 127
2, 25920, Note_on_c, 1, 58, 127
2, 25920, Note_on_c, 1, 60, 127
2, 25920, Note_on_c, 1, 67, 127
2, 25920, Note_on_c, 1, 70, 127
2, 25920, Note_on_c, 1, 72, 127
2, 25960, Note_off_c, 1, 52, 0
2, 25960, Note_off_c, 1, 58, 0
2, 25960, Note_off_c, 1, 60, 0
2, 25960, Note_off_c, 1, 67, 0
2, 25960, Note_off_c, 1, 70, 0
2, 25960, Note_off_c, 1, 72, 0
2, 26000, Note_on_c, 1, 52, 127
2, 26000, Note_on_c, 1, 58, 127
2, 26000, Note_on_c, 1, 60, 127
2, 26000, Note_on_c, 1, 67, 127
2, 26000, Note_on_c, 1, 70, 127
2, 26000, Note_on_c, 1, 72, 127
2, 26040, Note_off_c, 1, 52, 0
2, 26040, Note_off_c, 1, 58, 0
2, 26040, Note_off_c, 1, 60, 0
2, 26040, Note_off_c, 1, 67, 0
2, 26040, Note_off_c, 1, 70, 0
2, 26040, Note_off_c, 1, 72, 0
2, 26080, Note_on_c, 1, 52, 127
2, 26080, Note_on_c, 1, 58, 127
2, 26080, Note_on_c, 1, 60, 127
2, 26080, Note_on_c, 1, 67, 127
2, 26080, Note_on_c, 1, 70, 127
2, 26080, Note_on_c, 1, 72, 127
2, 26120, Note_off_c, 1, 52, 0
2, 26120, Note_off_c, 1, 58, 0
2, 26120, Note_off_c, 1, 60, 0
2, 26120, Note_off_c, 1, 67, 0
2, 26120, Note_off_c, 1, 70, 0
2, 26120, Note_off_c, 1, 72, 0
2, 26160, Note_on_c, 1, 52, 127
2, 26160, Note_on_c, 1, 58, 127
2, 26160, Note_on_c, 1, 60, 127
2, 26160, Note_on_c, 1, 67, 127
2, 26160, Note_on_c, 1, 70, 127
2, 26160, Note_on_c, 1, 72, 127
2, 26200, Note_off_c, 1, 52, 0
2, 26200, Note_off_c, 1, 60, 0
2, 26200, Note_off_c, 1, 67, 0
2, 26200, Note_off_c, 1, 72, 0
2, 26240, Note_on_c, 1, 52, 127
2, 26240, Note_on_c, 1, 60, 127
2, 26240, Note_on_c, 1, 67, 127
2, 26240, Note_on_c, 1, 72, 127
2, 26320, Note_off_c, 1, 52, 0
2, 26320, Note_off_c, 1, 60, 0
2, 26320, Note_off_c, 1, 67, 0
2, 26320, Note_off_c, 1, 72, 0
2, 26400, Note_on_c, 1, 44, 127
2, 26400, Note_on_c, 1, 56, 127
2, 26400, Note_off_c, 1, 58, 0
2, 26400, Note_on_c, 1, 64, 127
2, 26400, Note_off_c, 1, 70, 0
2, 26400, Note_on_c, 1, 72, 127
2, 26400, Note_on_c, 1, 76, 127
2, 26440, Note_off_c, 1, 44, 0
2, 26440, Note_off_c, 1, 56, 0
2, 26440, Note_off_c, 1, 64, 0
2, 26440, Note_off_c, 1, 72, 0
2, 26440, Note_off_c, 1, 76, 0
2, 26480, Note_on_c, 1, 56, 127
2, 26480, Note_on_c, 1, 63, 127
2, 26480, Note_on_c, 1, 66, 127
2, 26480, Note_on_c, 1, 72, 127
2, 26480, Note_on_c, 1, 75, 127
2, 26520, Note_off_c, 1, 56, 0
2, 26520, Note_off_c, 1, 63, 0
2, 26520, Note_off_c, 1, 66, 0
2, 26520, Note_off_c, 1, 72, 0
2, 26520, Note_off_c, 1, 75, 0
2, 26600, Note_on_c, 1, 57, 127
2, 26600, Note_on_c, 1, 69, 127
2, 26640, Note_off_c, 1, 57, 0
2, 26640, Note_off_c, 1, 69, 0
2, 26680, Note_on_c, 1, 61, 127
2, 26680, Note_on_c, 1, 73, 127
2, 26720, Note_off_c, 1, 61, 0
2, 26720, Note_off_c, 1, 73, 0
2, 26760, Note_on_c, 1, 61, 127
2, 26760, Note_on_c, 1, 73, 127
2, 26800, Note_off_c, 1, 61, 0
2, 26800, Note_off_c, 1, 73, 0
2, 26840, Note_on_c, 1, 61, 127
2, 26840, Note_on_c, 1, 73, 127
2, 26880, Note_off_c, 1, 61, 0
2, 26880, Note_off_c, 1, 73, 0
2, 26920, Note_on_c, 1, 58, 127
2, 26920, Note_on_c, 1, 63, 127
2, 26920, Note_on_c, 1, 70, 127
2, 26920, Note_on_c, 1, 75, 127
2, 26960, Note_off_c, 1, 58, 0
2, 26960, Note_on_c, 1, 61, 127
2, 26960, Note_off_c, 1, 63, 0
2, 26960, Note_on_c, 1, 68, 127
2, 26960, Note_off_c, 1, 70, 0
2, 26960, Note_on_c, 1, 77, 127
2, 26960, Note_on_c, 1, 80, 127
2, 27000, Note_off_c, 1, 61, 0
2, 27000, Note_off_c, 1, 68, 0
2, 27000, Note_off_c, 1, 75, 0
2, 27000, Note_off_c, 1, 77, 0
2, 27000, Note_off_c, 1, 80, 0
2, 27040, Note_on_c, 1, 61, 127
2, 27040, Note_on_c, 1, 73, 127
2, 27080, Note_off_c, 1, 61, 0
2, 27080, Note_off_c, 1, 73, 0
2, 27120, Note_on_c, 1, 63, 127
2, 27120, Note_on_c, 1, 72, 127
2, 27120, Note_on_c, 1, 75, 127
2, 27120, Note_on_c, 1, 84, 127
2, 27160, Note_off_c, 1, 63, 0
2, 27160, Note_off_c, 1, 72, 0
2, 27160, Note_off_c, 1, 75, 0
2, 27160, Note_off_c, 1, 84, 0
2, 27200, Note_on_c, 1, 59, 127
2, 27200, Note_on_c, 1, 68, 127
2, 27200, Note_on_c, 1, 71, 127
2, 27200, Note_on_c, 1, 80, 127
2, 27240, Note_off_c, 1, 59, 0
2, 27240, Note_off_c, 1, 68, 0
2, 27240, Note_off_c, 1, 71, 0
2, 27240, Note_off_c, 1, 80, 0
2, 27280, Note_on_c, 1, 61, 127
2, 27280, Note_on_c, 1, 70, 127
2, 27280, Note_on_c, 1, 73, 127
2, 27280, Note_on_c, 1, 82, 127
2, 27320, Note_off_c, 1, 61, 0
2, 27320, Note_off_c, 1, 70, 0
2, 27320, Note_off_c, 1, 73, 0
2, 27320, Note_off_c, 1, 82, 0
2, 27360, Note_on_c, 1, 61, 127
2, 27360, Note_on_c, 1, 70, 127
2, 27360, Note_on_c, 1, 73, 127
2, 27360, Note_on_c, 1, 82, 127
2, 27400, Note_off_c, 1, 61, 0
2, 27400, Note_off_c, 1, 70, 0
2, 27400, Note_off_c, 1, 73, 0
2, 27400, Note_off_c, 1, 82, 0
2, 27440, Note_on_c, 1, 61, 127
2, 27440, Note_on_c, 1, 70, 127
2, 27440, Note_on_c, 1, 73, 127
2, 27440, Note_on_c, 1, 82, 127
2, 27480, Note_off_c, 1, 61, 0
2, 27480, Note_off_c, 1, 70, 0
2, 27480, Note_off_c, 1, 73, 0
2, 27480, Note_off_c, 1, 82, 0
2, 27520, Note_on_c, 1, 61, 127
2, 27520, Note_on_c, 1, 70, 127
2, 27520, Note_on_c, 1, 73, 127
2, 27520, Note_on_c, 1, 82, 127
2, 27560, Note_off_c, 1, 61, 0
2, 27560, Note_off_c, 1, 70, 0
2, 27560, Note_off_c, 1, 73, 0
2, 27560, Note_off_c, 1, 82, 0
2, 27640, Note_on_c, 1, 59, 127
2, 27640, Note_on_c, 1, 68, 127
2, 27640, Note_on_c, 1, 71, 127
2, 27640, Note_on_c, 1, 80, 127
2, 27680, Note_off_c, 1, 59, 0
2, 27680, Note_off_c, 1, 68, 0
2, 27680, Note_off_c, 1, 71, 0
2, 27680, Note_off_c, 1, 80, 0
2, 27720, Note_on_c, 1, 59, 127
2, 27720, Note_on_c, 1, 68, 127
2, 27720, Note_on_c, 1, 71, 127
2, 27720, Note_on_c, 1, 80, 127
2, 27760, Note_off_c, 1, 59, 0
2, 27760, Note_off_c, 1, 68, 0
2, 27760, Note_off_c, 1, 71, 0
2, 27760, Note_off_c, 1, 80, 0
2, 27800, Note_on_c, 1, 58, 127
2, 27800, Note_on_c, 1, 66, 127
2, 27800, Note_on_c, 1, 70, 127
2, 27800, Note_on_c, 1, 78, 127
2, 27840, Note_off_c, 1, 58, 0
2, 27840, Note_off_c, 1, 66, 0
2, 27840, Note_off_c, 1, 70, 0
2, 27840, Note_off_c, 1, 78, 0
2, 27880, Note_on_c, 1, 58, 127
2, 27880, Note_on_c, 1, 66, 127
2, 27880, Note_on_c, 1, 70, 127
2, 27880, Note_on_c, 1, 78, 127
2, 27920, Note_off_c, 1, 58, 0
2, 27920, Note_off_c, 1, 66, 0
2, 27920, Note_off_c, 1, 70, 0
2, 27920, Note_off_c, 1, 78, 0
2, 28000, Note_on_c, 1, 58, 127
2, 28000, Note_on_c, 1, 66, 127
2, 28000, Note_on_c, 1, 70, 127
2, 28000, Note_on_c, 1, 78, 127
2, 28040, Note_off_c, 1, 58, 0
2, 28040, Note_off_c, 1, 66, 0
2, 28040, Note_off_c, 1, 70, 0
2, 28040, Note_off_c, 1, 78, 0
2, 28080, Note_on_c, 1, 58, 127
2, 28080, Note_on_c, 1, 66, 127
2, 28080, Note_on_c, 1, 70, 127
2, 28080, Note_on_c, 1, 78, 127
2, 28120, Note_off_c, 1, 58, 0
2, 28120, Note_off_c, 1, 66, 0
2, 28120, Note_off_c, 1, 70, 0
2, 28120, Note_off_c, 1, 78, 0
2, 28160, Note_on_c, 1, 58, 127
2, 28160, Note_on_c, 1, 66, 127
2, 28160, Note_on_c, 1, 70, 127
2, 28160, Note_on_c, 1, 78, 127
2, 28240, Note_off_c, 1, 58, 0
2, 28240, Note_off_c, 1, 66, 0
2, 28240, Note_off_c, 1, 70, 0
2, 28240, Note_off_c, 1, 78, 0
2, 28280, Note_on_c, 1, 58, 127
2, 28280, Note_on_c, 1, 61, 127
2, 28280, Note_on_c, 1, 70, 127
2, 28280, Note_on_c, 1, 73, 127
2, 28320, Note_off_c, 1, 58, 0
2, 28320, Note_off_c, 1, 61, 0
2, 28320, Note_off_c, 1, 70, 0
2, 28320, Note_off_c, 1, 73, 0
2, 28360, Note_on_c, 1, 54, 127
2, 28360, Note_on_c, 1, 61, 127
2, 28360, Note_on_c, 1, 70, 127
2, 28360, Note_on_c, 1, 76, 127
2, 28400, Note_off_c, 1, 54, 0
2, 28400, Note_off_c, 1, 61, 0
2, 28400, Note_off_c, 1, 70, 0
2, 28400, Note_off_c, 1, 76, 0
2, 28440, Note_on_c, 1, 55, 127
2, 28440, Note_on_c, 1, 67, 127
2, 28440, Note_on_c, 1, 70, 127
2, 28440, Note_on_c, 1, 75, 127
2, 28480, Note_off_c, 1, 55, 0
2, 28480, Note_off_c, 1, 67, 0
2, 28480, Note_off_c, 1, 70, 0
2, 28480, Note_off_c, 1, 75, 0
2, 28520, Note_on_c, 1, 61, 127
2, 28520, Note_on_c, 1, 65, 127
2, 28520, Note_on_c, 1, 73, 127
2, 28520, Note_on_c, 1, 77, 127
2, 28560, Note_off_c, 1, 61, 0
2, 28560, Note_off_c, 1, 65, 0
2, 28560, Note_off_c, 1, 73, 0
2, 28560, Note_off_c, 1, 77, 0
2, 28600, Note_on_c, 1, 60, 127
2, 28600, Note_on_c, 1, 61, 127
2, 28600, Note_on_c, 1, 72, 127
2, 28600, Note_on_c, 1, 73, 127
2, 28640, Note_off_c, 1, 60, 0
2, 28640, Note_off_c, 1, 61, 0
2, 28640, Note_off_c, 1, 72, 0
2, 28640, Note_off_c, 1, 73, 0
2, 28680, Note_on_c, 1, 55, 127
2, 28680, Note_on_c, 1, 62, 127
2, 28680, Note_on_c, 1, 67, 127
2, 28680, Note_on_c, 1, 74, 127
2, 28720, Note_off_c, 1, 55, 0
2, 28720, Note_on_c, 1, 58, 127
2, 28720, Note_off_c, 1, 62, 0
2, 28720, Note_off_c, 1, 67, 0
2, 28720, Note_off_c, 1, 74, 0
2, 28760, Note_off_c, 1, 58, 0
2, 28800, Note_on_c, 1, 54, 127
2, 28800, Note_on_c, 1, 58, 127
2, 28800, Note_on_c, 1, 66, 127
2, 28800, Note_on_c, 1, 70, 127
2, 28840, Note_off_c, 1, 54, 0
2, 28840, Note_off_c, 1, 58, 0
2, 28840, Note_off_c, 1, 66, 0
2, 28840, Note_off_c, 1, 70, 0
2, 28880, Note_on_c, 1, 54, 127
2, 28880, Note_on_c, 1, 58, 127
2, 28880, Note_on_c, 1, 66, 127
2, 28880, Note_on_c, 1, 70, 127
2, 28920, Note_off_c, 1, 54, 0
2, 28920, Note_off_c, 1, 58, 0
2, 28920, Note_off_c, 1, 66, 0
2, 28920, Note_off_c, 1, 70, 0
2, 28960, Note_on_c, 1, 54, 127
2, 28960, Note_on_c, 1, 58, 127
2, 28960, Note_on_c, 1, 66, 127
2, 28960, Note_on_c, 1, 70, 127
2, 29000, Note_off_c, 1, 54, 0
2, 29000, Note_off_c, 1, 58, 0
2, 29000, Note_off_c, 1, 66, 0
2, 29000, Note_off_c, 1, 70, 0
2, 29040, Note_on_c, 1, 55, 127
2, 29040, Note_on_c, 1, 57, 127
2, 29040, Note_on_c, 1, 67, 127
2, 29040, Note_on_c, 1, 69, 127
2, 29080, Note_off_c, 1, 55, 0
2, 29080, Note_off_c, 1, 57, 0
2, 29080, Note_off_c, 1, 67, 0
2, 29080, Note_off_c, 1, 69, 0
2, 29120, Note_on_c, 1, 51, 127
2, 29120, Note_on_c, 1, 54, 127
2, 29120, Note_on_c, 1, 63, 127
2, 29120, Note_on_c, 1, 66, 127
2, 29160, Note_off_c, 1, 51, 0
2, 29160, Note_off_c, 1, 54, 0
2, 29160, Note_off_c, 1, 63, 0
2, 29160, Note_off_c, 1, 66, 0
2, 29200, Note_on_c, 1, 51, 127
2, 29200, Note_on_c, 1, 54, 127
2, 29200, Note_on_c, 1, 63, 127
2, 29200, Note_on_c, 1, 66, 127
2, 29280, Note_off_c, 1, 51, 0
2, 29280, Note_off_c, 1, 54, 0
2, 29280, Note_off_c, 1, 63, 0
2, 29280, Note_off_c, 1, 66, 0
2, 29320, Note_on_c, 1, 56, 127
2, 29320, Note_on_c, 1, 59, 127
2, 29320, Note_on_c, 1, 65, 127
2, 29320, Note_on_c, 1, 71, 127
2, 29360, Note_off_c, 1, 56, 0
2, 29360, Note_off_c, 1, 59, 0
2, 29360, Note_off_c, 1, 65, 0
2, 29360, Note_off_c, 1, 71, 0
2, 29400, Note_on_c, 1, 57, 127
2, 29400, Note_on_c, 1, 64, 127
2, 29400, Note_on_c, 1, 72, 127
2, 29440, Note_off_c, 1, 57, 0
2, 29440, Note_off_c, 1, 64, 0
2, 29440, Note_off_c, 1, 72, 0
2, 29480, Note_on_c, 1, 49, 127
2, 29480, Note_on_c, 1, 62, 127
2, 29480, Note_on_c, 1, 65, 127
2, 29480, Note_on_c, 1, 69, 127
2, 29520, Note_off_c, 1, 49, 0
2, 29520, Note_off_c, 1, 62, 0
2, 29520, Note_off_c, 1, 65, 0
2, 29520, Note_off_c, 1, 69, 0
2, 29560, Note_on_c, 1, 55, 127
2, 29560, Note_on_c, 1, 67, 127
2, 29560, Note_on_c, 1, 73, 127
2, 29560, Note_on_c, 1, 78, 127
2, 29600, Note_off_c, 1, 55, 0
2, 29600, Note_off_c, 1, 67, 0
2, 29600, Note_off_c, 1, 73, 0
2, 29600, Note_off_c, 1, 78, 0
2, 29640, Note_on_c, 1, 43, 127
2, 29640, Note_on_c, 1, 68, 127
2, 29640, Note_on_c, 1, 75, 127
2, 29680, Note_off_c, 1, 43, 0
2, 29680, Note_off_c, 1, 68, 0
2, 29680, Note_off_c, 1, 75, 0
2, 29720, Note_on_c, 1, 43, 127
2, 29720, Note_on_c, 1, 68, 127
2, 29720, Note_on_c, 1, 75, 127
2, 29760, Note_off_c, 1, 43, 0
2, 29760, Note_off_c, 1, 68, 0
2, 29760, Note_off_c, 1, 75, 0
2, 29800, Note_on_c, 1, 43, 127
2, 29800, Note_on_c, 1, 68, 127
2, 29800, Note_on_c, 1, 75, 127
2, 29880, Note_off_c, 1, 43, 0
2, 29880, Note_off_c, 1, 68, 0
2, 29880, Note_off_c, 1, 75, 0
2, 29920, Note_on_c, 1, 32, 127
2, 29920, Note_on_c, 1, 44, 127
2, 29920, Note_on_c, 1, 79, 127
2, 29920, Note_on_c, 1, 87, 127
2, 29920, Note_on_c, 1, 91, 127
2, 29960, Note_off_c, 1, 32, 0
2, 29960, Note_off_c, 1, 44, 0
2, 29960, Note_off_c, 1, 79, 0
2, 29960, Note_off_c, 1, 87, 0
2, 29960, Note_off_c, 1, 91, 0
2, 30000, Note_on_c, 1, 37, 127
2, 30000, Note_on_c, 1, 49, 127
2, 30000, Note_on_c, 1, 77, 127
2, 30000, Note_on_c, 1, 89, 127
2, 30040, Note_off_c, 1, 37, 0
2, 30040, Note_off_c, 1, 49, 0
2, 30040, Note_off_c, 1, 77, 0
2, 30040, Note_off_c, 1, 89, 0
2, 30120, Note_on_c, 1, 33, 127
2, 30120, Note_on_c, 1, 45, 127
2, 30120, Note_on_c, 1, 69, 127
2, 30120, Note_on_c, 1, 73, 127
2, 30120, Note_on_c, 1, 81, 127
2, 30160, Note_off_c, 1, 33, 0
2, 30160, Note_off_c, 1, 45, 0
2, 30160, Note_off_c, 1, 69, 0
2, 30160, Note_off_c, 1, 73, 0
2, 30160, Note_off_c, 1, 81, 0
2, 30200, Note_on_c, 1, 33, 127
2, 30200, Note_on_c, 1, 45, 127
2, 30200, Note_on_c, 1, 69, 127
2, 30200, Note_on_c, 1, 73, 127
2, 30200, Note_on_c, 1, 81, 127
2, 30320, Note_off_c, 1, 33, 0
2, 30320, Note_off_c, 1, 45, 0
2, 30320, Note_off_c, 1, 69, 0
2, 30320, Note_off_c, 1, 73, 0
2, 30320, Note_off_c, 1, 81, 0
2, 30400, Note_on_c, 1, 44, 127
2, 30400, Note_on_c, 1, 56, 127
2, 30400, Note_on_c, 1, 71, 127
2, 30400, Note_on_c, 1, 75, 127
2, 30400, Note_on_c, 1, 80, 127
2, 30400, Note_on_c, 1, 83, 127
2, 30440, Note_off_c, 1, 44, 0
2, 30440, Note_off_c, 1, 56, 0
2, 30440, Note_off_c, 1, 71, 0
2, 30440, Note_off_c, 1, 75, 0
2, 30440, Note_off_c, 1, 80, 0
2, 30440, Note_off_c, 1, 83, 0
2, 30480, Note_on_c, 1, 44, 127
2, 30480, Note_on_c, 1, 56, 127
2, 30480, Note_on_c, 1, 71, 127
2, 30480, Note_on_c, 1, 75, 127
2, 30480, Note_on_c, 1, 80, 127
2, 30480, Note_on_c, 1, 83, 127
2, 30520, Note_off_c, 1, 44, 0
2, 30520, Note_off_c, 1, 56, 0
2, 30520, Note_off_c, 1, 71, 0
2, 30520, Note_off_c, 1, 75, 0
2, 30520, Note_off_c, 1, 80, 0
2, 30520, Note_off_c, 1, 83, 0
2, 30560, Note_on_c, 1, 46, 127
2, 30560, Note_on_c, 1, 58, 127
2, 30560, Note_on_c, 1, 70, 127
2, 30560, Note_on_c, 1, 73, 127
2, 30560, Note_on_c, 1, 78, 127
2, 30560, Note_on_c, 1, 82, 127
2, 30600, Note_off_c, 1, 46, 0
2, 30600, Note_off_c, 1, 58, 0
2, 30600, Note_off_c, 1, 70, 0
2, 30600, Note_off_c, 1, 73, 0
2, 30600, Note_off_c, 1, 78, 0
2, 30600, Note_off_c, 1, 82, 0
2, 30640, Note_on_c, 1, 46, 127
2, 30640, Note_on_c, 1, 58, 127
2, 30640, Note_on_c, 1, 70, 127
2, 30640, Note_on_c, 1, 73, 127
2, 30640, Note_on_c, 1, 78, 127
2, 30640, Note_on_c, 1, 82, 127
2, 30680, Note_off_c, 1, 46, 0
2, 30680, Note_off_c, 1, 58, 0
2, 30680, Note_off_c, 1, 70, 0
2, 30680, Note_off_c, 1, 73, 0
2, 30680, Note_off_c, 1, 78, 0
2, 30680, Note_off_c, 1, 82, 0
2, 30720, Note_on_c, 1, 46, 127
2, 30720, Note_on_c, 1, 58, 127
2, 30720, Note_on_c, 1, 70, 127
2, 30720, Note_on_c, 1, 73, 127
2, 30720, Note_on_c, 1, 78, 127
2, 30720, Note_on_c, 1, 82, 127
2, 30760, Note_off_c, 1, 46, 0
2, 30760, Note_off_c, 1, 58, 0
2, 30760, Note_off_c, 1, 70, 0
2, 30760, Note_off_c, 1, 73, 0
2, 30760, Note_off_c, 1, 78, 0
2, 30760, Note_off_c, 1, 82, 0
2, 30800, Note_on_c, 1, 46, 127
2, 30800, Note_on_c, 1, 58, 127
2, 30800, Note_on_c, 1, 70, 127
2, 30800, Note_on_c, 1, 73, 127
2, 30800, Note_on_c, 1, 78, 127
2, 30800, Note_on_c, 1, 82, 127
2, 30840, Note_off_c, 1, 46, 0
2, 30840, Note_off_c, 1, 58, 0
2, 30840, Note_off_c, 1, 70, 0
2, 30840, Note_off_c, 1, 73, 0
2, 30840, Note_off_c, 1, 78, 0
2, 30840, Note_off_c, 1, 82, 0
2, 30880, Note_on_c, 1, 46, 127
2, 30880, Note_on_c, 1, 58, 127
2, 30880, Note_on_c, 1, 70, 127
2, 30880, Note_on_c, 1, 73, 127
2, 30880, Note_on_c, 1, 78, 127
2, 30880, Note_on_c, 1, 82, 127
2, 30920, Note_off_c, 1, 46, 0
2, 30920, Note_off_c, 1, 58, 0
2, 30920, Note_off_c, 1, 70, 0
2, 30920, Note_off_c, 1, 73, 0
2, 30920, Note_off_c, 1, 78, 0
2, 30920, Note_off_c, 1, 82, 0
2, 30960, Note_on_c, 1, 46, 127
2, 30960, Note_on_c, 1, 58, 127
2, 30960, Note_on_c, 1, 70, 127
2, 30960, Note_on_c, 1, 73, 127
2, 30960, Note_on_c, 1, 78, 127
2, 30960, Note_on_c, 1, 82, 127
2, 31000, Note_off_c, 1, 46, 0
2, 31000, Note_off_c, 1, 58, 0
2, 31000, Note_off_c, 1, 70, 0
2, 31000, Note_off_c, 1, 73, 0
2, 31000, Note_off_c, 1, 78, 0
2, 31000, Note_off_c, 1, 82, 0
2, 31080, Note_on_c, 1, 54, 127
2, 31080, Note_on_c, 1, 66, 127
2, 31080, Note_on_c, 1, 73, 127
2, 31080, Note_on_c, 1, 82, 127
2, 31080, Note_on_c, 1, 85, 127
2, 31120, Note_off_c, 1, 54, 0
2, 31120, Note_off_c, 1, 66, 0
2, 31120, Note_off_c, 1, 73, 0
2, 31120, Note_off_c, 1, 82, 0
2, 31120, Note_off_c, 1, 85, 0
2, 31160, Note_on_c, 1, 54, 127
2, 31160, Note_on_c, 1, 66, 127
2, 31160, Note_on_c, 1, 73, 127
2, 31160, Note_on_c, 1, 82, 127
2, 31160, Note_on_c, 1, 85, 127
2, 31200, Note_off_c, 1, 54, 0
2, 31200, Note_off_c, 1, 66, 0
2, 31200, Note_off_c, 1, 73, 0
2, 31200, Note_off_c, 1, 82, 0
2, 31200, Note_off_c, 1, 85, 0
2, 31240, Note_on_c, 1, 54, 127
2, 31240, Note_on_c, 1, 66, 127
2, 31240, Note_on_c, 1, 73, 127
2, 31240, Note_on_c, 1, 82, 127
2, 31240, Note_on_c, 1, 85, 127
2, 31280, Note_off_c, 1, 54, 0
2, 31280, Note_off_c, 1, 66, 0
2, 31280, Note_off_c, 1, 73, 0
2, 31280, Note_off_c, 1, 82, 0
2, 31280, Note_off_c, 1, 85, 0
2, 31320, Note_on_c, 1, 54, 127
2, 31320, Note_on_c, 1, 66, 127
2, 31320, Note_on_c, 1, 73, 127
2, 31320, Note_on_c, 1, 82, 127
2, 31320, Note_on_c, 1, 85, 127
2, 31360, Note_off_c, 1, 54, 0
2, 31360, Note_off_c, 1, 66, 0
2, 31360, Note_off_c, 1, 73, 0
2, 31360, Note_off_c, 1, 82, 0
2, 31360, Note_off_c, 1, 85, 0
2, 31400, Note_on_c, 1, 54, 127
2, 31400, Note_on_c, 1, 66, 127
2, 31400, Note_on_c, 1, 73, 127
2, 31400, Note_on_c, 1, 82, 127
2, 31400, Note_on_c, 1, 85, 127
2, 31480, Note_off_c, 1, 54, 0
2, 31480, Note_off_c, 1, 66, 0
2, 31480, Note_off_c, 1, 73, 0
2, 31480, Note_off_c, 1, 82, 0
2, 31480, Note_off_c, 1, 85, 0
2, 31760, Note_on_c, 1, 46, 127
2, 31760, Note_on_c, 1, 58, 127
2, 31760, Note_on_c, 1, 70, 127
2, 31760, Note_on_c, 1, 82, 127
2, 31800, Note_off_c, 1, 46, 0
2, 31800, Note_off_c, 1, 58, 0
2, 31800, Note_off_c, 1, 70, 0
2, 31800, Note_off_c, 1, 82, 0
2, 31920, Note_on_c, 1, 44, 127
2, 31920, Note_on_c, 1, 56, 127
2, 31920, Note_on_c, 1, 68, 127
2, 31920, Note_on_c, 1, 80, 127
2, 31960, Note_off_c, 1, 44, 0
2, 31960, Note_off_c, 1, 56, 0
2, 31960, Note_off_c, 1, 68, 0
2, 31960, Note_off_c, 1, 80, 0
2, 32120, Note_on_c, 1, 39, 127
2, 32120, Note_on_c, 1, 51, 127
2, 32120, Note_on_c, 1, 63, 127
2, 32120, Note_on_c, 1, 75, 127
2, 32160, Note_off_c, 1, 39, 0
2, 32160, Note_off_c, 1, 51, 0
2, 32160, Note_off_c, 1, 63, 0
2, 32160, Note_off_c, 1, 75, 0
2, 32320, Note_on_c, 1, 39, 127
2, 32320, Note_on_c, 1, 46, 127
2, 32320, Note_on_c, 1, 53, 127
2, 32320, Note_on_c, 1, 65, 127
2, 32320, Note_on_c, 1, 68, 127
2, 32320, Note_on_c, 1, 77, 127
2, 32520, Note_off_c, 1, 39, 0
2, 32520, Note_off_c, 1, 46, 0
2, 32520, Note_off_c, 1, 53, 0
2, 32520, Note_off_c, 1, 65, 0
2, 32520, Note_off_c, 1, 68, 0
2, 32520, Note_off_c, 1, 77, 0
2, 33000, Note_on_c, 1, 35, 127
2, 33000, Note_on_c, 1, 47, 127
2, 33000, Note_on_c, 1, 56, 127
2, 33000, Note_on_c, 1, 62, 127
2, 33000, Note_on_c, 1, 66, 127
2, 33000, Note_on_c, 1, 68, 127
2, 33120, Note_off_c, 1, 47, 0
2, 33120, Note_off_c, 1, 56, 0
2, 33120, Note_on_c, 1, 58, 127
2, 33120, Note_off_c, 1, 62, 0
2, 33120, Note_off_c, 1, 66, 0
2, 33120, Note_off_c, 1, 68, 0
2, 33160, Note_off_c, 1, 35, 0
2, 33160, Note_on_c, 1, 49, 127
2, 33160, Note_on_c, 1, 53, 127
2, 33160, Note_off_c, 1, 58, 0
2, 33160, Note_on_c, 1, 59, 127
2, 33160, Note_on_c, 1, 63, 127
2, 33200, Note_off_c, 1, 49, 0
2, 33200, Note_off_c, 1, 53, 0
2, 33200, Note_off_c, 1, 59, 0
2, 33200, Note_off_c, 1, 63, 0
2, 33240, Note_on_c, 1, 61, 127
2, 33280, Note_off_c, 1, 61, 0
2, 33320, Note_on_c, 1, 61, 127
2, 33360, Note_on_c, 1, 59, 127
2, 33360, Note_off_c, 1, 61, 0
2, 33400, Note_off_c, 1, 59, 0
2, 33440, Note_on_c, 1, 54, 127
2, 33480, Note_off_c, 1, 54, 0
2, 33520, Note_on_c, 1, 54, 127
2, 33560, Note_off_c, 1, 54, 0
2, 33600, Note_on_c, 1, 54, 127
2, 33640, Note_off_c, 1, 54, 0
2, 33680, Note_on_c, 1, 54, 127
2, 33720, Note_off_c, 1, 54, 0
2, 33760, Note_on_c, 1, 54, 127
2, 33800, Note_off_c, 1, 54, 0
2, 33840, Note_on_c, 1, 52, 127
2, 33920, Note_off_c, 1, 52, 0
2, 33960, Note_on_c, 1, 54, 127
2, 34000, Note_off_c, 1, 54, 0
2, 34040, Note_on_c, 1, 55, 127
2, 34040, Note_on_c, 1, 61, 127
2, 34040, Note_on_c, 1, 64, 127
2, 34080, Note_off_c, 1, 61, 0
2, 34080, Note_off_c, 1, 64, 0
2, 34120, Note_on_c, 1, 61, 127
2, 34120, Note_on_c, 1, 64, 127
2, 34160, Note_off_c, 1, 55, 0
2, 34160, Note_off_c, 1, 61, 0
2, 34160, Note_off_c, 1, 64, 0
2, 34240, Note_on_c, 1, 55, 127
2, 34240, Note_on_c, 1, 61, 127
2, 34240, Note_on_c, 1, 64, 127
2, 34280, Note_off_c, 1, 61, 0
2, 34280, Note_off_c, 1, 64, 0
2, 34320, Note_on_c, 1, 61, 127
2, 34320, Note_on_c, 1, 64, 127
2, 34360, Note_off_c, 1, 55, 0
2, 34360, Note_on_c, 1, 58, 127
2, 34360, Note_off_c, 1, 61, 0
2, 34360, Note_off_c, 1, 64, 0
2, 34400, Note_on_c, 1, 55, 127
2, 34400, Note_off_c, 1, 58, 0
2, 34400, Note_on_c, 1, 61, 127
2, 34400, Note_on_c, 1, 64, 127
2, 34440, Note_off_c, 1, 61, 0
2, 34440, Note_off_c, 1, 64, 0
2, 34480, Note_off_c, 1, 55, 0
2, 34520, Note_on_c, 1, 55, 127
2, 34520, Note_on_c, 1, 61, 127
2, 34520, Note_on_c, 1, 64, 127
2, 34560, Note_off_c, 1, 55, 0
2, 34560, Note_off_c, 1, 61, 0
2, 34560, Note_off_c, 1, 64, 0
2, 34600, Note_on_c, 1, 55, 127
2, 34600, Note_on_c, 1, 61, 127
2, 34600, Note_on_c, 1, 64, 127
2, 34640, Note_on_c, 1, 53, 127
2, 34640, Note_off_c, 1, 55, 0
2, 34640, Note_off_c, 1, 61, 0
2, 34640, Note_off_c, 1, 64, 0
2, 34680, Note_off_c, 1, 53, 0
2, 34680, Note_on_c, 1, 55, 127
2, 34680, Note_on_c, 1, 61, 127
2, 34680, Note_on_c, 1, 64, 127
2, 34720, Note_off_c, 1, 55, 0
2, 34720, Note_off_c, 1, 61, 0
2, 34720, Note_off_c, 1, 64, 0
2, 34760, Note_on_c, 1, 59, 127
2, 34760, Note_on_c, 1, 62, 127
2, 34760, Note_on_c, 1, 66, 127
2, 34800, Note_off_c, 1, 62, 0
2, 34800, Note_off_c, 1, 66, 0
2, 34840, Note_on_c, 1, 57, 127
2, 34840, Note_off_c, 1, 59, 0
2, 34840, Note_on_c, 1, 61, 127
2, 34840, Note_on_c, 1, 64, 127
2, 34880, Note_off_c, 1, 57, 0
2, 34880, Note_off_c, 1, 61, 0
2, 34880, Note_off_c, 1, 64, 0
2, 34920, Note_on_c, 1, 49, 127
2, 35040, Note_on_c, 1, 56, 127
2, 35040, Note_on_c, 1, 61, 127
2, 35040, Note_on_c, 1, 65, 127
2, 35080, Note_off_c, 1, 56, 0
2, 35080, Note_off_c, 1, 61, 0
2, 35080, Note_off_c, 1, 65, 0
2, 35120, Note_on_c, 1, 61, 127
2, 35120, Note_on_c, 1, 66, 127
2, 35120, Note_on_c, 1, 71, 127
2, 35160, Note_off_c, 1, 61, 0
2, 35160, Note_off_c, 1, 66, 0
2, 35160, Note_off_c, 1, 71, 0
2, 35200, Note_on_c, 1, 54, 127
2, 35200, Note_on_c, 1, 57, 127
2, 35240, Note_off_c, 1, 54, 0
2, 35240, Note_off_c, 1, 57, 0
2, 35280, Note_on_c, 1, 57, 127
2, 35280, Note_on_c, 1, 61, 127
2, 35320, Note_off_c, 1, 57, 0
2, 35320, Note_off_c, 1, 61, 0
2, 35360, Note_on_c, 1, 57, 127
2, 35360, Note_on_c, 1, 61, 127
2, 35400, Note_off_c, 1, 57, 0
2, 35400, Note_off_c, 1, 61, 0
2, 35440, Note_on_c, 1, 57, 127
2, 35440, Note_on_c, 1, 61, 127
2, 35480, Note_off_c, 1, 57, 0
2, 35480, Note_off_c, 1, 61, 0
2, 35520, Note_on_c, 1, 57, 127
2, 35520, Note_on_c, 1, 61, 127
2, 35560, Note_off_c, 1, 57, 0
2, 35560, Note_off_c, 1, 61, 0
2, 35600, Note_on_c, 1, 57, 127
2, 35600, Note_on_c, 1, 61, 127
2, 35680, Note_off_c, 1, 57, 0
2, 35680, Note_off_c, 1, 61, 0
2, 35720, Note_on_c, 1, 56, 127
2, 35720, Note_on_c, 1, 59, 127
2, 35720, Note_on_c, 1, 61, 127
2, 35760, Note_off_c, 1, 56, 0
2, 35760, Note_off_c, 1, 59, 0
2, 35760, Note_off_c, 1, 61, 0
2, 35800, Note_on_c, 1, 54, 127
2, 35800, Note_on_c, 1, 57, 127
2, 35840, Note_off_c, 1, 54, 0
2, 35840, Note_off_c, 1, 57, 0
2, 35880, Note_off_c, 1, 49, 0
2, 35920, Note_on_c, 1, 49, 127
2, 35960, Note_off_c, 1, 49, 0
2, 35960, Note_on_c, 1, 58, 127
2, 35960, Note_on_c, 1, 60, 127
2, 35960, Note_on_c, 1, 63, 127
2, 35960, Note_on_c, 1, 67, 127
2, 35960, Note_on_c, 1, 72, 127
2, 36000, Note_off_c, 1, 58, 0
2, 36000, Note_off_c, 1, 60, 0
2, 36000, Note_off_c, 1, 63, 0
2, 36000, Note_off_c, 1, 67, 0
2, 36000, Note_off_c, 1, 72, 0
2, 36040, Note_on_c, 1, 49, 127
2, 36080, Note_off_c, 1, 49, 0
2, 36120, Note_on_c, 1, 49, 127
2, 36200, Note_on_c, 1, 61, 127
2, 36200, Note_on_c, 1, 64, 127
2, 36200, Note_on_c, 1, 68, 127
2, 36240, Note_off_c, 1, 49, 0
2, 36240, Note_off_c, 1, 61, 0
2, 36240, Note_off_c, 1, 64, 0
2, 36240, Note_off_c, 1, 68, 0
2, 36280, Note_on_c, 1, 49, 127
2, 36320, Note_off_c, 1, 49, 0
2, 36360, Note_on_c, 1, 49, 127
2, 36440, Note_on_c, 1, 54, 127
2, 36440, Note_on_c, 1, 57, 127
2, 36480, Note_off_c, 1, 54, 0
2, 36480, Note_off_c, 1, 57, 0
2, 36520, Note_on_c, 1, 54, 127
2, 36520, Note_on_c, 1, 57, 127
2, 36560, Note_off_c, 1, 54, 0
2, 36560, Note_off_c, 1, 57, 0
2, 36600, Note_on_c, 1, 53, 127
2, 36600, Note_on_c, 1, 56, 127
2, 36600, Note_on_c, 1, 71, 127
2, 36640, Note_off_c, 1, 53, 0
2, 36640, Note_off_c, 1, 56, 0
2, 36640, Note_off_c, 1, 71, 0
2, 36680, Note_on_c, 1, 53, 127
2, 36680, Note_on_c, 1, 56, 127
2, 36720, Note_off_c, 1, 53, 0
2, 36720, Note_off_c, 1, 56, 0
2, 36760, Note_on_c, 1, 54, 127
2, 36760, Note_on_c, 1, 57, 127
2, 36800, Note_on_c, 1, 45, 127
2, 36800, Note_off_c, 1, 54, 0
2, 36800, Note_off_c, 1, 57, 0
2, 36840, Note_off_c, 1, 45, 0
2, 36840, Note_on_c, 1, 54, 127
2, 36840, Note_on_c, 1, 57, 127
2, 36880, Note_off_c, 1, 54, 0
2, 36880, Note_off_c, 1, 57, 0
2, 36920, Note_on_c, 1, 54, 127
2, 36920, Note_on_c, 1, 57, 127
2, 36960, Note_off_c, 1, 54, 0
2, 36960, Note_off_c, 1, 57, 0
2, 37000, Note_on_c, 1, 57, 127
2, 37000, Note_on_c, 1, 61, 127
2, 37080, Note_off_c, 1, 57, 0
2, 37080, Note_off_c, 1, 61, 0
2, 37120, Note_on_c, 1, 57, 127
2, 37120, Note_on_c, 1, 61, 127
2, 37160, Note_off_c, 1, 57, 0
2, 37160, Note_off_c, 1, 61, 0
2, 37200, Note_on_c, 1, 57, 127
2, 37200, Note_on_c, 1, 61, 127
2, 37240, Note_off_c, 1, 57, 0
2, 37240, Note_off_c, 1, 61, 0
2, 37280, Note_on_c, 1, 57, 127
2, 37280, Note_on_c, 1, 61, 127
2, 37320, Note_off_c, 1, 57, 0
2, 37320, Note_off_c, 1, 61, 0
2, 37360, Note_on_c, 1, 56, 127
2, 37360, Note_on_c, 1, 59, 127
2, 37360, Note_on_c, 1, 61, 127
2, 37400, Note_off_c, 1, 56, 0
2, 37400, Note_off_c, 1, 59, 0
2, 37400, Note_off_c, 1, 61, 0
2, 37440, Note_on_c, 1, 57, 127
2, 37440, Note_on_c, 1, 61, 127
2, 37480, Note_off_c, 1, 57, 0
2, 37480, Note_off_c, 1, 61, 0
2, 37520, Note_on_c, 1, 57, 127
2, 37520, Note_on_c, 1, 61, 127
2, 37560, Note_off_c, 1, 57, 0
2, 37560, Note_off_c, 1, 61, 0
2, 37600, Note_on_c, 1, 57, 127
2, 37600, Note_on_c, 1, 61, 127
2, 37640, Note_off_c, 1, 57, 0
2, 37640, Note_off_c, 1, 61, 0
2, 37680, Note_on_c, 1, 57, 127
2, 37680, Note_on_c, 1, 61, 127
2, 37720, Note_off_c, 1, 57, 0
2, 37720, Note_off_c, 1, 61, 0
2, 37760, Note_on_c, 1, 57, 127
2, 37760, Note_on_c, 1, 61, 127
2, 37800, Note_off_c, 1, 57, 0
2, 37800, Note_off_c, 1, 61, 0
2, 37840, Note_on_c, 1, 57, 127
2, 37840, Note_on_c, 1, 61, 127
2, 37880, Note_off_c, 1, 57, 0
2, 37880, Note_off_c, 1, 61, 0
2, 37920, Note_on_c, 1, 56, 127
2, 37920, Note_on_c, 1, 59, 127
2, 37960, Note_off_c, 1, 56, 0
2, 37960, Note_off_c, 1, 59, 0
2, 38000, Note_on_c, 1, 54, 127
2, 38000, Note_on_c, 1, 57, 127
2, 38040, Note_off_c, 1, 57, 0
2, 38080, Note_off_c, 1, 54, 0
2, 38120, Note_on_c, 1, 54, 127
2, 38120, Note_on_c, 1, 57, 127
2, 38160, Note_off_c, 1, 54, 0
2, 38160, Note_off_c, 1, 57, 0
2, 38200, Note_on_c, 1, 54, 127
2, 38200, Note_on_c, 1, 58, 127
2, 38240, Note_off_c, 1, 54, 0
2, 38240, Note_off_c, 1, 58, 0
2, 38280, Note_on_c, 1, 54, 127
2, 38320, Note_off_c, 1, 49, 0
2, 38320, Note_off_c, 1, 54, 0
2, 38320, Note_on_c, 1, 58, 127
2, 38360, Note_on_c, 1, 50, 127
2, 38360, Note_on_c, 1, 54, 127
2, 38360, Note_off_c, 1, 58, 0
2, 38360, Note_on_c, 1, 59, 127
2, 38400, Note_off_c, 1, 50, 0
2, 38400, Note_off_c, 1, 59, 0
2, 38440, Note_on_c, 1, 42, 127
2, 38480, Note_off_c, 1, 42, 0
2, 38480, Note_off_c, 1, 54, 0
2, 38520, Note_on_c, 1, 54, 127
2, 38560, Note_on_c, 1, 42, 127
2, 38560, Note_on_c, 1, 58, 127
2, 38560, Note_on_c, 1, 66, 127
2, 38600, Note_off_c, 1, 58, 0
2, 38600, Note_off_c, 1, 66, 0
2, 38640, Note_on_c, 1, 66, 127
2, 38680, Note_off_c, 1, 66, 0
2, 38720, Note_off_c, 1, 42, 0
2, 38720, Note_on_c, 1, 46, 127
2, 38720, Note_on_c, 1, 49, 127
2, 38720, Note_off_c, 1, 54, 0
2, 38760, Note_on_c, 1, 42, 127
2, 38760, Note_off_c, 1, 46, 0
2, 38760, Note_off_c, 1, 49, 0
2, 38760, Note_on_c, 1, 54, 127
2, 38800, Note_on_c, 1, 66, 127
2, 38840, Note_off_c, 1, 66, 0
2, 38880, Note_off_c, 1, 42, 0
2, 38880, Note_off_c, 1, 54, 0
2, 38920, Note_on_c, 1, 62, 127
2, 38920, Note_on_c, 1, 66, 127
2, 38960, Note_off_c, 1, 62, 0
2, 39000, Note_on_c, 1, 62, 127
2, 39040, Note_off_c, 1, 62, 0
2, 39080, Note_on_c, 1, 62, 127
2, 39120, Note_off_c, 1, 66, 0
2, 39160, Note_on_c, 1, 66, 127
2, 39200, Note_off_c, 1, 62, 0
2, 39240, Note_on_c, 1, 62, 127
2, 39280, Note_off_c, 1, 62, 0
2, 39320, Note_on_c, 1, 62, 127
2, 39360, Note_off_c, 1, 62, 0
2, 39400, Note_on_c, 1, 63, 127
2, 39440, Note_off_c, 1, 63, 0
2, 39480, Note_on_c, 1, 62, 127
2, 39520, Note_off_c, 1, 62, 0
2, 39600, Note_on_c, 1, 57, 127
2, 39640, Note_off_c, 1, 57, 0
2, 39680, Note_on_c, 1, 60, 127
2, 39720, Note_off_c, 1, 60, 0
2, 39760, Note_on_c, 1, 60, 127
2, 39800, Note_off_c, 1, 60, 0
2, 39840, Note_on_c, 1, 57, 127
2, 39880, Note_off_c, 1, 57, 0
2, 39920, Note_on_c, 1, 57, 127
2, 39960, Note_off_c, 1, 57, 0
2, 40000, Note_on_c, 1, 57, 127
2, 40040, Note_off_c, 1, 57, 0
2, 40080, Note_on_c, 1, 54, 127
2, 40080, Note_off_c, 1, 66, 0
2, 40080, Note_on_c, 1, 69, 127
2, 40120, Note_off_c, 1, 54, 0
2, 40120, Note_on_c, 1, 61, 127
2, 40120, Note_on_c, 1, 66, 127
2, 40120, Note_off_c, 1, 69, 0
2, 40160, Note_off_c, 1, 61, 0
2, 40200, Note_on_c, 1, 57, 127
2, 40240, Note_off_c, 1, 57, 0
2, 40280, Note_on_c, 1, 57, 127
2, 40320, Note_off_c, 1, 57, 0
2, 40360, Note_on_c, 1, 54, 127
2, 40400, Note_off_c, 1, 54, 0
2, 40400, Note_off_c, 1, 66, 0
2, 40440, Note_on_c, 1, 54, 127
2, 40480, Note_off_c, 1, 54, 0
2, 40480, Note_on_c, 1, 59, 127
2, 40480, Note_on_c, 1, 78, 127
2, 40520, Note_off_c, 1, 59, 0
2, 40640, Note_on_c, 1, 56, 127
2, 40680, Note_off_c, 1, 56, 0
2, 40680, Note_on_c, 1, 59, 127
2, 40720, Note_off_c, 1, 59, 0
2, 40720, Note_on_c, 1, 61, 127
2, 40720, Note_off_c, 1, 78, 0
2, 40760, Note_off_c, 1, 61, 0
2, 40760, Note_on_c, 1, 62, 127
2, 40760, Note_on_c, 1, 74, 127
2, 40800, Note_off_c, 1, 62, 0
2, 40800, Note_on_c, 1, 73, 127
2, 40800, Note_off_c, 1, 74, 0
2, 40840, Note_on_c, 1, 62, 127
2, 40880, Note_off_c, 1, 62, 0
2, 40920, Note_on_c, 1, 61, 127
2, 40960, Note_off_c, 1, 61, 0
2, 41000, Note_on_c, 1, 69, 127
2, 41040, Note_off_c, 1, 69, 0
2, 41080, Note_on_c, 1, 42, 127
2, 41120, Note_off_c, 1, 42, 0
2, 41160, Note_on_c, 1, 57, 127
2, 41160, Note_on_c, 1, 61, 127
2, 41160, Note_off_c, 1, 73, 0
2, 41200, Note_off_c, 1, 57, 0
2, 41200, Note_off_c, 1, 61, 0
2, 41200, Note_on_c, 1, 66, 127
2, 41200, Note_on_c, 1, 73, 127
2, 41240, Note_off_c, 1, 66, 0
2, 41280, Note_on_c, 1, 74, 127
2, 41320, Note_on_c, 1, 66, 127
2, 41320, Note_on_c, 1, 71, 127
2, 41320, Note_off_c, 1, 73, 0
2, 41320, Note_off_c, 1, 74, 0
2, 41360, Note_off_c, 1, 71, 0
2, 41360, Note_on_c, 1, 76, 127
2, 41400, Note_off_c, 1, 76, 0
2, 41440, Note_on_c, 1, 78, 127
2, 41480, Note_off_c, 1, 78, 0
2, 41480, Note_on_c, 1, 83, 127
2, 41520, Note_on_c, 1, 58, 127
2, 41520, Note_off_c, 1, 66, 0
2, 41560, Note_off_c, 1, 58, 0
2, 41560, Note_on_c, 1, 69, 127
2, 41560, Note_off_c, 1, 83, 0
2, 41600, Note_on_c, 1, 66, 127
2, 41600, Note_off_c, 1, 69, 0
2, 41680, Note_on_c, 1, 63, 127
2, 41680, Note_off_c, 1, 66, 0
2, 41680, Note_on_c, 1, 70, 127
2, 41680, Note_on_c, 1, 71, 127
2, 41720, Note_off_c, 1, 63, 0
2, 41720, Note_on_c, 1, 66, 127
2, 41720, Note_off_c, 1, 70, 0
2, 41760, Note_off_c, 1, 71, 0
2, 41800, Note_on_c, 1, 54, 127
2, 41800, Note_off_c, 1, 66, 0
2, 41800, Note_on_c, 1, 69, 127
2, 41840, Note_off_c, 1, 54, 0
2, 41840, Note_on_c, 1, 66, 127
2, 41840, Note_off_c, 1, 69, 0
2, 41880, Note_on_c, 1, 54, 127
2, 41880, Note_on_c, 1, 58, 127
2, 41880, Note_off_c, 1, 66, 0
2, 41920, Note_off_c, 1, 54, 0
2, 41920, Note_off_c, 1, 58, 0
2, 41920, Note_on_c, 1, 66, 127
2, 41960, Note_on_c, 1, 61, 127
2, 42000, Note_off_c, 1, 61, 0
2, 42040, Note_on_c, 1, 58, 127
2, 42080, Note_off_c, 1, 58, 0
2, 42120, Note_on_c, 1, 54, 127
2, 42160, Note_off_c, 1, 54, 0
2, 42200, Note_on_c, 1, 51, 127
2, 42240, Note_off_c, 1, 51, 0
2, 42280, Note_on_c, 1, 54, 127
2, 42320, Note_off_c, 1, 66, 0
2, 42360, Note_off_c, 1, 54, 0
2, 42360, Note_on_c, 1, 59, 127
2, 42360, Note_on_c, 1, 66, 127
2, 42400, Note_off_c, 1, 59, 0
2, 42400, Note_off_c, 1, 66, 0
2, 42440, Note_on_c, 1, 51, 127
2, 42440, Note_on_c, 1, 66, 127
2, 42480, Note_off_c, 1, 51, 0
2, 42520, Note_on_c, 1, 49, 127
2, 42560, Note_off_c, 1, 49, 0
2, 42600, Note_on_c, 1, 51, 127
2, 42640, Note_off_c, 1, 51, 0
2, 42680, Note_on_c, 1, 60, 127
2, 42720, Note_off_c, 1, 60, 0
2, 42760, Note_on_c, 1, 54, 127
2, 42760, Note_off_c, 1, 66, 0
2, 42760, Note_on_c, 1, 69, 127
2, 42800, Note_off_c, 1, 54, 0
2, 42800, Note_on_c, 1, 66, 127
2, 42800, Note_off_c, 1, 69, 0
2, 42840, Note_on_c, 1, 54, 127
2, 42840, Note_off_c, 1, 66, 0
2, 42840, Note_on_c, 1, 69, 127
2, 42880, Note_off_c, 1, 54, 0
2, 42880, Note_on_c, 1, 66, 127
2, 42880, Note_off_c, 1, 69, 0
2, 42920, Note_on_c, 1, 54, 127
2, 42920, Note_off_c, 1, 66, 0
2, 42920, Note_on_c, 1, 69, 127
2, 42960, Note_off_c, 1, 54, 0
2, 43000, Note_on_c, 1, 54, 127
2, 43040, Note_off_c, 1, 54, 0
2, 43080, Note_on_c, 1, 54, 127
2, 43120, Note_off_c, 1, 69, 0
2, 43160, Note_off_c, 1, 54, 0
2, 43160, Note_on_c, 1, 69, 127
2, 43200, Note_on_c, 1, 57, 127
2, 43240, Note_off_c, 1, 57, 0
2, 43240, Note_on_c, 1, 66, 127
2, 43240, Note_off_c, 1, 69, 0
2, 43280, Note_on_c, 1, 52, 127
2, 43280, Note_off_c, 1, 66, 0
2, 43280, Note_on_c, 1, 69, 127
2, 43320, Note_off_c, 1, 52, 0
2, 43320, Note_off_c, 1, 69, 0
2, 43320, Note_on_c, 1, 71, 127
2, 43360, Note_on_c, 1, 52, 127
2, 43360, Note_off_c, 1, 71, 0
2, 43360, Note_on_c, 1, 73, 127
2, 43400, Note_off_c, 1, 52, 0
2, 43400, Note_off_c, 1, 73, 0
2, 43440, Note_on_c, 1, 57, 127
2, 43440, Note_on_c, 1, 76, 127
2, 43480, Note_off_c, 1, 57, 0
2, 43480, Note_off_c, 1, 76, 0
2, 43520, Note_on_c, 1, 57, 127
2, 43520, Note_on_c, 1, 76, 127
2, 43560, Note_off_c, 1, 57, 0
2, 43560, Note_on_c, 1, 73, 127
2, 43560, Note_off_c, 1, 76, 0
2, 43600, Note_on_c, 1, 54, 127
2, 43600, Note_off_c, 1, 73, 0
2, 43600, Note_on_c, 1, 74, 127
2, 43680, Note_off_c, 1, 54, 0
2, 43680, Note_off_c, 1, 74, 0
2, 43720, Note_on_c, 1, 50, 127
2, 43760, Note_off_c, 1, 50, 0
2, 43800, Note_on_c, 1, 54, 127
2, 43840, Note_off_c, 1, 54, 0
2, 43880, Note_on_c, 1, 57, 127
2, 43920, Note_off_c, 1, 57, 0
2, 43960, Note_on_c, 1, 50, 127
2, 43960, Note_on_c, 1, 78, 127
2, 44000, Note_off_c, 1, 50, 0
2, 44040, Note_on_c, 1, 62, 127
2, 44080, Note_off_c, 1, 62, 0
2, 44120, Note_on_c, 1, 57, 127
2, 44160, Note_off_c, 1, 57, 0
2, 44160, Note_off_c, 1, 78, 0
2, 44200, Note_on_c, 1, 62, 127
2, 44280, Note_off_c, 1, 62, 0
2, 44320, Note_on_c, 1, 54, 127
2, 44360, Note_off_c, 1, 54, 0
2, 44400, Note_on_c, 1, 57, 127
2, 44440, Note_off_c, 1, 57, 0
2, 44520, Note_on_c, 1, 54, 127
2, 44560, Note_off_c, 1, 54, 0
2, 44600, Note_on_c, 1, 57, 127
2, 44640, Note_off_c, 1, 57, 0
2, 44680, Note_on_c, 1, 54, 127
2, 44680, Note_on_c, 1, 83, 127
2, 44720, Note_off_c, 1, 54, 0
2, 44760, Note_on_c, 1, 54, 127
2, 44760, Note_on_c, 1, 81, 127
2, 44760, Note_off_c, 1, 83, 0
2, 44800, Note_off_c, 1, 54, 0
2, 44800, Note_off_c, 1, 81, 0
2, 44800, Note_on_c, 1, 83, 127
2, 44840, Note_on_c, 1, 54, 127
2, 44840, Note_on_c, 1, 81, 127
2, 44840, Note_off_c, 1, 83, 0
2, 44880, Note_off_c, 1, 54, 0
2, 44880, Note_off_c, 1, 81, 0
2, 44880, Note_on_c, 1, 83, 127
2, 44920, Note_on_c, 1, 59, 127
2, 44960, Note_off_c, 1, 83, 0
2, 44960, Note_on_c, 1, 86, 127
2, 45000, Note_off_c, 1, 59, 0
2, 45000, Note_off_c, 1, 86, 0
2, 45040, Note_on_c, 1, 54, 127
2, 45040, Note_on_c, 1, 81, 127
2, 45080, Note_off_c, 1, 54, 0
2, 45080, Note_off_c, 1, 81, 0
2, 45120, Note_on_c, 1, 55, 127
2, 45120, Note_on_c, 1, 81, 127
2, 45160, Note_off_c, 1, 55, 0
2, 45160, Note_off_c, 1, 81, 0
2, 45200, Note_on_c, 1, 61, 127
2, 45200, Note_on_c, 1, 81, 127
2, 45240, Note_off_c, 1, 61, 0
2, 45240, Note_off_c, 1, 81, 0
2, 45280, Note_on_c, 1, 53, 127
2, 45280, Note_on_c, 1, 81, 127
2, 45320, Note_off_c, 1, 53, 0
2, 45320, Note_off_c, 1, 81, 0
2, 45360, Note_on_c, 1, 52, 127
2, 45360, Note_on_c, 1, 79, 127
2, 45400, Note_off_c, 1, 52, 0
2, 45400, Note_off_c, 1, 79, 0
2, 45440, Note_on_c, 1, 52, 127
2, 45440, Note_on_c, 1, 78, 127
2, 45520, Note_off_c, 1, 52, 0
2, 45560, Note_on_c, 1, 50, 127
2, 45600, Note_off_c, 1, 50, 0
2, 45600, Note_off_c, 1, 78, 0
2, 45640, Note_on_c, 1, 54, 127
2, 45640, Note_on_c, 1, 74, 127
2, 45680, Note_off_c, 1, 54, 0
2, 45720, Note_on_c, 1, 54, 127
2, 45760, Note_off_c, 1, 54, 0
2, 45800, Note_on_c, 1, 54, 127
2, 45840, Note_off_c, 1, 54, 0
2, 45840, Note_off_c, 1, 74, 0
2, 45880, Note_on_c, 1, 54, 127
2, 45920, Note_off_c, 1, 54, 0
2, 45960, Note_on_c, 1, 50, 127
2, 46000, Note_off_c, 1, 50, 0
2, 46040, Note_on_c, 1, 54, 127
2, 46120, Note_off_c, 1, 54, 0
2, 46160, Note_on_c, 1, 46, 127
2, 46160, Note_on_c, 1, 74, 127
2, 46200, Note_off_c, 1, 46, 0
2, 46240, Note_on_c, 1, 54, 127
2, 46280, Note_off_c, 1, 54, 0
2, 46320, Note_on_c, 1, 50, 127
2, 46360, Note_off_c, 1, 50, 0
2, 46400, Note_on_c, 1, 54, 127
2, 46440, Note_off_c, 1, 54, 0
2, 46480, Note_on_c, 1, 50, 127
2, 46520, Note_off_c, 1, 50, 0
2, 46520, Note_off_c, 1, 74, 0
2, 46600, Note_on_c, 1, 50, 127
2, 46600, Note_on_c, 1, 74, 127
2, 46640, Note_on_c, 1, 45, 127
2, 46640, Note_off_c, 1, 50, 0
2, 46640, Note_off_c, 1, 74, 0
2, 46640, Note_on_c, 1, 76, 127
2, 46680, Note_off_c, 1, 45, 0
2, 46680, Note_off_c, 1, 76, 0
2, 46720, Note_on_c, 1, 50, 127
2, 46720, Note_on_c, 1, 82, 127
2, 46760, Note_off_c, 1, 50, 0
2, 46760, Note_on_c, 1, 78, 127
2, 46760, Note_off_c, 1, 82, 0
2, 46800, Note_on_c, 1, 51, 127
2, 46800, Note_off_c, 1, 78, 0
2, 46800, Note_on_c, 1, 79, 127
2, 46840, Note_off_c, 1, 51, 0
2, 46840, Note_on_c, 1, 78, 127
2, 46840, Note_off_c, 1, 79, 0
2, 46880, Note_on_c, 1, 50, 127
2, 46920, Note_off_c, 1, 50, 0
2, 46960, Note_on_c, 1, 54, 127
2, 47000, Note_off_c, 1, 54, 0
2, 47040, Note_on_c, 1, 62, 127
2, 47080, Note_off_c, 1, 62, 0
2, 47120, Note_on_c, 1, 51, 127
2, 47160, Note_off_c, 1, 78, 0
2, 47200, Note_off_c, 1, 51, 0
2, 47240, Note_on_c, 1, 54, 127
2, 47240, Note_on_c, 1, 74, 127
2, 47280, Note_off_c, 1, 54, 0
2, 47320, Note_on_c, 1, 56, 127
2, 47360, Note_off_c, 1, 56, 0
2, 47400, Note_on_c, 1, 52, 127
2, 47440, Note_off_c, 1, 52, 0
2, 47480, Note_on_c, 1, 54, 127
2, 47520, Note_off_c, 1, 54, 0
2, 47520, Note_off_c, 1, 74, 0
2, 47560, Note_on_c, 1, 52, 127
2, 47560, Note_on_c, 1, 69, 127
2, 47600, Note_off_c, 1, 52, 0
2, 47600, Note_on_c, 1, 68, 127
2, 47600, Note_off_c, 1, 69, 0
2, 47640, Note_on_c, 1, 52, 127
2, 47640, Note_off_c, 1, 68, 0
2, 47680, Note_on_c, 1, 45, 127
2, 47680, Note_off_c, 1, 52, 0
2, 47680, Note_on_c, 1, 61, 127
2, 47720, Note_off_c, 1, 45, 0
2, 47720, Note_off_c, 1, 61, 0
2, 47760, Note_on_c, 1, 50, 127
2, 47760, Note_on_c, 1, 69, 127
2, 47800, Note_off_c, 1, 50, 0
2, 47840, Note_on_c, 1, 54, 127
2, 47880, Note_off_c, 1, 54, 0
2, 47920, Note_on_c, 1, 61, 127
2, 47960, Note_off_c, 1, 61, 0
2, 48000, Note_on_c, 1, 57, 127
2, 48040, Note_off_c, 1, 57, 0
2, 48080, Note_on_c, 1, 61, 127
2, 48120, Note_off_c, 1, 61, 0
2, 48160, Note_on_c, 1, 57, 127
2, 48240, Note_off_c, 1, 57, 0
2, 48280, Note_on_c, 1, 52, 127
2, 48320, Note_off_c, 1, 52, 0
2, 48360, Note_on_c, 1, 57, 127
2, 48400, Note_off_c, 1, 57, 0
2, 48440, Note_on_c, 1, 61, 127
2, 48480, Note_off_c, 1, 61, 0
2, 48480, Note_off_c, 1, 69, 0
2, 48560, Note_on_c, 1, 52, 127
2, 48640, Note_off_c, 1, 52, 0
2, 48680, Note_on_c, 1, 57, 127
2, 48720, Note_off_c, 1, 57, 0
2, 48760, Note_on_c, 1, 57, 127
2, 48800, Note_off_c, 1, 57, 0
2, 48840, Note_on_c, 1, 61, 127
2, 48880, Note_off_c, 1, 61, 0
2, 48920, Note_on_c, 1, 76, 127
2, 48920, Note_on_c, 1, 79, 127
2, 48920, Note_on_c, 1, 82, 127
2, 48920, Note_on_c, 1, 88, 127
2, 49040, Note_off_c, 1, 76, 0
2, 49040, Note_off_c, 1, 79, 0
2, 49040, Note_off_c, 1, 82, 0
2, 49040, Note_off_c, 1, 88, 0
2, 49080, Note_on_c, 1, 50, 127
2, 49080, Note_on_c, 1, 62, 127
2, 49120, Note_off_c, 1, 50, 0
2, 49160, Note_off_c, 1, 62, 0
2, 49200, Note_on_c, 1, 69, 127
2, 49240, Note_off_c, 1, 69, 0
2, 49280, Note_on_c, 1, 69, 127
2, 49320, Note_off_c, 1, 69, 0
2, 49360, Note_on_c, 1, 74, 127
2, 49440, Note_on_c, 1, 45, 127
2, 49480, Note_off_c, 1, 45, 0
2, 49520, Note_on_c, 1, 54, 127
2, 49560, Note_off_c, 1, 54, 0
2, 49560, Note_off_c, 1, 74, 0
2, 49600, Note_on_c, 1, 45, 127
2, 49680, Note_off_c, 1, 45, 0
2, 49720, Note_on_c, 1, 50, 127
2, 49760, Note_off_c, 1, 50, 0
2, 49800, Note_on_c, 1, 61, 127
2, 49840, Note_off_c, 1, 61, 0
2, 49880, Note_on_c, 1, 42, 127
2, 49880, Note_on_c, 1, 66, 127
2, 49920, Note_off_c, 1, 42, 0
2, 49960, Note_on_c, 1, 49, 127
2, 50000, Note_off_c, 1, 49, 0
2, 50040, Note_on_c, 1, 54, 127
2, 50120, Note_off_c, 1, 54, 0
2, 50160, Note_on_c, 1, 50, 127
2, 50200, Note_off_c, 1, 50, 0
2, 50200, Note_off_c, 1, 66, 0
2, 50240, Note_on_c, 1, 57, 127
2, 50280, Note_off_c, 1, 57, 0
2, 50320, Note_on_c, 1, 66, 127
2, 50360, Note_off_c, 1, 66, 0
2, 50400, Note_on_c, 1, 54, 127
2, 50440, Note_off_c, 1, 54, 0
2, 50480, Note_on_c, 1, 62, 127
2, 50520, Note_off_c, 1, 62, 0
2, 50560, Note_on_c, 1, 57, 127
2, 50560, Note_on_c, 1, 66, 127
2, 50640, Note_off_c, 1, 57, 0
2, 50640, Note_off_c, 1, 66, 0
2, 50720, Note_on_c, 1, 54, 127
2, 50720, Note_on_c, 1, 69, 127
2, 50760, Note_off_c, 1, 54, 0
2, 50760, Note_off_c, 1, 69, 0
2, 50800, Note_on_c, 1, 56, 127
2, 50800, Note_on_c, 1, 68, 127
2, 50840, Note_off_c, 1, 56, 0
2, 50840, Note_off_c, 1, 68, 0
2, 50880, Note_on_c, 1, 54, 127
2, 50880, Note_on_c, 1, 69, 127
2, 50920, Note_off_c, 1, 54, 0
2, 50920, Note_off_c, 1, 69, 0
2, 50960, Note_on_c, 1, 57, 127
2, 50960, Note_on_c, 1, 69, 127
2, 51000, Note_off_c, 1, 57, 0
2, 51000, Note_off_c, 1, 69, 0
2, 51040, Note_on_c, 1, 54, 127
2, 51040, Note_on_c, 1, 69, 127
2, 51080, Note_off_c, 1, 54, 0
2, 51080, Note_on_c, 1, 62, 127
2, 51080, Note_off_c, 1, 69, 0
2, 51160, Note_on_c, 1, 66, 127
2, 51200, Note_off_c, 1, 62, 0
2, 51200, Note_off_c, 1, 66, 0
2, 51240, Note_on_c, 1, 50, 127
2, 51240, Note_on_c, 1, 66, 127
2, 51280, Note_off_c, 1, 50, 0
2, 51280, Note_off_c, 1, 66, 0
2, 51320, Note_on_c, 1, 61, 127
2, 51320, Note_on_c, 1, 64, 127
2, 51360, Note_off_c, 1, 61, 0
2, 51360, Note_off_c, 1, 64, 0
2, 51400, Note_on_c, 1, 54, 127
2, 51400, Note_on_c, 1, 66, 127
2, 51440, Note_off_c, 1, 54, 0
2, 51480, Note_on_c, 1, 64, 127
2, 51480, Note_off_c, 1, 66, 0
2, 51480, Note_on_c, 1, 67, 127
2, 51520, Note_off_c, 1, 64, 0
2, 51520, Note_off_c, 1, 67, 0
2, 51560, Note_on_c, 1, 54, 127
2, 51600, Note_off_c, 1, 54, 0
2, 51600, Note_on_c, 1, 61, 127
2, 51640, Note_off_c, 1, 61, 0
2, 51680, Note_on_c, 1, 54, 127
2, 51680, Note_on_c, 1, 69, 127
2, 51720, Note_off_c, 1, 54, 0
2, 51720, Note_off_c, 1, 69, 0
2, 51760, Note_on_c, 1, 45, 127
2, 51760, Note_on_c, 1, 69, 127
2, 51800, Note_off_c, 1, 45, 0
2, 51840, Note_on_c, 1, 57, 127
2, 51840, Note_off_c, 1, 69, 0
2, 51840, Note_on_c, 1, 73, 127
2, 51880, Note_off_c, 1, 57, 0
2, 51880, Note_off_c, 1, 73, 0
2, 51920, Note_on_c, 1, 64, 127
2, 51920, Note_on_c, 1, 72, 127
2, 51960, Note_off_c, 1, 64, 0
2, 51960, Note_off_c, 1, 72, 0
2, 52000, Note_on_c, 1, 61, 127
2, 52000, Note_on_c, 1, 76, 127
2, 52040, Note_off_c, 1, 61, 0
2, 52040, Note_off_c, 1, 76, 0
2, 52080, Note_on_c, 1, 52, 127
2, 52080, Note_on_c, 1, 74, 127
2, 52120, Note_on_c, 1, 72, 127
2, 52120, Note_off_c, 1, 74, 0
2, 52160, Note_off_c, 1, 52, 0
2, 52160, Note_off_c, 1, 72, 0
2, 52200, Note_on_c, 1, 61, 127
2, 52200, Note_on_c, 1, 73, 127
2, 52240, Note_off_c, 1, 61, 0
2, 52240, Note_off_c, 1, 73, 0
2, 52280, Note_on_c, 1, 47, 127
2, 52280, Note_on_c, 1, 74, 127
2, 52320, Note_off_c, 1, 47, 0
2, 52360, Note_on_c, 1, 50, 127
2, 52360, Note_off_c, 1, 74, 0
2, 52360, Note_on_c, 1, 77, 127
2, 52400, Note_off_c, 1, 50, 0
2, 52400, Note_off_c, 1, 77, 0
2, 52440, Note_on_c, 1, 54, 127
2, 52440, Note_on_c, 1, 81, 127
2, 52480, Note_off_c, 1, 54, 0
2, 52480, Note_off_c, 1, 81, 0
2, 52480, Note_on_c, 1, 85, 127
2, 52520, Note_on_c, 1, 57, 127
2, 52520, Note_off_c, 1, 85, 0
2, 52560, Note_off_c, 1, 57, 0
2, 52560, Note_on_c, 1, 86, 127
2, 52600, Note_on_c, 1, 50, 127
2, 52680, Note_off_c, 1, 50, 0
2, 52680, Note_off_c, 1, 86, 0
2, 52760, Note_on_c, 1, 50, 127
2, 52760, Note_on_c, 1, 78, 127
2, 52800, Note_off_c, 1, 50, 0
2, 52840, Note_on_c, 1, 54, 127
2, 52880, Note_off_c, 1, 54, 0
2, 52920, Note_on_c, 1, 38, 127
2, 52960, Note_off_c, 1, 38, 0
2, 52960, Note_off_c, 1, 78, 0
2, 53000, Note_on_c, 1, 49, 127
2, 53000, Note_on_c, 1, 78, 127
2, 53040, Note_off_c, 1, 49, 0
2, 53080, Note_on_c, 1, 45, 127
2, 53080, Note_off_c, 1, 78, 0
2, 53080, Note_on_c, 1, 81, 127
2, 53120, Note_off_c, 1, 45, 0
2, 53120, Note_off_c, 1, 81, 0
2, 53160, Note_on_c, 1, 50, 127
2, 53160, Note_on_c, 1, 85, 127
2, 53200, Note_off_c, 1, 50, 0
2, 53200, Note_off_c, 1, 85, 0
2, 53240, Note_on_c, 1, 49, 127
2, 53240, Note_on_c, 1, 86, 127
2, 53320, Note_off_c, 1, 49, 0
2, 53320, Note_off_c, 1, 86, 0
2, 53360, Note_on_c, 1, 50, 127
2, 53360, Note_on_c, 1, 86, 127
2, 53400, Note_off_c, 1, 50, 0
2, 53400, Note_off_c, 1, 86, 0
2, 53440, Note_on_c, 1, 49, 127
2, 53440, Note_on_c, 1, 86, 127
2, 53480, Note_off_c, 1, 49, 0
2, 53480, Note_off_c, 1, 86, 0
2, 53520, Note_on_c, 1, 54, 127
2, 53520, Note_on_c, 1, 85, 127
2, 53560, Note_off_c, 1, 54, 0
2, 53560, Note_off_c, 1, 85, 0
2, 53600, Note_on_c, 1, 41, 127
2, 53600, Note_on_c, 1, 86, 127
2, 53640, Note_off_c, 1, 41, 0
2, 53640, Note_off_c, 1, 86, 0
2, 53680, Note_on_c, 1, 45, 127
2, 53680, Note_on_c, 1, 85, 127
2, 53720, Note_off_c, 1, 45, 0
2, 53720, Note_off_c, 1, 85, 0
2, 53760, Note_on_c, 1, 45, 127
2, 53760, Note_on_c, 1, 84, 127
2, 53800, Note_off_c, 1, 45, 0
2, 53800, Note_off_c, 1, 84, 0
2, 53840, Note_on_c, 1, 45, 127
2, 53840, Note_on_c, 1, 81, 127
2, 53880, Note_off_c, 1, 45, 0
2, 53880, Note_off_c, 1, 81, 0
2, 53920, Note_on_c, 1, 45, 127
2, 53920, Note_on_c, 1, 79, 127
2, 53960, Note_off_c, 1, 45, 0
2, 53960, Note_off_c, 1, 79, 0
2, 54000, Note_on_c, 1, 33, 127
2, 54000, Note_on_c, 1, 81, 127
2, 54080, Note_off_c, 1, 33, 0
2, 54080, Note_off_c, 1, 81, 0
2, 54120, Note_on_c, 1, 45, 127
2, 54120, Note_on_c, 1, 79, 127
2, 54160, Note_off_c, 1, 45, 0
2, 54160, Note_off_c, 1, 79, 0
2, 54200, Note_on_c, 1, 50, 127
2, 54200, Note_on_c, 1, 77, 127
2, 54240, Note_off_c, 1, 50, 0
2, 54240, Note_off_c, 1, 77, 0
2, 54280, Note_on_c, 1, 37, 127
2, 54280, Note_on_c, 1, 73, 127
2, 54320, Note_off_c, 1, 37, 0
2, 54320, Note_off_c, 1, 73, 0
2, 54360, Note_on_c, 1, 32, 127
2, 54360, Note_on_c, 1, 75, 127
2, 54400, Note_off_c, 1, 32, 0
2, 54400, Note_off_c, 1, 75, 0
2, 54440, Note_on_c, 1, 47, 127
2, 54440, Note_on_c, 1, 68, 127
2, 54440, Note_on_c, 1, 70, 127
2, 54480, Note_off_c, 1, 47, 0
2, 54480, Note_off_c, 1, 68, 0
2, 54480, Note_off_c, 1, 70, 0
2, 54520, Note_on_c, 1, 39, 127
2, 54520, Note_on_c, 1, 75, 127
2, 54560, Note_off_c, 1, 39, 0
2, 54560, Note_off_c, 1, 75, 0
2, 54640, Note_on_c, 1, 42, 127
2, 54640, Note_on_c, 1, 46, 127
2, 54640, Note_on_c, 1, 49, 127
2, 54640, Note_on_c, 1, 55, 127
2, 54640, Note_on_c, 1, 76, 127
2, 54640, Note_on_c, 1, 79, 127
2, 54640, Note_on_c, 1, 82, 127
2, 54640, Note_on_c, 1, 88, 127
2, 54680, Note_off_c, 1, 42, 0
2, 54680, Note_off_c, 1, 46, 0
2, 54680, Note_off_c, 1, 49, 0
2, 54680, Note_off_c, 1, 55, 0
2, 54680, Note_off_c, 1, 76, 0
2, 54680, Note_off_c, 1, 79, 0
2, 54680, Note_off_c, 1, 82, 0
2, 54680, Note_off_c, 1, 88, 0
2, 54720, Note_on_c, 1, 43, 127
2, 54720, Note_on_c, 1, 45, 127
2, 54720, Note_on_c, 1, 87, 127
2, 54720, Note_on_c, 1, 89, 127
2, 54760, Note_off_c, 1, 43, 0
2, 54760, Note_off_c, 1, 45, 0
2, 54760, Note_off_c, 1, 87, 0
2, 54760, Note_off_c, 1, 89, 0
2, 54800, Note_on_c, 1, 56, 127
2, 54800, Note_on_c, 1, 63, 127
2, 54800, Note_on_c, 1, 72, 127
2, 54800, Note_on_c, 1, 92, 127
2, 54840, Note_off_c, 1, 56, 0
2, 54840, Note_off_c, 1, 63, 0
2, 54840, Note_off_c, 1, 72, 0
2, 54840, Note_off_c, 1, 92, 0
2, 54880, Note_on_c, 1, 55, 127
2, 54880, Note_on_c, 1, 67, 127
2, 54880, Note_on_c, 1, 73, 127
2, 54880, Note_on_c, 1, 77, 127
2, 54880, Note_on_c, 1, 83, 127
2, 54880, Note_on_c, 1, 85, 127
2, 54920, Note_off_c, 1, 55, 0
2, 54920, Note_off_c, 1, 67, 0
2, 54920, Note_off_c, 1, 73, 0
2, 54920, Note_off_c, 1, 77, 0
2, 54920, Note_off_c, 1, 83, 0
2, 54920, Note_off_c, 1, 85, 0
2, 55040, Note_on_c, 1, 36, 127
2, 55040, Note_on_c, 1, 46, 127
2, 55040, Note_on_c, 1, 87, 127
2, 55080, Note_off_c, 1, 36, 0
2, 55080, Note_off_c, 1, 46, 0
2, 55080, Note_off_c, 1, 87, 0
2, 55120, Note_on_c, 1, 60, 127
2, 55120, Note_on_c, 1, 65, 127
2, 55120, Note_on_c, 1, 81, 127
2, 55120, Note_on_c, 1, 84, 127
2, 55160, Note_off_c, 1, 60, 0
2, 55160, Note_off_c, 1, 65, 0
2, 55160, Note_off_c, 1, 81, 0
2, 55160, Note_off_c, 1, 84, 0
2, 55200, Note_on_c, 1, 60, 127
2, 55200, Note_on_c, 1, 65, 127
2, 55200, Note_on_c, 1, 81, 127
2, 55200, Note_on_c, 1, 84, 127
2, 55240, Note_off_c, 1, 60, 0
2, 55240, Note_off_c, 1, 65, 0
2, 55240, Note_off_c, 1, 81, 0
2, 55240, Note_off_c, 1, 84, 0
2, 55280, Note_on_c, 1, 60, 127
2, 55280, Note_on_c, 1, 65, 127
2, 55280, Note_on_c, 1, 81, 127
2, 55280, Note_on_c, 1, 84, 127
2, 55320, Note_off_c, 1, 60, 0
2, 55320, Note_off_c, 1, 65, 0
2, 55320, Note_off_c, 1, 81, 0
2, 55320, Note_off_c, 1, 84, 0
2, 55360, Note_on_c, 1, 60, 127
2, 55360, Note_on_c, 1, 65, 127
2, 55360, Note_on_c, 1, 81, 127
2, 55360, Note_on_c, 1, 84, 127
2, 55440, Note_off_c, 1, 60, 0
2, 55440, Note_off_c, 1, 65, 0
2, 55440, Note_off_c, 1, 81, 0
2, 55440, Note_off_c, 1, 84, 0
2, 55480, Note_on_c, 1, 60, 127
2, 55480, Note_on_c, 1, 65, 127
2, 55480, Note_on_c, 1, 81, 127
2, 55480, Note_on_c, 1, 84, 127
2, 55520, Note_off_c, 1, 60, 0
2, 55520, Note_off_c, 1, 65, 0
2, 55520, Note_off_c, 1, 81, 0
2, 55520, Note_off_c, 1, 84, 0
2, 55560, Note_on_c, 1, 60, 127
2, 55560, Note_on_c, 1, 65, 127
2, 55560, Note_on_c, 1, 81, 127
2, 55560, Note_on_c, 1, 84, 127
2, 55600, Note_off_c, 1, 60, 0
2, 55600, Note_off_c, 1, 65, 0
2, 55600, Note_off_c, 1, 81, 0
2, 55600, Note_off_c, 1, 84, 0
2, 55640, Note_on_c, 1, 60, 127
2, 55640, Note_on_c, 1, 65, 127
2, 55640, Note_on_c, 1, 81, 127
2, 55640, Note_on_c, 1, 84, 127
2, 55680, Note_off_c, 1, 60, 0
2, 55680, Note_off_c, 1, 65, 0
2, 55680, Note_off_c, 1, 81, 0
2, 55680, Note_off_c, 1, 84, 0
2, 55720, Note_on_c, 1, 60, 127
2, 55720, Note_on_c, 1, 65, 127
2, 55720, Note_on_c, 1, 81, 127
2, 55720, Note_on_c, 1, 84, 127
2, 55760, Note_off_c, 1, 60, 0
2, 55760, Note_off_c, 1, 65, 0
2, 55760, Note_off_c, 1, 81, 0
2, 55760, Note_off_c, 1, 84, 0
2, 55800, Note_on_c, 1, 60, 127
2, 55800, Note_on_c, 1, 65, 127
2, 55800, Note_on_c, 1, 81, 127
2, 55800, Note_on_c, 1, 84, 127
2, 55880, Note_off_c, 1, 60, 0
2, 55880, Note_off_c, 1, 65, 0
2, 55880, Note_off_c, 1, 81, 0
2, 55880, Note_off_c, 1, 84, 0
2, 55920, Note_on_c, 1, 60, 127
2, 55920, Note_on_c, 1, 65, 127
2, 55920, Note_on_c, 1, 81, 127
2, 55920, Note_on_c, 1, 84, 127
2, 55960, Note_off_c, 1, 60, 0
2, 55960, Note_off_c, 1, 65, 0
2, 55960, Note_off_c, 1, 81, 0
2, 55960, Note_off_c, 1, 84, 0
2, 56000, Note_on_c, 1, 60, 127
2, 56000, Note_on_c, 1, 65, 127
2, 56000, Note_on_c, 1, 81, 127
2, 56000, Note_on_c, 1, 84, 127
2, 56040, Note_off_c, 1, 60, 0
2, 56040, Note_off_c, 1, 65, 0
2, 56040, Note_off_c, 1, 81, 0
2, 56040, Note_off_c, 1, 84, 0
2, 56080, Note_on_c, 1, 60, 127
2, 56080, Note_on_c, 1, 65, 127
2, 56080, Note_on_c, 1, 81, 127
2, 56080, Note_on_c, 1, 84, 127
2, 56120, Note_off_c, 1, 60, 0
2, 56120, Note_off_c, 1, 65, 0
2, 56120, Note_off_c, 1, 81, 0
2, 56120, Note_off_c, 1, 84, 0
2, 56160, Note_on_c, 1, 60, 127
2, 56160, Note_on_c, 1, 65, 127
2, 56160, Note_on_c, 1, 81, 127
2, 56160, Note_on_c, 1, 84, 127
2, 56240, Note_off_c, 1, 60, 0
2, 56240, Note_off_c, 1, 65, 0
2, 56240, Note_off_c, 1, 81, 0
2, 56240, Note_off_c, 1, 84, 0
2, 56280, Note_on_c, 1, 60, 127
2, 56280, Note_on_c, 1, 65, 127
2, 56280, Note_on_c, 1, 81, 127
2, 56280, Note_on_c, 1, 84, 127
2, 56320, Note_off_c, 1, 60, 0
2, 56320, Note_off_c, 1, 65, 0
2, 56320, Note_off_c, 1, 81, 0
2, 56320, Note_off_c, 1, 84, 0
2, 56360, Note_on_c, 1, 60, 127
2, 56360, Note_on_c, 1, 65, 127
2, 56360, Note_on_c, 1, 81, 127
2, 56360, Note_on_c, 1, 84, 127
2, 56400, Note_off_c, 1, 60, 0
2, 56400, Note_off_c, 1, 65, 0
2, 56400, Note_off_c, 1, 81, 0
2, 56400, Note_off_c, 1, 84, 0
2, 56440, Note_on_c, 1, 60, 127
2, 56440, Note_on_c, 1, 65, 127
2, 56440, Note_on_c, 1, 81, 127
2, 56440, Note_on_c, 1, 84, 127
2, 56480, Note_off_c, 1, 60, 0
2, 56480, Note_off_c, 1, 65, 0
2, 56480, Note_off_c, 1, 81, 0
2, 56480, Note_off_c, 1, 84, 0
2, 56520, Note_on_c, 1, 49, 127
2, 56520, Note_on_c, 1, 54, 127
2, 56520, Note_on_c, 1, 61, 127
2, 56520, Note_on_c, 1, 65, 127
2, 56520, Note_on_c, 1, 70, 127
2, 56520, Note_on_c, 1, 77, 127
2, 56560, Note_off_c, 1, 49, 0
2, 56560, Note_off_c, 1, 54, 0
2, 56560, Note_off_c, 1, 61, 0
2, 56560, Note_off_c, 1, 65, 0
2, 56560, Note_off_c, 1, 70, 0
2, 56560, Note_off_c, 1, 77, 0
2, 56600, Note_on_c, 1, 62, 127
2, 56600, Note_on_c, 1, 74, 127
2, 56640, Note_off_c, 1, 62, 0
2, 56640, Note_off_c, 1, 74, 0
2, 56680, Note_on_c, 1, 59, 127
2, 56680, Note_on_c, 1, 71, 127
2, 56760, Note_off_c, 1, 59, 0
2, 56760, Note_off_c, 1, 71, 0
2, 56800, Note_on_c, 1, 58, 127
2, 56800, Note_on_c, 1, 59, 127
2, 56800, Note_on_c, 1, 70, 127
2, 56800, Note_on_c, 1, 71, 127
2, 56840, Note_off_c, 1, 58, 0
2, 56840, Note_off_c, 1, 59, 0
2, 56840, Note_off_c, 1, 70, 0
2, 56840, Note_off_c, 1, 71, 0
2, 56880, Note_on_c, 1, 56, 127
2, 56880, Note_on_c, 1, 68, 127
2, 56920, Note_off_c, 1, 56, 0
2, 56920, Note_off_c, 1, 68, 0
2, 56960, Note_on_c, 1, 62, 127
2, 56960, Note_on_c, 1, 64, 127
2, 56960, Note_on_c, 1, 71, 127
2, 56960, Note_on_c, 1, 92, 127
2, 57000, Note_off_c, 1, 62, 0
2, 57000, Note_off_c, 1, 64, 0
2, 57000, Note_off_c, 1, 71, 0
2, 57000, Note_off_c, 1, 92, 0
2, 57040, Note_on_c, 1, 62, 127
2, 57040, Note_on_c, 1, 64, 127
2, 57040, Note_on_c, 1, 71, 127
2, 57040, Note_on_c, 1, 92, 127
2, 57080, Note_off_c, 1, 62, 0
2, 57080, Note_off_c, 1, 64, 0
2, 57080, Note_off_c, 1, 71, 0
2, 57080, Note_off_c, 1, 92, 0
2, 57160, Note_on_c, 1, 62, 127
2, 57160, Note_on_c, 1, 64, 127
2, 57160, Note_on_c, 1, 71, 127
2, 57160, Note_on_c, 1, 92, 127
2, 57200, Note_off_c, 1, 62, 0
2, 57200, Note_off_c, 1, 64, 0
2, 57200, Note_off_c, 1, 71, 0
2, 57200, Note_off_c, 1, 92, 0
2, 57280, Note_on_c, 1, 62, 127
2, 57280, Note_on_c, 1, 64, 127
2, 57280, Note_on_c, 1, 71, 127
2, 57280, Note_on_c, 1, 92, 127
2, 57400, Note_off_c, 1, 62, 0
2, 57400, Note_off_c, 1, 64, 0
2, 57400, Note_off_c, 1, 71, 0
2, 57400, Note_off_c, 1, 92, 0
2, 57440, Note_on_c, 1, 62, 127
2, 57440, Note_on_c, 1, 64, 127
2, 57440, Note_on_c, 1, 71, 127
2, 57440, Note_on_c, 1, 92, 127
2, 57760, Note_off_c, 1, 62, 0
2, 57760, Note_off_c, 1, 64, 0
2, 57760, Note_off_c, 1, 71, 0
2, 57760, Note_off_c, 1, 92, 0
2, 57800, Note_on_c, 1, 52, 127
2, 57800, Note_on_c, 1, 61, 127
2, 57800, Note_on_c, 1, 64, 127
2, 57800, Note_on_c, 1, 68, 127
2, 57840, Note_off_c, 1, 52, 0
2, 57840, Note_off_c, 1, 61, 0
2, 57840, Note_off_c, 1, 64, 0
2, 57840, Note_off_c, 1, 68, 0
2, 57880, Note_on_c, 1, 68, 127
2, 57920, Note_off_c, 1, 68, 0
2, 57960, Note_on_c, 1, 52, 127
2, 57960, Note_on_c, 1, 59, 127
2, 57960, Note_on_c, 1, 64, 127
2, 57960, Note_on_c, 1, 68, 127
2, 58080, Note_off_c, 1, 52, 0
2, 58080, Note_off_c, 1, 59, 0
2, 58080, Note_off_c, 1, 64, 0
2, 58080, Note_off_c, 1, 68, 0
2, 58320, Note_on_c, 1, 52, 127
2, 58320, Note_on_c, 1, 56, 127
2, 58320, Note_on_c, 1, 59, 127
2, 58320, Note_on_c, 1, 62, 127
2, 58320, Note_on_c, 1, 64, 127
2, 58440, Note_off_c, 1, 52, 0
2, 58440, Note_off_c, 1, 56, 0
2, 58440, Note_off_c, 1, 59, 0
2, 58440, Note_off_c, 1, 62, 0
2, 58440, Note_off_c, 1, 64, 0
2, 58680, Note_on_c, 1, 52, 127
2, 58680, Note_on_c, 1, 59, 127
2, 58680, Note_on_c, 1, 64, 127
2, 58680, Note_on_c, 1, 68, 127
2, 58680, Note_on_c, 1, 73, 127
2, 58720, Note_off_c, 1, 52, 0
2, 58720, Note_off_c, 1, 59, 0
2, 58720, Note_off_c, 1, 64, 0
2, 58720, Note_off_c, 1, 68, 0
2, 58720, Note_off_c, 1, 73, 0
2, 59040, Note_on_c, 1, 37, 127
2, 59040, Note_on_c, 1, 49, 127
2, 59040, Note_on_c, 1, 64, 127
2, 59040, Note_on_c, 1, 69, 127
2, 59040, Note_on_c, 1, 76, 127
2, 59080, Note_off_c, 1, 37, 0
2, 59080, Note_off_c, 1, 49, 0
2, 59080, Note_off_c, 1, 64, 0
2, 59080, Note_off_c, 1, 69, 0
2, 59080, Note_off_c, 1, 76, 0
2, 59920, Note_on_c, 1, 75, 127
2, 59920, Note_on_c, 1, 78, 127
2, 59920, Note_on_c, 1, 84, 127
2, 59920, Note_on_c, 1, 90, 127
2, 59920, Note_on_c, 1, 92, 127
2, 60000, Note_off_c, 1, 75, 0
2, 60000, Note_off_c, 1, 78, 0
2, 60000, Note_off_c, 1, 84, 0
2, 60000, Note_off_c, 1, 90, 0
2, 60000, Note_off_c, 1, 92, 0
2, 60280, Note_on_c, 1, 46, 127
2, 60280, Note_on_c, 1, 53, 127
2, 60280, Note_on_c, 1, 58, 127
2, 60280, Note_on_c, 1, 61, 127
2, 60280, Note_on_c, 1, 65, 127
2, 60280, Note_on_c, 1, 73, 127
2, 60400, Note_off_c, 1, 46, 0
2, 60400, Note_off_c, 1, 53, 0
2, 60400, Note_off_c, 1, 58, 0
2, 60400, Note_off_c, 1, 61, 0
2, 60400, Note_off_c, 1, 65, 0
2, 60400, Note_off_c, 1, 73, 0
2, 60640, Note_on_c, 1, 36, 127
2, 60640, Note_on_c, 1, 48, 127
2, 60640, Note_on_c, 1, 79, 127
2, 60640, Note_on_c, 1, 82, 127
2, 60640, Note_on_c, 1, 88, 127
2, 60680, Note_off_c, 1, 36, 0
2, 60680, Note_off_c, 1, 48, 0
2, 60760, Note_off_c, 1, 79, 0
2, 60760, Note_off_c, 1, 82, 0
2, 60760, Note_off_c, 1, 88, 0
2, 60800, Note_on_c, 1, 56, 127
2, 60800, Note_on_c, 1, 58, 127
2, 60800, Note_on_c, 1, 63, 127
2, 60800, Note_on_c, 1, 67, 127
2, 60800, Note_on_c, 1, 73, 127
2, 60840, Note_off_c, 1, 56, 0
2, 60840, Note_off_c, 1, 58, 0
2, 60840, Note_off_c, 1, 63, 0
2, 60840, Note_off_c, 1, 67, 0
2, 60840, Note_off_c, 1, 73, 0
2, 61000, Note_on_c, 1, 44, 127
2, 61000, Note_on_c, 1, 60, 127
2, 61000, Note_on_c, 1, 63, 127
2, 61000, Note_on_c, 1, 72, 127
2, 61040, Note_off_c, 1, 44, 0
2, 61040, Note_off_c, 1, 60, 0
2, 61040, Note_off_c, 1, 63, 0
2, 61040, Note_off_c, 1, 72, 0
2, 61160, Note_on_c, 1, 38, 127
2, 61160, Note_on_c, 1, 41, 127
2, 61160, Note_on_c, 1, 50, 127
2, 61160, Note_on_c, 1, 68, 127
2, 61160, Note_on_c, 1, 71, 127
2, 61160, Note_on_c, 1, 80, 127
2, 61200, Note_off_c, 1, 38, 0
2, 61200, Note_off_c, 1, 41, 0
2, 61200, Note_off_c, 1, 50, 0
2, 61200, Note_off_c, 1, 68, 0
2, 61200, Note_off_c, 1, 71, 0
2, 61200, Note_off_c, 1, 80, 0
2, 61400, Note_on_c, 1, 56, 127
2, 61400, Note_on_c, 1, 60, 127
2, 61400, Note_on_c, 1, 63, 127
2, 61400, Note_on_c, 1, 66, 127
2, 61400, Note_on_c, 1, 81, 127
2, 61400, Note_on_c, 1, 84, 127
2, 61400, Note_on_c, 1, 87, 127
2, 61400, Note_on_c, 1, 90, 127
2, 61400, Note_on_c, 1, 93, 127
2, 61600, Note_off_c, 1, 56, 0
2, 61600, Note_off_c, 1, 60, 0
2, 61600, Note_off_c, 1, 63, 0
2, 61600, Note_off_c, 1, 66, 0
2, 61600, Note_off_c, 1, 81, 0
2, 61600, Note_off_c, 1, 84, 0
2, 61600, Note_off_c, 1, 87, 0
2, 61600, Note_off_c, 1, 90, 0
2, 61600, Note_off_c, 1, 93, 0
2, 61640, Note_on_c, 1, 56, 127
2, 61640, Note_on_c, 1, 60, 127
2, 61640, Note_on_c, 1, 63, 127
2, 61640, Note_on_c, 1, 66, 127
2, 61640, Note_on_c, 1, 81, 127
2, 61640, Note_on_c, 1, 84, 127
2, 61640, Note_on_c, 1, 87, 127
2, 61640, Note_on_c, 1, 90, 127
2, 61640, Note_on_c, 1, 93, 127
2, 61680, Note_off_c, 1, 56, 0
2, 61680, Note_off_c, 1, 60, 0
2, 61680, Note_off_c, 1, 63, 0
2, 61680, Note_off_c, 1, 66, 0
2, 61680, Note_off_c, 1, 81, 0
2, 61680, Note_off_c, 1, 84, 0
2, 61680, Note_off_c, 1, 87, 0
2, 61680, Note_off_c, 1, 90, 0
2, 61680, Note_off_c, 1, 93, 0
2, 61760, Note_on_c, 1, 56, 127
2, 61760, Note_on_c, 1, 60, 127
2, 61760, Note_on_c, 1, 63, 127
2, 61760, Note_on_c, 1, 66, 127
2, 61760, Note_on_c, 1, 81, 127
2, 61760, Note_on_c, 1, 84, 127
2, 61760, Note_on_c, 1, 87, 127
2, 61760, Note_on_c, 1, 90, 127
2, 61760, Note_on_c, 1, 93, 127
2, 61800, Note_off_c, 1, 56, 0
2, 61800, Note_off_c, 1, 60, 0
2, 61800, Note_off_c, 1, 63, 0
2, 61800, Note_off_c, 1, 66, 0
2, 61800, Note_off_c, 1, 81, 0
2, 61800, Note_off_c, 1, 84, 0
2, 61800, Note_off_c, 1, 87, 0
2, 61800, Note_off_c, 1, 90, 0
2, 61800, Note_off_c, 1, 93, 0
2, 61840, Note_on_c, 1, 56, 127
2, 61840, Note_on_c, 1, 60, 127
2, 61840, Note_on_c, 1, 63, 127
2, 61840, Note_on_c, 1, 66, 127
2, 61840, Note_on_c, 1, 81, 127
2, 61840, Note_on_c, 1, 84, 127
2, 61840, Note_on_c, 1, 87, 127
2, 61840, Note_on_c, 1, 90, 127
2, 61840, Note_on_c, 1, 93, 127
2, 61880, Note_off_c, 1, 56, 0
2, 61880, Note_off_c, 1, 60, 0
2, 61880, Note_off_c, 1, 63, 0
2, 61880, Note_off_c, 1, 66, 0
2, 61880, Note_off_c, 1, 81, 0
2, 61880, Note_off_c, 1, 84, 0
2, 61880, Note_off_c, 1, 87, 0
2, 61880, Note_off_c, 1, 90, 0
2, 61880, Note_off_c, 1, 93, 0
2, 61920, Note_on_c, 1, 56, 127
2, 61920, Note_on_c, 1, 60, 127
2, 61920, Note_on_c, 1, 63, 127
2, 61920, Note_on_c, 1, 66, 127
2, 61920, Note_on_c, 1, 81, 127
2, 61920, Note_on_c, 1, 84, 127
2, 61920, Note_on_c, 1, 87, 127
2, 61920, Note_on_c, 1, 90, 127
2, 61920, Note_on_c, 1, 93, 127
2, 61960, Note_off_c, 1, 56, 0
2, 61960, Note_off_c, 1, 60, 0
2, 61960, Note_off_c, 1, 63, 0
2, 61960, Note_off_c, 1, 66, 0
2, 61960, Note_off_c, 1, 81, 0
2, 61960, Note_off_c, 1, 84, 0
2, 61960, Note_off_c, 1, 87, 0
2, 61960, Note_off_c, 1, 90, 0
2, 61960, Note_off_c, 1, 93, 0
2, 62000, Note_on_c, 1, 56, 127
2, 62000, Note_on_c, 1, 60, 127
2, 62000, Note_on_c, 1, 63, 127
2, 62000, Note_on_c, 1, 66, 127
2, 62000, Note_on_c, 1, 81, 127
2, 62000, Note_on_c, 1, 84, 127
2, 62000, Note_on_c, 1, 87, 127
2, 62000, Note_on_c, 1, 90, 127
2, 62000, Note_on_c, 1, 93, 127
2, 62040, Note_off_c, 1, 56, 0
2, 62040, Note_off_c, 1, 60, 0
2, 62040, Note_off_c, 1, 63, 0
2, 62040, Note_off_c, 1, 66, 0
2, 62040, Note_off_c, 1, 81, 0
2, 62040, Note_off_c, 1, 84, 0
2, 62040, Note_off_c, 1, 87, 0
2, 62040, Note_off_c, 1, 90, 0
2, 62040, Note_off_c, 1, 93, 0
2, 62080, Note_on_c, 1, 51, 127
2, 62080, Note_on_c, 1, 56, 127
2, 62080, Note_on_c, 1, 60, 127
2, 62080, Note_on_c, 1, 63, 127
2, 62120, Note_off_c, 1, 51, 0
2, 62120, Note_off_c, 1, 56, 0
2, 62120, Note_off_c, 1, 60, 0
2, 62120, Note_off_c, 1, 63, 0
2, 62200, Note_on_c, 1, 46, 127
2, 62200, Note_on_c, 1, 58, 127
2, 62200, Note_on_c, 1, 65, 127
2, 62200, Note_on_c, 1, 70, 127
2, 62200, Note_on_c, 1, 74, 127
2, 62200, Note_on_c, 1, 77, 127
2, 62240, Note_off_c, 1, 46, 0
2, 62240, Note_off_c, 1, 58, 0
2, 62240, Note_off_c, 1, 65, 0
2, 62240, Note_off_c, 1, 70, 0
2, 62240, Note_off_c, 1, 74, 0
2, 62240, Note_off_c, 1, 77, 0
2, 62560, Note_on_c, 1, 48, 127
2, 62640, Note_off_c, 1, 48, 0
2, 62680, Note_on_c, 1, 48, 127
2, 62760, Note_off_c, 1, 48, 0
2, 62800, Note_on_c, 1, 48, 127
2, 62840, Note_off_c, 1, 48, 0
2, 62880, Note_on_c, 1, 55, 127
2, 62880, Note_on_c, 1, 58, 127
2, 62880, Note_on_c, 1, 60, 127
2, 62920, Note_off_c, 1, 55, 0
2, 62920, Note_off_c, 1, 58, 0
2, 62920, Note_off_c, 1, 60, 0
2, 63000, Note_on_c, 1, 55, 127
2, 63000, Note_on_c, 1, 58, 127
2, 63000, Note_on_c, 1, 60, 127
2, 63040, Note_off_c, 1, 55, 0
2, 63040, Note_off_c, 1, 58, 0
2, 63040, Note_off_c, 1, 60, 0
2, 63080, Note_on_c, 1, 55, 127
2, 63080, Note_on_c, 1, 58, 127
2, 63080, Note_on_c, 1, 60, 127
2, 63120, Note_off_c, 1, 55, 0
2, 63120, Note_off_c, 1, 58, 0
2, 63120, Note_off_c, 1, 60, 0
2, 63200, Note_on_c, 1, 55, 127
2, 63200, Note_on_c, 1, 58, 127
2, 63200, Note_on_c, 1, 60, 127
2, 63240, Note_off_c, 1, 55, 0
2, 63240, Note_off_c, 1, 58, 0
2, 63240, Note_off_c, 1, 60, 0
2, 63360, Note_on_c, 1, 53, 127
2, 63360, Note_on_c, 1, 55, 127
2, 63360, Note_on_c, 1, 58, 127
2, 63400, Note_off_c, 1, 53, 0
2, 63400, Note_off_c, 1, 55, 0
2, 63400, Note_off_c, 1, 58, 0
2, 63520, Note_on_c, 1, 53, 127
2, 63520, Note_on_c, 1, 55, 127
2, 63520, Note_on_c, 1, 58, 127
2, 63560, Note_off_c, 1, 53, 0
2, 63560, Note_off_c, 1, 55, 0
2, 63560, Note_off_c, 1, 58, 0
2, 63680, Note_on_c, 1, 55, 127
2, 63680, Note_on_c, 1, 57, 127
2, 63680, Note_on_c, 1, 64, 127
2, 63680, Note_on_c, 1, 83, 127
2, 63720, Note_off_c, 1, 55, 0
2, 63720, Note_off_c, 1, 57, 0
2, 63720, Note_off_c, 1, 64, 0
2, 63720, Note_off_c, 1, 83, 0
2, 63880, Note_on_c, 1, 53, 127
2, 63880, Note_on_c, 1, 57, 127
2, 63920, Note_off_c, 1, 53, 0
2, 63920, Note_off_c, 1, 57, 0
2, 64040, Note_on_c, 1, 62, 127
2, 64040, Note_on_c, 1, 65, 127
2, 64040, Note_on_c, 1, 70, 127
2, 64040, Note_on_c, 1, 74, 127
2, 64080, Note_off_c, 1, 62, 0
2, 64080, Note_off_c, 1, 65, 0
2, 64080, Note_off_c, 1, 70, 0
2, 64080, Note_off_c, 1, 74, 0
2, 64400, Note_on_c, 1, 55, 127
2, 64400, Note_on_c, 1, 58, 127
2, 64400, Note_on_c, 1, 62, 127
2, 64400, Note_on_c, 1, 70, 127
2, 64440, Note_off_c, 1, 55, 0
2, 64440, Note_off_c, 1, 58, 0
2, 64440, Note_off_c, 1, 62, 0
2, 64440, Note_off_c, 1, 70, 0
2, 64760, Note_on_c, 1, 51, 127
2, 64760, Note_on_c, 1, 58, 127
2, 64760, Note_on_c, 1, 67, 127
2, 64760, Note_on_c, 1, 75, 127
2, 64800, Note_off_c, 1, 51, 0
2, 64800, Note_off_c, 1, 58, 0
2, 64800, Note_off_c, 1, 67, 0
2, 64800, Note_off_c, 1, 75, 0
2, 65120, Note_on_c, 1, 58, 127
2, 65160, Note_on_c, 1, 57, 127
2, 65160, Note_off_c, 1, 58, 0
2, 65520, Note_off_c, 1, 57, 0
2, 65560, Note_on_c, 1, 45, 127
2, 65560, Note_on_c, 1, 57, 127
2, 65560, Note_on_c, 1, 60, 127
2, 65640, Note_off_c, 1, 45, 0
2, 65640, Note_off_c, 1, 60, 0
2, 65920, Note_off_c, 1, 57, 0
2, 65960, Note_on_c, 1, 57, 127
2, 66280, Note_off_c, 1, 57, 0
2, 66320, Note_on_c, 1, 61, 127
2, 66680, Note_on_c, 1, 58, 127
2, 66680, Note_on_c, 1, 60, 127
2, 66680, Note_off_c, 1, 61, 0
2, 66680, Note_on_c, 1, 64, 127
2, 66760, Note_off_c, 1, 58, 0
2, 66760, Note_off_c, 1, 64, 0
2, 66800, Note_on_c, 1, 57, 127
2, 66800, Note_off_c, 1, 60, 0
2, 67040, Note_on_c, 1, 58, 127
2, 67040, Note_on_c, 1, 60, 127
2, 67360, Note_off_c, 1, 58, 0
2, 67360, Note_off_c, 1, 60, 0
2, 67600, Note_off_c, 1, 57, 0
2, 67640, Note_on_c, 1, 57, 127
2, 67960, Note_off_c, 1, 57, 0
2, 68000, Note_on_c, 1, 65, 127
2, 68840, Note_off_c, 1, 65, 0
2, 68880, Note_on_c, 1, 45, 127
2, 68880, Note_on_c, 1, 65, 127
2, 68880, Note_on_c, 1, 69, 127
2, 69000, Note_off_c, 1, 65, 0
2, 69040, Note_on_c, 1, 57, 127
2, 69200, Note_off_c, 1, 57, 0
2, 69240, Note_on_c, 1, 54, 127
2, 69240, Note_on_c, 1, 57, 127
2, 69240, Note_on_c, 1, 66, 127
2, 69240, Note_off_c, 1, 69, 0
2, 69480, Note_off_c, 1, 45, 0
2, 69480, Note_off_c, 1, 54, 0
2, 69480, Note_off_c, 1, 57, 0
2, 69480, Note_off_c, 1, 66, 0
2, 69520, Note_on_c, 1, 45, 127
2, 69520, Note_on_c, 1, 54, 127
2, 69520, Note_on_c, 1, 57, 127
2, 69520, Note_on_c, 1, 66, 127
2, 69560, Note_off_c, 1, 45, 0
2, 69560, Note_on_c, 1, 46, 127
2, 69560, Note_off_c, 1, 57, 0
2, 69560, Note_on_c, 1, 58, 127
2, 69560, Note_off_c, 1, 66, 0
2, 69600, Note_on_c, 1, 45, 127
2, 69600, Note_off_c, 1, 46, 0
2, 69600, Note_on_c, 1, 52, 127
2, 69600, Note_off_c, 1, 54, 0
2, 69600, Note_on_c, 1, 55, 127
2, 69600, Note_off_c, 1, 58, 0
2, 69600, Note_on_c, 1, 67, 127
2, 69760, Note_off_c, 1, 67, 0
2, 69800, Note_on_c, 1, 61, 127
2, 69920, Note_off_c, 1, 45, 0
2, 69920, Note_off_c, 1, 52, 0
2, 69920, Note_off_c, 1, 55, 0
2, 69920, Note_off_c, 1, 61, 0
2, 72120, Note_on_c, 1, 37, 127
2, 72120, Note_on_c, 1, 41, 127
2, 72120, Note_on_c, 1, 49, 127
2, 72320, Note_off_c, 1, 37, 0
2, 72320, Note_off_c, 1, 41, 0
2, 72320, Note_off_c, 1, 49, 0
2, 74480, Note_on_c, 1, 30, 127
2, 74480, Note_on_c, 1, 42, 127
2, 75440, Note_off_c, 1, 30, 0
2, 75440, Note_off_c, 1, 42, 0
2, 75480, Note_on_c, 1, 30, 127
2, 75480, Note_on_c, 1, 42, 127
2, 75960, Note_off_c, 1, 30, 0
2, 75960, Note_off_c, 1, 42, 0
2, 76000, Note_on_c, 1, 30, 127
2, 76000, Note_on_c, 1, 42, 127
2, 76120, Note_off_c, 1, 30, 0
2, 76120, Note_off_c, 1, 42, 0
2, 78120, Note_on_c, 1, 34, 127
2, 78120, Note_on_c, 1, 46, 127
2, 78120, Note_on_c, 1, 58, 127
2, 78160, Note_off_c, 1, 34, 0
2, 78160, Note_off_c, 1, 46, 0
2, 78160, Note_off_c, 1, 58, 0
2, 78240, Note_on_c, 1, 34, 127
2, 78240, Note_on_c, 1, 46, 127
2, 78240, Note_on_c, 1, 58, 127
2, 78280, Note_off_c, 1, 34, 0
2, 78280, Note_off_c, 1, 46, 0
2, 78280, Note_off_c, 1, 58, 0
2, 78440, Note_on_c, 1, 64, 127
2, 78440, Note_on_c, 1, 71, 127
2, 78440, Note_on_c, 1, 83, 127
2, 78440, Note_on_c, 1, 90, 127
2, 78480, Note_off_c, 1, 64, 0
2, 78480, Note_off_c, 1, 71, 0
2, 78480, Note_off_c, 1, 83, 0
2, 78480, Note_off_c, 1, 90, 0
2, 78600, Note_on_c, 1, 49, 127
2, 78600, Note_on_c, 1, 53, 127
2, 78600, Note_on_c, 1, 59, 127
2, 78600, Note_on_c, 1, 68, 127
2, 78600, Note_on_c, 1, 73, 127
2, 78640, Note_off_c, 1, 49, 0
2, 78640, Note_off_c, 1, 53, 0
2, 78640, Note_off_c, 1, 59, 0
2, 78640, Note_off_c, 1, 68, 0
2, 78640, Note_off_c, 1, 73, 0
2, 79360, Note_on_c, 1, 62, 127
2, 79440, Note_off_c, 1, 62, 0
2, 79480, Note_on_c, 1, 65, 127
2, 79520, Note_off_c, 1, 65, 0
2, 79560, Note_on_c, 1, 65, 127
2, 79640, Note_off_c, 1, 65, 0
2, 79680, Note_on_c, 1, 67, 127
2, 79720, Note_off_c, 1, 67, 0
2, 79760, Note_on_c, 1, 62, 127
2, 79960, Note_off_c, 1, 62, 0
2, 80000, Note_on_c, 1, 67, 127
2, 80160, Note_off_c, 1, 67, 0
2, 80200, Note_on_c, 1, 65, 127
2, 80240, Note_off_c, 1, 65, 0
2, 80280, Note_on_c, 1, 64, 127
2, 80320, Note_off_c, 1, 64, 0
2, 80320, Note_on_c, 1, 65, 127
2, 80360, Note_off_c, 1, 65, 0
2, 80400, Note_on_c, 1, 62, 127
2, 80440, Note_off_c, 1, 62, 0
2, 80480, Note_on_c, 1, 65, 127
2, 80560, Note_off_c, 1, 65, 0
2, 80600, Note_on_c, 1, 62, 127
2, 80640, Note_off_c, 1, 62, 0
2, 80680, Note_on_c, 1, 65, 127
2, 80760, Note_off_c, 1, 65, 0
2, 80800, Note_on_c, 1, 62, 127
2, 80840, Note_off_c, 1, 62, 0
2, 80880, Note_on_c, 1, 58, 127
2, 80960, Note_off_c, 1, 58, 0
2, 81000, Note_on_c, 1, 62, 127
2, 81040, Note_off_c, 1, 62, 0
2, 81080, Note_on_c, 1, 65, 127
2, 81160, Note_off_c, 1, 65, 0
2, 81200, Note_on_c, 1, 67, 127
2, 81240, Note_off_c, 1, 67, 0
2, 81280, Note_on_c, 1, 65, 127
2, 81320, Note_off_c, 1, 65, 0
2, 81360, Note_on_c, 1, 65, 127
2, 81400, Note_off_c, 1, 65, 0
2, 81440, Note_on_c, 1, 67, 127
2, 81480, Note_off_c, 1, 67, 0
2, 81520, Note_on_c, 1, 65, 127
2, 81560, Note_on_c, 1, 64, 127
2, 81560, Note_off_c, 1, 65, 0
2, 81600, Note_off_c, 1, 64, 0
2, 81640, Note_on_c, 1, 62, 127
2, 81680, Note_off_c, 1, 62, 0
2, 81720, Note_on_c, 1, 60, 127
2, 81760, Note_on_c, 1, 58, 127
2, 81760, Note_off_c, 1, 60, 0
2, 81800, Note_off_c, 1, 58, 0
2, 81840, Note_on_c, 1, 62, 127
2, 81880, Note_off_c, 1, 62, 0
2, 81920, Note_on_c, 1, 53, 127
2, 81960, Note_off_c, 1, 53, 0
2, 82000, Note_on_c, 1, 53, 127
2, 82080, Note_off_c, 1, 53, 0
2, 82120, Note_on_c, 1, 48, 127
2, 82160, Note_off_c, 1, 48, 0
2, 82200, Note_on_c, 1, 46, 127
2, 82360, Note_on_c, 1, 70, 127
2, 82520, Note_off_c, 1, 70, 0
2, 82560, Note_on_c, 1, 69, 127
2, 82720, Note_off_c, 1, 46, 0
2, 82720, Note_off_c, 1, 69, 0
2, 82760, Note_on_c, 1, 70, 127
2, 82880, Note_off_c, 1, 70, 0
2, 82920, Note_on_c, 1, 69, 127
2, 83120, Note_off_c, 1, 69, 0
2, 85840, Note_on_c, 1, 51, 127
2, 85840, Note_on_c, 1, 58, 127
2, 85840, Note_on_c, 1, 67, 127
2, 85840, Note_on_c, 1, 75, 127
2, 86560, Note_off_c, 1, 51, 0
2, 86560, Note_off_c, 1, 58, 0
2, 86560, Note_off_c, 1, 67, 0
2, 86560, Note_off_c, 1, 75, 0
2, 86600, Note_on_c, 1, 51, 127
2, 86600, Note_on_c, 1, 58, 127
2, 86600, Note_on_c, 1, 67, 127
2, 86600, Note_on_c, 1, 75, 127
2, 88760, Note_off_c, 1, 51, 0
2, 88760, Note_off_c, 1, 58, 0
2, 88760, Note_off_c, 1, 67, 0
2, 88760, Note_off_c, 1, 75, 0
2, 88800, Note_on_c, 1, 51, 127
2, 88800, Note_on_c, 1, 58, 127
2, 88800, Note_on_c, 1, 67, 127
2, 88800, Note_on_c, 1, 75, 127
2, 89800, Note_off_c, 1, 51, 0
2, 89800, Note_off_c, 1, 58, 0
2, 89800, Note_off_c, 1, 67, 0
2, 89800, Note_off_c, 1, 75, 0
2, 89840, Note_on_c, 1, 51, 127
2, 89840, Note_on_c, 1, 58, 127
2, 89840, Note_on_c, 1, 67, 127
2, 89840, Note_on_c, 1, 75, 127
2, 90760, Note_off_c, 1, 51, 0
2, 90760, Note_off_c, 1, 58, 0
2, 90760, Note_off_c, 1, 67, 0
2, 90760, Note_off_c, 1, 75, 0
2, 90800, Note_on_c, 1, 51, 127
2, 90800, Note_on_c, 1, 58, 127
2, 90800, Note_on_c, 1, 67, 127
2, 90800, Note_on_c, 1, 75, 127
2, 91480, Note_off_c, 1, 51, 0
2, 91480, Note_off_c, 1, 58, 0
2, 91480, Note_off_c, 1, 67, 0
2, 91480, Note_off_c, 1, 75, 0
2, 91520, Note_on_c, 1, 39, 127
2, 91520, Note_on_c, 1, 51, 127
2, 91520, Note_on_c, 1, 58, 127
2, 91520, Note_on_c, 1, 63, 127
2, 91520, Note_on_c, 1, 67, 127
2, 92280, Note_off_c, 1, 39, 0
2, 92280, Note_off_c, 1, 51, 0
2, 92320, Note_on_c, 1, 51, 127
2, 92320, Note_on_c, 1, 70, 127
2, 92320, Note_on_c, 1, 79, 127
2, 92720, Note_off_c, 1, 51, 0
2, 92720, Note_off_c, 1, 58, 0
2, 92720, Note_off_c, 1, 63, 0
2, 92720, Note_off_c, 1, 67, 0
2, 92720, Note_off_c, 1, 70, 0
2, 92720, Note_off_c, 1, 79, 0
2, 92760, Note_on_c, 1, 51, 127
2, 92760, Note_on_c, 1, 58, 127
2, 92760, Note_on_c, 1, 63, 127
2, 92760, Note_on_c, 1, 67, 127
2, 92760, Note_on_c, 1, 70, 127
2, 92760, Note_on_c, 1, 79, 127
2, 93080, Note_off_c, 1, 79, 0
2, 93400, Note_off_c, 1, 51, 0
2, 93400, Note_off_c, 1, 58, 0
2, 93400, Note_off_c, 1, 63, 0
2, 93400, Note_off_c, 1, 67, 0
2, 93400, Note_off_c, 1, 70, 0
2, 93440, Note_on_c, 1, 26, 127
2, 93440, Note_on_c, 1, 33, 127
2, 93440, Note_on_c, 1, 38, 127
2, 93440, Note_on_c, 1, 50, 127
2, 93440, Note_on_c, 1, 54, 127
2, 93440, Note_on_c, 1, 57, 127
2, 93440, Note_on_c, 1, 62, 127
2, 94640, Note_off_c, 1, 26, 0
2, 94640, Note_off_c, 1, 33, 0
2, 94640, Note_off_c, 1, 38, 0
2, 94640, Note_off_c, 1, 50, 0
2, 94640, Note_off_c, 1, 54, 0
2, 94640, Note_off_c, 1, 57, 0
2, 94640, Note_off_c, 1, 62, 0
2, 94720, Note_on_c, 1, 63, 127
2, 94720, Note_on_c, 1, 72, 127
2, 96320, Note_off_c, 1, 63, 0
2, 96320, Note_off_c, 1, 72, 0
2, 96360, Note_on_c, 1, 46, 127
2, 96360, Note_on_c, 1, 70, 127
2, 96560, Note_off_c, 1, 46, 0
2, 96560, Note_off_c, 1, 70, 0
2, 96600, Note_on_c, 1, 68, 127
2, 96680, Note_off_c, 1, 68, 0
2, 96720, Note_on_c, 1, 68, 127
2, 97080, Note_off_c, 1, 68, 0
2, 97120, Note_on_c, 1, 70, 127
2, 99040, Note_off_c, 1, 70, 0
2, 99080, Note_on_c, 1, 70, 127
2, 99360, Note_off_c, 1, 70, 0
2, 99400, Note_on_c, 1, 70, 127
2, 99600, Note_off_c, 1, 70, 0
2, 99880, Note_on_c, 1, 68, 127
2, 100080, Note_off_c, 1, 68, 0
2, 100360, Note_on_c, 1, 66, 127
2, 100800, Note_off_c, 1, 66, 0
2, 100840, Note_on_c, 1, 68, 127
2, 101120, Note_off_c, 1, 68, 0
2, 101160, Note_on_c, 1, 68, 127
2, 101520, Note_off_c, 1, 68, 0
2, 101520, Note_on_c, 1, 70, 127
2, 101600, Note_off_c, 1, 70, 0
2, 101600, Note_on_c, 1, 71, 127
2, 103720, Note_off_c, 1, 71, 0
2, 103760, Note_on_c, 1, 71, 127
2, 106360, Note_off_c, 1, 71, 0
2, 106400, Note_on_c, 1, 70, 127
2, 106680, Note_off_c, 1, 70, 0
2, 106720, Note_on_c, 1, 70, 127
2, 106800, Note_off_c, 1, 70, 0
2, 106840, Note_on_c, 1, 66, 127
2, 108280, Note_off_c, 1, 66, 0
2, 111680, Note_on_c, 1, 33, 127
2, 111680, Note_on_c, 1, 40, 127
2, 111680, Note_on_c, 1, 45, 127
2, 112040, Note_off_c, 1, 33, 0
2, 112040, Note_off_c, 1, 40, 0
2, 112040, Note_off_c, 1, 45, 0
2, 112080, Note_on_c, 1, 33, 127
2, 112080, Note_on_c, 1, 40, 127
2, 112080, Note_on_c, 1, 45, 127
2, 112440, Note_off_c, 1, 33, 0
2, 112440, Note_off_c, 1, 40, 0
2, 112440, Note_off_c, 1, 45, 0
2, 115800, Note_on_c, 1, 61, 127
2, 115880, Note_off_c, 1, 61, 0
2, 115920, Note_on_c, 1, 61, 127
2, 117040, Note_off_c, 1, 61, 0
2, 117080, Note_on_c, 1, 56, 127
2, 117160, Note_off_c, 1, 56, 0
2, 117200, Note_on_c, 1, 58, 127
2, 117280, Note_off_c, 1, 58, 0
2, 117320, Note_on_c, 1, 58, 127
2, 117480, Note_off_c, 1, 58, 0
2, 117520, Note_on_c, 1, 61, 127
2, 117600, Note_off_c, 1, 61, 0
2, 117640, Note_on_c, 1, 65, 127
2, 118040, Note_off_c, 1, 65, 0
2, 120040, End_track
3, 0, Start_track
3, 0, Title_t, "MIDI"
3, 1536, End_track
0, 0, End_of_file
