0, 0, Header, 1, 3, 192
1, 0, Start_track
1, 0, Time_signature, 4, 2, 24, 8
1, 0, Tempo, 500000
1, 120040, End_track
2, 0, Start_track
2, 0, Text_t, "random instrument: random person i dunno whatev"
2, 0, Title_t, "Track 1"
2, 0, Note_on_c, 1, 34, 127
2, 0, Note_on_c, 1, 53, 127
2, 0, Note_on_c, 1, 56, 127
2, 0, Note_on_c, 1, 62, 127
2, 40, Note_off_c, 1, 34, 0
2, 40, Note_off_c, 1, 53, 0
2, 40, Note_off_c, 1, 56, 0
2, 40, Note_off_c, 1, 62, 0
2, 80, Note_on_c, 1, 31, 127
2, 80, Note_on_c, 1, 43, 127
2, 80, Note_on_c, 1, 59, 127
2, 80, Note_on_c, 1, 65, 127
2, 80, Note_on_c, 1, 67, 127
2, 120, Note_off_c, 1, 31, 0
2, 120, Note_on_c, 1, 34, 127
2, 120, Note_off_c, 1, 43, 0
2, 120, Note_on_c, 1, 53, 127
2, 120, Note_on_c, 1, 56, 127
2, 120, Note_off_c, 1, 59, 0
2, 120, Note_on_c, 1, 62, 127
2, 120, Note_off_c, 1, 65, 0
2, 120, Note_off_c, 1, 67, 0
2, 160, Note_off_c, 1, 34, 0
2, 160, Note_on_c, 1, 43, 127
2, 160, Note_on_c, 1, 47, 127
2, 160, Note_off_c, 1, 53, 0
2, 160, Note_on_c, 1, 55, 127
2, 160, Note_off_c, 1, 56, 0
2, 160, Note_off_c, 1, 62, 0
2, 160, Note_on_c, 1, 79, 127
2, 160, Note_on_c, 1, 83, 127
2, 160, Note_on_c, 1, 87, 127
2, 160, Note_on_c, 1, 91, 127
2, 200, Note_on_c, 1, 34, 127
2, 200, Note_off_c, 1, 43, 0
2, 200, Note_off_c, 1, 47, 0
2, 200, Note_on_c, 1, 53, 127
2, 200, Note_off_c, 1, 55, 0
2, 200, Note_on_c, 1, 56, 127
2, 200, Note_on_c, 1, 62, 127
2, 200, Note_off_c, 1, 79, 0
2, 200, Note_off_c, 1, 83, 0
2, 200, Note_off_c, 1, 87, 0
2, 200, Note_off_c, 1, 91, 0
2, 320, Note_off_c, 1, 34, 0
2, 320, Note_off_c, 1, 53, 0
2, 320, Note_off_c, 1, 56, 0
2, 320, Note_off_c, 1, 62, 0
2, 320, Note_on_c, 1, 65, 127
2, 360, Note_on_c, 1, 34, 127
2, 360, Note_on_c, 1, 53, 127
2, 360, Note_on_c, 1, 56, 127
2, 360, Note_on_c, 1, 62, 127
2, 360, Note_off_c, 1, 65, 0
2, 1040, Note_off_c, 1, 62, 0
2, 1240, Note_off_c, 1, 34, 0
2, 1240, Note_off_c, 1, 53, 0
2, 1240, Note_on_c, 1, 55, 127
2, 1240, Note_off_c, 1, 56, 0
2, 1240, Note_on_c, 1, 77, 127
2, 1240, Note_on_c, 1, 80, 127
2, 1280, Note_on_c, 1, 34, 127
2, 1280, Note_on_c, 1, 53, 127
2, 1280, Note_off_c, 1, 55, 0
2, 1280, Note_on_c, 1, 56, 127
2, 1280, Note_off_c, 1, 77, 0
2, 1280, Note_off_c, 1, 80, 0
2, 1760, Note_off_c, 1, 56, 0
2, 1920, Note_off_c, 1, 53, 0
2, 1920, Note_on_c, 1, 58, 127
2, 2000, Note_off_c, 1, 34, 0
2, 2000, Note_off_c, 1, 58, 0
2, 5240, Note_on_c, 1, 43, 127
2, 5240, Note_on_c, 1, 50, 127
2, 5240, Note_on_c, 1, 60, 127
2, 5240, Note_on_c, 1, 62, 127
2, 5240, Note_on_c, 1, 69, 127
2, 5600, Note_off_c, 1, 43, 0
2, 5600, Note_off_c, 1, 50, 0
2, 5600, Note_off_c, 1, 60, 0
2, 5600, Note_off_c, 1, 62, 0
2, 5600, Note_off_c, 1, 69, 0
2, 5640, Note_on_c, 1, 40, 127
2, 5640, Note_on_c, 1, 52, 127
2, 5640, Note_on_c, 1, 55, 127
2, 5640, Note_on_c, 1, 64, 127
2, 6040, Note_off_c, 1, 40, 0
2, 6040, Note_off_c, 1, 52, 0
2, 6040, Note_off_c, 1, 55, 0
2, 6040, Note_off_c, 1, 64, 0
2, 7560, Note_on_c, 1, 51, 127
2, 7560, Note_on_c, 1, 54, 127
2, 7560, Note_on_c, 1, 59, 127
2, 7880, Note_off_c, 1, 51, 0
2, 7880, Note_off_c, 1, 54, 0
2, 7880, Note_off_c, 1, 59, 0
2, 7920, Note_on_c, 1, 51, 127
2, 7920, Note_on_c, 1, 54, 127
2, 7920, Note_on_c, 1, 59, 127
2, 8360, Note_off_c, 1, 51, 0
2, 8360, Note_off_c, 1, 54, 0
2, 8360, Note_off_c, 1, 59, 0
2, 13400, Note_on_c, 1, 37, 127
2, 13400, Note_on_c, 1, 49, 127
2, 15080, Note_off_c, 1, 37, 0
2, 15080, Note_off_c, 1, 49, 0
2, 15120, Note_on_c, 1, 37, 127
2, 15120, Note_on_c, 1, 49, 127
2, 15240, Note_off_c, 1, 37, 0
2, 15240, Note_off_c, 1, 49, 0
2, 15480, Note_on_c, 1, 77, 127
2, 15480, Note_on_c, 1, 80, 127
2, 15480, Note_on_c, 1, 85, 127
2, 16000, Note_off_c, 1, 77, 0
2, 16000, Note_off_c, 1, 80, 0
2, 16000, Note_off_c, 1, 85, 0
2, 18240, Note_on_c, 1, 40, 127
2, 18240, Note_on_c, 1, 52, 127
2, 18240, Note_on_c, 1, 64, 127
2, 19000, Note_off_c, 1, 64, 0
2, 19040, Note_on_c, 1, 67, 127
2, 19840, Note_on_c, 1, 36, 127
2, 19840, Note_off_c, 1, 40, 0
2, 19840, Note_on_c, 1, 48, 127
2, 19840, Note_off_c, 1, 52, 0
2, 19840, Note_off_c, 1, 67, 0
2, 19880, Note_off_c, 1, 36, 0
2, 19880, Note_off_c, 1, 48, 0
2, 19920, Note_on_c, 1, 36, 127
2, 19920, Note_on_c, 1, 48, 127
2, 19920, Note_on_c, 1, 76, 127
2, 20280, Note_off_c, 1, 36, 0
2, 20280, Note_on_c, 1, 38, 127
2, 20280, Note_off_c, 1, 48, 0
2, 20280, Note_on_c, 1, 50, 127
2, 20280, Note_off_c, 1, 76, 0
2, 20320, Note_on_c, 1, 78, 127
2, 21080, Note_off_c, 1, 38, 0
2, 21080, Note_off_c, 1, 50, 0
2, 21080, Note_off_c, 1, 78, 0
2, 21120, Note_on_c, 1, 79, 127
2, 21520, Note_off_c, 1, 79, 0
2, 21560, Note_on_c, 1, 78, 127
2, 21880, Note_off_c, 1, 78, 0
2, 21960, Note_on_c, 1, 79, 127
2, 22280, Note_off_c, 1, 79, 0
2, 22320, Note_on_c, 1, 80, 127
2, 22560, Note_off_c, 1, 80, 0
2, 22600, Note_on_c, 1, 82, 127
2, 22880, Note_off_c, 1, 82, 0
2, 22920, Note_on_c, 1, 80, 127
2, 23080, Note_off_c, 1, 80, 0
2, 23120, Note_on_c, 1, 78, 127
2, 23320, Note_off_c, 1, 78, 0
2, 23360, Note_on_c, 1, 74, 127
2, 23560, Note_off_c, 1, 74, 0
2, 23560, Note_on_c, 1, 75, 127
2, 23760, Note_off_c, 1, 75, 0
2, 23800, Note_on_c, 1, 74, 127
2, 24000, Note_off_c, 1, 74, 0
2, 24040, Note_on_c, 1, 74, 127
2, 24200, Note_off_c, 1, 74, 0
2, 24240, Note_on_c, 1, 75, 127
2, 24600, Note_off_c, 1, 75, 0
2, 24640, Note_on_c, 1, 74, 127
2, 25400, Note_off_c, 1, 74, 0
2, 25440, Note_on_c, 1, 75, 127
2, 25800, Note_off_c, 1, 75, 0
2, 25840, Note_on_c, 1, 74, 127
2, 26040, Note_off_c, 1, 74, 0
2, 26080, Note_on_c, 1, 74, 127
2, 26440, Note_off_c, 1, 74, 0
2, 26480, Note_on_c, 1, 75, 127
2, 26840, Note_off_c, 1, 75, 0
2, 26880, Note_on_c, 1, 74, 127
2, 27240, Note_off_c, 1, 74, 0
2, 27280, Note_on_c, 1, 75, 127
2, 27640, Note_off_c, 1, 75, 0
2, 27680, Note_on_c, 1, 78, 127
2, 28040, Note_off_c, 1, 78, 0
2, 28080, Note_on_c, 1, 78, 127
2, 28120, Note_off_c, 1, 78, 0
2, 28160, Note_on_c, 1, 77, 127
2, 28920, Note_off_c, 1, 77, 0
2, 28960, Note_on_c, 1, 75, 127
2, 29960, Note_off_c, 1, 75, 0
2, 30000, Note_on_c, 1, 71, 127
2, 30120, Note_off_c, 1, 71, 0
2, 30160, Note_on_c, 1, 71, 127
2, 30200, Note_off_c, 1, 71, 0
2, 30240, Note_on_c, 1, 70, 127
2, 30800, Note_off_c, 1, 70, 0
2, 30840, Note_on_c, 1, 69, 127
2, 31600, Note_off_c, 1, 69, 0
2, 31640, Note_on_c, 1, 68, 127
2, 31840, Note_off_c, 1, 68, 0
2, 32080, Note_on_c, 1, 69, 127
2, 32280, Note_off_c, 1, 69, 0
2, 32320, Note_on_c, 1, 69, 127
2, 33080, Note_off_c, 1, 69, 0
2, 33120, Note_on_c, 1, 73, 127
2, 33920, Note_off_c, 1, 73, 0
2, 33920, Note_on_c, 1, 74, 127
2, 34160, Note_off_c, 1, 74, 0
2, 34200, Note_on_c, 1, 74, 127
2, 34560, Note_off_c, 1, 74, 0
2, 36040, Note_on_c, 1, 45, 127
2, 36400, Note_off_c, 1, 45, 0
2, 36440, Note_on_c, 1, 52, 127
2, 36800, Note_off_c, 1, 52, 0
2, 36840, Note_on_c, 1, 56, 127
2, 36840, Note_on_c, 1, 62, 127
2, 37200, Note_off_c, 1, 62, 0
2, 37640, Note_off_c, 1, 56, 0
2, 37680, Note_on_c, 1, 56, 127
2, 38040, Note_off_c, 1, 56, 0
2, 38080, Note_on_c, 1, 52, 127
2, 38440, Note_off_c, 1, 52, 0
2, 38480, Note_on_c, 1, 47, 127
2, 39280, Note_off_c, 1, 47, 0
2, 39320, Note_on_c, 1, 47, 127
2, 39640, Note_off_c, 1, 47, 0
2, 39680, Note_on_c, 1, 47, 127
2, 39720, Note_off_c, 1, 47, 0
2, 39760, Note_on_c, 1, 40, 127
2, 40120, Note_off_c, 1, 40, 0
2, 40160, Note_on_c, 1, 47, 127
2, 40520, Note_off_c, 1, 47, 0
2, 40560, Note_on_c, 1, 40, 127
2, 40920, Note_off_c, 1, 40, 0
2, 40960, Note_on_c, 1, 47, 127
2, 41320, Note_off_c, 1, 47, 0
2, 41360, Note_on_c, 1, 40, 127
2, 41720, Note_off_c, 1, 40, 0
2, 41800, Note_on_c, 1, 40, 127
2, 42160, Note_off_c, 1, 40, 0
2, 42200, Note_on_c, 1, 47, 127
2, 42560, Note_off_c, 1, 47, 0
2, 42600, Note_on_c, 1, 40, 127
2, 42960, Note_off_c, 1, 40, 0
2, 43000, Note_on_c, 1, 47, 127
2, 43360, Note_off_c, 1, 47, 0
2, 43400, Note_on_c, 1, 40, 127
2, 43760, Note_off_c, 1, 40, 0
2, 43800, Note_on_c, 1, 47, 127
2, 43920, Note_off_c, 1, 47, 0
2, 43960, Note_on_c, 1, 47, 127
2, 44200, Note_off_c, 1, 47, 0
2, 44240, Note_on_c, 1, 52, 127
2, 44600, Note_off_c, 1, 52, 0
2, 44640, Note_on_c, 1, 59, 127
2, 44960, Note_off_c, 1, 59, 0
2, 45000, Note_on_c, 1, 52, 127
2, 45360, Note_off_c, 1, 52, 0
2, 45400, Note_on_c, 1, 47, 127
2, 45760, Note_off_c, 1, 47, 0
2, 45800, Note_on_c, 1, 40, 127
2, 46000, Note_off_c, 1, 40, 0
2, 46040, Note_on_c, 1, 40, 127
2, 46200, Note_off_c, 1, 40, 0
2, 46240, Note_on_c, 1, 47, 127
2, 46440, Note_on_c, 1, 45, 127
2, 46440, Note_off_c, 1, 47, 0
2, 46480, Note_off_c, 1, 45, 0
2, 46480, Note_on_c, 1, 47, 127
2, 46600, Note_off_c, 1, 47, 0
2, 46640, Note_on_c, 1, 40, 127
2, 46960, Note_off_c, 1, 40, 0
2, 47000, Note_on_c, 1, 39, 127
2, 47360, Note_off_c, 1, 39, 0
2, 47400, Note_on_c, 1, 35, 127
2, 47400, Note_on_c, 1, 83, 127
2, 48120, Note_off_c, 1, 35, 0
2, 48120, Note_off_c, 1, 83, 0
2, 48160, Note_on_c, 1, 35, 127
2, 48160, Note_on_c, 1, 83, 127
2, 48200, Note_off_c, 1, 35, 0
2, 48200, Note_off_c, 1, 83, 0
2, 48240, Note_on_c, 1, 35, 127
2, 48240, Note_on_c, 1, 83, 127
2, 48680, Note_off_c, 1, 35, 0
2, 48680, Note_on_c, 1, 37, 127
2, 48680, Note_on_c, 1, 82, 127
2, 48680, Note_off_c, 1, 83, 0
2, 48960, Note_off_c, 1, 37, 0
2, 48960, Note_on_c, 1, 40, 127
2, 48960, Note_off_c, 1, 82, 0
2, 48960, Note_on_c, 1, 85, 127
2, 49000, Note_off_c, 1, 40, 0
2, 49000, Note_off_c, 1, 85, 0
2, 49040, Note_on_c, 1, 40, 127
2, 49040, Note_on_c, 1, 71, 127
2, 49400, Note_off_c, 1, 40, 0
2, 49440, Note_on_c, 1, 56, 127
2, 49800, Note_off_c, 1, 56, 0
2, 49840, Note_on_c, 1, 49, 127
2, 50200, Note_off_c, 1, 49, 0
2, 50200, Note_off_c, 1, 71, 0
2, 50240, Note_on_c, 1, 71, 127
2, 50280, Note_on_c, 1, 56, 127
2, 50600, Note_off_c, 1, 56, 0
2, 50640, Note_on_c, 1, 59, 127
2, 51000, Note_off_c, 1, 59, 0
2, 51040, Note_on_c, 1, 52, 127
2, 51400, Note_off_c, 1, 52, 0
2, 51440, Note_on_c, 1, 44, 127
2, 51800, Note_off_c, 1, 44, 0
2, 51840, Note_on_c, 1, 42, 127
2, 52200, Note_off_c, 1, 42, 0
2, 52200, Note_off_c, 1, 71, 0
2, 52280, Note_on_c, 1, 40, 127
2, 52280, Note_on_c, 1, 64, 127
2, 52640, Note_off_c, 1, 40, 0
2, 52680, Note_on_c, 1, 47, 127
2, 53040, Note_off_c, 1, 47, 0
2, 53040, Note_off_c, 1, 64, 0
2, 53080, Note_on_c, 1, 47, 127
2, 53080, Note_on_c, 1, 63, 127
2, 53440, Note_off_c, 1, 47, 0
2, 53480, Note_on_c, 1, 56, 127
2, 53480, Note_on_c, 1, 59, 127
2, 53800, Note_off_c, 1, 56, 0
2, 53800, Note_off_c, 1, 59, 0
2, 54120, Note_off_c, 1, 63, 0
2, 54160, Note_on_c, 1, 63, 127
2, 54600, Note_off_c, 1, 63, 0
2, 54640, Note_on_c, 1, 64, 127
2, 55800, Note_off_c, 1, 64, 0
2, 55840, Note_on_c, 1, 59, 127
2, 56160, Note_off_c, 1, 59, 0
2, 56200, Note_on_c, 1, 59, 127
2, 57080, Note_off_c, 1, 59, 0
2, 57120, Note_on_c, 1, 57, 127
2, 57480, Note_off_c, 1, 57, 0
2, 57520, Note_on_c, 1, 52, 127
2, 57880, Note_off_c, 1, 52, 0
2, 57920, Note_on_c, 1, 59, 127
2, 58160, Note_off_c, 1, 59, 0
2, 58200, Note_on_c, 1, 59, 127
2, 58280, Note_off_c, 1, 59, 0
2, 58320, Note_on_c, 1, 52, 127
2, 58680, Note_off_c, 1, 52, 0
2, 58720, Note_on_c, 1, 47, 127
2, 59080, Note_off_c, 1, 47, 0
2, 59120, Note_on_c, 1, 40, 127
2, 59480, Note_off_c, 1, 40, 0
2, 59520, Note_on_c, 1, 47, 127
2, 59880, Note_off_c, 1, 47, 0
2, 59920, Note_on_c, 1, 40, 127
2, 60240, Note_off_c, 1, 40, 0
2, 60280, Note_on_c, 1, 40, 127
2, 60320, Note_off_c, 1, 40, 0
2, 60360, Note_on_c, 1, 47, 127
2, 60720, Note_off_c, 1, 47, 0
2, 60760, Note_on_c, 1, 52, 127
2, 61120, Note_off_c, 1, 52, 0
2, 61160, Note_on_c, 1, 50, 127
2, 61480, Note_off_c, 1, 50, 0
2, 61520, Note_on_c, 1, 47, 127
2, 61880, Note_off_c, 1, 47, 0
2, 61920, Note_on_c, 1, 52, 127
2, 62240, Note_off_c, 1, 52, 0
2, 62280, Note_on_c, 1, 52, 127
2, 62320, Note_off_c, 1, 52, 0
2, 62360, Note_on_c, 1, 47, 127
2, 62720, Note_off_c, 1, 47, 0
2, 62760, Note_on_c, 1, 40, 127
2, 63080, Note_off_c, 1, 40, 0
2, 63120, Note_on_c, 1, 44, 127
2, 63480, Note_off_c, 1, 44, 0
2, 63520, Note_on_c, 1, 51, 127
2, 63520, Note_on_c, 1, 54, 127
2, 63520, Note_on_c, 1, 59, 127
2, 63520, Note_on_c, 1, 63, 127
2, 63880, Note_off_c, 1, 51, 0
2, 63880, Note_off_c, 1, 54, 0
2, 63880, Note_off_c, 1, 59, 0
2, 63880, Note_off_c, 1, 63, 0
2, 63920, Note_on_c, 1, 71, 127
2, 64280, Note_off_c, 1, 71, 0
2, 64320, Note_on_c, 1, 71, 127
2, 64360, Note_on_c, 1, 51, 127
2, 64720, Note_off_c, 1, 51, 0
2, 64720, Note_off_c, 1, 71, 0
2, 64760, Note_on_c, 1, 59, 127
2, 64760, Note_on_c, 1, 73, 127
2, 65080, Note_off_c, 1, 59, 0
2, 65080, Note_off_c, 1, 73, 0
2, 65120, Note_on_c, 1, 68, 127
2, 65480, Note_off_c, 1, 68, 0
2, 65520, Note_on_c, 1, 40, 127
2, 65520, Note_on_c, 1, 64, 127
2, 65600, Note_off_c, 1, 64, 0
2, 65640, Note_on_c, 1, 69, 127
2, 65720, Note_off_c, 1, 69, 0
2, 65760, Note_on_c, 1, 64, 127
2, 65840, Note_off_c, 1, 64, 0
2, 65880, Note_on_c, 1, 68, 127
2, 66240, Note_off_c, 1, 68, 0
2, 66280, Note_on_c, 1, 59, 127
2, 66360, Note_off_c, 1, 40, 0
2, 66360, Note_off_c, 1, 59, 0
2, 66400, Note_on_c, 1, 40, 127
2, 66400, Note_on_c, 1, 59, 127
2, 66680, Note_off_c, 1, 40, 0
2, 66680, Note_off_c, 1, 59, 0
2, 66720, Note_on_c, 1, 47, 127
2, 66720, Note_on_c, 1, 68, 127
2, 67080, Note_off_c, 1, 47, 0
2, 67120, Note_on_c, 1, 50, 127
2, 67480, Note_off_c, 1, 50, 0
2, 67520, Note_on_c, 1, 44, 127
2, 67880, Note_off_c, 1, 44, 0
2, 67920, Note_on_c, 1, 52, 127
2, 68280, Note_off_c, 1, 52, 0
2, 68320, Note_on_c, 1, 54, 127
2, 68520, Note_off_c, 1, 54, 0
2, 68520, Note_off_c, 1, 68, 0
2, 68560, Note_on_c, 1, 54, 127
2, 68560, Note_on_c, 1, 68, 127
2, 68720, Note_off_c, 1, 54, 0
2, 68760, Note_on_c, 1, 59, 127
2, 68760, Note_on_c, 1, 80, 127
2, 69120, Note_off_c, 1, 59, 0
2, 69120, Note_off_c, 1, 80, 0
2, 69160, Note_on_c, 1, 52, 127
2, 69160, Note_on_c, 1, 78, 127
2, 69480, Note_off_c, 1, 52, 0
2, 69520, Note_on_c, 1, 47, 127
2, 69880, Note_off_c, 1, 47, 0
2, 69920, Note_on_c, 1, 39, 127
2, 70000, Note_off_c, 1, 78, 0
2, 70040, Note_on_c, 1, 76, 127
2, 70280, Note_off_c, 1, 39, 0
2, 70280, Note_off_c, 1, 76, 0
2, 70320, Note_on_c, 1, 39, 127
2, 70320, Note_on_c, 1, 75, 127
2, 70680, Note_off_c, 1, 39, 0
2, 70680, Note_off_c, 1, 68, 0
2, 70680, Note_off_c, 1, 75, 0
2, 70760, Note_on_c, 1, 47, 127
2, 70760, Note_on_c, 1, 68, 127
2, 70760, Note_on_c, 1, 75, 127
2, 71080, Note_off_c, 1, 47, 0
2, 71120, Note_on_c, 1, 47, 127
2, 71480, Note_off_c, 1, 47, 0
2, 71520, Note_on_c, 1, 59, 127
2, 71880, Note_off_c, 1, 59, 0
2, 71880, Note_off_c, 1, 75, 0
2, 71920, Note_on_c, 1, 52, 127
2, 71920, Note_on_c, 1, 66, 127
2, 71920, Note_off_c, 1, 68, 0
2, 71920, Note_on_c, 1, 75, 127
2, 72280, Note_on_c, 1, 61, 127
2, 72280, Note_off_c, 1, 66, 0
2, 72280, Note_off_c, 1, 75, 0
2, 72320, Note_on_c, 1, 54, 127
2, 72320, Note_off_c, 1, 61, 0
2, 72320, Note_on_c, 1, 63, 127
2, 72480, Note_off_c, 1, 54, 0
2, 72520, Note_on_c, 1, 47, 127
2, 72520, Note_off_c, 1, 63, 0
2, 72520, Note_on_c, 1, 64, 127
2, 72520, Note_on_c, 1, 68, 127
2, 72680, Note_off_c, 1, 47, 0
2, 72680, Note_off_c, 1, 52, 0
2, 72680, Note_off_c, 1, 64, 0
2, 72680, Note_off_c, 1, 68, 0
2, 72720, Note_on_c, 1, 54, 127
2, 72720, Note_on_c, 1, 56, 127
2, 72720, Note_on_c, 1, 61, 127
2, 72720, Note_on_c, 1, 63, 127
2, 72720, Note_on_c, 1, 68, 127
2, 72800, Note_off_c, 1, 54, 0
2, 72800, Note_off_c, 1, 56, 0
2, 72800, Note_off_c, 1, 61, 0
2, 72800, Note_off_c, 1, 63, 0
2, 72800, Note_off_c, 1, 68, 0
2, 72840, Note_on_c, 1, 54, 127
2, 72840, Note_on_c, 1, 56, 127
2, 72840, Note_on_c, 1, 61, 127
2, 72840, Note_on_c, 1, 63, 127
2, 72840, Note_on_c, 1, 68, 127
2, 73120, Note_off_c, 1, 54, 0
2, 73120, Note_off_c, 1, 56, 0
2, 73120, Note_off_c, 1, 68, 0
2, 73160, Note_on_c, 1, 51, 127
2, 73160, Note_on_c, 1, 67, 127
2, 73160, Note_on_c, 1, 73, 127
2, 73520, Note_off_c, 1, 51, 0
2, 73520, Note_off_c, 1, 61, 0
2, 73520, Note_off_c, 1, 63, 0
2, 73520, Note_off_c, 1, 67, 0
2, 73520, Note_off_c, 1, 73, 0
2, 73560, Note_on_c, 1, 46, 127
2, 73560, Note_on_c, 1, 50, 127
2, 73560, Note_on_c, 1, 58, 127
2, 73560, Note_on_c, 1, 62, 127
2, 73560, Note_on_c, 1, 65, 127
2, 73560, Note_on_c, 1, 70, 127
2, 73720, Note_off_c, 1, 50, 0
2, 73760, Note_on_c, 1, 53, 127
2, 74720, Note_off_c, 1, 46, 0
2, 74720, Note_off_c, 1, 53, 0
2, 74720, Note_on_c, 1, 55, 127
2, 74720, Note_off_c, 1, 65, 0
2, 74720, Note_on_c, 1, 67, 127
2, 74760, Note_off_c, 1, 55, 0
2, 74760, Note_off_c, 1, 58, 0
2, 74760, Note_off_c, 1, 62, 0
2, 74760, Note_off_c, 1, 67, 0
2, 74760, Note_off_c, 1, 70, 0
2, 74800, Note_on_c, 1, 46, 127
2, 74800, Note_on_c, 1, 53, 127
2, 74800, Note_on_c, 1, 58, 127
2, 74800, Note_on_c, 1, 62, 127
2, 74800, Note_on_c, 1, 65, 127
2, 74800, Note_on_c, 1, 70, 127
2, 75160, Note_off_c, 1, 46, 0
2, 75160, Note_off_c, 1, 53, 0
2, 75160, Note_off_c, 1, 58, 0
2, 75160, Note_off_c, 1, 62, 0
2, 75160, Note_off_c, 1, 65, 0
2, 75160, Note_off_c, 1, 70, 0
2, 75200, Note_on_c, 1, 72, 127
2, 75440, Note_off_c, 1, 72, 0
2, 75480, Note_on_c, 1, 74, 127
2, 75560, Note_off_c, 1, 74, 0
2, 75600, Note_on_c, 1, 77, 127
2, 76400, Note_off_c, 1, 77, 0
2, 76440, Note_on_c, 1, 51, 127
2, 76720, Note_off_c, 1, 51, 0
2, 76760, Note_on_c, 1, 51, 127
2, 76840, Note_off_c, 1, 51, 0
2, 76880, Note_on_c, 1, 50, 127
2, 77240, Note_off_c, 1, 50, 0
2, 77280, Note_on_c, 1, 53, 127
2, 77640, Note_off_c, 1, 53, 0
2, 77680, Note_on_c, 1, 51, 127
2, 78040, Note_off_c, 1, 51, 0
2, 78080, Note_on_c, 1, 58, 127
2, 78400, Note_off_c, 1, 58, 0
2, 78440, Note_on_c, 1, 64, 127
2, 78440, Note_on_c, 1, 71, 127
2, 78440, Note_on_c, 1, 83, 127
2, 78440, Note_on_c, 1, 90, 127
2, 78480, Note_on_c, 1, 58, 127
2, 78480, Note_off_c, 1, 64, 0
2, 78480, Note_on_c, 1, 65, 127
2, 78480, Note_on_c, 1, 67, 127
2, 78480, Note_off_c, 1, 71, 0
2, 78480, Note_on_c, 1, 73, 127
2, 78480, Note_off_c, 1, 83, 0
2, 78480, Note_off_c, 1, 90, 0
2, 78520, Note_on_c, 1, 53, 127
2, 78520, Note_off_c, 1, 65, 0
2, 78520, Note_on_c, 1, 66, 127
2, 78520, Note_off_c, 1, 67, 0
2, 78600, Note_on_c, 1, 49, 127
2, 78600, Note_off_c, 1, 58, 0
2, 78600, Note_on_c, 1, 59, 127
2, 78600, Note_off_c, 1, 66, 0
2, 78600, Note_on_c, 1, 68, 127
2, 78640, Note_off_c, 1, 49, 0
2, 78640, Note_on_c, 1, 58, 127
2, 78640, Note_off_c, 1, 59, 0
2, 78640, Note_on_c, 1, 66, 127
2, 78640, Note_off_c, 1, 68, 0
2, 78720, Note_off_c, 1, 53, 0
2, 78720, Note_off_c, 1, 58, 0
2, 78720, Note_off_c, 1, 66, 0
2, 78720, Note_off_c, 1, 73, 0
2, 78760, Note_on_c, 1, 53, 127
2, 78760, Note_on_c, 1, 58, 127
2, 78760, Note_on_c, 1, 66, 127
2, 78760, Note_on_c, 1, 73, 127
2, 79240, Note_off_c, 1, 53, 0
2, 79240, Note_off_c, 1, 58, 0
2, 79240, Note_off_c, 1, 66, 0
2, 79280, Note_on_c, 1, 70, 127
2, 79280, Note_off_c, 1, 73, 0
2, 79440, Note_off_c, 1, 70, 0
2, 79480, Note_on_c, 1, 75, 127
2, 79640, Note_off_c, 1, 75, 0
2, 79680, Note_on_c, 1, 74, 127
2, 79840, Note_off_c, 1, 74, 0
2, 79880, Note_on_c, 1, 77, 127
2, 80040, Note_off_c, 1, 77, 0
2, 80080, Note_on_c, 1, 75, 127
2, 80240, Note_off_c, 1, 75, 0
2, 80280, Note_on_c, 1, 74, 127
2, 80440, Note_off_c, 1, 74, 0
2, 80480, Note_on_c, 1, 77, 127
2, 80840, Note_off_c, 1, 77, 0
2, 80880, Note_on_c, 1, 77, 127
2, 81080, Note_off_c, 1, 77, 0
2, 81120, Note_on_c, 1, 75, 127
2, 81280, Note_off_c, 1, 75, 0
2, 81320, Note_on_c, 1, 77, 127
2, 81480, Note_off_c, 1, 77, 0
2, 81520, Note_on_c, 1, 75, 127
2, 81680, Note_off_c, 1, 75, 0
2, 81720, Note_on_c, 1, 74, 127
2, 81880, Note_off_c, 1, 74, 0
2, 81920, Note_on_c, 1, 77, 127
2, 82080, Note_off_c, 1, 77, 0
2, 82120, Note_on_c, 1, 79, 127
2, 82720, Note_off_c, 1, 79, 0
2, 82760, Note_on_c, 1, 77, 127
2, 82920, Note_off_c, 1, 77, 0
2, 83000, Note_on_c, 1, 77, 127
2, 83160, Note_off_c, 1, 77, 0
2, 83200, Note_on_c, 1, 75, 127
2, 83360, Note_off_c, 1, 75, 0
2, 83400, Note_on_c, 1, 72, 127
2, 83560, Note_off_c, 1, 72, 0
2, 83600, Note_on_c, 1, 73, 127
2, 83760, Note_off_c, 1, 73, 0
2, 83800, Note_on_c, 1, 75, 127
2, 84560, Note_off_c, 1, 75, 0
2, 84600, Note_on_c, 1, 74, 127
2, 84960, Note_off_c, 1, 74, 0
2, 85040, Note_on_c, 1, 72, 127
2, 85400, Note_off_c, 1, 72, 0
2, 85440, Note_on_c, 1, 79, 127
2, 86040, Note_on_c, 1, 78, 127
2, 86040, Note_off_c, 1, 79, 0
2, 86840, Note_off_c, 1, 78, 0
2, 86840, Note_on_c, 1, 79, 127
2, 87000, Note_off_c, 1, 79, 0
2, 87080, Note_on_c, 1, 79, 127
2, 87440, Note_off_c, 1, 79, 0
2, 87480, Note_on_c, 1, 78, 127
2, 87800, Note_off_c, 1, 78, 0
2, 87840, Note_on_c, 1, 79, 127
2, 88400, Note_off_c, 1, 79, 0
2, 88440, Note_on_c, 1, 77, 127
2, 88600, Note_off_c, 1, 77, 0
2, 88640, Note_on_c, 1, 75, 127
2, 88840, Note_off_c, 1, 75, 0
2, 88880, Note_on_c, 1, 74, 127
2, 89040, Note_off_c, 1, 74, 0
2, 89120, Note_on_c, 1, 72, 127
2, 89280, Note_off_c, 1, 72, 0
2, 89320, Note_on_c, 1, 69, 127
2, 89480, Note_off_c, 1, 69, 0
2, 89520, Note_on_c, 1, 67, 127
2, 89680, Note_off_c, 1, 67, 0
2, 89720, Note_on_c, 1, 65, 127
2, 89880, Note_off_c, 1, 65, 0
2, 89920, Note_on_c, 1, 75, 127
2, 90080, Note_off_c, 1, 75, 0
2, 90120, Note_on_c, 1, 74, 127
2, 90280, Note_off_c, 1, 74, 0
2, 90320, Note_on_c, 1, 75, 127
2, 90480, Note_off_c, 1, 75, 0
2, 90520, Note_on_c, 1, 74, 127
2, 90680, Note_off_c, 1, 74, 0
2, 90720, Note_on_c, 1, 75, 127
2, 90880, Note_off_c, 1, 75, 0
2, 90920, Note_on_c, 1, 77, 127
2, 91280, Note_off_c, 1, 77, 0
2, 91360, Note_on_c, 1, 75, 127
2, 91520, Note_off_c, 1, 75, 0
2, 91560, Note_on_c, 1, 74, 127
2, 91720, Note_off_c, 1, 74, 0
2, 91760, Note_on_c, 1, 72, 127
2, 91920, Note_off_c, 1, 72, 0
2, 91960, Note_on_c, 1, 75, 127
2, 92120, Note_off_c, 1, 75, 0
2, 92160, Note_on_c, 1, 77, 127
2, 92720, Note_off_c, 1, 77, 0
2, 92760, Note_on_c, 1, 75, 127
2, 92920, Note_off_c, 1, 75, 0
2, 92960, Note_on_c, 1, 72, 127
2, 93120, Note_off_c, 1, 72, 0
2, 93160, Note_on_c, 1, 70, 127
2, 93320, Note_off_c, 1, 70, 0
2, 93400, Note_on_c, 1, 69, 127
2, 93560, Note_off_c, 1, 69, 0
2, 93600, Note_on_c, 1, 70, 127
2, 93760, Note_off_c, 1, 70, 0
2, 93800, Note_on_c, 1, 68, 127
2, 93960, Note_off_c, 1, 68, 0
2, 94000, Note_on_c, 1, 79, 127
2, 94160, Note_off_c, 1, 79, 0
2, 94200, Note_on_c, 1, 72, 127
2, 94360, Note_off_c, 1, 72, 0
2, 94400, Note_on_c, 1, 79, 127
2, 94560, Note_off_c, 1, 79, 0
2, 94600, Note_on_c, 1, 82, 127
2, 95000, Note_off_c, 1, 82, 0
2, 95040, Note_on_c, 1, 58, 127
2, 95200, Note_off_c, 1, 58, 0
2, 95240, Note_on_c, 1, 60, 127
2, 95400, Note_off_c, 1, 60, 0
2, 95440, Note_on_c, 1, 70, 127
2, 95480, Note_off_c, 1, 70, 0
2, 95520, Note_on_c, 1, 70, 127
2, 95640, Note_off_c, 1, 70, 0
2, 95680, Note_on_c, 1, 69, 127
2, 95840, Note_off_c, 1, 69, 0
2, 95880, Note_on_c, 1, 79, 127
2, 96040, Note_off_c, 1, 79, 0
2, 96080, Note_on_c, 1, 74, 127
2, 96240, Note_off_c, 1, 74, 0
2, 96280, Note_on_c, 1, 82, 127
2, 96640, Note_off_c, 1, 82, 0
2, 96680, Note_on_c, 1, 74, 127
2, 96840, Note_off_c, 1, 74, 0
2, 96880, Note_on_c, 1, 72, 127
2, 97040, Note_off_c, 1, 72, 0
2, 97080, Note_on_c, 1, 82, 127
2, 97440, Note_off_c, 1, 82, 0
2, 97480, Note_on_c, 1, 81, 127
2, 97640, Note_off_c, 1, 81, 0
2, 97720, Note_on_c, 1, 82, 127
2, 97880, Note_off_c, 1, 82, 0
2, 97920, Note_on_c, 1, 75, 127
2, 98280, Note_off_c, 1, 75, 0
2, 98320, Note_on_c, 1, 78, 127
2, 98480, Note_off_c, 1, 78, 0
2, 98520, Note_on_c, 1, 76, 127
2, 98680, Note_off_c, 1, 76, 0
2, 98720, Note_on_c, 1, 74, 127
2, 98880, Note_off_c, 1, 74, 0
2, 98920, Note_on_c, 1, 79, 127
2, 99120, Note_off_c, 1, 79, 0
2, 99160, Note_on_c, 1, 72, 127
2, 99320, Note_off_c, 1, 72, 0
2, 99360, Note_on_c, 1, 65, 127
2, 99520, Note_off_c, 1, 65, 0
2, 99560, Note_on_c, 1, 69, 127
2, 99720, Note_off_c, 1, 69, 0
2, 99800, Note_on_c, 1, 70, 127
2, 99960, Note_off_c, 1, 70, 0
2, 100000, Note_on_c, 1, 74, 127
2, 100160, Note_off_c, 1, 74, 0
2, 100200, Note_on_c, 1, 77, 127
2, 100600, Note_on_c, 1, 75, 127
2, 100600, Note_off_c, 1, 77, 0
2, 100760, Note_off_c, 1, 75, 0
2, 100800, Note_on_c, 1, 74, 127
2, 100960, Note_off_c, 1, 74, 0
2, 101000, Note_on_c, 1, 73, 127
2, 101160, Note_off_c, 1, 73, 0
2, 101200, Note_on_c, 1, 74, 127
2, 101560, Note_off_c, 1, 74, 0
2, 101600, Note_on_c, 1, 71, 127
2, 101760, Note_off_c, 1, 71, 0
2, 101840, Note_on_c, 1, 81, 127
2, 102000, Note_off_c, 1, 81, 0
2, 102040, Note_on_c, 1, 69, 127
2, 102200, Note_off_c, 1, 69, 0
2, 102240, Note_on_c, 1, 69, 127
2, 102400, Note_off_c, 1, 69, 0
2, 102440, Note_on_c, 1, 72, 127
2, 102600, Note_off_c, 1, 72, 0
2, 102640, Note_on_c, 1, 73, 127
2, 102800, Note_off_c, 1, 73, 0
2, 102840, Note_on_c, 1, 74, 127
2, 103000, Note_off_c, 1, 74, 0
2, 103040, Note_on_c, 1, 75, 127
2, 103200, Note_off_c, 1, 75, 0
2, 103240, Note_on_c, 1, 74, 127
2, 103400, Note_off_c, 1, 74, 0
2, 103440, Note_on_c, 1, 75, 127
2, 103600, Note_off_c, 1, 75, 0
2, 103640, Note_on_c, 1, 74, 127
2, 103800, Note_off_c, 1, 74, 0
2, 103880, Note_on_c, 1, 75, 127
2, 104240, Note_off_c, 1, 75, 0
2, 104280, Note_on_c, 1, 74, 127
2, 104440, Note_off_c, 1, 74, 0
2, 104480, Note_on_c, 1, 75, 127
2, 104640, Note_off_c, 1, 75, 0
2, 104680, Note_on_c, 1, 77, 127
2, 104840, Note_off_c, 1, 77, 0
2, 104880, Note_on_c, 1, 75, 127
2, 105040, Note_off_c, 1, 75, 0
2, 105080, Note_on_c, 1, 74, 127
2, 105240, Note_off_c, 1, 74, 0
2, 105280, Note_on_c, 1, 75, 127
2, 105440, Note_off_c, 1, 75, 0
2, 105480, Note_on_c, 1, 77, 127
2, 105640, Note_off_c, 1, 77, 0
2, 105680, Note_on_c, 1, 75, 127
2, 105840, Note_off_c, 1, 75, 0
2, 105920, Note_on_c, 1, 74, 127
2, 106080, Note_off_c, 1, 74, 0
2, 106120, Note_on_c, 1, 77, 127
2, 106280, Note_off_c, 1, 77, 0
2, 106320, Note_on_c, 1, 75, 127
2, 106480, Note_off_c, 1, 75, 0
2, 106520, Note_on_c, 1, 74, 127
2, 106680, Note_off_c, 1, 74, 0
2, 106720, Note_on_c, 1, 77, 127
2, 106880, Note_off_c, 1, 77, 0
2, 106920, Note_on_c, 1, 75, 127
2, 107080, Note_off_c, 1, 75, 0
2, 107120, Note_on_c, 1, 72, 127
2, 107280, Note_off_c, 1, 72, 0
2, 107320, Note_on_c, 1, 75, 127
2, 107480, Note_off_c, 1, 75, 0
2, 107520, Note_on_c, 1, 72, 127
2, 107680, Note_off_c, 1, 72, 0
2, 107720, Note_on_c, 1, 74, 127
2, 107920, Note_off_c, 1, 74, 0
2, 107920, Note_on_c, 1, 75, 127
2, 107960, Note_off_c, 1, 75, 0
2, 108000, Note_on_c, 1, 74, 127
2, 108080, Note_off_c, 1, 74, 0
2, 108160, Note_on_c, 1, 75, 127
2, 108320, Note_off_c, 1, 75, 0
2, 108360, Note_on_c, 1, 74, 127
2, 108520, Note_off_c, 1, 74, 0
2, 108560, Note_on_c, 1, 75, 127
2, 108720, Note_off_c, 1, 75, 0
2, 108760, Note_on_c, 1, 74, 127
2, 108920, Note_off_c, 1, 74, 0
2, 108960, Note_on_c, 1, 72, 127
2, 109120, Note_off_c, 1, 72, 0
2, 109160, Note_on_c, 1, 77, 127
2, 109320, Note_off_c, 1, 77, 0
2, 109360, Note_on_c, 1, 79, 127
2, 109720, Note_off_c, 1, 79, 0
2, 109760, Note_on_c, 1, 77, 127
2, 109920, Note_off_c, 1, 77, 0
2, 109960, Note_on_c, 1, 74, 127
2, 110120, Note_off_c, 1, 74, 0
2, 110200, Note_on_c, 1, 75, 127
2, 110360, Note_off_c, 1, 75, 0
2, 110400, Note_on_c, 1, 74, 127
2, 110560, Note_off_c, 1, 74, 0
2, 110600, Note_on_c, 1, 77, 127
2, 110760, Note_off_c, 1, 77, 0
2, 110800, Note_on_c, 1, 75, 127
2, 110960, Note_off_c, 1, 75, 0
2, 111000, Note_on_c, 1, 79, 127
2, 111160, Note_off_c, 1, 79, 0
2, 111200, Note_on_c, 1, 78, 127
2, 111360, Note_off_c, 1, 78, 0
2, 111400, Note_on_c, 1, 79, 127
2, 111560, Note_off_c, 1, 79, 0
2, 111600, Note_on_c, 1, 77, 127
2, 112200, Note_off_c, 1, 77, 0
2, 112240, Note_on_c, 1, 77, 127
2, 112440, Note_off_c, 1, 77, 0
2, 112480, Note_on_c, 1, 79, 127
2, 112680, Note_off_c, 1, 79, 0
2, 112720, Note_on_c, 1, 77, 127
2, 113000, Note_off_c, 1, 77, 0
2, 113040, Note_on_c, 1, 75, 127
2, 113400, Note_off_c, 1, 75, 0
2, 113440, Note_on_c, 1, 74, 127
2, 113600, Note_off_c, 1, 74, 0
2, 113640, Note_on_c, 1, 77, 127
2, 114040, Note_off_c, 1, 77, 0
2, 114040, Note_on_c, 1, 78, 127
2, 114200, Note_off_c, 1, 78, 0
2, 114280, Note_on_c, 1, 80, 127
2, 114440, Note_off_c, 1, 80, 0
2, 114480, Note_on_c, 1, 79, 127
2, 114640, Note_off_c, 1, 79, 0
2, 114680, Note_on_c, 1, 77, 127
2, 114840, Note_off_c, 1, 77, 0
2, 114880, Note_on_c, 1, 74, 127
2, 115040, Note_off_c, 1, 74, 0
2, 115080, Note_on_c, 1, 75, 127
2, 115240, Note_off_c, 1, 75, 0
2, 115280, Note_on_c, 1, 74, 127
2, 115640, Note_off_c, 1, 74, 0
2, 115680, Note_on_c, 1, 77, 127
2, 116280, Note_off_c, 1, 77, 0
2, 116320, Note_on_c, 1, 77, 127
2, 117080, Note_off_c, 1, 77, 0
2, 117120, Note_on_c, 1, 78, 127
2, 117280, Note_off_c, 1, 78, 0
2, 117320, Note_on_c, 1, 77, 127
2, 117480, Note_off_c, 1, 77, 0
2, 117520, Note_on_c, 1, 75, 127
2, 117680, Note_off_c, 1, 75, 0
2, 117720, Note_on_c, 1, 74, 127
2, 117880, Note_off_c, 1, 74, 0
2, 117920, Note_on_c, 1, 77, 127
2, 118080, Note_off_c, 1, 77, 0
2, 118120, Note_on_c, 1, 75, 127
2, 118280, Note_off_c, 1, 75, 0
2, 118320, Note_on_c, 1, 74, 127
2, 118400, Note_off_c, 1, 74, 0
2, 118440, Note_on_c, 1, 74, 127
2, 118520, Note_off_c, 1, 74, 0
2, 118560, Note_on_c, 1, 75, 127
2, 118760, Note_on_c, 1, 74, 127
2, 118760, Note_off_c, 1, 75, 0
2, 118920, Note_off_c, 1, 74, 0
2, 118960, Note_on_c, 1, 79, 127
2, 119320, Note_off_c, 1, 79, 0
2, 119360, Note_on_c, 1, 77, 127
2, 120000, Note_off_c, 1, 77, 0
2, 120040, End_track
3, 0, Start_track
3, 0, Title_t, "MIDI"
3, 1536, End_track
0, 0, End_of_file
