0, 0, Header, 1, 3, 192
1, 0, Start_track
1, 0, Time_signature, 4, 2, 24, 8
1, 0, Tempo, 500000
1, 120040, End_track
2, 0, Start_track
2, 0, Text_t, "random instrument: random person i dunno whatev"
2, 0, Title_t, "Track 1"
2, 0, Note_on_c, 1, 34, 127
2, 0, Note_on_c, 1, 53, 127
2, 0, Note_on_c, 1, 56, 127
2, 0, Note_on_c, 1, 62, 127
2, 40, Note_off_c, 1, 34, 0
2, 40, Note_off_c, 1, 53, 0
2, 40, Note_off_c, 1, 56, 0
2, 40, Note_off_c, 1, 62, 0
2, 80, Note_on_c, 1, 31, 127
2, 80, Note_on_c, 1, 43, 127
2, 80, Note_on_c, 1, 59, 127
2, 80, Note_on_c, 1, 65, 127
2, 80, Note_on_c, 1, 67, 127
2, 120, Note_off_c, 1, 31, 0
2, 120, Note_on_c, 1, 34, 127
2, 120, Note_off_c, 1, 43, 0
2, 120, Note_on_c, 1, 53, 127
2, 120, Note_on_c, 1, 56, 127
2, 120, Note_off_c, 1, 59, 0
2, 120, Note_on_c, 1, 62, 127
2, 120, Note_off_c, 1, 65, 0
2, 120, Note_off_c, 1, 67, 0
2, 160, Note_off_c, 1, 34, 0
2, 160, Note_on_c, 1, 43, 127
2, 160, Note_on_c, 1, 47, 127
2, 160, Note_off_c, 1, 53, 0
2, 160, Note_on_c, 1, 55, 127
2, 160, Note_off_c, 1, 56, 0
2, 160, Note_off_c, 1, 62, 0
2, 160, Note_on_c, 1, 79, 127
2, 160, Note_on_c, 1, 83, 127
2, 160, Note_on_c, 1, 87, 127
2, 160, Note_on_c, 1, 91, 127
2, 200, Note_on_c, 1, 34, 127
2, 200, Note_off_c, 1, 43, 0
2, 200, Note_off_c, 1, 47, 0
2, 200, Note_on_c, 1, 53, 127
2, 200, Note_off_c, 1, 55, 0
2, 200, Note_on_c, 1, 56, 127
2, 200, Note_on_c, 1, 62, 127
2, 200, Note_off_c, 1, 79, 0
2, 200, Note_off_c, 1, 83, 0
2, 200, Note_off_c, 1, 87, 0
2, 200, Note_off_c, 1, 91, 0
2, 320, Note_off_c, 1, 34, 0
2, 320, Note_off_c, 1, 53, 0
2, 320, Note_off_c, 1, 56, 0
2, 320, Note_off_c, 1, 62, 0
2, 320, Note_on_c, 1, 65, 127
2, 360, Note_on_c, 1, 34, 127
2, 360, Note_on_c, 1, 53, 127
2, 360, Note_on_c, 1, 56, 127
2, 360, Note_on_c, 1, 62, 127
2, 360, Note_off_c, 1, 65, 0
2, 1040, Note_off_c, 1, 62, 0
2, 1440, Note_off_c, 1, 53, 0
2, 1440, Note_off_c, 1, 56, 0
2, 1480, Note_on_c, 1, 46, 127
2, 1480, Note_on_c, 1, 48, 127
2, 2040, Note_off_c, 1, 34, 0
2, 2040, Note_off_c, 1, 46, 0
2, 2040, Note_off_c, 1, 48, 0
2, 2080, Note_on_c, 1, 34, 127
2, 2080, Note_on_c, 1, 46, 127
2, 2080, Note_on_c, 1, 48, 127
2, 2160, Note_off_c, 1, 46, 0
2, 2160, Note_off_c, 1, 48, 0
2, 2280, Note_off_c, 1, 34, 0
2, 5240, Note_on_c, 1, 43, 127
2, 5240, Note_on_c, 1, 50, 127
2, 5240, Note_on_c, 1, 60, 127
2, 5240, Note_on_c, 1, 62, 127
2, 5240, Note_on_c, 1, 69, 127
2, 5400, Note_off_c, 1, 43, 0
2, 5400, Note_off_c, 1, 50, 0
2, 5400, Note_off_c, 1, 60, 0
2, 5400, Note_off_c, 1, 62, 0
2, 5400, Note_off_c, 1, 69, 0
2, 7560, Note_on_c, 1, 51, 127
2, 7560, Note_on_c, 1, 54, 127
2, 7560, Note_on_c, 1, 59, 127
2, 7880, Note_off_c, 1, 51, 0
2, 7880, Note_off_c, 1, 54, 0
2, 7880, Note_off_c, 1, 59, 0
2, 7920, Note_on_c, 1, 51, 127
2, 7920, Note_on_c, 1, 54, 127
2, 7920, Note_on_c, 1, 59, 127
2, 8360, Note_off_c, 1, 51, 0
2, 8360, Note_off_c, 1, 54, 0
2, 8360, Note_off_c, 1, 59, 0
2, 18240, Note_on_c, 1, 40, 127
2, 18240, Note_on_c, 1, 52, 127
2, 18240, Note_on_c, 1, 64, 127
2, 18360, Note_off_c, 1, 40, 0
2, 18360, Note_off_c, 1, 52, 0
2, 18360, Note_off_c, 1, 64, 0
2, 18400, Note_on_c, 1, 40, 127
2, 18400, Note_on_c, 1, 52, 127
2, 18400, Note_on_c, 1, 64, 127
2, 19040, Note_off_c, 1, 40, 0
2, 19040, Note_off_c, 1, 52, 0
2, 19040, Note_off_c, 1, 64, 0
2, 19080, Note_on_c, 1, 35, 127
2, 19080, Note_on_c, 1, 47, 127
2, 19080, Note_on_c, 1, 59, 127
2, 19080, Note_on_c, 1, 71, 127
2, 20240, Note_off_c, 1, 35, 0
2, 20240, Note_off_c, 1, 47, 0
2, 20240, Note_off_c, 1, 59, 0
2, 20240, Note_off_c, 1, 71, 0
2, 20280, Note_on_c, 1, 36, 127
2, 20280, Note_on_c, 1, 48, 127
2, 20280, Note_on_c, 1, 60, 127
2, 20280, Note_on_c, 1, 72, 127
2, 20480, Note_off_c, 1, 36, 0
2, 20480, Note_off_c, 1, 48, 0
2, 20480, Note_off_c, 1, 60, 0
2, 20480, Note_off_c, 1, 72, 0
2, 25480, Note_on_c, 1, 42, 127
2, 26040, Note_off_c, 1, 42, 0
2, 26080, Note_on_c, 1, 41, 127
2, 26160, Note_off_c, 1, 41, 0
2, 26200, Note_on_c, 1, 41, 127
2, 26480, Note_off_c, 1, 41, 0
2, 26520, Note_on_c, 1, 37, 127
2, 26840, Note_off_c, 1, 37, 0
2, 26880, Note_on_c, 1, 44, 127
2, 27240, Note_off_c, 1, 44, 0
2, 27280, Note_on_c, 1, 49, 127
2, 27640, Note_off_c, 1, 49, 0
2, 27680, Note_on_c, 1, 54, 127
2, 28040, Note_off_c, 1, 54, 0
2, 28080, Note_on_c, 1, 49, 127
2, 28440, Note_off_c, 1, 49, 0
2, 28480, Note_on_c, 1, 51, 127
2, 28800, Note_off_c, 1, 51, 0
2, 28840, Note_on_c, 1, 49, 127
2, 28880, Note_off_c, 1, 49, 0
2, 28920, Note_on_c, 1, 49, 127
2, 29640, Note_off_c, 1, 49, 0
2, 29680, Note_on_c, 1, 53, 127
2, 30040, Note_off_c, 1, 53, 0
2, 30080, Note_on_c, 1, 61, 127
2, 30440, Note_off_c, 1, 61, 0
2, 30480, Note_on_c, 1, 68, 127
2, 30840, Note_off_c, 1, 68, 0
2, 30880, Note_on_c, 1, 42, 127
2, 31160, Note_off_c, 1, 42, 0
2, 31200, Note_on_c, 1, 42, 127
2, 31280, Note_off_c, 1, 42, 0
2, 31320, Note_on_c, 1, 37, 127
2, 31680, Note_off_c, 1, 37, 0
2, 31720, Note_on_c, 1, 37, 127
2, 32040, Note_off_c, 1, 37, 0
2, 32080, Note_on_c, 1, 41, 127
2, 32440, Note_off_c, 1, 41, 0
2, 32480, Note_on_c, 1, 42, 127
2, 32480, Note_on_c, 1, 51, 127
2, 32480, Note_on_c, 1, 60, 127
2, 32480, Note_on_c, 1, 72, 127
2, 32840, Note_off_c, 1, 60, 0
2, 32840, Note_off_c, 1, 72, 0
2, 32880, Note_on_c, 1, 60, 127
2, 32880, Note_on_c, 1, 72, 127
2, 33240, Note_off_c, 1, 42, 0
2, 33240, Note_off_c, 1, 51, 0
2, 33240, Note_off_c, 1, 60, 0
2, 33240, Note_off_c, 1, 72, 0
2, 33320, Note_on_c, 1, 47, 127
2, 33320, Note_on_c, 1, 56, 127
2, 33320, Note_on_c, 1, 59, 127
2, 33320, Note_on_c, 1, 71, 127
2, 33680, Note_off_c, 1, 56, 0
2, 33680, Note_off_c, 1, 59, 0
2, 33680, Note_on_c, 1, 62, 127
2, 33680, Note_off_c, 1, 71, 0
2, 33720, Note_off_c, 1, 62, 0
2, 33720, Note_on_c, 1, 66, 127
2, 33720, Note_on_c, 1, 75, 127
2, 34040, Note_off_c, 1, 75, 0
2, 34080, Note_off_c, 1, 66, 0
2, 34120, Note_on_c, 1, 66, 127
2, 34120, Note_on_c, 1, 75, 127
2, 34440, Note_off_c, 1, 75, 0
2, 34520, Note_on_c, 1, 75, 127
2, 34840, Note_off_c, 1, 75, 0
2, 34880, Note_off_c, 1, 66, 0
2, 34920, Note_on_c, 1, 66, 127
2, 34920, Note_on_c, 1, 75, 127
2, 35200, Note_off_c, 1, 75, 0
2, 35240, Note_on_c, 1, 75, 127
2, 35280, Note_off_c, 1, 66, 0
2, 35280, Note_off_c, 1, 75, 0
2, 35320, Note_off_c, 1, 47, 0
2, 35360, Note_on_c, 1, 47, 127
2, 35360, Note_on_c, 1, 66, 127
2, 35360, Note_on_c, 1, 75, 127
2, 35720, Note_off_c, 1, 66, 0
2, 35720, Note_off_c, 1, 75, 0
2, 35760, Note_on_c, 1, 66, 127
2, 35760, Note_on_c, 1, 74, 127
2, 36120, Note_off_c, 1, 47, 0
2, 36120, Note_off_c, 1, 66, 0
2, 36120, Note_off_c, 1, 74, 0
2, 36160, Note_on_c, 1, 47, 127
2, 36160, Note_on_c, 1, 66, 127
2, 36160, Note_on_c, 1, 75, 127
2, 36520, Note_off_c, 1, 75, 0
2, 36560, Note_on_c, 1, 75, 127
2, 36800, Note_off_c, 1, 66, 0
2, 36800, Note_off_c, 1, 75, 0
2, 36840, Note_on_c, 1, 66, 127
2, 36920, Note_off_c, 1, 47, 0
2, 36920, Note_off_c, 1, 66, 0
2, 36960, Note_on_c, 1, 59, 127
2, 36960, Note_on_c, 1, 65, 127
2, 36960, Note_on_c, 1, 73, 127
2, 37280, Note_off_c, 1, 59, 0
2, 37360, Note_off_c, 1, 65, 0
2, 37360, Note_off_c, 1, 73, 0
2, 37400, Note_on_c, 1, 53, 127
2, 37400, Note_on_c, 1, 64, 127
2, 37400, Note_on_c, 1, 73, 127
2, 37680, Note_off_c, 1, 53, 0
2, 37680, Note_on_c, 1, 54, 127
2, 37720, Note_off_c, 1, 54, 0
2, 37720, Note_off_c, 1, 64, 0
2, 37720, Note_on_c, 1, 65, 127
2, 37760, Note_on_c, 1, 46, 127
2, 38120, Note_off_c, 1, 46, 0
2, 38120, Note_off_c, 1, 73, 0
2, 38160, Note_on_c, 1, 56, 127
2, 38160, Note_on_c, 1, 73, 127
2, 38520, Note_off_c, 1, 56, 0
2, 38560, Note_on_c, 1, 44, 127
2, 38800, Note_off_c, 1, 73, 0
2, 38840, Note_on_c, 1, 73, 127
2, 38920, Note_off_c, 1, 44, 0
2, 38920, Note_off_c, 1, 65, 0
2, 38920, Note_off_c, 1, 73, 0
2, 38960, Note_on_c, 1, 56, 127
2, 38960, Note_on_c, 1, 65, 127
2, 38960, Note_on_c, 1, 73, 127
2, 39320, Note_off_c, 1, 56, 0
2, 39360, Note_off_c, 1, 65, 0
2, 39360, Note_off_c, 1, 73, 0
2, 39400, Note_on_c, 1, 48, 127
2, 39400, Note_on_c, 1, 65, 127
2, 39400, Note_on_c, 1, 73, 127
2, 39720, Note_on_c, 1, 44, 127
2, 39720, Note_off_c, 1, 48, 0
2, 39720, Note_off_c, 1, 73, 0
2, 39760, Note_off_c, 1, 44, 0
2, 39760, Note_on_c, 1, 46, 127
2, 39760, Note_on_c, 1, 73, 127
2, 40120, Note_off_c, 1, 46, 0
2, 40160, Note_on_c, 1, 56, 127
2, 40520, Note_off_c, 1, 56, 0
2, 40520, Note_off_c, 1, 65, 0
2, 40520, Note_off_c, 1, 73, 0
2, 40560, Note_on_c, 1, 58, 127
2, 40560, Note_on_c, 1, 61, 127
2, 40560, Note_on_c, 1, 73, 127
2, 40920, Note_off_c, 1, 58, 0
2, 40920, Note_off_c, 1, 61, 0
2, 40920, Note_off_c, 1, 73, 0
2, 40960, Note_on_c, 1, 42, 127
2, 40960, Note_on_c, 1, 76, 127
2, 41280, Note_off_c, 1, 42, 0
2, 41280, Note_off_c, 1, 76, 0
2, 41320, Note_on_c, 1, 66, 127
2, 41320, Note_on_c, 1, 73, 127
2, 41480, Note_off_c, 1, 66, 0
2, 41480, Note_off_c, 1, 73, 0
2, 41520, Note_on_c, 1, 66, 127
2, 41520, Note_on_c, 1, 73, 127
2, 41760, Note_on_c, 1, 54, 127
2, 41760, Note_on_c, 1, 58, 127
2, 41760, Note_off_c, 1, 66, 0
2, 41760, Note_on_c, 1, 85, 127
2, 42080, Note_off_c, 1, 73, 0
2, 42080, Note_off_c, 1, 85, 0
2, 42120, Note_off_c, 1, 54, 0
2, 42120, Note_on_c, 1, 61, 127
2, 42120, Note_on_c, 1, 78, 127
2, 42880, Note_off_c, 1, 58, 0
2, 42880, Note_off_c, 1, 61, 0
2, 42880, Note_on_c, 1, 77, 127
2, 42880, Note_off_c, 1, 78, 0
2, 42920, Note_on_c, 1, 58, 127
2, 42920, Note_on_c, 1, 61, 127
2, 42920, Note_on_c, 1, 72, 127
2, 42920, Note_off_c, 1, 77, 0
2, 43240, Note_off_c, 1, 58, 0
2, 43240, Note_off_c, 1, 61, 0
2, 43240, Note_off_c, 1, 72, 0
2, 43280, Note_on_c, 1, 58, 127
2, 43280, Note_on_c, 1, 61, 127
2, 43280, Note_on_c, 1, 73, 127
2, 43640, Note_off_c, 1, 58, 0
2, 43640, Note_off_c, 1, 61, 0
2, 43640, Note_off_c, 1, 73, 0
2, 43720, Note_on_c, 1, 51, 127
2, 43720, Note_on_c, 1, 66, 127
2, 43720, Note_on_c, 1, 77, 127
2, 44040, Note_off_c, 1, 77, 0
2, 44080, Note_on_c, 1, 73, 127
2, 44440, Note_off_c, 1, 51, 0
2, 44440, Note_off_c, 1, 73, 0
2, 44480, Note_on_c, 1, 49, 127
2, 44480, Note_on_c, 1, 75, 127
2, 44840, Note_off_c, 1, 49, 0
2, 44880, Note_on_c, 1, 48, 127
2, 45240, Note_off_c, 1, 48, 0
2, 45280, Note_on_c, 1, 57, 127
2, 45640, Note_off_c, 1, 57, 0
2, 45640, Note_off_c, 1, 66, 0
2, 45640, Note_off_c, 1, 75, 0
2, 45720, Note_on_c, 1, 50, 127
2, 45720, Note_on_c, 1, 65, 127
2, 45720, Note_on_c, 1, 69, 127
2, 45720, Note_on_c, 1, 71, 127
2, 46040, Note_off_c, 1, 50, 0
2, 46040, Note_off_c, 1, 65, 0
2, 46040, Note_off_c, 1, 69, 0
2, 46040, Note_off_c, 1, 71, 0
2, 46080, Note_on_c, 1, 46, 127
2, 46080, Note_on_c, 1, 65, 127
2, 46080, Note_on_c, 1, 74, 127
2, 46440, Note_off_c, 1, 46, 0
2, 46480, Note_on_c, 1, 53, 127
2, 46800, Note_off_c, 1, 53, 0
2, 46840, Note_on_c, 1, 41, 127
2, 47200, Note_off_c, 1, 41, 0
2, 47200, Note_off_c, 1, 65, 0
2, 47200, Note_off_c, 1, 74, 0
2, 47200, Note_on_c, 1, 77, 127
2, 47240, Note_on_c, 1, 53, 127
2, 47240, Note_on_c, 1, 70, 127
2, 47240, Note_on_c, 1, 74, 127
2, 47240, Note_off_c, 1, 77, 0
2, 47600, Note_off_c, 1, 53, 0
2, 47640, Note_off_c, 1, 70, 0
2, 47640, Note_off_c, 1, 74, 0
2, 47680, Note_on_c, 1, 47, 127
2, 47680, Note_on_c, 1, 57, 127
2, 47680, Note_on_c, 1, 62, 127
2, 47680, Note_on_c, 1, 68, 127
2, 47680, Note_on_c, 1, 71, 127
2, 47800, Note_off_c, 1, 47, 0
2, 47800, Note_on_c, 1, 48, 127
2, 47800, Note_on_c, 1, 51, 127
2, 47800, Note_on_c, 1, 54, 127
2, 47800, Note_off_c, 1, 57, 0
2, 47800, Note_off_c, 1, 62, 0
2, 47800, Note_on_c, 1, 63, 127
2, 47800, Note_on_c, 1, 67, 127
2, 47800, Note_off_c, 1, 68, 0
2, 47800, Note_off_c, 1, 71, 0
2, 47800, Note_on_c, 1, 75, 127
2, 47840, Note_on_c, 1, 46, 127
2, 47840, Note_off_c, 1, 48, 0
2, 47840, Note_off_c, 1, 51, 0
2, 47840, Note_on_c, 1, 53, 127
2, 47840, Note_off_c, 1, 54, 0
2, 47840, Note_off_c, 1, 63, 0
2, 47840, Note_off_c, 1, 67, 0
2, 47840, Note_off_c, 1, 75, 0
2, 47840, Note_on_c, 1, 89, 127
2, 47880, Note_off_c, 1, 46, 0
2, 47880, Note_off_c, 1, 53, 0
2, 47880, Note_on_c, 1, 72, 127
2, 47880, Note_on_c, 1, 75, 127
2, 47880, Note_on_c, 1, 81, 127
2, 47880, Note_on_c, 1, 87, 127
2, 47920, Note_on_c, 1, 46, 127
2, 47920, Note_on_c, 1, 53, 127
2, 47920, Note_on_c, 1, 58, 127
2, 47920, Note_off_c, 1, 72, 0
2, 47920, Note_on_c, 1, 74, 127
2, 47920, Note_off_c, 1, 75, 0
2, 47920, Note_off_c, 1, 81, 0
2, 47920, Note_off_c, 1, 87, 0
2, 47920, Note_off_c, 1, 89, 0
2, 47960, Note_on_c, 1, 39, 127
2, 47960, Note_off_c, 1, 53, 0
2, 47960, Note_on_c, 1, 56, 127
2, 47960, Note_off_c, 1, 58, 0
2, 47960, Note_on_c, 1, 63, 127
2, 47960, Note_on_c, 1, 68, 127
2, 47960, Note_off_c, 1, 74, 0
2, 48000, Note_off_c, 1, 39, 0
2, 48000, Note_off_c, 1, 46, 0
2, 48000, Note_off_c, 1, 56, 0
2, 48000, Note_off_c, 1, 63, 0
2, 48000, Note_off_c, 1, 68, 0
2, 48040, Note_on_c, 1, 46, 127
2, 48040, Note_on_c, 1, 53, 127
2, 48040, Note_on_c, 1, 74, 127
2, 48400, Note_off_c, 1, 74, 0
2, 48440, Note_on_c, 1, 65, 127
2, 48440, Note_on_c, 1, 74, 127
2, 48800, Note_off_c, 1, 46, 0
2, 48800, Note_off_c, 1, 53, 0
2, 48800, Note_off_c, 1, 65, 0
2, 48800, Note_off_c, 1, 74, 0
2, 48840, Note_on_c, 1, 58, 127
2, 48840, Note_on_c, 1, 62, 127
2, 48840, Note_on_c, 1, 74, 127
2, 49200, Note_off_c, 1, 58, 0
2, 49200, Note_off_c, 1, 62, 0
2, 49200, Note_off_c, 1, 74, 0
2, 49240, Note_on_c, 1, 48, 127
2, 49240, Note_on_c, 1, 57, 127
2, 49240, Note_on_c, 1, 65, 127
2, 49640, Note_off_c, 1, 48, 0
2, 49640, Note_off_c, 1, 57, 0
2, 49640, Note_off_c, 1, 65, 0
2, 49680, Note_on_c, 1, 48, 127
2, 49680, Note_on_c, 1, 57, 127
2, 49680, Note_on_c, 1, 65, 127
2, 50440, Note_off_c, 1, 57, 0
2, 50440, Note_off_c, 1, 65, 0
2, 50480, Note_on_c, 1, 55, 127
2, 50480, Note_on_c, 1, 64, 127
2, 50480, Note_on_c, 1, 70, 127
2, 50840, Note_off_c, 1, 64, 0
2, 50840, Note_off_c, 1, 70, 0
2, 50880, Note_off_c, 1, 55, 0
2, 50880, Note_on_c, 1, 57, 127
2, 50880, Note_on_c, 1, 65, 127
2, 50880, Note_on_c, 1, 69, 127
2, 51600, Note_off_c, 1, 57, 0
2, 51600, Note_off_c, 1, 69, 0
2, 51640, Note_on_c, 1, 58, 127
2, 51640, Note_on_c, 1, 64, 127
2, 51640, Note_off_c, 1, 65, 0
2, 51640, Note_on_c, 1, 67, 127
2, 51720, Note_off_c, 1, 48, 0
2, 51720, Note_off_c, 1, 58, 0
2, 51720, Note_off_c, 1, 64, 0
2, 51720, Note_off_c, 1, 67, 0
2, 51760, Note_on_c, 1, 48, 127
2, 51760, Note_on_c, 1, 58, 127
2, 51760, Note_on_c, 1, 64, 127
2, 51760, Note_on_c, 1, 67, 127
2, 52040, Note_off_c, 1, 67, 0
2, 52080, Note_on_c, 1, 68, 127
2, 52440, Note_off_c, 1, 48, 0
2, 52440, Note_off_c, 1, 58, 0
2, 52440, Note_off_c, 1, 64, 0
2, 52440, Note_off_c, 1, 68, 0
2, 52480, Note_on_c, 1, 48, 127
2, 52480, Note_on_c, 1, 58, 127
2, 52480, Note_on_c, 1, 64, 127
2, 52480, Note_on_c, 1, 70, 127
2, 52840, Note_off_c, 1, 58, 0
2, 52840, Note_off_c, 1, 64, 0
2, 52840, Note_on_c, 1, 67, 127
2, 52840, Note_off_c, 1, 70, 0
2, 52880, Note_on_c, 1, 60, 127
2, 52880, Note_on_c, 1, 64, 127
2, 53200, Note_off_c, 1, 60, 0
2, 53240, Note_off_c, 1, 64, 0
2, 53280, Note_on_c, 1, 60, 127
2, 53640, Note_off_c, 1, 60, 0
2, 53680, Note_on_c, 1, 58, 127
2, 53680, Note_on_c, 1, 65, 127
2, 53680, Note_off_c, 1, 67, 0
2, 53760, Note_off_c, 1, 48, 0
2, 53760, Note_off_c, 1, 58, 0
2, 53760, Note_off_c, 1, 65, 0
2, 53800, Note_on_c, 1, 48, 127
2, 53800, Note_on_c, 1, 58, 127
2, 53800, Note_on_c, 1, 65, 127
2, 53920, Note_off_c, 1, 65, 0
2, 53960, Note_on_c, 1, 55, 127
2, 53960, Note_off_c, 1, 58, 0
2, 53960, Note_on_c, 1, 65, 127
2, 54080, Note_off_c, 1, 65, 0
2, 54120, Note_on_c, 1, 65, 127
2, 54480, Note_off_c, 1, 65, 0
2, 54520, Note_on_c, 1, 50, 127
2, 54520, Note_off_c, 1, 55, 0
2, 54520, Note_on_c, 1, 70, 127
2, 54560, Note_off_c, 1, 70, 0
2, 54640, Note_on_c, 1, 70, 127
2, 54680, Note_off_c, 1, 70, 0
2, 54720, Note_on_c, 1, 70, 127
2, 54800, Note_off_c, 1, 70, 0
2, 54840, Note_on_c, 1, 70, 127
2, 54880, Note_off_c, 1, 48, 0
2, 54880, Note_off_c, 1, 50, 0
2, 54880, Note_off_c, 1, 70, 0
2, 54920, Note_on_c, 1, 65, 127
2, 54920, Note_on_c, 1, 72, 127
2, 54920, Note_on_c, 1, 81, 127
2, 54920, Note_on_c, 1, 89, 127
2, 55640, Note_off_c, 1, 65, 0
2, 55640, Note_off_c, 1, 72, 0
2, 55640, Note_off_c, 1, 81, 0
2, 55640, Note_off_c, 1, 89, 0
2, 55720, Note_on_c, 1, 65, 127
2, 55720, Note_on_c, 1, 72, 127
2, 55720, Note_on_c, 1, 81, 127
2, 55720, Note_on_c, 1, 89, 127
2, 55960, Note_off_c, 1, 65, 0
2, 55960, Note_off_c, 1, 72, 0
2, 55960, Note_off_c, 1, 81, 0
2, 55960, Note_off_c, 1, 89, 0
2, 56000, Note_on_c, 1, 65, 127
2, 56000, Note_on_c, 1, 72, 127
2, 56000, Note_on_c, 1, 81, 127
2, 56000, Note_on_c, 1, 89, 127
2, 56560, Note_off_c, 1, 65, 0
2, 56560, Note_off_c, 1, 72, 0
2, 56560, Note_off_c, 1, 81, 0
2, 56560, Note_off_c, 1, 89, 0
2, 56640, Note_on_c, 1, 72, 127
2, 56640, Note_on_c, 1, 79, 127
2, 58000, Note_off_c, 1, 72, 0
2, 58000, Note_off_c, 1, 79, 0
2, 58040, Note_on_c, 1, 72, 127
2, 58040, Note_on_c, 1, 79, 127
2, 59520, Note_off_c, 1, 72, 0
2, 60040, Note_off_c, 1, 79, 0
2, 67200, Note_on_c, 1, 52, 127
2, 67560, Note_off_c, 1, 52, 0
2, 67600, Note_on_c, 1, 57, 127
2, 67960, Note_off_c, 1, 57, 0
2, 68000, Note_on_c, 1, 60, 127
2, 68360, Note_off_c, 1, 60, 0
2, 68400, Note_on_c, 1, 65, 127
2, 68760, Note_off_c, 1, 65, 0
2, 68800, Note_on_c, 1, 64, 127
2, 69160, Note_off_c, 1, 64, 0
2, 69240, Note_on_c, 1, 62, 127
2, 69600, Note_off_c, 1, 62, 0
2, 69640, Note_on_c, 1, 61, 127
2, 69640, Note_on_c, 1, 69, 127
2, 70000, Note_off_c, 1, 61, 0
2, 70040, Note_on_c, 1, 62, 127
2, 70200, Note_off_c, 1, 62, 0
2, 70200, Note_off_c, 1, 69, 0
2, 70840, Note_on_c, 1, 67, 127
2, 71240, Note_off_c, 1, 67, 0
2, 71280, Note_on_c, 1, 67, 127
2, 71440, Note_off_c, 1, 67, 0
2, 71480, Note_on_c, 1, 69, 127
2, 72240, Note_off_c, 1, 69, 0
2, 72280, Note_on_c, 1, 67, 127
2, 73040, Note_off_c, 1, 67, 0
2, 73080, Note_on_c, 1, 66, 127
2, 73280, Note_off_c, 1, 66, 0
2, 73320, Note_on_c, 1, 66, 127
2, 73480, Note_off_c, 1, 66, 0
2, 73520, Note_on_c, 1, 67, 127
2, 73880, Note_off_c, 1, 67, 0
2, 73920, Note_on_c, 1, 69, 127
2, 74280, Note_off_c, 1, 69, 0
2, 74320, Note_on_c, 1, 67, 127
2, 74680, Note_off_c, 1, 67, 0
2, 74720, Note_on_c, 1, 55, 127
2, 74720, Note_on_c, 1, 58, 127
2, 74720, Note_on_c, 1, 62, 127
2, 74720, Note_on_c, 1, 67, 127
2, 74720, Note_on_c, 1, 70, 127
2, 75440, Note_off_c, 1, 55, 0
2, 75440, Note_off_c, 1, 58, 0
2, 75440, Note_off_c, 1, 62, 0
2, 75440, Note_off_c, 1, 67, 0
2, 75440, Note_off_c, 1, 70, 0
2, 75480, Note_on_c, 1, 55, 127
2, 75480, Note_on_c, 1, 58, 127
2, 75480, Note_on_c, 1, 62, 127
2, 75480, Note_on_c, 1, 67, 127
2, 75480, Note_on_c, 1, 70, 127
2, 75920, Note_off_c, 1, 55, 0
2, 75920, Note_off_c, 1, 58, 0
2, 75920, Note_off_c, 1, 62, 0
2, 75920, Note_off_c, 1, 67, 0
2, 75920, Note_off_c, 1, 70, 0
2, 75960, Note_on_c, 1, 51, 127
2, 75960, Note_on_c, 1, 58, 127
2, 75960, Note_on_c, 1, 67, 127
2, 75960, Note_on_c, 1, 75, 127
2, 77520, Note_off_c, 1, 51, 0
2, 77520, Note_off_c, 1, 58, 0
2, 77520, Note_off_c, 1, 67, 0
2, 77520, Note_off_c, 1, 75, 0
2, 77600, Note_on_c, 1, 51, 127
2, 77600, Note_on_c, 1, 58, 127
2, 77600, Note_on_c, 1, 67, 127
2, 77600, Note_on_c, 1, 75, 127
2, 79560, Note_off_c, 1, 51, 0
2, 79560, Note_off_c, 1, 58, 0
2, 79560, Note_off_c, 1, 67, 0
2, 79560, Note_off_c, 1, 75, 0
2, 79640, Note_on_c, 1, 51, 127
2, 79640, Note_on_c, 1, 55, 127
2, 79640, Note_on_c, 1, 58, 127
2, 79640, Note_on_c, 1, 63, 127
2, 79640, Note_on_c, 1, 67, 127
2, 80800, Note_off_c, 1, 51, 0
2, 80800, Note_off_c, 1, 55, 0
2, 80800, Note_off_c, 1, 58, 0
2, 80800, Note_off_c, 1, 63, 0
2, 80800, Note_off_c, 1, 67, 0
2, 80840, Note_on_c, 1, 51, 127
2, 80840, Note_on_c, 1, 55, 127
2, 80840, Note_on_c, 1, 58, 127
2, 80840, Note_on_c, 1, 63, 127
2, 80840, Note_on_c, 1, 67, 127
2, 81640, Note_off_c, 1, 51, 0
2, 81640, Note_off_c, 1, 55, 0
2, 81640, Note_off_c, 1, 58, 0
2, 81640, Note_off_c, 1, 63, 0
2, 81640, Note_off_c, 1, 67, 0
2, 81680, Note_on_c, 1, 51, 127
2, 81680, Note_on_c, 1, 55, 127
2, 81680, Note_on_c, 1, 58, 127
2, 81680, Note_on_c, 1, 63, 127
2, 81680, Note_on_c, 1, 67, 127
2, 82040, Note_off_c, 1, 51, 0
2, 82040, Note_off_c, 1, 55, 0
2, 82040, Note_off_c, 1, 58, 0
2, 82040, Note_off_c, 1, 63, 0
2, 82040, Note_off_c, 1, 67, 0
2, 82080, Note_on_c, 1, 51, 127
2, 82080, Note_on_c, 1, 55, 127
2, 82080, Note_on_c, 1, 58, 127
2, 82080, Note_on_c, 1, 63, 127
2, 82080, Note_on_c, 1, 67, 127
2, 83200, Note_off_c, 1, 51, 0
2, 83200, Note_off_c, 1, 55, 0
2, 83200, Note_off_c, 1, 58, 0
2, 83200, Note_off_c, 1, 63, 0
2, 83200, Note_off_c, 1, 67, 0
2, 83280, Note_on_c, 1, 46, 127
2, 83280, Note_on_c, 1, 56, 127
2, 83280, Note_on_c, 1, 62, 127
2, 83280, Note_on_c, 1, 65, 127
2, 83680, Note_off_c, 1, 46, 0
2, 83680, Note_off_c, 1, 56, 0
2, 83680, Note_off_c, 1, 62, 0
2, 83680, Note_off_c, 1, 65, 0
2, 83720, Note_on_c, 1, 46, 127
2, 83720, Note_on_c, 1, 56, 127
2, 83720, Note_on_c, 1, 62, 127
2, 83720, Note_on_c, 1, 65, 127
2, 84480, Note_off_c, 1, 46, 0
2, 84480, Note_off_c, 1, 56, 0
2, 84480, Note_off_c, 1, 62, 0
2, 84480, Note_off_c, 1, 65, 0
2, 84520, Note_on_c, 1, 51, 127
2, 84520, Note_on_c, 1, 55, 127
2, 84520, Note_on_c, 1, 63, 127
2, 85640, Note_off_c, 1, 55, 0
2, 85640, Note_off_c, 1, 63, 0
2, 85680, Note_off_c, 1, 51, 0
2, 85720, Note_on_c, 1, 51, 127
2, 85720, Note_on_c, 1, 58, 127
2, 86880, Note_off_c, 1, 51, 0
2, 86880, Note_off_c, 1, 58, 0
2, 86920, Note_on_c, 1, 44, 127
2, 86920, Note_on_c, 1, 51, 127
2, 87520, Note_off_c, 1, 44, 0
2, 87520, Note_off_c, 1, 51, 0
2, 87560, Note_on_c, 1, 44, 127
2, 87560, Note_on_c, 1, 51, 127
2, 87560, Note_on_c, 1, 56, 127
2, 88120, Note_off_c, 1, 56, 0
2, 88160, Note_on_c, 1, 56, 127
2, 88720, Note_off_c, 1, 44, 0
2, 88720, Note_off_c, 1, 51, 0
2, 88720, Note_off_c, 1, 56, 0
2, 88760, Note_on_c, 1, 44, 127
2, 88760, Note_on_c, 1, 60, 127
2, 89560, Note_off_c, 1, 44, 0
2, 89560, Note_off_c, 1, 60, 0
2, 89600, Note_on_c, 1, 44, 127
2, 89600, Note_on_c, 1, 60, 127
2, 89960, Note_off_c, 1, 44, 0
2, 89960, Note_off_c, 1, 60, 0
2, 90000, Note_on_c, 1, 44, 127
2, 90000, Note_on_c, 1, 63, 127
2, 90560, Note_off_c, 1, 44, 0
2, 90600, Note_on_c, 1, 73, 127
2, 91160, Note_off_c, 1, 73, 0
2, 91200, Note_on_c, 1, 72, 127
2, 91640, Note_off_c, 1, 63, 0
2, 91640, Note_off_c, 1, 72, 0
2, 91680, Note_on_c, 1, 63, 127
2, 91680, Note_on_c, 1, 72, 127
2, 93800, Note_off_c, 1, 63, 0
2, 93800, Note_off_c, 1, 72, 0
2, 93840, Note_on_c, 1, 63, 127
2, 93840, Note_on_c, 1, 72, 127
2, 95920, Note_off_c, 1, 63, 0
2, 95920, Note_off_c, 1, 72, 0
2, 95960, Note_on_c, 1, 63, 127
2, 95960, Note_on_c, 1, 72, 127
2, 96320, Note_off_c, 1, 63, 0
2, 96320, Note_off_c, 1, 72, 0
2, 96360, Note_on_c, 1, 62, 127
2, 96360, Note_on_c, 1, 70, 127
2, 97160, Note_on_c, 1, 60, 127
2, 97160, Note_off_c, 1, 62, 0
2, 97160, Note_on_c, 1, 69, 127
2, 97160, Note_off_c, 1, 70, 0
2, 97400, Note_on_c, 1, 54, 127
2, 97920, Note_off_c, 1, 54, 0
2, 97920, Note_off_c, 1, 60, 0
2, 97920, Note_off_c, 1, 69, 0
2, 98000, Note_on_c, 1, 41, 127
2, 98000, Note_on_c, 1, 48, 127
2, 98240, Note_off_c, 1, 41, 0
2, 98560, Note_off_c, 1, 48, 0
2, 98600, Note_on_c, 1, 53, 127
2, 98600, Note_on_c, 1, 57, 127
2, 98600, Note_on_c, 1, 60, 127
2, 99120, Note_off_c, 1, 53, 0
2, 99120, Note_off_c, 1, 57, 0
2, 99120, Note_off_c, 1, 60, 0
2, 99200, Note_on_c, 1, 53, 127
2, 99200, Note_on_c, 1, 57, 127
2, 99200, Note_on_c, 1, 60, 127
2, 99720, Note_off_c, 1, 53, 0
2, 99720, Note_off_c, 1, 57, 0
2, 99720, Note_off_c, 1, 60, 0
2, 99760, Note_on_c, 1, 53, 127
2, 99760, Note_on_c, 1, 57, 127
2, 99760, Note_on_c, 1, 60, 127
2, 100360, Note_off_c, 1, 53, 0
2, 100360, Note_off_c, 1, 57, 0
2, 100360, Note_off_c, 1, 60, 0
2, 100440, Note_on_c, 1, 36, 127
2, 100440, Note_on_c, 1, 43, 127
2, 100440, Note_on_c, 1, 48, 127
2, 100440, Note_on_c, 1, 52, 127
2, 100440, Note_on_c, 1, 60, 127
2, 101520, Note_off_c, 1, 36, 0
2, 101520, Note_off_c, 1, 43, 0
2, 101520, Note_off_c, 1, 48, 0
2, 101520, Note_off_c, 1, 52, 0
2, 101520, Note_off_c, 1, 60, 0
2, 101680, Note_on_c, 1, 36, 127
2, 101680, Note_on_c, 1, 43, 127
2, 101680, Note_on_c, 1, 48, 127
2, 101680, Note_on_c, 1, 52, 127
2, 101680, Note_on_c, 1, 60, 127
2, 102800, Note_off_c, 1, 36, 0
2, 102800, Note_off_c, 1, 43, 0
2, 102800, Note_off_c, 1, 48, 0
2, 102800, Note_off_c, 1, 52, 0
2, 102800, Note_off_c, 1, 60, 0
2, 102880, Note_on_c, 1, 36, 127
2, 102880, Note_on_c, 1, 43, 127
2, 102880, Note_on_c, 1, 48, 127
2, 102880, Note_on_c, 1, 52, 127
2, 102880, Note_on_c, 1, 60, 127
2, 103680, Note_off_c, 1, 36, 0
2, 103680, Note_off_c, 1, 43, 0
2, 103680, Note_off_c, 1, 48, 0
2, 103680, Note_off_c, 1, 52, 0
2, 103680, Note_off_c, 1, 60, 0
2, 103720, Note_on_c, 1, 36, 127
2, 103720, Note_on_c, 1, 43, 127
2, 103720, Note_on_c, 1, 48, 127
2, 103720, Note_on_c, 1, 52, 127
2, 103720, Note_on_c, 1, 60, 127
2, 104080, Note_off_c, 1, 36, 0
2, 104080, Note_off_c, 1, 43, 0
2, 104080, Note_off_c, 1, 48, 0
2, 104080, Note_off_c, 1, 52, 0
2, 104080, Note_off_c, 1, 60, 0
2, 104120, Note_on_c, 1, 36, 127
2, 104120, Note_on_c, 1, 43, 127
2, 104120, Note_on_c, 1, 48, 127
2, 104120, Note_on_c, 1, 52, 127
2, 104120, Note_on_c, 1, 60, 127
2, 105200, Note_off_c, 1, 36, 0
2, 105200, Note_off_c, 1, 43, 0
2, 105200, Note_off_c, 1, 48, 0
2, 105200, Note_off_c, 1, 52, 0
2, 105200, Note_off_c, 1, 60, 0
2, 105320, Note_on_c, 1, 36, 127
2, 105320, Note_on_c, 1, 43, 127
2, 105320, Note_on_c, 1, 48, 127
2, 105320, Note_on_c, 1, 52, 127
2, 105320, Note_on_c, 1, 60, 127
2, 105720, Note_off_c, 1, 36, 0
2, 105720, Note_off_c, 1, 43, 0
2, 105720, Note_off_c, 1, 48, 0
2, 105720, Note_off_c, 1, 52, 0
2, 105720, Note_off_c, 1, 60, 0
2, 105760, Note_on_c, 1, 36, 127
2, 105760, Note_on_c, 1, 43, 127
2, 105760, Note_on_c, 1, 48, 127
2, 105760, Note_on_c, 1, 52, 127
2, 105760, Note_on_c, 1, 60, 127
2, 106360, Note_off_c, 1, 36, 0
2, 106360, Note_off_c, 1, 43, 0
2, 106360, Note_off_c, 1, 48, 0
2, 106360, Note_off_c, 1, 52, 0
2, 106360, Note_off_c, 1, 60, 0
2, 106560, Note_on_c, 1, 50, 127
2, 106560, Note_on_c, 1, 58, 127
2, 106560, Note_on_c, 1, 65, 127
2, 106560, Note_on_c, 1, 77, 127
2, 107120, Note_off_c, 1, 65, 0
2, 107120, Note_off_c, 1, 77, 0
2, 107160, Note_on_c, 1, 70, 127
2, 107720, Note_off_c, 1, 50, 0
2, 107760, Note_off_c, 1, 58, 0
2, 107760, Note_off_c, 1, 70, 0
2, 107800, Note_on_c, 1, 50, 127
2, 107800, Note_on_c, 1, 53, 127
2, 107800, Note_on_c, 1, 58, 127
2, 107800, Note_on_c, 1, 70, 127
2, 108360, Note_off_c, 1, 50, 0
2, 108360, Note_off_c, 1, 53, 0
2, 108360, Note_off_c, 1, 58, 0
2, 108360, Note_off_c, 1, 70, 0
2, 108400, Note_on_c, 1, 50, 127
2, 108400, Note_on_c, 1, 58, 127
2, 108400, Note_on_c, 1, 62, 127
2, 108400, Note_on_c, 1, 70, 127
2, 108960, Note_off_c, 1, 50, 0
2, 108960, Note_off_c, 1, 58, 0
2, 108960, Note_off_c, 1, 62, 0
2, 108960, Note_off_c, 1, 70, 0
2, 109000, Note_on_c, 1, 51, 127
2, 109000, Note_on_c, 1, 57, 127
2, 109000, Note_on_c, 1, 60, 127
2, 109000, Note_on_c, 1, 72, 127
2, 109800, Note_off_c, 1, 51, 0
2, 109800, Note_off_c, 1, 57, 0
2, 109800, Note_off_c, 1, 60, 0
2, 109800, Note_off_c, 1, 72, 0
2, 109840, Note_on_c, 1, 51, 127
2, 109840, Note_on_c, 1, 57, 127
2, 109840, Note_on_c, 1, 60, 127
2, 109840, Note_on_c, 1, 72, 127
2, 110160, Note_off_c, 1, 51, 0
2, 110160, Note_off_c, 1, 57, 0
2, 110160, Note_off_c, 1, 60, 0
2, 110160, Note_off_c, 1, 72, 0
2, 110240, Note_on_c, 1, 54, 127
2, 110240, Note_on_c, 1, 56, 127
2, 110240, Note_on_c, 1, 63, 127
2, 110240, Note_on_c, 1, 68, 127
2, 110240, Note_on_c, 1, 72, 127
2, 111360, Note_off_c, 1, 54, 0
2, 111360, Note_off_c, 1, 56, 0
2, 111360, Note_off_c, 1, 63, 0
2, 111360, Note_off_c, 1, 68, 0
2, 111360, Note_off_c, 1, 72, 0
2, 113880, Note_on_c, 1, 53, 127
2, 113880, Note_on_c, 1, 63, 127
2, 113880, Note_on_c, 1, 69, 127
2, 113880, Note_on_c, 1, 72, 127
2, 114280, Note_off_c, 1, 53, 0
2, 114280, Note_off_c, 1, 63, 0
2, 114280, Note_off_c, 1, 69, 0
2, 114280, Note_off_c, 1, 72, 0
2, 114320, Note_on_c, 1, 53, 127
2, 114320, Note_on_c, 1, 63, 127
2, 114320, Note_on_c, 1, 69, 127
2, 114320, Note_on_c, 1, 72, 127
2, 114480, Note_off_c, 1, 72, 0
2, 114520, Note_on_c, 1, 72, 127
2, 114760, Note_off_c, 1, 72, 0
2, 114800, Note_on_c, 1, 77, 127
2, 115080, Note_off_c, 1, 77, 0
2, 115120, Note_on_c, 1, 77, 127
2, 115680, Note_off_c, 1, 77, 0
2, 115720, Note_on_c, 1, 61, 127
2, 115720, Note_off_c, 1, 63, 0
2, 115720, Note_on_c, 1, 65, 127
2, 115720, Note_off_c, 1, 69, 0
2, 115720, Note_on_c, 1, 89, 127
2, 116240, Note_off_c, 1, 53, 0
2, 116240, Note_off_c, 1, 61, 0
2, 116240, Note_off_c, 1, 65, 0
2, 116240, Note_off_c, 1, 89, 0
2, 116360, Note_on_c, 1, 56, 127
2, 116360, Note_on_c, 1, 61, 127
2, 116360, Note_on_c, 1, 65, 127
2, 116360, Note_on_c, 1, 76, 127
2, 116920, Note_off_c, 1, 76, 0
2, 117400, Note_on_c, 1, 89, 127
2, 117520, Note_off_c, 1, 89, 0
2, 117560, Note_on_c, 1, 85, 127
2, 118080, Note_off_c, 1, 85, 0
2, 118120, Note_on_c, 1, 85, 127
2, 118640, Note_off_c, 1, 56, 0
2, 118640, Note_off_c, 1, 61, 0
2, 118640, Note_off_c, 1, 65, 0
2, 118640, Note_off_c, 1, 85, 0
2, 118680, Note_on_c, 1, 56, 127
2, 118680, Note_on_c, 1, 61, 127
2, 118680, Note_on_c, 1, 65, 127
2, 118680, Note_on_c, 1, 85, 127
2, 118720, Note_off_c, 1, 85, 0
2, 118760, Note_on_c, 1, 77, 127
2, 119920, Note_off_c, 1, 56, 0
2, 119920, Note_off_c, 1, 61, 0
2, 119920, Note_off_c, 1, 65, 0
2, 119920, Note_off_c, 1, 77, 0
2, 119920, Note_on_c, 1, 78, 127
2, 119960, Note_on_c, 1, 56, 127
2, 119960, Note_on_c, 1, 60, 127
2, 119960, Note_on_c, 1, 63, 127
2, 119960, Note_on_c, 1, 75, 127
2, 119960, Note_off_c, 1, 78, 0
2, 120000, Note_off_c, 1, 56, 0
2, 120000, Note_off_c, 1, 60, 0
2, 120000, Note_off_c, 1, 63, 0
2, 120000, Note_off_c, 1, 75, 0
2, 120040, End_track
3, 0, Start_track
3, 0, Title_t, "MIDI"
3, 1536, End_track
0, 0, End_of_file
