0, 0, Header, 1, 3, 192
1, 0, Start_track
1, 0, Time_signature, 4, 2, 24, 8
1, 0, Tempo, 500000
1, 120040, End_track
2, 0, Start_track
2, 0, Text_t, "random instrument: random person i dunno whatev"
2, 0, Title_t, "Track 1"
2, 0, Note_on_c, 1, 34, 127
2, 0, Note_on_c, 1, 53, 127
2, 0, Note_on_c, 1, 56, 127
2, 0, Note_on_c, 1, 62, 127
2, 40, Note_off_c, 1, 34, 0
2, 40, Note_off_c, 1, 53, 0
2, 40, Note_off_c, 1, 56, 0
2, 40, Note_off_c, 1, 62, 0
2, 40, Note_on_c, 1, 67, 127
2, 40, Note_on_c, 1, 76, 127
2, 40, Note_on_c, 1, 79, 127
2, 40, Note_on_c, 1, 85, 127
2, 40, Note_on_c, 1, 88, 127
2, 80, Note_off_c, 1, 67, 0
2, 80, Note_off_c, 1, 76, 0
2, 80, Note_off_c, 1, 79, 0
2, 80, Note_off_c, 1, 85, 0
2, 80, Note_off_c, 1, 88, 0
2, 120, Note_on_c, 1, 34, 127
2, 120, Note_on_c, 1, 53, 127
2, 120, Note_on_c, 1, 56, 127
2, 120, Note_on_c, 1, 62, 127
2, 160, Note_off_c, 1, 34, 0
2, 160, Note_on_c, 1, 43, 127
2, 160, Note_on_c, 1, 47, 127
2, 160, Note_off_c, 1, 53, 0
2, 160, Note_on_c, 1, 55, 127
2, 160, Note_off_c, 1, 56, 0
2, 160, Note_off_c, 1, 62, 0
2, 160, Note_on_c, 1, 79, 127
2, 160, Note_on_c, 1, 83, 127
2, 160, Note_on_c, 1, 87, 127
2, 160, Note_on_c, 1, 91, 127
2, 200, Note_off_c, 1, 43, 0
2, 200, Note_off_c, 1, 47, 0
2, 200, Note_on_c, 1, 48, 127
2, 200, Note_off_c, 1, 55, 0
2, 200, Note_on_c, 1, 61, 127
2, 200, Note_on_c, 1, 64, 127
2, 200, Note_on_c, 1, 70, 127
2, 200, Note_off_c, 1, 79, 0
2, 200, Note_off_c, 1, 83, 0
2, 200, Note_off_c, 1, 87, 0
2, 200, Note_off_c, 1, 91, 0
2, 240, Note_on_c, 1, 42, 127
2, 240, Note_off_c, 1, 48, 0
2, 240, Note_on_c, 1, 55, 127
2, 240, Note_on_c, 1, 60, 127
2, 240, Note_off_c, 1, 61, 0
2, 240, Note_on_c, 1, 67, 127
2, 240, Note_off_c, 1, 70, 0
2, 280, Note_on_c, 1, 39, 127
2, 280, Note_off_c, 1, 42, 0
2, 280, Note_off_c, 1, 55, 0
2, 280, Note_on_c, 1, 56, 127
2, 280, Note_on_c, 1, 59, 127
2, 280, Note_off_c, 1, 60, 0
2, 280, Note_off_c, 1, 64, 0
2, 280, Note_on_c, 1, 66, 127
2, 280, Note_off_c, 1, 67, 0
2, 320, Note_off_c, 1, 39, 0
2, 320, Note_off_c, 1, 56, 0
2, 320, Note_off_c, 1, 59, 0
2, 320, Note_on_c, 1, 64, 127
2, 320, Note_off_c, 1, 66, 0
2, 320, Note_on_c, 1, 81, 127
2, 320, Note_on_c, 1, 83, 127
2, 320, Note_on_c, 1, 90, 127
2, 360, Note_off_c, 1, 64, 0
2, 360, Note_off_c, 1, 81, 0
2, 360, Note_off_c, 1, 83, 0
2, 360, Note_off_c, 1, 90, 0
2, 400, Note_on_c, 1, 38, 127
2, 400, Note_on_c, 1, 54, 127
2, 480, Note_off_c, 1, 54, 0
2, 520, Note_on_c, 1, 57, 127
2, 640, Note_off_c, 1, 57, 0
2, 680, Note_on_c, 1, 60, 127
2, 760, Note_off_c, 1, 38, 0
2, 760, Note_off_c, 1, 60, 0
2, 800, Note_on_c, 1, 52, 127
2, 960, Note_on_c, 1, 69, 127
2, 1200, Note_off_c, 1, 69, 0
2, 1240, Note_off_c, 1, 52, 0
2, 1240, Note_on_c, 1, 61, 127
2, 1240, Note_on_c, 1, 67, 127
2, 1960, Note_off_c, 1, 61, 0
2, 1960, Note_off_c, 1, 67, 0
2, 2040, Note_on_c, 1, 55, 127
2, 2040, Note_on_c, 1, 60, 127
2, 2040, Note_on_c, 1, 66, 127
2, 2360, Note_off_c, 1, 55, 0
2, 2360, Note_off_c, 1, 60, 0
2, 2360, Note_off_c, 1, 66, 0
2, 2400, Note_on_c, 1, 55, 127
2, 2400, Note_on_c, 1, 60, 127
2, 2400, Note_on_c, 1, 66, 127
2, 3040, Note_off_c, 1, 60, 0
2, 3040, Note_off_c, 1, 66, 0
2, 3120, Note_on_c, 1, 48, 127
2, 3120, Note_on_c, 1, 64, 127
2, 3240, Note_off_c, 1, 48, 0
2, 3240, Note_on_c, 1, 49, 127
2, 3240, Note_off_c, 1, 55, 0
2, 3240, Note_on_c, 1, 59, 127
2, 3280, Note_off_c, 1, 49, 0
2, 3280, Note_on_c, 1, 62, 127
2, 3280, Note_off_c, 1, 64, 0
2, 3280, Note_on_c, 1, 67, 127
2, 3280, Note_on_c, 1, 69, 127
2, 3320, Note_on_c, 1, 31, 127
2, 3320, Note_on_c, 1, 38, 127
2, 3320, Note_off_c, 1, 59, 0
2, 3320, Note_off_c, 1, 62, 0
2, 3320, Note_off_c, 1, 67, 0
2, 3320, Note_off_c, 1, 69, 0
2, 3320, Note_on_c, 1, 75, 127
2, 3360, Note_off_c, 1, 31, 0
2, 3360, Note_off_c, 1, 38, 0
2, 3360, Note_on_c, 1, 43, 127
2, 3360, Note_on_c, 1, 67, 127
2, 3360, Note_off_c, 1, 75, 0
2, 3400, Note_off_c, 1, 43, 0
2, 3400, Note_on_c, 1, 50, 127
2, 3400, Note_on_c, 1, 55, 127
2, 3400, Note_on_c, 1, 59, 127
2, 3400, Note_on_c, 1, 66, 127
2, 3400, Note_off_c, 1, 67, 0
2, 3560, Note_off_c, 1, 55, 0
2, 3560, Note_on_c, 1, 58, 127
2, 3560, Note_off_c, 1, 59, 0
2, 3560, Note_on_c, 1, 62, 127
2, 3560, Note_off_c, 1, 66, 0
2, 3600, Note_on_c, 1, 45, 127
2, 3600, Note_off_c, 1, 50, 0
2, 3600, Note_off_c, 1, 58, 0
2, 3600, Note_off_c, 1, 62, 0
2, 3600, Note_on_c, 1, 64, 127
2, 3600, Note_on_c, 1, 67, 127
2, 3640, Note_off_c, 1, 45, 0
2, 3640, Note_off_c, 1, 64, 0
2, 3640, Note_off_c, 1, 67, 0
2, 3680, Note_on_c, 1, 31, 127
2, 3680, Note_on_c, 1, 43, 127
2, 3680, Note_on_c, 1, 58, 127
2, 3760, Note_off_c, 1, 58, 0
2, 3800, Note_on_c, 1, 50, 127
2, 3920, Note_off_c, 1, 50, 0
2, 3960, Note_on_c, 1, 77, 127
2, 4000, Note_off_c, 1, 77, 0
2, 4000, Note_on_c, 1, 79, 127
2, 4040, Note_on_c, 1, 77, 127
2, 4040, Note_off_c, 1, 79, 0
2, 4240, Note_off_c, 1, 31, 0
2, 4240, Note_off_c, 1, 43, 0
2, 4240, Note_off_c, 1, 77, 0
2, 4280, Note_on_c, 1, 47, 127
2, 4280, Note_on_c, 1, 50, 127
2, 4280, Note_on_c, 1, 66, 127
2, 4280, Note_on_c, 1, 69, 127
2, 4280, Note_on_c, 1, 72, 127
2, 4280, Note_on_c, 1, 74, 127
2, 4520, Note_off_c, 1, 47, 0
2, 4520, Note_off_c, 1, 66, 0
2, 4520, Note_off_c, 1, 69, 0
2, 4520, Note_off_c, 1, 72, 0
2, 4520, Note_off_c, 1, 74, 0
2, 4560, Note_off_c, 1, 50, 0
2, 4600, Note_on_c, 1, 50, 127
2, 4600, Note_on_c, 1, 59, 127
2, 4600, Note_on_c, 1, 62, 127
2, 4840, Note_off_c, 1, 50, 0
2, 4840, Note_off_c, 1, 59, 0
2, 4840, Note_off_c, 1, 62, 0
2, 4880, Note_on_c, 1, 50, 127
2, 4880, Note_on_c, 1, 59, 127
2, 4880, Note_on_c, 1, 62, 127
2, 4880, Note_on_c, 1, 71, 127
2, 4920, Note_off_c, 1, 50, 0
2, 4920, Note_off_c, 1, 59, 0
2, 4920, Note_off_c, 1, 62, 0
2, 4920, Note_off_c, 1, 71, 0
2, 5160, Note_on_c, 1, 48, 127
2, 5160, Note_on_c, 1, 55, 127
2, 5160, Note_on_c, 1, 60, 127
2, 5160, Note_on_c, 1, 64, 127
2, 5240, Note_on_c, 1, 43, 127
2, 5240, Note_off_c, 1, 48, 0
2, 5240, Note_on_c, 1, 50, 127
2, 5240, Note_off_c, 1, 55, 0
2, 5240, Note_on_c, 1, 62, 127
2, 5240, Note_off_c, 1, 64, 0
2, 5240, Note_on_c, 1, 69, 127
2, 5280, Note_off_c, 1, 43, 0
2, 5280, Note_on_c, 1, 47, 127
2, 5280, Note_off_c, 1, 50, 0
2, 5280, Note_on_c, 1, 59, 127
2, 5280, Note_off_c, 1, 60, 0
2, 5280, Note_on_c, 1, 67, 127
2, 5280, Note_off_c, 1, 69, 0
2, 5440, Note_off_c, 1, 59, 0
2, 5440, Note_off_c, 1, 62, 0
2, 5440, Note_off_c, 1, 67, 0
2, 5480, Note_on_c, 1, 59, 127
2, 5480, Note_on_c, 1, 62, 127
2, 5480, Note_on_c, 1, 67, 127
2, 5720, Note_off_c, 1, 59, 0
2, 5720, Note_off_c, 1, 62, 0
2, 5720, Note_off_c, 1, 67, 0
2, 5760, Note_on_c, 1, 40, 127
2, 5760, Note_off_c, 1, 47, 0
2, 5760, Note_on_c, 1, 52, 127
2, 5760, Note_on_c, 1, 55, 127
2, 5760, Note_on_c, 1, 67, 127
2, 5800, Note_off_c, 1, 40, 0
2, 5800, Note_off_c, 1, 52, 0
2, 5800, Note_off_c, 1, 55, 0
2, 5800, Note_off_c, 1, 67, 0
2, 5920, Note_on_c, 1, 40, 127
2, 5920, Note_on_c, 1, 47, 127
2, 5920, Note_on_c, 1, 59, 127
2, 5960, Note_off_c, 1, 40, 0
2, 5960, Note_off_c, 1, 47, 0
2, 5960, Note_off_c, 1, 59, 0
2, 6080, Note_on_c, 1, 46, 127
2, 6080, Note_on_c, 1, 50, 127
2, 6200, Note_on_c, 1, 42, 127
2, 6200, Note_off_c, 1, 46, 0
2, 6200, Note_off_c, 1, 50, 0
2, 6200, Note_on_c, 1, 52, 127
2, 6200, Note_on_c, 1, 59, 127
2, 6200, Note_on_c, 1, 64, 127
2, 6240, Note_off_c, 1, 42, 0
2, 6240, Note_off_c, 1, 52, 0
2, 6240, Note_off_c, 1, 59, 0
2, 6240, Note_off_c, 1, 64, 0
2, 6240, Note_on_c, 1, 67, 127
2, 6240, Note_on_c, 1, 70, 127
2, 6240, Note_on_c, 1, 84, 127
2, 6240, Note_on_c, 1, 87, 127
2, 6240, Note_on_c, 1, 93, 127
2, 6280, Note_on_c, 1, 32, 127
2, 6280, Note_off_c, 1, 67, 0
2, 6280, Note_off_c, 1, 70, 0
2, 6280, Note_on_c, 1, 72, 127
2, 6280, Note_on_c, 1, 73, 127
2, 6280, Note_off_c, 1, 84, 0
2, 6280, Note_off_c, 1, 87, 0
2, 6280, Note_off_c, 1, 93, 0
2, 6320, Note_off_c, 1, 32, 0
2, 6320, Note_off_c, 1, 72, 0
2, 6320, Note_off_c, 1, 73, 0
2, 6320, Note_on_c, 1, 86, 127
2, 6360, Note_on_c, 1, 38, 127
2, 6360, Note_on_c, 1, 57, 127
2, 6360, Note_on_c, 1, 65, 127
2, 6360, Note_off_c, 1, 86, 0
2, 6440, Note_off_c, 1, 38, 0
2, 6440, Note_on_c, 1, 45, 127
2, 6440, Note_off_c, 1, 65, 0
2, 6440, Note_on_c, 1, 72, 127
2, 6480, Note_off_c, 1, 45, 0
2, 6480, Note_off_c, 1, 57, 0
2, 6480, Note_off_c, 1, 72, 0
2, 6560, Note_on_c, 1, 38, 127
2, 6560, Note_on_c, 1, 50, 127
2, 6560, Note_on_c, 1, 60, 127
2, 6560, Note_on_c, 1, 62, 127
2, 6560, Note_on_c, 1, 66, 127
2, 6640, Note_off_c, 1, 38, 0
2, 6640, Note_off_c, 1, 50, 0
2, 6640, Note_off_c, 1, 60, 0
2, 6640, Note_off_c, 1, 62, 0
2, 6640, Note_off_c, 1, 66, 0
2, 6720, Note_on_c, 1, 43, 127
2, 6720, Note_on_c, 1, 55, 127
2, 6720, Note_on_c, 1, 62, 127
2, 6720, Note_on_c, 1, 65, 127
2, 6720, Note_on_c, 1, 71, 127
2, 6960, Note_off_c, 1, 43, 0
2, 6960, Note_off_c, 1, 55, 0
2, 6960, Note_off_c, 1, 62, 0
2, 6960, Note_off_c, 1, 65, 0
2, 6960, Note_off_c, 1, 71, 0
2, 7000, Note_on_c, 1, 48, 127
2, 7000, Note_on_c, 1, 55, 127
2, 7000, Note_on_c, 1, 64, 127
2, 7000, Note_on_c, 1, 69, 127
2, 7040, Note_off_c, 1, 48, 0
2, 7040, Note_off_c, 1, 55, 0
2, 7040, Note_off_c, 1, 64, 0
2, 7040, Note_off_c, 1, 69, 0
2, 7160, Note_on_c, 1, 40, 127
2, 7160, Note_on_c, 1, 52, 127
2, 7160, Note_on_c, 1, 59, 127
2, 7160, Note_on_c, 1, 64, 127
2, 7160, Note_on_c, 1, 67, 127
2, 7200, Note_off_c, 1, 40, 0
2, 7200, Note_off_c, 1, 52, 0
2, 7200, Note_off_c, 1, 59, 0
2, 7200, Note_off_c, 1, 64, 0
2, 7200, Note_off_c, 1, 67, 0
2, 7280, Note_on_c, 1, 41, 127
2, 7280, Note_on_c, 1, 53, 127
2, 7280, Note_on_c, 1, 57, 127
2, 7280, Note_on_c, 1, 60, 127
2, 7280, Note_on_c, 1, 65, 127
2, 7560, Note_off_c, 1, 57, 0
2, 7560, Note_off_c, 1, 60, 0
2, 7560, Note_off_c, 1, 65, 0
2, 7600, Note_on_c, 1, 57, 127
2, 7680, Note_off_c, 1, 57, 0
2, 7720, Note_on_c, 1, 62, 127
2, 7840, Note_off_c, 1, 41, 0
2, 7840, Note_off_c, 1, 53, 0
2, 7840, Note_off_c, 1, 62, 0
2, 7880, Note_on_c, 1, 38, 127
2, 7880, Note_on_c, 1, 50, 127
2, 7880, Note_on_c, 1, 53, 127
2, 8000, Note_off_c, 1, 53, 0
2, 8040, Note_on_c, 1, 65, 127
2, 8160, Note_off_c, 1, 38, 0
2, 8160, Note_off_c, 1, 50, 0
2, 8160, Note_off_c, 1, 65, 0
2, 8200, Note_on_c, 1, 33, 127
2, 8200, Note_on_c, 1, 45, 127
2, 8200, Note_on_c, 1, 64, 127
2, 8280, Note_off_c, 1, 64, 0
2, 8320, Note_on_c, 1, 69, 127
2, 8440, Note_off_c, 1, 69, 0
2, 8480, Note_on_c, 1, 60, 127
2, 8520, Note_off_c, 1, 33, 0
2, 8520, Note_off_c, 1, 45, 0
2, 8520, Note_off_c, 1, 60, 0
2, 8560, Note_on_c, 1, 33, 127
2, 8560, Note_on_c, 1, 45, 127
2, 8560, Note_on_c, 1, 60, 127
2, 8640, Note_off_c, 1, 60, 0
2, 8680, Note_on_c, 1, 60, 127
2, 8760, Note_off_c, 1, 33, 0
2, 8760, Note_off_c, 1, 45, 0
2, 8760, Note_off_c, 1, 60, 0
2, 8800, Note_on_c, 1, 33, 127
2, 8800, Note_on_c, 1, 45, 127
2, 8800, Note_on_c, 1, 67, 127
2, 8920, Note_off_c, 1, 67, 0
2, 8960, Note_on_c, 1, 70, 127
2, 9040, Note_off_c, 1, 33, 0
2, 9040, Note_off_c, 1, 45, 0
2, 9040, Note_off_c, 1, 70, 0
2, 9080, Note_on_c, 1, 33, 127
2, 9080, Note_on_c, 1, 45, 127
2, 9080, Note_on_c, 1, 76, 127
2, 9120, Note_off_c, 1, 76, 0
2, 9240, Note_on_c, 1, 79, 127
2, 9280, Note_off_c, 1, 33, 0
2, 9280, Note_off_c, 1, 45, 0
2, 9280, Note_off_c, 1, 79, 0
2, 9280, Note_on_c, 1, 81, 127
2, 9320, Note_off_c, 1, 81, 0
2, 9400, Note_on_c, 1, 33, 127
2, 9400, Note_on_c, 1, 45, 127
2, 9400, Note_on_c, 1, 74, 127
2, 9480, Note_off_c, 1, 74, 0
2, 9520, Note_on_c, 1, 82, 127
2, 9640, Note_off_c, 1, 33, 0
2, 9640, Note_off_c, 1, 45, 0
2, 9640, Note_on_c, 1, 81, 127
2, 9640, Note_off_c, 1, 82, 0
2, 9680, Note_on_c, 1, 37, 127
2, 9680, Note_on_c, 1, 49, 127
2, 9680, Note_off_c, 1, 81, 0
2, 9680, Note_on_c, 1, 88, 127
2, 9720, Note_off_c, 1, 88, 0
2, 9760, Note_on_c, 1, 90, 127
2, 9800, Note_off_c, 1, 90, 0
2, 9840, Note_on_c, 1, 90, 127
2, 9880, Note_off_c, 1, 90, 0
2, 9920, Note_on_c, 1, 85, 127
2, 9960, Note_off_c, 1, 37, 0
2, 9960, Note_off_c, 1, 49, 0
2, 9960, Note_off_c, 1, 85, 0
2, 10000, Note_on_c, 1, 37, 127
2, 10000, Note_on_c, 1, 49, 127
2, 10000, Note_on_c, 1, 85, 127
2, 10040, Note_off_c, 1, 37, 0
2, 10040, Note_on_c, 1, 42, 127
2, 10040, Note_off_c, 1, 85, 0
2, 10080, Note_off_c, 1, 42, 0
2, 10080, Note_off_c, 1, 49, 0
2, 10080, Note_on_c, 1, 86, 127
2, 10120, Note_off_c, 1, 86, 0
2, 10160, Note_on_c, 1, 93, 127
2, 10200, Note_on_c, 1, 81, 127
2, 10200, Note_off_c, 1, 93, 0
2, 10240, Note_off_c, 1, 81, 0
2, 10280, Note_on_c, 1, 38, 127
2, 10280, Note_on_c, 1, 50, 127
2, 10280, Note_on_c, 1, 77, 127
2, 10280, Note_on_c, 1, 89, 127
2, 10560, Note_off_c, 1, 38, 0
2, 10560, Note_off_c, 1, 50, 0
2, 10560, Note_off_c, 1, 77, 0
2, 10560, Note_off_c, 1, 89, 0
2, 10600, Note_on_c, 1, 41, 127
2, 10600, Note_on_c, 1, 53, 127
2, 10600, Note_on_c, 1, 60, 127
2, 10600, Note_on_c, 1, 70, 127
2, 10600, Note_on_c, 1, 72, 127
2, 10640, Note_on_c, 1, 40, 127
2, 10640, Note_off_c, 1, 41, 0
2, 10640, Note_on_c, 1, 52, 127
2, 10640, Note_off_c, 1, 53, 0
2, 10640, Note_off_c, 1, 60, 0
2, 10640, Note_off_c, 1, 70, 0
2, 10640, Note_off_c, 1, 72, 0
2, 10720, Note_off_c, 1, 40, 0
2, 10720, Note_off_c, 1, 52, 0
2, 10800, Note_on_c, 1, 36, 127
2, 10800, Note_on_c, 1, 48, 127
2, 10800, Note_on_c, 1, 84, 127
2, 10800, Note_on_c, 1, 88, 127
2, 10800, Note_on_c, 1, 96, 127
2, 10880, Note_off_c, 1, 36, 0
2, 10880, Note_off_c, 1, 48, 0
2, 10880, Note_off_c, 1, 84, 0
2, 10880, Note_off_c, 1, 88, 0
2, 10880, Note_off_c, 1, 96, 0
2, 10920, Note_on_c, 1, 36, 127
2, 10920, Note_on_c, 1, 48, 127
2, 10920, Note_on_c, 1, 84, 127
2, 10920, Note_on_c, 1, 88, 127
2, 10920, Note_on_c, 1, 96, 127
2, 11040, Note_off_c, 1, 36, 0
2, 11040, Note_off_c, 1, 48, 0
2, 11040, Note_off_c, 1, 84, 0
2, 11040, Note_off_c, 1, 88, 0
2, 11040, Note_off_c, 1, 96, 0
2, 11080, Note_on_c, 1, 36, 127
2, 11080, Note_on_c, 1, 48, 127
2, 11080, Note_on_c, 1, 84, 127
2, 11080, Note_on_c, 1, 88, 127
2, 11080, Note_on_c, 1, 96, 127
2, 11160, Note_off_c, 1, 36, 0
2, 11160, Note_off_c, 1, 48, 0
2, 11160, Note_off_c, 1, 84, 0
2, 11160, Note_off_c, 1, 88, 0
2, 11160, Note_off_c, 1, 96, 0
2, 11240, Note_on_c, 1, 41, 127
2, 11240, Note_on_c, 1, 53, 127
2, 11240, Note_on_c, 1, 84, 127
2, 11240, Note_on_c, 1, 89, 127
2, 11240, Note_on_c, 1, 96, 127
2, 11280, Note_on_c, 1, 36, 127
2, 11280, Note_off_c, 1, 41, 0
2, 11280, Note_on_c, 1, 48, 127
2, 11280, Note_off_c, 1, 53, 0
2, 11280, Note_on_c, 1, 88, 127
2, 11280, Note_off_c, 1, 89, 0
2, 11320, Note_off_c, 1, 36, 0
2, 11320, Note_off_c, 1, 48, 0
2, 11320, Note_off_c, 1, 84, 0
2, 11320, Note_off_c, 1, 88, 0
2, 11320, Note_off_c, 1, 96, 0
2, 11360, Note_on_c, 1, 41, 127
2, 11360, Note_on_c, 1, 53, 127
2, 11360, Note_on_c, 1, 84, 127
2, 11360, Note_on_c, 1, 89, 127
2, 11360, Note_on_c, 1, 96, 127
2, 11400, Note_on_c, 1, 36, 127
2, 11400, Note_off_c, 1, 41, 0
2, 11400, Note_on_c, 1, 48, 127
2, 11400, Note_off_c, 1, 53, 0
2, 11400, Note_on_c, 1, 88, 127
2, 11400, Note_off_c, 1, 89, 0
2, 11440, Note_off_c, 1, 36, 0
2, 11440, Note_off_c, 1, 48, 0
2, 11440, Note_off_c, 1, 84, 0
2, 11440, Note_off_c, 1, 88, 0
2, 11440, Note_off_c, 1, 96, 0
2, 11520, Note_on_c, 1, 32, 127
2, 11520, Note_on_c, 1, 44, 127
2, 11520, Note_on_c, 1, 51, 127
2, 11520, Note_on_c, 1, 63, 127
2, 11640, Note_off_c, 1, 32, 0
2, 11640, Note_off_c, 1, 44, 0
2, 11640, Note_off_c, 1, 51, 0
2, 11640, Note_off_c, 1, 63, 0
2, 11680, Note_on_c, 1, 35, 127
2, 11680, Note_on_c, 1, 51, 127
2, 11680, Note_on_c, 1, 59, 127
2, 11680, Note_on_c, 1, 69, 127
2, 11760, Note_off_c, 1, 35, 0
2, 11760, Note_off_c, 1, 51, 0
2, 11760, Note_off_c, 1, 59, 0
2, 11760, Note_off_c, 1, 69, 0
2, 11800, Note_on_c, 1, 35, 127
2, 11800, Note_on_c, 1, 51, 127
2, 11800, Note_on_c, 1, 59, 127
2, 11800, Note_on_c, 1, 69, 127
2, 11920, Note_off_c, 1, 35, 0
2, 11920, Note_off_c, 1, 51, 0
2, 11920, Note_off_c, 1, 59, 0
2, 11920, Note_off_c, 1, 69, 0
2, 11960, Note_on_c, 1, 54, 127
2, 11960, Note_on_c, 1, 86, 127
2, 11960, Note_on_c, 1, 98, 127
2, 12000, Note_off_c, 1, 54, 0
2, 12040, Note_off_c, 1, 86, 0
2, 12040, Note_off_c, 1, 98, 0
2, 12120, Note_on_c, 1, 62, 127
2, 12120, Note_on_c, 1, 67, 127
2, 12120, Note_on_c, 1, 71, 127
2, 12120, Note_on_c, 1, 79, 127
2, 12120, Note_on_c, 1, 91, 127
2, 12200, Note_off_c, 1, 62, 0
2, 12200, Note_off_c, 1, 67, 0
2, 12200, Note_off_c, 1, 71, 0
2, 12200, Note_off_c, 1, 79, 0
2, 12200, Note_off_c, 1, 91, 0
2, 12280, Note_on_c, 1, 45, 127
2, 12280, Note_on_c, 1, 83, 127
2, 12280, Note_on_c, 1, 95, 127
2, 12360, Note_off_c, 1, 45, 0
2, 12360, Note_off_c, 1, 83, 0
2, 12360, Note_off_c, 1, 95, 0
2, 12400, Note_on_c, 1, 62, 127
2, 12400, Note_on_c, 1, 88, 127
2, 12400, Note_on_c, 1, 100, 127
2, 12520, Note_off_c, 1, 62, 0
2, 12520, Note_off_c, 1, 88, 0
2, 12520, Note_off_c, 1, 100, 0
2, 12560, Note_on_c, 1, 48, 127
2, 12560, Note_on_c, 1, 95, 127
2, 12600, Note_off_c, 1, 48, 0
2, 12600, Note_off_c, 1, 95, 0
2, 12760, Note_on_c, 1, 47, 127
2, 12760, Note_on_c, 1, 79, 127
2, 12760, Note_on_c, 1, 84, 127
2, 12800, Note_off_c, 1, 47, 0
2, 12800, Note_off_c, 1, 79, 0
2, 12800, Note_off_c, 1, 84, 0
2, 12880, Note_on_c, 1, 35, 127
2, 12880, Note_on_c, 1, 47, 127
2, 12880, Note_on_c, 1, 75, 127
2, 12880, Note_on_c, 1, 83, 127
2, 12880, Note_on_c, 1, 87, 127
2, 12920, Note_off_c, 1, 35, 0
2, 12920, Note_off_c, 1, 47, 0
2, 12920, Note_off_c, 1, 75, 0
2, 12920, Note_off_c, 1, 83, 0
2, 12920, Note_off_c, 1, 87, 0
2, 13040, Note_on_c, 1, 48, 127
2, 13040, Note_on_c, 1, 77, 127
2, 13040, Note_on_c, 1, 83, 127
2, 13040, Note_on_c, 1, 91, 127
2, 13080, Note_off_c, 1, 48, 0
2, 13080, Note_off_c, 1, 77, 0
2, 13080, Note_off_c, 1, 83, 0
2, 13080, Note_off_c, 1, 91, 0
2, 13200, Note_on_c, 1, 67, 127
2, 13200, Note_on_c, 1, 71, 127
2, 13200, Note_on_c, 1, 77, 127
2, 13200, Note_on_c, 1, 87, 127
2, 13200, Note_on_c, 1, 95, 127
2, 13200, Note_on_c, 1, 99, 127
2, 13240, Note_off_c, 1, 67, 0
2, 13240, Note_off_c, 1, 71, 0
2, 13240, Note_off_c, 1, 77, 0
2, 13240, Note_off_c, 1, 87, 0
2, 13240, Note_off_c, 1, 95, 0
2, 13240, Note_off_c, 1, 99, 0
2, 13320, Note_on_c, 1, 67, 127
2, 13320, Note_on_c, 1, 71, 127
2, 13320, Note_on_c, 1, 77, 127
2, 13320, Note_on_c, 1, 87, 127
2, 13320, Note_on_c, 1, 95, 127
2, 13320, Note_on_c, 1, 99, 127
2, 13360, Note_off_c, 1, 67, 0
2, 13360, Note_off_c, 1, 71, 0
2, 13360, Note_off_c, 1, 77, 0
2, 13360, Note_off_c, 1, 87, 0
2, 13360, Note_off_c, 1, 95, 0
2, 13360, Note_off_c, 1, 99, 0
2, 13480, Note_on_c, 1, 67, 127
2, 13480, Note_on_c, 1, 71, 127
2, 13480, Note_on_c, 1, 77, 127
2, 13480, Note_on_c, 1, 87, 127
2, 13480, Note_on_c, 1, 95, 127
2, 13480, Note_on_c, 1, 99, 127
2, 13520, Note_off_c, 1, 67, 0
2, 13520, Note_off_c, 1, 71, 0
2, 13520, Note_off_c, 1, 77, 0
2, 13520, Note_off_c, 1, 87, 0
2, 13520, Note_off_c, 1, 95, 0
2, 13520, Note_off_c, 1, 99, 0
2, 13640, Note_on_c, 1, 68, 127
2, 13640, Note_on_c, 1, 72, 127
2, 13640, Note_on_c, 1, 77, 127
2, 13640, Note_on_c, 1, 87, 127
2, 13640, Note_on_c, 1, 96, 127
2, 13640, Note_on_c, 1, 99, 127
2, 13680, Note_off_c, 1, 68, 0
2, 13680, Note_off_c, 1, 72, 0
2, 13680, Note_off_c, 1, 77, 0
2, 13680, Note_off_c, 1, 87, 0
2, 13680, Note_off_c, 1, 96, 0
2, 13680, Note_off_c, 1, 99, 0
2, 13760, Note_on_c, 1, 68, 127
2, 13760, Note_on_c, 1, 72, 127
2, 13760, Note_on_c, 1, 77, 127
2, 13760, Note_on_c, 1, 87, 127
2, 13760, Note_on_c, 1, 96, 127
2, 13760, Note_on_c, 1, 99, 127
2, 13800, Note_off_c, 1, 68, 0
2, 13800, Note_off_c, 1, 72, 0
2, 13800, Note_off_c, 1, 77, 0
2, 13800, Note_off_c, 1, 87, 0
2, 13800, Note_off_c, 1, 96, 0
2, 13800, Note_off_c, 1, 99, 0
2, 13920, Note_on_c, 1, 67, 127
2, 13920, Note_on_c, 1, 71, 127
2, 13920, Note_on_c, 1, 77, 127
2, 13920, Note_on_c, 1, 87, 127
2, 13920, Note_on_c, 1, 95, 127
2, 13920, Note_on_c, 1, 99, 127
2, 13960, Note_off_c, 1, 67, 0
2, 13960, Note_off_c, 1, 71, 0
2, 13960, Note_off_c, 1, 77, 0
2, 13960, Note_off_c, 1, 87, 0
2, 13960, Note_off_c, 1, 95, 0
2, 13960, Note_off_c, 1, 99, 0
2, 14080, Note_on_c, 1, 40, 127
2, 14080, Note_on_c, 1, 52, 127
2, 14080, Note_on_c, 1, 76, 127
2, 14080, Note_on_c, 1, 79, 127
2, 14080, Note_on_c, 1, 84, 127
2, 14080, Note_on_c, 1, 88, 127
2, 14120, Note_off_c, 1, 40, 0
2, 14120, Note_off_c, 1, 52, 0
2, 14120, Note_off_c, 1, 76, 0
2, 14120, Note_off_c, 1, 79, 0
2, 14120, Note_off_c, 1, 84, 0
2, 14120, Note_off_c, 1, 88, 0
2, 14200, Note_on_c, 1, 46, 127
2, 14200, Note_on_c, 1, 50, 127
2, 14200, Note_on_c, 1, 53, 127
2, 14200, Note_on_c, 1, 56, 127
2, 14200, Note_on_c, 1, 62, 127
2, 14200, Note_on_c, 1, 65, 127
2, 14240, Note_off_c, 1, 46, 0
2, 14240, Note_off_c, 1, 50, 0
2, 14240, Note_off_c, 1, 53, 0
2, 14240, Note_off_c, 1, 56, 0
2, 14240, Note_off_c, 1, 62, 0
2, 14240, Note_off_c, 1, 65, 0
2, 14360, Note_on_c, 1, 66, 127
2, 14360, Note_on_c, 1, 70, 127
2, 14360, Note_on_c, 1, 77, 127
2, 14360, Note_on_c, 1, 87, 127
2, 14360, Note_on_c, 1, 94, 127
2, 14360, Note_on_c, 1, 99, 127
2, 14400, Note_off_c, 1, 66, 0
2, 14400, Note_off_c, 1, 70, 0
2, 14400, Note_off_c, 1, 77, 0
2, 14400, Note_off_c, 1, 87, 0
2, 14400, Note_off_c, 1, 94, 0
2, 14400, Note_off_c, 1, 99, 0
2, 14520, Note_on_c, 1, 67, 127
2, 14520, Note_on_c, 1, 71, 127
2, 14520, Note_on_c, 1, 77, 127
2, 14520, Note_on_c, 1, 87, 127
2, 14520, Note_on_c, 1, 95, 127
2, 14520, Note_on_c, 1, 99, 127
2, 14560, Note_off_c, 1, 67, 0
2, 14560, Note_off_c, 1, 71, 0
2, 14560, Note_off_c, 1, 77, 0
2, 14560, Note_off_c, 1, 87, 0
2, 14560, Note_off_c, 1, 95, 0
2, 14560, Note_off_c, 1, 99, 0
2, 14640, Note_on_c, 1, 67, 127
2, 14640, Note_on_c, 1, 71, 127
2, 14640, Note_on_c, 1, 77, 127
2, 14640, Note_on_c, 1, 87, 127
2, 14640, Note_on_c, 1, 95, 127
2, 14640, Note_on_c, 1, 99, 127
2, 14680, Note_off_c, 1, 67, 0
2, 14680, Note_off_c, 1, 71, 0
2, 14680, Note_off_c, 1, 77, 0
2, 14680, Note_off_c, 1, 87, 0
2, 14680, Note_off_c, 1, 95, 0
2, 14680, Note_off_c, 1, 99, 0
2, 14840, Note_on_c, 1, 45, 127
2, 14840, Note_on_c, 1, 57, 127
2, 14840, Note_on_c, 1, 64, 127
2, 14840, Note_on_c, 1, 67, 127
2, 14840, Note_on_c, 1, 71, 127
2, 14880, Note_off_c, 1, 45, 0
2, 14880, Note_off_c, 1, 57, 0
2, 14880, Note_off_c, 1, 64, 0
2, 14880, Note_off_c, 1, 67, 0
2, 14880, Note_off_c, 1, 71, 0
2, 15000, Note_on_c, 1, 34, 127
2, 15000, Note_on_c, 1, 78, 127
2, 15000, Note_on_c, 1, 81, 127
2, 15000, Note_on_c, 1, 86, 127
2, 15000, Note_on_c, 1, 90, 127
2, 15040, Note_off_c, 1, 34, 0
2, 15040, Note_off_c, 1, 78, 0
2, 15040, Note_off_c, 1, 81, 0
2, 15040, Note_off_c, 1, 86, 0
2, 15040, Note_off_c, 1, 90, 0
2, 15160, Note_on_c, 1, 28, 127
2, 15160, Note_on_c, 1, 40, 127
2, 15160, Note_on_c, 1, 56, 127
2, 15160, Note_on_c, 1, 64, 127
2, 15160, Note_on_c, 1, 76, 127
2, 15200, Note_off_c, 1, 28, 0
2, 15200, Note_off_c, 1, 40, 0
2, 15200, Note_off_c, 1, 56, 0
2, 15200, Note_off_c, 1, 64, 0
2, 15200, Note_off_c, 1, 76, 0
2, 15280, Note_on_c, 1, 59, 127
2, 15280, Note_on_c, 1, 66, 127
2, 15280, Note_on_c, 1, 68, 127
2, 15280, Note_on_c, 1, 75, 127
2, 15280, Note_on_c, 1, 87, 127
2, 15320, Note_off_c, 1, 59, 0
2, 15320, Note_off_c, 1, 66, 0
2, 15320, Note_off_c, 1, 68, 0
2, 15320, Note_off_c, 1, 75, 0
2, 15320, Note_off_c, 1, 87, 0
2, 15440, Note_on_c, 1, 38, 127
2, 15440, Note_on_c, 1, 50, 127
2, 15440, Note_on_c, 1, 70, 127
2, 15440, Note_on_c, 1, 77, 127
2, 15440, Note_on_c, 1, 81, 127
2, 15680, Note_off_c, 1, 38, 0
2, 15680, Note_off_c, 1, 50, 0
2, 15680, Note_off_c, 1, 70, 0
2, 15680, Note_off_c, 1, 77, 0
2, 15680, Note_off_c, 1, 81, 0
2, 15720, Note_on_c, 1, 59, 127
2, 15720, Note_on_c, 1, 62, 127
2, 15720, Note_on_c, 1, 65, 127
2, 15720, Note_on_c, 1, 69, 127
2, 15720, Note_on_c, 1, 71, 127
2, 15720, Note_on_c, 1, 74, 127
2, 15720, Note_on_c, 1, 77, 127
2, 15720, Note_on_c, 1, 81, 127
2, 16000, Note_off_c, 1, 59, 0
2, 16000, Note_off_c, 1, 62, 0
2, 16000, Note_off_c, 1, 65, 0
2, 16000, Note_off_c, 1, 69, 0
2, 16000, Note_off_c, 1, 71, 0
2, 16000, Note_off_c, 1, 74, 0
2, 16000, Note_off_c, 1, 77, 0
2, 16000, Note_off_c, 1, 81, 0
2, 16040, Note_on_c, 1, 36, 127
2, 16040, Note_on_c, 1, 48, 127
2, 16040, Note_on_c, 1, 57, 127
2, 16040, Note_on_c, 1, 69, 127
2, 16080, Note_off_c, 1, 36, 0
2, 16080, Note_off_c, 1, 48, 0
2, 16080, Note_on_c, 1, 60, 127
2, 16080, Note_on_c, 1, 63, 127
2, 16080, Note_off_c, 1, 69, 0
2, 16080, Note_on_c, 1, 72, 127
2, 16080, Note_on_c, 1, 78, 127
2, 16080, Note_on_c, 1, 83, 127
2, 16120, Note_off_c, 1, 57, 0
2, 16120, Note_off_c, 1, 60, 0
2, 16120, Note_off_c, 1, 63, 0
2, 16120, Note_off_c, 1, 72, 0
2, 16120, Note_off_c, 1, 78, 0
2, 16120, Note_off_c, 1, 83, 0
2, 16160, Note_on_c, 1, 36, 127
2, 16160, Note_on_c, 1, 48, 127
2, 16160, Note_on_c, 1, 57, 127
2, 16160, Note_on_c, 1, 69, 127
2, 16280, Note_off_c, 1, 36, 0
2, 16280, Note_off_c, 1, 48, 0
2, 16280, Note_off_c, 1, 57, 0
2, 16280, Note_off_c, 1, 69, 0
2, 16600, Note_on_c, 1, 47, 127
2, 16600, Note_on_c, 1, 56, 127
2, 16600, Note_on_c, 1, 65, 127
2, 16600, Note_on_c, 1, 74, 127
2, 16760, Note_off_c, 1, 47, 0
2, 16760, Note_off_c, 1, 56, 0
2, 16760, Note_off_c, 1, 65, 0
2, 16760, Note_off_c, 1, 74, 0
2, 16800, Note_on_c, 1, 47, 127
2, 16800, Note_on_c, 1, 56, 127
2, 16800, Note_on_c, 1, 65, 127
2, 16800, Note_on_c, 1, 74, 127
2, 17040, Note_off_c, 1, 47, 0
2, 17040, Note_off_c, 1, 56, 0
2, 17040, Note_on_c, 1, 71, 127
2, 17040, Note_off_c, 1, 74, 0
2, 17080, Note_on_c, 1, 47, 127
2, 17080, Note_on_c, 1, 56, 127
2, 17080, Note_off_c, 1, 71, 0
2, 17080, Note_on_c, 1, 74, 127
2, 17200, Note_off_c, 1, 47, 0
2, 17200, Note_off_c, 1, 56, 0
2, 17200, Note_off_c, 1, 65, 0
2, 17200, Note_off_c, 1, 74, 0
2, 17240, Note_on_c, 1, 48, 127
2, 17240, Note_on_c, 1, 64, 127
2, 17240, Note_on_c, 1, 72, 127
2, 17480, Note_off_c, 1, 48, 0
2, 17480, Note_off_c, 1, 64, 0
2, 17480, Note_off_c, 1, 72, 0
2, 17520, Note_on_c, 1, 47, 127
2, 17520, Note_on_c, 1, 54, 127
2, 17520, Note_on_c, 1, 62, 127
2, 17520, Note_on_c, 1, 66, 127
2, 17520, Note_on_c, 1, 71, 127
2, 17640, Note_off_c, 1, 47, 0
2, 17640, Note_off_c, 1, 54, 0
2, 17640, Note_on_c, 1, 57, 127
2, 17640, Note_off_c, 1, 62, 0
2, 17640, Note_on_c, 1, 69, 127
2, 17640, Note_off_c, 1, 71, 0
2, 17680, Note_off_c, 1, 57, 0
2, 17680, Note_on_c, 1, 65, 127
2, 17680, Note_off_c, 1, 66, 0
2, 17680, Note_on_c, 1, 67, 127
2, 17680, Note_off_c, 1, 69, 0
2, 17680, Note_on_c, 1, 71, 127
2, 17680, Note_on_c, 1, 79, 127
2, 17800, Note_off_c, 1, 65, 0
2, 17800, Note_off_c, 1, 67, 0
2, 17800, Note_off_c, 1, 71, 0
2, 17800, Note_off_c, 1, 79, 0
2, 17840, Note_on_c, 1, 63, 127
2, 17840, Note_on_c, 1, 70, 127
2, 17840, Note_on_c, 1, 75, 127
2, 17840, Note_on_c, 1, 79, 127
2, 17960, Note_on_c, 1, 58, 127
2, 17960, Note_off_c, 1, 63, 0
2, 17960, Note_on_c, 1, 67, 127
2, 17960, Note_off_c, 1, 70, 0
2, 18080, Note_off_c, 1, 58, 0
2, 18080, Note_off_c, 1, 67, 0
2, 18080, Note_off_c, 1, 75, 0
2, 18080, Note_off_c, 1, 79, 0
2, 18120, Note_on_c, 1, 39, 127
2, 18120, Note_on_c, 1, 42, 127
2, 18120, Note_on_c, 1, 46, 127
2, 18120, Note_on_c, 1, 51, 127
2, 18120, Note_on_c, 1, 78, 127
2, 18120, Note_on_c, 1, 90, 127
2, 18160, Note_off_c, 1, 39, 0
2, 18160, Note_off_c, 1, 42, 0
2, 18160, Note_off_c, 1, 46, 0
2, 18160, Note_off_c, 1, 51, 0
2, 18160, Note_off_c, 1, 78, 0
2, 18160, Note_off_c, 1, 90, 0
2, 18280, Note_on_c, 1, 36, 127
2, 18280, Note_on_c, 1, 43, 127
2, 18280, Note_on_c, 1, 48, 127
2, 18280, Note_on_c, 1, 76, 127
2, 18280, Note_on_c, 1, 79, 127
2, 18280, Note_on_c, 1, 84, 127
2, 18280, Note_on_c, 1, 88, 127
2, 18360, Note_off_c, 1, 36, 0
2, 18360, Note_off_c, 1, 43, 0
2, 18360, Note_off_c, 1, 48, 0
2, 18360, Note_off_c, 1, 76, 0
2, 18360, Note_off_c, 1, 79, 0
2, 18360, Note_off_c, 1, 84, 0
2, 18360, Note_off_c, 1, 88, 0
2, 18440, Note_on_c, 1, 38, 127
2, 18440, Note_on_c, 1, 50, 127
2, 18440, Note_on_c, 1, 66, 127
2, 18440, Note_on_c, 1, 69, 127
2, 18440, Note_on_c, 1, 74, 127
2, 18440, Note_on_c, 1, 78, 127
2, 18840, Note_off_c, 1, 38, 0
2, 18840, Note_off_c, 1, 50, 0
2, 18840, Note_off_c, 1, 66, 0
2, 18840, Note_off_c, 1, 69, 0
2, 18840, Note_off_c, 1, 74, 0
2, 18840, Note_off_c, 1, 78, 0
2, 18880, Note_on_c, 1, 38, 127
2, 18880, Note_on_c, 1, 50, 127
2, 18880, Note_on_c, 1, 66, 127
2, 18880, Note_on_c, 1, 69, 127
2, 18880, Note_on_c, 1, 74, 127
2, 18880, Note_on_c, 1, 78, 127
2, 19040, Note_off_c, 1, 38, 0
2, 19040, Note_off_c, 1, 50, 0
2, 19040, Note_off_c, 1, 66, 0
2, 19040, Note_off_c, 1, 69, 0
2, 19040, Note_off_c, 1, 74, 0
2, 19040, Note_off_c, 1, 78, 0
2, 19080, Note_on_c, 1, 49, 127
2, 19080, Note_on_c, 1, 56, 127
2, 19080, Note_on_c, 1, 59, 127
2, 19080, Note_on_c, 1, 82, 127
2, 19480, Note_off_c, 1, 56, 0
2, 19480, Note_on_c, 1, 57, 127
2, 19480, Note_off_c, 1, 59, 0
2, 19480, Note_off_c, 1, 82, 0
2, 19520, Note_on_c, 1, 47, 127
2, 19520, Note_off_c, 1, 49, 0
2, 19520, Note_off_c, 1, 57, 0
2, 19520, Note_on_c, 1, 68, 127
2, 19520, Note_on_c, 1, 74, 127
2, 19520, Note_on_c, 1, 80, 127
2, 19640, Note_off_c, 1, 47, 0
2, 19640, Note_off_c, 1, 68, 0
2, 19640, Note_off_c, 1, 74, 0
2, 19640, Note_off_c, 1, 80, 0
2, 19680, Note_on_c, 1, 41, 127
2, 19680, Note_on_c, 1, 46, 127
2, 19680, Note_on_c, 1, 53, 127
2, 19680, Note_on_c, 1, 58, 127
2, 19680, Note_on_c, 1, 65, 127
2, 19920, Note_off_c, 1, 41, 0
2, 19920, Note_off_c, 1, 46, 0
2, 19920, Note_off_c, 1, 53, 0
2, 19920, Note_off_c, 1, 58, 0
2, 19920, Note_off_c, 1, 65, 0
2, 20560, Note_on_c, 1, 61, 127
2, 20560, Note_on_c, 1, 68, 127
2, 20560, Note_on_c, 1, 70, 127
2, 20560, Note_on_c, 1, 77, 127
2, 20560, Note_on_c, 1, 80, 127
2, 20560, Note_on_c, 1, 82, 127
2, 20960, Note_off_c, 1, 61, 0
2, 20960, Note_off_c, 1, 68, 0
2, 20960, Note_off_c, 1, 70, 0
2, 20960, Note_off_c, 1, 77, 0
2, 20960, Note_off_c, 1, 80, 0
2, 20960, Note_off_c, 1, 82, 0
2, 21000, Note_on_c, 1, 46, 127
2, 21000, Note_on_c, 1, 51, 127
2, 21000, Note_on_c, 1, 62, 127
2, 21000, Note_on_c, 1, 67, 127
2, 21120, Note_off_c, 1, 46, 0
2, 21120, Note_off_c, 1, 51, 0
2, 21120, Note_off_c, 1, 62, 0
2, 21120, Note_off_c, 1, 67, 0
2, 21200, Note_on_c, 1, 45, 127
2, 21200, Note_on_c, 1, 57, 127
2, 21200, Note_on_c, 1, 60, 127
2, 21200, Note_on_c, 1, 69, 127
2, 21200, Note_on_c, 1, 72, 127
2, 21440, Note_off_c, 1, 45, 0
2, 21440, Note_off_c, 1, 57, 0
2, 21440, Note_off_c, 1, 60, 0
2, 21440, Note_off_c, 1, 69, 0
2, 21440, Note_off_c, 1, 72, 0
2, 21760, Note_on_c, 1, 37, 127
2, 21760, Note_on_c, 1, 49, 127
2, 21760, Note_on_c, 1, 53, 127
2, 21760, Note_on_c, 1, 58, 127
2, 21760, Note_on_c, 1, 61, 127
2, 21880, Note_off_c, 1, 37, 0
2, 21880, Note_off_c, 1, 49, 0
2, 21880, Note_off_c, 1, 53, 0
2, 21880, Note_off_c, 1, 58, 0
2, 21880, Note_off_c, 1, 61, 0
2, 22080, Note_on_c, 1, 39, 127
2, 22080, Note_on_c, 1, 51, 127
2, 22080, Note_on_c, 1, 61, 127
2, 22080, Note_on_c, 1, 66, 127
2, 22080, Note_on_c, 1, 70, 127
2, 22080, Note_on_c, 1, 73, 127
2, 22080, Note_on_c, 1, 82, 127
2, 23280, Note_off_c, 1, 39, 0
2, 23280, Note_off_c, 1, 51, 0
2, 23280, Note_off_c, 1, 61, 0
2, 23280, Note_off_c, 1, 66, 0
2, 23280, Note_off_c, 1, 70, 0
2, 23280, Note_off_c, 1, 73, 0
2, 23280, Note_off_c, 1, 82, 0
2, 23320, Note_on_c, 1, 39, 127
2, 23320, Note_on_c, 1, 51, 127
2, 23320, Note_on_c, 1, 61, 127
2, 23320, Note_on_c, 1, 66, 127
2, 23320, Note_on_c, 1, 70, 127
2, 23320, Note_on_c, 1, 73, 127
2, 23320, Note_on_c, 1, 82, 127
2, 24480, Note_off_c, 1, 39, 0
2, 24480, Note_off_c, 1, 51, 0
2, 24480, Note_on_c, 1, 54, 127
2, 24480, Note_on_c, 1, 64, 127
2, 24480, Note_off_c, 1, 66, 0
2, 24480, Note_off_c, 1, 73, 0
2, 24480, Note_on_c, 1, 76, 127
2, 24480, Note_off_c, 1, 82, 0
2, 24520, Note_on_c, 1, 31, 127
2, 24520, Note_on_c, 1, 43, 127
2, 24520, Note_on_c, 1, 53, 127
2, 24520, Note_off_c, 1, 54, 0
2, 24520, Note_on_c, 1, 59, 127
2, 24520, Note_off_c, 1, 61, 0
2, 24520, Note_on_c, 1, 62, 127
2, 24520, Note_off_c, 1, 64, 0
2, 24520, Note_off_c, 1, 70, 0
2, 24520, Note_off_c, 1, 76, 0
2, 24560, Note_off_c, 1, 31, 0
2, 24560, Note_on_c, 1, 36, 127
2, 24560, Note_on_c, 1, 51, 127
2, 24560, Note_off_c, 1, 53, 0
2, 24560, Note_on_c, 1, 55, 127
2, 24560, Note_off_c, 1, 59, 0
2, 24560, Note_on_c, 1, 60, 127
2, 24560, Note_off_c, 1, 62, 0
2, 24800, Note_off_c, 1, 36, 0
2, 24800, Note_off_c, 1, 43, 0
2, 24800, Note_on_c, 1, 50, 127
2, 24800, Note_off_c, 1, 51, 0
2, 24800, Note_on_c, 1, 53, 127
2, 24800, Note_off_c, 1, 55, 0
2, 24800, Note_on_c, 1, 56, 127
2, 24800, Note_on_c, 1, 58, 127
2, 24800, Note_off_c, 1, 60, 0
2, 24800, Note_on_c, 1, 79, 127
2, 24840, Note_on_c, 1, 28, 127
2, 24840, Note_on_c, 1, 47, 127
2, 24840, Note_off_c, 1, 50, 0
2, 24840, Note_on_c, 1, 52, 127
2, 24840, Note_off_c, 1, 53, 0
2, 24840, Note_on_c, 1, 55, 127
2, 24840, Note_off_c, 1, 56, 0
2, 24840, Note_off_c, 1, 58, 0
2, 24840, Note_on_c, 1, 60, 127
2, 24840, Note_off_c, 1, 79, 0
2, 24880, Note_off_c, 1, 28, 0
2, 24880, Note_off_c, 1, 47, 0
2, 24880, Note_off_c, 1, 52, 0
2, 24880, Note_off_c, 1, 55, 0
2, 24880, Note_off_c, 1, 60, 0
2, 25200, Note_on_c, 1, 55, 127
2, 25240, Note_on_c, 1, 64, 127
2, 25240, Note_on_c, 1, 67, 127
2, 25360, Note_off_c, 1, 55, 0
2, 25360, Note_off_c, 1, 64, 0
2, 25360, Note_off_c, 1, 67, 0
2, 25400, Note_on_c, 1, 55, 127
2, 25400, Note_on_c, 1, 64, 127
2, 25400, Note_on_c, 1, 67, 127
2, 25520, Note_off_c, 1, 55, 0
2, 25560, Note_on_c, 1, 55, 127
2, 25560, Note_off_c, 1, 64, 0
2, 25560, Note_on_c, 1, 65, 127
2, 26120, Note_off_c, 1, 55, 0
2, 26120, Note_off_c, 1, 65, 0
2, 26120, Note_off_c, 1, 67, 0
2, 26200, Note_on_c, 1, 31, 127
2, 26200, Note_on_c, 1, 67, 127
2, 26200, Note_on_c, 1, 79, 127
2, 26760, Note_off_c, 1, 31, 0
2, 26760, Note_off_c, 1, 67, 0
2, 26760, Note_off_c, 1, 79, 0
2, 26800, Note_on_c, 1, 86, 127
2, 26840, Note_off_c, 1, 86, 0
2, 26880, Note_on_c, 1, 84, 127
2, 26960, Note_off_c, 1, 84, 0
2, 27000, Note_on_c, 1, 84, 127
2, 27040, Note_off_c, 1, 84, 0
2, 27080, Note_on_c, 1, 80, 127
2, 27120, Note_off_c, 1, 80, 0
2, 27160, Note_on_c, 1, 80, 127
2, 27240, Note_off_c, 1, 80, 0
2, 27280, Note_on_c, 1, 79, 127
2, 27320, Note_off_c, 1, 79, 0
2, 27360, Note_on_c, 1, 77, 127
2, 27440, Note_off_c, 1, 77, 0
2, 27480, Note_on_c, 1, 74, 127
2, 27520, Note_off_c, 1, 74, 0
2, 27560, Note_on_c, 1, 64, 127
2, 27560, Note_on_c, 1, 72, 127
2, 27880, Note_off_c, 1, 64, 0
2, 27880, Note_off_c, 1, 72, 0
2, 27920, Note_on_c, 1, 64, 127
2, 27920, Note_on_c, 1, 72, 127
2, 28000, Note_on_c, 1, 55, 127
2, 28120, Note_off_c, 1, 55, 0
2, 28120, Note_off_c, 1, 64, 0
2, 28120, Note_off_c, 1, 72, 0
2, 28160, Note_on_c, 1, 60, 127
2, 28160, Note_on_c, 1, 64, 127
2, 28280, Note_off_c, 1, 60, 0
2, 28280, Note_off_c, 1, 64, 0
2, 28320, Note_on_c, 1, 60, 127
2, 28400, Note_off_c, 1, 60, 0
2, 28440, Note_on_c, 1, 57, 127
2, 28440, Note_on_c, 1, 65, 127
2, 28560, Note_off_c, 1, 57, 0
2, 28560, Note_off_c, 1, 65, 0
2, 28600, Note_on_c, 1, 72, 127
2, 28720, Note_off_c, 1, 72, 0
2, 28760, Note_on_c, 1, 57, 127
2, 28760, Note_on_c, 1, 66, 127
2, 28840, Note_off_c, 1, 57, 0
2, 28840, Note_off_c, 1, 66, 0
2, 28880, Note_on_c, 1, 72, 127
2, 29000, Note_off_c, 1, 72, 0
2, 29040, Note_on_c, 1, 71, 127
2, 29160, Note_off_c, 1, 71, 0
2, 29200, Note_on_c, 1, 72, 127
2, 29280, Note_off_c, 1, 72, 0
2, 29320, Note_on_c, 1, 59, 127
2, 29320, Note_on_c, 1, 62, 127
2, 29600, Note_off_c, 1, 59, 0
2, 29600, Note_off_c, 1, 62, 0
2, 29640, Note_on_c, 1, 55, 127
2, 29640, Note_on_c, 1, 65, 127
2, 29720, Note_off_c, 1, 55, 0
2, 29720, Note_off_c, 1, 65, 0
2, 29760, Note_on_c, 1, 60, 127
2, 29880, Note_off_c, 1, 60, 0
2, 29920, Note_on_c, 1, 55, 127
2, 29920, Note_on_c, 1, 65, 127
2, 30040, Note_off_c, 1, 55, 0
2, 30040, Note_off_c, 1, 65, 0
2, 30120, Note_on_c, 1, 62, 127
2, 30200, Note_off_c, 1, 62, 0
2, 30240, Note_on_c, 1, 60, 127
2, 30240, Note_on_c, 1, 69, 127
2, 30360, Note_off_c, 1, 60, 0
2, 30360, Note_off_c, 1, 69, 0
2, 30400, Note_on_c, 1, 67, 127
2, 30520, Note_off_c, 1, 67, 0
2, 30560, Note_on_c, 1, 64, 127
2, 30560, Note_on_c, 1, 71, 127
2, 30640, Note_off_c, 1, 64, 0
2, 30640, Note_off_c, 1, 71, 0
2, 30680, Note_on_c, 1, 69, 127
2, 30800, Note_off_c, 1, 69, 0
2, 30840, Note_on_c, 1, 58, 127
2, 30960, Note_off_c, 1, 58, 0
2, 31000, Note_on_c, 1, 67, 127
2, 31120, Note_off_c, 1, 67, 0
2, 31160, Note_on_c, 1, 64, 127
2, 31240, Note_off_c, 1, 64, 0
2, 31280, Note_on_c, 1, 55, 127
2, 31280, Note_on_c, 1, 70, 127
2, 31400, Note_off_c, 1, 55, 0
2, 31400, Note_off_c, 1, 70, 0
2, 31440, Note_on_c, 1, 65, 127
2, 31440, Note_on_c, 1, 74, 127
2, 31560, Note_off_c, 1, 65, 0
2, 31560, Note_off_c, 1, 74, 0
2, 31600, Note_on_c, 1, 62, 127
2, 31600, Note_on_c, 1, 79, 127
2, 31720, Note_off_c, 1, 62, 0
2, 31720, Note_off_c, 1, 79, 0
2, 31760, Note_on_c, 1, 53, 127
2, 31840, Note_off_c, 1, 53, 0
2, 31880, Note_on_c, 1, 55, 127
2, 32000, Note_off_c, 1, 55, 0
2, 32040, Note_on_c, 1, 50, 127
2, 32040, Note_on_c, 1, 58, 127
2, 32040, Note_on_c, 1, 77, 127
2, 32160, Note_off_c, 1, 50, 0
2, 32160, Note_off_c, 1, 58, 0
2, 32160, Note_off_c, 1, 77, 0
2, 32200, Note_on_c, 1, 77, 127
2, 32240, Note_on_c, 1, 58, 127
2, 32240, Note_on_c, 1, 62, 127
2, 32320, Note_off_c, 1, 77, 0
2, 32360, Note_off_c, 1, 58, 0
2, 32360, Note_off_c, 1, 62, 0
2, 32360, Note_on_c, 1, 77, 127
2, 32400, Note_off_c, 1, 77, 0
2, 32400, Note_on_c, 1, 79, 127
2, 32480, Note_on_c, 1, 67, 127
2, 32640, Note_off_c, 1, 67, 0
2, 32680, Note_on_c, 1, 55, 127
2, 32680, Note_on_c, 1, 61, 127
2, 32680, Note_on_c, 1, 64, 127
2, 32680, Note_on_c, 1, 76, 127
2, 32680, Note_off_c, 1, 79, 0
2, 32800, Note_off_c, 1, 55, 0
2, 32800, Note_off_c, 1, 61, 0
2, 32800, Note_off_c, 1, 64, 0
2, 32800, Note_off_c, 1, 76, 0
2, 32800, Note_on_c, 1, 79, 127
2, 32840, Note_on_c, 1, 53, 127
2, 32960, Note_off_c, 1, 53, 0
2, 33000, Note_on_c, 1, 55, 127
2, 33000, Note_on_c, 1, 61, 127
2, 33000, Note_on_c, 1, 64, 127
2, 33000, Note_off_c, 1, 79, 0
2, 33000, Note_on_c, 1, 84, 127
2, 33120, Note_off_c, 1, 55, 0
2, 33120, Note_off_c, 1, 61, 0
2, 33120, Note_off_c, 1, 64, 0
2, 33120, Note_off_c, 1, 84, 0
2, 33160, Note_on_c, 1, 53, 127
2, 33160, Note_on_c, 1, 82, 127
2, 33240, Note_off_c, 1, 53, 0
2, 33280, Note_on_c, 1, 58, 127
2, 33280, Note_on_c, 1, 81, 127
2, 33280, Note_off_c, 1, 82, 0
2, 33400, Note_off_c, 1, 58, 0
2, 33440, Note_on_c, 1, 65, 127
2, 33560, Note_off_c, 1, 65, 0
2, 33560, Note_off_c, 1, 81, 0
2, 33600, Note_on_c, 1, 50, 127
2, 33600, Note_on_c, 1, 55, 127
2, 33600, Note_on_c, 1, 79, 127
2, 33680, Note_off_c, 1, 55, 0
2, 33720, Note_off_c, 1, 50, 0
2, 33720, Note_on_c, 1, 57, 127
2, 33720, Note_on_c, 1, 72, 127
2, 33720, Note_off_c, 1, 79, 0
2, 33720, Note_on_c, 1, 81, 127
2, 33840, Note_off_c, 1, 57, 0
2, 33840, Note_off_c, 1, 72, 0
2, 33840, Note_off_c, 1, 81, 0
2, 33880, Note_on_c, 1, 73, 127
2, 34000, Note_off_c, 1, 73, 0
2, 34040, Note_on_c, 1, 55, 127
2, 34040, Note_on_c, 1, 61, 127
2, 34040, Note_on_c, 1, 64, 127
2, 34120, Note_off_c, 1, 55, 0
2, 34120, Note_off_c, 1, 61, 0
2, 34120, Note_off_c, 1, 64, 0
2, 34160, Note_on_c, 1, 55, 127
2, 34160, Note_on_c, 1, 61, 127
2, 34160, Note_on_c, 1, 64, 127
2, 34200, Note_off_c, 1, 55, 0
2, 34200, Note_off_c, 1, 61, 0
2, 34200, Note_off_c, 1, 64, 0
2, 34240, Note_on_c, 1, 53, 127
2, 34240, Note_on_c, 1, 74, 127
2, 34360, Note_on_c, 1, 34, 127
2, 34360, Note_on_c, 1, 41, 127
2, 34360, Note_off_c, 1, 53, 0
2, 34360, Note_on_c, 1, 65, 127
2, 34360, Note_on_c, 1, 69, 127
2, 34360, Note_on_c, 1, 77, 127
2, 34400, Note_off_c, 1, 34, 0
2, 34400, Note_off_c, 1, 41, 0
2, 34400, Note_on_c, 1, 46, 127
2, 34400, Note_on_c, 1, 58, 127
2, 34400, Note_on_c, 1, 63, 127
2, 34400, Note_off_c, 1, 65, 0
2, 34400, Note_on_c, 1, 68, 127
2, 34400, Note_off_c, 1, 69, 0
2, 34400, Note_on_c, 1, 72, 127
2, 34400, Note_off_c, 1, 74, 0
2, 34400, Note_off_c, 1, 77, 0
2, 34440, Note_off_c, 1, 46, 0
2, 34440, Note_on_c, 1, 54, 127
2, 34440, Note_on_c, 1, 66, 127
2, 34440, Note_off_c, 1, 68, 0
2, 34440, Note_on_c, 1, 70, 127
2, 34440, Note_off_c, 1, 72, 0
2, 34440, Note_on_c, 1, 75, 127
2, 34440, Note_on_c, 1, 87, 127
2, 34480, Note_on_c, 1, 47, 127
2, 34480, Note_off_c, 1, 54, 0
2, 34480, Note_off_c, 1, 58, 0
2, 34480, Note_off_c, 1, 63, 0
2, 34480, Note_off_c, 1, 66, 0
2, 34480, Note_off_c, 1, 70, 0
2, 34480, Note_off_c, 1, 75, 0
2, 34480, Note_on_c, 1, 77, 127
2, 34480, Note_off_c, 1, 87, 0
2, 34480, Note_on_c, 1, 91, 127
2, 34520, Note_on_c, 1, 35, 127
2, 34520, Note_off_c, 1, 47, 0
2, 34520, Note_on_c, 1, 54, 127
2, 34520, Note_on_c, 1, 59, 127
2, 34520, Note_on_c, 1, 64, 127
2, 34520, Note_on_c, 1, 68, 127
2, 34520, Note_on_c, 1, 71, 127
2, 34520, Note_off_c, 1, 77, 0
2, 34520, Note_off_c, 1, 91, 0
2, 34560, Note_off_c, 1, 35, 0
2, 34560, Note_on_c, 1, 44, 127
2, 34560, Note_on_c, 1, 48, 127
2, 34560, Note_off_c, 1, 54, 0
2, 34560, Note_off_c, 1, 59, 0
2, 34560, Note_off_c, 1, 64, 0
2, 34560, Note_off_c, 1, 68, 0
2, 34560, Note_off_c, 1, 71, 0
2, 34560, Note_on_c, 1, 72, 127
2, 34560, Note_on_c, 1, 74, 127
2, 34560, Note_on_c, 1, 84, 127
2, 34600, Note_off_c, 1, 44, 0
2, 34600, Note_off_c, 1, 48, 0
2, 34600, Note_on_c, 1, 50, 127
2, 34600, Note_on_c, 1, 54, 127
2, 34600, Note_on_c, 1, 62, 127
2, 34600, Note_on_c, 1, 71, 127
2, 34600, Note_off_c, 1, 72, 0
2, 34600, Note_off_c, 1, 74, 0
2, 34600, Note_on_c, 1, 83, 127
2, 34600, Note_off_c, 1, 84, 0
2, 34640, Note_off_c, 1, 50, 0
2, 34640, Note_off_c, 1, 54, 0
2, 34640, Note_on_c, 1, 55, 127
2, 34640, Note_on_c, 1, 59, 127
2, 34640, Note_off_c, 1, 62, 0
2, 34640, Note_on_c, 1, 64, 127
2, 34640, Note_off_c, 1, 71, 0
2, 34640, Note_off_c, 1, 83, 0
2, 34680, Note_on_c, 1, 50, 127
2, 34680, Note_off_c, 1, 55, 0
2, 34680, Note_on_c, 1, 57, 127
2, 34680, Note_off_c, 1, 59, 0
2, 34680, Note_on_c, 1, 62, 127
2, 34680, Note_off_c, 1, 64, 0
2, 34680, Note_on_c, 1, 81, 127
2, 34760, Note_off_c, 1, 57, 0
2, 34760, Note_on_c, 1, 80, 127
2, 34760, Note_off_c, 1, 81, 0
2, 34800, Note_off_c, 1, 50, 0
2, 34800, Note_off_c, 1, 62, 0
2, 34800, Note_off_c, 1, 80, 0
2, 34840, Note_on_c, 1, 52, 127
2, 34840, Note_on_c, 1, 82, 127
2, 34960, Note_on_c, 1, 42, 127
2, 34960, Note_on_c, 1, 46, 127
2, 34960, Note_off_c, 1, 52, 0
2, 34960, Note_on_c, 1, 60, 127
2, 34960, Note_off_c, 1, 82, 0
2, 35000, Note_off_c, 1, 60, 0
2, 35000, Note_on_c, 1, 73, 127
2, 35040, Note_on_c, 1, 60, 127
2, 35040, Note_off_c, 1, 73, 0
2, 35080, Note_off_c, 1, 42, 0
2, 35080, Note_off_c, 1, 46, 0
2, 35080, Note_off_c, 1, 60, 0
2, 35080, Note_on_c, 1, 82, 127
2, 35120, Note_on_c, 1, 50, 127
2, 35120, Note_on_c, 1, 54, 127
2, 35120, Note_on_c, 1, 81, 127
2, 35120, Note_off_c, 1, 82, 0
2, 35200, Note_off_c, 1, 50, 0
2, 35200, Note_off_c, 1, 54, 0
2, 35200, Note_off_c, 1, 81, 0
2, 35240, Note_on_c, 1, 81, 127
2, 35400, Note_off_c, 1, 81, 0
2, 35440, Note_on_c, 1, 50, 127
2, 35440, Note_on_c, 1, 77, 127
2, 35520, Note_off_c, 1, 50, 0
2, 35520, Note_off_c, 1, 77, 0
2, 35560, Note_on_c, 1, 76, 127
2, 35680, Note_off_c, 1, 76, 0
2, 35720, Note_on_c, 1, 74, 127
2, 35840, Note_off_c, 1, 74, 0
2, 35920, Note_on_c, 1, 72, 127
2, 36000, Note_on_c, 1, 69, 127
2, 36000, Note_off_c, 1, 72, 0
2, 36040, Note_on_c, 1, 45, 127
2, 36040, Note_off_c, 1, 69, 0
2, 36120, Note_off_c, 1, 45, 0
2, 36160, Note_on_c, 1, 45, 127
2, 36160, Note_on_c, 1, 65, 127
2, 36200, Note_off_c, 1, 65, 0
2, 36240, Note_on_c, 1, 65, 127
2, 36360, Note_on_c, 1, 53, 127
2, 36360, Note_on_c, 1, 62, 127
2, 36360, Note_off_c, 1, 65, 0
2, 36360, Note_on_c, 1, 69, 127
2, 36480, Note_off_c, 1, 53, 0
2, 36480, Note_off_c, 1, 62, 0
2, 36480, Note_off_c, 1, 69, 0
2, 36520, Note_off_c, 1, 45, 0
2, 36520, Note_on_c, 1, 46, 127
2, 36520, Note_on_c, 1, 53, 127
2, 36520, Note_on_c, 1, 73, 127
2, 36600, Note_off_c, 1, 46, 0
2, 36600, Note_off_c, 1, 53, 0
2, 36600, Note_on_c, 1, 72, 127
2, 36600, Note_off_c, 1, 73, 0
2, 36600, Note_on_c, 1, 79, 127
2, 36600, Note_on_c, 1, 84, 127
2, 36600, Note_on_c, 1, 88, 127
2, 36600, Note_on_c, 1, 91, 127
2, 36600, Note_on_c, 1, 100, 127
2, 36640, Note_on_c, 1, 46, 127
2, 36640, Note_on_c, 1, 53, 127
2, 36640, Note_off_c, 1, 72, 0
2, 36640, Note_on_c, 1, 73, 127
2, 36640, Note_off_c, 1, 79, 0
2, 36640, Note_off_c, 1, 84, 0
2, 36640, Note_off_c, 1, 88, 0
2, 36640, Note_off_c, 1, 91, 0
2, 36640, Note_off_c, 1, 100, 0
2, 36680, Note_off_c, 1, 46, 0
2, 36680, Note_off_c, 1, 53, 0
2, 36680, Note_on_c, 1, 57, 127
2, 36680, Note_on_c, 1, 61, 127
2, 36680, Note_on_c, 1, 67, 127
2, 36680, Note_on_c, 1, 69, 127
2, 36680, Note_on_c, 1, 79, 127
2, 36680, Note_on_c, 1, 82, 127
2, 36800, Note_on_c, 1, 45, 127
2, 36800, Note_on_c, 1, 49, 127
2, 36800, Note_off_c, 1, 57, 0
2, 36800, Note_off_c, 1, 61, 0
2, 36800, Note_off_c, 1, 67, 0
2, 36800, Note_off_c, 1, 69, 0
2, 36800, Note_off_c, 1, 73, 0
2, 36800, Note_off_c, 1, 79, 0
2, 36800, Note_off_c, 1, 82, 0
2, 36840, Note_off_c, 1, 45, 0
2, 36840, Note_off_c, 1, 49, 0
2, 36840, Note_on_c, 1, 50, 127
2, 36840, Note_on_c, 1, 57, 127
2, 36840, Note_on_c, 1, 69, 127
2, 36840, Note_on_c, 1, 74, 127
2, 36840, Note_on_c, 1, 77, 127
2, 36920, Note_off_c, 1, 57, 0
2, 36920, Note_off_c, 1, 77, 0
2, 36960, Note_on_c, 1, 32, 127
2, 36960, Note_on_c, 1, 38, 127
2, 36960, Note_on_c, 1, 44, 127
2, 36960, Note_off_c, 1, 50, 0
2, 36960, Note_off_c, 1, 69, 0
2, 36960, Note_on_c, 1, 71, 127
2, 36960, Note_off_c, 1, 74, 0
2, 37000, Note_off_c, 1, 32, 0
2, 37000, Note_off_c, 1, 44, 0
2, 37000, Note_on_c, 1, 54, 127
2, 37000, Note_on_c, 1, 60, 127
2, 37000, Note_on_c, 1, 64, 127
2, 37040, Note_off_c, 1, 38, 0
2, 37040, Note_off_c, 1, 54, 0
2, 37040, Note_off_c, 1, 60, 0
2, 37040, Note_off_c, 1, 64, 0
2, 37040, Note_on_c, 1, 70, 127
2, 37040, Note_off_c, 1, 71, 0
2, 37040, Note_on_c, 1, 72, 127
2, 37040, Note_on_c, 1, 78, 127
2, 37040, Note_on_c, 1, 87, 127
2, 37040, Note_on_c, 1, 89, 127
2, 37040, Note_on_c, 1, 93, 127
2, 37080, Note_off_c, 1, 70, 0
2, 37080, Note_off_c, 1, 72, 0
2, 37080, Note_off_c, 1, 78, 0
2, 37080, Note_off_c, 1, 87, 0
2, 37080, Note_off_c, 1, 89, 0
2, 37080, Note_off_c, 1, 93, 0
2, 37120, Note_on_c, 1, 69, 127
2, 37120, Note_on_c, 1, 74, 127
2, 37240, Note_off_c, 1, 69, 0
2, 37240, Note_off_c, 1, 74, 0
2, 37280, Note_on_c, 1, 62, 127
2, 37400, Note_off_c, 1, 62, 0
2, 37440, Note_on_c, 1, 50, 127
2, 37440, Note_on_c, 1, 69, 127
2, 37520, Note_off_c, 1, 50, 0
2, 37520, Note_off_c, 1, 69, 0
2, 37560, Note_on_c, 1, 62, 127
2, 37560, Note_on_c, 1, 69, 127
2, 37680, Note_off_c, 1, 62, 0
2, 37680, Note_off_c, 1, 69, 0
2, 37720, Note_on_c, 1, 56, 127
2, 37720, Note_on_c, 1, 64, 127
2, 37720, Note_on_c, 1, 71, 127
2, 37840, Note_off_c, 1, 56, 0
2, 37840, Note_off_c, 1, 71, 0
2, 37880, Note_on_c, 1, 62, 127
2, 37880, Note_off_c, 1, 64, 0
2, 37880, Note_on_c, 1, 67, 127
2, 38000, Note_off_c, 1, 62, 0
2, 38000, Note_off_c, 1, 67, 0
2, 38080, Note_on_c, 1, 54, 127
2, 38080, Note_on_c, 1, 66, 127
2, 38160, Note_off_c, 1, 54, 0
2, 38160, Note_off_c, 1, 66, 0
2, 38200, Note_on_c, 1, 50, 127
2, 38200, Note_on_c, 1, 69, 127
2, 38320, Note_off_c, 1, 50, 0
2, 38320, Note_off_c, 1, 69, 0
2, 38360, Note_on_c, 1, 54, 127
2, 38360, Note_on_c, 1, 62, 127
2, 38480, Note_off_c, 1, 54, 0
2, 38480, Note_off_c, 1, 62, 0
2, 38520, Note_on_c, 1, 55, 127
2, 38640, Note_off_c, 1, 55, 0
2, 38680, Note_on_c, 1, 50, 127
2, 38680, Note_on_c, 1, 57, 127
2, 38760, Note_off_c, 1, 50, 0
2, 38760, Note_off_c, 1, 57, 0
2, 38800, Note_on_c, 1, 43, 127
2, 38800, Note_on_c, 1, 62, 127
2, 38920, Note_off_c, 1, 43, 0
2, 38920, Note_off_c, 1, 62, 0
2, 38960, Note_on_c, 1, 38, 127
2, 38960, Note_on_c, 1, 60, 127
2, 39080, Note_off_c, 1, 38, 0
2, 39240, Note_off_c, 1, 60, 0
2, 39280, Note_on_c, 1, 62, 127
2, 39840, Note_off_c, 1, 62, 0
2, 39880, Note_on_c, 1, 50, 127
2, 40080, Note_off_c, 1, 50, 0
2, 40120, Note_on_c, 1, 50, 127
2, 40160, Note_off_c, 1, 50, 0
2, 40200, Note_on_c, 1, 50, 127
2, 40320, Note_off_c, 1, 50, 0
2, 40360, Note_on_c, 1, 42, 127
2, 40480, Note_off_c, 1, 42, 0
2, 40520, Note_on_c, 1, 45, 127
2, 40800, Note_on_c, 1, 64, 127
2, 40920, Note_off_c, 1, 64, 0
2, 40960, Note_on_c, 1, 55, 127
2, 41080, Note_off_c, 1, 45, 0
2, 41080, Note_off_c, 1, 55, 0
2, 41120, Note_on_c, 1, 38, 127
2, 41120, Note_on_c, 1, 66, 127
2, 41360, Note_off_c, 1, 66, 0
2, 41400, Note_on_c, 1, 57, 127
2, 41520, Note_off_c, 1, 57, 0
2, 41560, Note_on_c, 1, 50, 127
2, 41680, Note_off_c, 1, 38, 0
2, 41680, Note_off_c, 1, 50, 0
2, 41720, Note_on_c, 1, 54, 127
2, 41840, Note_off_c, 1, 54, 0
2, 41880, Note_on_c, 1, 50, 127
2, 41960, Note_off_c, 1, 50, 0
2, 42000, Note_on_c, 1, 55, 127
2, 42000, Note_on_c, 1, 58, 127
2, 42000, Note_on_c, 1, 61, 127
2, 42120, Note_off_c, 1, 55, 0
2, 42120, Note_off_c, 1, 58, 0
2, 42120, Note_off_c, 1, 61, 0
2, 42160, Note_on_c, 1, 55, 127
2, 42160, Note_on_c, 1, 58, 127
2, 42160, Note_on_c, 1, 61, 127
2, 42320, Note_off_c, 1, 55, 0
2, 42320, Note_off_c, 1, 58, 0
2, 42320, Note_off_c, 1, 61, 0
2, 42360, Note_on_c, 1, 53, 127
2, 42480, Note_off_c, 1, 53, 0
2, 42520, Note_on_c, 1, 59, 127
2, 42640, Note_off_c, 1, 59, 0
2, 42680, Note_on_c, 1, 33, 127
2, 42680, Note_on_c, 1, 45, 127
2, 42680, Note_on_c, 1, 52, 127
2, 42680, Note_on_c, 1, 57, 127
2, 42680, Note_on_c, 1, 61, 127
2, 42840, Note_off_c, 1, 33, 0
2, 42920, Note_off_c, 1, 45, 0
2, 42960, Note_on_c, 1, 45, 127
2, 43240, Note_off_c, 1, 45, 0
2, 43240, Note_off_c, 1, 52, 0
2, 43240, Note_off_c, 1, 57, 0
2, 43240, Note_off_c, 1, 61, 0
2, 43280, Note_on_c, 1, 38, 127
2, 43280, Note_on_c, 1, 62, 127
2, 43360, Note_off_c, 1, 38, 0
2, 43440, Note_on_c, 1, 69, 127
2, 43520, Note_off_c, 1, 69, 0
2, 43560, Note_on_c, 1, 69, 127
2, 43680, Note_off_c, 1, 69, 0
2, 43720, Note_on_c, 1, 82, 127
2, 43840, Note_off_c, 1, 62, 0
2, 43840, Note_off_c, 1, 82, 0
2, 43880, Note_on_c, 1, 31, 127
2, 43880, Note_on_c, 1, 67, 127
2, 43960, Note_off_c, 1, 31, 0
2, 44000, Note_on_c, 1, 62, 127
2, 44000, Note_off_c, 1, 67, 0
2, 44000, Note_on_c, 1, 93, 127
2, 44120, Note_off_c, 1, 62, 0
2, 44120, Note_off_c, 1, 93, 0
2, 44160, Note_on_c, 1, 30, 127
2, 44160, Note_on_c, 1, 59, 127
2, 44160, Note_on_c, 1, 62, 127
2, 44160, Note_on_c, 1, 71, 127
2, 44240, Note_off_c, 1, 30, 0
2, 44240, Note_off_c, 1, 59, 0
2, 44240, Note_off_c, 1, 62, 0
2, 44240, Note_off_c, 1, 71, 0
2, 44280, Note_on_c, 1, 30, 127
2, 44280, Note_on_c, 1, 59, 127
2, 44280, Note_on_c, 1, 62, 127
2, 44280, Note_on_c, 1, 71, 127
2, 44320, Note_off_c, 1, 30, 0
2, 44320, Note_on_c, 1, 42, 127
2, 44360, Note_on_c, 1, 40, 127
2, 44360, Note_off_c, 1, 42, 0
2, 44360, Note_on_c, 1, 50, 127
2, 44360, Note_on_c, 1, 54, 127
2, 44360, Note_off_c, 1, 59, 0
2, 44360, Note_off_c, 1, 71, 0
2, 44400, Note_off_c, 1, 40, 0
2, 44400, Note_off_c, 1, 50, 0
2, 44400, Note_off_c, 1, 54, 0
2, 44400, Note_on_c, 1, 57, 127
2, 44400, Note_off_c, 1, 62, 0
2, 44400, Note_on_c, 1, 66, 127
2, 44400, Note_on_c, 1, 81, 127
2, 44400, Note_on_c, 1, 84, 127
2, 44440, Note_on_c, 1, 39, 127
2, 44440, Note_off_c, 1, 57, 0
2, 44440, Note_on_c, 1, 64, 127
2, 44440, Note_off_c, 1, 66, 0
2, 44440, Note_on_c, 1, 74, 127
2, 44440, Note_off_c, 1, 81, 0
2, 44440, Note_off_c, 1, 84, 0
2, 44480, Note_off_c, 1, 39, 0
2, 44480, Note_on_c, 1, 50, 127
2, 44480, Note_on_c, 1, 54, 127
2, 44480, Note_on_c, 1, 62, 127
2, 44480, Note_off_c, 1, 64, 0
2, 44480, Note_off_c, 1, 74, 0
2, 44520, Note_on_c, 1, 45, 127
2, 44520, Note_off_c, 1, 50, 0
2, 44520, Note_on_c, 1, 57, 127
2, 44520, Note_on_c, 1, 61, 127
2, 44520, Note_off_c, 1, 62, 0
2, 44640, Note_off_c, 1, 45, 0
2, 44640, Note_off_c, 1, 54, 0
2, 44640, Note_off_c, 1, 57, 0
2, 44640, Note_off_c, 1, 61, 0
2, 44680, Note_on_c, 1, 62, 127
2, 44800, Note_off_c, 1, 62, 0
2, 44840, Note_on_c, 1, 38, 127
2, 44840, Note_on_c, 1, 45, 127
2, 44840, Note_on_c, 1, 54, 127
2, 44840, Note_on_c, 1, 62, 127
2, 45080, Note_off_c, 1, 38, 0
2, 45080, Note_off_c, 1, 45, 0
2, 45080, Note_off_c, 1, 54, 0
2, 45080, Note_off_c, 1, 62, 0
2, 46320, Note_on_c, 1, 57, 127
2, 46320, Note_on_c, 1, 66, 127
2, 46320, Note_on_c, 1, 90, 127
2, 46320, Note_on_c, 1, 93, 127
2, 46360, Note_on_c, 1, 39, 127
2, 46360, Note_on_c, 1, 51, 127
2, 46360, Note_off_c, 1, 57, 0
2, 46360, Note_off_c, 1, 66, 0
2, 46360, Note_on_c, 1, 67, 127
2, 46360, Note_on_c, 1, 70, 127
2, 46360, Note_on_c, 1, 73, 127
2, 46360, Note_on_c, 1, 75, 127
2, 46360, Note_on_c, 1, 79, 127
2, 46360, Note_off_c, 1, 90, 0
2, 46360, Note_off_c, 1, 93, 0
2, 46400, Note_off_c, 1, 39, 0
2, 46400, Note_off_c, 1, 51, 0
2, 46400, Note_off_c, 1, 67, 0
2, 46400, Note_off_c, 1, 70, 0
2, 46400, Note_off_c, 1, 73, 0
2, 46400, Note_off_c, 1, 75, 0
2, 46400, Note_off_c, 1, 79, 0
2, 46440, Note_on_c, 1, 46, 127
2, 46440, Note_on_c, 1, 58, 127
2, 46440, Note_on_c, 1, 62, 127
2, 46440, Note_on_c, 1, 67, 127
2, 46440, Note_on_c, 1, 70, 127
2, 46480, Note_off_c, 1, 46, 0
2, 46480, Note_off_c, 1, 58, 0
2, 46480, Note_off_c, 1, 62, 0
2, 46480, Note_off_c, 1, 67, 0
2, 46480, Note_off_c, 1, 70, 0
2, 46480, Note_on_c, 1, 76, 127
2, 46480, Note_on_c, 1, 85, 127
2, 46480, Note_on_c, 1, 100, 127
2, 46520, Note_off_c, 1, 76, 0
2, 46520, Note_off_c, 1, 85, 0
2, 46520, Note_off_c, 1, 100, 0
2, 46600, Note_on_c, 1, 41, 127
2, 46600, Note_on_c, 1, 53, 127
2, 46600, Note_on_c, 1, 89, 127
2, 46600, Note_on_c, 1, 93, 127
2, 46600, Note_on_c, 1, 101, 127
2, 46680, Note_off_c, 1, 41, 0
2, 46680, Note_off_c, 1, 53, 0
2, 46680, Note_off_c, 1, 89, 0
2, 46680, Note_off_c, 1, 93, 0
2, 46680, Note_off_c, 1, 101, 0
2, 46720, Note_on_c, 1, 57, 127
2, 46720, Note_on_c, 1, 87, 127
2, 46720, Note_on_c, 1, 90, 127
2, 46760, Note_off_c, 1, 57, 0
2, 46760, Note_off_c, 1, 87, 0
2, 46760, Note_off_c, 1, 90, 0
2, 47240, Note_on_c, 1, 70, 127
2, 47240, Note_on_c, 1, 73, 127
2, 47240, Note_on_c, 1, 82, 127
2, 47240, Note_on_c, 1, 94, 127
2, 47240, Note_on_c, 1, 97, 127
2, 47280, Note_on_c, 1, 38, 127
2, 47280, Note_on_c, 1, 50, 127
2, 47280, Note_off_c, 1, 70, 0
2, 47280, Note_off_c, 1, 73, 0
2, 47280, Note_on_c, 1, 78, 127
2, 47280, Note_on_c, 1, 81, 127
2, 47280, Note_off_c, 1, 82, 0
2, 47280, Note_on_c, 1, 90, 127
2, 47280, Note_off_c, 1, 94, 0
2, 47280, Note_off_c, 1, 97, 0
2, 47320, Note_off_c, 1, 38, 0
2, 47320, Note_off_c, 1, 50, 0
2, 47320, Note_off_c, 1, 78, 0
2, 47320, Note_off_c, 1, 81, 0
2, 47320, Note_off_c, 1, 90, 0
2, 47520, Note_on_c, 1, 48, 127
2, 47520, Note_on_c, 1, 60, 127
2, 47520, Note_on_c, 1, 78, 127
2, 47520, Note_on_c, 1, 81, 127
2, 47520, Note_on_c, 1, 87, 127
2, 47520, Note_on_c, 1, 90, 127
2, 47640, Note_off_c, 1, 48, 0
2, 47640, Note_off_c, 1, 60, 0
2, 47640, Note_off_c, 1, 78, 0
2, 47640, Note_off_c, 1, 81, 0
2, 47640, Note_off_c, 1, 87, 0
2, 47640, Note_off_c, 1, 90, 0
2, 47680, Note_on_c, 1, 47, 127
2, 47680, Note_on_c, 1, 57, 127
2, 47680, Note_on_c, 1, 62, 127
2, 47680, Note_on_c, 1, 68, 127
2, 47680, Note_on_c, 1, 71, 127
2, 47760, Note_off_c, 1, 47, 0
2, 47760, Note_off_c, 1, 57, 0
2, 47760, Note_off_c, 1, 62, 0
2, 47760, Note_off_c, 1, 68, 0
2, 47760, Note_off_c, 1, 71, 0
2, 47840, Note_on_c, 1, 64, 127
2, 47840, Note_on_c, 1, 68, 127
2, 47840, Note_on_c, 1, 76, 127
2, 47840, Note_on_c, 1, 88, 127
2, 47840, Note_on_c, 1, 92, 127
2, 47920, Note_off_c, 1, 64, 0
2, 47920, Note_off_c, 1, 68, 0
2, 47920, Note_off_c, 1, 76, 0
2, 47920, Note_off_c, 1, 88, 0
2, 47920, Note_off_c, 1, 92, 0
2, 47960, Note_on_c, 1, 64, 127
2, 47960, Note_on_c, 1, 68, 127
2, 47960, Note_on_c, 1, 76, 127
2, 47960, Note_on_c, 1, 88, 127
2, 47960, Note_on_c, 1, 92, 127
2, 48080, Note_off_c, 1, 64, 0
2, 48080, Note_off_c, 1, 68, 0
2, 48080, Note_off_c, 1, 76, 0
2, 48080, Note_off_c, 1, 88, 0
2, 48080, Note_off_c, 1, 92, 0
2, 48120, Note_on_c, 1, 64, 127
2, 48120, Note_on_c, 1, 68, 127
2, 48120, Note_on_c, 1, 76, 127
2, 48120, Note_on_c, 1, 88, 127
2, 48120, Note_on_c, 1, 92, 127
2, 48240, Note_off_c, 1, 64, 0
2, 48240, Note_off_c, 1, 68, 0
2, 48240, Note_off_c, 1, 76, 0
2, 48240, Note_off_c, 1, 88, 0
2, 48240, Note_off_c, 1, 92, 0
2, 48280, Note_on_c, 1, 64, 127
2, 48280, Note_on_c, 1, 68, 127
2, 48280, Note_on_c, 1, 76, 127
2, 48280, Note_on_c, 1, 88, 127
2, 48280, Note_on_c, 1, 92, 127
2, 48400, Note_off_c, 1, 64, 0
2, 48400, Note_off_c, 1, 68, 0
2, 48400, Note_off_c, 1, 76, 0
2, 48400, Note_off_c, 1, 88, 0
2, 48400, Note_off_c, 1, 92, 0
2, 48440, Note_on_c, 1, 64, 127
2, 48440, Note_on_c, 1, 68, 127
2, 48440, Note_on_c, 1, 76, 127
2, 48440, Note_on_c, 1, 88, 127
2, 48440, Note_on_c, 1, 92, 127
2, 48520, Note_off_c, 1, 64, 0
2, 48520, Note_off_c, 1, 68, 0
2, 48520, Note_off_c, 1, 76, 0
2, 48520, Note_off_c, 1, 88, 0
2, 48520, Note_off_c, 1, 92, 0
2, 48560, Note_on_c, 1, 64, 127
2, 48560, Note_on_c, 1, 68, 127
2, 48560, Note_on_c, 1, 76, 127
2, 48560, Note_on_c, 1, 88, 127
2, 48560, Note_on_c, 1, 92, 127
2, 48680, Note_off_c, 1, 64, 0
2, 48680, Note_off_c, 1, 68, 0
2, 48680, Note_off_c, 1, 76, 0
2, 48680, Note_off_c, 1, 88, 0
2, 48680, Note_off_c, 1, 92, 0
2, 48720, Note_on_c, 1, 64, 127
2, 48720, Note_on_c, 1, 68, 127
2, 48720, Note_on_c, 1, 76, 127
2, 48720, Note_on_c, 1, 88, 127
2, 48720, Note_on_c, 1, 92, 127
2, 48840, Note_off_c, 1, 64, 0
2, 48840, Note_off_c, 1, 68, 0
2, 48840, Note_off_c, 1, 76, 0
2, 48840, Note_off_c, 1, 88, 0
2, 48840, Note_off_c, 1, 92, 0
2, 48880, Note_on_c, 1, 39, 127
2, 48880, Note_on_c, 1, 43, 127
2, 48880, Note_on_c, 1, 51, 127
2, 49000, Note_off_c, 1, 39, 0
2, 49000, Note_off_c, 1, 43, 0
2, 49000, Note_off_c, 1, 51, 0
2, 49080, Note_on_c, 1, 66, 127
2, 49080, Note_on_c, 1, 72, 127
2, 49080, Note_on_c, 1, 75, 127
2, 49080, Note_on_c, 1, 87, 127
2, 49080, Note_on_c, 1, 99, 127
2, 49160, Note_off_c, 1, 66, 0
2, 49160, Note_off_c, 1, 72, 0
2, 49160, Note_off_c, 1, 75, 0
2, 49160, Note_off_c, 1, 87, 0
2, 49160, Note_off_c, 1, 99, 0
2, 49200, Note_on_c, 1, 39, 127
2, 49200, Note_on_c, 1, 49, 127
2, 49200, Note_on_c, 1, 51, 127
2, 49200, Note_on_c, 1, 70, 127
2, 49200, Note_on_c, 1, 73, 127
2, 49200, Note_on_c, 1, 75, 127
2, 49240, Note_off_c, 1, 39, 0
2, 49240, Note_on_c, 1, 41, 127
2, 49240, Note_on_c, 1, 46, 127
2, 49240, Note_off_c, 1, 49, 0
2, 49240, Note_off_c, 1, 51, 0
2, 49240, Note_on_c, 1, 53, 127
2, 49240, Note_off_c, 1, 70, 0
2, 49240, Note_off_c, 1, 73, 0
2, 49240, Note_off_c, 1, 75, 0
2, 49240, Note_on_c, 1, 87, 127
2, 49280, Note_off_c, 1, 41, 0
2, 49280, Note_off_c, 1, 46, 0
2, 49280, Note_on_c, 1, 52, 127
2, 49280, Note_off_c, 1, 53, 0
2, 49280, Note_on_c, 1, 56, 127
2, 49280, Note_on_c, 1, 59, 127
2, 49280, Note_on_c, 1, 61, 127
2, 49280, Note_on_c, 1, 80, 127
2, 49280, Note_off_c, 1, 87, 0
2, 49320, Note_off_c, 1, 52, 0
2, 49320, Note_off_c, 1, 56, 0
2, 49320, Note_off_c, 1, 59, 0
2, 49320, Note_off_c, 1, 61, 0
2, 49320, Note_off_c, 1, 80, 0
2, 49360, Note_on_c, 1, 33, 127
2, 49360, Note_on_c, 1, 45, 127
2, 49360, Note_on_c, 1, 55, 127
2, 49360, Note_on_c, 1, 60, 127
2, 49360, Note_on_c, 1, 66, 127
2, 49480, Note_off_c, 1, 33, 0
2, 49480, Note_off_c, 1, 45, 0
2, 49480, Note_off_c, 1, 55, 0
2, 49480, Note_off_c, 1, 60, 0
2, 49480, Note_off_c, 1, 66, 0
2, 49680, Note_on_c, 1, 48, 127
2, 49680, Note_on_c, 1, 51, 127
2, 49680, Note_on_c, 1, 55, 127
2, 49680, Note_on_c, 1, 60, 127
2, 49680, Note_on_c, 1, 79, 127
2, 49680, Note_on_c, 1, 84, 127
2, 49680, Note_on_c, 1, 87, 127
2, 49680, Note_on_c, 1, 91, 127
2, 49720, Note_on_c, 1, 31, 127
2, 49720, Note_on_c, 1, 35, 127
2, 49720, Note_on_c, 1, 38, 127
2, 49720, Note_on_c, 1, 43, 127
2, 49720, Note_off_c, 1, 48, 0
2, 49720, Note_off_c, 1, 51, 0
2, 49720, Note_off_c, 1, 55, 0
2, 49720, Note_off_c, 1, 60, 0
2, 49720, Note_on_c, 1, 83, 127
2, 49720, Note_off_c, 1, 84, 0
2, 49720, Note_on_c, 1, 86, 127
2, 49720, Note_off_c, 1, 87, 0
2, 49760, Note_off_c, 1, 31, 0
2, 49760, Note_off_c, 1, 35, 0
2, 49760, Note_off_c, 1, 38, 0
2, 49760, Note_off_c, 1, 43, 0
2, 49760, Note_off_c, 1, 79, 0
2, 49760, Note_off_c, 1, 83, 0
2, 49760, Note_off_c, 1, 86, 0
2, 49760, Note_off_c, 1, 91, 0
2, 49800, Note_on_c, 1, 48, 127
2, 49800, Note_on_c, 1, 51, 127
2, 49800, Note_on_c, 1, 55, 127
2, 49800, Note_on_c, 1, 60, 127
2, 49800, Note_on_c, 1, 79, 127
2, 49800, Note_on_c, 1, 84, 127
2, 49800, Note_on_c, 1, 87, 127
2, 49800, Note_on_c, 1, 91, 127
2, 50080, Note_off_c, 1, 48, 0
2, 50080, Note_off_c, 1, 51, 0
2, 50080, Note_off_c, 1, 55, 0
2, 50080, Note_off_c, 1, 60, 0
2, 50080, Note_off_c, 1, 79, 0
2, 50080, Note_off_c, 1, 84, 0
2, 50080, Note_off_c, 1, 87, 0
2, 50080, Note_off_c, 1, 91, 0
2, 50120, Note_on_c, 1, 31, 127
2, 50120, Note_on_c, 1, 43, 127
2, 50120, Note_on_c, 1, 67, 127
2, 50120, Note_on_c, 1, 71, 127
2, 50120, Note_on_c, 1, 74, 127
2, 50120, Note_on_c, 1, 77, 127
2, 50120, Note_on_c, 1, 79, 127
2, 50200, Note_off_c, 1, 31, 0
2, 50200, Note_off_c, 1, 43, 0
2, 50200, Note_off_c, 1, 67, 0
2, 50200, Note_off_c, 1, 71, 0
2, 50200, Note_off_c, 1, 74, 0
2, 50200, Note_off_c, 1, 77, 0
2, 50200, Note_off_c, 1, 79, 0
2, 50240, Note_on_c, 1, 31, 127
2, 50240, Note_on_c, 1, 43, 127
2, 50240, Note_on_c, 1, 67, 127
2, 50240, Note_on_c, 1, 71, 127
2, 50240, Note_on_c, 1, 74, 127
2, 50240, Note_on_c, 1, 77, 127
2, 50240, Note_on_c, 1, 79, 127
2, 50360, Note_off_c, 1, 31, 0
2, 50360, Note_off_c, 1, 43, 0
2, 50360, Note_off_c, 1, 67, 0
2, 50360, Note_off_c, 1, 71, 0
2, 50360, Note_off_c, 1, 74, 0
2, 50360, Note_off_c, 1, 77, 0
2, 50360, Note_off_c, 1, 79, 0
2, 50400, Note_on_c, 1, 48, 127
2, 50400, Note_on_c, 1, 58, 127
2, 50400, Note_on_c, 1, 67, 127
2, 50400, Note_on_c, 1, 75, 127
2, 50480, Note_off_c, 1, 48, 0
2, 50480, Note_off_c, 1, 58, 0
2, 50480, Note_off_c, 1, 67, 0
2, 50480, Note_off_c, 1, 75, 0
2, 50560, Note_on_c, 1, 36, 127
2, 50560, Note_on_c, 1, 51, 127
2, 50560, Note_on_c, 1, 55, 127
2, 50560, Note_on_c, 1, 60, 127
2, 50640, Note_off_c, 1, 36, 0
2, 50640, Note_off_c, 1, 51, 0
2, 50640, Note_off_c, 1, 55, 0
2, 50640, Note_off_c, 1, 60, 0
2, 50680, Note_on_c, 1, 36, 127
2, 50680, Note_on_c, 1, 48, 127
2, 50680, Note_on_c, 1, 60, 127
2, 50680, Note_on_c, 1, 64, 127
2, 50680, Note_on_c, 1, 72, 127
2, 50800, Note_off_c, 1, 36, 0
2, 50800, Note_off_c, 1, 48, 0
2, 50800, Note_off_c, 1, 60, 0
2, 50800, Note_off_c, 1, 64, 0
2, 50800, Note_off_c, 1, 72, 0
2, 50840, Note_on_c, 1, 36, 127
2, 50840, Note_on_c, 1, 48, 127
2, 50840, Note_on_c, 1, 60, 127
2, 50840, Note_on_c, 1, 64, 127
2, 50840, Note_on_c, 1, 72, 127
2, 50960, Note_off_c, 1, 36, 0
2, 50960, Note_off_c, 1, 48, 0
2, 50960, Note_off_c, 1, 60, 0
2, 50960, Note_off_c, 1, 64, 0
2, 50960, Note_off_c, 1, 72, 0
2, 51040, Note_on_c, 1, 45, 127
2, 51040, Note_on_c, 1, 52, 127
2, 51040, Note_on_c, 1, 57, 127
2, 51040, Note_on_c, 1, 64, 127
2, 51120, Note_off_c, 1, 45, 0
2, 51120, Note_off_c, 1, 52, 0
2, 51120, Note_off_c, 1, 57, 0
2, 51120, Note_off_c, 1, 64, 0
2, 51160, Note_on_c, 1, 36, 127
2, 51160, Note_on_c, 1, 48, 127
2, 51160, Note_on_c, 1, 67, 127
2, 51160, Note_on_c, 1, 71, 127
2, 51280, Note_off_c, 1, 36, 0
2, 51280, Note_off_c, 1, 48, 0
2, 51280, Note_off_c, 1, 67, 0
2, 51280, Note_off_c, 1, 71, 0
2, 51320, Note_on_c, 1, 36, 127
2, 51320, Note_on_c, 1, 48, 127
2, 51320, Note_on_c, 1, 67, 127
2, 51320, Note_on_c, 1, 71, 127
2, 51400, Note_off_c, 1, 36, 0
2, 51400, Note_off_c, 1, 48, 0
2, 51400, Note_off_c, 1, 67, 0
2, 51400, Note_off_c, 1, 71, 0
2, 51440, Note_on_c, 1, 36, 127
2, 51440, Note_on_c, 1, 48, 127
2, 51440, Note_on_c, 1, 67, 127
2, 51440, Note_on_c, 1, 71, 127
2, 51560, Note_off_c, 1, 36, 0
2, 51560, Note_off_c, 1, 48, 0
2, 51560, Note_off_c, 1, 67, 0
2, 51560, Note_off_c, 1, 71, 0
2, 51600, Note_on_c, 1, 36, 127
2, 51600, Note_on_c, 1, 48, 127
2, 51600, Note_on_c, 1, 67, 127
2, 51600, Note_on_c, 1, 71, 127
2, 51720, Note_off_c, 1, 36, 0
2, 51720, Note_off_c, 1, 48, 0
2, 51720, Note_off_c, 1, 67, 0
2, 51720, Note_off_c, 1, 71, 0
2, 51760, Note_on_c, 1, 36, 127
2, 51760, Note_on_c, 1, 48, 127
2, 51760, Note_on_c, 1, 67, 127
2, 51760, Note_on_c, 1, 71, 127
2, 51840, Note_off_c, 1, 36, 0
2, 51840, Note_off_c, 1, 48, 0
2, 51840, Note_off_c, 1, 67, 0
2, 51840, Note_off_c, 1, 71, 0
2, 51880, Note_on_c, 1, 36, 127
2, 51880, Note_on_c, 1, 48, 127
2, 51880, Note_on_c, 1, 67, 127
2, 51880, Note_on_c, 1, 71, 127
2, 52000, Note_off_c, 1, 36, 0
2, 52000, Note_off_c, 1, 48, 0
2, 52000, Note_off_c, 1, 67, 0
2, 52000, Note_off_c, 1, 71, 0
2, 52040, Note_on_c, 1, 48, 127
2, 52040, Note_on_c, 1, 70, 127
2, 52040, Note_on_c, 1, 73, 127
2, 52040, Note_on_c, 1, 78, 127
2, 52080, Note_off_c, 1, 48, 0
2, 52080, Note_off_c, 1, 70, 0
2, 52080, Note_off_c, 1, 73, 0
2, 52080, Note_off_c, 1, 78, 0
2, 52200, Note_on_c, 1, 44, 127
2, 52200, Note_on_c, 1, 51, 127
2, 52200, Note_on_c, 1, 56, 127
2, 52200, Note_on_c, 1, 71, 127
2, 52240, Note_off_c, 1, 44, 0
2, 52240, Note_off_c, 1, 51, 0
2, 52240, Note_off_c, 1, 56, 0
2, 52240, Note_off_c, 1, 71, 0
2, 52480, Note_on_c, 1, 50, 127
2, 52480, Note_on_c, 1, 54, 127
2, 52480, Note_on_c, 1, 62, 127
2, 52480, Note_on_c, 1, 85, 127
2, 52520, Note_off_c, 1, 50, 0
2, 52520, Note_off_c, 1, 54, 0
2, 52520, Note_off_c, 1, 62, 0
2, 52520, Note_off_c, 1, 85, 0
2, 52640, Note_on_c, 1, 48, 127
2, 52640, Note_on_c, 1, 50, 127
2, 52640, Note_on_c, 1, 53, 127
2, 52640, Note_on_c, 1, 55, 127
2, 52640, Note_on_c, 1, 77, 127
2, 52680, Note_off_c, 1, 48, 0
2, 52680, Note_off_c, 1, 50, 0
2, 52680, Note_off_c, 1, 53, 0
2, 52680, Note_off_c, 1, 55, 0
2, 52680, Note_off_c, 1, 77, 0
2, 52960, Note_on_c, 1, 45, 127
2, 52960, Note_on_c, 1, 49, 127
2, 52960, Note_on_c, 1, 57, 127
2, 53000, Note_off_c, 1, 45, 0
2, 53000, Note_off_c, 1, 49, 0
2, 53000, Note_off_c, 1, 57, 0
2, 53160, Note_on_c, 1, 45, 127
2, 53200, Note_off_c, 1, 45, 0
2, 53240, Note_on_c, 1, 52, 127
2, 53280, Note_off_c, 1, 52, 0
2, 53320, Note_on_c, 1, 57, 127
2, 53400, Note_off_c, 1, 57, 0
2, 53440, Note_on_c, 1, 43, 127
2, 53440, Note_on_c, 1, 57, 127
2, 53440, Note_on_c, 1, 62, 127
2, 53560, Note_off_c, 1, 43, 0
2, 53560, Note_off_c, 1, 57, 0
2, 53560, Note_off_c, 1, 62, 0
2, 53600, Note_on_c, 1, 45, 127
2, 53600, Note_on_c, 1, 57, 127
2, 53720, Note_on_c, 1, 60, 127
2, 53840, Note_off_c, 1, 45, 0
2, 53840, Note_off_c, 1, 57, 0
2, 53840, Note_off_c, 1, 60, 0
2, 53880, Note_on_c, 1, 43, 127
2, 53880, Note_on_c, 1, 55, 127
2, 54000, Note_off_c, 1, 43, 0
2, 54000, Note_off_c, 1, 55, 0
2, 54040, Note_on_c, 1, 45, 127
2, 54040, Note_on_c, 1, 57, 127
2, 54160, Note_off_c, 1, 45, 0
2, 54160, Note_off_c, 1, 57, 0
2, 54200, Note_on_c, 1, 48, 127
2, 54200, Note_on_c, 1, 60, 127
2, 54280, Note_off_c, 1, 48, 0
2, 54280, Note_off_c, 1, 60, 0
2, 54320, Note_on_c, 1, 45, 127
2, 54320, Note_on_c, 1, 57, 127
2, 54320, Note_on_c, 1, 62, 127
2, 54320, Note_on_c, 1, 65, 127
2, 54440, Note_off_c, 1, 62, 0
2, 54440, Note_off_c, 1, 65, 0
2, 54480, Note_on_c, 1, 72, 127
2, 54560, Note_off_c, 1, 72, 0
2, 54600, Note_off_c, 1, 45, 0
2, 54600, Note_off_c, 1, 57, 0
2, 54640, Note_on_c, 1, 41, 127
2, 54640, Note_on_c, 1, 53, 127
2, 54640, Note_on_c, 1, 65, 127
2, 54640, Note_on_c, 1, 69, 127
2, 54720, Note_off_c, 1, 65, 0
2, 54720, Note_off_c, 1, 69, 0
2, 54760, Note_off_c, 1, 41, 0
2, 54760, Note_on_c, 1, 57, 127
2, 54760, Note_on_c, 1, 60, 127
2, 54760, Note_on_c, 1, 65, 127
2, 54760, Note_on_c, 1, 69, 127
2, 54800, Note_off_c, 1, 53, 0
2, 54800, Note_off_c, 1, 57, 0
2, 54800, Note_off_c, 1, 60, 0
2, 54800, Note_off_c, 1, 65, 0
2, 54800, Note_off_c, 1, 69, 0
2, 54840, Note_on_c, 1, 53, 127
2, 54880, Note_off_c, 1, 53, 0
2, 54920, Note_on_c, 1, 52, 127
2, 55200, Note_off_c, 1, 52, 0
2, 55240, Note_on_c, 1, 52, 127
2, 55480, Note_off_c, 1, 52, 0
2, 55560, Note_on_c, 1, 43, 127
2, 55560, Note_on_c, 1, 55, 127
2, 55560, Note_on_c, 1, 58, 127
2, 55560, Note_on_c, 1, 62, 127
2, 55560, Note_on_c, 1, 70, 127
2, 55600, Note_off_c, 1, 43, 0
2, 55600, Note_off_c, 1, 55, 0
2, 55640, Note_off_c, 1, 58, 0
2, 55640, Note_off_c, 1, 62, 0
2, 55640, Note_off_c, 1, 70, 0
2, 55680, Note_on_c, 1, 61, 127
2, 55680, Note_on_c, 1, 70, 127
2, 55680, Note_on_c, 1, 72, 127
2, 55720, Note_on_c, 1, 60, 127
2, 55720, Note_off_c, 1, 61, 0
2, 55800, Note_off_c, 1, 60, 0
2, 55800, Note_off_c, 1, 70, 0
2, 55800, Note_off_c, 1, 72, 0
2, 55840, Note_on_c, 1, 53, 127
2, 55840, Note_on_c, 1, 57, 127
2, 55840, Note_on_c, 1, 65, 127
2, 55840, Note_on_c, 1, 69, 127
2, 55840, Note_on_c, 1, 74, 127
2, 56120, Note_off_c, 1, 53, 0
2, 56120, Note_off_c, 1, 57, 0
2, 56120, Note_off_c, 1, 65, 0
2, 56120, Note_off_c, 1, 69, 0
2, 56120, Note_off_c, 1, 74, 0
2, 56160, Note_on_c, 1, 43, 127
2, 56160, Note_on_c, 1, 66, 127
2, 56160, Note_on_c, 1, 69, 127
2, 56160, Note_on_c, 1, 72, 127
2, 56160, Note_on_c, 1, 74, 127
2, 56200, Note_off_c, 1, 43, 0
2, 56200, Note_off_c, 1, 66, 0
2, 56200, Note_off_c, 1, 69, 0
2, 56200, Note_off_c, 1, 72, 0
2, 56200, Note_off_c, 1, 74, 0
2, 56280, Note_on_c, 1, 64, 127
2, 56280, Note_on_c, 1, 67, 127
2, 56280, Note_on_c, 1, 72, 127
2, 56280, Note_on_c, 1, 84, 127
2, 56320, Note_off_c, 1, 64, 0
2, 56320, Note_off_c, 1, 67, 0
2, 56320, Note_off_c, 1, 72, 0
2, 56320, Note_off_c, 1, 84, 0
2, 56440, Note_on_c, 1, 64, 127
2, 56440, Note_on_c, 1, 67, 127
2, 56440, Note_on_c, 1, 72, 127
2, 56440, Note_on_c, 1, 84, 127
2, 56560, Note_off_c, 1, 64, 0
2, 56560, Note_off_c, 1, 67, 0
2, 56560, Note_off_c, 1, 72, 0
2, 56560, Note_off_c, 1, 84, 0
2, 56600, Note_on_c, 1, 58, 127
2, 56600, Note_on_c, 1, 63, 127
2, 56600, Note_on_c, 1, 65, 127
2, 56600, Note_on_c, 1, 68, 127
2, 56600, Note_on_c, 1, 72, 127
2, 56600, Note_on_c, 1, 77, 127
2, 56600, Note_on_c, 1, 84, 127
2, 56720, Note_off_c, 1, 58, 0
2, 56720, Note_off_c, 1, 63, 0
2, 56720, Note_off_c, 1, 65, 0
2, 56720, Note_off_c, 1, 68, 0
2, 56720, Note_off_c, 1, 72, 0
2, 56720, Note_off_c, 1, 77, 0
2, 56720, Note_off_c, 1, 84, 0
2, 56760, Note_on_c, 1, 58, 127
2, 56760, Note_on_c, 1, 63, 127
2, 56760, Note_on_c, 1, 65, 127
2, 56760, Note_on_c, 1, 68, 127
2, 56760, Note_on_c, 1, 72, 127
2, 56760, Note_on_c, 1, 77, 127
2, 56760, Note_on_c, 1, 84, 127
2, 57000, Note_off_c, 1, 58, 0
2, 57000, Note_off_c, 1, 63, 0
2, 57000, Note_off_c, 1, 65, 0
2, 57000, Note_off_c, 1, 68, 0
2, 57000, Note_off_c, 1, 72, 0
2, 57000, Note_off_c, 1, 77, 0
2, 57000, Note_off_c, 1, 84, 0
2, 57040, Note_on_c, 1, 44, 127
2, 57040, Note_on_c, 1, 56, 127
2, 57040, Note_on_c, 1, 68, 127
2, 57040, Note_on_c, 1, 72, 127
2, 57040, Note_on_c, 1, 75, 127
2, 57080, Note_off_c, 1, 44, 0
2, 57080, Note_on_c, 1, 51, 127
2, 57080, Note_on_c, 1, 55, 127
2, 57080, Note_off_c, 1, 56, 0
2, 57080, Note_on_c, 1, 60, 127
2, 57080, Note_on_c, 1, 63, 127
2, 57080, Note_off_c, 1, 68, 0
2, 57080, Note_off_c, 1, 72, 0
2, 57080, Note_on_c, 1, 79, 127
2, 57080, Note_on_c, 1, 84, 127
2, 57080, Note_on_c, 1, 87, 127
2, 57120, Note_on_c, 1, 44, 127
2, 57120, Note_off_c, 1, 51, 0
2, 57120, Note_off_c, 1, 55, 0
2, 57120, Note_on_c, 1, 56, 127
2, 57120, Note_off_c, 1, 60, 0
2, 57120, Note_off_c, 1, 63, 0
2, 57120, Note_on_c, 1, 68, 127
2, 57120, Note_on_c, 1, 72, 127
2, 57120, Note_off_c, 1, 79, 0
2, 57120, Note_off_c, 1, 84, 0
2, 57120, Note_off_c, 1, 87, 0
2, 57160, Note_off_c, 1, 44, 0
2, 57160, Note_off_c, 1, 56, 0
2, 57160, Note_off_c, 1, 68, 0
2, 57160, Note_off_c, 1, 72, 0
2, 57160, Note_off_c, 1, 75, 0
2, 57520, Note_on_c, 1, 53, 127
2, 57520, Note_on_c, 1, 58, 127
2, 57520, Note_on_c, 1, 61, 127
2, 57520, Note_on_c, 1, 64, 127
2, 57520, Note_on_c, 1, 79, 127
2, 57560, Note_on_c, 1, 80, 127
2, 57640, Note_off_c, 1, 53, 0
2, 57640, Note_off_c, 1, 58, 0
2, 57640, Note_off_c, 1, 61, 0
2, 57640, Note_off_c, 1, 64, 0
2, 57640, Note_off_c, 1, 79, 0
2, 57640, Note_off_c, 1, 80, 0
2, 57680, Note_on_c, 1, 53, 127
2, 57680, Note_on_c, 1, 58, 127
2, 57680, Note_on_c, 1, 61, 127
2, 57680, Note_on_c, 1, 64, 127
2, 57680, Note_on_c, 1, 79, 127
2, 57680, Note_on_c, 1, 80, 127
2, 57800, Note_on_c, 1, 78, 127
2, 57920, Note_off_c, 1, 53, 0
2, 57920, Note_off_c, 1, 58, 0
2, 57920, Note_off_c, 1, 61, 0
2, 57920, Note_off_c, 1, 64, 0
2, 57920, Note_off_c, 1, 78, 0
2, 57920, Note_off_c, 1, 79, 0
2, 57920, Note_off_c, 1, 80, 0
2, 57960, Note_on_c, 1, 53, 127
2, 57960, Note_on_c, 1, 56, 127
2, 57960, Note_on_c, 1, 60, 127
2, 57960, Note_on_c, 1, 65, 127
2, 57960, Note_on_c, 1, 77, 127
2, 58000, Note_off_c, 1, 53, 0
2, 58000, Note_off_c, 1, 56, 0
2, 58000, Note_off_c, 1, 60, 0
2, 58000, Note_off_c, 1, 65, 0
2, 58000, Note_off_c, 1, 77, 0
2, 58120, Note_on_c, 1, 53, 127
2, 58120, Note_on_c, 1, 57, 127
2, 58120, Note_on_c, 1, 60, 127
2, 58120, Note_on_c, 1, 65, 127
2, 58120, Note_on_c, 1, 77, 127
2, 58120, Note_on_c, 1, 81, 127
2, 58200, Note_off_c, 1, 53, 0
2, 58200, Note_off_c, 1, 57, 0
2, 58200, Note_off_c, 1, 60, 0
2, 58200, Note_off_c, 1, 65, 0
2, 58200, Note_off_c, 1, 77, 0
2, 58200, Note_off_c, 1, 81, 0
2, 58280, Note_on_c, 1, 53, 127
2, 58280, Note_on_c, 1, 57, 127
2, 58280, Note_on_c, 1, 60, 127
2, 58280, Note_on_c, 1, 65, 127
2, 58280, Note_on_c, 1, 77, 127
2, 58280, Note_on_c, 1, 81, 127
2, 58360, Note_off_c, 1, 53, 0
2, 58360, Note_off_c, 1, 57, 0
2, 58360, Note_off_c, 1, 60, 0
2, 58360, Note_off_c, 1, 65, 0
2, 58360, Note_off_c, 1, 77, 0
2, 58360, Note_off_c, 1, 81, 0
2, 58440, Note_on_c, 1, 58, 127
2, 58440, Note_on_c, 1, 62, 127
2, 58440, Note_on_c, 1, 68, 127
2, 58440, Note_on_c, 1, 86, 127
2, 58480, Note_off_c, 1, 58, 0
2, 58480, Note_off_c, 1, 62, 0
2, 58480, Note_off_c, 1, 68, 0
2, 58480, Note_off_c, 1, 86, 0
2, 58600, Note_on_c, 1, 41, 127
2, 58600, Note_on_c, 1, 53, 127
2, 58600, Note_on_c, 1, 77, 127
2, 58600, Note_on_c, 1, 80, 127
2, 58600, Note_on_c, 1, 86, 127
2, 58640, Note_off_c, 1, 41, 0
2, 58640, Note_off_c, 1, 53, 0
2, 58640, Note_off_c, 1, 77, 0
2, 58640, Note_off_c, 1, 80, 0
2, 58640, Note_off_c, 1, 86, 0
2, 58720, Note_on_c, 1, 45, 127
2, 58720, Note_on_c, 1, 57, 127
2, 58720, Note_on_c, 1, 85, 127
2, 58720, Note_on_c, 1, 88, 127
2, 58720, Note_on_c, 1, 97, 127
2, 58760, Note_off_c, 1, 45, 0
2, 58760, Note_off_c, 1, 57, 0
2, 58760, Note_off_c, 1, 85, 0
2, 58760, Note_off_c, 1, 88, 0
2, 58760, Note_off_c, 1, 97, 0
2, 58880, Note_on_c, 1, 44, 127
2, 58880, Note_on_c, 1, 56, 127
2, 58880, Note_on_c, 1, 78, 127
2, 58880, Note_on_c, 1, 80, 127
2, 58880, Note_on_c, 1, 84, 127
2, 58880, Note_on_c, 1, 87, 127
2, 58880, Note_on_c, 1, 92, 127
2, 59000, Note_off_c, 1, 44, 0
2, 59000, Note_off_c, 1, 56, 0
2, 59000, Note_off_c, 1, 78, 0
2, 59000, Note_off_c, 1, 80, 0
2, 59000, Note_off_c, 1, 84, 0
2, 59000, Note_off_c, 1, 87, 0
2, 59000, Note_off_c, 1, 92, 0
2, 59040, Note_on_c, 1, 53, 127
2, 59040, Note_on_c, 1, 57, 127
2, 59040, Note_on_c, 1, 60, 127
2, 59040, Note_on_c, 1, 63, 127
2, 59040, Note_on_c, 1, 72, 127
2, 59160, Note_off_c, 1, 53, 0
2, 59160, Note_off_c, 1, 57, 0
2, 59160, Note_off_c, 1, 60, 0
2, 59160, Note_off_c, 1, 63, 0
2, 59160, Note_off_c, 1, 72, 0
2, 59320, Note_on_c, 1, 60, 127
2, 59320, Note_on_c, 1, 69, 127
2, 59320, Note_on_c, 1, 77, 127
2, 59400, Note_off_c, 1, 60, 0
2, 59400, Note_off_c, 1, 69, 0
2, 59400, Note_off_c, 1, 77, 0
2, 59440, Note_on_c, 1, 60, 127
2, 59440, Note_on_c, 1, 69, 127
2, 59440, Note_on_c, 1, 77, 127
2, 59480, Note_off_c, 1, 60, 0
2, 59480, Note_off_c, 1, 69, 0
2, 59480, Note_off_c, 1, 77, 0
2, 59520, Note_on_c, 1, 51, 127
2, 59520, Note_on_c, 1, 58, 127
2, 59520, Note_on_c, 1, 73, 127
2, 59520, Note_on_c, 1, 76, 127
2, 59560, Note_off_c, 1, 51, 0
2, 59560, Note_on_c, 1, 54, 127
2, 59560, Note_off_c, 1, 58, 0
2, 59560, Note_on_c, 1, 59, 127
2, 59560, Note_on_c, 1, 68, 127
2, 59560, Note_off_c, 1, 73, 0
2, 59560, Note_off_c, 1, 76, 0
2, 59560, Note_on_c, 1, 85, 127
2, 59600, Note_off_c, 1, 54, 0
2, 59600, Note_on_c, 1, 57, 127
2, 59600, Note_on_c, 1, 58, 127
2, 59600, Note_off_c, 1, 59, 0
2, 59600, Note_on_c, 1, 62, 127
2, 59600, Note_off_c, 1, 68, 0
2, 59600, Note_on_c, 1, 77, 127
2, 59600, Note_off_c, 1, 85, 0
2, 59640, Note_off_c, 1, 57, 0
2, 59640, Note_off_c, 1, 58, 0
2, 59640, Note_off_c, 1, 62, 0
2, 59640, Note_off_c, 1, 77, 0
2, 59960, Note_on_c, 1, 46, 127
2, 59960, Note_on_c, 1, 53, 127
2, 59960, Note_on_c, 1, 62, 127
2, 59960, Note_on_c, 1, 65, 127
2, 59960, Note_on_c, 1, 70, 127
2, 60080, Note_off_c, 1, 46, 0
2, 60080, Note_off_c, 1, 53, 0
2, 60080, Note_off_c, 1, 62, 0
2, 60080, Note_off_c, 1, 65, 0
2, 60080, Note_off_c, 1, 70, 0
2, 60280, Note_on_c, 1, 46, 127
2, 60280, Note_on_c, 1, 53, 127
2, 60280, Note_on_c, 1, 62, 127
2, 60280, Note_on_c, 1, 65, 127
2, 60280, Note_on_c, 1, 70, 127
2, 60400, Note_off_c, 1, 70, 0
2, 60440, Note_on_c, 1, 70, 127
2, 60840, Note_off_c, 1, 46, 0
2, 60840, Note_off_c, 1, 53, 0
2, 60840, Note_off_c, 1, 62, 0
2, 60840, Note_off_c, 1, 65, 0
2, 60840, Note_off_c, 1, 70, 0
2, 62200, Note_on_c, 1, 31, 127
2, 62200, Note_on_c, 1, 55, 127
2, 62200, Note_on_c, 1, 58, 127
2, 62200, Note_on_c, 1, 64, 127
2, 62240, Note_off_c, 1, 31, 0
2, 62240, Note_off_c, 1, 55, 0
2, 62240, Note_on_c, 1, 63, 127
2, 62240, Note_off_c, 1, 64, 0
2, 62240, Note_on_c, 1, 82, 127
2, 62240, Note_on_c, 1, 89, 127
2, 62240, Note_on_c, 1, 94, 127
2, 62280, Note_off_c, 1, 58, 0
2, 62280, Note_off_c, 1, 63, 0
2, 62280, Note_off_c, 1, 82, 0
2, 62280, Note_off_c, 1, 89, 0
2, 62280, Note_off_c, 1, 94, 0
2, 62480, Note_on_c, 1, 55, 127
2, 62480, Note_on_c, 1, 56, 127
2, 62480, Note_on_c, 1, 67, 127
2, 62520, Note_off_c, 1, 55, 0
2, 62520, Note_off_c, 1, 56, 0
2, 62520, Note_off_c, 1, 67, 0
2, 63280, Note_on_c, 1, 65, 127
2, 63400, Note_off_c, 1, 65, 0
2, 63440, Note_on_c, 1, 62, 127
2, 63440, Note_on_c, 1, 70, 127
2, 63560, Note_off_c, 1, 62, 0
2, 63560, Note_off_c, 1, 70, 0
2, 63600, Note_on_c, 1, 62, 127
2, 63600, Note_on_c, 1, 70, 127
2, 63720, Note_off_c, 1, 62, 0
2, 63720, Note_off_c, 1, 70, 0
2, 63760, Note_on_c, 1, 62, 127
2, 63760, Note_on_c, 1, 70, 127
2, 63880, Note_off_c, 1, 62, 0
2, 63880, Note_off_c, 1, 70, 0
2, 63920, Note_on_c, 1, 62, 127
2, 63920, Note_on_c, 1, 70, 127
2, 64000, Note_off_c, 1, 62, 0
2, 64000, Note_off_c, 1, 70, 0
2, 64120, Note_on_c, 1, 62, 127
2, 64120, Note_on_c, 1, 70, 127
2, 64240, Note_off_c, 1, 62, 0
2, 64240, Note_off_c, 1, 70, 0
2, 64280, Note_on_c, 1, 62, 127
2, 64280, Note_on_c, 1, 70, 127
2, 64400, Note_off_c, 1, 62, 0
2, 64400, Note_off_c, 1, 70, 0
2, 64440, Note_on_c, 1, 48, 127
2, 64440, Note_on_c, 1, 55, 127
2, 64440, Note_on_c, 1, 64, 127
2, 64440, Note_on_c, 1, 70, 127
2, 64440, Note_on_c, 1, 76, 127
2, 64560, Note_off_c, 1, 48, 0
2, 64560, Note_off_c, 1, 55, 0
2, 64560, Note_off_c, 1, 64, 0
2, 64560, Note_off_c, 1, 70, 0
2, 64560, Note_off_c, 1, 76, 0
2, 64600, Note_on_c, 1, 41, 127
2, 64600, Note_on_c, 1, 48, 127
2, 64720, Note_off_c, 1, 41, 0
2, 64720, Note_off_c, 1, 48, 0
2, 64760, Note_on_c, 1, 48, 127
2, 64760, Note_on_c, 1, 59, 127
2, 64760, Note_on_c, 1, 65, 127
2, 64760, Note_on_c, 1, 67, 127
2, 64880, Note_off_c, 1, 48, 0
2, 64880, Note_off_c, 1, 59, 0
2, 64880, Note_off_c, 1, 65, 0
2, 64880, Note_off_c, 1, 67, 0
2, 64920, Note_on_c, 1, 61, 127
2, 64920, Note_on_c, 1, 65, 127
2, 64920, Note_on_c, 1, 70, 127
2, 64960, Note_on_c, 1, 58, 127
2, 64960, Note_off_c, 1, 61, 0
2, 64960, Note_on_c, 1, 62, 127
2, 64960, Note_on_c, 1, 74, 127
2, 64960, Note_on_c, 1, 79, 127
2, 65000, Note_on_c, 1, 44, 127
2, 65000, Note_on_c, 1, 51, 127
2, 65000, Note_off_c, 1, 58, 0
2, 65000, Note_on_c, 1, 60, 127
2, 65000, Note_off_c, 1, 62, 0
2, 65000, Note_off_c, 1, 65, 0
2, 65000, Note_off_c, 1, 70, 0
2, 65000, Note_off_c, 1, 74, 0
2, 65000, Note_on_c, 1, 78, 127
2, 65000, Note_off_c, 1, 79, 0
2, 65000, Note_on_c, 1, 90, 127
2, 65040, Note_off_c, 1, 44, 0
2, 65040, Note_off_c, 1, 51, 0
2, 65040, Note_off_c, 1, 60, 0
2, 65040, Note_off_c, 1, 78, 0
2, 65040, Note_off_c, 1, 90, 0
2, 65080, Note_on_c, 1, 62, 127
2, 65080, Note_on_c, 1, 65, 127
2, 65080, Note_on_c, 1, 68, 127
2, 65080, Note_on_c, 1, 72, 127
2, 65360, Note_off_c, 1, 62, 0
2, 65360, Note_off_c, 1, 65, 0
2, 65360, Note_off_c, 1, 68, 0
2, 65360, Note_off_c, 1, 72, 0
2, 65400, Note_on_c, 1, 60, 127
2, 65400, Note_on_c, 1, 63, 127
2, 65400, Note_on_c, 1, 67, 127
2, 65400, Note_on_c, 1, 75, 127
2, 65680, Note_off_c, 1, 75, 0
2, 65720, Note_on_c, 1, 75, 127
2, 65840, Note_off_c, 1, 75, 0
2, 65880, Note_on_c, 1, 58, 127
2, 65880, Note_off_c, 1, 60, 0
2, 65880, Note_on_c, 1, 61, 127
2, 65880, Note_off_c, 1, 63, 0
2, 65880, Note_on_c, 1, 77, 127
2, 65960, Note_off_c, 1, 58, 0
2, 65960, Note_off_c, 1, 61, 0
2, 65960, Note_off_c, 1, 67, 0
2, 65960, Note_off_c, 1, 77, 0
2, 66000, Note_on_c, 1, 58, 127
2, 66000, Note_on_c, 1, 61, 127
2, 66000, Note_on_c, 1, 67, 127
2, 66000, Note_on_c, 1, 77, 127
2, 66040, Note_off_c, 1, 77, 0
2, 66080, Note_off_c, 1, 61, 0
2, 66080, Note_on_c, 1, 62, 127
2, 66080, Note_on_c, 1, 65, 127
2, 66080, Note_off_c, 1, 67, 0
2, 66080, Note_on_c, 1, 79, 127
2, 66120, Note_off_c, 1, 79, 0
2, 66160, Note_off_c, 1, 65, 0
2, 66160, Note_on_c, 1, 67, 127
2, 66160, Note_on_c, 1, 76, 127
2, 66200, Note_on_c, 1, 65, 127
2, 66200, Note_off_c, 1, 67, 0
2, 66200, Note_off_c, 1, 76, 0
2, 66240, Note_on_c, 1, 37, 127
2, 66240, Note_on_c, 1, 49, 127
2, 66240, Note_off_c, 1, 58, 0
2, 66240, Note_off_c, 1, 62, 0
2, 66240, Note_on_c, 1, 70, 127
2, 66240, Note_on_c, 1, 77, 127
2, 66280, Note_off_c, 1, 37, 0
2, 66280, Note_off_c, 1, 49, 0
2, 66280, Note_on_c, 1, 58, 127
2, 66280, Note_on_c, 1, 62, 127
2, 66280, Note_off_c, 1, 77, 0
2, 66440, Note_off_c, 1, 70, 0
2, 66560, Note_on_c, 1, 89, 127
2, 66640, Note_off_c, 1, 89, 0
2, 66680, Note_on_c, 1, 91, 127
2, 66720, Note_off_c, 1, 91, 0
2, 66840, Note_on_c, 1, 93, 127
2, 66960, Note_off_c, 1, 93, 0
2, 67000, Note_on_c, 1, 73, 127
2, 67120, Note_off_c, 1, 73, 0
2, 67160, Note_on_c, 1, 73, 127
2, 67200, Note_off_c, 1, 73, 0
2, 67280, Note_off_c, 1, 58, 0
2, 67280, Note_off_c, 1, 62, 0
2, 67280, Note_off_c, 1, 65, 0
2, 67320, Note_on_c, 1, 58, 127
2, 67320, Note_on_c, 1, 62, 127
2, 67480, Note_on_c, 1, 50, 127
2, 67480, Note_on_c, 1, 74, 127
2, 67600, Note_off_c, 1, 74, 0
2, 67640, Note_on_c, 1, 48, 127
2, 67640, Note_off_c, 1, 50, 0
2, 67640, Note_on_c, 1, 53, 127
2, 67640, Note_on_c, 1, 57, 127
2, 67640, Note_off_c, 1, 58, 0
2, 67640, Note_off_c, 1, 62, 0
2, 67640, Note_on_c, 1, 63, 127
2, 67640, Note_on_c, 1, 65, 127
2, 67640, Note_on_c, 1, 69, 127
2, 67640, Note_on_c, 1, 75, 127
2, 67880, Note_off_c, 1, 48, 0
2, 67880, Note_off_c, 1, 53, 0
2, 67880, Note_off_c, 1, 57, 0
2, 67880, Note_off_c, 1, 63, 0
2, 67880, Note_off_c, 1, 65, 0
2, 67880, Note_off_c, 1, 69, 0
2, 67880, Note_off_c, 1, 75, 0
2, 67920, Note_on_c, 1, 48, 127
2, 67920, Note_on_c, 1, 53, 127
2, 67920, Note_on_c, 1, 57, 127
2, 67920, Note_on_c, 1, 63, 127
2, 67920, Note_on_c, 1, 65, 127
2, 67920, Note_on_c, 1, 69, 127
2, 67920, Note_on_c, 1, 75, 127
2, 68040, Note_off_c, 1, 48, 0
2, 68040, Note_off_c, 1, 53, 0
2, 68040, Note_off_c, 1, 57, 0
2, 68040, Note_off_c, 1, 63, 0
2, 68040, Note_off_c, 1, 65, 0
2, 68040, Note_off_c, 1, 69, 0
2, 68040, Note_off_c, 1, 75, 0
2, 68080, Note_on_c, 1, 48, 127
2, 68080, Note_on_c, 1, 53, 127
2, 68080, Note_on_c, 1, 57, 127
2, 68080, Note_on_c, 1, 63, 127
2, 68080, Note_on_c, 1, 65, 127
2, 68080, Note_on_c, 1, 69, 127
2, 68080, Note_on_c, 1, 75, 127
2, 68560, Note_off_c, 1, 48, 0
2, 68560, Note_off_c, 1, 53, 0
2, 68560, Note_off_c, 1, 57, 0
2, 68560, Note_off_c, 1, 63, 0
2, 68560, Note_off_c, 1, 65, 0
2, 68560, Note_off_c, 1, 69, 0
2, 68560, Note_off_c, 1, 75, 0
2, 68600, Note_on_c, 1, 46, 127
2, 68600, Note_on_c, 1, 53, 127
2, 68600, Note_on_c, 1, 58, 127
2, 68600, Note_on_c, 1, 62, 127
2, 68600, Note_on_c, 1, 65, 127
2, 68600, Note_on_c, 1, 70, 127
2, 68600, Note_on_c, 1, 74, 127
2, 69200, Note_off_c, 1, 46, 0
2, 69200, Note_off_c, 1, 53, 0
2, 69200, Note_off_c, 1, 58, 0
2, 69200, Note_off_c, 1, 62, 0
2, 69200, Note_off_c, 1, 65, 0
2, 69200, Note_off_c, 1, 70, 0
2, 69200, Note_off_c, 1, 74, 0
2, 69240, Note_on_c, 1, 59, 127
2, 69240, Note_on_c, 1, 63, 127
2, 69240, Note_on_c, 1, 67, 127
2, 69240, Note_on_c, 1, 71, 127
2, 69240, Note_on_c, 1, 75, 127
2, 69240, Note_on_c, 1, 82, 127
2, 69800, Note_off_c, 1, 59, 0
2, 69800, Note_off_c, 1, 63, 0
2, 69800, Note_off_c, 1, 67, 0
2, 69800, Note_off_c, 1, 71, 0
2, 69800, Note_off_c, 1, 75, 0
2, 69800, Note_off_c, 1, 82, 0
2, 69840, Note_on_c, 1, 58, 127
2, 69840, Note_on_c, 1, 67, 127
2, 69840, Note_on_c, 1, 82, 127
2, 70000, Note_off_c, 1, 58, 0
2, 70000, Note_on_c, 1, 63, 127
2, 70000, Note_on_c, 1, 65, 127
2, 70000, Note_off_c, 1, 67, 0
2, 70000, Note_off_c, 1, 82, 0
2, 70000, Note_on_c, 1, 86, 127
2, 70080, Note_off_c, 1, 63, 0
2, 70080, Note_off_c, 1, 65, 0
2, 70080, Note_off_c, 1, 86, 0
2, 70120, Note_on_c, 1, 63, 127
2, 70120, Note_on_c, 1, 65, 127
2, 70120, Note_on_c, 1, 86, 127
2, 70160, Note_on_c, 1, 62, 127
2, 70160, Note_off_c, 1, 63, 0
2, 70160, Note_off_c, 1, 65, 0
2, 70160, Note_off_c, 1, 86, 0
2, 70200, Note_off_c, 1, 62, 0
2, 70240, Note_on_c, 1, 61, 127
2, 70240, Note_on_c, 1, 65, 127
2, 70240, Note_on_c, 1, 70, 127
2, 70240, Note_on_c, 1, 82, 127
2, 70520, Note_off_c, 1, 61, 0
2, 70560, Note_on_c, 1, 63, 127
2, 70560, Note_on_c, 1, 69, 127
2, 70560, Note_off_c, 1, 70, 0
2, 70560, Note_on_c, 1, 77, 127
2, 70560, Note_off_c, 1, 82, 0
2, 70800, Note_off_c, 1, 63, 0
2, 70800, Note_off_c, 1, 65, 0
2, 70800, Note_off_c, 1, 69, 0
2, 70800, Note_off_c, 1, 77, 0
2, 70840, Note_on_c, 1, 60, 127
2, 70840, Note_on_c, 1, 63, 127
2, 70840, Note_on_c, 1, 65, 127
2, 70840, Note_on_c, 1, 69, 127
2, 70840, Note_on_c, 1, 72, 127
2, 70840, Note_on_c, 1, 81, 127
2, 70960, Note_on_c, 1, 59, 127
2, 70960, Note_off_c, 1, 60, 0
2, 70960, Note_off_c, 1, 63, 0
2, 70960, Note_off_c, 1, 65, 0
2, 70960, Note_off_c, 1, 69, 0
2, 70960, Note_off_c, 1, 72, 0
2, 70960, Note_on_c, 1, 77, 127
2, 70960, Note_off_c, 1, 81, 0
2, 70960, Note_on_c, 1, 82, 127
2, 70960, Note_on_c, 1, 86, 127
2, 71000, Note_on_c, 1, 43, 127
2, 71000, Note_on_c, 1, 55, 127
2, 71000, Note_off_c, 1, 59, 0
2, 71000, Note_on_c, 1, 62, 127
2, 71000, Note_on_c, 1, 67, 127
2, 71000, Note_on_c, 1, 70, 127
2, 71000, Note_on_c, 1, 74, 127
2, 71000, Note_off_c, 1, 77, 0
2, 71000, Note_off_c, 1, 82, 0
2, 71000, Note_off_c, 1, 86, 0
2, 71080, Note_off_c, 1, 43, 0
2, 71080, Note_off_c, 1, 55, 0
2, 71080, Note_on_c, 1, 69, 127
2, 71080, Note_off_c, 1, 70, 0
2, 71080, Note_on_c, 1, 91, 127
2, 71080, Note_on_c, 1, 93, 127
2, 71120, Note_off_c, 1, 62, 0
2, 71120, Note_off_c, 1, 67, 0
2, 71120, Note_off_c, 1, 69, 0
2, 71120, Note_off_c, 1, 74, 0
2, 71120, Note_on_c, 1, 79, 127
2, 71120, Note_on_c, 1, 82, 127
2, 71120, Note_off_c, 1, 93, 0
2, 71160, Note_on_c, 1, 36, 127
2, 71160, Note_on_c, 1, 48, 127
2, 71160, Note_on_c, 1, 63, 127
2, 71160, Note_on_c, 1, 68, 127
2, 71160, Note_on_c, 1, 72, 127
2, 71160, Note_off_c, 1, 79, 0
2, 71160, Note_off_c, 1, 82, 0
2, 71160, Note_off_c, 1, 91, 0
2, 71280, Note_off_c, 1, 36, 0
2, 71280, Note_off_c, 1, 48, 0
2, 71280, Note_off_c, 1, 63, 0
2, 71280, Note_off_c, 1, 68, 0
2, 71280, Note_off_c, 1, 72, 0
2, 71320, Note_on_c, 1, 48, 127
2, 71320, Note_on_c, 1, 57, 127
2, 71320, Note_on_c, 1, 60, 127
2, 71320, Note_on_c, 1, 65, 127
2, 71440, Note_off_c, 1, 48, 0
2, 71440, Note_off_c, 1, 57, 0
2, 71440, Note_off_c, 1, 60, 0
2, 71440, Note_off_c, 1, 65, 0
2, 71480, Note_on_c, 1, 41, 127
2, 71480, Note_on_c, 1, 53, 127
2, 71480, Note_on_c, 1, 60, 127
2, 71480, Note_on_c, 1, 65, 127
2, 71480, Note_on_c, 1, 69, 127
2, 71640, Note_on_c, 1, 33, 127
2, 71640, Note_off_c, 1, 41, 0
2, 71640, Note_on_c, 1, 45, 127
2, 71640, Note_off_c, 1, 53, 0
2, 71640, Note_off_c, 1, 65, 0
2, 71640, Note_on_c, 1, 67, 127
2, 71640, Note_off_c, 1, 69, 0
2, 71640, Note_on_c, 1, 72, 127
2, 71680, Note_off_c, 1, 33, 0
2, 71680, Note_on_c, 1, 41, 127
2, 71680, Note_off_c, 1, 45, 0
2, 71680, Note_on_c, 1, 53, 127
2, 71680, Note_on_c, 1, 65, 127
2, 71680, Note_off_c, 1, 67, 0
2, 71680, Note_on_c, 1, 69, 127
2, 71680, Note_off_c, 1, 72, 0
2, 71760, Note_off_c, 1, 53, 0
2, 71760, Note_off_c, 1, 60, 0
2, 71760, Note_on_c, 1, 63, 127
2, 71760, Note_off_c, 1, 65, 0
2, 71760, Note_on_c, 1, 67, 127
2, 71760, Note_off_c, 1, 69, 0
2, 71800, Note_on_c, 1, 53, 127
2, 71800, Note_off_c, 1, 63, 0
2, 71800, Note_on_c, 1, 65, 127
2, 71800, Note_off_c, 1, 67, 0
2, 71800, Note_on_c, 1, 74, 127
2, 72040, Note_off_c, 1, 41, 0
2, 72040, Note_off_c, 1, 53, 0
2, 72040, Note_off_c, 1, 65, 0
2, 72040, Note_off_c, 1, 74, 0
2, 72080, Note_on_c, 1, 34, 127
2, 72080, Note_on_c, 1, 46, 127
2, 72080, Note_on_c, 1, 54, 127
2, 72080, Note_on_c, 1, 58, 127
2, 72080, Note_on_c, 1, 66, 127
2, 72120, Note_off_c, 1, 34, 0
2, 72120, Note_on_c, 1, 37, 127
2, 72120, Note_on_c, 1, 41, 127
2, 72120, Note_off_c, 1, 46, 0
2, 72120, Note_on_c, 1, 49, 127
2, 72120, Note_off_c, 1, 54, 0
2, 72120, Note_off_c, 1, 58, 0
2, 72120, Note_off_c, 1, 66, 0
2, 72160, Note_off_c, 1, 37, 0
2, 72160, Note_off_c, 1, 41, 0
2, 72160, Note_off_c, 1, 49, 0
2, 72200, Note_on_c, 1, 70, 127
2, 72200, Note_on_c, 1, 73, 127
2, 72200, Note_on_c, 1, 85, 127
2, 72200, Note_on_c, 1, 89, 127
2, 72240, Note_on_c, 1, 64, 127
2, 72240, Note_off_c, 1, 70, 0
2, 72240, Note_off_c, 1, 89, 0
2, 72240, Note_on_c, 1, 97, 127
2, 72280, Note_on_c, 1, 27, 127
2, 72280, Note_on_c, 1, 39, 127
2, 72280, Note_on_c, 1, 58, 127
2, 72280, Note_off_c, 1, 64, 0
2, 72280, Note_on_c, 1, 67, 127
2, 72280, Note_off_c, 1, 73, 0
2, 72280, Note_off_c, 1, 85, 0
2, 72280, Note_off_c, 1, 97, 0
2, 72320, Note_off_c, 1, 27, 0
2, 72320, Note_off_c, 1, 39, 0
2, 72320, Note_on_c, 1, 49, 127
2, 72320, Note_off_c, 1, 67, 0
2, 72320, Note_on_c, 1, 73, 127
2, 72320, Note_on_c, 1, 82, 127
2, 72320, Note_on_c, 1, 85, 127
2, 72360, Note_on_c, 1, 39, 127
2, 72360, Note_on_c, 1, 44, 127
2, 72360, Note_off_c, 1, 49, 0
2, 72360, Note_on_c, 1, 53, 127
2, 72360, Note_off_c, 1, 58, 0
2, 72360, Note_on_c, 1, 62, 127
2, 72360, Note_off_c, 1, 73, 0
2, 72360, Note_off_c, 1, 82, 0
2, 72360, Note_off_c, 1, 85, 0
2, 72400, Note_on_c, 1, 31, 127
2, 72400, Note_on_c, 1, 43, 127
2, 72400, Note_off_c, 1, 44, 0
2, 72400, Note_off_c, 1, 53, 0
2, 72400, Note_off_c, 1, 62, 0
2, 72440, Note_off_c, 1, 31, 0
2, 72440, Note_off_c, 1, 39, 0
2, 72440, Note_on_c, 1, 41, 127
2, 72440, Note_off_c, 1, 43, 0
2, 72440, Note_on_c, 1, 51, 127
2, 72440, Note_on_c, 1, 60, 127
2, 72440, Note_on_c, 1, 65, 127
2, 72440, Note_on_c, 1, 72, 127
2, 72560, Note_off_c, 1, 51, 0
2, 72600, Note_on_c, 1, 53, 127
2, 72680, Note_off_c, 1, 53, 0
2, 72720, Note_off_c, 1, 41, 0
2, 72720, Note_off_c, 1, 60, 0
2, 72720, Note_off_c, 1, 65, 0
2, 72720, Note_off_c, 1, 72, 0
2, 72760, Note_on_c, 1, 41, 127
2, 72760, Note_on_c, 1, 50, 127
2, 72760, Note_on_c, 1, 58, 127
2, 72760, Note_on_c, 1, 65, 127
2, 72760, Note_on_c, 1, 70, 127
2, 73360, Note_off_c, 1, 41, 0
2, 73360, Note_on_c, 1, 53, 127
2, 73360, Note_off_c, 1, 58, 0
2, 73360, Note_off_c, 1, 65, 0
2, 73360, Note_off_c, 1, 70, 0
2, 73400, Note_on_c, 1, 48, 127
2, 73400, Note_off_c, 1, 50, 0
2, 73400, Note_off_c, 1, 53, 0
2, 73400, Note_on_c, 1, 58, 127
2, 73400, Note_on_c, 1, 64, 127
2, 73400, Note_on_c, 1, 68, 127
2, 73520, Note_off_c, 1, 48, 0
2, 73520, Note_off_c, 1, 58, 0
2, 73520, Note_off_c, 1, 64, 0
2, 73520, Note_off_c, 1, 68, 0
2, 73560, Note_on_c, 1, 46, 127
2, 73560, Note_on_c, 1, 50, 127
2, 73560, Note_on_c, 1, 58, 127
2, 73560, Note_on_c, 1, 62, 127
2, 73560, Note_on_c, 1, 65, 127
2, 73560, Note_on_c, 1, 70, 127
2, 73760, Note_off_c, 1, 50, 0
2, 73760, Note_on_c, 1, 53, 127
2, 74200, Note_off_c, 1, 46, 0
2, 74200, Note_off_c, 1, 53, 0
2, 74200, Note_off_c, 1, 58, 0
2, 74200, Note_off_c, 1, 62, 0
2, 74200, Note_off_c, 1, 65, 0
2, 74200, Note_off_c, 1, 70, 0
2, 74240, Note_on_c, 1, 46, 127
2, 74240, Note_on_c, 1, 53, 127
2, 74240, Note_on_c, 1, 58, 127
2, 74240, Note_on_c, 1, 62, 127
2, 74240, Note_on_c, 1, 65, 127
2, 74240, Note_on_c, 1, 70, 127
2, 74720, Note_off_c, 1, 46, 0
2, 74720, Note_off_c, 1, 53, 0
2, 74720, Note_on_c, 1, 55, 127
2, 74720, Note_off_c, 1, 65, 0
2, 74720, Note_on_c, 1, 67, 127
2, 74840, Note_off_c, 1, 55, 0
2, 74840, Note_off_c, 1, 58, 0
2, 74840, Note_off_c, 1, 62, 0
2, 74840, Note_off_c, 1, 67, 0
2, 74840, Note_off_c, 1, 70, 0
2, 74880, Note_on_c, 1, 58, 127
2, 74880, Note_on_c, 1, 65, 127
2, 74880, Note_on_c, 1, 68, 127
2, 74880, Note_on_c, 1, 73, 127
2, 74880, Note_on_c, 1, 77, 127
2, 74960, Note_off_c, 1, 58, 0
2, 75040, Note_on_c, 1, 58, 127
2, 75160, Note_off_c, 1, 58, 0
2, 75160, Note_off_c, 1, 65, 0
2, 75160, Note_off_c, 1, 68, 0
2, 75160, Note_off_c, 1, 73, 0
2, 75160, Note_off_c, 1, 77, 0
2, 75200, Note_on_c, 1, 53, 127
2, 75200, Note_on_c, 1, 60, 127
2, 75200, Note_on_c, 1, 65, 127
2, 75200, Note_on_c, 1, 69, 127
2, 75200, Note_on_c, 1, 75, 127
2, 75320, Note_off_c, 1, 65, 0
2, 75360, Note_on_c, 1, 65, 127
2, 75480, Note_off_c, 1, 65, 0
2, 75520, Note_on_c, 1, 65, 127
2, 75560, Note_off_c, 1, 65, 0
2, 75800, Note_off_c, 1, 53, 0
2, 75800, Note_off_c, 1, 60, 0
2, 75800, Note_off_c, 1, 69, 0
2, 75800, Note_off_c, 1, 75, 0
2, 75840, Note_on_c, 1, 53, 127
2, 75840, Note_on_c, 1, 60, 127
2, 75840, Note_on_c, 1, 63, 127
2, 75840, Note_on_c, 1, 65, 127
2, 75840, Note_on_c, 1, 67, 127
2, 75960, Note_off_c, 1, 53, 0
2, 75960, Note_on_c, 1, 58, 127
2, 75960, Note_off_c, 1, 60, 0
2, 75960, Note_on_c, 1, 62, 127
2, 75960, Note_off_c, 1, 63, 0
2, 75960, Note_off_c, 1, 65, 0
2, 75960, Note_off_c, 1, 67, 0
2, 75960, Note_on_c, 1, 68, 127
2, 75960, Note_on_c, 1, 82, 127
2, 76000, Note_on_c, 1, 48, 127
2, 76000, Note_on_c, 1, 53, 127
2, 76000, Note_off_c, 1, 58, 0
2, 76000, Note_off_c, 1, 62, 0
2, 76000, Note_on_c, 1, 63, 127
2, 76000, Note_off_c, 1, 68, 0
2, 76000, Note_on_c, 1, 75, 127
2, 76000, Note_off_c, 1, 82, 0
2, 76120, Note_off_c, 1, 48, 0
2, 76120, Note_off_c, 1, 53, 0
2, 76120, Note_off_c, 1, 63, 0
2, 76120, Note_off_c, 1, 75, 0
2, 76160, Note_on_c, 1, 53, 127
2, 76160, Note_on_c, 1, 63, 127
2, 76160, Note_on_c, 1, 69, 127
2, 76200, Note_on_c, 1, 46, 127
2, 76200, Note_off_c, 1, 53, 0
2, 76200, Note_on_c, 1, 55, 127
2, 76200, Note_off_c, 1, 63, 0
2, 76200, Note_off_c, 1, 69, 0
2, 76200, Note_on_c, 1, 70, 127
2, 76200, Note_on_c, 1, 79, 127
2, 76280, Note_off_c, 1, 70, 0
2, 76320, Note_off_c, 1, 79, 0
2, 76360, Note_off_c, 1, 46, 0
2, 76360, Note_on_c, 1, 51, 127
2, 76360, Note_off_c, 1, 55, 0
2, 76360, Note_on_c, 1, 58, 127
2, 76360, Note_on_c, 1, 67, 127
2, 76360, Note_on_c, 1, 75, 127
2, 76360, Note_on_c, 1, 79, 127
2, 76480, Note_off_c, 1, 51, 0
2, 76480, Note_off_c, 1, 58, 0
2, 76480, Note_off_c, 1, 67, 0
2, 76480, Note_off_c, 1, 75, 0
2, 76480, Note_off_c, 1, 79, 0
2, 76520, Note_on_c, 1, 41, 127
2, 76520, Note_on_c, 1, 46, 127
2, 76520, Note_on_c, 1, 53, 127
2, 76520, Note_on_c, 1, 65, 127
2, 76520, Note_on_c, 1, 74, 127
2, 76520, Note_on_c, 1, 77, 127
2, 76800, Note_off_c, 1, 41, 0
2, 76800, Note_off_c, 1, 46, 0
2, 76800, Note_off_c, 1, 53, 0
2, 76800, Note_on_c, 1, 55, 127
2, 76800, Note_off_c, 1, 65, 0
2, 76800, Note_on_c, 1, 67, 127
2, 76800, Note_off_c, 1, 74, 0
2, 76800, Note_off_c, 1, 77, 0
2, 76840, Note_on_c, 1, 37, 127
2, 76840, Note_on_c, 1, 44, 127
2, 76840, Note_on_c, 1, 53, 127
2, 76840, Note_off_c, 1, 55, 0
2, 76840, Note_on_c, 1, 61, 127
2, 76840, Note_on_c, 1, 65, 127
2, 76840, Note_off_c, 1, 67, 0
2, 77760, Note_off_c, 1, 37, 0
2, 77760, Note_off_c, 1, 44, 0
2, 77760, Note_off_c, 1, 53, 0
2, 77760, Note_off_c, 1, 61, 0
2, 77760, Note_off_c, 1, 65, 0
2, 77800, Note_on_c, 1, 49, 127
2, 77800, Note_on_c, 1, 56, 127
2, 77800, Note_on_c, 1, 65, 127
2, 77800, Note_on_c, 1, 77, 127
2, 78040, Note_off_c, 1, 49, 0
2, 78040, Note_off_c, 1, 56, 0
2, 78040, Note_off_c, 1, 65, 0
2, 78040, Note_off_c, 1, 77, 0
2, 78440, Note_on_c, 1, 64, 127
2, 78440, Note_on_c, 1, 71, 127
2, 78440, Note_on_c, 1, 83, 127
2, 78440, Note_on_c, 1, 90, 127
2, 78480, Note_on_c, 1, 58, 127
2, 78480, Note_off_c, 1, 64, 0
2, 78480, Note_on_c, 1, 65, 127
2, 78480, Note_on_c, 1, 67, 127
2, 78480, Note_off_c, 1, 71, 0
2, 78480, Note_on_c, 1, 73, 127
2, 78480, Note_off_c, 1, 83, 0
2, 78480, Note_off_c, 1, 90, 0
2, 78520, Note_on_c, 1, 46, 127
2, 78520, Note_on_c, 1, 51, 127
2, 78520, Note_off_c, 1, 58, 0
2, 78520, Note_on_c, 1, 61, 127
2, 78520, Note_off_c, 1, 65, 0
2, 78520, Note_off_c, 1, 67, 0
2, 78520, Note_off_c, 1, 73, 0
2, 78520, Note_on_c, 1, 91, 127
2, 78560, Note_off_c, 1, 46, 0
2, 78560, Note_off_c, 1, 51, 0
2, 78560, Note_off_c, 1, 61, 0
2, 78560, Note_off_c, 1, 91, 0
2, 78600, Note_on_c, 1, 49, 127
2, 78600, Note_on_c, 1, 53, 127
2, 78600, Note_on_c, 1, 59, 127
2, 78600, Note_on_c, 1, 68, 127
2, 78600, Note_on_c, 1, 73, 127
2, 78640, Note_off_c, 1, 49, 0
2, 78640, Note_off_c, 1, 53, 0
2, 78640, Note_off_c, 1, 59, 0
2, 78640, Note_off_c, 1, 68, 0
2, 78640, Note_on_c, 1, 70, 127
2, 78640, Note_off_c, 1, 73, 0
2, 78640, Note_on_c, 1, 77, 127
2, 78640, Note_on_c, 1, 86, 127
2, 78640, Note_on_c, 1, 98, 127
2, 78680, Note_off_c, 1, 70, 0
2, 78680, Note_off_c, 1, 77, 0
2, 78680, Note_off_c, 1, 86, 0
2, 78680, Note_off_c, 1, 98, 0
2, 78720, Note_on_c, 1, 54, 127
2, 78720, Note_on_c, 1, 58, 127
2, 78720, Note_on_c, 1, 85, 127
2, 78720, Note_on_c, 1, 97, 127
2, 78760, Note_off_c, 1, 54, 0
2, 78760, Note_off_c, 1, 58, 0
2, 78760, Note_on_c, 1, 81, 127
2, 78760, Note_on_c, 1, 82, 127
2, 78760, Note_off_c, 1, 85, 0
2, 78760, Note_on_c, 1, 93, 127
2, 78760, Note_on_c, 1, 94, 127
2, 78760, Note_off_c, 1, 97, 0
2, 78800, Note_on_c, 1, 41, 127
2, 78800, Note_on_c, 1, 53, 127
2, 78800, Note_off_c, 1, 81, 0
2, 78800, Note_off_c, 1, 82, 0
2, 78800, Note_on_c, 1, 83, 127
2, 78800, Note_on_c, 1, 86, 127
2, 78800, Note_off_c, 1, 93, 0
2, 78800, Note_off_c, 1, 94, 0
2, 78800, Note_on_c, 1, 95, 127
2, 78840, Note_off_c, 1, 41, 0
2, 78840, Note_off_c, 1, 53, 0
2, 78840, Note_off_c, 1, 83, 0
2, 78840, Note_off_c, 1, 86, 0
2, 78840, Note_on_c, 1, 89, 127
2, 78840, Note_off_c, 1, 95, 0
2, 78840, Note_on_c, 1, 101, 127
2, 78880, Note_on_c, 1, 51, 127
2, 78880, Note_on_c, 1, 57, 127
2, 78880, Note_on_c, 1, 60, 127
2, 78880, Note_on_c, 1, 81, 127
2, 78880, Note_off_c, 1, 89, 0
2, 78880, Note_off_c, 1, 101, 0
2, 79000, Note_off_c, 1, 51, 0
2, 79000, Note_off_c, 1, 57, 0
2, 79000, Note_off_c, 1, 60, 0
2, 79000, Note_off_c, 1, 81, 0
2, 79040, Note_on_c, 1, 44, 127
2, 79040, Note_on_c, 1, 77, 127
2, 79040, Note_on_c, 1, 80, 127
2, 79040, Note_on_c, 1, 85, 127
2, 79080, Note_off_c, 1, 44, 0
2, 79080, Note_on_c, 1, 55, 127
2, 79080, Note_on_c, 1, 59, 127
2, 79080, Note_on_c, 1, 79, 127
2, 79080, Note_off_c, 1, 80, 0
2, 79080, Note_off_c, 1, 85, 0
2, 79120, Note_on_c, 1, 33, 127
2, 79120, Note_off_c, 1, 55, 0
2, 79120, Note_off_c, 1, 59, 0
2, 79120, Note_on_c, 1, 62, 127
2, 79120, Note_off_c, 1, 77, 0
2, 79120, Note_off_c, 1, 79, 0
2, 79120, Note_on_c, 1, 86, 127
2, 79160, Note_off_c, 1, 33, 0
2, 79160, Note_off_c, 1, 62, 0
2, 79160, Note_off_c, 1, 86, 0
2, 79200, Note_on_c, 1, 63, 127
2, 79200, Note_on_c, 1, 75, 127
2, 79200, Note_on_c, 1, 81, 127
2, 79200, Note_on_c, 1, 84, 127
2, 79280, Note_off_c, 1, 63, 0
2, 79320, Note_off_c, 1, 75, 0
2, 79320, Note_off_c, 1, 81, 0
2, 79320, Note_off_c, 1, 84, 0
2, 79360, Note_on_c, 1, 72, 127
2, 79360, Note_on_c, 1, 75, 127
2, 79360, Note_on_c, 1, 81, 127
2, 79360, Note_on_c, 1, 84, 127
2, 79440, Note_off_c, 1, 72, 0
2, 79440, Note_off_c, 1, 75, 0
2, 79440, Note_off_c, 1, 81, 0
2, 79440, Note_off_c, 1, 84, 0
2, 79480, Note_on_c, 1, 39, 127
2, 79480, Note_on_c, 1, 46, 127
2, 79480, Note_on_c, 1, 51, 127
2, 79480, Note_on_c, 1, 67, 127
2, 79480, Note_on_c, 1, 75, 127
2, 79480, Note_on_c, 1, 79, 127
2, 79600, Note_off_c, 1, 39, 0
2, 79600, Note_off_c, 1, 46, 0
2, 79600, Note_off_c, 1, 51, 0
2, 79600, Note_off_c, 1, 67, 0
2, 79600, Note_off_c, 1, 75, 0
2, 79600, Note_off_c, 1, 79, 0
2, 79640, Note_on_c, 1, 67, 127
2, 79640, Note_on_c, 1, 71, 127
2, 79640, Note_on_c, 1, 77, 127
2, 79640, Note_on_c, 1, 79, 127
2, 79640, Note_on_c, 1, 86, 127
2, 79760, Note_off_c, 1, 67, 0
2, 79760, Note_off_c, 1, 71, 0
2, 79760, Note_off_c, 1, 77, 0
2, 79760, Note_off_c, 1, 79, 0
2, 79760, Note_off_c, 1, 86, 0
2, 79800, Note_on_c, 1, 55, 127
2, 79800, Note_on_c, 1, 60, 127
2, 79800, Note_on_c, 1, 63, 127
2, 79800, Note_on_c, 1, 67, 127
2, 79800, Note_on_c, 1, 74, 127
2, 79800, Note_on_c, 1, 77, 127
2, 79920, Note_off_c, 1, 55, 0
2, 79920, Note_off_c, 1, 60, 0
2, 79920, Note_off_c, 1, 63, 0
2, 79920, Note_off_c, 1, 67, 0
2, 79920, Note_off_c, 1, 74, 0
2, 79920, Note_off_c, 1, 77, 0
2, 79960, Note_on_c, 1, 51, 127
2, 79960, Note_on_c, 1, 63, 127
2, 79960, Note_on_c, 1, 83, 127
2, 79960, Note_on_c, 1, 87, 127
2, 79960, Note_on_c, 1, 95, 127
2, 80000, Note_off_c, 1, 51, 0
2, 80000, Note_off_c, 1, 63, 0
2, 80000, Note_on_c, 1, 82, 127
2, 80000, Note_off_c, 1, 83, 0
2, 80000, Note_off_c, 1, 87, 0
2, 80000, Note_on_c, 1, 94, 127
2, 80000, Note_off_c, 1, 95, 0
2, 80040, Note_off_c, 1, 82, 0
2, 80040, Note_off_c, 1, 94, 0
2, 80080, Note_on_c, 1, 82, 127
2, 80080, Note_on_c, 1, 94, 127
2, 80120, Note_off_c, 1, 82, 0
2, 80120, Note_off_c, 1, 94, 0
2, 80160, Note_on_c, 1, 57, 127
2, 80160, Note_on_c, 1, 76, 127
2, 80160, Note_on_c, 1, 80, 127
2, 80160, Note_on_c, 1, 85, 127
2, 80280, Note_off_c, 1, 57, 0
2, 80280, Note_off_c, 1, 76, 0
2, 80280, Note_off_c, 1, 80, 0
2, 80280, Note_off_c, 1, 85, 0
2, 80320, Note_on_c, 1, 48, 127
2, 80320, Note_on_c, 1, 59, 127
2, 80320, Note_on_c, 1, 62, 127
2, 80320, Note_on_c, 1, 65, 127
2, 80320, Note_on_c, 1, 67, 127
2, 80360, Note_on_c, 1, 34, 127
2, 80360, Note_on_c, 1, 41, 127
2, 80360, Note_on_c, 1, 44, 127
2, 80360, Note_off_c, 1, 48, 0
2, 80360, Note_on_c, 1, 53, 127
2, 80360, Note_on_c, 1, 56, 127
2, 80360, Note_on_c, 1, 58, 127
2, 80360, Note_off_c, 1, 59, 0
2, 80360, Note_off_c, 1, 62, 0
2, 80360, Note_off_c, 1, 65, 0
2, 80360, Note_off_c, 1, 67, 0
2, 80400, Note_off_c, 1, 34, 0
2, 80400, Note_off_c, 1, 41, 0
2, 80400, Note_off_c, 1, 44, 0
2, 80400, Note_off_c, 1, 53, 0
2, 80400, Note_off_c, 1, 56, 0
2, 80400, Note_off_c, 1, 58, 0
2, 80440, Note_on_c, 1, 66, 127
2, 80440, Note_on_c, 1, 73, 127
2, 80440, Note_on_c, 1, 78, 127
2, 80440, Note_on_c, 1, 81, 127
2, 80440, Note_on_c, 1, 85, 127
2, 80440, Note_on_c, 1, 93, 127
2, 80560, Note_off_c, 1, 66, 0
2, 80560, Note_off_c, 1, 73, 0
2, 80560, Note_off_c, 1, 78, 0
2, 80560, Note_off_c, 1, 81, 0
2, 80560, Note_off_c, 1, 85, 0
2, 80560, Note_off_c, 1, 93, 0
2, 80600, Note_on_c, 1, 48, 127
2, 80600, Note_on_c, 1, 60, 127
2, 80600, Note_on_c, 1, 67, 127
2, 80600, Note_on_c, 1, 72, 127
2, 80600, Note_on_c, 1, 77, 127
2, 80600, Note_on_c, 1, 79, 127
2, 80720, Note_off_c, 1, 48, 0
2, 80720, Note_off_c, 1, 60, 0
2, 80720, Note_off_c, 1, 67, 0
2, 80720, Note_off_c, 1, 72, 0
2, 80720, Note_off_c, 1, 77, 0
2, 80720, Note_off_c, 1, 79, 0
2, 80760, Note_on_c, 1, 36, 127
2, 80760, Note_on_c, 1, 48, 127
2, 80760, Note_on_c, 1, 79, 127
2, 80760, Note_on_c, 1, 84, 127
2, 80760, Note_on_c, 1, 89, 127
2, 80760, Note_on_c, 1, 91, 127
2, 80880, Note_off_c, 1, 36, 0
2, 80880, Note_off_c, 1, 48, 0
2, 80880, Note_off_c, 1, 79, 0
2, 80880, Note_off_c, 1, 84, 0
2, 80880, Note_off_c, 1, 89, 0
2, 80880, Note_off_c, 1, 91, 0
2, 80920, Note_on_c, 1, 48, 127
2, 80920, Note_on_c, 1, 60, 127
2, 80920, Note_on_c, 1, 67, 127
2, 80920, Note_on_c, 1, 72, 127
2, 80920, Note_on_c, 1, 77, 127
2, 80920, Note_on_c, 1, 79, 127
2, 81040, Note_off_c, 1, 48, 0
2, 81040, Note_off_c, 1, 60, 0
2, 81040, Note_off_c, 1, 67, 0
2, 81040, Note_off_c, 1, 72, 0
2, 81040, Note_off_c, 1, 77, 0
2, 81040, Note_off_c, 1, 79, 0
2, 81080, Note_on_c, 1, 48, 127
2, 81080, Note_on_c, 1, 60, 127
2, 81080, Note_on_c, 1, 67, 127
2, 81080, Note_on_c, 1, 72, 127
2, 81080, Note_on_c, 1, 77, 127
2, 81080, Note_on_c, 1, 79, 127
2, 81160, Note_off_c, 1, 48, 0
2, 81160, Note_off_c, 1, 60, 0
2, 81160, Note_off_c, 1, 67, 0
2, 81160, Note_off_c, 1, 72, 0
2, 81160, Note_off_c, 1, 77, 0
2, 81160, Note_off_c, 1, 79, 0
2, 81240, Note_on_c, 1, 48, 127
2, 81240, Note_on_c, 1, 60, 127
2, 81240, Note_on_c, 1, 67, 127
2, 81240, Note_on_c, 1, 72, 127
2, 81240, Note_on_c, 1, 77, 127
2, 81240, Note_on_c, 1, 79, 127
2, 81320, Note_off_c, 1, 48, 0
2, 81320, Note_off_c, 1, 60, 0
2, 81320, Note_off_c, 1, 67, 0
2, 81320, Note_off_c, 1, 72, 0
2, 81320, Note_off_c, 1, 77, 0
2, 81320, Note_off_c, 1, 79, 0
2, 81360, Note_on_c, 1, 43, 127
2, 81360, Note_on_c, 1, 51, 127
2, 81360, Note_on_c, 1, 73, 127
2, 81360, Note_on_c, 1, 82, 127
2, 81480, Note_off_c, 1, 43, 0
2, 81480, Note_off_c, 1, 51, 0
2, 81480, Note_off_c, 1, 73, 0
2, 81480, Note_off_c, 1, 82, 0
2, 81520, Note_on_c, 1, 43, 127
2, 81520, Note_on_c, 1, 55, 127
2, 81520, Note_on_c, 1, 71, 127
2, 81520, Note_on_c, 1, 76, 127
2, 81520, Note_on_c, 1, 79, 127
2, 81640, Note_off_c, 1, 43, 0
2, 81640, Note_off_c, 1, 55, 0
2, 81640, Note_off_c, 1, 71, 0
2, 81640, Note_off_c, 1, 76, 0
2, 81640, Note_off_c, 1, 79, 0
2, 81840, Note_on_c, 1, 38, 127
2, 81840, Note_on_c, 1, 41, 127
2, 81840, Note_on_c, 1, 49, 127
2, 81840, Note_on_c, 1, 52, 127
2, 81840, Note_on_c, 1, 55, 127
2, 81840, Note_on_c, 1, 61, 127
2, 81880, Note_off_c, 1, 38, 0
2, 81880, Note_off_c, 1, 49, 0
2, 81880, Note_off_c, 1, 52, 0
2, 81880, Note_off_c, 1, 55, 0
2, 81880, Note_off_c, 1, 61, 0
2, 81880, Note_on_c, 1, 70, 127
2, 81880, Note_on_c, 1, 74, 127
2, 81880, Note_on_c, 1, 77, 127
2, 81920, Note_off_c, 1, 41, 0
2, 81920, Note_off_c, 1, 70, 0
2, 81920, Note_off_c, 1, 74, 0
2, 81920, Note_off_c, 1, 77, 0
2, 82160, Note_on_c, 1, 37, 127
2, 82160, Note_on_c, 1, 49, 127
2, 82160, Note_on_c, 1, 61, 127
2, 82160, Note_on_c, 1, 70, 127
2, 82160, Note_on_c, 1, 73, 127
2, 82160, Note_on_c, 1, 75, 127
2, 82200, Note_off_c, 1, 37, 0
2, 82200, Note_off_c, 1, 49, 0
2, 82200, Note_off_c, 1, 61, 0
2, 82200, Note_off_c, 1, 70, 0
2, 82200, Note_off_c, 1, 73, 0
2, 82200, Note_off_c, 1, 75, 0
2, 82480, Note_on_c, 1, 49, 127
2, 82480, Note_on_c, 1, 58, 127
2, 82480, Note_on_c, 1, 61, 127
2, 82480, Note_on_c, 1, 66, 127
2, 82480, Note_on_c, 1, 73, 127
2, 82560, Note_off_c, 1, 49, 0
2, 82560, Note_off_c, 1, 58, 0
2, 82560, Note_off_c, 1, 61, 0
2, 82560, Note_off_c, 1, 66, 0
2, 82560, Note_off_c, 1, 73, 0
2, 82640, Note_on_c, 1, 42, 127
2, 82640, Note_on_c, 1, 54, 127
2, 82640, Note_on_c, 1, 58, 127
2, 82640, Note_on_c, 1, 63, 127
2, 82640, Note_on_c, 1, 66, 127
2, 82640, Note_on_c, 1, 70, 127
2, 82680, Note_off_c, 1, 42, 0
2, 82680, Note_off_c, 1, 54, 0
2, 82680, Note_off_c, 1, 58, 0
2, 82680, Note_off_c, 1, 63, 0
2, 82680, Note_off_c, 1, 66, 0
2, 82680, Note_off_c, 1, 70, 0
2, 82920, Note_on_c, 1, 25, 127
2, 82920, Note_on_c, 1, 37, 127
2, 82920, Note_on_c, 1, 49, 127
2, 82960, Note_off_c, 1, 25, 0
2, 82960, Note_off_c, 1, 37, 0
2, 82960, Note_off_c, 1, 49, 0
2, 83240, Note_on_c, 1, 47, 127
2, 83240, Note_on_c, 1, 54, 127
2, 83240, Note_on_c, 1, 59, 127
2, 83240, Note_on_c, 1, 73, 127
2, 83280, Note_on_c, 1, 38, 127
2, 83280, Note_off_c, 1, 47, 0
2, 83280, Note_on_c, 1, 50, 127
2, 83280, Note_off_c, 1, 54, 0
2, 83280, Note_off_c, 1, 59, 0
2, 83280, Note_on_c, 1, 60, 127
2, 83280, Note_off_c, 1, 73, 0
2, 83280, Note_on_c, 1, 76, 127
2, 83320, Note_off_c, 1, 38, 0
2, 83320, Note_off_c, 1, 50, 0
2, 83320, Note_off_c, 1, 60, 0
2, 83320, Note_off_c, 1, 76, 0
2, 83400, Note_on_c, 1, 39, 127
2, 83400, Note_on_c, 1, 51, 127
2, 83400, Note_on_c, 1, 63, 127
2, 83400, Note_on_c, 1, 69, 127
2, 83400, Note_on_c, 1, 72, 127
2, 83640, Note_off_c, 1, 39, 0
2, 83640, Note_off_c, 1, 51, 0
2, 83640, Note_off_c, 1, 63, 0
2, 83640, Note_off_c, 1, 69, 0
2, 83640, Note_off_c, 1, 72, 0
2, 83680, Note_on_c, 1, 32, 127
2, 83680, Note_on_c, 1, 44, 127
2, 83680, Note_on_c, 1, 59, 127
2, 83680, Note_on_c, 1, 68, 127
2, 83720, Note_off_c, 1, 59, 0
2, 83720, Note_on_c, 1, 60, 127
2, 83720, Note_on_c, 1, 63, 127
2, 83760, Note_off_c, 1, 32, 0
2, 83760, Note_off_c, 1, 44, 0
2, 83760, Note_off_c, 1, 60, 0
2, 83760, Note_off_c, 1, 63, 0
2, 83760, Note_off_c, 1, 68, 0
2, 83840, Note_on_c, 1, 32, 127
2, 83840, Note_on_c, 1, 44, 127
2, 83840, Note_on_c, 1, 63, 127
2, 83920, Note_off_c, 1, 32, 0
2, 83920, Note_off_c, 1, 44, 0
2, 83920, Note_off_c, 1, 63, 0
2, 84000, Note_on_c, 1, 32, 127
2, 84000, Note_on_c, 1, 44, 127
2, 84000, Note_on_c, 1, 60, 127
2, 84000, Note_on_c, 1, 63, 127
2, 84080, Note_off_c, 1, 32, 0
2, 84080, Note_off_c, 1, 44, 0
2, 84080, Note_off_c, 1, 60, 0
2, 84080, Note_off_c, 1, 63, 0
2, 84160, Note_on_c, 1, 32, 127
2, 84160, Note_on_c, 1, 44, 127
2, 84160, Note_on_c, 1, 60, 127
2, 84160, Note_on_c, 1, 63, 127
2, 84240, Note_off_c, 1, 32, 0
2, 84240, Note_off_c, 1, 44, 0
2, 84240, Note_off_c, 1, 60, 0
2, 84240, Note_off_c, 1, 63, 0
2, 84320, Note_on_c, 1, 34, 127
2, 84320, Note_on_c, 1, 46, 127
2, 84320, Note_on_c, 1, 53, 127
2, 84320, Note_on_c, 1, 58, 127
2, 84320, Note_on_c, 1, 62, 127
2, 84440, Note_off_c, 1, 34, 0
2, 84440, Note_off_c, 1, 46, 0
2, 84440, Note_off_c, 1, 53, 0
2, 84440, Note_off_c, 1, 58, 0
2, 84440, Note_off_c, 1, 62, 0
2, 84480, Note_on_c, 1, 36, 127
2, 84480, Note_on_c, 1, 48, 127
2, 84480, Note_on_c, 1, 79, 127
2, 84480, Note_on_c, 1, 82, 127
2, 84480, Note_on_c, 1, 84, 127
2, 84480, Note_on_c, 1, 88, 127
2, 84600, Note_off_c, 1, 36, 0
2, 84600, Note_off_c, 1, 48, 0
2, 84600, Note_off_c, 1, 79, 0
2, 84600, Note_off_c, 1, 82, 0
2, 84600, Note_off_c, 1, 84, 0
2, 84600, Note_off_c, 1, 88, 0
2, 84640, Note_on_c, 1, 36, 127
2, 84640, Note_on_c, 1, 48, 127
2, 84640, Note_on_c, 1, 79, 127
2, 84640, Note_on_c, 1, 82, 127
2, 84640, Note_on_c, 1, 84, 127
2, 84640, Note_on_c, 1, 88, 127
2, 84760, Note_off_c, 1, 36, 0
2, 84760, Note_off_c, 1, 48, 0
2, 84760, Note_off_c, 1, 79, 0
2, 84760, Note_off_c, 1, 82, 0
2, 84760, Note_off_c, 1, 84, 0
2, 84760, Note_off_c, 1, 88, 0
2, 84800, Note_on_c, 1, 55, 127
2, 84800, Note_on_c, 1, 67, 127
2, 84800, Note_on_c, 1, 75, 127
2, 84800, Note_on_c, 1, 82, 127
2, 84800, Note_on_c, 1, 87, 127
2, 84880, Note_off_c, 1, 55, 0
2, 84880, Note_off_c, 1, 67, 0
2, 84880, Note_off_c, 1, 75, 0
2, 84880, Note_off_c, 1, 82, 0
2, 84880, Note_off_c, 1, 87, 0
2, 84920, Note_on_c, 1, 56, 127
2, 84920, Note_on_c, 1, 58, 127
2, 84920, Note_on_c, 1, 61, 127
2, 84920, Note_on_c, 1, 65, 127
2, 84920, Note_on_c, 1, 82, 127
2, 84960, Note_off_c, 1, 56, 0
2, 84960, Note_off_c, 1, 58, 0
2, 84960, Note_off_c, 1, 61, 0
2, 84960, Note_off_c, 1, 65, 0
2, 84960, Note_off_c, 1, 82, 0
2, 85080, Note_on_c, 1, 56, 127
2, 85080, Note_on_c, 1, 58, 127
2, 85080, Note_on_c, 1, 61, 127
2, 85080, Note_on_c, 1, 65, 127
2, 85080, Note_on_c, 1, 82, 127
2, 85120, Note_off_c, 1, 56, 0
2, 85120, Note_off_c, 1, 58, 0
2, 85120, Note_off_c, 1, 61, 0
2, 85120, Note_off_c, 1, 65, 0
2, 85120, Note_off_c, 1, 82, 0
2, 85240, Note_on_c, 1, 54, 127
2, 85240, Note_on_c, 1, 64, 127
2, 85240, Note_on_c, 1, 66, 127
2, 85240, Note_on_c, 1, 81, 127
2, 85240, Note_on_c, 1, 85, 127
2, 85280, Note_off_c, 1, 54, 0
2, 85280, Note_off_c, 1, 64, 0
2, 85280, Note_off_c, 1, 66, 0
2, 85280, Note_off_c, 1, 81, 0
2, 85280, Note_off_c, 1, 85, 0
2, 85400, Note_on_c, 1, 67, 127
2, 85400, Note_on_c, 1, 71, 127
2, 85400, Note_on_c, 1, 78, 127
2, 85400, Note_on_c, 1, 88, 127
2, 85400, Note_on_c, 1, 95, 127
2, 85400, Note_on_c, 1, 100, 127
2, 85440, Note_off_c, 1, 67, 0
2, 85440, Note_off_c, 1, 71, 0
2, 85440, Note_off_c, 1, 78, 0
2, 85440, Note_off_c, 1, 88, 0
2, 85440, Note_off_c, 1, 95, 0
2, 85440, Note_off_c, 1, 100, 0
2, 85520, Note_on_c, 1, 55, 127
2, 85520, Note_on_c, 1, 63, 127
2, 85520, Note_on_c, 1, 79, 127
2, 85520, Note_on_c, 1, 83, 127
2, 85520, Note_on_c, 1, 91, 127
2, 85560, Note_off_c, 1, 55, 0
2, 85560, Note_off_c, 1, 63, 0
2, 85560, Note_off_c, 1, 79, 0
2, 85560, Note_off_c, 1, 83, 0
2, 85560, Note_off_c, 1, 91, 0
2, 85680, Note_on_c, 1, 39, 127
2, 85680, Note_on_c, 1, 51, 127
2, 85680, Note_on_c, 1, 71, 127
2, 85680, Note_on_c, 1, 75, 127
2, 85680, Note_on_c, 1, 78, 127
2, 85680, Note_on_c, 1, 83, 127
2, 85720, Note_off_c, 1, 39, 0
2, 85720, Note_off_c, 1, 51, 0
2, 85720, Note_off_c, 1, 71, 0
2, 85720, Note_off_c, 1, 75, 0
2, 85720, Note_off_c, 1, 78, 0
2, 85720, Note_off_c, 1, 83, 0
2, 85840, Note_on_c, 1, 24, 127
2, 85840, Note_on_c, 1, 36, 127
2, 85840, Note_on_c, 1, 48, 127
2, 85840, Note_on_c, 1, 52, 127
2, 85840, Note_on_c, 1, 55, 127
2, 85840, Note_on_c, 1, 60, 127
2, 85880, Note_off_c, 1, 24, 0
2, 85880, Note_off_c, 1, 36, 0
2, 85880, Note_off_c, 1, 48, 0
2, 85880, Note_off_c, 1, 52, 0
2, 85880, Note_off_c, 1, 55, 0
2, 85880, Note_off_c, 1, 60, 0
2, 86480, Note_on_c, 1, 63, 127
2, 86480, Note_on_c, 1, 70, 127
2, 86480, Note_on_c, 1, 75, 127
2, 86480, Note_on_c, 1, 78, 127
2, 86480, Note_on_c, 1, 82, 127
2, 86480, Note_on_c, 1, 90, 127
2, 86560, Note_off_c, 1, 63, 0
2, 86560, Note_off_c, 1, 70, 0
2, 86560, Note_off_c, 1, 75, 0
2, 86560, Note_off_c, 1, 78, 0
2, 86560, Note_off_c, 1, 82, 0
2, 86560, Note_off_c, 1, 90, 0
2, 86600, Note_on_c, 1, 63, 127
2, 86600, Note_on_c, 1, 70, 127
2, 86600, Note_on_c, 1, 75, 127
2, 86600, Note_on_c, 1, 78, 127
2, 86600, Note_on_c, 1, 82, 127
2, 86600, Note_on_c, 1, 90, 127
2, 86720, Note_off_c, 1, 63, 0
2, 86720, Note_off_c, 1, 70, 0
2, 86720, Note_off_c, 1, 75, 0
2, 86720, Note_off_c, 1, 78, 0
2, 86720, Note_off_c, 1, 82, 0
2, 86720, Note_off_c, 1, 90, 0
2, 86760, Note_on_c, 1, 63, 127
2, 86760, Note_on_c, 1, 70, 127
2, 86760, Note_on_c, 1, 75, 127
2, 86760, Note_on_c, 1, 77, 127
2, 86760, Note_on_c, 1, 82, 127
2, 86760, Note_on_c, 1, 89, 127
2, 86800, Note_off_c, 1, 63, 0
2, 86800, Note_off_c, 1, 70, 0
2, 86800, Note_off_c, 1, 75, 0
2, 86800, Note_off_c, 1, 77, 0
2, 86800, Note_off_c, 1, 82, 0
2, 86800, Note_off_c, 1, 89, 0
2, 86920, Note_on_c, 1, 63, 127
2, 86920, Note_on_c, 1, 70, 127
2, 86920, Note_on_c, 1, 75, 127
2, 86920, Note_on_c, 1, 82, 127
2, 86920, Note_on_c, 1, 87, 127
2, 87000, Note_off_c, 1, 63, 0
2, 87000, Note_off_c, 1, 70, 0
2, 87000, Note_off_c, 1, 75, 0
2, 87000, Note_off_c, 1, 82, 0
2, 87000, Note_off_c, 1, 87, 0
2, 87040, Note_on_c, 1, 60, 127
2, 87040, Note_on_c, 1, 64, 127
2, 87040, Note_on_c, 1, 67, 127
2, 87040, Note_on_c, 1, 72, 127
2, 87040, Note_on_c, 1, 74, 127
2, 87080, Note_on_c, 1, 35, 127
2, 87080, Note_on_c, 1, 42, 127
2, 87080, Note_off_c, 1, 60, 0
2, 87080, Note_on_c, 1, 70, 127
2, 87080, Note_off_c, 1, 72, 0
2, 87080, Note_on_c, 1, 73, 127
2, 87080, Note_off_c, 1, 74, 0
2, 87120, Note_on_c, 1, 27, 127
2, 87120, Note_off_c, 1, 35, 0
2, 87120, Note_on_c, 1, 39, 127
2, 87120, Note_off_c, 1, 42, 0
2, 87120, Note_on_c, 1, 47, 127
2, 87120, Note_on_c, 1, 54, 127
2, 87120, Note_on_c, 1, 59, 127
2, 87120, Note_off_c, 1, 64, 0
2, 87120, Note_off_c, 1, 67, 0
2, 87120, Note_off_c, 1, 70, 0
2, 87120, Note_on_c, 1, 71, 127
2, 87120, Note_on_c, 1, 72, 127
2, 87120, Note_off_c, 1, 73, 0
2, 87120, Note_on_c, 1, 78, 127
2, 87120, Note_on_c, 1, 83, 127
2, 87160, Note_off_c, 1, 27, 0
2, 87160, Note_off_c, 1, 39, 0
2, 87160, Note_off_c, 1, 47, 0
2, 87160, Note_off_c, 1, 54, 0
2, 87160, Note_off_c, 1, 59, 0
2, 87160, Note_off_c, 1, 71, 0
2, 87160, Note_off_c, 1, 72, 0
2, 87160, Note_off_c, 1, 78, 0
2, 87160, Note_off_c, 1, 83, 0
2, 87360, Note_on_c, 1, 52, 127
2, 87360, Note_on_c, 1, 61, 127
2, 87360, Note_on_c, 1, 68, 127
2, 87360, Note_on_c, 1, 85, 127
2, 87400, Note_on_c, 1, 48, 127
2, 87400, Note_off_c, 1, 52, 0
2, 87400, Note_on_c, 1, 55, 127
2, 87400, Note_on_c, 1, 58, 127
2, 87400, Note_off_c, 1, 61, 0
2, 87400, Note_on_c, 1, 64, 127
2, 87400, Note_off_c, 1, 68, 0
2, 87400, Note_on_c, 1, 72, 127
2, 87400, Note_on_c, 1, 76, 127
2, 87400, Note_off_c, 1, 85, 0
2, 87440, Note_off_c, 1, 48, 0
2, 87440, Note_off_c, 1, 55, 0
2, 87440, Note_off_c, 1, 58, 0
2, 87440, Note_off_c, 1, 64, 0
2, 87440, Note_off_c, 1, 72, 0
2, 87440, Note_off_c, 1, 76, 0
2, 87520, Note_on_c, 1, 46, 127
2, 87520, Note_on_c, 1, 86, 127
2, 87560, Note_off_c, 1, 46, 0
2, 87560, Note_off_c, 1, 86, 0
2, 87680, Note_on_c, 1, 53, 127
2, 87680, Note_on_c, 1, 65, 127
2, 87680, Note_on_c, 1, 74, 127
2, 87680, Note_on_c, 1, 77, 127
2, 87720, Note_off_c, 1, 53, 0
2, 87720, Note_off_c, 1, 65, 0
2, 87720, Note_off_c, 1, 74, 0
2, 87720, Note_off_c, 1, 77, 0
2, 87760, Note_on_c, 1, 53, 127
2, 87760, Note_on_c, 1, 65, 127
2, 87760, Note_on_c, 1, 74, 127
2, 87760, Note_on_c, 1, 77, 127
2, 87800, Note_off_c, 1, 53, 0
2, 87800, Note_off_c, 1, 65, 0
2, 87800, Note_off_c, 1, 74, 0
2, 87800, Note_off_c, 1, 77, 0
2, 87840, Note_on_c, 1, 59, 127
2, 87840, Note_on_c, 1, 74, 127
2, 87840, Note_on_c, 1, 77, 127
2, 87880, Note_off_c, 1, 59, 0
2, 87880, Note_off_c, 1, 74, 0
2, 87880, Note_off_c, 1, 77, 0
2, 88000, Note_on_c, 1, 48, 127
2, 88000, Note_on_c, 1, 82, 127
2, 88000, Note_on_c, 1, 84, 127
2, 88040, Note_off_c, 1, 48, 0
2, 88040, Note_off_c, 1, 82, 0
2, 88040, Note_off_c, 1, 84, 0
2, 88120, Note_on_c, 1, 43, 127
2, 88120, Note_on_c, 1, 88, 127
2, 88160, Note_off_c, 1, 43, 0
2, 88160, Note_off_c, 1, 88, 0
2, 88280, Note_on_c, 1, 53, 127
2, 88280, Note_on_c, 1, 56, 127
2, 88280, Note_on_c, 1, 61, 127
2, 88280, Note_on_c, 1, 82, 127
2, 88280, Note_on_c, 1, 84, 127
2, 88320, Note_off_c, 1, 53, 0
2, 88320, Note_off_c, 1, 56, 0
2, 88320, Note_off_c, 1, 61, 0
2, 88320, Note_off_c, 1, 82, 0
2, 88320, Note_off_c, 1, 84, 0
2, 88480, Note_on_c, 1, 63, 127
2, 88480, Note_on_c, 1, 64, 127
2, 88480, Note_on_c, 1, 68, 127
2, 88480, Note_on_c, 1, 71, 127
2, 88480, Note_on_c, 1, 75, 127
2, 88520, Note_off_c, 1, 63, 0
2, 88520, Note_off_c, 1, 64, 0
2, 88520, Note_off_c, 1, 68, 0
2, 88520, Note_off_c, 1, 71, 0
2, 88520, Note_off_c, 1, 75, 0
2, 88600, Note_on_c, 1, 43, 127
2, 88600, Note_on_c, 1, 55, 127
2, 88600, Note_on_c, 1, 59, 127
2, 88600, Note_on_c, 1, 62, 127
2, 88600, Note_on_c, 1, 67, 127
2, 88600, Note_on_c, 1, 71, 127
2, 88600, Note_on_c, 1, 73, 127
2, 88640, Note_off_c, 1, 43, 0
2, 88640, Note_off_c, 1, 55, 0
2, 88640, Note_off_c, 1, 59, 0
2, 88640, Note_off_c, 1, 62, 0
2, 88640, Note_off_c, 1, 67, 0
2, 88640, Note_off_c, 1, 71, 0
2, 88640, Note_off_c, 1, 73, 0
2, 88760, Note_on_c, 1, 40, 127
2, 88760, Note_on_c, 1, 52, 127
2, 88760, Note_on_c, 1, 82, 127
2, 88760, Note_on_c, 1, 85, 127
2, 88760, Note_on_c, 1, 91, 127
2, 88760, Note_on_c, 1, 94, 127
2, 88960, Note_off_c, 1, 40, 0
2, 88960, Note_off_c, 1, 52, 0
2, 88960, Note_off_c, 1, 82, 0
2, 88960, Note_off_c, 1, 85, 0
2, 88960, Note_off_c, 1, 91, 0
2, 88960, Note_off_c, 1, 94, 0
2, 89080, Note_on_c, 1, 45, 127
2, 89080, Note_on_c, 1, 57, 127
2, 89080, Note_on_c, 1, 73, 127
2, 89080, Note_on_c, 1, 76, 127
2, 89080, Note_on_c, 1, 85, 127
2, 89120, Note_off_c, 1, 45, 0
2, 89120, Note_off_c, 1, 57, 0
2, 89120, Note_on_c, 1, 66, 127
2, 89120, Note_on_c, 1, 69, 127
2, 89120, Note_off_c, 1, 73, 0
2, 89120, Note_off_c, 1, 76, 0
2, 89120, Note_on_c, 1, 78, 127
2, 89120, Note_on_c, 1, 81, 127
2, 89120, Note_off_c, 1, 85, 0
2, 89160, Note_off_c, 1, 66, 0
2, 89160, Note_off_c, 1, 69, 0
2, 89160, Note_off_c, 1, 78, 0
2, 89160, Note_off_c, 1, 81, 0
2, 89240, Note_on_c, 1, 50, 127
2, 89240, Note_on_c, 1, 62, 127
2, 89240, Note_on_c, 1, 76, 127
2, 89240, Note_on_c, 1, 79, 127
2, 89240, Note_on_c, 1, 84, 127
2, 89280, Note_off_c, 1, 50, 0
2, 89280, Note_off_c, 1, 62, 0
2, 89280, Note_off_c, 1, 76, 0
2, 89280, Note_off_c, 1, 79, 0
2, 89280, Note_off_c, 1, 84, 0
2, 89400, Note_on_c, 1, 76, 127
2, 89400, Note_on_c, 1, 79, 127
2, 89400, Note_on_c, 1, 83, 127
2, 89400, Note_on_c, 1, 88, 127
2, 89400, Note_on_c, 1, 91, 127
2, 89520, Note_off_c, 1, 76, 0
2, 89520, Note_off_c, 1, 79, 0
2, 89520, Note_off_c, 1, 83, 0
2, 89520, Note_off_c, 1, 88, 0
2, 89520, Note_off_c, 1, 91, 0
2, 89560, Note_on_c, 1, 48, 127
2, 89560, Note_on_c, 1, 75, 127
2, 89560, Note_on_c, 1, 84, 127
2, 89600, Note_off_c, 1, 75, 0
2, 89640, Note_off_c, 1, 48, 0
2, 89640, Note_off_c, 1, 84, 0
2, 89680, Note_on_c, 1, 48, 127
2, 89680, Note_on_c, 1, 87, 127
2, 89760, Note_off_c, 1, 48, 0
2, 89760, Note_off_c, 1, 87, 0
2, 89840, Note_on_c, 1, 49, 127
2, 89840, Note_on_c, 1, 72, 127
2, 89840, Note_on_c, 1, 78, 127
2, 89960, Note_off_c, 1, 49, 0
2, 89960, Note_off_c, 1, 72, 0
2, 89960, Note_off_c, 1, 78, 0
2, 90000, Note_on_c, 1, 51, 127
2, 90000, Note_on_c, 1, 72, 127
2, 90000, Note_on_c, 1, 78, 127
2, 90040, Note_off_c, 1, 51, 0
2, 90040, Note_off_c, 1, 72, 0
2, 90040, Note_off_c, 1, 78, 0
2, 90160, Note_on_c, 1, 67, 127
2, 90160, Note_on_c, 1, 73, 127
2, 90160, Note_on_c, 1, 82, 127
2, 90200, Note_on_c, 1, 61, 127
2, 90200, Note_off_c, 1, 67, 0
2, 90200, Note_on_c, 1, 71, 127
2, 90200, Note_off_c, 1, 73, 0
2, 90200, Note_on_c, 1, 76, 127
2, 90200, Note_off_c, 1, 82, 0
2, 90200, Note_on_c, 1, 83, 127
2, 90240, Note_on_c, 1, 50, 127
2, 90240, Note_on_c, 1, 55, 127
2, 90240, Note_off_c, 1, 61, 0
2, 90240, Note_on_c, 1, 65, 127
2, 90240, Note_on_c, 1, 67, 127
2, 90240, Note_off_c, 1, 76, 0
2, 90240, Note_off_c, 1, 83, 0
2, 90280, Note_off_c, 1, 50, 0
2, 90280, Note_off_c, 1, 55, 0
2, 90280, Note_on_c, 1, 60, 127
2, 90280, Note_on_c, 1, 63, 127
2, 90280, Note_off_c, 1, 65, 0
2, 90280, Note_on_c, 1, 66, 127
2, 90280, Note_off_c, 1, 67, 0
2, 90280, Note_off_c, 1, 71, 0
2, 90280, Note_on_c, 1, 74, 127
2, 90280, Note_on_c, 1, 78, 127
2, 90320, Note_off_c, 1, 60, 0
2, 90320, Note_off_c, 1, 63, 0
2, 90320, Note_off_c, 1, 66, 0
2, 90320, Note_off_c, 1, 78, 0
2, 90320, Note_on_c, 1, 84, 127
2, 90360, Note_on_c, 1, 56, 127
2, 90360, Note_on_c, 1, 65, 127
2, 90360, Note_on_c, 1, 68, 127
2, 90360, Note_on_c, 1, 71, 127
2, 90360, Note_off_c, 1, 74, 0
2, 90360, Note_on_c, 1, 77, 127
2, 90360, Note_off_c, 1, 84, 0
2, 90400, Note_off_c, 1, 56, 0
2, 90400, Note_off_c, 1, 65, 0
2, 90400, Note_off_c, 1, 68, 0
2, 90400, Note_off_c, 1, 71, 0
2, 90400, Note_off_c, 1, 77, 0
2, 90440, Note_on_c, 1, 63, 127
2, 90440, Note_on_c, 1, 80, 127
2, 90440, Note_on_c, 1, 84, 127
2, 90440, Note_on_c, 1, 87, 127
2, 90480, Note_off_c, 1, 63, 0
2, 90480, Note_off_c, 1, 80, 0
2, 90480, Note_off_c, 1, 84, 0
2, 90480, Note_off_c, 1, 87, 0
2, 90640, Note_on_c, 1, 62, 127
2, 90640, Note_on_c, 1, 80, 127
2, 90640, Note_on_c, 1, 89, 127
2, 90640, Note_on_c, 1, 92, 127
2, 90760, Note_off_c, 1, 62, 0
2, 90760, Note_on_c, 1, 73, 127
2, 90760, Note_on_c, 1, 76, 127
2, 90760, Note_off_c, 1, 80, 0
2, 90760, Note_on_c, 1, 85, 127
2, 90760, Note_off_c, 1, 89, 0
2, 90760, Note_off_c, 1, 92, 0
2, 90800, Note_on_c, 1, 59, 127
2, 90800, Note_on_c, 1, 71, 127
2, 90800, Note_off_c, 1, 73, 0
2, 90800, Note_off_c, 1, 76, 0
2, 90800, Note_on_c, 1, 79, 127
2, 90800, Note_off_c, 1, 85, 0
2, 90800, Note_on_c, 1, 87, 127
2, 90800, Note_on_c, 1, 91, 127
2, 90880, Note_off_c, 1, 59, 0
2, 90880, Note_off_c, 1, 71, 0
2, 90880, Note_off_c, 1, 79, 0
2, 90880, Note_on_c, 1, 80, 127
2, 90880, Note_off_c, 1, 87, 0
2, 90880, Note_on_c, 1, 89, 127
2, 90880, Note_off_c, 1, 91, 0
2, 90880, Note_on_c, 1, 92, 127
2, 90920, Note_on_c, 1, 59, 127
2, 90920, Note_on_c, 1, 71, 127
2, 90920, Note_on_c, 1, 79, 127
2, 90920, Note_off_c, 1, 80, 0
2, 90920, Note_on_c, 1, 87, 127
2, 90920, Note_off_c, 1, 89, 0
2, 90920, Note_on_c, 1, 91, 127
2, 90920, Note_off_c, 1, 92, 0
2, 90960, Note_on_c, 1, 47, 127
2, 90960, Note_off_c, 1, 59, 0
2, 90960, Note_off_c, 1, 71, 0
2, 90960, Note_off_c, 1, 79, 0
2, 90960, Note_on_c, 1, 80, 127
2, 90960, Note_on_c, 1, 83, 127
2, 90960, Note_off_c, 1, 91, 0
2, 90960, Note_on_c, 1, 92, 127
2, 91000, Note_off_c, 1, 47, 0
2, 91000, Note_on_c, 1, 51, 127
2, 91000, Note_off_c, 1, 80, 0
2, 91000, Note_on_c, 1, 82, 127
2, 91000, Note_off_c, 1, 83, 0
2, 91000, Note_on_c, 1, 85, 127
2, 91000, Note_off_c, 1, 87, 0
2, 91000, Note_on_c, 1, 91, 127
2, 91000, Note_off_c, 1, 92, 0
2, 91040, Note_off_c, 1, 51, 0
2, 91040, Note_off_c, 1, 82, 0
2, 91040, Note_off_c, 1, 85, 0
2, 91040, Note_off_c, 1, 91, 0
2, 91080, Note_on_c, 1, 62, 127
2, 91080, Note_on_c, 1, 67, 127
2, 91080, Note_on_c, 1, 70, 127
2, 91080, Note_on_c, 1, 91, 127
2, 91120, Note_off_c, 1, 62, 0
2, 91120, Note_off_c, 1, 67, 0
2, 91120, Note_off_c, 1, 70, 0
2, 91120, Note_off_c, 1, 91, 0
2, 91160, Note_on_c, 1, 62, 127
2, 91160, Note_on_c, 1, 89, 127
2, 91200, Note_on_c, 1, 60, 127
2, 91200, Note_off_c, 1, 62, 0
2, 91200, Note_off_c, 1, 89, 0
2, 91200, Note_on_c, 1, 91, 127
2, 91240, Note_off_c, 1, 60, 0
2, 91240, Note_on_c, 1, 75, 127
2, 91240, Note_on_c, 1, 79, 127
2, 91360, Note_off_c, 1, 75, 0
2, 91360, Note_off_c, 1, 79, 0
2, 91360, Note_off_c, 1, 91, 0
2, 91400, Note_on_c, 1, 75, 127
2, 91400, Note_on_c, 1, 96, 127
2, 91440, Note_off_c, 1, 75, 0
2, 91480, Note_on_c, 1, 74, 127
2, 91480, Note_on_c, 1, 82, 127
2, 91480, Note_on_c, 1, 94, 127
2, 91480, Note_off_c, 1, 96, 0
2, 91520, Note_off_c, 1, 74, 0
2, 91520, Note_off_c, 1, 82, 0
2, 91520, Note_off_c, 1, 94, 0
2, 91560, Note_on_c, 1, 67, 127
2, 91560, Note_on_c, 1, 82, 127
2, 91560, Note_on_c, 1, 94, 127
2, 91640, Note_off_c, 1, 67, 0
2, 91640, Note_off_c, 1, 82, 0
2, 91640, Note_off_c, 1, 94, 0
2, 91680, Note_on_c, 1, 70, 127
2, 91680, Note_on_c, 1, 79, 127
2, 91680, Note_on_c, 1, 91, 127
2, 91800, Note_off_c, 1, 70, 0
2, 91800, Note_off_c, 1, 79, 0
2, 91800, Note_off_c, 1, 91, 0
2, 91840, Note_on_c, 1, 67, 127
2, 91840, Note_on_c, 1, 79, 127
2, 91840, Note_on_c, 1, 82, 127
2, 91960, Note_off_c, 1, 67, 0
2, 91960, Note_off_c, 1, 79, 0
2, 91960, Note_off_c, 1, 82, 0
2, 92000, Note_on_c, 1, 67, 127
2, 92000, Note_on_c, 1, 79, 127
2, 92000, Note_on_c, 1, 83, 127
2, 92080, Note_off_c, 1, 67, 0
2, 92080, Note_off_c, 1, 79, 0
2, 92080, Note_off_c, 1, 83, 0
2, 92120, Note_on_c, 1, 62, 127
2, 92120, Note_on_c, 1, 78, 127
2, 92120, Note_on_c, 1, 86, 127
2, 92160, Note_off_c, 1, 62, 0
2, 92160, Note_off_c, 1, 78, 0
2, 92160, Note_on_c, 1, 79, 127
2, 92160, Note_on_c, 1, 82, 127
2, 92160, Note_off_c, 1, 86, 0
2, 92160, Note_on_c, 1, 88, 127
2, 92160, Note_on_c, 1, 100, 127
2, 92200, Note_on_c, 1, 45, 127
2, 92200, Note_on_c, 1, 52, 127
2, 92200, Note_off_c, 1, 79, 0
2, 92200, Note_off_c, 1, 82, 0
2, 92200, Note_on_c, 1, 83, 127
2, 92200, Note_off_c, 1, 88, 0
2, 92200, Note_on_c, 1, 91, 127
2, 92200, Note_on_c, 1, 95, 127
2, 92200, Note_off_c, 1, 100, 0
2, 92240, Note_off_c, 1, 45, 0
2, 92240, Note_off_c, 1, 52, 0
2, 92240, Note_on_c, 1, 76, 127
2, 92240, Note_on_c, 1, 80, 127
2, 92240, Note_off_c, 1, 83, 0
2, 92240, Note_off_c, 1, 91, 0
2, 92240, Note_on_c, 1, 92, 127
2, 92240, Note_off_c, 1, 95, 0
2, 92240, Note_on_c, 1, 100, 127
2, 92280, Note_on_c, 1, 70, 127
2, 92280, Note_on_c, 1, 73, 127
2, 92280, Note_off_c, 1, 76, 0
2, 92280, Note_off_c, 1, 80, 0
2, 92280, Note_on_c, 1, 87, 127
2, 92280, Note_off_c, 1, 92, 0
2, 92280, Note_on_c, 1, 94, 127
2, 92280, Note_off_c, 1, 100, 0
2, 92320, Note_off_c, 1, 70, 0
2, 92320, Note_off_c, 1, 73, 0
2, 92320, Note_off_c, 1, 87, 0
2, 92320, Note_on_c, 1, 90, 127
2, 92320, Note_off_c, 1, 94, 0
2, 92320, Note_on_c, 1, 96, 127
2, 92320, Note_on_c, 1, 99, 127
2, 92320, Note_on_c, 1, 105, 127
2, 92360, Note_on_c, 1, 69, 127
2, 92360, Note_on_c, 1, 75, 127
2, 92360, Note_on_c, 1, 78, 127
2, 92360, Note_on_c, 1, 87, 127
2, 92360, Note_off_c, 1, 96, 0
2, 92360, Note_off_c, 1, 99, 0
2, 92360, Note_off_c, 1, 105, 0
2, 92400, Note_off_c, 1, 69, 0
2, 92400, Note_off_c, 1, 75, 0
2, 92400, Note_off_c, 1, 78, 0
2, 92400, Note_off_c, 1, 87, 0
2, 92400, Note_off_c, 1, 90, 0
2, 92440, Note_on_c, 1, 62, 127
2, 92480, Note_on_c, 1, 71, 127
2, 92480, Note_on_c, 1, 92, 127
2, 92480, Note_on_c, 1, 97, 127
2, 92520, Note_on_c, 1, 59, 127
2, 92520, Note_on_c, 1, 68, 127
2, 92520, Note_on_c, 1, 77, 127
2, 92520, Note_on_c, 1, 80, 127
2, 92520, Note_on_c, 1, 89, 127
2, 92520, Note_off_c, 1, 92, 0
2, 92520, Note_off_c, 1, 97, 0
2, 92560, Note_off_c, 1, 59, 0
2, 92560, Note_off_c, 1, 62, 0
2, 92560, Note_off_c, 1, 68, 0
2, 92560, Note_off_c, 1, 71, 0
2, 92560, Note_off_c, 1, 77, 0
2, 92560, Note_off_c, 1, 80, 0
2, 92560, Note_off_c, 1, 89, 0
2, 92600, Note_on_c, 1, 58, 127
2, 92600, Note_on_c, 1, 60, 127
2, 92600, Note_on_c, 1, 70, 127
2, 92600, Note_on_c, 1, 75, 127
2, 92600, Note_on_c, 1, 79, 127
2, 92600, Note_on_c, 1, 84, 127
2, 92600, Note_on_c, 1, 87, 127
2, 92720, Note_off_c, 1, 58, 0
2, 92720, Note_off_c, 1, 60, 0
2, 92720, Note_off_c, 1, 70, 0
2, 92720, Note_off_c, 1, 75, 0
2, 92720, Note_off_c, 1, 79, 0
2, 92720, Note_off_c, 1, 84, 0
2, 92720, Note_off_c, 1, 87, 0
2, 92800, Note_on_c, 1, 57, 127
2, 92800, Note_on_c, 1, 60, 127
2, 92800, Note_on_c, 1, 69, 127
2, 92800, Note_on_c, 1, 77, 127
2, 92800, Note_on_c, 1, 84, 127
2, 92800, Note_on_c, 1, 89, 127
2, 93040, Note_off_c, 1, 57, 0
2, 93040, Note_off_c, 1, 60, 0
2, 93040, Note_off_c, 1, 69, 0
2, 93040, Note_off_c, 1, 77, 0
2, 93040, Note_off_c, 1, 84, 0
2, 93040, Note_off_c, 1, 89, 0
2, 93120, Note_on_c, 1, 33, 127
2, 93120, Note_on_c, 1, 45, 127
2, 93120, Note_on_c, 1, 49, 127
2, 93120, Note_on_c, 1, 52, 127
2, 93120, Note_on_c, 1, 57, 127
2, 93160, Note_off_c, 1, 33, 0
2, 93160, Note_off_c, 1, 45, 0
2, 93160, Note_off_c, 1, 49, 0
2, 93160, Note_off_c, 1, 52, 0
2, 93160, Note_off_c, 1, 57, 0
2, 93280, Note_on_c, 1, 53, 127
2, 93280, Note_on_c, 1, 65, 127
2, 93280, Note_on_c, 1, 72, 127
2, 93280, Note_on_c, 1, 77, 127
2, 93280, Note_on_c, 1, 81, 127
2, 93280, Note_on_c, 1, 84, 127
2, 93320, Note_off_c, 1, 53, 0
2, 93320, Note_off_c, 1, 65, 0
2, 93320, Note_off_c, 1, 72, 0
2, 93320, Note_off_c, 1, 77, 0
2, 93320, Note_off_c, 1, 81, 0
2, 93320, Note_off_c, 1, 84, 0
2, 93440, Note_on_c, 1, 53, 127
2, 93440, Note_on_c, 1, 65, 127
2, 93440, Note_on_c, 1, 72, 127
2, 93440, Note_on_c, 1, 77, 127
2, 93440, Note_on_c, 1, 81, 127
2, 93440, Note_on_c, 1, 84, 127
2, 93520, Note_off_c, 1, 53, 0
2, 93520, Note_off_c, 1, 65, 0
2, 93520, Note_off_c, 1, 72, 0
2, 93520, Note_off_c, 1, 77, 0
2, 93520, Note_off_c, 1, 81, 0
2, 93520, Note_off_c, 1, 84, 0
2, 93560, Note_on_c, 1, 53, 127
2, 93560, Note_on_c, 1, 65, 127
2, 93560, Note_on_c, 1, 72, 127
2, 93560, Note_on_c, 1, 77, 127
2, 93560, Note_on_c, 1, 81, 127
2, 93560, Note_on_c, 1, 84, 127
2, 93600, Note_off_c, 1, 53, 0
2, 93600, Note_off_c, 1, 65, 0
2, 93600, Note_off_c, 1, 72, 0
2, 93600, Note_off_c, 1, 77, 0
2, 93600, Note_off_c, 1, 81, 0
2, 93600, Note_off_c, 1, 84, 0
2, 93720, Note_on_c, 1, 53, 127
2, 93720, Note_on_c, 1, 65, 127
2, 93720, Note_on_c, 1, 72, 127
2, 93720, Note_on_c, 1, 77, 127
2, 93720, Note_on_c, 1, 81, 127
2, 93720, Note_on_c, 1, 84, 127
2, 93840, Note_off_c, 1, 53, 0
2, 93840, Note_off_c, 1, 65, 0
2, 93840, Note_off_c, 1, 72, 0
2, 93840, Note_off_c, 1, 77, 0
2, 93840, Note_off_c, 1, 81, 0
2, 93840, Note_off_c, 1, 84, 0
2, 93880, Note_on_c, 1, 49, 127
2, 93880, Note_on_c, 1, 53, 127
2, 93880, Note_on_c, 1, 61, 127
2, 93880, Note_on_c, 1, 73, 127
2, 93880, Note_on_c, 1, 85, 127
2, 93920, Note_off_c, 1, 49, 0
2, 93920, Note_off_c, 1, 53, 0
2, 93920, Note_off_c, 1, 61, 0
2, 93920, Note_off_c, 1, 73, 0
2, 93920, Note_off_c, 1, 85, 0
2, 94040, Note_on_c, 1, 67, 127
2, 94040, Note_on_c, 1, 68, 127
2, 94040, Note_on_c, 1, 79, 127
2, 94040, Note_on_c, 1, 80, 127
2, 94080, Note_on_c, 1, 65, 127
2, 94080, Note_off_c, 1, 67, 0
2, 94080, Note_off_c, 1, 68, 0
2, 94080, Note_on_c, 1, 77, 127
2, 94080, Note_off_c, 1, 79, 0
2, 94080, Note_off_c, 1, 80, 0
2, 94120, Note_off_c, 1, 65, 0
2, 94120, Note_off_c, 1, 77, 0
2, 94160, Note_on_c, 1, 35, 127
2, 94160, Note_on_c, 1, 76, 127
2, 94160, Note_on_c, 1, 79, 127
2, 94160, Note_on_c, 1, 84, 127
2, 94160, Note_on_c, 1, 89, 127
2, 94200, Note_off_c, 1, 35, 0
2, 94200, Note_off_c, 1, 76, 0
2, 94200, Note_off_c, 1, 79, 0
2, 94200, Note_off_c, 1, 84, 0
2, 94200, Note_off_c, 1, 89, 0
2, 94320, Note_on_c, 1, 37, 127
2, 94320, Note_on_c, 1, 41, 127
2, 94320, Note_on_c, 1, 44, 127
2, 94320, Note_on_c, 1, 49, 127
2, 94320, Note_on_c, 1, 77, 127
2, 94320, Note_on_c, 1, 80, 127
2, 94320, Note_on_c, 1, 85, 127
2, 94320, Note_on_c, 1, 89, 127
2, 94360, Note_off_c, 1, 37, 0
2, 94360, Note_off_c, 1, 41, 0
2, 94360, Note_off_c, 1, 44, 0
2, 94360, Note_off_c, 1, 49, 0
2, 94360, Note_off_c, 1, 77, 0
2, 94360, Note_off_c, 1, 80, 0
2, 94360, Note_off_c, 1, 85, 0
2, 94360, Note_off_c, 1, 89, 0
2, 94480, Note_on_c, 1, 37, 127
2, 94480, Note_on_c, 1, 41, 127
2, 94480, Note_on_c, 1, 44, 127
2, 94480, Note_on_c, 1, 49, 127
2, 94480, Note_on_c, 1, 77, 127
2, 94480, Note_on_c, 1, 80, 127
2, 94480, Note_on_c, 1, 85, 127
2, 94480, Note_on_c, 1, 89, 127
2, 94520, Note_off_c, 1, 37, 0
2, 94520, Note_off_c, 1, 41, 0
2, 94520, Note_off_c, 1, 44, 0
2, 94520, Note_off_c, 1, 49, 0
2, 94520, Note_off_c, 1, 77, 0
2, 94520, Note_off_c, 1, 80, 0
2, 94520, Note_off_c, 1, 85, 0
2, 94520, Note_off_c, 1, 89, 0
2, 94600, Note_on_c, 1, 43, 127
2, 94600, Note_on_c, 1, 49, 127
2, 94600, Note_on_c, 1, 58, 127
2, 94600, Note_on_c, 1, 64, 127
2, 94600, Note_on_c, 1, 70, 127
2, 94640, Note_off_c, 1, 43, 0
2, 94640, Note_off_c, 1, 49, 0
2, 94640, Note_off_c, 1, 58, 0
2, 94640, Note_off_c, 1, 64, 0
2, 94640, Note_off_c, 1, 70, 0
2, 94800, Note_on_c, 1, 62, 127
2, 94800, Note_on_c, 1, 65, 127
2, 94800, Note_on_c, 1, 68, 127
2, 94800, Note_on_c, 1, 92, 127
2, 94800, Note_on_c, 1, 101, 127
2, 94840, Note_off_c, 1, 62, 0
2, 94840, Note_off_c, 1, 65, 0
2, 94840, Note_off_c, 1, 68, 0
2, 94840, Note_off_c, 1, 92, 0
2, 94840, Note_off_c, 1, 101, 0
2, 94960, Note_on_c, 1, 66, 127
2, 94960, Note_on_c, 1, 73, 127
2, 94960, Note_on_c, 1, 76, 127
2, 94960, Note_on_c, 1, 78, 127
2, 94960, Note_on_c, 1, 82, 127
2, 94960, Note_on_c, 1, 90, 127
2, 95000, Note_off_c, 1, 66, 0
2, 95000, Note_off_c, 1, 73, 0
2, 95000, Note_off_c, 1, 76, 0
2, 95000, Note_off_c, 1, 78, 0
2, 95000, Note_off_c, 1, 82, 0
2, 95000, Note_off_c, 1, 90, 0
2, 95080, Note_on_c, 1, 50, 127
2, 95080, Note_on_c, 1, 52, 127
2, 95080, Note_on_c, 1, 55, 127
2, 95080, Note_on_c, 1, 58, 127
2, 95080, Note_on_c, 1, 61, 127
2, 95080, Note_on_c, 1, 82, 127
2, 95080, Note_on_c, 1, 85, 127
2, 95080, Note_on_c, 1, 94, 127
2, 95120, Note_off_c, 1, 50, 0
2, 95120, Note_off_c, 1, 52, 0
2, 95120, Note_off_c, 1, 55, 0
2, 95120, Note_off_c, 1, 58, 0
2, 95120, Note_off_c, 1, 61, 0
2, 95120, Note_off_c, 1, 82, 0
2, 95120, Note_off_c, 1, 85, 0
2, 95120, Note_off_c, 1, 94, 0
2, 95240, Note_on_c, 1, 38, 127
2, 95240, Note_on_c, 1, 50, 127
2, 95240, Note_on_c, 1, 77, 127
2, 95240, Note_on_c, 1, 81, 127
2, 95240, Note_on_c, 1, 86, 127
2, 95240, Note_on_c, 1, 89, 127
2, 95280, Note_off_c, 1, 38, 0
2, 95280, Note_off_c, 1, 50, 0
2, 95280, Note_off_c, 1, 77, 0
2, 95280, Note_off_c, 1, 81, 0
2, 95280, Note_off_c, 1, 86, 0
2, 95280, Note_off_c, 1, 89, 0
2, 95400, Note_on_c, 1, 29, 127
2, 95400, Note_on_c, 1, 41, 127
2, 95400, Note_on_c, 1, 50, 127
2, 95400, Note_on_c, 1, 62, 127
2, 95440, Note_off_c, 1, 29, 0
2, 95440, Note_off_c, 1, 41, 0
2, 95440, Note_off_c, 1, 50, 0
2, 95440, Note_off_c, 1, 62, 0
2, 95560, Note_on_c, 1, 40, 127
2, 95560, Note_on_c, 1, 44, 127
2, 95560, Note_on_c, 1, 47, 127
2, 95560, Note_on_c, 1, 52, 127
2, 95560, Note_on_c, 1, 92, 127
2, 95560, Note_on_c, 1, 104, 127
2, 95600, Note_off_c, 1, 40, 0
2, 95600, Note_off_c, 1, 44, 0
2, 95600, Note_off_c, 1, 47, 0
2, 95600, Note_off_c, 1, 52, 0
2, 95600, Note_off_c, 1, 92, 0
2, 95600, Note_off_c, 1, 104, 0
2, 95680, Note_on_c, 1, 73, 127
2, 95680, Note_on_c, 1, 78, 127
2, 95680, Note_on_c, 1, 81, 127
2, 95680, Note_on_c, 1, 87, 127
2, 95680, Note_on_c, 1, 92, 127
2, 95680, Note_on_c, 1, 96, 127
2, 95720, Note_on_c, 1, 55, 127
2, 95720, Note_off_c, 1, 73, 0
2, 95720, Note_off_c, 1, 78, 0
2, 95720, Note_off_c, 1, 81, 0
2, 95720, Note_off_c, 1, 87, 0
2, 95720, Note_off_c, 1, 92, 0
2, 95720, Note_on_c, 1, 93, 127
2, 95760, Note_off_c, 1, 55, 0
2, 95760, Note_on_c, 1, 73, 127
2, 95760, Note_on_c, 1, 78, 127
2, 95760, Note_on_c, 1, 81, 127
2, 95760, Note_on_c, 1, 87, 127
2, 95760, Note_on_c, 1, 92, 127
2, 95760, Note_off_c, 1, 93, 0
2, 95800, Note_off_c, 1, 73, 0
2, 95800, Note_off_c, 1, 78, 0
2, 95800, Note_off_c, 1, 81, 0
2, 95800, Note_off_c, 1, 87, 0
2, 95800, Note_off_c, 1, 92, 0
2, 95800, Note_off_c, 1, 96, 0
2, 95840, Note_on_c, 1, 61, 127
2, 95840, Note_on_c, 1, 89, 127
2, 95840, Note_on_c, 1, 92, 127
2, 95920, Note_off_c, 1, 61, 0
2, 95920, Note_off_c, 1, 89, 0
2, 95920, Note_off_c, 1, 92, 0
2, 95960, Note_on_c, 1, 43, 127
2, 95960, Note_on_c, 1, 48, 127
2, 95960, Note_on_c, 1, 55, 127
2, 95960, Note_on_c, 1, 58, 127
2, 95960, Note_on_c, 1, 62, 127
2, 95960, Note_on_c, 1, 64, 127
2, 95960, Note_on_c, 1, 70, 127
2, 95960, Note_on_c, 1, 74, 127
2, 96000, Note_off_c, 1, 43, 0
2, 96000, Note_off_c, 1, 48, 0
2, 96000, Note_off_c, 1, 55, 0
2, 96000, Note_off_c, 1, 58, 0
2, 96000, Note_off_c, 1, 64, 0
2, 96000, Note_on_c, 1, 67, 127
2, 96000, Note_on_c, 1, 69, 127
2, 96000, Note_off_c, 1, 70, 0
2, 96000, Note_on_c, 1, 91, 127
2, 96000, Note_on_c, 1, 96, 127
2, 96040, Note_on_c, 1, 59, 127
2, 96040, Note_off_c, 1, 62, 0
2, 96040, Note_on_c, 1, 64, 127
2, 96040, Note_off_c, 1, 67, 0
2, 96040, Note_off_c, 1, 69, 0
2, 96040, Note_off_c, 1, 74, 0
2, 96040, Note_on_c, 1, 76, 127
2, 96040, Note_on_c, 1, 85, 127
2, 96040, Note_off_c, 1, 91, 0
2, 96040, Note_off_c, 1, 96, 0
2, 96080, Note_off_c, 1, 59, 0
2, 96080, Note_off_c, 1, 64, 0
2, 96080, Note_off_c, 1, 76, 0
2, 96080, Note_off_c, 1, 85, 0
2, 96120, Note_on_c, 1, 33, 127
2, 96120, Note_on_c, 1, 40, 127
2, 96120, Note_on_c, 1, 45, 127
2, 96120, Note_on_c, 1, 64, 127
2, 96120, Note_on_c, 1, 72, 127
2, 96120, Note_on_c, 1, 76, 127
2, 96160, Note_off_c, 1, 33, 0
2, 96160, Note_on_c, 1, 34, 127
2, 96160, Note_off_c, 1, 40, 0
2, 96160, Note_off_c, 1, 45, 0
2, 96160, Note_on_c, 1, 46, 127
2, 96160, Note_off_c, 1, 64, 0
2, 96160, Note_off_c, 1, 72, 0
2, 96160, Note_off_c, 1, 76, 0
2, 96160, Note_on_c, 1, 86, 127
2, 96200, Note_off_c, 1, 34, 0
2, 96200, Note_off_c, 1, 46, 0
2, 96200, Note_on_c, 1, 62, 127
2, 96200, Note_on_c, 1, 64, 127
2, 96200, Note_on_c, 1, 68, 127
2, 96200, Note_on_c, 1, 75, 127
2, 96200, Note_off_c, 1, 86, 0
2, 96240, Note_off_c, 1, 62, 0
2, 96240, Note_off_c, 1, 64, 0
2, 96240, Note_off_c, 1, 68, 0
2, 96240, Note_off_c, 1, 75, 0
2, 96280, Note_on_c, 1, 40, 127
2, 96280, Note_on_c, 1, 52, 127
2, 96280, Note_on_c, 1, 57, 127
2, 96280, Note_on_c, 1, 60, 127
2, 96280, Note_on_c, 1, 63, 127
2, 96280, Note_on_c, 1, 69, 127
2, 96520, Note_off_c, 1, 40, 0
2, 96520, Note_off_c, 1, 52, 0
2, 96520, Note_off_c, 1, 57, 0
2, 96520, Note_off_c, 1, 60, 0
2, 96520, Note_off_c, 1, 63, 0
2, 96520, Note_off_c, 1, 69, 0
2, 96600, Note_on_c, 1, 55, 127
2, 96600, Note_on_c, 1, 59, 127
2, 96600, Note_on_c, 1, 62, 127
2, 96600, Note_on_c, 1, 65, 127
2, 96600, Note_on_c, 1, 79, 127
2, 96600, Note_on_c, 1, 83, 127
2, 96600, Note_on_c, 1, 86, 127
2, 96600, Note_on_c, 1, 89, 127
2, 96600, Note_on_c, 1, 91, 127
2, 96640, Note_off_c, 1, 55, 0
2, 96640, Note_off_c, 1, 59, 0
2, 96640, Note_off_c, 1, 62, 0
2, 96640, Note_off_c, 1, 65, 0
2, 96640, Note_off_c, 1, 79, 0
2, 96640, Note_off_c, 1, 83, 0
2, 96640, Note_off_c, 1, 86, 0
2, 96640, Note_off_c, 1, 89, 0
2, 96640, Note_off_c, 1, 91, 0
2, 96720, Note_on_c, 1, 39, 127
2, 96720, Note_on_c, 1, 51, 127
2, 96720, Note_on_c, 1, 60, 127
2, 96720, Note_on_c, 1, 66, 127
2, 96720, Note_on_c, 1, 72, 127
2, 96760, Note_off_c, 1, 39, 0
2, 96760, Note_off_c, 1, 51, 0
2, 96760, Note_off_c, 1, 60, 0
2, 96760, Note_off_c, 1, 66, 0
2, 96760, Note_off_c, 1, 72, 0
2, 96920, Note_on_c, 1, 51, 127
2, 96920, Note_on_c, 1, 53, 127
2, 96920, Note_on_c, 1, 57, 127
2, 96920, Note_on_c, 1, 84, 127
2, 96960, Note_on_c, 1, 35, 127
2, 96960, Note_on_c, 1, 38, 127
2, 96960, Note_on_c, 1, 43, 127
2, 96960, Note_on_c, 1, 47, 127
2, 96960, Note_off_c, 1, 51, 0
2, 96960, Note_off_c, 1, 53, 0
2, 96960, Note_off_c, 1, 57, 0
2, 96960, Note_on_c, 1, 59, 127
2, 96960, Note_on_c, 1, 62, 127
2, 96960, Note_on_c, 1, 67, 127
2, 96960, Note_on_c, 1, 71, 127
2, 96960, Note_off_c, 1, 84, 0
2, 97000, Note_off_c, 1, 35, 0
2, 97000, Note_on_c, 1, 37, 127
2, 97000, Note_off_c, 1, 38, 0
2, 97000, Note_off_c, 1, 43, 0
2, 97000, Note_off_c, 1, 47, 0
2, 97000, Note_on_c, 1, 49, 127
2, 97000, Note_on_c, 1, 56, 127
2, 97000, Note_off_c, 1, 62, 0
2, 97000, Note_off_c, 1, 67, 0
2, 97000, Note_off_c, 1, 71, 0
2, 97040, Note_off_c, 1, 37, 0
2, 97040, Note_off_c, 1, 49, 0
2, 97040, Note_off_c, 1, 59, 0
2, 97040, Note_on_c, 1, 64, 127
2, 97040, Note_on_c, 1, 85, 127
2, 97040, Note_on_c, 1, 88, 127
2, 97080, Note_on_c, 1, 54, 127
2, 97080, Note_off_c, 1, 56, 0
2, 97080, Note_off_c, 1, 64, 0
2, 97080, Note_on_c, 1, 80, 127
2, 97080, Note_on_c, 1, 83, 127
2, 97080, Note_off_c, 1, 85, 0
2, 97080, Note_on_c, 1, 86, 127
2, 97080, Note_off_c, 1, 88, 0
2, 97080, Note_on_c, 1, 92, 127
2, 97120, Note_off_c, 1, 54, 0
2, 97120, Note_off_c, 1, 80, 0
2, 97120, Note_off_c, 1, 83, 0
2, 97120, Note_off_c, 1, 86, 0
2, 97120, Note_off_c, 1, 92, 0
2, 97160, Note_on_c, 1, 55, 127
2, 97160, Note_on_c, 1, 62, 127
2, 97160, Note_on_c, 1, 67, 127
2, 97160, Note_on_c, 1, 70, 127
2, 97160, Note_on_c, 1, 74, 127
2, 97160, Note_on_c, 1, 79, 127
2, 97160, Note_on_c, 1, 82, 127
2, 97200, Note_off_c, 1, 55, 0
2, 97200, Note_off_c, 1, 62, 0
2, 97200, Note_off_c, 1, 67, 0
2, 97200, Note_off_c, 1, 70, 0
2, 97200, Note_off_c, 1, 74, 0
2, 97200, Note_off_c, 1, 79, 0
2, 97200, Note_off_c, 1, 82, 0
2, 97280, Note_on_c, 1, 33, 127
2, 97280, Note_on_c, 1, 40, 127
2, 97280, Note_on_c, 1, 45, 127
2, 97280, Note_on_c, 1, 57, 127
2, 97280, Note_on_c, 1, 60, 127
2, 97280, Note_on_c, 1, 64, 127
2, 97280, Note_on_c, 1, 69, 127
2, 97560, Note_off_c, 1, 33, 0
2, 97560, Note_off_c, 1, 40, 0
2, 97560, Note_off_c, 1, 45, 0
2, 97560, Note_on_c, 1, 54, 127
2, 97560, Note_off_c, 1, 57, 0
2, 97560, Note_off_c, 1, 60, 0
2, 97560, Note_off_c, 1, 64, 0
2, 97560, Note_off_c, 1, 69, 0
2, 97560, Note_on_c, 1, 78, 127
2, 97560, Note_on_c, 1, 90, 127
2, 97560, Note_on_c, 1, 93, 127
2, 97600, Note_off_c, 1, 54, 0
2, 97600, Note_off_c, 1, 78, 0
2, 97600, Note_off_c, 1, 90, 0
2, 97600, Note_off_c, 1, 93, 0
2, 97640, Note_on_c, 1, 59, 127
2, 97640, Note_on_c, 1, 62, 127
2, 97640, Note_on_c, 1, 66, 127
2, 97640, Note_on_c, 1, 67, 127
2, 97640, Note_on_c, 1, 71, 127
2, 97640, Note_on_c, 1, 74, 127
2, 97640, Note_on_c, 1, 78, 127
2, 97640, Note_on_c, 1, 79, 127
2, 97800, Note_on_c, 1, 47, 127
2, 97800, Note_off_c, 1, 62, 0
2, 97800, Note_off_c, 1, 66, 0
2, 97800, Note_off_c, 1, 67, 0
2, 97800, Note_off_c, 1, 71, 0
2, 97800, Note_off_c, 1, 74, 0
2, 97800, Note_off_c, 1, 78, 0
2, 97800, Note_off_c, 1, 79, 0
2, 97840, Note_on_c, 1, 38, 127
2, 97840, Note_off_c, 1, 47, 0
2, 97840, Note_on_c, 1, 54, 127
2, 97840, Note_off_c, 1, 59, 0
2, 97840, Note_on_c, 1, 66, 127
2, 97840, Note_on_c, 1, 70, 127
2, 97880, Note_off_c, 1, 38, 0
2, 97880, Note_off_c, 1, 54, 0
2, 97880, Note_off_c, 1, 66, 0
2, 97880, Note_off_c, 1, 70, 0
2, 97880, Note_on_c, 1, 93, 127
2, 97880, Note_on_c, 1, 105, 127
2, 97920, Note_on_c, 1, 45, 127
2, 97920, Note_on_c, 1, 57, 127
2, 97920, Note_on_c, 1, 81, 127
2, 97920, Note_on_c, 1, 84, 127
2, 97920, Note_off_c, 1, 105, 0
2, 97960, Note_off_c, 1, 45, 0
2, 97960, Note_off_c, 1, 57, 0
2, 97960, Note_off_c, 1, 81, 0
2, 97960, Note_on_c, 1, 83, 127
2, 97960, Note_off_c, 1, 84, 0
2, 97960, Note_on_c, 1, 86, 127
2, 97960, Note_off_c, 1, 93, 0
2, 97960, Note_on_c, 1, 95, 127
2, 98000, Note_on_c, 1, 79, 127
2, 98000, Note_off_c, 1, 83, 0
2, 98000, Note_off_c, 1, 86, 0
2, 98000, Note_on_c, 1, 88, 127
2, 98000, Note_on_c, 1, 90, 127
2, 98040, Note_off_c, 1, 79, 0
2, 98040, Note_off_c, 1, 88, 0
2, 98040, Note_off_c, 1, 90, 0
2, 98040, Note_off_c, 1, 95, 0
2, 98080, Note_on_c, 1, 53, 127
2, 98080, Note_on_c, 1, 57, 127
2, 98080, Note_on_c, 1, 61, 127
2, 98080, Note_on_c, 1, 93, 127
2, 98080, Note_on_c, 1, 97, 127
2, 98120, Note_off_c, 1, 53, 0
2, 98120, Note_off_c, 1, 57, 0
2, 98120, Note_off_c, 1, 61, 0
2, 98120, Note_on_c, 1, 79, 127
2, 98120, Note_on_c, 1, 91, 127
2, 98120, Note_off_c, 1, 93, 0
2, 98120, Note_off_c, 1, 97, 0
2, 98160, Note_off_c, 1, 79, 0
2, 98160, Note_off_c, 1, 91, 0
2, 98200, Note_on_c, 1, 50, 127
2, 98200, Note_on_c, 1, 62, 127
2, 98200, Note_on_c, 1, 77, 127
2, 98200, Note_on_c, 1, 89, 127
2, 98240, Note_off_c, 1, 50, 0
2, 98240, Note_off_c, 1, 62, 0
2, 98240, Note_off_c, 1, 77, 0
2, 98240, Note_off_c, 1, 89, 0
2, 98320, Note_on_c, 1, 41, 127
2, 98320, Note_on_c, 1, 53, 127
2, 98320, Note_on_c, 1, 74, 127
2, 98320, Note_on_c, 1, 86, 127
2, 98360, Note_off_c, 1, 41, 0
2, 98360, Note_off_c, 1, 53, 0
2, 98360, Note_off_c, 1, 74, 0
2, 98360, Note_off_c, 1, 86, 0
2, 98480, Note_on_c, 1, 42, 127
2, 98480, Note_on_c, 1, 54, 127
2, 98480, Note_on_c, 1, 72, 127
2, 98480, Note_on_c, 1, 80, 127
2, 98480, Note_on_c, 1, 84, 127
2, 98520, Note_off_c, 1, 42, 0
2, 98520, Note_off_c, 1, 54, 0
2, 98520, Note_off_c, 1, 72, 0
2, 98520, Note_off_c, 1, 80, 0
2, 98520, Note_off_c, 1, 84, 0
2, 98640, Note_on_c, 1, 42, 127
2, 98640, Note_on_c, 1, 54, 127
2, 98640, Note_on_c, 1, 72, 127
2, 98640, Note_on_c, 1, 80, 127
2, 98640, Note_on_c, 1, 84, 127
2, 98680, Note_off_c, 1, 42, 0
2, 98680, Note_off_c, 1, 54, 0
2, 98680, Note_off_c, 1, 72, 0
2, 98680, Note_off_c, 1, 80, 0
2, 98680, Note_off_c, 1, 84, 0
2, 98760, Note_on_c, 1, 40, 127
2, 98760, Note_on_c, 1, 52, 127
2, 98760, Note_on_c, 1, 68, 127
2, 98760, Note_on_c, 1, 71, 127
2, 98760, Note_on_c, 1, 80, 127
2, 98800, Note_off_c, 1, 40, 0
2, 98800, Note_off_c, 1, 52, 0
2, 98800, Note_off_c, 1, 68, 0
2, 98800, Note_off_c, 1, 71, 0
2, 98800, Note_off_c, 1, 80, 0
2, 98960, Note_on_c, 1, 25, 127
2, 98960, Note_on_c, 1, 37, 127
2, 98960, Note_on_c, 1, 55, 127
2, 98960, Note_on_c, 1, 57, 127
2, 98960, Note_on_c, 1, 61, 127
2, 98960, Note_on_c, 1, 64, 127
2, 99000, Note_off_c, 1, 25, 0
2, 99000, Note_on_c, 1, 29, 127
2, 99000, Note_off_c, 1, 37, 0
2, 99000, Note_on_c, 1, 41, 127
2, 99000, Note_on_c, 1, 53, 127
2, 99000, Note_off_c, 1, 55, 0
2, 99000, Note_off_c, 1, 61, 0
2, 99000, Note_on_c, 1, 63, 127
2, 99000, Note_off_c, 1, 64, 0
2, 99000, Note_on_c, 1, 65, 127
2, 99040, Note_off_c, 1, 29, 0
2, 99040, Note_off_c, 1, 41, 0
2, 99040, Note_off_c, 1, 53, 0
2, 99040, Note_off_c, 1, 57, 0
2, 99040, Note_off_c, 1, 63, 0
2, 99040, Note_off_c, 1, 65, 0
2, 99080, Note_on_c, 1, 40, 127
2, 99080, Note_on_c, 1, 43, 127
2, 99080, Note_on_c, 1, 48, 127
2, 99080, Note_on_c, 1, 52, 127
2, 99080, Note_on_c, 1, 84, 127
2, 99080, Note_on_c, 1, 88, 127
2, 99080, Note_on_c, 1, 91, 127
2, 99080, Note_on_c, 1, 96, 127
2, 99120, Note_off_c, 1, 40, 0
2, 99120, Note_off_c, 1, 43, 0
2, 99120, Note_off_c, 1, 48, 0
2, 99120, Note_off_c, 1, 52, 0
2, 99120, Note_off_c, 1, 84, 0
2, 99120, Note_off_c, 1, 88, 0
2, 99120, Note_off_c, 1, 91, 0
2, 99120, Note_off_c, 1, 96, 0
2, 99200, Note_on_c, 1, 49, 127
2, 99200, Note_on_c, 1, 53, 127
2, 99200, Note_on_c, 1, 56, 127
2, 99200, Note_on_c, 1, 61, 127
2, 99200, Note_on_c, 1, 80, 127
2, 99200, Note_on_c, 1, 85, 127
2, 99200, Note_on_c, 1, 89, 127
2, 99200, Note_on_c, 1, 92, 127
2, 99240, Note_off_c, 1, 49, 0
2, 99240, Note_off_c, 1, 53, 0
2, 99240, Note_off_c, 1, 56, 0
2, 99240, Note_off_c, 1, 61, 0
2, 99240, Note_off_c, 1, 80, 0
2, 99240, Note_off_c, 1, 85, 0
2, 99240, Note_off_c, 1, 89, 0
2, 99240, Note_off_c, 1, 92, 0
2, 99360, Note_on_c, 1, 38, 127
2, 99360, Note_on_c, 1, 50, 127
2, 99360, Note_on_c, 1, 55, 127
2, 99360, Note_on_c, 1, 60, 127
2, 99360, Note_on_c, 1, 62, 127
2, 99400, Note_off_c, 1, 38, 0
2, 99400, Note_off_c, 1, 50, 0
2, 99400, Note_off_c, 1, 55, 0
2, 99400, Note_off_c, 1, 60, 0
2, 99400, Note_off_c, 1, 62, 0
2, 99480, Note_on_c, 1, 55, 127
2, 99480, Note_on_c, 1, 63, 127
2, 99520, Note_off_c, 1, 55, 0
2, 99520, Note_off_c, 1, 63, 0
2, 99560, Note_on_c, 1, 63, 127
2, 99560, Note_on_c, 1, 67, 127
2, 99600, Note_off_c, 1, 63, 0
2, 99600, Note_off_c, 1, 67, 0
2, 99640, Note_on_c, 1, 43, 127
2, 99640, Note_on_c, 1, 47, 127
2, 99640, Note_on_c, 1, 50, 127
2, 99640, Note_on_c, 1, 55, 127
2, 99640, Note_on_c, 1, 86, 127
2, 99760, Note_off_c, 1, 86, 0
2, 99800, Note_on_c, 1, 86, 127
2, 99880, Note_off_c, 1, 86, 0
2, 99960, Note_on_c, 1, 83, 127
2, 100000, Note_off_c, 1, 83, 0
2, 100040, Note_off_c, 1, 43, 0
2, 100040, Note_off_c, 1, 47, 0
2, 100040, Note_off_c, 1, 50, 0
2, 100040, Note_off_c, 1, 55, 0
2, 100080, Note_on_c, 1, 38, 127
2, 100080, Note_on_c, 1, 39, 127
2, 100080, Note_on_c, 1, 52, 127
2, 100120, Note_off_c, 1, 38, 0
2, 100120, Note_off_c, 1, 39, 0
2, 100120, Note_off_c, 1, 52, 0
2, 100240, Note_on_c, 1, 43, 127
2, 100240, Note_on_c, 1, 50, 127
2, 100240, Note_on_c, 1, 67, 127
2, 100240, Note_on_c, 1, 71, 127
2, 100240, Note_on_c, 1, 79, 127
2, 100280, Note_off_c, 1, 43, 0
2, 100280, Note_off_c, 1, 50, 0
2, 100280, Note_off_c, 1, 67, 0
2, 100280, Note_off_c, 1, 71, 0
2, 100280, Note_off_c, 1, 79, 0
2, 100360, Note_on_c, 1, 43, 127
2, 100360, Note_on_c, 1, 50, 127
2, 100360, Note_on_c, 1, 67, 127
2, 100360, Note_on_c, 1, 71, 127
2, 100360, Note_on_c, 1, 79, 127
2, 100640, Note_off_c, 1, 43, 0
2, 100640, Note_off_c, 1, 50, 0
2, 100640, Note_off_c, 1, 67, 0
2, 100640, Note_off_c, 1, 71, 0
2, 100640, Note_off_c, 1, 79, 0
2, 100680, Note_on_c, 1, 43, 127
2, 100680, Note_on_c, 1, 50, 127
2, 100680, Note_on_c, 1, 67, 127
2, 100680, Note_on_c, 1, 71, 127
2, 100680, Note_on_c, 1, 79, 127
2, 100920, Note_off_c, 1, 43, 0
2, 100920, Note_off_c, 1, 50, 0
2, 100920, Note_off_c, 1, 67, 0
2, 100920, Note_off_c, 1, 71, 0
2, 100920, Note_off_c, 1, 79, 0
2, 100960, Note_on_c, 1, 49, 127
2, 100960, Note_on_c, 1, 58, 127
2, 100960, Note_on_c, 1, 90, 127
2, 101000, Note_off_c, 1, 49, 0
2, 101000, Note_on_c, 1, 57, 127
2, 101000, Note_off_c, 1, 58, 0
2, 101000, Note_on_c, 1, 60, 127
2, 101000, Note_on_c, 1, 70, 127
2, 101000, Note_off_c, 1, 90, 0
2, 101040, Note_off_c, 1, 57, 0
2, 101040, Note_on_c, 1, 63, 127
2, 101080, Note_off_c, 1, 60, 0
2, 101080, Note_off_c, 1, 63, 0
2, 101080, Note_off_c, 1, 70, 0
2, 101120, Note_on_c, 1, 61, 127
2, 101120, Note_on_c, 1, 63, 127
2, 101120, Note_on_c, 1, 66, 127
2, 101120, Note_on_c, 1, 69, 127
2, 101120, Note_on_c, 1, 81, 127
2, 101160, Note_off_c, 1, 61, 0
2, 101160, Note_off_c, 1, 63, 0
2, 101160, Note_off_c, 1, 66, 0
2, 101160, Note_on_c, 1, 67, 127
2, 101160, Note_off_c, 1, 69, 0
2, 101160, Note_on_c, 1, 76, 127
2, 101160, Note_on_c, 1, 79, 127
2, 101160, Note_off_c, 1, 81, 0
2, 101160, Note_on_c, 1, 84, 127
2, 101160, Note_on_c, 1, 91, 127
2, 101200, Note_on_c, 1, 58, 127
2, 101200, Note_on_c, 1, 62, 127
2, 101200, Note_off_c, 1, 67, 0
2, 101200, Note_on_c, 1, 70, 127
2, 101200, Note_off_c, 1, 76, 0
2, 101200, Note_off_c, 1, 79, 0
2, 101200, Note_off_c, 1, 84, 0
2, 101200, Note_off_c, 1, 91, 0
2, 101200, Note_on_c, 1, 94, 127
2, 101240, Note_off_c, 1, 58, 0
2, 101240, Note_off_c, 1, 62, 0
2, 101240, Note_on_c, 1, 67, 127
2, 101240, Note_off_c, 1, 70, 0
2, 101240, Note_on_c, 1, 76, 127
2, 101240, Note_on_c, 1, 84, 127
2, 101240, Note_on_c, 1, 88, 127
2, 101240, Note_off_c, 1, 94, 0
2, 101280, Note_off_c, 1, 67, 0
2, 101280, Note_off_c, 1, 76, 0
2, 101280, Note_off_c, 1, 84, 0
2, 101280, Note_off_c, 1, 88, 0
2, 101320, Note_on_c, 1, 46, 127
2, 101320, Note_on_c, 1, 61, 127
2, 101320, Note_on_c, 1, 65, 127
2, 101320, Note_on_c, 1, 67, 127
2, 102000, Note_off_c, 1, 46, 0
2, 102000, Note_off_c, 1, 61, 0
2, 102000, Note_off_c, 1, 65, 0
2, 102000, Note_off_c, 1, 67, 0
2, 102040, Note_on_c, 1, 46, 127
2, 102040, Note_on_c, 1, 53, 127
2, 102040, Note_on_c, 1, 57, 127
2, 102040, Note_on_c, 1, 65, 127
2, 102040, Note_on_c, 1, 75, 127
2, 102280, Note_off_c, 1, 46, 0
2, 102280, Note_off_c, 1, 53, 0
2, 102280, Note_off_c, 1, 57, 0
2, 102280, Note_off_c, 1, 65, 0
2, 102280, Note_off_c, 1, 75, 0
2, 102320, Note_on_c, 1, 46, 127
2, 102320, Note_on_c, 1, 53, 127
2, 102320, Note_on_c, 1, 57, 127
2, 102320, Note_on_c, 1, 65, 127
2, 102320, Note_on_c, 1, 75, 127
2, 102640, Note_off_c, 1, 65, 0
2, 102680, Note_on_c, 1, 65, 127
2, 102800, Note_off_c, 1, 46, 0
2, 102800, Note_off_c, 1, 53, 0
2, 102800, Note_off_c, 1, 57, 0
2, 102800, Note_off_c, 1, 65, 0
2, 102800, Note_off_c, 1, 75, 0
2, 102840, Note_on_c, 1, 34, 127
2, 102840, Note_on_c, 1, 41, 127
2, 102840, Note_on_c, 1, 46, 127
2, 102840, Note_on_c, 1, 50, 127
2, 102840, Note_on_c, 1, 58, 127
2, 102960, Note_off_c, 1, 34, 0
2, 102960, Note_off_c, 1, 41, 0
2, 102960, Note_off_c, 1, 46, 0
2, 102960, Note_off_c, 1, 50, 0
2, 102960, Note_off_c, 1, 58, 0
2, 103000, Note_on_c, 1, 34, 127
2, 103000, Note_on_c, 1, 41, 127
2, 103000, Note_on_c, 1, 46, 127
2, 103000, Note_on_c, 1, 50, 127
2, 103000, Note_on_c, 1, 58, 127
2, 103440, Note_off_c, 1, 34, 0
2, 103440, Note_off_c, 1, 41, 0
2, 103440, Note_off_c, 1, 46, 0
2, 103440, Note_off_c, 1, 50, 0
2, 103440, Note_off_c, 1, 58, 0
2, 103480, Note_on_c, 1, 34, 127
2, 103480, Note_on_c, 1, 41, 127
2, 103480, Note_on_c, 1, 46, 127
2, 103480, Note_on_c, 1, 50, 127
2, 103480, Note_on_c, 1, 58, 127
2, 103880, Note_off_c, 1, 34, 0
2, 103880, Note_off_c, 1, 50, 0
2, 103880, Note_on_c, 1, 53, 127
2, 103920, Note_on_c, 1, 62, 127
2, 104000, Note_off_c, 1, 62, 0
2, 104040, Note_off_c, 1, 41, 0
2, 104040, Note_off_c, 1, 46, 0
2, 104040, Note_off_c, 1, 53, 0
2, 104040, Note_off_c, 1, 58, 0
2, 104080, Note_on_c, 1, 40, 127
2, 104080, Note_on_c, 1, 48, 127
2, 104080, Note_on_c, 1, 52, 127
2, 104080, Note_on_c, 1, 67, 127
2, 104080, Note_on_c, 1, 72, 127
2, 104080, Note_on_c, 1, 79, 127
2, 104320, Note_off_c, 1, 40, 0
2, 104320, Note_off_c, 1, 52, 0
2, 104320, Note_off_c, 1, 67, 0
2, 104320, Note_off_c, 1, 79, 0
2, 104360, Note_on_c, 1, 40, 127
2, 104360, Note_on_c, 1, 52, 127
2, 104360, Note_on_c, 1, 67, 127
2, 104360, Note_on_c, 1, 79, 127
2, 104480, Note_off_c, 1, 40, 0
2, 104480, Note_off_c, 1, 52, 0
2, 104480, Note_off_c, 1, 67, 0
2, 104480, Note_off_c, 1, 79, 0
2, 104520, Note_on_c, 1, 40, 127
2, 104520, Note_on_c, 1, 52, 127
2, 104520, Note_on_c, 1, 67, 127
2, 104520, Note_on_c, 1, 79, 127
2, 104600, Note_off_c, 1, 40, 0
2, 104600, Note_off_c, 1, 48, 0
2, 104600, Note_off_c, 1, 52, 0
2, 104600, Note_off_c, 1, 67, 0
2, 104600, Note_off_c, 1, 72, 0
2, 104600, Note_off_c, 1, 79, 0
2, 104640, Note_on_c, 1, 41, 127
2, 104640, Note_on_c, 1, 48, 127
2, 104640, Note_on_c, 1, 53, 127
2, 104640, Note_on_c, 1, 69, 127
2, 104640, Note_on_c, 1, 72, 127
2, 104640, Note_on_c, 1, 81, 127
2, 104760, Note_off_c, 1, 41, 0
2, 104760, Note_off_c, 1, 48, 0
2, 104760, Note_off_c, 1, 53, 0
2, 104760, Note_on_c, 1, 56, 127
2, 104760, Note_on_c, 1, 62, 127
2, 104760, Note_on_c, 1, 68, 127
2, 104760, Note_off_c, 1, 69, 0
2, 104760, Note_off_c, 1, 72, 0
2, 104760, Note_on_c, 1, 73, 127
2, 104760, Note_off_c, 1, 81, 0
2, 104800, Note_on_c, 1, 39, 127
2, 104800, Note_on_c, 1, 51, 127
2, 104800, Note_off_c, 1, 56, 0
2, 104800, Note_off_c, 1, 62, 0
2, 104800, Note_off_c, 1, 68, 0
2, 104800, Note_on_c, 1, 69, 127
2, 104800, Note_off_c, 1, 73, 0
2, 104800, Note_on_c, 1, 75, 127
2, 104800, Note_on_c, 1, 77, 127
2, 104840, Note_off_c, 1, 39, 0
2, 104840, Note_off_c, 1, 51, 0
2, 104840, Note_on_c, 1, 55, 127
2, 104840, Note_on_c, 1, 59, 127
2, 104840, Note_on_c, 1, 62, 127
2, 104840, Note_on_c, 1, 65, 127
2, 104840, Note_off_c, 1, 69, 0
2, 104840, Note_on_c, 1, 71, 127
2, 104840, Note_on_c, 1, 74, 127
2, 104840, Note_off_c, 1, 75, 0
2, 104840, Note_on_c, 1, 76, 127
2, 104840, Note_off_c, 1, 77, 0
2, 104880, Note_on_c, 1, 49, 127
2, 104880, Note_off_c, 1, 55, 0
2, 104880, Note_off_c, 1, 62, 0
2, 104880, Note_off_c, 1, 65, 0
2, 104880, Note_on_c, 1, 68, 127
2, 104880, Note_off_c, 1, 71, 0
2, 104880, Note_on_c, 1, 73, 127
2, 104880, Note_off_c, 1, 74, 0
2, 104880, Note_off_c, 1, 76, 0
2, 104880, Note_on_c, 1, 77, 127
2, 104920, Note_off_c, 1, 49, 0
2, 104920, Note_off_c, 1, 59, 0
2, 104920, Note_off_c, 1, 68, 0
2, 104920, Note_off_c, 1, 73, 0
2, 104920, Note_off_c, 1, 77, 0
2, 105000, Note_on_c, 1, 40, 127
2, 105000, Note_on_c, 1, 48, 127
2, 105000, Note_on_c, 1, 52, 127
2, 105000, Note_on_c, 1, 67, 127
2, 105000, Note_on_c, 1, 72, 127
2, 105000, Note_on_c, 1, 79, 127
2, 105240, Note_off_c, 1, 40, 0
2, 105240, Note_off_c, 1, 48, 0
2, 105240, Note_off_c, 1, 52, 0
2, 105240, Note_off_c, 1, 67, 0
2, 105240, Note_off_c, 1, 72, 0
2, 105240, Note_off_c, 1, 79, 0
2, 105280, Note_on_c, 1, 41, 127
2, 105280, Note_on_c, 1, 48, 127
2, 105280, Note_on_c, 1, 53, 127
2, 105280, Note_on_c, 1, 69, 127
2, 105280, Note_on_c, 1, 72, 127
2, 105280, Note_on_c, 1, 81, 127
2, 105560, Note_off_c, 1, 41, 0
2, 105560, Note_off_c, 1, 48, 0
2, 105560, Note_off_c, 1, 53, 0
2, 105560, Note_off_c, 1, 69, 0
2, 105560, Note_off_c, 1, 72, 0
2, 105560, Note_off_c, 1, 81, 0
2, 105600, Note_on_c, 1, 41, 127
2, 105600, Note_on_c, 1, 48, 127
2, 105600, Note_on_c, 1, 53, 127
2, 105600, Note_on_c, 1, 69, 127
2, 105600, Note_on_c, 1, 72, 127
2, 105600, Note_on_c, 1, 81, 127
2, 105680, Note_off_c, 1, 41, 0
2, 105680, Note_off_c, 1, 48, 0
2, 105680, Note_off_c, 1, 53, 0
2, 105680, Note_off_c, 1, 69, 0
2, 105680, Note_off_c, 1, 72, 0
2, 105680, Note_off_c, 1, 81, 0
2, 105880, Note_on_c, 1, 46, 127
2, 105880, Note_on_c, 1, 86, 127
2, 105880, Note_on_c, 1, 91, 127
2, 105920, Note_off_c, 1, 91, 0
2, 106040, Note_on_c, 1, 84, 127
2, 106040, Note_off_c, 1, 86, 0
2, 106080, Note_off_c, 1, 84, 0
2, 106080, Note_on_c, 1, 86, 127
2, 106120, Note_off_c, 1, 46, 0
2, 106120, Note_on_c, 1, 77, 127
2, 106120, Note_off_c, 1, 86, 0
2, 106160, Note_on_c, 1, 56, 127
2, 106160, Note_on_c, 1, 68, 127
2, 106160, Note_on_c, 1, 80, 127
2, 106360, Note_off_c, 1, 56, 0
2, 106360, Note_off_c, 1, 68, 0
2, 106360, Note_off_c, 1, 77, 0
2, 106360, Note_off_c, 1, 80, 0
2, 106400, Note_on_c, 1, 44, 127
2, 106400, Note_on_c, 1, 56, 127
2, 106400, Note_on_c, 1, 72, 127
2, 106400, Note_on_c, 1, 75, 127
2, 106400, Note_on_c, 1, 84, 127
2, 106440, Note_off_c, 1, 44, 0
2, 106440, Note_off_c, 1, 56, 0
2, 106440, Note_off_c, 1, 72, 0
2, 106440, Note_off_c, 1, 75, 0
2, 106440, Note_off_c, 1, 84, 0
2, 106480, Note_on_c, 1, 48, 127
2, 106480, Note_on_c, 1, 76, 127
2, 106480, Note_on_c, 1, 82, 127
2, 106640, Note_off_c, 1, 48, 0
2, 106640, Note_off_c, 1, 76, 0
2, 106640, Note_off_c, 1, 82, 0
2, 106680, Note_on_c, 1, 48, 127
2, 106680, Note_on_c, 1, 76, 127
2, 106680, Note_on_c, 1, 79, 127
2, 106720, Note_off_c, 1, 48, 0
2, 106720, Note_off_c, 1, 76, 0
2, 106720, Note_off_c, 1, 79, 0
2, 106760, Note_on_c, 1, 48, 127
2, 106760, Note_on_c, 1, 53, 127
2, 106760, Note_on_c, 1, 56, 127
2, 106760, Note_on_c, 1, 59, 127
2, 106760, Note_on_c, 1, 62, 127
2, 106760, Note_on_c, 1, 65, 127
2, 106760, Note_on_c, 1, 68, 127
2, 106760, Note_on_c, 1, 71, 127
2, 106760, Note_on_c, 1, 74, 127
2, 106800, Note_on_c, 1, 47, 127
2, 106800, Note_off_c, 1, 48, 0
2, 106800, Note_off_c, 1, 53, 0
2, 106800, Note_off_c, 1, 56, 0
2, 106800, Note_off_c, 1, 62, 0
2, 106800, Note_off_c, 1, 65, 0
2, 106800, Note_off_c, 1, 68, 0
2, 106800, Note_off_c, 1, 71, 0
2, 106800, Note_off_c, 1, 74, 0
2, 106800, Note_on_c, 1, 81, 127
2, 106800, Note_on_c, 1, 87, 127
2, 106800, Note_on_c, 1, 90, 127
2, 106800, Note_on_c, 1, 95, 127
2, 106840, Note_on_c, 1, 38, 127
2, 106840, Note_off_c, 1, 47, 0
2, 106840, Note_on_c, 1, 76, 127
2, 106840, Note_on_c, 1, 78, 127
2, 106840, Note_off_c, 1, 81, 0
2, 106840, Note_off_c, 1, 87, 0
2, 106840, Note_off_c, 1, 90, 0
2, 106840, Note_off_c, 1, 95, 0
2, 106880, Note_off_c, 1, 38, 0
2, 106880, Note_off_c, 1, 59, 0
2, 106880, Note_off_c, 1, 76, 0
2, 106880, Note_off_c, 1, 78, 0
2, 106920, Note_on_c, 1, 58, 127
2, 106920, Note_on_c, 1, 61, 127
2, 106920, Note_on_c, 1, 72, 127
2, 106920, Note_on_c, 1, 73, 127
2, 106920, Note_on_c, 1, 82, 127
2, 106920, Note_on_c, 1, 85, 127
2, 106960, Note_off_c, 1, 58, 0
2, 106960, Note_off_c, 1, 61, 0
2, 106960, Note_on_c, 1, 69, 127
2, 106960, Note_off_c, 1, 72, 0
2, 106960, Note_off_c, 1, 73, 0
2, 106960, Note_on_c, 1, 76, 127
2, 106960, Note_off_c, 1, 82, 0
2, 106960, Note_on_c, 1, 93, 127
2, 106960, Note_on_c, 1, 100, 127
2, 106960, Note_on_c, 1, 105, 127
2, 107000, Note_on_c, 1, 45, 127
2, 107000, Note_on_c, 1, 67, 127
2, 107000, Note_off_c, 1, 69, 0
2, 107000, Note_on_c, 1, 71, 127
2, 107000, Note_off_c, 1, 85, 0
2, 107000, Note_off_c, 1, 93, 0
2, 107000, Note_off_c, 1, 100, 0
2, 107000, Note_off_c, 1, 105, 0
2, 107040, Note_off_c, 1, 45, 0
2, 107040, Note_off_c, 1, 67, 0
2, 107040, Note_off_c, 1, 71, 0
2, 107040, Note_off_c, 1, 76, 0
2, 107080, Note_on_c, 1, 49, 127
2, 107080, Note_on_c, 1, 61, 127
2, 107080, Note_on_c, 1, 65, 127
2, 107080, Note_on_c, 1, 68, 127
2, 107080, Note_on_c, 1, 73, 127
2, 107080, Note_on_c, 1, 85, 127
2, 107080, Note_on_c, 1, 89, 127
2, 107080, Note_on_c, 1, 97, 127
2, 107120, Note_off_c, 1, 49, 0
2, 107120, Note_off_c, 1, 61, 0
2, 107120, Note_off_c, 1, 65, 0
2, 107120, Note_off_c, 1, 68, 0
2, 107120, Note_off_c, 1, 73, 0
2, 107120, Note_off_c, 1, 85, 0
2, 107120, Note_off_c, 1, 89, 0
2, 107120, Note_off_c, 1, 97, 0
2, 107200, Note_on_c, 1, 83, 127
2, 107200, Note_on_c, 1, 89, 127
2, 107200, Note_on_c, 1, 101, 127
2, 107240, Note_off_c, 1, 83, 0
2, 107240, Note_off_c, 1, 89, 0
2, 107240, Note_off_c, 1, 101, 0
2, 107280, Note_on_c, 1, 81, 127
2, 107280, Note_on_c, 1, 83, 127
2, 107280, Note_on_c, 1, 93, 127
2, 107280, Note_on_c, 1, 95, 127
2, 107320, Note_off_c, 1, 81, 0
2, 107320, Note_off_c, 1, 83, 0
2, 107320, Note_off_c, 1, 93, 0
2, 107320, Note_off_c, 1, 95, 0
2, 107360, Note_on_c, 1, 86, 127
2, 107360, Note_on_c, 1, 89, 127
2, 107360, Note_on_c, 1, 95, 127
2, 107400, Note_off_c, 1, 86, 0
2, 107400, Note_off_c, 1, 89, 0
2, 107400, Note_on_c, 1, 92, 127
2, 107400, Note_off_c, 1, 95, 0
2, 107440, Note_on_c, 1, 90, 127
2, 107440, Note_off_c, 1, 92, 0
2, 107480, Note_off_c, 1, 90, 0
2, 107520, Note_on_c, 1, 89, 127
2, 107560, Note_on_c, 1, 51, 127
2, 107560, Note_on_c, 1, 55, 127
2, 107560, Note_on_c, 1, 58, 127
2, 107560, Note_on_c, 1, 63, 127
2, 107560, Note_on_c, 1, 82, 127
2, 107560, Note_off_c, 1, 89, 0
2, 107600, Note_off_c, 1, 51, 0
2, 107600, Note_off_c, 1, 55, 0
2, 107600, Note_off_c, 1, 58, 0
2, 107600, Note_off_c, 1, 63, 0
2, 107600, Note_on_c, 1, 78, 127
2, 107600, Note_off_c, 1, 82, 0
2, 107640, Note_off_c, 1, 78, 0
2, 107640, Note_on_c, 1, 82, 127
2, 107680, Note_on_c, 1, 59, 127
2, 107680, Note_on_c, 1, 62, 127
2, 107680, Note_on_c, 1, 79, 127
2, 107680, Note_off_c, 1, 82, 0
2, 107680, Note_on_c, 1, 91, 127
2, 107720, Note_on_c, 1, 44, 127
2, 107720, Note_on_c, 1, 56, 127
2, 107720, Note_off_c, 1, 59, 0
2, 107720, Note_off_c, 1, 62, 0
2, 107720, Note_on_c, 1, 65, 127
2, 107720, Note_off_c, 1, 79, 0
2, 107720, Note_off_c, 1, 91, 0
2, 107760, Note_off_c, 1, 44, 0
2, 107760, Note_off_c, 1, 56, 0
2, 107760, Note_off_c, 1, 65, 0
2, 107760, Note_on_c, 1, 83, 127
2, 107800, Note_on_c, 1, 55, 127
2, 107800, Note_on_c, 1, 58, 127
2, 107800, Note_on_c, 1, 65, 127
2, 107800, Note_on_c, 1, 73, 127
2, 107800, Note_off_c, 1, 83, 0
2, 107840, Note_off_c, 1, 55, 0
2, 107840, Note_off_c, 1, 58, 0
2, 107840, Note_off_c, 1, 65, 0
2, 107840, Note_off_c, 1, 73, 0
2, 107880, Note_on_c, 1, 82, 127
2, 107920, Note_on_c, 1, 80, 127
2, 107920, Note_off_c, 1, 82, 0
2, 107960, Note_on_c, 1, 53, 127
2, 107960, Note_on_c, 1, 60, 127
2, 107960, Note_on_c, 1, 67, 127
2, 107960, Note_on_c, 1, 70, 127
2, 107960, Note_on_c, 1, 74, 127
2, 107960, Note_on_c, 1, 79, 127
2, 107960, Note_off_c, 1, 80, 0
2, 108000, Note_on_c, 1, 52, 127
2, 108000, Note_off_c, 1, 53, 0
2, 108000, Note_on_c, 1, 56, 127
2, 108000, Note_off_c, 1, 60, 0
2, 108000, Note_on_c, 1, 62, 127
2, 108000, Note_off_c, 1, 67, 0
2, 108000, Note_off_c, 1, 70, 0
2, 108000, Note_off_c, 1, 74, 0
2, 108000, Note_off_c, 1, 79, 0
2, 108040, Note_on_c, 1, 49, 127
2, 108040, Note_off_c, 1, 52, 0
2, 108040, Note_on_c, 1, 55, 127
2, 108040, Note_off_c, 1, 56, 0
2, 108040, Note_on_c, 1, 58, 127
2, 108040, Note_on_c, 1, 61, 127
2, 108040, Note_off_c, 1, 62, 0
2, 108080, Note_off_c, 1, 49, 0
2, 108080, Note_off_c, 1, 55, 0
2, 108080, Note_off_c, 1, 58, 0
2, 108080, Note_off_c, 1, 61, 0
2, 108080, Note_on_c, 1, 66, 127
2, 108120, Note_on_c, 1, 61, 127
2, 108120, Note_on_c, 1, 70, 127
2, 108120, Note_on_c, 1, 88, 127
2, 108160, Note_off_c, 1, 61, 0
2, 108160, Note_off_c, 1, 66, 0
2, 108160, Note_off_c, 1, 70, 0
2, 108160, Note_off_c, 1, 88, 0
2, 108240, Note_on_c, 1, 59, 127
2, 108240, Note_on_c, 1, 63, 127
2, 108240, Note_on_c, 1, 66, 127
2, 108240, Note_on_c, 1, 100, 127
2, 108280, Note_off_c, 1, 59, 0
2, 108280, Note_off_c, 1, 63, 0
2, 108280, Note_off_c, 1, 66, 0
2, 108280, Note_off_c, 1, 100, 0
2, 108320, Note_on_c, 1, 59, 127
2, 108320, Note_on_c, 1, 63, 127
2, 108320, Note_on_c, 1, 66, 127
2, 108360, Note_off_c, 1, 59, 0
2, 108360, Note_off_c, 1, 63, 0
2, 108360, Note_off_c, 1, 66, 0
2, 108400, Note_on_c, 1, 59, 127
2, 108400, Note_on_c, 1, 80, 127
2, 108400, Note_on_c, 1, 81, 127
2, 108440, Note_off_c, 1, 59, 0
2, 108440, Note_off_c, 1, 80, 0
2, 108440, Note_off_c, 1, 81, 0
2, 108480, Note_on_c, 1, 43, 127
2, 108480, Note_on_c, 1, 49, 127
2, 108480, Note_on_c, 1, 59, 127
2, 108480, Note_on_c, 1, 61, 127
2, 108520, Note_on_c, 1, 30, 127
2, 108520, Note_off_c, 1, 43, 0
2, 108520, Note_off_c, 1, 49, 0
2, 108520, Note_off_c, 1, 59, 0
2, 108520, Note_on_c, 1, 69, 127
2, 108560, Note_off_c, 1, 30, 0
2, 108560, Note_off_c, 1, 61, 0
2, 108560, Note_off_c, 1, 69, 0
2, 108600, Note_on_c, 1, 89, 127
2, 108640, Note_on_c, 1, 55, 127
2, 108640, Note_off_c, 1, 89, 0
2, 108680, Note_on_c, 1, 51, 127
2, 108680, Note_off_c, 1, 55, 0
2, 108680, Note_on_c, 1, 58, 127
2, 108680, Note_on_c, 1, 63, 127
2, 108680, Note_on_c, 1, 66, 127
2, 108720, Note_off_c, 1, 51, 0
2, 108720, Note_off_c, 1, 58, 0
2, 108720, Note_off_c, 1, 63, 0
2, 108720, Note_off_c, 1, 66, 0
2, 108760, Note_on_c, 1, 74, 127
2, 108800, Note_on_c, 1, 63, 127
2, 108800, Note_off_c, 1, 74, 0
2, 108800, Note_on_c, 1, 78, 127
2, 108840, Note_off_c, 1, 63, 0
2, 108840, Note_off_c, 1, 78, 0
2, 108840, Note_on_c, 1, 79, 127
2, 108880, Note_on_c, 1, 75, 127
2, 108880, Note_on_c, 1, 77, 127
2, 108880, Note_off_c, 1, 79, 0
2, 108920, Note_on_c, 1, 55, 127
2, 108920, Note_on_c, 1, 58, 127
2, 108920, Note_on_c, 1, 63, 127
2, 108920, Note_off_c, 1, 75, 0
2, 108920, Note_off_c, 1, 77, 0
2, 108960, Note_off_c, 1, 55, 0
2, 108960, Note_off_c, 1, 58, 0
2, 108960, Note_off_c, 1, 63, 0
2, 108960, Note_on_c, 1, 72, 127
2, 109000, Note_on_c, 1, 63, 127
2, 109000, Note_on_c, 1, 67, 127
2, 109000, Note_off_c, 1, 72, 0
2, 109000, Note_on_c, 1, 75, 127
2, 109040, Note_off_c, 1, 63, 0
2, 109040, Note_off_c, 1, 67, 0
2, 109040, Note_on_c, 1, 70, 127
2, 109040, Note_off_c, 1, 75, 0
2, 109080, Note_off_c, 1, 70, 0
2, 109120, Note_on_c, 1, 89, 127
2, 109160, Note_on_c, 1, 59, 127
2, 109160, Note_on_c, 1, 62, 127
2, 109160, Note_on_c, 1, 67, 127
2, 109160, Note_off_c, 1, 89, 0
2, 109200, Note_off_c, 1, 59, 0
2, 109200, Note_off_c, 1, 62, 0
2, 109200, Note_off_c, 1, 67, 0
2, 109200, Note_on_c, 1, 87, 127
2, 109240, Note_off_c, 1, 87, 0
2, 109240, Note_on_c, 1, 91, 127
2, 109280, Note_on_c, 1, 60, 127
2, 109280, Note_on_c, 1, 62, 127
2, 109280, Note_on_c, 1, 84, 127
2, 109280, Note_off_c, 1, 91, 0
2, 109320, Note_off_c, 1, 60, 0
2, 109320, Note_off_c, 1, 62, 0
2, 109320, Note_off_c, 1, 84, 0
2, 109320, Note_on_c, 1, 99, 127
2, 109360, Note_on_c, 1, 60, 127
2, 109360, Note_on_c, 1, 63, 127
2, 109360, Note_on_c, 1, 67, 127
2, 109360, Note_on_c, 1, 82, 127
2, 109360, Note_off_c, 1, 99, 0
2, 109400, Note_off_c, 1, 60, 0
2, 109400, Note_off_c, 1, 63, 0
2, 109400, Note_off_c, 1, 67, 0
2, 109400, Note_off_c, 1, 82, 0
2, 109440, Note_on_c, 1, 91, 127
2, 109480, Note_off_c, 1, 91, 0
2, 109480, Note_on_c, 1, 99, 127
2, 109520, Note_on_c, 1, 94, 127
2, 109520, Note_off_c, 1, 99, 0
2, 109560, Note_on_c, 1, 91, 127
2, 109560, Note_off_c, 1, 94, 0
2, 109600, Note_on_c, 1, 94, 127
2, 109640, Note_off_c, 1, 94, 0
2, 109680, Note_off_c, 1, 91, 0
2, 109680, Note_on_c, 1, 92, 127
2, 109680, Note_on_c, 1, 95, 127
2, 109720, Note_on_c, 1, 47, 127
2, 109720, Note_on_c, 1, 51, 127
2, 109720, Note_on_c, 1, 54, 127
2, 109720, Note_on_c, 1, 59, 127
2, 109720, Note_on_c, 1, 79, 127
2, 109720, Note_off_c, 1, 92, 0
2, 109720, Note_off_c, 1, 95, 0
2, 109760, Note_off_c, 1, 47, 0
2, 109760, Note_off_c, 1, 51, 0
2, 109760, Note_off_c, 1, 54, 0
2, 109760, Note_off_c, 1, 59, 0
2, 109760, Note_off_c, 1, 79, 0
2, 110000, Note_on_c, 1, 75, 127
2, 110040, Note_off_c, 1, 75, 0
2, 110040, Note_on_c, 1, 77, 127
2, 110080, Note_on_c, 1, 74, 127
2, 110080, Note_off_c, 1, 77, 0
2, 110120, Note_off_c, 1, 74, 0
2, 110120, Note_on_c, 1, 75, 127
2, 110160, Note_off_c, 1, 75, 0
2, 110200, Note_on_c, 1, 74, 127
2, 110240, Note_on_c, 1, 63, 127
2, 110240, Note_on_c, 1, 67, 127
2, 110280, Note_on_c, 1, 60, 127
2, 110280, Note_off_c, 1, 63, 0
2, 110280, Note_off_c, 1, 67, 0
2, 110280, Note_on_c, 1, 69, 127
2, 110280, Note_off_c, 1, 74, 0
2, 110320, Note_off_c, 1, 60, 0
2, 110320, Note_on_c, 1, 66, 127
2, 110320, Note_on_c, 1, 78, 127
2, 110360, Note_on_c, 1, 63, 127
2, 110360, Note_off_c, 1, 66, 0
2, 110360, Note_on_c, 1, 68, 127
2, 110360, Note_off_c, 1, 69, 0
2, 110360, Note_on_c, 1, 77, 127
2, 110360, Note_off_c, 1, 78, 0
2, 110400, Note_on_c, 1, 62, 127
2, 110400, Note_off_c, 1, 63, 0
2, 110400, Note_on_c, 1, 65, 127
2, 110400, Note_off_c, 1, 68, 0
2, 110400, Note_off_c, 1, 77, 0
2, 110440, Note_off_c, 1, 62, 0
2, 110440, Note_off_c, 1, 65, 0
2, 110440, Note_on_c, 1, 77, 127
2, 110480, Note_on_c, 1, 58, 127
2, 110480, Note_on_c, 1, 64, 127
2, 110480, Note_off_c, 1, 77, 0
2, 110480, Note_on_c, 1, 79, 127
2, 110480, Note_on_c, 1, 81, 127
2, 110520, Note_off_c, 1, 64, 0
2, 110520, Note_on_c, 1, 67, 127
2, 110520, Note_off_c, 1, 79, 0
2, 110520, Note_off_c, 1, 81, 0
2, 110560, Note_off_c, 1, 67, 0
2, 110560, Note_on_c, 1, 68, 127
2, 110560, Note_on_c, 1, 77, 127
2, 110600, Note_on_c, 1, 48, 127
2, 110600, Note_off_c, 1, 58, 0
2, 110600, Note_off_c, 1, 68, 0
2, 110600, Note_off_c, 1, 77, 0
2, 110600, Note_on_c, 1, 82, 127
2, 110600, Note_on_c, 1, 86, 127
2, 110600, Note_on_c, 1, 94, 127
2, 110640, Note_off_c, 1, 48, 0
2, 110640, Note_on_c, 1, 57, 127
2, 110640, Note_on_c, 1, 74, 127
2, 110640, Note_off_c, 1, 82, 0
2, 110640, Note_off_c, 1, 86, 0
2, 110640, Note_off_c, 1, 94, 0
2, 110680, Note_on_c, 1, 34, 127
2, 110680, Note_on_c, 1, 53, 127
2, 110680, Note_off_c, 1, 57, 0
2, 110680, Note_on_c, 1, 58, 127
2, 110680, Note_on_c, 1, 62, 127
2, 110680, Note_off_c, 1, 74, 0
2, 110680, Note_on_c, 1, 86, 127
2, 110720, Note_off_c, 1, 34, 0
2, 110720, Note_off_c, 1, 53, 0
2, 110720, Note_off_c, 1, 58, 0
2, 110720, Note_on_c, 1, 60, 127
2, 110720, Note_off_c, 1, 62, 0
2, 110720, Note_off_c, 1, 86, 0
2, 110720, Note_on_c, 1, 89, 127
2, 110760, Note_on_c, 1, 58, 127
2, 110760, Note_off_c, 1, 60, 0
2, 110760, Note_on_c, 1, 65, 127
2, 110760, Note_on_c, 1, 74, 127
2, 110760, Note_on_c, 1, 75, 127
2, 110760, Note_off_c, 1, 89, 0
2, 110800, Note_off_c, 1, 65, 0
2, 110800, Note_on_c, 1, 67, 127
2, 110800, Note_on_c, 1, 73, 127
2, 110800, Note_off_c, 1, 74, 0
2, 110800, Note_off_c, 1, 75, 0
2, 110840, Note_on_c, 1, 57, 127
2, 110840, Note_off_c, 1, 58, 0
2, 110840, Note_off_c, 1, 73, 0
2, 110840, Note_on_c, 1, 75, 127
2, 110880, Note_off_c, 1, 57, 0
2, 110880, Note_on_c, 1, 58, 127
2, 110880, Note_on_c, 1, 65, 127
2, 110880, Note_off_c, 1, 67, 0
2, 110880, Note_on_c, 1, 70, 127
2, 110880, Note_off_c, 1, 75, 0
2, 110920, Note_on_c, 1, 56, 127
2, 110920, Note_off_c, 1, 58, 0
2, 110920, Note_off_c, 1, 70, 0
2, 110960, Note_off_c, 1, 56, 0
2, 110960, Note_on_c, 1, 58, 127
2, 110960, Note_off_c, 1, 65, 0
2, 110960, Note_on_c, 1, 66, 127
2, 110960, Note_on_c, 1, 70, 127
2, 110960, Note_on_c, 1, 74, 127
2, 111000, Note_on_c, 1, 54, 127
2, 111000, Note_on_c, 1, 56, 127
2, 111000, Note_off_c, 1, 58, 0
2, 111000, Note_on_c, 1, 63, 127
2, 111000, Note_off_c, 1, 66, 0
2, 111000, Note_off_c, 1, 70, 0
2, 111000, Note_on_c, 1, 72, 127
2, 111000, Note_off_c, 1, 74, 0
2, 111040, Note_off_c, 1, 54, 0
2, 111040, Note_off_c, 1, 56, 0
2, 111040, Note_on_c, 1, 58, 127
2, 111040, Note_off_c, 1, 63, 0
2, 111040, Note_on_c, 1, 67, 127
2, 111040, Note_off_c, 1, 72, 0
2, 111080, Note_off_c, 1, 67, 0
2, 111080, Note_on_c, 1, 74, 127
2, 111120, Note_on_c, 1, 70, 127
2, 111160, Note_off_c, 1, 58, 0
2, 111160, Note_off_c, 1, 70, 0
2, 111160, Note_off_c, 1, 74, 0
2, 111200, Note_on_c, 1, 68, 127
2, 111200, Note_on_c, 1, 72, 127
2, 111200, Note_on_c, 1, 77, 127
2, 111240, Note_on_c, 1, 63, 127
2, 111240, Note_off_c, 1, 68, 0
2, 111240, Note_on_c, 1, 70, 127
2, 111240, Note_off_c, 1, 72, 0
2, 111240, Note_on_c, 1, 73, 127
2, 111240, Note_off_c, 1, 77, 0
2, 111280, Note_off_c, 1, 63, 0
2, 111280, Note_off_c, 1, 70, 0
2, 111280, Note_off_c, 1, 73, 0
2, 111280, Note_on_c, 1, 75, 127
2, 111280, Note_on_c, 1, 79, 127
2, 111280, Note_on_c, 1, 82, 127
2, 111320, Note_on_c, 1, 70, 127
2, 111320, Note_off_c, 1, 82, 0
2, 111360, Note_off_c, 1, 70, 0
2, 111360, Note_off_c, 1, 75, 0
2, 111360, Note_off_c, 1, 79, 0
2, 111400, Note_on_c, 1, 73, 127
2, 111400, Note_on_c, 1, 77, 127
2, 111400, Note_on_c, 1, 84, 127
2, 111440, Note_off_c, 1, 73, 0
2, 111440, Note_off_c, 1, 77, 0
2, 111440, Note_off_c, 1, 84, 0
2, 111480, Note_on_c, 1, 70, 127
2, 111480, Note_on_c, 1, 75, 127
2, 111480, Note_on_c, 1, 78, 127
2, 111560, Note_off_c, 1, 70, 0
2, 111560, Note_off_c, 1, 75, 0
2, 111560, Note_off_c, 1, 78, 0
2, 111600, Note_on_c, 1, 65, 127
2, 111600, Note_on_c, 1, 73, 127
2, 111600, Note_on_c, 1, 87, 127
2, 111640, Note_on_c, 1, 26, 127
2, 111640, Note_on_c, 1, 38, 127
2, 111640, Note_off_c, 1, 65, 0
2, 111640, Note_off_c, 1, 73, 0
2, 111640, Note_on_c, 1, 76, 127
2, 111640, Note_on_c, 1, 79, 127
2, 111640, Note_off_c, 1, 87, 0
2, 111640, Note_on_c, 1, 88, 127
2, 111680, Note_off_c, 1, 26, 0
2, 111680, Note_off_c, 1, 38, 0
2, 111680, Note_on_c, 1, 66, 127
2, 111680, Note_off_c, 1, 76, 0
2, 111680, Note_off_c, 1, 79, 0
2, 111680, Note_on_c, 1, 85, 127
2, 111680, Note_on_c, 1, 87, 127
2, 111680, Note_off_c, 1, 88, 0
2, 111720, Note_on_c, 1, 63, 127
2, 111720, Note_off_c, 1, 66, 0
2, 111720, Note_on_c, 1, 70, 127
2, 111720, Note_on_c, 1, 75, 127
2, 111720, Note_off_c, 1, 85, 0
2, 111760, Note_off_c, 1, 63, 0
2, 111760, Note_off_c, 1, 70, 0
2, 111800, Note_off_c, 1, 75, 0
2, 111840, Note_on_c, 1, 57, 127
2, 111840, Note_on_c, 1, 60, 127
2, 111840, Note_on_c, 1, 66, 127
2, 111840, Note_on_c, 1, 69, 127
2, 111840, Note_off_c, 1, 87, 0
2, 111880, Note_on_c, 1, 50, 127
2, 111880, Note_on_c, 1, 53, 127
2, 111880, Note_on_c, 1, 56, 127
2, 111880, Note_off_c, 1, 57, 0
2, 111880, Note_on_c, 1, 59, 127
2, 111880, Note_off_c, 1, 60, 0
2, 111880, Note_on_c, 1, 62, 127
2, 111880, Note_off_c, 1, 66, 0
2, 111880, Note_off_c, 1, 69, 0
2, 111880, Note_on_c, 1, 83, 127
2, 111880, Note_on_c, 1, 86, 127
2, 111880, Note_on_c, 1, 89, 127
2, 111880, Note_on_c, 1, 92, 127
2, 111880, Note_on_c, 1, 95, 127
2, 111920, Note_off_c, 1, 50, 0
2, 111920, Note_off_c, 1, 53, 0
2, 111920, Note_off_c, 1, 56, 0
2, 111920, Note_off_c, 1, 59, 0
2, 111920, Note_off_c, 1, 62, 0
2, 111920, Note_on_c, 1, 67, 127
2, 111920, Note_on_c, 1, 72, 127
2, 111920, Note_on_c, 1, 74, 127
2, 111920, Note_on_c, 1, 79, 127
2, 111920, Note_off_c, 1, 83, 0
2, 111920, Note_off_c, 1, 86, 0
2, 111920, Note_off_c, 1, 89, 0
2, 111920, Note_off_c, 1, 92, 0
2, 111920, Note_off_c, 1, 95, 0
2, 111960, Note_on_c, 1, 61, 127
2, 111960, Note_off_c, 1, 67, 0
2, 111960, Note_on_c, 1, 70, 127
2, 111960, Note_off_c, 1, 72, 0
2, 111960, Note_off_c, 1, 74, 0
2, 111960, Note_on_c, 1, 75, 127
2, 112000, Note_on_c, 1, 51, 127
2, 112000, Note_on_c, 1, 54, 127
2, 112000, Note_on_c, 1, 58, 127
2, 112000, Note_off_c, 1, 61, 0
2, 112000, Note_on_c, 1, 66, 127
2, 112000, Note_off_c, 1, 70, 0
2, 112000, Note_off_c, 1, 75, 0
2, 112000, Note_on_c, 1, 78, 127
2, 112000, Note_off_c, 1, 79, 0
2, 112040, Note_on_c, 1, 39, 127
2, 112040, Note_off_c, 1, 51, 0
2, 112040, Note_off_c, 1, 54, 0
2, 112040, Note_off_c, 1, 58, 0
2, 112040, Note_on_c, 1, 63, 127
2, 112040, Note_off_c, 1, 66, 0
2, 112040, Note_on_c, 1, 67, 127
2, 112040, Note_on_c, 1, 77, 127
2, 112040, Note_off_c, 1, 78, 0
2, 112080, Note_off_c, 1, 39, 0
2, 112080, Note_on_c, 1, 54, 127
2, 112080, Note_on_c, 1, 61, 127
2, 112080, Note_off_c, 1, 63, 0
2, 112080, Note_on_c, 1, 66, 127
2, 112080, Note_off_c, 1, 67, 0
2, 112080, Note_on_c, 1, 69, 127
2, 112080, Note_on_c, 1, 73, 127
2, 112080, Note_on_c, 1, 76, 127
2, 112080, Note_off_c, 1, 77, 0
2, 112120, Note_off_c, 1, 54, 0
2, 112120, Note_off_c, 1, 61, 0
2, 112120, Note_off_c, 1, 66, 0
2, 112120, Note_off_c, 1, 69, 0
2, 112120, Note_off_c, 1, 73, 0
2, 112120, Note_off_c, 1, 76, 0
2, 112120, Note_on_c, 1, 80, 127
2, 112160, Note_on_c, 1, 55, 127
2, 112160, Note_on_c, 1, 78, 127
2, 112160, Note_off_c, 1, 80, 0
2, 112160, Note_on_c, 1, 86, 127
2, 112200, Note_off_c, 1, 55, 0
2, 112200, Note_on_c, 1, 68, 127
2, 112200, Note_off_c, 1, 78, 0
2, 112200, Note_on_c, 1, 80, 127
2, 112200, Note_off_c, 1, 86, 0
2, 112200, Note_on_c, 1, 89, 127
2, 112240, Note_on_c, 1, 50, 127
2, 112240, Note_on_c, 1, 57, 127
2, 112240, Note_off_c, 1, 68, 0
2, 112240, Note_on_c, 1, 74, 127
2, 112240, Note_off_c, 1, 80, 0
2, 112240, Note_on_c, 1, 84, 127
2, 112240, Note_off_c, 1, 89, 0
2, 112280, Note_off_c, 1, 50, 0
2, 112280, Note_off_c, 1, 57, 0
2, 112280, Note_on_c, 1, 60, 127
2, 112280, Note_on_c, 1, 68, 127
2, 112280, Note_off_c, 1, 74, 0
2, 112280, Note_on_c, 1, 82, 127
2, 112280, Note_off_c, 1, 84, 0
2, 112320, Note_off_c, 1, 60, 0
2, 112320, Note_off_c, 1, 68, 0
2, 112320, Note_on_c, 1, 71, 127
2, 112320, Note_on_c, 1, 79, 127
2, 112320, Note_off_c, 1, 82, 0
2, 112320, Note_on_c, 1, 91, 127
2, 112360, Note_on_c, 1, 46, 127
2, 112360, Note_on_c, 1, 51, 127
2, 112360, Note_on_c, 1, 69, 127
2, 112360, Note_off_c, 1, 71, 0
2, 112360, Note_off_c, 1, 79, 0
2, 112360, Note_off_c, 1, 91, 0
2, 112400, Note_on_c, 1, 37, 127
2, 112400, Note_off_c, 1, 46, 0
2, 112400, Note_on_c, 1, 49, 127
2, 112400, Note_off_c, 1, 51, 0
2, 112400, Note_on_c, 1, 66, 127
2, 112400, Note_on_c, 1, 68, 127
2, 112400, Note_off_c, 1, 69, 0
2, 112400, Note_on_c, 1, 71, 127
2, 112400, Note_on_c, 1, 75, 127
2, 112440, Note_off_c, 1, 37, 0
2, 112440, Note_off_c, 1, 49, 0
2, 112440, Note_on_c, 1, 52, 127
2, 112440, Note_off_c, 1, 66, 0
2, 112440, Note_off_c, 1, 71, 0
2, 112440, Note_on_c, 1, 72, 127
2, 112440, Note_off_c, 1, 75, 0
2, 112440, Note_on_c, 1, 77, 127
2, 112480, Note_off_c, 1, 52, 0
2, 112480, Note_on_c, 1, 63, 127
2, 112480, Note_off_c, 1, 68, 0
2, 112480, Note_on_c, 1, 70, 127
2, 112480, Note_off_c, 1, 72, 0
2, 112480, Note_on_c, 1, 75, 127
2, 112480, Note_off_c, 1, 77, 0
2, 112480, Note_on_c, 1, 87, 127
2, 112520, Note_on_c, 1, 45, 127
2, 112520, Note_on_c, 1, 48, 127
2, 112520, Note_on_c, 1, 53, 127
2, 112520, Note_on_c, 1, 57, 127
2, 112520, Note_off_c, 1, 63, 0
2, 112520, Note_off_c, 1, 70, 0
2, 112520, Note_off_c, 1, 75, 0
2, 112520, Note_on_c, 1, 77, 127
2, 112520, Note_off_c, 1, 87, 0
2, 112560, Note_off_c, 1, 45, 0
2, 112560, Note_off_c, 1, 48, 0
2, 112560, Note_off_c, 1, 53, 0
2, 112560, Note_off_c, 1, 57, 0
2, 112560, Note_on_c, 1, 68, 127
2, 112560, Note_on_c, 1, 74, 127
2, 112560, Note_on_c, 1, 79, 127
2, 112560, Note_on_c, 1, 86, 127
2, 112600, Note_off_c, 1, 68, 0
2, 112600, Note_off_c, 1, 74, 0
2, 112600, Note_off_c, 1, 77, 0
2, 112600, Note_off_c, 1, 79, 0
2, 112600, Note_on_c, 1, 82, 127
2, 112600, Note_on_c, 1, 85, 127
2, 112600, Note_off_c, 1, 86, 0
2, 112600, Note_on_c, 1, 89, 127
2, 112600, Note_on_c, 1, 94, 127
2, 112640, Note_on_c, 1, 48, 127
2, 112640, Note_on_c, 1, 58, 127
2, 112640, Note_on_c, 1, 63, 127
2, 112640, Note_on_c, 1, 66, 127
2, 112640, Note_on_c, 1, 70, 127
2, 112640, Note_on_c, 1, 75, 127
2, 112640, Note_off_c, 1, 82, 0
2, 112640, Note_off_c, 1, 85, 0
2, 112640, Note_on_c, 1, 87, 127
2, 112640, Note_off_c, 1, 89, 0
2, 112640, Note_off_c, 1, 94, 0
2, 112680, Note_off_c, 1, 48, 0
2, 112680, Note_on_c, 1, 50, 127
2, 112680, Note_on_c, 1, 54, 127
2, 112680, Note_off_c, 1, 58, 0
2, 112680, Note_off_c, 1, 63, 0
2, 112680, Note_off_c, 1, 70, 0
2, 112680, Note_off_c, 1, 75, 0
2, 112680, Note_off_c, 1, 87, 0
2, 112720, Note_off_c, 1, 54, 0
2, 112720, Note_on_c, 1, 56, 127
2, 112720, Note_on_c, 1, 58, 127
2, 112720, Note_off_c, 1, 66, 0
2, 112720, Note_on_c, 1, 79, 127
2, 112720, Note_on_c, 1, 91, 127
2, 112760, Note_on_c, 1, 41, 127
2, 112760, Note_off_c, 1, 50, 0
2, 112760, Note_off_c, 1, 56, 0
2, 112760, Note_off_c, 1, 58, 0
2, 112760, Note_off_c, 1, 79, 0
2, 112760, Note_off_c, 1, 91, 0
2, 112760, Note_on_c, 1, 93, 127
2, 112800, Note_on_c, 1, 34, 127
2, 112800, Note_off_c, 1, 41, 0
2, 112800, Note_on_c, 1, 46, 127
2, 112800, Note_on_c, 1, 56, 127
2, 112800, Note_on_c, 1, 63, 127
2, 112800, Note_off_c, 1, 93, 0
2, 112840, Note_off_c, 1, 34, 0
2, 112840, Note_off_c, 1, 46, 0
2, 112840, Note_on_c, 1, 50, 127
2, 112840, Note_off_c, 1, 56, 0
2, 112840, Note_on_c, 1, 62, 127
2, 112840, Note_off_c, 1, 63, 0
2, 112840, Note_on_c, 1, 66, 127
2, 112840, Note_on_c, 1, 71, 127
2, 112840, Note_on_c, 1, 86, 127
2, 112880, Note_off_c, 1, 50, 0
2, 112880, Note_on_c, 1, 52, 127
2, 112880, Note_on_c, 1, 55, 127
2, 112880, Note_on_c, 1, 58, 127
2, 112880, Note_off_c, 1, 62, 0
2, 112880, Note_off_c, 1, 66, 0
2, 112880, Note_off_c, 1, 71, 0
2, 112880, Note_on_c, 1, 76, 127
2, 112880, Note_on_c, 1, 79, 127
2, 112880, Note_on_c, 1, 82, 127
2, 112880, Note_off_c, 1, 86, 0
2, 112920, Note_on_c, 1, 42, 127
2, 112920, Note_on_c, 1, 45, 127
2, 112920, Note_on_c, 1, 50, 127
2, 112920, Note_off_c, 1, 52, 0
2, 112920, Note_on_c, 1, 54, 127
2, 112920, Note_off_c, 1, 55, 0
2, 112920, Note_on_c, 1, 57, 127
2, 112920, Note_off_c, 1, 58, 0
2, 112920, Note_on_c, 1, 62, 127
2, 112920, Note_on_c, 1, 66, 127
2, 112920, Note_off_c, 1, 76, 0
2, 112920, Note_off_c, 1, 79, 0
2, 112920, Note_off_c, 1, 82, 0
2, 112960, Note_on_c, 1, 38, 127
2, 112960, Note_off_c, 1, 42, 0
2, 112960, Note_off_c, 1, 45, 0
2, 112960, Note_off_c, 1, 50, 0
2, 112960, Note_off_c, 1, 57, 0
2, 112960, Note_off_c, 1, 62, 0
2, 112960, Note_on_c, 1, 63, 127
2, 112960, Note_off_c, 1, 66, 0
2, 113000, Note_off_c, 1, 38, 0
2, 113000, Note_off_c, 1, 54, 0
2, 113000, Note_on_c, 1, 67, 127
2, 113000, Note_on_c, 1, 77, 127
2, 113000, Note_on_c, 1, 89, 127
2, 113040, Note_off_c, 1, 63, 0
2, 113040, Note_off_c, 1, 67, 0
2, 113040, Note_off_c, 1, 77, 0
2, 113040, Note_on_c, 1, 85, 127
2, 113040, Note_off_c, 1, 89, 0
2, 113040, Note_on_c, 1, 94, 127
2, 113040, Note_on_c, 1, 97, 127
2, 113080, Note_on_c, 1, 35, 127
2, 113080, Note_on_c, 1, 41, 127
2, 113080, Note_on_c, 1, 65, 127
2, 113080, Note_on_c, 1, 74, 127
2, 113080, Note_on_c, 1, 77, 127
2, 113080, Note_off_c, 1, 85, 0
2, 113080, Note_off_c, 1, 94, 0
2, 113080, Note_off_c, 1, 97, 0
2, 113120, Note_off_c, 1, 35, 0
2, 113120, Note_off_c, 1, 41, 0
2, 113120, Note_off_c, 1, 65, 0
2, 113120, Note_on_c, 1, 66, 127
2, 113120, Note_off_c, 1, 74, 0
2, 113120, Note_off_c, 1, 77, 0
2, 113120, Note_on_c, 1, 81, 127
2, 113120, Note_on_c, 1, 84, 127
2, 113120, Note_on_c, 1, 87, 127
2, 113120, Note_on_c, 1, 93, 127
2, 113160, Note_on_c, 1, 60, 127
2, 113160, Note_on_c, 1, 63, 127
2, 113160, Note_off_c, 1, 66, 0
2, 113160, Note_off_c, 1, 81, 0
2, 113160, Note_off_c, 1, 84, 0
2, 113160, Note_off_c, 1, 87, 0
2, 113160, Note_off_c, 1, 93, 0
2, 113200, Note_on_c, 1, 37, 127
2, 113200, Note_on_c, 1, 49, 127
2, 113200, Note_on_c, 1, 56, 127
2, 113200, Note_off_c, 1, 60, 0
2, 113200, Note_on_c, 1, 61, 127
2, 113200, Note_off_c, 1, 63, 0
2, 113200, Note_on_c, 1, 65, 127
2, 113200, Note_on_c, 1, 101, 127
2, 113240, Note_on_c, 1, 31, 127
2, 113240, Note_on_c, 1, 36, 127
2, 113240, Note_off_c, 1, 37, 0
2, 113240, Note_on_c, 1, 40, 127
2, 113240, Note_on_c, 1, 43, 127
2, 113240, Note_on_c, 1, 48, 127
2, 113240, Note_off_c, 1, 49, 0
2, 113240, Note_on_c, 1, 52, 127
2, 113240, Note_off_c, 1, 56, 0
2, 113240, Note_on_c, 1, 60, 127
2, 113240, Note_off_c, 1, 61, 0
2, 113240, Note_off_c, 1, 65, 0
2, 113240, Note_off_c, 1, 101, 0
2, 113280, Note_off_c, 1, 31, 0
2, 113280, Note_on_c, 1, 33, 127
2, 113280, Note_off_c, 1, 36, 0
2, 113280, Note_off_c, 1, 40, 0
2, 113280, Note_off_c, 1, 43, 0
2, 113280, Note_on_c, 1, 45, 127
2, 113280, Note_off_c, 1, 48, 0
2, 113280, Note_off_c, 1, 52, 0
2, 113280, Note_off_c, 1, 60, 0
2, 113280, Note_on_c, 1, 78, 127
2, 113280, Note_on_c, 1, 81, 127
2, 113280, Note_on_c, 1, 86, 127
2, 113280, Note_on_c, 1, 90, 127
2, 113320, Note_off_c, 1, 33, 0
2, 113320, Note_off_c, 1, 45, 0
2, 113320, Note_off_c, 1, 78, 0
2, 113320, Note_off_c, 1, 81, 0
2, 113320, Note_off_c, 1, 86, 0
2, 113320, Note_off_c, 1, 90, 0
2, 113400, Note_on_c, 1, 66, 127
2, 113400, Note_on_c, 1, 70, 127
2, 113400, Note_on_c, 1, 75, 127
2, 113400, Note_on_c, 1, 82, 127
2, 113400, Note_on_c, 1, 94, 127
2, 113600, Note_off_c, 1, 66, 0
2, 113600, Note_off_c, 1, 70, 0
2, 113600, Note_off_c, 1, 75, 0
2, 113600, Note_off_c, 1, 82, 0
2, 113600, Note_off_c, 1, 94, 0
2, 113640, Note_on_c, 1, 53, 127
2, 113640, Note_on_c, 1, 65, 127
2, 113680, Note_on_c, 1, 39, 127
2, 113680, Note_on_c, 1, 46, 127
2, 113680, Note_on_c, 1, 51, 127
2, 113680, Note_off_c, 1, 53, 0
2, 113680, Note_on_c, 1, 55, 127
2, 113680, Note_on_c, 1, 58, 127
2, 113680, Note_on_c, 1, 63, 127
2, 113680, Note_off_c, 1, 65, 0
2, 113680, Note_on_c, 1, 67, 127
2, 114360, Note_off_c, 1, 39, 0
2, 114360, Note_off_c, 1, 46, 0
2, 114360, Note_off_c, 1, 51, 0
2, 114360, Note_off_c, 1, 55, 0
2, 114360, Note_off_c, 1, 58, 0
2, 114360, Note_off_c, 1, 63, 0
2, 114360, Note_off_c, 1, 67, 0
2, 114480, Note_on_c, 1, 69, 127
2, 114480, Note_on_c, 1, 79, 127
2, 114480, Note_on_c, 1, 84, 127
2, 114480, Note_on_c, 1, 86, 127
2, 114480, Note_on_c, 1, 91, 127
2, 114520, Note_on_c, 1, 57, 127
2, 114520, Note_off_c, 1, 69, 0
2, 114520, Note_on_c, 1, 71, 127
2, 114520, Note_on_c, 1, 75, 127
2, 114520, Note_off_c, 1, 79, 0
2, 114520, Note_on_c, 1, 83, 127
2, 114520, Note_off_c, 1, 84, 0
2, 114520, Note_off_c, 1, 86, 0
2, 114520, Note_off_c, 1, 91, 0
2, 114560, Note_off_c, 1, 57, 0
2, 114560, Note_off_c, 1, 71, 0
2, 114560, Note_off_c, 1, 75, 0
2, 114560, Note_off_c, 1, 83, 0
2, 114640, Note_on_c, 1, 71, 127
2, 114640, Note_on_c, 1, 76, 127
2, 114640, Note_on_c, 1, 78, 127
2, 114800, Note_off_c, 1, 76, 0
2, 114800, Note_off_c, 1, 78, 0
2, 114840, Note_on_c, 1, 76, 127
2, 114840, Note_on_c, 1, 80, 127
2, 114880, Note_off_c, 1, 71, 0
2, 114880, Note_off_c, 1, 76, 0
2, 114880, Note_off_c, 1, 80, 0
2, 114920, Note_on_c, 1, 71, 127
2, 114920, Note_on_c, 1, 75, 127
2, 114920, Note_on_c, 1, 90, 127
2, 114960, Note_off_c, 1, 75, 0
2, 114960, Note_on_c, 1, 76, 127
2, 114960, Note_on_c, 1, 78, 127
2, 114960, Note_off_c, 1, 90, 0
2, 115000, Note_on_c, 1, 75, 127
2, 115000, Note_off_c, 1, 76, 0
2, 115000, Note_off_c, 1, 78, 0
2, 115040, Note_on_c, 1, 69, 127
2, 115040, Note_off_c, 1, 75, 0
2, 115040, Note_on_c, 1, 85, 127
2, 115080, Note_on_c, 1, 64, 127
2, 115080, Note_off_c, 1, 69, 0
2, 115080, Note_off_c, 1, 71, 0
2, 115080, Note_on_c, 1, 73, 127
2, 115080, Note_on_c, 1, 81, 127
2, 115120, Note_on_c, 1, 68, 127
2, 115120, Note_on_c, 1, 71, 127
2, 115120, Note_off_c, 1, 73, 0
2, 115120, Note_on_c, 1, 80, 127
2, 115120, Note_off_c, 1, 81, 0
2, 115120, Note_off_c, 1, 85, 0
2, 115160, Note_off_c, 1, 64, 0
2, 115160, Note_on_c, 1, 66, 127
2, 115160, Note_off_c, 1, 68, 0
2, 115160, Note_off_c, 1, 71, 0
2, 115160, Note_on_c, 1, 73, 127
2, 115160, Note_off_c, 1, 80, 0
2, 115160, Note_on_c, 1, 88, 127
2, 115200, Note_off_c, 1, 66, 0
2, 115200, Note_on_c, 1, 70, 127
2, 115200, Note_off_c, 1, 73, 0
2, 115200, Note_on_c, 1, 74, 127
2, 115200, Note_on_c, 1, 79, 127
2, 115200, Note_on_c, 1, 82, 127
2, 115200, Note_on_c, 1, 86, 127
2, 115200, Note_off_c, 1, 88, 0
2, 115200, Note_on_c, 1, 91, 127
2, 115240, Note_off_c, 1, 70, 0
2, 115240, Note_off_c, 1, 74, 0
2, 115240, Note_off_c, 1, 79, 0
2, 115240, Note_off_c, 1, 82, 0
2, 115240, Note_off_c, 1, 86, 0
2, 115240, Note_off_c, 1, 91, 0
2, 115360, Note_on_c, 1, 68, 127
2, 115360, Note_on_c, 1, 75, 127
2, 115360, Note_on_c, 1, 80, 127
2, 115400, Note_off_c, 1, 68, 0
2, 115400, Note_off_c, 1, 75, 0
2, 115400, Note_off_c, 1, 80, 0
2, 115440, Note_on_c, 1, 64, 127
2, 115440, Note_on_c, 1, 68, 127
2, 115440, Note_on_c, 1, 71, 127
2, 115440, Note_on_c, 1, 82, 127
2, 115520, Note_off_c, 1, 64, 0
2, 115520, Note_off_c, 1, 82, 0
2, 115520, Note_on_c, 1, 83, 127
2, 115560, Note_on_c, 1, 64, 127
2, 115560, Note_on_c, 1, 82, 127
2, 115560, Note_off_c, 1, 83, 0
2, 115920, Note_off_c, 1, 64, 0
2, 115920, Note_on_c, 1, 66, 127
2, 115920, Note_off_c, 1, 68, 0
2, 115920, Note_on_c, 1, 69, 127
2, 115920, Note_off_c, 1, 71, 0
2, 115920, Note_off_c, 1, 82, 0
2, 115960, Note_on_c, 1, 59, 127
2, 115960, Note_off_c, 1, 66, 0
2, 115960, Note_on_c, 1, 68, 127
2, 115960, Note_off_c, 1, 69, 0
2, 115960, Note_on_c, 1, 71, 127
2, 115960, Note_on_c, 1, 92, 127
2, 116000, Note_on_c, 1, 88, 127
2, 116000, Note_off_c, 1, 92, 0
2, 116040, Note_off_c, 1, 88, 0
2, 116040, Note_on_c, 1, 92, 127
2, 116080, Note_on_c, 1, 35, 127
2, 116080, Note_off_c, 1, 59, 0
2, 116080, Note_on_c, 1, 66, 127
2, 116080, Note_off_c, 1, 68, 0
2, 116080, Note_on_c, 1, 75, 127
2, 116080, Note_off_c, 1, 92, 0
2, 116120, Note_off_c, 1, 35, 0
2, 116120, Note_on_c, 1, 59, 127
2, 116120, Note_off_c, 1, 66, 0
2, 116120, Note_on_c, 1, 68, 127
2, 116120, Note_off_c, 1, 75, 0
2, 116120, Note_on_c, 1, 92, 127
2, 116200, Note_off_c, 1, 92, 0
2, 116200, Note_on_c, 1, 95, 127
2, 116240, Note_on_c, 1, 92, 127
2, 116240, Note_off_c, 1, 95, 0
2, 116280, Note_on_c, 1, 38, 127
2, 116280, Note_on_c, 1, 50, 127
2, 116280, Note_on_c, 1, 56, 127
2, 116280, Note_off_c, 1, 59, 0
2, 116280, Note_on_c, 1, 80, 127
2, 116280, Note_off_c, 1, 92, 0
2, 116320, Note_off_c, 1, 38, 0
2, 116320, Note_off_c, 1, 50, 0
2, 116320, Note_off_c, 1, 56, 0
2, 116320, Note_on_c, 1, 59, 127
2, 116320, Note_off_c, 1, 80, 0
2, 116320, Note_on_c, 1, 92, 127
2, 116360, Note_on_c, 1, 52, 127
2, 116360, Note_off_c, 1, 59, 0
2, 116360, Note_on_c, 1, 80, 127
2, 116360, Note_off_c, 1, 92, 0
2, 116400, Note_off_c, 1, 52, 0
2, 116400, Note_off_c, 1, 80, 0
2, 116400, Note_on_c, 1, 89, 127
2, 116440, Note_off_c, 1, 68, 0
2, 116440, Note_on_c, 1, 80, 127
2, 116440, Note_off_c, 1, 89, 0
2, 116480, Note_on_c, 1, 68, 127
2, 116480, Note_off_c, 1, 71, 0
2, 116480, Note_on_c, 1, 75, 127
2, 116480, Note_on_c, 1, 78, 127
2, 116480, Note_off_c, 1, 80, 0
2, 116520, Note_on_c, 1, 59, 127
2, 116520, Note_off_c, 1, 68, 0
2, 116520, Note_on_c, 1, 71, 127
2, 116520, Note_off_c, 1, 75, 0
2, 116560, Note_on_c, 1, 34, 127
2, 116560, Note_on_c, 1, 43, 127
2, 116560, Note_off_c, 1, 59, 0
2, 116560, Note_on_c, 1, 62, 127
2, 116560, Note_off_c, 1, 71, 0
2, 116560, Note_off_c, 1, 78, 0
2, 116600, Note_on_c, 1, 31, 127
2, 116600, Note_off_c, 1, 34, 0
2, 116600, Note_off_c, 1, 43, 0
2, 116600, Note_off_c, 1, 62, 0
2, 116600, Note_on_c, 1, 72, 127
2, 116600, Note_on_c, 1, 82, 127
2, 116640, Note_off_c, 1, 31, 0
2, 116640, Note_on_c, 1, 61, 127
2, 116640, Note_on_c, 1, 67, 127
2, 116640, Note_off_c, 1, 72, 0
2, 116640, Note_on_c, 1, 76, 127
2, 116640, Note_off_c, 1, 82, 0
2, 116640, Note_on_c, 1, 83, 127
2, 116640, Note_on_c, 1, 88, 127
2, 116680, Note_on_c, 1, 58, 127
2, 116680, Note_off_c, 1, 61, 0
2, 116680, Note_on_c, 1, 66, 127
2, 116680, Note_off_c, 1, 67, 0
2, 116680, Note_off_c, 1, 76, 0
2, 116680, Note_on_c, 1, 78, 127
2, 116680, Note_off_c, 1, 88, 0
2, 116720, Note_off_c, 1, 58, 0
2, 116720, Note_on_c, 1, 59, 127
2, 116720, Note_off_c, 1, 66, 0
2, 116720, Note_on_c, 1, 68, 127
2, 116720, Note_on_c, 1, 71, 127
2, 116720, Note_off_c, 1, 78, 0
2, 116720, Note_off_c, 1, 83, 0
2, 116720, Note_on_c, 1, 92, 127
2, 116800, Note_off_c, 1, 59, 0
2, 116800, Note_on_c, 1, 63, 127
2, 116800, Note_off_c, 1, 68, 0
2, 116800, Note_on_c, 1, 69, 127
2, 116800, Note_on_c, 1, 87, 127
2, 116800, Note_off_c, 1, 92, 0
2, 116840, Note_on_c, 1, 59, 127
2, 116840, Note_off_c, 1, 63, 0
2, 116840, Note_on_c, 1, 68, 127
2, 116840, Note_off_c, 1, 69, 0
2, 116840, Note_off_c, 1, 87, 0
2, 116840, Note_on_c, 1, 92, 127
2, 117000, Note_on_c, 1, 56, 127
2, 117000, Note_off_c, 1, 59, 0
2, 117000, Note_on_c, 1, 63, 127
2, 117000, Note_off_c, 1, 68, 0
2, 117000, Note_off_c, 1, 71, 0
2, 117000, Note_on_c, 1, 82, 127
2, 117000, Note_on_c, 1, 85, 127
2, 117000, Note_off_c, 1, 92, 0
2, 117040, Note_off_c, 1, 56, 0
2, 117040, Note_on_c, 1, 59, 127
2, 117040, Note_on_c, 1, 66, 127
2, 117040, Note_on_c, 1, 78, 127
2, 117040, Note_on_c, 1, 81, 127
2, 117040, Note_off_c, 1, 82, 0
2, 117040, Note_off_c, 1, 85, 0
2, 117080, Note_on_c, 1, 43, 127
2, 117080, Note_off_c, 1, 59, 0
2, 117080, Note_off_c, 1, 63, 0
2, 117080, Note_off_c, 1, 66, 0
2, 117080, Note_on_c, 1, 70, 127
2, 117080, Note_on_c, 1, 73, 127
2, 117080, Note_on_c, 1, 76, 127
2, 117080, Note_off_c, 1, 78, 0
2, 117080, Note_off_c, 1, 81, 0
2, 117080, Note_on_c, 1, 82, 127
2, 117120, Note_off_c, 1, 43, 0
2, 117120, Note_off_c, 1, 70, 0
2, 117120, Note_off_c, 1, 73, 0
2, 117120, Note_off_c, 1, 76, 0
2, 117120, Note_off_c, 1, 82, 0
2, 117160, Note_on_c, 1, 55, 127
2, 117160, Note_on_c, 1, 69, 127
2, 117160, Note_on_c, 1, 75, 127
2, 117160, Note_on_c, 1, 77, 127
2, 117160, Note_on_c, 1, 81, 127
2, 117200, Note_on_c, 1, 50, 127
2, 117200, Note_off_c, 1, 55, 0
2, 117200, Note_on_c, 1, 61, 127
2, 117200, Note_on_c, 1, 66, 127
2, 117200, Note_off_c, 1, 69, 0
2, 117200, Note_off_c, 1, 75, 0
2, 117200, Note_off_c, 1, 77, 0
2, 117200, Note_off_c, 1, 81, 0
2, 117240, Note_on_c, 1, 37, 127
2, 117240, Note_on_c, 1, 44, 127
2, 117240, Note_off_c, 1, 50, 0
2, 117240, Note_on_c, 1, 59, 127
2, 117240, Note_off_c, 1, 61, 0
2, 117240, Note_on_c, 1, 62, 127
2, 117240, Note_on_c, 1, 65, 127
2, 117240, Note_off_c, 1, 66, 0
2, 117240, Note_on_c, 1, 68, 127
2, 117280, Note_off_c, 1, 37, 0
2, 117280, Note_off_c, 1, 44, 0
2, 117280, Note_on_c, 1, 51, 127
2, 117280, Note_on_c, 1, 56, 127
2, 117280, Note_off_c, 1, 65, 0
2, 117320, Note_off_c, 1, 51, 0
2, 117320, Note_off_c, 1, 56, 0
2, 117320, Note_off_c, 1, 59, 0
2, 117320, Note_off_c, 1, 62, 0
2, 117320, Note_off_c, 1, 68, 0
2, 117360, Note_on_c, 1, 49, 127
2, 117360, Note_on_c, 1, 61, 127
2, 117360, Note_on_c, 1, 75, 127
2, 117360, Note_on_c, 1, 82, 127
2, 117400, Note_off_c, 1, 49, 0
2, 117400, Note_off_c, 1, 61, 0
2, 117400, Note_off_c, 1, 75, 0
2, 117400, Note_off_c, 1, 82, 0
2, 117440, Note_on_c, 1, 49, 127
2, 117440, Note_on_c, 1, 61, 127
2, 117440, Note_on_c, 1, 75, 127
2, 117440, Note_on_c, 1, 82, 127
2, 117560, Note_off_c, 1, 49, 0
2, 117560, Note_off_c, 1, 61, 0
2, 117560, Note_off_c, 1, 75, 0
2, 117560, Note_off_c, 1, 82, 0
2, 117600, Note_on_c, 1, 49, 127
2, 117600, Note_on_c, 1, 61, 127
2, 117600, Note_on_c, 1, 75, 127
2, 117600, Note_on_c, 1, 82, 127
2, 117800, Note_off_c, 1, 49, 0
2, 117800, Note_off_c, 1, 61, 0
2, 117800, Note_off_c, 1, 75, 0
2, 117800, Note_off_c, 1, 82, 0
2, 117840, Note_on_c, 1, 49, 127
2, 117840, Note_on_c, 1, 61, 127
2, 117840, Note_on_c, 1, 75, 127
2, 117840, Note_on_c, 1, 82, 127
2, 118040, Note_off_c, 1, 49, 0
2, 118040, Note_off_c, 1, 61, 0
2, 118040, Note_off_c, 1, 75, 0
2, 118040, Note_off_c, 1, 82, 0
2, 118080, Note_on_c, 1, 49, 127
2, 118080, Note_on_c, 1, 61, 127
2, 118080, Note_on_c, 1, 75, 127
2, 118080, Note_on_c, 1, 82, 127
2, 118280, Note_off_c, 1, 49, 0
2, 118280, Note_off_c, 1, 61, 0
2, 118280, Note_off_c, 1, 75, 0
2, 118280, Note_off_c, 1, 82, 0
2, 118320, Note_on_c, 1, 49, 127
2, 118320, Note_on_c, 1, 61, 127
2, 118320, Note_on_c, 1, 75, 127
2, 118320, Note_on_c, 1, 82, 127
2, 118640, Note_off_c, 1, 49, 0
2, 118640, Note_off_c, 1, 61, 0
2, 118640, Note_off_c, 1, 75, 0
2, 118640, Note_off_c, 1, 82, 0
2, 118680, Note_on_c, 1, 61, 127
2, 118680, Note_on_c, 1, 64, 127
2, 118680, Note_on_c, 1, 67, 127
2, 118680, Note_on_c, 1, 69, 127
2, 118680, Note_on_c, 1, 76, 127
2, 118720, Note_off_c, 1, 61, 0
2, 118720, Note_off_c, 1, 64, 0
2, 118720, Note_off_c, 1, 67, 0
2, 118720, Note_off_c, 1, 69, 0
2, 118720, Note_off_c, 1, 76, 0
2, 118760, Note_on_c, 1, 50, 127
2, 118760, Note_on_c, 1, 54, 127
2, 118760, Note_on_c, 1, 59, 127
2, 118760, Note_on_c, 1, 71, 127
2, 118760, Note_on_c, 1, 78, 127
2, 118760, Note_on_c, 1, 83, 127
2, 118800, Note_off_c, 1, 50, 0
2, 118800, Note_off_c, 1, 54, 0
2, 118800, Note_off_c, 1, 59, 0
2, 118840, Note_off_c, 1, 71, 0
2, 118840, Note_off_c, 1, 78, 0
2, 118840, Note_off_c, 1, 83, 0
2, 118880, Note_on_c, 1, 60, 127
2, 118880, Note_on_c, 1, 64, 127
2, 118880, Note_on_c, 1, 69, 127
2, 118880, Note_on_c, 1, 84, 127
2, 118880, Note_on_c, 1, 87, 127
2, 118880, Note_on_c, 1, 96, 127
2, 118920, Note_off_c, 1, 60, 0
2, 118920, Note_off_c, 1, 64, 0
2, 118920, Note_off_c, 1, 69, 0
2, 118920, Note_off_c, 1, 84, 0
2, 118920, Note_off_c, 1, 87, 0
2, 118920, Note_off_c, 1, 96, 0
2, 118960, Note_on_c, 1, 69, 127
2, 118960, Note_on_c, 1, 72, 127
2, 118960, Note_on_c, 1, 77, 127
2, 118960, Note_on_c, 1, 81, 127
2, 118960, Note_on_c, 1, 87, 127
2, 118960, Note_on_c, 1, 96, 127
2, 118960, Note_on_c, 1, 99, 127
2, 119000, Note_on_c, 1, 62, 127
2, 119000, Note_on_c, 1, 67, 127
2, 119000, Note_off_c, 1, 69, 0
2, 119000, Note_off_c, 1, 72, 0
2, 119000, Note_on_c, 1, 74, 127
2, 119000, Note_off_c, 1, 77, 0
2, 119000, Note_off_c, 1, 81, 0
2, 119000, Note_on_c, 1, 82, 127
2, 119000, Note_on_c, 1, 86, 127
2, 119000, Note_off_c, 1, 87, 0
2, 119000, Note_off_c, 1, 96, 0
2, 119000, Note_off_c, 1, 99, 0
2, 119040, Note_off_c, 1, 62, 0
2, 119040, Note_off_c, 1, 67, 0
2, 119040, Note_off_c, 1, 74, 0
2, 119040, Note_off_c, 1, 82, 0
2, 119040, Note_off_c, 1, 86, 0
2, 119120, Note_on_c, 1, 38, 127
2, 119120, Note_on_c, 1, 43, 127
2, 119120, Note_on_c, 1, 50, 127
2, 119120, Note_on_c, 1, 55, 127
2, 119160, Note_off_c, 1, 38, 0
2, 119160, Note_off_c, 1, 43, 0
2, 119160, Note_on_c, 1, 48, 127
2, 119160, Note_off_c, 1, 50, 0
2, 119160, Note_on_c, 1, 53, 127
2, 119160, Note_off_c, 1, 55, 0
2, 119160, Note_on_c, 1, 57, 127
2, 119160, Note_on_c, 1, 60, 127
2, 119160, Note_on_c, 1, 77, 127
2, 119160, Note_on_c, 1, 81, 127
2, 119160, Note_on_c, 1, 84, 127
2, 119200, Note_on_c, 1, 43, 127
2, 119200, Note_off_c, 1, 48, 0
2, 119200, Note_off_c, 1, 53, 0
2, 119200, Note_off_c, 1, 57, 0
2, 119200, Note_on_c, 1, 58, 127
2, 119200, Note_off_c, 1, 60, 0
2, 119200, Note_on_c, 1, 61, 127
2, 119200, Note_on_c, 1, 64, 127
2, 119200, Note_on_c, 1, 67, 127
2, 119200, Note_off_c, 1, 77, 0
2, 119200, Note_off_c, 1, 81, 0
2, 119200, Note_off_c, 1, 84, 0
2, 119240, Note_off_c, 1, 43, 0
2, 119240, Note_on_c, 1, 50, 127
2, 119240, Note_on_c, 1, 52, 127
2, 119240, Note_off_c, 1, 58, 0
2, 119240, Note_off_c, 1, 61, 0
2, 119240, Note_off_c, 1, 64, 0
2, 119240, Note_off_c, 1, 67, 0
2, 119240, Note_on_c, 1, 83, 127
2, 119240, Note_on_c, 1, 88, 127
2, 119240, Note_on_c, 1, 92, 127
2, 119280, Note_off_c, 1, 50, 0
2, 119280, Note_off_c, 1, 52, 0
2, 119280, Note_off_c, 1, 83, 0
2, 119280, Note_off_c, 1, 88, 0
2, 119280, Note_off_c, 1, 92, 0
2, 119320, Note_on_c, 1, 57, 127
2, 119320, Note_on_c, 1, 65, 127
2, 119320, Note_on_c, 1, 69, 127
2, 119320, Note_on_c, 1, 71, 127
2, 119360, Note_on_c, 1, 41, 127
2, 119360, Note_on_c, 1, 50, 127
2, 119360, Note_on_c, 1, 53, 127
2, 119360, Note_off_c, 1, 57, 0
2, 119360, Note_off_c, 1, 65, 0
2, 119360, Note_off_c, 1, 69, 0
2, 119360, Note_off_c, 1, 71, 0
2, 119360, Note_on_c, 1, 81, 127
2, 119360, Note_on_c, 1, 86, 127
2, 119400, Note_off_c, 1, 41, 0
2, 119400, Note_off_c, 1, 50, 0
2, 119400, Note_off_c, 1, 53, 0
2, 119400, Note_off_c, 1, 81, 0
2, 119400, Note_off_c, 1, 86, 0
2, 119440, Note_on_c, 1, 45, 127
2, 119440, Note_on_c, 1, 48, 127
2, 119440, Note_on_c, 1, 57, 127
2, 119440, Note_on_c, 1, 93, 127
2, 119480, Note_on_c, 1, 41, 127
2, 119480, Note_off_c, 1, 45, 0
2, 119480, Note_off_c, 1, 48, 0
2, 119480, Note_off_c, 1, 57, 0
2, 119480, Note_on_c, 1, 80, 127
2, 119480, Note_on_c, 1, 84, 127
2, 119480, Note_on_c, 1, 89, 127
2, 119480, Note_on_c, 1, 92, 127
2, 119480, Note_off_c, 1, 93, 0
2, 119520, Note_off_c, 1, 41, 0
2, 119520, Note_off_c, 1, 80, 0
2, 119520, Note_off_c, 1, 84, 0
2, 119520, Note_off_c, 1, 89, 0
2, 119520, Note_off_c, 1, 92, 0
2, 119560, Note_on_c, 1, 34, 127
2, 119560, Note_on_c, 1, 55, 127
2, 119560, Note_on_c, 1, 58, 127
2, 119560, Note_on_c, 1, 63, 127
2, 119560, Note_on_c, 1, 67, 127
2, 119560, Note_on_c, 1, 70, 127
2, 119560, Note_on_c, 1, 75, 127
2, 119560, Note_on_c, 1, 79, 127
2, 119600, Note_off_c, 1, 34, 0
2, 119600, Note_off_c, 1, 55, 0
2, 119600, Note_off_c, 1, 58, 0
2, 119600, Note_off_c, 1, 63, 0
2, 119600, Note_off_c, 1, 67, 0
2, 119600, Note_off_c, 1, 70, 0
2, 119600, Note_off_c, 1, 75, 0
2, 119600, Note_off_c, 1, 79, 0
2, 119640, Note_on_c, 1, 44, 127
2, 119640, Note_on_c, 1, 48, 127
2, 119640, Note_on_c, 1, 65, 127
2, 119640, Note_on_c, 1, 72, 127
2, 119680, Note_off_c, 1, 44, 0
2, 119680, Note_off_c, 1, 48, 0
2, 119680, Note_off_c, 1, 65, 0
2, 119680, Note_off_c, 1, 72, 0
2, 119720, Note_on_c, 1, 46, 127
2, 119720, Note_on_c, 1, 53, 127
2, 119720, Note_on_c, 1, 65, 127
2, 119720, Note_on_c, 1, 69, 127
2, 119720, Note_on_c, 1, 72, 127
2, 119720, Note_on_c, 1, 77, 127
2, 119760, Note_off_c, 1, 46, 0
2, 119760, Note_off_c, 1, 53, 0
2, 119760, Note_on_c, 1, 57, 127
2, 119760, Note_on_c, 1, 62, 127
2, 119760, Note_off_c, 1, 72, 0
2, 119760, Note_off_c, 1, 77, 0
2, 119760, Note_on_c, 1, 91, 127
2, 119760, Note_on_c, 1, 103, 127
2, 119800, Note_off_c, 1, 57, 0
2, 119800, Note_off_c, 1, 62, 0
2, 119800, Note_off_c, 1, 65, 0
2, 119800, Note_off_c, 1, 69, 0
2, 119800, Note_on_c, 1, 72, 127
2, 119800, Note_on_c, 1, 77, 127
2, 119800, Note_on_c, 1, 89, 127
2, 119800, Note_off_c, 1, 91, 0
2, 119800, Note_on_c, 1, 93, 127
2, 119800, Note_off_c, 1, 103, 0
2, 119840, Note_on_c, 1, 55, 127
2, 119840, Note_on_c, 1, 61, 127
2, 119840, Note_on_c, 1, 63, 127
2, 119840, Note_on_c, 1, 70, 127
2, 119840, Note_off_c, 1, 72, 0
2, 119840, Note_off_c, 1, 77, 0
2, 119840, Note_off_c, 1, 89, 0
2, 119840, Note_off_c, 1, 93, 0
2, 119840, Note_on_c, 1, 94, 127
2, 119840, Note_on_c, 1, 97, 127
2, 119880, Note_on_c, 1, 40, 127
2, 119880, Note_off_c, 1, 55, 0
2, 119880, Note_on_c, 1, 56, 127
2, 119880, Note_off_c, 1, 61, 0
2, 119880, Note_on_c, 1, 62, 127
2, 119880, Note_off_c, 1, 63, 0
2, 119880, Note_on_c, 1, 64, 127
2, 119880, Note_off_c, 1, 70, 0
2, 119880, Note_on_c, 1, 71, 127
2, 119880, Note_off_c, 1, 94, 0
2, 119880, Note_off_c, 1, 97, 0
2, 119920, Note_off_c, 1, 40, 0
2, 119920, Note_off_c, 1, 56, 0
2, 119920, Note_off_c, 1, 62, 0
2, 119920, Note_off_c, 1, 64, 0
2, 119920, Note_off_c, 1, 71, 0
2, 119960, Note_on_c, 1, 32, 127
2, 119960, Note_on_c, 1, 44, 127
2, 119960, Note_on_c, 1, 78, 127
2, 119960, Note_on_c, 1, 84, 127
2, 119960, Note_on_c, 1, 89, 127
2, 120000, Note_off_c, 1, 32, 0
2, 120000, Note_off_c, 1, 44, 0
2, 120000, Note_off_c, 1, 78, 0
2, 120000, Note_off_c, 1, 84, 0
2, 120000, Note_off_c, 1, 89, 0
2, 120040, End_track
3, 0, Start_track
3, 0, Title_t, "MIDI"
3, 1536, End_track
0, 0, End_of_file
