0, 0, Header, 1, 3, 192
1, 0, Start_track
1, 0, Time_signature, 4, 2, 24, 8
1, 0, Tempo, 500000
1, 120040, End_track
2, 0, Start_track
2, 0, Text_t, "random instrument: random person i dunno whatev"
2, 0, Title_t, "Track 1"
2, 0, Note_on_c, 1, 34, 127
2, 0, Note_on_c, 1, 53, 127
2, 0, Note_on_c, 1, 56, 127
2, 0, Note_on_c, 1, 62, 127
2, 40, Note_off_c, 1, 34, 0
2, 40, Note_off_c, 1, 53, 0
2, 40, Note_off_c, 1, 56, 0
2, 40, Note_off_c, 1, 62, 0
2, 80, Note_on_c, 1, 31, 127
2, 80, Note_on_c, 1, 43, 127
2, 80, Note_on_c, 1, 59, 127
2, 80, Note_on_c, 1, 65, 127
2, 80, Note_on_c, 1, 67, 127
2, 120, Note_off_c, 1, 31, 0
2, 120, Note_on_c, 1, 34, 127
2, 120, Note_off_c, 1, 43, 0
2, 120, Note_on_c, 1, 53, 127
2, 120, Note_on_c, 1, 56, 127
2, 120, Note_off_c, 1, 59, 0
2, 120, Note_on_c, 1, 62, 127
2, 120, Note_off_c, 1, 65, 0
2, 120, Note_off_c, 1, 67, 0
2, 160, Note_off_c, 1, 34, 0
2, 160, Note_on_c, 1, 43, 127
2, 160, Note_on_c, 1, 47, 127
2, 160, Note_off_c, 1, 53, 0
2, 160, Note_on_c, 1, 55, 127
2, 160, Note_off_c, 1, 56, 0
2, 160, Note_off_c, 1, 62, 0
2, 160, Note_on_c, 1, 79, 127
2, 160, Note_on_c, 1, 83, 127
2, 160, Note_on_c, 1, 87, 127
2, 160, Note_on_c, 1, 91, 127
2, 200, Note_on_c, 1, 34, 127
2, 200, Note_off_c, 1, 43, 0
2, 200, Note_off_c, 1, 47, 0
2, 200, Note_on_c, 1, 53, 127
2, 200, Note_off_c, 1, 55, 0
2, 200, Note_on_c, 1, 56, 127
2, 200, Note_on_c, 1, 62, 127
2, 200, Note_off_c, 1, 79, 0
2, 200, Note_off_c, 1, 83, 0
2, 200, Note_off_c, 1, 87, 0
2, 200, Note_off_c, 1, 91, 0
2, 320, Note_off_c, 1, 34, 0
2, 320, Note_off_c, 1, 53, 0
2, 320, Note_off_c, 1, 56, 0
2, 320, Note_off_c, 1, 62, 0
2, 320, Note_on_c, 1, 65, 127
2, 360, Note_on_c, 1, 34, 127
2, 360, Note_on_c, 1, 53, 127
2, 360, Note_on_c, 1, 56, 127
2, 360, Note_on_c, 1, 62, 127
2, 360, Note_off_c, 1, 65, 0
2, 480, Note_off_c, 1, 34, 0
2, 480, Note_on_c, 1, 49, 127
2, 480, Note_off_c, 1, 53, 0
2, 480, Note_on_c, 1, 54, 127
2, 480, Note_off_c, 1, 56, 0
2, 480, Note_off_c, 1, 62, 0
2, 480, Note_on_c, 1, 64, 127
2, 480, Note_on_c, 1, 66, 127
2, 480, Note_on_c, 1, 70, 127
2, 520, Note_on_c, 1, 34, 127
2, 520, Note_off_c, 1, 49, 0
2, 520, Note_on_c, 1, 53, 127
2, 520, Note_off_c, 1, 54, 0
2, 520, Note_on_c, 1, 56, 127
2, 520, Note_on_c, 1, 62, 127
2, 520, Note_off_c, 1, 64, 0
2, 520, Note_off_c, 1, 66, 0
2, 520, Note_off_c, 1, 70, 0
2, 1040, Note_off_c, 1, 62, 0
2, 1240, Note_off_c, 1, 34, 0
2, 1240, Note_off_c, 1, 53, 0
2, 1240, Note_on_c, 1, 55, 127
2, 1240, Note_off_c, 1, 56, 0
2, 1240, Note_on_c, 1, 77, 127
2, 1240, Note_on_c, 1, 80, 127
2, 1280, Note_on_c, 1, 34, 127
2, 1280, Note_on_c, 1, 53, 127
2, 1280, Note_off_c, 1, 55, 0
2, 1280, Note_on_c, 1, 56, 127
2, 1280, Note_off_c, 1, 77, 0
2, 1280, Note_off_c, 1, 80, 0
2, 1760, Note_off_c, 1, 56, 0
2, 1920, Note_off_c, 1, 53, 0
2, 1920, Note_on_c, 1, 58, 127
2, 2000, Note_off_c, 1, 34, 0
2, 2000, Note_off_c, 1, 58, 0
2, 5240, Note_on_c, 1, 43, 127
2, 5240, Note_on_c, 1, 50, 127
2, 5240, Note_on_c, 1, 60, 127
2, 5240, Note_on_c, 1, 62, 127
2, 5240, Note_on_c, 1, 69, 127
2, 5400, Note_off_c, 1, 43, 0
2, 5400, Note_off_c, 1, 50, 0
2, 5400, Note_off_c, 1, 60, 0
2, 5400, Note_off_c, 1, 62, 0
2, 5400, Note_off_c, 1, 69, 0
2, 7560, Note_on_c, 1, 51, 127
2, 7560, Note_on_c, 1, 54, 127
2, 7560, Note_on_c, 1, 59, 127
2, 7880, Note_off_c, 1, 51, 0
2, 7880, Note_off_c, 1, 54, 0
2, 7880, Note_off_c, 1, 59, 0
2, 7920, Note_on_c, 1, 51, 127
2, 7920, Note_on_c, 1, 54, 127
2, 7920, Note_on_c, 1, 59, 127
2, 8360, Note_off_c, 1, 51, 0
2, 8360, Note_off_c, 1, 54, 0
2, 8360, Note_off_c, 1, 59, 0
2, 14240, Note_on_c, 1, 38, 127
2, 14240, Note_on_c, 1, 50, 127
2, 14840, Note_off_c, 1, 38, 0
2, 14840, Note_off_c, 1, 50, 0
2, 14880, Note_on_c, 1, 38, 127
2, 14880, Note_on_c, 1, 50, 127
2, 15040, Note_off_c, 1, 38, 0
2, 15040, Note_off_c, 1, 50, 0
2, 15080, Note_on_c, 1, 36, 127
2, 15080, Note_on_c, 1, 48, 127
2, 15120, Note_off_c, 1, 36, 0
2, 15120, Note_off_c, 1, 48, 0
2, 15160, Note_on_c, 1, 38, 127
2, 15160, Note_on_c, 1, 50, 127
2, 15200, Note_off_c, 1, 38, 0
2, 15200, Note_off_c, 1, 50, 0
2, 15360, Note_on_c, 1, 38, 127
2, 15360, Note_on_c, 1, 50, 127
2, 15400, Note_off_c, 1, 38, 0
2, 15400, Note_off_c, 1, 50, 0
2, 15440, Note_on_c, 1, 38, 127
2, 15440, Note_on_c, 1, 50, 127
2, 15480, Note_off_c, 1, 38, 0
2, 15480, Note_off_c, 1, 50, 0
2, 15800, Note_on_c, 1, 42, 127
2, 15800, Note_on_c, 1, 54, 127
2, 16120, Note_off_c, 1, 42, 0
2, 16120, Note_off_c, 1, 54, 0
2, 16200, Note_on_c, 1, 43, 127
2, 16200, Note_on_c, 1, 55, 127
2, 16240, Note_off_c, 1, 43, 0
2, 16240, Note_off_c, 1, 55, 0
2, 16560, Note_on_c, 1, 38, 127
2, 16560, Note_on_c, 1, 50, 127
2, 17200, Note_off_c, 1, 38, 0
2, 17200, Note_off_c, 1, 50, 0
2, 17280, Note_on_c, 1, 38, 127
2, 17280, Note_on_c, 1, 50, 127
2, 17320, Note_off_c, 1, 38, 0
2, 17320, Note_off_c, 1, 50, 0
2, 17960, Note_on_c, 1, 31, 127
2, 17960, Note_on_c, 1, 43, 127
2, 17960, Note_on_c, 1, 55, 127
2, 18360, Note_off_c, 1, 31, 0
2, 18360, Note_off_c, 1, 43, 0
2, 18360, Note_off_c, 1, 55, 0
2, 18400, Note_on_c, 1, 31, 127
2, 18400, Note_on_c, 1, 43, 127
2, 18400, Note_on_c, 1, 59, 127
2, 18760, Note_on_c, 1, 55, 127
2, 18760, Note_off_c, 1, 59, 0
2, 19000, Note_off_c, 1, 55, 0
2, 19040, Note_on_c, 1, 59, 127
2, 19600, Note_off_c, 1, 31, 0
2, 19600, Note_off_c, 1, 43, 0
2, 19600, Note_off_c, 1, 59, 0
2, 19640, Note_on_c, 1, 31, 127
2, 19640, Note_on_c, 1, 43, 127
2, 19640, Note_on_c, 1, 59, 127
2, 19680, Note_off_c, 1, 31, 0
2, 19680, Note_off_c, 1, 43, 0
2, 19680, Note_off_c, 1, 59, 0
2, 19720, Note_on_c, 1, 40, 127
2, 20080, Note_off_c, 1, 40, 0
2, 20120, Note_on_c, 1, 40, 127
2, 20480, Note_off_c, 1, 40, 0
2, 20560, Note_on_c, 1, 40, 127
2, 20920, Note_off_c, 1, 40, 0
2, 20960, Note_on_c, 1, 40, 127
2, 21320, Note_off_c, 1, 40, 0
2, 21360, Note_on_c, 1, 40, 127
2, 21720, Note_off_c, 1, 40, 0
2, 21760, Note_on_c, 1, 40, 127
2, 21960, Note_off_c, 1, 40, 0
2, 22000, Note_on_c, 1, 40, 127
2, 22160, Note_off_c, 1, 40, 0
2, 22200, Note_on_c, 1, 40, 127
2, 22560, Note_off_c, 1, 40, 0
2, 22600, Note_on_c, 1, 40, 127
2, 23600, Note_off_c, 1, 40, 0
2, 23640, Note_on_c, 1, 33, 127
2, 24000, Note_off_c, 1, 33, 0
2, 24040, Note_on_c, 1, 33, 127
2, 24240, Note_off_c, 1, 33, 0
2, 24280, Note_on_c, 1, 33, 127
2, 24440, Note_off_c, 1, 33, 0
2, 24480, Note_on_c, 1, 38, 127
2, 24840, Note_off_c, 1, 38, 0
2, 24880, Note_on_c, 1, 45, 127
2, 25240, Note_off_c, 1, 45, 0
2, 25280, Note_on_c, 1, 38, 127
2, 25640, Note_off_c, 1, 38, 0
2, 25680, Note_on_c, 1, 36, 127
2, 26040, Note_off_c, 1, 36, 0
2, 26080, Note_on_c, 1, 40, 127
2, 26160, Note_off_c, 1, 40, 0
2, 26200, Note_on_c, 1, 40, 127
2, 26480, Note_off_c, 1, 40, 0
2, 26520, Note_on_c, 1, 37, 127
2, 26840, Note_off_c, 1, 37, 0
2, 26880, Note_on_c, 1, 44, 127
2, 27240, Note_off_c, 1, 44, 0
2, 27280, Note_on_c, 1, 37, 127
2, 27640, Note_off_c, 1, 37, 0
2, 27680, Note_on_c, 1, 45, 127
2, 28040, Note_off_c, 1, 45, 0
2, 28080, Note_on_c, 1, 49, 127
2, 28320, Note_off_c, 1, 49, 0
2, 28360, Note_on_c, 1, 49, 127
2, 28440, Note_off_c, 1, 49, 0
2, 28480, Note_on_c, 1, 45, 127
2, 28840, Note_off_c, 1, 45, 0
2, 28880, Note_on_c, 1, 37, 127
2, 29640, Note_off_c, 1, 37, 0
2, 29680, Note_on_c, 1, 44, 127
2, 29680, Note_on_c, 1, 77, 127
2, 30440, Note_off_c, 1, 44, 0
2, 30440, Note_off_c, 1, 77, 0
2, 30480, Note_on_c, 1, 44, 127
2, 30480, Note_on_c, 1, 77, 127
2, 30640, Note_on_c, 1, 43, 127
2, 30640, Note_off_c, 1, 44, 0
2, 30640, Note_off_c, 1, 77, 0
2, 30680, Note_on_c, 1, 75, 127
2, 31040, Note_off_c, 1, 75, 0
2, 31120, Note_on_c, 1, 75, 127
2, 31280, Note_off_c, 1, 75, 0
2, 31320, Note_on_c, 1, 72, 127
2, 31920, Note_off_c, 1, 43, 0
2, 31920, Note_off_c, 1, 72, 0
2, 31960, Note_on_c, 1, 48, 127
2, 31960, Note_on_c, 1, 66, 127
2, 32520, Note_off_c, 1, 48, 0
2, 32520, Note_off_c, 1, 66, 0
2, 32560, Note_on_c, 1, 48, 127
2, 32560, Note_on_c, 1, 66, 127
2, 32640, Note_on_c, 1, 57, 127
2, 33280, Note_off_c, 1, 57, 0
2, 33320, Note_on_c, 1, 47, 127
2, 33320, Note_off_c, 1, 48, 0
2, 33320, Note_on_c, 1, 56, 127
2, 33320, Note_on_c, 1, 59, 127
2, 33320, Note_off_c, 1, 66, 0
2, 33320, Note_on_c, 1, 71, 127
2, 33680, Note_off_c, 1, 56, 0
2, 33680, Note_off_c, 1, 59, 0
2, 33680, Note_on_c, 1, 62, 127
2, 33680, Note_off_c, 1, 71, 0
2, 33720, Note_off_c, 1, 47, 0
2, 33720, Note_on_c, 1, 50, 127
2, 33720, Note_on_c, 1, 59, 127
2, 33720, Note_off_c, 1, 62, 0
2, 33720, Note_on_c, 1, 68, 127
2, 34120, Note_off_c, 1, 50, 0
2, 34120, Note_off_c, 1, 59, 0
2, 34120, Note_off_c, 1, 68, 0
2, 34160, Note_on_c, 1, 50, 127
2, 34160, Note_on_c, 1, 66, 127
2, 34480, Note_off_c, 1, 50, 0
2, 34480, Note_off_c, 1, 66, 0
2, 34520, Note_on_c, 1, 50, 127
2, 34520, Note_on_c, 1, 66, 127
2, 35640, Note_off_c, 1, 50, 0
2, 35640, Note_on_c, 1, 59, 127
2, 35640, Note_off_c, 1, 66, 0
2, 35680, Note_on_c, 1, 58, 127
2, 35680, Note_off_c, 1, 59, 0
2, 35680, Note_on_c, 1, 68, 127
2, 36400, Note_on_c, 1, 56, 127
2, 36400, Note_on_c, 1, 65, 127
2, 36400, Note_off_c, 1, 68, 0
2, 36480, Note_off_c, 1, 56, 0
2, 36480, Note_off_c, 1, 58, 0
2, 36480, Note_off_c, 1, 65, 0
2, 36520, Note_on_c, 1, 51, 127
2, 36520, Note_on_c, 1, 67, 127
2, 36760, Note_off_c, 1, 51, 0
2, 36760, Note_off_c, 1, 67, 0
2, 36800, Note_on_c, 1, 51, 127
2, 36800, Note_on_c, 1, 67, 127
2, 37400, Note_off_c, 1, 51, 0
2, 37400, Note_off_c, 1, 67, 0
2, 37440, Note_on_c, 1, 50, 127
2, 37440, Note_on_c, 1, 68, 127
2, 38800, Note_off_c, 1, 50, 0
2, 38800, Note_off_c, 1, 68, 0
2, 38840, Note_on_c, 1, 50, 127
2, 38840, Note_on_c, 1, 68, 127
2, 40960, Note_off_c, 1, 50, 0
2, 40960, Note_off_c, 1, 68, 0
2, 41000, Note_on_c, 1, 50, 127
2, 41000, Note_on_c, 1, 68, 127
2, 41040, Note_off_c, 1, 50, 0
2, 41040, Note_on_c, 1, 51, 127
2, 41040, Note_on_c, 1, 66, 127
2, 41040, Note_off_c, 1, 68, 0
2, 41720, Note_off_c, 1, 51, 0
2, 41720, Note_off_c, 1, 66, 0
2, 41760, Note_on_c, 1, 51, 127
2, 41760, Note_on_c, 1, 66, 127
2, 42000, Note_off_c, 1, 51, 0
2, 42000, Note_on_c, 1, 54, 127
2, 42000, Note_off_c, 1, 66, 0
2, 42000, Note_on_c, 1, 70, 127
2, 42240, Note_on_c, 1, 69, 127
2, 42240, Note_off_c, 1, 70, 0
2, 42440, Note_on_c, 1, 51, 127
2, 42440, Note_off_c, 1, 54, 0
2, 42440, Note_on_c, 1, 66, 127
2, 42440, Note_off_c, 1, 69, 0
2, 42480, Note_off_c, 1, 66, 0
2, 42480, Note_on_c, 1, 67, 127
2, 42680, Note_on_c, 1, 50, 127
2, 42680, Note_off_c, 1, 51, 0
2, 42680, Note_on_c, 1, 66, 127
2, 42680, Note_off_c, 1, 67, 0
2, 42920, Note_off_c, 1, 50, 0
2, 42920, Note_off_c, 1, 66, 0
2, 42960, Note_on_c, 1, 50, 127
2, 42960, Note_on_c, 1, 65, 127
2, 43160, Note_off_c, 1, 50, 0
2, 43160, Note_on_c, 1, 51, 127
2, 43160, Note_off_c, 1, 65, 0
2, 43160, Note_on_c, 1, 69, 127
2, 43400, Note_on_c, 1, 50, 127
2, 43400, Note_off_c, 1, 51, 0
2, 43400, Note_on_c, 1, 68, 127
2, 43400, Note_off_c, 1, 69, 0
2, 43640, Note_on_c, 1, 66, 127
2, 43640, Note_off_c, 1, 68, 0
2, 43880, Note_on_c, 1, 65, 127
2, 43880, Note_off_c, 1, 66, 0
2, 44360, Note_off_c, 1, 50, 0
2, 44360, Note_on_c, 1, 51, 127
2, 44360, Note_off_c, 1, 65, 0
2, 44360, Note_on_c, 1, 66, 127
2, 44760, Note_off_c, 1, 51, 0
2, 44800, Note_on_c, 1, 48, 127
2, 44800, Note_on_c, 1, 63, 127
2, 44800, Note_off_c, 1, 66, 0
2, 45000, Note_off_c, 1, 48, 0
2, 45000, Note_off_c, 1, 63, 0
2, 45040, Note_on_c, 1, 48, 127
2, 45040, Note_on_c, 1, 63, 127
2, 45320, Note_off_c, 1, 48, 0
2, 45320, Note_on_c, 1, 50, 127
2, 45320, Note_off_c, 1, 63, 0
2, 45320, Note_on_c, 1, 65, 127
2, 45520, Note_on_c, 1, 36, 127
2, 45520, Note_off_c, 1, 50, 0
2, 45520, Note_on_c, 1, 64, 127
2, 45520, Note_off_c, 1, 65, 0
2, 45560, Note_off_c, 1, 36, 0
2, 45560, Note_on_c, 1, 48, 127
2, 45560, Note_on_c, 1, 63, 127
2, 45560, Note_off_c, 1, 64, 0
2, 46720, Note_off_c, 1, 48, 0
2, 46720, Note_on_c, 1, 50, 127
2, 46720, Note_off_c, 1, 63, 0
2, 46720, Note_on_c, 1, 65, 127
2, 46920, Note_on_c, 1, 49, 127
2, 46920, Note_off_c, 1, 50, 0
2, 46920, Note_on_c, 1, 64, 127
2, 46920, Note_off_c, 1, 65, 0
2, 47040, Note_off_c, 1, 49, 0
2, 47040, Note_off_c, 1, 64, 0
2, 47080, Note_on_c, 1, 49, 127
2, 47080, Note_on_c, 1, 64, 127
2, 47440, Note_off_c, 1, 49, 0
2, 47440, Note_on_c, 1, 50, 127
2, 47440, Note_off_c, 1, 64, 0
2, 47440, Note_on_c, 1, 65, 127
2, 47680, Note_on_c, 1, 45, 127
2, 47680, Note_off_c, 1, 50, 0
2, 47680, Note_on_c, 1, 61, 127
2, 47680, Note_off_c, 1, 65, 0
2, 47920, Note_off_c, 1, 45, 0
2, 47920, Note_on_c, 1, 46, 127
2, 48160, Note_off_c, 1, 46, 0
2, 48160, Note_on_c, 1, 51, 127
2, 48160, Note_on_c, 1, 60, 127
2, 48160, Note_off_c, 1, 61, 0
2, 48400, Note_off_c, 1, 60, 0
2, 48400, Note_on_c, 1, 66, 127
2, 48640, Note_on_c, 1, 50, 127
2, 48640, Note_off_c, 1, 51, 0
2, 48640, Note_on_c, 1, 65, 127
2, 48640, Note_off_c, 1, 66, 0
2, 49000, Note_off_c, 1, 50, 0
2, 49000, Note_off_c, 1, 65, 0
2, 49040, Note_on_c, 1, 50, 127
2, 49040, Note_on_c, 1, 65, 127
2, 49120, Note_on_c, 1, 48, 127
2, 49120, Note_off_c, 1, 50, 0
2, 49120, Note_on_c, 1, 63, 127
2, 49120, Note_off_c, 1, 65, 0
2, 49360, Note_off_c, 1, 48, 0
2, 49360, Note_on_c, 1, 51, 127
2, 49360, Note_on_c, 1, 62, 127
2, 49360, Note_off_c, 1, 63, 0
2, 49560, Note_on_c, 1, 50, 127
2, 49560, Note_off_c, 1, 51, 0
2, 49560, Note_off_c, 1, 62, 0
2, 49560, Note_on_c, 1, 65, 127
2, 49600, Note_off_c, 1, 50, 0
2, 49600, Note_on_c, 1, 52, 127
2, 49600, Note_on_c, 1, 61, 127
2, 49600, Note_off_c, 1, 65, 0
2, 49840, Note_off_c, 1, 52, 0
2, 49840, Note_on_c, 1, 53, 127
2, 49840, Note_off_c, 1, 61, 0
2, 49840, Note_on_c, 1, 62, 127
2, 50080, Note_off_c, 1, 53, 0
2, 50080, Note_on_c, 1, 54, 127
2, 50080, Note_off_c, 1, 62, 0
2, 50080, Note_on_c, 1, 63, 127
2, 50320, Note_on_c, 1, 53, 127
2, 50320, Note_off_c, 1, 54, 0
2, 50320, Note_on_c, 1, 62, 127
2, 50320, Note_off_c, 1, 63, 0
2, 50560, Note_off_c, 1, 53, 0
2, 50560, Note_on_c, 1, 57, 127
2, 50560, Note_off_c, 1, 62, 0
2, 50560, Note_on_c, 1, 66, 127
2, 50800, Note_on_c, 1, 56, 127
2, 50800, Note_off_c, 1, 57, 0
2, 50800, Note_off_c, 1, 66, 0
2, 50800, Note_on_c, 1, 68, 127
2, 51000, Note_off_c, 1, 56, 0
2, 51000, Note_off_c, 1, 68, 0
2, 51040, Note_on_c, 1, 56, 127
2, 51040, Note_on_c, 1, 68, 127
2, 51200, Note_on_c, 1, 49, 127
2, 51200, Note_off_c, 1, 56, 0
2, 51440, Note_off_c, 1, 49, 0
2, 51440, Note_on_c, 1, 50, 127
2, 51440, Note_on_c, 1, 65, 127
2, 51440, Note_off_c, 1, 68, 0
2, 51600, Note_on_c, 1, 49, 127
2, 51600, Note_off_c, 1, 50, 0
2, 51600, Note_on_c, 1, 64, 127
2, 51600, Note_off_c, 1, 65, 0
2, 51680, Note_off_c, 1, 49, 0
2, 51680, Note_on_c, 1, 50, 127
2, 51680, Note_off_c, 1, 64, 0
2, 51680, Note_on_c, 1, 65, 127
2, 51920, Note_off_c, 1, 50, 0
2, 51920, Note_on_c, 1, 51, 127
2, 51920, Note_off_c, 1, 65, 0
2, 51920, Note_on_c, 1, 66, 127
2, 52160, Note_off_c, 1, 51, 0
2, 52160, Note_on_c, 1, 52, 127
2, 52160, Note_off_c, 1, 66, 0
2, 52160, Note_on_c, 1, 68, 127
2, 52400, Note_on_c, 1, 51, 127
2, 52400, Note_off_c, 1, 52, 0
2, 52400, Note_on_c, 1, 66, 127
2, 52400, Note_off_c, 1, 68, 0
2, 52640, Note_off_c, 1, 66, 0
2, 52640, Note_on_c, 1, 67, 127
2, 52840, Note_off_c, 1, 51, 0
2, 52840, Note_on_c, 1, 53, 127
2, 52840, Note_off_c, 1, 67, 0
2, 52840, Note_on_c, 1, 69, 127
2, 52880, Note_on_c, 1, 52, 127
2, 52880, Note_off_c, 1, 53, 0
2, 52880, Note_on_c, 1, 67, 127
2, 52880, Note_off_c, 1, 69, 0
2, 53000, Note_off_c, 1, 52, 0
2, 53000, Note_off_c, 1, 67, 0
2, 53040, Note_on_c, 1, 52, 127
2, 53040, Note_on_c, 1, 67, 127
2, 53120, Note_off_c, 1, 52, 0
2, 53120, Note_on_c, 1, 53, 127
2, 53120, Note_off_c, 1, 67, 0
2, 53120, Note_on_c, 1, 68, 127
2, 53320, Note_off_c, 1, 53, 0
2, 53360, Note_on_c, 1, 48, 127
2, 53360, Note_off_c, 1, 68, 0
2, 53360, Note_on_c, 1, 76, 127
2, 53600, Note_off_c, 1, 48, 0
2, 53600, Note_on_c, 1, 49, 127
2, 53600, Note_on_c, 1, 66, 127
2, 53600, Note_off_c, 1, 76, 0
2, 53840, Note_off_c, 1, 49, 0
2, 53840, Note_on_c, 1, 50, 127
2, 54080, Note_on_c, 1, 65, 127
2, 54080, Note_off_c, 1, 66, 0
2, 54320, Note_off_c, 1, 50, 0
2, 54320, Note_on_c, 1, 54, 127
2, 54320, Note_off_c, 1, 65, 0
2, 54320, Note_on_c, 1, 67, 127
2, 54360, Note_on_c, 1, 52, 127
2, 54360, Note_off_c, 1, 54, 0
2, 54560, Note_off_c, 1, 52, 0
2, 54560, Note_on_c, 1, 55, 127
2, 54560, Note_on_c, 1, 64, 127
2, 54560, Note_off_c, 1, 67, 0
2, 54800, Note_on_c, 1, 53, 127
2, 54800, Note_off_c, 1, 55, 0
2, 54800, Note_on_c, 1, 62, 127
2, 54800, Note_off_c, 1, 64, 0
2, 55040, Note_off_c, 1, 53, 0
2, 55040, Note_on_c, 1, 55, 127
2, 55040, Note_off_c, 1, 62, 0
2, 55040, Note_on_c, 1, 64, 127
2, 55160, Note_off_c, 1, 55, 0
2, 55160, Note_off_c, 1, 64, 0
2, 55200, Note_on_c, 1, 55, 127
2, 55200, Note_on_c, 1, 64, 127
2, 55280, Note_on_c, 1, 60, 127
2, 55280, Note_off_c, 1, 64, 0
2, 55320, Note_on_c, 1, 53, 127
2, 55320, Note_off_c, 1, 55, 0
2, 55320, Note_off_c, 1, 60, 0
2, 55320, Note_on_c, 1, 62, 127
2, 55520, Note_off_c, 1, 53, 0
2, 55520, Note_on_c, 1, 55, 127
2, 55520, Note_off_c, 1, 62, 0
2, 55520, Note_on_c, 1, 64, 127
2, 55760, Note_on_c, 1, 53, 127
2, 55760, Note_off_c, 1, 55, 0
2, 55760, Note_on_c, 1, 62, 127
2, 55760, Note_off_c, 1, 64, 0
2, 56000, Note_on_c, 1, 52, 127
2, 56000, Note_off_c, 1, 53, 0
2, 56000, Note_on_c, 1, 61, 127
2, 56000, Note_off_c, 1, 62, 0
2, 56240, Note_off_c, 1, 52, 0
2, 56240, Note_on_c, 1, 53, 127
2, 56240, Note_off_c, 1, 61, 0
2, 56240, Note_on_c, 1, 62, 127
2, 56480, Note_off_c, 1, 53, 0
2, 56480, Note_on_c, 1, 55, 127
2, 56480, Note_off_c, 1, 62, 0
2, 56480, Note_on_c, 1, 64, 127
2, 56720, Note_on_c, 1, 53, 127
2, 56720, Note_off_c, 1, 55, 0
2, 56720, Note_on_c, 1, 62, 127
2, 56720, Note_off_c, 1, 64, 0
2, 56960, Note_on_c, 1, 52, 127
2, 56960, Note_off_c, 1, 53, 0
2, 56960, Note_on_c, 1, 61, 127
2, 56960, Note_off_c, 1, 62, 0
2, 57200, Note_off_c, 1, 52, 0
2, 57200, Note_on_c, 1, 53, 127
2, 57200, Note_off_c, 1, 61, 0
2, 57200, Note_on_c, 1, 62, 127
2, 57320, Note_off_c, 1, 53, 0
2, 57320, Note_off_c, 1, 62, 0
2, 57360, Note_on_c, 1, 53, 127
2, 57360, Note_on_c, 1, 62, 127
2, 57440, Note_on_c, 1, 52, 127
2, 57440, Note_off_c, 1, 53, 0
2, 57440, Note_on_c, 1, 61, 127
2, 57440, Note_off_c, 1, 62, 0
2, 57680, Note_on_c, 1, 49, 127
2, 57680, Note_off_c, 1, 52, 0
2, 57680, Note_on_c, 1, 58, 127
2, 57680, Note_off_c, 1, 61, 0
2, 57920, Note_off_c, 1, 49, 0
2, 57920, Note_on_c, 1, 55, 127
2, 57920, Note_off_c, 1, 58, 0
2, 57920, Note_on_c, 1, 64, 127
2, 58160, Note_on_c, 1, 53, 127
2, 58160, Note_off_c, 1, 55, 0
2, 58160, Note_on_c, 1, 62, 127
2, 58160, Note_off_c, 1, 64, 0
2, 58400, Note_on_c, 1, 52, 127
2, 58400, Note_off_c, 1, 53, 0
2, 58400, Note_on_c, 1, 61, 127
2, 58400, Note_off_c, 1, 62, 0
2, 58640, Note_off_c, 1, 52, 0
2, 58640, Note_on_c, 1, 53, 127
2, 58640, Note_off_c, 1, 61, 0
2, 58640, Note_on_c, 1, 62, 127
2, 58880, Note_on_c, 1, 52, 127
2, 58880, Note_off_c, 1, 53, 0
2, 58880, Note_on_c, 1, 61, 127
2, 58880, Note_off_c, 1, 62, 0
2, 59120, Note_off_c, 1, 52, 0
2, 59120, Note_on_c, 1, 53, 127
2, 59120, Note_off_c, 1, 61, 0
2, 59120, Note_on_c, 1, 62, 127
2, 59240, Note_off_c, 1, 53, 0
2, 59240, Note_off_c, 1, 62, 0
2, 59280, Note_on_c, 1, 53, 127
2, 59280, Note_on_c, 1, 62, 127
2, 59360, Note_on_c, 1, 49, 127
2, 59360, Note_off_c, 1, 53, 0
2, 59360, Note_off_c, 1, 62, 0
2, 59360, Note_on_c, 1, 64, 127
2, 59600, Note_off_c, 1, 49, 0
2, 59600, Note_on_c, 1, 50, 127
2, 59600, Note_off_c, 1, 64, 0
2, 59600, Note_on_c, 1, 65, 127
2, 59840, Note_off_c, 1, 50, 0
2, 59840, Note_on_c, 1, 53, 127
2, 59840, Note_on_c, 1, 62, 127
2, 59840, Note_off_c, 1, 65, 0
2, 60080, Note_off_c, 1, 53, 0
2, 60080, Note_on_c, 1, 55, 127
2, 60080, Note_off_c, 1, 62, 0
2, 60080, Note_on_c, 1, 64, 127
2, 60320, Note_on_c, 1, 53, 127
2, 60320, Note_off_c, 1, 55, 0
2, 60320, Note_on_c, 1, 62, 127
2, 60320, Note_off_c, 1, 64, 0
2, 60560, Note_on_c, 1, 52, 127
2, 60560, Note_off_c, 1, 53, 0
2, 60560, Note_on_c, 1, 61, 127
2, 60560, Note_off_c, 1, 62, 0
2, 60800, Note_off_c, 1, 52, 0
2, 60800, Note_on_c, 1, 53, 127
2, 60800, Note_off_c, 1, 61, 0
2, 60800, Note_on_c, 1, 62, 127
2, 61040, Note_on_c, 1, 52, 127
2, 61040, Note_off_c, 1, 53, 0
2, 61040, Note_on_c, 1, 61, 127
2, 61040, Note_off_c, 1, 62, 0
2, 61280, Note_off_c, 1, 52, 0
2, 61280, Note_on_c, 1, 53, 127
2, 61280, Note_off_c, 1, 61, 0
2, 61280, Note_on_c, 1, 62, 127
2, 61400, Note_off_c, 1, 53, 0
2, 61400, Note_off_c, 1, 62, 0
2, 61440, Note_on_c, 1, 53, 127
2, 61440, Note_on_c, 1, 62, 127
2, 61480, Note_off_c, 1, 53, 0
2, 61480, Note_off_c, 1, 62, 0
2, 61520, Note_on_c, 1, 50, 127
2, 61520, Note_on_c, 1, 65, 127
2, 61760, Note_on_c, 1, 49, 127
2, 61760, Note_off_c, 1, 50, 0
2, 61760, Note_on_c, 1, 64, 127
2, 61760, Note_off_c, 1, 65, 0
2, 62240, Note_on_c, 1, 48, 127
2, 62240, Note_off_c, 1, 49, 0
2, 62240, Note_on_c, 1, 63, 127
2, 62240, Note_off_c, 1, 64, 0
2, 62480, Note_off_c, 1, 48, 0
2, 62480, Note_on_c, 1, 49, 127
2, 62480, Note_off_c, 1, 63, 0
2, 62480, Note_on_c, 1, 64, 127
2, 62960, Note_off_c, 1, 49, 0
2, 62960, Note_on_c, 1, 50, 127
2, 62960, Note_off_c, 1, 64, 0
2, 62960, Note_on_c, 1, 65, 127
2, 63200, Note_off_c, 1, 50, 0
2, 63200, Note_on_c, 1, 52, 127
2, 63200, Note_off_c, 1, 65, 0
2, 63200, Note_on_c, 1, 67, 127
2, 63440, Note_off_c, 1, 52, 0
2, 63440, Note_off_c, 1, 67, 0
2, 63480, Note_on_c, 1, 50, 127
2, 63480, Note_on_c, 1, 65, 127
2, 63920, Note_off_c, 1, 50, 0
2, 63920, Note_on_c, 1, 53, 127
2, 63920, Note_on_c, 1, 62, 127
2, 63920, Note_off_c, 1, 65, 0
2, 64160, Note_on_c, 1, 52, 127
2, 64160, Note_off_c, 1, 53, 0
2, 64160, Note_on_c, 1, 61, 127
2, 64160, Note_off_c, 1, 62, 0
2, 64400, Note_off_c, 1, 52, 0
2, 64400, Note_on_c, 1, 53, 127
2, 64400, Note_off_c, 1, 61, 0
2, 64400, Note_on_c, 1, 62, 127
2, 64640, Note_on_c, 1, 52, 127
2, 64640, Note_off_c, 1, 53, 0
2, 64640, Note_on_c, 1, 61, 127
2, 64640, Note_off_c, 1, 62, 0
2, 64880, Note_off_c, 1, 52, 0
2, 64880, Note_on_c, 1, 53, 127
2, 64880, Note_off_c, 1, 61, 0
2, 64880, Note_on_c, 1, 62, 127
2, 65120, Note_off_c, 1, 53, 0
2, 65120, Note_on_c, 1, 54, 127
2, 65120, Note_off_c, 1, 62, 0
2, 65120, Note_on_c, 1, 63, 127
2, 65360, Note_off_c, 1, 54, 0
2, 65360, Note_on_c, 1, 57, 127
2, 65360, Note_off_c, 1, 63, 0
2, 65360, Note_on_c, 1, 66, 127
2, 65480, Note_off_c, 1, 57, 0
2, 65480, Note_off_c, 1, 66, 0
2, 65520, Note_on_c, 1, 57, 127
2, 65520, Note_on_c, 1, 66, 127
2, 65600, Note_on_c, 1, 53, 127
2, 65600, Note_off_c, 1, 57, 0
2, 65600, Note_on_c, 1, 62, 127
2, 65600, Note_off_c, 1, 66, 0
2, 65840, Note_on_c, 1, 52, 127
2, 65840, Note_off_c, 1, 53, 0
2, 65840, Note_on_c, 1, 61, 127
2, 65840, Note_off_c, 1, 62, 0
2, 66080, Note_off_c, 1, 52, 0
2, 66080, Note_on_c, 1, 53, 127
2, 66080, Note_off_c, 1, 61, 0
2, 66080, Note_on_c, 1, 62, 127
2, 66320, Note_on_c, 1, 52, 127
2, 66320, Note_off_c, 1, 53, 0
2, 66320, Note_off_c, 1, 62, 0
2, 66320, Note_on_c, 1, 67, 127
2, 66560, Note_on_c, 1, 50, 127
2, 66560, Note_off_c, 1, 52, 0
2, 66560, Note_on_c, 1, 65, 127
2, 66560, Note_off_c, 1, 67, 0
2, 66800, Note_on_c, 1, 48, 127
2, 66800, Note_off_c, 1, 50, 0
2, 66800, Note_off_c, 1, 65, 0
2, 66800, Note_on_c, 1, 67, 127
2, 67040, Note_off_c, 1, 48, 0
2, 67040, Note_on_c, 1, 53, 127
2, 67040, Note_on_c, 1, 62, 127
2, 67040, Note_off_c, 1, 67, 0
2, 67200, Note_on_c, 1, 52, 127
2, 67200, Note_off_c, 1, 53, 0
2, 67200, Note_off_c, 1, 62, 0
2, 67240, Note_off_c, 1, 52, 0
2, 67240, Note_on_c, 1, 55, 127
2, 67240, Note_on_c, 1, 64, 127
2, 67480, Note_off_c, 1, 55, 0
2, 67480, Note_off_c, 1, 64, 0
2, 67520, Note_on_c, 1, 53, 127
2, 67520, Note_on_c, 1, 62, 127
2, 67720, Note_on_c, 1, 52, 127
2, 67720, Note_off_c, 1, 53, 0
2, 67720, Note_on_c, 1, 61, 127
2, 67720, Note_off_c, 1, 62, 0
2, 67960, Note_off_c, 1, 52, 0
2, 67960, Note_on_c, 1, 53, 127
2, 67960, Note_off_c, 1, 61, 0
2, 67960, Note_on_c, 1, 62, 127
2, 68200, Note_off_c, 1, 53, 0
2, 68200, Note_on_c, 1, 55, 127
2, 68200, Note_off_c, 1, 62, 0
2, 68200, Note_on_c, 1, 64, 127
2, 68440, Note_on_c, 1, 53, 127
2, 68440, Note_off_c, 1, 55, 0
2, 68440, Note_on_c, 1, 62, 127
2, 68440, Note_off_c, 1, 64, 0
2, 68680, Note_on_c, 1, 52, 127
2, 68680, Note_off_c, 1, 53, 0
2, 68680, Note_on_c, 1, 61, 127
2, 68680, Note_off_c, 1, 62, 0
2, 68920, Note_off_c, 1, 52, 0
2, 68920, Note_on_c, 1, 53, 127
2, 68920, Note_off_c, 1, 61, 0
2, 68920, Note_on_c, 1, 62, 127
2, 69160, Note_on_c, 1, 52, 127
2, 69160, Note_off_c, 1, 53, 0
2, 69160, Note_on_c, 1, 61, 127
2, 69160, Note_off_c, 1, 62, 0
2, 69400, Note_off_c, 1, 52, 0
2, 69400, Note_on_c, 1, 53, 127
2, 69400, Note_off_c, 1, 61, 0
2, 69400, Note_on_c, 1, 62, 127
2, 69640, Note_off_c, 1, 53, 0
2, 69640, Note_off_c, 1, 62, 0
2, 69680, Note_on_c, 1, 53, 127
2, 69680, Note_on_c, 1, 62, 127
2, 69880, Note_off_c, 1, 53, 0
2, 69880, Note_on_c, 1, 55, 127
2, 69880, Note_off_c, 1, 62, 0
2, 69880, Note_on_c, 1, 64, 127
2, 70120, Note_on_c, 1, 53, 127
2, 70120, Note_off_c, 1, 55, 0
2, 70120, Note_on_c, 1, 62, 127
2, 70120, Note_off_c, 1, 64, 0
2, 70360, Note_on_c, 1, 52, 127
2, 70360, Note_off_c, 1, 53, 0
2, 70360, Note_on_c, 1, 61, 127
2, 70360, Note_off_c, 1, 62, 0
2, 70600, Note_off_c, 1, 52, 0
2, 70600, Note_on_c, 1, 53, 127
2, 70600, Note_off_c, 1, 61, 0
2, 70600, Note_on_c, 1, 62, 127
2, 70840, Note_off_c, 1, 53, 0
2, 70840, Note_on_c, 1, 55, 127
2, 70840, Note_off_c, 1, 62, 0
2, 70840, Note_on_c, 1, 64, 127
2, 71080, Note_on_c, 1, 53, 127
2, 71080, Note_off_c, 1, 55, 0
2, 71080, Note_on_c, 1, 62, 127
2, 71080, Note_off_c, 1, 64, 0
2, 71320, Note_off_c, 1, 53, 0
2, 71320, Note_on_c, 1, 55, 127
2, 71320, Note_off_c, 1, 62, 0
2, 71320, Note_on_c, 1, 64, 127
2, 71560, Note_on_c, 1, 53, 127
2, 71560, Note_off_c, 1, 55, 0
2, 71560, Note_on_c, 1, 62, 127
2, 71560, Note_off_c, 1, 64, 0
2, 71800, Note_off_c, 1, 53, 0
2, 71800, Note_off_c, 1, 62, 0
2, 71840, Note_on_c, 1, 54, 127
2, 71840, Note_on_c, 1, 63, 127
2, 72000, Note_off_c, 1, 54, 0
2, 72040, Note_on_c, 1, 53, 127
2, 72040, Note_on_c, 1, 62, 127
2, 72040, Note_off_c, 1, 63, 0
2, 72280, Note_on_c, 1, 52, 127
2, 72280, Note_off_c, 1, 53, 0
2, 72280, Note_on_c, 1, 61, 127
2, 72280, Note_off_c, 1, 62, 0
2, 72520, Note_on_c, 1, 51, 127
2, 72520, Note_off_c, 1, 52, 0
2, 72520, Note_on_c, 1, 60, 127
2, 72520, Note_off_c, 1, 61, 0
2, 72760, Note_off_c, 1, 51, 0
2, 72760, Note_on_c, 1, 52, 127
2, 72760, Note_off_c, 1, 60, 0
2, 72760, Note_on_c, 1, 61, 127
2, 73000, Note_off_c, 1, 52, 0
2, 73000, Note_on_c, 1, 53, 127
2, 73000, Note_off_c, 1, 61, 0
2, 73000, Note_on_c, 1, 62, 127
2, 73240, Note_on_c, 1, 52, 127
2, 73240, Note_off_c, 1, 53, 0
2, 73240, Note_on_c, 1, 61, 127
2, 73240, Note_off_c, 1, 62, 0
2, 73480, Note_off_c, 1, 52, 0
2, 73480, Note_on_c, 1, 53, 127
2, 73480, Note_on_c, 1, 60, 127
2, 73480, Note_off_c, 1, 61, 0
2, 73720, Note_off_c, 1, 60, 0
2, 73720, Note_on_c, 1, 62, 127
2, 73840, Note_off_c, 1, 53, 0
2, 73840, Note_off_c, 1, 62, 0
2, 73880, Note_on_c, 1, 53, 127
2, 73880, Note_on_c, 1, 62, 127
2, 74440, Note_on_c, 1, 52, 127
2, 74440, Note_off_c, 1, 53, 0
2, 74440, Note_on_c, 1, 61, 127
2, 74440, Note_off_c, 1, 62, 0
2, 74680, Note_off_c, 1, 52, 0
2, 74680, Note_on_c, 1, 53, 127
2, 74680, Note_off_c, 1, 61, 0
2, 74680, Note_on_c, 1, 62, 127
2, 74720, Note_off_c, 1, 53, 0
2, 74720, Note_on_c, 1, 55, 127
2, 74720, Note_on_c, 1, 58, 127
2, 74720, Note_on_c, 1, 67, 127
2, 74720, Note_on_c, 1, 70, 127
2, 74920, Note_off_c, 1, 58, 0
2, 74920, Note_off_c, 1, 67, 0
2, 74920, Note_off_c, 1, 70, 0
2, 75160, Note_off_c, 1, 62, 0
2, 75160, Note_on_c, 1, 64, 127
2, 75400, Note_on_c, 1, 53, 127
2, 75400, Note_off_c, 1, 55, 0
2, 75400, Note_on_c, 1, 62, 127
2, 75400, Note_off_c, 1, 64, 0
2, 75840, Note_off_c, 1, 53, 0
2, 75840, Note_off_c, 1, 62, 0
2, 75920, Note_on_c, 1, 54, 127
2, 75920, Note_on_c, 1, 63, 127
2, 76120, Note_on_c, 1, 53, 127
2, 76120, Note_off_c, 1, 54, 0
2, 76120, Note_on_c, 1, 62, 127
2, 76120, Note_off_c, 1, 63, 0
2, 76360, Note_on_c, 1, 52, 127
2, 76360, Note_off_c, 1, 53, 0
2, 76360, Note_on_c, 1, 60, 127
2, 76360, Note_off_c, 1, 62, 0
2, 76600, Note_off_c, 1, 52, 0
2, 76600, Note_on_c, 1, 55, 127
2, 76600, Note_off_c, 1, 60, 0
2, 76600, Note_on_c, 1, 64, 127
2, 76840, Note_on_c, 1, 53, 127
2, 76840, Note_off_c, 1, 55, 0
2, 76840, Note_on_c, 1, 62, 127
2, 76840, Note_off_c, 1, 64, 0
2, 77080, Note_on_c, 1, 61, 127
2, 77080, Note_off_c, 1, 62, 0
2, 77560, Note_off_c, 1, 53, 0
2, 77560, Note_on_c, 1, 55, 127
2, 77560, Note_off_c, 1, 61, 0
2, 77560, Note_on_c, 1, 64, 127
2, 77800, Note_off_c, 1, 55, 0
2, 77800, Note_on_c, 1, 58, 127
2, 77800, Note_on_c, 1, 61, 127
2, 77800, Note_off_c, 1, 64, 0
2, 77920, Note_off_c, 1, 58, 0
2, 77920, Note_off_c, 1, 61, 0
2, 77960, Note_on_c, 1, 58, 127
2, 77960, Note_on_c, 1, 61, 127
2, 78040, Note_off_c, 1, 61, 0
2, 78040, Note_on_c, 1, 64, 127
2, 78280, Note_on_c, 1, 55, 127
2, 78280, Note_off_c, 1, 58, 0
2, 78520, Note_on_c, 1, 53, 127
2, 78520, Note_off_c, 1, 55, 0
2, 78520, Note_on_c, 1, 62, 127
2, 78520, Note_off_c, 1, 64, 0
2, 78760, Note_off_c, 1, 53, 0
2, 78760, Note_on_c, 1, 55, 127
2, 78760, Note_off_c, 1, 62, 0
2, 78760, Note_on_c, 1, 64, 127
2, 79000, Note_on_c, 1, 53, 127
2, 79000, Note_off_c, 1, 55, 0
2, 79000, Note_on_c, 1, 62, 127
2, 79000, Note_off_c, 1, 64, 0
2, 79240, Note_on_c, 1, 52, 127
2, 79240, Note_off_c, 1, 53, 0
2, 79240, Note_on_c, 1, 61, 127
2, 79240, Note_off_c, 1, 62, 0
2, 79480, Note_off_c, 1, 52, 0
2, 79480, Note_on_c, 1, 53, 127
2, 79480, Note_off_c, 1, 61, 0
2, 79480, Note_on_c, 1, 62, 127
2, 79720, Note_on_c, 1, 52, 127
2, 79720, Note_off_c, 1, 53, 0
2, 79720, Note_on_c, 1, 61, 127
2, 79720, Note_off_c, 1, 62, 0
2, 79960, Note_off_c, 1, 52, 0
2, 79960, Note_on_c, 1, 53, 127
2, 79960, Note_off_c, 1, 61, 0
2, 79960, Note_on_c, 1, 62, 127
2, 80080, Note_off_c, 1, 53, 0
2, 80080, Note_off_c, 1, 62, 0
2, 80120, Note_on_c, 1, 53, 127
2, 80120, Note_on_c, 1, 62, 127
2, 80200, Note_on_c, 1, 52, 127
2, 80200, Note_off_c, 1, 53, 0
2, 80200, Note_on_c, 1, 61, 127
2, 80200, Note_off_c, 1, 62, 0
2, 80440, Note_off_c, 1, 52, 0
2, 80440, Note_on_c, 1, 53, 127
2, 80440, Note_off_c, 1, 61, 0
2, 80440, Note_on_c, 1, 62, 127
2, 80680, Note_on_c, 1, 52, 127
2, 80680, Note_off_c, 1, 53, 0
2, 80680, Note_on_c, 1, 61, 127
2, 80680, Note_off_c, 1, 62, 0
2, 80920, Note_off_c, 1, 52, 0
2, 80920, Note_on_c, 1, 53, 127
2, 80920, Note_off_c, 1, 61, 0
2, 80920, Note_on_c, 1, 62, 127
2, 81160, Note_on_c, 1, 52, 127
2, 81160, Note_off_c, 1, 53, 0
2, 81160, Note_on_c, 1, 61, 127
2, 81160, Note_off_c, 1, 62, 0
2, 81400, Note_off_c, 1, 52, 0
2, 81400, Note_on_c, 1, 53, 127
2, 81400, Note_off_c, 1, 61, 0
2, 81400, Note_on_c, 1, 62, 127
2, 81640, Note_off_c, 1, 53, 0
2, 81640, Note_on_c, 1, 54, 127
2, 81640, Note_off_c, 1, 62, 0
2, 81640, Note_on_c, 1, 63, 127
2, 81880, Note_on_c, 1, 53, 127
2, 81880, Note_off_c, 1, 54, 0
2, 81880, Note_on_c, 1, 62, 127
2, 81880, Note_off_c, 1, 63, 0
2, 82120, Note_on_c, 1, 52, 127
2, 82120, Note_off_c, 1, 53, 0
2, 82120, Note_on_c, 1, 61, 127
2, 82120, Note_off_c, 1, 62, 0
2, 82240, Note_off_c, 1, 52, 0
2, 82240, Note_off_c, 1, 61, 0
2, 82280, Note_on_c, 1, 52, 127
2, 82280, Note_on_c, 1, 61, 127
2, 82360, Note_off_c, 1, 52, 0
2, 82360, Note_on_c, 1, 53, 127
2, 82360, Note_off_c, 1, 61, 0
2, 82360, Note_on_c, 1, 62, 127
2, 82600, Note_off_c, 1, 53, 0
2, 82600, Note_on_c, 1, 57, 127
2, 82600, Note_off_c, 1, 62, 0
2, 82600, Note_on_c, 1, 66, 127
2, 82800, Note_off_c, 1, 66, 0
2, 82840, Note_on_c, 1, 53, 127
2, 82840, Note_off_c, 1, 57, 0
2, 82840, Note_on_c, 1, 62, 127
2, 83080, Note_off_c, 1, 53, 0
2, 83080, Note_on_c, 1, 57, 127
2, 83080, Note_off_c, 1, 62, 0
2, 83080, Note_on_c, 1, 66, 127
2, 83320, Note_on_c, 1, 55, 127
2, 83320, Note_off_c, 1, 57, 0
2, 83320, Note_on_c, 1, 64, 127
2, 83320, Note_off_c, 1, 66, 0
2, 83560, Note_on_c, 1, 53, 127
2, 83560, Note_off_c, 1, 55, 0
2, 83560, Note_on_c, 1, 62, 127
2, 83560, Note_off_c, 1, 64, 0
2, 83800, Note_off_c, 1, 53, 0
2, 83800, Note_on_c, 1, 54, 127
2, 83800, Note_off_c, 1, 62, 0
2, 83800, Note_on_c, 1, 63, 127
2, 84000, Note_off_c, 1, 63, 0
2, 84040, Note_off_c, 1, 54, 0
2, 84040, Note_on_c, 1, 55, 127
2, 84040, Note_on_c, 1, 64, 127
2, 84240, Note_off_c, 1, 64, 0
2, 84280, Note_on_c, 1, 51, 127
2, 84280, Note_off_c, 1, 55, 0
2, 84280, Note_on_c, 1, 60, 127
2, 84400, Note_off_c, 1, 51, 0
2, 84400, Note_off_c, 1, 60, 0
2, 84440, Note_on_c, 1, 51, 127
2, 84440, Note_on_c, 1, 60, 127
2, 84520, Note_off_c, 1, 51, 0
2, 84520, Note_on_c, 1, 52, 127
2, 84760, Note_off_c, 1, 60, 0
2, 84760, Note_on_c, 1, 61, 127
2, 85000, Note_off_c, 1, 52, 0
2, 85000, Note_on_c, 1, 53, 127
2, 85000, Note_off_c, 1, 61, 0
2, 85000, Note_on_c, 1, 62, 127
2, 85240, Note_on_c, 1, 52, 127
2, 85240, Note_off_c, 1, 53, 0
2, 85240, Note_on_c, 1, 61, 127
2, 85240, Note_off_c, 1, 62, 0
2, 85480, Note_off_c, 1, 52, 0
2, 85480, Note_on_c, 1, 53, 127
2, 85480, Note_off_c, 1, 61, 0
2, 85480, Note_on_c, 1, 62, 127
2, 85720, Note_off_c, 1, 53, 0
2, 85720, Note_on_c, 1, 55, 127
2, 85720, Note_off_c, 1, 62, 0
2, 85720, Note_on_c, 1, 64, 127
2, 85960, Note_on_c, 1, 53, 127
2, 85960, Note_off_c, 1, 55, 0
2, 85960, Note_on_c, 1, 62, 127
2, 85960, Note_off_c, 1, 64, 0
2, 86200, Note_off_c, 1, 53, 0
2, 86200, Note_on_c, 1, 54, 127
2, 86200, Note_off_c, 1, 62, 0
2, 86200, Note_on_c, 1, 63, 127
2, 86440, Note_off_c, 1, 54, 0
2, 86440, Note_off_c, 1, 63, 0
2, 86480, Note_on_c, 1, 53, 127
2, 86480, Note_on_c, 1, 62, 127
2, 86680, Note_on_c, 1, 52, 127
2, 86680, Note_off_c, 1, 53, 0
2, 86680, Note_on_c, 1, 61, 127
2, 86680, Note_off_c, 1, 62, 0
2, 86920, Note_off_c, 1, 52, 0
2, 86920, Note_on_c, 1, 53, 127
2, 86920, Note_off_c, 1, 61, 0
2, 86920, Note_on_c, 1, 62, 127
2, 87160, Note_on_c, 1, 52, 127
2, 87160, Note_off_c, 1, 53, 0
2, 87160, Note_on_c, 1, 61, 127
2, 87160, Note_off_c, 1, 62, 0
2, 87400, Note_off_c, 1, 52, 0
2, 87400, Note_on_c, 1, 53, 127
2, 87400, Note_off_c, 1, 61, 0
2, 87400, Note_on_c, 1, 62, 127
2, 87640, Note_on_c, 1, 52, 127
2, 87640, Note_off_c, 1, 53, 0
2, 87640, Note_on_c, 1, 61, 127
2, 87640, Note_off_c, 1, 62, 0
2, 87880, Note_off_c, 1, 52, 0
2, 87880, Note_on_c, 1, 53, 127
2, 87880, Note_off_c, 1, 61, 0
2, 87880, Note_on_c, 1, 62, 127
2, 88120, Note_on_c, 1, 52, 127
2, 88120, Note_off_c, 1, 53, 0
2, 88120, Note_on_c, 1, 61, 127
2, 88120, Note_off_c, 1, 62, 0
2, 88360, Note_off_c, 1, 52, 0
2, 88360, Note_on_c, 1, 53, 127
2, 88360, Note_off_c, 1, 61, 0
2, 88360, Note_on_c, 1, 62, 127
2, 88480, Note_off_c, 1, 53, 0
2, 88480, Note_off_c, 1, 62, 0
2, 88520, Note_on_c, 1, 53, 127
2, 88520, Note_on_c, 1, 62, 127
2, 88840, Note_on_c, 1, 52, 127
2, 88840, Note_off_c, 1, 53, 0
2, 88840, Note_on_c, 1, 61, 127
2, 88840, Note_off_c, 1, 62, 0
2, 89080, Note_off_c, 1, 52, 0
2, 89080, Note_on_c, 1, 53, 127
2, 89080, Note_off_c, 1, 61, 0
2, 89080, Note_on_c, 1, 62, 127
2, 89320, Note_on_c, 1, 52, 127
2, 89320, Note_off_c, 1, 53, 0
2, 89320, Note_on_c, 1, 61, 127
2, 89320, Note_off_c, 1, 62, 0
2, 89560, Note_off_c, 1, 52, 0
2, 89560, Note_on_c, 1, 53, 127
2, 89560, Note_off_c, 1, 61, 0
2, 89560, Note_on_c, 1, 62, 127
2, 89800, Note_off_c, 1, 53, 0
2, 89800, Note_on_c, 1, 57, 127
2, 89800, Note_off_c, 1, 62, 0
2, 89800, Note_on_c, 1, 66, 127
2, 90040, Note_on_c, 1, 55, 127
2, 90040, Note_off_c, 1, 57, 0
2, 90040, Note_on_c, 1, 64, 127
2, 90040, Note_off_c, 1, 66, 0
2, 90280, Note_on_c, 1, 51, 127
2, 90280, Note_off_c, 1, 55, 0
2, 90280, Note_on_c, 1, 58, 127
2, 90280, Note_off_c, 1, 64, 0
2, 90400, Note_off_c, 1, 51, 0
2, 90400, Note_off_c, 1, 58, 0
2, 90440, Note_on_c, 1, 51, 127
2, 90440, Note_on_c, 1, 58, 127
2, 90520, Note_off_c, 1, 51, 0
2, 90520, Note_on_c, 1, 78, 127
2, 90760, Note_on_c, 1, 57, 127
2, 90760, Note_off_c, 1, 58, 0
2, 90760, Note_off_c, 1, 78, 0
2, 90760, Note_on_c, 1, 81, 127
2, 91480, Note_off_c, 1, 57, 0
2, 91480, Note_on_c, 1, 61, 127
2, 91960, Note_on_c, 1, 59, 127
2, 91960, Note_off_c, 1, 61, 0
2, 91960, Note_on_c, 1, 79, 127
2, 91960, Note_off_c, 1, 81, 0
2, 92200, Note_off_c, 1, 59, 0
2, 92200, Note_on_c, 1, 62, 127
2, 92200, Note_off_c, 1, 79, 0
2, 92200, Note_on_c, 1, 83, 127
2, 92400, Note_on_c, 1, 61, 127
2, 92400, Note_off_c, 1, 62, 0
2, 92440, Note_off_c, 1, 61, 0
2, 92440, Note_on_c, 1, 62, 127
2, 92440, Note_off_c, 1, 83, 0
2, 92480, Note_off_c, 1, 62, 0
2, 92520, Note_on_c, 1, 62, 127
2, 92520, Note_on_c, 1, 82, 127
2, 93200, Note_off_c, 1, 62, 0
2, 93200, Note_on_c, 1, 64, 127
2, 93200, Note_on_c, 1, 81, 127
2, 93200, Note_off_c, 1, 82, 0
2, 93440, Note_off_c, 1, 81, 0
2, 93440, Note_on_c, 1, 83, 127
2, 93680, Note_on_c, 1, 61, 127
2, 93680, Note_off_c, 1, 64, 0
2, 93680, Note_on_c, 1, 81, 127
2, 93680, Note_off_c, 1, 83, 0
2, 94160, Note_off_c, 1, 61, 0
2, 94160, Note_on_c, 1, 64, 127
2, 94160, Note_on_c, 1, 79, 127
2, 94160, Note_off_c, 1, 81, 0
2, 94400, Note_on_c, 1, 58, 127
2, 94400, Note_off_c, 1, 64, 0
2, 94400, Note_on_c, 1, 78, 127
2, 94400, Note_off_c, 1, 79, 0
2, 94520, Note_off_c, 1, 58, 0
2, 94520, Note_off_c, 1, 78, 0
2, 94560, Note_on_c, 1, 58, 127
2, 94560, Note_on_c, 1, 78, 127
2, 94640, Note_off_c, 1, 78, 0
2, 94640, Note_on_c, 1, 79, 127
2, 94880, Note_on_c, 1, 55, 127
2, 94880, Note_off_c, 1, 58, 0
2, 94880, Note_off_c, 1, 79, 0
2, 94880, Note_on_c, 1, 82, 127
2, 95360, Note_off_c, 1, 55, 0
2, 95360, Note_on_c, 1, 58, 127
2, 95360, Note_off_c, 1, 82, 0
2, 95360, Note_on_c, 1, 85, 127
2, 96080, Note_on_c, 1, 82, 127
2, 96080, Note_off_c, 1, 85, 0
2, 96320, Note_off_c, 1, 58, 0
2, 96320, Note_off_c, 1, 82, 0
2, 96360, Note_on_c, 1, 60, 127
2, 96360, Note_on_c, 1, 80, 127
2, 96720, Note_off_c, 1, 60, 0
2, 96720, Note_off_c, 1, 80, 0
2, 96760, Note_on_c, 1, 60, 127
2, 96760, Note_on_c, 1, 80, 127
2, 97080, Note_on_c, 1, 56, 127
2, 97080, Note_off_c, 1, 60, 0
2, 97320, Note_off_c, 1, 56, 0
2, 97320, Note_on_c, 1, 60, 127
2, 97560, Note_on_c, 1, 54, 127
2, 97560, Note_off_c, 1, 60, 0
2, 97560, Note_on_c, 1, 78, 127
2, 97560, Note_off_c, 1, 80, 0
2, 97560, Note_on_c, 1, 90, 127
2, 97560, Note_on_c, 1, 93, 127
2, 97960, Note_off_c, 1, 54, 0
2, 98000, Note_on_c, 1, 54, 127
2, 98360, Note_off_c, 1, 54, 0
2, 98360, Note_on_c, 1, 73, 127
2, 98360, Note_on_c, 1, 75, 127
2, 98360, Note_off_c, 1, 78, 0
2, 98360, Note_off_c, 1, 90, 0
2, 98360, Note_off_c, 1, 93, 0
2, 98400, Note_on_c, 1, 40, 127
2, 98400, Note_on_c, 1, 44, 127
2, 98400, Note_on_c, 1, 47, 127
2, 98400, Note_on_c, 1, 50, 127
2, 98400, Note_off_c, 1, 73, 0
2, 98400, Note_off_c, 1, 75, 0
2, 98400, Note_on_c, 1, 80, 127
2, 98400, Note_on_c, 1, 83, 127
2, 98440, Note_on_c, 1, 35, 127
2, 98440, Note_off_c, 1, 40, 0
2, 98440, Note_off_c, 1, 47, 0
2, 98440, Note_off_c, 1, 50, 0
2, 98440, Note_on_c, 1, 51, 127
2, 98440, Note_off_c, 1, 80, 0
2, 98440, Note_off_c, 1, 83, 0
2, 98480, Note_off_c, 1, 35, 0
2, 98480, Note_on_c, 1, 43, 127
2, 98480, Note_off_c, 1, 44, 0
2, 98480, Note_on_c, 1, 48, 127
2, 98480, Note_off_c, 1, 51, 0
2, 98480, Note_on_c, 1, 58, 127
2, 98480, Note_on_c, 1, 70, 127
2, 98480, Note_on_c, 1, 74, 127
2, 98520, Note_off_c, 1, 43, 0
2, 98520, Note_off_c, 1, 48, 0
2, 98520, Note_on_c, 1, 55, 127
2, 98520, Note_off_c, 1, 58, 0
2, 98520, Note_on_c, 1, 63, 127
2, 98520, Note_off_c, 1, 70, 0
2, 98520, Note_off_c, 1, 74, 0
2, 98520, Note_on_c, 1, 89, 127
2, 98560, Note_on_c, 1, 51, 127
2, 98560, Note_off_c, 1, 55, 0
2, 98560, Note_on_c, 1, 73, 127
2, 98560, Note_on_c, 1, 75, 127
2, 98560, Note_on_c, 1, 79, 127
2, 98560, Note_on_c, 1, 82, 127
2, 98560, Note_off_c, 1, 89, 0
2, 98600, Note_on_c, 1, 35, 127
2, 98600, Note_on_c, 1, 39, 127
2, 98600, Note_on_c, 1, 42, 127
2, 98600, Note_off_c, 1, 51, 0
2, 98600, Note_on_c, 1, 54, 127
2, 98600, Note_on_c, 1, 59, 127
2, 98600, Note_off_c, 1, 73, 0
2, 98600, Note_off_c, 1, 75, 0
2, 98600, Note_off_c, 1, 79, 0
2, 98600, Note_off_c, 1, 82, 0
2, 98640, Note_off_c, 1, 35, 0
2, 98640, Note_off_c, 1, 39, 0
2, 98640, Note_off_c, 1, 42, 0
2, 98640, Note_off_c, 1, 54, 0
2, 98640, Note_off_c, 1, 59, 0
2, 98640, Note_off_c, 1, 63, 0
2, 98680, Note_on_c, 1, 36, 127
2, 98680, Note_on_c, 1, 41, 127
2, 98680, Note_on_c, 1, 45, 127
2, 98680, Note_on_c, 1, 48, 127
2, 98680, Note_on_c, 1, 65, 127
2, 98680, Note_on_c, 1, 69, 127
2, 98680, Note_on_c, 1, 72, 127
2, 98720, Note_off_c, 1, 36, 0
2, 98720, Note_off_c, 1, 41, 0
2, 98720, Note_on_c, 1, 44, 127
2, 98720, Note_off_c, 1, 45, 0
2, 98720, Note_off_c, 1, 48, 0
2, 98720, Note_off_c, 1, 65, 0
2, 98720, Note_off_c, 1, 69, 0
2, 98720, Note_off_c, 1, 72, 0
2, 98720, Note_on_c, 1, 99, 127
2, 98760, Note_off_c, 1, 44, 0
2, 98760, Note_on_c, 1, 51, 127
2, 98760, Note_on_c, 1, 69, 127
2, 98760, Note_on_c, 1, 80, 127
2, 98760, Note_on_c, 1, 83, 127
2, 98760, Note_off_c, 1, 99, 0
2, 98800, Note_off_c, 1, 51, 0
2, 98800, Note_on_c, 1, 60, 127
2, 98800, Note_on_c, 1, 66, 127
2, 98800, Note_off_c, 1, 69, 0
2, 98800, Note_off_c, 1, 80, 0
2, 98800, Note_on_c, 1, 82, 127
2, 98800, Note_off_c, 1, 83, 0
2, 98800, Note_on_c, 1, 87, 127
2, 98840, Note_on_c, 1, 56, 127
2, 98840, Note_off_c, 1, 60, 0
2, 98840, Note_on_c, 1, 63, 127
2, 98840, Note_on_c, 1, 68, 127
2, 98840, Note_on_c, 1, 75, 127
2, 98840, Note_off_c, 1, 82, 0
2, 98840, Note_on_c, 1, 84, 127
2, 98880, Note_on_c, 1, 54, 127
2, 98880, Note_off_c, 1, 56, 0
2, 98880, Note_off_c, 1, 63, 0
2, 98880, Note_off_c, 1, 66, 0
2, 98880, Note_off_c, 1, 68, 0
2, 98880, Note_off_c, 1, 75, 0
2, 98880, Note_on_c, 1, 78, 127
2, 98880, Note_on_c, 1, 80, 127
2, 98880, Note_off_c, 1, 84, 0
2, 98880, Note_off_c, 1, 87, 0
2, 98920, Note_on_c, 1, 51, 127
2, 98920, Note_off_c, 1, 54, 0
2, 98920, Note_on_c, 1, 75, 127
2, 98920, Note_off_c, 1, 80, 0
2, 98920, Note_on_c, 1, 83, 127
2, 98920, Note_on_c, 1, 87, 127
2, 98960, Note_on_c, 1, 46, 127
2, 98960, Note_off_c, 1, 51, 0
2, 98960, Note_on_c, 1, 54, 127
2, 98960, Note_off_c, 1, 75, 0
2, 98960, Note_off_c, 1, 83, 0
2, 98960, Note_off_c, 1, 87, 0
2, 99000, Note_off_c, 1, 46, 0
2, 99000, Note_on_c, 1, 51, 127
2, 99000, Note_off_c, 1, 54, 0
2, 99000, Note_on_c, 1, 75, 127
2, 99000, Note_on_c, 1, 83, 127
2, 99000, Note_on_c, 1, 87, 127
2, 99040, Note_off_c, 1, 51, 0
2, 99040, Note_on_c, 1, 54, 127
2, 99040, Note_off_c, 1, 75, 0
2, 99040, Note_on_c, 1, 81, 127
2, 99040, Note_off_c, 1, 83, 0
2, 99040, Note_on_c, 1, 86, 127
2, 99040, Note_off_c, 1, 87, 0
2, 99040, Note_on_c, 1, 90, 127
2, 99080, Note_on_c, 1, 59, 127
2, 99080, Note_on_c, 1, 75, 127
2, 99080, Note_off_c, 1, 78, 0
2, 99080, Note_off_c, 1, 81, 0
2, 99080, Note_off_c, 1, 86, 0
2, 99080, Note_off_c, 1, 90, 0
2, 99120, Note_off_c, 1, 54, 0
2, 99120, Note_on_c, 1, 56, 127
2, 99120, Note_off_c, 1, 59, 0
2, 99120, Note_on_c, 1, 83, 127
2, 99240, Note_off_c, 1, 75, 0
2, 99240, Note_off_c, 1, 83, 0
2, 99280, Note_on_c, 1, 80, 127
2, 99280, Note_on_c, 1, 83, 127
2, 100080, Note_off_c, 1, 56, 0
2, 100080, Note_off_c, 1, 80, 0
2, 100080, Note_off_c, 1, 83, 0
2, 100120, Note_on_c, 1, 60, 127
2, 100120, Note_on_c, 1, 63, 127
2, 100120, Note_on_c, 1, 66, 127
2, 100120, Note_on_c, 1, 68, 127
2, 100120, Note_on_c, 1, 75, 127
2, 100160, Note_on_c, 1, 56, 127
2, 100160, Note_off_c, 1, 60, 0
2, 100200, Note_off_c, 1, 56, 0
2, 100200, Note_on_c, 1, 60, 127
2, 100240, Note_off_c, 1, 60, 0
2, 100560, Note_on_c, 1, 56, 127
2, 100680, Note_off_c, 1, 56, 0
2, 100720, Note_off_c, 1, 63, 0
2, 100720, Note_off_c, 1, 66, 0
2, 100720, Note_off_c, 1, 68, 0
2, 100720, Note_off_c, 1, 75, 0
2, 100760, Note_on_c, 1, 56, 127
2, 100760, Note_on_c, 1, 63, 127
2, 100760, Note_on_c, 1, 66, 127
2, 100760, Note_on_c, 1, 68, 127
2, 100760, Note_on_c, 1, 75, 127
2, 101000, Note_off_c, 1, 56, 0
2, 101040, Note_on_c, 1, 56, 127
2, 101440, Note_on_c, 1, 49, 127
2, 101440, Note_on_c, 1, 61, 127
2, 101440, Note_off_c, 1, 63, 0
2, 101440, Note_on_c, 1, 64, 127
2, 101440, Note_off_c, 1, 66, 0
2, 101440, Note_on_c, 1, 73, 127
2, 101440, Note_off_c, 1, 75, 0
2, 101440, Note_on_c, 1, 76, 127
2, 101840, Note_off_c, 1, 49, 0
2, 101840, Note_off_c, 1, 56, 0
2, 101840, Note_off_c, 1, 61, 0
2, 101840, Note_off_c, 1, 64, 0
2, 101840, Note_off_c, 1, 68, 0
2, 101840, Note_off_c, 1, 73, 0
2, 101840, Note_off_c, 1, 76, 0
2, 101880, Note_on_c, 1, 76, 127
2, 102960, Note_off_c, 1, 76, 0
2, 103000, Note_on_c, 1, 76, 127
2, 103280, Note_off_c, 1, 76, 0
2, 103320, Note_on_c, 1, 61, 127
2, 103320, Note_on_c, 1, 85, 127
2, 104080, Note_off_c, 1, 61, 0
2, 104080, Note_off_c, 1, 85, 0
2, 104120, Note_on_c, 1, 59, 127
2, 104120, Note_on_c, 1, 83, 127
2, 104600, Note_off_c, 1, 59, 0
2, 104600, Note_off_c, 1, 83, 0
2, 104640, Note_on_c, 1, 56, 127
2, 104640, Note_on_c, 1, 80, 127
2, 105120, Note_off_c, 1, 56, 0
2, 105120, Note_off_c, 1, 80, 0
2, 105200, Note_on_c, 1, 53, 127
2, 105200, Note_on_c, 1, 75, 127
2, 105400, Note_off_c, 1, 75, 0
2, 105440, Note_on_c, 1, 77, 127
2, 105680, Note_off_c, 1, 53, 0
2, 105680, Note_off_c, 1, 77, 0
2, 105720, Note_on_c, 1, 53, 127
2, 105720, Note_on_c, 1, 73, 127
2, 105920, Note_off_c, 1, 73, 0
2, 105960, Note_on_c, 1, 71, 127
2, 106200, Note_off_c, 1, 53, 0
2, 106200, Note_off_c, 1, 71, 0
2, 106240, Note_on_c, 1, 59, 127
2, 106240, Note_on_c, 1, 77, 127
2, 106440, Note_off_c, 1, 59, 0
2, 106440, Note_off_c, 1, 77, 0
2, 106720, Note_on_c, 1, 58, 127
2, 106720, Note_on_c, 1, 78, 127
2, 107080, Note_off_c, 1, 58, 0
2, 107080, Note_off_c, 1, 78, 0
2, 107120, Note_on_c, 1, 58, 127
2, 107120, Note_on_c, 1, 78, 127
2, 107200, Note_off_c, 1, 58, 0
2, 107240, Note_on_c, 1, 61, 127
2, 107480, Note_off_c, 1, 61, 0
2, 107480, Note_off_c, 1, 78, 0
2, 107520, Note_on_c, 1, 58, 127
2, 107520, Note_on_c, 1, 78, 127
2, 107680, Note_off_c, 1, 58, 0
2, 107680, Note_on_c, 1, 61, 127
2, 107720, Note_off_c, 1, 61, 0
2, 107720, Note_off_c, 1, 78, 0
2, 107760, Note_on_c, 1, 61, 127
2, 107760, Note_on_c, 1, 77, 127
2, 108000, Note_off_c, 1, 61, 0
2, 108000, Note_off_c, 1, 77, 0
2, 108040, Note_on_c, 1, 66, 127
2, 108040, Note_on_c, 1, 70, 127
2, 108080, Note_off_c, 1, 70, 0
2, 108280, Note_off_c, 1, 66, 0
2, 108320, Note_on_c, 1, 65, 127
2, 108320, Note_on_c, 1, 80, 127
2, 108560, Note_off_c, 1, 65, 0
2, 108560, Note_off_c, 1, 80, 0
2, 108600, Note_on_c, 1, 66, 127
2, 108600, Note_on_c, 1, 82, 127
2, 108640, Note_off_c, 1, 82, 0
2, 108800, Note_on_c, 1, 63, 127
2, 108800, Note_off_c, 1, 66, 0
2, 108800, Note_on_c, 1, 78, 127
2, 109000, Note_off_c, 1, 63, 0
2, 109000, Note_off_c, 1, 78, 0
2, 109040, Note_on_c, 1, 63, 127
2, 109040, Note_on_c, 1, 78, 127
2, 109120, Note_off_c, 1, 63, 0
2, 109120, Note_off_c, 1, 78, 0
2, 109160, Note_on_c, 1, 65, 127
2, 109160, Note_on_c, 1, 80, 127
2, 109400, Note_off_c, 1, 65, 0
2, 109400, Note_off_c, 1, 80, 0
2, 109440, Note_on_c, 1, 65, 127
2, 109640, Note_off_c, 1, 65, 0
2, 109680, Note_on_c, 1, 61, 127
2, 109680, Note_on_c, 1, 80, 127
2, 109920, Note_off_c, 1, 61, 0
2, 109960, Note_on_c, 1, 65, 127
2, 110160, Note_off_c, 1, 65, 0
2, 110160, Note_off_c, 1, 80, 0
2, 110200, Note_on_c, 1, 66, 127
2, 110200, Note_on_c, 1, 82, 127
2, 110440, Note_off_c, 1, 66, 0
2, 110440, Note_off_c, 1, 82, 0
2, 110480, Note_on_c, 1, 59, 127
2, 110480, Note_on_c, 1, 80, 127
2, 110720, Note_off_c, 1, 59, 0
2, 110720, Note_off_c, 1, 80, 0
2, 110760, Note_on_c, 1, 65, 127
2, 110760, Note_on_c, 1, 82, 127
2, 110800, Note_off_c, 1, 82, 0
2, 110840, Note_on_c, 1, 83, 127
2, 110880, Note_off_c, 1, 83, 0
2, 110920, Note_on_c, 1, 81, 127
2, 110960, Note_off_c, 1, 81, 0
2, 111000, Note_off_c, 1, 65, 0
2, 111040, Note_on_c, 1, 65, 127
2, 111040, Note_on_c, 1, 83, 127
2, 111080, Note_off_c, 1, 83, 0
2, 111120, Note_on_c, 1, 83, 127
2, 111200, Note_off_c, 1, 83, 0
2, 111240, Note_on_c, 1, 80, 127
2, 111280, Note_off_c, 1, 65, 0
2, 111280, Note_off_c, 1, 80, 0
2, 111320, Note_on_c, 1, 61, 127
2, 111320, Note_on_c, 1, 78, 127
2, 111520, Note_off_c, 1, 61, 0
2, 111520, Note_off_c, 1, 78, 0
2, 111560, Note_on_c, 1, 68, 127
2, 111560, Note_on_c, 1, 77, 127
2, 111760, Note_off_c, 1, 77, 0
2, 111800, Note_off_c, 1, 68, 0
2, 111840, Note_on_c, 1, 65, 127
2, 111840, Note_on_c, 1, 73, 127
2, 112040, Note_off_c, 1, 65, 0
2, 112040, Note_off_c, 1, 73, 0
2, 112080, Note_on_c, 1, 53, 127
2, 112080, Note_on_c, 1, 71, 127
2, 112320, Note_off_c, 1, 53, 0
2, 112360, Note_on_c, 1, 61, 127
2, 112560, Note_off_c, 1, 61, 0
2, 112600, Note_on_c, 1, 59, 127
2, 112840, Note_off_c, 1, 59, 0
2, 112880, Note_on_c, 1, 53, 127
2, 113040, Note_off_c, 1, 53, 0
2, 113080, Note_on_c, 1, 70, 127
2, 113080, Note_off_c, 1, 71, 0
2, 113120, Note_off_c, 1, 70, 0
2, 113160, Note_on_c, 1, 59, 127
2, 113160, Note_on_c, 1, 68, 127
2, 113360, Note_off_c, 1, 59, 0
2, 113400, Note_on_c, 1, 58, 127
2, 113400, Note_on_c, 1, 61, 127
2, 113400, Note_off_c, 1, 68, 0
2, 113640, Note_off_c, 1, 58, 0
2, 113640, Note_off_c, 1, 61, 0
2, 113680, Note_on_c, 1, 66, 127
2, 113920, Note_off_c, 1, 66, 0
2, 113960, Note_on_c, 1, 59, 127
2, 113960, Note_on_c, 1, 62, 127
2, 114160, Note_off_c, 1, 62, 0
2, 114200, Note_off_c, 1, 59, 0
2, 114240, Note_on_c, 1, 68, 127
2, 114720, Note_off_c, 1, 68, 0
2, 114760, Note_on_c, 1, 61, 127
2, 114760, Note_on_c, 1, 65, 127
2, 115160, Note_off_c, 1, 61, 0
2, 115160, Note_off_c, 1, 65, 0
2, 115200, Note_on_c, 1, 61, 127
2, 115200, Note_on_c, 1, 65, 127
2, 115240, Note_off_c, 1, 61, 0
2, 115240, Note_off_c, 1, 65, 0
2, 115280, Note_on_c, 1, 49, 127
2, 115280, Note_on_c, 1, 59, 127
2, 115280, Note_on_c, 1, 65, 127
2, 115480, Note_off_c, 1, 65, 0
2, 115520, Note_on_c, 1, 65, 127
2, 115760, Note_off_c, 1, 49, 0
2, 115760, Note_off_c, 1, 59, 0
2, 115800, Note_on_c, 1, 47, 127
2, 115800, Note_on_c, 1, 62, 127
2, 116000, Note_off_c, 1, 47, 0
2, 116000, Note_off_c, 1, 62, 0
2, 116040, Note_on_c, 1, 59, 127
2, 116280, Note_off_c, 1, 59, 0
2, 116280, Note_off_c, 1, 65, 0
2, 116320, Note_on_c, 1, 59, 127
2, 116320, Note_on_c, 1, 65, 127
2, 116560, Note_off_c, 1, 59, 0
2, 116560, Note_off_c, 1, 65, 0
2, 116600, Note_on_c, 1, 68, 127
2, 116800, Note_off_c, 1, 68, 0
2, 116840, Note_on_c, 1, 70, 127
2, 117080, Note_off_c, 1, 70, 0
2, 117120, Note_on_c, 1, 71, 127
2, 117320, Note_off_c, 1, 71, 0
2, 117400, Note_on_c, 1, 50, 127
2, 117400, Note_on_c, 1, 59, 127
2, 117640, Note_off_c, 1, 50, 0
2, 117640, Note_off_c, 1, 59, 0
2, 117680, Note_on_c, 1, 65, 127
2, 117880, Note_off_c, 1, 65, 0
2, 117920, Note_on_c, 1, 54, 127
2, 117920, Note_on_c, 1, 66, 127
2, 118160, Note_off_c, 1, 54, 0
2, 118160, Note_off_c, 1, 66, 0
2, 118200, Note_on_c, 1, 71, 127
2, 118400, Note_off_c, 1, 71, 0
2, 118440, Note_on_c, 1, 61, 127
2, 118440, Note_on_c, 1, 70, 127
2, 118680, Note_off_c, 1, 61, 0
2, 118680, Note_off_c, 1, 70, 0
2, 118720, Note_on_c, 1, 73, 127
2, 118920, Note_off_c, 1, 73, 0
2, 118960, Note_on_c, 1, 59, 127
2, 118960, Note_on_c, 1, 75, 127
2, 119200, Note_off_c, 1, 59, 0
2, 119200, Note_off_c, 1, 75, 0
2, 119240, Note_on_c, 1, 66, 127
2, 119440, Note_off_c, 1, 66, 0
2, 119520, Note_on_c, 1, 65, 127
2, 119520, Note_on_c, 1, 74, 127
2, 119720, Note_off_c, 1, 65, 0
2, 119760, Note_on_c, 1, 68, 127
2, 119960, Note_off_c, 1, 68, 0
2, 119960, Note_off_c, 1, 74, 0
2, 120040, End_track
3, 0, Start_track
3, 0, Title_t, "MIDI"
3, 1536, End_track
0, 0, End_of_file
