0, 0, Header, 1, 3, 192
1, 0, Start_track
1, 0, Time_signature, 4, 2, 24, 8
1, 0, Tempo, 500000
1, 120040, End_track
2, 0, Start_track
2, 0, Text_t, "random instrument: random person i dunno whatev"
2, 0, Title_t, "Track 1"
2, 0, Note_on_c, 1, 34, 127
2, 0, Note_on_c, 1, 53, 127
2, 0, Note_on_c, 1, 56, 127
2, 0, Note_on_c, 1, 62, 127
2, 40, Note_off_c, 1, 34, 0
2, 40, Note_off_c, 1, 53, 0
2, 40, Note_off_c, 1, 56, 0
2, 40, Note_off_c, 1, 62, 0
2, 80, Note_on_c, 1, 31, 127
2, 80, Note_on_c, 1, 43, 127
2, 80, Note_on_c, 1, 59, 127
2, 80, Note_on_c, 1, 65, 127
2, 80, Note_on_c, 1, 67, 127
2, 120, Note_off_c, 1, 31, 0
2, 120, Note_on_c, 1, 34, 127
2, 120, Note_off_c, 1, 43, 0
2, 120, Note_on_c, 1, 53, 127
2, 120, Note_on_c, 1, 56, 127
2, 120, Note_off_c, 1, 59, 0
2, 120, Note_on_c, 1, 62, 127
2, 120, Note_off_c, 1, 65, 0
2, 120, Note_off_c, 1, 67, 0
2, 160, Note_off_c, 1, 34, 0
2, 160, Note_on_c, 1, 43, 127
2, 160, Note_on_c, 1, 47, 127
2, 160, Note_off_c, 1, 53, 0
2, 160, Note_on_c, 1, 55, 127
2, 160, Note_off_c, 1, 56, 0
2, 160, Note_off_c, 1, 62, 0
2, 160, Note_on_c, 1, 79, 127
2, 160, Note_on_c, 1, 83, 127
2, 160, Note_on_c, 1, 87, 127
2, 160, Note_on_c, 1, 91, 127
2, 200, Note_on_c, 1, 34, 127
2, 200, Note_off_c, 1, 43, 0
2, 200, Note_off_c, 1, 47, 0
2, 200, Note_on_c, 1, 53, 127
2, 200, Note_off_c, 1, 55, 0
2, 200, Note_on_c, 1, 56, 127
2, 200, Note_on_c, 1, 62, 127
2, 200, Note_off_c, 1, 79, 0
2, 200, Note_off_c, 1, 83, 0
2, 200, Note_off_c, 1, 87, 0
2, 200, Note_off_c, 1, 91, 0
2, 320, Note_off_c, 1, 34, 0
2, 320, Note_off_c, 1, 53, 0
2, 320, Note_off_c, 1, 56, 0
2, 320, Note_off_c, 1, 62, 0
2, 320, Note_on_c, 1, 65, 127
2, 360, Note_on_c, 1, 34, 127
2, 360, Note_on_c, 1, 53, 127
2, 360, Note_on_c, 1, 56, 127
2, 360, Note_on_c, 1, 62, 127
2, 360, Note_off_c, 1, 65, 0
2, 1040, Note_off_c, 1, 62, 0
2, 1240, Note_off_c, 1, 34, 0
2, 1240, Note_off_c, 1, 53, 0
2, 1240, Note_on_c, 1, 55, 127
2, 1240, Note_off_c, 1, 56, 0
2, 1240, Note_on_c, 1, 77, 127
2, 1240, Note_on_c, 1, 80, 127
2, 1280, Note_on_c, 1, 34, 127
2, 1280, Note_on_c, 1, 53, 127
2, 1280, Note_off_c, 1, 55, 0
2, 1280, Note_on_c, 1, 56, 127
2, 1280, Note_off_c, 1, 77, 0
2, 1280, Note_off_c, 1, 80, 0
2, 1760, Note_off_c, 1, 56, 0
2, 1920, Note_off_c, 1, 53, 0
2, 1920, Note_on_c, 1, 58, 127
2, 2000, Note_off_c, 1, 34, 0
2, 2000, Note_off_c, 1, 58, 0
2, 5240, Note_on_c, 1, 43, 127
2, 5240, Note_on_c, 1, 50, 127
2, 5240, Note_on_c, 1, 60, 127
2, 5240, Note_on_c, 1, 62, 127
2, 5240, Note_on_c, 1, 69, 127
2, 5600, Note_off_c, 1, 43, 0
2, 5600, Note_off_c, 1, 50, 0
2, 5600, Note_off_c, 1, 60, 0
2, 5600, Note_off_c, 1, 62, 0
2, 5600, Note_off_c, 1, 69, 0
2, 5640, Note_on_c, 1, 40, 127
2, 5640, Note_on_c, 1, 52, 127
2, 5640, Note_on_c, 1, 55, 127
2, 5640, Note_on_c, 1, 64, 127
2, 6040, Note_off_c, 1, 40, 0
2, 6040, Note_off_c, 1, 52, 0
2, 6040, Note_off_c, 1, 55, 0
2, 6040, Note_off_c, 1, 64, 0
2, 7560, Note_on_c, 1, 51, 127
2, 7560, Note_on_c, 1, 54, 127
2, 7560, Note_on_c, 1, 59, 127
2, 7880, Note_off_c, 1, 51, 0
2, 7880, Note_off_c, 1, 54, 0
2, 7880, Note_off_c, 1, 59, 0
2, 7920, Note_on_c, 1, 51, 127
2, 7920, Note_on_c, 1, 54, 127
2, 7920, Note_on_c, 1, 59, 127
2, 8360, Note_off_c, 1, 51, 0
2, 8360, Note_off_c, 1, 54, 0
2, 8360, Note_off_c, 1, 59, 0
2, 14960, Note_on_c, 1, 35, 127
2, 15040, Note_off_c, 1, 35, 0
2, 15080, Note_on_c, 1, 35, 127
2, 15120, Note_off_c, 1, 35, 0
2, 15160, Note_on_c, 1, 30, 127
2, 15240, Note_off_c, 1, 30, 0
2, 15280, Note_on_c, 1, 30, 127
2, 15320, Note_off_c, 1, 30, 0
2, 15360, Note_on_c, 1, 30, 127
2, 15520, Note_off_c, 1, 30, 0
2, 15560, Note_on_c, 1, 30, 127
2, 15640, Note_off_c, 1, 30, 0
2, 15680, Note_on_c, 1, 30, 127
2, 15720, Note_off_c, 1, 30, 0
2, 15760, Note_on_c, 1, 30, 127
2, 15840, Note_off_c, 1, 30, 0
2, 15880, Note_on_c, 1, 30, 127
2, 15920, Note_off_c, 1, 30, 0
2, 16000, Note_on_c, 1, 34, 127
2, 16000, Note_on_c, 1, 46, 127
2, 16000, Note_on_c, 1, 78, 127
2, 16000, Note_on_c, 1, 87, 127
2, 16000, Note_on_c, 1, 90, 127
2, 16040, Note_off_c, 1, 34, 0
2, 16040, Note_off_c, 1, 46, 0
2, 16040, Note_off_c, 1, 78, 0
2, 16040, Note_off_c, 1, 87, 0
2, 16040, Note_off_c, 1, 90, 0
2, 16200, Note_on_c, 1, 37, 127
2, 16200, Note_on_c, 1, 49, 127
2, 16200, Note_on_c, 1, 78, 127
2, 16200, Note_on_c, 1, 84, 127
2, 16200, Note_on_c, 1, 87, 127
2, 16200, Note_on_c, 1, 92, 127
2, 16400, Note_off_c, 1, 37, 0
2, 16400, Note_off_c, 1, 49, 0
2, 16400, Note_off_c, 1, 78, 0
2, 16400, Note_off_c, 1, 84, 0
2, 16400, Note_off_c, 1, 87, 0
2, 16400, Note_off_c, 1, 92, 0
2, 16440, Note_on_c, 1, 44, 127
2, 16440, Note_on_c, 1, 56, 127
2, 16440, Note_on_c, 1, 78, 127
2, 16440, Note_on_c, 1, 84, 127
2, 16440, Note_on_c, 1, 87, 127
2, 16440, Note_on_c, 1, 92, 127
2, 16480, Note_off_c, 1, 44, 0
2, 16480, Note_off_c, 1, 56, 0
2, 16480, Note_off_c, 1, 78, 0
2, 16480, Note_off_c, 1, 84, 0
2, 16480, Note_off_c, 1, 87, 0
2, 16480, Note_off_c, 1, 92, 0
2, 16520, Note_on_c, 1, 37, 127
2, 16520, Note_on_c, 1, 49, 127
2, 16520, Note_on_c, 1, 77, 127
2, 16520, Note_on_c, 1, 85, 127
2, 16520, Note_on_c, 1, 89, 127
2, 16560, Note_off_c, 1, 37, 0
2, 16560, Note_off_c, 1, 49, 0
2, 16560, Note_off_c, 1, 77, 0
2, 16560, Note_off_c, 1, 85, 0
2, 16560, Note_off_c, 1, 89, 0
2, 16640, Note_on_c, 1, 37, 127
2, 16640, Note_on_c, 1, 49, 127
2, 16640, Note_on_c, 1, 77, 127
2, 16640, Note_on_c, 1, 85, 127
2, 16640, Note_on_c, 1, 89, 127
2, 16880, Note_off_c, 1, 37, 0
2, 16880, Note_off_c, 1, 49, 0
2, 16880, Note_off_c, 1, 77, 0
2, 16880, Note_off_c, 1, 85, 0
2, 16880, Note_off_c, 1, 89, 0
2, 16920, Note_on_c, 1, 37, 127
2, 16920, Note_on_c, 1, 49, 127
2, 16920, Note_on_c, 1, 77, 127
2, 16920, Note_on_c, 1, 85, 127
2, 16920, Note_on_c, 1, 89, 127
2, 16960, Note_off_c, 1, 37, 0
2, 16960, Note_off_c, 1, 49, 0
2, 16960, Note_off_c, 1, 77, 0
2, 16960, Note_off_c, 1, 85, 0
2, 16960, Note_off_c, 1, 89, 0
2, 17040, Note_on_c, 1, 37, 127
2, 17040, Note_on_c, 1, 49, 127
2, 17040, Note_on_c, 1, 77, 127
2, 17040, Note_on_c, 1, 85, 127
2, 17040, Note_on_c, 1, 89, 127
2, 17080, Note_off_c, 1, 37, 0
2, 17080, Note_off_c, 1, 49, 0
2, 17080, Note_off_c, 1, 77, 0
2, 17080, Note_off_c, 1, 85, 0
2, 17080, Note_off_c, 1, 89, 0
2, 17640, Note_on_c, 1, 54, 127
2, 17640, Note_on_c, 1, 78, 127
2, 17840, Note_off_c, 1, 54, 0
2, 17840, Note_off_c, 1, 78, 0
2, 19840, Note_on_c, 1, 36, 127
2, 19840, Note_on_c, 1, 48, 127
2, 20840, Note_off_c, 1, 36, 0
2, 20840, Note_off_c, 1, 48, 0
2, 20880, Note_on_c, 1, 36, 127
2, 20880, Note_on_c, 1, 48, 127
2, 20920, Note_off_c, 1, 36, 0
2, 20920, Note_off_c, 1, 48, 0
2, 21080, Note_on_c, 1, 41, 127
2, 21080, Note_on_c, 1, 53, 127
2, 21120, Note_off_c, 1, 41, 0
2, 21120, Note_off_c, 1, 53, 0
2, 21320, Note_on_c, 1, 41, 127
2, 21320, Note_on_c, 1, 53, 127
2, 21400, Note_off_c, 1, 41, 0
2, 21400, Note_off_c, 1, 53, 0
2, 21560, Note_on_c, 1, 41, 127
2, 21560, Note_on_c, 1, 53, 127
2, 21880, Note_off_c, 1, 41, 0
2, 21880, Note_off_c, 1, 53, 0
2, 21920, Note_on_c, 1, 31, 127
2, 21920, Note_on_c, 1, 43, 127
2, 21920, Note_on_c, 1, 71, 127
2, 22280, Note_off_c, 1, 31, 0
2, 22280, Note_off_c, 1, 43, 0
2, 22280, Note_off_c, 1, 71, 0
2, 22320, Note_on_c, 1, 41, 127
2, 22320, Note_on_c, 1, 53, 127
2, 22560, Note_off_c, 1, 41, 0
2, 22560, Note_off_c, 1, 53, 0
2, 22600, Note_on_c, 1, 43, 127
2, 22600, Note_on_c, 1, 55, 127
2, 22840, Note_off_c, 1, 43, 0
2, 22840, Note_off_c, 1, 55, 0
2, 22880, Note_on_c, 1, 41, 127
2, 22880, Note_on_c, 1, 53, 127
2, 23080, Note_off_c, 1, 41, 0
2, 23080, Note_off_c, 1, 53, 0
2, 23200, Note_on_c, 1, 41, 127
2, 23200, Note_on_c, 1, 53, 127
2, 24240, Note_off_c, 1, 41, 0
2, 24240, Note_off_c, 1, 53, 0
2, 24280, Note_on_c, 1, 41, 127
2, 24280, Note_on_c, 1, 53, 127
2, 24320, Note_off_c, 1, 41, 0
2, 24320, Note_off_c, 1, 53, 0
2, 24400, Note_on_c, 1, 41, 127
2, 24400, Note_on_c, 1, 53, 127
2, 24440, Note_off_c, 1, 41, 0
2, 24440, Note_off_c, 1, 53, 0
2, 24600, Note_on_c, 1, 41, 127
2, 24600, Note_on_c, 1, 53, 127
2, 24760, Note_off_c, 1, 41, 0
2, 24760, Note_off_c, 1, 53, 0
2, 25000, Note_on_c, 1, 41, 127
2, 25000, Note_on_c, 1, 53, 127
2, 25160, Note_off_c, 1, 41, 0
2, 25160, Note_off_c, 1, 53, 0
2, 25440, Note_on_c, 1, 41, 127
2, 25440, Note_on_c, 1, 53, 127
2, 25600, Note_off_c, 1, 41, 0
2, 25600, Note_off_c, 1, 53, 0
2, 25880, Note_on_c, 1, 34, 127
2, 25880, Note_on_c, 1, 46, 127
2, 26840, Note_off_c, 1, 34, 0
2, 26840, Note_off_c, 1, 46, 0
2, 28720, Note_on_c, 1, 58, 127
2, 28800, Note_off_c, 1, 58, 0
2, 28840, Note_on_c, 1, 59, 127
2, 28880, Note_off_c, 1, 59, 0
2, 28920, Note_on_c, 1, 61, 127
2, 29000, Note_off_c, 1, 61, 0
2, 29040, Note_on_c, 1, 63, 127
2, 29080, Note_off_c, 1, 63, 0
2, 29120, Note_on_c, 1, 61, 127
2, 29200, Note_off_c, 1, 61, 0
2, 29240, Note_on_c, 1, 65, 127
2, 29280, Note_off_c, 1, 65, 0
2, 29320, Note_on_c, 1, 56, 127
2, 29320, Note_on_c, 1, 59, 127
2, 29320, Note_on_c, 1, 65, 127
2, 29320, Note_on_c, 1, 71, 127
2, 29680, Note_off_c, 1, 56, 0
2, 29680, Note_off_c, 1, 59, 0
2, 29680, Note_off_c, 1, 65, 0
2, 29680, Note_off_c, 1, 71, 0
2, 29720, Note_on_c, 1, 85, 127
2, 29800, Note_off_c, 1, 85, 0
2, 29840, Note_on_c, 1, 82, 127
2, 29880, Note_off_c, 1, 82, 0
2, 29920, Note_on_c, 1, 80, 127
2, 29960, Note_off_c, 1, 80, 0
2, 30000, Note_on_c, 1, 80, 127
2, 30080, Note_off_c, 1, 80, 0
2, 30160, Note_on_c, 1, 61, 127
2, 30160, Note_on_c, 1, 66, 127
2, 30160, Note_on_c, 1, 70, 127
2, 30160, Note_on_c, 1, 85, 127
2, 30400, Note_off_c, 1, 85, 0
2, 30440, Note_on_c, 1, 94, 127
2, 30480, Note_on_c, 1, 85, 127
2, 30480, Note_off_c, 1, 94, 0
2, 30520, Note_off_c, 1, 85, 0
2, 30560, Note_on_c, 1, 94, 127
2, 30680, Note_off_c, 1, 94, 0
2, 30720, Note_on_c, 1, 94, 127
2, 30760, Note_on_c, 1, 90, 127
2, 30760, Note_off_c, 1, 94, 0
2, 30800, Note_off_c, 1, 90, 0
2, 30840, Note_on_c, 1, 94, 127
2, 30880, Note_off_c, 1, 61, 0
2, 30880, Note_off_c, 1, 66, 0
2, 30880, Note_off_c, 1, 70, 0
2, 30880, Note_off_c, 1, 94, 0
2, 30920, Note_on_c, 1, 61, 127
2, 30920, Note_on_c, 1, 65, 127
2, 30920, Note_on_c, 1, 68, 127
2, 31120, Note_on_c, 1, 34, 127
2, 31120, Note_on_c, 1, 46, 127
2, 31120, Note_off_c, 1, 61, 0
2, 31120, Note_off_c, 1, 65, 0
2, 31120, Note_on_c, 1, 66, 127
2, 31120, Note_off_c, 1, 68, 0
2, 31120, Note_on_c, 1, 75, 127
2, 31160, Note_off_c, 1, 34, 0
2, 31160, Note_off_c, 1, 46, 0
2, 31160, Note_on_c, 1, 61, 127
2, 31160, Note_on_c, 1, 65, 127
2, 31160, Note_off_c, 1, 66, 0
2, 31160, Note_on_c, 1, 68, 127
2, 31160, Note_off_c, 1, 75, 0
2, 31160, Note_on_c, 1, 80, 127
2, 31280, Note_off_c, 1, 80, 0
2, 31320, Note_off_c, 1, 65, 0
2, 31320, Note_on_c, 1, 66, 127
2, 31320, Note_off_c, 1, 68, 0
2, 31320, Note_on_c, 1, 70, 127
2, 31320, Note_on_c, 1, 82, 127
2, 31480, Note_off_c, 1, 82, 0
2, 31520, Note_on_c, 1, 80, 127
2, 31640, Note_off_c, 1, 66, 0
2, 31640, Note_off_c, 1, 70, 0
2, 31680, Note_off_c, 1, 61, 0
2, 31680, Note_off_c, 1, 80, 0
2, 31720, Note_on_c, 1, 61, 127
2, 31720, Note_on_c, 1, 66, 127
2, 31720, Note_on_c, 1, 70, 127
2, 31720, Note_on_c, 1, 85, 127
2, 32080, Note_off_c, 1, 61, 0
2, 32080, Note_off_c, 1, 66, 0
2, 32080, Note_off_c, 1, 70, 0
2, 32080, Note_off_c, 1, 85, 0
2, 32120, Note_on_c, 1, 61, 127
2, 32120, Note_on_c, 1, 66, 127
2, 32120, Note_on_c, 1, 70, 127
2, 32160, Note_on_c, 1, 85, 127
2, 32480, Note_off_c, 1, 85, 0
2, 32520, Note_on_c, 1, 56, 127
2, 32520, Note_on_c, 1, 59, 127
2, 32520, Note_off_c, 1, 61, 0
2, 32520, Note_on_c, 1, 63, 127
2, 32520, Note_off_c, 1, 66, 0
2, 32520, Note_off_c, 1, 70, 0
2, 32520, Note_on_c, 1, 75, 127
2, 32520, Note_on_c, 1, 80, 127
2, 32560, Note_off_c, 1, 56, 0
2, 32560, Note_off_c, 1, 59, 0
2, 32560, Note_off_c, 1, 63, 0
2, 32560, Note_on_c, 1, 65, 127
2, 32560, Note_off_c, 1, 75, 0
2, 32560, Note_on_c, 1, 77, 127
2, 32560, Note_on_c, 1, 79, 127
2, 32560, Note_off_c, 1, 80, 0
2, 32560, Note_on_c, 1, 86, 127
2, 32560, Note_on_c, 1, 89, 127
2, 32600, Note_on_c, 1, 51, 127
2, 32600, Note_on_c, 1, 58, 127
2, 32600, Note_off_c, 1, 65, 0
2, 32600, Note_off_c, 1, 77, 0
2, 32600, Note_off_c, 1, 79, 0
2, 32600, Note_off_c, 1, 86, 0
2, 32600, Note_off_c, 1, 89, 0
2, 32600, Note_on_c, 1, 91, 127
2, 32640, Note_on_c, 1, 31, 127
2, 32640, Note_on_c, 1, 38, 127
2, 32640, Note_on_c, 1, 43, 127
2, 32640, Note_off_c, 1, 51, 0
2, 32640, Note_off_c, 1, 58, 0
2, 32640, Note_on_c, 1, 70, 127
2, 32640, Note_on_c, 1, 74, 127
2, 32640, Note_off_c, 1, 91, 0
2, 32680, Note_off_c, 1, 31, 0
2, 32680, Note_off_c, 1, 38, 0
2, 32680, Note_off_c, 1, 43, 0
2, 32680, Note_on_c, 1, 66, 127
2, 32680, Note_off_c, 1, 74, 0
2, 32680, Note_on_c, 1, 89, 127
2, 32720, Note_on_c, 1, 59, 127
2, 32720, Note_on_c, 1, 61, 127
2, 32720, Note_off_c, 1, 66, 0
2, 32720, Note_on_c, 1, 68, 127
2, 32720, Note_off_c, 1, 70, 0
2, 32720, Note_off_c, 1, 89, 0
2, 32760, Note_off_c, 1, 59, 0
2, 32760, Note_off_c, 1, 61, 0
2, 32760, Note_off_c, 1, 68, 0
2, 32760, Note_on_c, 1, 74, 127
2, 32760, Note_on_c, 1, 77, 127
2, 32760, Note_on_c, 1, 81, 127
2, 32760, Note_on_c, 1, 86, 127
2, 32760, Note_on_c, 1, 89, 127
2, 32760, Note_on_c, 1, 93, 127
2, 32760, Note_on_c, 1, 98, 127
2, 32880, Note_on_c, 1, 46, 127
2, 32880, Note_on_c, 1, 60, 127
2, 32880, Note_on_c, 1, 69, 127
2, 32880, Note_on_c, 1, 72, 127
2, 32880, Note_off_c, 1, 74, 0
2, 32880, Note_off_c, 1, 77, 0
2, 32880, Note_off_c, 1, 81, 0
2, 32880, Note_off_c, 1, 86, 0
2, 32880, Note_off_c, 1, 89, 0
2, 32880, Note_off_c, 1, 93, 0
2, 32880, Note_off_c, 1, 98, 0
2, 32920, Note_off_c, 1, 46, 0
2, 32920, Note_off_c, 1, 60, 0
2, 32920, Note_off_c, 1, 69, 0
2, 32920, Note_off_c, 1, 72, 0
2, 32960, Note_on_c, 1, 94, 127
2, 33120, Note_off_c, 1, 94, 0
2, 33160, Note_on_c, 1, 94, 127
2, 33280, Note_off_c, 1, 94, 0
2, 33320, Note_on_c, 1, 94, 127
2, 33480, Note_off_c, 1, 94, 0
2, 33520, Note_on_c, 1, 94, 127
2, 33640, Note_off_c, 1, 94, 0
2, 33720, Note_on_c, 1, 94, 127
2, 33840, Note_off_c, 1, 94, 0
2, 33920, Note_on_c, 1, 94, 127
2, 34040, Note_off_c, 1, 94, 0
2, 34160, Note_on_c, 1, 94, 127
2, 34320, Note_off_c, 1, 94, 0
2, 36800, Note_on_c, 1, 45, 127
2, 36800, Note_on_c, 1, 49, 127
2, 37160, Note_off_c, 1, 49, 0
2, 37200, Note_on_c, 1, 52, 127
2, 37360, Note_off_c, 1, 52, 0
2, 37520, Note_off_c, 1, 45, 0
2, 37560, Note_on_c, 1, 47, 127
2, 37560, Note_on_c, 1, 51, 127
2, 37560, Note_on_c, 1, 54, 127
2, 37560, Note_on_c, 1, 59, 127
2, 37960, Note_off_c, 1, 47, 0
2, 37960, Note_off_c, 1, 51, 0
2, 37960, Note_off_c, 1, 54, 0
2, 37960, Note_off_c, 1, 59, 0
2, 38000, Note_on_c, 1, 47, 127
2, 38000, Note_on_c, 1, 51, 127
2, 38000, Note_on_c, 1, 54, 127
2, 38000, Note_on_c, 1, 59, 127
2, 38040, Note_off_c, 1, 54, 0
2, 38080, Note_on_c, 1, 54, 127
2, 38320, Note_off_c, 1, 51, 0
2, 38320, Note_off_c, 1, 54, 0
2, 38320, Note_off_c, 1, 59, 0
2, 38680, Note_off_c, 1, 47, 0
2, 38720, Note_on_c, 1, 47, 127
2, 38720, Note_on_c, 1, 63, 127
2, 38720, Note_on_c, 1, 66, 127
2, 39080, Note_off_c, 1, 47, 0
2, 39080, Note_on_c, 1, 59, 127
2, 39080, Note_off_c, 1, 66, 0
2, 39120, Note_on_c, 1, 54, 127
2, 39400, Note_off_c, 1, 63, 0
2, 39440, Note_off_c, 1, 54, 0
2, 39440, Note_off_c, 1, 59, 0
2, 39480, Note_on_c, 1, 47, 127
2, 39480, Note_on_c, 1, 54, 127
2, 39480, Note_on_c, 1, 63, 127
2, 39840, Note_off_c, 1, 47, 0
2, 39840, Note_off_c, 1, 54, 0
2, 39840, Note_off_c, 1, 63, 0
2, 39880, Note_on_c, 1, 40, 127
2, 40000, Note_off_c, 1, 40, 0
2, 40040, Note_on_c, 1, 40, 127
2, 40320, Note_on_c, 1, 47, 127
2, 40320, Note_on_c, 1, 73, 127
2, 40560, Note_off_c, 1, 73, 0
2, 40600, Note_on_c, 1, 73, 127
2, 40720, Note_off_c, 1, 73, 0
2, 40880, Note_on_c, 1, 71, 127
2, 40920, Note_off_c, 1, 71, 0
2, 40960, Note_on_c, 1, 68, 127
2, 40960, Note_on_c, 1, 71, 127
2, 41040, Note_off_c, 1, 68, 0
2, 41040, Note_off_c, 1, 71, 0
2, 41360, Note_on_c, 1, 55, 127
2, 41760, Note_off_c, 1, 55, 0
2, 42160, Note_off_c, 1, 40, 0
2, 42160, Note_off_c, 1, 47, 0
2, 42200, Note_on_c, 1, 40, 127
2, 42200, Note_on_c, 1, 47, 127
2, 42480, Note_off_c, 1, 40, 0
2, 42480, Note_off_c, 1, 47, 0
2, 42520, Note_on_c, 1, 40, 127
2, 42520, Note_on_c, 1, 47, 127
2, 43240, Note_off_c, 1, 40, 0
2, 43240, Note_off_c, 1, 47, 0
2, 43280, Note_on_c, 1, 40, 127
2, 43280, Note_on_c, 1, 47, 127
2, 44000, Note_off_c, 1, 40, 0
2, 44000, Note_off_c, 1, 47, 0
2, 44080, Note_on_c, 1, 40, 127
2, 44080, Note_on_c, 1, 47, 127
2, 44400, Note_off_c, 1, 40, 0
2, 44400, Note_off_c, 1, 47, 0
2, 44440, Note_on_c, 1, 73, 127
2, 44440, Note_on_c, 1, 81, 127
2, 44640, Note_off_c, 1, 73, 0
2, 44640, Note_off_c, 1, 81, 0
2, 44840, Note_on_c, 1, 76, 127
2, 44840, Note_on_c, 1, 81, 127
2, 44960, Note_off_c, 1, 81, 0
2, 45240, Note_on_c, 1, 80, 127
2, 45600, Note_off_c, 1, 76, 0
2, 45600, Note_off_c, 1, 80, 0
2, 45640, Note_on_c, 1, 47, 127
2, 45640, Note_on_c, 1, 74, 127
2, 45640, Note_on_c, 1, 77, 127
2, 45800, Note_off_c, 1, 74, 0
2, 45800, Note_off_c, 1, 77, 0
2, 45960, Note_off_c, 1, 47, 0
2, 46040, Note_on_c, 1, 52, 127
2, 46040, Note_on_c, 1, 69, 127
2, 46040, Note_on_c, 1, 73, 127
2, 46200, Note_off_c, 1, 73, 0
2, 46320, Note_on_c, 1, 61, 127
2, 46400, Note_off_c, 1, 52, 0
2, 46400, Note_off_c, 1, 61, 0
2, 46400, Note_off_c, 1, 69, 0
2, 46440, Note_on_c, 1, 45, 127
2, 46840, Note_on_c, 1, 64, 127
2, 46840, Note_on_c, 1, 69, 127
2, 46840, Note_on_c, 1, 73, 127
2, 47560, Note_off_c, 1, 45, 0
2, 47600, Note_off_c, 1, 64, 0
2, 47600, Note_off_c, 1, 69, 0
2, 47600, Note_off_c, 1, 73, 0
2, 47680, Note_on_c, 1, 47, 127
2, 47680, Note_on_c, 1, 57, 127
2, 47680, Note_on_c, 1, 62, 127
2, 47680, Note_on_c, 1, 68, 127
2, 47680, Note_on_c, 1, 71, 127
2, 47760, Note_off_c, 1, 47, 0
2, 47760, Note_off_c, 1, 57, 0
2, 47760, Note_off_c, 1, 62, 0
2, 47760, Note_off_c, 1, 68, 0
2, 47760, Note_off_c, 1, 71, 0
2, 48360, Note_on_c, 1, 56, 127
2, 48360, Note_on_c, 1, 59, 127
2, 48360, Note_on_c, 1, 64, 127
2, 48360, Note_on_c, 1, 71, 127
2, 48360, Note_on_c, 1, 74, 127
2, 48520, Note_off_c, 1, 56, 0
2, 48520, Note_off_c, 1, 59, 0
2, 48520, Note_off_c, 1, 71, 0
2, 48520, Note_off_c, 1, 74, 0
2, 48560, Note_on_c, 1, 57, 127
2, 48560, Note_on_c, 1, 69, 127
2, 48560, Note_on_c, 1, 72, 127
2, 48920, Note_off_c, 1, 57, 0
2, 48920, Note_off_c, 1, 64, 0
2, 48920, Note_off_c, 1, 69, 0
2, 48920, Note_off_c, 1, 72, 0
2, 48960, Note_on_c, 1, 40, 127
2, 48960, Note_on_c, 1, 47, 127
2, 48960, Note_on_c, 1, 56, 127
2, 48960, Note_on_c, 1, 64, 127
2, 49320, Note_off_c, 1, 40, 0
2, 49320, Note_off_c, 1, 47, 0
2, 49320, Note_off_c, 1, 56, 0
2, 49320, Note_off_c, 1, 64, 0
2, 51120, Note_on_c, 1, 41, 127
2, 51160, Note_off_c, 1, 41, 0
2, 51200, Note_on_c, 1, 58, 127
2, 51200, Note_on_c, 1, 65, 127
2, 51520, Note_off_c, 1, 58, 0
2, 51520, Note_off_c, 1, 65, 0
2, 51560, Note_on_c, 1, 58, 127
2, 51560, Note_on_c, 1, 65, 127
2, 51960, Note_off_c, 1, 58, 0
2, 51960, Note_off_c, 1, 65, 0
2, 52040, Note_on_c, 1, 58, 127
2, 52040, Note_on_c, 1, 65, 127
2, 52320, Note_off_c, 1, 65, 0
2, 52360, Note_off_c, 1, 58, 0
2, 52440, Note_on_c, 1, 51, 127
2, 52440, Note_on_c, 1, 67, 127
2, 52760, Note_off_c, 1, 51, 0
2, 52760, Note_off_c, 1, 67, 0
2, 52840, Note_on_c, 1, 53, 127
2, 52840, Note_on_c, 1, 69, 127
2, 53200, Note_off_c, 1, 53, 0
2, 53200, Note_off_c, 1, 69, 0
2, 53240, Note_on_c, 1, 51, 127
2, 53240, Note_on_c, 1, 55, 127
2, 53240, Note_on_c, 1, 58, 127
2, 53240, Note_on_c, 1, 60, 127
2, 53520, Note_off_c, 1, 51, 0
2, 53520, Note_off_c, 1, 55, 0
2, 53520, Note_off_c, 1, 58, 0
2, 53520, Note_off_c, 1, 60, 0
2, 53560, Note_on_c, 1, 43, 127
2, 53600, Note_off_c, 1, 43, 0
2, 53640, Note_on_c, 1, 53, 127
2, 53640, Note_on_c, 1, 58, 127
2, 53640, Note_on_c, 1, 62, 127
2, 53640, Note_on_c, 1, 68, 127
2, 53800, Note_off_c, 1, 53, 0
2, 53800, Note_off_c, 1, 58, 0
2, 53800, Note_off_c, 1, 62, 0
2, 53800, Note_off_c, 1, 68, 0
2, 53840, Note_on_c, 1, 53, 127
2, 53840, Note_on_c, 1, 58, 127
2, 53840, Note_on_c, 1, 62, 127
2, 53840, Note_on_c, 1, 68, 127
2, 54040, Note_off_c, 1, 58, 0
2, 54040, Note_off_c, 1, 62, 0
2, 54040, Note_off_c, 1, 68, 0
2, 54800, Note_off_c, 1, 53, 0
2, 54840, Note_on_c, 1, 53, 127
2, 55200, Note_off_c, 1, 53, 0
2, 55240, Note_on_c, 1, 57, 127
2, 55640, Note_off_c, 1, 57, 0
2, 55680, Note_on_c, 1, 58, 127
2, 55800, Note_off_c, 1, 58, 0
2, 56120, Note_on_c, 1, 58, 127
2, 56480, Note_off_c, 1, 58, 0
2, 56520, Note_on_c, 1, 57, 127
2, 56840, Note_off_c, 1, 57, 0
2, 56880, Note_on_c, 1, 53, 127
2, 57240, Note_off_c, 1, 53, 0
2, 57280, Note_on_c, 1, 58, 127
2, 57600, Note_off_c, 1, 58, 0
2, 57680, Note_on_c, 1, 55, 127
2, 58040, Note_off_c, 1, 55, 0
2, 58080, Note_on_c, 1, 55, 127
2, 58280, Note_off_c, 1, 55, 0
2, 58320, Note_on_c, 1, 53, 127
2, 58480, Note_off_c, 1, 53, 0
2, 58520, Note_on_c, 1, 51, 127
2, 58880, Note_off_c, 1, 51, 0
2, 58920, Note_on_c, 1, 58, 127
2, 59280, Note_off_c, 1, 58, 0
2, 59320, Note_on_c, 1, 53, 127
2, 59680, Note_off_c, 1, 53, 0
2, 59720, Note_on_c, 1, 58, 127
2, 60080, Note_off_c, 1, 58, 0
2, 60160, Note_on_c, 1, 55, 127
2, 60520, Note_off_c, 1, 55, 0
2, 60560, Note_on_c, 1, 53, 127
2, 60920, Note_off_c, 1, 53, 0
2, 60960, Note_on_c, 1, 50, 127
2, 61320, Note_off_c, 1, 50, 0
2, 61360, Note_on_c, 1, 46, 127
2, 61680, Note_off_c, 1, 46, 0
2, 61760, Note_on_c, 1, 46, 127
2, 62120, Note_off_c, 1, 46, 0
2, 62200, Note_on_c, 1, 46, 127
2, 62560, Note_off_c, 1, 46, 0
2, 62600, Note_on_c, 1, 46, 127
2, 62960, Note_off_c, 1, 46, 0
2, 63000, Note_on_c, 1, 50, 127
2, 63360, Note_off_c, 1, 50, 0
2, 63400, Note_on_c, 1, 46, 127
2, 63760, Note_off_c, 1, 46, 0
2, 63800, Note_on_c, 1, 48, 127
2, 64160, Note_off_c, 1, 48, 0
2, 64240, Note_on_c, 1, 38, 127
2, 64560, Note_off_c, 1, 38, 0
2, 64600, Note_on_c, 1, 41, 127
2, 64600, Note_on_c, 1, 48, 127
2, 64960, Note_off_c, 1, 48, 0
2, 65000, Note_on_c, 1, 48, 127
2, 65360, Note_off_c, 1, 48, 0
2, 65400, Note_on_c, 1, 48, 127
2, 66160, Note_off_c, 1, 41, 0
2, 66160, Note_off_c, 1, 48, 0
2, 66240, Note_on_c, 1, 34, 127
2, 66600, Note_off_c, 1, 34, 0
2, 66640, Note_on_c, 1, 39, 127
2, 67360, Note_off_c, 1, 39, 0
2, 67400, Note_on_c, 1, 39, 127
2, 67760, Note_off_c, 1, 39, 0
2, 67800, Note_on_c, 1, 46, 127
2, 68160, Note_off_c, 1, 46, 0
2, 68240, Note_on_c, 1, 39, 127
2, 68560, Note_off_c, 1, 39, 0
2, 68600, Note_on_c, 1, 39, 127
2, 68960, Note_off_c, 1, 39, 0
2, 69000, Note_on_c, 1, 39, 127
2, 69000, Note_on_c, 1, 70, 127
2, 69360, Note_off_c, 1, 70, 0
2, 69400, Note_on_c, 1, 70, 127
2, 69720, Note_off_c, 1, 39, 0
2, 69760, Note_on_c, 1, 46, 127
2, 70120, Note_off_c, 1, 46, 0
2, 70160, Note_off_c, 1, 70, 0
2, 70240, Note_on_c, 1, 51, 127
2, 70240, Note_on_c, 1, 75, 127
2, 70600, Note_off_c, 1, 51, 0
2, 70640, Note_on_c, 1, 46, 127
2, 71000, Note_off_c, 1, 46, 0
2, 71040, Note_on_c, 1, 39, 127
2, 71400, Note_off_c, 1, 39, 0
2, 71400, Note_off_c, 1, 75, 0
2, 71440, Note_on_c, 1, 39, 127
2, 71800, Note_off_c, 1, 39, 0
2, 71840, Note_on_c, 1, 39, 127
2, 71840, Note_on_c, 1, 75, 127
2, 72200, Note_off_c, 1, 39, 0
2, 72200, Note_off_c, 1, 75, 0
2, 72280, Note_on_c, 1, 39, 127
2, 72280, Note_on_c, 1, 70, 127
2, 72600, Note_off_c, 1, 39, 0
2, 72600, Note_off_c, 1, 70, 0
2, 72640, Note_on_c, 1, 39, 127
2, 72640, Note_on_c, 1, 68, 127
2, 73000, Note_off_c, 1, 39, 0
2, 73000, Note_off_c, 1, 68, 0
2, 73040, Note_on_c, 1, 39, 127
2, 73040, Note_on_c, 1, 79, 127
2, 73400, Note_off_c, 1, 39, 0
2, 73400, Note_off_c, 1, 79, 0
2, 73440, Note_on_c, 1, 46, 127
2, 73440, Note_on_c, 1, 78, 127
2, 73760, Note_off_c, 1, 46, 0
2, 73800, Note_on_c, 1, 51, 127
2, 74120, Note_off_c, 1, 51, 0
2, 74120, Note_off_c, 1, 78, 0
2, 74160, Note_on_c, 1, 51, 127
2, 74160, Note_on_c, 1, 78, 127
2, 74200, Note_off_c, 1, 51, 0
2, 74240, Note_on_c, 1, 58, 127
2, 74600, Note_off_c, 1, 58, 0
2, 74640, Note_on_c, 1, 51, 127
2, 74960, Note_off_c, 1, 51, 0
2, 75000, Note_on_c, 1, 58, 127
2, 75360, Note_off_c, 1, 58, 0
2, 75400, Note_on_c, 1, 51, 127
2, 75760, Note_off_c, 1, 51, 0
2, 75800, Note_on_c, 1, 59, 127
2, 76120, Note_off_c, 1, 59, 0
2, 76120, Note_off_c, 1, 78, 0
2, 76160, Note_on_c, 1, 59, 127
2, 76160, Note_on_c, 1, 78, 127
2, 76200, Note_off_c, 1, 59, 0
2, 76240, Note_on_c, 1, 47, 127
2, 76560, Note_off_c, 1, 47, 0
2, 76600, Note_on_c, 1, 51, 127
2, 76960, Note_off_c, 1, 51, 0
2, 76960, Note_off_c, 1, 78, 0
2, 77000, Note_on_c, 1, 54, 127
2, 77000, Note_on_c, 1, 71, 127
2, 77000, Note_on_c, 1, 77, 127
2, 77360, Note_off_c, 1, 77, 0
2, 77400, Note_on_c, 1, 66, 127
2, 77400, Note_on_c, 1, 75, 127
2, 77400, Note_on_c, 1, 78, 127
2, 77760, Note_off_c, 1, 54, 0
2, 77760, Note_off_c, 1, 66, 0
2, 77760, Note_off_c, 1, 71, 0
2, 77760, Note_off_c, 1, 75, 0
2, 77760, Note_off_c, 1, 78, 0
2, 77800, Note_on_c, 1, 59, 127
2, 77800, Note_on_c, 1, 71, 127
2, 77800, Note_on_c, 1, 75, 127
2, 77800, Note_on_c, 1, 80, 127
2, 78160, Note_off_c, 1, 59, 0
2, 78160, Note_off_c, 1, 71, 0
2, 78160, Note_off_c, 1, 75, 0
2, 78160, Note_off_c, 1, 80, 0
2, 78200, Note_on_c, 1, 59, 127
2, 78200, Note_on_c, 1, 71, 127
2, 78200, Note_on_c, 1, 75, 127
2, 78200, Note_on_c, 1, 80, 127
2, 79400, Note_off_c, 1, 80, 0
2, 79440, Note_on_c, 1, 78, 127
2, 79800, Note_off_c, 1, 59, 0
2, 79840, Note_on_c, 1, 66, 127
2, 80200, Note_off_c, 1, 66, 0
2, 80200, Note_off_c, 1, 75, 0
2, 80240, Note_off_c, 1, 71, 0
2, 80240, Note_off_c, 1, 78, 0
2, 80280, Note_on_c, 1, 66, 127
2, 80280, Note_on_c, 1, 71, 127
2, 80280, Note_on_c, 1, 75, 127
2, 80280, Note_on_c, 1, 78, 127
2, 80600, Note_off_c, 1, 66, 0
2, 80600, Note_off_c, 1, 75, 0
2, 80640, Note_on_c, 1, 66, 127
2, 80640, Note_on_c, 1, 75, 127
2, 81000, Note_off_c, 1, 66, 0
2, 81040, Note_on_c, 1, 54, 127
2, 81400, Note_off_c, 1, 54, 0
2, 82160, Note_off_c, 1, 71, 0
2, 82160, Note_off_c, 1, 75, 0
2, 82160, Note_off_c, 1, 78, 0
2, 86160, Note_on_c, 1, 40, 127
2, 86520, Note_off_c, 1, 40, 0
2, 86600, Note_on_c, 1, 35, 127
2, 86600, Note_on_c, 1, 51, 127
2, 86600, Note_on_c, 1, 54, 127
2, 86600, Note_on_c, 1, 59, 127
2, 86600, Note_on_c, 1, 63, 127
2, 86640, Note_off_c, 1, 35, 0
2, 86640, Note_on_c, 1, 45, 127
2, 86640, Note_off_c, 1, 51, 0
2, 86640, Note_off_c, 1, 54, 0
2, 86640, Note_on_c, 1, 55, 127
2, 86640, Note_off_c, 1, 59, 0
2, 86640, Note_on_c, 1, 60, 127
2, 86640, Note_off_c, 1, 63, 0
2, 86640, Note_on_c, 1, 69, 127
2, 86680, Note_off_c, 1, 45, 0
2, 86680, Note_off_c, 1, 55, 0
2, 86680, Note_off_c, 1, 60, 0
2, 86680, Note_off_c, 1, 69, 0
2, 87000, Note_on_c, 1, 67, 127
2, 87000, Note_on_c, 1, 72, 127
2, 87000, Note_on_c, 1, 76, 127
2, 87000, Note_on_c, 1, 88, 127
2, 87000, Note_on_c, 1, 96, 127
2, 87000, Note_on_c, 1, 100, 127
2, 87040, Note_on_c, 1, 49, 127
2, 87040, Note_on_c, 1, 61, 127
2, 87040, Note_off_c, 1, 67, 0
2, 87040, Note_off_c, 1, 72, 0
2, 87040, Note_on_c, 1, 82, 127
2, 87040, Note_on_c, 1, 85, 127
2, 87040, Note_off_c, 1, 88, 0
2, 87040, Note_off_c, 1, 96, 0
2, 87040, Note_off_c, 1, 100, 0
2, 87080, Note_on_c, 1, 35, 127
2, 87080, Note_on_c, 1, 42, 127
2, 87080, Note_off_c, 1, 49, 0
2, 87080, Note_off_c, 1, 61, 0
2, 87080, Note_on_c, 1, 64, 127
2, 87080, Note_on_c, 1, 67, 127
2, 87080, Note_on_c, 1, 70, 127
2, 87080, Note_on_c, 1, 73, 127
2, 87080, Note_off_c, 1, 76, 0
2, 87080, Note_off_c, 1, 82, 0
2, 87080, Note_off_c, 1, 85, 0
2, 87120, Note_off_c, 1, 35, 0
2, 87120, Note_on_c, 1, 40, 127
2, 87120, Note_off_c, 1, 42, 0
2, 87120, Note_on_c, 1, 50, 127
2, 87120, Note_on_c, 1, 52, 127
2, 87120, Note_off_c, 1, 64, 0
2, 87120, Note_off_c, 1, 67, 0
2, 87120, Note_off_c, 1, 70, 0
2, 87160, Note_on_c, 1, 34, 127
2, 87160, Note_off_c, 1, 40, 0
2, 87160, Note_on_c, 1, 46, 127
2, 87160, Note_off_c, 1, 50, 0
2, 87160, Note_on_c, 1, 51, 127
2, 87160, Note_off_c, 1, 52, 0
2, 87160, Note_on_c, 1, 63, 127
2, 87160, Note_off_c, 1, 73, 0
2, 87200, Note_off_c, 1, 34, 0
2, 87200, Note_on_c, 1, 41, 127
2, 87200, Note_off_c, 1, 46, 0
2, 87200, Note_off_c, 1, 51, 0
2, 87200, Note_off_c, 1, 63, 0
2, 87200, Note_on_c, 1, 70, 127
2, 87200, Note_on_c, 1, 76, 127
2, 87200, Note_on_c, 1, 79, 127
2, 87200, Note_on_c, 1, 84, 127
2, 87240, Note_off_c, 1, 41, 0
2, 87240, Note_on_c, 1, 46, 127
2, 87240, Note_on_c, 1, 56, 127
2, 87240, Note_on_c, 1, 58, 127
2, 87240, Note_on_c, 1, 64, 127
2, 87240, Note_on_c, 1, 68, 127
2, 87240, Note_off_c, 1, 70, 0
2, 87240, Note_on_c, 1, 73, 127
2, 87240, Note_off_c, 1, 76, 0
2, 87240, Note_off_c, 1, 79, 0
2, 87240, Note_off_c, 1, 84, 0
2, 87280, Note_on_c, 1, 43, 127
2, 87280, Note_off_c, 1, 46, 0
2, 87280, Note_on_c, 1, 48, 127
2, 87280, Note_off_c, 1, 56, 0
2, 87280, Note_off_c, 1, 58, 0
2, 87280, Note_off_c, 1, 64, 0
2, 87280, Note_off_c, 1, 68, 0
2, 87280, Note_on_c, 1, 70, 127
2, 87280, Note_off_c, 1, 73, 0
2, 87280, Note_on_c, 1, 82, 127
2, 87320, Note_on_c, 1, 39, 127
2, 87320, Note_on_c, 1, 42, 127
2, 87320, Note_off_c, 1, 43, 0
2, 87320, Note_off_c, 1, 48, 0
2, 87320, Note_on_c, 1, 66, 127
2, 87320, Note_off_c, 1, 82, 0
2, 87360, Note_on_c, 1, 38, 127
2, 87360, Note_off_c, 1, 39, 0
2, 87360, Note_off_c, 1, 42, 0
2, 87360, Note_on_c, 1, 47, 127
2, 87360, Note_on_c, 1, 58, 127
2, 87360, Note_on_c, 1, 65, 127
2, 87360, Note_off_c, 1, 66, 0
2, 87360, Note_on_c, 1, 68, 127
2, 87400, Note_off_c, 1, 38, 0
2, 87400, Note_off_c, 1, 47, 0
2, 87400, Note_off_c, 1, 58, 0
2, 87400, Note_on_c, 1, 60, 127
2, 87400, Note_on_c, 1, 62, 127
2, 87400, Note_off_c, 1, 65, 0
2, 87400, Note_off_c, 1, 68, 0
2, 87400, Note_off_c, 1, 70, 0
2, 87400, Note_on_c, 1, 88, 127
2, 87400, Note_on_c, 1, 96, 127
2, 87440, Note_on_c, 1, 47, 127
2, 87440, Note_on_c, 1, 54, 127
2, 87440, Note_off_c, 1, 60, 0
2, 87440, Note_on_c, 1, 61, 127
2, 87440, Note_off_c, 1, 62, 0
2, 87440, Note_off_c, 1, 88, 0
2, 87440, Note_on_c, 1, 95, 127
2, 87440, Note_off_c, 1, 96, 0
2, 87480, Note_on_c, 1, 36, 127
2, 87480, Note_on_c, 1, 43, 127
2, 87480, Note_off_c, 1, 47, 0
2, 87480, Note_off_c, 1, 54, 0
2, 87480, Note_off_c, 1, 61, 0
2, 87480, Note_on_c, 1, 76, 127
2, 87480, Note_on_c, 1, 79, 127
2, 87480, Note_on_c, 1, 84, 127
2, 87480, Note_off_c, 1, 95, 0
2, 87520, Note_off_c, 1, 36, 0
2, 87520, Note_off_c, 1, 43, 0
2, 87520, Note_on_c, 1, 69, 127
2, 87520, Note_off_c, 1, 76, 0
2, 87520, Note_off_c, 1, 79, 0
2, 87520, Note_on_c, 1, 81, 127
2, 87520, Note_off_c, 1, 84, 0
2, 87520, Note_on_c, 1, 88, 127
2, 87520, Note_on_c, 1, 93, 127
2, 87560, Note_on_c, 1, 38, 127
2, 87560, Note_on_c, 1, 44, 127
2, 87560, Note_on_c, 1, 48, 127
2, 87560, Note_on_c, 1, 60, 127
2, 87560, Note_on_c, 1, 66, 127
2, 87560, Note_on_c, 1, 68, 127
2, 87560, Note_off_c, 1, 69, 0
2, 87560, Note_off_c, 1, 81, 0
2, 87560, Note_off_c, 1, 88, 0
2, 87560, Note_off_c, 1, 93, 0
2, 87600, Note_off_c, 1, 38, 0
2, 87600, Note_on_c, 1, 40, 127
2, 87600, Note_off_c, 1, 44, 0
2, 87600, Note_on_c, 1, 47, 127
2, 87600, Note_off_c, 1, 48, 0
2, 87600, Note_on_c, 1, 56, 127
2, 87600, Note_off_c, 1, 60, 0
2, 87600, Note_off_c, 1, 66, 0
2, 87600, Note_off_c, 1, 68, 0
2, 87600, Note_on_c, 1, 76, 127
2, 87600, Note_on_c, 1, 80, 127
2, 87600, Note_on_c, 1, 83, 127
2, 87720, Note_off_c, 1, 40, 0
2, 87720, Note_off_c, 1, 47, 0
2, 87720, Note_off_c, 1, 56, 0
2, 87720, Note_on_c, 1, 64, 127
2, 87720, Note_on_c, 1, 67, 127
2, 87720, Note_on_c, 1, 69, 127
2, 87720, Note_on_c, 1, 74, 127
2, 87720, Note_off_c, 1, 76, 0
2, 87720, Note_off_c, 1, 80, 0
2, 87720, Note_off_c, 1, 83, 0
2, 87760, Note_off_c, 1, 64, 0
2, 87760, Note_off_c, 1, 67, 0
2, 87760, Note_off_c, 1, 69, 0
2, 87760, Note_off_c, 1, 74, 0
2, 90280, Note_on_c, 1, 60, 127
2, 90280, Note_on_c, 1, 63, 127
2, 90280, Note_on_c, 1, 66, 127
2, 90280, Note_on_c, 1, 74, 127
2, 90280, Note_on_c, 1, 78, 127
2, 90320, Note_on_c, 1, 62, 127
2, 90320, Note_off_c, 1, 63, 0
2, 90320, Note_off_c, 1, 66, 0
2, 90320, Note_on_c, 1, 67, 127
2, 90320, Note_off_c, 1, 74, 0
2, 90320, Note_off_c, 1, 78, 0
2, 90360, Note_off_c, 1, 60, 0
2, 90360, Note_off_c, 1, 62, 0
2, 90360, Note_off_c, 1, 67, 0
2, 90400, Note_on_c, 1, 52, 127
2, 90400, Note_on_c, 1, 55, 127
2, 90400, Note_on_c, 1, 62, 127
2, 90400, Note_on_c, 1, 64, 127
2, 90440, Note_off_c, 1, 52, 0
2, 90440, Note_off_c, 1, 64, 0
2, 90440, Note_on_c, 1, 72, 127
2, 90440, Note_on_c, 1, 81, 127
2, 90480, Note_off_c, 1, 55, 0
2, 90480, Note_off_c, 1, 62, 0
2, 90480, Note_off_c, 1, 72, 0
2, 90480, Note_off_c, 1, 81, 0
2, 90520, Note_on_c, 1, 59, 127
2, 90520, Note_on_c, 1, 65, 127
2, 90520, Note_on_c, 1, 69, 127
2, 90520, Note_on_c, 1, 74, 127
2, 90840, Note_off_c, 1, 59, 0
2, 90840, Note_off_c, 1, 65, 0
2, 90840, Note_off_c, 1, 69, 0
2, 90840, Note_off_c, 1, 74, 0
2, 90920, Note_on_c, 1, 62, 127
2, 90920, Note_on_c, 1, 65, 127
2, 90920, Note_on_c, 1, 69, 127
2, 90920, Note_on_c, 1, 77, 127
2, 91240, Note_off_c, 1, 62, 0
2, 91240, Note_off_c, 1, 65, 0
2, 91240, Note_off_c, 1, 69, 0
2, 91280, Note_off_c, 1, 77, 0
2, 91320, Note_on_c, 1, 43, 127
2, 91320, Note_on_c, 1, 69, 127
2, 91320, Note_on_c, 1, 71, 127
2, 91320, Note_on_c, 1, 77, 127
2, 91480, Note_off_c, 1, 43, 0
2, 91480, Note_on_c, 1, 50, 127
2, 91480, Note_on_c, 1, 55, 127
2, 91480, Note_on_c, 1, 67, 127
2, 91480, Note_off_c, 1, 69, 0
2, 91520, Note_off_c, 1, 50, 0
2, 91520, Note_off_c, 1, 55, 0
2, 91520, Note_on_c, 1, 62, 127
2, 91520, Note_on_c, 1, 65, 127
2, 91520, Note_off_c, 1, 67, 0
2, 91520, Note_on_c, 1, 69, 127
2, 91520, Note_off_c, 1, 71, 0
2, 91520, Note_on_c, 1, 74, 127
2, 91520, Note_off_c, 1, 77, 0
2, 91520, Note_on_c, 1, 83, 127
2, 91560, Note_off_c, 1, 62, 0
2, 91560, Note_off_c, 1, 65, 0
2, 91560, Note_off_c, 1, 69, 0
2, 91560, Note_off_c, 1, 74, 0
2, 91560, Note_off_c, 1, 83, 0
2, 91680, Note_on_c, 1, 41, 127
2, 91680, Note_on_c, 1, 52, 127
2, 91680, Note_on_c, 1, 60, 127
2, 91680, Note_on_c, 1, 67, 127
2, 91680, Note_on_c, 1, 70, 127
2, 91960, Note_off_c, 1, 41, 0
2, 91960, Note_off_c, 1, 52, 0
2, 91960, Note_off_c, 1, 60, 0
2, 91960, Note_off_c, 1, 67, 0
2, 91960, Note_off_c, 1, 70, 0
2, 92080, Note_on_c, 1, 41, 127
2, 92080, Note_on_c, 1, 52, 127
2, 92080, Note_on_c, 1, 60, 127
2, 92080, Note_on_c, 1, 67, 127
2, 92080, Note_on_c, 1, 70, 127
2, 92360, Note_off_c, 1, 41, 0
2, 92360, Note_off_c, 1, 52, 0
2, 92360, Note_off_c, 1, 60, 0
2, 92360, Note_off_c, 1, 67, 0
2, 92360, Note_off_c, 1, 70, 0
2, 92520, Note_on_c, 1, 52, 127
2, 92520, Note_on_c, 1, 60, 127
2, 92520, Note_on_c, 1, 67, 127
2, 92520, Note_on_c, 1, 72, 127
2, 92800, Note_off_c, 1, 52, 0
2, 92800, Note_off_c, 1, 60, 0
2, 92800, Note_off_c, 1, 67, 0
2, 92800, Note_off_c, 1, 72, 0
2, 92880, Note_on_c, 1, 47, 127
2, 92880, Note_on_c, 1, 59, 127
2, 92880, Note_on_c, 1, 69, 127
2, 92880, Note_on_c, 1, 71, 127
2, 92880, Note_on_c, 1, 81, 127
2, 93160, Note_off_c, 1, 47, 0
2, 93160, Note_off_c, 1, 59, 0
2, 93160, Note_off_c, 1, 69, 0
2, 93160, Note_off_c, 1, 71, 0
2, 93160, Note_off_c, 1, 81, 0
2, 93280, Note_on_c, 1, 39, 127
2, 93280, Note_on_c, 1, 51, 127
2, 93280, Note_on_c, 1, 66, 127
2, 93280, Note_on_c, 1, 73, 127
2, 93280, Note_on_c, 1, 77, 127
2, 94000, Note_off_c, 1, 39, 0
2, 94000, Note_off_c, 1, 51, 0
2, 94000, Note_off_c, 1, 66, 0
2, 94000, Note_off_c, 1, 73, 0
2, 94000, Note_off_c, 1, 77, 0
2, 94080, Note_on_c, 1, 35, 127
2, 94080, Note_on_c, 1, 47, 127
2, 94080, Note_on_c, 1, 54, 127
2, 94080, Note_on_c, 1, 59, 127
2, 94080, Note_on_c, 1, 63, 127
2, 94480, Note_off_c, 1, 35, 0
2, 94480, Note_off_c, 1, 47, 0
2, 94480, Note_off_c, 1, 54, 0
2, 94480, Note_off_c, 1, 59, 0
2, 94480, Note_off_c, 1, 63, 0
2, 94520, Note_on_c, 1, 35, 127
2, 94520, Note_on_c, 1, 47, 127
2, 94520, Note_on_c, 1, 54, 127
2, 94520, Note_on_c, 1, 59, 127
2, 94520, Note_on_c, 1, 63, 127
2, 94840, Note_off_c, 1, 35, 0
2, 94840, Note_off_c, 1, 47, 0
2, 94840, Note_off_c, 1, 54, 0
2, 94840, Note_off_c, 1, 59, 0
2, 94840, Note_off_c, 1, 63, 0
2, 96920, Note_on_c, 1, 41, 127
2, 96960, Note_on_c, 1, 57, 127
2, 97000, Note_off_c, 1, 41, 0
2, 97000, Note_off_c, 1, 57, 0
2, 97040, Note_on_c, 1, 41, 127
2, 97040, Note_on_c, 1, 48, 127
2, 97040, Note_on_c, 1, 57, 127
2, 98280, Note_off_c, 1, 41, 0
2, 98280, Note_off_c, 1, 48, 0
2, 98280, Note_off_c, 1, 57, 0
2, 100240, Note_on_c, 1, 56, 127
2, 100240, Note_on_c, 1, 68, 127
2, 101120, Note_off_c, 1, 56, 0
2, 101120, Note_off_c, 1, 68, 0
2, 101520, Note_on_c, 1, 44, 127
2, 101520, Note_on_c, 1, 51, 127
2, 101520, Note_on_c, 1, 60, 127
2, 101520, Note_on_c, 1, 63, 127
2, 102240, Note_off_c, 1, 44, 0
2, 102240, Note_off_c, 1, 51, 0
2, 102240, Note_off_c, 1, 60, 0
2, 102240, Note_off_c, 1, 63, 0
2, 102280, Note_on_c, 1, 44, 127
2, 102280, Note_on_c, 1, 51, 127
2, 102280, Note_on_c, 1, 60, 127
2, 102280, Note_on_c, 1, 63, 127
2, 103440, Note_off_c, 1, 44, 0
2, 103440, Note_off_c, 1, 51, 0
2, 103440, Note_off_c, 1, 60, 0
2, 103440, Note_off_c, 1, 63, 0
2, 103520, Note_on_c, 1, 60, 127
2, 103520, Note_on_c, 1, 72, 127
2, 103880, Note_off_c, 1, 60, 0
2, 103880, Note_off_c, 1, 72, 0
2, 103920, Note_on_c, 1, 56, 127
2, 103920, Note_on_c, 1, 68, 127
2, 104360, Note_off_c, 1, 56, 0
2, 104360, Note_off_c, 1, 68, 0
2, 105560, Note_on_c, 1, 45, 127
2, 105560, Note_on_c, 1, 57, 127
2, 106320, Note_on_c, 1, 44, 127
2, 106320, Note_off_c, 1, 45, 0
2, 106320, Note_on_c, 1, 56, 127
2, 106320, Note_off_c, 1, 57, 0
2, 106360, Note_off_c, 1, 44, 0
2, 106360, Note_off_c, 1, 56, 0
2, 106400, Note_on_c, 1, 45, 127
2, 106400, Note_on_c, 1, 57, 127
2, 107360, Note_on_c, 1, 33, 127
2, 107360, Note_off_c, 1, 57, 0
2, 107480, Note_off_c, 1, 33, 0
2, 107480, Note_off_c, 1, 45, 0
2, 107520, Note_on_c, 1, 33, 127
2, 107520, Note_on_c, 1, 45, 127
2, 109680, Note_off_c, 1, 33, 0
2, 109680, Note_off_c, 1, 45, 0
2, 109720, Note_on_c, 1, 33, 127
2, 109720, Note_on_c, 1, 45, 127
2, 109800, Note_off_c, 1, 33, 0
2, 109800, Note_off_c, 1, 45, 0
2, 109840, Note_on_c, 1, 31, 127
2, 109840, Note_on_c, 1, 43, 127
2, 110160, Note_off_c, 1, 31, 0
2, 110160, Note_off_c, 1, 43, 0
2, 110240, Note_on_c, 1, 33, 127
2, 110240, Note_on_c, 1, 45, 127
2, 112240, Note_off_c, 1, 33, 0
2, 112240, Note_off_c, 1, 45, 0
2, 112280, Note_on_c, 1, 33, 127
2, 112280, Note_on_c, 1, 45, 127
2, 112320, Note_on_c, 1, 61, 127
2, 112680, Note_off_c, 1, 45, 0
2, 112680, Note_off_c, 1, 61, 0
2, 113080, Note_off_c, 1, 33, 0
2, 113120, Note_on_c, 1, 33, 127
2, 113480, Note_off_c, 1, 33, 0
2, 113520, Note_on_c, 1, 38, 127
2, 113840, Note_off_c, 1, 38, 0
2, 113880, Note_on_c, 1, 38, 127
2, 114200, Note_off_c, 1, 38, 0
2, 114240, Note_on_c, 1, 45, 127
2, 114560, Note_off_c, 1, 45, 0
2, 114600, Note_on_c, 1, 45, 127
2, 114640, Note_off_c, 1, 45, 0
2, 114680, Note_on_c, 1, 38, 127
2, 115000, Note_off_c, 1, 38, 0
2, 115040, Note_on_c, 1, 45, 127
2, 115400, Note_off_c, 1, 45, 0
2, 115440, Note_on_c, 1, 38, 127
2, 115760, Note_off_c, 1, 38, 0
2, 115800, Note_on_c, 1, 61, 127
2, 116160, Note_off_c, 1, 61, 0
2, 116200, Note_on_c, 1, 64, 127
2, 116560, Note_off_c, 1, 64, 0
2, 116640, Note_on_c, 1, 69, 127
2, 117000, Note_off_c, 1, 69, 0
2, 117040, Note_on_c, 1, 62, 127
2, 117040, Note_on_c, 1, 65, 127
2, 117040, Note_on_c, 1, 70, 127
2, 117400, Note_off_c, 1, 62, 0
2, 117400, Note_off_c, 1, 65, 0
2, 117440, Note_on_c, 1, 55, 127
2, 117800, Note_off_c, 1, 55, 0
2, 117840, Note_on_c, 1, 52, 127
2, 118200, Note_off_c, 1, 52, 0
2, 118240, Note_on_c, 1, 55, 127
2, 118240, Note_on_c, 1, 60, 127
2, 118600, Note_off_c, 1, 55, 0
2, 118600, Note_off_c, 1, 60, 0
2, 118640, Note_off_c, 1, 70, 0
2, 118680, Note_on_c, 1, 43, 127
2, 118680, Note_on_c, 1, 65, 127
2, 118680, Note_on_c, 1, 74, 127
2, 119000, Note_off_c, 1, 43, 0
2, 119080, Note_on_c, 1, 58, 127
2, 119120, Note_off_c, 1, 58, 0
2, 119360, Note_off_c, 1, 74, 0
2, 119400, Note_off_c, 1, 65, 0
2, 119440, Note_on_c, 1, 62, 127
2, 119440, Note_on_c, 1, 65, 127
2, 119440, Note_on_c, 1, 74, 127
2, 119760, Note_off_c, 1, 62, 0
2, 119760, Note_off_c, 1, 74, 0
2, 120000, Note_off_c, 1, 65, 0
2, 120040, End_track
3, 0, Start_track
3, 0, Title_t, "MIDI"
3, 1536, End_track
0, 0, End_of_file
