0, 0, Header, 1, 3, 192
1, 0, Start_track
1, 0, Time_signature, 4, 2, 24, 8
1, 0, Tempo, 500000
1, 120040, End_track
2, 0, Start_track
2, 0, Text_t, "random instrument: random person i dunno whatev"
2, 0, Title_t, "Track 1"
2, 0, Note_on_c, 1, 34, 127
2, 0, Note_on_c, 1, 53, 127
2, 0, Note_on_c, 1, 56, 127
2, 0, Note_on_c, 1, 62, 127
2, 40, Note_off_c, 1, 34, 0
2, 40, Note_off_c, 1, 53, 0
2, 40, Note_off_c, 1, 56, 0
2, 40, Note_off_c, 1, 62, 0
2, 40, Note_on_c, 1, 67, 127
2, 40, Note_on_c, 1, 76, 127
2, 40, Note_on_c, 1, 79, 127
2, 40, Note_on_c, 1, 85, 127
2, 40, Note_on_c, 1, 88, 127
2, 80, Note_off_c, 1, 67, 0
2, 80, Note_off_c, 1, 76, 0
2, 80, Note_off_c, 1, 79, 0
2, 80, Note_off_c, 1, 85, 0
2, 80, Note_off_c, 1, 88, 0
2, 120, Note_on_c, 1, 34, 127
2, 120, Note_on_c, 1, 53, 127
2, 120, Note_on_c, 1, 56, 127
2, 120, Note_on_c, 1, 62, 127
2, 160, Note_off_c, 1, 34, 0
2, 160, Note_on_c, 1, 43, 127
2, 160, Note_on_c, 1, 47, 127
2, 160, Note_off_c, 1, 53, 0
2, 160, Note_on_c, 1, 55, 127
2, 160, Note_off_c, 1, 56, 0
2, 160, Note_off_c, 1, 62, 0
2, 160, Note_on_c, 1, 79, 127
2, 160, Note_on_c, 1, 83, 127
2, 160, Note_on_c, 1, 87, 127
2, 160, Note_on_c, 1, 91, 127
2, 200, Note_on_c, 1, 34, 127
2, 200, Note_off_c, 1, 43, 0
2, 200, Note_off_c, 1, 47, 0
2, 200, Note_on_c, 1, 53, 127
2, 200, Note_off_c, 1, 55, 0
2, 200, Note_on_c, 1, 56, 127
2, 200, Note_on_c, 1, 62, 127
2, 200, Note_off_c, 1, 79, 0
2, 200, Note_off_c, 1, 83, 0
2, 200, Note_off_c, 1, 87, 0
2, 200, Note_off_c, 1, 91, 0
2, 680, Note_off_c, 1, 34, 0
2, 680, Note_off_c, 1, 53, 0
2, 680, Note_off_c, 1, 56, 0
2, 680, Note_off_c, 1, 62, 0
2, 1680, Note_on_c, 1, 36, 127
2, 1680, Note_on_c, 1, 43, 127
2, 1680, Note_on_c, 1, 48, 127
2, 1680, Note_on_c, 1, 52, 127
2, 1680, Note_on_c, 1, 60, 127
2, 1680, Note_on_c, 1, 87, 127
2, 1720, Note_off_c, 1, 36, 0
2, 1720, Note_off_c, 1, 43, 0
2, 1720, Note_on_c, 1, 47, 127
2, 1720, Note_off_c, 1, 48, 0
2, 1720, Note_on_c, 1, 49, 127
2, 1720, Note_off_c, 1, 52, 0
2, 1720, Note_off_c, 1, 60, 0
2, 1720, Note_on_c, 1, 73, 127
2, 1720, Note_on_c, 1, 75, 127
2, 1720, Note_on_c, 1, 85, 127
2, 1720, Note_off_c, 1, 87, 0
2, 1760, Note_off_c, 1, 47, 0
2, 1760, Note_off_c, 1, 49, 0
2, 1760, Note_off_c, 1, 73, 0
2, 1760, Note_off_c, 1, 75, 0
2, 1760, Note_off_c, 1, 85, 0
2, 4000, Note_on_c, 1, 54, 127
2, 4000, Note_on_c, 1, 57, 127
2, 4000, Note_on_c, 1, 62, 127
2, 4320, Note_off_c, 1, 54, 0
2, 4320, Note_off_c, 1, 57, 0
2, 4320, Note_off_c, 1, 62, 0
2, 4400, Note_on_c, 1, 54, 127
2, 4400, Note_on_c, 1, 57, 127
2, 4400, Note_on_c, 1, 62, 127
2, 4680, Note_off_c, 1, 54, 0
2, 4680, Note_off_c, 1, 57, 0
2, 4680, Note_off_c, 1, 62, 0
2, 4720, Note_on_c, 1, 54, 127
2, 4720, Note_on_c, 1, 57, 127
2, 4720, Note_on_c, 1, 62, 127
2, 4920, Note_off_c, 1, 54, 0
2, 4920, Note_off_c, 1, 57, 0
2, 4920, Note_off_c, 1, 62, 0
2, 5240, Note_on_c, 1, 43, 127
2, 5240, Note_on_c, 1, 50, 127
2, 5240, Note_on_c, 1, 60, 127
2, 5240, Note_on_c, 1, 62, 127
2, 5240, Note_on_c, 1, 69, 127
2, 5400, Note_off_c, 1, 43, 0
2, 5400, Note_off_c, 1, 50, 0
2, 5400, Note_off_c, 1, 60, 0
2, 5400, Note_off_c, 1, 62, 0
2, 5400, Note_off_c, 1, 69, 0
2, 6040, Note_on_c, 1, 67, 127
2, 6040, Note_on_c, 1, 71, 127
2, 6040, Note_on_c, 1, 73, 127
2, 6040, Note_on_c, 1, 76, 127
2, 6040, Note_on_c, 1, 79, 127
2, 6040, Note_on_c, 1, 83, 127
2, 6040, Note_on_c, 1, 88, 127
2, 6040, Note_on_c, 1, 95, 127
2, 6520, Note_off_c, 1, 67, 0
2, 6520, Note_off_c, 1, 71, 0
2, 6520, Note_off_c, 1, 73, 0
2, 6520, Note_off_c, 1, 76, 0
2, 6520, Note_off_c, 1, 79, 0
2, 6520, Note_off_c, 1, 83, 0
2, 6520, Note_off_c, 1, 88, 0
2, 6520, Note_off_c, 1, 95, 0
2, 7560, Note_on_c, 1, 51, 127
2, 7560, Note_on_c, 1, 54, 127
2, 7560, Note_on_c, 1, 59, 127
2, 8120, Note_off_c, 1, 51, 0
2, 8120, Note_off_c, 1, 54, 0
2, 8120, Note_off_c, 1, 59, 0
2, 10040, Note_on_c, 1, 42, 127
2, 10040, Note_on_c, 1, 49, 127
2, 10120, Note_off_c, 1, 42, 0
2, 10120, Note_off_c, 1, 49, 0
2, 10160, Note_on_c, 1, 49, 127
2, 10160, Note_on_c, 1, 58, 127
2, 10400, Note_off_c, 1, 49, 0
2, 10400, Note_off_c, 1, 58, 0
2, 10440, Note_on_c, 1, 49, 127
2, 10440, Note_on_c, 1, 58, 127
2, 10960, Note_off_c, 1, 58, 0
2, 11040, Note_on_c, 1, 71, 127
2, 11200, Note_off_c, 1, 49, 0
2, 11200, Note_off_c, 1, 71, 0
2, 11240, Note_on_c, 1, 49, 127
2, 11280, Note_on_c, 1, 58, 127
2, 12320, Note_off_c, 1, 49, 0
2, 12320, Note_off_c, 1, 58, 0
2, 12360, Note_on_c, 1, 47, 127
2, 12360, Note_on_c, 1, 53, 127
2, 13400, Note_off_c, 1, 53, 0
2, 13400, Note_on_c, 1, 56, 127
2, 13440, Note_on_c, 1, 53, 127
2, 13440, Note_off_c, 1, 56, 0
2, 14040, Note_off_c, 1, 47, 0
2, 14040, Note_off_c, 1, 53, 0
2, 14080, Note_on_c, 1, 47, 127
2, 14080, Note_on_c, 1, 53, 127
2, 14360, Note_off_c, 1, 53, 0
2, 14360, Note_on_c, 1, 57, 127
2, 14400, Note_off_c, 1, 57, 0
2, 14400, Note_on_c, 1, 59, 127
2, 14560, Note_on_c, 1, 44, 127
2, 14560, Note_off_c, 1, 47, 0
2, 14560, Note_on_c, 1, 56, 127
2, 14560, Note_off_c, 1, 59, 0
2, 14600, Note_off_c, 1, 44, 0
2, 14600, Note_on_c, 1, 49, 127
2, 14600, Note_off_c, 1, 56, 0
2, 14600, Note_on_c, 1, 64, 127
2, 15240, Note_off_c, 1, 49, 0
2, 15240, Note_off_c, 1, 64, 0
2, 15280, Note_on_c, 1, 42, 127
2, 15280, Note_on_c, 1, 69, 127
2, 15520, Note_off_c, 1, 42, 0
2, 15520, Note_on_c, 1, 61, 127
2, 16000, Note_off_c, 1, 61, 0
2, 16000, Note_on_c, 1, 64, 127
2, 16000, Note_on_c, 1, 67, 127
2, 16000, Note_off_c, 1, 69, 0
2, 16240, Note_on_c, 1, 57, 127
2, 16240, Note_off_c, 1, 64, 0
2, 16240, Note_on_c, 1, 66, 127
2, 16240, Note_off_c, 1, 67, 0
2, 16400, Note_off_c, 1, 57, 0
2, 16400, Note_off_c, 1, 66, 0
2, 16440, Note_on_c, 1, 57, 127
2, 16440, Note_on_c, 1, 66, 127
2, 16520, Note_off_c, 1, 57, 0
2, 16520, Note_on_c, 1, 61, 127
2, 16520, Note_off_c, 1, 66, 0
2, 16520, Note_on_c, 1, 69, 127
2, 17200, Note_off_c, 1, 61, 0
2, 17200, Note_off_c, 1, 69, 0
2, 17240, Note_on_c, 1, 59, 127
2, 17240, Note_on_c, 1, 68, 127
2, 17440, Note_off_c, 1, 59, 0
2, 17440, Note_off_c, 1, 68, 0
2, 17480, Note_on_c, 1, 66, 127
2, 17480, Note_on_c, 1, 69, 127
2, 18400, Note_off_c, 1, 66, 0
2, 18400, Note_off_c, 1, 69, 0
2, 18480, Note_on_c, 1, 59, 127
2, 18480, Note_on_c, 1, 68, 127
2, 19160, Note_off_c, 1, 59, 0
2, 19160, Note_on_c, 1, 60, 127
2, 19160, Note_off_c, 1, 68, 0
2, 19160, Note_on_c, 1, 69, 127
2, 19400, Note_on_c, 1, 59, 127
2, 19400, Note_off_c, 1, 60, 0
2, 19400, Note_on_c, 1, 68, 127
2, 19400, Note_off_c, 1, 69, 0
2, 19640, Note_on_c, 1, 51, 127
2, 19640, Note_off_c, 1, 59, 0
2, 19640, Note_on_c, 1, 66, 127
2, 19640, Note_off_c, 1, 68, 0
2, 19840, Note_off_c, 1, 51, 0
2, 19840, Note_on_c, 1, 57, 127
2, 19880, Note_on_c, 1, 52, 127
2, 19880, Note_off_c, 1, 57, 0
2, 19880, Note_on_c, 1, 61, 127
2, 19880, Note_off_c, 1, 66, 0
2, 20120, Note_off_c, 1, 52, 0
2, 20120, Note_on_c, 1, 69, 127
2, 20320, Note_off_c, 1, 61, 0
2, 20320, Note_off_c, 1, 69, 0
2, 20360, Note_on_c, 1, 52, 127
2, 20360, Note_on_c, 1, 72, 127
2, 20480, Note_off_c, 1, 52, 0
2, 20480, Note_off_c, 1, 72, 0
2, 20520, Note_on_c, 1, 52, 127
2, 20520, Note_on_c, 1, 72, 127
2, 20600, Note_on_c, 1, 60, 127
2, 20600, Note_off_c, 1, 72, 0
2, 21320, Note_off_c, 1, 60, 0
2, 21320, Note_on_c, 1, 61, 127
2, 21520, Note_off_c, 1, 52, 0
2, 21520, Note_off_c, 1, 61, 0
2, 21560, Note_on_c, 1, 47, 127
2, 21560, Note_on_c, 1, 75, 127
2, 21800, Note_off_c, 1, 47, 0
2, 21800, Note_on_c, 1, 54, 127
2, 21800, Note_on_c, 1, 63, 127
2, 21800, Note_off_c, 1, 75, 0
2, 22040, Note_off_c, 1, 54, 0
2, 22040, Note_on_c, 1, 59, 127
2, 22040, Note_off_c, 1, 63, 0
2, 22040, Note_on_c, 1, 68, 127
2, 22280, Note_on_c, 1, 56, 127
2, 22280, Note_off_c, 1, 59, 0
2, 22280, Note_on_c, 1, 64, 127
2, 22280, Note_off_c, 1, 68, 0
2, 22520, Note_off_c, 1, 56, 0
2, 22520, Note_on_c, 1, 59, 127
2, 22520, Note_off_c, 1, 64, 0
2, 22520, Note_on_c, 1, 68, 127
2, 22640, Note_off_c, 1, 59, 0
2, 22640, Note_off_c, 1, 68, 0
2, 22680, Note_on_c, 1, 59, 127
2, 22680, Note_on_c, 1, 68, 127
2, 22760, Note_off_c, 1, 59, 0
2, 22760, Note_on_c, 1, 61, 127
2, 22760, Note_off_c, 1, 68, 0
2, 22760, Note_on_c, 1, 69, 127
2, 23000, Note_on_c, 1, 57, 127
2, 23000, Note_off_c, 1, 61, 0
2, 23000, Note_on_c, 1, 66, 127
2, 23000, Note_off_c, 1, 69, 0
2, 23240, Note_on_c, 1, 56, 127
2, 23240, Note_off_c, 1, 57, 0
2, 23240, Note_on_c, 1, 64, 127
2, 23240, Note_off_c, 1, 66, 0
2, 23480, Note_off_c, 1, 56, 0
2, 23480, Note_on_c, 1, 59, 127
2, 23480, Note_off_c, 1, 64, 0
2, 23480, Note_on_c, 1, 68, 127
2, 23720, Note_on_c, 1, 66, 127
2, 23720, Note_off_c, 1, 68, 0
2, 23960, Note_on_c, 1, 56, 127
2, 23960, Note_off_c, 1, 66, 0
2, 24200, Note_on_c, 1, 52, 127
2, 24200, Note_off_c, 1, 56, 0
2, 24200, Note_off_c, 1, 59, 0
2, 24200, Note_on_c, 1, 66, 127
2, 24440, Note_off_c, 1, 52, 0
2, 24440, Note_on_c, 1, 57, 127
2, 24680, Note_on_c, 1, 47, 127
2, 24680, Note_on_c, 1, 56, 127
2, 24680, Note_off_c, 1, 57, 0
2, 24680, Note_off_c, 1, 66, 0
2, 24800, Note_off_c, 1, 47, 0
2, 24800, Note_off_c, 1, 56, 0
2, 24840, Note_on_c, 1, 47, 127
2, 24840, Note_on_c, 1, 56, 127
2, 24920, Note_off_c, 1, 47, 0
2, 24920, Note_off_c, 1, 56, 0
2, 24960, Note_on_c, 1, 54, 127
2, 24960, Note_on_c, 1, 63, 127
2, 25160, Note_off_c, 1, 54, 0
2, 25160, Note_off_c, 1, 63, 0
2, 25200, Note_on_c, 1, 52, 127
2, 25200, Note_on_c, 1, 61, 127
2, 25440, Note_off_c, 1, 52, 0
2, 25440, Note_on_c, 1, 59, 127
2, 25440, Note_off_c, 1, 61, 0
2, 25440, Note_on_c, 1, 68, 127
2, 25680, Note_on_c, 1, 57, 127
2, 25680, Note_off_c, 1, 59, 0
2, 25680, Note_on_c, 1, 66, 127
2, 25680, Note_off_c, 1, 68, 0
2, 25920, Note_on_c, 1, 56, 127
2, 25920, Note_off_c, 1, 57, 0
2, 25920, Note_on_c, 1, 59, 127
2, 25920, Note_off_c, 1, 66, 0
2, 26160, Note_on_c, 1, 50, 127
2, 26160, Note_off_c, 1, 56, 0
2, 26400, Note_off_c, 1, 50, 0
2, 26400, Note_on_c, 1, 51, 127
2, 26400, Note_off_c, 1, 59, 0
2, 26400, Note_on_c, 1, 60, 127
2, 26640, Note_off_c, 1, 51, 0
2, 26640, Note_on_c, 1, 52, 127
2, 26640, Note_off_c, 1, 60, 0
2, 26640, Note_on_c, 1, 61, 127
2, 26760, Note_off_c, 1, 52, 0
2, 26760, Note_off_c, 1, 61, 0
2, 26800, Note_on_c, 1, 52, 127
2, 26800, Note_on_c, 1, 61, 127
2, 26880, Note_off_c, 1, 52, 0
2, 26880, Note_off_c, 1, 61, 0
2, 26920, Note_on_c, 1, 51, 127
2, 26920, Note_on_c, 1, 57, 127
2, 27160, Note_off_c, 1, 57, 0
2, 27160, Note_on_c, 1, 60, 127
2, 27400, Note_off_c, 1, 51, 0
2, 27400, Note_on_c, 1, 52, 127
2, 27400, Note_off_c, 1, 60, 0
2, 27400, Note_on_c, 1, 61, 127
2, 27640, Note_on_c, 1, 51, 127
2, 27640, Note_off_c, 1, 52, 0
2, 27640, Note_on_c, 1, 60, 127
2, 27640, Note_off_c, 1, 61, 0
2, 27880, Note_off_c, 1, 51, 0
2, 27880, Note_on_c, 1, 52, 127
2, 27880, Note_off_c, 1, 60, 0
2, 27880, Note_on_c, 1, 61, 127
2, 28120, Note_off_c, 1, 52, 0
2, 28120, Note_on_c, 1, 54, 127
2, 28120, Note_off_c, 1, 61, 0
2, 28120, Note_on_c, 1, 63, 127
2, 28360, Note_off_c, 1, 54, 0
2, 28360, Note_on_c, 1, 57, 127
2, 28360, Note_off_c, 1, 63, 0
2, 28360, Note_on_c, 1, 66, 127
2, 28600, Note_on_c, 1, 54, 127
2, 28600, Note_off_c, 1, 57, 0
2, 28600, Note_on_c, 1, 61, 127
2, 28600, Note_off_c, 1, 66, 0
2, 28800, Note_off_c, 1, 54, 0
2, 28800, Note_off_c, 1, 61, 0
2, 28880, Note_on_c, 1, 58, 127
2, 28880, Note_on_c, 1, 61, 127
2, 29280, Note_off_c, 1, 58, 0
2, 29280, Note_off_c, 1, 61, 0
2, 29320, Note_on_c, 1, 59, 127
2, 29320, Note_on_c, 1, 62, 127
2, 29800, Note_on_c, 1, 58, 127
2, 29800, Note_off_c, 1, 59, 0
2, 29800, Note_on_c, 1, 61, 127
2, 29800, Note_off_c, 1, 62, 0
2, 30040, Note_on_c, 1, 56, 127
2, 30040, Note_off_c, 1, 58, 0
2, 30040, Note_on_c, 1, 59, 127
2, 30040, Note_off_c, 1, 61, 0
2, 30520, Note_off_c, 1, 56, 0
2, 30520, Note_on_c, 1, 58, 127
2, 30520, Note_off_c, 1, 59, 0
2, 30520, Note_on_c, 1, 61, 127
2, 30760, Note_on_c, 1, 56, 127
2, 30760, Note_off_c, 1, 58, 0
2, 30760, Note_on_c, 1, 59, 127
2, 30760, Note_off_c, 1, 61, 0
2, 31000, Note_off_c, 1, 56, 0
2, 31000, Note_off_c, 1, 59, 0
2, 31040, Note_on_c, 1, 58, 127
2, 31040, Note_on_c, 1, 61, 127
2, 31480, Note_on_c, 1, 56, 127
2, 31480, Note_off_c, 1, 58, 0
2, 31480, Note_on_c, 1, 59, 127
2, 31480, Note_off_c, 1, 61, 0
2, 31720, Note_off_c, 1, 56, 0
2, 31720, Note_off_c, 1, 59, 0
2, 31720, Note_on_c, 1, 61, 127
2, 31720, Note_on_c, 1, 64, 127
2, 31960, Note_on_c, 1, 53, 127
2, 31960, Note_off_c, 1, 61, 0
2, 31960, Note_on_c, 1, 62, 127
2, 31960, Note_off_c, 1, 64, 0
2, 32200, Note_on_c, 1, 52, 127
2, 32200, Note_off_c, 1, 53, 0
2, 32200, Note_on_c, 1, 61, 127
2, 32200, Note_off_c, 1, 62, 0
2, 32440, Note_off_c, 1, 52, 0
2, 32440, Note_on_c, 1, 58, 127
2, 32640, Note_off_c, 1, 58, 0
2, 32640, Note_off_c, 1, 61, 0
2, 32680, Note_on_c, 1, 58, 127
2, 32680, Note_on_c, 1, 61, 127
2, 32920, Note_on_c, 1, 56, 127
2, 32920, Note_off_c, 1, 58, 0
2, 32920, Note_on_c, 1, 59, 127
2, 32920, Note_off_c, 1, 61, 0
2, 33160, Note_off_c, 1, 56, 0
2, 33160, Note_off_c, 1, 59, 0
2, 33200, Note_on_c, 1, 56, 127
2, 33200, Note_on_c, 1, 59, 127
2, 33640, Note_off_c, 1, 56, 0
2, 33640, Note_off_c, 1, 59, 0
2, 33680, Note_on_c, 1, 51, 127
2, 33680, Note_on_c, 1, 58, 127
2, 34360, Note_off_c, 1, 51, 0
2, 34400, Note_on_c, 1, 56, 127
2, 34600, Note_off_c, 1, 56, 0
2, 34600, Note_on_c, 1, 61, 127
2, 34840, Note_off_c, 1, 58, 0
2, 34840, Note_on_c, 1, 60, 127
2, 34840, Note_off_c, 1, 61, 0
2, 34840, Note_on_c, 1, 63, 127
2, 35040, Note_off_c, 1, 60, 0
2, 35040, Note_off_c, 1, 63, 0
2, 35120, Note_on_c, 1, 58, 127
2, 35120, Note_on_c, 1, 61, 127
2, 35320, Note_off_c, 1, 58, 0
2, 35320, Note_on_c, 1, 60, 127
2, 35320, Note_off_c, 1, 61, 0
2, 35320, Note_on_c, 1, 63, 127
2, 35560, Note_on_c, 1, 58, 127
2, 35560, Note_off_c, 1, 60, 0
2, 35560, Note_on_c, 1, 61, 127
2, 35560, Note_off_c, 1, 63, 0
2, 35800, Note_off_c, 1, 58, 0
2, 35800, Note_on_c, 1, 60, 127
2, 35800, Note_off_c, 1, 61, 0
2, 35800, Note_on_c, 1, 63, 127
2, 36040, Note_on_c, 1, 58, 127
2, 36040, Note_off_c, 1, 60, 0
2, 36040, Note_on_c, 1, 61, 127
2, 36040, Note_off_c, 1, 63, 0
2, 36280, Note_on_c, 1, 55, 127
2, 36280, Note_off_c, 1, 61, 0
2, 36520, Note_off_c, 1, 55, 0
2, 36520, Note_on_c, 1, 61, 127
2, 36760, Note_on_c, 1, 57, 127
2, 36760, Note_off_c, 1, 58, 0
2, 36760, Note_on_c, 1, 60, 127
2, 36760, Note_off_c, 1, 61, 0
2, 37000, Note_off_c, 1, 57, 0
2, 37000, Note_on_c, 1, 58, 127
2, 37000, Note_off_c, 1, 60, 0
2, 37000, Note_on_c, 1, 61, 127
2, 37160, Note_off_c, 1, 58, 0
2, 37160, Note_off_c, 1, 61, 0
2, 37200, Note_on_c, 1, 58, 127
2, 37200, Note_on_c, 1, 61, 127
2, 37280, Note_off_c, 1, 58, 0
2, 37280, Note_on_c, 1, 60, 127
2, 37280, Note_off_c, 1, 61, 0
2, 37280, Note_on_c, 1, 63, 127
2, 37520, Note_on_c, 1, 57, 127
2, 37520, Note_off_c, 1, 60, 0
2, 37520, Note_on_c, 1, 62, 127
2, 37520, Note_off_c, 1, 63, 0
2, 37760, Note_on_c, 1, 56, 127
2, 37760, Note_off_c, 1, 57, 0
2, 37760, Note_on_c, 1, 59, 127
2, 37760, Note_off_c, 1, 62, 0
2, 38000, Note_off_c, 1, 56, 0
2, 38000, Note_on_c, 1, 57, 127
2, 38000, Note_off_c, 1, 59, 0
2, 38000, Note_on_c, 1, 60, 127
2, 38240, Note_off_c, 1, 57, 0
2, 38240, Note_on_c, 1, 58, 127
2, 38240, Note_off_c, 1, 60, 0
2, 38240, Note_on_c, 1, 61, 127
2, 38480, Note_off_c, 1, 58, 0
2, 38480, Note_on_c, 1, 64, 127
2, 38720, Note_on_c, 1, 60, 127
2, 38720, Note_off_c, 1, 61, 0
2, 38720, Note_on_c, 1, 63, 127
2, 38720, Note_off_c, 1, 64, 0
2, 39200, Note_off_c, 1, 60, 0
2, 39200, Note_off_c, 1, 63, 0
2, 39240, Note_on_c, 1, 55, 127
2, 39240, Note_on_c, 1, 63, 127
2, 39280, Note_off_c, 1, 55, 0
2, 39280, Note_on_c, 1, 58, 127
2, 39400, Note_off_c, 1, 58, 0
2, 39400, Note_off_c, 1, 63, 0
2, 39440, Note_on_c, 1, 56, 127
2, 39440, Note_on_c, 1, 59, 127
2, 39920, Note_off_c, 1, 56, 0
2, 39920, Note_on_c, 1, 58, 127
2, 39920, Note_off_c, 1, 59, 0
2, 39920, Note_on_c, 1, 61, 127
2, 40160, Note_off_c, 1, 58, 0
2, 40160, Note_on_c, 1, 60, 127
2, 40160, Note_off_c, 1, 61, 0
2, 40160, Note_on_c, 1, 63, 127
2, 40400, Note_on_c, 1, 57, 127
2, 40400, Note_on_c, 1, 59, 127
2, 40400, Note_off_c, 1, 60, 0
2, 40400, Note_off_c, 1, 63, 0
2, 40640, Note_on_c, 1, 56, 127
2, 40640, Note_off_c, 1, 57, 0
2, 40880, Note_off_c, 1, 56, 0
2, 40880, Note_on_c, 1, 57, 127
2, 40880, Note_off_c, 1, 59, 0
2, 40880, Note_on_c, 1, 66, 127
2, 41120, Note_on_c, 1, 53, 127
2, 41120, Note_on_c, 1, 56, 127
2, 41120, Note_off_c, 1, 57, 0
2, 41120, Note_off_c, 1, 66, 0
2, 41360, Note_off_c, 1, 53, 0
2, 41360, Note_off_c, 1, 56, 0
2, 41400, Note_on_c, 1, 56, 127
2, 41400, Note_on_c, 1, 59, 127
2, 41600, Note_off_c, 1, 56, 0
2, 41600, Note_off_c, 1, 59, 0
2, 41600, Note_on_c, 1, 60, 127
2, 41840, Note_on_c, 1, 56, 127
2, 41840, Note_off_c, 1, 60, 0
2, 42080, Note_on_c, 1, 62, 127
2, 42240, Note_off_c, 1, 62, 0
2, 42280, Note_off_c, 1, 56, 0
2, 42280, Note_on_c, 1, 57, 127
2, 42280, Note_on_c, 1, 60, 127
2, 42520, Note_off_c, 1, 57, 0
2, 42520, Note_on_c, 1, 59, 127
2, 42520, Note_off_c, 1, 60, 0
2, 42560, Note_on_c, 1, 56, 127
2, 42760, Note_on_c, 1, 55, 127
2, 42760, Note_off_c, 1, 56, 0
2, 42760, Note_off_c, 1, 59, 0
2, 43000, Note_off_c, 1, 55, 0
2, 43000, Note_on_c, 1, 57, 127
2, 43000, Note_on_c, 1, 60, 127
2, 43240, Note_off_c, 1, 57, 0
2, 43240, Note_on_c, 1, 59, 127
2, 43240, Note_off_c, 1, 60, 0
2, 43240, Note_on_c, 1, 62, 127
2, 43440, Note_off_c, 1, 59, 0
2, 43440, Note_off_c, 1, 62, 0
2, 43480, Note_on_c, 1, 55, 127
2, 43480, Note_on_c, 1, 67, 127
2, 43600, Note_off_c, 1, 55, 0
2, 43600, Note_off_c, 1, 67, 0
2, 43640, Note_on_c, 1, 55, 127
2, 43640, Note_on_c, 1, 67, 127
2, 43720, Note_on_c, 1, 59, 127
2, 43720, Note_off_c, 1, 67, 0
2, 43960, Note_off_c, 1, 55, 0
2, 43960, Note_on_c, 1, 57, 127
2, 43960, Note_off_c, 1, 59, 0
2, 43960, Note_on_c, 1, 60, 127
2, 44200, Note_on_c, 1, 56, 127
2, 44200, Note_off_c, 1, 57, 0
2, 44200, Note_on_c, 1, 59, 127
2, 44200, Note_off_c, 1, 60, 0
2, 44440, Note_off_c, 1, 56, 0
2, 44440, Note_on_c, 1, 57, 127
2, 44440, Note_off_c, 1, 59, 0
2, 44440, Note_on_c, 1, 60, 127
2, 44640, Note_off_c, 1, 57, 0
2, 44640, Note_off_c, 1, 60, 0
2, 44680, Note_on_c, 1, 59, 127
2, 44680, Note_on_c, 1, 62, 127
2, 44920, Note_off_c, 1, 59, 0
2, 44920, Note_on_c, 1, 60, 127
2, 44920, Note_off_c, 1, 62, 0
2, 44920, Note_on_c, 1, 63, 127
2, 45120, Note_off_c, 1, 60, 0
2, 45120, Note_off_c, 1, 63, 0
2, 45160, Note_on_c, 1, 57, 127
2, 45160, Note_on_c, 1, 60, 127
2, 45400, Note_off_c, 1, 57, 0
2, 45400, Note_on_c, 1, 59, 127
2, 45400, Note_off_c, 1, 60, 0
2, 45400, Note_on_c, 1, 62, 127
2, 45640, Note_on_c, 1, 56, 127
2, 45640, Note_off_c, 1, 59, 0
2, 45640, Note_off_c, 1, 62, 0
2, 45640, Note_on_c, 1, 65, 127
2, 45760, Note_off_c, 1, 56, 0
2, 45760, Note_off_c, 1, 65, 0
2, 45800, Note_on_c, 1, 56, 127
2, 45800, Note_on_c, 1, 65, 127
2, 45840, Note_off_c, 1, 65, 0
2, 45880, Note_off_c, 1, 56, 0
2, 45880, Note_on_c, 1, 58, 127
2, 45880, Note_on_c, 1, 61, 127
2, 46120, Note_on_c, 1, 65, 127
2, 46320, Note_off_c, 1, 65, 0
2, 46360, Note_on_c, 1, 55, 127
2, 46360, Note_off_c, 1, 58, 0
2, 46360, Note_off_c, 1, 61, 0
2, 46360, Note_on_c, 1, 64, 127
2, 46560, Note_off_c, 1, 55, 0
2, 46600, Note_on_c, 1, 58, 127
2, 46600, Note_on_c, 1, 61, 127
2, 46600, Note_off_c, 1, 64, 0
2, 47080, Note_on_c, 1, 52, 127
2, 47080, Note_off_c, 1, 58, 0
2, 47080, Note_on_c, 1, 60, 127
2, 47080, Note_off_c, 1, 61, 0
2, 47320, Note_off_c, 1, 52, 0
2, 47320, Note_on_c, 1, 55, 127
2, 47560, Note_on_c, 1, 53, 127
2, 47560, Note_off_c, 1, 55, 0
2, 47560, Note_off_c, 1, 60, 0
2, 47560, Note_on_c, 1, 62, 127
2, 47800, Note_off_c, 1, 53, 0
2, 47800, Note_on_c, 1, 55, 127
2, 47800, Note_off_c, 1, 62, 0
2, 47800, Note_on_c, 1, 65, 127
2, 47840, Note_on_c, 1, 64, 127
2, 47840, Note_off_c, 1, 65, 0
2, 47920, Note_off_c, 1, 55, 0
2, 47920, Note_off_c, 1, 64, 0
2, 47960, Note_on_c, 1, 55, 127
2, 47960, Note_on_c, 1, 64, 127
2, 48000, Note_off_c, 1, 55, 0
2, 48040, Note_on_c, 1, 53, 127
2, 48040, Note_on_c, 1, 62, 127
2, 48040, Note_off_c, 1, 64, 0
2, 48280, Note_off_c, 1, 53, 0
2, 48280, Note_on_c, 1, 56, 127
2, 48280, Note_off_c, 1, 62, 0
2, 48280, Note_on_c, 1, 65, 127
2, 48520, Note_on_c, 1, 54, 127
2, 48520, Note_off_c, 1, 56, 0
2, 48520, Note_on_c, 1, 63, 127
2, 48520, Note_off_c, 1, 65, 0
2, 48760, Note_off_c, 1, 54, 0
2, 48760, Note_on_c, 1, 55, 127
2, 48760, Note_off_c, 1, 63, 0
2, 48760, Note_on_c, 1, 64, 127
2, 49000, Note_on_c, 1, 53, 127
2, 49000, Note_off_c, 1, 55, 0
2, 49000, Note_on_c, 1, 62, 127
2, 49000, Note_off_c, 1, 64, 0
2, 49240, Note_off_c, 1, 53, 0
2, 49240, Note_on_c, 1, 59, 127
2, 49240, Note_off_c, 1, 62, 0
2, 49240, Note_on_c, 1, 68, 127
2, 49240, Note_on_c, 1, 80, 127
2, 49480, Note_off_c, 1, 59, 0
2, 49480, Note_on_c, 1, 61, 127
2, 49480, Note_off_c, 1, 68, 0
2, 49480, Note_on_c, 1, 69, 127
2, 49480, Note_off_c, 1, 80, 0
2, 49720, Note_off_c, 1, 61, 0
2, 49720, Note_on_c, 1, 65, 127
2, 49720, Note_on_c, 1, 68, 127
2, 49720, Note_off_c, 1, 69, 0
2, 49960, Note_off_c, 1, 65, 0
2, 49960, Note_off_c, 1, 68, 0
2, 50000, Note_on_c, 1, 61, 127
2, 50000, Note_on_c, 1, 70, 127
2, 50200, Note_on_c, 1, 69, 127
2, 50200, Note_off_c, 1, 70, 0
2, 50440, Note_on_c, 1, 56, 127
2, 50440, Note_off_c, 1, 61, 0
2, 50440, Note_off_c, 1, 69, 0
2, 50440, Note_on_c, 1, 71, 127
2, 51160, Note_off_c, 1, 56, 0
2, 51160, Note_on_c, 1, 61, 127
2, 51160, Note_on_c, 1, 70, 127
2, 51160, Note_off_c, 1, 71, 0
2, 51360, Note_off_c, 1, 61, 0
2, 51360, Note_on_c, 1, 64, 127
2, 51360, Note_off_c, 1, 70, 0
2, 51360, Note_on_c, 1, 71, 127
2, 51400, Note_on_c, 1, 60, 127
2, 51400, Note_off_c, 1, 64, 0
2, 51400, Note_on_c, 1, 68, 127
2, 51400, Note_off_c, 1, 71, 0
2, 51640, Note_on_c, 1, 58, 127
2, 51640, Note_off_c, 1, 60, 0
2, 51640, Note_on_c, 1, 67, 127
2, 51640, Note_off_c, 1, 68, 0
2, 52000, Note_off_c, 1, 58, 0
2, 52000, Note_off_c, 1, 67, 0
2, 52040, Note_on_c, 1, 58, 127
2, 52040, Note_on_c, 1, 67, 127
2, 52360, Note_on_c, 1, 50, 127
2, 52360, Note_off_c, 1, 58, 0
2, 52360, Note_off_c, 1, 67, 0
2, 52360, Note_on_c, 1, 77, 127
2, 52600, Note_off_c, 1, 50, 0
2, 52600, Note_on_c, 1, 61, 127
2, 52600, Note_on_c, 1, 69, 127
2, 52600, Note_off_c, 1, 77, 0
2, 52840, Note_on_c, 1, 58, 127
2, 52840, Note_off_c, 1, 61, 0
2, 52840, Note_on_c, 1, 67, 127
2, 52840, Note_off_c, 1, 69, 0
2, 53080, Note_off_c, 1, 58, 0
2, 53080, Note_on_c, 1, 61, 127
2, 53080, Note_off_c, 1, 67, 0
2, 53080, Note_on_c, 1, 69, 127
2, 53320, Note_on_c, 1, 59, 127
2, 53320, Note_off_c, 1, 61, 0
2, 53320, Note_on_c, 1, 68, 127
2, 53320, Note_off_c, 1, 69, 0
2, 53560, Note_on_c, 1, 58, 127
2, 53560, Note_off_c, 1, 59, 0
2, 53560, Note_on_c, 1, 67, 127
2, 53560, Note_off_c, 1, 68, 0
2, 53800, Note_off_c, 1, 58, 0
2, 53800, Note_on_c, 1, 61, 127
2, 53800, Note_off_c, 1, 67, 0
2, 53800, Note_on_c, 1, 69, 127
2, 54000, Note_off_c, 1, 61, 0
2, 54000, Note_off_c, 1, 69, 0
2, 54080, Note_on_c, 1, 56, 127
2, 54080, Note_on_c, 1, 65, 127
2, 54280, Note_off_c, 1, 56, 0
2, 54280, Note_on_c, 1, 57, 127
2, 54280, Note_off_c, 1, 65, 0
2, 54280, Note_on_c, 1, 66, 127
2, 54520, Note_on_c, 1, 55, 127
2, 54520, Note_off_c, 1, 57, 0
2, 54520, Note_on_c, 1, 64, 127
2, 54520, Note_off_c, 1, 66, 0
2, 54760, Note_off_c, 1, 55, 0
2, 54760, Note_on_c, 1, 58, 127
2, 54760, Note_off_c, 1, 64, 0
2, 54760, Note_on_c, 1, 67, 127
2, 55000, Note_on_c, 1, 57, 127
2, 55000, Note_off_c, 1, 58, 0
2, 55000, Note_on_c, 1, 66, 127
2, 55000, Note_off_c, 1, 67, 0
2, 55240, Note_off_c, 1, 57, 0
2, 55240, Note_on_c, 1, 58, 127
2, 55240, Note_off_c, 1, 66, 0
2, 55240, Note_on_c, 1, 67, 127
2, 55480, Note_on_c, 1, 57, 127
2, 55480, Note_off_c, 1, 58, 0
2, 55480, Note_on_c, 1, 66, 127
2, 55480, Note_off_c, 1, 67, 0
2, 55720, Note_off_c, 1, 57, 0
2, 55720, Note_on_c, 1, 58, 127
2, 55720, Note_off_c, 1, 66, 0
2, 55720, Note_on_c, 1, 67, 127
2, 55960, Note_on_c, 1, 57, 127
2, 55960, Note_off_c, 1, 58, 0
2, 55960, Note_on_c, 1, 66, 127
2, 55960, Note_off_c, 1, 67, 0
2, 56120, Note_off_c, 1, 57, 0
2, 56120, Note_off_c, 1, 66, 0
2, 56160, Note_on_c, 1, 57, 127
2, 56160, Note_on_c, 1, 66, 127
2, 56200, Note_off_c, 1, 57, 0
2, 56200, Note_off_c, 1, 66, 0
2, 56240, Note_on_c, 1, 50, 127
2, 56240, Note_on_c, 1, 60, 127
2, 56240, Note_on_c, 1, 62, 127
2, 56240, Note_on_c, 1, 66, 127
2, 56240, Note_on_c, 1, 69, 127
2, 56680, Note_off_c, 1, 69, 0
2, 56720, Note_on_c, 1, 70, 127
2, 56920, Note_off_c, 1, 70, 0
2, 56960, Note_on_c, 1, 69, 127
2, 57200, Note_off_c, 1, 50, 0
2, 57200, Note_off_c, 1, 60, 0
2, 57200, Note_off_c, 1, 62, 0
2, 57200, Note_off_c, 1, 66, 0
2, 57200, Note_off_c, 1, 69, 0
2, 57240, Note_on_c, 1, 55, 127
2, 57240, Note_on_c, 1, 59, 127
2, 57240, Note_on_c, 1, 62, 127
2, 57240, Note_on_c, 1, 67, 127
2, 57240, Note_on_c, 1, 71, 127
2, 57680, Note_off_c, 1, 59, 0
2, 57680, Note_off_c, 1, 62, 0
2, 57680, Note_off_c, 1, 67, 0
2, 57680, Note_off_c, 1, 71, 0
2, 57720, Note_on_c, 1, 53, 127
2, 57720, Note_on_c, 1, 69, 127
2, 58200, Note_off_c, 1, 53, 0
2, 58200, Note_off_c, 1, 69, 0
2, 58240, Note_off_c, 1, 55, 0
2, 58280, Note_on_c, 1, 55, 127
2, 58280, Note_on_c, 1, 64, 127
2, 58280, Note_on_c, 1, 67, 127
2, 58280, Note_on_c, 1, 72, 127
2, 58720, Note_off_c, 1, 64, 0
2, 58720, Note_off_c, 1, 72, 0
2, 58760, Note_on_c, 1, 62, 127
2, 58760, Note_on_c, 1, 71, 127
2, 59240, Note_off_c, 1, 62, 0
2, 59240, Note_off_c, 1, 67, 0
2, 59240, Note_off_c, 1, 71, 0
2, 59280, Note_on_c, 1, 64, 127
2, 59280, Note_on_c, 1, 67, 127
2, 59280, Note_on_c, 1, 72, 127
2, 59960, Note_off_c, 1, 67, 0
2, 59960, Note_off_c, 1, 72, 0
2, 60000, Note_on_c, 1, 67, 127
2, 60000, Note_on_c, 1, 74, 127
2, 60240, Note_off_c, 1, 64, 0
2, 60240, Note_off_c, 1, 67, 0
2, 60240, Note_off_c, 1, 74, 0
2, 60280, Note_on_c, 1, 62, 127
2, 60280, Note_on_c, 1, 67, 127
2, 60280, Note_on_c, 1, 71, 127
2, 60440, Note_off_c, 1, 55, 0
2, 60440, Note_off_c, 1, 62, 0
2, 60440, Note_off_c, 1, 67, 0
2, 60440, Note_off_c, 1, 71, 0
2, 60480, Note_on_c, 1, 55, 127
2, 60480, Note_on_c, 1, 62, 127
2, 60480, Note_on_c, 1, 67, 127
2, 60480, Note_on_c, 1, 71, 127
2, 60760, Note_off_c, 1, 62, 0
2, 60760, Note_off_c, 1, 71, 0
2, 60800, Note_on_c, 1, 62, 127
2, 60800, Note_on_c, 1, 71, 127
2, 61760, Note_on_c, 1, 31, 127
2, 62200, Note_off_c, 1, 31, 0
2, 62400, Note_off_c, 1, 55, 0
2, 62400, Note_off_c, 1, 62, 0
2, 62400, Note_off_c, 1, 67, 0
2, 62400, Note_off_c, 1, 71, 0
2, 62440, Note_on_c, 1, 55, 127
2, 62440, Note_on_c, 1, 62, 127
2, 62440, Note_on_c, 1, 67, 127
2, 62440, Note_on_c, 1, 71, 127
2, 63200, Note_off_c, 1, 55, 0
2, 63200, Note_off_c, 1, 62, 0
2, 63200, Note_off_c, 1, 67, 0
2, 63200, Note_off_c, 1, 71, 0
2, 63240, Note_on_c, 1, 50, 127
2, 63240, Note_on_c, 1, 57, 127
2, 63240, Note_on_c, 1, 66, 127
2, 63240, Note_on_c, 1, 72, 127
2, 64160, Note_off_c, 1, 72, 0
2, 64200, Note_on_c, 1, 72, 127
2, 64360, Note_on_c, 1, 60, 127
2, 64360, Note_off_c, 1, 72, 0
2, 64400, Note_off_c, 1, 50, 0
2, 64400, Note_off_c, 1, 57, 0
2, 64400, Note_off_c, 1, 60, 0
2, 64400, Note_off_c, 1, 66, 0
2, 64440, Note_on_c, 1, 50, 127
2, 64440, Note_on_c, 1, 57, 127
2, 64440, Note_on_c, 1, 66, 127
2, 64440, Note_on_c, 1, 72, 127
2, 64720, Note_off_c, 1, 50, 0
2, 64720, Note_off_c, 1, 57, 0
2, 64720, Note_off_c, 1, 66, 0
2, 64720, Note_off_c, 1, 72, 0
2, 64760, Note_on_c, 1, 50, 127
2, 64760, Note_on_c, 1, 57, 127
2, 64760, Note_on_c, 1, 66, 127
2, 64760, Note_on_c, 1, 72, 127
2, 65200, Note_off_c, 1, 72, 0
2, 65240, Note_on_c, 1, 72, 127
2, 65280, Note_off_c, 1, 72, 0
2, 65320, Note_on_c, 1, 72, 127
2, 65440, Note_off_c, 1, 72, 0
2, 65480, Note_on_c, 1, 76, 127
2, 65680, Note_off_c, 1, 57, 0
2, 65680, Note_off_c, 1, 66, 0
2, 65680, Note_off_c, 1, 76, 0
2, 65720, Note_on_c, 1, 59, 127
2, 65720, Note_on_c, 1, 67, 127
2, 65720, Note_on_c, 1, 76, 127
2, 66200, Note_off_c, 1, 59, 0
2, 66200, Note_off_c, 1, 67, 0
2, 66200, Note_off_c, 1, 76, 0
2, 66240, Note_on_c, 1, 59, 127
2, 66240, Note_on_c, 1, 67, 127
2, 66240, Note_on_c, 1, 71, 127
2, 66360, Note_off_c, 1, 50, 0
2, 66360, Note_off_c, 1, 59, 0
2, 66360, Note_off_c, 1, 67, 0
2, 66360, Note_off_c, 1, 71, 0
2, 66400, Note_on_c, 1, 50, 127
2, 66400, Note_on_c, 1, 59, 127
2, 66400, Note_on_c, 1, 67, 127
2, 66400, Note_on_c, 1, 71, 127
2, 66720, Note_off_c, 1, 59, 0
2, 66720, Note_off_c, 1, 67, 0
2, 66720, Note_off_c, 1, 71, 0
2, 66760, Note_on_c, 1, 60, 127
2, 66760, Note_on_c, 1, 69, 127
2, 67200, Note_off_c, 1, 50, 0
2, 67200, Note_on_c, 1, 52, 127
2, 67200, Note_off_c, 1, 60, 0
2, 67200, Note_off_c, 1, 69, 0
2, 67240, Note_on_c, 1, 50, 127
2, 67240, Note_off_c, 1, 52, 0
2, 67240, Note_on_c, 1, 59, 127
2, 67240, Note_on_c, 1, 67, 127
2, 67720, Note_off_c, 1, 59, 0
2, 67720, Note_off_c, 1, 67, 0
2, 67760, Note_on_c, 1, 57, 127
2, 67760, Note_on_c, 1, 66, 127
2, 67760, Note_on_c, 1, 78, 127
2, 68200, Note_off_c, 1, 57, 0
2, 68200, Note_off_c, 1, 66, 0
2, 68200, Note_off_c, 1, 78, 0
2, 68240, Note_on_c, 1, 47, 127
2, 68240, Note_off_c, 1, 50, 0
2, 68240, Note_on_c, 1, 55, 127
2, 68240, Note_on_c, 1, 66, 127
2, 68480, Note_off_c, 1, 47, 0
2, 68480, Note_off_c, 1, 55, 0
2, 68480, Note_off_c, 1, 66, 0
2, 68520, Note_on_c, 1, 47, 127
2, 68520, Note_on_c, 1, 55, 127
2, 68520, Note_on_c, 1, 66, 127
2, 68760, Note_off_c, 1, 47, 0
2, 68760, Note_off_c, 1, 55, 0
2, 68760, Note_off_c, 1, 66, 0
2, 68800, Note_on_c, 1, 48, 127
2, 68800, Note_on_c, 1, 55, 127
2, 68800, Note_on_c, 1, 64, 127
2, 69240, Note_off_c, 1, 48, 0
2, 69240, Note_off_c, 1, 55, 0
2, 69240, Note_off_c, 1, 64, 0
2, 69280, Note_on_c, 1, 43, 127
2, 69280, Note_on_c, 1, 52, 127
2, 69280, Note_on_c, 1, 59, 127
2, 69720, Note_off_c, 1, 59, 0
2, 69760, Note_on_c, 1, 36, 127
2, 69760, Note_off_c, 1, 43, 0
2, 69760, Note_on_c, 1, 50, 127
2, 69760, Note_off_c, 1, 52, 0
2, 69760, Note_on_c, 1, 68, 127
2, 69800, Note_off_c, 1, 36, 0
2, 69800, Note_on_c, 1, 41, 127
2, 69800, Note_on_c, 1, 48, 127
2, 69800, Note_off_c, 1, 50, 0
2, 69800, Note_on_c, 1, 57, 127
2, 69800, Note_off_c, 1, 68, 0
2, 69800, Note_on_c, 1, 69, 127
2, 70200, Note_off_c, 1, 41, 0
2, 70200, Note_off_c, 1, 48, 0
2, 70200, Note_off_c, 1, 57, 0
2, 70200, Note_off_c, 1, 69, 0
2, 70240, Note_on_c, 1, 50, 127
2, 70240, Note_on_c, 1, 55, 127
2, 70240, Note_on_c, 1, 59, 127
2, 70240, Note_on_c, 1, 64, 127
2, 70480, Note_off_c, 1, 50, 0
2, 70520, Note_off_c, 1, 55, 0
2, 70520, Note_off_c, 1, 59, 0
2, 70520, Note_off_c, 1, 64, 0
2, 70560, Note_on_c, 1, 38, 127
2, 70560, Note_on_c, 1, 55, 127
2, 70560, Note_on_c, 1, 59, 127
2, 70560, Note_on_c, 1, 64, 127
2, 70720, Note_off_c, 1, 38, 0
2, 70760, Note_on_c, 1, 38, 127
2, 70920, Note_off_c, 1, 38, 0
2, 71000, Note_on_c, 1, 38, 127
2, 71200, Note_off_c, 1, 38, 0
2, 71240, Note_on_c, 1, 67, 127
2, 71480, Note_off_c, 1, 67, 0
2, 71760, Note_on_c, 1, 38, 127
2, 71920, Note_off_c, 1, 38, 0
2, 71960, Note_on_c, 1, 38, 127
2, 72000, Note_off_c, 1, 38, 0
2, 72040, Note_on_c, 1, 38, 127
2, 72160, Note_off_c, 1, 38, 0
2, 72280, Note_on_c, 1, 38, 127
2, 72440, Note_off_c, 1, 38, 0
2, 72520, Note_on_c, 1, 38, 127
2, 72720, Note_off_c, 1, 38, 0
2, 72760, Note_off_c, 1, 55, 0
2, 72760, Note_off_c, 1, 59, 0
2, 72760, Note_off_c, 1, 64, 0
2, 72800, Note_on_c, 1, 38, 127
2, 72800, Note_on_c, 1, 55, 127
2, 72800, Note_on_c, 1, 59, 127
2, 72800, Note_on_c, 1, 64, 127
2, 72960, Note_off_c, 1, 38, 0
2, 73040, Note_on_c, 1, 38, 127
2, 73240, Note_off_c, 1, 38, 0
2, 73280, Note_on_c, 1, 38, 127
2, 73440, Note_off_c, 1, 38, 0
2, 73960, Note_off_c, 1, 55, 0
2, 73960, Note_off_c, 1, 59, 0
2, 73960, Note_off_c, 1, 64, 0
2, 74000, Note_on_c, 1, 45, 127
2, 74000, Note_on_c, 1, 57, 127
2, 74000, Note_on_c, 1, 66, 127
2, 74000, Note_on_c, 1, 72, 127
2, 74720, Note_off_c, 1, 45, 0
2, 74720, Note_on_c, 1, 55, 127
2, 74720, Note_off_c, 1, 57, 0
2, 74720, Note_on_c, 1, 58, 127
2, 74720, Note_on_c, 1, 62, 127
2, 74720, Note_off_c, 1, 66, 0
2, 74720, Note_on_c, 1, 67, 127
2, 74720, Note_on_c, 1, 70, 127
2, 74720, Note_off_c, 1, 72, 0
2, 74760, Note_off_c, 1, 55, 0
2, 74760, Note_off_c, 1, 58, 0
2, 74760, Note_off_c, 1, 62, 0
2, 74760, Note_off_c, 1, 67, 0
2, 74760, Note_off_c, 1, 70, 0
2, 74800, Note_on_c, 1, 64, 127
2, 74800, Note_on_c, 1, 86, 127
2, 74800, Note_on_c, 1, 87, 127
2, 74800, Note_on_c, 1, 89, 127
2, 74800, Note_on_c, 1, 90, 127
2, 74840, Note_on_c, 1, 37, 127
2, 74840, Note_on_c, 1, 49, 127
2, 74840, Note_on_c, 1, 52, 127
2, 74840, Note_on_c, 1, 58, 127
2, 74840, Note_on_c, 1, 70, 127
2, 74840, Note_off_c, 1, 86, 0
2, 74840, Note_off_c, 1, 87, 0
2, 74840, Note_off_c, 1, 89, 0
2, 74840, Note_off_c, 1, 90, 0
2, 74880, Note_off_c, 1, 37, 0
2, 74880, Note_on_c, 1, 47, 127
2, 74880, Note_off_c, 1, 49, 0
2, 74880, Note_off_c, 1, 52, 0
2, 74880, Note_off_c, 1, 58, 0
2, 74880, Note_off_c, 1, 64, 0
2, 74880, Note_on_c, 1, 68, 127
2, 74880, Note_off_c, 1, 70, 0
2, 74880, Note_on_c, 1, 71, 127
2, 74880, Note_on_c, 1, 76, 127
2, 74880, Note_on_c, 1, 80, 127
2, 74920, Note_on_c, 1, 28, 127
2, 74920, Note_on_c, 1, 39, 127
2, 74920, Note_on_c, 1, 40, 127
2, 74920, Note_on_c, 1, 51, 127
2, 74920, Note_on_c, 1, 52, 127
2, 74920, Note_on_c, 1, 59, 127
2, 74920, Note_off_c, 1, 76, 0
2, 74920, Note_off_c, 1, 80, 0
2, 74960, Note_off_c, 1, 28, 0
2, 74960, Note_off_c, 1, 39, 0
2, 74960, Note_off_c, 1, 40, 0
2, 74960, Note_on_c, 1, 45, 127
2, 74960, Note_off_c, 1, 47, 0
2, 74960, Note_off_c, 1, 51, 0
2, 74960, Note_off_c, 1, 52, 0
2, 74960, Note_on_c, 1, 54, 127
2, 74960, Note_on_c, 1, 57, 127
2, 74960, Note_off_c, 1, 59, 0
2, 74960, Note_on_c, 1, 62, 127
2, 74960, Note_off_c, 1, 68, 0
2, 74960, Note_on_c, 1, 69, 127
2, 74960, Note_off_c, 1, 71, 0
2, 75000, Note_on_c, 1, 38, 127
2, 75000, Note_off_c, 1, 45, 0
2, 75000, Note_on_c, 1, 50, 127
2, 75000, Note_off_c, 1, 54, 0
2, 75000, Note_off_c, 1, 57, 0
2, 75000, Note_on_c, 1, 58, 127
2, 75000, Note_off_c, 1, 69, 0
2, 75240, Note_off_c, 1, 38, 0
2, 75240, Note_on_c, 1, 46, 127
2, 75240, Note_off_c, 1, 50, 0
2, 75240, Note_off_c, 1, 58, 0
2, 75280, Note_on_c, 1, 40, 127
2, 75280, Note_off_c, 1, 46, 0
2, 75280, Note_on_c, 1, 52, 127
2, 75280, Note_on_c, 1, 64, 127
2, 75280, Note_on_c, 1, 68, 127
2, 75280, Note_on_c, 1, 74, 127
2, 75520, Note_off_c, 1, 40, 0
2, 75520, Note_on_c, 1, 47, 127
2, 75520, Note_off_c, 1, 52, 0
2, 75520, Note_off_c, 1, 62, 0
2, 75520, Note_on_c, 1, 63, 127
2, 75520, Note_off_c, 1, 64, 0
2, 75520, Note_off_c, 1, 68, 0
2, 75520, Note_on_c, 1, 72, 127
2, 75520, Note_off_c, 1, 74, 0
2, 75720, Note_off_c, 1, 47, 0
2, 75720, Note_off_c, 1, 63, 0
2, 75720, Note_off_c, 1, 72, 0
2, 75760, Note_on_c, 1, 54, 127
2, 75760, Note_on_c, 1, 65, 127
2, 75760, Note_on_c, 1, 68, 127
2, 75760, Note_on_c, 1, 74, 127
2, 76720, Note_off_c, 1, 54, 0
2, 76720, Note_off_c, 1, 65, 0
2, 76720, Note_off_c, 1, 68, 0
2, 76720, Note_off_c, 1, 74, 0
2, 76760, Note_on_c, 1, 54, 127
2, 76760, Note_on_c, 1, 65, 127
2, 76760, Note_on_c, 1, 68, 127
2, 76760, Note_on_c, 1, 74, 127
2, 76960, Note_off_c, 1, 65, 0
2, 76960, Note_off_c, 1, 68, 0
2, 77000, Note_on_c, 1, 65, 127
2, 77000, Note_on_c, 1, 68, 127
2, 77680, Note_off_c, 1, 65, 0
2, 77680, Note_off_c, 1, 68, 0
2, 77720, Note_on_c, 1, 64, 127
2, 77720, Note_on_c, 1, 67, 127
2, 77720, Note_on_c, 1, 70, 127
2, 77920, Note_off_c, 1, 74, 0
2, 77960, Note_on_c, 1, 73, 127
2, 78160, Note_off_c, 1, 54, 0
2, 78160, Note_off_c, 1, 67, 0
2, 78160, Note_off_c, 1, 70, 0
2, 78160, Note_off_c, 1, 73, 0
2, 78200, Note_on_c, 1, 59, 127
2, 78200, Note_on_c, 1, 66, 127
2, 78200, Note_on_c, 1, 71, 127
2, 78640, Note_off_c, 1, 59, 0
2, 78640, Note_on_c, 1, 61, 127
2, 78640, Note_off_c, 1, 64, 0
2, 78640, Note_off_c, 1, 71, 0
2, 78640, Note_on_c, 1, 73, 127
2, 78680, Note_on_c, 1, 59, 127
2, 78680, Note_off_c, 1, 61, 0
2, 78680, Note_on_c, 1, 62, 127
2, 78680, Note_on_c, 1, 71, 127
2, 78680, Note_off_c, 1, 73, 0
2, 78840, Note_on_c, 1, 55, 127
2, 78840, Note_off_c, 1, 59, 0
2, 78840, Note_on_c, 1, 65, 127
2, 78840, Note_off_c, 1, 66, 0
2, 78880, Note_off_c, 1, 55, 0
2, 78880, Note_off_c, 1, 62, 0
2, 78880, Note_off_c, 1, 65, 0
2, 78880, Note_off_c, 1, 71, 0
2, 78920, Note_on_c, 1, 59, 127
2, 78920, Note_on_c, 1, 62, 127
2, 78920, Note_on_c, 1, 66, 127
2, 78920, Note_on_c, 1, 71, 127
2, 79160, Note_off_c, 1, 62, 0
2, 79160, Note_off_c, 1, 66, 0
2, 79160, Note_off_c, 1, 71, 0
2, 79200, Note_on_c, 1, 73, 127
2, 79200, Note_on_c, 1, 75, 127
2, 79200, Note_on_c, 1, 81, 127
2, 79640, Note_off_c, 1, 73, 0
2, 79640, Note_off_c, 1, 75, 0
2, 79640, Note_off_c, 1, 81, 0
2, 79680, Note_on_c, 1, 66, 127
2, 79680, Note_on_c, 1, 75, 127
2, 79680, Note_on_c, 1, 78, 127
2, 79920, Note_off_c, 1, 75, 0
2, 80680, Note_off_c, 1, 66, 0
2, 80680, Note_off_c, 1, 78, 0
2, 80720, Note_on_c, 1, 66, 127
2, 80720, Note_on_c, 1, 71, 127
2, 81040, Note_off_c, 1, 59, 0
2, 81040, Note_off_c, 1, 66, 0
2, 81040, Note_off_c, 1, 71, 0
2, 81080, Note_on_c, 1, 59, 127
2, 81080, Note_on_c, 1, 66, 127
2, 81080, Note_on_c, 1, 71, 127
2, 81200, Note_off_c, 1, 59, 0
2, 81200, Note_off_c, 1, 66, 0
2, 81200, Note_off_c, 1, 71, 0
2, 81240, Note_on_c, 1, 51, 127
2, 81240, Note_on_c, 1, 54, 127
2, 81240, Note_on_c, 1, 59, 127
2, 81240, Note_on_c, 1, 71, 127
2, 81440, Note_on_c, 1, 49, 127
2, 81440, Note_off_c, 1, 51, 0
2, 81440, Note_on_c, 1, 61, 127
2, 81440, Note_on_c, 1, 68, 127
2, 81440, Note_off_c, 1, 71, 0
2, 81480, Note_off_c, 1, 49, 0
2, 81480, Note_off_c, 1, 54, 0
2, 81480, Note_off_c, 1, 59, 0
2, 81480, Note_off_c, 1, 61, 0
2, 81480, Note_off_c, 1, 68, 0
2, 81520, Note_on_c, 1, 71, 127
2, 81720, Note_on_c, 1, 55, 127
2, 81720, Note_on_c, 1, 63, 127
2, 82200, Note_off_c, 1, 55, 0
2, 82200, Note_off_c, 1, 63, 0
2, 82200, Note_off_c, 1, 71, 0
2, 82240, Note_on_c, 1, 35, 127
2, 82240, Note_on_c, 1, 63, 127
2, 82240, Note_on_c, 1, 71, 127
2, 82400, Note_off_c, 1, 63, 0
2, 82400, Note_off_c, 1, 71, 0
2, 82560, Note_on_c, 1, 78, 127
2, 82600, Note_off_c, 1, 78, 0
2, 82680, Note_off_c, 1, 35, 0
2, 82720, Note_on_c, 1, 35, 127
2, 82720, Note_on_c, 1, 62, 127
2, 82720, Note_on_c, 1, 71, 127
2, 82920, Note_off_c, 1, 62, 0
2, 82920, Note_off_c, 1, 71, 0
2, 82960, Note_off_c, 1, 35, 0
2, 83000, Note_on_c, 1, 35, 127
2, 83200, Note_off_c, 1, 35, 0
2, 83240, Note_on_c, 1, 35, 127
2, 83240, Note_on_c, 1, 62, 127
2, 83240, Note_on_c, 1, 71, 127
2, 83440, Note_off_c, 1, 62, 0
2, 83440, Note_off_c, 1, 71, 0
2, 83480, Note_on_c, 1, 63, 127
2, 83680, Note_off_c, 1, 63, 0
2, 83760, Note_on_c, 1, 54, 127
2, 83960, Note_off_c, 1, 54, 0
2, 84240, Note_on_c, 1, 59, 127
2, 84240, Note_on_c, 1, 63, 127
2, 84240, Note_on_c, 1, 66, 127
2, 84240, Note_on_c, 1, 71, 127
2, 84840, Note_off_c, 1, 35, 0
2, 84840, Note_off_c, 1, 59, 0
2, 84840, Note_off_c, 1, 63, 0
2, 84840, Note_off_c, 1, 66, 0
2, 84840, Note_off_c, 1, 71, 0
2, 84880, Note_on_c, 1, 35, 127
2, 84880, Note_on_c, 1, 59, 127
2, 84880, Note_on_c, 1, 63, 127
2, 84880, Note_on_c, 1, 66, 127
2, 84880, Note_on_c, 1, 71, 127
2, 85000, Note_off_c, 1, 59, 0
2, 85000, Note_off_c, 1, 63, 0
2, 85000, Note_off_c, 1, 66, 0
2, 85000, Note_off_c, 1, 71, 0
2, 85520, Note_off_c, 1, 35, 0
2, 85560, Note_on_c, 1, 33, 127
2, 86280, Note_off_c, 1, 33, 0
2, 86320, Note_on_c, 1, 33, 127
2, 86520, Note_off_c, 1, 33, 0
2, 87600, Note_on_c, 1, 41, 127
2, 87600, Note_on_c, 1, 44, 127
2, 87600, Note_on_c, 1, 48, 127
2, 87600, Note_on_c, 1, 53, 127
2, 87600, Note_on_c, 1, 80, 127
2, 87600, Note_on_c, 1, 84, 127
2, 87600, Note_on_c, 1, 89, 127
2, 87600, Note_on_c, 1, 92, 127
2, 89000, Note_off_c, 1, 41, 0
2, 89000, Note_off_c, 1, 44, 0
2, 89000, Note_off_c, 1, 48, 0
2, 89000, Note_off_c, 1, 53, 0
2, 89000, Note_off_c, 1, 80, 0
2, 89000, Note_off_c, 1, 84, 0
2, 89000, Note_off_c, 1, 89, 0
2, 89000, Note_off_c, 1, 92, 0
2, 89960, Note_on_c, 1, 52, 127
2, 89960, Note_on_c, 1, 64, 127
2, 90440, Note_off_c, 1, 52, 0
2, 90440, Note_off_c, 1, 64, 0
2, 90480, Note_on_c, 1, 53, 127
2, 90480, Note_on_c, 1, 65, 127
2, 90920, Note_off_c, 1, 53, 0
2, 90920, Note_off_c, 1, 65, 0
2, 90960, Note_on_c, 1, 53, 127
2, 90960, Note_on_c, 1, 57, 127
2, 90960, Note_on_c, 1, 60, 127
2, 90960, Note_on_c, 1, 65, 127
2, 91440, Note_off_c, 1, 53, 0
2, 91440, Note_off_c, 1, 57, 0
2, 91440, Note_off_c, 1, 60, 0
2, 91440, Note_off_c, 1, 65, 0
2, 91480, Note_on_c, 1, 53, 127
2, 91480, Note_on_c, 1, 57, 127
2, 91480, Note_on_c, 1, 60, 127
2, 91480, Note_on_c, 1, 65, 127
2, 91960, Note_off_c, 1, 57, 0
2, 91960, Note_off_c, 1, 60, 0
2, 92000, Note_on_c, 1, 45, 127
2, 92000, Note_on_c, 1, 52, 127
2, 92000, Note_off_c, 1, 53, 0
2, 92000, Note_on_c, 1, 57, 127
2, 92000, Note_on_c, 1, 64, 127
2, 92000, Note_off_c, 1, 65, 0
2, 92480, Note_off_c, 1, 45, 0
2, 92480, Note_off_c, 1, 52, 0
2, 92480, Note_off_c, 1, 57, 0
2, 92480, Note_off_c, 1, 64, 0
2, 92520, Note_on_c, 1, 53, 127
2, 92520, Note_on_c, 1, 65, 127
2, 92960, Note_off_c, 1, 53, 0
2, 92960, Note_off_c, 1, 65, 0
2, 93000, Note_on_c, 1, 52, 127
2, 93000, Note_on_c, 1, 64, 127
2, 93560, Note_off_c, 1, 52, 0
2, 93560, Note_off_c, 1, 64, 0
2, 93600, Note_on_c, 1, 52, 127
2, 93600, Note_on_c, 1, 64, 127
2, 94480, Note_off_c, 1, 52, 0
2, 94480, Note_off_c, 1, 64, 0
2, 94520, Note_on_c, 1, 53, 127
2, 94520, Note_on_c, 1, 61, 127
2, 94760, Note_on_c, 1, 49, 127
2, 94760, Note_off_c, 1, 53, 0
2, 95000, Note_off_c, 1, 49, 0
2, 95000, Note_off_c, 1, 61, 0
2, 95040, Note_on_c, 1, 58, 127
2, 95240, Note_off_c, 1, 58, 0
2, 95280, Note_on_c, 1, 60, 127
2, 95480, Note_off_c, 1, 60, 0
2, 95560, Note_on_c, 1, 58, 127
2, 95760, Note_off_c, 1, 58, 0
2, 95800, Note_on_c, 1, 64, 127
2, 96000, Note_off_c, 1, 64, 0
2, 96040, Note_on_c, 1, 53, 127
2, 96240, Note_off_c, 1, 53, 0
2, 96280, Note_on_c, 1, 46, 127
2, 96520, Note_on_c, 1, 45, 127
2, 96520, Note_off_c, 1, 46, 0
2, 96720, Note_off_c, 1, 45, 0
2, 96760, Note_on_c, 1, 41, 127
2, 96960, Note_off_c, 1, 41, 0
2, 97000, Note_on_c, 1, 50, 127
2, 97200, Note_off_c, 1, 50, 0
2, 97240, Note_on_c, 1, 61, 127
2, 97480, Note_off_c, 1, 61, 0
2, 97560, Note_on_c, 1, 65, 127
2, 98000, Note_off_c, 1, 65, 0
2, 98040, Note_on_c, 1, 60, 127
2, 98240, Note_off_c, 1, 60, 0
2, 98520, Note_on_c, 1, 67, 127
2, 98960, Note_off_c, 1, 67, 0
2, 99000, Note_on_c, 1, 65, 127
2, 99200, Note_on_c, 1, 64, 127
2, 99200, Note_off_c, 1, 65, 0
2, 99240, Note_off_c, 1, 64, 0
2, 100720, Note_on_c, 1, 41, 127
2, 101840, Note_off_c, 1, 41, 0
2, 101880, Note_on_c, 1, 41, 127
2, 102160, Note_off_c, 1, 41, 0
2, 102200, Note_on_c, 1, 37, 127
2, 102200, Note_on_c, 1, 61, 127
2, 102280, Note_off_c, 1, 37, 0
2, 102280, Note_off_c, 1, 61, 0
2, 102320, Note_on_c, 1, 49, 127
2, 102320, Note_on_c, 1, 73, 127
2, 102400, Note_off_c, 1, 49, 0
2, 102400, Note_off_c, 1, 73, 0
2, 102440, Note_on_c, 1, 37, 127
2, 102440, Note_on_c, 1, 61, 127
2, 102520, Note_off_c, 1, 37, 0
2, 102520, Note_off_c, 1, 61, 0
2, 102560, Note_on_c, 1, 49, 127
2, 102560, Note_on_c, 1, 73, 127
2, 102640, Note_off_c, 1, 49, 0
2, 102640, Note_off_c, 1, 73, 0
2, 102680, Note_on_c, 1, 37, 127
2, 102680, Note_on_c, 1, 61, 127
2, 102760, Note_off_c, 1, 37, 0
2, 102760, Note_off_c, 1, 61, 0
2, 102800, Note_on_c, 1, 49, 127
2, 102800, Note_on_c, 1, 73, 127
2, 102880, Note_off_c, 1, 49, 0
2, 102880, Note_off_c, 1, 73, 0
2, 102920, Note_on_c, 1, 54, 127
2, 102920, Note_on_c, 1, 66, 127
2, 103000, Note_off_c, 1, 54, 0
2, 103000, Note_off_c, 1, 66, 0
2, 103040, Note_on_c, 1, 38, 127
2, 103040, Note_on_c, 1, 74, 127
2, 103120, Note_off_c, 1, 38, 0
2, 103120, Note_off_c, 1, 74, 0
2, 103160, Note_on_c, 1, 54, 127
2, 103160, Note_on_c, 1, 75, 127
2, 103240, Note_off_c, 1, 54, 0
2, 103240, Note_off_c, 1, 75, 0
2, 103280, Note_on_c, 1, 62, 127
2, 103280, Note_on_c, 1, 76, 127
2, 103320, Note_off_c, 1, 76, 0
2, 103320, Note_on_c, 1, 77, 127
2, 103360, Note_off_c, 1, 62, 0
2, 103360, Note_off_c, 1, 77, 0
2, 103400, Note_on_c, 1, 59, 127
2, 103400, Note_on_c, 1, 70, 127
2, 103480, Note_off_c, 1, 59, 0
2, 103480, Note_off_c, 1, 70, 0
2, 103520, Note_on_c, 1, 61, 127
2, 103520, Note_on_c, 1, 71, 127
2, 103600, Note_off_c, 1, 61, 0
2, 103600, Note_off_c, 1, 71, 0
2, 103640, Note_on_c, 1, 59, 127
2, 103640, Note_on_c, 1, 73, 127
2, 103720, Note_off_c, 1, 59, 0
2, 103720, Note_off_c, 1, 73, 0
2, 103760, Note_on_c, 1, 38, 127
2, 103760, Note_on_c, 1, 74, 127
2, 103840, Note_off_c, 1, 38, 0
2, 103840, Note_off_c, 1, 74, 0
2, 103880, Note_on_c, 1, 45, 127
2, 103880, Note_on_c, 1, 78, 127
2, 103960, Note_off_c, 1, 45, 0
2, 103960, Note_off_c, 1, 78, 0
2, 104040, Note_on_c, 1, 47, 127
2, 104040, Note_on_c, 1, 74, 127
2, 104120, Note_off_c, 1, 47, 0
2, 104120, Note_off_c, 1, 74, 0
2, 104160, Note_on_c, 1, 57, 127
2, 104160, Note_on_c, 1, 69, 127
2, 104240, Note_off_c, 1, 57, 0
2, 104240, Note_off_c, 1, 69, 0
2, 104280, Note_on_c, 1, 65, 127
2, 104280, Note_on_c, 1, 68, 127
2, 104360, Note_off_c, 1, 65, 0
2, 104360, Note_off_c, 1, 68, 0
2, 104400, Note_on_c, 1, 61, 127
2, 104400, Note_on_c, 1, 71, 127
2, 104480, Note_off_c, 1, 61, 0
2, 104480, Note_off_c, 1, 71, 0
2, 104520, Note_on_c, 1, 60, 127
2, 104520, Note_on_c, 1, 69, 127
2, 104600, Note_off_c, 1, 60, 0
2, 104600, Note_off_c, 1, 69, 0
2, 104640, Note_on_c, 1, 59, 127
2, 104640, Note_on_c, 1, 68, 127
2, 104720, Note_off_c, 1, 59, 0
2, 104720, Note_off_c, 1, 68, 0
2, 104760, Note_on_c, 1, 57, 127
2, 104760, Note_on_c, 1, 73, 127
2, 104840, Note_off_c, 1, 57, 0
2, 104840, Note_off_c, 1, 73, 0
2, 104880, Note_on_c, 1, 49, 127
2, 104880, Note_on_c, 1, 59, 127
2, 104880, Note_on_c, 1, 68, 127
2, 104880, Note_on_c, 1, 73, 127
2, 104880, Note_on_c, 1, 77, 127
2, 104960, Note_off_c, 1, 49, 0
2, 104960, Note_off_c, 1, 59, 0
2, 104960, Note_off_c, 1, 68, 0
2, 104960, Note_off_c, 1, 73, 0
2, 104960, Note_off_c, 1, 77, 0
2, 105000, Note_on_c, 1, 50, 127
2, 105000, Note_on_c, 1, 77, 127
2, 105080, Note_off_c, 1, 50, 0
2, 105080, Note_off_c, 1, 77, 0
2, 105120, Note_on_c, 1, 49, 127
2, 105120, Note_on_c, 1, 82, 127
2, 105200, Note_off_c, 1, 49, 0
2, 105200, Note_off_c, 1, 82, 0
2, 105240, Note_on_c, 1, 42, 127
2, 105240, Note_on_c, 1, 87, 127
2, 105320, Note_off_c, 1, 42, 0
2, 105320, Note_off_c, 1, 87, 0
2, 105360, Note_on_c, 1, 47, 127
2, 105360, Note_on_c, 1, 80, 127
2, 105440, Note_off_c, 1, 47, 0
2, 105440, Note_off_c, 1, 80, 0
2, 105480, Note_on_c, 1, 54, 127
2, 105480, Note_on_c, 1, 82, 127
2, 105560, Note_off_c, 1, 54, 0
2, 105560, Note_off_c, 1, 82, 0
2, 105600, Note_on_c, 1, 59, 127
2, 105600, Note_on_c, 1, 66, 127
2, 105600, Note_on_c, 1, 69, 127
2, 105600, Note_on_c, 1, 83, 127
2, 105680, Note_off_c, 1, 59, 0
2, 105680, Note_off_c, 1, 66, 0
2, 105680, Note_off_c, 1, 69, 0
2, 105680, Note_off_c, 1, 83, 0
2, 105720, Note_on_c, 1, 51, 127
2, 105720, Note_on_c, 1, 87, 127
2, 105800, Note_off_c, 1, 51, 0
2, 105800, Note_off_c, 1, 87, 0
2, 105880, Note_on_c, 1, 46, 127
2, 105880, Note_on_c, 1, 86, 127
2, 105880, Note_on_c, 1, 91, 127
2, 105920, Note_on_c, 1, 45, 127
2, 105920, Note_off_c, 1, 46, 0
2, 105920, Note_on_c, 1, 47, 127
2, 105920, Note_on_c, 1, 57, 127
2, 105920, Note_on_c, 1, 63, 127
2, 105920, Note_on_c, 1, 66, 127
2, 105920, Note_on_c, 1, 71, 127
2, 105920, Note_on_c, 1, 75, 127
2, 105920, Note_off_c, 1, 86, 0
2, 105920, Note_off_c, 1, 91, 0
2, 105960, Note_off_c, 1, 45, 0
2, 105960, Note_off_c, 1, 47, 0
2, 105960, Note_off_c, 1, 57, 0
2, 105960, Note_off_c, 1, 63, 0
2, 105960, Note_off_c, 1, 66, 0
2, 105960, Note_off_c, 1, 71, 0
2, 105960, Note_off_c, 1, 75, 0
2, 106000, Note_on_c, 1, 46, 127
2, 106000, Note_on_c, 1, 82, 127
2, 106080, Note_off_c, 1, 46, 0
2, 106080, Note_off_c, 1, 82, 0
2, 106120, Note_on_c, 1, 30, 127
2, 106120, Note_on_c, 1, 42, 127
2, 106120, Note_on_c, 1, 74, 127
2, 106120, Note_on_c, 1, 86, 127
2, 106160, Note_off_c, 1, 30, 0
2, 106160, Note_on_c, 1, 39, 127
2, 106160, Note_on_c, 1, 45, 127
2, 106160, Note_on_c, 1, 48, 127
2, 106160, Note_off_c, 1, 74, 0
2, 106160, Note_on_c, 1, 78, 127
2, 106160, Note_off_c, 1, 86, 0
2, 106160, Note_on_c, 1, 90, 127
2, 106200, Note_off_c, 1, 39, 0
2, 106200, Note_off_c, 1, 42, 0
2, 106200, Note_off_c, 1, 45, 0
2, 106200, Note_off_c, 1, 48, 0
2, 106200, Note_off_c, 1, 78, 0
2, 106200, Note_off_c, 1, 90, 0
2, 106240, Note_on_c, 1, 34, 127
2, 106240, Note_on_c, 1, 82, 127
2, 106280, Note_off_c, 1, 34, 0
2, 106280, Note_off_c, 1, 82, 0
2, 106360, Note_on_c, 1, 35, 127
2, 106360, Note_on_c, 1, 42, 127
2, 106360, Note_on_c, 1, 47, 127
2, 106360, Note_on_c, 1, 54, 127
2, 106360, Note_on_c, 1, 61, 127
2, 106360, Note_on_c, 1, 64, 127
2, 106440, Note_off_c, 1, 35, 0
2, 106440, Note_off_c, 1, 42, 0
2, 106440, Note_off_c, 1, 47, 0
2, 106440, Note_off_c, 1, 54, 0
2, 106440, Note_off_c, 1, 61, 0
2, 106440, Note_off_c, 1, 64, 0
2, 106600, Note_on_c, 1, 31, 127
2, 106600, Note_on_c, 1, 43, 127
2, 106600, Note_on_c, 1, 79, 127
2, 106600, Note_on_c, 1, 91, 127
2, 106680, Note_off_c, 1, 31, 0
2, 106680, Note_off_c, 1, 43, 0
2, 106680, Note_off_c, 1, 79, 0
2, 106680, Note_off_c, 1, 91, 0
2, 107680, Note_on_c, 1, 59, 127
2, 107680, Note_on_c, 1, 62, 127
2, 107680, Note_on_c, 1, 79, 127
2, 107680, Note_on_c, 1, 91, 127
2, 107760, Note_off_c, 1, 59, 0
2, 107760, Note_off_c, 1, 62, 0
2, 107760, Note_off_c, 1, 79, 0
2, 107760, Note_off_c, 1, 91, 0
2, 107920, Note_on_c, 1, 54, 127
2, 107920, Note_on_c, 1, 62, 127
2, 107920, Note_on_c, 1, 69, 127
2, 107920, Note_on_c, 1, 81, 127
2, 108000, Note_off_c, 1, 54, 0
2, 108000, Note_off_c, 1, 62, 0
2, 108000, Note_off_c, 1, 69, 0
2, 108000, Note_off_c, 1, 81, 0
2, 108480, Note_on_c, 1, 43, 127
2, 108480, Note_on_c, 1, 49, 127
2, 108480, Note_on_c, 1, 59, 127
2, 108480, Note_on_c, 1, 61, 127
2, 108680, Note_off_c, 1, 43, 0
2, 108680, Note_off_c, 1, 49, 0
2, 108680, Note_off_c, 1, 59, 0
2, 108680, Note_off_c, 1, 61, 0
2, 109440, Note_on_c, 1, 39, 127
2, 109440, Note_on_c, 1, 42, 127
2, 109440, Note_on_c, 1, 46, 127
2, 109440, Note_on_c, 1, 51, 127
2, 109440, Note_on_c, 1, 54, 127
2, 109440, Note_on_c, 1, 58, 127
2, 109440, Note_on_c, 1, 63, 127
2, 110600, Note_off_c, 1, 39, 0
2, 110600, Note_off_c, 1, 42, 0
2, 110600, Note_off_c, 1, 46, 0
2, 110600, Note_off_c, 1, 51, 0
2, 110600, Note_off_c, 1, 54, 0
2, 110600, Note_off_c, 1, 58, 0
2, 110600, Note_off_c, 1, 63, 0
2, 110640, Note_on_c, 1, 39, 127
2, 110640, Note_on_c, 1, 42, 127
2, 110640, Note_on_c, 1, 46, 127
2, 110640, Note_on_c, 1, 51, 127
2, 110640, Note_on_c, 1, 54, 127
2, 110640, Note_on_c, 1, 58, 127
2, 110640, Note_on_c, 1, 63, 127
2, 111080, Note_off_c, 1, 39, 0
2, 111080, Note_off_c, 1, 42, 0
2, 111080, Note_off_c, 1, 46, 0
2, 111080, Note_off_c, 1, 51, 0
2, 111080, Note_off_c, 1, 54, 0
2, 111080, Note_off_c, 1, 58, 0
2, 111080, Note_off_c, 1, 63, 0
2, 112120, Note_on_c, 1, 80, 127
2, 112160, Note_off_c, 1, 80, 0
2, 112200, Note_on_c, 1, 59, 127
2, 112200, Note_on_c, 1, 77, 127
2, 112280, Note_off_c, 1, 59, 0
2, 112280, Note_off_c, 1, 77, 0
2, 112320, Note_on_c, 1, 58, 127
2, 112320, Note_on_c, 1, 76, 127
2, 112400, Note_off_c, 1, 58, 0
2, 112400, Note_off_c, 1, 76, 0
2, 112440, Note_on_c, 1, 59, 127
2, 112440, Note_on_c, 1, 74, 127
2, 112560, Note_off_c, 1, 59, 0
2, 112560, Note_off_c, 1, 74, 0
2, 112600, Note_on_c, 1, 61, 127
2, 112600, Note_on_c, 1, 76, 127
2, 112680, Note_off_c, 1, 61, 0
2, 112680, Note_off_c, 1, 76, 0
2, 112720, Note_on_c, 1, 50, 127
2, 112720, Note_on_c, 1, 77, 127
2, 112800, Note_off_c, 1, 50, 0
2, 112800, Note_off_c, 1, 77, 0
2, 112840, Note_on_c, 1, 59, 127
2, 112840, Note_on_c, 1, 80, 127
2, 112920, Note_off_c, 1, 59, 0
2, 112920, Note_off_c, 1, 80, 0
2, 112960, Note_on_c, 1, 54, 127
2, 112960, Note_on_c, 1, 81, 127
2, 113040, Note_off_c, 1, 54, 0
2, 113040, Note_off_c, 1, 81, 0
2, 113080, Note_on_c, 1, 58, 127
2, 113080, Note_on_c, 1, 82, 127
2, 113160, Note_off_c, 1, 58, 0
2, 113160, Note_off_c, 1, 82, 0
2, 113200, Note_on_c, 1, 54, 127
2, 113200, Note_on_c, 1, 78, 127
2, 113280, Note_off_c, 1, 54, 0
2, 113280, Note_off_c, 1, 78, 0
2, 113400, Note_on_c, 1, 63, 127
2, 113400, Note_on_c, 1, 71, 127
2, 113480, Note_off_c, 1, 63, 0
2, 113480, Note_off_c, 1, 71, 0
2, 113520, Note_on_c, 1, 66, 127
2, 113520, Note_on_c, 1, 75, 127
2, 113600, Note_off_c, 1, 66, 0
2, 113600, Note_off_c, 1, 75, 0
2, 113640, Note_on_c, 1, 63, 127
2, 113640, Note_on_c, 1, 71, 127
2, 113720, Note_off_c, 1, 63, 0
2, 113720, Note_off_c, 1, 71, 0
2, 113760, Note_on_c, 1, 56, 127
2, 113760, Note_on_c, 1, 75, 127
2, 113840, Note_off_c, 1, 56, 0
2, 113840, Note_off_c, 1, 75, 0
2, 113880, Note_on_c, 1, 68, 127
2, 113880, Note_on_c, 1, 83, 127
2, 113960, Note_off_c, 1, 68, 0
2, 113960, Note_off_c, 1, 83, 0
2, 114000, Note_on_c, 1, 66, 127
2, 114000, Note_on_c, 1, 75, 127
2, 114120, Note_off_c, 1, 66, 0
2, 114120, Note_off_c, 1, 75, 0
2, 114160, Note_on_c, 1, 63, 127
2, 114160, Note_on_c, 1, 87, 127
2, 114520, Note_off_c, 1, 63, 0
2, 114520, Note_off_c, 1, 87, 0
2, 114640, Note_on_c, 1, 59, 127
2, 114640, Note_on_c, 1, 68, 127
2, 114840, Note_off_c, 1, 59, 0
2, 114840, Note_off_c, 1, 68, 0
2, 114920, Note_on_c, 1, 59, 127
2, 114920, Note_on_c, 1, 68, 127
2, 114960, Note_on_c, 1, 67, 127
2, 114960, Note_off_c, 1, 68, 0
2, 115000, Note_off_c, 1, 59, 0
2, 115000, Note_off_c, 1, 67, 0
2, 115040, Note_on_c, 1, 61, 127
2, 115040, Note_on_c, 1, 70, 127
2, 115120, Note_off_c, 1, 61, 0
2, 115120, Note_off_c, 1, 70, 0
2, 115160, Note_on_c, 1, 59, 127
2, 115160, Note_on_c, 1, 67, 127
2, 115240, Note_off_c, 1, 59, 0
2, 115240, Note_off_c, 1, 67, 0
2, 115480, Note_on_c, 1, 63, 127
2, 115480, Note_on_c, 1, 87, 127
2, 115560, Note_off_c, 1, 63, 0
2, 115560, Note_off_c, 1, 87, 0
2, 115600, Note_on_c, 1, 64, 127
2, 115600, Note_on_c, 1, 88, 127
2, 115680, Note_off_c, 1, 64, 0
2, 115680, Note_off_c, 1, 88, 0
2, 115720, Note_on_c, 1, 62, 127
2, 115720, Note_on_c, 1, 86, 127
2, 115800, Note_off_c, 1, 62, 0
2, 115800, Note_off_c, 1, 86, 0
2, 115840, Note_on_c, 1, 68, 127
2, 115840, Note_on_c, 1, 92, 127
2, 116240, Note_on_c, 1, 84, 127
2, 116240, Note_off_c, 1, 92, 0
2, 116280, Note_off_c, 1, 68, 0
2, 116280, Note_off_c, 1, 84, 0
2, 116320, Note_on_c, 1, 73, 127
2, 116320, Note_on_c, 1, 89, 127
2, 116360, Note_off_c, 1, 73, 0
2, 116360, Note_off_c, 1, 89, 0
2, 116400, Note_on_c, 1, 70, 127
2, 116400, Note_on_c, 1, 85, 127
2, 116440, Note_off_c, 1, 70, 0
2, 116440, Note_on_c, 1, 71, 127
2, 116440, Note_on_c, 1, 80, 127
2, 116440, Note_off_c, 1, 85, 0
2, 116480, Note_off_c, 1, 71, 0
2, 116480, Note_off_c, 1, 80, 0
2, 116520, Note_on_c, 1, 73, 127
2, 116520, Note_on_c, 1, 82, 127
2, 116560, Note_on_c, 1, 71, 127
2, 116560, Note_off_c, 1, 73, 0
2, 116560, Note_on_c, 1, 80, 127
2, 116560, Note_off_c, 1, 82, 0
2, 116600, Note_off_c, 1, 71, 0
2, 116600, Note_off_c, 1, 80, 0
2, 116640, Note_on_c, 1, 68, 127
2, 116640, Note_on_c, 1, 75, 127
2, 116680, Note_on_c, 1, 63, 127
2, 116680, Note_off_c, 1, 68, 0
2, 116680, Note_on_c, 1, 72, 127
2, 116680, Note_off_c, 1, 75, 0
2, 116720, Note_off_c, 1, 63, 0
2, 116720, Note_off_c, 1, 72, 0
2, 116760, Note_on_c, 1, 68, 127
2, 116760, Note_on_c, 1, 80, 127
2, 116800, Note_on_c, 1, 77, 127
2, 116800, Note_off_c, 1, 80, 0
2, 116840, Note_off_c, 1, 68, 0
2, 116840, Note_off_c, 1, 77, 0
2, 116880, Note_on_c, 1, 66, 127
2, 116880, Note_on_c, 1, 75, 127
2, 116920, Note_off_c, 1, 66, 0
2, 116920, Note_on_c, 1, 68, 127
2, 116920, Note_off_c, 1, 75, 0
2, 116920, Note_on_c, 1, 76, 127
2, 116960, Note_off_c, 1, 68, 0
2, 116960, Note_off_c, 1, 76, 0
2, 117000, Note_on_c, 1, 68, 127
2, 117000, Note_on_c, 1, 76, 127
2, 117040, Note_off_c, 1, 76, 0
2, 117040, Note_on_c, 1, 83, 127
2, 117080, Note_off_c, 1, 68, 0
2, 117080, Note_off_c, 1, 83, 0
2, 117120, Note_on_c, 1, 68, 127
2, 117120, Note_on_c, 1, 83, 127
2, 117160, Note_on_c, 1, 65, 127
2, 117160, Note_off_c, 1, 68, 0
2, 117160, Note_on_c, 1, 80, 127
2, 117160, Note_off_c, 1, 83, 0
2, 117200, Note_off_c, 1, 65, 0
2, 117200, Note_off_c, 1, 80, 0
2, 117240, Note_on_c, 1, 66, 127
2, 117240, Note_on_c, 1, 75, 127
2, 117280, Note_off_c, 1, 66, 0
2, 117280, Note_on_c, 1, 68, 127
2, 117320, Note_off_c, 1, 68, 0
2, 117320, Note_off_c, 1, 75, 0
2, 117360, Note_on_c, 1, 64, 127
2, 117360, Note_on_c, 1, 73, 127
2, 117400, Note_on_c, 1, 61, 127
2, 117400, Note_off_c, 1, 64, 0
2, 117400, Note_on_c, 1, 70, 127
2, 117400, Note_off_c, 1, 73, 0
2, 117440, Note_off_c, 1, 61, 0
2, 117440, Note_off_c, 1, 70, 0
2, 117480, Note_on_c, 1, 61, 127
2, 117480, Note_on_c, 1, 70, 127
2, 117560, Note_off_c, 1, 61, 0
2, 117560, Note_off_c, 1, 70, 0
2, 117600, Note_on_c, 1, 68, 127
2, 117600, Note_on_c, 1, 75, 127
2, 117640, Note_off_c, 1, 68, 0
2, 117640, Note_off_c, 1, 75, 0
2, 117680, Note_on_c, 1, 73, 127
2, 117680, Note_on_c, 1, 80, 127
2, 117720, Note_off_c, 1, 73, 0
2, 117720, Note_off_c, 1, 80, 0
2, 117760, Note_on_c, 1, 76, 127
2, 117760, Note_on_c, 1, 84, 127
2, 117840, Note_off_c, 1, 76, 0
2, 117840, Note_off_c, 1, 84, 0
2, 117880, Note_on_c, 1, 78, 127
2, 117880, Note_on_c, 1, 87, 127
2, 117960, Note_off_c, 1, 78, 0
2, 117960, Note_off_c, 1, 87, 0
2, 118000, Note_on_c, 1, 80, 127
2, 118000, Note_on_c, 1, 87, 127
2, 118040, Note_off_c, 1, 87, 0
2, 118040, Note_on_c, 1, 89, 127
2, 118080, Note_on_c, 1, 88, 127
2, 118080, Note_off_c, 1, 89, 0
2, 118200, Note_off_c, 1, 80, 0
2, 118200, Note_off_c, 1, 88, 0
2, 118240, Note_on_c, 1, 79, 127
2, 118240, Note_on_c, 1, 87, 127
2, 118320, Note_off_c, 1, 79, 0
2, 118320, Note_off_c, 1, 87, 0
2, 118360, Note_on_c, 1, 77, 127
2, 118360, Note_on_c, 1, 85, 127
2, 118440, Note_off_c, 1, 77, 0
2, 118440, Note_off_c, 1, 85, 0
2, 118480, Note_on_c, 1, 80, 127
2, 118480, Note_on_c, 1, 89, 127
2, 118560, Note_off_c, 1, 80, 0
2, 118560, Note_off_c, 1, 89, 0
2, 118600, Note_on_c, 1, 80, 127
2, 118600, Note_on_c, 1, 89, 127
2, 118680, Note_off_c, 1, 80, 0
2, 118680, Note_off_c, 1, 89, 0
2, 118720, Note_on_c, 1, 83, 127
2, 118720, Note_on_c, 1, 91, 127
2, 118800, Note_off_c, 1, 83, 0
2, 118800, Note_off_c, 1, 91, 0
2, 118840, Note_on_c, 1, 87, 127
2, 118840, Note_on_c, 1, 95, 127
2, 118920, Note_off_c, 1, 87, 0
2, 118920, Note_off_c, 1, 95, 0
2, 118960, Note_on_c, 1, 88, 127
2, 118960, Note_on_c, 1, 97, 127
2, 119040, Note_off_c, 1, 88, 0
2, 119040, Note_off_c, 1, 97, 0
2, 119440, Note_on_c, 1, 61, 127
2, 119520, Note_off_c, 1, 61, 0
2, 119560, Note_on_c, 1, 59, 127
2, 119640, Note_off_c, 1, 59, 0
2, 119680, Note_on_c, 1, 61, 127
2, 119720, Note_off_c, 1, 61, 0
2, 119760, Note_on_c, 1, 61, 127
2, 119840, Note_off_c, 1, 61, 0
2, 119880, Note_on_c, 1, 59, 127
2, 119960, Note_off_c, 1, 59, 0
2, 120040, End_track
3, 0, Start_track
3, 0, Title_t, "MIDI"
3, 1536, End_track
0, 0, End_of_file
