0, 0, Header, 1, 3, 192
1, 0, Start_track
1, 0, Time_signature, 4, 2, 24, 8
1, 0, Tempo, 500000
1, 120040, End_track
2, 0, Start_track
2, 0, Text_t, "random instrument: random person i dunno whatev"
2, 0, Title_t, "Track 1"
2, 0, Note_on_c, 1, 34, 127
2, 0, Note_on_c, 1, 53, 127
2, 0, Note_on_c, 1, 56, 127
2, 0, Note_on_c, 1, 62, 127
2, 40, Note_off_c, 1, 34, 0
2, 40, Note_off_c, 1, 53, 0
2, 40, Note_off_c, 1, 56, 0
2, 40, Note_off_c, 1, 62, 0
2, 80, Note_on_c, 1, 31, 127
2, 80, Note_on_c, 1, 43, 127
2, 80, Note_on_c, 1, 59, 127
2, 80, Note_on_c, 1, 65, 127
2, 80, Note_on_c, 1, 67, 127
2, 120, Note_off_c, 1, 31, 0
2, 120, Note_on_c, 1, 34, 127
2, 120, Note_off_c, 1, 43, 0
2, 120, Note_on_c, 1, 53, 127
2, 120, Note_on_c, 1, 56, 127
2, 120, Note_off_c, 1, 59, 0
2, 120, Note_on_c, 1, 62, 127
2, 120, Note_off_c, 1, 65, 0
2, 120, Note_off_c, 1, 67, 0
2, 160, Note_off_c, 1, 34, 0
2, 160, Note_on_c, 1, 43, 127
2, 160, Note_on_c, 1, 47, 127
2, 160, Note_off_c, 1, 53, 0
2, 160, Note_on_c, 1, 55, 127
2, 160, Note_off_c, 1, 56, 0
2, 160, Note_off_c, 1, 62, 0
2, 160, Note_on_c, 1, 79, 127
2, 160, Note_on_c, 1, 83, 127
2, 160, Note_on_c, 1, 87, 127
2, 160, Note_on_c, 1, 91, 127
2, 200, Note_on_c, 1, 34, 127
2, 200, Note_off_c, 1, 43, 0
2, 200, Note_off_c, 1, 47, 0
2, 200, Note_on_c, 1, 53, 127
2, 200, Note_off_c, 1, 55, 0
2, 200, Note_on_c, 1, 56, 127
2, 200, Note_on_c, 1, 62, 127
2, 200, Note_off_c, 1, 79, 0
2, 200, Note_off_c, 1, 83, 0
2, 200, Note_off_c, 1, 87, 0
2, 200, Note_off_c, 1, 91, 0
2, 320, Note_off_c, 1, 34, 0
2, 320, Note_off_c, 1, 53, 0
2, 320, Note_off_c, 1, 56, 0
2, 320, Note_off_c, 1, 62, 0
2, 320, Note_on_c, 1, 65, 127
2, 360, Note_on_c, 1, 34, 127
2, 360, Note_on_c, 1, 53, 127
2, 360, Note_on_c, 1, 56, 127
2, 360, Note_on_c, 1, 62, 127
2, 360, Note_off_c, 1, 65, 0
2, 1040, Note_off_c, 1, 62, 0
2, 1440, Note_off_c, 1, 53, 0
2, 1440, Note_off_c, 1, 56, 0
2, 1480, Note_on_c, 1, 46, 127
2, 1480, Note_on_c, 1, 48, 127
2, 2040, Note_off_c, 1, 34, 0
2, 2040, Note_off_c, 1, 46, 0
2, 2040, Note_off_c, 1, 48, 0
2, 2080, Note_on_c, 1, 34, 127
2, 2080, Note_on_c, 1, 46, 127
2, 2080, Note_on_c, 1, 48, 127
2, 2160, Note_off_c, 1, 46, 0
2, 2160, Note_off_c, 1, 48, 0
2, 2280, Note_off_c, 1, 34, 0
2, 5240, Note_on_c, 1, 43, 127
2, 5240, Note_on_c, 1, 50, 127
2, 5240, Note_on_c, 1, 60, 127
2, 5240, Note_on_c, 1, 62, 127
2, 5240, Note_on_c, 1, 69, 127
2, 5400, Note_off_c, 1, 43, 0
2, 5400, Note_off_c, 1, 50, 0
2, 5400, Note_off_c, 1, 60, 0
2, 5400, Note_off_c, 1, 62, 0
2, 5400, Note_off_c, 1, 69, 0
2, 7560, Note_on_c, 1, 51, 127
2, 7560, Note_on_c, 1, 54, 127
2, 7560, Note_on_c, 1, 59, 127
2, 7880, Note_off_c, 1, 51, 0
2, 7880, Note_off_c, 1, 54, 0
2, 7880, Note_off_c, 1, 59, 0
2, 7920, Note_on_c, 1, 51, 127
2, 7920, Note_on_c, 1, 54, 127
2, 7920, Note_on_c, 1, 59, 127
2, 8360, Note_off_c, 1, 51, 0
2, 8360, Note_off_c, 1, 54, 0
2, 8360, Note_off_c, 1, 59, 0
2, 18240, Note_on_c, 1, 40, 127
2, 18240, Note_on_c, 1, 52, 127
2, 18240, Note_on_c, 1, 64, 127
2, 18360, Note_off_c, 1, 40, 0
2, 18360, Note_off_c, 1, 52, 0
2, 18360, Note_off_c, 1, 64, 0
2, 18400, Note_on_c, 1, 40, 127
2, 18400, Note_on_c, 1, 52, 127
2, 18400, Note_on_c, 1, 64, 127
2, 19040, Note_off_c, 1, 40, 0
2, 19040, Note_off_c, 1, 52, 0
2, 19040, Note_off_c, 1, 64, 0
2, 19080, Note_on_c, 1, 35, 127
2, 19080, Note_on_c, 1, 47, 127
2, 19080, Note_on_c, 1, 59, 127
2, 19080, Note_on_c, 1, 71, 127
2, 20240, Note_off_c, 1, 35, 0
2, 20240, Note_off_c, 1, 47, 0
2, 20240, Note_off_c, 1, 59, 0
2, 20240, Note_off_c, 1, 71, 0
2, 20280, Note_on_c, 1, 36, 127
2, 20280, Note_on_c, 1, 48, 127
2, 20280, Note_on_c, 1, 60, 127
2, 20280, Note_on_c, 1, 72, 127
2, 20480, Note_off_c, 1, 36, 0
2, 20480, Note_off_c, 1, 48, 0
2, 20480, Note_off_c, 1, 60, 0
2, 20480, Note_off_c, 1, 72, 0
2, 25480, Note_on_c, 1, 42, 127
2, 26040, Note_off_c, 1, 42, 0
2, 26080, Note_on_c, 1, 41, 127
2, 26160, Note_off_c, 1, 41, 0
2, 26200, Note_on_c, 1, 41, 127
2, 26480, Note_off_c, 1, 41, 0
2, 26520, Note_on_c, 1, 37, 127
2, 26840, Note_off_c, 1, 37, 0
2, 26880, Note_on_c, 1, 44, 127
2, 27240, Note_off_c, 1, 44, 0
2, 27280, Note_on_c, 1, 49, 127
2, 27640, Note_off_c, 1, 49, 0
2, 27680, Note_on_c, 1, 54, 127
2, 28040, Note_off_c, 1, 54, 0
2, 28080, Note_on_c, 1, 49, 127
2, 28440, Note_off_c, 1, 49, 0
2, 28480, Note_on_c, 1, 51, 127
2, 28800, Note_off_c, 1, 51, 0
2, 28840, Note_on_c, 1, 49, 127
2, 28880, Note_off_c, 1, 49, 0
2, 28920, Note_on_c, 1, 49, 127
2, 29640, Note_off_c, 1, 49, 0
2, 29680, Note_on_c, 1, 53, 127
2, 30040, Note_off_c, 1, 53, 0
2, 30080, Note_on_c, 1, 61, 127
2, 30440, Note_off_c, 1, 61, 0
2, 30480, Note_on_c, 1, 68, 127
2, 30840, Note_off_c, 1, 68, 0
2, 30880, Note_on_c, 1, 42, 127
2, 31160, Note_off_c, 1, 42, 0
2, 31200, Note_on_c, 1, 42, 127
2, 31280, Note_off_c, 1, 42, 0
2, 31320, Note_on_c, 1, 37, 127
2, 31680, Note_off_c, 1, 37, 0
2, 31720, Note_on_c, 1, 37, 127
2, 32040, Note_off_c, 1, 37, 0
2, 32080, Note_on_c, 1, 41, 127
2, 32440, Note_off_c, 1, 41, 0
2, 32480, Note_on_c, 1, 42, 127
2, 32480, Note_on_c, 1, 51, 127
2, 32480, Note_on_c, 1, 60, 127
2, 32480, Note_on_c, 1, 72, 127
2, 32840, Note_off_c, 1, 60, 0
2, 32840, Note_off_c, 1, 72, 0
2, 32880, Note_on_c, 1, 60, 127
2, 32880, Note_on_c, 1, 72, 127
2, 33240, Note_off_c, 1, 42, 0
2, 33240, Note_off_c, 1, 51, 0
2, 33240, Note_off_c, 1, 60, 0
2, 33240, Note_off_c, 1, 72, 0
2, 33320, Note_on_c, 1, 47, 127
2, 33320, Note_on_c, 1, 56, 127
2, 33320, Note_on_c, 1, 59, 127
2, 33320, Note_on_c, 1, 71, 127
2, 33680, Note_off_c, 1, 56, 0
2, 33680, Note_off_c, 1, 59, 0
2, 33680, Note_off_c, 1, 71, 0
2, 33720, Note_on_c, 1, 66, 127
2, 33720, Note_on_c, 1, 75, 127
2, 34040, Note_off_c, 1, 75, 0
2, 34080, Note_off_c, 1, 66, 0
2, 34120, Note_on_c, 1, 66, 127
2, 34120, Note_on_c, 1, 75, 127
2, 34440, Note_off_c, 1, 75, 0
2, 34520, Note_on_c, 1, 75, 127
2, 34840, Note_off_c, 1, 75, 0
2, 34880, Note_off_c, 1, 66, 0
2, 34920, Note_on_c, 1, 66, 127
2, 34920, Note_on_c, 1, 75, 127
2, 35200, Note_off_c, 1, 75, 0
2, 35240, Note_on_c, 1, 75, 127
2, 35280, Note_off_c, 1, 66, 0
2, 35280, Note_off_c, 1, 75, 0
2, 35320, Note_on_c, 1, 66, 127
2, 35320, Note_on_c, 1, 75, 127
2, 35400, Note_off_c, 1, 47, 0
2, 35400, Note_off_c, 1, 66, 0
2, 35400, Note_off_c, 1, 75, 0
2, 35440, Note_on_c, 1, 47, 127
2, 35440, Note_on_c, 1, 66, 127
2, 35440, Note_on_c, 1, 75, 127
2, 35520, Note_off_c, 1, 75, 0
2, 35560, Note_on_c, 1, 76, 127
2, 35720, Note_off_c, 1, 66, 0
2, 35720, Note_off_c, 1, 76, 0
2, 35760, Note_on_c, 1, 66, 127
2, 35760, Note_on_c, 1, 74, 127
2, 35920, Note_off_c, 1, 66, 0
2, 35920, Note_off_c, 1, 74, 0
2, 35960, Note_on_c, 1, 59, 127
2, 36120, Note_off_c, 1, 47, 0
2, 36120, Note_off_c, 1, 59, 0
2, 36160, Note_on_c, 1, 42, 127
2, 36160, Note_on_c, 1, 58, 127
2, 36160, Note_on_c, 1, 66, 127
2, 36520, Note_off_c, 1, 58, 0
2, 36560, Note_on_c, 1, 61, 127
2, 36920, Note_off_c, 1, 42, 0
2, 36920, Note_off_c, 1, 61, 0
2, 36920, Note_off_c, 1, 66, 0
2, 36960, Note_on_c, 1, 51, 127
2, 36960, Note_on_c, 1, 59, 127
2, 36960, Note_on_c, 1, 66, 127
2, 37320, Note_off_c, 1, 59, 0
2, 37360, Note_on_c, 1, 54, 127
2, 37480, Note_off_c, 1, 51, 0
2, 37480, Note_off_c, 1, 54, 0
2, 37480, Note_off_c, 1, 66, 0
2, 37520, Note_on_c, 1, 51, 127
2, 37520, Note_on_c, 1, 54, 127
2, 37520, Note_on_c, 1, 66, 127
2, 37760, Note_off_c, 1, 51, 0
2, 37760, Note_off_c, 1, 54, 0
2, 37800, Note_on_c, 1, 46, 127
2, 37800, Note_on_c, 1, 61, 127
2, 38160, Note_off_c, 1, 61, 0
2, 38200, Note_on_c, 1, 54, 127
2, 38560, Note_off_c, 1, 46, 0
2, 38600, Note_on_c, 1, 42, 127
2, 39000, Note_off_c, 1, 54, 0
2, 39000, Note_on_c, 1, 61, 127
2, 39360, Note_off_c, 1, 42, 0
2, 39360, Note_off_c, 1, 61, 0
2, 39400, Note_on_c, 1, 42, 127
2, 39400, Note_on_c, 1, 49, 127
2, 39640, Note_off_c, 1, 42, 0
2, 39640, Note_off_c, 1, 49, 0
2, 39640, Note_off_c, 1, 66, 0
2, 39680, Note_on_c, 1, 42, 127
2, 39680, Note_on_c, 1, 49, 127
2, 39680, Note_on_c, 1, 66, 127
2, 40200, Note_off_c, 1, 42, 0
2, 40200, Note_off_c, 1, 49, 0
2, 40200, Note_off_c, 1, 66, 0
2, 40240, Note_on_c, 1, 42, 127
2, 40240, Note_on_c, 1, 49, 127
2, 40240, Note_on_c, 1, 58, 127
2, 40240, Note_on_c, 1, 63, 127
2, 40600, Note_off_c, 1, 42, 0
2, 40600, Note_on_c, 1, 44, 127
2, 40600, Note_off_c, 1, 49, 0
2, 40600, Note_off_c, 1, 58, 0
2, 40600, Note_off_c, 1, 63, 0
2, 40600, Note_on_c, 1, 65, 127
2, 40640, Note_off_c, 1, 44, 0
2, 40640, Note_on_c, 1, 62, 127
2, 40640, Note_on_c, 1, 70, 127
2, 40640, Note_on_c, 1, 82, 127
2, 40640, Note_on_c, 1, 89, 127
2, 40680, Note_on_c, 1, 47, 127
2, 40680, Note_on_c, 1, 54, 127
2, 40680, Note_on_c, 1, 57, 127
2, 40680, Note_on_c, 1, 59, 127
2, 40680, Note_off_c, 1, 62, 0
2, 40680, Note_on_c, 1, 63, 127
2, 40680, Note_off_c, 1, 65, 0
2, 40680, Note_on_c, 1, 69, 127
2, 40680, Note_off_c, 1, 70, 0
2, 40680, Note_off_c, 1, 82, 0
2, 40680, Note_off_c, 1, 89, 0
2, 40720, Note_off_c, 1, 47, 0
2, 40720, Note_on_c, 1, 48, 127
2, 40720, Note_on_c, 1, 51, 127
2, 40720, Note_off_c, 1, 54, 0
2, 40720, Note_on_c, 1, 55, 127
2, 40720, Note_off_c, 1, 57, 0
2, 40720, Note_off_c, 1, 59, 0
2, 40720, Note_on_c, 1, 60, 127
2, 40720, Note_off_c, 1, 63, 0
2, 40720, Note_on_c, 1, 65, 127
2, 40720, Note_off_c, 1, 69, 0
2, 40760, Note_on_c, 1, 39, 127
2, 40760, Note_off_c, 1, 48, 0
2, 40760, Note_off_c, 1, 51, 0
2, 40760, Note_on_c, 1, 53, 127
2, 40760, Note_off_c, 1, 55, 0
2, 40760, Note_off_c, 1, 60, 0
2, 40760, Note_off_c, 1, 65, 0
2, 40760, Note_on_c, 1, 80, 127
2, 40800, Note_on_c, 1, 35, 127
2, 40800, Note_off_c, 1, 39, 0
2, 40800, Note_off_c, 1, 53, 0
2, 40800, Note_on_c, 1, 68, 127
2, 40800, Note_on_c, 1, 73, 127
2, 40800, Note_off_c, 1, 80, 0
2, 40840, Note_off_c, 1, 35, 0
2, 40840, Note_on_c, 1, 48, 127
2, 40840, Note_on_c, 1, 60, 127
2, 40840, Note_off_c, 1, 68, 0
2, 40840, Note_on_c, 1, 70, 127
2, 40840, Note_off_c, 1, 73, 0
2, 40840, Note_on_c, 1, 76, 127
2, 40840, Note_on_c, 1, 79, 127
2, 41000, Note_off_c, 1, 48, 0
2, 41000, Note_off_c, 1, 60, 0
2, 41000, Note_off_c, 1, 70, 0
2, 41000, Note_off_c, 1, 76, 0
2, 41000, Note_off_c, 1, 79, 0
2, 41040, Note_on_c, 1, 37, 127
2, 41040, Note_on_c, 1, 49, 127
2, 41040, Note_on_c, 1, 93, 127
2, 41400, Note_off_c, 1, 93, 0
2, 41440, Note_on_c, 1, 95, 127
2, 41720, Note_off_c, 1, 37, 0
2, 41720, Note_off_c, 1, 49, 0
2, 41720, Note_off_c, 1, 95, 0
2, 41760, Note_on_c, 1, 37, 127
2, 41760, Note_on_c, 1, 49, 127
2, 41760, Note_on_c, 1, 95, 127
2, 41800, Note_off_c, 1, 37, 0
2, 41800, Note_off_c, 1, 49, 0
2, 41800, Note_on_c, 1, 92, 127
2, 41800, Note_off_c, 1, 95, 0
2, 41840, Note_on_c, 1, 39, 127
2, 41840, Note_on_c, 1, 51, 127
2, 41840, Note_off_c, 1, 92, 0
2, 41840, Note_on_c, 1, 96, 127
2, 41960, Note_on_c, 1, 92, 127
2, 41960, Note_off_c, 1, 96, 0
2, 42000, Note_off_c, 1, 92, 0
2, 42040, Note_on_c, 1, 83, 127
2, 42200, Note_off_c, 1, 83, 0
2, 42240, Note_on_c, 1, 83, 127
2, 42600, Note_off_c, 1, 83, 0
2, 42640, Note_off_c, 1, 39, 0
2, 42640, Note_on_c, 1, 40, 127
2, 42640, Note_off_c, 1, 51, 0
2, 42640, Note_on_c, 1, 52, 127
2, 42640, Note_on_c, 1, 80, 127
2, 43000, Note_off_c, 1, 40, 0
2, 43000, Note_off_c, 1, 52, 0
2, 43040, Note_on_c, 1, 40, 127
2, 43040, Note_on_c, 1, 52, 127
2, 43400, Note_off_c, 1, 40, 0
2, 43400, Note_off_c, 1, 52, 0
2, 43400, Note_off_c, 1, 80, 0
2, 43440, Note_on_c, 1, 37, 127
2, 43440, Note_on_c, 1, 49, 127
2, 43440, Note_on_c, 1, 76, 127
2, 43760, Note_off_c, 1, 37, 0
2, 43760, Note_off_c, 1, 49, 0
2, 43760, Note_off_c, 1, 76, 0
2, 43800, Note_on_c, 1, 37, 127
2, 43800, Note_on_c, 1, 49, 127
2, 43800, Note_on_c, 1, 76, 127
2, 43840, Note_off_c, 1, 37, 0
2, 43840, Note_off_c, 1, 49, 0
2, 43840, Note_off_c, 1, 76, 0
2, 43880, Note_on_c, 1, 35, 127
2, 43880, Note_on_c, 1, 47, 127
2, 43880, Note_on_c, 1, 78, 127
2, 44280, Note_off_c, 1, 78, 0
2, 44280, Note_on_c, 1, 83, 127
2, 44600, Note_on_c, 1, 71, 127
2, 44600, Note_off_c, 1, 83, 0
2, 44640, Note_off_c, 1, 35, 0
2, 44640, Note_off_c, 1, 47, 0
2, 44640, Note_off_c, 1, 71, 0
2, 44680, Note_on_c, 1, 51, 127
2, 44680, Note_on_c, 1, 59, 127
2, 44680, Note_on_c, 1, 78, 127
2, 44760, Note_on_c, 1, 75, 127
2, 44760, Note_off_c, 1, 78, 0
2, 45040, Note_off_c, 1, 75, 0
2, 45080, Note_on_c, 1, 79, 127
2, 45440, Note_off_c, 1, 51, 0
2, 45440, Note_off_c, 1, 59, 0
2, 45440, Note_off_c, 1, 79, 0
2, 45480, Note_on_c, 1, 42, 127
2, 45480, Note_on_c, 1, 57, 127
2, 45480, Note_on_c, 1, 69, 127
2, 45840, Note_off_c, 1, 42, 0
2, 45840, Note_off_c, 1, 57, 0
2, 45840, Note_off_c, 1, 69, 0
2, 46720, Note_on_c, 1, 42, 127
2, 46720, Note_on_c, 1, 49, 127
2, 46720, Note_on_c, 1, 58, 127
2, 46720, Note_on_c, 1, 61, 127
2, 46720, Note_on_c, 1, 66, 127
2, 47920, Note_off_c, 1, 42, 0
2, 47920, Note_off_c, 1, 49, 0
2, 47920, Note_off_c, 1, 58, 0
2, 47920, Note_off_c, 1, 61, 0
2, 47920, Note_off_c, 1, 66, 0
2, 51120, Note_on_c, 1, 41, 127
2, 51440, Note_off_c, 1, 41, 0
2, 51480, Note_on_c, 1, 41, 127
2, 51920, Note_off_c, 1, 41, 0
2, 52760, Note_on_c, 1, 39, 127
2, 52760, Note_on_c, 1, 63, 127
2, 52840, Note_off_c, 1, 63, 0
2, 52880, Note_on_c, 1, 63, 127
2, 53640, Note_off_c, 1, 39, 0
2, 53680, Note_on_c, 1, 39, 127
2, 54200, Note_off_c, 1, 39, 0
2, 54200, Note_off_c, 1, 63, 0
2, 54240, Note_on_c, 1, 39, 127
2, 54240, Note_on_c, 1, 63, 127
2, 55880, Note_off_c, 1, 63, 0
2, 55920, Note_on_c, 1, 63, 127
2, 56680, Note_off_c, 1, 39, 0
2, 56680, Note_off_c, 1, 63, 0
2, 56720, Note_on_c, 1, 39, 127
2, 56720, Note_on_c, 1, 63, 127
2, 59160, Note_off_c, 1, 39, 0
2, 59160, Note_off_c, 1, 63, 0
2, 59200, Note_on_c, 1, 39, 127
2, 59200, Note_on_c, 1, 63, 127
2, 59760, Note_off_c, 1, 39, 0
2, 59800, Note_on_c, 1, 51, 127
2, 60320, Note_off_c, 1, 51, 0
2, 60320, Note_off_c, 1, 63, 0
2, 60360, Note_on_c, 1, 44, 127
2, 60360, Note_on_c, 1, 68, 127
2, 61600, Note_off_c, 1, 44, 0
2, 61600, Note_off_c, 1, 68, 0
2, 61640, Note_on_c, 1, 44, 127
2, 61640, Note_on_c, 1, 68, 127
2, 64040, Note_off_c, 1, 44, 0
2, 64040, Note_off_c, 1, 68, 0
2, 64080, Note_on_c, 1, 44, 127
2, 64080, Note_on_c, 1, 68, 127
2, 67120, Note_off_c, 1, 44, 0
2, 67120, Note_off_c, 1, 68, 0
2, 67160, Note_on_c, 1, 44, 127
2, 67160, Note_on_c, 1, 68, 127
2, 69000, Note_off_c, 1, 44, 0
2, 69000, Note_off_c, 1, 68, 0
2, 74720, Note_on_c, 1, 55, 127
2, 74720, Note_on_c, 1, 58, 127
2, 74720, Note_on_c, 1, 62, 127
2, 74720, Note_on_c, 1, 67, 127
2, 74720, Note_on_c, 1, 70, 127
2, 75040, Note_off_c, 1, 55, 0
2, 75040, Note_off_c, 1, 58, 0
2, 75040, Note_off_c, 1, 62, 0
2, 75040, Note_off_c, 1, 67, 0
2, 75040, Note_off_c, 1, 70, 0
2, 75080, Note_on_c, 1, 55, 127
2, 75080, Note_on_c, 1, 58, 127
2, 75080, Note_on_c, 1, 62, 127
2, 75080, Note_on_c, 1, 67, 127
2, 75080, Note_on_c, 1, 70, 127
2, 75920, Note_off_c, 1, 55, 0
2, 75920, Note_off_c, 1, 58, 0
2, 75920, Note_off_c, 1, 62, 0
2, 75920, Note_off_c, 1, 67, 0
2, 75920, Note_off_c, 1, 70, 0
2, 78120, Note_on_c, 1, 34, 127
2, 78120, Note_on_c, 1, 46, 127
2, 78120, Note_on_c, 1, 58, 127
2, 79720, Note_off_c, 1, 34, 0
2, 79720, Note_off_c, 1, 46, 0
2, 79720, Note_off_c, 1, 58, 0
2, 79760, Note_on_c, 1, 34, 127
2, 79760, Note_on_c, 1, 46, 127
2, 79760, Note_on_c, 1, 58, 127
2, 80960, Note_off_c, 1, 34, 0
2, 80960, Note_off_c, 1, 46, 0
2, 80960, Note_off_c, 1, 58, 0
2, 90280, Note_on_c, 1, 60, 127
2, 90280, Note_on_c, 1, 63, 127
2, 90280, Note_on_c, 1, 66, 127
2, 90280, Note_on_c, 1, 74, 127
2, 90280, Note_on_c, 1, 78, 127
2, 90320, Note_on_c, 1, 52, 127
2, 90320, Note_off_c, 1, 60, 0
2, 90320, Note_off_c, 1, 63, 0
2, 90320, Note_off_c, 1, 66, 0
2, 90320, Note_on_c, 1, 67, 127
2, 90320, Note_on_c, 1, 72, 127
2, 90320, Note_off_c, 1, 74, 0
2, 90320, Note_off_c, 1, 78, 0
2, 90320, Note_on_c, 1, 79, 127
2, 90840, Note_off_c, 1, 52, 0
2, 90840, Note_off_c, 1, 67, 0
2, 90840, Note_off_c, 1, 72, 0
2, 90840, Note_off_c, 1, 79, 0
2, 95080, Note_on_c, 1, 27, 127
2, 95440, Note_off_c, 1, 27, 0
2, 100720, Note_on_c, 1, 41, 127
2, 101480, Note_off_c, 1, 41, 0
2, 101520, Note_on_c, 1, 41, 127
2, 101840, Note_off_c, 1, 41, 0
2, 101920, Note_on_c, 1, 41, 127
2, 102040, Note_off_c, 1, 41, 0
2, 102080, Note_on_c, 1, 41, 127
2, 102320, Note_off_c, 1, 41, 0
2, 102360, Note_on_c, 1, 48, 127
2, 102720, Note_off_c, 1, 48, 0
2, 102760, Note_on_c, 1, 53, 127
2, 103120, Note_off_c, 1, 53, 0
2, 103160, Note_on_c, 1, 48, 127
2, 103520, Note_off_c, 1, 48, 0
2, 103560, Note_on_c, 1, 41, 127
2, 103920, Note_off_c, 1, 41, 0
2, 104000, Note_on_c, 1, 48, 127
2, 104360, Note_off_c, 1, 48, 0
2, 104400, Note_on_c, 1, 53, 127
2, 104760, Note_off_c, 1, 53, 0
2, 104800, Note_on_c, 1, 60, 127
2, 105160, Note_off_c, 1, 60, 0
2, 105200, Note_on_c, 1, 53, 127
2, 105560, Note_off_c, 1, 53, 0
2, 105600, Note_on_c, 1, 60, 127
2, 105960, Note_off_c, 1, 60, 0
2, 106040, Note_on_c, 1, 60, 127
2, 106360, Note_off_c, 1, 60, 0
2, 106400, Note_on_c, 1, 63, 127
2, 106760, Note_off_c, 1, 63, 0
2, 106800, Note_on_c, 1, 60, 127
2, 107160, Note_off_c, 1, 60, 0
2, 107200, Note_on_c, 1, 53, 127
2, 107560, Note_off_c, 1, 53, 0
2, 107600, Note_on_c, 1, 60, 127
2, 107960, Note_off_c, 1, 60, 0
2, 108000, Note_on_c, 1, 55, 127
2, 108160, Note_off_c, 1, 55, 0
2, 108200, Note_on_c, 1, 55, 127
2, 108400, Note_off_c, 1, 55, 0
2, 108440, Note_on_c, 1, 48, 127
2, 108800, Note_off_c, 1, 48, 0
2, 108840, Note_on_c, 1, 48, 127
2, 109200, Note_off_c, 1, 48, 0
2, 109240, Note_on_c, 1, 53, 127
2, 109600, Note_off_c, 1, 53, 0
2, 109640, Note_on_c, 1, 60, 127
2, 110000, Note_off_c, 1, 60, 0
2, 110080, Note_on_c, 1, 65, 127
2, 110440, Note_off_c, 1, 65, 0
2, 110480, Note_on_c, 1, 60, 127
2, 110480, Note_on_c, 1, 67, 127
2, 110840, Note_off_c, 1, 67, 0
2, 110880, Note_on_c, 1, 65, 127
2, 111240, Note_off_c, 1, 60, 0
2, 111240, Note_off_c, 1, 65, 0
2, 111280, Note_on_c, 1, 65, 127
2, 111280, Note_on_c, 1, 69, 127
2, 112040, Note_off_c, 1, 65, 0
2, 112040, Note_off_c, 1, 69, 0
2, 112120, Note_on_c, 1, 41, 127
2, 112120, Note_on_c, 1, 60, 127
2, 112120, Note_on_c, 1, 68, 127
2, 113240, Note_off_c, 1, 41, 0
2, 113240, Note_off_c, 1, 60, 0
2, 113240, Note_off_c, 1, 68, 0
2, 120040, End_track
3, 0, Start_track
3, 0, Title_t, "MIDI"
3, 1536, End_track
0, 0, End_of_file
