0, 0, Header, 1, 3, 192
1, 0, Start_track
1, 0, Time_signature, 4, 2, 24, 8
1, 0, Tempo, 500000
1, 120040, End_track
2, 0, Start_track
2, 0, Text_t, "random instrument: random person i dunno whatev"
2, 0, Title_t, "Track 1"
2, 0, Note_on_c, 1, 34, 127
2, 0, Note_on_c, 1, 53, 127
2, 0, Note_on_c, 1, 56, 127
2, 0, Note_on_c, 1, 62, 127
2, 40, Note_off_c, 1, 34, 0
2, 40, Note_off_c, 1, 53, 0
2, 40, Note_off_c, 1, 56, 0
2, 40, Note_off_c, 1, 62, 0
2, 80, Note_on_c, 1, 31, 127
2, 80, Note_on_c, 1, 43, 127
2, 80, Note_on_c, 1, 59, 127
2, 80, Note_on_c, 1, 65, 127
2, 80, Note_on_c, 1, 67, 127
2, 120, Note_off_c, 1, 31, 0
2, 120, Note_on_c, 1, 34, 127
2, 120, Note_off_c, 1, 43, 0
2, 120, Note_on_c, 1, 53, 127
2, 120, Note_on_c, 1, 56, 127
2, 120, Note_off_c, 1, 59, 0
2, 120, Note_on_c, 1, 62, 127
2, 120, Note_off_c, 1, 65, 0
2, 120, Note_off_c, 1, 67, 0
2, 160, Note_off_c, 1, 34, 0
2, 160, Note_on_c, 1, 43, 127
2, 160, Note_on_c, 1, 47, 127
2, 160, Note_off_c, 1, 53, 0
2, 160, Note_on_c, 1, 55, 127
2, 160, Note_off_c, 1, 56, 0
2, 160, Note_off_c, 1, 62, 0
2, 160, Note_on_c, 1, 79, 127
2, 160, Note_on_c, 1, 83, 127
2, 160, Note_on_c, 1, 87, 127
2, 160, Note_on_c, 1, 91, 127
2, 200, Note_on_c, 1, 34, 127
2, 200, Note_off_c, 1, 43, 0
2, 200, Note_off_c, 1, 47, 0
2, 200, Note_on_c, 1, 53, 127
2, 200, Note_off_c, 1, 55, 0
2, 200, Note_on_c, 1, 56, 127
2, 200, Note_on_c, 1, 62, 127
2, 200, Note_off_c, 1, 79, 0
2, 200, Note_off_c, 1, 83, 0
2, 200, Note_off_c, 1, 87, 0
2, 200, Note_off_c, 1, 91, 0
2, 680, Note_off_c, 1, 34, 0
2, 680, Note_off_c, 1, 53, 0
2, 680, Note_off_c, 1, 56, 0
2, 680, Note_off_c, 1, 62, 0
2, 7560, Note_on_c, 1, 51, 127
2, 7560, Note_on_c, 1, 54, 127
2, 7560, Note_on_c, 1, 59, 127
2, 7920, Note_off_c, 1, 51, 0
2, 7920, Note_off_c, 1, 54, 0
2, 7920, Note_off_c, 1, 59, 0
2, 7960, Note_on_c, 1, 51, 127
2, 7960, Note_on_c, 1, 54, 127
2, 7960, Note_on_c, 1, 59, 127
2, 8280, Note_off_c, 1, 51, 0
2, 8280, Note_off_c, 1, 54, 0
2, 8280, Note_off_c, 1, 59, 0
2, 18240, Note_on_c, 1, 40, 127
2, 18240, Note_on_c, 1, 52, 127
2, 18240, Note_on_c, 1, 64, 127
2, 19000, Note_off_c, 1, 64, 0
2, 19040, Note_on_c, 1, 67, 127
2, 19600, Note_on_c, 1, 64, 127
2, 19600, Note_off_c, 1, 67, 0
2, 19640, Note_off_c, 1, 64, 0
2, 19680, Note_on_c, 1, 55, 127
2, 19840, Note_off_c, 1, 55, 0
2, 19880, Note_on_c, 1, 76, 127
2, 20240, Note_off_c, 1, 40, 0
2, 20240, Note_off_c, 1, 52, 0
2, 20240, Note_off_c, 1, 76, 0
2, 20280, Note_on_c, 1, 40, 127
2, 20280, Note_on_c, 1, 52, 127
2, 20280, Note_on_c, 1, 76, 127
2, 21120, Note_off_c, 1, 76, 0
2, 22280, Note_off_c, 1, 40, 0
2, 22280, Note_off_c, 1, 52, 0
2, 22320, Note_on_c, 1, 44, 127
2, 22320, Note_on_c, 1, 56, 127
2, 22560, Note_off_c, 1, 44, 0
2, 22560, Note_off_c, 1, 56, 0
2, 22840, Note_on_c, 1, 40, 127
2, 22840, Note_on_c, 1, 52, 127
2, 23080, Note_off_c, 1, 40, 0
2, 23080, Note_off_c, 1, 52, 0
2, 23400, Note_on_c, 1, 40, 127
2, 23400, Note_on_c, 1, 52, 127
2, 23640, Note_off_c, 1, 40, 0
2, 23640, Note_off_c, 1, 52, 0
2, 23960, Note_on_c, 1, 40, 127
2, 23960, Note_on_c, 1, 52, 127
2, 25400, Note_off_c, 1, 40, 0
2, 25400, Note_off_c, 1, 52, 0
2, 25440, Note_on_c, 1, 40, 127
2, 25440, Note_on_c, 1, 52, 127
2, 25720, Note_on_c, 1, 64, 127
2, 25760, Note_off_c, 1, 64, 0
2, 25800, Note_off_c, 1, 40, 0
2, 25800, Note_off_c, 1, 52, 0
2, 30640, Note_on_c, 1, 43, 127
2, 31400, Note_off_c, 1, 43, 0
2, 35640, Note_on_c, 1, 59, 127
2, 35880, Note_off_c, 1, 59, 0
2, 35920, Note_on_c, 1, 59, 127
2, 36000, Note_off_c, 1, 59, 0
2, 36080, Note_on_c, 1, 56, 127
2, 38080, Note_off_c, 1, 56, 0
2, 38120, Note_on_c, 1, 52, 127
2, 38320, Note_off_c, 1, 52, 0
2, 38360, Note_on_c, 1, 52, 127
2, 38880, Note_off_c, 1, 52, 0
2, 38920, Note_on_c, 1, 51, 127
2, 39280, Note_off_c, 1, 51, 0
2, 39320, Note_on_c, 1, 47, 127
2, 40080, Note_off_c, 1, 47, 0
2, 40120, Note_on_c, 1, 35, 127
2, 40480, Note_off_c, 1, 35, 0
2, 40560, Note_on_c, 1, 47, 127
2, 40920, Note_off_c, 1, 47, 0
2, 40960, Note_on_c, 1, 47, 127
2, 41320, Note_off_c, 1, 47, 0
2, 41360, Note_on_c, 1, 47, 127
2, 41720, Note_off_c, 1, 47, 0
2, 41760, Note_on_c, 1, 47, 127
2, 42120, Note_off_c, 1, 47, 0
2, 42160, Note_on_c, 1, 39, 127
2, 42480, Note_off_c, 1, 39, 0
2, 42520, Note_on_c, 1, 39, 127
2, 42560, Note_off_c, 1, 39, 0
2, 42600, Note_on_c, 1, 47, 127
2, 42960, Note_off_c, 1, 47, 0
2, 43000, Note_on_c, 1, 51, 127
2, 43360, Note_off_c, 1, 51, 0
2, 43400, Note_on_c, 1, 47, 127
2, 44160, Note_off_c, 1, 47, 0
2, 44200, Note_on_c, 1, 47, 127
2, 44520, Note_off_c, 1, 47, 0
2, 44560, Note_on_c, 1, 47, 127
2, 44600, Note_off_c, 1, 47, 0
2, 44640, Note_on_c, 1, 44, 127
2, 45000, Note_off_c, 1, 44, 0
2, 45040, Note_on_c, 1, 51, 127
2, 45400, Note_off_c, 1, 51, 0
2, 45440, Note_on_c, 1, 47, 127
2, 45800, Note_off_c, 1, 47, 0
2, 45840, Note_on_c, 1, 39, 127
2, 46200, Note_off_c, 1, 39, 0
2, 46240, Note_on_c, 1, 47, 127
2, 46600, Note_off_c, 1, 47, 0
2, 46680, Note_on_c, 1, 51, 127
2, 47040, Note_off_c, 1, 51, 0
2, 47080, Note_on_c, 1, 54, 127
2, 47840, Note_off_c, 1, 54, 0
2, 47880, Note_on_c, 1, 47, 127
2, 48240, Note_off_c, 1, 47, 0
2, 48280, Note_on_c, 1, 39, 127
2, 48640, Note_off_c, 1, 39, 0
2, 48680, Note_on_c, 1, 47, 127
2, 48800, Note_off_c, 1, 47, 0
2, 48840, Note_on_c, 1, 47, 127
2, 49040, Note_off_c, 1, 47, 0
2, 49120, Note_on_c, 1, 51, 127
2, 49840, Note_off_c, 1, 51, 0
2, 49920, Note_on_c, 1, 59, 127
2, 49920, Note_on_c, 1, 63, 127
2, 49920, Note_on_c, 1, 66, 127
2, 50640, Note_off_c, 1, 59, 0
2, 50640, Note_off_c, 1, 63, 0
2, 50640, Note_off_c, 1, 66, 0
2, 50720, Note_on_c, 1, 47, 127
2, 50920, Note_off_c, 1, 47, 0
2, 50960, Note_on_c, 1, 47, 127
2, 51480, Note_off_c, 1, 47, 0
2, 51560, Note_on_c, 1, 54, 127
2, 51960, Note_off_c, 1, 54, 0
2, 52000, Note_on_c, 1, 59, 127
2, 52360, Note_off_c, 1, 59, 0
2, 52400, Note_on_c, 1, 54, 127
2, 52760, Note_off_c, 1, 54, 0
2, 52800, Note_on_c, 1, 59, 127
2, 53000, Note_off_c, 1, 59, 0
2, 53040, Note_on_c, 1, 59, 127
2, 53160, Note_off_c, 1, 59, 0
2, 53200, Note_on_c, 1, 54, 127
2, 53960, Note_off_c, 1, 54, 0
2, 54000, Note_on_c, 1, 47, 127
2, 54360, Note_off_c, 1, 47, 0
2, 54400, Note_on_c, 1, 39, 127
2, 54760, Note_off_c, 1, 39, 0
2, 54800, Note_on_c, 1, 46, 127
2, 55120, Note_off_c, 1, 46, 0
2, 55160, Note_on_c, 1, 46, 127
2, 55200, Note_off_c, 1, 46, 0
2, 55240, Note_on_c, 1, 51, 127
2, 55600, Note_off_c, 1, 51, 0
2, 55640, Note_on_c, 1, 54, 127
2, 56000, Note_off_c, 1, 54, 0
2, 56040, Note_on_c, 1, 58, 127
2, 56400, Note_off_c, 1, 58, 0
2, 56440, Note_on_c, 1, 51, 127
2, 56800, Note_off_c, 1, 51, 0
2, 56840, Note_on_c, 1, 54, 127
2, 57200, Note_off_c, 1, 54, 0
2, 57280, Note_on_c, 1, 51, 127
2, 57280, Note_on_c, 1, 71, 127
2, 57640, Note_off_c, 1, 51, 0
2, 57680, Note_on_c, 1, 53, 127
2, 58040, Note_off_c, 1, 53, 0
2, 58080, Note_on_c, 1, 53, 127
2, 58440, Note_off_c, 1, 53, 0
2, 58480, Note_on_c, 1, 56, 127
2, 58840, Note_off_c, 1, 56, 0
2, 58880, Note_on_c, 1, 53, 127
2, 59240, Note_off_c, 1, 53, 0
2, 59280, Note_on_c, 1, 56, 127
2, 59360, Note_off_c, 1, 56, 0
2, 59360, Note_off_c, 1, 71, 0
2, 59400, Note_on_c, 1, 56, 127
2, 59400, Note_on_c, 1, 71, 127
2, 59680, Note_off_c, 1, 56, 0
2, 59680, Note_off_c, 1, 71, 0
2, 59720, Note_on_c, 1, 53, 127
2, 59720, Note_on_c, 1, 71, 127
2, 60080, Note_off_c, 1, 53, 0
2, 60080, Note_off_c, 1, 71, 0
2, 60120, Note_on_c, 1, 56, 127
2, 60120, Note_on_c, 1, 71, 127
2, 60880, Note_off_c, 1, 56, 0
2, 60880, Note_off_c, 1, 71, 0
2, 60920, Note_on_c, 1, 54, 127
2, 60920, Note_on_c, 1, 70, 127
2, 61280, Note_off_c, 1, 54, 0
2, 61280, Note_off_c, 1, 70, 0
2, 61320, Note_on_c, 1, 59, 127
2, 61320, Note_on_c, 1, 71, 127
2, 61520, Note_off_c, 1, 59, 0
2, 61520, Note_off_c, 1, 71, 0
2, 61560, Note_on_c, 1, 59, 127
2, 61560, Note_on_c, 1, 71, 127
2, 61720, Note_off_c, 1, 59, 0
2, 61760, Note_on_c, 1, 49, 127
2, 62520, Note_off_c, 1, 49, 0
2, 62560, Note_on_c, 1, 56, 127
2, 62920, Note_off_c, 1, 56, 0
2, 62920, Note_off_c, 1, 71, 0
2, 62960, Note_on_c, 1, 49, 127
2, 62960, Note_on_c, 1, 71, 127
2, 63520, Note_off_c, 1, 49, 0
2, 63520, Note_off_c, 1, 71, 0
2, 63560, Note_on_c, 1, 49, 127
2, 63560, Note_on_c, 1, 71, 127
2, 65520, Note_off_c, 1, 49, 0
2, 65520, Note_off_c, 1, 71, 0
2, 65560, Note_on_c, 1, 49, 127
2, 65560, Note_on_c, 1, 71, 127
2, 65840, Note_off_c, 1, 49, 0
2, 65840, Note_off_c, 1, 71, 0
2, 65880, Note_on_c, 1, 54, 127
2, 65880, Note_on_c, 1, 58, 127
2, 65880, Note_on_c, 1, 70, 127
2, 67000, Note_off_c, 1, 54, 0
2, 67000, Note_off_c, 1, 58, 0
2, 67520, Note_off_c, 1, 70, 0
2, 67600, Note_on_c, 1, 57, 127
2, 67600, Note_on_c, 1, 63, 127
2, 67600, Note_on_c, 1, 66, 127
2, 68760, Note_off_c, 1, 57, 0
2, 68760, Note_off_c, 1, 63, 0
2, 68760, Note_off_c, 1, 66, 0
2, 68800, Note_on_c, 1, 56, 127
2, 68800, Note_on_c, 1, 62, 127
2, 68800, Note_on_c, 1, 66, 127
2, 69600, Note_off_c, 1, 56, 0
2, 69600, Note_off_c, 1, 62, 0
2, 69600, Note_off_c, 1, 66, 0
2, 69640, Note_on_c, 1, 61, 127
2, 69640, Note_on_c, 1, 69, 127
2, 69760, Note_off_c, 1, 61, 0
2, 69760, Note_off_c, 1, 69, 0
2, 69800, Note_on_c, 1, 61, 127
2, 69800, Note_on_c, 1, 69, 127
2, 70200, Note_off_c, 1, 61, 0
2, 70200, Note_off_c, 1, 69, 0
2, 74720, Note_on_c, 1, 55, 127
2, 74720, Note_on_c, 1, 58, 127
2, 74720, Note_on_c, 1, 62, 127
2, 74720, Note_on_c, 1, 67, 127
2, 74720, Note_on_c, 1, 70, 127
2, 75440, Note_off_c, 1, 55, 0
2, 75440, Note_off_c, 1, 58, 0
2, 75440, Note_off_c, 1, 62, 0
2, 75440, Note_off_c, 1, 67, 0
2, 75440, Note_off_c, 1, 70, 0
2, 75480, Note_on_c, 1, 55, 127
2, 75480, Note_on_c, 1, 58, 127
2, 75480, Note_on_c, 1, 62, 127
2, 75480, Note_on_c, 1, 67, 127
2, 75480, Note_on_c, 1, 70, 127
2, 75920, Note_off_c, 1, 55, 0
2, 75920, Note_off_c, 1, 58, 0
2, 75920, Note_off_c, 1, 62, 0
2, 75920, Note_off_c, 1, 67, 0
2, 75920, Note_off_c, 1, 70, 0
2, 78120, Note_on_c, 1, 34, 127
2, 78120, Note_on_c, 1, 46, 127
2, 78120, Note_on_c, 1, 58, 127
2, 78440, Note_off_c, 1, 34, 0
2, 78440, Note_off_c, 1, 46, 0
2, 78440, Note_off_c, 1, 58, 0
2, 78480, Note_on_c, 1, 34, 127
2, 78480, Note_on_c, 1, 46, 127
2, 78480, Note_on_c, 1, 58, 127
2, 79320, Note_off_c, 1, 34, 0
2, 79320, Note_off_c, 1, 46, 0
2, 79320, Note_off_c, 1, 58, 0
2, 79360, Note_on_c, 1, 35, 127
2, 79360, Note_on_c, 1, 47, 127
2, 79360, Note_on_c, 1, 59, 127
2, 80760, Note_off_c, 1, 35, 0
2, 80760, Note_off_c, 1, 47, 0
2, 80760, Note_off_c, 1, 59, 0
2, 80800, Note_on_c, 1, 35, 127
2, 80800, Note_on_c, 1, 47, 127
2, 80800, Note_on_c, 1, 59, 127
2, 82600, Note_off_c, 1, 35, 0
2, 82600, Note_on_c, 1, 36, 127
2, 82600, Note_off_c, 1, 47, 0
2, 82600, Note_on_c, 1, 48, 127
2, 82600, Note_off_c, 1, 59, 0
2, 82600, Note_on_c, 1, 60, 127
2, 82960, Note_off_c, 1, 36, 0
2, 82960, Note_off_c, 1, 48, 0
2, 82960, Note_off_c, 1, 60, 0
2, 83040, Note_on_c, 1, 33, 127
2, 83040, Note_on_c, 1, 45, 127
2, 83040, Note_on_c, 1, 57, 127
2, 83040, Note_on_c, 1, 69, 127
2, 85400, Note_off_c, 1, 33, 0
2, 85400, Note_off_c, 1, 45, 0
2, 85400, Note_off_c, 1, 57, 0
2, 85400, Note_off_c, 1, 69, 0
2, 85440, Note_on_c, 1, 33, 127
2, 85440, Note_on_c, 1, 45, 127
2, 85440, Note_on_c, 1, 57, 127
2, 85440, Note_on_c, 1, 69, 127
2, 86640, Note_off_c, 1, 57, 0
2, 86640, Note_off_c, 1, 69, 0
2, 86680, Note_on_c, 1, 57, 127
2, 86680, Note_on_c, 1, 69, 127
2, 87480, Note_off_c, 1, 33, 0
2, 87480, Note_off_c, 1, 45, 0
2, 87480, Note_off_c, 1, 57, 0
2, 87480, Note_off_c, 1, 69, 0
2, 87520, Note_on_c, 1, 33, 127
2, 87520, Note_on_c, 1, 45, 127
2, 87520, Note_on_c, 1, 57, 127
2, 87520, Note_on_c, 1, 69, 127
2, 87880, Note_off_c, 1, 33, 0
2, 87880, Note_off_c, 1, 45, 0
2, 87880, Note_off_c, 1, 57, 0
2, 87880, Note_off_c, 1, 69, 0
2, 87920, Note_on_c, 1, 37, 127
2, 87920, Note_on_c, 1, 49, 127
2, 87920, Note_on_c, 1, 61, 127
2, 87920, Note_on_c, 1, 73, 127
2, 89080, Note_off_c, 1, 37, 0
2, 89080, Note_off_c, 1, 49, 0
2, 89080, Note_off_c, 1, 61, 0
2, 89080, Note_off_c, 1, 73, 0
2, 89120, Note_on_c, 1, 44, 127
2, 89120, Note_on_c, 1, 56, 127
2, 89120, Note_on_c, 1, 68, 127
2, 89120, Note_on_c, 1, 80, 127
2, 89520, Note_off_c, 1, 44, 0
2, 89520, Note_off_c, 1, 56, 0
2, 89520, Note_off_c, 1, 68, 0
2, 89520, Note_off_c, 1, 80, 0
2, 89560, Note_on_c, 1, 44, 127
2, 89560, Note_on_c, 1, 56, 127
2, 89560, Note_on_c, 1, 68, 127
2, 89560, Note_on_c, 1, 80, 127
2, 90320, Note_off_c, 1, 44, 0
2, 90320, Note_off_c, 1, 56, 0
2, 90320, Note_off_c, 1, 68, 0
2, 90320, Note_off_c, 1, 80, 0
2, 90360, Note_on_c, 1, 39, 127
2, 90360, Note_on_c, 1, 51, 127
2, 90360, Note_on_c, 1, 63, 127
2, 90360, Note_on_c, 1, 75, 127
2, 91520, Note_off_c, 1, 39, 0
2, 91520, Note_off_c, 1, 51, 0
2, 91520, Note_off_c, 1, 63, 0
2, 91520, Note_off_c, 1, 75, 0
2, 91600, Note_on_c, 1, 40, 127
2, 91600, Note_on_c, 1, 52, 127
2, 91600, Note_on_c, 1, 64, 127
2, 91600, Note_on_c, 1, 76, 127
2, 91800, Note_off_c, 1, 40, 0
2, 91800, Note_off_c, 1, 52, 0
2, 91800, Note_off_c, 1, 64, 0
2, 91800, Note_off_c, 1, 76, 0
2, 92800, Note_on_c, 1, 40, 127
2, 92800, Note_on_c, 1, 52, 127
2, 92800, Note_on_c, 1, 64, 127
2, 92800, Note_on_c, 1, 76, 127
2, 93600, Note_off_c, 1, 40, 0
2, 93600, Note_off_c, 1, 52, 0
2, 93600, Note_off_c, 1, 64, 0
2, 93600, Note_off_c, 1, 76, 0
2, 93640, Note_on_c, 1, 40, 127
2, 93640, Note_on_c, 1, 52, 127
2, 93640, Note_on_c, 1, 64, 127
2, 93640, Note_on_c, 1, 76, 127
2, 94000, Note_off_c, 1, 40, 0
2, 94000, Note_off_c, 1, 52, 0
2, 94000, Note_off_c, 1, 64, 0
2, 94000, Note_off_c, 1, 76, 0
2, 94040, Note_on_c, 1, 37, 127
2, 94040, Note_on_c, 1, 49, 127
2, 94040, Note_on_c, 1, 61, 127
2, 94040, Note_on_c, 1, 73, 127
2, 94200, Note_off_c, 1, 37, 0
2, 94200, Note_off_c, 1, 49, 0
2, 94200, Note_off_c, 1, 61, 0
2, 94200, Note_off_c, 1, 73, 0
2, 95240, Note_on_c, 1, 36, 127
2, 95240, Note_on_c, 1, 48, 127
2, 95240, Note_on_c, 1, 60, 127
2, 95240, Note_on_c, 1, 72, 127
2, 95640, Note_off_c, 1, 36, 0
2, 95640, Note_off_c, 1, 48, 0
2, 95640, Note_off_c, 1, 60, 0
2, 95640, Note_off_c, 1, 72, 0
2, 95680, Note_on_c, 1, 36, 127
2, 95680, Note_on_c, 1, 48, 127
2, 95680, Note_on_c, 1, 60, 127
2, 95680, Note_on_c, 1, 72, 127
2, 96440, Note_off_c, 1, 36, 0
2, 96440, Note_off_c, 1, 48, 0
2, 96440, Note_off_c, 1, 60, 0
2, 96440, Note_off_c, 1, 72, 0
2, 96480, Note_on_c, 1, 33, 127
2, 96480, Note_on_c, 1, 45, 127
2, 96480, Note_on_c, 1, 57, 127
2, 96480, Note_on_c, 1, 69, 127
2, 96640, Note_off_c, 1, 33, 0
2, 96640, Note_off_c, 1, 45, 0
2, 96640, Note_off_c, 1, 57, 0
2, 96640, Note_off_c, 1, 69, 0
2, 97720, Note_on_c, 1, 34, 127
2, 97720, Note_on_c, 1, 46, 127
2, 97720, Note_on_c, 1, 58, 127
2, 97720, Note_on_c, 1, 70, 127
2, 98880, Note_off_c, 1, 34, 0
2, 98880, Note_off_c, 1, 46, 0
2, 98880, Note_off_c, 1, 58, 0
2, 98880, Note_off_c, 1, 70, 0
2, 98920, Note_on_c, 1, 31, 127
2, 98920, Note_on_c, 1, 43, 127
2, 98920, Note_on_c, 1, 55, 127
2, 98920, Note_on_c, 1, 67, 127
2, 99080, Note_off_c, 1, 31, 0
2, 99080, Note_off_c, 1, 43, 0
2, 99080, Note_off_c, 1, 55, 0
2, 99080, Note_off_c, 1, 67, 0
2, 100760, Note_on_c, 1, 34, 127
2, 100760, Note_on_c, 1, 46, 127
2, 100760, Note_on_c, 1, 58, 127
2, 100760, Note_on_c, 1, 70, 127
2, 101560, Note_off_c, 1, 34, 0
2, 101560, Note_off_c, 1, 46, 0
2, 101560, Note_off_c, 1, 58, 0
2, 101560, Note_off_c, 1, 70, 0
2, 101600, Note_on_c, 1, 34, 127
2, 101600, Note_on_c, 1, 46, 127
2, 101600, Note_on_c, 1, 58, 127
2, 101600, Note_on_c, 1, 70, 127
2, 101960, Note_off_c, 1, 34, 0
2, 101960, Note_off_c, 1, 46, 0
2, 101960, Note_off_c, 1, 58, 0
2, 101960, Note_off_c, 1, 70, 0
2, 102000, Note_on_c, 1, 38, 127
2, 102000, Note_on_c, 1, 50, 127
2, 102000, Note_on_c, 1, 62, 127
2, 102000, Note_on_c, 1, 74, 127
2, 102160, Note_off_c, 1, 38, 0
2, 102160, Note_off_c, 1, 50, 0
2, 102160, Note_off_c, 1, 62, 0
2, 102160, Note_off_c, 1, 74, 0
2, 104440, Note_on_c, 1, 33, 127
2, 104440, Note_on_c, 1, 45, 127
2, 104440, Note_on_c, 1, 57, 127
2, 104680, Note_off_c, 1, 57, 0
2, 105560, Note_off_c, 1, 33, 0
2, 105560, Note_on_c, 1, 57, 127
2, 105600, Note_on_c, 1, 33, 127
2, 105600, Note_off_c, 1, 57, 0
2, 105640, Note_off_c, 1, 33, 0
2, 105640, Note_off_c, 1, 45, 0
2, 105680, Note_on_c, 1, 33, 127
2, 105680, Note_on_c, 1, 45, 127
2, 105680, Note_on_c, 1, 52, 127
2, 106800, Note_off_c, 1, 52, 0
2, 106840, Note_off_c, 1, 33, 0
2, 106840, Note_off_c, 1, 45, 0
2, 106880, Note_on_c, 1, 36, 127
2, 106880, Note_on_c, 1, 48, 127
2, 106880, Note_on_c, 1, 57, 127
2, 106880, Note_on_c, 1, 63, 127
2, 106880, Note_on_c, 1, 66, 127
2, 107680, Note_off_c, 1, 36, 0
2, 107680, Note_off_c, 1, 48, 0
2, 107680, Note_off_c, 1, 57, 0
2, 107680, Note_off_c, 1, 63, 0
2, 107680, Note_off_c, 1, 66, 0
2, 107720, Note_on_c, 1, 36, 127
2, 107720, Note_on_c, 1, 48, 127
2, 107720, Note_on_c, 1, 57, 127
2, 107720, Note_on_c, 1, 63, 127
2, 107720, Note_on_c, 1, 66, 127
2, 108040, Note_off_c, 1, 36, 0
2, 108040, Note_off_c, 1, 48, 0
2, 108040, Note_off_c, 1, 57, 0
2, 108040, Note_off_c, 1, 63, 0
2, 108040, Note_off_c, 1, 66, 0
2, 108120, Note_on_c, 1, 28, 127
2, 108120, Note_on_c, 1, 40, 127
2, 108120, Note_on_c, 1, 52, 127
2, 109280, Note_off_c, 1, 28, 0
2, 109280, Note_off_c, 1, 40, 0
2, 109280, Note_off_c, 1, 52, 0
2, 109320, Note_on_c, 1, 41, 127
2, 109320, Note_on_c, 1, 53, 127
2, 109320, Note_on_c, 1, 69, 127
2, 109320, Note_on_c, 1, 81, 127
2, 109720, Note_off_c, 1, 41, 0
2, 109720, Note_off_c, 1, 53, 0
2, 109720, Note_off_c, 1, 69, 0
2, 109720, Note_off_c, 1, 81, 0
2, 109760, Note_on_c, 1, 41, 127
2, 109760, Note_on_c, 1, 53, 127
2, 109760, Note_on_c, 1, 69, 127
2, 109760, Note_on_c, 1, 81, 127
2, 110520, Note_off_c, 1, 41, 0
2, 110520, Note_off_c, 1, 53, 0
2, 110520, Note_off_c, 1, 69, 0
2, 110520, Note_off_c, 1, 81, 0
2, 110560, Note_on_c, 1, 40, 127
2, 110560, Note_on_c, 1, 52, 127
2, 110560, Note_on_c, 1, 68, 127
2, 110560, Note_on_c, 1, 80, 127
2, 111720, Note_off_c, 1, 40, 0
2, 111720, Note_off_c, 1, 52, 0
2, 111720, Note_off_c, 1, 68, 0
2, 111720, Note_off_c, 1, 80, 0
2, 111800, Note_on_c, 1, 44, 127
2, 111800, Note_on_c, 1, 56, 127
2, 111800, Note_on_c, 1, 72, 127
2, 111800, Note_on_c, 1, 84, 127
2, 112960, Note_off_c, 1, 44, 0
2, 112960, Note_off_c, 1, 56, 0
2, 112960, Note_off_c, 1, 72, 0
2, 112960, Note_off_c, 1, 84, 0
2, 113000, Note_on_c, 1, 67, 127
2, 113000, Note_on_c, 1, 70, 127
2, 113000, Note_on_c, 1, 73, 127
2, 113000, Note_on_c, 1, 79, 127
2, 113800, Note_off_c, 1, 67, 0
2, 113800, Note_off_c, 1, 70, 0
2, 113800, Note_off_c, 1, 73, 0
2, 113800, Note_off_c, 1, 79, 0
2, 113840, Note_on_c, 1, 67, 127
2, 113840, Note_on_c, 1, 70, 127
2, 113840, Note_on_c, 1, 73, 127
2, 113840, Note_on_c, 1, 79, 127
2, 114200, Note_off_c, 1, 67, 0
2, 114200, Note_off_c, 1, 70, 0
2, 114200, Note_off_c, 1, 73, 0
2, 114200, Note_off_c, 1, 79, 0
2, 114240, Note_on_c, 1, 51, 127
2, 114240, Note_on_c, 1, 63, 127
2, 114240, Note_on_c, 1, 68, 127
2, 114240, Note_on_c, 1, 76, 127
2, 114240, Note_on_c, 1, 80, 127
2, 114280, Note_on_c, 1, 38, 127
2, 114280, Note_off_c, 1, 51, 0
2, 114280, Note_on_c, 1, 60, 127
2, 114280, Note_off_c, 1, 63, 0
2, 114280, Note_on_c, 1, 64, 127
2, 114280, Note_off_c, 1, 68, 0
2, 114280, Note_on_c, 1, 69, 127
2, 114280, Note_off_c, 1, 76, 0
2, 114280, Note_off_c, 1, 80, 0
2, 114320, Note_off_c, 1, 38, 0
2, 114320, Note_on_c, 1, 49, 127
2, 114320, Note_off_c, 1, 60, 0
2, 114320, Note_on_c, 1, 61, 127
2, 114320, Note_off_c, 1, 64, 0
2, 114320, Note_on_c, 1, 73, 127
2, 114360, Note_off_c, 1, 49, 0
2, 114360, Note_on_c, 1, 51, 127
2, 114360, Note_off_c, 1, 61, 0
2, 114360, Note_on_c, 1, 63, 127
2, 114360, Note_on_c, 1, 68, 127
2, 114360, Note_off_c, 1, 69, 0
2, 114360, Note_off_c, 1, 73, 0
2, 114360, Note_on_c, 1, 76, 127
2, 114360, Note_on_c, 1, 80, 127
2, 114400, Note_on_c, 1, 49, 127
2, 114400, Note_off_c, 1, 51, 0
2, 114400, Note_on_c, 1, 61, 127
2, 114400, Note_off_c, 1, 63, 0
2, 114400, Note_off_c, 1, 68, 0
2, 114400, Note_on_c, 1, 69, 127
2, 114400, Note_on_c, 1, 73, 127
2, 114400, Note_off_c, 1, 76, 0
2, 114400, Note_off_c, 1, 80, 0
2, 114440, Note_off_c, 1, 49, 0
2, 114440, Note_on_c, 1, 51, 127
2, 114440, Note_off_c, 1, 61, 0
2, 114440, Note_on_c, 1, 63, 127
2, 114440, Note_on_c, 1, 68, 127
2, 114440, Note_off_c, 1, 69, 0
2, 114440, Note_off_c, 1, 73, 0
2, 114440, Note_on_c, 1, 76, 127
2, 114440, Note_on_c, 1, 80, 127
2, 114520, Note_on_c, 1, 47, 127
2, 114520, Note_on_c, 1, 65, 127
2, 114520, Note_off_c, 1, 68, 0
2, 114520, Note_off_c, 1, 76, 0
2, 114520, Note_off_c, 1, 80, 0
2, 114600, Note_off_c, 1, 47, 0
2, 114600, Note_off_c, 1, 51, 0
2, 114600, Note_off_c, 1, 63, 0
2, 114600, Note_off_c, 1, 65, 0
2, 114600, Note_on_c, 1, 75, 127
2, 114600, Note_on_c, 1, 80, 127
2, 114600, Note_on_c, 1, 87, 127
2, 114640, Note_on_c, 1, 54, 127
2, 114640, Note_on_c, 1, 64, 127
2, 114640, Note_on_c, 1, 70, 127
2, 114640, Note_on_c, 1, 73, 127
2, 114640, Note_off_c, 1, 75, 0
2, 114640, Note_on_c, 1, 78, 127
2, 114640, Note_off_c, 1, 80, 0
2, 114640, Note_off_c, 1, 87, 0
2, 114680, Note_on_c, 1, 41, 127
2, 114680, Note_on_c, 1, 48, 127
2, 114680, Note_on_c, 1, 53, 127
2, 114680, Note_off_c, 1, 54, 0
2, 114680, Note_off_c, 1, 64, 0
2, 114680, Note_off_c, 1, 70, 0
2, 114680, Note_on_c, 1, 72, 127
2, 114680, Note_off_c, 1, 73, 0
2, 114680, Note_off_c, 1, 78, 0
2, 114680, Note_on_c, 1, 84, 127
2, 114720, Note_off_c, 1, 41, 0
2, 114720, Note_off_c, 1, 48, 0
2, 114720, Note_off_c, 1, 53, 0
2, 114720, Note_on_c, 1, 54, 127
2, 114720, Note_on_c, 1, 64, 127
2, 114720, Note_on_c, 1, 70, 127
2, 114720, Note_off_c, 1, 72, 0
2, 114720, Note_on_c, 1, 73, 127
2, 114720, Note_on_c, 1, 78, 127
2, 114720, Note_off_c, 1, 84, 0
2, 114760, Note_off_c, 1, 54, 0
2, 114760, Note_on_c, 1, 68, 127
2, 114760, Note_off_c, 1, 70, 0
2, 114760, Note_off_c, 1, 73, 0
2, 114760, Note_on_c, 1, 75, 127
2, 114760, Note_off_c, 1, 78, 0
2, 114760, Note_on_c, 1, 84, 127
2, 114800, Note_on_c, 1, 54, 127
2, 114800, Note_off_c, 1, 68, 0
2, 114800, Note_on_c, 1, 70, 127
2, 114800, Note_on_c, 1, 73, 127
2, 114800, Note_off_c, 1, 75, 0
2, 114800, Note_on_c, 1, 78, 127
2, 114800, Note_off_c, 1, 84, 0
2, 114840, Note_on_c, 1, 41, 127
2, 114840, Note_on_c, 1, 48, 127
2, 114840, Note_on_c, 1, 53, 127
2, 114840, Note_off_c, 1, 54, 0
2, 114840, Note_off_c, 1, 64, 0
2, 114840, Note_off_c, 1, 70, 0
2, 114840, Note_on_c, 1, 72, 127
2, 114840, Note_off_c, 1, 73, 0
2, 114840, Note_off_c, 1, 78, 0
2, 114840, Note_on_c, 1, 84, 127
2, 115000, Note_off_c, 1, 41, 0
2, 115000, Note_off_c, 1, 48, 0
2, 115000, Note_off_c, 1, 53, 0
2, 115000, Note_off_c, 1, 72, 0
2, 115000, Note_on_c, 1, 75, 127
2, 115000, Note_on_c, 1, 78, 127
2, 115000, Note_on_c, 1, 81, 127
2, 115000, Note_off_c, 1, 84, 0
2, 115000, Note_on_c, 1, 87, 127
2, 115040, Note_on_c, 1, 38, 127
2, 115040, Note_on_c, 1, 50, 127
2, 115040, Note_on_c, 1, 59, 127
2, 115040, Note_on_c, 1, 65, 127
2, 115040, Note_on_c, 1, 68, 127
2, 115040, Note_on_c, 1, 71, 127
2, 115040, Note_off_c, 1, 75, 0
2, 115040, Note_off_c, 1, 78, 0
2, 115040, Note_off_c, 1, 81, 0
2, 115040, Note_off_c, 1, 87, 0
2, 115400, Note_off_c, 1, 38, 0
2, 115400, Note_off_c, 1, 50, 0
2, 115440, Note_off_c, 1, 59, 0
2, 115440, Note_on_c, 1, 64, 127
2, 115440, Note_off_c, 1, 65, 0
2, 115440, Note_on_c, 1, 82, 127
2, 115800, Note_on_c, 1, 67, 127
2, 115800, Note_off_c, 1, 68, 0
2, 115800, Note_on_c, 1, 70, 127
2, 115800, Note_off_c, 1, 71, 0
2, 115800, Note_off_c, 1, 82, 0
2, 115840, Note_off_c, 1, 64, 0
2, 115840, Note_off_c, 1, 67, 0
2, 115840, Note_off_c, 1, 70, 0
2, 115880, Note_on_c, 1, 64, 127
2, 115880, Note_on_c, 1, 68, 127
2, 115880, Note_on_c, 1, 71, 127
2, 115880, Note_on_c, 1, 82, 127
2, 116640, Note_off_c, 1, 64, 0
2, 116640, Note_off_c, 1, 68, 0
2, 116640, Note_off_c, 1, 71, 0
2, 116640, Note_off_c, 1, 82, 0
2, 116680, Note_on_c, 1, 61, 127
2, 116680, Note_on_c, 1, 66, 127
2, 116680, Note_on_c, 1, 73, 127
2, 116680, Note_on_c, 1, 82, 127
2, 117840, Note_off_c, 1, 61, 0
2, 117840, Note_off_c, 1, 66, 0
2, 117840, Note_off_c, 1, 73, 0
2, 117840, Note_off_c, 1, 82, 0
2, 117920, Note_on_c, 1, 41, 127
2, 117920, Note_on_c, 1, 49, 127
2, 117920, Note_on_c, 1, 65, 127
2, 117920, Note_on_c, 1, 68, 127
2, 117960, Note_on_c, 1, 61, 127
2, 117960, Note_off_c, 1, 65, 0
2, 117960, Note_off_c, 1, 68, 0
2, 117960, Note_on_c, 1, 73, 127
2, 119080, Note_off_c, 1, 41, 0
2, 119080, Note_off_c, 1, 49, 0
2, 119080, Note_off_c, 1, 61, 0
2, 119080, Note_off_c, 1, 73, 0
2, 119120, Note_on_c, 1, 37, 127
2, 119120, Note_on_c, 1, 49, 127
2, 119120, Note_on_c, 1, 57, 127
2, 119120, Note_on_c, 1, 61, 127
2, 119120, Note_on_c, 1, 66, 127
2, 119120, Note_on_c, 1, 69, 127
2, 119920, Note_off_c, 1, 37, 0
2, 119920, Note_off_c, 1, 49, 0
2, 119920, Note_off_c, 1, 57, 0
2, 119920, Note_off_c, 1, 61, 0
2, 119920, Note_off_c, 1, 66, 0
2, 119920, Note_off_c, 1, 69, 0
2, 119960, Note_on_c, 1, 37, 127
2, 119960, Note_on_c, 1, 49, 127
2, 119960, Note_on_c, 1, 57, 127
2, 119960, Note_on_c, 1, 61, 127
2, 119960, Note_on_c, 1, 66, 127
2, 119960, Note_on_c, 1, 69, 127
2, 120000, Note_off_c, 1, 37, 0
2, 120000, Note_off_c, 1, 49, 0
2, 120000, Note_off_c, 1, 57, 0
2, 120000, Note_off_c, 1, 61, 0
2, 120000, Note_off_c, 1, 66, 0
2, 120000, Note_off_c, 1, 69, 0
2, 120040, End_track
3, 0, Start_track
3, 0, Title_t, "MIDI"
3, 1536, End_track
0, 0, End_of_file
