0, 0, Header, 1, 3, 192
1, 0, Start_track
1, 0, Time_signature, 4, 2, 24, 8
1, 0, Tempo, 500000
1, 120040, End_track
2, 0, Start_track
2, 0, Text_t, "random instrument: random person i dunno whatev"
2, 0, Title_t, "Track 1"
2, 0, Note_on_c, 1, 34, 127
2, 0, Note_on_c, 1, 53, 127
2, 0, Note_on_c, 1, 56, 127
2, 0, Note_on_c, 1, 62, 127
2, 40, Note_off_c, 1, 34, 0
2, 40, Note_off_c, 1, 53, 0
2, 40, Note_off_c, 1, 56, 0
2, 40, Note_off_c, 1, 62, 0
2, 40, Note_on_c, 1, 67, 127
2, 40, Note_on_c, 1, 76, 127
2, 40, Note_on_c, 1, 79, 127
2, 40, Note_on_c, 1, 85, 127
2, 40, Note_on_c, 1, 88, 127
2, 80, Note_off_c, 1, 67, 0
2, 80, Note_off_c, 1, 76, 0
2, 80, Note_off_c, 1, 79, 0
2, 80, Note_off_c, 1, 85, 0
2, 80, Note_off_c, 1, 88, 0
2, 120, Note_on_c, 1, 34, 127
2, 120, Note_on_c, 1, 53, 127
2, 120, Note_on_c, 1, 56, 127
2, 120, Note_on_c, 1, 62, 127
2, 160, Note_off_c, 1, 34, 0
2, 160, Note_on_c, 1, 43, 127
2, 160, Note_on_c, 1, 47, 127
2, 160, Note_off_c, 1, 53, 0
2, 160, Note_on_c, 1, 55, 127
2, 160, Note_off_c, 1, 56, 0
2, 160, Note_off_c, 1, 62, 0
2, 160, Note_on_c, 1, 79, 127
2, 160, Note_on_c, 1, 83, 127
2, 160, Note_on_c, 1, 87, 127
2, 160, Note_on_c, 1, 91, 127
2, 200, Note_off_c, 1, 43, 0
2, 200, Note_off_c, 1, 47, 0
2, 200, Note_on_c, 1, 48, 127
2, 200, Note_off_c, 1, 55, 0
2, 200, Note_on_c, 1, 61, 127
2, 200, Note_on_c, 1, 64, 127
2, 200, Note_on_c, 1, 70, 127
2, 200, Note_off_c, 1, 79, 0
2, 200, Note_off_c, 1, 83, 0
2, 200, Note_off_c, 1, 87, 0
2, 200, Note_off_c, 1, 91, 0
2, 240, Note_on_c, 1, 42, 127
2, 240, Note_off_c, 1, 48, 0
2, 240, Note_on_c, 1, 55, 127
2, 240, Note_on_c, 1, 60, 127
2, 240, Note_off_c, 1, 61, 0
2, 240, Note_on_c, 1, 67, 127
2, 240, Note_off_c, 1, 70, 0
2, 280, Note_on_c, 1, 39, 127
2, 280, Note_off_c, 1, 42, 0
2, 280, Note_off_c, 1, 55, 0
2, 280, Note_on_c, 1, 56, 127
2, 280, Note_on_c, 1, 59, 127
2, 280, Note_off_c, 1, 60, 0
2, 280, Note_off_c, 1, 64, 0
2, 280, Note_on_c, 1, 66, 127
2, 280, Note_off_c, 1, 67, 0
2, 320, Note_off_c, 1, 39, 0
2, 320, Note_off_c, 1, 56, 0
2, 320, Note_off_c, 1, 59, 0
2, 320, Note_on_c, 1, 64, 127
2, 320, Note_off_c, 1, 66, 0
2, 360, Note_off_c, 1, 64, 0
2, 360, Note_on_c, 1, 68, 127
2, 360, Note_on_c, 1, 89, 127
2, 400, Note_on_c, 1, 65, 127
2, 400, Note_off_c, 1, 68, 0
2, 440, Note_off_c, 1, 65, 0
2, 440, Note_on_c, 1, 68, 127
2, 480, Note_off_c, 1, 89, 0
2, 520, Note_on_c, 1, 89, 127
2, 600, Note_off_c, 1, 89, 0
2, 640, Note_on_c, 1, 85, 127
2, 840, Note_off_c, 1, 85, 0
2, 880, Note_on_c, 1, 76, 127
2, 880, Note_on_c, 1, 83, 127
2, 1080, Note_off_c, 1, 68, 0
2, 1080, Note_off_c, 1, 76, 0
2, 1080, Note_off_c, 1, 83, 0
2, 1120, Note_on_c, 1, 60, 127
2, 1120, Note_on_c, 1, 75, 127
2, 1120, Note_on_c, 1, 80, 127
2, 1240, Note_on_c, 1, 55, 127
2, 1240, Note_off_c, 1, 60, 0
2, 1240, Note_off_c, 1, 75, 0
2, 1240, Note_on_c, 1, 77, 127
2, 1280, Note_off_c, 1, 55, 0
2, 1280, Note_on_c, 1, 60, 127
2, 1280, Note_on_c, 1, 75, 127
2, 1280, Note_off_c, 1, 77, 0
2, 1520, Note_on_c, 1, 63, 127
2, 1560, Note_off_c, 1, 63, 0
2, 1600, Note_off_c, 1, 60, 0
2, 1600, Note_off_c, 1, 75, 0
2, 1600, Note_off_c, 1, 80, 0
2, 1640, Note_on_c, 1, 59, 127
2, 1640, Note_on_c, 1, 68, 127
2, 1640, Note_on_c, 1, 75, 127
2, 1640, Note_on_c, 1, 80, 127
2, 1840, Note_off_c, 1, 59, 0
2, 1840, Note_off_c, 1, 68, 0
2, 1840, Note_off_c, 1, 75, 0
2, 1840, Note_off_c, 1, 80, 0
2, 2400, Note_on_c, 1, 73, 127
2, 2440, Note_off_c, 1, 73, 0
2, 2440, Note_on_c, 1, 75, 127
2, 2480, Note_off_c, 1, 75, 0
2, 2480, Note_on_c, 1, 78, 127
2, 2560, Note_off_c, 1, 78, 0
2, 2600, Note_on_c, 1, 80, 127
2, 2640, Note_on_c, 1, 75, 127
2, 2640, Note_off_c, 1, 80, 0
2, 2840, Note_off_c, 1, 75, 0
2, 2880, Note_on_c, 1, 78, 127
2, 3040, Note_off_c, 1, 78, 0
2, 3080, Note_on_c, 1, 80, 127
2, 3240, Note_off_c, 1, 80, 0
2, 3280, Note_on_c, 1, 82, 127
2, 3480, Note_off_c, 1, 82, 0
2, 3520, Note_on_c, 1, 80, 127
2, 3720, Note_off_c, 1, 80, 0
2, 3760, Note_on_c, 1, 53, 127
2, 3760, Note_on_c, 1, 56, 127
2, 3760, Note_on_c, 1, 60, 127
2, 3760, Note_on_c, 1, 65, 127
2, 3760, Note_on_c, 1, 84, 127
2, 3880, Note_on_c, 1, 82, 127
2, 3880, Note_off_c, 1, 84, 0
2, 3960, Note_off_c, 1, 53, 0
2, 3960, Note_off_c, 1, 56, 0
2, 3960, Note_off_c, 1, 60, 0
2, 3960, Note_off_c, 1, 65, 0
2, 3960, Note_off_c, 1, 82, 0
2, 4000, Note_on_c, 1, 53, 127
2, 4000, Note_on_c, 1, 56, 127
2, 4000, Note_on_c, 1, 60, 127
2, 4000, Note_on_c, 1, 65, 127
2, 4000, Note_on_c, 1, 79, 127
2, 4120, Note_off_c, 1, 79, 0
2, 4120, Note_on_c, 1, 80, 127
2, 4200, Note_off_c, 1, 53, 0
2, 4200, Note_off_c, 1, 56, 0
2, 4200, Note_off_c, 1, 60, 0
2, 4200, Note_off_c, 1, 65, 0
2, 4200, Note_off_c, 1, 80, 0
2, 4280, Note_on_c, 1, 42, 127
2, 4280, Note_on_c, 1, 49, 127
2, 4280, Note_on_c, 1, 58, 127
2, 4280, Note_on_c, 1, 61, 127
2, 4280, Note_on_c, 1, 66, 127
2, 4480, Note_off_c, 1, 42, 0
2, 4480, Note_off_c, 1, 49, 0
2, 4480, Note_off_c, 1, 58, 0
2, 4480, Note_off_c, 1, 61, 0
2, 4480, Note_off_c, 1, 66, 0
2, 5240, Note_on_c, 1, 43, 127
2, 5240, Note_on_c, 1, 50, 127
2, 5240, Note_on_c, 1, 60, 127
2, 5240, Note_on_c, 1, 62, 127
2, 5240, Note_on_c, 1, 69, 127
2, 5440, Note_off_c, 1, 43, 0
2, 5440, Note_off_c, 1, 50, 0
2, 5440, Note_off_c, 1, 60, 0
2, 5440, Note_off_c, 1, 62, 0
2, 5440, Note_off_c, 1, 69, 0
2, 6200, Note_on_c, 1, 42, 127
2, 6200, Note_on_c, 1, 52, 127
2, 6200, Note_on_c, 1, 59, 127
2, 6200, Note_on_c, 1, 64, 127
2, 6240, Note_off_c, 1, 42, 0
2, 6240, Note_off_c, 1, 52, 0
2, 6240, Note_off_c, 1, 59, 0
2, 6240, Note_off_c, 1, 64, 0
2, 6240, Note_on_c, 1, 67, 127
2, 6240, Note_on_c, 1, 70, 127
2, 6240, Note_on_c, 1, 84, 127
2, 6240, Note_on_c, 1, 87, 127
2, 6240, Note_on_c, 1, 93, 127
2, 6280, Note_off_c, 1, 67, 0
2, 6280, Note_off_c, 1, 70, 0
2, 6280, Note_off_c, 1, 84, 0
2, 6280, Note_off_c, 1, 87, 0
2, 6280, Note_off_c, 1, 93, 0
2, 6320, Note_on_c, 1, 48, 127
2, 6320, Note_on_c, 1, 53, 127
2, 6320, Note_on_c, 1, 60, 127
2, 6320, Note_on_c, 1, 81, 127
2, 6320, Note_on_c, 1, 84, 127
2, 6320, Note_on_c, 1, 89, 127
2, 6320, Note_on_c, 1, 93, 127
2, 6360, Note_off_c, 1, 48, 0
2, 6360, Note_off_c, 1, 53, 0
2, 6360, Note_off_c, 1, 60, 0
2, 6360, Note_on_c, 1, 70, 127
2, 6360, Note_on_c, 1, 78, 127
2, 6360, Note_off_c, 1, 81, 0
2, 6360, Note_off_c, 1, 84, 0
2, 6360, Note_on_c, 1, 88, 127
2, 6360, Note_off_c, 1, 89, 0
2, 6360, Note_off_c, 1, 93, 0
2, 6400, Note_on_c, 1, 65, 127
2, 6400, Note_on_c, 1, 69, 127
2, 6400, Note_off_c, 1, 70, 0
2, 6400, Note_on_c, 1, 75, 127
2, 6400, Note_off_c, 1, 78, 0
2, 6400, Note_off_c, 1, 88, 0
2, 6400, Note_on_c, 1, 98, 127
2, 6440, Note_off_c, 1, 65, 0
2, 6440, Note_off_c, 1, 69, 0
2, 6440, Note_off_c, 1, 75, 0
2, 6440, Note_off_c, 1, 98, 0
2, 7560, Note_on_c, 1, 51, 127
2, 7560, Note_on_c, 1, 54, 127
2, 7560, Note_on_c, 1, 59, 127
2, 7760, Note_off_c, 1, 51, 0
2, 7760, Note_off_c, 1, 54, 0
2, 7760, Note_off_c, 1, 59, 0
2, 8040, Note_on_c, 1, 52, 127
2, 8040, Note_on_c, 1, 56, 127
2, 8040, Note_on_c, 1, 59, 127
2, 8040, Note_on_c, 1, 68, 127
2, 8480, Note_off_c, 1, 52, 0
2, 8480, Note_off_c, 1, 56, 0
2, 8480, Note_off_c, 1, 59, 0
2, 8480, Note_off_c, 1, 68, 0
2, 8560, Note_on_c, 1, 52, 127
2, 8560, Note_on_c, 1, 56, 127
2, 8560, Note_on_c, 1, 59, 127
2, 8560, Note_on_c, 1, 68, 127
2, 8720, Note_off_c, 1, 52, 0
2, 8720, Note_off_c, 1, 56, 0
2, 8720, Note_off_c, 1, 59, 0
2, 8720, Note_off_c, 1, 68, 0
2, 8760, Note_on_c, 1, 52, 127
2, 8760, Note_on_c, 1, 56, 127
2, 8760, Note_on_c, 1, 59, 127
2, 8760, Note_on_c, 1, 68, 127
2, 8960, Note_off_c, 1, 52, 0
2, 8960, Note_off_c, 1, 56, 0
2, 8960, Note_off_c, 1, 59, 0
2, 8960, Note_off_c, 1, 68, 0
2, 9360, Note_on_c, 1, 52, 127
2, 9360, Note_on_c, 1, 59, 127
2, 9360, Note_on_c, 1, 63, 127
2, 9360, Note_on_c, 1, 69, 127
2, 9360, Note_on_c, 1, 78, 127
2, 9800, Note_off_c, 1, 52, 0
2, 9800, Note_off_c, 1, 59, 0
2, 9800, Note_off_c, 1, 63, 0
2, 9800, Note_off_c, 1, 69, 0
2, 9800, Note_off_c, 1, 78, 0
2, 9840, Note_on_c, 1, 52, 127
2, 9840, Note_on_c, 1, 59, 127
2, 9840, Note_on_c, 1, 66, 127
2, 9840, Note_on_c, 1, 69, 127
2, 9840, Note_on_c, 1, 75, 127
2, 10280, Note_off_c, 1, 52, 0
2, 10280, Note_off_c, 1, 59, 0
2, 10280, Note_off_c, 1, 66, 0
2, 10280, Note_off_c, 1, 69, 0
2, 10280, Note_off_c, 1, 75, 0
2, 10320, Note_on_c, 1, 45, 127
2, 10320, Note_on_c, 1, 52, 127
2, 10320, Note_on_c, 1, 57, 127
2, 10320, Note_on_c, 1, 61, 127
2, 10640, Note_off_c, 1, 45, 0
2, 10640, Note_off_c, 1, 52, 0
2, 10640, Note_off_c, 1, 57, 0
2, 10640, Note_off_c, 1, 61, 0
2, 10680, Note_on_c, 1, 45, 127
2, 10680, Note_on_c, 1, 52, 127
2, 10680, Note_on_c, 1, 57, 127
2, 10680, Note_on_c, 1, 61, 127
2, 10800, Note_off_c, 1, 45, 0
2, 10800, Note_off_c, 1, 52, 0
2, 10800, Note_off_c, 1, 57, 0
2, 10800, Note_off_c, 1, 61, 0
2, 10840, Note_on_c, 1, 50, 127
2, 10840, Note_on_c, 1, 52, 127
2, 10840, Note_on_c, 1, 62, 127
2, 10840, Note_on_c, 1, 66, 127
2, 10840, Note_on_c, 1, 69, 127
2, 10840, Note_on_c, 1, 78, 127
2, 11080, Note_on_c, 1, 49, 127
2, 11080, Note_off_c, 1, 50, 0
2, 11080, Note_on_c, 1, 61, 127
2, 11080, Note_off_c, 1, 62, 0
2, 11080, Note_on_c, 1, 64, 127
2, 11080, Note_off_c, 1, 66, 0
2, 11080, Note_on_c, 1, 76, 127
2, 11080, Note_off_c, 1, 78, 0
2, 11160, Note_off_c, 1, 49, 0
2, 11160, Note_off_c, 1, 52, 0
2, 11160, Note_off_c, 1, 61, 0
2, 11160, Note_off_c, 1, 64, 0
2, 11160, Note_off_c, 1, 69, 0
2, 11160, Note_off_c, 1, 76, 0
2, 11200, Note_on_c, 1, 62, 127
2, 11200, Note_on_c, 1, 68, 127
2, 11200, Note_on_c, 1, 86, 127
2, 11200, Note_on_c, 1, 89, 127
2, 11240, Note_off_c, 1, 62, 0
2, 11240, Note_on_c, 1, 65, 127
2, 11240, Note_off_c, 1, 68, 0
2, 11240, Note_on_c, 1, 69, 127
2, 11240, Note_on_c, 1, 72, 127
2, 11240, Note_on_c, 1, 79, 127
2, 11240, Note_off_c, 1, 86, 0
2, 11240, Note_off_c, 1, 89, 0
2, 11280, Note_off_c, 1, 65, 0
2, 11280, Note_off_c, 1, 69, 0
2, 11280, Note_off_c, 1, 72, 0
2, 11280, Note_off_c, 1, 79, 0
2, 11320, Note_on_c, 1, 61, 127
2, 11320, Note_on_c, 1, 68, 127
2, 11320, Note_on_c, 1, 73, 127
2, 11320, Note_on_c, 1, 76, 127
2, 11320, Note_on_c, 1, 80, 127
2, 11320, Note_on_c, 1, 88, 127
2, 11720, Note_off_c, 1, 61, 0
2, 11720, Note_off_c, 1, 68, 0
2, 11720, Note_off_c, 1, 73, 0
2, 11720, Note_off_c, 1, 76, 0
2, 11720, Note_off_c, 1, 80, 0
2, 11720, Note_off_c, 1, 88, 0
2, 11760, Note_on_c, 1, 42, 127
2, 11760, Note_on_c, 1, 52, 127
2, 11760, Note_on_c, 1, 54, 127
2, 11760, Note_on_c, 1, 61, 127
2, 11760, Note_on_c, 1, 66, 127
2, 11760, Note_on_c, 1, 70, 127
2, 11760, Note_on_c, 1, 73, 127
2, 12480, Note_off_c, 1, 42, 0
2, 12480, Note_off_c, 1, 52, 0
2, 12480, Note_off_c, 1, 54, 0
2, 12480, Note_off_c, 1, 61, 0
2, 12480, Note_off_c, 1, 66, 0
2, 12480, Note_off_c, 1, 70, 0
2, 12480, Note_off_c, 1, 73, 0
2, 14240, Note_on_c, 1, 36, 127
2, 14240, Note_on_c, 1, 60, 127
2, 14360, Note_on_c, 1, 53, 127
2, 14360, Note_off_c, 1, 60, 0
2, 14440, Note_off_c, 1, 53, 0
2, 14480, Note_on_c, 1, 64, 127
2, 14560, Note_off_c, 1, 64, 0
2, 14600, Note_on_c, 1, 65, 127
2, 14680, Note_off_c, 1, 65, 0
2, 14720, Note_on_c, 1, 64, 127
2, 14800, Note_off_c, 1, 64, 0
2, 14840, Note_on_c, 1, 62, 127
2, 14880, Note_off_c, 1, 62, 0
2, 14920, Note_on_c, 1, 60, 127
2, 15000, Note_off_c, 1, 60, 0
2, 15040, Note_on_c, 1, 62, 127
2, 15120, Note_off_c, 1, 62, 0
2, 15160, Note_on_c, 1, 63, 127
2, 15200, Note_off_c, 1, 36, 0
2, 15200, Note_off_c, 1, 63, 0
2, 15280, Note_on_c, 1, 36, 127
2, 15280, Note_on_c, 1, 65, 127
2, 15480, Note_off_c, 1, 65, 0
2, 15520, Note_on_c, 1, 65, 127
2, 15600, Note_off_c, 1, 65, 0
2, 15640, Note_on_c, 1, 60, 127
2, 15720, Note_off_c, 1, 36, 0
2, 15720, Note_off_c, 1, 60, 0
2, 15760, Note_on_c, 1, 48, 127
2, 16000, Note_off_c, 1, 48, 0
2, 16040, Note_on_c, 1, 31, 127
2, 16040, Note_on_c, 1, 58, 127
2, 16080, Note_off_c, 1, 31, 0
2, 16080, Note_on_c, 1, 57, 127
2, 16080, Note_off_c, 1, 58, 0
2, 16080, Note_on_c, 1, 60, 127
2, 16080, Note_on_c, 1, 63, 127
2, 16080, Note_on_c, 1, 72, 127
2, 16080, Note_on_c, 1, 78, 127
2, 16080, Note_on_c, 1, 83, 127
2, 16120, Note_on_c, 1, 34, 127
2, 16120, Note_off_c, 1, 57, 0
2, 16120, Note_off_c, 1, 63, 0
2, 16120, Note_off_c, 1, 72, 0
2, 16120, Note_off_c, 1, 78, 0
2, 16120, Note_off_c, 1, 83, 0
2, 16200, Note_on_c, 1, 58, 127
2, 16200, Note_off_c, 1, 60, 0
2, 16240, Note_off_c, 1, 58, 0
2, 16240, Note_on_c, 1, 60, 127
2, 16280, Note_on_c, 1, 58, 127
2, 16280, Note_off_c, 1, 60, 0
2, 16320, Note_off_c, 1, 58, 0
2, 16320, Note_on_c, 1, 60, 127
2, 16400, Note_off_c, 1, 34, 0
2, 16400, Note_on_c, 1, 38, 127
2, 16400, Note_on_c, 1, 57, 127
2, 16400, Note_on_c, 1, 62, 127
2, 16400, Note_on_c, 1, 66, 127
2, 16440, Note_off_c, 1, 38, 0
2, 16440, Note_off_c, 1, 57, 0
2, 16440, Note_off_c, 1, 60, 0
2, 16440, Note_off_c, 1, 62, 0
2, 16440, Note_off_c, 1, 66, 0
2, 16480, Note_on_c, 1, 36, 127
2, 16520, Note_off_c, 1, 36, 0
2, 16520, Note_on_c, 1, 48, 127
2, 16560, Note_off_c, 1, 48, 0
2, 16600, Note_on_c, 1, 36, 127
2, 16600, Note_on_c, 1, 48, 127
2, 16640, Note_off_c, 1, 36, 0
2, 16640, Note_off_c, 1, 48, 0
2, 16680, Note_on_c, 1, 53, 127
2, 16720, Note_on_c, 1, 36, 127
2, 16720, Note_on_c, 1, 48, 127
2, 16720, Note_off_c, 1, 53, 0
2, 17160, Note_off_c, 1, 36, 0
2, 17160, Note_off_c, 1, 48, 0
2, 18240, Note_on_c, 1, 40, 127
2, 18240, Note_on_c, 1, 52, 127
2, 18240, Note_on_c, 1, 64, 127
2, 18680, Note_off_c, 1, 40, 0
2, 18680, Note_off_c, 1, 52, 0
2, 18680, Note_off_c, 1, 64, 0
2, 18720, Note_on_c, 1, 42, 127
2, 18720, Note_on_c, 1, 54, 127
2, 18720, Note_on_c, 1, 66, 127
2, 18760, Note_off_c, 1, 42, 0
2, 18760, Note_off_c, 1, 54, 0
2, 18760, Note_off_c, 1, 66, 0
2, 18880, Note_on_c, 1, 47, 127
2, 18880, Note_on_c, 1, 59, 127
2, 18880, Note_on_c, 1, 71, 127
2, 18920, Note_off_c, 1, 47, 0
2, 18920, Note_off_c, 1, 59, 0
2, 18920, Note_off_c, 1, 71, 0
2, 18960, Note_on_c, 1, 40, 127
2, 18960, Note_on_c, 1, 52, 127
2, 18960, Note_on_c, 1, 64, 127
2, 19000, Note_off_c, 1, 40, 0
2, 19000, Note_off_c, 1, 52, 0
2, 19000, Note_off_c, 1, 64, 0
2, 19160, Note_on_c, 1, 38, 127
2, 19160, Note_on_c, 1, 50, 127
2, 19160, Note_on_c, 1, 62, 127
2, 19200, Note_off_c, 1, 38, 0
2, 19200, Note_on_c, 1, 39, 127
2, 19200, Note_off_c, 1, 50, 0
2, 19200, Note_on_c, 1, 51, 127
2, 19200, Note_off_c, 1, 62, 0
2, 19200, Note_on_c, 1, 63, 127
2, 19240, Note_off_c, 1, 39, 0
2, 19240, Note_off_c, 1, 51, 0
2, 19240, Note_off_c, 1, 63, 0
2, 19360, Note_on_c, 1, 40, 127
2, 19360, Note_on_c, 1, 52, 127
2, 19360, Note_on_c, 1, 64, 127
2, 19400, Note_off_c, 1, 40, 0
2, 19400, Note_on_c, 1, 42, 127
2, 19400, Note_off_c, 1, 52, 0
2, 19400, Note_on_c, 1, 54, 127
2, 19400, Note_off_c, 1, 64, 0
2, 19400, Note_on_c, 1, 66, 127
2, 19440, Note_off_c, 1, 42, 0
2, 19440, Note_off_c, 1, 54, 0
2, 19440, Note_off_c, 1, 66, 0
2, 19560, Note_on_c, 1, 41, 127
2, 19560, Note_on_c, 1, 53, 127
2, 19560, Note_on_c, 1, 65, 127
2, 19600, Note_on_c, 1, 40, 127
2, 19600, Note_off_c, 1, 41, 0
2, 19600, Note_on_c, 1, 52, 127
2, 19600, Note_off_c, 1, 53, 0
2, 19600, Note_on_c, 1, 64, 127
2, 19600, Note_off_c, 1, 65, 0
2, 19640, Note_off_c, 1, 40, 0
2, 19640, Note_off_c, 1, 52, 0
2, 19640, Note_off_c, 1, 64, 0
2, 19720, Note_on_c, 1, 41, 127
2, 19720, Note_on_c, 1, 53, 127
2, 19720, Note_on_c, 1, 65, 127
2, 19760, Note_off_c, 1, 41, 0
2, 19760, Note_off_c, 1, 53, 0
2, 19760, Note_off_c, 1, 65, 0
2, 19840, Note_on_c, 1, 36, 127
2, 19840, Note_on_c, 1, 48, 127
2, 19920, Note_off_c, 1, 36, 0
2, 19920, Note_off_c, 1, 48, 0
2, 20000, Note_on_c, 1, 31, 127
2, 20000, Note_on_c, 1, 43, 127
2, 20000, Note_on_c, 1, 55, 127
2, 20080, Note_off_c, 1, 31, 0
2, 20080, Note_off_c, 1, 43, 0
2, 20080, Note_off_c, 1, 55, 0
2, 20200, Note_on_c, 1, 31, 127
2, 20200, Note_on_c, 1, 43, 127
2, 20200, Note_on_c, 1, 55, 127
2, 20480, Note_off_c, 1, 31, 0
2, 20480, Note_off_c, 1, 43, 0
2, 20480, Note_off_c, 1, 55, 0
2, 20600, Note_on_c, 1, 28, 127
2, 20600, Note_on_c, 1, 40, 127
2, 20600, Note_on_c, 1, 52, 127
2, 20600, Note_on_c, 1, 64, 127
2, 21000, Note_off_c, 1, 28, 0
2, 21000, Note_off_c, 1, 40, 0
2, 21000, Note_off_c, 1, 52, 0
2, 21000, Note_off_c, 1, 64, 0
2, 21480, Note_on_c, 1, 29, 127
2, 21480, Note_on_c, 1, 43, 127
2, 21480, Note_on_c, 1, 58, 127
2, 21520, Note_off_c, 1, 29, 0
2, 21520, Note_off_c, 1, 43, 0
2, 21520, Note_off_c, 1, 58, 0
2, 21920, Note_on_c, 1, 31, 127
2, 21920, Note_on_c, 1, 43, 127
2, 21920, Note_on_c, 1, 71, 127
2, 22000, Note_off_c, 1, 31, 0
2, 22000, Note_off_c, 1, 43, 0
2, 22000, Note_off_c, 1, 71, 0
2, 22160, Note_on_c, 1, 55, 127
2, 22160, Note_on_c, 1, 64, 127
2, 22160, Note_on_c, 1, 72, 127
2, 22160, Note_on_c, 1, 81, 127
2, 22160, Note_on_c, 1, 84, 127
2, 22480, Note_off_c, 1, 81, 0
2, 22520, Note_off_c, 1, 55, 0
2, 22520, Note_off_c, 1, 64, 0
2, 22520, Note_off_c, 1, 72, 0
2, 22520, Note_off_c, 1, 84, 0
2, 22560, Note_on_c, 1, 55, 127
2, 22560, Note_on_c, 1, 64, 127
2, 22560, Note_on_c, 1, 72, 127
2, 22560, Note_on_c, 1, 84, 127
2, 23080, Note_off_c, 1, 55, 0
2, 23080, Note_off_c, 1, 64, 0
2, 23080, Note_off_c, 1, 72, 0
2, 23080, Note_off_c, 1, 84, 0
2, 23120, Note_on_c, 1, 53, 127
2, 23120, Note_on_c, 1, 68, 127
2, 23120, Note_on_c, 1, 74, 127
2, 23120, Note_on_c, 1, 85, 127
2, 23160, Note_off_c, 1, 53, 0
2, 23160, Note_off_c, 1, 68, 0
2, 23160, Note_on_c, 1, 70, 127
2, 23160, Note_off_c, 1, 74, 0
2, 23160, Note_on_c, 1, 83, 127
2, 23160, Note_off_c, 1, 85, 0
2, 23160, Note_on_c, 1, 95, 127
2, 23200, Note_off_c, 1, 70, 0
2, 23200, Note_on_c, 1, 73, 127
2, 23200, Note_off_c, 1, 83, 0
2, 23200, Note_on_c, 1, 84, 127
2, 23200, Note_on_c, 1, 89, 127
2, 23200, Note_off_c, 1, 95, 0
2, 23200, Note_on_c, 1, 96, 127
2, 23240, Note_on_c, 1, 53, 127
2, 23240, Note_on_c, 1, 68, 127
2, 23240, Note_off_c, 1, 73, 0
2, 23240, Note_on_c, 1, 74, 127
2, 23240, Note_off_c, 1, 84, 0
2, 23240, Note_on_c, 1, 85, 127
2, 23240, Note_off_c, 1, 89, 0
2, 23240, Note_off_c, 1, 96, 0
2, 23320, Note_off_c, 1, 53, 0
2, 23320, Note_off_c, 1, 68, 0
2, 23320, Note_off_c, 1, 74, 0
2, 23320, Note_off_c, 1, 85, 0
2, 23320, Note_on_c, 1, 95, 127
2, 23320, Note_on_c, 1, 98, 127
2, 23320, Note_on_c, 1, 103, 127
2, 23320, Note_on_c, 1, 104, 127
2, 23360, Note_on_c, 1, 51, 127
2, 23360, Note_on_c, 1, 58, 127
2, 23360, Note_on_c, 1, 67, 127
2, 23360, Note_on_c, 1, 82, 127
2, 23360, Note_on_c, 1, 87, 127
2, 23360, Note_off_c, 1, 95, 0
2, 23360, Note_off_c, 1, 98, 0
2, 23360, Note_off_c, 1, 103, 0
2, 23360, Note_off_c, 1, 104, 0
2, 23400, Note_off_c, 1, 51, 0
2, 23400, Note_on_c, 1, 55, 127
2, 23400, Note_on_c, 1, 79, 127
2, 23400, Note_off_c, 1, 87, 0
2, 23440, Note_off_c, 1, 55, 0
2, 23440, Note_off_c, 1, 58, 0
2, 23440, Note_off_c, 1, 67, 0
2, 23440, Note_on_c, 1, 68, 127
2, 23440, Note_on_c, 1, 71, 127
2, 23440, Note_on_c, 1, 77, 127
2, 23440, Note_off_c, 1, 79, 0
2, 23440, Note_on_c, 1, 80, 127
2, 23440, Note_off_c, 1, 82, 0
2, 23440, Note_on_c, 1, 83, 127
2, 23480, Note_off_c, 1, 68, 0
2, 23480, Note_off_c, 1, 71, 0
2, 23480, Note_off_c, 1, 77, 0
2, 23480, Note_off_c, 1, 80, 0
2, 23480, Note_off_c, 1, 83, 0
2, 23480, Note_on_c, 1, 91, 127
2, 23480, Note_on_c, 1, 100, 127
2, 23520, Note_on_c, 1, 68, 127
2, 23520, Note_on_c, 1, 76, 127
2, 23520, Note_on_c, 1, 86, 127
2, 23520, Note_off_c, 1, 91, 0
2, 23520, Note_off_c, 1, 100, 0
2, 23720, Note_off_c, 1, 68, 0
2, 23720, Note_off_c, 1, 86, 0
2, 23760, Note_off_c, 1, 76, 0
2, 23760, Note_on_c, 1, 92, 127
2, 23760, Note_on_c, 1, 102, 127
2, 23960, Note_off_c, 1, 102, 0
2, 24000, Note_on_c, 1, 38, 127
2, 24000, Note_on_c, 1, 50, 127
2, 24000, Note_on_c, 1, 57, 127
2, 24000, Note_on_c, 1, 60, 127
2, 24000, Note_on_c, 1, 67, 127
2, 24000, Note_off_c, 1, 92, 0
2, 24640, Note_off_c, 1, 38, 0
2, 24640, Note_off_c, 1, 50, 0
2, 24640, Note_off_c, 1, 57, 0
2, 24640, Note_off_c, 1, 60, 0
2, 24640, Note_off_c, 1, 67, 0
2, 24680, Note_on_c, 1, 38, 127
2, 24680, Note_on_c, 1, 50, 127
2, 24680, Note_on_c, 1, 57, 127
2, 24680, Note_on_c, 1, 60, 127
2, 24680, Note_on_c, 1, 67, 127
2, 25480, Note_off_c, 1, 67, 0
2, 25520, Note_on_c, 1, 66, 127
2, 25920, Note_off_c, 1, 38, 0
2, 25920, Note_off_c, 1, 50, 0
2, 25920, Note_off_c, 1, 57, 0
2, 25920, Note_off_c, 1, 60, 0
2, 25920, Note_off_c, 1, 66, 0
2, 26640, Note_on_c, 1, 56, 127
2, 26640, Note_on_c, 1, 60, 127
2, 26640, Note_on_c, 1, 65, 127
2, 26840, Note_off_c, 1, 56, 0
2, 26840, Note_off_c, 1, 60, 0
2, 26840, Note_off_c, 1, 65, 0
2, 26880, Note_on_c, 1, 56, 127
2, 26880, Note_on_c, 1, 60, 127
2, 26880, Note_on_c, 1, 65, 127
2, 27160, Note_off_c, 1, 56, 0
2, 27160, Note_off_c, 1, 60, 0
2, 27160, Note_off_c, 1, 65, 0
2, 28480, Note_on_c, 1, 50, 127
2, 28480, Note_on_c, 1, 57, 127
2, 28480, Note_on_c, 1, 74, 127
2, 28880, Note_on_c, 1, 66, 127
2, 29120, Note_off_c, 1, 50, 0
2, 29120, Note_off_c, 1, 57, 0
2, 29120, Note_off_c, 1, 66, 0
2, 29120, Note_off_c, 1, 74, 0
2, 29160, Note_on_c, 1, 50, 127
2, 29160, Note_on_c, 1, 57, 127
2, 29160, Note_on_c, 1, 66, 127
2, 29160, Note_on_c, 1, 74, 127
2, 29600, Note_on_c, 1, 69, 127
2, 29600, Note_off_c, 1, 74, 0
2, 30560, Note_off_c, 1, 50, 0
2, 30560, Note_off_c, 1, 57, 0
2, 30560, Note_off_c, 1, 66, 0
2, 30560, Note_off_c, 1, 69, 0
2, 30600, Note_on_c, 1, 50, 127
2, 30600, Note_on_c, 1, 62, 127
2, 31120, Note_off_c, 1, 50, 0
2, 31120, Note_off_c, 1, 62, 0
2, 31160, Note_on_c, 1, 47, 127
2, 31160, Note_on_c, 1, 59, 127
2, 31320, Note_off_c, 1, 47, 0
2, 31320, Note_off_c, 1, 59, 0
2, 31360, Note_on_c, 1, 47, 127
2, 31360, Note_on_c, 1, 59, 127
2, 31600, Note_off_c, 1, 47, 0
2, 31600, Note_off_c, 1, 59, 0
2, 31640, Note_on_c, 1, 45, 127
2, 31640, Note_on_c, 1, 57, 127
2, 32720, Note_off_c, 1, 45, 0
2, 32720, Note_on_c, 1, 69, 127
2, 32760, Note_off_c, 1, 57, 0
2, 32760, Note_off_c, 1, 69, 0
2, 32800, Note_on_c, 1, 43, 127
2, 32800, Note_on_c, 1, 55, 127
2, 33600, Note_off_c, 1, 43, 0
2, 33600, Note_off_c, 1, 55, 0
2, 33680, Note_on_c, 1, 47, 127
2, 33680, Note_on_c, 1, 62, 127
2, 34280, Note_on_c, 1, 43, 127
2, 34280, Note_off_c, 1, 47, 0
2, 34280, Note_on_c, 1, 59, 127
2, 34280, Note_off_c, 1, 62, 0
2, 34320, Note_off_c, 1, 43, 0
2, 34320, Note_on_c, 1, 47, 127
2, 34320, Note_on_c, 1, 50, 127
2, 34320, Note_off_c, 1, 59, 0
2, 34480, Note_off_c, 1, 50, 0
2, 34480, Note_on_c, 1, 77, 127
2, 34480, Note_on_c, 1, 91, 127
2, 34520, Note_off_c, 1, 47, 0
2, 34520, Note_on_c, 1, 50, 127
2, 34520, Note_on_c, 1, 53, 127
2, 34520, Note_on_c, 1, 58, 127
2, 34520, Note_on_c, 1, 62, 127
2, 34520, Note_off_c, 1, 77, 0
2, 34520, Note_on_c, 1, 80, 127
2, 34520, Note_off_c, 1, 91, 0
2, 34520, Note_on_c, 1, 92, 127
2, 34560, Note_on_c, 1, 44, 127
2, 34560, Note_on_c, 1, 48, 127
2, 34560, Note_off_c, 1, 50, 0
2, 34560, Note_off_c, 1, 53, 0
2, 34560, Note_off_c, 1, 58, 0
2, 34560, Note_off_c, 1, 62, 0
2, 34560, Note_on_c, 1, 72, 127
2, 34560, Note_on_c, 1, 74, 127
2, 34560, Note_off_c, 1, 80, 0
2, 34560, Note_on_c, 1, 84, 127
2, 34560, Note_off_c, 1, 92, 0
2, 34600, Note_on_c, 1, 43, 127
2, 34600, Note_off_c, 1, 44, 0
2, 34600, Note_on_c, 1, 57, 127
2, 34600, Note_off_c, 1, 72, 0
2, 34600, Note_off_c, 1, 74, 0
2, 34600, Note_off_c, 1, 84, 0
2, 34640, Note_off_c, 1, 43, 0
2, 34640, Note_off_c, 1, 48, 0
2, 34640, Note_off_c, 1, 57, 0
2, 34640, Note_on_c, 1, 64, 127
2, 34640, Note_on_c, 1, 69, 127
2, 34640, Note_on_c, 1, 72, 127
2, 34640, Note_on_c, 1, 77, 127
2, 34640, Note_on_c, 1, 84, 127
2, 34680, Note_on_c, 1, 52, 127
2, 34680, Note_on_c, 1, 60, 127
2, 34680, Note_off_c, 1, 64, 0
2, 34680, Note_on_c, 1, 67, 127
2, 34680, Note_off_c, 1, 69, 0
2, 34680, Note_off_c, 1, 77, 0
2, 34680, Note_on_c, 1, 82, 127
2, 34680, Note_off_c, 1, 84, 0
2, 34680, Note_on_c, 1, 91, 127
2, 34680, Note_on_c, 1, 94, 127
2, 34720, Note_on_c, 1, 38, 127
2, 34720, Note_off_c, 1, 52, 0
2, 34720, Note_off_c, 1, 60, 0
2, 34720, Note_on_c, 1, 65, 127
2, 34720, Note_off_c, 1, 67, 0
2, 34720, Note_on_c, 1, 69, 127
2, 34720, Note_off_c, 1, 72, 0
2, 34720, Note_on_c, 1, 74, 127
2, 34720, Note_off_c, 1, 82, 0
2, 34720, Note_off_c, 1, 91, 0
2, 34720, Note_off_c, 1, 94, 0
2, 34760, Note_off_c, 1, 38, 0
2, 34760, Note_on_c, 1, 43, 127
2, 34760, Note_on_c, 1, 52, 127
2, 34760, Note_on_c, 1, 59, 127
2, 34760, Note_off_c, 1, 65, 0
2, 34760, Note_off_c, 1, 69, 0
2, 34760, Note_off_c, 1, 74, 0
2, 34760, Note_on_c, 1, 79, 127
2, 34760, Note_on_c, 1, 83, 127
2, 34760, Note_on_c, 1, 88, 127
2, 34800, Note_off_c, 1, 52, 0
2, 34800, Note_on_c, 1, 57, 127
2, 34800, Note_off_c, 1, 59, 0
2, 34800, Note_off_c, 1, 79, 0
2, 34800, Note_off_c, 1, 83, 0
2, 34800, Note_off_c, 1, 88, 0
2, 34840, Note_off_c, 1, 43, 0
2, 34840, Note_on_c, 1, 45, 127
2, 34840, Note_on_c, 1, 73, 127
2, 34840, Note_on_c, 1, 79, 127
2, 34880, Note_on_c, 1, 37, 127
2, 34880, Note_on_c, 1, 39, 127
2, 34880, Note_off_c, 1, 45, 0
2, 34880, Note_off_c, 1, 57, 0
2, 34880, Note_on_c, 1, 66, 127
2, 34880, Note_off_c, 1, 73, 0
2, 34880, Note_off_c, 1, 79, 0
2, 34920, Note_off_c, 1, 37, 0
2, 34920, Note_off_c, 1, 39, 0
2, 34920, Note_on_c, 1, 52, 127
2, 34920, Note_on_c, 1, 57, 127
2, 34920, Note_on_c, 1, 60, 127
2, 34920, Note_off_c, 1, 66, 0
2, 34920, Note_on_c, 1, 81, 127
2, 34920, Note_on_c, 1, 85, 127
2, 34960, Note_on_c, 1, 42, 127
2, 34960, Note_on_c, 1, 46, 127
2, 34960, Note_off_c, 1, 52, 0
2, 34960, Note_off_c, 1, 57, 0
2, 34960, Note_off_c, 1, 81, 0
2, 34960, Note_off_c, 1, 85, 0
2, 35000, Note_off_c, 1, 42, 0
2, 35000, Note_on_c, 1, 45, 127
2, 35000, Note_off_c, 1, 46, 0
2, 35000, Note_on_c, 1, 54, 127
2, 35000, Note_on_c, 1, 57, 127
2, 35000, Note_off_c, 1, 60, 0
2, 35000, Note_on_c, 1, 69, 127
2, 35000, Note_on_c, 1, 72, 127
2, 35000, Note_on_c, 1, 75, 127
2, 35040, Note_on_c, 1, 35, 127
2, 35040, Note_off_c, 1, 45, 0
2, 35040, Note_off_c, 1, 54, 0
2, 35040, Note_on_c, 1, 67, 127
2, 35040, Note_off_c, 1, 69, 0
2, 35040, Note_off_c, 1, 72, 0
2, 35040, Note_off_c, 1, 75, 0
2, 35080, Note_off_c, 1, 35, 0
2, 35080, Note_on_c, 1, 48, 127
2, 35080, Note_on_c, 1, 50, 127
2, 35080, Note_on_c, 1, 54, 127
2, 35080, Note_off_c, 1, 57, 0
2, 35080, Note_on_c, 1, 60, 127
2, 35080, Note_off_c, 1, 67, 0
2, 35080, Note_on_c, 1, 72, 127
2, 35080, Note_on_c, 1, 74, 127
2, 35080, Note_on_c, 1, 78, 127
2, 35080, Note_on_c, 1, 84, 127
2, 35120, Note_off_c, 1, 48, 0
2, 35120, Note_off_c, 1, 50, 0
2, 35120, Note_off_c, 1, 54, 0
2, 35120, Note_off_c, 1, 60, 0
2, 35120, Note_off_c, 1, 72, 0
2, 35120, Note_on_c, 1, 77, 127
2, 35120, Note_off_c, 1, 78, 0
2, 35120, Note_off_c, 1, 84, 0
2, 35120, Note_on_c, 1, 94, 127
2, 35160, Note_on_c, 1, 55, 127
2, 35160, Note_on_c, 1, 62, 127
2, 35160, Note_off_c, 1, 74, 0
2, 35160, Note_off_c, 1, 77, 0
2, 35160, Note_on_c, 1, 89, 127
2, 35160, Note_off_c, 1, 94, 0
2, 35200, Note_off_c, 1, 55, 0
2, 35200, Note_on_c, 1, 57, 127
2, 35200, Note_off_c, 1, 62, 0
2, 35200, Note_on_c, 1, 77, 127
2, 35200, Note_on_c, 1, 81, 127
2, 35200, Note_on_c, 1, 86, 127
2, 35240, Note_off_c, 1, 57, 0
2, 35240, Note_on_c, 1, 64, 127
2, 35240, Note_on_c, 1, 67, 127
2, 35240, Note_on_c, 1, 69, 127
2, 35240, Note_off_c, 1, 77, 0
2, 35240, Note_off_c, 1, 81, 0
2, 35240, Note_on_c, 1, 85, 127
2, 35240, Note_off_c, 1, 86, 0
2, 35240, Note_off_c, 1, 89, 0
2, 35280, Note_on_c, 1, 38, 127
2, 35280, Note_on_c, 1, 50, 127
2, 35280, Note_off_c, 1, 67, 0
2, 35280, Note_off_c, 1, 69, 0
2, 35280, Note_on_c, 1, 76, 127
2, 35280, Note_off_c, 1, 85, 0
2, 35280, Note_on_c, 1, 88, 127
2, 35320, Note_off_c, 1, 38, 0
2, 35320, Note_on_c, 1, 48, 127
2, 35320, Note_off_c, 1, 50, 0
2, 35320, Note_on_c, 1, 53, 127
2, 35320, Note_on_c, 1, 60, 127
2, 35320, Note_off_c, 1, 64, 0
2, 35320, Note_off_c, 1, 76, 0
2, 35320, Note_on_c, 1, 79, 127
2, 35320, Note_off_c, 1, 88, 0
2, 35320, Note_on_c, 1, 89, 127
2, 35320, Note_on_c, 1, 91, 127
2, 35360, Note_on_c, 1, 38, 127
2, 35360, Note_off_c, 1, 48, 0
2, 35360, Note_on_c, 1, 50, 127
2, 35360, Note_off_c, 1, 53, 0
2, 35360, Note_off_c, 1, 60, 0
2, 35360, Note_on_c, 1, 64, 127
2, 35360, Note_on_c, 1, 76, 127
2, 35360, Note_off_c, 1, 79, 0
2, 35360, Note_on_c, 1, 88, 127
2, 35360, Note_off_c, 1, 89, 0
2, 35360, Note_off_c, 1, 91, 0
2, 35400, Note_off_c, 1, 38, 0
2, 35400, Note_on_c, 1, 39, 127
2, 35400, Note_on_c, 1, 45, 127
2, 35400, Note_off_c, 1, 50, 0
2, 35400, Note_on_c, 1, 51, 127
2, 35400, Note_on_c, 1, 53, 127
2, 35400, Note_on_c, 1, 57, 127
2, 35400, Note_on_c, 1, 60, 127
2, 35400, Note_off_c, 1, 64, 0
2, 35400, Note_on_c, 1, 65, 127
2, 35400, Note_off_c, 1, 76, 0
2, 35400, Note_off_c, 1, 88, 0
2, 35440, Note_off_c, 1, 39, 0
2, 35440, Note_off_c, 1, 45, 0
2, 35440, Note_off_c, 1, 53, 0
2, 35440, Note_off_c, 1, 57, 0
2, 35440, Note_on_c, 1, 58, 127
2, 35440, Note_off_c, 1, 60, 0
2, 35440, Note_on_c, 1, 61, 127
2, 35440, Note_on_c, 1, 63, 127
2, 35440, Note_off_c, 1, 65, 0
2, 35440, Note_on_c, 1, 72, 127
2, 35480, Note_off_c, 1, 51, 0
2, 35480, Note_off_c, 1, 58, 0
2, 35480, Note_on_c, 1, 60, 127
2, 35480, Note_off_c, 1, 61, 0
2, 35480, Note_off_c, 1, 63, 0
2, 35480, Note_on_c, 1, 67, 127
2, 35480, Note_off_c, 1, 72, 0
2, 35480, Note_on_c, 1, 74, 127
2, 35480, Note_on_c, 1, 77, 127
2, 35480, Note_on_c, 1, 83, 127
2, 35600, Note_off_c, 1, 60, 0
2, 35600, Note_off_c, 1, 67, 0
2, 35600, Note_off_c, 1, 74, 0
2, 35600, Note_off_c, 1, 77, 0
2, 35600, Note_off_c, 1, 83, 0
2, 35640, Note_on_c, 1, 59, 127
2, 35680, Note_on_c, 1, 57, 127
2, 35680, Note_off_c, 1, 59, 0
2, 35880, Note_off_c, 1, 57, 0
2, 35920, Note_on_c, 1, 72, 127
2, 36120, Note_off_c, 1, 72, 0
2, 36160, Note_on_c, 1, 74, 127
2, 36360, Note_off_c, 1, 74, 0
2, 36400, Note_on_c, 1, 74, 127
2, 36560, Note_off_c, 1, 74, 0
2, 36600, Note_on_c, 1, 59, 127
2, 36600, Note_on_c, 1, 74, 127
2, 37240, Note_off_c, 1, 59, 0
2, 37240, Note_off_c, 1, 74, 0
2, 37280, Note_on_c, 1, 62, 127
2, 37400, Note_off_c, 1, 62, 0
2, 37440, Note_on_c, 1, 59, 127
2, 37440, Note_on_c, 1, 75, 127
2, 37600, Note_off_c, 1, 59, 0
2, 37600, Note_on_c, 1, 63, 127
2, 37600, Note_off_c, 1, 75, 0
2, 37640, Note_off_c, 1, 63, 0
2, 37680, Note_on_c, 1, 63, 127
2, 37680, Note_on_c, 1, 72, 127
2, 37840, Note_off_c, 1, 72, 0
2, 37920, Note_on_c, 1, 74, 127
2, 38040, Note_off_c, 1, 74, 0
2, 38440, Note_off_c, 1, 63, 0
2, 38480, Note_on_c, 1, 64, 127
2, 39000, Note_off_c, 1, 64, 0
2, 39040, Note_on_c, 1, 69, 127
2, 39400, Note_off_c, 1, 69, 0
2, 39440, Note_on_c, 1, 55, 127
2, 39440, Note_on_c, 1, 75, 127
2, 39560, Note_off_c, 1, 75, 0
2, 39600, Note_on_c, 1, 71, 127
2, 39720, Note_off_c, 1, 55, 0
2, 39720, Note_off_c, 1, 71, 0
2, 39760, Note_on_c, 1, 55, 127
2, 39760, Note_on_c, 1, 71, 127
2, 39840, Note_off_c, 1, 71, 0
2, 39840, Note_on_c, 1, 72, 127
2, 39960, Note_off_c, 1, 55, 0
2, 39960, Note_off_c, 1, 72, 0
2, 40000, Note_on_c, 1, 55, 127
2, 40000, Note_on_c, 1, 75, 127
2, 40160, Note_off_c, 1, 55, 0
2, 40160, Note_off_c, 1, 75, 0
2, 40200, Note_on_c, 1, 57, 127
2, 40200, Note_on_c, 1, 77, 127
2, 40360, Note_off_c, 1, 57, 0
2, 40400, Note_on_c, 1, 62, 127
2, 40560, Note_off_c, 1, 62, 0
2, 40600, Note_on_c, 1, 65, 127
2, 40760, Note_off_c, 1, 65, 0
2, 40800, Note_on_c, 1, 59, 127
2, 40920, Note_off_c, 1, 59, 0
2, 40960, Note_on_c, 1, 65, 127
2, 41120, Note_off_c, 1, 65, 0
2, 41160, Note_on_c, 1, 56, 127
2, 41320, Note_off_c, 1, 56, 0
2, 41360, Note_on_c, 1, 60, 127
2, 41520, Note_off_c, 1, 60, 0
2, 41560, Note_off_c, 1, 77, 0
2, 41600, Note_on_c, 1, 59, 127
2, 41600, Note_on_c, 1, 77, 127
2, 41760, Note_off_c, 1, 59, 0
2, 41800, Note_on_c, 1, 65, 127
2, 42160, Note_off_c, 1, 65, 0
2, 42160, Note_off_c, 1, 77, 0
2, 42200, Note_on_c, 1, 67, 127
2, 42200, Note_on_c, 1, 71, 127
2, 42760, Note_off_c, 1, 67, 0
2, 42760, Note_off_c, 1, 71, 0
2, 43680, Note_on_c, 1, 79, 127
2, 44640, Note_off_c, 1, 79, 0
2, 44680, Note_on_c, 1, 81, 127
2, 45080, Note_on_c, 1, 82, 127
2, 45120, Note_off_c, 1, 82, 0
2, 45280, Note_on_c, 1, 53, 127
2, 45440, Note_off_c, 1, 81, 0
2, 45480, Note_on_c, 1, 75, 127
2, 45600, Note_off_c, 1, 53, 0
2, 45600, Note_off_c, 1, 75, 0
2, 45680, Note_on_c, 1, 60, 127
2, 45680, Note_on_c, 1, 76, 127
2, 46080, Note_off_c, 1, 76, 0
2, 46360, Note_off_c, 1, 60, 0
2, 46440, Note_on_c, 1, 65, 127
2, 46960, Note_off_c, 1, 65, 0
2, 47000, Note_on_c, 1, 72, 127
2, 47120, Note_off_c, 1, 72, 0
2, 47160, Note_on_c, 1, 72, 127
2, 47640, Note_off_c, 1, 72, 0
2, 47680, Note_on_c, 1, 47, 127
2, 47680, Note_on_c, 1, 57, 127
2, 47680, Note_on_c, 1, 62, 127
2, 47680, Note_on_c, 1, 68, 127
2, 47680, Note_on_c, 1, 71, 127
2, 47720, Note_off_c, 1, 47, 0
2, 47720, Note_on_c, 1, 49, 127
2, 47720, Note_on_c, 1, 55, 127
2, 47720, Note_off_c, 1, 57, 0
2, 47720, Note_on_c, 1, 59, 127
2, 47720, Note_off_c, 1, 62, 0
2, 47720, Note_on_c, 1, 67, 127
2, 47720, Note_off_c, 1, 68, 0
2, 47720, Note_off_c, 1, 71, 0
2, 47760, Note_off_c, 1, 49, 0
2, 47760, Note_off_c, 1, 55, 0
2, 47760, Note_on_c, 1, 58, 127
2, 47760, Note_off_c, 1, 59, 0
2, 47760, Note_on_c, 1, 60, 127
2, 47760, Note_on_c, 1, 72, 127
2, 47800, Note_on_c, 1, 55, 127
2, 47800, Note_off_c, 1, 58, 0
2, 47800, Note_off_c, 1, 60, 0
2, 47800, Note_on_c, 1, 61, 127
2, 47800, Note_off_c, 1, 67, 0
2, 47800, Note_on_c, 1, 70, 127
2, 47800, Note_off_c, 1, 72, 0
2, 47800, Note_on_c, 1, 79, 127
2, 47800, Note_on_c, 1, 82, 127
2, 47840, Note_off_c, 1, 61, 0
2, 47840, Note_on_c, 1, 67, 127
2, 47840, Note_off_c, 1, 70, 0
2, 47840, Note_on_c, 1, 74, 127
2, 47840, Note_on_c, 1, 76, 127
2, 47840, Note_off_c, 1, 79, 0
2, 47840, Note_off_c, 1, 82, 0
2, 47880, Note_on_c, 1, 52, 127
2, 47880, Note_off_c, 1, 55, 0
2, 47880, Note_on_c, 1, 66, 127
2, 47880, Note_off_c, 1, 67, 0
2, 47880, Note_on_c, 1, 73, 127
2, 47880, Note_off_c, 1, 74, 0
2, 47880, Note_off_c, 1, 76, 0
2, 47880, Note_on_c, 1, 82, 127
2, 47880, Note_on_c, 1, 85, 127
2, 47920, Note_on_c, 1, 46, 127
2, 47920, Note_off_c, 1, 52, 0
2, 47920, Note_on_c, 1, 53, 127
2, 47920, Note_on_c, 1, 58, 127
2, 47920, Note_off_c, 1, 66, 0
2, 47920, Note_off_c, 1, 73, 0
2, 47920, Note_on_c, 1, 74, 127
2, 47920, Note_off_c, 1, 82, 0
2, 47920, Note_off_c, 1, 85, 0
2, 47960, Note_off_c, 1, 46, 0
2, 47960, Note_off_c, 1, 58, 0
2, 47960, Note_on_c, 1, 59, 127
2, 47960, Note_on_c, 1, 71, 127
2, 47960, Note_off_c, 1, 74, 0
2, 47960, Note_on_c, 1, 79, 127
2, 48000, Note_off_c, 1, 53, 0
2, 48000, Note_on_c, 1, 58, 127
2, 48000, Note_off_c, 1, 59, 0
2, 48000, Note_on_c, 1, 60, 127
2, 48000, Note_on_c, 1, 64, 127
2, 48000, Note_on_c, 1, 69, 127
2, 48000, Note_off_c, 1, 71, 0
2, 48000, Note_off_c, 1, 79, 0
2, 48040, Note_on_c, 1, 48, 127
2, 48040, Note_on_c, 1, 52, 127
2, 48040, Note_on_c, 1, 55, 127
2, 48040, Note_off_c, 1, 60, 0
2, 48040, Note_off_c, 1, 64, 0
2, 48040, Note_on_c, 1, 67, 127
2, 48040, Note_off_c, 1, 69, 0
2, 48080, Note_on_c, 1, 47, 127
2, 48080, Note_off_c, 1, 48, 0
2, 48080, Note_on_c, 1, 50, 127
2, 48080, Note_off_c, 1, 52, 0
2, 48080, Note_on_c, 1, 53, 127
2, 48080, Note_off_c, 1, 55, 0
2, 48080, Note_off_c, 1, 58, 0
2, 48080, Note_off_c, 1, 67, 0
2, 48080, Note_on_c, 1, 68, 127
2, 48120, Note_off_c, 1, 47, 0
2, 48120, Note_off_c, 1, 50, 0
2, 48120, Note_on_c, 1, 57, 127
2, 48120, Note_on_c, 1, 61, 127
2, 48120, Note_on_c, 1, 67, 127
2, 48120, Note_off_c, 1, 68, 0
2, 48120, Note_on_c, 1, 69, 127
2, 48160, Note_on_c, 1, 35, 127
2, 48160, Note_on_c, 1, 40, 127
2, 48160, Note_on_c, 1, 47, 127
2, 48160, Note_off_c, 1, 53, 0
2, 48160, Note_off_c, 1, 57, 0
2, 48160, Note_off_c, 1, 61, 0
2, 48160, Note_on_c, 1, 62, 127
2, 48160, Note_on_c, 1, 64, 127
2, 48160, Note_off_c, 1, 67, 0
2, 48160, Note_on_c, 1, 68, 127
2, 48160, Note_off_c, 1, 69, 0
2, 48200, Note_off_c, 1, 35, 0
2, 48200, Note_off_c, 1, 40, 0
2, 48200, Note_off_c, 1, 47, 0
2, 48200, Note_on_c, 1, 49, 127
2, 48200, Note_on_c, 1, 52, 127
2, 48200, Note_on_c, 1, 56, 127
2, 48200, Note_on_c, 1, 61, 127
2, 48200, Note_off_c, 1, 62, 0
2, 48240, Note_on_c, 1, 42, 127
2, 48240, Note_off_c, 1, 49, 0
2, 48240, Note_off_c, 1, 52, 0
2, 48240, Note_off_c, 1, 56, 0
2, 48240, Note_off_c, 1, 61, 0
2, 48240, Note_off_c, 1, 64, 0
2, 48240, Note_off_c, 1, 68, 0
2, 48240, Note_on_c, 1, 79, 127
2, 48240, Note_on_c, 1, 80, 127
2, 48280, Note_off_c, 1, 42, 0
2, 48280, Note_on_c, 1, 67, 127
2, 48280, Note_off_c, 1, 79, 0
2, 48280, Note_off_c, 1, 80, 0
2, 48320, Note_on_c, 1, 42, 127
2, 48320, Note_on_c, 1, 54, 127
2, 48320, Note_on_c, 1, 64, 127
2, 48320, Note_on_c, 1, 76, 127
2, 48360, Note_off_c, 1, 42, 0
2, 48360, Note_off_c, 1, 54, 0
2, 48360, Note_off_c, 1, 76, 0
2, 48360, Note_on_c, 1, 77, 127
2, 48400, Note_on_c, 1, 43, 127
2, 48400, Note_on_c, 1, 59, 127
2, 48400, Note_on_c, 1, 62, 127
2, 48400, Note_off_c, 1, 64, 0
2, 48400, Note_off_c, 1, 67, 0
2, 48400, Note_on_c, 1, 74, 127
2, 48400, Note_off_c, 1, 77, 0
2, 48440, Note_off_c, 1, 43, 0
2, 48440, Note_off_c, 1, 59, 0
2, 48440, Note_off_c, 1, 62, 0
2, 48440, Note_on_c, 1, 64, 127
2, 48440, Note_on_c, 1, 67, 127
2, 48440, Note_off_c, 1, 74, 0
2, 48440, Note_on_c, 1, 77, 127
2, 48480, Note_off_c, 1, 64, 0
2, 48480, Note_off_c, 1, 67, 0
2, 48480, Note_on_c, 1, 76, 127
2, 48480, Note_off_c, 1, 77, 0
2, 48480, Note_on_c, 1, 79, 127
2, 48480, Note_on_c, 1, 82, 127
2, 48480, Note_on_c, 1, 85, 127
2, 48480, Note_on_c, 1, 88, 127
2, 48480, Note_on_c, 1, 91, 127
2, 48480, Note_on_c, 1, 94, 127
2, 48480, Note_on_c, 1, 97, 127
2, 48480, Note_on_c, 1, 103, 127
2, 48520, Note_on_c, 1, 64, 127
2, 48520, Note_on_c, 1, 67, 127
2, 48520, Note_off_c, 1, 76, 0
2, 48520, Note_on_c, 1, 77, 127
2, 48520, Note_off_c, 1, 79, 0
2, 48520, Note_off_c, 1, 82, 0
2, 48520, Note_off_c, 1, 85, 0
2, 48520, Note_off_c, 1, 88, 0
2, 48520, Note_off_c, 1, 91, 0
2, 48520, Note_off_c, 1, 94, 0
2, 48520, Note_off_c, 1, 97, 0
2, 48520, Note_off_c, 1, 103, 0
2, 48560, Note_on_c, 1, 47, 127
2, 48560, Note_on_c, 1, 59, 127
2, 48560, Note_off_c, 1, 64, 0
2, 48560, Note_off_c, 1, 67, 0
2, 48560, Note_on_c, 1, 71, 127
2, 48560, Note_on_c, 1, 76, 127
2, 48560, Note_off_c, 1, 77, 0
2, 48560, Note_on_c, 1, 80, 127
2, 48560, Note_on_c, 1, 83, 127
2, 48600, Note_off_c, 1, 47, 0
2, 48600, Note_off_c, 1, 59, 0
2, 48600, Note_on_c, 1, 64, 127
2, 48600, Note_on_c, 1, 67, 127
2, 48600, Note_off_c, 1, 71, 0
2, 48600, Note_off_c, 1, 76, 0
2, 48600, Note_on_c, 1, 77, 127
2, 48600, Note_off_c, 1, 80, 0
2, 48600, Note_off_c, 1, 83, 0
2, 48640, Note_on_c, 1, 55, 127
2, 48640, Note_on_c, 1, 62, 127
2, 48640, Note_off_c, 1, 64, 0
2, 48640, Note_on_c, 1, 65, 127
2, 48640, Note_off_c, 1, 77, 0
2, 48640, Note_on_c, 1, 83, 127
2, 48640, Note_on_c, 1, 86, 127
2, 48640, Note_on_c, 1, 89, 127
2, 48640, Note_on_c, 1, 91, 127
2, 48640, Note_on_c, 1, 95, 127
2, 48680, Note_off_c, 1, 55, 0
2, 48680, Note_off_c, 1, 62, 0
2, 48680, Note_on_c, 1, 64, 127
2, 48680, Note_off_c, 1, 65, 0
2, 48680, Note_on_c, 1, 77, 127
2, 48680, Note_off_c, 1, 83, 0
2, 48680, Note_off_c, 1, 86, 0
2, 48680, Note_off_c, 1, 89, 0
2, 48680, Note_off_c, 1, 91, 0
2, 48680, Note_off_c, 1, 95, 0
2, 49000, Note_on_c, 1, 70, 127
2, 49000, Note_off_c, 1, 77, 0
2, 49040, Note_off_c, 1, 64, 0
2, 49040, Note_off_c, 1, 67, 0
2, 49040, Note_off_c, 1, 70, 0
2, 49760, Note_on_c, 1, 79, 127
2, 50680, Note_off_c, 1, 79, 0
2, 50720, Note_on_c, 1, 77, 127
2, 50880, Note_off_c, 1, 77, 0
2, 50920, Note_on_c, 1, 76, 127
2, 51840, Note_off_c, 1, 76, 0
2, 51840, Note_on_c, 1, 79, 127
2, 51960, Note_off_c, 1, 79, 0
2, 52000, Note_on_c, 1, 79, 127
2, 52080, Note_on_c, 1, 77, 127
2, 52080, Note_off_c, 1, 79, 0
2, 52240, Note_off_c, 1, 77, 0
2, 52280, Note_on_c, 1, 76, 127
2, 52680, Note_off_c, 1, 76, 0
2, 52720, Note_on_c, 1, 77, 127
2, 53040, Note_off_c, 1, 77, 0
2, 53080, Note_on_c, 1, 76, 127
2, 53800, Note_off_c, 1, 76, 0
2, 53880, Note_on_c, 1, 65, 127
2, 54000, Note_off_c, 1, 65, 0
2, 54040, Note_on_c, 1, 65, 127
2, 56160, Note_off_c, 1, 65, 0
2, 56200, Note_on_c, 1, 65, 127
2, 56240, Note_off_c, 1, 65, 0
2, 56280, Note_on_c, 1, 62, 127
2, 57520, Note_off_c, 1, 62, 0
2, 57520, Note_on_c, 1, 63, 127
2, 58160, Note_off_c, 1, 63, 0
2, 58200, Note_on_c, 1, 63, 127
2, 60720, Note_off_c, 1, 63, 0
2, 60760, Note_on_c, 1, 63, 127
2, 61280, Note_off_c, 1, 63, 0
2, 61320, Note_on_c, 1, 68, 127
2, 62400, Note_on_c, 1, 70, 127
2, 62520, Note_off_c, 1, 68, 0
2, 62520, Note_off_c, 1, 70, 0
2, 62560, Note_on_c, 1, 63, 127
2, 62560, Note_on_c, 1, 67, 127
2, 62760, Note_off_c, 1, 63, 0
2, 62760, Note_off_c, 1, 67, 0
2, 62800, Note_on_c, 1, 63, 127
2, 62800, Note_on_c, 1, 67, 127
2, 63040, Note_off_c, 1, 63, 0
2, 63040, Note_off_c, 1, 67, 0
2, 63960, Note_on_c, 1, 67, 127
2, 64520, Note_off_c, 1, 67, 0
2, 64600, Note_on_c, 1, 46, 127
2, 64600, Note_on_c, 1, 58, 127
2, 64600, Note_on_c, 1, 67, 127
2, 64600, Note_on_c, 1, 70, 127
2, 64720, Note_off_c, 1, 67, 0
2, 64720, Note_off_c, 1, 70, 0
2, 64760, Note_off_c, 1, 46, 0
2, 64760, Note_on_c, 1, 54, 127
2, 64760, Note_on_c, 1, 56, 127
2, 64760, Note_off_c, 1, 58, 0
2, 64760, Note_on_c, 1, 65, 127
2, 65120, Note_on_c, 1, 46, 127
2, 65120, Note_off_c, 1, 54, 0
2, 65120, Note_off_c, 1, 56, 0
2, 65120, Note_on_c, 1, 58, 127
2, 65120, Note_off_c, 1, 65, 0
2, 65480, Note_off_c, 1, 58, 0
2, 65520, Note_on_c, 1, 43, 127
2, 65520, Note_off_c, 1, 46, 0
2, 65520, Note_on_c, 1, 55, 127
2, 65520, Note_on_c, 1, 58, 127
2, 65520, Note_on_c, 1, 67, 127
2, 65840, Note_off_c, 1, 43, 0
2, 65840, Note_off_c, 1, 55, 0
2, 65840, Note_off_c, 1, 58, 0
2, 65840, Note_off_c, 1, 67, 0
2, 66680, Note_on_c, 1, 39, 127
2, 66680, Note_on_c, 1, 51, 127
2, 67120, Note_off_c, 1, 39, 0
2, 67120, Note_off_c, 1, 51, 0
2, 67160, Note_on_c, 1, 74, 127
2, 67160, Note_on_c, 1, 82, 127
2, 67680, Note_on_c, 1, 56, 127
2, 67680, Note_on_c, 1, 63, 127
2, 67680, Note_on_c, 1, 68, 127
2, 67680, Note_off_c, 1, 74, 0
2, 67680, Note_off_c, 1, 82, 0
2, 67680, Note_on_c, 1, 84, 127
2, 68200, Note_off_c, 1, 56, 0
2, 68200, Note_off_c, 1, 63, 0
2, 68200, Note_off_c, 1, 68, 0
2, 68200, Note_off_c, 1, 84, 0
2, 68240, Note_on_c, 1, 62, 127
2, 68240, Note_on_c, 1, 65, 127
2, 68240, Note_on_c, 1, 68, 127
2, 68240, Note_on_c, 1, 70, 127
2, 68480, Note_off_c, 1, 70, 0
2, 68520, Note_off_c, 1, 62, 0
2, 68520, Note_off_c, 1, 65, 0
2, 68520, Note_on_c, 1, 67, 127
2, 68520, Note_off_c, 1, 68, 0
2, 68520, Note_on_c, 1, 70, 127
2, 68520, Note_on_c, 1, 73, 127
2, 68520, Note_on_c, 1, 76, 127
2, 68520, Note_on_c, 1, 82, 127
2, 68640, Note_off_c, 1, 67, 0
2, 68640, Note_off_c, 1, 70, 0
2, 68640, Note_off_c, 1, 73, 0
2, 68640, Note_off_c, 1, 76, 0
2, 68640, Note_off_c, 1, 82, 0
2, 68680, Note_on_c, 1, 67, 127
2, 68680, Note_on_c, 1, 70, 127
2, 68680, Note_on_c, 1, 73, 127
2, 68680, Note_on_c, 1, 76, 127
2, 68680, Note_on_c, 1, 82, 127
2, 68720, Note_off_c, 1, 67, 0
2, 68720, Note_off_c, 1, 70, 0
2, 68720, Note_off_c, 1, 73, 0
2, 68720, Note_off_c, 1, 76, 0
2, 69480, Note_off_c, 1, 82, 0
2, 69520, Note_on_c, 1, 35, 127
2, 69520, Note_on_c, 1, 66, 127
2, 69520, Note_on_c, 1, 69, 127
2, 69520, Note_on_c, 1, 71, 127
2, 69520, Note_on_c, 1, 75, 127
2, 69560, Note_off_c, 1, 35, 0
2, 69560, Note_on_c, 1, 44, 127
2, 69560, Note_on_c, 1, 63, 127
2, 69560, Note_off_c, 1, 66, 0
2, 69560, Note_off_c, 1, 69, 0
2, 69560, Note_on_c, 1, 70, 127
2, 69560, Note_off_c, 1, 71, 0
2, 69560, Note_on_c, 1, 73, 127
2, 69560, Note_off_c, 1, 75, 0
2, 69600, Note_on_c, 1, 33, 127
2, 69600, Note_on_c, 1, 42, 127
2, 69600, Note_off_c, 1, 44, 0
2, 69600, Note_on_c, 1, 45, 127
2, 69600, Note_on_c, 1, 54, 127
2, 69600, Note_on_c, 1, 60, 127
2, 69600, Note_off_c, 1, 70, 0
2, 69600, Note_off_c, 1, 73, 0
2, 69640, Note_off_c, 1, 33, 0
2, 69640, Note_off_c, 1, 42, 0
2, 69640, Note_off_c, 1, 45, 0
2, 69640, Note_off_c, 1, 54, 0
2, 69640, Note_off_c, 1, 60, 0
2, 69640, Note_off_c, 1, 63, 0
2, 69680, Note_on_c, 1, 32, 127
2, 69680, Note_on_c, 1, 44, 127
2, 69680, Note_on_c, 1, 53, 127
2, 69680, Note_on_c, 1, 65, 127
2, 69680, Note_on_c, 1, 72, 127
2, 69680, Note_on_c, 1, 84, 127
2, 70200, Note_off_c, 1, 32, 0
2, 70200, Note_off_c, 1, 44, 0
2, 70200, Note_off_c, 1, 53, 0
2, 70200, Note_off_c, 1, 65, 0
2, 70200, Note_off_c, 1, 72, 0
2, 70200, Note_off_c, 1, 84, 0
2, 70280, Note_on_c, 1, 91, 127
2, 70640, Note_off_c, 1, 91, 0
2, 70720, Note_on_c, 1, 93, 127
2, 70760, Note_on_c, 1, 90, 127
2, 70760, Note_off_c, 1, 93, 0
2, 70800, Note_off_c, 1, 90, 0
2, 70800, Note_on_c, 1, 91, 127
2, 70840, Note_off_c, 1, 91, 0
2, 70880, Note_on_c, 1, 87, 127
2, 71040, Note_off_c, 1, 87, 0
2, 71080, Note_on_c, 1, 84, 127
2, 71240, Note_off_c, 1, 84, 0
2, 71280, Note_on_c, 1, 82, 127
2, 71440, Note_off_c, 1, 82, 0
2, 71480, Note_on_c, 1, 80, 127
2, 71600, Note_off_c, 1, 80, 0
2, 71640, Note_on_c, 1, 33, 127
2, 71640, Note_on_c, 1, 45, 127
2, 71640, Note_on_c, 1, 60, 127
2, 71640, Note_on_c, 1, 67, 127
2, 71640, Note_on_c, 1, 72, 127
2, 72120, Note_off_c, 1, 33, 0
2, 72120, Note_off_c, 1, 45, 0
2, 72120, Note_on_c, 1, 51, 127
2, 72120, Note_off_c, 1, 60, 0
2, 72120, Note_on_c, 1, 61, 127
2, 72120, Note_on_c, 1, 63, 127
2, 72120, Note_off_c, 1, 72, 0
2, 72160, Note_off_c, 1, 51, 0
2, 72160, Note_on_c, 1, 56, 127
2, 72160, Note_off_c, 1, 63, 0
2, 72160, Note_on_c, 1, 65, 127
2, 72160, Note_off_c, 1, 67, 0
2, 72160, Note_on_c, 1, 68, 127
2, 72160, Note_on_c, 1, 73, 127
2, 72160, Note_on_c, 1, 80, 127
2, 72320, Note_off_c, 1, 56, 0
2, 72320, Note_off_c, 1, 61, 0
2, 72320, Note_off_c, 1, 65, 0
2, 72320, Note_off_c, 1, 68, 0
2, 72320, Note_off_c, 1, 73, 0
2, 72320, Note_off_c, 1, 80, 0
2, 72640, Note_on_c, 1, 49, 127
2, 72640, Note_on_c, 1, 53, 127
2, 72640, Note_on_c, 1, 56, 127
2, 72640, Note_on_c, 1, 61, 127
2, 72640, Note_on_c, 1, 65, 127
2, 72640, Note_on_c, 1, 68, 127
2, 72640, Note_on_c, 1, 73, 127
2, 74640, Note_off_c, 1, 49, 0
2, 74640, Note_off_c, 1, 53, 0
2, 74640, Note_off_c, 1, 56, 0
2, 74640, Note_off_c, 1, 61, 0
2, 74640, Note_off_c, 1, 65, 0
2, 74640, Note_off_c, 1, 68, 0
2, 74640, Note_off_c, 1, 73, 0
2, 74720, Note_on_c, 1, 55, 127
2, 74720, Note_on_c, 1, 58, 127
2, 74720, Note_on_c, 1, 62, 127
2, 74720, Note_on_c, 1, 67, 127
2, 74720, Note_on_c, 1, 70, 127
2, 75000, Note_off_c, 1, 55, 0
2, 75000, Note_off_c, 1, 58, 0
2, 75000, Note_off_c, 1, 62, 0
2, 75000, Note_off_c, 1, 67, 0
2, 75000, Note_off_c, 1, 70, 0
2, 75040, Note_on_c, 1, 55, 127
2, 75040, Note_on_c, 1, 58, 127
2, 75040, Note_on_c, 1, 62, 127
2, 75040, Note_on_c, 1, 67, 127
2, 75040, Note_on_c, 1, 70, 127
2, 75440, Note_off_c, 1, 55, 0
2, 75440, Note_off_c, 1, 58, 0
2, 75440, Note_off_c, 1, 62, 0
2, 75440, Note_off_c, 1, 67, 0
2, 75440, Note_off_c, 1, 70, 0
2, 76640, Note_on_c, 1, 56, 127
2, 76640, Note_on_c, 1, 65, 127
2, 76640, Note_on_c, 1, 68, 127
2, 76880, Note_off_c, 1, 56, 0
2, 76880, Note_off_c, 1, 65, 0
2, 76880, Note_off_c, 1, 68, 0
2, 77480, Note_on_c, 1, 42, 127
2, 77480, Note_on_c, 1, 49, 127
2, 77760, Note_off_c, 1, 42, 0
2, 77760, Note_off_c, 1, 49, 0
2, 77840, Note_on_c, 1, 42, 127
2, 77840, Note_on_c, 1, 49, 127
2, 78120, Note_off_c, 1, 42, 0
2, 78120, Note_off_c, 1, 49, 0
2, 78440, Note_on_c, 1, 64, 127
2, 78440, Note_on_c, 1, 71, 127
2, 78440, Note_on_c, 1, 83, 127
2, 78440, Note_on_c, 1, 90, 127
2, 78480, Note_on_c, 1, 58, 127
2, 78480, Note_off_c, 1, 64, 0
2, 78480, Note_on_c, 1, 65, 127
2, 78480, Note_on_c, 1, 67, 127
2, 78480, Note_off_c, 1, 71, 0
2, 78480, Note_on_c, 1, 73, 127
2, 78480, Note_off_c, 1, 83, 0
2, 78480, Note_off_c, 1, 90, 0
2, 78520, Note_on_c, 1, 43, 127
2, 78520, Note_on_c, 1, 55, 127
2, 78520, Note_off_c, 1, 58, 0
2, 78520, Note_on_c, 1, 59, 127
2, 78520, Note_off_c, 1, 65, 0
2, 78520, Note_on_c, 1, 71, 127
2, 78520, Note_off_c, 1, 73, 0
2, 78560, Note_off_c, 1, 43, 0
2, 78560, Note_on_c, 1, 49, 127
2, 78560, Note_off_c, 1, 55, 0
2, 78560, Note_on_c, 1, 56, 127
2, 78560, Note_on_c, 1, 65, 127
2, 78560, Note_off_c, 1, 67, 0
2, 78560, Note_off_c, 1, 71, 0
2, 78560, Note_on_c, 1, 87, 127
2, 78600, Note_on_c, 1, 53, 127
2, 78600, Note_off_c, 1, 56, 0
2, 78600, Note_off_c, 1, 65, 0
2, 78600, Note_on_c, 1, 68, 127
2, 78600, Note_on_c, 1, 73, 127
2, 78600, Note_off_c, 1, 87, 0
2, 78640, Note_off_c, 1, 49, 0
2, 78640, Note_off_c, 1, 53, 0
2, 78640, Note_off_c, 1, 59, 0
2, 78640, Note_off_c, 1, 68, 0
2, 78640, Note_off_c, 1, 73, 0
2, 78640, Note_on_c, 1, 75, 127
2, 78640, Note_on_c, 1, 81, 127
2, 78640, Note_on_c, 1, 89, 127
2, 78680, Note_off_c, 1, 75, 0
2, 78680, Note_off_c, 1, 81, 0
2, 78680, Note_off_c, 1, 89, 0
2, 79000, Note_on_c, 1, 54, 127
2, 79000, Note_on_c, 1, 66, 127
2, 79000, Note_on_c, 1, 70, 127
2, 79000, Note_on_c, 1, 73, 127
2, 79400, Note_off_c, 1, 54, 0
2, 79400, Note_off_c, 1, 66, 0
2, 79400, Note_off_c, 1, 70, 0
2, 79400, Note_off_c, 1, 73, 0
2, 79440, Note_on_c, 1, 54, 127
2, 79440, Note_on_c, 1, 66, 127
2, 79440, Note_on_c, 1, 70, 127
2, 79440, Note_on_c, 1, 73, 127
2, 80200, Note_off_c, 1, 54, 0
2, 80200, Note_off_c, 1, 66, 0
2, 80200, Note_off_c, 1, 70, 0
2, 80200, Note_off_c, 1, 73, 0
2, 80240, Note_on_c, 1, 58, 127
2, 80960, Note_off_c, 1, 58, 0
2, 81000, Note_on_c, 1, 62, 127
2, 81040, Note_off_c, 1, 62, 0
2, 81080, Note_on_c, 1, 61, 127
2, 81160, Note_off_c, 1, 61, 0
2, 81200, Note_on_c, 1, 57, 127
2, 81240, Note_off_c, 1, 57, 0
2, 81280, Note_on_c, 1, 58, 127
2, 81480, Note_off_c, 1, 58, 0
2, 81560, Note_on_c, 1, 68, 127
2, 81800, Note_off_c, 1, 68, 0
2, 81840, Note_on_c, 1, 70, 127
2, 81880, Note_off_c, 1, 70, 0
2, 81920, Note_on_c, 1, 73, 127
2, 82200, Note_off_c, 1, 73, 0
2, 82240, Note_on_c, 1, 73, 127
2, 82480, Note_off_c, 1, 73, 0
2, 82520, Note_on_c, 1, 70, 127
2, 82600, Note_off_c, 1, 70, 0
2, 82640, Note_on_c, 1, 73, 127
2, 82760, Note_off_c, 1, 73, 0
2, 82800, Note_on_c, 1, 71, 127
2, 82920, Note_off_c, 1, 71, 0
2, 83240, Note_on_c, 1, 47, 127
2, 83240, Note_on_c, 1, 54, 127
2, 83240, Note_on_c, 1, 59, 127
2, 83240, Note_on_c, 1, 73, 127
2, 83280, Note_on_c, 1, 40, 127
2, 83280, Note_off_c, 1, 47, 0
2, 83280, Note_on_c, 1, 52, 127
2, 83280, Note_off_c, 1, 54, 0
2, 83280, Note_on_c, 1, 55, 127
2, 83280, Note_off_c, 1, 59, 0
2, 83280, Note_on_c, 1, 60, 127
2, 83280, Note_on_c, 1, 67, 127
2, 83280, Note_on_c, 1, 72, 127
2, 83280, Note_off_c, 1, 73, 0
2, 83320, Note_off_c, 1, 40, 0
2, 83320, Note_on_c, 1, 47, 127
2, 83320, Note_off_c, 1, 52, 0
2, 83320, Note_on_c, 1, 54, 127
2, 83320, Note_off_c, 1, 55, 0
2, 83320, Note_on_c, 1, 59, 127
2, 83320, Note_off_c, 1, 60, 0
2, 83320, Note_off_c, 1, 67, 0
2, 83320, Note_off_c, 1, 72, 0
2, 83320, Note_on_c, 1, 73, 127
2, 83400, Note_off_c, 1, 47, 0
2, 83400, Note_off_c, 1, 54, 0
2, 83400, Note_off_c, 1, 59, 0
2, 83400, Note_off_c, 1, 73, 0
2, 83440, Note_on_c, 1, 47, 127
2, 83440, Note_on_c, 1, 54, 127
2, 83440, Note_on_c, 1, 59, 127
2, 83440, Note_on_c, 1, 73, 127
2, 83720, Note_off_c, 1, 54, 0
2, 83720, Note_on_c, 1, 56, 127
2, 83720, Note_off_c, 1, 59, 0
2, 83720, Note_on_c, 1, 64, 127
2, 83720, Note_on_c, 1, 68, 127
2, 83720, Note_off_c, 1, 73, 0
2, 83720, Note_on_c, 1, 76, 127
2, 83760, Note_off_c, 1, 47, 0
2, 83760, Note_off_c, 1, 56, 0
2, 83760, Note_off_c, 1, 64, 0
2, 83760, Note_off_c, 1, 68, 0
2, 83760, Note_off_c, 1, 76, 0
2, 84040, Note_on_c, 1, 54, 127
2, 84040, Note_on_c, 1, 58, 127
2, 84040, Note_on_c, 1, 61, 127
2, 84040, Note_on_c, 1, 64, 127
2, 84040, Note_on_c, 1, 66, 127
2, 84040, Note_on_c, 1, 70, 127
2, 84040, Note_on_c, 1, 73, 127
2, 85160, Note_off_c, 1, 54, 0
2, 85160, Note_off_c, 1, 58, 0
2, 85160, Note_off_c, 1, 61, 0
2, 85160, Note_off_c, 1, 64, 0
2, 85160, Note_off_c, 1, 66, 0
2, 85160, Note_off_c, 1, 70, 0
2, 85160, Note_off_c, 1, 73, 0
2, 85200, Note_on_c, 1, 54, 127
2, 85200, Note_on_c, 1, 58, 127
2, 85200, Note_on_c, 1, 61, 127
2, 85200, Note_on_c, 1, 64, 127
2, 85200, Note_on_c, 1, 66, 127
2, 85200, Note_on_c, 1, 70, 127
2, 85200, Note_on_c, 1, 73, 127
2, 85800, Note_off_c, 1, 54, 0
2, 85800, Note_off_c, 1, 58, 0
2, 85800, Note_off_c, 1, 61, 0
2, 85800, Note_off_c, 1, 64, 0
2, 85800, Note_off_c, 1, 70, 0
2, 85800, Note_off_c, 1, 73, 0
2, 85840, Note_on_c, 1, 43, 127
2, 85840, Note_on_c, 1, 62, 127
2, 85840, Note_on_c, 1, 65, 127
2, 85840, Note_off_c, 1, 66, 0
2, 85840, Note_on_c, 1, 69, 127
2, 85840, Note_on_c, 1, 72, 127
2, 85880, Note_off_c, 1, 43, 0
2, 85880, Note_on_c, 1, 45, 127
2, 85880, Note_on_c, 1, 52, 127
2, 85880, Note_on_c, 1, 59, 127
2, 85880, Note_off_c, 1, 65, 0
2, 85880, Note_on_c, 1, 66, 127
2, 85880, Note_off_c, 1, 69, 0
2, 85880, Note_off_c, 1, 72, 0
2, 85920, Note_on_c, 1, 32, 127
2, 85920, Note_on_c, 1, 37, 127
2, 85920, Note_on_c, 1, 44, 127
2, 85920, Note_off_c, 1, 45, 0
2, 85920, Note_off_c, 1, 52, 0
2, 85920, Note_off_c, 1, 59, 0
2, 85920, Note_off_c, 1, 62, 0
2, 85920, Note_on_c, 1, 64, 127
2, 85920, Note_off_c, 1, 66, 0
2, 85960, Note_off_c, 1, 32, 0
2, 85960, Note_off_c, 1, 37, 0
2, 85960, Note_off_c, 1, 44, 0
2, 85960, Note_on_c, 1, 57, 127
2, 85960, Note_on_c, 1, 66, 127
2, 85960, Note_on_c, 1, 69, 127
2, 85960, Note_on_c, 1, 72, 127
2, 85960, Note_on_c, 1, 76, 127
2, 85960, Note_on_c, 1, 78, 127
2, 86000, Note_off_c, 1, 57, 0
2, 86000, Note_off_c, 1, 64, 0
2, 86000, Note_off_c, 1, 66, 0
2, 86000, Note_off_c, 1, 69, 0
2, 86000, Note_off_c, 1, 72, 0
2, 86000, Note_off_c, 1, 76, 0
2, 86000, Note_off_c, 1, 78, 0
2, 86040, Note_on_c, 1, 48, 127
2, 86040, Note_on_c, 1, 60, 127
2, 86040, Note_on_c, 1, 63, 127
2, 86040, Note_on_c, 1, 65, 127
2, 86600, Note_off_c, 1, 48, 0
2, 86600, Note_off_c, 1, 60, 0
2, 86600, Note_off_c, 1, 63, 0
2, 86600, Note_off_c, 1, 65, 0
2, 86640, Note_on_c, 1, 45, 127
2, 86640, Note_on_c, 1, 55, 127
2, 86640, Note_on_c, 1, 60, 127
2, 86640, Note_on_c, 1, 69, 127
2, 86840, Note_off_c, 1, 45, 0
2, 86840, Note_on_c, 1, 50, 127
2, 86840, Note_on_c, 1, 62, 127
2, 87160, Note_off_c, 1, 50, 0
2, 87160, Note_off_c, 1, 55, 0
2, 87160, Note_off_c, 1, 60, 0
2, 87160, Note_off_c, 1, 62, 0
2, 87160, Note_off_c, 1, 69, 0
2, 87200, Note_on_c, 1, 50, 127
2, 87200, Note_on_c, 1, 55, 127
2, 87200, Note_on_c, 1, 60, 127
2, 87200, Note_on_c, 1, 62, 127
2, 87200, Note_on_c, 1, 69, 127
2, 87240, Note_off_c, 1, 55, 0
2, 87440, Note_off_c, 1, 50, 0
2, 87440, Note_off_c, 1, 60, 0
2, 87440, Note_off_c, 1, 62, 0
2, 87440, Note_off_c, 1, 69, 0
2, 87480, Note_on_c, 1, 50, 127
2, 87480, Note_on_c, 1, 54, 127
2, 87480, Note_on_c, 1, 57, 127
2, 87480, Note_on_c, 1, 62, 127
2, 87480, Note_on_c, 1, 69, 127
2, 88240, Note_off_c, 1, 50, 0
2, 88240, Note_off_c, 1, 54, 0
2, 88240, Note_off_c, 1, 57, 0
2, 88240, Note_off_c, 1, 62, 0
2, 88240, Note_off_c, 1, 69, 0
2, 88280, Note_on_c, 1, 52, 127
2, 88280, Note_on_c, 1, 59, 127
2, 88280, Note_on_c, 1, 64, 127
2, 88280, Note_on_c, 1, 68, 127
2, 89080, Note_off_c, 1, 52, 0
2, 89080, Note_off_c, 1, 59, 0
2, 89080, Note_off_c, 1, 64, 0
2, 89080, Note_off_c, 1, 68, 0
2, 89120, Note_on_c, 1, 34, 127
2, 89120, Note_on_c, 1, 58, 127
2, 89120, Note_on_c, 1, 62, 127
2, 89120, Note_on_c, 1, 67, 127
2, 89360, Note_off_c, 1, 34, 0
2, 89360, Note_off_c, 1, 58, 0
2, 89360, Note_off_c, 1, 62, 0
2, 89360, Note_off_c, 1, 67, 0
2, 89400, Note_on_c, 1, 34, 127
2, 89400, Note_on_c, 1, 58, 127
2, 89400, Note_on_c, 1, 62, 127
2, 89400, Note_on_c, 1, 67, 127
2, 89760, Note_off_c, 1, 34, 0
2, 89760, Note_on_c, 1, 51, 127
2, 89760, Note_on_c, 1, 61, 127
2, 89760, Note_off_c, 1, 62, 0
2, 89760, Note_on_c, 1, 63, 127
2, 89760, Note_off_c, 1, 67, 0
2, 89800, Note_off_c, 1, 51, 0
2, 89800, Note_off_c, 1, 58, 0
2, 89800, Note_off_c, 1, 61, 0
2, 89800, Note_off_c, 1, 63, 0
2, 89840, Note_on_c, 1, 52, 127
2, 89840, Note_on_c, 1, 58, 127
2, 89840, Note_on_c, 1, 62, 127
2, 89840, Note_on_c, 1, 67, 127
2, 90480, Note_off_c, 1, 52, 0
2, 90480, Note_off_c, 1, 58, 0
2, 90480, Note_off_c, 1, 62, 0
2, 90480, Note_off_c, 1, 67, 0
2, 90520, Note_on_c, 1, 53, 127
2, 90520, Note_on_c, 1, 60, 127
2, 90520, Note_on_c, 1, 65, 127
2, 90520, Note_on_c, 1, 69, 127
2, 91000, Note_on_c, 1, 37, 127
2, 91000, Note_on_c, 1, 49, 127
2, 91000, Note_off_c, 1, 53, 0
2, 91000, Note_on_c, 1, 56, 127
2, 91000, Note_off_c, 1, 60, 0
2, 91000, Note_on_c, 1, 61, 127
2, 91000, Note_off_c, 1, 69, 0
2, 91040, Note_off_c, 1, 37, 0
2, 91040, Note_off_c, 1, 49, 0
2, 91040, Note_off_c, 1, 56, 0
2, 91040, Note_off_c, 1, 61, 0
2, 91040, Note_off_c, 1, 65, 0
2, 91080, Note_on_c, 1, 62, 127
2, 91080, Note_on_c, 1, 67, 127
2, 91080, Note_on_c, 1, 70, 127
2, 91080, Note_on_c, 1, 91, 127
2, 91120, Note_on_c, 1, 60, 127
2, 91120, Note_off_c, 1, 62, 0
2, 91120, Note_off_c, 1, 67, 0
2, 91120, Note_off_c, 1, 70, 0
2, 91120, Note_on_c, 1, 77, 127
2, 91120, Note_on_c, 1, 84, 127
2, 91120, Note_on_c, 1, 89, 127
2, 91120, Note_off_c, 1, 91, 0
2, 91160, Note_on_c, 1, 48, 127
2, 91160, Note_on_c, 1, 55, 127
2, 91160, Note_on_c, 1, 58, 127
2, 91160, Note_off_c, 1, 60, 0
2, 91160, Note_on_c, 1, 61, 127
2, 91160, Note_on_c, 1, 65, 127
2, 91160, Note_off_c, 1, 77, 0
2, 91160, Note_off_c, 1, 84, 0
2, 91160, Note_off_c, 1, 89, 0
2, 91200, Note_off_c, 1, 48, 0
2, 91200, Note_off_c, 1, 55, 0
2, 91200, Note_off_c, 1, 58, 0
2, 91200, Note_on_c, 1, 60, 127
2, 91200, Note_off_c, 1, 61, 0
2, 91200, Note_off_c, 1, 65, 0
2, 91200, Note_on_c, 1, 67, 127
2, 91200, Note_on_c, 1, 76, 127
2, 91200, Note_on_c, 1, 83, 127
2, 91240, Note_on_c, 1, 44, 127
2, 91240, Note_on_c, 1, 50, 127
2, 91240, Note_on_c, 1, 54, 127
2, 91240, Note_off_c, 1, 60, 0
2, 91240, Note_on_c, 1, 66, 127
2, 91240, Note_off_c, 1, 67, 0
2, 91240, Note_off_c, 1, 76, 0
2, 91240, Note_off_c, 1, 83, 0
2, 91280, Note_off_c, 1, 44, 0
2, 91280, Note_off_c, 1, 50, 0
2, 91280, Note_off_c, 1, 54, 0
2, 91280, Note_off_c, 1, 66, 0
2, 91320, Note_on_c, 1, 60, 127
2, 91320, Note_on_c, 1, 67, 127
2, 91320, Note_on_c, 1, 70, 127
2, 91320, Note_on_c, 1, 73, 127
2, 91320, Note_on_c, 1, 77, 127
2, 91360, Note_off_c, 1, 60, 0
2, 91360, Note_off_c, 1, 67, 0
2, 91360, Note_off_c, 1, 70, 0
2, 91360, Note_off_c, 1, 73, 0
2, 91360, Note_off_c, 1, 77, 0
2, 91360, Note_on_c, 1, 91, 127
2, 91400, Note_on_c, 1, 47, 127
2, 91400, Note_on_c, 1, 55, 127
2, 91400, Note_on_c, 1, 59, 127
2, 91400, Note_on_c, 1, 64, 127
2, 91400, Note_on_c, 1, 71, 127
2, 91400, Note_on_c, 1, 75, 127
2, 91400, Note_off_c, 1, 91, 0
2, 91560, Note_off_c, 1, 75, 0
2, 91600, Note_on_c, 1, 75, 127
2, 91760, Note_off_c, 1, 64, 0
2, 91760, Note_off_c, 1, 71, 0
2, 91760, Note_off_c, 1, 75, 0
2, 91800, Note_off_c, 1, 47, 0
2, 91800, Note_off_c, 1, 55, 0
2, 91800, Note_off_c, 1, 59, 0
2, 91800, Note_on_c, 1, 62, 127
2, 91800, Note_on_c, 1, 67, 127
2, 91800, Note_on_c, 1, 79, 127
2, 91800, Note_on_c, 1, 81, 127
2, 92160, Note_off_c, 1, 62, 0
2, 92160, Note_off_c, 1, 67, 0
2, 92160, Note_on_c, 1, 70, 127
2, 92160, Note_off_c, 1, 79, 0
2, 92160, Note_off_c, 1, 81, 0
2, 92160, Note_on_c, 1, 88, 127
2, 92200, Note_on_c, 1, 45, 127
2, 92200, Note_on_c, 1, 52, 127
2, 92200, Note_off_c, 1, 70, 0
2, 92200, Note_on_c, 1, 83, 127
2, 92200, Note_off_c, 1, 88, 0
2, 92200, Note_on_c, 1, 91, 127
2, 92200, Note_on_c, 1, 95, 127
2, 92240, Note_on_c, 1, 44, 127
2, 92240, Note_off_c, 1, 45, 0
2, 92240, Note_on_c, 1, 47, 127
2, 92240, Note_on_c, 1, 49, 127
2, 92240, Note_off_c, 1, 52, 0
2, 92240, Note_on_c, 1, 53, 127
2, 92240, Note_on_c, 1, 59, 127
2, 92240, Note_off_c, 1, 83, 0
2, 92240, Note_off_c, 1, 91, 0
2, 92240, Note_off_c, 1, 95, 0
2, 92280, Note_off_c, 1, 44, 0
2, 92280, Note_off_c, 1, 47, 0
2, 92280, Note_on_c, 1, 52, 127
2, 92280, Note_off_c, 1, 53, 0
2, 92280, Note_on_c, 1, 57, 127
2, 92280, Note_off_c, 1, 59, 0
2, 92280, Note_on_c, 1, 61, 127
2, 92280, Note_on_c, 1, 79, 127
2, 92320, Note_on_c, 1, 44, 127
2, 92320, Note_off_c, 1, 49, 0
2, 92320, Note_off_c, 1, 52, 0
2, 92320, Note_on_c, 1, 53, 127
2, 92320, Note_off_c, 1, 57, 0
2, 92320, Note_on_c, 1, 59, 127
2, 92320, Note_off_c, 1, 61, 0
2, 92320, Note_on_c, 1, 63, 127
2, 92320, Note_on_c, 1, 68, 127
2, 92320, Note_off_c, 1, 79, 0
2, 92360, Note_off_c, 1, 44, 0
2, 92360, Note_off_c, 1, 53, 0
2, 92360, Note_off_c, 1, 59, 0
2, 92360, Note_off_c, 1, 63, 0
2, 92360, Note_off_c, 1, 68, 0
2, 92360, Note_on_c, 1, 69, 127
2, 92360, Note_on_c, 1, 75, 127
2, 92360, Note_on_c, 1, 78, 127
2, 92360, Note_on_c, 1, 87, 127
2, 92360, Note_on_c, 1, 90, 127
2, 92400, Note_on_c, 1, 41, 127
2, 92400, Note_off_c, 1, 69, 0
2, 92400, Note_off_c, 1, 75, 0
2, 92400, Note_off_c, 1, 78, 0
2, 92400, Note_on_c, 1, 84, 127
2, 92400, Note_off_c, 1, 87, 0
2, 92400, Note_on_c, 1, 89, 127
2, 92400, Note_off_c, 1, 90, 0
2, 92400, Note_on_c, 1, 92, 127
2, 92400, Note_on_c, 1, 96, 127
2, 92440, Note_off_c, 1, 41, 0
2, 92440, Note_on_c, 1, 49, 127
2, 92440, Note_on_c, 1, 53, 127
2, 92440, Note_on_c, 1, 58, 127
2, 92440, Note_on_c, 1, 61, 127
2, 92440, Note_off_c, 1, 84, 0
2, 92440, Note_off_c, 1, 89, 0
2, 92440, Note_off_c, 1, 92, 0
2, 92440, Note_off_c, 1, 96, 0
2, 92440, Note_on_c, 1, 103, 127
2, 92480, Note_off_c, 1, 49, 0
2, 92480, Note_off_c, 1, 53, 0
2, 92480, Note_off_c, 1, 58, 0
2, 92480, Note_off_c, 1, 61, 0
2, 92480, Note_on_c, 1, 62, 127
2, 92480, Note_on_c, 1, 71, 127
2, 92480, Note_on_c, 1, 92, 127
2, 92480, Note_on_c, 1, 97, 127
2, 92480, Note_off_c, 1, 103, 0
2, 92520, Note_on_c, 1, 53, 127
2, 92520, Note_on_c, 1, 56, 127
2, 92520, Note_on_c, 1, 59, 127
2, 92520, Note_off_c, 1, 71, 0
2, 92520, Note_on_c, 1, 89, 127
2, 92520, Note_on_c, 1, 90, 127
2, 92520, Note_off_c, 1, 92, 0
2, 92520, Note_off_c, 1, 97, 0
2, 92560, Note_on_c, 1, 52, 127
2, 92560, Note_off_c, 1, 53, 0
2, 92560, Note_off_c, 1, 56, 0
2, 92560, Note_off_c, 1, 59, 0
2, 92560, Note_off_c, 1, 62, 0
2, 92560, Note_on_c, 1, 64, 127
2, 92560, Note_on_c, 1, 66, 127
2, 92560, Note_on_c, 1, 70, 127
2, 92560, Note_off_c, 1, 89, 0
2, 92560, Note_off_c, 1, 90, 0
2, 92600, Note_off_c, 1, 52, 0
2, 92600, Note_on_c, 1, 55, 127
2, 92600, Note_off_c, 1, 64, 0
2, 92600, Note_off_c, 1, 66, 0
2, 92600, Note_on_c, 1, 82, 127
2, 92640, Note_off_c, 1, 55, 0
2, 92640, Note_on_c, 1, 56, 127
2, 92640, Note_on_c, 1, 67, 127
2, 92640, Note_off_c, 1, 70, 0
2, 92640, Note_on_c, 1, 73, 127
2, 92640, Note_on_c, 1, 78, 127
2, 92640, Note_on_c, 1, 81, 127
2, 92640, Note_off_c, 1, 82, 0
2, 92680, Note_on_c, 1, 54, 127
2, 92680, Note_off_c, 1, 56, 0
2, 92680, Note_off_c, 1, 67, 0
2, 92680, Note_on_c, 1, 72, 127
2, 92680, Note_off_c, 1, 73, 0
2, 92680, Note_off_c, 1, 78, 0
2, 92720, Note_on_c, 1, 31, 127
2, 92720, Note_on_c, 1, 38, 127
2, 92720, Note_on_c, 1, 43, 127
2, 92720, Note_off_c, 1, 54, 0
2, 92720, Note_off_c, 1, 72, 0
2, 92720, Note_off_c, 1, 81, 0
2, 92720, Note_on_c, 1, 82, 127
2, 92720, Note_on_c, 1, 87, 127
2, 92760, Note_off_c, 1, 31, 0
2, 92760, Note_off_c, 1, 38, 0
2, 92760, Note_off_c, 1, 43, 0
2, 92760, Note_on_c, 1, 47, 127
2, 92760, Note_on_c, 1, 50, 127
2, 92760, Note_on_c, 1, 57, 127
2, 92760, Note_on_c, 1, 69, 127
2, 92760, Note_on_c, 1, 81, 127
2, 92760, Note_off_c, 1, 82, 0
2, 92760, Note_off_c, 1, 87, 0
2, 92800, Note_off_c, 1, 47, 0
2, 92800, Note_off_c, 1, 50, 0
2, 92800, Note_on_c, 1, 55, 127
2, 92800, Note_off_c, 1, 57, 0
2, 92800, Note_on_c, 1, 65, 127
2, 92800, Note_off_c, 1, 69, 0
2, 92800, Note_on_c, 1, 80, 127
2, 92800, Note_off_c, 1, 81, 0
2, 92840, Note_on_c, 1, 48, 127
2, 92840, Note_off_c, 1, 55, 0
2, 92840, Note_on_c, 1, 59, 127
2, 92840, Note_off_c, 1, 65, 0
2, 92840, Note_on_c, 1, 67, 127
2, 92840, Note_on_c, 1, 71, 127
2, 92840, Note_on_c, 1, 74, 127
2, 92840, Note_on_c, 1, 79, 127
2, 92840, Note_off_c, 1, 80, 0
2, 92880, Note_off_c, 1, 48, 0
2, 92880, Note_on_c, 1, 53, 127
2, 92880, Note_off_c, 1, 59, 0
2, 92880, Note_on_c, 1, 61, 127
2, 92880, Note_off_c, 1, 67, 0
2, 92880, Note_on_c, 1, 68, 127
2, 92880, Note_off_c, 1, 71, 0
2, 92880, Note_off_c, 1, 74, 0
2, 92880, Note_on_c, 1, 75, 127
2, 92880, Note_off_c, 1, 79, 0
2, 92920, Note_on_c, 1, 41, 127
2, 92920, Note_off_c, 1, 53, 0
2, 92920, Note_off_c, 1, 61, 0
2, 92920, Note_on_c, 1, 63, 127
2, 92920, Note_on_c, 1, 67, 127
2, 92920, Note_off_c, 1, 68, 0
2, 92960, Note_off_c, 1, 41, 0
2, 92960, Note_on_c, 1, 56, 127
2, 92960, Note_on_c, 1, 62, 127
2, 92960, Note_off_c, 1, 63, 0
2, 92960, Note_off_c, 1, 67, 0
2, 92960, Note_off_c, 1, 75, 0
2, 92960, Note_on_c, 1, 80, 127
2, 92960, Note_on_c, 1, 83, 127
2, 93000, Note_on_c, 1, 54, 127
2, 93000, Note_off_c, 1, 56, 0
2, 93000, Note_on_c, 1, 58, 127
2, 93000, Note_off_c, 1, 62, 0
2, 93000, Note_on_c, 1, 63, 127
2, 93000, Note_on_c, 1, 73, 127
2, 93000, Note_off_c, 1, 80, 0
2, 93000, Note_off_c, 1, 83, 0
2, 93040, Note_off_c, 1, 54, 0
2, 93040, Note_off_c, 1, 58, 0
2, 93040, Note_off_c, 1, 63, 0
2, 93040, Note_off_c, 1, 73, 0
2, 93080, Note_on_c, 1, 41, 127
2, 93080, Note_on_c, 1, 53, 127
2, 93080, Note_on_c, 1, 61, 127
2, 93080, Note_on_c, 1, 64, 127
2, 93080, Note_on_c, 1, 70, 127
2, 93200, Note_off_c, 1, 41, 0
2, 93200, Note_off_c, 1, 53, 0
2, 93320, Note_off_c, 1, 61, 0
2, 93320, Note_off_c, 1, 64, 0
2, 93320, Note_off_c, 1, 70, 0
2, 93360, Note_on_c, 1, 61, 127
2, 93360, Note_on_c, 1, 64, 127
2, 93360, Note_on_c, 1, 70, 127
2, 93400, Note_off_c, 1, 61, 0
2, 93400, Note_off_c, 1, 64, 0
2, 93400, Note_off_c, 1, 70, 0
2, 93440, Note_on_c, 1, 26, 127
2, 93440, Note_on_c, 1, 33, 127
2, 93440, Note_on_c, 1, 38, 127
2, 93440, Note_on_c, 1, 50, 127
2, 93440, Note_on_c, 1, 54, 127
2, 93440, Note_on_c, 1, 57, 127
2, 93440, Note_on_c, 1, 62, 127
2, 95040, Note_off_c, 1, 26, 0
2, 95040, Note_off_c, 1, 33, 0
2, 95040, Note_off_c, 1, 38, 0
2, 95040, Note_off_c, 1, 50, 0
2, 95040, Note_off_c, 1, 54, 0
2, 95040, Note_off_c, 1, 57, 0
2, 95040, Note_on_c, 1, 58, 127
2, 95040, Note_off_c, 1, 62, 0
2, 95080, Note_on_c, 1, 62, 127
2, 95080, Note_on_c, 1, 65, 127
2, 95080, Note_on_c, 1, 70, 127
2, 95080, Note_on_c, 1, 77, 127
2, 95240, Note_off_c, 1, 58, 0
2, 95240, Note_off_c, 1, 62, 0
2, 95240, Note_off_c, 1, 65, 0
2, 95240, Note_off_c, 1, 70, 0
2, 95240, Note_off_c, 1, 77, 0
2, 95280, Note_on_c, 1, 58, 127
2, 95280, Note_on_c, 1, 62, 127
2, 95280, Note_on_c, 1, 65, 127
2, 95280, Note_on_c, 1, 70, 127
2, 95280, Note_on_c, 1, 77, 127
2, 96320, Note_off_c, 1, 58, 0
2, 96320, Note_off_c, 1, 62, 0
2, 96320, Note_off_c, 1, 65, 0
2, 96320, Note_off_c, 1, 70, 0
2, 96320, Note_off_c, 1, 77, 0
2, 96920, Note_on_c, 1, 41, 127
2, 96960, Note_on_c, 1, 57, 127
2, 97000, Note_on_c, 1, 53, 127
2, 97000, Note_on_c, 1, 62, 127
2, 97120, Note_off_c, 1, 41, 0
2, 97120, Note_off_c, 1, 53, 0
2, 97120, Note_off_c, 1, 57, 0
2, 97120, Note_off_c, 1, 62, 0
2, 97160, Note_on_c, 1, 41, 127
2, 97160, Note_on_c, 1, 53, 127
2, 97160, Note_on_c, 1, 57, 127
2, 97160, Note_on_c, 1, 62, 127
2, 97600, Note_off_c, 1, 41, 0
2, 97600, Note_off_c, 1, 53, 0
2, 97600, Note_off_c, 1, 57, 0
2, 97600, Note_off_c, 1, 62, 0
2, 97640, Note_on_c, 1, 46, 127
2, 97640, Note_on_c, 1, 53, 127
2, 97640, Note_on_c, 1, 58, 127
2, 97640, Note_on_c, 1, 62, 127
2, 99240, Note_off_c, 1, 46, 0
2, 99240, Note_off_c, 1, 53, 0
2, 99240, Note_off_c, 1, 58, 0
2, 99240, Note_off_c, 1, 62, 0
2, 99280, Note_on_c, 1, 46, 127
2, 99280, Note_on_c, 1, 53, 127
2, 99280, Note_on_c, 1, 58, 127
2, 99280, Note_on_c, 1, 62, 127
2, 99280, Note_on_c, 1, 65, 127
2, 99480, Note_off_c, 1, 46, 0
2, 99520, Note_on_c, 1, 46, 127
2, 99960, Note_off_c, 1, 46, 0
2, 99960, Note_on_c, 1, 47, 127
2, 99960, Note_off_c, 1, 53, 0
2, 99960, Note_off_c, 1, 58, 0
2, 99960, Note_on_c, 1, 59, 127
2, 99960, Note_off_c, 1, 62, 0
2, 99960, Note_off_c, 1, 65, 0
2, 99960, Note_on_c, 1, 89, 127
2, 99960, Note_on_c, 1, 95, 127
2, 99960, Note_on_c, 1, 98, 127
2, 99960, Note_on_c, 1, 101, 127
2, 100000, Note_off_c, 1, 47, 0
2, 100000, Note_on_c, 1, 58, 127
2, 100000, Note_off_c, 1, 59, 0
2, 100000, Note_on_c, 1, 63, 127
2, 100000, Note_on_c, 1, 66, 127
2, 100000, Note_on_c, 1, 70, 127
2, 100000, Note_on_c, 1, 78, 127
2, 100000, Note_off_c, 1, 89, 0
2, 100000, Note_on_c, 1, 90, 127
2, 100000, Note_off_c, 1, 95, 0
2, 100000, Note_off_c, 1, 98, 0
2, 100000, Note_off_c, 1, 101, 0
2, 100040, Note_on_c, 1, 50, 127
2, 100040, Note_off_c, 1, 58, 0
2, 100040, Note_on_c, 1, 60, 127
2, 100040, Note_off_c, 1, 63, 0
2, 100040, Note_off_c, 1, 78, 0
2, 100040, Note_off_c, 1, 90, 0
2, 100080, Note_on_c, 1, 38, 127
2, 100080, Note_on_c, 1, 39, 127
2, 100080, Note_off_c, 1, 50, 0
2, 100080, Note_on_c, 1, 52, 127
2, 100080, Note_off_c, 1, 60, 0
2, 100080, Note_off_c, 1, 66, 0
2, 100080, Note_off_c, 1, 70, 0
2, 100120, Note_off_c, 1, 38, 0
2, 100120, Note_off_c, 1, 39, 0
2, 100120, Note_off_c, 1, 52, 0
2, 100440, Note_on_c, 1, 36, 127
2, 100440, Note_on_c, 1, 43, 127
2, 100440, Note_on_c, 1, 48, 127
2, 100440, Note_on_c, 1, 52, 127
2, 100440, Note_on_c, 1, 60, 127
2, 101280, Note_off_c, 1, 36, 0
2, 101280, Note_off_c, 1, 43, 0
2, 101280, Note_off_c, 1, 48, 0
2, 101280, Note_off_c, 1, 52, 0
2, 101280, Note_off_c, 1, 60, 0
2, 101320, Note_on_c, 1, 36, 127
2, 101320, Note_on_c, 1, 43, 127
2, 101320, Note_on_c, 1, 48, 127
2, 101320, Note_on_c, 1, 52, 127
2, 101320, Note_on_c, 1, 60, 127
2, 101760, Note_off_c, 1, 36, 0
2, 101760, Note_off_c, 1, 43, 0
2, 101760, Note_off_c, 1, 48, 0
2, 101760, Note_off_c, 1, 52, 0
2, 101760, Note_off_c, 1, 60, 0
2, 102920, Note_on_c, 1, 54, 127
2, 102920, Note_on_c, 1, 66, 127
2, 103760, Note_off_c, 1, 54, 0
2, 103760, Note_off_c, 1, 66, 0
2, 105520, Note_on_c, 1, 50, 127
2, 105520, Note_on_c, 1, 62, 127
2, 105560, Note_on_c, 1, 45, 127
2, 105560, Note_off_c, 1, 50, 0
2, 105560, Note_on_c, 1, 57, 127
2, 105560, Note_off_c, 1, 62, 0
2, 105600, Note_off_c, 1, 45, 0
2, 105600, Note_on_c, 1, 50, 127
2, 105600, Note_off_c, 1, 57, 0
2, 105600, Note_on_c, 1, 62, 127
2, 105680, Note_off_c, 1, 50, 0
2, 105680, Note_off_c, 1, 62, 0
2, 106040, Note_on_c, 1, 47, 127
2, 106040, Note_on_c, 1, 54, 127
2, 106040, Note_on_c, 1, 75, 127
2, 106040, Note_on_c, 1, 78, 127
2, 106040, Note_on_c, 1, 87, 127
2, 106440, Note_off_c, 1, 47, 0
2, 106440, Note_off_c, 1, 54, 0
2, 106440, Note_off_c, 1, 75, 0
2, 106440, Note_off_c, 1, 78, 0
2, 106440, Note_off_c, 1, 87, 0
2, 106480, Note_on_c, 1, 47, 127
2, 106480, Note_on_c, 1, 54, 127
2, 106480, Note_on_c, 1, 75, 127
2, 106480, Note_on_c, 1, 78, 127
2, 106480, Note_on_c, 1, 87, 127
2, 106840, Note_off_c, 1, 47, 0
2, 106840, Note_on_c, 1, 48, 127
2, 106840, Note_on_c, 1, 52, 127
2, 106840, Note_off_c, 1, 54, 0
2, 106840, Note_off_c, 1, 75, 0
2, 106840, Note_off_c, 1, 78, 0
2, 106840, Note_off_c, 1, 87, 0
2, 106880, Note_on_c, 1, 47, 127
2, 106880, Note_off_c, 1, 48, 0
2, 106880, Note_off_c, 1, 52, 0
2, 106880, Note_on_c, 1, 54, 127
2, 106880, Note_on_c, 1, 75, 127
2, 106880, Note_on_c, 1, 78, 127
2, 106880, Note_on_c, 1, 88, 127
2, 107360, Note_on_c, 1, 33, 127
2, 107360, Note_on_c, 1, 45, 127
2, 107360, Note_off_c, 1, 47, 0
2, 107360, Note_off_c, 1, 54, 0
2, 107360, Note_off_c, 1, 75, 0
2, 107360, Note_off_c, 1, 78, 0
2, 107360, Note_off_c, 1, 88, 0
2, 107400, Note_off_c, 1, 33, 0
2, 107400, Note_off_c, 1, 45, 0
2, 107400, Note_on_c, 1, 47, 127
2, 107400, Note_on_c, 1, 54, 127
2, 107400, Note_on_c, 1, 75, 127
2, 107400, Note_on_c, 1, 78, 127
2, 107400, Note_on_c, 1, 88, 127
2, 107920, Note_on_c, 1, 46, 127
2, 107920, Note_off_c, 1, 47, 0
2, 107920, Note_on_c, 1, 51, 127
2, 107920, Note_off_c, 1, 54, 0
2, 107920, Note_off_c, 1, 78, 0
2, 107920, Note_on_c, 1, 79, 127
2, 107920, Note_on_c, 1, 87, 127
2, 107920, Note_off_c, 1, 88, 0
2, 108120, Note_off_c, 1, 46, 0
2, 108120, Note_off_c, 1, 51, 0
2, 108120, Note_off_c, 1, 75, 0
2, 108120, Note_off_c, 1, 79, 0
2, 108120, Note_off_c, 1, 87, 0
2, 110320, Note_on_c, 1, 47, 127
2, 110320, Note_on_c, 1, 87, 127
2, 110360, Note_off_c, 1, 47, 0
2, 110360, Note_on_c, 1, 48, 127
2, 110360, Note_off_c, 1, 87, 0
2, 110360, Note_on_c, 1, 88, 127
2, 110400, Note_on_c, 1, 47, 127
2, 110400, Note_off_c, 1, 48, 0
2, 110400, Note_on_c, 1, 87, 127
2, 110400, Note_off_c, 1, 88, 0
2, 110600, Note_off_c, 1, 47, 0
2, 110640, Note_off_c, 1, 87, 0
2, 110680, Note_on_c, 1, 87, 127
2, 110880, Note_on_c, 1, 47, 127
2, 110880, Note_on_c, 1, 83, 127
2, 110880, Note_off_c, 1, 87, 0
2, 110920, Note_off_c, 1, 83, 0
2, 110960, Note_on_c, 1, 83, 127
2, 111040, Note_off_c, 1, 47, 0
2, 111040, Note_on_c, 1, 48, 127
2, 111080, Note_on_c, 1, 47, 127
2, 111080, Note_off_c, 1, 48, 0
2, 111120, Note_off_c, 1, 83, 0
2, 111160, Note_off_c, 1, 47, 0
2, 111160, Note_on_c, 1, 56, 127
2, 111160, Note_on_c, 1, 83, 127
2, 111200, Note_on_c, 1, 54, 127
2, 111200, Note_off_c, 1, 56, 0
2, 111200, Note_off_c, 1, 83, 0
2, 111240, Note_on_c, 1, 81, 127
2, 111280, Note_off_c, 1, 81, 0
2, 111320, Note_on_c, 1, 80, 127
2, 111360, Note_off_c, 1, 80, 0
2, 111400, Note_on_c, 1, 80, 127
2, 111480, Note_off_c, 1, 80, 0
2, 111520, Note_on_c, 1, 87, 127
2, 111560, Note_off_c, 1, 54, 0
2, 111560, Note_off_c, 1, 87, 0
2, 111600, Note_on_c, 1, 59, 127
2, 111600, Note_on_c, 1, 83, 127
2, 111680, Note_off_c, 1, 83, 0
2, 112200, Note_on_c, 1, 77, 127
2, 112600, Note_off_c, 1, 59, 0
2, 112600, Note_off_c, 1, 77, 0
2, 112640, Note_on_c, 1, 59, 127
2, 112640, Note_on_c, 1, 77, 127
2, 113000, Note_off_c, 1, 59, 0
2, 113000, Note_off_c, 1, 77, 0
2, 113040, Note_on_c, 1, 62, 127
2, 113040, Note_on_c, 1, 77, 127
2, 114560, Note_off_c, 1, 62, 0
2, 114560, Note_off_c, 1, 77, 0
2, 114600, Note_on_c, 1, 62, 127
2, 114600, Note_on_c, 1, 77, 127
2, 115360, Note_on_c, 1, 58, 127
2, 115360, Note_off_c, 1, 62, 0
2, 115360, Note_off_c, 1, 77, 0
2, 115360, Note_on_c, 1, 78, 127
2, 115600, Note_off_c, 1, 58, 0
2, 115600, Note_on_c, 1, 63, 127
2, 115800, Note_on_c, 1, 61, 127
2, 115800, Note_off_c, 1, 63, 0
2, 115800, Note_off_c, 1, 78, 0
2, 115840, Note_on_c, 1, 59, 127
2, 115840, Note_off_c, 1, 61, 0
2, 116960, Note_off_c, 1, 59, 0
2, 117000, Note_on_c, 1, 59, 127
2, 117040, Note_off_c, 1, 59, 0
2, 117080, Note_on_c, 1, 56, 127
2, 117480, Note_on_c, 1, 82, 127
2, 117640, Note_off_c, 1, 82, 0
2, 117680, Note_on_c, 1, 83, 127
2, 117880, Note_off_c, 1, 56, 0
2, 117880, Note_on_c, 1, 59, 127
2, 117880, Note_off_c, 1, 83, 0
2, 117920, Note_on_c, 1, 77, 127
2, 118120, Note_on_c, 1, 58, 127
2, 118120, Note_off_c, 1, 59, 0
2, 118120, Note_off_c, 1, 77, 0
2, 118120, Note_on_c, 1, 80, 127
2, 118160, Note_off_c, 1, 58, 0
2, 118160, Note_on_c, 1, 59, 127
2, 118640, Note_off_c, 1, 80, 0
2, 118680, Note_on_c, 1, 79, 127
2, 119040, Note_off_c, 1, 59, 0
2, 119040, Note_off_c, 1, 79, 0
2, 119120, Note_on_c, 1, 54, 127
2, 119120, Note_on_c, 1, 74, 127
2, 119640, Note_off_c, 1, 54, 0
2, 119680, Note_on_c, 1, 54, 127
2, 120000, Note_off_c, 1, 54, 0
2, 120000, Note_off_c, 1, 74, 0
2, 120040, End_track
3, 0, Start_track
3, 0, Title_t, "MIDI"
3, 1536, End_track
0, 0, End_of_file
