0, 0, Header, 1, 3, 192
1, 0, Start_track
1, 0, Time_signature, 4, 2, 24, 8
1, 0, Tempo, 500000
1, 120040, End_track
2, 0, Start_track
2, 0, Text_t, "random instrument: random person i dunno whatev"
2, 0, Title_t, "Track 1"
2, 0, Note_on_c, 1, 34, 127
2, 0, Note_on_c, 1, 53, 127
2, 0, Note_on_c, 1, 56, 127
2, 0, Note_on_c, 1, 62, 127
2, 40, Note_off_c, 1, 34, 0
2, 40, Note_off_c, 1, 53, 0
2, 40, Note_off_c, 1, 56, 0
2, 40, Note_off_c, 1, 62, 0
2, 80, Note_on_c, 1, 31, 127
2, 80, Note_on_c, 1, 43, 127
2, 80, Note_on_c, 1, 59, 127
2, 80, Note_on_c, 1, 65, 127
2, 80, Note_on_c, 1, 67, 127
2, 120, Note_off_c, 1, 31, 0
2, 120, Note_on_c, 1, 34, 127
2, 120, Note_off_c, 1, 43, 0
2, 120, Note_on_c, 1, 53, 127
2, 120, Note_on_c, 1, 56, 127
2, 120, Note_off_c, 1, 59, 0
2, 120, Note_on_c, 1, 62, 127
2, 120, Note_off_c, 1, 65, 0
2, 120, Note_off_c, 1, 67, 0
2, 160, Note_off_c, 1, 34, 0
2, 160, Note_on_c, 1, 43, 127
2, 160, Note_on_c, 1, 47, 127
2, 160, Note_off_c, 1, 53, 0
2, 160, Note_on_c, 1, 55, 127
2, 160, Note_off_c, 1, 56, 0
2, 160, Note_off_c, 1, 62, 0
2, 160, Note_on_c, 1, 79, 127
2, 160, Note_on_c, 1, 83, 127
2, 160, Note_on_c, 1, 87, 127
2, 160, Note_on_c, 1, 91, 127
2, 200, Note_on_c, 1, 34, 127
2, 200, Note_off_c, 1, 43, 0
2, 200, Note_off_c, 1, 47, 0
2, 200, Note_on_c, 1, 53, 127
2, 200, Note_off_c, 1, 55, 0
2, 200, Note_on_c, 1, 56, 127
2, 200, Note_on_c, 1, 62, 127
2, 200, Note_off_c, 1, 79, 0
2, 200, Note_off_c, 1, 83, 0
2, 200, Note_off_c, 1, 87, 0
2, 200, Note_off_c, 1, 91, 0
2, 680, Note_off_c, 1, 34, 0
2, 680, Note_off_c, 1, 53, 0
2, 680, Note_off_c, 1, 56, 0
2, 680, Note_off_c, 1, 62, 0
2, 19000, Note_on_c, 1, 61, 127
2, 19000, Note_on_c, 1, 65, 127
2, 19560, Note_off_c, 1, 61, 0
2, 19560, Note_off_c, 1, 65, 0
2, 19600, Note_on_c, 1, 51, 127
2, 19960, Note_off_c, 1, 51, 0
2, 20000, Note_on_c, 1, 53, 127
2, 20320, Note_off_c, 1, 53, 0
2, 20360, Note_on_c, 1, 47, 127
2, 20720, Note_off_c, 1, 47, 0
2, 20760, Note_on_c, 1, 49, 127
2, 21080, Note_off_c, 1, 49, 0
2, 21160, Note_on_c, 1, 54, 127
2, 21520, Note_off_c, 1, 54, 0
2, 21560, Note_on_c, 1, 53, 127
2, 21880, Note_off_c, 1, 53, 0
2, 21920, Note_on_c, 1, 58, 127
2, 22280, Note_off_c, 1, 58, 0
2, 22320, Note_on_c, 1, 61, 127
2, 22680, Note_off_c, 1, 61, 0
2, 22720, Note_on_c, 1, 58, 127
2, 23080, Note_off_c, 1, 58, 0
2, 23120, Note_on_c, 1, 54, 127
2, 23480, Note_off_c, 1, 54, 0
2, 23560, Note_on_c, 1, 63, 127
2, 23880, Note_off_c, 1, 63, 0
2, 23920, Note_on_c, 1, 61, 127
2, 24280, Note_off_c, 1, 61, 0
2, 24320, Note_on_c, 1, 58, 127
2, 24640, Note_off_c, 1, 58, 0
2, 24680, Note_on_c, 1, 54, 127
2, 25040, Note_off_c, 1, 54, 0
2, 25080, Note_on_c, 1, 58, 127
2, 25440, Note_off_c, 1, 58, 0
2, 25480, Note_on_c, 1, 42, 127
2, 25640, Note_off_c, 1, 42, 0
2, 25680, Note_on_c, 1, 42, 127
2, 25880, Note_off_c, 1, 42, 0
2, 25920, Note_on_c, 1, 37, 127
2, 26240, Note_off_c, 1, 37, 0
2, 26280, Note_on_c, 1, 42, 127
2, 26640, Note_off_c, 1, 42, 0
2, 26680, Note_on_c, 1, 44, 127
2, 27040, Note_off_c, 1, 44, 0
2, 27080, Note_on_c, 1, 37, 127
2, 27400, Note_off_c, 1, 37, 0
2, 27440, Note_on_c, 1, 44, 127
2, 27760, Note_off_c, 1, 44, 0
2, 27800, Note_on_c, 1, 44, 127
2, 27840, Note_off_c, 1, 44, 0
2, 27880, Note_on_c, 1, 49, 127
2, 28240, Note_off_c, 1, 49, 0
2, 28280, Note_on_c, 1, 56, 127
2, 28640, Note_off_c, 1, 56, 0
2, 28680, Note_on_c, 1, 49, 127
2, 29040, Note_off_c, 1, 49, 0
2, 29080, Note_on_c, 1, 41, 127
2, 29440, Note_off_c, 1, 41, 0
2, 29480, Note_on_c, 1, 49, 127
2, 29800, Note_off_c, 1, 49, 0
2, 29840, Note_on_c, 1, 49, 127
2, 29880, Note_off_c, 1, 49, 0
2, 29920, Note_on_c, 1, 54, 127
2, 30280, Note_off_c, 1, 54, 0
2, 30320, Note_on_c, 1, 61, 127
2, 30680, Note_off_c, 1, 61, 0
2, 30720, Note_on_c, 1, 59, 127
2, 31040, Note_off_c, 1, 59, 0
2, 31080, Note_on_c, 1, 61, 127
2, 31440, Note_off_c, 1, 61, 0
2, 31480, Note_on_c, 1, 60, 127
2, 31840, Note_off_c, 1, 60, 0
2, 31920, Note_on_c, 1, 61, 127
2, 32280, Note_off_c, 1, 61, 0
2, 32320, Note_on_c, 1, 59, 127
2, 32640, Note_off_c, 1, 59, 0
2, 32680, Note_on_c, 1, 56, 127
2, 33000, Note_off_c, 1, 56, 0
2, 33040, Note_on_c, 1, 61, 127
2, 33400, Note_off_c, 1, 61, 0
2, 33440, Note_on_c, 1, 54, 127
2, 33800, Note_off_c, 1, 54, 0
2, 33880, Note_on_c, 1, 56, 127
2, 34240, Note_off_c, 1, 56, 0
2, 34280, Note_on_c, 1, 61, 127
2, 34640, Note_off_c, 1, 61, 0
2, 34680, Note_on_c, 1, 52, 127
2, 35000, Note_off_c, 1, 52, 0
2, 35040, Note_on_c, 1, 47, 127
2, 35400, Note_off_c, 1, 47, 0
2, 35440, Note_on_c, 1, 44, 127
2, 35800, Note_off_c, 1, 44, 0
2, 35880, Note_on_c, 1, 51, 127
2, 36240, Note_off_c, 1, 51, 0
2, 36280, Note_on_c, 1, 49, 127
2, 36640, Note_off_c, 1, 49, 0
2, 36680, Note_on_c, 1, 54, 127
2, 37040, Note_off_c, 1, 54, 0
2, 37080, Note_on_c, 1, 56, 127
2, 37400, Note_off_c, 1, 56, 0
2, 37440, Note_on_c, 1, 54, 127
2, 37800, Note_off_c, 1, 54, 0
2, 37840, Note_on_c, 1, 47, 127
2, 37960, Note_off_c, 1, 47, 0
2, 38000, Note_on_c, 1, 47, 127
2, 38240, Note_off_c, 1, 47, 0
2, 38280, Note_on_c, 1, 51, 127
2, 38640, Note_off_c, 1, 51, 0
2, 38680, Note_on_c, 1, 54, 127
2, 39440, Note_off_c, 1, 54, 0
2, 39480, Note_on_c, 1, 59, 127
2, 39840, Note_off_c, 1, 59, 0
2, 39880, Note_on_c, 1, 54, 127
2, 40080, Note_off_c, 1, 54, 0
2, 40120, Note_on_c, 1, 54, 127
2, 40640, Note_off_c, 1, 54, 0
2, 40680, Note_on_c, 1, 47, 127
2, 41040, Note_off_c, 1, 47, 0
2, 41080, Note_on_c, 1, 53, 127
2, 41440, Note_off_c, 1, 53, 0
2, 41480, Note_on_c, 1, 54, 127
2, 41840, Note_off_c, 1, 54, 0
2, 41880, Note_on_c, 1, 56, 127
2, 42280, Note_off_c, 1, 56, 0
2, 42320, Note_on_c, 1, 56, 127
2, 43800, Note_on_c, 1, 54, 127
2, 43800, Note_off_c, 1, 56, 0
2, 44160, Note_off_c, 1, 54, 0
2, 44200, Note_on_c, 1, 47, 127
2, 44400, Note_off_c, 1, 47, 0
2, 44440, Note_on_c, 1, 47, 127
2, 44560, Note_off_c, 1, 47, 0
2, 44600, Note_on_c, 1, 51, 127
2, 44960, Note_off_c, 1, 51, 0
2, 45000, Note_on_c, 1, 54, 127
2, 46160, Note_off_c, 1, 54, 0
2, 46200, Note_on_c, 1, 56, 127
2, 46600, Note_off_c, 1, 56, 0
2, 46640, Note_on_c, 1, 56, 127
2, 47680, Note_off_c, 1, 56, 0
2, 47720, Note_on_c, 1, 59, 127
2, 48080, Note_off_c, 1, 59, 0
2, 48120, Note_on_c, 1, 53, 127
2, 48480, Note_off_c, 1, 53, 0
2, 48520, Note_on_c, 1, 54, 127
2, 48840, Note_off_c, 1, 54, 0
2, 48880, Note_on_c, 1, 54, 127
2, 48920, Note_off_c, 1, 54, 0
2, 48960, Note_on_c, 1, 59, 127
2, 49320, Note_off_c, 1, 59, 0
2, 49360, Note_on_c, 1, 56, 127
2, 49720, Note_off_c, 1, 56, 0
2, 49760, Note_on_c, 1, 59, 127
2, 50120, Note_off_c, 1, 59, 0
2, 50160, Note_on_c, 1, 54, 127
2, 50520, Note_off_c, 1, 54, 0
2, 50560, Note_on_c, 1, 49, 127
2, 50920, Note_off_c, 1, 49, 0
2, 51000, Note_on_c, 1, 47, 127
2, 51360, Note_off_c, 1, 47, 0
2, 51400, Note_on_c, 1, 46, 127
2, 51760, Note_off_c, 1, 46, 0
2, 51800, Note_on_c, 1, 47, 127
2, 52160, Note_off_c, 1, 47, 0
2, 52200, Note_on_c, 1, 47, 127
2, 52920, Note_off_c, 1, 47, 0
2, 52960, Note_on_c, 1, 47, 127
2, 53000, Note_off_c, 1, 47, 0
2, 53040, Note_on_c, 1, 54, 127
2, 53400, Note_off_c, 1, 54, 0
2, 53440, Note_on_c, 1, 59, 127
2, 53800, Note_off_c, 1, 59, 0
2, 53840, Note_on_c, 1, 54, 127
2, 54160, Note_off_c, 1, 54, 0
2, 54240, Note_on_c, 1, 51, 127
2, 54600, Note_off_c, 1, 51, 0
2, 54640, Note_on_c, 1, 54, 127
2, 55000, Note_off_c, 1, 54, 0
2, 55080, Note_on_c, 1, 52, 127
2, 55440, Note_off_c, 1, 52, 0
2, 55480, Note_on_c, 1, 47, 127
2, 55840, Note_off_c, 1, 47, 0
2, 55880, Note_on_c, 1, 39, 127
2, 56240, Note_off_c, 1, 39, 0
2, 56280, Note_on_c, 1, 47, 127
2, 56640, Note_off_c, 1, 47, 0
2, 56680, Note_on_c, 1, 49, 127
2, 57040, Note_off_c, 1, 49, 0
2, 57120, Note_on_c, 1, 59, 127
2, 57480, Note_off_c, 1, 59, 0
2, 57520, Note_on_c, 1, 52, 127
2, 57880, Note_off_c, 1, 52, 0
2, 57920, Note_on_c, 1, 59, 127
2, 58280, Note_off_c, 1, 59, 0
2, 58320, Note_on_c, 1, 51, 127
2, 58680, Note_off_c, 1, 51, 0
2, 58720, Note_on_c, 1, 47, 127
2, 59080, Note_off_c, 1, 47, 0
2, 59160, Note_on_c, 1, 38, 127
2, 59520, Note_off_c, 1, 38, 0
2, 59560, Note_on_c, 1, 40, 127
2, 59920, Note_off_c, 1, 40, 0
2, 59960, Note_on_c, 1, 47, 127
2, 60320, Note_off_c, 1, 47, 0
2, 60360, Note_on_c, 1, 52, 127
2, 60720, Note_off_c, 1, 52, 0
2, 60760, Note_on_c, 1, 59, 127
2, 61120, Note_off_c, 1, 59, 0
2, 61200, Note_on_c, 1, 50, 127
2, 61560, Note_off_c, 1, 50, 0
2, 61600, Note_on_c, 1, 59, 127
2, 61960, Note_off_c, 1, 59, 0
2, 62000, Note_on_c, 1, 47, 127
2, 62360, Note_off_c, 1, 47, 0
2, 62400, Note_on_c, 1, 40, 127
2, 62760, Note_off_c, 1, 40, 0
2, 62800, Note_on_c, 1, 47, 127
2, 63120, Note_off_c, 1, 47, 0
2, 63160, Note_on_c, 1, 47, 127
2, 63200, Note_off_c, 1, 47, 0
2, 63240, Note_on_c, 1, 40, 127
2, 63600, Note_off_c, 1, 40, 0
2, 63640, Note_on_c, 1, 47, 127
2, 64000, Note_off_c, 1, 47, 0
2, 64040, Note_on_c, 1, 40, 127
2, 64400, Note_off_c, 1, 40, 0
2, 64440, Note_on_c, 1, 47, 127
2, 64800, Note_off_c, 1, 47, 0
2, 64840, Note_on_c, 1, 52, 127
2, 65240, Note_off_c, 1, 52, 0
2, 65280, Note_on_c, 1, 52, 127
2, 65640, Note_off_c, 1, 52, 0
2, 65680, Note_on_c, 1, 47, 127
2, 66000, Note_off_c, 1, 47, 0
2, 66080, Note_on_c, 1, 47, 127
2, 66440, Note_off_c, 1, 47, 0
2, 66480, Note_on_c, 1, 52, 127
2, 66840, Note_off_c, 1, 52, 0
2, 66880, Note_on_c, 1, 59, 127
2, 67200, Note_on_c, 1, 52, 127
2, 67200, Note_off_c, 1, 59, 0
2, 67240, Note_off_c, 1, 52, 0
2, 67320, Note_on_c, 1, 52, 127
2, 67680, Note_off_c, 1, 52, 0
2, 67720, Note_on_c, 1, 47, 127
2, 68080, Note_off_c, 1, 47, 0
2, 68120, Note_on_c, 1, 52, 127
2, 68480, Note_off_c, 1, 52, 0
2, 68520, Note_on_c, 1, 59, 127
2, 68880, Note_off_c, 1, 59, 0
2, 68920, Note_on_c, 1, 52, 127
2, 69280, Note_off_c, 1, 52, 0
2, 69360, Note_on_c, 1, 47, 127
2, 69720, Note_off_c, 1, 47, 0
2, 69760, Note_on_c, 1, 40, 127
2, 70120, Note_off_c, 1, 40, 0
2, 70160, Note_on_c, 1, 47, 127
2, 70520, Note_off_c, 1, 47, 0
2, 70560, Note_on_c, 1, 52, 127
2, 70920, Note_off_c, 1, 52, 0
2, 70960, Note_on_c, 1, 59, 127
2, 71280, Note_off_c, 1, 59, 0
2, 71320, Note_on_c, 1, 40, 127
2, 71360, Note_off_c, 1, 40, 0
2, 71400, Note_on_c, 1, 40, 127
2, 71720, Note_off_c, 1, 40, 0
2, 71760, Note_on_c, 1, 47, 127
2, 72120, Note_off_c, 1, 47, 0
2, 72160, Note_on_c, 1, 40, 127
2, 72520, Note_off_c, 1, 40, 0
2, 72560, Note_on_c, 1, 47, 127
2, 72920, Note_off_c, 1, 47, 0
2, 72960, Note_on_c, 1, 40, 127
2, 73320, Note_off_c, 1, 40, 0
2, 73360, Note_on_c, 1, 47, 127
2, 73640, Note_off_c, 1, 47, 0
2, 73680, Note_on_c, 1, 47, 127
2, 73760, Note_off_c, 1, 47, 0
2, 73800, Note_on_c, 1, 40, 127
2, 74160, Note_off_c, 1, 40, 0
2, 74200, Note_on_c, 1, 47, 127
2, 74560, Note_off_c, 1, 47, 0
2, 74600, Note_on_c, 1, 40, 127
2, 74960, Note_off_c, 1, 40, 0
2, 75000, Note_on_c, 1, 47, 127
2, 75360, Note_off_c, 1, 47, 0
2, 75400, Note_on_c, 1, 45, 127
2, 75760, Note_off_c, 1, 45, 0
2, 75840, Note_on_c, 1, 47, 127
2, 76160, Note_off_c, 1, 47, 0
2, 76200, Note_on_c, 1, 52, 127
2, 76560, Note_off_c, 1, 52, 0
2, 76600, Note_on_c, 1, 59, 127
2, 76960, Note_off_c, 1, 59, 0
2, 77000, Note_on_c, 1, 52, 127
2, 77320, Note_off_c, 1, 52, 0
2, 77360, Note_on_c, 1, 57, 127
2, 77960, Note_off_c, 1, 57, 0
2, 78000, Note_on_c, 1, 57, 127
2, 78160, Note_off_c, 1, 57, 0
2, 78200, Note_on_c, 1, 59, 127
2, 78560, Note_off_c, 1, 59, 0
2, 78600, Note_on_c, 1, 52, 127
2, 78960, Note_off_c, 1, 52, 0
2, 79000, Note_on_c, 1, 47, 127
2, 79320, Note_off_c, 1, 47, 0
2, 79360, Note_on_c, 1, 40, 127
2, 79720, Note_off_c, 1, 40, 0
2, 79760, Note_on_c, 1, 47, 127
2, 80040, Note_off_c, 1, 47, 0
2, 80080, Note_on_c, 1, 47, 127
2, 80160, Note_off_c, 1, 47, 0
2, 80200, Note_on_c, 1, 52, 127
2, 80560, Note_off_c, 1, 52, 0
2, 80600, Note_on_c, 1, 59, 127
2, 80960, Note_off_c, 1, 59, 0
2, 81000, Note_on_c, 1, 52, 127
2, 81360, Note_off_c, 1, 52, 0
2, 81400, Note_on_c, 1, 47, 127
2, 81760, Note_off_c, 1, 47, 0
2, 81800, Note_on_c, 1, 35, 127
2, 82160, Note_off_c, 1, 35, 0
2, 82240, Note_on_c, 1, 33, 127
2, 82400, Note_off_c, 1, 33, 0
2, 82400, Note_on_c, 1, 35, 127
2, 82520, Note_on_c, 1, 33, 127
2, 82520, Note_off_c, 1, 35, 0
2, 82560, Note_off_c, 1, 33, 0
2, 82560, Note_on_c, 1, 35, 127
2, 82600, Note_off_c, 1, 35, 0
2, 82640, Note_on_c, 1, 40, 127
2, 82960, Note_off_c, 1, 40, 0
2, 83000, Note_on_c, 1, 47, 127
2, 83360, Note_off_c, 1, 47, 0
2, 83400, Note_on_c, 1, 52, 127
2, 83760, Note_off_c, 1, 52, 0
2, 83800, Note_on_c, 1, 59, 127
2, 84120, Note_off_c, 1, 59, 0
2, 84160, Note_on_c, 1, 52, 127
2, 84240, Note_off_c, 1, 52, 0
2, 84280, Note_on_c, 1, 52, 127
2, 84560, Note_off_c, 1, 52, 0
2, 84600, Note_on_c, 1, 59, 127
2, 84960, Note_off_c, 1, 59, 0
2, 85000, Note_on_c, 1, 52, 127
2, 85360, Note_off_c, 1, 52, 0
2, 85400, Note_on_c, 1, 47, 127
2, 85760, Note_off_c, 1, 47, 0
2, 85800, Note_on_c, 1, 52, 127
2, 86120, Note_off_c, 1, 52, 0
2, 86160, Note_on_c, 1, 40, 127
2, 86480, Note_off_c, 1, 40, 0
2, 86520, Note_on_c, 1, 40, 127
2, 86560, Note_off_c, 1, 40, 0
2, 86600, Note_on_c, 1, 47, 127
2, 86960, Note_off_c, 1, 47, 0
2, 87000, Note_on_c, 1, 40, 127
2, 87360, Note_off_c, 1, 40, 0
2, 87400, Note_on_c, 1, 47, 127
2, 87760, Note_off_c, 1, 47, 0
2, 87800, Note_on_c, 1, 52, 127
2, 88160, Note_off_c, 1, 52, 0
2, 88200, Note_on_c, 1, 59, 127
2, 88560, Note_off_c, 1, 59, 0
2, 88640, Note_on_c, 1, 52, 127
2, 89400, Note_off_c, 1, 52, 0
2, 89440, Note_on_c, 1, 47, 127
2, 89800, Note_off_c, 1, 47, 0
2, 89840, Note_on_c, 1, 40, 127
2, 90200, Note_off_c, 1, 40, 0
2, 90240, Note_on_c, 1, 47, 127
2, 90600, Note_off_c, 1, 47, 0
2, 90640, Note_on_c, 1, 52, 127
2, 90840, Note_off_c, 1, 52, 0
2, 90880, Note_on_c, 1, 52, 127
2, 91000, Note_off_c, 1, 52, 0
2, 91040, Note_on_c, 1, 47, 127
2, 91400, Note_off_c, 1, 47, 0
2, 91440, Note_on_c, 1, 52, 127
2, 91800, Note_off_c, 1, 52, 0
2, 91840, Note_on_c, 1, 47, 127
2, 92200, Note_off_c, 1, 47, 0
2, 92240, Note_on_c, 1, 52, 127
2, 92600, Note_off_c, 1, 52, 0
2, 92640, Note_on_c, 1, 59, 127
2, 92920, Note_off_c, 1, 59, 0
2, 92960, Note_on_c, 1, 59, 127
2, 93040, Note_off_c, 1, 59, 0
2, 93080, Note_on_c, 1, 52, 127
2, 93400, Note_off_c, 1, 52, 0
2, 93440, Note_on_c, 1, 47, 127
2, 93800, Note_off_c, 1, 47, 0
2, 93840, Note_on_c, 1, 52, 127
2, 94200, Note_off_c, 1, 52, 0
2, 94240, Note_on_c, 1, 59, 127
2, 94600, Note_off_c, 1, 59, 0
2, 94640, Note_on_c, 1, 52, 127
2, 95000, Note_off_c, 1, 52, 0
2, 95080, Note_on_c, 1, 47, 127
2, 95440, Note_off_c, 1, 47, 0
2, 95480, Note_on_c, 1, 40, 127
2, 96240, Note_off_c, 1, 40, 0
2, 96280, Note_on_c, 1, 47, 127
2, 96640, Note_off_c, 1, 47, 0
2, 96680, Note_on_c, 1, 40, 127
2, 96680, Note_on_c, 1, 47, 127
2, 97040, Note_off_c, 1, 40, 0
2, 97040, Note_off_c, 1, 47, 0
2, 97080, Note_on_c, 1, 40, 127
2, 97080, Note_on_c, 1, 47, 127
2, 98960, Note_off_c, 1, 47, 0
2, 99040, Note_off_c, 1, 40, 0
2, 99080, Note_on_c, 1, 40, 127
2, 99120, Note_off_c, 1, 40, 0
2, 99160, Note_on_c, 1, 40, 127
2, 99520, Note_off_c, 1, 40, 0
2, 99560, Note_on_c, 1, 47, 127
2, 99920, Note_off_c, 1, 47, 0
2, 99960, Note_on_c, 1, 55, 127
2, 100320, Note_off_c, 1, 55, 0
2, 100360, Note_on_c, 1, 59, 127
2, 100720, Note_off_c, 1, 59, 0
2, 100760, Note_on_c, 1, 56, 127
2, 101120, Note_off_c, 1, 56, 0
2, 101200, Note_on_c, 1, 55, 127
2, 101560, Note_off_c, 1, 55, 0
2, 101600, Note_on_c, 1, 59, 127
2, 101960, Note_off_c, 1, 59, 0
2, 102000, Note_on_c, 1, 57, 127
2, 102360, Note_off_c, 1, 57, 0
2, 102400, Note_on_c, 1, 59, 127
2, 102760, Note_off_c, 1, 59, 0
2, 102800, Note_on_c, 1, 52, 127
2, 103160, Note_off_c, 1, 52, 0
2, 103240, Note_on_c, 1, 47, 127
2, 103600, Note_off_c, 1, 47, 0
2, 103640, Note_on_c, 1, 52, 127
2, 104000, Note_off_c, 1, 52, 0
2, 104040, Note_on_c, 1, 59, 127
2, 104360, Note_off_c, 1, 59, 0
2, 104400, Note_on_c, 1, 52, 127
2, 104760, Note_off_c, 1, 52, 0
2, 104800, Note_on_c, 1, 57, 127
2, 105160, Note_off_c, 1, 57, 0
2, 105240, Note_on_c, 1, 52, 127
2, 105600, Note_off_c, 1, 52, 0
2, 105640, Note_on_c, 1, 47, 127
2, 106000, Note_off_c, 1, 47, 0
2, 106040, Note_on_c, 1, 40, 127
2, 106360, Note_off_c, 1, 40, 0
2, 106400, Note_on_c, 1, 47, 127
2, 106760, Note_off_c, 1, 47, 0
2, 106800, Note_on_c, 1, 40, 127
2, 106800, Note_on_c, 1, 67, 127
2, 107160, Note_off_c, 1, 40, 0
2, 107200, Note_off_c, 1, 67, 0
2, 107240, Note_on_c, 1, 67, 127
2, 107600, Note_off_c, 1, 67, 0
2, 107640, Note_on_c, 1, 43, 127
2, 107640, Note_on_c, 1, 64, 127
2, 108000, Note_off_c, 1, 64, 0
2, 108040, Note_on_c, 1, 64, 127
2, 108400, Note_off_c, 1, 43, 0
2, 108400, Note_off_c, 1, 64, 0
2, 108440, Note_on_c, 1, 40, 127
2, 108440, Note_on_c, 1, 67, 127
2, 108800, Note_off_c, 1, 40, 0
2, 108840, Note_on_c, 1, 55, 127
2, 109200, Note_off_c, 1, 55, 0
2, 109240, Note_off_c, 1, 67, 0
2, 109280, Note_on_c, 1, 52, 127
2, 109280, Note_on_c, 1, 67, 127
2, 109640, Note_off_c, 1, 52, 0
2, 109640, Note_off_c, 1, 67, 0
2, 109680, Note_on_c, 1, 50, 127
2, 109680, Note_on_c, 1, 66, 127
2, 110040, Note_off_c, 1, 50, 0
2, 110080, Note_on_c, 1, 54, 127
2, 110440, Note_off_c, 1, 54, 0
2, 110480, Note_on_c, 1, 48, 127
2, 110840, Note_off_c, 1, 48, 0
2, 110880, Note_on_c, 1, 50, 127
2, 110880, Note_on_c, 1, 60, 127
2, 111240, Note_off_c, 1, 50, 0
2, 111240, Note_off_c, 1, 60, 0
2, 111240, Note_off_c, 1, 66, 0
2, 111320, Note_on_c, 1, 43, 127
2, 111320, Note_on_c, 1, 71, 127
2, 112080, Note_off_c, 1, 43, 0
2, 112120, Note_on_c, 1, 55, 127
2, 112280, Note_off_c, 1, 55, 0
2, 112320, Note_on_c, 1, 59, 127
2, 112480, Note_off_c, 1, 59, 0
2, 112520, Note_on_c, 1, 77, 127
2, 112680, Note_off_c, 1, 77, 0
2, 112720, Note_on_c, 1, 77, 127
2, 112880, Note_off_c, 1, 77, 0
2, 112920, Note_on_c, 1, 39, 127
2, 112920, Note_on_c, 1, 83, 127
2, 113280, Note_off_c, 1, 39, 0
2, 113280, Note_on_c, 1, 47, 127
2, 113280, Note_off_c, 1, 83, 0
2, 113320, Note_off_c, 1, 47, 0
2, 113320, Note_off_c, 1, 71, 0
2, 113360, Note_on_c, 1, 47, 127
2, 113360, Note_on_c, 1, 72, 127
2, 113680, Note_off_c, 1, 47, 0
2, 113720, Note_off_c, 1, 72, 0
2, 113760, Note_on_c, 1, 74, 127
2, 113760, Note_on_c, 1, 83, 127
2, 114120, Note_off_c, 1, 83, 0
2, 114160, Note_on_c, 1, 80, 127
2, 114520, Note_off_c, 1, 74, 0
2, 114520, Note_off_c, 1, 80, 0
2, 114560, Note_on_c, 1, 36, 127
2, 114560, Note_on_c, 1, 79, 127
2, 114920, Note_off_c, 1, 36, 0
2, 114960, Note_on_c, 1, 48, 127
2, 115320, Note_off_c, 1, 48, 0
2, 115360, Note_off_c, 1, 79, 0
2, 115400, Note_on_c, 1, 40, 127
2, 115400, Note_on_c, 1, 79, 127
2, 115760, Note_off_c, 1, 40, 0
2, 115800, Note_on_c, 1, 47, 127
2, 116120, Note_off_c, 1, 47, 0
2, 116200, Note_on_c, 1, 55, 127
2, 116360, Note_off_c, 1, 79, 0
2, 116400, Note_on_c, 1, 78, 127
2, 116560, Note_off_c, 1, 55, 0
2, 116560, Note_off_c, 1, 78, 0
2, 116600, Note_on_c, 1, 67, 127
2, 116600, Note_on_c, 1, 77, 127
2, 116960, Note_off_c, 1, 67, 0
2, 117000, Note_on_c, 1, 55, 127
2, 117360, Note_off_c, 1, 55, 0
2, 117400, Note_off_c, 1, 77, 0
2, 117440, Note_on_c, 1, 67, 127
2, 117440, Note_on_c, 1, 77, 127
2, 117800, Note_off_c, 1, 67, 0
2, 117840, Note_on_c, 1, 47, 127
2, 117840, Note_on_c, 1, 65, 127
2, 117840, Note_on_c, 1, 76, 127
2, 117840, Note_off_c, 1, 77, 0
2, 118040, Note_on_c, 1, 55, 127
2, 118200, Note_off_c, 1, 55, 0
2, 118200, Note_off_c, 1, 76, 0
2, 118240, Note_on_c, 1, 55, 127
2, 118240, Note_on_c, 1, 76, 127
2, 118600, Note_off_c, 1, 55, 0
2, 118600, Note_off_c, 1, 76, 0
2, 118640, Note_on_c, 1, 55, 127
2, 118640, Note_on_c, 1, 74, 127
2, 119000, Note_off_c, 1, 47, 0
2, 119000, Note_off_c, 1, 55, 0
2, 119000, Note_off_c, 1, 65, 0
2, 119000, Note_off_c, 1, 74, 0
2, 119040, Note_on_c, 1, 48, 127
2, 119040, Note_on_c, 1, 52, 127
2, 119040, Note_on_c, 1, 69, 127
2, 119280, Note_off_c, 1, 69, 0
2, 119280, Note_on_c, 1, 72, 127
2, 119400, Note_off_c, 1, 72, 0
2, 119440, Note_on_c, 1, 70, 127
2, 119520, Note_off_c, 1, 48, 0
2, 119520, Note_off_c, 1, 52, 0
2, 119520, Note_off_c, 1, 70, 0
2, 119560, Note_on_c, 1, 48, 127
2, 119560, Note_on_c, 1, 52, 127
2, 119560, Note_on_c, 1, 70, 127
2, 119800, Note_off_c, 1, 48, 0
2, 119800, Note_on_c, 1, 67, 127
2, 119800, Note_off_c, 1, 70, 0
2, 119840, Note_off_c, 1, 52, 0
2, 119840, Note_off_c, 1, 67, 0
2, 119840, Note_on_c, 1, 70, 127
2, 119880, Note_on_c, 1, 46, 127
2, 119880, Note_on_c, 1, 60, 127
2, 120000, Note_off_c, 1, 46, 0
2, 120000, Note_off_c, 1, 60, 0
2, 120000, Note_off_c, 1, 70, 0
2, 120040, End_track
3, 0, Start_track
3, 0, Title_t, "MIDI"
3, 1536, End_track
0, 0, End_of_file
