0, 0, Header, 1, 3, 192
1, 0, Start_track
1, 0, Time_signature, 4, 2, 24, 8
1, 0, Tempo, 500000
1, 120040, End_track
2, 0, Start_track
2, 0, Text_t, "random instrument: random person i dunno whatev"
2, 0, Title_t, "Track 1"
2, 0, Note_on_c, 1, 34, 127
2, 0, Note_on_c, 1, 53, 127
2, 0, Note_on_c, 1, 56, 127
2, 0, Note_on_c, 1, 62, 127
2, 40, Note_off_c, 1, 34, 0
2, 40, Note_off_c, 1, 53, 0
2, 40, Note_off_c, 1, 56, 0
2, 40, Note_off_c, 1, 62, 0
2, 40, Note_on_c, 1, 67, 127
2, 40, Note_on_c, 1, 76, 127
2, 40, Note_on_c, 1, 79, 127
2, 40, Note_on_c, 1, 85, 127
2, 40, Note_on_c, 1, 88, 127
2, 80, Note_off_c, 1, 67, 0
2, 80, Note_off_c, 1, 76, 0
2, 80, Note_off_c, 1, 79, 0
2, 80, Note_off_c, 1, 85, 0
2, 80, Note_off_c, 1, 88, 0
2, 120, Note_on_c, 1, 34, 127
2, 120, Note_on_c, 1, 53, 127
2, 120, Note_on_c, 1, 56, 127
2, 120, Note_on_c, 1, 62, 127
2, 160, Note_off_c, 1, 34, 0
2, 160, Note_on_c, 1, 43, 127
2, 160, Note_on_c, 1, 47, 127
2, 160, Note_off_c, 1, 53, 0
2, 160, Note_on_c, 1, 55, 127
2, 160, Note_off_c, 1, 56, 0
2, 160, Note_off_c, 1, 62, 0
2, 160, Note_on_c, 1, 79, 127
2, 160, Note_on_c, 1, 83, 127
2, 160, Note_on_c, 1, 87, 127
2, 160, Note_on_c, 1, 91, 127
2, 200, Note_on_c, 1, 34, 127
2, 200, Note_off_c, 1, 43, 0
2, 200, Note_off_c, 1, 47, 0
2, 200, Note_on_c, 1, 53, 127
2, 200, Note_off_c, 1, 55, 0
2, 200, Note_on_c, 1, 56, 127
2, 200, Note_on_c, 1, 62, 127
2, 200, Note_off_c, 1, 79, 0
2, 200, Note_off_c, 1, 83, 0
2, 200, Note_off_c, 1, 87, 0
2, 200, Note_off_c, 1, 91, 0
2, 680, Note_off_c, 1, 34, 0
2, 680, Note_off_c, 1, 53, 0
2, 680, Note_off_c, 1, 56, 0
2, 680, Note_off_c, 1, 62, 0
2, 5240, Note_on_c, 1, 43, 127
2, 5240, Note_on_c, 1, 50, 127
2, 5240, Note_on_c, 1, 60, 127
2, 5240, Note_on_c, 1, 62, 127
2, 5240, Note_on_c, 1, 69, 127
2, 5600, Note_off_c, 1, 43, 0
2, 5600, Note_off_c, 1, 50, 0
2, 5600, Note_off_c, 1, 60, 0
2, 5600, Note_off_c, 1, 62, 0
2, 5600, Note_off_c, 1, 69, 0
2, 5640, Note_on_c, 1, 40, 127
2, 5640, Note_on_c, 1, 52, 127
2, 5640, Note_on_c, 1, 55, 127
2, 5640, Note_on_c, 1, 64, 127
2, 6040, Note_off_c, 1, 40, 0
2, 6040, Note_off_c, 1, 52, 0
2, 6040, Note_off_c, 1, 55, 0
2, 6040, Note_off_c, 1, 64, 0
2, 7560, Note_on_c, 1, 51, 127
2, 7560, Note_on_c, 1, 54, 127
2, 7560, Note_on_c, 1, 59, 127
2, 7880, Note_off_c, 1, 51, 0
2, 7880, Note_off_c, 1, 54, 0
2, 7880, Note_off_c, 1, 59, 0
2, 7920, Note_on_c, 1, 51, 127
2, 7920, Note_on_c, 1, 54, 127
2, 7920, Note_on_c, 1, 59, 127
2, 8360, Note_off_c, 1, 51, 0
2, 8360, Note_off_c, 1, 54, 0
2, 8360, Note_off_c, 1, 59, 0
2, 10640, Note_on_c, 1, 58, 127
2, 10720, Note_off_c, 1, 58, 0
2, 10760, Note_on_c, 1, 55, 127
2, 10800, Note_off_c, 1, 55, 0
2, 10800, Note_on_c, 1, 58, 127
2, 10840, Note_off_c, 1, 58, 0
2, 10880, Note_on_c, 1, 58, 127
2, 11040, Note_off_c, 1, 58, 0
2, 11080, Note_on_c, 1, 53, 127
2, 11440, Note_off_c, 1, 53, 0
2, 11480, Note_on_c, 1, 46, 127
2, 11840, Note_off_c, 1, 46, 0
2, 11880, Note_on_c, 1, 46, 127
2, 12240, Note_off_c, 1, 46, 0
2, 12280, Note_on_c, 1, 53, 127
2, 12640, Note_off_c, 1, 53, 0
2, 12680, Note_on_c, 1, 46, 127
2, 12840, Note_off_c, 1, 46, 0
2, 12880, Note_on_c, 1, 46, 127
2, 13080, Note_off_c, 1, 46, 0
2, 13120, Note_on_c, 1, 46, 127
2, 13480, Note_off_c, 1, 46, 0
2, 13520, Note_on_c, 1, 46, 127
2, 13840, Note_off_c, 1, 46, 0
2, 13920, Note_on_c, 1, 46, 127
2, 14280, Note_off_c, 1, 46, 0
2, 14320, Note_on_c, 1, 46, 127
2, 14680, Note_off_c, 1, 46, 0
2, 14720, Note_on_c, 1, 51, 127
2, 14920, Note_off_c, 1, 51, 0
2, 14960, Note_on_c, 1, 51, 127
2, 15080, Note_off_c, 1, 51, 0
2, 15120, Note_on_c, 1, 49, 127
2, 15480, Note_off_c, 1, 49, 0
2, 15520, Note_on_c, 1, 46, 127
2, 15840, Note_off_c, 1, 46, 0
2, 15920, Note_on_c, 1, 51, 127
2, 16240, Note_off_c, 1, 51, 0
2, 16320, Note_on_c, 1, 58, 127
2, 16640, Note_off_c, 1, 58, 0
2, 16680, Note_on_c, 1, 53, 127
2, 16960, Note_off_c, 1, 53, 0
2, 17000, Note_on_c, 1, 53, 127
2, 17080, Note_off_c, 1, 53, 0
2, 17120, Note_on_c, 1, 51, 127
2, 17440, Note_off_c, 1, 51, 0
2, 17480, Note_on_c, 1, 46, 127
2, 17840, Note_off_c, 1, 46, 0
2, 17880, Note_on_c, 1, 53, 127
2, 18240, Note_off_c, 1, 53, 0
2, 18280, Note_on_c, 1, 46, 127
2, 18600, Note_off_c, 1, 46, 0
2, 18640, Note_on_c, 1, 39, 127
2, 19000, Note_off_c, 1, 39, 0
2, 19080, Note_on_c, 1, 46, 127
2, 19440, Note_off_c, 1, 46, 0
2, 19480, Note_on_c, 1, 51, 127
2, 19840, Note_off_c, 1, 51, 0
2, 19880, Note_on_c, 1, 53, 127
2, 20240, Note_off_c, 1, 53, 0
2, 20280, Note_on_c, 1, 51, 127
2, 20640, Note_off_c, 1, 51, 0
2, 20680, Note_on_c, 1, 46, 127
2, 21000, Note_off_c, 1, 46, 0
2, 21120, Note_on_c, 1, 51, 127
2, 21120, Note_on_c, 1, 58, 127
2, 21120, Note_on_c, 1, 63, 127
2, 21120, Note_on_c, 1, 67, 127
2, 21120, Note_on_c, 1, 70, 127
2, 21880, Note_off_c, 1, 51, 0
2, 21880, Note_off_c, 1, 58, 0
2, 21880, Note_off_c, 1, 63, 0
2, 21880, Note_off_c, 1, 67, 0
2, 21880, Note_off_c, 1, 70, 0
2, 21920, Note_on_c, 1, 51, 127
2, 21920, Note_on_c, 1, 58, 127
2, 21920, Note_on_c, 1, 63, 127
2, 21920, Note_on_c, 1, 67, 127
2, 21920, Note_on_c, 1, 70, 127
2, 21920, Note_on_c, 1, 75, 127
2, 23080, Note_off_c, 1, 51, 0
2, 23080, Note_off_c, 1, 58, 0
2, 23080, Note_off_c, 1, 63, 0
2, 23080, Note_off_c, 1, 67, 0
2, 23080, Note_off_c, 1, 70, 0
2, 23080, Note_off_c, 1, 75, 0
2, 23560, Note_on_c, 1, 39, 127
2, 23560, Note_on_c, 1, 51, 127
2, 23560, Note_on_c, 1, 63, 127
2, 25160, Note_off_c, 1, 39, 0
2, 25160, Note_off_c, 1, 51, 0
2, 25160, Note_off_c, 1, 63, 0
2, 25240, Note_on_c, 1, 35, 127
2, 25240, Note_on_c, 1, 47, 127
2, 25240, Note_on_c, 1, 59, 127
2, 25800, Note_off_c, 1, 35, 0
2, 25800, Note_off_c, 1, 47, 0
2, 25800, Note_off_c, 1, 59, 0
2, 28720, Note_on_c, 1, 58, 127
2, 28800, Note_off_c, 1, 58, 0
2, 28840, Note_on_c, 1, 59, 127
2, 28920, Note_off_c, 1, 59, 0
2, 28960, Note_on_c, 1, 56, 127
2, 29360, Note_off_c, 1, 56, 0
2, 29360, Note_on_c, 1, 59, 127
2, 29760, Note_off_c, 1, 59, 0
2, 29760, Note_on_c, 1, 60, 127
2, 30440, Note_off_c, 1, 60, 0
2, 30480, Note_on_c, 1, 60, 127
2, 31600, Note_off_c, 1, 60, 0
2, 31640, Note_on_c, 1, 56, 127
2, 31920, Note_off_c, 1, 56, 0
2, 31960, Note_on_c, 1, 55, 127
2, 33120, Note_off_c, 1, 55, 0
2, 33200, Note_on_c, 1, 48, 127
2, 33560, Note_off_c, 1, 48, 0
2, 33600, Note_on_c, 1, 48, 127
2, 34360, Note_off_c, 1, 48, 0
2, 34400, Note_on_c, 1, 48, 127
2, 34760, Note_off_c, 1, 48, 0
2, 34800, Note_on_c, 1, 48, 127
2, 35160, Note_off_c, 1, 48, 0
2, 35240, Note_on_c, 1, 48, 127
2, 35600, Note_off_c, 1, 48, 0
2, 35640, Note_on_c, 1, 59, 127
2, 35880, Note_off_c, 1, 59, 0
2, 35920, Note_on_c, 1, 60, 127
2, 36000, Note_off_c, 1, 60, 0
2, 36040, Note_on_c, 1, 45, 127
2, 36360, Note_off_c, 1, 45, 0
2, 36400, Note_on_c, 1, 44, 127
2, 36760, Note_off_c, 1, 44, 0
2, 36800, Note_on_c, 1, 47, 127
2, 37160, Note_off_c, 1, 47, 0
2, 37200, Note_on_c, 1, 48, 127
2, 37320, Note_off_c, 1, 48, 0
2, 37360, Note_on_c, 1, 48, 127
2, 37600, Note_off_c, 1, 48, 0
2, 37640, Note_on_c, 1, 48, 127
2, 38000, Note_off_c, 1, 48, 0
2, 38040, Note_on_c, 1, 45, 127
2, 38400, Note_off_c, 1, 45, 0
2, 38440, Note_on_c, 1, 48, 127
2, 38800, Note_off_c, 1, 48, 0
2, 38840, Note_on_c, 1, 47, 127
2, 39200, Note_off_c, 1, 47, 0
2, 39240, Note_on_c, 1, 48, 127
2, 39480, Note_off_c, 1, 48, 0
2, 39520, Note_on_c, 1, 48, 127
2, 39600, Note_off_c, 1, 48, 0
2, 39640, Note_on_c, 1, 50, 127
2, 40000, Note_off_c, 1, 50, 0
2, 40040, Note_on_c, 1, 56, 127
2, 40400, Note_off_c, 1, 56, 0
2, 40440, Note_on_c, 1, 47, 127
2, 40440, Note_on_c, 1, 67, 127
2, 41160, Note_off_c, 1, 47, 0
2, 41160, Note_off_c, 1, 67, 0
2, 41200, Note_on_c, 1, 59, 127
2, 41200, Note_on_c, 1, 67, 127
2, 41560, Note_off_c, 1, 59, 0
2, 41560, Note_off_c, 1, 67, 0
2, 41600, Note_on_c, 1, 59, 127
2, 41600, Note_on_c, 1, 67, 127
2, 43240, Note_off_c, 1, 59, 0
2, 43240, Note_off_c, 1, 67, 0
2, 43280, Note_on_c, 1, 60, 127
2, 43280, Note_on_c, 1, 62, 127
2, 43680, Note_off_c, 1, 60, 0
2, 43680, Note_off_c, 1, 62, 0
2, 43720, Note_on_c, 1, 60, 127
2, 43720, Note_on_c, 1, 62, 127
2, 45640, Note_off_c, 1, 60, 0
2, 45640, Note_off_c, 1, 62, 0
2, 45680, Note_on_c, 1, 60, 127
2, 45680, Note_on_c, 1, 62, 127
2, 47600, Note_off_c, 1, 60, 0
2, 47600, Note_off_c, 1, 62, 0
2, 47640, Note_on_c, 1, 60, 127
2, 47640, Note_on_c, 1, 62, 127
2, 49720, Note_off_c, 1, 60, 0
2, 49720, Note_off_c, 1, 62, 0
2, 49760, Note_on_c, 1, 60, 127
2, 49760, Note_on_c, 1, 62, 127
2, 51840, Note_off_c, 1, 60, 0
2, 51840, Note_off_c, 1, 62, 0
2, 51880, Note_on_c, 1, 60, 127
2, 51880, Note_on_c, 1, 62, 127
2, 54120, Note_off_c, 1, 60, 0
2, 54120, Note_off_c, 1, 62, 0
2, 54160, Note_on_c, 1, 60, 127
2, 54160, Note_on_c, 1, 62, 127
2, 56160, Note_off_c, 1, 60, 0
2, 56160, Note_off_c, 1, 62, 0
2, 56200, Note_on_c, 1, 60, 127
2, 56200, Note_on_c, 1, 62, 127
2, 57880, Note_off_c, 1, 62, 0
2, 57920, Note_on_c, 1, 67, 127
2, 58080, Note_off_c, 1, 60, 0
2, 58080, Note_off_c, 1, 67, 0
2, 58160, Note_on_c, 1, 53, 127
2, 58160, Note_on_c, 1, 69, 127
2, 58360, Note_off_c, 1, 53, 0
2, 58360, Note_on_c, 1, 57, 127
2, 58360, Note_on_c, 1, 65, 127
2, 58360, Note_off_c, 1, 69, 0
2, 58560, Note_off_c, 1, 57, 0
2, 58560, Note_off_c, 1, 65, 0
2, 58600, Note_on_c, 1, 60, 127
2, 58600, Note_on_c, 1, 69, 127
2, 58800, Note_off_c, 1, 60, 0
2, 58800, Note_off_c, 1, 69, 0
2, 58840, Note_on_c, 1, 64, 127
2, 58840, Note_on_c, 1, 67, 127
2, 59720, Note_off_c, 1, 64, 0
2, 59720, Note_off_c, 1, 67, 0
2, 59760, Note_on_c, 1, 62, 127
2, 59760, Note_on_c, 1, 65, 127
2, 60240, Note_off_c, 1, 62, 0
2, 60240, Note_off_c, 1, 65, 0
2, 60280, Note_on_c, 1, 62, 127
2, 60280, Note_on_c, 1, 65, 127
2, 60480, Note_off_c, 1, 62, 0
2, 60480, Note_on_c, 1, 64, 127
2, 60480, Note_off_c, 1, 65, 0
2, 60480, Note_on_c, 1, 67, 127
2, 60720, Note_on_c, 1, 60, 127
2, 60720, Note_off_c, 1, 64, 0
2, 60960, Note_off_c, 1, 60, 0
2, 60960, Note_on_c, 1, 62, 127
2, 60960, Note_on_c, 1, 65, 127
2, 60960, Note_off_c, 1, 67, 0
2, 61200, Note_on_c, 1, 60, 127
2, 61200, Note_off_c, 1, 62, 0
2, 61200, Note_on_c, 1, 63, 127
2, 61200, Note_off_c, 1, 65, 0
2, 61400, Note_off_c, 1, 60, 0
2, 61400, Note_off_c, 1, 63, 0
2, 61440, Note_on_c, 1, 62, 127
2, 61440, Note_on_c, 1, 65, 127
2, 61680, Note_on_c, 1, 60, 127
2, 61680, Note_off_c, 1, 62, 0
2, 61680, Note_on_c, 1, 63, 127
2, 61680, Note_off_c, 1, 65, 0
2, 61880, Note_off_c, 1, 60, 0
2, 61880, Note_off_c, 1, 63, 0
2, 61920, Note_on_c, 1, 62, 127
2, 61920, Note_on_c, 1, 65, 127
2, 62160, Note_on_c, 1, 60, 127
2, 62160, Note_off_c, 1, 62, 0
2, 62160, Note_on_c, 1, 63, 127
2, 62160, Note_off_c, 1, 65, 0
2, 62360, Note_off_c, 1, 60, 0
2, 62360, Note_off_c, 1, 63, 0
2, 62440, Note_on_c, 1, 62, 127
2, 62440, Note_on_c, 1, 65, 127
2, 62640, Note_on_c, 1, 60, 127
2, 62640, Note_off_c, 1, 62, 0
2, 62640, Note_on_c, 1, 63, 127
2, 62640, Note_off_c, 1, 65, 0
2, 62880, Note_off_c, 1, 60, 0
2, 62880, Note_on_c, 1, 62, 127
2, 62880, Note_off_c, 1, 63, 0
2, 62880, Note_on_c, 1, 65, 127
2, 63080, Note_off_c, 1, 62, 0
2, 63080, Note_off_c, 1, 65, 0
2, 63120, Note_on_c, 1, 60, 127
2, 63120, Note_on_c, 1, 67, 127
2, 63360, Note_off_c, 1, 60, 0
2, 63360, Note_on_c, 1, 62, 127
2, 63360, Note_on_c, 1, 65, 127
2, 63360, Note_off_c, 1, 67, 0
2, 63600, Note_off_c, 1, 62, 0
2, 63600, Note_off_c, 1, 65, 0
2, 63600, Note_on_c, 1, 67, 127
2, 63600, Note_on_c, 1, 70, 127
2, 64080, Note_on_c, 1, 64, 127
2, 64080, Note_off_c, 1, 70, 0
2, 64280, Note_off_c, 1, 64, 0
2, 64280, Note_off_c, 1, 67, 0
2, 64360, Note_on_c, 1, 60, 127
2, 64360, Note_on_c, 1, 67, 127
2, 64520, Note_off_c, 1, 60, 0
2, 64520, Note_off_c, 1, 67, 0
2, 64560, Note_on_c, 1, 62, 127
2, 64560, Note_on_c, 1, 65, 127
2, 65040, Note_off_c, 1, 62, 0
2, 65040, Note_off_c, 1, 65, 0
2, 67200, Note_on_c, 1, 52, 127
2, 67560, Note_off_c, 1, 52, 0
2, 67600, Note_on_c, 1, 57, 127
2, 67960, Note_off_c, 1, 57, 0
2, 68000, Note_on_c, 1, 62, 127
2, 69080, Note_off_c, 1, 62, 0
2, 69120, Note_on_c, 1, 62, 127
2, 69160, Note_off_c, 1, 62, 0
2, 72120, Note_on_c, 1, 37, 127
2, 72120, Note_on_c, 1, 41, 127
2, 72120, Note_on_c, 1, 49, 127
2, 72920, Note_off_c, 1, 37, 0
2, 72920, Note_off_c, 1, 41, 0
2, 72920, Note_off_c, 1, 49, 0
2, 74720, Note_on_c, 1, 55, 127
2, 74720, Note_on_c, 1, 58, 127
2, 74720, Note_on_c, 1, 62, 127
2, 74720, Note_on_c, 1, 67, 127
2, 74720, Note_on_c, 1, 70, 127
2, 75440, Note_off_c, 1, 55, 0
2, 75440, Note_off_c, 1, 58, 0
2, 75440, Note_off_c, 1, 62, 0
2, 75440, Note_off_c, 1, 67, 0
2, 75440, Note_off_c, 1, 70, 0
2, 78120, Note_on_c, 1, 34, 127
2, 78120, Note_on_c, 1, 46, 127
2, 78120, Note_on_c, 1, 58, 127
2, 78440, Note_off_c, 1, 34, 0
2, 78440, Note_off_c, 1, 46, 0
2, 78440, Note_off_c, 1, 58, 0
2, 78480, Note_on_c, 1, 34, 127
2, 78480, Note_on_c, 1, 46, 127
2, 78480, Note_on_c, 1, 58, 127
2, 80400, Note_off_c, 1, 34, 0
2, 80400, Note_off_c, 1, 46, 0
2, 80400, Note_off_c, 1, 58, 0
2, 80440, Note_on_c, 1, 34, 127
2, 80440, Note_on_c, 1, 46, 127
2, 80440, Note_on_c, 1, 58, 127
2, 80520, Note_on_c, 1, 50, 127
2, 80520, Note_off_c, 1, 58, 0
2, 80680, Note_off_c, 1, 50, 0
2, 80680, Note_on_c, 1, 58, 127
2, 81080, Note_off_c, 1, 34, 0
2, 81080, Note_off_c, 1, 46, 0
2, 81080, Note_off_c, 1, 58, 0
2, 82000, Note_on_c, 1, 40, 127
2, 82400, Note_off_c, 1, 40, 0
2, 82440, Note_on_c, 1, 40, 127
2, 82800, Note_off_c, 1, 40, 0
2, 82840, Note_on_c, 1, 40, 127
2, 83200, Note_off_c, 1, 40, 0
2, 83240, Note_on_c, 1, 40, 127
2, 83240, Note_on_c, 1, 52, 127
2, 83240, Note_on_c, 1, 56, 127
2, 83240, Note_on_c, 1, 59, 127
2, 83240, Note_on_c, 1, 64, 127
2, 83280, Note_off_c, 1, 40, 0
2, 83280, Note_off_c, 1, 52, 0
2, 83280, Note_off_c, 1, 56, 0
2, 83280, Note_off_c, 1, 59, 0
2, 83280, Note_off_c, 1, 64, 0
2, 83320, Note_on_c, 1, 40, 127
2, 83320, Note_on_c, 1, 52, 127
2, 83320, Note_on_c, 1, 56, 127
2, 83320, Note_on_c, 1, 59, 127
2, 83320, Note_on_c, 1, 64, 127
2, 84960, Note_off_c, 1, 40, 0
2, 84960, Note_off_c, 1, 52, 0
2, 84960, Note_off_c, 1, 56, 0
2, 84960, Note_off_c, 1, 59, 0
2, 84960, Note_off_c, 1, 64, 0
2, 85040, Note_on_c, 1, 36, 127
2, 85040, Note_on_c, 1, 48, 127
2, 85040, Note_on_c, 1, 55, 127
2, 85040, Note_on_c, 1, 58, 127
2, 85040, Note_on_c, 1, 64, 127
2, 85800, Note_off_c, 1, 36, 0
2, 85800, Note_off_c, 1, 48, 0
2, 85800, Note_off_c, 1, 55, 0
2, 85800, Note_off_c, 1, 58, 0
2, 85800, Note_off_c, 1, 64, 0
2, 85840, Note_on_c, 1, 51, 127
2, 85840, Note_on_c, 1, 58, 127
2, 85840, Note_on_c, 1, 67, 127
2, 85840, Note_on_c, 1, 75, 127
2, 87160, Note_off_c, 1, 51, 0
2, 87160, Note_off_c, 1, 58, 0
2, 87160, Note_off_c, 1, 67, 0
2, 87160, Note_off_c, 1, 75, 0
2, 87200, Note_on_c, 1, 51, 127
2, 87200, Note_on_c, 1, 58, 127
2, 87200, Note_on_c, 1, 67, 127
2, 87200, Note_on_c, 1, 75, 127
2, 87600, Note_off_c, 1, 51, 0
2, 87600, Note_off_c, 1, 58, 0
2, 87600, Note_off_c, 1, 67, 0
2, 87600, Note_off_c, 1, 75, 0
2, 89360, Note_on_c, 1, 30, 127
2, 89560, Note_off_c, 1, 30, 0
2, 89600, Note_on_c, 1, 30, 127
2, 89800, Note_off_c, 1, 30, 0
2, 89840, Note_on_c, 1, 30, 127
2, 90600, Note_off_c, 1, 30, 0
2, 90640, Note_on_c, 1, 34, 127
2, 91000, Note_off_c, 1, 34, 0
2, 91040, Note_on_c, 1, 35, 127
2, 91760, Note_off_c, 1, 35, 0
2, 91760, Note_on_c, 1, 36, 127
2, 91800, Note_off_c, 1, 36, 0
2, 91840, Note_on_c, 1, 39, 127
2, 91960, Note_off_c, 1, 39, 0
2, 92000, Note_on_c, 1, 39, 127
2, 92240, Note_off_c, 1, 39, 0
2, 92280, Note_on_c, 1, 42, 127
2, 92680, Note_off_c, 1, 42, 0
2, 92680, Note_on_c, 1, 54, 127
2, 93080, Note_off_c, 1, 54, 0
2, 93120, Note_on_c, 1, 44, 127
2, 93480, Note_off_c, 1, 44, 0
2, 93520, Note_on_c, 1, 35, 127
2, 94160, Note_off_c, 1, 35, 0
2, 94200, Note_on_c, 1, 35, 127
2, 95160, Note_off_c, 1, 35, 0
2, 96920, Note_on_c, 1, 41, 127
2, 96960, Note_on_c, 1, 57, 127
2, 97240, Note_off_c, 1, 57, 0
2, 97240, Note_on_c, 1, 60, 127
2, 97560, Note_off_c, 1, 41, 0
2, 97560, Note_on_c, 1, 54, 127
2, 97560, Note_off_c, 1, 60, 0
2, 97560, Note_on_c, 1, 78, 127
2, 97560, Note_on_c, 1, 90, 127
2, 97560, Note_on_c, 1, 93, 127
2, 97600, Note_off_c, 1, 54, 0
2, 97600, Note_off_c, 1, 78, 0
2, 97600, Note_off_c, 1, 90, 0
2, 97600, Note_off_c, 1, 93, 0
2, 99560, Note_on_c, 1, 49, 127
2, 99560, Note_on_c, 1, 73, 127
2, 99960, Note_off_c, 1, 49, 0
2, 100000, Note_on_c, 1, 44, 127
2, 100360, Note_off_c, 1, 44, 0
2, 100400, Note_on_c, 1, 37, 127
2, 100760, Note_off_c, 1, 37, 0
2, 100760, Note_off_c, 1, 73, 0
2, 100800, Note_on_c, 1, 73, 127
2, 100840, Note_on_c, 1, 46, 127
2, 101200, Note_off_c, 1, 46, 0
2, 101240, Note_on_c, 1, 52, 127
2, 101600, Note_off_c, 1, 52, 0
2, 101640, Note_on_c, 1, 64, 127
2, 102000, Note_off_c, 1, 64, 0
2, 102040, Note_on_c, 1, 44, 127
2, 102400, Note_off_c, 1, 44, 0
2, 102840, Note_off_c, 1, 73, 0
2, 102880, Note_on_c, 1, 73, 127
2, 102920, Note_on_c, 1, 52, 127
2, 103240, Note_off_c, 1, 52, 0
2, 103680, Note_on_c, 1, 52, 127
2, 104040, Note_off_c, 1, 52, 0
2, 104480, Note_on_c, 1, 42, 127
2, 104840, Note_off_c, 1, 42, 0
2, 104880, Note_on_c, 1, 53, 127
2, 105040, Note_off_c, 1, 53, 0
2, 105040, Note_off_c, 1, 73, 0
2, 105080, Note_on_c, 1, 73, 127
2, 105320, Note_off_c, 1, 73, 0
2, 105360, Note_on_c, 1, 44, 127
2, 105360, Note_on_c, 1, 73, 127
2, 105720, Note_off_c, 1, 44, 0
2, 105760, Note_on_c, 1, 57, 127
2, 106120, Note_off_c, 1, 57, 0
2, 106160, Note_on_c, 1, 42, 127
2, 106520, Note_off_c, 1, 42, 0
2, 106520, Note_off_c, 1, 73, 0
2, 106560, Note_on_c, 1, 47, 127
2, 106560, Note_on_c, 1, 92, 127
2, 106760, Note_off_c, 1, 47, 0
2, 106760, Note_off_c, 1, 92, 0
2, 106800, Note_on_c, 1, 47, 127
2, 106800, Note_on_c, 1, 92, 127
2, 107360, Note_off_c, 1, 47, 0
2, 107400, Note_on_c, 1, 47, 127
2, 107760, Note_off_c, 1, 47, 0
2, 107800, Note_on_c, 1, 62, 127
2, 108160, Note_off_c, 1, 62, 0
2, 108200, Note_on_c, 1, 71, 127
2, 108560, Note_off_c, 1, 92, 0
2, 108600, Note_on_c, 1, 92, 127
2, 108800, Note_off_c, 1, 71, 0
2, 108800, Note_off_c, 1, 92, 0
2, 108840, Note_on_c, 1, 71, 127
2, 108840, Note_on_c, 1, 92, 127
2, 108960, Note_off_c, 1, 92, 0
2, 109000, Note_on_c, 1, 92, 127
2, 109320, Note_off_c, 1, 92, 0
2, 109360, Note_on_c, 1, 89, 127
2, 109560, Note_off_c, 1, 89, 0
2, 109560, Note_on_c, 1, 92, 127
2, 109720, Note_off_c, 1, 71, 0
2, 109760, Note_on_c, 1, 65, 127
2, 109760, Note_on_c, 1, 68, 127
2, 109920, Note_off_c, 1, 68, 0
2, 109960, Note_on_c, 1, 68, 127
2, 110120, Note_off_c, 1, 65, 0
2, 110120, Note_off_c, 1, 68, 0
2, 110160, Note_on_c, 1, 65, 127
2, 110160, Note_on_c, 1, 68, 127
2, 110520, Note_off_c, 1, 65, 0
2, 110520, Note_off_c, 1, 68, 0
2, 110560, Note_on_c, 1, 65, 127
2, 110560, Note_on_c, 1, 68, 127
2, 110840, Note_off_c, 1, 65, 0
2, 110840, Note_off_c, 1, 68, 0
2, 110840, Note_off_c, 1, 92, 0
2, 110880, Note_on_c, 1, 65, 127
2, 110880, Note_on_c, 1, 68, 127
2, 110880, Note_on_c, 1, 92, 127
2, 110960, Note_off_c, 1, 65, 0
2, 110960, Note_off_c, 1, 68, 0
2, 111000, Note_on_c, 1, 65, 127
2, 111000, Note_on_c, 1, 68, 127
2, 111360, Note_off_c, 1, 68, 0
2, 111400, Note_on_c, 1, 68, 127
2, 111760, Note_off_c, 1, 65, 0
2, 111760, Note_off_c, 1, 68, 0
2, 111800, Note_on_c, 1, 65, 127
2, 111800, Note_on_c, 1, 68, 127
2, 112160, Note_off_c, 1, 65, 0
2, 112160, Note_off_c, 1, 68, 0
2, 112200, Note_on_c, 1, 68, 127
2, 112200, Note_on_c, 1, 80, 127
2, 112200, Note_on_c, 1, 89, 127
2, 112200, Note_off_c, 1, 92, 0
2, 112600, Note_off_c, 1, 68, 0
2, 112600, Note_off_c, 1, 80, 0
2, 112600, Note_off_c, 1, 89, 0
2, 112640, Note_on_c, 1, 73, 127
2, 112640, Note_on_c, 1, 77, 127
2, 112640, Note_on_c, 1, 85, 127
2, 112920, Note_off_c, 1, 73, 0
2, 112920, Note_off_c, 1, 77, 0
2, 112920, Note_off_c, 1, 85, 0
2, 112960, Note_on_c, 1, 73, 127
2, 112960, Note_on_c, 1, 77, 127
2, 112960, Note_on_c, 1, 85, 127
2, 114200, Note_off_c, 1, 73, 0
2, 114200, Note_off_c, 1, 77, 0
2, 114200, Note_off_c, 1, 85, 0
2, 114240, Note_on_c, 1, 49, 127
2, 114240, Note_on_c, 1, 77, 127
2, 114240, Note_on_c, 1, 80, 127
2, 114600, Note_off_c, 1, 49, 0
2, 114640, Note_on_c, 1, 56, 127
2, 115040, Note_off_c, 1, 56, 0
2, 115040, Note_off_c, 1, 77, 0
2, 115040, Note_off_c, 1, 80, 0
2, 115120, Note_on_c, 1, 54, 127
2, 115120, Note_on_c, 1, 75, 127
2, 115120, Note_on_c, 1, 78, 127
2, 115480, Note_off_c, 1, 54, 0
2, 115520, Note_on_c, 1, 66, 127
2, 115880, Note_off_c, 1, 66, 0
2, 115880, Note_off_c, 1, 75, 0
2, 115880, Note_off_c, 1, 78, 0
2, 115920, Note_on_c, 1, 61, 127
2, 115920, Note_on_c, 1, 68, 127
2, 115920, Note_on_c, 1, 77, 127
2, 116280, Note_off_c, 1, 61, 0
2, 116320, Note_on_c, 1, 59, 127
2, 116680, Note_off_c, 1, 59, 0
2, 116720, Note_on_c, 1, 48, 127
2, 117040, Note_off_c, 1, 48, 0
2, 117040, Note_off_c, 1, 68, 0
2, 117040, Note_off_c, 1, 77, 0
2, 117080, Note_on_c, 1, 48, 127
2, 117080, Note_on_c, 1, 68, 127
2, 117080, Note_on_c, 1, 77, 127
2, 117120, Note_off_c, 1, 48, 0
2, 117160, Note_on_c, 1, 59, 127
2, 117520, Note_off_c, 1, 59, 0
2, 117560, Note_on_c, 1, 48, 127
2, 117920, Note_off_c, 1, 48, 0
2, 117920, Note_off_c, 1, 68, 0
2, 117920, Note_off_c, 1, 77, 0
2, 117960, Note_on_c, 1, 59, 127
2, 117960, Note_on_c, 1, 68, 127
2, 117960, Note_on_c, 1, 77, 127
2, 118320, Note_off_c, 1, 59, 0
2, 118360, Note_on_c, 1, 48, 127
2, 118720, Note_off_c, 1, 48, 0
2, 118760, Note_on_c, 1, 59, 127
2, 119080, Note_off_c, 1, 59, 0
2, 119080, Note_off_c, 1, 68, 0
2, 119080, Note_off_c, 1, 77, 0
2, 119120, Note_on_c, 1, 59, 127
2, 119120, Note_on_c, 1, 68, 127
2, 119120, Note_on_c, 1, 77, 127
2, 119160, Note_off_c, 1, 59, 0
2, 119160, Note_off_c, 1, 68, 0
2, 119160, Note_off_c, 1, 77, 0
2, 119200, Note_on_c, 1, 48, 127
2, 119200, Note_on_c, 1, 69, 127
2, 119200, Note_on_c, 1, 77, 127
2, 120000, Note_off_c, 1, 48, 0
2, 120000, Note_off_c, 1, 69, 0
2, 120000, Note_off_c, 1, 77, 0
2, 120040, End_track
3, 0, Start_track
3, 0, Title_t, "MIDI"
3, 1536, End_track
0, 0, End_of_file
