0, 0, Header, 1, 3, 192
1, 0, Start_track
1, 0, Time_signature, 4, 2, 24, 8
1, 0, Tempo, 500000
1, 120040, End_track
2, 0, Start_track
2, 0, Text_t, "random instrument: random person i dunno whatev"
2, 0, Title_t, "Track 1"
2, 0, Note_on_c, 1, 52, 127
2, 0, Note_on_c, 1, 58, 127
2, 0, Note_on_c, 1, 61, 127
2, 0, Note_on_c, 1, 97, 127
2, 40, Note_on_c, 1, 35, 127
2, 40, Note_off_c, 1, 52, 0
2, 40, Note_off_c, 1, 58, 0
2, 40, Note_off_c, 1, 61, 0
2, 40, Note_on_c, 1, 69, 127
2, 40, Note_on_c, 1, 74, 127
2, 40, Note_on_c, 1, 80, 127
2, 40, Note_off_c, 1, 97, 0
2, 80, Note_off_c, 1, 35, 0
2, 80, Note_off_c, 1, 69, 0
2, 80, Note_off_c, 1, 74, 0
2, 80, Note_off_c, 1, 80, 0
2, 120, Note_on_c, 1, 62, 127
2, 120, Note_on_c, 1, 70, 127
2, 120, Note_on_c, 1, 77, 127
2, 120, Note_on_c, 1, 80, 127
2, 120, Note_on_c, 1, 82, 127
2, 120, Note_on_c, 1, 89, 127
2, 160, Note_on_c, 1, 57, 127
2, 160, Note_off_c, 1, 62, 0
2, 160, Note_off_c, 1, 70, 0
2, 160, Note_off_c, 1, 77, 0
2, 160, Note_on_c, 1, 78, 127
2, 160, Note_off_c, 1, 80, 0
2, 160, Note_on_c, 1, 81, 127
2, 160, Note_off_c, 1, 82, 0
2, 160, Note_on_c, 1, 84, 127
2, 160, Note_off_c, 1, 89, 0
2, 160, Note_on_c, 1, 90, 127
2, 200, Note_on_c, 1, 33, 127
2, 200, Note_on_c, 1, 37, 127
2, 200, Note_on_c, 1, 40, 127
2, 200, Note_on_c, 1, 45, 127
2, 200, Note_on_c, 1, 61, 127
2, 200, Note_on_c, 1, 64, 127
2, 200, Note_off_c, 1, 78, 0
2, 200, Note_off_c, 1, 81, 0
2, 200, Note_off_c, 1, 84, 0
2, 200, Note_off_c, 1, 90, 0
2, 240, Note_off_c, 1, 33, 0
2, 240, Note_off_c, 1, 37, 0
2, 240, Note_off_c, 1, 40, 0
2, 240, Note_off_c, 1, 45, 0
2, 240, Note_on_c, 1, 53, 127
2, 240, Note_off_c, 1, 57, 0
2, 240, Note_on_c, 1, 58, 127
2, 240, Note_on_c, 1, 73, 127
2, 320, Note_off_c, 1, 53, 0
2, 320, Note_off_c, 1, 58, 0
2, 320, Note_off_c, 1, 61, 0
2, 320, Note_off_c, 1, 64, 0
2, 320, Note_off_c, 1, 73, 0
2, 400, Note_on_c, 1, 52, 127
2, 400, Note_on_c, 1, 79, 127
2, 400, Note_on_c, 1, 82, 127
2, 400, Note_on_c, 1, 85, 127
2, 400, Note_on_c, 1, 91, 127
2, 440, Note_on_c, 1, 50, 127
2, 440, Note_off_c, 1, 52, 0
2, 440, Note_on_c, 1, 57, 127
2, 440, Note_on_c, 1, 65, 127
2, 440, Note_off_c, 1, 79, 0
2, 440, Note_off_c, 1, 82, 0
2, 440, Note_off_c, 1, 85, 0
2, 440, Note_off_c, 1, 91, 0
2, 440, Note_on_c, 1, 93, 127
2, 480, Note_off_c, 1, 50, 0
2, 480, Note_on_c, 1, 52, 127
2, 480, Note_off_c, 1, 57, 0
2, 480, Note_off_c, 1, 65, 0
2, 480, Note_on_c, 1, 79, 127
2, 480, Note_on_c, 1, 82, 127
2, 480, Note_on_c, 1, 85, 127
2, 480, Note_on_c, 1, 91, 127
2, 480, Note_off_c, 1, 93, 0
2, 680, Note_off_c, 1, 52, 0
2, 680, Note_off_c, 1, 79, 0
2, 680, Note_off_c, 1, 82, 0
2, 680, Note_off_c, 1, 85, 0
2, 680, Note_off_c, 1, 91, 0
2, 28720, Note_on_c, 1, 58, 127
2, 28800, Note_off_c, 1, 58, 0
2, 28840, Note_on_c, 1, 59, 127
2, 28880, Note_off_c, 1, 59, 0
2, 28920, Note_on_c, 1, 58, 127
2, 28960, Note_on_c, 1, 56, 127
2, 28960, Note_off_c, 1, 58, 0
2, 29000, Note_off_c, 1, 56, 0
2, 29040, Note_on_c, 1, 56, 127
2, 29080, Note_off_c, 1, 56, 0
2, 29120, Note_on_c, 1, 53, 127
2, 29200, Note_off_c, 1, 53, 0
2, 29240, Note_on_c, 1, 51, 127
2, 29280, Note_off_c, 1, 51, 0
2, 29320, Note_on_c, 1, 53, 127
2, 29400, Note_off_c, 1, 53, 0
2, 29440, Note_on_c, 1, 51, 127
2, 29480, Note_off_c, 1, 51, 0
2, 29520, Note_on_c, 1, 53, 127
2, 29600, Note_off_c, 1, 53, 0
2, 29680, Note_on_c, 1, 53, 127
2, 29720, Note_off_c, 1, 53, 0
2, 29760, Note_on_c, 1, 60, 127
2, 29840, Note_off_c, 1, 60, 0
2, 29880, Note_on_c, 1, 65, 127
2, 29920, Note_off_c, 1, 65, 0
2, 29960, Note_on_c, 1, 70, 127
2, 30040, Note_off_c, 1, 70, 0
2, 30080, Note_on_c, 1, 69, 127
2, 30120, Note_off_c, 1, 69, 0
2, 30160, Note_on_c, 1, 77, 127
2, 30240, Note_off_c, 1, 77, 0
2, 30280, Note_on_c, 1, 82, 127
2, 30320, Note_off_c, 1, 82, 0
2, 30360, Note_on_c, 1, 89, 127
2, 30440, Note_off_c, 1, 89, 0
2, 30480, Note_on_c, 1, 86, 127
2, 30520, Note_off_c, 1, 86, 0
2, 30560, Note_on_c, 1, 89, 127
2, 31120, Note_off_c, 1, 89, 0
2, 36040, Note_on_c, 1, 45, 127
2, 36120, Note_off_c, 1, 45, 0
2, 36160, Note_on_c, 1, 45, 127
2, 36240, Note_off_c, 1, 45, 0
2, 36280, Note_on_c, 1, 45, 127
2, 36360, Note_off_c, 1, 45, 0
2, 36400, Note_on_c, 1, 45, 127
2, 36520, Note_off_c, 1, 45, 0
2, 36560, Note_on_c, 1, 45, 127
2, 36640, Note_off_c, 1, 45, 0
2, 36680, Note_on_c, 1, 52, 127
2, 36680, Note_on_c, 1, 61, 127
2, 36800, Note_on_c, 1, 45, 127
2, 36800, Note_on_c, 1, 49, 127
2, 36800, Note_off_c, 1, 52, 0
2, 36800, Note_off_c, 1, 61, 0
2, 37000, Note_off_c, 1, 45, 0
2, 37000, Note_off_c, 1, 49, 0
2, 37040, Note_on_c, 1, 45, 127
2, 37040, Note_on_c, 1, 49, 127
2, 37280, Note_off_c, 1, 49, 0
2, 37320, Note_on_c, 1, 52, 127
2, 37360, Note_off_c, 1, 52, 0
2, 37560, Note_on_c, 1, 52, 127
2, 37680, Note_off_c, 1, 45, 0
2, 37680, Note_off_c, 1, 52, 0
2, 37720, Note_on_c, 1, 38, 127
2, 37720, Note_on_c, 1, 62, 127
2, 38080, Note_off_c, 1, 62, 0
2, 38120, Note_on_c, 1, 50, 127
2, 38200, Note_off_c, 1, 50, 0
2, 38440, Note_off_c, 1, 38, 0
2, 38480, Note_on_c, 1, 45, 127
2, 38840, Note_off_c, 1, 45, 0
2, 38880, Note_on_c, 1, 38, 127
2, 39200, Note_off_c, 1, 38, 0
2, 39240, Note_on_c, 1, 38, 127
2, 39280, Note_off_c, 1, 38, 0
2, 39320, Note_on_c, 1, 45, 127
2, 39680, Note_off_c, 1, 45, 0
2, 39720, Note_on_c, 1, 50, 127
2, 40080, Note_off_c, 1, 50, 0
2, 40120, Note_on_c, 1, 57, 127
2, 40840, Note_off_c, 1, 57, 0
2, 40880, Note_on_c, 1, 55, 127
2, 41200, Note_off_c, 1, 55, 0
2, 41280, Note_on_c, 1, 64, 127
2, 41640, Note_off_c, 1, 64, 0
2, 41680, Note_on_c, 1, 62, 127
2, 42400, Note_off_c, 1, 62, 0
2, 42440, Note_on_c, 1, 57, 127
2, 43200, Note_off_c, 1, 57, 0
2, 43240, Note_on_c, 1, 50, 127
2, 43560, Note_off_c, 1, 50, 0
2, 43600, Note_on_c, 1, 50, 127
2, 43640, Note_off_c, 1, 50, 0
2, 43680, Note_on_c, 1, 45, 127
2, 44000, Note_off_c, 1, 45, 0
2, 44040, Note_on_c, 1, 50, 127
2, 44400, Note_off_c, 1, 50, 0
2, 44440, Note_on_c, 1, 62, 127
2, 44800, Note_off_c, 1, 62, 0
2, 44840, Note_on_c, 1, 64, 127
2, 45200, Note_off_c, 1, 64, 0
2, 45240, Note_on_c, 1, 62, 127
2, 45600, Note_off_c, 1, 62, 0
2, 45680, Note_on_c, 1, 61, 127
2, 46040, Note_off_c, 1, 61, 0
2, 46080, Note_on_c, 1, 62, 127
2, 46400, Note_off_c, 1, 62, 0
2, 46440, Note_on_c, 1, 61, 127
2, 46800, Note_off_c, 1, 61, 0
2, 46840, Note_on_c, 1, 57, 127
2, 47200, Note_off_c, 1, 57, 0
2, 47240, Note_on_c, 1, 61, 127
2, 47600, Note_off_c, 1, 61, 0
2, 47680, Note_on_c, 1, 45, 127
2, 47680, Note_on_c, 1, 61, 127
2, 48000, Note_off_c, 1, 45, 0
2, 48400, Note_off_c, 1, 61, 0
2, 48440, Note_on_c, 1, 69, 127
2, 48800, Note_off_c, 1, 69, 0
2, 48840, Note_on_c, 1, 62, 127
2, 49160, Note_off_c, 1, 62, 0
2, 49200, Note_on_c, 1, 69, 127
2, 49560, Note_off_c, 1, 69, 0
2, 49640, Note_on_c, 1, 45, 127
2, 49960, Note_off_c, 1, 45, 0
2, 50000, Note_on_c, 1, 50, 127
2, 50360, Note_off_c, 1, 50, 0
2, 50400, Note_on_c, 1, 57, 127
2, 50720, Note_off_c, 1, 57, 0
2, 50760, Note_on_c, 1, 55, 127
2, 51480, Note_off_c, 1, 55, 0
2, 51560, Note_on_c, 1, 52, 127
2, 51920, Note_off_c, 1, 52, 0
2, 51960, Note_on_c, 1, 50, 127
2, 52320, Note_off_c, 1, 50, 0
2, 52360, Note_on_c, 1, 45, 127
2, 52680, Note_off_c, 1, 45, 0
2, 52720, Note_on_c, 1, 38, 127
2, 53080, Note_off_c, 1, 38, 0
2, 53120, Note_on_c, 1, 45, 127
2, 53480, Note_off_c, 1, 45, 0
2, 53560, Note_on_c, 1, 38, 127
2, 53880, Note_off_c, 1, 38, 0
2, 53920, Note_on_c, 1, 45, 127
2, 54280, Note_off_c, 1, 45, 0
2, 54320, Note_on_c, 1, 50, 127
2, 54680, Note_off_c, 1, 50, 0
2, 54720, Note_on_c, 1, 62, 127
2, 55080, Note_off_c, 1, 62, 0
2, 55120, Note_on_c, 1, 50, 127
2, 55480, Note_off_c, 1, 50, 0
2, 55560, Note_on_c, 1, 43, 127
2, 55920, Note_off_c, 1, 43, 0
2, 55960, Note_on_c, 1, 50, 127
2, 56320, Note_off_c, 1, 50, 0
2, 56360, Note_on_c, 1, 54, 127
2, 56720, Note_off_c, 1, 54, 0
2, 56760, Note_on_c, 1, 50, 127
2, 57120, Note_off_c, 1, 50, 0
2, 57160, Note_on_c, 1, 45, 127
2, 57520, Note_off_c, 1, 45, 0
2, 57600, Note_on_c, 1, 38, 127
2, 57960, Note_off_c, 1, 38, 0
2, 58000, Note_on_c, 1, 45, 127
2, 58360, Note_off_c, 1, 45, 0
2, 58400, Note_on_c, 1, 50, 127
2, 58760, Note_off_c, 1, 50, 0
2, 58800, Note_on_c, 1, 57, 127
2, 59160, Note_off_c, 1, 57, 0
2, 59200, Note_on_c, 1, 50, 127
2, 59520, Note_off_c, 1, 50, 0
2, 59560, Note_on_c, 1, 50, 127
2, 59600, Note_off_c, 1, 50, 0
2, 59640, Note_on_c, 1, 50, 127
2, 60000, Note_off_c, 1, 50, 0
2, 60040, Note_on_c, 1, 57, 127
2, 60400, Note_off_c, 1, 57, 0
2, 60440, Note_on_c, 1, 50, 127
2, 60800, Note_off_c, 1, 50, 0
2, 60840, Note_on_c, 1, 45, 127
2, 61200, Note_off_c, 1, 45, 0
2, 61240, Note_on_c, 1, 43, 127
2, 61600, Note_off_c, 1, 43, 0
2, 61680, Note_on_c, 1, 49, 127
2, 62040, Note_off_c, 1, 49, 0
2, 62080, Note_on_c, 1, 52, 127
2, 62440, Note_off_c, 1, 52, 0
2, 62480, Note_on_c, 1, 61, 127
2, 62840, Note_off_c, 1, 61, 0
2, 62880, Note_on_c, 1, 62, 127
2, 63240, Note_off_c, 1, 62, 0
2, 63280, Note_on_c, 1, 65, 127
2, 63640, Note_off_c, 1, 65, 0
2, 63720, Note_on_c, 1, 47, 127
2, 63720, Note_on_c, 1, 62, 127
2, 64080, Note_off_c, 1, 47, 0
2, 64120, Note_on_c, 1, 47, 127
2, 64480, Note_off_c, 1, 47, 0
2, 64520, Note_on_c, 1, 45, 127
2, 64880, Note_off_c, 1, 45, 0
2, 65280, Note_off_c, 1, 62, 0
2, 65320, Note_on_c, 1, 47, 127
2, 65680, Note_off_c, 1, 47, 0
2, 65760, Note_on_c, 1, 50, 127
2, 66120, Note_off_c, 1, 50, 0
2, 66160, Note_on_c, 1, 57, 127
2, 66520, Note_off_c, 1, 57, 0
2, 66560, Note_on_c, 1, 55, 127
2, 66920, Note_off_c, 1, 55, 0
2, 66960, Note_on_c, 1, 57, 127
2, 67320, Note_off_c, 1, 57, 0
2, 67360, Note_on_c, 1, 55, 127
2, 67720, Note_off_c, 1, 55, 0
2, 67800, Note_on_c, 1, 57, 127
2, 68160, Note_off_c, 1, 57, 0
2, 68200, Note_on_c, 1, 50, 127
2, 68560, Note_off_c, 1, 50, 0
2, 68600, Note_on_c, 1, 52, 127
2, 68960, Note_off_c, 1, 52, 0
2, 69000, Note_on_c, 1, 45, 127
2, 69360, Note_off_c, 1, 45, 0
2, 69400, Note_on_c, 1, 50, 127
2, 69760, Note_off_c, 1, 50, 0
2, 69840, Note_on_c, 1, 38, 127
2, 70200, Note_off_c, 1, 38, 0
2, 70240, Note_on_c, 1, 45, 127
2, 70600, Note_off_c, 1, 45, 0
2, 70640, Note_on_c, 1, 50, 127
2, 71000, Note_off_c, 1, 50, 0
2, 71040, Note_on_c, 1, 57, 127
2, 71720, Note_off_c, 1, 57, 0
2, 71760, Note_on_c, 1, 57, 127
2, 71840, Note_off_c, 1, 57, 0
2, 71880, Note_on_c, 1, 62, 127
2, 72240, Note_off_c, 1, 62, 0
2, 72280, Note_on_c, 1, 66, 127
2, 73440, Note_off_c, 1, 66, 0
2, 73480, Note_on_c, 1, 69, 127
2, 73840, Note_off_c, 1, 69, 0
2, 73920, Note_on_c, 1, 43, 127
2, 74280, Note_off_c, 1, 43, 0
2, 74320, Note_on_c, 1, 49, 127
2, 74680, Note_off_c, 1, 49, 0
2, 74720, Note_on_c, 1, 55, 127
2, 74720, Note_on_c, 1, 58, 127
2, 74720, Note_on_c, 1, 62, 127
2, 74720, Note_on_c, 1, 67, 127
2, 74720, Note_on_c, 1, 70, 127
2, 75880, Note_off_c, 1, 55, 0
2, 75880, Note_off_c, 1, 58, 0
2, 75880, Note_off_c, 1, 62, 0
2, 75880, Note_off_c, 1, 67, 0
2, 75880, Note_off_c, 1, 70, 0
2, 75960, Note_on_c, 1, 55, 127
2, 76520, Note_off_c, 1, 55, 0
2, 76560, Note_on_c, 1, 57, 127
2, 77520, Note_off_c, 1, 57, 0
2, 77560, Note_on_c, 1, 49, 127
2, 77920, Note_off_c, 1, 49, 0
2, 78000, Note_on_c, 1, 56, 127
2, 78760, Note_off_c, 1, 56, 0
2, 78800, Note_on_c, 1, 55, 127
2, 79560, Note_off_c, 1, 55, 0
2, 79600, Note_on_c, 1, 55, 127
2, 80040, Note_off_c, 1, 55, 0
2, 80080, Note_on_c, 1, 55, 127
2, 80400, Note_off_c, 1, 55, 0
2, 80440, Note_on_c, 1, 49, 127
2, 80800, Note_off_c, 1, 49, 0
2, 80840, Note_on_c, 1, 55, 127
2, 81200, Note_off_c, 1, 55, 0
2, 81240, Note_on_c, 1, 53, 127
2, 81600, Note_off_c, 1, 53, 0
2, 81640, Note_on_c, 1, 55, 127
2, 82040, Note_off_c, 1, 55, 0
2, 82080, Note_on_c, 1, 55, 127
2, 82400, Note_off_c, 1, 55, 0
2, 82440, Note_on_c, 1, 53, 127
2, 82800, Note_off_c, 1, 53, 0
2, 82840, Note_on_c, 1, 57, 127
2, 83200, Note_off_c, 1, 57, 0
2, 83240, Note_on_c, 1, 55, 127
2, 84000, Note_off_c, 1, 55, 0
2, 84040, Note_on_c, 1, 52, 127
2, 84200, Note_off_c, 1, 52, 0
2, 84240, Note_on_c, 1, 52, 127
2, 84440, Note_off_c, 1, 52, 0
2, 84480, Note_on_c, 1, 55, 127
2, 84840, Note_off_c, 1, 55, 0
2, 84880, Note_on_c, 1, 48, 127
2, 85240, Note_off_c, 1, 48, 0
2, 85280, Note_on_c, 1, 55, 127
2, 85640, Note_off_c, 1, 55, 0
2, 85680, Note_on_c, 1, 53, 127
2, 86040, Note_off_c, 1, 53, 0
2, 86080, Note_on_c, 1, 48, 127
2, 86280, Note_off_c, 1, 48, 0
2, 86320, Note_on_c, 1, 48, 127
2, 86480, Note_off_c, 1, 48, 0
2, 86520, Note_on_c, 1, 52, 127
2, 86880, Note_off_c, 1, 52, 0
2, 86920, Note_on_c, 1, 55, 127
2, 87280, Note_off_c, 1, 55, 0
2, 87320, Note_on_c, 1, 60, 127
2, 87680, Note_off_c, 1, 60, 0
2, 87720, Note_on_c, 1, 64, 127
2, 88480, Note_off_c, 1, 64, 0
2, 88520, Note_on_c, 1, 64, 127
2, 88920, Note_off_c, 1, 64, 0
2, 88960, Note_on_c, 1, 53, 127
2, 88960, Note_on_c, 1, 67, 127
2, 90320, Note_on_c, 1, 52, 127
2, 90320, Note_off_c, 1, 53, 0
2, 90320, Note_off_c, 1, 67, 0
2, 90360, Note_on_c, 1, 67, 127
2, 90560, Note_off_c, 1, 52, 0
2, 90560, Note_off_c, 1, 67, 0
2, 90600, Note_on_c, 1, 52, 127
2, 90600, Note_on_c, 1, 67, 127
2, 90960, Note_off_c, 1, 52, 0
2, 90960, Note_off_c, 1, 67, 0
2, 91000, Note_on_c, 1, 52, 127
2, 91000, Note_on_c, 1, 68, 127
2, 92160, Note_off_c, 1, 52, 0
2, 92160, Note_off_c, 1, 68, 0
2, 92200, Note_on_c, 1, 52, 127
2, 92200, Note_on_c, 1, 67, 127
2, 92600, Note_off_c, 1, 52, 0
2, 92600, Note_off_c, 1, 67, 0
2, 92640, Note_on_c, 1, 52, 127
2, 92640, Note_on_c, 1, 67, 127
2, 93360, Note_off_c, 1, 52, 0
2, 93360, Note_off_c, 1, 67, 0
2, 93400, Note_on_c, 1, 54, 127
2, 93400, Note_on_c, 1, 69, 127
2, 94160, Note_off_c, 1, 54, 0
2, 94160, Note_off_c, 1, 69, 0
2, 94200, Note_on_c, 1, 48, 127
2, 94200, Note_on_c, 1, 55, 127
2, 94200, Note_on_c, 1, 72, 127
2, 94920, Note_off_c, 1, 48, 0
2, 94920, Note_off_c, 1, 55, 0
2, 94920, Note_off_c, 1, 72, 0
2, 94960, Note_on_c, 1, 48, 127
2, 94960, Note_on_c, 1, 55, 127
2, 94960, Note_on_c, 1, 72, 127
2, 96200, Note_off_c, 1, 48, 0
2, 96240, Note_on_c, 1, 64, 127
2, 96240, Note_on_c, 1, 67, 127
2, 97040, Note_off_c, 1, 55, 0
2, 97040, Note_off_c, 1, 64, 0
2, 97040, Note_off_c, 1, 67, 0
2, 97040, Note_off_c, 1, 72, 0
2, 97080, Note_on_c, 1, 55, 127
2, 97080, Note_on_c, 1, 64, 127
2, 97080, Note_on_c, 1, 67, 127
2, 97080, Note_on_c, 1, 72, 127
2, 97440, Note_off_c, 1, 55, 0
2, 97440, Note_off_c, 1, 64, 0
2, 97440, Note_off_c, 1, 72, 0
2, 97480, Note_on_c, 1, 48, 127
2, 97480, Note_on_c, 1, 63, 127
2, 97480, Note_off_c, 1, 67, 0
2, 97480, Note_on_c, 1, 69, 127
2, 97480, Note_on_c, 1, 72, 127
2, 98040, Note_off_c, 1, 72, 0
2, 98080, Note_on_c, 1, 74, 127
2, 98600, Note_off_c, 1, 48, 0
2, 98600, Note_off_c, 1, 63, 0
2, 98600, Note_off_c, 1, 69, 0
2, 98600, Note_off_c, 1, 74, 0
2, 98640, Note_on_c, 1, 53, 127
2, 98640, Note_on_c, 1, 63, 127
2, 98640, Note_on_c, 1, 69, 127
2, 98640, Note_on_c, 1, 74, 127
2, 99080, Note_on_c, 1, 72, 127
2, 99080, Note_off_c, 1, 74, 0
2, 99400, Note_off_c, 1, 53, 0
2, 99400, Note_off_c, 1, 63, 0
2, 99400, Note_off_c, 1, 69, 0
2, 99400, Note_off_c, 1, 72, 0
2, 99440, Note_on_c, 1, 53, 127
2, 99440, Note_on_c, 1, 63, 127
2, 99440, Note_on_c, 1, 69, 127
2, 99440, Note_on_c, 1, 72, 127
2, 99840, Note_off_c, 1, 53, 0
2, 99840, Note_off_c, 1, 63, 0
2, 99840, Note_off_c, 1, 69, 0
2, 99840, Note_off_c, 1, 72, 0
2, 99880, Note_on_c, 1, 58, 127
2, 99880, Note_on_c, 1, 65, 127
2, 99880, Note_on_c, 1, 74, 127
2, 101040, Note_off_c, 1, 58, 0
2, 101040, Note_off_c, 1, 65, 0
2, 101080, Note_on_c, 1, 58, 127
2, 101080, Note_on_c, 1, 65, 127
2, 101080, Note_on_c, 1, 70, 127
2, 101480, Note_off_c, 1, 58, 0
2, 101480, Note_off_c, 1, 65, 0
2, 101480, Note_off_c, 1, 70, 0
2, 101480, Note_off_c, 1, 74, 0
2, 101520, Note_on_c, 1, 58, 127
2, 101520, Note_on_c, 1, 65, 127
2, 101520, Note_on_c, 1, 70, 127
2, 101520, Note_on_c, 1, 74, 127
2, 102280, Note_off_c, 1, 58, 0
2, 102280, Note_off_c, 1, 65, 0
2, 102280, Note_off_c, 1, 70, 0
2, 102280, Note_off_c, 1, 74, 0
2, 102320, Note_on_c, 1, 57, 127
2, 102320, Note_on_c, 1, 65, 127
2, 102320, Note_on_c, 1, 72, 127
2, 103480, Note_off_c, 1, 57, 0
2, 103480, Note_off_c, 1, 65, 0
2, 103480, Note_off_c, 1, 72, 0
2, 103520, Note_on_c, 1, 60, 127
2, 103520, Note_on_c, 1, 69, 127
2, 103520, Note_on_c, 1, 72, 127
2, 103720, Note_off_c, 1, 60, 0
2, 103720, Note_off_c, 1, 69, 0
2, 103720, Note_off_c, 1, 72, 0
2, 103760, Note_on_c, 1, 60, 127
2, 103760, Note_on_c, 1, 69, 127
2, 103760, Note_on_c, 1, 72, 127
2, 104080, Note_off_c, 1, 60, 0
2, 104080, Note_off_c, 1, 69, 0
2, 104080, Note_off_c, 1, 72, 0
2, 104120, Note_on_c, 1, 60, 127
2, 104120, Note_on_c, 1, 63, 127
2, 104120, Note_on_c, 1, 69, 127
2, 104120, Note_on_c, 1, 77, 127
2, 105240, Note_off_c, 1, 60, 0
2, 105240, Note_off_c, 1, 63, 0
2, 105240, Note_off_c, 1, 69, 0
2, 105240, Note_off_c, 1, 77, 0
2, 105280, Note_on_c, 1, 58, 127
2, 105280, Note_on_c, 1, 65, 127
2, 105280, Note_on_c, 1, 70, 127
2, 105280, Note_on_c, 1, 74, 127
2, 105280, Note_on_c, 1, 77, 127
2, 105680, Note_off_c, 1, 58, 0
2, 105680, Note_off_c, 1, 65, 0
2, 105680, Note_off_c, 1, 70, 0
2, 105680, Note_off_c, 1, 74, 0
2, 105680, Note_off_c, 1, 77, 0
2, 105720, Note_on_c, 1, 58, 127
2, 105720, Note_on_c, 1, 65, 127
2, 105720, Note_on_c, 1, 70, 127
2, 105720, Note_on_c, 1, 74, 127
2, 105720, Note_on_c, 1, 77, 127
2, 106440, Note_off_c, 1, 58, 0
2, 106440, Note_off_c, 1, 65, 0
2, 106440, Note_off_c, 1, 70, 0
2, 106440, Note_off_c, 1, 74, 0
2, 106440, Note_off_c, 1, 77, 0
2, 106480, Note_on_c, 1, 60, 127
2, 106480, Note_on_c, 1, 64, 127
2, 106480, Note_on_c, 1, 70, 127
2, 106480, Note_on_c, 1, 79, 127
2, 107640, Note_off_c, 1, 60, 0
2, 107640, Note_off_c, 1, 64, 0
2, 107640, Note_off_c, 1, 70, 0
2, 107640, Note_off_c, 1, 79, 0
2, 107720, Note_on_c, 1, 60, 127
2, 107720, Note_on_c, 1, 67, 127
2, 107720, Note_on_c, 1, 70, 127
2, 107720, Note_on_c, 1, 76, 127
2, 108080, Note_off_c, 1, 76, 0
2, 108120, Note_on_c, 1, 77, 127
2, 108880, Note_off_c, 1, 60, 0
2, 108880, Note_off_c, 1, 67, 0
2, 108880, Note_off_c, 1, 70, 0
2, 108880, Note_off_c, 1, 77, 0
2, 108920, Note_on_c, 1, 41, 127
2, 109520, Note_off_c, 1, 41, 0
2, 109560, Note_on_c, 1, 41, 127
2, 110120, Note_off_c, 1, 41, 0
2, 110160, Note_on_c, 1, 48, 127
2, 110720, Note_off_c, 1, 48, 0
2, 110760, Note_on_c, 1, 48, 127
2, 111520, Note_off_c, 1, 48, 0
2, 111600, Note_on_c, 1, 48, 127
2, 111960, Note_off_c, 1, 48, 0
2, 112000, Note_on_c, 1, 54, 127
2, 112360, Note_off_c, 1, 54, 0
2, 112400, Note_on_c, 1, 60, 127
2, 112760, Note_off_c, 1, 60, 0
2, 112800, Note_on_c, 1, 60, 127
2, 113160, Note_off_c, 1, 60, 0
2, 113200, Note_on_c, 1, 53, 127
2, 113560, Note_off_c, 1, 53, 0
2, 113640, Note_on_c, 1, 60, 127
2, 114360, Note_off_c, 1, 60, 0
2, 114400, Note_on_c, 1, 53, 127
2, 114760, Note_off_c, 1, 53, 0
2, 114800, Note_on_c, 1, 60, 127
2, 115160, Note_off_c, 1, 60, 0
2, 115200, Note_on_c, 1, 65, 127
2, 115560, Note_off_c, 1, 65, 0
2, 115640, Note_on_c, 1, 65, 127
2, 116000, Note_off_c, 1, 65, 0
2, 116040, Note_on_c, 1, 66, 127
2, 116400, Note_off_c, 1, 66, 0
2, 116440, Note_on_c, 1, 63, 127
2, 116800, Note_off_c, 1, 63, 0
2, 116840, Note_on_c, 1, 62, 127
2, 117200, Note_off_c, 1, 62, 0
2, 117240, Note_on_c, 1, 60, 127
2, 117560, Note_off_c, 1, 60, 0
2, 117600, Note_on_c, 1, 57, 127
2, 117640, Note_off_c, 1, 57, 0
2, 117680, Note_on_c, 1, 57, 127
2, 118000, Note_off_c, 1, 57, 0
2, 118040, Note_on_c, 1, 53, 127
2, 118400, Note_off_c, 1, 53, 0
2, 118440, Note_on_c, 1, 60, 127
2, 118800, Note_off_c, 1, 60, 0
2, 118840, Note_on_c, 1, 53, 127
2, 119200, Note_off_c, 1, 53, 0
2, 119240, Note_on_c, 1, 55, 127
2, 119600, Note_off_c, 1, 55, 0
2, 119680, Note_on_c, 1, 48, 127
2, 120000, Note_off_c, 1, 48, 0
2, 120040, End_track
3, 0, Start_track
3, 0, Title_t, "MIDI"
3, 1536, End_track
0, 0, End_of_file
