0, 0, Header, 1, 3, 192
1, 0, Start_track
1, 0, Time_signature, 4, 2, 24, 8
1, 0, Tempo, 500000
1, 120040, End_track
2, 0, Start_track
2, 0, Text_t, "random instrument: random person i dunno whatev"
2, 0, Title_t, "Track 1"
2, 0, Note_on_c, 1, 34, 127
2, 0, Note_on_c, 1, 53, 127
2, 0, Note_on_c, 1, 56, 127
2, 0, Note_on_c, 1, 62, 127
2, 40, Note_off_c, 1, 34, 0
2, 40, Note_off_c, 1, 53, 0
2, 40, Note_off_c, 1, 56, 0
2, 40, Note_off_c, 1, 62, 0
2, 40, Note_on_c, 1, 67, 127
2, 40, Note_on_c, 1, 76, 127
2, 40, Note_on_c, 1, 79, 127
2, 40, Note_on_c, 1, 85, 127
2, 40, Note_on_c, 1, 88, 127
2, 80, Note_off_c, 1, 67, 0
2, 80, Note_off_c, 1, 76, 0
2, 80, Note_off_c, 1, 79, 0
2, 80, Note_off_c, 1, 85, 0
2, 80, Note_off_c, 1, 88, 0
2, 120, Note_on_c, 1, 34, 127
2, 120, Note_on_c, 1, 53, 127
2, 120, Note_on_c, 1, 56, 127
2, 120, Note_on_c, 1, 62, 127
2, 160, Note_off_c, 1, 34, 0
2, 160, Note_on_c, 1, 43, 127
2, 160, Note_on_c, 1, 47, 127
2, 160, Note_off_c, 1, 53, 0
2, 160, Note_on_c, 1, 55, 127
2, 160, Note_off_c, 1, 56, 0
2, 160, Note_off_c, 1, 62, 0
2, 160, Note_on_c, 1, 79, 127
2, 160, Note_on_c, 1, 83, 127
2, 160, Note_on_c, 1, 87, 127
2, 160, Note_on_c, 1, 91, 127
2, 200, Note_off_c, 1, 43, 0
2, 200, Note_off_c, 1, 47, 0
2, 200, Note_on_c, 1, 48, 127
2, 200, Note_off_c, 1, 55, 0
2, 200, Note_on_c, 1, 61, 127
2, 200, Note_on_c, 1, 64, 127
2, 200, Note_on_c, 1, 70, 127
2, 200, Note_off_c, 1, 79, 0
2, 200, Note_off_c, 1, 83, 0
2, 200, Note_off_c, 1, 87, 0
2, 200, Note_off_c, 1, 91, 0
2, 240, Note_on_c, 1, 42, 127
2, 240, Note_off_c, 1, 48, 0
2, 240, Note_on_c, 1, 55, 127
2, 240, Note_on_c, 1, 60, 127
2, 240, Note_off_c, 1, 61, 0
2, 240, Note_on_c, 1, 67, 127
2, 240, Note_off_c, 1, 70, 0
2, 280, Note_on_c, 1, 39, 127
2, 280, Note_off_c, 1, 42, 0
2, 280, Note_off_c, 1, 55, 0
2, 280, Note_on_c, 1, 56, 127
2, 280, Note_on_c, 1, 59, 127
2, 280, Note_off_c, 1, 60, 0
2, 280, Note_off_c, 1, 64, 0
2, 280, Note_on_c, 1, 66, 127
2, 280, Note_off_c, 1, 67, 0
2, 320, Note_off_c, 1, 39, 0
2, 320, Note_off_c, 1, 56, 0
2, 320, Note_off_c, 1, 59, 0
2, 320, Note_on_c, 1, 64, 127
2, 320, Note_off_c, 1, 66, 0
2, 320, Note_on_c, 1, 81, 127
2, 320, Note_on_c, 1, 83, 127
2, 320, Note_on_c, 1, 90, 127
2, 360, Note_off_c, 1, 64, 0
2, 360, Note_off_c, 1, 81, 0
2, 360, Note_off_c, 1, 83, 0
2, 360, Note_off_c, 1, 90, 0
2, 400, Note_on_c, 1, 38, 127
2, 400, Note_on_c, 1, 54, 127
2, 480, Note_off_c, 1, 54, 0
2, 520, Note_on_c, 1, 57, 127
2, 640, Note_off_c, 1, 57, 0
2, 680, Note_on_c, 1, 60, 127
2, 760, Note_off_c, 1, 38, 0
2, 760, Note_off_c, 1, 60, 0
2, 800, Note_on_c, 1, 52, 127
2, 960, Note_on_c, 1, 69, 127
2, 1200, Note_off_c, 1, 69, 0
2, 1240, Note_off_c, 1, 52, 0
2, 1240, Note_on_c, 1, 61, 127
2, 1240, Note_on_c, 1, 67, 127
2, 1960, Note_off_c, 1, 61, 0
2, 1960, Note_off_c, 1, 67, 0
2, 2040, Note_on_c, 1, 55, 127
2, 2040, Note_on_c, 1, 60, 127
2, 2040, Note_on_c, 1, 66, 127
2, 2360, Note_off_c, 1, 55, 0
2, 2360, Note_off_c, 1, 60, 0
2, 2360, Note_off_c, 1, 66, 0
2, 2400, Note_on_c, 1, 55, 127
2, 2400, Note_on_c, 1, 60, 127
2, 2400, Note_on_c, 1, 66, 127
2, 3040, Note_off_c, 1, 60, 0
2, 3040, Note_off_c, 1, 66, 0
2, 3120, Note_on_c, 1, 48, 127
2, 3120, Note_on_c, 1, 64, 127
2, 3280, Note_off_c, 1, 48, 0
2, 3280, Note_off_c, 1, 55, 0
2, 3280, Note_on_c, 1, 59, 127
2, 3280, Note_on_c, 1, 62, 127
2, 3280, Note_off_c, 1, 64, 0
2, 3280, Note_on_c, 1, 67, 127
2, 3280, Note_on_c, 1, 69, 127
2, 3360, Note_on_c, 1, 43, 127
2, 3360, Note_off_c, 1, 59, 0
2, 3360, Note_off_c, 1, 62, 0
2, 3360, Note_off_c, 1, 69, 0
2, 3400, Note_off_c, 1, 43, 0
2, 3400, Note_on_c, 1, 59, 127
2, 3400, Note_on_c, 1, 62, 127
2, 3640, Note_off_c, 1, 59, 0
2, 3640, Note_off_c, 1, 62, 0
2, 3640, Note_off_c, 1, 67, 0
2, 3680, Note_on_c, 1, 31, 127
2, 3680, Note_on_c, 1, 43, 127
2, 3680, Note_on_c, 1, 58, 127
2, 3840, Note_off_c, 1, 58, 0
2, 4120, Note_on_c, 1, 50, 127
2, 4280, Note_off_c, 1, 50, 0
2, 4320, Note_on_c, 1, 63, 127
2, 4520, Note_off_c, 1, 31, 0
2, 4520, Note_off_c, 1, 43, 0
2, 4520, Note_off_c, 1, 63, 0
2, 4560, Note_on_c, 1, 31, 127
2, 4560, Note_on_c, 1, 43, 127
2, 4560, Note_on_c, 1, 63, 127
2, 4880, Note_off_c, 1, 63, 0
2, 4920, Note_on_c, 1, 58, 127
2, 5040, Note_off_c, 1, 31, 0
2, 5040, Note_off_c, 1, 43, 0
2, 5040, Note_off_c, 1, 58, 0
2, 5080, Note_on_c, 1, 31, 127
2, 5080, Note_on_c, 1, 43, 127
2, 5800, Note_off_c, 1, 31, 0
2, 5800, Note_off_c, 1, 43, 0
2, 5840, Note_on_c, 1, 32, 127
2, 5840, Note_on_c, 1, 44, 127
2, 6560, Note_off_c, 1, 32, 0
2, 6560, Note_off_c, 1, 44, 0
2, 6600, Note_on_c, 1, 32, 127
2, 6600, Note_on_c, 1, 44, 127
2, 6720, Note_off_c, 1, 32, 0
2, 6720, Note_off_c, 1, 44, 0
2, 6760, Note_on_c, 1, 37, 127
2, 6840, Note_off_c, 1, 37, 0
2, 6880, Note_on_c, 1, 33, 127
2, 6880, Note_on_c, 1, 45, 127
2, 7040, Note_off_c, 1, 33, 0
2, 7040, Note_off_c, 1, 45, 0
2, 7080, Note_on_c, 1, 39, 127
2, 7120, Note_off_c, 1, 39, 0
2, 7120, Note_on_c, 1, 51, 127
2, 7160, Note_off_c, 1, 51, 0
2, 7200, Note_on_c, 1, 52, 127
2, 7240, Note_off_c, 1, 52, 0
2, 7240, Note_on_c, 1, 56, 127
2, 7320, Note_off_c, 1, 56, 0
2, 7320, Note_on_c, 1, 57, 127
2, 7360, Note_off_c, 1, 57, 0
2, 7400, Note_on_c, 1, 56, 127
2, 7440, Note_off_c, 1, 56, 0
2, 7440, Note_on_c, 1, 72, 127
2, 7480, Note_on_c, 1, 56, 127
2, 7480, Note_off_c, 1, 72, 0
2, 7520, Note_off_c, 1, 56, 0
2, 7520, Note_on_c, 1, 59, 127
2, 7560, Note_off_c, 1, 59, 0
2, 7560, Note_on_c, 1, 63, 127
2, 7600, Note_off_c, 1, 63, 0
2, 7640, Note_on_c, 1, 69, 127
2, 7680, Note_on_c, 1, 68, 127
2, 7680, Note_off_c, 1, 69, 0
2, 7720, Note_on_c, 1, 63, 127
2, 7720, Note_off_c, 1, 68, 0
2, 7760, Note_on_c, 1, 61, 127
2, 7760, Note_off_c, 1, 63, 0
2, 7800, Note_off_c, 1, 61, 0
2, 7840, Note_on_c, 1, 56, 127
2, 7960, Note_off_c, 1, 56, 0
2, 7960, Note_on_c, 1, 59, 127
2, 8000, Note_on_c, 1, 53, 127
2, 8000, Note_off_c, 1, 59, 0
2, 8040, Note_off_c, 1, 53, 0
2, 8080, Note_on_c, 1, 56, 127
2, 8280, Note_off_c, 1, 56, 0
2, 8320, Note_on_c, 1, 35, 127
2, 8360, Note_off_c, 1, 35, 0
2, 8360, Note_on_c, 1, 37, 127
2, 8400, Note_off_c, 1, 37, 0
2, 8400, Note_on_c, 1, 48, 127
2, 8440, Note_off_c, 1, 48, 0
2, 8440, Note_on_c, 1, 54, 127
2, 8480, Note_off_c, 1, 54, 0
2, 8560, Note_on_c, 1, 53, 127
2, 8600, Note_on_c, 1, 51, 127
2, 8600, Note_off_c, 1, 53, 0
2, 8640, Note_off_c, 1, 51, 0
2, 8640, Note_on_c, 1, 52, 127
2, 8680, Note_on_c, 1, 48, 127
2, 8680, Note_off_c, 1, 52, 0
2, 8720, Note_off_c, 1, 48, 0
2, 8720, Note_on_c, 1, 51, 127
2, 8760, Note_off_c, 1, 51, 0
2, 8800, Note_on_c, 1, 48, 127
2, 8840, Note_off_c, 1, 48, 0
2, 8840, Note_on_c, 1, 49, 127
2, 8880, Note_on_c, 1, 48, 127
2, 8880, Note_off_c, 1, 49, 0
2, 8920, Note_off_c, 1, 48, 0
2, 8920, Note_on_c, 1, 51, 127
2, 8960, Note_off_c, 1, 51, 0
2, 9000, Note_on_c, 1, 60, 127
2, 9080, Note_off_c, 1, 60, 0
2, 9080, Note_on_c, 1, 61, 127
2, 9120, Note_off_c, 1, 61, 0
2, 9120, Note_on_c, 1, 64, 127
2, 9160, Note_on_c, 1, 63, 127
2, 9160, Note_off_c, 1, 64, 0
2, 9200, Note_off_c, 1, 63, 0
2, 9240, Note_on_c, 1, 63, 127
2, 9280, Note_off_c, 1, 63, 0
2, 9280, Note_on_c, 1, 66, 127
2, 9320, Note_on_c, 1, 63, 127
2, 9320, Note_off_c, 1, 66, 0
2, 9440, Note_off_c, 1, 63, 0
2, 9480, Note_on_c, 1, 52, 127
2, 9480, Note_on_c, 1, 61, 127
2, 9520, Note_off_c, 1, 52, 0
2, 9520, Note_on_c, 1, 56, 127
2, 9520, Note_off_c, 1, 61, 0
2, 9560, Note_off_c, 1, 56, 0
2, 9560, Note_on_c, 1, 60, 127
2, 9600, Note_off_c, 1, 60, 0
2, 9600, Note_on_c, 1, 61, 127
2, 9640, Note_off_c, 1, 61, 0
2, 9680, Note_on_c, 1, 56, 127
2, 9760, Note_off_c, 1, 56, 0
2, 9760, Note_on_c, 1, 57, 127
2, 9800, Note_off_c, 1, 57, 0
2, 9800, Note_on_c, 1, 60, 127
2, 9840, Note_off_c, 1, 60, 0
2, 9840, Note_on_c, 1, 63, 127
2, 9880, Note_off_c, 1, 63, 0
2, 9920, Note_on_c, 1, 61, 127
2, 9960, Note_on_c, 1, 56, 127
2, 9960, Note_off_c, 1, 61, 0
2, 10000, Note_on_c, 1, 54, 127
2, 10000, Note_off_c, 1, 56, 0
2, 10080, Note_on_c, 1, 51, 127
2, 10080, Note_off_c, 1, 54, 0
2, 10120, Note_off_c, 1, 51, 0
2, 10160, Note_on_c, 1, 44, 127
2, 10200, Note_off_c, 1, 44, 0
2, 10200, Note_on_c, 1, 53, 127
2, 10240, Note_off_c, 1, 53, 0
2, 10240, Note_on_c, 1, 57, 127
2, 10280, Note_on_c, 1, 56, 127
2, 10280, Note_off_c, 1, 57, 0
2, 10320, Note_off_c, 1, 56, 0
2, 10360, Note_on_c, 1, 62, 127
2, 10400, Note_off_c, 1, 62, 0
2, 10440, Note_on_c, 1, 56, 127
2, 10560, Note_off_c, 1, 56, 0
2, 10600, Note_on_c, 1, 56, 127
2, 10640, Note_off_c, 1, 56, 0
2, 10640, Note_on_c, 1, 58, 127
2, 10680, Note_on_c, 1, 56, 127
2, 10680, Note_off_c, 1, 58, 0
2, 10720, Note_off_c, 1, 56, 0
2, 10720, Note_on_c, 1, 58, 127
2, 10760, Note_off_c, 1, 58, 0
2, 10800, Note_on_c, 1, 58, 127
2, 10840, Note_on_c, 1, 56, 127
2, 10840, Note_off_c, 1, 58, 0
2, 10880, Note_off_c, 1, 56, 0
2, 10880, Note_on_c, 1, 58, 127
2, 10920, Note_off_c, 1, 58, 0
2, 10920, Note_on_c, 1, 61, 127
2, 10960, Note_on_c, 1, 59, 127
2, 10960, Note_off_c, 1, 61, 0
2, 11000, Note_off_c, 1, 59, 0
2, 11040, Note_on_c, 1, 63, 127
2, 11080, Note_on_c, 1, 61, 127
2, 11080, Note_off_c, 1, 63, 0
2, 11120, Note_off_c, 1, 61, 0
2, 11120, Note_on_c, 1, 63, 127
2, 11200, Note_off_c, 1, 63, 0
2, 11240, Note_on_c, 1, 61, 127
2, 11320, Note_on_c, 1, 60, 127
2, 11320, Note_off_c, 1, 61, 0
2, 11360, Note_off_c, 1, 60, 0
2, 11360, Note_on_c, 1, 63, 127
2, 11400, Note_off_c, 1, 63, 0
2, 11440, Note_on_c, 1, 61, 127
2, 11480, Note_on_c, 1, 56, 127
2, 11480, Note_off_c, 1, 61, 0
2, 11520, Note_off_c, 1, 56, 0
2, 11520, Note_on_c, 1, 61, 127
2, 11600, Note_off_c, 1, 61, 0
2, 11640, Note_on_c, 1, 58, 127
2, 11680, Note_off_c, 1, 58, 0
2, 11680, Note_on_c, 1, 61, 127
2, 11720, Note_on_c, 1, 56, 127
2, 11720, Note_off_c, 1, 61, 0
2, 11760, Note_off_c, 1, 56, 0
2, 11760, Note_on_c, 1, 61, 127
2, 11840, Note_off_c, 1, 61, 0
2, 11880, Note_on_c, 1, 60, 127
2, 11920, Note_on_c, 1, 58, 127
2, 11920, Note_off_c, 1, 60, 0
2, 11960, Note_on_c, 1, 56, 127
2, 11960, Note_off_c, 1, 58, 0
2, 12080, Note_off_c, 1, 56, 0
2, 12120, Note_on_c, 1, 56, 127
2, 12240, Note_off_c, 1, 56, 0
2, 12280, Note_on_c, 1, 55, 127
2, 12320, Note_off_c, 1, 55, 0
2, 12360, Note_on_c, 1, 56, 127
2, 12440, Note_off_c, 1, 56, 0
2, 12520, Note_on_c, 1, 54, 127
2, 12600, Note_off_c, 1, 54, 0
2, 12640, Note_on_c, 1, 51, 127
2, 13120, Note_off_c, 1, 51, 0
2, 13160, Note_on_c, 1, 49, 127
2, 13160, Note_on_c, 1, 80, 127
2, 13200, Note_off_c, 1, 49, 0
2, 13200, Note_on_c, 1, 52, 127
2, 13240, Note_off_c, 1, 52, 0
2, 13240, Note_on_c, 1, 56, 127
2, 13520, Note_off_c, 1, 56, 0
2, 13560, Note_on_c, 1, 49, 127
2, 13560, Note_on_c, 1, 73, 127
2, 13920, Note_off_c, 1, 73, 0
2, 13960, Note_on_c, 1, 37, 127
2, 13960, Note_off_c, 1, 49, 0
2, 14120, Note_off_c, 1, 37, 0
2, 14120, Note_off_c, 1, 80, 0
2, 14160, Note_on_c, 1, 32, 127
2, 14160, Note_on_c, 1, 75, 127
2, 14520, Note_off_c, 1, 32, 0
2, 14520, Note_off_c, 1, 75, 0
2, 14560, Note_on_c, 1, 32, 127
2, 14560, Note_on_c, 1, 75, 127
2, 14800, Note_off_c, 1, 32, 0
2, 14840, Note_on_c, 1, 45, 127
2, 15040, Note_off_c, 1, 45, 0
2, 15040, Note_on_c, 1, 54, 127
2, 15040, Note_on_c, 1, 62, 127
2, 15040, Note_off_c, 1, 75, 0
2, 15040, Note_on_c, 1, 78, 127
2, 15080, Note_on_c, 1, 50, 127
2, 15080, Note_off_c, 1, 54, 0
2, 15080, Note_off_c, 1, 62, 0
2, 15120, Note_off_c, 1, 50, 0
2, 15160, Note_on_c, 1, 57, 127
2, 15160, Note_on_c, 1, 76, 127
2, 15240, Note_off_c, 1, 57, 0
2, 15240, Note_off_c, 1, 76, 0
2, 15240, Note_off_c, 1, 78, 0
2, 15440, Note_on_c, 1, 63, 127
2, 15640, Note_off_c, 1, 63, 0
2, 15840, Note_on_c, 1, 75, 127
2, 16080, Note_on_c, 1, 57, 127
2, 16080, Note_on_c, 1, 60, 127
2, 16080, Note_on_c, 1, 63, 127
2, 16080, Note_on_c, 1, 72, 127
2, 16080, Note_off_c, 1, 75, 0
2, 16080, Note_on_c, 1, 78, 127
2, 16080, Note_on_c, 1, 83, 127
2, 16120, Note_off_c, 1, 63, 0
2, 16120, Note_off_c, 1, 72, 0
2, 16120, Note_off_c, 1, 78, 0
2, 16120, Note_off_c, 1, 83, 0
2, 16240, Note_on_c, 1, 76, 127
2, 16280, Note_off_c, 1, 76, 0
2, 16320, Note_on_c, 1, 74, 127
2, 16360, Note_on_c, 1, 72, 127
2, 16360, Note_off_c, 1, 74, 0
2, 16480, Note_off_c, 1, 57, 0
2, 16480, Note_off_c, 1, 60, 0
2, 16480, Note_off_c, 1, 72, 0
2, 16520, Note_on_c, 1, 57, 127
2, 16520, Note_on_c, 1, 60, 127
2, 16560, Note_on_c, 1, 74, 127
2, 16760, Note_on_c, 1, 66, 127
2, 16760, Note_off_c, 1, 74, 0
2, 16800, Note_off_c, 1, 66, 0
2, 16800, Note_on_c, 1, 70, 127
2, 16960, Note_off_c, 1, 70, 0
2, 17200, Note_off_c, 1, 57, 0
2, 17200, Note_off_c, 1, 60, 0
2, 17240, Note_on_c, 1, 46, 127
2, 17240, Note_on_c, 1, 72, 127
2, 17600, Note_off_c, 1, 46, 0
2, 17640, Note_on_c, 1, 41, 127
2, 17640, Note_on_c, 1, 68, 127
2, 18040, Note_off_c, 1, 41, 0
2, 18080, Note_on_c, 1, 53, 127
2, 18080, Note_on_c, 1, 56, 127
2, 18080, Note_on_c, 1, 65, 127
2, 18080, Note_off_c, 1, 72, 0
2, 18360, Note_off_c, 1, 53, 0
2, 18360, Note_off_c, 1, 56, 0
2, 18360, Note_off_c, 1, 65, 0
2, 18360, Note_off_c, 1, 68, 0
2, 18400, Note_on_c, 1, 53, 127
2, 18400, Note_on_c, 1, 56, 127
2, 18400, Note_on_c, 1, 65, 127
2, 18400, Note_on_c, 1, 68, 127
2, 18920, Note_off_c, 1, 53, 0
2, 18920, Note_off_c, 1, 56, 0
2, 18920, Note_off_c, 1, 65, 0
2, 18920, Note_off_c, 1, 68, 0
2, 18960, Note_on_c, 1, 51, 127
2, 18960, Note_on_c, 1, 58, 127
2, 18960, Note_on_c, 1, 61, 127
2, 18960, Note_on_c, 1, 63, 127
2, 18960, Note_on_c, 1, 67, 127
2, 19760, Note_off_c, 1, 51, 0
2, 19760, Note_off_c, 1, 58, 0
2, 19760, Note_off_c, 1, 61, 0
2, 19760, Note_off_c, 1, 63, 0
2, 19760, Note_off_c, 1, 67, 0
2, 19840, Note_on_c, 1, 49, 127
2, 19840, Note_on_c, 1, 56, 127
2, 19840, Note_on_c, 1, 61, 127
2, 19840, Note_on_c, 1, 64, 127
2, 19840, Note_on_c, 1, 68, 127
2, 19840, Note_on_c, 1, 73, 127
2, 20440, Note_on_c, 1, 58, 127
2, 20440, Note_off_c, 1, 61, 0
2, 20440, Note_off_c, 1, 64, 0
2, 20440, Note_on_c, 1, 70, 127
2, 20440, Note_off_c, 1, 73, 0
2, 20440, Note_on_c, 1, 77, 127
2, 20440, Note_on_c, 1, 80, 127
2, 20480, Note_off_c, 1, 49, 0
2, 20480, Note_on_c, 1, 53, 127
2, 20480, Note_off_c, 1, 58, 0
2, 20480, Note_on_c, 1, 59, 127
2, 20480, Note_on_c, 1, 61, 127
2, 20480, Note_off_c, 1, 68, 0
2, 20480, Note_off_c, 1, 70, 0
2, 20480, Note_off_c, 1, 77, 0
2, 20480, Note_off_c, 1, 80, 0
2, 20480, Note_on_c, 1, 89, 127
2, 20520, Note_off_c, 1, 53, 0
2, 20520, Note_off_c, 1, 56, 0
2, 20520, Note_off_c, 1, 59, 0
2, 20520, Note_off_c, 1, 61, 0
2, 20520, Note_off_c, 1, 89, 0
2, 21360, Note_on_c, 1, 54, 127
2, 21360, Note_on_c, 1, 59, 127
2, 21360, Note_on_c, 1, 62, 127
2, 21360, Note_on_c, 1, 65, 127
2, 21360, Note_on_c, 1, 95, 127
2, 21400, Note_on_c, 1, 43, 127
2, 21400, Note_off_c, 1, 54, 0
2, 21400, Note_off_c, 1, 59, 0
2, 21400, Note_off_c, 1, 62, 0
2, 21400, Note_on_c, 1, 67, 127
2, 21400, Note_on_c, 1, 75, 127
2, 21400, Note_off_c, 1, 95, 0
2, 21440, Note_off_c, 1, 43, 0
2, 21440, Note_on_c, 1, 54, 127
2, 21440, Note_on_c, 1, 62, 127
2, 21440, Note_off_c, 1, 65, 0
2, 21440, Note_on_c, 1, 66, 127
2, 21440, Note_off_c, 1, 67, 0
2, 21440, Note_off_c, 1, 75, 0
2, 21440, Note_on_c, 1, 86, 127
2, 21480, Note_on_c, 1, 39, 127
2, 21480, Note_on_c, 1, 48, 127
2, 21480, Note_on_c, 1, 51, 127
2, 21480, Note_off_c, 1, 54, 0
2, 21480, Note_off_c, 1, 62, 0
2, 21480, Note_off_c, 1, 66, 0
2, 21480, Note_off_c, 1, 86, 0
2, 21480, Note_on_c, 1, 87, 127
2, 21480, Note_on_c, 1, 91, 127
2, 21520, Note_off_c, 1, 39, 0
2, 21520, Note_off_c, 1, 48, 0
2, 21520, Note_off_c, 1, 51, 0
2, 21520, Note_off_c, 1, 87, 0
2, 21520, Note_off_c, 1, 91, 0
2, 22200, Note_on_c, 1, 59, 127
2, 22200, Note_on_c, 1, 63, 127
2, 22200, Note_on_c, 1, 65, 127
2, 22200, Note_on_c, 1, 68, 127
2, 22280, Note_off_c, 1, 59, 0
2, 22280, Note_off_c, 1, 63, 0
2, 22280, Note_off_c, 1, 65, 0
2, 22280, Note_off_c, 1, 68, 0
2, 22840, Note_on_c, 1, 36, 127
2, 22840, Note_on_c, 1, 43, 127
2, 22840, Note_on_c, 1, 53, 127
2, 22840, Note_on_c, 1, 55, 127
2, 22840, Note_on_c, 1, 59, 127
2, 22880, Note_off_c, 1, 36, 0
2, 22880, Note_off_c, 1, 43, 0
2, 22880, Note_off_c, 1, 53, 0
2, 22880, Note_off_c, 1, 55, 0
2, 22880, Note_off_c, 1, 59, 0
2, 22920, Note_on_c, 1, 43, 127
2, 22920, Note_on_c, 1, 59, 127
2, 22920, Note_on_c, 1, 67, 127
2, 22920, Note_on_c, 1, 71, 127
2, 22920, Note_on_c, 1, 74, 127
2, 22960, Note_off_c, 1, 43, 0
2, 22960, Note_on_c, 1, 46, 127
2, 22960, Note_on_c, 1, 49, 127
2, 22960, Note_on_c, 1, 53, 127
2, 22960, Note_on_c, 1, 58, 127
2, 22960, Note_off_c, 1, 59, 0
2, 22960, Note_off_c, 1, 67, 0
2, 22960, Note_off_c, 1, 71, 0
2, 22960, Note_off_c, 1, 74, 0
2, 22960, Note_on_c, 1, 75, 127
2, 23000, Note_off_c, 1, 46, 0
2, 23000, Note_off_c, 1, 49, 0
2, 23000, Note_off_c, 1, 53, 0
2, 23000, Note_off_c, 1, 58, 0
2, 23000, Note_off_c, 1, 75, 0
2, 23320, Note_on_c, 1, 45, 127
2, 23320, Note_on_c, 1, 48, 127
2, 23320, Note_on_c, 1, 79, 127
2, 23320, Note_on_c, 1, 87, 127
2, 23360, Note_off_c, 1, 45, 0
2, 23360, Note_off_c, 1, 48, 0
2, 23360, Note_on_c, 1, 57, 127
2, 23360, Note_on_c, 1, 62, 127
2, 23360, Note_on_c, 1, 74, 127
2, 23360, Note_on_c, 1, 78, 127
2, 23360, Note_off_c, 1, 79, 0
2, 23360, Note_on_c, 1, 86, 127
2, 23360, Note_off_c, 1, 87, 0
2, 23400, Note_on_c, 1, 55, 127
2, 23400, Note_off_c, 1, 57, 0
2, 23400, Note_on_c, 1, 58, 127
2, 23400, Note_off_c, 1, 62, 0
2, 23400, Note_on_c, 1, 67, 127
2, 23400, Note_off_c, 1, 74, 0
2, 23400, Note_off_c, 1, 78, 0
2, 23400, Note_on_c, 1, 79, 127
2, 23400, Note_on_c, 1, 82, 127
2, 23400, Note_off_c, 1, 86, 0
2, 23440, Note_on_c, 1, 33, 127
2, 23440, Note_on_c, 1, 40, 127
2, 23440, Note_on_c, 1, 45, 127
2, 23440, Note_on_c, 1, 49, 127
2, 23440, Note_on_c, 1, 52, 127
2, 23440, Note_off_c, 1, 55, 0
2, 23440, Note_on_c, 1, 57, 127
2, 23440, Note_off_c, 1, 58, 0
2, 23440, Note_on_c, 1, 61, 127
2, 23440, Note_on_c, 1, 64, 127
2, 23440, Note_off_c, 1, 67, 0
2, 23440, Note_on_c, 1, 69, 127
2, 23440, Note_off_c, 1, 79, 0
2, 23440, Note_on_c, 1, 81, 127
2, 23440, Note_off_c, 1, 82, 0
2, 23440, Note_on_c, 1, 85, 127
2, 23440, Note_on_c, 1, 93, 127
2, 23480, Note_off_c, 1, 33, 0
2, 23480, Note_off_c, 1, 40, 0
2, 23480, Note_off_c, 1, 45, 0
2, 23480, Note_off_c, 1, 49, 0
2, 23480, Note_off_c, 1, 52, 0
2, 23480, Note_off_c, 1, 57, 0
2, 23480, Note_off_c, 1, 61, 0
2, 23480, Note_off_c, 1, 64, 0
2, 23480, Note_off_c, 1, 69, 0
2, 23480, Note_off_c, 1, 81, 0
2, 23480, Note_off_c, 1, 85, 0
2, 23480, Note_off_c, 1, 93, 0
2, 23760, Note_on_c, 1, 92, 127
2, 23760, Note_on_c, 1, 102, 127
2, 23800, Note_off_c, 1, 92, 0
2, 23800, Note_on_c, 1, 93, 127
2, 23800, Note_on_c, 1, 94, 127
2, 23800, Note_off_c, 1, 102, 0
2, 23840, Note_on_c, 1, 91, 127
2, 23840, Note_on_c, 1, 92, 127
2, 23840, Note_off_c, 1, 93, 0
2, 23840, Note_off_c, 1, 94, 0
2, 23880, Note_off_c, 1, 91, 0
2, 23920, Note_off_c, 1, 92, 0
2, 23960, Note_on_c, 1, 91, 127
2, 24040, Note_off_c, 1, 91, 0
2, 24080, Note_on_c, 1, 92, 127
2, 24120, Note_off_c, 1, 92, 0
2, 24160, Note_on_c, 1, 92, 127
2, 24240, Note_off_c, 1, 92, 0
2, 24280, Note_on_c, 1, 91, 127
2, 24320, Note_off_c, 1, 91, 0
2, 24360, Note_on_c, 1, 92, 127
2, 24440, Note_off_c, 1, 92, 0
2, 24480, Note_on_c, 1, 88, 127
2, 24560, Note_off_c, 1, 88, 0
2, 24600, Note_on_c, 1, 89, 127
2, 24680, Note_off_c, 1, 89, 0
2, 24720, Note_on_c, 1, 87, 127
2, 24800, Note_off_c, 1, 87, 0
2, 24840, Note_on_c, 1, 84, 127
2, 24920, Note_off_c, 1, 84, 0
2, 25000, Note_on_c, 1, 84, 127
2, 25040, Note_off_c, 1, 84, 0
2, 25080, Note_on_c, 1, 86, 127
2, 25160, Note_off_c, 1, 86, 0
2, 25200, Note_on_c, 1, 84, 127
2, 25280, Note_off_c, 1, 84, 0
2, 25320, Note_on_c, 1, 82, 127
2, 25360, Note_off_c, 1, 82, 0
2, 25400, Note_on_c, 1, 81, 127
2, 25480, Note_off_c, 1, 81, 0
2, 25520, Note_on_c, 1, 79, 127
2, 25600, Note_off_c, 1, 79, 0
2, 25640, Note_on_c, 1, 77, 127
2, 25680, Note_off_c, 1, 77, 0
2, 25720, Note_on_c, 1, 91, 127
2, 25800, Note_off_c, 1, 91, 0
2, 25840, Note_on_c, 1, 92, 127
2, 25920, Note_off_c, 1, 92, 0
2, 25960, Note_on_c, 1, 91, 127
2, 26040, Note_off_c, 1, 91, 0
2, 26080, Note_on_c, 1, 89, 127
2, 26120, Note_off_c, 1, 89, 0
2, 26160, Note_on_c, 1, 65, 127
2, 26160, Note_on_c, 1, 69, 127
2, 26160, Note_on_c, 1, 75, 127
2, 26160, Note_on_c, 1, 89, 127
2, 26240, Note_on_c, 1, 55, 127
2, 26240, Note_off_c, 1, 65, 0
2, 26240, Note_off_c, 1, 69, 0
2, 26240, Note_off_c, 1, 75, 0
2, 26240, Note_on_c, 1, 86, 127
2, 26240, Note_off_c, 1, 89, 0
2, 26240, Note_on_c, 1, 93, 127
2, 26280, Note_on_c, 1, 45, 127
2, 26280, Note_off_c, 1, 55, 0
2, 26280, Note_on_c, 1, 69, 127
2, 26280, Note_on_c, 1, 79, 127
2, 26280, Note_off_c, 1, 86, 0
2, 26280, Note_off_c, 1, 93, 0
2, 26320, Note_on_c, 1, 39, 127
2, 26320, Note_off_c, 1, 45, 0
2, 26320, Note_on_c, 1, 51, 127
2, 26320, Note_on_c, 1, 63, 127
2, 26320, Note_off_c, 1, 69, 0
2, 26320, Note_on_c, 1, 71, 127
2, 26320, Note_on_c, 1, 75, 127
2, 26320, Note_off_c, 1, 79, 0
2, 26360, Note_on_c, 1, 38, 127
2, 26360, Note_off_c, 1, 39, 0
2, 26360, Note_on_c, 1, 50, 127
2, 26360, Note_off_c, 1, 51, 0
2, 26360, Note_off_c, 1, 63, 0
2, 26360, Note_off_c, 1, 75, 0
2, 26360, Note_on_c, 1, 77, 127
2, 26360, Note_on_c, 1, 83, 127
2, 26400, Note_off_c, 1, 38, 0
2, 26400, Note_off_c, 1, 50, 0
2, 26400, Note_on_c, 1, 60, 127
2, 26400, Note_on_c, 1, 67, 127
2, 26400, Note_on_c, 1, 70, 127
2, 26400, Note_off_c, 1, 71, 0
2, 26400, Note_off_c, 1, 77, 0
2, 26400, Note_off_c, 1, 83, 0
2, 26400, Note_on_c, 1, 91, 127
2, 26440, Note_off_c, 1, 60, 0
2, 26440, Note_off_c, 1, 67, 0
2, 26440, Note_off_c, 1, 70, 0
2, 26440, Note_on_c, 1, 79, 127
2, 26440, Note_on_c, 1, 82, 127
2, 26440, Note_on_c, 1, 89, 127
2, 26440, Note_off_c, 1, 91, 0
2, 26480, Note_on_c, 1, 55, 127
2, 26480, Note_on_c, 1, 62, 127
2, 26480, Note_on_c, 1, 65, 127
2, 26480, Note_on_c, 1, 74, 127
2, 26480, Note_on_c, 1, 77, 127
2, 26480, Note_off_c, 1, 79, 0
2, 26480, Note_off_c, 1, 82, 0
2, 26480, Note_off_c, 1, 89, 0
2, 26520, Note_off_c, 1, 55, 0
2, 26520, Note_off_c, 1, 62, 0
2, 26520, Note_off_c, 1, 65, 0
2, 26520, Note_off_c, 1, 74, 0
2, 26520, Note_off_c, 1, 77, 0
2, 26800, Note_on_c, 1, 86, 127
2, 26840, Note_off_c, 1, 86, 0
2, 26920, Note_on_c, 1, 86, 127
2, 26960, Note_off_c, 1, 86, 0
2, 27040, Note_on_c, 1, 89, 127
2, 27120, Note_off_c, 1, 89, 0
2, 27160, Note_on_c, 1, 87, 127
2, 27240, Note_off_c, 1, 87, 0
2, 27280, Note_on_c, 1, 86, 127
2, 27320, Note_off_c, 1, 86, 0
2, 27360, Note_on_c, 1, 84, 127
2, 27440, Note_off_c, 1, 84, 0
2, 27480, Note_on_c, 1, 82, 127
2, 27520, Note_off_c, 1, 82, 0
2, 27560, Note_on_c, 1, 80, 127
2, 27640, Note_off_c, 1, 80, 0
2, 27680, Note_on_c, 1, 79, 127
2, 27720, Note_off_c, 1, 79, 0
2, 27760, Note_on_c, 1, 77, 127
2, 27840, Note_off_c, 1, 77, 0
2, 27880, Note_on_c, 1, 74, 127
2, 28120, Note_off_c, 1, 74, 0
2, 28160, Note_on_c, 1, 77, 127
2, 28240, Note_off_c, 1, 77, 0
2, 28280, Note_on_c, 1, 80, 127
2, 28360, Note_off_c, 1, 80, 0
2, 28400, Note_on_c, 1, 74, 127
2, 28440, Note_off_c, 1, 74, 0
2, 28480, Note_on_c, 1, 75, 127
2, 28560, Note_off_c, 1, 75, 0
2, 28600, Note_on_c, 1, 72, 127
2, 28680, Note_off_c, 1, 72, 0
2, 28720, Note_on_c, 1, 70, 127
2, 28800, Note_off_c, 1, 70, 0
2, 28840, Note_on_c, 1, 69, 127
2, 28880, Note_off_c, 1, 69, 0
2, 28920, Note_on_c, 1, 65, 127
2, 29000, Note_off_c, 1, 65, 0
2, 29040, Note_on_c, 1, 63, 127
2, 29120, Note_off_c, 1, 63, 0
2, 29200, Note_on_c, 1, 67, 127
2, 29280, Note_off_c, 1, 67, 0
2, 29320, Note_on_c, 1, 63, 127
2, 29400, Note_off_c, 1, 63, 0
2, 29440, Note_on_c, 1, 65, 127
2, 29480, Note_off_c, 1, 65, 0
2, 29520, Note_on_c, 1, 62, 127
2, 29600, Note_off_c, 1, 62, 0
2, 29640, Note_on_c, 1, 60, 127
2, 29720, Note_off_c, 1, 60, 0
2, 29760, Note_on_c, 1, 60, 127
2, 29800, Note_off_c, 1, 60, 0
2, 29840, Note_on_c, 1, 58, 127
2, 29920, Note_off_c, 1, 58, 0
2, 29960, Note_on_c, 1, 62, 127
2, 30040, Note_off_c, 1, 62, 0
2, 30080, Note_on_c, 1, 63, 127
2, 30120, Note_off_c, 1, 63, 0
2, 30160, Note_on_c, 1, 67, 127
2, 30240, Note_off_c, 1, 67, 0
2, 30280, Note_on_c, 1, 70, 127
2, 30360, Note_off_c, 1, 70, 0
2, 30400, Note_on_c, 1, 74, 127
2, 30440, Note_off_c, 1, 74, 0
2, 30480, Note_on_c, 1, 77, 127
2, 30560, Note_off_c, 1, 77, 0
2, 30600, Note_on_c, 1, 75, 127
2, 30680, Note_off_c, 1, 75, 0
2, 30720, Note_on_c, 1, 74, 127
2, 30760, Note_off_c, 1, 74, 0
2, 30800, Note_on_c, 1, 72, 127
2, 30880, Note_off_c, 1, 72, 0
2, 30920, Note_on_c, 1, 70, 127
2, 31200, Note_off_c, 1, 70, 0
2, 31280, Note_on_c, 1, 39, 127
2, 31280, Note_on_c, 1, 67, 127
2, 31360, Note_on_c, 1, 37, 127
2, 31360, Note_off_c, 1, 39, 0
2, 31400, Note_off_c, 1, 37, 0
2, 31400, Note_on_c, 1, 39, 127
2, 31440, Note_off_c, 1, 39, 0
2, 31480, Note_on_c, 1, 60, 127
2, 31480, Note_off_c, 1, 67, 0
2, 31520, Note_off_c, 1, 60, 0
2, 31560, Note_on_c, 1, 58, 127
2, 31600, Note_off_c, 1, 58, 0
2, 31640, Note_on_c, 1, 55, 127
2, 31720, Note_off_c, 1, 55, 0
2, 31760, Note_on_c, 1, 51, 127
2, 31800, Note_off_c, 1, 51, 0
2, 31840, Note_on_c, 1, 51, 127
2, 31920, Note_off_c, 1, 51, 0
2, 31960, Note_on_c, 1, 53, 127
2, 31960, Note_on_c, 1, 62, 127
2, 32000, Note_off_c, 1, 53, 0
2, 32000, Note_off_c, 1, 62, 0
2, 32040, Note_on_c, 1, 51, 127
2, 32040, Note_on_c, 1, 60, 127
2, 32120, Note_off_c, 1, 51, 0
2, 32120, Note_off_c, 1, 60, 0
2, 32160, Note_on_c, 1, 53, 127
2, 32160, Note_on_c, 1, 62, 127
2, 32320, Note_off_c, 1, 53, 0
2, 32320, Note_off_c, 1, 62, 0
2, 32360, Note_on_c, 1, 51, 127
2, 32360, Note_on_c, 1, 60, 127
2, 32520, Note_off_c, 1, 51, 0
2, 32520, Note_off_c, 1, 60, 0
2, 32560, Note_on_c, 1, 36, 127
2, 32560, Note_on_c, 1, 67, 127
2, 32920, Note_off_c, 1, 36, 0
2, 33120, Note_off_c, 1, 67, 0
2, 33200, Note_on_c, 1, 50, 127
2, 33200, Note_on_c, 1, 66, 127
2, 33640, Note_off_c, 1, 50, 0
2, 33640, Note_off_c, 1, 66, 0
2, 33680, Note_on_c, 1, 47, 127
2, 33680, Note_on_c, 1, 62, 127
2, 34240, Note_off_c, 1, 47, 0
2, 34240, Note_off_c, 1, 62, 0
2, 34280, Note_on_c, 1, 46, 127
2, 34280, Note_on_c, 1, 74, 127
2, 34880, Note_off_c, 1, 46, 0
2, 34880, Note_on_c, 1, 62, 127
2, 35080, Note_off_c, 1, 62, 0
2, 35080, Note_off_c, 1, 74, 0
2, 35120, Note_on_c, 1, 64, 127
2, 35120, Note_on_c, 1, 72, 127
2, 35320, Note_off_c, 1, 64, 0
2, 35320, Note_off_c, 1, 72, 0
2, 35360, Note_on_c, 1, 62, 127
2, 35360, Note_on_c, 1, 66, 127
2, 35440, Note_off_c, 1, 62, 0
2, 35440, Note_off_c, 1, 66, 0
2, 35480, Note_on_c, 1, 62, 127
2, 35480, Note_on_c, 1, 66, 127
2, 35560, Note_off_c, 1, 62, 0
2, 35560, Note_off_c, 1, 66, 0
2, 35600, Note_on_c, 1, 55, 127
2, 35600, Note_on_c, 1, 63, 127
2, 35800, Note_off_c, 1, 55, 0
2, 35800, Note_off_c, 1, 63, 0
2, 35840, Note_on_c, 1, 62, 127
2, 35840, Note_on_c, 1, 70, 127
2, 35840, Note_on_c, 1, 79, 127
2, 36280, Note_off_c, 1, 79, 0
2, 36520, Note_off_c, 1, 62, 0
2, 36520, Note_off_c, 1, 70, 0
2, 36560, Note_on_c, 1, 60, 127
2, 36560, Note_on_c, 1, 69, 127
2, 36760, Note_off_c, 1, 60, 0
2, 36760, Note_off_c, 1, 69, 0
2, 36800, Note_on_c, 1, 45, 127
2, 36800, Note_on_c, 1, 49, 127
2, 37240, Note_off_c, 1, 45, 0
2, 37240, Note_off_c, 1, 49, 0
2, 37240, Note_on_c, 1, 52, 127
2, 37240, Note_on_c, 1, 57, 127
2, 37240, Note_on_c, 1, 61, 127
2, 37280, Note_on_c, 1, 38, 127
2, 37280, Note_on_c, 1, 45, 127
2, 37280, Note_off_c, 1, 52, 0
2, 37280, Note_off_c, 1, 57, 0
2, 37280, Note_off_c, 1, 61, 0
2, 37280, Note_on_c, 1, 90, 127
2, 37320, Note_on_c, 1, 32, 127
2, 37320, Note_off_c, 1, 38, 0
2, 37320, Note_off_c, 1, 45, 0
2, 37320, Note_on_c, 1, 86, 127
2, 37320, Note_on_c, 1, 89, 127
2, 37320, Note_off_c, 1, 90, 0
2, 37320, Note_on_c, 1, 91, 127
2, 37360, Note_off_c, 1, 32, 0
2, 37360, Note_on_c, 1, 38, 127
2, 37360, Note_on_c, 1, 45, 127
2, 37360, Note_on_c, 1, 62, 127
2, 37360, Note_off_c, 1, 86, 0
2, 37360, Note_off_c, 1, 89, 0
2, 37360, Note_off_c, 1, 91, 0
2, 37400, Note_off_c, 1, 38, 0
2, 37400, Note_off_c, 1, 45, 0
2, 37400, Note_off_c, 1, 62, 0
2, 37440, Note_on_c, 1, 38, 127
2, 37440, Note_on_c, 1, 45, 127
2, 37480, Note_on_c, 1, 74, 127
2, 37520, Note_off_c, 1, 38, 0
2, 37520, Note_off_c, 1, 45, 0
2, 37520, Note_off_c, 1, 74, 0
2, 37560, Note_on_c, 1, 38, 127
2, 37560, Note_on_c, 1, 45, 127
2, 37560, Note_on_c, 1, 74, 127
2, 37720, Note_off_c, 1, 38, 0
2, 37720, Note_off_c, 1, 45, 0
2, 37720, Note_off_c, 1, 74, 0
2, 38000, Note_on_c, 1, 57, 127
2, 38440, Note_off_c, 1, 57, 0
2, 38480, Note_on_c, 1, 33, 127
2, 38480, Note_on_c, 1, 45, 127
2, 38840, Note_on_c, 1, 61, 127
2, 39040, Note_off_c, 1, 61, 0
2, 39080, Note_on_c, 1, 67, 127
2, 39280, Note_off_c, 1, 33, 0
2, 39280, Note_off_c, 1, 45, 0
2, 39280, Note_off_c, 1, 67, 0
2, 39320, Note_on_c, 1, 36, 127
2, 39320, Note_on_c, 1, 48, 127
2, 39320, Note_on_c, 1, 52, 127
2, 39480, Note_off_c, 1, 36, 0
2, 39480, Note_off_c, 1, 48, 0
2, 39480, Note_off_c, 1, 52, 0
2, 39800, Note_on_c, 1, 33, 127
2, 39800, Note_on_c, 1, 45, 127
2, 39800, Note_on_c, 1, 57, 127
2, 41560, Note_off_c, 1, 33, 0
2, 41560, Note_off_c, 1, 45, 0
2, 41560, Note_off_c, 1, 57, 0
2, 41600, Note_on_c, 1, 33, 127
2, 41600, Note_on_c, 1, 45, 127
2, 41600, Note_on_c, 1, 57, 127
2, 43400, Note_off_c, 1, 33, 0
2, 43400, Note_off_c, 1, 45, 0
2, 43400, Note_off_c, 1, 57, 0
2, 43480, Note_on_c, 1, 33, 127
2, 43480, Note_on_c, 1, 45, 127
2, 43480, Note_on_c, 1, 57, 127
2, 43600, Note_off_c, 1, 33, 0
2, 43600, Note_off_c, 1, 45, 0
2, 43600, Note_off_c, 1, 57, 0
2, 43640, Note_on_c, 1, 33, 127
2, 43640, Note_on_c, 1, 45, 127
2, 43640, Note_on_c, 1, 57, 127
2, 45640, Note_off_c, 1, 33, 0
2, 45640, Note_off_c, 1, 45, 0
2, 45640, Note_off_c, 1, 57, 0
2, 45680, Note_on_c, 1, 33, 127
2, 45680, Note_on_c, 1, 45, 127
2, 45680, Note_on_c, 1, 57, 127
2, 46320, Note_off_c, 1, 33, 0
2, 46320, Note_off_c, 1, 45, 0
2, 46320, Note_on_c, 1, 66, 127
2, 46320, Note_on_c, 1, 90, 127
2, 46320, Note_on_c, 1, 93, 127
2, 46360, Note_on_c, 1, 61, 127
2, 46360, Note_off_c, 1, 66, 0
2, 46360, Note_on_c, 1, 78, 127
2, 46360, Note_on_c, 1, 81, 127
2, 46360, Note_on_c, 1, 85, 127
2, 46360, Note_off_c, 1, 90, 0
2, 46360, Note_off_c, 1, 93, 0
2, 46400, Note_on_c, 1, 43, 127
2, 46400, Note_on_c, 1, 51, 127
2, 46400, Note_off_c, 1, 57, 0
2, 46400, Note_on_c, 1, 59, 127
2, 46400, Note_off_c, 1, 61, 0
2, 46400, Note_on_c, 1, 63, 127
2, 46400, Note_on_c, 1, 69, 127
2, 46400, Note_off_c, 1, 78, 0
2, 46400, Note_off_c, 1, 81, 0
2, 46400, Note_off_c, 1, 85, 0
2, 46440, Note_on_c, 1, 32, 127
2, 46440, Note_off_c, 1, 43, 0
2, 46440, Note_on_c, 1, 44, 127
2, 46440, Note_off_c, 1, 51, 0
2, 46440, Note_off_c, 1, 59, 0
2, 46440, Note_off_c, 1, 63, 0
2, 46440, Note_off_c, 1, 69, 0
2, 46440, Note_on_c, 1, 91, 127
2, 46480, Note_off_c, 1, 32, 0
2, 46480, Note_off_c, 1, 44, 0
2, 46480, Note_on_c, 1, 50, 127
2, 46480, Note_on_c, 1, 74, 127
2, 46480, Note_on_c, 1, 77, 127
2, 46480, Note_on_c, 1, 80, 127
2, 46480, Note_on_c, 1, 83, 127
2, 46480, Note_on_c, 1, 86, 127
2, 46480, Note_off_c, 1, 91, 0
2, 46520, Note_on_c, 1, 38, 127
2, 46520, Note_on_c, 1, 64, 127
2, 46520, Note_on_c, 1, 67, 127
2, 46520, Note_on_c, 1, 72, 127
2, 46520, Note_off_c, 1, 74, 0
2, 46520, Note_off_c, 1, 77, 0
2, 46520, Note_off_c, 1, 80, 0
2, 46520, Note_off_c, 1, 83, 0
2, 46520, Note_off_c, 1, 86, 0
2, 46560, Note_off_c, 1, 50, 0
2, 46560, Note_on_c, 1, 52, 127
2, 46560, Note_off_c, 1, 64, 0
2, 46560, Note_off_c, 1, 67, 0
2, 46560, Note_on_c, 1, 70, 127
2, 46560, Note_off_c, 1, 72, 0
2, 46600, Note_off_c, 1, 38, 0
2, 46600, Note_on_c, 1, 50, 127
2, 46600, Note_off_c, 1, 52, 0
2, 46600, Note_on_c, 1, 66, 127
2, 46600, Note_on_c, 1, 67, 127
2, 46600, Note_off_c, 1, 70, 0
2, 46600, Note_on_c, 1, 74, 127
2, 46640, Note_off_c, 1, 50, 0
2, 46640, Note_on_c, 1, 53, 127
2, 46640, Note_on_c, 1, 57, 127
2, 46640, Note_on_c, 1, 62, 127
2, 46640, Note_off_c, 1, 66, 0
2, 46640, Note_off_c, 1, 67, 0
2, 46640, Note_on_c, 1, 71, 127
2, 46640, Note_off_c, 1, 74, 0
2, 46680, Note_off_c, 1, 53, 0
2, 46680, Note_off_c, 1, 57, 0
2, 46680, Note_off_c, 1, 62, 0
2, 46680, Note_off_c, 1, 71, 0
2, 46720, Note_on_c, 1, 27, 127
2, 46720, Note_on_c, 1, 39, 127
2, 46720, Note_on_c, 1, 79, 127
2, 46840, Note_on_c, 1, 75, 127
2, 46840, Note_off_c, 1, 79, 0
2, 47680, Note_off_c, 1, 27, 0
2, 47680, Note_off_c, 1, 39, 0
2, 47680, Note_on_c, 1, 47, 127
2, 47680, Note_on_c, 1, 57, 127
2, 47680, Note_on_c, 1, 62, 127
2, 47680, Note_on_c, 1, 68, 127
2, 47680, Note_on_c, 1, 71, 127
2, 47680, Note_off_c, 1, 75, 0
2, 47720, Note_off_c, 1, 47, 0
2, 47720, Note_off_c, 1, 57, 0
2, 47720, Note_off_c, 1, 62, 0
2, 47720, Note_off_c, 1, 68, 0
2, 47720, Note_off_c, 1, 71, 0
2, 47760, Note_on_c, 1, 27, 127
2, 47760, Note_on_c, 1, 39, 127
2, 47760, Note_on_c, 1, 75, 127
2, 47800, Note_off_c, 1, 27, 0
2, 47800, Note_off_c, 1, 39, 0
2, 47800, Note_on_c, 1, 55, 127
2, 47800, Note_on_c, 1, 61, 127
2, 47800, Note_on_c, 1, 70, 127
2, 47800, Note_off_c, 1, 75, 0
2, 47800, Note_on_c, 1, 79, 127
2, 47800, Note_on_c, 1, 82, 127
2, 47840, Note_off_c, 1, 61, 0
2, 47840, Note_on_c, 1, 67, 127
2, 47840, Note_off_c, 1, 70, 0
2, 47840, Note_on_c, 1, 74, 127
2, 47840, Note_on_c, 1, 76, 127
2, 47840, Note_off_c, 1, 79, 0
2, 47840, Note_off_c, 1, 82, 0
2, 47880, Note_on_c, 1, 52, 127
2, 47880, Note_off_c, 1, 55, 0
2, 47880, Note_on_c, 1, 66, 127
2, 47880, Note_off_c, 1, 67, 0
2, 47880, Note_on_c, 1, 73, 127
2, 47880, Note_off_c, 1, 74, 0
2, 47880, Note_off_c, 1, 76, 0
2, 47880, Note_on_c, 1, 82, 127
2, 47880, Note_on_c, 1, 85, 127
2, 47920, Note_off_c, 1, 52, 0
2, 47920, Note_on_c, 1, 59, 127
2, 47920, Note_off_c, 1, 66, 0
2, 47920, Note_on_c, 1, 67, 127
2, 47920, Note_off_c, 1, 73, 0
2, 47920, Note_off_c, 1, 82, 0
2, 47920, Note_off_c, 1, 85, 0
2, 47920, Note_on_c, 1, 90, 127
2, 47960, Note_on_c, 1, 39, 127
2, 47960, Note_on_c, 1, 46, 127
2, 47960, Note_on_c, 1, 56, 127
2, 47960, Note_off_c, 1, 59, 0
2, 47960, Note_on_c, 1, 63, 127
2, 47960, Note_off_c, 1, 67, 0
2, 47960, Note_on_c, 1, 68, 127
2, 47960, Note_off_c, 1, 90, 0
2, 48000, Note_off_c, 1, 39, 0
2, 48000, Note_off_c, 1, 46, 0
2, 48000, Note_on_c, 1, 52, 127
2, 48000, Note_on_c, 1, 55, 127
2, 48000, Note_off_c, 1, 56, 0
2, 48000, Note_off_c, 1, 63, 0
2, 48000, Note_on_c, 1, 64, 127
2, 48000, Note_off_c, 1, 68, 0
2, 48040, Note_on_c, 1, 34, 127
2, 48040, Note_on_c, 1, 41, 127
2, 48040, Note_on_c, 1, 46, 127
2, 48040, Note_off_c, 1, 52, 0
2, 48040, Note_off_c, 1, 55, 0
2, 48040, Note_off_c, 1, 64, 0
2, 48040, Note_on_c, 1, 73, 127
2, 48040, Note_on_c, 1, 77, 127
2, 48040, Note_on_c, 1, 82, 127
2, 48040, Note_on_c, 1, 85, 127
2, 48400, Note_off_c, 1, 34, 0
2, 48400, Note_on_c, 1, 40, 127
2, 48400, Note_off_c, 1, 41, 0
2, 48400, Note_on_c, 1, 45, 127
2, 48400, Note_off_c, 1, 46, 0
2, 48400, Note_on_c, 1, 49, 127
2, 48400, Note_on_c, 1, 52, 127
2, 48400, Note_on_c, 1, 64, 127
2, 48400, Note_off_c, 1, 73, 0
2, 48400, Note_on_c, 1, 76, 127
2, 48400, Note_off_c, 1, 77, 0
2, 48400, Note_off_c, 1, 82, 0
2, 48400, Note_off_c, 1, 85, 0
2, 48440, Note_off_c, 1, 40, 0
2, 48440, Note_off_c, 1, 45, 0
2, 48440, Note_off_c, 1, 49, 0
2, 48440, Note_off_c, 1, 52, 0
2, 48440, Note_off_c, 1, 64, 0
2, 48440, Note_off_c, 1, 76, 0
2, 48480, Note_on_c, 1, 64, 127
2, 48480, Note_on_c, 1, 69, 127
2, 48480, Note_on_c, 1, 72, 127
2, 49280, Note_off_c, 1, 64, 0
2, 49280, Note_off_c, 1, 69, 0
2, 49280, Note_off_c, 1, 72, 0
2, 49320, Note_on_c, 1, 37, 127
2, 49320, Note_on_c, 1, 49, 127
2, 49320, Note_on_c, 1, 57, 127
2, 49320, Note_on_c, 1, 69, 127
2, 49680, Note_off_c, 1, 37, 0
2, 49680, Note_off_c, 1, 49, 0
2, 49680, Note_off_c, 1, 57, 0
2, 49680, Note_off_c, 1, 69, 0
2, 49720, Note_on_c, 1, 37, 127
2, 49720, Note_on_c, 1, 49, 127
2, 49720, Note_on_c, 1, 57, 127
2, 49720, Note_on_c, 1, 69, 127
2, 49760, Note_off_c, 1, 57, 0
2, 49800, Note_on_c, 1, 61, 127
2, 50200, Note_off_c, 1, 61, 0
2, 50240, Note_off_c, 1, 37, 0
2, 50240, Note_on_c, 1, 40, 127
2, 50240, Note_off_c, 1, 49, 0
2, 50240, Note_on_c, 1, 52, 127
2, 50240, Note_on_c, 1, 57, 127
2, 50240, Note_on_c, 1, 64, 127
2, 50240, Note_off_c, 1, 69, 0
2, 50600, Note_off_c, 1, 57, 0
2, 50640, Note_off_c, 1, 40, 0
2, 50640, Note_off_c, 1, 52, 0
2, 50640, Note_off_c, 1, 64, 0
2, 50680, Note_on_c, 1, 36, 127
2, 50680, Note_on_c, 1, 48, 127
2, 50680, Note_on_c, 1, 60, 127
2, 50680, Note_on_c, 1, 64, 127
2, 50680, Note_on_c, 1, 72, 127
2, 51480, Note_off_c, 1, 36, 0
2, 51480, Note_off_c, 1, 48, 0
2, 51480, Note_off_c, 1, 60, 0
2, 51480, Note_off_c, 1, 64, 0
2, 51480, Note_off_c, 1, 72, 0
2, 51520, Note_on_c, 1, 53, 127
2, 51520, Note_on_c, 1, 57, 127
2, 51520, Note_on_c, 1, 60, 127
2, 51520, Note_on_c, 1, 65, 127
2, 51760, Note_off_c, 1, 53, 0
2, 51760, Note_off_c, 1, 57, 0
2, 51760, Note_off_c, 1, 60, 0
2, 51760, Note_off_c, 1, 65, 0
2, 51800, Note_on_c, 1, 53, 127
2, 51800, Note_on_c, 1, 57, 127
2, 51800, Note_on_c, 1, 60, 127
2, 51800, Note_on_c, 1, 65, 127
2, 51960, Note_off_c, 1, 53, 0
2, 51960, Note_off_c, 1, 57, 0
2, 51960, Note_off_c, 1, 60, 0
2, 51960, Note_off_c, 1, 65, 0
2, 52440, Note_on_c, 1, 49, 127
2, 52440, Note_on_c, 1, 52, 127
2, 52440, Note_on_c, 1, 61, 127
2, 52440, Note_on_c, 1, 64, 127
2, 52440, Note_on_c, 1, 69, 127
2, 52440, Note_on_c, 1, 76, 127
2, 53160, Note_off_c, 1, 49, 0
2, 53160, Note_off_c, 1, 52, 0
2, 53160, Note_off_c, 1, 61, 0
2, 53160, Note_off_c, 1, 64, 0
2, 53160, Note_off_c, 1, 69, 0
2, 53160, Note_off_c, 1, 76, 0
2, 53280, Note_on_c, 1, 33, 127
2, 53280, Note_on_c, 1, 45, 127
2, 53280, Note_on_c, 1, 66, 127
2, 53280, Note_on_c, 1, 69, 127
2, 53280, Note_on_c, 1, 73, 127
2, 53440, Note_off_c, 1, 33, 0
2, 53440, Note_off_c, 1, 45, 0
2, 53440, Note_off_c, 1, 66, 0
2, 53440, Note_off_c, 1, 69, 0
2, 53440, Note_off_c, 1, 73, 0
2, 53760, Note_on_c, 1, 28, 127
2, 53760, Note_on_c, 1, 40, 127
2, 53760, Note_on_c, 1, 52, 127
2, 53760, Note_on_c, 1, 56, 127
2, 53760, Note_on_c, 1, 59, 127
2, 53760, Note_on_c, 1, 64, 127
2, 53880, Note_off_c, 1, 28, 0
2, 53880, Note_off_c, 1, 40, 0
2, 53880, Note_off_c, 1, 52, 0
2, 53880, Note_off_c, 1, 56, 0
2, 53880, Note_off_c, 1, 59, 0
2, 53880, Note_off_c, 1, 64, 0
2, 54200, Note_on_c, 1, 40, 127
2, 54200, Note_on_c, 1, 52, 127
2, 54200, Note_on_c, 1, 55, 127
2, 54200, Note_on_c, 1, 61, 127
2, 54200, Note_on_c, 1, 67, 127
2, 54200, Note_on_c, 1, 73, 127
2, 54360, Note_off_c, 1, 40, 0
2, 54360, Note_off_c, 1, 52, 0
2, 54360, Note_off_c, 1, 55, 0
2, 54360, Note_off_c, 1, 61, 0
2, 54360, Note_off_c, 1, 67, 0
2, 54360, Note_off_c, 1, 73, 0
2, 54640, Note_on_c, 1, 40, 127
2, 54640, Note_on_c, 1, 47, 127
2, 54640, Note_on_c, 1, 59, 127
2, 54640, Note_on_c, 1, 68, 127
2, 55000, Note_off_c, 1, 40, 0
2, 55000, Note_off_c, 1, 47, 0
2, 55000, Note_off_c, 1, 59, 0
2, 55000, Note_off_c, 1, 68, 0
2, 55720, Note_on_c, 1, 45, 127
2, 55720, Note_on_c, 1, 49, 127
2, 55720, Note_on_c, 1, 67, 127
2, 55720, Note_on_c, 1, 79, 127
2, 55760, Note_off_c, 1, 45, 0
2, 55760, Note_off_c, 1, 49, 0
2, 55760, Note_off_c, 1, 67, 0
2, 55760, Note_off_c, 1, 79, 0
2, 55840, Note_on_c, 1, 56, 127
2, 55840, Note_on_c, 1, 68, 127
2, 55840, Note_on_c, 1, 73, 127
2, 55840, Note_on_c, 1, 85, 127
2, 55880, Note_off_c, 1, 56, 0
2, 55880, Note_off_c, 1, 68, 0
2, 55880, Note_off_c, 1, 73, 0
2, 55880, Note_off_c, 1, 85, 0
2, 55960, Note_on_c, 1, 56, 127
2, 55960, Note_on_c, 1, 68, 127
2, 55960, Note_on_c, 1, 73, 127
2, 55960, Note_on_c, 1, 85, 127
2, 56000, Note_off_c, 1, 56, 0
2, 56000, Note_off_c, 1, 68, 0
2, 56000, Note_off_c, 1, 73, 0
2, 56000, Note_off_c, 1, 85, 0
2, 56080, Note_on_c, 1, 73, 127
2, 56080, Note_on_c, 1, 85, 127
2, 56120, Note_off_c, 1, 73, 0
2, 56120, Note_off_c, 1, 85, 0
2, 56160, Note_on_c, 1, 53, 127
2, 56160, Note_on_c, 1, 65, 127
2, 56160, Note_on_c, 1, 68, 127
2, 56160, Note_on_c, 1, 80, 127
2, 56200, Note_off_c, 1, 53, 0
2, 56200, Note_off_c, 1, 65, 0
2, 56200, Note_off_c, 1, 68, 0
2, 56200, Note_off_c, 1, 80, 0
2, 56400, Note_on_c, 1, 54, 127
2, 56400, Note_on_c, 1, 66, 127
2, 56400, Note_on_c, 1, 70, 127
2, 56400, Note_on_c, 1, 82, 127
2, 56440, Note_off_c, 1, 54, 0
2, 56440, Note_off_c, 1, 66, 0
2, 56440, Note_off_c, 1, 70, 0
2, 56440, Note_off_c, 1, 82, 0
2, 56600, Note_on_c, 1, 58, 127
2, 56600, Note_on_c, 1, 62, 127
2, 56600, Note_on_c, 1, 65, 127
2, 56600, Note_on_c, 1, 70, 127
2, 56600, Note_on_c, 1, 74, 127
2, 56600, Note_on_c, 1, 77, 127
2, 57000, Note_off_c, 1, 58, 0
2, 57000, Note_off_c, 1, 62, 0
2, 57000, Note_off_c, 1, 65, 0
2, 57000, Note_off_c, 1, 70, 0
2, 57000, Note_off_c, 1, 74, 0
2, 57000, Note_off_c, 1, 77, 0
2, 57040, Note_on_c, 1, 36, 127
2, 57040, Note_on_c, 1, 46, 127
2, 57040, Note_on_c, 1, 55, 127
2, 57040, Note_on_c, 1, 60, 127
2, 57040, Note_on_c, 1, 64, 127
2, 57040, Note_on_c, 1, 72, 127
2, 57640, Note_off_c, 1, 36, 0
2, 57640, Note_off_c, 1, 46, 0
2, 57640, Note_off_c, 1, 55, 0
2, 57640, Note_off_c, 1, 60, 0
2, 57640, Note_off_c, 1, 64, 0
2, 57640, Note_off_c, 1, 72, 0
2, 57680, Note_on_c, 1, 36, 127
2, 57680, Note_on_c, 1, 46, 127
2, 57680, Note_on_c, 1, 55, 127
2, 57680, Note_on_c, 1, 60, 127
2, 57680, Note_on_c, 1, 64, 127
2, 57680, Note_on_c, 1, 72, 127
2, 57920, Note_off_c, 1, 36, 0
2, 57920, Note_off_c, 1, 46, 0
2, 57920, Note_off_c, 1, 55, 0
2, 57920, Note_off_c, 1, 60, 0
2, 57920, Note_off_c, 1, 64, 0
2, 57920, Note_off_c, 1, 72, 0
2, 57960, Note_on_c, 1, 59, 127
2, 57960, Note_on_c, 1, 71, 127
2, 58120, Note_off_c, 1, 59, 0
2, 58120, Note_off_c, 1, 71, 0
2, 58160, Note_on_c, 1, 50, 127
2, 58160, Note_on_c, 1, 62, 127
2, 58360, Note_off_c, 1, 50, 0
2, 58360, Note_off_c, 1, 62, 0
2, 58400, Note_on_c, 1, 49, 127
2, 58400, Note_on_c, 1, 61, 127
2, 58440, Note_off_c, 1, 49, 0
2, 58440, Note_off_c, 1, 61, 0
2, 58600, Note_on_c, 1, 58, 127
2, 58600, Note_on_c, 1, 70, 127
2, 58680, Note_off_c, 1, 58, 0
2, 58680, Note_off_c, 1, 70, 0
2, 58840, Note_on_c, 1, 62, 127
2, 58840, Note_on_c, 1, 74, 127
2, 59000, Note_off_c, 1, 62, 0
2, 59000, Note_off_c, 1, 74, 0
2, 59040, Note_on_c, 1, 59, 127
2, 59040, Note_on_c, 1, 71, 127
2, 59120, Note_off_c, 1, 59, 0
2, 59120, Note_off_c, 1, 71, 0
2, 59280, Note_on_c, 1, 59, 127
2, 59280, Note_on_c, 1, 71, 127
2, 59400, Note_off_c, 1, 59, 0
2, 59400, Note_off_c, 1, 71, 0
2, 59480, Note_on_c, 1, 44, 127
2, 59480, Note_on_c, 1, 60, 127
2, 59480, Note_on_c, 1, 63, 127
2, 59480, Note_on_c, 1, 70, 127
2, 59640, Note_off_c, 1, 44, 0
2, 59640, Note_off_c, 1, 60, 0
2, 59640, Note_off_c, 1, 63, 0
2, 59640, Note_off_c, 1, 70, 0
2, 59680, Note_on_c, 1, 44, 127
2, 59680, Note_on_c, 1, 60, 127
2, 59680, Note_on_c, 1, 63, 127
2, 59680, Note_on_c, 1, 70, 127
2, 59920, Note_off_c, 1, 44, 0
2, 59920, Note_off_c, 1, 60, 0
2, 59920, Note_off_c, 1, 63, 0
2, 59920, Note_on_c, 1, 68, 127
2, 59920, Note_off_c, 1, 70, 0
2, 59960, Note_on_c, 1, 48, 127
2, 59960, Note_on_c, 1, 60, 127
2, 59960, Note_on_c, 1, 63, 127
2, 60360, Note_off_c, 1, 48, 0
2, 60360, Note_off_c, 1, 60, 0
2, 60360, Note_off_c, 1, 63, 0
2, 60360, Note_off_c, 1, 68, 0
2, 61240, Note_on_c, 1, 57, 127
2, 61240, Note_on_c, 1, 69, 127
2, 61640, Note_off_c, 1, 57, 0
2, 61640, Note_off_c, 1, 69, 0
2, 61680, Note_on_c, 1, 59, 127
2, 61680, Note_on_c, 1, 71, 127
2, 61840, Note_off_c, 1, 59, 0
2, 61840, Note_off_c, 1, 71, 0
2, 61880, Note_on_c, 1, 53, 127
2, 61880, Note_on_c, 1, 65, 127
2, 62000, Note_off_c, 1, 53, 0
2, 62000, Note_off_c, 1, 65, 0
2, 62040, Note_on_c, 1, 53, 127
2, 62040, Note_on_c, 1, 65, 127
2, 62080, Note_off_c, 1, 53, 0
2, 62080, Note_off_c, 1, 65, 0
2, 62120, Note_on_c, 1, 50, 127
2, 62120, Note_on_c, 1, 62, 127
2, 62520, Note_off_c, 1, 50, 0
2, 62520, Note_off_c, 1, 62, 0
2, 62560, Note_on_c, 1, 59, 127
2, 62560, Note_on_c, 1, 71, 127
2, 62960, Note_off_c, 1, 59, 0
2, 62960, Note_off_c, 1, 71, 0
2, 63000, Note_on_c, 1, 58, 127
2, 63000, Note_on_c, 1, 67, 127
2, 63000, Note_on_c, 1, 74, 127
2, 63000, Note_on_c, 1, 79, 127
2, 63400, Note_off_c, 1, 58, 0
2, 63400, Note_off_c, 1, 67, 0
2, 63400, Note_off_c, 1, 74, 0
2, 63400, Note_off_c, 1, 79, 0
2, 63440, Note_on_c, 1, 53, 127
2, 63440, Note_on_c, 1, 60, 127
2, 63440, Note_on_c, 1, 72, 127
2, 63440, Note_on_c, 1, 81, 127
2, 63800, Note_off_c, 1, 53, 0
2, 63800, Note_off_c, 1, 60, 0
2, 63800, Note_off_c, 1, 72, 0
2, 63800, Note_off_c, 1, 81, 0
2, 63880, Note_on_c, 1, 33, 127
2, 63880, Note_on_c, 1, 45, 127
2, 63880, Note_on_c, 1, 71, 127
2, 63880, Note_on_c, 1, 76, 127
2, 63880, Note_on_c, 1, 83, 127
2, 63920, Note_off_c, 1, 33, 0
2, 63920, Note_off_c, 1, 45, 0
2, 63920, Note_on_c, 1, 48, 127
2, 63920, Note_off_c, 1, 71, 0
2, 63920, Note_off_c, 1, 76, 0
2, 63920, Note_on_c, 1, 82, 127
2, 63920, Note_off_c, 1, 83, 0
2, 63920, Note_on_c, 1, 88, 127
2, 63960, Note_off_c, 1, 48, 0
2, 63960, Note_off_c, 1, 82, 0
2, 63960, Note_off_c, 1, 88, 0
2, 64000, Note_on_c, 1, 62, 127
2, 64000, Note_on_c, 1, 74, 127
2, 64000, Note_on_c, 1, 77, 127
2, 64000, Note_on_c, 1, 81, 127
2, 64040, Note_on_c, 1, 41, 127
2, 64040, Note_on_c, 1, 48, 127
2, 64040, Note_off_c, 1, 62, 0
2, 64040, Note_on_c, 1, 69, 127
2, 64040, Note_off_c, 1, 74, 0
2, 64040, Note_off_c, 1, 77, 0
2, 64080, Note_off_c, 1, 41, 0
2, 64080, Note_off_c, 1, 48, 0
2, 64080, Note_off_c, 1, 69, 0
2, 64080, Note_off_c, 1, 81, 0
2, 64120, Note_on_c, 1, 71, 127
2, 64120, Note_on_c, 1, 83, 127
2, 64200, Note_off_c, 1, 71, 0
2, 64200, Note_off_c, 1, 83, 0
2, 64320, Note_on_c, 1, 72, 127
2, 64320, Note_on_c, 1, 84, 127
2, 64520, Note_off_c, 1, 72, 0
2, 64520, Note_off_c, 1, 84, 0
2, 64760, Note_on_c, 1, 60, 127
2, 64760, Note_on_c, 1, 67, 127
2, 64760, Note_on_c, 1, 72, 127
2, 64760, Note_on_c, 1, 76, 127
2, 64760, Note_on_c, 1, 84, 127
2, 64760, Note_on_c, 1, 88, 127
2, 65040, Note_off_c, 1, 60, 0
2, 65040, Note_off_c, 1, 67, 0
2, 65040, Note_off_c, 1, 72, 0
2, 65040, Note_off_c, 1, 76, 0
2, 65040, Note_off_c, 1, 84, 0
2, 65040, Note_off_c, 1, 88, 0
2, 65200, Note_on_c, 1, 50, 127
2, 65200, Note_on_c, 1, 62, 127
2, 65200, Note_on_c, 1, 77, 127
2, 65200, Note_on_c, 1, 82, 127
2, 65200, Note_on_c, 1, 86, 127
2, 65200, Note_on_c, 1, 89, 127
2, 65600, Note_off_c, 1, 50, 0
2, 65600, Note_off_c, 1, 62, 0
2, 65600, Note_off_c, 1, 77, 0
2, 65600, Note_off_c, 1, 82, 0
2, 65600, Note_off_c, 1, 86, 0
2, 65600, Note_off_c, 1, 89, 0
2, 65640, Note_on_c, 1, 54, 127
2, 65640, Note_on_c, 1, 63, 127
2, 65640, Note_on_c, 1, 84, 127
2, 65640, Note_on_c, 1, 87, 127
2, 65680, Note_off_c, 1, 54, 0
2, 65680, Note_off_c, 1, 63, 0
2, 65680, Note_on_c, 1, 72, 127
2, 65680, Note_on_c, 1, 80, 127
2, 65680, Note_on_c, 1, 96, 127
2, 65800, Note_on_c, 1, 28, 127
2, 65800, Note_on_c, 1, 40, 127
2, 65800, Note_on_c, 1, 50, 127
2, 65800, Note_on_c, 1, 53, 127
2, 65800, Note_on_c, 1, 57, 127
2, 65800, Note_on_c, 1, 62, 127
2, 65800, Note_off_c, 1, 72, 0
2, 65800, Note_off_c, 1, 80, 0
2, 65800, Note_off_c, 1, 84, 0
2, 65800, Note_off_c, 1, 87, 0
2, 65800, Note_off_c, 1, 96, 0
2, 65840, Note_off_c, 1, 28, 0
2, 65840, Note_off_c, 1, 40, 0
2, 65840, Note_off_c, 1, 50, 0
2, 65840, Note_on_c, 1, 60, 127
2, 65840, Note_off_c, 1, 62, 0
2, 65840, Note_on_c, 1, 65, 127
2, 65840, Note_on_c, 1, 89, 127
2, 65880, Note_off_c, 1, 53, 0
2, 65880, Note_off_c, 1, 57, 0
2, 65880, Note_off_c, 1, 60, 0
2, 65880, Note_off_c, 1, 65, 0
2, 65880, Note_on_c, 1, 69, 127
2, 65880, Note_on_c, 1, 81, 127
2, 65880, Note_on_c, 1, 88, 127
2, 65880, Note_off_c, 1, 89, 0
2, 65880, Note_on_c, 1, 93, 127
2, 65920, Note_off_c, 1, 69, 0
2, 65920, Note_on_c, 1, 80, 127
2, 65920, Note_off_c, 1, 81, 0
2, 65920, Note_off_c, 1, 88, 0
2, 65920, Note_off_c, 1, 93, 0
2, 65920, Note_on_c, 1, 94, 127
2, 65960, Note_off_c, 1, 80, 0
2, 65960, Note_off_c, 1, 94, 0
2, 66000, Note_on_c, 1, 39, 127
2, 66000, Note_on_c, 1, 48, 127
2, 66000, Note_on_c, 1, 51, 127
2, 66000, Note_on_c, 1, 81, 127
2, 66000, Note_on_c, 1, 93, 127
2, 66040, Note_off_c, 1, 39, 0
2, 66040, Note_off_c, 1, 48, 0
2, 66040, Note_off_c, 1, 51, 0
2, 66040, Note_off_c, 1, 81, 0
2, 66040, Note_off_c, 1, 93, 0
2, 66080, Note_on_c, 1, 57, 127
2, 66080, Note_on_c, 1, 71, 127
2, 66080, Note_on_c, 1, 78, 127
2, 66080, Note_on_c, 1, 81, 127
2, 66080, Note_on_c, 1, 83, 127
2, 66120, Note_off_c, 1, 57, 0
2, 66160, Note_on_c, 1, 57, 127
2, 66280, Note_off_c, 1, 57, 0
2, 66320, Note_on_c, 1, 59, 127
2, 66400, Note_off_c, 1, 59, 0
2, 66440, Note_on_c, 1, 60, 127
2, 66440, Note_off_c, 1, 71, 0
2, 66440, Note_off_c, 1, 78, 0
2, 66440, Note_off_c, 1, 81, 0
2, 66440, Note_off_c, 1, 83, 0
2, 66520, Note_on_c, 1, 42, 127
2, 66520, Note_on_c, 1, 54, 127
2, 66520, Note_off_c, 1, 60, 0
2, 66520, Note_on_c, 1, 72, 127
2, 66520, Note_on_c, 1, 75, 127
2, 66520, Note_on_c, 1, 80, 127
2, 66800, Note_off_c, 1, 42, 0
2, 66800, Note_off_c, 1, 54, 0
2, 66800, Note_off_c, 1, 72, 0
2, 66800, Note_off_c, 1, 75, 0
2, 66800, Note_off_c, 1, 80, 0
2, 66800, Note_on_c, 1, 92, 127
2, 66800, Note_on_c, 1, 104, 127
2, 66840, Note_on_c, 1, 42, 127
2, 66840, Note_on_c, 1, 54, 127
2, 66840, Note_on_c, 1, 72, 127
2, 66840, Note_on_c, 1, 75, 127
2, 66840, Note_on_c, 1, 82, 127
2, 66840, Note_off_c, 1, 92, 0
2, 66840, Note_off_c, 1, 104, 0
2, 66880, Note_on_c, 1, 35, 127
2, 66880, Note_off_c, 1, 42, 0
2, 66880, Note_on_c, 1, 43, 127
2, 66880, Note_on_c, 1, 47, 127
2, 66880, Note_off_c, 1, 54, 0
2, 66880, Note_on_c, 1, 65, 127
2, 66880, Note_off_c, 1, 72, 0
2, 66880, Note_off_c, 1, 75, 0
2, 66880, Note_off_c, 1, 82, 0
2, 66920, Note_off_c, 1, 35, 0
2, 66920, Note_off_c, 1, 43, 0
2, 66920, Note_off_c, 1, 47, 0
2, 66920, Note_off_c, 1, 65, 0
2, 66960, Note_on_c, 1, 79, 127
2, 66960, Note_on_c, 1, 81, 127
2, 66960, Note_on_c, 1, 88, 127
2, 66960, Note_on_c, 1, 91, 127
2, 67120, Note_off_c, 1, 79, 0
2, 67120, Note_off_c, 1, 81, 0
2, 67120, Note_off_c, 1, 88, 0
2, 67120, Note_off_c, 1, 91, 0
2, 67160, Note_on_c, 1, 79, 127
2, 67160, Note_on_c, 1, 81, 127
2, 67160, Note_on_c, 1, 88, 127
2, 67160, Note_on_c, 1, 91, 127
2, 67360, Note_off_c, 1, 79, 0
2, 67360, Note_off_c, 1, 81, 0
2, 67360, Note_off_c, 1, 88, 0
2, 67360, Note_off_c, 1, 91, 0
2, 67400, Note_on_c, 1, 47, 127
2, 67400, Note_on_c, 1, 85, 127
2, 67400, Note_on_c, 1, 93, 127
2, 67400, Note_on_c, 1, 97, 127
2, 67440, Note_off_c, 1, 47, 0
2, 67440, Note_on_c, 1, 69, 127
2, 67440, Note_on_c, 1, 73, 127
2, 67440, Note_on_c, 1, 81, 127
2, 67440, Note_off_c, 1, 85, 0
2, 67440, Note_on_c, 1, 88, 127
2, 67440, Note_off_c, 1, 93, 0
2, 67440, Note_off_c, 1, 97, 0
2, 67480, Note_on_c, 1, 47, 127
2, 67480, Note_off_c, 1, 69, 0
2, 67480, Note_off_c, 1, 73, 0
2, 67480, Note_off_c, 1, 81, 0
2, 67480, Note_on_c, 1, 85, 127
2, 67480, Note_off_c, 1, 88, 0
2, 67480, Note_on_c, 1, 93, 127
2, 67480, Note_on_c, 1, 97, 127
2, 67520, Note_off_c, 1, 47, 0
2, 67520, Note_on_c, 1, 69, 127
2, 67520, Note_on_c, 1, 73, 127
2, 67520, Note_on_c, 1, 81, 127
2, 67520, Note_off_c, 1, 85, 0
2, 67520, Note_on_c, 1, 88, 127
2, 67520, Note_off_c, 1, 93, 0
2, 67520, Note_off_c, 1, 97, 0
2, 67560, Note_off_c, 1, 69, 0
2, 67560, Note_off_c, 1, 73, 0
2, 67560, Note_off_c, 1, 81, 0
2, 67560, Note_off_c, 1, 88, 0
2, 67600, Note_on_c, 1, 63, 127
2, 67600, Note_on_c, 1, 93, 127
2, 67680, Note_off_c, 1, 63, 0
2, 67680, Note_off_c, 1, 93, 0
2, 67840, Note_on_c, 1, 61, 127
2, 67840, Note_on_c, 1, 65, 127
2, 67840, Note_on_c, 1, 68, 127
2, 67840, Note_on_c, 1, 73, 127
2, 67840, Note_on_c, 1, 92, 127
2, 67840, Note_on_c, 1, 97, 127
2, 67840, Note_on_c, 1, 101, 127
2, 67840, Note_on_c, 1, 104, 127
2, 67880, Note_on_c, 1, 39, 127
2, 67880, Note_on_c, 1, 46, 127
2, 67880, Note_on_c, 1, 56, 127
2, 67880, Note_off_c, 1, 61, 0
2, 67880, Note_off_c, 1, 65, 0
2, 67880, Note_off_c, 1, 73, 0
2, 67880, Note_off_c, 1, 92, 0
2, 67880, Note_off_c, 1, 97, 0
2, 67880, Note_off_c, 1, 101, 0
2, 67880, Note_off_c, 1, 104, 0
2, 67960, Note_off_c, 1, 39, 0
2, 67960, Note_off_c, 1, 46, 0
2, 67960, Note_off_c, 1, 56, 0
2, 67960, Note_off_c, 1, 68, 0
2, 68000, Note_on_c, 1, 39, 127
2, 68000, Note_on_c, 1, 46, 127
2, 68000, Note_on_c, 1, 56, 127
2, 68000, Note_on_c, 1, 68, 127
2, 68240, Note_off_c, 1, 39, 0
2, 68240, Note_off_c, 1, 46, 0
2, 68240, Note_off_c, 1, 56, 0
2, 68240, Note_off_c, 1, 68, 0
2, 68520, Note_on_c, 1, 67, 127
2, 68520, Note_on_c, 1, 70, 127
2, 68520, Note_on_c, 1, 73, 127
2, 68520, Note_on_c, 1, 76, 127
2, 68520, Note_on_c, 1, 82, 127
2, 68680, Note_off_c, 1, 67, 0
2, 68680, Note_off_c, 1, 70, 0
2, 68680, Note_off_c, 1, 73, 0
2, 68680, Note_off_c, 1, 76, 0
2, 68680, Note_off_c, 1, 82, 0
2, 68720, Note_on_c, 1, 67, 127
2, 68720, Note_on_c, 1, 70, 127
2, 68720, Note_on_c, 1, 73, 127
2, 68720, Note_on_c, 1, 76, 127
2, 68720, Note_on_c, 1, 82, 127
2, 68920, Note_off_c, 1, 67, 0
2, 68920, Note_off_c, 1, 70, 0
2, 68920, Note_off_c, 1, 73, 0
2, 68920, Note_off_c, 1, 76, 0
2, 68920, Note_off_c, 1, 82, 0
2, 68960, Note_on_c, 1, 67, 127
2, 68960, Note_on_c, 1, 70, 127
2, 68960, Note_on_c, 1, 73, 127
2, 68960, Note_on_c, 1, 76, 127
2, 68960, Note_on_c, 1, 82, 127
2, 69320, Note_off_c, 1, 67, 0
2, 69320, Note_off_c, 1, 70, 0
2, 69320, Note_off_c, 1, 73, 0
2, 69320, Note_off_c, 1, 76, 0
2, 69320, Note_off_c, 1, 82, 0
2, 69360, Note_on_c, 1, 55, 127
2, 69360, Note_on_c, 1, 57, 127
2, 69360, Note_on_c, 1, 61, 127
2, 69360, Note_on_c, 1, 64, 127
2, 69360, Note_on_c, 1, 69, 127
2, 69360, Note_on_c, 1, 76, 127
2, 69560, Note_on_c, 1, 46, 127
2, 69560, Note_on_c, 1, 54, 127
2, 69560, Note_off_c, 1, 55, 0
2, 69560, Note_off_c, 1, 57, 0
2, 69560, Note_on_c, 1, 58, 127
2, 69560, Note_off_c, 1, 61, 0
2, 69560, Note_off_c, 1, 64, 0
2, 69560, Note_off_c, 1, 69, 0
2, 69560, Note_off_c, 1, 76, 0
2, 69600, Note_on_c, 1, 33, 127
2, 69600, Note_on_c, 1, 41, 127
2, 69600, Note_on_c, 1, 45, 127
2, 69600, Note_off_c, 1, 46, 0
2, 69600, Note_on_c, 1, 53, 127
2, 69600, Note_off_c, 1, 54, 0
2, 69600, Note_off_c, 1, 58, 0
2, 69600, Note_on_c, 1, 60, 127
2, 69600, Note_on_c, 1, 63, 127
2, 69600, Note_on_c, 1, 65, 127
2, 69760, Note_off_c, 1, 33, 0
2, 69760, Note_off_c, 1, 41, 0
2, 69760, Note_off_c, 1, 45, 0
2, 69760, Note_off_c, 1, 53, 0
2, 69760, Note_off_c, 1, 60, 0
2, 69760, Note_off_c, 1, 63, 0
2, 69760, Note_off_c, 1, 65, 0
2, 69800, Note_on_c, 1, 43, 127
2, 69800, Note_on_c, 1, 55, 127
2, 69800, Note_on_c, 1, 82, 127
2, 69800, Note_on_c, 1, 94, 127
2, 69880, Note_off_c, 1, 43, 0
2, 69880, Note_off_c, 1, 55, 0
2, 69880, Note_off_c, 1, 82, 0
2, 69880, Note_off_c, 1, 94, 0
2, 70080, Note_on_c, 1, 54, 127
2, 70080, Note_on_c, 1, 76, 127
2, 70080, Note_on_c, 1, 88, 127
2, 70200, Note_off_c, 1, 54, 0
2, 70200, Note_off_c, 1, 76, 0
2, 70200, Note_off_c, 1, 88, 0
2, 70280, Note_on_c, 1, 47, 127
2, 70280, Note_on_c, 1, 71, 127
2, 70280, Note_on_c, 1, 83, 127
2, 70400, Note_off_c, 1, 47, 0
2, 70400, Note_off_c, 1, 71, 0
2, 70400, Note_off_c, 1, 83, 0
2, 70480, Note_on_c, 1, 50, 127
2, 70480, Note_on_c, 1, 69, 127
2, 70480, Note_on_c, 1, 81, 127
2, 70560, Note_off_c, 1, 50, 0
2, 70680, Note_off_c, 1, 69, 0
2, 70680, Note_off_c, 1, 81, 0
2, 70720, Note_on_c, 1, 67, 127
2, 70720, Note_on_c, 1, 71, 127
2, 70720, Note_on_c, 1, 83, 127
2, 70880, Note_off_c, 1, 67, 0
2, 70880, Note_off_c, 1, 71, 0
2, 70880, Note_off_c, 1, 83, 0
2, 70920, Note_on_c, 1, 51, 127
2, 70920, Note_on_c, 1, 55, 127
2, 70920, Note_on_c, 1, 69, 127
2, 70920, Note_on_c, 1, 81, 127
2, 71040, Note_off_c, 1, 51, 0
2, 71040, Note_off_c, 1, 55, 0
2, 71040, Note_off_c, 1, 69, 0
2, 71040, Note_off_c, 1, 81, 0
2, 71120, Note_on_c, 1, 50, 127
2, 71120, Note_on_c, 1, 69, 127
2, 71120, Note_on_c, 1, 81, 127
2, 71240, Note_off_c, 1, 50, 0
2, 71240, Note_off_c, 1, 69, 0
2, 71240, Note_off_c, 1, 81, 0
2, 71360, Note_on_c, 1, 42, 127
2, 71360, Note_on_c, 1, 76, 127
2, 71360, Note_on_c, 1, 88, 127
2, 71440, Note_off_c, 1, 42, 0
2, 71440, Note_off_c, 1, 76, 0
2, 71440, Note_off_c, 1, 88, 0
2, 71560, Note_on_c, 1, 50, 127
2, 71560, Note_on_c, 1, 54, 127
2, 71560, Note_on_c, 1, 69, 127
2, 71560, Note_on_c, 1, 81, 127
2, 71760, Note_off_c, 1, 54, 0
2, 71800, Note_on_c, 1, 49, 127
2, 71800, Note_off_c, 1, 50, 0
2, 71800, Note_off_c, 1, 69, 0
2, 71800, Note_on_c, 1, 73, 127
2, 71800, Note_on_c, 1, 76, 127
2, 71800, Note_on_c, 1, 85, 127
2, 71960, Note_off_c, 1, 49, 0
2, 71960, Note_off_c, 1, 73, 0
2, 71960, Note_off_c, 1, 76, 0
2, 71960, Note_off_c, 1, 81, 0
2, 71960, Note_off_c, 1, 85, 0
2, 72040, Note_on_c, 1, 38, 127
2, 72040, Note_on_c, 1, 50, 127
2, 72040, Note_on_c, 1, 71, 127
2, 72040, Note_on_c, 1, 79, 127
2, 72200, Note_off_c, 1, 38, 0
2, 72200, Note_off_c, 1, 50, 0
2, 72200, Note_off_c, 1, 71, 0
2, 72200, Note_off_c, 1, 79, 0
2, 72280, Note_on_c, 1, 38, 127
2, 72280, Note_on_c, 1, 50, 127
2, 72280, Note_on_c, 1, 69, 127
2, 72280, Note_on_c, 1, 74, 127
2, 72280, Note_on_c, 1, 78, 127
2, 72320, Note_off_c, 1, 38, 0
2, 72320, Note_off_c, 1, 50, 0
2, 72320, Note_off_c, 1, 69, 0
2, 72320, Note_off_c, 1, 74, 0
2, 72320, Note_off_c, 1, 78, 0
2, 72480, Note_on_c, 1, 38, 127
2, 72480, Note_on_c, 1, 50, 127
2, 72480, Note_on_c, 1, 59, 127
2, 72480, Note_on_c, 1, 66, 127
2, 72480, Note_on_c, 1, 71, 127
2, 72560, Note_off_c, 1, 38, 0
2, 72560, Note_off_c, 1, 50, 0
2, 72560, Note_off_c, 1, 59, 0
2, 72560, Note_off_c, 1, 66, 0
2, 72560, Note_off_c, 1, 71, 0
2, 72680, Note_on_c, 1, 55, 127
2, 72680, Note_on_c, 1, 62, 127
2, 72680, Note_on_c, 1, 67, 127
2, 72680, Note_on_c, 1, 71, 127
2, 72680, Note_on_c, 1, 74, 127
2, 73320, Note_off_c, 1, 55, 0
2, 73320, Note_off_c, 1, 62, 0
2, 73320, Note_off_c, 1, 67, 0
2, 73320, Note_off_c, 1, 71, 0
2, 73320, Note_off_c, 1, 74, 0
2, 73360, Note_on_c, 1, 43, 127
2, 73360, Note_on_c, 1, 55, 127
2, 73360, Note_on_c, 1, 62, 127
2, 73360, Note_on_c, 1, 67, 127
2, 73360, Note_on_c, 1, 71, 127
2, 73720, Note_off_c, 1, 43, 0
2, 73720, Note_off_c, 1, 55, 0
2, 73720, Note_off_c, 1, 62, 0
2, 73720, Note_off_c, 1, 67, 0
2, 73720, Note_off_c, 1, 71, 0
2, 73800, Note_on_c, 1, 43, 127
2, 73800, Note_on_c, 1, 55, 127
2, 73800, Note_on_c, 1, 62, 127
2, 73800, Note_on_c, 1, 67, 127
2, 73800, Note_on_c, 1, 71, 127
2, 73960, Note_off_c, 1, 43, 0
2, 73960, Note_off_c, 1, 55, 0
2, 73960, Note_off_c, 1, 62, 0
2, 73960, Note_off_c, 1, 67, 0
2, 73960, Note_off_c, 1, 71, 0
2, 74280, Note_on_c, 1, 59, 127
2, 74280, Note_on_c, 1, 63, 127
2, 74280, Note_on_c, 1, 68, 127
2, 74280, Note_on_c, 1, 71, 127
2, 74640, Note_off_c, 1, 59, 0
2, 74640, Note_off_c, 1, 63, 0
2, 74640, Note_off_c, 1, 68, 0
2, 74640, Note_off_c, 1, 71, 0
2, 74720, Note_on_c, 1, 55, 127
2, 74720, Note_on_c, 1, 58, 127
2, 74720, Note_on_c, 1, 62, 127
2, 74720, Note_on_c, 1, 67, 127
2, 74720, Note_on_c, 1, 70, 127
2, 75120, Note_off_c, 1, 55, 0
2, 75120, Note_off_c, 1, 58, 0
2, 75120, Note_off_c, 1, 62, 0
2, 75120, Note_off_c, 1, 67, 0
2, 75120, Note_off_c, 1, 70, 0
2, 75160, Note_on_c, 1, 56, 127
2, 75160, Note_on_c, 1, 58, 127
2, 75160, Note_on_c, 1, 65, 127
2, 75160, Note_on_c, 1, 70, 127
2, 75160, Note_on_c, 1, 74, 127
2, 75520, Note_off_c, 1, 56, 0
2, 75520, Note_off_c, 1, 58, 0
2, 75520, Note_off_c, 1, 65, 0
2, 75520, Note_off_c, 1, 70, 0
2, 75520, Note_off_c, 1, 74, 0
2, 75600, Note_on_c, 1, 31, 127
2, 75600, Note_on_c, 1, 38, 127
2, 75600, Note_on_c, 1, 43, 127
2, 75600, Note_on_c, 1, 71, 127
2, 75600, Note_on_c, 1, 79, 127
2, 75960, Note_off_c, 1, 31, 0
2, 75960, Note_off_c, 1, 38, 0
2, 75960, Note_off_c, 1, 43, 0
2, 75960, Note_off_c, 1, 71, 0
2, 75960, Note_off_c, 1, 79, 0
2, 76000, Note_on_c, 1, 62, 127
2, 76000, Note_on_c, 1, 74, 127
2, 76120, Note_off_c, 1, 62, 0
2, 76120, Note_off_c, 1, 74, 0
2, 76160, Note_on_c, 1, 62, 127
2, 76160, Note_on_c, 1, 74, 127
2, 76520, Note_off_c, 1, 62, 0
2, 76520, Note_on_c, 1, 63, 127
2, 76520, Note_off_c, 1, 74, 0
2, 76520, Note_on_c, 1, 75, 127
2, 76640, Note_off_c, 1, 63, 0
2, 76640, Note_off_c, 1, 75, 0
2, 76680, Note_on_c, 1, 62, 127
2, 76680, Note_on_c, 1, 74, 127
2, 76880, Note_off_c, 1, 62, 0
2, 76880, Note_off_c, 1, 74, 0
2, 76920, Note_on_c, 1, 60, 127
2, 76920, Note_on_c, 1, 72, 127
2, 77320, Note_off_c, 1, 60, 0
2, 77320, Note_off_c, 1, 72, 0
2, 77360, Note_on_c, 1, 50, 127
2, 77360, Note_on_c, 1, 56, 127
2, 77360, Note_on_c, 1, 59, 127
2, 77360, Note_on_c, 1, 65, 127
2, 77360, Note_on_c, 1, 75, 127
2, 77360, Note_on_c, 1, 87, 127
2, 77400, Note_on_c, 1, 37, 127
2, 77400, Note_on_c, 1, 41, 127
2, 77400, Note_off_c, 1, 50, 0
2, 77400, Note_off_c, 1, 65, 0
2, 77400, Note_on_c, 1, 68, 127
2, 77400, Note_off_c, 1, 75, 0
2, 77400, Note_off_c, 1, 87, 0
2, 77440, Note_on_c, 1, 33, 127
2, 77440, Note_off_c, 1, 37, 0
2, 77440, Note_off_c, 1, 41, 0
2, 77440, Note_on_c, 1, 45, 127
2, 77440, Note_off_c, 1, 56, 0
2, 77440, Note_off_c, 1, 59, 0
2, 77440, Note_on_c, 1, 80, 127
2, 77480, Note_off_c, 1, 33, 0
2, 77480, Note_on_c, 1, 34, 127
2, 77480, Note_on_c, 1, 43, 127
2, 77480, Note_off_c, 1, 45, 0
2, 77480, Note_off_c, 1, 68, 0
2, 77480, Note_on_c, 1, 74, 127
2, 77480, Note_off_c, 1, 80, 0
2, 77520, Note_off_c, 1, 34, 0
2, 77520, Note_on_c, 1, 40, 127
2, 77520, Note_on_c, 1, 47, 127
2, 77520, Note_on_c, 1, 52, 127
2, 77520, Note_on_c, 1, 67, 127
2, 77520, Note_off_c, 1, 74, 0
2, 77560, Note_on_c, 1, 29, 127
2, 77560, Note_off_c, 1, 40, 0
2, 77560, Note_on_c, 1, 41, 127
2, 77560, Note_off_c, 1, 43, 0
2, 77560, Note_off_c, 1, 47, 0
2, 77560, Note_off_c, 1, 52, 0
2, 77560, Note_on_c, 1, 65, 127
2, 77560, Note_off_c, 1, 67, 0
2, 77560, Note_on_c, 1, 69, 127
2, 77560, Note_on_c, 1, 74, 127
2, 77560, Note_on_c, 1, 77, 127
2, 77600, Note_off_c, 1, 29, 0
2, 77600, Note_off_c, 1, 41, 0
2, 77600, Note_on_c, 1, 48, 127
2, 77600, Note_on_c, 1, 52, 127
2, 77600, Note_on_c, 1, 60, 127
2, 77600, Note_off_c, 1, 65, 0
2, 77600, Note_off_c, 1, 69, 0
2, 77600, Note_on_c, 1, 71, 127
2, 77600, Note_off_c, 1, 74, 0
2, 77600, Note_on_c, 1, 76, 127
2, 77600, Note_off_c, 1, 77, 0
2, 77640, Note_on_c, 1, 38, 127
2, 77640, Note_off_c, 1, 48, 0
2, 77640, Note_on_c, 1, 50, 127
2, 77640, Note_off_c, 1, 52, 0
2, 77640, Note_on_c, 1, 59, 127
2, 77640, Note_off_c, 1, 60, 0
2, 77640, Note_on_c, 1, 62, 127
2, 77640, Note_on_c, 1, 67, 127
2, 77640, Note_off_c, 1, 76, 0
2, 77680, Note_on_c, 1, 35, 127
2, 77680, Note_off_c, 1, 38, 0
2, 77680, Note_on_c, 1, 45, 127
2, 77680, Note_off_c, 1, 50, 0
2, 77680, Note_on_c, 1, 52, 127
2, 77680, Note_off_c, 1, 59, 0
2, 77680, Note_off_c, 1, 62, 0
2, 77680, Note_on_c, 1, 64, 127
2, 77680, Note_off_c, 1, 67, 0
2, 77680, Note_on_c, 1, 69, 127
2, 77680, Note_off_c, 1, 71, 0
2, 77680, Note_on_c, 1, 74, 127
2, 77720, Note_off_c, 1, 35, 0
2, 77720, Note_on_c, 1, 44, 127
2, 77720, Note_off_c, 1, 45, 0
2, 77720, Note_off_c, 1, 52, 0
2, 77720, Note_off_c, 1, 64, 0
2, 77720, Note_off_c, 1, 69, 0
2, 77720, Note_off_c, 1, 74, 0
2, 77720, Note_on_c, 1, 87, 127
2, 77720, Note_on_c, 1, 90, 127
2, 77720, Note_on_c, 1, 99, 127
2, 77760, Note_off_c, 1, 44, 0
2, 77760, Note_off_c, 1, 87, 0
2, 77760, Note_off_c, 1, 90, 0
2, 77760, Note_off_c, 1, 99, 0
2, 77800, Note_on_c, 1, 45, 127
2, 77800, Note_on_c, 1, 53, 127
2, 77800, Note_on_c, 1, 57, 127
2, 77800, Note_on_c, 1, 69, 127
2, 77800, Note_on_c, 1, 77, 127
2, 77800, Note_on_c, 1, 81, 127
2, 77960, Note_off_c, 1, 45, 0
2, 77960, Note_on_c, 1, 49, 127
2, 77960, Note_off_c, 1, 53, 0
2, 77960, Note_off_c, 1, 57, 0
2, 77960, Note_on_c, 1, 65, 127
2, 77960, Note_on_c, 1, 68, 127
2, 77960, Note_off_c, 1, 69, 0
2, 77960, Note_off_c, 1, 81, 0
2, 78000, Note_on_c, 1, 45, 127
2, 78000, Note_off_c, 1, 49, 0
2, 78000, Note_on_c, 1, 53, 127
2, 78000, Note_on_c, 1, 57, 127
2, 78000, Note_off_c, 1, 65, 0
2, 78000, Note_off_c, 1, 68, 0
2, 78000, Note_on_c, 1, 69, 127
2, 78000, Note_on_c, 1, 81, 127
2, 78160, Note_off_c, 1, 45, 0
2, 78160, Note_off_c, 1, 53, 0
2, 78160, Note_off_c, 1, 57, 0
2, 78160, Note_off_c, 1, 69, 0
2, 78160, Note_off_c, 1, 77, 0
2, 78160, Note_off_c, 1, 81, 0
2, 78280, Note_on_c, 1, 53, 127
2, 78280, Note_on_c, 1, 76, 127
2, 78440, Note_off_c, 1, 53, 0
2, 78440, Note_on_c, 1, 64, 127
2, 78440, Note_on_c, 1, 71, 127
2, 78440, Note_off_c, 1, 76, 0
2, 78440, Note_on_c, 1, 83, 127
2, 78440, Note_on_c, 1, 90, 127
2, 78480, Note_on_c, 1, 57, 127
2, 78480, Note_off_c, 1, 64, 0
2, 78480, Note_off_c, 1, 71, 0
2, 78480, Note_on_c, 1, 72, 127
2, 78480, Note_off_c, 1, 83, 0
2, 78480, Note_on_c, 1, 84, 127
2, 78480, Note_on_c, 1, 88, 127
2, 78480, Note_off_c, 1, 90, 0
2, 78520, Note_on_c, 1, 43, 127
2, 78520, Note_on_c, 1, 55, 127
2, 78520, Note_off_c, 1, 57, 0
2, 78520, Note_on_c, 1, 59, 127
2, 78520, Note_on_c, 1, 67, 127
2, 78520, Note_on_c, 1, 71, 127
2, 78520, Note_off_c, 1, 72, 0
2, 78520, Note_off_c, 1, 84, 0
2, 78520, Note_off_c, 1, 88, 0
2, 78560, Note_off_c, 1, 43, 0
2, 78560, Note_on_c, 1, 52, 127
2, 78560, Note_off_c, 1, 59, 0
2, 78560, Note_on_c, 1, 60, 127
2, 78560, Note_off_c, 1, 67, 0
2, 78560, Note_off_c, 1, 71, 0
2, 78600, Note_on_c, 1, 49, 127
2, 78600, Note_off_c, 1, 52, 0
2, 78600, Note_on_c, 1, 53, 127
2, 78600, Note_off_c, 1, 55, 0
2, 78600, Note_on_c, 1, 59, 127
2, 78600, Note_off_c, 1, 60, 0
2, 78600, Note_on_c, 1, 68, 127
2, 78600, Note_on_c, 1, 73, 127
2, 78640, Note_off_c, 1, 49, 0
2, 78640, Note_off_c, 1, 53, 0
2, 78640, Note_off_c, 1, 59, 0
2, 78640, Note_off_c, 1, 68, 0
2, 78640, Note_off_c, 1, 73, 0
2, 78640, Note_on_c, 1, 75, 127
2, 78640, Note_on_c, 1, 81, 127
2, 78640, Note_on_c, 1, 89, 127
2, 78680, Note_on_c, 1, 43, 127
2, 78680, Note_on_c, 1, 50, 127
2, 78680, Note_on_c, 1, 55, 127
2, 78680, Note_off_c, 1, 75, 0
2, 78680, Note_on_c, 1, 77, 127
2, 78680, Note_on_c, 1, 79, 127
2, 78680, Note_off_c, 1, 81, 0
2, 78680, Note_on_c, 1, 83, 127
2, 78680, Note_on_c, 1, 86, 127
2, 78680, Note_off_c, 1, 89, 0
2, 78800, Note_on_c, 1, 41, 127
2, 78800, Note_off_c, 1, 43, 0
2, 78800, Note_off_c, 1, 50, 0
2, 78800, Note_on_c, 1, 53, 127
2, 78800, Note_off_c, 1, 55, 0
2, 78800, Note_off_c, 1, 77, 0
2, 78800, Note_off_c, 1, 79, 0
2, 78800, Note_on_c, 1, 95, 127
2, 78840, Note_off_c, 1, 41, 0
2, 78840, Note_off_c, 1, 53, 0
2, 78840, Note_off_c, 1, 83, 0
2, 78840, Note_off_c, 1, 86, 0
2, 78840, Note_off_c, 1, 95, 0
2, 78920, Note_on_c, 1, 30, 127
2, 78920, Note_on_c, 1, 42, 127
2, 78920, Note_on_c, 1, 61, 127
2, 78920, Note_on_c, 1, 64, 127
2, 79280, Note_off_c, 1, 30, 0
2, 79280, Note_off_c, 1, 42, 0
2, 79280, Note_off_c, 1, 61, 0
2, 79280, Note_off_c, 1, 64, 0
2, 79360, Note_on_c, 1, 54, 127
2, 79360, Note_on_c, 1, 59, 127
2, 79360, Note_on_c, 1, 62, 127
2, 79360, Note_on_c, 1, 68, 127
2, 79360, Note_on_c, 1, 80, 127
2, 79720, Note_off_c, 1, 54, 0
2, 79720, Note_off_c, 1, 59, 0
2, 79720, Note_off_c, 1, 62, 0
2, 79720, Note_off_c, 1, 68, 0
2, 79720, Note_off_c, 1, 80, 0
2, 79760, Note_on_c, 1, 57, 127
2, 79760, Note_on_c, 1, 62, 127
2, 79760, Note_on_c, 1, 64, 127
2, 79760, Note_on_c, 1, 69, 127
2, 79760, Note_on_c, 1, 81, 127
2, 80160, Note_off_c, 1, 57, 0
2, 80160, Note_off_c, 1, 62, 0
2, 80160, Note_off_c, 1, 64, 0
2, 80160, Note_off_c, 1, 69, 0
2, 80160, Note_off_c, 1, 81, 0
2, 80480, Note_on_c, 1, 47, 127
2, 80480, Note_on_c, 1, 59, 127
2, 80480, Note_on_c, 1, 67, 127
2, 80480, Note_on_c, 1, 74, 127
2, 80640, Note_off_c, 1, 47, 0
2, 80640, Note_off_c, 1, 59, 0
2, 80640, Note_off_c, 1, 67, 0
2, 80640, Note_off_c, 1, 74, 0
2, 80680, Note_on_c, 1, 40, 127
2, 80680, Note_on_c, 1, 64, 127
2, 80680, Note_on_c, 1, 67, 127
2, 81040, Note_off_c, 1, 40, 0
2, 81040, Note_off_c, 1, 64, 0
2, 81040, Note_off_c, 1, 67, 0
2, 81120, Note_on_c, 1, 43, 127
2, 81120, Note_on_c, 1, 52, 127
2, 81120, Note_on_c, 1, 64, 127
2, 81120, Note_on_c, 1, 69, 127
2, 81120, Note_on_c, 1, 72, 127
2, 81480, Note_off_c, 1, 43, 0
2, 81480, Note_off_c, 1, 52, 0
2, 81480, Note_off_c, 1, 64, 0
2, 81480, Note_off_c, 1, 69, 0
2, 81480, Note_off_c, 1, 72, 0
2, 81560, Note_on_c, 1, 68, 127
2, 81760, Note_on_c, 1, 45, 127
2, 81760, Note_on_c, 1, 51, 127
2, 81760, Note_on_c, 1, 57, 127
2, 81760, Note_on_c, 1, 61, 127
2, 81760, Note_off_c, 1, 68, 0
2, 82000, Note_off_c, 1, 61, 0
2, 82000, Note_on_c, 1, 66, 127
2, 82160, Note_off_c, 1, 45, 0
2, 82160, Note_off_c, 1, 51, 0
2, 82160, Note_off_c, 1, 57, 0
2, 82160, Note_off_c, 1, 66, 0
2, 82200, Note_on_c, 1, 74, 127
2, 82400, Note_off_c, 1, 74, 0
2, 82440, Note_on_c, 1, 66, 127
2, 82440, Note_on_c, 1, 74, 127
2, 82600, Note_off_c, 1, 66, 0
2, 82640, Note_on_c, 1, 59, 127
2, 82640, Note_on_c, 1, 65, 127
2, 82640, Note_on_c, 1, 68, 127
2, 82840, Note_off_c, 1, 59, 0
2, 82840, Note_off_c, 1, 65, 0
2, 82840, Note_off_c, 1, 68, 0
2, 82880, Note_on_c, 1, 59, 127
2, 82880, Note_on_c, 1, 65, 127
2, 82880, Note_on_c, 1, 68, 127
2, 83040, Note_off_c, 1, 59, 0
2, 83040, Note_off_c, 1, 65, 0
2, 83040, Note_off_c, 1, 68, 0
2, 83080, Note_on_c, 1, 50, 127
2, 83240, Note_off_c, 1, 50, 0
2, 83280, Note_on_c, 1, 57, 127
2, 83480, Note_off_c, 1, 57, 0
2, 83520, Note_on_c, 1, 62, 127
2, 83680, Note_off_c, 1, 62, 0
2, 83720, Note_on_c, 1, 67, 127
2, 83920, Note_off_c, 1, 67, 0
2, 83920, Note_off_c, 1, 74, 0
2, 83960, Note_on_c, 1, 77, 127
2, 83960, Note_on_c, 1, 79, 127
2, 83960, Note_on_c, 1, 82, 127
2, 83960, Note_on_c, 1, 86, 127
2, 84000, Note_on_c, 1, 43, 127
2, 84000, Note_on_c, 1, 47, 127
2, 84000, Note_on_c, 1, 55, 127
2, 84000, Note_on_c, 1, 62, 127
2, 84000, Note_off_c, 1, 77, 0
2, 84000, Note_off_c, 1, 79, 0
2, 84000, Note_off_c, 1, 82, 0
2, 84000, Note_off_c, 1, 86, 0
2, 84040, Note_on_c, 1, 42, 127
2, 84040, Note_off_c, 1, 43, 0
2, 84040, Note_off_c, 1, 47, 0
2, 84040, Note_off_c, 1, 62, 0
2, 84040, Note_on_c, 1, 67, 127
2, 84080, Note_off_c, 1, 42, 0
2, 84080, Note_on_c, 1, 43, 127
2, 84080, Note_on_c, 1, 47, 127
2, 84080, Note_on_c, 1, 62, 127
2, 84080, Note_off_c, 1, 67, 0
2, 84120, Note_off_c, 1, 43, 0
2, 84120, Note_off_c, 1, 47, 0
2, 84120, Note_on_c, 1, 50, 127
2, 84120, Note_on_c, 1, 54, 127
2, 84120, Note_off_c, 1, 55, 0
2, 84120, Note_on_c, 1, 60, 127
2, 84120, Note_off_c, 1, 62, 0
2, 84160, Note_on_c, 1, 43, 127
2, 84160, Note_off_c, 1, 50, 0
2, 84160, Note_off_c, 1, 54, 0
2, 84160, Note_on_c, 1, 55, 127
2, 84160, Note_off_c, 1, 60, 0
2, 84160, Note_on_c, 1, 62, 127
2, 84160, Note_on_c, 1, 67, 127
2, 84400, Note_on_c, 1, 72, 127
2, 84560, Note_off_c, 1, 43, 0
2, 84560, Note_off_c, 1, 55, 0
2, 84560, Note_off_c, 1, 62, 0
2, 84560, Note_off_c, 1, 67, 0
2, 84560, Note_off_c, 1, 72, 0
2, 84600, Note_on_c, 1, 62, 127
2, 84600, Note_on_c, 1, 67, 127
2, 84640, Note_on_c, 1, 43, 127
2, 84640, Note_on_c, 1, 55, 127
2, 84640, Note_on_c, 1, 72, 127
2, 85040, Note_off_c, 1, 43, 0
2, 85040, Note_off_c, 1, 55, 0
2, 85040, Note_off_c, 1, 72, 0
2, 85080, Note_on_c, 1, 43, 127
2, 85080, Note_on_c, 1, 55, 127
2, 85080, Note_on_c, 1, 72, 127
2, 85480, Note_off_c, 1, 43, 0
2, 85480, Note_off_c, 1, 55, 0
2, 85480, Note_off_c, 1, 62, 0
2, 85480, Note_off_c, 1, 67, 0
2, 85480, Note_off_c, 1, 72, 0
2, 85720, Note_on_c, 1, 74, 127
2, 85920, Note_on_c, 1, 55, 127
2, 86120, Note_off_c, 1, 74, 0
2, 86320, Note_off_c, 1, 55, 0
2, 86360, Note_on_c, 1, 58, 127
2, 86520, Note_off_c, 1, 58, 0
2, 86600, Note_on_c, 1, 86, 127
2, 87000, Note_off_c, 1, 86, 0
2, 87040, Note_on_c, 1, 60, 127
2, 87040, Note_on_c, 1, 64, 127
2, 87040, Note_on_c, 1, 67, 127
2, 87040, Note_on_c, 1, 72, 127
2, 87040, Note_on_c, 1, 74, 127
2, 87080, Note_on_c, 1, 35, 127
2, 87080, Note_on_c, 1, 42, 127
2, 87080, Note_off_c, 1, 60, 0
2, 87080, Note_on_c, 1, 70, 127
2, 87080, Note_off_c, 1, 72, 0
2, 87080, Note_on_c, 1, 73, 127
2, 87080, Note_off_c, 1, 74, 0
2, 87120, Note_on_c, 1, 27, 127
2, 87120, Note_off_c, 1, 35, 0
2, 87120, Note_on_c, 1, 39, 127
2, 87120, Note_off_c, 1, 42, 0
2, 87120, Note_on_c, 1, 47, 127
2, 87120, Note_on_c, 1, 54, 127
2, 87120, Note_on_c, 1, 59, 127
2, 87120, Note_off_c, 1, 64, 0
2, 87120, Note_off_c, 1, 67, 0
2, 87120, Note_off_c, 1, 70, 0
2, 87120, Note_on_c, 1, 71, 127
2, 87120, Note_on_c, 1, 72, 127
2, 87120, Note_off_c, 1, 73, 0
2, 87120, Note_on_c, 1, 78, 127
2, 87120, Note_on_c, 1, 83, 127
2, 87160, Note_off_c, 1, 27, 0
2, 87160, Note_on_c, 1, 35, 127
2, 87160, Note_off_c, 1, 39, 0
2, 87160, Note_on_c, 1, 42, 127
2, 87160, Note_off_c, 1, 47, 0
2, 87160, Note_off_c, 1, 54, 0
2, 87160, Note_off_c, 1, 59, 0
2, 87160, Note_on_c, 1, 64, 127
2, 87160, Note_on_c, 1, 67, 127
2, 87160, Note_on_c, 1, 70, 127
2, 87160, Note_off_c, 1, 71, 0
2, 87160, Note_off_c, 1, 72, 0
2, 87160, Note_on_c, 1, 73, 127
2, 87160, Note_off_c, 1, 78, 0
2, 87160, Note_off_c, 1, 83, 0
2, 87200, Note_on_c, 1, 31, 127
2, 87200, Note_off_c, 1, 35, 0
2, 87200, Note_off_c, 1, 42, 0
2, 87200, Note_off_c, 1, 64, 0
2, 87200, Note_off_c, 1, 67, 0
2, 87200, Note_off_c, 1, 70, 0
2, 87200, Note_off_c, 1, 73, 0
2, 87200, Note_on_c, 1, 77, 127
2, 87200, Note_on_c, 1, 79, 127
2, 87200, Note_on_c, 1, 86, 127
2, 87200, Note_on_c, 1, 89, 127
2, 87240, Note_off_c, 1, 31, 0
2, 87240, Note_on_c, 1, 45, 127
2, 87240, Note_on_c, 1, 69, 127
2, 87240, Note_on_c, 1, 72, 127
2, 87240, Note_on_c, 1, 76, 127
2, 87240, Note_off_c, 1, 77, 0
2, 87240, Note_off_c, 1, 79, 0
2, 87240, Note_on_c, 1, 81, 127
2, 87240, Note_off_c, 1, 86, 0
2, 87240, Note_off_c, 1, 89, 0
2, 87360, Note_off_c, 1, 45, 0
2, 87360, Note_on_c, 1, 52, 127
2, 87400, Note_on_c, 1, 48, 127
2, 87400, Note_off_c, 1, 52, 0
2, 87400, Note_on_c, 1, 55, 127
2, 87400, Note_on_c, 1, 58, 127
2, 87400, Note_on_c, 1, 64, 127
2, 87400, Note_off_c, 1, 69, 0
2, 87400, Note_off_c, 1, 81, 0
2, 87440, Note_off_c, 1, 48, 0
2, 87440, Note_off_c, 1, 55, 0
2, 87440, Note_off_c, 1, 58, 0
2, 87440, Note_off_c, 1, 64, 0
2, 87440, Note_off_c, 1, 72, 0
2, 87440, Note_off_c, 1, 76, 0
2, 87480, Note_on_c, 1, 65, 127
2, 87680, Note_on_c, 1, 71, 127
2, 87880, Note_off_c, 1, 65, 0
2, 87880, Note_off_c, 1, 71, 0
2, 87920, Note_on_c, 1, 52, 127
2, 87920, Note_on_c, 1, 70, 127
2, 87920, Note_on_c, 1, 73, 127
2, 87920, Note_on_c, 1, 79, 127
2, 88280, Note_off_c, 1, 52, 0
2, 88320, Note_on_c, 1, 52, 127
2, 88520, Note_off_c, 1, 52, 0
2, 88520, Note_off_c, 1, 70, 0
2, 88520, Note_off_c, 1, 73, 0
2, 88520, Note_off_c, 1, 79, 0
2, 88600, Note_on_c, 1, 52, 127
2, 88600, Note_on_c, 1, 70, 127
2, 88600, Note_on_c, 1, 73, 127
2, 88600, Note_on_c, 1, 79, 127
2, 88760, Note_off_c, 1, 52, 0
2, 88760, Note_off_c, 1, 73, 0
2, 88760, Note_off_c, 1, 79, 0
2, 88800, Note_off_c, 1, 70, 0
2, 88800, Note_on_c, 1, 79, 127
2, 88800, Note_on_c, 1, 82, 127
2, 88800, Note_on_c, 1, 86, 127
2, 88960, Note_off_c, 1, 79, 0
2, 88960, Note_off_c, 1, 82, 0
2, 88960, Note_off_c, 1, 86, 0
2, 89000, Note_on_c, 1, 52, 127
2, 89400, Note_off_c, 1, 52, 0
2, 89440, Note_on_c, 1, 67, 127
2, 89440, Note_on_c, 1, 73, 127
2, 89440, Note_on_c, 1, 78, 127
2, 89440, Note_on_c, 1, 81, 127
2, 89640, Note_on_c, 1, 59, 127
2, 89640, Note_off_c, 1, 67, 0
2, 89640, Note_on_c, 1, 71, 127
2, 89640, Note_off_c, 1, 73, 0
2, 89720, Note_off_c, 1, 59, 0
2, 89760, Note_on_c, 1, 59, 127
2, 89760, Note_on_c, 1, 74, 127
2, 89760, Note_off_c, 1, 78, 0
2, 89760, Note_off_c, 1, 81, 0
2, 89760, Note_on_c, 1, 83, 127
2, 89840, Note_on_c, 1, 54, 127
2, 89840, Note_off_c, 1, 59, 0
2, 89840, Note_off_c, 1, 83, 0
2, 89880, Note_on_c, 1, 46, 127
2, 89880, Note_on_c, 1, 49, 127
2, 89880, Note_off_c, 1, 54, 0
2, 89880, Note_off_c, 1, 71, 0
2, 89880, Note_off_c, 1, 74, 0
2, 89880, Note_on_c, 1, 77, 127
2, 89880, Note_on_c, 1, 85, 127
2, 89880, Note_on_c, 1, 89, 127
2, 89920, Note_off_c, 1, 46, 0
2, 89920, Note_off_c, 1, 49, 0
2, 89920, Note_on_c, 1, 56, 127
2, 89920, Note_on_c, 1, 71, 127
2, 89920, Note_on_c, 1, 74, 127
2, 89920, Note_off_c, 1, 85, 0
2, 89920, Note_off_c, 1, 89, 0
2, 89960, Note_off_c, 1, 56, 0
2, 89960, Note_on_c, 1, 65, 127
2, 89960, Note_on_c, 1, 68, 127
2, 89960, Note_off_c, 1, 77, 0
2, 89960, Note_on_c, 1, 80, 127
2, 90040, Note_on_c, 1, 53, 127
2, 90040, Note_on_c, 1, 55, 127
2, 90040, Note_on_c, 1, 58, 127
2, 90040, Note_off_c, 1, 65, 0
2, 90040, Note_off_c, 1, 68, 0
2, 90040, Note_off_c, 1, 71, 0
2, 90040, Note_off_c, 1, 74, 0
2, 90040, Note_on_c, 1, 79, 127
2, 90040, Note_off_c, 1, 80, 0
2, 90080, Note_off_c, 1, 53, 0
2, 90080, Note_off_c, 1, 55, 0
2, 90080, Note_off_c, 1, 58, 0
2, 90080, Note_on_c, 1, 60, 127
2, 90080, Note_on_c, 1, 75, 127
2, 90080, Note_on_c, 1, 87, 127
2, 90120, Note_on_c, 1, 41, 127
2, 90120, Note_off_c, 1, 60, 0
2, 90120, Note_on_c, 1, 68, 127
2, 90120, Note_on_c, 1, 71, 127
2, 90120, Note_off_c, 1, 79, 0
2, 90120, Note_on_c, 1, 85, 127
2, 90120, Note_off_c, 1, 87, 0
2, 90160, Note_on_c, 1, 27, 127
2, 90160, Note_on_c, 1, 39, 127
2, 90160, Note_off_c, 1, 41, 0
2, 90160, Note_off_c, 1, 68, 0
2, 90160, Note_off_c, 1, 71, 0
2, 90160, Note_off_c, 1, 75, 0
2, 90160, Note_off_c, 1, 85, 0
2, 90160, Note_on_c, 1, 87, 127
2, 90160, Note_on_c, 1, 91, 127
2, 90160, Note_on_c, 1, 94, 127
2, 90160, Note_on_c, 1, 99, 127
2, 90200, Note_off_c, 1, 27, 0
2, 90200, Note_off_c, 1, 39, 0
2, 90200, Note_on_c, 1, 61, 127
2, 90200, Note_on_c, 1, 71, 127
2, 90200, Note_on_c, 1, 76, 127
2, 90200, Note_on_c, 1, 83, 127
2, 90200, Note_off_c, 1, 87, 0
2, 90200, Note_off_c, 1, 91, 0
2, 90200, Note_off_c, 1, 94, 0
2, 90200, Note_off_c, 1, 99, 0
2, 90240, Note_on_c, 1, 59, 127
2, 90240, Note_off_c, 1, 61, 0
2, 90240, Note_off_c, 1, 71, 0
2, 90240, Note_off_c, 1, 76, 0
2, 90240, Note_off_c, 1, 83, 0
2, 90280, Note_off_c, 1, 59, 0
2, 90280, Note_on_c, 1, 60, 127
2, 90280, Note_on_c, 1, 63, 127
2, 90280, Note_on_c, 1, 66, 127
2, 90280, Note_on_c, 1, 74, 127
2, 90280, Note_on_c, 1, 78, 127
2, 90320, Note_on_c, 1, 49, 127
2, 90320, Note_on_c, 1, 54, 127
2, 90320, Note_off_c, 1, 60, 0
2, 90320, Note_off_c, 1, 63, 0
2, 90320, Note_on_c, 1, 65, 127
2, 90320, Note_off_c, 1, 66, 0
2, 90320, Note_on_c, 1, 73, 127
2, 90320, Note_off_c, 1, 74, 0
2, 90320, Note_on_c, 1, 77, 127
2, 90320, Note_off_c, 1, 78, 0
2, 90480, Note_off_c, 1, 49, 0
2, 90480, Note_off_c, 1, 54, 0
2, 90480, Note_off_c, 1, 65, 0
2, 90480, Note_on_c, 1, 74, 127
2, 90480, Note_on_c, 1, 76, 127
2, 90480, Note_off_c, 1, 77, 0
2, 90520, Note_on_c, 1, 62, 127
2, 90520, Note_off_c, 1, 73, 0
2, 90520, Note_off_c, 1, 74, 0
2, 90520, Note_off_c, 1, 76, 0
2, 90520, Note_on_c, 1, 78, 127
2, 90520, Note_on_c, 1, 84, 127
2, 90560, Note_on_c, 1, 61, 127
2, 90560, Note_off_c, 1, 62, 0
2, 90560, Note_on_c, 1, 73, 127
2, 90560, Note_off_c, 1, 78, 0
2, 90560, Note_on_c, 1, 80, 127
2, 90560, Note_on_c, 1, 83, 127
2, 90560, Note_off_c, 1, 84, 0
2, 90560, Note_on_c, 1, 85, 127
2, 90600, Note_off_c, 1, 61, 0
2, 90600, Note_on_c, 1, 62, 127
2, 90600, Note_off_c, 1, 73, 0
2, 90600, Note_on_c, 1, 78, 127
2, 90600, Note_off_c, 1, 80, 0
2, 90600, Note_off_c, 1, 83, 0
2, 90600, Note_on_c, 1, 84, 127
2, 90600, Note_off_c, 1, 85, 0
2, 90640, Note_off_c, 1, 62, 0
2, 90640, Note_off_c, 1, 78, 0
2, 90640, Note_off_c, 1, 84, 0
2, 90680, Note_on_c, 1, 78, 127
2, 90680, Note_on_c, 1, 86, 127
2, 90720, Note_off_c, 1, 78, 0
2, 90720, Note_off_c, 1, 86, 0
2, 90760, Note_on_c, 1, 64, 127
2, 90760, Note_on_c, 1, 79, 127
2, 90760, Note_on_c, 1, 84, 127
2, 91160, Note_off_c, 1, 64, 0
2, 91200, Note_on_c, 1, 64, 127
2, 91360, Note_off_c, 1, 64, 0
2, 91360, Note_off_c, 1, 79, 0
2, 91360, Note_off_c, 1, 84, 0
2, 91400, Note_on_c, 1, 63, 127
2, 91400, Note_on_c, 1, 78, 127
2, 91400, Note_on_c, 1, 81, 127
2, 91600, Note_off_c, 1, 63, 0
2, 91600, Note_off_c, 1, 78, 0
2, 91600, Note_off_c, 1, 81, 0
2, 91640, Note_on_c, 1, 52, 127
2, 91640, Note_on_c, 1, 76, 127
2, 91640, Note_on_c, 1, 79, 127
2, 91800, Note_off_c, 1, 52, 0
2, 91840, Note_on_c, 1, 55, 127
2, 92000, Note_off_c, 1, 55, 0
2, 92000, Note_off_c, 1, 76, 0
2, 92000, Note_off_c, 1, 79, 0
2, 92040, Note_on_c, 1, 55, 127
2, 92040, Note_on_c, 1, 75, 127
2, 92040, Note_on_c, 1, 78, 127
2, 92240, Note_off_c, 1, 55, 0
2, 92280, Note_on_c, 1, 55, 127
2, 92440, Note_off_c, 1, 55, 0
2, 92440, Note_off_c, 1, 75, 0
2, 92440, Note_off_c, 1, 78, 0
2, 92480, Note_on_c, 1, 55, 127
2, 92480, Note_on_c, 1, 76, 127
2, 92480, Note_on_c, 1, 79, 127
2, 92640, Note_off_c, 1, 55, 0
2, 92640, Note_off_c, 1, 76, 0
2, 92640, Note_off_c, 1, 79, 0
2, 92680, Note_on_c, 1, 76, 127
2, 92680, Note_on_c, 1, 79, 127
2, 92720, Note_on_c, 1, 52, 127
2, 92920, Note_off_c, 1, 52, 0
2, 92920, Note_off_c, 1, 76, 0
2, 92920, Note_off_c, 1, 79, 0
2, 92960, Note_on_c, 1, 45, 127
2, 93160, Note_on_c, 1, 47, 127
2, 93360, Note_off_c, 1, 47, 0
2, 93400, Note_on_c, 1, 61, 127
2, 93400, Note_on_c, 1, 75, 127
2, 93400, Note_on_c, 1, 78, 127
2, 93560, Note_off_c, 1, 61, 0
2, 93560, Note_off_c, 1, 75, 0
2, 93560, Note_off_c, 1, 78, 0
2, 93600, Note_on_c, 1, 69, 127
2, 93600, Note_on_c, 1, 73, 127
2, 93600, Note_on_c, 1, 78, 127
2, 93600, Note_on_c, 1, 81, 127
2, 94000, Note_on_c, 1, 42, 127
2, 94000, Note_off_c, 1, 45, 0
2, 94000, Note_off_c, 1, 69, 0
2, 94000, Note_off_c, 1, 73, 0
2, 94000, Note_off_c, 1, 78, 0
2, 94000, Note_off_c, 1, 81, 0
2, 94040, Note_off_c, 1, 42, 0
2, 94040, Note_on_c, 1, 45, 127
2, 94040, Note_on_c, 1, 69, 127
2, 94040, Note_on_c, 1, 73, 127
2, 94040, Note_on_c, 1, 78, 127
2, 94040, Note_on_c, 1, 81, 127
2, 94400, Note_off_c, 1, 45, 0
2, 94400, Note_on_c, 1, 57, 127
2, 94400, Note_on_c, 1, 64, 127
2, 94400, Note_on_c, 1, 72, 127
2, 94400, Note_off_c, 1, 73, 0
2, 94400, Note_off_c, 1, 81, 0
2, 94440, Note_off_c, 1, 57, 0
2, 94440, Note_off_c, 1, 64, 0
2, 94440, Note_off_c, 1, 69, 0
2, 94440, Note_off_c, 1, 72, 0
2, 94440, Note_off_c, 1, 78, 0
2, 94480, Note_on_c, 1, 45, 127
2, 94480, Note_on_c, 1, 69, 127
2, 94480, Note_on_c, 1, 73, 127
2, 94480, Note_on_c, 1, 78, 127
2, 94480, Note_on_c, 1, 81, 127
2, 94840, Note_off_c, 1, 45, 0
2, 94840, Note_off_c, 1, 69, 0
2, 94840, Note_off_c, 1, 73, 0
2, 94840, Note_off_c, 1, 78, 0
2, 94840, Note_off_c, 1, 81, 0
2, 94880, Note_on_c, 1, 45, 127
2, 94880, Note_on_c, 1, 69, 127
2, 94880, Note_on_c, 1, 73, 127
2, 94880, Note_on_c, 1, 78, 127
2, 94880, Note_on_c, 1, 81, 127
2, 95360, Note_on_c, 1, 33, 127
2, 95360, Note_on_c, 1, 57, 127
2, 95360, Note_on_c, 1, 61, 127
2, 95360, Note_off_c, 1, 73, 0
2, 95360, Note_off_c, 1, 78, 0
2, 95360, Note_off_c, 1, 81, 0
2, 95400, Note_off_c, 1, 33, 0
2, 95400, Note_off_c, 1, 57, 0
2, 95400, Note_off_c, 1, 61, 0
2, 95400, Note_on_c, 1, 73, 127
2, 95400, Note_on_c, 1, 78, 127
2, 95400, Note_on_c, 1, 81, 127
2, 95560, Note_off_c, 1, 45, 0
2, 95560, Note_on_c, 1, 62, 127
2, 95560, Note_on_c, 1, 64, 127
2, 95560, Note_off_c, 1, 69, 0
2, 95560, Note_off_c, 1, 73, 0
2, 95560, Note_off_c, 1, 78, 0
2, 95560, Note_off_c, 1, 81, 0
2, 95560, Note_on_c, 1, 83, 127
2, 95600, Note_off_c, 1, 62, 0
2, 95600, Note_on_c, 1, 67, 127
2, 95600, Note_on_c, 1, 81, 127
2, 95600, Note_off_c, 1, 83, 0
2, 95600, Note_on_c, 1, 84, 127
2, 95600, Note_on_c, 1, 90, 127
2, 95640, Note_on_c, 1, 54, 127
2, 95640, Note_on_c, 1, 58, 127
2, 95640, Note_off_c, 1, 64, 0
2, 95640, Note_on_c, 1, 66, 127
2, 95640, Note_off_c, 1, 67, 0
2, 95640, Note_on_c, 1, 73, 127
2, 95640, Note_on_c, 1, 76, 127
2, 95640, Note_off_c, 1, 81, 0
2, 95640, Note_off_c, 1, 84, 0
2, 95640, Note_off_c, 1, 90, 0
2, 95680, Note_on_c, 1, 50, 127
2, 95680, Note_off_c, 1, 54, 0
2, 95680, Note_on_c, 1, 55, 127
2, 95680, Note_off_c, 1, 58, 0
2, 95680, Note_on_c, 1, 65, 127
2, 95680, Note_off_c, 1, 66, 0
2, 95680, Note_on_c, 1, 71, 127
2, 95680, Note_off_c, 1, 73, 0
2, 95680, Note_off_c, 1, 76, 0
2, 95680, Note_on_c, 1, 77, 127
2, 95720, Note_off_c, 1, 50, 0
2, 95720, Note_off_c, 1, 65, 0
2, 95720, Note_off_c, 1, 71, 0
2, 95720, Note_off_c, 1, 77, 0
2, 95720, Note_on_c, 1, 93, 127
2, 95720, Note_on_c, 1, 96, 127
2, 95760, Note_off_c, 1, 55, 0
2, 95760, Note_off_c, 1, 93, 0
2, 95760, Note_off_c, 1, 96, 0
2, 95800, Note_on_c, 1, 63, 127
2, 95800, Note_on_c, 1, 66, 127
2, 95800, Note_on_c, 1, 81, 127
2, 95800, Note_on_c, 1, 83, 127
2, 96000, Note_off_c, 1, 63, 0
2, 96000, Note_off_c, 1, 66, 0
2, 96000, Note_off_c, 1, 81, 0
2, 96040, Note_on_c, 1, 67, 127
2, 96040, Note_on_c, 1, 74, 127
2, 96040, Note_on_c, 1, 79, 127
2, 96040, Note_off_c, 1, 83, 0
2, 96040, Note_on_c, 1, 84, 127
2, 96200, Note_off_c, 1, 67, 0
2, 96200, Note_off_c, 1, 74, 0
2, 96200, Note_off_c, 1, 79, 0
2, 96200, Note_on_c, 1, 83, 127
2, 96200, Note_off_c, 1, 84, 0
2, 96240, Note_on_c, 1, 64, 127
2, 96240, Note_on_c, 1, 73, 127
2, 96240, Note_on_c, 1, 79, 127
2, 96240, Note_on_c, 1, 81, 127
2, 96240, Note_off_c, 1, 83, 0
2, 96240, Note_on_c, 1, 85, 127
2, 96400, Note_off_c, 1, 73, 0
2, 96400, Note_off_c, 1, 79, 0
2, 96400, Note_off_c, 1, 81, 0
2, 96440, Note_on_c, 1, 63, 127
2, 96440, Note_off_c, 1, 64, 0
2, 96440, Note_on_c, 1, 75, 127
2, 96600, Note_off_c, 1, 63, 0
2, 96600, Note_off_c, 1, 75, 0
2, 96640, Note_off_c, 1, 85, 0
2, 96680, Note_on_c, 1, 54, 127
2, 96680, Note_on_c, 1, 57, 127
2, 96680, Note_on_c, 1, 60, 127
2, 96680, Note_on_c, 1, 74, 127
2, 96680, Note_on_c, 1, 86, 127
2, 96720, Note_on_c, 1, 50, 127
2, 96720, Note_off_c, 1, 54, 0
2, 96720, Note_off_c, 1, 57, 0
2, 96720, Note_off_c, 1, 60, 0
2, 96720, Note_on_c, 1, 71, 127
2, 96720, Note_on_c, 1, 83, 127
2, 96720, Note_off_c, 1, 86, 0
2, 96760, Note_off_c, 1, 50, 0
2, 96760, Note_on_c, 1, 55, 127
2, 96760, Note_off_c, 1, 71, 0
2, 96760, Note_on_c, 1, 79, 127
2, 96800, Note_off_c, 1, 55, 0
2, 96800, Note_off_c, 1, 74, 0
2, 96800, Note_off_c, 1, 79, 0
2, 96800, Note_off_c, 1, 83, 0
2, 96840, Note_on_c, 1, 55, 127
2, 96840, Note_on_c, 1, 74, 127
2, 96840, Note_on_c, 1, 79, 127
2, 96840, Note_on_c, 1, 83, 127
2, 96880, Note_off_c, 1, 55, 0
2, 96920, Note_on_c, 1, 53, 127
2, 96960, Note_off_c, 1, 53, 0
2, 96960, Note_on_c, 1, 59, 127
2, 96960, Note_off_c, 1, 74, 0
2, 96960, Note_on_c, 1, 88, 127
2, 97000, Note_on_c, 1, 53, 127
2, 97000, Note_off_c, 1, 59, 0
2, 97000, Note_on_c, 1, 74, 127
2, 97000, Note_off_c, 1, 88, 0
2, 97080, Note_off_c, 1, 53, 0
2, 97080, Note_on_c, 1, 62, 127
2, 97080, Note_on_c, 1, 67, 127
2, 97080, Note_on_c, 1, 71, 127
2, 97080, Note_off_c, 1, 79, 0
2, 97080, Note_off_c, 1, 83, 0
2, 97080, Note_on_c, 1, 86, 127
2, 97120, Note_off_c, 1, 62, 0
2, 97120, Note_off_c, 1, 67, 0
2, 97120, Note_off_c, 1, 71, 0
2, 97120, Note_off_c, 1, 74, 0
2, 97120, Note_on_c, 1, 76, 127
2, 97120, Note_on_c, 1, 81, 127
2, 97120, Note_off_c, 1, 86, 0
2, 97120, Note_on_c, 1, 88, 127
2, 97160, Note_on_c, 1, 49, 127
2, 97320, Note_off_c, 1, 49, 0
2, 97360, Note_on_c, 1, 64, 127
2, 97560, Note_off_c, 1, 64, 0
2, 97560, Note_off_c, 1, 76, 0
2, 97560, Note_off_c, 1, 81, 0
2, 97560, Note_off_c, 1, 88, 0
2, 97600, Note_on_c, 1, 52, 127
2, 97600, Note_on_c, 1, 59, 127
2, 97600, Note_on_c, 1, 62, 127
2, 97600, Note_on_c, 1, 68, 127
2, 97600, Note_on_c, 1, 74, 127
2, 98000, Note_off_c, 1, 52, 0
2, 98000, Note_off_c, 1, 59, 0
2, 98000, Note_off_c, 1, 62, 0
2, 98000, Note_off_c, 1, 68, 0
2, 98000, Note_off_c, 1, 74, 0
2, 98040, Note_on_c, 1, 33, 127
2, 98040, Note_on_c, 1, 64, 127
2, 98240, Note_off_c, 1, 33, 0
2, 98240, Note_off_c, 1, 64, 0
2, 98240, Note_on_c, 1, 75, 127
2, 98240, Note_on_c, 1, 83, 127
2, 98240, Note_on_c, 1, 85, 127
2, 98240, Note_on_c, 1, 90, 127
2, 98280, Note_on_c, 1, 52, 127
2, 98280, Note_off_c, 1, 75, 0
2, 98280, Note_on_c, 1, 78, 127
2, 98280, Note_on_c, 1, 81, 127
2, 98280, Note_off_c, 1, 83, 0
2, 98320, Note_off_c, 1, 52, 0
2, 98320, Note_on_c, 1, 64, 127
2, 98320, Note_on_c, 1, 72, 127
2, 98320, Note_off_c, 1, 78, 0
2, 98320, Note_off_c, 1, 81, 0
2, 98320, Note_off_c, 1, 85, 0
2, 98320, Note_off_c, 1, 90, 0
2, 98320, Note_on_c, 1, 91, 127
2, 98320, Note_on_c, 1, 93, 127
2, 98360, Note_on_c, 1, 71, 127
2, 98360, Note_off_c, 1, 72, 0
2, 98360, Note_on_c, 1, 73, 127
2, 98360, Note_on_c, 1, 85, 127
2, 98360, Note_off_c, 1, 91, 0
2, 98360, Note_off_c, 1, 93, 0
2, 98400, Note_on_c, 1, 43, 127
2, 98400, Note_on_c, 1, 58, 127
2, 98400, Note_off_c, 1, 64, 0
2, 98400, Note_off_c, 1, 71, 0
2, 98400, Note_off_c, 1, 73, 0
2, 98400, Note_on_c, 1, 74, 127
2, 98400, Note_on_c, 1, 82, 127
2, 98400, Note_off_c, 1, 85, 0
2, 98440, Note_off_c, 1, 43, 0
2, 98440, Note_off_c, 1, 58, 0
2, 98440, Note_on_c, 1, 73, 127
2, 98440, Note_off_c, 1, 74, 0
2, 98440, Note_on_c, 1, 78, 127
2, 98440, Note_on_c, 1, 81, 127
2, 98440, Note_off_c, 1, 82, 0
2, 98440, Note_on_c, 1, 85, 127
2, 98480, Note_on_c, 1, 47, 127
2, 98480, Note_on_c, 1, 50, 127
2, 98480, Note_on_c, 1, 56, 127
2, 98480, Note_off_c, 1, 73, 0
2, 98480, Note_off_c, 1, 78, 0
2, 98480, Note_off_c, 1, 81, 0
2, 98480, Note_on_c, 1, 83, 127
2, 98480, Note_off_c, 1, 85, 0
2, 98640, Note_off_c, 1, 83, 0
2, 98680, Note_off_c, 1, 47, 0
2, 98680, Note_on_c, 1, 48, 127
2, 98680, Note_off_c, 1, 50, 0
2, 98680, Note_off_c, 1, 56, 0
2, 98680, Note_on_c, 1, 60, 127
2, 98680, Note_on_c, 1, 67, 127
2, 98680, Note_on_c, 1, 72, 127
2, 98680, Note_on_c, 1, 77, 127
2, 98680, Note_on_c, 1, 79, 127
2, 98760, Note_off_c, 1, 48, 0
2, 98760, Note_off_c, 1, 60, 0
2, 98760, Note_off_c, 1, 67, 0
2, 98760, Note_off_c, 1, 72, 0
2, 98760, Note_off_c, 1, 77, 0
2, 98760, Note_off_c, 1, 79, 0
2, 98800, Note_on_c, 1, 48, 127
2, 98800, Note_on_c, 1, 60, 127
2, 98800, Note_on_c, 1, 67, 127
2, 98800, Note_on_c, 1, 72, 127
2, 98800, Note_on_c, 1, 77, 127
2, 98800, Note_on_c, 1, 79, 127
2, 98880, Note_off_c, 1, 48, 0
2, 98880, Note_off_c, 1, 60, 0
2, 98880, Note_off_c, 1, 67, 0
2, 98880, Note_off_c, 1, 72, 0
2, 98880, Note_off_c, 1, 77, 0
2, 98880, Note_off_c, 1, 79, 0
2, 98920, Note_on_c, 1, 48, 127
2, 98920, Note_on_c, 1, 61, 127
2, 98920, Note_on_c, 1, 73, 127
2, 98960, Note_on_c, 1, 44, 127
2, 98960, Note_off_c, 1, 48, 0
2, 98960, Note_on_c, 1, 53, 127
2, 98960, Note_on_c, 1, 57, 127
2, 98960, Note_off_c, 1, 61, 0
2, 98960, Note_on_c, 1, 69, 127
2, 98960, Note_off_c, 1, 73, 0
2, 99000, Note_on_c, 1, 41, 127
2, 99000, Note_off_c, 1, 44, 0
2, 99000, Note_on_c, 1, 49, 127
2, 99000, Note_off_c, 1, 53, 0
2, 99000, Note_off_c, 1, 57, 0
2, 99000, Note_on_c, 1, 61, 127
2, 99000, Note_off_c, 1, 69, 0
2, 99000, Note_on_c, 1, 71, 127
2, 99040, Note_off_c, 1, 41, 0
2, 99040, Note_on_c, 1, 48, 127
2, 99040, Note_off_c, 1, 49, 0
2, 99040, Note_off_c, 1, 71, 0
2, 99040, Note_on_c, 1, 73, 127
2, 99120, Note_off_c, 1, 48, 0
2, 99120, Note_off_c, 1, 61, 0
2, 99120, Note_off_c, 1, 73, 0
2, 99160, Note_on_c, 1, 62, 127
2, 99160, Note_on_c, 1, 74, 127
2, 99320, Note_off_c, 1, 62, 0
2, 99320, Note_off_c, 1, 74, 0
2, 99360, Note_on_c, 1, 65, 127
2, 99560, Note_on_c, 1, 70, 127
2, 99760, Note_off_c, 1, 65, 0
2, 99800, Note_on_c, 1, 64, 127
2, 99960, Note_off_c, 1, 64, 0
2, 100000, Note_on_c, 1, 34, 127
2, 100000, Note_on_c, 1, 46, 127
2, 100000, Note_off_c, 1, 70, 0
2, 100160, Note_off_c, 1, 34, 0
2, 100160, Note_off_c, 1, 46, 0
2, 100200, Note_on_c, 1, 58, 127
2, 100400, Note_off_c, 1, 58, 0
2, 100440, Note_on_c, 1, 62, 127
2, 100600, Note_off_c, 1, 62, 0
2, 100640, Note_on_c, 1, 57, 127
2, 100640, Note_on_c, 1, 60, 127
2, 100640, Note_on_c, 1, 66, 127
2, 100640, Note_on_c, 1, 78, 127
2, 100640, Note_on_c, 1, 79, 127
2, 100680, Note_off_c, 1, 57, 0
2, 100680, Note_off_c, 1, 60, 0
2, 100680, Note_off_c, 1, 66, 0
2, 100680, Note_on_c, 1, 67, 127
2, 100680, Note_on_c, 1, 73, 127
2, 100680, Note_off_c, 1, 78, 0
2, 100680, Note_off_c, 1, 79, 0
2, 100680, Note_on_c, 1, 84, 127
2, 100720, Note_on_c, 1, 46, 127
2, 100720, Note_on_c, 1, 58, 127
2, 100720, Note_off_c, 1, 67, 0
2, 100720, Note_off_c, 1, 73, 0
2, 100720, Note_on_c, 1, 79, 127
2, 100760, Note_on_c, 1, 35, 127
2, 100760, Note_off_c, 1, 46, 0
2, 100760, Note_on_c, 1, 54, 127
2, 100760, Note_off_c, 1, 58, 0
2, 100760, Note_on_c, 1, 59, 127
2, 100760, Note_on_c, 1, 61, 127
2, 100760, Note_on_c, 1, 64, 127
2, 100760, Note_on_c, 1, 71, 127
2, 100760, Note_off_c, 1, 79, 0
2, 100760, Note_off_c, 1, 84, 0
2, 100800, Note_off_c, 1, 35, 0
2, 100800, Note_on_c, 1, 43, 127
2, 100800, Note_on_c, 1, 48, 127
2, 100800, Note_off_c, 1, 54, 0
2, 100800, Note_off_c, 1, 59, 0
2, 100800, Note_on_c, 1, 60, 127
2, 100800, Note_off_c, 1, 61, 0
2, 100800, Note_off_c, 1, 71, 0
2, 100840, Note_off_c, 1, 43, 0
2, 100840, Note_off_c, 1, 48, 0
2, 100840, Note_off_c, 1, 60, 0
2, 100840, Note_off_c, 1, 64, 0
2, 100840, Note_on_c, 1, 75, 127
2, 100840, Note_on_c, 1, 82, 127
2, 100840, Note_on_c, 1, 87, 127
2, 100880, Note_off_c, 1, 75, 0
2, 100880, Note_off_c, 1, 82, 0
2, 100880, Note_off_c, 1, 87, 0
2, 100920, Note_on_c, 1, 35, 127
2, 100920, Note_on_c, 1, 47, 127
2, 100920, Note_on_c, 1, 75, 127
2, 100920, Note_on_c, 1, 78, 127
2, 100920, Note_on_c, 1, 82, 127
2, 100920, Note_on_c, 1, 87, 127
2, 100960, Note_off_c, 1, 35, 0
2, 100960, Note_off_c, 1, 47, 0
2, 100960, Note_on_c, 1, 49, 127
2, 100960, Note_on_c, 1, 61, 127
2, 100960, Note_off_c, 1, 75, 0
2, 100960, Note_on_c, 1, 76, 127
2, 100960, Note_off_c, 1, 78, 0
2, 100960, Note_off_c, 1, 87, 0
2, 100960, Note_on_c, 1, 88, 127
2, 101000, Note_on_c, 1, 35, 127
2, 101000, Note_on_c, 1, 47, 127
2, 101000, Note_off_c, 1, 49, 0
2, 101000, Note_off_c, 1, 61, 0
2, 101000, Note_on_c, 1, 75, 127
2, 101000, Note_off_c, 1, 76, 0
2, 101000, Note_on_c, 1, 78, 127
2, 101000, Note_on_c, 1, 87, 127
2, 101000, Note_off_c, 1, 88, 0
2, 101040, Note_off_c, 1, 35, 0
2, 101040, Note_off_c, 1, 47, 0
2, 101040, Note_on_c, 1, 63, 127
2, 101040, Note_off_c, 1, 78, 0
2, 101040, Note_off_c, 1, 82, 0
2, 101040, Note_on_c, 1, 83, 127
2, 101080, Note_on_c, 1, 51, 127
2, 101080, Note_on_c, 1, 58, 127
2, 101080, Note_off_c, 1, 75, 0
2, 101080, Note_off_c, 1, 83, 0
2, 101080, Note_off_c, 1, 87, 0
2, 101120, Note_off_c, 1, 51, 0
2, 101120, Note_off_c, 1, 58, 0
2, 101120, Note_off_c, 1, 63, 0
2, 101120, Note_on_c, 1, 69, 127
2, 101120, Note_on_c, 1, 82, 127
2, 101120, Note_on_c, 1, 86, 127
2, 101120, Note_on_c, 1, 89, 127
2, 101280, Note_off_c, 1, 69, 0
2, 101280, Note_off_c, 1, 82, 0
2, 101280, Note_off_c, 1, 86, 0
2, 101280, Note_off_c, 1, 89, 0
2, 101320, Note_on_c, 1, 41, 127
2, 101320, Note_on_c, 1, 48, 127
2, 101320, Note_on_c, 1, 65, 127
2, 101720, Note_off_c, 1, 41, 0
2, 101720, Note_on_c, 1, 53, 127
2, 101720, Note_on_c, 1, 60, 127
2, 101720, Note_off_c, 1, 65, 0
2, 101760, Note_off_c, 1, 48, 0
2, 101760, Note_off_c, 1, 53, 0
2, 101760, Note_on_c, 1, 55, 127
2, 101760, Note_off_c, 1, 60, 0
2, 101760, Note_on_c, 1, 63, 127
2, 101760, Note_on_c, 1, 80, 127
2, 101760, Note_on_c, 1, 84, 127
2, 102160, Note_off_c, 1, 55, 0
2, 102160, Note_off_c, 1, 63, 0
2, 102160, Note_off_c, 1, 80, 0
2, 102160, Note_off_c, 1, 84, 0
2, 102200, Note_on_c, 1, 58, 127
2, 102200, Note_on_c, 1, 67, 127
2, 102200, Note_on_c, 1, 78, 127
2, 102200, Note_on_c, 1, 81, 127
2, 102800, Note_off_c, 1, 58, 0
2, 102800, Note_off_c, 1, 67, 0
2, 102800, Note_off_c, 1, 78, 0
2, 102800, Note_off_c, 1, 81, 0
2, 103120, Note_on_c, 1, 60, 127
2, 103200, Note_off_c, 1, 60, 0
2, 103320, Note_on_c, 1, 60, 127
2, 103400, Note_off_c, 1, 60, 0
2, 103560, Note_on_c, 1, 60, 127
2, 103640, Note_off_c, 1, 60, 0
2, 103760, Note_on_c, 1, 60, 127
2, 103840, Note_off_c, 1, 60, 0
2, 104000, Note_on_c, 1, 60, 127
2, 104080, Note_off_c, 1, 60, 0
2, 104200, Note_on_c, 1, 58, 127
2, 104360, Note_off_c, 1, 58, 0
2, 104440, Note_on_c, 1, 84, 127
2, 104600, Note_off_c, 1, 84, 0
2, 104640, Note_on_c, 1, 81, 127
2, 104840, Note_off_c, 1, 81, 0
2, 104880, Note_on_c, 1, 53, 127
2, 104880, Note_on_c, 1, 57, 127
2, 104880, Note_on_c, 1, 60, 127
2, 104960, Note_off_c, 1, 53, 0
2, 104960, Note_off_c, 1, 57, 0
2, 104960, Note_off_c, 1, 60, 0
2, 105000, Note_on_c, 1, 53, 127
2, 105000, Note_on_c, 1, 57, 127
2, 105000, Note_on_c, 1, 60, 127
2, 105240, Note_off_c, 1, 53, 0
2, 105240, Note_off_c, 1, 57, 0
2, 105240, Note_off_c, 1, 60, 0
2, 105280, Note_on_c, 1, 81, 127
2, 105320, Note_off_c, 1, 81, 0
2, 105360, Note_on_c, 1, 55, 127
2, 105360, Note_on_c, 1, 60, 127
2, 105360, Note_on_c, 1, 64, 127
2, 105360, Note_on_c, 1, 84, 127
2, 105720, Note_off_c, 1, 55, 0
2, 105720, Note_off_c, 1, 60, 0
2, 105720, Note_off_c, 1, 64, 0
2, 105720, Note_off_c, 1, 84, 0
2, 105800, Note_on_c, 1, 60, 127
2, 105800, Note_on_c, 1, 65, 127
2, 105800, Note_on_c, 1, 69, 127
2, 105800, Note_on_c, 1, 81, 127
2, 106080, Note_off_c, 1, 60, 0
2, 106080, Note_off_c, 1, 65, 0
2, 106080, Note_off_c, 1, 69, 0
2, 106080, Note_off_c, 1, 81, 0
2, 106200, Note_on_c, 1, 60, 127
2, 106200, Note_on_c, 1, 65, 127
2, 106200, Note_on_c, 1, 69, 127
2, 106200, Note_on_c, 1, 81, 127
2, 106520, Note_off_c, 1, 60, 0
2, 106520, Note_off_c, 1, 65, 0
2, 106520, Note_off_c, 1, 69, 0
2, 106520, Note_off_c, 1, 81, 0
2, 106600, Note_on_c, 1, 81, 127
2, 106640, Note_on_c, 1, 60, 127
2, 106640, Note_on_c, 1, 65, 127
2, 106640, Note_on_c, 1, 69, 127
2, 106960, Note_off_c, 1, 60, 0
2, 106960, Note_off_c, 1, 65, 0
2, 106960, Note_off_c, 1, 69, 0
2, 107040, Note_off_c, 1, 81, 0
2, 107120, Note_on_c, 1, 60, 127
2, 107120, Note_on_c, 1, 65, 127
2, 107120, Note_on_c, 1, 69, 127
2, 107120, Note_on_c, 1, 81, 127
2, 107280, Note_off_c, 1, 81, 0
2, 107320, Note_on_c, 1, 81, 127
2, 107400, Note_off_c, 1, 60, 0
2, 107400, Note_off_c, 1, 65, 0
2, 107400, Note_off_c, 1, 69, 0
2, 107480, Note_off_c, 1, 81, 0
2, 107520, Note_on_c, 1, 60, 127
2, 107520, Note_on_c, 1, 65, 127
2, 107520, Note_on_c, 1, 69, 127
2, 107520, Note_on_c, 1, 79, 127
2, 107800, Note_off_c, 1, 60, 0
2, 107800, Note_off_c, 1, 65, 0
2, 107800, Note_off_c, 1, 69, 0
2, 107960, Note_on_c, 1, 60, 127
2, 107960, Note_on_c, 1, 65, 127
2, 107960, Note_on_c, 1, 69, 127
2, 107960, Note_on_c, 1, 77, 127
2, 107960, Note_off_c, 1, 79, 0
2, 107960, Note_on_c, 1, 81, 127
2, 108280, Note_off_c, 1, 60, 0
2, 108280, Note_off_c, 1, 65, 0
2, 108280, Note_off_c, 1, 69, 0
2, 108280, Note_off_c, 1, 77, 0
2, 108280, Note_off_c, 1, 81, 0
2, 108400, Note_on_c, 1, 60, 127
2, 108400, Note_on_c, 1, 65, 127
2, 108400, Note_on_c, 1, 69, 127
2, 108400, Note_on_c, 1, 77, 127
2, 108560, Note_off_c, 1, 77, 0
2, 108600, Note_on_c, 1, 79, 127
2, 108680, Note_off_c, 1, 60, 0
2, 108680, Note_off_c, 1, 65, 0
2, 108680, Note_off_c, 1, 69, 0
2, 108800, Note_off_c, 1, 79, 0
2, 108840, Note_on_c, 1, 60, 127
2, 108840, Note_on_c, 1, 65, 127
2, 108840, Note_on_c, 1, 69, 127
2, 108840, Note_on_c, 1, 77, 127
2, 108840, Note_on_c, 1, 81, 127
2, 108880, Note_off_c, 1, 77, 0
2, 108920, Note_off_c, 1, 81, 0
2, 108960, Note_on_c, 1, 77, 127
2, 108960, Note_on_c, 1, 81, 127
2, 109000, Note_off_c, 1, 60, 0
2, 109000, Note_off_c, 1, 65, 0
2, 109000, Note_off_c, 1, 69, 0
2, 109000, Note_off_c, 1, 77, 0
2, 109000, Note_off_c, 1, 81, 0
2, 109040, Note_on_c, 1, 60, 127
2, 109040, Note_on_c, 1, 65, 127
2, 109040, Note_on_c, 1, 69, 127
2, 109040, Note_on_c, 1, 77, 127
2, 109040, Note_on_c, 1, 81, 127
2, 109080, Note_off_c, 1, 77, 0
2, 109080, Note_on_c, 1, 79, 127
2, 109080, Note_off_c, 1, 81, 0
2, 109120, Note_off_c, 1, 79, 0
2, 109120, Note_on_c, 1, 81, 127
2, 109160, Note_off_c, 1, 60, 0
2, 109160, Note_off_c, 1, 65, 0
2, 109160, Note_off_c, 1, 69, 0
2, 109200, Note_off_c, 1, 81, 0
2, 109240, Note_on_c, 1, 77, 127
2, 109280, Note_off_c, 1, 77, 0
2, 109320, Note_on_c, 1, 57, 127
2, 109320, Note_on_c, 1, 60, 127
2, 109320, Note_on_c, 1, 65, 127
2, 109320, Note_on_c, 1, 75, 127
2, 109360, Note_on_c, 1, 51, 127
2, 109360, Note_off_c, 1, 57, 0
2, 109360, Note_on_c, 1, 58, 127
2, 109360, Note_off_c, 1, 60, 0
2, 109360, Note_off_c, 1, 65, 0
2, 109360, Note_on_c, 1, 67, 127
2, 109360, Note_on_c, 1, 74, 127
2, 109360, Note_off_c, 1, 75, 0
2, 109400, Note_off_c, 1, 51, 0
2, 109400, Note_on_c, 1, 57, 127
2, 109400, Note_off_c, 1, 58, 0
2, 109400, Note_on_c, 1, 60, 127
2, 109400, Note_on_c, 1, 65, 127
2, 109400, Note_off_c, 1, 67, 0
2, 109400, Note_off_c, 1, 74, 0
2, 109400, Note_on_c, 1, 96, 127
2, 109440, Note_on_c, 1, 52, 127
2, 109440, Note_on_c, 1, 55, 127
2, 109440, Note_off_c, 1, 57, 0
2, 109440, Note_off_c, 1, 65, 0
2, 109440, Note_on_c, 1, 77, 127
2, 109440, Note_off_c, 1, 96, 0
2, 109480, Note_off_c, 1, 52, 0
2, 109480, Note_off_c, 1, 55, 0
2, 109480, Note_on_c, 1, 57, 127
2, 109480, Note_on_c, 1, 65, 127
2, 109480, Note_off_c, 1, 77, 0
2, 109520, Note_on_c, 1, 75, 127
2, 109640, Note_off_c, 1, 57, 0
2, 109640, Note_off_c, 1, 60, 0
2, 109640, Note_off_c, 1, 65, 0
2, 109640, Note_on_c, 1, 72, 127
2, 109640, Note_off_c, 1, 75, 0
2, 109640, Note_on_c, 1, 77, 127
2, 109680, Note_off_c, 1, 72, 0
2, 109680, Note_off_c, 1, 77, 0
2, 109720, Note_on_c, 1, 47, 127
2, 109720, Note_on_c, 1, 51, 127
2, 109720, Note_on_c, 1, 54, 127
2, 109720, Note_on_c, 1, 59, 127
2, 109720, Note_on_c, 1, 79, 127
2, 109760, Note_off_c, 1, 51, 0
2, 109760, Note_on_c, 1, 52, 127
2, 109760, Note_off_c, 1, 54, 0
2, 109760, Note_on_c, 1, 68, 127
2, 109760, Note_on_c, 1, 71, 127
2, 109760, Note_off_c, 1, 79, 0
2, 109800, Note_on_c, 1, 46, 127
2, 109800, Note_off_c, 1, 47, 0
2, 109800, Note_off_c, 1, 52, 0
2, 109800, Note_on_c, 1, 55, 127
2, 109800, Note_off_c, 1, 59, 0
2, 109800, Note_on_c, 1, 61, 127
2, 109800, Note_on_c, 1, 65, 127
2, 109800, Note_off_c, 1, 68, 0
2, 109800, Note_on_c, 1, 69, 127
2, 109800, Note_off_c, 1, 71, 0
2, 109840, Note_on_c, 1, 37, 127
2, 109840, Note_off_c, 1, 46, 0
2, 109840, Note_off_c, 1, 55, 0
2, 109840, Note_off_c, 1, 61, 0
2, 109840, Note_off_c, 1, 65, 0
2, 109840, Note_on_c, 1, 66, 127
2, 109840, Note_off_c, 1, 69, 0
2, 109840, Note_on_c, 1, 70, 127
2, 109840, Note_on_c, 1, 73, 127
2, 109880, Note_off_c, 1, 37, 0
2, 109880, Note_on_c, 1, 46, 127
2, 109880, Note_on_c, 1, 52, 127
2, 109880, Note_on_c, 1, 58, 127
2, 109880, Note_off_c, 1, 66, 0
2, 109880, Note_off_c, 1, 70, 0
2, 109880, Note_off_c, 1, 73, 0
2, 109880, Note_on_c, 1, 85, 127
2, 109920, Note_off_c, 1, 46, 0
2, 109920, Note_on_c, 1, 51, 127
2, 109920, Note_off_c, 1, 52, 0
2, 109920, Note_off_c, 1, 58, 0
2, 109920, Note_on_c, 1, 62, 127
2, 109920, Note_on_c, 1, 68, 127
2, 109920, Note_on_c, 1, 72, 127
2, 109920, Note_off_c, 1, 85, 0
2, 109960, Note_off_c, 1, 51, 0
2, 109960, Note_on_c, 1, 67, 127
2, 109960, Note_off_c, 1, 68, 0
2, 109960, Note_off_c, 1, 72, 0
2, 109960, Note_on_c, 1, 79, 127
2, 109960, Note_on_c, 1, 86, 127
2, 109960, Note_on_c, 1, 91, 127
2, 110000, Note_off_c, 1, 67, 0
2, 110000, Note_on_c, 1, 68, 127
2, 110000, Note_on_c, 1, 70, 127
2, 110000, Note_off_c, 1, 79, 0
2, 110000, Note_on_c, 1, 81, 127
2, 110000, Note_on_c, 1, 82, 127
2, 110000, Note_on_c, 1, 83, 127
2, 110000, Note_off_c, 1, 86, 0
2, 110000, Note_off_c, 1, 91, 0
2, 110040, Note_on_c, 1, 55, 127
2, 110040, Note_off_c, 1, 62, 0
2, 110040, Note_off_c, 1, 68, 0
2, 110040, Note_off_c, 1, 70, 0
2, 110040, Note_on_c, 1, 75, 127
2, 110040, Note_on_c, 1, 79, 127
2, 110040, Note_off_c, 1, 81, 0
2, 110040, Note_off_c, 1, 83, 0
2, 110040, Note_on_c, 1, 87, 127
2, 110080, Note_off_c, 1, 55, 0
2, 110080, Note_on_c, 1, 72, 127
2, 110080, Note_off_c, 1, 79, 0
2, 110080, Note_off_c, 1, 82, 0
2, 110080, Note_off_c, 1, 87, 0
2, 110120, Note_off_c, 1, 72, 0
2, 110120, Note_off_c, 1, 75, 0
2, 110120, Note_on_c, 1, 84, 127
2, 110160, Note_off_c, 1, 84, 0
2, 110200, Note_on_c, 1, 50, 127
2, 110200, Note_on_c, 1, 53, 127
2, 110200, Note_on_c, 1, 57, 127
2, 110200, Note_on_c, 1, 62, 127
2, 110200, Note_on_c, 1, 74, 127
2, 110280, Note_off_c, 1, 74, 0
2, 110320, Note_off_c, 1, 50, 0
2, 110320, Note_off_c, 1, 53, 0
2, 110320, Note_off_c, 1, 57, 0
2, 110320, Note_off_c, 1, 62, 0
2, 110320, Note_on_c, 1, 66, 127
2, 110320, Note_on_c, 1, 69, 127
2, 110320, Note_on_c, 1, 78, 127
2, 110360, Note_off_c, 1, 66, 0
2, 110360, Note_off_c, 1, 69, 0
2, 110360, Note_off_c, 1, 78, 0
2, 110400, Note_on_c, 1, 50, 127
2, 110400, Note_on_c, 1, 53, 127
2, 110400, Note_on_c, 1, 57, 127
2, 110400, Note_on_c, 1, 62, 127
2, 110400, Note_on_c, 1, 74, 127
2, 110560, Note_off_c, 1, 50, 0
2, 110560, Note_off_c, 1, 53, 0
2, 110560, Note_off_c, 1, 57, 0
2, 110560, Note_off_c, 1, 62, 0
2, 110560, Note_on_c, 1, 63, 127
2, 110560, Note_off_c, 1, 74, 0
2, 110560, Note_on_c, 1, 77, 127
2, 110560, Note_on_c, 1, 89, 127
2, 110560, Note_on_c, 1, 92, 127
2, 110600, Note_on_c, 1, 48, 127
2, 110600, Note_off_c, 1, 63, 0
2, 110600, Note_off_c, 1, 77, 0
2, 110600, Note_on_c, 1, 82, 127
2, 110600, Note_on_c, 1, 86, 127
2, 110600, Note_off_c, 1, 89, 0
2, 110600, Note_off_c, 1, 92, 0
2, 110600, Note_on_c, 1, 94, 127
2, 110640, Note_off_c, 1, 48, 0
2, 110640, Note_on_c, 1, 58, 127
2, 110640, Note_on_c, 1, 67, 127
2, 110640, Note_on_c, 1, 77, 127
2, 110640, Note_off_c, 1, 86, 0
2, 110640, Note_off_c, 1, 94, 0
2, 110680, Note_on_c, 1, 41, 127
2, 110680, Note_on_c, 1, 53, 127
2, 110680, Note_off_c, 1, 58, 0
2, 110680, Note_off_c, 1, 67, 0
2, 110680, Note_on_c, 1, 70, 127
2, 110680, Note_off_c, 1, 82, 0
2, 110720, Note_off_c, 1, 41, 0
2, 110720, Note_off_c, 1, 53, 0
2, 110720, Note_on_c, 1, 58, 127
2, 110720, Note_on_c, 1, 67, 127
2, 110720, Note_off_c, 1, 70, 0
2, 110720, Note_on_c, 1, 82, 127
2, 110760, Note_off_c, 1, 58, 0
2, 110760, Note_off_c, 1, 67, 0
2, 110760, Note_off_c, 1, 77, 0
2, 110800, Note_off_c, 1, 82, 0
2, 110880, Note_on_c, 1, 62, 127
2, 110880, Note_on_c, 1, 67, 127
2, 110880, Note_on_c, 1, 70, 127
2, 110880, Note_on_c, 1, 74, 127
2, 110880, Note_on_c, 1, 82, 127
2, 111240, Note_off_c, 1, 62, 0
2, 111240, Note_off_c, 1, 67, 0
2, 111240, Note_off_c, 1, 70, 0
2, 111240, Note_off_c, 1, 74, 0
2, 111240, Note_off_c, 1, 82, 0
2, 111320, Note_on_c, 1, 62, 127
2, 111320, Note_on_c, 1, 67, 127
2, 111320, Note_on_c, 1, 70, 127
2, 111320, Note_on_c, 1, 74, 127
2, 111320, Note_on_c, 1, 82, 127
2, 111680, Note_off_c, 1, 62, 0
2, 111680, Note_off_c, 1, 67, 0
2, 111680, Note_off_c, 1, 70, 0
2, 111680, Note_off_c, 1, 74, 0
2, 111680, Note_off_c, 1, 82, 0
2, 111760, Note_on_c, 1, 62, 127
2, 111760, Note_on_c, 1, 67, 127
2, 111760, Note_on_c, 1, 70, 127
2, 111760, Note_on_c, 1, 74, 127
2, 111760, Note_on_c, 1, 82, 127
2, 112120, Note_off_c, 1, 62, 0
2, 112120, Note_off_c, 1, 67, 0
2, 112120, Note_off_c, 1, 70, 0
2, 112120, Note_off_c, 1, 74, 0
2, 112120, Note_off_c, 1, 82, 0
2, 112200, Note_on_c, 1, 62, 127
2, 112200, Note_on_c, 1, 67, 127
2, 112200, Note_on_c, 1, 70, 127
2, 112200, Note_on_c, 1, 74, 127
2, 112200, Note_on_c, 1, 82, 127
2, 112560, Note_off_c, 1, 62, 0
2, 112560, Note_off_c, 1, 67, 0
2, 112560, Note_off_c, 1, 70, 0
2, 112560, Note_off_c, 1, 74, 0
2, 112560, Note_off_c, 1, 82, 0
2, 112640, Note_on_c, 1, 62, 127
2, 112640, Note_on_c, 1, 67, 127
2, 112640, Note_on_c, 1, 70, 127
2, 112640, Note_on_c, 1, 74, 127
2, 112640, Note_on_c, 1, 82, 127
2, 112880, Note_off_c, 1, 62, 0
2, 112880, Note_off_c, 1, 67, 0
2, 112880, Note_off_c, 1, 70, 0
2, 112880, Note_off_c, 1, 74, 0
2, 112880, Note_off_c, 1, 82, 0
2, 112920, Note_on_c, 1, 62, 127
2, 112920, Note_on_c, 1, 67, 127
2, 112920, Note_on_c, 1, 70, 127
2, 112920, Note_on_c, 1, 74, 127
2, 112920, Note_on_c, 1, 82, 127
2, 113040, Note_off_c, 1, 62, 0
2, 113040, Note_off_c, 1, 67, 0
2, 113040, Note_off_c, 1, 70, 0
2, 113040, Note_off_c, 1, 74, 0
2, 113040, Note_off_c, 1, 82, 0
2, 113120, Note_on_c, 1, 62, 127
2, 113120, Note_on_c, 1, 67, 127
2, 113120, Note_on_c, 1, 70, 127
2, 113120, Note_on_c, 1, 74, 127
2, 113120, Note_on_c, 1, 82, 127
2, 113480, Note_off_c, 1, 62, 0
2, 113480, Note_off_c, 1, 67, 0
2, 113480, Note_off_c, 1, 70, 0
2, 113480, Note_off_c, 1, 74, 0
2, 113480, Note_off_c, 1, 82, 0
2, 113560, Note_on_c, 1, 62, 127
2, 113560, Note_on_c, 1, 67, 127
2, 113560, Note_on_c, 1, 70, 127
2, 113560, Note_on_c, 1, 74, 127
2, 113560, Note_on_c, 1, 82, 127
2, 113920, Note_off_c, 1, 62, 0
2, 113920, Note_off_c, 1, 67, 0
2, 113920, Note_off_c, 1, 70, 0
2, 113920, Note_off_c, 1, 74, 0
2, 113920, Note_off_c, 1, 82, 0
2, 114000, Note_on_c, 1, 62, 127
2, 114000, Note_on_c, 1, 67, 127
2, 114000, Note_on_c, 1, 70, 127
2, 114000, Note_on_c, 1, 74, 127
2, 114000, Note_on_c, 1, 82, 127
2, 114360, Note_off_c, 1, 62, 0
2, 114360, Note_off_c, 1, 67, 0
2, 114360, Note_off_c, 1, 70, 0
2, 114360, Note_off_c, 1, 74, 0
2, 114360, Note_off_c, 1, 82, 0
2, 114440, Note_on_c, 1, 62, 127
2, 114440, Note_on_c, 1, 67, 127
2, 114440, Note_on_c, 1, 70, 127
2, 114440, Note_on_c, 1, 74, 127
2, 114440, Note_on_c, 1, 82, 127
2, 114800, Note_on_c, 1, 52, 127
2, 114800, Note_on_c, 1, 55, 127
2, 114800, Note_on_c, 1, 58, 127
2, 114800, Note_on_c, 1, 60, 127
2, 114800, Note_off_c, 1, 62, 0
2, 114800, Note_off_c, 1, 67, 0
2, 114800, Note_off_c, 1, 70, 0
2, 114800, Note_off_c, 1, 74, 0
2, 114800, Note_on_c, 1, 86, 127
2, 114840, Note_off_c, 1, 52, 0
2, 114840, Note_off_c, 1, 55, 0
2, 114840, Note_off_c, 1, 58, 0
2, 114840, Note_off_c, 1, 60, 0
2, 114840, Note_off_c, 1, 82, 0
2, 114840, Note_off_c, 1, 86, 0
2, 114880, Note_on_c, 1, 62, 127
2, 114880, Note_on_c, 1, 67, 127
2, 114880, Note_on_c, 1, 70, 127
2, 114880, Note_on_c, 1, 74, 127
2, 114880, Note_on_c, 1, 82, 127
2, 115120, Note_off_c, 1, 62, 0
2, 115120, Note_off_c, 1, 67, 0
2, 115120, Note_off_c, 1, 70, 0
2, 115120, Note_off_c, 1, 74, 0
2, 115120, Note_off_c, 1, 82, 0
2, 115160, Note_on_c, 1, 62, 127
2, 115160, Note_on_c, 1, 67, 127
2, 115160, Note_on_c, 1, 70, 127
2, 115160, Note_on_c, 1, 74, 127
2, 115160, Note_on_c, 1, 82, 127
2, 115320, Note_off_c, 1, 62, 0
2, 115320, Note_off_c, 1, 67, 0
2, 115320, Note_off_c, 1, 70, 0
2, 115320, Note_off_c, 1, 74, 0
2, 115320, Note_off_c, 1, 82, 0
2, 115360, Note_on_c, 1, 62, 127
2, 115360, Note_on_c, 1, 67, 127
2, 115360, Note_on_c, 1, 70, 127
2, 115360, Note_on_c, 1, 74, 127
2, 115360, Note_on_c, 1, 82, 127
2, 115760, Note_off_c, 1, 62, 0
2, 115760, Note_off_c, 1, 67, 0
2, 115760, Note_off_c, 1, 70, 0
2, 115760, Note_off_c, 1, 74, 0
2, 115760, Note_off_c, 1, 82, 0
2, 115800, Note_on_c, 1, 62, 127
2, 115800, Note_on_c, 1, 67, 127
2, 115800, Note_on_c, 1, 70, 127
2, 115800, Note_on_c, 1, 74, 127
2, 115800, Note_on_c, 1, 82, 127
2, 116200, Note_off_c, 1, 62, 0
2, 116200, Note_off_c, 1, 67, 0
2, 116200, Note_off_c, 1, 70, 0
2, 116200, Note_off_c, 1, 74, 0
2, 116200, Note_off_c, 1, 82, 0
2, 116240, Note_on_c, 1, 62, 127
2, 116240, Note_on_c, 1, 66, 127
2, 116240, Note_on_c, 1, 70, 127
2, 116240, Note_on_c, 1, 82, 127
2, 116440, Note_off_c, 1, 82, 0
2, 116640, Note_off_c, 1, 62, 0
2, 116640, Note_off_c, 1, 66, 0
2, 116640, Note_off_c, 1, 70, 0
2, 116680, Note_on_c, 1, 50, 127
2, 116680, Note_on_c, 1, 53, 127
2, 116680, Note_on_c, 1, 65, 127
2, 116680, Note_on_c, 1, 70, 127
2, 116680, Note_on_c, 1, 77, 127
2, 117080, Note_off_c, 1, 50, 0
2, 117080, Note_off_c, 1, 53, 0
2, 117080, Note_off_c, 1, 65, 0
2, 117080, Note_off_c, 1, 70, 0
2, 117080, Note_off_c, 1, 77, 0
2, 117160, Note_on_c, 1, 55, 127
2, 117160, Note_on_c, 1, 69, 127
2, 117160, Note_on_c, 1, 75, 127
2, 117160, Note_on_c, 1, 77, 127
2, 117160, Note_on_c, 1, 81, 127
2, 117200, Note_off_c, 1, 55, 0
2, 117200, Note_off_c, 1, 69, 0
2, 117200, Note_on_c, 1, 70, 127
2, 117200, Note_on_c, 1, 74, 127
2, 117200, Note_off_c, 1, 75, 0
2, 117200, Note_off_c, 1, 77, 0
2, 117200, Note_on_c, 1, 80, 127
2, 117200, Note_off_c, 1, 81, 0
2, 117200, Note_on_c, 1, 86, 127
2, 117240, Note_on_c, 1, 47, 127
2, 117240, Note_off_c, 1, 70, 0
2, 117240, Note_off_c, 1, 74, 0
2, 117240, Note_on_c, 1, 78, 127
2, 117240, Note_off_c, 1, 80, 0
2, 117240, Note_on_c, 1, 90, 127
2, 117280, Note_off_c, 1, 47, 0
2, 117280, Note_on_c, 1, 63, 127
2, 117280, Note_off_c, 1, 78, 0
2, 117280, Note_off_c, 1, 86, 0
2, 117280, Note_off_c, 1, 90, 0
2, 117280, Note_on_c, 1, 101, 127
2, 117320, Note_on_c, 1, 36, 127
2, 117320, Note_on_c, 1, 41, 127
2, 117320, Note_on_c, 1, 45, 127
2, 117320, Note_on_c, 1, 51, 127
2, 117320, Note_off_c, 1, 63, 0
2, 117320, Note_off_c, 1, 101, 0
2, 117360, Note_off_c, 1, 36, 0
2, 117360, Note_off_c, 1, 41, 0
2, 117360, Note_off_c, 1, 45, 0
2, 117360, Note_off_c, 1, 51, 0
2, 117360, Note_on_c, 1, 76, 127
2, 117360, Note_on_c, 1, 82, 127
2, 117360, Note_on_c, 1, 85, 127
2, 117400, Note_on_c, 1, 62, 127
2, 117400, Note_on_c, 1, 65, 127
2, 117400, Note_on_c, 1, 70, 127
2, 117400, Note_on_c, 1, 74, 127
2, 117400, Note_off_c, 1, 76, 0
2, 117400, Note_off_c, 1, 82, 0
2, 117400, Note_off_c, 1, 85, 0
2, 117480, Note_off_c, 1, 62, 0
2, 117480, Note_off_c, 1, 65, 0
2, 117480, Note_off_c, 1, 74, 0
2, 117480, Note_on_c, 1, 77, 127
2, 117480, Note_on_c, 1, 80, 127
2, 117480, Note_on_c, 1, 84, 127
2, 117520, Note_on_c, 1, 53, 127
2, 117520, Note_on_c, 1, 60, 127
2, 117520, Note_on_c, 1, 63, 127
2, 117520, Note_on_c, 1, 69, 127
2, 117520, Note_off_c, 1, 70, 0
2, 117520, Note_on_c, 1, 75, 127
2, 117520, Note_off_c, 1, 77, 0
2, 117520, Note_off_c, 1, 80, 0
2, 117520, Note_on_c, 1, 81, 127
2, 117520, Note_off_c, 1, 84, 0
2, 117560, Note_off_c, 1, 53, 0
2, 117560, Note_off_c, 1, 60, 0
2, 117560, Note_off_c, 1, 63, 0
2, 117560, Note_off_c, 1, 69, 0
2, 117560, Note_off_c, 1, 75, 0
2, 117560, Note_off_c, 1, 81, 0
2, 117600, Note_on_c, 1, 74, 127
2, 117600, Note_on_c, 1, 77, 127
2, 117600, Note_on_c, 1, 83, 127
2, 117600, Note_on_c, 1, 89, 127
2, 117600, Note_on_c, 1, 91, 127
2, 117920, Note_off_c, 1, 74, 0
2, 117920, Note_off_c, 1, 77, 0
2, 117920, Note_off_c, 1, 83, 0
2, 117920, Note_off_c, 1, 89, 0
2, 117920, Note_off_c, 1, 91, 0
2, 117960, Note_on_c, 1, 74, 127
2, 117960, Note_on_c, 1, 77, 127
2, 117960, Note_on_c, 1, 83, 127
2, 117960, Note_on_c, 1, 89, 127
2, 117960, Note_on_c, 1, 91, 127
2, 118000, Note_off_c, 1, 74, 0
2, 118000, Note_off_c, 1, 77, 0
2, 118000, Note_off_c, 1, 83, 0
2, 118000, Note_off_c, 1, 89, 0
2, 118000, Note_off_c, 1, 91, 0
2, 118040, Note_on_c, 1, 48, 127
2, 118040, Note_on_c, 1, 53, 127
2, 118040, Note_on_c, 1, 60, 127
2, 118040, Note_on_c, 1, 63, 127
2, 118040, Note_on_c, 1, 69, 127
2, 118040, Note_on_c, 1, 75, 127
2, 118360, Note_off_c, 1, 48, 0
2, 118360, Note_off_c, 1, 53, 0
2, 118360, Note_off_c, 1, 60, 0
2, 118360, Note_off_c, 1, 63, 0
2, 118360, Note_off_c, 1, 69, 0
2, 118360, Note_off_c, 1, 75, 0
2, 118400, Note_on_c, 1, 53, 127
2, 118400, Note_on_c, 1, 63, 127
2, 118400, Note_on_c, 1, 69, 127
2, 118400, Note_on_c, 1, 74, 127
2, 118440, Note_off_c, 1, 53, 0
2, 118440, Note_off_c, 1, 63, 0
2, 118440, Note_off_c, 1, 69, 0
2, 118440, Note_off_c, 1, 74, 0
2, 118480, Note_on_c, 1, 53, 127
2, 118480, Note_on_c, 1, 63, 127
2, 118480, Note_on_c, 1, 69, 127
2, 118480, Note_on_c, 1, 74, 127
2, 118600, Note_on_c, 1, 72, 127
2, 118600, Note_off_c, 1, 74, 0
2, 118680, Note_off_c, 1, 72, 0
2, 118720, Note_on_c, 1, 72, 127
2, 118880, Note_off_c, 1, 53, 0
2, 118880, Note_off_c, 1, 63, 0
2, 118880, Note_off_c, 1, 69, 0
2, 118880, Note_off_c, 1, 72, 0
2, 118920, Note_on_c, 1, 46, 127
2, 118920, Note_on_c, 1, 53, 127
2, 118920, Note_on_c, 1, 62, 127
2, 118920, Note_on_c, 1, 70, 127
2, 119080, Note_off_c, 1, 46, 0
2, 119080, Note_off_c, 1, 53, 0
2, 119080, Note_off_c, 1, 62, 0
2, 119080, Note_off_c, 1, 70, 0
2, 119360, Note_on_c, 1, 46, 127
2, 119360, Note_on_c, 1, 53, 127
2, 119360, Note_on_c, 1, 62, 127
2, 119360, Note_on_c, 1, 70, 127
2, 119760, Note_off_c, 1, 70, 0
2, 119800, Note_on_c, 1, 51, 127
2, 119800, Note_off_c, 1, 53, 0
2, 119800, Note_on_c, 1, 60, 127
2, 119800, Note_off_c, 1, 62, 0
2, 120000, Note_off_c, 1, 46, 0
2, 120000, Note_off_c, 1, 51, 0
2, 120000, Note_off_c, 1, 60, 0
2, 120040, End_track
3, 0, Start_track
3, 0, Title_t, "MIDI"
3, 1536, End_track
0, 0, End_of_file
