0, 0, Header, 1, 3, 192
1, 0, Start_track
1, 0, Time_signature, 4, 2, 24, 8
1, 0, Tempo, 500000
1, 120040, End_track
2, 0, Start_track
2, 0, Text_t, "random instrument: random person i dunno whatev"
2, 0, Title_t, "Track 1"
2, 0, Note_on_c, 1, 34, 127
2, 0, Note_on_c, 1, 53, 127
2, 0, Note_on_c, 1, 56, 127
2, 0, Note_on_c, 1, 62, 127
2, 40, Note_off_c, 1, 34, 0
2, 40, Note_off_c, 1, 53, 0
2, 40, Note_off_c, 1, 56, 0
2, 40, Note_off_c, 1, 62, 0
2, 40, Note_on_c, 1, 67, 127
2, 40, Note_on_c, 1, 76, 127
2, 40, Note_on_c, 1, 79, 127
2, 40, Note_on_c, 1, 85, 127
2, 40, Note_on_c, 1, 88, 127
2, 80, Note_off_c, 1, 67, 0
2, 80, Note_off_c, 1, 76, 0
2, 80, Note_off_c, 1, 79, 0
2, 80, Note_off_c, 1, 85, 0
2, 80, Note_off_c, 1, 88, 0
2, 120, Note_on_c, 1, 34, 127
2, 120, Note_on_c, 1, 53, 127
2, 120, Note_on_c, 1, 56, 127
2, 120, Note_on_c, 1, 62, 127
2, 160, Note_off_c, 1, 34, 0
2, 160, Note_on_c, 1, 43, 127
2, 160, Note_on_c, 1, 47, 127
2, 160, Note_off_c, 1, 53, 0
2, 160, Note_on_c, 1, 55, 127
2, 160, Note_off_c, 1, 56, 0
2, 160, Note_off_c, 1, 62, 0
2, 160, Note_on_c, 1, 79, 127
2, 160, Note_on_c, 1, 83, 127
2, 160, Note_on_c, 1, 87, 127
2, 160, Note_on_c, 1, 91, 127
2, 200, Note_on_c, 1, 34, 127
2, 200, Note_off_c, 1, 43, 0
2, 200, Note_off_c, 1, 47, 0
2, 200, Note_on_c, 1, 53, 127
2, 200, Note_off_c, 1, 55, 0
2, 200, Note_on_c, 1, 56, 127
2, 200, Note_on_c, 1, 62, 127
2, 200, Note_off_c, 1, 79, 0
2, 200, Note_off_c, 1, 83, 0
2, 200, Note_off_c, 1, 87, 0
2, 200, Note_off_c, 1, 91, 0
2, 680, Note_off_c, 1, 34, 0
2, 680, Note_off_c, 1, 53, 0
2, 680, Note_off_c, 1, 56, 0
2, 680, Note_off_c, 1, 62, 0
2, 5240, Note_on_c, 1, 43, 127
2, 5240, Note_on_c, 1, 50, 127
2, 5240, Note_on_c, 1, 60, 127
2, 5240, Note_on_c, 1, 62, 127
2, 5240, Note_on_c, 1, 69, 127
2, 5600, Note_off_c, 1, 43, 0
2, 5600, Note_off_c, 1, 50, 0
2, 5600, Note_off_c, 1, 60, 0
2, 5600, Note_off_c, 1, 62, 0
2, 5600, Note_off_c, 1, 69, 0
2, 5640, Note_on_c, 1, 40, 127
2, 5640, Note_on_c, 1, 52, 127
2, 5640, Note_on_c, 1, 55, 127
2, 5640, Note_on_c, 1, 64, 127
2, 6040, Note_off_c, 1, 40, 0
2, 6040, Note_off_c, 1, 52, 0
2, 6040, Note_off_c, 1, 55, 0
2, 6040, Note_off_c, 1, 64, 0
2, 7280, Note_on_c, 1, 41, 127
2, 7280, Note_on_c, 1, 53, 127
2, 7280, Note_on_c, 1, 57, 127
2, 7280, Note_on_c, 1, 60, 127
2, 7280, Note_on_c, 1, 65, 127
2, 7600, Note_off_c, 1, 41, 0
2, 7600, Note_off_c, 1, 53, 0
2, 7600, Note_off_c, 1, 57, 0
2, 7600, Note_off_c, 1, 60, 0
2, 7600, Note_off_c, 1, 65, 0
2, 7640, Note_on_c, 1, 41, 127
2, 7640, Note_on_c, 1, 53, 127
2, 7640, Note_on_c, 1, 57, 127
2, 7640, Note_on_c, 1, 60, 127
2, 7640, Note_on_c, 1, 65, 127
2, 7720, Note_off_c, 1, 41, 0
2, 7720, Note_off_c, 1, 57, 0
2, 7720, Note_off_c, 1, 60, 0
2, 7760, Note_on_c, 1, 46, 127
2, 7760, Note_on_c, 1, 58, 127
2, 10040, Note_off_c, 1, 46, 0
2, 10040, Note_off_c, 1, 53, 0
2, 10040, Note_off_c, 1, 58, 0
2, 10040, Note_off_c, 1, 65, 0
2, 10080, Note_on_c, 1, 46, 127
2, 10080, Note_on_c, 1, 53, 127
2, 10080, Note_on_c, 1, 58, 127
2, 10080, Note_on_c, 1, 65, 127
2, 10120, Note_off_c, 1, 46, 0
2, 10120, Note_off_c, 1, 53, 0
2, 10120, Note_off_c, 1, 58, 0
2, 10120, Note_off_c, 1, 65, 0
2, 10160, Note_on_c, 1, 50, 127
2, 10160, Note_on_c, 1, 54, 127
2, 10160, Note_on_c, 1, 62, 127
2, 10160, Note_on_c, 1, 66, 127
2, 10320, Note_off_c, 1, 50, 0
2, 10320, Note_off_c, 1, 54, 0
2, 10320, Note_off_c, 1, 62, 0
2, 10320, Note_off_c, 1, 66, 0
2, 13400, Note_on_c, 1, 37, 127
2, 13400, Note_on_c, 1, 49, 127
2, 14040, Note_off_c, 1, 37, 0
2, 14040, Note_off_c, 1, 49, 0
2, 14080, Note_on_c, 1, 35, 127
2, 14080, Note_on_c, 1, 47, 127
2, 14120, Note_off_c, 1, 35, 0
2, 14120, Note_off_c, 1, 47, 0
2, 14160, Note_on_c, 1, 35, 127
2, 14160, Note_on_c, 1, 47, 127
2, 14360, Note_off_c, 1, 35, 0
2, 14360, Note_off_c, 1, 47, 0
2, 14400, Note_on_c, 1, 35, 127
2, 14400, Note_on_c, 1, 47, 127
2, 14480, Note_off_c, 1, 35, 0
2, 14480, Note_off_c, 1, 47, 0
2, 14520, Note_on_c, 1, 34, 127
2, 14520, Note_on_c, 1, 46, 127
2, 14560, Note_off_c, 1, 34, 0
2, 14560, Note_off_c, 1, 46, 0
2, 14600, Note_on_c, 1, 34, 127
2, 14600, Note_on_c, 1, 46, 127
2, 14640, Note_off_c, 1, 34, 0
2, 14640, Note_off_c, 1, 46, 0
2, 14680, Note_on_c, 1, 45, 127
2, 14680, Note_on_c, 1, 57, 127
2, 14720, Note_off_c, 1, 45, 0
2, 14720, Note_off_c, 1, 57, 0
2, 14760, Note_on_c, 1, 46, 127
2, 14760, Note_on_c, 1, 58, 127
2, 14800, Note_on_c, 1, 42, 127
2, 14800, Note_off_c, 1, 46, 0
2, 14800, Note_on_c, 1, 54, 127
2, 14800, Note_off_c, 1, 58, 0
2, 14840, Note_off_c, 1, 42, 0
2, 14840, Note_off_c, 1, 54, 0
2, 14880, Note_on_c, 1, 38, 127
2, 14880, Note_on_c, 1, 50, 127
2, 14920, Note_off_c, 1, 38, 0
2, 14920, Note_off_c, 1, 50, 0
2, 14960, Note_on_c, 1, 42, 127
2, 14960, Note_on_c, 1, 54, 127
2, 15000, Note_off_c, 1, 42, 0
2, 15000, Note_off_c, 1, 54, 0
2, 15080, Note_on_c, 1, 46, 127
2, 15080, Note_on_c, 1, 58, 127
2, 15120, Note_off_c, 1, 46, 0
2, 15120, Note_off_c, 1, 58, 0
2, 15160, Note_on_c, 1, 42, 127
2, 15160, Note_on_c, 1, 54, 127
2, 15200, Note_off_c, 1, 42, 0
2, 15200, Note_off_c, 1, 54, 0
2, 15280, Note_on_c, 1, 45, 127
2, 15280, Note_on_c, 1, 57, 127
2, 15320, Note_off_c, 1, 45, 0
2, 15320, Note_off_c, 1, 57, 0
2, 15360, Note_on_c, 1, 47, 127
2, 15360, Note_on_c, 1, 59, 127
2, 15400, Note_off_c, 1, 47, 0
2, 15400, Note_off_c, 1, 59, 0
2, 15440, Note_on_c, 1, 49, 127
2, 15440, Note_on_c, 1, 61, 127
2, 15480, Note_off_c, 1, 49, 0
2, 15480, Note_on_c, 1, 54, 127
2, 15480, Note_off_c, 1, 61, 0
2, 15480, Note_on_c, 1, 66, 127
2, 15520, Note_off_c, 1, 54, 0
2, 15520, Note_off_c, 1, 66, 0
2, 15560, Note_on_c, 1, 46, 127
2, 15560, Note_on_c, 1, 58, 127
2, 15600, Note_off_c, 1, 46, 0
2, 15600, Note_off_c, 1, 58, 0
2, 15680, Note_on_c, 1, 54, 127
2, 15680, Note_on_c, 1, 66, 127
2, 15720, Note_off_c, 1, 54, 0
2, 15720, Note_off_c, 1, 66, 0
2, 15760, Note_on_c, 1, 54, 127
2, 15760, Note_on_c, 1, 66, 127
2, 15840, Note_off_c, 1, 54, 0
2, 15840, Note_off_c, 1, 66, 0
2, 15960, Note_on_c, 1, 62, 127
2, 15960, Note_on_c, 1, 74, 127
2, 16000, Note_off_c, 1, 62, 0
2, 16000, Note_off_c, 1, 74, 0
2, 16040, Note_on_c, 1, 66, 127
2, 16040, Note_on_c, 1, 78, 127
2, 16120, Note_off_c, 1, 66, 0
2, 16120, Note_off_c, 1, 78, 0
2, 16160, Note_on_c, 1, 70, 127
2, 16160, Note_on_c, 1, 82, 127
2, 16200, Note_off_c, 1, 70, 0
2, 16200, Note_off_c, 1, 82, 0
2, 16240, Note_on_c, 1, 66, 127
2, 16240, Note_on_c, 1, 78, 127
2, 16280, Note_off_c, 1, 66, 0
2, 16280, Note_on_c, 1, 67, 127
2, 16280, Note_off_c, 1, 78, 0
2, 16280, Note_on_c, 1, 79, 127
2, 16320, Note_off_c, 1, 67, 0
2, 16320, Note_off_c, 1, 79, 0
2, 16360, Note_on_c, 1, 66, 127
2, 16360, Note_on_c, 1, 78, 127
2, 16400, Note_off_c, 1, 66, 0
2, 16400, Note_off_c, 1, 78, 0
2, 16440, Note_on_c, 1, 65, 127
2, 16440, Note_on_c, 1, 77, 127
2, 16480, Note_off_c, 1, 65, 0
2, 16480, Note_off_c, 1, 77, 0
2, 16560, Note_on_c, 1, 66, 127
2, 16560, Note_on_c, 1, 78, 127
2, 16640, Note_off_c, 1, 66, 0
2, 16640, Note_off_c, 1, 78, 0
2, 16680, Note_on_c, 1, 66, 127
2, 16680, Note_on_c, 1, 78, 127
2, 16720, Note_off_c, 1, 66, 0
2, 16720, Note_off_c, 1, 78, 0
2, 16760, Note_on_c, 1, 70, 127
2, 16760, Note_on_c, 1, 82, 127
2, 16800, Note_off_c, 1, 70, 0
2, 16800, Note_off_c, 1, 82, 0
2, 16840, Note_on_c, 1, 71, 127
2, 16840, Note_on_c, 1, 83, 127
2, 16920, Note_off_c, 1, 71, 0
2, 16920, Note_off_c, 1, 83, 0
2, 16960, Note_on_c, 1, 66, 127
2, 16960, Note_on_c, 1, 78, 127
2, 17000, Note_off_c, 1, 66, 0
2, 17000, Note_off_c, 1, 78, 0
2, 17040, Note_on_c, 1, 66, 127
2, 17040, Note_on_c, 1, 78, 127
2, 17120, Note_off_c, 1, 66, 0
2, 17120, Note_off_c, 1, 78, 0
2, 17160, Note_on_c, 1, 62, 127
2, 17160, Note_on_c, 1, 74, 127
2, 17200, Note_off_c, 1, 62, 0
2, 17200, Note_off_c, 1, 74, 0
2, 17240, Note_on_c, 1, 62, 127
2, 17240, Note_on_c, 1, 74, 127
2, 17320, Note_off_c, 1, 62, 0
2, 17320, Note_off_c, 1, 74, 0
2, 17360, Note_on_c, 1, 59, 127
2, 17360, Note_on_c, 1, 71, 127
2, 17440, Note_off_c, 1, 59, 0
2, 17440, Note_off_c, 1, 71, 0
2, 17480, Note_on_c, 1, 61, 127
2, 17480, Note_on_c, 1, 73, 127
2, 17520, Note_off_c, 1, 61, 0
2, 17520, Note_off_c, 1, 73, 0
2, 17560, Note_on_c, 1, 60, 127
2, 17560, Note_on_c, 1, 72, 127
2, 17640, Note_off_c, 1, 60, 0
2, 17640, Note_off_c, 1, 72, 0
2, 17680, Note_on_c, 1, 59, 127
2, 17680, Note_on_c, 1, 71, 127
2, 17720, Note_off_c, 1, 59, 0
2, 17720, Note_off_c, 1, 71, 0
2, 17760, Note_on_c, 1, 57, 127
2, 17760, Note_on_c, 1, 69, 127
2, 17840, Note_off_c, 1, 57, 0
2, 17840, Note_off_c, 1, 69, 0
2, 17880, Note_on_c, 1, 66, 127
2, 17880, Note_on_c, 1, 78, 127
2, 17920, Note_off_c, 1, 66, 0
2, 17920, Note_off_c, 1, 78, 0
2, 17960, Note_on_c, 1, 64, 127
2, 17960, Note_on_c, 1, 76, 127
2, 18040, Note_off_c, 1, 64, 0
2, 18040, Note_off_c, 1, 76, 0
2, 18080, Note_on_c, 1, 66, 127
2, 18080, Note_on_c, 1, 78, 127
2, 18120, Note_off_c, 1, 66, 0
2, 18120, Note_off_c, 1, 78, 0
2, 18160, Note_on_c, 1, 68, 127
2, 18160, Note_on_c, 1, 80, 127
2, 18240, Note_off_c, 1, 68, 0
2, 18240, Note_off_c, 1, 80, 0
2, 18280, Note_on_c, 1, 69, 127
2, 18280, Note_on_c, 1, 81, 127
2, 18320, Note_off_c, 1, 69, 0
2, 18320, Note_off_c, 1, 81, 0
2, 18360, Note_on_c, 1, 67, 127
2, 18360, Note_on_c, 1, 79, 127
2, 18440, Note_off_c, 1, 67, 0
2, 18440, Note_off_c, 1, 79, 0
2, 18480, Note_on_c, 1, 68, 127
2, 18480, Note_on_c, 1, 80, 127
2, 18520, Note_off_c, 1, 68, 0
2, 18520, Note_off_c, 1, 80, 0
2, 18560, Note_on_c, 1, 62, 127
2, 18560, Note_on_c, 1, 74, 127
2, 18640, Note_off_c, 1, 62, 0
2, 18640, Note_off_c, 1, 74, 0
2, 18720, Note_on_c, 1, 62, 127
2, 18720, Note_on_c, 1, 74, 127
2, 18760, Note_off_c, 1, 62, 0
2, 18760, Note_off_c, 1, 74, 0
2, 18800, Note_on_c, 1, 59, 127
2, 18800, Note_on_c, 1, 71, 127
2, 18880, Note_off_c, 1, 59, 0
2, 18880, Note_off_c, 1, 71, 0
2, 18920, Note_on_c, 1, 56, 127
2, 18920, Note_on_c, 1, 68, 127
2, 18960, Note_off_c, 1, 56, 0
2, 18960, Note_off_c, 1, 68, 0
2, 19000, Note_on_c, 1, 57, 127
2, 19000, Note_on_c, 1, 69, 127
2, 19080, Note_off_c, 1, 57, 0
2, 19080, Note_off_c, 1, 69, 0
2, 19120, Note_on_c, 1, 54, 127
2, 19120, Note_on_c, 1, 66, 127
2, 19160, Note_off_c, 1, 54, 0
2, 19160, Note_off_c, 1, 66, 0
2, 19200, Note_on_c, 1, 60, 127
2, 19200, Note_on_c, 1, 72, 127
2, 19280, Note_off_c, 1, 60, 0
2, 19280, Note_off_c, 1, 72, 0
2, 19320, Note_on_c, 1, 57, 127
2, 19320, Note_on_c, 1, 69, 127
2, 19360, Note_off_c, 1, 57, 0
2, 19360, Note_off_c, 1, 69, 0
2, 19400, Note_on_c, 1, 66, 127
2, 19400, Note_on_c, 1, 78, 127
2, 19480, Note_off_c, 1, 66, 0
2, 19480, Note_off_c, 1, 78, 0
2, 19520, Note_on_c, 1, 66, 127
2, 19520, Note_on_c, 1, 78, 127
2, 19560, Note_off_c, 1, 66, 0
2, 19560, Note_off_c, 1, 78, 0
2, 19600, Note_on_c, 1, 62, 127
2, 19600, Note_on_c, 1, 74, 127
2, 19680, Note_off_c, 1, 62, 0
2, 19680, Note_off_c, 1, 74, 0
2, 19720, Note_on_c, 1, 73, 127
2, 19720, Note_on_c, 1, 85, 127
2, 19760, Note_off_c, 1, 73, 0
2, 19760, Note_off_c, 1, 85, 0
2, 19800, Note_on_c, 1, 67, 127
2, 19800, Note_on_c, 1, 79, 127
2, 19880, Note_off_c, 1, 67, 0
2, 19880, Note_off_c, 1, 79, 0
2, 19920, Note_on_c, 1, 66, 127
2, 19920, Note_on_c, 1, 78, 127
2, 19960, Note_off_c, 1, 66, 0
2, 19960, Note_off_c, 1, 78, 0
2, 20000, Note_on_c, 1, 62, 127
2, 20000, Note_on_c, 1, 74, 127
2, 20080, Note_off_c, 1, 62, 0
2, 20080, Note_off_c, 1, 74, 0
2, 20120, Note_on_c, 1, 59, 127
2, 20120, Note_on_c, 1, 71, 127
2, 20160, Note_off_c, 1, 59, 0
2, 20160, Note_off_c, 1, 71, 0
2, 20200, Note_on_c, 1, 61, 127
2, 20200, Note_on_c, 1, 73, 127
2, 20280, Note_off_c, 1, 61, 0
2, 20280, Note_off_c, 1, 73, 0
2, 20320, Note_on_c, 1, 62, 127
2, 20320, Note_on_c, 1, 74, 127
2, 20360, Note_off_c, 1, 62, 0
2, 20360, Note_off_c, 1, 74, 0
2, 20400, Note_on_c, 1, 57, 127
2, 20400, Note_on_c, 1, 66, 127
2, 20480, Note_off_c, 1, 57, 0
2, 20480, Note_off_c, 1, 66, 0
2, 20520, Note_on_c, 1, 59, 127
2, 20520, Note_on_c, 1, 71, 127
2, 20560, Note_off_c, 1, 59, 0
2, 20560, Note_off_c, 1, 71, 0
2, 20600, Note_on_c, 1, 57, 127
2, 20600, Note_on_c, 1, 69, 127
2, 20680, Note_off_c, 1, 57, 0
2, 20680, Note_off_c, 1, 69, 0
2, 20760, Note_on_c, 1, 66, 127
2, 20760, Note_on_c, 1, 78, 127
2, 20800, Note_off_c, 1, 66, 0
2, 20800, Note_off_c, 1, 78, 0
2, 20840, Note_on_c, 1, 67, 127
2, 20840, Note_on_c, 1, 79, 127
2, 20920, Note_off_c, 1, 67, 0
2, 20920, Note_off_c, 1, 79, 0
2, 20960, Note_on_c, 1, 64, 127
2, 20960, Note_on_c, 1, 76, 127
2, 21000, Note_off_c, 1, 64, 0
2, 21000, Note_off_c, 1, 76, 0
2, 21040, Note_on_c, 1, 62, 127
2, 21040, Note_on_c, 1, 74, 127
2, 21120, Note_off_c, 1, 62, 0
2, 21120, Note_off_c, 1, 74, 0
2, 21160, Note_on_c, 1, 59, 127
2, 21160, Note_on_c, 1, 71, 127
2, 21200, Note_off_c, 1, 59, 0
2, 21200, Note_off_c, 1, 71, 0
2, 21240, Note_on_c, 1, 57, 127
2, 21240, Note_on_c, 1, 69, 127
2, 21320, Note_off_c, 1, 57, 0
2, 21320, Note_off_c, 1, 69, 0
2, 21360, Note_on_c, 1, 54, 127
2, 21360, Note_on_c, 1, 66, 127
2, 21400, Note_off_c, 1, 54, 0
2, 21400, Note_off_c, 1, 66, 0
2, 21440, Note_on_c, 1, 57, 127
2, 21440, Note_on_c, 1, 69, 127
2, 21520, Note_off_c, 1, 57, 0
2, 21520, Note_off_c, 1, 69, 0
2, 21560, Note_on_c, 1, 54, 127
2, 21560, Note_on_c, 1, 66, 127
2, 21640, Note_off_c, 1, 54, 0
2, 21640, Note_off_c, 1, 66, 0
2, 21680, Note_on_c, 1, 57, 127
2, 21680, Note_on_c, 1, 69, 127
2, 21720, Note_off_c, 1, 57, 0
2, 21720, Note_off_c, 1, 69, 0
2, 21760, Note_on_c, 1, 61, 127
2, 21760, Note_on_c, 1, 73, 127
2, 21840, Note_off_c, 1, 61, 0
2, 21840, Note_off_c, 1, 73, 0
2, 21880, Note_on_c, 1, 57, 127
2, 21880, Note_on_c, 1, 69, 127
2, 21920, Note_off_c, 1, 57, 0
2, 21920, Note_off_c, 1, 69, 0
2, 21960, Note_on_c, 1, 61, 127
2, 21960, Note_on_c, 1, 73, 127
2, 22040, Note_off_c, 1, 61, 0
2, 22040, Note_off_c, 1, 73, 0
2, 22080, Note_on_c, 1, 62, 127
2, 22080, Note_on_c, 1, 74, 127
2, 22120, Note_off_c, 1, 62, 0
2, 22120, Note_off_c, 1, 74, 0
2, 22160, Note_on_c, 1, 61, 127
2, 22160, Note_on_c, 1, 73, 127
2, 22240, Note_off_c, 1, 61, 0
2, 22240, Note_off_c, 1, 73, 0
2, 22280, Note_on_c, 1, 57, 127
2, 22280, Note_on_c, 1, 69, 127
2, 22320, Note_off_c, 1, 57, 0
2, 22320, Note_off_c, 1, 69, 0
2, 22360, Note_on_c, 1, 66, 127
2, 22360, Note_on_c, 1, 78, 127
2, 22440, Note_off_c, 1, 66, 0
2, 22440, Note_off_c, 1, 78, 0
2, 22480, Note_on_c, 1, 38, 127
2, 22480, Note_on_c, 1, 50, 127
2, 22480, Note_on_c, 1, 68, 127
2, 22480, Note_on_c, 1, 71, 127
2, 22480, Note_on_c, 1, 74, 127
2, 22480, Note_on_c, 1, 77, 127
2, 22720, Note_off_c, 1, 38, 0
2, 22720, Note_off_c, 1, 50, 0
2, 22720, Note_off_c, 1, 68, 0
2, 22720, Note_off_c, 1, 71, 0
2, 22720, Note_off_c, 1, 74, 0
2, 22720, Note_off_c, 1, 77, 0
2, 22760, Note_on_c, 1, 38, 127
2, 22760, Note_on_c, 1, 50, 127
2, 22760, Note_on_c, 1, 68, 127
2, 22760, Note_on_c, 1, 71, 127
2, 22760, Note_on_c, 1, 74, 127
2, 22760, Note_on_c, 1, 77, 127
2, 22800, Note_off_c, 1, 38, 0
2, 22800, Note_off_c, 1, 50, 0
2, 22800, Note_off_c, 1, 68, 0
2, 22800, Note_off_c, 1, 71, 0
2, 22800, Note_off_c, 1, 74, 0
2, 22800, Note_off_c, 1, 77, 0
2, 22880, Note_on_c, 1, 38, 127
2, 22880, Note_on_c, 1, 50, 127
2, 22880, Note_on_c, 1, 68, 127
2, 22880, Note_on_c, 1, 71, 127
2, 22880, Note_on_c, 1, 74, 127
2, 22880, Note_on_c, 1, 77, 127
2, 23040, Note_off_c, 1, 38, 0
2, 23040, Note_off_c, 1, 50, 0
2, 23040, Note_off_c, 1, 68, 0
2, 23040, Note_off_c, 1, 71, 0
2, 23040, Note_off_c, 1, 74, 0
2, 23040, Note_off_c, 1, 77, 0
2, 23080, Note_on_c, 1, 38, 127
2, 23080, Note_on_c, 1, 50, 127
2, 23080, Note_on_c, 1, 68, 127
2, 23080, Note_on_c, 1, 71, 127
2, 23080, Note_on_c, 1, 74, 127
2, 23080, Note_on_c, 1, 77, 127
2, 23120, Note_off_c, 1, 38, 0
2, 23120, Note_off_c, 1, 50, 0
2, 23120, Note_off_c, 1, 68, 0
2, 23120, Note_off_c, 1, 71, 0
2, 23120, Note_off_c, 1, 74, 0
2, 23120, Note_off_c, 1, 77, 0
2, 23160, Note_on_c, 1, 38, 127
2, 23160, Note_on_c, 1, 50, 127
2, 23160, Note_on_c, 1, 68, 127
2, 23160, Note_on_c, 1, 71, 127
2, 23160, Note_on_c, 1, 74, 127
2, 23160, Note_on_c, 1, 77, 127
2, 23240, Note_off_c, 1, 38, 0
2, 23240, Note_off_c, 1, 50, 0
2, 23240, Note_off_c, 1, 68, 0
2, 23240, Note_off_c, 1, 71, 0
2, 23240, Note_off_c, 1, 74, 0
2, 23240, Note_off_c, 1, 77, 0
2, 23280, Note_on_c, 1, 38, 127
2, 23280, Note_on_c, 1, 50, 127
2, 23280, Note_on_c, 1, 68, 127
2, 23280, Note_on_c, 1, 71, 127
2, 23280, Note_on_c, 1, 74, 127
2, 23280, Note_on_c, 1, 77, 127
2, 23400, Note_off_c, 1, 68, 0
2, 23400, Note_off_c, 1, 71, 0
2, 23400, Note_off_c, 1, 77, 0
2, 23480, Note_on_c, 1, 69, 127
2, 23480, Note_on_c, 1, 78, 127
2, 23520, Note_off_c, 1, 38, 0
2, 23520, Note_off_c, 1, 50, 0
2, 23520, Note_off_c, 1, 69, 0
2, 23520, Note_off_c, 1, 74, 0
2, 23520, Note_off_c, 1, 78, 0
2, 23840, Note_on_c, 1, 59, 127
2, 23840, Note_on_c, 1, 63, 127
2, 23840, Note_on_c, 1, 78, 127
2, 23920, Note_off_c, 1, 78, 0
2, 23960, Note_on_c, 1, 80, 127
2, 24000, Note_off_c, 1, 80, 0
2, 24040, Note_off_c, 1, 59, 0
2, 24040, Note_on_c, 1, 71, 127
2, 24040, Note_on_c, 1, 80, 127
2, 24120, Note_on_c, 1, 59, 127
2, 24120, Note_off_c, 1, 71, 0
2, 24120, Note_off_c, 1, 80, 0
2, 24160, Note_on_c, 1, 80, 127
2, 24200, Note_off_c, 1, 59, 0
2, 24200, Note_off_c, 1, 63, 0
2, 24200, Note_off_c, 1, 80, 0
2, 24240, Note_on_c, 1, 59, 127
2, 24240, Note_on_c, 1, 62, 127
2, 24240, Note_on_c, 1, 89, 127
2, 24320, Note_off_c, 1, 59, 0
2, 24320, Note_off_c, 1, 62, 0
2, 24320, Note_off_c, 1, 89, 0
2, 24360, Note_on_c, 1, 59, 127
2, 24360, Note_on_c, 1, 62, 127
2, 24360, Note_on_c, 1, 89, 127
2, 24400, Note_off_c, 1, 89, 0
2, 24440, Note_on_c, 1, 90, 127
2, 24480, Note_on_c, 1, 54, 127
2, 24480, Note_off_c, 1, 59, 0
2, 24480, Note_on_c, 1, 61, 127
2, 24480, Note_off_c, 1, 62, 0
2, 24480, Note_on_c, 1, 64, 127
2, 24480, Note_on_c, 1, 70, 127
2, 24480, Note_on_c, 1, 76, 127
2, 24480, Note_off_c, 1, 90, 0
2, 24520, Note_off_c, 1, 54, 0
2, 24520, Note_off_c, 1, 61, 0
2, 24520, Note_off_c, 1, 64, 0
2, 24520, Note_off_c, 1, 70, 0
2, 24520, Note_off_c, 1, 76, 0
2, 24560, Note_on_c, 1, 57, 127
2, 24560, Note_on_c, 1, 61, 127
2, 24560, Note_on_c, 1, 66, 127
2, 24560, Note_on_c, 1, 90, 127
2, 24680, Note_off_c, 1, 90, 0
2, 24720, Note_off_c, 1, 57, 0
2, 24720, Note_off_c, 1, 61, 0
2, 24720, Note_off_c, 1, 66, 0
2, 24720, Note_on_c, 1, 85, 127
2, 24760, Note_on_c, 1, 62, 127
2, 24760, Note_on_c, 1, 68, 127
2, 24760, Note_on_c, 1, 73, 127
2, 24760, Note_off_c, 1, 85, 0
2, 24760, Note_on_c, 1, 86, 127
2, 24760, Note_on_c, 1, 90, 127
2, 24760, Note_on_c, 1, 92, 127
2, 24960, Note_off_c, 1, 62, 0
2, 24960, Note_off_c, 1, 68, 0
2, 24960, Note_off_c, 1, 73, 0
2, 24960, Note_off_c, 1, 86, 0
2, 24960, Note_off_c, 1, 90, 0
2, 24960, Note_off_c, 1, 92, 0
2, 25000, Note_on_c, 1, 62, 127
2, 25000, Note_on_c, 1, 68, 127
2, 25000, Note_on_c, 1, 73, 127
2, 25000, Note_on_c, 1, 86, 127
2, 25000, Note_on_c, 1, 90, 127
2, 25000, Note_on_c, 1, 92, 127
2, 25160, Note_off_c, 1, 62, 0
2, 25160, Note_off_c, 1, 68, 0
2, 25160, Note_off_c, 1, 73, 0
2, 25160, Note_off_c, 1, 86, 0
2, 25160, Note_off_c, 1, 90, 0
2, 25160, Note_off_c, 1, 92, 0
2, 25200, Note_on_c, 1, 57, 127
2, 25200, Note_on_c, 1, 67, 127
2, 25200, Note_on_c, 1, 83, 127
2, 25360, Note_off_c, 1, 57, 0
2, 25360, Note_off_c, 1, 67, 0
2, 25360, Note_off_c, 1, 83, 0
2, 25400, Note_on_c, 1, 83, 127
2, 25440, Note_on_c, 1, 81, 127
2, 25440, Note_off_c, 1, 83, 0
2, 25520, Note_off_c, 1, 81, 0
2, 25560, Note_on_c, 1, 78, 127
2, 25600, Note_on_c, 1, 52, 127
2, 25600, Note_on_c, 1, 61, 127
2, 25600, Note_on_c, 1, 76, 127
2, 25600, Note_off_c, 1, 78, 0
2, 25720, Note_off_c, 1, 76, 0
2, 25760, Note_off_c, 1, 52, 0
2, 25760, Note_off_c, 1, 61, 0
2, 25760, Note_on_c, 1, 76, 127
2, 25800, Note_on_c, 1, 57, 127
2, 25800, Note_on_c, 1, 64, 127
2, 25800, Note_on_c, 1, 73, 127
2, 25800, Note_off_c, 1, 76, 0
2, 25960, Note_off_c, 1, 57, 0
2, 25960, Note_off_c, 1, 64, 0
2, 25960, Note_off_c, 1, 73, 0
2, 26000, Note_on_c, 1, 45, 127
2, 26000, Note_on_c, 1, 57, 127
2, 26000, Note_on_c, 1, 61, 127
2, 26000, Note_on_c, 1, 69, 127
2, 26160, Note_off_c, 1, 45, 0
2, 26160, Note_off_c, 1, 57, 0
2, 26160, Note_off_c, 1, 61, 0
2, 26160, Note_off_c, 1, 69, 0
2, 26640, Note_on_c, 1, 42, 127
2, 26640, Note_on_c, 1, 54, 127
2, 26640, Note_on_c, 1, 66, 127
2, 26640, Note_on_c, 1, 78, 127
2, 26840, Note_off_c, 1, 42, 0
2, 26840, Note_off_c, 1, 54, 0
2, 26840, Note_off_c, 1, 66, 0
2, 26840, Note_off_c, 1, 78, 0
2, 28720, Note_on_c, 1, 58, 127
2, 28800, Note_off_c, 1, 58, 0
2, 28840, Note_on_c, 1, 59, 127
2, 28880, Note_off_c, 1, 59, 0
2, 28920, Note_on_c, 1, 61, 127
2, 29000, Note_off_c, 1, 61, 0
2, 29040, Note_on_c, 1, 63, 127
2, 29080, Note_off_c, 1, 63, 0
2, 29120, Note_on_c, 1, 61, 127
2, 29200, Note_off_c, 1, 61, 0
2, 29240, Note_on_c, 1, 65, 127
2, 29280, Note_off_c, 1, 65, 0
2, 29320, Note_on_c, 1, 56, 127
2, 29320, Note_on_c, 1, 59, 127
2, 29320, Note_on_c, 1, 65, 127
2, 29320, Note_on_c, 1, 71, 127
2, 29680, Note_off_c, 1, 56, 0
2, 29680, Note_off_c, 1, 59, 0
2, 29680, Note_off_c, 1, 65, 0
2, 29680, Note_off_c, 1, 71, 0
2, 29720, Note_on_c, 1, 49, 127
2, 29720, Note_on_c, 1, 55, 127
2, 29720, Note_on_c, 1, 61, 127
2, 29720, Note_on_c, 1, 65, 127
2, 29840, Note_off_c, 1, 49, 0
2, 29840, Note_off_c, 1, 55, 0
2, 29840, Note_off_c, 1, 61, 0
2, 29840, Note_off_c, 1, 65, 0
2, 29880, Note_on_c, 1, 49, 127
2, 29880, Note_on_c, 1, 55, 127
2, 29880, Note_on_c, 1, 61, 127
2, 29880, Note_on_c, 1, 65, 127
2, 29960, Note_off_c, 1, 65, 0
2, 30000, Note_on_c, 1, 37, 127
2, 30000, Note_off_c, 1, 55, 0
2, 30000, Note_off_c, 1, 61, 0
2, 30000, Note_on_c, 1, 77, 127
2, 30000, Note_on_c, 1, 89, 127
2, 30080, Note_on_c, 1, 61, 127
2, 30080, Note_on_c, 1, 65, 127
2, 30080, Note_off_c, 1, 77, 0
2, 30080, Note_off_c, 1, 89, 0
2, 30120, Note_off_c, 1, 37, 0
2, 30120, Note_off_c, 1, 49, 0
2, 30120, Note_off_c, 1, 61, 0
2, 30120, Note_off_c, 1, 65, 0
2, 30160, Note_on_c, 1, 58, 127
2, 30160, Note_on_c, 1, 61, 127
2, 30160, Note_on_c, 1, 66, 127
2, 30320, Note_off_c, 1, 58, 0
2, 30320, Note_off_c, 1, 61, 0
2, 30320, Note_off_c, 1, 66, 0
2, 31560, Note_on_c, 1, 28, 127
2, 31560, Note_on_c, 1, 40, 127
2, 31560, Note_on_c, 1, 52, 127
2, 31600, Note_off_c, 1, 28, 0
2, 31600, Note_off_c, 1, 40, 0
2, 31600, Note_off_c, 1, 52, 0
2, 32600, Note_on_c, 1, 57, 127
2, 32600, Note_on_c, 1, 73, 127
2, 32720, Note_off_c, 1, 57, 0
2, 32720, Note_off_c, 1, 73, 0
2, 32760, Note_on_c, 1, 59, 127
2, 32760, Note_on_c, 1, 74, 127
2, 32800, Note_off_c, 1, 74, 0
2, 32800, Note_on_c, 1, 76, 127
2, 32960, Note_off_c, 1, 59, 0
2, 32960, Note_off_c, 1, 76, 0
2, 33000, Note_on_c, 1, 57, 127
2, 33000, Note_on_c, 1, 73, 127
2, 33160, Note_off_c, 1, 57, 0
2, 33160, Note_off_c, 1, 73, 0
2, 33200, Note_on_c, 1, 58, 127
2, 33200, Note_on_c, 1, 73, 127
2, 33240, Note_off_c, 1, 58, 0
2, 33240, Note_on_c, 1, 61, 127
2, 33240, Note_off_c, 1, 73, 0
2, 33240, Note_on_c, 1, 76, 127
2, 33360, Note_off_c, 1, 61, 0
2, 33360, Note_off_c, 1, 76, 0
2, 33400, Note_on_c, 1, 62, 127
2, 33400, Note_on_c, 1, 78, 127
2, 33480, Note_off_c, 1, 78, 0
2, 33480, Note_on_c, 1, 83, 127
2, 33520, Note_on_c, 1, 78, 127
2, 33520, Note_off_c, 1, 83, 0
2, 33560, Note_off_c, 1, 62, 0
2, 33560, Note_off_c, 1, 78, 0
2, 33600, Note_on_c, 1, 68, 127
2, 33600, Note_on_c, 1, 83, 127
2, 33640, Note_off_c, 1, 68, 0
2, 33640, Note_off_c, 1, 83, 0
2, 33680, Note_on_c, 1, 69, 127
2, 33680, Note_on_c, 1, 85, 127
2, 33760, Note_off_c, 1, 69, 0
2, 33760, Note_off_c, 1, 85, 0
2, 33800, Note_on_c, 1, 69, 127
2, 33800, Note_on_c, 1, 85, 127
2, 33840, Note_off_c, 1, 69, 0
2, 33840, Note_off_c, 1, 85, 0
2, 33880, Note_on_c, 1, 69, 127
2, 33880, Note_on_c, 1, 85, 127
2, 33960, Note_off_c, 1, 69, 0
2, 33960, Note_off_c, 1, 85, 0
2, 34040, Note_on_c, 1, 68, 127
2, 34040, Note_on_c, 1, 83, 127
2, 34080, Note_off_c, 1, 83, 0
2, 34120, Note_on_c, 1, 83, 127
2, 34160, Note_off_c, 1, 83, 0
2, 34200, Note_on_c, 1, 83, 127
2, 34320, Note_on_c, 1, 82, 127
2, 34320, Note_off_c, 1, 83, 0
2, 34360, Note_off_c, 1, 82, 0
2, 34400, Note_on_c, 1, 59, 127
2, 34400, Note_on_c, 1, 80, 127
2, 34560, Note_off_c, 1, 59, 0
2, 34560, Note_off_c, 1, 80, 0
2, 34600, Note_on_c, 1, 61, 127
2, 34600, Note_on_c, 1, 76, 127
2, 34760, Note_off_c, 1, 76, 0
2, 34800, Note_on_c, 1, 76, 127
2, 34960, Note_off_c, 1, 61, 0
2, 34960, Note_off_c, 1, 68, 0
2, 34960, Note_off_c, 1, 76, 0
2, 35000, Note_on_c, 1, 60, 127
2, 35000, Note_on_c, 1, 68, 127
2, 35000, Note_on_c, 1, 75, 127
2, 35160, Note_off_c, 1, 60, 0
2, 35160, Note_off_c, 1, 75, 0
2, 35200, Note_on_c, 1, 60, 127
2, 35200, Note_on_c, 1, 76, 127
2, 35360, Note_off_c, 1, 60, 0
2, 35360, Note_off_c, 1, 68, 0
2, 35360, Note_off_c, 1, 76, 0
2, 35400, Note_on_c, 1, 64, 127
2, 35400, Note_on_c, 1, 68, 127
2, 35400, Note_on_c, 1, 76, 127
2, 35440, Note_off_c, 1, 76, 0
2, 35480, Note_on_c, 1, 80, 127
2, 35560, Note_off_c, 1, 64, 0
2, 35560, Note_off_c, 1, 80, 0
2, 35600, Note_on_c, 1, 80, 127
2, 35760, Note_off_c, 1, 68, 0
2, 35760, Note_off_c, 1, 80, 0
2, 35800, Note_on_c, 1, 72, 127
2, 35880, Note_off_c, 1, 72, 0
2, 35920, Note_on_c, 1, 72, 127
2, 35960, Note_off_c, 1, 72, 0
2, 36040, Note_on_c, 1, 61, 127
2, 36040, Note_on_c, 1, 68, 127
2, 36040, Note_on_c, 1, 76, 127
2, 36120, Note_off_c, 1, 76, 0
2, 36160, Note_on_c, 1, 76, 127
2, 36200, Note_off_c, 1, 76, 0
2, 36240, Note_on_c, 1, 79, 127
2, 36320, Note_off_c, 1, 79, 0
2, 36360, Note_on_c, 1, 76, 127
2, 36400, Note_off_c, 1, 61, 0
2, 36400, Note_off_c, 1, 68, 0
2, 36400, Note_off_c, 1, 76, 0
2, 36440, Note_on_c, 1, 61, 127
2, 36440, Note_on_c, 1, 67, 127
2, 36440, Note_on_c, 1, 77, 127
2, 36520, Note_off_c, 1, 67, 0
2, 36560, Note_on_c, 1, 68, 127
2, 36600, Note_off_c, 1, 61, 0
2, 36600, Note_off_c, 1, 68, 0
2, 36600, Note_off_c, 1, 77, 0
2, 36640, Note_on_c, 1, 66, 127
2, 36640, Note_on_c, 1, 72, 127
2, 36640, Note_on_c, 1, 80, 127
2, 36800, Note_off_c, 1, 66, 0
2, 36840, Note_on_c, 1, 56, 127
2, 37000, Note_off_c, 1, 56, 0
2, 37000, Note_off_c, 1, 72, 0
2, 37000, Note_off_c, 1, 80, 0
2, 37040, Note_on_c, 1, 54, 127
2, 37040, Note_on_c, 1, 61, 127
2, 37040, Note_on_c, 1, 78, 127
2, 37040, Note_on_c, 1, 82, 127
2, 37200, Note_off_c, 1, 78, 0
2, 37240, Note_off_c, 1, 61, 0
2, 37240, Note_on_c, 1, 66, 127
2, 37240, Note_on_c, 1, 78, 127
2, 37400, Note_off_c, 1, 54, 0
2, 37400, Note_off_c, 1, 66, 0
2, 37400, Note_off_c, 1, 78, 0
2, 37400, Note_off_c, 1, 82, 0
2, 37440, Note_on_c, 1, 40, 127
2, 37440, Note_on_c, 1, 52, 127
2, 37440, Note_on_c, 1, 71, 127
2, 37440, Note_on_c, 1, 76, 127
2, 37440, Note_on_c, 1, 80, 127
2, 37800, Note_off_c, 1, 40, 0
2, 37800, Note_off_c, 1, 52, 0
2, 37800, Note_off_c, 1, 71, 0
2, 37800, Note_off_c, 1, 76, 0
2, 37800, Note_off_c, 1, 80, 0
2, 39160, Note_on_c, 1, 74, 127
2, 39280, Note_off_c, 1, 74, 0
2, 39320, Note_on_c, 1, 71, 127
2, 39480, Note_off_c, 1, 71, 0
2, 39520, Note_on_c, 1, 38, 127
2, 39520, Note_on_c, 1, 50, 127
2, 39520, Note_on_c, 1, 64, 127
2, 39520, Note_on_c, 1, 68, 127
2, 39520, Note_on_c, 1, 71, 127
2, 40080, Note_off_c, 1, 38, 0
2, 40080, Note_off_c, 1, 50, 0
2, 40080, Note_off_c, 1, 64, 0
2, 40080, Note_off_c, 1, 68, 0
2, 40080, Note_off_c, 1, 71, 0
2, 40120, Note_on_c, 1, 38, 127
2, 40120, Note_on_c, 1, 50, 127
2, 40120, Note_on_c, 1, 64, 127
2, 40120, Note_on_c, 1, 68, 127
2, 40120, Note_on_c, 1, 71, 127
2, 40480, Note_off_c, 1, 38, 0
2, 40480, Note_off_c, 1, 50, 0
2, 40480, Note_off_c, 1, 64, 0
2, 40480, Note_off_c, 1, 68, 0
2, 40480, Note_off_c, 1, 71, 0
2, 40520, Note_on_c, 1, 38, 127
2, 40520, Note_on_c, 1, 50, 127
2, 40520, Note_on_c, 1, 64, 127
2, 40520, Note_on_c, 1, 68, 127
2, 40520, Note_on_c, 1, 71, 127
2, 40880, Note_off_c, 1, 38, 0
2, 40880, Note_off_c, 1, 50, 0
2, 40880, Note_off_c, 1, 64, 0
2, 40880, Note_off_c, 1, 68, 0
2, 40880, Note_off_c, 1, 71, 0
2, 40920, Note_on_c, 1, 38, 127
2, 40920, Note_on_c, 1, 50, 127
2, 40920, Note_on_c, 1, 64, 127
2, 40920, Note_on_c, 1, 68, 127
2, 40920, Note_on_c, 1, 71, 127
2, 41080, Note_off_c, 1, 38, 0
2, 41080, Note_off_c, 1, 50, 0
2, 41080, Note_off_c, 1, 64, 0
2, 41080, Note_off_c, 1, 68, 0
2, 41080, Note_off_c, 1, 71, 0
2, 41160, Note_on_c, 1, 37, 127
2, 41160, Note_on_c, 1, 49, 127
2, 41160, Note_on_c, 1, 59, 127
2, 41160, Note_on_c, 1, 65, 127
2, 41160, Note_on_c, 1, 68, 127
2, 41320, Note_on_c, 1, 35, 127
2, 41320, Note_off_c, 1, 37, 0
2, 41320, Note_on_c, 1, 47, 127
2, 41320, Note_off_c, 1, 49, 0
2, 41320, Note_off_c, 1, 59, 0
2, 41320, Note_on_c, 1, 62, 127
2, 41320, Note_off_c, 1, 65, 0
2, 41320, Note_off_c, 1, 68, 0
2, 41360, Note_off_c, 1, 35, 0
2, 41360, Note_on_c, 1, 37, 127
2, 41360, Note_off_c, 1, 47, 0
2, 41360, Note_on_c, 1, 49, 127
2, 41360, Note_on_c, 1, 59, 127
2, 41360, Note_off_c, 1, 62, 0
2, 41360, Note_on_c, 1, 65, 127
2, 41360, Note_on_c, 1, 71, 127
2, 41520, Note_off_c, 1, 37, 0
2, 41520, Note_off_c, 1, 49, 0
2, 41520, Note_off_c, 1, 59, 0
2, 41520, Note_off_c, 1, 65, 0
2, 41520, Note_off_c, 1, 71, 0
2, 41560, Note_on_c, 1, 38, 127
2, 41560, Note_on_c, 1, 50, 127
2, 41560, Note_on_c, 1, 66, 127
2, 41720, Note_off_c, 1, 38, 0
2, 41720, Note_off_c, 1, 50, 0
2, 41720, Note_off_c, 1, 66, 0
2, 41760, Note_on_c, 1, 38, 127
2, 41760, Note_on_c, 1, 50, 127
2, 41760, Note_on_c, 1, 59, 127
2, 41760, Note_on_c, 1, 62, 127
2, 41760, Note_on_c, 1, 67, 127
2, 41920, Note_off_c, 1, 59, 0
2, 41920, Note_off_c, 1, 62, 0
2, 41920, Note_off_c, 1, 67, 0
2, 41960, Note_on_c, 1, 59, 127
2, 41960, Note_on_c, 1, 62, 127
2, 41960, Note_on_c, 1, 67, 127
2, 42120, Note_off_c, 1, 38, 0
2, 42120, Note_off_c, 1, 50, 0
2, 42120, Note_off_c, 1, 59, 0
2, 42120, Note_off_c, 1, 62, 0
2, 42120, Note_off_c, 1, 67, 0
2, 42160, Note_on_c, 1, 60, 127
2, 42160, Note_on_c, 1, 65, 127
2, 42160, Note_on_c, 1, 69, 127
2, 42160, Note_on_c, 1, 75, 127
2, 42160, Note_on_c, 1, 77, 127
2, 42480, Note_off_c, 1, 60, 0
2, 42480, Note_off_c, 1, 65, 0
2, 42480, Note_off_c, 1, 69, 0
2, 42480, Note_off_c, 1, 75, 0
2, 42480, Note_off_c, 1, 77, 0
2, 42520, Note_on_c, 1, 55, 127
2, 42520, Note_on_c, 1, 57, 127
2, 42520, Note_on_c, 1, 61, 127
2, 42520, Note_on_c, 1, 64, 127
2, 42520, Note_on_c, 1, 81, 127
2, 42520, Note_on_c, 1, 85, 127
2, 42520, Note_on_c, 1, 88, 127
2, 42520, Note_on_c, 1, 93, 127
2, 42560, Note_off_c, 1, 55, 0
2, 42560, Note_off_c, 1, 57, 0
2, 42560, Note_on_c, 1, 59, 127
2, 42560, Note_off_c, 1, 64, 0
2, 42560, Note_on_c, 1, 65, 127
2, 42560, Note_on_c, 1, 80, 127
2, 42560, Note_off_c, 1, 81, 0
2, 42560, Note_off_c, 1, 85, 0
2, 42560, Note_off_c, 1, 88, 0
2, 42560, Note_off_c, 1, 93, 0
2, 42600, Note_on_c, 1, 46, 127
2, 42600, Note_off_c, 1, 59, 0
2, 42600, Note_off_c, 1, 61, 0
2, 42600, Note_on_c, 1, 63, 127
2, 42600, Note_off_c, 1, 65, 0
2, 42600, Note_on_c, 1, 74, 127
2, 42600, Note_off_c, 1, 80, 0
2, 42640, Note_off_c, 1, 46, 0
2, 42640, Note_on_c, 1, 55, 127
2, 42640, Note_on_c, 1, 58, 127
2, 42640, Note_on_c, 1, 60, 127
2, 42640, Note_off_c, 1, 63, 0
2, 42640, Note_on_c, 1, 70, 127
2, 42640, Note_off_c, 1, 74, 0
2, 42680, Note_off_c, 1, 55, 0
2, 42680, Note_off_c, 1, 58, 0
2, 42680, Note_off_c, 1, 60, 0
2, 42680, Note_off_c, 1, 70, 0
2, 42720, Note_on_c, 1, 43, 127
2, 42720, Note_on_c, 1, 51, 127
2, 42720, Note_on_c, 1, 55, 127
2, 42720, Note_on_c, 1, 75, 127
2, 42720, Note_on_c, 1, 82, 127
2, 42720, Note_on_c, 1, 87, 127
2, 42760, Note_on_c, 1, 39, 127
2, 42760, Note_off_c, 1, 43, 0
2, 42760, Note_off_c, 1, 51, 0
2, 42760, Note_off_c, 1, 55, 0
2, 42760, Note_on_c, 1, 67, 127
2, 42760, Note_on_c, 1, 70, 127
2, 42760, Note_on_c, 1, 74, 127
2, 42760, Note_off_c, 1, 75, 0
2, 42760, Note_on_c, 1, 77, 127
2, 42760, Note_off_c, 1, 82, 0
2, 42760, Note_off_c, 1, 87, 0
2, 42800, Note_off_c, 1, 39, 0
2, 42800, Note_on_c, 1, 47, 127
2, 42800, Note_on_c, 1, 57, 127
2, 42800, Note_off_c, 1, 67, 0
2, 42800, Note_off_c, 1, 70, 0
2, 42800, Note_off_c, 1, 74, 0
2, 42800, Note_off_c, 1, 77, 0
2, 42800, Note_on_c, 1, 87, 127
2, 42840, Note_on_c, 1, 39, 127
2, 42840, Note_off_c, 1, 47, 0
2, 42840, Note_on_c, 1, 50, 127
2, 42840, Note_off_c, 1, 57, 0
2, 42840, Note_on_c, 1, 59, 127
2, 42840, Note_on_c, 1, 71, 127
2, 42840, Note_off_c, 1, 87, 0
2, 42880, Note_off_c, 1, 39, 0
2, 42880, Note_off_c, 1, 50, 0
2, 42880, Note_off_c, 1, 59, 0
2, 42880, Note_off_c, 1, 71, 0
2, 42920, Note_on_c, 1, 47, 127
2, 42920, Note_on_c, 1, 51, 127
2, 42920, Note_on_c, 1, 54, 127
2, 42920, Note_on_c, 1, 71, 127
2, 42920, Note_on_c, 1, 83, 127
2, 43120, Note_off_c, 1, 47, 0
2, 43120, Note_off_c, 1, 51, 0
2, 43120, Note_off_c, 1, 54, 0
2, 43120, Note_off_c, 1, 71, 0
2, 43120, Note_off_c, 1, 83, 0
2, 43160, Note_on_c, 1, 47, 127
2, 43160, Note_on_c, 1, 51, 127
2, 43160, Note_on_c, 1, 54, 127
2, 43160, Note_on_c, 1, 71, 127
2, 43160, Note_on_c, 1, 83, 127
2, 43320, Note_off_c, 1, 47, 0
2, 43320, Note_off_c, 1, 51, 0
2, 43320, Note_off_c, 1, 54, 0
2, 43320, Note_off_c, 1, 71, 0
2, 43320, Note_off_c, 1, 83, 0
2, 43360, Note_on_c, 1, 66, 127
2, 43360, Note_on_c, 1, 69, 127
2, 43360, Note_on_c, 1, 74, 127
2, 43360, Note_on_c, 1, 86, 127
2, 43360, Note_on_c, 1, 93, 127
2, 43360, Note_on_c, 1, 98, 127
2, 44120, Note_off_c, 1, 66, 0
2, 44120, Note_off_c, 1, 69, 0
2, 44120, Note_off_c, 1, 74, 0
2, 44120, Note_off_c, 1, 86, 0
2, 44120, Note_off_c, 1, 93, 0
2, 44120, Note_off_c, 1, 98, 0
2, 44160, Note_on_c, 1, 66, 127
2, 44160, Note_on_c, 1, 69, 127
2, 44160, Note_on_c, 1, 74, 127
2, 44160, Note_on_c, 1, 86, 127
2, 44160, Note_on_c, 1, 93, 127
2, 44160, Note_on_c, 1, 98, 127
2, 44920, Note_off_c, 1, 66, 0
2, 44920, Note_off_c, 1, 69, 0
2, 44920, Note_off_c, 1, 74, 0
2, 44920, Note_off_c, 1, 86, 0
2, 44920, Note_off_c, 1, 93, 0
2, 44920, Note_off_c, 1, 98, 0
2, 46000, Note_on_c, 1, 70, 127
2, 46000, Note_on_c, 1, 82, 127
2, 46520, Note_off_c, 1, 70, 0
2, 46520, Note_off_c, 1, 82, 0
2, 46560, Note_on_c, 1, 71, 127
2, 46560, Note_on_c, 1, 83, 127
2, 46920, Note_off_c, 1, 71, 0
2, 46920, Note_off_c, 1, 83, 0
2, 46960, Note_on_c, 1, 72, 127
2, 46960, Note_on_c, 1, 84, 127
2, 47320, Note_off_c, 1, 72, 0
2, 47320, Note_off_c, 1, 84, 0
2, 47360, Note_on_c, 1, 67, 127
2, 47360, Note_on_c, 1, 71, 127
2, 47360, Note_on_c, 1, 75, 127
2, 47360, Note_on_c, 1, 79, 127
2, 47400, Note_off_c, 1, 67, 0
2, 47400, Note_off_c, 1, 71, 0
2, 47400, Note_off_c, 1, 75, 0
2, 47400, Note_off_c, 1, 79, 0
2, 47560, Note_on_c, 1, 44, 127
2, 47560, Note_on_c, 1, 51, 127
2, 47560, Note_on_c, 1, 56, 127
2, 47560, Note_on_c, 1, 72, 127
2, 47560, Note_on_c, 1, 75, 127
2, 47560, Note_on_c, 1, 84, 127
2, 47640, Note_off_c, 1, 44, 0
2, 47640, Note_off_c, 1, 51, 0
2, 47640, Note_off_c, 1, 56, 0
2, 47640, Note_off_c, 1, 72, 0
2, 47640, Note_off_c, 1, 75, 0
2, 47640, Note_off_c, 1, 84, 0
2, 47680, Note_on_c, 1, 44, 127
2, 47680, Note_on_c, 1, 51, 127
2, 47680, Note_on_c, 1, 56, 127
2, 47680, Note_on_c, 1, 72, 127
2, 47680, Note_on_c, 1, 75, 127
2, 47680, Note_on_c, 1, 84, 127
2, 47960, Note_off_c, 1, 44, 0
2, 47960, Note_off_c, 1, 51, 0
2, 47960, Note_off_c, 1, 56, 0
2, 47960, Note_off_c, 1, 72, 0
2, 47960, Note_off_c, 1, 75, 0
2, 47960, Note_off_c, 1, 84, 0
2, 48000, Note_on_c, 1, 55, 127
2, 48000, Note_on_c, 1, 57, 127
2, 48000, Note_on_c, 1, 61, 127
2, 48000, Note_on_c, 1, 64, 127
2, 48000, Note_on_c, 1, 76, 127
2, 48160, Note_off_c, 1, 55, 0
2, 48160, Note_off_c, 1, 57, 0
2, 48160, Note_off_c, 1, 61, 0
2, 48160, Note_off_c, 1, 64, 0
2, 48160, Note_off_c, 1, 76, 0
2, 48200, Note_on_c, 1, 49, 127
2, 48200, Note_on_c, 1, 52, 127
2, 48200, Note_on_c, 1, 56, 127
2, 48200, Note_on_c, 1, 61, 127
2, 48200, Note_on_c, 1, 64, 127
2, 48200, Note_on_c, 1, 68, 127
2, 48360, Note_off_c, 1, 49, 0
2, 48360, Note_off_c, 1, 52, 0
2, 48360, Note_off_c, 1, 56, 0
2, 48360, Note_off_c, 1, 61, 0
2, 48360, Note_off_c, 1, 64, 0
2, 48360, Note_off_c, 1, 68, 0
2, 48400, Note_on_c, 1, 41, 127
2, 48400, Note_on_c, 1, 53, 127
2, 48400, Note_on_c, 1, 69, 127
2, 48400, Note_on_c, 1, 74, 127
2, 48560, Note_off_c, 1, 41, 0
2, 48560, Note_off_c, 1, 53, 0
2, 48560, Note_off_c, 1, 69, 0
2, 48560, Note_off_c, 1, 74, 0
2, 48600, Note_on_c, 1, 41, 127
2, 48600, Note_on_c, 1, 53, 127
2, 48600, Note_on_c, 1, 69, 127
2, 48600, Note_on_c, 1, 74, 127
2, 48760, Note_off_c, 1, 41, 0
2, 48760, Note_off_c, 1, 53, 0
2, 48760, Note_off_c, 1, 69, 0
2, 48760, Note_off_c, 1, 74, 0
2, 48800, Note_on_c, 1, 41, 127
2, 48800, Note_on_c, 1, 53, 127
2, 48800, Note_on_c, 1, 69, 127
2, 48800, Note_on_c, 1, 74, 127
2, 48960, Note_off_c, 1, 41, 0
2, 48960, Note_off_c, 1, 53, 0
2, 48960, Note_off_c, 1, 69, 0
2, 48960, Note_off_c, 1, 74, 0
2, 49000, Note_on_c, 1, 41, 127
2, 49000, Note_on_c, 1, 53, 127
2, 49000, Note_on_c, 1, 69, 127
2, 49000, Note_on_c, 1, 74, 127
2, 49160, Note_off_c, 1, 41, 0
2, 49160, Note_off_c, 1, 53, 0
2, 49160, Note_off_c, 1, 69, 0
2, 49160, Note_off_c, 1, 74, 0
2, 49200, Note_on_c, 1, 41, 127
2, 49200, Note_on_c, 1, 53, 127
2, 49200, Note_on_c, 1, 69, 127
2, 49200, Note_on_c, 1, 74, 127
2, 49360, Note_off_c, 1, 41, 0
2, 49360, Note_off_c, 1, 53, 0
2, 49360, Note_off_c, 1, 69, 0
2, 49360, Note_off_c, 1, 74, 0
2, 49400, Note_on_c, 1, 41, 127
2, 49400, Note_on_c, 1, 53, 127
2, 49400, Note_on_c, 1, 69, 127
2, 49400, Note_on_c, 1, 74, 127
2, 49560, Note_off_c, 1, 41, 0
2, 49560, Note_off_c, 1, 53, 0
2, 49560, Note_off_c, 1, 69, 0
2, 49560, Note_off_c, 1, 74, 0
2, 49640, Note_on_c, 1, 41, 127
2, 49640, Note_on_c, 1, 53, 127
2, 49640, Note_on_c, 1, 69, 127
2, 49640, Note_on_c, 1, 74, 127
2, 49800, Note_off_c, 1, 41, 0
2, 49800, Note_off_c, 1, 53, 0
2, 49800, Note_off_c, 1, 69, 0
2, 49800, Note_off_c, 1, 74, 0
2, 49840, Note_on_c, 1, 41, 127
2, 49840, Note_on_c, 1, 53, 127
2, 49840, Note_on_c, 1, 69, 127
2, 49840, Note_on_c, 1, 74, 127
2, 50000, Note_off_c, 1, 41, 0
2, 50000, Note_off_c, 1, 53, 0
2, 50000, Note_off_c, 1, 69, 0
2, 50000, Note_off_c, 1, 74, 0
2, 50040, Note_on_c, 1, 41, 127
2, 50040, Note_on_c, 1, 53, 127
2, 50040, Note_on_c, 1, 69, 127
2, 50040, Note_on_c, 1, 74, 127
2, 50200, Note_off_c, 1, 41, 0
2, 50200, Note_off_c, 1, 53, 0
2, 50200, Note_off_c, 1, 69, 0
2, 50200, Note_off_c, 1, 74, 0
2, 50240, Note_on_c, 1, 41, 127
2, 50240, Note_on_c, 1, 53, 127
2, 50240, Note_on_c, 1, 69, 127
2, 50240, Note_on_c, 1, 74, 127
2, 50400, Note_off_c, 1, 41, 0
2, 50400, Note_off_c, 1, 53, 0
2, 50400, Note_off_c, 1, 69, 0
2, 50400, Note_off_c, 1, 74, 0
2, 50440, Note_on_c, 1, 41, 127
2, 50440, Note_on_c, 1, 53, 127
2, 50440, Note_on_c, 1, 69, 127
2, 50440, Note_on_c, 1, 74, 127
2, 50600, Note_off_c, 1, 41, 0
2, 50600, Note_off_c, 1, 53, 0
2, 50600, Note_off_c, 1, 69, 0
2, 50600, Note_off_c, 1, 74, 0
2, 50640, Note_on_c, 1, 41, 127
2, 50640, Note_on_c, 1, 53, 127
2, 50640, Note_on_c, 1, 69, 127
2, 50640, Note_on_c, 1, 74, 127
2, 50800, Note_off_c, 1, 41, 0
2, 50800, Note_off_c, 1, 53, 0
2, 50800, Note_off_c, 1, 69, 0
2, 50800, Note_off_c, 1, 74, 0
2, 50840, Note_on_c, 1, 41, 127
2, 50840, Note_on_c, 1, 53, 127
2, 50840, Note_on_c, 1, 69, 127
2, 50840, Note_on_c, 1, 74, 127
2, 50880, Note_on_c, 1, 72, 127
2, 50880, Note_off_c, 1, 74, 0
2, 50920, Note_off_c, 1, 72, 0
2, 50920, Note_on_c, 1, 74, 127
2, 51000, Note_off_c, 1, 69, 0
2, 51000, Note_off_c, 1, 74, 0
2, 51040, Note_on_c, 1, 69, 127
2, 51040, Note_on_c, 1, 74, 127
2, 51200, Note_off_c, 1, 41, 0
2, 51200, Note_off_c, 1, 53, 0
2, 51200, Note_off_c, 1, 69, 0
2, 51200, Note_off_c, 1, 74, 0
2, 51240, Note_on_c, 1, 41, 127
2, 51240, Note_on_c, 1, 53, 127
2, 51240, Note_on_c, 1, 69, 127
2, 51240, Note_on_c, 1, 74, 127
2, 51280, Note_on_c, 1, 72, 127
2, 51280, Note_off_c, 1, 74, 0
2, 51320, Note_off_c, 1, 72, 0
2, 51320, Note_on_c, 1, 74, 127
2, 51400, Note_off_c, 1, 69, 0
2, 51400, Note_off_c, 1, 74, 0
2, 51440, Note_on_c, 1, 72, 127
2, 51520, Note_off_c, 1, 41, 0
2, 51520, Note_off_c, 1, 53, 0
2, 51520, Note_off_c, 1, 72, 0
2, 51560, Note_on_c, 1, 41, 127
2, 51560, Note_on_c, 1, 53, 127
2, 51560, Note_on_c, 1, 72, 127
2, 51640, Note_off_c, 1, 72, 0
2, 51680, Note_off_c, 1, 41, 0
2, 51680, Note_on_c, 1, 44, 127
2, 51680, Note_off_c, 1, 53, 0
2, 51680, Note_on_c, 1, 56, 127
2, 51680, Note_on_c, 1, 63, 127
2, 51680, Note_on_c, 1, 66, 127
2, 51680, Note_on_c, 1, 72, 127
2, 52040, Note_off_c, 1, 44, 0
2, 52040, Note_off_c, 1, 56, 0
2, 52040, Note_off_c, 1, 63, 0
2, 52040, Note_off_c, 1, 66, 0
2, 52040, Note_off_c, 1, 72, 0
2, 52080, Note_on_c, 1, 46, 127
2, 52080, Note_on_c, 1, 53, 127
2, 52080, Note_on_c, 1, 58, 127
2, 52080, Note_on_c, 1, 77, 127
2, 52080, Note_on_c, 1, 82, 127
2, 52080, Note_on_c, 1, 86, 127
2, 52080, Note_on_c, 1, 89, 127
2, 52240, Note_off_c, 1, 46, 0
2, 52240, Note_off_c, 1, 53, 0
2, 52240, Note_off_c, 1, 58, 0
2, 52240, Note_off_c, 1, 77, 0
2, 52240, Note_off_c, 1, 82, 0
2, 52240, Note_off_c, 1, 86, 0
2, 52240, Note_off_c, 1, 89, 0
2, 52480, Note_on_c, 1, 50, 127
2, 52480, Note_on_c, 1, 54, 127
2, 52480, Note_on_c, 1, 62, 127
2, 52480, Note_on_c, 1, 85, 127
2, 52520, Note_off_c, 1, 50, 0
2, 52520, Note_off_c, 1, 54, 0
2, 52520, Note_off_c, 1, 62, 0
2, 52520, Note_off_c, 1, 85, 0
2, 52880, Note_on_c, 1, 53, 127
2, 52880, Note_on_c, 1, 57, 127
2, 52880, Note_on_c, 1, 60, 127
2, 52880, Note_on_c, 1, 65, 127
2, 52880, Note_on_c, 1, 69, 127
2, 52920, Note_off_c, 1, 53, 0
2, 52920, Note_off_c, 1, 57, 0
2, 52920, Note_off_c, 1, 60, 0
2, 52920, Note_off_c, 1, 65, 0
2, 52920, Note_off_c, 1, 69, 0
2, 53080, Note_on_c, 1, 85, 127
2, 53120, Note_on_c, 1, 84, 127
2, 53120, Note_off_c, 1, 85, 0
2, 53200, Note_off_c, 1, 84, 0
2, 53240, Note_on_c, 1, 81, 127
2, 53280, Note_on_c, 1, 77, 127
2, 53280, Note_off_c, 1, 81, 0
2, 53360, Note_off_c, 1, 77, 0
2, 53400, Note_on_c, 1, 74, 127
2, 53440, Note_on_c, 1, 72, 127
2, 53440, Note_off_c, 1, 74, 0
2, 53480, Note_off_c, 1, 72, 0
2, 53520, Note_on_c, 1, 72, 127
2, 53600, Note_off_c, 1, 72, 0
2, 53640, Note_on_c, 1, 69, 127
2, 53720, Note_on_c, 1, 53, 127
2, 53720, Note_on_c, 1, 57, 127
2, 53720, Note_on_c, 1, 60, 127
2, 53720, Note_on_c, 1, 65, 127
2, 53720, Note_off_c, 1, 69, 0
2, 53880, Note_off_c, 1, 53, 0
2, 53880, Note_off_c, 1, 57, 0
2, 53880, Note_off_c, 1, 60, 0
2, 53920, Note_on_c, 1, 60, 127
2, 53920, Note_on_c, 1, 62, 127
2, 53920, Note_on_c, 1, 72, 127
2, 54520, Note_off_c, 1, 60, 0
2, 54520, Note_off_c, 1, 62, 0
2, 54520, Note_off_c, 1, 72, 0
2, 54560, Note_on_c, 1, 52, 127
2, 54560, Note_on_c, 1, 57, 127
2, 54560, Note_on_c, 1, 60, 127
2, 54560, Note_on_c, 1, 63, 127
2, 54560, Note_off_c, 1, 65, 0
2, 54920, Note_off_c, 1, 57, 0
2, 54920, Note_off_c, 1, 60, 0
2, 54920, Note_off_c, 1, 63, 0
2, 54960, Note_on_c, 1, 57, 127
2, 54960, Note_on_c, 1, 60, 127
2, 55120, Note_off_c, 1, 52, 0
2, 55120, Note_off_c, 1, 57, 0
2, 55120, Note_off_c, 1, 60, 0
2, 55160, Note_on_c, 1, 57, 127
2, 55320, Note_off_c, 1, 57, 0
2, 55360, Note_on_c, 1, 60, 127
2, 55520, Note_off_c, 1, 60, 0
2, 55560, Note_on_c, 1, 62, 127
2, 55720, Note_off_c, 1, 62, 0
2, 55800, Note_on_c, 1, 63, 127
2, 55960, Note_off_c, 1, 63, 0
2, 56000, Note_on_c, 1, 63, 127
2, 56160, Note_off_c, 1, 63, 0
2, 56200, Note_on_c, 1, 64, 127
2, 56360, Note_off_c, 1, 64, 0
2, 56400, Note_on_c, 1, 50, 127
2, 56400, Note_on_c, 1, 55, 127
2, 56400, Note_on_c, 1, 58, 127
2, 56400, Note_on_c, 1, 63, 127
2, 56760, Note_off_c, 1, 55, 0
2, 56760, Note_off_c, 1, 58, 0
2, 56760, Note_off_c, 1, 63, 0
2, 56800, Note_on_c, 1, 57, 127
2, 57160, Note_off_c, 1, 50, 0
2, 57160, Note_off_c, 1, 57, 0
2, 57200, Note_on_c, 1, 58, 127
2, 57200, Note_on_c, 1, 62, 127
2, 57200, Note_on_c, 1, 64, 127
2, 57560, Note_off_c, 1, 58, 0
2, 57560, Note_off_c, 1, 62, 0
2, 57560, Note_off_c, 1, 64, 0
2, 57600, Note_on_c, 1, 57, 127
2, 57600, Note_on_c, 1, 60, 127
2, 57600, Note_on_c, 1, 65, 127
2, 57760, Note_off_c, 1, 57, 0
2, 57760, Note_off_c, 1, 60, 0
2, 57760, Note_off_c, 1, 65, 0
2, 57800, Note_on_c, 1, 57, 127
2, 57800, Note_on_c, 1, 60, 127
2, 57800, Note_on_c, 1, 65, 127
2, 57840, Note_on_c, 1, 48, 127
2, 58000, Note_off_c, 1, 48, 0
2, 58240, Note_on_c, 1, 48, 127
2, 58400, Note_off_c, 1, 48, 0
2, 58640, Note_on_c, 1, 53, 127
2, 58680, Note_off_c, 1, 53, 0
2, 58800, Note_off_c, 1, 57, 0
2, 58800, Note_off_c, 1, 60, 0
2, 58800, Note_off_c, 1, 65, 0
2, 58840, Note_on_c, 1, 38, 127
2, 58840, Note_on_c, 1, 50, 127
2, 58840, Note_on_c, 1, 60, 127
2, 58840, Note_on_c, 1, 66, 127
2, 58840, Note_on_c, 1, 69, 127
2, 58840, Note_on_c, 1, 74, 127
2, 59600, Note_off_c, 1, 38, 0
2, 59600, Note_off_c, 1, 50, 0
2, 59600, Note_off_c, 1, 60, 0
2, 59600, Note_off_c, 1, 66, 0
2, 59600, Note_off_c, 1, 69, 0
2, 59600, Note_off_c, 1, 74, 0
2, 59680, Note_on_c, 1, 33, 127
2, 59680, Note_on_c, 1, 45, 127
2, 59680, Note_on_c, 1, 57, 127
2, 59680, Note_on_c, 1, 69, 127
2, 59880, Note_off_c, 1, 33, 0
2, 59880, Note_off_c, 1, 45, 0
2, 59880, Note_off_c, 1, 57, 0
2, 59880, Note_off_c, 1, 69, 0
2, 59920, Note_on_c, 1, 33, 127
2, 59920, Note_on_c, 1, 45, 127
2, 59920, Note_on_c, 1, 57, 127
2, 59920, Note_on_c, 1, 69, 127
2, 60080, Note_off_c, 1, 33, 0
2, 60080, Note_off_c, 1, 45, 0
2, 60080, Note_off_c, 1, 57, 0
2, 60080, Note_off_c, 1, 69, 0
2, 60120, Note_on_c, 1, 33, 127
2, 60120, Note_on_c, 1, 45, 127
2, 60120, Note_on_c, 1, 57, 127
2, 62000, Note_off_c, 1, 33, 0
2, 62000, Note_off_c, 1, 45, 0
2, 62000, Note_off_c, 1, 57, 0
2, 62040, Note_on_c, 1, 33, 127
2, 62040, Note_on_c, 1, 45, 127
2, 62040, Note_on_c, 1, 57, 127
2, 64160, Note_off_c, 1, 33, 0
2, 64160, Note_off_c, 1, 45, 0
2, 64160, Note_off_c, 1, 57, 0
2, 64200, Note_on_c, 1, 33, 127
2, 64200, Note_on_c, 1, 45, 127
2, 64200, Note_on_c, 1, 57, 127
2, 66320, Note_off_c, 1, 33, 0
2, 66320, Note_off_c, 1, 45, 0
2, 66320, Note_off_c, 1, 57, 0
2, 66360, Note_on_c, 1, 33, 127
2, 66360, Note_on_c, 1, 45, 127
2, 66400, Note_on_c, 1, 57, 127
2, 68440, Note_off_c, 1, 33, 0
2, 68440, Note_off_c, 1, 45, 0
2, 68440, Note_off_c, 1, 57, 0
2, 68480, Note_on_c, 1, 33, 127
2, 68480, Note_on_c, 1, 45, 127
2, 68480, Note_on_c, 1, 57, 127
2, 70200, Note_off_c, 1, 33, 0
2, 70200, Note_off_c, 1, 45, 0
2, 70200, Note_off_c, 1, 57, 0
2, 70280, Note_on_c, 1, 33, 127
2, 70280, Note_on_c, 1, 45, 127
2, 70280, Note_on_c, 1, 57, 127
2, 70480, Note_off_c, 1, 33, 0
2, 70480, Note_off_c, 1, 45, 0
2, 70480, Note_off_c, 1, 57, 0
2, 70520, Note_on_c, 1, 33, 127
2, 70520, Note_on_c, 1, 45, 127
2, 70520, Note_on_c, 1, 57, 127
2, 72320, Note_off_c, 1, 33, 0
2, 72320, Note_off_c, 1, 45, 0
2, 72320, Note_off_c, 1, 57, 0
2, 74160, Note_on_c, 1, 46, 127
2, 74160, Note_on_c, 1, 58, 127
2, 74160, Note_on_c, 1, 70, 127
2, 74200, Note_on_c, 1, 66, 127
2, 74200, Note_off_c, 1, 70, 0
2, 74320, Note_off_c, 1, 66, 0
2, 74360, Note_on_c, 1, 66, 127
2, 74560, Note_off_c, 1, 66, 0
2, 74600, Note_on_c, 1, 66, 127
2, 74720, Note_off_c, 1, 46, 0
2, 74720, Note_on_c, 1, 55, 127
2, 74720, Note_on_c, 1, 62, 127
2, 74720, Note_off_c, 1, 66, 0
2, 74720, Note_on_c, 1, 67, 127
2, 74720, Note_on_c, 1, 70, 127
2, 74760, Note_on_c, 1, 46, 127
2, 74760, Note_off_c, 1, 55, 0
2, 74760, Note_off_c, 1, 62, 0
2, 74760, Note_off_c, 1, 67, 0
2, 74760, Note_off_c, 1, 70, 0
2, 74800, Note_on_c, 1, 70, 127
2, 74960, Note_off_c, 1, 70, 0
2, 75000, Note_on_c, 1, 72, 127
2, 75200, Note_off_c, 1, 72, 0
2, 75200, Note_on_c, 1, 74, 127
2, 75280, Note_off_c, 1, 74, 0
2, 75280, Note_on_c, 1, 76, 127
2, 75400, Note_off_c, 1, 76, 0
2, 75440, Note_on_c, 1, 70, 127
2, 75560, Note_off_c, 1, 46, 0
2, 75560, Note_off_c, 1, 58, 0
2, 75560, Note_off_c, 1, 70, 0
2, 75600, Note_on_c, 1, 46, 127
2, 75600, Note_on_c, 1, 58, 127
2, 75600, Note_on_c, 1, 70, 127
2, 75640, Note_off_c, 1, 70, 0
2, 75680, Note_on_c, 1, 70, 127
2, 76480, Note_off_c, 1, 46, 0
2, 76520, Note_on_c, 1, 46, 127
2, 76880, Note_off_c, 1, 46, 0
2, 76880, Note_off_c, 1, 58, 0
2, 76880, Note_off_c, 1, 70, 0
2, 76920, Note_on_c, 1, 41, 127
2, 76920, Note_on_c, 1, 53, 127
2, 76920, Note_on_c, 1, 65, 127
2, 77960, Note_off_c, 1, 41, 0
2, 77960, Note_off_c, 1, 53, 0
2, 77960, Note_off_c, 1, 65, 0
2, 78000, Note_on_c, 1, 41, 127
2, 78000, Note_on_c, 1, 53, 127
2, 78000, Note_on_c, 1, 65, 127
2, 78200, Note_off_c, 1, 41, 0
2, 78200, Note_off_c, 1, 53, 0
2, 78200, Note_off_c, 1, 65, 0
2, 78240, Note_on_c, 1, 40, 127
2, 78240, Note_on_c, 1, 52, 127
2, 78240, Note_on_c, 1, 59, 127
2, 78240, Note_on_c, 1, 68, 127
2, 78240, Note_on_c, 1, 71, 127
2, 79040, Note_off_c, 1, 40, 0
2, 79040, Note_off_c, 1, 52, 0
2, 79040, Note_off_c, 1, 59, 0
2, 79040, Note_off_c, 1, 68, 0
2, 79040, Note_off_c, 1, 71, 0
2, 79080, Note_on_c, 1, 44, 127
2, 79080, Note_on_c, 1, 56, 127
2, 79080, Note_on_c, 1, 60, 127
2, 79080, Note_on_c, 1, 63, 127
2, 79080, Note_on_c, 1, 66, 127
2, 79240, Note_off_c, 1, 56, 0
2, 79280, Note_on_c, 1, 56, 127
2, 79440, Note_off_c, 1, 44, 0
2, 79440, Note_off_c, 1, 56, 0
2, 79440, Note_off_c, 1, 60, 0
2, 79440, Note_off_c, 1, 63, 0
2, 79440, Note_off_c, 1, 66, 0
2, 79480, Note_on_c, 1, 44, 127
2, 79480, Note_on_c, 1, 56, 127
2, 79480, Note_on_c, 1, 60, 127
2, 79480, Note_on_c, 1, 63, 127
2, 79480, Note_on_c, 1, 66, 127
2, 79680, Note_off_c, 1, 56, 0
2, 80240, Note_off_c, 1, 44, 0
2, 80240, Note_off_c, 1, 60, 0
2, 80240, Note_off_c, 1, 63, 0
2, 80240, Note_off_c, 1, 66, 0
2, 80280, Note_on_c, 1, 44, 127
2, 80280, Note_on_c, 1, 60, 127
2, 80280, Note_on_c, 1, 63, 127
2, 80280, Note_on_c, 1, 66, 127
2, 80760, Note_off_c, 1, 44, 0
2, 80760, Note_off_c, 1, 60, 0
2, 80760, Note_off_c, 1, 63, 0
2, 80760, Note_off_c, 1, 66, 0
2, 80800, Note_on_c, 1, 39, 127
2, 80800, Note_on_c, 1, 62, 127
2, 81600, Note_off_c, 1, 39, 0
2, 81600, Note_off_c, 1, 62, 0
2, 81640, Note_on_c, 1, 39, 127
2, 81640, Note_on_c, 1, 62, 127
2, 82160, Note_off_c, 1, 39, 0
2, 82160, Note_off_c, 1, 62, 0
2, 82200, Note_on_c, 1, 39, 127
2, 82200, Note_on_c, 1, 62, 127
2, 82720, Note_off_c, 1, 39, 0
2, 82720, Note_off_c, 1, 62, 0
2, 85840, Note_on_c, 1, 51, 127
2, 85840, Note_on_c, 1, 58, 127
2, 85840, Note_on_c, 1, 67, 127
2, 85840, Note_on_c, 1, 75, 127
2, 86560, Note_off_c, 1, 51, 0
2, 86560, Note_off_c, 1, 58, 0
2, 86560, Note_off_c, 1, 67, 0
2, 86560, Note_off_c, 1, 75, 0
2, 86600, Note_on_c, 1, 51, 127
2, 86600, Note_on_c, 1, 58, 127
2, 86600, Note_on_c, 1, 67, 127
2, 86600, Note_on_c, 1, 75, 127
2, 86680, Note_off_c, 1, 51, 0
2, 86680, Note_off_c, 1, 58, 0
2, 86680, Note_off_c, 1, 67, 0
2, 86680, Note_off_c, 1, 75, 0
2, 86720, Note_on_c, 1, 51, 127
2, 86720, Note_on_c, 1, 56, 127
2, 86720, Note_on_c, 1, 63, 127
2, 86720, Note_on_c, 1, 72, 127
2, 87080, Note_off_c, 1, 51, 0
2, 87080, Note_off_c, 1, 56, 0
2, 87080, Note_off_c, 1, 63, 0
2, 87120, Note_on_c, 1, 51, 127
2, 87120, Note_on_c, 1, 55, 127
2, 87120, Note_on_c, 1, 63, 127
2, 87120, Note_on_c, 1, 70, 127
2, 87120, Note_off_c, 1, 72, 0
2, 87280, Note_off_c, 1, 63, 0
2, 87320, Note_on_c, 1, 63, 127
2, 87920, Note_off_c, 1, 51, 0
2, 87920, Note_off_c, 1, 55, 0
2, 87920, Note_off_c, 1, 63, 0
2, 87920, Note_off_c, 1, 70, 0
2, 89440, Note_on_c, 1, 47, 127
2, 89600, Note_off_c, 1, 47, 0
2, 89880, Note_on_c, 1, 54, 127
2, 90040, Note_off_c, 1, 54, 0
2, 90280, Note_on_c, 1, 56, 127
2, 90280, Note_on_c, 1, 59, 127
2, 90280, Note_on_c, 1, 63, 127
2, 90320, Note_off_c, 1, 56, 0
2, 90320, Note_off_c, 1, 59, 0
2, 90320, Note_off_c, 1, 63, 0
2, 90560, Note_on_c, 1, 58, 127
2, 90560, Note_on_c, 1, 63, 127
2, 90560, Note_on_c, 1, 66, 127
2, 90600, Note_off_c, 1, 58, 0
2, 90600, Note_off_c, 1, 63, 0
2, 90600, Note_off_c, 1, 66, 0
2, 90760, Note_on_c, 1, 57, 127
2, 90760, Note_on_c, 1, 63, 127
2, 90760, Note_on_c, 1, 66, 127
2, 90960, Note_on_c, 1, 48, 127
2, 91000, Note_on_c, 1, 37, 127
2, 91000, Note_off_c, 1, 48, 0
2, 91000, Note_on_c, 1, 49, 127
2, 91000, Note_on_c, 1, 56, 127
2, 91000, Note_off_c, 1, 57, 0
2, 91000, Note_on_c, 1, 61, 127
2, 91000, Note_off_c, 1, 63, 0
2, 91000, Note_on_c, 1, 65, 127
2, 91000, Note_off_c, 1, 66, 0
2, 91040, Note_off_c, 1, 37, 0
2, 91040, Note_off_c, 1, 49, 0
2, 91040, Note_off_c, 1, 56, 0
2, 91040, Note_on_c, 1, 57, 127
2, 91040, Note_off_c, 1, 61, 0
2, 91040, Note_on_c, 1, 63, 127
2, 91040, Note_off_c, 1, 65, 0
2, 91040, Note_on_c, 1, 66, 127
2, 91200, Note_on_c, 1, 47, 127
2, 91200, Note_off_c, 1, 66, 0
2, 91200, Note_on_c, 1, 67, 127
2, 91240, Note_off_c, 1, 47, 0
2, 91240, Note_on_c, 1, 66, 127
2, 91240, Note_off_c, 1, 67, 0
2, 91320, Note_off_c, 1, 57, 0
2, 91320, Note_off_c, 1, 63, 0
2, 91320, Note_off_c, 1, 66, 0
2, 91360, Note_on_c, 1, 47, 127
2, 91360, Note_on_c, 1, 57, 127
2, 91360, Note_on_c, 1, 63, 127
2, 91360, Note_on_c, 1, 68, 127
2, 91760, Note_off_c, 1, 68, 0
2, 91800, Note_on_c, 1, 68, 127
2, 92160, Note_off_c, 1, 47, 0
2, 92160, Note_off_c, 1, 57, 0
2, 92160, Note_off_c, 1, 63, 0
2, 92160, Note_off_c, 1, 68, 0
2, 92200, Note_on_c, 1, 40, 127
2, 92200, Note_on_c, 1, 56, 127
2, 92200, Note_on_c, 1, 64, 127
2, 92440, Note_off_c, 1, 40, 0
2, 92440, Note_off_c, 1, 56, 0
2, 92440, Note_off_c, 1, 64, 0
2, 92480, Note_on_c, 1, 40, 127
2, 92480, Note_on_c, 1, 56, 127
2, 92480, Note_on_c, 1, 64, 127
2, 92840, Note_off_c, 1, 40, 0
2, 92840, Note_off_c, 1, 56, 0
2, 93040, Note_off_c, 1, 64, 0
2, 93080, Note_on_c, 1, 57, 127
2, 93080, Note_on_c, 1, 61, 127
2, 93080, Note_on_c, 1, 66, 127
2, 93840, Note_off_c, 1, 57, 0
2, 93840, Note_off_c, 1, 61, 0
2, 93840, Note_off_c, 1, 66, 0
2, 93920, Note_on_c, 1, 54, 127
2, 93920, Note_on_c, 1, 61, 127
2, 93920, Note_on_c, 1, 66, 127
2, 93920, Note_on_c, 1, 69, 127
2, 94520, Note_off_c, 1, 54, 0
2, 94520, Note_off_c, 1, 61, 0
2, 94520, Note_off_c, 1, 66, 0
2, 94520, Note_off_c, 1, 69, 0
2, 94560, Note_on_c, 1, 54, 127
2, 94560, Note_on_c, 1, 61, 127
2, 94560, Note_on_c, 1, 66, 127
2, 94560, Note_on_c, 1, 70, 127
2, 94600, Note_off_c, 1, 70, 0
2, 94600, Note_on_c, 1, 73, 127
2, 94760, Note_off_c, 1, 54, 0
2, 94760, Note_off_c, 1, 61, 0
2, 94760, Note_off_c, 1, 66, 0
2, 94760, Note_off_c, 1, 73, 0
2, 94800, Note_on_c, 1, 69, 127
2, 95200, Note_off_c, 1, 69, 0
2, 95240, Note_on_c, 1, 78, 127
2, 95600, Note_off_c, 1, 78, 0
2, 95640, Note_on_c, 1, 59, 127
2, 95640, Note_on_c, 1, 66, 127
2, 95640, Note_on_c, 1, 78, 127
2, 96040, Note_off_c, 1, 59, 0
2, 96040, Note_off_c, 1, 66, 0
2, 96040, Note_off_c, 1, 78, 0
2, 96080, Note_on_c, 1, 71, 127
2, 96080, Note_on_c, 1, 78, 127
2, 96560, Note_off_c, 1, 71, 0
2, 96560, Note_off_c, 1, 78, 0
2, 96600, Note_on_c, 1, 68, 127
2, 96640, Note_off_c, 1, 68, 0
2, 96680, Note_on_c, 1, 68, 127
2, 96800, Note_off_c, 1, 68, 0
2, 96840, Note_on_c, 1, 69, 127
2, 97000, Note_off_c, 1, 69, 0
2, 97040, Note_on_c, 1, 78, 127
2, 97680, Note_on_c, 1, 77, 127
2, 97680, Note_off_c, 1, 78, 0
2, 97840, Note_off_c, 1, 77, 0
2, 97880, Note_on_c, 1, 75, 127
2, 98280, Note_off_c, 1, 75, 0
2, 98320, Note_on_c, 1, 78, 127
2, 98480, Note_off_c, 1, 78, 0
2, 98520, Note_on_c, 1, 76, 127
2, 98720, Note_off_c, 1, 76, 0
2, 98760, Note_on_c, 1, 76, 127
2, 98920, Note_off_c, 1, 76, 0
2, 98960, Note_on_c, 1, 59, 127
2, 98960, Note_on_c, 1, 75, 127
2, 99360, Note_off_c, 1, 59, 0
2, 99360, Note_off_c, 1, 75, 0
2, 99400, Note_on_c, 1, 63, 127
2, 99400, Note_on_c, 1, 80, 127
2, 99760, Note_off_c, 1, 63, 0
2, 99800, Note_on_c, 1, 71, 127
2, 100160, Note_off_c, 1, 71, 0
2, 100160, Note_off_c, 1, 80, 0
2, 100200, Note_on_c, 1, 59, 127
2, 100200, Note_on_c, 1, 78, 127
2, 100600, Note_off_c, 1, 59, 0
2, 100600, Note_off_c, 1, 78, 0
2, 100680, Note_on_c, 1, 64, 127
2, 100680, Note_on_c, 1, 78, 127
2, 101040, Note_off_c, 1, 64, 0
2, 101080, Note_on_c, 1, 66, 127
2, 101440, Note_off_c, 1, 66, 0
2, 101440, Note_off_c, 1, 78, 0
2, 101480, Note_on_c, 1, 71, 127
2, 101480, Note_on_c, 1, 74, 127
2, 101480, Note_on_c, 1, 78, 127
2, 102240, Note_off_c, 1, 71, 0
2, 102240, Note_off_c, 1, 74, 0
2, 102240, Note_off_c, 1, 78, 0
2, 102280, Note_on_c, 1, 66, 127
2, 102280, Note_on_c, 1, 71, 127
2, 102280, Note_on_c, 1, 74, 127
2, 102840, Note_off_c, 1, 66, 0
2, 102840, Note_off_c, 1, 71, 0
2, 102840, Note_off_c, 1, 74, 0
2, 102880, Note_on_c, 1, 66, 127
2, 102880, Note_on_c, 1, 71, 127
2, 102880, Note_on_c, 1, 74, 127
2, 103520, Note_off_c, 1, 66, 0
2, 103520, Note_off_c, 1, 71, 0
2, 103520, Note_off_c, 1, 74, 0
2, 103560, Note_on_c, 1, 47, 127
2, 103560, Note_on_c, 1, 69, 127
2, 103560, Note_on_c, 1, 73, 127
2, 103960, Note_off_c, 1, 47, 0
2, 103960, Note_on_c, 1, 57, 127
2, 104000, Note_on_c, 1, 76, 127
2, 104360, Note_off_c, 1, 57, 0
2, 104360, Note_off_c, 1, 69, 0
2, 104360, Note_off_c, 1, 73, 0
2, 104360, Note_off_c, 1, 76, 0
2, 104400, Note_on_c, 1, 73, 127
2, 104400, Note_on_c, 1, 76, 127
2, 104400, Note_on_c, 1, 81, 127
2, 105000, Note_off_c, 1, 73, 0
2, 105000, Note_off_c, 1, 76, 0
2, 105000, Note_off_c, 1, 81, 0
2, 105040, Note_on_c, 1, 73, 127
2, 105040, Note_on_c, 1, 76, 127
2, 105040, Note_on_c, 1, 81, 127
2, 105240, Note_off_c, 1, 73, 0
2, 105240, Note_off_c, 1, 76, 0
2, 105240, Note_off_c, 1, 81, 0
2, 105280, Note_on_c, 1, 69, 127
2, 105280, Note_on_c, 1, 73, 127
2, 105280, Note_on_c, 1, 78, 127
2, 105680, Note_on_c, 1, 61, 127
2, 105680, Note_on_c, 1, 66, 127
2, 106040, Note_off_c, 1, 66, 0
2, 106040, Note_off_c, 1, 78, 0
2, 106080, Note_on_c, 1, 64, 127
2, 106080, Note_on_c, 1, 76, 127
2, 106440, Note_off_c, 1, 61, 0
2, 106440, Note_off_c, 1, 64, 0
2, 106440, Note_off_c, 1, 69, 0
2, 106440, Note_off_c, 1, 73, 0
2, 106440, Note_off_c, 1, 76, 0
2, 106520, Note_on_c, 1, 39, 127
2, 106520, Note_on_c, 1, 51, 127
2, 106520, Note_on_c, 1, 70, 127
2, 106520, Note_on_c, 1, 76, 127
2, 106520, Note_on_c, 1, 80, 127
2, 106560, Note_off_c, 1, 39, 0
2, 106560, Note_off_c, 1, 51, 0
2, 106560, Note_on_c, 1, 69, 127
2, 106560, Note_off_c, 1, 70, 0
2, 106560, Note_on_c, 1, 78, 127
2, 106560, Note_off_c, 1, 80, 0
2, 106600, Note_on_c, 1, 39, 127
2, 106600, Note_on_c, 1, 51, 127
2, 106600, Note_off_c, 1, 69, 0
2, 106600, Note_on_c, 1, 70, 127
2, 106600, Note_off_c, 1, 78, 0
2, 106600, Note_on_c, 1, 80, 127
2, 106760, Note_off_c, 1, 39, 0
2, 106760, Note_off_c, 1, 51, 0
2, 106880, Note_on_c, 1, 68, 127
2, 106880, Note_off_c, 1, 70, 0
2, 106880, Note_off_c, 1, 80, 0
2, 106920, Note_off_c, 1, 68, 0
2, 106920, Note_off_c, 1, 76, 0
2, 106960, Note_on_c, 1, 70, 127
2, 106960, Note_on_c, 1, 76, 127
2, 106960, Note_on_c, 1, 80, 127
2, 107120, Note_on_c, 1, 68, 127
2, 107120, Note_off_c, 1, 70, 0
2, 107120, Note_off_c, 1, 80, 0
2, 107320, Note_off_c, 1, 68, 0
2, 107320, Note_off_c, 1, 76, 0
2, 107360, Note_on_c, 1, 47, 127
2, 107360, Note_on_c, 1, 71, 127
2, 107360, Note_on_c, 1, 75, 127
2, 107360, Note_on_c, 1, 80, 127
2, 107680, Note_off_c, 1, 47, 0
2, 107680, Note_off_c, 1, 71, 0
2, 107680, Note_off_c, 1, 75, 0
2, 107680, Note_off_c, 1, 80, 0
2, 107760, Note_on_c, 1, 56, 127
2, 107760, Note_on_c, 1, 73, 127
2, 107760, Note_on_c, 1, 77, 127
2, 107760, Note_on_c, 1, 80, 127
2, 108120, Note_off_c, 1, 56, 0
2, 108120, Note_off_c, 1, 73, 0
2, 108120, Note_off_c, 1, 77, 0
2, 108120, Note_off_c, 1, 80, 0
2, 108200, Note_on_c, 1, 59, 127
2, 108200, Note_on_c, 1, 68, 127
2, 108200, Note_on_c, 1, 73, 127
2, 108200, Note_on_c, 1, 76, 127
2, 108920, Note_off_c, 1, 59, 0
2, 108920, Note_off_c, 1, 68, 0
2, 108920, Note_off_c, 1, 73, 0
2, 108920, Note_off_c, 1, 76, 0
2, 108960, Note_on_c, 1, 59, 127
2, 108960, Note_on_c, 1, 68, 127
2, 108960, Note_on_c, 1, 73, 127
2, 108960, Note_on_c, 1, 76, 127
2, 109000, Note_off_c, 1, 59, 0
2, 109000, Note_off_c, 1, 68, 0
2, 109000, Note_off_c, 1, 73, 0
2, 109000, Note_off_c, 1, 76, 0
2, 110320, Note_on_c, 1, 47, 127
2, 110320, Note_on_c, 1, 87, 127
2, 110600, Note_off_c, 1, 47, 0
2, 110640, Note_off_c, 1, 87, 0
2, 110680, Note_on_c, 1, 85, 127
2, 110720, Note_off_c, 1, 85, 0
2, 110760, Note_on_c, 1, 55, 127
2, 110760, Note_on_c, 1, 58, 127
2, 110760, Note_on_c, 1, 63, 127
2, 110760, Note_on_c, 1, 87, 127
2, 111120, Note_off_c, 1, 55, 0
2, 111120, Note_off_c, 1, 58, 0
2, 111120, Note_off_c, 1, 63, 0
2, 111160, Note_off_c, 1, 87, 0
2, 111200, Note_on_c, 1, 55, 127
2, 111200, Note_on_c, 1, 58, 127
2, 111200, Note_on_c, 1, 63, 127
2, 111200, Note_on_c, 1, 87, 127
2, 111520, Note_off_c, 1, 55, 0
2, 111520, Note_off_c, 1, 58, 0
2, 111520, Note_off_c, 1, 63, 0
2, 111520, Note_off_c, 1, 87, 0
2, 111640, Note_on_c, 1, 55, 127
2, 111640, Note_on_c, 1, 58, 127
2, 111640, Note_on_c, 1, 63, 127
2, 111640, Note_on_c, 1, 87, 127
2, 111960, Note_off_c, 1, 55, 0
2, 111960, Note_off_c, 1, 58, 0
2, 111960, Note_off_c, 1, 63, 0
2, 111960, Note_off_c, 1, 87, 0
2, 112040, Note_on_c, 1, 55, 127
2, 112040, Note_on_c, 1, 58, 127
2, 112040, Note_on_c, 1, 63, 127
2, 112040, Note_on_c, 1, 87, 127
2, 112360, Note_off_c, 1, 55, 0
2, 112360, Note_off_c, 1, 58, 0
2, 112360, Note_off_c, 1, 63, 0
2, 112360, Note_on_c, 1, 84, 127
2, 112360, Note_off_c, 1, 87, 0
2, 112400, Note_off_c, 1, 84, 0
2, 112440, Note_on_c, 1, 55, 127
2, 112440, Note_on_c, 1, 58, 127
2, 112440, Note_on_c, 1, 63, 127
2, 112440, Note_on_c, 1, 87, 127
2, 112760, Note_off_c, 1, 55, 0
2, 112760, Note_off_c, 1, 58, 0
2, 112760, Note_off_c, 1, 63, 0
2, 112880, Note_on_c, 1, 55, 127
2, 112880, Note_on_c, 1, 58, 127
2, 112880, Note_on_c, 1, 63, 127
2, 113200, Note_off_c, 1, 55, 0
2, 113200, Note_off_c, 1, 58, 0
2, 113200, Note_off_c, 1, 63, 0
2, 113280, Note_off_c, 1, 87, 0
2, 113320, Note_on_c, 1, 55, 127
2, 113320, Note_on_c, 1, 58, 127
2, 113320, Note_on_c, 1, 63, 127
2, 113320, Note_on_c, 1, 87, 127
2, 113600, Note_off_c, 1, 55, 0
2, 113600, Note_off_c, 1, 58, 0
2, 113600, Note_off_c, 1, 63, 0
2, 113600, Note_off_c, 1, 87, 0
2, 113760, Note_on_c, 1, 55, 127
2, 113760, Note_on_c, 1, 58, 127
2, 113760, Note_on_c, 1, 63, 127
2, 113760, Note_on_c, 1, 87, 127
2, 114040, Note_off_c, 1, 55, 0
2, 114040, Note_off_c, 1, 58, 0
2, 114040, Note_off_c, 1, 63, 0
2, 114160, Note_on_c, 1, 55, 127
2, 114160, Note_on_c, 1, 58, 127
2, 114160, Note_on_c, 1, 63, 127
2, 114480, Note_off_c, 1, 55, 0
2, 114480, Note_off_c, 1, 58, 0
2, 114480, Note_off_c, 1, 63, 0
2, 114560, Note_off_c, 1, 87, 0
2, 114600, Note_on_c, 1, 58, 127
2, 114600, Note_on_c, 1, 63, 127
2, 114600, Note_on_c, 1, 66, 127
2, 114600, Note_on_c, 1, 81, 127
2, 114760, Note_off_c, 1, 81, 0
2, 114760, Note_on_c, 1, 82, 127
2, 114920, Note_off_c, 1, 58, 0
2, 114920, Note_off_c, 1, 63, 0
2, 114920, Note_off_c, 1, 66, 0
2, 114920, Note_off_c, 1, 82, 0
2, 114960, Note_on_c, 1, 84, 127
2, 115000, Note_on_c, 1, 63, 127
2, 115000, Note_on_c, 1, 70, 127
2, 115000, Note_on_c, 1, 75, 127
2, 115000, Note_on_c, 1, 80, 127
2, 115000, Note_off_c, 1, 84, 0
2, 115320, Note_off_c, 1, 63, 0
2, 115320, Note_off_c, 1, 70, 0
2, 115320, Note_off_c, 1, 80, 0
2, 115440, Note_on_c, 1, 63, 127
2, 115440, Note_on_c, 1, 70, 127
2, 115440, Note_on_c, 1, 80, 127
2, 115680, Note_off_c, 1, 63, 0
2, 115680, Note_off_c, 1, 70, 0
2, 115680, Note_off_c, 1, 75, 0
2, 115680, Note_off_c, 1, 80, 0
2, 115720, Note_on_c, 1, 63, 127
2, 115720, Note_on_c, 1, 70, 127
2, 115720, Note_on_c, 1, 75, 127
2, 115720, Note_on_c, 1, 80, 127
2, 115840, Note_off_c, 1, 63, 0
2, 115840, Note_off_c, 1, 70, 0
2, 115840, Note_on_c, 1, 79, 127
2, 115840, Note_off_c, 1, 80, 0
2, 115880, Note_off_c, 1, 75, 0
2, 115880, Note_off_c, 1, 79, 0
2, 115920, Note_on_c, 1, 61, 127
2, 115920, Note_on_c, 1, 66, 127
2, 115920, Note_on_c, 1, 70, 127
2, 115920, Note_on_c, 1, 76, 127
2, 115920, Note_on_c, 1, 78, 127
2, 115920, Note_on_c, 1, 82, 127
2, 116240, Note_off_c, 1, 61, 0
2, 116240, Note_off_c, 1, 66, 0
2, 116240, Note_off_c, 1, 70, 0
2, 116240, Note_off_c, 1, 76, 0
2, 116240, Note_off_c, 1, 78, 0
2, 116240, Note_off_c, 1, 82, 0
2, 116320, Note_on_c, 1, 61, 127
2, 116320, Note_on_c, 1, 66, 127
2, 116320, Note_on_c, 1, 70, 127
2, 116320, Note_on_c, 1, 76, 127
2, 116320, Note_on_c, 1, 78, 127
2, 116320, Note_on_c, 1, 82, 127
2, 117080, Note_off_c, 1, 61, 0
2, 117080, Note_off_c, 1, 66, 0
2, 117080, Note_off_c, 1, 70, 0
2, 117080, Note_off_c, 1, 76, 0
2, 117080, Note_off_c, 1, 78, 0
2, 117080, Note_off_c, 1, 82, 0
2, 117120, Note_on_c, 1, 61, 127
2, 117120, Note_on_c, 1, 66, 127
2, 117120, Note_on_c, 1, 70, 127
2, 117120, Note_on_c, 1, 76, 127
2, 117120, Note_on_c, 1, 78, 127
2, 117120, Note_on_c, 1, 82, 127
2, 117480, Note_off_c, 1, 61, 0
2, 117480, Note_off_c, 1, 66, 0
2, 117480, Note_off_c, 1, 70, 0
2, 117480, Note_off_c, 1, 76, 0
2, 117480, Note_off_c, 1, 78, 0
2, 117480, Note_off_c, 1, 82, 0
2, 117520, Note_on_c, 1, 61, 127
2, 117520, Note_on_c, 1, 66, 127
2, 117520, Note_on_c, 1, 70, 127
2, 117520, Note_on_c, 1, 76, 127
2, 117520, Note_on_c, 1, 78, 127
2, 117520, Note_on_c, 1, 82, 127
2, 117840, Note_off_c, 1, 61, 0
2, 117840, Note_off_c, 1, 66, 0
2, 117840, Note_off_c, 1, 70, 0
2, 117840, Note_off_c, 1, 76, 0
2, 117840, Note_off_c, 1, 78, 0
2, 117840, Note_off_c, 1, 82, 0
2, 117880, Note_on_c, 1, 61, 127
2, 117880, Note_on_c, 1, 66, 127
2, 117880, Note_on_c, 1, 70, 127
2, 117880, Note_on_c, 1, 76, 127
2, 117880, Note_on_c, 1, 78, 127
2, 117880, Note_on_c, 1, 82, 127
2, 117920, Note_off_c, 1, 61, 0
2, 117920, Note_off_c, 1, 66, 0
2, 117920, Note_off_c, 1, 70, 0
2, 117920, Note_off_c, 1, 76, 0
2, 117920, Note_off_c, 1, 78, 0
2, 117920, Note_off_c, 1, 82, 0
2, 118000, Note_on_c, 1, 61, 127
2, 118000, Note_on_c, 1, 66, 127
2, 118000, Note_on_c, 1, 70, 127
2, 118000, Note_on_c, 1, 76, 127
2, 118000, Note_on_c, 1, 78, 127
2, 118000, Note_on_c, 1, 82, 127
2, 118360, Note_off_c, 1, 61, 0
2, 118360, Note_off_c, 1, 66, 0
2, 118360, Note_off_c, 1, 70, 0
2, 118360, Note_off_c, 1, 76, 0
2, 118360, Note_off_c, 1, 78, 0
2, 118360, Note_off_c, 1, 82, 0
2, 118440, Note_on_c, 1, 61, 127
2, 118440, Note_on_c, 1, 66, 127
2, 118440, Note_on_c, 1, 70, 127
2, 118440, Note_on_c, 1, 76, 127
2, 118440, Note_on_c, 1, 78, 127
2, 118440, Note_on_c, 1, 82, 127
2, 119000, Note_off_c, 1, 61, 0
2, 119000, Note_off_c, 1, 66, 0
2, 119000, Note_off_c, 1, 70, 0
2, 119000, Note_off_c, 1, 76, 0
2, 119000, Note_off_c, 1, 78, 0
2, 119000, Note_off_c, 1, 82, 0
2, 119080, Note_on_c, 1, 61, 127
2, 119080, Note_on_c, 1, 66, 127
2, 119080, Note_on_c, 1, 70, 127
2, 119080, Note_on_c, 1, 76, 127
2, 119080, Note_on_c, 1, 78, 127
2, 119080, Note_on_c, 1, 82, 127
2, 119640, Note_off_c, 1, 61, 0
2, 119640, Note_off_c, 1, 66, 0
2, 119640, Note_off_c, 1, 70, 0
2, 119640, Note_off_c, 1, 76, 0
2, 119640, Note_off_c, 1, 78, 0
2, 119640, Note_off_c, 1, 82, 0
2, 119720, Note_on_c, 1, 61, 127
2, 119720, Note_on_c, 1, 66, 127
2, 119720, Note_on_c, 1, 70, 127
2, 119720, Note_on_c, 1, 76, 127
2, 119720, Note_on_c, 1, 78, 127
2, 119720, Note_on_c, 1, 82, 127
2, 119840, Note_off_c, 1, 61, 0
2, 119840, Note_off_c, 1, 66, 0
2, 119840, Note_off_c, 1, 70, 0
2, 119840, Note_off_c, 1, 76, 0
2, 119840, Note_off_c, 1, 78, 0
2, 119840, Note_off_c, 1, 82, 0
2, 119880, Note_on_c, 1, 61, 127
2, 119880, Note_on_c, 1, 66, 127
2, 119880, Note_on_c, 1, 70, 127
2, 119880, Note_on_c, 1, 76, 127
2, 119880, Note_on_c, 1, 78, 127
2, 119880, Note_on_c, 1, 82, 127
2, 120000, Note_off_c, 1, 61, 0
2, 120000, Note_off_c, 1, 66, 0
2, 120000, Note_off_c, 1, 70, 0
2, 120000, Note_off_c, 1, 76, 0
2, 120000, Note_off_c, 1, 78, 0
2, 120000, Note_off_c, 1, 82, 0
2, 120040, End_track
3, 0, Start_track
3, 0, Title_t, "MIDI"
3, 1536, End_track
0, 0, End_of_file
