0, 0, Header, 1, 3, 192
1, 0, Start_track
1, 0, Time_signature, 4, 2, 24, 8
1, 0, Tempo, 500000
1, 120040, End_track
2, 0, Start_track
2, 0, Text_t, "random instrument: random person i dunno whatev"
2, 0, Title_t, "Track 1"
2, 0, Note_on_c, 1, 34, 127
2, 0, Note_on_c, 1, 53, 127
2, 0, Note_on_c, 1, 56, 127
2, 0, Note_on_c, 1, 62, 127
2, 40, Note_off_c, 1, 34, 0
2, 40, Note_off_c, 1, 53, 0
2, 40, Note_off_c, 1, 56, 0
2, 40, Note_off_c, 1, 62, 0
2, 40, Note_on_c, 1, 67, 127
2, 40, Note_on_c, 1, 76, 127
2, 40, Note_on_c, 1, 79, 127
2, 40, Note_on_c, 1, 85, 127
2, 40, Note_on_c, 1, 88, 127
2, 80, Note_off_c, 1, 67, 0
2, 80, Note_off_c, 1, 76, 0
2, 80, Note_off_c, 1, 79, 0
2, 80, Note_off_c, 1, 85, 0
2, 80, Note_off_c, 1, 88, 0
2, 120, Note_on_c, 1, 34, 127
2, 120, Note_on_c, 1, 53, 127
2, 120, Note_on_c, 1, 56, 127
2, 120, Note_on_c, 1, 62, 127
2, 160, Note_off_c, 1, 34, 0
2, 160, Note_on_c, 1, 43, 127
2, 160, Note_on_c, 1, 47, 127
2, 160, Note_off_c, 1, 53, 0
2, 160, Note_on_c, 1, 55, 127
2, 160, Note_off_c, 1, 56, 0
2, 160, Note_off_c, 1, 62, 0
2, 160, Note_on_c, 1, 79, 127
2, 160, Note_on_c, 1, 83, 127
2, 160, Note_on_c, 1, 87, 127
2, 160, Note_on_c, 1, 91, 127
2, 200, Note_on_c, 1, 34, 127
2, 200, Note_off_c, 1, 43, 0
2, 200, Note_off_c, 1, 47, 0
2, 200, Note_on_c, 1, 53, 127
2, 200, Note_off_c, 1, 55, 0
2, 200, Note_on_c, 1, 56, 127
2, 200, Note_on_c, 1, 62, 127
2, 200, Note_off_c, 1, 79, 0
2, 200, Note_off_c, 1, 83, 0
2, 200, Note_off_c, 1, 87, 0
2, 200, Note_off_c, 1, 91, 0
2, 680, Note_off_c, 1, 34, 0
2, 680, Note_off_c, 1, 53, 0
2, 680, Note_off_c, 1, 56, 0
2, 680, Note_off_c, 1, 62, 0
2, 1680, Note_on_c, 1, 36, 127
2, 1680, Note_on_c, 1, 43, 127
2, 1680, Note_on_c, 1, 48, 127
2, 1680, Note_on_c, 1, 52, 127
2, 1680, Note_on_c, 1, 60, 127
2, 1680, Note_on_c, 1, 87, 127
2, 1720, Note_off_c, 1, 36, 0
2, 1720, Note_off_c, 1, 43, 0
2, 1720, Note_on_c, 1, 47, 127
2, 1720, Note_off_c, 1, 48, 0
2, 1720, Note_on_c, 1, 49, 127
2, 1720, Note_off_c, 1, 52, 0
2, 1720, Note_off_c, 1, 60, 0
2, 1720, Note_on_c, 1, 73, 127
2, 1720, Note_on_c, 1, 75, 127
2, 1720, Note_on_c, 1, 85, 127
2, 1720, Note_off_c, 1, 87, 0
2, 1760, Note_off_c, 1, 47, 0
2, 1760, Note_off_c, 1, 49, 0
2, 1760, Note_off_c, 1, 73, 0
2, 1760, Note_off_c, 1, 75, 0
2, 1760, Note_off_c, 1, 85, 0
2, 5160, Note_on_c, 1, 48, 127
2, 5160, Note_on_c, 1, 55, 127
2, 5160, Note_on_c, 1, 60, 127
2, 5160, Note_on_c, 1, 64, 127
2, 6720, Note_off_c, 1, 48, 0
2, 6720, Note_off_c, 1, 55, 0
2, 6720, Note_off_c, 1, 60, 0
2, 6720, Note_off_c, 1, 64, 0
2, 6800, Note_on_c, 1, 43, 127
2, 6800, Note_on_c, 1, 55, 127
2, 6800, Note_on_c, 1, 59, 127
2, 6800, Note_on_c, 1, 62, 127
2, 8280, Note_off_c, 1, 43, 0
2, 8280, Note_off_c, 1, 55, 0
2, 8280, Note_off_c, 1, 59, 0
2, 8280, Note_off_c, 1, 62, 0
2, 10360, Note_on_c, 1, 62, 127
2, 10720, Note_off_c, 1, 62, 0
2, 10760, Note_on_c, 1, 63, 127
2, 11240, Note_off_c, 1, 63, 0
2, 11280, Note_on_c, 1, 63, 127
2, 12320, Note_off_c, 1, 63, 0
2, 12360, Note_on_c, 1, 64, 127
2, 12560, Note_off_c, 1, 64, 0
2, 14240, Note_on_c, 1, 36, 127
2, 14240, Note_on_c, 1, 60, 127
2, 15120, Note_off_c, 1, 36, 0
2, 15120, Note_off_c, 1, 60, 0
2, 15160, Note_on_c, 1, 36, 127
2, 15160, Note_on_c, 1, 60, 127
2, 15240, Note_off_c, 1, 36, 0
2, 15240, Note_off_c, 1, 60, 0
2, 16080, Note_on_c, 1, 57, 127
2, 16080, Note_on_c, 1, 60, 127
2, 16080, Note_on_c, 1, 63, 127
2, 16080, Note_on_c, 1, 72, 127
2, 16080, Note_on_c, 1, 78, 127
2, 16080, Note_on_c, 1, 83, 127
2, 16120, Note_off_c, 1, 57, 0
2, 16120, Note_off_c, 1, 60, 0
2, 16120, Note_off_c, 1, 63, 0
2, 16120, Note_off_c, 1, 72, 0
2, 16120, Note_off_c, 1, 78, 0
2, 16120, Note_off_c, 1, 83, 0
2, 16280, Note_on_c, 1, 48, 127
2, 16280, Note_on_c, 1, 79, 127
2, 16280, Note_on_c, 1, 82, 127
2, 16400, Note_off_c, 1, 48, 0
2, 16400, Note_off_c, 1, 79, 0
2, 16400, Note_off_c, 1, 82, 0
2, 16480, Note_on_c, 1, 53, 127
2, 16480, Note_on_c, 1, 60, 127
2, 16480, Note_on_c, 1, 65, 127
2, 16480, Note_on_c, 1, 69, 127
2, 16480, Note_on_c, 1, 72, 127
2, 16480, Note_on_c, 1, 77, 127
2, 16600, Note_off_c, 1, 53, 0
2, 16600, Note_off_c, 1, 60, 0
2, 16600, Note_off_c, 1, 65, 0
2, 16600, Note_off_c, 1, 69, 0
2, 16600, Note_off_c, 1, 72, 0
2, 16600, Note_off_c, 1, 77, 0
2, 16680, Note_on_c, 1, 53, 127
2, 16680, Note_on_c, 1, 60, 127
2, 16680, Note_on_c, 1, 65, 127
2, 16680, Note_on_c, 1, 69, 127
2, 16680, Note_on_c, 1, 72, 127
2, 16680, Note_on_c, 1, 77, 127
2, 16680, Note_on_c, 1, 81, 127
2, 16800, Note_off_c, 1, 53, 0
2, 16800, Note_off_c, 1, 60, 0
2, 16800, Note_off_c, 1, 65, 0
2, 16800, Note_off_c, 1, 69, 0
2, 16800, Note_off_c, 1, 72, 0
2, 16800, Note_off_c, 1, 77, 0
2, 16800, Note_off_c, 1, 81, 0
2, 16880, Note_on_c, 1, 53, 127
2, 16880, Note_on_c, 1, 60, 127
2, 16880, Note_on_c, 1, 65, 127
2, 16880, Note_on_c, 1, 69, 127
2, 16880, Note_on_c, 1, 72, 127
2, 16880, Note_on_c, 1, 77, 127
2, 16880, Note_on_c, 1, 81, 127
2, 17000, Note_off_c, 1, 53, 0
2, 17000, Note_off_c, 1, 60, 0
2, 17000, Note_off_c, 1, 65, 0
2, 17000, Note_off_c, 1, 69, 0
2, 17000, Note_off_c, 1, 72, 0
2, 17000, Note_off_c, 1, 77, 0
2, 17000, Note_off_c, 1, 81, 0
2, 17080, Note_on_c, 1, 55, 127
2, 17200, Note_off_c, 1, 55, 0
2, 17320, Note_on_c, 1, 55, 127
2, 17440, Note_off_c, 1, 55, 0
2, 17520, Note_on_c, 1, 55, 127
2, 17640, Note_off_c, 1, 55, 0
2, 17720, Note_on_c, 1, 55, 127
2, 17840, Note_off_c, 1, 55, 0
2, 17920, Note_on_c, 1, 55, 127
2, 18040, Note_off_c, 1, 55, 0
2, 18120, Note_on_c, 1, 46, 127
2, 18120, Note_on_c, 1, 62, 127
2, 18120, Note_on_c, 1, 65, 127
2, 18120, Note_on_c, 1, 70, 127
2, 18480, Note_off_c, 1, 46, 0
2, 18480, Note_off_c, 1, 62, 0
2, 18480, Note_off_c, 1, 65, 0
2, 18480, Note_off_c, 1, 70, 0
2, 18520, Note_on_c, 1, 44, 127
2, 18520, Note_on_c, 1, 62, 127
2, 18520, Note_on_c, 1, 65, 127
2, 18520, Note_on_c, 1, 70, 127
2, 18680, Note_off_c, 1, 44, 0
2, 18680, Note_off_c, 1, 62, 0
2, 18680, Note_off_c, 1, 65, 0
2, 18680, Note_off_c, 1, 70, 0
2, 19400, Note_on_c, 1, 30, 127
2, 19400, Note_on_c, 1, 35, 127
2, 19400, Note_on_c, 1, 37, 127
2, 19400, Note_on_c, 1, 72, 127
2, 19440, Note_off_c, 1, 30, 0
2, 19440, Note_off_c, 1, 35, 0
2, 19440, Note_off_c, 1, 37, 0
2, 19440, Note_on_c, 1, 53, 127
2, 19440, Note_on_c, 1, 66, 127
2, 19440, Note_on_c, 1, 69, 127
2, 19440, Note_on_c, 1, 74, 127
2, 19480, Note_off_c, 1, 53, 0
2, 19480, Note_off_c, 1, 66, 0
2, 19480, Note_off_c, 1, 69, 0
2, 19480, Note_off_c, 1, 72, 0
2, 19480, Note_off_c, 1, 74, 0
2, 19600, Note_on_c, 1, 34, 127
2, 19600, Note_on_c, 1, 46, 127
2, 19600, Note_on_c, 1, 58, 127
2, 19600, Note_on_c, 1, 67, 127
2, 19600, Note_on_c, 1, 70, 127
2, 19720, Note_off_c, 1, 34, 0
2, 19720, Note_off_c, 1, 46, 0
2, 19720, Note_off_c, 1, 58, 0
2, 19720, Note_off_c, 1, 67, 0
2, 19720, Note_off_c, 1, 70, 0
2, 19800, Note_on_c, 1, 34, 127
2, 19800, Note_on_c, 1, 46, 127
2, 19800, Note_on_c, 1, 58, 127
2, 19800, Note_on_c, 1, 67, 127
2, 19800, Note_on_c, 1, 70, 127
2, 19960, Note_off_c, 1, 34, 0
2, 19960, Note_off_c, 1, 46, 0
2, 19960, Note_off_c, 1, 58, 0
2, 19960, Note_off_c, 1, 67, 0
2, 19960, Note_off_c, 1, 70, 0
2, 20200, Note_on_c, 1, 34, 127
2, 20200, Note_on_c, 1, 46, 127
2, 20200, Note_on_c, 1, 58, 127
2, 20200, Note_on_c, 1, 67, 127
2, 20200, Note_on_c, 1, 70, 127
2, 20360, Note_off_c, 1, 34, 0
2, 20360, Note_off_c, 1, 46, 0
2, 20360, Note_off_c, 1, 58, 0
2, 20360, Note_off_c, 1, 67, 0
2, 20360, Note_off_c, 1, 70, 0
2, 20400, Note_on_c, 1, 34, 127
2, 20400, Note_on_c, 1, 46, 127
2, 20400, Note_on_c, 1, 58, 127
2, 20400, Note_on_c, 1, 67, 127
2, 20400, Note_on_c, 1, 70, 127
2, 20760, Note_off_c, 1, 34, 0
2, 20760, Note_off_c, 1, 46, 0
2, 20760, Note_off_c, 1, 58, 0
2, 20760, Note_off_c, 1, 67, 0
2, 20760, Note_off_c, 1, 70, 0
2, 20800, Note_on_c, 1, 37, 127
2, 20800, Note_on_c, 1, 49, 127
2, 20800, Note_on_c, 1, 80, 127
2, 20800, Note_on_c, 1, 87, 127
2, 20800, Note_on_c, 1, 92, 127
2, 20960, Note_off_c, 1, 37, 0
2, 20960, Note_off_c, 1, 49, 0
2, 20960, Note_off_c, 1, 80, 0
2, 20960, Note_off_c, 1, 87, 0
2, 20960, Note_off_c, 1, 92, 0
2, 21000, Note_on_c, 1, 46, 127
2, 21000, Note_on_c, 1, 50, 127
2, 21000, Note_on_c, 1, 53, 127
2, 21000, Note_on_c, 1, 65, 127
2, 21000, Note_on_c, 1, 70, 127
2, 21000, Note_on_c, 1, 74, 127
2, 21040, Note_off_c, 1, 46, 0
2, 21040, Note_off_c, 1, 50, 0
2, 21040, Note_off_c, 1, 53, 0
2, 21040, Note_off_c, 1, 65, 0
2, 21040, Note_off_c, 1, 70, 0
2, 21040, Note_off_c, 1, 74, 0
2, 21480, Note_on_c, 1, 29, 127
2, 21480, Note_on_c, 1, 43, 127
2, 21480, Note_on_c, 1, 58, 127
2, 21520, Note_off_c, 1, 29, 0
2, 21520, Note_off_c, 1, 43, 0
2, 21520, Note_off_c, 1, 58, 0
2, 21680, Note_on_c, 1, 65, 127
2, 21760, Note_off_c, 1, 65, 0
2, 21800, Note_on_c, 1, 67, 127
2, 21840, Note_off_c, 1, 67, 0
2, 21880, Note_on_c, 1, 64, 127
2, 21920, Note_off_c, 1, 64, 0
2, 21920, Note_on_c, 1, 65, 127
2, 21960, Note_off_c, 1, 65, 0
2, 22000, Note_on_c, 1, 67, 127
2, 22040, Note_off_c, 1, 67, 0
2, 22080, Note_on_c, 1, 56, 127
2, 22080, Note_on_c, 1, 61, 127
2, 22080, Note_on_c, 1, 67, 127
2, 22880, Note_off_c, 1, 56, 0
2, 22880, Note_off_c, 1, 61, 0
2, 22880, Note_off_c, 1, 67, 0
2, 22920, Note_on_c, 1, 68, 127
2, 23000, Note_off_c, 1, 68, 0
2, 23040, Note_on_c, 1, 65, 127
2, 23080, Note_off_c, 1, 65, 0
2, 23120, Note_on_c, 1, 62, 127
2, 23200, Note_off_c, 1, 62, 0
2, 23240, Note_on_c, 1, 60, 127
2, 23280, Note_off_c, 1, 60, 0
2, 23320, Note_on_c, 1, 58, 127
2, 23520, Note_off_c, 1, 58, 0
2, 23600, Note_on_c, 1, 53, 127
2, 23600, Note_on_c, 1, 58, 127
2, 23600, Note_on_c, 1, 62, 127
2, 23600, Note_on_c, 1, 68, 127
2, 23600, Note_on_c, 1, 70, 127
2, 23960, Note_off_c, 1, 53, 0
2, 23960, Note_off_c, 1, 58, 0
2, 23960, Note_off_c, 1, 62, 0
2, 23960, Note_off_c, 1, 68, 0
2, 23960, Note_off_c, 1, 70, 0
2, 24000, Note_on_c, 1, 53, 127
2, 24240, Note_off_c, 1, 53, 0
2, 24240, Note_on_c, 1, 55, 127
2, 24360, Note_off_c, 1, 55, 0
2, 24400, Note_on_c, 1, 46, 127
2, 24400, Note_on_c, 1, 56, 127
2, 24400, Note_on_c, 1, 62, 127
2, 24400, Note_on_c, 1, 65, 127
2, 24400, Note_on_c, 1, 70, 127
2, 24680, Note_off_c, 1, 56, 0
2, 24800, Note_off_c, 1, 46, 0
2, 24800, Note_on_c, 1, 50, 127
2, 24800, Note_on_c, 1, 53, 127
2, 24800, Note_on_c, 1, 56, 127
2, 24800, Note_on_c, 1, 58, 127
2, 24800, Note_off_c, 1, 62, 0
2, 24800, Note_off_c, 1, 65, 0
2, 24800, Note_off_c, 1, 70, 0
2, 24800, Note_on_c, 1, 79, 127
2, 24840, Note_off_c, 1, 79, 0
2, 25160, Note_off_c, 1, 50, 0
2, 25160, Note_off_c, 1, 53, 0
2, 25160, Note_off_c, 1, 56, 0
2, 25160, Note_off_c, 1, 58, 0
2, 25200, Note_on_c, 1, 55, 127
2, 25360, Note_off_c, 1, 55, 0
2, 25400, Note_on_c, 1, 58, 127
2, 25560, Note_off_c, 1, 58, 0
2, 25600, Note_on_c, 1, 55, 127
2, 25680, Note_off_c, 1, 55, 0
2, 25720, Note_on_c, 1, 55, 127
2, 25800, Note_off_c, 1, 55, 0
2, 25840, Note_on_c, 1, 58, 127
2, 26000, Note_off_c, 1, 58, 0
2, 26040, Note_on_c, 1, 59, 127
2, 26120, Note_on_c, 1, 55, 127
2, 26120, Note_off_c, 1, 59, 0
2, 26160, Note_off_c, 1, 55, 0
2, 26200, Note_on_c, 1, 55, 127
2, 26240, Note_off_c, 1, 55, 0
2, 26280, Note_on_c, 1, 56, 127
2, 26440, Note_off_c, 1, 56, 0
2, 26480, Note_on_c, 1, 50, 127
2, 26640, Note_off_c, 1, 50, 0
2, 26680, Note_on_c, 1, 44, 127
2, 26840, Note_off_c, 1, 44, 0
2, 26880, Note_on_c, 1, 44, 127
2, 27040, Note_off_c, 1, 44, 0
2, 27080, Note_on_c, 1, 50, 127
2, 27240, Note_off_c, 1, 50, 0
2, 27280, Note_on_c, 1, 56, 127
2, 27640, Note_off_c, 1, 56, 0
2, 27680, Note_on_c, 1, 50, 127
2, 27880, Note_on_c, 1, 49, 127
2, 27960, Note_off_c, 1, 49, 0
2, 28040, Note_off_c, 1, 50, 0
2, 28120, Note_on_c, 1, 48, 127
2, 28280, Note_off_c, 1, 48, 0
2, 28320, Note_on_c, 1, 50, 127
2, 28480, Note_off_c, 1, 50, 0
2, 28520, Note_on_c, 1, 53, 127
2, 28680, Note_off_c, 1, 53, 0
2, 28720, Note_on_c, 1, 58, 127
2, 28880, Note_off_c, 1, 58, 0
2, 28920, Note_on_c, 1, 60, 127
2, 29080, Note_off_c, 1, 60, 0
2, 29120, Note_on_c, 1, 57, 127
2, 29280, Note_off_c, 1, 57, 0
2, 29320, Note_on_c, 1, 53, 127
2, 29480, Note_off_c, 1, 53, 0
2, 29520, Note_on_c, 1, 57, 127
2, 29680, Note_off_c, 1, 57, 0
2, 29720, Note_on_c, 1, 53, 127
2, 29880, Note_off_c, 1, 53, 0
2, 29920, Note_on_c, 1, 50, 127
2, 30080, Note_off_c, 1, 50, 0
2, 30160, Note_on_c, 1, 45, 127
2, 30320, Note_off_c, 1, 45, 0
2, 30360, Note_on_c, 1, 46, 127
2, 30520, Note_off_c, 1, 46, 0
2, 30560, Note_on_c, 1, 45, 127
2, 30720, Note_off_c, 1, 45, 0
2, 30760, Note_on_c, 1, 53, 127
2, 30920, Note_off_c, 1, 53, 0
2, 30960, Note_on_c, 1, 50, 127
2, 31120, Note_off_c, 1, 50, 0
2, 31160, Note_on_c, 1, 47, 127
2, 31320, Note_off_c, 1, 47, 0
2, 31360, Note_on_c, 1, 50, 127
2, 31520, Note_off_c, 1, 50, 0
2, 31560, Note_on_c, 1, 48, 127
2, 31720, Note_off_c, 1, 48, 0
2, 31760, Note_on_c, 1, 53, 127
2, 31920, Note_off_c, 1, 53, 0
2, 31960, Note_on_c, 1, 57, 127
2, 32160, Note_off_c, 1, 57, 0
2, 32200, Note_on_c, 1, 57, 127
2, 32360, Note_off_c, 1, 57, 0
2, 32400, Note_on_c, 1, 62, 127
2, 32560, Note_off_c, 1, 62, 0
2, 32600, Note_on_c, 1, 62, 127
2, 32760, Note_off_c, 1, 62, 0
2, 32800, Note_on_c, 1, 65, 127
2, 32880, Note_off_c, 1, 65, 0
2, 32880, Note_on_c, 1, 66, 127
2, 32920, Note_on_c, 1, 65, 127
2, 32920, Note_off_c, 1, 66, 0
2, 33000, Note_off_c, 1, 65, 0
2, 33000, Note_on_c, 1, 66, 127
2, 33360, Note_off_c, 1, 66, 0
2, 33400, Note_on_c, 1, 60, 127
2, 33560, Note_off_c, 1, 60, 0
2, 33600, Note_on_c, 1, 57, 127
2, 33760, Note_off_c, 1, 57, 0
2, 33800, Note_on_c, 1, 55, 127
2, 33960, Note_off_c, 1, 55, 0
2, 34000, Note_on_c, 1, 54, 127
2, 34160, Note_off_c, 1, 54, 0
2, 34240, Note_on_c, 1, 55, 127
2, 34400, Note_off_c, 1, 55, 0
2, 34440, Note_on_c, 1, 50, 127
2, 34600, Note_off_c, 1, 50, 0
2, 34640, Note_on_c, 1, 53, 127
2, 34800, Note_off_c, 1, 53, 0
2, 34840, Note_on_c, 1, 54, 127
2, 35000, Note_off_c, 1, 54, 0
2, 35040, Note_on_c, 1, 47, 127
2, 35200, Note_off_c, 1, 47, 0
2, 35240, Note_on_c, 1, 50, 127
2, 35400, Note_off_c, 1, 50, 0
2, 35440, Note_on_c, 1, 51, 127
2, 35600, Note_off_c, 1, 51, 0
2, 35640, Note_on_c, 1, 59, 127
2, 35800, Note_off_c, 1, 59, 0
2, 35840, Note_on_c, 1, 58, 127
2, 36000, Note_off_c, 1, 58, 0
2, 36040, Note_on_c, 1, 45, 127
2, 36240, Note_off_c, 1, 45, 0
2, 36280, Note_on_c, 1, 45, 127
2, 36440, Note_off_c, 1, 45, 0
2, 36480, Note_on_c, 1, 46, 127
2, 36640, Note_off_c, 1, 46, 0
2, 36680, Note_on_c, 1, 48, 127
2, 36800, Note_on_c, 1, 47, 127
2, 36800, Note_off_c, 1, 48, 0
2, 36840, Note_off_c, 1, 47, 0
2, 36880, Note_on_c, 1, 51, 127
2, 37040, Note_off_c, 1, 51, 0
2, 37080, Note_on_c, 1, 57, 127
2, 37240, Note_off_c, 1, 57, 0
2, 37280, Note_on_c, 1, 62, 127
2, 37440, Note_off_c, 1, 62, 0
2, 37480, Note_on_c, 1, 63, 127
2, 37680, Note_on_c, 1, 62, 127
2, 37680, Note_off_c, 1, 63, 0
2, 37840, Note_off_c, 1, 62, 0
2, 37880, Note_on_c, 1, 63, 127
2, 38040, Note_off_c, 1, 63, 0
2, 38080, Note_on_c, 1, 54, 127
2, 38080, Note_on_c, 1, 66, 127
2, 38240, Note_off_c, 1, 66, 0
2, 38280, Note_on_c, 1, 72, 127
2, 38440, Note_off_c, 1, 54, 0
2, 38440, Note_off_c, 1, 72, 0
2, 38520, Note_on_c, 1, 55, 127
2, 38680, Note_off_c, 1, 55, 0
2, 38720, Note_on_c, 1, 60, 127
2, 38880, Note_off_c, 1, 60, 0
2, 38920, Note_on_c, 1, 69, 127
2, 39080, Note_off_c, 1, 69, 0
2, 39120, Note_on_c, 1, 62, 127
2, 39280, Note_off_c, 1, 62, 0
2, 39320, Note_on_c, 1, 71, 127
2, 39480, Note_off_c, 1, 71, 0
2, 39520, Note_on_c, 1, 74, 127
2, 39880, Note_off_c, 1, 74, 0
2, 39920, Note_on_c, 1, 75, 127
2, 40080, Note_off_c, 1, 75, 0
2, 40120, Note_on_c, 1, 74, 127
2, 40280, Note_off_c, 1, 74, 0
2, 40320, Note_on_c, 1, 75, 127
2, 40480, Note_off_c, 1, 75, 0
2, 40520, Note_on_c, 1, 76, 127
2, 40600, Note_off_c, 1, 76, 0
2, 40640, Note_on_c, 1, 76, 127
2, 40720, Note_off_c, 1, 76, 0
2, 40760, Note_on_c, 1, 62, 127
2, 40760, Note_on_c, 1, 74, 127
2, 40920, Note_off_c, 1, 62, 0
2, 40920, Note_off_c, 1, 74, 0
2, 40960, Note_on_c, 1, 64, 127
2, 40960, Note_on_c, 1, 71, 127
2, 41120, Note_off_c, 1, 64, 0
2, 41120, Note_off_c, 1, 71, 0
2, 41160, Note_on_c, 1, 74, 127
2, 41360, Note_on_c, 1, 69, 127
2, 41520, Note_off_c, 1, 69, 0
2, 41560, Note_on_c, 1, 65, 127
2, 41720, Note_off_c, 1, 65, 0
2, 41720, Note_off_c, 1, 74, 0
2, 41760, Note_on_c, 1, 71, 127
2, 41760, Note_on_c, 1, 74, 127
2, 41920, Note_off_c, 1, 71, 0
2, 41960, Note_on_c, 1, 62, 127
2, 42120, Note_off_c, 1, 62, 0
2, 42160, Note_on_c, 1, 67, 127
2, 42320, Note_off_c, 1, 67, 0
2, 42360, Note_on_c, 1, 71, 127
2, 42520, Note_off_c, 1, 71, 0
2, 42560, Note_on_c, 1, 62, 127
2, 42600, Note_off_c, 1, 62, 0
2, 42600, Note_off_c, 1, 74, 0
2, 42640, Note_on_c, 1, 62, 127
2, 42640, Note_on_c, 1, 74, 127
2, 42760, Note_off_c, 1, 62, 0
2, 42760, Note_off_c, 1, 74, 0
2, 42800, Note_on_c, 1, 67, 127
2, 43000, Note_on_c, 1, 71, 127
2, 43160, Note_off_c, 1, 71, 0
2, 43200, Note_on_c, 1, 76, 127
2, 43320, Note_off_c, 1, 76, 0
2, 43400, Note_on_c, 1, 71, 127
2, 43560, Note_off_c, 1, 71, 0
2, 43600, Note_on_c, 1, 74, 127
2, 43760, Note_off_c, 1, 74, 0
2, 43800, Note_on_c, 1, 76, 127
2, 43960, Note_off_c, 1, 76, 0
2, 44000, Note_on_c, 1, 79, 127
2, 44160, Note_off_c, 1, 67, 0
2, 44160, Note_off_c, 1, 79, 0
2, 44200, Note_on_c, 1, 65, 127
2, 44200, Note_on_c, 1, 73, 127
2, 44360, Note_off_c, 1, 65, 0
2, 44400, Note_on_c, 1, 68, 127
2, 44560, Note_off_c, 1, 68, 0
2, 44600, Note_on_c, 1, 67, 127
2, 44800, Note_off_c, 1, 67, 0
2, 44800, Note_off_c, 1, 73, 0
2, 44880, Note_on_c, 1, 67, 127
2, 44880, Note_on_c, 1, 74, 127
2, 45040, Note_off_c, 1, 74, 0
2, 45080, Note_on_c, 1, 73, 127
2, 45240, Note_off_c, 1, 67, 0
2, 45240, Note_off_c, 1, 73, 0
2, 45280, Note_on_c, 1, 66, 127
2, 45640, Note_off_c, 1, 66, 0
2, 45680, Note_on_c, 1, 62, 127
2, 45680, Note_on_c, 1, 69, 127
2, 45840, Note_off_c, 1, 69, 0
2, 45880, Note_on_c, 1, 67, 127
2, 46040, Note_off_c, 1, 62, 0
2, 46040, Note_off_c, 1, 67, 0
2, 46080, Note_on_c, 1, 57, 127
2, 46080, Note_on_c, 1, 66, 127
2, 46440, Note_off_c, 1, 57, 0
2, 46680, Note_off_c, 1, 66, 0
2, 46680, Note_on_c, 1, 67, 127
2, 46800, Note_off_c, 1, 67, 0
2, 46840, Note_on_c, 1, 67, 127
2, 46880, Note_off_c, 1, 67, 0
2, 46920, Note_on_c, 1, 65, 127
2, 47080, Note_off_c, 1, 65, 0
2, 47120, Note_on_c, 1, 67, 127
2, 47280, Note_off_c, 1, 67, 0
2, 47320, Note_on_c, 1, 64, 127
2, 47320, Note_on_c, 1, 67, 127
2, 47480, Note_off_c, 1, 67, 0
2, 47520, Note_on_c, 1, 70, 127
2, 47680, Note_off_c, 1, 70, 0
2, 47720, Note_on_c, 1, 70, 127
2, 47880, Note_off_c, 1, 70, 0
2, 47920, Note_on_c, 1, 71, 127
2, 48080, Note_off_c, 1, 71, 0
2, 48120, Note_on_c, 1, 71, 127
2, 48280, Note_off_c, 1, 71, 0
2, 48320, Note_on_c, 1, 67, 127
2, 48480, Note_off_c, 1, 64, 0
2, 48480, Note_off_c, 1, 67, 0
2, 48520, Note_on_c, 1, 66, 127
2, 48720, Note_off_c, 1, 66, 0
2, 48720, Note_on_c, 1, 67, 127
2, 48880, Note_off_c, 1, 67, 0
2, 48960, Note_on_c, 1, 64, 127
2, 48960, Note_on_c, 1, 79, 127
2, 49120, Note_off_c, 1, 79, 0
2, 49160, Note_on_c, 1, 69, 127
2, 49320, Note_off_c, 1, 64, 0
2, 49320, Note_off_c, 1, 69, 0
2, 49360, Note_on_c, 1, 74, 127
2, 49520, Note_off_c, 1, 74, 0
2, 49560, Note_on_c, 1, 71, 127
2, 49720, Note_off_c, 1, 71, 0
2, 49760, Note_on_c, 1, 79, 127
2, 49920, Note_off_c, 1, 79, 0
2, 49960, Note_on_c, 1, 68, 127
2, 50120, Note_off_c, 1, 68, 0
2, 50160, Note_on_c, 1, 64, 127
2, 50160, Note_on_c, 1, 79, 127
2, 50320, Note_off_c, 1, 64, 0
2, 50320, Note_off_c, 1, 79, 0
2, 50360, Note_on_c, 1, 65, 127
2, 50560, Note_on_c, 1, 83, 127
2, 50720, Note_off_c, 1, 83, 0
2, 50760, Note_on_c, 1, 83, 127
2, 50920, Note_off_c, 1, 65, 0
2, 50920, Note_off_c, 1, 83, 0
2, 51000, Note_on_c, 1, 68, 127
2, 51000, Note_on_c, 1, 83, 127
2, 51160, Note_off_c, 1, 68, 0
2, 51160, Note_off_c, 1, 83, 0
2, 51200, Note_on_c, 1, 83, 127
2, 51360, Note_off_c, 1, 83, 0
2, 51400, Note_on_c, 1, 68, 127
2, 51400, Note_on_c, 1, 79, 127
2, 51560, Note_off_c, 1, 68, 0
2, 51560, Note_off_c, 1, 79, 0
2, 51600, Note_on_c, 1, 77, 127
2, 51760, Note_off_c, 1, 77, 0
2, 51800, Note_on_c, 1, 60, 127
2, 51800, Note_on_c, 1, 78, 127
2, 51960, Note_off_c, 1, 60, 0
2, 51960, Note_off_c, 1, 78, 0
2, 52000, Note_on_c, 1, 65, 127
2, 52160, Note_off_c, 1, 65, 0
2, 52200, Note_on_c, 1, 71, 127
2, 52200, Note_on_c, 1, 74, 127
2, 52360, Note_off_c, 1, 71, 0
2, 52360, Note_off_c, 1, 74, 0
2, 52400, Note_on_c, 1, 64, 127
2, 52560, Note_off_c, 1, 64, 0
2, 52600, Note_on_c, 1, 67, 127
2, 52760, Note_off_c, 1, 67, 0
2, 52800, Note_on_c, 1, 64, 127
2, 52960, Note_off_c, 1, 64, 0
2, 53040, Note_on_c, 1, 67, 127
2, 53200, Note_off_c, 1, 67, 0
2, 53240, Note_on_c, 1, 65, 127
2, 53400, Note_off_c, 1, 65, 0
2, 53440, Note_on_c, 1, 67, 127
2, 53600, Note_off_c, 1, 67, 0
2, 53640, Note_on_c, 1, 63, 127
2, 53800, Note_off_c, 1, 63, 0
2, 53840, Note_on_c, 1, 67, 127
2, 54000, Note_off_c, 1, 67, 0
2, 54040, Note_on_c, 1, 56, 127
2, 54200, Note_off_c, 1, 56, 0
2, 54240, Note_on_c, 1, 57, 127
2, 54400, Note_off_c, 1, 57, 0
2, 54440, Note_on_c, 1, 60, 127
2, 54600, Note_off_c, 1, 60, 0
2, 54640, Note_on_c, 1, 64, 127
2, 54800, Note_off_c, 1, 64, 0
2, 54840, Note_on_c, 1, 74, 127
2, 55000, Note_off_c, 1, 74, 0
2, 55040, Note_on_c, 1, 79, 127
2, 55200, Note_off_c, 1, 79, 0
2, 55280, Note_on_c, 1, 76, 127
2, 55440, Note_off_c, 1, 76, 0
2, 55480, Note_on_c, 1, 77, 127
2, 55640, Note_off_c, 1, 77, 0
2, 55680, Note_on_c, 1, 76, 127
2, 55840, Note_off_c, 1, 76, 0
2, 55880, Note_on_c, 1, 38, 127
2, 55880, Note_on_c, 1, 74, 127
2, 56080, Note_off_c, 1, 38, 0
2, 56080, Note_on_c, 1, 41, 127
2, 56080, Note_on_c, 1, 69, 127
2, 56240, Note_off_c, 1, 41, 0
2, 56240, Note_off_c, 1, 69, 0
2, 56280, Note_on_c, 1, 62, 127
2, 56440, Note_off_c, 1, 62, 0
2, 56480, Note_on_c, 1, 67, 127
2, 56640, Note_off_c, 1, 67, 0
2, 56680, Note_on_c, 1, 57, 127
2, 56680, Note_off_c, 1, 74, 0
2, 56680, Note_on_c, 1, 76, 127
2, 56840, Note_off_c, 1, 57, 0
2, 56840, Note_off_c, 1, 76, 0
2, 56880, Note_on_c, 1, 77, 127
2, 57080, Note_on_c, 1, 57, 127
2, 57240, Note_off_c, 1, 57, 0
2, 57280, Note_on_c, 1, 62, 127
2, 57360, Note_off_c, 1, 62, 0
2, 57360, Note_off_c, 1, 77, 0
2, 57400, Note_on_c, 1, 62, 127
2, 57400, Note_on_c, 1, 77, 127
2, 57480, Note_off_c, 1, 62, 0
2, 57480, Note_off_c, 1, 77, 0
2, 57520, Note_on_c, 1, 67, 127
2, 57520, Note_on_c, 1, 81, 127
2, 57680, Note_off_c, 1, 67, 0
2, 57720, Note_on_c, 1, 72, 127
2, 57880, Note_off_c, 1, 72, 0
2, 57880, Note_off_c, 1, 81, 0
2, 57920, Note_on_c, 1, 82, 127
2, 58120, Note_on_c, 1, 53, 127
2, 58280, Note_off_c, 1, 53, 0
2, 58320, Note_on_c, 1, 58, 127
2, 58480, Note_off_c, 1, 58, 0
2, 58480, Note_off_c, 1, 82, 0
2, 58520, Note_on_c, 1, 50, 127
2, 58520, Note_on_c, 1, 79, 127
2, 58680, Note_off_c, 1, 50, 0
2, 58680, Note_off_c, 1, 79, 0
2, 58720, Note_on_c, 1, 53, 127
2, 58720, Note_on_c, 1, 77, 127
2, 58880, Note_off_c, 1, 53, 0
2, 58880, Note_off_c, 1, 77, 0
2, 58920, Note_on_c, 1, 57, 127
2, 59080, Note_off_c, 1, 57, 0
2, 59120, Note_on_c, 1, 78, 127
2, 59280, Note_off_c, 1, 78, 0
2, 59320, Note_on_c, 1, 84, 127
2, 59480, Note_off_c, 1, 84, 0
2, 59560, Note_on_c, 1, 84, 127
2, 59720, Note_off_c, 1, 84, 0
2, 59760, Note_on_c, 1, 63, 127
2, 59920, Note_off_c, 1, 63, 0
2, 59960, Note_on_c, 1, 75, 127
2, 60160, Note_on_c, 1, 57, 127
2, 60320, Note_off_c, 1, 57, 0
2, 60360, Note_on_c, 1, 60, 127
2, 60520, Note_off_c, 1, 60, 0
2, 60560, Note_on_c, 1, 53, 127
2, 60720, Note_off_c, 1, 53, 0
2, 60760, Note_on_c, 1, 57, 127
2, 60920, Note_off_c, 1, 57, 0
2, 60960, Note_on_c, 1, 67, 127
2, 61120, Note_off_c, 1, 67, 0
2, 61120, Note_off_c, 1, 75, 0
2, 61160, Note_on_c, 1, 50, 127
2, 61320, Note_off_c, 1, 50, 0
2, 61360, Note_on_c, 1, 63, 127
2, 61520, Note_off_c, 1, 63, 0
2, 61560, Note_on_c, 1, 69, 127
2, 61720, Note_off_c, 1, 69, 0
2, 61800, Note_on_c, 1, 79, 127
2, 61960, Note_off_c, 1, 79, 0
2, 62000, Note_on_c, 1, 81, 127
2, 62160, Note_off_c, 1, 81, 0
2, 62200, Note_on_c, 1, 43, 127
2, 62200, Note_on_c, 1, 76, 127
2, 62360, Note_off_c, 1, 76, 0
2, 62400, Note_on_c, 1, 67, 127
2, 62560, Note_off_c, 1, 43, 0
2, 62560, Note_off_c, 1, 67, 0
2, 62600, Note_on_c, 1, 67, 127
2, 62760, Note_off_c, 1, 67, 0
2, 62800, Note_on_c, 1, 60, 127
2, 62960, Note_off_c, 1, 60, 0
2, 63000, Note_on_c, 1, 54, 127
2, 63160, Note_off_c, 1, 54, 0
2, 63200, Note_on_c, 1, 62, 127
2, 63360, Note_off_c, 1, 62, 0
2, 63400, Note_on_c, 1, 74, 127
2, 63560, Note_off_c, 1, 74, 0
2, 63600, Note_on_c, 1, 75, 127
2, 63760, Note_off_c, 1, 75, 0
2, 63840, Note_on_c, 1, 74, 127
2, 64000, Note_off_c, 1, 74, 0
2, 64040, Note_on_c, 1, 60, 127
2, 64200, Note_off_c, 1, 60, 0
2, 64240, Note_on_c, 1, 63, 127
2, 64400, Note_off_c, 1, 63, 0
2, 64440, Note_on_c, 1, 64, 127
2, 64600, Note_off_c, 1, 64, 0
2, 64640, Note_on_c, 1, 71, 127
2, 64800, Note_off_c, 1, 71, 0
2, 64840, Note_on_c, 1, 74, 127
2, 65000, Note_off_c, 1, 74, 0
2, 65040, Note_on_c, 1, 60, 127
2, 65200, Note_off_c, 1, 60, 0
2, 65240, Note_on_c, 1, 68, 127
2, 65400, Note_off_c, 1, 68, 0
2, 65440, Note_on_c, 1, 82, 127
2, 65600, Note_off_c, 1, 82, 0
2, 65640, Note_on_c, 1, 84, 127
2, 65800, Note_off_c, 1, 84, 0
2, 65880, Note_on_c, 1, 80, 127
2, 66040, Note_off_c, 1, 80, 0
2, 66080, Note_on_c, 1, 79, 127
2, 66280, Note_off_c, 1, 79, 0
2, 66320, Note_on_c, 1, 80, 127
2, 66480, Note_off_c, 1, 80, 0
2, 66520, Note_on_c, 1, 72, 127
2, 66680, Note_off_c, 1, 72, 0
2, 66720, Note_on_c, 1, 80, 127
2, 66880, Note_off_c, 1, 80, 0
2, 66920, Note_on_c, 1, 79, 127
2, 67080, Note_off_c, 1, 79, 0
2, 67120, Note_on_c, 1, 65, 127
2, 67120, Note_on_c, 1, 69, 127
2, 67280, Note_off_c, 1, 65, 0
2, 67280, Note_off_c, 1, 69, 0
2, 67320, Note_on_c, 1, 69, 127
2, 67480, Note_off_c, 1, 69, 0
2, 67520, Note_on_c, 1, 72, 127
2, 67680, Note_off_c, 1, 72, 0
2, 67720, Note_on_c, 1, 82, 127
2, 67880, Note_off_c, 1, 82, 0
2, 67960, Note_on_c, 1, 72, 127
2, 68120, Note_off_c, 1, 72, 0
2, 68160, Note_on_c, 1, 82, 127
2, 68320, Note_off_c, 1, 82, 0
2, 68360, Note_on_c, 1, 74, 127
2, 68560, Note_on_c, 1, 70, 127
2, 68560, Note_off_c, 1, 74, 0
2, 68720, Note_off_c, 1, 70, 0
2, 68760, Note_on_c, 1, 82, 127
2, 68920, Note_off_c, 1, 82, 0
2, 68960, Note_on_c, 1, 72, 127
2, 69120, Note_off_c, 1, 72, 0
2, 69160, Note_on_c, 1, 82, 127
2, 69320, Note_off_c, 1, 82, 0
2, 69360, Note_on_c, 1, 72, 127
2, 69560, Note_on_c, 1, 66, 127
2, 69720, Note_off_c, 1, 66, 0
2, 69760, Note_on_c, 1, 87, 127
2, 69920, Note_off_c, 1, 72, 0
2, 69920, Note_off_c, 1, 87, 0
2, 70000, Note_on_c, 1, 69, 127
2, 70200, Note_off_c, 1, 69, 0
2, 70240, Note_on_c, 1, 70, 127
2, 70400, Note_on_c, 1, 68, 127
2, 70400, Note_off_c, 1, 70, 0
2, 70600, Note_off_c, 1, 68, 0
2, 70640, Note_on_c, 1, 64, 127
2, 70800, Note_off_c, 1, 64, 0
2, 70840, Note_on_c, 1, 67, 127
2, 71000, Note_off_c, 1, 67, 0
2, 71040, Note_on_c, 1, 63, 127
2, 71200, Note_off_c, 1, 63, 0
2, 71240, Note_on_c, 1, 75, 127
2, 71400, Note_off_c, 1, 75, 0
2, 71440, Note_on_c, 1, 79, 127
2, 71440, Note_on_c, 1, 85, 127
2, 71600, Note_off_c, 1, 79, 0
2, 71600, Note_off_c, 1, 85, 0
2, 71640, Note_on_c, 1, 63, 127
2, 71800, Note_off_c, 1, 63, 0
2, 71840, Note_on_c, 1, 72, 127
2, 72000, Note_off_c, 1, 72, 0
2, 72080, Note_on_c, 1, 63, 127
2, 72240, Note_off_c, 1, 63, 0
2, 72280, Note_on_c, 1, 74, 127
2, 72440, Note_off_c, 1, 74, 0
2, 72480, Note_on_c, 1, 63, 127
2, 72640, Note_off_c, 1, 63, 0
2, 72680, Note_on_c, 1, 62, 127
2, 72680, Note_on_c, 1, 74, 127
2, 72840, Note_off_c, 1, 62, 0
2, 72880, Note_on_c, 1, 58, 127
2, 73040, Note_off_c, 1, 58, 0
2, 73040, Note_off_c, 1, 74, 0
2, 73080, Note_on_c, 1, 60, 127
2, 73080, Note_on_c, 1, 87, 127
2, 73240, Note_off_c, 1, 60, 0
2, 73240, Note_off_c, 1, 87, 0
2, 73280, Note_on_c, 1, 63, 127
2, 73440, Note_off_c, 1, 63, 0
2, 73480, Note_on_c, 1, 63, 127
2, 73480, Note_on_c, 1, 81, 127
2, 73640, Note_off_c, 1, 63, 0
2, 73680, Note_on_c, 1, 63, 127
2, 73840, Note_off_c, 1, 63, 0
2, 73840, Note_off_c, 1, 81, 0
2, 73880, Note_on_c, 1, 60, 127
2, 74040, Note_off_c, 1, 60, 0
2, 74080, Note_on_c, 1, 65, 127
2, 74160, Note_off_c, 1, 65, 0
2, 74200, Note_on_c, 1, 65, 127
2, 74280, Note_off_c, 1, 65, 0
2, 74320, Note_on_c, 1, 63, 127
2, 74320, Note_on_c, 1, 69, 127
2, 74480, Note_off_c, 1, 63, 0
2, 74480, Note_off_c, 1, 69, 0
2, 74520, Note_on_c, 1, 62, 127
2, 74680, Note_off_c, 1, 62, 0
2, 74720, Note_on_c, 1, 55, 127
2, 74720, Note_on_c, 1, 58, 127
2, 74720, Note_on_c, 1, 62, 127
2, 74720, Note_on_c, 1, 67, 127
2, 74720, Note_on_c, 1, 70, 127
2, 74880, Note_off_c, 1, 55, 0
2, 74880, Note_off_c, 1, 58, 0
2, 74880, Note_off_c, 1, 62, 0
2, 74880, Note_off_c, 1, 67, 0
2, 74880, Note_off_c, 1, 70, 0
2, 74920, Note_on_c, 1, 72, 127
2, 75080, Note_off_c, 1, 72, 0
2, 75120, Note_on_c, 1, 55, 127
2, 75120, Note_on_c, 1, 70, 127
2, 75280, Note_off_c, 1, 55, 0
2, 75280, Note_off_c, 1, 70, 0
2, 75320, Note_on_c, 1, 60, 127
2, 75480, Note_off_c, 1, 60, 0
2, 75520, Note_on_c, 1, 47, 127
2, 75520, Note_on_c, 1, 63, 127
2, 75520, Note_on_c, 1, 72, 127
2, 75640, Note_off_c, 1, 72, 0
2, 75680, Note_off_c, 1, 47, 0
2, 75680, Note_off_c, 1, 63, 0
2, 75680, Note_on_c, 1, 68, 127
2, 75920, Note_on_c, 1, 51, 127
2, 75920, Note_on_c, 1, 63, 127
2, 76080, Note_off_c, 1, 51, 0
2, 76080, Note_off_c, 1, 63, 0
2, 76120, Note_off_c, 1, 68, 0
2, 76160, Note_on_c, 1, 56, 127
2, 76160, Note_on_c, 1, 68, 127
2, 76320, Note_off_c, 1, 56, 0
2, 76360, Note_on_c, 1, 51, 127
2, 76520, Note_off_c, 1, 51, 0
2, 76520, Note_off_c, 1, 68, 0
2, 76560, Note_on_c, 1, 60, 127
2, 76720, Note_off_c, 1, 60, 0
2, 76760, Note_on_c, 1, 52, 127
2, 76760, Note_on_c, 1, 72, 127
2, 76920, Note_off_c, 1, 52, 0
2, 76960, Note_on_c, 1, 56, 127
2, 77120, Note_off_c, 1, 56, 0
2, 77120, Note_off_c, 1, 72, 0
2, 77160, Note_on_c, 1, 68, 127
2, 77320, Note_off_c, 1, 68, 0
2, 77360, Note_on_c, 1, 57, 127
2, 77520, Note_off_c, 1, 57, 0
2, 77560, Note_on_c, 1, 60, 127
2, 77720, Note_off_c, 1, 60, 0
2, 77760, Note_on_c, 1, 63, 127
2, 77920, Note_off_c, 1, 63, 0
2, 77960, Note_on_c, 1, 52, 127
2, 77960, Note_on_c, 1, 65, 127
2, 78120, Note_off_c, 1, 52, 0
2, 78120, Note_off_c, 1, 65, 0
2, 78200, Note_on_c, 1, 53, 127
2, 78200, Note_on_c, 1, 65, 127
2, 78360, Note_off_c, 1, 53, 0
2, 78360, Note_off_c, 1, 65, 0
2, 78400, Note_on_c, 1, 46, 127
2, 78400, Note_on_c, 1, 67, 127
2, 78560, Note_off_c, 1, 46, 0
2, 78560, Note_off_c, 1, 67, 0
2, 78600, Note_on_c, 1, 70, 127
2, 78760, Note_off_c, 1, 70, 0
2, 78800, Note_on_c, 1, 48, 127
2, 78800, Note_on_c, 1, 69, 127
2, 78960, Note_off_c, 1, 48, 0
2, 79000, Note_on_c, 1, 55, 127
2, 79160, Note_off_c, 1, 55, 0
2, 79200, Note_on_c, 1, 60, 127
2, 79360, Note_off_c, 1, 60, 0
2, 79400, Note_on_c, 1, 63, 127
2, 79560, Note_off_c, 1, 63, 0
2, 79600, Note_on_c, 1, 75, 127
2, 79760, Note_off_c, 1, 69, 0
2, 79760, Note_off_c, 1, 75, 0
2, 79800, Note_on_c, 1, 71, 127
2, 79960, Note_off_c, 1, 71, 0
2, 80000, Note_on_c, 1, 49, 127
2, 80000, Note_on_c, 1, 76, 127
2, 80160, Note_off_c, 1, 49, 0
2, 80160, Note_off_c, 1, 76, 0
2, 80240, Note_on_c, 1, 64, 127
2, 80400, Note_off_c, 1, 64, 0
2, 80440, Note_on_c, 1, 60, 127
2, 80440, Note_on_c, 1, 70, 127
2, 80600, Note_off_c, 1, 60, 0
2, 80600, Note_off_c, 1, 70, 0
2, 80640, Note_on_c, 1, 70, 127
2, 80800, Note_off_c, 1, 70, 0
2, 80840, Note_on_c, 1, 60, 127
2, 81000, Note_off_c, 1, 60, 0
2, 81040, Note_on_c, 1, 69, 127
2, 81200, Note_off_c, 1, 69, 0
2, 81240, Note_on_c, 1, 55, 127
2, 81240, Note_on_c, 1, 70, 127
2, 81400, Note_off_c, 1, 55, 0
2, 81400, Note_off_c, 1, 70, 0
2, 81440, Note_on_c, 1, 67, 127
2, 81600, Note_off_c, 1, 67, 0
2, 81640, Note_on_c, 1, 57, 127
2, 81640, Note_on_c, 1, 68, 127
2, 81800, Note_off_c, 1, 57, 0
2, 81800, Note_off_c, 1, 68, 0
2, 81840, Note_on_c, 1, 70, 127
2, 82000, Note_off_c, 1, 70, 0
2, 82040, Note_on_c, 1, 53, 127
2, 82040, Note_on_c, 1, 69, 127
2, 82200, Note_off_c, 1, 53, 0
2, 82200, Note_off_c, 1, 69, 0
2, 82280, Note_on_c, 1, 72, 127
2, 82440, Note_off_c, 1, 72, 0
2, 82480, Note_on_c, 1, 52, 127
2, 82480, Note_on_c, 1, 70, 127
2, 82640, Note_off_c, 1, 52, 0
2, 82640, Note_off_c, 1, 70, 0
2, 82680, Note_on_c, 1, 67, 127
2, 82840, Note_off_c, 1, 67, 0
2, 82880, Note_on_c, 1, 53, 127
2, 82880, Note_on_c, 1, 69, 127
2, 83040, Note_off_c, 1, 53, 0
2, 83040, Note_off_c, 1, 69, 0
2, 83080, Note_on_c, 1, 69, 127
2, 83240, Note_off_c, 1, 69, 0
2, 83280, Note_on_c, 1, 55, 127
2, 83280, Note_on_c, 1, 64, 127
2, 83280, Note_on_c, 1, 70, 127
2, 83440, Note_off_c, 1, 55, 0
2, 83440, Note_off_c, 1, 64, 0
2, 83440, Note_off_c, 1, 70, 0
2, 83480, Note_on_c, 1, 72, 127
2, 83640, Note_off_c, 1, 72, 0
2, 83680, Note_on_c, 1, 53, 127
2, 83680, Note_on_c, 1, 69, 127
2, 83840, Note_off_c, 1, 53, 0
2, 83880, Note_on_c, 1, 57, 127
2, 84040, Note_off_c, 1, 57, 0
2, 84040, Note_off_c, 1, 69, 0
2, 84080, Note_on_c, 1, 60, 127
2, 84080, Note_on_c, 1, 77, 127
2, 84240, Note_off_c, 1, 60, 0
2, 84240, Note_off_c, 1, 77, 0
2, 84320, Note_on_c, 1, 55, 127
2, 84320, Note_on_c, 1, 70, 127
2, 84480, Note_off_c, 1, 55, 0
2, 84520, Note_on_c, 1, 58, 127
2, 84680, Note_off_c, 1, 58, 0
2, 84680, Note_off_c, 1, 70, 0
2, 84720, Note_on_c, 1, 64, 127
2, 84880, Note_off_c, 1, 64, 0
2, 84920, Note_on_c, 1, 53, 127
2, 84920, Note_on_c, 1, 72, 127
2, 85080, Note_off_c, 1, 53, 0
2, 85120, Note_on_c, 1, 55, 127
2, 85280, Note_off_c, 1, 55, 0
2, 85280, Note_off_c, 1, 72, 0
2, 85320, Note_on_c, 1, 54, 127
2, 85320, Note_on_c, 1, 69, 127
2, 85480, Note_off_c, 1, 54, 0
2, 85480, Note_off_c, 1, 69, 0
2, 85480, Note_on_c, 1, 70, 127
2, 85520, Note_on_c, 1, 60, 127
2, 85680, Note_off_c, 1, 60, 0
2, 85680, Note_off_c, 1, 70, 0
2, 85720, Note_on_c, 1, 64, 127
2, 85720, Note_on_c, 1, 69, 127
2, 85880, Note_off_c, 1, 64, 0
2, 85920, Note_on_c, 1, 57, 127
2, 86080, Note_off_c, 1, 57, 0
2, 86120, Note_on_c, 1, 65, 127
2, 86280, Note_off_c, 1, 65, 0
2, 86280, Note_off_c, 1, 69, 0
2, 86360, Note_on_c, 1, 58, 127
2, 86720, Note_off_c, 1, 58, 0
2, 86760, Note_on_c, 1, 61, 127
2, 86920, Note_off_c, 1, 61, 0
2, 86960, Note_on_c, 1, 65, 127
2, 87120, Note_off_c, 1, 65, 0
2, 87160, Note_on_c, 1, 72, 127
2, 87320, Note_off_c, 1, 72, 0
2, 87360, Note_on_c, 1, 73, 127
2, 87520, Note_off_c, 1, 73, 0
2, 87560, Note_on_c, 1, 39, 127
2, 87560, Note_on_c, 1, 72, 127
2, 87760, Note_on_c, 1, 67, 127
2, 87920, Note_off_c, 1, 39, 0
2, 87920, Note_off_c, 1, 67, 0
2, 87920, Note_off_c, 1, 72, 0
2, 87960, Note_on_c, 1, 70, 127
2, 88120, Note_off_c, 1, 70, 0
2, 88160, Note_on_c, 1, 45, 127
2, 88160, Note_on_c, 1, 69, 127
2, 88280, Note_off_c, 1, 45, 0
2, 88280, Note_off_c, 1, 69, 0
2, 88320, Note_on_c, 1, 45, 127
2, 88320, Note_on_c, 1, 69, 127
2, 88360, Note_off_c, 1, 45, 0
2, 88360, Note_off_c, 1, 69, 0
2, 88400, Note_on_c, 1, 57, 127
2, 88400, Note_on_c, 1, 84, 127
2, 88560, Note_off_c, 1, 57, 0
2, 88560, Note_off_c, 1, 84, 0
2, 88600, Note_on_c, 1, 60, 127
2, 88600, Note_on_c, 1, 81, 127
2, 88760, Note_off_c, 1, 60, 0
2, 88760, Note_off_c, 1, 81, 0
2, 88800, Note_on_c, 1, 53, 127
2, 88960, Note_off_c, 1, 53, 0
2, 89000, Note_on_c, 1, 57, 127
2, 89160, Note_off_c, 1, 57, 0
2, 89200, Note_on_c, 1, 53, 127
2, 89360, Note_off_c, 1, 53, 0
2, 89400, Note_on_c, 1, 57, 127
2, 89560, Note_off_c, 1, 57, 0
2, 89600, Note_on_c, 1, 53, 127
2, 89760, Note_off_c, 1, 53, 0
2, 89800, Note_on_c, 1, 58, 127
2, 89960, Note_off_c, 1, 58, 0
2, 90000, Note_on_c, 1, 57, 127
2, 90160, Note_off_c, 1, 57, 0
2, 90200, Note_on_c, 1, 53, 127
2, 90360, Note_off_c, 1, 53, 0
2, 90440, Note_on_c, 1, 53, 127
2, 90600, Note_off_c, 1, 53, 0
2, 90640, Note_on_c, 1, 52, 127
2, 90800, Note_off_c, 1, 52, 0
2, 90840, Note_on_c, 1, 46, 127
2, 91000, Note_off_c, 1, 46, 0
2, 91040, Note_on_c, 1, 48, 127
2, 91200, Note_off_c, 1, 48, 0
2, 91240, Note_on_c, 1, 48, 127
2, 91400, Note_off_c, 1, 48, 0
2, 91440, Note_on_c, 1, 53, 127
2, 91600, Note_off_c, 1, 53, 0
2, 91640, Note_on_c, 1, 57, 127
2, 91800, Note_off_c, 1, 57, 0
2, 91840, Note_on_c, 1, 53, 127
2, 92000, Note_off_c, 1, 53, 0
2, 92040, Note_on_c, 1, 57, 127
2, 92200, Note_off_c, 1, 57, 0
2, 92240, Note_on_c, 1, 48, 127
2, 92400, Note_off_c, 1, 48, 0
2, 92480, Note_on_c, 1, 41, 127
2, 92640, Note_off_c, 1, 41, 0
2, 92680, Note_on_c, 1, 54, 127
2, 92840, Note_off_c, 1, 54, 0
2, 92880, Note_on_c, 1, 53, 127
2, 93040, Note_off_c, 1, 53, 0
2, 93080, Note_on_c, 1, 57, 127
2, 93240, Note_off_c, 1, 57, 0
2, 93280, Note_on_c, 1, 65, 127
2, 93440, Note_off_c, 1, 65, 0
2, 93480, Note_on_c, 1, 86, 127
2, 93640, Note_off_c, 1, 86, 0
2, 93680, Note_on_c, 1, 84, 127
2, 93840, Note_off_c, 1, 84, 0
2, 93880, Note_on_c, 1, 84, 127
2, 94040, Note_off_c, 1, 84, 0
2, 94080, Note_on_c, 1, 84, 127
2, 94240, Note_off_c, 1, 84, 0
2, 94280, Note_on_c, 1, 88, 127
2, 94440, Note_off_c, 1, 88, 0
2, 94520, Note_on_c, 1, 84, 127
2, 94680, Note_off_c, 1, 84, 0
2, 94720, Note_on_c, 1, 77, 127
2, 94880, Note_off_c, 1, 77, 0
2, 94920, Note_on_c, 1, 81, 127
2, 95080, Note_off_c, 1, 81, 0
2, 95120, Note_on_c, 1, 84, 127
2, 95280, Note_off_c, 1, 84, 0
2, 95320, Note_on_c, 1, 81, 127
2, 95480, Note_off_c, 1, 81, 0
2, 95520, Note_on_c, 1, 82, 127
2, 95680, Note_off_c, 1, 82, 0
2, 95720, Note_on_c, 1, 84, 127
2, 95880, Note_off_c, 1, 84, 0
2, 95920, Note_on_c, 1, 82, 127
2, 96320, Note_off_c, 1, 82, 0
2, 96360, Note_on_c, 1, 81, 127
2, 96560, Note_off_c, 1, 81, 0
2, 96640, Note_on_c, 1, 82, 127
2, 96800, Note_off_c, 1, 82, 0
2, 96840, Note_on_c, 1, 76, 127
2, 96840, Note_on_c, 1, 81, 127
2, 97000, Note_off_c, 1, 76, 0
2, 97000, Note_off_c, 1, 81, 0
2, 97040, Note_on_c, 1, 77, 127
2, 97200, Note_off_c, 1, 77, 0
2, 97240, Note_on_c, 1, 79, 127
2, 97400, Note_off_c, 1, 79, 0
2, 97440, Note_on_c, 1, 75, 127
2, 97600, Note_off_c, 1, 75, 0
2, 97640, Note_on_c, 1, 70, 127
2, 97640, Note_on_c, 1, 74, 127
2, 97800, Note_off_c, 1, 70, 0
2, 97800, Note_off_c, 1, 74, 0
2, 97840, Note_on_c, 1, 70, 127
2, 98000, Note_off_c, 1, 70, 0
2, 98040, Note_on_c, 1, 68, 127
2, 98040, Note_on_c, 1, 77, 127
2, 98200, Note_off_c, 1, 68, 0
2, 98200, Note_off_c, 1, 77, 0
2, 98240, Note_on_c, 1, 86, 127
2, 98400, Note_off_c, 1, 86, 0
2, 98440, Note_on_c, 1, 85, 127
2, 98600, Note_off_c, 1, 85, 0
2, 98680, Note_on_c, 1, 86, 127
2, 98840, Note_off_c, 1, 86, 0
2, 98880, Note_on_c, 1, 84, 127
2, 99040, Note_off_c, 1, 84, 0
2, 99080, Note_on_c, 1, 82, 127
2, 99240, Note_off_c, 1, 82, 0
2, 99280, Note_on_c, 1, 80, 127
2, 99440, Note_off_c, 1, 80, 0
2, 99480, Note_on_c, 1, 82, 127
2, 99640, Note_off_c, 1, 82, 0
2, 99680, Note_on_c, 1, 81, 127
2, 99840, Note_off_c, 1, 81, 0
2, 99880, Note_on_c, 1, 79, 127
2, 100040, Note_off_c, 1, 79, 0
2, 100080, Note_on_c, 1, 75, 127
2, 100240, Note_off_c, 1, 75, 0
2, 100280, Note_on_c, 1, 74, 127
2, 100440, Note_off_c, 1, 74, 0
2, 100480, Note_on_c, 1, 75, 127
2, 100640, Note_off_c, 1, 75, 0
2, 100720, Note_on_c, 1, 79, 127
2, 100880, Note_off_c, 1, 79, 0
2, 100920, Note_on_c, 1, 86, 127
2, 101080, Note_off_c, 1, 86, 0
2, 101120, Note_on_c, 1, 75, 127
2, 101280, Note_off_c, 1, 75, 0
2, 101320, Note_on_c, 1, 77, 127
2, 101480, Note_off_c, 1, 77, 0
2, 101520, Note_on_c, 1, 51, 127
2, 101520, Note_on_c, 1, 79, 127
2, 101680, Note_off_c, 1, 51, 0
2, 101680, Note_off_c, 1, 79, 0
2, 101720, Note_on_c, 1, 70, 127
2, 101880, Note_off_c, 1, 70, 0
2, 101920, Note_on_c, 1, 63, 127
2, 101920, Note_on_c, 1, 78, 127
2, 102080, Note_off_c, 1, 63, 0
2, 102080, Note_off_c, 1, 78, 0
2, 102120, Note_on_c, 1, 67, 127
2, 102280, Note_off_c, 1, 67, 0
2, 102320, Note_on_c, 1, 58, 127
2, 102320, Note_on_c, 1, 74, 127
2, 102480, Note_off_c, 1, 58, 0
2, 102480, Note_off_c, 1, 74, 0
2, 102520, Note_on_c, 1, 63, 127
2, 102720, Note_on_c, 1, 81, 127
2, 102840, Note_off_c, 1, 63, 0
2, 102840, Note_off_c, 1, 81, 0
2, 102880, Note_on_c, 1, 63, 127
2, 102880, Note_on_c, 1, 81, 127
2, 102920, Note_off_c, 1, 63, 0
2, 102920, Note_off_c, 1, 81, 0
2, 102960, Note_on_c, 1, 86, 127
2, 103120, Note_off_c, 1, 86, 0
2, 103160, Note_on_c, 1, 41, 127
2, 103160, Note_on_c, 1, 84, 127
2, 103320, Note_off_c, 1, 84, 0
2, 103360, Note_on_c, 1, 75, 127
2, 103520, Note_off_c, 1, 41, 0
2, 103520, Note_off_c, 1, 75, 0
2, 103560, Note_on_c, 1, 70, 127
2, 103720, Note_off_c, 1, 70, 0
2, 103760, Note_on_c, 1, 69, 127
2, 103920, Note_off_c, 1, 69, 0
2, 103960, Note_on_c, 1, 61, 127
2, 103960, Note_on_c, 1, 76, 127
2, 104120, Note_off_c, 1, 61, 0
2, 104120, Note_off_c, 1, 76, 0
2, 104160, Note_on_c, 1, 62, 127
2, 104160, Note_on_c, 1, 77, 127
2, 104320, Note_off_c, 1, 62, 0
2, 104360, Note_on_c, 1, 65, 127
2, 104520, Note_off_c, 1, 65, 0
2, 104560, Note_on_c, 1, 68, 127
2, 104720, Note_off_c, 1, 68, 0
2, 104760, Note_off_c, 1, 77, 0
2, 104800, Note_on_c, 1, 60, 127
2, 104800, Note_on_c, 1, 77, 127
2, 104960, Note_off_c, 1, 60, 0
2, 104960, Note_off_c, 1, 77, 0
2, 105000, Note_on_c, 1, 70, 127
2, 105200, Note_on_c, 1, 53, 127
2, 105200, Note_off_c, 1, 70, 0
2, 105200, Note_on_c, 1, 75, 127
2, 105360, Note_off_c, 1, 53, 0
2, 105360, Note_on_c, 1, 72, 127
2, 105360, Note_off_c, 1, 75, 0
2, 105400, Note_on_c, 1, 57, 127
2, 105560, Note_off_c, 1, 57, 0
2, 105600, Note_on_c, 1, 65, 127
2, 105760, Note_off_c, 1, 65, 0
2, 105760, Note_off_c, 1, 72, 0
2, 105800, Note_on_c, 1, 54, 127
2, 105800, Note_on_c, 1, 70, 127
2, 105960, Note_off_c, 1, 54, 0
2, 106000, Note_on_c, 1, 58, 127
2, 106160, Note_off_c, 1, 58, 0
2, 106200, Note_on_c, 1, 64, 127
2, 106360, Note_off_c, 1, 64, 0
2, 106360, Note_off_c, 1, 70, 0
2, 106400, Note_on_c, 1, 70, 127
2, 106800, Note_on_c, 1, 40, 127
2, 106800, Note_on_c, 1, 67, 127
2, 106800, Note_off_c, 1, 70, 0
2, 106880, Note_off_c, 1, 40, 0
2, 106880, Note_off_c, 1, 67, 0
2, 106920, Note_on_c, 1, 40, 127
2, 106920, Note_on_c, 1, 67, 127
2, 107040, Note_off_c, 1, 40, 0
2, 107080, Note_on_c, 1, 40, 127
2, 107240, Note_off_c, 1, 40, 0
2, 107280, Note_on_c, 1, 55, 127
2, 107440, Note_off_c, 1, 55, 0
2, 107480, Note_on_c, 1, 64, 127
2, 107640, Note_off_c, 1, 64, 0
2, 107680, Note_on_c, 1, 61, 127
2, 107840, Note_off_c, 1, 61, 0
2, 107880, Note_on_c, 1, 61, 127
2, 108040, Note_off_c, 1, 61, 0
2, 108040, Note_off_c, 1, 67, 0
2, 108080, Note_on_c, 1, 66, 127
2, 108280, Note_off_c, 1, 66, 0
2, 108280, Note_on_c, 1, 67, 127
2, 108480, Note_on_c, 1, 65, 127
2, 108480, Note_off_c, 1, 67, 0
2, 108640, Note_off_c, 1, 65, 0
2, 108680, Note_on_c, 1, 68, 127
2, 108880, Note_on_c, 1, 65, 127
2, 109000, Note_off_c, 1, 65, 0
2, 109000, Note_off_c, 1, 68, 0
2, 109040, Note_on_c, 1, 65, 127
2, 109040, Note_on_c, 1, 68, 127
2, 109080, Note_off_c, 1, 65, 0
2, 109120, Note_on_c, 1, 61, 127
2, 109280, Note_off_c, 1, 61, 0
2, 109280, Note_off_c, 1, 68, 0
2, 109320, Note_on_c, 1, 71, 127
2, 109520, Note_on_c, 1, 65, 127
2, 109520, Note_on_c, 1, 68, 127
2, 109520, Note_off_c, 1, 71, 0
2, 109680, Note_off_c, 1, 65, 0
2, 109720, Note_on_c, 1, 59, 127
2, 109880, Note_off_c, 1, 59, 0
2, 109920, Note_on_c, 1, 65, 127
2, 110080, Note_off_c, 1, 65, 0
2, 110120, Note_on_c, 1, 59, 127
2, 110280, Note_off_c, 1, 59, 0
2, 110320, Note_on_c, 1, 65, 127
2, 110480, Note_off_c, 1, 65, 0
2, 110520, Note_on_c, 1, 59, 127
2, 110680, Note_off_c, 1, 59, 0
2, 110720, Note_on_c, 1, 64, 127
2, 110880, Note_off_c, 1, 68, 0
2, 110920, Note_on_c, 1, 56, 127
2, 110920, Note_off_c, 1, 64, 0
2, 110920, Note_on_c, 1, 65, 127
2, 111040, Note_off_c, 1, 56, 0
2, 111040, Note_off_c, 1, 65, 0
2, 111080, Note_on_c, 1, 56, 127
2, 111080, Note_on_c, 1, 65, 127
2, 111120, Note_off_c, 1, 56, 0
2, 111120, Note_off_c, 1, 65, 0
2, 111160, Note_on_c, 1, 64, 127
2, 111160, Note_on_c, 1, 68, 127
2, 111320, Note_off_c, 1, 64, 0
2, 111320, Note_on_c, 1, 66, 127
2, 111320, Note_off_c, 1, 68, 0
2, 111360, Note_on_c, 1, 47, 127
2, 111520, Note_off_c, 1, 47, 0
2, 111520, Note_off_c, 1, 66, 0
2, 111560, Note_on_c, 1, 56, 127
2, 111560, Note_on_c, 1, 73, 127
2, 111720, Note_off_c, 1, 56, 0
2, 111760, Note_on_c, 1, 44, 127
2, 111920, Note_off_c, 1, 44, 0
2, 111960, Note_on_c, 1, 49, 127
2, 112120, Note_off_c, 1, 49, 0
2, 112160, Note_on_c, 1, 56, 127
2, 112160, Note_on_c, 1, 71, 127
2, 112160, Note_off_c, 1, 73, 0
2, 112320, Note_off_c, 1, 56, 0
2, 112360, Note_on_c, 1, 61, 127
2, 112520, Note_off_c, 1, 61, 0
2, 112560, Note_on_c, 1, 53, 127
2, 112720, Note_off_c, 1, 53, 0
2, 112760, Note_on_c, 1, 65, 127
2, 112760, Note_on_c, 1, 69, 127
2, 112920, Note_off_c, 1, 65, 0
2, 112920, Note_off_c, 1, 69, 0
2, 112960, Note_on_c, 1, 56, 127
2, 113040, Note_off_c, 1, 56, 0
2, 113040, Note_off_c, 1, 71, 0
2, 113080, Note_on_c, 1, 56, 127
2, 113080, Note_on_c, 1, 71, 127
2, 113160, Note_off_c, 1, 56, 0
2, 113200, Note_on_c, 1, 62, 127
2, 113360, Note_off_c, 1, 62, 0
2, 113400, Note_on_c, 1, 66, 127
2, 113560, Note_off_c, 1, 66, 0
2, 113600, Note_on_c, 1, 56, 127
2, 113760, Note_off_c, 1, 56, 0
2, 113800, Note_on_c, 1, 53, 127
2, 113960, Note_off_c, 1, 53, 0
2, 114000, Note_on_c, 1, 56, 127
2, 114160, Note_off_c, 1, 56, 0
2, 114200, Note_on_c, 1, 49, 127
2, 114360, Note_off_c, 1, 49, 0
2, 114360, Note_off_c, 1, 71, 0
2, 114400, Note_on_c, 1, 49, 127
2, 114400, Note_on_c, 1, 70, 127
2, 114560, Note_off_c, 1, 49, 0
2, 114600, Note_on_c, 1, 54, 127
2, 114760, Note_off_c, 1, 54, 0
2, 114800, Note_on_c, 1, 49, 127
2, 114960, Note_off_c, 1, 49, 0
2, 115000, Note_on_c, 1, 54, 127
2, 115200, Note_off_c, 1, 54, 0
2, 115240, Note_off_c, 1, 70, 0
2, 115280, Note_on_c, 1, 54, 127
2, 115280, Note_on_c, 1, 70, 127
2, 115440, Note_off_c, 1, 54, 0
2, 115480, Note_on_c, 1, 58, 127
2, 115640, Note_off_c, 1, 58, 0
2, 115680, Note_on_c, 1, 66, 127
2, 115840, Note_off_c, 1, 66, 0
2, 116080, Note_on_c, 1, 66, 127
2, 116240, Note_off_c, 1, 66, 0
2, 116280, Note_on_c, 1, 54, 127
2, 116440, Note_off_c, 1, 54, 0
2, 116480, Note_on_c, 1, 58, 127
2, 116840, Note_off_c, 1, 58, 0
2, 116880, Note_on_c, 1, 66, 127
2, 117040, Note_off_c, 1, 66, 0
2, 117080, Note_on_c, 1, 66, 127
2, 117240, Note_off_c, 1, 66, 0
2, 117280, Note_off_c, 1, 70, 0
2, 117320, Note_on_c, 1, 66, 127
2, 117320, Note_on_c, 1, 70, 127
2, 117480, Note_off_c, 1, 70, 0
2, 117520, Note_on_c, 1, 39, 127
2, 117520, Note_on_c, 1, 51, 127
2, 117680, Note_on_c, 1, 70, 127
2, 117720, Note_off_c, 1, 39, 0
2, 117720, Note_off_c, 1, 51, 0
2, 117720, Note_off_c, 1, 66, 0
2, 117720, Note_off_c, 1, 70, 0
2, 117760, Note_on_c, 1, 61, 127
2, 117920, Note_off_c, 1, 61, 0
2, 117960, Note_on_c, 1, 47, 127
2, 117960, Note_on_c, 1, 51, 127
2, 118120, Note_off_c, 1, 51, 0
2, 118160, Note_on_c, 1, 54, 127
2, 118320, Note_off_c, 1, 54, 0
2, 118360, Note_on_c, 1, 59, 127
2, 118520, Note_off_c, 1, 59, 0
2, 118560, Note_on_c, 1, 63, 127
2, 118720, Note_off_c, 1, 63, 0
2, 118760, Note_on_c, 1, 58, 127
2, 118920, Note_off_c, 1, 58, 0
2, 118960, Note_on_c, 1, 63, 127
2, 119120, Note_off_c, 1, 63, 0
2, 119160, Note_on_c, 1, 59, 127
2, 119320, Note_off_c, 1, 47, 0
2, 119320, Note_off_c, 1, 59, 0
2, 119360, Note_on_c, 1, 47, 127
2, 119360, Note_on_c, 1, 59, 127
2, 119520, Note_off_c, 1, 59, 0
2, 119560, Note_off_c, 1, 47, 0
2, 119560, Note_on_c, 1, 59, 127
2, 120000, Note_off_c, 1, 59, 0
2, 120040, End_track
3, 0, Start_track
3, 0, Title_t, "MIDI"
3, 1536, End_track
0, 0, End_of_file
