0, 0, Header, 1, 3, 192
1, 0, Start_track
1, 0, Time_signature, 4, 2, 24, 8
1, 0, Tempo, 500000
1, 120040, End_track
2, 0, Start_track
2, 0, Text_t, "random instrument: random person i dunno whatev"
2, 0, Title_t, "Track 1"
2, 0, Note_on_c, 1, 34, 127
2, 0, Note_on_c, 1, 53, 127
2, 0, Note_on_c, 1, 56, 127
2, 0, Note_on_c, 1, 62, 127
2, 40, Note_off_c, 1, 34, 0
2, 40, Note_off_c, 1, 53, 0
2, 40, Note_off_c, 1, 56, 0
2, 40, Note_off_c, 1, 62, 0
2, 40, Note_on_c, 1, 67, 127
2, 40, Note_on_c, 1, 76, 127
2, 40, Note_on_c, 1, 79, 127
2, 40, Note_on_c, 1, 85, 127
2, 40, Note_on_c, 1, 88, 127
2, 80, Note_off_c, 1, 67, 0
2, 80, Note_off_c, 1, 76, 0
2, 80, Note_off_c, 1, 79, 0
2, 80, Note_off_c, 1, 85, 0
2, 80, Note_off_c, 1, 88, 0
2, 120, Note_on_c, 1, 34, 127
2, 120, Note_on_c, 1, 53, 127
2, 120, Note_on_c, 1, 56, 127
2, 120, Note_on_c, 1, 62, 127
2, 160, Note_off_c, 1, 34, 0
2, 160, Note_on_c, 1, 43, 127
2, 160, Note_on_c, 1, 47, 127
2, 160, Note_off_c, 1, 53, 0
2, 160, Note_on_c, 1, 55, 127
2, 160, Note_off_c, 1, 56, 0
2, 160, Note_off_c, 1, 62, 0
2, 160, Note_on_c, 1, 79, 127
2, 160, Note_on_c, 1, 83, 127
2, 160, Note_on_c, 1, 87, 127
2, 160, Note_on_c, 1, 91, 127
2, 200, Note_off_c, 1, 43, 0
2, 200, Note_off_c, 1, 47, 0
2, 200, Note_on_c, 1, 48, 127
2, 200, Note_off_c, 1, 55, 0
2, 200, Note_on_c, 1, 61, 127
2, 200, Note_on_c, 1, 64, 127
2, 200, Note_on_c, 1, 70, 127
2, 200, Note_off_c, 1, 79, 0
2, 200, Note_off_c, 1, 83, 0
2, 200, Note_off_c, 1, 87, 0
2, 200, Note_off_c, 1, 91, 0
2, 240, Note_on_c, 1, 42, 127
2, 240, Note_off_c, 1, 48, 0
2, 240, Note_on_c, 1, 55, 127
2, 240, Note_on_c, 1, 60, 127
2, 240, Note_off_c, 1, 61, 0
2, 240, Note_on_c, 1, 67, 127
2, 240, Note_off_c, 1, 70, 0
2, 280, Note_on_c, 1, 39, 127
2, 280, Note_off_c, 1, 42, 0
2, 280, Note_off_c, 1, 55, 0
2, 280, Note_on_c, 1, 56, 127
2, 280, Note_on_c, 1, 59, 127
2, 280, Note_off_c, 1, 60, 0
2, 280, Note_off_c, 1, 64, 0
2, 280, Note_on_c, 1, 66, 127
2, 280, Note_off_c, 1, 67, 0
2, 320, Note_off_c, 1, 39, 0
2, 320, Note_off_c, 1, 56, 0
2, 320, Note_off_c, 1, 59, 0
2, 320, Note_on_c, 1, 64, 127
2, 320, Note_off_c, 1, 66, 0
2, 320, Note_on_c, 1, 81, 127
2, 320, Note_on_c, 1, 83, 127
2, 320, Note_on_c, 1, 90, 127
2, 360, Note_off_c, 1, 64, 0
2, 360, Note_off_c, 1, 81, 0
2, 360, Note_off_c, 1, 83, 0
2, 360, Note_off_c, 1, 90, 0
2, 400, Note_on_c, 1, 38, 127
2, 400, Note_on_c, 1, 54, 127
2, 480, Note_off_c, 1, 54, 0
2, 520, Note_on_c, 1, 57, 127
2, 640, Note_off_c, 1, 57, 0
2, 680, Note_on_c, 1, 60, 127
2, 760, Note_off_c, 1, 38, 0
2, 760, Note_off_c, 1, 60, 0
2, 800, Note_on_c, 1, 52, 127
2, 960, Note_on_c, 1, 69, 127
2, 1200, Note_off_c, 1, 69, 0
2, 1240, Note_off_c, 1, 52, 0
2, 1240, Note_on_c, 1, 61, 127
2, 1240, Note_on_c, 1, 67, 127
2, 1960, Note_off_c, 1, 61, 0
2, 1960, Note_off_c, 1, 67, 0
2, 2040, Note_on_c, 1, 55, 127
2, 2040, Note_on_c, 1, 60, 127
2, 2040, Note_on_c, 1, 66, 127
2, 2360, Note_off_c, 1, 55, 0
2, 2360, Note_off_c, 1, 60, 0
2, 2360, Note_off_c, 1, 66, 0
2, 2400, Note_on_c, 1, 55, 127
2, 2400, Note_on_c, 1, 60, 127
2, 2400, Note_on_c, 1, 66, 127
2, 3040, Note_off_c, 1, 60, 0
2, 3040, Note_off_c, 1, 66, 0
2, 3120, Note_on_c, 1, 48, 127
2, 3120, Note_on_c, 1, 64, 127
2, 3280, Note_off_c, 1, 48, 0
2, 3280, Note_off_c, 1, 55, 0
2, 3280, Note_on_c, 1, 59, 127
2, 3280, Note_on_c, 1, 62, 127
2, 3280, Note_off_c, 1, 64, 0
2, 3280, Note_on_c, 1, 67, 127
2, 3280, Note_on_c, 1, 69, 127
2, 3360, Note_on_c, 1, 43, 127
2, 3360, Note_off_c, 1, 59, 0
2, 3360, Note_off_c, 1, 62, 0
2, 3360, Note_off_c, 1, 69, 0
2, 3400, Note_off_c, 1, 43, 0
2, 3400, Note_on_c, 1, 59, 127
2, 3400, Note_on_c, 1, 62, 127
2, 3640, Note_off_c, 1, 59, 0
2, 3640, Note_off_c, 1, 62, 0
2, 3640, Note_off_c, 1, 67, 0
2, 3680, Note_on_c, 1, 55, 127
2, 3680, Note_on_c, 1, 59, 127
2, 3680, Note_on_c, 1, 62, 127
2, 4400, Note_off_c, 1, 55, 0
2, 4400, Note_off_c, 1, 59, 0
2, 4400, Note_off_c, 1, 62, 0
2, 4440, Note_on_c, 1, 55, 127
2, 4440, Note_on_c, 1, 59, 127
2, 4440, Note_on_c, 1, 62, 127
2, 4640, Note_off_c, 1, 55, 0
2, 4640, Note_off_c, 1, 59, 0
2, 4640, Note_off_c, 1, 62, 0
2, 4680, Note_on_c, 1, 55, 127
2, 4680, Note_on_c, 1, 59, 127
2, 4680, Note_on_c, 1, 67, 127
2, 4920, Note_off_c, 1, 55, 0
2, 4920, Note_off_c, 1, 59, 0
2, 4920, Note_off_c, 1, 67, 0
2, 5240, Note_on_c, 1, 43, 127
2, 5240, Note_on_c, 1, 50, 127
2, 5240, Note_on_c, 1, 60, 127
2, 5240, Note_on_c, 1, 62, 127
2, 5240, Note_on_c, 1, 69, 127
2, 5520, Note_off_c, 1, 43, 0
2, 5520, Note_off_c, 1, 50, 0
2, 5520, Note_off_c, 1, 60, 0
2, 5520, Note_off_c, 1, 62, 0
2, 5520, Note_off_c, 1, 69, 0
2, 6120, Note_on_c, 1, 47, 127
2, 6120, Note_on_c, 1, 56, 127
2, 6120, Note_on_c, 1, 64, 127
2, 6120, Note_on_c, 1, 70, 127
2, 6160, Note_off_c, 1, 47, 0
2, 6160, Note_on_c, 1, 50, 127
2, 6160, Note_off_c, 1, 56, 0
2, 6160, Note_on_c, 1, 57, 127
2, 6160, Note_on_c, 1, 62, 127
2, 6160, Note_off_c, 1, 64, 0
2, 6160, Note_off_c, 1, 70, 0
2, 6160, Note_on_c, 1, 74, 127
2, 6160, Note_on_c, 1, 77, 127
2, 6160, Note_on_c, 1, 86, 127
2, 6200, Note_on_c, 1, 42, 127
2, 6200, Note_off_c, 1, 50, 0
2, 6200, Note_on_c, 1, 52, 127
2, 6200, Note_off_c, 1, 57, 0
2, 6200, Note_on_c, 1, 59, 127
2, 6200, Note_off_c, 1, 62, 0
2, 6200, Note_on_c, 1, 64, 127
2, 6200, Note_off_c, 1, 74, 0
2, 6200, Note_off_c, 1, 77, 0
2, 6200, Note_off_c, 1, 86, 0
2, 6240, Note_on_c, 1, 40, 127
2, 6240, Note_off_c, 1, 42, 0
2, 6240, Note_on_c, 1, 51, 127
2, 6240, Note_off_c, 1, 52, 0
2, 6240, Note_off_c, 1, 64, 0
2, 6240, Note_on_c, 1, 66, 127
2, 6240, Note_on_c, 1, 68, 127
2, 6280, Note_off_c, 1, 40, 0
2, 6280, Note_off_c, 1, 51, 0
2, 6280, Note_off_c, 1, 59, 0
2, 6280, Note_off_c, 1, 66, 0
2, 6280, Note_off_c, 1, 68, 0
2, 7520, Note_on_c, 1, 47, 127
2, 7560, Note_off_c, 1, 47, 0
2, 7560, Note_on_c, 1, 51, 127
2, 7560, Note_on_c, 1, 54, 127
2, 7560, Note_on_c, 1, 59, 127
2, 7760, Note_on_c, 1, 47, 127
2, 7760, Note_off_c, 1, 51, 0
2, 7760, Note_off_c, 1, 59, 0
2, 7760, Note_on_c, 1, 63, 127
2, 7800, Note_off_c, 1, 47, 0
2, 7800, Note_on_c, 1, 51, 127
2, 7800, Note_off_c, 1, 54, 0
2, 7800, Note_on_c, 1, 55, 127
2, 7800, Note_off_c, 1, 63, 0
2, 7800, Note_on_c, 1, 67, 127
2, 7840, Note_off_c, 1, 51, 0
2, 7840, Note_on_c, 1, 52, 127
2, 7880, Note_off_c, 1, 52, 0
2, 7880, Note_off_c, 1, 55, 0
2, 7880, Note_off_c, 1, 67, 0
2, 7880, Note_on_c, 1, 71, 127
2, 7920, Note_on_c, 1, 40, 127
2, 7920, Note_on_c, 1, 52, 127
2, 7920, Note_on_c, 1, 62, 127
2, 8040, Note_off_c, 1, 62, 0
2, 8080, Note_on_c, 1, 64, 127
2, 8120, Note_off_c, 1, 64, 0
2, 8160, Note_on_c, 1, 64, 127
2, 8240, Note_off_c, 1, 64, 0
2, 8280, Note_on_c, 1, 64, 127
2, 8400, Note_off_c, 1, 64, 0
2, 8440, Note_on_c, 1, 64, 127
2, 8560, Note_off_c, 1, 64, 0
2, 8560, Note_on_c, 1, 67, 127
2, 8960, Note_off_c, 1, 40, 0
2, 8960, Note_off_c, 1, 52, 0
2, 8960, Note_off_c, 1, 67, 0
2, 8960, Note_off_c, 1, 71, 0
2, 9640, Note_on_c, 1, 53, 127
2, 9640, Note_on_c, 1, 57, 127
2, 9640, Note_on_c, 1, 59, 127
2, 9640, Note_on_c, 1, 62, 127
2, 9720, Note_off_c, 1, 53, 0
2, 9720, Note_off_c, 1, 57, 0
2, 9720, Note_off_c, 1, 59, 0
2, 9720, Note_off_c, 1, 62, 0
2, 9800, Note_on_c, 1, 52, 127
2, 9800, Note_on_c, 1, 56, 127
2, 9800, Note_on_c, 1, 59, 127
2, 9800, Note_on_c, 1, 64, 127
2, 9800, Note_on_c, 1, 83, 127
2, 9840, Note_off_c, 1, 52, 0
2, 9840, Note_off_c, 1, 56, 0
2, 9840, Note_off_c, 1, 59, 0
2, 9840, Note_off_c, 1, 64, 0
2, 9880, Note_off_c, 1, 83, 0
2, 9960, Note_on_c, 1, 52, 127
2, 9960, Note_on_c, 1, 56, 127
2, 9960, Note_on_c, 1, 59, 127
2, 9960, Note_on_c, 1, 64, 127
2, 10120, Note_off_c, 1, 52, 0
2, 10120, Note_off_c, 1, 56, 0
2, 10120, Note_off_c, 1, 59, 0
2, 10120, Note_off_c, 1, 64, 0
2, 10320, Note_on_c, 1, 48, 127
2, 10320, Note_on_c, 1, 76, 127
2, 10320, Note_on_c, 1, 79, 127
2, 10320, Note_on_c, 1, 84, 127
2, 10440, Note_off_c, 1, 48, 0
2, 10520, Note_on_c, 1, 75, 127
2, 10520, Note_off_c, 1, 76, 0
2, 10520, Note_on_c, 1, 78, 127
2, 10520, Note_off_c, 1, 79, 0
2, 10520, Note_on_c, 1, 83, 127
2, 10520, Note_off_c, 1, 84, 0
2, 10560, Note_off_c, 1, 75, 0
2, 10560, Note_off_c, 1, 78, 0
2, 10560, Note_off_c, 1, 83, 0
2, 10680, Note_on_c, 1, 76, 127
2, 10680, Note_on_c, 1, 79, 127
2, 10680, Note_on_c, 1, 84, 127
2, 10720, Note_off_c, 1, 76, 0
2, 10720, Note_off_c, 1, 79, 0
2, 10720, Note_off_c, 1, 84, 0
2, 10840, Note_on_c, 1, 50, 127
2, 10840, Note_on_c, 1, 52, 127
2, 10840, Note_on_c, 1, 62, 127
2, 10840, Note_on_c, 1, 66, 127
2, 10840, Note_on_c, 1, 69, 127
2, 10840, Note_on_c, 1, 78, 127
2, 11000, Note_off_c, 1, 50, 0
2, 11000, Note_off_c, 1, 52, 0
2, 11000, Note_off_c, 1, 62, 0
2, 11000, Note_off_c, 1, 66, 0
2, 11000, Note_off_c, 1, 69, 0
2, 11000, Note_off_c, 1, 78, 0
2, 11200, Note_on_c, 1, 62, 127
2, 11200, Note_on_c, 1, 68, 127
2, 11200, Note_on_c, 1, 86, 127
2, 11200, Note_on_c, 1, 89, 127
2, 11240, Note_on_c, 1, 43, 127
2, 11240, Note_off_c, 1, 62, 0
2, 11240, Note_off_c, 1, 68, 0
2, 11240, Note_on_c, 1, 71, 127
2, 11240, Note_on_c, 1, 77, 127
2, 11240, Note_on_c, 1, 79, 127
2, 11240, Note_on_c, 1, 83, 127
2, 11240, Note_off_c, 1, 86, 0
2, 11240, Note_off_c, 1, 89, 0
2, 11280, Note_on_c, 1, 55, 127
2, 11280, Note_off_c, 1, 71, 0
2, 11280, Note_off_c, 1, 77, 0
2, 11280, Note_on_c, 1, 82, 127
2, 11280, Note_off_c, 1, 83, 0
2, 11280, Note_on_c, 1, 87, 127
2, 11280, Note_on_c, 1, 91, 127
2, 11320, Note_off_c, 1, 43, 0
2, 11320, Note_off_c, 1, 55, 0
2, 11320, Note_off_c, 1, 79, 0
2, 11320, Note_off_c, 1, 82, 0
2, 11320, Note_off_c, 1, 87, 0
2, 11320, Note_off_c, 1, 91, 0
2, 11560, Note_on_c, 1, 67, 127
2, 11560, Note_on_c, 1, 76, 127
2, 11560, Note_on_c, 1, 91, 127
2, 11560, Note_on_c, 1, 94, 127
2, 11640, Note_on_c, 1, 34, 127
2, 11640, Note_on_c, 1, 46, 127
2, 11640, Note_on_c, 1, 61, 127
2, 11640, Note_off_c, 1, 67, 0
2, 11640, Note_on_c, 1, 73, 127
2, 11640, Note_off_c, 1, 76, 0
2, 11640, Note_on_c, 1, 79, 127
2, 11640, Note_on_c, 1, 89, 127
2, 11640, Note_off_c, 1, 94, 0
2, 11680, Note_off_c, 1, 34, 0
2, 11680, Note_off_c, 1, 46, 0
2, 11680, Note_off_c, 1, 61, 0
2, 11680, Note_off_c, 1, 73, 0
2, 11680, Note_off_c, 1, 79, 0
2, 11680, Note_off_c, 1, 89, 0
2, 11680, Note_off_c, 1, 91, 0
2, 11920, Note_on_c, 1, 50, 127
2, 11920, Note_on_c, 1, 55, 127
2, 11920, Note_on_c, 1, 69, 127
2, 11920, Note_on_c, 1, 72, 127
2, 11960, Note_off_c, 1, 50, 0
2, 11960, Note_off_c, 1, 55, 0
2, 11960, Note_on_c, 1, 59, 127
2, 11960, Note_on_c, 1, 65, 127
2, 11960, Note_off_c, 1, 72, 0
2, 11960, Note_on_c, 1, 77, 127
2, 11960, Note_on_c, 1, 81, 127
2, 12000, Note_off_c, 1, 59, 0
2, 12000, Note_on_c, 1, 60, 127
2, 12000, Note_off_c, 1, 65, 0
2, 12000, Note_off_c, 1, 69, 0
2, 12000, Note_on_c, 1, 70, 127
2, 12000, Note_on_c, 1, 72, 127
2, 12000, Note_on_c, 1, 76, 127
2, 12000, Note_off_c, 1, 77, 0
2, 12000, Note_on_c, 1, 79, 127
2, 12000, Note_off_c, 1, 81, 0
2, 12000, Note_on_c, 1, 84, 127
2, 12000, Note_on_c, 1, 88, 127
2, 12040, Note_off_c, 1, 60, 0
2, 12040, Note_off_c, 1, 70, 0
2, 12040, Note_off_c, 1, 72, 0
2, 12040, Note_off_c, 1, 76, 0
2, 12040, Note_off_c, 1, 79, 0
2, 12040, Note_off_c, 1, 84, 0
2, 12040, Note_off_c, 1, 88, 0
2, 12280, Note_on_c, 1, 49, 127
2, 12280, Note_on_c, 1, 59, 127
2, 12280, Note_on_c, 1, 67, 127
2, 12280, Note_on_c, 1, 71, 127
2, 12320, Note_off_c, 1, 49, 0
2, 12320, Note_off_c, 1, 59, 0
2, 12320, Note_off_c, 1, 67, 0
2, 12320, Note_off_c, 1, 71, 0
2, 12360, Note_on_c, 1, 34, 127
2, 12360, Note_on_c, 1, 37, 127
2, 12360, Note_on_c, 1, 41, 127
2, 12360, Note_on_c, 1, 46, 127
2, 12360, Note_on_c, 1, 82, 127
2, 12360, Note_on_c, 1, 85, 127
2, 12360, Note_on_c, 1, 89, 127
2, 12360, Note_on_c, 1, 94, 127
2, 12480, Note_off_c, 1, 34, 0
2, 12480, Note_off_c, 1, 37, 0
2, 12480, Note_off_c, 1, 41, 0
2, 12480, Note_off_c, 1, 46, 0
2, 12480, Note_off_c, 1, 82, 0
2, 12480, Note_off_c, 1, 85, 0
2, 12480, Note_off_c, 1, 89, 0
2, 12480, Note_off_c, 1, 94, 0
2, 12720, Note_on_c, 1, 29, 127
2, 12720, Note_on_c, 1, 41, 127
2, 12720, Note_on_c, 1, 63, 127
2, 12720, Note_on_c, 1, 65, 127
2, 12720, Note_on_c, 1, 69, 127
2, 12720, Note_on_c, 1, 72, 127
2, 12880, Note_off_c, 1, 29, 0
2, 12880, Note_off_c, 1, 41, 0
2, 12880, Note_off_c, 1, 63, 0
2, 12880, Note_off_c, 1, 65, 0
2, 12880, Note_off_c, 1, 69, 0
2, 12880, Note_off_c, 1, 72, 0
2, 13200, Note_on_c, 1, 52, 127
2, 13200, Note_on_c, 1, 56, 127
2, 13200, Note_on_c, 1, 64, 127
2, 13200, Note_on_c, 1, 71, 127
2, 13320, Note_off_c, 1, 52, 0
2, 13320, Note_off_c, 1, 56, 0
2, 13320, Note_off_c, 1, 64, 0
2, 13320, Note_off_c, 1, 71, 0
2, 13360, Note_on_c, 1, 52, 127
2, 13360, Note_on_c, 1, 56, 127
2, 13360, Note_on_c, 1, 64, 127
2, 13360, Note_on_c, 1, 71, 127
2, 13400, Note_off_c, 1, 64, 0
2, 13440, Note_on_c, 1, 64, 127
2, 13520, Note_on_c, 1, 59, 127
2, 13520, Note_off_c, 1, 64, 0
2, 13520, Note_off_c, 1, 71, 0
2, 13560, Note_on_c, 1, 71, 127
2, 13840, Note_off_c, 1, 52, 0
2, 13840, Note_off_c, 1, 56, 0
2, 13840, Note_off_c, 1, 59, 0
2, 13840, Note_off_c, 1, 71, 0
2, 13880, Note_on_c, 1, 38, 127
2, 13880, Note_on_c, 1, 50, 127
2, 13880, Note_on_c, 1, 55, 127
2, 13880, Note_on_c, 1, 67, 127
2, 13960, Note_off_c, 1, 38, 0
2, 13960, Note_off_c, 1, 50, 0
2, 13960, Note_off_c, 1, 55, 0
2, 13960, Note_off_c, 1, 67, 0
2, 14200, Note_on_c, 1, 46, 127
2, 14200, Note_on_c, 1, 50, 127
2, 14200, Note_on_c, 1, 53, 127
2, 14200, Note_on_c, 1, 56, 127
2, 14200, Note_on_c, 1, 62, 127
2, 14200, Note_on_c, 1, 65, 127
2, 14360, Note_off_c, 1, 46, 0
2, 14360, Note_off_c, 1, 56, 0
2, 14360, Note_on_c, 1, 57, 127
2, 14360, Note_off_c, 1, 62, 0
2, 14360, Note_on_c, 1, 77, 127
2, 14400, Note_on_c, 1, 46, 127
2, 14400, Note_on_c, 1, 56, 127
2, 14400, Note_off_c, 1, 57, 0
2, 14400, Note_on_c, 1, 62, 127
2, 14400, Note_off_c, 1, 77, 0
2, 14520, Note_off_c, 1, 46, 0
2, 14520, Note_off_c, 1, 50, 0
2, 14520, Note_off_c, 1, 53, 0
2, 14520, Note_off_c, 1, 56, 0
2, 14520, Note_off_c, 1, 62, 0
2, 14520, Note_off_c, 1, 65, 0
2, 14560, Note_on_c, 1, 46, 127
2, 14560, Note_on_c, 1, 50, 127
2, 14560, Note_on_c, 1, 53, 127
2, 14560, Note_on_c, 1, 56, 127
2, 14560, Note_on_c, 1, 62, 127
2, 14560, Note_on_c, 1, 65, 127
2, 14840, Note_off_c, 1, 46, 0
2, 14840, Note_off_c, 1, 50, 0
2, 14840, Note_off_c, 1, 53, 0
2, 14840, Note_off_c, 1, 56, 0
2, 14840, Note_off_c, 1, 62, 0
2, 14840, Note_off_c, 1, 65, 0
2, 14880, Note_on_c, 1, 47, 127
2, 14880, Note_on_c, 1, 51, 127
2, 14880, Note_on_c, 1, 54, 127
2, 14880, Note_on_c, 1, 59, 127
2, 14880, Note_on_c, 1, 63, 127
2, 15120, Note_off_c, 1, 47, 0
2, 15120, Note_off_c, 1, 51, 0
2, 15120, Note_off_c, 1, 54, 0
2, 15120, Note_off_c, 1, 59, 0
2, 15120, Note_off_c, 1, 63, 0
2, 15160, Note_on_c, 1, 44, 127
2, 15160, Note_on_c, 1, 48, 127
2, 15160, Note_on_c, 1, 51, 127
2, 15160, Note_on_c, 1, 56, 127
2, 15160, Note_on_c, 1, 63, 127
2, 15160, Note_on_c, 1, 68, 127
2, 15160, Note_on_c, 1, 72, 127
2, 15160, Note_on_c, 1, 75, 127
2, 15240, Note_off_c, 1, 44, 0
2, 15240, Note_off_c, 1, 48, 0
2, 15240, Note_off_c, 1, 51, 0
2, 15240, Note_off_c, 1, 56, 0
2, 15240, Note_off_c, 1, 63, 0
2, 15240, Note_off_c, 1, 68, 0
2, 15240, Note_off_c, 1, 72, 0
2, 15240, Note_off_c, 1, 75, 0
2, 15360, Note_on_c, 1, 44, 127
2, 15360, Note_on_c, 1, 48, 127
2, 15360, Note_on_c, 1, 51, 127
2, 15360, Note_on_c, 1, 56, 127
2, 15360, Note_on_c, 1, 63, 127
2, 15360, Note_on_c, 1, 68, 127
2, 15360, Note_on_c, 1, 72, 127
2, 15360, Note_on_c, 1, 75, 127
2, 15480, Note_off_c, 1, 44, 0
2, 15480, Note_off_c, 1, 48, 0
2, 15480, Note_off_c, 1, 51, 0
2, 15480, Note_off_c, 1, 56, 0
2, 15480, Note_off_c, 1, 63, 0
2, 15480, Note_off_c, 1, 68, 0
2, 15480, Note_off_c, 1, 72, 0
2, 15480, Note_off_c, 1, 75, 0
2, 15520, Note_on_c, 1, 44, 127
2, 15520, Note_on_c, 1, 48, 127
2, 15520, Note_on_c, 1, 51, 127
2, 15520, Note_on_c, 1, 56, 127
2, 15520, Note_on_c, 1, 63, 127
2, 15520, Note_on_c, 1, 68, 127
2, 15520, Note_on_c, 1, 72, 127
2, 15520, Note_on_c, 1, 75, 127
2, 15800, Note_off_c, 1, 44, 0
2, 15800, Note_off_c, 1, 48, 0
2, 15800, Note_off_c, 1, 51, 0
2, 15800, Note_off_c, 1, 56, 0
2, 15800, Note_off_c, 1, 63, 0
2, 15800, Note_off_c, 1, 68, 0
2, 15800, Note_off_c, 1, 72, 0
2, 15800, Note_off_c, 1, 75, 0
2, 15840, Note_on_c, 1, 36, 127
2, 15840, Note_on_c, 1, 48, 127
2, 15840, Note_on_c, 1, 58, 127
2, 15840, Note_on_c, 1, 64, 127
2, 15840, Note_on_c, 1, 67, 127
2, 16120, Note_off_c, 1, 36, 0
2, 16120, Note_off_c, 1, 48, 0
2, 16120, Note_off_c, 1, 58, 0
2, 16120, Note_off_c, 1, 64, 0
2, 16120, Note_off_c, 1, 67, 0
2, 16160, Note_on_c, 1, 34, 127
2, 16160, Note_on_c, 1, 46, 127
2, 16160, Note_on_c, 1, 66, 127
2, 16160, Note_on_c, 1, 70, 127
2, 16160, Note_on_c, 1, 73, 127
2, 16160, Note_on_c, 1, 78, 127
2, 16320, Note_on_c, 1, 65, 127
2, 16320, Note_off_c, 1, 66, 0
2, 16320, Note_off_c, 1, 70, 0
2, 16320, Note_off_c, 1, 73, 0
2, 16320, Note_on_c, 1, 77, 127
2, 16320, Note_off_c, 1, 78, 0
2, 16400, Note_off_c, 1, 34, 0
2, 16400, Note_off_c, 1, 46, 0
2, 16400, Note_off_c, 1, 65, 0
2, 16400, Note_off_c, 1, 77, 0
2, 16440, Note_on_c, 1, 49, 127
2, 16440, Note_on_c, 1, 56, 127
2, 16440, Note_on_c, 1, 61, 127
2, 16440, Note_on_c, 1, 65, 127
2, 16440, Note_on_c, 1, 68, 127
2, 16440, Note_on_c, 1, 73, 127
2, 16440, Note_on_c, 1, 77, 127
2, 16600, Note_off_c, 1, 49, 0
2, 16600, Note_off_c, 1, 56, 0
2, 16600, Note_off_c, 1, 61, 0
2, 16600, Note_off_c, 1, 65, 0
2, 16600, Note_off_c, 1, 68, 0
2, 16600, Note_off_c, 1, 73, 0
2, 16600, Note_off_c, 1, 77, 0
2, 16960, Note_on_c, 1, 53, 127
2, 16960, Note_on_c, 1, 60, 127
2, 16960, Note_on_c, 1, 65, 127
2, 16960, Note_on_c, 1, 69, 127
2, 16960, Note_on_c, 1, 72, 127
2, 16960, Note_on_c, 1, 77, 127
2, 16960, Note_on_c, 1, 81, 127
2, 17160, Note_off_c, 1, 53, 0
2, 17160, Note_off_c, 1, 60, 0
2, 17160, Note_off_c, 1, 65, 0
2, 17160, Note_off_c, 1, 69, 0
2, 17160, Note_off_c, 1, 72, 0
2, 17160, Note_off_c, 1, 77, 0
2, 17160, Note_off_c, 1, 81, 0
2, 17400, Note_on_c, 1, 50, 127
2, 17400, Note_on_c, 1, 53, 127
2, 17400, Note_on_c, 1, 62, 127
2, 17400, Note_on_c, 1, 74, 127
2, 17640, Note_off_c, 1, 50, 0
2, 17640, Note_off_c, 1, 53, 0
2, 17640, Note_off_c, 1, 62, 0
2, 17640, Note_off_c, 1, 74, 0
2, 17680, Note_on_c, 1, 50, 127
2, 17680, Note_on_c, 1, 53, 127
2, 17680, Note_on_c, 1, 62, 127
2, 17680, Note_on_c, 1, 74, 127
2, 18760, Note_off_c, 1, 50, 0
2, 18760, Note_off_c, 1, 53, 0
2, 18760, Note_off_c, 1, 62, 0
2, 18760, Note_off_c, 1, 74, 0
2, 18800, Note_on_c, 1, 53, 127
2, 18800, Note_on_c, 1, 65, 127
2, 19360, Note_off_c, 1, 53, 0
2, 19400, Note_on_c, 1, 53, 127
2, 19560, Note_off_c, 1, 53, 0
2, 19560, Note_off_c, 1, 65, 0
2, 19840, Note_on_c, 1, 36, 127
2, 19840, Note_on_c, 1, 48, 127
2, 19960, Note_off_c, 1, 36, 0
2, 19960, Note_off_c, 1, 48, 0
2, 20800, Note_on_c, 1, 42, 127
2, 20800, Note_on_c, 1, 54, 127
2, 20960, Note_off_c, 1, 42, 0
2, 20960, Note_off_c, 1, 54, 0
2, 21480, Note_on_c, 1, 49, 127
2, 21480, Note_on_c, 1, 59, 127
2, 21480, Note_on_c, 1, 73, 127
2, 21600, Note_off_c, 1, 59, 0
2, 21600, Note_off_c, 1, 73, 0
2, 21680, Note_off_c, 1, 49, 0
2, 21920, Note_on_c, 1, 54, 127
2, 21920, Note_on_c, 1, 61, 127
2, 22000, Note_off_c, 1, 54, 0
2, 22000, Note_off_c, 1, 61, 0
2, 22400, Note_on_c, 1, 78, 127
2, 22560, Note_off_c, 1, 78, 0
2, 22600, Note_on_c, 1, 77, 127
2, 22600, Note_on_c, 1, 78, 127
2, 22640, Note_off_c, 1, 78, 0
2, 22680, Note_off_c, 1, 77, 0
2, 22720, Note_on_c, 1, 77, 127
2, 23000, Note_on_c, 1, 66, 127
2, 23120, Note_off_c, 1, 66, 0
2, 23160, Note_on_c, 1, 61, 127
2, 23320, Note_off_c, 1, 61, 0
2, 23320, Note_off_c, 1, 77, 0
2, 23360, Note_on_c, 1, 73, 127
2, 23680, Note_off_c, 1, 73, 0
2, 23720, Note_on_c, 1, 76, 127
2, 24240, Note_on_c, 1, 58, 127
2, 24920, Note_off_c, 1, 58, 0
2, 24920, Note_off_c, 1, 76, 0
2, 25000, Note_on_c, 1, 59, 127
2, 25000, Note_on_c, 1, 75, 127
2, 25160, Note_off_c, 1, 59, 0
2, 25160, Note_off_c, 1, 75, 0
2, 25720, Note_on_c, 1, 40, 127
2, 25720, Note_on_c, 1, 52, 127
2, 25720, Note_on_c, 1, 64, 127
2, 26040, Note_off_c, 1, 40, 0
2, 26040, Note_off_c, 1, 52, 0
2, 26040, Note_off_c, 1, 64, 0
2, 26080, Note_on_c, 1, 42, 127
2, 26080, Note_on_c, 1, 54, 127
2, 26080, Note_on_c, 1, 66, 127
2, 26160, Note_off_c, 1, 42, 0
2, 26160, Note_off_c, 1, 54, 0
2, 26160, Note_off_c, 1, 66, 0
2, 26200, Note_on_c, 1, 42, 127
2, 26200, Note_on_c, 1, 54, 127
2, 26200, Note_on_c, 1, 66, 127
2, 26440, Note_off_c, 1, 42, 0
2, 26440, Note_off_c, 1, 54, 0
2, 26440, Note_off_c, 1, 66, 0
2, 26480, Note_on_c, 1, 40, 127
2, 26480, Note_on_c, 1, 52, 127
2, 26480, Note_on_c, 1, 64, 127
2, 27120, Note_off_c, 1, 40, 0
2, 27120, Note_off_c, 1, 52, 0
2, 27120, Note_off_c, 1, 64, 0
2, 27160, Note_on_c, 1, 37, 127
2, 27160, Note_on_c, 1, 49, 127
2, 27160, Note_on_c, 1, 61, 127
2, 27320, Note_off_c, 1, 37, 0
2, 27320, Note_off_c, 1, 49, 0
2, 27320, Note_off_c, 1, 61, 0
2, 27360, Note_on_c, 1, 38, 127
2, 27360, Note_on_c, 1, 50, 127
2, 27360, Note_on_c, 1, 62, 127
2, 27480, Note_off_c, 1, 38, 0
2, 27480, Note_off_c, 1, 50, 0
2, 27480, Note_off_c, 1, 62, 0
2, 27520, Note_on_c, 1, 38, 127
2, 27520, Note_on_c, 1, 50, 127
2, 27520, Note_on_c, 1, 62, 127
2, 27840, Note_off_c, 1, 38, 0
2, 27840, Note_off_c, 1, 50, 0
2, 27840, Note_off_c, 1, 62, 0
2, 27880, Note_on_c, 1, 42, 127
2, 27880, Note_on_c, 1, 54, 127
2, 27880, Note_on_c, 1, 66, 127
2, 28160, Note_off_c, 1, 42, 0
2, 28160, Note_off_c, 1, 54, 0
2, 28160, Note_off_c, 1, 66, 0
2, 28200, Note_on_c, 1, 42, 127
2, 28200, Note_on_c, 1, 54, 127
2, 28200, Note_on_c, 1, 66, 127
2, 28240, Note_off_c, 1, 42, 0
2, 28240, Note_off_c, 1, 54, 0
2, 28240, Note_off_c, 1, 66, 0
2, 28280, Note_on_c, 1, 37, 127
2, 28280, Note_on_c, 1, 58, 127
2, 28280, Note_on_c, 1, 65, 127
2, 28280, Note_on_c, 1, 68, 127
2, 28400, Note_off_c, 1, 37, 0
2, 28440, Note_on_c, 1, 56, 127
2, 28440, Note_off_c, 1, 58, 0
2, 28440, Note_on_c, 1, 63, 127
2, 28440, Note_off_c, 1, 65, 0
2, 28440, Note_on_c, 1, 66, 127
2, 28440, Note_off_c, 1, 68, 0
2, 28440, Note_on_c, 1, 75, 127
2, 28560, Note_off_c, 1, 56, 0
2, 28560, Note_off_c, 1, 63, 0
2, 28560, Note_off_c, 1, 66, 0
2, 28560, Note_off_c, 1, 75, 0
2, 28600, Note_on_c, 1, 44, 127
2, 28600, Note_on_c, 1, 51, 127
2, 28600, Note_on_c, 1, 56, 127
2, 28600, Note_on_c, 1, 72, 127
2, 28600, Note_on_c, 1, 75, 127
2, 28600, Note_on_c, 1, 84, 127
2, 29240, Note_off_c, 1, 44, 0
2, 29240, Note_off_c, 1, 51, 0
2, 29240, Note_off_c, 1, 56, 0
2, 29240, Note_off_c, 1, 72, 0
2, 29240, Note_off_c, 1, 75, 0
2, 29240, Note_off_c, 1, 84, 0
2, 29320, Note_on_c, 1, 33, 127
2, 29320, Note_on_c, 1, 45, 127
2, 29320, Note_on_c, 1, 66, 127
2, 29320, Note_on_c, 1, 73, 127
2, 29320, Note_on_c, 1, 78, 127
2, 29440, Note_off_c, 1, 33, 0
2, 29440, Note_off_c, 1, 45, 0
2, 29440, Note_off_c, 1, 66, 0
2, 29440, Note_off_c, 1, 73, 0
2, 29440, Note_off_c, 1, 78, 0
2, 29480, Note_on_c, 1, 33, 127
2, 29480, Note_on_c, 1, 45, 127
2, 29480, Note_on_c, 1, 66, 127
2, 29480, Note_on_c, 1, 73, 127
2, 29480, Note_on_c, 1, 78, 127
2, 29960, Note_off_c, 1, 33, 0
2, 29960, Note_off_c, 1, 45, 0
2, 29960, Note_off_c, 1, 66, 0
2, 29960, Note_off_c, 1, 73, 0
2, 29960, Note_off_c, 1, 78, 0
2, 30000, Note_on_c, 1, 37, 127
2, 30000, Note_on_c, 1, 49, 127
2, 30000, Note_on_c, 1, 77, 127
2, 30000, Note_on_c, 1, 89, 127
2, 30120, Note_off_c, 1, 37, 0
2, 30120, Note_off_c, 1, 49, 0
2, 30120, Note_off_c, 1, 77, 0
2, 30120, Note_off_c, 1, 89, 0
2, 30160, Note_on_c, 1, 55, 127
2, 30160, Note_on_c, 1, 62, 127
2, 30160, Note_on_c, 1, 71, 127
2, 30160, Note_on_c, 1, 78, 127
2, 30160, Note_on_c, 1, 86, 127
2, 30280, Note_off_c, 1, 55, 0
2, 30280, Note_off_c, 1, 62, 0
2, 30280, Note_off_c, 1, 71, 0
2, 30280, Note_off_c, 1, 78, 0
2, 30280, Note_off_c, 1, 86, 0
2, 30400, Note_on_c, 1, 44, 127
2, 30400, Note_on_c, 1, 56, 127
2, 30400, Note_on_c, 1, 71, 127
2, 30400, Note_on_c, 1, 75, 127
2, 30400, Note_on_c, 1, 80, 127
2, 30400, Note_on_c, 1, 83, 127
2, 30520, Note_off_c, 1, 44, 0
2, 30520, Note_off_c, 1, 56, 0
2, 30520, Note_off_c, 1, 71, 0
2, 30520, Note_off_c, 1, 75, 0
2, 30520, Note_off_c, 1, 80, 0
2, 30520, Note_off_c, 1, 83, 0
2, 30560, Note_on_c, 1, 36, 127
2, 30560, Note_on_c, 1, 40, 127
2, 30560, Note_on_c, 1, 48, 127
2, 30560, Note_on_c, 1, 60, 127
2, 30600, Note_off_c, 1, 36, 0
2, 30600, Note_off_c, 1, 40, 0
2, 30600, Note_on_c, 1, 47, 127
2, 30600, Note_off_c, 1, 48, 0
2, 30600, Note_on_c, 1, 51, 127
2, 30600, Note_on_c, 1, 54, 127
2, 30600, Note_off_c, 1, 60, 0
2, 30600, Note_on_c, 1, 78, 127
2, 30600, Note_on_c, 1, 83, 127
2, 30600, Note_on_c, 1, 87, 127
2, 30600, Note_on_c, 1, 90, 127
2, 30640, Note_on_c, 1, 36, 127
2, 30640, Note_on_c, 1, 40, 127
2, 30640, Note_off_c, 1, 47, 0
2, 30640, Note_on_c, 1, 48, 127
2, 30640, Note_off_c, 1, 51, 0
2, 30640, Note_off_c, 1, 54, 0
2, 30640, Note_on_c, 1, 60, 127
2, 30640, Note_off_c, 1, 78, 0
2, 30640, Note_off_c, 1, 83, 0
2, 30640, Note_off_c, 1, 87, 0
2, 30640, Note_off_c, 1, 90, 0
2, 30720, Note_off_c, 1, 36, 0
2, 30720, Note_off_c, 1, 40, 0
2, 30720, Note_off_c, 1, 48, 0
2, 30720, Note_off_c, 1, 60, 0
2, 30760, Note_on_c, 1, 36, 127
2, 30760, Note_on_c, 1, 40, 127
2, 30760, Note_on_c, 1, 48, 127
2, 30760, Note_on_c, 1, 60, 127
2, 31240, Note_off_c, 1, 36, 0
2, 31240, Note_off_c, 1, 40, 0
2, 31240, Note_off_c, 1, 48, 0
2, 31240, Note_off_c, 1, 60, 0
2, 31320, Note_on_c, 1, 43, 127
2, 31320, Note_on_c, 1, 50, 127
2, 31320, Note_on_c, 1, 55, 127
2, 31320, Note_on_c, 1, 71, 127
2, 31320, Note_on_c, 1, 74, 127
2, 31320, Note_on_c, 1, 79, 127
2, 31320, Note_on_c, 1, 83, 127
2, 31600, Note_off_c, 1, 43, 0
2, 31600, Note_off_c, 1, 50, 0
2, 31600, Note_off_c, 1, 55, 0
2, 31600, Note_off_c, 1, 71, 0
2, 31600, Note_off_c, 1, 74, 0
2, 31600, Note_off_c, 1, 79, 0
2, 31600, Note_off_c, 1, 83, 0
2, 31640, Note_on_c, 1, 42, 127
2, 31640, Note_on_c, 1, 52, 127
2, 31640, Note_on_c, 1, 54, 127
2, 31640, Note_on_c, 1, 70, 127
2, 31640, Note_on_c, 1, 73, 127
2, 31640, Note_on_c, 1, 82, 127
2, 31760, Note_off_c, 1, 42, 0
2, 31760, Note_off_c, 1, 52, 0
2, 31760, Note_off_c, 1, 54, 0
2, 31760, Note_off_c, 1, 70, 0
2, 31760, Note_off_c, 1, 73, 0
2, 31760, Note_off_c, 1, 82, 0
2, 31800, Note_on_c, 1, 42, 127
2, 31800, Note_on_c, 1, 52, 127
2, 31800, Note_on_c, 1, 54, 127
2, 31800, Note_on_c, 1, 70, 127
2, 31800, Note_on_c, 1, 73, 127
2, 31800, Note_on_c, 1, 82, 127
2, 31880, Note_off_c, 1, 42, 0
2, 31880, Note_off_c, 1, 52, 0
2, 31880, Note_off_c, 1, 54, 0
2, 31880, Note_off_c, 1, 70, 0
2, 31880, Note_off_c, 1, 73, 0
2, 31880, Note_off_c, 1, 82, 0
2, 31960, Note_on_c, 1, 47, 127
2, 31960, Note_on_c, 1, 51, 127
2, 31960, Note_on_c, 1, 54, 127
2, 31960, Note_on_c, 1, 71, 127
2, 31960, Note_on_c, 1, 75, 127
2, 31960, Note_on_c, 1, 83, 127
2, 32360, Note_off_c, 1, 47, 0
2, 32360, Note_off_c, 1, 51, 0
2, 32360, Note_off_c, 1, 54, 0
2, 32360, Note_off_c, 1, 71, 0
2, 32360, Note_off_c, 1, 75, 0
2, 32360, Note_off_c, 1, 83, 0
2, 32400, Note_on_c, 1, 47, 127
2, 32400, Note_on_c, 1, 51, 127
2, 32400, Note_on_c, 1, 54, 127
2, 32400, Note_on_c, 1, 71, 127
2, 32400, Note_on_c, 1, 75, 127
2, 32400, Note_on_c, 1, 83, 127
2, 32480, Note_off_c, 1, 47, 0
2, 32480, Note_off_c, 1, 51, 0
2, 32480, Note_off_c, 1, 54, 0
2, 32480, Note_off_c, 1, 71, 0
2, 32480, Note_off_c, 1, 75, 0
2, 32480, Note_off_c, 1, 83, 0
2, 32800, Note_on_c, 1, 51, 127
2, 32800, Note_on_c, 1, 58, 127
2, 32800, Note_on_c, 1, 63, 127
2, 32800, Note_on_c, 1, 67, 127
2, 32800, Note_on_c, 1, 70, 127
2, 32800, Note_on_c, 1, 75, 127
2, 32800, Note_on_c, 1, 79, 127
2, 33200, Note_off_c, 1, 51, 0
2, 33200, Note_off_c, 1, 58, 0
2, 33200, Note_off_c, 1, 63, 0
2, 33200, Note_off_c, 1, 67, 0
2, 33200, Note_off_c, 1, 70, 0
2, 33200, Note_off_c, 1, 75, 0
2, 33200, Note_off_c, 1, 79, 0
2, 34280, Note_on_c, 1, 33, 127
2, 34280, Note_on_c, 1, 45, 127
2, 34280, Note_on_c, 1, 57, 127
2, 34560, Note_off_c, 1, 33, 0
2, 34560, Note_off_c, 1, 45, 0
2, 34560, Note_off_c, 1, 57, 0
2, 34600, Note_on_c, 1, 33, 127
2, 34600, Note_on_c, 1, 45, 127
2, 34600, Note_on_c, 1, 57, 127
2, 34720, Note_off_c, 1, 33, 0
2, 34720, Note_off_c, 1, 45, 0
2, 34720, Note_off_c, 1, 57, 0
2, 34760, Note_on_c, 1, 33, 127
2, 34760, Note_on_c, 1, 45, 127
2, 34760, Note_on_c, 1, 57, 127
2, 35880, Note_off_c, 1, 33, 0
2, 35880, Note_off_c, 1, 45, 0
2, 35880, Note_off_c, 1, 57, 0
2, 35920, Note_on_c, 1, 72, 127
2, 35960, Note_off_c, 1, 72, 0
2, 36000, Note_on_c, 1, 69, 127
2, 36120, Note_off_c, 1, 69, 0
2, 36160, Note_on_c, 1, 74, 127
2, 36240, Note_off_c, 1, 74, 0
2, 36280, Note_on_c, 1, 77, 127
2, 36360, Note_on_c, 1, 43, 127
2, 36480, Note_off_c, 1, 43, 0
2, 36520, Note_on_c, 1, 58, 127
2, 36640, Note_off_c, 1, 58, 0
2, 36640, Note_off_c, 1, 77, 0
2, 36680, Note_on_c, 1, 58, 127
2, 36680, Note_on_c, 1, 61, 127
2, 36680, Note_on_c, 1, 65, 127
2, 36680, Note_on_c, 1, 77, 127
2, 36800, Note_off_c, 1, 58, 0
2, 36800, Note_off_c, 1, 61, 0
2, 36800, Note_off_c, 1, 65, 0
2, 36800, Note_off_c, 1, 77, 0
2, 36840, Note_on_c, 1, 58, 127
2, 36840, Note_on_c, 1, 61, 127
2, 36840, Note_on_c, 1, 65, 127
2, 36840, Note_on_c, 1, 77, 127
2, 36880, Note_off_c, 1, 58, 0
2, 36880, Note_off_c, 1, 61, 0
2, 36880, Note_off_c, 1, 65, 0
2, 36880, Note_off_c, 1, 77, 0
2, 36920, Note_on_c, 1, 46, 127
2, 36920, Note_on_c, 1, 57, 127
2, 36920, Note_on_c, 1, 63, 127
2, 36920, Note_on_c, 1, 72, 127
2, 37240, Note_on_c, 1, 34, 127
2, 37240, Note_off_c, 1, 46, 0
2, 37240, Note_off_c, 1, 57, 0
2, 37240, Note_off_c, 1, 63, 0
2, 37240, Note_off_c, 1, 72, 0
2, 37240, Note_on_c, 1, 74, 127
2, 37280, Note_off_c, 1, 34, 0
2, 37280, Note_on_c, 1, 46, 127
2, 37280, Note_on_c, 1, 61, 127
2, 37280, Note_on_c, 1, 66, 127
2, 37280, Note_on_c, 1, 68, 127
2, 37280, Note_off_c, 1, 74, 0
2, 37320, Note_off_c, 1, 46, 0
2, 37320, Note_on_c, 1, 48, 127
2, 37320, Note_on_c, 1, 55, 127
2, 37320, Note_off_c, 1, 61, 0
2, 37320, Note_off_c, 1, 66, 0
2, 37320, Note_off_c, 1, 68, 0
2, 37320, Note_on_c, 1, 70, 127
2, 37320, Note_on_c, 1, 75, 127
2, 37360, Note_on_c, 1, 53, 127
2, 37360, Note_off_c, 1, 55, 0
2, 37360, Note_on_c, 1, 62, 127
2, 37360, Note_off_c, 1, 70, 0
2, 37360, Note_off_c, 1, 75, 0
2, 37400, Note_off_c, 1, 48, 0
2, 37400, Note_off_c, 1, 53, 0
2, 37400, Note_off_c, 1, 62, 0
2, 37440, Note_on_c, 1, 48, 127
2, 37440, Note_on_c, 1, 53, 127
2, 37440, Note_on_c, 1, 63, 127
2, 37440, Note_on_c, 1, 65, 127
2, 37760, Note_off_c, 1, 48, 0
2, 37760, Note_off_c, 1, 53, 0
2, 37760, Note_off_c, 1, 63, 0
2, 37760, Note_off_c, 1, 65, 0
2, 37800, Note_on_c, 1, 70, 127
2, 37840, Note_on_c, 1, 72, 127
2, 37920, Note_on_c, 1, 69, 127
2, 37920, Note_off_c, 1, 72, 0
2, 37960, Note_on_c, 1, 29, 127
2, 37960, Note_on_c, 1, 41, 127
2, 37960, Note_on_c, 1, 68, 127
2, 37960, Note_off_c, 1, 69, 0
2, 37960, Note_off_c, 1, 70, 0
2, 38000, Note_off_c, 1, 29, 0
2, 38000, Note_off_c, 1, 41, 0
2, 38000, Note_on_c, 1, 54, 127
2, 38000, Note_on_c, 1, 61, 127
2, 38000, Note_on_c, 1, 63, 127
2, 38000, Note_off_c, 1, 68, 0
2, 38000, Note_on_c, 1, 80, 127
2, 38040, Note_on_c, 1, 32, 127
2, 38040, Note_on_c, 1, 44, 127
2, 38040, Note_off_c, 1, 54, 0
2, 38040, Note_off_c, 1, 61, 0
2, 38040, Note_on_c, 1, 68, 127
2, 38040, Note_on_c, 1, 73, 127
2, 38040, Note_off_c, 1, 80, 0
2, 38080, Note_on_c, 1, 29, 127
2, 38080, Note_off_c, 1, 32, 0
2, 38080, Note_on_c, 1, 41, 127
2, 38080, Note_off_c, 1, 44, 0
2, 38080, Note_off_c, 1, 63, 0
2, 38080, Note_off_c, 1, 73, 0
2, 38120, Note_off_c, 1, 29, 0
2, 38120, Note_on_c, 1, 31, 127
2, 38120, Note_off_c, 1, 41, 0
2, 38120, Note_on_c, 1, 43, 127
2, 38120, Note_on_c, 1, 49, 127
2, 38120, Note_on_c, 1, 52, 127
2, 38120, Note_on_c, 1, 58, 127
2, 38120, Note_on_c, 1, 61, 127
2, 38120, Note_on_c, 1, 64, 127
2, 38120, Note_off_c, 1, 68, 0
2, 38120, Note_on_c, 1, 70, 127
2, 38120, Note_on_c, 1, 73, 127
2, 38120, Note_on_c, 1, 76, 127
2, 39040, Note_off_c, 1, 31, 0
2, 39040, Note_off_c, 1, 43, 0
2, 39040, Note_off_c, 1, 49, 0
2, 39040, Note_off_c, 1, 52, 0
2, 39040, Note_off_c, 1, 58, 0
2, 39040, Note_off_c, 1, 61, 0
2, 39040, Note_off_c, 1, 64, 0
2, 39040, Note_off_c, 1, 70, 0
2, 39040, Note_off_c, 1, 73, 0
2, 39040, Note_off_c, 1, 76, 0
2, 39080, Note_on_c, 1, 31, 127
2, 39080, Note_on_c, 1, 43, 127
2, 39080, Note_on_c, 1, 49, 127
2, 39080, Note_on_c, 1, 52, 127
2, 39080, Note_on_c, 1, 58, 127
2, 39080, Note_on_c, 1, 61, 127
2, 39080, Note_on_c, 1, 64, 127
2, 39080, Note_on_c, 1, 70, 127
2, 39080, Note_on_c, 1, 73, 127
2, 39080, Note_on_c, 1, 76, 127
2, 41040, Note_off_c, 1, 31, 0
2, 41040, Note_on_c, 1, 37, 127
2, 41040, Note_off_c, 1, 43, 0
2, 41040, Note_off_c, 1, 52, 0
2, 41040, Note_off_c, 1, 58, 0
2, 41040, Note_off_c, 1, 61, 0
2, 41040, Note_off_c, 1, 64, 0
2, 41040, Note_off_c, 1, 70, 0
2, 41040, Note_off_c, 1, 73, 0
2, 41040, Note_off_c, 1, 76, 0
2, 41040, Note_on_c, 1, 93, 127
2, 41080, Note_off_c, 1, 37, 0
2, 41080, Note_off_c, 1, 49, 0
2, 41080, Note_off_c, 1, 93, 0
2, 42440, Note_on_c, 1, 31, 127
2, 42440, Note_on_c, 1, 43, 127
2, 43120, Note_off_c, 1, 31, 0
2, 43120, Note_on_c, 1, 36, 127
2, 43120, Note_off_c, 1, 43, 0
2, 43120, Note_on_c, 1, 48, 127
2, 43160, Note_off_c, 1, 36, 0
2, 43160, Note_off_c, 1, 48, 0
2, 43200, Note_on_c, 1, 32, 127
2, 43200, Note_on_c, 1, 44, 127
2, 43400, Note_off_c, 1, 32, 0
2, 43400, Note_off_c, 1, 44, 0
2, 45200, Note_on_c, 1, 58, 127
2, 45200, Note_on_c, 1, 62, 127
2, 45560, Note_off_c, 1, 58, 0
2, 45560, Note_off_c, 1, 62, 0
2, 45600, Note_on_c, 1, 57, 127
2, 45600, Note_on_c, 1, 60, 127
2, 45920, Note_off_c, 1, 60, 0
2, 45960, Note_on_c, 1, 62, 127
2, 46440, Note_on_c, 1, 45, 127
2, 46440, Note_off_c, 1, 57, 0
2, 46440, Note_off_c, 1, 62, 0
2, 46480, Note_off_c, 1, 45, 0
2, 46520, Note_on_c, 1, 62, 127
2, 46560, Note_on_c, 1, 57, 127
2, 46800, Note_off_c, 1, 62, 0
2, 46800, Note_on_c, 1, 63, 127
2, 46840, Note_off_c, 1, 63, 0
2, 46880, Note_on_c, 1, 62, 127
2, 46920, Note_on_c, 1, 46, 127
2, 46920, Note_off_c, 1, 57, 0
2, 46920, Note_on_c, 1, 58, 127
2, 47200, Note_off_c, 1, 58, 0
2, 47200, Note_off_c, 1, 62, 0
2, 47240, Note_on_c, 1, 53, 127
2, 47240, Note_on_c, 1, 62, 127
2, 47560, Note_off_c, 1, 46, 0
2, 47680, Note_on_c, 1, 47, 127
2, 47680, Note_off_c, 1, 53, 0
2, 47680, Note_on_c, 1, 57, 127
2, 47680, Note_on_c, 1, 68, 127
2, 47680, Note_on_c, 1, 71, 127
2, 47720, Note_off_c, 1, 47, 0
2, 47720, Note_on_c, 1, 49, 127
2, 47720, Note_on_c, 1, 55, 127
2, 47720, Note_off_c, 1, 57, 0
2, 47720, Note_on_c, 1, 59, 127
2, 47720, Note_off_c, 1, 62, 0
2, 47720, Note_on_c, 1, 67, 127
2, 47720, Note_off_c, 1, 68, 0
2, 47720, Note_off_c, 1, 71, 0
2, 47760, Note_on_c, 1, 44, 127
2, 47760, Note_off_c, 1, 49, 0
2, 47760, Note_on_c, 1, 53, 127
2, 47760, Note_off_c, 1, 55, 0
2, 47760, Note_off_c, 1, 59, 0
2, 47760, Note_off_c, 1, 67, 0
2, 47760, Note_on_c, 1, 71, 127
2, 47800, Note_off_c, 1, 44, 0
2, 47800, Note_off_c, 1, 53, 0
2, 47800, Note_on_c, 1, 55, 127
2, 47800, Note_on_c, 1, 61, 127
2, 47800, Note_on_c, 1, 70, 127
2, 47800, Note_off_c, 1, 71, 0
2, 47800, Note_on_c, 1, 79, 127
2, 47800, Note_on_c, 1, 82, 127
2, 47840, Note_on_c, 1, 41, 127
2, 47840, Note_off_c, 1, 55, 0
2, 47840, Note_off_c, 1, 61, 0
2, 47840, Note_off_c, 1, 70, 0
2, 47840, Note_on_c, 1, 75, 127
2, 47840, Note_off_c, 1, 79, 0
2, 47840, Note_on_c, 1, 85, 127
2, 47880, Note_off_c, 1, 41, 0
2, 47880, Note_on_c, 1, 72, 127
2, 47880, Note_on_c, 1, 81, 127
2, 47880, Note_off_c, 1, 82, 0
2, 47880, Note_off_c, 1, 85, 0
2, 47880, Note_on_c, 1, 87, 127
2, 47880, Note_on_c, 1, 89, 127
2, 47920, Note_on_c, 1, 46, 127
2, 47920, Note_on_c, 1, 53, 127
2, 47920, Note_on_c, 1, 58, 127
2, 47920, Note_off_c, 1, 72, 0
2, 47920, Note_on_c, 1, 74, 127
2, 47920, Note_off_c, 1, 75, 0
2, 47920, Note_off_c, 1, 81, 0
2, 47920, Note_off_c, 1, 87, 0
2, 47920, Note_off_c, 1, 89, 0
2, 47960, Note_on_c, 1, 39, 127
2, 47960, Note_off_c, 1, 53, 0
2, 47960, Note_on_c, 1, 56, 127
2, 47960, Note_off_c, 1, 58, 0
2, 47960, Note_on_c, 1, 63, 127
2, 47960, Note_on_c, 1, 68, 127
2, 47960, Note_off_c, 1, 74, 0
2, 48000, Note_off_c, 1, 39, 0
2, 48000, Note_off_c, 1, 46, 0
2, 48000, Note_on_c, 1, 55, 127
2, 48000, Note_off_c, 1, 56, 0
2, 48000, Note_on_c, 1, 57, 127
2, 48000, Note_on_c, 1, 61, 127
2, 48000, Note_off_c, 1, 63, 0
2, 48000, Note_on_c, 1, 64, 127
2, 48000, Note_off_c, 1, 68, 0
2, 48000, Note_on_c, 1, 76, 127
2, 48040, Note_on_c, 1, 38, 127
2, 48040, Note_on_c, 1, 45, 127
2, 48040, Note_on_c, 1, 60, 127
2, 48040, Note_off_c, 1, 61, 0
2, 48040, Note_off_c, 1, 76, 0
2, 48080, Note_off_c, 1, 38, 0
2, 48080, Note_off_c, 1, 45, 0
2, 48080, Note_on_c, 1, 48, 127
2, 48080, Note_off_c, 1, 55, 0
2, 48080, Note_on_c, 1, 56, 127
2, 48080, Note_off_c, 1, 57, 0
2, 48080, Note_off_c, 1, 60, 0
2, 48080, Note_off_c, 1, 64, 0
2, 48080, Note_on_c, 1, 75, 127
2, 48080, Note_on_c, 1, 83, 127
2, 48120, Note_off_c, 1, 48, 0
2, 48120, Note_off_c, 1, 56, 0
2, 48120, Note_on_c, 1, 58, 127
2, 48120, Note_on_c, 1, 64, 127
2, 48120, Note_on_c, 1, 68, 127
2, 48120, Note_off_c, 1, 75, 0
2, 48120, Note_on_c, 1, 80, 127
2, 48120, Note_off_c, 1, 83, 0
2, 48120, Note_on_c, 1, 92, 127
2, 48160, Note_on_c, 1, 36, 127
2, 48160, Note_on_c, 1, 43, 127
2, 48160, Note_off_c, 1, 58, 0
2, 48160, Note_off_c, 1, 64, 0
2, 48160, Note_on_c, 1, 65, 127
2, 48160, Note_on_c, 1, 67, 127
2, 48160, Note_off_c, 1, 68, 0
2, 48160, Note_off_c, 1, 80, 0
2, 48160, Note_off_c, 1, 92, 0
2, 48200, Note_off_c, 1, 36, 0
2, 48200, Note_off_c, 1, 65, 0
2, 48200, Note_off_c, 1, 67, 0
2, 48200, Note_on_c, 1, 76, 127
2, 48200, Note_on_c, 1, 79, 127
2, 48240, Note_on_c, 1, 42, 127
2, 48240, Note_off_c, 1, 43, 0
2, 48240, Note_off_c, 1, 76, 0
2, 48240, Note_on_c, 1, 80, 127
2, 48280, Note_on_c, 1, 40, 127
2, 48280, Note_off_c, 1, 42, 0
2, 48280, Note_on_c, 1, 48, 127
2, 48280, Note_on_c, 1, 55, 127
2, 48280, Note_off_c, 1, 79, 0
2, 48280, Note_off_c, 1, 80, 0
2, 48320, Note_off_c, 1, 40, 0
2, 48320, Note_on_c, 1, 42, 127
2, 48320, Note_off_c, 1, 48, 0
2, 48320, Note_on_c, 1, 54, 127
2, 48320, Note_off_c, 1, 55, 0
2, 48320, Note_on_c, 1, 64, 127
2, 48320, Note_on_c, 1, 67, 127
2, 48320, Note_on_c, 1, 76, 127
2, 48360, Note_off_c, 1, 42, 0
2, 48360, Note_off_c, 1, 54, 0
2, 48360, Note_on_c, 1, 55, 127
2, 48360, Note_on_c, 1, 58, 127
2, 48360, Note_off_c, 1, 67, 0
2, 48360, Note_on_c, 1, 77, 127
2, 48400, Note_on_c, 1, 40, 127
2, 48400, Note_on_c, 1, 45, 127
2, 48400, Note_on_c, 1, 49, 127
2, 48400, Note_on_c, 1, 52, 127
2, 48400, Note_off_c, 1, 55, 0
2, 48400, Note_off_c, 1, 58, 0
2, 48400, Note_off_c, 1, 77, 0
2, 48440, Note_on_c, 1, 39, 127
2, 48440, Note_off_c, 1, 40, 0
2, 48440, Note_off_c, 1, 45, 0
2, 48440, Note_off_c, 1, 49, 0
2, 48440, Note_off_c, 1, 52, 0
2, 48440, Note_on_c, 1, 61, 127
2, 48440, Note_off_c, 1, 64, 0
2, 48440, Note_on_c, 1, 65, 127
2, 48440, Note_off_c, 1, 76, 0
2, 48480, Note_off_c, 1, 39, 0
2, 48480, Note_on_c, 1, 46, 127
2, 48480, Note_on_c, 1, 50, 127
2, 48480, Note_on_c, 1, 55, 127
2, 48480, Note_on_c, 1, 58, 127
2, 48480, Note_off_c, 1, 61, 0
2, 48480, Note_off_c, 1, 65, 0
2, 48480, Note_on_c, 1, 74, 127
2, 48520, Note_off_c, 1, 46, 0
2, 48520, Note_off_c, 1, 50, 0
2, 48520, Note_off_c, 1, 55, 0
2, 48520, Note_off_c, 1, 58, 0
2, 48520, Note_off_c, 1, 74, 0
2, 48560, Note_on_c, 1, 46, 127
2, 48560, Note_on_c, 1, 50, 127
2, 48560, Note_on_c, 1, 55, 127
2, 48560, Note_on_c, 1, 58, 127
2, 48560, Note_on_c, 1, 62, 127
2, 48720, Note_off_c, 1, 62, 0
2, 49040, Note_off_c, 1, 50, 0
2, 49040, Note_on_c, 1, 51, 127
2, 49080, Note_on_c, 1, 50, 127
2, 49080, Note_off_c, 1, 51, 0
2, 49080, Note_on_c, 1, 53, 127
2, 49080, Note_off_c, 1, 55, 0
2, 49080, Note_off_c, 1, 58, 0
2, 49080, Note_on_c, 1, 62, 127
2, 49200, Note_off_c, 1, 46, 0
2, 49200, Note_off_c, 1, 50, 0
2, 49200, Note_off_c, 1, 53, 0
2, 49200, Note_off_c, 1, 62, 0
2, 49240, Note_on_c, 1, 41, 127
2, 49240, Note_on_c, 1, 46, 127
2, 49240, Note_on_c, 1, 53, 127
2, 49240, Note_on_c, 1, 87, 127
2, 49520, Note_off_c, 1, 87, 0
2, 49560, Note_off_c, 1, 41, 0
2, 49560, Note_off_c, 1, 46, 0
2, 49560, Note_off_c, 1, 53, 0
2, 49560, Note_on_c, 1, 60, 127
2, 49560, Note_on_c, 1, 64, 127
2, 49560, Note_on_c, 1, 67, 127
2, 49560, Note_on_c, 1, 70, 127
2, 49560, Note_on_c, 1, 74, 127
2, 49560, Note_on_c, 1, 91, 127
2, 49600, Note_on_c, 1, 38, 127
2, 49600, Note_on_c, 1, 50, 127
2, 49600, Note_off_c, 1, 60, 0
2, 49600, Note_off_c, 1, 64, 0
2, 49600, Note_off_c, 1, 67, 0
2, 49600, Note_off_c, 1, 70, 0
2, 49600, Note_on_c, 1, 72, 127
2, 49600, Note_on_c, 1, 78, 127
2, 49600, Note_on_c, 1, 84, 127
2, 49600, Note_off_c, 1, 91, 0
2, 49640, Note_off_c, 1, 38, 0
2, 49640, Note_off_c, 1, 50, 0
2, 49640, Note_on_c, 1, 55, 127
2, 49640, Note_on_c, 1, 67, 127
2, 49640, Note_on_c, 1, 70, 127
2, 49640, Note_off_c, 1, 72, 0
2, 49640, Note_on_c, 1, 77, 127
2, 49640, Note_off_c, 1, 78, 0
2, 49640, Note_off_c, 1, 84, 0
2, 49680, Note_on_c, 1, 48, 127
2, 49680, Note_off_c, 1, 55, 0
2, 49680, Note_on_c, 1, 65, 127
2, 49680, Note_off_c, 1, 67, 0
2, 49680, Note_off_c, 1, 77, 0
2, 49680, Note_on_c, 1, 81, 127
2, 49720, Note_off_c, 1, 48, 0
2, 49720, Note_on_c, 1, 56, 127
2, 49720, Note_off_c, 1, 65, 0
2, 49720, Note_on_c, 1, 68, 127
2, 49720, Note_off_c, 1, 70, 0
2, 49720, Note_on_c, 1, 72, 127
2, 49720, Note_off_c, 1, 81, 0
2, 49760, Note_on_c, 1, 51, 127
2, 49760, Note_on_c, 1, 54, 127
2, 49760, Note_off_c, 1, 56, 0
2, 49760, Note_on_c, 1, 59, 127
2, 49760, Note_on_c, 1, 66, 127
2, 49760, Note_off_c, 1, 68, 0
2, 49760, Note_on_c, 1, 71, 127
2, 49760, Note_off_c, 1, 72, 0
2, 49760, Note_off_c, 1, 74, 0
2, 49840, Note_off_c, 1, 51, 0
2, 49840, Note_off_c, 1, 54, 0
2, 49840, Note_off_c, 1, 59, 0
2, 49840, Note_off_c, 1, 66, 0
2, 49840, Note_off_c, 1, 71, 0
2, 49880, Note_on_c, 1, 45, 127
2, 49880, Note_on_c, 1, 50, 127
2, 49880, Note_on_c, 1, 54, 127
2, 49880, Note_on_c, 1, 69, 127
2, 50160, Note_off_c, 1, 45, 0
2, 50160, Note_off_c, 1, 50, 0
2, 50160, Note_off_c, 1, 54, 0
2, 50200, Note_on_c, 1, 45, 127
2, 50200, Note_on_c, 1, 52, 127
2, 50200, Note_on_c, 1, 55, 127
2, 50200, Note_on_c, 1, 61, 127
2, 50200, Note_on_c, 1, 64, 127
2, 50200, Note_on_c, 1, 67, 127
2, 50320, Note_off_c, 1, 52, 0
2, 50320, Note_off_c, 1, 55, 0
2, 50320, Note_off_c, 1, 61, 0
2, 50320, Note_off_c, 1, 64, 0
2, 50320, Note_off_c, 1, 67, 0
2, 50360, Note_on_c, 1, 52, 127
2, 50360, Note_on_c, 1, 55, 127
2, 50360, Note_on_c, 1, 61, 127
2, 50360, Note_on_c, 1, 64, 127
2, 50360, Note_on_c, 1, 67, 127
2, 50440, Note_off_c, 1, 52, 0
2, 50440, Note_off_c, 1, 55, 0
2, 50440, Note_off_c, 1, 61, 0
2, 50440, Note_off_c, 1, 64, 0
2, 50440, Note_off_c, 1, 67, 0
2, 50480, Note_on_c, 1, 52, 127
2, 50480, Note_on_c, 1, 55, 127
2, 50480, Note_on_c, 1, 61, 127
2, 50480, Note_on_c, 1, 64, 127
2, 50480, Note_on_c, 1, 67, 127
2, 50600, Note_off_c, 1, 52, 0
2, 50600, Note_off_c, 1, 55, 0
2, 50600, Note_off_c, 1, 61, 0
2, 50600, Note_off_c, 1, 64, 0
2, 50600, Note_off_c, 1, 67, 0
2, 50640, Note_off_c, 1, 45, 0
2, 50640, Note_off_c, 1, 69, 0
2, 50680, Note_on_c, 1, 44, 127
2, 50680, Note_on_c, 1, 50, 127
2, 50680, Note_on_c, 1, 53, 127
2, 50680, Note_on_c, 1, 56, 127
2, 50680, Note_on_c, 1, 59, 127
2, 50680, Note_on_c, 1, 62, 127
2, 50680, Note_on_c, 1, 67, 127
2, 50720, Note_off_c, 1, 44, 0
2, 50720, Note_on_c, 1, 46, 127
2, 50720, Note_off_c, 1, 50, 0
2, 50720, Note_off_c, 1, 53, 0
2, 50720, Note_off_c, 1, 56, 0
2, 50720, Note_on_c, 1, 58, 127
2, 50720, Note_off_c, 1, 59, 0
2, 50720, Note_off_c, 1, 62, 0
2, 50720, Note_on_c, 1, 75, 127
2, 50800, Note_off_c, 1, 46, 0
2, 50800, Note_off_c, 1, 58, 0
2, 50800, Note_off_c, 1, 67, 0
2, 50800, Note_off_c, 1, 75, 0
2, 50840, Note_on_c, 1, 32, 127
2, 50840, Note_on_c, 1, 44, 127
2, 50840, Note_on_c, 1, 63, 127
2, 50840, Note_on_c, 1, 68, 127
2, 50840, Note_on_c, 1, 72, 127
2, 50840, Note_on_c, 1, 75, 127
2, 50920, Note_off_c, 1, 63, 0
2, 50920, Note_off_c, 1, 75, 0
2, 51760, Note_off_c, 1, 32, 0
2, 51760, Note_off_c, 1, 44, 0
2, 51760, Note_off_c, 1, 68, 0
2, 51760, Note_off_c, 1, 72, 0
2, 51800, Note_on_c, 1, 37, 127
2, 51800, Note_on_c, 1, 49, 127
2, 51800, Note_on_c, 1, 64, 127
2, 51800, Note_on_c, 1, 70, 127
2, 51800, Note_on_c, 1, 73, 127
2, 51840, Note_off_c, 1, 64, 0
2, 51840, Note_off_c, 1, 70, 0
2, 51840, Note_off_c, 1, 73, 0
2, 51880, Note_on_c, 1, 53, 127
2, 51920, Note_off_c, 1, 53, 0
2, 51960, Note_on_c, 1, 65, 127
2, 52000, Note_off_c, 1, 65, 0
2, 52000, Note_on_c, 1, 73, 127
2, 52040, Note_off_c, 1, 37, 0
2, 52040, Note_on_c, 1, 48, 127
2, 52040, Note_off_c, 1, 49, 0
2, 52040, Note_on_c, 1, 70, 127
2, 52040, Note_on_c, 1, 78, 127
2, 52080, Note_off_c, 1, 48, 0
2, 52080, Note_off_c, 1, 70, 0
2, 52080, Note_off_c, 1, 73, 0
2, 52080, Note_off_c, 1, 78, 0
2, 52120, Note_on_c, 1, 36, 127
2, 52120, Note_on_c, 1, 48, 127
2, 52120, Note_on_c, 1, 73, 127
2, 52400, Note_off_c, 1, 36, 0
2, 52400, Note_off_c, 1, 48, 0
2, 52400, Note_off_c, 1, 73, 0
2, 52440, Note_on_c, 1, 53, 127
2, 52440, Note_on_c, 1, 59, 127
2, 52440, Note_on_c, 1, 63, 127
2, 52440, Note_on_c, 1, 99, 127
2, 52440, Note_on_c, 1, 101, 127
2, 52480, Note_off_c, 1, 53, 0
2, 52480, Note_off_c, 1, 59, 0
2, 52480, Note_off_c, 1, 63, 0
2, 52480, Note_off_c, 1, 99, 0
2, 52480, Note_off_c, 1, 101, 0
2, 52520, Note_on_c, 1, 53, 127
2, 52520, Note_on_c, 1, 59, 127
2, 52520, Note_on_c, 1, 63, 127
2, 52560, Note_on_c, 1, 50, 127
2, 52560, Note_off_c, 1, 53, 0
2, 52560, Note_off_c, 1, 59, 0
2, 52560, Note_off_c, 1, 63, 0
2, 52560, Note_on_c, 1, 68, 127
2, 52560, Note_on_c, 1, 74, 127
2, 52560, Note_on_c, 1, 77, 127
2, 52560, Note_on_c, 1, 80, 127
2, 52600, Note_off_c, 1, 50, 0
2, 52600, Note_on_c, 1, 53, 127
2, 52600, Note_on_c, 1, 59, 127
2, 52600, Note_on_c, 1, 63, 127
2, 52600, Note_off_c, 1, 68, 0
2, 52600, Note_off_c, 1, 74, 0
2, 52600, Note_off_c, 1, 77, 0
2, 52600, Note_off_c, 1, 80, 0
2, 52640, Note_on_c, 1, 48, 127
2, 52640, Note_on_c, 1, 50, 127
2, 52640, Note_on_c, 1, 55, 127
2, 52640, Note_off_c, 1, 59, 0
2, 52640, Note_off_c, 1, 63, 0
2, 52640, Note_on_c, 1, 77, 127
2, 52680, Note_off_c, 1, 48, 0
2, 52680, Note_off_c, 1, 50, 0
2, 52680, Note_off_c, 1, 53, 0
2, 52680, Note_off_c, 1, 55, 0
2, 52680, Note_on_c, 1, 58, 127
2, 52680, Note_on_c, 1, 66, 127
2, 52680, Note_on_c, 1, 70, 127
2, 52680, Note_on_c, 1, 75, 127
2, 52680, Note_off_c, 1, 77, 0
2, 52680, Note_on_c, 1, 78, 127
2, 52680, Note_on_c, 1, 82, 127
2, 52720, Note_on_c, 1, 30, 127
2, 52720, Note_on_c, 1, 42, 127
2, 52720, Note_off_c, 1, 58, 0
2, 52720, Note_on_c, 1, 61, 127
2, 52720, Note_on_c, 1, 68, 127
2, 52720, Note_off_c, 1, 70, 0
2, 52720, Note_on_c, 1, 73, 127
2, 52720, Note_off_c, 1, 75, 0
2, 52720, Note_off_c, 1, 78, 0
2, 52720, Note_off_c, 1, 82, 0
2, 52720, Note_on_c, 1, 83, 127
2, 52720, Note_on_c, 1, 97, 127
2, 52760, Note_off_c, 1, 30, 0
2, 52760, Note_off_c, 1, 42, 0
2, 52760, Note_off_c, 1, 61, 0
2, 52760, Note_off_c, 1, 66, 0
2, 52760, Note_off_c, 1, 68, 0
2, 52760, Note_off_c, 1, 73, 0
2, 52760, Note_off_c, 1, 83, 0
2, 52760, Note_off_c, 1, 97, 0
2, 52800, Note_on_c, 1, 36, 127
2, 52800, Note_on_c, 1, 43, 127
2, 52800, Note_on_c, 1, 51, 127
2, 52840, Note_off_c, 1, 51, 0
2, 52880, Note_on_c, 1, 51, 127
2, 52920, Note_off_c, 1, 51, 0
2, 52960, Note_on_c, 1, 51, 127
2, 53040, Note_off_c, 1, 36, 0
2, 53040, Note_off_c, 1, 43, 0
2, 53040, Note_off_c, 1, 51, 0
2, 53040, Note_on_c, 1, 77, 127
2, 53040, Note_on_c, 1, 80, 127
2, 53040, Note_on_c, 1, 83, 127
2, 53040, Note_on_c, 1, 86, 127
2, 53080, Note_on_c, 1, 36, 127
2, 53080, Note_on_c, 1, 43, 127
2, 53080, Note_off_c, 1, 77, 0
2, 53080, Note_off_c, 1, 80, 0
2, 53080, Note_off_c, 1, 83, 0
2, 53080, Note_off_c, 1, 86, 0
2, 53120, Note_off_c, 1, 36, 0
2, 53120, Note_off_c, 1, 43, 0
2, 53120, Note_on_c, 1, 51, 127
2, 53120, Note_on_c, 1, 73, 127
2, 53120, Note_on_c, 1, 75, 127
2, 53120, Note_on_c, 1, 79, 127
2, 53120, Note_on_c, 1, 82, 127
2, 53360, Note_off_c, 1, 51, 0
2, 53360, Note_on_c, 1, 58, 127
2, 53400, Note_on_c, 1, 41, 127
2, 53400, Note_on_c, 1, 51, 127
2, 53400, Note_off_c, 1, 58, 0
2, 53400, Note_off_c, 1, 73, 0
2, 53400, Note_off_c, 1, 75, 0
2, 53400, Note_off_c, 1, 79, 0
2, 53400, Note_off_c, 1, 82, 0
2, 53440, Note_off_c, 1, 41, 0
2, 53440, Note_on_c, 1, 43, 127
2, 53440, Note_on_c, 1, 48, 127
2, 53440, Note_on_c, 1, 55, 127
2, 53440, Note_on_c, 1, 67, 127
2, 53440, Note_on_c, 1, 72, 127
2, 53440, Note_on_c, 1, 75, 127
2, 53440, Note_on_c, 1, 79, 127
2, 53720, Note_off_c, 1, 43, 0
2, 53720, Note_off_c, 1, 48, 0
2, 53720, Note_off_c, 1, 51, 0
2, 53720, Note_off_c, 1, 55, 0
2, 53720, Note_off_c, 1, 67, 0
2, 53720, Note_off_c, 1, 72, 0
2, 53720, Note_off_c, 1, 75, 0
2, 53720, Note_off_c, 1, 79, 0
2, 53760, Note_on_c, 1, 40, 127
2, 53760, Note_on_c, 1, 45, 127
2, 53760, Note_on_c, 1, 48, 127
2, 53760, Note_on_c, 1, 75, 127
2, 53800, Note_off_c, 1, 40, 0
2, 53800, Note_on_c, 1, 44, 127
2, 53800, Note_off_c, 1, 45, 0
2, 53800, Note_off_c, 1, 48, 0
2, 53800, Note_on_c, 1, 50, 127
2, 53800, Note_on_c, 1, 53, 127
2, 53800, Note_on_c, 1, 56, 127
2, 53800, Note_off_c, 1, 75, 0
2, 53840, Note_off_c, 1, 44, 0
2, 53840, Note_on_c, 1, 49, 127
2, 53840, Note_off_c, 1, 50, 0
2, 53840, Note_off_c, 1, 53, 0
2, 53840, Note_off_c, 1, 56, 0
2, 53840, Note_on_c, 1, 57, 127
2, 53840, Note_on_c, 1, 61, 127
2, 53840, Note_on_c, 1, 69, 127
2, 53840, Note_on_c, 1, 73, 127
2, 53840, Note_on_c, 1, 75, 127
2, 53840, Note_on_c, 1, 78, 127
2, 53880, Note_on_c, 1, 39, 127
2, 53880, Note_off_c, 1, 49, 0
2, 53880, Note_off_c, 1, 57, 0
2, 53880, Note_on_c, 1, 60, 127
2, 53880, Note_off_c, 1, 61, 0
2, 53880, Note_on_c, 1, 63, 127
2, 53880, Note_on_c, 1, 67, 127
2, 53880, Note_off_c, 1, 69, 0
2, 53880, Note_off_c, 1, 73, 0
2, 53880, Note_off_c, 1, 75, 0
2, 53880, Note_off_c, 1, 78, 0
2, 53880, Note_on_c, 1, 79, 127
2, 53920, Note_off_c, 1, 60, 0
2, 53920, Note_off_c, 1, 63, 0
2, 53920, Note_off_c, 1, 67, 0
2, 53920, Note_on_c, 1, 68, 127
2, 53920, Note_on_c, 1, 77, 127
2, 53920, Note_off_c, 1, 79, 0
2, 53920, Note_on_c, 1, 84, 127
2, 53960, Note_off_c, 1, 39, 0
2, 53960, Note_on_c, 1, 56, 127
2, 53960, Note_on_c, 1, 59, 127
2, 53960, Note_on_c, 1, 63, 127
2, 53960, Note_on_c, 1, 75, 127
2, 53960, Note_off_c, 1, 77, 0
2, 53960, Note_on_c, 1, 80, 127
2, 53960, Note_on_c, 1, 83, 127
2, 53960, Note_off_c, 1, 84, 0
2, 53960, Note_on_c, 1, 87, 127
2, 54000, Note_on_c, 1, 47, 127
2, 54000, Note_on_c, 1, 50, 127
2, 54000, Note_on_c, 1, 54, 127
2, 54000, Note_off_c, 1, 56, 0
2, 54000, Note_off_c, 1, 63, 0
2, 54000, Note_off_c, 1, 68, 0
2, 54000, Note_on_c, 1, 74, 127
2, 54000, Note_off_c, 1, 75, 0
2, 54000, Note_off_c, 1, 80, 0
2, 54000, Note_off_c, 1, 83, 0
2, 54000, Note_off_c, 1, 87, 0
2, 54040, Note_on_c, 1, 40, 127
2, 54040, Note_off_c, 1, 47, 0
2, 54040, Note_off_c, 1, 50, 0
2, 54040, Note_off_c, 1, 54, 0
2, 54040, Note_off_c, 1, 59, 0
2, 54040, Note_off_c, 1, 74, 0
2, 54080, Note_on_c, 1, 39, 127
2, 54080, Note_off_c, 1, 40, 0
2, 54080, Note_on_c, 1, 53, 127
2, 54080, Note_on_c, 1, 60, 127
2, 54080, Note_on_c, 1, 68, 127
2, 54080, Note_on_c, 1, 72, 127
2, 54360, Note_on_c, 1, 32, 127
2, 54360, Note_off_c, 1, 39, 0
2, 54360, Note_off_c, 1, 53, 0
2, 54360, Note_off_c, 1, 60, 0
2, 54360, Note_off_c, 1, 68, 0
2, 54360, Note_off_c, 1, 72, 0
2, 54360, Note_on_c, 1, 75, 127
2, 54400, Note_off_c, 1, 32, 0
2, 54400, Note_on_c, 1, 42, 127
2, 54400, Note_on_c, 1, 53, 127
2, 54400, Note_on_c, 1, 56, 127
2, 54400, Note_on_c, 1, 61, 127
2, 54400, Note_off_c, 1, 75, 0
2, 54600, Note_off_c, 1, 42, 0
2, 54600, Note_off_c, 1, 53, 0
2, 54600, Note_off_c, 1, 56, 0
2, 54600, Note_off_c, 1, 61, 0
2, 54640, Note_on_c, 1, 42, 127
2, 54640, Note_on_c, 1, 53, 127
2, 54640, Note_on_c, 1, 56, 127
2, 54640, Note_on_c, 1, 61, 127
2, 54760, Note_off_c, 1, 42, 0
2, 54760, Note_off_c, 1, 53, 0
2, 54760, Note_off_c, 1, 56, 0
2, 54760, Note_off_c, 1, 61, 0
2, 54800, Note_on_c, 1, 46, 127
2, 54800, Note_on_c, 1, 50, 127
2, 54800, Note_on_c, 1, 53, 127
2, 54800, Note_on_c, 1, 58, 127
2, 54800, Note_on_c, 1, 65, 127
2, 54800, Note_on_c, 1, 70, 127
2, 54800, Note_on_c, 1, 74, 127
2, 54800, Note_on_c, 1, 77, 127
2, 55080, Note_off_c, 1, 46, 0
2, 55080, Note_off_c, 1, 50, 0
2, 55080, Note_off_c, 1, 53, 0
2, 55080, Note_off_c, 1, 58, 0
2, 55080, Note_off_c, 1, 65, 0
2, 55080, Note_off_c, 1, 70, 0
2, 55080, Note_off_c, 1, 74, 0
2, 55080, Note_off_c, 1, 77, 0
2, 55120, Note_on_c, 1, 53, 127
2, 55120, Note_on_c, 1, 59, 127
2, 55120, Note_on_c, 1, 68, 127
2, 55120, Note_on_c, 1, 75, 127
2, 55120, Note_on_c, 1, 80, 127
2, 55360, Note_off_c, 1, 53, 0
2, 55360, Note_off_c, 1, 59, 0
2, 55360, Note_on_c, 1, 65, 127
2, 55360, Note_off_c, 1, 75, 0
2, 55360, Note_on_c, 1, 77, 127
2, 55360, Note_on_c, 1, 89, 127
2, 55360, Note_on_c, 1, 92, 127
2, 55400, Note_off_c, 1, 65, 0
2, 55400, Note_off_c, 1, 68, 0
2, 55400, Note_off_c, 1, 77, 0
2, 55400, Note_off_c, 1, 80, 0
2, 55400, Note_off_c, 1, 89, 0
2, 55400, Note_off_c, 1, 92, 0
2, 55440, Note_on_c, 1, 46, 127
2, 55440, Note_on_c, 1, 58, 127
2, 55440, Note_on_c, 1, 68, 127
2, 55440, Note_on_c, 1, 73, 127
2, 55440, Note_on_c, 1, 77, 127
2, 55800, Note_off_c, 1, 46, 0
2, 55800, Note_off_c, 1, 58, 0
2, 55800, Note_on_c, 1, 63, 127
2, 55800, Note_on_c, 1, 66, 127
2, 55800, Note_off_c, 1, 68, 0
2, 55800, Note_on_c, 1, 71, 127
2, 55800, Note_off_c, 1, 73, 0
2, 55800, Note_on_c, 1, 75, 127
2, 55800, Note_off_c, 1, 77, 0
2, 55800, Note_on_c, 1, 78, 127
2, 55840, Note_on_c, 1, 41, 127
2, 55840, Note_on_c, 1, 48, 127
2, 55840, Note_off_c, 1, 63, 0
2, 55840, Note_off_c, 1, 66, 0
2, 55840, Note_on_c, 1, 67, 127
2, 55840, Note_on_c, 1, 70, 127
2, 55840, Note_off_c, 1, 71, 0
2, 55840, Note_off_c, 1, 75, 0
2, 55840, Note_off_c, 1, 78, 0
2, 55880, Note_on_c, 1, 39, 127
2, 55880, Note_off_c, 1, 41, 0
2, 55880, Note_off_c, 1, 48, 0
2, 55880, Note_off_c, 1, 67, 0
2, 55880, Note_off_c, 1, 70, 0
2, 55920, Note_off_c, 1, 39, 0
2, 55920, Note_on_c, 1, 53, 127
2, 55920, Note_on_c, 1, 58, 127
2, 55920, Note_on_c, 1, 61, 127
2, 55920, Note_on_c, 1, 70, 127
2, 55920, Note_on_c, 1, 73, 127
2, 56000, Note_on_c, 1, 64, 127
2, 56000, Note_off_c, 1, 70, 0
2, 56000, Note_off_c, 1, 73, 0
2, 56040, Note_off_c, 1, 64, 0
2, 56040, Note_on_c, 1, 70, 127
2, 56040, Note_on_c, 1, 73, 127
2, 56320, Note_off_c, 1, 58, 0
2, 56320, Note_off_c, 1, 61, 0
2, 56320, Note_on_c, 1, 65, 127
2, 56320, Note_off_c, 1, 70, 0
2, 56320, Note_off_c, 1, 73, 0
2, 56360, Note_on_c, 1, 62, 127
2, 56360, Note_on_c, 1, 70, 127
2, 56360, Note_on_c, 1, 74, 127
2, 56400, Note_on_c, 1, 50, 127
2, 56400, Note_off_c, 1, 53, 0
2, 56400, Note_on_c, 1, 55, 127
2, 56400, Note_on_c, 1, 58, 127
2, 56400, Note_off_c, 1, 62, 0
2, 56400, Note_on_c, 1, 63, 127
2, 56400, Note_off_c, 1, 65, 0
2, 56400, Note_off_c, 1, 70, 0
2, 56400, Note_off_c, 1, 74, 0
2, 56440, Note_off_c, 1, 50, 0
2, 56440, Note_on_c, 1, 53, 127
2, 56440, Note_off_c, 1, 55, 0
2, 56440, Note_off_c, 1, 58, 0
2, 56440, Note_on_c, 1, 62, 127
2, 56440, Note_off_c, 1, 63, 0
2, 56440, Note_on_c, 1, 65, 127
2, 56440, Note_on_c, 1, 70, 127
2, 56440, Note_on_c, 1, 74, 127
2, 56480, Note_off_c, 1, 53, 0
2, 56480, Note_off_c, 1, 62, 0
2, 56480, Note_off_c, 1, 65, 0
2, 56480, Note_off_c, 1, 70, 0
2, 56480, Note_off_c, 1, 74, 0
2, 56520, Note_on_c, 1, 49, 127
2, 56520, Note_on_c, 1, 54, 127
2, 56520, Note_on_c, 1, 61, 127
2, 56520, Note_on_c, 1, 65, 127
2, 56520, Note_on_c, 1, 70, 127
2, 56520, Note_on_c, 1, 77, 127
2, 56560, Note_off_c, 1, 49, 0
2, 56560, Note_off_c, 1, 54, 0
2, 56560, Note_off_c, 1, 61, 0
2, 56560, Note_off_c, 1, 65, 0
2, 56560, Note_off_c, 1, 70, 0
2, 56560, Note_off_c, 1, 77, 0
2, 56600, Note_on_c, 1, 58, 127
2, 56600, Note_on_c, 1, 76, 127
2, 56600, Note_on_c, 1, 80, 127
2, 56600, Note_on_c, 1, 84, 127
2, 56760, Note_off_c, 1, 58, 0
2, 56760, Note_off_c, 1, 76, 0
2, 56760, Note_off_c, 1, 80, 0
2, 56760, Note_off_c, 1, 84, 0
2, 56800, Note_on_c, 1, 58, 127
2, 56800, Note_on_c, 1, 76, 127
2, 56800, Note_on_c, 1, 80, 127
2, 56800, Note_on_c, 1, 84, 127
2, 57000, Note_off_c, 1, 58, 0
2, 57000, Note_off_c, 1, 76, 0
2, 57000, Note_off_c, 1, 80, 0
2, 57000, Note_off_c, 1, 84, 0
2, 57040, Note_on_c, 1, 73, 127
2, 57360, Note_on_c, 1, 52, 127
2, 57360, Note_on_c, 1, 56, 127
2, 57360, Note_on_c, 1, 59, 127
2, 57360, Note_on_c, 1, 62, 127
2, 57360, Note_on_c, 1, 68, 127
2, 57360, Note_off_c, 1, 73, 0
2, 57520, Note_off_c, 1, 68, 0
2, 57560, Note_on_c, 1, 68, 127
2, 57680, Note_off_c, 1, 68, 0
2, 57720, Note_on_c, 1, 68, 127
2, 58000, Note_on_c, 1, 49, 127
2, 58000, Note_off_c, 1, 52, 0
2, 58000, Note_on_c, 1, 54, 127
2, 58000, Note_off_c, 1, 56, 0
2, 58000, Note_off_c, 1, 59, 0
2, 58000, Note_on_c, 1, 61, 127
2, 58000, Note_off_c, 1, 62, 0
2, 58000, Note_off_c, 1, 68, 0
2, 58040, Note_on_c, 1, 47, 127
2, 58040, Note_off_c, 1, 49, 0
2, 58040, Note_on_c, 1, 59, 127
2, 58040, Note_off_c, 1, 61, 0
2, 58040, Note_on_c, 1, 63, 127
2, 58320, Note_off_c, 1, 54, 0
2, 58320, Note_off_c, 1, 59, 0
2, 58320, Note_off_c, 1, 63, 0
2, 58360, Note_on_c, 1, 54, 127
2, 58360, Note_on_c, 1, 59, 127
2, 58360, Note_on_c, 1, 63, 127
2, 58360, Note_on_c, 1, 66, 127
2, 58360, Note_on_c, 1, 71, 127
2, 58360, Note_on_c, 1, 75, 127
2, 58960, Note_off_c, 1, 47, 0
2, 58960, Note_off_c, 1, 54, 0
2, 58960, Note_off_c, 1, 59, 0
2, 58960, Note_off_c, 1, 63, 0
2, 58960, Note_off_c, 1, 66, 0
2, 58960, Note_off_c, 1, 71, 0
2, 58960, Note_off_c, 1, 75, 0
2, 59000, Note_on_c, 1, 47, 127
2, 59000, Note_on_c, 1, 54, 127
2, 59000, Note_on_c, 1, 59, 127
2, 59000, Note_on_c, 1, 63, 127
2, 59000, Note_on_c, 1, 66, 127
2, 59000, Note_on_c, 1, 71, 127
2, 59000, Note_on_c, 1, 75, 127
2, 59280, Note_off_c, 1, 47, 0
2, 59280, Note_off_c, 1, 54, 0
2, 59280, Note_off_c, 1, 59, 0
2, 59280, Note_off_c, 1, 63, 0
2, 59280, Note_off_c, 1, 66, 0
2, 59280, Note_off_c, 1, 71, 0
2, 59280, Note_off_c, 1, 75, 0
2, 59360, Note_on_c, 1, 40, 127
2, 59360, Note_on_c, 1, 47, 127
2, 59360, Note_on_c, 1, 52, 127
2, 59360, Note_on_c, 1, 56, 127
2, 59360, Note_on_c, 1, 59, 127
2, 59360, Note_on_c, 1, 64, 127
2, 59680, Note_off_c, 1, 40, 0
2, 59680, Note_off_c, 1, 47, 0
2, 59680, Note_off_c, 1, 52, 0
2, 59680, Note_off_c, 1, 56, 0
2, 59680, Note_off_c, 1, 59, 0
2, 59680, Note_off_c, 1, 64, 0
2, 62120, Note_on_c, 1, 47, 127
2, 62120, Note_on_c, 1, 54, 127
2, 62120, Note_on_c, 1, 57, 127
2, 62120, Note_on_c, 1, 63, 127
2, 62120, Note_on_c, 1, 69, 127
2, 62120, Note_on_c, 1, 73, 127
2, 62160, Note_on_c, 1, 46, 127
2, 62160, Note_off_c, 1, 47, 0
2, 62160, Note_on_c, 1, 50, 127
2, 62160, Note_off_c, 1, 54, 0
2, 62160, Note_off_c, 1, 57, 0
2, 62160, Note_off_c, 1, 63, 0
2, 62160, Note_off_c, 1, 69, 0
2, 62160, Note_off_c, 1, 73, 0
2, 62160, Note_on_c, 1, 87, 127
2, 62200, Note_off_c, 1, 46, 0
2, 62200, Note_off_c, 1, 50, 0
2, 62200, Note_on_c, 1, 71, 127
2, 62200, Note_on_c, 1, 79, 127
2, 62200, Note_off_c, 1, 87, 0
2, 62200, Note_on_c, 1, 91, 127
2, 62200, Note_on_c, 1, 100, 127
2, 62240, Note_off_c, 1, 71, 0
2, 62240, Note_off_c, 1, 79, 0
2, 62240, Note_off_c, 1, 91, 0
2, 62240, Note_off_c, 1, 100, 0
2, 62280, Note_on_c, 1, 94, 127
2, 62280, Note_on_c, 1, 98, 127
2, 62320, Note_on_c, 1, 64, 127
2, 62320, Note_off_c, 1, 98, 0
2, 62360, Note_off_c, 1, 64, 0
2, 62360, Note_off_c, 1, 94, 0
2, 64080, Note_on_c, 1, 26, 127
2, 64400, Note_off_c, 1, 26, 0
2, 64440, Note_on_c, 1, 26, 127
2, 64520, Note_off_c, 1, 26, 0
2, 65400, Note_on_c, 1, 62, 127
2, 65400, Note_on_c, 1, 66, 127
2, 65400, Note_on_c, 1, 69, 127
2, 65400, Note_on_c, 1, 74, 127
2, 65400, Note_on_c, 1, 78, 127
2, 65400, Note_on_c, 1, 81, 127
2, 65400, Note_on_c, 1, 86, 127
2, 65840, Note_off_c, 1, 62, 0
2, 65840, Note_off_c, 1, 66, 0
2, 65840, Note_off_c, 1, 69, 0
2, 65840, Note_off_c, 1, 74, 0
2, 65840, Note_off_c, 1, 78, 0
2, 65840, Note_off_c, 1, 81, 0
2, 65840, Note_off_c, 1, 86, 0
2, 66160, Note_on_c, 1, 55, 127
2, 66160, Note_on_c, 1, 59, 127
2, 66160, Note_on_c, 1, 67, 127
2, 66160, Note_on_c, 1, 76, 127
2, 66320, Note_off_c, 1, 55, 0
2, 66320, Note_off_c, 1, 59, 0
2, 66320, Note_off_c, 1, 67, 0
2, 66320, Note_off_c, 1, 76, 0
2, 66640, Note_on_c, 1, 48, 127
2, 66640, Note_on_c, 1, 55, 127
2, 66640, Note_on_c, 1, 60, 127
2, 66640, Note_on_c, 1, 64, 127
2, 66640, Note_on_c, 1, 67, 127
2, 66640, Note_on_c, 1, 72, 127
2, 66640, Note_on_c, 1, 76, 127
2, 67120, Note_off_c, 1, 48, 0
2, 67120, Note_off_c, 1, 55, 0
2, 67120, Note_off_c, 1, 60, 0
2, 67120, Note_off_c, 1, 64, 0
2, 67120, Note_off_c, 1, 67, 0
2, 67120, Note_off_c, 1, 72, 0
2, 67120, Note_off_c, 1, 76, 0
2, 67200, Note_on_c, 1, 52, 127
2, 67240, Note_on_c, 1, 50, 127
2, 67240, Note_off_c, 1, 52, 0
2, 67240, Note_on_c, 1, 59, 127
2, 67240, Note_on_c, 1, 67, 127
2, 67560, Note_off_c, 1, 67, 0
2, 67680, Note_off_c, 1, 50, 0
2, 67680, Note_off_c, 1, 59, 0
2, 67720, Note_on_c, 1, 50, 127
2, 67720, Note_on_c, 1, 59, 127
2, 67760, Note_on_c, 1, 67, 127
2, 67800, Note_off_c, 1, 67, 0
2, 67880, Note_on_c, 1, 57, 127
2, 67880, Note_off_c, 1, 59, 0
2, 67880, Note_on_c, 1, 67, 127
2, 67920, Note_off_c, 1, 50, 0
2, 67920, Note_off_c, 1, 57, 0
2, 67960, Note_on_c, 1, 50, 127
2, 67960, Note_on_c, 1, 57, 127
2, 67960, Note_on_c, 1, 66, 127
2, 67960, Note_off_c, 1, 67, 0
2, 68160, Note_off_c, 1, 57, 0
2, 68200, Note_off_c, 1, 66, 0
2, 68240, Note_on_c, 1, 57, 127
2, 68240, Note_on_c, 1, 66, 127
2, 68480, Note_off_c, 1, 50, 0
2, 68480, Note_off_c, 1, 57, 0
2, 68520, Note_on_c, 1, 50, 127
2, 68520, Note_on_c, 1, 54, 127
2, 68520, Note_on_c, 1, 57, 127
2, 68520, Note_on_c, 1, 62, 127
2, 68520, Note_off_c, 1, 66, 0
2, 68680, Note_off_c, 1, 62, 0
2, 68920, Note_on_c, 1, 35, 127
2, 68920, Note_on_c, 1, 44, 127
2, 68920, Note_off_c, 1, 50, 0
2, 68920, Note_off_c, 1, 54, 0
2, 68920, Note_off_c, 1, 57, 0
2, 68920, Note_on_c, 1, 80, 127
2, 68960, Note_off_c, 1, 35, 0
2, 68960, Note_off_c, 1, 44, 0
2, 68960, Note_on_c, 1, 46, 127
2, 68960, Note_on_c, 1, 54, 127
2, 68960, Note_on_c, 1, 65, 127
2, 68960, Note_on_c, 1, 73, 127
2, 68960, Note_on_c, 1, 77, 127
2, 68960, Note_off_c, 1, 80, 0
2, 69000, Note_off_c, 1, 46, 0
2, 69000, Note_off_c, 1, 54, 0
2, 69000, Note_off_c, 1, 65, 0
2, 69000, Note_off_c, 1, 73, 0
2, 69000, Note_off_c, 1, 77, 0
2, 69040, Note_on_c, 1, 42, 127
2, 69040, Note_on_c, 1, 50, 127
2, 69040, Note_on_c, 1, 54, 127
2, 69040, Note_on_c, 1, 69, 127
2, 69040, Note_on_c, 1, 74, 127
2, 69040, Note_on_c, 1, 81, 127
2, 69480, Note_off_c, 1, 42, 0
2, 69480, Note_off_c, 1, 50, 0
2, 69480, Note_off_c, 1, 54, 0
2, 69480, Note_off_c, 1, 69, 0
2, 69480, Note_off_c, 1, 74, 0
2, 69480, Note_off_c, 1, 81, 0
2, 69520, Note_on_c, 1, 35, 127
2, 69520, Note_on_c, 1, 66, 127
2, 69520, Note_on_c, 1, 69, 127
2, 69520, Note_on_c, 1, 71, 127
2, 69520, Note_on_c, 1, 75, 127
2, 69560, Note_off_c, 1, 35, 0
2, 69560, Note_off_c, 1, 66, 0
2, 69560, Note_off_c, 1, 69, 0
2, 69560, Note_off_c, 1, 71, 0
2, 69560, Note_off_c, 1, 75, 0
2, 69600, Note_on_c, 1, 33, 127
2, 69600, Note_on_c, 1, 42, 127
2, 69600, Note_on_c, 1, 45, 127
2, 69600, Note_on_c, 1, 54, 127
2, 69600, Note_on_c, 1, 60, 127
2, 69600, Note_on_c, 1, 63, 127
2, 69640, Note_off_c, 1, 33, 0
2, 69640, Note_off_c, 1, 42, 0
2, 69640, Note_off_c, 1, 45, 0
2, 69640, Note_off_c, 1, 54, 0
2, 69640, Note_off_c, 1, 60, 0
2, 69640, Note_off_c, 1, 63, 0
2, 69680, Note_on_c, 1, 67, 127
2, 69680, Note_on_c, 1, 71, 127
2, 69680, Note_on_c, 1, 76, 127
2, 69680, Note_on_c, 1, 78, 127
2, 69720, Note_off_c, 1, 67, 0
2, 69720, Note_off_c, 1, 71, 0
2, 69720, Note_off_c, 1, 76, 0
2, 69720, Note_off_c, 1, 78, 0
2, 69840, Note_on_c, 1, 39, 127
2, 69840, Note_on_c, 1, 51, 127
2, 69840, Note_on_c, 1, 55, 127
2, 69840, Note_on_c, 1, 60, 127
2, 69840, Note_on_c, 1, 67, 127
2, 69880, Note_off_c, 1, 39, 0
2, 69880, Note_off_c, 1, 51, 0
2, 69880, Note_off_c, 1, 55, 0
2, 69880, Note_off_c, 1, 60, 0
2, 69880, Note_off_c, 1, 67, 0
2, 70000, Note_on_c, 1, 36, 127
2, 70000, Note_on_c, 1, 48, 127
2, 70000, Note_on_c, 1, 63, 127
2, 70000, Note_on_c, 1, 69, 127
2, 70040, Note_off_c, 1, 36, 0
2, 70040, Note_off_c, 1, 48, 0
2, 70040, Note_off_c, 1, 63, 0
2, 70040, Note_off_c, 1, 69, 0
2, 71000, Note_on_c, 1, 43, 127
2, 71000, Note_on_c, 1, 55, 127
2, 71000, Note_on_c, 1, 62, 127
2, 71000, Note_on_c, 1, 67, 127
2, 71000, Note_on_c, 1, 70, 127
2, 71000, Note_on_c, 1, 74, 127
2, 71280, Note_off_c, 1, 43, 0
2, 71280, Note_off_c, 1, 55, 0
2, 71280, Note_off_c, 1, 62, 0
2, 71280, Note_off_c, 1, 67, 0
2, 71280, Note_off_c, 1, 70, 0
2, 71280, Note_off_c, 1, 74, 0
2, 71320, Note_on_c, 1, 41, 127
2, 71320, Note_on_c, 1, 53, 127
2, 71320, Note_on_c, 1, 65, 127
2, 71320, Note_on_c, 1, 70, 127
2, 71320, Note_on_c, 1, 74, 127
2, 71320, Note_on_c, 1, 77, 127
2, 71600, Note_off_c, 1, 41, 0
2, 71600, Note_off_c, 1, 53, 0
2, 71600, Note_off_c, 1, 65, 0
2, 71600, Note_off_c, 1, 70, 0
2, 71600, Note_off_c, 1, 74, 0
2, 71600, Note_off_c, 1, 77, 0
2, 71640, Note_on_c, 1, 33, 127
2, 71640, Note_on_c, 1, 45, 127
2, 71640, Note_on_c, 1, 60, 127
2, 71640, Note_on_c, 1, 67, 127
2, 71640, Note_on_c, 1, 72, 127
2, 71880, Note_off_c, 1, 33, 0
2, 71880, Note_off_c, 1, 45, 0
2, 71880, Note_off_c, 1, 60, 0
2, 71880, Note_off_c, 1, 67, 0
2, 71880, Note_off_c, 1, 72, 0
2, 71920, Note_on_c, 1, 33, 127
2, 71920, Note_on_c, 1, 45, 127
2, 71920, Note_on_c, 1, 60, 127
2, 71920, Note_on_c, 1, 67, 127
2, 71920, Note_on_c, 1, 72, 127
2, 72200, Note_off_c, 1, 33, 0
2, 72200, Note_off_c, 1, 45, 0
2, 72200, Note_off_c, 1, 60, 0
2, 72200, Note_off_c, 1, 67, 0
2, 72200, Note_off_c, 1, 72, 0
2, 72240, Note_on_c, 1, 60, 127
2, 72240, Note_on_c, 1, 65, 127
2, 72240, Note_on_c, 1, 68, 127
2, 72240, Note_on_c, 1, 72, 127
2, 72240, Note_on_c, 1, 80, 127
2, 72320, Note_off_c, 1, 60, 0
2, 72320, Note_off_c, 1, 65, 0
2, 72320, Note_off_c, 1, 68, 0
2, 72320, Note_off_c, 1, 72, 0
2, 72320, Note_off_c, 1, 80, 0
2, 72400, Note_on_c, 1, 60, 127
2, 72400, Note_on_c, 1, 64, 127
2, 72400, Note_on_c, 1, 70, 127
2, 72400, Note_on_c, 1, 72, 127
2, 72400, Note_on_c, 1, 79, 127
2, 72520, Note_off_c, 1, 60, 0
2, 72520, Note_off_c, 1, 64, 0
2, 72520, Note_off_c, 1, 70, 0
2, 72520, Note_off_c, 1, 72, 0
2, 72520, Note_off_c, 1, 79, 0
2, 72560, Note_on_c, 1, 60, 127
2, 72560, Note_on_c, 1, 64, 127
2, 72560, Note_on_c, 1, 70, 127
2, 72560, Note_on_c, 1, 72, 127
2, 72560, Note_on_c, 1, 79, 127
2, 72800, Note_off_c, 1, 60, 0
2, 72800, Note_off_c, 1, 64, 0
2, 72800, Note_off_c, 1, 70, 0
2, 72800, Note_off_c, 1, 72, 0
2, 72800, Note_off_c, 1, 79, 0
2, 72840, Note_on_c, 1, 60, 127
2, 72840, Note_on_c, 1, 67, 127
2, 72840, Note_on_c, 1, 70, 127
2, 72840, Note_on_c, 1, 72, 127
2, 72960, Note_off_c, 1, 60, 0
2, 72960, Note_off_c, 1, 67, 0
2, 72960, Note_off_c, 1, 70, 0
2, 72960, Note_off_c, 1, 72, 0
2, 73000, Note_on_c, 1, 58, 127
2, 73000, Note_on_c, 1, 65, 127
2, 73000, Note_on_c, 1, 67, 127
2, 73000, Note_on_c, 1, 73, 127
2, 73120, Note_off_c, 1, 58, 0
2, 73120, Note_off_c, 1, 65, 0
2, 73120, Note_off_c, 1, 67, 0
2, 73120, Note_off_c, 1, 73, 0
2, 73160, Note_on_c, 1, 60, 127
2, 73160, Note_on_c, 1, 64, 127
2, 73160, Note_on_c, 1, 67, 127
2, 73160, Note_on_c, 1, 72, 127
2, 73400, Note_off_c, 1, 60, 0
2, 73400, Note_off_c, 1, 64, 0
2, 73400, Note_off_c, 1, 67, 0
2, 73400, Note_off_c, 1, 72, 0
2, 73440, Note_on_c, 1, 65, 127
2, 73440, Note_on_c, 1, 69, 127
2, 73440, Note_on_c, 1, 72, 127
2, 73440, Note_on_c, 1, 77, 127
2, 73440, Note_on_c, 1, 81, 127
2, 73480, Note_off_c, 1, 65, 0
2, 73480, Note_off_c, 1, 69, 0
2, 73480, Note_off_c, 1, 72, 0
2, 73480, Note_off_c, 1, 77, 0
2, 73480, Note_off_c, 1, 81, 0
2, 73600, Note_on_c, 1, 65, 127
2, 73600, Note_on_c, 1, 69, 127
2, 73600, Note_on_c, 1, 72, 127
2, 73600, Note_on_c, 1, 77, 127
2, 73600, Note_on_c, 1, 81, 127
2, 73640, Note_off_c, 1, 65, 0
2, 73640, Note_off_c, 1, 69, 0
2, 73640, Note_off_c, 1, 72, 0
2, 73640, Note_off_c, 1, 77, 0
2, 73640, Note_off_c, 1, 81, 0
2, 73760, Note_on_c, 1, 65, 127
2, 73760, Note_on_c, 1, 69, 127
2, 73760, Note_on_c, 1, 72, 127
2, 73760, Note_on_c, 1, 77, 127
2, 73760, Note_on_c, 1, 81, 127
2, 73960, Note_off_c, 1, 65, 0
2, 73960, Note_off_c, 1, 69, 0
2, 73960, Note_off_c, 1, 72, 0
2, 73960, Note_off_c, 1, 77, 0
2, 73960, Note_off_c, 1, 81, 0
2, 74040, Note_on_c, 1, 65, 127
2, 74040, Note_on_c, 1, 69, 127
2, 74040, Note_on_c, 1, 72, 127
2, 74040, Note_on_c, 1, 77, 127
2, 74040, Note_on_c, 1, 81, 127
2, 74320, Note_off_c, 1, 65, 0
2, 74320, Note_off_c, 1, 69, 0
2, 74320, Note_off_c, 1, 72, 0
2, 74320, Note_off_c, 1, 77, 0
2, 74320, Note_off_c, 1, 81, 0
2, 74400, Note_on_c, 1, 53, 127
2, 74400, Note_on_c, 1, 57, 127
2, 74400, Note_on_c, 1, 65, 127
2, 74400, Note_on_c, 1, 77, 127
2, 74400, Note_on_c, 1, 89, 127
2, 74640, Note_off_c, 1, 53, 0
2, 74640, Note_off_c, 1, 57, 0
2, 74640, Note_off_c, 1, 65, 0
2, 74640, Note_off_c, 1, 77, 0
2, 74640, Note_off_c, 1, 89, 0
2, 74680, Note_on_c, 1, 53, 127
2, 74680, Note_on_c, 1, 60, 127
2, 74680, Note_on_c, 1, 65, 127
2, 74680, Note_on_c, 1, 69, 127
2, 74680, Note_on_c, 1, 72, 127
2, 74680, Note_on_c, 1, 77, 127
2, 74720, Note_off_c, 1, 53, 0
2, 74720, Note_on_c, 1, 55, 127
2, 74720, Note_on_c, 1, 58, 127
2, 74720, Note_off_c, 1, 60, 0
2, 74720, Note_on_c, 1, 62, 127
2, 74720, Note_off_c, 1, 65, 0
2, 74720, Note_on_c, 1, 67, 127
2, 74720, Note_off_c, 1, 69, 0
2, 74720, Note_on_c, 1, 70, 127
2, 74720, Note_off_c, 1, 72, 0
2, 74720, Note_off_c, 1, 77, 0
2, 74760, Note_on_c, 1, 41, 127
2, 74760, Note_on_c, 1, 46, 127
2, 74760, Note_on_c, 1, 53, 127
2, 74760, Note_off_c, 1, 55, 0
2, 74760, Note_on_c, 1, 61, 127
2, 74760, Note_off_c, 1, 62, 0
2, 74760, Note_off_c, 1, 67, 0
2, 74760, Note_off_c, 1, 70, 0
2, 74800, Note_off_c, 1, 41, 0
2, 74800, Note_off_c, 1, 46, 0
2, 74800, Note_off_c, 1, 53, 0
2, 74800, Note_off_c, 1, 58, 0
2, 74800, Note_off_c, 1, 61, 0
2, 74800, Note_on_c, 1, 64, 127
2, 74800, Note_on_c, 1, 86, 127
2, 74800, Note_on_c, 1, 87, 127
2, 74800, Note_on_c, 1, 89, 127
2, 74800, Note_on_c, 1, 90, 127
2, 74840, Note_on_c, 1, 37, 127
2, 74840, Note_on_c, 1, 44, 127
2, 74840, Note_off_c, 1, 64, 0
2, 74840, Note_on_c, 1, 68, 127
2, 74840, Note_on_c, 1, 72, 127
2, 74840, Note_on_c, 1, 77, 127
2, 74840, Note_on_c, 1, 80, 127
2, 74840, Note_off_c, 1, 86, 0
2, 74840, Note_off_c, 1, 87, 0
2, 74840, Note_off_c, 1, 89, 0
2, 74840, Note_off_c, 1, 90, 0
2, 74880, Note_off_c, 1, 37, 0
2, 74880, Note_off_c, 1, 44, 0
2, 74880, Note_on_c, 1, 52, 127
2, 74880, Note_off_c, 1, 68, 0
2, 74880, Note_off_c, 1, 77, 0
2, 74880, Note_off_c, 1, 80, 0
2, 74880, Note_on_c, 1, 82, 127
2, 74920, Note_on_c, 1, 28, 127
2, 74920, Note_on_c, 1, 39, 127
2, 74920, Note_on_c, 1, 40, 127
2, 74920, Note_on_c, 1, 47, 127
2, 74920, Note_on_c, 1, 51, 127
2, 74920, Note_on_c, 1, 59, 127
2, 74920, Note_on_c, 1, 68, 127
2, 74920, Note_on_c, 1, 71, 127
2, 74920, Note_off_c, 1, 72, 0
2, 74920, Note_off_c, 1, 82, 0
2, 74960, Note_off_c, 1, 28, 0
2, 74960, Note_off_c, 1, 39, 0
2, 74960, Note_off_c, 1, 40, 0
2, 74960, Note_off_c, 1, 47, 0
2, 74960, Note_off_c, 1, 51, 0
2, 74960, Note_off_c, 1, 52, 0
2, 74960, Note_off_c, 1, 59, 0
2, 74960, Note_off_c, 1, 68, 0
2, 74960, Note_off_c, 1, 71, 0
2, 75000, Note_on_c, 1, 60, 127
2, 75000, Note_on_c, 1, 68, 127
2, 75000, Note_on_c, 1, 71, 127
2, 75000, Note_on_c, 1, 74, 127
2, 75000, Note_on_c, 1, 77, 127
2, 75000, Note_on_c, 1, 86, 127
2, 75120, Note_on_c, 1, 54, 127
2, 75120, Note_off_c, 1, 60, 0
2, 75120, Note_on_c, 1, 63, 127
2, 75120, Note_on_c, 1, 66, 127
2, 75120, Note_off_c, 1, 68, 0
2, 75120, Note_off_c, 1, 71, 0
2, 75120, Note_off_c, 1, 74, 0
2, 75120, Note_on_c, 1, 75, 127
2, 75120, Note_off_c, 1, 77, 0
2, 75120, Note_on_c, 1, 78, 127
2, 75120, Note_off_c, 1, 86, 0
2, 75160, Note_off_c, 1, 54, 0
2, 75160, Note_on_c, 1, 60, 127
2, 75160, Note_off_c, 1, 63, 0
2, 75160, Note_off_c, 1, 66, 0
2, 75160, Note_on_c, 1, 68, 127
2, 75160, Note_on_c, 1, 71, 127
2, 75160, Note_on_c, 1, 74, 127
2, 75160, Note_off_c, 1, 75, 0
2, 75160, Note_on_c, 1, 77, 127
2, 75160, Note_off_c, 1, 78, 0
2, 75200, Note_off_c, 1, 60, 0
2, 75200, Note_off_c, 1, 68, 0
2, 75200, Note_off_c, 1, 71, 0
2, 75200, Note_off_c, 1, 74, 0
2, 75200, Note_off_c, 1, 77, 0
2, 75280, Note_on_c, 1, 28, 127
2, 75280, Note_on_c, 1, 40, 127
2, 75280, Note_on_c, 1, 56, 127
2, 75280, Note_on_c, 1, 59, 127
2, 75280, Note_on_c, 1, 64, 127
2, 75440, Note_off_c, 1, 28, 0
2, 75440, Note_off_c, 1, 40, 0
2, 75440, Note_off_c, 1, 56, 0
2, 75440, Note_off_c, 1, 59, 0
2, 75440, Note_off_c, 1, 64, 0
2, 75600, Note_on_c, 1, 47, 127
2, 75600, Note_on_c, 1, 54, 127
2, 75600, Note_on_c, 1, 56, 127
2, 75600, Note_on_c, 1, 63, 127
2, 75600, Note_on_c, 1, 66, 127
2, 75600, Note_on_c, 1, 68, 127
2, 75640, Note_off_c, 1, 47, 0
2, 75640, Note_off_c, 1, 54, 0
2, 75640, Note_off_c, 1, 56, 0
2, 75640, Note_off_c, 1, 63, 0
2, 75640, Note_off_c, 1, 66, 0
2, 75640, Note_off_c, 1, 68, 0
2, 75760, Note_on_c, 1, 49, 127
2, 75760, Note_on_c, 1, 54, 127
2, 75760, Note_on_c, 1, 58, 127
2, 75760, Note_on_c, 1, 64, 127
2, 75760, Note_on_c, 1, 66, 127
2, 75760, Note_on_c, 1, 70, 127
2, 75800, Note_off_c, 1, 49, 0
2, 75800, Note_off_c, 1, 54, 0
2, 75800, Note_off_c, 1, 58, 0
2, 75800, Note_off_c, 1, 64, 0
2, 75800, Note_off_c, 1, 66, 0
2, 75800, Note_off_c, 1, 70, 0
2, 75880, Note_on_c, 1, 49, 127
2, 75880, Note_on_c, 1, 54, 127
2, 75880, Note_on_c, 1, 58, 127
2, 75880, Note_on_c, 1, 64, 127
2, 75880, Note_on_c, 1, 66, 127
2, 75880, Note_on_c, 1, 70, 127
2, 75920, Note_off_c, 1, 49, 0
2, 75920, Note_off_c, 1, 54, 0
2, 75920, Note_off_c, 1, 58, 0
2, 75920, Note_off_c, 1, 64, 0
2, 75920, Note_off_c, 1, 66, 0
2, 75920, Note_off_c, 1, 70, 0
2, 75960, Note_on_c, 1, 49, 127
2, 75960, Note_on_c, 1, 54, 127
2, 75960, Note_on_c, 1, 58, 127
2, 75960, Note_on_c, 1, 64, 127
2, 75960, Note_on_c, 1, 66, 127
2, 75960, Note_on_c, 1, 70, 127
2, 76000, Note_off_c, 1, 49, 0
2, 76000, Note_off_c, 1, 54, 0
2, 76000, Note_off_c, 1, 58, 0
2, 76000, Note_off_c, 1, 64, 0
2, 76000, Note_off_c, 1, 66, 0
2, 76000, Note_off_c, 1, 70, 0
2, 76040, Note_on_c, 1, 49, 127
2, 76040, Note_on_c, 1, 54, 127
2, 76040, Note_on_c, 1, 58, 127
2, 76040, Note_on_c, 1, 64, 127
2, 76040, Note_on_c, 1, 66, 127
2, 76040, Note_on_c, 1, 70, 127
2, 76080, Note_off_c, 1, 49, 0
2, 76080, Note_off_c, 1, 54, 0
2, 76080, Note_off_c, 1, 58, 0
2, 76080, Note_off_c, 1, 64, 0
2, 76080, Note_off_c, 1, 66, 0
2, 76080, Note_off_c, 1, 70, 0
2, 76200, Note_on_c, 1, 49, 127
2, 76200, Note_on_c, 1, 54, 127
2, 76200, Note_on_c, 1, 58, 127
2, 76200, Note_on_c, 1, 64, 127
2, 76200, Note_on_c, 1, 66, 127
2, 76200, Note_on_c, 1, 70, 127
2, 76280, Note_off_c, 1, 49, 0
2, 76280, Note_off_c, 1, 54, 0
2, 76280, Note_off_c, 1, 58, 0
2, 76280, Note_off_c, 1, 64, 0
2, 76280, Note_off_c, 1, 66, 0
2, 76280, Note_off_c, 1, 70, 0
2, 76320, Note_on_c, 1, 49, 127
2, 76320, Note_on_c, 1, 54, 127
2, 76320, Note_on_c, 1, 58, 127
2, 76320, Note_on_c, 1, 64, 127
2, 76320, Note_on_c, 1, 66, 127
2, 76320, Note_on_c, 1, 70, 127
2, 76360, Note_off_c, 1, 49, 0
2, 76360, Note_off_c, 1, 54, 0
2, 76360, Note_off_c, 1, 58, 0
2, 76360, Note_off_c, 1, 64, 0
2, 76360, Note_off_c, 1, 66, 0
2, 76360, Note_off_c, 1, 70, 0
2, 76400, Note_on_c, 1, 49, 127
2, 76400, Note_on_c, 1, 54, 127
2, 76400, Note_on_c, 1, 58, 127
2, 76400, Note_on_c, 1, 64, 127
2, 76400, Note_on_c, 1, 66, 127
2, 76400, Note_on_c, 1, 70, 127
2, 76440, Note_off_c, 1, 49, 0
2, 76440, Note_off_c, 1, 54, 0
2, 76440, Note_off_c, 1, 58, 0
2, 76440, Note_off_c, 1, 64, 0
2, 76440, Note_off_c, 1, 66, 0
2, 76440, Note_off_c, 1, 70, 0
2, 76520, Note_on_c, 1, 49, 127
2, 76520, Note_on_c, 1, 54, 127
2, 76520, Note_on_c, 1, 58, 127
2, 76520, Note_on_c, 1, 64, 127
2, 76520, Note_on_c, 1, 66, 127
2, 76520, Note_on_c, 1, 70, 127
2, 76560, Note_off_c, 1, 49, 0
2, 76560, Note_off_c, 1, 54, 0
2, 76560, Note_off_c, 1, 58, 0
2, 76560, Note_off_c, 1, 64, 0
2, 76560, Note_off_c, 1, 66, 0
2, 76560, Note_off_c, 1, 70, 0
2, 76600, Note_on_c, 1, 49, 127
2, 76600, Note_on_c, 1, 54, 127
2, 76600, Note_on_c, 1, 58, 127
2, 76600, Note_on_c, 1, 64, 127
2, 76600, Note_on_c, 1, 66, 127
2, 76600, Note_on_c, 1, 70, 127
2, 76640, Note_off_c, 1, 49, 0
2, 76640, Note_off_c, 1, 54, 0
2, 76640, Note_off_c, 1, 58, 0
2, 76640, Note_off_c, 1, 64, 0
2, 76640, Note_off_c, 1, 66, 0
2, 76640, Note_off_c, 1, 70, 0
2, 76680, Note_on_c, 1, 49, 127
2, 76680, Note_on_c, 1, 54, 127
2, 76680, Note_on_c, 1, 58, 127
2, 76680, Note_on_c, 1, 64, 127
2, 76680, Note_on_c, 1, 66, 127
2, 76680, Note_on_c, 1, 70, 127
2, 76800, Note_off_c, 1, 49, 0
2, 76800, Note_off_c, 1, 54, 0
2, 76800, Note_off_c, 1, 58, 0
2, 76800, Note_off_c, 1, 64, 0
2, 76800, Note_off_c, 1, 66, 0
2, 76800, Note_off_c, 1, 70, 0
2, 76840, Note_on_c, 1, 49, 127
2, 76840, Note_on_c, 1, 54, 127
2, 76840, Note_on_c, 1, 58, 127
2, 76840, Note_on_c, 1, 64, 127
2, 76840, Note_on_c, 1, 66, 127
2, 76840, Note_on_c, 1, 70, 127
2, 76880, Note_off_c, 1, 49, 0
2, 76880, Note_off_c, 1, 54, 0
2, 76880, Note_off_c, 1, 58, 0
2, 76880, Note_off_c, 1, 64, 0
2, 76880, Note_off_c, 1, 66, 0
2, 76880, Note_off_c, 1, 70, 0
2, 76920, Note_on_c, 1, 49, 127
2, 76920, Note_on_c, 1, 54, 127
2, 76920, Note_on_c, 1, 58, 127
2, 76920, Note_on_c, 1, 64, 127
2, 76920, Note_on_c, 1, 66, 127
2, 76920, Note_on_c, 1, 70, 127
2, 76960, Note_off_c, 1, 49, 0
2, 76960, Note_off_c, 1, 54, 0
2, 76960, Note_off_c, 1, 58, 0
2, 76960, Note_off_c, 1, 64, 0
2, 76960, Note_off_c, 1, 66, 0
2, 76960, Note_off_c, 1, 70, 0
2, 77000, Note_on_c, 1, 49, 127
2, 77000, Note_on_c, 1, 54, 127
2, 77000, Note_on_c, 1, 58, 127
2, 77000, Note_on_c, 1, 64, 127
2, 77000, Note_on_c, 1, 66, 127
2, 77000, Note_on_c, 1, 70, 127
2, 77080, Note_off_c, 1, 49, 0
2, 77080, Note_off_c, 1, 58, 0
2, 77080, Note_off_c, 1, 64, 0
2, 77080, Note_off_c, 1, 70, 0
2, 77120, Note_on_c, 1, 50, 127
2, 77120, Note_on_c, 1, 59, 127
2, 77120, Note_on_c, 1, 62, 127
2, 77120, Note_on_c, 1, 71, 127
2, 77160, Note_off_c, 1, 50, 0
2, 77160, Note_off_c, 1, 54, 0
2, 77160, Note_off_c, 1, 59, 0
2, 77160, Note_off_c, 1, 62, 0
2, 77160, Note_off_c, 1, 66, 0
2, 77160, Note_off_c, 1, 71, 0
2, 77280, Note_on_c, 1, 58, 127
2, 77280, Note_on_c, 1, 64, 127
2, 77280, Note_on_c, 1, 68, 127
2, 77280, Note_on_c, 1, 70, 127
2, 77280, Note_on_c, 1, 74, 127
2, 77280, Note_on_c, 1, 80, 127
2, 77360, Note_off_c, 1, 58, 0
2, 77360, Note_off_c, 1, 64, 0
2, 77360, Note_off_c, 1, 68, 0
2, 77360, Note_off_c, 1, 70, 0
2, 77360, Note_off_c, 1, 74, 0
2, 77360, Note_off_c, 1, 80, 0
2, 77440, Note_on_c, 1, 58, 127
2, 77440, Note_on_c, 1, 64, 127
2, 77440, Note_on_c, 1, 68, 127
2, 77440, Note_on_c, 1, 70, 127
2, 77440, Note_on_c, 1, 74, 127
2, 77440, Note_on_c, 1, 80, 127
2, 77520, Note_off_c, 1, 58, 0
2, 77520, Note_off_c, 1, 64, 0
2, 77520, Note_off_c, 1, 68, 0
2, 77520, Note_off_c, 1, 70, 0
2, 77520, Note_off_c, 1, 74, 0
2, 77520, Note_off_c, 1, 80, 0
2, 77600, Note_on_c, 1, 48, 127
2, 77600, Note_on_c, 1, 52, 127
2, 77600, Note_on_c, 1, 60, 127
2, 77600, Note_on_c, 1, 71, 127
2, 77600, Note_on_c, 1, 76, 127
2, 77640, Note_on_c, 1, 38, 127
2, 77640, Note_off_c, 1, 48, 0
2, 77640, Note_on_c, 1, 50, 127
2, 77640, Note_off_c, 1, 52, 0
2, 77640, Note_on_c, 1, 59, 127
2, 77640, Note_off_c, 1, 60, 0
2, 77640, Note_on_c, 1, 62, 127
2, 77640, Note_on_c, 1, 67, 127
2, 77640, Note_off_c, 1, 76, 0
2, 77680, Note_off_c, 1, 38, 0
2, 77680, Note_off_c, 1, 50, 0
2, 77680, Note_off_c, 1, 59, 0
2, 77680, Note_off_c, 1, 62, 0
2, 77680, Note_off_c, 1, 67, 0
2, 77680, Note_off_c, 1, 71, 0
2, 77720, Note_on_c, 1, 49, 127
2, 77720, Note_on_c, 1, 57, 127
2, 77720, Note_on_c, 1, 61, 127
2, 77720, Note_on_c, 1, 69, 127
2, 77720, Note_on_c, 1, 76, 127
2, 77720, Note_on_c, 1, 79, 127
2, 77720, Note_on_c, 1, 81, 127
2, 77840, Note_off_c, 1, 49, 0
2, 77840, Note_off_c, 1, 57, 0
2, 77840, Note_off_c, 1, 61, 0
2, 77840, Note_off_c, 1, 69, 0
2, 77840, Note_off_c, 1, 76, 0
2, 77840, Note_off_c, 1, 79, 0
2, 77840, Note_off_c, 1, 81, 0
2, 77880, Note_on_c, 1, 49, 127
2, 77880, Note_on_c, 1, 57, 127
2, 77880, Note_on_c, 1, 61, 127
2, 77880, Note_on_c, 1, 69, 127
2, 77880, Note_on_c, 1, 76, 127
2, 77880, Note_on_c, 1, 79, 127
2, 77880, Note_on_c, 1, 81, 127
2, 78000, Note_off_c, 1, 49, 0
2, 78000, Note_off_c, 1, 57, 0
2, 78000, Note_off_c, 1, 61, 0
2, 78000, Note_off_c, 1, 69, 0
2, 78000, Note_off_c, 1, 76, 0
2, 78000, Note_off_c, 1, 79, 0
2, 78000, Note_off_c, 1, 81, 0
2, 78040, Note_on_c, 1, 49, 127
2, 78040, Note_on_c, 1, 57, 127
2, 78040, Note_on_c, 1, 61, 127
2, 78040, Note_on_c, 1, 69, 127
2, 78040, Note_on_c, 1, 76, 127
2, 78040, Note_on_c, 1, 79, 127
2, 78040, Note_on_c, 1, 81, 127
2, 78120, Note_off_c, 1, 49, 0
2, 78120, Note_off_c, 1, 57, 0
2, 78120, Note_off_c, 1, 61, 0
2, 78120, Note_off_c, 1, 69, 0
2, 78120, Note_off_c, 1, 76, 0
2, 78120, Note_off_c, 1, 79, 0
2, 78120, Note_off_c, 1, 81, 0
2, 78200, Note_on_c, 1, 49, 127
2, 78200, Note_on_c, 1, 57, 127
2, 78200, Note_on_c, 1, 61, 127
2, 78200, Note_on_c, 1, 69, 127
2, 78200, Note_on_c, 1, 76, 127
2, 78200, Note_on_c, 1, 79, 127
2, 78200, Note_on_c, 1, 81, 127
2, 78280, Note_off_c, 1, 49, 0
2, 78280, Note_off_c, 1, 57, 0
2, 78280, Note_off_c, 1, 61, 0
2, 78280, Note_off_c, 1, 69, 0
2, 78280, Note_off_c, 1, 76, 0
2, 78280, Note_off_c, 1, 79, 0
2, 78280, Note_off_c, 1, 81, 0
2, 78320, Note_on_c, 1, 49, 127
2, 78320, Note_on_c, 1, 57, 127
2, 78320, Note_on_c, 1, 61, 127
2, 78320, Note_on_c, 1, 69, 127
2, 78320, Note_on_c, 1, 76, 127
2, 78320, Note_on_c, 1, 79, 127
2, 78320, Note_on_c, 1, 81, 127
2, 78440, Note_off_c, 1, 49, 0
2, 78440, Note_off_c, 1, 57, 0
2, 78440, Note_off_c, 1, 61, 0
2, 78440, Note_off_c, 1, 69, 0
2, 78440, Note_off_c, 1, 76, 0
2, 78440, Note_off_c, 1, 79, 0
2, 78440, Note_off_c, 1, 81, 0
2, 78520, Note_on_c, 1, 49, 127
2, 78520, Note_on_c, 1, 57, 127
2, 78520, Note_on_c, 1, 61, 127
2, 78520, Note_on_c, 1, 69, 127
2, 78520, Note_on_c, 1, 76, 127
2, 78520, Note_on_c, 1, 79, 127
2, 78520, Note_on_c, 1, 81, 127
2, 78600, Note_off_c, 1, 49, 0
2, 78600, Note_off_c, 1, 57, 0
2, 78600, Note_off_c, 1, 61, 0
2, 78600, Note_off_c, 1, 69, 0
2, 78600, Note_off_c, 1, 76, 0
2, 78600, Note_off_c, 1, 79, 0
2, 78600, Note_off_c, 1, 81, 0
2, 78640, Note_on_c, 1, 49, 127
2, 78640, Note_on_c, 1, 57, 127
2, 78640, Note_on_c, 1, 61, 127
2, 78640, Note_on_c, 1, 69, 127
2, 78640, Note_on_c, 1, 76, 127
2, 78640, Note_on_c, 1, 79, 127
2, 78640, Note_on_c, 1, 81, 127
2, 78760, Note_off_c, 1, 49, 0
2, 78760, Note_off_c, 1, 57, 0
2, 78760, Note_off_c, 1, 61, 0
2, 78760, Note_off_c, 1, 69, 0
2, 78760, Note_off_c, 1, 76, 0
2, 78760, Note_off_c, 1, 79, 0
2, 78760, Note_off_c, 1, 81, 0
2, 78800, Note_on_c, 1, 46, 127
2, 78800, Note_on_c, 1, 53, 127
2, 78800, Note_on_c, 1, 74, 127
2, 78800, Note_on_c, 1, 77, 127
2, 78800, Note_on_c, 1, 82, 127
2, 78880, Note_off_c, 1, 46, 0
2, 78880, Note_off_c, 1, 53, 0
2, 78880, Note_off_c, 1, 74, 0
2, 78880, Note_off_c, 1, 77, 0
2, 78880, Note_off_c, 1, 82, 0
2, 78920, Note_on_c, 1, 46, 127
2, 78920, Note_on_c, 1, 53, 127
2, 78920, Note_on_c, 1, 74, 127
2, 78920, Note_on_c, 1, 77, 127
2, 78920, Note_on_c, 1, 82, 127
2, 79040, Note_off_c, 1, 46, 0
2, 79040, Note_off_c, 1, 53, 0
2, 79040, Note_off_c, 1, 74, 0
2, 79040, Note_off_c, 1, 77, 0
2, 79040, Note_off_c, 1, 82, 0
2, 79080, Note_on_c, 1, 46, 127
2, 79080, Note_on_c, 1, 53, 127
2, 79080, Note_on_c, 1, 74, 127
2, 79080, Note_on_c, 1, 77, 127
2, 79080, Note_on_c, 1, 84, 127
2, 79200, Note_off_c, 1, 46, 0
2, 79200, Note_off_c, 1, 53, 0
2, 79200, Note_off_c, 1, 74, 0
2, 79200, Note_off_c, 1, 77, 0
2, 79200, Note_off_c, 1, 84, 0
2, 79240, Note_on_c, 1, 48, 127
2, 79240, Note_on_c, 1, 53, 127
2, 79240, Note_on_c, 1, 75, 127
2, 79240, Note_on_c, 1, 77, 127
2, 79240, Note_on_c, 1, 82, 127
2, 79320, Note_off_c, 1, 48, 0
2, 79320, Note_off_c, 1, 53, 0
2, 79320, Note_off_c, 1, 75, 0
2, 79320, Note_off_c, 1, 77, 0
2, 79320, Note_off_c, 1, 82, 0
2, 79360, Note_on_c, 1, 46, 127
2, 79360, Note_on_c, 1, 53, 127
2, 79360, Note_on_c, 1, 62, 127
2, 79360, Note_on_c, 1, 65, 127
2, 79360, Note_on_c, 1, 74, 127
2, 79640, Note_off_c, 1, 46, 0
2, 79640, Note_off_c, 1, 53, 0
2, 79640, Note_off_c, 1, 62, 0
2, 79640, Note_off_c, 1, 65, 0
2, 79640, Note_off_c, 1, 74, 0
2, 79680, Note_on_c, 1, 46, 127
2, 79680, Note_on_c, 1, 55, 127
2, 79680, Note_on_c, 1, 70, 127
2, 79680, Note_on_c, 1, 75, 127
2, 79920, Note_off_c, 1, 46, 0
2, 79920, Note_off_c, 1, 55, 0
2, 79920, Note_off_c, 1, 70, 0
2, 79920, Note_off_c, 1, 75, 0
2, 79960, Note_on_c, 1, 46, 127
2, 79960, Note_on_c, 1, 55, 127
2, 79960, Note_on_c, 1, 63, 127
2, 79960, Note_on_c, 1, 75, 127
2, 80200, Note_off_c, 1, 46, 0
2, 80200, Note_off_c, 1, 55, 0
2, 80200, Note_off_c, 1, 63, 0
2, 80200, Note_off_c, 1, 75, 0
2, 80240, Note_on_c, 1, 41, 127
2, 80240, Note_on_c, 1, 53, 127
2, 80240, Note_on_c, 1, 63, 127
2, 80240, Note_on_c, 1, 69, 127
2, 80240, Note_on_c, 1, 75, 127
2, 80400, Note_off_c, 1, 41, 0
2, 80400, Note_off_c, 1, 53, 0
2, 80400, Note_off_c, 1, 63, 0
2, 80400, Note_off_c, 1, 69, 0
2, 80400, Note_off_c, 1, 75, 0
2, 80440, Note_on_c, 1, 41, 127
2, 80440, Note_on_c, 1, 53, 127
2, 80440, Note_on_c, 1, 63, 127
2, 80440, Note_on_c, 1, 69, 127
2, 80440, Note_on_c, 1, 75, 127
2, 80520, Note_off_c, 1, 41, 0
2, 80520, Note_off_c, 1, 53, 0
2, 80520, Note_off_c, 1, 63, 0
2, 80520, Note_off_c, 1, 69, 0
2, 80520, Note_off_c, 1, 75, 0
2, 80560, Note_on_c, 1, 43, 127
2, 80560, Note_on_c, 1, 55, 127
2, 80560, Note_on_c, 1, 63, 127
2, 80560, Note_on_c, 1, 75, 127
2, 80840, Note_off_c, 1, 43, 0
2, 80840, Note_off_c, 1, 55, 0
2, 80840, Note_off_c, 1, 63, 0
2, 80840, Note_off_c, 1, 75, 0
2, 80880, Note_on_c, 1, 43, 127
2, 80880, Note_on_c, 1, 52, 127
2, 80880, Note_on_c, 1, 71, 127
2, 80880, Note_on_c, 1, 74, 127
2, 80880, Note_on_c, 1, 83, 127
2, 80960, Note_off_c, 1, 43, 0
2, 80960, Note_off_c, 1, 52, 0
2, 80960, Note_off_c, 1, 71, 0
2, 80960, Note_off_c, 1, 74, 0
2, 80960, Note_off_c, 1, 83, 0
2, 81000, Note_on_c, 1, 42, 127
2, 81000, Note_on_c, 1, 52, 127
2, 81000, Note_on_c, 1, 71, 127
2, 81000, Note_on_c, 1, 74, 127
2, 81000, Note_on_c, 1, 83, 127
2, 81120, Note_off_c, 1, 42, 0
2, 81120, Note_off_c, 1, 52, 0
2, 81120, Note_off_c, 1, 71, 0
2, 81120, Note_off_c, 1, 74, 0
2, 81120, Note_off_c, 1, 83, 0
2, 81160, Note_on_c, 1, 42, 127
2, 81160, Note_on_c, 1, 52, 127
2, 81160, Note_on_c, 1, 71, 127
2, 81160, Note_on_c, 1, 74, 127
2, 81160, Note_on_c, 1, 83, 127
2, 81400, Note_off_c, 1, 42, 0
2, 81400, Note_off_c, 1, 52, 0
2, 81400, Note_off_c, 1, 71, 0
2, 81400, Note_off_c, 1, 74, 0
2, 81400, Note_off_c, 1, 83, 0
2, 81440, Note_on_c, 1, 42, 127
2, 81440, Note_on_c, 1, 52, 127
2, 81440, Note_on_c, 1, 70, 127
2, 81440, Note_on_c, 1, 73, 127
2, 81440, Note_on_c, 1, 82, 127
2, 81720, Note_off_c, 1, 42, 0
2, 81720, Note_off_c, 1, 52, 0
2, 81720, Note_off_c, 1, 70, 0
2, 81720, Note_off_c, 1, 73, 0
2, 81720, Note_off_c, 1, 82, 0
2, 81760, Note_on_c, 1, 56, 127
2, 81760, Note_on_c, 1, 63, 127
2, 81760, Note_on_c, 1, 66, 127
2, 81760, Note_on_c, 1, 72, 127
2, 81760, Note_on_c, 1, 82, 127
2, 82000, Note_on_c, 1, 40, 127
2, 82000, Note_off_c, 1, 56, 0
2, 82000, Note_off_c, 1, 63, 0
2, 82000, Note_off_c, 1, 66, 0
2, 82000, Note_off_c, 1, 72, 0
2, 82000, Note_off_c, 1, 82, 0
2, 82040, Note_off_c, 1, 40, 0
2, 82040, Note_on_c, 1, 50, 127
2, 82040, Note_on_c, 1, 55, 127
2, 82040, Note_on_c, 1, 62, 127
2, 82040, Note_on_c, 1, 83, 127
2, 82160, Note_off_c, 1, 62, 0
2, 82160, Note_off_c, 1, 83, 0
2, 82200, Note_on_c, 1, 62, 127
2, 82200, Note_on_c, 1, 71, 127
2, 82200, Note_on_c, 1, 74, 127
2, 82280, Note_off_c, 1, 50, 0
2, 82280, Note_off_c, 1, 55, 0
2, 82280, Note_off_c, 1, 62, 0
2, 82280, Note_off_c, 1, 71, 0
2, 82280, Note_off_c, 1, 74, 0
2, 82320, Note_on_c, 1, 48, 127
2, 82320, Note_on_c, 1, 55, 127
2, 82320, Note_on_c, 1, 60, 127
2, 82320, Note_on_c, 1, 63, 127
2, 82440, Note_off_c, 1, 60, 0
2, 82440, Note_off_c, 1, 63, 0
2, 82480, Note_off_c, 1, 48, 0
2, 82480, Note_off_c, 1, 55, 0
2, 82520, Note_on_c, 1, 48, 127
2, 82520, Note_on_c, 1, 55, 127
2, 82520, Note_on_c, 1, 60, 127
2, 82520, Note_on_c, 1, 63, 127
2, 82520, Note_on_c, 1, 67, 127
2, 82520, Note_on_c, 1, 72, 127
2, 82520, Note_on_c, 1, 75, 127
2, 82600, Note_off_c, 1, 48, 0
2, 82600, Note_off_c, 1, 55, 0
2, 82600, Note_off_c, 1, 60, 0
2, 82600, Note_off_c, 1, 63, 0
2, 82600, Note_off_c, 1, 67, 0
2, 82600, Note_off_c, 1, 72, 0
2, 82600, Note_off_c, 1, 75, 0
2, 82920, Note_on_c, 1, 43, 127
2, 82920, Note_on_c, 1, 47, 127
2, 82920, Note_on_c, 1, 50, 127
2, 82920, Note_on_c, 1, 55, 127
2, 82920, Note_on_c, 1, 62, 127
2, 82920, Note_on_c, 1, 67, 127
2, 82920, Note_on_c, 1, 71, 127
2, 82920, Note_on_c, 1, 74, 127
2, 83160, Note_off_c, 1, 43, 0
2, 83160, Note_off_c, 1, 47, 0
2, 83160, Note_off_c, 1, 50, 0
2, 83160, Note_off_c, 1, 55, 0
2, 83160, Note_off_c, 1, 62, 0
2, 83160, Note_off_c, 1, 67, 0
2, 83160, Note_off_c, 1, 71, 0
2, 83160, Note_off_c, 1, 74, 0
2, 83200, Note_on_c, 1, 40, 127
2, 83200, Note_on_c, 1, 52, 127
2, 83200, Note_on_c, 1, 59, 127
2, 83200, Note_on_c, 1, 64, 127
2, 83200, Note_on_c, 1, 67, 127
2, 83760, Note_off_c, 1, 40, 0
2, 83760, Note_off_c, 1, 52, 0
2, 83760, Note_off_c, 1, 59, 0
2, 83760, Note_off_c, 1, 64, 0
2, 83760, Note_off_c, 1, 67, 0
2, 83800, Note_on_c, 1, 38, 127
2, 83800, Note_on_c, 1, 50, 127
2, 83800, Note_on_c, 1, 59, 127
2, 83800, Note_on_c, 1, 67, 127
2, 83800, Note_on_c, 1, 71, 127
2, 84640, Note_off_c, 1, 38, 0
2, 84640, Note_off_c, 1, 50, 0
2, 84640, Note_off_c, 1, 59, 0
2, 84640, Note_off_c, 1, 67, 0
2, 84640, Note_off_c, 1, 71, 0
2, 84680, Note_on_c, 1, 38, 127
2, 84680, Note_on_c, 1, 50, 127
2, 84680, Note_on_c, 1, 59, 127
2, 84680, Note_on_c, 1, 67, 127
2, 84680, Note_on_c, 1, 71, 127
2, 85360, Note_on_c, 1, 37, 127
2, 85360, Note_off_c, 1, 38, 0
2, 85360, Note_on_c, 1, 49, 127
2, 85360, Note_off_c, 1, 50, 0
2, 85360, Note_on_c, 1, 58, 127
2, 85360, Note_off_c, 1, 59, 0
2, 85360, Note_on_c, 1, 66, 127
2, 85360, Note_off_c, 1, 67, 0
2, 85360, Note_on_c, 1, 70, 127
2, 85360, Note_off_c, 1, 71, 0
2, 85400, Note_off_c, 1, 37, 0
2, 85400, Note_on_c, 1, 38, 127
2, 85400, Note_off_c, 1, 49, 0
2, 85400, Note_on_c, 1, 50, 127
2, 85400, Note_off_c, 1, 58, 0
2, 85400, Note_off_c, 1, 66, 0
2, 85400, Note_off_c, 1, 70, 0
2, 85440, Note_on_c, 1, 60, 127
2, 85440, Note_on_c, 1, 66, 127
2, 85440, Note_on_c, 1, 74, 127
2, 86560, Note_off_c, 1, 38, 0
2, 86560, Note_off_c, 1, 50, 0
2, 86560, Note_off_c, 1, 60, 0
2, 86560, Note_off_c, 1, 66, 0
2, 86560, Note_off_c, 1, 74, 0
2, 86600, Note_on_c, 1, 35, 127
2, 86600, Note_on_c, 1, 51, 127
2, 86600, Note_on_c, 1, 54, 127
2, 86600, Note_on_c, 1, 59, 127
2, 86600, Note_on_c, 1, 63, 127
2, 86640, Note_off_c, 1, 35, 0
2, 86640, Note_on_c, 1, 45, 127
2, 86640, Note_off_c, 1, 51, 0
2, 86640, Note_off_c, 1, 54, 0
2, 86640, Note_on_c, 1, 55, 127
2, 86640, Note_off_c, 1, 59, 0
2, 86640, Note_on_c, 1, 60, 127
2, 86640, Note_off_c, 1, 63, 0
2, 86640, Note_on_c, 1, 69, 127
2, 86680, Note_off_c, 1, 45, 0
2, 86680, Note_on_c, 1, 50, 127
2, 86680, Note_off_c, 1, 55, 0
2, 86680, Note_on_c, 1, 57, 127
2, 86680, Note_on_c, 1, 67, 127
2, 86680, Note_off_c, 1, 69, 0
2, 86680, Note_on_c, 1, 86, 127
2, 86720, Note_on_c, 1, 39, 127
2, 86720, Note_off_c, 1, 50, 0
2, 86720, Note_on_c, 1, 56, 127
2, 86720, Note_off_c, 1, 57, 0
2, 86720, Note_off_c, 1, 67, 0
2, 86720, Note_on_c, 1, 68, 127
2, 86720, Note_on_c, 1, 72, 127
2, 86720, Note_off_c, 1, 86, 0
2, 86760, Note_on_c, 1, 34, 127
2, 86760, Note_off_c, 1, 39, 0
2, 86760, Note_off_c, 1, 56, 0
2, 86760, Note_off_c, 1, 60, 0
2, 86760, Note_off_c, 1, 68, 0
2, 86760, Note_on_c, 1, 71, 127
2, 86760, Note_off_c, 1, 72, 0
2, 86760, Note_on_c, 1, 78, 127
2, 86760, Note_on_c, 1, 80, 127
2, 86760, Note_on_c, 1, 83, 127
2, 86800, Note_off_c, 1, 34, 0
2, 86800, Note_off_c, 1, 71, 0
2, 86800, Note_off_c, 1, 78, 0
2, 86800, Note_off_c, 1, 80, 0
2, 86800, Note_off_c, 1, 83, 0
2, 86840, Note_on_c, 1, 44, 127
2, 86840, Note_on_c, 1, 54, 127
2, 86840, Note_on_c, 1, 69, 127
2, 86840, Note_on_c, 1, 72, 127
2, 86840, Note_on_c, 1, 75, 127
2, 86840, Note_on_c, 1, 78, 127
2, 86840, Note_on_c, 1, 81, 127
2, 86880, Note_on_c, 1, 38, 127
2, 86880, Note_off_c, 1, 44, 0
2, 86880, Note_on_c, 1, 52, 127
2, 86880, Note_off_c, 1, 54, 0
2, 86880, Note_on_c, 1, 57, 127
2, 86880, Note_off_c, 1, 69, 0
2, 86880, Note_off_c, 1, 72, 0
2, 86880, Note_off_c, 1, 75, 0
2, 86880, Note_on_c, 1, 76, 127
2, 86880, Note_off_c, 1, 78, 0
2, 86880, Note_off_c, 1, 81, 0
2, 86920, Note_on_c, 1, 30, 127
2, 86920, Note_off_c, 1, 38, 0
2, 86920, Note_on_c, 1, 42, 127
2, 86920, Note_off_c, 1, 57, 0
2, 86920, Note_on_c, 1, 58, 127
2, 86920, Note_on_c, 1, 63, 127
2, 86920, Note_off_c, 1, 76, 0
2, 86960, Note_off_c, 1, 30, 0
2, 86960, Note_off_c, 1, 42, 0
2, 86960, Note_off_c, 1, 58, 0
2, 86960, Note_off_c, 1, 63, 0
2, 86960, Note_on_c, 1, 64, 127
2, 86960, Note_on_c, 1, 70, 127
2, 86960, Note_on_c, 1, 80, 127
2, 87000, Note_off_c, 1, 52, 0
2, 87000, Note_off_c, 1, 64, 0
2, 87000, Note_on_c, 1, 67, 127
2, 87000, Note_off_c, 1, 70, 0
2, 87000, Note_on_c, 1, 72, 127
2, 87000, Note_on_c, 1, 76, 127
2, 87000, Note_off_c, 1, 80, 0
2, 87000, Note_on_c, 1, 88, 127
2, 87000, Note_on_c, 1, 96, 127
2, 87000, Note_on_c, 1, 100, 127
2, 87040, Note_on_c, 1, 44, 127
2, 87040, Note_off_c, 1, 67, 0
2, 87040, Note_off_c, 1, 72, 0
2, 87040, Note_off_c, 1, 76, 0
2, 87040, Note_on_c, 1, 80, 127
2, 87040, Note_off_c, 1, 88, 0
2, 87040, Note_on_c, 1, 89, 127
2, 87040, Note_on_c, 1, 92, 127
2, 87040, Note_off_c, 1, 96, 0
2, 87040, Note_off_c, 1, 100, 0
2, 87080, Note_on_c, 1, 35, 127
2, 87080, Note_on_c, 1, 42, 127
2, 87080, Note_off_c, 1, 44, 0
2, 87080, Note_on_c, 1, 64, 127
2, 87080, Note_on_c, 1, 67, 127
2, 87080, Note_on_c, 1, 70, 127
2, 87080, Note_on_c, 1, 73, 127
2, 87080, Note_off_c, 1, 80, 0
2, 87080, Note_off_c, 1, 89, 0
2, 87080, Note_off_c, 1, 92, 0
2, 87320, Note_off_c, 1, 35, 0
2, 87320, Note_off_c, 1, 42, 0
2, 87320, Note_on_c, 1, 43, 127
2, 87320, Note_on_c, 1, 50, 127
2, 87320, Note_on_c, 1, 57, 127
2, 87320, Note_on_c, 1, 59, 127
2, 87320, Note_off_c, 1, 64, 0
2, 87320, Note_off_c, 1, 67, 0
2, 87320, Note_on_c, 1, 69, 127
2, 87320, Note_off_c, 1, 70, 0
2, 87320, Note_off_c, 1, 73, 0
2, 87360, Note_off_c, 1, 43, 0
2, 87360, Note_off_c, 1, 50, 0
2, 87360, Note_off_c, 1, 59, 0
2, 87360, Note_on_c, 1, 60, 127
2, 87360, Note_on_c, 1, 64, 127
2, 87360, Note_off_c, 1, 69, 0
2, 87360, Note_on_c, 1, 71, 127
2, 87400, Note_on_c, 1, 48, 127
2, 87400, Note_on_c, 1, 55, 127
2, 87400, Note_off_c, 1, 57, 0
2, 87400, Note_on_c, 1, 58, 127
2, 87400, Note_off_c, 1, 60, 0
2, 87400, Note_off_c, 1, 71, 0
2, 87400, Note_on_c, 1, 72, 127
2, 87400, Note_on_c, 1, 76, 127
2, 87440, Note_off_c, 1, 48, 0
2, 87440, Note_off_c, 1, 55, 0
2, 87440, Note_off_c, 1, 58, 0
2, 87440, Note_off_c, 1, 64, 0
2, 87440, Note_off_c, 1, 72, 0
2, 87440, Note_off_c, 1, 76, 0
2, 87480, Note_on_c, 1, 50, 127
2, 87480, Note_on_c, 1, 54, 127
2, 87480, Note_on_c, 1, 57, 127
2, 87480, Note_on_c, 1, 62, 127
2, 87480, Note_on_c, 1, 69, 127
2, 87680, Note_off_c, 1, 50, 0
2, 87680, Note_on_c, 1, 66, 127
2, 87680, Note_on_c, 1, 74, 127
2, 87720, Note_off_c, 1, 54, 0
2, 87720, Note_off_c, 1, 57, 0
2, 87720, Note_off_c, 1, 62, 0
2, 87720, Note_off_c, 1, 66, 0
2, 87720, Note_off_c, 1, 69, 0
2, 87720, Note_off_c, 1, 74, 0
2, 88160, Note_on_c, 1, 45, 127
2, 88160, Note_on_c, 1, 69, 127
2, 88240, Note_off_c, 1, 45, 0
2, 88280, Note_on_c, 1, 49, 127
2, 88400, Note_off_c, 1, 49, 0
2, 88400, Note_off_c, 1, 69, 0
2, 88440, Note_on_c, 1, 38, 127
2, 88440, Note_on_c, 1, 69, 127
2, 88480, Note_off_c, 1, 38, 0
2, 88480, Note_on_c, 1, 45, 127
2, 88520, Note_off_c, 1, 45, 0
2, 88560, Note_on_c, 1, 57, 127
2, 88680, Note_off_c, 1, 57, 0
2, 88720, Note_on_c, 1, 52, 127
2, 88840, Note_off_c, 1, 52, 0
2, 88880, Note_on_c, 1, 57, 127
2, 88960, Note_off_c, 1, 57, 0
2, 88960, Note_off_c, 1, 69, 0
2, 89040, Note_on_c, 1, 40, 127
2, 89040, Note_on_c, 1, 69, 127
2, 89160, Note_off_c, 1, 40, 0
2, 89200, Note_on_c, 1, 45, 127
2, 89280, Note_off_c, 1, 45, 0
2, 89320, Note_on_c, 1, 61, 127
2, 89440, Note_off_c, 1, 61, 0
2, 89480, Note_on_c, 1, 45, 127
2, 89480, Note_on_c, 1, 67, 127
2, 89480, Note_off_c, 1, 69, 0
2, 89560, Note_off_c, 1, 45, 0
2, 89560, Note_off_c, 1, 67, 0
2, 89600, Note_on_c, 1, 62, 127
2, 89600, Note_on_c, 1, 66, 127
2, 89720, Note_off_c, 1, 62, 0
2, 89760, Note_on_c, 1, 69, 127
2, 89880, Note_off_c, 1, 66, 0
2, 89880, Note_off_c, 1, 69, 0
2, 89920, Note_on_c, 1, 55, 127
2, 89920, Note_on_c, 1, 58, 127
2, 89920, Note_on_c, 1, 70, 127
2, 89920, Note_on_c, 1, 73, 127
2, 89920, Note_on_c, 1, 82, 127
2, 89960, Note_on_c, 1, 47, 127
2, 89960, Note_off_c, 1, 55, 0
2, 89960, Note_off_c, 1, 58, 0
2, 89960, Note_on_c, 1, 59, 127
2, 89960, Note_off_c, 1, 70, 0
2, 89960, Note_off_c, 1, 73, 0
2, 89960, Note_on_c, 1, 76, 127
2, 89960, Note_on_c, 1, 80, 127
2, 89960, Note_off_c, 1, 82, 0
2, 89960, Note_on_c, 1, 83, 127
2, 90000, Note_off_c, 1, 47, 0
2, 90000, Note_off_c, 1, 59, 0
2, 90000, Note_off_c, 1, 76, 0
2, 90000, Note_off_c, 1, 80, 0
2, 90000, Note_off_c, 1, 83, 0
2, 90040, Note_on_c, 1, 53, 127
2, 90040, Note_on_c, 1, 55, 127
2, 90040, Note_on_c, 1, 58, 127
2, 90040, Note_on_c, 1, 79, 127
2, 90080, Note_off_c, 1, 55, 0
2, 90080, Note_off_c, 1, 58, 0
2, 90080, Note_off_c, 1, 79, 0
2, 90080, Note_on_c, 1, 80, 127
2, 90080, Note_on_c, 1, 85, 127
2, 90080, Note_on_c, 1, 92, 127
2, 90120, Note_off_c, 1, 53, 0
2, 90120, Note_on_c, 1, 74, 127
2, 90120, Note_on_c, 1, 77, 127
2, 90120, Note_on_c, 1, 82, 127
2, 90120, Note_off_c, 1, 85, 0
2, 90120, Note_on_c, 1, 86, 127
2, 90120, Note_off_c, 1, 92, 0
2, 90160, Note_off_c, 1, 74, 0
2, 90160, Note_off_c, 1, 77, 0
2, 90160, Note_off_c, 1, 80, 0
2, 90160, Note_off_c, 1, 82, 0
2, 90160, Note_off_c, 1, 86, 0
2, 90200, Note_on_c, 1, 61, 127
2, 90200, Note_on_c, 1, 71, 127
2, 90200, Note_on_c, 1, 76, 127
2, 90200, Note_on_c, 1, 83, 127
2, 90240, Note_on_c, 1, 52, 127
2, 90240, Note_off_c, 1, 61, 0
2, 90240, Note_on_c, 1, 69, 127
2, 90240, Note_off_c, 1, 71, 0
2, 90240, Note_on_c, 1, 73, 127
2, 90240, Note_off_c, 1, 76, 0
2, 90240, Note_on_c, 1, 79, 127
2, 90240, Note_on_c, 1, 81, 127
2, 90240, Note_off_c, 1, 83, 0
2, 90280, Note_off_c, 1, 52, 0
2, 90280, Note_on_c, 1, 60, 127
2, 90280, Note_on_c, 1, 63, 127
2, 90280, Note_on_c, 1, 66, 127
2, 90280, Note_off_c, 1, 69, 0
2, 90280, Note_off_c, 1, 73, 0
2, 90280, Note_on_c, 1, 74, 127
2, 90280, Note_on_c, 1, 78, 127
2, 90280, Note_off_c, 1, 79, 0
2, 90280, Note_off_c, 1, 81, 0
2, 90320, Note_on_c, 1, 52, 127
2, 90320, Note_off_c, 1, 60, 0
2, 90320, Note_off_c, 1, 63, 0
2, 90320, Note_off_c, 1, 66, 0
2, 90320, Note_off_c, 1, 74, 0
2, 90320, Note_off_c, 1, 78, 0
2, 90360, Note_on_c, 1, 50, 127
2, 90360, Note_off_c, 1, 52, 0
2, 90360, Note_on_c, 1, 76, 127
2, 90360, Note_on_c, 1, 79, 127
2, 90360, Note_on_c, 1, 88, 127
2, 90480, Note_off_c, 1, 50, 0
2, 90480, Note_off_c, 1, 76, 0
2, 90480, Note_off_c, 1, 79, 0
2, 90480, Note_off_c, 1, 88, 0
2, 90520, Note_on_c, 1, 50, 127
2, 90520, Note_on_c, 1, 76, 127
2, 90520, Note_on_c, 1, 79, 127
2, 90520, Note_on_c, 1, 88, 127
2, 90760, Note_off_c, 1, 50, 0
2, 90760, Note_off_c, 1, 76, 0
2, 90760, Note_off_c, 1, 79, 0
2, 90760, Note_off_c, 1, 88, 0
2, 90800, Note_on_c, 1, 43, 127
2, 90800, Note_on_c, 1, 76, 127
2, 90800, Note_on_c, 1, 84, 127
2, 90800, Note_on_c, 1, 88, 127
2, 90920, Note_off_c, 1, 43, 0
2, 90920, Note_off_c, 1, 76, 0
2, 90920, Note_off_c, 1, 84, 0
2, 90920, Note_off_c, 1, 88, 0
2, 90960, Note_on_c, 1, 47, 127
2, 90960, Note_on_c, 1, 80, 127
2, 90960, Note_on_c, 1, 83, 127
2, 90960, Note_on_c, 1, 87, 127
2, 90960, Note_on_c, 1, 92, 127
2, 91000, Note_off_c, 1, 47, 0
2, 91000, Note_on_c, 1, 51, 127
2, 91000, Note_off_c, 1, 80, 0
2, 91000, Note_on_c, 1, 82, 127
2, 91000, Note_off_c, 1, 83, 0
2, 91000, Note_on_c, 1, 85, 127
2, 91000, Note_off_c, 1, 87, 0
2, 91000, Note_on_c, 1, 91, 127
2, 91000, Note_off_c, 1, 92, 0
2, 91040, Note_off_c, 1, 51, 0
2, 91040, Note_on_c, 1, 56, 127
2, 91040, Note_on_c, 1, 80, 127
2, 91040, Note_off_c, 1, 82, 0
2, 91040, Note_on_c, 1, 83, 127
2, 91040, Note_off_c, 1, 85, 0
2, 91040, Note_on_c, 1, 87, 127
2, 91040, Note_off_c, 1, 91, 0
2, 91040, Note_on_c, 1, 92, 127
2, 91080, Note_off_c, 1, 56, 0
2, 91080, Note_off_c, 1, 80, 0
2, 91080, Note_off_c, 1, 83, 0
2, 91080, Note_off_c, 1, 87, 0
2, 91080, Note_off_c, 1, 92, 0
2, 91160, Note_on_c, 1, 57, 127
2, 91720, Note_on_c, 1, 52, 127
2, 91720, Note_on_c, 1, 56, 127
2, 91720, Note_off_c, 1, 57, 0
2, 91720, Note_on_c, 1, 62, 127
2, 91720, Note_on_c, 1, 70, 127
2, 92000, Note_off_c, 1, 70, 0
2, 92040, Note_on_c, 1, 71, 127
2, 92280, Note_off_c, 1, 52, 0
2, 92280, Note_off_c, 1, 56, 0
2, 92280, Note_off_c, 1, 62, 0
2, 92280, Note_on_c, 1, 64, 127
2, 92280, Note_off_c, 1, 71, 0
2, 92320, Note_on_c, 1, 52, 127
2, 92320, Note_on_c, 1, 56, 127
2, 92320, Note_on_c, 1, 62, 127
2, 92320, Note_off_c, 1, 64, 0
2, 92400, Note_off_c, 1, 56, 0
2, 92400, Note_on_c, 1, 57, 127
2, 92400, Note_on_c, 1, 60, 127
2, 92400, Note_off_c, 1, 62, 0
2, 92400, Note_on_c, 1, 64, 127
2, 92440, Note_off_c, 1, 52, 0
2, 92440, Note_off_c, 1, 57, 0
2, 92440, Note_off_c, 1, 60, 0
2, 92440, Note_on_c, 1, 62, 127
2, 92440, Note_off_c, 1, 64, 0
2, 92480, Note_on_c, 1, 57, 127
2, 92480, Note_on_c, 1, 61, 127
2, 92480, Note_off_c, 1, 62, 0
2, 92480, Note_on_c, 1, 64, 127
2, 92480, Note_on_c, 1, 69, 127
2, 92560, Note_off_c, 1, 57, 0
2, 92560, Note_off_c, 1, 61, 0
2, 92560, Note_off_c, 1, 64, 0
2, 92560, Note_off_c, 1, 69, 0
2, 92600, Note_on_c, 1, 62, 127
2, 92920, Note_on_c, 1, 56, 127
2, 92920, Note_on_c, 1, 59, 127
2, 92920, Note_on_c, 1, 65, 127
2, 93120, Note_off_c, 1, 56, 0
2, 93120, Note_off_c, 1, 59, 0
2, 93120, Note_off_c, 1, 62, 0
2, 93120, Note_off_c, 1, 65, 0
2, 93160, Note_on_c, 1, 56, 127
2, 93160, Note_on_c, 1, 59, 127
2, 93160, Note_on_c, 1, 62, 127
2, 93160, Note_on_c, 1, 65, 127
2, 93520, Note_off_c, 1, 56, 0
2, 93520, Note_off_c, 1, 59, 0
2, 93520, Note_off_c, 1, 65, 0
2, 93560, Note_on_c, 1, 57, 127
2, 93560, Note_on_c, 1, 59, 127
2, 93840, Note_off_c, 1, 57, 0
2, 93840, Note_off_c, 1, 59, 0
2, 93840, Note_off_c, 1, 62, 0
2, 93880, Note_on_c, 1, 57, 127
2, 93880, Note_on_c, 1, 61, 127
2, 93880, Note_on_c, 1, 69, 127
2, 94440, Note_off_c, 1, 57, 0
2, 94440, Note_off_c, 1, 61, 0
2, 94440, Note_off_c, 1, 69, 0
2, 94480, Note_on_c, 1, 57, 127
2, 94480, Note_on_c, 1, 66, 127
2, 94480, Note_on_c, 1, 72, 127
2, 94480, Note_on_c, 1, 76, 127
2, 95040, Note_off_c, 1, 66, 0
2, 95040, Note_off_c, 1, 72, 0
2, 95040, Note_off_c, 1, 76, 0
2, 95080, Note_on_c, 1, 64, 127
2, 95080, Note_on_c, 1, 73, 127
2, 95160, Note_off_c, 1, 57, 0
2, 95160, Note_off_c, 1, 64, 0
2, 95160, Note_off_c, 1, 73, 0
2, 95200, Note_on_c, 1, 57, 127
2, 95200, Note_on_c, 1, 64, 127
2, 95200, Note_on_c, 1, 73, 127
2, 95480, Note_off_c, 1, 64, 0
2, 95720, Note_on_c, 1, 55, 127
2, 95720, Note_off_c, 1, 57, 0
2, 95720, Note_off_c, 1, 73, 0
2, 95720, Note_on_c, 1, 93, 127
2, 95720, Note_on_c, 1, 96, 127
2, 95760, Note_off_c, 1, 55, 0
2, 95760, Note_on_c, 1, 59, 127
2, 95760, Note_on_c, 1, 60, 127
2, 95760, Note_on_c, 1, 64, 127
2, 95760, Note_on_c, 1, 76, 127
2, 95760, Note_on_c, 1, 84, 127
2, 95760, Note_on_c, 1, 88, 127
2, 95760, Note_off_c, 1, 93, 0
2, 95760, Note_off_c, 1, 96, 0
2, 95800, Note_on_c, 1, 49, 127
2, 95800, Note_on_c, 1, 52, 127
2, 95800, Note_on_c, 1, 56, 127
2, 95800, Note_off_c, 1, 59, 0
2, 95800, Note_off_c, 1, 60, 0
2, 95800, Note_on_c, 1, 61, 127
2, 95800, Note_off_c, 1, 64, 0
2, 95800, Note_off_c, 1, 76, 0
2, 95800, Note_off_c, 1, 88, 0
2, 95840, Note_off_c, 1, 49, 0
2, 95840, Note_off_c, 1, 52, 0
2, 95840, Note_on_c, 1, 64, 127
2, 95840, Note_on_c, 1, 69, 127
2, 95840, Note_on_c, 1, 80, 127
2, 95840, Note_off_c, 1, 84, 0
2, 95840, Note_on_c, 1, 88, 127
2, 95880, Note_on_c, 1, 43, 127
2, 95880, Note_on_c, 1, 51, 127
2, 95880, Note_off_c, 1, 56, 0
2, 95880, Note_off_c, 1, 61, 0
2, 95880, Note_off_c, 1, 64, 0
2, 95880, Note_off_c, 1, 69, 0
2, 95880, Note_off_c, 1, 80, 0
2, 95880, Note_off_c, 1, 88, 0
2, 95880, Note_on_c, 1, 91, 127
2, 95920, Note_off_c, 1, 43, 0
2, 95920, Note_off_c, 1, 51, 0
2, 95920, Note_on_c, 1, 57, 127
2, 95920, Note_on_c, 1, 59, 127
2, 95920, Note_on_c, 1, 63, 127
2, 95920, Note_on_c, 1, 66, 127
2, 95920, Note_on_c, 1, 67, 127
2, 95920, Note_off_c, 1, 91, 0
2, 95960, Note_off_c, 1, 57, 0
2, 95960, Note_off_c, 1, 59, 0
2, 95960, Note_on_c, 1, 62, 127
2, 95960, Note_off_c, 1, 63, 0
2, 95960, Note_on_c, 1, 65, 127
2, 95960, Note_off_c, 1, 66, 0
2, 95960, Note_on_c, 1, 83, 127
2, 96000, Note_on_c, 1, 56, 127
2, 96000, Note_on_c, 1, 60, 127
2, 96000, Note_off_c, 1, 62, 0
2, 96000, Note_on_c, 1, 63, 127
2, 96000, Note_off_c, 1, 65, 0
2, 96000, Note_off_c, 1, 67, 0
2, 96000, Note_on_c, 1, 75, 127
2, 96000, Note_off_c, 1, 83, 0
2, 96000, Note_on_c, 1, 84, 127
2, 96000, Note_on_c, 1, 87, 127
2, 96040, Note_off_c, 1, 56, 0
2, 96040, Note_off_c, 1, 60, 0
2, 96040, Note_off_c, 1, 63, 0
2, 96040, Note_on_c, 1, 72, 127
2, 96040, Note_on_c, 1, 73, 127
2, 96040, Note_off_c, 1, 75, 0
2, 96040, Note_on_c, 1, 78, 127
2, 96040, Note_on_c, 1, 82, 127
2, 96040, Note_off_c, 1, 84, 0
2, 96040, Note_off_c, 1, 87, 0
2, 96080, Note_on_c, 1, 48, 127
2, 96080, Note_on_c, 1, 55, 127
2, 96080, Note_on_c, 1, 61, 127
2, 96080, Note_on_c, 1, 65, 127
2, 96080, Note_off_c, 1, 72, 0
2, 96080, Note_off_c, 1, 78, 0
2, 96080, Note_off_c, 1, 82, 0
2, 96120, Note_off_c, 1, 48, 0
2, 96120, Note_off_c, 1, 55, 0
2, 96120, Note_off_c, 1, 61, 0
2, 96120, Note_on_c, 1, 62, 127
2, 96120, Note_off_c, 1, 65, 0
2, 96120, Note_on_c, 1, 67, 127
2, 96120, Note_on_c, 1, 71, 127
2, 96120, Note_off_c, 1, 73, 0
2, 96120, Note_on_c, 1, 74, 127
2, 96120, Note_on_c, 1, 77, 127
2, 96120, Note_on_c, 1, 83, 127
2, 96160, Note_on_c, 1, 44, 127
2, 96160, Note_on_c, 1, 47, 127
2, 96160, Note_on_c, 1, 56, 127
2, 96160, Note_off_c, 1, 62, 0
2, 96160, Note_off_c, 1, 67, 0
2, 96160, Note_off_c, 1, 71, 0
2, 96160, Note_off_c, 1, 74, 0
2, 96160, Note_off_c, 1, 77, 0
2, 96200, Note_on_c, 1, 38, 127
2, 96200, Note_on_c, 1, 41, 127
2, 96200, Note_off_c, 1, 44, 0
2, 96200, Note_off_c, 1, 47, 0
2, 96200, Note_off_c, 1, 56, 0
2, 96200, Note_on_c, 1, 60, 127
2, 96200, Note_on_c, 1, 62, 127
2, 96200, Note_on_c, 1, 65, 127
2, 96200, Note_off_c, 1, 83, 0
2, 96240, Note_on_c, 1, 28, 127
2, 96240, Note_off_c, 1, 38, 0
2, 96240, Note_on_c, 1, 40, 127
2, 96240, Note_off_c, 1, 41, 0
2, 96240, Note_off_c, 1, 60, 0
2, 96240, Note_on_c, 1, 61, 127
2, 96240, Note_off_c, 1, 62, 0
2, 96240, Note_off_c, 1, 65, 0
2, 96240, Note_on_c, 1, 68, 127
2, 96240, Note_on_c, 1, 73, 127
2, 96280, Note_off_c, 1, 28, 0
2, 96280, Note_off_c, 1, 40, 0
2, 96280, Note_on_c, 1, 58, 127
2, 96280, Note_off_c, 1, 61, 0
2, 96280, Note_on_c, 1, 67, 127
2, 96280, Note_off_c, 1, 68, 0
2, 96280, Note_on_c, 1, 70, 127
2, 96280, Note_off_c, 1, 73, 0
2, 96280, Note_on_c, 1, 79, 127
2, 96280, Note_on_c, 1, 82, 127
2, 96320, Note_off_c, 1, 58, 0
2, 96320, Note_off_c, 1, 67, 0
2, 96320, Note_off_c, 1, 70, 0
2, 96320, Note_off_c, 1, 79, 0
2, 96320, Note_off_c, 1, 82, 0
2, 96360, Note_on_c, 1, 64, 127
2, 96640, Note_off_c, 1, 64, 0
2, 96680, Note_on_c, 1, 40, 127
2, 96680, Note_on_c, 1, 47, 127
2, 96960, Note_off_c, 1, 40, 0
2, 96960, Note_off_c, 1, 47, 0
2, 97000, Note_on_c, 1, 37, 127
2, 97000, Note_on_c, 1, 49, 127
2, 97000, Note_on_c, 1, 56, 127
2, 97000, Note_on_c, 1, 59, 127
2, 97320, Note_off_c, 1, 37, 0
2, 97320, Note_off_c, 1, 49, 0
2, 97320, Note_off_c, 1, 56, 0
2, 97320, Note_off_c, 1, 59, 0
2, 97360, Note_on_c, 1, 37, 127
2, 97360, Note_on_c, 1, 49, 127
2, 97360, Note_on_c, 1, 56, 127
2, 97360, Note_on_c, 1, 59, 127
2, 97600, Note_off_c, 1, 37, 0
2, 97600, Note_off_c, 1, 49, 0
2, 97600, Note_off_c, 1, 56, 0
2, 97600, Note_off_c, 1, 59, 0
2, 97640, Note_on_c, 1, 52, 127
2, 97640, Note_on_c, 1, 55, 127
2, 97640, Note_on_c, 1, 59, 127
2, 97640, Note_on_c, 1, 64, 127
2, 98200, Note_off_c, 1, 52, 0
2, 98200, Note_off_c, 1, 55, 0
2, 98200, Note_off_c, 1, 59, 0
2, 98200, Note_off_c, 1, 64, 0
2, 98200, Note_on_c, 1, 67, 127
2, 98240, Note_on_c, 1, 52, 127
2, 98520, Note_off_c, 1, 52, 0
2, 98560, Note_on_c, 1, 55, 127
2, 98840, Note_off_c, 1, 55, 0
2, 98840, Note_off_c, 1, 67, 0
2, 98880, Note_on_c, 1, 67, 127
2, 99120, Note_off_c, 1, 67, 0
2, 99160, Note_on_c, 1, 72, 127
2, 99440, Note_off_c, 1, 72, 0
2, 99520, Note_on_c, 1, 43, 127
2, 99800, Note_on_c, 1, 69, 127
2, 100080, Note_off_c, 1, 43, 0
2, 100080, Note_off_c, 1, 69, 0
2, 100120, Note_on_c, 1, 64, 127
2, 100400, Note_off_c, 1, 64, 0
2, 100440, Note_on_c, 1, 36, 127
2, 100440, Note_on_c, 1, 43, 127
2, 100440, Note_on_c, 1, 48, 127
2, 100440, Note_on_c, 1, 52, 127
2, 100440, Note_on_c, 1, 60, 127
2, 101320, Note_off_c, 1, 36, 0
2, 101320, Note_on_c, 1, 40, 127
2, 101320, Note_off_c, 1, 43, 0
2, 101320, Note_off_c, 1, 48, 0
2, 101320, Note_off_c, 1, 60, 0
2, 101320, Note_on_c, 1, 69, 127
2, 101320, Note_on_c, 1, 72, 127
2, 101320, Note_on_c, 1, 81, 127
2, 101360, Note_on_c, 1, 36, 127
2, 101360, Note_off_c, 1, 40, 0
2, 101360, Note_on_c, 1, 43, 127
2, 101360, Note_on_c, 1, 48, 127
2, 101360, Note_on_c, 1, 60, 127
2, 101360, Note_off_c, 1, 69, 0
2, 101360, Note_off_c, 1, 72, 0
2, 101360, Note_off_c, 1, 81, 0
2, 101520, Note_off_c, 1, 36, 0
2, 101520, Note_off_c, 1, 43, 0
2, 101520, Note_off_c, 1, 48, 0
2, 101520, Note_off_c, 1, 52, 0
2, 101520, Note_off_c, 1, 60, 0
2, 101560, Note_on_c, 1, 36, 127
2, 101560, Note_on_c, 1, 43, 127
2, 101560, Note_on_c, 1, 48, 127
2, 101560, Note_on_c, 1, 52, 127
2, 101560, Note_on_c, 1, 60, 127
2, 102000, Note_off_c, 1, 36, 0
2, 102000, Note_off_c, 1, 43, 0
2, 102000, Note_off_c, 1, 48, 0
2, 102000, Note_off_c, 1, 52, 0
2, 102000, Note_off_c, 1, 60, 0
2, 102040, Note_on_c, 1, 55, 127
2, 102040, Note_on_c, 1, 59, 127
2, 102040, Note_on_c, 1, 70, 127
2, 102640, Note_off_c, 1, 55, 0
2, 102640, Note_off_c, 1, 59, 0
2, 102640, Note_off_c, 1, 70, 0
2, 102680, Note_on_c, 1, 62, 127
2, 102720, Note_on_c, 1, 34, 127
2, 102720, Note_on_c, 1, 46, 127
2, 102720, Note_on_c, 1, 55, 127
2, 102720, Note_off_c, 1, 62, 0
2, 102720, Note_on_c, 1, 67, 127
2, 102720, Note_on_c, 1, 79, 127
2, 102720, Note_on_c, 1, 86, 127
2, 102720, Note_on_c, 1, 91, 127
2, 103120, Note_off_c, 1, 34, 0
2, 103120, Note_off_c, 1, 46, 0
2, 103120, Note_off_c, 1, 55, 0
2, 103120, Note_on_c, 1, 58, 127
2, 103120, Note_on_c, 1, 63, 127
2, 103120, Note_off_c, 1, 67, 0
2, 103120, Note_on_c, 1, 70, 127
2, 103120, Note_on_c, 1, 75, 127
2, 103120, Note_off_c, 1, 86, 0
2, 103120, Note_on_c, 1, 87, 127
2, 103120, Note_off_c, 1, 91, 0
2, 103160, Note_on_c, 1, 34, 127
2, 103160, Note_on_c, 1, 46, 127
2, 103160, Note_on_c, 1, 55, 127
2, 103160, Note_off_c, 1, 58, 0
2, 103160, Note_off_c, 1, 63, 0
2, 103160, Note_on_c, 1, 67, 127
2, 103160, Note_off_c, 1, 70, 0
2, 103160, Note_off_c, 1, 75, 0
2, 103160, Note_on_c, 1, 86, 127
2, 103160, Note_off_c, 1, 87, 0
2, 103160, Note_on_c, 1, 91, 127
2, 103360, Note_off_c, 1, 34, 0
2, 103360, Note_on_c, 1, 38, 127
2, 103360, Note_off_c, 1, 46, 0
2, 103360, Note_off_c, 1, 55, 0
2, 103360, Note_on_c, 1, 65, 127
2, 103360, Note_off_c, 1, 67, 0
2, 103360, Note_off_c, 1, 79, 0
2, 103360, Note_off_c, 1, 86, 0
2, 103360, Note_off_c, 1, 91, 0
2, 103400, Note_off_c, 1, 38, 0
2, 103400, Note_on_c, 1, 86, 127
2, 103400, Note_on_c, 1, 89, 127
2, 103400, Note_on_c, 1, 91, 127
2, 103440, Note_on_c, 1, 45, 127
2, 103440, Note_on_c, 1, 52, 127
2, 103440, Note_on_c, 1, 59, 127
2, 103440, Note_off_c, 1, 65, 0
2, 103440, Note_on_c, 1, 76, 127
2, 103440, Note_off_c, 1, 86, 0
2, 103440, Note_off_c, 1, 89, 0
2, 103440, Note_off_c, 1, 91, 0
2, 103480, Note_off_c, 1, 45, 0
2, 103480, Note_off_c, 1, 52, 0
2, 103480, Note_off_c, 1, 59, 0
2, 103480, Note_off_c, 1, 76, 0
2, 103520, Note_on_c, 1, 34, 127
2, 103520, Note_on_c, 1, 46, 127
2, 103520, Note_on_c, 1, 76, 127
2, 103520, Note_on_c, 1, 85, 127
2, 103560, Note_off_c, 1, 34, 0
2, 103560, Note_off_c, 1, 46, 0
2, 103560, Note_on_c, 1, 57, 127
2, 103560, Note_on_c, 1, 60, 127
2, 103560, Note_on_c, 1, 64, 127
2, 103560, Note_on_c, 1, 80, 127
2, 103560, Note_off_c, 1, 85, 0
2, 103600, Note_off_c, 1, 57, 0
2, 103600, Note_off_c, 1, 60, 0
2, 103600, Note_off_c, 1, 64, 0
2, 103600, Note_off_c, 1, 76, 0
2, 103600, Note_off_c, 1, 80, 0
2, 103640, Note_on_c, 1, 49, 127
2, 103640, Note_on_c, 1, 56, 127
2, 103640, Note_on_c, 1, 59, 127
2, 103640, Note_on_c, 1, 65, 127
2, 103640, Note_on_c, 1, 87, 127
2, 103680, Note_on_c, 1, 41, 127
2, 103680, Note_on_c, 1, 53, 127
2, 103680, Note_off_c, 1, 59, 0
2, 103680, Note_on_c, 1, 61, 127
2, 103680, Note_off_c, 1, 65, 0
2, 103680, Note_off_c, 1, 87, 0
2, 103720, Note_off_c, 1, 41, 0
2, 103720, Note_off_c, 1, 49, 0
2, 103720, Note_off_c, 1, 53, 0
2, 103720, Note_off_c, 1, 56, 0
2, 103720, Note_on_c, 1, 58, 127
2, 103720, Note_off_c, 1, 61, 0
2, 103720, Note_on_c, 1, 72, 127
2, 103720, Note_on_c, 1, 81, 127
2, 103720, Note_on_c, 1, 93, 127
2, 103760, Note_on_c, 1, 31, 127
2, 103760, Note_on_c, 1, 43, 127
2, 103760, Note_on_c, 1, 57, 127
2, 103760, Note_off_c, 1, 58, 0
2, 103760, Note_on_c, 1, 65, 127
2, 103760, Note_off_c, 1, 72, 0
2, 103760, Note_off_c, 1, 81, 0
2, 103760, Note_off_c, 1, 93, 0
2, 103800, Note_off_c, 1, 31, 0
2, 103800, Note_on_c, 1, 39, 127
2, 103800, Note_off_c, 1, 43, 0
2, 103800, Note_on_c, 1, 51, 127
2, 103800, Note_off_c, 1, 57, 0
2, 103800, Note_off_c, 1, 65, 0
2, 103800, Note_on_c, 1, 79, 127
2, 103800, Note_on_c, 1, 82, 127
2, 103800, Note_on_c, 1, 87, 127
2, 103800, Note_on_c, 1, 91, 127
2, 103840, Note_off_c, 1, 39, 0
2, 103840, Note_on_c, 1, 54, 127
2, 103840, Note_on_c, 1, 56, 127
2, 103840, Note_on_c, 1, 60, 127
2, 103840, Note_on_c, 1, 66, 127
2, 103840, Note_on_c, 1, 70, 127
2, 103840, Note_off_c, 1, 79, 0
2, 103840, Note_off_c, 1, 82, 0
2, 103840, Note_off_c, 1, 87, 0
2, 103840, Note_off_c, 1, 91, 0
2, 103880, Note_off_c, 1, 51, 0
2, 103880, Note_off_c, 1, 54, 0
2, 103880, Note_off_c, 1, 56, 0
2, 103880, Note_off_c, 1, 60, 0
2, 103880, Note_off_c, 1, 66, 0
2, 103880, Note_off_c, 1, 70, 0
2, 103920, Note_on_c, 1, 27, 127
2, 103920, Note_on_c, 1, 39, 127
2, 103920, Note_on_c, 1, 51, 127
2, 104200, Note_off_c, 1, 27, 0
2, 104200, Note_off_c, 1, 39, 0
2, 104200, Note_off_c, 1, 51, 0
2, 104240, Note_on_c, 1, 30, 127
2, 104240, Note_on_c, 1, 42, 127
2, 104240, Note_on_c, 1, 59, 127
2, 104240, Note_on_c, 1, 61, 127
2, 104240, Note_on_c, 1, 66, 127
2, 104240, Note_on_c, 1, 71, 127
2, 104280, Note_off_c, 1, 30, 0
2, 104280, Note_off_c, 1, 42, 0
2, 104280, Note_off_c, 1, 59, 0
2, 104280, Note_off_c, 1, 61, 0
2, 104280, Note_off_c, 1, 66, 0
2, 104280, Note_off_c, 1, 71, 0
2, 104280, Note_on_c, 1, 82, 127
2, 104280, Note_on_c, 1, 87, 127
2, 104280, Note_on_c, 1, 97, 127
2, 104320, Note_on_c, 1, 50, 127
2, 104320, Note_on_c, 1, 53, 127
2, 104320, Note_on_c, 1, 58, 127
2, 104320, Note_on_c, 1, 62, 127
2, 104320, Note_on_c, 1, 80, 127
2, 104320, Note_off_c, 1, 82, 0
2, 104320, Note_off_c, 1, 87, 0
2, 104320, Note_off_c, 1, 97, 0
2, 104360, Note_off_c, 1, 50, 0
2, 104360, Note_off_c, 1, 53, 0
2, 104360, Note_off_c, 1, 58, 0
2, 104360, Note_off_c, 1, 62, 0
2, 104360, Note_off_c, 1, 80, 0
2, 104560, Note_on_c, 1, 39, 127
2, 104560, Note_on_c, 1, 51, 127
2, 104560, Note_on_c, 1, 55, 127
2, 104560, Note_on_c, 1, 58, 127
2, 104560, Note_on_c, 1, 63, 127
2, 104680, Note_off_c, 1, 39, 0
2, 104680, Note_off_c, 1, 51, 0
2, 104680, Note_off_c, 1, 55, 0
2, 104680, Note_off_c, 1, 58, 0
2, 104680, Note_off_c, 1, 63, 0
2, 105520, Note_on_c, 1, 58, 127
2, 105520, Note_on_c, 1, 64, 127
2, 105520, Note_on_c, 1, 67, 127
2, 105520, Note_on_c, 1, 72, 127
2, 105640, Note_off_c, 1, 58, 0
2, 105640, Note_off_c, 1, 64, 0
2, 105640, Note_off_c, 1, 67, 0
2, 105640, Note_off_c, 1, 72, 0
2, 106240, Note_on_c, 1, 48, 127
2, 106240, Note_on_c, 1, 55, 127
2, 106240, Note_on_c, 1, 64, 127
2, 106240, Note_on_c, 1, 72, 127
2, 106360, Note_off_c, 1, 48, 0
2, 106360, Note_off_c, 1, 55, 0
2, 106360, Note_off_c, 1, 64, 0
2, 106360, Note_off_c, 1, 72, 0
2, 106920, Note_on_c, 1, 40, 127
2, 106920, Note_on_c, 1, 52, 127
2, 106920, Note_on_c, 1, 88, 127
2, 106920, Note_on_c, 1, 100, 127
2, 107480, Note_off_c, 1, 40, 0
2, 107480, Note_off_c, 1, 52, 0
2, 107480, Note_off_c, 1, 88, 0
2, 107480, Note_off_c, 1, 100, 0
2, 107680, Note_on_c, 1, 59, 127
2, 107680, Note_on_c, 1, 62, 127
2, 107680, Note_on_c, 1, 79, 127
2, 107680, Note_on_c, 1, 91, 127
2, 107760, Note_off_c, 1, 59, 0
2, 107760, Note_off_c, 1, 62, 0
2, 107760, Note_off_c, 1, 79, 0
2, 107760, Note_off_c, 1, 91, 0
2, 107960, Note_on_c, 1, 43, 127
2, 107960, Note_on_c, 1, 50, 127
2, 107960, Note_on_c, 1, 59, 127
2, 108080, Note_off_c, 1, 43, 0
2, 108080, Note_off_c, 1, 50, 0
2, 108080, Note_off_c, 1, 59, 0
2, 108480, Note_on_c, 1, 43, 127
2, 108480, Note_on_c, 1, 49, 127
2, 108480, Note_on_c, 1, 59, 127
2, 108480, Note_on_c, 1, 61, 127
2, 108640, Note_off_c, 1, 43, 0
2, 108640, Note_off_c, 1, 49, 0
2, 108640, Note_on_c, 1, 55, 127
2, 108640, Note_off_c, 1, 59, 0
2, 108640, Note_off_c, 1, 61, 0
2, 108680, Note_on_c, 1, 43, 127
2, 108680, Note_off_c, 1, 55, 0
2, 108720, Note_off_c, 1, 43, 0
2, 108760, Note_on_c, 1, 43, 127
2, 108800, Note_off_c, 1, 43, 0
2, 108840, Note_on_c, 1, 48, 127
2, 108880, Note_off_c, 1, 48, 0
2, 108920, Note_on_c, 1, 41, 127
2, 108960, Note_off_c, 1, 41, 0
2, 109000, Note_on_c, 1, 45, 127
2, 109080, Note_off_c, 1, 45, 0
2, 109120, Note_on_c, 1, 43, 127
2, 109160, Note_off_c, 1, 43, 0
2, 109200, Note_on_c, 1, 45, 127
2, 109240, Note_off_c, 1, 45, 0
2, 109280, Note_on_c, 1, 43, 127
2, 109320, Note_off_c, 1, 43, 0
2, 109360, Note_on_c, 1, 43, 127
2, 109400, Note_off_c, 1, 43, 0
2, 109440, Note_on_c, 1, 40, 127
2, 109520, Note_off_c, 1, 40, 0
2, 109560, Note_on_c, 1, 33, 127
2, 109600, Note_off_c, 1, 33, 0
2, 109640, Note_on_c, 1, 40, 127
2, 109640, Note_on_c, 1, 52, 127
2, 109640, Note_on_c, 1, 55, 127
2, 109640, Note_on_c, 1, 61, 127
2, 109760, Note_off_c, 1, 40, 0
2, 109760, Note_off_c, 1, 52, 0
2, 109760, Note_off_c, 1, 55, 0
2, 109760, Note_off_c, 1, 61, 0
2, 110320, Note_on_c, 1, 50, 127
2, 110320, Note_on_c, 1, 62, 127
2, 110320, Note_on_c, 1, 66, 127
2, 110320, Note_on_c, 1, 69, 127
2, 110440, Note_off_c, 1, 50, 0
2, 110440, Note_off_c, 1, 62, 0
2, 110440, Note_off_c, 1, 66, 0
2, 110440, Note_off_c, 1, 69, 0
2, 110760, Note_on_c, 1, 50, 127
2, 110760, Note_on_c, 1, 57, 127
2, 110760, Note_on_c, 1, 60, 127
2, 110760, Note_on_c, 1, 66, 127
2, 110880, Note_off_c, 1, 50, 0
2, 110880, Note_off_c, 1, 57, 0
2, 110880, Note_off_c, 1, 60, 0
2, 110880, Note_off_c, 1, 66, 0
2, 111240, Note_on_c, 1, 43, 127
2, 111280, Note_off_c, 1, 43, 0
2, 111320, Note_on_c, 1, 43, 127
2, 111640, Note_off_c, 1, 43, 0
2, 111680, Note_on_c, 1, 31, 127
2, 111680, Note_on_c, 1, 59, 127
2, 111680, Note_on_c, 1, 62, 127
2, 111680, Note_on_c, 1, 67, 127
2, 111720, Note_off_c, 1, 31, 0
2, 111760, Note_on_c, 1, 38, 127
2, 111760, Note_on_c, 1, 50, 127
2, 111760, Note_on_c, 1, 57, 127
2, 111760, Note_off_c, 1, 59, 0
2, 111760, Note_on_c, 1, 60, 127
2, 111760, Note_off_c, 1, 62, 0
2, 111760, Note_off_c, 1, 67, 0
2, 111800, Note_off_c, 1, 38, 0
2, 111800, Note_off_c, 1, 50, 0
2, 111800, Note_on_c, 1, 55, 127
2, 111800, Note_off_c, 1, 57, 0
2, 111800, Note_off_c, 1, 60, 0
2, 111800, Note_on_c, 1, 64, 127
2, 111840, Note_off_c, 1, 64, 0
2, 111840, Note_on_c, 1, 67, 127
2, 111840, Note_on_c, 1, 71, 127
2, 111880, Note_off_c, 1, 55, 0
2, 111880, Note_off_c, 1, 67, 0
2, 111880, Note_off_c, 1, 71, 0
2, 111920, Note_on_c, 1, 59, 127
2, 111920, Note_on_c, 1, 62, 127
2, 111960, Note_off_c, 1, 59, 0
2, 111960, Note_off_c, 1, 62, 0
2, 112000, Note_on_c, 1, 51, 127
2, 112000, Note_on_c, 1, 54, 127
2, 112000, Note_on_c, 1, 58, 127
2, 112000, Note_on_c, 1, 66, 127
2, 112000, Note_on_c, 1, 78, 127
2, 112160, Note_off_c, 1, 51, 0
2, 112160, Note_off_c, 1, 54, 0
2, 112160, Note_off_c, 1, 58, 0
2, 112160, Note_off_c, 1, 66, 0
2, 112160, Note_off_c, 1, 78, 0
2, 112200, Note_on_c, 1, 52, 127
2, 112200, Note_on_c, 1, 60, 127
2, 112240, Note_off_c, 1, 52, 0
2, 112240, Note_off_c, 1, 60, 0
2, 112320, Note_on_c, 1, 55, 127
2, 112320, Note_on_c, 1, 58, 127
2, 112320, Note_on_c, 1, 61, 127
2, 112360, Note_off_c, 1, 55, 0
2, 112360, Note_off_c, 1, 58, 0
2, 112360, Note_off_c, 1, 61, 0
2, 112400, Note_on_c, 1, 40, 127
2, 112400, Note_on_c, 1, 56, 127
2, 112400, Note_on_c, 1, 64, 127
2, 112440, Note_off_c, 1, 40, 0
2, 112480, Note_on_c, 1, 40, 127
2, 112480, Note_off_c, 1, 56, 0
2, 112480, Note_off_c, 1, 64, 0
2, 112520, Note_off_c, 1, 40, 0
2, 112520, Note_on_c, 1, 55, 127
2, 112520, Note_on_c, 1, 57, 127
2, 112560, Note_off_c, 1, 55, 0
2, 112560, Note_off_c, 1, 57, 0
2, 112600, Note_on_c, 1, 50, 127
2, 112600, Note_on_c, 1, 55, 127
2, 112600, Note_on_c, 1, 62, 127
2, 112640, Note_off_c, 1, 50, 0
2, 112640, Note_off_c, 1, 55, 0
2, 112640, Note_off_c, 1, 62, 0
2, 112680, Note_on_c, 1, 50, 127
2, 112680, Note_on_c, 1, 54, 127
2, 112680, Note_on_c, 1, 66, 127
2, 112720, Note_off_c, 1, 50, 0
2, 112720, Note_off_c, 1, 54, 0
2, 112720, Note_off_c, 1, 66, 0
2, 112760, Note_on_c, 1, 48, 127
2, 112760, Note_on_c, 1, 60, 127
2, 112760, Note_on_c, 1, 64, 127
2, 112800, Note_off_c, 1, 48, 0
2, 112800, Note_off_c, 1, 60, 0
2, 112800, Note_off_c, 1, 64, 0
2, 112840, Note_on_c, 1, 53, 127
2, 112840, Note_on_c, 1, 55, 127
2, 112840, Note_on_c, 1, 63, 127
2, 112840, Note_on_c, 1, 70, 127
2, 112880, Note_off_c, 1, 53, 0
2, 112880, Note_off_c, 1, 55, 0
2, 112880, Note_off_c, 1, 63, 0
2, 112880, Note_off_c, 1, 70, 0
2, 112920, Note_on_c, 1, 46, 127
2, 112920, Note_on_c, 1, 68, 127
2, 112920, Note_on_c, 1, 71, 127
2, 112920, Note_on_c, 1, 79, 127
2, 112960, Note_off_c, 1, 46, 0
2, 112960, Note_off_c, 1, 68, 0
2, 112960, Note_off_c, 1, 71, 0
2, 112960, Note_off_c, 1, 79, 0
2, 113000, Note_on_c, 1, 63, 127
2, 113000, Note_on_c, 1, 67, 127
2, 113000, Note_on_c, 1, 77, 127
2, 113000, Note_on_c, 1, 89, 127
2, 113040, Note_off_c, 1, 63, 0
2, 113040, Note_off_c, 1, 67, 0
2, 113040, Note_off_c, 1, 77, 0
2, 113040, Note_off_c, 1, 89, 0
2, 113080, Note_on_c, 1, 59, 127
2, 113080, Note_on_c, 1, 63, 127
2, 113080, Note_on_c, 1, 65, 127
2, 113080, Note_on_c, 1, 83, 127
2, 113080, Note_on_c, 1, 87, 127
2, 113120, Note_off_c, 1, 59, 0
2, 113120, Note_off_c, 1, 63, 0
2, 113120, Note_off_c, 1, 65, 0
2, 113120, Note_off_c, 1, 83, 0
2, 113120, Note_off_c, 1, 87, 0
2, 113160, Note_on_c, 1, 38, 127
2, 113160, Note_on_c, 1, 50, 127
2, 113160, Note_on_c, 1, 54, 127
2, 113160, Note_on_c, 1, 57, 127
2, 113160, Note_on_c, 1, 60, 127
2, 113160, Note_on_c, 1, 62, 127
2, 113200, Note_off_c, 1, 38, 0
2, 113200, Note_off_c, 1, 50, 0
2, 113200, Note_off_c, 1, 54, 0
2, 113200, Note_off_c, 1, 57, 0
2, 113200, Note_off_c, 1, 60, 0
2, 113200, Note_off_c, 1, 62, 0
2, 113280, Note_on_c, 1, 52, 127
2, 113280, Note_on_c, 1, 59, 127
2, 113280, Note_on_c, 1, 75, 127
2, 113280, Note_on_c, 1, 78, 127
2, 113280, Note_on_c, 1, 80, 127
2, 113320, Note_off_c, 1, 52, 0
2, 113320, Note_off_c, 1, 59, 0
2, 113320, Note_off_c, 1, 75, 0
2, 113320, Note_off_c, 1, 78, 0
2, 113320, Note_off_c, 1, 80, 0
2, 113360, Note_on_c, 1, 52, 127
2, 113360, Note_on_c, 1, 59, 127
2, 113360, Note_on_c, 1, 75, 127
2, 113360, Note_on_c, 1, 78, 127
2, 113360, Note_on_c, 1, 80, 127
2, 113560, Note_off_c, 1, 52, 0
2, 113560, Note_off_c, 1, 59, 0
2, 113560, Note_off_c, 1, 75, 0
2, 113560, Note_off_c, 1, 78, 0
2, 113560, Note_off_c, 1, 80, 0
2, 113680, Note_on_c, 1, 57, 127
2, 113680, Note_on_c, 1, 59, 127
2, 113720, Note_off_c, 1, 57, 0
2, 113720, Note_off_c, 1, 59, 0
2, 113880, Note_on_c, 1, 63, 127
2, 113880, Note_on_c, 1, 66, 127
2, 113880, Note_on_c, 1, 82, 127
2, 113880, Note_on_c, 1, 87, 127
2, 113880, Note_on_c, 1, 90, 127
2, 113920, Note_off_c, 1, 63, 0
2, 113920, Note_off_c, 1, 66, 0
2, 113920, Note_off_c, 1, 82, 0
2, 113920, Note_off_c, 1, 87, 0
2, 113920, Note_off_c, 1, 90, 0
2, 114040, Note_on_c, 1, 43, 127
2, 114040, Note_on_c, 1, 49, 127
2, 114040, Note_on_c, 1, 52, 127
2, 114040, Note_on_c, 1, 58, 127
2, 114040, Note_on_c, 1, 61, 127
2, 114040, Note_on_c, 1, 64, 127
2, 114040, Note_on_c, 1, 70, 127
2, 114080, Note_off_c, 1, 43, 0
2, 114080, Note_off_c, 1, 49, 0
2, 114080, Note_off_c, 1, 52, 0
2, 114080, Note_off_c, 1, 58, 0
2, 114080, Note_off_c, 1, 61, 0
2, 114080, Note_off_c, 1, 64, 0
2, 114080, Note_off_c, 1, 70, 0
2, 114280, Note_on_c, 1, 32, 127
2, 114280, Note_on_c, 1, 39, 127
2, 114280, Note_on_c, 1, 44, 127
2, 114320, Note_off_c, 1, 32, 0
2, 114320, Note_off_c, 1, 39, 0
2, 114320, Note_off_c, 1, 44, 0
2, 114800, Note_on_c, 1, 52, 127
2, 114800, Note_on_c, 1, 55, 127
2, 114800, Note_on_c, 1, 58, 127
2, 114800, Note_on_c, 1, 60, 127
2, 114800, Note_on_c, 1, 82, 127
2, 114800, Note_on_c, 1, 86, 127
2, 114840, Note_off_c, 1, 52, 0
2, 114840, Note_off_c, 1, 55, 0
2, 114840, Note_off_c, 1, 58, 0
2, 114840, Note_off_c, 1, 60, 0
2, 114840, Note_off_c, 1, 82, 0
2, 114840, Note_off_c, 1, 86, 0
2, 115640, Note_on_c, 1, 55, 127
2, 115640, Note_on_c, 1, 57, 127
2, 115640, Note_on_c, 1, 79, 127
2, 115640, Note_on_c, 1, 84, 127
2, 115680, Note_off_c, 1, 55, 0
2, 115680, Note_off_c, 1, 57, 0
2, 115680, Note_off_c, 1, 79, 0
2, 115680, Note_off_c, 1, 84, 0
2, 116440, Note_on_c, 1, 38, 127
2, 116440, Note_on_c, 1, 50, 127
2, 116440, Note_on_c, 1, 55, 127
2, 116440, Note_on_c, 1, 59, 127
2, 116440, Note_on_c, 1, 62, 127
2, 116440, Note_on_c, 1, 67, 127
2, 116440, Note_on_c, 1, 71, 127
2, 116440, Note_on_c, 1, 74, 127
2, 116440, Note_on_c, 1, 79, 127
2, 116640, Note_off_c, 1, 38, 0
2, 116640, Note_off_c, 1, 50, 0
2, 116640, Note_off_c, 1, 55, 0
2, 116640, Note_off_c, 1, 59, 0
2, 116640, Note_off_c, 1, 62, 0
2, 116640, Note_off_c, 1, 67, 0
2, 116640, Note_off_c, 1, 71, 0
2, 116640, Note_off_c, 1, 74, 0
2, 116640, Note_off_c, 1, 79, 0
2, 116680, Note_on_c, 1, 38, 127
2, 116680, Note_on_c, 1, 50, 127
2, 116680, Note_on_c, 1, 55, 127
2, 116680, Note_on_c, 1, 59, 127
2, 116680, Note_on_c, 1, 62, 127
2, 116680, Note_on_c, 1, 67, 127
2, 116680, Note_on_c, 1, 71, 127
2, 116680, Note_on_c, 1, 74, 127
2, 116680, Note_on_c, 1, 79, 127
2, 116840, Note_off_c, 1, 38, 0
2, 116840, Note_off_c, 1, 50, 0
2, 116840, Note_off_c, 1, 55, 0
2, 116840, Note_off_c, 1, 59, 0
2, 116840, Note_off_c, 1, 62, 0
2, 116840, Note_off_c, 1, 67, 0
2, 116840, Note_off_c, 1, 71, 0
2, 116840, Note_off_c, 1, 74, 0
2, 116840, Note_off_c, 1, 79, 0
2, 116880, Note_on_c, 1, 45, 127
2, 116880, Note_on_c, 1, 73, 127
2, 116880, Note_on_c, 1, 79, 127
2, 116920, Note_off_c, 1, 45, 0
2, 116920, Note_off_c, 1, 73, 0
2, 116920, Note_off_c, 1, 79, 0
2, 116960, Note_on_c, 1, 33, 127
2, 116960, Note_on_c, 1, 40, 127
2, 116960, Note_on_c, 1, 72, 127
2, 116960, Note_on_c, 1, 75, 127
2, 116960, Note_on_c, 1, 78, 127
2, 117000, Note_off_c, 1, 33, 0
2, 117000, Note_off_c, 1, 40, 0
2, 117000, Note_on_c, 1, 56, 127
2, 117000, Note_on_c, 1, 63, 127
2, 117000, Note_off_c, 1, 72, 0
2, 117000, Note_off_c, 1, 75, 0
2, 117000, Note_off_c, 1, 78, 0
2, 117000, Note_on_c, 1, 82, 127
2, 117000, Note_on_c, 1, 85, 127
2, 117040, Note_on_c, 1, 55, 127
2, 117040, Note_off_c, 1, 56, 0
2, 117040, Note_on_c, 1, 58, 127
2, 117040, Note_on_c, 1, 60, 127
2, 117040, Note_off_c, 1, 63, 0
2, 117040, Note_on_c, 1, 64, 127
2, 117040, Note_on_c, 1, 67, 127
2, 117040, Note_on_c, 1, 70, 127
2, 117040, Note_on_c, 1, 72, 127
2, 117040, Note_on_c, 1, 79, 127
2, 117040, Note_off_c, 1, 82, 0
2, 117040, Note_off_c, 1, 85, 0
2, 117080, Note_on_c, 1, 39, 127
2, 117080, Note_on_c, 1, 47, 127
2, 117080, Note_off_c, 1, 55, 0
2, 117080, Note_on_c, 1, 57, 127
2, 117080, Note_off_c, 1, 58, 0
2, 117080, Note_on_c, 1, 59, 127
2, 117080, Note_off_c, 1, 60, 0
2, 117080, Note_off_c, 1, 64, 0
2, 117080, Note_off_c, 1, 67, 0
2, 117080, Note_off_c, 1, 70, 0
2, 117080, Note_off_c, 1, 72, 0
2, 117080, Note_off_c, 1, 79, 0
2, 117120, Note_off_c, 1, 39, 0
2, 117120, Note_off_c, 1, 47, 0
2, 117120, Note_off_c, 1, 57, 0
2, 117120, Note_off_c, 1, 59, 0
2, 117120, Note_on_c, 1, 64, 127
2, 117120, Note_on_c, 1, 68, 127
2, 117120, Note_on_c, 1, 74, 127
2, 117120, Note_on_c, 1, 88, 127
2, 117160, Note_on_c, 1, 55, 127
2, 117160, Note_off_c, 1, 64, 0
2, 117160, Note_off_c, 1, 68, 0
2, 117160, Note_on_c, 1, 69, 127
2, 117160, Note_off_c, 1, 74, 0
2, 117160, Note_on_c, 1, 75, 127
2, 117160, Note_on_c, 1, 77, 127
2, 117160, Note_on_c, 1, 81, 127
2, 117160, Note_off_c, 1, 88, 0
2, 117200, Note_off_c, 1, 55, 0
2, 117200, Note_off_c, 1, 69, 0
2, 117200, Note_off_c, 1, 75, 0
2, 117200, Note_off_c, 1, 77, 0
2, 117200, Note_off_c, 1, 81, 0
2, 117240, Note_on_c, 1, 32, 127
2, 117240, Note_on_c, 1, 52, 127
2, 117240, Note_on_c, 1, 55, 127
2, 117240, Note_on_c, 1, 58, 127
2, 117480, Note_off_c, 1, 32, 0
2, 117480, Note_off_c, 1, 52, 0
2, 117480, Note_off_c, 1, 55, 0
2, 117480, Note_off_c, 1, 58, 0
2, 117520, Note_on_c, 1, 53, 127
2, 117520, Note_on_c, 1, 60, 127
2, 117520, Note_on_c, 1, 63, 127
2, 117520, Note_on_c, 1, 69, 127
2, 117520, Note_on_c, 1, 75, 127
2, 117520, Note_on_c, 1, 81, 127
2, 117920, Note_off_c, 1, 53, 0
2, 117920, Note_off_c, 1, 60, 0
2, 117920, Note_off_c, 1, 63, 0
2, 117920, Note_off_c, 1, 69, 0
2, 117920, Note_off_c, 1, 75, 0
2, 117920, Note_off_c, 1, 81, 0
2, 117960, Note_on_c, 1, 55, 127
2, 117960, Note_on_c, 1, 58, 127
2, 117960, Note_on_c, 1, 63, 127
2, 117960, Note_on_c, 1, 70, 127
2, 118000, Note_off_c, 1, 70, 0
2, 118040, Note_on_c, 1, 70, 127
2, 118240, Note_off_c, 1, 70, 0
2, 118320, Note_on_c, 1, 75, 127
2, 118360, Note_off_c, 1, 55, 0
2, 118360, Note_on_c, 1, 56, 127
2, 118360, Note_off_c, 1, 58, 0
2, 118360, Note_on_c, 1, 60, 127
2, 118400, Note_on_c, 1, 55, 127
2, 118400, Note_off_c, 1, 56, 0
2, 118400, Note_on_c, 1, 58, 127
2, 118400, Note_off_c, 1, 60, 0
2, 118400, Note_off_c, 1, 75, 0
2, 118440, Note_off_c, 1, 55, 0
2, 118440, Note_off_c, 1, 58, 0
2, 118440, Note_off_c, 1, 63, 0
2, 118480, Note_on_c, 1, 55, 127
2, 118480, Note_on_c, 1, 58, 127
2, 118480, Note_on_c, 1, 63, 127
2, 118480, Note_on_c, 1, 79, 127
2, 118560, Note_off_c, 1, 79, 0
2, 118600, Note_on_c, 1, 79, 127
2, 118680, Note_off_c, 1, 55, 0
2, 118680, Note_off_c, 1, 58, 0
2, 118680, Note_off_c, 1, 63, 0
2, 118680, Note_off_c, 1, 79, 0
2, 118720, Note_on_c, 1, 55, 127
2, 118720, Note_on_c, 1, 58, 127
2, 118720, Note_on_c, 1, 63, 127
2, 118720, Note_on_c, 1, 86, 127
2, 118760, Note_off_c, 1, 86, 0
2, 118800, Note_on_c, 1, 87, 127
2, 118840, Note_off_c, 1, 87, 0
2, 118880, Note_on_c, 1, 80, 127
2, 118920, Note_off_c, 1, 80, 0
2, 118960, Note_on_c, 1, 86, 127
2, 119000, Note_off_c, 1, 86, 0
2, 119040, Note_on_c, 1, 88, 127
2, 119120, Note_on_c, 1, 38, 127
2, 119120, Note_on_c, 1, 43, 127
2, 119120, Note_on_c, 1, 50, 127
2, 119120, Note_off_c, 1, 58, 0
2, 119120, Note_off_c, 1, 63, 0
2, 119120, Note_off_c, 1, 88, 0
2, 119160, Note_off_c, 1, 38, 0
2, 119160, Note_off_c, 1, 43, 0
2, 119160, Note_off_c, 1, 50, 0
2, 119160, Note_off_c, 1, 55, 0
2, 119160, Note_on_c, 1, 60, 127
2, 119160, Note_on_c, 1, 66, 127
2, 119160, Note_on_c, 1, 69, 127
2, 119160, Note_on_c, 1, 77, 127
2, 119200, Note_off_c, 1, 60, 0
2, 119200, Note_on_c, 1, 63, 127
2, 119200, Note_off_c, 1, 69, 0
2, 119200, Note_on_c, 1, 72, 127
2, 119200, Note_off_c, 1, 77, 0
2, 119200, Note_on_c, 1, 79, 127
2, 119240, Note_off_c, 1, 63, 0
2, 119240, Note_off_c, 1, 66, 0
2, 119240, Note_on_c, 1, 67, 127
2, 119240, Note_off_c, 1, 72, 0
2, 119240, Note_on_c, 1, 77, 127
2, 119240, Note_off_c, 1, 79, 0
2, 119240, Note_on_c, 1, 84, 127
2, 119240, Note_on_c, 1, 87, 127
2, 119280, Note_off_c, 1, 67, 0
2, 119280, Note_off_c, 1, 77, 0
2, 119280, Note_off_c, 1, 84, 0
2, 119280, Note_off_c, 1, 87, 0
2, 119320, Note_on_c, 1, 32, 127
2, 119320, Note_on_c, 1, 72, 127
2, 119320, Note_on_c, 1, 75, 127
2, 119320, Note_on_c, 1, 84, 127
2, 119400, Note_off_c, 1, 32, 0
2, 119400, Note_on_c, 1, 44, 127
2, 119440, Note_off_c, 1, 44, 0
2, 119480, Note_on_c, 1, 41, 127
2, 119480, Note_off_c, 1, 72, 0
2, 119480, Note_off_c, 1, 75, 0
2, 119480, Note_on_c, 1, 80, 127
2, 119480, Note_on_c, 1, 89, 127
2, 119480, Note_on_c, 1, 92, 127
2, 119520, Note_off_c, 1, 41, 0
2, 119520, Note_off_c, 1, 80, 0
2, 119520, Note_off_c, 1, 84, 0
2, 119520, Note_off_c, 1, 89, 0
2, 119520, Note_off_c, 1, 92, 0
2, 119560, Note_on_c, 1, 34, 127
2, 119560, Note_on_c, 1, 55, 127
2, 119560, Note_on_c, 1, 58, 127
2, 119560, Note_on_c, 1, 63, 127
2, 119560, Note_on_c, 1, 67, 127
2, 119560, Note_on_c, 1, 70, 127
2, 119560, Note_on_c, 1, 75, 127
2, 119560, Note_on_c, 1, 79, 127
2, 119600, Note_off_c, 1, 34, 0
2, 119600, Note_off_c, 1, 55, 0
2, 119600, Note_off_c, 1, 58, 0
2, 119600, Note_off_c, 1, 63, 0
2, 119600, Note_off_c, 1, 67, 0
2, 119600, Note_off_c, 1, 70, 0
2, 119600, Note_off_c, 1, 75, 0
2, 119600, Note_off_c, 1, 79, 0
2, 119640, Note_on_c, 1, 44, 127
2, 119640, Note_on_c, 1, 48, 127
2, 119640, Note_on_c, 1, 65, 127
2, 119640, Note_on_c, 1, 72, 127
2, 119680, Note_off_c, 1, 44, 0
2, 119680, Note_off_c, 1, 48, 0
2, 119680, Note_on_c, 1, 50, 127
2, 119680, Note_on_c, 1, 57, 127
2, 119680, Note_on_c, 1, 60, 127
2, 119680, Note_on_c, 1, 69, 127
2, 119680, Note_on_c, 1, 77, 127
2, 119720, Note_off_c, 1, 50, 0
2, 119720, Note_off_c, 1, 57, 0
2, 119720, Note_off_c, 1, 60, 0
2, 119720, Note_off_c, 1, 65, 0
2, 119720, Note_off_c, 1, 69, 0
2, 119720, Note_off_c, 1, 72, 0
2, 119720, Note_off_c, 1, 77, 0
2, 119760, Note_on_c, 1, 52, 127
2, 119760, Note_on_c, 1, 67, 127
2, 119760, Note_on_c, 1, 70, 127
2, 119760, Note_on_c, 1, 74, 127
2, 119800, Note_off_c, 1, 52, 0
2, 119800, Note_off_c, 1, 67, 0
2, 119800, Note_off_c, 1, 70, 0
2, 119800, Note_on_c, 1, 72, 127
2, 119800, Note_off_c, 1, 74, 0
2, 119800, Note_on_c, 1, 77, 127
2, 119800, Note_on_c, 1, 89, 127
2, 119800, Note_on_c, 1, 93, 127
2, 119840, Note_off_c, 1, 72, 0
2, 119840, Note_off_c, 1, 77, 0
2, 119840, Note_off_c, 1, 89, 0
2, 119840, Note_off_c, 1, 93, 0
2, 119880, Note_on_c, 1, 34, 127
2, 119880, Note_on_c, 1, 68, 127
2, 119880, Note_on_c, 1, 71, 127
2, 119880, Note_on_c, 1, 75, 127
2, 120000, Note_off_c, 1, 34, 0
2, 120000, Note_off_c, 1, 68, 0
2, 120000, Note_off_c, 1, 71, 0
2, 120000, Note_off_c, 1, 75, 0
2, 120040, End_track
3, 0, Start_track
3, 0, Title_t, "MIDI"
3, 1536, End_track
0, 0, End_of_file
