0, 0, Header, 1, 3, 192
1, 0, Start_track
1, 0, Time_signature, 4, 2, 24, 8
1, 0, Tempo, 500000
1, 120040, End_track
2, 0, Start_track
2, 0, Text_t, "random instrument: random person i dunno whatev"
2, 0, Title_t, "Track 1"
2, 0, Note_on_c, 1, 34, 127
2, 0, Note_on_c, 1, 53, 127
2, 0, Note_on_c, 1, 56, 127
2, 0, Note_on_c, 1, 62, 127
2, 40, Note_off_c, 1, 34, 0
2, 40, Note_off_c, 1, 53, 0
2, 40, Note_off_c, 1, 56, 0
2, 40, Note_off_c, 1, 62, 0
2, 40, Note_on_c, 1, 67, 127
2, 40, Note_on_c, 1, 76, 127
2, 40, Note_on_c, 1, 79, 127
2, 40, Note_on_c, 1, 85, 127
2, 40, Note_on_c, 1, 88, 127
2, 80, Note_off_c, 1, 67, 0
2, 80, Note_off_c, 1, 76, 0
2, 80, Note_off_c, 1, 79, 0
2, 80, Note_off_c, 1, 85, 0
2, 80, Note_off_c, 1, 88, 0
2, 120, Note_on_c, 1, 34, 127
2, 120, Note_on_c, 1, 53, 127
2, 120, Note_on_c, 1, 56, 127
2, 120, Note_on_c, 1, 62, 127
2, 160, Note_off_c, 1, 34, 0
2, 160, Note_on_c, 1, 43, 127
2, 160, Note_on_c, 1, 47, 127
2, 160, Note_off_c, 1, 53, 0
2, 160, Note_on_c, 1, 55, 127
2, 160, Note_off_c, 1, 56, 0
2, 160, Note_off_c, 1, 62, 0
2, 160, Note_on_c, 1, 79, 127
2, 160, Note_on_c, 1, 83, 127
2, 160, Note_on_c, 1, 87, 127
2, 160, Note_on_c, 1, 91, 127
2, 200, Note_on_c, 1, 34, 127
2, 200, Note_off_c, 1, 43, 0
2, 200, Note_off_c, 1, 47, 0
2, 200, Note_on_c, 1, 53, 127
2, 200, Note_off_c, 1, 55, 0
2, 200, Note_on_c, 1, 56, 127
2, 200, Note_on_c, 1, 62, 127
2, 200, Note_off_c, 1, 79, 0
2, 200, Note_off_c, 1, 83, 0
2, 200, Note_off_c, 1, 87, 0
2, 200, Note_off_c, 1, 91, 0
2, 680, Note_off_c, 1, 34, 0
2, 680, Note_off_c, 1, 53, 0
2, 680, Note_off_c, 1, 56, 0
2, 680, Note_off_c, 1, 62, 0
2, 1680, Note_on_c, 1, 36, 127
2, 1680, Note_on_c, 1, 43, 127
2, 1680, Note_on_c, 1, 48, 127
2, 1680, Note_on_c, 1, 52, 127
2, 1680, Note_on_c, 1, 60, 127
2, 1680, Note_on_c, 1, 87, 127
2, 1720, Note_off_c, 1, 36, 0
2, 1720, Note_off_c, 1, 43, 0
2, 1720, Note_on_c, 1, 47, 127
2, 1720, Note_off_c, 1, 48, 0
2, 1720, Note_on_c, 1, 49, 127
2, 1720, Note_off_c, 1, 52, 0
2, 1720, Note_off_c, 1, 60, 0
2, 1720, Note_on_c, 1, 73, 127
2, 1720, Note_on_c, 1, 75, 127
2, 1720, Note_on_c, 1, 85, 127
2, 1720, Note_off_c, 1, 87, 0
2, 1760, Note_off_c, 1, 47, 0
2, 1760, Note_off_c, 1, 49, 0
2, 1760, Note_off_c, 1, 73, 0
2, 1760, Note_off_c, 1, 75, 0
2, 1760, Note_off_c, 1, 85, 0
2, 5160, Note_on_c, 1, 48, 127
2, 5160, Note_on_c, 1, 55, 127
2, 5160, Note_on_c, 1, 60, 127
2, 5160, Note_on_c, 1, 64, 127
2, 6720, Note_off_c, 1, 48, 0
2, 6720, Note_off_c, 1, 55, 0
2, 6720, Note_off_c, 1, 60, 0
2, 6720, Note_off_c, 1, 64, 0
2, 6800, Note_on_c, 1, 43, 127
2, 6800, Note_on_c, 1, 55, 127
2, 6800, Note_on_c, 1, 59, 127
2, 6800, Note_on_c, 1, 62, 127
2, 8280, Note_off_c, 1, 43, 0
2, 8280, Note_off_c, 1, 55, 0
2, 8280, Note_off_c, 1, 59, 0
2, 8280, Note_off_c, 1, 62, 0
2, 10040, Note_on_c, 1, 42, 127
2, 10040, Note_on_c, 1, 49, 127
2, 10120, Note_off_c, 1, 42, 0
2, 10120, Note_off_c, 1, 49, 0
2, 10160, Note_on_c, 1, 49, 127
2, 10160, Note_on_c, 1, 58, 127
2, 10640, Note_off_c, 1, 49, 0
2, 10680, Note_on_c, 1, 52, 127
2, 11080, Note_off_c, 1, 58, 0
2, 11080, Note_on_c, 1, 61, 127
2, 11280, Note_off_c, 1, 52, 0
2, 11280, Note_off_c, 1, 61, 0
2, 11320, Note_on_c, 1, 44, 127
2, 11320, Note_on_c, 1, 54, 127
2, 11320, Note_on_c, 1, 60, 127
2, 11840, Note_off_c, 1, 54, 0
2, 11880, Note_on_c, 1, 51, 127
2, 12160, Note_off_c, 1, 44, 0
2, 12160, Note_off_c, 1, 51, 0
2, 12160, Note_off_c, 1, 60, 0
2, 12200, Note_on_c, 1, 44, 127
2, 12200, Note_on_c, 1, 51, 127
2, 12200, Note_on_c, 1, 60, 127
2, 12320, Note_off_c, 1, 44, 0
2, 12320, Note_off_c, 1, 51, 0
2, 12320, Note_off_c, 1, 60, 0
2, 12360, Note_on_c, 1, 52, 127
2, 12360, Note_on_c, 1, 56, 127
2, 12360, Note_on_c, 1, 64, 127
2, 13160, Note_off_c, 1, 52, 0
2, 13160, Note_off_c, 1, 56, 0
2, 13160, Note_off_c, 1, 64, 0
2, 13200, Note_on_c, 1, 52, 127
2, 13200, Note_on_c, 1, 56, 127
2, 13200, Note_on_c, 1, 64, 127
2, 13200, Note_on_c, 1, 71, 127
2, 14000, Note_on_c, 1, 59, 127
2, 14000, Note_off_c, 1, 64, 0
2, 14080, Note_off_c, 1, 52, 0
2, 14080, Note_off_c, 1, 56, 0
2, 14080, Note_off_c, 1, 59, 0
2, 14080, Note_off_c, 1, 71, 0
2, 14160, Note_on_c, 1, 42, 127
2, 14160, Note_on_c, 1, 47, 127
2, 14160, Note_on_c, 1, 51, 127
2, 14160, Note_on_c, 1, 57, 127
2, 14160, Note_on_c, 1, 59, 127
2, 14960, Note_on_c, 1, 35, 127
2, 14960, Note_off_c, 1, 42, 0
2, 14960, Note_off_c, 1, 47, 0
2, 14960, Note_off_c, 1, 51, 0
2, 14960, Note_off_c, 1, 57, 0
2, 14960, Note_off_c, 1, 59, 0
2, 15000, Note_off_c, 1, 35, 0
2, 15000, Note_on_c, 1, 42, 127
2, 15000, Note_on_c, 1, 47, 127
2, 15000, Note_on_c, 1, 54, 127
2, 15000, Note_on_c, 1, 59, 127
2, 15000, Note_on_c, 1, 63, 127
2, 15760, Note_off_c, 1, 42, 0
2, 15760, Note_off_c, 1, 47, 0
2, 15760, Note_off_c, 1, 59, 0
2, 15760, Note_off_c, 1, 63, 0
2, 15840, Note_on_c, 1, 47, 127
2, 15840, Note_on_c, 1, 59, 127
2, 15840, Note_on_c, 1, 63, 127
2, 15840, Note_on_c, 1, 66, 127
2, 15840, Note_on_c, 1, 71, 127
2, 15840, Note_on_c, 1, 75, 127
2, 16160, Note_off_c, 1, 47, 0
2, 16160, Note_off_c, 1, 54, 0
2, 16160, Note_off_c, 1, 59, 0
2, 16160, Note_off_c, 1, 63, 0
2, 16160, Note_off_c, 1, 66, 0
2, 16160, Note_off_c, 1, 71, 0
2, 16160, Note_off_c, 1, 75, 0
2, 16200, Note_on_c, 1, 47, 127
2, 16200, Note_on_c, 1, 54, 127
2, 16200, Note_on_c, 1, 59, 127
2, 16200, Note_on_c, 1, 63, 127
2, 16200, Note_on_c, 1, 66, 127
2, 16200, Note_on_c, 1, 71, 127
2, 16200, Note_on_c, 1, 75, 127
2, 17120, Note_off_c, 1, 47, 0
2, 17120, Note_off_c, 1, 54, 0
2, 17120, Note_off_c, 1, 59, 0
2, 17120, Note_off_c, 1, 63, 0
2, 17120, Note_off_c, 1, 66, 0
2, 17120, Note_off_c, 1, 71, 0
2, 17120, Note_off_c, 1, 75, 0
2, 18240, Note_on_c, 1, 40, 127
2, 18240, Note_on_c, 1, 52, 127
2, 18240, Note_on_c, 1, 64, 127
2, 19560, Note_off_c, 1, 40, 0
2, 19560, Note_off_c, 1, 52, 0
2, 19560, Note_off_c, 1, 64, 0
2, 19600, Note_on_c, 1, 33, 127
2, 19600, Note_on_c, 1, 45, 127
2, 19600, Note_on_c, 1, 57, 127
2, 19760, Note_off_c, 1, 33, 0
2, 19760, Note_off_c, 1, 45, 0
2, 19760, Note_off_c, 1, 57, 0
2, 19800, Note_on_c, 1, 33, 127
2, 19800, Note_on_c, 1, 45, 127
2, 19800, Note_on_c, 1, 57, 127
2, 20520, Note_off_c, 1, 33, 0
2, 20520, Note_off_c, 1, 45, 0
2, 20520, Note_off_c, 1, 57, 0
2, 20560, Note_on_c, 1, 33, 127
2, 20560, Note_on_c, 1, 45, 127
2, 20560, Note_on_c, 1, 57, 127
2, 20760, Note_off_c, 1, 33, 0
2, 20760, Note_off_c, 1, 45, 0
2, 20760, Note_off_c, 1, 57, 0
2, 20800, Note_on_c, 1, 45, 127
2, 20800, Note_on_c, 1, 69, 127
2, 20960, Note_off_c, 1, 45, 0
2, 20960, Note_off_c, 1, 69, 0
2, 21000, Note_on_c, 1, 33, 127
2, 21000, Note_on_c, 1, 57, 127
2, 21040, Note_off_c, 1, 33, 0
2, 21040, Note_off_c, 1, 57, 0
2, 21240, Note_on_c, 1, 45, 127
2, 21240, Note_on_c, 1, 69, 127
2, 21280, Note_off_c, 1, 45, 0
2, 21280, Note_off_c, 1, 69, 0
2, 21480, Note_on_c, 1, 45, 127
2, 21480, Note_on_c, 1, 69, 127
2, 21520, Note_off_c, 1, 45, 0
2, 21520, Note_off_c, 1, 69, 0
2, 21720, Note_on_c, 1, 45, 127
2, 21720, Note_on_c, 1, 69, 127
2, 21880, Note_off_c, 1, 45, 0
2, 21880, Note_off_c, 1, 69, 0
2, 21920, Note_on_c, 1, 45, 127
2, 21920, Note_on_c, 1, 69, 127
2, 21960, Note_off_c, 1, 45, 0
2, 22000, Note_on_c, 1, 45, 127
2, 22240, Note_off_c, 1, 45, 0
2, 22240, Note_off_c, 1, 69, 0
2, 23000, Note_on_c, 1, 31, 127
2, 23000, Note_on_c, 1, 43, 127
2, 23000, Note_on_c, 1, 52, 127
2, 23000, Note_on_c, 1, 64, 127
2, 23440, Note_off_c, 1, 31, 0
2, 23440, Note_off_c, 1, 43, 0
2, 23480, Note_on_c, 1, 50, 127
2, 23480, Note_off_c, 1, 52, 0
2, 23480, Note_on_c, 1, 61, 127
2, 23480, Note_on_c, 1, 62, 127
2, 23480, Note_off_c, 1, 64, 0
2, 23480, Note_on_c, 1, 66, 127
2, 23480, Note_on_c, 1, 73, 127
2, 23680, Note_off_c, 1, 50, 0
2, 23680, Note_off_c, 1, 61, 0
2, 23680, Note_off_c, 1, 62, 0
2, 23680, Note_off_c, 1, 66, 0
2, 23680, Note_off_c, 1, 73, 0
2, 24000, Note_on_c, 1, 64, 127
2, 24000, Note_on_c, 1, 66, 127
2, 24000, Note_on_c, 1, 76, 127
2, 24000, Note_on_c, 1, 78, 127
2, 24320, Note_off_c, 1, 64, 0
2, 24320, Note_off_c, 1, 66, 0
2, 24320, Note_off_c, 1, 76, 0
2, 24320, Note_off_c, 1, 78, 0
2, 24440, Note_on_c, 1, 56, 127
2, 24440, Note_on_c, 1, 64, 127
2, 24440, Note_on_c, 1, 68, 127
2, 24440, Note_on_c, 1, 71, 127
2, 24440, Note_on_c, 1, 76, 127
2, 24440, Note_on_c, 1, 83, 127
2, 24840, Note_off_c, 1, 56, 0
2, 24840, Note_off_c, 1, 64, 0
2, 24840, Note_off_c, 1, 68, 0
2, 24840, Note_off_c, 1, 71, 0
2, 24840, Note_off_c, 1, 76, 0
2, 24840, Note_off_c, 1, 83, 0
2, 24880, Note_on_c, 1, 56, 127
2, 24880, Note_on_c, 1, 64, 127
2, 24880, Note_on_c, 1, 68, 127
2, 24880, Note_on_c, 1, 71, 127
2, 24880, Note_on_c, 1, 76, 127
2, 24880, Note_on_c, 1, 83, 127
2, 25520, Note_off_c, 1, 56, 0
2, 25520, Note_off_c, 1, 64, 0
2, 25520, Note_off_c, 1, 68, 0
2, 25520, Note_off_c, 1, 71, 0
2, 25520, Note_off_c, 1, 76, 0
2, 25520, Note_off_c, 1, 83, 0
2, 25560, Note_on_c, 1, 57, 127
2, 25560, Note_on_c, 1, 64, 127
2, 25560, Note_on_c, 1, 69, 127
2, 25560, Note_on_c, 1, 73, 127
2, 25560, Note_on_c, 1, 76, 127
2, 25560, Note_on_c, 1, 85, 127
2, 25880, Note_off_c, 1, 57, 0
2, 25880, Note_off_c, 1, 64, 0
2, 25880, Note_off_c, 1, 69, 0
2, 25880, Note_off_c, 1, 73, 0
2, 25880, Note_off_c, 1, 76, 0
2, 25880, Note_off_c, 1, 85, 0
2, 25920, Note_on_c, 1, 64, 127
2, 25920, Note_on_c, 1, 71, 127
2, 25920, Note_on_c, 1, 76, 127
2, 25960, Note_on_c, 1, 57, 127
2, 25960, Note_on_c, 1, 69, 127
2, 25960, Note_off_c, 1, 71, 0
2, 25960, Note_on_c, 1, 73, 127
2, 25960, Note_on_c, 1, 85, 127
2, 26040, Note_off_c, 1, 57, 0
2, 26040, Note_off_c, 1, 64, 0
2, 26040, Note_off_c, 1, 69, 0
2, 26040, Note_off_c, 1, 73, 0
2, 26040, Note_off_c, 1, 76, 0
2, 26040, Note_off_c, 1, 85, 0
2, 26080, Note_on_c, 1, 57, 127
2, 26080, Note_on_c, 1, 64, 127
2, 26080, Note_on_c, 1, 69, 127
2, 26080, Note_on_c, 1, 73, 127
2, 26080, Note_on_c, 1, 76, 127
2, 26080, Note_on_c, 1, 85, 127
2, 26120, Note_off_c, 1, 57, 0
2, 26120, Note_off_c, 1, 64, 0
2, 26120, Note_off_c, 1, 69, 0
2, 26120, Note_off_c, 1, 73, 0
2, 26120, Note_off_c, 1, 76, 0
2, 26120, Note_off_c, 1, 85, 0
2, 26320, Note_on_c, 1, 40, 127
2, 26320, Note_on_c, 1, 47, 127
2, 26320, Note_on_c, 1, 52, 127
2, 26320, Note_on_c, 1, 68, 127
2, 26320, Note_on_c, 1, 76, 127
2, 26320, Note_on_c, 1, 80, 127
2, 26360, Note_off_c, 1, 40, 0
2, 26360, Note_off_c, 1, 47, 0
2, 26360, Note_off_c, 1, 52, 0
2, 26360, Note_off_c, 1, 68, 0
2, 26360, Note_off_c, 1, 76, 0
2, 26360, Note_off_c, 1, 80, 0
2, 26560, Note_on_c, 1, 66, 127
2, 26560, Note_on_c, 1, 71, 127
2, 26560, Note_on_c, 1, 75, 127
2, 26560, Note_on_c, 1, 78, 127
2, 26560, Note_on_c, 1, 83, 127
2, 26560, Note_on_c, 1, 87, 127
2, 26640, Note_off_c, 1, 66, 0
2, 26640, Note_off_c, 1, 71, 0
2, 26640, Note_off_c, 1, 75, 0
2, 26640, Note_off_c, 1, 78, 0
2, 26640, Note_off_c, 1, 83, 0
2, 26640, Note_off_c, 1, 87, 0
2, 26800, Note_on_c, 1, 66, 127
2, 26800, Note_on_c, 1, 71, 127
2, 26800, Note_on_c, 1, 75, 127
2, 26800, Note_on_c, 1, 78, 127
2, 26800, Note_on_c, 1, 83, 127
2, 26800, Note_on_c, 1, 87, 127
2, 26880, Note_off_c, 1, 66, 0
2, 26880, Note_off_c, 1, 71, 0
2, 26880, Note_off_c, 1, 75, 0
2, 26880, Note_off_c, 1, 78, 0
2, 26880, Note_off_c, 1, 83, 0
2, 26880, Note_off_c, 1, 87, 0
2, 27040, Note_on_c, 1, 66, 127
2, 27040, Note_on_c, 1, 71, 127
2, 27040, Note_on_c, 1, 75, 127
2, 27040, Note_on_c, 1, 78, 127
2, 27040, Note_on_c, 1, 83, 127
2, 27040, Note_on_c, 1, 87, 127
2, 27120, Note_off_c, 1, 66, 0
2, 27120, Note_off_c, 1, 71, 0
2, 27120, Note_off_c, 1, 75, 0
2, 27120, Note_off_c, 1, 78, 0
2, 27120, Note_off_c, 1, 83, 0
2, 27120, Note_off_c, 1, 87, 0
2, 27280, Note_on_c, 1, 66, 127
2, 27280, Note_on_c, 1, 71, 127
2, 27280, Note_on_c, 1, 75, 127
2, 27280, Note_on_c, 1, 78, 127
2, 27280, Note_on_c, 1, 83, 127
2, 27280, Note_on_c, 1, 87, 127
2, 27360, Note_off_c, 1, 66, 0
2, 27360, Note_off_c, 1, 71, 0
2, 27360, Note_off_c, 1, 75, 0
2, 27360, Note_off_c, 1, 78, 0
2, 27360, Note_off_c, 1, 83, 0
2, 27360, Note_off_c, 1, 87, 0
2, 27520, Note_on_c, 1, 68, 127
2, 27520, Note_on_c, 1, 71, 127
2, 27520, Note_on_c, 1, 76, 127
2, 27520, Note_on_c, 1, 83, 127
2, 27520, Note_on_c, 1, 88, 127
2, 27600, Note_off_c, 1, 68, 0
2, 27600, Note_off_c, 1, 71, 0
2, 27600, Note_off_c, 1, 76, 0
2, 27600, Note_off_c, 1, 83, 0
2, 27600, Note_off_c, 1, 88, 0
2, 27760, Note_on_c, 1, 49, 127
2, 27760, Note_on_c, 1, 54, 127
2, 27760, Note_on_c, 1, 61, 127
2, 27760, Note_on_c, 1, 64, 127
2, 27760, Note_on_c, 1, 70, 127
2, 27760, Note_on_c, 1, 76, 127
2, 27840, Note_off_c, 1, 49, 0
2, 27840, Note_off_c, 1, 54, 0
2, 27840, Note_off_c, 1, 61, 0
2, 27840, Note_off_c, 1, 64, 0
2, 27840, Note_off_c, 1, 70, 0
2, 27840, Note_off_c, 1, 76, 0
2, 27880, Note_on_c, 1, 49, 127
2, 27880, Note_on_c, 1, 54, 127
2, 27880, Note_on_c, 1, 61, 127
2, 27880, Note_on_c, 1, 64, 127
2, 27880, Note_on_c, 1, 70, 127
2, 27880, Note_on_c, 1, 76, 127
2, 28200, Note_off_c, 1, 49, 0
2, 28200, Note_off_c, 1, 54, 0
2, 28200, Note_off_c, 1, 61, 0
2, 28200, Note_off_c, 1, 64, 0
2, 28200, Note_off_c, 1, 70, 0
2, 28200, Note_off_c, 1, 76, 0
2, 28240, Note_on_c, 1, 47, 127
2, 28240, Note_on_c, 1, 59, 127
2, 28240, Note_on_c, 1, 63, 127
2, 28240, Note_on_c, 1, 66, 127
2, 28240, Note_on_c, 1, 71, 127
2, 28240, Note_on_c, 1, 75, 127
2, 28880, Note_off_c, 1, 47, 0
2, 28880, Note_off_c, 1, 59, 0
2, 28880, Note_off_c, 1, 63, 0
2, 28880, Note_off_c, 1, 66, 0
2, 28880, Note_off_c, 1, 71, 0
2, 28880, Note_off_c, 1, 75, 0
2, 29400, Note_on_c, 1, 40, 127
2, 29400, Note_on_c, 1, 44, 127
2, 29400, Note_on_c, 1, 47, 127
2, 29400, Note_on_c, 1, 52, 127
2, 29400, Note_on_c, 1, 64, 127
2, 29400, Note_on_c, 1, 68, 127
2, 29400, Note_on_c, 1, 71, 127
2, 29400, Note_on_c, 1, 76, 127
2, 29440, Note_off_c, 1, 40, 0
2, 29440, Note_off_c, 1, 44, 0
2, 29440, Note_off_c, 1, 47, 0
2, 29440, Note_off_c, 1, 52, 0
2, 29440, Note_off_c, 1, 64, 0
2, 29440, Note_off_c, 1, 68, 0
2, 29440, Note_off_c, 1, 71, 0
2, 29440, Note_off_c, 1, 76, 0
2, 30600, Note_on_c, 1, 45, 127
2, 30600, Note_on_c, 1, 52, 127
2, 30600, Note_on_c, 1, 59, 127
2, 30600, Note_on_c, 1, 62, 127
2, 31480, Note_off_c, 1, 45, 0
2, 31480, Note_off_c, 1, 52, 0
2, 31480, Note_off_c, 1, 59, 0
2, 31480, Note_off_c, 1, 62, 0
2, 32600, Note_on_c, 1, 57, 127
2, 32600, Note_on_c, 1, 73, 127
2, 33080, Note_off_c, 1, 57, 0
2, 33080, Note_off_c, 1, 73, 0
2, 33120, Note_on_c, 1, 73, 127
2, 33960, Note_off_c, 1, 73, 0
2, 34000, Note_on_c, 1, 59, 127
2, 34000, Note_on_c, 1, 75, 127
2, 34320, Note_off_c, 1, 59, 0
2, 34320, Note_off_c, 1, 75, 0
2, 34360, Note_on_c, 1, 59, 127
2, 34360, Note_on_c, 1, 75, 127
2, 34480, Note_off_c, 1, 59, 0
2, 34480, Note_off_c, 1, 75, 0
2, 34520, Note_on_c, 1, 52, 127
2, 34520, Note_on_c, 1, 68, 127
2, 35000, Note_off_c, 1, 52, 0
2, 35000, Note_off_c, 1, 68, 0
2, 35040, Note_on_c, 1, 49, 127
2, 35040, Note_on_c, 1, 76, 127
2, 35520, Note_off_c, 1, 49, 0
2, 35520, Note_off_c, 1, 76, 0
2, 35560, Note_on_c, 1, 68, 127
2, 35880, Note_off_c, 1, 68, 0
2, 35920, Note_on_c, 1, 72, 127
2, 36240, Note_off_c, 1, 72, 0
2, 36280, Note_on_c, 1, 52, 127
2, 36280, Note_on_c, 1, 56, 127
2, 36280, Note_on_c, 1, 61, 127
2, 36520, Note_off_c, 1, 52, 0
2, 36520, Note_off_c, 1, 56, 0
2, 36520, Note_off_c, 1, 61, 0
2, 36560, Note_on_c, 1, 49, 127
2, 36560, Note_on_c, 1, 52, 127
2, 36560, Note_on_c, 1, 56, 127
2, 36560, Note_on_c, 1, 61, 127
2, 37400, Note_off_c, 1, 49, 0
2, 37400, Note_off_c, 1, 52, 0
2, 37400, Note_off_c, 1, 56, 0
2, 37400, Note_off_c, 1, 61, 0
2, 38720, Note_on_c, 1, 38, 127
2, 38720, Note_on_c, 1, 50, 127
2, 38720, Note_on_c, 1, 53, 127
2, 38720, Note_on_c, 1, 57, 127
2, 38720, Note_on_c, 1, 62, 127
2, 38800, Note_off_c, 1, 38, 0
2, 38800, Note_off_c, 1, 50, 0
2, 38800, Note_off_c, 1, 53, 0
2, 38800, Note_off_c, 1, 57, 0
2, 38800, Note_off_c, 1, 62, 0
2, 38840, Note_on_c, 1, 38, 127
2, 38840, Note_on_c, 1, 50, 127
2, 38840, Note_on_c, 1, 53, 127
2, 38840, Note_on_c, 1, 57, 127
2, 38840, Note_on_c, 1, 62, 127
2, 40160, Note_off_c, 1, 38, 0
2, 40160, Note_off_c, 1, 50, 0
2, 40160, Note_off_c, 1, 53, 0
2, 40160, Note_off_c, 1, 57, 0
2, 40160, Note_off_c, 1, 62, 0
2, 40200, Note_on_c, 1, 50, 127
2, 40640, Note_off_c, 1, 50, 0
2, 40680, Note_on_c, 1, 50, 127
2, 41680, Note_off_c, 1, 50, 0
2, 41720, Note_on_c, 1, 54, 127
2, 43000, Note_off_c, 1, 54, 0
2, 43040, Note_on_c, 1, 57, 127
2, 43240, Note_off_c, 1, 57, 0
2, 43320, Note_on_c, 1, 54, 127
2, 43480, Note_off_c, 1, 54, 0
2, 45200, Note_on_c, 1, 58, 127
2, 45200, Note_on_c, 1, 62, 127
2, 45640, Note_off_c, 1, 58, 0
2, 45640, Note_off_c, 1, 62, 0
2, 45680, Note_on_c, 1, 58, 127
2, 45680, Note_on_c, 1, 62, 127
2, 46400, Note_off_c, 1, 58, 0
2, 46400, Note_off_c, 1, 62, 0
2, 46440, Note_on_c, 1, 45, 127
2, 46600, Note_on_c, 1, 60, 127
2, 46640, Note_off_c, 1, 60, 0
2, 46640, Note_on_c, 1, 62, 127
2, 46680, Note_off_c, 1, 62, 0
2, 46720, Note_on_c, 1, 62, 127
2, 46920, Note_off_c, 1, 45, 0
2, 46920, Note_off_c, 1, 62, 0
2, 46960, Note_on_c, 1, 47, 127
2, 46960, Note_on_c, 1, 50, 127
2, 47680, Note_off_c, 1, 50, 0
2, 47680, Note_on_c, 1, 57, 127
2, 47680, Note_on_c, 1, 62, 127
2, 47680, Note_on_c, 1, 68, 127
2, 47680, Note_on_c, 1, 71, 127
2, 47720, Note_off_c, 1, 47, 0
2, 47720, Note_on_c, 1, 49, 127
2, 47720, Note_on_c, 1, 55, 127
2, 47720, Note_off_c, 1, 57, 0
2, 47720, Note_on_c, 1, 59, 127
2, 47720, Note_off_c, 1, 62, 0
2, 47720, Note_on_c, 1, 67, 127
2, 47720, Note_off_c, 1, 68, 0
2, 47720, Note_off_c, 1, 71, 0
2, 47760, Note_off_c, 1, 49, 0
2, 47760, Note_off_c, 1, 55, 0
2, 47760, Note_off_c, 1, 59, 0
2, 47760, Note_off_c, 1, 67, 0
2, 47800, Note_on_c, 1, 55, 127
2, 47800, Note_on_c, 1, 61, 127
2, 47800, Note_on_c, 1, 70, 127
2, 47800, Note_on_c, 1, 79, 127
2, 47800, Note_on_c, 1, 82, 127
2, 47840, Note_on_c, 1, 45, 127
2, 47840, Note_on_c, 1, 54, 127
2, 47840, Note_off_c, 1, 55, 0
2, 47840, Note_on_c, 1, 57, 127
2, 47840, Note_off_c, 1, 61, 0
2, 47840, Note_off_c, 1, 70, 0
2, 47840, Note_off_c, 1, 79, 0
2, 47840, Note_on_c, 1, 81, 127
2, 47840, Note_off_c, 1, 82, 0
2, 47880, Note_off_c, 1, 45, 0
2, 47880, Note_off_c, 1, 54, 0
2, 47880, Note_off_c, 1, 57, 0
2, 47880, Note_on_c, 1, 72, 127
2, 47880, Note_on_c, 1, 75, 127
2, 47880, Note_on_c, 1, 87, 127
2, 47880, Note_on_c, 1, 89, 127
2, 47920, Note_on_c, 1, 31, 127
2, 47920, Note_on_c, 1, 43, 127
2, 47920, Note_off_c, 1, 72, 0
2, 47920, Note_off_c, 1, 75, 0
2, 47920, Note_off_c, 1, 81, 0
2, 47920, Note_on_c, 1, 82, 127
2, 47920, Note_off_c, 1, 89, 0
2, 47920, Note_on_c, 1, 94, 127
2, 47960, Note_off_c, 1, 31, 0
2, 47960, Note_on_c, 1, 39, 127
2, 47960, Note_off_c, 1, 43, 0
2, 47960, Note_on_c, 1, 46, 127
2, 47960, Note_on_c, 1, 56, 127
2, 47960, Note_on_c, 1, 63, 127
2, 47960, Note_on_c, 1, 68, 127
2, 47960, Note_off_c, 1, 82, 0
2, 47960, Note_off_c, 1, 87, 0
2, 47960, Note_off_c, 1, 94, 0
2, 48000, Note_off_c, 1, 39, 0
2, 48000, Note_on_c, 1, 43, 127
2, 48000, Note_off_c, 1, 46, 0
2, 48000, Note_on_c, 1, 55, 127
2, 48000, Note_off_c, 1, 56, 0
2, 48000, Note_off_c, 1, 63, 0
2, 48000, Note_off_c, 1, 68, 0
2, 48000, Note_on_c, 1, 82, 127
2, 48000, Note_on_c, 1, 85, 127
2, 48000, Note_on_c, 1, 90, 127
2, 48000, Note_on_c, 1, 94, 127
2, 48040, Note_off_c, 1, 43, 0
2, 48040, Note_on_c, 1, 46, 127
2, 48040, Note_on_c, 1, 49, 127
2, 48040, Note_on_c, 1, 52, 127
2, 48040, Note_off_c, 1, 55, 0
2, 48040, Note_off_c, 1, 82, 0
2, 48040, Note_off_c, 1, 85, 0
2, 48040, Note_off_c, 1, 90, 0
2, 48040, Note_off_c, 1, 94, 0
2, 48080, Note_off_c, 1, 46, 0
2, 48080, Note_on_c, 1, 47, 127
2, 48080, Note_off_c, 1, 49, 0
2, 48080, Note_on_c, 1, 50, 127
2, 48080, Note_off_c, 1, 52, 0
2, 48080, Note_on_c, 1, 53, 127
2, 48080, Note_on_c, 1, 68, 127
2, 48120, Note_on_c, 1, 29, 127
2, 48120, Note_off_c, 1, 47, 0
2, 48120, Note_off_c, 1, 50, 0
2, 48120, Note_off_c, 1, 53, 0
2, 48120, Note_on_c, 1, 54, 127
2, 48120, Note_off_c, 1, 68, 0
2, 48160, Note_off_c, 1, 29, 0
2, 48160, Note_off_c, 1, 54, 0
2, 48200, Note_on_c, 1, 36, 127
2, 49040, Note_off_c, 1, 36, 0
2, 51120, Note_on_c, 1, 41, 127
2, 51200, Note_off_c, 1, 41, 0
2, 51240, Note_on_c, 1, 46, 127
2, 51600, Note_off_c, 1, 46, 0
2, 51640, Note_on_c, 1, 53, 127
2, 51960, Note_off_c, 1, 53, 0
2, 52000, Note_on_c, 1, 58, 127
2, 52120, Note_off_c, 1, 58, 0
2, 52160, Note_on_c, 1, 58, 127
2, 52680, Note_off_c, 1, 58, 0
2, 53680, Note_on_c, 1, 64, 127
2, 53680, Note_on_c, 1, 88, 127
2, 54160, Note_off_c, 1, 64, 0
2, 54160, Note_off_c, 1, 88, 0
2, 54200, Note_on_c, 1, 62, 127
2, 54200, Note_on_c, 1, 86, 127
2, 54640, Note_off_c, 1, 62, 0
2, 54640, Note_off_c, 1, 86, 0
2, 54720, Note_on_c, 1, 33, 127
2, 54720, Note_on_c, 1, 50, 127
2, 54720, Note_on_c, 1, 57, 127
2, 55640, Note_off_c, 1, 33, 0
2, 55640, Note_off_c, 1, 57, 0
2, 55680, Note_off_c, 1, 50, 0
2, 55680, Note_on_c, 1, 55, 127
2, 55680, Note_on_c, 1, 58, 127
2, 55680, Note_on_c, 1, 70, 127
2, 55680, Note_on_c, 1, 79, 127
2, 55880, Note_off_c, 1, 79, 0
2, 55920, Note_on_c, 1, 79, 127
2, 56120, Note_off_c, 1, 70, 0
2, 56120, Note_off_c, 1, 79, 0
2, 56160, Note_on_c, 1, 70, 127
2, 56160, Note_on_c, 1, 79, 127
2, 56360, Note_off_c, 1, 58, 0
2, 56360, Note_off_c, 1, 70, 0
2, 56360, Note_off_c, 1, 79, 0
2, 56360, Note_on_c, 1, 82, 127
2, 56400, Note_on_c, 1, 58, 127
2, 56400, Note_off_c, 1, 82, 0
2, 56400, Note_on_c, 1, 86, 127
2, 56600, Note_off_c, 1, 55, 0
2, 56600, Note_off_c, 1, 58, 0
2, 56600, Note_off_c, 1, 86, 0
2, 56680, Note_on_c, 1, 55, 127
2, 56680, Note_on_c, 1, 58, 127
2, 56680, Note_on_c, 1, 82, 127
2, 56840, Note_off_c, 1, 58, 0
2, 57080, Note_off_c, 1, 55, 0
2, 57120, Note_on_c, 1, 55, 127
2, 57120, Note_on_c, 1, 58, 127
2, 57120, Note_on_c, 1, 79, 127
2, 57560, Note_off_c, 1, 55, 0
2, 57560, Note_off_c, 1, 58, 0
2, 57560, Note_off_c, 1, 79, 0
2, 57560, Note_off_c, 1, 82, 0
2, 57600, Note_on_c, 1, 55, 127
2, 57600, Note_on_c, 1, 58, 127
2, 58040, Note_off_c, 1, 55, 0
2, 58040, Note_off_c, 1, 58, 0
2, 58080, Note_on_c, 1, 60, 127
2, 58080, Note_on_c, 1, 63, 127
2, 58080, Note_on_c, 1, 68, 127
2, 58560, Note_off_c, 1, 60, 0
2, 58560, Note_off_c, 1, 63, 0
2, 58560, Note_off_c, 1, 68, 0
2, 58640, Note_on_c, 1, 62, 127
2, 58640, Note_on_c, 1, 68, 127
2, 58640, Note_on_c, 1, 70, 127
2, 58640, Note_on_c, 1, 77, 127
2, 58640, Note_on_c, 1, 82, 127
2, 58640, Note_on_c, 1, 86, 127
2, 58640, Note_on_c, 1, 89, 127
2, 58800, Note_off_c, 1, 77, 0
2, 58800, Note_off_c, 1, 82, 0
2, 58800, Note_off_c, 1, 86, 0
2, 58800, Note_off_c, 1, 89, 0
2, 59000, Note_off_c, 1, 62, 0
2, 59000, Note_off_c, 1, 68, 0
2, 59000, Note_off_c, 1, 70, 0
2, 59080, Note_on_c, 1, 61, 127
2, 59080, Note_on_c, 1, 63, 127
2, 59080, Note_on_c, 1, 67, 127
2, 59080, Note_on_c, 1, 70, 127
2, 59840, Note_off_c, 1, 61, 0
2, 59840, Note_off_c, 1, 63, 0
2, 59840, Note_off_c, 1, 67, 0
2, 59840, Note_off_c, 1, 70, 0
2, 59920, Note_on_c, 1, 58, 127
2, 59920, Note_on_c, 1, 62, 127
2, 59920, Note_on_c, 1, 65, 127
2, 59920, Note_on_c, 1, 70, 127
2, 60000, Note_off_c, 1, 62, 0
2, 60000, Note_on_c, 1, 63, 127
2, 60000, Note_off_c, 1, 65, 0
2, 60000, Note_on_c, 1, 67, 127
2, 60000, Note_off_c, 1, 70, 0
2, 60000, Note_on_c, 1, 75, 127
2, 60400, Note_off_c, 1, 58, 0
2, 60400, Note_off_c, 1, 63, 0
2, 60400, Note_off_c, 1, 67, 0
2, 60400, Note_off_c, 1, 75, 0
2, 60960, Note_on_c, 1, 51, 127
2, 60960, Note_on_c, 1, 58, 127
2, 60960, Note_on_c, 1, 67, 127
2, 60960, Note_on_c, 1, 75, 127
2, 62360, Note_off_c, 1, 51, 0
2, 62360, Note_off_c, 1, 58, 0
2, 62360, Note_off_c, 1, 67, 0
2, 62360, Note_off_c, 1, 75, 0
2, 64080, Note_on_c, 1, 26, 127
2, 64440, Note_off_c, 1, 26, 0
2, 65560, Note_on_c, 1, 53, 127
2, 65560, Note_on_c, 1, 60, 127
2, 65560, Note_on_c, 1, 65, 127
2, 65560, Note_on_c, 1, 69, 127
2, 65560, Note_on_c, 1, 77, 127
2, 65920, Note_off_c, 1, 53, 0
2, 65920, Note_off_c, 1, 60, 0
2, 65920, Note_off_c, 1, 65, 0
2, 65920, Note_off_c, 1, 69, 0
2, 65920, Note_off_c, 1, 77, 0
2, 67200, Note_on_c, 1, 52, 127
2, 67400, Note_on_c, 1, 61, 127
2, 67560, Note_off_c, 1, 52, 0
2, 67560, Note_off_c, 1, 61, 0
2, 67600, Note_on_c, 1, 50, 127
2, 67600, Note_on_c, 1, 59, 127
2, 68200, Note_off_c, 1, 59, 0
2, 68240, Note_on_c, 1, 57, 127
2, 68440, Note_on_c, 1, 48, 127
2, 68440, Note_off_c, 1, 50, 0
2, 69560, Note_on_c, 1, 46, 127
2, 69560, Note_off_c, 1, 48, 0
2, 69560, Note_on_c, 1, 54, 127
2, 69560, Note_off_c, 1, 57, 0
2, 69560, Note_on_c, 1, 58, 127
2, 69680, Note_off_c, 1, 46, 0
2, 69680, Note_off_c, 1, 54, 0
2, 69680, Note_off_c, 1, 58, 0
2, 69720, Note_on_c, 1, 46, 127
2, 69720, Note_on_c, 1, 54, 127
2, 69720, Note_on_c, 1, 58, 127
2, 70200, Note_off_c, 1, 46, 0
2, 70200, Note_off_c, 1, 54, 0
2, 70200, Note_off_c, 1, 58, 0
2, 70240, Note_on_c, 1, 48, 127
2, 70280, Note_on_c, 1, 55, 127
2, 70400, Note_off_c, 1, 55, 0
2, 70680, Note_off_c, 1, 48, 0
2, 71400, Note_on_c, 1, 31, 127
2, 71720, Note_off_c, 1, 31, 0
2, 71760, Note_on_c, 1, 31, 127
2, 72200, Note_off_c, 1, 31, 0
2, 72680, Note_on_c, 1, 55, 127
2, 72680, Note_on_c, 1, 62, 127
2, 72680, Note_on_c, 1, 67, 127
2, 72680, Note_on_c, 1, 71, 127
2, 72680, Note_on_c, 1, 74, 127
2, 73480, Note_off_c, 1, 55, 0
2, 73480, Note_off_c, 1, 62, 0
2, 73480, Note_off_c, 1, 67, 0
2, 73480, Note_off_c, 1, 71, 0
2, 73480, Note_off_c, 1, 74, 0
2, 73560, Note_on_c, 1, 46, 127
2, 73560, Note_on_c, 1, 50, 127
2, 73560, Note_on_c, 1, 58, 127
2, 73560, Note_on_c, 1, 62, 127
2, 73560, Note_on_c, 1, 65, 127
2, 73560, Note_on_c, 1, 70, 127
2, 73880, Note_off_c, 1, 46, 0
2, 73880, Note_off_c, 1, 50, 0
2, 73880, Note_off_c, 1, 58, 0
2, 73880, Note_off_c, 1, 62, 0
2, 73880, Note_off_c, 1, 65, 0
2, 73880, Note_off_c, 1, 70, 0
2, 73920, Note_on_c, 1, 46, 127
2, 73920, Note_on_c, 1, 50, 127
2, 73920, Note_on_c, 1, 58, 127
2, 73920, Note_on_c, 1, 62, 127
2, 73920, Note_on_c, 1, 65, 127
2, 73920, Note_on_c, 1, 70, 127
2, 74160, Note_off_c, 1, 50, 0
2, 74160, Note_on_c, 1, 53, 127
2, 74720, Note_off_c, 1, 46, 0
2, 74720, Note_off_c, 1, 53, 0
2, 74720, Note_on_c, 1, 55, 127
2, 74720, Note_off_c, 1, 65, 0
2, 74720, Note_on_c, 1, 67, 127
2, 74760, Note_on_c, 1, 46, 127
2, 74760, Note_on_c, 1, 53, 127
2, 74760, Note_off_c, 1, 55, 0
2, 74760, Note_on_c, 1, 65, 127
2, 74760, Note_off_c, 1, 67, 0
2, 76120, Note_off_c, 1, 46, 0
2, 76120, Note_off_c, 1, 53, 0
2, 76120, Note_off_c, 1, 58, 0
2, 76120, Note_off_c, 1, 62, 0
2, 76120, Note_off_c, 1, 65, 0
2, 76120, Note_off_c, 1, 70, 0
2, 76160, Note_on_c, 1, 46, 127
2, 76160, Note_on_c, 1, 53, 127
2, 76160, Note_on_c, 1, 58, 127
2, 76160, Note_on_c, 1, 62, 127
2, 76160, Note_on_c, 1, 65, 127
2, 76160, Note_on_c, 1, 70, 127
2, 76520, Note_off_c, 1, 46, 0
2, 76520, Note_off_c, 1, 53, 0
2, 76520, Note_off_c, 1, 58, 0
2, 76520, Note_off_c, 1, 62, 0
2, 76520, Note_off_c, 1, 65, 0
2, 76520, Note_off_c, 1, 70, 0
2, 78120, Note_on_c, 1, 34, 127
2, 78120, Note_on_c, 1, 46, 127
2, 78120, Note_on_c, 1, 58, 127
2, 78160, Note_off_c, 1, 34, 0
2, 78160, Note_off_c, 1, 46, 0
2, 78160, Note_off_c, 1, 58, 0
2, 78240, Note_on_c, 1, 38, 127
2, 78240, Note_on_c, 1, 50, 127
2, 78240, Note_on_c, 1, 62, 127
2, 78280, Note_off_c, 1, 38, 0
2, 78280, Note_off_c, 1, 50, 0
2, 78280, Note_off_c, 1, 62, 0
2, 78320, Note_on_c, 1, 38, 127
2, 78320, Note_on_c, 1, 50, 127
2, 78320, Note_on_c, 1, 62, 127
2, 78360, Note_off_c, 1, 38, 0
2, 78360, Note_off_c, 1, 50, 0
2, 78360, Note_off_c, 1, 62, 0
2, 78440, Note_on_c, 1, 64, 127
2, 78440, Note_on_c, 1, 71, 127
2, 78440, Note_on_c, 1, 83, 127
2, 78440, Note_on_c, 1, 90, 127
2, 78480, Note_off_c, 1, 64, 0
2, 78480, Note_off_c, 1, 71, 0
2, 78480, Note_off_c, 1, 83, 0
2, 78480, Note_off_c, 1, 90, 0
2, 78560, Note_on_c, 1, 74, 127
2, 78560, Note_on_c, 1, 82, 127
2, 78560, Note_on_c, 1, 94, 127
2, 78600, Note_off_c, 1, 74, 0
2, 78600, Note_off_c, 1, 82, 0
2, 78600, Note_off_c, 1, 94, 0
2, 78680, Note_on_c, 1, 74, 127
2, 78680, Note_on_c, 1, 82, 127
2, 78680, Note_on_c, 1, 94, 127
2, 78720, Note_off_c, 1, 74, 0
2, 78720, Note_off_c, 1, 82, 0
2, 78720, Note_off_c, 1, 94, 0
2, 78760, Note_on_c, 1, 74, 127
2, 78760, Note_on_c, 1, 82, 127
2, 78760, Note_on_c, 1, 94, 127
2, 78800, Note_off_c, 1, 74, 0
2, 78800, Note_off_c, 1, 82, 0
2, 78800, Note_off_c, 1, 94, 0
2, 78880, Note_on_c, 1, 74, 127
2, 78880, Note_on_c, 1, 82, 127
2, 78880, Note_on_c, 1, 94, 127
2, 78920, Note_off_c, 1, 74, 0
2, 78920, Note_off_c, 1, 82, 0
2, 78920, Note_off_c, 1, 94, 0
2, 79000, Note_on_c, 1, 69, 127
2, 79000, Note_on_c, 1, 81, 127
2, 79000, Note_on_c, 1, 93, 127
2, 79040, Note_off_c, 1, 69, 0
2, 79040, Note_off_c, 1, 81, 0
2, 79040, Note_off_c, 1, 93, 0
2, 79120, Note_on_c, 1, 69, 127
2, 79120, Note_on_c, 1, 81, 127
2, 79120, Note_on_c, 1, 93, 127
2, 79160, Note_off_c, 1, 69, 0
2, 79160, Note_off_c, 1, 81, 0
2, 79160, Note_off_c, 1, 93, 0
2, 79200, Note_on_c, 1, 69, 127
2, 79200, Note_on_c, 1, 81, 127
2, 79200, Note_on_c, 1, 93, 127
2, 79280, Note_off_c, 1, 69, 0
2, 79280, Note_off_c, 1, 81, 0
2, 79280, Note_off_c, 1, 93, 0
2, 79560, Note_on_c, 1, 38, 127
2, 79560, Note_on_c, 1, 50, 127
2, 79560, Note_on_c, 1, 62, 127
2, 79560, Note_on_c, 1, 74, 127
2, 79600, Note_off_c, 1, 38, 0
2, 79600, Note_off_c, 1, 50, 0
2, 79600, Note_off_c, 1, 62, 0
2, 79600, Note_off_c, 1, 74, 0
2, 79720, Note_on_c, 1, 38, 127
2, 79720, Note_on_c, 1, 50, 127
2, 79720, Note_on_c, 1, 62, 127
2, 79720, Note_on_c, 1, 74, 127
2, 79760, Note_off_c, 1, 38, 0
2, 79760, Note_off_c, 1, 50, 0
2, 79760, Note_off_c, 1, 62, 0
2, 79760, Note_off_c, 1, 74, 0
2, 79920, Note_on_c, 1, 38, 127
2, 79920, Note_on_c, 1, 50, 127
2, 79920, Note_on_c, 1, 62, 127
2, 79920, Note_on_c, 1, 74, 127
2, 79960, Note_off_c, 1, 38, 0
2, 79960, Note_off_c, 1, 50, 0
2, 79960, Note_off_c, 1, 62, 0
2, 79960, Note_off_c, 1, 74, 0
2, 80160, Note_on_c, 1, 38, 127
2, 80160, Note_on_c, 1, 50, 127
2, 80160, Note_on_c, 1, 62, 127
2, 80160, Note_on_c, 1, 74, 127
2, 80560, Note_off_c, 1, 38, 0
2, 80560, Note_off_c, 1, 50, 0
2, 80560, Note_off_c, 1, 62, 0
2, 80560, Note_off_c, 1, 74, 0
2, 80600, Note_on_c, 1, 35, 127
2, 80600, Note_on_c, 1, 47, 127
2, 80600, Note_on_c, 1, 59, 127
2, 80600, Note_on_c, 1, 71, 127
2, 80640, Note_off_c, 1, 35, 0
2, 80640, Note_off_c, 1, 47, 0
2, 80640, Note_off_c, 1, 59, 0
2, 80640, Note_off_c, 1, 71, 0
2, 80800, Note_on_c, 1, 37, 127
2, 80800, Note_on_c, 1, 49, 127
2, 80800, Note_on_c, 1, 61, 127
2, 80800, Note_on_c, 1, 73, 127
2, 80880, Note_off_c, 1, 37, 0
2, 80880, Note_off_c, 1, 49, 0
2, 80880, Note_off_c, 1, 61, 0
2, 80880, Note_off_c, 1, 73, 0
2, 81040, Note_on_c, 1, 35, 127
2, 81040, Note_on_c, 1, 47, 127
2, 81040, Note_on_c, 1, 59, 127
2, 81040, Note_on_c, 1, 71, 127
2, 81080, Note_off_c, 1, 35, 0
2, 81080, Note_off_c, 1, 47, 0
2, 81080, Note_off_c, 1, 59, 0
2, 81080, Note_off_c, 1, 71, 0
2, 81240, Note_on_c, 1, 37, 127
2, 81240, Note_on_c, 1, 49, 127
2, 81240, Note_on_c, 1, 61, 127
2, 81240, Note_on_c, 1, 73, 127
2, 81640, Note_off_c, 1, 37, 0
2, 81640, Note_off_c, 1, 49, 0
2, 81640, Note_off_c, 1, 61, 0
2, 81640, Note_off_c, 1, 73, 0
2, 81680, Note_on_c, 1, 36, 127
2, 81680, Note_on_c, 1, 48, 127
2, 81680, Note_on_c, 1, 60, 127
2, 81680, Note_on_c, 1, 72, 127
2, 81760, Note_off_c, 1, 36, 0
2, 81760, Note_off_c, 1, 48, 0
2, 81760, Note_off_c, 1, 60, 0
2, 81760, Note_off_c, 1, 72, 0
2, 81960, Note_on_c, 1, 37, 127
2, 81960, Note_on_c, 1, 49, 127
2, 81960, Note_on_c, 1, 61, 127
2, 81960, Note_on_c, 1, 73, 127
2, 82000, Note_off_c, 1, 37, 0
2, 82000, Note_off_c, 1, 49, 0
2, 82000, Note_off_c, 1, 61, 0
2, 82000, Note_off_c, 1, 73, 0
2, 82160, Note_on_c, 1, 37, 127
2, 82160, Note_on_c, 1, 49, 127
2, 82160, Note_on_c, 1, 61, 127
2, 82160, Note_on_c, 1, 73, 127
2, 82560, Note_off_c, 1, 37, 0
2, 82560, Note_off_c, 1, 49, 0
2, 82560, Note_off_c, 1, 61, 0
2, 82560, Note_off_c, 1, 73, 0
2, 82600, Note_on_c, 1, 38, 127
2, 82600, Note_on_c, 1, 50, 127
2, 82600, Note_on_c, 1, 62, 127
2, 82600, Note_on_c, 1, 74, 127
2, 82680, Note_off_c, 1, 38, 0
2, 82680, Note_off_c, 1, 50, 0
2, 82680, Note_off_c, 1, 62, 0
2, 82680, Note_off_c, 1, 74, 0
2, 82840, Note_on_c, 1, 38, 127
2, 82840, Note_on_c, 1, 50, 127
2, 82840, Note_on_c, 1, 62, 127
2, 82840, Note_on_c, 1, 74, 127
2, 82880, Note_off_c, 1, 38, 0
2, 82880, Note_off_c, 1, 50, 0
2, 82880, Note_off_c, 1, 62, 0
2, 82880, Note_off_c, 1, 74, 0
2, 83040, Note_on_c, 1, 37, 127
2, 83040, Note_on_c, 1, 49, 127
2, 83040, Note_on_c, 1, 61, 127
2, 83040, Note_on_c, 1, 73, 127
2, 83680, Note_off_c, 1, 37, 0
2, 83680, Note_off_c, 1, 49, 0
2, 83680, Note_off_c, 1, 61, 0
2, 83680, Note_off_c, 1, 73, 0
2, 83720, Note_on_c, 1, 36, 127
2, 83720, Note_on_c, 1, 48, 127
2, 83720, Note_on_c, 1, 60, 127
2, 83720, Note_on_c, 1, 72, 127
2, 83760, Note_off_c, 1, 36, 0
2, 83760, Note_off_c, 1, 48, 0
2, 83760, Note_off_c, 1, 60, 0
2, 83760, Note_off_c, 1, 72, 0
2, 83960, Note_on_c, 1, 37, 127
2, 83960, Note_on_c, 1, 73, 127
2, 83960, Note_on_c, 1, 85, 127
2, 84040, Note_off_c, 1, 37, 0
2, 84040, Note_off_c, 1, 73, 0
2, 84040, Note_off_c, 1, 85, 0
2, 84080, Note_on_c, 1, 37, 127
2, 84080, Note_on_c, 1, 73, 127
2, 84080, Note_on_c, 1, 85, 127
2, 84280, Note_off_c, 1, 37, 0
2, 84280, Note_off_c, 1, 73, 0
2, 84280, Note_off_c, 1, 85, 0
2, 84360, Note_on_c, 1, 37, 127
2, 84360, Note_on_c, 1, 49, 127
2, 84360, Note_on_c, 1, 73, 127
2, 84360, Note_on_c, 1, 85, 127
2, 84600, Note_off_c, 1, 37, 0
2, 84600, Note_off_c, 1, 49, 0
2, 84600, Note_off_c, 1, 73, 0
2, 84600, Note_off_c, 1, 85, 0
2, 84640, Note_on_c, 1, 60, 127
2, 84640, Note_on_c, 1, 72, 127
2, 84640, Note_on_c, 1, 80, 127
2, 84640, Note_on_c, 1, 92, 127
2, 84680, Note_off_c, 1, 60, 0
2, 84680, Note_off_c, 1, 72, 0
2, 84680, Note_off_c, 1, 80, 0
2, 84680, Note_off_c, 1, 92, 0
2, 84760, Note_on_c, 1, 53, 127
2, 84760, Note_on_c, 1, 61, 127
2, 84760, Note_on_c, 1, 65, 127
2, 84760, Note_on_c, 1, 68, 127
2, 84760, Note_on_c, 1, 73, 127
2, 84760, Note_on_c, 1, 80, 127
2, 84800, Note_off_c, 1, 53, 0
2, 84800, Note_off_c, 1, 61, 0
2, 84800, Note_off_c, 1, 65, 0
2, 84800, Note_off_c, 1, 68, 0
2, 84800, Note_off_c, 1, 73, 0
2, 84800, Note_off_c, 1, 80, 0
2, 84840, Note_on_c, 1, 44, 127
2, 84840, Note_on_c, 1, 56, 127
2, 84840, Note_on_c, 1, 64, 127
2, 84840, Note_on_c, 1, 68, 127
2, 84840, Note_on_c, 1, 76, 127
2, 84880, Note_off_c, 1, 44, 0
2, 84880, Note_off_c, 1, 56, 0
2, 84880, Note_off_c, 1, 64, 0
2, 84880, Note_off_c, 1, 68, 0
2, 84880, Note_off_c, 1, 76, 0
2, 85040, Note_on_c, 1, 37, 127
2, 85040, Note_on_c, 1, 49, 127
2, 85040, Note_on_c, 1, 73, 127
2, 85040, Note_on_c, 1, 85, 127
2, 85440, Note_off_c, 1, 37, 0
2, 85440, Note_off_c, 1, 49, 0
2, 85440, Note_off_c, 1, 73, 0
2, 85440, Note_off_c, 1, 85, 0
2, 85480, Note_on_c, 1, 39, 127
2, 85480, Note_on_c, 1, 51, 127
2, 85480, Note_on_c, 1, 63, 127
2, 85480, Note_on_c, 1, 75, 127
2, 86120, Note_off_c, 1, 39, 0
2, 86120, Note_off_c, 1, 51, 0
2, 86120, Note_off_c, 1, 63, 0
2, 86120, Note_off_c, 1, 75, 0
2, 86200, Note_on_c, 1, 37, 127
2, 86200, Note_on_c, 1, 49, 127
2, 86200, Note_on_c, 1, 61, 127
2, 86200, Note_on_c, 1, 73, 127
2, 86360, Note_off_c, 1, 37, 0
2, 86360, Note_off_c, 1, 49, 0
2, 86360, Note_off_c, 1, 61, 0
2, 86360, Note_off_c, 1, 73, 0
2, 86400, Note_on_c, 1, 41, 127
2, 86400, Note_on_c, 1, 53, 127
2, 86400, Note_on_c, 1, 65, 127
2, 86400, Note_on_c, 1, 77, 127
2, 86560, Note_off_c, 1, 41, 0
2, 86560, Note_off_c, 1, 53, 0
2, 86560, Note_off_c, 1, 65, 0
2, 86560, Note_off_c, 1, 77, 0
2, 86840, Note_on_c, 1, 42, 127
2, 86840, Note_on_c, 1, 54, 127
2, 86840, Note_on_c, 1, 66, 127
2, 86840, Note_on_c, 1, 78, 127
2, 87680, Note_off_c, 1, 42, 0
2, 87680, Note_off_c, 1, 54, 0
2, 87680, Note_off_c, 1, 66, 0
2, 87680, Note_off_c, 1, 78, 0
2, 87720, Note_on_c, 1, 41, 127
2, 87720, Note_on_c, 1, 53, 127
2, 87720, Note_on_c, 1, 65, 127
2, 87720, Note_on_c, 1, 77, 127
2, 88120, Note_off_c, 1, 41, 0
2, 88120, Note_off_c, 1, 53, 0
2, 88120, Note_off_c, 1, 65, 0
2, 88120, Note_off_c, 1, 77, 0
2, 88160, Note_on_c, 1, 45, 127
2, 88160, Note_on_c, 1, 69, 127
2, 88200, Note_off_c, 1, 45, 0
2, 88200, Note_off_c, 1, 69, 0
2, 88240, Note_on_c, 1, 45, 127
2, 88240, Note_on_c, 1, 69, 127
2, 88360, Note_off_c, 1, 45, 0
2, 88360, Note_off_c, 1, 69, 0
2, 89360, Note_on_c, 1, 30, 127
2, 89560, Note_off_c, 1, 30, 0
2, 89600, Note_on_c, 1, 35, 127
2, 89600, Note_on_c, 1, 42, 127
2, 89640, Note_off_c, 1, 35, 0
2, 89640, Note_off_c, 1, 42, 0
2, 89840, Note_on_c, 1, 37, 127
2, 89960, Note_off_c, 1, 37, 0
2, 90280, Note_on_c, 1, 60, 127
2, 90280, Note_on_c, 1, 63, 127
2, 90280, Note_on_c, 1, 66, 127
2, 90280, Note_on_c, 1, 74, 127
2, 90280, Note_on_c, 1, 78, 127
2, 90320, Note_on_c, 1, 52, 127
2, 90320, Note_off_c, 1, 60, 0
2, 90320, Note_off_c, 1, 63, 0
2, 90320, Note_off_c, 1, 66, 0
2, 90320, Note_on_c, 1, 67, 127
2, 90320, Note_on_c, 1, 72, 127
2, 90320, Note_off_c, 1, 74, 0
2, 90320, Note_off_c, 1, 78, 0
2, 90320, Note_on_c, 1, 79, 127
2, 90360, Note_off_c, 1, 52, 0
2, 90360, Note_off_c, 1, 67, 0
2, 90360, Note_off_c, 1, 72, 0
2, 90360, Note_off_c, 1, 79, 0
2, 90400, Note_on_c, 1, 57, 127
2, 90400, Note_on_c, 1, 72, 127
2, 90400, Note_on_c, 1, 76, 127
2, 90400, Note_on_c, 1, 84, 127
2, 90440, Note_on_c, 1, 49, 127
2, 90440, Note_off_c, 1, 57, 0
2, 90440, Note_on_c, 1, 60, 127
2, 90440, Note_on_c, 1, 68, 127
2, 90440, Note_off_c, 1, 72, 0
2, 90440, Note_on_c, 1, 73, 127
2, 90440, Note_off_c, 1, 76, 0
2, 90440, Note_on_c, 1, 77, 127
2, 90440, Note_off_c, 1, 84, 0
2, 90480, Note_off_c, 1, 49, 0
2, 90480, Note_off_c, 1, 60, 0
2, 90480, Note_off_c, 1, 68, 0
2, 90480, Note_off_c, 1, 73, 0
2, 90480, Note_off_c, 1, 77, 0
2, 90760, Note_on_c, 1, 40, 127
2, 90760, Note_on_c, 1, 43, 127
2, 90760, Note_on_c, 1, 52, 127
2, 90760, Note_on_c, 1, 87, 127
2, 90800, Note_off_c, 1, 40, 0
2, 90800, Note_off_c, 1, 43, 0
2, 90800, Note_on_c, 1, 79, 127
2, 90800, Note_on_c, 1, 83, 127
2, 90800, Note_on_c, 1, 86, 127
2, 90800, Note_off_c, 1, 87, 0
2, 90840, Note_off_c, 1, 52, 0
2, 90840, Note_on_c, 1, 57, 127
2, 90840, Note_on_c, 1, 64, 127
2, 90840, Note_off_c, 1, 79, 0
2, 90840, Note_off_c, 1, 83, 0
2, 90840, Note_off_c, 1, 86, 0
2, 90840, Note_on_c, 1, 89, 127
2, 90840, Note_on_c, 1, 98, 127
2, 90880, Note_off_c, 1, 57, 0
2, 90880, Note_off_c, 1, 64, 0
2, 90880, Note_on_c, 1, 77, 127
2, 90880, Note_on_c, 1, 82, 127
2, 90880, Note_on_c, 1, 84, 127
2, 90880, Note_on_c, 1, 87, 127
2, 90880, Note_off_c, 1, 89, 0
2, 90880, Note_on_c, 1, 92, 127
2, 90880, Note_off_c, 1, 98, 0
2, 90920, Note_off_c, 1, 77, 0
2, 90920, Note_off_c, 1, 82, 0
2, 90920, Note_off_c, 1, 84, 0
2, 90920, Note_off_c, 1, 87, 0
2, 90920, Note_off_c, 1, 92, 0
2, 91200, Note_on_c, 1, 52, 127
2, 91200, Note_on_c, 1, 59, 127
2, 91200, Note_on_c, 1, 62, 127
2, 91200, Note_on_c, 1, 66, 127
2, 91200, Note_on_c, 1, 71, 127
2, 91200, Note_on_c, 1, 74, 127
2, 91200, Note_on_c, 1, 78, 127
2, 91320, Note_off_c, 1, 52, 0
2, 91320, Note_off_c, 1, 59, 0
2, 91320, Note_off_c, 1, 62, 0
2, 91320, Note_off_c, 1, 66, 0
2, 91320, Note_off_c, 1, 71, 0
2, 91320, Note_off_c, 1, 74, 0
2, 91320, Note_off_c, 1, 78, 0
2, 91640, Note_on_c, 1, 46, 127
2, 91640, Note_on_c, 1, 55, 127
2, 91640, Note_on_c, 1, 70, 127
2, 92040, Note_off_c, 1, 70, 0
2, 92080, Note_on_c, 1, 63, 127
2, 92080, Note_on_c, 1, 67, 127
2, 92080, Note_on_c, 1, 70, 127
2, 92280, Note_off_c, 1, 55, 0
2, 92280, Note_off_c, 1, 63, 0
2, 92280, Note_off_c, 1, 67, 0
2, 92280, Note_off_c, 1, 70, 0
2, 92320, Note_on_c, 1, 44, 127
2, 92320, Note_off_c, 1, 46, 0
2, 92320, Note_on_c, 1, 53, 127
2, 92320, Note_on_c, 1, 59, 127
2, 92320, Note_on_c, 1, 63, 127
2, 92320, Note_on_c, 1, 68, 127
2, 92480, Note_off_c, 1, 44, 0
2, 92480, Note_off_c, 1, 53, 0
2, 92480, Note_off_c, 1, 59, 0
2, 92480, Note_off_c, 1, 63, 0
2, 92480, Note_off_c, 1, 68, 0
2, 92520, Note_on_c, 1, 44, 127
2, 92520, Note_on_c, 1, 53, 127
2, 92520, Note_on_c, 1, 59, 127
2, 92520, Note_on_c, 1, 63, 127
2, 92520, Note_on_c, 1, 68, 127
2, 93160, Note_off_c, 1, 68, 0
2, 93200, Note_on_c, 1, 36, 127
2, 93200, Note_on_c, 1, 43, 127
2, 93200, Note_off_c, 1, 44, 0
2, 93200, Note_on_c, 1, 50, 127
2, 93200, Note_on_c, 1, 52, 127
2, 93200, Note_off_c, 1, 53, 0
2, 93200, Note_on_c, 1, 55, 127
2, 93200, Note_on_c, 1, 60, 127
2, 93200, Note_off_c, 1, 63, 0
2, 93200, Note_on_c, 1, 65, 127
2, 93200, Note_on_c, 1, 67, 127
2, 93600, Note_off_c, 1, 36, 0
2, 93600, Note_off_c, 1, 43, 0
2, 93600, Note_off_c, 1, 50, 0
2, 93600, Note_off_c, 1, 52, 0
2, 93600, Note_off_c, 1, 55, 0
2, 93600, Note_off_c, 1, 59, 0
2, 93600, Note_off_c, 1, 60, 0
2, 93600, Note_off_c, 1, 65, 0
2, 93600, Note_off_c, 1, 67, 0
2, 93640, Note_on_c, 1, 46, 127
2, 93640, Note_on_c, 1, 51, 127
2, 93640, Note_on_c, 1, 58, 127
2, 93640, Note_on_c, 1, 66, 127
2, 94040, Note_off_c, 1, 46, 0
2, 94040, Note_off_c, 1, 51, 0
2, 94040, Note_off_c, 1, 66, 0
2, 94080, Note_on_c, 1, 51, 127
2, 94080, Note_on_c, 1, 72, 127
2, 94120, Note_off_c, 1, 72, 0
2, 94400, Note_off_c, 1, 51, 0
2, 94400, Note_off_c, 1, 58, 0
2, 94440, Note_on_c, 1, 51, 127
2, 94440, Note_on_c, 1, 58, 127
2, 94520, Note_off_c, 1, 51, 0
2, 94520, Note_off_c, 1, 58, 0
2, 94560, Note_on_c, 1, 46, 127
2, 94560, Note_on_c, 1, 58, 127
2, 94560, Note_on_c, 1, 63, 127
2, 94560, Note_on_c, 1, 67, 127
2, 95400, Note_off_c, 1, 63, 0
2, 95400, Note_off_c, 1, 67, 0
2, 95440, Note_on_c, 1, 39, 127
2, 95440, Note_off_c, 1, 46, 0
2, 95440, Note_on_c, 1, 51, 127
2, 95440, Note_on_c, 1, 67, 127
2, 95440, Note_on_c, 1, 70, 127
2, 96560, Note_off_c, 1, 39, 0
2, 96560, Note_off_c, 1, 51, 0
2, 96560, Note_off_c, 1, 58, 0
2, 96560, Note_off_c, 1, 67, 0
2, 96560, Note_off_c, 1, 70, 0
2, 96640, Note_on_c, 1, 63, 127
2, 96640, Note_on_c, 1, 67, 127
2, 96640, Note_on_c, 1, 70, 127
2, 98000, Note_on_c, 1, 75, 127
2, 98680, Note_off_c, 1, 63, 0
2, 98680, Note_off_c, 1, 67, 0
2, 98680, Note_off_c, 1, 70, 0
2, 98680, Note_off_c, 1, 75, 0
2, 98720, Note_on_c, 1, 63, 127
2, 98720, Note_on_c, 1, 67, 127
2, 98720, Note_on_c, 1, 70, 127
2, 98720, Note_on_c, 1, 75, 127
2, 98880, Note_off_c, 1, 63, 0
2, 98880, Note_off_c, 1, 67, 0
2, 98880, Note_off_c, 1, 70, 0
2, 98880, Note_off_c, 1, 75, 0
2, 98920, Note_on_c, 1, 39, 127
2, 98920, Note_on_c, 1, 44, 127
2, 98920, Note_on_c, 1, 51, 127
2, 98920, Note_on_c, 1, 60, 127
2, 98920, Note_on_c, 1, 63, 127
2, 99760, Note_off_c, 1, 39, 0
2, 99760, Note_off_c, 1, 44, 0
2, 99760, Note_off_c, 1, 51, 0
2, 99760, Note_off_c, 1, 60, 0
2, 99760, Note_off_c, 1, 63, 0
2, 99800, Note_on_c, 1, 35, 127
2, 99800, Note_on_c, 1, 47, 127
2, 99800, Note_on_c, 1, 59, 127
2, 99800, Note_on_c, 1, 62, 127
2, 99800, Note_on_c, 1, 67, 127
2, 100200, Note_off_c, 1, 35, 0
2, 100200, Note_off_c, 1, 47, 0
2, 100200, Note_off_c, 1, 59, 0
2, 100200, Note_off_c, 1, 62, 0
2, 100200, Note_off_c, 1, 67, 0
2, 100240, Note_on_c, 1, 45, 127
2, 100240, Note_on_c, 1, 52, 127
2, 100240, Note_on_c, 1, 57, 127
2, 100680, Note_off_c, 1, 45, 0
2, 100680, Note_off_c, 1, 52, 0
2, 100680, Note_off_c, 1, 57, 0
2, 100720, Note_on_c, 1, 45, 127
2, 100720, Note_on_c, 1, 52, 127
2, 100720, Note_on_c, 1, 57, 127
2, 101080, Note_off_c, 1, 57, 0
2, 101120, Note_on_c, 1, 64, 127
2, 101520, Note_off_c, 1, 52, 0
2, 101560, Note_on_c, 1, 57, 127
2, 102320, Note_off_c, 1, 64, 0
2, 102360, Note_off_c, 1, 45, 0
2, 102360, Note_off_c, 1, 57, 0
2, 102440, Note_on_c, 1, 55, 127
2, 102440, Note_on_c, 1, 58, 127
2, 102440, Note_on_c, 1, 73, 127
2, 102440, Note_on_c, 1, 79, 127
2, 102440, Note_on_c, 1, 85, 127
2, 102480, Note_on_c, 1, 44, 127
2, 102480, Note_off_c, 1, 55, 0
2, 102480, Note_on_c, 1, 56, 127
2, 102480, Note_off_c, 1, 58, 0
2, 102480, Note_on_c, 1, 71, 127
2, 102480, Note_off_c, 1, 73, 0
2, 102480, Note_on_c, 1, 75, 127
2, 102480, Note_on_c, 1, 77, 127
2, 102480, Note_off_c, 1, 79, 0
2, 102480, Note_on_c, 1, 83, 127
2, 102480, Note_off_c, 1, 85, 0
2, 102520, Note_off_c, 1, 44, 0
2, 102520, Note_on_c, 1, 46, 127
2, 102520, Note_on_c, 1, 50, 127
2, 102520, Note_on_c, 1, 55, 127
2, 102520, Note_off_c, 1, 56, 0
2, 102520, Note_off_c, 1, 71, 0
2, 102520, Note_off_c, 1, 75, 0
2, 102520, Note_off_c, 1, 77, 0
2, 102520, Note_off_c, 1, 83, 0
2, 102520, Note_on_c, 1, 85, 127
2, 102560, Note_off_c, 1, 46, 0
2, 102560, Note_off_c, 1, 50, 0
2, 102560, Note_on_c, 1, 53, 127
2, 102560, Note_off_c, 1, 55, 0
2, 102560, Note_on_c, 1, 60, 127
2, 102560, Note_on_c, 1, 66, 127
2, 102560, Note_on_c, 1, 78, 127
2, 102560, Note_off_c, 1, 85, 0
2, 102600, Note_off_c, 1, 53, 0
2, 102600, Note_on_c, 1, 56, 127
2, 102600, Note_off_c, 1, 60, 0
2, 102600, Note_on_c, 1, 63, 127
2, 102600, Note_on_c, 1, 69, 127
2, 102600, Note_on_c, 1, 72, 127
2, 102600, Note_on_c, 1, 75, 127
2, 102600, Note_off_c, 1, 78, 0
2, 102600, Note_on_c, 1, 81, 127
2, 102600, Note_on_c, 1, 84, 127
2, 102640, Note_on_c, 1, 52, 127
2, 102640, Note_off_c, 1, 56, 0
2, 102640, Note_on_c, 1, 60, 127
2, 102640, Note_off_c, 1, 63, 0
2, 102640, Note_off_c, 1, 66, 0
2, 102640, Note_on_c, 1, 67, 127
2, 102640, Note_off_c, 1, 69, 0
2, 102640, Note_off_c, 1, 75, 0
2, 102640, Note_on_c, 1, 80, 127
2, 102640, Note_off_c, 1, 81, 0
2, 102640, Note_on_c, 1, 83, 127
2, 102640, Note_off_c, 1, 84, 0
2, 102680, Note_on_c, 1, 30, 127
2, 102680, Note_on_c, 1, 42, 127
2, 102680, Note_on_c, 1, 50, 127
2, 102680, Note_off_c, 1, 52, 0
2, 102680, Note_on_c, 1, 59, 127
2, 102680, Note_off_c, 1, 60, 0
2, 102680, Note_on_c, 1, 62, 127
2, 102680, Note_off_c, 1, 67, 0
2, 102680, Note_off_c, 1, 72, 0
2, 102680, Note_off_c, 1, 80, 0
2, 102680, Note_off_c, 1, 83, 0
2, 102720, Note_off_c, 1, 30, 0
2, 102720, Note_off_c, 1, 42, 0
2, 102720, Note_off_c, 1, 50, 0
2, 102720, Note_off_c, 1, 59, 0
2, 102720, Note_off_c, 1, 62, 0
2, 102760, Note_on_c, 1, 38, 127
2, 102760, Note_on_c, 1, 47, 127
2, 102760, Note_on_c, 1, 68, 127
2, 102760, Note_on_c, 1, 80, 127
2, 102800, Note_off_c, 1, 38, 0
2, 102800, Note_on_c, 1, 43, 127
2, 102800, Note_off_c, 1, 47, 0
2, 102800, Note_on_c, 1, 50, 127
2, 102800, Note_on_c, 1, 55, 127
2, 102800, Note_off_c, 1, 68, 0
2, 102800, Note_on_c, 1, 79, 127
2, 102800, Note_off_c, 1, 80, 0
2, 102800, Note_on_c, 1, 83, 127
2, 102800, Note_on_c, 1, 86, 127
2, 102800, Note_on_c, 1, 91, 127
2, 102840, Note_off_c, 1, 43, 0
2, 102840, Note_off_c, 1, 50, 0
2, 102840, Note_off_c, 1, 55, 0
2, 102840, Note_on_c, 1, 61, 127
2, 102840, Note_on_c, 1, 67, 127
2, 102840, Note_off_c, 1, 79, 0
2, 102840, Note_on_c, 1, 82, 127
2, 102840, Note_off_c, 1, 83, 0
2, 102840, Note_on_c, 1, 85, 127
2, 102840, Note_off_c, 1, 86, 0
2, 102840, Note_off_c, 1, 91, 0
2, 102880, Note_on_c, 1, 57, 127
2, 102880, Note_off_c, 1, 61, 0
2, 102880, Note_off_c, 1, 67, 0
2, 102880, Note_on_c, 1, 69, 127
2, 102880, Note_off_c, 1, 82, 0
2, 102880, Note_on_c, 1, 90, 127
2, 102880, Note_on_c, 1, 93, 127
2, 102920, Note_on_c, 1, 55, 127
2, 102920, Note_off_c, 1, 57, 0
2, 102920, Note_on_c, 1, 67, 127
2, 102920, Note_off_c, 1, 69, 0
2, 102920, Note_on_c, 1, 72, 127
2, 102920, Note_on_c, 1, 79, 127
2, 102920, Note_on_c, 1, 84, 127
2, 102920, Note_off_c, 1, 85, 0
2, 102920, Note_off_c, 1, 90, 0
2, 102920, Note_off_c, 1, 93, 0
2, 102960, Note_on_c, 1, 50, 127
2, 102960, Note_on_c, 1, 59, 127
2, 102960, Note_on_c, 1, 71, 127
2, 102960, Note_off_c, 1, 72, 0
2, 102960, Note_on_c, 1, 74, 127
2, 102960, Note_off_c, 1, 79, 0
2, 102960, Note_off_c, 1, 84, 0
2, 103000, Note_off_c, 1, 50, 0
2, 103000, Note_off_c, 1, 55, 0
2, 103000, Note_off_c, 1, 59, 0
2, 103000, Note_on_c, 1, 64, 127
2, 103000, Note_off_c, 1, 67, 0
2, 103000, Note_on_c, 1, 70, 127
2, 103000, Note_off_c, 1, 71, 0
2, 103000, Note_off_c, 1, 74, 0
2, 103000, Note_on_c, 1, 79, 127
2, 103000, Note_on_c, 1, 86, 127
2, 103040, Note_on_c, 1, 38, 127
2, 103040, Note_on_c, 1, 50, 127
2, 103040, Note_on_c, 1, 57, 127
2, 103040, Note_off_c, 1, 64, 0
2, 103040, Note_off_c, 1, 70, 0
2, 103040, Note_off_c, 1, 86, 0
2, 103080, Note_off_c, 1, 38, 0
2, 103080, Note_on_c, 1, 43, 127
2, 103080, Note_off_c, 1, 50, 0
2, 103080, Note_on_c, 1, 53, 127
2, 103080, Note_off_c, 1, 57, 0
2, 103080, Note_on_c, 1, 59, 127
2, 103080, Note_on_c, 1, 64, 127
2, 103080, Note_on_c, 1, 67, 127
2, 103080, Note_off_c, 1, 79, 0
2, 103120, Note_on_c, 1, 39, 127
2, 103120, Note_off_c, 1, 43, 0
2, 103120, Note_on_c, 1, 46, 127
2, 103120, Note_on_c, 1, 49, 127
2, 103120, Note_off_c, 1, 53, 0
2, 103120, Note_off_c, 1, 59, 0
2, 103120, Note_on_c, 1, 61, 127
2, 103120, Note_off_c, 1, 64, 0
2, 103120, Note_off_c, 1, 67, 0
2, 103120, Note_on_c, 1, 70, 127
2, 103120, Note_on_c, 1, 73, 127
2, 103480, Note_off_c, 1, 46, 0
2, 103480, Note_off_c, 1, 49, 0
2, 103480, Note_off_c, 1, 61, 0
2, 103480, Note_off_c, 1, 70, 0
2, 103480, Note_off_c, 1, 73, 0
2, 104360, Note_off_c, 1, 39, 0
2, 104400, Note_on_c, 1, 34, 127
2, 104760, Note_off_c, 1, 34, 0
2, 104800, Note_on_c, 1, 34, 127
2, 104840, Note_off_c, 1, 34, 0
2, 104880, Note_on_c, 1, 34, 127
2, 104880, Note_on_c, 1, 41, 127
2, 104880, Note_on_c, 1, 46, 127
2, 104880, Note_on_c, 1, 53, 127
2, 104880, Note_on_c, 1, 58, 127
2, 105520, Note_off_c, 1, 34, 0
2, 105520, Note_on_c, 1, 37, 127
2, 105520, Note_off_c, 1, 41, 0
2, 105520, Note_on_c, 1, 42, 127
2, 105520, Note_off_c, 1, 46, 0
2, 105520, Note_on_c, 1, 49, 127
2, 105520, Note_off_c, 1, 53, 0
2, 105520, Note_on_c, 1, 54, 127
2, 106160, Note_off_c, 1, 37, 0
2, 106160, Note_off_c, 1, 42, 0
2, 106160, Note_off_c, 1, 49, 0
2, 106160, Note_off_c, 1, 54, 0
2, 106160, Note_off_c, 1, 58, 0
2, 106200, Note_on_c, 1, 34, 127
2, 106200, Note_on_c, 1, 41, 127
2, 106200, Note_on_c, 1, 46, 127
2, 106200, Note_on_c, 1, 53, 127
2, 106200, Note_on_c, 1, 58, 127
2, 106760, Note_off_c, 1, 34, 0
2, 106760, Note_off_c, 1, 41, 0
2, 106760, Note_off_c, 1, 46, 0
2, 106760, Note_off_c, 1, 53, 0
2, 106760, Note_off_c, 1, 58, 0
2, 106800, Note_on_c, 1, 34, 127
2, 106800, Note_on_c, 1, 41, 127
2, 106800, Note_on_c, 1, 46, 127
2, 106800, Note_on_c, 1, 53, 127
2, 106800, Note_on_c, 1, 58, 127
2, 107120, Note_off_c, 1, 34, 0
2, 107120, Note_off_c, 1, 41, 0
2, 107120, Note_off_c, 1, 46, 0
2, 107120, Note_off_c, 1, 53, 0
2, 107120, Note_off_c, 1, 58, 0
2, 107160, Note_on_c, 1, 37, 127
2, 107160, Note_on_c, 1, 42, 127
2, 107160, Note_on_c, 1, 49, 127
2, 107160, Note_on_c, 1, 54, 127
2, 107160, Note_on_c, 1, 58, 127
2, 107560, Note_off_c, 1, 37, 0
2, 107560, Note_off_c, 1, 42, 0
2, 107560, Note_off_c, 1, 49, 0
2, 107560, Note_off_c, 1, 54, 0
2, 107560, Note_off_c, 1, 58, 0
2, 107600, Note_on_c, 1, 34, 127
2, 107600, Note_on_c, 1, 41, 127
2, 107600, Note_on_c, 1, 46, 127
2, 107600, Note_on_c, 1, 53, 127
2, 107600, Note_on_c, 1, 58, 127
2, 107600, Note_on_c, 1, 61, 127
2, 108440, Note_off_c, 1, 34, 0
2, 108440, Note_off_c, 1, 41, 0
2, 108440, Note_off_c, 1, 46, 0
2, 108440, Note_off_c, 1, 53, 0
2, 108440, Note_off_c, 1, 61, 0
2, 108480, Note_on_c, 1, 54, 127
2, 108480, Note_on_c, 1, 66, 127
2, 108480, Note_on_c, 1, 76, 127
2, 108480, Note_on_c, 1, 85, 127
2, 108520, Note_on_c, 1, 46, 127
2, 108520, Note_on_c, 1, 49, 127
2, 108520, Note_off_c, 1, 58, 0
2, 108520, Note_on_c, 1, 73, 127
2, 108520, Note_on_c, 1, 78, 127
2, 108520, Note_off_c, 1, 85, 0
2, 108560, Note_off_c, 1, 46, 0
2, 108560, Note_on_c, 1, 47, 127
2, 108560, Note_off_c, 1, 49, 0
2, 108560, Note_on_c, 1, 53, 127
2, 108560, Note_off_c, 1, 54, 0
2, 108560, Note_off_c, 1, 66, 0
2, 108560, Note_off_c, 1, 73, 0
2, 108560, Note_off_c, 1, 76, 0
2, 108560, Note_off_c, 1, 78, 0
2, 108560, Note_on_c, 1, 80, 127
2, 108560, Note_on_c, 1, 92, 127
2, 108600, Note_off_c, 1, 47, 0
2, 108600, Note_off_c, 1, 53, 0
2, 108600, Note_off_c, 1, 80, 0
2, 108600, Note_off_c, 1, 92, 0
2, 108640, Note_on_c, 1, 54, 127
2, 108640, Note_on_c, 1, 58, 127
2, 108640, Note_on_c, 1, 66, 127
2, 108640, Note_on_c, 1, 76, 127
2, 108640, Note_on_c, 1, 85, 127
2, 108680, Note_on_c, 1, 64, 127
2, 108680, Note_off_c, 1, 66, 0
2, 108720, Note_off_c, 1, 54, 0
2, 108720, Note_off_c, 1, 58, 0
2, 108720, Note_on_c, 1, 61, 127
2, 108720, Note_off_c, 1, 64, 0
2, 108720, Note_on_c, 1, 66, 127
2, 108720, Note_on_c, 1, 68, 127
2, 108720, Note_on_c, 1, 72, 127
2, 108720, Note_off_c, 1, 85, 0
2, 108760, Note_on_c, 1, 54, 127
2, 108760, Note_on_c, 1, 58, 127
2, 108760, Note_off_c, 1, 61, 0
2, 108760, Note_off_c, 1, 68, 0
2, 108760, Note_off_c, 1, 72, 0
2, 108760, Note_on_c, 1, 85, 127
2, 108800, Note_off_c, 1, 54, 0
2, 108800, Note_off_c, 1, 58, 0
2, 108800, Note_on_c, 1, 63, 127
2, 108800, Note_off_c, 1, 66, 0
2, 108800, Note_off_c, 1, 76, 0
2, 108800, Note_on_c, 1, 78, 127
2, 108800, Note_off_c, 1, 85, 0
2, 108840, Note_on_c, 1, 37, 127
2, 108840, Note_on_c, 1, 49, 127
2, 108840, Note_on_c, 1, 61, 127
2, 108840, Note_off_c, 1, 63, 0
2, 108840, Note_on_c, 1, 64, 127
2, 108840, Note_on_c, 1, 70, 127
2, 108840, Note_off_c, 1, 78, 0
2, 108920, Note_off_c, 1, 37, 0
2, 108920, Note_off_c, 1, 49, 0
2, 108920, Note_off_c, 1, 61, 0
2, 108920, Note_off_c, 1, 64, 0
2, 108920, Note_off_c, 1, 70, 0
2, 108960, Note_on_c, 1, 42, 127
2, 108960, Note_on_c, 1, 49, 127
2, 108960, Note_on_c, 1, 70, 127
2, 108960, Note_on_c, 1, 73, 127
2, 109800, Note_off_c, 1, 42, 0
2, 109800, Note_off_c, 1, 49, 0
2, 109800, Note_off_c, 1, 70, 0
2, 109800, Note_off_c, 1, 73, 0
2, 109840, Note_on_c, 1, 41, 127
2, 109840, Note_on_c, 1, 46, 127
2, 109880, Note_off_c, 1, 41, 0
2, 109880, Note_off_c, 1, 46, 0
2, 110080, Note_on_c, 1, 50, 127
2, 110080, Note_on_c, 1, 70, 127
2, 110080, Note_on_c, 1, 82, 127
2, 110160, Note_off_c, 1, 50, 0
2, 110160, Note_off_c, 1, 70, 0
2, 110160, Note_off_c, 1, 82, 0
2, 110280, Note_on_c, 1, 55, 127
2, 110280, Note_on_c, 1, 58, 127
2, 110280, Note_on_c, 1, 62, 127
2, 110280, Note_on_c, 1, 70, 127
2, 110280, Note_on_c, 1, 82, 127
2, 110440, Note_off_c, 1, 55, 0
2, 110440, Note_off_c, 1, 58, 0
2, 110440, Note_off_c, 1, 62, 0
2, 110440, Note_off_c, 1, 70, 0
2, 110440, Note_off_c, 1, 82, 0
2, 110760, Note_on_c, 1, 41, 127
2, 110760, Note_on_c, 1, 53, 127
2, 110760, Note_on_c, 1, 58, 127
2, 110760, Note_on_c, 1, 70, 127
2, 111160, Note_off_c, 1, 41, 0
2, 111160, Note_off_c, 1, 53, 0
2, 111160, Note_off_c, 1, 58, 0
2, 111160, Note_off_c, 1, 70, 0
2, 111200, Note_on_c, 1, 44, 127
2, 111200, Note_on_c, 1, 49, 127
2, 111200, Note_on_c, 1, 52, 127
2, 111200, Note_on_c, 1, 68, 127
2, 111200, Note_on_c, 1, 73, 127
2, 111200, Note_on_c, 1, 76, 127
2, 111200, Note_on_c, 1, 80, 127
2, 111800, Note_off_c, 1, 44, 0
2, 111840, Note_on_c, 1, 44, 127
2, 112000, Note_off_c, 1, 44, 0
2, 112000, Note_off_c, 1, 49, 0
2, 112000, Note_on_c, 1, 51, 127
2, 112000, Note_off_c, 1, 52, 0
2, 112000, Note_on_c, 1, 54, 127
2, 112000, Note_on_c, 1, 58, 127
2, 112000, Note_on_c, 1, 66, 127
2, 112000, Note_off_c, 1, 68, 0
2, 112000, Note_off_c, 1, 73, 0
2, 112000, Note_off_c, 1, 76, 0
2, 112000, Note_on_c, 1, 78, 127
2, 112000, Note_off_c, 1, 80, 0
2, 112040, Note_off_c, 1, 51, 0
2, 112040, Note_off_c, 1, 54, 0
2, 112040, Note_off_c, 1, 58, 0
2, 112040, Note_off_c, 1, 66, 0
2, 112040, Note_off_c, 1, 78, 0
2, 112080, Note_on_c, 1, 37, 127
2, 112080, Note_on_c, 1, 61, 127
2, 112080, Note_on_c, 1, 66, 127
2, 112080, Note_on_c, 1, 70, 127
2, 112280, Note_off_c, 1, 37, 0
2, 112280, Note_off_c, 1, 61, 0
2, 112280, Note_off_c, 1, 66, 0
2, 112280, Note_off_c, 1, 70, 0
2, 112600, Note_on_c, 1, 57, 127
2, 112600, Note_on_c, 1, 67, 127
2, 112600, Note_on_c, 1, 72, 127
2, 112600, Note_on_c, 1, 75, 127
2, 113120, Note_on_c, 1, 66, 127
2, 113120, Note_off_c, 1, 67, 0
2, 113160, Note_off_c, 1, 66, 0
2, 113160, Note_on_c, 1, 67, 127
2, 113200, Note_off_c, 1, 57, 0
2, 113200, Note_off_c, 1, 67, 0
2, 113200, Note_off_c, 1, 72, 0
2, 113200, Note_off_c, 1, 75, 0
2, 113240, Note_on_c, 1, 48, 127
2, 113240, Note_on_c, 1, 55, 127
2, 113240, Note_on_c, 1, 60, 127
2, 113240, Note_on_c, 1, 63, 127
2, 113240, Note_on_c, 1, 70, 127
2, 113240, Note_on_c, 1, 75, 127
2, 113320, Note_off_c, 1, 75, 0
2, 113360, Note_on_c, 1, 73, 127
2, 113440, Note_off_c, 1, 48, 0
2, 113440, Note_on_c, 1, 51, 127
2, 113440, Note_off_c, 1, 55, 0
2, 113440, Note_on_c, 1, 58, 127
2, 113440, Note_off_c, 1, 60, 0
2, 113440, Note_off_c, 1, 63, 0
2, 113440, Note_off_c, 1, 70, 0
2, 113440, Note_off_c, 1, 73, 0
2, 113480, Note_on_c, 1, 63, 127
2, 113480, Note_on_c, 1, 67, 127
2, 113480, Note_on_c, 1, 70, 127
2, 113480, Note_on_c, 1, 79, 127
2, 113880, Note_off_c, 1, 79, 0
2, 113920, Note_on_c, 1, 79, 127
2, 114000, Note_off_c, 1, 79, 0
2, 114040, Note_on_c, 1, 75, 127
2, 114080, Note_off_c, 1, 75, 0
2, 114360, Note_off_c, 1, 51, 0
2, 114360, Note_off_c, 1, 58, 0
2, 114360, Note_off_c, 1, 63, 0
2, 114360, Note_off_c, 1, 67, 0
2, 114360, Note_off_c, 1, 70, 0
2, 114400, Note_on_c, 1, 39, 127
2, 114560, Note_off_c, 1, 39, 0
2, 114640, Note_on_c, 1, 39, 127
2, 114720, Note_off_c, 1, 39, 0
2, 114760, Note_on_c, 1, 39, 127
2, 115080, Note_off_c, 1, 39, 0
2, 115120, Note_on_c, 1, 39, 127
2, 116640, Note_off_c, 1, 39, 0
2, 116720, Note_on_c, 1, 39, 127
2, 117120, Note_off_c, 1, 39, 0
2, 117160, Note_on_c, 1, 39, 127
2, 117560, Note_off_c, 1, 39, 0
2, 117600, Note_on_c, 1, 39, 127
2, 117600, Note_on_c, 1, 67, 127
2, 117600, Note_on_c, 1, 70, 127
2, 118040, Note_off_c, 1, 39, 0
2, 118040, Note_off_c, 1, 67, 0
2, 118040, Note_off_c, 1, 70, 0
2, 118080, Note_on_c, 1, 51, 127
2, 118080, Note_on_c, 1, 58, 127
2, 118080, Note_on_c, 1, 63, 127
2, 118080, Note_on_c, 1, 67, 127
2, 118080, Note_on_c, 1, 75, 127
2, 118440, Note_off_c, 1, 51, 0
2, 118440, Note_off_c, 1, 58, 0
2, 118440, Note_off_c, 1, 63, 0
2, 118440, Note_off_c, 1, 67, 0
2, 118440, Note_off_c, 1, 75, 0
2, 120040, End_track
3, 0, Start_track
3, 0, Title_t, "MIDI"
3, 1536, End_track
0, 0, End_of_file
