0, 0, Header, 1, 3, 192
1, 0, Start_track
1, 0, Time_signature, 4, 2, 24, 8
1, 0, Tempo, 500000
1, 120040, End_track
2, 0, Start_track
2, 0, Text_t, "random instrument: random person i dunno whatev"
2, 0, Title_t, "Track 1"
2, 0, Note_on_c, 1, 34, 127
2, 0, Note_on_c, 1, 53, 127
2, 0, Note_on_c, 1, 56, 127
2, 0, Note_on_c, 1, 62, 127
2, 40, Note_off_c, 1, 34, 0
2, 40, Note_off_c, 1, 53, 0
2, 40, Note_off_c, 1, 56, 0
2, 40, Note_off_c, 1, 62, 0
2, 80, Note_on_c, 1, 31, 127
2, 80, Note_on_c, 1, 43, 127
2, 80, Note_on_c, 1, 59, 127
2, 80, Note_on_c, 1, 65, 127
2, 80, Note_on_c, 1, 67, 127
2, 120, Note_off_c, 1, 31, 0
2, 120, Note_on_c, 1, 34, 127
2, 120, Note_off_c, 1, 43, 0
2, 120, Note_on_c, 1, 53, 127
2, 120, Note_on_c, 1, 56, 127
2, 120, Note_off_c, 1, 59, 0
2, 120, Note_on_c, 1, 62, 127
2, 120, Note_off_c, 1, 65, 0
2, 120, Note_off_c, 1, 67, 0
2, 160, Note_off_c, 1, 34, 0
2, 160, Note_on_c, 1, 43, 127
2, 160, Note_on_c, 1, 47, 127
2, 160, Note_off_c, 1, 53, 0
2, 160, Note_on_c, 1, 55, 127
2, 160, Note_off_c, 1, 56, 0
2, 160, Note_off_c, 1, 62, 0
2, 160, Note_on_c, 1, 79, 127
2, 160, Note_on_c, 1, 83, 127
2, 160, Note_on_c, 1, 87, 127
2, 160, Note_on_c, 1, 91, 127
2, 200, Note_on_c, 1, 34, 127
2, 200, Note_off_c, 1, 43, 0
2, 200, Note_off_c, 1, 47, 0
2, 200, Note_on_c, 1, 53, 127
2, 200, Note_off_c, 1, 55, 0
2, 200, Note_on_c, 1, 56, 127
2, 200, Note_on_c, 1, 62, 127
2, 200, Note_off_c, 1, 79, 0
2, 200, Note_off_c, 1, 83, 0
2, 200, Note_off_c, 1, 87, 0
2, 200, Note_off_c, 1, 91, 0
2, 680, Note_off_c, 1, 34, 0
2, 680, Note_off_c, 1, 53, 0
2, 680, Note_off_c, 1, 56, 0
2, 680, Note_off_c, 1, 62, 0
2, 7560, Note_on_c, 1, 51, 127
2, 7560, Note_on_c, 1, 54, 127
2, 7560, Note_on_c, 1, 59, 127
2, 7920, Note_off_c, 1, 51, 0
2, 7920, Note_off_c, 1, 54, 0
2, 7920, Note_off_c, 1, 59, 0
2, 7960, Note_on_c, 1, 51, 127
2, 7960, Note_on_c, 1, 54, 127
2, 7960, Note_on_c, 1, 59, 127
2, 8280, Note_off_c, 1, 51, 0
2, 8280, Note_off_c, 1, 54, 0
2, 8280, Note_off_c, 1, 59, 0
2, 18240, Note_on_c, 1, 40, 127
2, 18240, Note_on_c, 1, 52, 127
2, 18240, Note_on_c, 1, 64, 127
2, 19000, Note_off_c, 1, 64, 0
2, 19040, Note_on_c, 1, 67, 127
2, 19600, Note_on_c, 1, 64, 127
2, 19600, Note_off_c, 1, 67, 0
2, 19640, Note_off_c, 1, 64, 0
2, 19680, Note_on_c, 1, 55, 127
2, 19840, Note_off_c, 1, 55, 0
2, 19880, Note_on_c, 1, 76, 127
2, 20240, Note_off_c, 1, 40, 0
2, 20240, Note_off_c, 1, 52, 0
2, 20240, Note_off_c, 1, 76, 0
2, 20280, Note_on_c, 1, 40, 127
2, 20280, Note_on_c, 1, 52, 127
2, 20280, Note_on_c, 1, 76, 127
2, 21120, Note_off_c, 1, 76, 0
2, 23200, Note_off_c, 1, 40, 0
2, 23200, Note_off_c, 1, 52, 0
2, 23240, Note_on_c, 1, 40, 127
2, 23240, Note_on_c, 1, 52, 127
2, 23600, Note_off_c, 1, 40, 0
2, 23600, Note_off_c, 1, 52, 0
2, 23640, Note_on_c, 1, 39, 127
2, 23640, Note_on_c, 1, 51, 127
2, 25160, Note_off_c, 1, 39, 0
2, 25160, Note_off_c, 1, 51, 0
2, 30640, Note_on_c, 1, 43, 127
2, 31400, Note_off_c, 1, 43, 0
2, 31440, Note_on_c, 1, 48, 127
2, 31800, Note_off_c, 1, 48, 0
2, 31840, Note_on_c, 1, 51, 127
2, 32200, Note_off_c, 1, 51, 0
2, 32240, Note_on_c, 1, 55, 127
2, 33000, Note_off_c, 1, 55, 0
2, 33040, Note_on_c, 1, 48, 127
2, 33360, Note_off_c, 1, 48, 0
2, 33400, Note_on_c, 1, 48, 127
2, 33440, Note_off_c, 1, 48, 0
2, 33480, Note_on_c, 1, 50, 127
2, 33840, Note_off_c, 1, 50, 0
2, 33880, Note_on_c, 1, 48, 127
2, 34240, Note_off_c, 1, 48, 0
2, 34280, Note_on_c, 1, 46, 127
2, 34280, Note_on_c, 1, 74, 127
2, 34640, Note_off_c, 1, 46, 0
2, 34680, Note_on_c, 1, 50, 127
2, 35040, Note_off_c, 1, 50, 0
2, 35040, Note_off_c, 1, 74, 0
2, 35080, Note_on_c, 1, 50, 127
2, 35080, Note_on_c, 1, 70, 127
2, 35240, Note_off_c, 1, 70, 0
2, 35280, Note_on_c, 1, 67, 127
2, 35440, Note_off_c, 1, 50, 0
2, 35440, Note_off_c, 1, 67, 0
2, 35520, Note_on_c, 1, 49, 127
2, 35520, Note_on_c, 1, 69, 127
2, 35880, Note_off_c, 1, 49, 0
2, 35880, Note_off_c, 1, 69, 0
2, 35920, Note_on_c, 1, 46, 127
2, 35920, Note_on_c, 1, 67, 127
2, 36240, Note_off_c, 1, 46, 0
2, 36240, Note_off_c, 1, 67, 0
2, 36280, Note_on_c, 1, 69, 127
2, 36640, Note_off_c, 1, 69, 0
2, 36680, Note_on_c, 1, 51, 127
2, 36680, Note_on_c, 1, 67, 127
2, 37400, Note_off_c, 1, 51, 0
2, 37400, Note_off_c, 1, 67, 0
2, 37480, Note_on_c, 1, 52, 127
2, 37480, Note_on_c, 1, 67, 127
2, 37840, Note_off_c, 1, 52, 0
2, 37840, Note_off_c, 1, 67, 0
2, 37880, Note_on_c, 1, 50, 127
2, 37880, Note_on_c, 1, 65, 127
2, 38240, Note_off_c, 1, 50, 0
2, 38280, Note_on_c, 1, 57, 127
2, 38640, Note_off_c, 1, 57, 0
2, 38640, Note_off_c, 1, 65, 0
2, 38680, Note_on_c, 1, 46, 127
2, 38680, Note_on_c, 1, 74, 127
2, 39040, Note_off_c, 1, 46, 0
2, 39080, Note_on_c, 1, 50, 127
2, 39440, Note_off_c, 1, 50, 0
2, 39480, Note_on_c, 1, 56, 127
2, 39560, Note_off_c, 1, 56, 0
2, 39560, Note_off_c, 1, 74, 0
2, 39600, Note_on_c, 1, 56, 127
2, 39600, Note_on_c, 1, 74, 127
2, 39880, Note_off_c, 1, 56, 0
2, 39920, Note_on_c, 1, 53, 127
2, 40280, Note_off_c, 1, 53, 0
2, 40320, Note_on_c, 1, 50, 127
2, 40680, Note_off_c, 1, 50, 0
2, 40720, Note_on_c, 1, 45, 127
2, 41080, Note_off_c, 1, 45, 0
2, 41120, Note_on_c, 1, 50, 127
2, 41440, Note_off_c, 1, 50, 0
2, 41480, Note_on_c, 1, 57, 127
2, 41720, Note_off_c, 1, 57, 0
2, 41720, Note_off_c, 1, 74, 0
2, 41760, Note_on_c, 1, 57, 127
2, 41760, Note_on_c, 1, 74, 127
2, 41880, Note_off_c, 1, 57, 0
2, 41920, Note_on_c, 1, 38, 127
2, 42680, Note_off_c, 1, 38, 0
2, 42720, Note_on_c, 1, 45, 127
2, 43080, Note_off_c, 1, 45, 0
2, 43120, Note_on_c, 1, 62, 127
2, 43480, Note_off_c, 1, 62, 0
2, 43480, Note_off_c, 1, 74, 0
2, 43520, Note_on_c, 1, 53, 127
2, 43520, Note_on_c, 1, 74, 127
2, 43840, Note_off_c, 1, 53, 0
2, 43840, Note_off_c, 1, 74, 0
2, 43880, Note_on_c, 1, 53, 127
2, 43880, Note_on_c, 1, 74, 127
2, 43920, Note_off_c, 1, 53, 0
2, 43960, Note_on_c, 1, 45, 127
2, 44320, Note_off_c, 1, 45, 0
2, 44320, Note_on_c, 1, 73, 127
2, 44320, Note_off_c, 1, 74, 0
2, 44360, Note_on_c, 1, 45, 127
2, 44360, Note_off_c, 1, 73, 0
2, 44360, Note_on_c, 1, 74, 127
2, 44720, Note_off_c, 1, 45, 0
2, 44760, Note_on_c, 1, 38, 127
2, 45120, Note_off_c, 1, 38, 0
2, 45120, Note_off_c, 1, 74, 0
2, 45160, Note_on_c, 1, 45, 127
2, 45160, Note_on_c, 1, 74, 127
2, 45520, Note_off_c, 1, 45, 0
2, 45560, Note_on_c, 1, 50, 127
2, 45560, Note_on_c, 1, 73, 127
2, 45560, Note_off_c, 1, 74, 0
2, 45880, Note_off_c, 1, 50, 0
2, 45880, Note_off_c, 1, 73, 0
2, 45920, Note_on_c, 1, 50, 127
2, 45920, Note_on_c, 1, 73, 127
2, 45960, Note_off_c, 1, 50, 0
2, 45960, Note_off_c, 1, 73, 0
2, 46000, Note_on_c, 1, 57, 127
2, 46000, Note_on_c, 1, 74, 127
2, 46360, Note_off_c, 1, 57, 0
2, 46360, Note_off_c, 1, 74, 0
2, 46400, Note_on_c, 1, 52, 127
2, 46400, Note_on_c, 1, 73, 127
2, 46760, Note_off_c, 1, 52, 0
2, 46800, Note_on_c, 1, 61, 127
2, 47160, Note_off_c, 1, 61, 0
2, 47200, Note_on_c, 1, 52, 127
2, 47560, Note_off_c, 1, 52, 0
2, 47600, Note_on_c, 1, 61, 127
2, 47840, Note_off_c, 1, 61, 0
2, 47840, Note_off_c, 1, 73, 0
2, 47880, Note_on_c, 1, 61, 127
2, 47880, Note_on_c, 1, 73, 127
2, 48000, Note_off_c, 1, 61, 0
2, 48040, Note_on_c, 1, 52, 127
2, 48400, Note_off_c, 1, 52, 0
2, 48440, Note_on_c, 1, 55, 127
2, 48800, Note_off_c, 1, 55, 0
2, 48800, Note_off_c, 1, 73, 0
2, 48840, Note_on_c, 1, 62, 127
2, 48840, Note_on_c, 1, 71, 127
2, 49200, Note_off_c, 1, 62, 0
2, 49200, Note_off_c, 1, 71, 0
2, 49240, Note_on_c, 1, 59, 127
2, 49240, Note_on_c, 1, 68, 127
2, 49240, Note_on_c, 1, 80, 127
2, 49600, Note_off_c, 1, 59, 0
2, 49600, Note_off_c, 1, 68, 0
2, 49640, Note_on_c, 1, 64, 127
2, 49640, Note_on_c, 1, 71, 127
2, 49960, Note_off_c, 1, 64, 0
2, 49960, Note_off_c, 1, 71, 0
2, 49960, Note_off_c, 1, 80, 0
2, 50000, Note_on_c, 1, 64, 127
2, 50000, Note_on_c, 1, 71, 127
2, 50000, Note_on_c, 1, 80, 127
2, 50040, Note_off_c, 1, 64, 0
2, 50040, Note_off_c, 1, 71, 0
2, 50080, Note_on_c, 1, 59, 127
2, 50080, Note_on_c, 1, 68, 127
2, 50440, Note_off_c, 1, 59, 0
2, 50440, Note_off_c, 1, 68, 0
2, 50440, Note_off_c, 1, 80, 0
2, 50480, Note_on_c, 1, 64, 127
2, 50480, Note_on_c, 1, 67, 127
2, 50480, Note_on_c, 1, 79, 127
2, 50800, Note_off_c, 1, 64, 0
2, 50800, Note_off_c, 1, 67, 0
2, 50840, Note_on_c, 1, 73, 127
2, 51200, Note_off_c, 1, 73, 0
2, 51200, Note_off_c, 1, 79, 0
2, 51240, Note_on_c, 1, 54, 127
2, 51240, Note_on_c, 1, 70, 127
2, 51240, Note_on_c, 1, 76, 127
2, 51960, Note_off_c, 1, 54, 0
2, 51960, Note_off_c, 1, 70, 0
2, 51960, Note_off_c, 1, 76, 0
2, 52040, Note_on_c, 1, 48, 127
2, 52040, Note_on_c, 1, 70, 127
2, 52040, Note_on_c, 1, 73, 127
2, 52040, Note_on_c, 1, 78, 127
2, 52080, Note_on_c, 1, 42, 127
2, 52080, Note_off_c, 1, 48, 0
2, 52080, Note_on_c, 1, 64, 127
2, 52080, Note_off_c, 1, 70, 0
2, 52080, Note_on_c, 1, 72, 127
2, 52080, Note_off_c, 1, 73, 0
2, 52080, Note_on_c, 1, 76, 127
2, 52080, Note_off_c, 1, 78, 0
2, 52400, Note_off_c, 1, 42, 0
2, 52400, Note_off_c, 1, 64, 0
2, 52400, Note_on_c, 1, 66, 127
2, 52400, Note_off_c, 1, 72, 0
2, 52400, Note_on_c, 1, 74, 127
2, 52400, Note_off_c, 1, 76, 0
2, 52400, Note_on_c, 1, 78, 127
2, 52440, Note_on_c, 1, 59, 127
2, 52440, Note_on_c, 1, 62, 127
2, 52440, Note_off_c, 1, 66, 0
2, 52800, Note_off_c, 1, 59, 0
2, 52800, Note_off_c, 1, 62, 0
2, 52800, Note_off_c, 1, 74, 0
2, 52800, Note_off_c, 1, 78, 0
2, 52840, Note_on_c, 1, 52, 127
2, 52840, Note_on_c, 1, 59, 127
2, 52840, Note_on_c, 1, 64, 127
2, 52840, Note_on_c, 1, 67, 127
2, 52840, Note_on_c, 1, 71, 127
2, 52840, Note_on_c, 1, 79, 127
2, 53600, Note_off_c, 1, 52, 0
2, 53600, Note_off_c, 1, 59, 0
2, 53600, Note_off_c, 1, 64, 0
2, 53600, Note_off_c, 1, 67, 0
2, 53600, Note_off_c, 1, 71, 0
2, 53600, Note_off_c, 1, 79, 0
2, 53640, Note_on_c, 1, 52, 127
2, 53640, Note_on_c, 1, 59, 127
2, 53640, Note_on_c, 1, 64, 127
2, 53640, Note_on_c, 1, 67, 127
2, 53640, Note_on_c, 1, 71, 127
2, 53640, Note_on_c, 1, 79, 127
2, 54200, Note_off_c, 1, 52, 0
2, 54200, Note_off_c, 1, 59, 0
2, 54200, Note_off_c, 1, 64, 0
2, 54200, Note_off_c, 1, 67, 0
2, 54200, Note_off_c, 1, 71, 0
2, 54200, Note_off_c, 1, 79, 0
2, 54240, Note_on_c, 1, 52, 127
2, 54240, Note_on_c, 1, 59, 127
2, 54240, Note_on_c, 1, 64, 127
2, 54240, Note_on_c, 1, 67, 127
2, 54240, Note_on_c, 1, 71, 127
2, 54240, Note_on_c, 1, 79, 127
2, 54880, Note_on_c, 1, 48, 127
2, 54880, Note_off_c, 1, 52, 0
2, 54880, Note_off_c, 1, 59, 0
2, 54880, Note_off_c, 1, 64, 0
2, 54880, Note_off_c, 1, 67, 0
2, 54880, Note_off_c, 1, 71, 0
2, 54920, Note_on_c, 1, 47, 127
2, 54920, Note_off_c, 1, 48, 0
2, 55240, Note_off_c, 1, 47, 0
2, 55320, Note_on_c, 1, 50, 127
2, 55640, Note_off_c, 1, 50, 0
2, 55680, Note_on_c, 1, 55, 127
2, 56040, Note_off_c, 1, 55, 0
2, 56080, Note_on_c, 1, 50, 127
2, 56280, Note_off_c, 1, 50, 0
2, 56280, Note_off_c, 1, 79, 0
2, 56320, Note_on_c, 1, 50, 127
2, 56320, Note_on_c, 1, 79, 127
2, 56840, Note_off_c, 1, 50, 0
2, 56880, Note_on_c, 1, 59, 127
2, 57240, Note_off_c, 1, 59, 0
2, 57280, Note_on_c, 1, 50, 127
2, 57640, Note_off_c, 1, 50, 0
2, 57680, Note_on_c, 1, 55, 127
2, 58040, Note_off_c, 1, 55, 0
2, 58080, Note_on_c, 1, 62, 127
2, 58440, Note_off_c, 1, 62, 0
2, 58480, Note_off_c, 1, 79, 0
2, 58520, Note_on_c, 1, 50, 127
2, 58520, Note_on_c, 1, 79, 127
2, 59280, Note_off_c, 1, 50, 0
2, 59320, Note_on_c, 1, 55, 127
2, 59680, Note_off_c, 1, 55, 0
2, 59720, Note_on_c, 1, 50, 127
2, 60080, Note_off_c, 1, 50, 0
2, 60080, Note_off_c, 1, 79, 0
2, 60120, Note_on_c, 1, 60, 127
2, 60120, Note_on_c, 1, 78, 127
2, 60480, Note_off_c, 1, 60, 0
2, 60520, Note_on_c, 1, 60, 127
2, 60720, Note_off_c, 1, 60, 0
2, 60720, Note_off_c, 1, 78, 0
2, 60760, Note_on_c, 1, 60, 127
2, 60760, Note_on_c, 1, 78, 127
2, 60920, Note_off_c, 1, 60, 0
2, 60960, Note_on_c, 1, 57, 127
2, 61280, Note_off_c, 1, 57, 0
2, 61280, Note_off_c, 1, 78, 0
2, 61320, Note_on_c, 1, 50, 127
2, 61320, Note_on_c, 1, 76, 127
2, 62120, Note_off_c, 1, 50, 0
2, 62160, Note_on_c, 1, 45, 127
2, 62480, Note_off_c, 1, 45, 0
2, 62520, Note_on_c, 1, 50, 127
2, 62720, Note_off_c, 1, 50, 0
2, 62720, Note_off_c, 1, 76, 0
2, 62760, Note_on_c, 1, 50, 127
2, 62760, Note_on_c, 1, 76, 127
2, 62920, Note_off_c, 1, 50, 0
2, 62960, Note_on_c, 1, 45, 127
2, 63320, Note_off_c, 1, 45, 0
2, 63360, Note_on_c, 1, 48, 127
2, 63720, Note_off_c, 1, 48, 0
2, 63760, Note_on_c, 1, 57, 127
2, 64120, Note_off_c, 1, 57, 0
2, 64160, Note_on_c, 1, 45, 127
2, 64520, Note_off_c, 1, 45, 0
2, 64560, Note_on_c, 1, 48, 127
2, 64840, Note_off_c, 1, 48, 0
2, 64840, Note_off_c, 1, 76, 0
2, 64880, Note_on_c, 1, 48, 127
2, 64880, Note_on_c, 1, 76, 127
2, 64960, Note_off_c, 1, 48, 0
2, 65000, Note_on_c, 1, 42, 127
2, 65360, Note_off_c, 1, 42, 0
2, 65360, Note_off_c, 1, 76, 0
2, 65400, Note_on_c, 1, 45, 127
2, 65400, Note_on_c, 1, 78, 127
2, 65760, Note_off_c, 1, 45, 0
2, 65800, Note_on_c, 1, 50, 127
2, 66160, Note_off_c, 1, 50, 0
2, 66200, Note_on_c, 1, 50, 127
2, 66560, Note_off_c, 1, 50, 0
2, 66600, Note_on_c, 1, 46, 127
2, 66600, Note_off_c, 1, 78, 0
2, 66600, Note_on_c, 1, 79, 127
2, 66920, Note_off_c, 1, 46, 0
2, 66920, Note_off_c, 1, 79, 0
2, 66960, Note_on_c, 1, 46, 127
2, 66960, Note_on_c, 1, 79, 127
2, 67000, Note_off_c, 1, 46, 0
2, 67040, Note_on_c, 1, 50, 127
2, 67360, Note_off_c, 1, 50, 0
2, 67400, Note_on_c, 1, 61, 127
2, 67760, Note_off_c, 1, 61, 0
2, 67760, Note_off_c, 1, 79, 0
2, 67800, Note_on_c, 1, 50, 127
2, 67800, Note_on_c, 1, 78, 127
2, 68160, Note_off_c, 1, 50, 0
2, 68200, Note_on_c, 1, 45, 127
2, 68520, Note_off_c, 1, 45, 0
2, 68560, Note_on_c, 1, 50, 127
2, 68920, Note_off_c, 1, 50, 0
2, 68960, Note_on_c, 1, 55, 127
2, 69040, Note_off_c, 1, 55, 0
2, 69040, Note_off_c, 1, 78, 0
2, 69080, Note_on_c, 1, 55, 127
2, 69080, Note_on_c, 1, 78, 127
2, 69360, Note_off_c, 1, 55, 0
2, 69400, Note_on_c, 1, 50, 127
2, 69760, Note_off_c, 1, 50, 0
2, 69800, Note_on_c, 1, 45, 127
2, 70120, Note_off_c, 1, 45, 0
2, 70160, Note_on_c, 1, 50, 127
2, 70520, Note_off_c, 1, 50, 0
2, 70560, Note_on_c, 1, 45, 127
2, 70880, Note_off_c, 1, 45, 0
2, 70920, Note_on_c, 1, 50, 127
2, 71200, Note_off_c, 1, 50, 0
2, 71200, Note_off_c, 1, 78, 0
2, 71240, Note_on_c, 1, 50, 127
2, 71240, Note_on_c, 1, 78, 127
2, 71320, Note_off_c, 1, 50, 0
2, 71360, Note_on_c, 1, 60, 127
2, 71720, Note_off_c, 1, 60, 0
2, 71760, Note_on_c, 1, 50, 127
2, 72120, Note_off_c, 1, 50, 0
2, 72160, Note_on_c, 1, 45, 127
2, 72520, Note_off_c, 1, 45, 0
2, 72560, Note_on_c, 1, 38, 127
2, 72920, Note_off_c, 1, 38, 0
2, 72920, Note_off_c, 1, 78, 0
2, 72960, Note_on_c, 1, 46, 127
2, 72960, Note_on_c, 1, 79, 127
2, 73280, Note_off_c, 1, 46, 0
2, 73280, Note_off_c, 1, 79, 0
2, 73320, Note_on_c, 1, 79, 127
2, 73360, Note_on_c, 1, 50, 127
2, 73360, Note_on_c, 1, 76, 127
2, 73360, Note_off_c, 1, 79, 0
2, 73720, Note_off_c, 1, 50, 0
2, 73760, Note_on_c, 1, 45, 127
2, 74120, Note_off_c, 1, 45, 0
2, 74160, Note_on_c, 1, 50, 127
2, 74520, Note_off_c, 1, 50, 0
2, 74560, Note_on_c, 1, 57, 127
2, 74920, Note_off_c, 1, 57, 0
2, 74960, Note_on_c, 1, 50, 127
2, 75280, Note_off_c, 1, 50, 0
2, 75280, Note_off_c, 1, 76, 0
2, 75320, Note_on_c, 1, 50, 127
2, 75320, Note_on_c, 1, 76, 127
2, 75360, Note_off_c, 1, 50, 0
2, 75400, Note_on_c, 1, 45, 127
2, 75760, Note_off_c, 1, 45, 0
2, 75800, Note_on_c, 1, 37, 127
2, 75840, Note_off_c, 1, 76, 0
2, 75880, Note_on_c, 1, 74, 127
2, 76160, Note_off_c, 1, 37, 0
2, 76160, Note_off_c, 1, 74, 0
2, 76200, Note_on_c, 1, 45, 127
2, 76200, Note_on_c, 1, 73, 127
2, 76560, Note_off_c, 1, 45, 0
2, 76600, Note_on_c, 1, 50, 127
2, 76960, Note_off_c, 1, 50, 0
2, 77000, Note_on_c, 1, 61, 127
2, 77240, Note_off_c, 1, 61, 0
2, 77240, Note_off_c, 1, 73, 0
2, 77280, Note_on_c, 1, 61, 127
2, 77280, Note_on_c, 1, 73, 127
2, 77400, Note_off_c, 1, 61, 0
2, 77440, Note_on_c, 1, 52, 127
2, 77800, Note_off_c, 1, 52, 0
2, 77840, Note_on_c, 1, 61, 127
2, 78200, Note_off_c, 1, 61, 0
2, 78200, Note_off_c, 1, 73, 0
2, 78240, Note_on_c, 1, 49, 127
2, 78240, Note_on_c, 1, 69, 127
2, 78600, Note_off_c, 1, 49, 0
2, 78640, Note_on_c, 1, 54, 127
2, 79000, Note_off_c, 1, 54, 0
2, 79040, Note_on_c, 1, 49, 127
2, 79400, Note_off_c, 1, 49, 0
2, 79400, Note_off_c, 1, 69, 0
2, 79480, Note_on_c, 1, 45, 127
2, 79480, Note_on_c, 1, 71, 127
2, 79840, Note_off_c, 1, 45, 0
2, 79880, Note_on_c, 1, 52, 127
2, 80240, Note_off_c, 1, 52, 0
2, 80240, Note_off_c, 1, 71, 0
2, 80280, Note_on_c, 1, 57, 127
2, 80280, Note_on_c, 1, 78, 127
2, 80640, Note_off_c, 1, 57, 0
2, 80640, Note_off_c, 1, 78, 0
2, 80680, Note_on_c, 1, 49, 127
2, 80680, Note_on_c, 1, 76, 127
2, 81040, Note_off_c, 1, 49, 0
2, 81080, Note_on_c, 1, 52, 127
2, 81400, Note_off_c, 1, 52, 0
2, 81440, Note_on_c, 1, 64, 127
2, 81520, Note_off_c, 1, 64, 0
2, 81520, Note_off_c, 1, 76, 0
2, 81560, Note_on_c, 1, 64, 127
2, 81560, Note_on_c, 1, 76, 127
2, 81840, Note_off_c, 1, 64, 0
2, 81880, Note_on_c, 1, 54, 127
2, 81880, Note_on_c, 1, 74, 127
2, 81880, Note_off_c, 1, 76, 0
2, 82240, Note_off_c, 1, 54, 0
2, 82280, Note_on_c, 1, 62, 127
2, 82640, Note_off_c, 1, 62, 0
2, 82680, Note_on_c, 1, 53, 127
2, 83040, Note_off_c, 1, 53, 0
2, 83080, Note_on_c, 1, 45, 127
2, 83440, Note_off_c, 1, 45, 0
2, 83480, Note_on_c, 1, 50, 127
2, 83560, Note_off_c, 1, 50, 0
2, 83560, Note_off_c, 1, 74, 0
2, 83600, Note_on_c, 1, 50, 127
2, 83600, Note_on_c, 1, 74, 127
2, 83880, Note_off_c, 1, 50, 0
2, 83920, Note_on_c, 1, 45, 127
2, 84280, Note_off_c, 1, 45, 0
2, 84320, Note_on_c, 1, 50, 127
2, 84680, Note_off_c, 1, 50, 0
2, 84720, Note_on_c, 1, 45, 127
2, 85080, Note_off_c, 1, 45, 0
2, 85120, Note_on_c, 1, 45, 127
2, 85480, Note_off_c, 1, 45, 0
2, 85520, Note_on_c, 1, 45, 127
2, 85640, Note_off_c, 1, 45, 0
2, 85640, Note_off_c, 1, 74, 0
2, 85680, Note_on_c, 1, 45, 127
2, 85680, Note_on_c, 1, 74, 127
2, 85920, Note_off_c, 1, 45, 0
2, 85960, Note_on_c, 1, 62, 127
2, 86320, Note_off_c, 1, 62, 0
2, 86360, Note_on_c, 1, 50, 127
2, 86720, Note_off_c, 1, 50, 0
2, 86760, Note_on_c, 1, 45, 127
2, 87120, Note_off_c, 1, 45, 0
2, 87160, Note_on_c, 1, 62, 127
2, 87520, Note_off_c, 1, 62, 0
2, 87560, Note_on_c, 1, 53, 127
2, 87840, Note_off_c, 1, 53, 0
2, 87840, Note_off_c, 1, 74, 0
2, 87880, Note_on_c, 1, 53, 127
2, 87880, Note_on_c, 1, 74, 127
2, 87960, Note_off_c, 1, 53, 0
2, 88000, Note_on_c, 1, 62, 127
2, 88360, Note_off_c, 1, 62, 0
2, 88360, Note_off_c, 1, 74, 0
2, 88400, Note_on_c, 1, 57, 127
2, 88400, Note_on_c, 1, 84, 127
2, 88760, Note_off_c, 1, 57, 0
2, 88800, Note_on_c, 1, 62, 127
2, 89160, Note_off_c, 1, 62, 0
2, 89160, Note_off_c, 1, 84, 0
2, 89200, Note_on_c, 1, 66, 127
2, 89200, Note_on_c, 1, 83, 127
2, 89560, Note_off_c, 1, 66, 0
2, 89560, Note_off_c, 1, 83, 0
2, 89600, Note_on_c, 1, 62, 127
2, 89600, Note_on_c, 1, 85, 127
2, 89960, Note_off_c, 1, 62, 0
2, 89960, Note_off_c, 1, 85, 0
2, 89960, Note_on_c, 1, 86, 127
2, 90000, Note_off_c, 1, 86, 0
2, 90040, Note_on_c, 1, 49, 127
2, 90040, Note_on_c, 1, 86, 127
2, 90360, Note_off_c, 1, 49, 0
2, 90400, Note_on_c, 1, 45, 127
2, 90760, Note_off_c, 1, 45, 0
2, 90760, Note_off_c, 1, 86, 0
2, 90760, Note_on_c, 1, 88, 127
2, 90800, Note_on_c, 1, 64, 127
2, 91160, Note_off_c, 1, 64, 0
2, 91160, Note_off_c, 1, 88, 0
2, 91200, Note_on_c, 1, 52, 127
2, 91200, Note_on_c, 1, 86, 127
2, 91520, Note_off_c, 1, 52, 0
2, 91560, Note_on_c, 1, 62, 127
2, 91920, Note_off_c, 1, 62, 0
2, 91960, Note_off_c, 1, 86, 0
2, 92000, Note_on_c, 1, 57, 127
2, 92000, Note_on_c, 1, 86, 127
2, 92360, Note_off_c, 1, 57, 0
2, 92400, Note_on_c, 1, 52, 127
2, 92720, Note_off_c, 1, 52, 0
2, 92760, Note_on_c, 1, 62, 127
2, 93480, Note_off_c, 1, 62, 0
2, 93520, Note_on_c, 1, 50, 127
2, 93920, Note_off_c, 1, 50, 0
2, 93960, Note_on_c, 1, 55, 127
2, 94080, Note_off_c, 1, 55, 0
2, 94080, Note_off_c, 1, 86, 0
2, 94120, Note_on_c, 1, 55, 127
2, 94120, Note_on_c, 1, 86, 127
2, 94360, Note_off_c, 1, 55, 0
2, 94400, Note_on_c, 1, 59, 127
2, 94760, Note_off_c, 1, 59, 0
2, 94800, Note_on_c, 1, 49, 127
2, 95160, Note_off_c, 1, 49, 0
2, 95200, Note_on_c, 1, 59, 127
2, 95560, Note_off_c, 1, 59, 0
2, 95600, Note_on_c, 1, 55, 127
2, 95920, Note_off_c, 1, 55, 0
2, 95960, Note_on_c, 1, 48, 127
2, 95960, Note_on_c, 1, 83, 127
2, 95960, Note_off_c, 1, 86, 0
2, 96240, Note_off_c, 1, 48, 0
2, 96240, Note_off_c, 1, 83, 0
2, 96280, Note_on_c, 1, 48, 127
2, 96280, Note_on_c, 1, 83, 127
2, 96360, Note_off_c, 1, 48, 0
2, 96400, Note_on_c, 1, 55, 127
2, 96400, Note_off_c, 1, 83, 0
2, 96400, Note_on_c, 1, 86, 127
2, 96760, Note_off_c, 1, 55, 0
2, 96800, Note_on_c, 1, 47, 127
2, 97160, Note_off_c, 1, 47, 0
2, 97200, Note_on_c, 1, 55, 127
2, 97520, Note_off_c, 1, 55, 0
2, 97560, Note_on_c, 1, 59, 127
2, 97920, Note_off_c, 1, 59, 0
2, 97960, Note_on_c, 1, 55, 127
2, 97960, Note_on_c, 1, 83, 127
2, 97960, Note_off_c, 1, 86, 0
2, 98320, Note_off_c, 1, 55, 0
2, 98360, Note_off_c, 1, 83, 0
2, 98400, Note_on_c, 1, 47, 127
2, 98400, Note_on_c, 1, 83, 127
2, 98720, Note_off_c, 1, 47, 0
2, 98760, Note_on_c, 1, 40, 127
2, 99120, Note_off_c, 1, 40, 0
2, 99120, Note_off_c, 1, 83, 0
2, 99160, Note_on_c, 1, 48, 127
2, 99160, Note_on_c, 1, 81, 127
2, 99520, Note_off_c, 1, 48, 0
2, 99560, Note_on_c, 1, 60, 127
2, 99920, Note_off_c, 1, 60, 0
2, 99960, Note_on_c, 1, 52, 127
2, 100320, Note_off_c, 1, 52, 0
2, 100360, Note_on_c, 1, 48, 127
2, 100560, Note_off_c, 1, 48, 0
2, 100560, Note_off_c, 1, 81, 0
2, 100600, Note_on_c, 1, 48, 127
2, 100600, Note_on_c, 1, 81, 127
2, 100720, Note_off_c, 1, 48, 0
2, 100760, Note_on_c, 1, 53, 127
2, 101120, Note_off_c, 1, 53, 0
2, 101160, Note_on_c, 1, 48, 127
2, 101520, Note_off_c, 1, 48, 0
2, 101560, Note_on_c, 1, 41, 127
2, 101920, Note_off_c, 1, 41, 0
2, 101960, Note_on_c, 1, 48, 127
2, 102320, Note_off_c, 1, 48, 0
2, 102360, Note_on_c, 1, 54, 127
2, 102720, Note_off_c, 1, 54, 0
2, 102720, Note_off_c, 1, 81, 0
2, 102760, Note_on_c, 1, 81, 127
2, 102800, Note_on_c, 1, 60, 127
2, 103160, Note_off_c, 1, 60, 0
2, 103200, Note_on_c, 1, 48, 127
2, 103560, Note_off_c, 1, 48, 0
2, 103600, Note_on_c, 1, 52, 127
2, 103960, Note_off_c, 1, 52, 0
2, 104000, Note_on_c, 1, 48, 127
2, 104360, Note_off_c, 1, 48, 0
2, 104400, Note_on_c, 1, 53, 127
2, 104760, Note_off_c, 1, 53, 0
2, 104800, Note_off_c, 1, 81, 0
2, 104840, Note_on_c, 1, 48, 127
2, 104840, Note_on_c, 1, 81, 127
2, 105160, Note_off_c, 1, 48, 0
2, 105200, Note_on_c, 1, 53, 127
2, 105560, Note_off_c, 1, 53, 0
2, 105600, Note_on_c, 1, 60, 127
2, 105960, Note_off_c, 1, 60, 0
2, 106000, Note_on_c, 1, 52, 127
2, 106360, Note_off_c, 1, 52, 0
2, 106400, Note_on_c, 1, 48, 127
2, 106760, Note_off_c, 1, 48, 0
2, 106800, Note_on_c, 1, 54, 127
2, 106960, Note_off_c, 1, 54, 0
2, 106960, Note_off_c, 1, 81, 0
2, 107000, Note_on_c, 1, 54, 127
2, 107000, Note_on_c, 1, 81, 127
2, 107200, Note_off_c, 1, 54, 0
2, 107240, Note_on_c, 1, 60, 127
2, 107600, Note_off_c, 1, 60, 0
2, 107640, Note_on_c, 1, 45, 127
2, 108000, Note_off_c, 1, 45, 0
2, 108040, Note_on_c, 1, 38, 127
2, 108400, Note_off_c, 1, 38, 0
2, 108400, Note_off_c, 1, 81, 0
2, 108440, Note_on_c, 1, 40, 127
2, 108440, Note_on_c, 1, 79, 127
2, 108800, Note_off_c, 1, 40, 0
2, 108840, Note_on_c, 1, 47, 127
2, 109080, Note_off_c, 1, 47, 0
2, 109080, Note_off_c, 1, 79, 0
2, 109120, Note_on_c, 1, 47, 127
2, 109120, Note_on_c, 1, 79, 127
2, 109240, Note_off_c, 1, 47, 0
2, 109280, Note_on_c, 1, 52, 127
2, 109640, Note_off_c, 1, 52, 0
2, 109680, Note_on_c, 1, 58, 127
2, 110040, Note_off_c, 1, 58, 0
2, 110080, Note_on_c, 1, 48, 127
2, 110440, Note_off_c, 1, 48, 0
2, 110440, Note_off_c, 1, 79, 0
2, 110480, Note_on_c, 1, 58, 127
2, 110480, Note_on_c, 1, 64, 127
2, 110480, Note_on_c, 1, 79, 127
2, 110480, Note_on_c, 1, 81, 127
2, 110840, Note_off_c, 1, 64, 0
2, 110840, Note_on_c, 1, 67, 127
2, 110840, Note_on_c, 1, 76, 127
2, 110840, Note_off_c, 1, 79, 0
2, 110840, Note_off_c, 1, 81, 0
2, 110880, Note_on_c, 1, 47, 127
2, 110880, Note_off_c, 1, 58, 0
2, 110880, Note_on_c, 1, 71, 127
2, 111160, Note_off_c, 1, 47, 0
2, 111160, Note_off_c, 1, 67, 0
2, 111160, Note_off_c, 1, 71, 0
2, 111160, Note_off_c, 1, 76, 0
2, 111200, Note_on_c, 1, 47, 127
2, 111200, Note_on_c, 1, 67, 127
2, 111200, Note_on_c, 1, 71, 127
2, 111200, Note_on_c, 1, 76, 127
2, 111280, Note_off_c, 1, 47, 0
2, 111280, Note_off_c, 1, 67, 0
2, 111280, Note_off_c, 1, 71, 0
2, 111280, Note_off_c, 1, 76, 0
2, 111320, Note_on_c, 1, 47, 127
2, 111320, Note_on_c, 1, 81, 127
2, 111680, Note_off_c, 1, 47, 0
2, 111720, Note_on_c, 1, 48, 127
2, 112080, Note_off_c, 1, 48, 0
2, 112120, Note_on_c, 1, 53, 127
2, 112480, Note_off_c, 1, 53, 0
2, 112520, Note_on_c, 1, 45, 127
2, 112880, Note_off_c, 1, 45, 0
2, 112920, Note_on_c, 1, 48, 127
2, 113320, Note_off_c, 1, 48, 0
2, 113320, Note_off_c, 1, 81, 0
2, 113360, Note_on_c, 1, 48, 127
2, 113360, Note_on_c, 1, 81, 127
2, 113680, Note_off_c, 1, 48, 0
2, 113720, Note_on_c, 1, 57, 127
2, 113720, Note_on_c, 1, 77, 127
2, 114080, Note_off_c, 1, 57, 0
2, 114120, Note_on_c, 1, 48, 127
2, 114480, Note_off_c, 1, 48, 0
2, 114520, Note_on_c, 1, 41, 127
2, 114560, Note_off_c, 1, 77, 0
2, 114600, Note_on_c, 1, 75, 127
2, 114880, Note_off_c, 1, 41, 0
2, 114880, Note_off_c, 1, 75, 0
2, 114880, Note_off_c, 1, 81, 0
2, 114920, Note_on_c, 1, 41, 127
2, 114920, Note_on_c, 1, 75, 127
2, 114920, Note_on_c, 1, 81, 127
2, 115280, Note_off_c, 1, 41, 0
2, 115280, Note_off_c, 1, 75, 0
2, 115280, Note_on_c, 1, 76, 127
2, 115280, Note_off_c, 1, 81, 0
2, 115280, Note_on_c, 1, 82, 127
2, 115320, Note_off_c, 1, 76, 0
2, 115320, Note_off_c, 1, 82, 0
2, 115360, Note_on_c, 1, 58, 127
2, 115360, Note_on_c, 1, 76, 127
2, 115360, Note_on_c, 1, 82, 127
2, 115400, Note_off_c, 1, 58, 0
2, 115400, Note_on_c, 1, 64, 127
2, 115400, Note_off_c, 1, 76, 0
2, 115400, Note_on_c, 1, 78, 127
2, 115440, Note_on_c, 1, 39, 127
2, 115440, Note_off_c, 1, 64, 0
2, 115440, Note_on_c, 1, 70, 127
2, 115440, Note_off_c, 1, 78, 0
2, 115440, Note_on_c, 1, 80, 127
2, 115440, Note_off_c, 1, 82, 0
2, 115480, Note_off_c, 1, 39, 0
2, 115480, Note_on_c, 1, 64, 127
2, 115480, Note_off_c, 1, 70, 0
2, 115480, Note_on_c, 1, 78, 127
2, 115480, Note_off_c, 1, 80, 0
2, 115480, Note_on_c, 1, 82, 127
2, 115520, Note_on_c, 1, 51, 127
2, 115520, Note_on_c, 1, 58, 127
2, 115520, Note_on_c, 1, 63, 127
2, 115520, Note_off_c, 1, 64, 0
2, 115520, Note_on_c, 1, 67, 127
2, 115520, Note_on_c, 1, 77, 127
2, 115520, Note_off_c, 1, 78, 0
2, 115520, Note_off_c, 1, 82, 0
2, 115560, Note_off_c, 1, 51, 0
2, 115560, Note_off_c, 1, 58, 0
2, 115560, Note_on_c, 1, 61, 127
2, 115560, Note_off_c, 1, 63, 0
2, 115560, Note_off_c, 1, 67, 0
2, 115560, Note_on_c, 1, 76, 127
2, 115560, Note_off_c, 1, 77, 0
2, 115560, Note_on_c, 1, 82, 127
2, 115720, Note_off_c, 1, 61, 0
2, 115720, Note_off_c, 1, 76, 0
2, 115760, Note_on_c, 1, 53, 127
2, 115760, Note_on_c, 1, 72, 127
2, 115760, Note_on_c, 1, 81, 127
2, 115760, Note_off_c, 1, 82, 0
2, 115760, Note_on_c, 1, 84, 127
2, 116120, Note_off_c, 1, 53, 0
2, 116120, Note_off_c, 1, 72, 0
2, 116120, Note_off_c, 1, 81, 0
2, 116120, Note_off_c, 1, 84, 0
2, 116160, Note_on_c, 1, 55, 127
2, 116160, Note_on_c, 1, 76, 127
2, 116160, Note_on_c, 1, 84, 127
2, 116520, Note_off_c, 1, 55, 0
2, 116560, Note_on_c, 1, 55, 127
2, 116920, Note_off_c, 1, 55, 0
2, 116920, Note_off_c, 1, 76, 0
2, 116920, Note_off_c, 1, 84, 0
2, 116960, Note_on_c, 1, 55, 127
2, 116960, Note_on_c, 1, 76, 127
2, 116960, Note_on_c, 1, 84, 127
2, 117280, Note_off_c, 1, 55, 0
2, 117280, Note_off_c, 1, 76, 0
2, 117280, Note_off_c, 1, 84, 0
2, 117320, Note_on_c, 1, 55, 127
2, 117320, Note_on_c, 1, 76, 127
2, 117320, Note_on_c, 1, 84, 127
2, 117360, Note_off_c, 1, 55, 0
2, 117400, Note_on_c, 1, 55, 127
2, 117760, Note_off_c, 1, 55, 0
2, 117800, Note_on_c, 1, 48, 127
2, 117800, Note_on_c, 1, 79, 127
2, 117800, Note_off_c, 1, 84, 0
2, 118160, Note_off_c, 1, 48, 0
2, 118200, Note_on_c, 1, 52, 127
2, 118560, Note_off_c, 1, 52, 0
2, 118600, Note_on_c, 1, 52, 127
2, 118920, Note_off_c, 1, 76, 0
2, 118920, Note_off_c, 1, 79, 0
2, 118960, Note_on_c, 1, 76, 127
2, 118960, Note_on_c, 1, 79, 127
2, 119320, Note_off_c, 1, 76, 0
2, 119320, Note_off_c, 1, 79, 0
2, 119360, Note_off_c, 1, 52, 0
2, 119400, Note_on_c, 1, 52, 127
2, 119400, Note_on_c, 1, 72, 127
2, 119400, Note_on_c, 1, 76, 127
2, 119760, Note_off_c, 1, 52, 0
2, 119800, Note_on_c, 1, 48, 127
2, 120000, Note_off_c, 1, 48, 0
2, 120000, Note_off_c, 1, 72, 0
2, 120000, Note_off_c, 1, 76, 0
2, 120040, End_track
3, 0, Start_track
3, 0, Title_t, "MIDI"
3, 1536, End_track
0, 0, End_of_file
