0, 0, Header, 1, 3, 192
1, 0, Start_track
1, 0, Time_signature, 4, 2, 24, 8
1, 0, Tempo, 500000
1, 120040, End_track
2, 0, Start_track
2, 0, Text_t, "random instrument: random person i dunno whatev"
2, 0, Title_t, "Track 1"
2, 0, Note_on_c, 1, 34, 127
2, 0, Note_on_c, 1, 53, 127
2, 0, Note_on_c, 1, 56, 127
2, 0, Note_on_c, 1, 62, 127
2, 40, Note_off_c, 1, 34, 0
2, 40, Note_off_c, 1, 53, 0
2, 40, Note_off_c, 1, 56, 0
2, 40, Note_off_c, 1, 62, 0
2, 80, Note_on_c, 1, 31, 127
2, 80, Note_on_c, 1, 43, 127
2, 80, Note_on_c, 1, 59, 127
2, 80, Note_on_c, 1, 65, 127
2, 80, Note_on_c, 1, 67, 127
2, 120, Note_off_c, 1, 31, 0
2, 120, Note_on_c, 1, 34, 127
2, 120, Note_off_c, 1, 43, 0
2, 120, Note_on_c, 1, 53, 127
2, 120, Note_on_c, 1, 56, 127
2, 120, Note_off_c, 1, 59, 0
2, 120, Note_on_c, 1, 62, 127
2, 120, Note_off_c, 1, 65, 0
2, 120, Note_off_c, 1, 67, 0
2, 160, Note_off_c, 1, 34, 0
2, 160, Note_on_c, 1, 43, 127
2, 160, Note_on_c, 1, 47, 127
2, 160, Note_off_c, 1, 53, 0
2, 160, Note_on_c, 1, 55, 127
2, 160, Note_off_c, 1, 56, 0
2, 160, Note_off_c, 1, 62, 0
2, 160, Note_on_c, 1, 79, 127
2, 160, Note_on_c, 1, 83, 127
2, 160, Note_on_c, 1, 87, 127
2, 160, Note_on_c, 1, 91, 127
2, 200, Note_on_c, 1, 34, 127
2, 200, Note_off_c, 1, 43, 0
2, 200, Note_off_c, 1, 47, 0
2, 200, Note_on_c, 1, 53, 127
2, 200, Note_off_c, 1, 55, 0
2, 200, Note_on_c, 1, 56, 127
2, 200, Note_on_c, 1, 62, 127
2, 200, Note_off_c, 1, 79, 0
2, 200, Note_off_c, 1, 83, 0
2, 200, Note_off_c, 1, 87, 0
2, 200, Note_off_c, 1, 91, 0
2, 320, Note_off_c, 1, 34, 0
2, 320, Note_off_c, 1, 53, 0
2, 320, Note_off_c, 1, 56, 0
2, 320, Note_off_c, 1, 62, 0
2, 320, Note_on_c, 1, 65, 127
2, 360, Note_on_c, 1, 34, 127
2, 360, Note_on_c, 1, 53, 127
2, 360, Note_on_c, 1, 56, 127
2, 360, Note_on_c, 1, 62, 127
2, 360, Note_off_c, 1, 65, 0
2, 1040, Note_off_c, 1, 62, 0
2, 1240, Note_off_c, 1, 34, 0
2, 1240, Note_off_c, 1, 53, 0
2, 1240, Note_on_c, 1, 55, 127
2, 1240, Note_off_c, 1, 56, 0
2, 1240, Note_on_c, 1, 77, 127
2, 1240, Note_on_c, 1, 80, 127
2, 1280, Note_on_c, 1, 34, 127
2, 1280, Note_on_c, 1, 53, 127
2, 1280, Note_off_c, 1, 55, 0
2, 1280, Note_on_c, 1, 56, 127
2, 1280, Note_off_c, 1, 77, 0
2, 1280, Note_off_c, 1, 80, 0
2, 1760, Note_off_c, 1, 56, 0
2, 1920, Note_off_c, 1, 53, 0
2, 1920, Note_on_c, 1, 58, 127
2, 2000, Note_off_c, 1, 34, 0
2, 2000, Note_off_c, 1, 58, 0
2, 5240, Note_on_c, 1, 43, 127
2, 5240, Note_on_c, 1, 50, 127
2, 5240, Note_on_c, 1, 60, 127
2, 5240, Note_on_c, 1, 62, 127
2, 5240, Note_on_c, 1, 69, 127
2, 5600, Note_off_c, 1, 43, 0
2, 5600, Note_off_c, 1, 50, 0
2, 5600, Note_off_c, 1, 60, 0
2, 5600, Note_off_c, 1, 62, 0
2, 5600, Note_off_c, 1, 69, 0
2, 5640, Note_on_c, 1, 40, 127
2, 5640, Note_on_c, 1, 52, 127
2, 5640, Note_on_c, 1, 55, 127
2, 5640, Note_on_c, 1, 64, 127
2, 6040, Note_off_c, 1, 40, 0
2, 6040, Note_off_c, 1, 52, 0
2, 6040, Note_off_c, 1, 55, 0
2, 6040, Note_off_c, 1, 64, 0
2, 7560, Note_on_c, 1, 51, 127
2, 7560, Note_on_c, 1, 54, 127
2, 7560, Note_on_c, 1, 59, 127
2, 7880, Note_off_c, 1, 51, 0
2, 7880, Note_off_c, 1, 54, 0
2, 7880, Note_off_c, 1, 59, 0
2, 7920, Note_on_c, 1, 51, 127
2, 7920, Note_on_c, 1, 54, 127
2, 7920, Note_on_c, 1, 59, 127
2, 8360, Note_off_c, 1, 51, 0
2, 8360, Note_off_c, 1, 54, 0
2, 8360, Note_off_c, 1, 59, 0
2, 14960, Note_on_c, 1, 35, 127
2, 15040, Note_off_c, 1, 35, 0
2, 15080, Note_on_c, 1, 35, 127
2, 15120, Note_off_c, 1, 35, 0
2, 15160, Note_on_c, 1, 30, 127
2, 15240, Note_off_c, 1, 30, 0
2, 15280, Note_on_c, 1, 30, 127
2, 15320, Note_off_c, 1, 30, 0
2, 15360, Note_on_c, 1, 30, 127
2, 15520, Note_off_c, 1, 30, 0
2, 15560, Note_on_c, 1, 30, 127
2, 15640, Note_off_c, 1, 30, 0
2, 15680, Note_on_c, 1, 30, 127
2, 15720, Note_off_c, 1, 30, 0
2, 15760, Note_on_c, 1, 30, 127
2, 15840, Note_off_c, 1, 30, 0
2, 15880, Note_on_c, 1, 30, 127
2, 15920, Note_off_c, 1, 30, 0
2, 16000, Note_on_c, 1, 30, 127
2, 16080, Note_off_c, 1, 30, 0
2, 16120, Note_on_c, 1, 29, 127
2, 16160, Note_off_c, 1, 29, 0
2, 16200, Note_on_c, 1, 31, 127
2, 16280, Note_off_c, 1, 31, 0
2, 16320, Note_on_c, 1, 30, 127
2, 16360, Note_off_c, 1, 30, 0
2, 16400, Note_on_c, 1, 38, 127
2, 16400, Note_on_c, 1, 57, 127
2, 16400, Note_on_c, 1, 60, 127
2, 16400, Note_on_c, 1, 62, 127
2, 16400, Note_on_c, 1, 66, 127
2, 16480, Note_off_c, 1, 38, 0
2, 16480, Note_off_c, 1, 57, 0
2, 16480, Note_off_c, 1, 60, 0
2, 16480, Note_off_c, 1, 62, 0
2, 16480, Note_off_c, 1, 66, 0
2, 16520, Note_on_c, 1, 38, 127
2, 16520, Note_on_c, 1, 57, 127
2, 16520, Note_on_c, 1, 60, 127
2, 16520, Note_on_c, 1, 62, 127
2, 16520, Note_on_c, 1, 66, 127
2, 16560, Note_off_c, 1, 38, 0
2, 16560, Note_off_c, 1, 57, 0
2, 16560, Note_off_c, 1, 60, 0
2, 16560, Note_off_c, 1, 62, 0
2, 16560, Note_off_c, 1, 66, 0
2, 16600, Note_on_c, 1, 38, 127
2, 16600, Note_on_c, 1, 57, 127
2, 16600, Note_on_c, 1, 60, 127
2, 16600, Note_on_c, 1, 62, 127
2, 16600, Note_on_c, 1, 66, 127
2, 16680, Note_off_c, 1, 38, 0
2, 16680, Note_off_c, 1, 57, 0
2, 16680, Note_off_c, 1, 60, 0
2, 16680, Note_off_c, 1, 62, 0
2, 16680, Note_off_c, 1, 66, 0
2, 16720, Note_on_c, 1, 38, 127
2, 16720, Note_on_c, 1, 57, 127
2, 16720, Note_on_c, 1, 60, 127
2, 16720, Note_on_c, 1, 62, 127
2, 16720, Note_on_c, 1, 66, 127
2, 16760, Note_off_c, 1, 38, 0
2, 16760, Note_off_c, 1, 57, 0
2, 16760, Note_off_c, 1, 60, 0
2, 16760, Note_off_c, 1, 62, 0
2, 16760, Note_off_c, 1, 66, 0
2, 16800, Note_on_c, 1, 38, 127
2, 16800, Note_on_c, 1, 57, 127
2, 16800, Note_on_c, 1, 60, 127
2, 16800, Note_on_c, 1, 62, 127
2, 16800, Note_on_c, 1, 66, 127
2, 16880, Note_off_c, 1, 38, 0
2, 16880, Note_off_c, 1, 57, 0
2, 16880, Note_off_c, 1, 60, 0
2, 16880, Note_off_c, 1, 62, 0
2, 16880, Note_off_c, 1, 66, 0
2, 16920, Note_on_c, 1, 38, 127
2, 16920, Note_on_c, 1, 57, 127
2, 16920, Note_on_c, 1, 60, 127
2, 16920, Note_on_c, 1, 62, 127
2, 16920, Note_on_c, 1, 66, 127
2, 16960, Note_off_c, 1, 38, 0
2, 16960, Note_off_c, 1, 57, 0
2, 16960, Note_off_c, 1, 60, 0
2, 16960, Note_off_c, 1, 62, 0
2, 16960, Note_off_c, 1, 66, 0
2, 17000, Note_on_c, 1, 38, 127
2, 17000, Note_on_c, 1, 57, 127
2, 17000, Note_on_c, 1, 60, 127
2, 17000, Note_on_c, 1, 62, 127
2, 17000, Note_on_c, 1, 66, 127
2, 17080, Note_off_c, 1, 38, 0
2, 17080, Note_off_c, 1, 57, 0
2, 17080, Note_off_c, 1, 60, 0
2, 17080, Note_off_c, 1, 62, 0
2, 17080, Note_off_c, 1, 66, 0
2, 17120, Note_on_c, 1, 38, 127
2, 17120, Note_on_c, 1, 57, 127
2, 17120, Note_on_c, 1, 60, 127
2, 17120, Note_on_c, 1, 62, 127
2, 17120, Note_on_c, 1, 66, 127
2, 17160, Note_off_c, 1, 38, 0
2, 17160, Note_off_c, 1, 57, 0
2, 17160, Note_off_c, 1, 60, 0
2, 17160, Note_off_c, 1, 62, 0
2, 17160, Note_off_c, 1, 66, 0
2, 17200, Note_on_c, 1, 38, 127
2, 17200, Note_on_c, 1, 57, 127
2, 17200, Note_on_c, 1, 60, 127
2, 17200, Note_on_c, 1, 62, 127
2, 17200, Note_on_c, 1, 66, 127
2, 17280, Note_off_c, 1, 38, 0
2, 17280, Note_off_c, 1, 57, 0
2, 17280, Note_off_c, 1, 60, 0
2, 17280, Note_off_c, 1, 62, 0
2, 17280, Note_off_c, 1, 66, 0
2, 17320, Note_on_c, 1, 38, 127
2, 17320, Note_on_c, 1, 57, 127
2, 17320, Note_on_c, 1, 60, 127
2, 17320, Note_on_c, 1, 62, 127
2, 17320, Note_on_c, 1, 66, 127
2, 17360, Note_off_c, 1, 38, 0
2, 17360, Note_off_c, 1, 57, 0
2, 17360, Note_off_c, 1, 60, 0
2, 17360, Note_off_c, 1, 62, 0
2, 17360, Note_off_c, 1, 66, 0
2, 17400, Note_on_c, 1, 38, 127
2, 17400, Note_on_c, 1, 57, 127
2, 17400, Note_on_c, 1, 60, 127
2, 17400, Note_on_c, 1, 62, 127
2, 17400, Note_on_c, 1, 66, 127
2, 17480, Note_off_c, 1, 38, 0
2, 17480, Note_off_c, 1, 57, 0
2, 17480, Note_off_c, 1, 60, 0
2, 17480, Note_off_c, 1, 62, 0
2, 17480, Note_off_c, 1, 66, 0
2, 17520, Note_on_c, 1, 38, 127
2, 17520, Note_on_c, 1, 57, 127
2, 17520, Note_on_c, 1, 60, 127
2, 17520, Note_on_c, 1, 62, 127
2, 17520, Note_on_c, 1, 66, 127
2, 17560, Note_off_c, 1, 38, 0
2, 17560, Note_off_c, 1, 57, 0
2, 17560, Note_off_c, 1, 60, 0
2, 17560, Note_off_c, 1, 62, 0
2, 17560, Note_off_c, 1, 66, 0
2, 17600, Note_on_c, 1, 38, 127
2, 17600, Note_on_c, 1, 57, 127
2, 17600, Note_on_c, 1, 60, 127
2, 17600, Note_on_c, 1, 62, 127
2, 17600, Note_on_c, 1, 66, 127
2, 17680, Note_off_c, 1, 38, 0
2, 17680, Note_off_c, 1, 57, 0
2, 17680, Note_off_c, 1, 60, 0
2, 17680, Note_off_c, 1, 62, 0
2, 17680, Note_off_c, 1, 66, 0
2, 17720, Note_on_c, 1, 38, 127
2, 17720, Note_on_c, 1, 57, 127
2, 17720, Note_on_c, 1, 60, 127
2, 17720, Note_on_c, 1, 62, 127
2, 17720, Note_on_c, 1, 66, 127
2, 17800, Note_off_c, 1, 38, 0
2, 17800, Note_off_c, 1, 57, 0
2, 17800, Note_off_c, 1, 60, 0
2, 17800, Note_off_c, 1, 62, 0
2, 17800, Note_off_c, 1, 66, 0
2, 17840, Note_on_c, 1, 38, 127
2, 17840, Note_on_c, 1, 57, 127
2, 17840, Note_on_c, 1, 60, 127
2, 17840, Note_on_c, 1, 62, 127
2, 17840, Note_on_c, 1, 66, 127
2, 17880, Note_off_c, 1, 38, 0
2, 17880, Note_off_c, 1, 57, 0
2, 17880, Note_off_c, 1, 60, 0
2, 17880, Note_off_c, 1, 62, 0
2, 17880, Note_off_c, 1, 66, 0
2, 17920, Note_on_c, 1, 38, 127
2, 17920, Note_on_c, 1, 57, 127
2, 17920, Note_on_c, 1, 60, 127
2, 17920, Note_on_c, 1, 62, 127
2, 17920, Note_on_c, 1, 66, 127
2, 18000, Note_off_c, 1, 38, 0
2, 18000, Note_off_c, 1, 57, 0
2, 18000, Note_off_c, 1, 60, 0
2, 18000, Note_off_c, 1, 62, 0
2, 18000, Note_off_c, 1, 66, 0
2, 18040, Note_on_c, 1, 38, 127
2, 18040, Note_on_c, 1, 57, 127
2, 18040, Note_on_c, 1, 60, 127
2, 18040, Note_on_c, 1, 62, 127
2, 18040, Note_on_c, 1, 66, 127
2, 18080, Note_off_c, 1, 38, 0
2, 18080, Note_off_c, 1, 57, 0
2, 18080, Note_off_c, 1, 60, 0
2, 18080, Note_off_c, 1, 62, 0
2, 18080, Note_off_c, 1, 66, 0
2, 18120, Note_on_c, 1, 38, 127
2, 18120, Note_on_c, 1, 57, 127
2, 18120, Note_on_c, 1, 60, 127
2, 18120, Note_on_c, 1, 62, 127
2, 18120, Note_on_c, 1, 66, 127
2, 18200, Note_off_c, 1, 38, 0
2, 18200, Note_off_c, 1, 57, 0
2, 18200, Note_off_c, 1, 60, 0
2, 18200, Note_off_c, 1, 62, 0
2, 18200, Note_off_c, 1, 66, 0
2, 18240, Note_on_c, 1, 38, 127
2, 18240, Note_on_c, 1, 57, 127
2, 18240, Note_on_c, 1, 60, 127
2, 18240, Note_on_c, 1, 62, 127
2, 18240, Note_on_c, 1, 66, 127
2, 18280, Note_off_c, 1, 38, 0
2, 18280, Note_off_c, 1, 57, 0
2, 18280, Note_off_c, 1, 60, 0
2, 18280, Note_off_c, 1, 62, 0
2, 18280, Note_off_c, 1, 66, 0
2, 18360, Note_on_c, 1, 38, 127
2, 18360, Note_on_c, 1, 57, 127
2, 18360, Note_on_c, 1, 60, 127
2, 18360, Note_on_c, 1, 62, 127
2, 18360, Note_on_c, 1, 66, 127
2, 18440, Note_off_c, 1, 38, 0
2, 18440, Note_off_c, 1, 57, 0
2, 18440, Note_off_c, 1, 60, 0
2, 18440, Note_off_c, 1, 62, 0
2, 18440, Note_off_c, 1, 66, 0
2, 18480, Note_on_c, 1, 38, 127
2, 18480, Note_on_c, 1, 57, 127
2, 18480, Note_on_c, 1, 60, 127
2, 18480, Note_on_c, 1, 62, 127
2, 18480, Note_on_c, 1, 66, 127
2, 18560, Note_off_c, 1, 38, 0
2, 18560, Note_off_c, 1, 57, 0
2, 18560, Note_off_c, 1, 60, 0
2, 18560, Note_off_c, 1, 62, 0
2, 18560, Note_off_c, 1, 66, 0
2, 18600, Note_on_c, 1, 38, 127
2, 18600, Note_on_c, 1, 57, 127
2, 18600, Note_on_c, 1, 60, 127
2, 18600, Note_on_c, 1, 62, 127
2, 18600, Note_on_c, 1, 66, 127
2, 18640, Note_off_c, 1, 38, 0
2, 18640, Note_off_c, 1, 57, 0
2, 18640, Note_off_c, 1, 60, 0
2, 18640, Note_off_c, 1, 62, 0
2, 18640, Note_off_c, 1, 66, 0
2, 18680, Note_on_c, 1, 38, 127
2, 18680, Note_on_c, 1, 57, 127
2, 18680, Note_on_c, 1, 60, 127
2, 18680, Note_on_c, 1, 62, 127
2, 18680, Note_on_c, 1, 66, 127
2, 18720, Note_off_c, 1, 38, 0
2, 18720, Note_off_c, 1, 57, 0
2, 18720, Note_off_c, 1, 60, 0
2, 18720, Note_off_c, 1, 62, 0
2, 18720, Note_off_c, 1, 66, 0
2, 18800, Note_on_c, 1, 38, 127
2, 18800, Note_on_c, 1, 57, 127
2, 18800, Note_on_c, 1, 60, 127
2, 18800, Note_on_c, 1, 62, 127
2, 18800, Note_on_c, 1, 66, 127
2, 18840, Note_off_c, 1, 38, 0
2, 18840, Note_off_c, 1, 57, 0
2, 18840, Note_off_c, 1, 60, 0
2, 18840, Note_off_c, 1, 62, 0
2, 18840, Note_off_c, 1, 66, 0
2, 18880, Note_on_c, 1, 38, 127
2, 18880, Note_on_c, 1, 57, 127
2, 18880, Note_on_c, 1, 60, 127
2, 18880, Note_on_c, 1, 62, 127
2, 18880, Note_on_c, 1, 66, 127
2, 18920, Note_off_c, 1, 38, 0
2, 18920, Note_off_c, 1, 57, 0
2, 18920, Note_off_c, 1, 60, 0
2, 18920, Note_off_c, 1, 62, 0
2, 18920, Note_off_c, 1, 66, 0
2, 19000, Note_on_c, 1, 38, 127
2, 19000, Note_on_c, 1, 57, 127
2, 19000, Note_on_c, 1, 60, 127
2, 19000, Note_on_c, 1, 62, 127
2, 19000, Note_on_c, 1, 66, 127
2, 19040, Note_off_c, 1, 38, 0
2, 19040, Note_off_c, 1, 57, 0
2, 19040, Note_off_c, 1, 60, 0
2, 19040, Note_off_c, 1, 62, 0
2, 19040, Note_off_c, 1, 66, 0
2, 19080, Note_on_c, 1, 38, 127
2, 19080, Note_on_c, 1, 57, 127
2, 19080, Note_on_c, 1, 60, 127
2, 19080, Note_on_c, 1, 62, 127
2, 19080, Note_on_c, 1, 66, 127
2, 19120, Note_off_c, 1, 38, 0
2, 19120, Note_off_c, 1, 57, 0
2, 19120, Note_off_c, 1, 60, 0
2, 19120, Note_off_c, 1, 62, 0
2, 19120, Note_off_c, 1, 66, 0
2, 19200, Note_on_c, 1, 38, 127
2, 19200, Note_on_c, 1, 57, 127
2, 19200, Note_on_c, 1, 60, 127
2, 19200, Note_on_c, 1, 62, 127
2, 19200, Note_on_c, 1, 66, 127
2, 19240, Note_off_c, 1, 38, 0
2, 19240, Note_off_c, 1, 57, 0
2, 19240, Note_off_c, 1, 60, 0
2, 19240, Note_off_c, 1, 62, 0
2, 19240, Note_off_c, 1, 66, 0
2, 19280, Note_on_c, 1, 38, 127
2, 19280, Note_on_c, 1, 57, 127
2, 19280, Note_on_c, 1, 60, 127
2, 19280, Note_on_c, 1, 62, 127
2, 19280, Note_on_c, 1, 66, 127
2, 19320, Note_off_c, 1, 38, 0
2, 19320, Note_off_c, 1, 57, 0
2, 19320, Note_off_c, 1, 60, 0
2, 19320, Note_off_c, 1, 62, 0
2, 19320, Note_off_c, 1, 66, 0
2, 19400, Note_on_c, 1, 38, 127
2, 19400, Note_on_c, 1, 57, 127
2, 19400, Note_on_c, 1, 60, 127
2, 19400, Note_on_c, 1, 62, 127
2, 19400, Note_on_c, 1, 66, 127
2, 19440, Note_off_c, 1, 38, 0
2, 19440, Note_off_c, 1, 57, 0
2, 19440, Note_off_c, 1, 60, 0
2, 19440, Note_off_c, 1, 62, 0
2, 19440, Note_off_c, 1, 66, 0
2, 19480, Note_on_c, 1, 38, 127
2, 19480, Note_on_c, 1, 57, 127
2, 19480, Note_on_c, 1, 60, 127
2, 19480, Note_on_c, 1, 62, 127
2, 19480, Note_on_c, 1, 66, 127
2, 19520, Note_off_c, 1, 38, 0
2, 19520, Note_off_c, 1, 57, 0
2, 19520, Note_off_c, 1, 60, 0
2, 19520, Note_off_c, 1, 62, 0
2, 19520, Note_off_c, 1, 66, 0
2, 19600, Note_on_c, 1, 38, 127
2, 19600, Note_on_c, 1, 57, 127
2, 19600, Note_on_c, 1, 60, 127
2, 19600, Note_on_c, 1, 62, 127
2, 19600, Note_on_c, 1, 66, 127
2, 19640, Note_off_c, 1, 38, 0
2, 19640, Note_off_c, 1, 57, 0
2, 19640, Note_off_c, 1, 60, 0
2, 19640, Note_off_c, 1, 62, 0
2, 19640, Note_off_c, 1, 66, 0
2, 19680, Note_on_c, 1, 38, 127
2, 19680, Note_on_c, 1, 57, 127
2, 19680, Note_on_c, 1, 60, 127
2, 19680, Note_on_c, 1, 62, 127
2, 19680, Note_on_c, 1, 66, 127
2, 19720, Note_off_c, 1, 38, 0
2, 19720, Note_off_c, 1, 57, 0
2, 19720, Note_off_c, 1, 60, 0
2, 19720, Note_off_c, 1, 62, 0
2, 19720, Note_off_c, 1, 66, 0
2, 19800, Note_on_c, 1, 38, 127
2, 19800, Note_on_c, 1, 57, 127
2, 19800, Note_on_c, 1, 60, 127
2, 19800, Note_on_c, 1, 62, 127
2, 19800, Note_on_c, 1, 66, 127
2, 19840, Note_off_c, 1, 38, 0
2, 19840, Note_off_c, 1, 57, 0
2, 19840, Note_off_c, 1, 60, 0
2, 19840, Note_off_c, 1, 62, 0
2, 19840, Note_off_c, 1, 66, 0
2, 19880, Note_on_c, 1, 38, 127
2, 19880, Note_on_c, 1, 57, 127
2, 19880, Note_on_c, 1, 60, 127
2, 19880, Note_on_c, 1, 62, 127
2, 19880, Note_on_c, 1, 66, 127
2, 19960, Note_off_c, 1, 38, 0
2, 19960, Note_off_c, 1, 57, 0
2, 19960, Note_off_c, 1, 60, 0
2, 19960, Note_off_c, 1, 62, 0
2, 19960, Note_off_c, 1, 66, 0
2, 20000, Note_on_c, 1, 38, 127
2, 20000, Note_on_c, 1, 57, 127
2, 20000, Note_on_c, 1, 60, 127
2, 20000, Note_on_c, 1, 62, 127
2, 20000, Note_on_c, 1, 66, 127
2, 20040, Note_off_c, 1, 38, 0
2, 20040, Note_off_c, 1, 57, 0
2, 20040, Note_off_c, 1, 60, 0
2, 20040, Note_off_c, 1, 62, 0
2, 20040, Note_off_c, 1, 66, 0
2, 20080, Note_on_c, 1, 38, 127
2, 20080, Note_on_c, 1, 57, 127
2, 20080, Note_on_c, 1, 60, 127
2, 20080, Note_on_c, 1, 62, 127
2, 20080, Note_on_c, 1, 66, 127
2, 20120, Note_off_c, 1, 38, 0
2, 20120, Note_off_c, 1, 57, 0
2, 20120, Note_off_c, 1, 60, 0
2, 20120, Note_off_c, 1, 62, 0
2, 20120, Note_off_c, 1, 66, 0
2, 20200, Note_on_c, 1, 38, 127
2, 20200, Note_on_c, 1, 57, 127
2, 20200, Note_on_c, 1, 60, 127
2, 20200, Note_on_c, 1, 62, 127
2, 20200, Note_on_c, 1, 66, 127
2, 20240, Note_off_c, 1, 38, 0
2, 20240, Note_off_c, 1, 57, 0
2, 20240, Note_off_c, 1, 60, 0
2, 20240, Note_off_c, 1, 62, 0
2, 20240, Note_off_c, 1, 66, 0
2, 20280, Note_on_c, 1, 38, 127
2, 20280, Note_on_c, 1, 57, 127
2, 20280, Note_on_c, 1, 60, 127
2, 20280, Note_on_c, 1, 62, 127
2, 20280, Note_on_c, 1, 66, 127
2, 20320, Note_off_c, 1, 38, 0
2, 20320, Note_off_c, 1, 57, 0
2, 20320, Note_off_c, 1, 60, 0
2, 20320, Note_off_c, 1, 62, 0
2, 20320, Note_off_c, 1, 66, 0
2, 20400, Note_on_c, 1, 38, 127
2, 20400, Note_on_c, 1, 57, 127
2, 20400, Note_on_c, 1, 60, 127
2, 20400, Note_on_c, 1, 62, 127
2, 20400, Note_on_c, 1, 66, 127
2, 20440, Note_off_c, 1, 38, 0
2, 20440, Note_off_c, 1, 57, 0
2, 20440, Note_off_c, 1, 60, 0
2, 20440, Note_off_c, 1, 62, 0
2, 20440, Note_off_c, 1, 66, 0
2, 20640, Note_on_c, 1, 38, 127
2, 20640, Note_on_c, 1, 57, 127
2, 20640, Note_on_c, 1, 60, 127
2, 20640, Note_on_c, 1, 62, 127
2, 20640, Note_on_c, 1, 66, 127
2, 20680, Note_off_c, 1, 38, 0
2, 20680, Note_off_c, 1, 57, 0
2, 20680, Note_off_c, 1, 60, 0
2, 20680, Note_off_c, 1, 62, 0
2, 20680, Note_off_c, 1, 66, 0
2, 20840, Note_on_c, 1, 38, 127
2, 20840, Note_on_c, 1, 57, 127
2, 20840, Note_on_c, 1, 60, 127
2, 20840, Note_on_c, 1, 62, 127
2, 20840, Note_on_c, 1, 66, 127
2, 20880, Note_off_c, 1, 38, 0
2, 20880, Note_off_c, 1, 57, 0
2, 20880, Note_off_c, 1, 60, 0
2, 20880, Note_off_c, 1, 62, 0
2, 20880, Note_off_c, 1, 66, 0
2, 21040, Note_on_c, 1, 38, 127
2, 21040, Note_on_c, 1, 57, 127
2, 21040, Note_on_c, 1, 60, 127
2, 21040, Note_on_c, 1, 62, 127
2, 21040, Note_on_c, 1, 66, 127
2, 21080, Note_off_c, 1, 38, 0
2, 21080, Note_off_c, 1, 57, 0
2, 21080, Note_off_c, 1, 60, 0
2, 21080, Note_off_c, 1, 62, 0
2, 21080, Note_off_c, 1, 66, 0
2, 21240, Note_on_c, 1, 38, 127
2, 21240, Note_on_c, 1, 57, 127
2, 21240, Note_on_c, 1, 60, 127
2, 21240, Note_on_c, 1, 62, 127
2, 21240, Note_on_c, 1, 66, 127
2, 21280, Note_off_c, 1, 38, 0
2, 21280, Note_off_c, 1, 57, 0
2, 21280, Note_off_c, 1, 60, 0
2, 21280, Note_off_c, 1, 62, 0
2, 21280, Note_off_c, 1, 66, 0
2, 21640, Note_on_c, 1, 62, 127
2, 21640, Note_on_c, 1, 66, 127
2, 21640, Note_on_c, 1, 69, 127
2, 21640, Note_on_c, 1, 72, 127
2, 21680, Note_off_c, 1, 62, 0
2, 21680, Note_off_c, 1, 66, 0
2, 21680, Note_off_c, 1, 69, 0
2, 21680, Note_off_c, 1, 72, 0
2, 25480, Note_on_c, 1, 42, 127
2, 25800, Note_off_c, 1, 42, 0
2, 25840, Note_on_c, 1, 42, 127
2, 26160, Note_off_c, 1, 42, 0
2, 26200, Note_on_c, 1, 42, 127
2, 26840, Note_off_c, 1, 42, 0
2, 28720, Note_on_c, 1, 58, 127
2, 28800, Note_off_c, 1, 58, 0
2, 28840, Note_on_c, 1, 59, 127
2, 28880, Note_off_c, 1, 59, 0
2, 28920, Note_on_c, 1, 58, 127
2, 28960, Note_on_c, 1, 56, 127
2, 28960, Note_off_c, 1, 58, 0
2, 29000, Note_off_c, 1, 56, 0
2, 29040, Note_on_c, 1, 56, 127
2, 29080, Note_off_c, 1, 56, 0
2, 29120, Note_on_c, 1, 53, 127
2, 29200, Note_off_c, 1, 53, 0
2, 29240, Note_on_c, 1, 51, 127
2, 29280, Note_off_c, 1, 51, 0
2, 29320, Note_on_c, 1, 53, 127
2, 29400, Note_off_c, 1, 53, 0
2, 29440, Note_on_c, 1, 51, 127
2, 29480, Note_off_c, 1, 51, 0
2, 29520, Note_on_c, 1, 53, 127
2, 29600, Note_off_c, 1, 53, 0
2, 29680, Note_on_c, 1, 53, 127
2, 29720, Note_off_c, 1, 53, 0
2, 29760, Note_on_c, 1, 60, 127
2, 29840, Note_off_c, 1, 60, 0
2, 29880, Note_on_c, 1, 65, 127
2, 29920, Note_off_c, 1, 65, 0
2, 29960, Note_on_c, 1, 70, 127
2, 30040, Note_off_c, 1, 70, 0
2, 30080, Note_on_c, 1, 69, 127
2, 30120, Note_off_c, 1, 69, 0
2, 30160, Note_on_c, 1, 77, 127
2, 30240, Note_off_c, 1, 77, 0
2, 30280, Note_on_c, 1, 82, 127
2, 30320, Note_off_c, 1, 82, 0
2, 30360, Note_on_c, 1, 89, 127
2, 30440, Note_off_c, 1, 89, 0
2, 30480, Note_on_c, 1, 86, 127
2, 30520, Note_off_c, 1, 86, 0
2, 30560, Note_on_c, 1, 89, 127
2, 30960, Note_off_c, 1, 89, 0
2, 31000, Note_on_c, 1, 87, 127
2, 31600, Note_off_c, 1, 87, 0
2, 31680, Note_on_c, 1, 85, 127
2, 31720, Note_off_c, 1, 85, 0
2, 31760, Note_on_c, 1, 87, 127
2, 31840, Note_off_c, 1, 87, 0
2, 31880, Note_on_c, 1, 85, 127
2, 31920, Note_off_c, 1, 85, 0
2, 31960, Note_on_c, 1, 83, 127
2, 32040, Note_off_c, 1, 83, 0
2, 32080, Note_on_c, 1, 82, 127
2, 32120, Note_off_c, 1, 82, 0
2, 32160, Note_on_c, 1, 80, 127
2, 32240, Note_off_c, 1, 80, 0
2, 32280, Note_on_c, 1, 78, 127
2, 32440, Note_off_c, 1, 78, 0
2, 32480, Note_on_c, 1, 77, 127
2, 32560, Note_off_c, 1, 77, 0
2, 32600, Note_on_c, 1, 75, 127
2, 32760, Note_off_c, 1, 75, 0
2, 32800, Note_on_c, 1, 73, 127
2, 32880, Note_on_c, 1, 66, 127
2, 32880, Note_off_c, 1, 73, 0
2, 33080, Note_off_c, 1, 66, 0
2, 33120, Note_on_c, 1, 73, 127
2, 33200, Note_off_c, 1, 73, 0
2, 33240, Note_on_c, 1, 70, 127
2, 33280, Note_off_c, 1, 70, 0
2, 33320, Note_on_c, 1, 68, 127
2, 33400, Note_off_c, 1, 68, 0
2, 33440, Note_on_c, 1, 66, 127
2, 33480, Note_off_c, 1, 66, 0
2, 33520, Note_on_c, 1, 65, 127
2, 33600, Note_off_c, 1, 65, 0
2, 33640, Note_on_c, 1, 66, 127
2, 33680, Note_off_c, 1, 66, 0
2, 33720, Note_on_c, 1, 65, 127
2, 33800, Note_off_c, 1, 65, 0
2, 33840, Note_on_c, 1, 61, 127
2, 33880, Note_off_c, 1, 61, 0
2, 33960, Note_on_c, 1, 60, 127
2, 34040, Note_off_c, 1, 60, 0
2, 34080, Note_on_c, 1, 61, 127
2, 34120, Note_off_c, 1, 61, 0
2, 34160, Note_on_c, 1, 60, 127
2, 34240, Note_off_c, 1, 60, 0
2, 34280, Note_on_c, 1, 58, 127
2, 34320, Note_off_c, 1, 58, 0
2, 34360, Note_on_c, 1, 58, 127
2, 34440, Note_off_c, 1, 58, 0
2, 34480, Note_on_c, 1, 56, 127
2, 34520, Note_off_c, 1, 56, 0
2, 34560, Note_on_c, 1, 53, 127
2, 34840, Note_off_c, 1, 53, 0
2, 34880, Note_on_c, 1, 51, 127
2, 34960, Note_off_c, 1, 51, 0
2, 35000, Note_on_c, 1, 49, 127
2, 35040, Note_off_c, 1, 49, 0
2, 35080, Note_on_c, 1, 51, 127
2, 35160, Note_off_c, 1, 51, 0
2, 35200, Note_on_c, 1, 53, 127
2, 35240, Note_off_c, 1, 53, 0
2, 35280, Note_on_c, 1, 56, 127
2, 35360, Note_off_c, 1, 56, 0
2, 35400, Note_on_c, 1, 53, 127
2, 35440, Note_off_c, 1, 53, 0
2, 35480, Note_on_c, 1, 54, 127
2, 35560, Note_off_c, 1, 54, 0
2, 35600, Note_on_c, 1, 49, 127
2, 35640, Note_off_c, 1, 49, 0
2, 35680, Note_on_c, 1, 48, 127
2, 35760, Note_off_c, 1, 48, 0
2, 35840, Note_on_c, 1, 49, 127
2, 35880, Note_off_c, 1, 49, 0
2, 35920, Note_on_c, 1, 53, 127
2, 36000, Note_off_c, 1, 53, 0
2, 36040, Note_on_c, 1, 45, 127
2, 36080, Note_off_c, 1, 45, 0
2, 36120, Note_on_c, 1, 49, 127
2, 36200, Note_off_c, 1, 49, 0
2, 36240, Note_on_c, 1, 41, 127
2, 36280, Note_off_c, 1, 41, 0
2, 36320, Note_on_c, 1, 51, 127
2, 36400, Note_off_c, 1, 51, 0
2, 36440, Note_on_c, 1, 49, 127
2, 36480, Note_off_c, 1, 49, 0
2, 36520, Note_on_c, 1, 53, 127
2, 36600, Note_off_c, 1, 53, 0
2, 36640, Note_on_c, 1, 54, 127
2, 36680, Note_off_c, 1, 54, 0
2, 36720, Note_on_c, 1, 56, 127
2, 36800, Note_off_c, 1, 56, 0
2, 36840, Note_on_c, 1, 53, 127
2, 36880, Note_off_c, 1, 53, 0
2, 36920, Note_on_c, 1, 54, 127
2, 37000, Note_off_c, 1, 54, 0
2, 37040, Note_on_c, 1, 53, 127
2, 37080, Note_off_c, 1, 53, 0
2, 37120, Note_on_c, 1, 54, 127
2, 37200, Note_off_c, 1, 54, 0
2, 37240, Note_on_c, 1, 56, 127
2, 37280, Note_off_c, 1, 56, 0
2, 37320, Note_on_c, 1, 55, 127
2, 37400, Note_off_c, 1, 55, 0
2, 37440, Note_on_c, 1, 56, 127
2, 37520, Note_off_c, 1, 56, 0
2, 37560, Note_on_c, 1, 53, 127
2, 37600, Note_off_c, 1, 53, 0
2, 37640, Note_on_c, 1, 56, 127
2, 37720, Note_off_c, 1, 56, 0
2, 37800, Note_on_c, 1, 49, 127
2, 37840, Note_off_c, 1, 49, 0
2, 37880, Note_on_c, 1, 51, 127
2, 37960, Note_off_c, 1, 51, 0
2, 38000, Note_on_c, 1, 41, 127
2, 38040, Note_off_c, 1, 41, 0
2, 38080, Note_on_c, 1, 54, 127
2, 38080, Note_on_c, 1, 66, 127
2, 38160, Note_off_c, 1, 54, 0
2, 38160, Note_off_c, 1, 66, 0
2, 38200, Note_on_c, 1, 58, 127
2, 38200, Note_on_c, 1, 70, 127
2, 38280, Note_off_c, 1, 58, 0
2, 38280, Note_off_c, 1, 70, 0
2, 38320, Note_on_c, 1, 61, 127
2, 38320, Note_on_c, 1, 73, 127
2, 38360, Note_off_c, 1, 61, 0
2, 38360, Note_off_c, 1, 73, 0
2, 38400, Note_on_c, 1, 63, 127
2, 38400, Note_on_c, 1, 75, 127
2, 38480, Note_off_c, 1, 63, 0
2, 38480, Note_off_c, 1, 75, 0
2, 38520, Note_on_c, 1, 65, 127
2, 38520, Note_on_c, 1, 77, 127
2, 38680, Note_off_c, 1, 65, 0
2, 38680, Note_off_c, 1, 77, 0
2, 38720, Note_on_c, 1, 63, 127
2, 38720, Note_on_c, 1, 75, 127
2, 38800, Note_off_c, 1, 63, 0
2, 38800, Note_off_c, 1, 75, 0
2, 38840, Note_on_c, 1, 62, 127
2, 38840, Note_on_c, 1, 74, 127
2, 38880, Note_off_c, 1, 62, 0
2, 38880, Note_off_c, 1, 74, 0
2, 38920, Note_on_c, 1, 63, 127
2, 38920, Note_on_c, 1, 75, 127
2, 39000, Note_off_c, 1, 63, 0
2, 39000, Note_off_c, 1, 75, 0
2, 39040, Note_on_c, 1, 59, 127
2, 39040, Note_on_c, 1, 71, 127
2, 39080, Note_off_c, 1, 59, 0
2, 39080, Note_off_c, 1, 71, 0
2, 39120, Note_on_c, 1, 58, 127
2, 39120, Note_on_c, 1, 70, 127
2, 39200, Note_off_c, 1, 58, 0
2, 39200, Note_off_c, 1, 70, 0
2, 39240, Note_on_c, 1, 56, 127
2, 39240, Note_on_c, 1, 68, 127
2, 39280, Note_off_c, 1, 56, 0
2, 39280, Note_off_c, 1, 68, 0
2, 39320, Note_on_c, 1, 58, 127
2, 39320, Note_on_c, 1, 70, 127
2, 39400, Note_off_c, 1, 58, 0
2, 39400, Note_off_c, 1, 70, 0
2, 39440, Note_on_c, 1, 59, 127
2, 39440, Note_on_c, 1, 71, 127
2, 39480, Note_off_c, 1, 59, 0
2, 39480, Note_off_c, 1, 71, 0
2, 39520, Note_on_c, 1, 56, 127
2, 39520, Note_on_c, 1, 68, 127
2, 39600, Note_off_c, 1, 56, 0
2, 39600, Note_off_c, 1, 68, 0
2, 39640, Note_on_c, 1, 58, 127
2, 39640, Note_on_c, 1, 70, 127
2, 39680, Note_off_c, 1, 58, 0
2, 39680, Note_off_c, 1, 70, 0
2, 39760, Note_on_c, 1, 60, 127
2, 39760, Note_on_c, 1, 72, 127
2, 39840, Note_off_c, 1, 60, 0
2, 39840, Note_off_c, 1, 72, 0
2, 39880, Note_on_c, 1, 58, 127
2, 39880, Note_on_c, 1, 70, 127
2, 39960, Note_off_c, 1, 58, 0
2, 39960, Note_off_c, 1, 70, 0
2, 40000, Note_on_c, 1, 60, 127
2, 40000, Note_on_c, 1, 72, 127
2, 40040, Note_off_c, 1, 60, 0
2, 40040, Note_off_c, 1, 72, 0
2, 40080, Note_on_c, 1, 55, 127
2, 40080, Note_on_c, 1, 67, 127
2, 40160, Note_off_c, 1, 55, 0
2, 40160, Note_off_c, 1, 67, 0
2, 40200, Note_on_c, 1, 53, 127
2, 40200, Note_on_c, 1, 65, 127
2, 40240, Note_off_c, 1, 53, 0
2, 40240, Note_off_c, 1, 65, 0
2, 40280, Note_on_c, 1, 55, 127
2, 40280, Note_on_c, 1, 67, 127
2, 40360, Note_off_c, 1, 55, 0
2, 40360, Note_off_c, 1, 67, 0
2, 40400, Note_on_c, 1, 60, 127
2, 40400, Note_on_c, 1, 72, 127
2, 40480, Note_off_c, 1, 60, 0
2, 40480, Note_off_c, 1, 72, 0
2, 40520, Note_on_c, 1, 60, 127
2, 40520, Note_on_c, 1, 72, 127
2, 40560, Note_off_c, 1, 60, 0
2, 40560, Note_off_c, 1, 72, 0
2, 40600, Note_on_c, 1, 60, 127
2, 40600, Note_on_c, 1, 72, 127
2, 40680, Note_off_c, 1, 60, 0
2, 40680, Note_off_c, 1, 72, 0
2, 40720, Note_on_c, 1, 58, 127
2, 40720, Note_on_c, 1, 70, 127
2, 40760, Note_off_c, 1, 58, 0
2, 40760, Note_off_c, 1, 70, 0
2, 40800, Note_on_c, 1, 55, 127
2, 40800, Note_on_c, 1, 67, 127
2, 40880, Note_off_c, 1, 55, 0
2, 40880, Note_off_c, 1, 67, 0
2, 40920, Note_on_c, 1, 56, 127
2, 40920, Note_on_c, 1, 68, 127
2, 40960, Note_off_c, 1, 56, 0
2, 40960, Note_off_c, 1, 68, 0
2, 41000, Note_on_c, 1, 52, 127
2, 41000, Note_on_c, 1, 64, 127
2, 41080, Note_off_c, 1, 52, 0
2, 41080, Note_off_c, 1, 64, 0
2, 41120, Note_on_c, 1, 55, 127
2, 41120, Note_on_c, 1, 67, 127
2, 41160, Note_off_c, 1, 55, 0
2, 41160, Note_off_c, 1, 67, 0
2, 41200, Note_on_c, 1, 63, 127
2, 41200, Note_on_c, 1, 75, 127
2, 41280, Note_off_c, 1, 63, 0
2, 41280, Note_off_c, 1, 75, 0
2, 41320, Note_on_c, 1, 60, 127
2, 41320, Note_on_c, 1, 72, 127
2, 41360, Note_off_c, 1, 60, 0
2, 41360, Note_off_c, 1, 72, 0
2, 41400, Note_on_c, 1, 63, 127
2, 41400, Note_on_c, 1, 75, 127
2, 41480, Note_off_c, 1, 63, 0
2, 41480, Note_off_c, 1, 75, 0
2, 41520, Note_on_c, 1, 61, 127
2, 41520, Note_on_c, 1, 73, 127
2, 41560, Note_off_c, 1, 61, 0
2, 41560, Note_off_c, 1, 73, 0
2, 41600, Note_on_c, 1, 60, 127
2, 41600, Note_on_c, 1, 72, 127
2, 41680, Note_off_c, 1, 60, 0
2, 41680, Note_off_c, 1, 72, 0
2, 41760, Note_on_c, 1, 55, 127
2, 41760, Note_on_c, 1, 67, 127
2, 41800, Note_off_c, 1, 55, 0
2, 41800, Note_off_c, 1, 67, 0
2, 41840, Note_on_c, 1, 58, 127
2, 41840, Note_on_c, 1, 70, 127
2, 41920, Note_off_c, 1, 58, 0
2, 41920, Note_off_c, 1, 70, 0
2, 41960, Note_on_c, 1, 62, 127
2, 41960, Note_on_c, 1, 74, 127
2, 42000, Note_off_c, 1, 62, 0
2, 42000, Note_off_c, 1, 74, 0
2, 42040, Note_on_c, 1, 63, 127
2, 42040, Note_on_c, 1, 75, 127
2, 42120, Note_off_c, 1, 63, 0
2, 42120, Note_off_c, 1, 75, 0
2, 42160, Note_on_c, 1, 63, 127
2, 42160, Note_on_c, 1, 75, 127
2, 42200, Note_off_c, 1, 63, 0
2, 42200, Note_off_c, 1, 75, 0
2, 42240, Note_on_c, 1, 60, 127
2, 42240, Note_on_c, 1, 72, 127
2, 42320, Note_off_c, 1, 60, 0
2, 42320, Note_off_c, 1, 72, 0
2, 42360, Note_on_c, 1, 63, 127
2, 42360, Note_on_c, 1, 75, 127
2, 42400, Note_off_c, 1, 63, 0
2, 42400, Note_off_c, 1, 75, 0
2, 42440, Note_on_c, 1, 60, 127
2, 42440, Note_on_c, 1, 72, 127
2, 42520, Note_off_c, 1, 60, 0
2, 42520, Note_off_c, 1, 72, 0
2, 42560, Note_on_c, 1, 56, 127
2, 42560, Note_on_c, 1, 68, 127
2, 42600, Note_off_c, 1, 56, 0
2, 42600, Note_off_c, 1, 68, 0
2, 42640, Note_on_c, 1, 60, 127
2, 42640, Note_on_c, 1, 72, 127
2, 42720, Note_off_c, 1, 60, 0
2, 42720, Note_off_c, 1, 72, 0
2, 42760, Note_on_c, 1, 58, 127
2, 42760, Note_on_c, 1, 70, 127
2, 42800, Note_off_c, 1, 58, 0
2, 42800, Note_off_c, 1, 70, 0
2, 42840, Note_on_c, 1, 60, 127
2, 42840, Note_on_c, 1, 72, 127
2, 42920, Note_off_c, 1, 60, 0
2, 42920, Note_off_c, 1, 72, 0
2, 42960, Note_on_c, 1, 63, 127
2, 42960, Note_on_c, 1, 75, 127
2, 43000, Note_off_c, 1, 63, 0
2, 43000, Note_off_c, 1, 75, 0
2, 43040, Note_on_c, 1, 66, 127
2, 43040, Note_on_c, 1, 78, 127
2, 43120, Note_off_c, 1, 66, 0
2, 43120, Note_off_c, 1, 78, 0
2, 43160, Note_on_c, 1, 67, 127
2, 43160, Note_on_c, 1, 79, 127
2, 43200, Note_off_c, 1, 67, 0
2, 43200, Note_off_c, 1, 79, 0
2, 43240, Note_on_c, 1, 63, 127
2, 43240, Note_on_c, 1, 75, 127
2, 43320, Note_off_c, 1, 63, 0
2, 43320, Note_off_c, 1, 75, 0
2, 43360, Note_on_c, 1, 64, 127
2, 43360, Note_on_c, 1, 76, 127
2, 43400, Note_off_c, 1, 64, 0
2, 43400, Note_off_c, 1, 76, 0
2, 43440, Note_on_c, 1, 63, 127
2, 43440, Note_on_c, 1, 75, 127
2, 43520, Note_off_c, 1, 63, 0
2, 43520, Note_off_c, 1, 75, 0
2, 43560, Note_on_c, 1, 64, 127
2, 43560, Note_on_c, 1, 76, 127
2, 43600, Note_off_c, 1, 64, 0
2, 43600, Note_off_c, 1, 76, 0
2, 43640, Note_on_c, 1, 60, 127
2, 43640, Note_on_c, 1, 63, 127
2, 43640, Note_on_c, 1, 72, 127
2, 43640, Note_on_c, 1, 75, 127
2, 43840, Note_off_c, 1, 60, 0
2, 43840, Note_off_c, 1, 63, 0
2, 43840, Note_off_c, 1, 72, 0
2, 43840, Note_off_c, 1, 75, 0
2, 43880, Note_on_c, 1, 60, 127
2, 43880, Note_on_c, 1, 63, 127
2, 43880, Note_on_c, 1, 72, 127
2, 43880, Note_on_c, 1, 75, 127
2, 44280, Note_off_c, 1, 60, 0
2, 44280, Note_off_c, 1, 63, 0
2, 44280, Note_off_c, 1, 72, 0
2, 44280, Note_off_c, 1, 75, 0
2, 44320, Note_on_c, 1, 56, 127
2, 44320, Note_on_c, 1, 60, 127
2, 44320, Note_on_c, 1, 68, 127
2, 44320, Note_on_c, 1, 72, 127
2, 44360, Note_off_c, 1, 56, 0
2, 44360, Note_on_c, 1, 63, 127
2, 44360, Note_off_c, 1, 68, 0
2, 44360, Note_on_c, 1, 75, 127
2, 44480, Note_off_c, 1, 60, 0
2, 44480, Note_off_c, 1, 63, 0
2, 44480, Note_off_c, 1, 72, 0
2, 44480, Note_off_c, 1, 75, 0
2, 44520, Note_on_c, 1, 58, 127
2, 44520, Note_on_c, 1, 61, 127
2, 44520, Note_on_c, 1, 70, 127
2, 44520, Note_on_c, 1, 73, 127
2, 44680, Note_off_c, 1, 58, 0
2, 44680, Note_off_c, 1, 61, 0
2, 44680, Note_off_c, 1, 70, 0
2, 44680, Note_off_c, 1, 73, 0
2, 44720, Note_on_c, 1, 57, 127
2, 44720, Note_on_c, 1, 63, 127
2, 44720, Note_on_c, 1, 69, 127
2, 44720, Note_on_c, 1, 75, 127
2, 44880, Note_off_c, 1, 57, 0
2, 44880, Note_off_c, 1, 63, 0
2, 44880, Note_off_c, 1, 69, 0
2, 44880, Note_off_c, 1, 75, 0
2, 44920, Note_on_c, 1, 62, 127
2, 44920, Note_on_c, 1, 65, 127
2, 44920, Note_on_c, 1, 74, 127
2, 44920, Note_on_c, 1, 77, 127
2, 45080, Note_off_c, 1, 62, 0
2, 45080, Note_off_c, 1, 65, 0
2, 45080, Note_off_c, 1, 74, 0
2, 45080, Note_off_c, 1, 77, 0
2, 45120, Note_on_c, 1, 60, 127
2, 45120, Note_on_c, 1, 63, 127
2, 45120, Note_on_c, 1, 72, 127
2, 45120, Note_on_c, 1, 75, 127
2, 45280, Note_off_c, 1, 60, 0
2, 45280, Note_off_c, 1, 63, 0
2, 45280, Note_off_c, 1, 72, 0
2, 45280, Note_off_c, 1, 75, 0
2, 45320, Note_on_c, 1, 58, 127
2, 45320, Note_on_c, 1, 61, 127
2, 45320, Note_on_c, 1, 70, 127
2, 45320, Note_on_c, 1, 73, 127
2, 45480, Note_off_c, 1, 58, 0
2, 45480, Note_off_c, 1, 61, 0
2, 45480, Note_off_c, 1, 70, 0
2, 45480, Note_off_c, 1, 73, 0
2, 45520, Note_on_c, 1, 60, 127
2, 45520, Note_on_c, 1, 63, 127
2, 45520, Note_on_c, 1, 72, 127
2, 45520, Note_on_c, 1, 75, 127
2, 45680, Note_off_c, 1, 60, 0
2, 45680, Note_off_c, 1, 63, 0
2, 45680, Note_off_c, 1, 72, 0
2, 45680, Note_off_c, 1, 75, 0
2, 45720, Note_on_c, 1, 41, 127
2, 45720, Note_on_c, 1, 72, 127
2, 45720, Note_on_c, 1, 80, 127
2, 45720, Note_on_c, 1, 84, 127
2, 45880, Note_off_c, 1, 41, 0
2, 46000, Note_off_c, 1, 72, 0
2, 46000, Note_off_c, 1, 80, 0
2, 46000, Note_off_c, 1, 84, 0
2, 46040, Note_on_c, 1, 72, 127
2, 46040, Note_on_c, 1, 80, 127
2, 46040, Note_on_c, 1, 84, 127
2, 46120, Note_off_c, 1, 72, 0
2, 46120, Note_off_c, 1, 80, 0
2, 46120, Note_off_c, 1, 84, 0
2, 46160, Note_on_c, 1, 66, 127
2, 46160, Note_on_c, 1, 70, 127
2, 46160, Note_on_c, 1, 78, 127
2, 46160, Note_on_c, 1, 82, 127
2, 46320, Note_off_c, 1, 66, 0
2, 46320, Note_off_c, 1, 70, 0
2, 46320, Note_off_c, 1, 78, 0
2, 46320, Note_off_c, 1, 82, 0
2, 46360, Note_on_c, 1, 65, 127
2, 46360, Note_on_c, 1, 68, 127
2, 46360, Note_on_c, 1, 77, 127
2, 46360, Note_on_c, 1, 80, 127
2, 46520, Note_off_c, 1, 65, 0
2, 46520, Note_off_c, 1, 68, 0
2, 46520, Note_off_c, 1, 77, 0
2, 46520, Note_off_c, 1, 80, 0
2, 46560, Note_on_c, 1, 65, 127
2, 46560, Note_on_c, 1, 68, 127
2, 46560, Note_on_c, 1, 77, 127
2, 46560, Note_on_c, 1, 80, 127
2, 46720, Note_off_c, 1, 65, 0
2, 46720, Note_off_c, 1, 68, 0
2, 46720, Note_off_c, 1, 77, 0
2, 46720, Note_off_c, 1, 80, 0
2, 46760, Note_on_c, 1, 65, 127
2, 46760, Note_on_c, 1, 68, 127
2, 46760, Note_on_c, 1, 77, 127
2, 46760, Note_on_c, 1, 80, 127
2, 46920, Note_off_c, 1, 65, 0
2, 46920, Note_off_c, 1, 68, 0
2, 46920, Note_off_c, 1, 77, 0
2, 46920, Note_off_c, 1, 80, 0
2, 46960, Note_on_c, 1, 62, 127
2, 46960, Note_on_c, 1, 66, 127
2, 46960, Note_on_c, 1, 74, 127
2, 46960, Note_on_c, 1, 78, 127
2, 47120, Note_off_c, 1, 62, 0
2, 47120, Note_off_c, 1, 66, 0
2, 47120, Note_off_c, 1, 74, 0
2, 47120, Note_off_c, 1, 78, 0
2, 47160, Note_on_c, 1, 60, 127
2, 47160, Note_on_c, 1, 63, 127
2, 47160, Note_on_c, 1, 72, 127
2, 47160, Note_on_c, 1, 75, 127
2, 47320, Note_off_c, 1, 60, 0
2, 47320, Note_off_c, 1, 63, 0
2, 47320, Note_off_c, 1, 72, 0
2, 47320, Note_off_c, 1, 75, 0
2, 47360, Note_on_c, 1, 59, 127
2, 47360, Note_on_c, 1, 63, 127
2, 47360, Note_on_c, 1, 71, 127
2, 47360, Note_on_c, 1, 75, 127
2, 47520, Note_off_c, 1, 59, 0
2, 47520, Note_off_c, 1, 63, 0
2, 47520, Note_off_c, 1, 71, 0
2, 47520, Note_off_c, 1, 75, 0
2, 47560, Note_on_c, 1, 60, 127
2, 47560, Note_on_c, 1, 63, 127
2, 47560, Note_on_c, 1, 72, 127
2, 47560, Note_on_c, 1, 75, 127
2, 47720, Note_off_c, 1, 60, 0
2, 47720, Note_off_c, 1, 63, 0
2, 47720, Note_off_c, 1, 72, 0
2, 47720, Note_off_c, 1, 75, 0
2, 47760, Note_on_c, 1, 58, 127
2, 47760, Note_on_c, 1, 63, 127
2, 47760, Note_on_c, 1, 70, 127
2, 47760, Note_on_c, 1, 75, 127
2, 47880, Note_off_c, 1, 58, 0
2, 47880, Note_off_c, 1, 63, 0
2, 47880, Note_off_c, 1, 70, 0
2, 47880, Note_off_c, 1, 75, 0
2, 47920, Note_on_c, 1, 58, 127
2, 47920, Note_on_c, 1, 63, 127
2, 47920, Note_on_c, 1, 70, 127
2, 47920, Note_on_c, 1, 75, 127
2, 47960, Note_off_c, 1, 58, 0
2, 47960, Note_off_c, 1, 63, 0
2, 47960, Note_off_c, 1, 70, 0
2, 47960, Note_off_c, 1, 75, 0
2, 48000, Note_on_c, 1, 60, 127
2, 48000, Note_on_c, 1, 63, 127
2, 48000, Note_on_c, 1, 72, 127
2, 48000, Note_on_c, 1, 75, 127
2, 48160, Note_off_c, 1, 60, 0
2, 48160, Note_off_c, 1, 63, 0
2, 48160, Note_off_c, 1, 72, 0
2, 48160, Note_off_c, 1, 75, 0
2, 48200, Note_on_c, 1, 58, 127
2, 48200, Note_on_c, 1, 63, 127
2, 48200, Note_on_c, 1, 70, 127
2, 48200, Note_on_c, 1, 75, 127
2, 48320, Note_off_c, 1, 58, 0
2, 48320, Note_on_c, 1, 59, 127
2, 48320, Note_off_c, 1, 70, 0
2, 48320, Note_on_c, 1, 71, 127
2, 48360, Note_off_c, 1, 59, 0
2, 48360, Note_off_c, 1, 63, 0
2, 48360, Note_off_c, 1, 71, 0
2, 48360, Note_off_c, 1, 75, 0
2, 48400, Note_on_c, 1, 60, 127
2, 48400, Note_on_c, 1, 63, 127
2, 48400, Note_on_c, 1, 72, 127
2, 48400, Note_on_c, 1, 75, 127
2, 48560, Note_off_c, 1, 60, 0
2, 48560, Note_off_c, 1, 63, 0
2, 48560, Note_off_c, 1, 72, 0
2, 48560, Note_off_c, 1, 75, 0
2, 48600, Note_on_c, 1, 58, 127
2, 48600, Note_on_c, 1, 65, 127
2, 48600, Note_on_c, 1, 73, 127
2, 48600, Note_on_c, 1, 77, 127
2, 48640, Note_off_c, 1, 65, 0
2, 48640, Note_off_c, 1, 73, 0
2, 48640, Note_off_c, 1, 77, 0
2, 48760, Note_off_c, 1, 58, 0
2, 48800, Note_on_c, 1, 59, 127
2, 48800, Note_on_c, 1, 63, 127
2, 48800, Note_on_c, 1, 68, 127
2, 48800, Note_on_c, 1, 71, 127
2, 48960, Note_off_c, 1, 59, 0
2, 48960, Note_off_c, 1, 63, 0
2, 48960, Note_off_c, 1, 68, 0
2, 48960, Note_off_c, 1, 71, 0
2, 49000, Note_on_c, 1, 41, 127
2, 49000, Note_on_c, 1, 60, 127
2, 49000, Note_on_c, 1, 65, 127
2, 49000, Note_on_c, 1, 68, 127
2, 49160, Note_off_c, 1, 41, 0
2, 49160, Note_off_c, 1, 60, 0
2, 49160, Note_off_c, 1, 65, 0
2, 49160, Note_off_c, 1, 68, 0
2, 49200, Note_on_c, 1, 46, 127
2, 49200, Note_on_c, 1, 62, 127
2, 49200, Note_on_c, 1, 68, 127
2, 49200, Note_on_c, 1, 72, 127
2, 49560, Note_off_c, 1, 46, 0
2, 49560, Note_off_c, 1, 62, 0
2, 49560, Note_off_c, 1, 68, 0
2, 49560, Note_off_c, 1, 72, 0
2, 49600, Note_on_c, 1, 46, 127
2, 49600, Note_on_c, 1, 62, 127
2, 49600, Note_on_c, 1, 68, 127
2, 49600, Note_on_c, 1, 72, 127
2, 49920, Note_off_c, 1, 46, 0
2, 49920, Note_off_c, 1, 62, 0
2, 49920, Note_off_c, 1, 68, 0
2, 49920, Note_off_c, 1, 72, 0
2, 49960, Note_on_c, 1, 46, 127
2, 49960, Note_on_c, 1, 62, 127
2, 49960, Note_on_c, 1, 68, 127
2, 49960, Note_on_c, 1, 72, 127
2, 50000, Note_off_c, 1, 46, 0
2, 50000, Note_off_c, 1, 62, 0
2, 50000, Note_off_c, 1, 68, 0
2, 50000, Note_off_c, 1, 72, 0
2, 50080, Note_on_c, 1, 53, 127
2, 50080, Note_on_c, 1, 68, 127
2, 50080, Note_on_c, 1, 72, 127
2, 50080, Note_on_c, 1, 77, 127
2, 50440, Note_off_c, 1, 53, 0
2, 50440, Note_off_c, 1, 68, 0
2, 50440, Note_off_c, 1, 72, 0
2, 50440, Note_off_c, 1, 77, 0
2, 50480, Note_on_c, 1, 56, 127
2, 50480, Note_on_c, 1, 68, 127
2, 50640, Note_off_c, 1, 56, 0
2, 50640, Note_off_c, 1, 68, 0
2, 50680, Note_on_c, 1, 55, 127
2, 50680, Note_on_c, 1, 67, 127
2, 50840, Note_off_c, 1, 55, 0
2, 50840, Note_off_c, 1, 67, 0
2, 50880, Note_on_c, 1, 56, 127
2, 50880, Note_on_c, 1, 68, 127
2, 51040, Note_off_c, 1, 56, 0
2, 51040, Note_off_c, 1, 68, 0
2, 51080, Note_on_c, 1, 55, 127
2, 51080, Note_on_c, 1, 67, 127
2, 51240, Note_off_c, 1, 55, 0
2, 51240, Note_off_c, 1, 67, 0
2, 51280, Note_on_c, 1, 60, 127
2, 51280, Note_on_c, 1, 72, 127
2, 51440, Note_off_c, 1, 60, 0
2, 51440, Note_off_c, 1, 72, 0
2, 51480, Note_on_c, 1, 59, 127
2, 51480, Note_on_c, 1, 71, 127
2, 51640, Note_off_c, 1, 59, 0
2, 51640, Note_off_c, 1, 71, 0
2, 51680, Note_on_c, 1, 55, 127
2, 51680, Note_on_c, 1, 67, 127
2, 51840, Note_off_c, 1, 55, 0
2, 51840, Note_off_c, 1, 67, 0
2, 51920, Note_on_c, 1, 56, 127
2, 51920, Note_on_c, 1, 68, 127
2, 52080, Note_off_c, 1, 56, 0
2, 52080, Note_off_c, 1, 68, 0
2, 52120, Note_on_c, 1, 55, 127
2, 52120, Note_on_c, 1, 67, 127
2, 52280, Note_off_c, 1, 55, 0
2, 52280, Note_off_c, 1, 67, 0
2, 52320, Note_on_c, 1, 56, 127
2, 52320, Note_on_c, 1, 68, 127
2, 52480, Note_off_c, 1, 56, 0
2, 52480, Note_off_c, 1, 68, 0
2, 52520, Note_on_c, 1, 55, 127
2, 52520, Note_on_c, 1, 67, 127
2, 52680, Note_off_c, 1, 55, 0
2, 52680, Note_off_c, 1, 67, 0
2, 52720, Note_on_c, 1, 51, 127
2, 52720, Note_on_c, 1, 63, 127
2, 52880, Note_off_c, 1, 51, 0
2, 52880, Note_off_c, 1, 63, 0
2, 52920, Note_on_c, 1, 56, 127
2, 52920, Note_on_c, 1, 68, 127
2, 53280, Note_off_c, 1, 56, 0
2, 53280, Note_off_c, 1, 68, 0
2, 53320, Note_on_c, 1, 64, 127
2, 53320, Note_on_c, 1, 76, 127
2, 53480, Note_off_c, 1, 64, 0
2, 53480, Note_off_c, 1, 76, 0
2, 53520, Note_on_c, 1, 63, 127
2, 53520, Note_on_c, 1, 75, 127
2, 53680, Note_off_c, 1, 63, 0
2, 53680, Note_off_c, 1, 75, 0
2, 53720, Note_on_c, 1, 60, 127
2, 53720, Note_on_c, 1, 72, 127
2, 53880, Note_off_c, 1, 60, 0
2, 53880, Note_off_c, 1, 72, 0
2, 53960, Note_on_c, 1, 60, 127
2, 53960, Note_on_c, 1, 72, 127
2, 54120, Note_off_c, 1, 60, 0
2, 54120, Note_off_c, 1, 72, 0
2, 54160, Note_on_c, 1, 55, 127
2, 54160, Note_on_c, 1, 67, 127
2, 54320, Note_off_c, 1, 55, 0
2, 54320, Note_off_c, 1, 67, 0
2, 54360, Note_on_c, 1, 32, 127
2, 54360, Note_on_c, 1, 75, 127
2, 54520, Note_off_c, 1, 32, 0
2, 54560, Note_on_c, 1, 32, 127
2, 54720, Note_off_c, 1, 32, 0
2, 54720, Note_off_c, 1, 75, 0
2, 54760, Note_on_c, 1, 32, 127
2, 54760, Note_on_c, 1, 75, 127
2, 54920, Note_off_c, 1, 32, 0
2, 54960, Note_on_c, 1, 32, 127
2, 55120, Note_off_c, 1, 32, 0
2, 55160, Note_on_c, 1, 32, 127
2, 55320, Note_off_c, 1, 32, 0
2, 55320, Note_off_c, 1, 75, 0
2, 55360, Note_on_c, 1, 44, 127
2, 55360, Note_on_c, 1, 66, 127
2, 55360, Note_on_c, 1, 73, 127
2, 55520, Note_off_c, 1, 44, 0
2, 55520, Note_off_c, 1, 66, 0
2, 55560, Note_on_c, 1, 56, 127
2, 55560, Note_on_c, 1, 68, 127
2, 55720, Note_off_c, 1, 56, 0
2, 55720, Note_off_c, 1, 68, 0
2, 55760, Note_on_c, 1, 58, 127
2, 55760, Note_on_c, 1, 63, 127
2, 55840, Note_off_c, 1, 58, 0
2, 55840, Note_off_c, 1, 63, 0
2, 55840, Note_off_c, 1, 73, 0
2, 55880, Note_on_c, 1, 58, 127
2, 55880, Note_on_c, 1, 63, 127
2, 55880, Note_on_c, 1, 73, 127
2, 55960, Note_off_c, 1, 58, 0
2, 55960, Note_off_c, 1, 63, 0
2, 56000, Note_on_c, 1, 58, 127
2, 56000, Note_on_c, 1, 63, 127
2, 56120, Note_off_c, 1, 58, 0
2, 56120, Note_off_c, 1, 63, 0
2, 56160, Note_off_c, 1, 73, 0
2, 56200, Note_on_c, 1, 63, 127
2, 56200, Note_on_c, 1, 67, 127
2, 56200, Note_on_c, 1, 72, 127
2, 56360, Note_off_c, 1, 63, 0
2, 56360, Note_off_c, 1, 67, 0
2, 56400, Note_on_c, 1, 56, 127
2, 56400, Note_on_c, 1, 63, 127
2, 56440, Note_off_c, 1, 63, 0
2, 56560, Note_off_c, 1, 56, 0
2, 56560, Note_off_c, 1, 72, 0
2, 56600, Note_on_c, 1, 44, 127
2, 56600, Note_on_c, 1, 63, 127
2, 56600, Note_on_c, 1, 72, 127
2, 56760, Note_off_c, 1, 44, 0
2, 56760, Note_off_c, 1, 63, 0
2, 56760, Note_off_c, 1, 72, 0
2, 56800, Note_on_c, 1, 46, 127
2, 56800, Note_on_c, 1, 63, 127
2, 56800, Note_on_c, 1, 67, 127
2, 57160, Note_off_c, 1, 46, 0
2, 57160, Note_off_c, 1, 63, 0
2, 57160, Note_off_c, 1, 67, 0
2, 57200, Note_on_c, 1, 43, 127
2, 57200, Note_on_c, 1, 51, 127
2, 57200, Note_on_c, 1, 63, 127
2, 57360, Note_off_c, 1, 51, 0
2, 57400, Note_on_c, 1, 55, 127
2, 57560, Note_off_c, 1, 43, 0
2, 57560, Note_off_c, 1, 55, 0
2, 57560, Note_off_c, 1, 63, 0
2, 57600, Note_on_c, 1, 44, 127
2, 57600, Note_on_c, 1, 63, 127
2, 57600, Note_on_c, 1, 72, 127
2, 57760, Note_off_c, 1, 44, 0
2, 57760, Note_off_c, 1, 63, 0
2, 57760, Note_off_c, 1, 72, 0
2, 57800, Note_on_c, 1, 46, 127
2, 57800, Note_on_c, 1, 63, 127
2, 57800, Note_on_c, 1, 67, 127
2, 57960, Note_off_c, 1, 46, 0
2, 57960, Note_off_c, 1, 63, 0
2, 57960, Note_off_c, 1, 67, 0
2, 58040, Note_on_c, 1, 46, 127
2, 58040, Note_on_c, 1, 63, 127
2, 58040, Note_on_c, 1, 67, 127
2, 58200, Note_off_c, 1, 46, 0
2, 58200, Note_off_c, 1, 63, 0
2, 58200, Note_off_c, 1, 67, 0
2, 58240, Note_on_c, 1, 46, 127
2, 58240, Note_on_c, 1, 62, 127
2, 58240, Note_on_c, 1, 65, 127
2, 58400, Note_off_c, 1, 46, 0
2, 58400, Note_off_c, 1, 62, 0
2, 58400, Note_off_c, 1, 65, 0
2, 58440, Note_on_c, 1, 51, 127
2, 58440, Note_on_c, 1, 63, 127
2, 58440, Note_on_c, 1, 67, 127
2, 58480, Note_off_c, 1, 67, 0
2, 58520, Note_on_c, 1, 67, 127
2, 58600, Note_off_c, 1, 51, 0
2, 58600, Note_off_c, 1, 63, 0
2, 58600, Note_off_c, 1, 67, 0
2, 58640, Note_on_c, 1, 46, 127
2, 58640, Note_on_c, 1, 64, 127
2, 58640, Note_on_c, 1, 70, 127
2, 58680, Note_off_c, 1, 64, 0
2, 58680, Note_off_c, 1, 70, 0
2, 58720, Note_on_c, 1, 64, 127
2, 58720, Note_on_c, 1, 70, 127
2, 58800, Note_off_c, 1, 46, 0
2, 58800, Note_off_c, 1, 64, 0
2, 58800, Note_off_c, 1, 70, 0
2, 58840, Note_on_c, 1, 46, 127
2, 58840, Note_on_c, 1, 68, 127
2, 58840, Note_on_c, 1, 72, 127
2, 59000, Note_off_c, 1, 46, 0
2, 59000, Note_off_c, 1, 68, 0
2, 59000, Note_off_c, 1, 72, 0
2, 59040, Note_on_c, 1, 46, 127
2, 59040, Note_on_c, 1, 65, 127
2, 59040, Note_on_c, 1, 72, 127
2, 59200, Note_off_c, 1, 46, 0
2, 59200, Note_off_c, 1, 65, 0
2, 59200, Note_off_c, 1, 72, 0
2, 59240, Note_on_c, 1, 51, 127
2, 59240, Note_on_c, 1, 56, 127
2, 59240, Note_on_c, 1, 72, 127
2, 59400, Note_off_c, 1, 51, 0
2, 59400, Note_off_c, 1, 56, 0
2, 59400, Note_off_c, 1, 72, 0
2, 59440, Note_on_c, 1, 56, 127
2, 59440, Note_on_c, 1, 72, 127
2, 59600, Note_off_c, 1, 56, 0
2, 59600, Note_off_c, 1, 72, 0
2, 59640, Note_on_c, 1, 48, 127
2, 59640, Note_on_c, 1, 56, 127
2, 59640, Note_on_c, 1, 80, 127
2, 59840, Note_off_c, 1, 48, 0
2, 59840, Note_off_c, 1, 56, 0
2, 59840, Note_off_c, 1, 80, 0
2, 59920, Note_on_c, 1, 51, 127
2, 59920, Note_on_c, 1, 60, 127
2, 59920, Note_on_c, 1, 78, 127
2, 60080, Note_off_c, 1, 51, 0
2, 60080, Note_off_c, 1, 60, 0
2, 60080, Note_off_c, 1, 78, 0
2, 60120, Note_on_c, 1, 51, 127
2, 60120, Note_on_c, 1, 60, 127
2, 60120, Note_on_c, 1, 78, 127
2, 60480, Note_off_c, 1, 51, 0
2, 60480, Note_off_c, 1, 60, 0
2, 60480, Note_off_c, 1, 78, 0
2, 60520, Note_on_c, 1, 51, 127
2, 60520, Note_on_c, 1, 60, 127
2, 60520, Note_on_c, 1, 78, 127
2, 60880, Note_off_c, 1, 51, 0
2, 60880, Note_off_c, 1, 60, 0
2, 60880, Note_off_c, 1, 78, 0
2, 60920, Note_on_c, 1, 44, 127
2, 60920, Note_on_c, 1, 63, 127
2, 60920, Note_on_c, 1, 75, 127
2, 61120, Note_on_c, 1, 48, 127
2, 61280, Note_off_c, 1, 44, 0
2, 61280, Note_off_c, 1, 48, 0
2, 61280, Note_off_c, 1, 63, 0
2, 61280, Note_off_c, 1, 75, 0
2, 61320, Note_on_c, 1, 44, 127
2, 61320, Note_on_c, 1, 63, 127
2, 61320, Note_on_c, 1, 75, 127
2, 61480, Note_off_c, 1, 44, 0
2, 61480, Note_off_c, 1, 63, 0
2, 61480, Note_off_c, 1, 75, 0
2, 61520, Note_on_c, 1, 46, 127
2, 61520, Note_on_c, 1, 66, 127
2, 61520, Note_on_c, 1, 75, 127
2, 61680, Note_off_c, 1, 46, 0
2, 61720, Note_on_c, 1, 46, 127
2, 61880, Note_off_c, 1, 46, 0
2, 61880, Note_off_c, 1, 66, 0
2, 61880, Note_off_c, 1, 75, 0
2, 61960, Note_on_c, 1, 48, 127
2, 61960, Note_on_c, 1, 66, 127
2, 61960, Note_on_c, 1, 75, 127
2, 62120, Note_off_c, 1, 48, 0
2, 62160, Note_on_c, 1, 45, 127
2, 62320, Note_off_c, 1, 45, 0
2, 62360, Note_on_c, 1, 42, 127
2, 62520, Note_off_c, 1, 42, 0
2, 62520, Note_off_c, 1, 66, 0
2, 62520, Note_off_c, 1, 75, 0
2, 62560, Note_on_c, 1, 44, 127
2, 62560, Note_on_c, 1, 71, 127
2, 62560, Note_on_c, 1, 74, 127
2, 62720, Note_off_c, 1, 44, 0
2, 62720, Note_off_c, 1, 71, 0
2, 62720, Note_off_c, 1, 74, 0
2, 62760, Note_on_c, 1, 49, 127
2, 62760, Note_on_c, 1, 71, 127
2, 62760, Note_on_c, 1, 75, 127
2, 62920, Note_off_c, 1, 49, 0
2, 62920, Note_off_c, 1, 71, 0
2, 62920, Note_off_c, 1, 75, 0
2, 62960, Note_on_c, 1, 49, 127
2, 62960, Note_on_c, 1, 73, 127
2, 62960, Note_on_c, 1, 76, 127
2, 63120, Note_off_c, 1, 49, 0
2, 63120, Note_off_c, 1, 73, 0
2, 63120, Note_off_c, 1, 76, 0
2, 63160, Note_on_c, 1, 46, 127
2, 63160, Note_on_c, 1, 70, 127
2, 63160, Note_on_c, 1, 73, 127
2, 63320, Note_off_c, 1, 46, 0
2, 63320, Note_off_c, 1, 70, 0
2, 63320, Note_off_c, 1, 73, 0
2, 63360, Note_on_c, 1, 49, 127
2, 63360, Note_on_c, 1, 67, 127
2, 63360, Note_on_c, 1, 70, 127
2, 63520, Note_off_c, 1, 49, 0
2, 63520, Note_off_c, 1, 67, 0
2, 63520, Note_off_c, 1, 70, 0
2, 63560, Note_on_c, 1, 48, 127
2, 63560, Note_on_c, 1, 68, 127
2, 63560, Note_on_c, 1, 72, 127
2, 63720, Note_off_c, 1, 48, 0
2, 63720, Note_off_c, 1, 68, 0
2, 63720, Note_off_c, 1, 72, 0
2, 63760, Note_on_c, 1, 48, 127
2, 63760, Note_on_c, 1, 72, 127
2, 63760, Note_on_c, 1, 75, 127
2, 63880, Note_off_c, 1, 48, 0
2, 63880, Note_off_c, 1, 72, 0
2, 63880, Note_off_c, 1, 75, 0
2, 63920, Note_on_c, 1, 48, 127
2, 63920, Note_on_c, 1, 72, 127
2, 63920, Note_on_c, 1, 75, 127
2, 63960, Note_off_c, 1, 48, 0
2, 63960, Note_off_c, 1, 72, 0
2, 63960, Note_off_c, 1, 75, 0
2, 64000, Note_on_c, 1, 53, 127
2, 64000, Note_on_c, 1, 70, 127
2, 64000, Note_on_c, 1, 73, 127
2, 64160, Note_off_c, 1, 53, 0
2, 64160, Note_off_c, 1, 70, 0
2, 64160, Note_off_c, 1, 73, 0
2, 64200, Note_on_c, 1, 56, 127
2, 64200, Note_on_c, 1, 68, 127
2, 64200, Note_on_c, 1, 72, 127
2, 64360, Note_off_c, 1, 56, 0
2, 64360, Note_off_c, 1, 68, 0
2, 64360, Note_off_c, 1, 72, 0
2, 64400, Note_on_c, 1, 53, 127
2, 64400, Note_on_c, 1, 73, 127
2, 64400, Note_on_c, 1, 77, 127
2, 64560, Note_off_c, 1, 53, 0
2, 64560, Note_off_c, 1, 73, 0
2, 64560, Note_off_c, 1, 77, 0
2, 64600, Note_on_c, 1, 61, 127
2, 64600, Note_on_c, 1, 75, 127
2, 64600, Note_on_c, 1, 78, 127
2, 64760, Note_off_c, 1, 61, 0
2, 64760, Note_off_c, 1, 75, 0
2, 64760, Note_off_c, 1, 78, 0
2, 64800, Note_on_c, 1, 49, 127
2, 64800, Note_on_c, 1, 73, 127
2, 64800, Note_on_c, 1, 77, 127
2, 64960, Note_off_c, 1, 49, 0
2, 65000, Note_on_c, 1, 56, 127
2, 65160, Note_off_c, 1, 56, 0
2, 65160, Note_off_c, 1, 73, 0
2, 65160, Note_off_c, 1, 77, 0
2, 65200, Note_on_c, 1, 44, 127
2, 65200, Note_on_c, 1, 72, 127
2, 65200, Note_on_c, 1, 75, 127
2, 65360, Note_off_c, 1, 44, 0
2, 65360, Note_off_c, 1, 72, 0
2, 65360, Note_off_c, 1, 75, 0
2, 65400, Note_on_c, 1, 53, 127
2, 65400, Note_on_c, 1, 70, 127
2, 65400, Note_on_c, 1, 73, 127
2, 65560, Note_off_c, 1, 53, 0
2, 65560, Note_off_c, 1, 70, 0
2, 65560, Note_off_c, 1, 73, 0
2, 65600, Note_on_c, 1, 53, 127
2, 65600, Note_on_c, 1, 63, 127
2, 65600, Note_on_c, 1, 72, 127
2, 65760, Note_off_c, 1, 53, 0
2, 65760, Note_off_c, 1, 63, 0
2, 65760, Note_on_c, 1, 69, 127
2, 65800, Note_on_c, 1, 44, 127
2, 65800, Note_on_c, 1, 63, 127
2, 65800, Note_off_c, 1, 69, 0
2, 65920, Note_off_c, 1, 44, 0
2, 65920, Note_off_c, 1, 63, 0
2, 65920, Note_off_c, 1, 72, 0
2, 65960, Note_on_c, 1, 44, 127
2, 65960, Note_on_c, 1, 63, 127
2, 65960, Note_on_c, 1, 72, 127
2, 66000, Note_off_c, 1, 44, 0
2, 66000, Note_off_c, 1, 63, 0
2, 66000, Note_off_c, 1, 72, 0
2, 66040, Note_on_c, 1, 49, 127
2, 66040, Note_on_c, 1, 65, 127
2, 66040, Note_on_c, 1, 73, 127
2, 66200, Note_off_c, 1, 49, 0
2, 66200, Note_off_c, 1, 65, 0
2, 66200, Note_off_c, 1, 73, 0
2, 66240, Note_on_c, 1, 51, 127
2, 66240, Note_on_c, 1, 66, 127
2, 66240, Note_on_c, 1, 70, 127
2, 66600, Note_off_c, 1, 51, 0
2, 66600, Note_off_c, 1, 66, 0
2, 66600, Note_off_c, 1, 70, 0
2, 66640, Note_on_c, 1, 49, 127
2, 66640, Note_on_c, 1, 73, 127
2, 66640, Note_on_c, 1, 77, 127
2, 66800, Note_off_c, 1, 49, 0
2, 66800, Note_off_c, 1, 73, 0
2, 66800, Note_off_c, 1, 77, 0
2, 66840, Note_on_c, 1, 49, 127
2, 66840, Note_on_c, 1, 77, 127
2, 66840, Note_on_c, 1, 80, 127
2, 67000, Note_off_c, 1, 49, 0
2, 67040, Note_on_c, 1, 41, 127
2, 67200, Note_off_c, 1, 41, 0
2, 67200, Note_on_c, 1, 49, 127
2, 67240, Note_off_c, 1, 49, 0
2, 67240, Note_off_c, 1, 77, 0
2, 67240, Note_off_c, 1, 80, 0
2, 67280, Note_on_c, 1, 53, 127
2, 67280, Note_on_c, 1, 77, 127
2, 67280, Note_on_c, 1, 80, 127
2, 67440, Note_off_c, 1, 53, 0
2, 67440, Note_off_c, 1, 77, 0
2, 67440, Note_off_c, 1, 80, 0
2, 67480, Note_on_c, 1, 49, 127
2, 67480, Note_on_c, 1, 75, 127
2, 67480, Note_on_c, 1, 78, 127
2, 67640, Note_off_c, 1, 49, 0
2, 67640, Note_off_c, 1, 75, 0
2, 67640, Note_off_c, 1, 78, 0
2, 67680, Note_on_c, 1, 73, 127
2, 67680, Note_on_c, 1, 77, 127
2, 67880, Note_on_c, 1, 56, 127
2, 67960, Note_off_c, 1, 56, 0
2, 67960, Note_off_c, 1, 73, 0
2, 67960, Note_off_c, 1, 77, 0
2, 68000, Note_on_c, 1, 56, 127
2, 68000, Note_on_c, 1, 73, 127
2, 68000, Note_on_c, 1, 77, 127
2, 68080, Note_off_c, 1, 56, 0
2, 68080, Note_off_c, 1, 73, 0
2, 68080, Note_off_c, 1, 77, 0
2, 68120, Note_on_c, 1, 49, 127
2, 68120, Note_on_c, 1, 75, 127
2, 68120, Note_on_c, 1, 78, 127
2, 68280, Note_off_c, 1, 49, 0
2, 68320, Note_on_c, 1, 51, 127
2, 68440, Note_off_c, 1, 75, 0
2, 68440, Note_off_c, 1, 78, 0
2, 68480, Note_off_c, 1, 51, 0
2, 68480, Note_on_c, 1, 60, 127
2, 68480, Note_on_c, 1, 75, 127
2, 68480, Note_on_c, 1, 77, 127
2, 68640, Note_off_c, 1, 60, 0
2, 68640, Note_off_c, 1, 75, 0
2, 68640, Note_off_c, 1, 77, 0
2, 68680, Note_on_c, 1, 37, 127
2, 68680, Note_on_c, 1, 65, 127
2, 68680, Note_on_c, 1, 73, 127
2, 68840, Note_off_c, 1, 37, 0
2, 68880, Note_on_c, 1, 37, 127
2, 69040, Note_off_c, 1, 37, 0
2, 69080, Note_on_c, 1, 44, 127
2, 69240, Note_off_c, 1, 44, 0
2, 69240, Note_off_c, 1, 65, 0
2, 69240, Note_off_c, 1, 73, 0
2, 69280, Note_on_c, 1, 44, 127
2, 69280, Note_on_c, 1, 63, 127
2, 69280, Note_on_c, 1, 72, 127
2, 69440, Note_off_c, 1, 44, 0
2, 69480, Note_on_c, 1, 44, 127
2, 69640, Note_off_c, 1, 44, 0
2, 69640, Note_off_c, 1, 63, 0
2, 69640, Note_on_c, 1, 67, 127
2, 69680, Note_on_c, 1, 43, 127
2, 69680, Note_off_c, 1, 72, 0
2, 69680, Note_on_c, 1, 75, 127
2, 69840, Note_off_c, 1, 43, 0
2, 69840, Note_off_c, 1, 67, 0
2, 69840, Note_off_c, 1, 75, 0
2, 69880, Note_on_c, 1, 44, 127
2, 69880, Note_on_c, 1, 68, 127
2, 69880, Note_on_c, 1, 72, 127
2, 69960, Note_off_c, 1, 44, 0
2, 69960, Note_off_c, 1, 68, 0
2, 69960, Note_off_c, 1, 72, 0
2, 70000, Note_on_c, 1, 44, 127
2, 70000, Note_on_c, 1, 68, 127
2, 70000, Note_on_c, 1, 72, 127
2, 70080, Note_off_c, 1, 44, 0
2, 70120, Note_on_c, 1, 51, 127
2, 70120, Note_on_c, 1, 56, 127
2, 70120, Note_off_c, 1, 68, 0
2, 70120, Note_on_c, 1, 71, 127
2, 70120, Note_off_c, 1, 72, 0
2, 70120, Note_on_c, 1, 78, 127
2, 70280, Note_off_c, 1, 51, 0
2, 70280, Note_off_c, 1, 56, 0
2, 70280, Note_off_c, 1, 71, 0
2, 70280, Note_off_c, 1, 78, 0
2, 70320, Note_on_c, 1, 49, 127
2, 70320, Note_on_c, 1, 53, 127
2, 70320, Note_on_c, 1, 70, 127
2, 70480, Note_off_c, 1, 70, 0
2, 70520, Note_on_c, 1, 68, 127
2, 70680, Note_off_c, 1, 49, 0
2, 70680, Note_off_c, 1, 53, 0
2, 70680, Note_off_c, 1, 68, 0
2, 70720, Note_on_c, 1, 65, 127
2, 70720, Note_on_c, 1, 73, 127
2, 70880, Note_off_c, 1, 65, 0
2, 70880, Note_off_c, 1, 73, 0
2, 70920, Note_on_c, 1, 60, 127
2, 70920, Note_on_c, 1, 68, 127
2, 70920, Note_on_c, 1, 75, 127
2, 71080, Note_off_c, 1, 60, 0
2, 71080, Note_off_c, 1, 68, 0
2, 71080, Note_off_c, 1, 75, 0
2, 71120, Note_on_c, 1, 58, 127
2, 71120, Note_on_c, 1, 65, 127
2, 71120, Note_on_c, 1, 73, 127
2, 71480, Note_off_c, 1, 58, 0
2, 71480, Note_off_c, 1, 65, 0
2, 71480, Note_off_c, 1, 73, 0
2, 71520, Note_on_c, 1, 51, 127
2, 71520, Note_on_c, 1, 67, 127
2, 71520, Note_on_c, 1, 70, 127
2, 71680, Note_off_c, 1, 51, 0
2, 71720, Note_on_c, 1, 53, 127
2, 71880, Note_off_c, 1, 53, 0
2, 71880, Note_off_c, 1, 67, 0
2, 71880, Note_off_c, 1, 70, 0
2, 71960, Note_on_c, 1, 51, 127
2, 71960, Note_on_c, 1, 67, 127
2, 71960, Note_on_c, 1, 70, 127
2, 72120, Note_off_c, 1, 51, 0
2, 72120, Note_off_c, 1, 67, 0
2, 72120, Note_on_c, 1, 68, 127
2, 72120, Note_off_c, 1, 70, 0
2, 72120, Note_on_c, 1, 72, 127
2, 72320, Note_off_c, 1, 68, 0
2, 72320, Note_off_c, 1, 72, 0
2, 72360, Note_on_c, 1, 44, 127
2, 72360, Note_on_c, 1, 68, 127
2, 72360, Note_on_c, 1, 72, 127
2, 72520, Note_off_c, 1, 44, 0
2, 72560, Note_on_c, 1, 49, 127
2, 72720, Note_off_c, 1, 49, 0
2, 72720, Note_off_c, 1, 68, 0
2, 72720, Note_off_c, 1, 72, 0
2, 72760, Note_on_c, 1, 48, 127
2, 72760, Note_on_c, 1, 66, 127
2, 72760, Note_on_c, 1, 75, 127
2, 72920, Note_off_c, 1, 48, 0
2, 72960, Note_on_c, 1, 48, 127
2, 73120, Note_off_c, 1, 48, 0
2, 73160, Note_on_c, 1, 45, 127
2, 73320, Note_off_c, 1, 45, 0
2, 73360, Note_on_c, 1, 48, 127
2, 73520, Note_off_c, 1, 48, 0
2, 73560, Note_on_c, 1, 48, 127
2, 73720, Note_off_c, 1, 48, 0
2, 73720, Note_off_c, 1, 75, 0
2, 73760, Note_on_c, 1, 46, 127
2, 73760, Note_on_c, 1, 75, 127
2, 73840, Note_off_c, 1, 46, 0
2, 73840, Note_off_c, 1, 66, 0
2, 73840, Note_off_c, 1, 75, 0
2, 73880, Note_on_c, 1, 46, 127
2, 73880, Note_on_c, 1, 66, 127
2, 73880, Note_on_c, 1, 75, 127
2, 73960, Note_off_c, 1, 46, 0
2, 74000, Note_on_c, 1, 57, 127
2, 74160, Note_off_c, 1, 57, 0
2, 74200, Note_on_c, 1, 48, 127
2, 74360, Note_off_c, 1, 48, 0
2, 74360, Note_off_c, 1, 75, 0
2, 74400, Note_on_c, 1, 45, 127
2, 74400, Note_on_c, 1, 75, 127
2, 74560, Note_off_c, 1, 45, 0
2, 74600, Note_on_c, 1, 56, 127
2, 74600, Note_on_c, 1, 73, 127
2, 74600, Note_off_c, 1, 75, 0
2, 74760, Note_off_c, 1, 56, 0
2, 74760, Note_off_c, 1, 73, 0
2, 74800, Note_on_c, 1, 49, 127
2, 74800, Note_on_c, 1, 65, 127
2, 74800, Note_off_c, 1, 66, 0
2, 74800, Note_on_c, 1, 73, 127
2, 74960, Note_off_c, 1, 49, 0
2, 74960, Note_off_c, 1, 65, 0
2, 74960, Note_off_c, 1, 73, 0
2, 75000, Note_on_c, 1, 49, 127
2, 75000, Note_on_c, 1, 65, 127
2, 75000, Note_on_c, 1, 72, 127
2, 75160, Note_off_c, 1, 49, 0
2, 75160, Note_off_c, 1, 65, 0
2, 75160, Note_off_c, 1, 72, 0
2, 75200, Note_on_c, 1, 53, 127
2, 75200, Note_on_c, 1, 58, 127
2, 75200, Note_on_c, 1, 67, 127
2, 75360, Note_off_c, 1, 53, 0
2, 75400, Note_on_c, 1, 50, 127
2, 75400, Note_off_c, 1, 58, 0
2, 75400, Note_on_c, 1, 60, 127
2, 75400, Note_off_c, 1, 67, 0
2, 75400, Note_on_c, 1, 68, 127
2, 75560, Note_off_c, 1, 50, 0
2, 75560, Note_off_c, 1, 60, 0
2, 75560, Note_off_c, 1, 68, 0
2, 75600, Note_on_c, 1, 51, 127
2, 75600, Note_on_c, 1, 58, 127
2, 75600, Note_on_c, 1, 60, 127
2, 75600, Note_on_c, 1, 66, 127
2, 75680, Note_on_c, 1, 44, 127
2, 75680, Note_off_c, 1, 51, 0
2, 75680, Note_off_c, 1, 60, 0
2, 75760, Note_off_c, 1, 44, 0
2, 75760, Note_off_c, 1, 58, 0
2, 75800, Note_on_c, 1, 56, 127
2, 75800, Note_on_c, 1, 61, 127
2, 75800, Note_off_c, 1, 66, 0
2, 75800, Note_on_c, 1, 67, 127
2, 75840, Note_off_c, 1, 56, 0
2, 75840, Note_off_c, 1, 61, 0
2, 75840, Note_off_c, 1, 67, 0
2, 75880, Note_on_c, 1, 56, 127
2, 75880, Note_on_c, 1, 61, 127
2, 75880, Note_on_c, 1, 67, 127
2, 76000, Note_off_c, 1, 67, 0
2, 76040, Note_on_c, 1, 51, 127
2, 76040, Note_off_c, 1, 56, 0
2, 76040, Note_on_c, 1, 59, 127
2, 76040, Note_off_c, 1, 61, 0
2, 76040, Note_on_c, 1, 67, 127
2, 76200, Note_off_c, 1, 51, 0
2, 76200, Note_off_c, 1, 59, 0
2, 76200, Note_on_c, 1, 63, 127
2, 76200, Note_off_c, 1, 67, 0
2, 76240, Note_on_c, 1, 44, 127
2, 76240, Note_on_c, 1, 61, 127
2, 76240, Note_off_c, 1, 63, 0
2, 76240, Note_on_c, 1, 65, 127
2, 76400, Note_off_c, 1, 44, 0
2, 76400, Note_off_c, 1, 65, 0
2, 76440, Note_on_c, 1, 51, 127
2, 76440, Note_on_c, 1, 70, 127
2, 76600, Note_off_c, 1, 51, 0
2, 76600, Note_off_c, 1, 61, 0
2, 76600, Note_off_c, 1, 70, 0
2, 76640, Note_on_c, 1, 56, 127
2, 76640, Note_on_c, 1, 65, 127
2, 76640, Note_on_c, 1, 68, 127
2, 76800, Note_off_c, 1, 56, 0
2, 76800, Note_off_c, 1, 65, 0
2, 76840, Note_on_c, 1, 51, 127
2, 76840, Note_on_c, 1, 61, 127
2, 77000, Note_off_c, 1, 51, 0
2, 77000, Note_off_c, 1, 61, 0
2, 77000, Note_off_c, 1, 68, 0
2, 77040, Note_on_c, 1, 44, 127
2, 77040, Note_on_c, 1, 60, 127
2, 77040, Note_on_c, 1, 68, 127
2, 77200, Note_off_c, 1, 60, 0
2, 77240, Note_on_c, 1, 41, 127
2, 77240, Note_off_c, 1, 44, 0
2, 77240, Note_on_c, 1, 56, 127
2, 77400, Note_off_c, 1, 41, 0
2, 77400, Note_off_c, 1, 56, 0
2, 77400, Note_off_c, 1, 68, 0
2, 77440, Note_on_c, 1, 41, 127
2, 77440, Note_on_c, 1, 62, 127
2, 77440, Note_on_c, 1, 68, 127
2, 77600, Note_off_c, 1, 41, 0
2, 77600, Note_off_c, 1, 62, 0
2, 77600, Note_on_c, 1, 65, 127
2, 77640, Note_on_c, 1, 44, 127
2, 77800, Note_off_c, 1, 44, 0
2, 77800, Note_off_c, 1, 65, 0
2, 77800, Note_off_c, 1, 68, 0
2, 77840, Note_on_c, 1, 36, 127
2, 77840, Note_on_c, 1, 63, 127
2, 77960, Note_off_c, 1, 36, 0
2, 77960, Note_off_c, 1, 63, 0
2, 78000, Note_on_c, 1, 36, 127
2, 78000, Note_on_c, 1, 63, 127
2, 78040, Note_off_c, 1, 36, 0
2, 78080, Note_on_c, 1, 51, 127
2, 78080, Note_on_c, 1, 68, 127
2, 78240, Note_off_c, 1, 51, 0
2, 78240, Note_off_c, 1, 68, 0
2, 78280, Note_on_c, 1, 37, 127
2, 78280, Note_off_c, 1, 63, 0
2, 78280, Note_on_c, 1, 68, 127
2, 78280, Note_on_c, 1, 72, 127
2, 78320, Note_off_c, 1, 37, 0
2, 78320, Note_on_c, 1, 53, 127
2, 78320, Note_on_c, 1, 60, 127
2, 78320, Note_on_c, 1, 67, 127
2, 78320, Note_off_c, 1, 68, 0
2, 78320, Note_on_c, 1, 69, 127
2, 78320, Note_on_c, 1, 79, 127
2, 78360, Note_on_c, 1, 44, 127
2, 78360, Note_off_c, 1, 53, 0
2, 78360, Note_off_c, 1, 60, 0
2, 78360, Note_off_c, 1, 67, 0
2, 78360, Note_off_c, 1, 69, 0
2, 78360, Note_on_c, 1, 70, 127
2, 78360, Note_off_c, 1, 72, 0
2, 78360, Note_on_c, 1, 73, 127
2, 78360, Note_off_c, 1, 79, 0
2, 78400, Note_off_c, 1, 44, 0
2, 78400, Note_on_c, 1, 49, 127
2, 78400, Note_off_c, 1, 70, 0
2, 78400, Note_on_c, 1, 72, 127
2, 78400, Note_off_c, 1, 73, 0
2, 78400, Note_on_c, 1, 75, 127
2, 78440, Note_off_c, 1, 49, 0
2, 78440, Note_off_c, 1, 72, 0
2, 78440, Note_off_c, 1, 75, 0
2, 78480, Note_on_c, 1, 39, 127
2, 78480, Note_on_c, 1, 66, 127
2, 78480, Note_on_c, 1, 75, 127
2, 78640, Note_off_c, 1, 39, 0
2, 78680, Note_on_c, 1, 46, 127
2, 78840, Note_off_c, 1, 46, 0
2, 78880, Note_on_c, 1, 56, 127
2, 79040, Note_off_c, 1, 56, 0
2, 79040, Note_off_c, 1, 75, 0
2, 79080, Note_on_c, 1, 48, 127
2, 79080, Note_on_c, 1, 75, 127
2, 79240, Note_off_c, 1, 48, 0
2, 79280, Note_on_c, 1, 48, 127
2, 79440, Note_off_c, 1, 48, 0
2, 79440, Note_off_c, 1, 66, 0
2, 79440, Note_off_c, 1, 75, 0
2, 79480, Note_on_c, 1, 49, 127
2, 79480, Note_on_c, 1, 65, 127
2, 79480, Note_on_c, 1, 73, 127
2, 79640, Note_off_c, 1, 65, 0
2, 79680, Note_on_c, 1, 61, 127
2, 79840, Note_off_c, 1, 61, 0
2, 79880, Note_on_c, 1, 65, 127
2, 80040, Note_off_c, 1, 49, 0
2, 80040, Note_off_c, 1, 65, 0
2, 80040, Note_off_c, 1, 73, 0
2, 80080, Note_on_c, 1, 49, 127
2, 80080, Note_on_c, 1, 73, 127
2, 80120, Note_on_c, 1, 53, 127
2, 80280, Note_off_c, 1, 53, 0
2, 80320, Note_on_c, 1, 56, 127
2, 80480, Note_off_c, 1, 56, 0
2, 80520, Note_on_c, 1, 61, 127
2, 80680, Note_off_c, 1, 61, 0
2, 80720, Note_on_c, 1, 63, 127
2, 80880, Note_off_c, 1, 63, 0
2, 80920, Note_on_c, 1, 61, 127
2, 81080, Note_off_c, 1, 61, 0
2, 81080, Note_off_c, 1, 73, 0
2, 81120, Note_on_c, 1, 65, 127
2, 81120, Note_on_c, 1, 73, 127
2, 81280, Note_off_c, 1, 65, 0
2, 81280, Note_off_c, 1, 73, 0
2, 81320, Note_on_c, 1, 68, 127
2, 81320, Note_on_c, 1, 73, 127
2, 81480, Note_off_c, 1, 49, 0
2, 81480, Note_off_c, 1, 68, 0
2, 81480, Note_off_c, 1, 73, 0
2, 81520, Note_on_c, 1, 44, 127
2, 81680, Note_off_c, 1, 44, 0
2, 81720, Note_on_c, 1, 51, 127
2, 81880, Note_off_c, 1, 51, 0
2, 81920, Note_on_c, 1, 53, 127
2, 82080, Note_off_c, 1, 53, 0
2, 82160, Note_on_c, 1, 49, 127
2, 82160, Note_on_c, 1, 82, 127
2, 82320, Note_off_c, 1, 82, 0
2, 82360, Note_on_c, 1, 77, 127
2, 82520, Note_off_c, 1, 49, 0
2, 82520, Note_off_c, 1, 77, 0
2, 82560, Note_on_c, 1, 53, 127
2, 82560, Note_on_c, 1, 75, 127
2, 82720, Note_off_c, 1, 75, 0
2, 82760, Note_on_c, 1, 71, 127
2, 82920, Note_off_c, 1, 53, 0
2, 82920, Note_off_c, 1, 71, 0
2, 82960, Note_on_c, 1, 49, 127
2, 82960, Note_on_c, 1, 65, 127
2, 83120, Note_off_c, 1, 65, 0
2, 83160, Note_on_c, 1, 68, 127
2, 83320, Note_off_c, 1, 49, 0
2, 83320, Note_off_c, 1, 68, 0
2, 83360, Note_on_c, 1, 32, 127
2, 83360, Note_on_c, 1, 70, 127
2, 83520, Note_off_c, 1, 32, 0
2, 83560, Note_on_c, 1, 63, 127
2, 83720, Note_off_c, 1, 70, 0
2, 83760, Note_on_c, 1, 73, 127
2, 83920, Note_off_c, 1, 73, 0
2, 83960, Note_on_c, 1, 75, 127
2, 84120, Note_off_c, 1, 63, 0
2, 84120, Note_off_c, 1, 75, 0
2, 84160, Note_on_c, 1, 54, 127
2, 84160, Note_on_c, 1, 82, 127
2, 84320, Note_off_c, 1, 54, 0
2, 84320, Note_off_c, 1, 82, 0
2, 84360, Note_on_c, 1, 54, 127
2, 84400, Note_on_c, 1, 78, 127
2, 84560, Note_off_c, 1, 54, 0
2, 84560, Note_off_c, 1, 78, 0
2, 84600, Note_on_c, 1, 49, 127
2, 84600, Note_on_c, 1, 77, 127
2, 84760, Note_off_c, 1, 77, 0
2, 84800, Note_on_c, 1, 80, 127
2, 84960, Note_off_c, 1, 49, 0
2, 84960, Note_off_c, 1, 80, 0
2, 85000, Note_on_c, 1, 54, 127
2, 85000, Note_on_c, 1, 82, 127
2, 85080, Note_off_c, 1, 82, 0
2, 85120, Note_on_c, 1, 85, 127
2, 85160, Note_off_c, 1, 54, 0
2, 85160, Note_on_c, 1, 82, 127
2, 85160, Note_off_c, 1, 85, 0
2, 85200, Note_on_c, 1, 63, 127
2, 85360, Note_off_c, 1, 63, 0
2, 85360, Note_off_c, 1, 82, 0
2, 85400, Note_on_c, 1, 56, 127
2, 85400, Note_on_c, 1, 81, 127
2, 85560, Note_off_c, 1, 81, 0
2, 85600, Note_on_c, 1, 80, 127
2, 85760, Note_off_c, 1, 56, 0
2, 85760, Note_off_c, 1, 80, 0
2, 85800, Note_on_c, 1, 60, 127
2, 85800, Note_on_c, 1, 78, 127
2, 86000, Note_off_c, 1, 60, 0
2, 86000, Note_off_c, 1, 78, 0
2, 86040, Note_on_c, 1, 78, 127
2, 86200, Note_off_c, 1, 78, 0
2, 86280, Note_on_c, 1, 49, 127
2, 86280, Note_on_c, 1, 85, 127
2, 86440, Note_off_c, 1, 85, 0
2, 86480, Note_on_c, 1, 80, 127
2, 86640, Note_off_c, 1, 49, 0
2, 86640, Note_off_c, 1, 80, 0
2, 86680, Note_on_c, 1, 54, 127
2, 86680, Note_on_c, 1, 78, 127
2, 86680, Note_on_c, 1, 80, 127
2, 86720, Note_off_c, 1, 80, 0
2, 87040, Note_off_c, 1, 54, 0
2, 87080, Note_on_c, 1, 54, 127
2, 87440, Note_off_c, 1, 54, 0
2, 87480, Note_on_c, 1, 70, 127
2, 87640, Note_off_c, 1, 70, 0
2, 87680, Note_on_c, 1, 49, 127
2, 87840, Note_off_c, 1, 49, 0
2, 87840, Note_off_c, 1, 78, 0
2, 87880, Note_on_c, 1, 58, 127
2, 87880, Note_on_c, 1, 77, 127
2, 88040, Note_off_c, 1, 58, 0
2, 88080, Note_on_c, 1, 66, 127
2, 88240, Note_off_c, 1, 66, 0
2, 88240, Note_off_c, 1, 77, 0
2, 88320, Note_on_c, 1, 42, 127
2, 88320, Note_on_c, 1, 80, 127
2, 88680, Note_off_c, 1, 42, 0
2, 88680, Note_off_c, 1, 80, 0
2, 88720, Note_on_c, 1, 66, 127
2, 88720, Note_on_c, 1, 73, 127
2, 88880, Note_off_c, 1, 66, 0
2, 88880, Note_off_c, 1, 73, 0
2, 88920, Note_on_c, 1, 63, 127
2, 89080, Note_off_c, 1, 63, 0
2, 89120, Note_on_c, 1, 66, 127
2, 89120, Note_on_c, 1, 73, 127
2, 89280, Note_off_c, 1, 66, 0
2, 89320, Note_on_c, 1, 58, 127
2, 89480, Note_off_c, 1, 58, 0
2, 89520, Note_on_c, 1, 61, 127
2, 89680, Note_off_c, 1, 61, 0
2, 89720, Note_on_c, 1, 70, 127
2, 89880, Note_off_c, 1, 70, 0
2, 89920, Note_on_c, 1, 61, 127
2, 90080, Note_off_c, 1, 61, 0
2, 90120, Note_on_c, 1, 66, 127
2, 90280, Note_off_c, 1, 66, 0
2, 90320, Note_off_c, 1, 73, 0
2, 90360, Note_on_c, 1, 73, 127
2, 90360, Note_on_c, 1, 78, 127
2, 90520, Note_off_c, 1, 78, 0
2, 90560, Note_on_c, 1, 56, 127
2, 90720, Note_off_c, 1, 56, 0
2, 90760, Note_on_c, 1, 61, 127
2, 90920, Note_off_c, 1, 61, 0
2, 90960, Note_on_c, 1, 66, 127
2, 91120, Note_off_c, 1, 66, 0
2, 91120, Note_off_c, 1, 73, 0
2, 91160, Note_on_c, 1, 61, 127
2, 91160, Note_on_c, 1, 75, 127
2, 91320, Note_off_c, 1, 61, 0
2, 91320, Note_off_c, 1, 75, 0
2, 91360, Note_on_c, 1, 56, 127
2, 91720, Note_off_c, 1, 56, 0
2, 91760, Note_on_c, 1, 61, 127
2, 91920, Note_off_c, 1, 61, 0
2, 91960, Note_on_c, 1, 75, 127
2, 92360, Note_off_c, 1, 75, 0
2, 92400, Note_on_c, 1, 56, 127
2, 92400, Note_on_c, 1, 75, 127
2, 92560, Note_off_c, 1, 75, 0
2, 92600, Note_on_c, 1, 73, 127
2, 92760, Note_off_c, 1, 56, 0
2, 92760, Note_off_c, 1, 73, 0
2, 92800, Note_on_c, 1, 85, 127
2, 92960, Note_off_c, 1, 85, 0
2, 93000, Note_on_c, 1, 84, 127
2, 93160, Note_off_c, 1, 84, 0
2, 93200, Note_on_c, 1, 82, 127
2, 93360, Note_off_c, 1, 82, 0
2, 93400, Note_on_c, 1, 80, 127
2, 93560, Note_off_c, 1, 80, 0
2, 93600, Note_on_c, 1, 79, 127
2, 93960, Note_off_c, 1, 79, 0
2, 94000, Note_on_c, 1, 79, 127
2, 94160, Note_off_c, 1, 79, 0
2, 94200, Note_on_c, 1, 75, 127
2, 94360, Note_off_c, 1, 75, 0
2, 94440, Note_on_c, 1, 73, 127
2, 94600, Note_off_c, 1, 73, 0
2, 94640, Note_on_c, 1, 75, 127
2, 94800, Note_off_c, 1, 75, 0
2, 94840, Note_on_c, 1, 73, 127
2, 95000, Note_off_c, 1, 73, 0
2, 95040, Note_on_c, 1, 67, 127
2, 95200, Note_off_c, 1, 67, 0
2, 95240, Note_on_c, 1, 75, 127
2, 95400, Note_off_c, 1, 75, 0
2, 95440, Note_on_c, 1, 65, 127
2, 95440, Note_on_c, 1, 74, 127
2, 95600, Note_off_c, 1, 65, 0
2, 95600, Note_off_c, 1, 74, 0
2, 95640, Note_on_c, 1, 61, 127
2, 95640, Note_on_c, 1, 73, 127
2, 95800, Note_off_c, 1, 61, 0
2, 95800, Note_off_c, 1, 73, 0
2, 95840, Note_on_c, 1, 68, 127
2, 95840, Note_on_c, 1, 75, 127
2, 96000, Note_off_c, 1, 68, 0
2, 96000, Note_off_c, 1, 75, 0
2, 96040, Note_on_c, 1, 68, 127
2, 96200, Note_off_c, 1, 68, 0
2, 96240, Note_on_c, 1, 66, 127
2, 96240, Note_on_c, 1, 74, 127
2, 96400, Note_off_c, 1, 66, 0
2, 96400, Note_off_c, 1, 74, 0
2, 96480, Note_on_c, 1, 68, 127
2, 96640, Note_off_c, 1, 68, 0
2, 96680, Note_on_c, 1, 65, 127
2, 96680, Note_on_c, 1, 73, 127
2, 96840, Note_off_c, 1, 65, 0
2, 96840, Note_off_c, 1, 73, 0
2, 96880, Note_on_c, 1, 72, 127
2, 97040, Note_off_c, 1, 72, 0
2, 97080, Note_on_c, 1, 66, 127
2, 97080, Note_on_c, 1, 81, 127
2, 97240, Note_off_c, 1, 66, 0
2, 97240, Note_off_c, 1, 81, 0
2, 97280, Note_on_c, 1, 68, 127
2, 97440, Note_off_c, 1, 68, 0
2, 97480, Note_on_c, 1, 65, 127
2, 97480, Note_on_c, 1, 92, 127
2, 97640, Note_off_c, 1, 65, 0
2, 97640, Note_off_c, 1, 92, 0
2, 97680, Note_on_c, 1, 68, 127
2, 97840, Note_off_c, 1, 68, 0
2, 97880, Note_on_c, 1, 60, 127
2, 97880, Note_on_c, 1, 87, 127
2, 98040, Note_off_c, 1, 60, 0
2, 98040, Note_off_c, 1, 87, 0
2, 98080, Note_on_c, 1, 67, 127
2, 98240, Note_off_c, 1, 67, 0
2, 98280, Note_on_c, 1, 65, 127
2, 98280, Note_on_c, 1, 88, 127
2, 98440, Note_off_c, 1, 65, 0
2, 98440, Note_off_c, 1, 88, 0
2, 98520, Note_on_c, 1, 67, 127
2, 98680, Note_off_c, 1, 67, 0
2, 98720, Note_on_c, 1, 61, 127
2, 98720, Note_on_c, 1, 89, 127
2, 98880, Note_off_c, 1, 61, 0
2, 98880, Note_off_c, 1, 89, 0
2, 98920, Note_on_c, 1, 79, 127
2, 99080, Note_off_c, 1, 79, 0
2, 99120, Note_on_c, 1, 61, 127
2, 99120, Note_on_c, 1, 83, 127
2, 99280, Note_off_c, 1, 61, 0
2, 99280, Note_off_c, 1, 83, 0
2, 99320, Note_on_c, 1, 67, 127
2, 99480, Note_off_c, 1, 67, 0
2, 99520, Note_on_c, 1, 61, 127
2, 99520, Note_on_c, 1, 89, 127
2, 99680, Note_off_c, 1, 61, 0
2, 99680, Note_off_c, 1, 89, 0
2, 99720, Note_on_c, 1, 68, 127
2, 99880, Note_off_c, 1, 68, 0
2, 99920, Note_on_c, 1, 61, 127
2, 99920, Note_on_c, 1, 85, 127
2, 100080, Note_off_c, 1, 61, 0
2, 100080, Note_off_c, 1, 85, 0
2, 100120, Note_on_c, 1, 68, 127
2, 100280, Note_off_c, 1, 68, 0
2, 100320, Note_on_c, 1, 61, 127
2, 100320, Note_on_c, 1, 80, 127
2, 100480, Note_off_c, 1, 61, 0
2, 100520, Note_on_c, 1, 65, 127
2, 100680, Note_off_c, 1, 65, 0
2, 100720, Note_off_c, 1, 80, 0
2, 100760, Note_on_c, 1, 68, 127
2, 100760, Note_on_c, 1, 80, 127
2, 100920, Note_off_c, 1, 68, 0
2, 100960, Note_on_c, 1, 65, 127
2, 101120, Note_off_c, 1, 65, 0
2, 101160, Note_on_c, 1, 68, 127
2, 101320, Note_off_c, 1, 68, 0
2, 101320, Note_off_c, 1, 80, 0
2, 101360, Note_on_c, 1, 56, 127
2, 101560, Note_on_c, 1, 77, 127
2, 101720, Note_off_c, 1, 56, 0
2, 101720, Note_off_c, 1, 77, 0
2, 101760, Note_on_c, 1, 61, 127
2, 101920, Note_off_c, 1, 61, 0
2, 101960, Note_on_c, 1, 68, 127
2, 102120, Note_off_c, 1, 68, 0
2, 102160, Note_on_c, 1, 61, 127
2, 102160, Note_on_c, 1, 81, 127
2, 102320, Note_off_c, 1, 61, 0
2, 102320, Note_off_c, 1, 81, 0
2, 102360, Note_on_c, 1, 68, 127
2, 102520, Note_off_c, 1, 68, 0
2, 102560, Note_on_c, 1, 57, 127
2, 102720, Note_off_c, 1, 57, 0
2, 102800, Note_on_c, 1, 66, 127
2, 102960, Note_off_c, 1, 66, 0
2, 103000, Note_on_c, 1, 64, 127
2, 103160, Note_off_c, 1, 64, 0
2, 103200, Note_on_c, 1, 62, 127
2, 103200, Note_on_c, 1, 90, 127
2, 103360, Note_off_c, 1, 62, 0
2, 103400, Note_on_c, 1, 69, 127
2, 103560, Note_off_c, 1, 69, 0
2, 103560, Note_off_c, 1, 90, 0
2, 103600, Note_on_c, 1, 69, 127
2, 103600, Note_on_c, 1, 90, 127
2, 103760, Note_off_c, 1, 90, 0
2, 103800, Note_on_c, 1, 90, 127
2, 103960, Note_off_c, 1, 69, 0
2, 103960, Note_off_c, 1, 90, 0
2, 104000, Note_on_c, 1, 62, 127
2, 104000, Note_on_c, 1, 86, 127
2, 104160, Note_off_c, 1, 62, 0
2, 104160, Note_off_c, 1, 86, 0
2, 104200, Note_on_c, 1, 73, 127
2, 104200, Note_on_c, 1, 85, 127
2, 104360, Note_off_c, 1, 73, 0
2, 104360, Note_off_c, 1, 85, 0
2, 104400, Note_on_c, 1, 61, 127
2, 104560, Note_off_c, 1, 61, 0
2, 104600, Note_on_c, 1, 73, 127
2, 104600, Note_on_c, 1, 85, 127
2, 104760, Note_off_c, 1, 73, 0
2, 104760, Note_off_c, 1, 85, 0
2, 104800, Note_on_c, 1, 85, 127
2, 104840, Note_on_c, 1, 58, 127
2, 105000, Note_off_c, 1, 58, 0
2, 105040, Note_on_c, 1, 61, 127
2, 105200, Note_off_c, 1, 61, 0
2, 105200, Note_off_c, 1, 85, 0
2, 105240, Note_on_c, 1, 61, 127
2, 105240, Note_on_c, 1, 83, 127
2, 105400, Note_off_c, 1, 61, 0
2, 105440, Note_on_c, 1, 61, 127
2, 105600, Note_off_c, 1, 61, 0
2, 105640, Note_on_c, 1, 65, 127
2, 105800, Note_off_c, 1, 65, 0
2, 105840, Note_on_c, 1, 56, 127
2, 106000, Note_off_c, 1, 56, 0
2, 106000, Note_off_c, 1, 83, 0
2, 106040, Note_on_c, 1, 63, 127
2, 106040, Note_on_c, 1, 73, 127
2, 106200, Note_off_c, 1, 63, 0
2, 106200, Note_off_c, 1, 73, 0
2, 106240, Note_on_c, 1, 65, 127
2, 106400, Note_off_c, 1, 65, 0
2, 106440, Note_on_c, 1, 61, 127
2, 106600, Note_off_c, 1, 61, 0
2, 106640, Note_on_c, 1, 65, 127
2, 106800, Note_off_c, 1, 65, 0
2, 106880, Note_on_c, 1, 64, 127
2, 106880, Note_on_c, 1, 70, 127
2, 107040, Note_off_c, 1, 64, 0
2, 107040, Note_off_c, 1, 70, 0
2, 107080, Note_on_c, 1, 57, 127
2, 107080, Note_on_c, 1, 64, 127
2, 107080, Note_on_c, 1, 73, 127
2, 107240, Note_off_c, 1, 57, 0
2, 107240, Note_off_c, 1, 64, 0
2, 107240, Note_off_c, 1, 73, 0
2, 107280, Note_on_c, 1, 64, 127
2, 107440, Note_off_c, 1, 64, 0
2, 107480, Note_on_c, 1, 61, 127
2, 107480, Note_on_c, 1, 69, 127
2, 107640, Note_off_c, 1, 61, 0
2, 107640, Note_off_c, 1, 69, 0
2, 107680, Note_on_c, 1, 64, 127
2, 107840, Note_off_c, 1, 64, 0
2, 107880, Note_on_c, 1, 61, 127
2, 107880, Note_on_c, 1, 69, 127
2, 108040, Note_off_c, 1, 61, 0
2, 108040, Note_off_c, 1, 69, 0
2, 108080, Note_on_c, 1, 66, 127
2, 108240, Note_off_c, 1, 66, 0
2, 108280, Note_on_c, 1, 61, 127
2, 108440, Note_off_c, 1, 61, 0
2, 108480, Note_on_c, 1, 65, 127
2, 108640, Note_off_c, 1, 65, 0
2, 108680, Note_on_c, 1, 57, 127
2, 108680, Note_on_c, 1, 73, 127
2, 108840, Note_off_c, 1, 57, 0
2, 108880, Note_off_c, 1, 73, 0
2, 108920, Note_on_c, 1, 64, 127
2, 108920, Note_on_c, 1, 73, 127
2, 109080, Note_off_c, 1, 64, 0
2, 109080, Note_off_c, 1, 73, 0
2, 109120, Note_on_c, 1, 45, 127
2, 109120, Note_on_c, 1, 73, 127
2, 109280, Note_off_c, 1, 45, 0
2, 109320, Note_on_c, 1, 49, 127
2, 109480, Note_off_c, 1, 49, 0
2, 109520, Note_on_c, 1, 57, 127
2, 109680, Note_off_c, 1, 57, 0
2, 109680, Note_off_c, 1, 73, 0
2, 109720, Note_on_c, 1, 61, 127
2, 109880, Note_off_c, 1, 61, 0
2, 109920, Note_on_c, 1, 55, 127
2, 109920, Note_on_c, 1, 76, 127
2, 110080, Note_off_c, 1, 55, 0
2, 110080, Note_off_c, 1, 76, 0
2, 110120, Note_on_c, 1, 61, 127
2, 110280, Note_off_c, 1, 61, 0
2, 110320, Note_on_c, 1, 52, 127
2, 110480, Note_off_c, 1, 52, 0
2, 110520, Note_on_c, 1, 57, 127
2, 110680, Note_off_c, 1, 57, 0
2, 110720, Note_on_c, 1, 52, 127
2, 110720, Note_on_c, 1, 73, 127
2, 110880, Note_off_c, 1, 52, 0
2, 110880, Note_off_c, 1, 73, 0
2, 110960, Note_on_c, 1, 54, 127
2, 110960, Note_on_c, 1, 69, 127
2, 111120, Note_off_c, 1, 54, 0
2, 111120, Note_off_c, 1, 69, 0
2, 111160, Note_on_c, 1, 50, 127
2, 111160, Note_on_c, 1, 78, 127
2, 111320, Note_off_c, 1, 50, 0
2, 111320, Note_off_c, 1, 78, 0
2, 111360, Note_on_c, 1, 57, 127
2, 111360, Note_on_c, 1, 73, 127
2, 111520, Note_off_c, 1, 57, 0
2, 111520, Note_off_c, 1, 73, 0
2, 111560, Note_on_c, 1, 50, 127
2, 111560, Note_on_c, 1, 78, 127
2, 111720, Note_off_c, 1, 50, 0
2, 111720, Note_off_c, 1, 78, 0
2, 111760, Note_on_c, 1, 71, 127
2, 111920, Note_off_c, 1, 71, 0
2, 111960, Note_on_c, 1, 61, 127
2, 112120, Note_off_c, 1, 61, 0
2, 112160, Note_on_c, 1, 71, 127
2, 112320, Note_off_c, 1, 71, 0
2, 112360, Note_on_c, 1, 57, 127
2, 112360, Note_on_c, 1, 72, 127
2, 112520, Note_off_c, 1, 57, 0
2, 112560, Note_on_c, 1, 50, 127
2, 112720, Note_off_c, 1, 50, 0
2, 112760, Note_on_c, 1, 54, 127
2, 112920, Note_off_c, 1, 54, 0
2, 112960, Note_off_c, 1, 72, 0
2, 113000, Note_on_c, 1, 57, 127
2, 113000, Note_on_c, 1, 72, 127
2, 113160, Note_off_c, 1, 57, 0
2, 113200, Note_on_c, 1, 60, 127
2, 113360, Note_off_c, 1, 60, 0
2, 113400, Note_on_c, 1, 54, 127
2, 113560, Note_off_c, 1, 54, 0
2, 113600, Note_on_c, 1, 57, 127
2, 113760, Note_off_c, 1, 57, 0
2, 113800, Note_on_c, 1, 66, 127
2, 113960, Note_off_c, 1, 66, 0
2, 113960, Note_off_c, 1, 72, 0
2, 114000, Note_on_c, 1, 57, 127
2, 114360, Note_off_c, 1, 57, 0
2, 114400, Note_on_c, 1, 54, 127
2, 114560, Note_off_c, 1, 54, 0
2, 114600, Note_on_c, 1, 60, 127
2, 114800, Note_off_c, 1, 60, 0
2, 114840, Note_on_c, 1, 69, 127
2, 115000, Note_off_c, 1, 69, 0
2, 115080, Note_on_c, 1, 60, 127
2, 115240, Note_off_c, 1, 60, 0
2, 115280, Note_on_c, 1, 69, 127
2, 115440, Note_off_c, 1, 69, 0
2, 115480, Note_on_c, 1, 74, 127
2, 115640, Note_off_c, 1, 74, 0
2, 115680, Note_on_c, 1, 77, 127
2, 115840, Note_off_c, 1, 77, 0
2, 115880, Note_on_c, 1, 70, 127
2, 115880, Note_on_c, 1, 78, 127
2, 116040, Note_off_c, 1, 70, 0
2, 116040, Note_off_c, 1, 78, 0
2, 116080, Note_on_c, 1, 80, 127
2, 116240, Note_off_c, 1, 80, 0
2, 116280, Note_on_c, 1, 78, 127
2, 116440, Note_off_c, 1, 78, 0
2, 116480, Note_on_c, 1, 72, 127
2, 116480, Note_on_c, 1, 77, 127
2, 116640, Note_off_c, 1, 72, 0
2, 116640, Note_off_c, 1, 77, 0
2, 116680, Note_on_c, 1, 78, 127
2, 116840, Note_off_c, 1, 78, 0
2, 116880, Note_on_c, 1, 77, 127
2, 117080, Note_on_c, 1, 73, 127
2, 117160, Note_off_c, 1, 73, 0
2, 117160, Note_off_c, 1, 77, 0
2, 117200, Note_on_c, 1, 73, 127
2, 117200, Note_on_c, 1, 77, 127
2, 117280, Note_off_c, 1, 73, 0
2, 117280, Note_off_c, 1, 77, 0
2, 117320, Note_on_c, 1, 77, 127
2, 117480, Note_off_c, 1, 77, 0
2, 117520, Note_on_c, 1, 75, 127
2, 117720, Note_on_c, 1, 65, 127
2, 117880, Note_off_c, 1, 65, 0
2, 117920, Note_on_c, 1, 66, 127
2, 118080, Note_off_c, 1, 66, 0
2, 118080, Note_off_c, 1, 75, 0
2, 118120, Note_on_c, 1, 63, 127
2, 118120, Note_on_c, 1, 72, 127
2, 118280, Note_off_c, 1, 63, 0
2, 118280, Note_off_c, 1, 72, 0
2, 118320, Note_on_c, 1, 73, 127
2, 118480, Note_off_c, 1, 73, 0
2, 118520, Note_on_c, 1, 73, 127
2, 118680, Note_off_c, 1, 73, 0
2, 118720, Note_on_c, 1, 75, 127
2, 118880, Note_off_c, 1, 75, 0
2, 118920, Note_on_c, 1, 61, 127
2, 118920, Note_on_c, 1, 77, 127
2, 119080, Note_off_c, 1, 61, 0
2, 119080, Note_off_c, 1, 77, 0
2, 119120, Note_on_c, 1, 68, 127
2, 119280, Note_off_c, 1, 68, 0
2, 119360, Note_on_c, 1, 67, 127
2, 119360, Note_on_c, 1, 75, 127
2, 119520, Note_off_c, 1, 67, 0
2, 119520, Note_off_c, 1, 75, 0
2, 119560, Note_on_c, 1, 73, 127
2, 119760, Note_on_c, 1, 67, 127
2, 119920, Note_off_c, 1, 67, 0
2, 119960, Note_on_c, 1, 70, 127
2, 119960, Note_off_c, 1, 73, 0
2, 119960, Note_on_c, 1, 75, 127
2, 120000, Note_off_c, 1, 70, 0
2, 120000, Note_off_c, 1, 75, 0
2, 120040, End_track
3, 0, Start_track
3, 0, Title_t, "MIDI"
3, 1536, End_track
0, 0, End_of_file
