0, 0, Header, 1, 3, 192
1, 0, Start_track
1, 0, Time_signature, 4, 2, 24, 8
1, 0, Tempo, 500000
1, 120040, End_track
2, 0, Start_track
2, 0, Text_t, "random instrument: random person i dunno whatev"
2, 0, Title_t, "Track 1"
2, 0, Note_on_c, 1, 34, 127
2, 0, Note_on_c, 1, 53, 127
2, 0, Note_on_c, 1, 56, 127
2, 0, Note_on_c, 1, 62, 127
2, 40, Note_off_c, 1, 34, 0
2, 40, Note_off_c, 1, 53, 0
2, 40, Note_off_c, 1, 56, 0
2, 40, Note_off_c, 1, 62, 0
2, 80, Note_on_c, 1, 31, 127
2, 80, Note_on_c, 1, 43, 127
2, 80, Note_on_c, 1, 59, 127
2, 80, Note_on_c, 1, 65, 127
2, 80, Note_on_c, 1, 67, 127
2, 120, Note_off_c, 1, 31, 0
2, 120, Note_on_c, 1, 34, 127
2, 120, Note_off_c, 1, 43, 0
2, 120, Note_on_c, 1, 53, 127
2, 120, Note_on_c, 1, 56, 127
2, 120, Note_off_c, 1, 59, 0
2, 120, Note_on_c, 1, 62, 127
2, 120, Note_off_c, 1, 65, 0
2, 120, Note_off_c, 1, 67, 0
2, 160, Note_off_c, 1, 34, 0
2, 160, Note_on_c, 1, 43, 127
2, 160, Note_on_c, 1, 47, 127
2, 160, Note_off_c, 1, 53, 0
2, 160, Note_on_c, 1, 55, 127
2, 160, Note_off_c, 1, 56, 0
2, 160, Note_off_c, 1, 62, 0
2, 160, Note_on_c, 1, 79, 127
2, 160, Note_on_c, 1, 83, 127
2, 160, Note_on_c, 1, 87, 127
2, 160, Note_on_c, 1, 91, 127
2, 200, Note_on_c, 1, 34, 127
2, 200, Note_off_c, 1, 43, 0
2, 200, Note_off_c, 1, 47, 0
2, 200, Note_on_c, 1, 53, 127
2, 200, Note_off_c, 1, 55, 0
2, 200, Note_on_c, 1, 56, 127
2, 200, Note_on_c, 1, 62, 127
2, 200, Note_off_c, 1, 79, 0
2, 200, Note_off_c, 1, 83, 0
2, 200, Note_off_c, 1, 87, 0
2, 200, Note_off_c, 1, 91, 0
2, 680, Note_off_c, 1, 34, 0
2, 680, Note_off_c, 1, 53, 0
2, 680, Note_off_c, 1, 56, 0
2, 680, Note_off_c, 1, 62, 0
2, 25480, Note_on_c, 1, 42, 127
2, 26040, Note_off_c, 1, 42, 0
2, 26080, Note_on_c, 1, 41, 127
2, 26160, Note_off_c, 1, 41, 0
2, 26200, Note_on_c, 1, 41, 127
2, 26840, Note_off_c, 1, 41, 0
2, 26920, Note_on_c, 1, 42, 127
2, 27240, Note_off_c, 1, 42, 0
2, 30640, Note_on_c, 1, 43, 127
2, 31400, Note_off_c, 1, 43, 0
2, 34360, Note_on_c, 1, 58, 127
2, 34880, Note_off_c, 1, 58, 0
2, 34920, Note_on_c, 1, 58, 127
2, 35520, Note_off_c, 1, 58, 0
2, 35560, Note_on_c, 1, 58, 127
2, 35640, Note_off_c, 1, 58, 0
2, 35640, Note_on_c, 1, 59, 127
2, 35680, Note_on_c, 1, 58, 127
2, 35680, Note_off_c, 1, 59, 0
2, 35880, Note_off_c, 1, 58, 0
2, 35920, Note_on_c, 1, 55, 127
2, 36280, Note_off_c, 1, 55, 0
2, 36320, Note_on_c, 1, 58, 127
2, 36640, Note_off_c, 1, 58, 0
2, 36720, Note_on_c, 1, 55, 127
2, 37240, Note_off_c, 1, 55, 0
2, 37280, Note_on_c, 1, 55, 127
2, 37520, Note_off_c, 1, 55, 0
2, 37560, Note_on_c, 1, 53, 127
2, 38280, Note_off_c, 1, 53, 0
2, 38320, Note_on_c, 1, 58, 127
2, 38680, Note_off_c, 1, 58, 0
2, 38720, Note_on_c, 1, 62, 127
2, 39480, Note_off_c, 1, 62, 0
2, 39560, Note_on_c, 1, 65, 127
2, 40680, Note_off_c, 1, 65, 0
2, 40720, Note_on_c, 1, 61, 127
2, 41080, Note_off_c, 1, 61, 0
2, 41120, Note_on_c, 1, 62, 127
2, 41480, Note_off_c, 1, 62, 0
2, 41560, Note_on_c, 1, 58, 127
2, 41920, Note_off_c, 1, 58, 0
2, 41960, Note_on_c, 1, 53, 127
2, 42320, Note_off_c, 1, 53, 0
2, 42360, Note_on_c, 1, 53, 127
2, 42720, Note_off_c, 1, 53, 0
2, 42760, Note_on_c, 1, 58, 127
2, 43120, Note_off_c, 1, 58, 0
2, 43160, Note_on_c, 1, 62, 127
2, 43480, Note_off_c, 1, 62, 0
2, 43520, Note_on_c, 1, 58, 127
2, 43720, Note_off_c, 1, 58, 0
2, 43760, Note_on_c, 1, 58, 127
2, 43880, Note_off_c, 1, 58, 0
2, 43920, Note_on_c, 1, 55, 127
2, 44280, Note_off_c, 1, 55, 0
2, 44320, Note_on_c, 1, 46, 127
2, 44640, Note_off_c, 1, 46, 0
2, 44720, Note_on_c, 1, 46, 127
2, 45040, Note_off_c, 1, 46, 0
2, 45120, Note_on_c, 1, 53, 127
2, 45480, Note_off_c, 1, 53, 0
2, 45520, Note_on_c, 1, 58, 127
2, 45720, Note_off_c, 1, 58, 0
2, 45760, Note_on_c, 1, 58, 127
2, 45880, Note_off_c, 1, 58, 0
2, 45920, Note_on_c, 1, 53, 127
2, 46280, Note_off_c, 1, 53, 0
2, 46320, Note_on_c, 1, 55, 127
2, 46680, Note_off_c, 1, 55, 0
2, 46720, Note_on_c, 1, 58, 127
2, 47080, Note_off_c, 1, 58, 0
2, 47120, Note_on_c, 1, 53, 127
2, 47480, Note_off_c, 1, 53, 0
2, 47520, Note_on_c, 1, 46, 127
2, 47840, Note_off_c, 1, 46, 0
2, 47880, Note_on_c, 1, 46, 127
2, 47920, Note_off_c, 1, 46, 0
2, 47960, Note_on_c, 1, 46, 127
2, 48320, Note_off_c, 1, 46, 0
2, 48360, Note_on_c, 1, 58, 127
2, 48720, Note_off_c, 1, 58, 0
2, 48760, Note_on_c, 1, 53, 127
2, 49120, Note_off_c, 1, 53, 0
2, 49160, Note_on_c, 1, 58, 127
2, 49520, Note_off_c, 1, 58, 0
2, 49560, Note_on_c, 1, 53, 127
2, 49880, Note_off_c, 1, 53, 0
2, 49960, Note_on_c, 1, 50, 127
2, 50320, Note_off_c, 1, 50, 0
2, 50360, Note_on_c, 1, 46, 127
2, 50720, Note_off_c, 1, 46, 0
2, 50760, Note_on_c, 1, 53, 127
2, 51120, Note_off_c, 1, 53, 0
2, 51160, Note_on_c, 1, 58, 127
2, 51480, Note_off_c, 1, 58, 0
2, 51520, Note_on_c, 1, 53, 127
2, 51880, Note_off_c, 1, 53, 0
2, 51920, Note_on_c, 1, 58, 127
2, 52120, Note_off_c, 1, 58, 0
2, 52160, Note_on_c, 1, 58, 127
2, 52280, Note_off_c, 1, 58, 0
2, 52320, Note_on_c, 1, 58, 127
2, 52680, Note_off_c, 1, 58, 0
2, 52720, Note_on_c, 1, 55, 127
2, 53080, Note_off_c, 1, 55, 0
2, 53120, Note_on_c, 1, 58, 127
2, 53480, Note_off_c, 1, 58, 0
2, 53520, Note_on_c, 1, 53, 127
2, 53840, Note_off_c, 1, 53, 0
2, 53880, Note_on_c, 1, 58, 127
2, 54200, Note_off_c, 1, 58, 0
2, 54240, Note_on_c, 1, 58, 127
2, 54280, Note_off_c, 1, 58, 0
2, 54320, Note_on_c, 1, 53, 127
2, 54680, Note_off_c, 1, 53, 0
2, 54720, Note_on_c, 1, 58, 127
2, 55080, Note_off_c, 1, 58, 0
2, 55120, Note_on_c, 1, 53, 127
2, 55480, Note_off_c, 1, 53, 0
2, 55520, Note_on_c, 1, 58, 127
2, 55880, Note_off_c, 1, 58, 0
2, 55920, Note_on_c, 1, 48, 127
2, 56240, Note_off_c, 1, 48, 0
2, 56320, Note_on_c, 1, 41, 127
2, 56680, Note_off_c, 1, 41, 0
2, 56720, Note_on_c, 1, 46, 127
2, 57080, Note_off_c, 1, 46, 0
2, 57120, Note_on_c, 1, 48, 127
2, 57480, Note_off_c, 1, 48, 0
2, 57520, Note_on_c, 1, 53, 127
2, 57880, Note_off_c, 1, 53, 0
2, 57920, Note_on_c, 1, 48, 127
2, 58280, Note_off_c, 1, 48, 0
2, 58360, Note_on_c, 1, 53, 127
2, 58680, Note_off_c, 1, 53, 0
2, 58760, Note_on_c, 1, 48, 127
2, 59120, Note_off_c, 1, 48, 0
2, 59160, Note_on_c, 1, 53, 127
2, 59520, Note_off_c, 1, 53, 0
2, 59560, Note_on_c, 1, 53, 127
2, 59920, Note_off_c, 1, 53, 0
2, 59960, Note_on_c, 1, 60, 127
2, 60320, Note_off_c, 1, 60, 0
2, 60360, Note_on_c, 1, 53, 127
2, 60520, Note_off_c, 1, 53, 0
2, 60560, Note_on_c, 1, 53, 127
2, 60760, Note_off_c, 1, 53, 0
2, 60800, Note_on_c, 1, 47, 127
2, 61160, Note_off_c, 1, 47, 0
2, 61200, Note_on_c, 1, 50, 127
2, 61560, Note_off_c, 1, 50, 0
2, 61600, Note_on_c, 1, 53, 127
2, 61960, Note_off_c, 1, 53, 0
2, 62000, Note_on_c, 1, 58, 127
2, 62360, Note_off_c, 1, 58, 0
2, 62400, Note_on_c, 1, 55, 127
2, 62600, Note_off_c, 1, 55, 0
2, 62640, Note_on_c, 1, 55, 127
2, 62800, Note_off_c, 1, 55, 0
2, 62840, Note_on_c, 1, 53, 127
2, 63200, Note_off_c, 1, 53, 0
2, 63240, Note_on_c, 1, 51, 127
2, 63600, Note_off_c, 1, 51, 0
2, 63640, Note_on_c, 1, 46, 127
2, 64000, Note_off_c, 1, 46, 0
2, 64040, Note_on_c, 1, 51, 127
2, 64400, Note_off_c, 1, 51, 0
2, 64440, Note_on_c, 1, 58, 127
2, 64800, Note_off_c, 1, 58, 0
2, 64880, Note_on_c, 1, 55, 127
2, 65240, Note_off_c, 1, 55, 0
2, 65280, Note_on_c, 1, 50, 127
2, 65640, Note_off_c, 1, 50, 0
2, 65680, Note_on_c, 1, 51, 127
2, 66040, Note_off_c, 1, 51, 0
2, 66080, Note_on_c, 1, 46, 127
2, 66440, Note_off_c, 1, 46, 0
2, 66480, Note_on_c, 1, 39, 127
2, 66840, Note_off_c, 1, 39, 0
2, 66880, Note_on_c, 1, 46, 127
2, 67080, Note_off_c, 1, 46, 0
2, 67120, Note_on_c, 1, 46, 127
2, 67240, Note_off_c, 1, 46, 0
2, 67280, Note_on_c, 1, 51, 127
2, 67640, Note_off_c, 1, 51, 0
2, 67680, Note_on_c, 1, 58, 127
2, 68040, Note_off_c, 1, 58, 0
2, 68080, Note_on_c, 1, 51, 127
2, 68440, Note_off_c, 1, 51, 0
2, 68480, Note_on_c, 1, 58, 127
2, 68840, Note_off_c, 1, 58, 0
2, 68880, Note_on_c, 1, 51, 127
2, 68880, Note_on_c, 1, 79, 127
2, 69240, Note_off_c, 1, 51, 0
2, 69240, Note_off_c, 1, 79, 0
2, 69280, Note_on_c, 1, 79, 127
2, 69320, Note_on_c, 1, 55, 127
2, 69680, Note_off_c, 1, 55, 0
2, 69720, Note_on_c, 1, 51, 127
2, 70080, Note_off_c, 1, 51, 0
2, 70120, Note_on_c, 1, 46, 127
2, 70480, Note_off_c, 1, 46, 0
2, 70520, Note_on_c, 1, 39, 127
2, 70880, Note_off_c, 1, 39, 0
2, 70880, Note_off_c, 1, 79, 0
2, 70920, Note_on_c, 1, 47, 127
2, 70920, Note_on_c, 1, 80, 127
2, 71280, Note_off_c, 1, 47, 0
2, 71280, Note_off_c, 1, 80, 0
2, 71360, Note_on_c, 1, 46, 127
2, 71360, Note_on_c, 1, 79, 127
2, 71680, Note_off_c, 1, 46, 0
2, 71720, Note_on_c, 1, 51, 127
2, 72080, Note_off_c, 1, 51, 0
2, 72120, Note_on_c, 1, 58, 127
2, 72480, Note_off_c, 1, 58, 0
2, 72520, Note_on_c, 1, 46, 127
2, 72880, Note_off_c, 1, 46, 0
2, 72920, Note_on_c, 1, 51, 127
2, 73280, Note_off_c, 1, 51, 0
2, 73320, Note_on_c, 1, 55, 127
2, 73480, Note_off_c, 1, 55, 0
2, 73480, Note_off_c, 1, 79, 0
2, 73520, Note_on_c, 1, 55, 127
2, 73520, Note_on_c, 1, 79, 127
2, 73720, Note_off_c, 1, 55, 0
2, 73760, Note_on_c, 1, 51, 127
2, 74120, Note_off_c, 1, 51, 0
2, 74160, Note_on_c, 1, 46, 127
2, 74520, Note_off_c, 1, 46, 0
2, 74560, Note_on_c, 1, 39, 127
2, 74920, Note_off_c, 1, 39, 0
2, 74920, Note_off_c, 1, 79, 0
2, 74960, Note_on_c, 1, 46, 127
2, 74960, Note_on_c, 1, 79, 127
2, 75280, Note_off_c, 1, 46, 0
2, 75320, Note_on_c, 1, 39, 127
2, 75680, Note_off_c, 1, 39, 0
2, 75680, Note_off_c, 1, 79, 0
2, 75760, Note_on_c, 1, 46, 127
2, 75760, Note_on_c, 1, 79, 127
2, 76080, Note_off_c, 1, 46, 0
2, 76120, Note_on_c, 1, 39, 127
2, 76480, Note_off_c, 1, 39, 0
2, 76480, Note_off_c, 1, 79, 0
2, 76520, Note_on_c, 1, 46, 127
2, 76520, Note_on_c, 1, 79, 127
2, 76880, Note_off_c, 1, 46, 0
2, 76920, Note_on_c, 1, 51, 127
2, 77280, Note_off_c, 1, 51, 0
2, 77320, Note_on_c, 1, 58, 127
2, 77680, Note_off_c, 1, 58, 0
2, 77720, Note_on_c, 1, 47, 127
2, 77920, Note_off_c, 1, 47, 0
2, 77920, Note_off_c, 1, 79, 0
2, 77960, Note_on_c, 1, 47, 127
2, 77960, Note_on_c, 1, 79, 127
2, 78080, Note_off_c, 1, 47, 0
2, 78120, Note_on_c, 1, 55, 127
2, 78480, Note_off_c, 1, 55, 0
2, 78520, Note_on_c, 1, 63, 127
2, 78880, Note_off_c, 1, 63, 0
2, 78880, Note_off_c, 1, 79, 0
2, 78920, Note_on_c, 1, 39, 127
2, 78920, Note_on_c, 1, 80, 127
2, 79280, Note_off_c, 1, 39, 0
2, 79320, Note_on_c, 1, 47, 127
2, 79640, Note_off_c, 1, 47, 0
2, 79680, Note_on_c, 1, 51, 127
2, 80000, Note_off_c, 1, 51, 0
2, 80000, Note_off_c, 1, 80, 0
2, 80040, Note_on_c, 1, 51, 127
2, 80040, Note_on_c, 1, 80, 127
2, 80080, Note_off_c, 1, 51, 0
2, 80120, Note_on_c, 1, 62, 127
2, 80480, Note_off_c, 1, 62, 0
2, 80480, Note_off_c, 1, 80, 0
2, 80520, Note_on_c, 1, 51, 127
2, 80520, Note_on_c, 1, 79, 127
2, 80880, Note_off_c, 1, 51, 0
2, 80920, Note_on_c, 1, 58, 127
2, 81240, Note_off_c, 1, 58, 0
2, 81280, Note_on_c, 1, 46, 127
2, 81640, Note_off_c, 1, 46, 0
2, 81680, Note_on_c, 1, 51, 127
2, 82040, Note_off_c, 1, 51, 0
2, 82080, Note_on_c, 1, 51, 127
2, 82160, Note_off_c, 1, 51, 0
2, 82160, Note_off_c, 1, 79, 0
2, 82200, Note_on_c, 1, 51, 127
2, 82200, Note_on_c, 1, 79, 127
2, 82480, Note_off_c, 1, 51, 0
2, 82520, Note_on_c, 1, 46, 127
2, 82880, Note_off_c, 1, 46, 0
2, 82920, Note_on_c, 1, 53, 127
2, 83280, Note_off_c, 1, 53, 0
2, 83320, Note_on_c, 1, 51, 127
2, 83680, Note_off_c, 1, 51, 0
2, 83720, Note_on_c, 1, 46, 127
2, 84080, Note_off_c, 1, 46, 0
2, 84120, Note_on_c, 1, 51, 127
2, 84240, Note_off_c, 1, 51, 0
2, 84240, Note_off_c, 1, 79, 0
2, 84280, Note_on_c, 1, 51, 127
2, 84280, Note_on_c, 1, 79, 127
2, 84480, Note_off_c, 1, 51, 0
2, 84520, Note_on_c, 1, 61, 127
2, 84880, Note_off_c, 1, 61, 0
2, 84880, Note_off_c, 1, 79, 0
2, 84920, Note_on_c, 1, 51, 127
2, 84920, Note_on_c, 1, 84, 127
2, 85280, Note_off_c, 1, 51, 0
2, 85320, Note_on_c, 1, 62, 127
2, 85680, Note_off_c, 1, 62, 0
2, 85720, Note_on_c, 1, 58, 127
2, 86080, Note_off_c, 1, 58, 0
2, 86120, Note_on_c, 1, 55, 127
2, 86120, Note_on_c, 1, 82, 127
2, 86120, Note_off_c, 1, 84, 0
2, 86400, Note_off_c, 1, 55, 0
2, 86400, Note_off_c, 1, 82, 0
2, 86440, Note_on_c, 1, 55, 127
2, 86440, Note_on_c, 1, 82, 127
2, 86560, Note_off_c, 1, 55, 0
2, 86560, Note_off_c, 1, 82, 0
2, 86600, Note_on_c, 1, 58, 127
2, 86600, Note_on_c, 1, 81, 127
2, 86960, Note_off_c, 1, 58, 0
2, 86960, Note_off_c, 1, 81, 0
2, 87000, Note_on_c, 1, 51, 127
2, 87000, Note_on_c, 1, 79, 127
2, 87360, Note_off_c, 1, 51, 0
2, 87400, Note_on_c, 1, 61, 127
2, 87760, Note_off_c, 1, 61, 0
2, 87760, Note_off_c, 1, 79, 0
2, 87800, Note_on_c, 1, 51, 127
2, 87800, Note_on_c, 1, 79, 127
2, 88160, Note_off_c, 1, 51, 0
2, 88200, Note_on_c, 1, 58, 127
2, 88480, Note_off_c, 1, 58, 0
2, 88480, Note_off_c, 1, 79, 0
2, 88520, Note_on_c, 1, 58, 127
2, 88520, Note_on_c, 1, 79, 127
2, 88560, Note_off_c, 1, 58, 0
2, 88600, Note_on_c, 1, 50, 127
2, 88960, Note_off_c, 1, 50, 0
2, 89000, Note_on_c, 1, 46, 127
2, 89320, Note_off_c, 1, 46, 0
2, 89360, Note_on_c, 1, 39, 127
2, 89720, Note_off_c, 1, 39, 0
2, 89720, Note_off_c, 1, 79, 0
2, 89760, Note_on_c, 1, 46, 127
2, 89760, Note_on_c, 1, 79, 127
2, 90120, Note_off_c, 1, 46, 0
2, 90160, Note_on_c, 1, 51, 127
2, 90520, Note_off_c, 1, 51, 0
2, 90560, Note_off_c, 1, 79, 0
2, 90600, Note_on_c, 1, 63, 127
2, 90600, Note_on_c, 1, 79, 127
2, 90920, Note_off_c, 1, 63, 0
2, 90960, Note_on_c, 1, 55, 127
2, 91320, Note_off_c, 1, 55, 0
2, 91320, Note_off_c, 1, 79, 0
2, 91360, Note_on_c, 1, 63, 127
2, 91360, Note_on_c, 1, 77, 127
2, 91720, Note_off_c, 1, 63, 0
2, 91760, Note_on_c, 1, 46, 127
2, 92120, Note_off_c, 1, 46, 0
2, 92160, Note_on_c, 1, 62, 127
2, 92520, Note_off_c, 1, 62, 0
2, 92560, Note_off_c, 1, 77, 0
2, 92600, Note_on_c, 1, 46, 127
2, 92600, Note_on_c, 1, 77, 127
2, 92960, Note_off_c, 1, 46, 0
2, 93000, Note_on_c, 1, 46, 127
2, 93360, Note_off_c, 1, 46, 0
2, 93400, Note_on_c, 1, 38, 127
2, 93440, Note_off_c, 1, 77, 0
2, 93480, Note_on_c, 1, 75, 127
2, 93760, Note_off_c, 1, 38, 0
2, 93760, Note_off_c, 1, 75, 0
2, 93800, Note_on_c, 1, 46, 127
2, 93800, Note_on_c, 1, 74, 127
2, 94160, Note_off_c, 1, 46, 0
2, 94200, Note_on_c, 1, 51, 127
2, 94560, Note_off_c, 1, 51, 0
2, 94560, Note_off_c, 1, 74, 0
2, 94640, Note_on_c, 1, 50, 127
2, 94640, Note_on_c, 1, 72, 127
2, 95000, Note_off_c, 1, 50, 0
2, 95040, Note_on_c, 1, 55, 127
2, 95400, Note_off_c, 1, 55, 0
2, 95440, Note_on_c, 1, 50, 127
2, 95800, Note_off_c, 1, 50, 0
2, 95840, Note_on_c, 1, 53, 127
2, 96200, Note_off_c, 1, 53, 0
2, 96240, Note_on_c, 1, 43, 127
2, 96600, Note_off_c, 1, 43, 0
2, 96600, Note_off_c, 1, 72, 0
2, 96680, Note_on_c, 1, 74, 127
2, 97080, Note_off_c, 1, 74, 0
2, 97120, Note_on_c, 1, 44, 127
2, 97120, Note_on_c, 1, 77, 127
2, 97480, Note_off_c, 1, 44, 0
2, 97520, Note_on_c, 1, 48, 127
2, 97880, Note_off_c, 1, 48, 0
2, 97920, Note_on_c, 1, 57, 127
2, 98280, Note_off_c, 1, 57, 0
2, 98320, Note_on_c, 1, 65, 127
2, 98720, Note_off_c, 1, 65, 0
2, 98720, Note_off_c, 1, 77, 0
2, 98760, Note_on_c, 1, 77, 127
2, 98800, Note_on_c, 1, 49, 127
2, 99120, Note_off_c, 1, 49, 0
2, 99160, Note_on_c, 1, 57, 127
2, 99520, Note_off_c, 1, 57, 0
2, 99560, Note_on_c, 1, 50, 127
2, 99920, Note_off_c, 1, 50, 0
2, 99960, Note_on_c, 1, 45, 127
2, 100320, Note_off_c, 1, 45, 0
2, 100360, Note_on_c, 1, 38, 127
2, 100720, Note_off_c, 1, 38, 0
2, 100720, Note_off_c, 1, 77, 0
2, 100800, Note_on_c, 1, 48, 127
2, 100800, Note_on_c, 1, 81, 127
2, 101160, Note_off_c, 1, 48, 0
2, 101200, Note_on_c, 1, 53, 127
2, 101560, Note_off_c, 1, 53, 0
2, 101600, Note_on_c, 1, 45, 127
2, 101960, Note_off_c, 1, 45, 0
2, 102000, Note_on_c, 1, 38, 127
2, 102360, Note_off_c, 1, 38, 0
2, 102360, Note_off_c, 1, 81, 0
2, 102400, Note_on_c, 1, 33, 127
2, 102400, Note_on_c, 1, 79, 127
2, 102760, Note_off_c, 1, 33, 0
2, 102800, Note_on_c, 1, 45, 127
2, 102960, Note_off_c, 1, 45, 0
2, 102960, Note_off_c, 1, 79, 0
2, 103000, Note_on_c, 1, 45, 127
2, 103000, Note_on_c, 1, 79, 127
2, 103200, Note_off_c, 1, 45, 0
2, 103240, Note_on_c, 1, 38, 127
2, 103600, Note_off_c, 1, 38, 0
2, 103640, Note_on_c, 1, 46, 127
2, 104000, Note_off_c, 1, 46, 0
2, 104040, Note_on_c, 1, 50, 127
2, 104400, Note_off_c, 1, 50, 0
2, 104440, Note_on_c, 1, 58, 127
2, 104800, Note_off_c, 1, 58, 0
2, 104840, Note_on_c, 1, 52, 127
2, 105160, Note_off_c, 1, 52, 0
2, 105160, Note_off_c, 1, 79, 0
2, 105200, Note_on_c, 1, 52, 127
2, 105200, Note_on_c, 1, 79, 127
2, 105240, Note_off_c, 1, 52, 0
2, 105240, Note_off_c, 1, 79, 0
2, 105280, Note_on_c, 1, 58, 127
2, 105280, Note_on_c, 1, 79, 127
2, 105640, Note_off_c, 1, 58, 0
2, 105640, Note_off_c, 1, 79, 0
2, 105680, Note_on_c, 1, 53, 127
2, 105680, Note_on_c, 1, 81, 127
2, 106040, Note_off_c, 1, 53, 0
2, 106080, Note_on_c, 1, 45, 127
2, 106440, Note_off_c, 1, 45, 0
2, 106480, Note_on_c, 1, 38, 127
2, 106840, Note_off_c, 1, 38, 0
2, 106880, Note_on_c, 1, 53, 127
2, 107240, Note_off_c, 1, 53, 0
2, 107240, Note_off_c, 1, 81, 0
2, 107280, Note_on_c, 1, 81, 127
2, 107320, Note_on_c, 1, 53, 127
2, 107680, Note_off_c, 1, 53, 0
2, 107720, Note_on_c, 1, 57, 127
2, 108080, Note_off_c, 1, 57, 0
2, 108120, Note_on_c, 1, 53, 127
2, 108480, Note_off_c, 1, 53, 0
2, 108520, Note_on_c, 1, 57, 127
2, 108880, Note_off_c, 1, 57, 0
2, 108920, Note_on_c, 1, 41, 127
2, 109280, Note_off_c, 1, 41, 0
2, 109280, Note_off_c, 1, 81, 0
2, 109320, Note_on_c, 1, 81, 127
2, 109360, Note_on_c, 1, 48, 127
2, 109720, Note_off_c, 1, 48, 0
2, 109760, Note_on_c, 1, 41, 127
2, 110120, Note_off_c, 1, 41, 0
2, 110160, Note_on_c, 1, 48, 127
2, 110520, Note_off_c, 1, 48, 0
2, 110560, Note_on_c, 1, 41, 127
2, 110920, Note_off_c, 1, 41, 0
2, 110960, Note_on_c, 1, 41, 127
2, 111320, Note_off_c, 1, 41, 0
2, 111360, Note_on_c, 1, 48, 127
2, 111480, Note_off_c, 1, 48, 0
2, 111480, Note_off_c, 1, 81, 0
2, 111520, Note_on_c, 1, 48, 127
2, 111520, Note_on_c, 1, 81, 127
2, 111760, Note_off_c, 1, 48, 0
2, 111800, Note_on_c, 1, 41, 127
2, 112160, Note_off_c, 1, 41, 0
2, 112160, Note_off_c, 1, 81, 0
2, 112200, Note_on_c, 1, 49, 127
2, 112200, Note_on_c, 1, 82, 127
2, 112520, Note_off_c, 1, 49, 0
2, 112560, Note_on_c, 1, 55, 127
2, 112560, Note_on_c, 1, 81, 127
2, 112560, Note_off_c, 1, 82, 0
2, 112920, Note_off_c, 1, 55, 0
2, 112960, Note_on_c, 1, 53, 127
2, 113320, Note_off_c, 1, 53, 0
2, 113360, Note_on_c, 1, 57, 127
2, 113600, Note_off_c, 1, 57, 0
2, 113600, Note_off_c, 1, 81, 0
2, 113640, Note_on_c, 1, 57, 127
2, 113640, Note_on_c, 1, 81, 127
2, 113760, Note_off_c, 1, 57, 0
2, 113800, Note_on_c, 1, 53, 127
2, 114160, Note_off_c, 1, 53, 0
2, 114200, Note_on_c, 1, 60, 127
2, 114520, Note_off_c, 1, 60, 0
2, 114520, Note_off_c, 1, 81, 0
2, 114560, Note_on_c, 1, 53, 127
2, 114560, Note_on_c, 1, 79, 127
2, 114640, Note_off_c, 1, 79, 0
2, 114640, Note_on_c, 1, 81, 127
2, 114680, Note_on_c, 1, 79, 127
2, 114680, Note_off_c, 1, 81, 0
2, 114920, Note_off_c, 1, 53, 0
2, 114960, Note_on_c, 1, 48, 127
2, 115320, Note_off_c, 1, 48, 0
2, 115360, Note_on_c, 1, 36, 127
2, 115720, Note_off_c, 1, 36, 0
2, 115720, Note_off_c, 1, 79, 0
2, 115800, Note_on_c, 1, 41, 127
2, 115800, Note_on_c, 1, 81, 127
2, 116160, Note_off_c, 1, 41, 0
2, 116200, Note_on_c, 1, 48, 127
2, 116560, Note_off_c, 1, 48, 0
2, 116600, Note_on_c, 1, 48, 127
2, 116960, Note_off_c, 1, 48, 0
2, 117000, Note_on_c, 1, 53, 127
2, 117360, Note_off_c, 1, 53, 0
2, 117400, Note_on_c, 1, 48, 127
2, 117760, Note_off_c, 1, 48, 0
2, 117800, Note_on_c, 1, 41, 127
2, 117880, Note_off_c, 1, 41, 0
2, 117880, Note_off_c, 1, 81, 0
2, 117920, Note_on_c, 1, 41, 127
2, 117920, Note_on_c, 1, 81, 127
2, 118200, Note_off_c, 1, 41, 0
2, 118200, Note_off_c, 1, 81, 0
2, 118240, Note_on_c, 1, 49, 127
2, 118240, Note_on_c, 1, 82, 127
2, 118600, Note_off_c, 1, 49, 0
2, 118640, Note_on_c, 1, 41, 127
2, 119000, Note_off_c, 1, 41, 0
2, 119040, Note_on_c, 1, 49, 127
2, 119360, Note_off_c, 1, 49, 0
2, 119400, Note_on_c, 1, 41, 127
2, 119760, Note_off_c, 1, 41, 0
2, 119800, Note_on_c, 1, 48, 127
2, 119960, Note_off_c, 1, 48, 0
2, 119960, Note_off_c, 1, 82, 0
2, 120040, End_track
3, 0, Start_track
3, 0, Title_t, "MIDI"
3, 1536, End_track
0, 0, End_of_file
