0, 0, Header, 1, 3, 192
1, 0, Start_track
1, 0, Time_signature, 4, 2, 24, 8
1, 0, Tempo, 500000
1, 120040, End_track
2, 0, Start_track
2, 0, Text_t, "random instrument: random person i dunno whatev"
2, 0, Title_t, "Track 1"
2, 0, Note_on_c, 1, 34, 127
2, 0, Note_on_c, 1, 53, 127
2, 0, Note_on_c, 1, 56, 127
2, 0, Note_on_c, 1, 62, 127
2, 40, Note_off_c, 1, 34, 0
2, 40, Note_off_c, 1, 53, 0
2, 40, Note_off_c, 1, 56, 0
2, 40, Note_off_c, 1, 62, 0
2, 40, Note_on_c, 1, 67, 127
2, 40, Note_on_c, 1, 76, 127
2, 40, Note_on_c, 1, 79, 127
2, 40, Note_on_c, 1, 85, 127
2, 40, Note_on_c, 1, 88, 127
2, 80, Note_off_c, 1, 67, 0
2, 80, Note_off_c, 1, 76, 0
2, 80, Note_off_c, 1, 79, 0
2, 80, Note_off_c, 1, 85, 0
2, 80, Note_off_c, 1, 88, 0
2, 120, Note_on_c, 1, 34, 127
2, 120, Note_on_c, 1, 53, 127
2, 120, Note_on_c, 1, 56, 127
2, 120, Note_on_c, 1, 62, 127
2, 160, Note_off_c, 1, 34, 0
2, 160, Note_on_c, 1, 43, 127
2, 160, Note_on_c, 1, 47, 127
2, 160, Note_off_c, 1, 53, 0
2, 160, Note_on_c, 1, 55, 127
2, 160, Note_off_c, 1, 56, 0
2, 160, Note_off_c, 1, 62, 0
2, 160, Note_on_c, 1, 79, 127
2, 160, Note_on_c, 1, 83, 127
2, 160, Note_on_c, 1, 87, 127
2, 160, Note_on_c, 1, 91, 127
2, 200, Note_on_c, 1, 34, 127
2, 200, Note_off_c, 1, 43, 0
2, 200, Note_off_c, 1, 47, 0
2, 200, Note_on_c, 1, 53, 127
2, 200, Note_off_c, 1, 55, 0
2, 200, Note_on_c, 1, 56, 127
2, 200, Note_on_c, 1, 62, 127
2, 200, Note_off_c, 1, 79, 0
2, 200, Note_off_c, 1, 83, 0
2, 200, Note_off_c, 1, 87, 0
2, 200, Note_off_c, 1, 91, 0
2, 680, Note_off_c, 1, 34, 0
2, 680, Note_off_c, 1, 53, 0
2, 680, Note_off_c, 1, 56, 0
2, 680, Note_off_c, 1, 62, 0
2, 5240, Note_on_c, 1, 43, 127
2, 5240, Note_on_c, 1, 50, 127
2, 5240, Note_on_c, 1, 60, 127
2, 5240, Note_on_c, 1, 62, 127
2, 5240, Note_on_c, 1, 69, 127
2, 5600, Note_off_c, 1, 43, 0
2, 5600, Note_off_c, 1, 50, 0
2, 5600, Note_off_c, 1, 60, 0
2, 5600, Note_off_c, 1, 62, 0
2, 5600, Note_off_c, 1, 69, 0
2, 5640, Note_on_c, 1, 40, 127
2, 5640, Note_on_c, 1, 52, 127
2, 5640, Note_on_c, 1, 55, 127
2, 5640, Note_on_c, 1, 64, 127
2, 6040, Note_off_c, 1, 40, 0
2, 6040, Note_off_c, 1, 52, 0
2, 6040, Note_off_c, 1, 55, 0
2, 6040, Note_off_c, 1, 64, 0
2, 7280, Note_on_c, 1, 41, 127
2, 7280, Note_on_c, 1, 53, 127
2, 7280, Note_on_c, 1, 57, 127
2, 7280, Note_on_c, 1, 60, 127
2, 7280, Note_on_c, 1, 65, 127
2, 7600, Note_off_c, 1, 41, 0
2, 7600, Note_off_c, 1, 53, 0
2, 7600, Note_off_c, 1, 57, 0
2, 7600, Note_off_c, 1, 60, 0
2, 7600, Note_off_c, 1, 65, 0
2, 7640, Note_on_c, 1, 41, 127
2, 7640, Note_on_c, 1, 53, 127
2, 7640, Note_on_c, 1, 57, 127
2, 7640, Note_on_c, 1, 60, 127
2, 7640, Note_on_c, 1, 65, 127
2, 7720, Note_off_c, 1, 41, 0
2, 7720, Note_off_c, 1, 57, 0
2, 7720, Note_off_c, 1, 60, 0
2, 7760, Note_on_c, 1, 46, 127
2, 7760, Note_on_c, 1, 58, 127
2, 10040, Note_off_c, 1, 46, 0
2, 10040, Note_off_c, 1, 53, 0
2, 10040, Note_off_c, 1, 58, 0
2, 10040, Note_off_c, 1, 65, 0
2, 10080, Note_on_c, 1, 46, 127
2, 10080, Note_on_c, 1, 53, 127
2, 10080, Note_on_c, 1, 58, 127
2, 10080, Note_on_c, 1, 65, 127
2, 10120, Note_off_c, 1, 46, 0
2, 10120, Note_off_c, 1, 53, 0
2, 10120, Note_off_c, 1, 58, 0
2, 10120, Note_off_c, 1, 65, 0
2, 10160, Note_on_c, 1, 50, 127
2, 10160, Note_on_c, 1, 54, 127
2, 10160, Note_on_c, 1, 62, 127
2, 10160, Note_on_c, 1, 66, 127
2, 10320, Note_off_c, 1, 50, 0
2, 10320, Note_off_c, 1, 54, 0
2, 10320, Note_off_c, 1, 62, 0
2, 10320, Note_off_c, 1, 66, 0
2, 13400, Note_on_c, 1, 37, 127
2, 13400, Note_on_c, 1, 49, 127
2, 14040, Note_off_c, 1, 37, 0
2, 14040, Note_off_c, 1, 49, 0
2, 14080, Note_on_c, 1, 35, 127
2, 14080, Note_on_c, 1, 47, 127
2, 14120, Note_off_c, 1, 35, 0
2, 14120, Note_off_c, 1, 47, 0
2, 14160, Note_on_c, 1, 35, 127
2, 14160, Note_on_c, 1, 47, 127
2, 14360, Note_off_c, 1, 35, 0
2, 14360, Note_off_c, 1, 47, 0
2, 14400, Note_on_c, 1, 35, 127
2, 14400, Note_on_c, 1, 47, 127
2, 14480, Note_off_c, 1, 35, 0
2, 14480, Note_off_c, 1, 47, 0
2, 14520, Note_on_c, 1, 34, 127
2, 14520, Note_on_c, 1, 46, 127
2, 14560, Note_off_c, 1, 34, 0
2, 14560, Note_off_c, 1, 46, 0
2, 14600, Note_on_c, 1, 34, 127
2, 14600, Note_on_c, 1, 46, 127
2, 14640, Note_off_c, 1, 34, 0
2, 14640, Note_off_c, 1, 46, 0
2, 14680, Note_on_c, 1, 45, 127
2, 14680, Note_on_c, 1, 57, 127
2, 14720, Note_off_c, 1, 45, 0
2, 14720, Note_off_c, 1, 57, 0
2, 14760, Note_on_c, 1, 46, 127
2, 14760, Note_on_c, 1, 58, 127
2, 14800, Note_on_c, 1, 42, 127
2, 14800, Note_off_c, 1, 46, 0
2, 14800, Note_on_c, 1, 54, 127
2, 14800, Note_off_c, 1, 58, 0
2, 14840, Note_off_c, 1, 42, 0
2, 14840, Note_off_c, 1, 54, 0
2, 14880, Note_on_c, 1, 38, 127
2, 14880, Note_on_c, 1, 50, 127
2, 14920, Note_off_c, 1, 38, 0
2, 14920, Note_off_c, 1, 50, 0
2, 14960, Note_on_c, 1, 42, 127
2, 14960, Note_on_c, 1, 54, 127
2, 15000, Note_off_c, 1, 42, 0
2, 15000, Note_off_c, 1, 54, 0
2, 15080, Note_on_c, 1, 46, 127
2, 15080, Note_on_c, 1, 58, 127
2, 15120, Note_off_c, 1, 46, 0
2, 15120, Note_off_c, 1, 58, 0
2, 15160, Note_on_c, 1, 42, 127
2, 15160, Note_on_c, 1, 54, 127
2, 15200, Note_off_c, 1, 42, 0
2, 15200, Note_off_c, 1, 54, 0
2, 15280, Note_on_c, 1, 45, 127
2, 15280, Note_on_c, 1, 57, 127
2, 15320, Note_off_c, 1, 45, 0
2, 15320, Note_off_c, 1, 57, 0
2, 15360, Note_on_c, 1, 47, 127
2, 15360, Note_on_c, 1, 59, 127
2, 15400, Note_off_c, 1, 47, 0
2, 15400, Note_off_c, 1, 59, 0
2, 15440, Note_on_c, 1, 49, 127
2, 15440, Note_on_c, 1, 61, 127
2, 15480, Note_off_c, 1, 49, 0
2, 15480, Note_on_c, 1, 54, 127
2, 15480, Note_off_c, 1, 61, 0
2, 15480, Note_on_c, 1, 66, 127
2, 15520, Note_off_c, 1, 54, 0
2, 15520, Note_off_c, 1, 66, 0
2, 15560, Note_on_c, 1, 46, 127
2, 15560, Note_on_c, 1, 58, 127
2, 15600, Note_off_c, 1, 46, 0
2, 15600, Note_off_c, 1, 58, 0
2, 15680, Note_on_c, 1, 54, 127
2, 15680, Note_on_c, 1, 66, 127
2, 15720, Note_off_c, 1, 54, 0
2, 15720, Note_off_c, 1, 66, 0
2, 15760, Note_on_c, 1, 54, 127
2, 15760, Note_on_c, 1, 66, 127
2, 15840, Note_off_c, 1, 54, 0
2, 15840, Note_off_c, 1, 66, 0
2, 15960, Note_on_c, 1, 62, 127
2, 15960, Note_on_c, 1, 74, 127
2, 16000, Note_off_c, 1, 62, 0
2, 16000, Note_off_c, 1, 74, 0
2, 16040, Note_on_c, 1, 66, 127
2, 16040, Note_on_c, 1, 78, 127
2, 16120, Note_off_c, 1, 66, 0
2, 16120, Note_off_c, 1, 78, 0
2, 16160, Note_on_c, 1, 70, 127
2, 16160, Note_on_c, 1, 82, 127
2, 16200, Note_off_c, 1, 70, 0
2, 16200, Note_off_c, 1, 82, 0
2, 16240, Note_on_c, 1, 66, 127
2, 16240, Note_on_c, 1, 78, 127
2, 16280, Note_off_c, 1, 66, 0
2, 16280, Note_on_c, 1, 67, 127
2, 16280, Note_off_c, 1, 78, 0
2, 16280, Note_on_c, 1, 79, 127
2, 16320, Note_off_c, 1, 67, 0
2, 16320, Note_off_c, 1, 79, 0
2, 16360, Note_on_c, 1, 66, 127
2, 16360, Note_on_c, 1, 78, 127
2, 16400, Note_off_c, 1, 66, 0
2, 16400, Note_off_c, 1, 78, 0
2, 16440, Note_on_c, 1, 65, 127
2, 16440, Note_on_c, 1, 77, 127
2, 16480, Note_off_c, 1, 65, 0
2, 16480, Note_off_c, 1, 77, 0
2, 16560, Note_on_c, 1, 66, 127
2, 16560, Note_on_c, 1, 78, 127
2, 16640, Note_off_c, 1, 66, 0
2, 16640, Note_off_c, 1, 78, 0
2, 16680, Note_on_c, 1, 66, 127
2, 16680, Note_on_c, 1, 78, 127
2, 16720, Note_off_c, 1, 66, 0
2, 16720, Note_off_c, 1, 78, 0
2, 16760, Note_on_c, 1, 70, 127
2, 16760, Note_on_c, 1, 82, 127
2, 16800, Note_off_c, 1, 70, 0
2, 16800, Note_off_c, 1, 82, 0
2, 16840, Note_on_c, 1, 71, 127
2, 16840, Note_on_c, 1, 83, 127
2, 16920, Note_off_c, 1, 71, 0
2, 16920, Note_off_c, 1, 83, 0
2, 16960, Note_on_c, 1, 66, 127
2, 16960, Note_on_c, 1, 78, 127
2, 17000, Note_off_c, 1, 66, 0
2, 17000, Note_off_c, 1, 78, 0
2, 17040, Note_on_c, 1, 66, 127
2, 17040, Note_on_c, 1, 78, 127
2, 17120, Note_off_c, 1, 66, 0
2, 17120, Note_off_c, 1, 78, 0
2, 17160, Note_on_c, 1, 62, 127
2, 17160, Note_on_c, 1, 74, 127
2, 17200, Note_off_c, 1, 62, 0
2, 17200, Note_off_c, 1, 74, 0
2, 17240, Note_on_c, 1, 62, 127
2, 17240, Note_on_c, 1, 74, 127
2, 17320, Note_off_c, 1, 62, 0
2, 17320, Note_off_c, 1, 74, 0
2, 17360, Note_on_c, 1, 59, 127
2, 17360, Note_on_c, 1, 71, 127
2, 17440, Note_off_c, 1, 59, 0
2, 17440, Note_off_c, 1, 71, 0
2, 17480, Note_on_c, 1, 61, 127
2, 17480, Note_on_c, 1, 73, 127
2, 17520, Note_off_c, 1, 61, 0
2, 17520, Note_off_c, 1, 73, 0
2, 17560, Note_on_c, 1, 60, 127
2, 17560, Note_on_c, 1, 72, 127
2, 17640, Note_off_c, 1, 60, 0
2, 17640, Note_off_c, 1, 72, 0
2, 17680, Note_on_c, 1, 59, 127
2, 17680, Note_on_c, 1, 71, 127
2, 17720, Note_off_c, 1, 59, 0
2, 17720, Note_off_c, 1, 71, 0
2, 17760, Note_on_c, 1, 57, 127
2, 17760, Note_on_c, 1, 69, 127
2, 17840, Note_off_c, 1, 57, 0
2, 17840, Note_off_c, 1, 69, 0
2, 17880, Note_on_c, 1, 66, 127
2, 17880, Note_on_c, 1, 78, 127
2, 17920, Note_off_c, 1, 66, 0
2, 17920, Note_off_c, 1, 78, 0
2, 17960, Note_on_c, 1, 64, 127
2, 17960, Note_on_c, 1, 76, 127
2, 18040, Note_off_c, 1, 64, 0
2, 18040, Note_off_c, 1, 76, 0
2, 18080, Note_on_c, 1, 66, 127
2, 18080, Note_on_c, 1, 78, 127
2, 18120, Note_off_c, 1, 66, 0
2, 18120, Note_off_c, 1, 78, 0
2, 18160, Note_on_c, 1, 68, 127
2, 18160, Note_on_c, 1, 80, 127
2, 18240, Note_off_c, 1, 68, 0
2, 18240, Note_off_c, 1, 80, 0
2, 18280, Note_on_c, 1, 69, 127
2, 18280, Note_on_c, 1, 81, 127
2, 18320, Note_off_c, 1, 69, 0
2, 18320, Note_off_c, 1, 81, 0
2, 18360, Note_on_c, 1, 67, 127
2, 18360, Note_on_c, 1, 79, 127
2, 18440, Note_off_c, 1, 67, 0
2, 18440, Note_off_c, 1, 79, 0
2, 18480, Note_on_c, 1, 68, 127
2, 18480, Note_on_c, 1, 80, 127
2, 18520, Note_off_c, 1, 68, 0
2, 18520, Note_off_c, 1, 80, 0
2, 18560, Note_on_c, 1, 62, 127
2, 18560, Note_on_c, 1, 74, 127
2, 18640, Note_off_c, 1, 62, 0
2, 18640, Note_off_c, 1, 74, 0
2, 18720, Note_on_c, 1, 62, 127
2, 18720, Note_on_c, 1, 74, 127
2, 18760, Note_off_c, 1, 62, 0
2, 18760, Note_off_c, 1, 74, 0
2, 18800, Note_on_c, 1, 59, 127
2, 18800, Note_on_c, 1, 71, 127
2, 18880, Note_off_c, 1, 59, 0
2, 18880, Note_off_c, 1, 71, 0
2, 18920, Note_on_c, 1, 56, 127
2, 18920, Note_on_c, 1, 68, 127
2, 18960, Note_off_c, 1, 56, 0
2, 18960, Note_off_c, 1, 68, 0
2, 19000, Note_on_c, 1, 57, 127
2, 19000, Note_on_c, 1, 69, 127
2, 19080, Note_off_c, 1, 57, 0
2, 19080, Note_off_c, 1, 69, 0
2, 19120, Note_on_c, 1, 54, 127
2, 19120, Note_on_c, 1, 66, 127
2, 19160, Note_off_c, 1, 54, 0
2, 19160, Note_off_c, 1, 66, 0
2, 19200, Note_on_c, 1, 60, 127
2, 19200, Note_on_c, 1, 72, 127
2, 19280, Note_off_c, 1, 60, 0
2, 19280, Note_off_c, 1, 72, 0
2, 19320, Note_on_c, 1, 57, 127
2, 19320, Note_on_c, 1, 69, 127
2, 19360, Note_off_c, 1, 57, 0
2, 19360, Note_off_c, 1, 69, 0
2, 19400, Note_on_c, 1, 66, 127
2, 19400, Note_on_c, 1, 78, 127
2, 19480, Note_off_c, 1, 66, 0
2, 19480, Note_off_c, 1, 78, 0
2, 19520, Note_on_c, 1, 66, 127
2, 19520, Note_on_c, 1, 78, 127
2, 19560, Note_off_c, 1, 66, 0
2, 19560, Note_off_c, 1, 78, 0
2, 19600, Note_on_c, 1, 62, 127
2, 19600, Note_on_c, 1, 74, 127
2, 19680, Note_off_c, 1, 62, 0
2, 19680, Note_off_c, 1, 74, 0
2, 19720, Note_on_c, 1, 73, 127
2, 19720, Note_on_c, 1, 85, 127
2, 19760, Note_off_c, 1, 73, 0
2, 19760, Note_off_c, 1, 85, 0
2, 19800, Note_on_c, 1, 67, 127
2, 19800, Note_on_c, 1, 79, 127
2, 19880, Note_off_c, 1, 67, 0
2, 19880, Note_off_c, 1, 79, 0
2, 19920, Note_on_c, 1, 66, 127
2, 19920, Note_on_c, 1, 78, 127
2, 19960, Note_off_c, 1, 66, 0
2, 19960, Note_off_c, 1, 78, 0
2, 20000, Note_on_c, 1, 62, 127
2, 20000, Note_on_c, 1, 74, 127
2, 20080, Note_off_c, 1, 62, 0
2, 20080, Note_off_c, 1, 74, 0
2, 20120, Note_on_c, 1, 59, 127
2, 20120, Note_on_c, 1, 71, 127
2, 20160, Note_off_c, 1, 59, 0
2, 20160, Note_off_c, 1, 71, 0
2, 20200, Note_on_c, 1, 61, 127
2, 20200, Note_on_c, 1, 73, 127
2, 20280, Note_off_c, 1, 61, 0
2, 20280, Note_off_c, 1, 73, 0
2, 20320, Note_on_c, 1, 62, 127
2, 20320, Note_on_c, 1, 74, 127
2, 20360, Note_off_c, 1, 62, 0
2, 20360, Note_off_c, 1, 74, 0
2, 20400, Note_on_c, 1, 57, 127
2, 20400, Note_on_c, 1, 66, 127
2, 20480, Note_off_c, 1, 57, 0
2, 20480, Note_off_c, 1, 66, 0
2, 20520, Note_on_c, 1, 59, 127
2, 20520, Note_on_c, 1, 71, 127
2, 20560, Note_off_c, 1, 59, 0
2, 20560, Note_off_c, 1, 71, 0
2, 20600, Note_on_c, 1, 57, 127
2, 20600, Note_on_c, 1, 69, 127
2, 20680, Note_off_c, 1, 57, 0
2, 20680, Note_off_c, 1, 69, 0
2, 20760, Note_on_c, 1, 66, 127
2, 20760, Note_on_c, 1, 78, 127
2, 20800, Note_off_c, 1, 66, 0
2, 20800, Note_off_c, 1, 78, 0
2, 20840, Note_on_c, 1, 67, 127
2, 20840, Note_on_c, 1, 79, 127
2, 20920, Note_off_c, 1, 67, 0
2, 20920, Note_off_c, 1, 79, 0
2, 20960, Note_on_c, 1, 64, 127
2, 20960, Note_on_c, 1, 76, 127
2, 21000, Note_off_c, 1, 64, 0
2, 21000, Note_off_c, 1, 76, 0
2, 21040, Note_on_c, 1, 62, 127
2, 21040, Note_on_c, 1, 74, 127
2, 21120, Note_off_c, 1, 62, 0
2, 21120, Note_off_c, 1, 74, 0
2, 21160, Note_on_c, 1, 59, 127
2, 21160, Note_on_c, 1, 71, 127
2, 21200, Note_off_c, 1, 59, 0
2, 21200, Note_off_c, 1, 71, 0
2, 21240, Note_on_c, 1, 57, 127
2, 21240, Note_on_c, 1, 69, 127
2, 21320, Note_off_c, 1, 57, 0
2, 21320, Note_off_c, 1, 69, 0
2, 21360, Note_on_c, 1, 54, 127
2, 21360, Note_on_c, 1, 66, 127
2, 21400, Note_off_c, 1, 54, 0
2, 21400, Note_off_c, 1, 66, 0
2, 21440, Note_on_c, 1, 57, 127
2, 21440, Note_on_c, 1, 69, 127
2, 21520, Note_off_c, 1, 57, 0
2, 21520, Note_off_c, 1, 69, 0
2, 21560, Note_on_c, 1, 54, 127
2, 21560, Note_on_c, 1, 66, 127
2, 21640, Note_off_c, 1, 54, 0
2, 21640, Note_off_c, 1, 66, 0
2, 21680, Note_on_c, 1, 57, 127
2, 21680, Note_on_c, 1, 69, 127
2, 21720, Note_off_c, 1, 57, 0
2, 21720, Note_off_c, 1, 69, 0
2, 21760, Note_on_c, 1, 61, 127
2, 21760, Note_on_c, 1, 73, 127
2, 21840, Note_off_c, 1, 61, 0
2, 21840, Note_off_c, 1, 73, 0
2, 21880, Note_on_c, 1, 57, 127
2, 21880, Note_on_c, 1, 69, 127
2, 21920, Note_off_c, 1, 57, 0
2, 21920, Note_off_c, 1, 69, 0
2, 21960, Note_on_c, 1, 61, 127
2, 21960, Note_on_c, 1, 73, 127
2, 22040, Note_off_c, 1, 61, 0
2, 22040, Note_off_c, 1, 73, 0
2, 22080, Note_on_c, 1, 62, 127
2, 22080, Note_on_c, 1, 74, 127
2, 22120, Note_off_c, 1, 62, 0
2, 22120, Note_off_c, 1, 74, 0
2, 22160, Note_on_c, 1, 61, 127
2, 22160, Note_on_c, 1, 73, 127
2, 22240, Note_off_c, 1, 61, 0
2, 22240, Note_off_c, 1, 73, 0
2, 22280, Note_on_c, 1, 57, 127
2, 22280, Note_on_c, 1, 69, 127
2, 22320, Note_off_c, 1, 57, 0
2, 22320, Note_off_c, 1, 69, 0
2, 22360, Note_on_c, 1, 66, 127
2, 22360, Note_on_c, 1, 78, 127
2, 22440, Note_off_c, 1, 66, 0
2, 22440, Note_off_c, 1, 78, 0
2, 22480, Note_on_c, 1, 38, 127
2, 22480, Note_on_c, 1, 50, 127
2, 22480, Note_on_c, 1, 68, 127
2, 22480, Note_on_c, 1, 71, 127
2, 22480, Note_on_c, 1, 74, 127
2, 22480, Note_on_c, 1, 77, 127
2, 22720, Note_off_c, 1, 38, 0
2, 22720, Note_off_c, 1, 50, 0
2, 22720, Note_off_c, 1, 68, 0
2, 22720, Note_off_c, 1, 71, 0
2, 22720, Note_off_c, 1, 74, 0
2, 22720, Note_off_c, 1, 77, 0
2, 22760, Note_on_c, 1, 38, 127
2, 22760, Note_on_c, 1, 50, 127
2, 22760, Note_on_c, 1, 68, 127
2, 22760, Note_on_c, 1, 71, 127
2, 22760, Note_on_c, 1, 74, 127
2, 22760, Note_on_c, 1, 77, 127
2, 22800, Note_off_c, 1, 38, 0
2, 22800, Note_off_c, 1, 50, 0
2, 22800, Note_off_c, 1, 68, 0
2, 22800, Note_off_c, 1, 71, 0
2, 22800, Note_off_c, 1, 74, 0
2, 22800, Note_off_c, 1, 77, 0
2, 22880, Note_on_c, 1, 38, 127
2, 22880, Note_on_c, 1, 50, 127
2, 22880, Note_on_c, 1, 68, 127
2, 22880, Note_on_c, 1, 71, 127
2, 22880, Note_on_c, 1, 74, 127
2, 22880, Note_on_c, 1, 77, 127
2, 23040, Note_off_c, 1, 38, 0
2, 23040, Note_off_c, 1, 50, 0
2, 23040, Note_off_c, 1, 68, 0
2, 23040, Note_off_c, 1, 71, 0
2, 23040, Note_off_c, 1, 74, 0
2, 23040, Note_off_c, 1, 77, 0
2, 23080, Note_on_c, 1, 38, 127
2, 23080, Note_on_c, 1, 50, 127
2, 23080, Note_on_c, 1, 68, 127
2, 23080, Note_on_c, 1, 71, 127
2, 23080, Note_on_c, 1, 74, 127
2, 23080, Note_on_c, 1, 77, 127
2, 23120, Note_off_c, 1, 38, 0
2, 23120, Note_off_c, 1, 50, 0
2, 23120, Note_off_c, 1, 68, 0
2, 23120, Note_off_c, 1, 71, 0
2, 23120, Note_off_c, 1, 74, 0
2, 23120, Note_off_c, 1, 77, 0
2, 23160, Note_on_c, 1, 38, 127
2, 23160, Note_on_c, 1, 50, 127
2, 23160, Note_on_c, 1, 68, 127
2, 23160, Note_on_c, 1, 71, 127
2, 23160, Note_on_c, 1, 74, 127
2, 23160, Note_on_c, 1, 77, 127
2, 23240, Note_off_c, 1, 38, 0
2, 23240, Note_off_c, 1, 50, 0
2, 23240, Note_off_c, 1, 68, 0
2, 23240, Note_off_c, 1, 71, 0
2, 23240, Note_off_c, 1, 74, 0
2, 23240, Note_off_c, 1, 77, 0
2, 23280, Note_on_c, 1, 38, 127
2, 23280, Note_on_c, 1, 50, 127
2, 23280, Note_on_c, 1, 68, 127
2, 23280, Note_on_c, 1, 71, 127
2, 23280, Note_on_c, 1, 74, 127
2, 23280, Note_on_c, 1, 77, 127
2, 23400, Note_off_c, 1, 68, 0
2, 23400, Note_off_c, 1, 71, 0
2, 23400, Note_off_c, 1, 77, 0
2, 23480, Note_on_c, 1, 69, 127
2, 23480, Note_on_c, 1, 78, 127
2, 23520, Note_off_c, 1, 38, 0
2, 23520, Note_off_c, 1, 50, 0
2, 23520, Note_off_c, 1, 69, 0
2, 23520, Note_off_c, 1, 74, 0
2, 23520, Note_off_c, 1, 78, 0
2, 23840, Note_on_c, 1, 59, 127
2, 23840, Note_on_c, 1, 63, 127
2, 23840, Note_on_c, 1, 78, 127
2, 23920, Note_off_c, 1, 78, 0
2, 23960, Note_on_c, 1, 80, 127
2, 24000, Note_off_c, 1, 80, 0
2, 24040, Note_off_c, 1, 59, 0
2, 24040, Note_on_c, 1, 71, 127
2, 24040, Note_on_c, 1, 80, 127
2, 24120, Note_on_c, 1, 59, 127
2, 24120, Note_off_c, 1, 71, 0
2, 24120, Note_off_c, 1, 80, 0
2, 24160, Note_on_c, 1, 80, 127
2, 24200, Note_off_c, 1, 59, 0
2, 24200, Note_off_c, 1, 63, 0
2, 24200, Note_off_c, 1, 80, 0
2, 24240, Note_on_c, 1, 59, 127
2, 24240, Note_on_c, 1, 62, 127
2, 24240, Note_on_c, 1, 89, 127
2, 24320, Note_off_c, 1, 59, 0
2, 24320, Note_off_c, 1, 62, 0
2, 24320, Note_off_c, 1, 89, 0
2, 24360, Note_on_c, 1, 59, 127
2, 24360, Note_on_c, 1, 62, 127
2, 24360, Note_on_c, 1, 89, 127
2, 24400, Note_off_c, 1, 89, 0
2, 24440, Note_on_c, 1, 90, 127
2, 24480, Note_on_c, 1, 54, 127
2, 24480, Note_off_c, 1, 59, 0
2, 24480, Note_on_c, 1, 61, 127
2, 24480, Note_off_c, 1, 62, 0
2, 24480, Note_on_c, 1, 64, 127
2, 24480, Note_on_c, 1, 70, 127
2, 24480, Note_on_c, 1, 76, 127
2, 24480, Note_off_c, 1, 90, 0
2, 24520, Note_off_c, 1, 54, 0
2, 24520, Note_off_c, 1, 61, 0
2, 24520, Note_off_c, 1, 64, 0
2, 24520, Note_off_c, 1, 70, 0
2, 24520, Note_off_c, 1, 76, 0
2, 24560, Note_on_c, 1, 57, 127
2, 24560, Note_on_c, 1, 61, 127
2, 24560, Note_on_c, 1, 66, 127
2, 24560, Note_on_c, 1, 90, 127
2, 24680, Note_off_c, 1, 90, 0
2, 24720, Note_off_c, 1, 57, 0
2, 24720, Note_off_c, 1, 61, 0
2, 24720, Note_off_c, 1, 66, 0
2, 24720, Note_on_c, 1, 85, 127
2, 24760, Note_on_c, 1, 62, 127
2, 24760, Note_on_c, 1, 68, 127
2, 24760, Note_on_c, 1, 73, 127
2, 24760, Note_off_c, 1, 85, 0
2, 24760, Note_on_c, 1, 86, 127
2, 24760, Note_on_c, 1, 90, 127
2, 24760, Note_on_c, 1, 92, 127
2, 24960, Note_off_c, 1, 62, 0
2, 24960, Note_off_c, 1, 68, 0
2, 24960, Note_off_c, 1, 73, 0
2, 24960, Note_off_c, 1, 86, 0
2, 24960, Note_off_c, 1, 90, 0
2, 24960, Note_off_c, 1, 92, 0
2, 25000, Note_on_c, 1, 62, 127
2, 25000, Note_on_c, 1, 68, 127
2, 25000, Note_on_c, 1, 73, 127
2, 25000, Note_on_c, 1, 86, 127
2, 25000, Note_on_c, 1, 90, 127
2, 25000, Note_on_c, 1, 92, 127
2, 25160, Note_off_c, 1, 62, 0
2, 25160, Note_off_c, 1, 68, 0
2, 25160, Note_off_c, 1, 73, 0
2, 25160, Note_off_c, 1, 86, 0
2, 25160, Note_off_c, 1, 90, 0
2, 25160, Note_off_c, 1, 92, 0
2, 25200, Note_on_c, 1, 57, 127
2, 25200, Note_on_c, 1, 67, 127
2, 25200, Note_on_c, 1, 83, 127
2, 25360, Note_off_c, 1, 57, 0
2, 25360, Note_off_c, 1, 67, 0
2, 25360, Note_off_c, 1, 83, 0
2, 25400, Note_on_c, 1, 83, 127
2, 25440, Note_on_c, 1, 81, 127
2, 25440, Note_off_c, 1, 83, 0
2, 25520, Note_off_c, 1, 81, 0
2, 25560, Note_on_c, 1, 78, 127
2, 25600, Note_on_c, 1, 52, 127
2, 25600, Note_on_c, 1, 61, 127
2, 25600, Note_on_c, 1, 76, 127
2, 25600, Note_off_c, 1, 78, 0
2, 25720, Note_off_c, 1, 76, 0
2, 25760, Note_off_c, 1, 52, 0
2, 25760, Note_off_c, 1, 61, 0
2, 25760, Note_on_c, 1, 76, 127
2, 25800, Note_on_c, 1, 57, 127
2, 25800, Note_on_c, 1, 64, 127
2, 25800, Note_on_c, 1, 73, 127
2, 25800, Note_off_c, 1, 76, 0
2, 25960, Note_off_c, 1, 57, 0
2, 25960, Note_off_c, 1, 64, 0
2, 25960, Note_off_c, 1, 73, 0
2, 26000, Note_on_c, 1, 45, 127
2, 26000, Note_on_c, 1, 57, 127
2, 26000, Note_on_c, 1, 61, 127
2, 26000, Note_on_c, 1, 69, 127
2, 26160, Note_off_c, 1, 45, 0
2, 26160, Note_off_c, 1, 57, 0
2, 26160, Note_off_c, 1, 61, 0
2, 26160, Note_off_c, 1, 69, 0
2, 26640, Note_on_c, 1, 42, 127
2, 26640, Note_on_c, 1, 54, 127
2, 26640, Note_on_c, 1, 66, 127
2, 26640, Note_on_c, 1, 78, 127
2, 26880, Note_off_c, 1, 42, 0
2, 26880, Note_off_c, 1, 54, 0
2, 26880, Note_off_c, 1, 66, 0
2, 26880, Note_off_c, 1, 78, 0
2, 26920, Note_on_c, 1, 42, 127
2, 26920, Note_on_c, 1, 54, 127
2, 26920, Note_on_c, 1, 66, 127
2, 26920, Note_on_c, 1, 78, 127
2, 27000, Note_off_c, 1, 42, 0
2, 27000, Note_off_c, 1, 54, 0
2, 27000, Note_off_c, 1, 66, 0
2, 27000, Note_off_c, 1, 78, 0
2, 27080, Note_on_c, 1, 47, 127
2, 27080, Note_on_c, 1, 59, 127
2, 27080, Note_on_c, 1, 71, 127
2, 27080, Note_on_c, 1, 83, 127
2, 27320, Note_off_c, 1, 47, 0
2, 27320, Note_off_c, 1, 59, 0
2, 27320, Note_off_c, 1, 71, 0
2, 27320, Note_off_c, 1, 83, 0
2, 27360, Note_on_c, 1, 46, 127
2, 27360, Note_on_c, 1, 58, 127
2, 27360, Note_on_c, 1, 70, 127
2, 27360, Note_on_c, 1, 82, 127
2, 27400, Note_off_c, 1, 46, 0
2, 27400, Note_off_c, 1, 58, 0
2, 27400, Note_off_c, 1, 70, 0
2, 27400, Note_off_c, 1, 82, 0
2, 27480, Note_on_c, 1, 45, 127
2, 27480, Note_on_c, 1, 57, 127
2, 27480, Note_on_c, 1, 69, 127
2, 27480, Note_on_c, 1, 81, 127
2, 27520, Note_off_c, 1, 45, 0
2, 27520, Note_off_c, 1, 57, 0
2, 27520, Note_off_c, 1, 69, 0
2, 27520, Note_off_c, 1, 81, 0
2, 27640, Note_on_c, 1, 44, 127
2, 27640, Note_on_c, 1, 56, 127
2, 27640, Note_on_c, 1, 68, 127
2, 27640, Note_on_c, 1, 80, 127
2, 27680, Note_off_c, 1, 44, 0
2, 27680, Note_off_c, 1, 56, 0
2, 27680, Note_off_c, 1, 68, 0
2, 27680, Note_off_c, 1, 80, 0
2, 27720, Note_on_c, 1, 42, 127
2, 27720, Note_on_c, 1, 54, 127
2, 27720, Note_on_c, 1, 66, 127
2, 27720, Note_on_c, 1, 78, 127
2, 27760, Note_off_c, 1, 42, 0
2, 27760, Note_off_c, 1, 54, 0
2, 27760, Note_off_c, 1, 66, 0
2, 27760, Note_off_c, 1, 78, 0
2, 27840, Note_on_c, 1, 42, 127
2, 27840, Note_on_c, 1, 54, 127
2, 27840, Note_on_c, 1, 66, 127
2, 27840, Note_on_c, 1, 78, 127
2, 27880, Note_off_c, 1, 42, 0
2, 27880, Note_off_c, 1, 54, 0
2, 27880, Note_off_c, 1, 66, 0
2, 27880, Note_off_c, 1, 78, 0
2, 27920, Note_on_c, 1, 42, 127
2, 27920, Note_on_c, 1, 54, 127
2, 27920, Note_on_c, 1, 66, 127
2, 27920, Note_on_c, 1, 78, 127
2, 28080, Note_off_c, 1, 42, 0
2, 28080, Note_off_c, 1, 54, 0
2, 28080, Note_off_c, 1, 66, 0
2, 28080, Note_off_c, 1, 78, 0
2, 28120, Note_on_c, 1, 42, 127
2, 28120, Note_on_c, 1, 54, 127
2, 28120, Note_on_c, 1, 66, 127
2, 28120, Note_on_c, 1, 78, 127
2, 28160, Note_off_c, 1, 42, 0
2, 28160, Note_off_c, 1, 54, 0
2, 28160, Note_off_c, 1, 66, 0
2, 28160, Note_off_c, 1, 78, 0
2, 28240, Note_on_c, 1, 49, 127
2, 28240, Note_on_c, 1, 61, 127
2, 28240, Note_on_c, 1, 73, 127
2, 28240, Note_on_c, 1, 85, 127
2, 28280, Note_off_c, 1, 49, 0
2, 28280, Note_off_c, 1, 61, 0
2, 28280, Note_off_c, 1, 73, 0
2, 28280, Note_off_c, 1, 85, 0
2, 28320, Note_on_c, 1, 49, 127
2, 28320, Note_on_c, 1, 61, 127
2, 28320, Note_on_c, 1, 73, 127
2, 28320, Note_on_c, 1, 85, 127
2, 28360, Note_off_c, 1, 49, 0
2, 28360, Note_off_c, 1, 61, 0
2, 28360, Note_off_c, 1, 73, 0
2, 28360, Note_off_c, 1, 85, 0
2, 28480, Note_on_c, 1, 49, 127
2, 28480, Note_on_c, 1, 61, 127
2, 28480, Note_on_c, 1, 73, 127
2, 28480, Note_on_c, 1, 85, 127
2, 28760, Note_off_c, 1, 49, 0
2, 28760, Note_off_c, 1, 61, 0
2, 28760, Note_off_c, 1, 73, 0
2, 28760, Note_off_c, 1, 85, 0
2, 28840, Note_on_c, 1, 49, 127
2, 28840, Note_on_c, 1, 61, 127
2, 28840, Note_on_c, 1, 73, 127
2, 28840, Note_on_c, 1, 85, 127
2, 28880, Note_off_c, 1, 49, 0
2, 28880, Note_off_c, 1, 61, 0
2, 28880, Note_off_c, 1, 73, 0
2, 28880, Note_off_c, 1, 85, 0
2, 28920, Note_on_c, 1, 49, 127
2, 28920, Note_on_c, 1, 61, 127
2, 28920, Note_on_c, 1, 73, 127
2, 28920, Note_on_c, 1, 85, 127
2, 28960, Note_off_c, 1, 49, 0
2, 28960, Note_off_c, 1, 61, 0
2, 28960, Note_off_c, 1, 73, 0
2, 28960, Note_off_c, 1, 85, 0
2, 29040, Note_on_c, 1, 47, 127
2, 29040, Note_on_c, 1, 59, 127
2, 29040, Note_on_c, 1, 71, 127
2, 29040, Note_on_c, 1, 83, 127
2, 29080, Note_off_c, 1, 47, 0
2, 29080, Note_off_c, 1, 59, 0
2, 29080, Note_off_c, 1, 71, 0
2, 29080, Note_off_c, 1, 83, 0
2, 29120, Note_on_c, 1, 42, 127
2, 29120, Note_on_c, 1, 54, 127
2, 29120, Note_on_c, 1, 66, 127
2, 29120, Note_on_c, 1, 78, 127
2, 29160, Note_off_c, 1, 42, 0
2, 29160, Note_off_c, 1, 54, 0
2, 29160, Note_off_c, 1, 66, 0
2, 29160, Note_off_c, 1, 78, 0
2, 29280, Note_on_c, 1, 42, 127
2, 29280, Note_on_c, 1, 54, 127
2, 29280, Note_on_c, 1, 66, 127
2, 29280, Note_on_c, 1, 78, 127
2, 29320, Note_off_c, 1, 42, 0
2, 29320, Note_off_c, 1, 54, 0
2, 29320, Note_off_c, 1, 66, 0
2, 29320, Note_off_c, 1, 78, 0
2, 29360, Note_on_c, 1, 46, 127
2, 29360, Note_on_c, 1, 58, 127
2, 29360, Note_on_c, 1, 70, 127
2, 29360, Note_on_c, 1, 82, 127
2, 29400, Note_off_c, 1, 46, 0
2, 29400, Note_off_c, 1, 58, 0
2, 29400, Note_off_c, 1, 70, 0
2, 29400, Note_off_c, 1, 82, 0
2, 29440, Note_on_c, 1, 42, 127
2, 29440, Note_on_c, 1, 54, 127
2, 29440, Note_on_c, 1, 66, 127
2, 29440, Note_on_c, 1, 78, 127
2, 29480, Note_off_c, 1, 42, 0
2, 29480, Note_off_c, 1, 54, 0
2, 29480, Note_off_c, 1, 66, 0
2, 29480, Note_off_c, 1, 78, 0
2, 29560, Note_on_c, 1, 46, 127
2, 29560, Note_on_c, 1, 58, 127
2, 29560, Note_on_c, 1, 70, 127
2, 29560, Note_on_c, 1, 82, 127
2, 29600, Note_off_c, 1, 46, 0
2, 29600, Note_off_c, 1, 58, 0
2, 29600, Note_off_c, 1, 70, 0
2, 29600, Note_off_c, 1, 82, 0
2, 29640, Note_on_c, 1, 44, 127
2, 29640, Note_on_c, 1, 56, 127
2, 29640, Note_on_c, 1, 68, 127
2, 29640, Note_on_c, 1, 80, 127
2, 29680, Note_off_c, 1, 44, 0
2, 29680, Note_off_c, 1, 56, 0
2, 29680, Note_off_c, 1, 68, 0
2, 29680, Note_off_c, 1, 80, 0
2, 29760, Note_on_c, 1, 42, 127
2, 29760, Note_on_c, 1, 54, 127
2, 29760, Note_on_c, 1, 66, 127
2, 29760, Note_on_c, 1, 78, 127
2, 29800, Note_off_c, 1, 42, 0
2, 29800, Note_off_c, 1, 54, 0
2, 29800, Note_off_c, 1, 66, 0
2, 29800, Note_off_c, 1, 78, 0
2, 29840, Note_on_c, 1, 42, 127
2, 29840, Note_on_c, 1, 54, 127
2, 29840, Note_on_c, 1, 66, 127
2, 29840, Note_on_c, 1, 78, 127
2, 29880, Note_off_c, 1, 42, 0
2, 29880, Note_off_c, 1, 54, 0
2, 29880, Note_off_c, 1, 66, 0
2, 29880, Note_off_c, 1, 78, 0
2, 29960, Note_on_c, 1, 42, 127
2, 29960, Note_on_c, 1, 54, 127
2, 29960, Note_on_c, 1, 66, 127
2, 29960, Note_on_c, 1, 78, 127
2, 30000, Note_off_c, 1, 42, 0
2, 30000, Note_off_c, 1, 54, 0
2, 30000, Note_off_c, 1, 66, 0
2, 30000, Note_off_c, 1, 78, 0
2, 30040, Note_on_c, 1, 45, 127
2, 30040, Note_on_c, 1, 57, 127
2, 30040, Note_on_c, 1, 69, 127
2, 30040, Note_on_c, 1, 81, 127
2, 30080, Note_off_c, 1, 45, 0
2, 30080, Note_off_c, 1, 57, 0
2, 30080, Note_off_c, 1, 69, 0
2, 30080, Note_off_c, 1, 81, 0
2, 30160, Note_on_c, 1, 42, 127
2, 30160, Note_on_c, 1, 54, 127
2, 30160, Note_on_c, 1, 66, 127
2, 30160, Note_on_c, 1, 78, 127
2, 30200, Note_off_c, 1, 42, 0
2, 30200, Note_off_c, 1, 54, 0
2, 30200, Note_off_c, 1, 66, 0
2, 30200, Note_off_c, 1, 78, 0
2, 30240, Note_on_c, 1, 42, 127
2, 30240, Note_on_c, 1, 54, 127
2, 30240, Note_on_c, 1, 66, 127
2, 30240, Note_on_c, 1, 78, 127
2, 30280, Note_off_c, 1, 42, 0
2, 30280, Note_off_c, 1, 54, 0
2, 30280, Note_off_c, 1, 66, 0
2, 30280, Note_off_c, 1, 78, 0
2, 30360, Note_on_c, 1, 42, 127
2, 30360, Note_on_c, 1, 54, 127
2, 30360, Note_on_c, 1, 66, 127
2, 30360, Note_on_c, 1, 78, 127
2, 30400, Note_off_c, 1, 42, 0
2, 30400, Note_off_c, 1, 54, 0
2, 30400, Note_off_c, 1, 66, 0
2, 30400, Note_off_c, 1, 78, 0
2, 30440, Note_on_c, 1, 42, 127
2, 30440, Note_on_c, 1, 54, 127
2, 30440, Note_on_c, 1, 66, 127
2, 30440, Note_on_c, 1, 78, 127
2, 30480, Note_off_c, 1, 42, 0
2, 30480, Note_off_c, 1, 54, 0
2, 30480, Note_off_c, 1, 66, 0
2, 30480, Note_off_c, 1, 78, 0
2, 30560, Note_on_c, 1, 42, 127
2, 30560, Note_on_c, 1, 54, 127
2, 30560, Note_on_c, 1, 66, 127
2, 30560, Note_on_c, 1, 78, 127
2, 30600, Note_off_c, 1, 42, 0
2, 30600, Note_off_c, 1, 54, 0
2, 30600, Note_off_c, 1, 66, 0
2, 30600, Note_off_c, 1, 78, 0
2, 30640, Note_on_c, 1, 42, 127
2, 30640, Note_on_c, 1, 54, 127
2, 30640, Note_on_c, 1, 66, 127
2, 30640, Note_on_c, 1, 78, 127
2, 30680, Note_off_c, 1, 42, 0
2, 30680, Note_off_c, 1, 54, 0
2, 30680, Note_off_c, 1, 66, 0
2, 30680, Note_off_c, 1, 78, 0
2, 30760, Note_on_c, 1, 38, 127
2, 30760, Note_on_c, 1, 50, 127
2, 30760, Note_on_c, 1, 62, 127
2, 30760, Note_on_c, 1, 74, 127
2, 30800, Note_off_c, 1, 38, 0
2, 30800, Note_off_c, 1, 50, 0
2, 30800, Note_off_c, 1, 62, 0
2, 30800, Note_off_c, 1, 74, 0
2, 30840, Note_on_c, 1, 42, 127
2, 30840, Note_on_c, 1, 54, 127
2, 30840, Note_on_c, 1, 66, 127
2, 30840, Note_on_c, 1, 78, 127
2, 30880, Note_off_c, 1, 42, 0
2, 30880, Note_off_c, 1, 54, 0
2, 30880, Note_off_c, 1, 66, 0
2, 30880, Note_off_c, 1, 78, 0
2, 30960, Note_on_c, 1, 42, 127
2, 30960, Note_on_c, 1, 54, 127
2, 30960, Note_on_c, 1, 66, 127
2, 30960, Note_on_c, 1, 78, 127
2, 31000, Note_off_c, 1, 42, 0
2, 31000, Note_off_c, 1, 54, 0
2, 31000, Note_off_c, 1, 66, 0
2, 31000, Note_off_c, 1, 78, 0
2, 31040, Note_on_c, 1, 30, 127
2, 31040, Note_on_c, 1, 42, 127
2, 31040, Note_on_c, 1, 54, 127
2, 31040, Note_on_c, 1, 66, 127
2, 31080, Note_off_c, 1, 30, 0
2, 31080, Note_off_c, 1, 42, 0
2, 31080, Note_off_c, 1, 54, 0
2, 31080, Note_off_c, 1, 66, 0
2, 31160, Note_on_c, 1, 42, 127
2, 31160, Note_on_c, 1, 54, 127
2, 31160, Note_on_c, 1, 66, 127
2, 31200, Note_off_c, 1, 42, 0
2, 31200, Note_off_c, 1, 54, 0
2, 31200, Note_off_c, 1, 66, 0
2, 31240, Note_on_c, 1, 42, 127
2, 31240, Note_on_c, 1, 54, 127
2, 31240, Note_on_c, 1, 66, 127
2, 31280, Note_off_c, 1, 42, 0
2, 31280, Note_off_c, 1, 54, 0
2, 31280, Note_off_c, 1, 66, 0
2, 31360, Note_on_c, 1, 42, 127
2, 31360, Note_on_c, 1, 54, 127
2, 31360, Note_on_c, 1, 66, 127
2, 31400, Note_off_c, 1, 42, 0
2, 31400, Note_off_c, 1, 54, 0
2, 31400, Note_off_c, 1, 66, 0
2, 31480, Note_on_c, 1, 42, 127
2, 31480, Note_on_c, 1, 54, 127
2, 31480, Note_on_c, 1, 66, 127
2, 31560, Note_off_c, 1, 42, 0
2, 31560, Note_off_c, 1, 54, 0
2, 31560, Note_off_c, 1, 66, 0
2, 31600, Note_on_c, 1, 34, 127
2, 31600, Note_on_c, 1, 46, 127
2, 31600, Note_on_c, 1, 58, 127
2, 31840, Note_off_c, 1, 34, 0
2, 31840, Note_off_c, 1, 46, 0
2, 31840, Note_off_c, 1, 58, 0
2, 31880, Note_on_c, 1, 34, 127
2, 31880, Note_on_c, 1, 46, 127
2, 31880, Note_on_c, 1, 58, 127
2, 31920, Note_off_c, 1, 34, 0
2, 31920, Note_off_c, 1, 46, 0
2, 31920, Note_off_c, 1, 58, 0
2, 32000, Note_on_c, 1, 34, 127
2, 32000, Note_on_c, 1, 46, 127
2, 32000, Note_on_c, 1, 58, 127
2, 32160, Note_off_c, 1, 34, 0
2, 32160, Note_off_c, 1, 46, 0
2, 32160, Note_off_c, 1, 58, 0
2, 32200, Note_on_c, 1, 34, 127
2, 32200, Note_on_c, 1, 46, 127
2, 32200, Note_on_c, 1, 58, 127
2, 32240, Note_off_c, 1, 34, 0
2, 32240, Note_off_c, 1, 46, 0
2, 32240, Note_off_c, 1, 58, 0
2, 32320, Note_on_c, 1, 39, 127
2, 32320, Note_on_c, 1, 51, 127
2, 32320, Note_on_c, 1, 63, 127
2, 32360, Note_off_c, 1, 39, 0
2, 32360, Note_off_c, 1, 51, 0
2, 32360, Note_off_c, 1, 63, 0
2, 32440, Note_on_c, 1, 42, 127
2, 32440, Note_on_c, 1, 54, 127
2, 32440, Note_on_c, 1, 66, 127
2, 32480, Note_off_c, 1, 42, 0
2, 32480, Note_off_c, 1, 54, 0
2, 32480, Note_off_c, 1, 66, 0
2, 32600, Note_on_c, 1, 30, 127
2, 32600, Note_on_c, 1, 42, 127
2, 32600, Note_on_c, 1, 54, 127
2, 32600, Note_on_c, 1, 66, 127
2, 32640, Note_off_c, 1, 30, 0
2, 32640, Note_off_c, 1, 42, 0
2, 32640, Note_off_c, 1, 54, 0
2, 32640, Note_off_c, 1, 66, 0
2, 32800, Note_on_c, 1, 34, 127
2, 32800, Note_on_c, 1, 46, 127
2, 32800, Note_on_c, 1, 58, 127
2, 32840, Note_off_c, 1, 34, 0
2, 32840, Note_off_c, 1, 46, 0
2, 32840, Note_off_c, 1, 58, 0
2, 33000, Note_on_c, 1, 39, 127
2, 33000, Note_on_c, 1, 51, 127
2, 33000, Note_on_c, 1, 63, 127
2, 33000, Note_on_c, 1, 75, 127
2, 33040, Note_off_c, 1, 39, 0
2, 33040, Note_off_c, 1, 51, 0
2, 33040, Note_off_c, 1, 63, 0
2, 33040, Note_off_c, 1, 75, 0
2, 34280, Note_on_c, 1, 33, 127
2, 34280, Note_on_c, 1, 45, 127
2, 34280, Note_on_c, 1, 57, 127
2, 34560, Note_off_c, 1, 33, 0
2, 34560, Note_off_c, 1, 45, 0
2, 34560, Note_off_c, 1, 57, 0
2, 34600, Note_on_c, 1, 33, 127
2, 34600, Note_on_c, 1, 45, 127
2, 34600, Note_on_c, 1, 57, 127
2, 35880, Note_off_c, 1, 33, 0
2, 35880, Note_off_c, 1, 45, 0
2, 35880, Note_off_c, 1, 57, 0
2, 35920, Note_on_c, 1, 33, 127
2, 35920, Note_on_c, 1, 45, 127
2, 35920, Note_on_c, 1, 57, 127
2, 36120, Note_off_c, 1, 33, 0
2, 36120, Note_off_c, 1, 45, 0
2, 36120, Note_off_c, 1, 57, 0
2, 36160, Note_on_c, 1, 33, 127
2, 36160, Note_on_c, 1, 45, 127
2, 36160, Note_on_c, 1, 57, 127
2, 36680, Note_off_c, 1, 33, 0
2, 36680, Note_off_c, 1, 45, 0
2, 36680, Note_off_c, 1, 57, 0
2, 36720, Note_on_c, 1, 33, 127
2, 36720, Note_on_c, 1, 45, 127
2, 36720, Note_on_c, 1, 57, 127
2, 38280, Note_off_c, 1, 33, 0
2, 38280, Note_off_c, 1, 45, 0
2, 38280, Note_off_c, 1, 57, 0
2, 38360, Note_on_c, 1, 33, 127
2, 38360, Note_on_c, 1, 45, 127
2, 38360, Note_on_c, 1, 57, 127
2, 40360, Note_off_c, 1, 33, 0
2, 40360, Note_off_c, 1, 45, 0
2, 40360, Note_off_c, 1, 57, 0
2, 40400, Note_on_c, 1, 33, 127
2, 40400, Note_on_c, 1, 45, 127
2, 40400, Note_on_c, 1, 57, 127
2, 41560, Note_off_c, 1, 33, 0
2, 41560, Note_off_c, 1, 45, 0
2, 41560, Note_off_c, 1, 57, 0
2, 41560, Note_on_c, 1, 69, 127
2, 41600, Note_on_c, 1, 45, 127
2, 42160, Note_off_c, 1, 69, 0
2, 42200, Note_on_c, 1, 69, 127
2, 42360, Note_off_c, 1, 45, 0
2, 42360, Note_off_c, 1, 69, 0
2, 42440, Note_on_c, 1, 43, 127
2, 42440, Note_on_c, 1, 71, 127
2, 43200, Note_off_c, 1, 43, 0
2, 43200, Note_off_c, 1, 71, 0
2, 43680, Note_on_c, 1, 79, 127
2, 43880, Note_off_c, 1, 79, 0
2, 43920, Note_on_c, 1, 79, 127
2, 44120, Note_off_c, 1, 79, 0
2, 44360, Note_on_c, 1, 79, 127
2, 44560, Note_off_c, 1, 79, 0
2, 44840, Note_on_c, 1, 78, 127
2, 45040, Note_off_c, 1, 78, 0
2, 45080, Note_on_c, 1, 81, 127
2, 45080, Note_on_c, 1, 82, 127
2, 45120, Note_off_c, 1, 81, 0
2, 45120, Note_off_c, 1, 82, 0
2, 45480, Note_on_c, 1, 78, 127
2, 45680, Note_off_c, 1, 78, 0
2, 45720, Note_on_c, 1, 76, 127
2, 45920, Note_off_c, 1, 76, 0
2, 45960, Note_on_c, 1, 79, 127
2, 46360, Note_off_c, 1, 79, 0
2, 46760, Note_on_c, 1, 78, 127
2, 46960, Note_off_c, 1, 78, 0
2, 47000, Note_on_c, 1, 74, 127
2, 47400, Note_off_c, 1, 74, 0
2, 47440, Note_on_c, 1, 71, 127
2, 47600, Note_off_c, 1, 71, 0
2, 48080, Note_on_c, 1, 74, 127
2, 48240, Note_off_c, 1, 74, 0
2, 48280, Note_on_c, 1, 45, 127
2, 48280, Note_on_c, 1, 52, 127
2, 48280, Note_on_c, 1, 73, 127
2, 48440, Note_off_c, 1, 52, 0
2, 48480, Note_off_c, 1, 73, 0
2, 48520, Note_off_c, 1, 45, 0
2, 48560, Note_on_c, 1, 45, 127
2, 48560, Note_on_c, 1, 64, 127
2, 48560, Note_on_c, 1, 76, 127
2, 49160, Note_off_c, 1, 45, 0
2, 49160, Note_off_c, 1, 64, 0
2, 49160, Note_off_c, 1, 76, 0
2, 49400, Note_on_c, 1, 74, 127
2, 50240, Note_on_c, 1, 57, 127
2, 50400, Note_off_c, 1, 57, 0
2, 50440, Note_on_c, 1, 62, 127
2, 50600, Note_off_c, 1, 62, 0
2, 50640, Note_off_c, 1, 74, 0
2, 50680, Note_on_c, 1, 62, 127
2, 50680, Note_on_c, 1, 74, 127
2, 50880, Note_off_c, 1, 62, 0
2, 50920, Note_on_c, 1, 66, 127
2, 51080, Note_off_c, 1, 66, 0
2, 51120, Note_on_c, 1, 62, 127
2, 51320, Note_off_c, 1, 62, 0
2, 51360, Note_on_c, 1, 66, 127
2, 51520, Note_off_c, 1, 66, 0
2, 51560, Note_on_c, 1, 62, 127
2, 51720, Note_off_c, 1, 62, 0
2, 51720, Note_off_c, 1, 74, 0
2, 51760, Note_on_c, 1, 45, 127
2, 51760, Note_on_c, 1, 69, 127
2, 51960, Note_off_c, 1, 45, 0
2, 51960, Note_off_c, 1, 69, 0
2, 53320, Note_on_c, 1, 50, 127
2, 53320, Note_on_c, 1, 57, 127
2, 53320, Note_on_c, 1, 62, 127
2, 53320, Note_on_c, 1, 66, 127
2, 53320, Note_on_c, 1, 71, 127
2, 53480, Note_off_c, 1, 71, 0
2, 54120, Note_off_c, 1, 50, 0
2, 54120, Note_off_c, 1, 57, 0
2, 54120, Note_off_c, 1, 62, 0
2, 54120, Note_off_c, 1, 66, 0
2, 55880, Note_on_c, 1, 39, 127
2, 56880, Note_off_c, 1, 39, 0
2, 56920, Note_on_c, 1, 44, 127
2, 57240, Note_off_c, 1, 44, 0
2, 57280, Note_on_c, 1, 44, 127
2, 57320, Note_off_c, 1, 44, 0
2, 57360, Note_on_c, 1, 51, 127
2, 57720, Note_off_c, 1, 51, 0
2, 57760, Note_on_c, 1, 58, 127
2, 58120, Note_off_c, 1, 58, 0
2, 58160, Note_on_c, 1, 51, 127
2, 58560, Note_off_c, 1, 51, 0
2, 58600, Note_on_c, 1, 51, 127
2, 58960, Note_off_c, 1, 51, 0
2, 59000, Note_on_c, 1, 46, 127
2, 59360, Note_off_c, 1, 46, 0
2, 59440, Note_on_c, 1, 51, 127
2, 59800, Note_off_c, 1, 51, 0
2, 59840, Note_on_c, 1, 46, 127
2, 60240, Note_off_c, 1, 46, 0
2, 60280, Note_on_c, 1, 46, 127
2, 60640, Note_off_c, 1, 46, 0
2, 60680, Note_on_c, 1, 51, 127
2, 61040, Note_off_c, 1, 51, 0
2, 61080, Note_on_c, 1, 58, 127
2, 61480, Note_off_c, 1, 58, 0
2, 61560, Note_on_c, 1, 55, 127
2, 61880, Note_off_c, 1, 55, 0
2, 61920, Note_on_c, 1, 53, 127
2, 62320, Note_off_c, 1, 53, 0
2, 62360, Note_on_c, 1, 58, 127
2, 62720, Note_off_c, 1, 58, 0
2, 62760, Note_on_c, 1, 51, 127
2, 63080, Note_off_c, 1, 51, 0
2, 63120, Note_on_c, 1, 55, 127
2, 63480, Note_off_c, 1, 55, 0
2, 63560, Note_on_c, 1, 51, 127
2, 63960, Note_off_c, 1, 51, 0
2, 64000, Note_on_c, 1, 48, 127
2, 64320, Note_off_c, 1, 48, 0
2, 64360, Note_on_c, 1, 51, 127
2, 64720, Note_off_c, 1, 51, 0
2, 64760, Note_on_c, 1, 46, 127
2, 65160, Note_off_c, 1, 46, 0
2, 65200, Note_on_c, 1, 52, 127
2, 65520, Note_off_c, 1, 52, 0
2, 65560, Note_on_c, 1, 52, 127
2, 65600, Note_off_c, 1, 52, 0
2, 65640, Note_on_c, 1, 46, 127
2, 66000, Note_off_c, 1, 46, 0
2, 66040, Note_on_c, 1, 46, 127
2, 66400, Note_off_c, 1, 46, 0
2, 66440, Note_on_c, 1, 50, 127
2, 66840, Note_off_c, 1, 50, 0
2, 66880, Note_on_c, 1, 46, 127
2, 67200, Note_off_c, 1, 46, 0
2, 67200, Note_on_c, 1, 52, 127
2, 67240, Note_off_c, 1, 52, 0
2, 67280, Note_on_c, 1, 51, 127
2, 67520, Note_off_c, 1, 51, 0
2, 67560, Note_on_c, 1, 51, 127
2, 67720, Note_off_c, 1, 51, 0
2, 67760, Note_on_c, 1, 46, 127
2, 68120, Note_off_c, 1, 46, 0
2, 68160, Note_on_c, 1, 38, 127
2, 68520, Note_off_c, 1, 38, 0
2, 68560, Note_on_c, 1, 34, 127
2, 68560, Note_on_c, 1, 74, 127
2, 69360, Note_off_c, 1, 34, 0
2, 69360, Note_off_c, 1, 74, 0
2, 69440, Note_on_c, 1, 34, 127
2, 69800, Note_off_c, 1, 34, 0
2, 69840, Note_on_c, 1, 34, 127
2, 69880, Note_off_c, 1, 34, 0
2, 69880, Note_on_c, 1, 35, 127
2, 69920, Note_on_c, 1, 34, 127
2, 69920, Note_off_c, 1, 35, 0
2, 69960, Note_off_c, 1, 34, 0
2, 69960, Note_on_c, 1, 35, 127
2, 70200, Note_off_c, 1, 35, 0
2, 70240, Note_on_c, 1, 46, 127
2, 70600, Note_off_c, 1, 46, 0
2, 70640, Note_on_c, 1, 50, 127
2, 71000, Note_off_c, 1, 50, 0
2, 71040, Note_on_c, 1, 58, 127
2, 71400, Note_off_c, 1, 58, 0
2, 71440, Note_on_c, 1, 55, 127
2, 71520, Note_off_c, 1, 55, 0
2, 71560, Note_on_c, 1, 55, 127
2, 71840, Note_off_c, 1, 55, 0
2, 71880, Note_on_c, 1, 58, 127
2, 72280, Note_off_c, 1, 58, 0
2, 72320, Note_on_c, 1, 62, 127
2, 73120, Note_off_c, 1, 62, 0
2, 73160, Note_on_c, 1, 63, 127
2, 73520, Note_off_c, 1, 63, 0
2, 73600, Note_on_c, 1, 62, 127
2, 73600, Note_on_c, 1, 70, 127
2, 74000, Note_off_c, 1, 62, 0
2, 74000, Note_off_c, 1, 70, 0
2, 74040, Note_on_c, 1, 58, 127
2, 74040, Note_on_c, 1, 75, 127
2, 74400, Note_off_c, 1, 58, 0
2, 74400, Note_off_c, 1, 75, 0
2, 74440, Note_on_c, 1, 50, 127
2, 74440, Note_on_c, 1, 77, 127
2, 74800, Note_off_c, 1, 50, 0
2, 74840, Note_on_c, 1, 58, 127
2, 75440, Note_off_c, 1, 58, 0
2, 75440, Note_off_c, 1, 77, 0
2, 75480, Note_on_c, 1, 58, 127
2, 75480, Note_on_c, 1, 77, 127
2, 75720, Note_off_c, 1, 58, 0
2, 75760, Note_on_c, 1, 53, 127
2, 76080, Note_off_c, 1, 53, 0
2, 76120, Note_on_c, 1, 53, 127
2, 76360, Note_off_c, 1, 53, 0
2, 76400, Note_on_c, 1, 58, 127
2, 76480, Note_off_c, 1, 58, 0
2, 76520, Note_on_c, 1, 50, 127
2, 76880, Note_off_c, 1, 50, 0
2, 76920, Note_on_c, 1, 57, 127
2, 77360, Note_off_c, 1, 57, 0
2, 77360, Note_off_c, 1, 77, 0
2, 77440, Note_on_c, 1, 43, 127
2, 77440, Note_on_c, 1, 79, 127
2, 77680, Note_off_c, 1, 43, 0
2, 77680, Note_on_c, 1, 45, 127
2, 77680, Note_off_c, 1, 79, 0
2, 77680, Note_on_c, 1, 81, 127
2, 77760, Note_on_c, 1, 43, 127
2, 77760, Note_off_c, 1, 45, 0
2, 77760, Note_on_c, 1, 79, 127
2, 77760, Note_off_c, 1, 81, 0
2, 77800, Note_off_c, 1, 43, 0
2, 77800, Note_off_c, 1, 79, 0
2, 77840, Note_on_c, 1, 39, 127
2, 77840, Note_on_c, 1, 79, 127
2, 78200, Note_off_c, 1, 39, 0
2, 78200, Note_off_c, 1, 79, 0
2, 78240, Note_on_c, 1, 46, 127
2, 78240, Note_on_c, 1, 79, 127
2, 78600, Note_off_c, 1, 46, 0
2, 78640, Note_on_c, 1, 48, 127
2, 79040, Note_off_c, 1, 48, 0
2, 79040, Note_off_c, 1, 79, 0
2, 79080, Note_on_c, 1, 51, 127
2, 79080, Note_on_c, 1, 77, 127
2, 79400, Note_off_c, 1, 51, 0
2, 79400, Note_off_c, 1, 77, 0
2, 79440, Note_on_c, 1, 51, 127
2, 79440, Note_on_c, 1, 77, 127
2, 79520, Note_off_c, 1, 51, 0
2, 79520, Note_on_c, 1, 75, 127
2, 79520, Note_off_c, 1, 77, 0
2, 79560, Note_on_c, 1, 55, 127
2, 79920, Note_off_c, 1, 55, 0
2, 79960, Note_on_c, 1, 63, 127
2, 80360, Note_off_c, 1, 63, 0
2, 80360, Note_off_c, 1, 75, 0
2, 80400, Note_on_c, 1, 36, 127
2, 80760, Note_off_c, 1, 36, 0
2, 80800, Note_on_c, 1, 39, 127
2, 80800, Note_on_c, 1, 62, 127
2, 81320, Note_off_c, 1, 39, 0
2, 81320, Note_off_c, 1, 62, 0
2, 81360, Note_on_c, 1, 39, 127
2, 81360, Note_on_c, 1, 62, 127
2, 81480, Note_off_c, 1, 39, 0
2, 81480, Note_off_c, 1, 62, 0
2, 81520, Note_on_c, 1, 44, 127
2, 81920, Note_off_c, 1, 44, 0
2, 81960, Note_on_c, 1, 48, 127
2, 82320, Note_off_c, 1, 48, 0
2, 82360, Note_on_c, 1, 46, 127
2, 82360, Note_on_c, 1, 70, 127
2, 82560, Note_off_c, 1, 70, 0
2, 83160, Note_off_c, 1, 46, 0
2, 83200, Note_on_c, 1, 48, 127
2, 83200, Note_on_c, 1, 68, 127
2, 83280, Note_off_c, 1, 48, 0
2, 83280, Note_off_c, 1, 68, 0
2, 83320, Note_on_c, 1, 48, 127
2, 83320, Note_on_c, 1, 68, 127
2, 83440, Note_off_c, 1, 48, 0
2, 83480, Note_on_c, 1, 53, 127
2, 84280, Note_on_c, 1, 51, 127
2, 84280, Note_off_c, 1, 53, 0
2, 84280, Note_on_c, 1, 60, 127
2, 84280, Note_off_c, 1, 68, 0
2, 84520, Note_off_c, 1, 51, 0
2, 84520, Note_on_c, 1, 52, 127
2, 84760, Note_on_c, 1, 51, 127
2, 84760, Note_off_c, 1, 52, 0
2, 84960, Note_off_c, 1, 51, 0
2, 84960, Note_off_c, 1, 60, 0
2, 85000, Note_on_c, 1, 48, 127
2, 85000, Note_on_c, 1, 63, 127
2, 85200, Note_off_c, 1, 48, 0
2, 85200, Note_off_c, 1, 63, 0
2, 85240, Note_on_c, 1, 48, 127
2, 85240, Note_on_c, 1, 63, 127
2, 85720, Note_on_c, 1, 44, 127
2, 85720, Note_off_c, 1, 48, 0
2, 85720, Note_off_c, 1, 63, 0
2, 85720, Note_on_c, 1, 68, 127
2, 85960, Note_on_c, 1, 64, 127
2, 85960, Note_off_c, 1, 68, 0
2, 86160, Note_off_c, 1, 64, 0
2, 86200, Note_off_c, 1, 44, 0
2, 86200, Note_on_c, 1, 51, 127
2, 86200, Note_on_c, 1, 60, 127
2, 86840, Note_off_c, 1, 51, 0
2, 86840, Note_off_c, 1, 60, 0
2, 86880, Note_on_c, 1, 38, 127
2, 86880, Note_on_c, 1, 52, 127
2, 86880, Note_on_c, 1, 57, 127
2, 86880, Note_on_c, 1, 76, 127
2, 87160, Note_off_c, 1, 38, 0
2, 87160, Note_off_c, 1, 52, 0
2, 87160, Note_off_c, 1, 57, 0
2, 87160, Note_off_c, 1, 76, 0
2, 87200, Note_on_c, 1, 38, 127
2, 87200, Note_on_c, 1, 52, 127
2, 87200, Note_on_c, 1, 57, 127
2, 87200, Note_on_c, 1, 76, 127
2, 87640, Note_on_c, 1, 35, 127
2, 87640, Note_off_c, 1, 38, 0
2, 87640, Note_on_c, 1, 47, 127
2, 87640, Note_off_c, 1, 52, 0
2, 87640, Note_on_c, 1, 55, 127
2, 87640, Note_off_c, 1, 57, 0
2, 87640, Note_on_c, 1, 62, 127
2, 87640, Note_on_c, 1, 65, 127
2, 87640, Note_on_c, 1, 67, 127
2, 87640, Note_off_c, 1, 76, 0
2, 87720, Note_off_c, 1, 35, 0
2, 87720, Note_off_c, 1, 47, 0
2, 87720, Note_off_c, 1, 55, 0
2, 87720, Note_off_c, 1, 62, 0
2, 87720, Note_on_c, 1, 64, 127
2, 87720, Note_off_c, 1, 65, 0
2, 87720, Note_on_c, 1, 69, 127
2, 87720, Note_on_c, 1, 74, 127
2, 87760, Note_on_c, 1, 35, 127
2, 87760, Note_on_c, 1, 47, 127
2, 87760, Note_on_c, 1, 55, 127
2, 87760, Note_on_c, 1, 62, 127
2, 87760, Note_off_c, 1, 64, 0
2, 87760, Note_on_c, 1, 65, 127
2, 87760, Note_off_c, 1, 69, 0
2, 87760, Note_off_c, 1, 74, 0
2, 89000, Note_off_c, 1, 35, 0
2, 89000, Note_on_c, 1, 36, 127
2, 89000, Note_off_c, 1, 47, 0
2, 89000, Note_on_c, 1, 48, 127
2, 89000, Note_on_c, 1, 52, 127
2, 89000, Note_off_c, 1, 55, 0
2, 89000, Note_off_c, 1, 62, 0
2, 89000, Note_off_c, 1, 65, 0
2, 89000, Note_off_c, 1, 67, 0
2, 89360, Note_off_c, 1, 36, 0
2, 89360, Note_off_c, 1, 48, 0
2, 89360, Note_off_c, 1, 52, 0
2, 89400, Note_on_c, 1, 36, 127
2, 89400, Note_on_c, 1, 48, 127
2, 89400, Note_on_c, 1, 52, 127
2, 89720, Note_off_c, 1, 52, 0
2, 89720, Note_on_c, 1, 55, 127
2, 90160, Note_off_c, 1, 55, 0
2, 90440, Note_on_c, 1, 55, 127
2, 91320, Note_off_c, 1, 36, 0
2, 91320, Note_off_c, 1, 48, 0
2, 91320, Note_off_c, 1, 55, 0
2, 91360, Note_on_c, 1, 60, 127
2, 91440, Note_off_c, 1, 60, 0
2, 91480, Note_on_c, 1, 60, 127
2, 92280, Note_off_c, 1, 60, 0
2, 92280, Note_on_c, 1, 61, 127
2, 92440, Note_off_c, 1, 61, 0
2, 92440, Note_on_c, 1, 62, 127
2, 92480, Note_on_c, 1, 61, 127
2, 92480, Note_off_c, 1, 62, 0
2, 92520, Note_on_c, 1, 59, 127
2, 92520, Note_off_c, 1, 61, 0
2, 92560, Note_off_c, 1, 59, 0
2, 92560, Note_on_c, 1, 62, 127
2, 92760, Note_on_c, 1, 60, 127
2, 92760, Note_off_c, 1, 62, 0
2, 93400, Note_off_c, 1, 60, 0
2, 93440, Note_on_c, 1, 67, 127
2, 93560, Note_off_c, 1, 67, 0
2, 93600, Note_on_c, 1, 67, 127
2, 93640, Note_on_c, 1, 65, 127
2, 93640, Note_off_c, 1, 67, 0
2, 94120, Note_off_c, 1, 65, 0
2, 94120, Note_on_c, 1, 68, 127
2, 95200, Note_off_c, 1, 68, 0
2, 95240, Note_on_c, 1, 39, 127
2, 95240, Note_on_c, 1, 67, 127
2, 95680, Note_off_c, 1, 39, 0
2, 95680, Note_off_c, 1, 67, 0
2, 95720, Note_on_c, 1, 39, 127
2, 95720, Note_on_c, 1, 67, 127
2, 97120, Note_off_c, 1, 67, 0
2, 97160, Note_on_c, 1, 67, 127
2, 97360, Note_off_c, 1, 67, 0
2, 97400, Note_on_c, 1, 58, 127
2, 97600, Note_off_c, 1, 58, 0
2, 97640, Note_off_c, 1, 39, 0
2, 97680, Note_on_c, 1, 39, 127
2, 97680, Note_on_c, 1, 63, 127
2, 99480, Note_off_c, 1, 39, 0
2, 99480, Note_on_c, 1, 55, 127
2, 99600, Note_off_c, 1, 55, 0
2, 99600, Note_off_c, 1, 63, 0
2, 99640, Note_on_c, 1, 55, 127
2, 99640, Note_on_c, 1, 63, 127
2, 99720, Note_on_c, 1, 49, 127
2, 99720, Note_off_c, 1, 55, 0
2, 99720, Note_off_c, 1, 63, 0
2, 99720, Note_on_c, 1, 64, 127
2, 99960, Note_off_c, 1, 49, 0
2, 99960, Note_on_c, 1, 51, 127
2, 99960, Note_off_c, 1, 64, 0
2, 99960, Note_on_c, 1, 66, 127
2, 100160, Note_off_c, 1, 51, 0
2, 100160, Note_off_c, 1, 66, 0
2, 100200, Note_on_c, 1, 63, 127
2, 101360, Note_on_c, 1, 56, 127
2, 101360, Note_off_c, 1, 63, 0
2, 101560, Note_off_c, 1, 56, 0
2, 101640, Note_on_c, 1, 63, 127
2, 101840, Note_off_c, 1, 63, 0
2, 101840, Note_on_c, 1, 64, 127
2, 102280, Note_on_c, 1, 63, 127
2, 102280, Note_off_c, 1, 64, 0
2, 102760, Note_on_c, 1, 59, 127
2, 102760, Note_off_c, 1, 63, 0
2, 103000, Note_on_c, 1, 54, 127
2, 103000, Note_off_c, 1, 59, 0
2, 103240, Note_off_c, 1, 54, 0
2, 103240, Note_on_c, 1, 59, 127
2, 103440, Note_off_c, 1, 59, 0
2, 103520, Note_on_c, 1, 39, 127
2, 104120, Note_off_c, 1, 39, 0
2, 105560, Note_on_c, 1, 45, 127
2, 105560, Note_on_c, 1, 57, 127
2, 106360, Note_off_c, 1, 45, 0
2, 106360, Note_off_c, 1, 57, 0
2, 106400, Note_on_c, 1, 52, 127
2, 106400, Note_on_c, 1, 64, 127
2, 106760, Note_off_c, 1, 52, 0
2, 106760, Note_off_c, 1, 64, 0
2, 106800, Note_on_c, 1, 52, 127
2, 106800, Note_on_c, 1, 64, 127
2, 106840, Note_off_c, 1, 52, 0
2, 106840, Note_off_c, 1, 64, 0
2, 106880, Note_on_c, 1, 54, 127
2, 106880, Note_on_c, 1, 66, 127
2, 107480, Note_off_c, 1, 54, 0
2, 107480, Note_off_c, 1, 66, 0
2, 107520, Note_on_c, 1, 57, 127
2, 107520, Note_on_c, 1, 69, 127
2, 108080, Note_off_c, 1, 57, 0
2, 108080, Note_off_c, 1, 69, 0
2, 108120, Note_on_c, 1, 52, 127
2, 108120, Note_on_c, 1, 64, 127
2, 108280, Note_off_c, 1, 52, 0
2, 108280, Note_off_c, 1, 64, 0
2, 110320, Note_on_c, 1, 47, 127
2, 110320, Note_on_c, 1, 87, 127
2, 110520, Note_off_c, 1, 87, 0
2, 110560, Note_on_c, 1, 83, 127
2, 110720, Note_off_c, 1, 83, 0
2, 110760, Note_on_c, 1, 82, 127
2, 110960, Note_off_c, 1, 47, 0
2, 110960, Note_off_c, 1, 82, 0
2, 111000, Note_on_c, 1, 47, 127
2, 111000, Note_on_c, 1, 83, 127
2, 111160, Note_off_c, 1, 47, 0
2, 111160, Note_off_c, 1, 83, 0
2, 111200, Note_on_c, 1, 56, 127
2, 111200, Note_on_c, 1, 80, 127
2, 111400, Note_off_c, 1, 56, 0
2, 111400, Note_off_c, 1, 80, 0
2, 111440, Note_on_c, 1, 54, 127
2, 111440, Note_on_c, 1, 78, 127
2, 111600, Note_off_c, 1, 54, 0
2, 111600, Note_off_c, 1, 78, 0
2, 111680, Note_on_c, 1, 47, 127
2, 111680, Note_on_c, 1, 83, 127
2, 111880, Note_off_c, 1, 47, 0
2, 111880, Note_off_c, 1, 83, 0
2, 111920, Note_on_c, 1, 47, 127
2, 111920, Note_on_c, 1, 81, 127
2, 112080, Note_off_c, 1, 47, 0
2, 112080, Note_off_c, 1, 81, 0
2, 112120, Note_on_c, 1, 54, 127
2, 112120, Note_on_c, 1, 78, 127
2, 112280, Note_off_c, 1, 54, 0
2, 112280, Note_off_c, 1, 78, 0
2, 112320, Note_on_c, 1, 42, 127
2, 112320, Note_on_c, 1, 78, 127
2, 112520, Note_off_c, 1, 42, 0
2, 112520, Note_off_c, 1, 78, 0
2, 112560, Note_on_c, 1, 54, 127
2, 112560, Note_on_c, 1, 76, 127
2, 112720, Note_off_c, 1, 54, 0
2, 112720, Note_off_c, 1, 76, 0
2, 112760, Note_on_c, 1, 47, 127
2, 112760, Note_on_c, 1, 75, 127
2, 112920, Note_off_c, 1, 47, 0
2, 112920, Note_off_c, 1, 75, 0
2, 112960, Note_on_c, 1, 56, 127
2, 112960, Note_on_c, 1, 71, 127
2, 113160, Note_off_c, 1, 56, 0
2, 113160, Note_off_c, 1, 71, 0
2, 113200, Note_on_c, 1, 59, 127
2, 113200, Note_on_c, 1, 73, 127
2, 113360, Note_off_c, 1, 59, 0
2, 113360, Note_off_c, 1, 73, 0
2, 113440, Note_on_c, 1, 54, 127
2, 113440, Note_on_c, 1, 73, 127
2, 113600, Note_off_c, 1, 54, 0
2, 113600, Note_off_c, 1, 73, 0
2, 113640, Note_on_c, 1, 63, 127
2, 113640, Note_on_c, 1, 71, 127
2, 113840, Note_off_c, 1, 63, 0
2, 113840, Note_off_c, 1, 71, 0
2, 113880, Note_on_c, 1, 54, 127
2, 113880, Note_on_c, 1, 58, 127
2, 113880, Note_on_c, 1, 61, 127
2, 113880, Note_on_c, 1, 73, 127
2, 114040, Note_off_c, 1, 73, 0
2, 114080, Note_off_c, 1, 61, 0
2, 114080, Note_on_c, 1, 71, 127
2, 114120, Note_off_c, 1, 58, 0
2, 114120, Note_on_c, 1, 59, 127
2, 114120, Note_on_c, 1, 63, 127
2, 114160, Note_on_c, 1, 58, 127
2, 114160, Note_off_c, 1, 59, 0
2, 114160, Note_off_c, 1, 63, 0
2, 114160, Note_off_c, 1, 71, 0
2, 114160, Note_on_c, 1, 73, 127
2, 114200, Note_off_c, 1, 73, 0
2, 114240, Note_off_c, 1, 54, 0
2, 114240, Note_off_c, 1, 58, 0
2, 114240, Note_on_c, 1, 70, 127
2, 114280, Note_on_c, 1, 66, 127
2, 114480, Note_off_c, 1, 66, 0
2, 114480, Note_off_c, 1, 70, 0
2, 114520, Note_on_c, 1, 64, 127
2, 114520, Note_on_c, 1, 68, 127
2, 114520, Note_on_c, 1, 80, 127
2, 114680, Note_off_c, 1, 64, 0
2, 114680, Note_off_c, 1, 68, 0
2, 114680, Note_off_c, 1, 80, 0
2, 114720, Note_on_c, 1, 68, 127
2, 114720, Note_on_c, 1, 71, 127
2, 114720, Note_on_c, 1, 83, 127
2, 115120, Note_off_c, 1, 68, 0
2, 115160, Note_on_c, 1, 63, 127
2, 115360, Note_off_c, 1, 63, 0
2, 115360, Note_off_c, 1, 71, 0
2, 115360, Note_off_c, 1, 83, 0
2, 115440, Note_on_c, 1, 47, 127
2, 115600, Note_off_c, 1, 47, 0
2, 115640, Note_on_c, 1, 54, 127
2, 115640, Note_on_c, 1, 71, 127
2, 115640, Note_on_c, 1, 75, 127
2, 115800, Note_off_c, 1, 54, 0
2, 115840, Note_on_c, 1, 47, 127
2, 116000, Note_off_c, 1, 71, 0
2, 116040, Note_off_c, 1, 47, 0
2, 116040, Note_on_c, 1, 56, 127
2, 116040, Note_on_c, 1, 71, 127
2, 116240, Note_off_c, 1, 56, 0
2, 116240, Note_off_c, 1, 71, 0
2, 116240, Note_off_c, 1, 75, 0
2, 116280, Note_on_c, 1, 64, 127
2, 116280, Note_on_c, 1, 68, 127
2, 116280, Note_on_c, 1, 73, 127
2, 116640, Note_off_c, 1, 73, 0
2, 116640, Note_on_c, 1, 75, 127
2, 116680, Note_off_c, 1, 75, 0
2, 116720, Note_on_c, 1, 80, 127
2, 116920, Note_off_c, 1, 80, 0
2, 116960, Note_on_c, 1, 78, 127
2, 117120, Note_off_c, 1, 64, 0
2, 117120, Note_off_c, 1, 68, 0
2, 117120, Note_off_c, 1, 78, 0
2, 117160, Note_on_c, 1, 58, 127
2, 117160, Note_on_c, 1, 78, 127
2, 117400, Note_off_c, 1, 58, 0
2, 117400, Note_off_c, 1, 78, 0
2, 117440, Note_on_c, 1, 58, 127
2, 117440, Note_on_c, 1, 78, 127
2, 117600, Note_off_c, 1, 58, 0
2, 117600, Note_off_c, 1, 78, 0
2, 117640, Note_on_c, 1, 59, 127
2, 117640, Note_on_c, 1, 75, 127
2, 118040, Note_off_c, 1, 59, 0
2, 118040, Note_off_c, 1, 75, 0
2, 118080, Note_on_c, 1, 52, 127
2, 118080, Note_on_c, 1, 73, 127
2, 118080, Note_on_c, 1, 75, 127
2, 118320, Note_off_c, 1, 52, 0
2, 118320, Note_on_c, 1, 56, 127
2, 118320, Note_on_c, 1, 61, 127
2, 118320, Note_on_c, 1, 65, 127
2, 118320, Note_on_c, 1, 71, 127
2, 118320, Note_off_c, 1, 73, 0
2, 118320, Note_off_c, 1, 75, 0
2, 118320, Note_on_c, 1, 78, 127
2, 118360, Note_on_c, 1, 55, 127
2, 118360, Note_off_c, 1, 56, 0
2, 118360, Note_off_c, 1, 61, 0
2, 118360, Note_on_c, 1, 62, 127
2, 118360, Note_on_c, 1, 64, 127
2, 118360, Note_off_c, 1, 65, 0
2, 118360, Note_off_c, 1, 71, 0
2, 118360, Note_off_c, 1, 78, 0
2, 118360, Note_on_c, 1, 82, 127
2, 118400, Note_off_c, 1, 55, 0
2, 118400, Note_on_c, 1, 56, 127
2, 118400, Note_on_c, 1, 61, 127
2, 118400, Note_off_c, 1, 62, 0
2, 118400, Note_off_c, 1, 64, 0
2, 118400, Note_on_c, 1, 65, 127
2, 118400, Note_on_c, 1, 71, 127
2, 118400, Note_on_c, 1, 78, 127
2, 118400, Note_off_c, 1, 82, 0
2, 118480, Note_on_c, 1, 55, 127
2, 118480, Note_off_c, 1, 56, 0
2, 118480, Note_on_c, 1, 57, 127
2, 118480, Note_on_c, 1, 59, 127
2, 118480, Note_off_c, 1, 61, 0
2, 118480, Note_on_c, 1, 62, 127
2, 118480, Note_off_c, 1, 65, 0
2, 118480, Note_on_c, 1, 69, 127
2, 118480, Note_off_c, 1, 71, 0
2, 118480, Note_off_c, 1, 78, 0
2, 118520, Note_on_c, 1, 47, 127
2, 118520, Note_on_c, 1, 54, 127
2, 118520, Note_off_c, 1, 55, 0
2, 118520, Note_off_c, 1, 57, 0
2, 118520, Note_off_c, 1, 59, 0
2, 118520, Note_off_c, 1, 62, 0
2, 118520, Note_off_c, 1, 69, 0
2, 118520, Note_on_c, 1, 73, 127
2, 118520, Note_on_c, 1, 78, 127
2, 118680, Note_off_c, 1, 73, 0
2, 118680, Note_off_c, 1, 78, 0
2, 118720, Note_off_c, 1, 47, 0
2, 118720, Note_off_c, 1, 54, 0
2, 118760, Note_on_c, 1, 49, 127
2, 118760, Note_on_c, 1, 75, 127
2, 119520, Note_off_c, 1, 49, 0
2, 119520, Note_off_c, 1, 75, 0
2, 119560, Note_on_c, 1, 49, 127
2, 119560, Note_on_c, 1, 75, 127
2, 119600, Note_off_c, 1, 49, 0
2, 119600, Note_off_c, 1, 75, 0
2, 119640, Note_on_c, 1, 61, 127
2, 119640, Note_on_c, 1, 70, 127
2, 119840, Note_off_c, 1, 61, 0
2, 119840, Note_off_c, 1, 70, 0
2, 119880, Note_on_c, 1, 66, 127
2, 119880, Note_on_c, 1, 70, 127
2, 120000, Note_off_c, 1, 66, 0
2, 120000, Note_off_c, 1, 70, 0
2, 120040, End_track
3, 0, Start_track
3, 0, Title_t, "MIDI"
3, 1536, End_track
0, 0, End_of_file
