0, 0, Header, 1, 3, 192
1, 0, Start_track
1, 0, Time_signature, 4, 2, 24, 8
1, 0, Tempo, 500000
1, 120040, End_track
2, 0, Start_track
2, 0, Text_t, "random instrument: random person i dunno whatev"
2, 0, Title_t, "Track 1"
2, 0, Note_on_c, 1, 34, 127
2, 0, Note_on_c, 1, 53, 127
2, 0, Note_on_c, 1, 56, 127
2, 0, Note_on_c, 1, 62, 127
2, 40, Note_off_c, 1, 34, 0
2, 40, Note_off_c, 1, 53, 0
2, 40, Note_off_c, 1, 56, 0
2, 40, Note_off_c, 1, 62, 0
2, 80, Note_on_c, 1, 31, 127
2, 80, Note_on_c, 1, 43, 127
2, 80, Note_on_c, 1, 59, 127
2, 80, Note_on_c, 1, 65, 127
2, 80, Note_on_c, 1, 67, 127
2, 120, Note_off_c, 1, 31, 0
2, 120, Note_on_c, 1, 34, 127
2, 120, Note_off_c, 1, 43, 0
2, 120, Note_on_c, 1, 53, 127
2, 120, Note_on_c, 1, 56, 127
2, 120, Note_off_c, 1, 59, 0
2, 120, Note_on_c, 1, 62, 127
2, 120, Note_off_c, 1, 65, 0
2, 120, Note_off_c, 1, 67, 0
2, 160, Note_off_c, 1, 34, 0
2, 160, Note_on_c, 1, 43, 127
2, 160, Note_on_c, 1, 47, 127
2, 160, Note_off_c, 1, 53, 0
2, 160, Note_on_c, 1, 55, 127
2, 160, Note_off_c, 1, 56, 0
2, 160, Note_off_c, 1, 62, 0
2, 160, Note_on_c, 1, 79, 127
2, 160, Note_on_c, 1, 83, 127
2, 160, Note_on_c, 1, 87, 127
2, 160, Note_on_c, 1, 91, 127
2, 200, Note_on_c, 1, 34, 127
2, 200, Note_off_c, 1, 43, 0
2, 200, Note_off_c, 1, 47, 0
2, 200, Note_on_c, 1, 53, 127
2, 200, Note_off_c, 1, 55, 0
2, 200, Note_on_c, 1, 56, 127
2, 200, Note_on_c, 1, 62, 127
2, 200, Note_off_c, 1, 79, 0
2, 200, Note_off_c, 1, 83, 0
2, 200, Note_off_c, 1, 87, 0
2, 200, Note_off_c, 1, 91, 0
2, 320, Note_off_c, 1, 34, 0
2, 320, Note_off_c, 1, 53, 0
2, 320, Note_off_c, 1, 56, 0
2, 320, Note_off_c, 1, 62, 0
2, 320, Note_on_c, 1, 65, 127
2, 360, Note_on_c, 1, 34, 127
2, 360, Note_on_c, 1, 53, 127
2, 360, Note_on_c, 1, 56, 127
2, 360, Note_on_c, 1, 62, 127
2, 360, Note_off_c, 1, 65, 0
2, 1040, Note_off_c, 1, 62, 0
2, 1440, Note_off_c, 1, 53, 0
2, 1440, Note_off_c, 1, 56, 0
2, 1480, Note_on_c, 1, 46, 127
2, 1480, Note_on_c, 1, 48, 127
2, 2040, Note_off_c, 1, 34, 0
2, 2040, Note_off_c, 1, 46, 0
2, 2040, Note_off_c, 1, 48, 0
2, 2080, Note_on_c, 1, 34, 127
2, 2080, Note_on_c, 1, 46, 127
2, 2080, Note_on_c, 1, 48, 127
2, 2160, Note_off_c, 1, 46, 0
2, 2160, Note_off_c, 1, 48, 0
2, 2280, Note_off_c, 1, 34, 0
2, 10640, Note_on_c, 1, 58, 127
2, 10720, Note_off_c, 1, 58, 0
2, 10760, Note_on_c, 1, 55, 127
2, 10800, Note_off_c, 1, 55, 0
2, 10800, Note_on_c, 1, 58, 127
2, 10840, Note_off_c, 1, 58, 0
2, 10880, Note_on_c, 1, 58, 127
2, 11040, Note_off_c, 1, 58, 0
2, 11080, Note_on_c, 1, 53, 127
2, 11440, Note_off_c, 1, 53, 0
2, 11480, Note_on_c, 1, 46, 127
2, 11800, Note_off_c, 1, 46, 0
2, 11880, Note_on_c, 1, 46, 127
2, 12040, Note_off_c, 1, 46, 0
2, 12080, Note_on_c, 1, 46, 127
2, 12240, Note_off_c, 1, 46, 0
2, 12320, Note_on_c, 1, 46, 127
2, 12680, Note_off_c, 1, 46, 0
2, 12720, Note_on_c, 1, 46, 127
2, 13040, Note_off_c, 1, 46, 0
2, 13120, Note_on_c, 1, 46, 127
2, 13480, Note_off_c, 1, 46, 0
2, 13520, Note_on_c, 1, 46, 127
2, 13840, Note_off_c, 1, 46, 0
2, 13920, Note_on_c, 1, 46, 127
2, 14040, Note_off_c, 1, 46, 0
2, 14080, Note_on_c, 1, 46, 127
2, 14280, Note_off_c, 1, 46, 0
2, 14360, Note_on_c, 1, 46, 127
2, 14720, Note_off_c, 1, 46, 0
2, 18240, Note_on_c, 1, 40, 127
2, 18240, Note_on_c, 1, 52, 127
2, 18240, Note_on_c, 1, 64, 127
2, 19000, Note_off_c, 1, 64, 0
2, 19040, Note_on_c, 1, 67, 127
2, 19640, Note_off_c, 1, 40, 0
2, 19640, Note_off_c, 1, 52, 0
2, 19640, Note_off_c, 1, 67, 0
2, 19720, Note_on_c, 1, 35, 127
2, 19720, Note_on_c, 1, 47, 127
2, 19720, Note_on_c, 1, 59, 127
2, 20920, Note_off_c, 1, 35, 0
2, 20920, Note_off_c, 1, 47, 0
2, 20920, Note_off_c, 1, 59, 0
2, 25480, Note_on_c, 1, 42, 127
2, 26040, Note_off_c, 1, 42, 0
2, 26080, Note_on_c, 1, 41, 127
2, 26160, Note_off_c, 1, 41, 0
2, 26200, Note_on_c, 1, 41, 127
2, 26520, Note_off_c, 1, 41, 0
2, 26560, Note_on_c, 1, 39, 127
2, 26880, Note_off_c, 1, 39, 0
2, 26920, Note_on_c, 1, 46, 127
2, 27280, Note_off_c, 1, 46, 0
2, 27320, Note_on_c, 1, 51, 127
2, 27680, Note_off_c, 1, 51, 0
2, 27720, Note_on_c, 1, 58, 127
2, 28040, Note_off_c, 1, 58, 0
2, 28080, Note_on_c, 1, 55, 127
2, 28440, Note_off_c, 1, 55, 0
2, 28480, Note_on_c, 1, 51, 127
2, 28520, Note_off_c, 1, 51, 0
2, 28560, Note_on_c, 1, 51, 127
2, 28880, Note_off_c, 1, 51, 0
2, 28920, Note_on_c, 1, 46, 127
2, 29280, Note_off_c, 1, 46, 0
2, 29320, Note_on_c, 1, 39, 127
2, 29640, Note_off_c, 1, 39, 0
2, 29720, Note_on_c, 1, 39, 127
2, 30080, Note_off_c, 1, 39, 0
2, 30120, Note_on_c, 1, 46, 127
2, 30440, Note_off_c, 1, 46, 0
2, 30560, Note_on_c, 1, 46, 127
2, 30880, Note_off_c, 1, 46, 0
2, 30960, Note_on_c, 1, 39, 127
2, 31320, Note_off_c, 1, 39, 0
2, 31360, Note_on_c, 1, 46, 127
2, 31680, Note_off_c, 1, 46, 0
2, 31760, Note_on_c, 1, 46, 127
2, 32080, Note_off_c, 1, 46, 0
2, 32160, Note_on_c, 1, 46, 127
2, 32520, Note_off_c, 1, 46, 0
2, 32600, Note_on_c, 1, 46, 127
2, 32600, Note_on_c, 1, 82, 127
2, 32920, Note_off_c, 1, 46, 0
2, 32960, Note_on_c, 1, 58, 127
2, 33640, Note_off_c, 1, 58, 0
2, 33640, Note_off_c, 1, 82, 0
2, 33720, Note_on_c, 1, 51, 127
2, 33720, Note_on_c, 1, 80, 127
2, 34080, Note_off_c, 1, 51, 0
2, 34120, Note_on_c, 1, 58, 127
2, 34360, Note_off_c, 1, 80, 0
2, 34480, Note_off_c, 1, 58, 0
2, 34520, Note_on_c, 1, 51, 127
2, 34520, Note_on_c, 1, 80, 127
2, 34680, Note_off_c, 1, 51, 0
2, 34680, Note_off_c, 1, 80, 0
2, 34720, Note_on_c, 1, 51, 127
2, 34720, Note_on_c, 1, 80, 127
2, 34920, Note_off_c, 1, 51, 0
2, 34960, Note_on_c, 1, 54, 127
2, 35320, Note_off_c, 1, 54, 0
2, 35360, Note_on_c, 1, 51, 127
2, 35720, Note_off_c, 1, 51, 0
2, 35760, Note_on_c, 1, 58, 127
2, 36120, Note_off_c, 1, 58, 0
2, 36120, Note_off_c, 1, 80, 0
2, 36160, Note_on_c, 1, 51, 127
2, 36160, Note_on_c, 1, 80, 127
2, 36520, Note_off_c, 1, 51, 0
2, 36520, Note_off_c, 1, 80, 0
2, 36560, Note_on_c, 1, 60, 127
2, 36560, Note_on_c, 1, 78, 127
2, 36800, Note_off_c, 1, 60, 0
2, 36800, Note_off_c, 1, 78, 0
2, 36840, Note_on_c, 1, 60, 127
2, 36840, Note_on_c, 1, 78, 127
2, 36960, Note_off_c, 1, 60, 0
2, 36960, Note_off_c, 1, 78, 0
2, 37000, Note_on_c, 1, 56, 127
2, 37000, Note_on_c, 1, 77, 127
2, 37360, Note_off_c, 1, 56, 0
2, 37400, Note_on_c, 1, 53, 127
2, 37720, Note_off_c, 1, 53, 0
2, 37760, Note_on_c, 1, 41, 127
2, 38120, Note_off_c, 1, 41, 0
2, 38160, Note_on_c, 1, 48, 127
2, 38520, Note_off_c, 1, 48, 0
2, 38560, Note_on_c, 1, 56, 127
2, 38720, Note_off_c, 1, 56, 0
2, 38760, Note_off_c, 1, 77, 0
2, 38800, Note_on_c, 1, 65, 127
2, 38800, Note_on_c, 1, 77, 127
2, 38960, Note_off_c, 1, 65, 0
2, 39000, Note_on_c, 1, 56, 127
2, 39360, Note_off_c, 1, 56, 0
2, 39400, Note_on_c, 1, 60, 127
2, 39760, Note_off_c, 1, 60, 0
2, 39760, Note_off_c, 1, 77, 0
2, 39800, Note_on_c, 1, 49, 127
2, 39800, Note_on_c, 1, 75, 127
2, 40160, Note_off_c, 1, 49, 0
2, 40200, Note_on_c, 1, 56, 127
2, 40560, Note_off_c, 1, 56, 0
2, 40600, Note_on_c, 1, 46, 127
2, 40760, Note_off_c, 1, 46, 0
2, 40760, Note_off_c, 1, 75, 0
2, 40800, Note_on_c, 1, 46, 127
2, 40800, Note_on_c, 1, 75, 127
2, 41000, Note_off_c, 1, 46, 0
2, 41040, Note_on_c, 1, 60, 127
2, 41400, Note_off_c, 1, 60, 0
2, 41400, Note_off_c, 1, 75, 0
2, 41440, Note_on_c, 1, 53, 127
2, 41440, Note_on_c, 1, 72, 127
2, 41800, Note_off_c, 1, 53, 0
2, 41840, Note_on_c, 1, 48, 127
2, 42200, Note_off_c, 1, 48, 0
2, 42240, Note_on_c, 1, 60, 127
2, 42560, Note_off_c, 1, 60, 0
2, 42640, Note_on_c, 1, 51, 127
2, 42880, Note_off_c, 1, 51, 0
2, 42880, Note_off_c, 1, 72, 0
2, 42920, Note_on_c, 1, 51, 127
2, 42920, Note_on_c, 1, 72, 127
2, 43000, Note_off_c, 1, 51, 0
2, 43040, Note_on_c, 1, 60, 127
2, 43360, Note_off_c, 1, 60, 0
2, 43400, Note_off_c, 1, 72, 0
2, 43440, Note_on_c, 1, 56, 127
2, 43440, Note_on_c, 1, 77, 127
2, 43760, Note_off_c, 1, 56, 0
2, 43840, Note_on_c, 1, 48, 127
2, 44160, Note_off_c, 1, 48, 0
2, 44200, Note_on_c, 1, 48, 127
2, 44560, Note_off_c, 1, 48, 0
2, 44600, Note_on_c, 1, 41, 127
2, 44960, Note_off_c, 1, 41, 0
2, 45000, Note_off_c, 1, 77, 0
2, 45040, Note_on_c, 1, 48, 127
2, 45040, Note_on_c, 1, 77, 127
2, 45400, Note_off_c, 1, 48, 0
2, 45440, Note_on_c, 1, 56, 127
2, 45800, Note_off_c, 1, 56, 0
2, 45840, Note_on_c, 1, 49, 127
2, 46160, Note_off_c, 1, 49, 0
2, 46200, Note_on_c, 1, 56, 127
2, 46560, Note_off_c, 1, 56, 0
2, 46600, Note_on_c, 1, 48, 127
2, 46960, Note_off_c, 1, 48, 0
2, 46960, Note_off_c, 1, 77, 0
2, 47040, Note_on_c, 1, 56, 127
2, 47040, Note_on_c, 1, 75, 127
2, 47400, Note_off_c, 1, 56, 0
2, 47400, Note_off_c, 1, 75, 0
2, 47440, Note_on_c, 1, 60, 127
2, 47440, Note_on_c, 1, 77, 127
2, 47800, Note_off_c, 1, 60, 0
2, 47800, Note_off_c, 1, 77, 0
2, 47840, Note_on_c, 1, 48, 127
2, 47840, Note_on_c, 1, 79, 127
2, 48200, Note_off_c, 1, 48, 0
2, 48240, Note_on_c, 1, 48, 127
2, 48600, Note_off_c, 1, 48, 0
2, 48640, Note_on_c, 1, 36, 127
2, 49000, Note_off_c, 1, 36, 0
2, 49040, Note_off_c, 1, 79, 0
2, 49080, Note_on_c, 1, 48, 127
2, 49080, Note_on_c, 1, 79, 127
2, 49440, Note_off_c, 1, 48, 0
2, 49480, Note_on_c, 1, 41, 127
2, 49840, Note_off_c, 1, 41, 0
2, 49840, Note_off_c, 1, 79, 0
2, 49880, Note_on_c, 1, 41, 127
2, 49880, Note_on_c, 1, 80, 127
2, 50240, Note_off_c, 1, 41, 0
2, 50280, Note_on_c, 1, 48, 127
2, 50640, Note_off_c, 1, 48, 0
2, 50680, Note_on_c, 1, 65, 127
2, 51000, Note_off_c, 1, 65, 0
2, 51040, Note_on_c, 1, 53, 127
2, 51240, Note_off_c, 1, 53, 0
2, 51240, Note_off_c, 1, 80, 0
2, 51280, Note_on_c, 1, 53, 127
2, 51280, Note_on_c, 1, 80, 127
2, 51440, Note_off_c, 1, 53, 0
2, 51480, Note_on_c, 1, 48, 127
2, 51840, Note_off_c, 1, 48, 0
2, 51880, Note_on_c, 1, 59, 127
2, 52240, Note_off_c, 1, 59, 0
2, 52280, Note_on_c, 1, 51, 127
2, 52640, Note_off_c, 1, 51, 0
2, 52680, Note_on_c, 1, 47, 127
2, 53040, Note_off_c, 1, 47, 0
2, 53080, Note_on_c, 1, 46, 127
2, 53280, Note_off_c, 1, 46, 0
2, 53280, Note_off_c, 1, 80, 0
2, 53320, Note_on_c, 1, 46, 127
2, 53320, Note_on_c, 1, 80, 127
2, 53440, Note_off_c, 1, 46, 0
2, 53480, Note_on_c, 1, 47, 127
2, 53840, Note_off_c, 1, 47, 0
2, 53880, Note_on_c, 1, 39, 127
2, 54240, Note_off_c, 1, 39, 0
2, 54280, Note_on_c, 1, 47, 127
2, 54640, Note_off_c, 1, 47, 0
2, 54680, Note_on_c, 1, 51, 127
2, 55040, Note_off_c, 1, 51, 0
2, 55080, Note_on_c, 1, 60, 127
2, 55360, Note_off_c, 1, 60, 0
2, 55360, Note_off_c, 1, 80, 0
2, 55400, Note_on_c, 1, 60, 127
2, 55400, Note_on_c, 1, 80, 127
2, 55480, Note_off_c, 1, 60, 0
2, 55480, Note_off_c, 1, 80, 0
2, 55520, Note_on_c, 1, 53, 127
2, 55520, Note_on_c, 1, 80, 127
2, 55880, Note_off_c, 1, 53, 0
2, 55920, Note_on_c, 1, 48, 127
2, 56280, Note_off_c, 1, 48, 0
2, 56320, Note_on_c, 1, 60, 127
2, 56680, Note_off_c, 1, 60, 0
2, 56720, Note_on_c, 1, 51, 127
2, 57080, Note_off_c, 1, 51, 0
2, 57120, Note_on_c, 1, 48, 127
2, 57400, Note_off_c, 1, 48, 0
2, 57400, Note_off_c, 1, 80, 0
2, 57440, Note_on_c, 1, 48, 127
2, 57440, Note_on_c, 1, 80, 127
2, 57520, Note_off_c, 1, 48, 0
2, 57560, Note_on_c, 1, 41, 127
2, 57920, Note_off_c, 1, 41, 0
2, 57920, Note_off_c, 1, 80, 0
2, 57960, Note_on_c, 1, 44, 127
2, 57960, Note_on_c, 1, 80, 127
2, 58320, Note_off_c, 1, 44, 0
2, 58360, Note_on_c, 1, 41, 127
2, 58720, Note_off_c, 1, 41, 0
2, 58720, Note_off_c, 1, 80, 0
2, 58760, Note_on_c, 1, 48, 127
2, 58760, Note_on_c, 1, 81, 127
2, 59120, Note_off_c, 1, 48, 0
2, 59160, Note_on_c, 1, 53, 127
2, 59360, Note_off_c, 1, 53, 0
2, 59360, Note_off_c, 1, 81, 0
2, 59400, Note_on_c, 1, 53, 127
2, 59400, Note_on_c, 1, 81, 127
2, 59520, Note_off_c, 1, 53, 0
2, 59560, Note_on_c, 1, 48, 127
2, 59920, Note_off_c, 1, 48, 0
2, 59960, Note_on_c, 1, 53, 127
2, 60320, Note_off_c, 1, 53, 0
2, 60360, Note_on_c, 1, 63, 127
2, 60720, Note_off_c, 1, 63, 0
2, 60760, Note_on_c, 1, 53, 127
2, 61120, Note_off_c, 1, 53, 0
2, 61160, Note_on_c, 1, 48, 127
2, 61360, Note_off_c, 1, 48, 0
2, 61360, Note_off_c, 1, 81, 0
2, 61400, Note_on_c, 1, 48, 127
2, 61400, Note_on_c, 1, 81, 127
2, 61520, Note_off_c, 1, 48, 0
2, 61560, Note_on_c, 1, 41, 127
2, 61920, Note_off_c, 1, 41, 0
2, 61920, Note_off_c, 1, 81, 0
2, 61960, Note_on_c, 1, 48, 127
2, 61960, Note_on_c, 1, 81, 127
2, 62320, Note_off_c, 1, 48, 0
2, 62360, Note_on_c, 1, 53, 127
2, 62720, Note_off_c, 1, 53, 0
2, 62760, Note_on_c, 1, 63, 127
2, 63120, Note_off_c, 1, 63, 0
2, 63120, Note_off_c, 1, 81, 0
2, 63160, Note_on_c, 1, 53, 127
2, 63160, Note_on_c, 1, 81, 127
2, 63480, Note_off_c, 1, 53, 0
2, 63480, Note_off_c, 1, 81, 0
2, 63520, Note_on_c, 1, 53, 127
2, 63520, Note_on_c, 1, 81, 127
2, 63560, Note_off_c, 1, 53, 0
2, 63600, Note_on_c, 1, 48, 127
2, 63960, Note_off_c, 1, 48, 0
2, 64000, Note_on_c, 1, 41, 127
2, 64360, Note_off_c, 1, 41, 0
2, 64360, Note_off_c, 1, 81, 0
2, 64400, Note_on_c, 1, 49, 127
2, 64400, Note_on_c, 1, 82, 127
2, 64720, Note_off_c, 1, 49, 0
2, 64760, Note_on_c, 1, 55, 127
2, 65120, Note_off_c, 1, 55, 0
2, 65160, Note_on_c, 1, 58, 127
2, 65520, Note_off_c, 1, 58, 0
2, 65560, Note_on_c, 1, 53, 127
2, 65680, Note_off_c, 1, 53, 0
2, 65680, Note_off_c, 1, 82, 0
2, 65720, Note_on_c, 1, 53, 127
2, 65720, Note_on_c, 1, 82, 127
2, 65960, Note_off_c, 1, 53, 0
2, 66000, Note_on_c, 1, 61, 127
2, 66320, Note_off_c, 1, 82, 0
2, 66360, Note_on_c, 1, 82, 127
2, 66720, Note_off_c, 1, 61, 0
2, 66720, Note_off_c, 1, 82, 0
2, 66760, Note_on_c, 1, 49, 127
2, 66760, Note_on_c, 1, 82, 127
2, 67080, Note_off_c, 1, 49, 0
2, 67120, Note_on_c, 1, 54, 127
2, 67480, Note_off_c, 1, 54, 0
2, 67520, Note_on_c, 1, 61, 127
2, 67840, Note_off_c, 1, 61, 0
2, 67840, Note_off_c, 1, 82, 0
2, 67880, Note_on_c, 1, 61, 127
2, 67880, Note_on_c, 1, 82, 127
2, 67920, Note_off_c, 1, 61, 0
2, 67960, Note_on_c, 1, 53, 127
2, 68320, Note_off_c, 1, 53, 0
2, 68360, Note_on_c, 1, 61, 127
2, 68720, Note_off_c, 1, 61, 0
2, 68760, Note_on_c, 1, 53, 127
2, 69120, Note_off_c, 1, 53, 0
2, 69160, Note_on_c, 1, 49, 127
2, 69520, Note_off_c, 1, 49, 0
2, 69560, Note_on_c, 1, 54, 127
2, 69760, Note_off_c, 1, 54, 0
2, 69760, Note_off_c, 1, 82, 0
2, 69800, Note_on_c, 1, 54, 127
2, 69800, Note_on_c, 1, 82, 127
2, 69960, Note_off_c, 1, 54, 0
2, 70000, Note_on_c, 1, 61, 127
2, 70320, Note_off_c, 1, 61, 0
2, 70360, Note_on_c, 1, 49, 127
2, 70720, Note_off_c, 1, 49, 0
2, 70760, Note_on_c, 1, 49, 127
2, 71120, Note_off_c, 1, 49, 0
2, 71120, Note_off_c, 1, 82, 0
2, 71160, Note_on_c, 1, 49, 127
2, 71160, Note_on_c, 1, 82, 127
2, 71520, Note_off_c, 1, 49, 0
2, 71560, Note_on_c, 1, 54, 127
2, 71920, Note_off_c, 1, 54, 0
2, 71960, Note_off_c, 1, 82, 0
2, 72000, Note_on_c, 1, 46, 127
2, 72000, Note_on_c, 1, 82, 127
2, 72360, Note_off_c, 1, 46, 0
2, 72400, Note_on_c, 1, 39, 127
2, 72760, Note_off_c, 1, 39, 0
2, 72760, Note_off_c, 1, 82, 0
2, 72800, Note_on_c, 1, 39, 127
2, 72800, Note_on_c, 1, 80, 127
2, 73160, Note_off_c, 1, 39, 0
2, 73200, Note_on_c, 1, 44, 127
2, 73560, Note_off_c, 1, 44, 0
2, 73600, Note_on_c, 1, 37, 127
2, 73960, Note_off_c, 1, 37, 0
2, 73960, Note_off_c, 1, 80, 0
2, 74040, Note_on_c, 1, 37, 127
2, 74040, Note_on_c, 1, 80, 127
2, 74400, Note_off_c, 1, 37, 0
2, 74440, Note_on_c, 1, 44, 127
2, 74800, Note_off_c, 1, 44, 0
2, 74840, Note_on_c, 1, 37, 127
2, 75200, Note_off_c, 1, 37, 0
2, 75240, Note_on_c, 1, 44, 127
2, 75600, Note_off_c, 1, 44, 0
2, 75640, Note_on_c, 1, 37, 127
2, 76000, Note_off_c, 1, 37, 0
2, 76040, Note_on_c, 1, 41, 127
2, 76120, Note_off_c, 1, 41, 0
2, 76120, Note_off_c, 1, 80, 0
2, 76160, Note_on_c, 1, 41, 127
2, 76160, Note_on_c, 1, 80, 127
2, 76440, Note_off_c, 1, 41, 0
2, 76480, Note_on_c, 1, 61, 127
2, 76480, Note_on_c, 1, 68, 127
2, 76840, Note_off_c, 1, 61, 0
2, 76840, Note_off_c, 1, 68, 0
2, 76840, Note_off_c, 1, 80, 0
2, 76880, Note_on_c, 1, 47, 127
2, 76880, Note_on_c, 1, 76, 127
2, 76880, Note_on_c, 1, 88, 127
2, 77200, Note_off_c, 1, 47, 0
2, 77240, Note_on_c, 1, 61, 127
2, 77600, Note_off_c, 1, 61, 0
2, 77640, Note_on_c, 1, 61, 127
2, 78000, Note_off_c, 1, 61, 0
2, 78040, Note_on_c, 1, 61, 127
2, 78160, Note_off_c, 1, 61, 0
2, 78160, Note_off_c, 1, 76, 0
2, 78160, Note_off_c, 1, 88, 0
2, 78200, Note_on_c, 1, 61, 127
2, 78200, Note_on_c, 1, 76, 127
2, 78200, Note_on_c, 1, 88, 127
2, 78440, Note_off_c, 1, 61, 0
2, 78480, Note_on_c, 1, 55, 127
2, 78840, Note_off_c, 1, 55, 0
2, 78880, Note_on_c, 1, 45, 127
2, 79240, Note_off_c, 1, 45, 0
2, 79280, Note_on_c, 1, 57, 127
2, 79640, Note_off_c, 1, 57, 0
2, 79680, Note_on_c, 1, 61, 127
2, 80040, Note_off_c, 1, 61, 0
2, 80080, Note_on_c, 1, 60, 127
2, 80240, Note_off_c, 1, 60, 0
2, 80240, Note_off_c, 1, 76, 0
2, 80240, Note_off_c, 1, 88, 0
2, 80280, Note_on_c, 1, 60, 127
2, 80280, Note_on_c, 1, 76, 127
2, 80280, Note_on_c, 1, 88, 127
2, 80480, Note_off_c, 1, 60, 0
2, 80520, Note_on_c, 1, 64, 127
2, 80520, Note_on_c, 1, 69, 127
2, 80520, Note_on_c, 1, 73, 127
2, 80880, Note_off_c, 1, 64, 0
2, 80880, Note_off_c, 1, 69, 0
2, 80880, Note_off_c, 1, 73, 0
2, 80880, Note_off_c, 1, 76, 0
2, 80920, Note_on_c, 1, 64, 127
2, 80920, Note_on_c, 1, 69, 127
2, 80920, Note_on_c, 1, 73, 127
2, 80920, Note_on_c, 1, 76, 127
2, 81280, Note_off_c, 1, 64, 0
2, 81280, Note_off_c, 1, 69, 0
2, 81280, Note_off_c, 1, 73, 0
2, 82120, Note_off_c, 1, 76, 0
2, 82120, Note_off_c, 1, 88, 0
2, 82160, Note_on_c, 1, 61, 127
2, 82160, Note_on_c, 1, 76, 127
2, 82160, Note_on_c, 1, 88, 127
2, 82520, Note_off_c, 1, 61, 0
2, 82560, Note_on_c, 1, 52, 127
2, 82920, Note_off_c, 1, 52, 0
2, 82960, Note_on_c, 1, 56, 127
2, 83320, Note_off_c, 1, 56, 0
2, 83360, Note_on_c, 1, 61, 127
2, 83720, Note_off_c, 1, 61, 0
2, 83760, Note_on_c, 1, 48, 127
2, 84080, Note_off_c, 1, 48, 0
2, 84080, Note_off_c, 1, 76, 0
2, 84080, Note_off_c, 1, 88, 0
2, 84120, Note_on_c, 1, 48, 127
2, 84120, Note_on_c, 1, 76, 127
2, 84120, Note_on_c, 1, 88, 127
2, 84160, Note_off_c, 1, 48, 0
2, 84200, Note_on_c, 1, 60, 127
2, 84560, Note_off_c, 1, 60, 0
2, 84600, Note_on_c, 1, 55, 127
2, 84960, Note_off_c, 1, 55, 0
2, 85000, Note_on_c, 1, 48, 127
2, 85320, Note_on_c, 1, 47, 127
2, 85320, Note_off_c, 1, 48, 0
2, 85360, Note_off_c, 1, 47, 0
2, 85400, Note_on_c, 1, 60, 127
2, 85760, Note_off_c, 1, 60, 0
2, 85800, Note_on_c, 1, 57, 127
2, 86120, Note_off_c, 1, 57, 0
2, 86120, Note_off_c, 1, 76, 0
2, 86120, Note_off_c, 1, 88, 0
2, 86160, Note_on_c, 1, 57, 127
2, 86160, Note_on_c, 1, 76, 127
2, 86160, Note_on_c, 1, 88, 127
2, 86200, Note_off_c, 1, 57, 0
2, 86240, Note_on_c, 1, 61, 127
2, 86600, Note_off_c, 1, 61, 0
2, 86640, Note_on_c, 1, 58, 127
2, 87000, Note_off_c, 1, 58, 0
2, 87040, Note_on_c, 1, 57, 127
2, 87400, Note_off_c, 1, 57, 0
2, 87440, Note_on_c, 1, 69, 127
2, 88160, Note_on_c, 1, 45, 127
2, 88160, Note_off_c, 1, 76, 0
2, 88160, Note_off_c, 1, 88, 0
2, 88200, Note_off_c, 1, 45, 0
2, 88200, Note_off_c, 1, 69, 0
2, 88240, Note_on_c, 1, 69, 127
2, 88280, Note_on_c, 1, 88, 127
2, 88640, Note_off_c, 1, 69, 0
2, 88640, Note_off_c, 1, 88, 0
2, 88680, Note_on_c, 1, 62, 127
2, 88680, Note_on_c, 1, 71, 127
2, 88680, Note_on_c, 1, 88, 127
2, 89040, Note_off_c, 1, 88, 0
2, 89080, Note_on_c, 1, 88, 127
2, 89440, Note_off_c, 1, 62, 0
2, 89440, Note_off_c, 1, 88, 0
2, 89480, Note_on_c, 1, 74, 127
2, 89480, Note_on_c, 1, 88, 127
2, 89640, Note_on_c, 1, 86, 127
2, 89640, Note_off_c, 1, 88, 0
2, 89840, Note_off_c, 1, 86, 0
2, 89880, Note_on_c, 1, 86, 127
2, 90320, Note_off_c, 1, 71, 0
2, 90320, Note_off_c, 1, 74, 0
2, 90320, Note_off_c, 1, 86, 0
2, 90360, Note_on_c, 1, 71, 127
2, 90360, Note_on_c, 1, 74, 127
2, 90360, Note_on_c, 1, 86, 127
2, 90680, Note_off_c, 1, 86, 0
2, 90720, Note_on_c, 1, 86, 127
2, 91080, Note_off_c, 1, 86, 0
2, 91120, Note_on_c, 1, 85, 127
2, 91440, Note_off_c, 1, 85, 0
2, 91480, Note_on_c, 1, 86, 127
2, 92240, Note_off_c, 1, 71, 0
2, 92240, Note_off_c, 1, 86, 0
2, 92280, Note_on_c, 1, 62, 127
2, 92280, Note_on_c, 1, 71, 127
2, 92400, Note_off_c, 1, 62, 0
2, 92400, Note_off_c, 1, 71, 0
2, 92400, Note_off_c, 1, 74, 0
2, 92440, Note_on_c, 1, 62, 127
2, 92440, Note_on_c, 1, 71, 127
2, 92440, Note_on_c, 1, 74, 127
2, 92680, Note_off_c, 1, 71, 0
2, 92680, Note_off_c, 1, 74, 0
2, 92720, Note_on_c, 1, 77, 127
2, 92720, Note_on_c, 1, 89, 127
2, 93080, Note_off_c, 1, 62, 0
2, 93120, Note_on_c, 1, 56, 127
2, 93480, Note_off_c, 1, 56, 0
2, 93520, Note_on_c, 1, 46, 127
2, 93880, Note_off_c, 1, 46, 0
2, 93920, Note_on_c, 1, 62, 127
2, 94280, Note_off_c, 1, 62, 0
2, 94320, Note_off_c, 1, 77, 0
2, 94320, Note_off_c, 1, 89, 0
2, 94360, Note_on_c, 1, 62, 127
2, 94360, Note_on_c, 1, 77, 127
2, 94360, Note_on_c, 1, 89, 127
2, 94720, Note_off_c, 1, 62, 0
2, 94760, Note_on_c, 1, 62, 127
2, 95120, Note_off_c, 1, 62, 0
2, 95160, Note_on_c, 1, 56, 127
2, 95520, Note_off_c, 1, 56, 0
2, 95520, Note_off_c, 1, 77, 0
2, 95520, Note_off_c, 1, 89, 0
2, 95560, Note_on_c, 1, 62, 127
2, 95560, Note_on_c, 1, 64, 127
2, 95560, Note_on_c, 1, 83, 127
2, 95640, Note_on_c, 1, 80, 127
2, 95640, Note_off_c, 1, 83, 0
2, 95680, Note_off_c, 1, 80, 0
2, 95680, Note_on_c, 1, 83, 127
2, 95920, Note_off_c, 1, 62, 0
2, 95920, Note_off_c, 1, 64, 0
2, 95920, Note_on_c, 1, 85, 127
2, 95960, Note_on_c, 1, 62, 127
2, 95960, Note_on_c, 1, 64, 127
2, 95960, Note_off_c, 1, 85, 0
2, 96320, Note_off_c, 1, 62, 0
2, 96320, Note_off_c, 1, 64, 0
2, 96320, Note_off_c, 1, 83, 0
2, 96400, Note_on_c, 1, 68, 127
2, 96400, Note_on_c, 1, 71, 127
2, 96400, Note_on_c, 1, 83, 127
2, 96760, Note_off_c, 1, 68, 0
2, 96800, Note_on_c, 1, 64, 127
2, 97160, Note_off_c, 1, 71, 0
2, 97200, Note_on_c, 1, 68, 127
2, 97560, Note_off_c, 1, 64, 0
2, 97560, Note_off_c, 1, 68, 0
2, 97560, Note_off_c, 1, 83, 0
2, 97600, Note_on_c, 1, 65, 127
2, 97600, Note_on_c, 1, 69, 127
2, 97600, Note_on_c, 1, 86, 127
2, 97640, Note_on_c, 1, 84, 127
2, 97640, Note_off_c, 1, 86, 0
2, 97680, Note_off_c, 1, 84, 0
2, 97680, Note_on_c, 1, 86, 127
2, 97960, Note_off_c, 1, 86, 0
2, 98000, Note_on_c, 1, 83, 127
2, 98360, Note_off_c, 1, 83, 0
2, 98400, Note_on_c, 1, 77, 127
2, 98440, Note_off_c, 1, 65, 0
2, 98440, Note_off_c, 1, 69, 0
2, 98440, Note_off_c, 1, 77, 0
2, 98480, Note_on_c, 1, 65, 127
2, 98480, Note_on_c, 1, 69, 127
2, 98480, Note_on_c, 1, 77, 127
2, 98800, Note_off_c, 1, 77, 0
2, 98840, Note_on_c, 1, 76, 127
2, 99160, Note_off_c, 1, 76, 0
2, 99160, Note_on_c, 1, 77, 127
2, 99200, Note_off_c, 1, 77, 0
2, 99240, Note_on_c, 1, 77, 127
2, 100800, Note_off_c, 1, 65, 0
2, 100800, Note_off_c, 1, 69, 0
2, 100800, Note_off_c, 1, 77, 0
2, 107080, Note_on_c, 1, 57, 127
2, 107080, Note_on_c, 1, 64, 127
2, 107080, Note_on_c, 1, 73, 127
2, 108320, Note_off_c, 1, 57, 0
2, 108320, Note_off_c, 1, 64, 0
2, 108320, Note_off_c, 1, 73, 0
2, 108360, Note_on_c, 1, 57, 127
2, 108360, Note_on_c, 1, 64, 127
2, 108360, Note_on_c, 1, 73, 127
2, 108680, Note_off_c, 1, 64, 0
2, 108720, Note_on_c, 1, 65, 127
2, 109480, Note_off_c, 1, 65, 0
2, 109480, Note_off_c, 1, 73, 0
2, 110720, Note_off_c, 1, 57, 0
2, 110760, Note_on_c, 1, 56, 127
2, 110760, Note_on_c, 1, 76, 127
2, 110920, Note_on_c, 1, 65, 127
2, 110920, Note_off_c, 1, 76, 0
2, 110960, Note_off_c, 1, 56, 0
2, 110960, Note_off_c, 1, 65, 0
2, 111000, Note_on_c, 1, 56, 127
2, 111000, Note_on_c, 1, 76, 127
2, 111160, Note_off_c, 1, 56, 0
2, 111160, Note_off_c, 1, 76, 0
2, 111200, Note_on_c, 1, 52, 127
2, 111200, Note_on_c, 1, 76, 127
2, 111560, Note_off_c, 1, 52, 0
2, 111600, Note_on_c, 1, 57, 127
2, 111960, Note_off_c, 1, 57, 0
2, 112000, Note_on_c, 1, 49, 127
2, 112360, Note_off_c, 1, 49, 0
2, 112400, Note_on_c, 1, 56, 127
2, 112760, Note_off_c, 1, 56, 0
2, 112800, Note_on_c, 1, 57, 127
2, 113080, Note_off_c, 1, 57, 0
2, 113080, Note_off_c, 1, 76, 0
2, 113120, Note_on_c, 1, 57, 127
2, 113120, Note_on_c, 1, 76, 127
2, 113200, Note_off_c, 1, 57, 0
2, 113240, Note_on_c, 1, 49, 127
2, 113600, Note_off_c, 1, 49, 0
2, 113640, Note_on_c, 1, 56, 127
2, 114000, Note_off_c, 1, 56, 0
2, 114040, Note_on_c, 1, 47, 127
2, 114400, Note_off_c, 1, 47, 0
2, 114440, Note_on_c, 1, 45, 127
2, 114800, Note_off_c, 1, 45, 0
2, 114840, Note_on_c, 1, 37, 127
2, 114880, Note_off_c, 1, 76, 0
2, 114920, Note_on_c, 1, 78, 127
2, 115080, Note_off_c, 1, 37, 0
2, 115080, Note_off_c, 1, 78, 0
2, 115120, Note_on_c, 1, 37, 127
2, 115120, Note_on_c, 1, 78, 127
2, 116040, Note_off_c, 1, 37, 0
2, 116040, Note_on_c, 1, 71, 127
2, 116080, Note_on_c, 1, 66, 127
2, 116080, Note_off_c, 1, 71, 0
2, 116080, Note_on_c, 1, 73, 127
2, 116440, Note_off_c, 1, 66, 0
2, 116480, Note_on_c, 1, 66, 127
2, 116840, Note_off_c, 1, 66, 0
2, 116840, Note_off_c, 1, 73, 0
2, 116840, Note_off_c, 1, 78, 0
2, 116880, Note_on_c, 1, 40, 127
2, 116880, Note_on_c, 1, 71, 127
2, 116880, Note_on_c, 1, 74, 127
2, 117200, Note_off_c, 1, 40, 0
2, 117200, Note_off_c, 1, 71, 0
2, 117200, Note_off_c, 1, 74, 0
2, 117240, Note_on_c, 1, 40, 127
2, 117240, Note_on_c, 1, 71, 127
2, 117240, Note_on_c, 1, 74, 127
2, 117280, Note_off_c, 1, 40, 0
2, 117320, Note_on_c, 1, 54, 127
2, 117680, Note_off_c, 1, 54, 0
2, 117720, Note_on_c, 1, 47, 127
2, 118080, Note_off_c, 1, 47, 0
2, 118120, Note_on_c, 1, 47, 127
2, 118480, Note_off_c, 1, 71, 0
2, 118480, Note_off_c, 1, 74, 0
2, 118520, Note_on_c, 1, 71, 127
2, 118520, Note_on_c, 1, 74, 127
2, 118880, Note_off_c, 1, 47, 0
2, 118920, Note_on_c, 1, 55, 127
2, 119280, Note_off_c, 1, 55, 0
2, 119320, Note_off_c, 1, 71, 0
2, 119320, Note_off_c, 1, 74, 0
2, 119360, Note_on_c, 1, 54, 127
2, 119360, Note_on_c, 1, 71, 127
2, 119360, Note_on_c, 1, 74, 127
2, 119720, Note_off_c, 1, 54, 0
2, 119720, Note_off_c, 1, 71, 0
2, 119720, Note_off_c, 1, 74, 0
2, 119760, Note_on_c, 1, 64, 127
2, 119760, Note_on_c, 1, 68, 127
2, 119760, Note_on_c, 1, 73, 127
2, 119760, Note_on_c, 1, 76, 127
2, 120000, Note_off_c, 1, 64, 0
2, 120000, Note_off_c, 1, 68, 0
2, 120000, Note_off_c, 1, 73, 0
2, 120000, Note_off_c, 1, 76, 0
2, 120040, End_track
3, 0, Start_track
3, 0, Title_t, "MIDI"
3, 1536, End_track
0, 0, End_of_file
