0, 0, Header, 1, 3, 192
1, 0, Start_track
1, 0, Time_signature, 4, 2, 24, 8
1, 0, Tempo, 500000
1, 120040, End_track
2, 0, Start_track
2, 0, Text_t, "random instrument: random person i dunno whatev"
2, 0, Title_t, "Track 1"
2, 0, Note_on_c, 1, 40, 127
2, 0, Note_on_c, 1, 48, 127
2, 0, Note_on_c, 1, 56, 127
2, 0, Note_on_c, 1, 60, 127
2, 40, Note_off_c, 1, 40, 0
2, 40, Note_off_c, 1, 48, 0
2, 40, Note_on_c, 1, 55, 127
2, 40, Note_off_c, 1, 56, 0
2, 40, Note_off_c, 1, 60, 0
2, 40, Note_on_c, 1, 72, 127
2, 40, Note_on_c, 1, 75, 127
2, 40, Note_on_c, 1, 79, 127
2, 40, Note_on_c, 1, 84, 127
2, 80, Note_off_c, 1, 55, 0
2, 80, Note_off_c, 1, 72, 0
2, 80, Note_off_c, 1, 75, 0
2, 80, Note_off_c, 1, 79, 0
2, 80, Note_off_c, 1, 84, 0
2, 120, Note_on_c, 1, 50, 127
2, 120, Note_on_c, 1, 59, 127
2, 120, Note_on_c, 1, 62, 127
2, 120, Note_on_c, 1, 78, 127
2, 160, Note_off_c, 1, 50, 0
2, 160, Note_off_c, 1, 59, 0
2, 160, Note_on_c, 1, 60, 127
2, 160, Note_off_c, 1, 62, 0
2, 160, Note_on_c, 1, 66, 127
2, 160, Note_on_c, 1, 68, 127
2, 160, Note_off_c, 1, 78, 0
2, 160, Note_on_c, 1, 90, 127
2, 200, Note_on_c, 1, 35, 127
2, 200, Note_on_c, 1, 39, 127
2, 200, Note_on_c, 1, 47, 127
2, 200, Note_on_c, 1, 50, 127
2, 200, Note_off_c, 1, 60, 0
2, 200, Note_off_c, 1, 66, 0
2, 200, Note_off_c, 1, 68, 0
2, 200, Note_off_c, 1, 90, 0
2, 240, Note_off_c, 1, 35, 0
2, 240, Note_off_c, 1, 39, 0
2, 240, Note_off_c, 1, 47, 0
2, 240, Note_off_c, 1, 50, 0
2, 240, Note_on_c, 1, 51, 127
2, 240, Note_on_c, 1, 55, 127
2, 240, Note_on_c, 1, 58, 127
2, 240, Note_on_c, 1, 63, 127
2, 240, Note_on_c, 1, 82, 127
2, 240, Note_on_c, 1, 91, 127
2, 280, Note_off_c, 1, 51, 0
2, 280, Note_off_c, 1, 55, 0
2, 280, Note_off_c, 1, 58, 0
2, 280, Note_off_c, 1, 63, 0
2, 280, Note_on_c, 1, 76, 127
2, 280, Note_on_c, 1, 80, 127
2, 280, Note_off_c, 1, 82, 0
2, 280, Note_on_c, 1, 83, 127
2, 280, Note_on_c, 1, 89, 127
2, 280, Note_off_c, 1, 91, 0
2, 320, Note_on_c, 1, 58, 127
2, 320, Note_on_c, 1, 63, 127
2, 320, Note_on_c, 1, 66, 127
2, 320, Note_on_c, 1, 72, 127
2, 320, Note_on_c, 1, 75, 127
2, 320, Note_off_c, 1, 76, 0
2, 320, Note_off_c, 1, 80, 0
2, 320, Note_on_c, 1, 82, 127
2, 320, Note_off_c, 1, 83, 0
2, 320, Note_on_c, 1, 87, 127
2, 320, Note_off_c, 1, 89, 0
2, 360, Note_on_c, 1, 57, 127
2, 360, Note_off_c, 1, 58, 0
2, 360, Note_on_c, 1, 62, 127
2, 360, Note_off_c, 1, 63, 0
2, 360, Note_off_c, 1, 66, 0
2, 360, Note_off_c, 1, 72, 0
2, 360, Note_off_c, 1, 75, 0
2, 360, Note_off_c, 1, 82, 0
2, 360, Note_off_c, 1, 87, 0
2, 400, Note_off_c, 1, 57, 0
2, 400, Note_on_c, 1, 60, 127
2, 400, Note_off_c, 1, 62, 0
2, 400, Note_on_c, 1, 85, 127
2, 400, Note_on_c, 1, 88, 127
2, 440, Note_on_c, 1, 50, 127
2, 440, Note_on_c, 1, 57, 127
2, 440, Note_off_c, 1, 60, 0
2, 440, Note_on_c, 1, 65, 127
2, 440, Note_off_c, 1, 85, 0
2, 440, Note_off_c, 1, 88, 0
2, 440, Note_on_c, 1, 93, 127
2, 480, Note_off_c, 1, 50, 0
2, 480, Note_on_c, 1, 54, 127
2, 480, Note_off_c, 1, 57, 0
2, 480, Note_on_c, 1, 58, 127
2, 480, Note_on_c, 1, 61, 127
2, 480, Note_off_c, 1, 65, 0
2, 480, Note_off_c, 1, 93, 0
2, 480, Note_on_c, 1, 97, 127
2, 520, Note_on_c, 1, 50, 127
2, 520, Note_off_c, 1, 54, 0
2, 520, Note_on_c, 1, 57, 127
2, 520, Note_off_c, 1, 58, 0
2, 520, Note_off_c, 1, 61, 0
2, 520, Note_on_c, 1, 65, 127
2, 520, Note_on_c, 1, 93, 127
2, 520, Note_off_c, 1, 97, 0
2, 800, Note_off_c, 1, 50, 0
2, 800, Note_off_c, 1, 57, 0
2, 800, Note_off_c, 1, 65, 0
2, 800, Note_off_c, 1, 93, 0
2, 1240, Note_on_c, 1, 61, 127
2, 1240, Note_on_c, 1, 67, 127
2, 1440, Note_on_c, 1, 51, 127
2, 1600, Note_off_c, 1, 51, 0
2, 1600, Note_off_c, 1, 61, 0
2, 1640, Note_on_c, 1, 58, 127
2, 1800, Note_off_c, 1, 67, 0
2, 1840, Note_off_c, 1, 58, 0
2, 1840, Note_on_c, 1, 63, 127
2, 1840, Note_on_c, 1, 72, 127
2, 1840, Note_on_c, 1, 91, 127
2, 2000, Note_off_c, 1, 91, 0
2, 2040, Note_off_c, 1, 63, 0
2, 2040, Note_off_c, 1, 72, 0
2, 2080, Note_on_c, 1, 55, 127
2, 2080, Note_on_c, 1, 60, 127
2, 2080, Note_on_c, 1, 70, 127
2, 2480, Note_off_c, 1, 55, 0
2, 2480, Note_off_c, 1, 60, 0
2, 2480, Note_off_c, 1, 70, 0
2, 2520, Note_on_c, 1, 55, 127
2, 2520, Note_on_c, 1, 60, 127
2, 2520, Note_on_c, 1, 69, 127
2, 3080, Note_off_c, 1, 60, 0
2, 3080, Note_off_c, 1, 69, 0
2, 3120, Note_on_c, 1, 48, 127
2, 3120, Note_on_c, 1, 64, 127
2, 3280, Note_off_c, 1, 55, 0
2, 3280, Note_on_c, 1, 67, 127
2, 3680, Note_off_c, 1, 48, 0
2, 3720, Note_on_c, 1, 48, 127
2, 4240, Note_off_c, 1, 48, 0
2, 4240, Note_off_c, 1, 64, 0
2, 4240, Note_off_c, 1, 67, 0
2, 4280, Note_on_c, 1, 48, 127
2, 4280, Note_on_c, 1, 64, 127
2, 4280, Note_on_c, 1, 67, 127
2, 4320, Note_off_c, 1, 48, 0
2, 4320, Note_off_c, 1, 64, 0
2, 4320, Note_off_c, 1, 67, 0
2, 4360, Note_on_c, 1, 48, 127
2, 4360, Note_on_c, 1, 53, 127
2, 4360, Note_on_c, 1, 70, 127
2, 4520, Note_off_c, 1, 48, 0
2, 4520, Note_on_c, 1, 52, 127
2, 4520, Note_off_c, 1, 53, 0
2, 4520, Note_on_c, 1, 58, 127
2, 4520, Note_on_c, 1, 67, 127
2, 4520, Note_off_c, 1, 70, 0
2, 4520, Note_on_c, 1, 72, 127
2, 4560, Note_on_c, 1, 48, 127
2, 4560, Note_off_c, 1, 52, 0
2, 4560, Note_on_c, 1, 55, 127
2, 4560, Note_off_c, 1, 58, 0
2, 4560, Note_off_c, 1, 67, 0
2, 4560, Note_on_c, 1, 69, 127
2, 4560, Note_off_c, 1, 72, 0
2, 5960, Note_off_c, 1, 48, 0
2, 5960, Note_off_c, 1, 55, 0
2, 5960, Note_on_c, 1, 67, 127
2, 5960, Note_off_c, 1, 69, 0
2, 6000, Note_on_c, 1, 45, 127
2, 6000, Note_on_c, 1, 57, 127
2, 6000, Note_off_c, 1, 67, 0
2, 6000, Note_on_c, 1, 72, 127
2, 6240, Note_on_c, 1, 65, 127
2, 6240, Note_off_c, 1, 72, 0
2, 6360, Note_off_c, 1, 45, 0
2, 6360, Note_off_c, 1, 57, 0
2, 6360, Note_off_c, 1, 65, 0
2, 6400, Note_on_c, 1, 45, 127
2, 6400, Note_on_c, 1, 57, 127
2, 6400, Note_on_c, 1, 65, 127
2, 6440, Note_off_c, 1, 65, 0
2, 6440, Note_on_c, 1, 72, 127
2, 6640, Note_off_c, 1, 72, 0
2, 6680, Note_on_c, 1, 65, 127
2, 7040, Note_off_c, 1, 45, 0
2, 7040, Note_off_c, 1, 57, 0
2, 7040, Note_off_c, 1, 65, 0
2, 7080, Note_on_c, 1, 46, 127
2, 7080, Note_on_c, 1, 58, 127
2, 7080, Note_on_c, 1, 70, 127
2, 8200, Note_off_c, 1, 46, 0
2, 8240, Note_on_c, 1, 46, 127
2, 8240, Note_off_c, 1, 70, 0
2, 8280, Note_on_c, 1, 67, 127
2, 8400, Note_off_c, 1, 67, 0
2, 8440, Note_on_c, 1, 67, 127
2, 8640, Note_off_c, 1, 46, 0
2, 8640, Note_off_c, 1, 58, 0
2, 8640, Note_off_c, 1, 67, 0
2, 8720, Note_on_c, 1, 41, 127
2, 8720, Note_on_c, 1, 53, 127
2, 8720, Note_on_c, 1, 65, 127
2, 9440, Note_off_c, 1, 41, 0
2, 9440, Note_off_c, 1, 53, 0
2, 9440, Note_off_c, 1, 65, 0
2, 9480, Note_on_c, 1, 50, 127
2, 9480, Note_on_c, 1, 62, 127
2, 9480, Note_on_c, 1, 74, 127
2, 10720, Note_off_c, 1, 50, 0
2, 10720, Note_off_c, 1, 62, 0
2, 10720, Note_off_c, 1, 74, 0
2, 10760, Note_on_c, 1, 49, 127
2, 10760, Note_on_c, 1, 61, 127
2, 10760, Note_on_c, 1, 73, 127
2, 10920, Note_off_c, 1, 49, 0
2, 10920, Note_off_c, 1, 61, 0
2, 10920, Note_off_c, 1, 73, 0
2, 10960, Note_on_c, 1, 49, 127
2, 10960, Note_on_c, 1, 61, 127
2, 10960, Note_on_c, 1, 73, 127
2, 11200, Note_on_c, 1, 66, 127
2, 11200, Note_on_c, 1, 70, 127
2, 11920, Note_on_c, 1, 45, 127
2, 11920, Note_off_c, 1, 49, 0
2, 11920, Note_on_c, 1, 55, 127
2, 11920, Note_off_c, 1, 66, 0
2, 11920, Note_on_c, 1, 69, 127
2, 11920, Note_off_c, 1, 70, 0
2, 11920, Note_off_c, 1, 73, 0
2, 11960, Note_off_c, 1, 45, 0
2, 11960, Note_off_c, 1, 55, 0
2, 11960, Note_off_c, 1, 61, 0
2, 11960, Note_off_c, 1, 69, 0
2, 12000, Note_on_c, 1, 45, 127
2, 12000, Note_on_c, 1, 52, 127
2, 12000, Note_on_c, 1, 81, 127
2, 13080, Note_off_c, 1, 45, 0
2, 13080, Note_off_c, 1, 52, 0
2, 13080, Note_off_c, 1, 81, 0
2, 13120, Note_on_c, 1, 45, 127
2, 13120, Note_on_c, 1, 52, 127
2, 13120, Note_on_c, 1, 81, 127
2, 13400, Note_on_c, 1, 50, 127
2, 13400, Note_off_c, 1, 52, 0
2, 13400, Note_on_c, 1, 76, 127
2, 13400, Note_off_c, 1, 81, 0
2, 13600, Note_off_c, 1, 45, 0
2, 13600, Note_off_c, 1, 50, 0
2, 13600, Note_off_c, 1, 76, 0
2, 13640, Note_on_c, 1, 35, 127
2, 13640, Note_on_c, 1, 47, 127
2, 13640, Note_on_c, 1, 98, 127
2, 13640, Note_on_c, 1, 100, 127
2, 13680, Note_off_c, 1, 35, 0
2, 13680, Note_off_c, 1, 47, 0
2, 13680, Note_on_c, 1, 71, 127
2, 13680, Note_on_c, 1, 76, 127
2, 13680, Note_on_c, 1, 79, 127
2, 13680, Note_on_c, 1, 95, 127
2, 13680, Note_off_c, 1, 98, 0
2, 13680, Note_off_c, 1, 100, 0
2, 13720, Note_on_c, 1, 35, 127
2, 13720, Note_on_c, 1, 47, 127
2, 13720, Note_off_c, 1, 71, 0
2, 13720, Note_off_c, 1, 76, 0
2, 13720, Note_off_c, 1, 79, 0
2, 13720, Note_off_c, 1, 95, 0
2, 13720, Note_on_c, 1, 98, 127
2, 13720, Note_on_c, 1, 100, 127
2, 13760, Note_off_c, 1, 35, 0
2, 13760, Note_on_c, 1, 39, 127
2, 13760, Note_off_c, 1, 47, 0
2, 13760, Note_on_c, 1, 54, 127
2, 13760, Note_on_c, 1, 69, 127
2, 13760, Note_off_c, 1, 98, 0
2, 13760, Note_off_c, 1, 100, 0
2, 13800, Note_on_c, 1, 35, 127
2, 13800, Note_off_c, 1, 39, 0
2, 13800, Note_on_c, 1, 47, 127
2, 13800, Note_off_c, 1, 54, 0
2, 13800, Note_off_c, 1, 69, 0
2, 13800, Note_on_c, 1, 88, 127
2, 13840, Note_off_c, 1, 35, 0
2, 13840, Note_off_c, 1, 47, 0
2, 13840, Note_on_c, 1, 77, 127
2, 13840, Note_on_c, 1, 81, 127
2, 13840, Note_off_c, 1, 88, 0
2, 13840, Note_on_c, 1, 91, 127
2, 13840, Note_on_c, 1, 96, 127
2, 13880, Note_on_c, 1, 35, 127
2, 13880, Note_on_c, 1, 47, 127
2, 13880, Note_on_c, 1, 59, 127
2, 13880, Note_off_c, 1, 77, 0
2, 13880, Note_on_c, 1, 80, 127
2, 13880, Note_off_c, 1, 81, 0
2, 13880, Note_off_c, 1, 91, 0
2, 13880, Note_off_c, 1, 96, 0
2, 13920, Note_off_c, 1, 35, 0
2, 13920, Note_on_c, 1, 46, 127
2, 13920, Note_off_c, 1, 47, 0
2, 13920, Note_on_c, 1, 50, 127
2, 13920, Note_on_c, 1, 55, 127
2, 13920, Note_off_c, 1, 59, 0
2, 13920, Note_off_c, 1, 80, 0
2, 13920, Note_on_c, 1, 91, 127
2, 13960, Note_off_c, 1, 46, 0
2, 13960, Note_off_c, 1, 50, 0
2, 13960, Note_off_c, 1, 55, 0
2, 13960, Note_on_c, 1, 61, 127
2, 13960, Note_on_c, 1, 64, 127
2, 13960, Note_on_c, 1, 70, 127
2, 13960, Note_on_c, 1, 73, 127
2, 13960, Note_on_c, 1, 76, 127
2, 13960, Note_on_c, 1, 85, 127
2, 13960, Note_off_c, 1, 91, 0
2, 14000, Note_on_c, 1, 35, 127
2, 14000, Note_on_c, 1, 47, 127
2, 14000, Note_off_c, 1, 61, 0
2, 14000, Note_off_c, 1, 64, 0
2, 14000, Note_off_c, 1, 70, 0
2, 14000, Note_on_c, 1, 71, 127
2, 14000, Note_off_c, 1, 73, 0
2, 14000, Note_on_c, 1, 74, 127
2, 14000, Note_off_c, 1, 76, 0
2, 14000, Note_off_c, 1, 85, 0
2, 14040, Note_off_c, 1, 35, 0
2, 14040, Note_off_c, 1, 47, 0
2, 14040, Note_on_c, 1, 56, 127
2, 14040, Note_off_c, 1, 71, 0
2, 14040, Note_off_c, 1, 74, 0
2, 14040, Note_on_c, 1, 78, 127
2, 14040, Note_on_c, 1, 86, 127
2, 14080, Note_on_c, 1, 36, 127
2, 14080, Note_on_c, 1, 48, 127
2, 14080, Note_off_c, 1, 56, 0
2, 14080, Note_on_c, 1, 57, 127
2, 14080, Note_on_c, 1, 60, 127
2, 14080, Note_on_c, 1, 65, 127
2, 14080, Note_on_c, 1, 72, 127
2, 14080, Note_off_c, 1, 78, 0
2, 14080, Note_off_c, 1, 86, 0
2, 14120, Note_off_c, 1, 36, 0
2, 14120, Note_on_c, 1, 37, 127
2, 14120, Note_off_c, 1, 48, 0
2, 14120, Note_off_c, 1, 57, 0
2, 14120, Note_on_c, 1, 59, 127
2, 14120, Note_off_c, 1, 60, 0
2, 14120, Note_off_c, 1, 65, 0
2, 14120, Note_off_c, 1, 72, 0
2, 14160, Note_on_c, 1, 34, 127
2, 14160, Note_off_c, 1, 37, 0
2, 14160, Note_on_c, 1, 41, 127
2, 14160, Note_on_c, 1, 46, 127
2, 14160, Note_off_c, 1, 59, 0
2, 14160, Note_on_c, 1, 73, 127
2, 14160, Note_on_c, 1, 77, 127
2, 14200, Note_off_c, 1, 34, 0
2, 14200, Note_off_c, 1, 41, 0
2, 14200, Note_on_c, 1, 43, 127
2, 14200, Note_off_c, 1, 46, 0
2, 14200, Note_on_c, 1, 52, 127
2, 14200, Note_off_c, 1, 73, 0
2, 14200, Note_on_c, 1, 76, 127
2, 14200, Note_off_c, 1, 77, 0
2, 14200, Note_on_c, 1, 79, 127
2, 14200, Note_on_c, 1, 83, 127
2, 14200, Note_on_c, 1, 88, 127
2, 14240, Note_off_c, 1, 43, 0
2, 14240, Note_on_c, 1, 48, 127
2, 14240, Note_off_c, 1, 52, 0
2, 14240, Note_on_c, 1, 56, 127
2, 14240, Note_on_c, 1, 60, 127
2, 14240, Note_on_c, 1, 67, 127
2, 14240, Note_on_c, 1, 72, 127
2, 14240, Note_off_c, 1, 76, 0
2, 14240, Note_on_c, 1, 77, 127
2, 14240, Note_off_c, 1, 83, 0
2, 14240, Note_off_c, 1, 88, 0
2, 14280, Note_off_c, 1, 48, 0
2, 14280, Note_on_c, 1, 50, 127
2, 14280, Note_off_c, 1, 56, 0
2, 14280, Note_on_c, 1, 57, 127
2, 14280, Note_off_c, 1, 60, 0
2, 14280, Note_on_c, 1, 62, 127
2, 14280, Note_on_c, 1, 66, 127
2, 14280, Note_off_c, 1, 67, 0
2, 14280, Note_off_c, 1, 77, 0
2, 14280, Note_on_c, 1, 78, 127
2, 14280, Note_off_c, 1, 79, 0
2, 14320, Note_on_c, 1, 38, 127
2, 14320, Note_off_c, 1, 50, 0
2, 14320, Note_off_c, 1, 57, 0
2, 14320, Note_off_c, 1, 62, 0
2, 14320, Note_off_c, 1, 66, 0
2, 14320, Note_on_c, 1, 67, 127
2, 14320, Note_on_c, 1, 70, 127
2, 14320, Note_off_c, 1, 72, 0
2, 14320, Note_off_c, 1, 78, 0
2, 14320, Note_on_c, 1, 79, 127
2, 14360, Note_off_c, 1, 38, 0
2, 14360, Note_on_c, 1, 54, 127
2, 14360, Note_on_c, 1, 60, 127
2, 14360, Note_off_c, 1, 67, 0
2, 14360, Note_on_c, 1, 73, 127
2, 14360, Note_off_c, 1, 79, 0
2, 14360, Note_on_c, 1, 82, 127
2, 14400, Note_off_c, 1, 54, 0
2, 14400, Note_off_c, 1, 60, 0
2, 14400, Note_off_c, 1, 70, 0
2, 14400, Note_off_c, 1, 73, 0
2, 14400, Note_off_c, 1, 82, 0
2, 14440, Note_on_c, 1, 50, 127
2, 14440, Note_on_c, 1, 57, 127
2, 14440, Note_on_c, 1, 66, 127
2, 14440, Note_on_c, 1, 74, 127
2, 15240, Note_off_c, 1, 50, 0
2, 15240, Note_off_c, 1, 57, 0
2, 15240, Note_off_c, 1, 66, 0
2, 15240, Note_off_c, 1, 74, 0
2, 15720, Note_on_c, 1, 50, 127
2, 15720, Note_on_c, 1, 62, 127
2, 15720, Note_on_c, 1, 66, 127
2, 15720, Note_on_c, 1, 69, 127
2, 16880, Note_off_c, 1, 50, 0
2, 16880, Note_off_c, 1, 62, 0
2, 16880, Note_off_c, 1, 66, 0
2, 16880, Note_off_c, 1, 69, 0
2, 16920, Note_on_c, 1, 57, 127
2, 16920, Note_on_c, 1, 73, 127
2, 17480, Note_on_c, 1, 52, 127
2, 17480, Note_off_c, 1, 57, 0
2, 17480, Note_on_c, 1, 64, 127
2, 17480, Note_on_c, 1, 66, 127
2, 17480, Note_on_c, 1, 68, 127
2, 17480, Note_off_c, 1, 73, 0
2, 17520, Note_off_c, 1, 52, 0
2, 17520, Note_off_c, 1, 64, 0
2, 17520, Note_off_c, 1, 66, 0
2, 17520, Note_off_c, 1, 68, 0
2, 17560, Note_on_c, 1, 47, 127
2, 17560, Note_on_c, 1, 57, 127
2, 17560, Note_on_c, 1, 59, 127
2, 17560, Note_on_c, 1, 63, 127
2, 17560, Note_on_c, 1, 69, 127
2, 17560, Note_on_c, 1, 71, 127
2, 17560, Note_on_c, 1, 79, 127
2, 17600, Note_off_c, 1, 47, 0
2, 17600, Note_off_c, 1, 57, 0
2, 17600, Note_off_c, 1, 63, 0
2, 17600, Note_on_c, 1, 65, 127
2, 17600, Note_on_c, 1, 67, 127
2, 17600, Note_off_c, 1, 69, 0
2, 17600, Note_off_c, 1, 71, 0
2, 17600, Note_on_c, 1, 74, 127
2, 17600, Note_off_c, 1, 79, 0
2, 17600, Note_on_c, 1, 86, 127
2, 17680, Note_on_c, 1, 63, 127
2, 17680, Note_off_c, 1, 65, 0
2, 17680, Note_off_c, 1, 67, 0
2, 17680, Note_on_c, 1, 68, 127
2, 17680, Note_off_c, 1, 74, 0
2, 17680, Note_on_c, 1, 79, 127
2, 17680, Note_off_c, 1, 86, 0
2, 17720, Note_off_c, 1, 63, 0
2, 17720, Note_on_c, 1, 65, 127
2, 17720, Note_on_c, 1, 67, 127
2, 17720, Note_off_c, 1, 68, 0
2, 17720, Note_on_c, 1, 74, 127
2, 17720, Note_off_c, 1, 79, 0
2, 17720, Note_on_c, 1, 86, 127
2, 18080, Note_on_c, 1, 52, 127
2, 18080, Note_on_c, 1, 64, 127
2, 18080, Note_off_c, 1, 65, 0
2, 18080, Note_off_c, 1, 74, 0
2, 18080, Note_off_c, 1, 86, 0
2, 18120, Note_on_c, 1, 39, 127
2, 18120, Note_on_c, 1, 42, 127
2, 18120, Note_on_c, 1, 46, 127
2, 18120, Note_on_c, 1, 51, 127
2, 18120, Note_off_c, 1, 52, 0
2, 18120, Note_off_c, 1, 59, 0
2, 18120, Note_off_c, 1, 64, 0
2, 18120, Note_off_c, 1, 67, 0
2, 18120, Note_on_c, 1, 78, 127
2, 18120, Note_on_c, 1, 90, 127
2, 18160, Note_off_c, 1, 39, 0
2, 18160, Note_off_c, 1, 42, 0
2, 18160, Note_off_c, 1, 46, 0
2, 18160, Note_off_c, 1, 51, 0
2, 18160, Note_on_c, 1, 71, 127
2, 18160, Note_on_c, 1, 76, 127
2, 18160, Note_off_c, 1, 78, 0
2, 18160, Note_on_c, 1, 79, 127
2, 18160, Note_on_c, 1, 86, 127
2, 18160, Note_off_c, 1, 90, 0
2, 18160, Note_on_c, 1, 91, 127
2, 18200, Note_on_c, 1, 59, 127
2, 18200, Note_off_c, 1, 71, 0
2, 18200, Note_off_c, 1, 76, 0
2, 18200, Note_off_c, 1, 79, 0
2, 18200, Note_on_c, 1, 81, 127
2, 18200, Note_on_c, 1, 89, 127
2, 18200, Note_off_c, 1, 91, 0
2, 18200, Note_on_c, 1, 93, 127
2, 18240, Note_on_c, 1, 43, 127
2, 18240, Note_off_c, 1, 59, 0
2, 18240, Note_on_c, 1, 61, 127
2, 18240, Note_on_c, 1, 64, 127
2, 18240, Note_on_c, 1, 67, 127
2, 18240, Note_on_c, 1, 69, 127
2, 18240, Note_on_c, 1, 73, 127
2, 18240, Note_off_c, 1, 81, 0
2, 18240, Note_off_c, 1, 86, 0
2, 18240, Note_off_c, 1, 89, 0
2, 18240, Note_off_c, 1, 93, 0
2, 18280, Note_off_c, 1, 43, 0
2, 18280, Note_off_c, 1, 61, 0
2, 18280, Note_off_c, 1, 64, 0
2, 18280, Note_off_c, 1, 67, 0
2, 18280, Note_off_c, 1, 69, 0
2, 18280, Note_off_c, 1, 73, 0
2, 18280, Note_on_c, 1, 74, 127
2, 18280, Note_on_c, 1, 77, 127
2, 18280, Note_on_c, 1, 80, 127
2, 18280, Note_on_c, 1, 83, 127
2, 18280, Note_on_c, 1, 94, 127
2, 18320, Note_on_c, 1, 68, 127
2, 18320, Note_on_c, 1, 72, 127
2, 18320, Note_off_c, 1, 74, 0
2, 18320, Note_off_c, 1, 83, 0
2, 18320, Note_on_c, 1, 89, 127
2, 18320, Note_off_c, 1, 94, 0
2, 18320, Note_on_c, 1, 101, 127
2, 18360, Note_on_c, 1, 65, 127
2, 18360, Note_off_c, 1, 72, 0
2, 18360, Note_on_c, 1, 73, 127
2, 18360, Note_off_c, 1, 80, 0
2, 18360, Note_on_c, 1, 82, 127
2, 18360, Note_on_c, 1, 85, 127
2, 18360, Note_off_c, 1, 89, 0
2, 18360, Note_on_c, 1, 94, 127
2, 18360, Note_off_c, 1, 101, 0
2, 18400, Note_on_c, 1, 55, 127
2, 18400, Note_on_c, 1, 62, 127
2, 18400, Note_off_c, 1, 65, 0
2, 18400, Note_off_c, 1, 68, 0
2, 18400, Note_on_c, 1, 71, 127
2, 18400, Note_off_c, 1, 73, 0
2, 18400, Note_off_c, 1, 77, 0
2, 18400, Note_on_c, 1, 79, 127
2, 18400, Note_off_c, 1, 82, 0
2, 18400, Note_on_c, 1, 83, 127
2, 18400, Note_off_c, 1, 85, 0
2, 18400, Note_off_c, 1, 94, 0
2, 18440, Note_on_c, 1, 43, 127
2, 18440, Note_on_c, 1, 47, 127
2, 18440, Note_on_c, 1, 50, 127
2, 18440, Note_on_c, 1, 59, 127
2, 18440, Note_off_c, 1, 62, 0
2, 18440, Note_off_c, 1, 71, 0
2, 18440, Note_off_c, 1, 79, 0
2, 18440, Note_off_c, 1, 83, 0
2, 18480, Note_off_c, 1, 43, 0
2, 18480, Note_off_c, 1, 47, 0
2, 18480, Note_off_c, 1, 50, 0
2, 18480, Note_off_c, 1, 55, 0
2, 18480, Note_off_c, 1, 59, 0
2, 18480, Note_on_c, 1, 61, 127
2, 18480, Note_on_c, 1, 70, 127
2, 18480, Note_on_c, 1, 73, 127
2, 18480, Note_on_c, 1, 82, 127
2, 18480, Note_on_c, 1, 85, 127
2, 18520, Note_on_c, 1, 38, 127
2, 18520, Note_on_c, 1, 42, 127
2, 18520, Note_on_c, 1, 45, 127
2, 18520, Note_on_c, 1, 50, 127
2, 18520, Note_off_c, 1, 61, 0
2, 18520, Note_off_c, 1, 70, 0
2, 18520, Note_off_c, 1, 73, 0
2, 18520, Note_off_c, 1, 82, 0
2, 18520, Note_off_c, 1, 85, 0
2, 18520, Note_on_c, 1, 86, 127
2, 18520, Note_on_c, 1, 90, 127
2, 18520, Note_on_c, 1, 93, 127
2, 18520, Note_on_c, 1, 98, 127
2, 18560, Note_off_c, 1, 38, 0
2, 18560, Note_off_c, 1, 42, 0
2, 18560, Note_off_c, 1, 45, 0
2, 18560, Note_off_c, 1, 50, 0
2, 18560, Note_on_c, 1, 54, 127
2, 18560, Note_on_c, 1, 66, 127
2, 18560, Note_on_c, 1, 74, 127
2, 18560, Note_on_c, 1, 81, 127
2, 18560, Note_off_c, 1, 86, 0
2, 18560, Note_off_c, 1, 90, 0
2, 18560, Note_off_c, 1, 93, 0
2, 18560, Note_off_c, 1, 98, 0
2, 18600, Note_off_c, 1, 54, 0
2, 18600, Note_off_c, 1, 66, 0
2, 18600, Note_off_c, 1, 74, 0
2, 18600, Note_off_c, 1, 81, 0
2, 18640, Note_on_c, 1, 47, 127
2, 18640, Note_on_c, 1, 50, 127
2, 18640, Note_on_c, 1, 79, 127
2, 18640, Note_on_c, 1, 91, 127
2, 19160, Note_off_c, 1, 47, 0
2, 19160, Note_off_c, 1, 50, 0
2, 19160, Note_off_c, 1, 79, 0
2, 19160, Note_off_c, 1, 91, 0
2, 19200, Note_on_c, 1, 60, 127
2, 19200, Note_on_c, 1, 65, 127
2, 19200, Note_on_c, 1, 69, 127
2, 19200, Note_on_c, 1, 72, 127
2, 19200, Note_on_c, 1, 77, 127
2, 19200, Note_on_c, 1, 81, 127
2, 19760, Note_off_c, 1, 60, 0
2, 19760, Note_off_c, 1, 65, 0
2, 19760, Note_off_c, 1, 69, 0
2, 19760, Note_off_c, 1, 72, 0
2, 19760, Note_off_c, 1, 77, 0
2, 19760, Note_off_c, 1, 81, 0
2, 19800, Note_on_c, 1, 60, 127
2, 19800, Note_on_c, 1, 65, 127
2, 19800, Note_on_c, 1, 69, 127
2, 19800, Note_on_c, 1, 72, 127
2, 19800, Note_on_c, 1, 77, 127
2, 19800, Note_on_c, 1, 81, 127
2, 20360, Note_off_c, 1, 60, 0
2, 20360, Note_off_c, 1, 65, 0
2, 20360, Note_off_c, 1, 69, 0
2, 20360, Note_off_c, 1, 72, 0
2, 20360, Note_off_c, 1, 77, 0
2, 20360, Note_off_c, 1, 81, 0
2, 20400, Note_on_c, 1, 53, 127
2, 20400, Note_on_c, 1, 82, 127
2, 20400, Note_on_c, 1, 85, 127
2, 20400, Note_on_c, 1, 94, 127
2, 20960, Note_off_c, 1, 53, 0
2, 20960, Note_off_c, 1, 82, 0
2, 20960, Note_off_c, 1, 85, 0
2, 20960, Note_off_c, 1, 94, 0
2, 21000, Note_on_c, 1, 27, 127
2, 21000, Note_on_c, 1, 39, 127
2, 21000, Note_on_c, 1, 63, 127
2, 21000, Note_on_c, 1, 67, 127
2, 21000, Note_on_c, 1, 75, 127
2, 21760, Note_off_c, 1, 27, 0
2, 21760, Note_on_c, 1, 37, 127
2, 21760, Note_off_c, 1, 39, 0
2, 21760, Note_on_c, 1, 49, 127
2, 21760, Note_on_c, 1, 53, 127
2, 21760, Note_on_c, 1, 58, 127
2, 21760, Note_on_c, 1, 61, 127
2, 21760, Note_off_c, 1, 63, 0
2, 21760, Note_off_c, 1, 67, 0
2, 21760, Note_off_c, 1, 75, 0
2, 21800, Note_off_c, 1, 37, 0
2, 21800, Note_off_c, 1, 49, 0
2, 21800, Note_off_c, 1, 53, 0
2, 21800, Note_off_c, 1, 58, 0
2, 21800, Note_off_c, 1, 61, 0
2, 21840, Note_on_c, 1, 35, 127
2, 21840, Note_on_c, 1, 42, 127
2, 21840, Note_on_c, 1, 52, 127
2, 21840, Note_on_c, 1, 58, 127
2, 21840, Note_on_c, 1, 66, 127
2, 21840, Note_on_c, 1, 71, 127
2, 21880, Note_off_c, 1, 35, 0
2, 21880, Note_off_c, 1, 42, 0
2, 21880, Note_off_c, 1, 52, 0
2, 21880, Note_on_c, 1, 55, 127
2, 21880, Note_off_c, 1, 58, 0
2, 21880, Note_off_c, 1, 71, 0
2, 21880, Note_on_c, 1, 74, 127
2, 21880, Note_on_c, 1, 81, 127
2, 21880, Note_on_c, 1, 84, 127
2, 21920, Note_on_c, 1, 38, 127
2, 21920, Note_on_c, 1, 50, 127
2, 21920, Note_off_c, 1, 55, 0
2, 21920, Note_on_c, 1, 57, 127
2, 21920, Note_on_c, 1, 60, 127
2, 21920, Note_off_c, 1, 66, 0
2, 21920, Note_on_c, 1, 67, 127
2, 21920, Note_off_c, 1, 74, 0
2, 21920, Note_off_c, 1, 81, 0
2, 21920, Note_off_c, 1, 84, 0
2, 21920, Note_on_c, 1, 93, 127
2, 21960, Note_on_c, 1, 27, 127
2, 21960, Note_off_c, 1, 38, 0
2, 21960, Note_on_c, 1, 39, 127
2, 21960, Note_off_c, 1, 50, 0
2, 21960, Note_off_c, 1, 57, 0
2, 21960, Note_off_c, 1, 60, 0
2, 21960, Note_on_c, 1, 63, 127
2, 21960, Note_on_c, 1, 75, 127
2, 21960, Note_off_c, 1, 93, 0
2, 22000, Note_off_c, 1, 27, 0
2, 22000, Note_off_c, 1, 39, 0
2, 22000, Note_on_c, 1, 45, 127
2, 22000, Note_on_c, 1, 53, 127
2, 22000, Note_on_c, 1, 56, 127
2, 22000, Note_on_c, 1, 58, 127
2, 22000, Note_on_c, 1, 62, 127
2, 22000, Note_off_c, 1, 63, 0
2, 22000, Note_off_c, 1, 67, 0
2, 22000, Note_off_c, 1, 75, 0
2, 22040, Note_off_c, 1, 45, 0
2, 22040, Note_off_c, 1, 53, 0
2, 22040, Note_off_c, 1, 56, 0
2, 22040, Note_on_c, 1, 57, 127
2, 22040, Note_off_c, 1, 58, 0
2, 22040, Note_on_c, 1, 61, 127
2, 22040, Note_off_c, 1, 62, 0
2, 22040, Note_on_c, 1, 64, 127
2, 22040, Note_on_c, 1, 67, 127
2, 22040, Note_on_c, 1, 69, 127
2, 22040, Note_on_c, 1, 85, 127
2, 22080, Note_on_c, 1, 39, 127
2, 22080, Note_on_c, 1, 51, 127
2, 22080, Note_off_c, 1, 57, 0
2, 22080, Note_off_c, 1, 64, 0
2, 22080, Note_on_c, 1, 66, 127
2, 22080, Note_off_c, 1, 67, 0
2, 22080, Note_off_c, 1, 69, 0
2, 22080, Note_on_c, 1, 70, 127
2, 22080, Note_on_c, 1, 73, 127
2, 22080, Note_on_c, 1, 82, 127
2, 22080, Note_off_c, 1, 85, 0
2, 22120, Note_off_c, 1, 39, 0
2, 22120, Note_off_c, 1, 51, 0
2, 22120, Note_on_c, 1, 54, 127
2, 22120, Note_on_c, 1, 63, 127
2, 22120, Note_off_c, 1, 66, 0
2, 22120, Note_off_c, 1, 70, 0
2, 22120, Note_off_c, 1, 73, 0
2, 22160, Note_off_c, 1, 54, 0
2, 22160, Note_on_c, 1, 55, 127
2, 22160, Note_off_c, 1, 61, 0
2, 22160, Note_off_c, 1, 63, 0
2, 22160, Note_on_c, 1, 64, 127
2, 22160, Note_on_c, 1, 72, 127
2, 22160, Note_on_c, 1, 81, 127
2, 22160, Note_off_c, 1, 82, 0
2, 22160, Note_on_c, 1, 84, 127
2, 22200, Note_off_c, 1, 55, 0
2, 22200, Note_off_c, 1, 64, 0
2, 22200, Note_off_c, 1, 72, 0
2, 22200, Note_off_c, 1, 81, 0
2, 22200, Note_off_c, 1, 84, 0
2, 22240, Note_on_c, 1, 56, 127
2, 22240, Note_on_c, 1, 63, 127
2, 22240, Note_on_c, 1, 77, 127
2, 22240, Note_on_c, 1, 84, 127
2, 23200, Note_on_c, 1, 47, 127
2, 23200, Note_off_c, 1, 56, 0
2, 23200, Note_on_c, 1, 57, 127
2, 23200, Note_on_c, 1, 68, 127
2, 23200, Note_off_c, 1, 77, 0
2, 23200, Note_off_c, 1, 84, 0
2, 23240, Note_off_c, 1, 47, 0
2, 23240, Note_on_c, 1, 56, 127
2, 23240, Note_off_c, 1, 57, 0
2, 23240, Note_on_c, 1, 59, 127
2, 23240, Note_on_c, 1, 62, 127
2, 23240, Note_off_c, 1, 63, 0
2, 23240, Note_on_c, 1, 64, 127
2, 23240, Note_off_c, 1, 68, 0
2, 23240, Note_on_c, 1, 80, 127
2, 23240, Note_on_c, 1, 83, 127
2, 23280, Note_off_c, 1, 56, 0
2, 23280, Note_off_c, 1, 59, 0
2, 23280, Note_off_c, 1, 62, 0
2, 23280, Note_off_c, 1, 64, 0
2, 23280, Note_on_c, 1, 76, 127
2, 23280, Note_on_c, 1, 77, 127
2, 23280, Note_off_c, 1, 83, 0
2, 23320, Note_on_c, 1, 59, 127
2, 23320, Note_on_c, 1, 66, 127
2, 23320, Note_on_c, 1, 71, 127
2, 23320, Note_off_c, 1, 76, 0
2, 23320, Note_off_c, 1, 77, 0
2, 23320, Note_on_c, 1, 79, 127
2, 23320, Note_off_c, 1, 80, 0
2, 23360, Note_on_c, 1, 47, 127
2, 23360, Note_off_c, 1, 59, 0
2, 23360, Note_off_c, 1, 66, 0
2, 23360, Note_off_c, 1, 71, 0
2, 23360, Note_off_c, 1, 79, 0
2, 23360, Note_on_c, 1, 93, 127
2, 23360, Note_on_c, 1, 95, 127
2, 23400, Note_off_c, 1, 47, 0
2, 23400, Note_off_c, 1, 93, 0
2, 23400, Note_off_c, 1, 95, 0
2, 23440, Note_on_c, 1, 41, 127
2, 23440, Note_on_c, 1, 65, 127
2, 23440, Note_on_c, 1, 70, 127
2, 23440, Note_on_c, 1, 74, 127
2, 23440, Note_on_c, 1, 77, 127
2, 23640, Note_off_c, 1, 41, 0
2, 23640, Note_off_c, 1, 65, 0
2, 23640, Note_off_c, 1, 70, 0
2, 23640, Note_off_c, 1, 74, 0
2, 23640, Note_off_c, 1, 77, 0
2, 23680, Note_on_c, 1, 41, 127
2, 23680, Note_on_c, 1, 65, 127
2, 23680, Note_on_c, 1, 70, 127
2, 23680, Note_on_c, 1, 74, 127
2, 23680, Note_on_c, 1, 77, 127
2, 23840, Note_off_c, 1, 41, 0
2, 23880, Note_on_c, 1, 45, 127
2, 23880, Note_on_c, 1, 50, 127
2, 23880, Note_on_c, 1, 57, 127
2, 23880, Note_on_c, 1, 69, 127
2, 23880, Note_off_c, 1, 70, 0
2, 23880, Note_off_c, 1, 74, 0
2, 23880, Note_off_c, 1, 77, 0
2, 24240, Note_off_c, 1, 45, 0
2, 24240, Note_off_c, 1, 50, 0
2, 24240, Note_off_c, 1, 57, 0
2, 24240, Note_on_c, 1, 62, 127
2, 24240, Note_off_c, 1, 69, 0
2, 24240, Note_on_c, 1, 77, 127
2, 24280, Note_on_c, 1, 46, 127
2, 24280, Note_on_c, 1, 51, 127
2, 24280, Note_on_c, 1, 58, 127
2, 24280, Note_on_c, 1, 61, 127
2, 24280, Note_off_c, 1, 62, 0
2, 24280, Note_off_c, 1, 65, 0
2, 24280, Note_off_c, 1, 77, 0
2, 24320, Note_off_c, 1, 46, 0
2, 24320, Note_off_c, 1, 51, 0
2, 24320, Note_on_c, 1, 53, 127
2, 24320, Note_on_c, 1, 55, 127
2, 24320, Note_off_c, 1, 61, 0
2, 24320, Note_on_c, 1, 74, 127
2, 24360, Note_on_c, 1, 45, 127
2, 24360, Note_on_c, 1, 48, 127
2, 24360, Note_off_c, 1, 53, 0
2, 24360, Note_off_c, 1, 55, 0
2, 24360, Note_off_c, 1, 58, 0
2, 24360, Note_on_c, 1, 64, 127
2, 24360, Note_on_c, 1, 67, 127
2, 24360, Note_on_c, 1, 70, 127
2, 24360, Note_on_c, 1, 72, 127
2, 24360, Note_off_c, 1, 74, 0
2, 24400, Note_on_c, 1, 36, 127
2, 24400, Note_off_c, 1, 45, 0
2, 24400, Note_off_c, 1, 48, 0
2, 24400, Note_on_c, 1, 57, 127
2, 24400, Note_on_c, 1, 60, 127
2, 24400, Note_off_c, 1, 67, 0
2, 24400, Note_off_c, 1, 70, 0
2, 24400, Note_off_c, 1, 72, 0
2, 24400, Note_on_c, 1, 76, 127
2, 24440, Note_off_c, 1, 36, 0
2, 24440, Note_on_c, 1, 41, 127
2, 24440, Note_off_c, 1, 60, 0
2, 24440, Note_off_c, 1, 64, 0
2, 24440, Note_on_c, 1, 69, 127
2, 24440, Note_on_c, 1, 74, 127
2, 24440, Note_off_c, 1, 76, 0
2, 24480, Note_off_c, 1, 41, 0
2, 24480, Note_on_c, 1, 46, 127
2, 24480, Note_off_c, 1, 57, 0
2, 24480, Note_on_c, 1, 58, 127
2, 24480, Note_off_c, 1, 69, 0
2, 24480, Note_off_c, 1, 74, 0
2, 24480, Note_on_c, 1, 89, 127
2, 24480, Note_on_c, 1, 98, 127
2, 24480, Note_on_c, 1, 101, 127
2, 24520, Note_on_c, 1, 31, 127
2, 24520, Note_on_c, 1, 43, 127
2, 24520, Note_off_c, 1, 46, 0
2, 24520, Note_on_c, 1, 53, 127
2, 24520, Note_off_c, 1, 58, 0
2, 24520, Note_on_c, 1, 59, 127
2, 24520, Note_on_c, 1, 62, 127
2, 24520, Note_off_c, 1, 89, 0
2, 24520, Note_off_c, 1, 98, 0
2, 24520, Note_off_c, 1, 101, 0
2, 24560, Note_off_c, 1, 31, 0
2, 24560, Note_off_c, 1, 43, 0
2, 24560, Note_off_c, 1, 53, 0
2, 24560, Note_off_c, 1, 59, 0
2, 24560, Note_off_c, 1, 62, 0
2, 24560, Note_on_c, 1, 65, 127
2, 24560, Note_on_c, 1, 69, 127
2, 24560, Note_on_c, 1, 72, 127
2, 24560, Note_on_c, 1, 87, 127
2, 24600, Note_on_c, 1, 38, 127
2, 24600, Note_on_c, 1, 45, 127
2, 24600, Note_on_c, 1, 48, 127
2, 24600, Note_on_c, 1, 54, 127
2, 24600, Note_on_c, 1, 60, 127
2, 24600, Note_off_c, 1, 65, 0
2, 24600, Note_on_c, 1, 66, 127
2, 24600, Note_off_c, 1, 72, 0
2, 24600, Note_off_c, 1, 87, 0
2, 24640, Note_off_c, 1, 38, 0
2, 24640, Note_off_c, 1, 45, 0
2, 24640, Note_off_c, 1, 48, 0
2, 24640, Note_off_c, 1, 54, 0
2, 24640, Note_on_c, 1, 57, 127
2, 24640, Note_off_c, 1, 69, 0
2, 24640, Note_on_c, 1, 77, 127
2, 24640, Note_on_c, 1, 84, 127
2, 24640, Note_on_c, 1, 87, 127
2, 24640, Note_on_c, 1, 89, 127
2, 24680, Note_on_c, 1, 41, 127
2, 24680, Note_on_c, 1, 47, 127
2, 24680, Note_on_c, 1, 53, 127
2, 24680, Note_off_c, 1, 60, 0
2, 24680, Note_on_c, 1, 63, 127
2, 24680, Note_off_c, 1, 66, 0
2, 24680, Note_on_c, 1, 69, 127
2, 24680, Note_off_c, 1, 77, 0
2, 24680, Note_off_c, 1, 84, 0
2, 24680, Note_off_c, 1, 87, 0
2, 24680, Note_off_c, 1, 89, 0
2, 25040, Note_off_c, 1, 41, 0
2, 25040, Note_off_c, 1, 47, 0
2, 25040, Note_off_c, 1, 53, 0
2, 25040, Note_off_c, 1, 57, 0
2, 25040, Note_off_c, 1, 63, 0
2, 25040, Note_off_c, 1, 69, 0
2, 25080, Note_on_c, 1, 62, 127
2, 25080, Note_on_c, 1, 68, 127
2, 25080, Note_on_c, 1, 74, 127
2, 25080, Note_on_c, 1, 77, 127
2, 25080, Note_on_c, 1, 88, 127
2, 25120, Note_off_c, 1, 62, 0
2, 25120, Note_on_c, 1, 64, 127
2, 25120, Note_off_c, 1, 68, 0
2, 25120, Note_on_c, 1, 71, 127
2, 25120, Note_off_c, 1, 74, 0
2, 25120, Note_on_c, 1, 76, 127
2, 25120, Note_off_c, 1, 77, 0
2, 25120, Note_on_c, 1, 79, 127
2, 25120, Note_off_c, 1, 88, 0
2, 25120, Note_on_c, 1, 90, 127
2, 25160, Note_on_c, 1, 39, 127
2, 25160, Note_on_c, 1, 51, 127
2, 25160, Note_on_c, 1, 61, 127
2, 25160, Note_on_c, 1, 69, 127
2, 25160, Note_off_c, 1, 71, 0
2, 25160, Note_off_c, 1, 76, 0
2, 25160, Note_off_c, 1, 79, 0
2, 25160, Note_off_c, 1, 90, 0
2, 25200, Note_off_c, 1, 39, 0
2, 25200, Note_on_c, 1, 48, 127
2, 25200, Note_off_c, 1, 51, 0
2, 25200, Note_off_c, 1, 61, 0
2, 25200, Note_off_c, 1, 64, 0
2, 25200, Note_on_c, 1, 65, 127
2, 25200, Note_off_c, 1, 69, 0
2, 25200, Note_on_c, 1, 74, 127
2, 25200, Note_on_c, 1, 81, 127
2, 25240, Note_on_c, 1, 42, 127
2, 25240, Note_on_c, 1, 45, 127
2, 25240, Note_off_c, 1, 48, 0
2, 25240, Note_on_c, 1, 54, 127
2, 25240, Note_off_c, 1, 65, 0
2, 25240, Note_off_c, 1, 74, 0
2, 25240, Note_on_c, 1, 75, 127
2, 25240, Note_off_c, 1, 81, 0
2, 25280, Note_off_c, 1, 45, 0
2, 25280, Note_on_c, 1, 47, 127
2, 25280, Note_off_c, 1, 54, 0
2, 25280, Note_on_c, 1, 58, 127
2, 25280, Note_on_c, 1, 66, 127
2, 25280, Note_on_c, 1, 70, 127
2, 25280, Note_off_c, 1, 75, 0
2, 25320, Note_on_c, 1, 39, 127
2, 25320, Note_off_c, 1, 42, 0
2, 25320, Note_off_c, 1, 47, 0
2, 25320, Note_on_c, 1, 51, 127
2, 25320, Note_off_c, 1, 58, 0
2, 25320, Note_on_c, 1, 61, 127
2, 25320, Note_off_c, 1, 66, 0
2, 25320, Note_on_c, 1, 68, 127
2, 25320, Note_off_c, 1, 70, 0
2, 25320, Note_on_c, 1, 73, 127
2, 25320, Note_on_c, 1, 80, 127
2, 25360, Note_on_c, 1, 38, 127
2, 25360, Note_off_c, 1, 39, 0
2, 25360, Note_on_c, 1, 47, 127
2, 25360, Note_on_c, 1, 50, 127
2, 25360, Note_off_c, 1, 51, 0
2, 25360, Note_off_c, 1, 61, 0
2, 25360, Note_off_c, 1, 68, 0
2, 25360, Note_on_c, 1, 71, 127
2, 25360, Note_off_c, 1, 73, 0
2, 25360, Note_off_c, 1, 80, 0
2, 25360, Note_on_c, 1, 83, 127
2, 25400, Note_off_c, 1, 38, 0
2, 25400, Note_off_c, 1, 50, 0
2, 25400, Note_on_c, 1, 56, 127
2, 25400, Note_on_c, 1, 65, 127
2, 25400, Note_on_c, 1, 68, 127
2, 25400, Note_off_c, 1, 71, 0
2, 25400, Note_on_c, 1, 74, 127
2, 25400, Note_off_c, 1, 83, 0
2, 25440, Note_on_c, 1, 35, 127
2, 25440, Note_off_c, 1, 47, 0
2, 25440, Note_off_c, 1, 56, 0
2, 25440, Note_on_c, 1, 58, 127
2, 25440, Note_on_c, 1, 61, 127
2, 25440, Note_on_c, 1, 64, 127
2, 25440, Note_off_c, 1, 65, 0
2, 25440, Note_on_c, 1, 67, 127
2, 25440, Note_off_c, 1, 68, 0
2, 25440, Note_off_c, 1, 74, 0
2, 25480, Note_off_c, 1, 35, 0
2, 25480, Note_off_c, 1, 58, 0
2, 25480, Note_on_c, 1, 59, 127
2, 25480, Note_on_c, 1, 60, 127
2, 25480, Note_off_c, 1, 61, 0
2, 25480, Note_off_c, 1, 67, 0
2, 25480, Note_on_c, 1, 69, 127
2, 25520, Note_off_c, 1, 59, 0
2, 25520, Note_off_c, 1, 60, 0
2, 25520, Note_off_c, 1, 64, 0
2, 25520, Note_off_c, 1, 69, 0
2, 25560, Note_on_c, 1, 59, 127
2, 25560, Note_on_c, 1, 60, 127
2, 25560, Note_on_c, 1, 64, 127
2, 25560, Note_on_c, 1, 69, 127
2, 25920, Note_off_c, 1, 59, 0
2, 25920, Note_off_c, 1, 60, 0
2, 25920, Note_off_c, 1, 64, 0
2, 25920, Note_off_c, 1, 69, 0
2, 25960, Note_on_c, 1, 43, 127
2, 25960, Note_on_c, 1, 50, 127
2, 26520, Note_off_c, 1, 43, 0
2, 26520, Note_off_c, 1, 50, 0
2, 26560, Note_on_c, 1, 43, 127
2, 26560, Note_on_c, 1, 50, 127
2, 26560, Note_on_c, 1, 59, 127
2, 26960, Note_off_c, 1, 50, 0
2, 26960, Note_on_c, 1, 53, 127
2, 27080, Note_off_c, 1, 53, 0
2, 27160, Note_on_c, 1, 53, 127
2, 27560, Note_off_c, 1, 43, 0
2, 27560, Note_off_c, 1, 53, 0
2, 27560, Note_off_c, 1, 59, 0
2, 27600, Note_on_c, 1, 43, 127
2, 27600, Note_on_c, 1, 53, 127
2, 27600, Note_on_c, 1, 59, 127
2, 27760, Note_off_c, 1, 53, 0
2, 27760, Note_off_c, 1, 59, 0
2, 27760, Note_on_c, 1, 62, 127
2, 27800, Note_on_c, 1, 55, 127
2, 27800, Note_on_c, 1, 59, 127
2, 28360, Note_off_c, 1, 55, 0
2, 28400, Note_on_c, 1, 50, 127
2, 28400, Note_off_c, 1, 62, 0
2, 28400, Note_on_c, 1, 71, 127
2, 28400, Note_on_c, 1, 74, 127
2, 28400, Note_on_c, 1, 79, 127
2, 28400, Note_on_c, 1, 83, 127
2, 28440, Note_off_c, 1, 50, 0
2, 28480, Note_off_c, 1, 43, 0
2, 28480, Note_on_c, 1, 57, 127
2, 28480, Note_off_c, 1, 59, 0
2, 28960, Note_on_c, 1, 56, 127
2, 28960, Note_off_c, 1, 57, 0
2, 28960, Note_off_c, 1, 71, 0
2, 28960, Note_off_c, 1, 74, 0
2, 28960, Note_off_c, 1, 79, 0
2, 28960, Note_off_c, 1, 83, 0
2, 29000, Note_on_c, 1, 50, 127
2, 29000, Note_on_c, 1, 54, 127
2, 29000, Note_off_c, 1, 56, 0
2, 29000, Note_on_c, 1, 62, 127
2, 29000, Note_on_c, 1, 66, 127
2, 29000, Note_on_c, 1, 73, 127
2, 29600, Note_off_c, 1, 50, 0
2, 29600, Note_off_c, 1, 54, 0
2, 29600, Note_off_c, 1, 62, 0
2, 29600, Note_off_c, 1, 66, 0
2, 29600, Note_off_c, 1, 73, 0
2, 29640, Note_on_c, 1, 50, 127
2, 29640, Note_on_c, 1, 73, 127
2, 29680, Note_on_c, 1, 42, 127
2, 29680, Note_off_c, 1, 50, 0
2, 29680, Note_on_c, 1, 52, 127
2, 29680, Note_on_c, 1, 57, 127
2, 29680, Note_on_c, 1, 61, 127
2, 29680, Note_off_c, 1, 73, 0
2, 30240, Note_off_c, 1, 42, 0
2, 30240, Note_off_c, 1, 52, 0
2, 30240, Note_off_c, 1, 57, 0
2, 30240, Note_off_c, 1, 61, 0
2, 30280, Note_on_c, 1, 58, 127
2, 30280, Note_on_c, 1, 60, 127
2, 30280, Note_on_c, 1, 64, 127
2, 30280, Note_on_c, 1, 79, 127
2, 30280, Note_on_c, 1, 91, 127
2, 30840, Note_on_c, 1, 54, 127
2, 30840, Note_off_c, 1, 58, 0
2, 30840, Note_on_c, 1, 59, 127
2, 30840, Note_off_c, 1, 60, 0
2, 30840, Note_on_c, 1, 62, 127
2, 30840, Note_off_c, 1, 64, 0
2, 30840, Note_on_c, 1, 65, 127
2, 30840, Note_off_c, 1, 79, 0
2, 30840, Note_on_c, 1, 92, 127
2, 30880, Note_on_c, 1, 50, 127
2, 30880, Note_on_c, 1, 52, 127
2, 30880, Note_off_c, 1, 54, 0
2, 30880, Note_off_c, 1, 59, 0
2, 30880, Note_off_c, 1, 62, 0
2, 30880, Note_off_c, 1, 65, 0
2, 30880, Note_on_c, 1, 67, 127
2, 30880, Note_on_c, 1, 78, 127
2, 30880, Note_off_c, 1, 91, 0
2, 30880, Note_off_c, 1, 92, 0
2, 31000, Note_off_c, 1, 50, 0
2, 31000, Note_off_c, 1, 52, 0
2, 31000, Note_on_c, 1, 57, 127
2, 31000, Note_on_c, 1, 63, 127
2, 31000, Note_on_c, 1, 66, 127
2, 31000, Note_off_c, 1, 67, 0
2, 31000, Note_on_c, 1, 90, 127
2, 31040, Note_on_c, 1, 50, 127
2, 31040, Note_on_c, 1, 52, 127
2, 31040, Note_off_c, 1, 57, 0
2, 31040, Note_off_c, 1, 63, 0
2, 31040, Note_off_c, 1, 66, 0
2, 31040, Note_on_c, 1, 67, 127
2, 31040, Note_off_c, 1, 90, 0
2, 31400, Note_off_c, 1, 50, 0
2, 31400, Note_off_c, 1, 52, 0
2, 31400, Note_off_c, 1, 67, 0
2, 31400, Note_off_c, 1, 78, 0
2, 31440, Note_on_c, 1, 49, 127
2, 31440, Note_on_c, 1, 63, 127
2, 31440, Note_on_c, 1, 71, 127
2, 31440, Note_on_c, 1, 78, 127
2, 31800, Note_off_c, 1, 49, 0
2, 31800, Note_off_c, 1, 63, 0
2, 31800, Note_off_c, 1, 71, 0
2, 31800, Note_off_c, 1, 78, 0
2, 31840, Note_on_c, 1, 49, 127
2, 31840, Note_on_c, 1, 63, 127
2, 31840, Note_on_c, 1, 71, 127
2, 31840, Note_on_c, 1, 78, 127
2, 32480, Note_on_c, 1, 42, 127
2, 32480, Note_off_c, 1, 49, 0
2, 32480, Note_on_c, 1, 51, 127
2, 32480, Note_on_c, 1, 60, 127
2, 32480, Note_off_c, 1, 63, 0
2, 32480, Note_off_c, 1, 71, 0
2, 32480, Note_on_c, 1, 72, 127
2, 32480, Note_off_c, 1, 78, 0
2, 32520, Note_off_c, 1, 42, 0
2, 32520, Note_off_c, 1, 51, 0
2, 32520, Note_on_c, 1, 56, 127
2, 32520, Note_on_c, 1, 59, 127
2, 32520, Note_off_c, 1, 60, 0
2, 32520, Note_on_c, 1, 63, 127
2, 32520, Note_off_c, 1, 72, 0
2, 32520, Note_on_c, 1, 75, 127
2, 32520, Note_on_c, 1, 80, 127
2, 32560, Note_on_c, 1, 38, 127
2, 32560, Note_on_c, 1, 48, 127
2, 32560, Note_on_c, 1, 53, 127
2, 32560, Note_off_c, 1, 56, 0
2, 32560, Note_on_c, 1, 62, 127
2, 32560, Note_off_c, 1, 63, 0
2, 32560, Note_off_c, 1, 75, 0
2, 32560, Note_off_c, 1, 80, 0
2, 32600, Note_off_c, 1, 38, 0
2, 32600, Note_off_c, 1, 48, 0
2, 32600, Note_on_c, 1, 52, 127
2, 32600, Note_off_c, 1, 53, 0
2, 32600, Note_on_c, 1, 58, 127
2, 32600, Note_off_c, 1, 59, 0
2, 32600, Note_on_c, 1, 60, 127
2, 32600, Note_off_c, 1, 62, 0
2, 32600, Note_on_c, 1, 76, 127
2, 32640, Note_off_c, 1, 52, 0
2, 32640, Note_off_c, 1, 58, 0
2, 32640, Note_off_c, 1, 60, 0
2, 32640, Note_off_c, 1, 76, 0
2, 32680, Note_on_c, 1, 61, 127
2, 32680, Note_on_c, 1, 94, 127
2, 33240, Note_off_c, 1, 94, 0
2, 33280, Note_on_c, 1, 94, 127
2, 33840, Note_off_c, 1, 94, 0
2, 33880, Note_on_c, 1, 94, 127
2, 34080, Note_off_c, 1, 61, 0
2, 34080, Note_off_c, 1, 94, 0
2, 34120, Note_on_c, 1, 61, 127
2, 34120, Note_on_c, 1, 94, 127
2, 34480, Note_off_c, 1, 94, 0
2, 34520, Note_on_c, 1, 92, 127
2, 34880, Note_on_c, 1, 90, 127
2, 34880, Note_off_c, 1, 92, 0
2, 35040, Note_off_c, 1, 90, 0
2, 35120, Note_off_c, 1, 61, 0
2, 35120, Note_on_c, 1, 70, 127
2, 35120, Note_on_c, 1, 90, 127
2, 35640, Note_on_c, 1, 59, 127
2, 35640, Note_off_c, 1, 70, 0
2, 35640, Note_off_c, 1, 90, 0
2, 35680, Note_on_c, 1, 58, 127
2, 35680, Note_off_c, 1, 59, 0
2, 35680, Note_on_c, 1, 68, 127
2, 36080, Note_off_c, 1, 58, 0
2, 36080, Note_off_c, 1, 68, 0
2, 36120, Note_on_c, 1, 58, 127
2, 36120, Note_on_c, 1, 68, 127
2, 36280, Note_on_c, 1, 67, 127
2, 36280, Note_off_c, 1, 68, 0
2, 38160, Note_off_c, 1, 58, 0
2, 38160, Note_off_c, 1, 67, 0
2, 38200, Note_on_c, 1, 58, 127
2, 38200, Note_on_c, 1, 67, 127
2, 38400, Note_on_c, 1, 51, 127
2, 38400, Note_off_c, 1, 58, 0
2, 38400, Note_on_c, 1, 63, 127
2, 38400, Note_off_c, 1, 67, 0
2, 38400, Note_on_c, 1, 75, 127
2, 40160, Note_off_c, 1, 51, 0
2, 40160, Note_off_c, 1, 63, 0
2, 40160, Note_off_c, 1, 75, 0
2, 40200, Note_on_c, 1, 51, 127
2, 40200, Note_on_c, 1, 63, 127
2, 40200, Note_on_c, 1, 75, 127
2, 41840, Note_on_c, 1, 48, 127
2, 41840, Note_off_c, 1, 51, 0
2, 41840, Note_on_c, 1, 54, 127
2, 41840, Note_on_c, 1, 58, 127
2, 41840, Note_off_c, 1, 63, 0
2, 41840, Note_on_c, 1, 65, 127
2, 41840, Note_off_c, 1, 75, 0
2, 41880, Note_on_c, 1, 38, 127
2, 41880, Note_on_c, 1, 46, 127
2, 41880, Note_off_c, 1, 48, 0
2, 41880, Note_off_c, 1, 54, 0
2, 41880, Note_off_c, 1, 58, 0
2, 41880, Note_off_c, 1, 65, 0
2, 41880, Note_on_c, 1, 68, 127
2, 41920, Note_off_c, 1, 38, 0
2, 41920, Note_off_c, 1, 46, 0
2, 41920, Note_off_c, 1, 68, 0
2, 41960, Note_on_c, 1, 38, 127
2, 41960, Note_on_c, 1, 46, 127
2, 41960, Note_on_c, 1, 68, 127
2, 42440, Note_off_c, 1, 38, 0
2, 42440, Note_off_c, 1, 46, 0
2, 42440, Note_off_c, 1, 68, 0
2, 42440, Note_on_c, 1, 74, 127
2, 42480, Note_on_c, 1, 34, 127
2, 42480, Note_on_c, 1, 37, 127
2, 42480, Note_on_c, 1, 46, 127
2, 42480, Note_off_c, 1, 74, 0
2, 43480, Note_off_c, 1, 34, 0
2, 43480, Note_off_c, 1, 37, 0
2, 43480, Note_off_c, 1, 46, 0
2, 45200, Note_on_c, 1, 58, 127
2, 45200, Note_on_c, 1, 62, 127
2, 45960, Note_off_c, 1, 58, 0
2, 45960, Note_off_c, 1, 62, 0
2, 46000, Note_on_c, 1, 70, 127
2, 46000, Note_on_c, 1, 82, 127
2, 46600, Note_on_c, 1, 51, 127
2, 46800, Note_off_c, 1, 51, 0
2, 47120, Note_off_c, 1, 70, 0
2, 47120, Note_off_c, 1, 82, 0
2, 47160, Note_on_c, 1, 70, 127
2, 47160, Note_on_c, 1, 82, 127
2, 47200, Note_off_c, 1, 70, 0
2, 47200, Note_off_c, 1, 82, 0
2, 47240, Note_on_c, 1, 70, 127
2, 47240, Note_on_c, 1, 73, 127
2, 47240, Note_on_c, 1, 82, 127
2, 47240, Note_on_c, 1, 94, 127
2, 47240, Note_on_c, 1, 97, 127
2, 47280, Note_on_c, 1, 32, 127
2, 47280, Note_on_c, 1, 44, 127
2, 47280, Note_on_c, 1, 56, 127
2, 47280, Note_on_c, 1, 66, 127
2, 47280, Note_off_c, 1, 73, 0
2, 47280, Note_on_c, 1, 75, 127
2, 47280, Note_off_c, 1, 82, 0
2, 47280, Note_off_c, 1, 94, 0
2, 47280, Note_off_c, 1, 97, 0
2, 47320, Note_off_c, 1, 32, 0
2, 47320, Note_off_c, 1, 44, 0
2, 47320, Note_off_c, 1, 56, 0
2, 47320, Note_off_c, 1, 66, 0
2, 47320, Note_on_c, 1, 73, 127
2, 47320, Note_off_c, 1, 75, 0
2, 47320, Note_on_c, 1, 82, 127
2, 47320, Note_on_c, 1, 94, 127
2, 47320, Note_on_c, 1, 97, 127
2, 47360, Note_on_c, 1, 67, 127
2, 47360, Note_off_c, 1, 70, 0
2, 47360, Note_on_c, 1, 71, 127
2, 47360, Note_off_c, 1, 73, 0
2, 47360, Note_on_c, 1, 75, 127
2, 47360, Note_on_c, 1, 79, 127
2, 47360, Note_off_c, 1, 82, 0
2, 47360, Note_off_c, 1, 94, 0
2, 47360, Note_off_c, 1, 97, 0
2, 47400, Note_on_c, 1, 60, 127
2, 47400, Note_on_c, 1, 63, 127
2, 47400, Note_off_c, 1, 67, 0
2, 47400, Note_off_c, 1, 71, 0
2, 47400, Note_on_c, 1, 72, 127
2, 47400, Note_off_c, 1, 75, 0
2, 47400, Note_off_c, 1, 79, 0
2, 47400, Note_on_c, 1, 91, 127
2, 47400, Note_on_c, 1, 94, 127
2, 47440, Note_off_c, 1, 60, 0
2, 47440, Note_off_c, 1, 63, 0
2, 47440, Note_on_c, 1, 64, 127
2, 47440, Note_on_c, 1, 68, 127
2, 47440, Note_off_c, 1, 72, 0
2, 47440, Note_on_c, 1, 73, 127
2, 47440, Note_on_c, 1, 76, 127
2, 47440, Note_on_c, 1, 80, 127
2, 47440, Note_on_c, 1, 83, 127
2, 47440, Note_off_c, 1, 91, 0
2, 47440, Note_off_c, 1, 94, 0
2, 47480, Note_off_c, 1, 64, 0
2, 47480, Note_off_c, 1, 68, 0
2, 47480, Note_on_c, 1, 70, 127
2, 47480, Note_off_c, 1, 76, 0
2, 47480, Note_off_c, 1, 80, 0
2, 47480, Note_on_c, 1, 82, 127
2, 47480, Note_off_c, 1, 83, 0
2, 47480, Note_on_c, 1, 94, 127
2, 47480, Note_on_c, 1, 97, 127
2, 47520, Note_on_c, 1, 52, 127
2, 47520, Note_off_c, 1, 70, 0
2, 47520, Note_on_c, 1, 80, 127
2, 47520, Note_off_c, 1, 82, 0
2, 47520, Note_off_c, 1, 94, 0
2, 47520, Note_off_c, 1, 97, 0
2, 47560, Note_on_c, 1, 49, 127
2, 47560, Note_on_c, 1, 51, 127
2, 47560, Note_off_c, 1, 52, 0
2, 47560, Note_on_c, 1, 56, 127
2, 47560, Note_on_c, 1, 60, 127
2, 47560, Note_off_c, 1, 73, 0
2, 47560, Note_off_c, 1, 80, 0
2, 47560, Note_on_c, 1, 88, 127
2, 47600, Note_off_c, 1, 49, 0
2, 47600, Note_off_c, 1, 51, 0
2, 47600, Note_off_c, 1, 56, 0
2, 47600, Note_on_c, 1, 59, 127
2, 47600, Note_off_c, 1, 60, 0
2, 47600, Note_on_c, 1, 63, 127
2, 47600, Note_on_c, 1, 66, 127
2, 47600, Note_on_c, 1, 77, 127
2, 47600, Note_off_c, 1, 88, 0
2, 47640, Note_on_c, 1, 52, 127
2, 47640, Note_off_c, 1, 59, 0
2, 47640, Note_off_c, 1, 63, 0
2, 47640, Note_on_c, 1, 65, 127
2, 47640, Note_off_c, 1, 66, 0
2, 47640, Note_on_c, 1, 69, 127
2, 47640, Note_off_c, 1, 77, 0
2, 47640, Note_on_c, 1, 81, 127
2, 47800, Note_off_c, 1, 52, 0
2, 47800, Note_off_c, 1, 65, 0
2, 47800, Note_off_c, 1, 69, 0
2, 47800, Note_off_c, 1, 81, 0
2, 47840, Note_on_c, 1, 41, 127
2, 47840, Note_on_c, 1, 75, 127
2, 47840, Note_on_c, 1, 82, 127
2, 47840, Note_on_c, 1, 85, 127
2, 47880, Note_off_c, 1, 41, 0
2, 47880, Note_on_c, 1, 52, 127
2, 47880, Note_on_c, 1, 66, 127
2, 47880, Note_on_c, 1, 73, 127
2, 47880, Note_off_c, 1, 75, 0
2, 47920, Note_off_c, 1, 52, 0
2, 47920, Note_on_c, 1, 58, 127
2, 47920, Note_on_c, 1, 61, 127
2, 47920, Note_on_c, 1, 78, 127
2, 47920, Note_off_c, 1, 82, 0
2, 47960, Note_on_c, 1, 54, 127
2, 47960, Note_off_c, 1, 61, 0
2, 47960, Note_off_c, 1, 66, 0
2, 47960, Note_on_c, 1, 70, 127
2, 47960, Note_off_c, 1, 73, 0
2, 47960, Note_on_c, 1, 75, 127
2, 47960, Note_off_c, 1, 78, 0
2, 47960, Note_on_c, 1, 82, 127
2, 47960, Note_off_c, 1, 85, 0
2, 48000, Note_on_c, 1, 43, 127
2, 48000, Note_off_c, 1, 54, 0
2, 48000, Note_off_c, 1, 58, 0
2, 48000, Note_on_c, 1, 73, 127
2, 48000, Note_off_c, 1, 75, 0
2, 48000, Note_off_c, 1, 82, 0
2, 48040, Note_on_c, 1, 42, 127
2, 48040, Note_off_c, 1, 43, 0
2, 48040, Note_on_c, 1, 54, 127
2, 48040, Note_on_c, 1, 59, 127
2, 48040, Note_on_c, 1, 68, 127
2, 48040, Note_off_c, 1, 70, 0
2, 48040, Note_off_c, 1, 73, 0
2, 48080, Note_off_c, 1, 42, 0
2, 48080, Note_on_c, 1, 48, 127
2, 48080, Note_off_c, 1, 54, 0
2, 48080, Note_on_c, 1, 56, 127
2, 48080, Note_off_c, 1, 59, 0
2, 48080, Note_off_c, 1, 68, 0
2, 48080, Note_on_c, 1, 75, 127
2, 48080, Note_on_c, 1, 83, 127
2, 48120, Note_on_c, 1, 42, 127
2, 48120, Note_off_c, 1, 48, 0
2, 48120, Note_on_c, 1, 54, 127
2, 48120, Note_off_c, 1, 56, 0
2, 48120, Note_on_c, 1, 59, 127
2, 48120, Note_on_c, 1, 68, 127
2, 48120, Note_off_c, 1, 75, 0
2, 48120, Note_off_c, 1, 83, 0
2, 48400, Note_off_c, 1, 42, 0
2, 48400, Note_on_c, 1, 47, 127
2, 48400, Note_off_c, 1, 54, 0
2, 48400, Note_on_c, 1, 62, 127
2, 48400, Note_off_c, 1, 68, 0
2, 48400, Note_on_c, 1, 74, 127
2, 48440, Note_off_c, 1, 47, 0
2, 48440, Note_off_c, 1, 59, 0
2, 48440, Note_off_c, 1, 62, 0
2, 48440, Note_on_c, 1, 86, 127
2, 48480, Note_on_c, 1, 37, 127
2, 48480, Note_on_c, 1, 73, 127
2, 48480, Note_off_c, 1, 74, 0
2, 48480, Note_on_c, 1, 76, 127
2, 48480, Note_on_c, 1, 80, 127
2, 48480, Note_off_c, 1, 86, 0
2, 49000, Note_off_c, 1, 37, 0
2, 49000, Note_off_c, 1, 73, 0
2, 49000, Note_off_c, 1, 76, 0
2, 49000, Note_off_c, 1, 80, 0
2, 49080, Note_on_c, 1, 43, 127
2, 49080, Note_on_c, 1, 52, 127
2, 49080, Note_on_c, 1, 59, 127
2, 49080, Note_on_c, 1, 64, 127
2, 49080, Note_on_c, 1, 71, 127
2, 49280, Note_off_c, 1, 43, 0
2, 49280, Note_off_c, 1, 52, 0
2, 49280, Note_off_c, 1, 59, 0
2, 49280, Note_off_c, 1, 64, 0
2, 49280, Note_off_c, 1, 71, 0
2, 49320, Note_on_c, 1, 43, 127
2, 49320, Note_on_c, 1, 52, 127
2, 49320, Note_on_c, 1, 59, 127
2, 49320, Note_on_c, 1, 64, 127
2, 49320, Note_on_c, 1, 71, 127
2, 49680, Note_off_c, 1, 43, 0
2, 49680, Note_off_c, 1, 52, 0
2, 49680, Note_off_c, 1, 59, 0
2, 49680, Note_off_c, 1, 64, 0
2, 49680, Note_off_c, 1, 71, 0
2, 49720, Note_on_c, 1, 41, 127
2, 49720, Note_on_c, 1, 50, 127
2, 49720, Note_on_c, 1, 76, 127
2, 50120, Note_off_c, 1, 76, 0
2, 50160, Note_off_c, 1, 41, 0
2, 50160, Note_off_c, 1, 50, 0
2, 50160, Note_on_c, 1, 54, 127
2, 50160, Note_on_c, 1, 90, 127
2, 50160, Note_on_c, 1, 102, 127
2, 50280, Note_off_c, 1, 54, 0
2, 50280, Note_off_c, 1, 90, 0
2, 50280, Note_off_c, 1, 102, 0
2, 50320, Note_on_c, 1, 40, 127
2, 50320, Note_on_c, 1, 43, 127
2, 50320, Note_on_c, 1, 52, 127
2, 50320, Note_on_c, 1, 60, 127
2, 50840, Note_off_c, 1, 40, 0
2, 50840, Note_off_c, 1, 43, 0
2, 50840, Note_on_c, 1, 46, 127
2, 50840, Note_off_c, 1, 52, 0
2, 50840, Note_on_c, 1, 54, 127
2, 50840, Note_off_c, 1, 60, 0
2, 50840, Note_on_c, 1, 73, 127
2, 50840, Note_on_c, 1, 83, 127
2, 50880, Note_off_c, 1, 46, 0
2, 50880, Note_off_c, 1, 54, 0
2, 50880, Note_off_c, 1, 73, 0
2, 50880, Note_off_c, 1, 83, 0
2, 50920, Note_on_c, 1, 56, 127
2, 50920, Note_on_c, 1, 60, 127
2, 50920, Note_on_c, 1, 67, 127
2, 50920, Note_on_c, 1, 75, 127
2, 50920, Note_on_c, 1, 87, 127
2, 51240, Note_off_c, 1, 56, 0
2, 51240, Note_off_c, 1, 60, 0
2, 51240, Note_off_c, 1, 67, 0
2, 51240, Note_off_c, 1, 75, 0
2, 51240, Note_off_c, 1, 87, 0
2, 51280, Note_on_c, 1, 56, 127
2, 51280, Note_on_c, 1, 60, 127
2, 51280, Note_on_c, 1, 67, 127
2, 51280, Note_on_c, 1, 75, 127
2, 51280, Note_on_c, 1, 87, 127
2, 51520, Note_on_c, 1, 47, 127
2, 51520, Note_on_c, 1, 53, 127
2, 51520, Note_off_c, 1, 56, 0
2, 51520, Note_off_c, 1, 60, 0
2, 51520, Note_off_c, 1, 67, 0
2, 51520, Note_off_c, 1, 75, 0
2, 51520, Note_off_c, 1, 87, 0
2, 51560, Note_on_c, 1, 41, 127
2, 51560, Note_off_c, 1, 47, 0
2, 51560, Note_on_c, 1, 48, 127
2, 51560, Note_on_c, 1, 68, 127
2, 51560, Note_on_c, 1, 72, 127
2, 52120, Note_off_c, 1, 41, 0
2, 52120, Note_off_c, 1, 48, 0
2, 52120, Note_off_c, 1, 53, 0
2, 52120, Note_off_c, 1, 68, 0
2, 52120, Note_off_c, 1, 72, 0
2, 52160, Note_on_c, 1, 91, 127
2, 52160, Note_on_c, 1, 94, 127
2, 52160, Note_on_c, 1, 99, 127
2, 52200, Note_on_c, 1, 45, 127
2, 52200, Note_on_c, 1, 49, 127
2, 52200, Note_on_c, 1, 52, 127
2, 52200, Note_on_c, 1, 69, 127
2, 52200, Note_on_c, 1, 73, 127
2, 52200, Note_on_c, 1, 81, 127
2, 52200, Note_off_c, 1, 91, 0
2, 52200, Note_off_c, 1, 94, 0
2, 52200, Note_off_c, 1, 99, 0
2, 52720, Note_off_c, 1, 45, 0
2, 52720, Note_off_c, 1, 49, 0
2, 52720, Note_off_c, 1, 52, 0
2, 52720, Note_off_c, 1, 69, 0
2, 52720, Note_off_c, 1, 73, 0
2, 52720, Note_off_c, 1, 81, 0
2, 52760, Note_on_c, 1, 37, 127
2, 52760, Note_on_c, 1, 59, 127
2, 52760, Note_on_c, 1, 64, 127
2, 52760, Note_on_c, 1, 67, 127
2, 53160, Note_off_c, 1, 37, 0
2, 53160, Note_off_c, 1, 59, 0
2, 53160, Note_off_c, 1, 64, 0
2, 53160, Note_off_c, 1, 67, 0
2, 53200, Note_on_c, 1, 37, 127
2, 53200, Note_on_c, 1, 59, 127
2, 53200, Note_on_c, 1, 64, 127
2, 53200, Note_on_c, 1, 67, 127
2, 53360, Note_on_c, 1, 31, 127
2, 53360, Note_off_c, 1, 37, 0
2, 53360, Note_on_c, 1, 43, 127
2, 53360, Note_on_c, 1, 50, 127
2, 53360, Note_off_c, 1, 59, 0
2, 53360, Note_on_c, 1, 62, 127
2, 53360, Note_off_c, 1, 64, 0
2, 53360, Note_off_c, 1, 67, 0
2, 53360, Note_on_c, 1, 71, 127
2, 53360, Note_on_c, 1, 83, 127
2, 53400, Note_off_c, 1, 31, 0
2, 53400, Note_off_c, 1, 43, 0
2, 53400, Note_off_c, 1, 50, 0
2, 53400, Note_off_c, 1, 62, 0
2, 53400, Note_off_c, 1, 71, 0
2, 53400, Note_off_c, 1, 83, 0
2, 53440, Note_on_c, 1, 43, 127
2, 53440, Note_on_c, 1, 53, 127
2, 53440, Note_on_c, 1, 58, 127
2, 53440, Note_on_c, 1, 65, 127
2, 54000, Note_off_c, 1, 53, 0
2, 54000, Note_off_c, 1, 58, 0
2, 54000, Note_off_c, 1, 65, 0
2, 54040, Note_on_c, 1, 32, 127
2, 54040, Note_off_c, 1, 43, 0
2, 54040, Note_on_c, 1, 76, 127
2, 54040, Note_on_c, 1, 84, 127
2, 54040, Note_on_c, 1, 88, 127
2, 54080, Note_off_c, 1, 32, 0
2, 54080, Note_on_c, 1, 38, 127
2, 54080, Note_on_c, 1, 45, 127
2, 54080, Note_on_c, 1, 57, 127
2, 54080, Note_on_c, 1, 62, 127
2, 54080, Note_on_c, 1, 69, 127
2, 54080, Note_off_c, 1, 76, 0
2, 54080, Note_off_c, 1, 84, 0
2, 54080, Note_off_c, 1, 88, 0
2, 54440, Note_off_c, 1, 45, 0
2, 54440, Note_on_c, 1, 46, 127
2, 54480, Note_on_c, 1, 45, 127
2, 54480, Note_off_c, 1, 46, 0
2, 54600, Note_off_c, 1, 38, 0
2, 54600, Note_off_c, 1, 45, 0
2, 54600, Note_off_c, 1, 57, 0
2, 54600, Note_off_c, 1, 62, 0
2, 54600, Note_off_c, 1, 69, 0
2, 54640, Note_on_c, 1, 42, 127
2, 54640, Note_on_c, 1, 46, 127
2, 54640, Note_on_c, 1, 49, 127
2, 54640, Note_on_c, 1, 55, 127
2, 54640, Note_on_c, 1, 76, 127
2, 54640, Note_on_c, 1, 79, 127
2, 54640, Note_on_c, 1, 82, 127
2, 54640, Note_on_c, 1, 88, 127
2, 54680, Note_on_c, 1, 37, 127
2, 54680, Note_off_c, 1, 42, 0
2, 54680, Note_off_c, 1, 46, 0
2, 54680, Note_off_c, 1, 49, 0
2, 54680, Note_on_c, 1, 52, 127
2, 54680, Note_off_c, 1, 55, 0
2, 54680, Note_on_c, 1, 68, 127
2, 54680, Note_off_c, 1, 79, 0
2, 54680, Note_on_c, 1, 80, 127
2, 54680, Note_off_c, 1, 82, 0
2, 54680, Note_off_c, 1, 88, 0
2, 54720, Note_on_c, 1, 33, 127
2, 54720, Note_off_c, 1, 37, 0
2, 54720, Note_on_c, 1, 50, 127
2, 54720, Note_off_c, 1, 52, 0
2, 54720, Note_on_c, 1, 57, 127
2, 54720, Note_off_c, 1, 68, 0
2, 54720, Note_off_c, 1, 76, 0
2, 54720, Note_off_c, 1, 80, 0
2, 54760, Note_off_c, 1, 33, 0
2, 54760, Note_on_c, 1, 37, 127
2, 54760, Note_on_c, 1, 44, 127
2, 54760, Note_off_c, 1, 50, 0
2, 54760, Note_off_c, 1, 57, 0
2, 54760, Note_on_c, 1, 68, 127
2, 54760, Note_on_c, 1, 76, 127
2, 54760, Note_on_c, 1, 80, 127
2, 54840, Note_off_c, 1, 37, 0
2, 54840, Note_off_c, 1, 44, 0
2, 54840, Note_on_c, 1, 60, 127
2, 54840, Note_on_c, 1, 65, 127
2, 54840, Note_off_c, 1, 68, 0
2, 54840, Note_off_c, 1, 76, 0
2, 54840, Note_off_c, 1, 80, 0
2, 54840, Note_on_c, 1, 81, 127
2, 54840, Note_on_c, 1, 84, 127
2, 54880, Note_on_c, 1, 52, 127
2, 54880, Note_off_c, 1, 60, 0
2, 54880, Note_off_c, 1, 65, 0
2, 54880, Note_on_c, 1, 71, 127
2, 54880, Note_on_c, 1, 78, 127
2, 54880, Note_off_c, 1, 84, 0
2, 54920, Note_off_c, 1, 52, 0
2, 54920, Note_on_c, 1, 65, 127
2, 54920, Note_off_c, 1, 71, 0
2, 54920, Note_on_c, 1, 72, 127
2, 54920, Note_off_c, 1, 78, 0
2, 54920, Note_on_c, 1, 89, 127
2, 54960, Note_on_c, 1, 36, 127
2, 54960, Note_on_c, 1, 48, 127
2, 54960, Note_off_c, 1, 72, 0
2, 54960, Note_on_c, 1, 74, 127
2, 54960, Note_on_c, 1, 77, 127
2, 54960, Note_off_c, 1, 81, 0
2, 54960, Note_off_c, 1, 89, 0
2, 55000, Note_off_c, 1, 36, 0
2, 55000, Note_off_c, 1, 48, 0
2, 55000, Note_off_c, 1, 65, 0
2, 55000, Note_off_c, 1, 74, 0
2, 55000, Note_off_c, 1, 77, 0
2, 55040, Note_on_c, 1, 41, 127
2, 55040, Note_on_c, 1, 44, 127
2, 55040, Note_on_c, 1, 53, 127
2, 55040, Note_on_c, 1, 56, 127
2, 55040, Note_on_c, 1, 61, 127
2, 55080, Note_off_c, 1, 41, 0
2, 55080, Note_off_c, 1, 44, 0
2, 55080, Note_on_c, 1, 48, 127
2, 55080, Note_off_c, 1, 53, 0
2, 55080, Note_off_c, 1, 61, 0
2, 55080, Note_on_c, 1, 65, 127
2, 55080, Note_on_c, 1, 68, 127
2, 55080, Note_on_c, 1, 77, 127
2, 55120, Note_off_c, 1, 48, 0
2, 55120, Note_on_c, 1, 53, 127
2, 55120, Note_off_c, 1, 56, 0
2, 55120, Note_on_c, 1, 59, 127
2, 55120, Note_off_c, 1, 65, 0
2, 55120, Note_on_c, 1, 75, 127
2, 55120, Note_off_c, 1, 77, 0
2, 55120, Note_on_c, 1, 80, 127
2, 55160, Note_on_c, 1, 44, 127
2, 55160, Note_on_c, 1, 50, 127
2, 55160, Note_off_c, 1, 53, 0
2, 55160, Note_off_c, 1, 59, 0
2, 55160, Note_on_c, 1, 65, 127
2, 55160, Note_off_c, 1, 68, 0
2, 55160, Note_on_c, 1, 71, 127
2, 55160, Note_off_c, 1, 75, 0
2, 55160, Note_off_c, 1, 80, 0
2, 55200, Note_off_c, 1, 44, 0
2, 55200, Note_off_c, 1, 50, 0
2, 55200, Note_off_c, 1, 65, 0
2, 55200, Note_on_c, 1, 66, 127
2, 55200, Note_off_c, 1, 71, 0
2, 55200, Note_on_c, 1, 73, 127
2, 55200, Note_on_c, 1, 81, 127
2, 55200, Note_on_c, 1, 85, 127
2, 55200, Note_on_c, 1, 92, 127
2, 55240, Note_on_c, 1, 46, 127
2, 55240, Note_on_c, 1, 57, 127
2, 55240, Note_on_c, 1, 65, 127
2, 55240, Note_off_c, 1, 66, 0
2, 55240, Note_on_c, 1, 70, 127
2, 55240, Note_off_c, 1, 73, 0
2, 55240, Note_off_c, 1, 81, 0
2, 55240, Note_off_c, 1, 85, 0
2, 55240, Note_off_c, 1, 92, 0
2, 55280, Note_off_c, 1, 46, 0
2, 55280, Note_off_c, 1, 57, 0
2, 55280, Note_off_c, 1, 65, 0
2, 55280, Note_off_c, 1, 70, 0
2, 55320, Note_on_c, 1, 40, 127
2, 55320, Note_on_c, 1, 47, 127
2, 55320, Note_on_c, 1, 52, 127
2, 55320, Note_on_c, 1, 68, 127
2, 55320, Note_on_c, 1, 71, 127
2, 55320, Note_on_c, 1, 76, 127
2, 55320, Note_on_c, 1, 80, 127
2, 55880, Note_on_c, 1, 39, 127
2, 55880, Note_off_c, 1, 40, 0
2, 55880, Note_off_c, 1, 47, 0
2, 55880, Note_off_c, 1, 52, 0
2, 55880, Note_off_c, 1, 68, 0
2, 55880, Note_off_c, 1, 71, 0
2, 55880, Note_off_c, 1, 76, 0
2, 55880, Note_off_c, 1, 80, 0
2, 55920, Note_on_c, 1, 35, 127
2, 55920, Note_off_c, 1, 39, 0
2, 55920, Note_on_c, 1, 47, 127
2, 55920, Note_on_c, 1, 66, 127
2, 55920, Note_on_c, 1, 69, 127
2, 55920, Note_on_c, 1, 75, 127
2, 55920, Note_on_c, 1, 78, 127
2, 56120, Note_on_c, 1, 28, 127
2, 56120, Note_off_c, 1, 35, 0
2, 56120, Note_on_c, 1, 40, 127
2, 56120, Note_off_c, 1, 47, 0
2, 56120, Note_on_c, 1, 64, 127
2, 56120, Note_off_c, 1, 66, 0
2, 56120, Note_on_c, 1, 68, 127
2, 56120, Note_off_c, 1, 69, 0
2, 56120, Note_on_c, 1, 71, 127
2, 56120, Note_off_c, 1, 75, 0
2, 56120, Note_on_c, 1, 76, 127
2, 56120, Note_off_c, 1, 78, 0
2, 56160, Note_off_c, 1, 28, 0
2, 56160, Note_off_c, 1, 40, 0
2, 56160, Note_off_c, 1, 64, 0
2, 56160, Note_off_c, 1, 68, 0
2, 56160, Note_off_c, 1, 71, 0
2, 56160, Note_off_c, 1, 76, 0
2, 56200, Note_on_c, 1, 65, 127
2, 56200, Note_on_c, 1, 69, 127
2, 56200, Note_on_c, 1, 72, 127
2, 56200, Note_on_c, 1, 77, 127
2, 56200, Note_on_c, 1, 89, 127
2, 56760, Note_off_c, 1, 65, 0
2, 56760, Note_off_c, 1, 69, 0
2, 56760, Note_off_c, 1, 72, 0
2, 56760, Note_off_c, 1, 77, 0
2, 56760, Note_off_c, 1, 89, 0
2, 56840, Note_on_c, 1, 41, 127
2, 56840, Note_on_c, 1, 44, 127
2, 56840, Note_on_c, 1, 53, 127
2, 56840, Note_on_c, 1, 71, 127
2, 56840, Note_on_c, 1, 74, 127
2, 56840, Note_on_c, 1, 83, 127
2, 56880, Note_off_c, 1, 41, 0
2, 56880, Note_off_c, 1, 44, 0
2, 56880, Note_off_c, 1, 53, 0
2, 56880, Note_on_c, 1, 61, 127
2, 56880, Note_off_c, 1, 71, 0
2, 56880, Note_off_c, 1, 74, 0
2, 56880, Note_on_c, 1, 76, 127
2, 56880, Note_on_c, 1, 82, 127
2, 56880, Note_off_c, 1, 83, 0
2, 56880, Note_on_c, 1, 88, 127
2, 56920, Note_on_c, 1, 48, 127
2, 56920, Note_on_c, 1, 55, 127
2, 56920, Note_on_c, 1, 60, 127
2, 56920, Note_off_c, 1, 61, 0
2, 56920, Note_on_c, 1, 72, 127
2, 56920, Note_on_c, 1, 75, 127
2, 56920, Note_off_c, 1, 76, 0
2, 56920, Note_off_c, 1, 82, 0
2, 56920, Note_on_c, 1, 84, 127
2, 56920, Note_off_c, 1, 88, 0
2, 57440, Note_off_c, 1, 48, 0
2, 57440, Note_off_c, 1, 55, 0
2, 57440, Note_off_c, 1, 60, 0
2, 57440, Note_off_c, 1, 72, 0
2, 57440, Note_off_c, 1, 75, 0
2, 57440, Note_off_c, 1, 84, 0
2, 57480, Note_on_c, 1, 59, 127
2, 57480, Note_on_c, 1, 71, 127
2, 57480, Note_on_c, 1, 96, 127
2, 57480, Note_on_c, 1, 100, 127
2, 57480, Note_on_c, 1, 103, 127
2, 57520, Note_on_c, 1, 65, 127
2, 57520, Note_off_c, 1, 71, 0
2, 57520, Note_on_c, 1, 80, 127
2, 57520, Note_on_c, 1, 86, 127
2, 57520, Note_off_c, 1, 96, 0
2, 57520, Note_off_c, 1, 100, 0
2, 57520, Note_off_c, 1, 103, 0
2, 57680, Note_on_c, 1, 45, 127
2, 57680, Note_on_c, 1, 49, 127
2, 57680, Note_on_c, 1, 52, 127
2, 57680, Note_on_c, 1, 57, 127
2, 57680, Note_off_c, 1, 59, 0
2, 57680, Note_on_c, 1, 61, 127
2, 57680, Note_off_c, 1, 65, 0
2, 57680, Note_on_c, 1, 69, 127
2, 57680, Note_off_c, 1, 80, 0
2, 57680, Note_off_c, 1, 86, 0
2, 57720, Note_off_c, 1, 45, 0
2, 57720, Note_off_c, 1, 49, 0
2, 57720, Note_off_c, 1, 52, 0
2, 57720, Note_off_c, 1, 57, 0
2, 57720, Note_on_c, 1, 59, 127
2, 57720, Note_off_c, 1, 61, 0
2, 57720, Note_on_c, 1, 65, 127
2, 57720, Note_off_c, 1, 69, 0
2, 57720, Note_on_c, 1, 80, 127
2, 57720, Note_on_c, 1, 86, 127
2, 58080, Note_off_c, 1, 59, 0
2, 58080, Note_off_c, 1, 65, 0
2, 58080, Note_off_c, 1, 80, 0
2, 58080, Note_off_c, 1, 86, 0
2, 58120, Note_on_c, 1, 37, 127
2, 58120, Note_on_c, 1, 44, 127
2, 58120, Note_on_c, 1, 49, 127
2, 58120, Note_on_c, 1, 64, 127
2, 58120, Note_on_c, 1, 76, 127
2, 58520, Note_off_c, 1, 64, 0
2, 58560, Note_off_c, 1, 37, 0
2, 58560, Note_off_c, 1, 44, 0
2, 58560, Note_off_c, 1, 49, 0
2, 58560, Note_off_c, 1, 76, 0
2, 58600, Note_on_c, 1, 37, 127
2, 58600, Note_on_c, 1, 44, 127
2, 58600, Note_on_c, 1, 49, 127
2, 58600, Note_on_c, 1, 64, 127
2, 58600, Note_on_c, 1, 76, 127
2, 58720, Note_off_c, 1, 37, 0
2, 58720, Note_off_c, 1, 44, 0
2, 58720, Note_off_c, 1, 49, 0
2, 58720, Note_off_c, 1, 64, 0
2, 58720, Note_off_c, 1, 76, 0
2, 58760, Note_on_c, 1, 44, 127
2, 58760, Note_on_c, 1, 56, 127
2, 58760, Note_on_c, 1, 84, 127
2, 58760, Note_on_c, 1, 88, 127
2, 58760, Note_on_c, 1, 96, 127
2, 59160, Note_off_c, 1, 44, 0
2, 59160, Note_on_c, 1, 47, 127
2, 59160, Note_off_c, 1, 56, 0
2, 59160, Note_on_c, 1, 59, 127
2, 59160, Note_on_c, 1, 83, 127
2, 59160, Note_off_c, 1, 84, 0
2, 59160, Note_on_c, 1, 87, 127
2, 59160, Note_off_c, 1, 88, 0
2, 59160, Note_on_c, 1, 90, 127
2, 59160, Note_on_c, 1, 95, 127
2, 59160, Note_off_c, 1, 96, 0
2, 59200, Note_off_c, 1, 47, 0
2, 59200, Note_off_c, 1, 59, 0
2, 59200, Note_off_c, 1, 83, 0
2, 59200, Note_off_c, 1, 87, 0
2, 59200, Note_off_c, 1, 90, 0
2, 59200, Note_off_c, 1, 95, 0
2, 59240, Note_on_c, 1, 42, 127
2, 59240, Note_on_c, 1, 54, 127
2, 59240, Note_on_c, 1, 73, 127
2, 59240, Note_on_c, 1, 78, 127
2, 59240, Note_on_c, 1, 82, 127
2, 59240, Note_on_c, 1, 85, 127
2, 59480, Note_off_c, 1, 42, 0
2, 59480, Note_on_c, 1, 44, 127
2, 59480, Note_off_c, 1, 54, 0
2, 59480, Note_on_c, 1, 60, 127
2, 59480, Note_on_c, 1, 63, 127
2, 59480, Note_on_c, 1, 70, 127
2, 59480, Note_off_c, 1, 73, 0
2, 59480, Note_off_c, 1, 78, 0
2, 59480, Note_off_c, 1, 82, 0
2, 59480, Note_off_c, 1, 85, 0
2, 59520, Note_on_c, 1, 29, 127
2, 59520, Note_on_c, 1, 41, 127
2, 59520, Note_off_c, 1, 44, 0
2, 59520, Note_off_c, 1, 60, 0
2, 59520, Note_off_c, 1, 63, 0
2, 59520, Note_on_c, 1, 66, 127
2, 59520, Note_off_c, 1, 70, 0
2, 59560, Note_off_c, 1, 29, 0
2, 59560, Note_off_c, 1, 41, 0
2, 59560, Note_off_c, 1, 66, 0
2, 59560, Note_on_c, 1, 80, 127
2, 59560, Note_on_c, 1, 88, 127
2, 59560, Note_on_c, 1, 92, 127
2, 59600, Note_on_c, 1, 34, 127
2, 59600, Note_on_c, 1, 46, 127
2, 59600, Note_on_c, 1, 62, 127
2, 59600, Note_on_c, 1, 65, 127
2, 59600, Note_on_c, 1, 68, 127
2, 59600, Note_off_c, 1, 80, 0
2, 59600, Note_off_c, 1, 88, 0
2, 59600, Note_off_c, 1, 92, 0
2, 59640, Note_off_c, 1, 34, 0
2, 59640, Note_off_c, 1, 46, 0
2, 59640, Note_off_c, 1, 62, 0
2, 59640, Note_off_c, 1, 65, 0
2, 59640, Note_on_c, 1, 71, 127
2, 59640, Note_on_c, 1, 73, 127
2, 59640, Note_on_c, 1, 77, 127
2, 59680, Note_on_c, 1, 51, 127
2, 59680, Note_on_c, 1, 63, 127
2, 59680, Note_off_c, 1, 68, 0
2, 59680, Note_off_c, 1, 71, 0
2, 59680, Note_on_c, 1, 72, 127
2, 59680, Note_off_c, 1, 73, 0
2, 59680, Note_off_c, 1, 77, 0
2, 59680, Note_on_c, 1, 79, 127
2, 59680, Note_on_c, 1, 84, 127
2, 60040, Note_off_c, 1, 51, 0
2, 60040, Note_off_c, 1, 63, 0
2, 60040, Note_off_c, 1, 72, 0
2, 60040, Note_off_c, 1, 79, 0
2, 60040, Note_off_c, 1, 84, 0
2, 60120, Note_on_c, 1, 36, 127
2, 60120, Note_on_c, 1, 48, 127
2, 60120, Note_on_c, 1, 57, 127
2, 60120, Note_on_c, 1, 63, 127
2, 60120, Note_on_c, 1, 68, 127
2, 60680, Note_off_c, 1, 36, 0
2, 60680, Note_on_c, 1, 43, 127
2, 60680, Note_off_c, 1, 48, 0
2, 60680, Note_on_c, 1, 54, 127
2, 60680, Note_off_c, 1, 57, 0
2, 60680, Note_on_c, 1, 62, 127
2, 60680, Note_off_c, 1, 63, 0
2, 60680, Note_off_c, 1, 68, 0
2, 60680, Note_on_c, 1, 69, 127
2, 60680, Note_on_c, 1, 72, 127
2, 60720, Note_off_c, 1, 43, 0
2, 60720, Note_off_c, 1, 54, 0
2, 60720, Note_off_c, 1, 62, 0
2, 60720, Note_off_c, 1, 69, 0
2, 60720, Note_off_c, 1, 72, 0
2, 60760, Note_on_c, 1, 36, 127
2, 60760, Note_on_c, 1, 48, 127
2, 60760, Note_on_c, 1, 57, 127
2, 60760, Note_on_c, 1, 63, 127
2, 60760, Note_on_c, 1, 66, 127
2, 61040, Note_off_c, 1, 36, 0
2, 61040, Note_off_c, 1, 48, 0
2, 61040, Note_off_c, 1, 57, 0
2, 61040, Note_off_c, 1, 63, 0
2, 61040, Note_off_c, 1, 66, 0
2, 61080, Note_on_c, 1, 56, 127
2, 61080, Note_on_c, 1, 68, 127
2, 61080, Note_on_c, 1, 74, 127
2, 61080, Note_on_c, 1, 86, 127
2, 61480, Note_off_c, 1, 56, 0
2, 61480, Note_off_c, 1, 68, 0
2, 61480, Note_off_c, 1, 74, 0
2, 61480, Note_on_c, 1, 78, 127
2, 61480, Note_on_c, 1, 90, 127
2, 61520, Note_on_c, 1, 41, 127
2, 61520, Note_on_c, 1, 53, 127
2, 61520, Note_on_c, 1, 65, 127
2, 61520, Note_on_c, 1, 68, 127
2, 61520, Note_on_c, 1, 73, 127
2, 61520, Note_on_c, 1, 77, 127
2, 61520, Note_off_c, 1, 78, 0
2, 61520, Note_off_c, 1, 86, 0
2, 61520, Note_off_c, 1, 90, 0
2, 61640, Note_off_c, 1, 41, 0
2, 61640, Note_off_c, 1, 53, 0
2, 61640, Note_off_c, 1, 65, 0
2, 61640, Note_off_c, 1, 68, 0
2, 61640, Note_off_c, 1, 73, 0
2, 61640, Note_off_c, 1, 77, 0
2, 61680, Note_on_c, 1, 81, 127
2, 61680, Note_on_c, 1, 83, 127
2, 61680, Note_on_c, 1, 87, 127
2, 61720, Note_on_c, 1, 60, 127
2, 61720, Note_on_c, 1, 67, 127
2, 61720, Note_on_c, 1, 70, 127
2, 61720, Note_on_c, 1, 76, 127
2, 61720, Note_off_c, 1, 81, 0
2, 61720, Note_on_c, 1, 82, 127
2, 61720, Note_off_c, 1, 83, 0
2, 61720, Note_on_c, 1, 85, 127
2, 61720, Note_off_c, 1, 87, 0
2, 61720, Note_on_c, 1, 94, 127
2, 61760, Note_on_c, 1, 43, 127
2, 61760, Note_on_c, 1, 52, 127
2, 61760, Note_on_c, 1, 56, 127
2, 61760, Note_on_c, 1, 59, 127
2, 61760, Note_off_c, 1, 60, 0
2, 61760, Note_off_c, 1, 67, 0
2, 61760, Note_on_c, 1, 68, 127
2, 61760, Note_off_c, 1, 70, 0
2, 61760, Note_on_c, 1, 71, 127
2, 61760, Note_off_c, 1, 76, 0
2, 61760, Note_off_c, 1, 82, 0
2, 61760, Note_off_c, 1, 85, 0
2, 61760, Note_off_c, 1, 94, 0
2, 61800, Note_on_c, 1, 29, 127
2, 61800, Note_on_c, 1, 39, 127
2, 61800, Note_on_c, 1, 46, 127
2, 61800, Note_on_c, 1, 51, 127
2, 61800, Note_off_c, 1, 52, 0
2, 61800, Note_off_c, 1, 56, 0
2, 61800, Note_off_c, 1, 59, 0
2, 61800, Note_on_c, 1, 67, 127
2, 61800, Note_off_c, 1, 68, 0
2, 61800, Note_on_c, 1, 70, 127
2, 61800, Note_off_c, 1, 71, 0
2, 61800, Note_on_c, 1, 75, 127
2, 61800, Note_on_c, 1, 79, 127
2, 61840, Note_off_c, 1, 29, 0
2, 61840, Note_on_c, 1, 42, 127
2, 61840, Note_off_c, 1, 43, 0
2, 61840, Note_off_c, 1, 46, 0
2, 61840, Note_off_c, 1, 51, 0
2, 61840, Note_on_c, 1, 61, 127
2, 61840, Note_on_c, 1, 63, 127
2, 61840, Note_on_c, 1, 66, 127
2, 61840, Note_off_c, 1, 67, 0
2, 61840, Note_off_c, 1, 70, 0
2, 61840, Note_off_c, 1, 75, 0
2, 61840, Note_off_c, 1, 79, 0
2, 61880, Note_off_c, 1, 39, 0
2, 61880, Note_off_c, 1, 42, 0
2, 61880, Note_off_c, 1, 61, 0
2, 61880, Note_off_c, 1, 63, 0
2, 61880, Note_off_c, 1, 66, 0
2, 61880, Note_on_c, 1, 68, 127
2, 61880, Note_on_c, 1, 89, 127
2, 61880, Note_on_c, 1, 97, 127
2, 61920, Note_on_c, 1, 41, 127
2, 61920, Note_on_c, 1, 44, 127
2, 61920, Note_on_c, 1, 63, 127
2, 61920, Note_on_c, 1, 65, 127
2, 61920, Note_off_c, 1, 68, 0
2, 61920, Note_on_c, 1, 70, 127
2, 61920, Note_off_c, 1, 89, 0
2, 61920, Note_off_c, 1, 97, 0
2, 61960, Note_off_c, 1, 41, 0
2, 61960, Note_off_c, 1, 44, 0
2, 61960, Note_on_c, 1, 46, 127
2, 61960, Note_on_c, 1, 53, 127
2, 61960, Note_on_c, 1, 60, 127
2, 61960, Note_on_c, 1, 69, 127
2, 61960, Note_off_c, 1, 70, 0
2, 61960, Note_on_c, 1, 72, 127
2, 61960, Note_on_c, 1, 75, 127
2, 62000, Note_on_c, 1, 43, 127
2, 62000, Note_off_c, 1, 46, 0
2, 62000, Note_on_c, 1, 48, 127
2, 62000, Note_on_c, 1, 51, 127
2, 62000, Note_off_c, 1, 53, 0
2, 62000, Note_on_c, 1, 55, 127
2, 62000, Note_off_c, 1, 65, 0
2, 62000, Note_on_c, 1, 67, 127
2, 62000, Note_off_c, 1, 69, 0
2, 62000, Note_off_c, 1, 75, 0
2, 62040, Note_on_c, 1, 37, 127
2, 62040, Note_on_c, 1, 41, 127
2, 62040, Note_off_c, 1, 43, 0
2, 62040, Note_off_c, 1, 48, 0
2, 62040, Note_on_c, 1, 49, 127
2, 62040, Note_off_c, 1, 51, 0
2, 62040, Note_off_c, 1, 55, 0
2, 62040, Note_off_c, 1, 60, 0
2, 62040, Note_off_c, 1, 63, 0
2, 62040, Note_off_c, 1, 67, 0
2, 62040, Note_on_c, 1, 68, 127
2, 62040, Note_off_c, 1, 72, 0
2, 62040, Note_on_c, 1, 73, 127
2, 62040, Note_on_c, 1, 77, 127
2, 62040, Note_on_c, 1, 80, 127
2, 62080, Note_off_c, 1, 37, 0
2, 62080, Note_off_c, 1, 41, 0
2, 62080, Note_off_c, 1, 49, 0
2, 62080, Note_on_c, 1, 58, 127
2, 62080, Note_on_c, 1, 60, 127
2, 62080, Note_on_c, 1, 64, 127
2, 62080, Note_on_c, 1, 67, 127
2, 62080, Note_off_c, 1, 68, 0
2, 62080, Note_on_c, 1, 70, 127
2, 62080, Note_on_c, 1, 72, 127
2, 62080, Note_off_c, 1, 73, 0
2, 62080, Note_off_c, 1, 77, 0
2, 62080, Note_on_c, 1, 79, 127
2, 62120, Note_on_c, 1, 47, 127
2, 62120, Note_on_c, 1, 54, 127
2, 62120, Note_on_c, 1, 57, 127
2, 62120, Note_off_c, 1, 58, 0
2, 62120, Note_off_c, 1, 60, 0
2, 62120, Note_on_c, 1, 63, 127
2, 62120, Note_off_c, 1, 64, 0
2, 62120, Note_off_c, 1, 67, 0
2, 62120, Note_on_c, 1, 69, 127
2, 62120, Note_off_c, 1, 70, 0
2, 62120, Note_off_c, 1, 72, 0
2, 62120, Note_on_c, 1, 73, 127
2, 62120, Note_off_c, 1, 79, 0
2, 62120, Note_off_c, 1, 80, 0
2, 62160, Note_on_c, 1, 46, 127
2, 62160, Note_off_c, 1, 47, 0
2, 62160, Note_on_c, 1, 53, 127
2, 62160, Note_off_c, 1, 54, 0
2, 62160, Note_on_c, 1, 55, 127
2, 62160, Note_off_c, 1, 57, 0
2, 62160, Note_on_c, 1, 58, 127
2, 62160, Note_on_c, 1, 61, 127
2, 62160, Note_off_c, 1, 63, 0
2, 62160, Note_on_c, 1, 64, 127
2, 62160, Note_off_c, 1, 69, 0
2, 62160, Note_off_c, 1, 73, 0
2, 62200, Note_on_c, 1, 31, 127
2, 62200, Note_off_c, 1, 46, 0
2, 62200, Note_off_c, 1, 53, 0
2, 62200, Note_off_c, 1, 61, 0
2, 62240, Note_off_c, 1, 31, 0
2, 62240, Note_off_c, 1, 55, 0
2, 62240, Note_on_c, 1, 63, 127
2, 62240, Note_off_c, 1, 64, 0
2, 62240, Note_on_c, 1, 82, 127
2, 62240, Note_on_c, 1, 89, 127
2, 62240, Note_on_c, 1, 94, 127
2, 62280, Note_on_c, 1, 43, 127
2, 62280, Note_on_c, 1, 55, 127
2, 62280, Note_off_c, 1, 58, 0
2, 62280, Note_off_c, 1, 63, 0
2, 62280, Note_on_c, 1, 74, 127
2, 62280, Note_on_c, 1, 76, 127
2, 62280, Note_off_c, 1, 82, 0
2, 62280, Note_off_c, 1, 89, 0
2, 62280, Note_off_c, 1, 94, 0
2, 62320, Note_off_c, 1, 43, 0
2, 62320, Note_on_c, 1, 50, 127
2, 62320, Note_on_c, 1, 59, 127
2, 62320, Note_on_c, 1, 66, 127
2, 62320, Note_on_c, 1, 71, 127
2, 62320, Note_off_c, 1, 74, 0
2, 62320, Note_off_c, 1, 76, 0
2, 62360, Note_on_c, 1, 30, 127
2, 62360, Note_on_c, 1, 42, 127
2, 62360, Note_off_c, 1, 50, 0
2, 62360, Note_on_c, 1, 54, 127
2, 62360, Note_off_c, 1, 55, 0
2, 62360, Note_off_c, 1, 59, 0
2, 62360, Note_on_c, 1, 70, 127
2, 62360, Note_off_c, 1, 71, 0
2, 62360, Note_on_c, 1, 82, 127
2, 62400, Note_off_c, 1, 30, 0
2, 62400, Note_off_c, 1, 42, 0
2, 62400, Note_off_c, 1, 54, 0
2, 62400, Note_off_c, 1, 66, 0
2, 62400, Note_off_c, 1, 70, 0
2, 62400, Note_off_c, 1, 82, 0
2, 62440, Note_on_c, 1, 30, 127
2, 62440, Note_on_c, 1, 42, 127
2, 62440, Note_on_c, 1, 54, 127
2, 62440, Note_on_c, 1, 66, 127
2, 62440, Note_on_c, 1, 70, 127
2, 62440, Note_on_c, 1, 82, 127
2, 62480, Note_off_c, 1, 30, 0
2, 62480, Note_off_c, 1, 42, 0
2, 62480, Note_off_c, 1, 54, 0
2, 62480, Note_off_c, 1, 66, 0
2, 62480, Note_off_c, 1, 70, 0
2, 62480, Note_off_c, 1, 82, 0
2, 62480, Note_on_c, 1, 85, 127
2, 62480, Note_on_c, 1, 89, 127
2, 62480, Note_on_c, 1, 91, 127
2, 62480, Note_on_c, 1, 94, 127
2, 62480, Note_on_c, 1, 97, 127
2, 62480, Note_on_c, 1, 101, 127
2, 62520, Note_on_c, 1, 30, 127
2, 62520, Note_on_c, 1, 42, 127
2, 62520, Note_on_c, 1, 54, 127
2, 62520, Note_on_c, 1, 66, 127
2, 62520, Note_on_c, 1, 70, 127
2, 62520, Note_on_c, 1, 82, 127
2, 62520, Note_off_c, 1, 85, 0
2, 62520, Note_off_c, 1, 89, 0
2, 62520, Note_off_c, 1, 91, 0
2, 62520, Note_off_c, 1, 94, 0
2, 62520, Note_off_c, 1, 97, 0
2, 62520, Note_off_c, 1, 101, 0
2, 62560, Note_off_c, 1, 30, 0
2, 62560, Note_off_c, 1, 42, 0
2, 62560, Note_on_c, 1, 52, 127
2, 62560, Note_off_c, 1, 54, 0
2, 62560, Note_on_c, 1, 55, 127
2, 62560, Note_on_c, 1, 58, 127
2, 62560, Note_on_c, 1, 61, 127
2, 62560, Note_on_c, 1, 64, 127
2, 62560, Note_off_c, 1, 66, 0
2, 62560, Note_off_c, 1, 70, 0
2, 62560, Note_off_c, 1, 82, 0
2, 62560, Note_on_c, 1, 94, 127
2, 62600, Note_on_c, 1, 30, 127
2, 62600, Note_on_c, 1, 42, 127
2, 62600, Note_off_c, 1, 52, 0
2, 62600, Note_on_c, 1, 54, 127
2, 62600, Note_off_c, 1, 55, 0
2, 62600, Note_on_c, 1, 57, 127
2, 62600, Note_off_c, 1, 58, 0
2, 62600, Note_off_c, 1, 64, 0
2, 62600, Note_on_c, 1, 66, 127
2, 62600, Note_on_c, 1, 69, 127
2, 62600, Note_on_c, 1, 73, 127
2, 62600, Note_on_c, 1, 78, 127
2, 62600, Note_on_c, 1, 81, 127
2, 62600, Note_on_c, 1, 85, 127
2, 62600, Note_off_c, 1, 94, 0
2, 62720, Note_off_c, 1, 30, 0
2, 62720, Note_off_c, 1, 42, 0
2, 62720, Note_off_c, 1, 66, 0
2, 62720, Note_off_c, 1, 69, 0
2, 62720, Note_off_c, 1, 73, 0
2, 62720, Note_off_c, 1, 78, 0
2, 62760, Note_on_c, 1, 49, 127
2, 62760, Note_on_c, 1, 52, 127
2, 62760, Note_off_c, 1, 54, 0
2, 62760, Note_on_c, 1, 55, 127
2, 62760, Note_on_c, 1, 64, 127
2, 62760, Note_off_c, 1, 81, 0
2, 62760, Note_off_c, 1, 85, 0
2, 62800, Note_on_c, 1, 42, 127
2, 62800, Note_off_c, 1, 52, 0
2, 62800, Note_off_c, 1, 55, 0
2, 62800, Note_off_c, 1, 57, 0
2, 62800, Note_on_c, 1, 58, 127
2, 62800, Note_off_c, 1, 61, 0
2, 62800, Note_off_c, 1, 64, 0
2, 62800, Note_on_c, 1, 73, 127
2, 62800, Note_on_c, 1, 78, 127
2, 62800, Note_on_c, 1, 82, 127
2, 62800, Note_on_c, 1, 85, 127
2, 62840, Note_on_c, 1, 30, 127
2, 62840, Note_off_c, 1, 49, 0
2, 62840, Note_off_c, 1, 58, 0
2, 62840, Note_on_c, 1, 61, 127
2, 62840, Note_on_c, 1, 64, 127
2, 62840, Note_on_c, 1, 69, 127
2, 62840, Note_off_c, 1, 73, 0
2, 62840, Note_off_c, 1, 78, 0
2, 62840, Note_off_c, 1, 82, 0
2, 62840, Note_off_c, 1, 85, 0
2, 62920, Note_off_c, 1, 30, 0
2, 62920, Note_off_c, 1, 42, 0
2, 62920, Note_off_c, 1, 61, 0
2, 62920, Note_off_c, 1, 64, 0
2, 62920, Note_off_c, 1, 69, 0
2, 62960, Note_on_c, 1, 42, 127
2, 62960, Note_on_c, 1, 48, 127
2, 62960, Note_on_c, 1, 58, 127
2, 62960, Note_on_c, 1, 64, 127
2, 63560, Note_on_c, 1, 41, 127
2, 63560, Note_off_c, 1, 42, 0
2, 63560, Note_off_c, 1, 48, 0
2, 63560, Note_on_c, 1, 49, 127
2, 63560, Note_off_c, 1, 58, 0
2, 63560, Note_off_c, 1, 64, 0
2, 63560, Note_on_c, 1, 77, 127
2, 63600, Note_off_c, 1, 41, 0
2, 63600, Note_off_c, 1, 49, 0
2, 63600, Note_on_c, 1, 50, 127
2, 63600, Note_on_c, 1, 62, 127
2, 63600, Note_on_c, 1, 72, 127
2, 63600, Note_on_c, 1, 81, 127
2, 63600, Note_on_c, 1, 84, 127
2, 63640, Note_on_c, 1, 47, 127
2, 63640, Note_off_c, 1, 50, 0
2, 63640, Note_on_c, 1, 55, 127
2, 63640, Note_off_c, 1, 62, 0
2, 63640, Note_on_c, 1, 67, 127
2, 63640, Note_off_c, 1, 72, 0
2, 63640, Note_on_c, 1, 75, 127
2, 63640, Note_off_c, 1, 77, 0
2, 63640, Note_on_c, 1, 78, 127
2, 63640, Note_off_c, 1, 81, 0
2, 63640, Note_off_c, 1, 84, 0
2, 63680, Note_off_c, 1, 47, 0
2, 63680, Note_on_c, 1, 57, 127
2, 63680, Note_on_c, 1, 64, 127
2, 63680, Note_off_c, 1, 67, 0
2, 63680, Note_off_c, 1, 75, 0
2, 63680, Note_off_c, 1, 78, 0
2, 63680, Note_on_c, 1, 83, 127
2, 63720, Note_on_c, 1, 47, 127
2, 63720, Note_off_c, 1, 55, 0
2, 63720, Note_off_c, 1, 57, 0
2, 63720, Note_on_c, 1, 62, 127
2, 63720, Note_off_c, 1, 64, 0
2, 63720, Note_off_c, 1, 83, 0
2, 63760, Note_off_c, 1, 47, 0
2, 63760, Note_on_c, 1, 52, 127
2, 63760, Note_on_c, 1, 59, 127
2, 63760, Note_off_c, 1, 62, 0
2, 63760, Note_on_c, 1, 67, 127
2, 63760, Note_on_c, 1, 83, 127
2, 63800, Note_off_c, 1, 52, 0
2, 63800, Note_off_c, 1, 59, 0
2, 63800, Note_on_c, 1, 66, 127
2, 63800, Note_off_c, 1, 67, 0
2, 63800, Note_on_c, 1, 71, 127
2, 63800, Note_on_c, 1, 74, 127
2, 63800, Note_on_c, 1, 76, 127
2, 63800, Note_off_c, 1, 83, 0
2, 63840, Note_on_c, 1, 43, 127
2, 63840, Note_on_c, 1, 48, 127
2, 63840, Note_on_c, 1, 52, 127
2, 63840, Note_off_c, 1, 66, 0
2, 63840, Note_off_c, 1, 71, 0
2, 63840, Note_off_c, 1, 76, 0
2, 63880, Note_on_c, 1, 33, 127
2, 63880, Note_off_c, 1, 43, 0
2, 63880, Note_on_c, 1, 45, 127
2, 63880, Note_off_c, 1, 48, 0
2, 63880, Note_off_c, 1, 52, 0
2, 63880, Note_on_c, 1, 71, 127
2, 63880, Note_off_c, 1, 74, 0
2, 63880, Note_on_c, 1, 76, 127
2, 63880, Note_on_c, 1, 83, 127
2, 63920, Note_off_c, 1, 33, 0
2, 63920, Note_off_c, 1, 45, 0
2, 63920, Note_on_c, 1, 69, 127
2, 63920, Note_off_c, 1, 71, 0
2, 63920, Note_on_c, 1, 72, 127
2, 63920, Note_off_c, 1, 76, 0
2, 63920, Note_on_c, 1, 77, 127
2, 63920, Note_on_c, 1, 81, 127
2, 63920, Note_off_c, 1, 83, 0
2, 63920, Note_on_c, 1, 84, 127
2, 63920, Note_on_c, 1, 89, 127
2, 63920, Note_on_c, 1, 96, 127
2, 63960, Note_on_c, 1, 45, 127
2, 63960, Note_on_c, 1, 57, 127
2, 63960, Note_off_c, 1, 69, 0
2, 63960, Note_off_c, 1, 72, 0
2, 63960, Note_on_c, 1, 76, 127
2, 63960, Note_off_c, 1, 77, 0
2, 63960, Note_off_c, 1, 84, 0
2, 63960, Note_on_c, 1, 88, 127
2, 63960, Note_off_c, 1, 89, 0
2, 63960, Note_off_c, 1, 96, 0
2, 64000, Note_off_c, 1, 45, 0
2, 64000, Note_on_c, 1, 54, 127
2, 64000, Note_off_c, 1, 57, 0
2, 64000, Note_off_c, 1, 76, 0
2, 64000, Note_on_c, 1, 78, 127
2, 64000, Note_off_c, 1, 81, 0
2, 64000, Note_on_c, 1, 83, 127
2, 64000, Note_on_c, 1, 86, 127
2, 64000, Note_off_c, 1, 88, 0
2, 64000, Note_on_c, 1, 90, 127
2, 64040, Note_off_c, 1, 54, 0
2, 64040, Note_on_c, 1, 56, 127
2, 64040, Note_on_c, 1, 62, 127
2, 64040, Note_on_c, 1, 65, 127
2, 64040, Note_on_c, 1, 68, 127
2, 64040, Note_on_c, 1, 71, 127
2, 64040, Note_off_c, 1, 78, 0
2, 64040, Note_off_c, 1, 83, 0
2, 64040, Note_off_c, 1, 86, 0
2, 64040, Note_off_c, 1, 90, 0
2, 64080, Note_on_c, 1, 48, 127
2, 64080, Note_on_c, 1, 54, 127
2, 64080, Note_off_c, 1, 56, 0
2, 64080, Note_off_c, 1, 62, 0
2, 64080, Note_on_c, 1, 63, 127
2, 64080, Note_off_c, 1, 65, 0
2, 64080, Note_off_c, 1, 68, 0
2, 64080, Note_on_c, 1, 69, 127
2, 64080, Note_off_c, 1, 71, 0
2, 64080, Note_on_c, 1, 72, 127
2, 64080, Note_on_c, 1, 75, 127
2, 64080, Note_on_c, 1, 81, 127
2, 64120, Note_off_c, 1, 48, 0
2, 64120, Note_off_c, 1, 54, 0
2, 64120, Note_off_c, 1, 63, 0
2, 64120, Note_off_c, 1, 69, 0
2, 64120, Note_on_c, 1, 70, 127
2, 64120, Note_off_c, 1, 72, 0
2, 64120, Note_on_c, 1, 74, 127
2, 64120, Note_off_c, 1, 75, 0
2, 64120, Note_off_c, 1, 81, 0
2, 64120, Note_on_c, 1, 82, 127
2, 64120, Note_on_c, 1, 89, 127
2, 64120, Note_on_c, 1, 98, 127
2, 64120, Note_on_c, 1, 101, 127
2, 64160, Note_off_c, 1, 70, 0
2, 64160, Note_off_c, 1, 74, 0
2, 64160, Note_off_c, 1, 82, 0
2, 64160, Note_off_c, 1, 89, 0
2, 64160, Note_on_c, 1, 91, 127
2, 64160, Note_off_c, 1, 98, 0
2, 64160, Note_off_c, 1, 101, 0
2, 64160, Note_on_c, 1, 103, 127
2, 64200, Note_on_c, 1, 54, 127
2, 64200, Note_on_c, 1, 60, 127
2, 64200, Note_on_c, 1, 64, 127
2, 64200, Note_on_c, 1, 69, 127
2, 64200, Note_on_c, 1, 81, 127
2, 64200, Note_on_c, 1, 84, 127
2, 64200, Note_off_c, 1, 91, 0
2, 64200, Note_off_c, 1, 103, 0
2, 64240, Note_on_c, 1, 49, 127
2, 64240, Note_off_c, 1, 54, 0
2, 64240, Note_on_c, 1, 55, 127
2, 64240, Note_off_c, 1, 60, 0
2, 64240, Note_on_c, 1, 61, 127
2, 64240, Note_on_c, 1, 63, 127
2, 64240, Note_off_c, 1, 64, 0
2, 64240, Note_on_c, 1, 67, 127
2, 64240, Note_off_c, 1, 69, 0
2, 64240, Note_on_c, 1, 70, 127
2, 64240, Note_off_c, 1, 81, 0
2, 64240, Note_off_c, 1, 84, 0
2, 64280, Note_off_c, 1, 49, 0
2, 64280, Note_off_c, 1, 55, 0
2, 64280, Note_off_c, 1, 61, 0
2, 64280, Note_off_c, 1, 63, 0
2, 64280, Note_off_c, 1, 67, 0
2, 64280, Note_off_c, 1, 70, 0
2, 64320, Note_on_c, 1, 58, 127
2, 64320, Note_on_c, 1, 64, 127
2, 64320, Note_on_c, 1, 66, 127
2, 64320, Note_on_c, 1, 73, 127
2, 64320, Note_on_c, 1, 76, 127
2, 64320, Note_on_c, 1, 78, 127
2, 64320, Note_on_c, 1, 82, 127
2, 64320, Note_on_c, 1, 85, 127
2, 64360, Note_on_c, 1, 40, 127
2, 64360, Note_on_c, 1, 52, 127
2, 64360, Note_off_c, 1, 58, 0
2, 64360, Note_off_c, 1, 64, 0
2, 64360, Note_off_c, 1, 66, 0
2, 64360, Note_off_c, 1, 73, 0
2, 64360, Note_off_c, 1, 78, 0
2, 64360, Note_on_c, 1, 81, 127
2, 64360, Note_off_c, 1, 82, 0
2, 64400, Note_on_c, 1, 35, 127
2, 64400, Note_off_c, 1, 40, 0
2, 64400, Note_on_c, 1, 42, 127
2, 64400, Note_off_c, 1, 52, 0
2, 64400, Note_off_c, 1, 76, 0
2, 64400, Note_off_c, 1, 81, 0
2, 64400, Note_off_c, 1, 85, 0
2, 64400, Note_on_c, 1, 95, 127
2, 64440, Note_off_c, 1, 35, 0
2, 64440, Note_off_c, 1, 42, 0
2, 64440, Note_on_c, 1, 48, 127
2, 64440, Note_on_c, 1, 55, 127
2, 64440, Note_on_c, 1, 64, 127
2, 64440, Note_on_c, 1, 70, 127
2, 64440, Note_on_c, 1, 76, 127
2, 64440, Note_off_c, 1, 95, 0
2, 64480, Note_off_c, 1, 48, 0
2, 64480, Note_off_c, 1, 55, 0
2, 64480, Note_on_c, 1, 56, 127
2, 64480, Note_on_c, 1, 58, 127
2, 64480, Note_on_c, 1, 62, 127
2, 64480, Note_off_c, 1, 64, 0
2, 64480, Note_on_c, 1, 65, 127
2, 64480, Note_off_c, 1, 70, 0
2, 64480, Note_on_c, 1, 74, 127
2, 64480, Note_off_c, 1, 76, 0
2, 64480, Note_on_c, 1, 78, 127
2, 64480, Note_on_c, 1, 82, 127
2, 64520, Note_on_c, 1, 41, 127
2, 64520, Note_off_c, 1, 56, 0
2, 64520, Note_off_c, 1, 58, 0
2, 64520, Note_off_c, 1, 62, 0
2, 64520, Note_off_c, 1, 65, 0
2, 64520, Note_on_c, 1, 70, 127
2, 64520, Note_off_c, 1, 74, 0
2, 64520, Note_on_c, 1, 75, 127
2, 64520, Note_off_c, 1, 78, 0
2, 64520, Note_on_c, 1, 79, 127
2, 64520, Note_off_c, 1, 82, 0
2, 64560, Note_off_c, 1, 41, 0
2, 64560, Note_on_c, 1, 46, 127
2, 64560, Note_on_c, 1, 50, 127
2, 64560, Note_on_c, 1, 55, 127
2, 64560, Note_off_c, 1, 70, 0
2, 64560, Note_off_c, 1, 75, 0
2, 64560, Note_off_c, 1, 79, 0
2, 64560, Note_on_c, 1, 93, 127
2, 64600, Note_off_c, 1, 46, 0
2, 64600, Note_off_c, 1, 50, 0
2, 64600, Note_on_c, 1, 53, 127
2, 64600, Note_off_c, 1, 55, 0
2, 64600, Note_on_c, 1, 56, 127
2, 64600, Note_on_c, 1, 59, 127
2, 64600, Note_on_c, 1, 61, 127
2, 64600, Note_on_c, 1, 65, 127
2, 64600, Note_on_c, 1, 75, 127
2, 64600, Note_off_c, 1, 93, 0
2, 64640, Note_on_c, 1, 33, 127
2, 64640, Note_on_c, 1, 36, 127
2, 64640, Note_on_c, 1, 45, 127
2, 64640, Note_off_c, 1, 53, 0
2, 64640, Note_off_c, 1, 56, 0
2, 64640, Note_off_c, 1, 59, 0
2, 64640, Note_off_c, 1, 61, 0
2, 64640, Note_off_c, 1, 65, 0
2, 64640, Note_off_c, 1, 75, 0
2, 64680, Note_on_c, 1, 30, 127
2, 64680, Note_off_c, 1, 33, 0
2, 64680, Note_off_c, 1, 36, 0
2, 64680, Note_off_c, 1, 45, 0
2, 64680, Note_on_c, 1, 46, 127
2, 64720, Note_off_c, 1, 30, 0
2, 64720, Note_off_c, 1, 46, 0
2, 64720, Note_on_c, 1, 55, 127
2, 64720, Note_on_c, 1, 60, 127
2, 64720, Note_on_c, 1, 63, 127
2, 64720, Note_on_c, 1, 66, 127
2, 64720, Note_on_c, 1, 93, 127
2, 64760, Note_on_c, 1, 30, 127
2, 64760, Note_on_c, 1, 46, 127
2, 64760, Note_off_c, 1, 55, 0
2, 64760, Note_off_c, 1, 60, 0
2, 64760, Note_off_c, 1, 63, 0
2, 64760, Note_off_c, 1, 66, 0
2, 64760, Note_off_c, 1, 93, 0
2, 64840, Note_off_c, 1, 30, 0
2, 64840, Note_off_c, 1, 46, 0
2, 64840, Note_on_c, 1, 70, 127
2, 64840, Note_on_c, 1, 74, 127
2, 64840, Note_on_c, 1, 79, 127
2, 64840, Note_on_c, 1, 81, 127
2, 64880, Note_on_c, 1, 33, 127
2, 64880, Note_on_c, 1, 40, 127
2, 64880, Note_on_c, 1, 45, 127
2, 64880, Note_on_c, 1, 57, 127
2, 64880, Note_on_c, 1, 60, 127
2, 64880, Note_on_c, 1, 64, 127
2, 64880, Note_on_c, 1, 69, 127
2, 64880, Note_off_c, 1, 70, 0
2, 64880, Note_off_c, 1, 74, 0
2, 64880, Note_off_c, 1, 79, 0
2, 64920, Note_off_c, 1, 33, 0
2, 64920, Note_off_c, 1, 40, 0
2, 64920, Note_off_c, 1, 45, 0
2, 64920, Note_off_c, 1, 57, 0
2, 64920, Note_off_c, 1, 60, 0
2, 64920, Note_off_c, 1, 64, 0
2, 64920, Note_on_c, 1, 66, 127
2, 64920, Note_off_c, 1, 69, 0
2, 64920, Note_off_c, 1, 81, 0
2, 64920, Note_on_c, 1, 86, 127
2, 64920, Note_on_c, 1, 96, 127
2, 64960, Note_on_c, 1, 58, 127
2, 64960, Note_on_c, 1, 62, 127
2, 64960, Note_on_c, 1, 65, 127
2, 64960, Note_off_c, 1, 66, 0
2, 64960, Note_on_c, 1, 70, 127
2, 64960, Note_on_c, 1, 74, 127
2, 64960, Note_on_c, 1, 79, 127
2, 64960, Note_off_c, 1, 86, 0
2, 64960, Note_off_c, 1, 96, 0
2, 65000, Note_off_c, 1, 58, 0
2, 65000, Note_off_c, 1, 62, 0
2, 65000, Note_off_c, 1, 65, 0
2, 65000, Note_off_c, 1, 70, 0
2, 65000, Note_off_c, 1, 74, 0
2, 65000, Note_on_c, 1, 76, 127
2, 65000, Note_off_c, 1, 79, 0
2, 65000, Note_on_c, 1, 85, 127
2, 65000, Note_on_c, 1, 92, 127
2, 65040, Note_off_c, 1, 76, 0
2, 65040, Note_off_c, 1, 85, 0
2, 65040, Note_off_c, 1, 92, 0
2, 65120, Note_on_c, 1, 48, 127
2, 65120, Note_on_c, 1, 54, 127
2, 65120, Note_on_c, 1, 57, 127
2, 65120, Note_on_c, 1, 63, 127
2, 65120, Note_on_c, 1, 88, 127
2, 65120, Note_on_c, 1, 100, 127
2, 65160, Note_off_c, 1, 48, 0
2, 65160, Note_off_c, 1, 54, 0
2, 65160, Note_on_c, 1, 59, 127
2, 65160, Note_on_c, 1, 62, 127
2, 65160, Note_off_c, 1, 63, 0
2, 65160, Note_on_c, 1, 64, 127
2, 65160, Note_on_c, 1, 68, 127
2, 65160, Note_on_c, 1, 74, 127
2, 65160, Note_on_c, 1, 83, 127
2, 65160, Note_off_c, 1, 88, 0
2, 65160, Note_off_c, 1, 100, 0
2, 65320, Note_off_c, 1, 57, 0
2, 65320, Note_off_c, 1, 62, 0
2, 65320, Note_off_c, 1, 68, 0
2, 65320, Note_off_c, 1, 74, 0
2, 65320, Note_off_c, 1, 83, 0
2, 65320, Note_on_c, 1, 92, 127
2, 65320, Note_on_c, 1, 95, 127
2, 65360, Note_on_c, 1, 49, 127
2, 65360, Note_off_c, 1, 59, 0
2, 65360, Note_off_c, 1, 64, 0
2, 65360, Note_off_c, 1, 92, 0
2, 65360, Note_on_c, 1, 93, 127
2, 65360, Note_off_c, 1, 95, 0
2, 65360, Note_on_c, 1, 97, 127
2, 65400, Note_off_c, 1, 49, 0
2, 65400, Note_on_c, 1, 88, 127
2, 65400, Note_off_c, 1, 93, 0
2, 65400, Note_off_c, 1, 97, 0
2, 65400, Note_on_c, 1, 100, 127
2, 65440, Note_on_c, 1, 67, 127
2, 65440, Note_on_c, 1, 75, 127
2, 65440, Note_on_c, 1, 79, 127
2, 65440, Note_on_c, 1, 87, 127
2, 65440, Note_off_c, 1, 88, 0
2, 65440, Note_on_c, 1, 91, 127
2, 65440, Note_off_c, 1, 100, 0
2, 65480, Note_on_c, 1, 65, 127
2, 65480, Note_off_c, 1, 67, 0
2, 65480, Note_off_c, 1, 75, 0
2, 65480, Note_off_c, 1, 79, 0
2, 65480, Note_on_c, 1, 85, 127
2, 65480, Note_off_c, 1, 87, 0
2, 65480, Note_off_c, 1, 91, 0
2, 65520, Note_off_c, 1, 65, 0
2, 65520, Note_on_c, 1, 66, 127
2, 65520, Note_on_c, 1, 78, 127
2, 65520, Note_off_c, 1, 85, 0
2, 65520, Note_on_c, 1, 90, 127
2, 65520, Note_on_c, 1, 102, 127
2, 65560, Note_off_c, 1, 66, 0
2, 65560, Note_off_c, 1, 78, 0
2, 65560, Note_off_c, 1, 90, 0
2, 65560, Note_on_c, 1, 92, 127
2, 65560, Note_off_c, 1, 102, 0
2, 65560, Note_on_c, 1, 104, 127
2, 65600, Note_on_c, 1, 50, 127
2, 65600, Note_on_c, 1, 56, 127
2, 65600, Note_on_c, 1, 60, 127
2, 65600, Note_on_c, 1, 63, 127
2, 65600, Note_on_c, 1, 72, 127
2, 65600, Note_on_c, 1, 75, 127
2, 65600, Note_on_c, 1, 80, 127
2, 65600, Note_on_c, 1, 84, 127
2, 65600, Note_off_c, 1, 92, 0
2, 65600, Note_off_c, 1, 104, 0
2, 65640, Note_off_c, 1, 50, 0
2, 65640, Note_on_c, 1, 54, 127
2, 65640, Note_off_c, 1, 56, 0
2, 65640, Note_off_c, 1, 60, 0
2, 65640, Note_off_c, 1, 72, 0
2, 65640, Note_off_c, 1, 75, 0
2, 65640, Note_off_c, 1, 80, 0
2, 65640, Note_on_c, 1, 87, 127
2, 65680, Note_off_c, 1, 54, 0
2, 65680, Note_off_c, 1, 63, 0
2, 65680, Note_on_c, 1, 70, 127
2, 65680, Note_on_c, 1, 73, 127
2, 65680, Note_on_c, 1, 79, 127
2, 65680, Note_off_c, 1, 84, 0
2, 65680, Note_off_c, 1, 87, 0
2, 65680, Note_on_c, 1, 89, 127
2, 65720, Note_on_c, 1, 40, 127
2, 65720, Note_on_c, 1, 53, 127
2, 65720, Note_on_c, 1, 57, 127
2, 65720, Note_on_c, 1, 65, 127
2, 65720, Note_off_c, 1, 70, 0
2, 65720, Note_off_c, 1, 73, 0
2, 65720, Note_off_c, 1, 79, 0
2, 65720, Note_off_c, 1, 89, 0
2, 65760, Note_off_c, 1, 40, 0
2, 65760, Note_on_c, 1, 52, 127
2, 65760, Note_off_c, 1, 53, 0
2, 65760, Note_off_c, 1, 57, 0
2, 65760, Note_on_c, 1, 63, 127
2, 65760, Note_off_c, 1, 65, 0
2, 65760, Note_on_c, 1, 69, 127
2, 65760, Note_on_c, 1, 72, 127
2, 65760, Note_on_c, 1, 78, 127
2, 65800, Note_on_c, 1, 46, 127
2, 65800, Note_off_c, 1, 52, 0
2, 65800, Note_on_c, 1, 55, 127
2, 65800, Note_on_c, 1, 61, 127
2, 65800, Note_off_c, 1, 63, 0
2, 65800, Note_on_c, 1, 67, 127
2, 65800, Note_off_c, 1, 69, 0
2, 65800, Note_off_c, 1, 72, 0
2, 65800, Note_off_c, 1, 78, 0
2, 65840, Note_off_c, 1, 46, 0
2, 65840, Note_on_c, 1, 49, 127
2, 65840, Note_off_c, 1, 55, 0
2, 65840, Note_on_c, 1, 56, 127
2, 65840, Note_off_c, 1, 61, 0
2, 65840, Note_on_c, 1, 63, 127
2, 65840, Note_off_c, 1, 67, 0
2, 65840, Note_on_c, 1, 71, 127
2, 65840, Note_on_c, 1, 80, 127
2, 65880, Note_on_c, 1, 39, 127
2, 65880, Note_off_c, 1, 49, 0
2, 65880, Note_off_c, 1, 56, 0
2, 65880, Note_off_c, 1, 63, 0
2, 65880, Note_on_c, 1, 70, 127
2, 65880, Note_off_c, 1, 71, 0
2, 65880, Note_on_c, 1, 82, 127
2, 65920, Note_off_c, 1, 39, 0
2, 65920, Note_off_c, 1, 70, 0
2, 65920, Note_off_c, 1, 82, 0
2, 65920, Note_on_c, 1, 94, 127
2, 65960, Note_on_c, 1, 47, 127
2, 65960, Note_on_c, 1, 51, 127
2, 65960, Note_on_c, 1, 63, 127
2, 65960, Note_on_c, 1, 65, 127
2, 65960, Note_off_c, 1, 80, 0
2, 65960, Note_off_c, 1, 94, 0
2, 66000, Note_on_c, 1, 39, 127
2, 66000, Note_off_c, 1, 47, 0
2, 66000, Note_on_c, 1, 48, 127
2, 66000, Note_off_c, 1, 63, 0
2, 66000, Note_off_c, 1, 65, 0
2, 66000, Note_on_c, 1, 81, 127
2, 66000, Note_on_c, 1, 93, 127
2, 66040, Note_on_c, 1, 36, 127
2, 66040, Note_on_c, 1, 38, 127
2, 66040, Note_off_c, 1, 39, 0
2, 66040, Note_off_c, 1, 48, 0
2, 66040, Note_off_c, 1, 51, 0
2, 66040, Note_on_c, 1, 75, 127
2, 66040, Note_on_c, 1, 77, 127
2, 66040, Note_off_c, 1, 81, 0
2, 66040, Note_on_c, 1, 84, 127
2, 66040, Note_off_c, 1, 93, 0
2, 66080, Note_off_c, 1, 36, 0
2, 66080, Note_off_c, 1, 38, 0
2, 66080, Note_on_c, 1, 57, 127
2, 66080, Note_on_c, 1, 59, 127
2, 66080, Note_on_c, 1, 62, 127
2, 66080, Note_on_c, 1, 64, 127
2, 66080, Note_on_c, 1, 68, 127
2, 66080, Note_on_c, 1, 74, 127
2, 66080, Note_off_c, 1, 75, 0
2, 66080, Note_off_c, 1, 77, 0
2, 66080, Note_on_c, 1, 83, 127
2, 66080, Note_off_c, 1, 84, 0
2, 66200, Note_off_c, 1, 57, 0
2, 66200, Note_off_c, 1, 59, 0
2, 66200, Note_off_c, 1, 62, 0
2, 66200, Note_off_c, 1, 64, 0
2, 66200, Note_off_c, 1, 68, 0
2, 66200, Note_off_c, 1, 74, 0
2, 66200, Note_off_c, 1, 83, 0
2, 66240, Note_on_c, 1, 57, 127
2, 66240, Note_on_c, 1, 59, 127
2, 66240, Note_on_c, 1, 62, 127
2, 66240, Note_on_c, 1, 64, 127
2, 66240, Note_on_c, 1, 68, 127
2, 66240, Note_on_c, 1, 74, 127
2, 66240, Note_on_c, 1, 83, 127
2, 66280, Note_on_c, 1, 42, 127
2, 66280, Note_on_c, 1, 54, 127
2, 66280, Note_off_c, 1, 59, 0
2, 66280, Note_on_c, 1, 61, 127
2, 66280, Note_off_c, 1, 62, 0
2, 66280, Note_off_c, 1, 64, 0
2, 66280, Note_on_c, 1, 66, 127
2, 66280, Note_off_c, 1, 68, 0
2, 66280, Note_off_c, 1, 74, 0
2, 66280, Note_off_c, 1, 83, 0
2, 66320, Note_on_c, 1, 34, 127
2, 66320, Note_off_c, 1, 42, 0
2, 66320, Note_off_c, 1, 54, 0
2, 66320, Note_on_c, 1, 56, 127
2, 66320, Note_off_c, 1, 57, 0
2, 66320, Note_on_c, 1, 60, 127
2, 66320, Note_off_c, 1, 61, 0
2, 66320, Note_on_c, 1, 65, 127
2, 66320, Note_off_c, 1, 66, 0
2, 66680, Note_off_c, 1, 34, 0
2, 66680, Note_off_c, 1, 56, 0
2, 66680, Note_on_c, 1, 58, 127
2, 66680, Note_on_c, 1, 64, 127
2, 66680, Note_off_c, 1, 65, 0
2, 66720, Note_off_c, 1, 60, 0
2, 66720, Note_on_c, 1, 61, 127
2, 66720, Note_off_c, 1, 64, 0
2, 66720, Note_on_c, 1, 66, 127
2, 66720, Note_on_c, 1, 73, 127
2, 66720, Note_on_c, 1, 75, 127
2, 66760, Note_on_c, 1, 56, 127
2, 66760, Note_off_c, 1, 58, 0
2, 66760, Note_off_c, 1, 61, 0
2, 66760, Note_on_c, 1, 64, 127
2, 66760, Note_off_c, 1, 66, 0
2, 66760, Note_on_c, 1, 68, 127
2, 66760, Note_on_c, 1, 72, 127
2, 66760, Note_off_c, 1, 73, 0
2, 66760, Note_off_c, 1, 75, 0
2, 66760, Note_on_c, 1, 76, 127
2, 66760, Note_on_c, 1, 84, 127
2, 66840, Note_off_c, 1, 56, 0
2, 66840, Note_on_c, 1, 59, 127
2, 66840, Note_on_c, 1, 63, 127
2, 66840, Note_off_c, 1, 64, 0
2, 66840, Note_on_c, 1, 66, 127
2, 66840, Note_off_c, 1, 68, 0
2, 66840, Note_on_c, 1, 71, 127
2, 66840, Note_off_c, 1, 72, 0
2, 66840, Note_on_c, 1, 75, 127
2, 66840, Note_off_c, 1, 76, 0
2, 66840, Note_off_c, 1, 84, 0
2, 66880, Note_on_c, 1, 56, 127
2, 66880, Note_off_c, 1, 59, 0
2, 66880, Note_off_c, 1, 63, 0
2, 66880, Note_on_c, 1, 64, 127
2, 66880, Note_off_c, 1, 66, 0
2, 66880, Note_on_c, 1, 69, 127
2, 66880, Note_off_c, 1, 71, 0
2, 66880, Note_off_c, 1, 75, 0
2, 66880, Note_on_c, 1, 77, 127
2, 66920, Note_on_c, 1, 50, 127
2, 66920, Note_on_c, 1, 55, 127
2, 66920, Note_off_c, 1, 56, 0
2, 66920, Note_on_c, 1, 58, 127
2, 66920, Note_on_c, 1, 61, 127
2, 66920, Note_on_c, 1, 67, 127
2, 66920, Note_off_c, 1, 69, 0
2, 66920, Note_off_c, 1, 77, 0
2, 67560, Note_off_c, 1, 50, 0
2, 67560, Note_off_c, 1, 55, 0
2, 67560, Note_off_c, 1, 58, 0
2, 67560, Note_off_c, 1, 61, 0
2, 67560, Note_off_c, 1, 64, 0
2, 67560, Note_off_c, 1, 67, 0
2, 67600, Note_on_c, 1, 41, 127
2, 67600, Note_on_c, 1, 44, 127
2, 67600, Note_on_c, 1, 50, 127
2, 67600, Note_on_c, 1, 62, 127
2, 67600, Note_on_c, 1, 74, 127
2, 67640, Note_off_c, 1, 41, 0
2, 67640, Note_off_c, 1, 44, 0
2, 67640, Note_off_c, 1, 50, 0
2, 67640, Note_on_c, 1, 57, 127
2, 67640, Note_off_c, 1, 62, 0
2, 67640, Note_off_c, 1, 74, 0
2, 67640, Note_on_c, 1, 81, 127
2, 67640, Note_on_c, 1, 84, 127
2, 67640, Note_on_c, 1, 89, 127
2, 67680, Note_on_c, 1, 28, 127
2, 67680, Note_on_c, 1, 40, 127
2, 67680, Note_on_c, 1, 43, 127
2, 67680, Note_on_c, 1, 46, 127
2, 67680, Note_on_c, 1, 50, 127
2, 67680, Note_on_c, 1, 52, 127
2, 67680, Note_on_c, 1, 55, 127
2, 67680, Note_off_c, 1, 57, 0
2, 67680, Note_on_c, 1, 58, 127
2, 67680, Note_on_c, 1, 62, 127
2, 67680, Note_on_c, 1, 67, 127
2, 67680, Note_off_c, 1, 81, 0
2, 67680, Note_off_c, 1, 84, 0
2, 67680, Note_off_c, 1, 89, 0
2, 67720, Note_off_c, 1, 28, 0
2, 67720, Note_off_c, 1, 40, 0
2, 67720, Note_off_c, 1, 43, 0
2, 67720, Note_off_c, 1, 46, 0
2, 67720, Note_off_c, 1, 50, 0
2, 67720, Note_off_c, 1, 52, 0
2, 67720, Note_off_c, 1, 55, 0
2, 67720, Note_off_c, 1, 58, 0
2, 67720, Note_on_c, 1, 61, 127
2, 67720, Note_off_c, 1, 62, 0
2, 67720, Note_on_c, 1, 76, 127
2, 67720, Note_on_c, 1, 81, 127
2, 67760, Note_on_c, 1, 56, 127
2, 67760, Note_off_c, 1, 61, 0
2, 67760, Note_off_c, 1, 67, 0
2, 67760, Note_on_c, 1, 68, 127
2, 67760, Note_on_c, 1, 73, 127
2, 67760, Note_on_c, 1, 80, 127
2, 67760, Note_off_c, 1, 81, 0
2, 67760, Note_on_c, 1, 85, 127
2, 67800, Note_off_c, 1, 56, 0
2, 67800, Note_on_c, 1, 65, 127
2, 67800, Note_off_c, 1, 68, 0
2, 67800, Note_off_c, 1, 73, 0
2, 67800, Note_off_c, 1, 85, 0
2, 67800, Note_on_c, 1, 88, 127
2, 67840, Note_on_c, 1, 46, 127
2, 67840, Note_on_c, 1, 68, 127
2, 67840, Note_on_c, 1, 72, 127
2, 67840, Note_on_c, 1, 75, 127
2, 67840, Note_off_c, 1, 76, 0
2, 67840, Note_off_c, 1, 80, 0
2, 67840, Note_off_c, 1, 88, 0
2, 67880, Note_off_c, 1, 46, 0
2, 67880, Note_off_c, 1, 65, 0
2, 67880, Note_off_c, 1, 68, 0
2, 67880, Note_off_c, 1, 72, 0
2, 67880, Note_off_c, 1, 75, 0
2, 67920, Note_on_c, 1, 61, 127
2, 67920, Note_on_c, 1, 68, 127
2, 67920, Note_on_c, 1, 71, 127
2, 67920, Note_on_c, 1, 74, 127
2, 67920, Note_on_c, 1, 78, 127
2, 67960, Note_off_c, 1, 61, 0
2, 67960, Note_on_c, 1, 65, 127
2, 67960, Note_off_c, 1, 68, 0
2, 67960, Note_off_c, 1, 71, 0
2, 67960, Note_off_c, 1, 74, 0
2, 67960, Note_on_c, 1, 76, 127
2, 67960, Note_off_c, 1, 78, 0
2, 67960, Note_on_c, 1, 80, 127
2, 67960, Note_on_c, 1, 88, 127
2, 68040, Note_on_c, 1, 52, 127
2, 68040, Note_on_c, 1, 64, 127
2, 68040, Note_off_c, 1, 65, 0
2, 68040, Note_off_c, 1, 76, 0
2, 68040, Note_off_c, 1, 80, 0
2, 68040, Note_off_c, 1, 88, 0
2, 68040, Note_on_c, 1, 93, 127
2, 68040, Note_on_c, 1, 97, 127
2, 68040, Note_on_c, 1, 100, 127
2, 68040, Note_on_c, 1, 105, 127
2, 68080, Note_off_c, 1, 52, 0
2, 68080, Note_on_c, 1, 57, 127
2, 68080, Note_on_c, 1, 60, 127
2, 68080, Note_off_c, 1, 64, 0
2, 68080, Note_on_c, 1, 67, 127
2, 68080, Note_on_c, 1, 69, 127
2, 68080, Note_on_c, 1, 72, 127
2, 68080, Note_on_c, 1, 79, 127
2, 68080, Note_off_c, 1, 93, 0
2, 68080, Note_off_c, 1, 97, 0
2, 68080, Note_off_c, 1, 100, 0
2, 68080, Note_off_c, 1, 105, 0
2, 68120, Note_on_c, 1, 35, 127
2, 68120, Note_off_c, 1, 60, 0
2, 68120, Note_on_c, 1, 61, 127
2, 68120, Note_on_c, 1, 66, 127
2, 68120, Note_off_c, 1, 67, 0
2, 68120, Note_off_c, 1, 69, 0
2, 68120, Note_off_c, 1, 72, 0
2, 68120, Note_off_c, 1, 79, 0
2, 68160, Note_off_c, 1, 35, 0
2, 68160, Note_off_c, 1, 57, 0
2, 68160, Note_off_c, 1, 61, 0
2, 68160, Note_off_c, 1, 66, 0
2, 68160, Note_on_c, 1, 70, 127
2, 68160, Note_on_c, 1, 100, 127
2, 68160, Note_on_c, 1, 103, 127
2, 68200, Note_on_c, 1, 48, 127
2, 68200, Note_on_c, 1, 55, 127
2, 68200, Note_on_c, 1, 63, 127
2, 68200, Note_off_c, 1, 70, 0
2, 68200, Note_on_c, 1, 72, 127
2, 68200, Note_on_c, 1, 75, 127
2, 68200, Note_on_c, 1, 79, 127
2, 68200, Note_on_c, 1, 84, 127
2, 68200, Note_off_c, 1, 100, 0
2, 68200, Note_off_c, 1, 103, 0
2, 68240, Note_off_c, 1, 48, 0
2, 68240, Note_off_c, 1, 55, 0
2, 68240, Note_on_c, 1, 58, 127
2, 68240, Note_off_c, 1, 63, 0
2, 68240, Note_off_c, 1, 72, 0
2, 68240, Note_off_c, 1, 75, 0
2, 68240, Note_off_c, 1, 79, 0
2, 68240, Note_off_c, 1, 84, 0
2, 68280, Note_on_c, 1, 50, 127
2, 68280, Note_off_c, 1, 58, 0
2, 68280, Note_on_c, 1, 65, 127
2, 68280, Note_on_c, 1, 68, 127
2, 68280, Note_on_c, 1, 71, 127
2, 68360, Note_off_c, 1, 50, 0
2, 68400, Note_on_c, 1, 50, 127
2, 68480, Note_off_c, 1, 50, 0
2, 68520, Note_off_c, 1, 65, 0
2, 68520, Note_on_c, 1, 67, 127
2, 68520, Note_off_c, 1, 68, 0
2, 68520, Note_on_c, 1, 70, 127
2, 68520, Note_off_c, 1, 71, 0
2, 68520, Note_on_c, 1, 73, 127
2, 68520, Note_on_c, 1, 76, 127
2, 68520, Note_on_c, 1, 82, 127
2, 68680, Note_on_c, 1, 80, 127
2, 68680, Note_off_c, 1, 82, 0
2, 68720, Note_off_c, 1, 80, 0
2, 68720, Note_on_c, 1, 82, 127
2, 68880, Note_off_c, 1, 82, 0
2, 68920, Note_on_c, 1, 35, 127
2, 68920, Note_on_c, 1, 44, 127
2, 68920, Note_off_c, 1, 67, 0
2, 68920, Note_off_c, 1, 70, 0
2, 68920, Note_off_c, 1, 73, 0
2, 68920, Note_off_c, 1, 76, 0
2, 68920, Note_on_c, 1, 80, 127
2, 68960, Note_off_c, 1, 35, 0
2, 68960, Note_off_c, 1, 44, 0
2, 68960, Note_on_c, 1, 46, 127
2, 68960, Note_on_c, 1, 54, 127
2, 68960, Note_on_c, 1, 65, 127
2, 68960, Note_on_c, 1, 73, 127
2, 68960, Note_on_c, 1, 77, 127
2, 68960, Note_off_c, 1, 80, 0
2, 69000, Note_off_c, 1, 46, 0
2, 69000, Note_off_c, 1, 54, 0
2, 69000, Note_off_c, 1, 65, 0
2, 69000, Note_off_c, 1, 73, 0
2, 69000, Note_off_c, 1, 77, 0
2, 69040, Note_on_c, 1, 49, 127
2, 69040, Note_on_c, 1, 94, 127
2, 69120, Note_off_c, 1, 94, 0
2, 69160, Note_off_c, 1, 49, 0
2, 69160, Note_on_c, 1, 94, 127
2, 69200, Note_on_c, 1, 49, 127
2, 69200, Note_off_c, 1, 94, 0
2, 69240, Note_off_c, 1, 49, 0
2, 69240, Note_on_c, 1, 59, 127
2, 69240, Note_on_c, 1, 63, 127
2, 69240, Note_on_c, 1, 67, 127
2, 69240, Note_on_c, 1, 71, 127
2, 69240, Note_on_c, 1, 75, 127
2, 69240, Note_on_c, 1, 82, 127
2, 69840, Note_off_c, 1, 59, 0
2, 69840, Note_off_c, 1, 63, 0
2, 69840, Note_off_c, 1, 67, 0
2, 69840, Note_off_c, 1, 71, 0
2, 69840, Note_off_c, 1, 75, 0
2, 69840, Note_off_c, 1, 82, 0
2, 69880, Note_on_c, 1, 59, 127
2, 69880, Note_on_c, 1, 63, 127
2, 69880, Note_on_c, 1, 67, 127
2, 69880, Note_on_c, 1, 71, 127
2, 69880, Note_on_c, 1, 75, 127
2, 69880, Note_on_c, 1, 82, 127
2, 69920, Note_on_c, 1, 49, 127
2, 69920, Note_on_c, 1, 62, 127
2, 69920, Note_off_c, 1, 63, 0
2, 69920, Note_off_c, 1, 67, 0
2, 69920, Note_off_c, 1, 71, 0
2, 69920, Note_off_c, 1, 75, 0
2, 69920, Note_off_c, 1, 82, 0
2, 69960, Note_off_c, 1, 49, 0
2, 69960, Note_off_c, 1, 62, 0
2, 69960, Note_on_c, 1, 63, 127
2, 69960, Note_on_c, 1, 67, 127
2, 69960, Note_on_c, 1, 71, 127
2, 69960, Note_on_c, 1, 75, 127
2, 69960, Note_on_c, 1, 82, 127
2, 70200, Note_off_c, 1, 59, 0
2, 70200, Note_off_c, 1, 63, 0
2, 70200, Note_off_c, 1, 67, 0
2, 70200, Note_off_c, 1, 71, 0
2, 70200, Note_off_c, 1, 75, 0
2, 70200, Note_off_c, 1, 82, 0
2, 70240, Note_on_c, 1, 37, 127
2, 70240, Note_on_c, 1, 49, 127
2, 70240, Note_on_c, 1, 80, 127
2, 70240, Note_on_c, 1, 87, 127
2, 70280, Note_on_c, 1, 34, 127
2, 70280, Note_off_c, 1, 37, 0
2, 70280, Note_on_c, 1, 46, 127
2, 70280, Note_off_c, 1, 49, 0
2, 70280, Note_on_c, 1, 51, 127
2, 70280, Note_on_c, 1, 58, 127
2, 70280, Note_on_c, 1, 63, 127
2, 70280, Note_off_c, 1, 80, 0
2, 70280, Note_off_c, 1, 87, 0
2, 70320, Note_off_c, 1, 34, 0
2, 70320, Note_off_c, 1, 46, 0
2, 70320, Note_off_c, 1, 51, 0
2, 70320, Note_off_c, 1, 58, 0
2, 70320, Note_off_c, 1, 63, 0
2, 70360, Note_on_c, 1, 37, 127
2, 70360, Note_on_c, 1, 49, 127
2, 70360, Note_on_c, 1, 56, 127
2, 70360, Note_on_c, 1, 66, 127
2, 70400, Note_off_c, 1, 37, 0
2, 70400, Note_off_c, 1, 49, 0
2, 70400, Note_on_c, 1, 52, 127
2, 70400, Note_on_c, 1, 60, 127
2, 70400, Note_off_c, 1, 66, 0
2, 70400, Note_on_c, 1, 75, 127
2, 70440, Note_on_c, 1, 44, 127
2, 70440, Note_on_c, 1, 47, 127
2, 70440, Note_off_c, 1, 60, 0
2, 70440, Note_off_c, 1, 75, 0
2, 70480, Note_off_c, 1, 44, 0
2, 70480, Note_off_c, 1, 47, 0
2, 70480, Note_on_c, 1, 49, 127
2, 70480, Note_off_c, 1, 52, 0
2, 70480, Note_on_c, 1, 54, 127
2, 70480, Note_off_c, 1, 56, 0
2, 70480, Note_on_c, 1, 61, 127
2, 70480, Note_on_c, 1, 66, 127
2, 70480, Note_on_c, 1, 77, 127
2, 70520, Note_on_c, 1, 42, 127
2, 70520, Note_off_c, 1, 49, 0
2, 70520, Note_off_c, 1, 54, 0
2, 70520, Note_off_c, 1, 61, 0
2, 70520, Note_off_c, 1, 66, 0
2, 70520, Note_off_c, 1, 77, 0
2, 70520, Note_on_c, 1, 85, 127
2, 70520, Note_on_c, 1, 90, 127
2, 70520, Note_on_c, 1, 94, 127
2, 70560, Note_off_c, 1, 42, 0
2, 70560, Note_on_c, 1, 44, 127
2, 70560, Note_on_c, 1, 47, 127
2, 70560, Note_on_c, 1, 52, 127
2, 70560, Note_on_c, 1, 56, 127
2, 70560, Note_off_c, 1, 85, 0
2, 70560, Note_off_c, 1, 90, 0
2, 70560, Note_off_c, 1, 94, 0
2, 70600, Note_off_c, 1, 44, 0
2, 70600, Note_off_c, 1, 47, 0
2, 70600, Note_off_c, 1, 52, 0
2, 70600, Note_off_c, 1, 56, 0
2, 70600, Note_on_c, 1, 66, 127
2, 70640, Note_on_c, 1, 56, 127
2, 70680, Note_off_c, 1, 56, 0
2, 70680, Note_off_c, 1, 66, 0
2, 70760, Note_on_c, 1, 41, 127
2, 70760, Note_on_c, 1, 53, 127
2, 70760, Note_on_c, 1, 61, 127
2, 70760, Note_on_c, 1, 65, 127
2, 70840, Note_off_c, 1, 41, 0
2, 70840, Note_on_c, 1, 49, 127
2, 70840, Note_off_c, 1, 61, 0
2, 70840, Note_off_c, 1, 65, 0
2, 70840, Note_on_c, 1, 66, 127
2, 70880, Note_off_c, 1, 49, 0
2, 70880, Note_off_c, 1, 53, 0
2, 70880, Note_off_c, 1, 66, 0
2, 70920, Note_on_c, 1, 42, 127
2, 70920, Note_on_c, 1, 54, 127
2, 70920, Note_on_c, 1, 58, 127
2, 71040, Note_off_c, 1, 42, 0
2, 71040, Note_off_c, 1, 54, 0
2, 71040, Note_off_c, 1, 58, 0
2, 71080, Note_on_c, 1, 71, 127
2, 71120, Note_off_c, 1, 71, 0
2, 71160, Note_on_c, 1, 46, 127
2, 71160, Note_on_c, 1, 58, 127
2, 71160, Note_on_c, 1, 61, 127
2, 71160, Note_on_c, 1, 70, 127
2, 71280, Note_off_c, 1, 46, 0
2, 71280, Note_off_c, 1, 58, 0
2, 71280, Note_off_c, 1, 61, 0
2, 71280, Note_off_c, 1, 70, 0
2, 71320, Note_on_c, 1, 49, 127
2, 71320, Note_on_c, 1, 54, 127
2, 71320, Note_on_c, 1, 58, 127
2, 71320, Note_on_c, 1, 66, 127
2, 71400, Note_off_c, 1, 49, 0
2, 71400, Note_off_c, 1, 54, 0
2, 71400, Note_off_c, 1, 58, 0
2, 71440, Note_on_c, 1, 64, 127
2, 71480, Note_off_c, 1, 64, 0
2, 71520, Note_on_c, 1, 42, 127
2, 71560, Note_off_c, 1, 42, 0
2, 71560, Note_off_c, 1, 66, 0
2, 71600, Note_on_c, 1, 54, 127
2, 71600, Note_on_c, 1, 66, 127
2, 71640, Note_on_c, 1, 33, 127
2, 71640, Note_on_c, 1, 45, 127
2, 71640, Note_off_c, 1, 54, 0
2, 71640, Note_on_c, 1, 60, 127
2, 71640, Note_off_c, 1, 66, 0
2, 71640, Note_on_c, 1, 67, 127
2, 71640, Note_on_c, 1, 72, 127
2, 71680, Note_off_c, 1, 33, 0
2, 71680, Note_off_c, 1, 45, 0
2, 71680, Note_on_c, 1, 47, 127
2, 71680, Note_on_c, 1, 59, 127
2, 71680, Note_off_c, 1, 60, 0
2, 71680, Note_off_c, 1, 67, 0
2, 71680, Note_off_c, 1, 72, 0
2, 71680, Note_on_c, 1, 73, 127
2, 71680, Note_on_c, 1, 78, 127
2, 71680, Note_on_c, 1, 85, 127
2, 71720, Note_off_c, 1, 47, 0
2, 71720, Note_off_c, 1, 59, 0
2, 71720, Note_off_c, 1, 73, 0
2, 71720, Note_off_c, 1, 78, 0
2, 71720, Note_off_c, 1, 85, 0
2, 71760, Note_on_c, 1, 51, 127
2, 71760, Note_on_c, 1, 83, 127
2, 71760, Note_on_c, 1, 87, 127
2, 71760, Note_on_c, 1, 90, 127
2, 71760, Note_on_c, 1, 95, 127
2, 71800, Note_off_c, 1, 51, 0
2, 71800, Note_off_c, 1, 83, 0
2, 71800, Note_off_c, 1, 87, 0
2, 71800, Note_off_c, 1, 90, 0
2, 71800, Note_off_c, 1, 95, 0
2, 71840, Note_on_c, 1, 45, 127
2, 71840, Note_on_c, 1, 51, 127
2, 71840, Note_on_c, 1, 60, 127
2, 71840, Note_on_c, 1, 65, 127
2, 71960, Note_off_c, 1, 45, 0
2, 71960, Note_off_c, 1, 51, 0
2, 71960, Note_off_c, 1, 60, 0
2, 71960, Note_off_c, 1, 65, 0
2, 72000, Note_on_c, 1, 53, 127
2, 72000, Note_on_c, 1, 58, 127
2, 72000, Note_on_c, 1, 61, 127
2, 72000, Note_on_c, 1, 66, 127
2, 72120, Note_on_c, 1, 37, 127
2, 72120, Note_on_c, 1, 41, 127
2, 72120, Note_on_c, 1, 49, 127
2, 72120, Note_off_c, 1, 53, 0
2, 72120, Note_off_c, 1, 58, 0
2, 72120, Note_off_c, 1, 61, 0
2, 72120, Note_off_c, 1, 66, 0
2, 72160, Note_off_c, 1, 37, 0
2, 72160, Note_off_c, 1, 41, 0
2, 72160, Note_off_c, 1, 49, 0
2, 72160, Note_on_c, 1, 68, 127
2, 72200, Note_on_c, 1, 41, 127
2, 72200, Note_on_c, 1, 59, 127
2, 72200, Note_on_c, 1, 60, 127
2, 72200, Note_off_c, 1, 68, 0
2, 72240, Note_off_c, 1, 41, 0
2, 72240, Note_on_c, 1, 53, 127
2, 72240, Note_off_c, 1, 60, 0
2, 72240, Note_on_c, 1, 63, 127
2, 72280, Note_off_c, 1, 59, 0
2, 72280, Note_off_c, 1, 63, 0
2, 72280, Note_on_c, 1, 65, 127
2, 72320, Note_off_c, 1, 53, 0
2, 72320, Note_off_c, 1, 65, 0
2, 72400, Note_on_c, 1, 62, 127
2, 72440, Note_off_c, 1, 62, 0
2, 72440, Note_on_c, 1, 65, 127
2, 72480, Note_on_c, 1, 63, 127
2, 72480, Note_off_c, 1, 65, 0
2, 72520, Note_on_c, 1, 62, 127
2, 72520, Note_off_c, 1, 63, 0
2, 72600, Note_off_c, 1, 62, 0
2, 72600, Note_on_c, 1, 65, 127
2, 72640, Note_off_c, 1, 65, 0
2, 72640, Note_on_c, 1, 66, 127
2, 72680, Note_on_c, 1, 53, 127
2, 72680, Note_on_c, 1, 58, 127
2, 72680, Note_on_c, 1, 62, 127
2, 72680, Note_on_c, 1, 65, 127
2, 72680, Note_off_c, 1, 66, 0
2, 72720, Note_on_c, 1, 61, 127
2, 72720, Note_off_c, 1, 62, 0
2, 72720, Note_off_c, 1, 65, 0
2, 72760, Note_off_c, 1, 53, 0
2, 72760, Note_off_c, 1, 58, 0
2, 72800, Note_off_c, 1, 61, 0
2, 72840, Note_on_c, 1, 58, 127
2, 72840, Note_on_c, 1, 61, 127
2, 72840, Note_on_c, 1, 65, 127
2, 72880, Note_off_c, 1, 61, 0
2, 72880, Note_off_c, 1, 65, 0
2, 72920, Note_off_c, 1, 58, 0
2, 73000, Note_on_c, 1, 58, 127
2, 73000, Note_on_c, 1, 65, 127
2, 73000, Note_on_c, 1, 67, 127
2, 73000, Note_on_c, 1, 73, 127
2, 73120, Note_off_c, 1, 73, 0
2, 73160, Note_on_c, 1, 57, 127
2, 73160, Note_off_c, 1, 58, 0
2, 73160, Note_on_c, 1, 64, 127
2, 73160, Note_off_c, 1, 65, 0
2, 73160, Note_on_c, 1, 72, 127
2, 73160, Note_on_c, 1, 89, 127
2, 73200, Note_off_c, 1, 57, 0
2, 73200, Note_on_c, 1, 61, 127
2, 73200, Note_off_c, 1, 64, 0
2, 73200, Note_off_c, 1, 67, 0
2, 73200, Note_off_c, 1, 72, 0
2, 73200, Note_on_c, 1, 84, 127
2, 73200, Note_on_c, 1, 87, 127
2, 73200, Note_off_c, 1, 89, 0
2, 73200, Note_on_c, 1, 91, 127
2, 73200, Note_on_c, 1, 96, 127
2, 73240, Note_on_c, 1, 38, 127
2, 73240, Note_on_c, 1, 46, 127
2, 73240, Note_on_c, 1, 60, 127
2, 73240, Note_off_c, 1, 61, 0
2, 73240, Note_on_c, 1, 64, 127
2, 73240, Note_on_c, 1, 72, 127
2, 73240, Note_off_c, 1, 84, 0
2, 73240, Note_off_c, 1, 87, 0
2, 73240, Note_off_c, 1, 91, 0
2, 73240, Note_off_c, 1, 96, 0
2, 73280, Note_off_c, 1, 38, 0
2, 73280, Note_off_c, 1, 46, 0
2, 73280, Note_on_c, 1, 58, 127
2, 73280, Note_off_c, 1, 60, 0
2, 73280, Note_off_c, 1, 64, 0
2, 73280, Note_on_c, 1, 65, 127
2, 73280, Note_on_c, 1, 67, 127
2, 73280, Note_off_c, 1, 72, 0
2, 73320, Note_on_c, 1, 60, 127
2, 73320, Note_on_c, 1, 63, 127
2, 73320, Note_off_c, 1, 65, 0
2, 73320, Note_off_c, 1, 67, 0
2, 73320, Note_on_c, 1, 72, 127
2, 73440, Note_off_c, 1, 58, 0
2, 73440, Note_off_c, 1, 60, 0
2, 73440, Note_off_c, 1, 63, 0
2, 73440, Note_off_c, 1, 72, 0
2, 73480, Note_on_c, 1, 73, 127
2, 73520, Note_on_c, 1, 70, 127
2, 73520, Note_off_c, 1, 73, 0
2, 73560, Note_on_c, 1, 46, 127
2, 73560, Note_on_c, 1, 50, 127
2, 73560, Note_on_c, 1, 58, 127
2, 73560, Note_on_c, 1, 62, 127
2, 73560, Note_on_c, 1, 65, 127
2, 73640, Note_off_c, 1, 50, 0
2, 73640, Note_on_c, 1, 53, 127
2, 73720, Note_off_c, 1, 46, 0
2, 73720, Note_off_c, 1, 53, 0
2, 73720, Note_off_c, 1, 58, 0
2, 73720, Note_off_c, 1, 62, 0
2, 73720, Note_off_c, 1, 65, 0
2, 73720, Note_off_c, 1, 70, 0
2, 73760, Note_on_c, 1, 46, 127
2, 73760, Note_on_c, 1, 53, 127
2, 73760, Note_on_c, 1, 58, 127
2, 73760, Note_on_c, 1, 62, 127
2, 73760, Note_on_c, 1, 65, 127
2, 73760, Note_on_c, 1, 70, 127
2, 73960, Note_off_c, 1, 46, 0
2, 73960, Note_off_c, 1, 53, 0
2, 73960, Note_off_c, 1, 58, 0
2, 73960, Note_off_c, 1, 62, 0
2, 73960, Note_off_c, 1, 65, 0
2, 73960, Note_off_c, 1, 70, 0
2, 74000, Note_on_c, 1, 43, 127
2, 74000, Note_on_c, 1, 52, 127
2, 74000, Note_on_c, 1, 73, 127
2, 74000, Note_on_c, 1, 76, 127
2, 74000, Note_on_c, 1, 85, 127
2, 74160, Note_off_c, 1, 52, 0
2, 74160, Note_off_c, 1, 73, 0
2, 74160, Note_off_c, 1, 76, 0
2, 74160, Note_off_c, 1, 85, 0
2, 74200, Note_off_c, 1, 43, 0
2, 74200, Note_on_c, 1, 50, 127
2, 74200, Note_on_c, 1, 55, 127
2, 74200, Note_on_c, 1, 62, 127
2, 74200, Note_on_c, 1, 71, 127
2, 74200, Note_on_c, 1, 79, 127
2, 74240, Note_off_c, 1, 50, 0
2, 74240, Note_off_c, 1, 55, 0
2, 74240, Note_off_c, 1, 62, 0
2, 74240, Note_off_c, 1, 71, 0
2, 74240, Note_off_c, 1, 79, 0
2, 74280, Note_on_c, 1, 50, 127
2, 74280, Note_on_c, 1, 55, 127
2, 74280, Note_on_c, 1, 62, 127
2, 74280, Note_on_c, 1, 71, 127
2, 74280, Note_on_c, 1, 79, 127
2, 74400, Note_off_c, 1, 50, 0
2, 74400, Note_off_c, 1, 55, 0
2, 74400, Note_off_c, 1, 62, 0
2, 74400, Note_off_c, 1, 71, 0
2, 74400, Note_off_c, 1, 79, 0
2, 74440, Note_on_c, 1, 61, 127
2, 74440, Note_on_c, 1, 67, 127
2, 74440, Note_on_c, 1, 69, 127
2, 74440, Note_on_c, 1, 73, 127
2, 74440, Note_on_c, 1, 78, 127
2, 74440, Note_on_c, 1, 81, 127
2, 74480, Note_on_c, 1, 26, 127
2, 74480, Note_on_c, 1, 38, 127
2, 74480, Note_on_c, 1, 57, 127
2, 74480, Note_off_c, 1, 61, 0
2, 74480, Note_on_c, 1, 62, 127
2, 74480, Note_off_c, 1, 67, 0
2, 74480, Note_off_c, 1, 69, 0
2, 74480, Note_off_c, 1, 73, 0
2, 74480, Note_off_c, 1, 78, 0
2, 74480, Note_off_c, 1, 81, 0
2, 74600, Note_off_c, 1, 26, 0
2, 74600, Note_off_c, 1, 38, 0
2, 74600, Note_on_c, 1, 43, 127
2, 74600, Note_on_c, 1, 50, 127
2, 74600, Note_on_c, 1, 55, 127
2, 74600, Note_off_c, 1, 57, 0
2, 74600, Note_on_c, 1, 59, 127
2, 74600, Note_off_c, 1, 62, 0
2, 74600, Note_on_c, 1, 95, 127
2, 74640, Note_off_c, 1, 43, 0
2, 74640, Note_off_c, 1, 50, 0
2, 74640, Note_off_c, 1, 55, 0
2, 74640, Note_on_c, 1, 58, 127
2, 74640, Note_off_c, 1, 59, 0
2, 74640, Note_on_c, 1, 64, 127
2, 74640, Note_on_c, 1, 66, 127
2, 74640, Note_on_c, 1, 83, 127
2, 74640, Note_off_c, 1, 95, 0
2, 74680, Note_off_c, 1, 58, 0
2, 74680, Note_off_c, 1, 64, 0
2, 74680, Note_off_c, 1, 66, 0
2, 74680, Note_off_c, 1, 83, 0
2, 74720, Note_on_c, 1, 55, 127
2, 74720, Note_on_c, 1, 58, 127
2, 74720, Note_on_c, 1, 62, 127
2, 74720, Note_on_c, 1, 67, 127
2, 74720, Note_on_c, 1, 70, 127
2, 74920, Note_on_c, 1, 28, 127
2, 74920, Note_on_c, 1, 39, 127
2, 74920, Note_on_c, 1, 40, 127
2, 74920, Note_on_c, 1, 47, 127
2, 74920, Note_on_c, 1, 51, 127
2, 74920, Note_on_c, 1, 52, 127
2, 74920, Note_off_c, 1, 55, 0
2, 74920, Note_off_c, 1, 58, 0
2, 74920, Note_on_c, 1, 59, 127
2, 74920, Note_off_c, 1, 62, 0
2, 74920, Note_off_c, 1, 67, 0
2, 74920, Note_on_c, 1, 68, 127
2, 74920, Note_off_c, 1, 70, 0
2, 74920, Note_on_c, 1, 71, 127
2, 74960, Note_off_c, 1, 28, 0
2, 74960, Note_off_c, 1, 39, 0
2, 74960, Note_off_c, 1, 40, 0
2, 74960, Note_off_c, 1, 47, 0
2, 74960, Note_on_c, 1, 50, 127
2, 74960, Note_off_c, 1, 51, 0
2, 74960, Note_off_c, 1, 52, 0
2, 74960, Note_off_c, 1, 59, 0
2, 74960, Note_on_c, 1, 60, 127
2, 74960, Note_on_c, 1, 62, 127
2, 74960, Note_on_c, 1, 64, 127
2, 74960, Note_off_c, 1, 68, 0
2, 74960, Note_on_c, 1, 69, 127
2, 74960, Note_off_c, 1, 71, 0
2, 75000, Note_off_c, 1, 50, 0
2, 75000, Note_off_c, 1, 60, 0
2, 75000, Note_off_c, 1, 62, 0
2, 75000, Note_on_c, 1, 67, 127
2, 75000, Note_off_c, 1, 69, 0
2, 75000, Note_on_c, 1, 73, 127
2, 75000, Note_on_c, 1, 82, 127
2, 75000, Note_on_c, 1, 85, 127
2, 75000, Note_on_c, 1, 94, 127
2, 75040, Note_on_c, 1, 34, 127
2, 75040, Note_on_c, 1, 46, 127
2, 75040, Note_off_c, 1, 64, 0
2, 75040, Note_on_c, 1, 65, 127
2, 75040, Note_off_c, 1, 67, 0
2, 75040, Note_on_c, 1, 72, 127
2, 75040, Note_off_c, 1, 73, 0
2, 75040, Note_on_c, 1, 75, 127
2, 75040, Note_on_c, 1, 77, 127
2, 75040, Note_off_c, 1, 82, 0
2, 75040, Note_off_c, 1, 85, 0
2, 75040, Note_off_c, 1, 94, 0
2, 75080, Note_off_c, 1, 34, 0
2, 75080, Note_off_c, 1, 46, 0
2, 75080, Note_on_c, 1, 55, 127
2, 75080, Note_on_c, 1, 62, 127
2, 75080, Note_off_c, 1, 65, 0
2, 75080, Note_on_c, 1, 71, 127
2, 75080, Note_off_c, 1, 72, 0
2, 75080, Note_off_c, 1, 75, 0
2, 75080, Note_off_c, 1, 77, 0
2, 75080, Note_on_c, 1, 79, 127
2, 75120, Note_off_c, 1, 55, 0
2, 75120, Note_on_c, 1, 60, 127
2, 75120, Note_off_c, 1, 62, 0
2, 75120, Note_on_c, 1, 64, 127
2, 75120, Note_on_c, 1, 69, 127
2, 75120, Note_off_c, 1, 71, 0
2, 75120, Note_off_c, 1, 79, 0
2, 75120, Note_on_c, 1, 84, 127
2, 75240, Note_off_c, 1, 84, 0
2, 75280, Note_off_c, 1, 60, 0
2, 75280, Note_off_c, 1, 64, 0
2, 75280, Note_on_c, 1, 65, 127
2, 75280, Note_off_c, 1, 69, 0
2, 75320, Note_on_c, 1, 69, 127
2, 75320, Note_on_c, 1, 72, 127
2, 75440, Note_off_c, 1, 65, 0
2, 75440, Note_off_c, 1, 69, 0
2, 75440, Note_off_c, 1, 72, 0
2, 75480, Note_on_c, 1, 60, 127
2, 75480, Note_on_c, 1, 63, 127
2, 75480, Note_on_c, 1, 68, 127
2, 75480, Note_on_c, 1, 70, 127
2, 75520, Note_off_c, 1, 60, 0
2, 75520, Note_off_c, 1, 63, 0
2, 75520, Note_off_c, 1, 68, 0
2, 75560, Note_on_c, 1, 48, 127
2, 75560, Note_on_c, 1, 65, 127
2, 75560, Note_on_c, 1, 69, 127
2, 75560, Note_off_c, 1, 70, 0
2, 75560, Note_on_c, 1, 72, 127
2, 75600, Note_on_c, 1, 33, 127
2, 75600, Note_on_c, 1, 45, 127
2, 75600, Note_off_c, 1, 48, 0
2, 75600, Note_off_c, 1, 65, 0
2, 75600, Note_off_c, 1, 72, 0
2, 75640, Note_off_c, 1, 33, 0
2, 75640, Note_on_c, 1, 43, 127
2, 75640, Note_off_c, 1, 45, 0
2, 75640, Note_on_c, 1, 50, 127
2, 75640, Note_off_c, 1, 69, 0
2, 75640, Note_on_c, 1, 71, 127
2, 75640, Note_on_c, 1, 77, 127
2, 75640, Note_on_c, 1, 81, 127
2, 75680, Note_off_c, 1, 43, 0
2, 75680, Note_off_c, 1, 50, 0
2, 75680, Note_on_c, 1, 55, 127
2, 75680, Note_on_c, 1, 64, 127
2, 75680, Note_on_c, 1, 70, 127
2, 75680, Note_off_c, 1, 71, 0
2, 75680, Note_off_c, 1, 77, 0
2, 75680, Note_on_c, 1, 79, 127
2, 75680, Note_off_c, 1, 81, 0
2, 75720, Note_on_c, 1, 43, 127
2, 75720, Note_on_c, 1, 50, 127
2, 75720, Note_off_c, 1, 55, 0
2, 75720, Note_on_c, 1, 59, 127
2, 75720, Note_off_c, 1, 64, 0
2, 75720, Note_on_c, 1, 65, 127
2, 75720, Note_off_c, 1, 70, 0
2, 75720, Note_off_c, 1, 79, 0
2, 75760, Note_off_c, 1, 43, 0
2, 75760, Note_off_c, 1, 50, 0
2, 75760, Note_off_c, 1, 59, 0
2, 75760, Note_off_c, 1, 65, 0
2, 75760, Note_on_c, 1, 76, 127
2, 75800, Note_on_c, 1, 31, 127
2, 75800, Note_on_c, 1, 35, 127
2, 75800, Note_on_c, 1, 40, 127
2, 75800, Note_on_c, 1, 52, 127
2, 75800, Note_off_c, 1, 76, 0
2, 75960, Note_off_c, 1, 31, 0
2, 75960, Note_off_c, 1, 35, 0
2, 75960, Note_off_c, 1, 40, 0
2, 75960, Note_off_c, 1, 52, 0
2, 76000, Note_on_c, 1, 55, 127
2, 76000, Note_on_c, 1, 65, 127
2, 76040, Note_on_c, 1, 34, 127
2, 76040, Note_on_c, 1, 58, 127
2, 76040, Note_off_c, 1, 65, 0
2, 76080, Note_off_c, 1, 34, 0
2, 76080, Note_on_c, 1, 48, 127
2, 76080, Note_off_c, 1, 55, 0
2, 76080, Note_off_c, 1, 58, 0
2, 76080, Note_on_c, 1, 62, 127
2, 76080, Note_on_c, 1, 65, 127
2, 76080, Note_on_c, 1, 74, 127
2, 76120, Note_off_c, 1, 48, 0
2, 76120, Note_on_c, 1, 58, 127
2, 76120, Note_off_c, 1, 62, 0
2, 76120, Note_on_c, 1, 64, 127
2, 76120, Note_off_c, 1, 65, 0
2, 76120, Note_on_c, 1, 72, 127
2, 76120, Note_off_c, 1, 74, 0
2, 76120, Note_on_c, 1, 81, 127
2, 76160, Note_on_c, 1, 46, 127
2, 76160, Note_on_c, 1, 50, 127
2, 76160, Note_on_c, 1, 55, 127
2, 76160, Note_off_c, 1, 58, 0
2, 76160, Note_off_c, 1, 64, 0
2, 76160, Note_on_c, 1, 70, 127
2, 76160, Note_off_c, 1, 72, 0
2, 76160, Note_off_c, 1, 81, 0
2, 76200, Note_off_c, 1, 46, 0
2, 76200, Note_on_c, 1, 47, 127
2, 76200, Note_off_c, 1, 50, 0
2, 76200, Note_off_c, 1, 55, 0
2, 76200, Note_on_c, 1, 56, 127
2, 76200, Note_on_c, 1, 59, 127
2, 76200, Note_on_c, 1, 66, 127
2, 76200, Note_off_c, 1, 70, 0
2, 76200, Note_on_c, 1, 71, 127
2, 76200, Note_on_c, 1, 78, 127
2, 76240, Note_on_c, 1, 36, 127
2, 76240, Note_off_c, 1, 47, 0
2, 76240, Note_on_c, 1, 48, 127
2, 76240, Note_off_c, 1, 56, 0
2, 76240, Note_off_c, 1, 59, 0
2, 76240, Note_off_c, 1, 66, 0
2, 76240, Note_off_c, 1, 71, 0
2, 76240, Note_off_c, 1, 78, 0
2, 76240, Note_on_c, 1, 84, 127
2, 76240, Note_on_c, 1, 87, 127
2, 76240, Note_on_c, 1, 92, 127
2, 76240, Note_on_c, 1, 96, 127
2, 76280, Note_off_c, 1, 36, 0
2, 76280, Note_on_c, 1, 43, 127
2, 76280, Note_off_c, 1, 48, 0
2, 76280, Note_on_c, 1, 50, 127
2, 76280, Note_on_c, 1, 58, 127
2, 76280, Note_on_c, 1, 82, 127
2, 76280, Note_off_c, 1, 84, 0
2, 76280, Note_on_c, 1, 86, 127
2, 76280, Note_off_c, 1, 87, 0
2, 76280, Note_off_c, 1, 92, 0
2, 76280, Note_off_c, 1, 96, 0
2, 76320, Note_on_c, 1, 40, 127
2, 76320, Note_off_c, 1, 43, 0
2, 76320, Note_on_c, 1, 48, 127
2, 76320, Note_off_c, 1, 50, 0
2, 76320, Note_off_c, 1, 58, 0
2, 76320, Note_on_c, 1, 68, 127
2, 76320, Note_on_c, 1, 72, 127
2, 76320, Note_off_c, 1, 82, 0
2, 76320, Note_off_c, 1, 86, 0
2, 76360, Note_off_c, 1, 40, 0
2, 76360, Note_off_c, 1, 48, 0
2, 76360, Note_on_c, 1, 57, 127
2, 76360, Note_on_c, 1, 59, 127
2, 76360, Note_off_c, 1, 68, 0
2, 76360, Note_on_c, 1, 71, 127
2, 76360, Note_off_c, 1, 72, 0
2, 76360, Note_on_c, 1, 75, 127
2, 76360, Note_on_c, 1, 81, 127
2, 76360, Note_on_c, 1, 83, 127
2, 76400, Note_on_c, 1, 54, 127
2, 76400, Note_off_c, 1, 57, 0
2, 76400, Note_off_c, 1, 59, 0
2, 76400, Note_on_c, 1, 60, 127
2, 76400, Note_off_c, 1, 71, 0
2, 76400, Note_off_c, 1, 75, 0
2, 76400, Note_off_c, 1, 81, 0
2, 76400, Note_on_c, 1, 82, 127
2, 76400, Note_off_c, 1, 83, 0
2, 76400, Note_on_c, 1, 87, 127
2, 76400, Note_on_c, 1, 94, 127
2, 76440, Note_off_c, 1, 54, 0
2, 76440, Note_off_c, 1, 60, 0
2, 76440, Note_on_c, 1, 72, 127
2, 76440, Note_off_c, 1, 82, 0
2, 76440, Note_on_c, 1, 84, 127
2, 76440, Note_off_c, 1, 87, 0
2, 76440, Note_on_c, 1, 89, 127
2, 76440, Note_on_c, 1, 93, 127
2, 76440, Note_off_c, 1, 94, 0
2, 76440, Note_on_c, 1, 96, 127
2, 76480, Note_off_c, 1, 72, 0
2, 76480, Note_on_c, 1, 81, 127
2, 76480, Note_off_c, 1, 84, 0
2, 76480, Note_on_c, 1, 85, 127
2, 76480, Note_off_c, 1, 89, 0
2, 76480, Note_on_c, 1, 91, 127
2, 76480, Note_off_c, 1, 96, 0
2, 76480, Note_on_c, 1, 100, 127
2, 76520, Note_on_c, 1, 58, 127
2, 76520, Note_on_c, 1, 65, 127
2, 76520, Note_on_c, 1, 70, 127
2, 76520, Note_on_c, 1, 72, 127
2, 76520, Note_off_c, 1, 81, 0
2, 76520, Note_off_c, 1, 85, 0
2, 76520, Note_off_c, 1, 91, 0
2, 76520, Note_off_c, 1, 93, 0
2, 76520, Note_off_c, 1, 100, 0
2, 76560, Note_on_c, 1, 46, 127
2, 76560, Note_on_c, 1, 48, 127
2, 76560, Note_on_c, 1, 51, 127
2, 76560, Note_on_c, 1, 53, 127
2, 76560, Note_off_c, 1, 58, 0
2, 76560, Note_off_c, 1, 65, 0
2, 76560, Note_off_c, 1, 70, 0
2, 76560, Note_off_c, 1, 72, 0
2, 76560, Note_on_c, 1, 75, 127
2, 76600, Note_off_c, 1, 46, 0
2, 76600, Note_off_c, 1, 48, 0
2, 76600, Note_on_c, 1, 50, 127
2, 76600, Note_off_c, 1, 51, 0
2, 76600, Note_off_c, 1, 53, 0
2, 76600, Note_on_c, 1, 54, 127
2, 76600, Note_on_c, 1, 57, 127
2, 76600, Note_on_c, 1, 74, 127
2, 76600, Note_off_c, 1, 75, 0
2, 76600, Note_on_c, 1, 78, 127
2, 76640, Note_on_c, 1, 42, 127
2, 76640, Note_off_c, 1, 54, 0
2, 76640, Note_off_c, 1, 57, 0
2, 76640, Note_off_c, 1, 74, 0
2, 76640, Note_off_c, 1, 78, 0
2, 76640, Note_on_c, 1, 81, 127
2, 76680, Note_off_c, 1, 42, 0
2, 76680, Note_off_c, 1, 50, 0
2, 76680, Note_on_c, 1, 93, 127
2, 76680, Note_on_c, 1, 97, 127
2, 76680, Note_on_c, 1, 99, 127
2, 76720, Note_on_c, 1, 36, 127
2, 76720, Note_on_c, 1, 64, 127
2, 76720, Note_off_c, 1, 81, 0
2, 76720, Note_off_c, 1, 93, 0
2, 76720, Note_off_c, 1, 97, 0
2, 76720, Note_off_c, 1, 99, 0
2, 76760, Note_off_c, 1, 36, 0
2, 76760, Note_off_c, 1, 64, 0
2, 76760, Note_on_c, 1, 65, 127
2, 76760, Note_on_c, 1, 67, 127
2, 76760, Note_on_c, 1, 70, 127
2, 76760, Note_on_c, 1, 74, 127
2, 76840, Note_off_c, 1, 65, 0
2, 76840, Note_off_c, 1, 67, 0
2, 76840, Note_on_c, 1, 69, 127
2, 76840, Note_off_c, 1, 70, 0
2, 76840, Note_on_c, 1, 72, 127
2, 76840, Note_off_c, 1, 74, 0
2, 76880, Note_off_c, 1, 69, 0
2, 76880, Note_off_c, 1, 72, 0
2, 76960, Note_on_c, 1, 60, 127
2, 76960, Note_on_c, 1, 63, 127
2, 76960, Note_on_c, 1, 66, 127
2, 76960, Note_on_c, 1, 69, 127
2, 77000, Note_on_c, 1, 55, 127
2, 77000, Note_on_c, 1, 58, 127
2, 77000, Note_off_c, 1, 60, 0
2, 77000, Note_off_c, 1, 63, 0
2, 77000, Note_on_c, 1, 64, 127
2, 77000, Note_off_c, 1, 66, 0
2, 77000, Note_off_c, 1, 69, 0
2, 77000, Note_on_c, 1, 72, 127
2, 77040, Note_on_c, 1, 38, 127
2, 77040, Note_on_c, 1, 50, 127
2, 77040, Note_off_c, 1, 55, 0
2, 77040, Note_off_c, 1, 58, 0
2, 77040, Note_off_c, 1, 64, 0
2, 77040, Note_off_c, 1, 72, 0
2, 77040, Note_on_c, 1, 73, 127
2, 77040, Note_on_c, 1, 79, 127
2, 77040, Note_on_c, 1, 81, 127
2, 77080, Note_off_c, 1, 38, 0
2, 77080, Note_off_c, 1, 50, 0
2, 77080, Note_on_c, 1, 58, 127
2, 77080, Note_on_c, 1, 68, 127
2, 77080, Note_off_c, 1, 73, 0
2, 77080, Note_on_c, 1, 74, 127
2, 77080, Note_off_c, 1, 79, 0
2, 77080, Note_on_c, 1, 80, 127
2, 77080, Note_off_c, 1, 81, 0
2, 77080, Note_on_c, 1, 91, 127
2, 77120, Note_off_c, 1, 58, 0
2, 77120, Note_on_c, 1, 66, 127
2, 77120, Note_on_c, 1, 67, 127
2, 77120, Note_off_c, 1, 68, 0
2, 77120, Note_off_c, 1, 74, 0
2, 77120, Note_off_c, 1, 80, 0
2, 77120, Note_on_c, 1, 85, 127
2, 77120, Note_on_c, 1, 90, 127
2, 77120, Note_off_c, 1, 91, 0
2, 77160, Note_on_c, 1, 55, 127
2, 77160, Note_on_c, 1, 58, 127
2, 77160, Note_on_c, 1, 63, 127
2, 77160, Note_off_c, 1, 66, 0
2, 77160, Note_on_c, 1, 75, 127
2, 77160, Note_on_c, 1, 79, 127
2, 77160, Note_on_c, 1, 81, 127
2, 77160, Note_off_c, 1, 85, 0
2, 77160, Note_off_c, 1, 90, 0
2, 77200, Note_on_c, 1, 51, 127
2, 77200, Note_off_c, 1, 55, 0
2, 77200, Note_off_c, 1, 75, 0
2, 77200, Note_off_c, 1, 81, 0
2, 77240, Note_on_c, 1, 43, 127
2, 77240, Note_off_c, 1, 58, 0
2, 77240, Note_on_c, 1, 59, 127
2, 77240, Note_off_c, 1, 63, 0
2, 77280, Note_off_c, 1, 51, 0
2, 77280, Note_on_c, 1, 55, 127
2, 77280, Note_off_c, 1, 59, 0
2, 77280, Note_off_c, 1, 67, 0
2, 77280, Note_on_c, 1, 69, 127
2, 77280, Note_on_c, 1, 77, 127
2, 77280, Note_off_c, 1, 79, 0
2, 77280, Note_on_c, 1, 81, 127
2, 77320, Note_on_c, 1, 46, 127
2, 77320, Note_on_c, 1, 52, 127
2, 77320, Note_off_c, 1, 55, 0
2, 77320, Note_on_c, 1, 64, 127
2, 77320, Note_off_c, 1, 69, 0
2, 77320, Note_off_c, 1, 77, 0
2, 77320, Note_off_c, 1, 81, 0
2, 77360, Note_off_c, 1, 43, 0
2, 77360, Note_off_c, 1, 46, 0
2, 77360, Note_on_c, 1, 50, 127
2, 77360, Note_off_c, 1, 52, 0
2, 77360, Note_on_c, 1, 56, 127
2, 77360, Note_on_c, 1, 59, 127
2, 77360, Note_off_c, 1, 64, 0
2, 77360, Note_on_c, 1, 65, 127
2, 77360, Note_on_c, 1, 75, 127
2, 77360, Note_on_c, 1, 87, 127
2, 77400, Note_on_c, 1, 42, 127
2, 77400, Note_off_c, 1, 50, 0
2, 77400, Note_on_c, 1, 54, 127
2, 77400, Note_off_c, 1, 56, 0
2, 77400, Note_off_c, 1, 59, 0
2, 77400, Note_off_c, 1, 65, 0
2, 77400, Note_on_c, 1, 72, 127
2, 77400, Note_off_c, 1, 87, 0
2, 77440, Note_on_c, 1, 41, 127
2, 77440, Note_off_c, 1, 42, 0
2, 77440, Note_off_c, 1, 54, 0
2, 77440, Note_on_c, 1, 62, 127
2, 77440, Note_on_c, 1, 68, 127
2, 77440, Note_off_c, 1, 72, 0
2, 77440, Note_off_c, 1, 75, 0
2, 77480, Note_on_c, 1, 34, 127
2, 77480, Note_off_c, 1, 41, 0
2, 77480, Note_on_c, 1, 43, 127
2, 77480, Note_off_c, 1, 62, 0
2, 77480, Note_off_c, 1, 68, 0
2, 77480, Note_on_c, 1, 74, 127
2, 77520, Note_off_c, 1, 34, 0
2, 77520, Note_off_c, 1, 43, 0
2, 77520, Note_on_c, 1, 65, 127
2, 77520, Note_on_c, 1, 67, 127
2, 77520, Note_on_c, 1, 72, 127
2, 77520, Note_off_c, 1, 74, 0
2, 77560, Note_on_c, 1, 29, 127
2, 77560, Note_on_c, 1, 41, 127
2, 77560, Note_off_c, 1, 67, 0
2, 77560, Note_on_c, 1, 69, 127
2, 77560, Note_off_c, 1, 72, 0
2, 77560, Note_on_c, 1, 74, 127
2, 77560, Note_on_c, 1, 77, 127
2, 77600, Note_off_c, 1, 29, 0
2, 77600, Note_off_c, 1, 41, 0
2, 77600, Note_on_c, 1, 53, 127
2, 77600, Note_on_c, 1, 56, 127
2, 77600, Note_on_c, 1, 58, 127
2, 77600, Note_on_c, 1, 62, 127
2, 77600, Note_off_c, 1, 65, 0
2, 77600, Note_on_c, 1, 68, 127
2, 77600, Note_off_c, 1, 69, 0
2, 77600, Note_off_c, 1, 77, 0
2, 77640, Note_off_c, 1, 56, 0
2, 77640, Note_off_c, 1, 58, 0
2, 77640, Note_off_c, 1, 62, 0
2, 77640, Note_on_c, 1, 65, 127
2, 77640, Note_off_c, 1, 68, 0
2, 77640, Note_on_c, 1, 72, 127
2, 77640, Note_on_c, 1, 81, 127
2, 77640, Note_on_c, 1, 84, 127
2, 77680, Note_off_c, 1, 53, 0
2, 77680, Note_on_c, 1, 69, 127
2, 77680, Note_off_c, 1, 74, 0
2, 77680, Note_off_c, 1, 81, 0
2, 77680, Note_off_c, 1, 84, 0
2, 77680, Note_on_c, 1, 94, 127
2, 77720, Note_on_c, 1, 64, 127
2, 77720, Note_off_c, 1, 65, 0
2, 77720, Note_on_c, 1, 67, 127
2, 77720, Note_off_c, 1, 69, 0
2, 77720, Note_off_c, 1, 72, 0
2, 77720, Note_off_c, 1, 94, 0
2, 77760, Note_on_c, 1, 45, 127
2, 77760, Note_on_c, 1, 52, 127
2, 77760, Note_on_c, 1, 58, 127
2, 77760, Note_on_c, 1, 62, 127
2, 77760, Note_off_c, 1, 64, 0
2, 77760, Note_off_c, 1, 67, 0
2, 77760, Note_on_c, 1, 70, 127
2, 77960, Note_off_c, 1, 45, 0
2, 77960, Note_off_c, 1, 52, 0
2, 77960, Note_off_c, 1, 58, 0
2, 77960, Note_off_c, 1, 62, 0
2, 77960, Note_off_c, 1, 70, 0
2, 78000, Note_on_c, 1, 45, 127
2, 78000, Note_on_c, 1, 52, 127
2, 78000, Note_on_c, 1, 58, 127
2, 78000, Note_on_c, 1, 62, 127
2, 78000, Note_on_c, 1, 70, 127
2, 78120, Note_on_c, 1, 34, 127
2, 78120, Note_off_c, 1, 45, 0
2, 78120, Note_on_c, 1, 46, 127
2, 78120, Note_off_c, 1, 52, 0
2, 78120, Note_off_c, 1, 62, 0
2, 78120, Note_off_c, 1, 70, 0
2, 78160, Note_off_c, 1, 34, 0
2, 78160, Note_on_c, 1, 56, 127
2, 78160, Note_off_c, 1, 58, 0
2, 78160, Note_on_c, 1, 62, 127
2, 78160, Note_on_c, 1, 67, 127
2, 78160, Note_on_c, 1, 70, 127
2, 78400, Note_off_c, 1, 46, 0
2, 78400, Note_off_c, 1, 56, 0
2, 78400, Note_off_c, 1, 62, 0
2, 78400, Note_off_c, 1, 67, 0
2, 78400, Note_off_c, 1, 70, 0
2, 78440, Note_on_c, 1, 64, 127
2, 78440, Note_on_c, 1, 71, 127
2, 78440, Note_on_c, 1, 83, 127
2, 78440, Note_on_c, 1, 90, 127
2, 78480, Note_on_c, 1, 58, 127
2, 78480, Note_off_c, 1, 64, 0
2, 78480, Note_on_c, 1, 65, 127
2, 78480, Note_on_c, 1, 67, 127
2, 78480, Note_off_c, 1, 71, 0
2, 78480, Note_on_c, 1, 73, 127
2, 78480, Note_off_c, 1, 83, 0
2, 78480, Note_off_c, 1, 90, 0
2, 78520, Note_on_c, 1, 57, 127
2, 78520, Note_off_c, 1, 58, 0
2, 78520, Note_off_c, 1, 65, 0
2, 78520, Note_off_c, 1, 67, 0
2, 78520, Note_on_c, 1, 68, 127
2, 78520, Note_off_c, 1, 73, 0
2, 78520, Note_on_c, 1, 74, 127
2, 78520, Note_on_c, 1, 85, 127
2, 78560, Note_on_c, 1, 51, 127
2, 78560, Note_on_c, 1, 54, 127
2, 78560, Note_on_c, 1, 59, 127
2, 78560, Note_off_c, 1, 68, 0
2, 78560, Note_off_c, 1, 74, 0
2, 78600, Note_on_c, 1, 49, 127
2, 78600, Note_off_c, 1, 51, 0
2, 78600, Note_on_c, 1, 53, 127
2, 78600, Note_off_c, 1, 54, 0
2, 78600, Note_off_c, 1, 57, 0
2, 78600, Note_on_c, 1, 68, 127
2, 78600, Note_on_c, 1, 73, 127
2, 78600, Note_off_c, 1, 85, 0
2, 78640, Note_off_c, 1, 49, 0
2, 78640, Note_off_c, 1, 53, 0
2, 78640, Note_on_c, 1, 54, 127
2, 78640, Note_on_c, 1, 58, 127
2, 78640, Note_off_c, 1, 59, 0
2, 78640, Note_on_c, 1, 66, 127
2, 78640, Note_off_c, 1, 68, 0
2, 78640, Note_on_c, 1, 70, 127
2, 78640, Note_off_c, 1, 73, 0
2, 78640, Note_on_c, 1, 74, 127
2, 78640, Note_on_c, 1, 82, 127
2, 78680, Note_off_c, 1, 54, 0
2, 78680, Note_on_c, 1, 62, 127
2, 78680, Note_on_c, 1, 65, 127
2, 78680, Note_off_c, 1, 66, 0
2, 78680, Note_off_c, 1, 74, 0
2, 78680, Note_on_c, 1, 80, 127
2, 78680, Note_off_c, 1, 82, 0
2, 78680, Note_on_c, 1, 92, 127
2, 78720, Note_on_c, 1, 36, 127
2, 78720, Note_on_c, 1, 61, 127
2, 78720, Note_off_c, 1, 62, 0
2, 78720, Note_on_c, 1, 64, 127
2, 78720, Note_off_c, 1, 65, 0
2, 78720, Note_on_c, 1, 67, 127
2, 78720, Note_off_c, 1, 70, 0
2, 78720, Note_off_c, 1, 80, 0
2, 78720, Note_off_c, 1, 92, 0
2, 78760, Note_off_c, 1, 36, 0
2, 78760, Note_off_c, 1, 58, 0
2, 78760, Note_off_c, 1, 61, 0
2, 78760, Note_off_c, 1, 64, 0
2, 78760, Note_off_c, 1, 67, 0
2, 78760, Note_on_c, 1, 81, 127
2, 78760, Note_on_c, 1, 82, 127
2, 78760, Note_on_c, 1, 93, 127
2, 78760, Note_on_c, 1, 94, 127
2, 78800, Note_on_c, 1, 46, 127
2, 78800, Note_on_c, 1, 51, 127
2, 78800, Note_on_c, 1, 61, 127
2, 78800, Note_on_c, 1, 74, 127
2, 78800, Note_on_c, 1, 79, 127
2, 78800, Note_off_c, 1, 81, 0
2, 78800, Note_off_c, 1, 82, 0
2, 78800, Note_on_c, 1, 86, 127
2, 78800, Note_off_c, 1, 93, 0
2, 78800, Note_off_c, 1, 94, 0
2, 78840, Note_on_c, 1, 34, 127
2, 78840, Note_off_c, 1, 46, 0
2, 78840, Note_off_c, 1, 51, 0
2, 78840, Note_off_c, 1, 61, 0
2, 78840, Note_on_c, 1, 65, 127
2, 78840, Note_on_c, 1, 73, 127
2, 78840, Note_off_c, 1, 74, 0
2, 78840, Note_off_c, 1, 79, 0
2, 78840, Note_off_c, 1, 86, 0
2, 78880, Note_off_c, 1, 34, 0
2, 78880, Note_off_c, 1, 65, 0
2, 78880, Note_off_c, 1, 73, 0
2, 78880, Note_on_c, 1, 78, 127
2, 78880, Note_on_c, 1, 86, 127
2, 78880, Note_on_c, 1, 93, 127
2, 78880, Note_on_c, 1, 98, 127
2, 78920, Note_on_c, 1, 51, 127
2, 78920, Note_on_c, 1, 63, 127
2, 78920, Note_off_c, 1, 78, 0
2, 78920, Note_off_c, 1, 86, 0
2, 78920, Note_on_c, 1, 91, 127
2, 78920, Note_off_c, 1, 93, 0
2, 78920, Note_on_c, 1, 95, 127
2, 78920, Note_on_c, 1, 103, 127
2, 78960, Note_on_c, 1, 46, 127
2, 78960, Note_on_c, 1, 61, 127
2, 78960, Note_off_c, 1, 63, 0
2, 78960, Note_on_c, 1, 74, 127
2, 78960, Note_on_c, 1, 79, 127
2, 78960, Note_on_c, 1, 86, 127
2, 78960, Note_off_c, 1, 91, 0
2, 78960, Note_off_c, 1, 95, 0
2, 78960, Note_off_c, 1, 98, 0
2, 78960, Note_off_c, 1, 103, 0
2, 79000, Note_on_c, 1, 36, 127
2, 79000, Note_on_c, 1, 39, 127
2, 79000, Note_on_c, 1, 44, 127
2, 79000, Note_off_c, 1, 46, 0
2, 79000, Note_on_c, 1, 48, 127
2, 79000, Note_off_c, 1, 51, 0
2, 79000, Note_off_c, 1, 61, 0
2, 79000, Note_off_c, 1, 74, 0
2, 79000, Note_on_c, 1, 75, 127
2, 79000, Note_off_c, 1, 79, 0
2, 79000, Note_off_c, 1, 86, 0
2, 79040, Note_off_c, 1, 36, 0
2, 79040, Note_off_c, 1, 39, 0
2, 79040, Note_off_c, 1, 44, 0
2, 79040, Note_off_c, 1, 48, 0
2, 79040, Note_on_c, 1, 65, 127
2, 79040, Note_on_c, 1, 68, 127
2, 79040, Note_off_c, 1, 75, 0
2, 79040, Note_on_c, 1, 89, 127
2, 79040, Note_on_c, 1, 97, 127
2, 79080, Note_off_c, 1, 65, 0
2, 79080, Note_off_c, 1, 68, 0
2, 79080, Note_on_c, 1, 74, 127
2, 79080, Note_on_c, 1, 77, 127
2, 79080, Note_on_c, 1, 79, 127
2, 79080, Note_on_c, 1, 86, 127
2, 79080, Note_off_c, 1, 89, 0
2, 79080, Note_off_c, 1, 97, 0
2, 79120, Note_on_c, 1, 33, 127
2, 79120, Note_on_c, 1, 62, 127
2, 79120, Note_off_c, 1, 74, 0
2, 79120, Note_off_c, 1, 77, 0
2, 79120, Note_off_c, 1, 79, 0
2, 79160, Note_off_c, 1, 33, 0
2, 79160, Note_off_c, 1, 62, 0
2, 79160, Note_on_c, 1, 80, 127
2, 79160, Note_on_c, 1, 83, 127
2, 79160, Note_off_c, 1, 86, 0
2, 79160, Note_on_c, 1, 89, 127
2, 79200, Note_on_c, 1, 63, 127
2, 79200, Note_on_c, 1, 75, 127
2, 79200, Note_off_c, 1, 80, 0
2, 79200, Note_on_c, 1, 81, 127
2, 79200, Note_off_c, 1, 83, 0
2, 79200, Note_on_c, 1, 84, 127
2, 79200, Note_off_c, 1, 89, 0
2, 79280, Note_off_c, 1, 63, 0
2, 79280, Note_on_c, 1, 72, 127
2, 79400, Note_on_c, 1, 41, 127
2, 79400, Note_on_c, 1, 53, 127
2, 79400, Note_off_c, 1, 75, 0
2, 79400, Note_on_c, 1, 77, 127
2, 79400, Note_on_c, 1, 80, 127
2, 79400, Note_off_c, 1, 81, 0
2, 79440, Note_off_c, 1, 41, 0
2, 79440, Note_off_c, 1, 53, 0
2, 79440, Note_off_c, 1, 72, 0
2, 79440, Note_off_c, 1, 77, 0
2, 79440, Note_off_c, 1, 80, 0
2, 79440, Note_off_c, 1, 84, 0
2, 79480, Note_on_c, 1, 71, 127
2, 79480, Note_on_c, 1, 73, 127
2, 79480, Note_on_c, 1, 77, 127
2, 79480, Note_on_c, 1, 80, 127
2, 79480, Note_on_c, 1, 96, 127
2, 79520, Note_off_c, 1, 71, 0
2, 79520, Note_off_c, 1, 73, 0
2, 79520, Note_off_c, 1, 77, 0
2, 79520, Note_on_c, 1, 82, 127
2, 79520, Note_on_c, 1, 83, 127
2, 79520, Note_on_c, 1, 85, 127
2, 79520, Note_off_c, 1, 96, 0
2, 79560, Note_on_c, 1, 43, 127
2, 79560, Note_on_c, 1, 52, 127
2, 79560, Note_on_c, 1, 72, 127
2, 79560, Note_off_c, 1, 80, 0
2, 79560, Note_off_c, 1, 82, 0
2, 79560, Note_off_c, 1, 83, 0
2, 79560, Note_on_c, 1, 84, 127
2, 79560, Note_off_c, 1, 85, 0
2, 79600, Note_off_c, 1, 43, 0
2, 79600, Note_on_c, 1, 55, 127
2, 79600, Note_on_c, 1, 60, 127
2, 79600, Note_on_c, 1, 64, 127
2, 79600, Note_on_c, 1, 76, 127
2, 79600, Note_on_c, 1, 79, 127
2, 79640, Note_on_c, 1, 47, 127
2, 79640, Note_off_c, 1, 52, 0
2, 79640, Note_on_c, 1, 54, 127
2, 79640, Note_off_c, 1, 55, 0
2, 79640, Note_on_c, 1, 59, 127
2, 79640, Note_off_c, 1, 60, 0
2, 79640, Note_on_c, 1, 62, 127
2, 79640, Note_on_c, 1, 63, 127
2, 79640, Note_off_c, 1, 64, 0
2, 79640, Note_on_c, 1, 65, 127
2, 79640, Note_on_c, 1, 66, 127
2, 79640, Note_on_c, 1, 71, 127
2, 79640, Note_off_c, 1, 72, 0
2, 79640, Note_on_c, 1, 75, 127
2, 79640, Note_off_c, 1, 76, 0
2, 79640, Note_off_c, 1, 79, 0
2, 79640, Note_on_c, 1, 83, 127
2, 79640, Note_off_c, 1, 84, 0
2, 79680, Note_off_c, 1, 47, 0
2, 79680, Note_on_c, 1, 51, 127
2, 79680, Note_on_c, 1, 53, 127
2, 79680, Note_off_c, 1, 54, 0
2, 79680, Note_off_c, 1, 59, 0
2, 79680, Note_on_c, 1, 60, 127
2, 79680, Note_off_c, 1, 62, 0
2, 79680, Note_off_c, 1, 63, 0
2, 79680, Note_on_c, 1, 64, 127
2, 79680, Note_off_c, 1, 65, 0
2, 79680, Note_off_c, 1, 66, 0
2, 79680, Note_off_c, 1, 71, 0
2, 79680, Note_off_c, 1, 75, 0
2, 79680, Note_off_c, 1, 83, 0
2, 79720, Note_off_c, 1, 51, 0
2, 79720, Note_off_c, 1, 53, 0
2, 79720, Note_off_c, 1, 60, 0
2, 79720, Note_off_c, 1, 64, 0
2, 79760, Note_on_c, 1, 36, 127
2, 79760, Note_on_c, 1, 43, 127
2, 79760, Note_on_c, 1, 75, 127
2, 79760, Note_on_c, 1, 78, 127
2, 79760, Note_on_c, 1, 83, 127
2, 79800, Note_off_c, 1, 36, 0
2, 79800, Note_off_c, 1, 43, 0
2, 79800, Note_on_c, 1, 47, 127
2, 79800, Note_on_c, 1, 50, 127
2, 79800, Note_on_c, 1, 54, 127
2, 79800, Note_on_c, 1, 59, 127
2, 79800, Note_on_c, 1, 62, 127
2, 79800, Note_on_c, 1, 66, 127
2, 79800, Note_on_c, 1, 74, 127
2, 79800, Note_off_c, 1, 75, 0
2, 79800, Note_off_c, 1, 78, 0
2, 79800, Note_off_c, 1, 83, 0
2, 79840, Note_on_c, 1, 38, 127
2, 79840, Note_off_c, 1, 47, 0
2, 79840, Note_off_c, 1, 54, 0
2, 79840, Note_on_c, 1, 57, 127
2, 79840, Note_off_c, 1, 59, 0
2, 79840, Note_off_c, 1, 62, 0
2, 79840, Note_on_c, 1, 69, 127
2, 79840, Note_off_c, 1, 74, 0
2, 79880, Note_off_c, 1, 38, 0
2, 79880, Note_off_c, 1, 50, 0
2, 79880, Note_off_c, 1, 57, 0
2, 79880, Note_off_c, 1, 66, 0
2, 79880, Note_on_c, 1, 77, 127
2, 79880, Note_on_c, 1, 84, 127
2, 79880, Note_on_c, 1, 91, 127
2, 79920, Note_on_c, 1, 56, 127
2, 79920, Note_on_c, 1, 68, 127
2, 79920, Note_off_c, 1, 69, 0
2, 79920, Note_on_c, 1, 73, 127
2, 79920, Note_on_c, 1, 83, 127
2, 79920, Note_off_c, 1, 84, 0
2, 79920, Note_off_c, 1, 91, 0
2, 79960, Note_off_c, 1, 56, 0
2, 79960, Note_on_c, 1, 62, 127
2, 79960, Note_on_c, 1, 71, 127
2, 79960, Note_off_c, 1, 73, 0
2, 79960, Note_on_c, 1, 80, 127
2, 79960, Note_off_c, 1, 83, 0
2, 80000, Note_on_c, 1, 57, 127
2, 80000, Note_on_c, 1, 66, 127
2, 80000, Note_off_c, 1, 68, 0
2, 80000, Note_off_c, 1, 71, 0
2, 80000, Note_off_c, 1, 77, 0
2, 80000, Note_off_c, 1, 80, 0
2, 80000, Note_on_c, 1, 81, 127
2, 80000, Note_on_c, 1, 83, 127
2, 80040, Note_on_c, 1, 33, 127
2, 80040, Note_on_c, 1, 45, 127
2, 80040, Note_on_c, 1, 53, 127
2, 80040, Note_off_c, 1, 57, 0
2, 80040, Note_off_c, 1, 62, 0
2, 80040, Note_on_c, 1, 65, 127
2, 80040, Note_off_c, 1, 66, 0
2, 80040, Note_on_c, 1, 73, 127
2, 80040, Note_off_c, 1, 83, 0
2, 80080, Note_off_c, 1, 33, 0
2, 80080, Note_off_c, 1, 45, 0
2, 80080, Note_on_c, 1, 51, 127
2, 80080, Note_off_c, 1, 53, 0
2, 80080, Note_on_c, 1, 63, 127
2, 80080, Note_off_c, 1, 65, 0
2, 80080, Note_off_c, 1, 73, 0
2, 80080, Note_on_c, 1, 75, 127
2, 80080, Note_off_c, 1, 81, 0
2, 80080, Note_on_c, 1, 82, 127
2, 80080, Note_on_c, 1, 87, 127
2, 80120, Note_on_c, 1, 50, 127
2, 80120, Note_off_c, 1, 51, 0
2, 80120, Note_off_c, 1, 63, 0
2, 80120, Note_off_c, 1, 75, 0
2, 80120, Note_off_c, 1, 82, 0
2, 80120, Note_on_c, 1, 84, 127
2, 80120, Note_off_c, 1, 87, 0
2, 80120, Note_on_c, 1, 93, 127
2, 80160, Note_on_c, 1, 47, 127
2, 80160, Note_off_c, 1, 50, 0
2, 80160, Note_on_c, 1, 71, 127
2, 80160, Note_on_c, 1, 75, 127
2, 80160, Note_on_c, 1, 78, 127
2, 80160, Note_on_c, 1, 81, 127
2, 80160, Note_off_c, 1, 84, 0
2, 80160, Note_off_c, 1, 93, 0
2, 80200, Note_on_c, 1, 44, 127
2, 80200, Note_off_c, 1, 47, 0
2, 80200, Note_on_c, 1, 53, 127
2, 80200, Note_on_c, 1, 56, 127
2, 80200, Note_on_c, 1, 61, 127
2, 80200, Note_on_c, 1, 68, 127
2, 80200, Note_off_c, 1, 71, 0
2, 80200, Note_off_c, 1, 75, 0
2, 80200, Note_off_c, 1, 78, 0
2, 80200, Note_off_c, 1, 81, 0
2, 80240, Note_on_c, 1, 43, 127
2, 80240, Note_off_c, 1, 44, 0
2, 80240, Note_on_c, 1, 51, 127
2, 80240, Note_off_c, 1, 53, 0
2, 80240, Note_on_c, 1, 55, 127
2, 80240, Note_off_c, 1, 56, 0
2, 80240, Note_on_c, 1, 58, 127
2, 80240, Note_off_c, 1, 61, 0
2, 80240, Note_off_c, 1, 68, 0
2, 80240, Note_on_c, 1, 70, 127
2, 80280, Note_off_c, 1, 51, 0
2, 80280, Note_on_c, 1, 53, 127
2, 80280, Note_off_c, 1, 55, 0
2, 80280, Note_on_c, 1, 62, 127
2, 80280, Note_on_c, 1, 67, 127
2, 80280, Note_off_c, 1, 70, 0
2, 80320, Note_off_c, 1, 43, 0
2, 80320, Note_on_c, 1, 48, 127
2, 80320, Note_off_c, 1, 53, 0
2, 80320, Note_off_c, 1, 58, 0
2, 80320, Note_on_c, 1, 59, 127
2, 80320, Note_on_c, 1, 65, 127
2, 80360, Note_on_c, 1, 38, 127
2, 80360, Note_on_c, 1, 45, 127
2, 80360, Note_on_c, 1, 50, 127
2, 80360, Note_off_c, 1, 59, 0
2, 80360, Note_off_c, 1, 62, 0
2, 80360, Note_off_c, 1, 65, 0
2, 80360, Note_off_c, 1, 67, 0
2, 80360, Note_on_c, 1, 72, 127
2, 80400, Note_on_c, 1, 36, 127
2, 80400, Note_off_c, 1, 38, 0
2, 80400, Note_off_c, 1, 45, 0
2, 80400, Note_off_c, 1, 48, 0
2, 80400, Note_off_c, 1, 50, 0
2, 80400, Note_off_c, 1, 72, 0
2, 80440, Note_off_c, 1, 36, 0
2, 80440, Note_on_c, 1, 48, 127
2, 80440, Note_on_c, 1, 79, 127
2, 80440, Note_on_c, 1, 84, 127
2, 80520, Note_off_c, 1, 84, 0
2, 80560, Note_on_c, 1, 43, 127
2, 80560, Note_off_c, 1, 48, 0
2, 80560, Note_off_c, 1, 79, 0
2, 80600, Note_off_c, 1, 43, 0
2, 80600, Note_on_c, 1, 62, 127
2, 80600, Note_on_c, 1, 69, 127
2, 80600, Note_on_c, 1, 74, 127
2, 80600, Note_on_c, 1, 83, 127
2, 80640, Note_on_c, 1, 45, 127
2, 80640, Note_on_c, 1, 57, 127
2, 80640, Note_off_c, 1, 62, 0
2, 80640, Note_on_c, 1, 65, 127
2, 80640, Note_off_c, 1, 69, 0
2, 80640, Note_on_c, 1, 73, 127
2, 80640, Note_off_c, 1, 74, 0
2, 80640, Note_on_c, 1, 79, 127
2, 80640, Note_off_c, 1, 83, 0
2, 80680, Note_on_c, 1, 37, 127
2, 80680, Note_off_c, 1, 45, 0
2, 80680, Note_on_c, 1, 46, 127
2, 80680, Note_on_c, 1, 54, 127
2, 80680, Note_off_c, 1, 57, 0
2, 80680, Note_on_c, 1, 63, 127
2, 80680, Note_off_c, 1, 65, 0
2, 80680, Note_off_c, 1, 73, 0
2, 80680, Note_off_c, 1, 79, 0
2, 80720, Note_off_c, 1, 37, 0
2, 80720, Note_off_c, 1, 46, 0
2, 80720, Note_on_c, 1, 53, 127
2, 80720, Note_off_c, 1, 54, 0
2, 80720, Note_on_c, 1, 57, 127
2, 80720, Note_off_c, 1, 63, 0
2, 80720, Note_on_c, 1, 77, 127
2, 80720, Note_on_c, 1, 81, 127
2, 80760, Note_off_c, 1, 53, 0
2, 80760, Note_off_c, 1, 57, 0
2, 80760, Note_on_c, 1, 60, 127
2, 80760, Note_on_c, 1, 64, 127
2, 80760, Note_on_c, 1, 69, 127
2, 80760, Note_off_c, 1, 77, 0
2, 80760, Note_off_c, 1, 81, 0
2, 80760, Note_on_c, 1, 83, 127
2, 80800, Note_off_c, 1, 60, 0
2, 80800, Note_off_c, 1, 64, 0
2, 80800, Note_off_c, 1, 69, 0
2, 80840, Note_on_c, 1, 77, 127
2, 80840, Note_on_c, 1, 80, 127
2, 80840, Note_off_c, 1, 83, 0
2, 80840, Note_on_c, 1, 86, 127
2, 80840, Note_on_c, 1, 101, 127
2, 80880, Note_on_c, 1, 58, 127
2, 80880, Note_on_c, 1, 65, 127
2, 80880, Note_on_c, 1, 70, 127
2, 80880, Note_off_c, 1, 77, 0
2, 80880, Note_on_c, 1, 92, 127
2, 80880, Note_off_c, 1, 101, 0
2, 80920, Note_on_c, 1, 45, 127
2, 80920, Note_on_c, 1, 54, 127
2, 80920, Note_off_c, 1, 58, 0
2, 80920, Note_off_c, 1, 65, 0
2, 80920, Note_off_c, 1, 70, 0
2, 80920, Note_on_c, 1, 76, 127
2, 80920, Note_on_c, 1, 78, 127
2, 80920, Note_off_c, 1, 80, 0
2, 80920, Note_off_c, 1, 86, 0
2, 80920, Note_off_c, 1, 92, 0
2, 80960, Note_off_c, 1, 45, 0
2, 80960, Note_off_c, 1, 54, 0
2, 80960, Note_off_c, 1, 76, 0
2, 80960, Note_off_c, 1, 78, 0
2, 81000, Note_on_c, 1, 29, 127
2, 81000, Note_on_c, 1, 31, 127
2, 81000, Note_on_c, 1, 47, 127
2, 81040, Note_off_c, 1, 29, 0
2, 81040, Note_off_c, 1, 31, 0
2, 81040, Note_on_c, 1, 39, 127
2, 81040, Note_on_c, 1, 46, 127
2, 81040, Note_off_c, 1, 47, 0
2, 81040, Note_on_c, 1, 51, 127
2, 81040, Note_on_c, 1, 54, 127
2, 81040, Note_on_c, 1, 58, 127
2, 81080, Note_off_c, 1, 39, 0
2, 81080, Note_off_c, 1, 46, 0
2, 81080, Note_off_c, 1, 51, 0
2, 81080, Note_off_c, 1, 54, 0
2, 81080, Note_off_c, 1, 58, 0
2, 81120, Note_on_c, 1, 79, 127
2, 81120, Note_on_c, 1, 85, 127
2, 81120, Note_on_c, 1, 88, 127
2, 81120, Note_on_c, 1, 91, 127
2, 81160, Note_on_c, 1, 64, 127
2, 81160, Note_on_c, 1, 73, 127
2, 81160, Note_on_c, 1, 75, 127
2, 81160, Note_on_c, 1, 76, 127
2, 81160, Note_on_c, 1, 78, 127
2, 81160, Note_off_c, 1, 79, 0
2, 81160, Note_on_c, 1, 80, 127
2, 81160, Note_off_c, 1, 85, 0
2, 81160, Note_off_c, 1, 88, 0
2, 81160, Note_off_c, 1, 91, 0
2, 81200, Note_on_c, 1, 48, 127
2, 81200, Note_on_c, 1, 52, 127
2, 81200, Note_on_c, 1, 56, 127
2, 81200, Note_on_c, 1, 58, 127
2, 81200, Note_on_c, 1, 60, 127
2, 81200, Note_on_c, 1, 68, 127
2, 81200, Note_on_c, 1, 70, 127
2, 81200, Note_on_c, 1, 72, 127
2, 81200, Note_off_c, 1, 73, 0
2, 81200, Note_off_c, 1, 75, 0
2, 81200, Note_off_c, 1, 76, 0
2, 81200, Note_off_c, 1, 78, 0
2, 81200, Note_off_c, 1, 80, 0
2, 81240, Note_off_c, 1, 48, 0
2, 81240, Note_off_c, 1, 52, 0
2, 81240, Note_off_c, 1, 56, 0
2, 81240, Note_off_c, 1, 58, 0
2, 81240, Note_off_c, 1, 60, 0
2, 81240, Note_off_c, 1, 64, 0
2, 81240, Note_off_c, 1, 68, 0
2, 81240, Note_off_c, 1, 70, 0
2, 81240, Note_off_c, 1, 72, 0
2, 81280, Note_on_c, 1, 52, 127
2, 81280, Note_on_c, 1, 55, 127
2, 81280, Note_on_c, 1, 60, 127
2, 81280, Note_on_c, 1, 74, 127
2, 81320, Note_on_c, 1, 35, 127
2, 81320, Note_on_c, 1, 47, 127
2, 81320, Note_off_c, 1, 52, 0
2, 81320, Note_off_c, 1, 55, 0
2, 81320, Note_off_c, 1, 60, 0
2, 81320, Note_off_c, 1, 74, 0
2, 81320, Note_on_c, 1, 87, 127
2, 81320, Note_on_c, 1, 95, 127
2, 81320, Note_on_c, 1, 99, 127
2, 81360, Note_off_c, 1, 35, 0
2, 81360, Note_on_c, 1, 43, 127
2, 81360, Note_off_c, 1, 47, 0
2, 81360, Note_on_c, 1, 51, 127
2, 81360, Note_on_c, 1, 73, 127
2, 81360, Note_on_c, 1, 82, 127
2, 81360, Note_off_c, 1, 87, 0
2, 81360, Note_off_c, 1, 95, 0
2, 81360, Note_off_c, 1, 99, 0
2, 81400, Note_off_c, 1, 43, 0
2, 81400, Note_off_c, 1, 51, 0
2, 81400, Note_off_c, 1, 73, 0
2, 81400, Note_off_c, 1, 82, 0
2, 81440, Note_on_c, 1, 49, 127
2, 81440, Note_on_c, 1, 54, 127
2, 81440, Note_on_c, 1, 59, 127
2, 81440, Note_on_c, 1, 61, 127
2, 81440, Note_on_c, 1, 68, 127
2, 81480, Note_off_c, 1, 49, 0
2, 81480, Note_off_c, 1, 54, 0
2, 81480, Note_off_c, 1, 59, 0
2, 81480, Note_off_c, 1, 61, 0
2, 81480, Note_off_c, 1, 68, 0
2, 81520, Note_on_c, 1, 54, 127
2, 81520, Note_on_c, 1, 57, 127
2, 81520, Note_on_c, 1, 60, 127
2, 81520, Note_on_c, 1, 63, 127
2, 81520, Note_on_c, 1, 66, 127
2, 81520, Note_on_c, 1, 69, 127
2, 81520, Note_on_c, 1, 72, 127
2, 81520, Note_on_c, 1, 75, 127
2, 81560, Note_off_c, 1, 54, 0
2, 81560, Note_off_c, 1, 57, 0
2, 81560, Note_off_c, 1, 60, 0
2, 81560, Note_off_c, 1, 63, 0
2, 81560, Note_off_c, 1, 66, 0
2, 81560, Note_off_c, 1, 69, 0
2, 81560, Note_off_c, 1, 72, 0
2, 81560, Note_off_c, 1, 75, 0
2, 81600, Note_on_c, 1, 47, 127
2, 81600, Note_on_c, 1, 53, 127
2, 81600, Note_on_c, 1, 59, 127
2, 81600, Note_on_c, 1, 73, 127
2, 81600, Note_on_c, 1, 76, 127
2, 81600, Note_on_c, 1, 80, 127
2, 81600, Note_on_c, 1, 86, 127
2, 81600, Note_on_c, 1, 92, 127
2, 81640, Note_off_c, 1, 47, 0
2, 81640, Note_off_c, 1, 53, 0
2, 81640, Note_off_c, 1, 59, 0
2, 81640, Note_off_c, 1, 73, 0
2, 81640, Note_off_c, 1, 76, 0
2, 81640, Note_off_c, 1, 80, 0
2, 81640, Note_off_c, 1, 86, 0
2, 81640, Note_off_c, 1, 92, 0
2, 81680, Note_on_c, 1, 55, 127
2, 81680, Note_on_c, 1, 62, 127
2, 81680, Note_on_c, 1, 67, 127
2, 81680, Note_on_c, 1, 70, 127
2, 81680, Note_on_c, 1, 74, 127
2, 81680, Note_on_c, 1, 79, 127
2, 81680, Note_on_c, 1, 82, 127
2, 81720, Note_on_c, 1, 34, 127
2, 81720, Note_off_c, 1, 55, 0
2, 81720, Note_on_c, 1, 56, 127
2, 81720, Note_on_c, 1, 60, 127
2, 81720, Note_off_c, 1, 62, 0
2, 81720, Note_off_c, 1, 70, 0
2, 81720, Note_off_c, 1, 74, 0
2, 81720, Note_off_c, 1, 79, 0
2, 81720, Note_off_c, 1, 82, 0
2, 81760, Note_off_c, 1, 34, 0
2, 81760, Note_off_c, 1, 56, 0
2, 81760, Note_off_c, 1, 60, 0
2, 81760, Note_off_c, 1, 67, 0
2, 81880, Note_on_c, 1, 41, 127
2, 81880, Note_on_c, 1, 70, 127
2, 81880, Note_on_c, 1, 74, 127
2, 81880, Note_on_c, 1, 77, 127
2, 81960, Note_off_c, 1, 41, 0
2, 81960, Note_off_c, 1, 70, 0
2, 81960, Note_off_c, 1, 74, 0
2, 81960, Note_off_c, 1, 77, 0
2, 82000, Note_on_c, 1, 55, 127
2, 82000, Note_on_c, 1, 57, 127
2, 82000, Note_on_c, 1, 63, 127
2, 82000, Note_on_c, 1, 75, 127
2, 82040, Note_off_c, 1, 55, 0
2, 82040, Note_off_c, 1, 63, 0
2, 82040, Note_on_c, 1, 67, 127
2, 82040, Note_on_c, 1, 74, 127
2, 82040, Note_off_c, 1, 75, 0
2, 82040, Note_on_c, 1, 79, 127
2, 82080, Note_on_c, 1, 63, 127
2, 82080, Note_on_c, 1, 71, 127
2, 82080, Note_off_c, 1, 74, 0
2, 82080, Note_off_c, 1, 79, 0
2, 82120, Note_off_c, 1, 57, 0
2, 82120, Note_off_c, 1, 63, 0
2, 82120, Note_off_c, 1, 67, 0
2, 82120, Note_off_c, 1, 71, 0
2, 82120, Note_on_c, 1, 79, 127
2, 82160, Note_on_c, 1, 64, 127
2, 82160, Note_on_c, 1, 67, 127
2, 82160, Note_on_c, 1, 85, 127
2, 82160, Note_on_c, 1, 91, 127
2, 82200, Note_off_c, 1, 64, 0
2, 82200, Note_off_c, 1, 67, 0
2, 82200, Note_off_c, 1, 79, 0
2, 82200, Note_off_c, 1, 85, 0
2, 82200, Note_off_c, 1, 91, 0
2, 82240, Note_on_c, 1, 58, 127
2, 82240, Note_on_c, 1, 61, 127
2, 82240, Note_on_c, 1, 67, 127
2, 82240, Note_on_c, 1, 75, 127
2, 82240, Note_on_c, 1, 79, 127
2, 82240, Note_on_c, 1, 87, 127
2, 82360, Note_off_c, 1, 58, 0
2, 82360, Note_off_c, 1, 61, 0
2, 82360, Note_off_c, 1, 67, 0
2, 82360, Note_off_c, 1, 75, 0
2, 82360, Note_off_c, 1, 79, 0
2, 82360, Note_off_c, 1, 87, 0
2, 82400, Note_on_c, 1, 34, 127
2, 82400, Note_on_c, 1, 46, 127
2, 82400, Note_on_c, 1, 76, 127
2, 82400, Note_on_c, 1, 79, 127
2, 82400, Note_on_c, 1, 86, 127
2, 82440, Note_off_c, 1, 34, 0
2, 82440, Note_off_c, 1, 46, 0
2, 82440, Note_on_c, 1, 54, 127
2, 82440, Note_on_c, 1, 59, 127
2, 82440, Note_on_c, 1, 62, 127
2, 82440, Note_off_c, 1, 76, 0
2, 82440, Note_off_c, 1, 79, 0
2, 82440, Note_on_c, 1, 83, 127
2, 82440, Note_on_c, 1, 88, 127
2, 82480, Note_off_c, 1, 54, 0
2, 82480, Note_off_c, 1, 59, 0
2, 82480, Note_off_c, 1, 62, 0
2, 82480, Note_off_c, 1, 83, 0
2, 82480, Note_off_c, 1, 86, 0
2, 82480, Note_off_c, 1, 88, 0
2, 82520, Note_on_c, 1, 52, 127
2, 82520, Note_on_c, 1, 59, 127
2, 82520, Note_on_c, 1, 64, 127
2, 82520, Note_on_c, 1, 68, 127
2, 82520, Note_on_c, 1, 73, 127
2, 82520, Note_on_c, 1, 76, 127
2, 82680, Note_off_c, 1, 52, 0
2, 82680, Note_off_c, 1, 59, 0
2, 82680, Note_off_c, 1, 64, 0
2, 82680, Note_off_c, 1, 68, 0
2, 82680, Note_off_c, 1, 73, 0
2, 82680, Note_off_c, 1, 76, 0
2, 82720, Note_on_c, 1, 37, 127
2, 82720, Note_on_c, 1, 77, 127
2, 82720, Note_on_c, 1, 81, 127
2, 82760, Note_off_c, 1, 37, 0
2, 82760, Note_off_c, 1, 77, 0
2, 82760, Note_off_c, 1, 81, 0
2, 82800, Note_on_c, 1, 53, 127
2, 82800, Note_on_c, 1, 60, 127
2, 82800, Note_on_c, 1, 65, 127
2, 82800, Note_on_c, 1, 69, 127
2, 82800, Note_on_c, 1, 72, 127
2, 82800, Note_on_c, 1, 81, 127
2, 82840, Note_off_c, 1, 53, 0
2, 82840, Note_off_c, 1, 60, 0
2, 82840, Note_off_c, 1, 65, 0
2, 82840, Note_off_c, 1, 69, 0
2, 82840, Note_off_c, 1, 72, 0
2, 82840, Note_off_c, 1, 81, 0
2, 82880, Note_on_c, 1, 50, 127
2, 82880, Note_on_c, 1, 65, 127
2, 82880, Note_on_c, 1, 74, 127
2, 82880, Note_on_c, 1, 77, 127
2, 82920, Note_on_c, 1, 57, 127
2, 82920, Note_on_c, 1, 62, 127
2, 82920, Note_on_c, 1, 69, 127
2, 82920, Note_off_c, 1, 74, 0
2, 82960, Note_off_c, 1, 50, 0
2, 82960, Note_off_c, 1, 57, 0
2, 82960, Note_off_c, 1, 62, 0
2, 82960, Note_off_c, 1, 65, 0
2, 82960, Note_off_c, 1, 69, 0
2, 82960, Note_off_c, 1, 77, 0
2, 83000, Note_on_c, 1, 34, 127
2, 83000, Note_on_c, 1, 57, 127
2, 83000, Note_on_c, 1, 60, 127
2, 83000, Note_on_c, 1, 65, 127
2, 83000, Note_on_c, 1, 69, 127
2, 83000, Note_on_c, 1, 72, 127
2, 83000, Note_on_c, 1, 77, 127
2, 83120, Note_off_c, 1, 34, 0
2, 83120, Note_off_c, 1, 57, 0
2, 83120, Note_off_c, 1, 60, 0
2, 83120, Note_off_c, 1, 65, 0
2, 83120, Note_off_c, 1, 69, 0
2, 83120, Note_off_c, 1, 72, 0
2, 83120, Note_off_c, 1, 77, 0
2, 83160, Note_on_c, 1, 45, 127
2, 83160, Note_on_c, 1, 53, 127
2, 83160, Note_on_c, 1, 60, 127
2, 83160, Note_on_c, 1, 65, 127
2, 83240, Note_off_c, 1, 45, 0
2, 83240, Note_off_c, 1, 53, 0
2, 83240, Note_off_c, 1, 60, 0
2, 83240, Note_off_c, 1, 65, 0
2, 83280, Note_on_c, 1, 45, 127
2, 83280, Note_on_c, 1, 53, 127
2, 83280, Note_on_c, 1, 60, 127
2, 83280, Note_on_c, 1, 65, 127
2, 83360, Note_off_c, 1, 45, 0
2, 83360, Note_off_c, 1, 53, 0
2, 83360, Note_off_c, 1, 60, 0
2, 83360, Note_off_c, 1, 65, 0
2, 83400, Note_on_c, 1, 39, 127
2, 83400, Note_on_c, 1, 51, 127
2, 83400, Note_on_c, 1, 63, 127
2, 83400, Note_on_c, 1, 69, 127
2, 83400, Note_on_c, 1, 72, 127
2, 83520, Note_off_c, 1, 39, 0
2, 83520, Note_off_c, 1, 51, 0
2, 83520, Note_off_c, 1, 63, 0
2, 83520, Note_off_c, 1, 69, 0
2, 83520, Note_off_c, 1, 72, 0
2, 83560, Note_on_c, 1, 36, 127
2, 83560, Note_on_c, 1, 48, 127
2, 83560, Note_on_c, 1, 67, 127
2, 83560, Note_on_c, 1, 72, 127
2, 83560, Note_on_c, 1, 77, 127
2, 83560, Note_on_c, 1, 79, 127
2, 83680, Note_on_c, 1, 32, 127
2, 83680, Note_off_c, 1, 36, 0
2, 83680, Note_on_c, 1, 44, 127
2, 83680, Note_off_c, 1, 48, 0
2, 83680, Note_on_c, 1, 59, 127
2, 83680, Note_off_c, 1, 67, 0
2, 83680, Note_on_c, 1, 68, 127
2, 83680, Note_off_c, 1, 72, 0
2, 83680, Note_off_c, 1, 77, 0
2, 83680, Note_off_c, 1, 79, 0
2, 83720, Note_off_c, 1, 32, 0
2, 83720, Note_on_c, 1, 43, 127
2, 83720, Note_off_c, 1, 44, 0
2, 83720, Note_on_c, 1, 55, 127
2, 83720, Note_off_c, 1, 59, 0
2, 83720, Note_off_c, 1, 68, 0
2, 83720, Note_on_c, 1, 70, 127
2, 83720, Note_on_c, 1, 74, 127
2, 83720, Note_on_c, 1, 76, 127
2, 83720, Note_on_c, 1, 82, 127
2, 83760, Note_off_c, 1, 43, 0
2, 83760, Note_off_c, 1, 55, 0
2, 83760, Note_off_c, 1, 70, 0
2, 83760, Note_off_c, 1, 74, 0
2, 83760, Note_off_c, 1, 76, 0
2, 83760, Note_off_c, 1, 82, 0
2, 83800, Note_on_c, 1, 59, 127
2, 83800, Note_on_c, 1, 74, 127
2, 83800, Note_on_c, 1, 76, 127
2, 83800, Note_on_c, 1, 81, 127
2, 83880, Note_off_c, 1, 59, 0
2, 83880, Note_off_c, 1, 74, 0
2, 83880, Note_off_c, 1, 76, 0
2, 83880, Note_off_c, 1, 81, 0
2, 83960, Note_on_c, 1, 58, 127
2, 83960, Note_on_c, 1, 68, 127
2, 83960, Note_on_c, 1, 70, 127
2, 83960, Note_on_c, 1, 74, 127
2, 83960, Note_on_c, 1, 82, 127
2, 84080, Note_off_c, 1, 58, 0
2, 84080, Note_off_c, 1, 68, 0
2, 84080, Note_off_c, 1, 70, 0
2, 84080, Note_off_c, 1, 74, 0
2, 84080, Note_off_c, 1, 82, 0
2, 84120, Note_on_c, 1, 44, 127
2, 84120, Note_on_c, 1, 68, 127
2, 84120, Note_on_c, 1, 77, 127
2, 84200, Note_off_c, 1, 44, 0
2, 84200, Note_off_c, 1, 68, 0
2, 84200, Note_off_c, 1, 77, 0
2, 84240, Note_on_c, 1, 65, 127
2, 84240, Note_on_c, 1, 68, 127
2, 84240, Note_on_c, 1, 72, 127
2, 84240, Note_on_c, 1, 77, 127
2, 84240, Note_on_c, 1, 84, 127
2, 84360, Note_off_c, 1, 65, 0
2, 84360, Note_off_c, 1, 68, 0
2, 84360, Note_off_c, 1, 72, 0
2, 84360, Note_off_c, 1, 77, 0
2, 84360, Note_off_c, 1, 84, 0
2, 84400, Note_on_c, 1, 43, 127
2, 84400, Note_on_c, 1, 46, 127
2, 84400, Note_on_c, 1, 52, 127
2, 84400, Note_on_c, 1, 67, 127
2, 84440, Note_on_c, 1, 35, 127
2, 84440, Note_off_c, 1, 43, 0
2, 84440, Note_off_c, 1, 46, 0
2, 84440, Note_on_c, 1, 47, 127
2, 84440, Note_off_c, 1, 52, 0
2, 84440, Note_on_c, 1, 59, 127
2, 84440, Note_on_c, 1, 66, 127
2, 84440, Note_off_c, 1, 67, 0
2, 84440, Note_on_c, 1, 71, 127
2, 84440, Note_on_c, 1, 75, 127
2, 84480, Note_off_c, 1, 35, 0
2, 84480, Note_off_c, 1, 47, 0
2, 84480, Note_off_c, 1, 59, 0
2, 84480, Note_off_c, 1, 66, 0
2, 84480, Note_off_c, 1, 71, 0
2, 84480, Note_off_c, 1, 75, 0
2, 84520, Note_on_c, 1, 50, 127
2, 84520, Note_on_c, 1, 54, 127
2, 84520, Note_on_c, 1, 57, 127
2, 84520, Note_on_c, 1, 69, 127
2, 84520, Note_on_c, 1, 78, 127
2, 84520, Note_on_c, 1, 81, 127
2, 84640, Note_off_c, 1, 50, 0
2, 84640, Note_off_c, 1, 54, 0
2, 84640, Note_off_c, 1, 57, 0
2, 84640, Note_off_c, 1, 69, 0
2, 84640, Note_off_c, 1, 78, 0
2, 84640, Note_off_c, 1, 81, 0
2, 84680, Note_on_c, 1, 45, 127
2, 84680, Note_on_c, 1, 57, 127
2, 84680, Note_on_c, 1, 88, 127
2, 84680, Note_on_c, 1, 93, 127
2, 84680, Note_on_c, 1, 97, 127
2, 84680, Note_on_c, 1, 100, 127
2, 84720, Note_off_c, 1, 45, 0
2, 84720, Note_off_c, 1, 57, 0
2, 84720, Note_on_c, 1, 67, 127
2, 84720, Note_on_c, 1, 68, 127
2, 84720, Note_on_c, 1, 73, 127
2, 84720, Note_on_c, 1, 77, 127
2, 84720, Note_off_c, 1, 88, 0
2, 84720, Note_off_c, 1, 93, 0
2, 84720, Note_off_c, 1, 97, 0
2, 84720, Note_off_c, 1, 100, 0
2, 84760, Note_off_c, 1, 67, 0
2, 84760, Note_off_c, 1, 68, 0
2, 84760, Note_off_c, 1, 73, 0
2, 84760, Note_off_c, 1, 77, 0
2, 84800, Note_on_c, 1, 38, 127
2, 84800, Note_on_c, 1, 50, 127
2, 84800, Note_on_c, 1, 53, 127
2, 84800, Note_on_c, 1, 58, 127
2, 84800, Note_on_c, 1, 64, 127
2, 84840, Note_off_c, 1, 38, 0
2, 84840, Note_on_c, 1, 42, 127
2, 84840, Note_off_c, 1, 50, 0
2, 84840, Note_off_c, 1, 53, 0
2, 84840, Note_on_c, 1, 54, 127
2, 84840, Note_off_c, 1, 58, 0
2, 84840, Note_off_c, 1, 64, 0
2, 84840, Note_on_c, 1, 69, 127
2, 84840, Note_on_c, 1, 73, 127
2, 84840, Note_on_c, 1, 78, 127
2, 84840, Note_on_c, 1, 81, 127
2, 84880, Note_off_c, 1, 42, 0
2, 84880, Note_off_c, 1, 54, 0
2, 84880, Note_off_c, 1, 69, 0
2, 84880, Note_off_c, 1, 73, 0
2, 84880, Note_off_c, 1, 78, 0
2, 84880, Note_off_c, 1, 81, 0
2, 84920, Note_on_c, 1, 56, 127
2, 84920, Note_on_c, 1, 58, 127
2, 84920, Note_on_c, 1, 61, 127
2, 84920, Note_on_c, 1, 65, 127
2, 84920, Note_on_c, 1, 82, 127
2, 84960, Note_off_c, 1, 56, 0
2, 84960, Note_on_c, 1, 57, 127
2, 84960, Note_off_c, 1, 58, 0
2, 84960, Note_off_c, 1, 61, 0
2, 84960, Note_on_c, 1, 63, 127
2, 84960, Note_off_c, 1, 65, 0
2, 84960, Note_off_c, 1, 82, 0
2, 84960, Note_on_c, 1, 89, 127
2, 85000, Note_off_c, 1, 57, 0
2, 85000, Note_on_c, 1, 75, 127
2, 85000, Note_on_c, 1, 78, 127
2, 85000, Note_on_c, 1, 82, 127
2, 85000, Note_off_c, 1, 89, 0
2, 85040, Note_off_c, 1, 63, 0
2, 85040, Note_off_c, 1, 75, 0
2, 85040, Note_off_c, 1, 78, 0
2, 85040, Note_off_c, 1, 82, 0
2, 85080, Note_on_c, 1, 41, 127
2, 85080, Note_on_c, 1, 53, 127
2, 85080, Note_on_c, 1, 76, 127
2, 85080, Note_on_c, 1, 83, 127
2, 85080, Note_on_c, 1, 85, 127
2, 85120, Note_on_c, 1, 37, 127
2, 85120, Note_off_c, 1, 41, 0
2, 85120, Note_on_c, 1, 49, 127
2, 85120, Note_off_c, 1, 53, 0
2, 85120, Note_on_c, 1, 57, 127
2, 85120, Note_on_c, 1, 62, 127
2, 85120, Note_on_c, 1, 66, 127
2, 85120, Note_off_c, 1, 76, 0
2, 85120, Note_off_c, 1, 83, 0
2, 85120, Note_off_c, 1, 85, 0
2, 85160, Note_off_c, 1, 37, 0
2, 85160, Note_off_c, 1, 49, 0
2, 85160, Note_off_c, 1, 57, 0
2, 85160, Note_off_c, 1, 62, 0
2, 85160, Note_off_c, 1, 66, 0
2, 85200, Note_on_c, 1, 65, 127
2, 85200, Note_on_c, 1, 77, 127
2, 85200, Note_on_c, 1, 84, 127
2, 85200, Note_on_c, 1, 93, 127
2, 85200, Note_on_c, 1, 96, 127
2, 85240, Note_off_c, 1, 65, 0
2, 85240, Note_on_c, 1, 71, 127
2, 85240, Note_on_c, 1, 75, 127
2, 85240, Note_off_c, 1, 77, 0
2, 85240, Note_on_c, 1, 80, 127
2, 85240, Note_on_c, 1, 83, 127
2, 85240, Note_off_c, 1, 84, 0
2, 85240, Note_on_c, 1, 92, 127
2, 85240, Note_off_c, 1, 93, 0
2, 85240, Note_off_c, 1, 96, 0
2, 85280, Note_off_c, 1, 71, 0
2, 85280, Note_off_c, 1, 75, 0
2, 85280, Note_off_c, 1, 80, 0
2, 85280, Note_off_c, 1, 83, 0
2, 85280, Note_off_c, 1, 92, 0
2, 85320, Note_on_c, 1, 55, 127
2, 85320, Note_on_c, 1, 62, 127
2, 85320, Note_on_c, 1, 67, 127
2, 85320, Note_on_c, 1, 77, 127
2, 85320, Note_on_c, 1, 79, 127
2, 85320, Note_on_c, 1, 83, 127
2, 85320, Note_on_c, 1, 89, 127
2, 85360, Note_on_c, 1, 48, 127
2, 85360, Note_off_c, 1, 55, 0
2, 85360, Note_off_c, 1, 62, 0
2, 85360, Note_off_c, 1, 67, 0
2, 85360, Note_on_c, 1, 69, 127
2, 85360, Note_on_c, 1, 75, 127
2, 85360, Note_off_c, 1, 77, 0
2, 85360, Note_off_c, 1, 79, 0
2, 85360, Note_on_c, 1, 81, 127
2, 85360, Note_off_c, 1, 83, 0
2, 85360, Note_off_c, 1, 89, 0
2, 85400, Note_off_c, 1, 48, 0
2, 85400, Note_off_c, 1, 69, 0
2, 85400, Note_off_c, 1, 75, 0
2, 85400, Note_off_c, 1, 81, 0
2, 85440, Note_on_c, 1, 56, 127
2, 85440, Note_on_c, 1, 62, 127
2, 85440, Note_on_c, 1, 65, 127
2, 85440, Note_on_c, 1, 84, 127
2, 85440, Note_on_c, 1, 87, 127
2, 85440, Note_on_c, 1, 96, 127
2, 85480, Note_on_c, 1, 44, 127
2, 85480, Note_on_c, 1, 53, 127
2, 85480, Note_off_c, 1, 56, 0
2, 85480, Note_off_c, 1, 62, 0
2, 85480, Note_off_c, 1, 65, 0
2, 85480, Note_on_c, 1, 70, 127
2, 85480, Note_on_c, 1, 73, 127
2, 85480, Note_on_c, 1, 77, 127
2, 85480, Note_on_c, 1, 80, 127
2, 85480, Note_off_c, 1, 84, 0
2, 85480, Note_off_c, 1, 87, 0
2, 85480, Note_off_c, 1, 96, 0
2, 85520, Note_off_c, 1, 44, 0
2, 85520, Note_off_c, 1, 53, 0
2, 85520, Note_off_c, 1, 70, 0
2, 85520, Note_off_c, 1, 73, 0
2, 85520, Note_off_c, 1, 77, 0
2, 85520, Note_off_c, 1, 80, 0
2, 85600, Note_on_c, 1, 87, 127
2, 85600, Note_on_c, 1, 96, 127
2, 85600, Note_on_c, 1, 99, 127
2, 85800, Note_off_c, 1, 87, 0
2, 85800, Note_off_c, 1, 96, 0
2, 85800, Note_off_c, 1, 99, 0
2, 85840, Note_on_c, 1, 43, 127
2, 85840, Note_on_c, 1, 62, 127
2, 85840, Note_on_c, 1, 65, 127
2, 85840, Note_on_c, 1, 69, 127
2, 85840, Note_on_c, 1, 72, 127
2, 85880, Note_off_c, 1, 43, 0
2, 85880, Note_off_c, 1, 62, 0
2, 85880, Note_off_c, 1, 65, 0
2, 85880, Note_off_c, 1, 69, 0
2, 85880, Note_off_c, 1, 72, 0
2, 85880, Note_on_c, 1, 87, 127
2, 85880, Note_on_c, 1, 96, 127
2, 85880, Note_on_c, 1, 99, 127
2, 85920, Note_on_c, 1, 37, 127
2, 85920, Note_on_c, 1, 44, 127
2, 85920, Note_on_c, 1, 80, 127
2, 85920, Note_off_c, 1, 87, 0
2, 85920, Note_on_c, 1, 88, 127
2, 85920, Note_on_c, 1, 92, 127
2, 85920, Note_off_c, 1, 96, 0
2, 85920, Note_off_c, 1, 99, 0
2, 85960, Note_off_c, 1, 37, 0
2, 85960, Note_off_c, 1, 44, 0
2, 85960, Note_off_c, 1, 80, 0
2, 85960, Note_off_c, 1, 88, 0
2, 85960, Note_off_c, 1, 92, 0
2, 86040, Note_on_c, 1, 51, 127
2, 86040, Note_on_c, 1, 56, 127
2, 86040, Note_on_c, 1, 60, 127
2, 86040, Note_on_c, 1, 63, 127
2, 86040, Note_on_c, 1, 80, 127
2, 86040, Note_on_c, 1, 87, 127
2, 86040, Note_on_c, 1, 92, 127
2, 86120, Note_off_c, 1, 51, 0
2, 86120, Note_off_c, 1, 56, 0
2, 86120, Note_off_c, 1, 60, 0
2, 86120, Note_off_c, 1, 63, 0
2, 86120, Note_off_c, 1, 80, 0
2, 86120, Note_off_c, 1, 87, 0
2, 86120, Note_off_c, 1, 92, 0
2, 86160, Note_on_c, 1, 51, 127
2, 86160, Note_on_c, 1, 53, 127
2, 86160, Note_on_c, 1, 56, 127
2, 86160, Note_on_c, 1, 63, 127
2, 86160, Note_on_c, 1, 77, 127
2, 86160, Note_on_c, 1, 87, 127
2, 86160, Note_on_c, 1, 89, 127
2, 86200, Note_off_c, 1, 53, 0
2, 86200, Note_on_c, 1, 60, 127
2, 86200, Note_off_c, 1, 77, 0
2, 86200, Note_on_c, 1, 80, 127
2, 86200, Note_off_c, 1, 89, 0
2, 86200, Note_on_c, 1, 92, 127
2, 86240, Note_on_c, 1, 53, 127
2, 86240, Note_off_c, 1, 60, 0
2, 86240, Note_on_c, 1, 77, 127
2, 86240, Note_off_c, 1, 80, 0
2, 86240, Note_on_c, 1, 89, 127
2, 86240, Note_off_c, 1, 92, 0
2, 86280, Note_off_c, 1, 51, 0
2, 86280, Note_off_c, 1, 53, 0
2, 86280, Note_off_c, 1, 56, 0
2, 86280, Note_off_c, 1, 63, 0
2, 86280, Note_off_c, 1, 77, 0
2, 86280, Note_off_c, 1, 87, 0
2, 86280, Note_off_c, 1, 89, 0
2, 86320, Note_on_c, 1, 55, 127
2, 86320, Note_on_c, 1, 67, 127
2, 86320, Note_on_c, 1, 73, 127
2, 86320, Note_on_c, 1, 82, 127
2, 86320, Note_on_c, 1, 85, 127
2, 86400, Note_off_c, 1, 55, 0
2, 86400, Note_off_c, 1, 67, 0
2, 86400, Note_off_c, 1, 73, 0
2, 86400, Note_off_c, 1, 82, 0
2, 86400, Note_off_c, 1, 85, 0
2, 86440, Note_on_c, 1, 55, 127
2, 86440, Note_on_c, 1, 67, 127
2, 86440, Note_on_c, 1, 73, 127
2, 86440, Note_on_c, 1, 82, 127
2, 86440, Note_on_c, 1, 85, 127
2, 86520, Note_off_c, 1, 55, 0
2, 86520, Note_off_c, 1, 67, 0
2, 86520, Note_off_c, 1, 73, 0
2, 86520, Note_off_c, 1, 82, 0
2, 86520, Note_off_c, 1, 85, 0
2, 86560, Note_on_c, 1, 55, 127
2, 86560, Note_on_c, 1, 67, 127
2, 86560, Note_on_c, 1, 73, 127
2, 86560, Note_on_c, 1, 82, 127
2, 86560, Note_on_c, 1, 85, 127
2, 86680, Note_off_c, 1, 55, 0
2, 86680, Note_off_c, 1, 67, 0
2, 86680, Note_off_c, 1, 73, 0
2, 86680, Note_off_c, 1, 82, 0
2, 86680, Note_off_c, 1, 85, 0
2, 86720, Note_on_c, 1, 43, 127
2, 86720, Note_on_c, 1, 84, 127
2, 86720, Note_on_c, 1, 87, 127
2, 86760, Note_on_c, 1, 39, 127
2, 86760, Note_off_c, 1, 43, 0
2, 86760, Note_on_c, 1, 48, 127
2, 86760, Note_on_c, 1, 51, 127
2, 86760, Note_on_c, 1, 60, 127
2, 86760, Note_on_c, 1, 68, 127
2, 86760, Note_on_c, 1, 72, 127
2, 86760, Note_off_c, 1, 84, 0
2, 86760, Note_off_c, 1, 87, 0
2, 86800, Note_off_c, 1, 39, 0
2, 86800, Note_off_c, 1, 48, 0
2, 86800, Note_off_c, 1, 51, 0
2, 86800, Note_off_c, 1, 60, 0
2, 86800, Note_off_c, 1, 68, 0
2, 86800, Note_off_c, 1, 72, 0
2, 86840, Note_on_c, 1, 58, 127
2, 86840, Note_on_c, 1, 63, 127
2, 86840, Note_on_c, 1, 65, 127
2, 86840, Note_on_c, 1, 94, 127
2, 86880, Note_off_c, 1, 58, 0
2, 86880, Note_off_c, 1, 63, 0
2, 86880, Note_off_c, 1, 65, 0
2, 86880, Note_on_c, 1, 82, 127
2, 86880, Note_on_c, 1, 89, 127
2, 86920, Note_on_c, 1, 66, 127
2, 86920, Note_off_c, 1, 82, 0
2, 86920, Note_off_c, 1, 89, 0
2, 86920, Note_off_c, 1, 94, 0
2, 86920, Note_on_c, 1, 99, 127
2, 86960, Note_off_c, 1, 66, 0
2, 86960, Note_off_c, 1, 99, 0
2, 87000, Note_on_c, 1, 67, 127
2, 87000, Note_on_c, 1, 72, 127
2, 87000, Note_on_c, 1, 76, 127
2, 87000, Note_on_c, 1, 88, 127
2, 87000, Note_on_c, 1, 96, 127
2, 87000, Note_on_c, 1, 100, 127
2, 87040, Note_on_c, 1, 44, 127
2, 87040, Note_off_c, 1, 67, 0
2, 87040, Note_off_c, 1, 72, 0
2, 87040, Note_off_c, 1, 76, 0
2, 87040, Note_on_c, 1, 80, 127
2, 87040, Note_off_c, 1, 88, 0
2, 87040, Note_on_c, 1, 89, 127
2, 87040, Note_on_c, 1, 92, 127
2, 87040, Note_off_c, 1, 96, 0
2, 87040, Note_off_c, 1, 100, 0
2, 87080, Note_off_c, 1, 44, 0
2, 87080, Note_off_c, 1, 80, 0
2, 87080, Note_on_c, 1, 85, 127
2, 87080, Note_off_c, 1, 89, 0
2, 87080, Note_off_c, 1, 92, 0
2, 87080, Note_on_c, 1, 94, 127
2, 87080, Note_on_c, 1, 97, 127
2, 87120, Note_on_c, 1, 70, 127
2, 87120, Note_on_c, 1, 72, 127
2, 87120, Note_on_c, 1, 73, 127
2, 87120, Note_on_c, 1, 75, 127
2, 87120, Note_off_c, 1, 85, 0
2, 87120, Note_off_c, 1, 94, 0
2, 87120, Note_off_c, 1, 97, 0
2, 87160, Note_on_c, 1, 34, 127
2, 87160, Note_on_c, 1, 46, 127
2, 87160, Note_on_c, 1, 51, 127
2, 87160, Note_on_c, 1, 63, 127
2, 87160, Note_off_c, 1, 70, 0
2, 87160, Note_off_c, 1, 72, 0
2, 87160, Note_off_c, 1, 73, 0
2, 87160, Note_off_c, 1, 75, 0
2, 87200, Note_off_c, 1, 34, 0
2, 87200, Note_off_c, 1, 46, 0
2, 87200, Note_off_c, 1, 51, 0
2, 87200, Note_off_c, 1, 63, 0
2, 87200, Note_on_c, 1, 84, 127
2, 87200, Note_on_c, 1, 92, 127
2, 87200, Note_on_c, 1, 96, 127
2, 87240, Note_off_c, 1, 84, 0
2, 87240, Note_off_c, 1, 92, 0
2, 87240, Note_off_c, 1, 96, 0
2, 87280, Note_on_c, 1, 56, 127
2, 87280, Note_on_c, 1, 65, 127
2, 87280, Note_on_c, 1, 76, 127
2, 87280, Note_on_c, 1, 88, 127
2, 87320, Note_on_c, 1, 39, 127
2, 87320, Note_on_c, 1, 42, 127
2, 87320, Note_off_c, 1, 56, 0
2, 87320, Note_off_c, 1, 65, 0
2, 87320, Note_on_c, 1, 66, 127
2, 87320, Note_on_c, 1, 70, 127
2, 87320, Note_off_c, 1, 76, 0
2, 87320, Note_off_c, 1, 88, 0
2, 87360, Note_off_c, 1, 39, 0
2, 87360, Note_off_c, 1, 42, 0
2, 87360, Note_off_c, 1, 66, 0
2, 87360, Note_off_c, 1, 70, 0
2, 87400, Note_on_c, 1, 48, 127
2, 87400, Note_on_c, 1, 55, 127
2, 87400, Note_on_c, 1, 58, 127
2, 87400, Note_on_c, 1, 64, 127
2, 87400, Note_on_c, 1, 72, 127
2, 87400, Note_on_c, 1, 76, 127
2, 87440, Note_on_c, 1, 39, 127
2, 87440, Note_on_c, 1, 42, 127
2, 87440, Note_on_c, 1, 47, 127
2, 87440, Note_off_c, 1, 48, 0
2, 87440, Note_on_c, 1, 51, 127
2, 87440, Note_off_c, 1, 55, 0
2, 87440, Note_off_c, 1, 58, 0
2, 87440, Note_off_c, 1, 64, 0
2, 87440, Note_off_c, 1, 72, 0
2, 87440, Note_off_c, 1, 76, 0
2, 87440, Note_on_c, 1, 90, 127
2, 87440, Note_on_c, 1, 95, 127
2, 87440, Note_on_c, 1, 102, 127
2, 87480, Note_off_c, 1, 39, 0
2, 87480, Note_off_c, 1, 42, 0
2, 87480, Note_off_c, 1, 47, 0
2, 87480, Note_off_c, 1, 51, 0
2, 87480, Note_on_c, 1, 55, 127
2, 87480, Note_on_c, 1, 59, 127
2, 87480, Note_on_c, 1, 64, 127
2, 87480, Note_on_c, 1, 67, 127
2, 87480, Note_on_c, 1, 73, 127
2, 87480, Note_off_c, 1, 90, 0
2, 87480, Note_off_c, 1, 95, 0
2, 87480, Note_off_c, 1, 102, 0
2, 87520, Note_off_c, 1, 55, 0
2, 87520, Note_off_c, 1, 59, 0
2, 87520, Note_off_c, 1, 64, 0
2, 87520, Note_off_c, 1, 67, 0
2, 87520, Note_off_c, 1, 73, 0
2, 87560, Note_on_c, 1, 38, 127
2, 87560, Note_on_c, 1, 44, 127
2, 87560, Note_on_c, 1, 48, 127
2, 87560, Note_on_c, 1, 60, 127
2, 87560, Note_on_c, 1, 66, 127
2, 87560, Note_on_c, 1, 68, 127
2, 87600, Note_off_c, 1, 38, 0
2, 87600, Note_off_c, 1, 44, 0
2, 87600, Note_off_c, 1, 48, 0
2, 87600, Note_off_c, 1, 60, 0
2, 87600, Note_off_c, 1, 66, 0
2, 87600, Note_off_c, 1, 68, 0
2, 87600, Note_on_c, 1, 91, 127
2, 87600, Note_on_c, 1, 92, 127
2, 87600, Note_on_c, 1, 95, 127
2, 87600, Note_on_c, 1, 96, 127
2, 87640, Note_off_c, 1, 91, 0
2, 87640, Note_off_c, 1, 92, 0
2, 87640, Note_off_c, 1, 95, 0
2, 87640, Note_off_c, 1, 96, 0
2, 87680, Note_on_c, 1, 42, 127
2, 87680, Note_on_c, 1, 49, 127
2, 87680, Note_on_c, 1, 54, 127
2, 87680, Note_on_c, 1, 70, 127
2, 87680, Note_on_c, 1, 82, 127
2, 87720, Note_off_c, 1, 42, 0
2, 87720, Note_off_c, 1, 49, 0
2, 87720, Note_off_c, 1, 54, 0
2, 87720, Note_on_c, 1, 64, 127
2, 87720, Note_on_c, 1, 67, 127
2, 87720, Note_on_c, 1, 69, 127
2, 87720, Note_off_c, 1, 70, 0
2, 87720, Note_on_c, 1, 74, 127
2, 87720, Note_off_c, 1, 82, 0
2, 87760, Note_on_c, 1, 38, 127
2, 87760, Note_on_c, 1, 42, 127
2, 87760, Note_on_c, 1, 50, 127
2, 87760, Note_off_c, 1, 64, 0
2, 87760, Note_off_c, 1, 67, 0
2, 87760, Note_off_c, 1, 69, 0
2, 87760, Note_off_c, 1, 74, 0
2, 87760, Note_on_c, 1, 78, 127
2, 87760, Note_on_c, 1, 81, 127
2, 87760, Note_on_c, 1, 86, 127
2, 87760, Note_on_c, 1, 90, 127
2, 87800, Note_off_c, 1, 38, 0
2, 87800, Note_off_c, 1, 42, 0
2, 87800, Note_off_c, 1, 50, 0
2, 87800, Note_off_c, 1, 78, 0
2, 87800, Note_off_c, 1, 81, 0
2, 87800, Note_off_c, 1, 86, 0
2, 87800, Note_off_c, 1, 90, 0
2, 87840, Note_on_c, 1, 57, 127
2, 87840, Note_on_c, 1, 60, 127
2, 87840, Note_on_c, 1, 64, 127
2, 87840, Note_on_c, 1, 80, 127
2, 87920, Note_off_c, 1, 57, 0
2, 87920, Note_off_c, 1, 60, 0
2, 87920, Note_off_c, 1, 64, 0
2, 87920, Note_off_c, 1, 80, 0
2, 88000, Note_on_c, 1, 72, 127
2, 88000, Note_on_c, 1, 79, 127
2, 88000, Note_on_c, 1, 82, 127
2, 88000, Note_on_c, 1, 89, 127
2, 88000, Note_on_c, 1, 96, 127
2, 88000, Note_on_c, 1, 101, 127
2, 88040, Note_on_c, 1, 66, 127
2, 88040, Note_off_c, 1, 72, 0
2, 88040, Note_on_c, 1, 78, 127
2, 88040, Note_off_c, 1, 79, 0
2, 88040, Note_on_c, 1, 81, 127
2, 88040, Note_off_c, 1, 82, 0
2, 88040, Note_on_c, 1, 86, 127
2, 88040, Note_off_c, 1, 89, 0
2, 88040, Note_on_c, 1, 90, 127
2, 88040, Note_off_c, 1, 96, 0
2, 88040, Note_off_c, 1, 101, 0
2, 88120, Note_off_c, 1, 66, 0
2, 88120, Note_off_c, 1, 78, 0
2, 88120, Note_off_c, 1, 81, 0
2, 88120, Note_off_c, 1, 86, 0
2, 88120, Note_off_c, 1, 90, 0
2, 88160, Note_on_c, 1, 54, 127
2, 88160, Note_on_c, 1, 85, 127
2, 88160, Note_on_c, 1, 93, 127
2, 88160, Note_on_c, 1, 97, 127
2, 88240, Note_off_c, 1, 54, 0
2, 88240, Note_off_c, 1, 85, 0
2, 88240, Note_off_c, 1, 93, 0
2, 88240, Note_off_c, 1, 97, 0
2, 88280, Note_on_c, 1, 33, 127
2, 88280, Note_on_c, 1, 36, 127
2, 88280, Note_on_c, 1, 57, 127
2, 88280, Note_on_c, 1, 60, 127
2, 88320, Note_off_c, 1, 33, 0
2, 88320, Note_off_c, 1, 36, 0
2, 88320, Note_on_c, 1, 43, 127
2, 88320, Note_off_c, 1, 57, 0
2, 88320, Note_off_c, 1, 60, 0
2, 88320, Note_on_c, 1, 67, 127
2, 88320, Note_on_c, 1, 79, 127
2, 88400, Note_off_c, 1, 43, 0
2, 88400, Note_off_c, 1, 67, 0
2, 88400, Note_off_c, 1, 79, 0
2, 88440, Note_on_c, 1, 56, 127
2, 88440, Note_on_c, 1, 59, 127
2, 88440, Note_on_c, 1, 62, 127
2, 88440, Note_on_c, 1, 65, 127
2, 88440, Note_on_c, 1, 68, 127
2, 88440, Note_on_c, 1, 80, 127
2, 88560, Note_off_c, 1, 56, 0
2, 88560, Note_off_c, 1, 59, 0
2, 88560, Note_off_c, 1, 62, 0
2, 88560, Note_off_c, 1, 65, 0
2, 88560, Note_off_c, 1, 68, 0
2, 88560, Note_off_c, 1, 80, 0
2, 88600, Note_on_c, 1, 38, 127
2, 88600, Note_on_c, 1, 50, 127
2, 88600, Note_on_c, 1, 69, 127
2, 88600, Note_on_c, 1, 74, 127
2, 88600, Note_on_c, 1, 81, 127
2, 88680, Note_off_c, 1, 38, 0
2, 88680, Note_off_c, 1, 50, 0
2, 88680, Note_off_c, 1, 69, 0
2, 88680, Note_off_c, 1, 74, 0
2, 88680, Note_off_c, 1, 81, 0
2, 88720, Note_on_c, 1, 52, 127
2, 88720, Note_on_c, 1, 56, 127
2, 88720, Note_on_c, 1, 59, 127
2, 88720, Note_on_c, 1, 68, 127
2, 88720, Note_on_c, 1, 76, 127
2, 88760, Note_off_c, 1, 52, 0
2, 88760, Note_off_c, 1, 56, 0
2, 88760, Note_off_c, 1, 59, 0
2, 88760, Note_off_c, 1, 68, 0
2, 88760, Note_off_c, 1, 76, 0
2, 88880, Note_on_c, 1, 50, 127
2, 88880, Note_on_c, 1, 57, 127
2, 88880, Note_on_c, 1, 65, 127
2, 88880, Note_on_c, 1, 74, 127
2, 88880, Note_on_c, 1, 77, 127
2, 88880, Note_on_c, 1, 81, 127
2, 88880, Note_on_c, 1, 86, 127
2, 88960, Note_off_c, 1, 50, 0
2, 88960, Note_off_c, 1, 57, 0
2, 88960, Note_off_c, 1, 65, 0
2, 88960, Note_off_c, 1, 74, 0
2, 88960, Note_off_c, 1, 77, 0
2, 88960, Note_off_c, 1, 81, 0
2, 88960, Note_off_c, 1, 86, 0
2, 89000, Note_on_c, 1, 56, 127
2, 89000, Note_on_c, 1, 61, 127
2, 89000, Note_on_c, 1, 81, 127
2, 89120, Note_off_c, 1, 56, 0
2, 89120, Note_off_c, 1, 61, 0
2, 89120, Note_off_c, 1, 81, 0
2, 89160, Note_on_c, 1, 52, 127
2, 89160, Note_on_c, 1, 62, 127
2, 89160, Note_on_c, 1, 74, 127
2, 89160, Note_on_c, 1, 95, 127
2, 89400, Note_off_c, 1, 52, 0
2, 89400, Note_off_c, 1, 62, 0
2, 89400, Note_off_c, 1, 74, 0
2, 89400, Note_off_c, 1, 95, 0
2, 89440, Note_on_c, 1, 38, 127
2, 89440, Note_on_c, 1, 42, 127
2, 89440, Note_on_c, 1, 50, 127
2, 89440, Note_on_c, 1, 78, 127
2, 89440, Note_on_c, 1, 90, 127
2, 89560, Note_off_c, 1, 38, 0
2, 89560, Note_off_c, 1, 42, 0
2, 89560, Note_off_c, 1, 50, 0
2, 89560, Note_off_c, 1, 78, 0
2, 89560, Note_off_c, 1, 90, 0
2, 89600, Note_on_c, 1, 38, 127
2, 89600, Note_on_c, 1, 42, 127
2, 89600, Note_on_c, 1, 50, 127
2, 89600, Note_on_c, 1, 78, 127
2, 89600, Note_on_c, 1, 90, 127
2, 89680, Note_off_c, 1, 38, 0
2, 89680, Note_off_c, 1, 42, 0
2, 89680, Note_off_c, 1, 50, 0
2, 89680, Note_off_c, 1, 78, 0
2, 89680, Note_off_c, 1, 90, 0
2, 89720, Note_on_c, 1, 52, 127
2, 89720, Note_on_c, 1, 64, 127
2, 89720, Note_on_c, 1, 74, 127
2, 89720, Note_on_c, 1, 76, 127
2, 89720, Note_on_c, 1, 80, 127
2, 89720, Note_on_c, 1, 83, 127
2, 90000, Note_off_c, 1, 52, 0
2, 90000, Note_off_c, 1, 64, 0
2, 90000, Note_off_c, 1, 74, 0
2, 90000, Note_off_c, 1, 76, 0
2, 90000, Note_off_c, 1, 80, 0
2, 90000, Note_off_c, 1, 83, 0
2, 90080, Note_on_c, 1, 46, 127
2, 90080, Note_on_c, 1, 48, 127
2, 90080, Note_on_c, 1, 52, 127
2, 90080, Note_on_c, 1, 60, 127
2, 90080, Note_on_c, 1, 64, 127
2, 90080, Note_on_c, 1, 72, 127
2, 90240, Note_off_c, 1, 48, 0
2, 90240, Note_off_c, 1, 60, 0
2, 90280, Note_off_c, 1, 46, 0
2, 90280, Note_off_c, 1, 52, 0
2, 90280, Note_on_c, 1, 60, 127
2, 90280, Note_on_c, 1, 63, 127
2, 90280, Note_off_c, 1, 64, 0
2, 90280, Note_on_c, 1, 66, 127
2, 90280, Note_off_c, 1, 72, 0
2, 90280, Note_on_c, 1, 74, 127
2, 90280, Note_on_c, 1, 78, 127
2, 90320, Note_off_c, 1, 60, 0
2, 90320, Note_off_c, 1, 63, 0
2, 90320, Note_off_c, 1, 66, 0
2, 90320, Note_off_c, 1, 74, 0
2, 90320, Note_off_c, 1, 78, 0
2, 90360, Note_on_c, 1, 36, 127
2, 90360, Note_on_c, 1, 43, 127
2, 90360, Note_on_c, 1, 48, 127
2, 90360, Note_on_c, 1, 52, 127
2, 90360, Note_on_c, 1, 60, 127
2, 91200, Note_off_c, 1, 36, 0
2, 91200, Note_off_c, 1, 43, 0
2, 91200, Note_off_c, 1, 48, 0
2, 91200, Note_on_c, 1, 51, 127
2, 91200, Note_off_c, 1, 52, 0
2, 91200, Note_on_c, 1, 56, 127
2, 91200, Note_off_c, 1, 60, 0
2, 91200, Note_on_c, 1, 66, 127
2, 91200, Note_on_c, 1, 72, 127
2, 91200, Note_on_c, 1, 78, 127
2, 91320, Note_off_c, 1, 51, 0
2, 91320, Note_off_c, 1, 56, 0
2, 91320, Note_off_c, 1, 66, 0
2, 91320, Note_off_c, 1, 72, 0
2, 91320, Note_off_c, 1, 78, 0
2, 91600, Note_on_c, 1, 31, 127
2, 91600, Note_on_c, 1, 43, 127
2, 91600, Note_on_c, 1, 55, 127
2, 92560, Note_off_c, 1, 31, 0
2, 92560, Note_off_c, 1, 43, 0
2, 92560, Note_off_c, 1, 55, 0
2, 92600, Note_on_c, 1, 63, 127
2, 92600, Note_on_c, 1, 67, 127
2, 92600, Note_on_c, 1, 84, 127
2, 92640, Note_off_c, 1, 63, 0
2, 92640, Note_off_c, 1, 67, 0
2, 92680, Note_on_c, 1, 63, 127
2, 92680, Note_on_c, 1, 67, 127
2, 92720, Note_off_c, 1, 63, 0
2, 92720, Note_off_c, 1, 67, 0
2, 92720, Note_off_c, 1, 84, 0
2, 92760, Note_on_c, 1, 63, 127
2, 92760, Note_on_c, 1, 67, 127
2, 92760, Note_on_c, 1, 84, 127
2, 92800, Note_off_c, 1, 63, 0
2, 92800, Note_off_c, 1, 67, 0
2, 92800, Note_off_c, 1, 84, 0
2, 92800, Note_on_c, 1, 85, 127
2, 92840, Note_on_c, 1, 63, 127
2, 92840, Note_on_c, 1, 67, 127
2, 92840, Note_on_c, 1, 84, 127
2, 92840, Note_off_c, 1, 85, 0
2, 92880, Note_off_c, 1, 63, 0
2, 92880, Note_off_c, 1, 67, 0
2, 92880, Note_off_c, 1, 84, 0
2, 92960, Note_on_c, 1, 62, 127
2, 92960, Note_on_c, 1, 65, 127
2, 92960, Note_on_c, 1, 84, 127
2, 93000, Note_off_c, 1, 62, 0
2, 93000, Note_off_c, 1, 65, 0
2, 93040, Note_on_c, 1, 62, 127
2, 93040, Note_on_c, 1, 65, 127
2, 93080, Note_off_c, 1, 62, 0
2, 93080, Note_off_c, 1, 65, 0
2, 93120, Note_off_c, 1, 84, 0
2, 93160, Note_on_c, 1, 61, 127
2, 93160, Note_on_c, 1, 65, 127
2, 93160, Note_on_c, 1, 82, 127
2, 93200, Note_off_c, 1, 61, 0
2, 93200, Note_off_c, 1, 65, 0
2, 93200, Note_off_c, 1, 82, 0
2, 93240, Note_on_c, 1, 65, 127
2, 93240, Note_on_c, 1, 67, 127
2, 93240, Note_on_c, 1, 82, 127
2, 93280, Note_on_c, 1, 62, 127
2, 93280, Note_off_c, 1, 67, 0
2, 93280, Note_off_c, 1, 82, 0
2, 93280, Note_on_c, 1, 89, 127
2, 93320, Note_off_c, 1, 62, 0
2, 93320, Note_off_c, 1, 65, 0
2, 93320, Note_off_c, 1, 89, 0
2, 93360, Note_on_c, 1, 60, 127
2, 93360, Note_on_c, 1, 63, 127
2, 93360, Note_on_c, 1, 81, 127
2, 93400, Note_off_c, 1, 60, 0
2, 93400, Note_off_c, 1, 63, 0
2, 93400, Note_off_c, 1, 81, 0
2, 93480, Note_on_c, 1, 63, 127
2, 93480, Note_on_c, 1, 67, 127
2, 93480, Note_on_c, 1, 72, 127
2, 93480, Note_on_c, 1, 84, 127
2, 93520, Note_off_c, 1, 63, 0
2, 93520, Note_off_c, 1, 67, 0
2, 93520, Note_off_c, 1, 72, 0
2, 93520, Note_off_c, 1, 84, 0
2, 93560, Note_on_c, 1, 60, 127
2, 93560, Note_on_c, 1, 63, 127
2, 93560, Note_on_c, 1, 67, 127
2, 93560, Note_on_c, 1, 72, 127
2, 93560, Note_on_c, 1, 84, 127
2, 93600, Note_off_c, 1, 60, 0
2, 93600, Note_off_c, 1, 63, 0
2, 93600, Note_off_c, 1, 67, 0
2, 93600, Note_off_c, 1, 72, 0
2, 93600, Note_off_c, 1, 84, 0
2, 93680, Note_on_c, 1, 60, 127
2, 93680, Note_on_c, 1, 63, 127
2, 93680, Note_on_c, 1, 67, 127
2, 93680, Note_on_c, 1, 72, 127
2, 93680, Note_on_c, 1, 84, 127
2, 93720, Note_off_c, 1, 60, 0
2, 93720, Note_off_c, 1, 63, 0
2, 93720, Note_off_c, 1, 67, 0
2, 93720, Note_off_c, 1, 72, 0
2, 93720, Note_off_c, 1, 84, 0
2, 93760, Note_on_c, 1, 60, 127
2, 93760, Note_on_c, 1, 63, 127
2, 93760, Note_on_c, 1, 67, 127
2, 93760, Note_on_c, 1, 72, 127
2, 93760, Note_on_c, 1, 84, 127
2, 93840, Note_off_c, 1, 60, 0
2, 93840, Note_off_c, 1, 63, 0
2, 93840, Note_off_c, 1, 67, 0
2, 93840, Note_off_c, 1, 72, 0
2, 93840, Note_off_c, 1, 84, 0
2, 93920, Note_on_c, 1, 36, 127
2, 93920, Note_on_c, 1, 48, 127
2, 93920, Note_on_c, 1, 60, 127
2, 93920, Note_on_c, 1, 63, 127
2, 93920, Note_on_c, 1, 67, 127
2, 93960, Note_off_c, 1, 36, 0
2, 93960, Note_off_c, 1, 48, 0
2, 93960, Note_off_c, 1, 60, 0
2, 93960, Note_off_c, 1, 63, 0
2, 93960, Note_off_c, 1, 67, 0
2, 94000, Note_on_c, 1, 60, 127
2, 94000, Note_on_c, 1, 63, 127
2, 94000, Note_on_c, 1, 68, 127
2, 94040, Note_on_c, 1, 59, 127
2, 94040, Note_off_c, 1, 60, 0
2, 94040, Note_on_c, 1, 62, 127
2, 94040, Note_off_c, 1, 63, 0
2, 94040, Note_on_c, 1, 67, 127
2, 94040, Note_off_c, 1, 68, 0
2, 94040, Note_on_c, 1, 75, 127
2, 94080, Note_off_c, 1, 59, 0
2, 94080, Note_on_c, 1, 60, 127
2, 94080, Note_off_c, 1, 62, 0
2, 94080, Note_on_c, 1, 63, 127
2, 94080, Note_off_c, 1, 67, 0
2, 94080, Note_on_c, 1, 68, 127
2, 94080, Note_off_c, 1, 75, 0
2, 94080, Note_on_c, 1, 80, 127
2, 94120, Note_off_c, 1, 60, 0
2, 94120, Note_off_c, 1, 63, 0
2, 94120, Note_off_c, 1, 68, 0
2, 94120, Note_on_c, 1, 69, 127
2, 94120, Note_off_c, 1, 80, 0
2, 94160, Note_on_c, 1, 59, 127
2, 94160, Note_on_c, 1, 62, 127
2, 94160, Note_on_c, 1, 67, 127
2, 94160, Note_off_c, 1, 69, 0
2, 94160, Note_on_c, 1, 79, 127
2, 94200, Note_off_c, 1, 59, 0
2, 94200, Note_off_c, 1, 62, 0
2, 94200, Note_off_c, 1, 67, 0
2, 94200, Note_off_c, 1, 79, 0
2, 94240, Note_on_c, 1, 60, 127
2, 94240, Note_on_c, 1, 64, 127
2, 94240, Note_on_c, 1, 67, 127
2, 94240, Note_on_c, 1, 79, 127
2, 94280, Note_off_c, 1, 60, 0
2, 94280, Note_off_c, 1, 64, 0
2, 94280, Note_off_c, 1, 67, 0
2, 94280, Note_on_c, 1, 72, 127
2, 94280, Note_off_c, 1, 79, 0
2, 94320, Note_on_c, 1, 60, 127
2, 94320, Note_on_c, 1, 63, 127
2, 94320, Note_on_c, 1, 67, 127
2, 94320, Note_off_c, 1, 72, 0
2, 94320, Note_on_c, 1, 79, 127
2, 94360, Note_off_c, 1, 60, 0
2, 94360, Note_off_c, 1, 63, 0
2, 94360, Note_off_c, 1, 67, 0
2, 94360, Note_on_c, 1, 71, 127
2, 94360, Note_off_c, 1, 79, 0
2, 94400, Note_on_c, 1, 57, 127
2, 94400, Note_on_c, 1, 64, 127
2, 94400, Note_on_c, 1, 69, 127
2, 94400, Note_off_c, 1, 71, 0
2, 94400, Note_on_c, 1, 72, 127
2, 94400, Note_on_c, 1, 78, 127
2, 94440, Note_off_c, 1, 57, 0
2, 94440, Note_off_c, 1, 64, 0
2, 94440, Note_off_c, 1, 69, 0
2, 94440, Note_off_c, 1, 72, 0
2, 94440, Note_off_c, 1, 78, 0
2, 94520, Note_on_c, 1, 59, 127
2, 94520, Note_on_c, 1, 62, 127
2, 94520, Note_on_c, 1, 67, 127
2, 94520, Note_on_c, 1, 79, 127
2, 94560, Note_off_c, 1, 59, 0
2, 94560, Note_off_c, 1, 62, 0
2, 94560, Note_off_c, 1, 67, 0
2, 94560, Note_off_c, 1, 79, 0
2, 94600, Note_on_c, 1, 43, 127
2, 94600, Note_on_c, 1, 49, 127
2, 94600, Note_on_c, 1, 58, 127
2, 94600, Note_on_c, 1, 64, 127
2, 94600, Note_on_c, 1, 70, 127
2, 94640, Note_off_c, 1, 43, 0
2, 94640, Note_off_c, 1, 49, 0
2, 94640, Note_off_c, 1, 58, 0
2, 94640, Note_off_c, 1, 64, 0
2, 94640, Note_off_c, 1, 70, 0
2, 94680, Note_on_c, 1, 55, 127
2, 94680, Note_on_c, 1, 81, 127
2, 94680, Note_on_c, 1, 85, 127
2, 94720, Note_off_c, 1, 55, 0
2, 94720, Note_off_c, 1, 81, 0
2, 94720, Note_off_c, 1, 85, 0
2, 94760, Note_on_c, 1, 49, 127
2, 94760, Note_on_c, 1, 61, 127
2, 94760, Note_on_c, 1, 72, 127
2, 94760, Note_on_c, 1, 73, 127
2, 94800, Note_off_c, 1, 49, 0
2, 94800, Note_on_c, 1, 53, 127
2, 94800, Note_on_c, 1, 60, 127
2, 94800, Note_off_c, 1, 61, 0
2, 94800, Note_off_c, 1, 72, 0
2, 94800, Note_off_c, 1, 73, 0
2, 94840, Note_off_c, 1, 53, 0
2, 94840, Note_on_c, 1, 56, 127
2, 94840, Note_off_c, 1, 60, 0
2, 94840, Note_on_c, 1, 72, 127
2, 94840, Note_on_c, 1, 84, 127
2, 94880, Note_on_c, 1, 33, 127
2, 94880, Note_on_c, 1, 40, 127
2, 94880, Note_on_c, 1, 45, 127
2, 94880, Note_on_c, 1, 49, 127
2, 94880, Note_on_c, 1, 52, 127
2, 94880, Note_off_c, 1, 56, 0
2, 94880, Note_on_c, 1, 57, 127
2, 94880, Note_on_c, 1, 61, 127
2, 94880, Note_on_c, 1, 64, 127
2, 94880, Note_on_c, 1, 69, 127
2, 94880, Note_off_c, 1, 72, 0
2, 94880, Note_on_c, 1, 81, 127
2, 94880, Note_off_c, 1, 84, 0
2, 94880, Note_on_c, 1, 85, 127
2, 94880, Note_on_c, 1, 93, 127
2, 94920, Note_off_c, 1, 33, 0
2, 94920, Note_on_c, 1, 34, 127
2, 94920, Note_off_c, 1, 40, 0
2, 94920, Note_off_c, 1, 45, 0
2, 94920, Note_on_c, 1, 46, 127
2, 94920, Note_off_c, 1, 49, 0
2, 94920, Note_off_c, 1, 52, 0
2, 94920, Note_off_c, 1, 57, 0
2, 94920, Note_off_c, 1, 61, 0
2, 94920, Note_off_c, 1, 64, 0
2, 94920, Note_off_c, 1, 69, 0
2, 94920, Note_on_c, 1, 76, 127
2, 94920, Note_off_c, 1, 81, 0
2, 94920, Note_off_c, 1, 85, 0
2, 94920, Note_on_c, 1, 88, 127
2, 94920, Note_off_c, 1, 93, 0
2, 94960, Note_on_c, 1, 32, 127
2, 94960, Note_off_c, 1, 34, 0
2, 94960, Note_on_c, 1, 39, 127
2, 94960, Note_on_c, 1, 44, 127
2, 94960, Note_off_c, 1, 46, 0
2, 94960, Note_off_c, 1, 76, 0
2, 94960, Note_off_c, 1, 88, 0
2, 94960, Note_on_c, 1, 92, 127
2, 94960, Note_on_c, 1, 96, 127
2, 94960, Note_on_c, 1, 104, 127
2, 95000, Note_off_c, 1, 32, 0
2, 95000, Note_on_c, 1, 37, 127
2, 95000, Note_off_c, 1, 39, 0
2, 95000, Note_on_c, 1, 49, 127
2, 95000, Note_on_c, 1, 52, 127
2, 95000, Note_on_c, 1, 56, 127
2, 95000, Note_on_c, 1, 61, 127
2, 95000, Note_on_c, 1, 64, 127
2, 95000, Note_on_c, 1, 73, 127
2, 95000, Note_off_c, 1, 92, 0
2, 95000, Note_off_c, 1, 96, 0
2, 95000, Note_off_c, 1, 104, 0
2, 95040, Note_off_c, 1, 37, 0
2, 95040, Note_off_c, 1, 44, 0
2, 95040, Note_off_c, 1, 49, 0
2, 95040, Note_off_c, 1, 52, 0
2, 95040, Note_off_c, 1, 56, 0
2, 95040, Note_off_c, 1, 61, 0
2, 95040, Note_off_c, 1, 64, 0
2, 95040, Note_off_c, 1, 73, 0
2, 95040, Note_on_c, 1, 87, 127
2, 95040, Note_on_c, 1, 88, 127
2, 95040, Note_on_c, 1, 90, 127
2, 95040, Note_on_c, 1, 91, 127
2, 95080, Note_on_c, 1, 53, 127
2, 95080, Note_on_c, 1, 56, 127
2, 95080, Note_on_c, 1, 62, 127
2, 95080, Note_on_c, 1, 65, 127
2, 95080, Note_off_c, 1, 87, 0
2, 95080, Note_off_c, 1, 88, 0
2, 95080, Note_off_c, 1, 90, 0
2, 95080, Note_off_c, 1, 91, 0
2, 95120, Note_off_c, 1, 53, 0
2, 95120, Note_off_c, 1, 56, 0
2, 95120, Note_off_c, 1, 62, 0
2, 95120, Note_off_c, 1, 65, 0
2, 95120, Note_on_c, 1, 84, 127
2, 95160, Note_off_c, 1, 84, 0
2, 95240, Note_on_c, 1, 69, 127
2, 95240, Note_on_c, 1, 71, 127
2, 95240, Note_on_c, 1, 78, 127
2, 95240, Note_on_c, 1, 94, 127
2, 95280, Note_on_c, 1, 74, 127
2, 95280, Note_off_c, 1, 78, 0
2, 95280, Note_on_c, 1, 83, 127
2, 95280, Note_off_c, 1, 94, 0
2, 95320, Note_on_c, 1, 51, 127
2, 95320, Note_off_c, 1, 69, 0
2, 95320, Note_off_c, 1, 71, 0
2, 95320, Note_off_c, 1, 74, 0
2, 95320, Note_on_c, 1, 75, 127
2, 95320, Note_on_c, 1, 82, 127
2, 95320, Note_off_c, 1, 83, 0
2, 95320, Note_on_c, 1, 84, 127
2, 95360, Note_on_c, 1, 34, 127
2, 95360, Note_on_c, 1, 35, 127
2, 95360, Note_on_c, 1, 47, 127
2, 95360, Note_on_c, 1, 50, 127
2, 95360, Note_off_c, 1, 51, 0
2, 95360, Note_on_c, 1, 53, 127
2, 95360, Note_off_c, 1, 75, 0
2, 95360, Note_off_c, 1, 82, 0
2, 95360, Note_off_c, 1, 84, 0
2, 95400, Note_off_c, 1, 34, 0
2, 95400, Note_off_c, 1, 35, 0
2, 95400, Note_on_c, 1, 36, 127
2, 95400, Note_on_c, 1, 43, 127
2, 95400, Note_off_c, 1, 47, 0
2, 95400, Note_off_c, 1, 50, 0
2, 95400, Note_off_c, 1, 53, 0
2, 95400, Note_on_c, 1, 67, 127
2, 95440, Note_off_c, 1, 36, 0
2, 95440, Note_off_c, 1, 43, 0
2, 95440, Note_on_c, 1, 54, 127
2, 95440, Note_on_c, 1, 64, 127
2, 95440, Note_off_c, 1, 67, 0
2, 95440, Note_on_c, 1, 71, 127
2, 95440, Note_on_c, 1, 76, 127
2, 95480, Note_off_c, 1, 54, 0
2, 95480, Note_off_c, 1, 64, 0
2, 95480, Note_off_c, 1, 71, 0
2, 95480, Note_off_c, 1, 76, 0
2, 95480, Note_on_c, 1, 81, 127
2, 95480, Note_on_c, 1, 95, 127
2, 95480, Note_on_c, 1, 100, 127
2, 95480, Note_on_c, 1, 101, 127
2, 95520, Note_on_c, 1, 78, 127
2, 95520, Note_on_c, 1, 80, 127
2, 95520, Note_off_c, 1, 95, 0
2, 95520, Note_off_c, 1, 100, 0
2, 95520, Note_off_c, 1, 101, 0
2, 95560, Note_on_c, 1, 49, 127
2, 95560, Note_on_c, 1, 55, 127
2, 95560, Note_on_c, 1, 58, 127
2, 95560, Note_on_c, 1, 64, 127
2, 95560, Note_on_c, 1, 75, 127
2, 95560, Note_off_c, 1, 78, 0
2, 95560, Note_off_c, 1, 80, 0
2, 95560, Note_off_c, 1, 81, 0
2, 95560, Note_on_c, 1, 87, 127
2, 95600, Note_on_c, 1, 35, 127
2, 95600, Note_on_c, 1, 41, 127
2, 95600, Note_on_c, 1, 44, 127
2, 95600, Note_off_c, 1, 49, 0
2, 95600, Note_on_c, 1, 50, 127
2, 95600, Note_on_c, 1, 53, 127
2, 95600, Note_off_c, 1, 55, 0
2, 95600, Note_off_c, 1, 58, 0
2, 95600, Note_on_c, 1, 59, 127
2, 95600, Note_off_c, 1, 64, 0
2, 95600, Note_off_c, 1, 75, 0
2, 95600, Note_off_c, 1, 87, 0
2, 95640, Note_off_c, 1, 35, 0
2, 95640, Note_off_c, 1, 41, 0
2, 95640, Note_off_c, 1, 44, 0
2, 95640, Note_off_c, 1, 50, 0
2, 95640, Note_off_c, 1, 59, 0
2, 95640, Note_on_c, 1, 60, 127
2, 95640, Note_on_c, 1, 63, 127
2, 95640, Note_on_c, 1, 70, 127
2, 95640, Note_on_c, 1, 101, 127
2, 95680, Note_off_c, 1, 53, 0
2, 95680, Note_off_c, 1, 60, 0
2, 95680, Note_off_c, 1, 63, 0
2, 95680, Note_off_c, 1, 70, 0
2, 95680, Note_on_c, 1, 73, 127
2, 95680, Note_on_c, 1, 78, 127
2, 95680, Note_on_c, 1, 81, 127
2, 95680, Note_on_c, 1, 87, 127
2, 95680, Note_on_c, 1, 92, 127
2, 95680, Note_on_c, 1, 96, 127
2, 95680, Note_off_c, 1, 101, 0
2, 95720, Note_on_c, 1, 55, 127
2, 95720, Note_off_c, 1, 73, 0
2, 95720, Note_off_c, 1, 78, 0
2, 95720, Note_off_c, 1, 81, 0
2, 95720, Note_off_c, 1, 87, 0
2, 95720, Note_off_c, 1, 92, 0
2, 95720, Note_on_c, 1, 93, 127
2, 95760, Note_off_c, 1, 55, 0
2, 95760, Note_on_c, 1, 59, 127
2, 95760, Note_on_c, 1, 63, 127
2, 95760, Note_on_c, 1, 68, 127
2, 95760, Note_on_c, 1, 85, 127
2, 95760, Note_off_c, 1, 93, 0
2, 95760, Note_off_c, 1, 96, 0
2, 95800, Note_on_c, 1, 53, 127
2, 95800, Note_off_c, 1, 59, 0
2, 95800, Note_off_c, 1, 63, 0
2, 95800, Note_off_c, 1, 68, 0
2, 95800, Note_on_c, 1, 72, 127
2, 95800, Note_on_c, 1, 73, 127
2, 95800, Note_off_c, 1, 85, 0
2, 95840, Note_off_c, 1, 53, 0
2, 95840, Note_on_c, 1, 56, 127
2, 95840, Note_on_c, 1, 61, 127
2, 95840, Note_on_c, 1, 64, 127
2, 95840, Note_on_c, 1, 69, 127
2, 95840, Note_off_c, 1, 72, 0
2, 95840, Note_off_c, 1, 73, 0
2, 95840, Note_on_c, 1, 80, 127
2, 95840, Note_on_c, 1, 88, 127
2, 95880, Note_on_c, 1, 55, 127
2, 95880, Note_off_c, 1, 56, 0
2, 95880, Note_off_c, 1, 61, 0
2, 95880, Note_off_c, 1, 64, 0
2, 95880, Note_off_c, 1, 69, 0
2, 95880, Note_on_c, 1, 72, 127
2, 95880, Note_on_c, 1, 73, 127
2, 95880, Note_off_c, 1, 80, 0
2, 95880, Note_off_c, 1, 88, 0
2, 95920, Note_off_c, 1, 55, 0
2, 95920, Note_on_c, 1, 57, 127
2, 95920, Note_on_c, 1, 59, 127
2, 95920, Note_on_c, 1, 63, 127
2, 95920, Note_on_c, 1, 66, 127
2, 95920, Note_on_c, 1, 67, 127
2, 95920, Note_off_c, 1, 72, 0
2, 95920, Note_off_c, 1, 73, 0
2, 95960, Note_on_c, 1, 32, 127
2, 95960, Note_on_c, 1, 44, 127
2, 95960, Note_off_c, 1, 57, 0
2, 95960, Note_off_c, 1, 59, 0
2, 95960, Note_off_c, 1, 63, 0
2, 95960, Note_off_c, 1, 66, 0
2, 95960, Note_off_c, 1, 67, 0
2, 95960, Note_on_c, 1, 73, 127
2, 95960, Note_on_c, 1, 75, 127
2, 95960, Note_on_c, 1, 80, 127
2, 95960, Note_on_c, 1, 85, 127
2, 96000, Note_off_c, 1, 32, 0
2, 96000, Note_off_c, 1, 44, 0
2, 96000, Note_on_c, 1, 55, 127
2, 96000, Note_on_c, 1, 57, 127
2, 96000, Note_on_c, 1, 60, 127
2, 96000, Note_on_c, 1, 63, 127
2, 96000, Note_off_c, 1, 73, 0
2, 96000, Note_off_c, 1, 75, 0
2, 96000, Note_off_c, 1, 80, 0
2, 96000, Note_off_c, 1, 85, 0
2, 96040, Note_off_c, 1, 55, 0
2, 96040, Note_off_c, 1, 57, 0
2, 96040, Note_off_c, 1, 60, 0
2, 96040, Note_off_c, 1, 63, 0
2, 96040, Note_on_c, 1, 66, 127
2, 96040, Note_on_c, 1, 67, 127
2, 96040, Note_on_c, 1, 89, 127
2, 96040, Note_on_c, 1, 98, 127
2, 96080, Note_on_c, 1, 58, 127
2, 96080, Note_on_c, 1, 63, 127
2, 96080, Note_off_c, 1, 66, 0
2, 96080, Note_off_c, 1, 67, 0
2, 96080, Note_on_c, 1, 87, 127
2, 96080, Note_off_c, 1, 89, 0
2, 96080, Note_on_c, 1, 94, 127
2, 96080, Note_off_c, 1, 98, 0
2, 96120, Note_on_c, 1, 33, 127
2, 96120, Note_on_c, 1, 40, 127
2, 96120, Note_on_c, 1, 45, 127
2, 96120, Note_off_c, 1, 58, 0
2, 96120, Note_off_c, 1, 63, 0
2, 96120, Note_on_c, 1, 64, 127
2, 96120, Note_on_c, 1, 72, 127
2, 96120, Note_on_c, 1, 76, 127
2, 96120, Note_off_c, 1, 87, 0
2, 96120, Note_off_c, 1, 94, 0
2, 96160, Note_off_c, 1, 33, 0
2, 96160, Note_off_c, 1, 40, 0
2, 96160, Note_off_c, 1, 45, 0
2, 96160, Note_on_c, 1, 50, 127
2, 96160, Note_on_c, 1, 53, 127
2, 96160, Note_on_c, 1, 56, 127
2, 96160, Note_off_c, 1, 64, 0
2, 96160, Note_off_c, 1, 72, 0
2, 96160, Note_on_c, 1, 74, 127
2, 96160, Note_off_c, 1, 76, 0
2, 96200, Note_on_c, 1, 41, 127
2, 96200, Note_on_c, 1, 46, 127
2, 96200, Note_off_c, 1, 50, 0
2, 96200, Note_off_c, 1, 53, 0
2, 96200, Note_off_c, 1, 56, 0
2, 96200, Note_on_c, 1, 72, 127
2, 96200, Note_off_c, 1, 74, 0
2, 96240, Note_off_c, 1, 41, 0
2, 96240, Note_off_c, 1, 46, 0
2, 96240, Note_on_c, 1, 50, 127
2, 96240, Note_on_c, 1, 59, 127
2, 96240, Note_off_c, 1, 72, 0
2, 96240, Note_on_c, 1, 89, 127
2, 96280, Note_on_c, 1, 39, 127
2, 96280, Note_on_c, 1, 49, 127
2, 96280, Note_off_c, 1, 50, 0
2, 96280, Note_off_c, 1, 59, 0
2, 96280, Note_on_c, 1, 61, 127
2, 96280, Note_on_c, 1, 67, 127
2, 96280, Note_on_c, 1, 73, 127
2, 96280, Note_off_c, 1, 89, 0
2, 96320, Note_off_c, 1, 39, 0
2, 96320, Note_on_c, 1, 40, 127
2, 96320, Note_on_c, 1, 47, 127
2, 96320, Note_off_c, 1, 49, 0
2, 96320, Note_on_c, 1, 52, 127
2, 96320, Note_on_c, 1, 59, 127
2, 96320, Note_off_c, 1, 61, 0
2, 96320, Note_on_c, 1, 64, 127
2, 96320, Note_off_c, 1, 67, 0
2, 96320, Note_off_c, 1, 73, 0
2, 96360, Note_off_c, 1, 40, 0
2, 96360, Note_off_c, 1, 47, 0
2, 96360, Note_off_c, 1, 52, 0
2, 96360, Note_off_c, 1, 59, 0
2, 96360, Note_off_c, 1, 64, 0
2, 96360, Note_on_c, 1, 71, 127
2, 96360, Note_on_c, 1, 80, 127
2, 96360, Note_on_c, 1, 83, 127
2, 96360, Note_on_c, 1, 100, 127
2, 96400, Note_off_c, 1, 71, 0
2, 96400, Note_on_c, 1, 73, 127
2, 96400, Note_on_c, 1, 90, 127
2, 96400, Note_on_c, 1, 97, 127
2, 96400, Note_off_c, 1, 100, 0
2, 96400, Note_on_c, 1, 102, 127
2, 96440, Note_off_c, 1, 73, 0
2, 96440, Note_off_c, 1, 80, 0
2, 96440, Note_on_c, 1, 85, 127
2, 96440, Note_on_c, 1, 88, 127
2, 96440, Note_off_c, 1, 90, 0
2, 96440, Note_on_c, 1, 91, 127
2, 96440, Note_on_c, 1, 95, 127
2, 96440, Note_off_c, 1, 97, 0
2, 96440, Note_off_c, 1, 102, 0
2, 96480, Note_on_c, 1, 50, 127
2, 96480, Note_on_c, 1, 61, 127
2, 96480, Note_on_c, 1, 70, 127
2, 96480, Note_on_c, 1, 72, 127
2, 96480, Note_off_c, 1, 83, 0
2, 96480, Note_off_c, 1, 85, 0
2, 96480, Note_off_c, 1, 88, 0
2, 96480, Note_off_c, 1, 91, 0
2, 96480, Note_off_c, 1, 95, 0
2, 96520, Note_on_c, 1, 47, 127
2, 96520, Note_off_c, 1, 50, 0
2, 96520, Note_off_c, 1, 61, 0
2, 96520, Note_on_c, 1, 66, 127
2, 96520, Note_off_c, 1, 70, 0
2, 96520, Note_off_c, 1, 72, 0
2, 96520, Note_on_c, 1, 95, 127
2, 96520, Note_on_c, 1, 96, 127
2, 96560, Note_off_c, 1, 47, 0
2, 96560, Note_on_c, 1, 48, 127
2, 96560, Note_on_c, 1, 51, 127
2, 96560, Note_on_c, 1, 56, 127
2, 96560, Note_off_c, 1, 66, 0
2, 96560, Note_on_c, 1, 75, 127
2, 96560, Note_off_c, 1, 95, 0
2, 96560, Note_off_c, 1, 96, 0
2, 96600, Note_off_c, 1, 48, 0
2, 96600, Note_off_c, 1, 56, 0
2, 96600, Note_on_c, 1, 63, 127
2, 96600, Note_on_c, 1, 66, 127
2, 96600, Note_on_c, 1, 72, 127
2, 96600, Note_on_c, 1, 81, 127
2, 96600, Note_on_c, 1, 84, 127
2, 96600, Note_on_c, 1, 93, 127
2, 96640, Note_on_c, 1, 46, 127
2, 96640, Note_off_c, 1, 51, 0
2, 96640, Note_on_c, 1, 53, 127
2, 96640, Note_off_c, 1, 63, 0
2, 96640, Note_on_c, 1, 65, 127
2, 96640, Note_off_c, 1, 66, 0
2, 96640, Note_off_c, 1, 72, 0
2, 96640, Note_on_c, 1, 73, 127
2, 96640, Note_off_c, 1, 75, 0
2, 96640, Note_on_c, 1, 77, 127
2, 96640, Note_off_c, 1, 81, 0
2, 96640, Note_off_c, 1, 84, 0
2, 96640, Note_off_c, 1, 93, 0
2, 96680, Note_on_c, 1, 38, 127
2, 96680, Note_on_c, 1, 40, 127
2, 96680, Note_off_c, 1, 46, 0
2, 96680, Note_on_c, 1, 47, 127
2, 96680, Note_on_c, 1, 52, 127
2, 96680, Note_off_c, 1, 53, 0
2, 96680, Note_on_c, 1, 56, 127
2, 96680, Note_on_c, 1, 59, 127
2, 96680, Note_on_c, 1, 64, 127
2, 96680, Note_off_c, 1, 65, 0
2, 96680, Note_off_c, 1, 73, 0
2, 96680, Note_off_c, 1, 77, 0
2, 96720, Note_off_c, 1, 38, 0
2, 96720, Note_off_c, 1, 40, 0
2, 96720, Note_off_c, 1, 47, 0
2, 96720, Note_on_c, 1, 48, 127
2, 96720, Note_on_c, 1, 51, 127
2, 96720, Note_off_c, 1, 52, 0
2, 96720, Note_off_c, 1, 56, 0
2, 96720, Note_on_c, 1, 57, 127
2, 96720, Note_off_c, 1, 59, 0
2, 96720, Note_on_c, 1, 60, 127
2, 96720, Note_off_c, 1, 64, 0
2, 96720, Note_on_c, 1, 65, 127
2, 96760, Note_on_c, 1, 41, 127
2, 96760, Note_off_c, 1, 48, 0
2, 96760, Note_off_c, 1, 51, 0
2, 96760, Note_off_c, 1, 57, 0
2, 96760, Note_off_c, 1, 60, 0
2, 96760, Note_off_c, 1, 65, 0
2, 96760, Note_on_c, 1, 95, 127
2, 96800, Note_off_c, 1, 41, 0
2, 96800, Note_on_c, 1, 54, 127
2, 96800, Note_on_c, 1, 58, 127
2, 96800, Note_on_c, 1, 78, 127
2, 96800, Note_on_c, 1, 90, 127
2, 96800, Note_off_c, 1, 95, 0
2, 96840, Note_on_c, 1, 28, 127
2, 96840, Note_on_c, 1, 40, 127
2, 96840, Note_off_c, 1, 54, 0
2, 96840, Note_on_c, 1, 55, 127
2, 96840, Note_off_c, 1, 58, 0
2, 96840, Note_on_c, 1, 59, 127
2, 96840, Note_on_c, 1, 64, 127
2, 96840, Note_off_c, 1, 78, 0
2, 96840, Note_off_c, 1, 90, 0
2, 96880, Note_off_c, 1, 28, 0
2, 96880, Note_on_c, 1, 37, 127
2, 96880, Note_off_c, 1, 40, 0
2, 96880, Note_on_c, 1, 49, 127
2, 96880, Note_off_c, 1, 55, 0
2, 96880, Note_off_c, 1, 59, 0
2, 96880, Note_off_c, 1, 64, 0
2, 96880, Note_on_c, 1, 67, 127
2, 96880, Note_on_c, 1, 70, 127
2, 96920, Note_off_c, 1, 37, 0
2, 96920, Note_off_c, 1, 49, 0
2, 96920, Note_on_c, 1, 51, 127
2, 96920, Note_on_c, 1, 53, 127
2, 96920, Note_on_c, 1, 57, 127
2, 96920, Note_off_c, 1, 67, 0
2, 96920, Note_off_c, 1, 70, 0
2, 96920, Note_on_c, 1, 84, 127
2, 96960, Note_on_c, 1, 38, 127
2, 96960, Note_on_c, 1, 45, 127
2, 96960, Note_off_c, 1, 51, 0
2, 96960, Note_off_c, 1, 53, 0
2, 96960, Note_on_c, 1, 62, 127
2, 96960, Note_on_c, 1, 66, 127
2, 96960, Note_off_c, 1, 84, 0
2, 96960, Note_on_c, 1, 86, 127
2, 96960, Note_on_c, 1, 90, 127
2, 97000, Note_off_c, 1, 38, 0
2, 97000, Note_off_c, 1, 45, 0
2, 97000, Note_off_c, 1, 57, 0
2, 97000, Note_off_c, 1, 62, 0
2, 97000, Note_off_c, 1, 66, 0
2, 97000, Note_off_c, 1, 86, 0
2, 97000, Note_off_c, 1, 90, 0
2, 97040, Note_on_c, 1, 36, 127
2, 97040, Note_on_c, 1, 62, 127
2, 97040, Note_on_c, 1, 77, 127
2, 97040, Note_on_c, 1, 81, 127
2, 97080, Note_off_c, 1, 36, 0
2, 97080, Note_off_c, 1, 62, 0
2, 97080, Note_off_c, 1, 77, 0
2, 97080, Note_off_c, 1, 81, 0
2, 97080, Note_on_c, 1, 94, 127
2, 97080, Note_on_c, 1, 96, 127
2, 97080, Note_on_c, 1, 97, 127
2, 97120, Note_on_c, 1, 36, 127
2, 97120, Note_on_c, 1, 43, 127
2, 97120, Note_on_c, 1, 48, 127
2, 97120, Note_on_c, 1, 79, 127
2, 97120, Note_off_c, 1, 94, 0
2, 97120, Note_off_c, 1, 96, 0
2, 97120, Note_off_c, 1, 97, 0
2, 97160, Note_off_c, 1, 36, 0
2, 97160, Note_off_c, 1, 43, 0
2, 97160, Note_off_c, 1, 48, 0
2, 97160, Note_on_c, 1, 55, 127
2, 97160, Note_off_c, 1, 79, 0
2, 97160, Note_on_c, 1, 83, 127
2, 97160, Note_on_c, 1, 86, 127
2, 97160, Note_on_c, 1, 91, 127
2, 97160, Note_on_c, 1, 95, 127
2, 97200, Note_off_c, 1, 55, 0
2, 97200, Note_on_c, 1, 75, 127
2, 97200, Note_on_c, 1, 82, 127
2, 97200, Note_off_c, 1, 83, 0
2, 97200, Note_on_c, 1, 85, 127
2, 97200, Note_off_c, 1, 86, 0
2, 97200, Note_off_c, 1, 95, 0
2, 97200, Note_on_c, 1, 103, 127
2, 97200, Note_on_c, 1, 104, 127
2, 97240, Note_off_c, 1, 75, 0
2, 97240, Note_off_c, 1, 82, 0
2, 97240, Note_off_c, 1, 85, 0
2, 97240, Note_off_c, 1, 91, 0
2, 97240, Note_on_c, 1, 97, 127
2, 97240, Note_on_c, 1, 102, 127
2, 97240, Note_off_c, 1, 103, 0
2, 97240, Note_off_c, 1, 104, 0
2, 97280, Note_on_c, 1, 33, 127
2, 97280, Note_on_c, 1, 40, 127
2, 97280, Note_on_c, 1, 45, 127
2, 97280, Note_on_c, 1, 57, 127
2, 97280, Note_on_c, 1, 60, 127
2, 97280, Note_on_c, 1, 64, 127
2, 97280, Note_on_c, 1, 69, 127
2, 97280, Note_off_c, 1, 97, 0
2, 97280, Note_off_c, 1, 102, 0
2, 97320, Note_off_c, 1, 33, 0
2, 97320, Note_off_c, 1, 40, 0
2, 97320, Note_off_c, 1, 45, 0
2, 97320, Note_off_c, 1, 57, 0
2, 97320, Note_off_c, 1, 60, 0
2, 97320, Note_off_c, 1, 64, 0
2, 97320, Note_off_c, 1, 69, 0
2, 97320, Note_on_c, 1, 95, 127
2, 97320, Note_on_c, 1, 98, 127
2, 97320, Note_on_c, 1, 103, 127
2, 97320, Note_on_c, 1, 104, 127
2, 97360, Note_on_c, 1, 41, 127
2, 97360, Note_on_c, 1, 46, 127
2, 97360, Note_on_c, 1, 53, 127
2, 97360, Note_on_c, 1, 65, 127
2, 97360, Note_on_c, 1, 72, 127
2, 97360, Note_on_c, 1, 77, 127
2, 97360, Note_off_c, 1, 95, 0
2, 97360, Note_off_c, 1, 98, 0
2, 97360, Note_off_c, 1, 103, 0
2, 97360, Note_off_c, 1, 104, 0
2, 97400, Note_off_c, 1, 41, 0
2, 97400, Note_off_c, 1, 46, 0
2, 97400, Note_off_c, 1, 53, 0
2, 97400, Note_on_c, 1, 59, 127
2, 97400, Note_on_c, 1, 62, 127
2, 97400, Note_on_c, 1, 68, 127
2, 97400, Note_on_c, 1, 71, 127
2, 97400, Note_off_c, 1, 72, 0
2, 97400, Note_off_c, 1, 77, 0
2, 97400, Note_on_c, 1, 97, 127
2, 97440, Note_off_c, 1, 62, 0
2, 97440, Note_on_c, 1, 64, 127
2, 97440, Note_off_c, 1, 65, 0
2, 97440, Note_off_c, 1, 68, 0
2, 97440, Note_off_c, 1, 71, 0
2, 97440, Note_on_c, 1, 74, 127
2, 97440, Note_on_c, 1, 86, 127
2, 97440, Note_off_c, 1, 97, 0
2, 97480, Note_off_c, 1, 59, 0
2, 97480, Note_off_c, 1, 64, 0
2, 97480, Note_off_c, 1, 74, 0
2, 97480, Note_off_c, 1, 86, 0
2, 97480, Note_on_c, 1, 101, 127
2, 97480, Note_on_c, 1, 103, 127
2, 97520, Note_on_c, 1, 29, 127
2, 97520, Note_on_c, 1, 49, 127
2, 97520, Note_off_c, 1, 101, 0
2, 97520, Note_off_c, 1, 103, 0
2, 97560, Note_off_c, 1, 29, 0
2, 97560, Note_off_c, 1, 49, 0
2, 97560, Note_on_c, 1, 54, 127
2, 97560, Note_on_c, 1, 78, 127
2, 97560, Note_on_c, 1, 90, 127
2, 97560, Note_on_c, 1, 93, 127
2, 97600, Note_on_c, 1, 43, 127
2, 97600, Note_off_c, 1, 54, 0
2, 97600, Note_on_c, 1, 62, 127
2, 97600, Note_on_c, 1, 66, 127
2, 97600, Note_on_c, 1, 71, 127
2, 97600, Note_off_c, 1, 78, 0
2, 97600, Note_off_c, 1, 90, 0
2, 97600, Note_off_c, 1, 93, 0
2, 97640, Note_off_c, 1, 43, 0
2, 97640, Note_off_c, 1, 62, 0
2, 97640, Note_on_c, 1, 64, 127
2, 97640, Note_off_c, 1, 71, 0
2, 97640, Note_on_c, 1, 76, 127
2, 97640, Note_on_c, 1, 78, 127
2, 97680, Note_on_c, 1, 40, 127
2, 97680, Note_on_c, 1, 47, 127
2, 97680, Note_on_c, 1, 63, 127
2, 97680, Note_off_c, 1, 64, 0
2, 97680, Note_off_c, 1, 76, 0
2, 97680, Note_off_c, 1, 78, 0
2, 97720, Note_off_c, 1, 40, 0
2, 97720, Note_off_c, 1, 47, 0
2, 97720, Note_on_c, 1, 50, 127
2, 97720, Note_on_c, 1, 54, 127
2, 97720, Note_on_c, 1, 57, 127
2, 97720, Note_on_c, 1, 59, 127
2, 97720, Note_off_c, 1, 63, 0
2, 97720, Note_off_c, 1, 66, 0
2, 97720, Note_on_c, 1, 69, 127
2, 97720, Note_on_c, 1, 73, 127
2, 97760, Note_on_c, 1, 40, 127
2, 97760, Note_on_c, 1, 47, 127
2, 97760, Note_off_c, 1, 50, 0
2, 97760, Note_off_c, 1, 54, 0
2, 97760, Note_off_c, 1, 57, 0
2, 97760, Note_off_c, 1, 59, 0
2, 97760, Note_on_c, 1, 63, 127
2, 97760, Note_on_c, 1, 66, 127
2, 97760, Note_off_c, 1, 69, 0
2, 97760, Note_off_c, 1, 73, 0
2, 97800, Note_off_c, 1, 40, 0
2, 97800, Note_off_c, 1, 47, 0
2, 97800, Note_off_c, 1, 63, 0
2, 97800, Note_on_c, 1, 65, 127
2, 97800, Note_off_c, 1, 66, 0
2, 97800, Note_on_c, 1, 72, 127
2, 97800, Note_on_c, 1, 97, 127
2, 97840, Note_on_c, 1, 38, 127
2, 97840, Note_on_c, 1, 54, 127
2, 97840, Note_off_c, 1, 65, 0
2, 97840, Note_on_c, 1, 66, 127
2, 97840, Note_on_c, 1, 70, 127
2, 97840, Note_off_c, 1, 72, 0
2, 97840, Note_off_c, 1, 97, 0
2, 97880, Note_off_c, 1, 38, 0
2, 97880, Note_off_c, 1, 54, 0
2, 97880, Note_off_c, 1, 66, 0
2, 97880, Note_on_c, 1, 69, 127
2, 97880, Note_off_c, 1, 70, 0
2, 97880, Note_on_c, 1, 72, 127
2, 97880, Note_on_c, 1, 77, 127
2, 97880, Note_on_c, 1, 81, 127
2, 97880, Note_on_c, 1, 84, 127
2, 97920, Note_on_c, 1, 48, 127
2, 97920, Note_on_c, 1, 52, 127
2, 97920, Note_on_c, 1, 57, 127
2, 97920, Note_on_c, 1, 60, 127
2, 97920, Note_off_c, 1, 69, 0
2, 97920, Note_off_c, 1, 72, 0
2, 97920, Note_off_c, 1, 77, 0
2, 97920, Note_off_c, 1, 81, 0
2, 97920, Note_off_c, 1, 84, 0
2, 97920, Note_on_c, 1, 86, 127
2, 97960, Note_on_c, 1, 31, 127
2, 97960, Note_off_c, 1, 52, 0
2, 97960, Note_off_c, 1, 57, 0
2, 97960, Note_off_c, 1, 60, 0
2, 97960, Note_on_c, 1, 74, 127
2, 97960, Note_on_c, 1, 79, 127
2, 97960, Note_on_c, 1, 83, 127
2, 97960, Note_off_c, 1, 86, 0
2, 98000, Note_off_c, 1, 31, 0
2, 98000, Note_off_c, 1, 48, 0
2, 98000, Note_on_c, 1, 57, 127
2, 98000, Note_on_c, 1, 65, 127
2, 98000, Note_off_c, 1, 74, 0
2, 98000, Note_off_c, 1, 79, 0
2, 98000, Note_off_c, 1, 83, 0
2, 98040, Note_off_c, 1, 57, 0
2, 98040, Note_on_c, 1, 62, 127
2, 98040, Note_off_c, 1, 65, 0
2, 98040, Note_on_c, 1, 69, 127
2, 98040, Note_on_c, 1, 70, 127
2, 98040, Note_on_c, 1, 74, 127
2, 98080, Note_on_c, 1, 53, 127
2, 98080, Note_on_c, 1, 57, 127
2, 98080, Note_on_c, 1, 61, 127
2, 98080, Note_off_c, 1, 62, 0
2, 98080, Note_off_c, 1, 69, 0
2, 98080, Note_off_c, 1, 70, 0
2, 98080, Note_off_c, 1, 74, 0
2, 98080, Note_on_c, 1, 93, 127
2, 98080, Note_on_c, 1, 97, 127
2, 98120, Note_off_c, 1, 53, 0
2, 98120, Note_off_c, 1, 57, 0
2, 98120, Note_off_c, 1, 61, 0
2, 98120, Note_on_c, 1, 69, 127
2, 98120, Note_on_c, 1, 74, 127
2, 98120, Note_on_c, 1, 76, 127
2, 98120, Note_on_c, 1, 83, 127
2, 98120, Note_on_c, 1, 88, 127
2, 98120, Note_off_c, 1, 97, 0
2, 98160, Note_on_c, 1, 40, 127
2, 98160, Note_on_c, 1, 46, 127
2, 98160, Note_off_c, 1, 69, 0
2, 98160, Note_on_c, 1, 73, 127
2, 98160, Note_off_c, 1, 74, 0
2, 98160, Note_off_c, 1, 76, 0
2, 98160, Note_off_c, 1, 83, 0
2, 98160, Note_off_c, 1, 88, 0
2, 98160, Note_off_c, 1, 93, 0
2, 98200, Note_on_c, 1, 36, 127
2, 98200, Note_off_c, 1, 40, 0
2, 98200, Note_off_c, 1, 46, 0
2, 98200, Note_on_c, 1, 58, 127
2, 98200, Note_on_c, 1, 61, 127
2, 98200, Note_on_c, 1, 67, 127
2, 98200, Note_off_c, 1, 73, 0
2, 98240, Note_off_c, 1, 36, 0
2, 98240, Note_off_c, 1, 58, 0
2, 98240, Note_off_c, 1, 61, 0
2, 98240, Note_off_c, 1, 67, 0
2, 98240, Note_on_c, 1, 75, 127
2, 98240, Note_on_c, 1, 83, 127
2, 98240, Note_on_c, 1, 85, 127
2, 98240, Note_on_c, 1, 90, 127
2, 98280, Note_off_c, 1, 75, 0
2, 98280, Note_off_c, 1, 83, 0
2, 98280, Note_off_c, 1, 85, 0
2, 98280, Note_off_c, 1, 90, 0
2, 98320, Note_on_c, 1, 64, 127
2, 98320, Note_on_c, 1, 72, 127
2, 98320, Note_on_c, 1, 91, 127
2, 98320, Note_on_c, 1, 93, 127
2, 98360, Note_on_c, 1, 32, 127
2, 98360, Note_on_c, 1, 51, 127
2, 98360, Note_on_c, 1, 61, 127
2, 98360, Note_on_c, 1, 63, 127
2, 98360, Note_off_c, 1, 64, 0
2, 98360, Note_on_c, 1, 67, 127
2, 98360, Note_off_c, 1, 72, 0
2, 98360, Note_on_c, 1, 73, 127
2, 98360, Note_off_c, 1, 91, 0
2, 98360, Note_off_c, 1, 93, 0
2, 98400, Note_on_c, 1, 44, 127
2, 98400, Note_on_c, 1, 56, 127
2, 98400, Note_on_c, 1, 59, 127
2, 98400, Note_off_c, 1, 61, 0
2, 98400, Note_off_c, 1, 63, 0
2, 98400, Note_off_c, 1, 67, 0
2, 98400, Note_off_c, 1, 73, 0
2, 98440, Note_off_c, 1, 32, 0
2, 98440, Note_off_c, 1, 44, 0
2, 98440, Note_off_c, 1, 51, 0
2, 98440, Note_off_c, 1, 59, 0
2, 98440, Note_on_c, 1, 61, 127
2, 98440, Note_on_c, 1, 64, 127
2, 98440, Note_on_c, 1, 67, 127
2, 98440, Note_on_c, 1, 82, 127
2, 98440, Note_on_c, 1, 94, 127
2, 98480, Note_off_c, 1, 61, 0
2, 98480, Note_on_c, 1, 63, 127
2, 98480, Note_off_c, 1, 64, 0
2, 98480, Note_off_c, 1, 67, 0
2, 98480, Note_on_c, 1, 78, 127
2, 98480, Note_on_c, 1, 80, 127
2, 98480, Note_off_c, 1, 82, 0
2, 98480, Note_off_c, 1, 94, 0
2, 98520, Note_on_c, 1, 48, 127
2, 98520, Note_on_c, 1, 53, 127
2, 98520, Note_on_c, 1, 55, 127
2, 98520, Note_off_c, 1, 56, 0
2, 98520, Note_on_c, 1, 59, 127
2, 98520, Note_off_c, 1, 63, 0
2, 98520, Note_off_c, 1, 78, 0
2, 98520, Note_off_c, 1, 80, 0
2, 98520, Note_on_c, 1, 85, 127
2, 98560, Note_on_c, 1, 39, 127
2, 98560, Note_off_c, 1, 48, 0
2, 98560, Note_on_c, 1, 51, 127
2, 98560, Note_off_c, 1, 53, 0
2, 98560, Note_off_c, 1, 55, 0
2, 98560, Note_off_c, 1, 59, 0
2, 98560, Note_on_c, 1, 73, 127
2, 98560, Note_on_c, 1, 75, 127
2, 98560, Note_on_c, 1, 79, 127
2, 98560, Note_on_c, 1, 82, 127
2, 98560, Note_off_c, 1, 85, 0
2, 98600, Note_off_c, 1, 39, 0
2, 98600, Note_off_c, 1, 51, 0
2, 98600, Note_on_c, 1, 56, 127
2, 98600, Note_on_c, 1, 59, 127
2, 98600, Note_on_c, 1, 64, 127
2, 98600, Note_on_c, 1, 68, 127
2, 98600, Note_off_c, 1, 73, 0
2, 98600, Note_off_c, 1, 75, 0
2, 98600, Note_on_c, 1, 76, 127
2, 98600, Note_off_c, 1, 79, 0
2, 98600, Note_on_c, 1, 80, 127
2, 98600, Note_off_c, 1, 82, 0
2, 98600, Note_on_c, 1, 83, 127
2, 98600, Note_on_c, 1, 88, 127
2, 98640, Note_on_c, 1, 30, 127
2, 98640, Note_on_c, 1, 37, 127
2, 98640, Note_on_c, 1, 42, 127
2, 98640, Note_off_c, 1, 56, 0
2, 98640, Note_off_c, 1, 59, 0
2, 98640, Note_off_c, 1, 64, 0
2, 98640, Note_off_c, 1, 68, 0
2, 98640, Note_off_c, 1, 76, 0
2, 98640, Note_off_c, 1, 80, 0
2, 98640, Note_on_c, 1, 81, 127
2, 98640, Note_off_c, 1, 83, 0
2, 98640, Note_on_c, 1, 85, 127
2, 98640, Note_off_c, 1, 88, 0
2, 98680, Note_off_c, 1, 30, 0
2, 98680, Note_off_c, 1, 37, 0
2, 98680, Note_off_c, 1, 42, 0
2, 98680, Note_on_c, 1, 61, 127
2, 98680, Note_on_c, 1, 69, 127
2, 98680, Note_on_c, 1, 76, 127
2, 98680, Note_off_c, 1, 81, 0
2, 98680, Note_off_c, 1, 85, 0
2, 98680, Note_on_c, 1, 88, 127
2, 98680, Note_on_c, 1, 97, 127
2, 98720, Note_on_c, 1, 45, 127
2, 98720, Note_on_c, 1, 47, 127
2, 98720, Note_on_c, 1, 51, 127
2, 98720, Note_on_c, 1, 54, 127
2, 98720, Note_on_c, 1, 59, 127
2, 98720, Note_off_c, 1, 61, 0
2, 98720, Note_off_c, 1, 69, 0
2, 98720, Note_off_c, 1, 76, 0
2, 98720, Note_off_c, 1, 88, 0
2, 98720, Note_off_c, 1, 97, 0
2, 98760, Note_on_c, 1, 43, 127
2, 98760, Note_off_c, 1, 45, 0
2, 98760, Note_on_c, 1, 46, 127
2, 98760, Note_off_c, 1, 47, 0
2, 98760, Note_off_c, 1, 54, 0
2, 98760, Note_on_c, 1, 55, 127
2, 98760, Note_off_c, 1, 59, 0
2, 98760, Note_on_c, 1, 79, 127
2, 98800, Note_off_c, 1, 43, 0
2, 98800, Note_off_c, 1, 46, 0
2, 98800, Note_off_c, 1, 51, 0
2, 98800, Note_off_c, 1, 55, 0
2, 98800, Note_on_c, 1, 59, 127
2, 98800, Note_on_c, 1, 63, 127
2, 98800, Note_on_c, 1, 68, 127
2, 98800, Note_off_c, 1, 79, 0
2, 98800, Note_on_c, 1, 96, 127
2, 98840, Note_off_c, 1, 59, 0
2, 98840, Note_off_c, 1, 63, 0
2, 98840, Note_off_c, 1, 68, 0
2, 98840, Note_on_c, 1, 79, 127
2, 98840, Note_on_c, 1, 80, 127
2, 98840, Note_on_c, 1, 82, 127
2, 98840, Note_on_c, 1, 83, 127
2, 98840, Note_on_c, 1, 87, 127
2, 98840, Note_on_c, 1, 88, 127
2, 98840, Note_on_c, 1, 91, 127
2, 98840, Note_on_c, 1, 92, 127
2, 98840, Note_off_c, 1, 96, 0
2, 98840, Note_on_c, 1, 99, 127
2, 98840, Note_on_c, 1, 100, 127
2, 98880, Note_on_c, 1, 41, 127
2, 98880, Note_on_c, 1, 49, 127
2, 98880, Note_on_c, 1, 59, 127
2, 98880, Note_on_c, 1, 73, 127
2, 98880, Note_off_c, 1, 79, 0
2, 98880, Note_off_c, 1, 80, 0
2, 98880, Note_off_c, 1, 82, 0
2, 98880, Note_off_c, 1, 83, 0
2, 98880, Note_off_c, 1, 87, 0
2, 98880, Note_off_c, 1, 88, 0
2, 98880, Note_off_c, 1, 91, 0
2, 98880, Note_off_c, 1, 92, 0
2, 98880, Note_off_c, 1, 99, 0
2, 98880, Note_off_c, 1, 100, 0
2, 98920, Note_off_c, 1, 41, 0
2, 98920, Note_on_c, 1, 48, 127
2, 98920, Note_off_c, 1, 49, 0
2, 98920, Note_off_c, 1, 59, 0
2, 98920, Note_on_c, 1, 61, 127
2, 98960, Note_off_c, 1, 48, 0
2, 98960, Note_off_c, 1, 61, 0
2, 98960, Note_off_c, 1, 73, 0
2, 99000, Note_on_c, 1, 29, 127
2, 99000, Note_on_c, 1, 41, 127
2, 99000, Note_on_c, 1, 53, 127
2, 99000, Note_on_c, 1, 57, 127
2, 99000, Note_on_c, 1, 63, 127
2, 99000, Note_on_c, 1, 65, 127
2, 99040, Note_off_c, 1, 29, 0
2, 99040, Note_on_c, 1, 38, 127
2, 99040, Note_off_c, 1, 41, 0
2, 99040, Note_off_c, 1, 57, 0
2, 99040, Note_off_c, 1, 63, 0
2, 99040, Note_off_c, 1, 65, 0
2, 99040, Note_on_c, 1, 89, 127
2, 99040, Note_on_c, 1, 92, 127
2, 99080, Note_off_c, 1, 38, 0
2, 99080, Note_on_c, 1, 40, 127
2, 99080, Note_on_c, 1, 43, 127
2, 99080, Note_on_c, 1, 48, 127
2, 99080, Note_on_c, 1, 52, 127
2, 99080, Note_off_c, 1, 53, 0
2, 99080, Note_on_c, 1, 84, 127
2, 99080, Note_on_c, 1, 88, 127
2, 99080, Note_off_c, 1, 89, 0
2, 99080, Note_on_c, 1, 91, 127
2, 99080, Note_off_c, 1, 92, 0
2, 99080, Note_on_c, 1, 96, 127
2, 99120, Note_off_c, 1, 40, 0
2, 99120, Note_off_c, 1, 43, 0
2, 99120, Note_off_c, 1, 48, 0
2, 99120, Note_off_c, 1, 52, 0
2, 99120, Note_on_c, 1, 56, 127
2, 99120, Note_on_c, 1, 75, 127
2, 99120, Note_on_c, 1, 83, 127
2, 99120, Note_off_c, 1, 84, 0
2, 99120, Note_off_c, 1, 88, 0
2, 99120, Note_off_c, 1, 91, 0
2, 99120, Note_off_c, 1, 96, 0
2, 99160, Note_on_c, 1, 39, 127
2, 99160, Note_on_c, 1, 42, 127
2, 99160, Note_on_c, 1, 48, 127
2, 99160, Note_off_c, 1, 56, 0
2, 99160, Note_on_c, 1, 60, 127
2, 99160, Note_on_c, 1, 69, 127
2, 99160, Note_on_c, 1, 71, 127
2, 99160, Note_off_c, 1, 75, 0
2, 99160, Note_off_c, 1, 83, 0
2, 99200, Note_off_c, 1, 39, 0
2, 99200, Note_off_c, 1, 42, 0
2, 99200, Note_off_c, 1, 48, 0
2, 99200, Note_on_c, 1, 49, 127
2, 99200, Note_on_c, 1, 53, 127
2, 99200, Note_on_c, 1, 56, 127
2, 99200, Note_off_c, 1, 60, 0
2, 99200, Note_on_c, 1, 61, 127
2, 99200, Note_off_c, 1, 69, 0
2, 99200, Note_off_c, 1, 71, 0
2, 99200, Note_on_c, 1, 80, 127
2, 99200, Note_on_c, 1, 85, 127
2, 99200, Note_on_c, 1, 89, 127
2, 99200, Note_on_c, 1, 92, 127
2, 99240, Note_on_c, 1, 38, 127
2, 99240, Note_off_c, 1, 49, 0
2, 99240, Note_on_c, 1, 50, 127
2, 99240, Note_off_c, 1, 53, 0
2, 99240, Note_off_c, 1, 56, 0
2, 99240, Note_on_c, 1, 60, 127
2, 99240, Note_off_c, 1, 61, 0
2, 99240, Note_on_c, 1, 66, 127
2, 99240, Note_on_c, 1, 69, 127
2, 99240, Note_on_c, 1, 74, 127
2, 99240, Note_off_c, 1, 80, 0
2, 99240, Note_off_c, 1, 85, 0
2, 99240, Note_off_c, 1, 89, 0
2, 99240, Note_off_c, 1, 92, 0
2, 99280, Note_off_c, 1, 38, 0
2, 99280, Note_on_c, 1, 44, 127
2, 99280, Note_off_c, 1, 50, 0
2, 99280, Note_on_c, 1, 56, 127
2, 99280, Note_off_c, 1, 60, 0
2, 99280, Note_off_c, 1, 66, 0
2, 99280, Note_off_c, 1, 69, 0
2, 99280, Note_off_c, 1, 74, 0
2, 99280, Note_on_c, 1, 75, 127
2, 99280, Note_on_c, 1, 84, 127
2, 99280, Note_on_c, 1, 87, 127
2, 99320, Note_on_c, 1, 34, 127
2, 99320, Note_off_c, 1, 44, 0
2, 99320, Note_on_c, 1, 47, 127
2, 99320, Note_on_c, 1, 54, 127
2, 99320, Note_off_c, 1, 56, 0
2, 99320, Note_on_c, 1, 57, 127
2, 99320, Note_off_c, 1, 75, 0
2, 99320, Note_off_c, 1, 84, 0
2, 99320, Note_off_c, 1, 87, 0
2, 99360, Note_off_c, 1, 34, 0
2, 99360, Note_on_c, 1, 40, 127
2, 99360, Note_off_c, 1, 47, 0
2, 99360, Note_on_c, 1, 52, 127
2, 99360, Note_off_c, 1, 54, 0
2, 99360, Note_off_c, 1, 57, 0
2, 99360, Note_on_c, 1, 69, 127
2, 99360, Note_on_c, 1, 76, 127
2, 99360, Note_on_c, 1, 81, 127
2, 99400, Note_off_c, 1, 40, 0
2, 99400, Note_off_c, 1, 52, 0
2, 99400, Note_on_c, 1, 61, 127
2, 99400, Note_on_c, 1, 67, 127
2, 99400, Note_off_c, 1, 69, 0
2, 99400, Note_off_c, 1, 76, 0
2, 99400, Note_off_c, 1, 81, 0
2, 99400, Note_on_c, 1, 82, 127
2, 99400, Note_on_c, 1, 84, 127
2, 99440, Note_off_c, 1, 61, 0
2, 99440, Note_on_c, 1, 62, 127
2, 99440, Note_on_c, 1, 69, 127
2, 99440, Note_on_c, 1, 73, 127
2, 99440, Note_on_c, 1, 78, 127
2, 99440, Note_off_c, 1, 82, 0
2, 99440, Note_off_c, 1, 84, 0
2, 99480, Note_on_c, 1, 50, 127
2, 99480, Note_on_c, 1, 59, 127
2, 99480, Note_off_c, 1, 62, 0
2, 99480, Note_off_c, 1, 67, 0
2, 99480, Note_off_c, 1, 69, 0
2, 99480, Note_off_c, 1, 73, 0
2, 99480, Note_off_c, 1, 78, 0
2, 99480, Note_on_c, 1, 83, 127
2, 99480, Note_on_c, 1, 86, 127
2, 99480, Note_on_c, 1, 95, 127
2, 99520, Note_off_c, 1, 50, 0
2, 99520, Note_off_c, 1, 59, 0
2, 99520, Note_on_c, 1, 69, 127
2, 99520, Note_off_c, 1, 83, 0
2, 99520, Note_on_c, 1, 85, 127
2, 99520, Note_off_c, 1, 86, 0
2, 99520, Note_off_c, 1, 95, 0
2, 99520, Note_on_c, 1, 97, 127
2, 99520, Note_on_c, 1, 100, 127
2, 99560, Note_on_c, 1, 34, 127
2, 99560, Note_on_c, 1, 46, 127
2, 99560, Note_on_c, 1, 55, 127
2, 99560, Note_on_c, 1, 62, 127
2, 99560, Note_off_c, 1, 69, 0
2, 99560, Note_off_c, 1, 85, 0
2, 99560, Note_off_c, 1, 97, 0
2, 99560, Note_off_c, 1, 100, 0
2, 99600, Note_off_c, 1, 34, 0
2, 99600, Note_on_c, 1, 45, 127
2, 99600, Note_off_c, 1, 46, 0
2, 99600, Note_off_c, 1, 55, 0
2, 99600, Note_off_c, 1, 62, 0
2, 99600, Note_on_c, 1, 86, 127
2, 99600, Note_on_c, 1, 89, 127
2, 99640, Note_off_c, 1, 45, 0
2, 99640, Note_off_c, 1, 86, 0
2, 99640, Note_off_c, 1, 89, 0
2, 99640, Note_on_c, 1, 93, 127
2, 99680, Note_on_c, 1, 38, 127
2, 99680, Note_on_c, 1, 50, 127
2, 99680, Note_on_c, 1, 88, 127
2, 99680, Note_on_c, 1, 90, 127
2, 99680, Note_off_c, 1, 93, 0
2, 99720, Note_off_c, 1, 38, 0
2, 99720, Note_off_c, 1, 50, 0
2, 99720, Note_on_c, 1, 85, 127
2, 99720, Note_off_c, 1, 88, 0
2, 99720, Note_on_c, 1, 92, 127
2, 99720, Note_on_c, 1, 100, 127
2, 99760, Note_on_c, 1, 52, 127
2, 99760, Note_on_c, 1, 59, 127
2, 99760, Note_on_c, 1, 62, 127
2, 99760, Note_on_c, 1, 64, 127
2, 99760, Note_on_c, 1, 83, 127
2, 99760, Note_off_c, 1, 85, 0
2, 99760, Note_on_c, 1, 86, 127
2, 99760, Note_on_c, 1, 88, 127
2, 99760, Note_off_c, 1, 90, 0
2, 99760, Note_off_c, 1, 92, 0
2, 99760, Note_off_c, 1, 100, 0
2, 99800, Note_on_c, 1, 41, 127
2, 99800, Note_off_c, 1, 52, 0
2, 99800, Note_on_c, 1, 53, 127
2, 99800, Note_off_c, 1, 59, 0
2, 99800, Note_off_c, 1, 62, 0
2, 99800, Note_off_c, 1, 64, 0
2, 99800, Note_off_c, 1, 83, 0
2, 99800, Note_off_c, 1, 86, 0
2, 99800, Note_on_c, 1, 87, 127
2, 99840, Note_off_c, 1, 41, 0
2, 99840, Note_off_c, 1, 53, 0
2, 99840, Note_on_c, 1, 59, 127
2, 99840, Note_on_c, 1, 67, 127
2, 99840, Note_on_c, 1, 71, 127
2, 99840, Note_on_c, 1, 76, 127
2, 99840, Note_on_c, 1, 79, 127
2, 99840, Note_on_c, 1, 83, 127
2, 99840, Note_off_c, 1, 87, 0
2, 99840, Note_off_c, 1, 88, 0
2, 99880, Note_on_c, 1, 51, 127
2, 99880, Note_on_c, 1, 55, 127
2, 99880, Note_off_c, 1, 59, 0
2, 99880, Note_on_c, 1, 60, 127
2, 99880, Note_on_c, 1, 63, 127
2, 99880, Note_off_c, 1, 67, 0
2, 99880, Note_off_c, 1, 71, 0
2, 99880, Note_off_c, 1, 76, 0
2, 99880, Note_off_c, 1, 79, 0
2, 99880, Note_off_c, 1, 83, 0
2, 99880, Note_on_c, 1, 99, 127
2, 99880, Note_on_c, 1, 102, 127
2, 99920, Note_on_c, 1, 31, 127
2, 99920, Note_on_c, 1, 36, 127
2, 99920, Note_on_c, 1, 38, 127
2, 99920, Note_off_c, 1, 51, 0
2, 99920, Note_off_c, 1, 55, 0
2, 99920, Note_off_c, 1, 60, 0
2, 99920, Note_off_c, 1, 63, 0
2, 99920, Note_off_c, 1, 99, 0
2, 99920, Note_off_c, 1, 102, 0
2, 99960, Note_off_c, 1, 31, 0
2, 99960, Note_off_c, 1, 36, 0
2, 99960, Note_off_c, 1, 38, 0
2, 99960, Note_on_c, 1, 69, 127
2, 99960, Note_on_c, 1, 78, 127
2, 99960, Note_on_c, 1, 81, 127
2, 99960, Note_on_c, 1, 100, 127
2, 100000, Note_on_c, 1, 58, 127
2, 100000, Note_on_c, 1, 63, 127
2, 100000, Note_on_c, 1, 66, 127
2, 100000, Note_off_c, 1, 69, 0
2, 100000, Note_on_c, 1, 70, 127
2, 100000, Note_off_c, 1, 81, 0
2, 100000, Note_on_c, 1, 90, 127
2, 100000, Note_off_c, 1, 100, 0
2, 100040, Note_on_c, 1, 51, 127
2, 100040, Note_on_c, 1, 55, 127
2, 100040, Note_off_c, 1, 58, 0
2, 100040, Note_on_c, 1, 60, 127
2, 100040, Note_off_c, 1, 66, 0
2, 100040, Note_off_c, 1, 70, 0
2, 100040, Note_off_c, 1, 78, 0
2, 100040, Note_off_c, 1, 90, 0
2, 100040, Note_on_c, 1, 99, 127
2, 100040, Note_on_c, 1, 102, 127
2, 100080, Note_off_c, 1, 51, 0
2, 100080, Note_off_c, 1, 55, 0
2, 100080, Note_off_c, 1, 60, 0
2, 100080, Note_off_c, 1, 63, 0
2, 100080, Note_on_c, 1, 80, 127
2, 100080, Note_on_c, 1, 83, 127
2, 100080, Note_on_c, 1, 89, 127
2, 100080, Note_on_c, 1, 92, 127
2, 100080, Note_off_c, 1, 99, 0
2, 100080, Note_off_c, 1, 102, 0
2, 100120, Note_on_c, 1, 60, 127
2, 100120, Note_on_c, 1, 64, 127
2, 100120, Note_off_c, 1, 80, 0
2, 100120, Note_off_c, 1, 83, 0
2, 100120, Note_on_c, 1, 88, 127
2, 100120, Note_off_c, 1, 89, 0
2, 100120, Note_off_c, 1, 92, 0
2, 100120, Note_on_c, 1, 100, 127
2, 100160, Note_on_c, 1, 47, 127
2, 100160, Note_on_c, 1, 52, 127
2, 100160, Note_on_c, 1, 55, 127
2, 100160, Note_on_c, 1, 59, 127
2, 100160, Note_off_c, 1, 60, 0
2, 100160, Note_off_c, 1, 88, 0
2, 100160, Note_off_c, 1, 100, 0
2, 100200, Note_off_c, 1, 47, 0
2, 100200, Note_off_c, 1, 52, 0
2, 100200, Note_off_c, 1, 55, 0
2, 100200, Note_off_c, 1, 59, 0
2, 100200, Note_off_c, 1, 64, 0
2, 100200, Note_on_c, 1, 93, 127
2, 100200, Note_on_c, 1, 96, 127
2, 100200, Note_on_c, 1, 101, 127
2, 100200, Note_on_c, 1, 103, 127
2, 100240, Note_on_c, 1, 31, 127
2, 100240, Note_on_c, 1, 35, 127
2, 100240, Note_on_c, 1, 41, 127
2, 100240, Note_on_c, 1, 43, 127
2, 100240, Note_on_c, 1, 50, 127
2, 100240, Note_on_c, 1, 53, 127
2, 100240, Note_on_c, 1, 58, 127
2, 100240, Note_on_c, 1, 74, 127
2, 100240, Note_on_c, 1, 83, 127
2, 100240, Note_on_c, 1, 86, 127
2, 100240, Note_off_c, 1, 93, 0
2, 100240, Note_off_c, 1, 96, 0
2, 100240, Note_off_c, 1, 101, 0
2, 100240, Note_off_c, 1, 103, 0
2, 100280, Note_off_c, 1, 31, 0
2, 100280, Note_off_c, 1, 35, 0
2, 100280, Note_off_c, 1, 41, 0
2, 100280, Note_off_c, 1, 43, 0
2, 100280, Note_off_c, 1, 50, 0
2, 100280, Note_off_c, 1, 53, 0
2, 100280, Note_off_c, 1, 58, 0
2, 100280, Note_off_c, 1, 74, 0
2, 100280, Note_off_c, 1, 83, 0
2, 100280, Note_off_c, 1, 86, 0
2, 100280, Note_on_c, 1, 100, 127
2, 100280, Note_on_c, 1, 102, 127
2, 100320, Note_on_c, 1, 90, 127
2, 100320, Note_off_c, 1, 100, 0
2, 100320, Note_on_c, 1, 103, 127
2, 100360, Note_on_c, 1, 53, 127
2, 100360, Note_on_c, 1, 58, 127
2, 100360, Note_on_c, 1, 60, 127
2, 100360, Note_on_c, 1, 64, 127
2, 100360, Note_on_c, 1, 86, 127
2, 100360, Note_off_c, 1, 90, 0
2, 100360, Note_off_c, 1, 102, 0
2, 100360, Note_off_c, 1, 103, 0
2, 100400, Note_on_c, 1, 30, 127
2, 100400, Note_on_c, 1, 42, 127
2, 100400, Note_off_c, 1, 53, 0
2, 100400, Note_off_c, 1, 58, 0
2, 100400, Note_off_c, 1, 60, 0
2, 100400, Note_off_c, 1, 64, 0
2, 100400, Note_on_c, 1, 74, 127
2, 100400, Note_on_c, 1, 78, 127
2, 100400, Note_on_c, 1, 83, 127
2, 100440, Note_off_c, 1, 30, 0
2, 100440, Note_off_c, 1, 42, 0
2, 100440, Note_on_c, 1, 44, 127
2, 100440, Note_on_c, 1, 48, 127
2, 100440, Note_on_c, 1, 51, 127
2, 100440, Note_on_c, 1, 56, 127
2, 100440, Note_off_c, 1, 74, 0
2, 100440, Note_on_c, 1, 80, 127
2, 100440, Note_off_c, 1, 83, 0
2, 100440, Note_off_c, 1, 86, 0
2, 100480, Note_off_c, 1, 44, 0
2, 100480, Note_off_c, 1, 48, 0
2, 100480, Note_off_c, 1, 51, 0
2, 100480, Note_off_c, 1, 56, 0
2, 100480, Note_off_c, 1, 78, 0
2, 100480, Note_off_c, 1, 80, 0
2, 100480, Note_on_c, 1, 93, 127
2, 100480, Note_on_c, 1, 94, 127
2, 100480, Note_on_c, 1, 97, 127
2, 100480, Note_on_c, 1, 98, 127
2, 100520, Note_on_c, 1, 52, 127
2, 100520, Note_on_c, 1, 57, 127
2, 100520, Note_on_c, 1, 60, 127
2, 100520, Note_on_c, 1, 64, 127
2, 100520, Note_off_c, 1, 94, 0
2, 100520, Note_off_c, 1, 97, 0
2, 100520, Note_off_c, 1, 98, 0
2, 100560, Note_on_c, 1, 43, 127
2, 100560, Note_on_c, 1, 50, 127
2, 100560, Note_off_c, 1, 52, 0
2, 100560, Note_on_c, 1, 53, 127
2, 100560, Note_on_c, 1, 55, 127
2, 100560, Note_off_c, 1, 57, 0
2, 100560, Note_off_c, 1, 60, 0
2, 100560, Note_off_c, 1, 64, 0
2, 100560, Note_on_c, 1, 77, 127
2, 100560, Note_off_c, 1, 93, 0
2, 100600, Note_off_c, 1, 43, 0
2, 100600, Note_on_c, 1, 47, 127
2, 100600, Note_off_c, 1, 53, 0
2, 100600, Note_on_c, 1, 54, 127
2, 100600, Note_off_c, 1, 55, 0
2, 100600, Note_on_c, 1, 59, 127
2, 100600, Note_off_c, 1, 77, 0
2, 100600, Note_on_c, 1, 85, 127
2, 100640, Note_off_c, 1, 47, 0
2, 100640, Note_off_c, 1, 50, 0
2, 100640, Note_off_c, 1, 54, 0
2, 100640, Note_on_c, 1, 57, 127
2, 100640, Note_off_c, 1, 59, 0
2, 100640, Note_on_c, 1, 60, 127
2, 100640, Note_on_c, 1, 66, 127
2, 100640, Note_on_c, 1, 78, 127
2, 100640, Note_on_c, 1, 79, 127
2, 100640, Note_off_c, 1, 85, 0
2, 100680, Note_off_c, 1, 57, 0
2, 100680, Note_off_c, 1, 60, 0
2, 100680, Note_off_c, 1, 66, 0
2, 100680, Note_off_c, 1, 78, 0
2, 100680, Note_off_c, 1, 79, 0
2, 100680, Note_on_c, 1, 97, 127
2, 100720, Note_on_c, 1, 52, 127
2, 100720, Note_on_c, 1, 59, 127
2, 100720, Note_on_c, 1, 62, 127
2, 100720, Note_on_c, 1, 68, 127
2, 100720, Note_on_c, 1, 80, 127
2, 100720, Note_off_c, 1, 97, 0
2, 100760, Note_on_c, 1, 39, 127
2, 100760, Note_off_c, 1, 52, 0
2, 100760, Note_on_c, 1, 55, 127
2, 100760, Note_off_c, 1, 59, 0
2, 100760, Note_off_c, 1, 62, 0
2, 100760, Note_on_c, 1, 63, 127
2, 100760, Note_off_c, 1, 68, 0
2, 100760, Note_on_c, 1, 70, 127
2, 100760, Note_on_c, 1, 75, 127
2, 100760, Note_off_c, 1, 80, 0
2, 100800, Note_off_c, 1, 39, 0
2, 100800, Note_on_c, 1, 45, 127
2, 100800, Note_off_c, 1, 55, 0
2, 100800, Note_on_c, 1, 57, 127
2, 100800, Note_off_c, 1, 63, 0
2, 100800, Note_on_c, 1, 69, 127
2, 100800, Note_off_c, 1, 70, 0
2, 100800, Note_on_c, 1, 73, 127
2, 100800, Note_off_c, 1, 75, 0
2, 100840, Note_off_c, 1, 45, 0
2, 100840, Note_on_c, 1, 54, 127
2, 100840, Note_on_c, 1, 66, 127
2, 100840, Note_off_c, 1, 69, 0
2, 100840, Note_off_c, 1, 73, 0
2, 100840, Note_on_c, 1, 74, 127
2, 100840, Note_on_c, 1, 80, 127
2, 100880, Note_off_c, 1, 54, 0
2, 100880, Note_off_c, 1, 57, 0
2, 100880, Note_off_c, 1, 66, 0
2, 100880, Note_off_c, 1, 74, 0
2, 100880, Note_off_c, 1, 80, 0
2, 100880, Note_on_c, 1, 81, 127
2, 100880, Note_on_c, 1, 95, 127
2, 100920, Note_on_c, 1, 50, 127
2, 100920, Note_on_c, 1, 54, 127
2, 100920, Note_on_c, 1, 59, 127
2, 100920, Note_on_c, 1, 62, 127
2, 100920, Note_on_c, 1, 78, 127
2, 100920, Note_off_c, 1, 81, 0
2, 100920, Note_off_c, 1, 95, 0
2, 100960, Note_on_c, 1, 49, 127
2, 100960, Note_off_c, 1, 50, 0
2, 100960, Note_off_c, 1, 54, 0
2, 100960, Note_on_c, 1, 58, 127
2, 100960, Note_off_c, 1, 59, 0
2, 100960, Note_off_c, 1, 62, 0
2, 100960, Note_off_c, 1, 78, 0
2, 100960, Note_on_c, 1, 90, 127
2, 101000, Note_off_c, 1, 49, 0
2, 101000, Note_on_c, 1, 56, 127
2, 101000, Note_off_c, 1, 58, 0
2, 101000, Note_on_c, 1, 63, 127
2, 101000, Note_on_c, 1, 66, 127
2, 101000, Note_on_c, 1, 88, 127
2, 101000, Note_off_c, 1, 90, 0
2, 101040, Note_off_c, 1, 56, 0
2, 101040, Note_off_c, 1, 63, 0
2, 101040, Note_off_c, 1, 66, 0
2, 101040, Note_off_c, 1, 88, 0
2, 101040, Note_on_c, 1, 95, 127
2, 101080, Note_off_c, 1, 95, 0
2, 101120, Note_on_c, 1, 61, 127
2, 101120, Note_on_c, 1, 63, 127
2, 101120, Note_on_c, 1, 66, 127
2, 101120, Note_on_c, 1, 69, 127
2, 101120, Note_on_c, 1, 81, 127
2, 101160, Note_on_c, 1, 56, 127
2, 101160, Note_off_c, 1, 61, 0
2, 101160, Note_off_c, 1, 69, 0
2, 101160, Note_on_c, 1, 75, 127
2, 101160, Note_off_c, 1, 81, 0
2, 101200, Note_on_c, 1, 48, 127
2, 101200, Note_off_c, 1, 56, 0
2, 101200, Note_off_c, 1, 63, 0
2, 101200, Note_off_c, 1, 66, 0
2, 101200, Note_on_c, 1, 67, 127
2, 101200, Note_on_c, 1, 74, 127
2, 101200, Note_off_c, 1, 75, 0
2, 101200, Note_on_c, 1, 77, 127
2, 101200, Note_on_c, 1, 79, 127
2, 101240, Note_on_c, 1, 29, 127
2, 101240, Note_on_c, 1, 41, 127
2, 101240, Note_off_c, 1, 67, 0
2, 101240, Note_on_c, 1, 72, 127
2, 101240, Note_off_c, 1, 74, 0
2, 101240, Note_off_c, 1, 79, 0
2, 101280, Note_off_c, 1, 29, 0
2, 101280, Note_off_c, 1, 41, 0
2, 101280, Note_off_c, 1, 48, 0
2, 101280, Note_on_c, 1, 57, 127
2, 101280, Note_on_c, 1, 59, 127
2, 101280, Note_on_c, 1, 62, 127
2, 101280, Note_on_c, 1, 64, 127
2, 101280, Note_on_c, 1, 68, 127
2, 101280, Note_off_c, 1, 72, 0
2, 101280, Note_on_c, 1, 74, 127
2, 101280, Note_on_c, 1, 76, 127
2, 101280, Note_off_c, 1, 77, 0
2, 101320, Note_on_c, 1, 28, 127
2, 101320, Note_on_c, 1, 32, 127
2, 101320, Note_on_c, 1, 35, 127
2, 101320, Note_on_c, 1, 40, 127
2, 101320, Note_off_c, 1, 57, 0
2, 101320, Note_off_c, 1, 62, 0
2, 101320, Note_off_c, 1, 64, 0
2, 101320, Note_off_c, 1, 68, 0
2, 101320, Note_on_c, 1, 71, 127
2, 101320, Note_off_c, 1, 74, 0
2, 101320, Note_off_c, 1, 76, 0
2, 101360, Note_off_c, 1, 28, 0
2, 101360, Note_off_c, 1, 32, 0
2, 101360, Note_off_c, 1, 35, 0
2, 101360, Note_off_c, 1, 40, 0
2, 101360, Note_off_c, 1, 59, 0
2, 101360, Note_off_c, 1, 71, 0
2, 101360, Note_on_c, 1, 72, 127
2, 101360, Note_on_c, 1, 80, 127
2, 101360, Note_on_c, 1, 90, 127
2, 101360, Note_on_c, 1, 92, 127
2, 101400, Note_on_c, 1, 63, 127
2, 101400, Note_on_c, 1, 70, 127
2, 101400, Note_on_c, 1, 71, 127
2, 101400, Note_off_c, 1, 72, 0
2, 101400, Note_off_c, 1, 80, 0
2, 101400, Note_off_c, 1, 90, 0
2, 101400, Note_off_c, 1, 92, 0
2, 101440, Note_on_c, 1, 57, 127
2, 101440, Note_on_c, 1, 62, 127
2, 101440, Note_off_c, 1, 63, 0
2, 101440, Note_on_c, 1, 64, 127
2, 101440, Note_off_c, 1, 70, 0
2, 101440, Note_off_c, 1, 71, 0
2, 101440, Note_on_c, 1, 93, 127
2, 101480, Note_off_c, 1, 57, 0
2, 101480, Note_off_c, 1, 64, 0
2, 101480, Note_on_c, 1, 71, 127
2, 101480, Note_on_c, 1, 83, 127
2, 101480, Note_on_c, 1, 91, 127
2, 101480, Note_off_c, 1, 93, 0
2, 101520, Note_on_c, 1, 57, 127
2, 101520, Note_off_c, 1, 62, 0
2, 101520, Note_on_c, 1, 66, 127
2, 101520, Note_off_c, 1, 71, 0
2, 101520, Note_off_c, 1, 83, 0
2, 101520, Note_on_c, 1, 87, 127
2, 101520, Note_off_c, 1, 91, 0
2, 101520, Note_on_c, 1, 99, 127
2, 101560, Note_on_c, 1, 47, 127
2, 101560, Note_off_c, 1, 57, 0
2, 101560, Note_off_c, 1, 66, 0
2, 101560, Note_on_c, 1, 84, 127
2, 101560, Note_off_c, 1, 99, 0
2, 101600, Note_off_c, 1, 47, 0
2, 101600, Note_off_c, 1, 84, 0
2, 101600, Note_off_c, 1, 87, 0
2, 101600, Note_on_c, 1, 93, 127
2, 101640, Note_off_c, 1, 93, 0
2, 101640, Note_on_c, 1, 97, 127
2, 101680, Note_on_c, 1, 95, 127
2, 101680, Note_off_c, 1, 97, 0
2, 101720, Note_on_c, 1, 93, 127
2, 101720, Note_off_c, 1, 95, 0
2, 101800, Note_off_c, 1, 93, 0
2, 101800, Note_on_c, 1, 95, 127
2, 101840, Note_off_c, 1, 95, 0
2, 101840, Note_on_c, 1, 97, 127
2, 101880, Note_on_c, 1, 92, 127
2, 101880, Note_off_c, 1, 97, 0
2, 101920, Note_off_c, 1, 92, 0
2, 101920, Note_on_c, 1, 95, 127
2, 102120, Note_on_c, 1, 93, 127
2, 102120, Note_off_c, 1, 95, 0
2, 102160, Note_off_c, 1, 93, 0
2, 102160, Note_on_c, 1, 95, 127
2, 102200, Note_on_c, 1, 93, 127
2, 102200, Note_off_c, 1, 95, 0
2, 102240, Note_on_c, 1, 89, 127
2, 102240, Note_on_c, 1, 90, 127
2, 102240, Note_off_c, 1, 93, 0
2, 102280, Note_off_c, 1, 89, 0
2, 102280, Note_off_c, 1, 90, 0
2, 102280, Note_on_c, 1, 92, 127
2, 102320, Note_on_c, 1, 90, 127
2, 102320, Note_off_c, 1, 92, 0
2, 102360, Note_off_c, 1, 90, 0
2, 102360, Note_on_c, 1, 93, 127
2, 102400, Note_off_c, 1, 93, 0
2, 102400, Note_on_c, 1, 95, 127
2, 102480, Note_on_c, 1, 93, 127
2, 102480, Note_off_c, 1, 95, 0
2, 102520, Note_off_c, 1, 93, 0
2, 102520, Note_on_c, 1, 97, 127
2, 102560, Note_on_c, 1, 93, 127
2, 102560, Note_off_c, 1, 97, 0
2, 102600, Note_off_c, 1, 93, 0
2, 102600, Note_on_c, 1, 96, 127
2, 102640, Note_off_c, 1, 96, 0
2, 102640, Note_on_c, 1, 97, 127
2, 102720, Note_on_c, 1, 93, 127
2, 102720, Note_off_c, 1, 97, 0
2, 102760, Note_off_c, 1, 93, 0
2, 102760, Note_on_c, 1, 94, 127
2, 102800, Note_on_c, 1, 93, 127
2, 102800, Note_off_c, 1, 94, 0
2, 102840, Note_off_c, 1, 93, 0
2, 102840, Note_on_c, 1, 95, 127
2, 102880, Note_on_c, 1, 93, 127
2, 102880, Note_off_c, 1, 95, 0
2, 102920, Note_on_c, 1, 88, 127
2, 102920, Note_off_c, 1, 93, 0
2, 102960, Note_on_c, 1, 86, 127
2, 102960, Note_off_c, 1, 88, 0
2, 103000, Note_on_c, 1, 83, 127
2, 103000, Note_off_c, 1, 86, 0
2, 103040, Note_on_c, 1, 81, 127
2, 103040, Note_off_c, 1, 83, 0
2, 103080, Note_on_c, 1, 78, 127
2, 103080, Note_off_c, 1, 81, 0
2, 103120, Note_off_c, 1, 78, 0
2, 103120, Note_on_c, 1, 80, 127
2, 103160, Note_on_c, 1, 78, 127
2, 103160, Note_off_c, 1, 80, 0
2, 103200, Note_on_c, 1, 77, 127
2, 103200, Note_off_c, 1, 78, 0
2, 103240, Note_on_c, 1, 76, 127
2, 103240, Note_off_c, 1, 77, 0
2, 103280, Note_on_c, 1, 73, 127
2, 103280, Note_off_c, 1, 76, 0
2, 103320, Note_off_c, 1, 73, 0
2, 103360, Note_on_c, 1, 74, 127
2, 103400, Note_on_c, 1, 73, 127
2, 103400, Note_off_c, 1, 74, 0
2, 103440, Note_on_c, 1, 71, 127
2, 103440, Note_off_c, 1, 73, 0
2, 103480, Note_on_c, 1, 68, 127
2, 103480, Note_off_c, 1, 71, 0
2, 103520, Note_off_c, 1, 68, 0
2, 103520, Note_on_c, 1, 69, 127
2, 103560, Note_on_c, 1, 68, 127
2, 103560, Note_off_c, 1, 69, 0
2, 103600, Note_on_c, 1, 66, 127
2, 103600, Note_off_c, 1, 68, 0
2, 103640, Note_on_c, 1, 61, 127
2, 103640, Note_on_c, 1, 62, 127
2, 103640, Note_off_c, 1, 66, 0
2, 103680, Note_on_c, 1, 49, 127
2, 103680, Note_on_c, 1, 56, 127
2, 103680, Note_off_c, 1, 61, 0
2, 103680, Note_off_c, 1, 62, 0
2, 103680, Note_on_c, 1, 76, 127
2, 103720, Note_on_c, 1, 47, 127
2, 103720, Note_off_c, 1, 49, 0
2, 103720, Note_on_c, 1, 54, 127
2, 103720, Note_off_c, 1, 56, 0
2, 103720, Note_on_c, 1, 73, 127
2, 103760, Note_on_c, 1, 40, 127
2, 103760, Note_off_c, 1, 47, 0
2, 103760, Note_off_c, 1, 54, 0
2, 103760, Note_on_c, 1, 56, 127
2, 103760, Note_on_c, 1, 68, 127
2, 103760, Note_on_c, 1, 72, 127
2, 103760, Note_off_c, 1, 73, 0
2, 103760, Note_off_c, 1, 76, 0
2, 103800, Note_off_c, 1, 40, 0
2, 103800, Note_off_c, 1, 72, 0
2, 103800, Note_on_c, 1, 85, 127
2, 103800, Note_on_c, 1, 88, 127
2, 103800, Note_on_c, 1, 92, 127
2, 103800, Note_on_c, 1, 97, 127
2, 103840, Note_on_c, 1, 62, 127
2, 103840, Note_off_c, 1, 68, 0
2, 103840, Note_on_c, 1, 80, 127
2, 103840, Note_off_c, 1, 85, 0
2, 103840, Note_on_c, 1, 86, 127
2, 103840, Note_off_c, 1, 92, 0
2, 103840, Note_off_c, 1, 97, 0
2, 103880, Note_on_c, 1, 35, 127
2, 103880, Note_on_c, 1, 47, 127
2, 103880, Note_on_c, 1, 54, 127
2, 103880, Note_off_c, 1, 56, 0
2, 103880, Note_on_c, 1, 57, 127
2, 103880, Note_on_c, 1, 61, 127
2, 103880, Note_off_c, 1, 62, 0
2, 103880, Note_off_c, 1, 80, 0
2, 103880, Note_off_c, 1, 86, 0
2, 103880, Note_off_c, 1, 88, 0
2, 103920, Note_off_c, 1, 35, 0
2, 103920, Note_off_c, 1, 47, 0
2, 103920, Note_off_c, 1, 54, 0
2, 103920, Note_off_c, 1, 57, 0
2, 103920, Note_off_c, 1, 61, 0
2, 103920, Note_on_c, 1, 68, 127
2, 103920, Note_on_c, 1, 74, 127
2, 103920, Note_on_c, 1, 76, 127
2, 103920, Note_on_c, 1, 81, 127
2, 103960, Note_on_c, 1, 63, 127
2, 103960, Note_on_c, 1, 64, 127
2, 103960, Note_off_c, 1, 74, 0
2, 103960, Note_on_c, 1, 75, 127
2, 103960, Note_off_c, 1, 76, 0
2, 103960, Note_off_c, 1, 81, 0
2, 104000, Note_on_c, 1, 57, 127
2, 104000, Note_on_c, 1, 60, 127
2, 104000, Note_off_c, 1, 63, 0
2, 104000, Note_off_c, 1, 64, 0
2, 104000, Note_on_c, 1, 66, 127
2, 104000, Note_off_c, 1, 68, 0
2, 104000, Note_off_c, 1, 75, 0
2, 104000, Note_on_c, 1, 92, 127
2, 104040, Note_off_c, 1, 57, 0
2, 104040, Note_off_c, 1, 60, 0
2, 104040, Note_off_c, 1, 66, 0
2, 104040, Note_on_c, 1, 68, 127
2, 104040, Note_off_c, 1, 92, 0
2, 104080, Note_off_c, 1, 68, 0
2, 104080, Note_on_c, 1, 92, 127
2, 104120, Note_off_c, 1, 92, 0
2, 104120, Note_on_c, 1, 97, 127
2, 104160, Note_on_c, 1, 92, 127
2, 104160, Note_off_c, 1, 97, 0
2, 104240, Note_on_c, 1, 90, 127
2, 104240, Note_off_c, 1, 92, 0
2, 104280, Note_off_c, 1, 90, 0
2, 104280, Note_on_c, 1, 92, 127
2, 104320, Note_off_c, 1, 92, 0
2, 104320, Note_on_c, 1, 97, 127
2, 104440, Note_on_c, 1, 92, 127
2, 104440, Note_off_c, 1, 97, 0
2, 104520, Note_off_c, 1, 92, 0
2, 104520, Note_on_c, 1, 93, 127
2, 104560, Note_off_c, 1, 93, 0
2, 104560, Note_on_c, 1, 94, 127
2, 104600, Note_off_c, 1, 94, 0
2, 104600, Note_on_c, 1, 95, 127
2, 104640, Note_off_c, 1, 95, 0
2, 104640, Note_on_c, 1, 97, 127
2, 104680, Note_on_c, 1, 92, 127
2, 104680, Note_off_c, 1, 97, 0
2, 104720, Note_off_c, 1, 92, 0
2, 104720, Note_on_c, 1, 95, 127
2, 104760, Note_on_c, 1, 93, 127
2, 104760, Note_off_c, 1, 95, 0
2, 104800, Note_on_c, 1, 92, 127
2, 104800, Note_off_c, 1, 93, 0
2, 104840, Note_on_c, 1, 88, 127
2, 104840, Note_off_c, 1, 92, 0
2, 104880, Note_on_c, 1, 85, 127
2, 104880, Note_off_c, 1, 88, 0
2, 104920, Note_on_c, 1, 81, 127
2, 104920, Note_off_c, 1, 85, 0
2, 104960, Note_on_c, 1, 78, 127
2, 104960, Note_off_c, 1, 81, 0
2, 105000, Note_on_c, 1, 76, 127
2, 105000, Note_off_c, 1, 78, 0
2, 105040, Note_on_c, 1, 73, 127
2, 105040, Note_off_c, 1, 76, 0
2, 105120, Note_off_c, 1, 73, 0
2, 105120, Note_on_c, 1, 75, 127
2, 105160, Note_off_c, 1, 75, 0
2, 105160, Note_on_c, 1, 76, 127
2, 105200, Note_off_c, 1, 76, 0
2, 105200, Note_on_c, 1, 80, 127
2, 105240, Note_off_c, 1, 80, 0
2, 105240, Note_on_c, 1, 83, 127
2, 105280, Note_on_c, 1, 81, 127
2, 105280, Note_off_c, 1, 83, 0
2, 105320, Note_on_c, 1, 45, 127
2, 105320, Note_on_c, 1, 57, 127
2, 105320, Note_on_c, 1, 74, 127
2, 105320, Note_on_c, 1, 76, 127
2, 105320, Note_off_c, 1, 81, 0
2, 105360, Note_off_c, 1, 45, 0
2, 105360, Note_on_c, 1, 51, 127
2, 105360, Note_on_c, 1, 54, 127
2, 105360, Note_on_c, 1, 60, 127
2, 105360, Note_on_c, 1, 62, 127
2, 105360, Note_off_c, 1, 74, 0
2, 105360, Note_off_c, 1, 76, 0
2, 105520, Note_off_c, 1, 51, 0
2, 105520, Note_off_c, 1, 54, 0
2, 105520, Note_off_c, 1, 57, 0
2, 105520, Note_off_c, 1, 60, 0
2, 105520, Note_off_c, 1, 62, 0
2, 105560, Note_on_c, 1, 51, 127
2, 105560, Note_on_c, 1, 54, 127
2, 105560, Note_on_c, 1, 57, 127
2, 105560, Note_on_c, 1, 60, 127
2, 105560, Note_on_c, 1, 62, 127
2, 105640, Note_off_c, 1, 51, 0
2, 105640, Note_off_c, 1, 54, 0
2, 105640, Note_off_c, 1, 57, 0
2, 105640, Note_off_c, 1, 60, 0
2, 105640, Note_off_c, 1, 62, 0
2, 105640, Note_on_c, 1, 73, 127
2, 105640, Note_on_c, 1, 76, 127
2, 105640, Note_on_c, 1, 78, 127
2, 105680, Note_on_c, 1, 42, 127
2, 105680, Note_on_c, 1, 54, 127
2, 105680, Note_on_c, 1, 59, 127
2, 105680, Note_on_c, 1, 62, 127
2, 105680, Note_on_c, 1, 66, 127
2, 105680, Note_on_c, 1, 71, 127
2, 105680, Note_off_c, 1, 73, 0
2, 105680, Note_off_c, 1, 76, 0
2, 105680, Note_off_c, 1, 78, 0
2, 105920, Note_off_c, 1, 42, 0
2, 105920, Note_on_c, 1, 45, 127
2, 105920, Note_on_c, 1, 47, 127
2, 105920, Note_off_c, 1, 54, 0
2, 105920, Note_on_c, 1, 57, 127
2, 105920, Note_off_c, 1, 59, 0
2, 105920, Note_off_c, 1, 62, 0
2, 105920, Note_on_c, 1, 63, 127
2, 105920, Note_on_c, 1, 75, 127
2, 105960, Note_off_c, 1, 47, 0
2, 105960, Note_on_c, 1, 53, 127
2, 105960, Note_off_c, 1, 63, 0
2, 105960, Note_on_c, 1, 64, 127
2, 105960, Note_off_c, 1, 66, 0
2, 105960, Note_off_c, 1, 71, 0
2, 105960, Note_off_c, 1, 75, 0
2, 106000, Note_off_c, 1, 45, 0
2, 106000, Note_off_c, 1, 53, 0
2, 106000, Note_on_c, 1, 54, 127
2, 106000, Note_off_c, 1, 57, 0
2, 106000, Note_on_c, 1, 67, 127
2, 106000, Note_on_c, 1, 76, 127
2, 106040, Note_on_c, 1, 47, 127
2, 106040, Note_off_c, 1, 64, 0
2, 106040, Note_off_c, 1, 67, 0
2, 106040, Note_on_c, 1, 75, 127
2, 106040, Note_off_c, 1, 76, 0
2, 106040, Note_on_c, 1, 78, 127
2, 106040, Note_on_c, 1, 87, 127
2, 106080, Note_off_c, 1, 54, 0
2, 106080, Note_on_c, 1, 57, 127
2, 106080, Note_off_c, 1, 75, 0
2, 106080, Note_off_c, 1, 78, 0
2, 106120, Note_on_c, 1, 37, 127
2, 106120, Note_off_c, 1, 47, 0
2, 106120, Note_off_c, 1, 57, 0
2, 106120, Note_on_c, 1, 63, 127
2, 106120, Note_on_c, 1, 66, 127
2, 106120, Note_off_c, 1, 87, 0
2, 106160, Note_on_c, 1, 32, 127
2, 106160, Note_off_c, 1, 37, 0
2, 106160, Note_on_c, 1, 44, 127
2, 106160, Note_on_c, 1, 56, 127
2, 106160, Note_on_c, 1, 61, 127
2, 106160, Note_off_c, 1, 63, 0
2, 106160, Note_on_c, 1, 65, 127
2, 106160, Note_off_c, 1, 66, 0
2, 106160, Note_on_c, 1, 68, 127
2, 106200, Note_off_c, 1, 32, 0
2, 106200, Note_off_c, 1, 44, 0
2, 106200, Note_on_c, 1, 53, 127
2, 106200, Note_off_c, 1, 56, 0
2, 106200, Note_on_c, 1, 57, 127
2, 106200, Note_off_c, 1, 61, 0
2, 106200, Note_on_c, 1, 62, 127
2, 106200, Note_off_c, 1, 65, 0
2, 106200, Note_off_c, 1, 68, 0
2, 106200, Note_on_c, 1, 69, 127
2, 106200, Note_on_c, 1, 72, 127
2, 106240, Note_on_c, 1, 50, 127
2, 106240, Note_off_c, 1, 53, 0
2, 106240, Note_off_c, 1, 57, 0
2, 106240, Note_off_c, 1, 62, 0
2, 106240, Note_on_c, 1, 63, 127
2, 106240, Note_on_c, 1, 65, 127
2, 106240, Note_on_c, 1, 67, 127
2, 106240, Note_off_c, 1, 69, 0
2, 106240, Note_off_c, 1, 72, 0
2, 106280, Note_on_c, 1, 44, 127
2, 106280, Note_on_c, 1, 47, 127
2, 106280, Note_off_c, 1, 50, 0
2, 106280, Note_on_c, 1, 61, 127
2, 106280, Note_off_c, 1, 63, 0
2, 106280, Note_off_c, 1, 67, 0
2, 106280, Note_on_c, 1, 73, 127
2, 106320, Note_off_c, 1, 44, 0
2, 106320, Note_off_c, 1, 47, 0
2, 106320, Note_on_c, 1, 49, 127
2, 106320, Note_off_c, 1, 65, 0
2, 106320, Note_on_c, 1, 66, 127
2, 106320, Note_on_c, 1, 68, 127
2, 106320, Note_off_c, 1, 73, 0
2, 106360, Note_off_c, 1, 49, 0
2, 106360, Note_off_c, 1, 61, 0
2, 106360, Note_off_c, 1, 66, 0
2, 106360, Note_off_c, 1, 68, 0
2, 106400, Note_on_c, 1, 61, 127
2, 106400, Note_on_c, 1, 66, 127
2, 106440, Note_on_c, 1, 51, 127
2, 106440, Note_on_c, 1, 59, 127
2, 106440, Note_off_c, 1, 61, 0
2, 106440, Note_off_c, 1, 66, 0
2, 106520, Note_on_c, 1, 39, 127
2, 106520, Note_off_c, 1, 59, 0
2, 106520, Note_on_c, 1, 70, 127
2, 106520, Note_on_c, 1, 76, 127
2, 106520, Note_on_c, 1, 80, 127
2, 106560, Note_off_c, 1, 39, 0
2, 106560, Note_off_c, 1, 51, 0
2, 106560, Note_on_c, 1, 69, 127
2, 106560, Note_off_c, 1, 70, 0
2, 106560, Note_on_c, 1, 78, 127
2, 106560, Note_off_c, 1, 80, 0
2, 106600, Note_on_c, 1, 36, 127
2, 106600, Note_on_c, 1, 52, 127
2, 106600, Note_on_c, 1, 61, 127
2, 106600, Note_on_c, 1, 67, 127
2, 106600, Note_off_c, 1, 69, 0
2, 106600, Note_off_c, 1, 76, 0
2, 106600, Note_off_c, 1, 78, 0
2, 106640, Note_off_c, 1, 36, 0
2, 106640, Note_on_c, 1, 45, 127
2, 106640, Note_on_c, 1, 57, 127
2, 106640, Note_off_c, 1, 61, 0
2, 106640, Note_off_c, 1, 67, 0
2, 106640, Note_on_c, 1, 81, 127
2, 106640, Note_on_c, 1, 84, 127
2, 106640, Note_on_c, 1, 88, 127
2, 106640, Note_on_c, 1, 93, 127
2, 106680, Note_on_c, 1, 40, 127
2, 106680, Note_off_c, 1, 45, 0
2, 106680, Note_on_c, 1, 49, 127
2, 106680, Note_off_c, 1, 52, 0
2, 106680, Note_off_c, 1, 57, 0
2, 106680, Note_on_c, 1, 58, 127
2, 106680, Note_on_c, 1, 67, 127
2, 106680, Note_off_c, 1, 81, 0
2, 106680, Note_off_c, 1, 84, 0
2, 106680, Note_off_c, 1, 88, 0
2, 106680, Note_off_c, 1, 93, 0
2, 106720, Note_off_c, 1, 40, 0
2, 106720, Note_off_c, 1, 49, 0
2, 106720, Note_off_c, 1, 58, 0
2, 106720, Note_off_c, 1, 67, 0
2, 106720, Note_on_c, 1, 86, 127
2, 106720, Note_on_c, 1, 93, 127
2, 106720, Note_on_c, 1, 98, 127
2, 106720, Note_on_c, 1, 105, 127
2, 106760, Note_on_c, 1, 48, 127
2, 106760, Note_on_c, 1, 53, 127
2, 106760, Note_on_c, 1, 56, 127
2, 106760, Note_on_c, 1, 59, 127
2, 106760, Note_on_c, 1, 62, 127
2, 106760, Note_on_c, 1, 65, 127
2, 106760, Note_on_c, 1, 68, 127
2, 106760, Note_on_c, 1, 71, 127
2, 106760, Note_on_c, 1, 74, 127
2, 106760, Note_off_c, 1, 86, 0
2, 106760, Note_off_c, 1, 93, 0
2, 106760, Note_off_c, 1, 98, 0
2, 106760, Note_off_c, 1, 105, 0
2, 106800, Note_on_c, 1, 36, 127
2, 106800, Note_off_c, 1, 53, 0
2, 106800, Note_off_c, 1, 56, 0
2, 106800, Note_on_c, 1, 58, 127
2, 106800, Note_off_c, 1, 59, 0
2, 106800, Note_on_c, 1, 60, 127
2, 106800, Note_off_c, 1, 62, 0
2, 106800, Note_on_c, 1, 64, 127
2, 106800, Note_off_c, 1, 65, 0
2, 106800, Note_on_c, 1, 67, 127
2, 106800, Note_off_c, 1, 68, 0
2, 106800, Note_off_c, 1, 71, 0
2, 106800, Note_on_c, 1, 72, 127
2, 106800, Note_off_c, 1, 74, 0
2, 106840, Note_off_c, 1, 36, 0
2, 106840, Note_off_c, 1, 48, 0
2, 106840, Note_off_c, 1, 58, 0
2, 106840, Note_off_c, 1, 60, 0
2, 106840, Note_off_c, 1, 64, 0
2, 106840, Note_off_c, 1, 67, 0
2, 106840, Note_off_c, 1, 72, 0
2, 106840, Note_on_c, 1, 86, 127
2, 106840, Note_on_c, 1, 93, 127
2, 106840, Note_on_c, 1, 98, 127
2, 106840, Note_on_c, 1, 105, 127
2, 107040, Note_on_c, 1, 40, 127
2, 107040, Note_on_c, 1, 43, 127
2, 107040, Note_on_c, 1, 48, 127
2, 107040, Note_on_c, 1, 52, 127
2, 107040, Note_on_c, 1, 72, 127
2, 107040, Note_on_c, 1, 76, 127
2, 107040, Note_on_c, 1, 79, 127
2, 107040, Note_on_c, 1, 84, 127
2, 107040, Note_off_c, 1, 86, 0
2, 107040, Note_off_c, 1, 93, 0
2, 107040, Note_off_c, 1, 98, 0
2, 107040, Note_off_c, 1, 105, 0
2, 107080, Note_off_c, 1, 40, 0
2, 107080, Note_off_c, 1, 43, 0
2, 107080, Note_off_c, 1, 48, 0
2, 107080, Note_off_c, 1, 52, 0
2, 107080, Note_off_c, 1, 72, 0
2, 107080, Note_off_c, 1, 76, 0
2, 107080, Note_off_c, 1, 79, 0
2, 107080, Note_off_c, 1, 84, 0
2, 107080, Note_on_c, 1, 86, 127
2, 107080, Note_on_c, 1, 93, 127
2, 107080, Note_on_c, 1, 98, 127
2, 107080, Note_on_c, 1, 105, 127
2, 107520, Note_off_c, 1, 86, 0
2, 107520, Note_off_c, 1, 93, 0
2, 107520, Note_off_c, 1, 98, 0
2, 107520, Note_off_c, 1, 105, 0
2, 107560, Note_on_c, 1, 86, 127
2, 107560, Note_on_c, 1, 93, 127
2, 107560, Note_on_c, 1, 98, 127
2, 107560, Note_on_c, 1, 105, 127
2, 108040, Note_off_c, 1, 86, 0
2, 108040, Note_off_c, 1, 93, 0
2, 108040, Note_off_c, 1, 98, 0
2, 108040, Note_off_c, 1, 105, 0
2, 108480, Note_on_c, 1, 43, 127
2, 108480, Note_on_c, 1, 49, 127
2, 108480, Note_on_c, 1, 59, 127
2, 108480, Note_on_c, 1, 61, 127
2, 108760, Note_on_c, 1, 41, 127
2, 108760, Note_off_c, 1, 43, 0
2, 108760, Note_off_c, 1, 49, 0
2, 108760, Note_on_c, 1, 58, 127
2, 108760, Note_off_c, 1, 59, 0
2, 108760, Note_off_c, 1, 61, 0
2, 108760, Note_on_c, 1, 62, 127
2, 108760, Note_on_c, 1, 70, 127
2, 108760, Note_on_c, 1, 74, 127
2, 108800, Note_off_c, 1, 41, 0
2, 108800, Note_on_c, 1, 42, 127
2, 108800, Note_on_c, 1, 50, 127
2, 108800, Note_off_c, 1, 58, 0
2, 108800, Note_off_c, 1, 62, 0
2, 108800, Note_off_c, 1, 70, 0
2, 108800, Note_off_c, 1, 74, 0
2, 108840, Note_off_c, 1, 42, 0
2, 108840, Note_on_c, 1, 49, 127
2, 108840, Note_off_c, 1, 50, 0
2, 108840, Note_on_c, 1, 59, 127
2, 108840, Note_on_c, 1, 61, 127
2, 108880, Note_on_c, 1, 56, 127
2, 108880, Note_off_c, 1, 59, 0
2, 108880, Note_off_c, 1, 61, 0
2, 108880, Note_on_c, 1, 65, 127
2, 108880, Note_on_c, 1, 71, 127
2, 108920, Note_on_c, 1, 41, 127
2, 108920, Note_off_c, 1, 49, 0
2, 108920, Note_off_c, 1, 56, 0
2, 108920, Note_off_c, 1, 65, 0
2, 108920, Note_off_c, 1, 71, 0
2, 108960, Note_on_c, 1, 49, 127
2, 109040, Note_off_c, 1, 41, 0
2, 109080, Note_on_c, 1, 48, 127
2, 109080, Note_off_c, 1, 49, 0
2, 109080, Note_on_c, 1, 50, 127
2, 109080, Note_on_c, 1, 81, 127
2, 109120, Note_off_c, 1, 50, 0
2, 109120, Note_on_c, 1, 79, 127
2, 109120, Note_off_c, 1, 81, 0
2, 109160, Note_on_c, 1, 35, 127
2, 109160, Note_on_c, 1, 42, 127
2, 109160, Note_off_c, 1, 48, 0
2, 109160, Note_on_c, 1, 54, 127
2, 109160, Note_on_c, 1, 74, 127
2, 109160, Note_on_c, 1, 77, 127
2, 109160, Note_off_c, 1, 79, 0
2, 109160, Note_on_c, 1, 83, 127
2, 109200, Note_off_c, 1, 35, 0
2, 109200, Note_off_c, 1, 42, 0
2, 109200, Note_off_c, 1, 54, 0
2, 109200, Note_on_c, 1, 60, 127
2, 109200, Note_on_c, 1, 66, 127
2, 109200, Note_off_c, 1, 74, 0
2, 109200, Note_off_c, 1, 77, 0
2, 109200, Note_on_c, 1, 82, 127
2, 109200, Note_off_c, 1, 83, 0
2, 109240, Note_on_c, 1, 48, 127
2, 109240, Note_on_c, 1, 53, 127
2, 109240, Note_off_c, 1, 60, 0
2, 109240, Note_on_c, 1, 62, 127
2, 109240, Note_off_c, 1, 66, 0
2, 109240, Note_on_c, 1, 67, 127
2, 109240, Note_on_c, 1, 74, 127
2, 109240, Note_off_c, 1, 82, 0
2, 109280, Note_on_c, 1, 47, 127
2, 109280, Note_off_c, 1, 48, 0
2, 109280, Note_off_c, 1, 53, 0
2, 109280, Note_on_c, 1, 54, 127
2, 109280, Note_on_c, 1, 61, 127
2, 109280, Note_off_c, 1, 62, 0
2, 109280, Note_on_c, 1, 64, 127
2, 109280, Note_off_c, 1, 67, 0
2, 109280, Note_on_c, 1, 73, 127
2, 109280, Note_off_c, 1, 74, 0
2, 109320, Note_off_c, 1, 54, 0
2, 109320, Note_on_c, 1, 55, 127
2, 109320, Note_on_c, 1, 58, 127
2, 109320, Note_off_c, 1, 61, 0
2, 109320, Note_on_c, 1, 70, 127
2, 109320, Note_off_c, 1, 73, 0
2, 109360, Note_on_c, 1, 54, 127
2, 109360, Note_off_c, 1, 55, 0
2, 109360, Note_off_c, 1, 58, 0
2, 109360, Note_on_c, 1, 61, 127
2, 109360, Note_off_c, 1, 70, 0
2, 109360, Note_on_c, 1, 73, 127
2, 109400, Note_off_c, 1, 47, 0
2, 109400, Note_on_c, 1, 49, 127
2, 109400, Note_off_c, 1, 54, 0
2, 109400, Note_on_c, 1, 56, 127
2, 109400, Note_on_c, 1, 58, 127
2, 109400, Note_off_c, 1, 64, 0
2, 109400, Note_on_c, 1, 68, 127
2, 109400, Note_off_c, 1, 73, 0
2, 109400, Note_on_c, 1, 80, 127
2, 109440, Note_on_c, 1, 39, 127
2, 109440, Note_off_c, 1, 49, 0
2, 109440, Note_off_c, 1, 56, 0
2, 109440, Note_off_c, 1, 58, 0
2, 109440, Note_off_c, 1, 61, 0
2, 109440, Note_off_c, 1, 68, 0
2, 109440, Note_on_c, 1, 71, 127
2, 109440, Note_on_c, 1, 74, 127
2, 109480, Note_on_c, 1, 38, 127
2, 109480, Note_off_c, 1, 39, 0
2, 109480, Note_on_c, 1, 59, 127
2, 109480, Note_on_c, 1, 60, 127
2, 109480, Note_on_c, 1, 64, 127
2, 109480, Note_off_c, 1, 71, 0
2, 109480, Note_off_c, 1, 74, 0
2, 109480, Note_off_c, 1, 80, 0
2, 109520, Note_off_c, 1, 38, 0
2, 109520, Note_on_c, 1, 47, 127
2, 109520, Note_on_c, 1, 51, 127
2, 109520, Note_on_c, 1, 54, 127
2, 109520, Note_on_c, 1, 57, 127
2, 109520, Note_off_c, 1, 59, 0
2, 109520, Note_off_c, 1, 60, 0
2, 109520, Note_on_c, 1, 63, 127
2, 109520, Note_off_c, 1, 64, 0
2, 109560, Note_off_c, 1, 47, 0
2, 109560, Note_off_c, 1, 51, 0
2, 109560, Note_off_c, 1, 54, 0
2, 109560, Note_off_c, 1, 57, 0
2, 109560, Note_on_c, 1, 66, 127
2, 109560, Note_on_c, 1, 70, 127
2, 109560, Note_on_c, 1, 72, 127
2, 109600, Note_on_c, 1, 41, 127
2, 109600, Note_on_c, 1, 48, 127
2, 109600, Note_on_c, 1, 58, 127
2, 109600, Note_on_c, 1, 60, 127
2, 109600, Note_off_c, 1, 63, 0
2, 109600, Note_off_c, 1, 66, 0
2, 109600, Note_on_c, 1, 67, 127
2, 109600, Note_off_c, 1, 70, 0
2, 109600, Note_off_c, 1, 72, 0
2, 109720, Note_off_c, 1, 41, 0
2, 109720, Note_on_c, 1, 47, 127
2, 109720, Note_off_c, 1, 48, 0
2, 109720, Note_on_c, 1, 51, 127
2, 109720, Note_on_c, 1, 54, 127
2, 109720, Note_off_c, 1, 58, 0
2, 109720, Note_on_c, 1, 59, 127
2, 109720, Note_off_c, 1, 60, 0
2, 109720, Note_off_c, 1, 67, 0
2, 109720, Note_on_c, 1, 79, 127
2, 109760, Note_off_c, 1, 51, 0
2, 109760, Note_on_c, 1, 52, 127
2, 109760, Note_off_c, 1, 54, 0
2, 109760, Note_on_c, 1, 68, 127
2, 109760, Note_on_c, 1, 71, 127
2, 109760, Note_off_c, 1, 79, 0
2, 109800, Note_off_c, 1, 47, 0
2, 109800, Note_off_c, 1, 52, 0
2, 109800, Note_off_c, 1, 59, 0
2, 109800, Note_off_c, 1, 68, 0
2, 109800, Note_off_c, 1, 71, 0
2, 109840, Note_on_c, 1, 60, 127
2, 109840, Note_on_c, 1, 74, 127
2, 109840, Note_on_c, 1, 78, 127
2, 109840, Note_on_c, 1, 81, 127
2, 109840, Note_on_c, 1, 86, 127
2, 109880, Note_off_c, 1, 60, 0
2, 109880, Note_on_c, 1, 63, 127
2, 109880, Note_on_c, 1, 66, 127
2, 109880, Note_on_c, 1, 68, 127
2, 109880, Note_on_c, 1, 72, 127
2, 109880, Note_off_c, 1, 74, 0
2, 109880, Note_on_c, 1, 77, 127
2, 109880, Note_off_c, 1, 78, 0
2, 109880, Note_on_c, 1, 80, 127
2, 109880, Note_off_c, 1, 81, 0
2, 109880, Note_off_c, 1, 86, 0
2, 109880, Note_on_c, 1, 89, 127
2, 109920, Note_on_c, 1, 34, 127
2, 109920, Note_on_c, 1, 62, 127
2, 109920, Note_off_c, 1, 63, 0
2, 109920, Note_on_c, 1, 65, 127
2, 109920, Note_off_c, 1, 66, 0
2, 109920, Note_on_c, 1, 70, 127
2, 109920, Note_off_c, 1, 72, 0
2, 109920, Note_off_c, 1, 77, 0
2, 109920, Note_off_c, 1, 80, 0
2, 109920, Note_off_c, 1, 89, 0
2, 109960, Note_off_c, 1, 34, 0
2, 109960, Note_on_c, 1, 37, 127
2, 109960, Note_on_c, 1, 47, 127
2, 109960, Note_off_c, 1, 62, 0
2, 109960, Note_off_c, 1, 65, 0
2, 109960, Note_off_c, 1, 68, 0
2, 109960, Note_off_c, 1, 70, 0
2, 110000, Note_off_c, 1, 37, 0
2, 110000, Note_off_c, 1, 47, 0
2, 110000, Note_on_c, 1, 62, 127
2, 110000, Note_on_c, 1, 68, 127
2, 110000, Note_on_c, 1, 70, 127
2, 110000, Note_on_c, 1, 81, 127
2, 110000, Note_on_c, 1, 82, 127
2, 110000, Note_on_c, 1, 83, 127
2, 110040, Note_off_c, 1, 62, 0
2, 110040, Note_off_c, 1, 68, 0
2, 110040, Note_off_c, 1, 70, 0
2, 110040, Note_off_c, 1, 81, 0
2, 110040, Note_off_c, 1, 82, 0
2, 110040, Note_off_c, 1, 83, 0
2, 110080, Note_on_c, 1, 61, 127
2, 110080, Note_on_c, 1, 83, 127
2, 110080, Note_on_c, 1, 93, 127
2, 110120, Note_on_c, 1, 57, 127
2, 110120, Note_off_c, 1, 61, 0
2, 110120, Note_on_c, 1, 65, 127
2, 110120, Note_on_c, 1, 69, 127
2, 110120, Note_on_c, 1, 74, 127
2, 110120, Note_on_c, 1, 77, 127
2, 110120, Note_on_c, 1, 81, 127
2, 110120, Note_off_c, 1, 83, 0
2, 110120, Note_off_c, 1, 93, 0
2, 110160, Note_off_c, 1, 57, 0
2, 110160, Note_off_c, 1, 65, 0
2, 110160, Note_off_c, 1, 69, 0
2, 110160, Note_on_c, 1, 70, 127
2, 110160, Note_on_c, 1, 73, 127
2, 110160, Note_off_c, 1, 74, 0
2, 110160, Note_off_c, 1, 81, 0
2, 110160, Note_on_c, 1, 82, 127
2, 110160, Note_on_c, 1, 84, 127
2, 110200, Note_on_c, 1, 34, 127
2, 110200, Note_on_c, 1, 46, 127
2, 110200, Note_on_c, 1, 66, 127
2, 110200, Note_on_c, 1, 69, 127
2, 110200, Note_off_c, 1, 70, 0
2, 110200, Note_on_c, 1, 72, 127
2, 110200, Note_off_c, 1, 73, 0
2, 110200, Note_off_c, 1, 82, 0
2, 110200, Note_off_c, 1, 84, 0
2, 110240, Note_off_c, 1, 34, 0
2, 110240, Note_off_c, 1, 46, 0
2, 110240, Note_on_c, 1, 62, 127
2, 110240, Note_on_c, 1, 68, 127
2, 110240, Note_off_c, 1, 69, 0
2, 110240, Note_on_c, 1, 71, 127
2, 110240, Note_off_c, 1, 72, 0
2, 110240, Note_off_c, 1, 77, 0
2, 110240, Note_on_c, 1, 78, 127
2, 110240, Note_on_c, 1, 80, 127
2, 110280, Note_on_c, 1, 42, 127
2, 110280, Note_on_c, 1, 54, 127
2, 110280, Note_off_c, 1, 62, 0
2, 110280, Note_off_c, 1, 66, 0
2, 110280, Note_off_c, 1, 68, 0
2, 110280, Note_off_c, 1, 80, 0
2, 110280, Note_on_c, 1, 81, 127
2, 110280, Note_on_c, 1, 83, 127
2, 110320, Note_off_c, 1, 42, 0
2, 110320, Note_on_c, 1, 47, 127
2, 110320, Note_off_c, 1, 54, 0
2, 110320, Note_off_c, 1, 71, 0
2, 110320, Note_off_c, 1, 78, 0
2, 110320, Note_off_c, 1, 81, 0
2, 110320, Note_off_c, 1, 83, 0
2, 110320, Note_on_c, 1, 87, 127
2, 110360, Note_off_c, 1, 47, 0
2, 110360, Note_on_c, 1, 55, 127
2, 110360, Note_on_c, 1, 73, 127
2, 110360, Note_on_c, 1, 79, 127
2, 110360, Note_on_c, 1, 81, 127
2, 110360, Note_on_c, 1, 85, 127
2, 110360, Note_off_c, 1, 87, 0
2, 110400, Note_on_c, 1, 58, 127
2, 110400, Note_on_c, 1, 61, 127
2, 110400, Note_on_c, 1, 63, 127
2, 110400, Note_off_c, 1, 73, 0
2, 110400, Note_off_c, 1, 79, 0
2, 110400, Note_off_c, 1, 81, 0
2, 110400, Note_off_c, 1, 85, 0
2, 110400, Note_on_c, 1, 94, 127
2, 110440, Note_off_c, 1, 55, 0
2, 110440, Note_off_c, 1, 58, 0
2, 110440, Note_off_c, 1, 61, 0
2, 110440, Note_off_c, 1, 63, 0
2, 110440, Note_on_c, 1, 86, 127
2, 110440, Note_on_c, 1, 92, 127
2, 110440, Note_off_c, 1, 94, 0
2, 110440, Note_on_c, 1, 95, 127
2, 110440, Note_on_c, 1, 98, 127
2, 110480, Note_on_c, 1, 58, 127
2, 110480, Note_on_c, 1, 64, 127
2, 110480, Note_on_c, 1, 79, 127
2, 110480, Note_on_c, 1, 81, 127
2, 110480, Note_off_c, 1, 86, 0
2, 110480, Note_off_c, 1, 92, 0
2, 110480, Note_off_c, 1, 95, 0
2, 110480, Note_off_c, 1, 98, 0
2, 110520, Note_off_c, 1, 58, 0
2, 110520, Note_on_c, 1, 63, 127
2, 110520, Note_off_c, 1, 64, 0
2, 110520, Note_on_c, 1, 72, 127
2, 110520, Note_off_c, 1, 79, 0
2, 110520, Note_on_c, 1, 80, 127
2, 110520, Note_off_c, 1, 81, 0
2, 110520, Note_on_c, 1, 89, 127
2, 110560, Note_off_c, 1, 63, 0
2, 110560, Note_off_c, 1, 80, 0
2, 110560, Note_on_c, 1, 84, 127
2, 110560, Note_off_c, 1, 89, 0
2, 110600, Note_on_c, 1, 48, 127
2, 110600, Note_off_c, 1, 72, 0
2, 110600, Note_on_c, 1, 82, 127
2, 110600, Note_off_c, 1, 84, 0
2, 110600, Note_on_c, 1, 86, 127
2, 110600, Note_on_c, 1, 94, 127
2, 110640, Note_on_c, 1, 31, 127
2, 110640, Note_on_c, 1, 37, 127
2, 110640, Note_on_c, 1, 43, 127
2, 110640, Note_off_c, 1, 48, 0
2, 110640, Note_off_c, 1, 82, 0
2, 110640, Note_on_c, 1, 85, 127
2, 110640, Note_off_c, 1, 86, 0
2, 110640, Note_off_c, 1, 94, 0
2, 110680, Note_off_c, 1, 31, 0
2, 110680, Note_off_c, 1, 37, 0
2, 110680, Note_off_c, 1, 43, 0
2, 110680, Note_on_c, 1, 82, 127
2, 110680, Note_off_c, 1, 85, 0
2, 110680, Note_on_c, 1, 86, 127
2, 110680, Note_on_c, 1, 94, 127
2, 110720, Note_on_c, 1, 50, 127
2, 110720, Note_on_c, 1, 53, 127
2, 110720, Note_on_c, 1, 57, 127
2, 110720, Note_on_c, 1, 62, 127
2, 110720, Note_off_c, 1, 82, 0
2, 110720, Note_on_c, 1, 85, 127
2, 110720, Note_off_c, 1, 86, 0
2, 110720, Note_off_c, 1, 94, 0
2, 110760, Note_on_c, 1, 45, 127
2, 110760, Note_on_c, 1, 49, 127
2, 110760, Note_off_c, 1, 50, 0
2, 110760, Note_off_c, 1, 53, 0
2, 110760, Note_off_c, 1, 57, 0
2, 110760, Note_on_c, 1, 58, 127
2, 110760, Note_off_c, 1, 62, 0
2, 110760, Note_off_c, 1, 85, 0
2, 110800, Note_off_c, 1, 45, 0
2, 110800, Note_off_c, 1, 49, 0
2, 110800, Note_on_c, 1, 57, 127
2, 110800, Note_off_c, 1, 58, 0
2, 110800, Note_on_c, 1, 62, 127
2, 110800, Note_on_c, 1, 93, 127
2, 110840, Note_off_c, 1, 57, 0
2, 110840, Note_off_c, 1, 62, 0
2, 110840, Note_on_c, 1, 81, 127
2, 110880, Note_on_c, 1, 60, 127
2, 110880, Note_on_c, 1, 63, 127
2, 110880, Note_on_c, 1, 66, 127
2, 110880, Note_on_c, 1, 69, 127
2, 110880, Note_on_c, 1, 72, 127
2, 110880, Note_off_c, 1, 81, 0
2, 110880, Note_off_c, 1, 93, 0
2, 110920, Note_on_c, 1, 52, 127
2, 110920, Note_on_c, 1, 59, 127
2, 110920, Note_off_c, 1, 60, 0
2, 110920, Note_on_c, 1, 61, 127
2, 110920, Note_off_c, 1, 63, 0
2, 110920, Note_off_c, 1, 66, 0
2, 110920, Note_off_c, 1, 72, 0
2, 110960, Note_on_c, 1, 40, 127
2, 110960, Note_off_c, 1, 52, 0
2, 110960, Note_on_c, 1, 55, 127
2, 110960, Note_off_c, 1, 59, 0
2, 110960, Note_on_c, 1, 60, 127
2, 110960, Note_off_c, 1, 61, 0
2, 110960, Note_off_c, 1, 69, 0
2, 110960, Note_on_c, 1, 71, 127
2, 111000, Note_on_c, 1, 33, 127
2, 111000, Note_off_c, 1, 40, 0
2, 111000, Note_on_c, 1, 49, 127
2, 111000, Note_off_c, 1, 55, 0
2, 111000, Note_off_c, 1, 60, 0
2, 111000, Note_on_c, 1, 61, 127
2, 111000, Note_on_c, 1, 69, 127
2, 111000, Note_off_c, 1, 71, 0
2, 111040, Note_off_c, 1, 33, 0
2, 111040, Note_off_c, 1, 49, 0
2, 111040, Note_off_c, 1, 61, 0
2, 111040, Note_off_c, 1, 69, 0
2, 111040, Note_on_c, 1, 92, 127
2, 111040, Note_on_c, 1, 94, 127
2, 111080, Note_on_c, 1, 62, 127
2, 111080, Note_on_c, 1, 74, 127
2, 111080, Note_on_c, 1, 83, 127
2, 111080, Note_on_c, 1, 86, 127
2, 111080, Note_off_c, 1, 92, 0
2, 111080, Note_off_c, 1, 94, 0
2, 111120, Note_off_c, 1, 62, 0
2, 111120, Note_off_c, 1, 74, 0
2, 111120, Note_off_c, 1, 83, 0
2, 111120, Note_off_c, 1, 86, 0
2, 111320, Note_on_c, 1, 27, 127
2, 111320, Note_on_c, 1, 57, 127
2, 111360, Note_off_c, 1, 27, 0
2, 111360, Note_off_c, 1, 57, 0
2, 111360, Note_on_c, 1, 62, 127
2, 111360, Note_on_c, 1, 71, 127
2, 111360, Note_on_c, 1, 90, 127
2, 111360, Note_on_c, 1, 96, 127
2, 111400, Note_on_c, 1, 33, 127
2, 111400, Note_on_c, 1, 40, 127
2, 111400, Note_off_c, 1, 62, 0
2, 111400, Note_on_c, 1, 64, 127
2, 111400, Note_on_c, 1, 66, 127
2, 111400, Note_on_c, 1, 69, 127
2, 111400, Note_off_c, 1, 71, 0
2, 111400, Note_on_c, 1, 72, 127
2, 111400, Note_off_c, 1, 90, 0
2, 111400, Note_off_c, 1, 96, 0
2, 111440, Note_off_c, 1, 33, 0
2, 111440, Note_off_c, 1, 40, 0
2, 111440, Note_on_c, 1, 48, 127
2, 111440, Note_on_c, 1, 59, 127
2, 111440, Note_off_c, 1, 64, 0
2, 111440, Note_off_c, 1, 66, 0
2, 111440, Note_on_c, 1, 68, 127
2, 111440, Note_off_c, 1, 69, 0
2, 111440, Note_on_c, 1, 70, 127
2, 111440, Note_off_c, 1, 72, 0
2, 111480, Note_on_c, 1, 44, 127
2, 111480, Note_off_c, 1, 48, 0
2, 111480, Note_off_c, 1, 59, 0
2, 111480, Note_on_c, 1, 66, 127
2, 111480, Note_off_c, 1, 68, 0
2, 111480, Note_off_c, 1, 70, 0
2, 111480, Note_on_c, 1, 90, 127
2, 111520, Note_off_c, 1, 44, 0
2, 111520, Note_off_c, 1, 66, 0
2, 111520, Note_off_c, 1, 90, 0
2, 111560, Note_on_c, 1, 75, 127
2, 111560, Note_on_c, 1, 80, 127
2, 111560, Note_on_c, 1, 95, 127
2, 111600, Note_on_c, 1, 83, 127
2, 111600, Note_off_c, 1, 95, 0
2, 111680, Note_on_c, 1, 51, 127
2, 111680, Note_off_c, 1, 75, 0
2, 111680, Note_on_c, 1, 87, 127
2, 111720, Note_off_c, 1, 51, 0
2, 111720, Note_on_c, 1, 75, 127
2, 111720, Note_off_c, 1, 87, 0
2, 111760, Note_on_c, 1, 38, 127
2, 111760, Note_on_c, 1, 50, 127
2, 111760, Note_on_c, 1, 57, 127
2, 111760, Note_on_c, 1, 60, 127
2, 111760, Note_off_c, 1, 75, 0
2, 111760, Note_off_c, 1, 80, 0
2, 111760, Note_off_c, 1, 83, 0
2, 111800, Note_off_c, 1, 38, 0
2, 111800, Note_on_c, 1, 45, 127
2, 111800, Note_off_c, 1, 50, 0
2, 111800, Note_off_c, 1, 57, 0
2, 111800, Note_off_c, 1, 60, 0
2, 111800, Note_on_c, 1, 64, 127
2, 111800, Note_on_c, 1, 80, 127
2, 111840, Note_off_c, 1, 45, 0
2, 111840, Note_off_c, 1, 64, 0
2, 111840, Note_off_c, 1, 80, 0
2, 111840, Note_on_c, 1, 83, 127
2, 111840, Note_on_c, 1, 89, 127
2, 111880, Note_on_c, 1, 30, 127
2, 111880, Note_on_c, 1, 42, 127
2, 111880, Note_off_c, 1, 83, 0
2, 111880, Note_on_c, 1, 85, 127
2, 111880, Note_off_c, 1, 89, 0
2, 111880, Note_on_c, 1, 93, 127
2, 111920, Note_off_c, 1, 30, 0
2, 111920, Note_off_c, 1, 42, 0
2, 111920, Note_off_c, 1, 85, 0
2, 111920, Note_off_c, 1, 93, 0
2, 111920, Note_on_c, 1, 106, 127
2, 111960, Note_on_c, 1, 95, 127
2, 111960, Note_off_c, 1, 106, 0
2, 112000, Note_on_c, 1, 59, 127
2, 112000, Note_on_c, 1, 83, 127
2, 112000, Note_on_c, 1, 90, 127
2, 112000, Note_off_c, 1, 95, 0
2, 112040, Note_off_c, 1, 59, 0
2, 112040, Note_on_c, 1, 62, 127
2, 112040, Note_on_c, 1, 66, 127
2, 112040, Note_on_c, 1, 82, 127
2, 112040, Note_off_c, 1, 83, 0
2, 112040, Note_off_c, 1, 90, 0
2, 112080, Note_off_c, 1, 62, 0
2, 112080, Note_off_c, 1, 66, 0
2, 112080, Note_off_c, 1, 82, 0
2, 112080, Note_on_c, 1, 83, 127
2, 112120, Note_on_c, 1, 80, 127
2, 112120, Note_off_c, 1, 83, 0
2, 112160, Note_off_c, 1, 80, 0
2, 112200, Note_on_c, 1, 68, 127
2, 112200, Note_on_c, 1, 80, 127
2, 112200, Note_on_c, 1, 89, 127
2, 112240, Note_on_c, 1, 50, 127
2, 112240, Note_on_c, 1, 57, 127
2, 112240, Note_off_c, 1, 68, 0
2, 112240, Note_on_c, 1, 74, 127
2, 112240, Note_off_c, 1, 80, 0
2, 112240, Note_on_c, 1, 84, 127
2, 112240, Note_off_c, 1, 89, 0
2, 112280, Note_off_c, 1, 50, 0
2, 112280, Note_off_c, 1, 57, 0
2, 112280, Note_off_c, 1, 74, 0
2, 112280, Note_off_c, 1, 84, 0
2, 112320, Note_on_c, 1, 56, 127
2, 112320, Note_on_c, 1, 88, 127
2, 112320, Note_on_c, 1, 92, 127
2, 112360, Note_off_c, 1, 56, 0
2, 112360, Note_on_c, 1, 59, 127
2, 112360, Note_on_c, 1, 65, 127
2, 112360, Note_on_c, 1, 71, 127
2, 112360, Note_on_c, 1, 83, 127
2, 112360, Note_off_c, 1, 88, 0
2, 112360, Note_off_c, 1, 92, 0
2, 112400, Note_on_c, 1, 54, 127
2, 112400, Note_on_c, 1, 57, 127
2, 112400, Note_off_c, 1, 59, 0
2, 112400, Note_on_c, 1, 61, 127
2, 112400, Note_off_c, 1, 65, 0
2, 112400, Note_on_c, 1, 66, 127
2, 112400, Note_off_c, 1, 71, 0
2, 112400, Note_off_c, 1, 83, 0
2, 112400, Note_on_c, 1, 88, 127
2, 112440, Note_on_c, 1, 37, 127
2, 112440, Note_on_c, 1, 44, 127
2, 112440, Note_off_c, 1, 54, 0
2, 112440, Note_off_c, 1, 57, 0
2, 112440, Note_off_c, 1, 61, 0
2, 112440, Note_off_c, 1, 66, 0
2, 112440, Note_on_c, 1, 75, 127
2, 112440, Note_off_c, 1, 88, 0
2, 112480, Note_off_c, 1, 37, 0
2, 112480, Note_off_c, 1, 44, 0
2, 112480, Note_off_c, 1, 75, 0
2, 112480, Note_on_c, 1, 93, 127
2, 112520, Note_on_c, 1, 45, 127
2, 112520, Note_on_c, 1, 48, 127
2, 112520, Note_on_c, 1, 53, 127
2, 112520, Note_on_c, 1, 57, 127
2, 112520, Note_on_c, 1, 77, 127
2, 112520, Note_off_c, 1, 93, 0
2, 112720, Note_off_c, 1, 45, 0
2, 112720, Note_off_c, 1, 48, 0
2, 112720, Note_off_c, 1, 53, 0
2, 112720, Note_off_c, 1, 57, 0
2, 112720, Note_off_c, 1, 77, 0
2, 112720, Note_on_c, 1, 89, 127
2, 112760, Note_on_c, 1, 65, 127
2, 112760, Note_on_c, 1, 69, 127
2, 112760, Note_on_c, 1, 71, 127
2, 112760, Note_off_c, 1, 89, 0
2, 112800, Note_off_c, 1, 65, 0
2, 112800, Note_off_c, 1, 69, 0
2, 112800, Note_off_c, 1, 71, 0
2, 112800, Note_on_c, 1, 79, 127
2, 112800, Note_on_c, 1, 81, 127
2, 112840, Note_on_c, 1, 77, 127
2, 112840, Note_off_c, 1, 79, 0
2, 112840, Note_off_c, 1, 81, 0
2, 112840, Note_on_c, 1, 82, 127
2, 112880, Note_on_c, 1, 52, 127
2, 112880, Note_on_c, 1, 55, 127
2, 112880, Note_on_c, 1, 58, 127
2, 112880, Note_on_c, 1, 76, 127
2, 112880, Note_off_c, 1, 77, 0
2, 112880, Note_on_c, 1, 79, 127
2, 112920, Note_off_c, 1, 52, 0
2, 112920, Note_off_c, 1, 55, 0
2, 112920, Note_off_c, 1, 58, 0
2, 112920, Note_off_c, 1, 76, 0
2, 112920, Note_off_c, 1, 79, 0
2, 112920, Note_off_c, 1, 82, 0
2, 112920, Note_on_c, 1, 92, 127
2, 112960, Note_on_c, 1, 61, 127
2, 112960, Note_on_c, 1, 65, 127
2, 112960, Note_on_c, 1, 80, 127
2, 113000, Note_off_c, 1, 61, 0
2, 113000, Note_on_c, 1, 63, 127
2, 113000, Note_off_c, 1, 65, 0
2, 113000, Note_on_c, 1, 67, 127
2, 113000, Note_on_c, 1, 77, 127
2, 113000, Note_off_c, 1, 80, 0
2, 113000, Note_on_c, 1, 89, 127
2, 113000, Note_off_c, 1, 92, 0
2, 113040, Note_on_c, 1, 61, 127
2, 113040, Note_off_c, 1, 63, 0
2, 113040, Note_on_c, 1, 65, 127
2, 113040, Note_off_c, 1, 67, 0
2, 113040, Note_off_c, 1, 77, 0
2, 113040, Note_on_c, 1, 80, 127
2, 113040, Note_off_c, 1, 89, 0
2, 113040, Note_on_c, 1, 92, 127
2, 113080, Note_on_c, 1, 56, 127
2, 113080, Note_off_c, 1, 61, 0
2, 113080, Note_off_c, 1, 65, 0
2, 113080, Note_off_c, 1, 80, 0
2, 113080, Note_on_c, 1, 88, 127
2, 113080, Note_on_c, 1, 91, 127
2, 113080, Note_off_c, 1, 92, 0
2, 113120, Note_off_c, 1, 56, 0
2, 113120, Note_off_c, 1, 88, 0
2, 113120, Note_off_c, 1, 91, 0
2, 113120, Note_on_c, 1, 92, 127
2, 113160, Note_on_c, 1, 64, 127
2, 113160, Note_off_c, 1, 92, 0
2, 113160, Note_on_c, 1, 102, 127
2, 113200, Note_on_c, 1, 37, 127
2, 113200, Note_on_c, 1, 49, 127
2, 113200, Note_on_c, 1, 56, 127
2, 113200, Note_on_c, 1, 61, 127
2, 113200, Note_off_c, 1, 64, 0
2, 113200, Note_on_c, 1, 65, 127
2, 113200, Note_on_c, 1, 101, 127
2, 113200, Note_off_c, 1, 102, 0
2, 113240, Note_off_c, 1, 37, 0
2, 113240, Note_off_c, 1, 49, 0
2, 113240, Note_off_c, 1, 56, 0
2, 113240, Note_off_c, 1, 61, 0
2, 113240, Note_off_c, 1, 65, 0
2, 113240, Note_on_c, 1, 95, 127
2, 113240, Note_off_c, 1, 101, 0
2, 113280, Note_on_c, 1, 61, 127
2, 113280, Note_on_c, 1, 66, 127
2, 113280, Note_on_c, 1, 70, 127
2, 113280, Note_off_c, 1, 95, 0
2, 113280, Note_on_c, 1, 102, 127
2, 113320, Note_off_c, 1, 61, 0
2, 113320, Note_off_c, 1, 66, 0
2, 113320, Note_off_c, 1, 70, 0
2, 113320, Note_off_c, 1, 102, 0
2, 113360, Note_on_c, 1, 97, 127
2, 113400, Note_on_c, 1, 59, 127
2, 113400, Note_on_c, 1, 69, 127
2, 113400, Note_on_c, 1, 71, 127
2, 113400, Note_on_c, 1, 77, 127
2, 113400, Note_on_c, 1, 81, 127
2, 113400, Note_off_c, 1, 97, 0
2, 113520, Note_off_c, 1, 59, 0
2, 113520, Note_off_c, 1, 69, 0
2, 113520, Note_off_c, 1, 71, 0
2, 113520, Note_off_c, 1, 77, 0
2, 113520, Note_off_c, 1, 81, 0
2, 113520, Note_on_c, 1, 95, 127
2, 113560, Note_on_c, 1, 42, 127
2, 113560, Note_on_c, 1, 57, 127
2, 113560, Note_on_c, 1, 62, 127
2, 113560, Note_on_c, 1, 66, 127
2, 113560, Note_on_c, 1, 69, 127
2, 113560, Note_off_c, 1, 95, 0
2, 113600, Note_off_c, 1, 42, 0
2, 113600, Note_off_c, 1, 57, 0
2, 113600, Note_off_c, 1, 62, 0
2, 113600, Note_off_c, 1, 66, 0
2, 113600, Note_off_c, 1, 69, 0
2, 113640, Note_on_c, 1, 59, 127
2, 113640, Note_on_c, 1, 66, 127
2, 113640, Note_on_c, 1, 71, 127
2, 113640, Note_on_c, 1, 83, 127
2, 113680, Note_off_c, 1, 59, 0
2, 113680, Note_on_c, 1, 61, 127
2, 113680, Note_off_c, 1, 66, 0
2, 113680, Note_on_c, 1, 70, 127
2, 113680, Note_off_c, 1, 71, 0
2, 113680, Note_on_c, 1, 77, 127
2, 113680, Note_off_c, 1, 83, 0
2, 113680, Note_on_c, 1, 89, 127
2, 113720, Note_on_c, 1, 59, 127
2, 113720, Note_off_c, 1, 61, 0
2, 113720, Note_off_c, 1, 70, 0
2, 113720, Note_off_c, 1, 77, 0
2, 113720, Note_off_c, 1, 89, 0
2, 113720, Note_on_c, 1, 96, 127
2, 113760, Note_off_c, 1, 59, 0
2, 113760, Note_on_c, 1, 64, 127
2, 113760, Note_on_c, 1, 69, 127
2, 113760, Note_on_c, 1, 93, 127
2, 113760, Note_off_c, 1, 96, 0
2, 113800, Note_on_c, 1, 51, 127
2, 113800, Note_on_c, 1, 54, 127
2, 113800, Note_on_c, 1, 57, 127
2, 113800, Note_on_c, 1, 59, 127
2, 113800, Note_off_c, 1, 64, 0
2, 113800, Note_off_c, 1, 69, 0
2, 113800, Note_on_c, 1, 87, 127
2, 113800, Note_off_c, 1, 93, 0
2, 113840, Note_off_c, 1, 51, 0
2, 113840, Note_off_c, 1, 54, 0
2, 113840, Note_off_c, 1, 57, 0
2, 113840, Note_off_c, 1, 59, 0
2, 113840, Note_off_c, 1, 87, 0
2, 113840, Note_on_c, 1, 100, 127
2, 113880, Note_on_c, 1, 63, 127
2, 113880, Note_on_c, 1, 66, 127
2, 113880, Note_on_c, 1, 82, 127
2, 113880, Note_on_c, 1, 87, 127
2, 113880, Note_on_c, 1, 90, 127
2, 113880, Note_off_c, 1, 100, 0
2, 113920, Note_off_c, 1, 63, 0
2, 113920, Note_off_c, 1, 66, 0
2, 113920, Note_off_c, 1, 82, 0
2, 113920, Note_off_c, 1, 87, 0
2, 113920, Note_off_c, 1, 90, 0
2, 114000, Note_on_c, 1, 59, 127
2, 114000, Note_on_c, 1, 65, 127
2, 114000, Note_on_c, 1, 69, 127
2, 114000, Note_on_c, 1, 71, 127
2, 114000, Note_on_c, 1, 75, 127
2, 114000, Note_on_c, 1, 81, 127
2, 114040, Note_on_c, 1, 43, 127
2, 114040, Note_on_c, 1, 49, 127
2, 114040, Note_on_c, 1, 52, 127
2, 114040, Note_on_c, 1, 58, 127
2, 114040, Note_off_c, 1, 59, 0
2, 114040, Note_on_c, 1, 61, 127
2, 114040, Note_on_c, 1, 64, 127
2, 114040, Note_off_c, 1, 65, 0
2, 114040, Note_off_c, 1, 69, 0
2, 114040, Note_on_c, 1, 70, 127
2, 114040, Note_off_c, 1, 71, 0
2, 114040, Note_off_c, 1, 75, 0
2, 114040, Note_off_c, 1, 81, 0
2, 114080, Note_off_c, 1, 43, 0
2, 114080, Note_off_c, 1, 49, 0
2, 114080, Note_off_c, 1, 52, 0
2, 114080, Note_on_c, 1, 54, 127
2, 114080, Note_off_c, 1, 61, 0
2, 114080, Note_off_c, 1, 70, 0
2, 114120, Note_on_c, 1, 55, 127
2, 114120, Note_on_c, 1, 57, 127
2, 114120, Note_off_c, 1, 58, 0
2, 114120, Note_off_c, 1, 64, 0
2, 114160, Note_off_c, 1, 54, 0
2, 114160, Note_off_c, 1, 55, 0
2, 114160, Note_on_c, 1, 56, 127
2, 114160, Note_off_c, 1, 57, 0
2, 114160, Note_on_c, 1, 61, 127
2, 114160, Note_on_c, 1, 64, 127
2, 114160, Note_on_c, 1, 67, 127
2, 114200, Note_off_c, 1, 56, 0
2, 114200, Note_off_c, 1, 61, 0
2, 114200, Note_off_c, 1, 64, 0
2, 114200, Note_off_c, 1, 67, 0
2, 114240, Note_on_c, 1, 43, 127
2, 114240, Note_on_c, 1, 58, 127
2, 114240, Note_on_c, 1, 77, 127
2, 114280, Note_off_c, 1, 43, 0
2, 114280, Note_off_c, 1, 58, 0
2, 114280, Note_on_c, 1, 76, 127
2, 114280, Note_off_c, 1, 77, 0
2, 114280, Note_on_c, 1, 78, 127
2, 114320, Note_off_c, 1, 76, 0
2, 114320, Note_off_c, 1, 78, 0
2, 114320, Note_on_c, 1, 96, 127
2, 114320, Note_on_c, 1, 97, 127
2, 114320, Note_on_c, 1, 100, 127
2, 114360, Note_on_c, 1, 47, 127
2, 114360, Note_on_c, 1, 63, 127
2, 114360, Note_on_c, 1, 64, 127
2, 114360, Note_on_c, 1, 66, 127
2, 114360, Note_off_c, 1, 96, 0
2, 114360, Note_off_c, 1, 97, 0
2, 114360, Note_off_c, 1, 100, 0
2, 114400, Note_off_c, 1, 47, 0
2, 114400, Note_off_c, 1, 63, 0
2, 114400, Note_off_c, 1, 64, 0
2, 114400, Note_off_c, 1, 66, 0
2, 114400, Note_on_c, 1, 81, 127
2, 114400, Note_on_c, 1, 83, 127
2, 114440, Note_off_c, 1, 81, 0
2, 114440, Note_off_c, 1, 83, 0
2, 114480, Note_on_c, 1, 69, 127
2, 114480, Note_on_c, 1, 79, 127
2, 114480, Note_on_c, 1, 84, 127
2, 114480, Note_on_c, 1, 86, 127
2, 114480, Note_on_c, 1, 91, 127
2, 114520, Note_on_c, 1, 27, 127
2, 114520, Note_on_c, 1, 39, 127
2, 114520, Note_on_c, 1, 61, 127
2, 114520, Note_off_c, 1, 69, 0
2, 114520, Note_off_c, 1, 79, 0
2, 114520, Note_off_c, 1, 84, 0
2, 114520, Note_off_c, 1, 86, 0
2, 114520, Note_off_c, 1, 91, 0
2, 114560, Note_off_c, 1, 27, 0
2, 114560, Note_off_c, 1, 39, 0
2, 114560, Note_on_c, 1, 56, 127
2, 114560, Note_off_c, 1, 61, 0
2, 114560, Note_on_c, 1, 63, 127
2, 114560, Note_on_c, 1, 66, 127
2, 114560, Note_on_c, 1, 70, 127
2, 114560, Note_on_c, 1, 75, 127
2, 114600, Note_on_c, 1, 35, 127
2, 114600, Note_on_c, 1, 42, 127
2, 114600, Note_off_c, 1, 56, 0
2, 114600, Note_off_c, 1, 63, 0
2, 114600, Note_off_c, 1, 66, 0
2, 114600, Note_off_c, 1, 70, 0
2, 114600, Note_off_c, 1, 75, 0
2, 114640, Note_off_c, 1, 35, 0
2, 114640, Note_off_c, 1, 42, 0
2, 114640, Note_on_c, 1, 54, 127
2, 114640, Note_on_c, 1, 64, 127
2, 114640, Note_on_c, 1, 70, 127
2, 114640, Note_on_c, 1, 73, 127
2, 114640, Note_on_c, 1, 78, 127
2, 114680, Note_off_c, 1, 54, 0
2, 114680, Note_off_c, 1, 64, 0
2, 114680, Note_off_c, 1, 70, 0
2, 114680, Note_off_c, 1, 73, 0
2, 114680, Note_off_c, 1, 78, 0
2, 114720, Note_on_c, 1, 39, 127
2, 114720, Note_on_c, 1, 41, 127
2, 114720, Note_on_c, 1, 54, 127
2, 114720, Note_on_c, 1, 57, 127
2, 114720, Note_on_c, 1, 60, 127
2, 114760, Note_off_c, 1, 39, 0
2, 114760, Note_off_c, 1, 41, 0
2, 114760, Note_on_c, 1, 49, 127
2, 114760, Note_off_c, 1, 57, 0
2, 114760, Note_off_c, 1, 60, 0
2, 114760, Note_on_c, 1, 93, 127
2, 114800, Note_off_c, 1, 49, 0
2, 114800, Note_on_c, 1, 52, 127
2, 114800, Note_off_c, 1, 54, 0
2, 114800, Note_on_c, 1, 55, 127
2, 114800, Note_on_c, 1, 58, 127
2, 114800, Note_on_c, 1, 60, 127
2, 114800, Note_on_c, 1, 82, 127
2, 114800, Note_on_c, 1, 86, 127
2, 114800, Note_off_c, 1, 93, 0
2, 114840, Note_off_c, 1, 52, 0
2, 114840, Note_off_c, 1, 55, 0
2, 114840, Note_off_c, 1, 58, 0
2, 114840, Note_off_c, 1, 60, 0
2, 114840, Note_on_c, 1, 61, 127
2, 114840, Note_on_c, 1, 73, 127
2, 114840, Note_off_c, 1, 82, 0
2, 114840, Note_on_c, 1, 85, 127
2, 114840, Note_off_c, 1, 86, 0
2, 114840, Note_on_c, 1, 88, 127
2, 114840, Note_on_c, 1, 93, 127
2, 114840, Note_on_c, 1, 97, 127
2, 114880, Note_on_c, 1, 55, 127
2, 114880, Note_on_c, 1, 57, 127
2, 114880, Note_on_c, 1, 60, 127
2, 114880, Note_off_c, 1, 61, 0
2, 114880, Note_on_c, 1, 66, 127
2, 114880, Note_off_c, 1, 73, 0
2, 114880, Note_on_c, 1, 78, 127
2, 114880, Note_off_c, 1, 85, 0
2, 114880, Note_off_c, 1, 88, 0
2, 114880, Note_on_c, 1, 90, 127
2, 114880, Note_off_c, 1, 93, 0
2, 114880, Note_off_c, 1, 97, 0
2, 114920, Note_on_c, 1, 45, 127
2, 114920, Note_on_c, 1, 48, 127
2, 114920, Note_on_c, 1, 53, 127
2, 114920, Note_off_c, 1, 55, 0
2, 114920, Note_off_c, 1, 60, 0
2, 114920, Note_on_c, 1, 64, 127
2, 114920, Note_off_c, 1, 66, 0
2, 114920, Note_on_c, 1, 76, 127
2, 114920, Note_off_c, 1, 78, 0
2, 114920, Note_off_c, 1, 90, 0
2, 114960, Note_off_c, 1, 45, 0
2, 114960, Note_off_c, 1, 48, 0
2, 114960, Note_on_c, 1, 51, 127
2, 114960, Note_off_c, 1, 53, 0
2, 114960, Note_on_c, 1, 55, 127
2, 114960, Note_off_c, 1, 57, 0
2, 114960, Note_on_c, 1, 61, 127
2, 114960, Note_on_c, 1, 63, 127
2, 114960, Note_off_c, 1, 64, 0
2, 114960, Note_on_c, 1, 75, 127
2, 114960, Note_off_c, 1, 76, 0
2, 115000, Note_on_c, 1, 46, 127
2, 115000, Note_off_c, 1, 51, 0
2, 115000, Note_on_c, 1, 53, 127
2, 115000, Note_off_c, 1, 55, 0
2, 115000, Note_off_c, 1, 61, 0
2, 115000, Note_off_c, 1, 63, 0
2, 115000, Note_on_c, 1, 65, 127
2, 115000, Note_on_c, 1, 74, 127
2, 115000, Note_off_c, 1, 75, 0
2, 115000, Note_on_c, 1, 77, 127
2, 115040, Note_off_c, 1, 46, 0
2, 115040, Note_off_c, 1, 53, 0
2, 115040, Note_off_c, 1, 74, 0
2, 115040, Note_off_c, 1, 77, 0
2, 115040, Note_on_c, 1, 89, 127
2, 115040, Note_on_c, 1, 90, 127
2, 115080, Note_on_c, 1, 64, 127
2, 115080, Note_off_c, 1, 65, 0
2, 115080, Note_on_c, 1, 73, 127
2, 115080, Note_on_c, 1, 81, 127
2, 115080, Note_on_c, 1, 85, 127
2, 115080, Note_off_c, 1, 89, 0
2, 115080, Note_off_c, 1, 90, 0
2, 115120, Note_on_c, 1, 63, 127
2, 115120, Note_off_c, 1, 64, 0
2, 115120, Note_on_c, 1, 67, 127
2, 115120, Note_off_c, 1, 73, 0
2, 115120, Note_off_c, 1, 81, 0
2, 115120, Note_off_c, 1, 85, 0
2, 115120, Note_on_c, 1, 87, 127
2, 115120, Note_on_c, 1, 94, 127
2, 115160, Note_off_c, 1, 63, 0
2, 115160, Note_off_c, 1, 67, 0
2, 115160, Note_off_c, 1, 87, 0
2, 115160, Note_off_c, 1, 94, 0
2, 115200, Note_on_c, 1, 70, 127
2, 115200, Note_on_c, 1, 74, 127
2, 115200, Note_on_c, 1, 79, 127
2, 115200, Note_on_c, 1, 82, 127
2, 115200, Note_on_c, 1, 86, 127
2, 115200, Note_on_c, 1, 91, 127
2, 115240, Note_on_c, 1, 36, 127
2, 115240, Note_on_c, 1, 37, 127
2, 115240, Note_on_c, 1, 45, 127
2, 115240, Note_on_c, 1, 48, 127
2, 115240, Note_on_c, 1, 49, 127
2, 115240, Note_off_c, 1, 70, 0
2, 115240, Note_off_c, 1, 74, 0
2, 115240, Note_off_c, 1, 79, 0
2, 115240, Note_off_c, 1, 82, 0
2, 115240, Note_off_c, 1, 86, 0
2, 115240, Note_off_c, 1, 91, 0
2, 115280, Note_off_c, 1, 36, 0
2, 115280, Note_off_c, 1, 37, 0
2, 115280, Note_off_c, 1, 45, 0
2, 115280, Note_off_c, 1, 48, 0
2, 115280, Note_off_c, 1, 49, 0
2, 115280, Note_on_c, 1, 50, 127
2, 115280, Note_on_c, 1, 59, 127
2, 115280, Note_on_c, 1, 69, 127
2, 115280, Note_on_c, 1, 74, 127
2, 115280, Note_on_c, 1, 78, 127
2, 115320, Note_off_c, 1, 50, 0
2, 115320, Note_off_c, 1, 59, 0
2, 115320, Note_on_c, 1, 64, 127
2, 115320, Note_off_c, 1, 69, 0
2, 115320, Note_on_c, 1, 71, 127
2, 115320, Note_off_c, 1, 78, 0
2, 115320, Note_on_c, 1, 95, 127
2, 115360, Note_on_c, 1, 54, 127
2, 115360, Note_on_c, 1, 61, 127
2, 115360, Note_off_c, 1, 64, 0
2, 115360, Note_on_c, 1, 70, 127
2, 115360, Note_off_c, 1, 71, 0
2, 115360, Note_on_c, 1, 73, 127
2, 115360, Note_off_c, 1, 74, 0
2, 115360, Note_on_c, 1, 85, 127
2, 115360, Note_on_c, 1, 94, 127
2, 115360, Note_off_c, 1, 95, 0
2, 115360, Note_on_c, 1, 97, 127
2, 115400, Note_off_c, 1, 54, 0
2, 115400, Note_off_c, 1, 61, 0
2, 115400, Note_off_c, 1, 70, 0
2, 115400, Note_off_c, 1, 73, 0
2, 115400, Note_off_c, 1, 85, 0
2, 115400, Note_off_c, 1, 94, 0
2, 115400, Note_off_c, 1, 97, 0
2, 115440, Note_on_c, 1, 47, 127
2, 115480, Note_off_c, 1, 47, 0
2, 115480, Note_on_c, 1, 56, 127
2, 115480, Note_on_c, 1, 58, 127
2, 115480, Note_on_c, 1, 61, 127
2, 115480, Note_on_c, 1, 85, 127
2, 115520, Note_on_c, 1, 44, 127
2, 115520, Note_on_c, 1, 51, 127
2, 115520, Note_off_c, 1, 58, 0
2, 115520, Note_off_c, 1, 61, 0
2, 115520, Note_on_c, 1, 63, 127
2, 115520, Note_on_c, 1, 68, 127
2, 115520, Note_on_c, 1, 71, 127
2, 115520, Note_off_c, 1, 85, 0
2, 115560, Note_off_c, 1, 44, 0
2, 115560, Note_off_c, 1, 51, 0
2, 115560, Note_on_c, 1, 54, 127
2, 115560, Note_off_c, 1, 56, 0
2, 115560, Note_on_c, 1, 57, 127
2, 115560, Note_on_c, 1, 59, 127
2, 115560, Note_off_c, 1, 68, 0
2, 115560, Note_off_c, 1, 71, 0
2, 115600, Note_on_c, 1, 45, 127
2, 115600, Note_on_c, 1, 53, 127
2, 115600, Note_off_c, 1, 54, 0
2, 115600, Note_off_c, 1, 57, 0
2, 115600, Note_off_c, 1, 59, 0
2, 115600, Note_on_c, 1, 61, 127
2, 115600, Note_off_c, 1, 63, 0
2, 115600, Note_on_c, 1, 73, 127
2, 115600, Note_on_c, 1, 77, 127
2, 115600, Note_on_c, 1, 81, 127
2, 115600, Note_on_c, 1, 85, 127
2, 115640, Note_off_c, 1, 45, 0
2, 115640, Note_off_c, 1, 53, 0
2, 115640, Note_on_c, 1, 55, 127
2, 115640, Note_on_c, 1, 57, 127
2, 115640, Note_off_c, 1, 61, 0
2, 115640, Note_off_c, 1, 73, 0
2, 115640, Note_off_c, 1, 77, 0
2, 115640, Note_on_c, 1, 79, 127
2, 115640, Note_off_c, 1, 81, 0
2, 115640, Note_on_c, 1, 84, 127
2, 115640, Note_off_c, 1, 85, 0
2, 115680, Note_off_c, 1, 55, 0
2, 115680, Note_off_c, 1, 57, 0
2, 115680, Note_off_c, 1, 79, 0
2, 115680, Note_off_c, 1, 84, 0
2, 115720, Note_on_c, 1, 45, 127
2, 115720, Note_on_c, 1, 48, 127
2, 115720, Note_on_c, 1, 53, 127
2, 115720, Note_on_c, 1, 82, 127
2, 115760, Note_on_c, 1, 43, 127
2, 115760, Note_off_c, 1, 45, 0
2, 115760, Note_off_c, 1, 48, 0
2, 115760, Note_off_c, 1, 53, 0
2, 115760, Note_on_c, 1, 55, 127
2, 115760, Note_on_c, 1, 79, 127
2, 115760, Note_off_c, 1, 82, 0
2, 115760, Note_on_c, 1, 83, 127
2, 115800, Note_off_c, 1, 43, 0
2, 115800, Note_off_c, 1, 55, 0
2, 115840, Note_on_c, 1, 40, 127
2, 115840, Note_on_c, 1, 50, 127
2, 115840, Note_on_c, 1, 59, 127
2, 115840, Note_on_c, 1, 68, 127
2, 115840, Note_on_c, 1, 71, 127
2, 115840, Note_off_c, 1, 79, 0
2, 115840, Note_off_c, 1, 83, 0
2, 115880, Note_off_c, 1, 40, 0
2, 115880, Note_off_c, 1, 50, 0
2, 115880, Note_off_c, 1, 59, 0
2, 115880, Note_off_c, 1, 68, 0
2, 115880, Note_off_c, 1, 71, 0
2, 115920, Note_on_c, 1, 45, 127
2, 115920, Note_on_c, 1, 64, 127
2, 115920, Note_on_c, 1, 67, 127
2, 115920, Note_on_c, 1, 73, 127
2, 115920, Note_on_c, 1, 81, 127
2, 116120, Note_off_c, 1, 45, 0
2, 116120, Note_off_c, 1, 67, 0
2, 116120, Note_off_c, 1, 73, 0
2, 116120, Note_on_c, 1, 74, 127
2, 116120, Note_off_c, 1, 81, 0
2, 116160, Note_on_c, 1, 55, 127
2, 116160, Note_on_c, 1, 57, 127
2, 116160, Note_off_c, 1, 64, 0
2, 116160, Note_off_c, 1, 74, 0
2, 116160, Note_on_c, 1, 90, 127
2, 116240, Note_on_c, 1, 38, 127
2, 116240, Note_on_c, 1, 46, 127
2, 116240, Note_off_c, 1, 55, 0
2, 116240, Note_off_c, 1, 57, 0
2, 116240, Note_on_c, 1, 62, 127
2, 116240, Note_on_c, 1, 74, 127
2, 116240, Note_off_c, 1, 90, 0
2, 116280, Note_off_c, 1, 46, 0
2, 116280, Note_on_c, 1, 50, 127
2, 116280, Note_on_c, 1, 56, 127
2, 116280, Note_off_c, 1, 62, 0
2, 116280, Note_on_c, 1, 68, 127
2, 116280, Note_on_c, 1, 71, 127
2, 116280, Note_off_c, 1, 74, 0
2, 116280, Note_on_c, 1, 80, 127
2, 116320, Note_off_c, 1, 38, 0
2, 116320, Note_off_c, 1, 50, 0
2, 116320, Note_off_c, 1, 56, 0
2, 116320, Note_on_c, 1, 57, 127
2, 116320, Note_on_c, 1, 63, 127
2, 116320, Note_off_c, 1, 68, 0
2, 116320, Note_off_c, 1, 71, 0
2, 116320, Note_on_c, 1, 72, 127
2, 116320, Note_off_c, 1, 80, 0
2, 116320, Note_on_c, 1, 81, 127
2, 116360, Note_on_c, 1, 45, 127
2, 116360, Note_off_c, 1, 57, 0
2, 116360, Note_off_c, 1, 63, 0
2, 116360, Note_off_c, 1, 72, 0
2, 116360, Note_off_c, 1, 81, 0
2, 116400, Note_off_c, 1, 45, 0
2, 116440, Note_on_c, 1, 38, 127
2, 116440, Note_on_c, 1, 50, 127
2, 116440, Note_on_c, 1, 55, 127
2, 116440, Note_on_c, 1, 59, 127
2, 116440, Note_on_c, 1, 62, 127
2, 116440, Note_on_c, 1, 67, 127
2, 116440, Note_on_c, 1, 71, 127
2, 116440, Note_on_c, 1, 74, 127
2, 116440, Note_on_c, 1, 79, 127
2, 116560, Note_on_c, 1, 33, 127
2, 116560, Note_off_c, 1, 38, 0
2, 116560, Note_on_c, 1, 40, 127
2, 116560, Note_off_c, 1, 50, 0
2, 116560, Note_off_c, 1, 55, 0
2, 116560, Note_off_c, 1, 59, 0
2, 116560, Note_off_c, 1, 62, 0
2, 116560, Note_on_c, 1, 64, 127
2, 116560, Note_on_c, 1, 66, 127
2, 116560, Note_off_c, 1, 67, 0
2, 116560, Note_on_c, 1, 69, 127
2, 116560, Note_off_c, 1, 71, 0
2, 116560, Note_on_c, 1, 72, 127
2, 116560, Note_off_c, 1, 74, 0
2, 116560, Note_off_c, 1, 79, 0
2, 116600, Note_off_c, 1, 33, 0
2, 116600, Note_off_c, 1, 40, 0
2, 116600, Note_on_c, 1, 45, 127
2, 116600, Note_on_c, 1, 61, 127
2, 116600, Note_off_c, 1, 64, 0
2, 116600, Note_off_c, 1, 66, 0
2, 116600, Note_off_c, 1, 69, 0
2, 116600, Note_off_c, 1, 72, 0
2, 116640, Note_on_c, 1, 38, 127
2, 116640, Note_on_c, 1, 40, 127
2, 116640, Note_on_c, 1, 43, 127
2, 116640, Note_off_c, 1, 45, 0
2, 116640, Note_on_c, 1, 50, 127
2, 116640, Note_off_c, 1, 61, 0
2, 116640, Note_on_c, 1, 62, 127
2, 116640, Note_on_c, 1, 74, 127
2, 116800, Note_off_c, 1, 62, 0
2, 116840, Note_off_c, 1, 38, 0
2, 116840, Note_off_c, 1, 40, 0
2, 116840, Note_off_c, 1, 43, 0
2, 116840, Note_off_c, 1, 50, 0
2, 116840, Note_off_c, 1, 74, 0
2, 116880, Note_on_c, 1, 43, 127
2, 116880, Note_on_c, 1, 50, 127
2, 116880, Note_on_c, 1, 55, 127
2, 116880, Note_on_c, 1, 82, 127
2, 116920, Note_off_c, 1, 43, 0
2, 116920, Note_on_c, 1, 44, 127
2, 116920, Note_on_c, 1, 48, 127
2, 116920, Note_off_c, 1, 50, 0
2, 116920, Note_on_c, 1, 53, 127
2, 116920, Note_off_c, 1, 55, 0
2, 116920, Note_on_c, 1, 65, 127
2, 116920, Note_on_c, 1, 68, 127
2, 116920, Note_on_c, 1, 72, 127
2, 116920, Note_off_c, 1, 82, 0
2, 116960, Note_on_c, 1, 31, 127
2, 116960, Note_off_c, 1, 44, 0
2, 116960, Note_off_c, 1, 48, 0
2, 116960, Note_off_c, 1, 53, 0
2, 116960, Note_on_c, 1, 63, 127
2, 116960, Note_off_c, 1, 65, 0
2, 116960, Note_off_c, 1, 68, 0
2, 116960, Note_off_c, 1, 72, 0
2, 116960, Note_on_c, 1, 74, 127
2, 116960, Note_on_c, 1, 75, 127
2, 117000, Note_off_c, 1, 31, 0
2, 117000, Note_on_c, 1, 56, 127
2, 117000, Note_off_c, 1, 74, 0
2, 117000, Note_off_c, 1, 75, 0
2, 117000, Note_on_c, 1, 82, 127
2, 117000, Note_on_c, 1, 85, 127
2, 117040, Note_on_c, 1, 52, 127
2, 117040, Note_on_c, 1, 59, 127
2, 117040, Note_on_c, 1, 61, 127
2, 117040, Note_off_c, 1, 63, 0
2, 117040, Note_off_c, 1, 82, 0
2, 117040, Note_off_c, 1, 85, 0
2, 117040, Note_on_c, 1, 88, 127
2, 117080, Note_on_c, 1, 43, 127
2, 117080, Note_off_c, 1, 52, 0
2, 117080, Note_off_c, 1, 56, 0
2, 117080, Note_off_c, 1, 59, 0
2, 117080, Note_off_c, 1, 61, 0
2, 117080, Note_on_c, 1, 70, 127
2, 117080, Note_on_c, 1, 73, 127
2, 117080, Note_on_c, 1, 76, 127
2, 117080, Note_on_c, 1, 82, 127
2, 117080, Note_off_c, 1, 88, 0
2, 117120, Note_off_c, 1, 43, 0
2, 117120, Note_on_c, 1, 50, 127
2, 117120, Note_on_c, 1, 54, 127
2, 117120, Note_on_c, 1, 63, 127
2, 117120, Note_on_c, 1, 66, 127
2, 117120, Note_off_c, 1, 73, 0
2, 117120, Note_off_c, 1, 76, 0
2, 117120, Note_off_c, 1, 82, 0
2, 117160, Note_off_c, 1, 50, 0
2, 117160, Note_off_c, 1, 54, 0
2, 117160, Note_on_c, 1, 55, 127
2, 117160, Note_off_c, 1, 63, 0
2, 117160, Note_off_c, 1, 66, 0
2, 117160, Note_on_c, 1, 69, 127
2, 117160, Note_off_c, 1, 70, 0
2, 117160, Note_on_c, 1, 75, 127
2, 117160, Note_on_c, 1, 77, 127
2, 117160, Note_on_c, 1, 81, 127
2, 117200, Note_on_c, 1, 50, 127
2, 117200, Note_off_c, 1, 55, 0
2, 117200, Note_on_c, 1, 61, 127
2, 117200, Note_on_c, 1, 66, 127
2, 117200, Note_off_c, 1, 69, 0
2, 117200, Note_off_c, 1, 75, 0
2, 117200, Note_off_c, 1, 77, 0
2, 117200, Note_off_c, 1, 81, 0
2, 117240, Note_on_c, 1, 32, 127
2, 117240, Note_off_c, 1, 50, 0
2, 117240, Note_on_c, 1, 52, 127
2, 117240, Note_on_c, 1, 55, 127
2, 117240, Note_on_c, 1, 58, 127
2, 117240, Note_off_c, 1, 61, 0
2, 117240, Note_off_c, 1, 66, 0
2, 117280, Note_off_c, 1, 32, 0
2, 117280, Note_off_c, 1, 52, 0
2, 117280, Note_off_c, 1, 55, 0
2, 117280, Note_off_c, 1, 58, 0
2, 117280, Note_on_c, 1, 66, 127
2, 117320, Note_on_c, 1, 39, 127
2, 117320, Note_on_c, 1, 47, 127
2, 117320, Note_on_c, 1, 51, 127
2, 117320, Note_on_c, 1, 54, 127
2, 117320, Note_on_c, 1, 59, 127
2, 117560, Note_off_c, 1, 39, 0
2, 117560, Note_off_c, 1, 47, 0
2, 117560, Note_off_c, 1, 51, 0
2, 117560, Note_off_c, 1, 54, 0
2, 117560, Note_off_c, 1, 59, 0
2, 117560, Note_off_c, 1, 66, 0
2, 117600, Note_on_c, 1, 71, 127
2, 117600, Note_on_c, 1, 73, 127
2, 117600, Note_on_c, 1, 79, 127
2, 117600, Note_on_c, 1, 88, 127
2, 117600, Note_on_c, 1, 94, 127
2, 117600, Note_on_c, 1, 102, 127
2, 117640, Note_on_c, 1, 37, 127
2, 117640, Note_on_c, 1, 43, 127
2, 117640, Note_on_c, 1, 61, 127
2, 117640, Note_on_c, 1, 65, 127
2, 117640, Note_off_c, 1, 71, 0
2, 117640, Note_off_c, 1, 73, 0
2, 117640, Note_off_c, 1, 79, 0
2, 117640, Note_off_c, 1, 88, 0
2, 117640, Note_off_c, 1, 94, 0
2, 117640, Note_off_c, 1, 102, 0
2, 117680, Note_off_c, 1, 37, 0
2, 117680, Note_off_c, 1, 43, 0
2, 117680, Note_on_c, 1, 46, 127
2, 117680, Note_on_c, 1, 48, 127
2, 117680, Note_on_c, 1, 58, 127
2, 117680, Note_on_c, 1, 60, 127
2, 117680, Note_off_c, 1, 61, 0
2, 117680, Note_on_c, 1, 64, 127
2, 117680, Note_off_c, 1, 65, 0
2, 117680, Note_on_c, 1, 67, 127
2, 117720, Note_on_c, 1, 32, 127
2, 117720, Note_on_c, 1, 44, 127
2, 117720, Note_off_c, 1, 46, 0
2, 117720, Note_off_c, 1, 48, 0
2, 117720, Note_off_c, 1, 58, 0
2, 117720, Note_off_c, 1, 60, 0
2, 117720, Note_off_c, 1, 64, 0
2, 117720, Note_on_c, 1, 66, 127
2, 117720, Note_off_c, 1, 67, 0
2, 117720, Note_on_c, 1, 72, 127
2, 117720, Note_on_c, 1, 77, 127
2, 117760, Note_off_c, 1, 32, 0
2, 117760, Note_off_c, 1, 72, 0
2, 117760, Note_off_c, 1, 77, 0
2, 117760, Note_on_c, 1, 78, 127
2, 117800, Note_off_c, 1, 44, 0
2, 117800, Note_on_c, 1, 47, 127
2, 117800, Note_on_c, 1, 49, 127
2, 117800, Note_on_c, 1, 52, 127
2, 117800, Note_on_c, 1, 54, 127
2, 117800, Note_on_c, 1, 58, 127
2, 117800, Note_off_c, 1, 66, 0
2, 117800, Note_on_c, 1, 76, 127
2, 117800, Note_off_c, 1, 78, 0
2, 117840, Note_on_c, 1, 34, 127
2, 117840, Note_on_c, 1, 46, 127
2, 117840, Note_off_c, 1, 47, 0
2, 117840, Note_off_c, 1, 49, 0
2, 117840, Note_off_c, 1, 52, 0
2, 117840, Note_off_c, 1, 54, 0
2, 117840, Note_on_c, 1, 56, 127
2, 117840, Note_off_c, 1, 58, 0
2, 117840, Note_on_c, 1, 64, 127
2, 117840, Note_off_c, 1, 76, 0
2, 117880, Note_off_c, 1, 34, 0
2, 117880, Note_off_c, 1, 46, 0
2, 117880, Note_off_c, 1, 56, 0
2, 117880, Note_off_c, 1, 64, 0
2, 117880, Note_on_c, 1, 69, 127
2, 117880, Note_on_c, 1, 74, 127
2, 117880, Note_on_c, 1, 77, 127
2, 117880, Note_on_c, 1, 83, 127
2, 117880, Note_on_c, 1, 88, 127
2, 117880, Note_on_c, 1, 92, 127
2, 117920, Note_on_c, 1, 58, 127
2, 117920, Note_on_c, 1, 61, 127
2, 117920, Note_off_c, 1, 69, 0
2, 117920, Note_on_c, 1, 72, 127
2, 117920, Note_on_c, 1, 73, 127
2, 117920, Note_off_c, 1, 74, 0
2, 117920, Note_off_c, 1, 77, 0
2, 117920, Note_on_c, 1, 82, 127
2, 117920, Note_off_c, 1, 83, 0
2, 117920, Note_on_c, 1, 85, 127
2, 117920, Note_off_c, 1, 88, 0
2, 117920, Note_off_c, 1, 92, 0
2, 117960, Note_on_c, 1, 56, 127
2, 117960, Note_off_c, 1, 58, 0
2, 117960, Note_off_c, 1, 61, 0
2, 117960, Note_off_c, 1, 72, 0
2, 117960, Note_off_c, 1, 73, 0
2, 117960, Note_on_c, 1, 80, 127
2, 117960, Note_off_c, 1, 82, 0
2, 117960, Note_off_c, 1, 85, 0
2, 117960, Note_on_c, 1, 87, 127
2, 117960, Note_on_c, 1, 90, 127
2, 117960, Note_on_c, 1, 92, 127
2, 118000, Note_off_c, 1, 56, 0
2, 118000, Note_on_c, 1, 72, 127
2, 118000, Note_off_c, 1, 80, 0
2, 118000, Note_on_c, 1, 86, 127
2, 118000, Note_off_c, 1, 87, 0
2, 118000, Note_off_c, 1, 90, 0
2, 118000, Note_off_c, 1, 92, 0
2, 118000, Note_on_c, 1, 98, 127
2, 118000, Note_on_c, 1, 99, 127
2, 118040, Note_off_c, 1, 72, 0
2, 118040, Note_off_c, 1, 86, 0
2, 118040, Note_off_c, 1, 98, 0
2, 118040, Note_off_c, 1, 99, 0
2, 118080, Note_on_c, 1, 37, 127
2, 118080, Note_on_c, 1, 42, 127
2, 118080, Note_on_c, 1, 45, 127
2, 118080, Note_on_c, 1, 49, 127
2, 118080, Note_on_c, 1, 85, 127
2, 118080, Note_on_c, 1, 90, 127
2, 118080, Note_on_c, 1, 93, 127
2, 118080, Note_on_c, 1, 97, 127
2, 118480, Note_off_c, 1, 37, 0
2, 118480, Note_off_c, 1, 42, 0
2, 118480, Note_on_c, 1, 43, 127
2, 118480, Note_off_c, 1, 45, 0
2, 118480, Note_off_c, 1, 49, 0
2, 118480, Note_on_c, 1, 52, 127
2, 118480, Note_off_c, 1, 85, 0
2, 118480, Note_off_c, 1, 90, 0
2, 118480, Note_off_c, 1, 93, 0
2, 118480, Note_off_c, 1, 97, 0
2, 118520, Note_off_c, 1, 43, 0
2, 118520, Note_off_c, 1, 52, 0
2, 118520, Note_on_c, 1, 53, 127
2, 118520, Note_on_c, 1, 67, 127
2, 118520, Note_on_c, 1, 77, 127
2, 118520, Note_on_c, 1, 86, 127
2, 118520, Note_on_c, 1, 89, 127
2, 118560, Note_off_c, 1, 53, 0
2, 118560, Note_off_c, 1, 67, 0
2, 118560, Note_off_c, 1, 77, 0
2, 118560, Note_off_c, 1, 86, 0
2, 118560, Note_off_c, 1, 89, 0
2, 118600, Note_on_c, 1, 71, 127
2, 118600, Note_on_c, 1, 74, 127
2, 118600, Note_on_c, 1, 78, 127
2, 118600, Note_on_c, 1, 86, 127
2, 118600, Note_on_c, 1, 90, 127
2, 118600, Note_on_c, 1, 100, 127
2, 118640, Note_on_c, 1, 53, 127
2, 118640, Note_on_c, 1, 64, 127
2, 118640, Note_off_c, 1, 71, 0
2, 118640, Note_off_c, 1, 74, 0
2, 118640, Note_on_c, 1, 76, 127
2, 118640, Note_off_c, 1, 78, 0
2, 118640, Note_on_c, 1, 84, 127
2, 118640, Note_off_c, 1, 86, 0
2, 118640, Note_on_c, 1, 88, 127
2, 118640, Note_off_c, 1, 90, 0
2, 118640, Note_off_c, 1, 100, 0
2, 118680, Note_off_c, 1, 53, 0
2, 118680, Note_on_c, 1, 74, 127
2, 118680, Note_off_c, 1, 76, 0
2, 118680, Note_on_c, 1, 80, 127
2, 118680, Note_off_c, 1, 84, 0
2, 118680, Note_on_c, 1, 86, 127
2, 118680, Note_off_c, 1, 88, 0
2, 118720, Note_on_c, 1, 33, 127
2, 118720, Note_on_c, 1, 50, 127
2, 118720, Note_off_c, 1, 64, 0
2, 118720, Note_off_c, 1, 74, 0
2, 118720, Note_on_c, 1, 76, 127
2, 118720, Note_off_c, 1, 80, 0
2, 118720, Note_on_c, 1, 81, 127
2, 118720, Note_on_c, 1, 85, 127
2, 118720, Note_off_c, 1, 86, 0
2, 118760, Note_off_c, 1, 33, 0
2, 118760, Note_off_c, 1, 50, 0
2, 118760, Note_on_c, 1, 71, 127
2, 118760, Note_off_c, 1, 76, 0
2, 118760, Note_on_c, 1, 80, 127
2, 118760, Note_off_c, 1, 81, 0
2, 118760, Note_on_c, 1, 83, 127
2, 118760, Note_off_c, 1, 85, 0
2, 118760, Note_on_c, 1, 95, 127
2, 118760, Note_on_c, 1, 100, 127
2, 118800, Note_on_c, 1, 38, 127
2, 118800, Note_on_c, 1, 60, 127
2, 118800, Note_on_c, 1, 63, 127
2, 118800, Note_on_c, 1, 66, 127
2, 118800, Note_off_c, 1, 71, 0
2, 118800, Note_off_c, 1, 80, 0
2, 118800, Note_off_c, 1, 83, 0
2, 118800, Note_off_c, 1, 95, 0
2, 118800, Note_off_c, 1, 100, 0
2, 118840, Note_off_c, 1, 38, 0
2, 118840, Note_off_c, 1, 60, 0
2, 118840, Note_off_c, 1, 63, 0
2, 118840, Note_off_c, 1, 66, 0
2, 118840, Note_on_c, 1, 93, 127
2, 118840, Note_on_c, 1, 105, 127
2, 118880, Note_on_c, 1, 60, 127
2, 118880, Note_on_c, 1, 64, 127
2, 118880, Note_on_c, 1, 69, 127
2, 118880, Note_on_c, 1, 84, 127
2, 118880, Note_on_c, 1, 87, 127
2, 118880, Note_off_c, 1, 93, 0
2, 118880, Note_on_c, 1, 96, 127
2, 118880, Note_off_c, 1, 105, 0
2, 118920, Note_on_c, 1, 35, 127
2, 118920, Note_on_c, 1, 40, 127
2, 118920, Note_on_c, 1, 47, 127
2, 118920, Note_off_c, 1, 60, 0
2, 118920, Note_off_c, 1, 64, 0
2, 118920, Note_off_c, 1, 69, 0
2, 118920, Note_on_c, 1, 74, 127
2, 118920, Note_off_c, 1, 84, 0
2, 118920, Note_off_c, 1, 87, 0
2, 118920, Note_off_c, 1, 96, 0
2, 118960, Note_off_c, 1, 35, 0
2, 118960, Note_off_c, 1, 40, 0
2, 118960, Note_off_c, 1, 47, 0
2, 118960, Note_on_c, 1, 69, 127
2, 118960, Note_on_c, 1, 72, 127
2, 118960, Note_off_c, 1, 74, 0
2, 118960, Note_on_c, 1, 77, 127
2, 118960, Note_on_c, 1, 81, 127
2, 118960, Note_on_c, 1, 87, 127
2, 118960, Note_on_c, 1, 96, 127
2, 118960, Note_on_c, 1, 99, 127
2, 119000, Note_off_c, 1, 69, 0
2, 119000, Note_off_c, 1, 72, 0
2, 119000, Note_off_c, 1, 77, 0
2, 119000, Note_off_c, 1, 81, 0
2, 119000, Note_off_c, 1, 87, 0
2, 119000, Note_off_c, 1, 96, 0
2, 119000, Note_off_c, 1, 99, 0
2, 119040, Note_on_c, 1, 38, 127
2, 119040, Note_on_c, 1, 50, 127
2, 119040, Note_on_c, 1, 86, 127
2, 119040, Note_on_c, 1, 90, 127
2, 119040, Note_on_c, 1, 98, 127
2, 119360, Note_off_c, 1, 38, 0
2, 119360, Note_on_c, 1, 57, 127
2, 119360, Note_on_c, 1, 60, 127
2, 119360, Note_on_c, 1, 69, 127
2, 119360, Note_on_c, 1, 74, 127
2, 119360, Note_on_c, 1, 78, 127
2, 119360, Note_on_c, 1, 81, 127
2, 119360, Note_off_c, 1, 90, 0
2, 119360, Note_off_c, 1, 98, 0
2, 119400, Note_off_c, 1, 50, 0
2, 119400, Note_off_c, 1, 57, 0
2, 119400, Note_off_c, 1, 60, 0
2, 119400, Note_off_c, 1, 69, 0
2, 119400, Note_off_c, 1, 74, 0
2, 119400, Note_off_c, 1, 78, 0
2, 119400, Note_off_c, 1, 81, 0
2, 119400, Note_off_c, 1, 86, 0
2, 119480, Note_on_c, 1, 47, 127
2, 119480, Note_on_c, 1, 54, 127
2, 119480, Note_on_c, 1, 59, 127
2, 119480, Note_on_c, 1, 62, 127
2, 119480, Note_on_c, 1, 66, 127
2, 119480, Note_on_c, 1, 74, 127
2, 119800, Note_off_c, 1, 47, 0
2, 119800, Note_off_c, 1, 54, 0
2, 119800, Note_off_c, 1, 59, 0
2, 119800, Note_off_c, 1, 62, 0
2, 119800, Note_off_c, 1, 66, 0
2, 119800, Note_on_c, 1, 72, 127
2, 119800, Note_off_c, 1, 74, 0
2, 119800, Note_on_c, 1, 77, 127
2, 119800, Note_on_c, 1, 89, 127
2, 119800, Note_on_c, 1, 93, 127
2, 119840, Note_off_c, 1, 72, 0
2, 119840, Note_off_c, 1, 77, 0
2, 119840, Note_off_c, 1, 89, 0
2, 119840, Note_off_c, 1, 93, 0
2, 119880, Note_on_c, 1, 57, 127
2, 119880, Note_on_c, 1, 59, 127
2, 119880, Note_on_c, 1, 63, 127
2, 119880, Note_on_c, 1, 66, 127
2, 119880, Note_on_c, 1, 71, 127
2, 119880, Note_on_c, 1, 78, 127
2, 119880, Note_on_c, 1, 83, 127
2, 120000, Note_off_c, 1, 57, 0
2, 120000, Note_off_c, 1, 59, 0
2, 120000, Note_off_c, 1, 63, 0
2, 120000, Note_off_c, 1, 66, 0
2, 120000, Note_off_c, 1, 71, 0
2, 120000, Note_off_c, 1, 78, 0
2, 120000, Note_off_c, 1, 83, 0
2, 120040, End_track
3, 0, Start_track
3, 0, Title_t, "MIDI"
3, 1536, End_track
0, 0, End_of_file
