0, 0, Header, 1, 3, 192
1, 0, Start_track
1, 0, Time_signature, 4, 2, 24, 8
1, 0, Tempo, 500000
1, 120040, End_track
2, 0, Start_track
2, 0, Text_t, "random instrument: random person i dunno whatev"
2, 0, Title_t, "Track 1"
2, 0, Note_on_c, 1, 40, 127
2, 0, Note_on_c, 1, 48, 127
2, 0, Note_on_c, 1, 56, 127
2, 0, Note_on_c, 1, 60, 127
2, 40, Note_off_c, 1, 40, 0
2, 40, Note_off_c, 1, 48, 0
2, 40, Note_on_c, 1, 55, 127
2, 40, Note_off_c, 1, 56, 0
2, 40, Note_off_c, 1, 60, 0
2, 40, Note_on_c, 1, 72, 127
2, 40, Note_on_c, 1, 75, 127
2, 40, Note_on_c, 1, 79, 127
2, 40, Note_on_c, 1, 84, 127
2, 80, Note_off_c, 1, 55, 0
2, 80, Note_off_c, 1, 72, 0
2, 80, Note_off_c, 1, 75, 0
2, 80, Note_off_c, 1, 79, 0
2, 80, Note_off_c, 1, 84, 0
2, 120, Note_on_c, 1, 50, 127
2, 120, Note_on_c, 1, 59, 127
2, 120, Note_on_c, 1, 62, 127
2, 120, Note_on_c, 1, 78, 127
2, 160, Note_off_c, 1, 50, 0
2, 160, Note_off_c, 1, 59, 0
2, 160, Note_on_c, 1, 60, 127
2, 160, Note_off_c, 1, 62, 0
2, 160, Note_on_c, 1, 66, 127
2, 160, Note_on_c, 1, 68, 127
2, 160, Note_off_c, 1, 78, 0
2, 160, Note_on_c, 1, 90, 127
2, 200, Note_on_c, 1, 35, 127
2, 200, Note_on_c, 1, 39, 127
2, 200, Note_on_c, 1, 47, 127
2, 200, Note_on_c, 1, 50, 127
2, 200, Note_off_c, 1, 60, 0
2, 200, Note_off_c, 1, 66, 0
2, 200, Note_off_c, 1, 68, 0
2, 200, Note_off_c, 1, 90, 0
2, 240, Note_off_c, 1, 35, 0
2, 240, Note_off_c, 1, 39, 0
2, 240, Note_off_c, 1, 47, 0
2, 240, Note_off_c, 1, 50, 0
2, 240, Note_on_c, 1, 51, 127
2, 240, Note_on_c, 1, 55, 127
2, 240, Note_on_c, 1, 58, 127
2, 240, Note_on_c, 1, 63, 127
2, 240, Note_on_c, 1, 82, 127
2, 240, Note_on_c, 1, 91, 127
2, 280, Note_off_c, 1, 51, 0
2, 280, Note_off_c, 1, 55, 0
2, 280, Note_off_c, 1, 58, 0
2, 280, Note_off_c, 1, 63, 0
2, 280, Note_on_c, 1, 76, 127
2, 280, Note_on_c, 1, 80, 127
2, 280, Note_off_c, 1, 82, 0
2, 280, Note_on_c, 1, 83, 127
2, 280, Note_on_c, 1, 89, 127
2, 280, Note_off_c, 1, 91, 0
2, 320, Note_on_c, 1, 58, 127
2, 320, Note_on_c, 1, 63, 127
2, 320, Note_on_c, 1, 66, 127
2, 320, Note_on_c, 1, 72, 127
2, 320, Note_on_c, 1, 75, 127
2, 320, Note_off_c, 1, 76, 0
2, 320, Note_off_c, 1, 80, 0
2, 320, Note_on_c, 1, 82, 127
2, 320, Note_off_c, 1, 83, 0
2, 320, Note_on_c, 1, 87, 127
2, 320, Note_off_c, 1, 89, 0
2, 360, Note_on_c, 1, 57, 127
2, 360, Note_off_c, 1, 58, 0
2, 360, Note_on_c, 1, 62, 127
2, 360, Note_off_c, 1, 63, 0
2, 360, Note_off_c, 1, 66, 0
2, 360, Note_off_c, 1, 72, 0
2, 360, Note_off_c, 1, 75, 0
2, 360, Note_off_c, 1, 82, 0
2, 360, Note_off_c, 1, 87, 0
2, 400, Note_off_c, 1, 57, 0
2, 400, Note_on_c, 1, 60, 127
2, 400, Note_off_c, 1, 62, 0
2, 400, Note_on_c, 1, 85, 127
2, 400, Note_on_c, 1, 88, 127
2, 440, Note_on_c, 1, 50, 127
2, 440, Note_on_c, 1, 57, 127
2, 440, Note_off_c, 1, 60, 0
2, 440, Note_on_c, 1, 65, 127
2, 440, Note_off_c, 1, 85, 0
2, 440, Note_off_c, 1, 88, 0
2, 440, Note_on_c, 1, 93, 127
2, 480, Note_off_c, 1, 50, 0
2, 480, Note_on_c, 1, 54, 127
2, 480, Note_off_c, 1, 57, 0
2, 480, Note_on_c, 1, 58, 127
2, 480, Note_on_c, 1, 61, 127
2, 480, Note_off_c, 1, 65, 0
2, 480, Note_off_c, 1, 93, 0
2, 480, Note_on_c, 1, 97, 127
2, 520, Note_on_c, 1, 50, 127
2, 520, Note_off_c, 1, 54, 0
2, 520, Note_on_c, 1, 57, 127
2, 520, Note_off_c, 1, 58, 0
2, 520, Note_off_c, 1, 61, 0
2, 520, Note_on_c, 1, 65, 127
2, 520, Note_on_c, 1, 93, 127
2, 520, Note_off_c, 1, 97, 0
2, 800, Note_off_c, 1, 50, 0
2, 800, Note_off_c, 1, 57, 0
2, 800, Note_off_c, 1, 65, 0
2, 800, Note_off_c, 1, 93, 0
2, 1280, Note_on_c, 1, 38, 127
2, 1280, Note_on_c, 1, 54, 127
2, 1280, Note_on_c, 1, 62, 127
2, 1840, Note_off_c, 1, 38, 0
2, 1840, Note_off_c, 1, 54, 0
2, 1840, Note_off_c, 1, 62, 0
2, 5240, Note_on_c, 1, 43, 127
2, 5240, Note_on_c, 1, 50, 127
2, 5240, Note_on_c, 1, 60, 127
2, 5240, Note_on_c, 1, 62, 127
2, 5240, Note_on_c, 1, 69, 127
2, 5480, Note_off_c, 1, 43, 0
2, 5480, Note_off_c, 1, 50, 0
2, 5480, Note_off_c, 1, 60, 0
2, 5480, Note_off_c, 1, 62, 0
2, 5480, Note_off_c, 1, 69, 0
2, 5800, Note_on_c, 1, 52, 127
2, 5800, Note_on_c, 1, 55, 127
2, 5800, Note_on_c, 1, 58, 127
2, 5800, Note_on_c, 1, 61, 127
2, 5800, Note_on_c, 1, 70, 127
2, 6200, Note_on_c, 1, 42, 127
2, 6200, Note_off_c, 1, 55, 0
2, 6200, Note_off_c, 1, 58, 0
2, 6200, Note_on_c, 1, 59, 127
2, 6200, Note_off_c, 1, 61, 0
2, 6200, Note_on_c, 1, 64, 127
2, 6200, Note_off_c, 1, 70, 0
2, 6240, Note_on_c, 1, 49, 127
2, 6240, Note_off_c, 1, 52, 0
2, 6240, Note_off_c, 1, 59, 0
2, 6240, Note_off_c, 1, 64, 0
2, 6240, Note_on_c, 1, 66, 127
2, 6240, Note_on_c, 1, 70, 127
2, 6240, Note_on_c, 1, 78, 127
2, 6280, Note_off_c, 1, 42, 0
2, 6280, Note_off_c, 1, 49, 0
2, 6280, Note_on_c, 1, 52, 127
2, 6280, Note_on_c, 1, 55, 127
2, 6280, Note_on_c, 1, 58, 127
2, 6280, Note_on_c, 1, 61, 127
2, 6280, Note_off_c, 1, 66, 0
2, 6280, Note_off_c, 1, 70, 0
2, 6280, Note_off_c, 1, 78, 0
2, 6320, Note_on_c, 1, 70, 127
2, 6840, Note_off_c, 1, 70, 0
2, 6880, Note_off_c, 1, 52, 0
2, 6880, Note_off_c, 1, 55, 0
2, 6880, Note_off_c, 1, 58, 0
2, 6880, Note_on_c, 1, 60, 127
2, 6880, Note_off_c, 1, 61, 0
2, 6880, Note_on_c, 1, 66, 127
2, 6880, Note_on_c, 1, 69, 127
2, 6880, Note_on_c, 1, 74, 127
2, 6880, Note_on_c, 1, 83, 127
2, 7200, Note_off_c, 1, 60, 0
2, 7200, Note_off_c, 1, 66, 0
2, 7200, Note_off_c, 1, 69, 0
2, 7200, Note_off_c, 1, 74, 0
2, 7200, Note_off_c, 1, 83, 0
2, 7240, Note_on_c, 1, 92, 127
2, 7280, Note_on_c, 1, 85, 127
2, 7280, Note_on_c, 1, 87, 127
2, 7280, Note_off_c, 1, 92, 0
2, 7320, Note_on_c, 1, 84, 127
2, 7320, Note_off_c, 1, 85, 0
2, 7320, Note_off_c, 1, 87, 0
2, 7360, Note_on_c, 1, 83, 127
2, 7360, Note_off_c, 1, 84, 0
2, 7400, Note_on_c, 1, 80, 127
2, 7400, Note_off_c, 1, 83, 0
2, 7440, Note_on_c, 1, 72, 127
2, 7440, Note_off_c, 1, 80, 0
2, 7480, Note_off_c, 1, 72, 0
2, 7480, Note_on_c, 1, 80, 127
2, 7520, Note_off_c, 1, 80, 0
2, 7520, Note_on_c, 1, 82, 127
2, 7560, Note_on_c, 1, 79, 127
2, 7560, Note_off_c, 1, 82, 0
2, 7600, Note_off_c, 1, 79, 0
2, 7640, Note_on_c, 1, 82, 127
2, 7680, Note_on_c, 1, 80, 127
2, 7680, Note_off_c, 1, 82, 0
2, 7720, Note_off_c, 1, 80, 0
2, 7720, Note_on_c, 1, 84, 127
2, 7760, Note_on_c, 1, 80, 127
2, 7760, Note_off_c, 1, 84, 0
2, 7880, Note_off_c, 1, 80, 0
2, 7880, Note_on_c, 1, 82, 127
2, 7920, Note_on_c, 1, 80, 127
2, 7920, Note_off_c, 1, 82, 0
2, 8000, Note_on_c, 1, 47, 127
2, 8000, Note_on_c, 1, 67, 127
2, 8000, Note_on_c, 1, 74, 127
2, 8000, Note_on_c, 1, 78, 127
2, 8000, Note_off_c, 1, 80, 0
2, 8040, Note_on_c, 1, 79, 127
2, 8080, Note_off_c, 1, 79, 0
2, 8080, Note_on_c, 1, 81, 127
2, 8120, Note_on_c, 1, 79, 127
2, 8120, Note_off_c, 1, 81, 0
2, 8160, Note_off_c, 1, 79, 0
2, 8160, Note_on_c, 1, 81, 127
2, 8200, Note_off_c, 1, 81, 0
2, 8240, Note_on_c, 1, 81, 127
2, 8440, Note_on_c, 1, 33, 127
2, 8440, Note_on_c, 1, 45, 127
2, 8440, Note_off_c, 1, 47, 0
2, 8440, Note_on_c, 1, 73, 127
2, 8440, Note_off_c, 1, 74, 0
2, 8440, Note_off_c, 1, 78, 0
2, 8440, Note_on_c, 1, 79, 127
2, 8440, Note_off_c, 1, 81, 0
2, 8480, Note_off_c, 1, 33, 0
2, 8480, Note_off_c, 1, 45, 0
2, 8480, Note_on_c, 1, 47, 127
2, 8480, Note_off_c, 1, 73, 0
2, 8480, Note_on_c, 1, 74, 127
2, 8480, Note_on_c, 1, 78, 127
2, 8480, Note_off_c, 1, 79, 0
2, 8480, Note_on_c, 1, 81, 127
2, 8520, Note_off_c, 1, 47, 0
2, 8520, Note_on_c, 1, 61, 127
2, 8520, Note_off_c, 1, 67, 0
2, 8520, Note_off_c, 1, 74, 0
2, 8520, Note_off_c, 1, 81, 0
2, 8560, Note_on_c, 1, 50, 127
2, 8560, Note_on_c, 1, 57, 127
2, 8560, Note_off_c, 1, 61, 0
2, 8560, Note_on_c, 1, 62, 127
2, 8560, Note_on_c, 1, 66, 127
2, 8560, Note_on_c, 1, 69, 127
2, 8560, Note_on_c, 1, 76, 127
2, 8560, Note_off_c, 1, 78, 0
2, 8960, Note_off_c, 1, 50, 0
2, 8960, Note_off_c, 1, 57, 0
2, 8960, Note_off_c, 1, 62, 0
2, 8960, Note_off_c, 1, 66, 0
2, 8960, Note_off_c, 1, 69, 0
2, 8960, Note_off_c, 1, 76, 0
2, 9160, Note_on_c, 1, 31, 127
2, 9160, Note_on_c, 1, 43, 127
2, 9760, Note_off_c, 1, 31, 0
2, 9760, Note_off_c, 1, 43, 0
2, 9800, Note_on_c, 1, 31, 127
2, 9800, Note_on_c, 1, 43, 127
2, 9800, Note_on_c, 1, 57, 127
2, 9920, Note_off_c, 1, 57, 0
2, 10000, Note_on_c, 1, 58, 127
2, 10160, Note_off_c, 1, 58, 0
2, 10400, Note_on_c, 1, 58, 127
2, 10520, Note_off_c, 1, 58, 0
2, 10560, Note_off_c, 1, 31, 0
2, 10560, Note_off_c, 1, 43, 0
2, 10600, Note_on_c, 1, 41, 127
2, 10600, Note_on_c, 1, 53, 127
2, 10600, Note_on_c, 1, 60, 127
2, 10600, Note_on_c, 1, 70, 127
2, 10600, Note_on_c, 1, 72, 127
2, 10640, Note_on_c, 1, 40, 127
2, 10640, Note_off_c, 1, 41, 0
2, 10640, Note_on_c, 1, 52, 127
2, 10640, Note_off_c, 1, 53, 0
2, 10640, Note_off_c, 1, 60, 0
2, 10640, Note_off_c, 1, 70, 0
2, 10640, Note_off_c, 1, 72, 0
2, 10840, Note_on_c, 1, 51, 127
2, 10840, Note_off_c, 1, 52, 0
2, 11120, Note_off_c, 1, 51, 0
2, 11160, Note_off_c, 1, 40, 0
2, 11200, Note_on_c, 1, 62, 127
2, 11200, Note_on_c, 1, 68, 127
2, 11200, Note_on_c, 1, 86, 127
2, 11200, Note_on_c, 1, 89, 127
2, 11240, Note_on_c, 1, 38, 127
2, 11240, Note_on_c, 1, 50, 127
2, 11240, Note_on_c, 1, 60, 127
2, 11240, Note_off_c, 1, 68, 0
2, 11240, Note_off_c, 1, 86, 0
2, 11240, Note_off_c, 1, 89, 0
2, 11280, Note_off_c, 1, 38, 0
2, 11280, Note_off_c, 1, 50, 0
2, 11280, Note_off_c, 1, 62, 0
2, 11280, Note_on_c, 1, 74, 127
2, 11280, Note_on_c, 1, 79, 127
2, 11280, Note_on_c, 1, 82, 127
2, 11280, Note_on_c, 1, 86, 127
2, 11320, Note_on_c, 1, 38, 127
2, 11320, Note_on_c, 1, 50, 127
2, 11320, Note_on_c, 1, 62, 127
2, 11320, Note_off_c, 1, 74, 0
2, 11320, Note_off_c, 1, 79, 0
2, 11320, Note_off_c, 1, 82, 0
2, 11320, Note_off_c, 1, 86, 0
2, 11760, Note_off_c, 1, 38, 0
2, 11760, Note_off_c, 1, 50, 0
2, 11760, Note_off_c, 1, 60, 0
2, 11760, Note_off_c, 1, 62, 0
2, 11840, Note_on_c, 1, 35, 127
2, 11840, Note_on_c, 1, 47, 127
2, 11840, Note_on_c, 1, 56, 127
2, 11840, Note_on_c, 1, 63, 127
2, 11840, Note_on_c, 1, 68, 127
2, 12960, Note_off_c, 1, 35, 0
2, 12960, Note_off_c, 1, 47, 0
2, 12960, Note_off_c, 1, 56, 0
2, 12960, Note_off_c, 1, 63, 0
2, 12960, Note_off_c, 1, 68, 0
2, 13040, Note_on_c, 1, 48, 127
2, 13040, Note_on_c, 1, 77, 127
2, 13040, Note_on_c, 1, 83, 127
2, 13040, Note_on_c, 1, 91, 127
2, 13080, Note_on_c, 1, 36, 127
2, 13080, Note_on_c, 1, 62, 127
2, 13080, Note_on_c, 1, 65, 127
2, 13080, Note_on_c, 1, 67, 127
2, 13080, Note_off_c, 1, 77, 0
2, 13080, Note_off_c, 1, 83, 0
2, 13080, Note_off_c, 1, 91, 0
2, 13120, Note_off_c, 1, 36, 0
2, 13120, Note_off_c, 1, 48, 0
2, 13120, Note_off_c, 1, 62, 0
2, 13120, Note_off_c, 1, 65, 0
2, 13120, Note_on_c, 1, 70, 127
2, 13120, Note_on_c, 1, 85, 127
2, 13120, Note_on_c, 1, 94, 127
2, 13160, Note_on_c, 1, 55, 127
2, 13160, Note_on_c, 1, 59, 127
2, 13160, Note_on_c, 1, 65, 127
2, 13160, Note_off_c, 1, 70, 0
2, 13160, Note_on_c, 1, 81, 127
2, 13160, Note_on_c, 1, 83, 127
2, 13160, Note_off_c, 1, 85, 0
2, 13160, Note_off_c, 1, 94, 0
2, 13200, Note_on_c, 1, 62, 127
2, 13200, Note_off_c, 1, 65, 0
2, 13200, Note_on_c, 1, 79, 127
2, 13200, Note_off_c, 1, 81, 0
2, 13200, Note_off_c, 1, 83, 0
2, 13240, Note_on_c, 1, 43, 127
2, 13240, Note_on_c, 1, 46, 127
2, 13240, Note_off_c, 1, 59, 0
2, 13240, Note_off_c, 1, 62, 0
2, 13240, Note_off_c, 1, 67, 0
2, 13240, Note_off_c, 1, 79, 0
2, 13240, Note_on_c, 1, 85, 127
2, 13360, Note_on_c, 1, 36, 127
2, 13360, Note_off_c, 1, 43, 0
2, 13360, Note_off_c, 1, 55, 0
2, 13360, Note_on_c, 1, 62, 127
2, 13360, Note_off_c, 1, 85, 0
2, 13400, Note_off_c, 1, 36, 0
2, 13400, Note_on_c, 1, 43, 127
2, 13400, Note_on_c, 1, 55, 127
2, 13400, Note_off_c, 1, 62, 0
2, 13400, Note_on_c, 1, 85, 127
2, 13440, Note_off_c, 1, 43, 0
2, 13440, Note_off_c, 1, 46, 0
2, 13440, Note_on_c, 1, 48, 127
2, 13440, Note_off_c, 1, 55, 0
2, 13440, Note_on_c, 1, 64, 127
2, 13440, Note_on_c, 1, 67, 127
2, 13440, Note_on_c, 1, 72, 127
2, 13440, Note_on_c, 1, 79, 127
2, 13440, Note_off_c, 1, 85, 0
2, 13480, Note_on_c, 1, 43, 127
2, 13480, Note_on_c, 1, 46, 127
2, 13480, Note_off_c, 1, 48, 0
2, 13480, Note_on_c, 1, 55, 127
2, 13480, Note_off_c, 1, 64, 0
2, 13480, Note_off_c, 1, 67, 0
2, 13480, Note_off_c, 1, 72, 0
2, 13480, Note_off_c, 1, 79, 0
2, 13480, Note_on_c, 1, 85, 127
2, 13560, Note_off_c, 1, 43, 0
2, 13560, Note_off_c, 1, 46, 0
2, 13560, Note_on_c, 1, 51, 127
2, 13560, Note_on_c, 1, 60, 127
2, 13560, Note_on_c, 1, 63, 127
2, 13560, Note_off_c, 1, 85, 0
2, 13560, Note_on_c, 1, 87, 127
2, 13560, Note_on_c, 1, 89, 127
2, 13600, Note_on_c, 1, 47, 127
2, 13600, Note_off_c, 1, 51, 0
2, 13600, Note_off_c, 1, 55, 0
2, 13600, Note_off_c, 1, 60, 0
2, 13600, Note_on_c, 1, 62, 127
2, 13600, Note_off_c, 1, 63, 0
2, 13600, Note_on_c, 1, 68, 127
2, 13600, Note_on_c, 1, 71, 127
2, 13600, Note_on_c, 1, 74, 127
2, 13600, Note_off_c, 1, 87, 0
2, 13600, Note_off_c, 1, 89, 0
2, 13640, Note_off_c, 1, 47, 0
2, 13640, Note_on_c, 1, 52, 127
2, 13640, Note_on_c, 1, 55, 127
2, 13640, Note_off_c, 1, 62, 0
2, 13640, Note_off_c, 1, 68, 0
2, 13640, Note_on_c, 1, 83, 127
2, 13680, Note_off_c, 1, 52, 0
2, 13680, Note_off_c, 1, 55, 0
2, 13680, Note_off_c, 1, 74, 0
2, 13680, Note_on_c, 1, 76, 127
2, 13680, Note_on_c, 1, 79, 127
2, 13680, Note_off_c, 1, 83, 0
2, 13680, Note_on_c, 1, 95, 127
2, 13720, Note_on_c, 1, 37, 127
2, 13720, Note_on_c, 1, 49, 127
2, 13720, Note_on_c, 1, 61, 127
2, 13720, Note_on_c, 1, 66, 127
2, 13720, Note_off_c, 1, 71, 0
2, 13720, Note_off_c, 1, 76, 0
2, 13720, Note_on_c, 1, 78, 127
2, 13720, Note_off_c, 1, 79, 0
2, 13720, Note_off_c, 1, 95, 0
2, 13760, Note_on_c, 1, 32, 127
2, 13760, Note_off_c, 1, 37, 0
2, 13760, Note_on_c, 1, 44, 127
2, 13760, Note_off_c, 1, 49, 0
2, 13760, Note_off_c, 1, 61, 0
2, 13760, Note_off_c, 1, 66, 0
2, 13760, Note_on_c, 1, 71, 127
2, 13760, Note_on_c, 1, 75, 127
2, 13760, Note_on_c, 1, 83, 127
2, 13800, Note_off_c, 1, 32, 0
2, 13800, Note_off_c, 1, 44, 0
2, 13800, Note_off_c, 1, 71, 0
2, 13800, Note_off_c, 1, 75, 0
2, 13800, Note_off_c, 1, 78, 0
2, 13800, Note_off_c, 1, 83, 0
2, 13880, Note_on_c, 1, 38, 127
2, 13880, Note_on_c, 1, 50, 127
2, 13880, Note_on_c, 1, 55, 127
2, 13880, Note_on_c, 1, 67, 127
2, 14240, Note_off_c, 1, 55, 0
2, 14240, Note_off_c, 1, 67, 0
2, 14280, Note_off_c, 1, 38, 0
2, 14280, Note_on_c, 1, 43, 127
2, 14280, Note_off_c, 1, 50, 0
2, 14280, Note_on_c, 1, 52, 127
2, 14280, Note_on_c, 1, 60, 127
2, 14280, Note_on_c, 1, 71, 127
2, 14640, Note_off_c, 1, 52, 0
2, 14640, Note_off_c, 1, 60, 0
2, 14640, Note_off_c, 1, 71, 0
2, 14680, Note_on_c, 1, 50, 127
2, 14680, Note_on_c, 1, 59, 127
2, 14680, Note_on_c, 1, 67, 127
2, 14680, Note_on_c, 1, 74, 127
2, 15240, Note_off_c, 1, 43, 0
2, 15240, Note_off_c, 1, 50, 0
2, 15240, Note_off_c, 1, 59, 0
2, 15240, Note_off_c, 1, 67, 0
2, 15240, Note_off_c, 1, 74, 0
2, 15480, Note_on_c, 1, 45, 127
2, 15480, Note_on_c, 1, 77, 127
2, 15480, Note_on_c, 1, 83, 127
2, 15480, Note_on_c, 1, 89, 127
2, 15800, Note_off_c, 1, 45, 0
2, 15800, Note_on_c, 1, 53, 127
2, 15800, Note_on_c, 1, 57, 127
2, 15800, Note_on_c, 1, 60, 127
2, 15800, Note_on_c, 1, 65, 127
2, 15800, Note_on_c, 1, 72, 127
2, 15800, Note_on_c, 1, 75, 127
2, 15800, Note_off_c, 1, 77, 0
2, 15800, Note_on_c, 1, 81, 127
2, 15800, Note_off_c, 1, 83, 0
2, 15800, Note_on_c, 1, 84, 127
2, 15800, Note_off_c, 1, 89, 0
2, 15840, Note_off_c, 1, 53, 0
2, 15840, Note_off_c, 1, 57, 0
2, 15840, Note_off_c, 1, 60, 0
2, 15840, Note_off_c, 1, 65, 0
2, 15840, Note_off_c, 1, 72, 0
2, 15840, Note_off_c, 1, 75, 0
2, 15840, Note_off_c, 1, 81, 0
2, 15840, Note_off_c, 1, 84, 0
2, 15880, Note_on_c, 1, 59, 127
2, 15880, Note_on_c, 1, 66, 127
2, 15880, Note_on_c, 1, 69, 127
2, 15880, Note_on_c, 1, 78, 127
2, 15880, Note_on_c, 1, 81, 127
2, 15920, Note_on_c, 1, 30, 127
2, 15920, Note_on_c, 1, 38, 127
2, 15920, Note_on_c, 1, 42, 127
2, 15920, Note_on_c, 1, 57, 127
2, 15920, Note_off_c, 1, 59, 0
2, 15920, Note_on_c, 1, 62, 127
2, 15920, Note_off_c, 1, 66, 0
2, 15920, Note_off_c, 1, 69, 0
2, 15920, Note_on_c, 1, 70, 127
2, 15920, Note_off_c, 1, 78, 0
2, 15920, Note_off_c, 1, 81, 0
2, 16240, Note_off_c, 1, 30, 0
2, 16240, Note_off_c, 1, 38, 0
2, 16240, Note_off_c, 1, 42, 0
2, 16240, Note_off_c, 1, 57, 0
2, 16240, Note_off_c, 1, 62, 0
2, 16240, Note_off_c, 1, 70, 0
2, 18240, Note_on_c, 1, 40, 127
2, 18240, Note_on_c, 1, 52, 127
2, 18240, Note_on_c, 1, 64, 127
2, 18800, Note_off_c, 1, 40, 0
2, 18800, Note_off_c, 1, 52, 0
2, 18800, Note_off_c, 1, 64, 0
2, 18840, Note_on_c, 1, 41, 127
2, 18840, Note_on_c, 1, 53, 127
2, 18840, Note_on_c, 1, 65, 127
2, 20000, Note_off_c, 1, 41, 0
2, 20000, Note_off_c, 1, 53, 0
2, 20000, Note_off_c, 1, 65, 0
2, 20080, Note_on_c, 1, 35, 127
2, 20080, Note_on_c, 1, 47, 127
2, 20080, Note_on_c, 1, 59, 127
2, 20080, Note_on_c, 1, 71, 127
2, 21240, Note_off_c, 1, 35, 0
2, 21240, Note_off_c, 1, 47, 0
2, 21240, Note_off_c, 1, 59, 0
2, 21240, Note_off_c, 1, 71, 0
2, 21280, Note_on_c, 1, 27, 127
2, 21280, Note_on_c, 1, 39, 127
2, 21280, Note_on_c, 1, 51, 127
2, 22080, Note_off_c, 1, 27, 0
2, 22080, Note_off_c, 1, 39, 0
2, 22080, Note_off_c, 1, 51, 0
2, 22120, Note_on_c, 1, 27, 127
2, 22120, Note_on_c, 1, 39, 127
2, 22120, Note_on_c, 1, 51, 127
2, 22440, Note_off_c, 1, 27, 0
2, 22440, Note_off_c, 1, 39, 0
2, 22440, Note_off_c, 1, 51, 0
2, 22520, Note_on_c, 1, 31, 127
2, 22520, Note_on_c, 1, 43, 127
2, 22520, Note_on_c, 1, 55, 127
2, 22520, Note_on_c, 1, 58, 127
2, 22760, Note_on_c, 1, 62, 127
2, 22800, Note_off_c, 1, 62, 0
2, 23240, Note_on_c, 1, 62, 127
2, 23280, Note_off_c, 1, 62, 0
2, 23320, Note_on_c, 1, 62, 127
2, 23640, Note_off_c, 1, 31, 0
2, 23640, Note_off_c, 1, 43, 0
2, 23640, Note_off_c, 1, 55, 0
2, 23640, Note_off_c, 1, 58, 0
2, 23640, Note_off_c, 1, 62, 0
2, 29920, Note_on_c, 1, 42, 127
2, 29920, Note_on_c, 1, 49, 127
2, 29920, Note_on_c, 1, 58, 127
2, 29920, Note_on_c, 1, 70, 127
2, 30160, Note_off_c, 1, 42, 0
2, 30160, Note_off_c, 1, 49, 0
2, 30160, Note_on_c, 1, 55, 127
2, 30160, Note_off_c, 1, 58, 0
2, 30160, Note_on_c, 1, 62, 127
2, 30160, Note_off_c, 1, 70, 0
2, 30160, Note_on_c, 1, 71, 127
2, 30160, Note_on_c, 1, 78, 127
2, 30160, Note_on_c, 1, 86, 127
2, 30200, Note_on_c, 1, 42, 127
2, 30200, Note_on_c, 1, 49, 127
2, 30200, Note_off_c, 1, 55, 0
2, 30200, Note_on_c, 1, 58, 127
2, 30200, Note_off_c, 1, 62, 0
2, 30200, Note_on_c, 1, 70, 127
2, 30200, Note_off_c, 1, 71, 0
2, 30200, Note_off_c, 1, 78, 0
2, 30200, Note_off_c, 1, 86, 0
2, 30320, Note_off_c, 1, 42, 0
2, 30320, Note_off_c, 1, 49, 0
2, 30320, Note_off_c, 1, 58, 0
2, 30320, Note_off_c, 1, 70, 0
2, 30360, Note_on_c, 1, 42, 127
2, 30360, Note_on_c, 1, 49, 127
2, 30360, Note_on_c, 1, 58, 127
2, 30360, Note_on_c, 1, 70, 127
2, 31120, Note_off_c, 1, 58, 0
2, 31120, Note_off_c, 1, 70, 0
2, 31160, Note_on_c, 1, 58, 127
2, 31160, Note_on_c, 1, 68, 127
2, 32280, Note_off_c, 1, 58, 0
2, 32280, Note_off_c, 1, 68, 0
2, 32320, Note_on_c, 1, 39, 127
2, 32320, Note_off_c, 1, 42, 0
2, 32320, Note_on_c, 1, 46, 127
2, 32320, Note_off_c, 1, 49, 0
2, 32320, Note_on_c, 1, 53, 127
2, 32320, Note_on_c, 1, 65, 127
2, 32320, Note_on_c, 1, 68, 127
2, 32320, Note_on_c, 1, 77, 127
2, 32720, Note_off_c, 1, 39, 0
2, 32720, Note_off_c, 1, 46, 0
2, 32720, Note_off_c, 1, 53, 0
2, 32720, Note_off_c, 1, 65, 0
2, 32720, Note_off_c, 1, 68, 0
2, 32720, Note_off_c, 1, 77, 0
2, 32760, Note_on_c, 1, 39, 127
2, 32760, Note_on_c, 1, 46, 127
2, 32760, Note_on_c, 1, 53, 127
2, 32760, Note_on_c, 1, 65, 127
2, 32760, Note_on_c, 1, 68, 127
2, 32760, Note_on_c, 1, 77, 127
2, 32880, Note_off_c, 1, 39, 0
2, 32880, Note_off_c, 1, 53, 0
2, 32880, Note_on_c, 1, 60, 127
2, 32880, Note_off_c, 1, 65, 0
2, 32880, Note_off_c, 1, 68, 0
2, 32880, Note_on_c, 1, 69, 127
2, 32880, Note_on_c, 1, 72, 127
2, 32880, Note_off_c, 1, 77, 0
2, 32920, Note_on_c, 1, 30, 127
2, 32920, Note_off_c, 1, 46, 0
2, 32920, Note_on_c, 1, 54, 127
2, 32920, Note_off_c, 1, 60, 0
2, 32920, Note_on_c, 1, 66, 127
2, 32920, Note_off_c, 1, 69, 0
2, 32920, Note_off_c, 1, 72, 0
2, 32960, Note_off_c, 1, 30, 0
2, 32960, Note_on_c, 1, 42, 127
2, 32960, Note_off_c, 1, 54, 0
2, 32960, Note_off_c, 1, 66, 0
2, 32960, Note_on_c, 1, 71, 127
2, 32960, Note_on_c, 1, 78, 127
2, 33520, Note_off_c, 1, 42, 0
2, 33520, Note_off_c, 1, 71, 0
2, 33560, Note_on_c, 1, 50, 127
2, 33560, Note_on_c, 1, 56, 127
2, 33560, Note_on_c, 1, 64, 127
2, 33560, Note_on_c, 1, 76, 127
2, 33560, Note_off_c, 1, 78, 0
2, 34120, Note_off_c, 1, 50, 0
2, 34120, Note_off_c, 1, 56, 0
2, 34160, Note_on_c, 1, 32, 127
2, 34160, Note_off_c, 1, 64, 0
2, 34160, Note_on_c, 1, 68, 127
2, 34560, Note_off_c, 1, 32, 0
2, 34560, Note_off_c, 1, 68, 0
2, 34560, Note_off_c, 1, 76, 0
2, 34600, Note_on_c, 1, 32, 127
2, 34600, Note_on_c, 1, 68, 127
2, 34600, Note_on_c, 1, 76, 127
2, 34760, Note_off_c, 1, 32, 0
2, 34760, Note_off_c, 1, 68, 0
2, 34760, Note_off_c, 1, 76, 0
2, 34800, Note_on_c, 1, 46, 127
2, 34800, Note_on_c, 1, 70, 127
2, 34800, Note_on_c, 1, 73, 127
2, 34800, Note_on_c, 1, 77, 127
2, 35360, Note_off_c, 1, 46, 0
2, 35400, Note_on_c, 1, 46, 127
2, 35960, Note_off_c, 1, 46, 0
2, 35960, Note_off_c, 1, 70, 0
2, 35960, Note_off_c, 1, 73, 0
2, 35960, Note_off_c, 1, 77, 0
2, 36000, Note_on_c, 1, 32, 127
2, 36000, Note_on_c, 1, 44, 127
2, 36000, Note_on_c, 1, 71, 127
2, 36000, Note_on_c, 1, 75, 127
2, 36560, Note_off_c, 1, 71, 0
2, 36560, Note_on_c, 1, 72, 127
2, 36560, Note_off_c, 1, 75, 0
2, 36600, Note_off_c, 1, 32, 0
2, 36600, Note_off_c, 1, 44, 0
2, 36600, Note_on_c, 1, 61, 127
2, 36600, Note_on_c, 1, 68, 127
2, 36600, Note_off_c, 1, 72, 0
2, 36600, Note_on_c, 1, 77, 127
2, 36600, Note_on_c, 1, 84, 127
2, 36800, Note_off_c, 1, 61, 0
2, 36800, Note_off_c, 1, 68, 0
2, 36800, Note_off_c, 1, 77, 0
2, 36800, Note_off_c, 1, 84, 0
2, 36840, Note_on_c, 1, 61, 127
2, 36840, Note_on_c, 1, 68, 127
2, 36840, Note_on_c, 1, 77, 127
2, 36840, Note_on_c, 1, 84, 127
2, 37160, Note_on_c, 1, 49, 127
2, 37160, Note_off_c, 1, 61, 0
2, 37160, Note_on_c, 1, 66, 127
2, 37160, Note_off_c, 1, 68, 0
2, 37160, Note_on_c, 1, 69, 127
2, 37160, Note_off_c, 1, 77, 0
2, 37160, Note_on_c, 1, 78, 127
2, 37160, Note_off_c, 1, 84, 0
2, 37200, Note_off_c, 1, 49, 0
2, 37200, Note_off_c, 1, 66, 0
2, 37200, Note_off_c, 1, 69, 0
2, 37200, Note_off_c, 1, 78, 0
2, 37240, Note_on_c, 1, 48, 127
2, 37240, Note_on_c, 1, 51, 127
2, 37240, Note_on_c, 1, 60, 127
2, 38400, Note_off_c, 1, 48, 0
2, 38400, Note_off_c, 1, 51, 0
2, 38400, Note_off_c, 1, 60, 0
2, 38440, Note_on_c, 1, 40, 127
2, 38440, Note_on_c, 1, 43, 127
2, 38440, Note_on_c, 1, 57, 127
2, 38440, Note_on_c, 1, 61, 127
2, 38440, Note_on_c, 1, 69, 127
2, 38480, Note_off_c, 1, 43, 0
2, 38480, Note_off_c, 1, 57, 0
2, 38480, Note_off_c, 1, 61, 0
2, 38480, Note_on_c, 1, 68, 127
2, 38480, Note_off_c, 1, 69, 0
2, 38480, Note_on_c, 1, 71, 127
2, 38480, Note_on_c, 1, 75, 127
2, 38480, Note_on_c, 1, 78, 127
2, 38520, Note_on_c, 1, 27, 127
2, 38520, Note_on_c, 1, 39, 127
2, 38520, Note_off_c, 1, 40, 0
2, 38520, Note_on_c, 1, 58, 127
2, 38520, Note_on_c, 1, 63, 127
2, 38520, Note_off_c, 1, 68, 0
2, 38520, Note_off_c, 1, 71, 0
2, 38520, Note_off_c, 1, 75, 0
2, 38520, Note_off_c, 1, 78, 0
2, 38560, Note_off_c, 1, 27, 0
2, 38560, Note_off_c, 1, 39, 0
2, 38560, Note_off_c, 1, 58, 0
2, 38560, Note_off_c, 1, 63, 0
2, 38560, Note_on_c, 1, 65, 127
2, 38560, Note_on_c, 1, 67, 127
2, 38560, Note_on_c, 1, 70, 127
2, 38560, Note_on_c, 1, 73, 127
2, 38560, Note_on_c, 1, 84, 127
2, 38600, Note_on_c, 1, 40, 127
2, 38600, Note_off_c, 1, 65, 0
2, 38600, Note_off_c, 1, 67, 0
2, 38600, Note_on_c, 1, 68, 127
2, 38600, Note_off_c, 1, 70, 0
2, 38600, Note_on_c, 1, 71, 127
2, 38600, Note_off_c, 1, 73, 0
2, 38600, Note_on_c, 1, 75, 127
2, 38600, Note_on_c, 1, 78, 127
2, 38600, Note_off_c, 1, 84, 0
2, 38640, Note_on_c, 1, 33, 127
2, 38640, Note_off_c, 1, 40, 0
2, 38640, Note_off_c, 1, 68, 0
2, 38640, Note_off_c, 1, 71, 0
2, 38640, Note_on_c, 1, 73, 127
2, 38640, Note_off_c, 1, 75, 0
2, 38640, Note_on_c, 1, 76, 127
2, 38640, Note_off_c, 1, 78, 0
2, 38640, Note_on_c, 1, 85, 127
2, 38680, Note_off_c, 1, 33, 0
2, 38680, Note_on_c, 1, 38, 127
2, 38680, Note_on_c, 1, 58, 127
2, 38680, Note_on_c, 1, 61, 127
2, 38680, Note_on_c, 1, 67, 127
2, 38680, Note_off_c, 1, 73, 0
2, 38680, Note_off_c, 1, 76, 0
2, 38680, Note_off_c, 1, 85, 0
2, 38720, Note_off_c, 1, 38, 0
2, 38720, Note_on_c, 1, 46, 127
2, 38720, Note_on_c, 1, 60, 127
2, 38720, Note_off_c, 1, 61, 0
2, 38720, Note_on_c, 1, 63, 127
2, 38720, Note_off_c, 1, 67, 0
2, 38720, Note_on_c, 1, 69, 127
2, 38720, Note_on_c, 1, 72, 127
2, 38760, Note_off_c, 1, 46, 0
2, 38760, Note_on_c, 1, 49, 127
2, 38760, Note_on_c, 1, 51, 127
2, 38760, Note_on_c, 1, 54, 127
2, 38760, Note_on_c, 1, 56, 127
2, 38760, Note_off_c, 1, 58, 0
2, 38760, Note_off_c, 1, 63, 0
2, 38760, Note_off_c, 1, 69, 0
2, 38760, Note_off_c, 1, 72, 0
2, 38760, Note_on_c, 1, 75, 127
2, 38800, Note_on_c, 1, 44, 127
2, 38800, Note_off_c, 1, 49, 0
2, 38800, Note_off_c, 1, 51, 0
2, 38800, Note_off_c, 1, 54, 0
2, 38800, Note_off_c, 1, 56, 0
2, 38800, Note_off_c, 1, 60, 0
2, 38800, Note_off_c, 1, 75, 0
2, 38800, Note_on_c, 1, 82, 127
2, 38800, Note_on_c, 1, 86, 127
2, 38800, Note_on_c, 1, 89, 127
2, 38800, Note_on_c, 1, 94, 127
2, 38840, Note_off_c, 1, 44, 0
2, 38840, Note_off_c, 1, 82, 0
2, 38840, Note_off_c, 1, 86, 0
2, 38840, Note_off_c, 1, 89, 0
2, 38840, Note_off_c, 1, 94, 0
2, 38880, Note_on_c, 1, 50, 127
2, 38880, Note_on_c, 1, 52, 127
2, 38880, Note_on_c, 1, 57, 127
2, 38880, Note_on_c, 1, 62, 127
2, 38880, Note_on_c, 1, 64, 127
2, 38920, Note_on_c, 1, 42, 127
2, 38920, Note_on_c, 1, 48, 127
2, 38920, Note_off_c, 1, 50, 0
2, 38920, Note_off_c, 1, 52, 0
2, 38920, Note_off_c, 1, 57, 0
2, 38920, Note_off_c, 1, 62, 0
2, 38920, Note_off_c, 1, 64, 0
2, 38920, Note_on_c, 1, 66, 127
2, 38920, Note_on_c, 1, 70, 127
2, 38960, Note_off_c, 1, 42, 0
2, 38960, Note_off_c, 1, 48, 0
2, 38960, Note_off_c, 1, 66, 0
2, 38960, Note_off_c, 1, 70, 0
2, 38960, Note_on_c, 1, 78, 127
2, 38960, Note_on_c, 1, 85, 127
2, 38960, Note_on_c, 1, 88, 127
2, 38960, Note_on_c, 1, 93, 127
2, 38960, Note_on_c, 1, 97, 127
2, 39000, Note_on_c, 1, 62, 127
2, 39000, Note_on_c, 1, 63, 127
2, 39000, Note_on_c, 1, 66, 127
2, 39000, Note_off_c, 1, 78, 0
2, 39000, Note_off_c, 1, 85, 0
2, 39000, Note_off_c, 1, 88, 0
2, 39000, Note_off_c, 1, 93, 0
2, 39000, Note_off_c, 1, 97, 0
2, 39040, Note_on_c, 1, 44, 127
2, 39040, Note_on_c, 1, 51, 127
2, 39040, Note_on_c, 1, 56, 127
2, 39040, Note_off_c, 1, 62, 0
2, 39040, Note_off_c, 1, 66, 0
2, 39040, Note_on_c, 1, 68, 127
2, 39040, Note_on_c, 1, 72, 127
2, 39080, Note_on_c, 1, 39, 127
2, 39080, Note_off_c, 1, 44, 0
2, 39080, Note_off_c, 1, 56, 0
2, 39080, Note_on_c, 1, 58, 127
2, 39080, Note_on_c, 1, 61, 127
2, 39080, Note_off_c, 1, 63, 0
2, 39080, Note_on_c, 1, 67, 127
2, 39080, Note_off_c, 1, 68, 0
2, 39080, Note_off_c, 1, 72, 0
2, 39080, Note_on_c, 1, 94, 127
2, 39120, Note_off_c, 1, 39, 0
2, 39120, Note_off_c, 1, 51, 0
2, 39120, Note_on_c, 1, 55, 127
2, 39120, Note_off_c, 1, 58, 0
2, 39120, Note_off_c, 1, 61, 0
2, 39120, Note_on_c, 1, 65, 127
2, 39120, Note_off_c, 1, 67, 0
2, 39120, Note_on_c, 1, 72, 127
2, 39120, Note_on_c, 1, 81, 127
2, 39120, Note_on_c, 1, 84, 127
2, 39120, Note_off_c, 1, 94, 0
2, 39160, Note_on_c, 1, 37, 127
2, 39160, Note_on_c, 1, 52, 127
2, 39160, Note_off_c, 1, 55, 0
2, 39160, Note_off_c, 1, 65, 0
2, 39160, Note_on_c, 1, 68, 127
2, 39160, Note_off_c, 1, 72, 0
2, 39160, Note_on_c, 1, 76, 127
2, 39160, Note_on_c, 1, 80, 127
2, 39160, Note_off_c, 1, 81, 0
2, 39160, Note_off_c, 1, 84, 0
2, 39200, Note_off_c, 1, 37, 0
2, 39200, Note_off_c, 1, 52, 0
2, 39200, Note_on_c, 1, 54, 127
2, 39200, Note_on_c, 1, 61, 127
2, 39200, Note_off_c, 1, 68, 0
2, 39200, Note_on_c, 1, 69, 127
2, 39200, Note_off_c, 1, 76, 0
2, 39200, Note_off_c, 1, 80, 0
2, 39200, Note_on_c, 1, 84, 127
2, 39240, Note_off_c, 1, 54, 0
2, 39240, Note_on_c, 1, 60, 127
2, 39240, Note_off_c, 1, 61, 0
2, 39240, Note_off_c, 1, 69, 0
2, 39240, Note_on_c, 1, 71, 127
2, 39240, Note_on_c, 1, 79, 127
2, 39240, Note_on_c, 1, 83, 127
2, 39240, Note_off_c, 1, 84, 0
2, 39280, Note_on_c, 1, 29, 127
2, 39280, Note_on_c, 1, 37, 127
2, 39280, Note_on_c, 1, 41, 127
2, 39280, Note_on_c, 1, 49, 127
2, 39280, Note_off_c, 1, 60, 0
2, 39280, Note_off_c, 1, 71, 0
2, 39280, Note_off_c, 1, 79, 0
2, 39280, Note_off_c, 1, 83, 0
2, 39320, Note_off_c, 1, 29, 0
2, 39320, Note_off_c, 1, 37, 0
2, 39320, Note_off_c, 1, 41, 0
2, 39320, Note_off_c, 1, 49, 0
2, 39320, Note_on_c, 1, 53, 127
2, 39320, Note_on_c, 1, 57, 127
2, 39320, Note_on_c, 1, 62, 127
2, 39320, Note_on_c, 1, 65, 127
2, 39320, Note_on_c, 1, 81, 127
2, 39320, Note_on_c, 1, 86, 127
2, 39360, Note_on_c, 1, 39, 127
2, 39360, Note_on_c, 1, 51, 127
2, 39360, Note_off_c, 1, 53, 0
2, 39360, Note_off_c, 1, 57, 0
2, 39360, Note_off_c, 1, 62, 0
2, 39360, Note_off_c, 1, 65, 0
2, 39360, Note_on_c, 1, 79, 127
2, 39360, Note_off_c, 1, 81, 0
2, 39360, Note_on_c, 1, 85, 127
2, 39360, Note_off_c, 1, 86, 0
2, 39360, Note_on_c, 1, 91, 127
2, 39400, Note_off_c, 1, 39, 0
2, 39400, Note_off_c, 1, 51, 0
2, 39400, Note_on_c, 1, 69, 127
2, 39400, Note_on_c, 1, 73, 127
2, 39400, Note_off_c, 1, 79, 0
2, 39400, Note_on_c, 1, 81, 127
2, 39400, Note_off_c, 1, 85, 0
2, 39400, Note_on_c, 1, 90, 127
2, 39400, Note_off_c, 1, 91, 0
2, 39400, Note_on_c, 1, 97, 127
2, 39400, Note_on_c, 1, 102, 127
2, 39440, Note_on_c, 1, 36, 127
2, 39440, Note_on_c, 1, 48, 127
2, 39440, Note_off_c, 1, 69, 0
2, 39440, Note_on_c, 1, 70, 127
2, 39440, Note_off_c, 1, 73, 0
2, 39440, Note_on_c, 1, 77, 127
2, 39440, Note_off_c, 1, 90, 0
2, 39440, Note_off_c, 1, 97, 0
2, 39440, Note_off_c, 1, 102, 0
2, 39480, Note_off_c, 1, 36, 0
2, 39480, Note_on_c, 1, 46, 127
2, 39480, Note_off_c, 1, 48, 0
2, 39480, Note_on_c, 1, 58, 127
2, 39480, Note_on_c, 1, 67, 127
2, 39480, Note_off_c, 1, 70, 0
2, 39480, Note_on_c, 1, 73, 127
2, 39480, Note_on_c, 1, 79, 127
2, 39480, Note_off_c, 1, 81, 0
2, 39520, Note_off_c, 1, 46, 0
2, 39520, Note_off_c, 1, 58, 0
2, 39520, Note_on_c, 1, 62, 127
2, 39520, Note_off_c, 1, 67, 0
2, 39520, Note_on_c, 1, 68, 127
2, 39520, Note_off_c, 1, 77, 0
2, 39520, Note_off_c, 1, 79, 0
2, 39520, Note_on_c, 1, 80, 127
2, 39520, Note_on_c, 1, 89, 127
2, 39520, Note_on_c, 1, 92, 127
2, 39560, Note_off_c, 1, 62, 0
2, 39560, Note_on_c, 1, 63, 127
2, 39560, Note_off_c, 1, 73, 0
2, 39560, Note_on_c, 1, 78, 127
2, 39560, Note_off_c, 1, 80, 0
2, 39560, Note_on_c, 1, 82, 127
2, 39560, Note_off_c, 1, 89, 0
2, 39560, Note_on_c, 1, 90, 127
2, 39560, Note_off_c, 1, 92, 0
2, 39600, Note_on_c, 1, 39, 127
2, 39600, Note_on_c, 1, 51, 127
2, 39600, Note_on_c, 1, 58, 127
2, 39600, Note_on_c, 1, 61, 127
2, 39600, Note_off_c, 1, 63, 0
2, 39600, Note_off_c, 1, 68, 0
2, 39600, Note_off_c, 1, 78, 0
2, 39600, Note_off_c, 1, 82, 0
2, 39600, Note_off_c, 1, 90, 0
2, 39640, Note_off_c, 1, 39, 0
2, 39640, Note_on_c, 1, 49, 127
2, 39640, Note_off_c, 1, 51, 0
2, 39640, Note_on_c, 1, 53, 127
2, 39640, Note_on_c, 1, 56, 127
2, 39640, Note_off_c, 1, 58, 0
2, 39680, Note_on_c, 1, 46, 127
2, 39680, Note_off_c, 1, 49, 0
2, 39680, Note_off_c, 1, 53, 0
2, 39680, Note_off_c, 1, 56, 0
2, 39680, Note_on_c, 1, 63, 127
2, 39680, Note_on_c, 1, 67, 127
2, 39680, Note_on_c, 1, 70, 127
2, 39680, Note_on_c, 1, 79, 127
2, 39680, Note_on_c, 1, 82, 127
2, 40840, Note_off_c, 1, 46, 0
2, 40840, Note_off_c, 1, 61, 0
2, 40840, Note_off_c, 1, 63, 0
2, 40840, Note_off_c, 1, 67, 0
2, 40840, Note_off_c, 1, 70, 0
2, 40840, Note_off_c, 1, 79, 0
2, 40840, Note_off_c, 1, 82, 0
2, 40920, Note_on_c, 1, 31, 127
2, 40920, Note_on_c, 1, 43, 127
2, 40920, Note_on_c, 1, 63, 127
2, 40920, Note_on_c, 1, 66, 127
2, 40920, Note_on_c, 1, 69, 127
2, 40920, Note_on_c, 1, 72, 127
2, 43120, Note_off_c, 1, 31, 0
2, 43120, Note_off_c, 1, 43, 0
2, 43120, Note_off_c, 1, 63, 0
2, 43120, Note_off_c, 1, 66, 0
2, 43120, Note_off_c, 1, 69, 0
2, 43120, Note_off_c, 1, 72, 0
2, 43160, Note_on_c, 1, 31, 127
2, 43160, Note_on_c, 1, 43, 127
2, 43160, Note_on_c, 1, 63, 127
2, 43160, Note_on_c, 1, 66, 127
2, 43160, Note_on_c, 1, 69, 127
2, 43160, Note_on_c, 1, 72, 127
2, 45160, Note_off_c, 1, 31, 0
2, 45160, Note_off_c, 1, 43, 0
2, 45160, Note_off_c, 1, 63, 0
2, 45160, Note_off_c, 1, 66, 0
2, 45160, Note_off_c, 1, 69, 0
2, 45160, Note_off_c, 1, 72, 0
2, 45200, Note_on_c, 1, 31, 127
2, 45200, Note_on_c, 1, 43, 127
2, 45200, Note_on_c, 1, 63, 127
2, 45200, Note_on_c, 1, 66, 127
2, 45200, Note_on_c, 1, 69, 127
2, 45200, Note_on_c, 1, 72, 127
2, 46960, Note_off_c, 1, 31, 0
2, 46960, Note_off_c, 1, 43, 0
2, 46960, Note_off_c, 1, 63, 0
2, 46960, Note_off_c, 1, 66, 0
2, 46960, Note_off_c, 1, 69, 0
2, 46960, Note_off_c, 1, 72, 0
2, 47000, Note_on_c, 1, 32, 127
2, 47000, Note_on_c, 1, 44, 127
2, 47200, Note_on_c, 1, 75, 127
2, 47240, Note_off_c, 1, 75, 0
2, 47400, Note_off_c, 1, 32, 0
2, 47400, Note_off_c, 1, 44, 0
2, 47440, Note_on_c, 1, 32, 127
2, 47440, Note_on_c, 1, 44, 127
2, 47440, Note_on_c, 1, 61, 127
2, 48200, Note_off_c, 1, 32, 0
2, 48200, Note_on_c, 1, 34, 127
2, 48200, Note_off_c, 1, 44, 0
2, 48200, Note_on_c, 1, 46, 127
2, 48200, Note_off_c, 1, 61, 0
2, 48200, Note_on_c, 1, 67, 127
2, 48240, Note_on_c, 1, 64, 127
2, 48240, Note_off_c, 1, 67, 0
2, 48400, Note_on_c, 1, 73, 127
2, 48440, Note_off_c, 1, 73, 0
2, 48760, Note_off_c, 1, 34, 0
2, 48760, Note_off_c, 1, 46, 0
2, 48760, Note_off_c, 1, 64, 0
2, 48800, Note_on_c, 1, 53, 127
2, 48800, Note_on_c, 1, 60, 127
2, 48800, Note_on_c, 1, 70, 127
2, 49360, Note_off_c, 1, 70, 0
2, 49400, Note_on_c, 1, 52, 127
2, 49400, Note_off_c, 1, 53, 0
2, 49400, Note_on_c, 1, 58, 127
2, 49400, Note_on_c, 1, 67, 127
2, 49800, Note_off_c, 1, 52, 0
2, 49800, Note_off_c, 1, 58, 0
2, 49800, Note_off_c, 1, 60, 0
2, 49800, Note_off_c, 1, 67, 0
2, 49840, Note_on_c, 1, 52, 127
2, 49840, Note_on_c, 1, 58, 127
2, 49840, Note_on_c, 1, 60, 127
2, 49840, Note_on_c, 1, 67, 127
2, 50000, Note_off_c, 1, 52, 0
2, 50000, Note_off_c, 1, 58, 0
2, 50000, Note_off_c, 1, 60, 0
2, 50000, Note_off_c, 1, 67, 0
2, 50040, Note_on_c, 1, 53, 127
2, 50040, Note_on_c, 1, 65, 127
2, 51160, Note_off_c, 1, 53, 0
2, 51160, Note_off_c, 1, 65, 0
2, 51200, Note_on_c, 1, 49, 127
2, 51200, Note_on_c, 1, 68, 127
2, 51800, Note_on_c, 1, 55, 127
2, 51800, Note_off_c, 1, 68, 0
2, 51800, Note_on_c, 1, 69, 127
2, 52000, Note_off_c, 1, 49, 0
2, 52000, Note_off_c, 1, 55, 0
2, 52000, Note_off_c, 1, 69, 0
2, 52040, Note_on_c, 1, 49, 127
2, 52040, Note_on_c, 1, 55, 127
2, 52040, Note_on_c, 1, 69, 127
2, 52400, Note_off_c, 1, 55, 0
2, 52440, Note_off_c, 1, 49, 0
2, 52440, Note_on_c, 1, 55, 127
2, 52440, Note_on_c, 1, 60, 127
2, 52440, Note_on_c, 1, 63, 127
2, 52440, Note_on_c, 1, 72, 127
2, 52440, Note_on_c, 1, 78, 127
2, 52440, Note_on_c, 1, 81, 127
2, 52440, Note_on_c, 1, 87, 127
2, 53000, Note_off_c, 1, 55, 0
2, 53000, Note_off_c, 1, 60, 0
2, 53000, Note_off_c, 1, 63, 0
2, 53000, Note_off_c, 1, 69, 0
2, 53000, Note_off_c, 1, 72, 0
2, 53000, Note_off_c, 1, 78, 0
2, 53000, Note_off_c, 1, 81, 0
2, 53000, Note_off_c, 1, 87, 0
2, 53040, Note_on_c, 1, 77, 127
2, 53040, Note_on_c, 1, 80, 127
2, 53040, Note_on_c, 1, 83, 127
2, 53040, Note_on_c, 1, 86, 127
2, 54120, Note_off_c, 1, 77, 0
2, 54120, Note_off_c, 1, 80, 0
2, 54120, Note_off_c, 1, 83, 0
2, 54120, Note_off_c, 1, 86, 0
2, 54160, Note_on_c, 1, 77, 127
2, 54160, Note_on_c, 1, 80, 127
2, 54160, Note_on_c, 1, 83, 127
2, 54160, Note_on_c, 1, 86, 127
2, 54800, Note_off_c, 1, 77, 0
2, 54800, Note_off_c, 1, 80, 0
2, 54800, Note_off_c, 1, 83, 0
2, 54800, Note_off_c, 1, 86, 0
2, 54880, Note_on_c, 1, 77, 127
2, 54880, Note_on_c, 1, 80, 127
2, 54880, Note_on_c, 1, 83, 127
2, 54880, Note_on_c, 1, 86, 127
2, 56040, Note_on_c, 1, 53, 127
2, 56040, Note_on_c, 1, 59, 127
2, 56040, Note_on_c, 1, 62, 127
2, 56040, Note_off_c, 1, 77, 0
2, 56040, Note_off_c, 1, 80, 0
2, 56040, Note_off_c, 1, 83, 0
2, 56040, Note_off_c, 1, 86, 0
2, 56080, Note_off_c, 1, 53, 0
2, 56080, Note_off_c, 1, 59, 0
2, 56080, Note_off_c, 1, 62, 0
2, 56120, Note_on_c, 1, 46, 127
2, 56120, Note_on_c, 1, 53, 127
2, 56120, Note_on_c, 1, 58, 127
2, 56120, Note_on_c, 1, 60, 127
2, 56120, Note_on_c, 1, 63, 127
2, 56120, Note_on_c, 1, 67, 127
2, 57240, Note_off_c, 1, 46, 0
2, 57240, Note_off_c, 1, 53, 0
2, 57240, Note_off_c, 1, 58, 0
2, 57240, Note_off_c, 1, 60, 0
2, 57240, Note_off_c, 1, 63, 0
2, 57240, Note_off_c, 1, 67, 0
2, 57320, Note_on_c, 1, 60, 127
2, 57320, Note_on_c, 1, 64, 127
2, 57320, Note_on_c, 1, 72, 127
2, 57320, Note_on_c, 1, 84, 127
2, 57320, Note_on_c, 1, 96, 127
2, 58120, Note_off_c, 1, 60, 0
2, 58120, Note_off_c, 1, 64, 0
2, 58120, Note_off_c, 1, 72, 0
2, 58120, Note_off_c, 1, 84, 0
2, 58120, Note_off_c, 1, 96, 0
2, 58160, Note_on_c, 1, 60, 127
2, 58160, Note_on_c, 1, 64, 127
2, 58160, Note_on_c, 1, 72, 127
2, 58160, Note_on_c, 1, 84, 127
2, 58160, Note_on_c, 1, 96, 127
2, 58480, Note_off_c, 1, 60, 0
2, 58480, Note_off_c, 1, 64, 0
2, 58480, Note_off_c, 1, 72, 0
2, 58480, Note_off_c, 1, 84, 0
2, 58480, Note_off_c, 1, 96, 0
2, 58560, Note_on_c, 1, 42, 127
2, 58560, Note_on_c, 1, 54, 127
2, 58560, Note_on_c, 1, 58, 127
2, 58560, Note_on_c, 1, 61, 127
2, 58560, Note_on_c, 1, 66, 127
2, 59680, Note_off_c, 1, 42, 0
2, 59680, Note_off_c, 1, 54, 0
2, 59680, Note_off_c, 1, 58, 0
2, 59680, Note_off_c, 1, 61, 0
2, 59680, Note_off_c, 1, 66, 0
2, 59760, Note_on_c, 1, 42, 127
2, 59760, Note_on_c, 1, 54, 127
2, 59760, Note_on_c, 1, 58, 127
2, 59760, Note_on_c, 1, 61, 127
2, 59760, Note_on_c, 1, 66, 127
2, 60560, Note_off_c, 1, 42, 0
2, 60560, Note_off_c, 1, 54, 0
2, 60560, Note_off_c, 1, 58, 0
2, 60560, Note_off_c, 1, 61, 0
2, 60560, Note_off_c, 1, 66, 0
2, 60600, Note_on_c, 1, 42, 127
2, 60600, Note_on_c, 1, 54, 127
2, 60600, Note_on_c, 1, 58, 127
2, 60600, Note_on_c, 1, 61, 127
2, 60600, Note_on_c, 1, 66, 127
2, 60920, Note_off_c, 1, 42, 0
2, 60920, Note_off_c, 1, 54, 0
2, 60920, Note_off_c, 1, 58, 0
2, 60920, Note_off_c, 1, 61, 0
2, 60920, Note_off_c, 1, 66, 0
2, 61000, Note_on_c, 1, 42, 127
2, 61000, Note_on_c, 1, 54, 127
2, 61000, Note_on_c, 1, 58, 127
2, 61000, Note_on_c, 1, 61, 127
2, 61000, Note_on_c, 1, 66, 127
2, 62120, Note_off_c, 1, 42, 0
2, 62120, Note_off_c, 1, 54, 0
2, 62120, Note_off_c, 1, 58, 0
2, 62120, Note_off_c, 1, 61, 0
2, 62120, Note_off_c, 1, 66, 0
2, 62200, Note_on_c, 1, 31, 127
2, 62200, Note_on_c, 1, 55, 127
2, 62200, Note_on_c, 1, 58, 127
2, 62200, Note_on_c, 1, 64, 127
2, 62240, Note_off_c, 1, 31, 0
2, 62240, Note_off_c, 1, 55, 0
2, 62240, Note_on_c, 1, 63, 127
2, 62240, Note_off_c, 1, 64, 0
2, 62240, Note_on_c, 1, 82, 127
2, 62240, Note_on_c, 1, 89, 127
2, 62240, Note_on_c, 1, 94, 127
2, 62280, Note_off_c, 1, 58, 0
2, 62280, Note_on_c, 1, 61, 127
2, 62280, Note_off_c, 1, 63, 0
2, 62280, Note_on_c, 1, 66, 127
2, 62280, Note_off_c, 1, 82, 0
2, 62280, Note_off_c, 1, 89, 0
2, 62280, Note_on_c, 1, 93, 127
2, 62280, Note_off_c, 1, 94, 0
2, 62320, Note_on_c, 1, 49, 127
2, 62320, Note_on_c, 1, 52, 127
2, 62320, Note_on_c, 1, 56, 127
2, 62320, Note_off_c, 1, 61, 0
2, 62320, Note_on_c, 1, 64, 127
2, 62320, Note_off_c, 1, 66, 0
2, 62320, Note_on_c, 1, 80, 127
2, 62320, Note_on_c, 1, 92, 127
2, 62320, Note_off_c, 1, 93, 0
2, 62360, Note_on_c, 1, 38, 127
2, 62360, Note_off_c, 1, 49, 0
2, 62360, Note_on_c, 1, 50, 127
2, 62360, Note_off_c, 1, 52, 0
2, 62360, Note_on_c, 1, 53, 127
2, 62360, Note_on_c, 1, 60, 127
2, 62360, Note_off_c, 1, 64, 0
2, 62360, Note_off_c, 1, 80, 0
2, 62360, Note_off_c, 1, 92, 0
2, 62400, Note_off_c, 1, 38, 0
2, 62400, Note_off_c, 1, 50, 0
2, 62400, Note_on_c, 1, 51, 127
2, 62400, Note_off_c, 1, 53, 0
2, 62400, Note_on_c, 1, 54, 127
2, 62400, Note_off_c, 1, 56, 0
2, 62400, Note_on_c, 1, 59, 127
2, 62400, Note_off_c, 1, 60, 0
2, 62400, Note_on_c, 1, 87, 127
2, 62440, Note_on_c, 1, 45, 127
2, 62440, Note_on_c, 1, 47, 127
2, 62440, Note_on_c, 1, 50, 127
2, 62440, Note_off_c, 1, 51, 0
2, 62440, Note_off_c, 1, 54, 0
2, 62440, Note_off_c, 1, 59, 0
2, 62440, Note_off_c, 1, 87, 0
2, 62480, Note_on_c, 1, 42, 127
2, 62480, Note_off_c, 1, 45, 0
2, 62480, Note_off_c, 1, 47, 0
2, 62480, Note_off_c, 1, 50, 0
2, 62480, Note_on_c, 1, 81, 127
2, 62480, Note_on_c, 1, 90, 127
2, 62480, Note_on_c, 1, 93, 127
2, 62520, Note_off_c, 1, 42, 0
2, 62520, Note_on_c, 1, 51, 127
2, 62520, Note_on_c, 1, 59, 127
2, 62520, Note_on_c, 1, 69, 127
2, 62520, Note_on_c, 1, 71, 127
2, 62520, Note_off_c, 1, 90, 0
2, 62520, Note_off_c, 1, 93, 0
2, 62560, Note_on_c, 1, 35, 127
2, 62560, Note_on_c, 1, 45, 127
2, 62560, Note_off_c, 1, 51, 0
2, 62560, Note_on_c, 1, 52, 127
2, 62560, Note_on_c, 1, 54, 127
2, 62560, Note_off_c, 1, 59, 0
2, 62560, Note_off_c, 1, 69, 0
2, 62560, Note_off_c, 1, 71, 0
2, 62560, Note_off_c, 1, 81, 0
2, 62600, Note_off_c, 1, 35, 0
2, 62600, Note_off_c, 1, 45, 0
2, 62600, Note_off_c, 1, 52, 0
2, 62600, Note_off_c, 1, 54, 0
2, 62640, Note_on_c, 1, 46, 127
2, 62640, Note_on_c, 1, 57, 127
2, 62640, Note_on_c, 1, 66, 127
2, 62680, Note_on_c, 1, 42, 127
2, 62680, Note_off_c, 1, 46, 0
2, 62680, Note_on_c, 1, 48, 127
2, 62680, Note_on_c, 1, 50, 127
2, 62680, Note_on_c, 1, 62, 127
2, 62680, Note_off_c, 1, 66, 0
2, 62720, Note_off_c, 1, 42, 0
2, 62720, Note_on_c, 1, 43, 127
2, 62720, Note_off_c, 1, 50, 0
2, 62720, Note_on_c, 1, 51, 127
2, 62720, Note_on_c, 1, 55, 127
2, 62720, Note_off_c, 1, 57, 0
2, 62720, Note_off_c, 1, 62, 0
2, 62720, Note_on_c, 1, 63, 127
2, 62720, Note_on_c, 1, 72, 127
2, 62760, Note_off_c, 1, 43, 0
2, 62760, Note_off_c, 1, 48, 0
2, 62760, Note_on_c, 1, 49, 127
2, 62760, Note_off_c, 1, 51, 0
2, 62760, Note_on_c, 1, 52, 127
2, 62760, Note_on_c, 1, 57, 127
2, 62760, Note_on_c, 1, 61, 127
2, 62760, Note_off_c, 1, 63, 0
2, 62760, Note_on_c, 1, 64, 127
2, 62760, Note_off_c, 1, 72, 0
2, 62800, Note_off_c, 1, 49, 0
2, 62800, Note_off_c, 1, 52, 0
2, 62800, Note_off_c, 1, 55, 0
2, 62800, Note_off_c, 1, 57, 0
2, 62800, Note_off_c, 1, 61, 0
2, 62800, Note_off_c, 1, 64, 0
2, 62800, Note_on_c, 1, 81, 127
2, 62800, Note_on_c, 1, 87, 127
2, 62840, Note_on_c, 1, 48, 127
2, 62840, Note_on_c, 1, 55, 127
2, 62840, Note_on_c, 1, 58, 127
2, 62840, Note_on_c, 1, 76, 127
2, 62840, Note_off_c, 1, 81, 0
2, 62840, Note_on_c, 1, 85, 127
2, 62840, Note_off_c, 1, 87, 0
2, 63240, Note_off_c, 1, 85, 0
2, 63240, Note_on_c, 1, 87, 127
2, 63320, Note_on_c, 1, 52, 127
2, 63320, Note_off_c, 1, 58, 0
2, 63320, Note_off_c, 1, 76, 0
2, 63320, Note_off_c, 1, 87, 0
2, 63320, Note_on_c, 1, 88, 127
2, 63360, Note_off_c, 1, 48, 0
2, 63360, Note_off_c, 1, 52, 0
2, 63360, Note_off_c, 1, 55, 0
2, 63360, Note_off_c, 1, 88, 0
2, 63440, Note_on_c, 1, 33, 127
2, 63440, Note_on_c, 1, 45, 127
2, 63440, Note_on_c, 1, 74, 127
2, 63440, Note_on_c, 1, 77, 127
2, 63440, Note_on_c, 1, 83, 127
2, 63520, Note_on_c, 1, 68, 127
2, 63520, Note_off_c, 1, 74, 0
2, 63520, Note_off_c, 1, 77, 0
2, 63600, Note_off_c, 1, 68, 0
2, 63600, Note_on_c, 1, 74, 127
2, 63600, Note_on_c, 1, 77, 127
2, 63840, Note_on_c, 1, 68, 127
2, 63840, Note_off_c, 1, 74, 0
2, 63840, Note_off_c, 1, 77, 0
2, 63880, Note_off_c, 1, 68, 0
2, 63880, Note_on_c, 1, 74, 127
2, 63880, Note_on_c, 1, 77, 127
2, 63960, Note_off_c, 1, 33, 0
2, 63960, Note_off_c, 1, 45, 0
2, 63960, Note_off_c, 1, 74, 0
2, 63960, Note_off_c, 1, 83, 0
2, 64000, Note_off_c, 1, 77, 0
2, 64040, Note_on_c, 1, 41, 127
2, 64040, Note_on_c, 1, 48, 127
2, 64040, Note_on_c, 1, 69, 127
2, 64040, Note_on_c, 1, 81, 127
2, 64080, Note_off_c, 1, 41, 0
2, 64080, Note_on_c, 1, 45, 127
2, 64080, Note_on_c, 1, 52, 127
2, 64080, Note_on_c, 1, 64, 127
2, 64080, Note_off_c, 1, 69, 0
2, 64080, Note_off_c, 1, 81, 0
2, 64120, Note_on_c, 1, 41, 127
2, 64120, Note_off_c, 1, 45, 0
2, 64120, Note_off_c, 1, 52, 0
2, 64120, Note_off_c, 1, 64, 0
2, 64120, Note_on_c, 1, 69, 127
2, 64120, Note_on_c, 1, 81, 127
2, 64240, Note_off_c, 1, 41, 0
2, 64240, Note_on_c, 1, 45, 127
2, 64240, Note_on_c, 1, 53, 127
2, 64240, Note_on_c, 1, 57, 127
2, 64240, Note_on_c, 1, 65, 127
2, 64240, Note_off_c, 1, 69, 0
2, 64240, Note_on_c, 1, 77, 127
2, 64240, Note_off_c, 1, 81, 0
2, 64280, Note_on_c, 1, 41, 127
2, 64280, Note_off_c, 1, 45, 0
2, 64280, Note_off_c, 1, 53, 0
2, 64280, Note_off_c, 1, 57, 0
2, 64280, Note_off_c, 1, 65, 0
2, 64280, Note_on_c, 1, 69, 127
2, 64280, Note_off_c, 1, 77, 0
2, 64280, Note_on_c, 1, 81, 127
2, 64320, Note_off_c, 1, 41, 0
2, 64320, Note_off_c, 1, 48, 0
2, 64320, Note_on_c, 1, 58, 127
2, 64320, Note_on_c, 1, 64, 127
2, 64320, Note_on_c, 1, 66, 127
2, 64320, Note_off_c, 1, 69, 0
2, 64320, Note_on_c, 1, 73, 127
2, 64320, Note_on_c, 1, 76, 127
2, 64320, Note_on_c, 1, 78, 127
2, 64320, Note_off_c, 1, 81, 0
2, 64320, Note_on_c, 1, 82, 127
2, 64320, Note_on_c, 1, 85, 127
2, 64360, Note_on_c, 1, 41, 127
2, 64360, Note_on_c, 1, 48, 127
2, 64360, Note_off_c, 1, 58, 0
2, 64360, Note_off_c, 1, 64, 0
2, 64360, Note_off_c, 1, 66, 0
2, 64360, Note_on_c, 1, 69, 127
2, 64360, Note_off_c, 1, 73, 0
2, 64360, Note_off_c, 1, 76, 0
2, 64360, Note_off_c, 1, 78, 0
2, 64360, Note_on_c, 1, 81, 127
2, 64360, Note_off_c, 1, 82, 0
2, 64360, Note_off_c, 1, 85, 0
2, 64400, Note_on_c, 1, 36, 127
2, 64400, Note_off_c, 1, 41, 0
2, 64400, Note_on_c, 1, 63, 127
2, 64400, Note_on_c, 1, 68, 127
2, 64400, Note_off_c, 1, 69, 0
2, 64400, Note_on_c, 1, 72, 127
2, 64400, Note_on_c, 1, 80, 127
2, 64400, Note_off_c, 1, 81, 0
2, 64440, Note_on_c, 1, 34, 127
2, 64440, Note_off_c, 1, 36, 0
2, 64440, Note_on_c, 1, 41, 127
2, 64440, Note_on_c, 1, 46, 127
2, 64440, Note_off_c, 1, 48, 0
2, 64440, Note_off_c, 1, 63, 0
2, 64440, Note_off_c, 1, 68, 0
2, 64440, Note_off_c, 1, 72, 0
2, 64440, Note_off_c, 1, 80, 0
2, 64440, Note_on_c, 1, 85, 127
2, 64440, Note_on_c, 1, 90, 127
2, 64480, Note_off_c, 1, 34, 0
2, 64480, Note_off_c, 1, 41, 0
2, 64480, Note_off_c, 1, 46, 0
2, 64480, Note_on_c, 1, 57, 127
2, 64480, Note_on_c, 1, 64, 127
2, 64480, Note_on_c, 1, 72, 127
2, 64480, Note_off_c, 1, 85, 0
2, 64480, Note_on_c, 1, 88, 127
2, 64480, Note_off_c, 1, 90, 0
2, 64520, Note_on_c, 1, 41, 127
2, 64520, Note_off_c, 1, 57, 0
2, 64520, Note_off_c, 1, 64, 0
2, 64520, Note_on_c, 1, 70, 127
2, 64520, Note_off_c, 1, 72, 0
2, 64520, Note_on_c, 1, 75, 127
2, 64520, Note_on_c, 1, 79, 127
2, 64520, Note_off_c, 1, 88, 0
2, 64560, Note_on_c, 1, 48, 127
2, 64560, Note_on_c, 1, 69, 127
2, 64560, Note_off_c, 1, 70, 0
2, 64560, Note_off_c, 1, 75, 0
2, 64560, Note_off_c, 1, 79, 0
2, 64560, Note_on_c, 1, 81, 127
2, 64600, Note_off_c, 1, 69, 0
2, 64600, Note_off_c, 1, 81, 0
2, 64640, Note_off_c, 1, 41, 0
2, 64640, Note_off_c, 1, 48, 0
2, 64680, Note_on_c, 1, 30, 127
2, 64680, Note_on_c, 1, 46, 127
2, 65240, Note_off_c, 1, 30, 0
2, 65240, Note_off_c, 1, 46, 0
2, 65240, Note_on_c, 1, 85, 127
2, 65240, Note_on_c, 1, 90, 127
2, 65240, Note_on_c, 1, 97, 127
2, 65280, Note_on_c, 1, 30, 127
2, 65280, Note_on_c, 1, 46, 127
2, 65280, Note_off_c, 1, 85, 0
2, 65280, Note_off_c, 1, 90, 0
2, 65280, Note_off_c, 1, 97, 0
2, 65840, Note_off_c, 1, 30, 0
2, 65840, Note_off_c, 1, 46, 0
2, 65880, Note_on_c, 1, 30, 127
2, 65880, Note_on_c, 1, 42, 127
2, 65880, Note_on_c, 1, 80, 127
2, 65880, Note_on_c, 1, 89, 127
2, 65880, Note_on_c, 1, 92, 127
2, 65920, Note_off_c, 1, 30, 0
2, 65920, Note_off_c, 1, 42, 0
2, 65920, Note_on_c, 1, 67, 127
2, 65920, Note_off_c, 1, 80, 0
2, 65920, Note_on_c, 1, 82, 127
2, 65920, Note_on_c, 1, 85, 127
2, 65920, Note_on_c, 1, 88, 127
2, 65920, Note_off_c, 1, 89, 0
2, 65920, Note_off_c, 1, 92, 0
2, 65960, Note_on_c, 1, 30, 127
2, 65960, Note_on_c, 1, 42, 127
2, 65960, Note_off_c, 1, 67, 0
2, 65960, Note_on_c, 1, 80, 127
2, 65960, Note_off_c, 1, 82, 0
2, 65960, Note_off_c, 1, 85, 0
2, 65960, Note_off_c, 1, 88, 0
2, 65960, Note_on_c, 1, 89, 127
2, 65960, Note_on_c, 1, 92, 127
2, 66000, Note_off_c, 1, 30, 0
2, 66000, Note_off_c, 1, 42, 0
2, 66000, Note_on_c, 1, 63, 127
2, 66000, Note_off_c, 1, 80, 0
2, 66000, Note_on_c, 1, 83, 127
2, 66000, Note_on_c, 1, 87, 127
2, 66000, Note_off_c, 1, 89, 0
2, 66000, Note_on_c, 1, 90, 127
2, 66000, Note_off_c, 1, 92, 0
2, 66000, Note_on_c, 1, 95, 127
2, 66040, Note_off_c, 1, 63, 0
2, 66040, Note_on_c, 1, 66, 127
2, 66040, Note_off_c, 1, 87, 0
2, 66040, Note_off_c, 1, 90, 0
2, 66080, Note_on_c, 1, 30, 127
2, 66080, Note_on_c, 1, 52, 127
2, 66080, Note_on_c, 1, 58, 127
2, 66080, Note_on_c, 1, 61, 127
2, 66080, Note_off_c, 1, 66, 0
2, 66080, Note_off_c, 1, 83, 0
2, 66080, Note_off_c, 1, 95, 0
2, 66440, Note_off_c, 1, 30, 0
2, 66440, Note_on_c, 1, 39, 127
2, 66440, Note_on_c, 1, 51, 127
2, 66440, Note_off_c, 1, 52, 0
2, 66440, Note_off_c, 1, 58, 0
2, 66440, Note_off_c, 1, 61, 0
2, 66480, Note_off_c, 1, 39, 0
2, 66480, Note_on_c, 1, 44, 127
2, 66480, Note_off_c, 1, 51, 0
2, 66480, Note_on_c, 1, 56, 127
2, 66480, Note_on_c, 1, 73, 127
2, 66480, Note_on_c, 1, 85, 127
2, 66680, Note_off_c, 1, 44, 0
2, 66680, Note_off_c, 1, 56, 0
2, 66680, Note_off_c, 1, 73, 0
2, 66680, Note_off_c, 1, 85, 0
2, 66720, Note_on_c, 1, 44, 127
2, 66720, Note_on_c, 1, 56, 127
2, 66720, Note_on_c, 1, 73, 127
2, 66720, Note_on_c, 1, 85, 127
2, 67080, Note_off_c, 1, 44, 0
2, 67080, Note_off_c, 1, 56, 0
2, 67080, Note_off_c, 1, 73, 0
2, 67080, Note_off_c, 1, 85, 0
2, 67120, Note_on_c, 1, 44, 127
2, 67120, Note_on_c, 1, 52, 127
2, 67120, Note_on_c, 1, 62, 127
2, 67120, Note_on_c, 1, 64, 127
2, 67120, Note_on_c, 1, 71, 127
2, 67640, Note_off_c, 1, 44, 0
2, 67640, Note_off_c, 1, 52, 0
2, 67640, Note_off_c, 1, 62, 0
2, 67640, Note_off_c, 1, 64, 0
2, 67640, Note_off_c, 1, 71, 0
2, 67720, Note_on_c, 1, 47, 127
2, 67720, Note_on_c, 1, 54, 127
2, 67720, Note_on_c, 1, 59, 127
2, 67720, Note_on_c, 1, 66, 127
2, 67720, Note_on_c, 1, 71, 127
2, 67720, Note_on_c, 1, 74, 127
2, 68280, Note_off_c, 1, 47, 0
2, 68280, Note_off_c, 1, 54, 0
2, 68280, Note_off_c, 1, 59, 0
2, 68280, Note_off_c, 1, 66, 0
2, 68280, Note_off_c, 1, 71, 0
2, 68280, Note_off_c, 1, 74, 0
2, 68320, Note_on_c, 1, 47, 127
2, 68320, Note_on_c, 1, 54, 127
2, 68320, Note_on_c, 1, 59, 127
2, 68320, Note_on_c, 1, 66, 127
2, 68320, Note_on_c, 1, 71, 127
2, 68320, Note_on_c, 1, 74, 127
2, 68720, Note_off_c, 1, 47, 0
2, 68720, Note_off_c, 1, 54, 0
2, 68720, Note_off_c, 1, 59, 0
2, 68720, Note_off_c, 1, 66, 0
2, 68720, Note_off_c, 1, 71, 0
2, 68720, Note_off_c, 1, 74, 0
2, 68760, Note_on_c, 1, 47, 127
2, 68760, Note_on_c, 1, 54, 127
2, 68760, Note_on_c, 1, 59, 127
2, 68760, Note_on_c, 1, 66, 127
2, 68760, Note_on_c, 1, 71, 127
2, 68760, Note_on_c, 1, 74, 127
2, 68920, Note_on_c, 1, 35, 127
2, 68920, Note_on_c, 1, 44, 127
2, 68920, Note_off_c, 1, 47, 0
2, 68920, Note_off_c, 1, 54, 0
2, 68920, Note_off_c, 1, 59, 0
2, 68920, Note_off_c, 1, 66, 0
2, 68920, Note_off_c, 1, 71, 0
2, 68920, Note_off_c, 1, 74, 0
2, 68920, Note_on_c, 1, 80, 127
2, 68960, Note_off_c, 1, 35, 0
2, 68960, Note_off_c, 1, 44, 0
2, 68960, Note_on_c, 1, 48, 127
2, 68960, Note_on_c, 1, 52, 127
2, 68960, Note_on_c, 1, 54, 127
2, 68960, Note_on_c, 1, 66, 127
2, 68960, Note_on_c, 1, 78, 127
2, 68960, Note_off_c, 1, 80, 0
2, 69000, Note_on_c, 1, 28, 127
2, 69000, Note_on_c, 1, 33, 127
2, 69000, Note_on_c, 1, 35, 127
2, 69000, Note_off_c, 1, 48, 0
2, 69000, Note_off_c, 1, 52, 0
2, 69000, Note_off_c, 1, 54, 0
2, 69000, Note_on_c, 1, 62, 127
2, 69000, Note_off_c, 1, 66, 0
2, 69000, Note_off_c, 1, 78, 0
2, 69040, Note_off_c, 1, 28, 0
2, 69040, Note_off_c, 1, 33, 0
2, 69040, Note_off_c, 1, 35, 0
2, 69040, Note_on_c, 1, 41, 127
2, 69040, Note_off_c, 1, 62, 0
2, 69040, Note_on_c, 1, 63, 127
2, 69040, Note_on_c, 1, 65, 127
2, 69040, Note_on_c, 1, 69, 127
2, 69040, Note_on_c, 1, 74, 127
2, 69040, Note_on_c, 1, 77, 127
2, 69080, Note_off_c, 1, 41, 0
2, 69080, Note_off_c, 1, 63, 0
2, 69080, Note_off_c, 1, 69, 0
2, 69080, Note_on_c, 1, 73, 127
2, 69080, Note_off_c, 1, 74, 0
2, 69080, Note_on_c, 1, 89, 127
2, 69080, Note_on_c, 1, 92, 127
2, 69120, Note_on_c, 1, 39, 127
2, 69120, Note_off_c, 1, 65, 0
2, 69120, Note_off_c, 1, 73, 0
2, 69120, Note_on_c, 1, 75, 127
2, 69120, Note_off_c, 1, 77, 0
2, 69120, Note_on_c, 1, 81, 127
2, 69120, Note_on_c, 1, 87, 127
2, 69120, Note_off_c, 1, 89, 0
2, 69120, Note_off_c, 1, 92, 0
2, 69160, Note_off_c, 1, 39, 0
2, 69160, Note_on_c, 1, 51, 127
2, 69160, Note_on_c, 1, 63, 127
2, 69160, Note_on_c, 1, 66, 127
2, 69160, Note_on_c, 1, 69, 127
2, 69160, Note_off_c, 1, 75, 0
2, 69160, Note_off_c, 1, 81, 0
2, 69160, Note_off_c, 1, 87, 0
2, 69200, Note_on_c, 1, 33, 127
2, 69200, Note_on_c, 1, 42, 127
2, 69200, Note_off_c, 1, 51, 0
2, 69200, Note_off_c, 1, 63, 0
2, 69200, Note_off_c, 1, 66, 0
2, 69200, Note_off_c, 1, 69, 0
2, 69200, Note_on_c, 1, 81, 127
2, 69240, Note_off_c, 1, 33, 0
2, 69240, Note_off_c, 1, 42, 0
2, 69240, Note_on_c, 1, 59, 127
2, 69240, Note_on_c, 1, 63, 127
2, 69240, Note_on_c, 1, 67, 127
2, 69240, Note_on_c, 1, 71, 127
2, 69240, Note_on_c, 1, 75, 127
2, 69240, Note_off_c, 1, 81, 0
2, 69240, Note_on_c, 1, 82, 127
2, 69280, Note_on_c, 1, 55, 127
2, 69280, Note_off_c, 1, 59, 0
2, 69280, Note_off_c, 1, 63, 0
2, 69280, Note_on_c, 1, 64, 127
2, 69280, Note_off_c, 1, 71, 0
2, 69280, Note_off_c, 1, 75, 0
2, 69280, Note_off_c, 1, 82, 0
2, 69280, Note_on_c, 1, 83, 127
2, 69280, Note_on_c, 1, 86, 127
2, 69320, Note_on_c, 1, 41, 127
2, 69320, Note_on_c, 1, 53, 127
2, 69320, Note_off_c, 1, 55, 0
2, 69320, Note_on_c, 1, 62, 127
2, 69320, Note_off_c, 1, 64, 0
2, 69320, Note_off_c, 1, 67, 0
2, 69320, Note_on_c, 1, 68, 127
2, 69320, Note_on_c, 1, 71, 127
2, 69320, Note_on_c, 1, 74, 127
2, 69320, Note_off_c, 1, 83, 0
2, 69320, Note_off_c, 1, 86, 0
2, 69360, Note_off_c, 1, 41, 0
2, 69360, Note_on_c, 1, 44, 127
2, 69360, Note_off_c, 1, 53, 0
2, 69360, Note_on_c, 1, 56, 127
2, 69360, Note_off_c, 1, 62, 0
2, 69360, Note_off_c, 1, 68, 0
2, 69360, Note_off_c, 1, 71, 0
2, 69360, Note_off_c, 1, 74, 0
2, 69360, Note_on_c, 1, 86, 127
2, 69360, Note_on_c, 1, 90, 127
2, 69360, Note_on_c, 1, 98, 127
2, 69400, Note_on_c, 1, 38, 127
2, 69400, Note_on_c, 1, 43, 127
2, 69400, Note_off_c, 1, 44, 0
2, 69400, Note_on_c, 1, 50, 127
2, 69400, Note_off_c, 1, 56, 0
2, 69400, Note_on_c, 1, 61, 127
2, 69400, Note_on_c, 1, 67, 127
2, 69400, Note_on_c, 1, 73, 127
2, 69400, Note_off_c, 1, 86, 0
2, 69400, Note_off_c, 1, 90, 0
2, 69400, Note_off_c, 1, 98, 0
2, 69440, Note_off_c, 1, 43, 0
2, 69440, Note_off_c, 1, 61, 0
2, 69440, Note_off_c, 1, 67, 0
2, 69440, Note_off_c, 1, 73, 0
2, 69440, Note_on_c, 1, 77, 127
2, 69440, Note_on_c, 1, 82, 127
2, 69440, Note_on_c, 1, 86, 127
2, 69440, Note_on_c, 1, 89, 127
2, 69480, Note_off_c, 1, 38, 0
2, 69480, Note_off_c, 1, 50, 0
2, 69480, Note_off_c, 1, 77, 0
2, 69480, Note_off_c, 1, 82, 0
2, 69480, Note_off_c, 1, 86, 0
2, 69480, Note_off_c, 1, 89, 0
2, 69520, Note_on_c, 1, 35, 127
2, 69520, Note_on_c, 1, 66, 127
2, 69520, Note_on_c, 1, 69, 127
2, 69520, Note_on_c, 1, 71, 127
2, 69520, Note_on_c, 1, 75, 127
2, 69560, Note_off_c, 1, 35, 0
2, 69560, Note_on_c, 1, 48, 127
2, 69560, Note_on_c, 1, 56, 127
2, 69560, Note_on_c, 1, 62, 127
2, 69560, Note_off_c, 1, 66, 0
2, 69560, Note_off_c, 1, 69, 0
2, 69560, Note_off_c, 1, 71, 0
2, 69600, Note_on_c, 1, 41, 127
2, 69600, Note_off_c, 1, 48, 0
2, 69600, Note_on_c, 1, 53, 127
2, 69600, Note_off_c, 1, 56, 0
2, 69600, Note_off_c, 1, 62, 0
2, 69600, Note_on_c, 1, 65, 127
2, 69600, Note_on_c, 1, 70, 127
2, 69600, Note_off_c, 1, 75, 0
2, 69600, Note_on_c, 1, 82, 127
2, 69640, Note_off_c, 1, 41, 0
2, 69640, Note_off_c, 1, 53, 0
2, 69640, Note_on_c, 1, 63, 127
2, 69640, Note_off_c, 1, 65, 0
2, 69640, Note_on_c, 1, 66, 127
2, 69640, Note_on_c, 1, 69, 127
2, 69640, Note_off_c, 1, 70, 0
2, 69640, Note_on_c, 1, 71, 127
2, 69680, Note_off_c, 1, 63, 0
2, 69680, Note_off_c, 1, 66, 0
2, 69680, Note_on_c, 1, 67, 127
2, 69680, Note_off_c, 1, 69, 0
2, 69680, Note_on_c, 1, 76, 127
2, 69680, Note_on_c, 1, 78, 127
2, 69680, Note_off_c, 1, 82, 0
2, 69720, Note_on_c, 1, 41, 127
2, 69720, Note_on_c, 1, 53, 127
2, 69720, Note_on_c, 1, 65, 127
2, 69720, Note_off_c, 1, 67, 0
2, 69720, Note_on_c, 1, 70, 127
2, 69720, Note_off_c, 1, 71, 0
2, 69720, Note_off_c, 1, 76, 0
2, 69720, Note_off_c, 1, 78, 0
2, 69720, Note_on_c, 1, 82, 127
2, 70080, Note_off_c, 1, 41, 0
2, 70080, Note_off_c, 1, 53, 0
2, 70080, Note_on_c, 1, 62, 127
2, 70080, Note_on_c, 1, 68, 127
2, 70080, Note_off_c, 1, 70, 0
2, 70080, Note_on_c, 1, 72, 127
2, 70080, Note_on_c, 1, 74, 127
2, 70080, Note_on_c, 1, 77, 127
2, 70080, Note_on_c, 1, 80, 127
2, 70080, Note_off_c, 1, 82, 0
2, 70080, Note_on_c, 1, 84, 127
2, 70120, Note_on_c, 1, 46, 127
2, 70120, Note_on_c, 1, 49, 127
2, 70120, Note_off_c, 1, 62, 0
2, 70120, Note_off_c, 1, 68, 0
2, 70120, Note_off_c, 1, 72, 0
2, 70120, Note_on_c, 1, 73, 127
2, 70120, Note_off_c, 1, 74, 0
2, 70120, Note_off_c, 1, 77, 0
2, 70120, Note_off_c, 1, 80, 0
2, 70120, Note_off_c, 1, 84, 0
2, 70160, Note_off_c, 1, 46, 0
2, 70160, Note_off_c, 1, 49, 0
2, 70160, Note_on_c, 1, 59, 127
2, 70160, Note_on_c, 1, 68, 127
2, 70160, Note_off_c, 1, 73, 0
2, 70160, Note_on_c, 1, 74, 127
2, 70160, Note_on_c, 1, 79, 127
2, 70200, Note_off_c, 1, 59, 0
2, 70200, Note_off_c, 1, 65, 0
2, 70200, Note_off_c, 1, 68, 0
2, 70200, Note_off_c, 1, 74, 0
2, 70200, Note_off_c, 1, 79, 0
2, 70800, Note_on_c, 1, 37, 127
2, 70800, Note_on_c, 1, 44, 127
2, 70800, Note_on_c, 1, 49, 127
2, 70800, Note_on_c, 1, 53, 127
2, 70800, Note_on_c, 1, 56, 127
2, 70800, Note_on_c, 1, 61, 127
2, 70800, Note_on_c, 1, 65, 127
2, 71960, Note_off_c, 1, 37, 0
2, 71960, Note_off_c, 1, 44, 0
2, 71960, Note_off_c, 1, 49, 0
2, 71960, Note_off_c, 1, 53, 0
2, 71960, Note_off_c, 1, 56, 0
2, 71960, Note_off_c, 1, 61, 0
2, 71960, Note_off_c, 1, 65, 0
2, 72000, Note_on_c, 1, 37, 127
2, 72000, Note_on_c, 1, 44, 127
2, 72000, Note_on_c, 1, 49, 127
2, 72000, Note_on_c, 1, 53, 127
2, 72000, Note_on_c, 1, 56, 127
2, 72000, Note_on_c, 1, 61, 127
2, 72000, Note_on_c, 1, 65, 127
2, 72800, Note_off_c, 1, 37, 0
2, 72800, Note_off_c, 1, 44, 0
2, 72800, Note_off_c, 1, 49, 0
2, 72800, Note_off_c, 1, 53, 0
2, 72800, Note_off_c, 1, 56, 0
2, 72800, Note_off_c, 1, 61, 0
2, 72800, Note_off_c, 1, 65, 0
2, 72840, Note_on_c, 1, 37, 127
2, 72840, Note_on_c, 1, 44, 127
2, 72840, Note_on_c, 1, 49, 127
2, 72840, Note_on_c, 1, 53, 127
2, 72840, Note_on_c, 1, 56, 127
2, 72840, Note_on_c, 1, 61, 127
2, 72840, Note_on_c, 1, 65, 127
2, 73200, Note_off_c, 1, 37, 0
2, 73200, Note_off_c, 1, 44, 0
2, 73200, Note_off_c, 1, 49, 0
2, 73200, Note_off_c, 1, 53, 0
2, 73200, Note_off_c, 1, 56, 0
2, 73200, Note_off_c, 1, 61, 0
2, 73200, Note_off_c, 1, 65, 0
2, 73240, Note_on_c, 1, 38, 127
2, 73240, Note_on_c, 1, 46, 127
2, 73240, Note_on_c, 1, 60, 127
2, 73240, Note_on_c, 1, 64, 127
2, 73240, Note_on_c, 1, 72, 127
2, 73280, Note_off_c, 1, 38, 0
2, 73280, Note_off_c, 1, 46, 0
2, 73280, Note_off_c, 1, 60, 0
2, 73280, Note_on_c, 1, 61, 127
2, 73280, Note_off_c, 1, 64, 0
2, 73280, Note_on_c, 1, 66, 127
2, 73280, Note_off_c, 1, 72, 0
2, 73280, Note_on_c, 1, 78, 127
2, 73280, Note_on_c, 1, 80, 127
2, 73320, Note_off_c, 1, 61, 0
2, 73320, Note_on_c, 1, 62, 127
2, 73320, Note_off_c, 1, 66, 0
2, 73320, Note_on_c, 1, 71, 127
2, 73320, Note_off_c, 1, 78, 0
2, 73320, Note_off_c, 1, 80, 0
2, 73320, Note_on_c, 1, 95, 127
2, 73360, Note_on_c, 1, 42, 127
2, 73360, Note_off_c, 1, 62, 0
2, 73360, Note_on_c, 1, 78, 127
2, 73360, Note_on_c, 1, 83, 127
2, 73360, Note_off_c, 1, 95, 0
2, 73400, Note_off_c, 1, 42, 0
2, 73400, Note_on_c, 1, 59, 127
2, 73400, Note_off_c, 1, 71, 0
2, 73400, Note_off_c, 1, 78, 0
2, 73400, Note_on_c, 1, 82, 127
2, 73400, Note_off_c, 1, 83, 0
2, 73400, Note_on_c, 1, 85, 127
2, 73400, Note_on_c, 1, 88, 127
2, 73400, Note_on_c, 1, 94, 127
2, 73440, Note_on_c, 1, 31, 127
2, 73440, Note_on_c, 1, 43, 127
2, 73440, Note_on_c, 1, 58, 127
2, 73440, Note_off_c, 1, 59, 0
2, 73440, Note_on_c, 1, 61, 127
2, 73440, Note_off_c, 1, 82, 0
2, 73440, Note_off_c, 1, 85, 0
2, 73440, Note_off_c, 1, 88, 0
2, 73440, Note_off_c, 1, 94, 0
2, 73480, Note_off_c, 1, 31, 0
2, 73480, Note_off_c, 1, 43, 0
2, 73480, Note_on_c, 1, 51, 127
2, 73480, Note_on_c, 1, 56, 127
2, 73480, Note_off_c, 1, 58, 0
2, 73480, Note_on_c, 1, 65, 127
2, 73480, Note_on_c, 1, 72, 127
2, 73520, Note_off_c, 1, 51, 0
2, 73520, Note_on_c, 1, 53, 127
2, 73520, Note_off_c, 1, 56, 0
2, 73520, Note_off_c, 1, 61, 0
2, 73520, Note_on_c, 1, 62, 127
2, 73520, Note_on_c, 1, 69, 127
2, 73520, Note_on_c, 1, 77, 127
2, 73520, Note_on_c, 1, 81, 127
2, 73560, Note_on_c, 1, 40, 127
2, 73560, Note_off_c, 1, 53, 0
2, 73560, Note_off_c, 1, 62, 0
2, 73560, Note_off_c, 1, 65, 0
2, 73560, Note_on_c, 1, 66, 127
2, 73560, Note_off_c, 1, 72, 0
2, 73560, Note_on_c, 1, 73, 127
2, 73560, Note_on_c, 1, 76, 127
2, 73560, Note_off_c, 1, 77, 0
2, 73560, Note_off_c, 1, 81, 0
2, 73600, Note_off_c, 1, 40, 0
2, 73600, Note_on_c, 1, 61, 127
2, 73600, Note_off_c, 1, 69, 0
2, 73600, Note_off_c, 1, 73, 0
2, 73600, Note_off_c, 1, 76, 0
2, 73600, Note_on_c, 1, 78, 127
2, 73600, Note_on_c, 1, 80, 127
2, 73640, Note_on_c, 1, 40, 127
2, 73640, Note_on_c, 1, 52, 127
2, 73640, Note_on_c, 1, 59, 127
2, 73640, Note_off_c, 1, 61, 0
2, 73640, Note_off_c, 1, 66, 0
2, 73640, Note_off_c, 1, 78, 0
2, 73640, Note_on_c, 1, 84, 127
2, 73640, Note_on_c, 1, 96, 127
2, 73680, Note_off_c, 1, 40, 0
2, 73680, Note_off_c, 1, 52, 0
2, 73680, Note_off_c, 1, 59, 0
2, 73680, Note_on_c, 1, 61, 127
2, 73680, Note_on_c, 1, 66, 127
2, 73680, Note_on_c, 1, 78, 127
2, 73680, Note_off_c, 1, 84, 0
2, 73680, Note_off_c, 1, 96, 0
2, 73800, Note_on_c, 1, 53, 127
2, 73800, Note_on_c, 1, 55, 127
2, 73800, Note_on_c, 1, 57, 127
2, 73800, Note_off_c, 1, 61, 0
2, 73800, Note_on_c, 1, 63, 127
2, 73800, Note_off_c, 1, 66, 0
2, 73800, Note_off_c, 1, 78, 0
2, 73800, Note_off_c, 1, 80, 0
2, 73840, Note_on_c, 1, 48, 127
2, 73840, Note_on_c, 1, 52, 127
2, 73840, Note_off_c, 1, 53, 0
2, 73840, Note_off_c, 1, 57, 0
2, 73840, Note_on_c, 1, 58, 127
2, 73840, Note_on_c, 1, 60, 127
2, 73840, Note_off_c, 1, 63, 0
2, 73840, Note_on_c, 1, 64, 127
2, 73840, Note_on_c, 1, 67, 127
2, 73840, Note_on_c, 1, 70, 127
2, 73840, Note_on_c, 1, 72, 127
2, 74400, Note_off_c, 1, 48, 0
2, 74400, Note_off_c, 1, 52, 0
2, 74400, Note_off_c, 1, 55, 0
2, 74400, Note_off_c, 1, 58, 0
2, 74400, Note_off_c, 1, 60, 0
2, 74400, Note_off_c, 1, 64, 0
2, 74400, Note_off_c, 1, 67, 0
2, 74400, Note_off_c, 1, 70, 0
2, 74400, Note_off_c, 1, 72, 0
2, 74440, Note_on_c, 1, 61, 127
2, 74440, Note_on_c, 1, 67, 127
2, 74440, Note_on_c, 1, 69, 127
2, 74440, Note_on_c, 1, 73, 127
2, 74440, Note_on_c, 1, 78, 127
2, 74440, Note_on_c, 1, 81, 127
2, 74480, Note_off_c, 1, 61, 0
2, 74480, Note_off_c, 1, 67, 0
2, 74480, Note_on_c, 1, 68, 127
2, 74480, Note_off_c, 1, 69, 0
2, 74480, Note_on_c, 1, 71, 127
2, 74480, Note_off_c, 1, 73, 0
2, 74480, Note_off_c, 1, 78, 0
2, 74480, Note_off_c, 1, 81, 0
2, 74480, Note_on_c, 1, 82, 127
2, 74480, Note_on_c, 1, 94, 127
2, 74480, Note_on_c, 1, 97, 127
2, 74520, Note_on_c, 1, 33, 127
2, 74520, Note_on_c, 1, 52, 127
2, 74520, Note_off_c, 1, 68, 0
2, 74520, Note_off_c, 1, 71, 0
2, 74520, Note_on_c, 1, 79, 127
2, 74520, Note_on_c, 1, 88, 127
2, 74520, Note_off_c, 1, 94, 0
2, 74520, Note_off_c, 1, 97, 0
2, 74560, Note_off_c, 1, 33, 0
2, 74560, Note_on_c, 1, 45, 127
2, 74560, Note_on_c, 1, 49, 127
2, 74560, Note_on_c, 1, 57, 127
2, 74560, Note_on_c, 1, 74, 127
2, 74560, Note_off_c, 1, 79, 0
2, 74560, Note_off_c, 1, 82, 0
2, 74560, Note_off_c, 1, 88, 0
2, 74600, Note_on_c, 1, 43, 127
2, 74600, Note_off_c, 1, 45, 0
2, 74600, Note_off_c, 1, 49, 0
2, 74600, Note_on_c, 1, 50, 127
2, 74600, Note_off_c, 1, 52, 0
2, 74600, Note_on_c, 1, 55, 127
2, 74600, Note_off_c, 1, 57, 0
2, 74600, Note_on_c, 1, 59, 127
2, 74600, Note_off_c, 1, 74, 0
2, 74600, Note_on_c, 1, 95, 127
2, 74640, Note_off_c, 1, 43, 0
2, 74640, Note_off_c, 1, 50, 0
2, 74640, Note_off_c, 1, 55, 0
2, 74640, Note_off_c, 1, 59, 0
2, 74640, Note_on_c, 1, 68, 127
2, 74640, Note_on_c, 1, 71, 127
2, 74640, Note_on_c, 1, 82, 127
2, 74640, Note_on_c, 1, 94, 127
2, 74640, Note_off_c, 1, 95, 0
2, 74640, Note_on_c, 1, 97, 127
2, 74680, Note_on_c, 1, 54, 127
2, 74680, Note_on_c, 1, 65, 127
2, 74680, Note_off_c, 1, 68, 0
2, 74680, Note_on_c, 1, 70, 127
2, 74680, Note_off_c, 1, 71, 0
2, 74680, Note_on_c, 1, 74, 127
2, 74680, Note_on_c, 1, 77, 127
2, 74680, Note_off_c, 1, 82, 0
2, 74680, Note_off_c, 1, 94, 0
2, 74680, Note_off_c, 1, 97, 0
2, 74720, Note_off_c, 1, 54, 0
2, 74720, Note_on_c, 1, 55, 127
2, 74720, Note_on_c, 1, 58, 127
2, 74720, Note_on_c, 1, 62, 127
2, 74720, Note_off_c, 1, 65, 0
2, 74720, Note_on_c, 1, 67, 127
2, 74720, Note_off_c, 1, 74, 0
2, 74720, Note_off_c, 1, 77, 0
2, 74760, Note_off_c, 1, 55, 0
2, 74760, Note_off_c, 1, 58, 0
2, 74760, Note_off_c, 1, 62, 0
2, 74760, Note_off_c, 1, 67, 0
2, 74760, Note_off_c, 1, 70, 0
2, 74800, Note_on_c, 1, 64, 127
2, 74800, Note_on_c, 1, 86, 127
2, 74800, Note_on_c, 1, 87, 127
2, 74800, Note_on_c, 1, 89, 127
2, 74800, Note_on_c, 1, 90, 127
2, 74840, Note_on_c, 1, 51, 127
2, 74840, Note_on_c, 1, 55, 127
2, 74840, Note_on_c, 1, 60, 127
2, 74840, Note_off_c, 1, 64, 0
2, 74840, Note_on_c, 1, 74, 127
2, 74840, Note_on_c, 1, 75, 127
2, 74840, Note_off_c, 1, 86, 0
2, 74840, Note_off_c, 1, 87, 0
2, 74840, Note_off_c, 1, 89, 0
2, 74840, Note_off_c, 1, 90, 0
2, 74880, Note_off_c, 1, 51, 0
2, 74880, Note_on_c, 1, 52, 127
2, 74880, Note_off_c, 1, 55, 0
2, 74880, Note_off_c, 1, 60, 0
2, 74880, Note_on_c, 1, 72, 127
2, 74880, Note_off_c, 1, 74, 0
2, 74880, Note_off_c, 1, 75, 0
2, 74880, Note_on_c, 1, 82, 127
2, 74920, Note_on_c, 1, 28, 127
2, 74920, Note_on_c, 1, 39, 127
2, 74920, Note_on_c, 1, 40, 127
2, 74920, Note_on_c, 1, 47, 127
2, 74920, Note_on_c, 1, 51, 127
2, 74920, Note_on_c, 1, 59, 127
2, 74920, Note_on_c, 1, 68, 127
2, 74920, Note_on_c, 1, 71, 127
2, 74920, Note_off_c, 1, 72, 0
2, 74920, Note_off_c, 1, 82, 0
2, 74960, Note_off_c, 1, 28, 0
2, 74960, Note_off_c, 1, 39, 0
2, 74960, Note_off_c, 1, 40, 0
2, 74960, Note_off_c, 1, 47, 0
2, 74960, Note_on_c, 1, 48, 127
2, 74960, Note_off_c, 1, 51, 0
2, 74960, Note_off_c, 1, 52, 0
2, 74960, Note_off_c, 1, 59, 0
2, 74960, Note_off_c, 1, 68, 0
2, 74960, Note_off_c, 1, 71, 0
2, 74960, Note_on_c, 1, 103, 127
2, 75000, Note_on_c, 1, 42, 127
2, 75000, Note_on_c, 1, 46, 127
2, 75000, Note_off_c, 1, 48, 0
2, 75000, Note_on_c, 1, 57, 127
2, 75000, Note_on_c, 1, 63, 127
2, 75000, Note_off_c, 1, 103, 0
2, 75040, Note_off_c, 1, 42, 0
2, 75040, Note_off_c, 1, 46, 0
2, 75040, Note_off_c, 1, 57, 0
2, 75040, Note_off_c, 1, 63, 0
2, 75040, Note_on_c, 1, 67, 127
2, 75040, Note_on_c, 1, 72, 127
2, 75040, Note_on_c, 1, 76, 127
2, 75040, Note_on_c, 1, 79, 127
2, 75080, Note_on_c, 1, 29, 127
2, 75080, Note_on_c, 1, 41, 127
2, 75080, Note_on_c, 1, 48, 127
2, 75080, Note_off_c, 1, 67, 0
2, 75080, Note_off_c, 1, 76, 0
2, 75080, Note_on_c, 1, 77, 127
2, 75080, Note_off_c, 1, 79, 0
2, 75120, Note_off_c, 1, 29, 0
2, 75120, Note_off_c, 1, 48, 0
2, 75120, Note_on_c, 1, 68, 127
2, 75120, Note_on_c, 1, 71, 127
2, 75120, Note_off_c, 1, 72, 0
2, 75120, Note_on_c, 1, 75, 127
2, 75120, Note_off_c, 1, 77, 0
2, 75160, Note_on_c, 1, 29, 127
2, 75160, Note_on_c, 1, 43, 127
2, 75160, Note_on_c, 1, 48, 127
2, 75160, Note_on_c, 1, 55, 127
2, 75160, Note_on_c, 1, 67, 127
2, 75160, Note_off_c, 1, 68, 0
2, 75160, Note_off_c, 1, 71, 0
2, 75160, Note_on_c, 1, 72, 127
2, 75160, Note_off_c, 1, 75, 0
2, 75160, Note_on_c, 1, 77, 127
2, 75160, Note_on_c, 1, 79, 127
2, 75280, Note_off_c, 1, 29, 0
2, 75280, Note_off_c, 1, 41, 0
2, 75280, Note_off_c, 1, 43, 0
2, 75280, Note_off_c, 1, 48, 0
2, 75280, Note_off_c, 1, 55, 0
2, 75280, Note_on_c, 1, 62, 127
2, 75280, Note_on_c, 1, 65, 127
2, 75280, Note_off_c, 1, 67, 0
2, 75280, Note_on_c, 1, 70, 127
2, 75280, Note_off_c, 1, 72, 0
2, 75280, Note_off_c, 1, 79, 0
2, 75280, Note_on_c, 1, 89, 127
2, 75320, Note_on_c, 1, 29, 127
2, 75320, Note_on_c, 1, 41, 127
2, 75320, Note_on_c, 1, 43, 127
2, 75320, Note_on_c, 1, 48, 127
2, 75320, Note_on_c, 1, 55, 127
2, 75320, Note_off_c, 1, 62, 0
2, 75320, Note_off_c, 1, 65, 0
2, 75320, Note_on_c, 1, 67, 127
2, 75320, Note_off_c, 1, 70, 0
2, 75320, Note_on_c, 1, 72, 127
2, 75320, Note_on_c, 1, 79, 127
2, 75320, Note_off_c, 1, 89, 0
2, 75640, Note_off_c, 1, 29, 0
2, 75640, Note_off_c, 1, 41, 0
2, 75640, Note_off_c, 1, 43, 0
2, 75640, Note_off_c, 1, 48, 0
2, 75640, Note_off_c, 1, 55, 0
2, 75640, Note_off_c, 1, 67, 0
2, 75640, Note_off_c, 1, 72, 0
2, 75640, Note_off_c, 1, 77, 0
2, 75640, Note_off_c, 1, 79, 0
2, 75680, Note_on_c, 1, 44, 127
2, 75680, Note_on_c, 1, 49, 127
2, 75680, Note_on_c, 1, 52, 127
2, 75920, Note_off_c, 1, 44, 0
2, 75920, Note_off_c, 1, 49, 0
2, 75920, Note_off_c, 1, 52, 0
2, 75960, Note_on_c, 1, 49, 127
2, 75960, Note_on_c, 1, 53, 127
2, 75960, Note_on_c, 1, 56, 127
2, 76560, Note_off_c, 1, 49, 0
2, 76560, Note_off_c, 1, 53, 0
2, 76560, Note_off_c, 1, 56, 0
2, 76600, Note_on_c, 1, 49, 127
2, 76600, Note_on_c, 1, 53, 127
2, 76600, Note_on_c, 1, 56, 127
2, 76880, Note_off_c, 1, 49, 0
2, 76880, Note_off_c, 1, 53, 0
2, 76880, Note_off_c, 1, 56, 0
2, 76920, Note_on_c, 1, 49, 127
2, 76920, Note_on_c, 1, 53, 127
2, 76920, Note_on_c, 1, 56, 127
2, 76920, Note_on_c, 1, 61, 127
2, 78040, Note_off_c, 1, 49, 0
2, 78040, Note_off_c, 1, 53, 0
2, 78040, Note_off_c, 1, 56, 0
2, 78040, Note_off_c, 1, 61, 0
2, 78120, Note_on_c, 1, 34, 127
2, 78120, Note_on_c, 1, 46, 127
2, 78120, Note_on_c, 1, 58, 127
2, 78520, Note_off_c, 1, 34, 0
2, 78520, Note_off_c, 1, 46, 0
2, 78520, Note_off_c, 1, 58, 0
2, 78560, Note_on_c, 1, 34, 127
2, 78560, Note_on_c, 1, 46, 127
2, 78560, Note_on_c, 1, 58, 127
2, 79320, Note_off_c, 1, 34, 0
2, 79320, Note_off_c, 1, 46, 0
2, 79320, Note_off_c, 1, 58, 0
2, 79360, Note_on_c, 1, 34, 127
2, 79360, Note_on_c, 1, 46, 127
2, 79360, Note_on_c, 1, 58, 127
2, 80520, Note_off_c, 1, 34, 0
2, 80520, Note_off_c, 1, 46, 0
2, 80520, Note_off_c, 1, 58, 0
2, 80560, Note_on_c, 1, 35, 127
2, 80560, Note_on_c, 1, 47, 127
2, 80560, Note_on_c, 1, 59, 127
2, 80560, Note_on_c, 1, 71, 127
2, 80760, Note_off_c, 1, 35, 0
2, 80760, Note_off_c, 1, 47, 0
2, 80760, Note_off_c, 1, 59, 0
2, 80760, Note_off_c, 1, 71, 0
2, 80800, Note_on_c, 1, 35, 127
2, 80800, Note_on_c, 1, 47, 127
2, 80800, Note_on_c, 1, 59, 127
2, 80800, Note_on_c, 1, 71, 127
2, 81160, Note_off_c, 1, 35, 0
2, 81160, Note_off_c, 1, 47, 0
2, 81160, Note_off_c, 1, 59, 0
2, 81160, Note_off_c, 1, 71, 0
2, 81200, Note_on_c, 1, 44, 127
2, 81200, Note_on_c, 1, 56, 127
2, 81200, Note_on_c, 1, 60, 127
2, 81200, Note_on_c, 1, 63, 127
2, 81200, Note_on_c, 1, 68, 127
2, 81200, Note_on_c, 1, 72, 127
2, 81200, Note_on_c, 1, 75, 127
2, 81200, Note_on_c, 1, 80, 127
2, 81240, Note_off_c, 1, 44, 0
2, 81240, Note_on_c, 1, 48, 127
2, 81240, Note_on_c, 1, 51, 127
2, 81240, Note_off_c, 1, 56, 0
2, 81240, Note_on_c, 1, 67, 127
2, 81240, Note_off_c, 1, 68, 0
2, 81240, Note_off_c, 1, 72, 0
2, 81240, Note_off_c, 1, 75, 0
2, 81240, Note_off_c, 1, 80, 0
2, 81280, Note_off_c, 1, 51, 0
2, 81280, Note_on_c, 1, 56, 127
2, 81280, Note_off_c, 1, 60, 0
2, 81280, Note_off_c, 1, 63, 0
2, 81280, Note_off_c, 1, 67, 0
2, 81280, Note_on_c, 1, 68, 127
2, 81280, Note_on_c, 1, 75, 127
2, 81320, Note_on_c, 1, 51, 127
2, 81320, Note_off_c, 1, 56, 0
2, 81320, Note_on_c, 1, 60, 127
2, 81320, Note_on_c, 1, 63, 127
2, 81320, Note_on_c, 1, 67, 127
2, 81320, Note_off_c, 1, 68, 0
2, 81320, Note_off_c, 1, 75, 0
2, 81360, Note_on_c, 1, 43, 127
2, 81360, Note_off_c, 1, 48, 0
2, 81360, Note_off_c, 1, 60, 0
2, 81360, Note_off_c, 1, 63, 0
2, 81360, Note_off_c, 1, 67, 0
2, 81360, Note_on_c, 1, 73, 127
2, 81360, Note_on_c, 1, 82, 127
2, 81400, Note_off_c, 1, 43, 0
2, 81400, Note_on_c, 1, 48, 127
2, 81400, Note_off_c, 1, 51, 0
2, 81400, Note_on_c, 1, 57, 127
2, 81400, Note_on_c, 1, 60, 127
2, 81400, Note_on_c, 1, 72, 127
2, 81400, Note_off_c, 1, 73, 0
2, 81400, Note_on_c, 1, 77, 127
2, 81400, Note_off_c, 1, 82, 0
2, 81400, Note_on_c, 1, 84, 127
2, 81440, Note_off_c, 1, 48, 0
2, 81440, Note_on_c, 1, 49, 127
2, 81440, Note_on_c, 1, 54, 127
2, 81440, Note_off_c, 1, 57, 0
2, 81440, Note_on_c, 1, 59, 127
2, 81440, Note_off_c, 1, 60, 0
2, 81440, Note_on_c, 1, 61, 127
2, 81440, Note_on_c, 1, 68, 127
2, 81440, Note_off_c, 1, 72, 0
2, 81440, Note_off_c, 1, 77, 0
2, 81440, Note_off_c, 1, 84, 0
2, 81480, Note_off_c, 1, 49, 0
2, 81480, Note_off_c, 1, 54, 0
2, 81480, Note_off_c, 1, 59, 0
2, 81480, Note_off_c, 1, 61, 0
2, 81480, Note_off_c, 1, 68, 0
2, 81520, Note_on_c, 1, 49, 127
2, 81520, Note_on_c, 1, 53, 127
2, 81520, Note_on_c, 1, 56, 127
2, 81520, Note_on_c, 1, 61, 127
2, 81520, Note_on_c, 1, 73, 127
2, 81520, Note_on_c, 1, 77, 127
2, 81520, Note_on_c, 1, 80, 127
2, 81520, Note_on_c, 1, 85, 127
2, 81560, Note_off_c, 1, 49, 0
2, 81560, Note_off_c, 1, 53, 0
2, 81560, Note_off_c, 1, 56, 0
2, 81560, Note_off_c, 1, 61, 0
2, 81560, Note_off_c, 1, 73, 0
2, 81560, Note_off_c, 1, 77, 0
2, 81560, Note_off_c, 1, 80, 0
2, 81560, Note_off_c, 1, 85, 0
2, 81600, Note_on_c, 1, 50, 127
2, 81600, Note_on_c, 1, 62, 127
2, 81600, Note_on_c, 1, 74, 127
2, 81600, Note_on_c, 1, 86, 127
2, 81640, Note_off_c, 1, 50, 0
2, 81640, Note_off_c, 1, 62, 0
2, 81640, Note_off_c, 1, 74, 0
2, 81640, Note_off_c, 1, 86, 0
2, 81680, Note_on_c, 1, 50, 127
2, 81680, Note_on_c, 1, 62, 127
2, 81680, Note_on_c, 1, 74, 127
2, 81680, Note_on_c, 1, 86, 127
2, 81760, Note_off_c, 1, 50, 0
2, 81760, Note_off_c, 1, 62, 0
2, 81760, Note_off_c, 1, 74, 0
2, 81760, Note_off_c, 1, 86, 0
2, 81800, Note_on_c, 1, 51, 127
2, 81800, Note_on_c, 1, 63, 127
2, 81800, Note_on_c, 1, 75, 127
2, 81800, Note_on_c, 1, 87, 127
2, 82160, Note_off_c, 1, 51, 0
2, 82160, Note_off_c, 1, 63, 0
2, 82160, Note_off_c, 1, 75, 0
2, 82160, Note_off_c, 1, 87, 0
2, 82240, Note_on_c, 1, 46, 127
2, 82240, Note_on_c, 1, 58, 127
2, 82240, Note_on_c, 1, 70, 127
2, 82240, Note_on_c, 1, 82, 127
2, 82320, Note_off_c, 1, 46, 0
2, 82320, Note_off_c, 1, 58, 0
2, 82320, Note_off_c, 1, 70, 0
2, 82320, Note_off_c, 1, 82, 0
2, 82360, Note_on_c, 1, 46, 127
2, 82360, Note_on_c, 1, 70, 127
2, 82800, Note_off_c, 1, 46, 0
2, 82800, Note_off_c, 1, 70, 0
2, 82840, Note_on_c, 1, 46, 127
2, 82840, Note_on_c, 1, 70, 127
2, 83000, Note_off_c, 1, 46, 0
2, 83000, Note_off_c, 1, 70, 0
2, 83040, Note_on_c, 1, 46, 127
2, 83040, Note_on_c, 1, 70, 127
2, 83280, Note_off_c, 1, 46, 0
2, 83280, Note_off_c, 1, 70, 0
2, 83320, Note_on_c, 1, 46, 127
2, 83320, Note_on_c, 1, 70, 127
2, 83600, Note_off_c, 1, 46, 0
2, 83600, Note_off_c, 1, 70, 0
2, 83640, Note_on_c, 1, 59, 127
2, 83640, Note_on_c, 1, 61, 127
2, 83640, Note_on_c, 1, 65, 127
2, 83640, Note_on_c, 1, 68, 127
2, 84200, Note_off_c, 1, 59, 0
2, 84200, Note_off_c, 1, 61, 0
2, 84200, Note_off_c, 1, 65, 0
2, 84200, Note_off_c, 1, 68, 0
2, 84240, Note_on_c, 1, 58, 127
2, 84240, Note_on_c, 1, 63, 127
2, 84240, Note_on_c, 1, 65, 127
2, 84240, Note_on_c, 1, 70, 127
2, 84800, Note_on_c, 1, 54, 127
2, 84800, Note_off_c, 1, 58, 0
2, 84800, Note_off_c, 1, 63, 0
2, 84800, Note_off_c, 1, 65, 0
2, 84840, Note_off_c, 1, 54, 0
2, 84840, Note_off_c, 1, 70, 0
2, 84880, Note_on_c, 1, 58, 127
2, 84880, Note_on_c, 1, 63, 127
2, 84880, Note_on_c, 1, 65, 127
2, 84880, Note_on_c, 1, 70, 127
2, 85440, Note_off_c, 1, 58, 0
2, 85440, Note_off_c, 1, 63, 0
2, 85440, Note_off_c, 1, 65, 0
2, 85440, Note_off_c, 1, 70, 0
2, 85480, Note_on_c, 1, 60, 127
2, 85480, Note_on_c, 1, 67, 127
2, 85480, Note_on_c, 1, 73, 127
2, 85480, Note_on_c, 1, 75, 127
2, 85520, Note_off_c, 1, 60, 0
2, 85520, Note_off_c, 1, 75, 0
2, 85520, Note_on_c, 1, 77, 127
2, 86640, Note_off_c, 1, 67, 0
2, 86640, Note_off_c, 1, 73, 0
2, 86640, Note_off_c, 1, 77, 0
2, 86680, Note_on_c, 1, 60, 127
2, 86680, Note_on_c, 1, 63, 127
2, 86680, Note_on_c, 1, 68, 127
2, 86680, Note_on_c, 1, 75, 127
2, 86680, Note_on_c, 1, 80, 127
2, 86880, Note_off_c, 1, 60, 0
2, 86880, Note_off_c, 1, 63, 0
2, 86880, Note_off_c, 1, 68, 0
2, 86880, Note_off_c, 1, 75, 0
2, 86880, Note_off_c, 1, 80, 0
2, 86920, Note_on_c, 1, 60, 127
2, 86920, Note_on_c, 1, 63, 127
2, 86920, Note_on_c, 1, 68, 127
2, 86920, Note_on_c, 1, 75, 127
2, 86920, Note_on_c, 1, 80, 127
2, 87240, Note_off_c, 1, 60, 0
2, 87240, Note_off_c, 1, 68, 0
2, 87240, Note_off_c, 1, 75, 0
2, 87240, Note_off_c, 1, 80, 0
2, 87280, Note_off_c, 1, 63, 0
2, 87320, Note_on_c, 1, 63, 127
2, 87320, Note_on_c, 1, 80, 127
2, 87320, Note_on_c, 1, 89, 127
2, 87880, Note_off_c, 1, 63, 0
2, 87880, Note_off_c, 1, 80, 0
2, 87880, Note_off_c, 1, 89, 0
2, 87920, Note_on_c, 1, 52, 127
2, 87920, Note_on_c, 1, 70, 127
2, 87920, Note_on_c, 1, 73, 127
2, 87920, Note_on_c, 1, 79, 127
2, 88480, Note_off_c, 1, 52, 0
2, 88480, Note_off_c, 1, 79, 0
2, 88520, Note_on_c, 1, 64, 127
2, 88520, Note_off_c, 1, 70, 0
2, 88520, Note_on_c, 1, 75, 127
2, 88560, Note_on_c, 1, 63, 127
2, 88560, Note_off_c, 1, 64, 0
2, 88560, Note_off_c, 1, 75, 0
2, 88560, Note_on_c, 1, 88, 127
2, 88600, Note_on_c, 1, 51, 127
2, 88600, Note_off_c, 1, 73, 0
2, 88600, Note_on_c, 1, 76, 127
2, 88600, Note_off_c, 1, 88, 0
2, 88640, Note_off_c, 1, 51, 0
2, 88640, Note_off_c, 1, 63, 0
2, 88640, Note_on_c, 1, 64, 127
2, 88640, Note_on_c, 1, 75, 127
2, 88640, Note_off_c, 1, 76, 0
2, 88680, Note_off_c, 1, 64, 0
2, 88680, Note_on_c, 1, 73, 127
2, 88680, Note_off_c, 1, 75, 0
2, 88680, Note_on_c, 1, 87, 127
2, 88720, Note_on_c, 1, 75, 127
2, 88720, Note_off_c, 1, 87, 0
2, 89040, Note_off_c, 1, 75, 0
2, 89080, Note_off_c, 1, 73, 0
2, 89160, Note_on_c, 1, 65, 127
2, 89160, Note_on_c, 1, 68, 127
2, 89160, Note_on_c, 1, 83, 127
2, 89160, Note_on_c, 1, 84, 127
2, 89200, Note_on_c, 1, 55, 127
2, 89200, Note_on_c, 1, 58, 127
2, 89200, Note_on_c, 1, 64, 127
2, 89200, Note_off_c, 1, 65, 0
2, 89200, Note_off_c, 1, 68, 0
2, 89200, Note_on_c, 1, 81, 127
2, 89200, Note_off_c, 1, 83, 0
2, 89200, Note_off_c, 1, 84, 0
2, 89200, Note_on_c, 1, 88, 127
2, 89240, Note_off_c, 1, 55, 0
2, 89240, Note_off_c, 1, 58, 0
2, 89240, Note_off_c, 1, 64, 0
2, 89240, Note_on_c, 1, 67, 127
2, 89240, Note_on_c, 1, 70, 127
2, 89240, Note_on_c, 1, 73, 127
2, 89240, Note_on_c, 1, 79, 127
2, 89240, Note_off_c, 1, 81, 0
2, 89240, Note_on_c, 1, 82, 127
2, 89240, Note_on_c, 1, 85, 127
2, 89280, Note_on_c, 1, 39, 127
2, 89280, Note_off_c, 1, 67, 0
2, 89280, Note_off_c, 1, 70, 0
2, 89280, Note_on_c, 1, 76, 127
2, 89280, Note_off_c, 1, 79, 0
2, 89280, Note_off_c, 1, 82, 0
2, 89280, Note_off_c, 1, 85, 0
2, 89280, Note_off_c, 1, 88, 0
2, 89320, Note_off_c, 1, 39, 0
2, 89320, Note_on_c, 1, 61, 127
2, 89320, Note_on_c, 1, 63, 127
2, 89320, Note_on_c, 1, 68, 127
2, 89320, Note_on_c, 1, 72, 127
2, 89320, Note_off_c, 1, 73, 0
2, 89320, Note_off_c, 1, 76, 0
2, 89320, Note_on_c, 1, 80, 127
2, 89360, Note_on_c, 1, 49, 127
2, 89360, Note_on_c, 1, 55, 127
2, 89360, Note_on_c, 1, 59, 127
2, 89360, Note_off_c, 1, 61, 0
2, 89360, Note_off_c, 1, 63, 0
2, 89360, Note_on_c, 1, 67, 127
2, 89360, Note_off_c, 1, 68, 0
2, 89360, Note_off_c, 1, 72, 0
2, 89360, Note_on_c, 1, 78, 127
2, 89360, Note_on_c, 1, 79, 127
2, 89360, Note_off_c, 1, 80, 0
2, 89400, Note_off_c, 1, 49, 0
2, 89400, Note_off_c, 1, 55, 0
2, 89400, Note_off_c, 1, 59, 0
2, 89400, Note_on_c, 1, 61, 127
2, 89400, Note_on_c, 1, 64, 127
2, 89400, Note_off_c, 1, 67, 0
2, 89400, Note_on_c, 1, 71, 127
2, 89400, Note_off_c, 1, 78, 0
2, 89440, Note_on_c, 1, 38, 127
2, 89440, Note_on_c, 1, 42, 127
2, 89440, Note_on_c, 1, 50, 127
2, 89440, Note_off_c, 1, 61, 0
2, 89440, Note_off_c, 1, 64, 0
2, 89440, Note_off_c, 1, 71, 0
2, 89440, Note_on_c, 1, 78, 127
2, 89440, Note_off_c, 1, 79, 0
2, 89440, Note_on_c, 1, 90, 127
2, 89480, Note_off_c, 1, 38, 0
2, 89480, Note_off_c, 1, 42, 0
2, 89480, Note_on_c, 1, 43, 127
2, 89480, Note_on_c, 1, 49, 127
2, 89480, Note_off_c, 1, 50, 0
2, 89480, Note_on_c, 1, 52, 127
2, 89480, Note_on_c, 1, 55, 127
2, 89480, Note_off_c, 1, 78, 0
2, 89480, Note_on_c, 1, 88, 127
2, 89480, Note_off_c, 1, 90, 0
2, 89480, Note_on_c, 1, 93, 127
2, 89520, Note_off_c, 1, 43, 0
2, 89520, Note_off_c, 1, 49, 0
2, 89520, Note_off_c, 1, 52, 0
2, 89520, Note_off_c, 1, 55, 0
2, 89520, Note_on_c, 1, 60, 127
2, 89520, Note_on_c, 1, 61, 127
2, 89520, Note_on_c, 1, 73, 127
2, 89520, Note_on_c, 1, 77, 127
2, 89520, Note_off_c, 1, 88, 0
2, 89520, Note_off_c, 1, 93, 0
2, 89560, Note_on_c, 1, 34, 127
2, 89560, Note_on_c, 1, 46, 127
2, 89560, Note_off_c, 1, 60, 0
2, 89560, Note_off_c, 1, 61, 0
2, 89560, Note_off_c, 1, 73, 0
2, 89560, Note_on_c, 1, 76, 127
2, 89560, Note_off_c, 1, 77, 0
2, 89560, Note_on_c, 1, 83, 127
2, 89560, Note_on_c, 1, 88, 127
2, 89600, Note_off_c, 1, 34, 0
2, 89600, Note_off_c, 1, 46, 0
2, 89600, Note_on_c, 1, 63, 127
2, 89600, Note_on_c, 1, 75, 127
2, 89600, Note_off_c, 1, 76, 0
2, 89600, Note_off_c, 1, 83, 0
2, 89600, Note_off_c, 1, 88, 0
2, 89600, Note_on_c, 1, 95, 127
2, 89640, Note_on_c, 1, 58, 127
2, 89640, Note_on_c, 1, 68, 127
2, 89640, Note_on_c, 1, 85, 127
2, 89640, Note_off_c, 1, 95, 0
2, 89680, Note_on_c, 1, 55, 127
2, 89680, Note_off_c, 1, 58, 0
2, 89680, Note_off_c, 1, 63, 0
2, 89680, Note_off_c, 1, 68, 0
2, 89680, Note_on_c, 1, 72, 127
2, 89680, Note_off_c, 1, 75, 0
2, 89680, Note_on_c, 1, 82, 127
2, 89680, Note_off_c, 1, 85, 0
2, 89720, Note_off_c, 1, 55, 0
2, 89720, Note_on_c, 1, 68, 127
2, 89720, Note_off_c, 1, 72, 0
2, 89720, Note_on_c, 1, 73, 127
2, 89720, Note_on_c, 1, 77, 127
2, 89720, Note_on_c, 1, 80, 127
2, 89720, Note_off_c, 1, 82, 0
2, 89760, Note_on_c, 1, 59, 127
2, 89760, Note_on_c, 1, 62, 127
2, 89760, Note_on_c, 1, 66, 127
2, 89760, Note_off_c, 1, 68, 0
2, 89760, Note_off_c, 1, 73, 0
2, 89760, Note_off_c, 1, 77, 0
2, 89760, Note_on_c, 1, 78, 127
2, 89760, Note_off_c, 1, 80, 0
2, 89760, Note_on_c, 1, 85, 127
2, 89800, Note_off_c, 1, 59, 0
2, 89800, Note_off_c, 1, 62, 0
2, 89800, Note_on_c, 1, 64, 127
2, 89800, Note_off_c, 1, 66, 0
2, 89800, Note_on_c, 1, 76, 127
2, 89800, Note_off_c, 1, 78, 0
2, 89800, Note_on_c, 1, 80, 127
2, 89800, Note_off_c, 1, 85, 0
2, 89800, Note_on_c, 1, 88, 127
2, 89840, Note_off_c, 1, 64, 0
2, 89840, Note_on_c, 1, 69, 127
2, 89840, Note_on_c, 1, 73, 127
2, 89840, Note_off_c, 1, 76, 0
2, 89840, Note_off_c, 1, 80, 0
2, 89840, Note_off_c, 1, 88, 0
2, 89840, Note_on_c, 1, 92, 127
2, 89880, Note_on_c, 1, 56, 127
2, 89880, Note_on_c, 1, 68, 127
2, 89880, Note_off_c, 1, 69, 0
2, 89880, Note_off_c, 1, 73, 0
2, 89880, Note_on_c, 1, 85, 127
2, 89880, Note_on_c, 1, 89, 127
2, 89880, Note_off_c, 1, 92, 0
2, 89920, Note_on_c, 1, 55, 127
2, 89920, Note_off_c, 1, 56, 0
2, 89920, Note_on_c, 1, 58, 127
2, 89920, Note_off_c, 1, 68, 0
2, 89920, Note_on_c, 1, 70, 127
2, 89920, Note_on_c, 1, 73, 127
2, 89920, Note_on_c, 1, 82, 127
2, 89920, Note_off_c, 1, 85, 0
2, 89920, Note_off_c, 1, 89, 0
2, 89960, Note_off_c, 1, 55, 0
2, 89960, Note_on_c, 1, 56, 127
2, 89960, Note_off_c, 1, 58, 0
2, 89960, Note_off_c, 1, 70, 0
2, 89960, Note_off_c, 1, 73, 0
2, 89960, Note_off_c, 1, 82, 0
2, 89960, Note_on_c, 1, 85, 127
2, 89960, Note_on_c, 1, 92, 127
2, 89960, Note_on_c, 1, 95, 127
2, 89960, Note_on_c, 1, 97, 127
2, 90000, Note_off_c, 1, 56, 0
2, 90000, Note_on_c, 1, 57, 127
2, 90000, Note_on_c, 1, 59, 127
2, 90000, Note_on_c, 1, 66, 127
2, 90000, Note_on_c, 1, 79, 127
2, 90000, Note_off_c, 1, 85, 0
2, 90000, Note_off_c, 1, 92, 0
2, 90000, Note_off_c, 1, 95, 0
2, 90000, Note_off_c, 1, 97, 0
2, 90040, Note_on_c, 1, 37, 127
2, 90040, Note_on_c, 1, 41, 127
2, 90040, Note_on_c, 1, 49, 127
2, 90040, Note_off_c, 1, 57, 0
2, 90040, Note_off_c, 1, 59, 0
2, 90040, Note_on_c, 1, 78, 127
2, 90040, Note_off_c, 1, 79, 0
2, 90080, Note_off_c, 1, 37, 0
2, 90080, Note_off_c, 1, 41, 0
2, 90080, Note_on_c, 1, 46, 127
2, 90080, Note_on_c, 1, 48, 127
2, 90080, Note_off_c, 1, 49, 0
2, 90080, Note_on_c, 1, 52, 127
2, 90080, Note_on_c, 1, 60, 127
2, 90080, Note_on_c, 1, 64, 127
2, 90080, Note_off_c, 1, 66, 0
2, 90080, Note_on_c, 1, 72, 127
2, 90080, Note_off_c, 1, 78, 0
2, 90120, Note_on_c, 1, 39, 127
2, 90120, Note_off_c, 1, 46, 0
2, 90120, Note_off_c, 1, 48, 0
2, 90120, Note_on_c, 1, 51, 127
2, 90120, Note_off_c, 1, 52, 0
2, 90120, Note_off_c, 1, 60, 0
2, 90120, Note_off_c, 1, 64, 0
2, 90120, Note_on_c, 1, 70, 127
2, 90120, Note_off_c, 1, 72, 0
2, 90120, Note_on_c, 1, 73, 127
2, 90120, Note_on_c, 1, 79, 127
2, 90160, Note_off_c, 1, 39, 0
2, 90160, Note_off_c, 1, 51, 0
2, 90160, Note_on_c, 1, 66, 127
2, 90160, Note_off_c, 1, 70, 0
2, 90160, Note_on_c, 1, 76, 127
2, 90160, Note_on_c, 1, 78, 127
2, 90160, Note_off_c, 1, 79, 0
2, 90200, Note_on_c, 1, 61, 127
2, 90200, Note_off_c, 1, 66, 0
2, 90200, Note_on_c, 1, 71, 127
2, 90200, Note_off_c, 1, 73, 0
2, 90200, Note_off_c, 1, 78, 0
2, 90200, Note_on_c, 1, 83, 127
2, 90240, Note_on_c, 1, 53, 127
2, 90240, Note_on_c, 1, 57, 127
2, 90240, Note_off_c, 1, 61, 0
2, 90240, Note_on_c, 1, 64, 127
2, 90240, Note_off_c, 1, 71, 0
2, 90240, Note_off_c, 1, 76, 0
2, 90240, Note_on_c, 1, 77, 127
2, 90240, Note_off_c, 1, 83, 0
2, 90280, Note_off_c, 1, 53, 0
2, 90280, Note_off_c, 1, 57, 0
2, 90280, Note_on_c, 1, 60, 127
2, 90280, Note_on_c, 1, 63, 127
2, 90280, Note_off_c, 1, 64, 0
2, 90280, Note_on_c, 1, 66, 127
2, 90280, Note_on_c, 1, 74, 127
2, 90280, Note_off_c, 1, 77, 0
2, 90280, Note_on_c, 1, 78, 127
2, 90320, Note_off_c, 1, 60, 0
2, 90320, Note_off_c, 1, 63, 0
2, 90320, Note_off_c, 1, 66, 0
2, 90320, Note_off_c, 1, 74, 0
2, 90320, Note_off_c, 1, 78, 0
2, 90360, Note_on_c, 1, 59, 127
2, 90360, Note_on_c, 1, 62, 127
2, 90360, Note_on_c, 1, 71, 127
2, 90360, Note_on_c, 1, 79, 127
2, 90360, Note_on_c, 1, 86, 127
2, 90360, Note_on_c, 1, 91, 127
2, 90760, Note_on_c, 1, 55, 127
2, 90760, Note_off_c, 1, 59, 0
2, 90760, Note_off_c, 1, 62, 0
2, 90760, Note_on_c, 1, 67, 127
2, 90760, Note_off_c, 1, 71, 0
2, 90920, Note_off_c, 1, 55, 0
2, 90920, Note_off_c, 1, 67, 0
2, 90920, Note_on_c, 1, 75, 127
2, 90920, Note_off_c, 1, 86, 0
2, 90920, Note_on_c, 1, 87, 127
2, 90920, Note_off_c, 1, 91, 0
2, 90960, Note_on_c, 1, 55, 127
2, 90960, Note_on_c, 1, 67, 127
2, 90960, Note_off_c, 1, 75, 0
2, 90960, Note_on_c, 1, 86, 127
2, 90960, Note_off_c, 1, 87, 0
2, 90960, Note_on_c, 1, 91, 127
2, 91160, Note_off_c, 1, 55, 0
2, 91160, Note_off_c, 1, 67, 0
2, 91160, Note_off_c, 1, 79, 0
2, 91160, Note_off_c, 1, 86, 0
2, 91160, Note_off_c, 1, 91, 0
2, 91200, Note_on_c, 1, 55, 127
2, 91200, Note_on_c, 1, 67, 127
2, 91200, Note_on_c, 1, 79, 127
2, 91200, Note_on_c, 1, 86, 127
2, 91200, Note_on_c, 1, 91, 127
2, 91560, Note_off_c, 1, 55, 0
2, 91560, Note_off_c, 1, 67, 0
2, 91560, Note_off_c, 1, 79, 0
2, 91560, Note_off_c, 1, 86, 0
2, 91560, Note_off_c, 1, 91, 0
2, 91600, Note_on_c, 1, 35, 127
2, 91600, Note_on_c, 1, 45, 127
2, 91600, Note_on_c, 1, 47, 127
2, 91600, Note_on_c, 1, 76, 127
2, 91600, Note_on_c, 1, 79, 127
2, 91600, Note_on_c, 1, 88, 127
2, 92200, Note_off_c, 1, 35, 0
2, 92200, Note_off_c, 1, 47, 0
2, 92200, Note_on_c, 1, 52, 127
2, 92200, Note_off_c, 1, 76, 0
2, 92200, Note_off_c, 1, 79, 0
2, 92200, Note_on_c, 1, 83, 127
2, 92200, Note_off_c, 1, 88, 0
2, 92200, Note_on_c, 1, 91, 127
2, 92200, Note_on_c, 1, 95, 127
2, 92400, Note_on_c, 1, 36, 127
2, 92400, Note_on_c, 1, 39, 127
2, 92400, Note_on_c, 1, 44, 127
2, 92400, Note_off_c, 1, 45, 0
2, 92400, Note_on_c, 1, 48, 127
2, 92400, Note_off_c, 1, 52, 0
2, 92400, Note_on_c, 1, 60, 127
2, 92400, Note_on_c, 1, 63, 127
2, 92400, Note_on_c, 1, 68, 127
2, 92400, Note_on_c, 1, 72, 127
2, 92400, Note_off_c, 1, 83, 0
2, 92400, Note_off_c, 1, 91, 0
2, 92400, Note_off_c, 1, 95, 0
2, 92440, Note_off_c, 1, 36, 0
2, 92440, Note_off_c, 1, 39, 0
2, 92440, Note_off_c, 1, 44, 0
2, 92440, Note_on_c, 1, 52, 127
2, 92440, Note_on_c, 1, 55, 127
2, 92440, Note_off_c, 1, 60, 0
2, 92440, Note_off_c, 1, 63, 0
2, 92440, Note_off_c, 1, 68, 0
2, 92480, Note_on_c, 1, 44, 127
2, 92480, Note_off_c, 1, 48, 0
2, 92480, Note_off_c, 1, 52, 0
2, 92480, Note_off_c, 1, 55, 0
2, 92480, Note_on_c, 1, 56, 127
2, 92480, Note_off_c, 1, 72, 0
2, 92480, Note_on_c, 1, 84, 127
2, 92480, Note_on_c, 1, 92, 127
2, 92480, Note_on_c, 1, 96, 127
2, 92520, Note_off_c, 1, 44, 0
2, 92520, Note_on_c, 1, 49, 127
2, 92520, Note_off_c, 1, 56, 0
2, 92520, Note_on_c, 1, 79, 127
2, 92520, Note_on_c, 1, 82, 127
2, 92520, Note_off_c, 1, 84, 0
2, 92520, Note_on_c, 1, 88, 127
2, 92520, Note_on_c, 1, 91, 127
2, 92520, Note_off_c, 1, 92, 0
2, 92520, Note_off_c, 1, 96, 0
2, 92560, Note_off_c, 1, 49, 0
2, 92560, Note_on_c, 1, 52, 127
2, 92560, Note_on_c, 1, 64, 127
2, 92560, Note_on_c, 1, 66, 127
2, 92560, Note_on_c, 1, 70, 127
2, 92560, Note_off_c, 1, 79, 0
2, 92560, Note_off_c, 1, 82, 0
2, 92560, Note_off_c, 1, 88, 0
2, 92560, Note_off_c, 1, 91, 0
2, 92600, Note_on_c, 1, 34, 127
2, 92600, Note_on_c, 1, 46, 127
2, 92600, Note_off_c, 1, 52, 0
2, 92600, Note_off_c, 1, 64, 0
2, 92600, Note_off_c, 1, 66, 0
2, 92600, Note_off_c, 1, 70, 0
2, 92600, Note_on_c, 1, 78, 127
2, 92600, Note_on_c, 1, 85, 127
2, 92600, Note_on_c, 1, 88, 127
2, 92600, Note_on_c, 1, 90, 127
2, 92640, Note_off_c, 1, 34, 0
2, 92640, Note_on_c, 1, 41, 127
2, 92640, Note_off_c, 1, 46, 0
2, 92640, Note_on_c, 1, 48, 127
2, 92640, Note_on_c, 1, 51, 127
2, 92640, Note_on_c, 1, 53, 127
2, 92640, Note_on_c, 1, 69, 127
2, 92640, Note_on_c, 1, 72, 127
2, 92640, Note_off_c, 1, 78, 0
2, 92640, Note_on_c, 1, 81, 127
2, 92640, Note_off_c, 1, 85, 0
2, 92640, Note_off_c, 1, 88, 0
2, 92640, Note_off_c, 1, 90, 0
2, 92680, Note_off_c, 1, 41, 0
2, 92680, Note_off_c, 1, 48, 0
2, 92680, Note_off_c, 1, 51, 0
2, 92680, Note_off_c, 1, 53, 0
2, 92680, Note_on_c, 1, 56, 127
2, 92680, Note_on_c, 1, 61, 127
2, 92680, Note_on_c, 1, 64, 127
2, 92680, Note_off_c, 1, 69, 0
2, 92680, Note_off_c, 1, 72, 0
2, 92680, Note_on_c, 1, 73, 127
2, 92680, Note_on_c, 1, 80, 127
2, 92680, Note_off_c, 1, 81, 0
2, 92720, Note_on_c, 1, 35, 127
2, 92720, Note_on_c, 1, 47, 127
2, 92720, Note_off_c, 1, 56, 0
2, 92720, Note_off_c, 1, 61, 0
2, 92720, Note_off_c, 1, 64, 0
2, 92720, Note_off_c, 1, 73, 0
2, 92720, Note_off_c, 1, 80, 0
2, 92720, Note_on_c, 1, 83, 127
2, 92720, Note_on_c, 1, 87, 127
2, 92720, Note_on_c, 1, 90, 127
2, 92720, Note_on_c, 1, 95, 127
2, 92760, Note_off_c, 1, 35, 0
2, 92760, Note_off_c, 1, 47, 0
2, 92760, Note_off_c, 1, 83, 0
2, 92760, Note_off_c, 1, 87, 0
2, 92760, Note_off_c, 1, 90, 0
2, 92760, Note_off_c, 1, 95, 0
2, 92800, Note_on_c, 1, 49, 127
2, 92800, Note_on_c, 1, 56, 127
2, 92800, Note_on_c, 1, 68, 127
2, 92800, Note_on_c, 1, 73, 127
2, 92800, Note_on_c, 1, 77, 127
2, 93200, Note_off_c, 1, 49, 0
2, 93200, Note_off_c, 1, 56, 0
2, 93200, Note_off_c, 1, 68, 0
2, 93200, Note_off_c, 1, 73, 0
2, 93200, Note_off_c, 1, 77, 0
2, 93240, Note_on_c, 1, 49, 127
2, 93240, Note_on_c, 1, 56, 127
2, 93240, Note_on_c, 1, 68, 127
2, 93240, Note_on_c, 1, 73, 127
2, 93240, Note_on_c, 1, 77, 127
2, 95200, Note_off_c, 1, 49, 0
2, 95200, Note_off_c, 1, 56, 0
2, 95200, Note_off_c, 1, 68, 0
2, 95200, Note_off_c, 1, 73, 0
2, 95200, Note_off_c, 1, 77, 0
2, 95280, Note_on_c, 1, 29, 127
2, 95280, Note_on_c, 1, 53, 127
2, 95280, Note_on_c, 1, 57, 127
2, 95280, Note_on_c, 1, 61, 127
2, 96440, Note_off_c, 1, 29, 0
2, 96440, Note_off_c, 1, 53, 0
2, 96440, Note_off_c, 1, 57, 0
2, 96440, Note_off_c, 1, 61, 0
2, 96480, Note_on_c, 1, 45, 127
2, 96480, Note_on_c, 1, 52, 127
2, 96480, Note_on_c, 1, 57, 127
2, 96480, Note_on_c, 1, 73, 127
2, 96480, Note_on_c, 1, 76, 127
2, 96480, Note_on_c, 1, 85, 127
2, 97280, Note_off_c, 1, 45, 0
2, 97280, Note_off_c, 1, 52, 0
2, 97280, Note_off_c, 1, 57, 0
2, 97280, Note_off_c, 1, 73, 0
2, 97280, Note_off_c, 1, 76, 0
2, 97280, Note_off_c, 1, 85, 0
2, 97320, Note_on_c, 1, 45, 127
2, 97320, Note_on_c, 1, 52, 127
2, 97320, Note_on_c, 1, 57, 127
2, 97320, Note_on_c, 1, 73, 127
2, 97320, Note_on_c, 1, 76, 127
2, 97320, Note_on_c, 1, 85, 127
2, 97640, Note_off_c, 1, 45, 0
2, 97640, Note_off_c, 1, 52, 0
2, 97640, Note_off_c, 1, 57, 0
2, 97640, Note_on_c, 1, 64, 127
2, 97640, Note_on_c, 1, 66, 127
2, 97640, Note_off_c, 1, 73, 0
2, 97640, Note_on_c, 1, 78, 127
2, 97640, Note_off_c, 1, 85, 0
2, 97680, Note_on_c, 1, 45, 127
2, 97680, Note_on_c, 1, 52, 127
2, 97680, Note_on_c, 1, 57, 127
2, 97680, Note_off_c, 1, 64, 0
2, 97680, Note_off_c, 1, 66, 0
2, 97680, Note_on_c, 1, 73, 127
2, 97680, Note_off_c, 1, 78, 0
2, 97680, Note_on_c, 1, 85, 127
2, 98280, Note_off_c, 1, 45, 0
2, 98280, Note_off_c, 1, 52, 0
2, 98280, Note_off_c, 1, 57, 0
2, 98280, Note_off_c, 1, 73, 0
2, 98280, Note_off_c, 1, 76, 0
2, 98280, Note_off_c, 1, 85, 0
2, 98320, Note_on_c, 1, 41, 127
2, 98320, Note_on_c, 1, 53, 127
2, 98320, Note_on_c, 1, 74, 127
2, 98320, Note_on_c, 1, 86, 127
2, 99320, Note_off_c, 1, 41, 0
2, 99320, Note_off_c, 1, 53, 0
2, 99320, Note_off_c, 1, 74, 0
2, 99320, Note_off_c, 1, 86, 0
2, 99360, Note_on_c, 1, 41, 127
2, 99360, Note_on_c, 1, 53, 127
2, 99360, Note_on_c, 1, 74, 127
2, 99360, Note_on_c, 1, 86, 127
2, 99520, Note_off_c, 1, 41, 0
2, 99520, Note_off_c, 1, 53, 0
2, 99520, Note_off_c, 1, 74, 0
2, 99520, Note_off_c, 1, 86, 0
2, 99560, Note_on_c, 1, 34, 127
2, 99560, Note_on_c, 1, 46, 127
2, 99560, Note_on_c, 1, 55, 127
2, 99560, Note_on_c, 1, 62, 127
2, 99600, Note_off_c, 1, 34, 0
2, 99600, Note_on_c, 1, 45, 127
2, 99600, Note_off_c, 1, 46, 0
2, 99600, Note_off_c, 1, 55, 0
2, 99600, Note_on_c, 1, 57, 127
2, 99600, Note_off_c, 1, 62, 0
2, 99600, Note_on_c, 1, 89, 127
2, 99600, Note_on_c, 1, 98, 127
2, 99640, Note_on_c, 1, 34, 127
2, 99640, Note_on_c, 1, 41, 127
2, 99640, Note_off_c, 1, 45, 0
2, 99640, Note_on_c, 1, 46, 127
2, 99640, Note_off_c, 1, 57, 0
2, 99640, Note_on_c, 1, 77, 127
2, 99640, Note_on_c, 1, 82, 127
2, 99640, Note_off_c, 1, 89, 0
2, 99640, Note_off_c, 1, 98, 0
2, 99680, Note_on_c, 1, 32, 127
2, 99680, Note_off_c, 1, 34, 0
2, 99680, Note_on_c, 1, 39, 127
2, 99680, Note_off_c, 1, 41, 0
2, 99680, Note_on_c, 1, 44, 127
2, 99680, Note_off_c, 1, 46, 0
2, 99680, Note_on_c, 1, 71, 127
2, 99680, Note_off_c, 1, 77, 0
2, 99680, Note_off_c, 1, 82, 0
2, 99680, Note_on_c, 1, 83, 127
2, 99720, Note_off_c, 1, 32, 0
2, 99720, Note_off_c, 1, 39, 0
2, 99720, Note_off_c, 1, 44, 0
2, 99720, Note_on_c, 1, 49, 127
2, 99720, Note_on_c, 1, 61, 127
2, 99720, Note_on_c, 1, 66, 127
2, 99720, Note_on_c, 1, 68, 127
2, 99720, Note_off_c, 1, 71, 0
2, 99720, Note_off_c, 1, 83, 0
2, 99760, Note_on_c, 1, 32, 127
2, 99760, Note_on_c, 1, 39, 127
2, 99760, Note_on_c, 1, 44, 127
2, 99760, Note_off_c, 1, 49, 0
2, 99760, Note_off_c, 1, 61, 0
2, 99760, Note_off_c, 1, 66, 0
2, 99760, Note_off_c, 1, 68, 0
2, 99760, Note_on_c, 1, 75, 127
2, 99760, Note_on_c, 1, 83, 127
2, 100120, Note_off_c, 1, 32, 0
2, 100120, Note_off_c, 1, 39, 0
2, 100120, Note_off_c, 1, 44, 0
2, 100120, Note_off_c, 1, 75, 0
2, 100120, Note_off_c, 1, 83, 0
2, 100160, Note_on_c, 1, 43, 127
2, 100160, Note_on_c, 1, 47, 127
2, 100160, Note_on_c, 1, 55, 127
2, 100160, Note_on_c, 1, 64, 127
2, 100160, Note_on_c, 1, 76, 127
2, 100200, Note_off_c, 1, 43, 0
2, 100200, Note_off_c, 1, 47, 0
2, 100200, Note_on_c, 1, 52, 127
2, 100200, Note_off_c, 1, 55, 0
2, 100200, Note_on_c, 1, 62, 127
2, 100200, Note_off_c, 1, 76, 0
2, 100200, Note_on_c, 1, 83, 127
2, 100200, Note_on_c, 1, 92, 127
2, 100200, Note_on_c, 1, 95, 127
2, 100240, Note_off_c, 1, 52, 0
2, 100240, Note_on_c, 1, 55, 127
2, 100240, Note_on_c, 1, 57, 127
2, 100240, Note_on_c, 1, 60, 127
2, 100240, Note_off_c, 1, 64, 0
2, 100240, Note_on_c, 1, 66, 127
2, 100240, Note_on_c, 1, 72, 127
2, 100240, Note_on_c, 1, 74, 127
2, 100240, Note_off_c, 1, 83, 0
2, 100240, Note_off_c, 1, 92, 0
2, 100240, Note_off_c, 1, 95, 0
2, 100280, Note_on_c, 1, 52, 127
2, 100280, Note_off_c, 1, 55, 0
2, 100280, Note_off_c, 1, 57, 0
2, 100280, Note_off_c, 1, 60, 0
2, 100280, Note_on_c, 1, 64, 127
2, 100280, Note_off_c, 1, 66, 0
2, 100280, Note_off_c, 1, 72, 0
2, 100280, Note_off_c, 1, 74, 0
2, 100280, Note_on_c, 1, 83, 127
2, 100280, Note_on_c, 1, 92, 127
2, 100280, Note_on_c, 1, 95, 127
2, 100320, Note_on_c, 1, 47, 127
2, 100320, Note_off_c, 1, 52, 0
2, 100320, Note_on_c, 1, 59, 127
2, 100320, Note_off_c, 1, 62, 0
2, 100320, Note_off_c, 1, 64, 0
2, 100320, Note_on_c, 1, 88, 127
2, 100320, Note_off_c, 1, 92, 0
2, 100360, Note_off_c, 1, 47, 0
2, 100360, Note_on_c, 1, 51, 127
2, 100360, Note_off_c, 1, 59, 0
2, 100360, Note_on_c, 1, 63, 127
2, 100360, Note_on_c, 1, 71, 127
2, 100360, Note_off_c, 1, 88, 0
2, 100360, Note_off_c, 1, 95, 0
2, 100400, Note_off_c, 1, 51, 0
2, 100400, Note_off_c, 1, 63, 0
2, 100400, Note_off_c, 1, 71, 0
2, 100400, Note_off_c, 1, 83, 0
2, 100440, Note_on_c, 1, 41, 127
2, 100440, Note_on_c, 1, 53, 127
2, 100440, Note_on_c, 1, 70, 127
2, 100440, Note_on_c, 1, 77, 127
2, 100440, Note_on_c, 1, 80, 127
2, 100440, Note_on_c, 1, 82, 127
2, 100680, Note_off_c, 1, 41, 0
2, 100680, Note_off_c, 1, 53, 0
2, 100680, Note_off_c, 1, 70, 0
2, 100680, Note_on_c, 1, 72, 127
2, 100680, Note_off_c, 1, 77, 0
2, 100680, Note_off_c, 1, 82, 0
2, 100680, Note_on_c, 1, 87, 127
2, 100720, Note_on_c, 1, 70, 127
2, 100720, Note_off_c, 1, 72, 0
2, 100720, Note_on_c, 1, 77, 127
2, 100720, Note_on_c, 1, 82, 127
2, 100720, Note_off_c, 1, 87, 0
2, 100760, Note_off_c, 1, 70, 0
2, 100760, Note_off_c, 1, 77, 0
2, 100760, Note_off_c, 1, 80, 0
2, 100760, Note_off_c, 1, 82, 0
2, 100800, Note_on_c, 1, 53, 127
2, 100800, Note_on_c, 1, 55, 127
2, 100800, Note_on_c, 1, 59, 127
2, 100800, Note_on_c, 1, 62, 127
2, 100800, Note_on_c, 1, 67, 127
2, 100800, Note_on_c, 1, 72, 127
2, 100840, Note_on_c, 1, 31, 127
2, 100840, Note_on_c, 1, 43, 127
2, 100840, Note_off_c, 1, 53, 0
2, 100840, Note_off_c, 1, 55, 0
2, 100840, Note_off_c, 1, 59, 0
2, 100840, Note_off_c, 1, 62, 0
2, 100840, Note_off_c, 1, 67, 0
2, 100840, Note_off_c, 1, 72, 0
2, 100840, Note_on_c, 1, 84, 127
2, 100840, Note_on_c, 1, 88, 127
2, 100840, Note_on_c, 1, 91, 127
2, 100840, Note_on_c, 1, 96, 127
2, 101040, Note_off_c, 1, 31, 0
2, 101040, Note_off_c, 1, 43, 0
2, 101040, Note_on_c, 1, 87, 127
2, 101040, Note_off_c, 1, 88, 0
2, 101040, Note_off_c, 1, 91, 0
2, 101080, Note_on_c, 1, 47, 127
2, 101080, Note_on_c, 1, 61, 127
2, 101080, Note_on_c, 1, 65, 127
2, 101080, Note_on_c, 1, 68, 127
2, 101080, Note_on_c, 1, 80, 127
2, 101080, Note_off_c, 1, 84, 0
2, 101080, Note_off_c, 1, 87, 0
2, 101080, Note_off_c, 1, 96, 0
2, 101280, Note_off_c, 1, 47, 0
2, 101280, Note_off_c, 1, 61, 0
2, 101280, Note_off_c, 1, 65, 0
2, 101280, Note_off_c, 1, 68, 0
2, 101280, Note_off_c, 1, 80, 0
2, 101320, Note_on_c, 1, 47, 127
2, 101320, Note_on_c, 1, 61, 127
2, 101320, Note_on_c, 1, 65, 127
2, 101320, Note_on_c, 1, 68, 127
2, 101320, Note_on_c, 1, 80, 127
2, 101400, Note_off_c, 1, 47, 0
2, 101400, Note_off_c, 1, 61, 0
2, 101400, Note_off_c, 1, 65, 0
2, 101400, Note_off_c, 1, 68, 0
2, 101400, Note_off_c, 1, 80, 0
2, 101440, Note_on_c, 1, 60, 127
2, 101440, Note_on_c, 1, 65, 127
2, 101440, Note_on_c, 1, 68, 127
2, 101440, Note_on_c, 1, 72, 127
2, 101440, Note_on_c, 1, 84, 127
2, 101840, Note_on_c, 1, 34, 127
2, 101840, Note_on_c, 1, 43, 127
2, 101840, Note_on_c, 1, 50, 127
2, 101840, Note_off_c, 1, 60, 0
2, 101840, Note_on_c, 1, 62, 127
2, 101840, Note_off_c, 1, 65, 0
2, 101840, Note_off_c, 1, 68, 0
2, 101840, Note_off_c, 1, 72, 0
2, 101840, Note_off_c, 1, 84, 0
2, 101880, Note_off_c, 1, 34, 0
2, 101880, Note_off_c, 1, 43, 0
2, 101880, Note_on_c, 1, 46, 127
2, 101880, Note_off_c, 1, 50, 0
2, 101880, Note_on_c, 1, 57, 127
2, 101880, Note_off_c, 1, 62, 0
2, 101880, Note_on_c, 1, 63, 127
2, 101880, Note_on_c, 1, 69, 127
2, 101880, Note_on_c, 1, 72, 127
2, 101880, Note_on_c, 1, 75, 127
2, 102000, Note_off_c, 1, 46, 0
2, 102000, Note_off_c, 1, 57, 0
2, 102000, Note_off_c, 1, 63, 0
2, 102000, Note_off_c, 1, 69, 0
2, 102000, Note_off_c, 1, 72, 0
2, 102000, Note_off_c, 1, 75, 0
2, 102040, Note_on_c, 1, 46, 127
2, 102040, Note_on_c, 1, 53, 127
2, 102040, Note_on_c, 1, 57, 127
2, 102040, Note_on_c, 1, 65, 127
2, 102040, Note_on_c, 1, 75, 127
2, 102120, Note_on_c, 1, 63, 127
2, 102120, Note_off_c, 1, 65, 0
2, 102160, Note_off_c, 1, 63, 0
2, 102160, Note_on_c, 1, 65, 127
2, 102440, Note_off_c, 1, 65, 0
2, 102480, Note_on_c, 1, 63, 127
2, 102600, Note_off_c, 1, 46, 0
2, 102600, Note_off_c, 1, 53, 0
2, 102600, Note_off_c, 1, 57, 0
2, 102600, Note_off_c, 1, 63, 0
2, 102600, Note_off_c, 1, 75, 0
2, 102640, Note_on_c, 1, 52, 127
2, 102640, Note_on_c, 1, 60, 127
2, 102640, Note_on_c, 1, 67, 127
2, 102640, Note_on_c, 1, 72, 127
2, 102640, Note_on_c, 1, 80, 127
2, 102640, Note_on_c, 1, 83, 127
2, 102680, Note_off_c, 1, 52, 0
2, 102680, Note_on_c, 1, 56, 127
2, 102680, Note_off_c, 1, 60, 0
2, 102680, Note_off_c, 1, 67, 0
2, 102680, Note_off_c, 1, 72, 0
2, 102680, Note_off_c, 1, 83, 0
2, 102680, Note_on_c, 1, 92, 127
2, 102680, Note_on_c, 1, 95, 127
2, 102720, Note_on_c, 1, 40, 127
2, 102720, Note_off_c, 1, 56, 0
2, 102720, Note_on_c, 1, 68, 127
2, 102720, Note_on_c, 1, 71, 127
2, 102720, Note_on_c, 1, 78, 127
2, 102720, Note_off_c, 1, 80, 0
2, 102720, Note_off_c, 1, 92, 0
2, 102720, Note_off_c, 1, 95, 0
2, 102760, Note_on_c, 1, 38, 127
2, 102760, Note_off_c, 1, 40, 0
2, 102760, Note_on_c, 1, 47, 127
2, 102760, Note_off_c, 1, 71, 0
2, 102760, Note_off_c, 1, 78, 0
2, 102760, Note_on_c, 1, 80, 127
2, 102800, Note_off_c, 1, 38, 0
2, 102800, Note_off_c, 1, 47, 0
2, 102800, Note_on_c, 1, 55, 127
2, 102800, Note_on_c, 1, 65, 127
2, 102800, Note_off_c, 1, 68, 0
2, 102800, Note_on_c, 1, 74, 127
2, 102800, Note_off_c, 1, 80, 0
2, 102800, Note_on_c, 1, 83, 127
2, 102800, Note_on_c, 1, 86, 127
2, 102840, Note_off_c, 1, 55, 0
2, 102840, Note_off_c, 1, 65, 0
2, 102840, Note_off_c, 1, 74, 0
2, 102840, Note_on_c, 1, 76, 127
2, 102840, Note_on_c, 1, 80, 127
2, 102880, Note_on_c, 1, 57, 127
2, 102880, Note_on_c, 1, 69, 127
2, 102880, Note_off_c, 1, 76, 0
2, 102880, Note_off_c, 1, 80, 0
2, 102880, Note_off_c, 1, 83, 0
2, 102880, Note_on_c, 1, 85, 127
2, 102880, Note_off_c, 1, 86, 0
2, 102880, Note_on_c, 1, 90, 127
2, 102880, Note_on_c, 1, 93, 127
2, 102920, Note_off_c, 1, 57, 0
2, 102920, Note_off_c, 1, 69, 0
2, 102920, Note_on_c, 1, 71, 127
2, 102920, Note_on_c, 1, 80, 127
2, 102920, Note_on_c, 1, 83, 127
2, 102920, Note_off_c, 1, 85, 0
2, 102920, Note_off_c, 1, 90, 0
2, 102920, Note_off_c, 1, 93, 0
2, 102960, Note_on_c, 1, 48, 127
2, 102960, Note_on_c, 1, 60, 127
2, 102960, Note_off_c, 1, 71, 0
2, 102960, Note_off_c, 1, 80, 0
2, 102960, Note_on_c, 1, 82, 127
2, 102960, Note_off_c, 1, 83, 0
2, 102960, Note_on_c, 1, 88, 127
2, 102960, Note_on_c, 1, 91, 127
2, 102960, Note_on_c, 1, 94, 127
2, 103000, Note_off_c, 1, 48, 0
2, 103000, Note_on_c, 1, 51, 127
2, 103000, Note_on_c, 1, 58, 127
2, 103000, Note_off_c, 1, 60, 0
2, 103000, Note_on_c, 1, 63, 127
2, 103000, Note_on_c, 1, 77, 127
2, 103000, Note_off_c, 1, 82, 0
2, 103000, Note_off_c, 1, 88, 0
2, 103000, Note_on_c, 1, 89, 127
2, 103000, Note_off_c, 1, 91, 0
2, 103000, Note_off_c, 1, 94, 0
2, 103040, Note_off_c, 1, 51, 0
2, 103040, Note_off_c, 1, 58, 0
2, 103040, Note_off_c, 1, 63, 0
2, 103040, Note_off_c, 1, 77, 0
2, 103040, Note_off_c, 1, 89, 0
2, 103080, Note_on_c, 1, 48, 127
2, 103080, Note_on_c, 1, 82, 127
2, 103080, Note_on_c, 1, 88, 127
2, 103080, Note_on_c, 1, 91, 127
2, 103120, Note_on_c, 1, 46, 127
2, 103120, Note_off_c, 1, 48, 0
2, 103120, Note_on_c, 1, 49, 127
2, 103120, Note_on_c, 1, 53, 127
2, 103120, Note_on_c, 1, 58, 127
2, 103120, Note_on_c, 1, 70, 127
2, 103120, Note_on_c, 1, 73, 127
2, 103120, Note_off_c, 1, 88, 0
2, 103120, Note_off_c, 1, 91, 0
2, 103160, Note_off_c, 1, 46, 0
2, 103160, Note_off_c, 1, 49, 0
2, 103160, Note_off_c, 1, 53, 0
2, 103160, Note_off_c, 1, 58, 0
2, 103160, Note_off_c, 1, 70, 0
2, 103160, Note_off_c, 1, 73, 0
2, 103160, Note_on_c, 1, 80, 127
2, 103160, Note_off_c, 1, 82, 0
2, 103160, Note_on_c, 1, 92, 127
2, 103160, Note_on_c, 1, 102, 127
2, 103200, Note_on_c, 1, 46, 127
2, 103200, Note_on_c, 1, 73, 127
2, 103200, Note_on_c, 1, 79, 127
2, 103200, Note_off_c, 1, 80, 0
2, 103200, Note_on_c, 1, 82, 127
2, 103200, Note_off_c, 1, 92, 0
2, 103200, Note_off_c, 1, 102, 0
2, 103240, Note_off_c, 1, 46, 0
2, 103240, Note_on_c, 1, 56, 127
2, 103240, Note_on_c, 1, 59, 127
2, 103240, Note_on_c, 1, 62, 127
2, 103240, Note_on_c, 1, 65, 127
2, 103240, Note_off_c, 1, 73, 0
2, 103240, Note_off_c, 1, 79, 0
2, 103240, Note_off_c, 1, 82, 0
2, 103280, Note_on_c, 1, 50, 127
2, 103280, Note_on_c, 1, 53, 127
2, 103280, Note_off_c, 1, 56, 0
2, 103280, Note_on_c, 1, 57, 127
2, 103280, Note_off_c, 1, 59, 0
2, 103280, Note_off_c, 1, 65, 0
2, 103280, Note_on_c, 1, 85, 127
2, 103320, Note_off_c, 1, 57, 0
2, 103320, Note_off_c, 1, 62, 0
2, 103320, Note_on_c, 1, 65, 127
2, 103320, Note_on_c, 1, 74, 127
2, 103320, Note_off_c, 1, 85, 0
2, 103520, Note_off_c, 1, 50, 0
2, 103520, Note_off_c, 1, 53, 0
2, 103520, Note_off_c, 1, 65, 0
2, 103520, Note_off_c, 1, 74, 0
2, 103560, Note_on_c, 1, 57, 127
2, 103560, Note_on_c, 1, 60, 127
2, 103560, Note_on_c, 1, 64, 127
2, 103560, Note_on_c, 1, 76, 127
2, 103560, Note_on_c, 1, 80, 127
2, 103600, Note_off_c, 1, 57, 0
2, 103600, Note_off_c, 1, 60, 0
2, 103600, Note_off_c, 1, 64, 0
2, 103600, Note_on_c, 1, 65, 127
2, 103600, Note_on_c, 1, 70, 127
2, 103600, Note_on_c, 1, 74, 127
2, 103600, Note_off_c, 1, 76, 0
2, 103600, Note_off_c, 1, 80, 0
2, 103600, Note_on_c, 1, 81, 127
2, 103600, Note_on_c, 1, 86, 127
2, 103640, Note_on_c, 1, 55, 127
2, 103640, Note_on_c, 1, 73, 127
2, 103640, Note_off_c, 1, 74, 0
2, 103640, Note_off_c, 1, 81, 0
2, 103640, Note_on_c, 1, 82, 127
2, 103640, Note_off_c, 1, 86, 0
2, 103680, Note_on_c, 1, 42, 127
2, 103680, Note_on_c, 1, 51, 127
2, 103680, Note_off_c, 1, 55, 0
2, 103680, Note_on_c, 1, 61, 127
2, 103680, Note_off_c, 1, 65, 0
2, 103680, Note_off_c, 1, 73, 0
2, 103680, Note_off_c, 1, 82, 0
2, 103720, Note_off_c, 1, 42, 0
2, 103720, Note_off_c, 1, 51, 0
2, 103720, Note_off_c, 1, 61, 0
2, 103720, Note_on_c, 1, 65, 127
2, 103720, Note_on_c, 1, 74, 127
2, 103720, Note_on_c, 1, 81, 127
2, 103720, Note_on_c, 1, 86, 127
2, 103760, Note_on_c, 1, 64, 127
2, 103760, Note_off_c, 1, 65, 0
2, 103760, Note_on_c, 1, 67, 127
2, 103760, Note_off_c, 1, 74, 0
2, 103760, Note_on_c, 1, 76, 127
2, 103760, Note_off_c, 1, 81, 0
2, 103760, Note_on_c, 1, 82, 127
2, 103760, Note_off_c, 1, 86, 0
2, 103760, Note_on_c, 1, 88, 127
2, 103800, Note_on_c, 1, 46, 127
2, 103800, Note_on_c, 1, 58, 127
2, 103800, Note_off_c, 1, 64, 0
2, 103800, Note_off_c, 1, 67, 0
2, 103800, Note_off_c, 1, 70, 0
2, 103800, Note_off_c, 1, 76, 0
2, 103800, Note_on_c, 1, 80, 127
2, 103800, Note_off_c, 1, 82, 0
2, 103800, Note_on_c, 1, 87, 127
2, 103800, Note_off_c, 1, 88, 0
2, 103840, Note_on_c, 1, 53, 127
2, 103840, Note_off_c, 1, 80, 0
2, 103840, Note_off_c, 1, 87, 0
2, 103880, Note_on_c, 1, 41, 127
2, 103880, Note_off_c, 1, 46, 0
2, 103880, Note_off_c, 1, 53, 0
2, 103880, Note_on_c, 1, 57, 127
2, 103880, Note_off_c, 1, 58, 0
2, 103880, Note_on_c, 1, 61, 127
2, 103880, Note_on_c, 1, 73, 127
2, 103920, Note_on_c, 1, 34, 127
2, 103920, Note_on_c, 1, 58, 127
2, 103920, Note_off_c, 1, 61, 0
2, 103920, Note_off_c, 1, 73, 0
2, 103960, Note_off_c, 1, 34, 0
2, 103960, Note_off_c, 1, 58, 0
2, 103960, Note_on_c, 1, 61, 127
2, 103960, Note_on_c, 1, 73, 127
2, 104000, Note_off_c, 1, 41, 0
2, 104000, Note_off_c, 1, 57, 0
2, 104000, Note_off_c, 1, 61, 0
2, 104000, Note_off_c, 1, 73, 0
2, 104040, Note_on_c, 1, 55, 127
2, 104040, Note_on_c, 1, 58, 127
2, 104040, Note_on_c, 1, 65, 127
2, 104040, Note_on_c, 1, 67, 127
2, 104040, Note_on_c, 1, 70, 127
2, 104040, Note_on_c, 1, 77, 127
2, 104160, Note_off_c, 1, 55, 0
2, 104160, Note_off_c, 1, 58, 0
2, 104160, Note_off_c, 1, 65, 0
2, 104160, Note_off_c, 1, 67, 0
2, 104160, Note_off_c, 1, 70, 0
2, 104160, Note_off_c, 1, 77, 0
2, 104200, Note_on_c, 1, 53, 127
2, 104200, Note_on_c, 1, 62, 127
2, 104200, Note_on_c, 1, 65, 127
2, 104200, Note_on_c, 1, 77, 127
2, 104760, Note_off_c, 1, 53, 0
2, 104760, Note_off_c, 1, 62, 0
2, 104760, Note_off_c, 1, 65, 0
2, 104760, Note_off_c, 1, 77, 0
2, 104800, Note_on_c, 1, 53, 127
2, 104800, Note_on_c, 1, 63, 127
2, 104800, Note_on_c, 1, 67, 127
2, 104800, Note_on_c, 1, 72, 127
2, 104800, Note_on_c, 1, 77, 127
2, 104840, Note_off_c, 1, 77, 0
2, 104880, Note_on_c, 1, 77, 127
2, 105040, Note_off_c, 1, 77, 0
2, 105080, Note_on_c, 1, 77, 127
2, 105200, Note_off_c, 1, 53, 0
2, 105200, Note_off_c, 1, 63, 0
2, 105200, Note_off_c, 1, 67, 0
2, 105200, Note_off_c, 1, 72, 0
2, 105200, Note_off_c, 1, 77, 0
2, 105240, Note_on_c, 1, 53, 127
2, 105240, Note_on_c, 1, 63, 127
2, 105240, Note_on_c, 1, 67, 127
2, 105240, Note_on_c, 1, 72, 127
2, 105400, Note_off_c, 1, 63, 0
2, 105400, Note_off_c, 1, 67, 0
2, 105400, Note_off_c, 1, 72, 0
2, 105440, Note_on_c, 1, 46, 127
2, 105440, Note_on_c, 1, 58, 127
2, 105440, Note_on_c, 1, 62, 127
2, 105440, Note_on_c, 1, 70, 127
2, 105440, Note_on_c, 1, 74, 127
2, 105680, Note_off_c, 1, 58, 0
2, 105680, Note_off_c, 1, 62, 0
2, 105680, Note_off_c, 1, 70, 0
2, 105680, Note_off_c, 1, 74, 0
2, 105720, Note_off_c, 1, 46, 0
2, 105720, Note_off_c, 1, 53, 0
2, 105720, Note_on_c, 1, 55, 127
2, 105720, Note_on_c, 1, 66, 127
2, 105720, Note_on_c, 1, 69, 127
2, 105720, Note_on_c, 1, 71, 127
2, 106000, Note_off_c, 1, 55, 0
2, 106000, Note_off_c, 1, 66, 0
2, 106000, Note_off_c, 1, 69, 0
2, 106000, Note_off_c, 1, 71, 0
2, 106040, Note_on_c, 1, 47, 127
2, 106040, Note_on_c, 1, 54, 127
2, 106040, Note_on_c, 1, 75, 127
2, 106040, Note_on_c, 1, 78, 127
2, 106040, Note_on_c, 1, 87, 127
2, 106600, Note_off_c, 1, 47, 0
2, 106600, Note_off_c, 1, 54, 0
2, 106600, Note_off_c, 1, 75, 0
2, 106600, Note_off_c, 1, 78, 0
2, 106600, Note_off_c, 1, 87, 0
2, 106640, Note_on_c, 1, 44, 127
2, 106640, Note_on_c, 1, 49, 127
2, 106640, Note_on_c, 1, 68, 127
2, 106640, Note_on_c, 1, 76, 127
2, 106640, Note_on_c, 1, 80, 127
2, 107200, Note_off_c, 1, 44, 0
2, 107200, Note_off_c, 1, 49, 0
2, 107200, Note_off_c, 1, 68, 0
2, 107200, Note_off_c, 1, 76, 0
2, 107200, Note_off_c, 1, 80, 0
2, 107280, Note_on_c, 1, 50, 127
2, 107280, Note_on_c, 1, 59, 127
2, 107280, Note_on_c, 1, 62, 127
2, 107280, Note_on_c, 1, 66, 127
2, 107280, Note_on_c, 1, 71, 127
2, 107280, Note_on_c, 1, 74, 127
2, 107680, Note_off_c, 1, 50, 0
2, 107680, Note_off_c, 1, 66, 0
2, 107680, Note_off_c, 1, 71, 0
2, 107680, Note_off_c, 1, 74, 0
2, 107680, Note_on_c, 1, 79, 127
2, 107680, Note_on_c, 1, 91, 127
2, 107720, Note_on_c, 1, 34, 127
2, 107720, Note_on_c, 1, 39, 127
2, 107720, Note_on_c, 1, 41, 127
2, 107720, Note_on_c, 1, 46, 127
2, 107720, Note_on_c, 1, 51, 127
2, 107720, Note_on_c, 1, 53, 127
2, 107720, Note_on_c, 1, 58, 127
2, 107720, Note_off_c, 1, 59, 0
2, 107720, Note_on_c, 1, 61, 127
2, 107720, Note_off_c, 1, 62, 0
2, 107720, Note_on_c, 1, 65, 127
2, 107720, Note_on_c, 1, 70, 127
2, 107720, Note_off_c, 1, 79, 0
2, 107720, Note_off_c, 1, 91, 0
2, 107760, Note_off_c, 1, 34, 0
2, 107760, Note_off_c, 1, 39, 0
2, 107760, Note_off_c, 1, 46, 0
2, 107760, Note_off_c, 1, 51, 0
2, 107760, Note_off_c, 1, 58, 0
2, 107760, Note_off_c, 1, 61, 0
2, 107760, Note_on_c, 1, 63, 127
2, 107760, Note_off_c, 1, 65, 0
2, 107760, Note_on_c, 1, 69, 127
2, 107760, Note_off_c, 1, 70, 0
2, 107760, Note_on_c, 1, 77, 127
2, 107800, Note_on_c, 1, 38, 127
2, 107800, Note_off_c, 1, 41, 0
2, 107800, Note_off_c, 1, 53, 0
2, 107800, Note_on_c, 1, 61, 127
2, 107800, Note_off_c, 1, 63, 0
2, 107800, Note_on_c, 1, 65, 127
2, 107800, Note_off_c, 1, 69, 0
2, 107800, Note_off_c, 1, 77, 0
2, 107840, Note_on_c, 1, 30, 127
2, 107840, Note_off_c, 1, 38, 0
2, 107840, Note_on_c, 1, 42, 127
2, 107840, Note_off_c, 1, 61, 0
2, 107840, Note_off_c, 1, 65, 0
2, 107840, Note_on_c, 1, 66, 127
2, 107880, Note_off_c, 1, 30, 0
2, 107880, Note_on_c, 1, 32, 127
2, 107880, Note_off_c, 1, 42, 0
2, 107880, Note_on_c, 1, 73, 127
2, 108440, Note_off_c, 1, 32, 0
2, 108440, Note_off_c, 1, 66, 0
2, 108440, Note_off_c, 1, 73, 0
2, 108480, Note_on_c, 1, 43, 127
2, 108480, Note_on_c, 1, 49, 127
2, 108480, Note_on_c, 1, 59, 127
2, 108480, Note_on_c, 1, 61, 127
2, 108760, Note_on_c, 1, 41, 127
2, 108760, Note_off_c, 1, 43, 0
2, 108760, Note_off_c, 1, 49, 0
2, 108760, Note_on_c, 1, 58, 127
2, 108760, Note_off_c, 1, 59, 0
2, 108760, Note_off_c, 1, 61, 0
2, 108760, Note_on_c, 1, 62, 127
2, 108760, Note_on_c, 1, 70, 127
2, 108760, Note_on_c, 1, 74, 127
2, 108800, Note_off_c, 1, 41, 0
2, 108800, Note_on_c, 1, 43, 127
2, 108800, Note_on_c, 1, 49, 127
2, 108800, Note_off_c, 1, 58, 0
2, 108800, Note_on_c, 1, 59, 127
2, 108800, Note_on_c, 1, 61, 127
2, 108800, Note_off_c, 1, 62, 0
2, 108800, Note_off_c, 1, 70, 0
2, 108800, Note_off_c, 1, 74, 0
2, 108840, Note_off_c, 1, 43, 0
2, 108840, Note_off_c, 1, 49, 0
2, 108840, Note_off_c, 1, 59, 0
2, 108840, Note_on_c, 1, 60, 127
2, 108840, Note_off_c, 1, 61, 0
2, 108840, Note_on_c, 1, 70, 127
2, 108840, Note_on_c, 1, 73, 127
2, 108840, Note_on_c, 1, 76, 127
2, 108880, Note_on_c, 1, 49, 127
2, 108880, Note_on_c, 1, 56, 127
2, 108880, Note_off_c, 1, 60, 0
2, 108880, Note_on_c, 1, 65, 127
2, 108880, Note_off_c, 1, 70, 0
2, 108880, Note_on_c, 1, 71, 127
2, 108880, Note_off_c, 1, 73, 0
2, 108880, Note_off_c, 1, 76, 0
2, 108920, Note_off_c, 1, 49, 0
2, 108920, Note_on_c, 1, 54, 127
2, 108920, Note_off_c, 1, 56, 0
2, 108920, Note_off_c, 1, 65, 0
2, 108920, Note_on_c, 1, 76, 127
2, 108920, Note_on_c, 1, 80, 127
2, 108920, Note_on_c, 1, 83, 127
2, 109240, Note_off_c, 1, 54, 0
2, 109240, Note_off_c, 1, 71, 0
2, 109240, Note_off_c, 1, 76, 0
2, 109240, Note_off_c, 1, 80, 0
2, 109240, Note_off_c, 1, 83, 0
2, 109280, Note_on_c, 1, 54, 127
2, 109280, Note_on_c, 1, 71, 127
2, 109280, Note_on_c, 1, 76, 127
2, 109280, Note_on_c, 1, 80, 127
2, 109280, Note_on_c, 1, 83, 127
2, 109360, Note_off_c, 1, 54, 0
2, 109360, Note_off_c, 1, 71, 0
2, 109360, Note_off_c, 1, 76, 0
2, 109360, Note_off_c, 1, 80, 0
2, 109360, Note_off_c, 1, 83, 0
2, 109400, Note_on_c, 1, 33, 127
2, 109400, Note_on_c, 1, 45, 127
2, 109400, Note_on_c, 1, 69, 127
2, 109400, Note_on_c, 1, 76, 127
2, 109400, Note_on_c, 1, 78, 127
2, 109400, Note_on_c, 1, 81, 127
2, 109440, Note_off_c, 1, 33, 0
2, 109440, Note_off_c, 1, 45, 0
2, 109440, Note_on_c, 1, 47, 127
2, 109440, Note_on_c, 1, 51, 127
2, 109440, Note_on_c, 1, 63, 127
2, 109440, Note_on_c, 1, 71, 127
2, 109440, Note_off_c, 1, 76, 0
2, 109440, Note_off_c, 1, 81, 0
2, 109440, Note_on_c, 1, 83, 127
2, 109480, Note_on_c, 1, 33, 127
2, 109480, Note_on_c, 1, 45, 127
2, 109480, Note_off_c, 1, 47, 0
2, 109480, Note_off_c, 1, 51, 0
2, 109480, Note_off_c, 1, 63, 0
2, 109480, Note_off_c, 1, 71, 0
2, 109480, Note_on_c, 1, 76, 127
2, 109480, Note_on_c, 1, 81, 127
2, 109480, Note_off_c, 1, 83, 0
2, 109520, Note_off_c, 1, 33, 0
2, 109520, Note_off_c, 1, 45, 0
2, 109520, Note_on_c, 1, 47, 127
2, 109520, Note_on_c, 1, 51, 127
2, 109520, Note_on_c, 1, 63, 127
2, 109520, Note_on_c, 1, 71, 127
2, 109520, Note_off_c, 1, 76, 0
2, 109520, Note_off_c, 1, 81, 0
2, 109520, Note_on_c, 1, 83, 127
2, 109600, Note_on_c, 1, 43, 127
2, 109600, Note_off_c, 1, 47, 0
2, 109600, Note_off_c, 1, 51, 0
2, 109600, Note_on_c, 1, 55, 127
2, 109600, Note_on_c, 1, 57, 127
2, 109600, Note_on_c, 1, 60, 127
2, 109600, Note_off_c, 1, 63, 0
2, 109600, Note_off_c, 1, 69, 0
2, 109600, Note_off_c, 1, 71, 0
2, 109600, Note_off_c, 1, 78, 0
2, 109600, Note_off_c, 1, 83, 0
2, 109640, Note_off_c, 1, 43, 0
2, 109640, Note_on_c, 1, 47, 127
2, 109640, Note_on_c, 1, 51, 127
2, 109640, Note_off_c, 1, 55, 0
2, 109640, Note_off_c, 1, 57, 0
2, 109640, Note_off_c, 1, 60, 0
2, 109640, Note_on_c, 1, 63, 127
2, 109640, Note_on_c, 1, 69, 127
2, 109640, Note_on_c, 1, 71, 127
2, 109640, Note_on_c, 1, 78, 127
2, 109640, Note_on_c, 1, 83, 127
2, 109960, Note_off_c, 1, 47, 0
2, 109960, Note_off_c, 1, 51, 0
2, 109960, Note_off_c, 1, 63, 0
2, 109960, Note_off_c, 1, 69, 0
2, 109960, Note_off_c, 1, 71, 0
2, 109960, Note_off_c, 1, 78, 0
2, 109960, Note_off_c, 1, 83, 0
2, 110000, Note_on_c, 1, 47, 127
2, 110000, Note_on_c, 1, 51, 127
2, 110000, Note_on_c, 1, 54, 127
2, 110000, Note_on_c, 1, 75, 127
2, 110000, Note_on_c, 1, 81, 127
2, 110000, Note_on_c, 1, 87, 127
2, 110040, Note_off_c, 1, 47, 0
2, 110040, Note_off_c, 1, 51, 0
2, 110040, Note_off_c, 1, 54, 0
2, 110040, Note_on_c, 1, 60, 127
2, 110040, Note_on_c, 1, 70, 127
2, 110040, Note_off_c, 1, 75, 0
2, 110040, Note_on_c, 1, 76, 127
2, 110040, Note_off_c, 1, 81, 0
2, 110040, Note_on_c, 1, 85, 127
2, 110040, Note_off_c, 1, 87, 0
2, 110080, Note_on_c, 1, 34, 127
2, 110080, Note_on_c, 1, 44, 127
2, 110080, Note_off_c, 1, 60, 0
2, 110080, Note_off_c, 1, 70, 0
2, 110080, Note_off_c, 1, 76, 0
2, 110080, Note_off_c, 1, 85, 0
2, 110080, Note_on_c, 1, 86, 127
2, 110080, Note_on_c, 1, 87, 127
2, 110120, Note_off_c, 1, 34, 0
2, 110120, Note_off_c, 1, 44, 0
2, 110120, Note_on_c, 1, 58, 127
2, 110120, Note_on_c, 1, 62, 127
2, 110120, Note_on_c, 1, 65, 127
2, 110120, Note_on_c, 1, 68, 127
2, 110120, Note_on_c, 1, 70, 127
2, 110120, Note_off_c, 1, 86, 0
2, 110120, Note_off_c, 1, 87, 0
2, 110120, Note_on_c, 1, 95, 127
2, 110160, Note_on_c, 1, 51, 127
2, 110160, Note_off_c, 1, 58, 0
2, 110160, Note_off_c, 1, 62, 0
2, 110160, Note_off_c, 1, 65, 0
2, 110160, Note_off_c, 1, 68, 0
2, 110160, Note_off_c, 1, 70, 0
2, 110160, Note_on_c, 1, 81, 127
2, 110160, Note_on_c, 1, 84, 127
2, 110160, Note_on_c, 1, 87, 127
2, 110160, Note_on_c, 1, 93, 127
2, 110160, Note_off_c, 1, 95, 0
2, 110200, Note_on_c, 1, 29, 127
2, 110200, Note_on_c, 1, 33, 127
2, 110200, Note_on_c, 1, 41, 127
2, 110200, Note_off_c, 1, 51, 0
2, 110200, Note_on_c, 1, 69, 127
2, 110200, Note_off_c, 1, 81, 0
2, 110200, Note_off_c, 1, 84, 0
2, 110200, Note_off_c, 1, 87, 0
2, 110200, Note_off_c, 1, 93, 0
2, 110240, Note_off_c, 1, 29, 0
2, 110240, Note_off_c, 1, 33, 0
2, 110240, Note_off_c, 1, 41, 0
2, 110240, Note_on_c, 1, 62, 127
2, 110240, Note_on_c, 1, 66, 127
2, 110240, Note_on_c, 1, 68, 127
2, 110240, Note_off_c, 1, 69, 0
2, 110240, Note_on_c, 1, 71, 127
2, 110240, Note_on_c, 1, 78, 127
2, 110240, Note_on_c, 1, 80, 127
2, 110280, Note_on_c, 1, 51, 127
2, 110280, Note_on_c, 1, 58, 127
2, 110280, Note_off_c, 1, 62, 0
2, 110280, Note_off_c, 1, 68, 0
2, 110280, Note_off_c, 1, 71, 0
2, 110280, Note_on_c, 1, 73, 127
2, 110280, Note_off_c, 1, 80, 0
2, 110320, Note_off_c, 1, 51, 0
2, 110320, Note_off_c, 1, 58, 0
2, 110320, Note_on_c, 1, 62, 127
2, 110320, Note_on_c, 1, 65, 127
2, 110320, Note_off_c, 1, 66, 0
2, 110320, Note_on_c, 1, 72, 127
2, 110320, Note_off_c, 1, 73, 0
2, 110320, Note_off_c, 1, 78, 0
2, 110320, Note_on_c, 1, 82, 127
2, 110320, Note_on_c, 1, 89, 127
2, 110320, Note_on_c, 1, 92, 127
2, 110360, Note_on_c, 1, 46, 127
2, 110360, Note_on_c, 1, 53, 127
2, 110360, Note_on_c, 1, 60, 127
2, 110360, Note_off_c, 1, 82, 0
2, 110360, Note_off_c, 1, 89, 0
2, 110360, Note_off_c, 1, 92, 0
2, 110400, Note_on_c, 1, 42, 127
2, 110400, Note_on_c, 1, 45, 127
2, 110400, Note_off_c, 1, 46, 0
2, 110400, Note_on_c, 1, 49, 127
2, 110400, Note_off_c, 1, 53, 0
2, 110400, Note_on_c, 1, 54, 127
2, 110400, Note_off_c, 1, 60, 0
2, 110400, Note_off_c, 1, 62, 0
2, 110400, Note_off_c, 1, 65, 0
2, 110400, Note_on_c, 1, 66, 127
2, 110400, Note_on_c, 1, 69, 127
2, 110400, Note_off_c, 1, 72, 0
2, 110400, Note_on_c, 1, 73, 127
2, 110400, Note_on_c, 1, 78, 127
2, 110440, Note_off_c, 1, 42, 0
2, 110440, Note_off_c, 1, 45, 0
2, 110440, Note_off_c, 1, 49, 0
2, 110440, Note_off_c, 1, 54, 0
2, 110440, Note_off_c, 1, 66, 0
2, 110440, Note_off_c, 1, 69, 0
2, 110440, Note_off_c, 1, 73, 0
2, 110440, Note_off_c, 1, 78, 0
2, 110440, Note_on_c, 1, 86, 127
2, 110440, Note_on_c, 1, 92, 127
2, 110440, Note_on_c, 1, 95, 127
2, 110440, Note_on_c, 1, 98, 127
2, 110480, Note_on_c, 1, 58, 127
2, 110480, Note_on_c, 1, 64, 127
2, 110480, Note_on_c, 1, 79, 127
2, 110480, Note_on_c, 1, 81, 127
2, 110480, Note_off_c, 1, 86, 0
2, 110480, Note_off_c, 1, 92, 0
2, 110480, Note_off_c, 1, 95, 0
2, 110480, Note_off_c, 1, 98, 0
2, 110520, Note_off_c, 1, 58, 0
2, 110520, Note_on_c, 1, 63, 127
2, 110520, Note_off_c, 1, 64, 0
2, 110520, Note_on_c, 1, 72, 127
2, 110520, Note_off_c, 1, 79, 0
2, 110520, Note_on_c, 1, 80, 127
2, 110520, Note_off_c, 1, 81, 0
2, 110520, Note_on_c, 1, 89, 127
2, 110560, Note_off_c, 1, 63, 0
2, 110560, Note_off_c, 1, 72, 0
2, 110560, Note_off_c, 1, 80, 0
2, 110560, Note_on_c, 1, 86, 127
2, 110560, Note_off_c, 1, 89, 0
2, 110560, Note_on_c, 1, 92, 127
2, 110560, Note_on_c, 1, 95, 127
2, 110560, Note_on_c, 1, 98, 127
2, 110600, Note_on_c, 1, 48, 127
2, 110600, Note_on_c, 1, 82, 127
2, 110600, Note_off_c, 1, 92, 0
2, 110600, Note_on_c, 1, 94, 127
2, 110600, Note_off_c, 1, 95, 0
2, 110600, Note_off_c, 1, 98, 0
2, 110640, Note_on_c, 1, 41, 127
2, 110640, Note_off_c, 1, 48, 0
2, 110640, Note_on_c, 1, 50, 127
2, 110640, Note_on_c, 1, 62, 127
2, 110640, Note_on_c, 1, 65, 127
2, 110640, Note_on_c, 1, 70, 127
2, 110640, Note_on_c, 1, 74, 127
2, 110640, Note_off_c, 1, 82, 0
2, 110640, Note_off_c, 1, 86, 0
2, 110640, Note_off_c, 1, 94, 0
2, 110760, Note_on_c, 1, 35, 127
2, 110760, Note_off_c, 1, 41, 0
2, 110760, Note_on_c, 1, 42, 127
2, 110760, Note_off_c, 1, 50, 0
2, 110760, Note_off_c, 1, 62, 0
2, 110760, Note_off_c, 1, 65, 0
2, 110760, Note_on_c, 1, 66, 127
2, 110760, Note_off_c, 1, 70, 0
2, 110760, Note_off_c, 1, 74, 0
2, 110760, Note_on_c, 1, 78, 127
2, 110800, Note_off_c, 1, 35, 0
2, 110800, Note_on_c, 1, 41, 127
2, 110800, Note_off_c, 1, 42, 0
2, 110800, Note_on_c, 1, 50, 127
2, 110800, Note_on_c, 1, 62, 127
2, 110800, Note_on_c, 1, 65, 127
2, 110800, Note_off_c, 1, 66, 0
2, 110800, Note_on_c, 1, 70, 127
2, 110800, Note_on_c, 1, 74, 127
2, 110800, Note_off_c, 1, 78, 0
2, 110840, Note_off_c, 1, 41, 0
2, 110840, Note_off_c, 1, 50, 0
2, 110840, Note_off_c, 1, 62, 0
2, 110840, Note_off_c, 1, 65, 0
2, 110840, Note_on_c, 1, 68, 127
2, 110840, Note_on_c, 1, 69, 127
2, 110840, Note_off_c, 1, 70, 0
2, 110840, Note_off_c, 1, 74, 0
2, 110840, Note_on_c, 1, 78, 127
2, 110880, Note_on_c, 1, 41, 127
2, 110880, Note_on_c, 1, 57, 127
2, 110880, Note_off_c, 1, 68, 0
2, 110880, Note_off_c, 1, 69, 0
2, 110880, Note_on_c, 1, 72, 127
2, 110880, Note_off_c, 1, 78, 0
2, 110920, Note_off_c, 1, 41, 0
2, 110920, Note_on_c, 1, 52, 127
2, 110920, Note_off_c, 1, 57, 0
2, 110920, Note_on_c, 1, 59, 127
2, 110920, Note_on_c, 1, 61, 127
2, 110920, Note_on_c, 1, 69, 127
2, 110920, Note_off_c, 1, 72, 0
2, 110960, Note_off_c, 1, 52, 0
2, 110960, Note_on_c, 1, 54, 127
2, 110960, Note_on_c, 1, 58, 127
2, 110960, Note_off_c, 1, 59, 0
2, 110960, Note_on_c, 1, 66, 127
2, 110960, Note_off_c, 1, 69, 0
2, 110960, Note_on_c, 1, 82, 127
2, 110960, Note_on_c, 1, 94, 127
2, 111000, Note_off_c, 1, 54, 0
2, 111000, Note_off_c, 1, 58, 0
2, 111000, Note_on_c, 1, 59, 127
2, 111000, Note_off_c, 1, 61, 0
2, 111000, Note_on_c, 1, 70, 127
2, 111000, Note_on_c, 1, 78, 127
2, 111000, Note_off_c, 1, 82, 0
2, 111000, Note_off_c, 1, 94, 0
2, 111040, Note_off_c, 1, 59, 0
2, 111040, Note_off_c, 1, 66, 0
2, 111040, Note_off_c, 1, 70, 0
2, 111040, Note_off_c, 1, 78, 0
2, 111120, Note_on_c, 1, 56, 127
2, 111120, Note_on_c, 1, 60, 127
2, 111120, Note_on_c, 1, 62, 127
2, 111120, Note_on_c, 1, 65, 127
2, 111120, Note_on_c, 1, 72, 127
2, 111240, Note_off_c, 1, 56, 0
2, 111240, Note_off_c, 1, 60, 0
2, 111240, Note_off_c, 1, 62, 0
2, 111240, Note_off_c, 1, 65, 0
2, 111240, Note_off_c, 1, 72, 0
2, 111280, Note_on_c, 1, 56, 127
2, 111280, Note_on_c, 1, 60, 127
2, 111280, Note_on_c, 1, 62, 127
2, 111280, Note_on_c, 1, 65, 127
2, 111280, Note_on_c, 1, 72, 127
2, 111520, Note_off_c, 1, 56, 0
2, 111520, Note_off_c, 1, 60, 0
2, 111520, Note_off_c, 1, 62, 0
2, 111520, Note_off_c, 1, 65, 0
2, 111520, Note_off_c, 1, 72, 0
2, 111880, Note_on_c, 1, 50, 127
2, 111880, Note_on_c, 1, 53, 127
2, 111880, Note_on_c, 1, 56, 127
2, 111880, Note_on_c, 1, 59, 127
2, 111880, Note_on_c, 1, 62, 127
2, 111880, Note_on_c, 1, 83, 127
2, 111880, Note_on_c, 1, 86, 127
2, 111880, Note_on_c, 1, 89, 127
2, 111880, Note_on_c, 1, 92, 127
2, 111880, Note_on_c, 1, 95, 127
2, 112280, Note_off_c, 1, 50, 0
2, 112280, Note_off_c, 1, 53, 0
2, 112280, Note_off_c, 1, 56, 0
2, 112280, Note_off_c, 1, 59, 0
2, 112280, Note_off_c, 1, 62, 0
2, 112280, Note_off_c, 1, 83, 0
2, 112280, Note_off_c, 1, 86, 0
2, 112280, Note_off_c, 1, 89, 0
2, 112280, Note_off_c, 1, 92, 0
2, 112280, Note_off_c, 1, 95, 0
2, 112320, Note_on_c, 1, 34, 127
2, 112320, Note_on_c, 1, 46, 127
2, 112320, Note_on_c, 1, 65, 127
2, 112320, Note_on_c, 1, 70, 127
2, 112320, Note_on_c, 1, 74, 127
2, 112440, Note_off_c, 1, 34, 0
2, 112440, Note_off_c, 1, 46, 0
2, 112440, Note_off_c, 1, 65, 0
2, 112440, Note_off_c, 1, 70, 0
2, 112440, Note_off_c, 1, 74, 0
2, 112480, Note_on_c, 1, 41, 127
2, 112480, Note_on_c, 1, 53, 127
2, 112480, Note_on_c, 1, 60, 127
2, 112480, Note_on_c, 1, 72, 127
2, 112480, Note_on_c, 1, 81, 127
2, 112480, Note_on_c, 1, 93, 127
2, 112760, Note_on_c, 1, 57, 127
2, 112760, Note_off_c, 1, 60, 0
2, 112760, Note_off_c, 1, 72, 0
2, 112760, Note_on_c, 1, 77, 127
2, 112880, Note_off_c, 1, 41, 0
2, 112880, Note_off_c, 1, 53, 0
2, 112880, Note_off_c, 1, 57, 0
2, 112880, Note_off_c, 1, 77, 0
2, 112880, Note_off_c, 1, 81, 0
2, 112880, Note_off_c, 1, 93, 0
2, 112960, Note_on_c, 1, 41, 127
2, 112960, Note_on_c, 1, 50, 127
2, 112960, Note_on_c, 1, 59, 127
2, 112960, Note_on_c, 1, 65, 127
2, 113080, Note_off_c, 1, 41, 0
2, 113080, Note_off_c, 1, 50, 0
2, 113080, Note_off_c, 1, 59, 0
2, 113080, Note_off_c, 1, 65, 0
2, 113120, Note_on_c, 1, 66, 127
2, 113120, Note_on_c, 1, 81, 127
2, 113120, Note_on_c, 1, 84, 127
2, 113120, Note_on_c, 1, 87, 127
2, 113120, Note_on_c, 1, 93, 127
2, 113200, Note_on_c, 1, 43, 127
2, 113200, Note_on_c, 1, 55, 127
2, 113200, Note_on_c, 1, 60, 127
2, 113200, Note_on_c, 1, 64, 127
2, 113200, Note_off_c, 1, 66, 0
2, 113200, Note_on_c, 1, 69, 127
2, 113200, Note_on_c, 1, 72, 127
2, 113200, Note_off_c, 1, 81, 0
2, 113200, Note_off_c, 1, 84, 0
2, 113200, Note_off_c, 1, 87, 0
2, 113200, Note_off_c, 1, 93, 0
2, 113240, Note_off_c, 1, 43, 0
2, 113240, Note_off_c, 1, 55, 0
2, 113240, Note_on_c, 1, 56, 127
2, 113240, Note_on_c, 1, 59, 127
2, 113240, Note_off_c, 1, 60, 0
2, 113240, Note_off_c, 1, 64, 0
2, 113240, Note_on_c, 1, 66, 127
2, 113240, Note_off_c, 1, 69, 0
2, 113240, Note_on_c, 1, 71, 127
2, 113240, Note_off_c, 1, 72, 0
2, 113240, Note_on_c, 1, 78, 127
2, 113240, Note_on_c, 1, 83, 127
2, 113280, Note_off_c, 1, 56, 0
2, 113280, Note_off_c, 1, 59, 0
2, 113280, Note_off_c, 1, 66, 0
2, 113280, Note_off_c, 1, 71, 0
2, 113280, Note_off_c, 1, 78, 0
2, 113280, Note_off_c, 1, 83, 0
2, 113360, Note_on_c, 1, 44, 127
2, 113360, Note_on_c, 1, 48, 127
2, 113360, Note_on_c, 1, 56, 127
2, 113360, Note_on_c, 1, 60, 127
2, 113400, Note_on_c, 1, 42, 127
2, 113400, Note_off_c, 1, 44, 0
2, 113400, Note_off_c, 1, 48, 0
2, 113400, Note_off_c, 1, 60, 0
2, 113400, Note_on_c, 1, 61, 127
2, 113400, Note_on_c, 1, 65, 127
2, 113440, Note_off_c, 1, 42, 0
2, 113440, Note_on_c, 1, 44, 127
2, 113440, Note_on_c, 1, 48, 127
2, 113440, Note_off_c, 1, 61, 0
2, 113440, Note_on_c, 1, 64, 127
2, 113440, Note_off_c, 1, 65, 0
2, 113480, Note_on_c, 1, 42, 127
2, 113480, Note_off_c, 1, 44, 0
2, 113480, Note_off_c, 1, 48, 0
2, 113480, Note_on_c, 1, 61, 127
2, 113480, Note_off_c, 1, 64, 0
2, 113480, Note_on_c, 1, 65, 127
2, 113520, Note_off_c, 1, 42, 0
2, 113520, Note_off_c, 1, 56, 0
2, 113520, Note_off_c, 1, 61, 0
2, 113520, Note_off_c, 1, 65, 0
2, 113560, Note_on_c, 1, 44, 127
2, 113560, Note_on_c, 1, 56, 127
2, 113840, Note_on_c, 1, 38, 127
2, 113840, Note_on_c, 1, 42, 127
2, 113840, Note_off_c, 1, 44, 0
2, 113840, Note_on_c, 1, 45, 127
2, 113840, Note_on_c, 1, 50, 127
2, 113840, Note_off_c, 1, 56, 0
2, 113840, Note_on_c, 1, 74, 127
2, 113840, Note_on_c, 1, 78, 127
2, 113840, Note_on_c, 1, 81, 127
2, 113840, Note_on_c, 1, 86, 127
2, 114720, Note_off_c, 1, 38, 0
2, 114720, Note_off_c, 1, 42, 0
2, 114720, Note_off_c, 1, 45, 0
2, 114720, Note_off_c, 1, 50, 0
2, 114720, Note_off_c, 1, 74, 0
2, 114720, Note_off_c, 1, 78, 0
2, 114720, Note_off_c, 1, 81, 0
2, 114720, Note_off_c, 1, 86, 0
2, 114760, Note_on_c, 1, 60, 127
2, 114760, Note_on_c, 1, 62, 127
2, 114760, Note_on_c, 1, 94, 127
2, 114760, Note_on_c, 1, 98, 127
2, 114800, Note_on_c, 1, 52, 127
2, 114800, Note_on_c, 1, 55, 127
2, 114800, Note_on_c, 1, 58, 127
2, 114800, Note_off_c, 1, 62, 0
2, 114800, Note_on_c, 1, 82, 127
2, 114800, Note_on_c, 1, 86, 127
2, 114800, Note_off_c, 1, 94, 0
2, 114800, Note_off_c, 1, 98, 0
2, 114840, Note_off_c, 1, 52, 0
2, 114840, Note_off_c, 1, 55, 0
2, 114840, Note_off_c, 1, 58, 0
2, 114840, Note_off_c, 1, 60, 0
2, 114840, Note_on_c, 1, 61, 127
2, 114840, Note_on_c, 1, 73, 127
2, 114840, Note_off_c, 1, 82, 0
2, 114840, Note_on_c, 1, 85, 127
2, 114840, Note_off_c, 1, 86, 0
2, 114840, Note_on_c, 1, 88, 127
2, 114840, Note_on_c, 1, 93, 127
2, 114840, Note_on_c, 1, 97, 127
2, 114880, Note_off_c, 1, 61, 0
2, 114880, Note_off_c, 1, 73, 0
2, 114880, Note_off_c, 1, 85, 0
2, 114880, Note_off_c, 1, 88, 0
2, 114880, Note_off_c, 1, 93, 0
2, 114880, Note_off_c, 1, 97, 0
2, 115200, Note_on_c, 1, 70, 127
2, 115200, Note_on_c, 1, 74, 127
2, 115200, Note_on_c, 1, 79, 127
2, 115200, Note_on_c, 1, 82, 127
2, 115200, Note_on_c, 1, 86, 127
2, 115200, Note_on_c, 1, 91, 127
2, 115280, Note_off_c, 1, 70, 0
2, 115280, Note_off_c, 1, 74, 0
2, 115280, Note_off_c, 1, 79, 0
2, 115280, Note_off_c, 1, 82, 0
2, 115280, Note_off_c, 1, 86, 0
2, 115280, Note_off_c, 1, 91, 0
2, 115400, Note_on_c, 1, 42, 127
2, 115400, Note_on_c, 1, 48, 127
2, 115400, Note_on_c, 1, 54, 127
2, 115400, Note_on_c, 1, 81, 127
2, 115400, Note_on_c, 1, 87, 127
2, 115400, Note_on_c, 1, 93, 127
2, 115640, Note_off_c, 1, 42, 0
2, 115640, Note_off_c, 1, 48, 0
2, 115640, Note_off_c, 1, 54, 0
2, 115640, Note_off_c, 1, 81, 0
2, 115640, Note_off_c, 1, 87, 0
2, 115640, Note_off_c, 1, 93, 0
2, 115680, Note_on_c, 1, 36, 127
2, 115680, Note_on_c, 1, 48, 127
2, 115680, Note_on_c, 1, 70, 127
2, 115680, Note_on_c, 1, 76, 127
2, 115680, Note_on_c, 1, 82, 127
2, 115960, Note_off_c, 1, 36, 0
2, 115960, Note_off_c, 1, 48, 0
2, 115960, Note_off_c, 1, 70, 0
2, 115960, Note_off_c, 1, 76, 0
2, 115960, Note_off_c, 1, 82, 0
2, 116000, Note_on_c, 1, 39, 127
2, 116000, Note_on_c, 1, 42, 127
2, 116000, Note_on_c, 1, 51, 127
2, 116000, Note_on_c, 1, 54, 127
2, 116240, Note_off_c, 1, 39, 0
2, 116240, Note_off_c, 1, 42, 0
2, 116240, Note_off_c, 1, 51, 0
2, 116240, Note_off_c, 1, 54, 0
2, 116280, Note_on_c, 1, 38, 127
2, 116280, Note_on_c, 1, 50, 127
2, 116280, Note_on_c, 1, 56, 127
2, 116280, Note_on_c, 1, 68, 127
2, 116280, Note_on_c, 1, 71, 127
2, 116280, Note_on_c, 1, 80, 127
2, 116520, Note_off_c, 1, 38, 0
2, 116520, Note_off_c, 1, 50, 0
2, 116520, Note_off_c, 1, 56, 0
2, 116520, Note_off_c, 1, 68, 0
2, 116520, Note_off_c, 1, 71, 0
2, 116520, Note_off_c, 1, 80, 0
2, 116600, Note_on_c, 1, 31, 127
2, 116600, Note_on_c, 1, 72, 127
2, 116600, Note_on_c, 1, 82, 127
2, 116640, Note_off_c, 1, 31, 0
2, 116640, Note_on_c, 1, 40, 127
2, 116640, Note_on_c, 1, 51, 127
2, 116640, Note_on_c, 1, 56, 127
2, 116640, Note_off_c, 1, 72, 0
2, 116640, Note_off_c, 1, 82, 0
2, 116680, Note_off_c, 1, 40, 0
2, 116680, Note_off_c, 1, 51, 0
2, 116680, Note_off_c, 1, 56, 0
2, 116680, Note_on_c, 1, 58, 127
2, 116680, Note_on_c, 1, 66, 127
2, 116680, Note_on_c, 1, 78, 127
2, 116680, Note_on_c, 1, 83, 127
2, 116720, Note_on_c, 1, 51, 127
2, 116720, Note_on_c, 1, 56, 127
2, 116720, Note_off_c, 1, 58, 0
2, 116720, Note_on_c, 1, 60, 127
2, 116720, Note_on_c, 1, 63, 127
2, 116720, Note_off_c, 1, 66, 0
2, 116720, Note_off_c, 1, 78, 0
2, 116720, Note_off_c, 1, 83, 0
2, 116720, Note_on_c, 1, 87, 127
2, 116760, Note_off_c, 1, 51, 0
2, 116760, Note_off_c, 1, 56, 0
2, 116760, Note_on_c, 1, 58, 127
2, 116760, Note_off_c, 1, 60, 0
2, 116760, Note_on_c, 1, 81, 127
2, 116760, Note_on_c, 1, 86, 127
2, 116760, Note_off_c, 1, 87, 0
2, 116800, Note_off_c, 1, 58, 0
2, 116800, Note_off_c, 1, 63, 0
2, 116800, Note_on_c, 1, 66, 127
2, 116800, Note_on_c, 1, 74, 127
2, 116800, Note_on_c, 1, 78, 127
2, 116800, Note_off_c, 1, 81, 0
2, 116800, Note_off_c, 1, 86, 0
2, 116800, Note_on_c, 1, 90, 127
2, 116800, Note_on_c, 1, 93, 127
2, 116840, Note_off_c, 1, 66, 0
2, 116840, Note_off_c, 1, 74, 0
2, 116840, Note_off_c, 1, 78, 0
2, 116840, Note_off_c, 1, 90, 0
2, 116840, Note_off_c, 1, 93, 0
2, 116880, Note_on_c, 1, 49, 127
2, 116880, Note_on_c, 1, 55, 127
2, 116880, Note_on_c, 1, 65, 127
2, 116880, Note_on_c, 1, 68, 127
2, 116880, Note_on_c, 1, 77, 127
2, 117160, Note_off_c, 1, 49, 0
2, 117160, Note_off_c, 1, 55, 0
2, 117160, Note_off_c, 1, 65, 0
2, 117160, Note_off_c, 1, 68, 0
2, 117160, Note_off_c, 1, 77, 0
2, 117200, Note_on_c, 1, 44, 127
2, 117200, Note_on_c, 1, 56, 127
2, 117200, Note_on_c, 1, 70, 127
2, 117200, Note_on_c, 1, 75, 127
2, 117200, Note_on_c, 1, 79, 127
2, 117200, Note_on_c, 1, 82, 127
2, 117440, Note_off_c, 1, 70, 0
2, 117440, Note_off_c, 1, 75, 0
2, 117440, Note_off_c, 1, 79, 0
2, 117440, Note_off_c, 1, 82, 0
2, 117480, Note_off_c, 1, 44, 0
2, 117480, Note_off_c, 1, 56, 0
2, 117520, Note_on_c, 1, 53, 127
2, 117520, Note_on_c, 1, 60, 127
2, 117520, Note_on_c, 1, 63, 127
2, 117520, Note_on_c, 1, 69, 127
2, 117520, Note_on_c, 1, 75, 127
2, 117520, Note_on_c, 1, 81, 127
2, 117760, Note_off_c, 1, 53, 0
2, 117760, Note_off_c, 1, 60, 0
2, 117760, Note_off_c, 1, 63, 0
2, 117760, Note_off_c, 1, 69, 0
2, 117760, Note_off_c, 1, 75, 0
2, 117760, Note_off_c, 1, 81, 0
2, 117800, Note_on_c, 1, 41, 127
2, 117800, Note_on_c, 1, 53, 127
2, 117800, Note_on_c, 1, 57, 127
2, 117800, Note_on_c, 1, 60, 127
2, 117800, Note_on_c, 1, 69, 127
2, 118040, Note_off_c, 1, 41, 0
2, 118040, Note_off_c, 1, 53, 0
2, 118040, Note_off_c, 1, 57, 0
2, 118040, Note_off_c, 1, 60, 0
2, 118040, Note_off_c, 1, 69, 0
2, 118080, Note_on_c, 1, 29, 127
2, 118080, Note_on_c, 1, 41, 127
2, 118080, Note_on_c, 1, 57, 127
2, 118080, Note_on_c, 1, 65, 127
2, 118080, Note_on_c, 1, 69, 127
2, 118360, Note_off_c, 1, 29, 0
2, 118360, Note_off_c, 1, 41, 0
2, 118360, Note_off_c, 1, 57, 0
2, 118360, Note_off_c, 1, 65, 0
2, 118360, Note_off_c, 1, 69, 0
2, 118400, Note_on_c, 1, 29, 127
2, 118400, Note_on_c, 1, 41, 127
2, 118400, Note_on_c, 1, 57, 127
2, 118400, Note_on_c, 1, 65, 127
2, 118400, Note_on_c, 1, 69, 127
2, 118640, Note_off_c, 1, 29, 0
2, 118640, Note_off_c, 1, 41, 0
2, 118640, Note_off_c, 1, 57, 0
2, 118640, Note_off_c, 1, 65, 0
2, 118640, Note_off_c, 1, 69, 0
2, 118680, Note_on_c, 1, 33, 127
2, 118680, Note_on_c, 1, 40, 127
2, 118680, Note_on_c, 1, 45, 127
2, 118680, Note_on_c, 1, 71, 127
2, 118680, Note_on_c, 1, 83, 127
2, 118920, Note_off_c, 1, 33, 0
2, 118920, Note_off_c, 1, 40, 0
2, 118920, Note_off_c, 1, 45, 0
2, 118920, Note_off_c, 1, 71, 0
2, 118920, Note_off_c, 1, 83, 0
2, 118960, Note_on_c, 1, 31, 127
2, 118960, Note_on_c, 1, 43, 127
2, 118960, Note_on_c, 1, 67, 127
2, 118960, Note_on_c, 1, 70, 127
2, 118960, Note_on_c, 1, 75, 127
2, 118960, Note_on_c, 1, 79, 127
2, 119080, Note_off_c, 1, 67, 0
2, 119080, Note_off_c, 1, 70, 0
2, 119080, Note_off_c, 1, 75, 0
2, 119080, Note_off_c, 1, 79, 0
2, 119120, Note_on_c, 1, 70, 127
2, 119120, Note_on_c, 1, 82, 127
2, 119200, Note_off_c, 1, 70, 0
2, 119200, Note_off_c, 1, 82, 0
2, 119240, Note_off_c, 1, 31, 0
2, 119240, Note_off_c, 1, 43, 0
2, 119280, Note_on_c, 1, 29, 127
2, 119280, Note_on_c, 1, 41, 127
2, 119280, Note_on_c, 1, 65, 127
2, 119280, Note_on_c, 1, 77, 127
2, 119480, Note_off_c, 1, 29, 0
2, 119480, Note_off_c, 1, 41, 0
2, 119480, Note_off_c, 1, 65, 0
2, 119480, Note_off_c, 1, 77, 0
2, 119520, Note_on_c, 1, 29, 127
2, 119520, Note_on_c, 1, 41, 127
2, 119520, Note_on_c, 1, 65, 127
2, 119520, Note_on_c, 1, 77, 127
2, 119560, Note_off_c, 1, 29, 0
2, 119560, Note_off_c, 1, 41, 0
2, 119560, Note_off_c, 1, 65, 0
2, 119560, Note_off_c, 1, 77, 0
2, 119600, Note_on_c, 1, 36, 127
2, 119600, Note_on_c, 1, 43, 127
2, 119600, Note_on_c, 1, 48, 127
2, 119600, Note_on_c, 1, 63, 127
2, 119600, Note_on_c, 1, 67, 127
2, 119600, Note_on_c, 1, 72, 127
2, 119600, Note_on_c, 1, 75, 127
2, 120000, Note_off_c, 1, 36, 0
2, 120000, Note_off_c, 1, 43, 0
2, 120000, Note_off_c, 1, 48, 0
2, 120000, Note_off_c, 1, 63, 0
2, 120000, Note_off_c, 1, 67, 0
2, 120000, Note_off_c, 1, 72, 0
2, 120000, Note_off_c, 1, 75, 0
2, 120040, End_track
3, 0, Start_track
3, 0, Title_t, "MIDI"
3, 1536, End_track
0, 0, End_of_file
