0, 0, Header, 1, 3, 192
1, 0, Start_track
1, 0, Time_signature, 4, 2, 24, 8
1, 0, Tempo, 500000
1, 120040, End_track
2, 0, Start_track
2, 0, Text_t, "random instrument: random person i dunno whatev"
2, 0, Title_t, "Track 1"
2, 0, Note_on_c, 1, 40, 127
2, 0, Note_on_c, 1, 48, 127
2, 0, Note_on_c, 1, 56, 127
2, 0, Note_on_c, 1, 60, 127
2, 40, Note_off_c, 1, 40, 0
2, 40, Note_off_c, 1, 48, 0
2, 40, Note_on_c, 1, 55, 127
2, 40, Note_off_c, 1, 56, 0
2, 40, Note_off_c, 1, 60, 0
2, 40, Note_on_c, 1, 72, 127
2, 40, Note_on_c, 1, 75, 127
2, 40, Note_on_c, 1, 79, 127
2, 40, Note_on_c, 1, 84, 127
2, 80, Note_off_c, 1, 55, 0
2, 80, Note_off_c, 1, 72, 0
2, 80, Note_off_c, 1, 75, 0
2, 80, Note_off_c, 1, 79, 0
2, 80, Note_off_c, 1, 84, 0
2, 120, Note_on_c, 1, 50, 127
2, 120, Note_on_c, 1, 59, 127
2, 120, Note_on_c, 1, 62, 127
2, 120, Note_on_c, 1, 78, 127
2, 160, Note_off_c, 1, 50, 0
2, 160, Note_off_c, 1, 59, 0
2, 160, Note_on_c, 1, 60, 127
2, 160, Note_off_c, 1, 62, 0
2, 160, Note_on_c, 1, 66, 127
2, 160, Note_on_c, 1, 68, 127
2, 160, Note_off_c, 1, 78, 0
2, 160, Note_on_c, 1, 90, 127
2, 200, Note_on_c, 1, 35, 127
2, 200, Note_on_c, 1, 39, 127
2, 200, Note_on_c, 1, 47, 127
2, 200, Note_on_c, 1, 50, 127
2, 200, Note_off_c, 1, 60, 0
2, 200, Note_off_c, 1, 66, 0
2, 200, Note_off_c, 1, 68, 0
2, 200, Note_off_c, 1, 90, 0
2, 240, Note_off_c, 1, 35, 0
2, 240, Note_off_c, 1, 39, 0
2, 240, Note_off_c, 1, 47, 0
2, 240, Note_off_c, 1, 50, 0
2, 240, Note_on_c, 1, 51, 127
2, 240, Note_on_c, 1, 55, 127
2, 240, Note_on_c, 1, 58, 127
2, 240, Note_on_c, 1, 63, 127
2, 240, Note_on_c, 1, 82, 127
2, 240, Note_on_c, 1, 91, 127
2, 280, Note_off_c, 1, 51, 0
2, 280, Note_off_c, 1, 55, 0
2, 280, Note_off_c, 1, 58, 0
2, 280, Note_off_c, 1, 63, 0
2, 280, Note_on_c, 1, 76, 127
2, 280, Note_on_c, 1, 80, 127
2, 280, Note_off_c, 1, 82, 0
2, 280, Note_on_c, 1, 83, 127
2, 280, Note_on_c, 1, 89, 127
2, 280, Note_off_c, 1, 91, 0
2, 320, Note_on_c, 1, 58, 127
2, 320, Note_on_c, 1, 63, 127
2, 320, Note_on_c, 1, 66, 127
2, 320, Note_on_c, 1, 72, 127
2, 320, Note_on_c, 1, 75, 127
2, 320, Note_off_c, 1, 76, 0
2, 320, Note_off_c, 1, 80, 0
2, 320, Note_on_c, 1, 82, 127
2, 320, Note_off_c, 1, 83, 0
2, 320, Note_on_c, 1, 87, 127
2, 320, Note_off_c, 1, 89, 0
2, 360, Note_on_c, 1, 57, 127
2, 360, Note_off_c, 1, 58, 0
2, 360, Note_on_c, 1, 62, 127
2, 360, Note_off_c, 1, 63, 0
2, 360, Note_off_c, 1, 66, 0
2, 360, Note_off_c, 1, 72, 0
2, 360, Note_off_c, 1, 75, 0
2, 360, Note_off_c, 1, 82, 0
2, 360, Note_off_c, 1, 87, 0
2, 400, Note_off_c, 1, 57, 0
2, 400, Note_on_c, 1, 60, 127
2, 400, Note_off_c, 1, 62, 0
2, 400, Note_on_c, 1, 85, 127
2, 400, Note_on_c, 1, 88, 127
2, 440, Note_on_c, 1, 50, 127
2, 440, Note_on_c, 1, 57, 127
2, 440, Note_off_c, 1, 60, 0
2, 440, Note_on_c, 1, 65, 127
2, 440, Note_off_c, 1, 85, 0
2, 440, Note_off_c, 1, 88, 0
2, 440, Note_on_c, 1, 93, 127
2, 800, Note_off_c, 1, 50, 0
2, 800, Note_off_c, 1, 57, 0
2, 800, Note_off_c, 1, 65, 0
2, 800, Note_off_c, 1, 93, 0
2, 5240, Note_on_c, 1, 43, 127
2, 5240, Note_on_c, 1, 50, 127
2, 5240, Note_on_c, 1, 60, 127
2, 5240, Note_on_c, 1, 62, 127
2, 5240, Note_on_c, 1, 69, 127
2, 5480, Note_off_c, 1, 43, 0
2, 5480, Note_off_c, 1, 50, 0
2, 5480, Note_off_c, 1, 60, 0
2, 5480, Note_off_c, 1, 62, 0
2, 5480, Note_off_c, 1, 69, 0
2, 6120, Note_on_c, 1, 47, 127
2, 6120, Note_on_c, 1, 56, 127
2, 6120, Note_on_c, 1, 64, 127
2, 6120, Note_on_c, 1, 70, 127
2, 6160, Note_off_c, 1, 47, 0
2, 6160, Note_off_c, 1, 56, 0
2, 6160, Note_off_c, 1, 64, 0
2, 6160, Note_off_c, 1, 70, 0
2, 6200, Note_on_c, 1, 42, 127
2, 6200, Note_on_c, 1, 52, 127
2, 6200, Note_on_c, 1, 59, 127
2, 6200, Note_on_c, 1, 64, 127
2, 6240, Note_off_c, 1, 42, 0
2, 6240, Note_off_c, 1, 52, 0
2, 6240, Note_off_c, 1, 59, 0
2, 6240, Note_off_c, 1, 64, 0
2, 6280, Note_on_c, 1, 55, 127
2, 6280, Note_on_c, 1, 61, 127
2, 6280, Note_on_c, 1, 64, 127
2, 6280, Note_on_c, 1, 69, 127
2, 6280, Note_on_c, 1, 85, 127
2, 6320, Note_off_c, 1, 55, 0
2, 6320, Note_off_c, 1, 61, 0
2, 6320, Note_off_c, 1, 64, 0
2, 6320, Note_off_c, 1, 69, 0
2, 6320, Note_off_c, 1, 85, 0
2, 6360, Note_on_c, 1, 70, 127
2, 6360, Note_on_c, 1, 78, 127
2, 6360, Note_on_c, 1, 88, 127
2, 6400, Note_off_c, 1, 70, 0
2, 6400, Note_off_c, 1, 78, 0
2, 6400, Note_off_c, 1, 88, 0
2, 6440, Note_on_c, 1, 39, 127
2, 6440, Note_on_c, 1, 55, 127
2, 6440, Note_on_c, 1, 66, 127
2, 6480, Note_off_c, 1, 39, 0
2, 6480, Note_off_c, 1, 55, 0
2, 6480, Note_off_c, 1, 66, 0
2, 6520, Note_on_c, 1, 40, 127
2, 6520, Note_on_c, 1, 47, 127
2, 6520, Note_on_c, 1, 52, 127
2, 6520, Note_on_c, 1, 68, 127
2, 6520, Note_on_c, 1, 71, 127
2, 6520, Note_on_c, 1, 76, 127
2, 6520, Note_on_c, 1, 80, 127
2, 6560, Note_off_c, 1, 40, 0
2, 6560, Note_off_c, 1, 47, 0
2, 6560, Note_off_c, 1, 52, 0
2, 6560, Note_off_c, 1, 68, 0
2, 6560, Note_off_c, 1, 71, 0
2, 6560, Note_off_c, 1, 76, 0
2, 6560, Note_off_c, 1, 80, 0
2, 6600, Note_on_c, 1, 41, 127
2, 6600, Note_on_c, 1, 53, 127
2, 6600, Note_on_c, 1, 56, 127
2, 6600, Note_on_c, 1, 73, 127
2, 6600, Note_on_c, 1, 80, 127
2, 6840, Note_off_c, 1, 41, 0
2, 6840, Note_off_c, 1, 53, 0
2, 6840, Note_off_c, 1, 56, 0
2, 6840, Note_off_c, 1, 73, 0
2, 6840, Note_off_c, 1, 80, 0
2, 7560, Note_on_c, 1, 51, 127
2, 7560, Note_on_c, 1, 54, 127
2, 7560, Note_on_c, 1, 59, 127
2, 7760, Note_off_c, 1, 51, 0
2, 7760, Note_off_c, 1, 54, 0
2, 7760, Note_off_c, 1, 59, 0
2, 7800, Note_on_c, 1, 53, 127
2, 7800, Note_on_c, 1, 56, 127
2, 7800, Note_on_c, 1, 61, 127
2, 8000, Note_off_c, 1, 53, 0
2, 8000, Note_off_c, 1, 56, 0
2, 8000, Note_off_c, 1, 61, 0
2, 8040, Note_on_c, 1, 52, 127
2, 8040, Note_on_c, 1, 56, 127
2, 8040, Note_on_c, 1, 61, 127
2, 8280, Note_off_c, 1, 52, 0
2, 8280, Note_off_c, 1, 56, 0
2, 8280, Note_off_c, 1, 61, 0
2, 8320, Note_on_c, 1, 92, 127
2, 8320, Note_on_c, 1, 95, 127
2, 8360, Note_off_c, 1, 92, 0
2, 8360, Note_off_c, 1, 95, 0
2, 8440, Note_on_c, 1, 81, 127
2, 8440, Note_on_c, 1, 84, 127
2, 8440, Note_on_c, 1, 88, 127
2, 8480, Note_off_c, 1, 81, 0
2, 8480, Note_off_c, 1, 84, 0
2, 8480, Note_off_c, 1, 88, 0
2, 8520, Note_on_c, 1, 92, 127
2, 8520, Note_on_c, 1, 95, 127
2, 8560, Note_off_c, 1, 92, 0
2, 8560, Note_off_c, 1, 95, 0
2, 8600, Note_on_c, 1, 92, 127
2, 8600, Note_on_c, 1, 95, 127
2, 8640, Note_off_c, 1, 92, 0
2, 8640, Note_off_c, 1, 95, 0
2, 8680, Note_on_c, 1, 92, 127
2, 8680, Note_on_c, 1, 95, 127
2, 8720, Note_off_c, 1, 92, 0
2, 8720, Note_off_c, 1, 95, 0
2, 8880, Note_on_c, 1, 37, 127
2, 8880, Note_on_c, 1, 49, 127
2, 8880, Note_on_c, 1, 73, 127
2, 8880, Note_on_c, 1, 85, 127
2, 8920, Note_off_c, 1, 37, 0
2, 8920, Note_off_c, 1, 49, 0
2, 8920, Note_off_c, 1, 73, 0
2, 8920, Note_off_c, 1, 85, 0
2, 9200, Note_on_c, 1, 92, 127
2, 9200, Note_on_c, 1, 95, 127
2, 9200, Note_on_c, 1, 101, 127
2, 9240, Note_off_c, 1, 92, 0
2, 9240, Note_off_c, 1, 95, 0
2, 9240, Note_on_c, 1, 98, 127
2, 9240, Note_off_c, 1, 101, 0
2, 9280, Note_on_c, 1, 97, 127
2, 9280, Note_off_c, 1, 98, 0
2, 9280, Note_on_c, 1, 99, 127
2, 9320, Note_off_c, 1, 97, 0
2, 9320, Note_on_c, 1, 98, 127
2, 9320, Note_off_c, 1, 99, 0
2, 9360, Note_on_c, 1, 35, 127
2, 9360, Note_on_c, 1, 47, 127
2, 9360, Note_off_c, 1, 98, 0
2, 9360, Note_on_c, 1, 100, 127
2, 9400, Note_off_c, 1, 35, 0
2, 9400, Note_off_c, 1, 47, 0
2, 9400, Note_on_c, 1, 97, 127
2, 9400, Note_off_c, 1, 100, 0
2, 9440, Note_off_c, 1, 97, 0
2, 9440, Note_on_c, 1, 99, 127
2, 9440, Note_on_c, 1, 102, 127
2, 9480, Note_on_c, 1, 97, 127
2, 9480, Note_off_c, 1, 99, 0
2, 9480, Note_off_c, 1, 102, 0
2, 9520, Note_on_c, 1, 58, 127
2, 9520, Note_on_c, 1, 67, 127
2, 9520, Note_on_c, 1, 70, 127
2, 9520, Note_on_c, 1, 76, 127
2, 9520, Note_on_c, 1, 85, 127
2, 9520, Note_off_c, 1, 97, 0
2, 9560, Note_off_c, 1, 58, 0
2, 9560, Note_off_c, 1, 67, 0
2, 9560, Note_off_c, 1, 70, 0
2, 9560, Note_off_c, 1, 76, 0
2, 9560, Note_off_c, 1, 85, 0
2, 9560, Note_on_c, 1, 99, 127
2, 9600, Note_on_c, 1, 89, 127
2, 9600, Note_on_c, 1, 95, 127
2, 9600, Note_off_c, 1, 99, 0
2, 9640, Note_on_c, 1, 53, 127
2, 9640, Note_on_c, 1, 57, 127
2, 9640, Note_on_c, 1, 59, 127
2, 9640, Note_on_c, 1, 62, 127
2, 9640, Note_off_c, 1, 89, 0
2, 9640, Note_off_c, 1, 95, 0
2, 9680, Note_off_c, 1, 53, 0
2, 9680, Note_off_c, 1, 57, 0
2, 9680, Note_off_c, 1, 59, 0
2, 9680, Note_off_c, 1, 62, 0
2, 9680, Note_on_c, 1, 92, 127
2, 9720, Note_on_c, 1, 95, 127
2, 9760, Note_off_c, 1, 92, 0
2, 9760, Note_on_c, 1, 93, 127
2, 9760, Note_off_c, 1, 95, 0
2, 9800, Note_on_c, 1, 38, 127
2, 9800, Note_on_c, 1, 50, 127
2, 9800, Note_on_c, 1, 83, 127
2, 9800, Note_off_c, 1, 93, 0
2, 9800, Note_on_c, 1, 95, 127
2, 9840, Note_off_c, 1, 38, 0
2, 9840, Note_off_c, 1, 50, 0
2, 9840, Note_off_c, 1, 83, 0
2, 9880, Note_on_c, 1, 53, 127
2, 9880, Note_on_c, 1, 64, 127
2, 9880, Note_on_c, 1, 68, 127
2, 9880, Note_on_c, 1, 71, 127
2, 9880, Note_off_c, 1, 95, 0
2, 9920, Note_off_c, 1, 53, 0
2, 9920, Note_off_c, 1, 64, 0
2, 9920, Note_off_c, 1, 68, 0
2, 9920, Note_off_c, 1, 71, 0
2, 9920, Note_on_c, 1, 95, 127
2, 9960, Note_off_c, 1, 95, 0
2, 10000, Note_on_c, 1, 83, 127
2, 10000, Note_on_c, 1, 86, 127
2, 10000, Note_on_c, 1, 89, 127
2, 10000, Note_on_c, 1, 92, 127
2, 10000, Note_on_c, 1, 95, 127
2, 10040, Note_off_c, 1, 83, 0
2, 10040, Note_off_c, 1, 86, 0
2, 10040, Note_off_c, 1, 89, 0
2, 10040, Note_off_c, 1, 92, 0
2, 10080, Note_on_c, 1, 91, 127
2, 10080, Note_on_c, 1, 94, 127
2, 10080, Note_off_c, 1, 95, 0
2, 10080, Note_on_c, 1, 99, 127
2, 10120, Note_off_c, 1, 91, 0
2, 10120, Note_off_c, 1, 94, 0
2, 10120, Note_off_c, 1, 99, 0
2, 10640, Note_on_c, 1, 58, 127
2, 10680, Note_off_c, 1, 58, 0
2, 10880, Note_on_c, 1, 58, 127
2, 10960, Note_off_c, 1, 58, 0
2, 10960, Note_on_c, 1, 59, 127
2, 11000, Note_on_c, 1, 58, 127
2, 11000, Note_off_c, 1, 59, 0
2, 11040, Note_off_c, 1, 58, 0
2, 11040, Note_on_c, 1, 63, 127
2, 11080, Note_off_c, 1, 63, 0
2, 13400, Note_on_c, 1, 37, 127
2, 13400, Note_on_c, 1, 49, 127
2, 13840, Note_off_c, 1, 37, 0
2, 13840, Note_off_c, 1, 49, 0
2, 13880, Note_on_c, 1, 38, 127
2, 13880, Note_on_c, 1, 50, 127
2, 13880, Note_on_c, 1, 55, 127
2, 13880, Note_on_c, 1, 67, 127
2, 14240, Note_off_c, 1, 55, 0
2, 14240, Note_off_c, 1, 67, 0
2, 14280, Note_on_c, 1, 55, 127
2, 14280, Note_on_c, 1, 67, 127
2, 14480, Note_off_c, 1, 50, 0
2, 14480, Note_on_c, 1, 53, 127
2, 14480, Note_off_c, 1, 55, 0
2, 14480, Note_off_c, 1, 67, 0
2, 14520, Note_on_c, 1, 50, 127
2, 14520, Note_off_c, 1, 53, 0
2, 14520, Note_on_c, 1, 55, 127
2, 14520, Note_on_c, 1, 67, 127
2, 14640, Note_off_c, 1, 55, 0
2, 14640, Note_on_c, 1, 59, 127
2, 14680, Note_off_c, 1, 38, 0
2, 14680, Note_off_c, 1, 50, 0
2, 14680, Note_on_c, 1, 55, 127
2, 14680, Note_off_c, 1, 59, 0
2, 14720, Note_on_c, 1, 60, 127
2, 14720, Note_off_c, 1, 67, 0
2, 14720, Note_on_c, 1, 69, 127
2, 14720, Note_on_c, 1, 74, 127
2, 15040, Note_off_c, 1, 55, 0
2, 15040, Note_off_c, 1, 60, 0
2, 15040, Note_off_c, 1, 69, 0
2, 15040, Note_off_c, 1, 74, 0
2, 18240, Note_on_c, 1, 40, 127
2, 18240, Note_on_c, 1, 52, 127
2, 18240, Note_on_c, 1, 64, 127
2, 18600, Note_off_c, 1, 40, 0
2, 18600, Note_off_c, 1, 52, 0
2, 18600, Note_off_c, 1, 64, 0
2, 19840, Note_on_c, 1, 36, 127
2, 19840, Note_on_c, 1, 48, 127
2, 20760, Note_off_c, 1, 36, 0
2, 20760, Note_off_c, 1, 48, 0
2, 20800, Note_on_c, 1, 36, 127
2, 20800, Note_on_c, 1, 48, 127
2, 21280, Note_off_c, 1, 36, 0
2, 21280, Note_off_c, 1, 48, 0
2, 21920, Note_on_c, 1, 31, 127
2, 21920, Note_on_c, 1, 43, 127
2, 21920, Note_on_c, 1, 71, 127
2, 22080, Note_off_c, 1, 71, 0
2, 22080, Note_on_c, 1, 74, 127
2, 22400, Note_on_c, 1, 71, 127
2, 22400, Note_off_c, 1, 74, 0
2, 22440, Note_off_c, 1, 71, 0
2, 22440, Note_on_c, 1, 74, 127
2, 23120, Note_on_c, 1, 65, 127
2, 23200, Note_off_c, 1, 65, 0
2, 23200, Note_off_c, 1, 74, 0
2, 23240, Note_off_c, 1, 31, 0
2, 23240, Note_off_c, 1, 43, 0
2, 23240, Note_on_c, 1, 67, 127
2, 23280, Note_off_c, 1, 67, 0
2, 23320, Note_on_c, 1, 68, 127
2, 23360, Note_on_c, 1, 67, 127
2, 23360, Note_off_c, 1, 68, 0
2, 23480, Note_on_c, 1, 64, 127
2, 23480, Note_off_c, 1, 67, 0
2, 23520, Note_off_c, 1, 64, 0
2, 23520, Note_on_c, 1, 67, 127
2, 23560, Note_on_c, 1, 64, 127
2, 23560, Note_off_c, 1, 67, 0
2, 23600, Note_off_c, 1, 64, 0
2, 23600, Note_on_c, 1, 67, 127
2, 23640, Note_off_c, 1, 67, 0
2, 23640, Note_on_c, 1, 68, 127
2, 23680, Note_off_c, 1, 68, 0
2, 23680, Note_on_c, 1, 70, 127
2, 23720, Note_on_c, 1, 68, 127
2, 23720, Note_off_c, 1, 70, 0
2, 23760, Note_on_c, 1, 67, 127
2, 23760, Note_off_c, 1, 68, 0
2, 23800, Note_on_c, 1, 64, 127
2, 23800, Note_off_c, 1, 67, 0
2, 23840, Note_on_c, 1, 63, 127
2, 23840, Note_off_c, 1, 64, 0
2, 23880, Note_on_c, 1, 60, 127
2, 23880, Note_off_c, 1, 63, 0
2, 23920, Note_on_c, 1, 58, 127
2, 23920, Note_off_c, 1, 60, 0
2, 23960, Note_on_c, 1, 57, 127
2, 23960, Note_off_c, 1, 58, 0
2, 24000, Note_on_c, 1, 53, 127
2, 24000, Note_off_c, 1, 57, 0
2, 24040, Note_on_c, 1, 50, 127
2, 24040, Note_off_c, 1, 53, 0
2, 24080, Note_on_c, 1, 48, 127
2, 24080, Note_off_c, 1, 50, 0
2, 24160, Note_off_c, 1, 48, 0
2, 24160, Note_on_c, 1, 50, 127
2, 24200, Note_on_c, 1, 48, 127
2, 24200, Note_off_c, 1, 50, 0
2, 24240, Note_off_c, 1, 48, 0
2, 24240, Note_on_c, 1, 55, 127
2, 24280, Note_off_c, 1, 55, 0
2, 24280, Note_on_c, 1, 59, 127
2, 24320, Note_off_c, 1, 59, 0
2, 24320, Note_on_c, 1, 64, 127
2, 24360, Note_on_c, 1, 57, 127
2, 24360, Note_off_c, 1, 64, 0
2, 24440, Note_off_c, 1, 57, 0
2, 24440, Note_on_c, 1, 60, 127
2, 24480, Note_off_c, 1, 60, 0
2, 24480, Note_on_c, 1, 62, 127
2, 24520, Note_off_c, 1, 62, 0
2, 24520, Note_on_c, 1, 64, 127
2, 24560, Note_off_c, 1, 64, 0
2, 24560, Note_on_c, 1, 65, 127
2, 24640, Note_off_c, 1, 65, 0
2, 24640, Note_on_c, 1, 68, 127
2, 24680, Note_off_c, 1, 68, 0
2, 24680, Note_on_c, 1, 69, 127
2, 24760, Note_off_c, 1, 69, 0
2, 24760, Note_on_c, 1, 72, 127
2, 24800, Note_on_c, 1, 71, 127
2, 24800, Note_off_c, 1, 72, 0
2, 24840, Note_off_c, 1, 71, 0
2, 24840, Note_on_c, 1, 72, 127
2, 24880, Note_off_c, 1, 72, 0
2, 24880, Note_on_c, 1, 74, 127
2, 24960, Note_off_c, 1, 74, 0
2, 24960, Note_on_c, 1, 77, 127
2, 25000, Note_on_c, 1, 76, 127
2, 25000, Note_off_c, 1, 77, 0
2, 25040, Note_on_c, 1, 74, 127
2, 25040, Note_off_c, 1, 76, 0
2, 25080, Note_off_c, 1, 74, 0
2, 25080, Note_on_c, 1, 77, 127
2, 25120, Note_on_c, 1, 76, 127
2, 25120, Note_off_c, 1, 77, 0
2, 25160, Note_off_c, 1, 76, 0
2, 26680, Note_on_c, 1, 68, 127
2, 27320, Note_off_c, 1, 68, 0
2, 27360, Note_on_c, 1, 43, 127
2, 27360, Note_on_c, 1, 72, 127
2, 28520, Note_off_c, 1, 43, 0
2, 29120, Note_off_c, 1, 72, 0
2, 29160, Note_on_c, 1, 72, 127
2, 29960, Note_off_c, 1, 72, 0
2, 30000, Note_on_c, 1, 71, 127
2, 30360, Note_off_c, 1, 71, 0
2, 30400, Note_on_c, 1, 72, 127
2, 30760, Note_on_c, 1, 69, 127
2, 31120, Note_off_c, 1, 69, 0
2, 31160, Note_off_c, 1, 72, 0
2, 31200, Note_on_c, 1, 62, 127
2, 31200, Note_on_c, 1, 72, 127
2, 31560, Note_off_c, 1, 62, 0
2, 31560, Note_off_c, 1, 72, 0
2, 31600, Note_on_c, 1, 65, 127
2, 31600, Note_on_c, 1, 71, 127
2, 31960, Note_off_c, 1, 65, 0
2, 31960, Note_off_c, 1, 71, 0
2, 32000, Note_on_c, 1, 65, 127
2, 32000, Note_on_c, 1, 71, 127
2, 32360, Note_off_c, 1, 65, 0
2, 32360, Note_off_c, 1, 71, 0
2, 32400, Note_on_c, 1, 62, 127
2, 32400, Note_on_c, 1, 73, 127
2, 32760, Note_off_c, 1, 62, 0
2, 32760, Note_off_c, 1, 73, 0
2, 32800, Note_on_c, 1, 65, 127
2, 32800, Note_on_c, 1, 71, 127
2, 33160, Note_off_c, 1, 65, 0
2, 33160, Note_off_c, 1, 71, 0
2, 33240, Note_on_c, 1, 62, 127
2, 33240, Note_on_c, 1, 71, 127
2, 33600, Note_off_c, 1, 62, 0
2, 33600, Note_off_c, 1, 71, 0
2, 34840, Note_on_c, 1, 45, 127
2, 34840, Note_on_c, 1, 57, 127
2, 34840, Note_on_c, 1, 73, 127
2, 34840, Note_on_c, 1, 79, 127
2, 35880, Note_off_c, 1, 45, 0
2, 35880, Note_off_c, 1, 57, 0
2, 35880, Note_off_c, 1, 73, 0
2, 35880, Note_off_c, 1, 79, 0
2, 36040, Note_on_c, 1, 45, 127
2, 36240, Note_off_c, 1, 45, 0
2, 36600, Note_on_c, 1, 41, 127
2, 36600, Note_on_c, 1, 45, 127
2, 36800, Note_off_c, 1, 41, 0
2, 36800, Note_on_c, 1, 49, 127
2, 36840, Note_off_c, 1, 49, 0
2, 37120, Note_off_c, 1, 45, 0
2, 37160, Note_on_c, 1, 45, 127
2, 37400, Note_off_c, 1, 45, 0
2, 37440, Note_on_c, 1, 38, 127
2, 37680, Note_off_c, 1, 38, 0
2, 37720, Note_on_c, 1, 38, 127
2, 37720, Note_on_c, 1, 62, 127
2, 38320, Note_off_c, 1, 38, 0
2, 38320, Note_off_c, 1, 62, 0
2, 38360, Note_on_c, 1, 38, 127
2, 38360, Note_on_c, 1, 54, 127
2, 38360, Note_on_c, 1, 62, 127
2, 38880, Note_off_c, 1, 38, 0
2, 38880, Note_off_c, 1, 54, 0
2, 38880, Note_off_c, 1, 62, 0
2, 47680, Note_on_c, 1, 47, 127
2, 47680, Note_on_c, 1, 57, 127
2, 47680, Note_on_c, 1, 62, 127
2, 47680, Note_on_c, 1, 68, 127
2, 47680, Note_on_c, 1, 71, 127
2, 47800, Note_off_c, 1, 47, 0
2, 47800, Note_on_c, 1, 55, 127
2, 47800, Note_off_c, 1, 57, 0
2, 47800, Note_on_c, 1, 61, 127
2, 47800, Note_off_c, 1, 62, 0
2, 47800, Note_off_c, 1, 68, 0
2, 47800, Note_on_c, 1, 70, 127
2, 47800, Note_off_c, 1, 71, 0
2, 47800, Note_on_c, 1, 79, 127
2, 47800, Note_on_c, 1, 82, 127
2, 47840, Note_on_c, 1, 47, 127
2, 47840, Note_off_c, 1, 55, 0
2, 47840, Note_on_c, 1, 57, 127
2, 47840, Note_off_c, 1, 61, 0
2, 47840, Note_on_c, 1, 62, 127
2, 47840, Note_on_c, 1, 68, 127
2, 47840, Note_off_c, 1, 70, 0
2, 47840, Note_on_c, 1, 71, 127
2, 47840, Note_off_c, 1, 79, 0
2, 47840, Note_off_c, 1, 82, 0
2, 47920, Note_off_c, 1, 47, 0
2, 47920, Note_off_c, 1, 57, 0
2, 47920, Note_off_c, 1, 62, 0
2, 47920, Note_off_c, 1, 68, 0
2, 47920, Note_off_c, 1, 71, 0
2, 47960, Note_on_c, 1, 52, 127
2, 47960, Note_on_c, 1, 59, 127
2, 47960, Note_on_c, 1, 67, 127
2, 47960, Note_on_c, 1, 71, 127
2, 47960, Note_on_c, 1, 76, 127
2, 47960, Note_on_c, 1, 79, 127
2, 48200, Note_off_c, 1, 52, 0
2, 48200, Note_off_c, 1, 59, 0
2, 48200, Note_off_c, 1, 67, 0
2, 48200, Note_off_c, 1, 71, 0
2, 48200, Note_off_c, 1, 76, 0
2, 48200, Note_off_c, 1, 79, 0
2, 48240, Note_on_c, 1, 41, 127
2, 48240, Note_on_c, 1, 53, 127
2, 48240, Note_on_c, 1, 69, 127
2, 48240, Note_on_c, 1, 76, 127
2, 48240, Note_on_c, 1, 81, 127
2, 48480, Note_off_c, 1, 41, 0
2, 48480, Note_off_c, 1, 53, 0
2, 48480, Note_off_c, 1, 69, 0
2, 48480, Note_off_c, 1, 76, 0
2, 48480, Note_off_c, 1, 81, 0
2, 48520, Note_on_c, 1, 41, 127
2, 48520, Note_on_c, 1, 53, 127
2, 48520, Note_on_c, 1, 69, 127
2, 48520, Note_on_c, 1, 76, 127
2, 48520, Note_on_c, 1, 81, 127
2, 48760, Note_off_c, 1, 41, 0
2, 48760, Note_off_c, 1, 53, 0
2, 48760, Note_off_c, 1, 69, 0
2, 48760, Note_off_c, 1, 76, 0
2, 48760, Note_off_c, 1, 81, 0
2, 48800, Note_on_c, 1, 41, 127
2, 48800, Note_on_c, 1, 53, 127
2, 48800, Note_on_c, 1, 69, 127
2, 48800, Note_on_c, 1, 76, 127
2, 48800, Note_on_c, 1, 81, 127
2, 49040, Note_off_c, 1, 41, 0
2, 49040, Note_off_c, 1, 53, 0
2, 49040, Note_off_c, 1, 69, 0
2, 49040, Note_off_c, 1, 76, 0
2, 49040, Note_off_c, 1, 81, 0
2, 49080, Note_on_c, 1, 41, 127
2, 49080, Note_on_c, 1, 53, 127
2, 49080, Note_on_c, 1, 69, 127
2, 49080, Note_on_c, 1, 76, 127
2, 49080, Note_on_c, 1, 81, 127
2, 49320, Note_off_c, 1, 41, 0
2, 49320, Note_off_c, 1, 53, 0
2, 49320, Note_off_c, 1, 69, 0
2, 49320, Note_off_c, 1, 76, 0
2, 49320, Note_off_c, 1, 81, 0
2, 49360, Note_on_c, 1, 41, 127
2, 49360, Note_on_c, 1, 53, 127
2, 49360, Note_on_c, 1, 69, 127
2, 49360, Note_on_c, 1, 76, 127
2, 49360, Note_on_c, 1, 81, 127
2, 49520, Note_off_c, 1, 41, 0
2, 49520, Note_off_c, 1, 53, 0
2, 49520, Note_off_c, 1, 69, 0
2, 49520, Note_off_c, 1, 76, 0
2, 49520, Note_off_c, 1, 81, 0
2, 49560, Note_on_c, 1, 41, 127
2, 49560, Note_on_c, 1, 53, 127
2, 49560, Note_on_c, 1, 69, 127
2, 49560, Note_on_c, 1, 76, 127
2, 49560, Note_on_c, 1, 81, 127
2, 49640, Note_off_c, 1, 41, 0
2, 49640, Note_off_c, 1, 53, 0
2, 49640, Note_off_c, 1, 69, 0
2, 49640, Note_off_c, 1, 76, 0
2, 49640, Note_off_c, 1, 81, 0
2, 49680, Note_on_c, 1, 48, 127
2, 49680, Note_on_c, 1, 51, 127
2, 49680, Note_on_c, 1, 55, 127
2, 49680, Note_on_c, 1, 60, 127
2, 49680, Note_on_c, 1, 79, 127
2, 49680, Note_on_c, 1, 84, 127
2, 49680, Note_on_c, 1, 87, 127
2, 49680, Note_on_c, 1, 91, 127
2, 49920, Note_off_c, 1, 48, 0
2, 49920, Note_off_c, 1, 51, 0
2, 49920, Note_off_c, 1, 55, 0
2, 49920, Note_off_c, 1, 60, 0
2, 49920, Note_off_c, 1, 79, 0
2, 49920, Note_off_c, 1, 84, 0
2, 49920, Note_off_c, 1, 87, 0
2, 49920, Note_off_c, 1, 91, 0
2, 49960, Note_on_c, 1, 48, 127
2, 49960, Note_on_c, 1, 51, 127
2, 49960, Note_on_c, 1, 55, 127
2, 49960, Note_on_c, 1, 60, 127
2, 49960, Note_on_c, 1, 79, 127
2, 49960, Note_on_c, 1, 84, 127
2, 49960, Note_on_c, 1, 87, 127
2, 49960, Note_on_c, 1, 91, 127
2, 50200, Note_off_c, 1, 48, 0
2, 50200, Note_off_c, 1, 51, 0
2, 50200, Note_off_c, 1, 55, 0
2, 50200, Note_off_c, 1, 60, 0
2, 50200, Note_off_c, 1, 79, 0
2, 50200, Note_off_c, 1, 84, 0
2, 50200, Note_off_c, 1, 87, 0
2, 50200, Note_off_c, 1, 91, 0
2, 50240, Note_on_c, 1, 48, 127
2, 50240, Note_on_c, 1, 51, 127
2, 50240, Note_on_c, 1, 55, 127
2, 50240, Note_on_c, 1, 60, 127
2, 50240, Note_on_c, 1, 79, 127
2, 50240, Note_on_c, 1, 84, 127
2, 50240, Note_on_c, 1, 87, 127
2, 50240, Note_on_c, 1, 91, 127
2, 50480, Note_off_c, 1, 48, 0
2, 50480, Note_off_c, 1, 51, 0
2, 50480, Note_off_c, 1, 55, 0
2, 50480, Note_off_c, 1, 60, 0
2, 50480, Note_off_c, 1, 79, 0
2, 50480, Note_off_c, 1, 84, 0
2, 50480, Note_off_c, 1, 87, 0
2, 50480, Note_off_c, 1, 91, 0
2, 50520, Note_on_c, 1, 48, 127
2, 50520, Note_on_c, 1, 51, 127
2, 50520, Note_on_c, 1, 55, 127
2, 50520, Note_on_c, 1, 60, 127
2, 50520, Note_on_c, 1, 79, 127
2, 50520, Note_on_c, 1, 84, 127
2, 50520, Note_on_c, 1, 87, 127
2, 50520, Note_on_c, 1, 91, 127
2, 50720, Note_off_c, 1, 48, 0
2, 50720, Note_off_c, 1, 51, 0
2, 50720, Note_off_c, 1, 55, 0
2, 50720, Note_off_c, 1, 60, 0
2, 50720, Note_off_c, 1, 79, 0
2, 50720, Note_off_c, 1, 84, 0
2, 50720, Note_off_c, 1, 87, 0
2, 50720, Note_off_c, 1, 91, 0
2, 50800, Note_on_c, 1, 58, 127
2, 50800, Note_on_c, 1, 62, 127
2, 50800, Note_on_c, 1, 77, 127
2, 50800, Note_on_c, 1, 89, 127
2, 51000, Note_off_c, 1, 58, 0
2, 51000, Note_off_c, 1, 62, 0
2, 51000, Note_off_c, 1, 77, 0
2, 51000, Note_off_c, 1, 89, 0
2, 51040, Note_on_c, 1, 58, 127
2, 51040, Note_on_c, 1, 67, 127
2, 51040, Note_on_c, 1, 82, 127
2, 51040, Note_on_c, 1, 94, 127
2, 51280, Note_off_c, 1, 58, 0
2, 51280, Note_off_c, 1, 67, 0
2, 51280, Note_off_c, 1, 82, 0
2, 51280, Note_off_c, 1, 94, 0
2, 51320, Note_on_c, 1, 61, 127
2, 51320, Note_on_c, 1, 65, 127
2, 51320, Note_on_c, 1, 70, 127
2, 51320, Note_on_c, 1, 77, 127
2, 51320, Note_on_c, 1, 82, 127
2, 51560, Note_off_c, 1, 61, 0
2, 51560, Note_off_c, 1, 65, 0
2, 51560, Note_off_c, 1, 70, 0
2, 51560, Note_off_c, 1, 77, 0
2, 51560, Note_off_c, 1, 82, 0
2, 51640, Note_on_c, 1, 61, 127
2, 51640, Note_on_c, 1, 65, 127
2, 51640, Note_on_c, 1, 70, 127
2, 51640, Note_on_c, 1, 77, 127
2, 51640, Note_on_c, 1, 82, 127
2, 51880, Note_off_c, 1, 61, 0
2, 51880, Note_off_c, 1, 65, 0
2, 51880, Note_off_c, 1, 70, 0
2, 51880, Note_off_c, 1, 77, 0
2, 51880, Note_off_c, 1, 82, 0
2, 51920, Note_on_c, 1, 61, 127
2, 51920, Note_on_c, 1, 65, 127
2, 51920, Note_on_c, 1, 70, 127
2, 51920, Note_on_c, 1, 77, 127
2, 51920, Note_on_c, 1, 82, 127
2, 52160, Note_off_c, 1, 61, 0
2, 52160, Note_off_c, 1, 65, 0
2, 52160, Note_off_c, 1, 70, 0
2, 52160, Note_off_c, 1, 77, 0
2, 52160, Note_off_c, 1, 82, 0
2, 52200, Note_on_c, 1, 61, 127
2, 52200, Note_on_c, 1, 65, 127
2, 52200, Note_on_c, 1, 70, 127
2, 52200, Note_on_c, 1, 77, 127
2, 52200, Note_on_c, 1, 82, 127
2, 52440, Note_off_c, 1, 61, 0
2, 52440, Note_off_c, 1, 65, 0
2, 52440, Note_off_c, 1, 70, 0
2, 52440, Note_off_c, 1, 77, 0
2, 52440, Note_off_c, 1, 82, 0
2, 52480, Note_on_c, 1, 44, 127
2, 52480, Note_on_c, 1, 51, 127
2, 52480, Note_on_c, 1, 56, 127
2, 52480, Note_on_c, 1, 72, 127
2, 52480, Note_on_c, 1, 80, 127
2, 52480, Note_on_c, 1, 84, 127
2, 52720, Note_off_c, 1, 44, 0
2, 52720, Note_off_c, 1, 51, 0
2, 52720, Note_off_c, 1, 56, 0
2, 52720, Note_off_c, 1, 72, 0
2, 52720, Note_off_c, 1, 80, 0
2, 52720, Note_off_c, 1, 84, 0
2, 52760, Note_on_c, 1, 42, 127
2, 52760, Note_on_c, 1, 54, 127
2, 52760, Note_on_c, 1, 90, 127
2, 52760, Note_on_c, 1, 102, 127
2, 53000, Note_off_c, 1, 42, 0
2, 53000, Note_off_c, 1, 54, 0
2, 53000, Note_off_c, 1, 90, 0
2, 53000, Note_off_c, 1, 102, 0
2, 53040, Note_on_c, 1, 42, 127
2, 53040, Note_on_c, 1, 54, 127
2, 53040, Note_on_c, 1, 90, 127
2, 53040, Note_on_c, 1, 102, 127
2, 53280, Note_off_c, 1, 42, 0
2, 53280, Note_off_c, 1, 54, 0
2, 53280, Note_off_c, 1, 90, 0
2, 53280, Note_off_c, 1, 102, 0
2, 53320, Note_on_c, 1, 58, 127
2, 53320, Note_on_c, 1, 70, 127
2, 53320, Note_on_c, 1, 82, 127
2, 53320, Note_on_c, 1, 94, 127
2, 53520, Note_off_c, 1, 58, 0
2, 53520, Note_off_c, 1, 70, 0
2, 53520, Note_off_c, 1, 82, 0
2, 53520, Note_off_c, 1, 94, 0
2, 53600, Note_on_c, 1, 54, 127
2, 53600, Note_on_c, 1, 66, 127
2, 53600, Note_on_c, 1, 78, 127
2, 53600, Note_on_c, 1, 90, 127
2, 53800, Note_off_c, 1, 54, 0
2, 53800, Note_off_c, 1, 66, 0
2, 53800, Note_off_c, 1, 78, 0
2, 53800, Note_off_c, 1, 90, 0
2, 53880, Note_on_c, 1, 54, 127
2, 53880, Note_on_c, 1, 78, 127
2, 54120, Note_off_c, 1, 54, 0
2, 54120, Note_off_c, 1, 78, 0
2, 54720, Note_on_c, 1, 37, 127
2, 54720, Note_on_c, 1, 61, 127
2, 54880, Note_off_c, 1, 37, 0
2, 54880, Note_off_c, 1, 61, 0
2, 54920, Note_on_c, 1, 52, 127
2, 55120, Note_off_c, 1, 52, 0
2, 55160, Note_on_c, 1, 57, 127
2, 55400, Note_off_c, 1, 57, 0
2, 55440, Note_on_c, 1, 57, 127
2, 55640, Note_off_c, 1, 57, 0
2, 55720, Note_on_c, 1, 52, 127
2, 55960, Note_off_c, 1, 52, 0
2, 56000, Note_on_c, 1, 57, 127
2, 56040, Note_off_c, 1, 57, 0
2, 56040, Note_on_c, 1, 58, 127
2, 56160, Note_off_c, 1, 58, 0
2, 56200, Note_on_c, 1, 58, 127
2, 56240, Note_off_c, 1, 58, 0
2, 56280, Note_on_c, 1, 62, 127
2, 56520, Note_off_c, 1, 62, 0
2, 56560, Note_on_c, 1, 73, 127
2, 56760, Note_off_c, 1, 73, 0
2, 56800, Note_on_c, 1, 43, 127
2, 57000, Note_off_c, 1, 43, 0
2, 57040, Note_on_c, 1, 34, 127
2, 58600, Note_off_c, 1, 34, 0
2, 58680, Note_on_c, 1, 43, 127
2, 58680, Note_on_c, 1, 50, 127
2, 58920, Note_off_c, 1, 43, 0
2, 58920, Note_off_c, 1, 50, 0
2, 58960, Note_on_c, 1, 49, 127
2, 58960, Note_on_c, 1, 58, 127
2, 59160, Note_off_c, 1, 49, 0
2, 59160, Note_off_c, 1, 58, 0
2, 59200, Note_on_c, 1, 50, 127
2, 59200, Note_on_c, 1, 59, 127
2, 59440, Note_off_c, 1, 50, 0
2, 59440, Note_off_c, 1, 59, 0
2, 59480, Note_on_c, 1, 42, 127
2, 59480, Note_on_c, 1, 49, 127
2, 59680, Note_off_c, 1, 42, 0
2, 59680, Note_off_c, 1, 49, 0
2, 59760, Note_on_c, 1, 42, 127
2, 59760, Note_on_c, 1, 49, 127
2, 59960, Note_off_c, 1, 42, 0
2, 59960, Note_off_c, 1, 49, 0
2, 60000, Note_on_c, 1, 47, 127
2, 60000, Note_on_c, 1, 55, 127
2, 60240, Note_off_c, 1, 47, 0
2, 60240, Note_off_c, 1, 55, 0
2, 60280, Note_on_c, 1, 47, 127
2, 60280, Note_on_c, 1, 55, 127
2, 60480, Note_off_c, 1, 47, 0
2, 60480, Note_off_c, 1, 55, 0
2, 60520, Note_on_c, 1, 47, 127
2, 60520, Note_on_c, 1, 55, 127
2, 60760, Note_off_c, 1, 47, 0
2, 60760, Note_off_c, 1, 55, 0
2, 60800, Note_on_c, 1, 47, 127
2, 60800, Note_on_c, 1, 55, 127
2, 60960, Note_off_c, 1, 47, 0
2, 60960, Note_off_c, 1, 55, 0
2, 61000, Note_on_c, 1, 47, 127
2, 61000, Note_on_c, 1, 55, 127
2, 61040, Note_off_c, 1, 47, 0
2, 61040, Note_off_c, 1, 55, 0
2, 61080, Note_on_c, 1, 47, 127
2, 61080, Note_on_c, 1, 59, 127
2, 61320, Note_off_c, 1, 47, 0
2, 61320, Note_off_c, 1, 59, 0
2, 61360, Note_on_c, 1, 47, 127
2, 61360, Note_on_c, 1, 55, 127
2, 61560, Note_off_c, 1, 47, 0
2, 61600, Note_on_c, 1, 60, 127
2, 61840, Note_off_c, 1, 55, 0
2, 61840, Note_off_c, 1, 60, 0
2, 61880, Note_on_c, 1, 53, 127
2, 61880, Note_on_c, 1, 65, 127
2, 62120, Note_off_c, 1, 53, 0
2, 62120, Note_off_c, 1, 65, 0
2, 62160, Note_on_c, 1, 52, 127
2, 62160, Note_on_c, 1, 55, 127
2, 62360, Note_off_c, 1, 52, 0
2, 62360, Note_off_c, 1, 55, 0
2, 62400, Note_on_c, 1, 65, 127
2, 62400, Note_on_c, 1, 72, 127
2, 62640, Note_off_c, 1, 65, 0
2, 62640, Note_off_c, 1, 72, 0
2, 62680, Note_on_c, 1, 54, 127
2, 62680, Note_on_c, 1, 62, 127
2, 62920, Note_off_c, 1, 54, 0
2, 62920, Note_off_c, 1, 62, 0
2, 63000, Note_on_c, 1, 54, 127
2, 63000, Note_on_c, 1, 72, 127
2, 63200, Note_off_c, 1, 54, 0
2, 63200, Note_off_c, 1, 72, 0
2, 63240, Note_on_c, 1, 55, 127
2, 63240, Note_on_c, 1, 71, 127
2, 63480, Note_off_c, 1, 55, 0
2, 63480, Note_off_c, 1, 71, 0
2, 63520, Note_on_c, 1, 48, 127
2, 63520, Note_on_c, 1, 69, 127
2, 63720, Note_off_c, 1, 48, 0
2, 63720, Note_off_c, 1, 69, 0
2, 63760, Note_on_c, 1, 52, 127
2, 63760, Note_on_c, 1, 64, 127
2, 64000, Note_off_c, 1, 52, 0
2, 64000, Note_off_c, 1, 64, 0
2, 64040, Note_on_c, 1, 49, 127
2, 64040, Note_on_c, 1, 55, 127
2, 64240, Note_off_c, 1, 49, 0
2, 64240, Note_off_c, 1, 55, 0
2, 64280, Note_on_c, 1, 47, 127
2, 64280, Note_on_c, 1, 62, 127
2, 64520, Note_off_c, 1, 47, 0
2, 64520, Note_off_c, 1, 62, 0
2, 64560, Note_on_c, 1, 47, 127
2, 64560, Note_on_c, 1, 55, 127
2, 64800, Note_off_c, 1, 47, 0
2, 64800, Note_off_c, 1, 55, 0
2, 64840, Note_on_c, 1, 47, 127
2, 64840, Note_on_c, 1, 62, 127
2, 65000, Note_off_c, 1, 47, 0
2, 65000, Note_off_c, 1, 62, 0
2, 65040, Note_on_c, 1, 47, 127
2, 65040, Note_on_c, 1, 62, 127
2, 65080, Note_off_c, 1, 47, 0
2, 65080, Note_off_c, 1, 62, 0
2, 65120, Note_on_c, 1, 43, 127
2, 65120, Note_on_c, 1, 58, 127
2, 65360, Note_off_c, 1, 43, 0
2, 65360, Note_off_c, 1, 58, 0
2, 65400, Note_on_c, 1, 42, 127
2, 65400, Note_on_c, 1, 64, 127
2, 65640, Note_off_c, 1, 42, 0
2, 65640, Note_off_c, 1, 64, 0
2, 65680, Note_on_c, 1, 49, 127
2, 65680, Note_on_c, 1, 64, 127
2, 65880, Note_off_c, 1, 49, 0
2, 65880, Note_off_c, 1, 64, 0
2, 65920, Note_on_c, 1, 50, 127
2, 65920, Note_on_c, 1, 62, 127
2, 66160, Note_off_c, 1, 50, 0
2, 66160, Note_off_c, 1, 62, 0
2, 66200, Note_on_c, 1, 53, 127
2, 66200, Note_on_c, 1, 57, 127
2, 66440, Note_off_c, 1, 53, 0
2, 66440, Note_off_c, 1, 57, 0
2, 66480, Note_on_c, 1, 53, 127
2, 66480, Note_on_c, 1, 62, 127
2, 66680, Note_off_c, 1, 53, 0
2, 66680, Note_off_c, 1, 62, 0
2, 66720, Note_on_c, 1, 54, 127
2, 66720, Note_on_c, 1, 60, 127
2, 66960, Note_off_c, 1, 54, 0
2, 66960, Note_off_c, 1, 60, 0
2, 67040, Note_on_c, 1, 58, 127
2, 67040, Note_on_c, 1, 74, 127
2, 67240, Note_off_c, 1, 58, 0
2, 67240, Note_off_c, 1, 74, 0
2, 67280, Note_on_c, 1, 60, 127
2, 67280, Note_on_c, 1, 63, 127
2, 67280, Note_on_c, 1, 69, 127
2, 67280, Note_on_c, 1, 81, 127
2, 67440, Note_off_c, 1, 81, 0
2, 67480, Note_on_c, 1, 81, 127
2, 67520, Note_off_c, 1, 60, 0
2, 67520, Note_off_c, 1, 63, 0
2, 67520, Note_off_c, 1, 69, 0
2, 67520, Note_off_c, 1, 81, 0
2, 67560, Note_on_c, 1, 60, 127
2, 67560, Note_on_c, 1, 63, 127
2, 67560, Note_on_c, 1, 69, 127
2, 67560, Note_on_c, 1, 81, 127
2, 67760, Note_off_c, 1, 60, 0
2, 67760, Note_off_c, 1, 63, 0
2, 67760, Note_off_c, 1, 69, 0
2, 67760, Note_off_c, 1, 81, 0
2, 67800, Note_on_c, 1, 58, 127
2, 67800, Note_on_c, 1, 61, 127
2, 67800, Note_on_c, 1, 67, 127
2, 67800, Note_on_c, 1, 76, 127
2, 68040, Note_off_c, 1, 58, 0
2, 68040, Note_off_c, 1, 61, 0
2, 68040, Note_off_c, 1, 67, 0
2, 68040, Note_off_c, 1, 76, 0
2, 68080, Note_on_c, 1, 53, 127
2, 68080, Note_on_c, 1, 69, 127
2, 68280, Note_off_c, 1, 53, 0
2, 68280, Note_off_c, 1, 69, 0
2, 68320, Note_on_c, 1, 50, 127
2, 68320, Note_on_c, 1, 70, 127
2, 68520, Note_off_c, 1, 70, 0
2, 68560, Note_off_c, 1, 50, 0
2, 68600, Note_on_c, 1, 53, 127
2, 68600, Note_on_c, 1, 62, 127
2, 68600, Note_on_c, 1, 70, 127
2, 68800, Note_off_c, 1, 53, 0
2, 68800, Note_off_c, 1, 70, 0
2, 68840, Note_on_c, 1, 53, 127
2, 68840, Note_on_c, 1, 65, 127
2, 69080, Note_off_c, 1, 53, 0
2, 69080, Note_off_c, 1, 62, 0
2, 69080, Note_off_c, 1, 65, 0
2, 69160, Note_on_c, 1, 50, 127
2, 69160, Note_on_c, 1, 58, 127
2, 69160, Note_on_c, 1, 67, 127
2, 69360, Note_off_c, 1, 67, 0
2, 69400, Note_off_c, 1, 50, 0
2, 69400, Note_off_c, 1, 58, 0
2, 69440, Note_on_c, 1, 48, 127
2, 69440, Note_on_c, 1, 65, 127
2, 69640, Note_off_c, 1, 48, 0
2, 69640, Note_off_c, 1, 65, 0
2, 69680, Note_on_c, 1, 53, 127
2, 69680, Note_on_c, 1, 69, 127
2, 69880, Note_off_c, 1, 53, 0
2, 69880, Note_off_c, 1, 69, 0
2, 69920, Note_on_c, 1, 50, 127
2, 69920, Note_on_c, 1, 70, 127
2, 70080, Note_off_c, 1, 70, 0
2, 70160, Note_off_c, 1, 50, 0
2, 70480, Note_on_c, 1, 74, 127
2, 70680, Note_off_c, 1, 74, 0
2, 70720, Note_on_c, 1, 51, 127
2, 70720, Note_on_c, 1, 58, 127
2, 70720, Note_on_c, 1, 63, 127
2, 70720, Note_on_c, 1, 67, 127
2, 70720, Note_on_c, 1, 72, 127
2, 70960, Note_off_c, 1, 72, 0
2, 71000, Note_on_c, 1, 74, 127
2, 71160, Note_off_c, 1, 74, 0
2, 71200, Note_off_c, 1, 51, 0
2, 71200, Note_off_c, 1, 58, 0
2, 71200, Note_off_c, 1, 63, 0
2, 71200, Note_off_c, 1, 67, 0
2, 71240, Note_on_c, 1, 77, 127
2, 71280, Note_on_c, 1, 51, 127
2, 71280, Note_on_c, 1, 58, 127
2, 71280, Note_on_c, 1, 63, 127
2, 71280, Note_on_c, 1, 67, 127
2, 71280, Note_on_c, 1, 75, 127
2, 71280, Note_off_c, 1, 77, 0
2, 72320, Note_off_c, 1, 51, 0
2, 72320, Note_off_c, 1, 58, 0
2, 72320, Note_off_c, 1, 63, 0
2, 72320, Note_off_c, 1, 67, 0
2, 72320, Note_off_c, 1, 75, 0
2, 74720, Note_on_c, 1, 55, 127
2, 74720, Note_on_c, 1, 58, 127
2, 74720, Note_on_c, 1, 62, 127
2, 74720, Note_on_c, 1, 67, 127
2, 74720, Note_on_c, 1, 70, 127
2, 74920, Note_off_c, 1, 58, 0
2, 74920, Note_off_c, 1, 67, 0
2, 74920, Note_off_c, 1, 70, 0
2, 74960, Note_on_c, 1, 41, 127
2, 74960, Note_on_c, 1, 50, 127
2, 74960, Note_off_c, 1, 55, 0
2, 74960, Note_on_c, 1, 58, 127
2, 74960, Note_off_c, 1, 62, 0
2, 74960, Note_on_c, 1, 65, 127
2, 75200, Note_off_c, 1, 41, 0
2, 75200, Note_off_c, 1, 50, 0
2, 75200, Note_off_c, 1, 58, 0
2, 75200, Note_off_c, 1, 65, 0
2, 75240, Note_on_c, 1, 46, 127
2, 75240, Note_on_c, 1, 53, 127
2, 75240, Note_on_c, 1, 70, 127
2, 75240, Note_on_c, 1, 74, 127
2, 75440, Note_off_c, 1, 46, 0
2, 75440, Note_off_c, 1, 53, 0
2, 75440, Note_off_c, 1, 70, 0
2, 75440, Note_off_c, 1, 74, 0
2, 75520, Note_on_c, 1, 51, 127
2, 75520, Note_on_c, 1, 56, 127
2, 75520, Note_on_c, 1, 60, 127
2, 75520, Note_on_c, 1, 63, 127
2, 75520, Note_on_c, 1, 68, 127
2, 75520, Note_on_c, 1, 72, 127
2, 75520, Note_on_c, 1, 75, 127
2, 75760, Note_off_c, 1, 51, 0
2, 75760, Note_off_c, 1, 56, 0
2, 75760, Note_off_c, 1, 60, 0
2, 75760, Note_off_c, 1, 63, 0
2, 75760, Note_off_c, 1, 68, 0
2, 75760, Note_off_c, 1, 72, 0
2, 75760, Note_off_c, 1, 75, 0
2, 75760, Note_on_c, 1, 76, 127
2, 75800, Note_on_c, 1, 51, 127
2, 75800, Note_on_c, 1, 56, 127
2, 75800, Note_on_c, 1, 60, 127
2, 75800, Note_on_c, 1, 63, 127
2, 75800, Note_on_c, 1, 68, 127
2, 75800, Note_on_c, 1, 72, 127
2, 75800, Note_on_c, 1, 75, 127
2, 75800, Note_off_c, 1, 76, 0
2, 76000, Note_off_c, 1, 51, 0
2, 76000, Note_off_c, 1, 56, 0
2, 76000, Note_off_c, 1, 60, 0
2, 76000, Note_off_c, 1, 63, 0
2, 76000, Note_off_c, 1, 68, 0
2, 76000, Note_off_c, 1, 72, 0
2, 76040, Note_on_c, 1, 51, 127
2, 76040, Note_on_c, 1, 54, 127
2, 76040, Note_on_c, 1, 58, 127
2, 76160, Note_on_c, 1, 48, 127
2, 76160, Note_off_c, 1, 51, 0
2, 76160, Note_off_c, 1, 54, 0
2, 76160, Note_on_c, 1, 55, 127
2, 76160, Note_off_c, 1, 58, 0
2, 76160, Note_on_c, 1, 60, 127
2, 76160, Note_on_c, 1, 63, 127
2, 76160, Note_on_c, 1, 67, 127
2, 76200, Note_off_c, 1, 48, 0
2, 76200, Note_off_c, 1, 55, 0
2, 76200, Note_off_c, 1, 60, 0
2, 76200, Note_off_c, 1, 63, 0
2, 76200, Note_off_c, 1, 67, 0
2, 76320, Note_on_c, 1, 51, 127
2, 76320, Note_on_c, 1, 54, 127
2, 76320, Note_on_c, 1, 58, 127
2, 76480, Note_off_c, 1, 51, 0
2, 76480, Note_off_c, 1, 54, 0
2, 76480, Note_off_c, 1, 58, 0
2, 76520, Note_on_c, 1, 63, 127
2, 76560, Note_off_c, 1, 63, 0
2, 76560, Note_off_c, 1, 75, 0
2, 76600, Note_on_c, 1, 50, 127
2, 76600, Note_on_c, 1, 54, 127
2, 76600, Note_on_c, 1, 57, 127
2, 76600, Note_on_c, 1, 74, 127
2, 76600, Note_on_c, 1, 78, 127
2, 76640, Note_on_c, 1, 44, 127
2, 76640, Note_on_c, 1, 49, 127
2, 76640, Note_off_c, 1, 50, 0
2, 76640, Note_off_c, 1, 54, 0
2, 76640, Note_off_c, 1, 57, 0
2, 76640, Note_on_c, 1, 59, 127
2, 76640, Note_on_c, 1, 71, 127
2, 76640, Note_off_c, 1, 74, 0
2, 76640, Note_off_c, 1, 78, 0
2, 76680, Note_on_c, 1, 41, 127
2, 76680, Note_off_c, 1, 44, 0
2, 76680, Note_off_c, 1, 49, 0
2, 76680, Note_on_c, 1, 55, 127
2, 76680, Note_off_c, 1, 59, 0
2, 76680, Note_on_c, 1, 63, 127
2, 76680, Note_on_c, 1, 67, 127
2, 76680, Note_off_c, 1, 71, 0
2, 76720, Note_off_c, 1, 41, 0
2, 76720, Note_off_c, 1, 55, 0
2, 76720, Note_on_c, 1, 61, 127
2, 76720, Note_off_c, 1, 63, 0
2, 76720, Note_off_c, 1, 67, 0
2, 76720, Note_on_c, 1, 85, 127
2, 76720, Note_on_c, 1, 87, 127
2, 76760, Note_off_c, 1, 61, 0
2, 76760, Note_on_c, 1, 65, 127
2, 76760, Note_on_c, 1, 77, 127
2, 76760, Note_off_c, 1, 85, 0
2, 76760, Note_off_c, 1, 87, 0
2, 76800, Note_off_c, 1, 65, 0
2, 76800, Note_off_c, 1, 77, 0
2, 76840, Note_on_c, 1, 43, 127
2, 76840, Note_on_c, 1, 47, 127
2, 76840, Note_on_c, 1, 52, 127
2, 76840, Note_on_c, 1, 59, 127
2, 76840, Note_on_c, 1, 71, 127
2, 77080, Note_off_c, 1, 43, 0
2, 77080, Note_off_c, 1, 47, 0
2, 77080, Note_off_c, 1, 52, 0
2, 77080, Note_off_c, 1, 59, 0
2, 77080, Note_off_c, 1, 71, 0
2, 77120, Note_on_c, 1, 58, 127
2, 77120, Note_on_c, 1, 65, 127
2, 77120, Note_on_c, 1, 70, 127
2, 77120, Note_on_c, 1, 74, 127
2, 77120, Note_on_c, 1, 82, 127
2, 77320, Note_off_c, 1, 58, 0
2, 77320, Note_off_c, 1, 65, 0
2, 77320, Note_off_c, 1, 70, 0
2, 77320, Note_off_c, 1, 74, 0
2, 77320, Note_off_c, 1, 82, 0
2, 77440, Note_on_c, 1, 46, 127
2, 77640, Note_off_c, 1, 46, 0
2, 77680, Note_on_c, 1, 34, 127
2, 77680, Note_on_c, 1, 65, 127
2, 77920, Note_off_c, 1, 34, 0
2, 77920, Note_off_c, 1, 65, 0
2, 77960, Note_on_c, 1, 34, 127
2, 77960, Note_on_c, 1, 65, 127
2, 78040, Note_off_c, 1, 34, 0
2, 78160, Note_on_c, 1, 58, 127
2, 78200, Note_off_c, 1, 58, 0
2, 78200, Note_off_c, 1, 65, 0
2, 78240, Note_on_c, 1, 34, 127
2, 78240, Note_on_c, 1, 65, 127
2, 78240, Note_on_c, 1, 74, 127
2, 78320, Note_off_c, 1, 74, 0
2, 78400, Note_off_c, 1, 34, 0
2, 78720, Note_off_c, 1, 65, 0
2, 78760, Note_on_c, 1, 34, 127
2, 78760, Note_on_c, 1, 70, 127
2, 79000, Note_off_c, 1, 34, 0
2, 79040, Note_on_c, 1, 50, 127
2, 79040, Note_on_c, 1, 58, 127
2, 79240, Note_off_c, 1, 50, 0
2, 79240, Note_off_c, 1, 58, 0
2, 79280, Note_on_c, 1, 43, 127
2, 79280, Note_on_c, 1, 62, 127
2, 79440, Note_off_c, 1, 43, 0
2, 79440, Note_off_c, 1, 62, 0
2, 79440, Note_off_c, 1, 70, 0
2, 79480, Note_on_c, 1, 43, 127
2, 79480, Note_on_c, 1, 62, 127
2, 79560, Note_off_c, 1, 43, 0
2, 79560, Note_off_c, 1, 62, 0
2, 79560, Note_on_c, 1, 65, 127
2, 79600, Note_on_c, 1, 46, 127
2, 79600, Note_on_c, 1, 53, 127
2, 79600, Note_on_c, 1, 60, 127
2, 79640, Note_off_c, 1, 60, 0
2, 79640, Note_on_c, 1, 62, 127
2, 79640, Note_off_c, 1, 65, 0
2, 79840, Note_off_c, 1, 46, 0
2, 79840, Note_off_c, 1, 53, 0
2, 79880, Note_on_c, 1, 58, 127
2, 79880, Note_off_c, 1, 62, 0
2, 79880, Note_on_c, 1, 69, 127
2, 79880, Note_on_c, 1, 70, 127
2, 79920, Note_off_c, 1, 58, 0
2, 79920, Note_on_c, 1, 62, 127
2, 79920, Note_off_c, 1, 69, 0
2, 79920, Note_off_c, 1, 70, 0
2, 80120, Note_off_c, 1, 62, 0
2, 80160, Note_on_c, 1, 46, 127
2, 80160, Note_on_c, 1, 55, 127
2, 80160, Note_on_c, 1, 62, 127
2, 80160, Note_on_c, 1, 70, 127
2, 80360, Note_off_c, 1, 55, 0
2, 80360, Note_off_c, 1, 62, 0
2, 80360, Note_off_c, 1, 70, 0
2, 80400, Note_on_c, 1, 55, 127
2, 80400, Note_on_c, 1, 58, 127
2, 80600, Note_off_c, 1, 55, 0
2, 80600, Note_off_c, 1, 58, 0
2, 80600, Note_on_c, 1, 60, 127
2, 80640, Note_off_c, 1, 60, 0
2, 80680, Note_on_c, 1, 57, 127
2, 80680, Note_on_c, 1, 60, 127
2, 80920, Note_off_c, 1, 46, 0
2, 80920, Note_off_c, 1, 57, 0
2, 80920, Note_off_c, 1, 60, 0
2, 80960, Note_on_c, 1, 46, 127
2, 80960, Note_on_c, 1, 53, 127
2, 81200, Note_off_c, 1, 46, 0
2, 81200, Note_off_c, 1, 53, 0
2, 81240, Note_on_c, 1, 34, 127
2, 81240, Note_on_c, 1, 65, 127
2, 81480, Note_off_c, 1, 34, 0
2, 81480, Note_off_c, 1, 65, 0
2, 81560, Note_on_c, 1, 68, 127
2, 81760, Note_off_c, 1, 68, 0
2, 81800, Note_on_c, 1, 65, 127
2, 81960, Note_off_c, 1, 65, 0
2, 82000, Note_on_c, 1, 63, 127
2, 82040, Note_off_c, 1, 63, 0
2, 82080, Note_on_c, 1, 58, 127
2, 82320, Note_off_c, 1, 58, 0
2, 82360, Note_on_c, 1, 46, 127
2, 82360, Note_on_c, 1, 70, 127
2, 82560, Note_off_c, 1, 46, 0
2, 82600, Note_on_c, 1, 53, 127
2, 82760, Note_off_c, 1, 53, 0
2, 82800, Note_on_c, 1, 58, 127
2, 82840, Note_off_c, 1, 58, 0
2, 82880, Note_on_c, 1, 53, 127
2, 83080, Note_off_c, 1, 70, 0
2, 83120, Note_off_c, 1, 53, 0
2, 83160, Note_on_c, 1, 58, 127
2, 83160, Note_on_c, 1, 61, 127
2, 83160, Note_on_c, 1, 65, 127
2, 83360, Note_off_c, 1, 58, 0
2, 83360, Note_off_c, 1, 61, 0
2, 83360, Note_off_c, 1, 65, 0
2, 83400, Note_on_c, 1, 72, 127
2, 83440, Note_off_c, 1, 72, 0
2, 83480, Note_on_c, 1, 72, 127
2, 83520, Note_off_c, 1, 72, 0
2, 83560, Note_on_c, 1, 75, 127
2, 83600, Note_off_c, 1, 75, 0
2, 83720, Note_on_c, 1, 53, 127
2, 83720, Note_on_c, 1, 65, 127
2, 83720, Note_on_c, 1, 77, 127
2, 83760, Note_off_c, 1, 77, 0
2, 83800, Note_on_c, 1, 77, 127
2, 83840, Note_off_c, 1, 77, 0
2, 83880, Note_on_c, 1, 81, 127
2, 83920, Note_off_c, 1, 53, 0
2, 83920, Note_off_c, 1, 65, 0
2, 83920, Note_off_c, 1, 81, 0
2, 83960, Note_on_c, 1, 72, 127
2, 84200, Note_off_c, 1, 72, 0
2, 84240, Note_on_c, 1, 46, 127
2, 84240, Note_on_c, 1, 58, 127
2, 84240, Note_on_c, 1, 74, 127
2, 84280, Note_off_c, 1, 74, 0
2, 84320, Note_on_c, 1, 72, 127
2, 84360, Note_off_c, 1, 72, 0
2, 84400, Note_on_c, 1, 77, 127
2, 84440, Note_off_c, 1, 46, 0
2, 84440, Note_off_c, 1, 58, 0
2, 84440, Note_off_c, 1, 77, 0
2, 84480, Note_on_c, 1, 46, 127
2, 84480, Note_on_c, 1, 58, 127
2, 84480, Note_on_c, 1, 77, 127
2, 84520, Note_off_c, 1, 77, 0
2, 84560, Note_on_c, 1, 75, 127
2, 84600, Note_off_c, 1, 75, 0
2, 84640, Note_on_c, 1, 77, 127
2, 84680, Note_off_c, 1, 46, 0
2, 84680, Note_off_c, 1, 58, 0
2, 84680, Note_off_c, 1, 77, 0
2, 84720, Note_on_c, 1, 45, 127
2, 84720, Note_on_c, 1, 57, 127
2, 84720, Note_on_c, 1, 77, 127
2, 84760, Note_off_c, 1, 77, 0
2, 84800, Note_on_c, 1, 76, 127
2, 84840, Note_off_c, 1, 76, 0
2, 84880, Note_on_c, 1, 76, 127
2, 84960, Note_off_c, 1, 45, 0
2, 84960, Note_off_c, 1, 57, 0
2, 84960, Note_off_c, 1, 76, 0
2, 85000, Note_on_c, 1, 48, 127
2, 85000, Note_on_c, 1, 60, 127
2, 85000, Note_on_c, 1, 82, 127
2, 85040, Note_off_c, 1, 82, 0
2, 85080, Note_on_c, 1, 79, 127
2, 85120, Note_off_c, 1, 79, 0
2, 85160, Note_on_c, 1, 75, 127
2, 85200, Note_off_c, 1, 48, 0
2, 85200, Note_off_c, 1, 60, 0
2, 85200, Note_off_c, 1, 75, 0
2, 85240, Note_on_c, 1, 53, 127
2, 85240, Note_on_c, 1, 65, 127
2, 85240, Note_on_c, 1, 77, 127
2, 85320, Note_off_c, 1, 77, 0
2, 85360, Note_on_c, 1, 81, 127
2, 85440, Note_off_c, 1, 53, 0
2, 85440, Note_off_c, 1, 65, 0
2, 85440, Note_off_c, 1, 81, 0
2, 85480, Note_on_c, 1, 70, 127
2, 85680, Note_off_c, 1, 70, 0
2, 85720, Note_on_c, 1, 70, 127
2, 85760, Note_off_c, 1, 70, 0
2, 85800, Note_on_c, 1, 53, 127
2, 85800, Note_on_c, 1, 65, 127
2, 85800, Note_on_c, 1, 69, 127
2, 85840, Note_off_c, 1, 69, 0
2, 85880, Note_on_c, 1, 69, 127
2, 85920, Note_off_c, 1, 69, 0
2, 85960, Note_on_c, 1, 69, 127
2, 86000, Note_off_c, 1, 69, 0
2, 86040, Note_off_c, 1, 53, 0
2, 86080, Note_on_c, 1, 53, 127
2, 86080, Note_on_c, 1, 73, 127
2, 86120, Note_off_c, 1, 73, 0
2, 86160, Note_on_c, 1, 72, 127
2, 86200, Note_off_c, 1, 72, 0
2, 86240, Note_on_c, 1, 74, 127
2, 86280, Note_off_c, 1, 53, 0
2, 86280, Note_off_c, 1, 65, 0
2, 86280, Note_off_c, 1, 74, 0
2, 86320, Note_on_c, 1, 46, 127
2, 86320, Note_on_c, 1, 58, 127
2, 86320, Note_on_c, 1, 70, 127
2, 86360, Note_off_c, 1, 70, 0
2, 86400, Note_on_c, 1, 77, 127
2, 86440, Note_off_c, 1, 77, 0
2, 86480, Note_on_c, 1, 75, 127
2, 86520, Note_off_c, 1, 46, 0
2, 86520, Note_off_c, 1, 58, 0
2, 86520, Note_off_c, 1, 75, 0
2, 86560, Note_on_c, 1, 45, 127
2, 86560, Note_on_c, 1, 57, 127
2, 86560, Note_on_c, 1, 77, 127
2, 86600, Note_off_c, 1, 77, 0
2, 86640, Note_on_c, 1, 74, 127
2, 86680, Note_off_c, 1, 74, 0
2, 86720, Note_on_c, 1, 74, 127
2, 86760, Note_off_c, 1, 45, 0
2, 86760, Note_off_c, 1, 57, 0
2, 86760, Note_off_c, 1, 74, 0
2, 86800, Note_on_c, 1, 53, 127
2, 86800, Note_on_c, 1, 65, 127
2, 86800, Note_on_c, 1, 72, 127
2, 87000, Note_off_c, 1, 53, 0
2, 87000, Note_off_c, 1, 72, 0
2, 87040, Note_on_c, 1, 53, 127
2, 87040, Note_on_c, 1, 73, 127
2, 87080, Note_off_c, 1, 73, 0
2, 87120, Note_on_c, 1, 77, 127
2, 87160, Note_off_c, 1, 77, 0
2, 87200, Note_on_c, 1, 81, 127
2, 87280, Note_off_c, 1, 53, 0
2, 87280, Note_off_c, 1, 65, 0
2, 87280, Note_off_c, 1, 81, 0
2, 87320, Note_on_c, 1, 48, 127
2, 87320, Note_on_c, 1, 60, 127
2, 87320, Note_on_c, 1, 79, 127
2, 87360, Note_off_c, 1, 79, 0
2, 87400, Note_on_c, 1, 79, 127
2, 87440, Note_off_c, 1, 79, 0
2, 87480, Note_on_c, 1, 84, 127
2, 87520, Note_off_c, 1, 48, 0
2, 87520, Note_off_c, 1, 60, 0
2, 87520, Note_off_c, 1, 84, 0
2, 87560, Note_on_c, 1, 53, 127
2, 87560, Note_on_c, 1, 65, 127
2, 87560, Note_on_c, 1, 77, 127
2, 87640, Note_off_c, 1, 77, 0
2, 87680, Note_on_c, 1, 81, 127
2, 87760, Note_off_c, 1, 53, 0
2, 87760, Note_off_c, 1, 65, 0
2, 87760, Note_off_c, 1, 81, 0
2, 87800, Note_on_c, 1, 72, 127
2, 87840, Note_off_c, 1, 72, 0
2, 87880, Note_on_c, 1, 72, 127
2, 87960, Note_off_c, 1, 72, 0
2, 88000, Note_on_c, 1, 82, 127
2, 88080, Note_off_c, 1, 82, 0
2, 88120, Note_on_c, 1, 53, 127
2, 88120, Note_on_c, 1, 65, 127
2, 88120, Note_on_c, 1, 81, 127
2, 88160, Note_off_c, 1, 81, 0
2, 88200, Note_on_c, 1, 82, 127
2, 88240, Note_off_c, 1, 82, 0
2, 88280, Note_on_c, 1, 84, 127
2, 88320, Note_off_c, 1, 53, 0
2, 88320, Note_off_c, 1, 65, 0
2, 88320, Note_off_c, 1, 84, 0
2, 88360, Note_on_c, 1, 53, 127
2, 88360, Note_on_c, 1, 65, 127
2, 88360, Note_on_c, 1, 88, 127
2, 88400, Note_off_c, 1, 88, 0
2, 88440, Note_on_c, 1, 89, 127
2, 88480, Note_off_c, 1, 89, 0
2, 88520, Note_on_c, 1, 84, 127
2, 88560, Note_off_c, 1, 53, 0
2, 88560, Note_off_c, 1, 65, 0
2, 88560, Note_off_c, 1, 84, 0
2, 88560, Note_on_c, 1, 89, 127
2, 88600, Note_on_c, 1, 53, 127
2, 88600, Note_on_c, 1, 65, 127
2, 88600, Note_on_c, 1, 84, 127
2, 88600, Note_off_c, 1, 89, 0
2, 88640, Note_off_c, 1, 84, 0
2, 88680, Note_on_c, 1, 84, 127
2, 88720, Note_off_c, 1, 84, 0
2, 88760, Note_on_c, 1, 84, 127
2, 88800, Note_off_c, 1, 53, 0
2, 88800, Note_off_c, 1, 65, 0
2, 88800, Note_off_c, 1, 84, 0
2, 88840, Note_on_c, 1, 53, 127
2, 88840, Note_on_c, 1, 65, 127
2, 88840, Note_on_c, 1, 84, 127
2, 88880, Note_off_c, 1, 84, 0
2, 88920, Note_on_c, 1, 84, 127
2, 88960, Note_off_c, 1, 84, 0
2, 89000, Note_on_c, 1, 84, 127
2, 89040, Note_off_c, 1, 53, 0
2, 89040, Note_off_c, 1, 65, 0
2, 89040, Note_off_c, 1, 84, 0
2, 89080, Note_on_c, 1, 53, 127
2, 89080, Note_on_c, 1, 65, 127
2, 89080, Note_on_c, 1, 84, 127
2, 89120, Note_on_c, 1, 81, 127
2, 89120, Note_off_c, 1, 84, 0
2, 89160, Note_off_c, 1, 81, 0
2, 89160, Note_on_c, 1, 84, 127
2, 89200, Note_off_c, 1, 84, 0
2, 89240, Note_on_c, 1, 84, 127
2, 89280, Note_off_c, 1, 53, 0
2, 89280, Note_off_c, 1, 65, 0
2, 89280, Note_off_c, 1, 84, 0
2, 89320, Note_on_c, 1, 56, 127
2, 89320, Note_on_c, 1, 68, 127
2, 89320, Note_on_c, 1, 86, 127
2, 89360, Note_off_c, 1, 86, 0
2, 89400, Note_on_c, 1, 86, 127
2, 89440, Note_off_c, 1, 86, 0
2, 89480, Note_on_c, 1, 86, 127
2, 89520, Note_off_c, 1, 56, 0
2, 89520, Note_off_c, 1, 68, 0
2, 89520, Note_off_c, 1, 86, 0
2, 89560, Note_on_c, 1, 53, 127
2, 89560, Note_on_c, 1, 65, 127
2, 89560, Note_on_c, 1, 82, 127
2, 89600, Note_off_c, 1, 82, 0
2, 89640, Note_on_c, 1, 89, 127
2, 89680, Note_off_c, 1, 89, 0
2, 89720, Note_on_c, 1, 87, 127
2, 89760, Note_off_c, 1, 53, 0
2, 89760, Note_off_c, 1, 65, 0
2, 89760, Note_off_c, 1, 87, 0
2, 89800, Note_on_c, 1, 53, 127
2, 89800, Note_on_c, 1, 65, 127
2, 89800, Note_on_c, 1, 88, 127
2, 89840, Note_off_c, 1, 88, 0
2, 89880, Note_on_c, 1, 88, 127
2, 89920, Note_off_c, 1, 88, 0
2, 89960, Note_off_c, 1, 53, 0
2, 89960, Note_off_c, 1, 65, 0
2, 90000, Note_on_c, 1, 53, 127
2, 90000, Note_on_c, 1, 65, 127
2, 90000, Note_on_c, 1, 88, 127
2, 90040, Note_off_c, 1, 53, 0
2, 90040, Note_off_c, 1, 65, 0
2, 90040, Note_off_c, 1, 88, 0
2, 90080, Note_on_c, 1, 53, 127
2, 90080, Note_on_c, 1, 65, 127
2, 90080, Note_on_c, 1, 88, 127
2, 90120, Note_off_c, 1, 88, 0
2, 90160, Note_on_c, 1, 88, 127
2, 90200, Note_off_c, 1, 88, 0
2, 90240, Note_on_c, 1, 88, 127
2, 90280, Note_off_c, 1, 53, 0
2, 90280, Note_off_c, 1, 65, 0
2, 90280, Note_off_c, 1, 88, 0
2, 90320, Note_on_c, 1, 53, 127
2, 90320, Note_on_c, 1, 65, 127
2, 90320, Note_on_c, 1, 88, 127
2, 90360, Note_off_c, 1, 88, 0
2, 90400, Note_on_c, 1, 88, 127
2, 90440, Note_off_c, 1, 88, 0
2, 90480, Note_on_c, 1, 83, 127
2, 90520, Note_off_c, 1, 53, 0
2, 90520, Note_off_c, 1, 65, 0
2, 90520, Note_off_c, 1, 83, 0
2, 90560, Note_on_c, 1, 53, 127
2, 90560, Note_on_c, 1, 65, 127
2, 90560, Note_on_c, 1, 88, 127
2, 90600, Note_off_c, 1, 88, 0
2, 90640, Note_on_c, 1, 89, 127
2, 90680, Note_off_c, 1, 89, 0
2, 90720, Note_on_c, 1, 84, 127
2, 90760, Note_off_c, 1, 53, 0
2, 90760, Note_off_c, 1, 65, 0
2, 90760, Note_off_c, 1, 84, 0
2, 90800, Note_on_c, 1, 53, 127
2, 90800, Note_on_c, 1, 65, 127
2, 90800, Note_on_c, 1, 88, 127
2, 90840, Note_off_c, 1, 88, 0
2, 90880, Note_on_c, 1, 86, 127
2, 90920, Note_off_c, 1, 86, 0
2, 90960, Note_on_c, 1, 88, 127
2, 91000, Note_off_c, 1, 53, 0
2, 91000, Note_off_c, 1, 65, 0
2, 91000, Note_off_c, 1, 88, 0
2, 91040, Note_on_c, 1, 53, 127
2, 91040, Note_on_c, 1, 65, 127
2, 91040, Note_on_c, 1, 88, 127
2, 91080, Note_off_c, 1, 88, 0
2, 91120, Note_on_c, 1, 88, 127
2, 91160, Note_off_c, 1, 88, 0
2, 91200, Note_on_c, 1, 89, 127
2, 91240, Note_off_c, 1, 53, 0
2, 91240, Note_off_c, 1, 65, 0
2, 91240, Note_off_c, 1, 89, 0
2, 91280, Note_on_c, 1, 53, 127
2, 91280, Note_on_c, 1, 65, 127
2, 91280, Note_on_c, 1, 88, 127
2, 91320, Note_off_c, 1, 88, 0
2, 91360, Note_on_c, 1, 88, 127
2, 91400, Note_off_c, 1, 88, 0
2, 91440, Note_on_c, 1, 88, 127
2, 91480, Note_off_c, 1, 53, 0
2, 91480, Note_off_c, 1, 65, 0
2, 91480, Note_off_c, 1, 88, 0
2, 91520, Note_on_c, 1, 53, 127
2, 91520, Note_on_c, 1, 65, 127
2, 91520, Note_on_c, 1, 88, 127
2, 91560, Note_off_c, 1, 88, 0
2, 91600, Note_on_c, 1, 89, 127
2, 91640, Note_off_c, 1, 89, 0
2, 91680, Note_on_c, 1, 84, 127
2, 91720, Note_off_c, 1, 53, 0
2, 91720, Note_off_c, 1, 65, 0
2, 91720, Note_off_c, 1, 84, 0
2, 91760, Note_on_c, 1, 53, 127
2, 91760, Note_on_c, 1, 65, 127
2, 91760, Note_on_c, 1, 88, 127
2, 91800, Note_off_c, 1, 88, 0
2, 91840, Note_on_c, 1, 88, 127
2, 91880, Note_off_c, 1, 88, 0
2, 91920, Note_on_c, 1, 88, 127
2, 91960, Note_off_c, 1, 53, 0
2, 91960, Note_off_c, 1, 65, 0
2, 91960, Note_off_c, 1, 88, 0
2, 92040, Note_on_c, 1, 53, 127
2, 92040, Note_on_c, 1, 65, 127
2, 92040, Note_on_c, 1, 88, 127
2, 92080, Note_off_c, 1, 88, 0
2, 92120, Note_on_c, 1, 88, 127
2, 92160, Note_off_c, 1, 88, 0
2, 92200, Note_on_c, 1, 88, 127
2, 92240, Note_off_c, 1, 53, 0
2, 92240, Note_off_c, 1, 65, 0
2, 92240, Note_off_c, 1, 88, 0
2, 92280, Note_on_c, 1, 53, 127
2, 92280, Note_on_c, 1, 65, 127
2, 92280, Note_on_c, 1, 88, 127
2, 92320, Note_off_c, 1, 88, 0
2, 92360, Note_on_c, 1, 89, 127
2, 92400, Note_off_c, 1, 89, 0
2, 92440, Note_on_c, 1, 84, 127
2, 92480, Note_off_c, 1, 53, 0
2, 92480, Note_off_c, 1, 65, 0
2, 92480, Note_off_c, 1, 84, 0
2, 92520, Note_on_c, 1, 53, 127
2, 92520, Note_on_c, 1, 65, 127
2, 92520, Note_on_c, 1, 88, 127
2, 92560, Note_off_c, 1, 88, 0
2, 92600, Note_on_c, 1, 88, 127
2, 92640, Note_off_c, 1, 88, 0
2, 92680, Note_on_c, 1, 88, 127
2, 92720, Note_off_c, 1, 53, 0
2, 92720, Note_off_c, 1, 65, 0
2, 92720, Note_off_c, 1, 88, 0
2, 92760, Note_on_c, 1, 58, 127
2, 92760, Note_on_c, 1, 62, 127
2, 92760, Note_on_c, 1, 89, 127
2, 92800, Note_off_c, 1, 89, 0
2, 92840, Note_on_c, 1, 89, 127
2, 92880, Note_off_c, 1, 89, 0
2, 92920, Note_on_c, 1, 89, 127
2, 92960, Note_off_c, 1, 58, 0
2, 92960, Note_off_c, 1, 62, 0
2, 92960, Note_off_c, 1, 89, 0
2, 93000, Note_on_c, 1, 58, 127
2, 93000, Note_on_c, 1, 63, 127
2, 93000, Note_on_c, 1, 79, 127
2, 93040, Note_off_c, 1, 79, 0
2, 93080, Note_on_c, 1, 82, 127
2, 93120, Note_off_c, 1, 82, 0
2, 93160, Note_on_c, 1, 79, 127
2, 93200, Note_off_c, 1, 58, 0
2, 93200, Note_off_c, 1, 63, 0
2, 93200, Note_off_c, 1, 79, 0
2, 93240, Note_on_c, 1, 46, 127
2, 93240, Note_on_c, 1, 58, 127
2, 93240, Note_on_c, 1, 86, 127
2, 93280, Note_off_c, 1, 86, 0
2, 93320, Note_on_c, 1, 81, 127
2, 93360, Note_off_c, 1, 81, 0
2, 93400, Note_on_c, 1, 82, 127
2, 93440, Note_off_c, 1, 46, 0
2, 93440, Note_off_c, 1, 58, 0
2, 93440, Note_off_c, 1, 82, 0
2, 93480, Note_on_c, 1, 46, 127
2, 93480, Note_on_c, 1, 58, 127
2, 93480, Note_on_c, 1, 82, 127
2, 93520, Note_off_c, 1, 82, 0
2, 93560, Note_on_c, 1, 77, 127
2, 93600, Note_off_c, 1, 77, 0
2, 93640, Note_on_c, 1, 77, 127
2, 93680, Note_off_c, 1, 46, 0
2, 93680, Note_off_c, 1, 58, 0
2, 93680, Note_off_c, 1, 77, 0
2, 93720, Note_on_c, 1, 45, 127
2, 93720, Note_on_c, 1, 57, 127
2, 93720, Note_on_c, 1, 77, 127
2, 93760, Note_off_c, 1, 77, 0
2, 93800, Note_on_c, 1, 76, 127
2, 93840, Note_off_c, 1, 76, 0
2, 93880, Note_on_c, 1, 77, 127
2, 93920, Note_off_c, 1, 77, 0
2, 93960, Note_on_c, 1, 77, 127
2, 94000, Note_off_c, 1, 77, 0
2, 94040, Note_on_c, 1, 76, 127
2, 94080, Note_off_c, 1, 76, 0
2, 94120, Note_on_c, 1, 79, 127
2, 94160, Note_off_c, 1, 45, 0
2, 94160, Note_off_c, 1, 57, 0
2, 94160, Note_off_c, 1, 79, 0
2, 94240, Note_on_c, 1, 46, 127
2, 94240, Note_on_c, 1, 58, 127
2, 94240, Note_on_c, 1, 78, 127
2, 94280, Note_off_c, 1, 78, 0
2, 94320, Note_on_c, 1, 77, 127
2, 94360, Note_off_c, 1, 77, 0
2, 94400, Note_on_c, 1, 77, 127
2, 94440, Note_off_c, 1, 46, 0
2, 94440, Note_off_c, 1, 58, 0
2, 94440, Note_off_c, 1, 77, 0
2, 94480, Note_on_c, 1, 45, 127
2, 94480, Note_on_c, 1, 57, 127
2, 94480, Note_on_c, 1, 77, 127
2, 94520, Note_off_c, 1, 77, 0
2, 94560, Note_on_c, 1, 74, 127
2, 94600, Note_off_c, 1, 74, 0
2, 94640, Note_on_c, 1, 74, 127
2, 94680, Note_off_c, 1, 45, 0
2, 94680, Note_off_c, 1, 57, 0
2, 94680, Note_off_c, 1, 74, 0
2, 94720, Note_on_c, 1, 53, 127
2, 94720, Note_on_c, 1, 65, 127
2, 94720, Note_on_c, 1, 72, 127
2, 94760, Note_off_c, 1, 72, 0
2, 94800, Note_on_c, 1, 77, 127
2, 94840, Note_off_c, 1, 77, 0
2, 94880, Note_on_c, 1, 72, 127
2, 94920, Note_off_c, 1, 53, 0
2, 94920, Note_off_c, 1, 65, 0
2, 94920, Note_off_c, 1, 72, 0
2, 94960, Note_on_c, 1, 53, 127
2, 94960, Note_on_c, 1, 65, 127
2, 94960, Note_on_c, 1, 72, 127
2, 95000, Note_off_c, 1, 72, 0
2, 95040, Note_on_c, 1, 72, 127
2, 95080, Note_off_c, 1, 72, 0
2, 95120, Note_on_c, 1, 72, 127
2, 95160, Note_off_c, 1, 53, 0
2, 95160, Note_off_c, 1, 65, 0
2, 95160, Note_off_c, 1, 72, 0
2, 95200, Note_on_c, 1, 50, 127
2, 95200, Note_on_c, 1, 62, 127
2, 95200, Note_on_c, 1, 70, 127
2, 95240, Note_off_c, 1, 70, 0
2, 95280, Note_on_c, 1, 77, 127
2, 95320, Note_off_c, 1, 77, 0
2, 95360, Note_on_c, 1, 77, 127
2, 95400, Note_off_c, 1, 50, 0
2, 95400, Note_off_c, 1, 62, 0
2, 95400, Note_off_c, 1, 77, 0
2, 95440, Note_on_c, 1, 51, 127
2, 95440, Note_on_c, 1, 63, 127
2, 95440, Note_on_c, 1, 84, 127
2, 95480, Note_off_c, 1, 84, 0
2, 95520, Note_on_c, 1, 81, 127
2, 95560, Note_off_c, 1, 81, 0
2, 95600, Note_on_c, 1, 78, 127
2, 95640, Note_off_c, 1, 51, 0
2, 95640, Note_off_c, 1, 63, 0
2, 95640, Note_off_c, 1, 78, 0
2, 95680, Note_on_c, 1, 48, 127
2, 95680, Note_on_c, 1, 60, 127
2, 95680, Note_on_c, 1, 80, 127
2, 95720, Note_off_c, 1, 80, 0
2, 95760, Note_on_c, 1, 79, 127
2, 95800, Note_off_c, 1, 79, 0
2, 95840, Note_on_c, 1, 77, 127
2, 95880, Note_off_c, 1, 48, 0
2, 95880, Note_off_c, 1, 60, 0
2, 95880, Note_off_c, 1, 77, 0
2, 95920, Note_on_c, 1, 53, 127
2, 95920, Note_on_c, 1, 65, 127
2, 95920, Note_on_c, 1, 77, 127
2, 95960, Note_off_c, 1, 77, 0
2, 96000, Note_on_c, 1, 81, 127
2, 96040, Note_off_c, 1, 81, 0
2, 96080, Note_on_c, 1, 77, 127
2, 96120, Note_off_c, 1, 53, 0
2, 96120, Note_off_c, 1, 65, 0
2, 96120, Note_off_c, 1, 77, 0
2, 96160, Note_on_c, 1, 34, 127
2, 96160, Note_on_c, 1, 46, 127
2, 96160, Note_on_c, 1, 86, 127
2, 96200, Note_off_c, 1, 34, 0
2, 96200, Note_on_c, 1, 58, 127
2, 96200, Note_off_c, 1, 86, 0
2, 96240, Note_on_c, 1, 77, 127
2, 96280, Note_off_c, 1, 77, 0
2, 96320, Note_off_c, 1, 46, 0
2, 96320, Note_off_c, 1, 58, 0
2, 96360, Note_on_c, 1, 46, 127
2, 96360, Note_on_c, 1, 58, 127
2, 96360, Note_on_c, 1, 77, 127
2, 96400, Note_off_c, 1, 46, 0
2, 96400, Note_off_c, 1, 58, 0
2, 96400, Note_off_c, 1, 77, 0
2, 96440, Note_on_c, 1, 46, 127
2, 96440, Note_on_c, 1, 58, 127
2, 96440, Note_on_c, 1, 82, 127
2, 96480, Note_off_c, 1, 82, 0
2, 96520, Note_on_c, 1, 77, 127
2, 96560, Note_off_c, 1, 77, 0
2, 96600, Note_on_c, 1, 77, 127
2, 96640, Note_off_c, 1, 46, 0
2, 96640, Note_off_c, 1, 58, 0
2, 96640, Note_off_c, 1, 77, 0
2, 96680, Note_on_c, 1, 47, 127
2, 96680, Note_on_c, 1, 59, 127
2, 96680, Note_on_c, 1, 86, 127
2, 96720, Note_off_c, 1, 86, 0
2, 96760, Note_on_c, 1, 86, 127
2, 96800, Note_off_c, 1, 86, 0
2, 96840, Note_on_c, 1, 78, 127
2, 96880, Note_off_c, 1, 47, 0
2, 96880, Note_off_c, 1, 59, 0
2, 96880, Note_off_c, 1, 78, 0
2, 96920, Note_on_c, 1, 44, 127
2, 96920, Note_on_c, 1, 56, 127
2, 96920, Note_on_c, 1, 86, 127
2, 96960, Note_off_c, 1, 86, 0
2, 97000, Note_off_c, 1, 44, 0
2, 97000, Note_on_c, 1, 45, 127
2, 97000, Note_off_c, 1, 56, 0
2, 97000, Note_on_c, 1, 57, 127
2, 97000, Note_on_c, 1, 87, 127
2, 97040, Note_on_c, 1, 44, 127
2, 97040, Note_off_c, 1, 45, 0
2, 97040, Note_on_c, 1, 56, 127
2, 97040, Note_off_c, 1, 57, 0
2, 97040, Note_off_c, 1, 87, 0
2, 97080, Note_on_c, 1, 75, 127
2, 97120, Note_off_c, 1, 44, 0
2, 97120, Note_off_c, 1, 56, 0
2, 97120, Note_off_c, 1, 75, 0
2, 97160, Note_on_c, 1, 46, 127
2, 97160, Note_on_c, 1, 58, 127
2, 97160, Note_on_c, 1, 79, 127
2, 97200, Note_off_c, 1, 79, 0
2, 97240, Note_on_c, 1, 81, 127
2, 97280, Note_off_c, 1, 81, 0
2, 97320, Note_on_c, 1, 77, 127
2, 97360, Note_off_c, 1, 46, 0
2, 97360, Note_off_c, 1, 58, 0
2, 97360, Note_off_c, 1, 77, 0
2, 97400, Note_on_c, 1, 45, 127
2, 97400, Note_on_c, 1, 57, 127
2, 97400, Note_on_c, 1, 77, 127
2, 97440, Note_off_c, 1, 77, 0
2, 97480, Note_on_c, 1, 74, 127
2, 97520, Note_off_c, 1, 74, 0
2, 97560, Note_on_c, 1, 74, 127
2, 97600, Note_off_c, 1, 45, 0
2, 97600, Note_off_c, 1, 57, 0
2, 97600, Note_off_c, 1, 74, 0
2, 97640, Note_on_c, 1, 46, 127
2, 97640, Note_on_c, 1, 58, 127
2, 97640, Note_on_c, 1, 74, 127
2, 97680, Note_off_c, 1, 74, 0
2, 97720, Note_on_c, 1, 77, 127
2, 97760, Note_off_c, 1, 77, 0
2, 97800, Note_on_c, 1, 75, 127
2, 97840, Note_off_c, 1, 46, 0
2, 97840, Note_off_c, 1, 58, 0
2, 97840, Note_off_c, 1, 75, 0
2, 97880, Note_on_c, 1, 46, 127
2, 97880, Note_on_c, 1, 58, 127
2, 97880, Note_on_c, 1, 77, 127
2, 97920, Note_off_c, 1, 77, 0
2, 97960, Note_on_c, 1, 77, 127
2, 98000, Note_off_c, 1, 77, 0
2, 98040, Note_on_c, 1, 77, 127
2, 98080, Note_off_c, 1, 46, 0
2, 98080, Note_off_c, 1, 58, 0
2, 98080, Note_off_c, 1, 77, 0
2, 98120, Note_on_c, 1, 45, 127
2, 98120, Note_on_c, 1, 57, 127
2, 98120, Note_on_c, 1, 77, 127
2, 98160, Note_off_c, 1, 77, 0
2, 98200, Note_on_c, 1, 76, 127
2, 98240, Note_off_c, 1, 76, 0
2, 98280, Note_on_c, 1, 74, 127
2, 98320, Note_off_c, 1, 45, 0
2, 98320, Note_off_c, 1, 57, 0
2, 98320, Note_off_c, 1, 74, 0
2, 98360, Note_on_c, 1, 48, 127
2, 98360, Note_on_c, 1, 60, 127
2, 98360, Note_on_c, 1, 82, 127
2, 98400, Note_off_c, 1, 82, 0
2, 98440, Note_off_c, 1, 48, 0
2, 98440, Note_off_c, 1, 60, 0
2, 98480, Note_on_c, 1, 48, 127
2, 98480, Note_on_c, 1, 60, 127
2, 98480, Note_on_c, 1, 79, 127
2, 98520, Note_off_c, 1, 79, 0
2, 98560, Note_on_c, 1, 81, 127
2, 98600, Note_off_c, 1, 48, 0
2, 98600, Note_off_c, 1, 60, 0
2, 98600, Note_off_c, 1, 81, 0
2, 98640, Note_on_c, 1, 48, 127
2, 98640, Note_on_c, 1, 60, 127
2, 98640, Note_on_c, 1, 80, 127
2, 98680, Note_off_c, 1, 80, 0
2, 98720, Note_on_c, 1, 79, 127
2, 98760, Note_off_c, 1, 79, 0
2, 98800, Note_on_c, 1, 77, 127
2, 98840, Note_off_c, 1, 48, 0
2, 98840, Note_off_c, 1, 60, 0
2, 98840, Note_off_c, 1, 77, 0
2, 98880, Note_on_c, 1, 54, 127
2, 98880, Note_on_c, 1, 78, 127
2, 98880, Note_on_c, 1, 80, 127
2, 98920, Note_off_c, 1, 78, 0
2, 98920, Note_off_c, 1, 80, 0
2, 98960, Note_on_c, 1, 78, 127
2, 99000, Note_off_c, 1, 78, 0
2, 99040, Note_on_c, 1, 72, 127
2, 99080, Note_off_c, 1, 54, 0
2, 99080, Note_off_c, 1, 72, 0
2, 99120, Note_on_c, 1, 56, 127
2, 99120, Note_on_c, 1, 75, 127
2, 99120, Note_on_c, 1, 83, 127
2, 99240, Note_off_c, 1, 75, 0
2, 99240, Note_off_c, 1, 83, 0
2, 99280, Note_on_c, 1, 75, 127
2, 99280, Note_on_c, 1, 83, 127
2, 99320, Note_off_c, 1, 75, 0
2, 99320, Note_off_c, 1, 83, 0
2, 99360, Note_on_c, 1, 75, 127
2, 99360, Note_on_c, 1, 83, 127
2, 99400, Note_off_c, 1, 75, 0
2, 99400, Note_off_c, 1, 83, 0
2, 99440, Note_on_c, 1, 75, 127
2, 99440, Note_on_c, 1, 83, 127
2, 99480, Note_off_c, 1, 75, 0
2, 99480, Note_off_c, 1, 83, 0
2, 99520, Note_on_c, 1, 75, 127
2, 99520, Note_on_c, 1, 83, 127
2, 99560, Note_off_c, 1, 56, 0
2, 99560, Note_off_c, 1, 75, 0
2, 99560, Note_off_c, 1, 83, 0
2, 99600, Note_on_c, 1, 59, 127
2, 99600, Note_on_c, 1, 74, 127
2, 99600, Note_on_c, 1, 79, 127
2, 99680, Note_off_c, 1, 79, 0
2, 99840, Note_on_c, 1, 65, 127
2, 99880, Note_off_c, 1, 65, 0
2, 99920, Note_on_c, 1, 65, 127
2, 99960, Note_off_c, 1, 65, 0
2, 100040, Note_off_c, 1, 59, 0
2, 100040, Note_off_c, 1, 74, 0
2, 100080, Note_on_c, 1, 56, 127
2, 100080, Note_on_c, 1, 71, 127
2, 100080, Note_on_c, 1, 76, 127
2, 100320, Note_off_c, 1, 76, 0
2, 100360, Note_on_c, 1, 75, 127
2, 100400, Note_off_c, 1, 75, 0
2, 100480, Note_off_c, 1, 56, 0
2, 100480, Note_on_c, 1, 57, 127
2, 100480, Note_on_c, 1, 69, 127
2, 100520, Note_off_c, 1, 57, 0
2, 100520, Note_off_c, 1, 69, 0
2, 100520, Note_off_c, 1, 71, 0
2, 100560, Note_on_c, 1, 50, 127
2, 100560, Note_on_c, 1, 65, 127
2, 100560, Note_on_c, 1, 71, 127
2, 100640, Note_off_c, 1, 50, 0
2, 100640, Note_off_c, 1, 65, 0
2, 100640, Note_off_c, 1, 71, 0
2, 100680, Note_on_c, 1, 50, 127
2, 100680, Note_on_c, 1, 65, 127
2, 100680, Note_on_c, 1, 71, 127
2, 100800, Note_off_c, 1, 65, 0
2, 100800, Note_off_c, 1, 71, 0
2, 100840, Note_on_c, 1, 62, 127
2, 100840, Note_on_c, 1, 71, 127
2, 100960, Note_off_c, 1, 71, 0
2, 101000, Note_on_c, 1, 73, 127
2, 101040, Note_off_c, 1, 50, 0
2, 101040, Note_off_c, 1, 62, 0
2, 101040, Note_off_c, 1, 73, 0
2, 101080, Note_on_c, 1, 50, 127
2, 101080, Note_on_c, 1, 62, 127
2, 101080, Note_on_c, 1, 70, 127
2, 101120, Note_off_c, 1, 70, 0
2, 101160, Note_on_c, 1, 76, 127
2, 101200, Note_off_c, 1, 76, 0
2, 101240, Note_on_c, 1, 77, 127
2, 101280, Note_off_c, 1, 50, 0
2, 101280, Note_off_c, 1, 62, 0
2, 101280, Note_off_c, 1, 77, 0
2, 101320, Note_on_c, 1, 50, 127
2, 101320, Note_on_c, 1, 62, 127
2, 101320, Note_on_c, 1, 65, 127
2, 101360, Note_off_c, 1, 65, 0
2, 101400, Note_on_c, 1, 74, 127
2, 101440, Note_off_c, 1, 74, 0
2, 101480, Note_on_c, 1, 74, 127
2, 101520, Note_off_c, 1, 50, 0
2, 101520, Note_off_c, 1, 62, 0
2, 101520, Note_off_c, 1, 74, 0
2, 101560, Note_on_c, 1, 50, 127
2, 101560, Note_on_c, 1, 62, 127
2, 101560, Note_on_c, 1, 70, 127
2, 101600, Note_off_c, 1, 70, 0
2, 101640, Note_on_c, 1, 72, 127
2, 101680, Note_off_c, 1, 72, 0
2, 101720, Note_on_c, 1, 72, 127
2, 101760, Note_off_c, 1, 50, 0
2, 101760, Note_off_c, 1, 62, 0
2, 101760, Note_off_c, 1, 72, 0
2, 101800, Note_on_c, 1, 51, 127
2, 101800, Note_on_c, 1, 63, 127
2, 101800, Note_on_c, 1, 75, 127
2, 102000, Note_off_c, 1, 51, 0
2, 102000, Note_off_c, 1, 63, 0
2, 102000, Note_off_c, 1, 75, 0
2, 102040, Note_on_c, 1, 49, 127
2, 102040, Note_on_c, 1, 61, 127
2, 102040, Note_on_c, 1, 81, 127
2, 102080, Note_on_c, 1, 48, 127
2, 102080, Note_off_c, 1, 49, 0
2, 102080, Note_on_c, 1, 60, 127
2, 102080, Note_off_c, 1, 61, 0
2, 102080, Note_off_c, 1, 81, 0
2, 102120, Note_off_c, 1, 48, 0
2, 102120, Note_on_c, 1, 49, 127
2, 102120, Note_off_c, 1, 60, 0
2, 102120, Note_on_c, 1, 61, 127
2, 102120, Note_on_c, 1, 80, 127
2, 102160, Note_off_c, 1, 49, 0
2, 102160, Note_on_c, 1, 51, 127
2, 102160, Note_off_c, 1, 61, 0
2, 102160, Note_on_c, 1, 63, 127
2, 102160, Note_off_c, 1, 80, 0
2, 102200, Note_on_c, 1, 48, 127
2, 102200, Note_off_c, 1, 51, 0
2, 102200, Note_on_c, 1, 60, 127
2, 102200, Note_off_c, 1, 63, 0
2, 102200, Note_on_c, 1, 77, 127
2, 102240, Note_off_c, 1, 48, 0
2, 102240, Note_off_c, 1, 60, 0
2, 102240, Note_off_c, 1, 77, 0
2, 102280, Note_on_c, 1, 54, 127
2, 102280, Note_on_c, 1, 66, 127
2, 102280, Note_on_c, 1, 78, 127
2, 102360, Note_off_c, 1, 78, 0
2, 102400, Note_on_c, 1, 82, 127
2, 102480, Note_off_c, 1, 54, 0
2, 102480, Note_off_c, 1, 66, 0
2, 102480, Note_off_c, 1, 82, 0
2, 102520, Note_on_c, 1, 78, 127
2, 102640, Note_off_c, 1, 78, 0
2, 102680, Note_on_c, 1, 77, 127
2, 102720, Note_off_c, 1, 77, 0
2, 102800, Note_on_c, 1, 54, 127
2, 102800, Note_on_c, 1, 66, 127
2, 102800, Note_on_c, 1, 78, 127
2, 102840, Note_off_c, 1, 78, 0
2, 102880, Note_on_c, 1, 82, 127
2, 102920, Note_off_c, 1, 82, 0
2, 102960, Note_on_c, 1, 82, 127
2, 103000, Note_off_c, 1, 54, 0
2, 103000, Note_off_c, 1, 66, 0
2, 103000, Note_off_c, 1, 82, 0
2, 103040, Note_on_c, 1, 54, 127
2, 103040, Note_on_c, 1, 66, 127
2, 103040, Note_on_c, 1, 82, 127
2, 103080, Note_off_c, 1, 82, 0
2, 103120, Note_on_c, 1, 85, 127
2, 103160, Note_off_c, 1, 85, 0
2, 103200, Note_on_c, 1, 58, 127
2, 103200, Note_on_c, 1, 61, 127
2, 103200, Note_on_c, 1, 90, 127
2, 103240, Note_off_c, 1, 54, 0
2, 103240, Note_off_c, 1, 58, 0
2, 103240, Note_off_c, 1, 61, 0
2, 103240, Note_off_c, 1, 66, 0
2, 103240, Note_off_c, 1, 90, 0
2, 103280, Note_on_c, 1, 54, 127
2, 103280, Note_on_c, 1, 66, 127
2, 103280, Note_on_c, 1, 85, 127
2, 103320, Note_off_c, 1, 85, 0
2, 103360, Note_on_c, 1, 87, 127
2, 103400, Note_off_c, 1, 87, 0
2, 103440, Note_on_c, 1, 85, 127
2, 103480, Note_off_c, 1, 54, 0
2, 103480, Note_off_c, 1, 66, 0
2, 103480, Note_off_c, 1, 85, 0
2, 103520, Note_on_c, 1, 49, 127
2, 103520, Note_on_c, 1, 58, 127
2, 103520, Note_on_c, 1, 78, 127
2, 103560, Note_off_c, 1, 78, 0
2, 103600, Note_on_c, 1, 78, 127
2, 103640, Note_off_c, 1, 78, 0
2, 103680, Note_on_c, 1, 78, 127
2, 103720, Note_off_c, 1, 49, 0
2, 103720, Note_off_c, 1, 58, 0
2, 103720, Note_off_c, 1, 78, 0
2, 103760, Note_on_c, 1, 49, 127
2, 103760, Note_on_c, 1, 61, 127
2, 103760, Note_on_c, 1, 78, 127
2, 103800, Note_off_c, 1, 78, 0
2, 103840, Note_on_c, 1, 78, 127
2, 103880, Note_off_c, 1, 78, 0
2, 103920, Note_on_c, 1, 78, 127
2, 103960, Note_off_c, 1, 49, 0
2, 103960, Note_off_c, 1, 61, 0
2, 103960, Note_off_c, 1, 78, 0
2, 104000, Note_on_c, 1, 54, 127
2, 104000, Note_on_c, 1, 66, 127
2, 104000, Note_on_c, 1, 78, 127
2, 104040, Note_off_c, 1, 78, 0
2, 104080, Note_on_c, 1, 82, 127
2, 104120, Note_off_c, 1, 82, 0
2, 104160, Note_on_c, 1, 82, 127
2, 104200, Note_off_c, 1, 54, 0
2, 104200, Note_off_c, 1, 66, 0
2, 104200, Note_off_c, 1, 82, 0
2, 104240, Note_on_c, 1, 49, 127
2, 104240, Note_on_c, 1, 58, 127
2, 104240, Note_on_c, 1, 78, 127
2, 104440, Note_off_c, 1, 49, 0
2, 104440, Note_off_c, 1, 58, 0
2, 104440, Note_off_c, 1, 78, 0
2, 104480, Note_on_c, 1, 49, 127
2, 104480, Note_on_c, 1, 58, 127
2, 104480, Note_on_c, 1, 78, 127
2, 104680, Note_off_c, 1, 49, 0
2, 104680, Note_off_c, 1, 58, 0
2, 104680, Note_off_c, 1, 78, 0
2, 104720, Note_on_c, 1, 42, 127
2, 104720, Note_on_c, 1, 80, 127
2, 104760, Note_off_c, 1, 80, 0
2, 104800, Note_off_c, 1, 42, 0
2, 104840, Note_on_c, 1, 42, 127
2, 104840, Note_on_c, 1, 82, 127
2, 104880, Note_off_c, 1, 82, 0
2, 104920, Note_on_c, 1, 82, 127
2, 104960, Note_off_c, 1, 42, 0
2, 104960, Note_off_c, 1, 82, 0
2, 105000, Note_on_c, 1, 42, 127
2, 105000, Note_on_c, 1, 82, 127
2, 105040, Note_off_c, 1, 82, 0
2, 105080, Note_on_c, 1, 82, 127
2, 105120, Note_off_c, 1, 82, 0
2, 105160, Note_on_c, 1, 82, 127
2, 105200, Note_off_c, 1, 42, 0
2, 105200, Note_off_c, 1, 82, 0
2, 105240, Note_on_c, 1, 42, 127
2, 105240, Note_on_c, 1, 87, 127
2, 105280, Note_off_c, 1, 87, 0
2, 105320, Note_off_c, 1, 42, 0
2, 105320, Note_on_c, 1, 44, 127
2, 105320, Note_on_c, 1, 78, 127
2, 105360, Note_on_c, 1, 42, 127
2, 105360, Note_off_c, 1, 44, 0
2, 105360, Note_off_c, 1, 78, 0
2, 105400, Note_on_c, 1, 77, 127
2, 105440, Note_off_c, 1, 77, 0
2, 105480, Note_on_c, 1, 80, 127
2, 105520, Note_off_c, 1, 80, 0
2, 105560, Note_on_c, 1, 78, 127
2, 105600, Note_off_c, 1, 78, 0
2, 105640, Note_on_c, 1, 78, 127
2, 105680, Note_off_c, 1, 42, 0
2, 105680, Note_off_c, 1, 78, 0
2, 105720, Note_on_c, 1, 42, 127
2, 105720, Note_on_c, 1, 61, 127
2, 105720, Note_on_c, 1, 78, 127
2, 105760, Note_off_c, 1, 61, 0
2, 105760, Note_off_c, 1, 78, 0
2, 105800, Note_on_c, 1, 78, 127
2, 105840, Note_off_c, 1, 78, 0
2, 105880, Note_on_c, 1, 78, 127
2, 105920, Note_off_c, 1, 42, 0
2, 105920, Note_off_c, 1, 78, 0
2, 105960, Note_on_c, 1, 38, 127
2, 105960, Note_on_c, 1, 83, 127
2, 106000, Note_off_c, 1, 38, 0
2, 106000, Note_on_c, 1, 42, 127
2, 106000, Note_off_c, 1, 83, 0
2, 106040, Note_on_c, 1, 82, 127
2, 106080, Note_off_c, 1, 82, 0
2, 106120, Note_on_c, 1, 78, 127
2, 106160, Note_off_c, 1, 42, 0
2, 106160, Note_off_c, 1, 78, 0
2, 106200, Note_on_c, 1, 42, 127
2, 106200, Note_on_c, 1, 90, 127
2, 106240, Note_off_c, 1, 90, 0
2, 106280, Note_on_c, 1, 90, 127
2, 106320, Note_off_c, 1, 90, 0
2, 106360, Note_on_c, 1, 90, 127
2, 106400, Note_off_c, 1, 42, 0
2, 106400, Note_off_c, 1, 90, 0
2, 106440, Note_on_c, 1, 42, 127
2, 106440, Note_on_c, 1, 90, 127
2, 106480, Note_off_c, 1, 90, 0
2, 106520, Note_on_c, 1, 90, 127
2, 106560, Note_off_c, 1, 90, 0
2, 106600, Note_on_c, 1, 82, 127
2, 106640, Note_off_c, 1, 42, 0
2, 106640, Note_off_c, 1, 82, 0
2, 106680, Note_on_c, 1, 42, 127
2, 106680, Note_on_c, 1, 90, 127
2, 106800, Note_off_c, 1, 90, 0
2, 106840, Note_on_c, 1, 90, 127
2, 106880, Note_off_c, 1, 42, 0
2, 106880, Note_off_c, 1, 90, 0
2, 106920, Note_on_c, 1, 39, 127
2, 106920, Note_on_c, 1, 90, 127
2, 107040, Note_off_c, 1, 39, 0
2, 107040, Note_off_c, 1, 90, 0
2, 107080, Note_on_c, 1, 39, 127
2, 107080, Note_on_c, 1, 90, 127
2, 107160, Note_off_c, 1, 39, 0
2, 107160, Note_off_c, 1, 90, 0
2, 107160, Note_on_c, 1, 95, 127
2, 107200, Note_on_c, 1, 39, 127
2, 107200, Note_on_c, 1, 90, 127
2, 107200, Note_off_c, 1, 95, 0
2, 107400, Note_on_c, 1, 37, 127
2, 107400, Note_off_c, 1, 39, 0
2, 107400, Note_off_c, 1, 90, 0
2, 107440, Note_off_c, 1, 37, 0
2, 107440, Note_on_c, 1, 39, 127
2, 107440, Note_on_c, 1, 90, 127
2, 107640, Note_off_c, 1, 39, 0
2, 107640, Note_on_c, 1, 42, 127
2, 107640, Note_off_c, 1, 90, 0
2, 107680, Note_on_c, 1, 39, 127
2, 107680, Note_off_c, 1, 42, 0
2, 107680, Note_on_c, 1, 90, 127
2, 107880, Note_off_c, 1, 39, 0
2, 107880, Note_on_c, 1, 42, 127
2, 107880, Note_off_c, 1, 90, 0
2, 107920, Note_on_c, 1, 39, 127
2, 107920, Note_off_c, 1, 42, 0
2, 107920, Note_on_c, 1, 90, 127
2, 108120, Note_off_c, 1, 39, 0
2, 108120, Note_off_c, 1, 90, 0
2, 108160, Note_on_c, 1, 39, 127
2, 108160, Note_on_c, 1, 90, 127
2, 108240, Note_off_c, 1, 39, 0
2, 108240, Note_on_c, 1, 42, 127
2, 108280, Note_on_c, 1, 39, 127
2, 108280, Note_off_c, 1, 42, 0
2, 108360, Note_off_c, 1, 39, 0
2, 108360, Note_on_c, 1, 42, 127
2, 108360, Note_off_c, 1, 90, 0
2, 108400, Note_on_c, 1, 39, 127
2, 108400, Note_off_c, 1, 42, 0
2, 108400, Note_on_c, 1, 90, 127
2, 108600, Note_off_c, 1, 39, 0
2, 108600, Note_on_c, 1, 42, 127
2, 108600, Note_off_c, 1, 90, 0
2, 108640, Note_on_c, 1, 90, 127
2, 108840, Note_off_c, 1, 42, 0
2, 108840, Note_off_c, 1, 90, 0
2, 108880, Note_on_c, 1, 42, 127
2, 108880, Note_on_c, 1, 90, 127
2, 109040, Note_off_c, 1, 90, 0
2, 109080, Note_off_c, 1, 42, 0
2, 109120, Note_on_c, 1, 89, 127
2, 109160, Note_on_c, 1, 55, 127
2, 109160, Note_on_c, 1, 59, 127
2, 109160, Note_on_c, 1, 64, 127
2, 109160, Note_on_c, 1, 88, 127
2, 109160, Note_off_c, 1, 89, 0
2, 109320, Note_off_c, 1, 88, 0
2, 109360, Note_off_c, 1, 55, 0
2, 109360, Note_off_c, 1, 59, 0
2, 109360, Note_off_c, 1, 64, 0
2, 109360, Note_on_c, 1, 78, 127
2, 109400, Note_on_c, 1, 42, 127
2, 109400, Note_off_c, 1, 78, 0
2, 109400, Note_on_c, 1, 90, 127
2, 109520, Note_off_c, 1, 42, 0
2, 109640, Note_on_c, 1, 54, 127
2, 109640, Note_on_c, 1, 58, 127
2, 109640, Note_on_c, 1, 61, 127
2, 109840, Note_off_c, 1, 54, 0
2, 109840, Note_off_c, 1, 58, 0
2, 109840, Note_off_c, 1, 61, 0
2, 109840, Note_off_c, 1, 90, 0
2, 109880, Note_on_c, 1, 35, 127
2, 109880, Note_on_c, 1, 47, 127
2, 110080, Note_off_c, 1, 35, 0
2, 110080, Note_off_c, 1, 47, 0
2, 110120, Note_on_c, 1, 54, 127
2, 110120, Note_on_c, 1, 59, 127
2, 110120, Note_on_c, 1, 63, 127
2, 110120, Note_on_c, 1, 78, 127
2, 110160, Note_off_c, 1, 78, 0
2, 110200, Note_on_c, 1, 75, 127
2, 110240, Note_off_c, 1, 75, 0
2, 110280, Note_on_c, 1, 75, 127
2, 110320, Note_off_c, 1, 54, 0
2, 110320, Note_off_c, 1, 59, 0
2, 110320, Note_off_c, 1, 63, 0
2, 110320, Note_off_c, 1, 75, 0
2, 110360, Note_on_c, 1, 47, 127
2, 110360, Note_on_c, 1, 78, 127
2, 110520, Note_off_c, 1, 78, 0
2, 110560, Note_off_c, 1, 47, 0
2, 110560, Note_on_c, 1, 78, 127
2, 110600, Note_on_c, 1, 47, 127
2, 110680, Note_off_c, 1, 78, 0
2, 110720, Note_on_c, 1, 76, 127
2, 110800, Note_off_c, 1, 47, 0
2, 110840, Note_on_c, 1, 55, 127
2, 110840, Note_on_c, 1, 59, 127
2, 110840, Note_on_c, 1, 64, 127
2, 111040, Note_off_c, 1, 55, 0
2, 111040, Note_off_c, 1, 59, 0
2, 111040, Note_off_c, 1, 64, 0
2, 111040, Note_off_c, 1, 76, 0
2, 111120, Note_on_c, 1, 47, 127
2, 111120, Note_on_c, 1, 78, 127
2, 111200, Note_off_c, 1, 47, 0
2, 111360, Note_on_c, 1, 47, 127
2, 111520, Note_off_c, 1, 47, 0
2, 111600, Note_on_c, 1, 47, 127
2, 111720, Note_off_c, 1, 47, 0
2, 111840, Note_on_c, 1, 47, 127
2, 111960, Note_off_c, 1, 47, 0
2, 112080, Note_on_c, 1, 47, 127
2, 112200, Note_off_c, 1, 47, 0
2, 112280, Note_off_c, 1, 78, 0
2, 112320, Note_on_c, 1, 47, 127
2, 112320, Note_on_c, 1, 75, 127
2, 112360, Note_off_c, 1, 75, 0
2, 112400, Note_off_c, 1, 47, 0
2, 112400, Note_on_c, 1, 68, 127
2, 112440, Note_off_c, 1, 68, 0
2, 112480, Note_on_c, 1, 71, 127
2, 112520, Note_off_c, 1, 71, 0
2, 112560, Note_on_c, 1, 47, 127
2, 112560, Note_on_c, 1, 71, 127
2, 112640, Note_off_c, 1, 71, 0
2, 112800, Note_on_c, 1, 63, 127
2, 112880, Note_off_c, 1, 63, 0
2, 112920, Note_on_c, 1, 63, 127
2, 113000, Note_off_c, 1, 47, 0
2, 113000, Note_off_c, 1, 63, 0
2, 113080, Note_on_c, 1, 70, 127
2, 113280, Note_off_c, 1, 70, 0
2, 113320, Note_on_c, 1, 68, 127
2, 113560, Note_on_c, 1, 80, 127
2, 113560, Note_on_c, 1, 83, 127
2, 113600, Note_off_c, 1, 80, 0
2, 113600, Note_off_c, 1, 83, 0
2, 113800, Note_on_c, 1, 83, 127
2, 113840, Note_off_c, 1, 83, 0
2, 113880, Note_on_c, 1, 83, 127
2, 113920, Note_off_c, 1, 83, 0
2, 113960, Note_on_c, 1, 83, 127
2, 114000, Note_off_c, 1, 83, 0
2, 114040, Note_on_c, 1, 83, 127
2, 114080, Note_off_c, 1, 83, 0
2, 114280, Note_on_c, 1, 83, 127
2, 114320, Note_off_c, 1, 83, 0
2, 114360, Note_on_c, 1, 82, 127
2, 114400, Note_off_c, 1, 82, 0
2, 114440, Note_on_c, 1, 83, 127
2, 114480, Note_off_c, 1, 83, 0
2, 114520, Note_on_c, 1, 74, 127
2, 114560, Note_off_c, 1, 74, 0
2, 114760, Note_on_c, 1, 83, 127
2, 114800, Note_off_c, 1, 83, 0
2, 114840, Note_on_c, 1, 83, 127
2, 114880, Note_off_c, 1, 83, 0
2, 114920, Note_on_c, 1, 83, 127
2, 114960, Note_off_c, 1, 83, 0
2, 115000, Note_on_c, 1, 83, 127
2, 115040, Note_off_c, 1, 83, 0
2, 115200, Note_on_c, 1, 74, 127
2, 115240, Note_off_c, 1, 68, 0
2, 115240, Note_off_c, 1, 74, 0
2, 115320, Note_on_c, 1, 71, 127
2, 115520, Note_off_c, 1, 71, 0
2, 115560, Note_on_c, 1, 71, 127
2, 115560, Note_on_c, 1, 82, 127
2, 115600, Note_off_c, 1, 82, 0
2, 115640, Note_on_c, 1, 82, 127
2, 115680, Note_off_c, 1, 82, 0
2, 115720, Note_on_c, 1, 82, 127
2, 115760, Note_off_c, 1, 71, 0
2, 115760, Note_off_c, 1, 82, 0
2, 115800, Note_on_c, 1, 71, 127
2, 115800, Note_on_c, 1, 80, 127
2, 116000, Note_off_c, 1, 71, 0
2, 116000, Note_off_c, 1, 80, 0
2, 116040, Note_on_c, 1, 71, 127
2, 116040, Note_on_c, 1, 78, 127
2, 116080, Note_off_c, 1, 78, 0
2, 116240, Note_off_c, 1, 71, 0
2, 116280, Note_on_c, 1, 59, 127
2, 116280, Note_on_c, 1, 75, 127
2, 116280, Note_on_c, 1, 78, 127
2, 116480, Note_off_c, 1, 75, 0
2, 116480, Note_off_c, 1, 78, 0
2, 116520, Note_on_c, 1, 71, 127
2, 116520, Note_on_c, 1, 78, 127
2, 116560, Note_off_c, 1, 78, 0
2, 116600, Note_on_c, 1, 83, 127
2, 116640, Note_off_c, 1, 83, 0
2, 116680, Note_off_c, 1, 71, 0
2, 116720, Note_on_c, 1, 75, 127
2, 116760, Note_off_c, 1, 75, 0
2, 116800, Note_on_c, 1, 66, 127
2, 116840, Note_off_c, 1, 66, 0
2, 116880, Note_on_c, 1, 71, 127
2, 116920, Note_off_c, 1, 71, 0
2, 116960, Note_off_c, 1, 59, 0
2, 116960, Note_on_c, 1, 63, 127
2, 116960, Note_on_c, 1, 78, 127
2, 117160, Note_off_c, 1, 63, 0
2, 117160, Note_off_c, 1, 78, 0
2, 117200, Note_on_c, 1, 69, 127
2, 117200, Note_on_c, 1, 71, 127
2, 117240, Note_off_c, 1, 71, 0
2, 117280, Note_off_c, 1, 69, 0
2, 117320, Note_on_c, 1, 69, 127
2, 117440, Note_off_c, 1, 69, 0
2, 117480, Note_on_c, 1, 59, 127
2, 117480, Note_on_c, 1, 75, 127
2, 117520, Note_off_c, 1, 75, 0
2, 117640, Note_on_c, 1, 76, 127
2, 117680, Note_off_c, 1, 59, 0
2, 117680, Note_off_c, 1, 76, 0
2, 117720, Note_on_c, 1, 63, 127
2, 117720, Note_on_c, 1, 80, 127
2, 117760, Note_off_c, 1, 80, 0
2, 117800, Note_on_c, 1, 78, 127
2, 117840, Note_off_c, 1, 78, 0
2, 117880, Note_on_c, 1, 78, 127
2, 117920, Note_off_c, 1, 63, 0
2, 117920, Note_off_c, 1, 78, 0
2, 117960, Note_on_c, 1, 64, 127
2, 117960, Note_on_c, 1, 81, 127
2, 118000, Note_off_c, 1, 81, 0
2, 118040, Note_on_c, 1, 80, 127
2, 118080, Note_off_c, 1, 80, 0
2, 118120, Note_on_c, 1, 78, 127
2, 118160, Note_off_c, 1, 64, 0
2, 118160, Note_off_c, 1, 78, 0
2, 118200, Note_on_c, 1, 64, 127
2, 118200, Note_on_c, 1, 78, 127
2, 118280, Note_off_c, 1, 78, 0
2, 118320, Note_on_c, 1, 76, 127
2, 118400, Note_off_c, 1, 76, 0
2, 118440, Note_on_c, 1, 75, 127
2, 118480, Note_off_c, 1, 75, 0
2, 118520, Note_on_c, 1, 75, 127
2, 118560, Note_off_c, 1, 75, 0
2, 118600, Note_on_c, 1, 73, 127
2, 118640, Note_off_c, 1, 64, 0
2, 118640, Note_off_c, 1, 73, 0
2, 118680, Note_on_c, 1, 66, 127
2, 118680, Note_on_c, 1, 75, 127
2, 118720, Note_off_c, 1, 75, 0
2, 118760, Note_on_c, 1, 83, 127
2, 118800, Note_off_c, 1, 83, 0
2, 118840, Note_on_c, 1, 81, 127
2, 118880, Note_off_c, 1, 81, 0
2, 118920, Note_on_c, 1, 75, 127
2, 118960, Note_off_c, 1, 75, 0
2, 119000, Note_on_c, 1, 75, 127
2, 119040, Note_off_c, 1, 75, 0
2, 119080, Note_on_c, 1, 75, 127
2, 119120, Note_off_c, 1, 66, 0
2, 119120, Note_off_c, 1, 75, 0
2, 119160, Note_on_c, 1, 63, 127
2, 119160, Note_on_c, 1, 81, 127
2, 119200, Note_off_c, 1, 81, 0
2, 119240, Note_on_c, 1, 84, 127
2, 119280, Note_off_c, 1, 84, 0
2, 119320, Note_off_c, 1, 63, 0
2, 119360, Note_on_c, 1, 63, 127
2, 119360, Note_on_c, 1, 83, 127
2, 119400, Note_off_c, 1, 63, 0
2, 119400, Note_off_c, 1, 83, 0
2, 119440, Note_on_c, 1, 64, 127
2, 119440, Note_on_c, 1, 84, 127
2, 119480, Note_off_c, 1, 84, 0
2, 119520, Note_on_c, 1, 85, 127
2, 119560, Note_off_c, 1, 85, 0
2, 119600, Note_on_c, 1, 80, 127
2, 119640, Note_off_c, 1, 64, 0
2, 119640, Note_off_c, 1, 80, 0
2, 119680, Note_on_c, 1, 61, 127
2, 119680, Note_on_c, 1, 81, 127
2, 119720, Note_off_c, 1, 81, 0
2, 119760, Note_on_c, 1, 81, 127
2, 119800, Note_off_c, 1, 81, 0
2, 119840, Note_on_c, 1, 81, 127
2, 119880, Note_off_c, 1, 61, 0
2, 119880, Note_off_c, 1, 81, 0
2, 119920, Note_on_c, 1, 55, 127
2, 119920, Note_on_c, 1, 83, 127
2, 119960, Note_off_c, 1, 83, 0
2, 120000, Note_off_c, 1, 55, 0
2, 120040, End_track
3, 0, Start_track
3, 0, Title_t, "MIDI"
3, 1536, End_track
0, 0, End_of_file
