0, 0, Header, 1, 3, 192
1, 0, Start_track
1, 0, Time_signature, 4, 2, 24, 8
1, 0, Tempo, 500000
1, 120040, End_track
2, 0, Start_track
2, 0, Text_t, "random instrument: random person i dunno whatev"
2, 0, Title_t, "Track 1"
2, 0, Note_on_c, 1, 40, 127
2, 0, Note_on_c, 1, 48, 127
2, 0, Note_on_c, 1, 56, 127
2, 0, Note_on_c, 1, 60, 127
2, 40, Note_off_c, 1, 40, 0
2, 40, Note_off_c, 1, 48, 0
2, 40, Note_on_c, 1, 55, 127
2, 40, Note_off_c, 1, 56, 0
2, 40, Note_off_c, 1, 60, 0
2, 40, Note_on_c, 1, 72, 127
2, 40, Note_on_c, 1, 75, 127
2, 40, Note_on_c, 1, 79, 127
2, 40, Note_on_c, 1, 84, 127
2, 80, Note_off_c, 1, 55, 0
2, 80, Note_off_c, 1, 72, 0
2, 80, Note_off_c, 1, 75, 0
2, 80, Note_off_c, 1, 79, 0
2, 80, Note_off_c, 1, 84, 0
2, 120, Note_on_c, 1, 50, 127
2, 120, Note_on_c, 1, 59, 127
2, 120, Note_on_c, 1, 62, 127
2, 120, Note_on_c, 1, 78, 127
2, 160, Note_off_c, 1, 50, 0
2, 160, Note_off_c, 1, 59, 0
2, 160, Note_on_c, 1, 60, 127
2, 160, Note_off_c, 1, 62, 0
2, 160, Note_on_c, 1, 66, 127
2, 160, Note_on_c, 1, 68, 127
2, 160, Note_off_c, 1, 78, 0
2, 160, Note_on_c, 1, 90, 127
2, 200, Note_on_c, 1, 35, 127
2, 200, Note_on_c, 1, 39, 127
2, 200, Note_on_c, 1, 47, 127
2, 200, Note_on_c, 1, 50, 127
2, 200, Note_off_c, 1, 60, 0
2, 200, Note_off_c, 1, 66, 0
2, 200, Note_off_c, 1, 68, 0
2, 200, Note_off_c, 1, 90, 0
2, 240, Note_off_c, 1, 35, 0
2, 240, Note_off_c, 1, 39, 0
2, 240, Note_off_c, 1, 47, 0
2, 240, Note_off_c, 1, 50, 0
2, 240, Note_on_c, 1, 51, 127
2, 240, Note_on_c, 1, 55, 127
2, 240, Note_on_c, 1, 58, 127
2, 240, Note_on_c, 1, 63, 127
2, 240, Note_on_c, 1, 82, 127
2, 240, Note_on_c, 1, 91, 127
2, 280, Note_off_c, 1, 51, 0
2, 280, Note_off_c, 1, 55, 0
2, 280, Note_off_c, 1, 58, 0
2, 280, Note_off_c, 1, 63, 0
2, 280, Note_on_c, 1, 76, 127
2, 280, Note_on_c, 1, 80, 127
2, 280, Note_off_c, 1, 82, 0
2, 280, Note_on_c, 1, 83, 127
2, 280, Note_on_c, 1, 89, 127
2, 280, Note_off_c, 1, 91, 0
2, 320, Note_on_c, 1, 58, 127
2, 320, Note_on_c, 1, 63, 127
2, 320, Note_on_c, 1, 66, 127
2, 320, Note_on_c, 1, 72, 127
2, 320, Note_on_c, 1, 75, 127
2, 320, Note_off_c, 1, 76, 0
2, 320, Note_off_c, 1, 80, 0
2, 320, Note_on_c, 1, 82, 127
2, 320, Note_off_c, 1, 83, 0
2, 320, Note_on_c, 1, 87, 127
2, 320, Note_off_c, 1, 89, 0
2, 360, Note_on_c, 1, 57, 127
2, 360, Note_off_c, 1, 58, 0
2, 360, Note_on_c, 1, 62, 127
2, 360, Note_off_c, 1, 63, 0
2, 360, Note_off_c, 1, 66, 0
2, 360, Note_off_c, 1, 72, 0
2, 360, Note_off_c, 1, 75, 0
2, 360, Note_off_c, 1, 82, 0
2, 360, Note_off_c, 1, 87, 0
2, 400, Note_off_c, 1, 57, 0
2, 400, Note_on_c, 1, 60, 127
2, 400, Note_off_c, 1, 62, 0
2, 400, Note_on_c, 1, 85, 127
2, 400, Note_on_c, 1, 88, 127
2, 440, Note_on_c, 1, 50, 127
2, 440, Note_on_c, 1, 57, 127
2, 440, Note_off_c, 1, 60, 0
2, 440, Note_on_c, 1, 65, 127
2, 440, Note_off_c, 1, 85, 0
2, 440, Note_off_c, 1, 88, 0
2, 440, Note_on_c, 1, 93, 127
2, 800, Note_off_c, 1, 50, 0
2, 800, Note_off_c, 1, 57, 0
2, 800, Note_off_c, 1, 65, 0
2, 800, Note_off_c, 1, 93, 0
2, 5240, Note_on_c, 1, 43, 127
2, 5240, Note_on_c, 1, 50, 127
2, 5240, Note_on_c, 1, 60, 127
2, 5240, Note_on_c, 1, 62, 127
2, 5240, Note_on_c, 1, 69, 127
2, 5480, Note_off_c, 1, 43, 0
2, 5480, Note_off_c, 1, 50, 0
2, 5480, Note_off_c, 1, 60, 0
2, 5480, Note_off_c, 1, 62, 0
2, 5480, Note_off_c, 1, 69, 0
2, 6120, Note_on_c, 1, 47, 127
2, 6120, Note_on_c, 1, 56, 127
2, 6120, Note_on_c, 1, 64, 127
2, 6120, Note_on_c, 1, 70, 127
2, 6160, Note_off_c, 1, 47, 0
2, 6160, Note_on_c, 1, 50, 127
2, 6160, Note_off_c, 1, 56, 0
2, 6160, Note_off_c, 1, 64, 0
2, 6160, Note_on_c, 1, 80, 127
2, 6160, Note_on_c, 1, 82, 127
2, 6200, Note_on_c, 1, 42, 127
2, 6200, Note_off_c, 1, 50, 0
2, 6200, Note_on_c, 1, 52, 127
2, 6200, Note_on_c, 1, 59, 127
2, 6200, Note_on_c, 1, 64, 127
2, 6200, Note_off_c, 1, 70, 0
2, 6200, Note_off_c, 1, 80, 0
2, 6200, Note_off_c, 1, 82, 0
2, 6240, Note_off_c, 1, 42, 0
2, 6240, Note_off_c, 1, 52, 0
2, 6240, Note_off_c, 1, 59, 0
2, 6240, Note_off_c, 1, 64, 0
2, 6240, Note_on_c, 1, 67, 127
2, 6240, Note_on_c, 1, 70, 127
2, 6240, Note_on_c, 1, 84, 127
2, 6240, Note_on_c, 1, 87, 127
2, 6240, Note_on_c, 1, 93, 127
2, 6280, Note_on_c, 1, 55, 127
2, 6280, Note_on_c, 1, 61, 127
2, 6280, Note_on_c, 1, 64, 127
2, 6280, Note_off_c, 1, 67, 0
2, 6280, Note_on_c, 1, 69, 127
2, 6280, Note_off_c, 1, 70, 0
2, 6280, Note_off_c, 1, 84, 0
2, 6280, Note_on_c, 1, 85, 127
2, 6280, Note_off_c, 1, 87, 0
2, 6280, Note_off_c, 1, 93, 0
2, 6320, Note_on_c, 1, 45, 127
2, 6320, Note_on_c, 1, 52, 127
2, 6320, Note_on_c, 1, 54, 127
2, 6320, Note_off_c, 1, 55, 0
2, 6320, Note_on_c, 1, 57, 127
2, 6320, Note_off_c, 1, 61, 0
2, 6320, Note_off_c, 1, 69, 0
2, 6320, Note_on_c, 1, 76, 127
2, 6320, Note_off_c, 1, 85, 0
2, 6320, Note_on_c, 1, 88, 127
2, 6360, Note_off_c, 1, 45, 0
2, 6360, Note_off_c, 1, 52, 0
2, 6360, Note_off_c, 1, 54, 0
2, 6360, Note_off_c, 1, 57, 0
2, 6360, Note_off_c, 1, 64, 0
2, 6360, Note_off_c, 1, 76, 0
2, 6360, Note_off_c, 1, 88, 0
2, 6400, Note_on_c, 1, 44, 127
2, 6400, Note_on_c, 1, 49, 127
2, 6400, Note_on_c, 1, 56, 127
2, 6400, Note_on_c, 1, 71, 127
2, 6400, Note_on_c, 1, 73, 127
2, 6400, Note_on_c, 1, 83, 127
2, 6640, Note_off_c, 1, 44, 0
2, 6640, Note_off_c, 1, 49, 0
2, 6640, Note_off_c, 1, 56, 0
2, 6640, Note_off_c, 1, 71, 0
2, 6640, Note_off_c, 1, 73, 0
2, 6640, Note_off_c, 1, 83, 0
2, 6680, Note_on_c, 1, 42, 127
2, 6680, Note_on_c, 1, 49, 127
2, 6680, Note_on_c, 1, 54, 127
2, 6680, Note_on_c, 1, 70, 127
2, 6680, Note_on_c, 1, 73, 127
2, 6680, Note_on_c, 1, 82, 127
2, 6920, Note_off_c, 1, 42, 0
2, 6920, Note_off_c, 1, 49, 0
2, 6920, Note_off_c, 1, 54, 0
2, 6920, Note_off_c, 1, 70, 0
2, 6920, Note_off_c, 1, 73, 0
2, 6920, Note_off_c, 1, 82, 0
2, 6960, Note_on_c, 1, 42, 127
2, 6960, Note_on_c, 1, 49, 127
2, 6960, Note_on_c, 1, 54, 127
2, 6960, Note_on_c, 1, 70, 127
2, 6960, Note_on_c, 1, 73, 127
2, 6960, Note_on_c, 1, 82, 127
2, 7200, Note_off_c, 1, 42, 0
2, 7200, Note_off_c, 1, 49, 0
2, 7200, Note_off_c, 1, 54, 0
2, 7200, Note_off_c, 1, 70, 0
2, 7200, Note_off_c, 1, 73, 0
2, 7200, Note_off_c, 1, 82, 0
2, 7240, Note_on_c, 1, 42, 127
2, 7240, Note_on_c, 1, 49, 127
2, 7240, Note_on_c, 1, 54, 127
2, 7240, Note_on_c, 1, 70, 127
2, 7240, Note_on_c, 1, 73, 127
2, 7240, Note_on_c, 1, 82, 127
2, 7480, Note_off_c, 1, 42, 0
2, 7480, Note_off_c, 1, 49, 0
2, 7480, Note_off_c, 1, 54, 0
2, 7480, Note_off_c, 1, 70, 0
2, 7480, Note_off_c, 1, 73, 0
2, 7480, Note_off_c, 1, 82, 0
2, 7520, Note_on_c, 1, 42, 127
2, 7520, Note_on_c, 1, 49, 127
2, 7520, Note_on_c, 1, 54, 127
2, 7520, Note_on_c, 1, 70, 127
2, 7520, Note_on_c, 1, 73, 127
2, 7520, Note_on_c, 1, 82, 127
2, 7720, Note_off_c, 1, 42, 0
2, 7720, Note_off_c, 1, 49, 0
2, 7720, Note_off_c, 1, 54, 0
2, 7720, Note_off_c, 1, 70, 0
2, 7720, Note_off_c, 1, 73, 0
2, 7720, Note_off_c, 1, 82, 0
2, 7760, Note_on_c, 1, 42, 127
2, 7760, Note_on_c, 1, 49, 127
2, 7760, Note_on_c, 1, 54, 127
2, 7760, Note_on_c, 1, 70, 127
2, 7760, Note_on_c, 1, 73, 127
2, 7760, Note_on_c, 1, 82, 127
2, 7800, Note_off_c, 1, 42, 0
2, 7800, Note_off_c, 1, 49, 0
2, 7800, Note_off_c, 1, 54, 0
2, 7800, Note_off_c, 1, 70, 0
2, 7800, Note_off_c, 1, 73, 0
2, 7800, Note_off_c, 1, 82, 0
2, 7840, Note_on_c, 1, 42, 127
2, 7840, Note_on_c, 1, 49, 127
2, 7840, Note_on_c, 1, 54, 127
2, 7840, Note_on_c, 1, 70, 127
2, 7840, Note_on_c, 1, 73, 127
2, 7840, Note_on_c, 1, 82, 127
2, 8080, Note_off_c, 1, 42, 0
2, 8080, Note_off_c, 1, 49, 0
2, 8080, Note_off_c, 1, 54, 0
2, 8080, Note_off_c, 1, 70, 0
2, 8080, Note_off_c, 1, 73, 0
2, 8080, Note_off_c, 1, 82, 0
2, 8120, Note_on_c, 1, 42, 127
2, 8120, Note_on_c, 1, 49, 127
2, 8120, Note_on_c, 1, 54, 127
2, 8120, Note_on_c, 1, 70, 127
2, 8120, Note_on_c, 1, 73, 127
2, 8120, Note_on_c, 1, 82, 127
2, 8360, Note_off_c, 1, 42, 0
2, 8360, Note_off_c, 1, 49, 0
2, 8360, Note_off_c, 1, 54, 0
2, 8360, Note_off_c, 1, 70, 0
2, 8360, Note_off_c, 1, 73, 0
2, 8360, Note_off_c, 1, 82, 0
2, 8400, Note_on_c, 1, 42, 127
2, 8400, Note_on_c, 1, 49, 127
2, 8400, Note_on_c, 1, 54, 127
2, 8400, Note_on_c, 1, 70, 127
2, 8400, Note_on_c, 1, 73, 127
2, 8400, Note_on_c, 1, 82, 127
2, 8640, Note_off_c, 1, 42, 0
2, 8640, Note_off_c, 1, 49, 0
2, 8640, Note_off_c, 1, 54, 0
2, 8640, Note_off_c, 1, 70, 0
2, 8640, Note_off_c, 1, 73, 0
2, 8640, Note_off_c, 1, 82, 0
2, 8680, Note_on_c, 1, 42, 127
2, 8680, Note_on_c, 1, 49, 127
2, 8680, Note_on_c, 1, 54, 127
2, 8680, Note_on_c, 1, 70, 127
2, 8680, Note_on_c, 1, 73, 127
2, 8680, Note_on_c, 1, 82, 127
2, 8920, Note_off_c, 1, 42, 0
2, 8920, Note_off_c, 1, 49, 0
2, 8920, Note_off_c, 1, 54, 0
2, 8920, Note_off_c, 1, 70, 0
2, 8920, Note_off_c, 1, 73, 0
2, 8920, Note_off_c, 1, 82, 0
2, 8960, Note_on_c, 1, 42, 127
2, 8960, Note_on_c, 1, 49, 127
2, 8960, Note_on_c, 1, 54, 127
2, 8960, Note_on_c, 1, 70, 127
2, 8960, Note_on_c, 1, 73, 127
2, 8960, Note_on_c, 1, 82, 127
2, 9200, Note_off_c, 1, 42, 0
2, 9200, Note_off_c, 1, 49, 0
2, 9200, Note_off_c, 1, 54, 0
2, 9200, Note_off_c, 1, 70, 0
2, 9200, Note_off_c, 1, 73, 0
2, 9200, Note_off_c, 1, 82, 0
2, 9240, Note_on_c, 1, 42, 127
2, 9240, Note_on_c, 1, 49, 127
2, 9240, Note_on_c, 1, 54, 127
2, 9240, Note_on_c, 1, 70, 127
2, 9240, Note_on_c, 1, 73, 127
2, 9240, Note_on_c, 1, 82, 127
2, 9480, Note_off_c, 1, 42, 0
2, 9480, Note_off_c, 1, 49, 0
2, 9480, Note_off_c, 1, 54, 0
2, 9480, Note_off_c, 1, 70, 0
2, 9480, Note_off_c, 1, 73, 0
2, 9480, Note_off_c, 1, 82, 0
2, 9520, Note_on_c, 1, 42, 127
2, 9520, Note_on_c, 1, 49, 127
2, 9520, Note_on_c, 1, 54, 127
2, 9520, Note_on_c, 1, 70, 127
2, 9520, Note_on_c, 1, 73, 127
2, 9520, Note_on_c, 1, 82, 127
2, 9760, Note_off_c, 1, 42, 0
2, 9760, Note_off_c, 1, 49, 0
2, 9760, Note_off_c, 1, 54, 0
2, 9760, Note_off_c, 1, 70, 0
2, 9760, Note_off_c, 1, 73, 0
2, 9760, Note_off_c, 1, 82, 0
2, 9800, Note_on_c, 1, 42, 127
2, 9800, Note_on_c, 1, 49, 127
2, 9800, Note_on_c, 1, 54, 127
2, 9800, Note_on_c, 1, 70, 127
2, 9800, Note_on_c, 1, 73, 127
2, 9800, Note_on_c, 1, 82, 127
2, 10000, Note_off_c, 1, 42, 0
2, 10000, Note_off_c, 1, 49, 0
2, 10000, Note_off_c, 1, 54, 0
2, 10000, Note_off_c, 1, 70, 0
2, 10000, Note_off_c, 1, 73, 0
2, 10000, Note_off_c, 1, 82, 0
2, 10040, Note_on_c, 1, 42, 127
2, 10040, Note_on_c, 1, 49, 127
2, 10040, Note_on_c, 1, 54, 127
2, 10040, Note_on_c, 1, 70, 127
2, 10040, Note_on_c, 1, 73, 127
2, 10040, Note_on_c, 1, 82, 127
2, 10080, Note_off_c, 1, 42, 0
2, 10080, Note_off_c, 1, 49, 0
2, 10080, Note_off_c, 1, 54, 0
2, 10080, Note_off_c, 1, 70, 0
2, 10080, Note_off_c, 1, 73, 0
2, 10080, Note_off_c, 1, 82, 0
2, 10120, Note_on_c, 1, 42, 127
2, 10120, Note_on_c, 1, 49, 127
2, 10120, Note_on_c, 1, 54, 127
2, 10120, Note_on_c, 1, 70, 127
2, 10120, Note_on_c, 1, 73, 127
2, 10120, Note_on_c, 1, 82, 127
2, 10360, Note_off_c, 1, 42, 0
2, 10360, Note_off_c, 1, 49, 0
2, 10360, Note_off_c, 1, 54, 0
2, 10360, Note_off_c, 1, 70, 0
2, 10360, Note_off_c, 1, 73, 0
2, 10360, Note_off_c, 1, 82, 0
2, 10400, Note_on_c, 1, 42, 127
2, 10400, Note_on_c, 1, 49, 127
2, 10400, Note_on_c, 1, 54, 127
2, 10400, Note_on_c, 1, 70, 127
2, 10400, Note_on_c, 1, 73, 127
2, 10400, Note_on_c, 1, 82, 127
2, 10640, Note_off_c, 1, 42, 0
2, 10640, Note_off_c, 1, 49, 0
2, 10640, Note_off_c, 1, 54, 0
2, 10640, Note_off_c, 1, 70, 0
2, 10640, Note_off_c, 1, 73, 0
2, 10640, Note_off_c, 1, 82, 0
2, 10680, Note_on_c, 1, 42, 127
2, 10680, Note_on_c, 1, 49, 127
2, 10680, Note_on_c, 1, 54, 127
2, 10680, Note_on_c, 1, 70, 127
2, 10680, Note_on_c, 1, 73, 127
2, 10680, Note_on_c, 1, 82, 127
2, 10920, Note_off_c, 1, 42, 0
2, 10920, Note_off_c, 1, 49, 0
2, 10920, Note_off_c, 1, 54, 0
2, 10920, Note_off_c, 1, 70, 0
2, 10920, Note_off_c, 1, 73, 0
2, 10920, Note_off_c, 1, 82, 0
2, 10960, Note_on_c, 1, 42, 127
2, 10960, Note_on_c, 1, 49, 127
2, 10960, Note_on_c, 1, 54, 127
2, 10960, Note_on_c, 1, 70, 127
2, 10960, Note_on_c, 1, 73, 127
2, 10960, Note_on_c, 1, 82, 127
2, 11200, Note_off_c, 1, 42, 0
2, 11200, Note_off_c, 1, 49, 0
2, 11200, Note_off_c, 1, 54, 0
2, 11200, Note_off_c, 1, 70, 0
2, 11200, Note_off_c, 1, 73, 0
2, 11200, Note_off_c, 1, 82, 0
2, 11240, Note_on_c, 1, 42, 127
2, 11240, Note_on_c, 1, 49, 127
2, 11240, Note_on_c, 1, 54, 127
2, 11240, Note_on_c, 1, 70, 127
2, 11240, Note_on_c, 1, 73, 127
2, 11240, Note_on_c, 1, 82, 127
2, 11480, Note_off_c, 1, 42, 0
2, 11480, Note_off_c, 1, 49, 0
2, 11480, Note_off_c, 1, 54, 0
2, 11480, Note_off_c, 1, 70, 0
2, 11480, Note_off_c, 1, 73, 0
2, 11480, Note_off_c, 1, 82, 0
2, 11520, Note_on_c, 1, 42, 127
2, 11520, Note_on_c, 1, 49, 127
2, 11520, Note_on_c, 1, 54, 127
2, 11520, Note_on_c, 1, 70, 127
2, 11520, Note_on_c, 1, 73, 127
2, 11520, Note_on_c, 1, 82, 127
2, 11760, Note_off_c, 1, 42, 0
2, 11760, Note_off_c, 1, 49, 0
2, 11760, Note_off_c, 1, 54, 0
2, 11760, Note_off_c, 1, 70, 0
2, 11760, Note_off_c, 1, 73, 0
2, 11760, Note_off_c, 1, 82, 0
2, 11800, Note_on_c, 1, 42, 127
2, 11800, Note_on_c, 1, 49, 127
2, 11800, Note_on_c, 1, 54, 127
2, 11800, Note_on_c, 1, 70, 127
2, 11800, Note_on_c, 1, 73, 127
2, 11800, Note_on_c, 1, 82, 127
2, 12040, Note_off_c, 1, 42, 0
2, 12040, Note_off_c, 1, 49, 0
2, 12040, Note_off_c, 1, 54, 0
2, 12040, Note_off_c, 1, 70, 0
2, 12040, Note_off_c, 1, 73, 0
2, 12040, Note_off_c, 1, 82, 0
2, 12080, Note_on_c, 1, 37, 127
2, 12080, Note_on_c, 1, 49, 127
2, 12080, Note_on_c, 1, 68, 127
2, 12080, Note_on_c, 1, 73, 127
2, 12080, Note_on_c, 1, 80, 127
2, 12240, Note_off_c, 1, 37, 0
2, 12240, Note_off_c, 1, 49, 0
2, 12240, Note_off_c, 1, 68, 0
2, 12240, Note_off_c, 1, 73, 0
2, 12240, Note_off_c, 1, 80, 0
2, 12280, Note_on_c, 1, 37, 127
2, 12280, Note_on_c, 1, 49, 127
2, 12280, Note_on_c, 1, 68, 127
2, 12280, Note_on_c, 1, 73, 127
2, 12280, Note_on_c, 1, 80, 127
2, 12360, Note_off_c, 1, 37, 0
2, 12360, Note_off_c, 1, 49, 0
2, 12360, Note_off_c, 1, 68, 0
2, 12360, Note_off_c, 1, 73, 0
2, 12360, Note_off_c, 1, 80, 0
2, 12400, Note_on_c, 1, 37, 127
2, 12400, Note_on_c, 1, 49, 127
2, 12400, Note_on_c, 1, 68, 127
2, 12400, Note_on_c, 1, 73, 127
2, 12400, Note_on_c, 1, 80, 127
2, 12640, Note_off_c, 1, 37, 0
2, 12640, Note_off_c, 1, 49, 0
2, 12640, Note_off_c, 1, 68, 0
2, 12640, Note_off_c, 1, 73, 0
2, 12640, Note_off_c, 1, 80, 0
2, 12680, Note_on_c, 1, 37, 127
2, 12680, Note_on_c, 1, 49, 127
2, 12680, Note_on_c, 1, 68, 127
2, 12680, Note_on_c, 1, 73, 127
2, 12680, Note_on_c, 1, 80, 127
2, 12920, Note_off_c, 1, 37, 0
2, 12920, Note_off_c, 1, 49, 0
2, 12920, Note_off_c, 1, 68, 0
2, 12920, Note_off_c, 1, 73, 0
2, 12920, Note_off_c, 1, 80, 0
2, 12960, Note_on_c, 1, 38, 127
2, 12960, Note_on_c, 1, 50, 127
2, 12960, Note_on_c, 1, 66, 127
2, 12960, Note_on_c, 1, 71, 127
2, 12960, Note_on_c, 1, 78, 127
2, 13200, Note_off_c, 1, 38, 0
2, 13200, Note_off_c, 1, 50, 0
2, 13200, Note_off_c, 1, 66, 0
2, 13200, Note_off_c, 1, 71, 0
2, 13200, Note_off_c, 1, 78, 0
2, 13240, Note_on_c, 1, 33, 127
2, 13240, Note_on_c, 1, 45, 127
2, 13240, Note_on_c, 1, 59, 127
2, 13240, Note_on_c, 1, 66, 127
2, 13240, Note_on_c, 1, 71, 127
2, 13480, Note_off_c, 1, 59, 0
2, 13480, Note_off_c, 1, 71, 0
2, 13520, Note_on_c, 1, 61, 127
2, 13520, Note_on_c, 1, 73, 127
2, 13760, Note_off_c, 1, 33, 0
2, 13760, Note_off_c, 1, 45, 0
2, 13760, Note_off_c, 1, 61, 0
2, 13760, Note_off_c, 1, 66, 0
2, 13760, Note_off_c, 1, 73, 0
2, 13800, Note_on_c, 1, 33, 127
2, 13800, Note_on_c, 1, 45, 127
2, 13800, Note_on_c, 1, 59, 127
2, 13800, Note_on_c, 1, 66, 127
2, 13800, Note_on_c, 1, 71, 127
2, 14040, Note_off_c, 1, 33, 0
2, 14040, Note_off_c, 1, 45, 0
2, 14040, Note_off_c, 1, 59, 0
2, 14040, Note_off_c, 1, 66, 0
2, 14040, Note_off_c, 1, 71, 0
2, 14080, Note_on_c, 1, 33, 127
2, 14080, Note_on_c, 1, 45, 127
2, 14080, Note_on_c, 1, 59, 127
2, 14080, Note_on_c, 1, 66, 127
2, 14080, Note_on_c, 1, 71, 127
2, 14320, Note_off_c, 1, 59, 0
2, 14320, Note_off_c, 1, 71, 0
2, 14360, Note_off_c, 1, 33, 0
2, 14360, Note_off_c, 1, 45, 0
2, 14360, Note_off_c, 1, 66, 0
2, 14400, Note_on_c, 1, 33, 127
2, 14400, Note_on_c, 1, 45, 127
2, 14400, Note_on_c, 1, 61, 127
2, 14400, Note_on_c, 1, 66, 127
2, 14400, Note_on_c, 1, 73, 127
2, 14600, Note_off_c, 1, 33, 0
2, 14600, Note_off_c, 1, 45, 0
2, 14600, Note_off_c, 1, 61, 0
2, 14600, Note_off_c, 1, 73, 0
2, 14640, Note_on_c, 1, 42, 127
2, 14640, Note_on_c, 1, 54, 127
2, 14640, Note_on_c, 1, 63, 127
2, 14640, Note_off_c, 1, 66, 0
2, 14640, Note_on_c, 1, 70, 127
2, 14640, Note_on_c, 1, 75, 127
2, 14880, Note_off_c, 1, 42, 0
2, 14880, Note_off_c, 1, 54, 0
2, 14880, Note_off_c, 1, 63, 0
2, 14880, Note_off_c, 1, 70, 0
2, 14880, Note_off_c, 1, 75, 0
2, 14920, Note_on_c, 1, 42, 127
2, 14920, Note_on_c, 1, 49, 127
2, 14920, Note_on_c, 1, 58, 127
2, 14920, Note_on_c, 1, 66, 127
2, 15720, Note_off_c, 1, 42, 0
2, 15720, Note_off_c, 1, 49, 0
2, 15720, Note_off_c, 1, 58, 0
2, 15720, Note_off_c, 1, 66, 0
2, 16920, Note_on_c, 1, 57, 127
2, 16920, Note_on_c, 1, 73, 127
2, 17200, Note_off_c, 1, 57, 0
2, 17200, Note_off_c, 1, 73, 0
2, 17240, Note_on_c, 1, 62, 127
2, 17240, Note_on_c, 1, 74, 127
2, 17440, Note_off_c, 1, 62, 0
2, 17440, Note_off_c, 1, 74, 0
2, 17480, Note_on_c, 1, 52, 127
2, 17480, Note_on_c, 1, 64, 127
2, 17480, Note_on_c, 1, 66, 127
2, 17480, Note_on_c, 1, 68, 127
2, 17520, Note_off_c, 1, 52, 0
2, 17520, Note_off_c, 1, 64, 0
2, 17520, Note_off_c, 1, 66, 0
2, 17520, Note_off_c, 1, 68, 0
2, 17680, Note_on_c, 1, 37, 127
2, 17680, Note_on_c, 1, 40, 127
2, 17680, Note_on_c, 1, 45, 127
2, 17680, Note_on_c, 1, 49, 127
2, 17720, Note_off_c, 1, 37, 0
2, 17720, Note_off_c, 1, 40, 0
2, 17720, Note_off_c, 1, 45, 0
2, 17720, Note_off_c, 1, 49, 0
2, 17800, Note_on_c, 1, 45, 127
2, 17800, Note_on_c, 1, 49, 127
2, 17800, Note_on_c, 1, 52, 127
2, 17800, Note_on_c, 1, 55, 127
2, 18040, Note_off_c, 1, 45, 0
2, 18040, Note_off_c, 1, 49, 0
2, 18040, Note_off_c, 1, 52, 0
2, 18040, Note_off_c, 1, 55, 0
2, 18080, Note_on_c, 1, 52, 127
2, 18080, Note_on_c, 1, 59, 127
2, 18080, Note_on_c, 1, 64, 127
2, 18080, Note_on_c, 1, 67, 127
2, 18120, Note_off_c, 1, 52, 0
2, 18120, Note_off_c, 1, 59, 0
2, 18120, Note_off_c, 1, 64, 0
2, 18120, Note_off_c, 1, 67, 0
2, 18240, Note_on_c, 1, 52, 127
2, 18240, Note_on_c, 1, 59, 127
2, 18240, Note_on_c, 1, 64, 127
2, 18240, Note_on_c, 1, 67, 127
2, 18280, Note_off_c, 1, 52, 0
2, 18280, Note_off_c, 1, 59, 0
2, 18280, Note_off_c, 1, 64, 0
2, 18280, Note_off_c, 1, 67, 0
2, 18360, Note_on_c, 1, 52, 127
2, 18360, Note_on_c, 1, 59, 127
2, 18360, Note_on_c, 1, 64, 127
2, 18360, Note_on_c, 1, 67, 127
2, 18600, Note_off_c, 1, 52, 0
2, 18600, Note_off_c, 1, 59, 0
2, 18600, Note_off_c, 1, 64, 0
2, 18600, Note_off_c, 1, 67, 0
2, 18640, Note_on_c, 1, 50, 127
2, 18640, Note_on_c, 1, 62, 127
2, 18640, Note_on_c, 1, 66, 127
2, 18640, Note_on_c, 1, 69, 127
2, 18880, Note_off_c, 1, 50, 0
2, 18880, Note_off_c, 1, 62, 0
2, 18880, Note_off_c, 1, 66, 0
2, 18880, Note_off_c, 1, 69, 0
2, 18920, Note_on_c, 1, 50, 127
2, 18920, Note_on_c, 1, 57, 127
2, 18920, Note_on_c, 1, 62, 127
2, 18920, Note_on_c, 1, 66, 127
2, 19120, Note_off_c, 1, 57, 0
2, 19120, Note_off_c, 1, 62, 0
2, 19160, Note_off_c, 1, 50, 0
2, 19160, Note_off_c, 1, 66, 0
2, 19200, Note_on_c, 1, 52, 127
2, 19200, Note_on_c, 1, 57, 127
2, 19200, Note_on_c, 1, 61, 127
2, 19200, Note_on_c, 1, 67, 127
2, 19360, Note_off_c, 1, 52, 0
2, 19360, Note_off_c, 1, 57, 0
2, 19360, Note_off_c, 1, 61, 0
2, 19360, Note_off_c, 1, 67, 0
2, 19400, Note_on_c, 1, 52, 127
2, 19400, Note_on_c, 1, 57, 127
2, 19400, Note_on_c, 1, 61, 127
2, 19400, Note_on_c, 1, 67, 127
2, 19480, Note_off_c, 1, 52, 0
2, 19480, Note_off_c, 1, 57, 0
2, 19480, Note_off_c, 1, 61, 0
2, 19480, Note_off_c, 1, 67, 0
2, 19520, Note_on_c, 1, 50, 127
2, 19520, Note_on_c, 1, 62, 127
2, 19520, Note_on_c, 1, 66, 127
2, 19760, Note_off_c, 1, 50, 0
2, 19760, Note_off_c, 1, 62, 0
2, 19760, Note_off_c, 1, 66, 0
2, 19800, Note_on_c, 1, 52, 127
2, 19800, Note_on_c, 1, 57, 127
2, 19800, Note_on_c, 1, 61, 127
2, 19800, Note_on_c, 1, 67, 127
2, 20040, Note_off_c, 1, 52, 0
2, 20040, Note_off_c, 1, 57, 0
2, 20040, Note_off_c, 1, 61, 0
2, 20040, Note_off_c, 1, 67, 0
2, 20080, Note_on_c, 1, 50, 127
2, 20080, Note_on_c, 1, 62, 127
2, 20080, Note_on_c, 1, 66, 127
2, 20320, Note_off_c, 1, 50, 0
2, 20320, Note_off_c, 1, 62, 0
2, 20320, Note_off_c, 1, 66, 0
2, 20360, Note_on_c, 1, 52, 127
2, 20360, Note_on_c, 1, 57, 127
2, 20360, Note_on_c, 1, 61, 127
2, 20360, Note_on_c, 1, 67, 127
2, 20520, Note_off_c, 1, 52, 0
2, 20520, Note_off_c, 1, 57, 0
2, 20520, Note_off_c, 1, 61, 0
2, 20520, Note_off_c, 1, 67, 0
2, 20600, Note_on_c, 1, 69, 127
2, 20640, Note_on_c, 1, 52, 127
2, 20640, Note_on_c, 1, 57, 127
2, 20640, Note_on_c, 1, 61, 127
2, 20640, Note_on_c, 1, 67, 127
2, 20640, Note_off_c, 1, 69, 0
2, 20760, Note_off_c, 1, 52, 0
2, 20760, Note_off_c, 1, 57, 0
2, 20760, Note_off_c, 1, 61, 0
2, 20760, Note_off_c, 1, 67, 0
2, 20920, Note_on_c, 1, 50, 127
2, 20920, Note_on_c, 1, 57, 127
2, 20920, Note_on_c, 1, 62, 127
2, 20920, Note_on_c, 1, 66, 127
2, 20920, Note_on_c, 1, 74, 127
2, 21160, Note_off_c, 1, 50, 0
2, 21160, Note_off_c, 1, 57, 0
2, 21160, Note_off_c, 1, 62, 0
2, 21160, Note_off_c, 1, 66, 0
2, 21160, Note_off_c, 1, 74, 0
2, 21200, Note_on_c, 1, 62, 127
2, 21200, Note_on_c, 1, 71, 127
2, 21240, Note_off_c, 1, 62, 0
2, 21240, Note_off_c, 1, 71, 0
2, 21520, Note_on_c, 1, 50, 127
2, 21520, Note_on_c, 1, 57, 127
2, 21520, Note_on_c, 1, 62, 127
2, 21520, Note_on_c, 1, 66, 127
2, 21520, Note_on_c, 1, 74, 127
2, 21760, Note_off_c, 1, 50, 0
2, 21760, Note_off_c, 1, 57, 0
2, 21760, Note_off_c, 1, 62, 0
2, 21760, Note_off_c, 1, 66, 0
2, 21760, Note_off_c, 1, 74, 0
2, 21800, Note_on_c, 1, 50, 127
2, 21800, Note_on_c, 1, 57, 127
2, 21800, Note_on_c, 1, 62, 127
2, 21800, Note_on_c, 1, 66, 127
2, 21800, Note_on_c, 1, 69, 127
2, 21880, Note_off_c, 1, 50, 0
2, 21880, Note_off_c, 1, 57, 0
2, 21880, Note_off_c, 1, 62, 0
2, 21880, Note_off_c, 1, 66, 0
2, 21880, Note_off_c, 1, 69, 0
2, 22080, Note_on_c, 1, 57, 127
2, 22080, Note_on_c, 1, 64, 127
2, 22080, Note_on_c, 1, 67, 127
2, 22080, Note_on_c, 1, 73, 127
2, 22280, Note_off_c, 1, 57, 0
2, 22280, Note_off_c, 1, 64, 0
2, 22280, Note_off_c, 1, 67, 0
2, 22280, Note_off_c, 1, 73, 0
2, 22320, Note_on_c, 1, 57, 127
2, 22320, Note_on_c, 1, 62, 127
2, 22320, Note_on_c, 1, 66, 127
2, 22320, Note_on_c, 1, 74, 127
2, 22560, Note_off_c, 1, 57, 0
2, 22560, Note_off_c, 1, 62, 0
2, 22560, Note_off_c, 1, 66, 0
2, 22560, Note_off_c, 1, 74, 0
2, 22600, Note_on_c, 1, 57, 127
2, 22600, Note_on_c, 1, 64, 127
2, 22600, Note_on_c, 1, 67, 127
2, 22600, Note_on_c, 1, 73, 127
2, 22840, Note_off_c, 1, 57, 0
2, 22840, Note_off_c, 1, 64, 0
2, 22840, Note_off_c, 1, 67, 0
2, 22840, Note_off_c, 1, 73, 0
2, 22880, Note_on_c, 1, 59, 127
2, 22880, Note_on_c, 1, 64, 127
2, 22880, Note_on_c, 1, 67, 127
2, 22880, Note_on_c, 1, 73, 127
2, 23080, Note_off_c, 1, 59, 0
2, 23080, Note_off_c, 1, 64, 0
2, 23080, Note_off_c, 1, 67, 0
2, 23080, Note_off_c, 1, 73, 0
2, 23160, Note_on_c, 1, 44, 127
2, 23160, Note_on_c, 1, 54, 127
2, 23160, Note_on_c, 1, 56, 127
2, 23160, Note_on_c, 1, 71, 127
2, 23160, Note_on_c, 1, 78, 127
2, 23160, Note_on_c, 1, 83, 127
2, 23360, Note_off_c, 1, 44, 0
2, 23360, Note_off_c, 1, 56, 0
2, 23360, Note_off_c, 1, 71, 0
2, 23360, Note_off_c, 1, 78, 0
2, 23360, Note_off_c, 1, 83, 0
2, 23400, Note_off_c, 1, 54, 0
2, 23480, Note_on_c, 1, 50, 127
2, 23480, Note_on_c, 1, 54, 127
2, 23480, Note_on_c, 1, 62, 127
2, 23480, Note_on_c, 1, 74, 127
2, 23680, Note_off_c, 1, 62, 0
2, 23680, Note_off_c, 1, 74, 0
2, 23960, Note_off_c, 1, 50, 0
2, 23960, Note_off_c, 1, 54, 0
2, 24000, Note_on_c, 1, 50, 127
2, 24000, Note_on_c, 1, 57, 127
2, 24000, Note_on_c, 1, 66, 127
2, 24000, Note_on_c, 1, 69, 127
2, 24520, Note_off_c, 1, 66, 0
2, 24560, Note_on_c, 1, 66, 127
2, 25080, Note_off_c, 1, 57, 0
2, 25080, Note_off_c, 1, 66, 0
2, 25080, Note_off_c, 1, 69, 0
2, 25120, Note_on_c, 1, 62, 127
2, 25120, Note_on_c, 1, 66, 127
2, 25120, Note_on_c, 1, 69, 127
2, 25120, Note_on_c, 1, 74, 127
2, 25320, Note_off_c, 1, 50, 0
2, 25320, Note_off_c, 1, 62, 0
2, 25320, Note_off_c, 1, 66, 0
2, 25320, Note_off_c, 1, 69, 0
2, 25320, Note_off_c, 1, 74, 0
2, 26680, Note_on_c, 1, 68, 127
2, 26880, Note_off_c, 1, 68, 0
2, 26920, Note_on_c, 1, 64, 127
2, 27160, Note_off_c, 1, 64, 0
2, 27200, Note_on_c, 1, 68, 127
2, 27440, Note_off_c, 1, 68, 0
2, 27480, Note_on_c, 1, 32, 127
2, 27480, Note_on_c, 1, 44, 127
2, 27480, Note_on_c, 1, 64, 127
2, 27600, Note_on_c, 1, 52, 127
2, 27720, Note_off_c, 1, 52, 0
2, 27720, Note_off_c, 1, 64, 0
2, 27760, Note_on_c, 1, 59, 127
2, 27760, Note_on_c, 1, 64, 127
2, 27840, Note_off_c, 1, 59, 0
2, 27840, Note_off_c, 1, 64, 0
2, 27880, Note_on_c, 1, 63, 127
2, 28000, Note_off_c, 1, 63, 0
2, 28040, Note_on_c, 1, 68, 127
2, 28040, Note_on_c, 1, 73, 127
2, 28120, Note_off_c, 1, 68, 0
2, 28120, Note_off_c, 1, 73, 0
2, 28120, Note_on_c, 1, 76, 127
2, 28160, Note_on_c, 1, 68, 127
2, 28160, Note_on_c, 1, 73, 127
2, 28160, Note_off_c, 1, 76, 0
2, 28240, Note_off_c, 1, 68, 0
2, 28240, Note_off_c, 1, 73, 0
2, 28280, Note_off_c, 1, 32, 0
2, 28280, Note_on_c, 1, 56, 127
2, 28280, Note_on_c, 1, 63, 127
2, 28280, Note_on_c, 1, 71, 127
2, 28400, Note_off_c, 1, 63, 0
2, 28440, Note_on_c, 1, 63, 127
2, 28520, Note_off_c, 1, 63, 0
2, 28520, Note_off_c, 1, 71, 0
2, 28560, Note_on_c, 1, 72, 127
2, 28720, Note_on_c, 1, 63, 127
2, 28800, Note_off_c, 1, 44, 0
2, 28800, Note_off_c, 1, 56, 0
2, 28800, Note_off_c, 1, 63, 0
2, 28800, Note_off_c, 1, 72, 0
2, 28880, Note_on_c, 1, 44, 127
2, 28880, Note_on_c, 1, 56, 127
2, 28880, Note_on_c, 1, 71, 127
2, 29000, Note_on_c, 1, 59, 127
2, 29120, Note_off_c, 1, 59, 0
2, 29120, Note_off_c, 1, 71, 0
2, 29160, Note_on_c, 1, 71, 127
2, 29280, Note_on_c, 1, 59, 127
2, 29360, Note_off_c, 1, 59, 0
2, 29360, Note_off_c, 1, 71, 0
2, 29400, Note_on_c, 1, 65, 127
2, 29400, Note_on_c, 1, 71, 127
2, 29640, Note_off_c, 1, 65, 0
2, 29640, Note_off_c, 1, 71, 0
2, 29680, Note_on_c, 1, 65, 127
2, 29680, Note_on_c, 1, 71, 127
2, 29920, Note_off_c, 1, 65, 0
2, 29920, Note_off_c, 1, 71, 0
2, 29960, Note_on_c, 1, 59, 127
2, 29960, Note_on_c, 1, 71, 127
2, 30160, Note_off_c, 1, 44, 0
2, 30160, Note_off_c, 1, 56, 0
2, 30160, Note_off_c, 1, 59, 0
2, 30160, Note_off_c, 1, 71, 0
2, 30200, Note_on_c, 1, 47, 127
2, 30200, Note_on_c, 1, 59, 127
2, 30200, Note_on_c, 1, 73, 127
2, 30440, Note_off_c, 1, 47, 0
2, 30440, Note_off_c, 1, 59, 0
2, 30440, Note_off_c, 1, 73, 0
2, 30480, Note_on_c, 1, 49, 127
2, 30480, Note_on_c, 1, 53, 127
2, 30480, Note_on_c, 1, 61, 127
2, 30480, Note_on_c, 1, 73, 127
2, 31240, Note_off_c, 1, 61, 0
2, 31240, Note_on_c, 1, 68, 127
2, 31240, Note_off_c, 1, 73, 0
2, 31280, Note_on_c, 1, 44, 127
2, 31280, Note_off_c, 1, 49, 0
2, 31280, Note_on_c, 1, 50, 127
2, 31280, Note_off_c, 1, 53, 0
2, 31280, Note_on_c, 1, 54, 127
2, 31280, Note_off_c, 1, 68, 0
2, 31280, Note_on_c, 1, 69, 127
2, 31280, Note_on_c, 1, 74, 127
2, 31280, Note_on_c, 1, 78, 127
2, 31280, Note_on_c, 1, 81, 127
2, 31360, Note_off_c, 1, 44, 0
2, 31360, Note_off_c, 1, 50, 0
2, 31360, Note_off_c, 1, 54, 0
2, 31360, Note_off_c, 1, 69, 0
2, 31360, Note_off_c, 1, 74, 0
2, 31360, Note_off_c, 1, 78, 0
2, 31360, Note_off_c, 1, 81, 0
2, 31400, Note_on_c, 1, 44, 127
2, 31400, Note_on_c, 1, 50, 127
2, 31400, Note_on_c, 1, 54, 127
2, 31400, Note_on_c, 1, 69, 127
2, 31400, Note_on_c, 1, 74, 127
2, 31400, Note_on_c, 1, 78, 127
2, 31400, Note_on_c, 1, 81, 127
2, 31560, Note_off_c, 1, 44, 0
2, 31560, Note_off_c, 1, 50, 0
2, 31560, Note_off_c, 1, 54, 0
2, 31560, Note_off_c, 1, 69, 0
2, 31560, Note_off_c, 1, 74, 0
2, 31560, Note_off_c, 1, 78, 0
2, 31560, Note_off_c, 1, 81, 0
2, 32600, Note_on_c, 1, 57, 127
2, 32600, Note_on_c, 1, 73, 127
2, 32840, Note_off_c, 1, 57, 0
2, 32880, Note_on_c, 1, 57, 127
2, 32880, Note_on_c, 1, 64, 127
2, 32880, Note_on_c, 1, 67, 127
2, 32880, Note_on_c, 1, 69, 127
2, 33120, Note_off_c, 1, 64, 0
2, 33120, Note_off_c, 1, 67, 0
2, 33120, Note_off_c, 1, 69, 0
2, 33120, Note_off_c, 1, 73, 0
2, 33160, Note_on_c, 1, 50, 127
2, 33160, Note_on_c, 1, 69, 127
2, 33400, Note_off_c, 1, 69, 0
2, 33440, Note_on_c, 1, 73, 127
2, 33640, Note_off_c, 1, 50, 0
2, 33640, Note_off_c, 1, 57, 0
2, 33640, Note_off_c, 1, 73, 0
2, 33680, Note_on_c, 1, 57, 127
2, 33680, Note_on_c, 1, 62, 127
2, 33680, Note_on_c, 1, 66, 127
2, 33680, Note_on_c, 1, 74, 127
2, 33800, Note_off_c, 1, 74, 0
2, 33840, Note_on_c, 1, 76, 127
2, 33920, Note_off_c, 1, 62, 0
2, 33920, Note_off_c, 1, 66, 0
2, 33920, Note_off_c, 1, 76, 0
2, 33960, Note_on_c, 1, 50, 127
2, 33960, Note_on_c, 1, 62, 127
2, 33960, Note_on_c, 1, 66, 127
2, 33960, Note_on_c, 1, 78, 127
2, 34080, Note_off_c, 1, 78, 0
2, 34120, Note_on_c, 1, 79, 127
2, 34160, Note_on_c, 1, 78, 127
2, 34160, Note_off_c, 1, 79, 0
2, 34200, Note_off_c, 1, 50, 0
2, 34200, Note_off_c, 1, 57, 0
2, 34200, Note_off_c, 1, 62, 0
2, 34200, Note_off_c, 1, 66, 0
2, 34200, Note_off_c, 1, 78, 0
2, 34200, Note_on_c, 1, 79, 127
2, 34240, Note_on_c, 1, 43, 127
2, 34240, Note_on_c, 1, 78, 127
2, 34240, Note_off_c, 1, 79, 0
2, 34320, Note_off_c, 1, 43, 0
2, 34440, Note_off_c, 1, 78, 0
2, 34480, Note_on_c, 1, 78, 127
2, 34520, Note_off_c, 1, 78, 0
2, 34560, Note_on_c, 1, 59, 127
2, 34560, Note_on_c, 1, 64, 127
2, 34560, Note_on_c, 1, 67, 127
2, 34560, Note_on_c, 1, 76, 127
2, 34640, Note_off_c, 1, 76, 0
2, 34680, Note_on_c, 1, 74, 127
2, 34760, Note_off_c, 1, 59, 0
2, 34760, Note_off_c, 1, 64, 0
2, 34760, Note_off_c, 1, 67, 0
2, 34760, Note_off_c, 1, 74, 0
2, 34800, Note_on_c, 1, 52, 127
2, 34800, Note_on_c, 1, 59, 127
2, 34800, Note_on_c, 1, 64, 127
2, 34800, Note_on_c, 1, 67, 127
2, 34800, Note_on_c, 1, 73, 127
2, 34880, Note_off_c, 1, 73, 0
2, 34960, Note_on_c, 1, 71, 127
2, 35040, Note_off_c, 1, 52, 0
2, 35040, Note_off_c, 1, 59, 0
2, 35040, Note_off_c, 1, 64, 0
2, 35040, Note_off_c, 1, 67, 0
2, 35040, Note_off_c, 1, 71, 0
2, 35080, Note_on_c, 1, 45, 127
2, 35080, Note_on_c, 1, 69, 127
2, 35200, Note_off_c, 1, 45, 0
2, 35200, Note_off_c, 1, 69, 0
2, 35240, Note_on_c, 1, 71, 127
2, 35320, Note_off_c, 1, 71, 0
2, 35360, Note_on_c, 1, 57, 127
2, 35360, Note_on_c, 1, 64, 127
2, 35360, Note_on_c, 1, 67, 127
2, 35360, Note_on_c, 1, 73, 127
2, 35400, Note_off_c, 1, 73, 0
2, 35440, Note_on_c, 1, 74, 127
2, 35480, Note_off_c, 1, 74, 0
2, 35520, Note_on_c, 1, 76, 127
2, 35600, Note_off_c, 1, 57, 0
2, 35600, Note_off_c, 1, 64, 0
2, 35600, Note_off_c, 1, 67, 0
2, 35600, Note_off_c, 1, 76, 0
2, 35640, Note_on_c, 1, 50, 127
2, 35640, Note_on_c, 1, 81, 127
2, 35680, Note_off_c, 1, 81, 0
2, 35720, Note_off_c, 1, 50, 0
2, 35720, Note_on_c, 1, 78, 127
2, 35760, Note_on_c, 1, 74, 127
2, 35760, Note_off_c, 1, 78, 0
2, 35800, Note_off_c, 1, 74, 0
2, 35840, Note_on_c, 1, 81, 127
2, 35880, Note_off_c, 1, 81, 0
2, 35920, Note_on_c, 1, 60, 127
2, 35920, Note_on_c, 1, 62, 127
2, 35920, Note_on_c, 1, 66, 127
2, 35920, Note_on_c, 1, 81, 127
2, 36000, Note_off_c, 1, 81, 0
2, 36040, Note_on_c, 1, 81, 127
2, 36080, Note_off_c, 1, 81, 0
2, 36120, Note_on_c, 1, 79, 127
2, 36160, Note_off_c, 1, 60, 0
2, 36160, Note_off_c, 1, 62, 0
2, 36160, Note_off_c, 1, 66, 0
2, 36160, Note_off_c, 1, 79, 0
2, 36160, Note_on_c, 1, 83, 127
2, 36200, Note_on_c, 1, 55, 127
2, 36200, Note_on_c, 1, 79, 127
2, 36200, Note_off_c, 1, 83, 0
2, 36400, Note_off_c, 1, 55, 0
2, 36440, Note_off_c, 1, 79, 0
2, 36480, Note_on_c, 1, 54, 127
2, 36480, Note_on_c, 1, 61, 127
2, 36480, Note_on_c, 1, 66, 127
2, 36480, Note_on_c, 1, 69, 127
2, 36480, Note_on_c, 1, 75, 127
2, 36560, Note_off_c, 1, 75, 0
2, 36600, Note_on_c, 1, 73, 127
2, 36720, Note_off_c, 1, 73, 0
2, 36760, Note_on_c, 1, 73, 127
2, 37000, Note_off_c, 1, 54, 0
2, 37000, Note_off_c, 1, 61, 0
2, 37000, Note_off_c, 1, 66, 0
2, 37000, Note_off_c, 1, 69, 0
2, 37000, Note_off_c, 1, 73, 0
2, 37040, Note_on_c, 1, 45, 127
2, 37040, Note_on_c, 1, 69, 127
2, 37120, Note_off_c, 1, 45, 0
2, 37120, Note_off_c, 1, 69, 0
2, 37160, Note_on_c, 1, 73, 127
2, 37280, Note_off_c, 1, 73, 0
2, 37320, Note_on_c, 1, 57, 127
2, 37320, Note_on_c, 1, 64, 127
2, 37320, Note_on_c, 1, 67, 127
2, 37320, Note_on_c, 1, 71, 127
2, 37400, Note_off_c, 1, 71, 0
2, 37440, Note_on_c, 1, 69, 127
2, 37520, Note_off_c, 1, 57, 0
2, 37520, Note_off_c, 1, 64, 0
2, 37520, Note_off_c, 1, 67, 0
2, 37520, Note_off_c, 1, 69, 0
2, 37560, Note_on_c, 1, 57, 127
2, 37560, Note_on_c, 1, 64, 127
2, 37560, Note_on_c, 1, 67, 127
2, 37560, Note_on_c, 1, 73, 127
2, 37680, Note_off_c, 1, 73, 0
2, 37720, Note_on_c, 1, 73, 127
2, 37800, Note_off_c, 1, 57, 0
2, 37800, Note_off_c, 1, 64, 0
2, 37800, Note_off_c, 1, 67, 0
2, 37800, Note_off_c, 1, 73, 0
2, 37840, Note_on_c, 1, 54, 127
2, 37840, Note_on_c, 1, 61, 127
2, 37840, Note_on_c, 1, 73, 127
2, 37920, Note_off_c, 1, 73, 0
2, 37960, Note_on_c, 1, 73, 127
2, 38080, Note_off_c, 1, 54, 0
2, 38080, Note_off_c, 1, 61, 0
2, 38080, Note_off_c, 1, 73, 0
2, 38120, Note_on_c, 1, 54, 127
2, 38120, Note_on_c, 1, 57, 127
2, 38120, Note_on_c, 1, 63, 127
2, 38120, Note_on_c, 1, 75, 127
2, 38200, Note_off_c, 1, 63, 0
2, 38200, Note_off_c, 1, 75, 0
2, 38240, Note_off_c, 1, 54, 0
2, 38240, Note_on_c, 1, 56, 127
2, 38240, Note_off_c, 1, 57, 0
2, 38240, Note_on_c, 1, 63, 127
2, 38240, Note_on_c, 1, 66, 127
2, 38240, Note_on_c, 1, 81, 127
2, 38280, Note_on_c, 1, 75, 127
2, 38280, Note_off_c, 1, 81, 0
2, 38320, Note_off_c, 1, 56, 0
2, 38320, Note_off_c, 1, 63, 0
2, 38320, Note_off_c, 1, 66, 0
2, 38320, Note_off_c, 1, 75, 0
2, 38360, Note_on_c, 1, 57, 127
2, 38360, Note_on_c, 1, 80, 127
2, 38480, Note_off_c, 1, 57, 0
2, 38480, Note_off_c, 1, 80, 0
2, 38520, Note_on_c, 1, 57, 127
2, 38560, Note_on_c, 1, 81, 127
2, 38640, Note_off_c, 1, 57, 0
2, 38640, Note_off_c, 1, 81, 0
2, 38680, Note_on_c, 1, 61, 127
2, 38680, Note_on_c, 1, 67, 127
2, 38680, Note_on_c, 1, 69, 127
2, 38680, Note_on_c, 1, 79, 127
2, 38760, Note_off_c, 1, 79, 0
2, 38800, Note_on_c, 1, 77, 127
2, 38920, Note_off_c, 1, 77, 0
2, 38960, Note_on_c, 1, 77, 127
2, 39040, Note_off_c, 1, 77, 0
2, 39080, Note_on_c, 1, 77, 127
2, 39160, Note_off_c, 1, 61, 0
2, 39160, Note_off_c, 1, 67, 0
2, 39160, Note_off_c, 1, 69, 0
2, 39160, Note_off_c, 1, 77, 0
2, 39200, Note_on_c, 1, 52, 127
2, 39200, Note_on_c, 1, 79, 127
2, 39440, Note_off_c, 1, 52, 0
2, 39440, Note_off_c, 1, 79, 0
2, 39480, Note_on_c, 1, 57, 127
2, 39480, Note_on_c, 1, 62, 127
2, 39480, Note_on_c, 1, 66, 127
2, 39480, Note_on_c, 1, 77, 127
2, 39560, Note_off_c, 1, 77, 0
2, 39600, Note_on_c, 1, 78, 127
2, 39720, Note_off_c, 1, 57, 0
2, 39720, Note_off_c, 1, 62, 0
2, 39720, Note_off_c, 1, 66, 0
2, 39720, Note_off_c, 1, 78, 0
2, 39760, Note_on_c, 1, 57, 127
2, 39760, Note_on_c, 1, 62, 127
2, 39760, Note_on_c, 1, 66, 127
2, 39760, Note_on_c, 1, 74, 127
2, 39840, Note_off_c, 1, 74, 0
2, 39880, Note_on_c, 1, 76, 127
2, 39960, Note_off_c, 1, 57, 0
2, 39960, Note_off_c, 1, 62, 0
2, 39960, Note_off_c, 1, 66, 0
2, 39960, Note_off_c, 1, 76, 0
2, 40000, Note_on_c, 1, 50, 127
2, 40000, Note_on_c, 1, 57, 127
2, 40000, Note_on_c, 1, 62, 127
2, 40000, Note_on_c, 1, 66, 127
2, 40000, Note_on_c, 1, 78, 127
2, 40120, Note_off_c, 1, 78, 0
2, 40160, Note_on_c, 1, 79, 127
2, 40200, Note_on_c, 1, 78, 127
2, 40200, Note_off_c, 1, 79, 0
2, 40240, Note_off_c, 1, 50, 0
2, 40240, Note_off_c, 1, 57, 0
2, 40240, Note_off_c, 1, 62, 0
2, 40240, Note_off_c, 1, 66, 0
2, 40240, Note_off_c, 1, 78, 0
2, 40240, Note_on_c, 1, 79, 127
2, 40280, Note_on_c, 1, 43, 127
2, 40280, Note_on_c, 1, 78, 127
2, 40280, Note_off_c, 1, 79, 0
2, 40360, Note_off_c, 1, 43, 0
2, 40480, Note_on_c, 1, 59, 127
2, 40520, Note_off_c, 1, 59, 0
2, 40520, Note_off_c, 1, 78, 0
2, 40600, Note_on_c, 1, 59, 127
2, 40600, Note_on_c, 1, 64, 127
2, 40600, Note_on_c, 1, 67, 127
2, 40600, Note_on_c, 1, 76, 127
2, 40680, Note_off_c, 1, 76, 0
2, 40720, Note_on_c, 1, 74, 127
2, 40800, Note_off_c, 1, 59, 0
2, 40800, Note_off_c, 1, 64, 0
2, 40800, Note_off_c, 1, 67, 0
2, 40800, Note_off_c, 1, 74, 0
2, 40840, Note_on_c, 1, 52, 127
2, 40840, Note_on_c, 1, 59, 127
2, 40840, Note_on_c, 1, 64, 127
2, 40840, Note_on_c, 1, 67, 127
2, 40840, Note_on_c, 1, 73, 127
2, 40960, Note_off_c, 1, 73, 0
2, 41000, Note_on_c, 1, 71, 127
2, 41080, Note_off_c, 1, 52, 0
2, 41080, Note_off_c, 1, 59, 0
2, 41080, Note_off_c, 1, 64, 0
2, 41080, Note_off_c, 1, 67, 0
2, 41080, Note_off_c, 1, 71, 0
2, 41120, Note_on_c, 1, 45, 127
2, 41120, Note_on_c, 1, 69, 127
2, 41200, Note_off_c, 1, 45, 0
2, 41200, Note_off_c, 1, 69, 0
2, 41240, Note_on_c, 1, 71, 127
2, 41320, Note_on_c, 1, 66, 127
2, 41360, Note_off_c, 1, 66, 0
2, 41400, Note_on_c, 1, 56, 127
2, 41400, Note_on_c, 1, 62, 127
2, 41480, Note_off_c, 1, 56, 0
2, 41480, Note_off_c, 1, 62, 0
2, 41520, Note_on_c, 1, 64, 127
2, 41600, Note_off_c, 1, 64, 0
2, 41640, Note_on_c, 1, 57, 127
2, 41640, Note_on_c, 1, 62, 127
2, 41640, Note_on_c, 1, 66, 127
2, 41640, Note_off_c, 1, 71, 0
2, 41640, Note_on_c, 1, 74, 127
2, 41760, Note_off_c, 1, 57, 0
2, 41760, Note_off_c, 1, 62, 0
2, 41760, Note_off_c, 1, 66, 0
2, 41920, Note_on_c, 1, 57, 127
2, 41920, Note_on_c, 1, 62, 127
2, 42000, Note_off_c, 1, 57, 0
2, 42000, Note_off_c, 1, 62, 0
2, 42200, Note_on_c, 1, 62, 127
2, 42200, Note_on_c, 1, 66, 127
2, 42280, Note_off_c, 1, 62, 0
2, 42280, Note_off_c, 1, 66, 0
2, 42400, Note_off_c, 1, 74, 0
2, 42440, Note_on_c, 1, 56, 127
2, 42440, Note_on_c, 1, 59, 127
2, 42440, Note_on_c, 1, 71, 127
2, 42560, Note_off_c, 1, 56, 0
2, 42560, Note_off_c, 1, 59, 0
2, 42720, Note_off_c, 1, 71, 0
2, 42760, Note_on_c, 1, 71, 127
2, 43000, Note_off_c, 1, 71, 0
2, 43040, Note_on_c, 1, 50, 127
2, 43040, Note_on_c, 1, 57, 127
2, 43040, Note_on_c, 1, 62, 127
2, 43040, Note_on_c, 1, 66, 127
2, 43880, Note_on_c, 1, 69, 127
2, 43960, Note_off_c, 1, 69, 0
2, 44360, Note_off_c, 1, 50, 0
2, 44360, Note_off_c, 1, 57, 0
2, 44360, Note_off_c, 1, 62, 0
2, 44360, Note_off_c, 1, 66, 0
2, 44400, Note_on_c, 1, 50, 127
2, 44400, Note_on_c, 1, 57, 127
2, 44400, Note_on_c, 1, 62, 127
2, 44400, Note_on_c, 1, 66, 127
2, 44400, Note_on_c, 1, 69, 127
2, 44640, Note_off_c, 1, 50, 0
2, 44640, Note_off_c, 1, 57, 0
2, 44640, Note_off_c, 1, 62, 0
2, 44640, Note_off_c, 1, 66, 0
2, 44640, Note_off_c, 1, 69, 0
2, 44720, Note_on_c, 1, 57, 127
2, 44720, Note_on_c, 1, 64, 127
2, 44720, Note_on_c, 1, 67, 127
2, 44720, Note_on_c, 1, 73, 127
2, 44960, Note_off_c, 1, 57, 0
2, 44960, Note_off_c, 1, 64, 0
2, 44960, Note_off_c, 1, 67, 0
2, 44960, Note_off_c, 1, 73, 0
2, 45000, Note_on_c, 1, 62, 127
2, 45000, Note_on_c, 1, 66, 127
2, 45000, Note_on_c, 1, 74, 127
2, 45200, Note_on_c, 1, 58, 127
2, 45200, Note_off_c, 1, 66, 0
2, 45200, Note_off_c, 1, 74, 0
2, 45240, Note_off_c, 1, 58, 0
2, 45240, Note_on_c, 1, 59, 127
2, 45240, Note_on_c, 1, 71, 127
2, 45240, Note_on_c, 1, 74, 127
2, 45480, Note_off_c, 1, 59, 0
2, 45480, Note_off_c, 1, 62, 0
2, 45480, Note_off_c, 1, 71, 0
2, 45480, Note_off_c, 1, 74, 0
2, 45520, Note_on_c, 1, 52, 127
2, 45520, Note_on_c, 1, 55, 127
2, 45760, Note_off_c, 1, 52, 0
2, 45760, Note_off_c, 1, 55, 0
2, 45800, Note_on_c, 1, 78, 127
2, 45800, Note_on_c, 1, 81, 127
2, 46000, Note_off_c, 1, 78, 0
2, 46000, Note_off_c, 1, 81, 0
2, 46040, Note_on_c, 1, 53, 127
2, 46040, Note_on_c, 1, 57, 127
2, 46040, Note_on_c, 1, 60, 127
2, 46040, Note_on_c, 1, 65, 127
2, 46040, Note_on_c, 1, 69, 127
2, 46040, Note_on_c, 1, 72, 127
2, 46040, Note_on_c, 1, 81, 127
2, 46080, Note_on_c, 1, 38, 127
2, 46080, Note_off_c, 1, 53, 0
2, 46080, Note_off_c, 1, 57, 0
2, 46080, Note_off_c, 1, 60, 0
2, 46080, Note_off_c, 1, 65, 0
2, 46080, Note_off_c, 1, 69, 0
2, 46080, Note_off_c, 1, 72, 0
2, 46080, Note_on_c, 1, 78, 127
2, 46080, Note_on_c, 1, 84, 127
2, 46120, Note_off_c, 1, 38, 0
2, 46120, Note_on_c, 1, 65, 127
2, 46120, Note_on_c, 1, 74, 127
2, 46120, Note_off_c, 1, 78, 0
2, 46120, Note_on_c, 1, 79, 127
2, 46120, Note_off_c, 1, 81, 0
2, 46120, Note_on_c, 1, 83, 127
2, 46120, Note_off_c, 1, 84, 0
2, 46160, Note_off_c, 1, 65, 0
2, 46160, Note_on_c, 1, 78, 127
2, 46160, Note_off_c, 1, 79, 0
2, 46160, Note_off_c, 1, 83, 0
2, 46160, Note_on_c, 1, 86, 127
2, 46200, Note_on_c, 1, 55, 127
2, 46200, Note_on_c, 1, 58, 127
2, 46200, Note_on_c, 1, 64, 127
2, 46200, Note_on_c, 1, 70, 127
2, 46200, Note_off_c, 1, 78, 0
2, 46200, Note_off_c, 1, 86, 0
2, 46280, Note_off_c, 1, 55, 0
2, 46280, Note_off_c, 1, 58, 0
2, 46280, Note_off_c, 1, 64, 0
2, 46320, Note_on_c, 1, 57, 127
2, 46320, Note_on_c, 1, 66, 127
2, 46320, Note_off_c, 1, 70, 0
2, 46320, Note_off_c, 1, 74, 0
2, 46320, Note_on_c, 1, 90, 127
2, 46320, Note_on_c, 1, 93, 127
2, 46360, Note_on_c, 1, 61, 127
2, 46360, Note_off_c, 1, 66, 0
2, 46360, Note_on_c, 1, 78, 127
2, 46360, Note_on_c, 1, 81, 127
2, 46360, Note_on_c, 1, 85, 127
2, 46360, Note_off_c, 1, 90, 0
2, 46360, Note_off_c, 1, 93, 0
2, 46400, Note_off_c, 1, 61, 0
2, 46400, Note_on_c, 1, 66, 127
2, 46400, Note_on_c, 1, 74, 127
2, 46400, Note_off_c, 1, 78, 0
2, 46400, Note_off_c, 1, 85, 0
2, 46440, Note_on_c, 1, 45, 127
2, 46440, Note_off_c, 1, 57, 0
2, 46440, Note_off_c, 1, 66, 0
2, 46440, Note_off_c, 1, 74, 0
2, 46440, Note_off_c, 1, 81, 0
2, 46480, Note_off_c, 1, 45, 0
2, 46480, Note_on_c, 1, 54, 127
2, 46480, Note_on_c, 1, 57, 127
2, 46480, Note_on_c, 1, 62, 127
2, 46480, Note_on_c, 1, 81, 127
2, 46480, Note_on_c, 1, 93, 127
2, 46560, Note_off_c, 1, 54, 0
2, 46560, Note_off_c, 1, 57, 0
2, 46560, Note_off_c, 1, 62, 0
2, 46560, Note_off_c, 1, 81, 0
2, 46560, Note_off_c, 1, 93, 0
2, 46600, Note_on_c, 1, 38, 127
2, 46600, Note_on_c, 1, 52, 127
2, 46600, Note_on_c, 1, 59, 127
2, 46600, Note_on_c, 1, 67, 127
2, 46760, Note_off_c, 1, 38, 0
2, 46760, Note_off_c, 1, 52, 0
2, 46760, Note_off_c, 1, 59, 0
2, 46760, Note_off_c, 1, 67, 0
2, 46800, Note_on_c, 1, 38, 127
2, 46800, Note_on_c, 1, 52, 127
2, 46800, Note_on_c, 1, 59, 127
2, 46800, Note_on_c, 1, 67, 127
2, 46880, Note_off_c, 1, 38, 0
2, 46880, Note_off_c, 1, 52, 0
2, 46880, Note_off_c, 1, 59, 0
2, 46880, Note_off_c, 1, 67, 0
2, 46920, Note_on_c, 1, 52, 127
2, 46920, Note_on_c, 1, 82, 127
2, 46920, Note_on_c, 1, 94, 127
2, 47000, Note_off_c, 1, 52, 0
2, 47040, Note_on_c, 1, 52, 127
2, 47160, Note_off_c, 1, 52, 0
2, 47160, Note_off_c, 1, 82, 0
2, 47160, Note_off_c, 1, 94, 0
2, 47200, Note_on_c, 1, 48, 127
2, 47200, Note_on_c, 1, 60, 127
2, 47200, Note_on_c, 1, 82, 127
2, 47200, Note_on_c, 1, 88, 127
2, 47200, Note_on_c, 1, 91, 127
2, 47200, Note_on_c, 1, 96, 127
2, 47240, Note_off_c, 1, 48, 0
2, 47240, Note_off_c, 1, 60, 0
2, 47240, Note_on_c, 1, 70, 127
2, 47240, Note_on_c, 1, 73, 127
2, 47240, Note_off_c, 1, 88, 0
2, 47240, Note_off_c, 1, 91, 0
2, 47240, Note_on_c, 1, 94, 127
2, 47240, Note_off_c, 1, 96, 0
2, 47240, Note_on_c, 1, 97, 127
2, 47280, Note_off_c, 1, 70, 0
2, 47280, Note_off_c, 1, 73, 0
2, 47280, Note_off_c, 1, 82, 0
2, 47280, Note_on_c, 1, 83, 127
2, 47280, Note_on_c, 1, 88, 127
2, 47280, Note_off_c, 1, 94, 0
2, 47280, Note_off_c, 1, 97, 0
2, 47320, Note_on_c, 1, 39, 127
2, 47320, Note_on_c, 1, 42, 127
2, 47320, Note_on_c, 1, 61, 127
2, 47320, Note_on_c, 1, 73, 127
2, 47320, Note_off_c, 1, 83, 0
2, 47320, Note_off_c, 1, 88, 0
2, 47400, Note_off_c, 1, 39, 0
2, 47400, Note_off_c, 1, 42, 0
2, 47400, Note_off_c, 1, 61, 0
2, 47400, Note_off_c, 1, 73, 0
2, 47440, Note_on_c, 1, 57, 127
2, 47440, Note_on_c, 1, 81, 127
2, 47440, Note_on_c, 1, 86, 127
2, 47440, Note_on_c, 1, 90, 127
2, 47440, Note_on_c, 1, 93, 127
2, 47640, Note_off_c, 1, 81, 0
2, 47640, Note_off_c, 1, 86, 0
2, 47640, Note_off_c, 1, 90, 0
2, 47640, Note_off_c, 1, 93, 0
2, 47680, Note_on_c, 1, 47, 127
2, 47680, Note_on_c, 1, 62, 127
2, 47680, Note_on_c, 1, 68, 127
2, 47680, Note_on_c, 1, 71, 127
2, 47720, Note_off_c, 1, 47, 0
2, 47720, Note_on_c, 1, 49, 127
2, 47720, Note_on_c, 1, 55, 127
2, 47720, Note_off_c, 1, 57, 0
2, 47720, Note_on_c, 1, 59, 127
2, 47720, Note_off_c, 1, 62, 0
2, 47720, Note_on_c, 1, 67, 127
2, 47720, Note_off_c, 1, 68, 0
2, 47720, Note_off_c, 1, 71, 0
2, 47760, Note_on_c, 1, 38, 127
2, 47760, Note_off_c, 1, 49, 0
2, 47760, Note_on_c, 1, 66, 127
2, 47760, Note_off_c, 1, 67, 0
2, 47760, Note_on_c, 1, 98, 127
2, 47760, Note_on_c, 1, 102, 127
2, 47800, Note_off_c, 1, 38, 0
2, 47800, Note_off_c, 1, 59, 0
2, 47800, Note_on_c, 1, 61, 127
2, 47800, Note_off_c, 1, 66, 0
2, 47800, Note_on_c, 1, 70, 127
2, 47800, Note_on_c, 1, 79, 127
2, 47800, Note_on_c, 1, 82, 127
2, 47800, Note_off_c, 1, 98, 0
2, 47800, Note_off_c, 1, 102, 0
2, 47840, Note_off_c, 1, 55, 0
2, 47840, Note_off_c, 1, 61, 0
2, 47840, Note_off_c, 1, 70, 0
2, 47840, Note_on_c, 1, 72, 127
2, 47840, Note_off_c, 1, 79, 0
2, 47840, Note_on_c, 1, 84, 127
2, 47880, Note_on_c, 1, 52, 127
2, 47880, Note_on_c, 1, 66, 127
2, 47880, Note_off_c, 1, 72, 0
2, 47880, Note_on_c, 1, 73, 127
2, 47880, Note_off_c, 1, 84, 0
2, 47880, Note_on_c, 1, 85, 127
2, 47920, Note_on_c, 1, 49, 127
2, 47920, Note_off_c, 1, 52, 0
2, 47920, Note_off_c, 1, 66, 0
2, 47920, Note_off_c, 1, 73, 0
2, 47920, Note_off_c, 1, 82, 0
2, 47920, Note_on_c, 1, 94, 127
2, 47960, Note_off_c, 1, 49, 0
2, 47960, Note_off_c, 1, 85, 0
2, 47960, Note_off_c, 1, 94, 0
2, 48000, Note_on_c, 1, 43, 127
2, 48000, Note_on_c, 1, 47, 127
2, 48000, Note_on_c, 1, 53, 127
2, 48000, Note_on_c, 1, 77, 127
2, 48000, Note_on_c, 1, 89, 127
2, 48240, Note_off_c, 1, 43, 0
2, 48240, Note_off_c, 1, 47, 0
2, 48240, Note_off_c, 1, 53, 0
2, 48240, Note_off_c, 1, 77, 0
2, 48240, Note_off_c, 1, 89, 0
2, 48280, Note_on_c, 1, 77, 127
2, 48280, Note_on_c, 1, 89, 127
2, 48480, Note_off_c, 1, 77, 0
2, 48480, Note_off_c, 1, 89, 0
2, 48520, Note_on_c, 1, 78, 127
2, 48520, Note_on_c, 1, 90, 127
2, 48760, Note_off_c, 1, 78, 0
2, 48760, Note_off_c, 1, 90, 0
2, 48800, Note_on_c, 1, 79, 127
2, 48800, Note_on_c, 1, 91, 127
2, 48880, Note_off_c, 1, 79, 0
2, 48880, Note_off_c, 1, 91, 0
2, 48920, Note_on_c, 1, 79, 127
2, 48920, Note_on_c, 1, 91, 127
2, 49040, Note_off_c, 1, 79, 0
2, 49040, Note_off_c, 1, 91, 0
2, 49120, Note_on_c, 1, 55, 127
2, 49120, Note_on_c, 1, 59, 127
2, 49120, Note_on_c, 1, 67, 127
2, 49120, Note_on_c, 1, 79, 127
2, 49320, Note_off_c, 1, 55, 0
2, 49320, Note_off_c, 1, 59, 0
2, 49320, Note_off_c, 1, 67, 0
2, 49320, Note_off_c, 1, 79, 0
2, 49360, Note_on_c, 1, 50, 127
2, 49360, Note_on_c, 1, 71, 127
2, 49360, Note_on_c, 1, 74, 127
2, 49360, Note_on_c, 1, 79, 127
2, 49600, Note_off_c, 1, 50, 0
2, 49600, Note_off_c, 1, 71, 0
2, 49600, Note_off_c, 1, 74, 0
2, 49600, Note_off_c, 1, 79, 0
2, 49640, Note_on_c, 1, 43, 127
2, 49640, Note_on_c, 1, 74, 127
2, 49640, Note_on_c, 1, 79, 127
2, 49640, Note_on_c, 1, 83, 127
2, 49880, Note_off_c, 1, 43, 0
2, 49880, Note_off_c, 1, 74, 0
2, 49880, Note_off_c, 1, 79, 0
2, 49880, Note_off_c, 1, 83, 0
2, 49920, Note_on_c, 1, 43, 127
2, 49920, Note_on_c, 1, 71, 127
2, 49920, Note_on_c, 1, 74, 127
2, 49920, Note_on_c, 1, 79, 127
2, 50160, Note_off_c, 1, 43, 0
2, 50160, Note_off_c, 1, 71, 0
2, 50160, Note_off_c, 1, 74, 0
2, 50160, Note_off_c, 1, 79, 0
2, 50200, Note_on_c, 1, 43, 127
2, 50200, Note_on_c, 1, 71, 127
2, 50200, Note_on_c, 1, 74, 127
2, 50200, Note_on_c, 1, 79, 127
2, 50400, Note_off_c, 1, 43, 0
2, 50400, Note_off_c, 1, 71, 0
2, 50400, Note_off_c, 1, 74, 0
2, 50400, Note_off_c, 1, 79, 0
2, 50440, Note_on_c, 1, 43, 127
2, 50440, Note_on_c, 1, 58, 127
2, 50440, Note_on_c, 1, 62, 127
2, 50440, Note_on_c, 1, 74, 127
2, 50680, Note_off_c, 1, 43, 0
2, 50680, Note_off_c, 1, 58, 0
2, 50680, Note_off_c, 1, 62, 0
2, 50680, Note_off_c, 1, 74, 0
2, 50720, Note_on_c, 1, 43, 127
2, 50720, Note_on_c, 1, 62, 127
2, 50720, Note_on_c, 1, 70, 127
2, 50720, Note_on_c, 1, 74, 127
2, 50960, Note_off_c, 1, 62, 0
2, 50960, Note_off_c, 1, 70, 0
2, 51000, Note_off_c, 1, 43, 0
2, 51000, Note_off_c, 1, 74, 0
2, 51040, Note_on_c, 1, 46, 127
2, 51040, Note_on_c, 1, 63, 127
2, 51040, Note_on_c, 1, 67, 127
2, 51040, Note_on_c, 1, 74, 127
2, 51280, Note_off_c, 1, 46, 0
2, 51280, Note_off_c, 1, 63, 0
2, 51280, Note_off_c, 1, 67, 0
2, 51280, Note_off_c, 1, 74, 0
2, 51320, Note_on_c, 1, 46, 127
2, 51320, Note_on_c, 1, 62, 127
2, 51320, Note_on_c, 1, 65, 127
2, 51320, Note_on_c, 1, 74, 127
2, 52360, Note_off_c, 1, 46, 0
2, 52360, Note_off_c, 1, 62, 0
2, 52360, Note_off_c, 1, 65, 0
2, 52360, Note_off_c, 1, 74, 0
2, 52400, Note_on_c, 1, 46, 127
2, 52400, Note_on_c, 1, 51, 127
2, 52400, Note_on_c, 1, 60, 127
2, 52400, Note_on_c, 1, 65, 127
2, 52400, Note_on_c, 1, 72, 127
2, 52560, Note_off_c, 1, 51, 0
2, 52680, Note_on_c, 1, 53, 127
2, 52880, Note_off_c, 1, 46, 0
2, 52880, Note_off_c, 1, 53, 0
2, 52880, Note_off_c, 1, 60, 0
2, 52880, Note_off_c, 1, 65, 0
2, 52880, Note_off_c, 1, 72, 0
2, 52920, Note_on_c, 1, 38, 127
2, 52920, Note_on_c, 1, 50, 127
2, 52920, Note_on_c, 1, 62, 127
2, 52920, Note_on_c, 1, 74, 127
2, 53280, Note_off_c, 1, 38, 0
2, 53280, Note_off_c, 1, 50, 0
2, 53280, Note_off_c, 1, 62, 0
2, 53280, Note_off_c, 1, 74, 0
2, 53320, Note_on_c, 1, 38, 127
2, 53320, Note_on_c, 1, 50, 127
2, 53320, Note_on_c, 1, 62, 127
2, 53320, Note_on_c, 1, 74, 127
2, 53480, Note_off_c, 1, 38, 0
2, 53480, Note_off_c, 1, 50, 0
2, 53480, Note_off_c, 1, 62, 0
2, 53480, Note_off_c, 1, 74, 0
2, 53520, Note_on_c, 1, 31, 127
2, 53520, Note_on_c, 1, 43, 127
2, 53520, Note_on_c, 1, 55, 127
2, 54000, Note_off_c, 1, 31, 0
2, 54000, Note_off_c, 1, 43, 0
2, 54000, Note_off_c, 1, 55, 0
2, 54040, Note_on_c, 1, 31, 127
2, 54040, Note_on_c, 1, 43, 127
2, 54040, Note_on_c, 1, 55, 127
2, 54560, Note_off_c, 1, 31, 0
2, 54560, Note_off_c, 1, 43, 0
2, 54560, Note_off_c, 1, 55, 0
2, 54600, Note_on_c, 1, 34, 127
2, 54600, Note_on_c, 1, 46, 127
2, 54600, Note_on_c, 1, 58, 127
2, 54800, Note_off_c, 1, 34, 0
2, 54800, Note_off_c, 1, 46, 0
2, 54800, Note_off_c, 1, 58, 0
2, 54840, Note_on_c, 1, 34, 127
2, 54840, Note_on_c, 1, 46, 127
2, 54840, Note_on_c, 1, 64, 127
2, 55080, Note_off_c, 1, 34, 0
2, 55080, Note_off_c, 1, 46, 0
2, 55080, Note_off_c, 1, 64, 0
2, 55120, Note_on_c, 1, 34, 127
2, 55120, Note_on_c, 1, 46, 127
2, 55120, Note_on_c, 1, 64, 127
2, 55360, Note_on_c, 1, 33, 127
2, 55360, Note_off_c, 1, 34, 0
2, 55360, Note_on_c, 1, 45, 127
2, 55360, Note_off_c, 1, 46, 0
2, 55360, Note_off_c, 1, 64, 0
2, 55400, Note_off_c, 1, 33, 0
2, 55400, Note_on_c, 1, 35, 127
2, 55400, Note_off_c, 1, 45, 0
2, 55400, Note_on_c, 1, 47, 127
2, 55400, Note_on_c, 1, 68, 127
2, 55520, Note_off_c, 1, 35, 0
2, 55520, Note_off_c, 1, 47, 0
2, 55520, Note_off_c, 1, 68, 0
2, 55560, Note_on_c, 1, 35, 127
2, 55560, Note_on_c, 1, 47, 127
2, 55560, Note_on_c, 1, 68, 127
2, 55640, Note_off_c, 1, 35, 0
2, 55640, Note_off_c, 1, 47, 0
2, 55640, Note_off_c, 1, 68, 0
2, 55680, Note_on_c, 1, 34, 127
2, 55680, Note_on_c, 1, 46, 127
2, 55680, Note_on_c, 1, 65, 127
2, 55920, Note_off_c, 1, 65, 0
2, 55960, Note_on_c, 1, 62, 127
2, 56200, Note_off_c, 1, 34, 0
2, 56200, Note_off_c, 1, 46, 0
2, 56200, Note_off_c, 1, 62, 0
2, 56240, Note_on_c, 1, 34, 127
2, 56240, Note_on_c, 1, 46, 127
2, 56240, Note_on_c, 1, 58, 127
2, 56440, Note_off_c, 1, 58, 0
2, 56480, Note_on_c, 1, 61, 127
2, 56720, Note_off_c, 1, 34, 0
2, 56720, Note_off_c, 1, 46, 0
2, 56720, Note_off_c, 1, 61, 0
2, 56760, Note_on_c, 1, 34, 127
2, 56760, Note_on_c, 1, 46, 127
2, 56760, Note_on_c, 1, 63, 127
2, 57000, Note_off_c, 1, 63, 0
2, 57040, Note_on_c, 1, 62, 127
2, 57240, Note_off_c, 1, 34, 0
2, 57240, Note_off_c, 1, 46, 0
2, 57240, Note_off_c, 1, 62, 0
2, 57280, Note_on_c, 1, 46, 127
2, 57280, Note_on_c, 1, 65, 127
2, 57280, Note_on_c, 1, 71, 127
2, 57400, Note_on_c, 1, 62, 127
2, 57400, Note_off_c, 1, 65, 0
2, 57400, Note_off_c, 1, 71, 0
2, 57440, Note_on_c, 1, 56, 127
2, 57440, Note_off_c, 1, 62, 0
2, 57440, Note_on_c, 1, 65, 127
2, 57520, Note_off_c, 1, 56, 0
2, 57520, Note_off_c, 1, 65, 0
2, 57560, Note_off_c, 1, 46, 0
2, 57600, Note_on_c, 1, 46, 127
2, 57600, Note_on_c, 1, 53, 127
2, 57600, Note_on_c, 1, 65, 127
2, 57600, Note_on_c, 1, 72, 127
2, 57840, Note_off_c, 1, 46, 0
2, 57840, Note_off_c, 1, 53, 0
2, 57840, Note_off_c, 1, 65, 0
2, 57840, Note_off_c, 1, 72, 0
2, 57880, Note_on_c, 1, 36, 127
2, 57880, Note_on_c, 1, 48, 127
2, 57880, Note_on_c, 1, 77, 127
2, 57880, Note_on_c, 1, 89, 127
2, 58360, Note_off_c, 1, 36, 0
2, 58360, Note_off_c, 1, 48, 0
2, 58360, Note_off_c, 1, 77, 0
2, 58360, Note_off_c, 1, 89, 0
2, 58400, Note_on_c, 1, 36, 127
2, 58400, Note_on_c, 1, 48, 127
2, 58400, Note_on_c, 1, 77, 127
2, 58400, Note_on_c, 1, 89, 127
2, 58640, Note_off_c, 1, 36, 0
2, 58640, Note_off_c, 1, 48, 0
2, 58680, Note_on_c, 1, 34, 127
2, 58680, Note_on_c, 1, 46, 127
2, 58880, Note_off_c, 1, 34, 0
2, 58880, Note_off_c, 1, 46, 0
2, 58880, Note_off_c, 1, 77, 0
2, 58880, Note_off_c, 1, 89, 0
2, 58920, Note_on_c, 1, 34, 127
2, 58920, Note_on_c, 1, 46, 127
2, 58920, Note_on_c, 1, 62, 127
2, 58920, Note_on_c, 1, 67, 127
2, 59160, Note_off_c, 1, 62, 0
2, 59200, Note_on_c, 1, 60, 127
2, 59200, Note_on_c, 1, 63, 127
2, 59200, Note_off_c, 1, 67, 0
2, 59400, Note_off_c, 1, 60, 0
2, 59440, Note_off_c, 1, 34, 0
2, 59440, Note_off_c, 1, 46, 0
2, 59440, Note_off_c, 1, 63, 0
2, 59480, Note_on_c, 1, 44, 127
2, 59480, Note_on_c, 1, 60, 127
2, 59480, Note_on_c, 1, 63, 127
2, 59480, Note_on_c, 1, 70, 127
2, 59640, Note_off_c, 1, 44, 0
2, 59640, Note_off_c, 1, 60, 0
2, 59640, Note_off_c, 1, 63, 0
2, 59640, Note_off_c, 1, 70, 0
2, 59680, Note_on_c, 1, 44, 127
2, 59680, Note_on_c, 1, 60, 127
2, 59680, Note_on_c, 1, 63, 127
2, 59680, Note_on_c, 1, 70, 127
2, 60000, Note_off_c, 1, 44, 0
2, 60000, Note_off_c, 1, 60, 0
2, 60000, Note_off_c, 1, 63, 0
2, 60000, Note_off_c, 1, 70, 0
2, 60040, Note_on_c, 1, 51, 127
2, 60040, Note_on_c, 1, 60, 127
2, 60040, Note_on_c, 1, 63, 127
2, 60040, Note_on_c, 1, 68, 127
2, 61920, Note_off_c, 1, 51, 0
2, 61920, Note_off_c, 1, 60, 0
2, 61920, Note_off_c, 1, 63, 0
2, 61920, Note_off_c, 1, 68, 0
2, 62000, Note_on_c, 1, 56, 127
2, 62000, Note_on_c, 1, 60, 127
2, 62000, Note_on_c, 1, 63, 127
2, 62000, Note_on_c, 1, 68, 127
2, 62000, Note_on_c, 1, 72, 127
2, 62760, Note_off_c, 1, 63, 0
2, 62760, Note_on_c, 1, 65, 127
2, 62760, Note_off_c, 1, 68, 0
2, 62760, Note_off_c, 1, 72, 0
2, 63040, Note_off_c, 1, 56, 0
2, 63040, Note_off_c, 1, 60, 0
2, 63040, Note_off_c, 1, 65, 0
2, 64440, Note_on_c, 1, 48, 127
2, 64440, Note_on_c, 1, 55, 127
2, 64440, Note_on_c, 1, 64, 127
2, 64440, Note_on_c, 1, 70, 127
2, 64440, Note_on_c, 1, 76, 127
2, 64920, Note_off_c, 1, 64, 0
2, 64920, Note_off_c, 1, 70, 0
2, 64920, Note_off_c, 1, 76, 0
2, 64960, Note_off_c, 1, 48, 0
2, 64960, Note_off_c, 1, 55, 0
2, 64960, Note_on_c, 1, 58, 127
2, 64960, Note_on_c, 1, 62, 127
2, 64960, Note_on_c, 1, 65, 127
2, 64960, Note_on_c, 1, 70, 127
2, 64960, Note_on_c, 1, 74, 127
2, 64960, Note_on_c, 1, 79, 127
2, 65200, Note_off_c, 1, 58, 0
2, 65200, Note_off_c, 1, 62, 0
2, 65200, Note_off_c, 1, 65, 0
2, 65200, Note_off_c, 1, 70, 0
2, 65200, Note_off_c, 1, 74, 0
2, 65200, Note_off_c, 1, 79, 0
2, 65240, Note_on_c, 1, 48, 127
2, 65240, Note_on_c, 1, 79, 127
2, 65560, Note_on_c, 1, 46, 127
2, 65560, Note_off_c, 1, 48, 0
2, 65560, Note_on_c, 1, 51, 127
2, 65560, Note_on_c, 1, 73, 127
2, 65560, Note_on_c, 1, 75, 127
2, 66040, Note_off_c, 1, 46, 0
2, 66040, Note_off_c, 1, 51, 0
2, 66040, Note_off_c, 1, 73, 0
2, 66040, Note_off_c, 1, 75, 0
2, 66040, Note_off_c, 1, 79, 0
2, 66080, Note_on_c, 1, 79, 127
2, 66320, Note_off_c, 1, 79, 0
2, 66360, Note_on_c, 1, 86, 127
2, 66600, Note_off_c, 1, 86, 0
2, 66640, Note_on_c, 1, 55, 127
2, 66640, Note_on_c, 1, 60, 127
2, 66640, Note_on_c, 1, 63, 127
2, 66640, Note_on_c, 1, 72, 127
2, 67320, Note_off_c, 1, 55, 0
2, 67320, Note_off_c, 1, 60, 0
2, 67320, Note_off_c, 1, 63, 0
2, 67320, Note_off_c, 1, 72, 0
2, 67360, Note_on_c, 1, 55, 127
2, 67360, Note_on_c, 1, 60, 127
2, 67360, Note_on_c, 1, 63, 127
2, 67360, Note_on_c, 1, 72, 127
2, 67720, Note_off_c, 1, 55, 0
2, 67720, Note_off_c, 1, 60, 0
2, 67720, Note_off_c, 1, 63, 0
2, 67720, Note_off_c, 1, 72, 0
2, 67760, Note_on_c, 1, 55, 127
2, 67760, Note_on_c, 1, 59, 127
2, 67760, Note_on_c, 1, 62, 127
2, 69120, Note_off_c, 1, 62, 0
2, 69160, Note_on_c, 1, 62, 127
2, 69360, Note_off_c, 1, 55, 0
2, 69360, Note_off_c, 1, 59, 0
2, 69360, Note_off_c, 1, 62, 0
2, 69400, Note_on_c, 1, 55, 127
2, 69400, Note_on_c, 1, 59, 127
2, 69400, Note_on_c, 1, 62, 127
2, 69440, Note_off_c, 1, 55, 0
2, 69440, Note_off_c, 1, 59, 0
2, 69440, Note_off_c, 1, 62, 0
2, 69480, Note_on_c, 1, 57, 127
2, 69480, Note_on_c, 1, 60, 127
2, 69480, Note_on_c, 1, 65, 127
2, 69960, Note_off_c, 1, 57, 0
2, 69960, Note_off_c, 1, 60, 0
2, 69960, Note_off_c, 1, 65, 0
2, 70000, Note_on_c, 1, 63, 127
2, 70000, Note_on_c, 1, 65, 127
2, 70000, Note_on_c, 1, 86, 127
2, 70240, Note_off_c, 1, 63, 0
2, 70240, Note_off_c, 1, 65, 0
2, 70240, Note_on_c, 1, 84, 127
2, 70240, Note_off_c, 1, 86, 0
2, 70560, Note_on_c, 1, 60, 127
2, 70560, Note_on_c, 1, 62, 127
2, 70560, Note_on_c, 1, 66, 127
2, 70560, Note_on_c, 1, 69, 127
2, 70760, Note_on_c, 1, 83, 127
2, 70760, Note_off_c, 1, 84, 0
2, 70800, Note_off_c, 1, 83, 0
2, 70840, Note_on_c, 1, 83, 127
2, 70920, Note_on_c, 1, 81, 127
2, 70920, Note_off_c, 1, 83, 0
2, 71040, Note_off_c, 1, 81, 0
2, 71080, Note_on_c, 1, 79, 127
2, 71240, Note_on_c, 1, 78, 127
2, 71240, Note_off_c, 1, 79, 0
2, 71280, Note_off_c, 1, 78, 0
2, 71280, Note_on_c, 1, 79, 127
2, 71320, Note_off_c, 1, 79, 0
2, 71360, Note_off_c, 1, 60, 0
2, 71360, Note_off_c, 1, 62, 0
2, 71360, Note_off_c, 1, 66, 0
2, 71360, Note_off_c, 1, 69, 0
2, 71400, Note_on_c, 1, 60, 127
2, 71400, Note_on_c, 1, 62, 127
2, 71400, Note_on_c, 1, 66, 127
2, 71400, Note_on_c, 1, 69, 127
2, 71400, Note_on_c, 1, 79, 127
2, 71560, Note_on_c, 1, 78, 127
2, 71560, Note_off_c, 1, 79, 0
2, 71600, Note_off_c, 1, 60, 0
2, 71600, Note_off_c, 1, 62, 0
2, 71600, Note_off_c, 1, 66, 0
2, 71600, Note_off_c, 1, 69, 0
2, 71600, Note_off_c, 1, 78, 0
2, 71640, Note_on_c, 1, 60, 127
2, 71640, Note_on_c, 1, 64, 127
2, 71640, Note_on_c, 1, 67, 127
2, 71640, Note_on_c, 1, 79, 127
2, 71880, Note_off_c, 1, 79, 0
2, 71920, Note_on_c, 1, 84, 127
2, 72040, Note_off_c, 1, 84, 0
2, 72160, Note_off_c, 1, 60, 0
2, 72160, Note_off_c, 1, 64, 0
2, 72160, Note_off_c, 1, 67, 0
2, 72200, Note_on_c, 1, 50, 127
2, 72200, Note_on_c, 1, 53, 127
2, 72200, Note_on_c, 1, 59, 127
2, 72200, Note_on_c, 1, 79, 127
2, 72680, Note_off_c, 1, 50, 0
2, 72680, Note_off_c, 1, 53, 0
2, 72680, Note_off_c, 1, 59, 0
2, 72680, Note_off_c, 1, 79, 0
2, 72720, Note_on_c, 1, 60, 127
2, 72720, Note_on_c, 1, 64, 127
2, 72720, Note_on_c, 1, 67, 127
2, 72720, Note_on_c, 1, 76, 127
2, 72960, Note_off_c, 1, 60, 0
2, 72960, Note_off_c, 1, 64, 0
2, 72960, Note_off_c, 1, 67, 0
2, 72960, Note_off_c, 1, 76, 0
2, 73000, Note_on_c, 1, 58, 127
2, 73000, Note_on_c, 1, 65, 127
2, 73000, Note_on_c, 1, 67, 127
2, 73000, Note_on_c, 1, 73, 127
2, 73240, Note_off_c, 1, 73, 0
2, 73400, Note_off_c, 1, 58, 0
2, 73400, Note_off_c, 1, 65, 0
2, 73400, Note_off_c, 1, 67, 0
2, 73440, Note_on_c, 1, 58, 127
2, 73440, Note_on_c, 1, 65, 127
2, 73440, Note_on_c, 1, 67, 127
2, 73560, Note_off_c, 1, 58, 0
2, 73560, Note_off_c, 1, 65, 0
2, 73560, Note_off_c, 1, 67, 0
2, 73600, Note_on_c, 1, 56, 127
2, 73600, Note_on_c, 1, 68, 127
2, 73600, Note_on_c, 1, 71, 127
2, 73600, Note_on_c, 1, 78, 127
2, 74080, Note_off_c, 1, 56, 0
2, 74080, Note_off_c, 1, 68, 0
2, 74080, Note_off_c, 1, 71, 0
2, 74080, Note_off_c, 1, 78, 0
2, 74120, Note_on_c, 1, 51, 127
2, 74120, Note_on_c, 1, 72, 127
2, 74400, Note_on_c, 1, 57, 127
2, 74400, Note_on_c, 1, 63, 127
2, 74400, Note_on_c, 1, 67, 127
2, 74400, Note_on_c, 1, 70, 127
2, 74400, Note_off_c, 1, 72, 0
2, 74480, Note_off_c, 1, 57, 0
2, 74640, Note_off_c, 1, 51, 0
2, 74640, Note_off_c, 1, 63, 0
2, 74640, Note_off_c, 1, 67, 0
2, 74640, Note_off_c, 1, 70, 0
2, 74680, Note_on_c, 1, 56, 127
2, 74680, Note_on_c, 1, 68, 127
2, 74720, Note_on_c, 1, 55, 127
2, 74720, Note_off_c, 1, 56, 0
2, 74720, Note_on_c, 1, 58, 127
2, 74720, Note_on_c, 1, 62, 127
2, 74720, Note_on_c, 1, 67, 127
2, 74720, Note_off_c, 1, 68, 0
2, 74720, Note_on_c, 1, 70, 127
2, 74920, Note_off_c, 1, 58, 0
2, 74920, Note_off_c, 1, 67, 0
2, 74920, Note_off_c, 1, 70, 0
2, 74960, Note_on_c, 1, 48, 127
2, 74960, Note_off_c, 1, 55, 0
2, 74960, Note_off_c, 1, 62, 0
2, 74960, Note_on_c, 1, 103, 127
2, 75160, Note_on_c, 1, 36, 127
2, 75160, Note_off_c, 1, 48, 0
2, 75160, Note_on_c, 1, 96, 127
2, 75160, Note_off_c, 1, 103, 0
2, 75200, Note_off_c, 1, 36, 0
2, 75200, Note_on_c, 1, 55, 127
2, 75200, Note_on_c, 1, 67, 127
2, 75200, Note_off_c, 1, 96, 0
2, 75240, Note_off_c, 1, 55, 0
2, 75240, Note_on_c, 1, 57, 127
2, 75240, Note_on_c, 1, 59, 127
2, 75240, Note_on_c, 1, 62, 127
2, 75240, Note_off_c, 1, 67, 0
2, 75240, Note_on_c, 1, 68, 127
2, 75240, Note_on_c, 1, 77, 127
2, 75240, Note_on_c, 1, 89, 127
2, 75280, Note_off_c, 1, 57, 0
2, 75280, Note_on_c, 1, 58, 127
2, 75280, Note_off_c, 1, 59, 0
2, 75280, Note_on_c, 1, 60, 127
2, 75280, Note_off_c, 1, 62, 0
2, 75280, Note_on_c, 1, 64, 127
2, 75280, Note_off_c, 1, 68, 0
2, 75280, Note_off_c, 1, 77, 0
2, 75280, Note_on_c, 1, 88, 127
2, 75280, Note_off_c, 1, 89, 0
2, 75320, Note_on_c, 1, 27, 127
2, 75320, Note_on_c, 1, 39, 127
2, 75320, Note_off_c, 1, 60, 0
2, 75320, Note_on_c, 1, 63, 127
2, 75320, Note_off_c, 1, 64, 0
2, 75320, Note_on_c, 1, 65, 127
2, 75320, Note_on_c, 1, 70, 127
2, 75320, Note_on_c, 1, 80, 127
2, 75320, Note_off_c, 1, 88, 0
2, 75320, Note_on_c, 1, 94, 127
2, 75360, Note_off_c, 1, 27, 0
2, 75360, Note_on_c, 1, 38, 127
2, 75360, Note_off_c, 1, 39, 0
2, 75360, Note_on_c, 1, 48, 127
2, 75360, Note_on_c, 1, 50, 127
2, 75360, Note_off_c, 1, 58, 0
2, 75360, Note_off_c, 1, 63, 0
2, 75360, Note_off_c, 1, 70, 0
2, 75360, Note_on_c, 1, 72, 127
2, 75360, Note_on_c, 1, 77, 127
2, 75360, Note_off_c, 1, 80, 0
2, 75360, Note_off_c, 1, 94, 0
2, 75400, Note_off_c, 1, 38, 0
2, 75400, Note_off_c, 1, 48, 0
2, 75400, Note_off_c, 1, 50, 0
2, 75400, Note_on_c, 1, 53, 127
2, 75400, Note_on_c, 1, 55, 127
2, 75400, Note_on_c, 1, 59, 127
2, 75400, Note_off_c, 1, 65, 0
2, 75400, Note_off_c, 1, 72, 0
2, 75400, Note_off_c, 1, 77, 0
2, 75440, Note_off_c, 1, 53, 0
2, 75440, Note_on_c, 1, 62, 127
2, 75440, Note_on_c, 1, 90, 127
2, 75480, Note_off_c, 1, 55, 0
2, 75480, Note_off_c, 1, 59, 0
2, 75480, Note_off_c, 1, 62, 0
2, 75480, Note_off_c, 1, 90, 0
2, 75560, Note_on_c, 1, 37, 127
2, 75560, Note_on_c, 1, 49, 127
2, 75560, Note_on_c, 1, 92, 127
2, 75560, Note_on_c, 1, 93, 127
2, 75600, Note_off_c, 1, 37, 0
2, 75600, Note_on_c, 1, 47, 127
2, 75600, Note_off_c, 1, 49, 0
2, 75600, Note_on_c, 1, 51, 127
2, 75600, Note_on_c, 1, 55, 127
2, 75600, Note_off_c, 1, 92, 0
2, 75600, Note_off_c, 1, 93, 0
2, 75640, Note_on_c, 1, 43, 127
2, 75640, Note_off_c, 1, 47, 0
2, 75640, Note_on_c, 1, 50, 127
2, 75640, Note_off_c, 1, 51, 0
2, 75640, Note_off_c, 1, 55, 0
2, 75640, Note_on_c, 1, 71, 127
2, 75640, Note_on_c, 1, 77, 127
2, 75640, Note_on_c, 1, 81, 127
2, 75680, Note_off_c, 1, 43, 0
2, 75680, Note_off_c, 1, 50, 0
2, 75680, Note_on_c, 1, 60, 127
2, 75680, Note_on_c, 1, 67, 127
2, 75680, Note_off_c, 1, 71, 0
2, 75680, Note_off_c, 1, 77, 0
2, 75680, Note_off_c, 1, 81, 0
2, 75680, Note_on_c, 1, 83, 127
2, 75680, Note_on_c, 1, 88, 127
2, 75720, Note_on_c, 1, 43, 127
2, 75720, Note_on_c, 1, 50, 127
2, 75720, Note_off_c, 1, 60, 0
2, 75720, Note_off_c, 1, 67, 0
2, 75720, Note_off_c, 1, 88, 0
2, 75760, Note_off_c, 1, 43, 0
2, 75760, Note_off_c, 1, 50, 0
2, 75760, Note_on_c, 1, 55, 127
2, 75760, Note_off_c, 1, 83, 0
2, 75800, Note_on_c, 1, 31, 127
2, 75800, Note_on_c, 1, 35, 127
2, 75800, Note_on_c, 1, 40, 127
2, 75800, Note_on_c, 1, 52, 127
2, 75800, Note_off_c, 1, 55, 0
2, 76040, Note_off_c, 1, 31, 0
2, 76040, Note_off_c, 1, 35, 0
2, 76040, Note_off_c, 1, 40, 0
2, 76040, Note_off_c, 1, 52, 0
2, 76080, Note_on_c, 1, 48, 127
2, 76080, Note_on_c, 1, 62, 127
2, 76080, Note_on_c, 1, 65, 127
2, 76080, Note_on_c, 1, 74, 127
2, 76320, Note_off_c, 1, 62, 0
2, 76320, Note_off_c, 1, 65, 0
2, 76360, Note_on_c, 1, 62, 127
2, 76360, Note_on_c, 1, 65, 127
2, 76560, Note_off_c, 1, 62, 0
2, 76560, Note_off_c, 1, 65, 0
2, 76600, Note_on_c, 1, 41, 127
2, 76600, Note_on_c, 1, 45, 127
2, 76600, Note_on_c, 1, 72, 127
2, 76600, Note_off_c, 1, 74, 0
2, 76640, Note_off_c, 1, 41, 0
2, 76640, Note_on_c, 1, 44, 127
2, 76640, Note_off_c, 1, 45, 0
2, 76640, Note_off_c, 1, 48, 0
2, 76640, Note_on_c, 1, 49, 127
2, 76640, Note_on_c, 1, 59, 127
2, 76640, Note_on_c, 1, 71, 127
2, 76640, Note_off_c, 1, 72, 0
2, 76680, Note_off_c, 1, 44, 0
2, 76680, Note_on_c, 1, 45, 127
2, 76680, Note_off_c, 1, 49, 0
2, 76680, Note_on_c, 1, 54, 127
2, 76680, Note_off_c, 1, 59, 0
2, 76680, Note_on_c, 1, 60, 127
2, 76680, Note_on_c, 1, 64, 127
2, 76680, Note_on_c, 1, 68, 127
2, 76680, Note_off_c, 1, 71, 0
2, 76720, Note_on_c, 1, 38, 127
2, 76720, Note_off_c, 1, 45, 0
2, 76720, Note_on_c, 1, 53, 127
2, 76720, Note_off_c, 1, 54, 0
2, 76720, Note_on_c, 1, 57, 127
2, 76720, Note_off_c, 1, 60, 0
2, 76720, Note_off_c, 1, 68, 0
2, 76760, Note_off_c, 1, 38, 0
2, 76760, Note_on_c, 1, 44, 127
2, 76760, Note_on_c, 1, 49, 127
2, 76760, Note_off_c, 1, 53, 0
2, 76760, Note_off_c, 1, 57, 0
2, 76760, Note_on_c, 1, 59, 127
2, 76760, Note_off_c, 1, 64, 0
2, 76760, Note_on_c, 1, 71, 127
2, 76800, Note_on_c, 1, 37, 127
2, 76800, Note_on_c, 1, 42, 127
2, 76800, Note_off_c, 1, 44, 0
2, 76800, Note_off_c, 1, 59, 0
2, 76800, Note_on_c, 1, 64, 127
2, 76800, Note_off_c, 1, 71, 0
2, 76840, Note_off_c, 1, 37, 0
2, 76840, Note_off_c, 1, 42, 0
2, 76840, Note_off_c, 1, 49, 0
2, 76840, Note_off_c, 1, 64, 0
2, 76880, Note_on_c, 1, 48, 127
2, 76880, Note_on_c, 1, 52, 127
2, 76880, Note_on_c, 1, 72, 127
2, 77120, Note_off_c, 1, 52, 0
2, 77120, Note_off_c, 1, 72, 0
2, 77160, Note_on_c, 1, 55, 127
2, 77160, Note_on_c, 1, 75, 127
2, 77400, Note_off_c, 1, 48, 0
2, 77400, Note_off_c, 1, 55, 0
2, 77400, Note_off_c, 1, 75, 0
2, 77440, Note_on_c, 1, 44, 127
2, 77440, Note_on_c, 1, 76, 127
2, 77520, Note_off_c, 1, 44, 0
2, 77680, Note_off_c, 1, 76, 0
2, 77720, Note_on_c, 1, 55, 127
2, 77720, Note_on_c, 1, 57, 127
2, 77720, Note_on_c, 1, 61, 127
2, 77720, Note_on_c, 1, 64, 127
2, 77720, Note_on_c, 1, 76, 127
2, 77960, Note_off_c, 1, 76, 0
2, 78000, Note_on_c, 1, 45, 127
2, 78000, Note_on_c, 1, 47, 127
2, 78000, Note_off_c, 1, 55, 0
2, 78000, Note_off_c, 1, 57, 0
2, 78000, Note_off_c, 1, 61, 0
2, 78000, Note_off_c, 1, 64, 0
2, 78000, Note_on_c, 1, 76, 127
2, 78240, Note_off_c, 1, 47, 0
2, 78280, Note_off_c, 1, 45, 0
2, 78280, Note_on_c, 1, 48, 127
2, 78280, Note_on_c, 1, 55, 127
2, 78280, Note_on_c, 1, 57, 127
2, 78280, Note_on_c, 1, 63, 127
2, 78280, Note_on_c, 1, 69, 127
2, 78280, Note_on_c, 1, 75, 127
2, 78280, Note_off_c, 1, 76, 0
2, 78280, Note_on_c, 1, 79, 127
2, 78280, Note_on_c, 1, 81, 127
2, 78360, Note_off_c, 1, 69, 0
2, 78360, Note_off_c, 1, 75, 0
2, 78360, Note_off_c, 1, 79, 0
2, 78360, Note_off_c, 1, 81, 0
2, 78520, Note_off_c, 1, 48, 0
2, 78520, Note_on_c, 1, 53, 127
2, 78520, Note_off_c, 1, 55, 0
2, 78520, Note_off_c, 1, 57, 0
2, 78520, Note_off_c, 1, 63, 0
2, 78560, Note_off_c, 1, 53, 0
2, 78560, Note_on_c, 1, 67, 127
2, 78560, Note_on_c, 1, 71, 127
2, 78560, Note_on_c, 1, 77, 127
2, 78560, Note_on_c, 1, 79, 127
2, 78560, Note_on_c, 1, 83, 127
2, 78760, Note_off_c, 1, 67, 0
2, 78800, Note_on_c, 1, 46, 127
2, 78800, Note_on_c, 1, 53, 127
2, 78800, Note_off_c, 1, 71, 0
2, 78800, Note_on_c, 1, 74, 127
2, 78800, Note_off_c, 1, 79, 0
2, 78800, Note_on_c, 1, 82, 127
2, 78800, Note_off_c, 1, 83, 0
2, 79040, Note_off_c, 1, 53, 0
2, 79040, Note_off_c, 1, 74, 0
2, 79040, Note_off_c, 1, 77, 0
2, 79040, Note_off_c, 1, 82, 0
2, 79080, Note_on_c, 1, 53, 127
2, 79080, Note_on_c, 1, 74, 127
2, 79080, Note_on_c, 1, 77, 127
2, 79080, Note_on_c, 1, 84, 127
2, 79320, Note_off_c, 1, 46, 0
2, 79320, Note_off_c, 1, 53, 0
2, 79320, Note_off_c, 1, 74, 0
2, 79320, Note_off_c, 1, 77, 0
2, 79320, Note_off_c, 1, 84, 0
2, 79360, Note_on_c, 1, 48, 127
2, 79360, Note_on_c, 1, 53, 127
2, 79360, Note_on_c, 1, 75, 127
2, 79360, Note_on_c, 1, 77, 127
2, 79360, Note_on_c, 1, 82, 127
2, 79600, Note_off_c, 1, 53, 0
2, 79600, Note_off_c, 1, 75, 0
2, 79600, Note_off_c, 1, 77, 0
2, 79600, Note_off_c, 1, 82, 0
2, 79640, Note_on_c, 1, 53, 127
2, 79640, Note_on_c, 1, 75, 127
2, 79640, Note_on_c, 1, 77, 127
2, 79640, Note_on_c, 1, 81, 127
2, 79800, Note_off_c, 1, 48, 0
2, 79800, Note_off_c, 1, 53, 0
2, 79800, Note_off_c, 1, 75, 0
2, 79800, Note_off_c, 1, 77, 0
2, 79800, Note_off_c, 1, 81, 0
2, 79840, Note_on_c, 1, 48, 127
2, 79840, Note_on_c, 1, 53, 127
2, 79840, Note_on_c, 1, 75, 127
2, 79840, Note_on_c, 1, 77, 127
2, 79840, Note_on_c, 1, 81, 127
2, 80080, Note_off_c, 1, 81, 0
2, 80080, Note_on_c, 1, 84, 127
2, 80200, Note_off_c, 1, 48, 0
2, 80200, Note_off_c, 1, 53, 0
2, 80200, Note_off_c, 1, 75, 0
2, 80200, Note_off_c, 1, 77, 0
2, 80200, Note_off_c, 1, 84, 0
2, 80240, Note_on_c, 1, 45, 127
2, 80240, Note_on_c, 1, 52, 127
2, 80240, Note_on_c, 1, 76, 127
2, 80240, Note_on_c, 1, 81, 127
2, 80240, Note_on_c, 1, 86, 127
2, 80520, Note_on_c, 1, 84, 127
2, 80520, Note_off_c, 1, 86, 0
2, 80720, Note_off_c, 1, 45, 0
2, 80720, Note_off_c, 1, 52, 0
2, 80720, Note_off_c, 1, 76, 0
2, 80720, Note_off_c, 1, 81, 0
2, 80720, Note_off_c, 1, 84, 0
2, 80760, Note_on_c, 1, 57, 127
2, 80760, Note_on_c, 1, 73, 127
2, 80760, Note_on_c, 1, 76, 127
2, 81000, Note_off_c, 1, 73, 0
2, 81040, Note_on_c, 1, 45, 127
2, 81040, Note_off_c, 1, 57, 0
2, 81040, Note_on_c, 1, 60, 127
2, 81040, Note_on_c, 1, 64, 127
2, 81280, Note_off_c, 1, 60, 0
2, 81280, Note_off_c, 1, 64, 0
2, 81320, Note_on_c, 1, 64, 127
2, 81320, Note_on_c, 1, 72, 127
2, 81520, Note_off_c, 1, 64, 0
2, 81520, Note_off_c, 1, 72, 0
2, 81560, Note_on_c, 1, 64, 127
2, 81560, Note_on_c, 1, 72, 127
2, 81800, Note_off_c, 1, 45, 0
2, 81800, Note_off_c, 1, 64, 0
2, 81800, Note_off_c, 1, 72, 0
2, 81800, Note_off_c, 1, 76, 0
2, 81880, Note_on_c, 1, 71, 127
2, 81880, Note_on_c, 1, 77, 127
2, 81880, Note_on_c, 1, 81, 127
2, 81880, Note_on_c, 1, 93, 127
2, 81920, Note_off_c, 1, 71, 0
2, 81920, Note_off_c, 1, 77, 0
2, 82080, Note_off_c, 1, 81, 0
2, 82080, Note_off_c, 1, 93, 0
2, 82160, Note_on_c, 1, 62, 127
2, 82160, Note_on_c, 1, 71, 127
2, 82160, Note_on_c, 1, 74, 127
2, 82160, Note_on_c, 1, 86, 127
2, 82400, Note_off_c, 1, 71, 0
2, 82400, Note_off_c, 1, 86, 0
2, 82440, Note_on_c, 1, 71, 127
2, 82440, Note_on_c, 1, 86, 127
2, 82560, Note_off_c, 1, 71, 0
2, 82560, Note_off_c, 1, 86, 0
2, 82600, Note_on_c, 1, 71, 127
2, 82600, Note_on_c, 1, 86, 127
2, 82680, Note_off_c, 1, 71, 0
2, 82680, Note_off_c, 1, 86, 0
2, 82720, Note_on_c, 1, 71, 127
2, 82720, Note_on_c, 1, 86, 127
2, 82920, Note_on_c, 1, 67, 127
2, 82920, Note_off_c, 1, 71, 0
2, 82920, Note_on_c, 1, 83, 127
2, 82920, Note_off_c, 1, 86, 0
2, 82960, Note_off_c, 1, 67, 0
2, 82960, Note_off_c, 1, 83, 0
2, 83000, Note_on_c, 1, 71, 127
2, 83000, Note_on_c, 1, 86, 127
2, 83200, Note_off_c, 1, 71, 0
2, 83200, Note_off_c, 1, 86, 0
2, 83240, Note_on_c, 1, 66, 127
2, 83240, Note_on_c, 1, 81, 127
2, 83360, Note_off_c, 1, 66, 0
2, 83360, Note_off_c, 1, 81, 0
2, 83400, Note_on_c, 1, 86, 127
2, 83480, Note_off_c, 1, 62, 0
2, 83480, Note_off_c, 1, 74, 0
2, 83480, Note_off_c, 1, 86, 0
2, 83520, Note_on_c, 1, 62, 127
2, 83520, Note_on_c, 1, 66, 127
2, 83520, Note_on_c, 1, 74, 127
2, 83520, Note_on_c, 1, 86, 127
2, 83760, Note_off_c, 1, 62, 0
2, 83760, Note_off_c, 1, 66, 0
2, 83760, Note_off_c, 1, 74, 0
2, 83760, Note_off_c, 1, 86, 0
2, 83840, Note_on_c, 1, 62, 127
2, 83840, Note_on_c, 1, 74, 127
2, 83840, Note_on_c, 1, 88, 127
2, 83880, Note_off_c, 1, 88, 0
2, 84080, Note_off_c, 1, 62, 0
2, 84120, Note_on_c, 1, 84, 127
2, 84120, Note_on_c, 1, 86, 127
2, 84320, Note_off_c, 1, 84, 0
2, 84360, Note_on_c, 1, 45, 127
2, 84360, Note_on_c, 1, 81, 127
2, 84360, Note_off_c, 1, 86, 0
2, 84600, Note_off_c, 1, 45, 0
2, 84600, Note_off_c, 1, 74, 0
2, 84600, Note_off_c, 1, 81, 0
2, 84640, Note_on_c, 1, 50, 127
2, 84640, Note_on_c, 1, 68, 127
2, 84640, Note_on_c, 1, 80, 127
2, 84880, Note_off_c, 1, 50, 0
2, 84920, Note_on_c, 1, 50, 127
2, 85160, Note_off_c, 1, 50, 0
2, 85160, Note_off_c, 1, 68, 0
2, 85160, Note_off_c, 1, 80, 0
2, 85200, Note_on_c, 1, 56, 127
2, 85200, Note_on_c, 1, 67, 127
2, 85200, Note_on_c, 1, 79, 127
2, 85240, Note_off_c, 1, 56, 0
2, 85240, Note_on_c, 1, 57, 127
2, 85400, Note_off_c, 1, 57, 0
2, 85400, Note_off_c, 1, 67, 0
2, 85400, Note_off_c, 1, 79, 0
2, 85440, Note_on_c, 1, 47, 127
2, 85440, Note_on_c, 1, 68, 127
2, 85440, Note_on_c, 1, 80, 127
2, 85480, Note_off_c, 1, 47, 0
2, 85680, Note_off_c, 1, 68, 0
2, 85680, Note_off_c, 1, 80, 0
2, 85760, Note_on_c, 1, 56, 127
2, 85760, Note_on_c, 1, 67, 127
2, 85760, Note_on_c, 1, 79, 127
2, 85880, Note_off_c, 1, 67, 0
2, 85880, Note_off_c, 1, 79, 0
2, 86000, Note_off_c, 1, 56, 0
2, 86040, Note_on_c, 1, 56, 127
2, 86040, Note_on_c, 1, 67, 127
2, 86040, Note_on_c, 1, 79, 127
2, 86080, Note_off_c, 1, 56, 0
2, 86080, Note_on_c, 1, 57, 127
2, 86120, Note_on_c, 1, 56, 127
2, 86120, Note_off_c, 1, 57, 0
2, 86200, Note_off_c, 1, 67, 0
2, 86200, Note_off_c, 1, 79, 0
2, 86280, Note_off_c, 1, 56, 0
2, 86320, Note_on_c, 1, 56, 127
2, 86320, Note_on_c, 1, 67, 127
2, 86320, Note_on_c, 1, 79, 127
2, 86480, Note_off_c, 1, 67, 0
2, 86480, Note_off_c, 1, 79, 0
2, 86520, Note_off_c, 1, 56, 0
2, 86520, Note_on_c, 1, 62, 127
2, 86520, Note_on_c, 1, 68, 127
2, 86520, Note_on_c, 1, 80, 127
2, 86560, Note_off_c, 1, 62, 0
2, 86560, Note_off_c, 1, 68, 0
2, 86560, Note_off_c, 1, 80, 0
2, 86600, Note_on_c, 1, 35, 127
2, 86600, Note_on_c, 1, 51, 127
2, 86600, Note_on_c, 1, 54, 127
2, 86600, Note_on_c, 1, 59, 127
2, 86600, Note_on_c, 1, 63, 127
2, 86640, Note_off_c, 1, 35, 0
2, 86640, Note_off_c, 1, 51, 0
2, 86640, Note_off_c, 1, 54, 0
2, 86640, Note_on_c, 1, 56, 127
2, 86640, Note_off_c, 1, 59, 0
2, 86640, Note_on_c, 1, 92, 127
2, 86640, Note_on_c, 1, 96, 127
2, 86840, Note_off_c, 1, 56, 0
2, 86840, Note_off_c, 1, 63, 0
2, 86840, Note_on_c, 1, 64, 127
2, 86840, Note_off_c, 1, 92, 0
2, 86840, Note_off_c, 1, 96, 0
2, 86880, Note_on_c, 1, 38, 127
2, 86880, Note_on_c, 1, 52, 127
2, 86880, Note_on_c, 1, 57, 127
2, 86880, Note_off_c, 1, 64, 0
2, 86880, Note_on_c, 1, 76, 127
2, 87120, Note_off_c, 1, 38, 0
2, 87120, Note_off_c, 1, 52, 0
2, 87120, Note_off_c, 1, 57, 0
2, 87120, Note_off_c, 1, 76, 0
2, 87160, Note_on_c, 1, 57, 127
2, 87160, Note_on_c, 1, 62, 127
2, 87160, Note_on_c, 1, 67, 127
2, 87160, Note_on_c, 1, 72, 127
2, 87200, Note_on_c, 1, 66, 127
2, 87200, Note_off_c, 1, 67, 0
2, 87240, Note_off_c, 1, 66, 0
2, 87240, Note_on_c, 1, 67, 127
2, 87320, Note_off_c, 1, 57, 0
2, 87320, Note_off_c, 1, 62, 0
2, 87320, Note_off_c, 1, 72, 0
2, 87400, Note_off_c, 1, 67, 0
2, 87440, Note_on_c, 1, 50, 127
2, 87440, Note_on_c, 1, 65, 127
2, 87440, Note_on_c, 1, 72, 127
2, 87640, Note_off_c, 1, 65, 0
2, 87640, Note_off_c, 1, 72, 0
2, 87680, Note_on_c, 1, 38, 127
2, 87680, Note_on_c, 1, 65, 127
2, 87680, Note_on_c, 1, 69, 127
2, 87680, Note_on_c, 1, 74, 127
2, 87840, Note_off_c, 1, 38, 0
2, 87840, Note_off_c, 1, 50, 0
2, 87840, Note_off_c, 1, 65, 0
2, 87840, Note_off_c, 1, 69, 0
2, 87840, Note_off_c, 1, 74, 0
2, 87880, Note_on_c, 1, 38, 127
2, 87880, Note_on_c, 1, 50, 127
2, 87880, Note_on_c, 1, 65, 127
2, 87880, Note_on_c, 1, 69, 127
2, 87880, Note_on_c, 1, 74, 127
2, 87960, Note_off_c, 1, 38, 0
2, 87960, Note_off_c, 1, 50, 0
2, 87960, Note_off_c, 1, 65, 0
2, 87960, Note_off_c, 1, 69, 0
2, 87960, Note_off_c, 1, 74, 0
2, 88000, Note_on_c, 1, 48, 127
2, 88000, Note_on_c, 1, 55, 127
2, 88000, Note_on_c, 1, 60, 127
2, 88000, Note_on_c, 1, 63, 127
2, 88000, Note_on_c, 1, 67, 127
2, 88240, Note_off_c, 1, 48, 0
2, 88240, Note_off_c, 1, 55, 0
2, 88240, Note_off_c, 1, 60, 0
2, 88240, Note_off_c, 1, 63, 0
2, 88240, Note_off_c, 1, 67, 0
2, 88280, Note_on_c, 1, 43, 127
2, 88280, Note_on_c, 1, 66, 127
2, 88280, Note_on_c, 1, 69, 127
2, 88360, Note_off_c, 1, 66, 0
2, 88360, Note_off_c, 1, 69, 0
2, 88400, Note_on_c, 1, 66, 127
2, 88400, Note_on_c, 1, 69, 127
2, 88440, Note_off_c, 1, 43, 0
2, 88440, Note_off_c, 1, 66, 0
2, 88440, Note_on_c, 1, 67, 127
2, 88440, Note_off_c, 1, 69, 0
2, 88440, Note_on_c, 1, 71, 127
2, 88520, Note_off_c, 1, 67, 0
2, 88520, Note_off_c, 1, 71, 0
2, 88560, Note_on_c, 1, 43, 127
2, 88560, Note_on_c, 1, 67, 127
2, 88560, Note_on_c, 1, 71, 127
2, 88760, Note_off_c, 1, 43, 0
2, 88800, Note_on_c, 1, 53, 127
2, 88960, Note_off_c, 1, 71, 0
2, 89000, Note_on_c, 1, 48, 127
2, 89000, Note_off_c, 1, 53, 0
2, 89000, Note_on_c, 1, 78, 127
2, 89040, Note_off_c, 1, 48, 0
2, 89040, Note_off_c, 1, 67, 0
2, 89040, Note_off_c, 1, 78, 0
2, 89080, Note_on_c, 1, 50, 127
2, 89080, Note_on_c, 1, 60, 127
2, 89080, Note_on_c, 1, 66, 127
2, 89080, Note_on_c, 1, 71, 127
2, 89120, Note_off_c, 1, 71, 0
2, 89160, Note_on_c, 1, 69, 127
2, 89320, Note_off_c, 1, 50, 0
2, 89320, Note_off_c, 1, 60, 0
2, 89320, Note_off_c, 1, 66, 0
2, 89320, Note_off_c, 1, 69, 0
2, 89360, Note_on_c, 1, 55, 127
2, 89360, Note_on_c, 1, 67, 127
2, 89600, Note_off_c, 1, 55, 0
2, 89640, Note_on_c, 1, 43, 127
2, 89800, Note_off_c, 1, 43, 0
2, 89800, Note_off_c, 1, 67, 0
2, 89880, Note_on_c, 1, 67, 127
2, 90480, Note_on_c, 1, 50, 127
2, 90480, Note_on_c, 1, 59, 127
2, 90480, Note_on_c, 1, 62, 127
2, 91480, Note_off_c, 1, 62, 0
2, 91480, Note_off_c, 1, 67, 0
2, 91520, Note_off_c, 1, 50, 0
2, 91520, Note_on_c, 1, 55, 127
2, 91520, Note_on_c, 1, 62, 127
2, 91520, Note_on_c, 1, 67, 127
2, 91920, Note_off_c, 1, 55, 0
2, 91920, Note_off_c, 1, 59, 0
2, 91920, Note_off_c, 1, 62, 0
2, 91920, Note_off_c, 1, 67, 0
2, 91960, Note_on_c, 1, 55, 127
2, 91960, Note_on_c, 1, 59, 127
2, 91960, Note_on_c, 1, 62, 127
2, 91960, Note_on_c, 1, 67, 127
2, 92080, Note_off_c, 1, 55, 0
2, 92080, Note_off_c, 1, 59, 0
2, 92080, Note_off_c, 1, 62, 0
2, 92080, Note_off_c, 1, 67, 0
2, 92120, Note_on_c, 1, 48, 127
2, 92120, Note_on_c, 1, 60, 127
2, 92120, Note_on_c, 1, 64, 127
2, 92920, Note_off_c, 1, 48, 0
2, 92920, Note_off_c, 1, 60, 0
2, 92920, Note_off_c, 1, 64, 0
2, 92960, Note_on_c, 1, 50, 127
2, 92960, Note_on_c, 1, 55, 127
2, 92960, Note_on_c, 1, 59, 127
2, 92960, Note_on_c, 1, 65, 127
2, 93200, Note_off_c, 1, 50, 0
2, 93200, Note_off_c, 1, 55, 0
2, 93200, Note_off_c, 1, 59, 0
2, 93200, Note_off_c, 1, 65, 0
2, 93240, Note_on_c, 1, 48, 127
2, 93240, Note_on_c, 1, 60, 127
2, 93240, Note_on_c, 1, 64, 127
2, 93480, Note_off_c, 1, 48, 0
2, 93480, Note_off_c, 1, 60, 0
2, 93480, Note_off_c, 1, 64, 0
2, 93520, Note_on_c, 1, 50, 127
2, 93520, Note_on_c, 1, 55, 127
2, 93520, Note_on_c, 1, 59, 127
2, 93520, Note_on_c, 1, 65, 127
2, 93760, Note_off_c, 1, 50, 0
2, 93760, Note_off_c, 1, 55, 0
2, 93760, Note_off_c, 1, 59, 0
2, 93760, Note_off_c, 1, 65, 0
2, 93800, Note_on_c, 1, 48, 127
2, 93800, Note_on_c, 1, 60, 127
2, 93800, Note_on_c, 1, 64, 127
2, 94040, Note_off_c, 1, 48, 0
2, 94040, Note_off_c, 1, 60, 0
2, 94040, Note_off_c, 1, 64, 0
2, 94120, Note_on_c, 1, 50, 127
2, 94120, Note_on_c, 1, 55, 127
2, 94120, Note_on_c, 1, 59, 127
2, 94120, Note_on_c, 1, 65, 127
2, 94360, Note_off_c, 1, 50, 0
2, 94360, Note_off_c, 1, 55, 0
2, 94360, Note_off_c, 1, 59, 0
2, 94360, Note_off_c, 1, 65, 0
2, 94400, Note_on_c, 1, 48, 127
2, 94400, Note_on_c, 1, 60, 127
2, 94400, Note_on_c, 1, 64, 127
2, 94640, Note_off_c, 1, 48, 0
2, 94640, Note_off_c, 1, 60, 0
2, 94640, Note_off_c, 1, 64, 0
2, 94680, Note_on_c, 1, 50, 127
2, 94680, Note_on_c, 1, 59, 127
2, 94680, Note_on_c, 1, 67, 127
2, 95000, Note_off_c, 1, 67, 0
2, 95040, Note_on_c, 1, 62, 127
2, 95160, Note_off_c, 1, 50, 0
2, 95160, Note_off_c, 1, 59, 0
2, 95160, Note_off_c, 1, 62, 0
2, 95200, Note_on_c, 1, 55, 127
2, 95200, Note_on_c, 1, 59, 127
2, 95200, Note_on_c, 1, 67, 127
2, 95440, Note_off_c, 1, 59, 0
2, 95480, Note_on_c, 1, 62, 127
2, 95720, Note_off_c, 1, 55, 0
2, 95720, Note_off_c, 1, 62, 0
2, 95720, Note_off_c, 1, 67, 0
2, 95760, Note_on_c, 1, 55, 127
2, 95760, Note_on_c, 1, 59, 127
2, 95760, Note_on_c, 1, 67, 127
2, 95960, Note_off_c, 1, 67, 0
2, 96040, Note_on_c, 1, 71, 127
2, 96240, Note_off_c, 1, 55, 0
2, 96240, Note_off_c, 1, 59, 0
2, 96240, Note_off_c, 1, 71, 0
2, 96280, Note_on_c, 1, 55, 127
2, 96280, Note_on_c, 1, 59, 127
2, 96280, Note_on_c, 1, 74, 127
2, 96320, Note_off_c, 1, 55, 0
2, 96320, Note_off_c, 1, 59, 0
2, 96320, Note_off_c, 1, 74, 0
2, 96360, Note_on_c, 1, 55, 127
2, 96360, Note_on_c, 1, 60, 127
2, 96360, Note_on_c, 1, 69, 127
2, 96840, Note_off_c, 1, 55, 0
2, 96880, Note_on_c, 1, 54, 127
2, 97120, Note_off_c, 1, 54, 0
2, 97120, Note_off_c, 1, 60, 0
2, 97160, Note_on_c, 1, 51, 127
2, 97160, Note_on_c, 1, 60, 127
2, 97400, Note_off_c, 1, 51, 0
2, 97400, Note_off_c, 1, 60, 0
2, 97400, Note_off_c, 1, 69, 0
2, 97440, Note_on_c, 1, 51, 127
2, 97440, Note_on_c, 1, 67, 127
2, 97440, Note_on_c, 1, 72, 127
2, 97680, Note_off_c, 1, 51, 0
2, 97680, Note_off_c, 1, 72, 0
2, 97720, Note_on_c, 1, 55, 127
2, 97720, Note_on_c, 1, 60, 127
2, 97720, Note_off_c, 1, 67, 0
2, 97720, Note_on_c, 1, 69, 127
2, 98200, Note_off_c, 1, 55, 0
2, 98200, Note_off_c, 1, 60, 0
2, 98200, Note_on_c, 1, 67, 127
2, 98200, Note_off_c, 1, 69, 0
2, 98240, Note_on_c, 1, 55, 127
2, 98240, Note_on_c, 1, 59, 127
2, 98360, Note_off_c, 1, 67, 0
2, 98400, Note_on_c, 1, 71, 127
2, 98560, Note_off_c, 1, 55, 0
2, 98560, Note_off_c, 1, 59, 0
2, 98560, Note_off_c, 1, 71, 0
2, 98600, Note_on_c, 1, 55, 127
2, 98600, Note_on_c, 1, 59, 127
2, 98600, Note_on_c, 1, 71, 127
2, 98680, Note_off_c, 1, 59, 0
2, 98720, Note_on_c, 1, 62, 127
2, 98800, Note_off_c, 1, 62, 0
2, 98840, Note_on_c, 1, 52, 127
2, 98840, Note_off_c, 1, 55, 0
2, 98840, Note_on_c, 1, 59, 127
2, 99080, Note_off_c, 1, 59, 0
2, 99120, Note_off_c, 1, 52, 0
2, 99120, Note_on_c, 1, 57, 127
2, 99120, Note_on_c, 1, 64, 127
2, 99120, Note_off_c, 1, 71, 0
2, 99120, Note_on_c, 1, 76, 127
2, 99120, Note_on_c, 1, 81, 127
2, 99120, Note_on_c, 1, 85, 127
2, 99120, Note_on_c, 1, 88, 127
2, 99360, Note_off_c, 1, 76, 0
2, 99360, Note_off_c, 1, 81, 0
2, 99360, Note_off_c, 1, 85, 0
2, 99360, Note_off_c, 1, 88, 0
2, 99400, Note_on_c, 1, 50, 127
2, 99400, Note_on_c, 1, 56, 127
2, 99400, Note_off_c, 1, 57, 0
2, 99400, Note_on_c, 1, 62, 127
2, 99400, Note_off_c, 1, 64, 0
2, 99400, Note_on_c, 1, 71, 127
2, 99640, Note_off_c, 1, 56, 0
2, 99640, Note_off_c, 1, 62, 0
2, 99640, Note_off_c, 1, 71, 0
2, 99680, Note_on_c, 1, 57, 127
2, 99680, Note_on_c, 1, 66, 127
2, 99680, Note_on_c, 1, 72, 127
2, 99920, Note_off_c, 1, 57, 0
2, 99920, Note_off_c, 1, 66, 0
2, 99920, Note_off_c, 1, 72, 0
2, 99960, Note_on_c, 1, 60, 127
2, 99960, Note_on_c, 1, 66, 127
2, 99960, Note_on_c, 1, 69, 127
2, 100200, Note_off_c, 1, 50, 0
2, 100200, Note_on_c, 1, 51, 127
2, 100200, Note_off_c, 1, 60, 0
2, 100200, Note_off_c, 1, 66, 0
2, 100200, Note_off_c, 1, 69, 0
2, 100240, Note_on_c, 1, 60, 127
2, 100240, Note_on_c, 1, 69, 127
2, 100240, Note_on_c, 1, 72, 127
2, 100440, Note_on_c, 1, 50, 127
2, 100440, Note_off_c, 1, 51, 0
2, 100440, Note_off_c, 1, 69, 0
2, 100440, Note_off_c, 1, 72, 0
2, 100480, Note_on_c, 1, 69, 127
2, 100480, Note_on_c, 1, 72, 127
2, 100720, Note_off_c, 1, 69, 0
2, 100720, Note_off_c, 1, 72, 0
2, 100760, Note_off_c, 1, 50, 0
2, 100760, Note_off_c, 1, 60, 0
2, 100800, Note_on_c, 1, 50, 127
2, 100800, Note_on_c, 1, 57, 127
2, 100800, Note_on_c, 1, 60, 127
2, 100800, Note_on_c, 1, 72, 127
2, 101000, Note_off_c, 1, 72, 0
2, 101040, Note_on_c, 1, 72, 127
2, 101280, Note_off_c, 1, 57, 0
2, 101280, Note_off_c, 1, 72, 0
2, 101320, Note_on_c, 1, 66, 127
2, 101320, Note_on_c, 1, 69, 127
2, 101560, Note_off_c, 1, 50, 0
2, 101560, Note_off_c, 1, 60, 0
2, 101560, Note_off_c, 1, 66, 0
2, 101560, Note_off_c, 1, 69, 0
2, 101600, Note_on_c, 1, 71, 127
2, 101840, Note_off_c, 1, 71, 0
2, 101880, Note_on_c, 1, 76, 127
2, 102080, Note_off_c, 1, 76, 0
2, 102120, Note_on_c, 1, 47, 127
2, 102120, Note_on_c, 1, 55, 127
2, 102120, Note_on_c, 1, 58, 127
2, 102120, Note_on_c, 1, 73, 127
2, 102160, Note_off_c, 1, 47, 0
2, 102160, Note_on_c, 1, 48, 127
2, 102160, Note_off_c, 1, 55, 0
2, 102160, Note_off_c, 1, 58, 0
2, 102160, Note_on_c, 1, 62, 127
2, 102160, Note_on_c, 1, 64, 127
2, 102160, Note_off_c, 1, 73, 0
2, 102240, Note_on_c, 1, 39, 127
2, 102240, Note_off_c, 1, 48, 0
2, 102240, Note_on_c, 1, 51, 127
2, 102240, Note_off_c, 1, 62, 0
2, 102240, Note_off_c, 1, 64, 0
2, 102240, Note_on_c, 1, 80, 127
2, 102240, Note_on_c, 1, 83, 127
2, 102280, Note_off_c, 1, 39, 0
2, 102280, Note_on_c, 1, 43, 127
2, 102280, Note_off_c, 1, 51, 0
2, 102280, Note_on_c, 1, 55, 127
2, 102280, Note_on_c, 1, 71, 127
2, 102280, Note_on_c, 1, 76, 127
2, 102280, Note_off_c, 1, 80, 0
2, 102280, Note_off_c, 1, 83, 0
2, 102320, Note_on_c, 1, 35, 127
2, 102320, Note_on_c, 1, 41, 127
2, 102320, Note_off_c, 1, 43, 0
2, 102320, Note_on_c, 1, 47, 127
2, 102320, Note_off_c, 1, 55, 0
2, 102320, Note_off_c, 1, 71, 0
2, 102320, Note_on_c, 1, 74, 127
2, 102320, Note_off_c, 1, 76, 0
2, 102320, Note_on_c, 1, 77, 127
2, 102360, Note_off_c, 1, 35, 0
2, 102360, Note_off_c, 1, 41, 0
2, 102360, Note_off_c, 1, 47, 0
2, 102360, Note_on_c, 1, 48, 127
2, 102360, Note_off_c, 1, 74, 0
2, 102360, Note_off_c, 1, 77, 0
2, 102400, Note_off_c, 1, 48, 0
2, 102400, Note_on_c, 1, 50, 127
2, 102400, Note_on_c, 1, 59, 127
2, 102400, Note_on_c, 1, 74, 127
2, 102640, Note_off_c, 1, 74, 0
2, 102680, Note_on_c, 1, 67, 127
2, 102680, Note_on_c, 1, 71, 127
2, 102840, Note_off_c, 1, 50, 0
2, 102840, Note_off_c, 1, 59, 0
2, 102840, Note_off_c, 1, 67, 0
2, 102840, Note_off_c, 1, 71, 0
2, 102880, Note_on_c, 1, 50, 127
2, 102880, Note_on_c, 1, 59, 127
2, 102920, Note_off_c, 1, 50, 0
2, 102920, Note_on_c, 1, 54, 127
2, 102920, Note_off_c, 1, 59, 0
2, 102920, Note_on_c, 1, 66, 127
2, 102960, Note_off_c, 1, 54, 0
2, 103000, Note_on_c, 1, 47, 127
2, 103000, Note_on_c, 1, 59, 127
2, 103000, Note_on_c, 1, 62, 127
2, 103000, Note_off_c, 1, 66, 0
2, 103000, Note_on_c, 1, 67, 127
2, 103000, Note_on_c, 1, 71, 127
2, 103480, Note_off_c, 1, 47, 0
2, 103480, Note_on_c, 1, 50, 127
2, 104040, Note_off_c, 1, 59, 0
2, 104040, Note_off_c, 1, 67, 0
2, 104040, Note_off_c, 1, 71, 0
2, 104080, Note_on_c, 1, 60, 127
2, 104080, Note_on_c, 1, 66, 127
2, 104080, Note_on_c, 1, 69, 127
2, 104600, Note_off_c, 1, 50, 0
2, 104600, Note_off_c, 1, 60, 0
2, 104600, Note_off_c, 1, 62, 0
2, 104600, Note_off_c, 1, 66, 0
2, 104600, Note_off_c, 1, 69, 0
2, 104640, Note_on_c, 1, 52, 127
2, 104640, Note_on_c, 1, 62, 127
2, 104640, Note_on_c, 1, 67, 127
2, 104880, Note_off_c, 1, 52, 0
2, 104880, Note_off_c, 1, 67, 0
2, 104880, Note_on_c, 1, 91, 127
2, 104920, Note_off_c, 1, 62, 0
2, 104920, Note_off_c, 1, 91, 0
2, 104960, Note_on_c, 1, 50, 127
2, 104960, Note_on_c, 1, 59, 127
2, 104960, Note_on_c, 1, 62, 127
2, 104960, Note_on_c, 1, 79, 127
2, 105320, Note_off_c, 1, 79, 0
2, 105360, Note_on_c, 1, 79, 127
2, 105440, Note_on_c, 1, 67, 127
2, 105440, Note_off_c, 1, 79, 0
2, 105480, Note_off_c, 1, 67, 0
2, 105480, Note_on_c, 1, 79, 127
2, 105600, Note_off_c, 1, 79, 0
2, 105640, Note_on_c, 1, 79, 127
2, 105720, Note_off_c, 1, 79, 0
2, 105760, Note_on_c, 1, 79, 127
2, 106120, Note_off_c, 1, 59, 0
2, 106120, Note_on_c, 1, 67, 127
2, 106120, Note_off_c, 1, 79, 0
2, 106160, Note_on_c, 1, 59, 127
2, 106160, Note_off_c, 1, 67, 0
2, 106160, Note_on_c, 1, 79, 127
2, 106280, Note_off_c, 1, 50, 0
2, 106280, Note_off_c, 1, 59, 0
2, 106280, Note_off_c, 1, 62, 0
2, 106280, Note_off_c, 1, 79, 0
2, 106320, Note_on_c, 1, 50, 127
2, 106320, Note_on_c, 1, 60, 127
2, 106320, Note_on_c, 1, 62, 127
2, 106320, Note_on_c, 1, 66, 127
2, 106320, Note_on_c, 1, 69, 127
2, 106920, Note_off_c, 1, 69, 0
2, 106960, Note_on_c, 1, 69, 127
2, 107120, Note_off_c, 1, 50, 0
2, 107120, Note_off_c, 1, 60, 0
2, 107120, Note_off_c, 1, 62, 0
2, 107120, Note_off_c, 1, 66, 0
2, 107120, Note_off_c, 1, 69, 0
2, 107160, Note_on_c, 1, 50, 127
2, 107160, Note_on_c, 1, 60, 127
2, 107160, Note_on_c, 1, 62, 127
2, 107160, Note_on_c, 1, 66, 127
2, 107160, Note_on_c, 1, 69, 127
2, 107400, Note_off_c, 1, 50, 0
2, 107400, Note_on_c, 1, 55, 127
2, 107400, Note_on_c, 1, 59, 127
2, 107400, Note_off_c, 1, 60, 0
2, 107400, Note_off_c, 1, 66, 0
2, 107400, Note_on_c, 1, 67, 127
2, 107400, Note_off_c, 1, 69, 0
2, 107440, Note_off_c, 1, 55, 0
2, 107440, Note_on_c, 1, 57, 127
2, 107440, Note_off_c, 1, 59, 0
2, 107440, Note_off_c, 1, 62, 0
2, 107440, Note_on_c, 1, 64, 127
2, 107440, Note_on_c, 1, 88, 127
2, 107440, Note_on_c, 1, 90, 127
2, 107480, Note_on_c, 1, 50, 127
2, 107480, Note_on_c, 1, 60, 127
2, 107480, Note_off_c, 1, 64, 0
2, 107480, Note_off_c, 1, 67, 0
2, 107480, Note_on_c, 1, 74, 127
2, 107480, Note_on_c, 1, 84, 127
2, 107480, Note_off_c, 1, 88, 0
2, 107480, Note_off_c, 1, 90, 0
2, 107520, Note_on_c, 1, 45, 127
2, 107520, Note_on_c, 1, 46, 127
2, 107520, Note_off_c, 1, 50, 0
2, 107520, Note_on_c, 1, 53, 127
2, 107520, Note_off_c, 1, 57, 0
2, 107520, Note_off_c, 1, 60, 0
2, 107520, Note_on_c, 1, 68, 127
2, 107520, Note_on_c, 1, 73, 127
2, 107520, Note_off_c, 1, 74, 0
2, 107520, Note_off_c, 1, 84, 0
2, 107560, Note_off_c, 1, 45, 0
2, 107560, Note_off_c, 1, 46, 0
2, 107560, Note_on_c, 1, 51, 127
2, 107560, Note_off_c, 1, 53, 0
2, 107560, Note_on_c, 1, 55, 127
2, 107560, Note_on_c, 1, 58, 127
2, 107560, Note_on_c, 1, 63, 127
2, 107560, Note_off_c, 1, 68, 0
2, 107560, Note_off_c, 1, 73, 0
2, 107560, Note_on_c, 1, 82, 127
2, 107600, Note_on_c, 1, 29, 127
2, 107600, Note_on_c, 1, 36, 127
2, 107600, Note_off_c, 1, 51, 0
2, 107600, Note_on_c, 1, 54, 127
2, 107600, Note_off_c, 1, 55, 0
2, 107600, Note_off_c, 1, 58, 0
2, 107600, Note_on_c, 1, 59, 127
2, 107600, Note_off_c, 1, 63, 0
2, 107600, Note_off_c, 1, 82, 0
2, 107640, Note_off_c, 1, 29, 0
2, 107640, Note_off_c, 1, 36, 0
2, 107640, Note_on_c, 1, 47, 127
2, 107640, Note_off_c, 1, 59, 0
2, 107640, Note_on_c, 1, 79, 127
2, 107680, Note_off_c, 1, 47, 0
2, 107680, Note_off_c, 1, 54, 0
2, 107680, Note_on_c, 1, 59, 127
2, 107680, Note_on_c, 1, 62, 127
2, 107680, Note_on_c, 1, 91, 127
2, 107720, Note_on_c, 1, 50, 127
2, 107720, Note_on_c, 1, 57, 127
2, 107720, Note_off_c, 1, 59, 0
2, 107720, Note_on_c, 1, 61, 127
2, 107720, Note_off_c, 1, 62, 0
2, 107720, Note_on_c, 1, 69, 127
2, 107720, Note_off_c, 1, 79, 0
2, 107720, Note_off_c, 1, 91, 0
2, 107760, Note_on_c, 1, 38, 127
2, 107760, Note_off_c, 1, 50, 0
2, 107760, Note_on_c, 1, 55, 127
2, 107760, Note_off_c, 1, 57, 0
2, 107760, Note_off_c, 1, 61, 0
2, 107760, Note_off_c, 1, 69, 0
2, 107760, Note_on_c, 1, 71, 127
2, 107760, Note_on_c, 1, 74, 127
2, 107800, Note_off_c, 1, 38, 0
2, 107800, Note_on_c, 1, 58, 127
2, 107800, Note_on_c, 1, 65, 127
2, 107800, Note_off_c, 1, 71, 0
2, 107800, Note_on_c, 1, 73, 127
2, 107800, Note_off_c, 1, 74, 0
2, 107840, Note_off_c, 1, 58, 0
2, 107840, Note_on_c, 1, 59, 127
2, 107840, Note_on_c, 1, 62, 127
2, 107840, Note_off_c, 1, 65, 0
2, 107840, Note_on_c, 1, 67, 127
2, 107840, Note_off_c, 1, 73, 0
2, 107840, Note_on_c, 1, 74, 127
2, 107840, Note_on_c, 1, 77, 127
2, 107920, Note_off_c, 1, 59, 0
2, 107920, Note_off_c, 1, 62, 0
2, 107920, Note_off_c, 1, 74, 0
2, 107920, Note_off_c, 1, 77, 0
2, 107960, Note_on_c, 1, 43, 127
2, 107960, Note_on_c, 1, 50, 127
2, 107960, Note_on_c, 1, 59, 127
2, 107960, Note_on_c, 1, 62, 127
2, 109120, Note_off_c, 1, 43, 0
2, 109120, Note_off_c, 1, 50, 0
2, 109120, Note_off_c, 1, 55, 0
2, 109120, Note_off_c, 1, 59, 0
2, 109120, Note_off_c, 1, 62, 0
2, 109120, Note_off_c, 1, 67, 0
2, 109160, Note_on_c, 1, 43, 127
2, 109160, Note_on_c, 1, 50, 127
2, 109160, Note_on_c, 1, 55, 127
2, 109160, Note_on_c, 1, 59, 127
2, 109160, Note_on_c, 1, 62, 127
2, 109160, Note_on_c, 1, 67, 127
2, 109600, Note_off_c, 1, 67, 0
2, 109640, Note_on_c, 1, 66, 127
2, 110160, Note_off_c, 1, 43, 0
2, 110160, Note_off_c, 1, 50, 0
2, 110160, Note_off_c, 1, 55, 0
2, 110160, Note_off_c, 1, 59, 0
2, 110160, Note_off_c, 1, 62, 0
2, 110160, Note_off_c, 1, 66, 0
2, 110200, Note_on_c, 1, 43, 127
2, 110200, Note_on_c, 1, 50, 127
2, 110200, Note_on_c, 1, 55, 127
2, 110200, Note_on_c, 1, 59, 127
2, 110200, Note_on_c, 1, 62, 127
2, 110200, Note_on_c, 1, 67, 127
2, 111040, Note_off_c, 1, 43, 0
2, 111040, Note_off_c, 1, 50, 0
2, 111040, Note_off_c, 1, 55, 0
2, 111040, Note_off_c, 1, 59, 0
2, 111040, Note_off_c, 1, 62, 0
2, 111040, Note_off_c, 1, 67, 0
2, 111080, Note_on_c, 1, 43, 127
2, 111080, Note_on_c, 1, 50, 127
2, 111080, Note_on_c, 1, 55, 127
2, 111080, Note_on_c, 1, 59, 127
2, 111080, Note_on_c, 1, 62, 127
2, 111080, Note_on_c, 1, 67, 127
2, 112400, Note_off_c, 1, 67, 0
2, 112440, Note_on_c, 1, 66, 127
2, 112960, Note_off_c, 1, 66, 0
2, 113000, Note_on_c, 1, 67, 127
2, 113240, Note_off_c, 1, 67, 0
2, 113280, Note_on_c, 1, 71, 127
2, 113400, Note_off_c, 1, 43, 0
2, 113400, Note_off_c, 1, 50, 0
2, 113400, Note_off_c, 1, 55, 0
2, 113400, Note_off_c, 1, 59, 0
2, 113400, Note_off_c, 1, 62, 0
2, 113400, Note_off_c, 1, 71, 0
2, 113440, Note_on_c, 1, 43, 127
2, 113440, Note_on_c, 1, 50, 127
2, 113440, Note_on_c, 1, 55, 127
2, 113440, Note_on_c, 1, 59, 127
2, 113440, Note_on_c, 1, 62, 127
2, 113440, Note_on_c, 1, 71, 127
2, 113560, Note_off_c, 1, 43, 0
2, 113560, Note_off_c, 1, 50, 0
2, 113560, Note_off_c, 1, 55, 0
2, 113560, Note_off_c, 1, 59, 0
2, 113560, Note_off_c, 1, 62, 0
2, 113560, Note_off_c, 1, 71, 0
2, 113640, Note_on_c, 1, 43, 127
2, 113640, Note_on_c, 1, 50, 127
2, 113640, Note_on_c, 1, 55, 127
2, 113640, Note_on_c, 1, 59, 127
2, 113640, Note_on_c, 1, 67, 127
2, 113640, Note_on_c, 1, 71, 127
2, 113880, Note_off_c, 1, 43, 0
2, 113880, Note_on_c, 1, 47, 127
2, 113880, Note_off_c, 1, 50, 0
2, 113880, Note_on_c, 1, 62, 127
2, 113880, Note_off_c, 1, 71, 0
2, 113880, Note_on_c, 1, 74, 127
2, 114000, Note_off_c, 1, 47, 0
2, 114000, Note_on_c, 1, 52, 127
2, 114000, Note_off_c, 1, 55, 0
2, 114000, Note_on_c, 1, 56, 127
2, 114000, Note_off_c, 1, 59, 0
2, 114000, Note_off_c, 1, 62, 0
2, 114000, Note_on_c, 1, 64, 127
2, 114000, Note_off_c, 1, 67, 0
2, 114000, Note_on_c, 1, 71, 127
2, 114000, Note_off_c, 1, 74, 0
2, 114000, Note_on_c, 1, 76, 127
2, 114040, Note_on_c, 1, 47, 127
2, 114040, Note_off_c, 1, 52, 0
2, 114040, Note_on_c, 1, 55, 127
2, 114040, Note_off_c, 1, 56, 0
2, 114040, Note_on_c, 1, 59, 127
2, 114040, Note_on_c, 1, 62, 127
2, 114040, Note_off_c, 1, 64, 0
2, 114040, Note_on_c, 1, 67, 127
2, 114040, Note_off_c, 1, 71, 0
2, 114040, Note_on_c, 1, 74, 127
2, 114040, Note_off_c, 1, 76, 0
2, 114160, Note_off_c, 1, 47, 0
2, 114160, Note_off_c, 1, 55, 0
2, 114160, Note_off_c, 1, 59, 0
2, 114160, Note_off_c, 1, 62, 0
2, 114160, Note_off_c, 1, 67, 0
2, 114160, Note_off_c, 1, 74, 0
2, 114200, Note_on_c, 1, 38, 127
2, 114200, Note_on_c, 1, 50, 127
2, 114200, Note_on_c, 1, 57, 127
2, 114200, Note_on_c, 1, 62, 127
2, 114200, Note_on_c, 1, 66, 127
2, 115280, Note_off_c, 1, 38, 0
2, 115280, Note_off_c, 1, 50, 0
2, 115280, Note_off_c, 1, 57, 0
2, 115280, Note_off_c, 1, 62, 0
2, 115280, Note_off_c, 1, 66, 0
2, 115320, Note_on_c, 1, 48, 127
2, 115320, Note_on_c, 1, 55, 127
2, 115320, Note_on_c, 1, 60, 127
2, 115320, Note_on_c, 1, 64, 127
2, 115320, Note_on_c, 1, 67, 127
2, 115320, Note_on_c, 1, 76, 127
2, 115440, Note_off_c, 1, 48, 0
2, 115440, Note_off_c, 1, 55, 0
2, 115440, Note_off_c, 1, 60, 0
2, 115440, Note_off_c, 1, 64, 0
2, 115440, Note_off_c, 1, 67, 0
2, 115440, Note_off_c, 1, 76, 0
2, 115480, Note_on_c, 1, 48, 127
2, 115480, Note_on_c, 1, 55, 127
2, 115480, Note_on_c, 1, 60, 127
2, 115480, Note_on_c, 1, 64, 127
2, 115480, Note_on_c, 1, 67, 127
2, 115480, Note_on_c, 1, 76, 127
2, 115880, Note_off_c, 1, 48, 0
2, 115880, Note_off_c, 1, 55, 0
2, 115880, Note_off_c, 1, 60, 0
2, 115880, Note_off_c, 1, 64, 0
2, 115880, Note_off_c, 1, 67, 0
2, 115880, Note_off_c, 1, 76, 0
2, 115920, Note_on_c, 1, 48, 127
2, 115920, Note_on_c, 1, 55, 127
2, 115920, Note_on_c, 1, 60, 127
2, 115920, Note_on_c, 1, 64, 127
2, 115920, Note_on_c, 1, 67, 127
2, 115920, Note_on_c, 1, 76, 127
2, 116440, Note_off_c, 1, 48, 0
2, 116440, Note_off_c, 1, 55, 0
2, 116440, Note_off_c, 1, 60, 0
2, 116440, Note_off_c, 1, 64, 0
2, 116440, Note_off_c, 1, 67, 0
2, 116440, Note_off_c, 1, 76, 0
2, 116480, Note_on_c, 1, 50, 127
2, 116480, Note_on_c, 1, 57, 127
2, 116480, Note_on_c, 1, 62, 127
2, 116480, Note_on_c, 1, 66, 127
2, 116480, Note_on_c, 1, 69, 127
2, 116480, Note_on_c, 1, 78, 127
2, 117000, Note_off_c, 1, 50, 0
2, 117000, Note_off_c, 1, 57, 0
2, 117000, Note_off_c, 1, 62, 0
2, 117000, Note_off_c, 1, 66, 0
2, 117000, Note_off_c, 1, 69, 0
2, 117000, Note_off_c, 1, 78, 0
2, 117040, Note_on_c, 1, 54, 127
2, 117040, Note_on_c, 1, 66, 127
2, 117040, Note_on_c, 1, 74, 127
2, 117040, Note_on_c, 1, 81, 127
2, 117280, Note_off_c, 1, 54, 0
2, 117280, Note_off_c, 1, 66, 0
2, 117280, Note_off_c, 1, 74, 0
2, 117280, Note_off_c, 1, 81, 0
2, 117320, Note_on_c, 1, 54, 127
2, 117320, Note_on_c, 1, 66, 127
2, 117320, Note_on_c, 1, 74, 127
2, 117320, Note_on_c, 1, 81, 127
2, 117480, Note_off_c, 1, 54, 0
2, 117480, Note_off_c, 1, 66, 0
2, 117480, Note_off_c, 1, 74, 0
2, 117480, Note_off_c, 1, 81, 0
2, 117520, Note_on_c, 1, 54, 127
2, 117520, Note_on_c, 1, 66, 127
2, 117520, Note_on_c, 1, 74, 127
2, 117520, Note_on_c, 1, 81, 127
2, 117560, Note_off_c, 1, 54, 0
2, 117560, Note_off_c, 1, 66, 0
2, 117560, Note_off_c, 1, 74, 0
2, 117560, Note_off_c, 1, 81, 0
2, 117600, Note_on_c, 1, 54, 127
2, 117600, Note_on_c, 1, 66, 127
2, 117600, Note_on_c, 1, 74, 127
2, 117600, Note_on_c, 1, 81, 127
2, 117840, Note_off_c, 1, 54, 0
2, 117840, Note_off_c, 1, 66, 0
2, 117840, Note_off_c, 1, 74, 0
2, 117840, Note_off_c, 1, 81, 0
2, 117880, Note_on_c, 1, 50, 127
2, 117880, Note_on_c, 1, 62, 127
2, 117880, Note_on_c, 1, 74, 127
2, 117880, Note_on_c, 1, 78, 127
2, 118280, Note_off_c, 1, 50, 0
2, 118280, Note_off_c, 1, 62, 0
2, 118280, Note_off_c, 1, 74, 0
2, 118280, Note_off_c, 1, 78, 0
2, 118320, Note_on_c, 1, 33, 127
2, 118320, Note_on_c, 1, 49, 127
2, 118320, Note_on_c, 1, 52, 127
2, 118320, Note_on_c, 1, 65, 127
2, 118320, Note_on_c, 1, 69, 127
2, 118360, Note_off_c, 1, 33, 0
2, 118360, Note_off_c, 1, 49, 0
2, 118360, Note_off_c, 1, 52, 0
2, 118360, Note_on_c, 1, 63, 127
2, 118360, Note_off_c, 1, 65, 0
2, 118360, Note_on_c, 1, 66, 127
2, 118360, Note_on_c, 1, 67, 127
2, 118360, Note_off_c, 1, 69, 0
2, 118360, Note_on_c, 1, 80, 127
2, 118400, Note_off_c, 1, 63, 0
2, 118400, Note_off_c, 1, 66, 0
2, 118400, Note_off_c, 1, 67, 0
2, 118400, Note_off_c, 1, 80, 0
2, 118440, Note_on_c, 1, 54, 127
2, 118440, Note_on_c, 1, 62, 127
2, 118440, Note_on_c, 1, 66, 127
2, 118440, Note_on_c, 1, 74, 127
2, 118440, Note_on_c, 1, 78, 127
2, 118680, Note_off_c, 1, 54, 0
2, 118680, Note_off_c, 1, 62, 0
2, 118680, Note_off_c, 1, 66, 0
2, 118680, Note_off_c, 1, 74, 0
2, 118680, Note_off_c, 1, 78, 0
2, 118720, Note_on_c, 1, 54, 127
2, 118720, Note_on_c, 1, 62, 127
2, 118720, Note_on_c, 1, 66, 127
2, 118720, Note_on_c, 1, 74, 127
2, 118720, Note_on_c, 1, 78, 127
2, 118960, Note_off_c, 1, 54, 0
2, 118960, Note_off_c, 1, 62, 0
2, 118960, Note_off_c, 1, 66, 0
2, 118960, Note_off_c, 1, 74, 0
2, 118960, Note_off_c, 1, 78, 0
2, 119000, Note_on_c, 1, 45, 127
2, 119000, Note_on_c, 1, 50, 127
2, 119000, Note_on_c, 1, 52, 127
2, 119000, Note_on_c, 1, 57, 127
2, 119000, Note_on_c, 1, 64, 127
2, 119000, Note_on_c, 1, 69, 127
2, 119000, Note_on_c, 1, 76, 127
2, 119240, Note_off_c, 1, 45, 0
2, 119240, Note_off_c, 1, 50, 0
2, 119240, Note_off_c, 1, 52, 0
2, 119240, Note_off_c, 1, 57, 0
2, 119240, Note_off_c, 1, 64, 0
2, 119240, Note_off_c, 1, 69, 0
2, 119240, Note_off_c, 1, 76, 0
2, 119280, Note_on_c, 1, 50, 127
2, 119280, Note_on_c, 1, 59, 127
2, 119280, Note_on_c, 1, 62, 127
2, 119280, Note_on_c, 1, 79, 127
2, 119520, Note_off_c, 1, 50, 0
2, 119520, Note_off_c, 1, 59, 0
2, 119520, Note_off_c, 1, 62, 0
2, 119520, Note_off_c, 1, 79, 0
2, 119600, Note_on_c, 1, 50, 127
2, 119600, Note_on_c, 1, 59, 127
2, 119600, Note_on_c, 1, 62, 127
2, 119600, Note_on_c, 1, 79, 127
2, 119840, Note_off_c, 1, 50, 0
2, 119840, Note_off_c, 1, 59, 0
2, 119840, Note_off_c, 1, 62, 0
2, 119840, Note_off_c, 1, 79, 0
2, 119880, Note_on_c, 1, 50, 127
2, 119880, Note_on_c, 1, 59, 127
2, 119880, Note_on_c, 1, 62, 127
2, 119880, Note_on_c, 1, 79, 127
2, 120000, Note_off_c, 1, 50, 0
2, 120000, Note_off_c, 1, 59, 0
2, 120000, Note_off_c, 1, 62, 0
2, 120000, Note_off_c, 1, 79, 0
2, 120040, End_track
3, 0, Start_track
3, 0, Title_t, "MIDI"
3, 1536, End_track
0, 0, End_of_file
