0, 0, Header, 1, 3, 192
1, 0, Start_track
1, 0, Time_signature, 4, 2, 24, 8
1, 0, Tempo, 500000
1, 120040, End_track
2, 0, Start_track
2, 0, Text_t, "random instrument: random person i dunno whatev"
2, 0, Title_t, "Track 1"
2, 0, Note_on_c, 1, 40, 127
2, 0, Note_on_c, 1, 48, 127
2, 0, Note_on_c, 1, 56, 127
2, 0, Note_on_c, 1, 60, 127
2, 120, Note_off_c, 1, 40, 0
2, 120, Note_off_c, 1, 48, 0
2, 120, Note_off_c, 1, 56, 0
2, 120, Note_off_c, 1, 60, 0
2, 160, Note_on_c, 1, 40, 127
2, 160, Note_on_c, 1, 48, 127
2, 160, Note_on_c, 1, 56, 127
2, 160, Note_on_c, 1, 60, 127
2, 200, Note_on_c, 1, 35, 127
2, 200, Note_on_c, 1, 39, 127
2, 200, Note_off_c, 1, 40, 0
2, 200, Note_on_c, 1, 47, 127
2, 200, Note_off_c, 1, 48, 0
2, 200, Note_on_c, 1, 50, 127
2, 200, Note_off_c, 1, 56, 0
2, 200, Note_off_c, 1, 60, 0
2, 240, Note_off_c, 1, 35, 0
2, 240, Note_off_c, 1, 39, 0
2, 240, Note_off_c, 1, 47, 0
2, 240, Note_off_c, 1, 50, 0
2, 240, Note_on_c, 1, 51, 127
2, 240, Note_on_c, 1, 55, 127
2, 240, Note_on_c, 1, 58, 127
2, 240, Note_on_c, 1, 63, 127
2, 240, Note_on_c, 1, 82, 127
2, 240, Note_on_c, 1, 91, 127
2, 280, Note_off_c, 1, 51, 0
2, 280, Note_off_c, 1, 55, 0
2, 280, Note_off_c, 1, 58, 0
2, 280, Note_off_c, 1, 63, 0
2, 280, Note_on_c, 1, 76, 127
2, 280, Note_on_c, 1, 80, 127
2, 280, Note_off_c, 1, 82, 0
2, 280, Note_on_c, 1, 83, 127
2, 280, Note_on_c, 1, 89, 127
2, 280, Note_off_c, 1, 91, 0
2, 320, Note_on_c, 1, 58, 127
2, 320, Note_on_c, 1, 63, 127
2, 320, Note_on_c, 1, 66, 127
2, 320, Note_on_c, 1, 72, 127
2, 320, Note_on_c, 1, 75, 127
2, 320, Note_off_c, 1, 76, 0
2, 320, Note_off_c, 1, 80, 0
2, 320, Note_on_c, 1, 82, 127
2, 320, Note_off_c, 1, 83, 0
2, 320, Note_on_c, 1, 87, 127
2, 320, Note_off_c, 1, 89, 0
2, 360, Note_on_c, 1, 51, 127
2, 360, Note_on_c, 1, 55, 127
2, 360, Note_off_c, 1, 66, 0
2, 360, Note_off_c, 1, 72, 0
2, 360, Note_off_c, 1, 75, 0
2, 360, Note_off_c, 1, 87, 0
2, 360, Note_on_c, 1, 91, 127
2, 400, Note_off_c, 1, 51, 0
2, 400, Note_off_c, 1, 55, 0
2, 400, Note_off_c, 1, 58, 0
2, 400, Note_off_c, 1, 63, 0
2, 400, Note_off_c, 1, 82, 0
2, 400, Note_off_c, 1, 91, 0
2, 400, Note_on_c, 1, 95, 127
2, 440, Note_off_c, 1, 95, 0
2, 440, Note_on_c, 1, 98, 127
2, 600, Note_off_c, 1, 98, 0
2, 600, Note_on_c, 1, 100, 127
2, 640, Note_on_c, 1, 98, 127
2, 640, Note_off_c, 1, 100, 0
2, 680, Note_off_c, 1, 98, 0
2, 5240, Note_on_c, 1, 43, 127
2, 5240, Note_on_c, 1, 50, 127
2, 5240, Note_on_c, 1, 60, 127
2, 5240, Note_on_c, 1, 62, 127
2, 5240, Note_on_c, 1, 69, 127
2, 5480, Note_off_c, 1, 43, 0
2, 5480, Note_off_c, 1, 50, 0
2, 5480, Note_off_c, 1, 60, 0
2, 5480, Note_off_c, 1, 62, 0
2, 5480, Note_off_c, 1, 69, 0
2, 13400, Note_on_c, 1, 37, 127
2, 13400, Note_on_c, 1, 49, 127
2, 14040, Note_off_c, 1, 37, 0
2, 14040, Note_off_c, 1, 49, 0
2, 18240, Note_on_c, 1, 40, 127
2, 18240, Note_on_c, 1, 52, 127
2, 18240, Note_on_c, 1, 64, 127
2, 19000, Note_off_c, 1, 40, 0
2, 19000, Note_off_c, 1, 52, 0
2, 19000, Note_off_c, 1, 64, 0
2, 19040, Note_on_c, 1, 37, 127
2, 19040, Note_on_c, 1, 49, 127
2, 19040, Note_on_c, 1, 61, 127
2, 19800, Note_off_c, 1, 37, 0
2, 19800, Note_off_c, 1, 49, 0
2, 19800, Note_off_c, 1, 61, 0
2, 19840, Note_on_c, 1, 33, 127
2, 19840, Note_on_c, 1, 45, 127
2, 19840, Note_on_c, 1, 57, 127
2, 20960, Note_off_c, 1, 33, 0
2, 20960, Note_off_c, 1, 45, 0
2, 20960, Note_off_c, 1, 57, 0
2, 21040, Note_on_c, 1, 33, 127
2, 21040, Note_on_c, 1, 45, 127
2, 21040, Note_on_c, 1, 57, 127
2, 23560, Note_off_c, 1, 33, 0
2, 23560, Note_off_c, 1, 45, 0
2, 23560, Note_off_c, 1, 57, 0
2, 23600, Note_on_c, 1, 33, 127
2, 23600, Note_on_c, 1, 45, 127
2, 23600, Note_on_c, 1, 57, 127
2, 25800, Note_off_c, 1, 33, 0
2, 25800, Note_off_c, 1, 45, 0
2, 25800, Note_off_c, 1, 57, 0
2, 30640, Note_on_c, 1, 43, 127
2, 31480, Note_off_c, 1, 43, 0
2, 34840, Note_on_c, 1, 45, 127
2, 34840, Note_on_c, 1, 57, 127
2, 34840, Note_on_c, 1, 73, 127
2, 34840, Note_on_c, 1, 79, 127
2, 35880, Note_off_c, 1, 45, 0
2, 35880, Note_off_c, 1, 57, 0
2, 35880, Note_off_c, 1, 73, 0
2, 35880, Note_off_c, 1, 79, 0
2, 36040, Note_on_c, 1, 45, 127
2, 36240, Note_off_c, 1, 45, 0
2, 36600, Note_on_c, 1, 41, 127
2, 36600, Note_on_c, 1, 45, 127
2, 36800, Note_off_c, 1, 41, 0
2, 36800, Note_on_c, 1, 49, 127
2, 36840, Note_off_c, 1, 45, 0
2, 36840, Note_off_c, 1, 49, 0
2, 47680, Note_on_c, 1, 47, 127
2, 47680, Note_on_c, 1, 57, 127
2, 47680, Note_on_c, 1, 62, 127
2, 47680, Note_on_c, 1, 68, 127
2, 47680, Note_on_c, 1, 71, 127
2, 47800, Note_off_c, 1, 47, 0
2, 47800, Note_on_c, 1, 55, 127
2, 47800, Note_off_c, 1, 57, 0
2, 47800, Note_on_c, 1, 61, 127
2, 47800, Note_off_c, 1, 62, 0
2, 47800, Note_off_c, 1, 68, 0
2, 47800, Note_on_c, 1, 70, 127
2, 47800, Note_off_c, 1, 71, 0
2, 47800, Note_on_c, 1, 79, 127
2, 47800, Note_on_c, 1, 82, 127
2, 47840, Note_on_c, 1, 47, 127
2, 47840, Note_off_c, 1, 55, 0
2, 47840, Note_on_c, 1, 57, 127
2, 47840, Note_off_c, 1, 61, 0
2, 47840, Note_on_c, 1, 62, 127
2, 47840, Note_on_c, 1, 68, 127
2, 47840, Note_off_c, 1, 70, 0
2, 47840, Note_on_c, 1, 71, 127
2, 47840, Note_off_c, 1, 79, 0
2, 47840, Note_off_c, 1, 82, 0
2, 47880, Note_off_c, 1, 47, 0
2, 47880, Note_off_c, 1, 57, 0
2, 47880, Note_off_c, 1, 62, 0
2, 47880, Note_off_c, 1, 68, 0
2, 47880, Note_off_c, 1, 71, 0
2, 47960, Note_on_c, 1, 52, 127
2, 47960, Note_on_c, 1, 59, 127
2, 47960, Note_on_c, 1, 67, 127
2, 47960, Note_on_c, 1, 71, 127
2, 47960, Note_on_c, 1, 76, 127
2, 47960, Note_on_c, 1, 79, 127
2, 48200, Note_off_c, 1, 52, 0
2, 48200, Note_off_c, 1, 59, 0
2, 48200, Note_off_c, 1, 67, 0
2, 48200, Note_off_c, 1, 71, 0
2, 48200, Note_off_c, 1, 76, 0
2, 48200, Note_off_c, 1, 79, 0
2, 48240, Note_on_c, 1, 52, 127
2, 48240, Note_on_c, 1, 64, 127
2, 48240, Note_on_c, 1, 67, 127
2, 48240, Note_on_c, 1, 79, 127
2, 48480, Note_off_c, 1, 52, 0
2, 48480, Note_off_c, 1, 64, 0
2, 48480, Note_off_c, 1, 67, 0
2, 48480, Note_off_c, 1, 79, 0
2, 48520, Note_on_c, 1, 52, 127
2, 48520, Note_on_c, 1, 64, 127
2, 48520, Note_on_c, 1, 67, 127
2, 48520, Note_on_c, 1, 79, 127
2, 48760, Note_off_c, 1, 52, 0
2, 48760, Note_off_c, 1, 64, 0
2, 48760, Note_off_c, 1, 67, 0
2, 48760, Note_off_c, 1, 79, 0
2, 48800, Note_on_c, 1, 52, 127
2, 48800, Note_on_c, 1, 64, 127
2, 48800, Note_on_c, 1, 67, 127
2, 48800, Note_on_c, 1, 79, 127
2, 49040, Note_off_c, 1, 52, 0
2, 49040, Note_off_c, 1, 64, 0
2, 49040, Note_off_c, 1, 67, 0
2, 49040, Note_off_c, 1, 79, 0
2, 49080, Note_on_c, 1, 52, 127
2, 49080, Note_on_c, 1, 64, 127
2, 49080, Note_on_c, 1, 67, 127
2, 49080, Note_on_c, 1, 79, 127
2, 49320, Note_off_c, 1, 52, 0
2, 49320, Note_off_c, 1, 64, 0
2, 49320, Note_off_c, 1, 67, 0
2, 49320, Note_off_c, 1, 79, 0
2, 49360, Note_on_c, 1, 52, 127
2, 49360, Note_on_c, 1, 64, 127
2, 49360, Note_on_c, 1, 67, 127
2, 49360, Note_on_c, 1, 79, 127
2, 49600, Note_off_c, 1, 52, 0
2, 49600, Note_off_c, 1, 64, 0
2, 49600, Note_off_c, 1, 67, 0
2, 49600, Note_off_c, 1, 79, 0
2, 49640, Note_on_c, 1, 52, 127
2, 49640, Note_on_c, 1, 64, 127
2, 49640, Note_on_c, 1, 67, 127
2, 49640, Note_on_c, 1, 79, 127
2, 49880, Note_off_c, 1, 52, 0
2, 49880, Note_off_c, 1, 64, 0
2, 49880, Note_off_c, 1, 67, 0
2, 49880, Note_off_c, 1, 79, 0
2, 49960, Note_on_c, 1, 52, 127
2, 49960, Note_on_c, 1, 64, 127
2, 49960, Note_on_c, 1, 67, 127
2, 49960, Note_on_c, 1, 79, 127
2, 50200, Note_off_c, 1, 52, 0
2, 50200, Note_off_c, 1, 64, 0
2, 50200, Note_off_c, 1, 67, 0
2, 50200, Note_off_c, 1, 79, 0
2, 50240, Note_on_c, 1, 52, 127
2, 50240, Note_on_c, 1, 64, 127
2, 50240, Note_on_c, 1, 67, 127
2, 50240, Note_on_c, 1, 79, 127
2, 50480, Note_off_c, 1, 52, 0
2, 50480, Note_off_c, 1, 64, 0
2, 50480, Note_off_c, 1, 67, 0
2, 50480, Note_off_c, 1, 79, 0
2, 50520, Note_on_c, 1, 52, 127
2, 50520, Note_on_c, 1, 64, 127
2, 50520, Note_on_c, 1, 67, 127
2, 50520, Note_on_c, 1, 79, 127
2, 50760, Note_off_c, 1, 52, 0
2, 50760, Note_off_c, 1, 64, 0
2, 50760, Note_off_c, 1, 67, 0
2, 50760, Note_off_c, 1, 79, 0
2, 50800, Note_on_c, 1, 52, 127
2, 50800, Note_on_c, 1, 64, 127
2, 50800, Note_on_c, 1, 67, 127
2, 50800, Note_on_c, 1, 79, 127
2, 51040, Note_off_c, 1, 52, 0
2, 51040, Note_off_c, 1, 64, 0
2, 51040, Note_off_c, 1, 67, 0
2, 51040, Note_off_c, 1, 79, 0
2, 51080, Note_on_c, 1, 52, 127
2, 51080, Note_on_c, 1, 64, 127
2, 51080, Note_on_c, 1, 67, 127
2, 51080, Note_on_c, 1, 79, 127
2, 51320, Note_off_c, 1, 52, 0
2, 51320, Note_off_c, 1, 64, 0
2, 51320, Note_off_c, 1, 67, 0
2, 51320, Note_off_c, 1, 79, 0
2, 51360, Note_on_c, 1, 50, 127
2, 51360, Note_on_c, 1, 62, 127
2, 51360, Note_on_c, 1, 66, 127
2, 51360, Note_on_c, 1, 78, 127
2, 51600, Note_off_c, 1, 50, 0
2, 51600, Note_off_c, 1, 62, 0
2, 51600, Note_off_c, 1, 66, 0
2, 51600, Note_off_c, 1, 78, 0
2, 51640, Note_on_c, 1, 52, 127
2, 51640, Note_on_c, 1, 64, 127
2, 51640, Note_on_c, 1, 67, 127
2, 51640, Note_on_c, 1, 79, 127
2, 51880, Note_off_c, 1, 52, 0
2, 51880, Note_off_c, 1, 64, 0
2, 51880, Note_off_c, 1, 67, 0
2, 51880, Note_off_c, 1, 79, 0
2, 51920, Note_on_c, 1, 52, 127
2, 51920, Note_on_c, 1, 64, 127
2, 51920, Note_on_c, 1, 67, 127
2, 51920, Note_on_c, 1, 79, 127
2, 52080, Note_off_c, 1, 52, 0
2, 52080, Note_off_c, 1, 64, 0
2, 52080, Note_off_c, 1, 67, 0
2, 52080, Note_off_c, 1, 79, 0
2, 52120, Note_on_c, 1, 52, 127
2, 52120, Note_on_c, 1, 64, 127
2, 52120, Note_on_c, 1, 67, 127
2, 52120, Note_on_c, 1, 79, 127
2, 52200, Note_off_c, 1, 52, 0
2, 52200, Note_off_c, 1, 64, 0
2, 52200, Note_off_c, 1, 67, 0
2, 52200, Note_off_c, 1, 79, 0
2, 52240, Note_on_c, 1, 52, 127
2, 52240, Note_on_c, 1, 64, 127
2, 52240, Note_on_c, 1, 67, 127
2, 52240, Note_on_c, 1, 79, 127
2, 52480, Note_off_c, 1, 52, 0
2, 52480, Note_off_c, 1, 64, 0
2, 52480, Note_off_c, 1, 67, 0
2, 52480, Note_off_c, 1, 79, 0
2, 52520, Note_on_c, 1, 52, 127
2, 52520, Note_on_c, 1, 64, 127
2, 52520, Note_on_c, 1, 67, 127
2, 52520, Note_on_c, 1, 79, 127
2, 52760, Note_off_c, 1, 52, 0
2, 52760, Note_off_c, 1, 64, 0
2, 52760, Note_off_c, 1, 67, 0
2, 52760, Note_off_c, 1, 79, 0
2, 52800, Note_on_c, 1, 52, 127
2, 52800, Note_on_c, 1, 64, 127
2, 52800, Note_on_c, 1, 67, 127
2, 52800, Note_on_c, 1, 79, 127
2, 53040, Note_off_c, 1, 52, 0
2, 53040, Note_off_c, 1, 64, 0
2, 53040, Note_off_c, 1, 67, 0
2, 53040, Note_off_c, 1, 79, 0
2, 53080, Note_on_c, 1, 52, 127
2, 53080, Note_on_c, 1, 64, 127
2, 53080, Note_on_c, 1, 67, 127
2, 53080, Note_on_c, 1, 79, 127
2, 53320, Note_off_c, 1, 52, 0
2, 53320, Note_off_c, 1, 64, 0
2, 53320, Note_off_c, 1, 67, 0
2, 53320, Note_off_c, 1, 79, 0
2, 53360, Note_on_c, 1, 52, 127
2, 53360, Note_on_c, 1, 64, 127
2, 53360, Note_on_c, 1, 67, 127
2, 53360, Note_on_c, 1, 79, 127
2, 53600, Note_off_c, 1, 52, 0
2, 53600, Note_off_c, 1, 64, 0
2, 53600, Note_off_c, 1, 67, 0
2, 53600, Note_off_c, 1, 79, 0
2, 53640, Note_on_c, 1, 52, 127
2, 53640, Note_on_c, 1, 64, 127
2, 53640, Note_on_c, 1, 67, 127
2, 53640, Note_on_c, 1, 79, 127
2, 53880, Note_off_c, 1, 52, 0
2, 53880, Note_off_c, 1, 64, 0
2, 53880, Note_off_c, 1, 67, 0
2, 53880, Note_off_c, 1, 79, 0
2, 53920, Note_on_c, 1, 52, 127
2, 53920, Note_on_c, 1, 64, 127
2, 53920, Note_on_c, 1, 67, 127
2, 53920, Note_on_c, 1, 79, 127
2, 54120, Note_off_c, 1, 52, 0
2, 54120, Note_off_c, 1, 64, 0
2, 54120, Note_off_c, 1, 67, 0
2, 54120, Note_off_c, 1, 79, 0
2, 54160, Note_on_c, 1, 52, 127
2, 54160, Note_on_c, 1, 64, 127
2, 54160, Note_on_c, 1, 67, 127
2, 54160, Note_on_c, 1, 79, 127
2, 54200, Note_off_c, 1, 52, 0
2, 54200, Note_off_c, 1, 64, 0
2, 54200, Note_off_c, 1, 67, 0
2, 54200, Note_off_c, 1, 79, 0
2, 54240, Note_on_c, 1, 47, 127
2, 54240, Note_on_c, 1, 59, 127
2, 54240, Note_on_c, 1, 67, 127
2, 54240, Note_on_c, 1, 79, 127
2, 54480, Note_off_c, 1, 47, 0
2, 54480, Note_off_c, 1, 59, 0
2, 54480, Note_off_c, 1, 67, 0
2, 54480, Note_off_c, 1, 79, 0
2, 54520, Note_on_c, 1, 47, 127
2, 54520, Note_on_c, 1, 59, 127
2, 54520, Note_on_c, 1, 67, 127
2, 54520, Note_on_c, 1, 79, 127
2, 54760, Note_off_c, 1, 47, 0
2, 54760, Note_off_c, 1, 59, 0
2, 54760, Note_off_c, 1, 67, 0
2, 54760, Note_off_c, 1, 79, 0
2, 54800, Note_on_c, 1, 48, 127
2, 54800, Note_on_c, 1, 57, 127
2, 54800, Note_on_c, 1, 66, 127
2, 54800, Note_on_c, 1, 78, 127
2, 55040, Note_off_c, 1, 48, 0
2, 55040, Note_off_c, 1, 57, 0
2, 55040, Note_off_c, 1, 66, 0
2, 55040, Note_off_c, 1, 78, 0
2, 55080, Note_on_c, 1, 49, 127
2, 55080, Note_on_c, 1, 55, 127
2, 55080, Note_on_c, 1, 64, 127
2, 55080, Note_on_c, 1, 76, 127
2, 55320, Note_off_c, 1, 49, 0
2, 55320, Note_off_c, 1, 55, 0
2, 55320, Note_off_c, 1, 64, 0
2, 55320, Note_off_c, 1, 76, 0
2, 55360, Note_on_c, 1, 50, 127
2, 55360, Note_on_c, 1, 54, 127
2, 55360, Note_on_c, 1, 62, 127
2, 55360, Note_on_c, 1, 74, 127
2, 55600, Note_off_c, 1, 54, 0
2, 55600, Note_off_c, 1, 62, 0
2, 55600, Note_off_c, 1, 74, 0
2, 55640, Note_on_c, 1, 57, 127
2, 55640, Note_on_c, 1, 64, 127
2, 55640, Note_on_c, 1, 76, 127
2, 55840, Note_off_c, 1, 50, 0
2, 55840, Note_off_c, 1, 57, 0
2, 55840, Note_off_c, 1, 64, 0
2, 55840, Note_off_c, 1, 76, 0
2, 55880, Note_on_c, 1, 50, 127
2, 55880, Note_on_c, 1, 61, 127
2, 55880, Note_on_c, 1, 64, 127
2, 56160, Note_off_c, 1, 50, 0
2, 56160, Note_off_c, 1, 61, 0
2, 56160, Note_off_c, 1, 64, 0
2, 56200, Note_on_c, 1, 50, 127
2, 56200, Note_on_c, 1, 61, 127
2, 56200, Note_on_c, 1, 64, 127
2, 56440, Note_off_c, 1, 50, 0
2, 56440, Note_off_c, 1, 61, 0
2, 56440, Note_off_c, 1, 64, 0
2, 56480, Note_on_c, 1, 38, 127
2, 58160, Note_off_c, 1, 38, 0
2, 58200, Note_on_c, 1, 38, 127
2, 60080, Note_off_c, 1, 38, 0
2, 60120, Note_on_c, 1, 38, 127
2, 60320, Note_off_c, 1, 38, 0
2, 60360, Note_on_c, 1, 38, 127
2, 60400, Note_off_c, 1, 38, 0
2, 60440, Note_on_c, 1, 50, 127
2, 60680, Note_off_c, 1, 50, 0
2, 60720, Note_on_c, 1, 57, 127
2, 60960, Note_off_c, 1, 57, 0
2, 61000, Note_on_c, 1, 50, 127
2, 61240, Note_off_c, 1, 50, 0
2, 61280, Note_on_c, 1, 50, 127
2, 61520, Note_off_c, 1, 50, 0
2, 61560, Note_on_c, 1, 55, 127
2, 61800, Note_off_c, 1, 55, 0
2, 61840, Note_on_c, 1, 50, 127
2, 62080, Note_off_c, 1, 50, 0
2, 62120, Note_on_c, 1, 50, 127
2, 62360, Note_off_c, 1, 50, 0
2, 62440, Note_on_c, 1, 50, 127
2, 62680, Note_off_c, 1, 50, 0
2, 62720, Note_on_c, 1, 42, 127
2, 62920, Note_off_c, 1, 42, 0
2, 62960, Note_on_c, 1, 38, 127
2, 64520, Note_off_c, 1, 38, 0
2, 64600, Note_on_c, 1, 38, 127
2, 67040, Note_off_c, 1, 38, 0
2, 67120, Note_on_c, 1, 38, 127
2, 67560, Note_off_c, 1, 38, 0
2, 67600, Note_on_c, 1, 38, 127
2, 69360, Note_off_c, 1, 38, 0
2, 69400, Note_on_c, 1, 38, 127
2, 69880, Note_off_c, 1, 38, 0
2, 74720, Note_on_c, 1, 55, 127
2, 74720, Note_on_c, 1, 58, 127
2, 74720, Note_on_c, 1, 62, 127
2, 74720, Note_on_c, 1, 67, 127
2, 74720, Note_on_c, 1, 70, 127
2, 74960, Note_off_c, 1, 55, 0
2, 74960, Note_off_c, 1, 58, 0
2, 74960, Note_off_c, 1, 62, 0
2, 74960, Note_off_c, 1, 67, 0
2, 74960, Note_off_c, 1, 70, 0
2, 75000, Note_on_c, 1, 43, 127
2, 75000, Note_on_c, 1, 58, 127
2, 75000, Note_on_c, 1, 67, 127
2, 75280, Note_off_c, 1, 43, 0
2, 75320, Note_on_c, 1, 70, 127
2, 75560, Note_off_c, 1, 58, 0
2, 75560, Note_off_c, 1, 67, 0
2, 75560, Note_off_c, 1, 70, 0
2, 75640, Note_on_c, 1, 50, 127
2, 75640, Note_on_c, 1, 62, 127
2, 75640, Note_on_c, 1, 67, 127
2, 75640, Note_on_c, 1, 70, 127
2, 75880, Note_off_c, 1, 50, 0
2, 75880, Note_off_c, 1, 62, 0
2, 75880, Note_off_c, 1, 67, 0
2, 75880, Note_off_c, 1, 70, 0
2, 75920, Note_on_c, 1, 43, 127
2, 75920, Note_on_c, 1, 60, 127
2, 75920, Note_on_c, 1, 69, 127
2, 76120, Note_off_c, 1, 43, 0
2, 76120, Note_off_c, 1, 60, 0
2, 76120, Note_off_c, 1, 69, 0
2, 76160, Note_on_c, 1, 43, 127
2, 76160, Note_on_c, 1, 60, 127
2, 76160, Note_on_c, 1, 69, 127
2, 76320, Note_off_c, 1, 43, 0
2, 76360, Note_on_c, 1, 38, 127
2, 76400, Note_off_c, 1, 38, 0
2, 76400, Note_off_c, 1, 60, 0
2, 76400, Note_off_c, 1, 69, 0
2, 76440, Note_on_c, 1, 43, 127
2, 76440, Note_on_c, 1, 50, 127
2, 76440, Note_on_c, 1, 57, 127
2, 76440, Note_on_c, 1, 62, 127
2, 76480, Note_off_c, 1, 57, 0
2, 76480, Note_on_c, 1, 59, 127
2, 76480, Note_off_c, 1, 62, 0
2, 76680, Note_off_c, 1, 43, 0
2, 76680, Note_off_c, 1, 50, 0
2, 76680, Note_off_c, 1, 59, 0
2, 76720, Note_on_c, 1, 43, 127
2, 76720, Note_on_c, 1, 50, 127
2, 76720, Note_on_c, 1, 57, 127
2, 76720, Note_on_c, 1, 62, 127
2, 76760, Note_off_c, 1, 57, 0
2, 76760, Note_on_c, 1, 59, 127
2, 76760, Note_off_c, 1, 62, 0
2, 76920, Note_off_c, 1, 43, 0
2, 76920, Note_off_c, 1, 50, 0
2, 76920, Note_off_c, 1, 59, 0
2, 76960, Note_on_c, 1, 31, 127
2, 76960, Note_on_c, 1, 43, 127
2, 76960, Note_on_c, 1, 55, 127
2, 76960, Note_on_c, 1, 59, 127
2, 76960, Note_on_c, 1, 62, 127
2, 77200, Note_off_c, 1, 31, 0
2, 77200, Note_off_c, 1, 43, 0
2, 77200, Note_off_c, 1, 55, 0
2, 77200, Note_off_c, 1, 59, 0
2, 77200, Note_off_c, 1, 62, 0
2, 77240, Note_on_c, 1, 38, 127
2, 77240, Note_on_c, 1, 50, 127
2, 77240, Note_on_c, 1, 54, 127
2, 77240, Note_on_c, 1, 57, 127
2, 77240, Note_on_c, 1, 62, 127
2, 77440, Note_off_c, 1, 38, 0
2, 77440, Note_off_c, 1, 50, 0
2, 77440, Note_off_c, 1, 54, 0
2, 77440, Note_off_c, 1, 57, 0
2, 77440, Note_off_c, 1, 62, 0
2, 77480, Note_on_c, 1, 38, 127
2, 77480, Note_on_c, 1, 50, 127
2, 77480, Note_on_c, 1, 54, 127
2, 77480, Note_on_c, 1, 57, 127
2, 77480, Note_on_c, 1, 62, 127
2, 77760, Note_off_c, 1, 38, 0
2, 77760, Note_off_c, 1, 50, 0
2, 77760, Note_off_c, 1, 54, 0
2, 77760, Note_off_c, 1, 57, 0
2, 77760, Note_off_c, 1, 62, 0
2, 77800, Note_on_c, 1, 43, 127
2, 77800, Note_on_c, 1, 50, 127
2, 77800, Note_on_c, 1, 55, 127
2, 77800, Note_on_c, 1, 62, 127
2, 78000, Note_off_c, 1, 43, 0
2, 78000, Note_off_c, 1, 50, 0
2, 78000, Note_off_c, 1, 55, 0
2, 78000, Note_off_c, 1, 62, 0
2, 78040, Note_on_c, 1, 43, 127
2, 78040, Note_on_c, 1, 50, 127
2, 78040, Note_on_c, 1, 55, 127
2, 78040, Note_on_c, 1, 62, 127
2, 78240, Note_off_c, 1, 55, 0
2, 78280, Note_off_c, 1, 43, 0
2, 78280, Note_off_c, 1, 50, 0
2, 78280, Note_off_c, 1, 62, 0
2, 78320, Note_on_c, 1, 43, 127
2, 78320, Note_on_c, 1, 55, 127
2, 78320, Note_on_c, 1, 59, 127
2, 78320, Note_on_c, 1, 62, 127
2, 78320, Note_on_c, 1, 67, 127
2, 79320, Note_off_c, 1, 43, 0
2, 79320, Note_off_c, 1, 55, 0
2, 79320, Note_off_c, 1, 59, 0
2, 79320, Note_off_c, 1, 62, 0
2, 79320, Note_off_c, 1, 67, 0
2, 79400, Note_on_c, 1, 41, 127
2, 79400, Note_on_c, 1, 53, 127
2, 79400, Note_on_c, 1, 72, 127
2, 79400, Note_on_c, 1, 77, 127
2, 79400, Note_on_c, 1, 80, 127
2, 79400, Note_on_c, 1, 84, 127
2, 79640, Note_off_c, 1, 41, 0
2, 79640, Note_off_c, 1, 53, 0
2, 79640, Note_off_c, 1, 72, 0
2, 79640, Note_off_c, 1, 77, 0
2, 79640, Note_off_c, 1, 80, 0
2, 79640, Note_off_c, 1, 84, 0
2, 79680, Note_on_c, 1, 41, 127
2, 79680, Note_on_c, 1, 53, 127
2, 79680, Note_on_c, 1, 72, 127
2, 79680, Note_on_c, 1, 77, 127
2, 79680, Note_on_c, 1, 80, 127
2, 79680, Note_on_c, 1, 84, 127
2, 79880, Note_off_c, 1, 41, 0
2, 79880, Note_off_c, 1, 53, 0
2, 79880, Note_off_c, 1, 72, 0
2, 79880, Note_off_c, 1, 77, 0
2, 79880, Note_off_c, 1, 80, 0
2, 79880, Note_off_c, 1, 84, 0
2, 79920, Note_on_c, 1, 36, 127
2, 79920, Note_on_c, 1, 48, 127
2, 79920, Note_on_c, 1, 72, 127
2, 79920, Note_on_c, 1, 76, 127
2, 79920, Note_on_c, 1, 79, 127
2, 79920, Note_on_c, 1, 84, 127
2, 80440, Note_off_c, 1, 36, 0
2, 80440, Note_off_c, 1, 48, 0
2, 80440, Note_off_c, 1, 72, 0
2, 80440, Note_off_c, 1, 76, 0
2, 80440, Note_off_c, 1, 79, 0
2, 80440, Note_off_c, 1, 84, 0
2, 80480, Note_on_c, 1, 37, 127
2, 80480, Note_on_c, 1, 49, 127
2, 80480, Note_on_c, 1, 63, 127
2, 80480, Note_on_c, 1, 67, 127
2, 80480, Note_on_c, 1, 70, 127
2, 80960, Note_off_c, 1, 37, 0
2, 80960, Note_off_c, 1, 49, 0
2, 80960, Note_off_c, 1, 63, 0
2, 80960, Note_off_c, 1, 67, 0
2, 80960, Note_off_c, 1, 70, 0
2, 81000, Note_on_c, 1, 37, 127
2, 81000, Note_on_c, 1, 49, 127
2, 81000, Note_on_c, 1, 63, 127
2, 81000, Note_on_c, 1, 67, 127
2, 81000, Note_on_c, 1, 70, 127
2, 81320, Note_off_c, 1, 37, 0
2, 81320, Note_off_c, 1, 49, 0
2, 81320, Note_off_c, 1, 63, 0
2, 81320, Note_off_c, 1, 67, 0
2, 81320, Note_off_c, 1, 70, 0
2, 81360, Note_on_c, 1, 37, 127
2, 81360, Note_on_c, 1, 49, 127
2, 81360, Note_on_c, 1, 63, 127
2, 81360, Note_on_c, 1, 67, 127
2, 81360, Note_on_c, 1, 70, 127
2, 81480, Note_off_c, 1, 37, 0
2, 81480, Note_off_c, 1, 49, 0
2, 81480, Note_off_c, 1, 63, 0
2, 81480, Note_off_c, 1, 67, 0
2, 81480, Note_off_c, 1, 70, 0
2, 81520, Note_on_c, 1, 37, 127
2, 81520, Note_on_c, 1, 49, 127
2, 81520, Note_on_c, 1, 63, 127
2, 81520, Note_on_c, 1, 67, 127
2, 81520, Note_on_c, 1, 70, 127
2, 82000, Note_off_c, 1, 37, 0
2, 82000, Note_off_c, 1, 49, 0
2, 82000, Note_off_c, 1, 63, 0
2, 82000, Note_off_c, 1, 67, 0
2, 82000, Note_off_c, 1, 70, 0
2, 82040, Note_on_c, 1, 37, 127
2, 82040, Note_on_c, 1, 49, 127
2, 82040, Note_on_c, 1, 63, 127
2, 82040, Note_on_c, 1, 67, 127
2, 82040, Note_on_c, 1, 70, 127
2, 82520, Note_off_c, 1, 37, 0
2, 82520, Note_off_c, 1, 49, 0
2, 82520, Note_off_c, 1, 63, 0
2, 82520, Note_off_c, 1, 67, 0
2, 82520, Note_off_c, 1, 70, 0
2, 82560, Note_on_c, 1, 37, 127
2, 82560, Note_on_c, 1, 49, 127
2, 82560, Note_on_c, 1, 63, 127
2, 82560, Note_on_c, 1, 67, 127
2, 82560, Note_on_c, 1, 70, 127
2, 83040, Note_off_c, 1, 37, 0
2, 83040, Note_off_c, 1, 49, 0
2, 83040, Note_off_c, 1, 63, 0
2, 83040, Note_off_c, 1, 67, 0
2, 83040, Note_off_c, 1, 70, 0
2, 83080, Note_on_c, 1, 37, 127
2, 83080, Note_on_c, 1, 49, 127
2, 83080, Note_on_c, 1, 63, 127
2, 83080, Note_on_c, 1, 67, 127
2, 83080, Note_on_c, 1, 70, 127
2, 83480, Note_off_c, 1, 37, 0
2, 83480, Note_off_c, 1, 49, 0
2, 83480, Note_off_c, 1, 63, 0
2, 83480, Note_off_c, 1, 67, 0
2, 83480, Note_off_c, 1, 70, 0
2, 83520, Note_on_c, 1, 37, 127
2, 83520, Note_on_c, 1, 49, 127
2, 83520, Note_on_c, 1, 63, 127
2, 83520, Note_on_c, 1, 67, 127
2, 83520, Note_on_c, 1, 70, 127
2, 83600, Note_off_c, 1, 37, 0
2, 83600, Note_off_c, 1, 49, 0
2, 83600, Note_off_c, 1, 63, 0
2, 83600, Note_off_c, 1, 67, 0
2, 83600, Note_off_c, 1, 70, 0
2, 83640, Note_on_c, 1, 37, 127
2, 83640, Note_on_c, 1, 49, 127
2, 83640, Note_on_c, 1, 63, 127
2, 83640, Note_on_c, 1, 67, 127
2, 83640, Note_on_c, 1, 70, 127
2, 84120, Note_off_c, 1, 37, 0
2, 84120, Note_off_c, 1, 49, 0
2, 84120, Note_off_c, 1, 63, 0
2, 84120, Note_off_c, 1, 67, 0
2, 84120, Note_off_c, 1, 70, 0
2, 84160, Note_on_c, 1, 37, 127
2, 84160, Note_on_c, 1, 49, 127
2, 84160, Note_on_c, 1, 63, 127
2, 84160, Note_on_c, 1, 67, 127
2, 84160, Note_on_c, 1, 70, 127
2, 84640, Note_off_c, 1, 37, 0
2, 84640, Note_off_c, 1, 49, 0
2, 84640, Note_off_c, 1, 63, 0
2, 84640, Note_off_c, 1, 67, 0
2, 84640, Note_off_c, 1, 70, 0
2, 84680, Note_on_c, 1, 37, 127
2, 84680, Note_on_c, 1, 49, 127
2, 84680, Note_on_c, 1, 63, 127
2, 84680, Note_on_c, 1, 67, 127
2, 84680, Note_on_c, 1, 70, 127
2, 85160, Note_off_c, 1, 37, 0
2, 85160, Note_off_c, 1, 49, 0
2, 85160, Note_off_c, 1, 63, 0
2, 85160, Note_off_c, 1, 67, 0
2, 85160, Note_off_c, 1, 70, 0
2, 85200, Note_on_c, 1, 37, 127
2, 85200, Note_on_c, 1, 49, 127
2, 85200, Note_on_c, 1, 63, 127
2, 85200, Note_on_c, 1, 67, 127
2, 85200, Note_on_c, 1, 70, 127
2, 85680, Note_off_c, 1, 37, 0
2, 85680, Note_off_c, 1, 49, 0
2, 85680, Note_off_c, 1, 63, 0
2, 85680, Note_off_c, 1, 67, 0
2, 85680, Note_off_c, 1, 70, 0
2, 85760, Note_on_c, 1, 37, 127
2, 85760, Note_on_c, 1, 49, 127
2, 85760, Note_on_c, 1, 63, 127
2, 85760, Note_on_c, 1, 67, 127
2, 85760, Note_on_c, 1, 70, 127
2, 86200, Note_off_c, 1, 37, 0
2, 86200, Note_off_c, 1, 49, 0
2, 86200, Note_off_c, 1, 63, 0
2, 86200, Note_off_c, 1, 67, 0
2, 86200, Note_off_c, 1, 70, 0
2, 86240, Note_on_c, 1, 37, 127
2, 86240, Note_on_c, 1, 49, 127
2, 86240, Note_on_c, 1, 63, 127
2, 86240, Note_on_c, 1, 67, 127
2, 86240, Note_on_c, 1, 70, 127
2, 86680, Note_off_c, 1, 37, 0
2, 86680, Note_off_c, 1, 49, 0
2, 86680, Note_off_c, 1, 63, 0
2, 86680, Note_off_c, 1, 70, 0
2, 86720, Note_on_c, 1, 37, 127
2, 86720, Note_on_c, 1, 49, 127
2, 86720, Note_on_c, 1, 63, 127
2, 86720, Note_on_c, 1, 70, 127
2, 87160, Note_off_c, 1, 37, 0
2, 87160, Note_off_c, 1, 49, 0
2, 87160, Note_off_c, 1, 63, 0
2, 87160, Note_off_c, 1, 67, 0
2, 87160, Note_off_c, 1, 70, 0
2, 87200, Note_on_c, 1, 37, 127
2, 87200, Note_on_c, 1, 49, 127
2, 87200, Note_on_c, 1, 63, 127
2, 87200, Note_on_c, 1, 67, 127
2, 87200, Note_on_c, 1, 70, 127
2, 87640, Note_off_c, 1, 37, 0
2, 87640, Note_off_c, 1, 49, 0
2, 87640, Note_off_c, 1, 63, 0
2, 87640, Note_off_c, 1, 67, 0
2, 87640, Note_off_c, 1, 70, 0
2, 87680, Note_on_c, 1, 37, 127
2, 87680, Note_on_c, 1, 49, 127
2, 87680, Note_on_c, 1, 63, 127
2, 87680, Note_on_c, 1, 67, 127
2, 87680, Note_on_c, 1, 70, 127
2, 88000, Note_off_c, 1, 37, 0
2, 88000, Note_off_c, 1, 49, 0
2, 88000, Note_off_c, 1, 63, 0
2, 88000, Note_off_c, 1, 67, 0
2, 88000, Note_off_c, 1, 70, 0
2, 88040, Note_on_c, 1, 37, 127
2, 88040, Note_on_c, 1, 49, 127
2, 88040, Note_on_c, 1, 63, 127
2, 88040, Note_on_c, 1, 67, 127
2, 88040, Note_on_c, 1, 70, 127
2, 88160, Note_off_c, 1, 37, 0
2, 88160, Note_off_c, 1, 49, 0
2, 88160, Note_off_c, 1, 63, 0
2, 88160, Note_off_c, 1, 67, 0
2, 88160, Note_off_c, 1, 70, 0
2, 88200, Note_on_c, 1, 37, 127
2, 88200, Note_on_c, 1, 49, 127
2, 88200, Note_on_c, 1, 63, 127
2, 88200, Note_on_c, 1, 67, 127
2, 88200, Note_on_c, 1, 70, 127
2, 88640, Note_off_c, 1, 37, 0
2, 88640, Note_off_c, 1, 49, 0
2, 88640, Note_off_c, 1, 63, 0
2, 88640, Note_off_c, 1, 67, 0
2, 88640, Note_off_c, 1, 70, 0
2, 88680, Note_on_c, 1, 37, 127
2, 88680, Note_on_c, 1, 49, 127
2, 88680, Note_on_c, 1, 63, 127
2, 88680, Note_on_c, 1, 67, 127
2, 88680, Note_on_c, 1, 70, 127
2, 89120, Note_off_c, 1, 37, 0
2, 89120, Note_off_c, 1, 49, 0
2, 89120, Note_off_c, 1, 63, 0
2, 89120, Note_off_c, 1, 67, 0
2, 89120, Note_off_c, 1, 70, 0
2, 89160, Note_on_c, 1, 37, 127
2, 89160, Note_on_c, 1, 49, 127
2, 89160, Note_on_c, 1, 63, 127
2, 89160, Note_on_c, 1, 67, 127
2, 89160, Note_on_c, 1, 70, 127
2, 89600, Note_off_c, 1, 37, 0
2, 89600, Note_off_c, 1, 49, 0
2, 89600, Note_off_c, 1, 63, 0
2, 89600, Note_off_c, 1, 67, 0
2, 89600, Note_off_c, 1, 70, 0
2, 89640, Note_on_c, 1, 37, 127
2, 89640, Note_on_c, 1, 49, 127
2, 89640, Note_on_c, 1, 63, 127
2, 89640, Note_on_c, 1, 67, 127
2, 89640, Note_on_c, 1, 70, 127
2, 90080, Note_off_c, 1, 37, 0
2, 90080, Note_off_c, 1, 49, 0
2, 90080, Note_off_c, 1, 63, 0
2, 90080, Note_off_c, 1, 67, 0
2, 90080, Note_off_c, 1, 70, 0
2, 90120, Note_on_c, 1, 37, 127
2, 90120, Note_on_c, 1, 49, 127
2, 90120, Note_on_c, 1, 63, 127
2, 90120, Note_on_c, 1, 67, 127
2, 90120, Note_on_c, 1, 70, 127
2, 90280, Note_off_c, 1, 37, 0
2, 90280, Note_off_c, 1, 49, 0
2, 90280, Note_on_c, 1, 60, 127
2, 90280, Note_on_c, 1, 66, 127
2, 90280, Note_off_c, 1, 67, 0
2, 90280, Note_off_c, 1, 70, 0
2, 90280, Note_on_c, 1, 74, 127
2, 90280, Note_on_c, 1, 78, 127
2, 90320, Note_on_c, 1, 37, 127
2, 90320, Note_on_c, 1, 49, 127
2, 90320, Note_off_c, 1, 60, 0
2, 90320, Note_off_c, 1, 66, 0
2, 90320, Note_on_c, 1, 67, 127
2, 90320, Note_on_c, 1, 70, 127
2, 90320, Note_off_c, 1, 74, 0
2, 90320, Note_off_c, 1, 78, 0
2, 90360, Note_off_c, 1, 37, 0
2, 90360, Note_off_c, 1, 49, 0
2, 90360, Note_off_c, 1, 63, 0
2, 90360, Note_off_c, 1, 67, 0
2, 90360, Note_off_c, 1, 70, 0
2, 90400, Note_on_c, 1, 37, 127
2, 90400, Note_on_c, 1, 49, 127
2, 90400, Note_on_c, 1, 63, 127
2, 90400, Note_on_c, 1, 67, 127
2, 90400, Note_on_c, 1, 70, 127
2, 91080, Note_off_c, 1, 37, 0
2, 91080, Note_off_c, 1, 49, 0
2, 91080, Note_off_c, 1, 63, 0
2, 91080, Note_off_c, 1, 67, 0
2, 91080, Note_off_c, 1, 70, 0
2, 91120, Note_on_c, 1, 37, 127
2, 91120, Note_on_c, 1, 49, 127
2, 91120, Note_on_c, 1, 63, 127
2, 91120, Note_on_c, 1, 67, 127
2, 91120, Note_on_c, 1, 70, 127
2, 91560, Note_off_c, 1, 37, 0
2, 91560, Note_off_c, 1, 49, 0
2, 91560, Note_off_c, 1, 63, 0
2, 91560, Note_off_c, 1, 67, 0
2, 91560, Note_off_c, 1, 70, 0
2, 91600, Note_on_c, 1, 37, 127
2, 91600, Note_on_c, 1, 49, 127
2, 91600, Note_on_c, 1, 63, 127
2, 91600, Note_on_c, 1, 67, 127
2, 91600, Note_on_c, 1, 70, 127
2, 92040, Note_off_c, 1, 37, 0
2, 92040, Note_off_c, 1, 49, 0
2, 92040, Note_off_c, 1, 63, 0
2, 92040, Note_off_c, 1, 67, 0
2, 92040, Note_off_c, 1, 70, 0
2, 92080, Note_on_c, 1, 37, 127
2, 92080, Note_on_c, 1, 49, 127
2, 92080, Note_on_c, 1, 63, 127
2, 92080, Note_on_c, 1, 67, 127
2, 92080, Note_on_c, 1, 70, 127
2, 92480, Note_off_c, 1, 37, 0
2, 92480, Note_off_c, 1, 49, 0
2, 92480, Note_off_c, 1, 63, 0
2, 92480, Note_off_c, 1, 67, 0
2, 92480, Note_off_c, 1, 70, 0
2, 92520, Note_on_c, 1, 37, 127
2, 92520, Note_on_c, 1, 49, 127
2, 92520, Note_on_c, 1, 63, 127
2, 92520, Note_on_c, 1, 67, 127
2, 92520, Note_on_c, 1, 70, 127
2, 92560, Note_off_c, 1, 37, 0
2, 92560, Note_off_c, 1, 49, 0
2, 92560, Note_off_c, 1, 63, 0
2, 92560, Note_off_c, 1, 67, 0
2, 92560, Note_off_c, 1, 70, 0
2, 92600, Note_on_c, 1, 37, 127
2, 92600, Note_on_c, 1, 49, 127
2, 92600, Note_on_c, 1, 63, 127
2, 92600, Note_on_c, 1, 67, 127
2, 92600, Note_on_c, 1, 70, 127
2, 93040, Note_off_c, 1, 37, 0
2, 93040, Note_off_c, 1, 49, 0
2, 93040, Note_off_c, 1, 63, 0
2, 93040, Note_off_c, 1, 67, 0
2, 93040, Note_off_c, 1, 70, 0
2, 93080, Note_on_c, 1, 37, 127
2, 93080, Note_on_c, 1, 49, 127
2, 93080, Note_on_c, 1, 63, 127
2, 93080, Note_on_c, 1, 67, 127
2, 93080, Note_on_c, 1, 70, 127
2, 93520, Note_off_c, 1, 37, 0
2, 93520, Note_off_c, 1, 49, 0
2, 93520, Note_off_c, 1, 63, 0
2, 93520, Note_off_c, 1, 67, 0
2, 93520, Note_off_c, 1, 70, 0
2, 93560, Note_on_c, 1, 37, 127
2, 93560, Note_on_c, 1, 49, 127
2, 93560, Note_on_c, 1, 63, 127
2, 93560, Note_on_c, 1, 67, 127
2, 93560, Note_on_c, 1, 70, 127
2, 94000, Note_off_c, 1, 37, 0
2, 94000, Note_off_c, 1, 49, 0
2, 94000, Note_off_c, 1, 63, 0
2, 94000, Note_off_c, 1, 67, 0
2, 94000, Note_off_c, 1, 70, 0
2, 94040, Note_on_c, 1, 37, 127
2, 94040, Note_on_c, 1, 49, 127
2, 94040, Note_on_c, 1, 63, 127
2, 94040, Note_on_c, 1, 67, 127
2, 94040, Note_on_c, 1, 70, 127
2, 94480, Note_off_c, 1, 37, 0
2, 94480, Note_off_c, 1, 49, 0
2, 94480, Note_off_c, 1, 63, 0
2, 94480, Note_off_c, 1, 67, 0
2, 94480, Note_off_c, 1, 70, 0
2, 94520, Note_on_c, 1, 37, 127
2, 94520, Note_on_c, 1, 49, 127
2, 94520, Note_on_c, 1, 63, 127
2, 94520, Note_on_c, 1, 67, 127
2, 94520, Note_on_c, 1, 70, 127
2, 94680, Note_off_c, 1, 37, 0
2, 94680, Note_off_c, 1, 49, 0
2, 94680, Note_off_c, 1, 63, 0
2, 94680, Note_off_c, 1, 67, 0
2, 94680, Note_off_c, 1, 70, 0
2, 94720, Note_on_c, 1, 37, 127
2, 94720, Note_on_c, 1, 49, 127
2, 94720, Note_on_c, 1, 63, 127
2, 94720, Note_on_c, 1, 67, 127
2, 94720, Note_on_c, 1, 70, 127
2, 95000, Note_off_c, 1, 37, 0
2, 95000, Note_off_c, 1, 49, 0
2, 95000, Note_off_c, 1, 63, 0
2, 95000, Note_off_c, 1, 67, 0
2, 95000, Note_off_c, 1, 70, 0
2, 95040, Note_on_c, 1, 37, 127
2, 95040, Note_on_c, 1, 49, 127
2, 95040, Note_on_c, 1, 63, 127
2, 95040, Note_on_c, 1, 67, 127
2, 95040, Note_on_c, 1, 70, 127
2, 95480, Note_off_c, 1, 37, 0
2, 95480, Note_off_c, 1, 49, 0
2, 95480, Note_off_c, 1, 63, 0
2, 95480, Note_off_c, 1, 67, 0
2, 95480, Note_off_c, 1, 70, 0
2, 95520, Note_on_c, 1, 37, 127
2, 95520, Note_on_c, 1, 49, 127
2, 95520, Note_on_c, 1, 63, 127
2, 95520, Note_on_c, 1, 67, 127
2, 95520, Note_on_c, 1, 70, 127
2, 95960, Note_off_c, 1, 37, 0
2, 95960, Note_off_c, 1, 49, 0
2, 95960, Note_off_c, 1, 63, 0
2, 95960, Note_off_c, 1, 67, 0
2, 95960, Note_off_c, 1, 70, 0
2, 96000, Note_on_c, 1, 37, 127
2, 96000, Note_on_c, 1, 49, 127
2, 96000, Note_on_c, 1, 63, 127
2, 96000, Note_on_c, 1, 67, 127
2, 96000, Note_on_c, 1, 70, 127
2, 96440, Note_off_c, 1, 37, 0
2, 96440, Note_off_c, 1, 49, 0
2, 96440, Note_off_c, 1, 63, 0
2, 96440, Note_off_c, 1, 67, 0
2, 96440, Note_off_c, 1, 70, 0
2, 96480, Note_on_c, 1, 37, 127
2, 96480, Note_on_c, 1, 49, 127
2, 96480, Note_on_c, 1, 63, 127
2, 96480, Note_on_c, 1, 67, 127
2, 96480, Note_on_c, 1, 70, 127
2, 96880, Note_off_c, 1, 63, 0
2, 96920, Note_off_c, 1, 37, 0
2, 96920, Note_off_c, 1, 49, 0
2, 96920, Note_off_c, 1, 67, 0
2, 96920, Note_off_c, 1, 70, 0
2, 97000, Note_on_c, 1, 37, 127
2, 97000, Note_on_c, 1, 49, 127
2, 97000, Note_on_c, 1, 63, 127
2, 97000, Note_on_c, 1, 67, 127
2, 97000, Note_on_c, 1, 70, 127
2, 97880, Note_off_c, 1, 37, 0
2, 97880, Note_off_c, 1, 49, 0
2, 97880, Note_off_c, 1, 63, 0
2, 97880, Note_off_c, 1, 67, 0
2, 97880, Note_off_c, 1, 70, 0
2, 97920, Note_on_c, 1, 37, 127
2, 97920, Note_on_c, 1, 49, 127
2, 97920, Note_on_c, 1, 63, 127
2, 97920, Note_on_c, 1, 67, 127
2, 97920, Note_on_c, 1, 70, 127
2, 98360, Note_off_c, 1, 37, 0
2, 98360, Note_off_c, 1, 49, 0
2, 98360, Note_off_c, 1, 63, 0
2, 98360, Note_off_c, 1, 67, 0
2, 98360, Note_off_c, 1, 70, 0
2, 98400, Note_on_c, 1, 37, 127
2, 98400, Note_on_c, 1, 49, 127
2, 98400, Note_on_c, 1, 63, 127
2, 98400, Note_on_c, 1, 67, 127
2, 98400, Note_on_c, 1, 70, 127
2, 98840, Note_off_c, 1, 37, 0
2, 98840, Note_off_c, 1, 49, 0
2, 98840, Note_off_c, 1, 63, 0
2, 98840, Note_off_c, 1, 67, 0
2, 98840, Note_off_c, 1, 70, 0
2, 98880, Note_on_c, 1, 37, 127
2, 98880, Note_on_c, 1, 49, 127
2, 98880, Note_on_c, 1, 63, 127
2, 98880, Note_on_c, 1, 67, 127
2, 98880, Note_on_c, 1, 70, 127
2, 99200, Note_off_c, 1, 37, 0
2, 99200, Note_off_c, 1, 49, 0
2, 99200, Note_off_c, 1, 63, 0
2, 99200, Note_off_c, 1, 67, 0
2, 99200, Note_off_c, 1, 70, 0
2, 99240, Note_on_c, 1, 37, 127
2, 99240, Note_on_c, 1, 49, 127
2, 99240, Note_on_c, 1, 63, 127
2, 99240, Note_on_c, 1, 67, 127
2, 99240, Note_on_c, 1, 70, 127
2, 99360, Note_off_c, 1, 37, 0
2, 99360, Note_off_c, 1, 49, 0
2, 99360, Note_off_c, 1, 63, 0
2, 99360, Note_off_c, 1, 67, 0
2, 99360, Note_off_c, 1, 70, 0
2, 99400, Note_on_c, 1, 37, 127
2, 99400, Note_on_c, 1, 49, 127
2, 99400, Note_on_c, 1, 63, 127
2, 99400, Note_on_c, 1, 67, 127
2, 99400, Note_on_c, 1, 70, 127
2, 99840, Note_off_c, 1, 37, 0
2, 99840, Note_off_c, 1, 49, 0
2, 99840, Note_off_c, 1, 63, 0
2, 99840, Note_off_c, 1, 67, 0
2, 99840, Note_off_c, 1, 70, 0
2, 99880, Note_on_c, 1, 37, 127
2, 99880, Note_on_c, 1, 49, 127
2, 99880, Note_on_c, 1, 63, 127
2, 99880, Note_on_c, 1, 67, 127
2, 99880, Note_on_c, 1, 70, 127
2, 100320, Note_off_c, 1, 37, 0
2, 100320, Note_off_c, 1, 49, 0
2, 100320, Note_off_c, 1, 63, 0
2, 100320, Note_off_c, 1, 67, 0
2, 100320, Note_off_c, 1, 70, 0
2, 100360, Note_on_c, 1, 37, 127
2, 100360, Note_on_c, 1, 49, 127
2, 100360, Note_on_c, 1, 63, 127
2, 100360, Note_on_c, 1, 67, 127
2, 100360, Note_on_c, 1, 70, 127
2, 100800, Note_off_c, 1, 37, 0
2, 100800, Note_off_c, 1, 49, 0
2, 100800, Note_off_c, 1, 63, 0
2, 100800, Note_off_c, 1, 67, 0
2, 100800, Note_off_c, 1, 70, 0
2, 100840, Note_on_c, 1, 37, 127
2, 100840, Note_on_c, 1, 49, 127
2, 100840, Note_on_c, 1, 63, 127
2, 100840, Note_on_c, 1, 67, 127
2, 100840, Note_on_c, 1, 70, 127
2, 101280, Note_off_c, 1, 37, 0
2, 101280, Note_off_c, 1, 49, 0
2, 101280, Note_off_c, 1, 63, 0
2, 101280, Note_off_c, 1, 67, 0
2, 101280, Note_off_c, 1, 70, 0
2, 101320, Note_on_c, 1, 37, 127
2, 101320, Note_on_c, 1, 49, 127
2, 101320, Note_on_c, 1, 63, 127
2, 101320, Note_on_c, 1, 67, 127
2, 101320, Note_on_c, 1, 70, 127
2, 101760, Note_off_c, 1, 37, 0
2, 101760, Note_off_c, 1, 49, 0
2, 101760, Note_off_c, 1, 63, 0
2, 101760, Note_off_c, 1, 67, 0
2, 101760, Note_off_c, 1, 70, 0
2, 101800, Note_on_c, 1, 37, 127
2, 101800, Note_on_c, 1, 49, 127
2, 101800, Note_on_c, 1, 63, 127
2, 101800, Note_on_c, 1, 67, 127
2, 101800, Note_on_c, 1, 70, 127
2, 102240, Note_off_c, 1, 37, 0
2, 102240, Note_off_c, 1, 49, 0
2, 102240, Note_off_c, 1, 63, 0
2, 102240, Note_off_c, 1, 67, 0
2, 102240, Note_off_c, 1, 70, 0
2, 102280, Note_on_c, 1, 37, 127
2, 102280, Note_on_c, 1, 49, 127
2, 102280, Note_on_c, 1, 63, 127
2, 102280, Note_on_c, 1, 67, 127
2, 102280, Note_on_c, 1, 70, 127
2, 102720, Note_off_c, 1, 37, 0
2, 102720, Note_off_c, 1, 49, 0
2, 102720, Note_off_c, 1, 63, 0
2, 102720, Note_off_c, 1, 67, 0
2, 102720, Note_off_c, 1, 70, 0
2, 102760, Note_on_c, 1, 37, 127
2, 102760, Note_on_c, 1, 49, 127
2, 102760, Note_on_c, 1, 63, 127
2, 102760, Note_on_c, 1, 67, 127
2, 102760, Note_on_c, 1, 70, 127
2, 103200, Note_off_c, 1, 37, 0
2, 103200, Note_off_c, 1, 49, 0
2, 103200, Note_off_c, 1, 63, 0
2, 103200, Note_off_c, 1, 67, 0
2, 103200, Note_off_c, 1, 70, 0
2, 103240, Note_on_c, 1, 37, 127
2, 103240, Note_on_c, 1, 49, 127
2, 103240, Note_on_c, 1, 63, 127
2, 103240, Note_on_c, 1, 67, 127
2, 103240, Note_on_c, 1, 70, 127
2, 103320, Note_off_c, 1, 37, 0
2, 103320, Note_off_c, 1, 49, 0
2, 103320, Note_off_c, 1, 63, 0
2, 103320, Note_off_c, 1, 67, 0
2, 103320, Note_off_c, 1, 70, 0
2, 103360, Note_on_c, 1, 37, 127
2, 103360, Note_on_c, 1, 49, 127
2, 103360, Note_on_c, 1, 63, 127
2, 103360, Note_on_c, 1, 67, 127
2, 103360, Note_on_c, 1, 70, 127
2, 103720, Note_off_c, 1, 37, 0
2, 103720, Note_off_c, 1, 49, 0
2, 103720, Note_off_c, 1, 63, 0
2, 103720, Note_off_c, 1, 67, 0
2, 103720, Note_off_c, 1, 70, 0
2, 103760, Note_on_c, 1, 37, 127
2, 103760, Note_on_c, 1, 49, 127
2, 103760, Note_on_c, 1, 63, 127
2, 103760, Note_on_c, 1, 67, 127
2, 103760, Note_on_c, 1, 70, 127
2, 104160, Note_off_c, 1, 37, 0
2, 104160, Note_off_c, 1, 49, 0
2, 104160, Note_off_c, 1, 63, 0
2, 104160, Note_off_c, 1, 67, 0
2, 104160, Note_off_c, 1, 70, 0
2, 104200, Note_on_c, 1, 37, 127
2, 104200, Note_on_c, 1, 49, 127
2, 104200, Note_on_c, 1, 63, 127
2, 104200, Note_on_c, 1, 67, 127
2, 104200, Note_on_c, 1, 70, 127
2, 104640, Note_off_c, 1, 37, 0
2, 104640, Note_off_c, 1, 49, 0
2, 104640, Note_off_c, 1, 63, 0
2, 104640, Note_off_c, 1, 67, 0
2, 104640, Note_off_c, 1, 70, 0
2, 104680, Note_on_c, 1, 37, 127
2, 104680, Note_on_c, 1, 49, 127
2, 104680, Note_on_c, 1, 63, 127
2, 104680, Note_on_c, 1, 67, 127
2, 104680, Note_on_c, 1, 70, 127
2, 105120, Note_off_c, 1, 37, 0
2, 105120, Note_off_c, 1, 49, 0
2, 105120, Note_off_c, 1, 63, 0
2, 105120, Note_off_c, 1, 67, 0
2, 105120, Note_off_c, 1, 70, 0
2, 105160, Note_on_c, 1, 37, 127
2, 105160, Note_on_c, 1, 49, 127
2, 105160, Note_on_c, 1, 63, 127
2, 105160, Note_on_c, 1, 67, 127
2, 105160, Note_on_c, 1, 70, 127
2, 105400, Note_off_c, 1, 37, 0
2, 105400, Note_off_c, 1, 49, 0
2, 105400, Note_off_c, 1, 63, 0
2, 105400, Note_off_c, 1, 67, 0
2, 105400, Note_off_c, 1, 70, 0
2, 105440, Note_on_c, 1, 37, 127
2, 105440, Note_on_c, 1, 49, 127
2, 105440, Note_on_c, 1, 63, 127
2, 105440, Note_on_c, 1, 67, 127
2, 105440, Note_on_c, 1, 70, 127
2, 106080, Note_off_c, 1, 37, 0
2, 106080, Note_off_c, 1, 49, 0
2, 106080, Note_off_c, 1, 63, 0
2, 106080, Note_off_c, 1, 67, 0
2, 106080, Note_off_c, 1, 70, 0
2, 106120, Note_on_c, 1, 37, 127
2, 106120, Note_on_c, 1, 49, 127
2, 106120, Note_on_c, 1, 63, 127
2, 106120, Note_on_c, 1, 67, 127
2, 106120, Note_on_c, 1, 70, 127
2, 106560, Note_off_c, 1, 37, 0
2, 106560, Note_off_c, 1, 49, 0
2, 106560, Note_off_c, 1, 63, 0
2, 106560, Note_off_c, 1, 67, 0
2, 106560, Note_off_c, 1, 70, 0
2, 106600, Note_on_c, 1, 37, 127
2, 106600, Note_on_c, 1, 49, 127
2, 106600, Note_on_c, 1, 63, 127
2, 106600, Note_on_c, 1, 67, 127
2, 106600, Note_on_c, 1, 70, 127
2, 107040, Note_off_c, 1, 37, 0
2, 107040, Note_off_c, 1, 49, 0
2, 107040, Note_off_c, 1, 63, 0
2, 107040, Note_off_c, 1, 67, 0
2, 107040, Note_off_c, 1, 70, 0
2, 107080, Note_on_c, 1, 37, 127
2, 107080, Note_on_c, 1, 49, 127
2, 107080, Note_on_c, 1, 63, 127
2, 107080, Note_on_c, 1, 67, 127
2, 107080, Note_on_c, 1, 70, 127
2, 107480, Note_off_c, 1, 37, 0
2, 107480, Note_off_c, 1, 49, 0
2, 107480, Note_off_c, 1, 63, 0
2, 107480, Note_off_c, 1, 67, 0
2, 107480, Note_off_c, 1, 70, 0
2, 107520, Note_on_c, 1, 37, 127
2, 107520, Note_on_c, 1, 49, 127
2, 107520, Note_on_c, 1, 63, 127
2, 107520, Note_on_c, 1, 67, 127
2, 107520, Note_on_c, 1, 70, 127
2, 107560, Note_off_c, 1, 37, 0
2, 107560, Note_off_c, 1, 49, 0
2, 107560, Note_off_c, 1, 63, 0
2, 107560, Note_off_c, 1, 67, 0
2, 107560, Note_off_c, 1, 70, 0
2, 107600, Note_on_c, 1, 37, 127
2, 107600, Note_on_c, 1, 49, 127
2, 107600, Note_on_c, 1, 63, 127
2, 107600, Note_on_c, 1, 67, 127
2, 107600, Note_on_c, 1, 70, 127
2, 108040, Note_off_c, 1, 37, 0
2, 108040, Note_off_c, 1, 49, 0
2, 108040, Note_off_c, 1, 63, 0
2, 108040, Note_off_c, 1, 67, 0
2, 108040, Note_off_c, 1, 70, 0
2, 108080, Note_on_c, 1, 37, 127
2, 108080, Note_on_c, 1, 49, 127
2, 108080, Note_on_c, 1, 63, 127
2, 108080, Note_on_c, 1, 67, 127
2, 108080, Note_on_c, 1, 70, 127
2, 108520, Note_off_c, 1, 37, 0
2, 108520, Note_off_c, 1, 49, 0
2, 108520, Note_off_c, 1, 63, 0
2, 108520, Note_off_c, 1, 67, 0
2, 108520, Note_off_c, 1, 70, 0
2, 108560, Note_on_c, 1, 37, 127
2, 108560, Note_on_c, 1, 49, 127
2, 108560, Note_on_c, 1, 63, 127
2, 108560, Note_on_c, 1, 67, 127
2, 108560, Note_on_c, 1, 70, 127
2, 109000, Note_off_c, 1, 37, 0
2, 109000, Note_off_c, 1, 49, 0
2, 109000, Note_off_c, 1, 63, 0
2, 109000, Note_off_c, 1, 67, 0
2, 109000, Note_off_c, 1, 70, 0
2, 109040, Note_on_c, 1, 37, 127
2, 109040, Note_on_c, 1, 49, 127
2, 109040, Note_on_c, 1, 63, 127
2, 109040, Note_on_c, 1, 67, 127
2, 109040, Note_on_c, 1, 70, 127
2, 109480, Note_off_c, 1, 37, 0
2, 109480, Note_off_c, 1, 49, 0
2, 109480, Note_off_c, 1, 63, 0
2, 109480, Note_off_c, 1, 67, 0
2, 109480, Note_off_c, 1, 70, 0
2, 109520, Note_on_c, 1, 37, 127
2, 109520, Note_on_c, 1, 49, 127
2, 109520, Note_on_c, 1, 63, 127
2, 109520, Note_on_c, 1, 67, 127
2, 109520, Note_on_c, 1, 70, 127
2, 109600, Note_off_c, 1, 37, 0
2, 109600, Note_off_c, 1, 49, 0
2, 109600, Note_off_c, 1, 63, 0
2, 109600, Note_off_c, 1, 67, 0
2, 109600, Note_off_c, 1, 70, 0
2, 109640, Note_on_c, 1, 37, 127
2, 109640, Note_on_c, 1, 49, 127
2, 109640, Note_on_c, 1, 63, 127
2, 109640, Note_on_c, 1, 67, 127
2, 109640, Note_on_c, 1, 70, 127
2, 110440, Note_off_c, 1, 37, 0
2, 110440, Note_off_c, 1, 49, 0
2, 110440, Note_off_c, 1, 63, 0
2, 110440, Note_off_c, 1, 67, 0
2, 110440, Note_off_c, 1, 70, 0
2, 110480, Note_on_c, 1, 37, 127
2, 110480, Note_on_c, 1, 49, 127
2, 110480, Note_on_c, 1, 63, 127
2, 110480, Note_on_c, 1, 67, 127
2, 110480, Note_on_c, 1, 70, 127
2, 110920, Note_off_c, 1, 37, 0
2, 110920, Note_off_c, 1, 49, 0
2, 110920, Note_off_c, 1, 63, 0
2, 110920, Note_off_c, 1, 67, 0
2, 110920, Note_off_c, 1, 70, 0
2, 110960, Note_on_c, 1, 37, 127
2, 110960, Note_on_c, 1, 49, 127
2, 110960, Note_on_c, 1, 63, 127
2, 110960, Note_on_c, 1, 67, 127
2, 110960, Note_on_c, 1, 70, 127
2, 111400, Note_off_c, 1, 37, 0
2, 111400, Note_off_c, 1, 49, 0
2, 111400, Note_off_c, 1, 63, 0
2, 111400, Note_off_c, 1, 67, 0
2, 111400, Note_off_c, 1, 70, 0
2, 111440, Note_on_c, 1, 37, 127
2, 111440, Note_on_c, 1, 49, 127
2, 111440, Note_on_c, 1, 63, 127
2, 111440, Note_on_c, 1, 67, 127
2, 111440, Note_on_c, 1, 70, 127
2, 111680, Note_off_c, 1, 37, 0
2, 111680, Note_off_c, 1, 49, 0
2, 111680, Note_off_c, 1, 63, 0
2, 111680, Note_off_c, 1, 67, 0
2, 111680, Note_off_c, 1, 70, 0
2, 111720, Note_on_c, 1, 37, 127
2, 111720, Note_on_c, 1, 49, 127
2, 111720, Note_on_c, 1, 63, 127
2, 111720, Note_on_c, 1, 67, 127
2, 111720, Note_on_c, 1, 70, 127
2, 112360, Note_off_c, 1, 37, 0
2, 112360, Note_off_c, 1, 49, 0
2, 112360, Note_off_c, 1, 63, 0
2, 112360, Note_off_c, 1, 67, 0
2, 112360, Note_off_c, 1, 70, 0
2, 112400, Note_on_c, 1, 37, 127
2, 112400, Note_on_c, 1, 49, 127
2, 112400, Note_on_c, 1, 63, 127
2, 112400, Note_on_c, 1, 67, 127
2, 112400, Note_on_c, 1, 70, 127
2, 112840, Note_off_c, 1, 37, 0
2, 112840, Note_off_c, 1, 49, 0
2, 112840, Note_off_c, 1, 63, 0
2, 112840, Note_off_c, 1, 67, 0
2, 112840, Note_off_c, 1, 70, 0
2, 112880, Note_on_c, 1, 37, 127
2, 112880, Note_on_c, 1, 49, 127
2, 112880, Note_on_c, 1, 63, 127
2, 112880, Note_on_c, 1, 67, 127
2, 112880, Note_on_c, 1, 70, 127
2, 113320, Note_off_c, 1, 37, 0
2, 113320, Note_off_c, 1, 49, 0
2, 113320, Note_off_c, 1, 63, 0
2, 113320, Note_off_c, 1, 67, 0
2, 113320, Note_off_c, 1, 70, 0
2, 113360, Note_on_c, 1, 37, 127
2, 113360, Note_on_c, 1, 49, 127
2, 113360, Note_on_c, 1, 63, 127
2, 113360, Note_on_c, 1, 67, 127
2, 113360, Note_on_c, 1, 70, 127
2, 113760, Note_off_c, 1, 37, 0
2, 113760, Note_off_c, 1, 49, 0
2, 113760, Note_off_c, 1, 63, 0
2, 113760, Note_off_c, 1, 67, 0
2, 113760, Note_off_c, 1, 70, 0
2, 113800, Note_on_c, 1, 37, 127
2, 113800, Note_on_c, 1, 49, 127
2, 113800, Note_on_c, 1, 63, 127
2, 113800, Note_on_c, 1, 67, 127
2, 113800, Note_on_c, 1, 70, 127
2, 113840, Note_off_c, 1, 37, 0
2, 113840, Note_off_c, 1, 49, 0
2, 113840, Note_off_c, 1, 63, 0
2, 113840, Note_off_c, 1, 67, 0
2, 113840, Note_off_c, 1, 70, 0
2, 113880, Note_on_c, 1, 37, 127
2, 113880, Note_on_c, 1, 49, 127
2, 113880, Note_on_c, 1, 63, 127
2, 113880, Note_on_c, 1, 67, 127
2, 113880, Note_on_c, 1, 70, 127
2, 114320, Note_off_c, 1, 37, 0
2, 114320, Note_off_c, 1, 49, 0
2, 114320, Note_off_c, 1, 63, 0
2, 114320, Note_off_c, 1, 67, 0
2, 114320, Note_off_c, 1, 70, 0
2, 114360, Note_on_c, 1, 37, 127
2, 114360, Note_on_c, 1, 49, 127
2, 114360, Note_on_c, 1, 63, 127
2, 114360, Note_on_c, 1, 67, 127
2, 114360, Note_on_c, 1, 70, 127
2, 114800, Note_off_c, 1, 37, 0
2, 114800, Note_off_c, 1, 49, 0
2, 114800, Note_off_c, 1, 63, 0
2, 114800, Note_off_c, 1, 67, 0
2, 114800, Note_off_c, 1, 70, 0
2, 114840, Note_on_c, 1, 37, 127
2, 114840, Note_on_c, 1, 49, 127
2, 114840, Note_on_c, 1, 63, 127
2, 114840, Note_on_c, 1, 67, 127
2, 114840, Note_on_c, 1, 70, 127
2, 115280, Note_off_c, 1, 37, 0
2, 115280, Note_off_c, 1, 49, 0
2, 115280, Note_off_c, 1, 63, 0
2, 115280, Note_off_c, 1, 67, 0
2, 115280, Note_off_c, 1, 70, 0
2, 115320, Note_on_c, 1, 37, 127
2, 115320, Note_on_c, 1, 49, 127
2, 115320, Note_on_c, 1, 63, 127
2, 115320, Note_on_c, 1, 67, 127
2, 115320, Note_on_c, 1, 70, 127
2, 115760, Note_off_c, 1, 37, 0
2, 115760, Note_off_c, 1, 49, 0
2, 115760, Note_off_c, 1, 63, 0
2, 115760, Note_off_c, 1, 67, 0
2, 115760, Note_off_c, 1, 70, 0
2, 115800, Note_on_c, 1, 37, 127
2, 115800, Note_on_c, 1, 49, 127
2, 115800, Note_on_c, 1, 63, 127
2, 115800, Note_on_c, 1, 67, 127
2, 115800, Note_on_c, 1, 70, 127
2, 115880, Note_off_c, 1, 37, 0
2, 115880, Note_off_c, 1, 49, 0
2, 115880, Note_off_c, 1, 63, 0
2, 115880, Note_off_c, 1, 67, 0
2, 115880, Note_off_c, 1, 70, 0
2, 115920, Note_on_c, 1, 37, 127
2, 115920, Note_on_c, 1, 49, 127
2, 115920, Note_on_c, 1, 63, 127
2, 115920, Note_on_c, 1, 67, 127
2, 115920, Note_on_c, 1, 70, 127
2, 116280, Note_off_c, 1, 37, 0
2, 116280, Note_off_c, 1, 49, 0
2, 116280, Note_off_c, 1, 63, 0
2, 116280, Note_off_c, 1, 67, 0
2, 116280, Note_off_c, 1, 70, 0
2, 116320, Note_on_c, 1, 37, 127
2, 116320, Note_on_c, 1, 49, 127
2, 116320, Note_on_c, 1, 63, 127
2, 116320, Note_on_c, 1, 67, 127
2, 116320, Note_on_c, 1, 70, 127
2, 116760, Note_off_c, 1, 37, 0
2, 116760, Note_off_c, 1, 49, 0
2, 116760, Note_off_c, 1, 63, 0
2, 116760, Note_off_c, 1, 67, 0
2, 116760, Note_off_c, 1, 70, 0
2, 116800, Note_on_c, 1, 37, 127
2, 116800, Note_on_c, 1, 49, 127
2, 116800, Note_on_c, 1, 63, 127
2, 116800, Note_on_c, 1, 67, 127
2, 116800, Note_on_c, 1, 70, 127
2, 117240, Note_off_c, 1, 37, 0
2, 117240, Note_off_c, 1, 49, 0
2, 117240, Note_off_c, 1, 63, 0
2, 117240, Note_off_c, 1, 67, 0
2, 117240, Note_off_c, 1, 70, 0
2, 117280, Note_on_c, 1, 37, 127
2, 117280, Note_on_c, 1, 49, 127
2, 117280, Note_on_c, 1, 63, 127
2, 117280, Note_on_c, 1, 67, 127
2, 117280, Note_on_c, 1, 70, 127
2, 117720, Note_off_c, 1, 37, 0
2, 117720, Note_off_c, 1, 49, 0
2, 117720, Note_off_c, 1, 63, 0
2, 117720, Note_off_c, 1, 67, 0
2, 117720, Note_off_c, 1, 70, 0
2, 117760, Note_on_c, 1, 37, 127
2, 117760, Note_on_c, 1, 49, 127
2, 117760, Note_on_c, 1, 63, 127
2, 117760, Note_on_c, 1, 67, 127
2, 117760, Note_on_c, 1, 70, 127
2, 117960, Note_off_c, 1, 37, 0
2, 117960, Note_off_c, 1, 49, 0
2, 117960, Note_off_c, 1, 63, 0
2, 117960, Note_off_c, 1, 67, 0
2, 117960, Note_off_c, 1, 70, 0
2, 118000, Note_on_c, 1, 37, 127
2, 118000, Note_on_c, 1, 49, 127
2, 118000, Note_on_c, 1, 63, 127
2, 118000, Note_on_c, 1, 67, 127
2, 118000, Note_on_c, 1, 70, 127
2, 118680, Note_off_c, 1, 37, 0
2, 118680, Note_off_c, 1, 49, 0
2, 118680, Note_off_c, 1, 63, 0
2, 118680, Note_off_c, 1, 67, 0
2, 118680, Note_off_c, 1, 70, 0
2, 118720, Note_on_c, 1, 37, 127
2, 118720, Note_on_c, 1, 49, 127
2, 118720, Note_on_c, 1, 63, 127
2, 118720, Note_on_c, 1, 67, 127
2, 118720, Note_on_c, 1, 70, 127
2, 119160, Note_off_c, 1, 37, 0
2, 119160, Note_off_c, 1, 49, 0
2, 119160, Note_off_c, 1, 63, 0
2, 119160, Note_off_c, 1, 67, 0
2, 119160, Note_off_c, 1, 70, 0
2, 119200, Note_on_c, 1, 37, 127
2, 119200, Note_on_c, 1, 49, 127
2, 119200, Note_on_c, 1, 63, 127
2, 119200, Note_on_c, 1, 67, 127
2, 119200, Note_on_c, 1, 70, 127
2, 119640, Note_off_c, 1, 37, 0
2, 119640, Note_off_c, 1, 49, 0
2, 119640, Note_off_c, 1, 63, 0
2, 119640, Note_off_c, 1, 67, 0
2, 119640, Note_off_c, 1, 70, 0
2, 119680, Note_on_c, 1, 37, 127
2, 119680, Note_on_c, 1, 49, 127
2, 119680, Note_on_c, 1, 63, 127
2, 119680, Note_on_c, 1, 67, 127
2, 119680, Note_on_c, 1, 70, 127
2, 120000, Note_off_c, 1, 37, 0
2, 120000, Note_off_c, 1, 49, 0
2, 120000, Note_off_c, 1, 63, 0
2, 120000, Note_off_c, 1, 67, 0
2, 120000, Note_off_c, 1, 70, 0
2, 120040, End_track
3, 0, Start_track
3, 0, Title_t, "MIDI"
3, 1536, End_track
0, 0, End_of_file
