0, 0, Header, 1, 3, 192
1, 0, Start_track
1, 0, Time_signature, 4, 2, 24, 8
1, 0, Tempo, 500000
1, 120040, End_track
2, 0, Start_track
2, 0, Text_t, "random instrument: random person i dunno whatev"
2, 0, Title_t, "Track 1"
2, 0, Note_on_c, 1, 40, 127
2, 0, Note_on_c, 1, 48, 127
2, 0, Note_on_c, 1, 56, 127
2, 0, Note_on_c, 1, 60, 127
2, 40, Note_off_c, 1, 40, 0
2, 40, Note_off_c, 1, 48, 0
2, 40, Note_on_c, 1, 55, 127
2, 40, Note_off_c, 1, 56, 0
2, 40, Note_off_c, 1, 60, 0
2, 40, Note_on_c, 1, 72, 127
2, 40, Note_on_c, 1, 75, 127
2, 40, Note_on_c, 1, 79, 127
2, 40, Note_on_c, 1, 84, 127
2, 80, Note_off_c, 1, 55, 0
2, 80, Note_off_c, 1, 72, 0
2, 80, Note_off_c, 1, 75, 0
2, 80, Note_off_c, 1, 79, 0
2, 80, Note_off_c, 1, 84, 0
2, 120, Note_on_c, 1, 50, 127
2, 120, Note_on_c, 1, 59, 127
2, 120, Note_on_c, 1, 62, 127
2, 120, Note_on_c, 1, 78, 127
2, 160, Note_off_c, 1, 50, 0
2, 160, Note_off_c, 1, 59, 0
2, 160, Note_on_c, 1, 60, 127
2, 160, Note_off_c, 1, 62, 0
2, 160, Note_on_c, 1, 66, 127
2, 160, Note_on_c, 1, 68, 127
2, 160, Note_off_c, 1, 78, 0
2, 160, Note_on_c, 1, 90, 127
2, 200, Note_on_c, 1, 35, 127
2, 200, Note_on_c, 1, 39, 127
2, 200, Note_on_c, 1, 47, 127
2, 200, Note_on_c, 1, 50, 127
2, 200, Note_off_c, 1, 60, 0
2, 200, Note_off_c, 1, 66, 0
2, 200, Note_off_c, 1, 68, 0
2, 200, Note_off_c, 1, 90, 0
2, 240, Note_off_c, 1, 35, 0
2, 240, Note_off_c, 1, 39, 0
2, 240, Note_off_c, 1, 47, 0
2, 240, Note_off_c, 1, 50, 0
2, 240, Note_on_c, 1, 51, 127
2, 240, Note_on_c, 1, 55, 127
2, 240, Note_on_c, 1, 58, 127
2, 240, Note_on_c, 1, 63, 127
2, 240, Note_on_c, 1, 82, 127
2, 240, Note_on_c, 1, 91, 127
2, 280, Note_off_c, 1, 51, 0
2, 280, Note_off_c, 1, 55, 0
2, 280, Note_off_c, 1, 58, 0
2, 280, Note_off_c, 1, 63, 0
2, 280, Note_on_c, 1, 76, 127
2, 280, Note_on_c, 1, 80, 127
2, 280, Note_off_c, 1, 82, 0
2, 280, Note_on_c, 1, 83, 127
2, 280, Note_on_c, 1, 89, 127
2, 280, Note_off_c, 1, 91, 0
2, 320, Note_on_c, 1, 58, 127
2, 320, Note_on_c, 1, 63, 127
2, 320, Note_on_c, 1, 66, 127
2, 320, Note_on_c, 1, 72, 127
2, 320, Note_on_c, 1, 75, 127
2, 320, Note_off_c, 1, 76, 0
2, 320, Note_off_c, 1, 80, 0
2, 320, Note_on_c, 1, 82, 127
2, 320, Note_off_c, 1, 83, 0
2, 320, Note_on_c, 1, 87, 127
2, 320, Note_off_c, 1, 89, 0
2, 360, Note_on_c, 1, 57, 127
2, 360, Note_off_c, 1, 58, 0
2, 360, Note_on_c, 1, 62, 127
2, 360, Note_off_c, 1, 63, 0
2, 360, Note_off_c, 1, 66, 0
2, 360, Note_off_c, 1, 72, 0
2, 360, Note_off_c, 1, 75, 0
2, 360, Note_off_c, 1, 82, 0
2, 360, Note_off_c, 1, 87, 0
2, 400, Note_off_c, 1, 57, 0
2, 400, Note_on_c, 1, 60, 127
2, 400, Note_off_c, 1, 62, 0
2, 400, Note_on_c, 1, 85, 127
2, 400, Note_on_c, 1, 88, 127
2, 440, Note_on_c, 1, 50, 127
2, 440, Note_on_c, 1, 57, 127
2, 440, Note_off_c, 1, 60, 0
2, 440, Note_on_c, 1, 65, 127
2, 440, Note_off_c, 1, 85, 0
2, 440, Note_off_c, 1, 88, 0
2, 440, Note_on_c, 1, 93, 127
2, 800, Note_off_c, 1, 50, 0
2, 800, Note_off_c, 1, 57, 0
2, 800, Note_off_c, 1, 65, 0
2, 800, Note_off_c, 1, 93, 0
2, 1440, Note_on_c, 1, 44, 127
2, 1440, Note_on_c, 1, 56, 127
2, 1440, Note_on_c, 1, 72, 127
2, 1440, Note_on_c, 1, 80, 127
2, 2000, Note_off_c, 1, 44, 0
2, 2000, Note_off_c, 1, 56, 0
2, 2000, Note_off_c, 1, 72, 0
2, 2000, Note_off_c, 1, 80, 0
2, 2240, Note_on_c, 1, 32, 127
2, 2240, Note_on_c, 1, 44, 127
2, 2240, Note_on_c, 1, 56, 127
2, 2440, Note_off_c, 1, 32, 0
2, 2440, Note_off_c, 1, 44, 0
2, 2440, Note_off_c, 1, 56, 0
2, 5240, Note_on_c, 1, 43, 127
2, 5240, Note_on_c, 1, 50, 127
2, 5240, Note_on_c, 1, 60, 127
2, 5240, Note_on_c, 1, 62, 127
2, 5240, Note_on_c, 1, 69, 127
2, 5480, Note_off_c, 1, 43, 0
2, 5480, Note_off_c, 1, 50, 0
2, 5480, Note_off_c, 1, 60, 0
2, 5480, Note_off_c, 1, 62, 0
2, 5480, Note_off_c, 1, 69, 0
2, 5800, Note_on_c, 1, 52, 127
2, 5800, Note_on_c, 1, 55, 127
2, 5800, Note_on_c, 1, 58, 127
2, 5800, Note_on_c, 1, 61, 127
2, 5800, Note_on_c, 1, 70, 127
2, 5960, Note_off_c, 1, 52, 0
2, 5960, Note_off_c, 1, 55, 0
2, 5960, Note_off_c, 1, 58, 0
2, 5960, Note_off_c, 1, 61, 0
2, 5960, Note_off_c, 1, 70, 0
2, 6120, Note_on_c, 1, 47, 127
2, 6120, Note_on_c, 1, 56, 127
2, 6120, Note_on_c, 1, 64, 127
2, 6120, Note_on_c, 1, 70, 127
2, 6160, Note_off_c, 1, 47, 0
2, 6160, Note_off_c, 1, 56, 0
2, 6160, Note_off_c, 1, 64, 0
2, 6160, Note_off_c, 1, 70, 0
2, 6200, Note_on_c, 1, 42, 127
2, 6200, Note_on_c, 1, 52, 127
2, 6200, Note_on_c, 1, 59, 127
2, 6200, Note_on_c, 1, 64, 127
2, 6240, Note_off_c, 1, 42, 0
2, 6240, Note_off_c, 1, 52, 0
2, 6240, Note_off_c, 1, 59, 0
2, 6240, Note_off_c, 1, 64, 0
2, 6240, Note_on_c, 1, 67, 127
2, 6240, Note_on_c, 1, 70, 127
2, 6240, Note_on_c, 1, 84, 127
2, 6240, Note_on_c, 1, 87, 127
2, 6240, Note_on_c, 1, 93, 127
2, 6280, Note_on_c, 1, 55, 127
2, 6280, Note_on_c, 1, 61, 127
2, 6280, Note_on_c, 1, 64, 127
2, 6280, Note_off_c, 1, 67, 0
2, 6280, Note_on_c, 1, 69, 127
2, 6280, Note_off_c, 1, 70, 0
2, 6280, Note_off_c, 1, 84, 0
2, 6280, Note_on_c, 1, 85, 127
2, 6280, Note_off_c, 1, 87, 0
2, 6280, Note_off_c, 1, 93, 0
2, 6320, Note_on_c, 1, 35, 127
2, 6320, Note_on_c, 1, 47, 127
2, 6320, Note_off_c, 1, 55, 0
2, 6320, Note_off_c, 1, 61, 0
2, 6320, Note_off_c, 1, 64, 0
2, 6320, Note_off_c, 1, 69, 0
2, 6320, Note_on_c, 1, 74, 127
2, 6320, Note_on_c, 1, 79, 127
2, 6320, Note_on_c, 1, 83, 127
2, 6320, Note_off_c, 1, 85, 0
2, 6360, Note_off_c, 1, 35, 0
2, 6360, Note_off_c, 1, 47, 0
2, 6360, Note_off_c, 1, 74, 0
2, 6360, Note_off_c, 1, 79, 0
2, 6360, Note_off_c, 1, 83, 0
2, 6400, Note_on_c, 1, 46, 127
2, 6400, Note_on_c, 1, 54, 127
2, 6400, Note_on_c, 1, 59, 127
2, 6440, Note_off_c, 1, 46, 0
2, 6440, Note_off_c, 1, 54, 0
2, 6440, Note_off_c, 1, 59, 0
2, 6600, Note_on_c, 1, 41, 127
2, 6600, Note_on_c, 1, 53, 127
2, 6600, Note_on_c, 1, 56, 127
2, 6600, Note_on_c, 1, 73, 127
2, 6600, Note_on_c, 1, 80, 127
2, 6840, Note_off_c, 1, 41, 0
2, 6840, Note_off_c, 1, 53, 0
2, 6840, Note_off_c, 1, 56, 0
2, 6840, Note_off_c, 1, 73, 0
2, 6840, Note_off_c, 1, 80, 0
2, 6880, Note_on_c, 1, 42, 127
2, 6880, Note_on_c, 1, 54, 127
2, 6880, Note_on_c, 1, 58, 127
2, 6880, Note_on_c, 1, 61, 127
2, 6880, Note_on_c, 1, 66, 127
2, 6880, Note_on_c, 1, 70, 127
2, 7040, Note_off_c, 1, 42, 0
2, 7040, Note_off_c, 1, 54, 0
2, 7040, Note_off_c, 1, 58, 0
2, 7040, Note_off_c, 1, 61, 0
2, 7040, Note_off_c, 1, 66, 0
2, 7040, Note_off_c, 1, 70, 0
2, 7080, Note_on_c, 1, 58, 127
2, 7080, Note_on_c, 1, 61, 127
2, 7080, Note_on_c, 1, 68, 127
2, 7080, Note_on_c, 1, 75, 127
2, 7400, Note_off_c, 1, 58, 0
2, 7400, Note_off_c, 1, 61, 0
2, 7400, Note_off_c, 1, 68, 0
2, 7400, Note_off_c, 1, 75, 0
2, 7440, Note_on_c, 1, 58, 127
2, 7440, Note_on_c, 1, 61, 127
2, 7440, Note_on_c, 1, 68, 127
2, 7440, Note_on_c, 1, 75, 127
2, 7480, Note_off_c, 1, 58, 0
2, 7480, Note_off_c, 1, 61, 0
2, 7480, Note_off_c, 1, 68, 0
2, 7480, Note_off_c, 1, 75, 0
2, 7520, Note_on_c, 1, 56, 127
2, 7520, Note_on_c, 1, 60, 127
2, 7520, Note_on_c, 1, 66, 127
2, 7520, Note_on_c, 1, 68, 127
2, 7520, Note_on_c, 1, 75, 127
2, 7760, Note_off_c, 1, 68, 0
2, 7800, Note_off_c, 1, 56, 0
2, 7800, Note_off_c, 1, 60, 0
2, 7800, Note_off_c, 1, 66, 0
2, 7800, Note_off_c, 1, 75, 0
2, 7840, Note_on_c, 1, 56, 127
2, 7840, Note_on_c, 1, 63, 127
2, 7840, Note_on_c, 1, 66, 127
2, 7840, Note_on_c, 1, 68, 127
2, 8080, Note_off_c, 1, 56, 0
2, 8080, Note_off_c, 1, 63, 0
2, 8080, Note_off_c, 1, 66, 0
2, 8080, Note_off_c, 1, 68, 0
2, 8120, Note_on_c, 1, 37, 127
2, 8120, Note_on_c, 1, 49, 127
2, 8120, Note_on_c, 1, 64, 127
2, 8120, Note_on_c, 1, 68, 127
2, 8120, Note_on_c, 1, 73, 127
2, 8200, Note_off_c, 1, 64, 0
2, 8320, Note_off_c, 1, 37, 0
2, 8320, Note_on_c, 1, 42, 127
2, 8320, Note_off_c, 1, 49, 0
2, 8320, Note_on_c, 1, 54, 127
2, 8320, Note_on_c, 1, 61, 127
2, 8320, Note_on_c, 1, 66, 127
2, 8320, Note_off_c, 1, 68, 0
2, 8320, Note_on_c, 1, 70, 127
2, 8320, Note_off_c, 1, 73, 0
2, 8360, Note_off_c, 1, 42, 0
2, 8360, Note_off_c, 1, 54, 0
2, 8360, Note_off_c, 1, 61, 0
2, 8360, Note_off_c, 1, 66, 0
2, 8360, Note_off_c, 1, 70, 0
2, 8400, Note_on_c, 1, 48, 127
2, 8400, Note_on_c, 1, 64, 127
2, 8400, Note_on_c, 1, 69, 127
2, 8400, Note_on_c, 1, 73, 127
2, 8440, Note_off_c, 1, 48, 0
2, 8520, Note_on_c, 1, 49, 127
2, 8560, Note_off_c, 1, 49, 0
2, 8640, Note_on_c, 1, 52, 127
2, 8680, Note_off_c, 1, 52, 0
2, 8680, Note_off_c, 1, 64, 0
2, 8680, Note_off_c, 1, 69, 0
2, 8680, Note_off_c, 1, 73, 0
2, 8720, Note_on_c, 1, 47, 127
2, 8720, Note_on_c, 1, 63, 127
2, 8720, Note_on_c, 1, 69, 127
2, 8720, Note_on_c, 1, 73, 127
2, 8760, Note_off_c, 1, 47, 0
2, 8760, Note_off_c, 1, 63, 0
2, 8760, Note_off_c, 1, 69, 0
2, 8760, Note_off_c, 1, 73, 0
2, 8800, Note_on_c, 1, 61, 127
2, 8800, Note_on_c, 1, 66, 127
2, 8800, Note_on_c, 1, 69, 127
2, 8800, Note_on_c, 1, 73, 127
2, 8800, Note_on_c, 1, 76, 127
2, 8960, Note_off_c, 1, 61, 0
2, 8960, Note_off_c, 1, 66, 0
2, 8960, Note_off_c, 1, 76, 0
2, 9000, Note_on_c, 1, 45, 127
2, 9160, Note_off_c, 1, 45, 0
2, 9200, Note_on_c, 1, 40, 127
2, 9200, Note_on_c, 1, 47, 127
2, 9200, Note_on_c, 1, 52, 127
2, 9200, Note_off_c, 1, 69, 0
2, 9200, Note_off_c, 1, 73, 0
2, 9200, Note_on_c, 1, 76, 127
2, 9200, Note_on_c, 1, 79, 127
2, 9200, Note_on_c, 1, 83, 127
2, 9360, Note_off_c, 1, 76, 0
2, 9360, Note_off_c, 1, 79, 0
2, 9360, Note_off_c, 1, 83, 0
2, 9400, Note_off_c, 1, 40, 0
2, 9400, Note_off_c, 1, 47, 0
2, 9400, Note_off_c, 1, 52, 0
2, 9400, Note_on_c, 1, 54, 127
2, 9400, Note_on_c, 1, 60, 127
2, 9400, Note_on_c, 1, 78, 127
2, 9400, Note_on_c, 1, 90, 127
2, 9520, Note_off_c, 1, 54, 0
2, 9520, Note_on_c, 1, 58, 127
2, 9520, Note_off_c, 1, 60, 0
2, 9520, Note_on_c, 1, 67, 127
2, 9520, Note_on_c, 1, 70, 127
2, 9520, Note_on_c, 1, 76, 127
2, 9520, Note_off_c, 1, 78, 0
2, 9520, Note_on_c, 1, 85, 127
2, 9520, Note_off_c, 1, 90, 0
2, 9560, Note_off_c, 1, 58, 0
2, 9560, Note_off_c, 1, 67, 0
2, 9560, Note_off_c, 1, 70, 0
2, 9560, Note_off_c, 1, 76, 0
2, 9560, Note_off_c, 1, 85, 0
2, 9640, Note_on_c, 1, 53, 127
2, 9640, Note_on_c, 1, 57, 127
2, 9640, Note_on_c, 1, 59, 127
2, 9640, Note_on_c, 1, 62, 127
2, 9760, Note_on_c, 1, 52, 127
2, 9760, Note_off_c, 1, 53, 0
2, 9760, Note_on_c, 1, 56, 127
2, 9760, Note_off_c, 1, 57, 0
2, 9760, Note_off_c, 1, 62, 0
2, 9760, Note_on_c, 1, 64, 127
2, 10000, Note_off_c, 1, 52, 0
2, 10000, Note_off_c, 1, 56, 0
2, 10000, Note_off_c, 1, 59, 0
2, 10000, Note_off_c, 1, 64, 0
2, 10040, Note_on_c, 1, 42, 127
2, 10040, Note_on_c, 1, 49, 127
2, 10080, Note_on_c, 1, 37, 127
2, 10080, Note_off_c, 1, 42, 0
2, 10080, Note_off_c, 1, 49, 0
2, 10080, Note_on_c, 1, 54, 127
2, 10080, Note_on_c, 1, 59, 127
2, 10080, Note_on_c, 1, 63, 127
2, 10200, Note_on_c, 1, 35, 127
2, 10200, Note_off_c, 1, 37, 0
2, 10240, Note_off_c, 1, 35, 0
2, 10240, Note_on_c, 1, 37, 127
2, 10680, Note_on_c, 1, 68, 127
2, 10720, Note_off_c, 1, 37, 0
2, 10720, Note_off_c, 1, 54, 0
2, 10720, Note_off_c, 1, 59, 0
2, 10720, Note_off_c, 1, 63, 0
2, 10720, Note_off_c, 1, 68, 0
2, 10880, Note_on_c, 1, 58, 127
2, 10960, Note_off_c, 1, 58, 0
2, 10960, Note_on_c, 1, 59, 127
2, 11040, Note_off_c, 1, 59, 0
2, 11040, Note_on_c, 1, 63, 127
2, 11080, Note_on_c, 1, 35, 127
2, 11080, Note_off_c, 1, 63, 0
2, 11080, Note_on_c, 1, 66, 127
2, 11120, Note_off_c, 1, 66, 0
2, 11160, Note_off_c, 1, 35, 0
2, 11160, Note_on_c, 1, 44, 127
2, 11160, Note_on_c, 1, 72, 127
2, 11160, Note_on_c, 1, 75, 127
2, 11200, Note_off_c, 1, 44, 0
2, 11200, Note_off_c, 1, 72, 0
2, 11200, Note_off_c, 1, 75, 0
2, 11240, Note_on_c, 1, 47, 127
2, 11240, Note_on_c, 1, 71, 127
2, 11240, Note_on_c, 1, 75, 127
2, 11640, Note_off_c, 1, 47, 0
2, 11640, Note_off_c, 1, 71, 0
2, 11640, Note_off_c, 1, 75, 0
2, 11680, Note_on_c, 1, 70, 127
2, 11680, Note_on_c, 1, 75, 127
2, 11720, Note_on_c, 1, 35, 127
2, 11720, Note_off_c, 1, 70, 0
2, 11720, Note_on_c, 1, 71, 127
2, 11960, Note_off_c, 1, 35, 0
2, 11960, Note_on_c, 1, 47, 127
2, 11960, Note_on_c, 1, 66, 127
2, 11960, Note_off_c, 1, 71, 0
2, 11960, Note_off_c, 1, 75, 0
2, 12000, Note_off_c, 1, 66, 0
2, 12000, Note_on_c, 1, 71, 127
2, 12000, Note_on_c, 1, 75, 127
2, 12080, Note_off_c, 1, 71, 0
2, 12080, Note_off_c, 1, 75, 0
2, 12120, Note_on_c, 1, 54, 127
2, 12120, Note_on_c, 1, 75, 127
2, 12160, Note_on_c, 1, 71, 127
2, 12360, Note_off_c, 1, 71, 0
2, 12360, Note_off_c, 1, 75, 0
2, 12400, Note_on_c, 1, 71, 127
2, 12400, Note_on_c, 1, 75, 127
2, 12480, Note_off_c, 1, 47, 0
2, 12480, Note_off_c, 1, 54, 0
2, 12480, Note_off_c, 1, 71, 0
2, 12480, Note_off_c, 1, 75, 0
2, 12520, Note_on_c, 1, 48, 127
2, 12520, Note_on_c, 1, 59, 127
2, 12520, Note_on_c, 1, 77, 127
2, 12560, Note_off_c, 1, 48, 0
2, 12560, Note_on_c, 1, 72, 127
2, 12560, Note_on_c, 1, 75, 127
2, 12560, Note_off_c, 1, 77, 0
2, 12600, Note_off_c, 1, 59, 0
2, 12600, Note_on_c, 1, 62, 127
2, 12600, Note_on_c, 1, 64, 127
2, 12600, Note_on_c, 1, 65, 127
2, 12600, Note_off_c, 1, 72, 0
2, 12600, Note_off_c, 1, 75, 0
2, 12600, Note_on_c, 1, 76, 127
2, 12640, Note_on_c, 1, 59, 127
2, 12640, Note_off_c, 1, 62, 0
2, 12640, Note_off_c, 1, 64, 0
2, 12640, Note_off_c, 1, 65, 0
2, 12640, Note_on_c, 1, 72, 127
2, 12640, Note_on_c, 1, 75, 127
2, 12640, Note_off_c, 1, 76, 0
2, 12720, Note_off_c, 1, 72, 0
2, 12720, Note_off_c, 1, 75, 0
2, 12760, Note_on_c, 1, 82, 127
2, 12800, Note_off_c, 1, 82, 0
2, 12840, Note_on_c, 1, 83, 127
2, 12880, Note_on_c, 1, 55, 127
2, 12880, Note_off_c, 1, 59, 0
2, 12880, Note_on_c, 1, 61, 127
2, 12880, Note_off_c, 1, 83, 0
2, 12880, Note_on_c, 1, 85, 127
2, 12920, Note_off_c, 1, 55, 0
2, 12920, Note_off_c, 1, 85, 0
2, 12920, Note_on_c, 1, 86, 127
2, 13000, Note_on_c, 1, 57, 127
2, 13000, Note_off_c, 1, 61, 0
2, 13000, Note_on_c, 1, 64, 127
2, 13000, Note_on_c, 1, 69, 127
2, 13000, Note_off_c, 1, 86, 0
2, 13000, Note_on_c, 1, 87, 127
2, 13040, Note_on_c, 1, 48, 127
2, 13040, Note_off_c, 1, 57, 0
2, 13040, Note_off_c, 1, 64, 0
2, 13040, Note_off_c, 1, 69, 0
2, 13040, Note_on_c, 1, 77, 127
2, 13040, Note_on_c, 1, 83, 127
2, 13040, Note_off_c, 1, 87, 0
2, 13040, Note_on_c, 1, 91, 127
2, 13080, Note_off_c, 1, 48, 0
2, 13080, Note_on_c, 1, 57, 127
2, 13080, Note_off_c, 1, 77, 0
2, 13080, Note_on_c, 1, 81, 127
2, 13080, Note_off_c, 1, 83, 0
2, 13080, Note_on_c, 1, 86, 127
2, 13080, Note_off_c, 1, 91, 0
2, 13120, Note_off_c, 1, 57, 0
2, 13120, Note_on_c, 1, 59, 127
2, 13120, Note_off_c, 1, 81, 0
2, 13120, Note_off_c, 1, 86, 0
2, 13160, Note_on_c, 1, 49, 127
2, 13160, Note_off_c, 1, 59, 0
2, 13160, Note_on_c, 1, 80, 127
2, 13200, Note_off_c, 1, 49, 0
2, 13200, Note_on_c, 1, 56, 127
2, 13200, Note_off_c, 1, 80, 0
2, 13240, Note_off_c, 1, 56, 0
2, 13240, Note_on_c, 1, 78, 127
2, 13280, Note_on_c, 1, 56, 127
2, 13280, Note_off_c, 1, 78, 0
2, 13320, Note_on_c, 1, 76, 127
2, 13360, Note_on_c, 1, 54, 127
2, 13360, Note_off_c, 1, 56, 0
2, 13360, Note_off_c, 1, 76, 0
2, 13360, Note_on_c, 1, 78, 127
2, 13400, Note_off_c, 1, 54, 0
2, 13400, Note_on_c, 1, 61, 127
2, 13400, Note_off_c, 1, 78, 0
2, 13400, Note_on_c, 1, 80, 127
2, 13440, Note_on_c, 1, 56, 127
2, 13440, Note_off_c, 1, 61, 0
2, 13440, Note_on_c, 1, 64, 127
2, 13440, Note_off_c, 1, 80, 0
2, 13440, Note_on_c, 1, 83, 127
2, 13640, Note_on_c, 1, 76, 127
2, 13640, Note_off_c, 1, 83, 0
2, 13680, Note_off_c, 1, 56, 0
2, 13680, Note_off_c, 1, 64, 0
2, 13680, Note_off_c, 1, 76, 0
2, 13720, Note_on_c, 1, 56, 127
2, 13720, Note_on_c, 1, 64, 127
2, 13720, Note_on_c, 1, 76, 127
2, 13760, Note_on_c, 1, 73, 127
2, 13760, Note_off_c, 1, 76, 0
2, 13800, Note_off_c, 1, 73, 0
2, 13840, Note_on_c, 1, 76, 127
2, 13880, Note_off_c, 1, 56, 0
2, 13880, Note_on_c, 1, 59, 127
2, 13880, Note_on_c, 1, 63, 127
2, 13880, Note_off_c, 1, 64, 0
2, 13880, Note_off_c, 1, 76, 0
2, 13880, Note_on_c, 1, 79, 127
2, 13920, Note_on_c, 1, 52, 127
2, 13920, Note_on_c, 1, 56, 127
2, 13920, Note_off_c, 1, 59, 0
2, 13920, Note_off_c, 1, 63, 0
2, 13920, Note_on_c, 1, 78, 127
2, 13920, Note_off_c, 1, 79, 0
2, 13960, Note_off_c, 1, 52, 0
2, 14040, Note_on_c, 1, 86, 127
2, 14080, Note_on_c, 1, 64, 127
2, 14080, Note_off_c, 1, 78, 0
2, 14080, Note_on_c, 1, 80, 127
2, 14080, Note_off_c, 1, 86, 0
2, 14120, Note_on_c, 1, 49, 127
2, 14120, Note_on_c, 1, 54, 127
2, 14120, Note_off_c, 1, 56, 0
2, 14120, Note_off_c, 1, 64, 0
2, 14120, Note_on_c, 1, 66, 127
2, 14120, Note_on_c, 1, 75, 127
2, 14120, Note_off_c, 1, 80, 0
2, 14160, Note_off_c, 1, 49, 0
2, 14160, Note_off_c, 1, 54, 0
2, 14160, Note_on_c, 1, 56, 127
2, 14160, Note_off_c, 1, 66, 0
2, 14160, Note_off_c, 1, 75, 0
2, 14160, Note_on_c, 1, 78, 127
2, 14200, Note_off_c, 1, 56, 0
2, 14200, Note_on_c, 1, 75, 127
2, 14200, Note_on_c, 1, 76, 127
2, 14200, Note_off_c, 1, 78, 0
2, 14240, Note_on_c, 1, 52, 127
2, 14240, Note_on_c, 1, 56, 127
2, 14240, Note_off_c, 1, 75, 0
2, 14240, Note_off_c, 1, 76, 0
2, 14240, Note_on_c, 1, 78, 127
2, 14280, Note_off_c, 1, 78, 0
2, 14320, Note_off_c, 1, 52, 0
2, 14320, Note_on_c, 1, 59, 127
2, 14320, Note_on_c, 1, 75, 127
2, 14360, Note_off_c, 1, 59, 0
2, 14360, Note_off_c, 1, 75, 0
2, 14360, Note_on_c, 1, 76, 127
2, 14400, Note_off_c, 1, 56, 0
2, 14400, Note_on_c, 1, 61, 127
2, 14400, Note_on_c, 1, 68, 127
2, 14400, Note_off_c, 1, 76, 0
2, 14400, Note_on_c, 1, 78, 127
2, 14400, Note_on_c, 1, 82, 127
2, 14400, Note_on_c, 1, 90, 127
2, 14440, Note_on_c, 1, 54, 127
2, 14440, Note_on_c, 1, 57, 127
2, 14440, Note_on_c, 1, 60, 127
2, 14440, Note_off_c, 1, 61, 0
2, 14440, Note_on_c, 1, 63, 127
2, 14440, Note_off_c, 1, 68, 0
2, 14440, Note_on_c, 1, 75, 127
2, 14440, Note_on_c, 1, 81, 127
2, 14440, Note_off_c, 1, 82, 0
2, 14440, Note_on_c, 1, 84, 127
2, 14440, Note_off_c, 1, 90, 0
2, 14480, Note_on_c, 1, 37, 127
2, 14480, Note_on_c, 1, 42, 127
2, 14480, Note_on_c, 1, 45, 127
2, 14480, Note_on_c, 1, 49, 127
2, 14480, Note_off_c, 1, 54, 0
2, 14480, Note_off_c, 1, 57, 0
2, 14480, Note_off_c, 1, 60, 0
2, 14480, Note_off_c, 1, 63, 0
2, 14480, Note_off_c, 1, 75, 0
2, 14480, Note_off_c, 1, 78, 0
2, 14480, Note_off_c, 1, 81, 0
2, 14480, Note_off_c, 1, 84, 0
2, 14480, Note_on_c, 1, 85, 127
2, 14480, Note_on_c, 1, 90, 127
2, 14480, Note_on_c, 1, 93, 127
2, 14480, Note_on_c, 1, 97, 127
2, 14520, Note_off_c, 1, 37, 0
2, 14520, Note_off_c, 1, 42, 0
2, 14520, Note_off_c, 1, 45, 0
2, 14520, Note_off_c, 1, 49, 0
2, 14520, Note_on_c, 1, 61, 127
2, 14520, Note_off_c, 1, 85, 0
2, 14520, Note_on_c, 1, 86, 127
2, 14520, Note_off_c, 1, 90, 0
2, 14520, Note_off_c, 1, 93, 0
2, 14520, Note_off_c, 1, 97, 0
2, 14560, Note_on_c, 1, 60, 127
2, 14560, Note_off_c, 1, 61, 0
2, 14560, Note_on_c, 1, 66, 127
2, 14560, Note_on_c, 1, 72, 127
2, 14560, Note_on_c, 1, 84, 127
2, 14560, Note_off_c, 1, 86, 0
2, 14600, Note_on_c, 1, 56, 127
2, 14600, Note_on_c, 1, 58, 127
2, 14600, Note_off_c, 1, 60, 0
2, 14600, Note_on_c, 1, 61, 127
2, 14600, Note_on_c, 1, 63, 127
2, 14600, Note_off_c, 1, 66, 0
2, 14600, Note_off_c, 1, 72, 0
2, 14600, Note_on_c, 1, 79, 127
2, 14600, Note_off_c, 1, 84, 0
2, 14640, Note_on_c, 1, 54, 127
2, 14640, Note_off_c, 1, 56, 0
2, 14640, Note_off_c, 1, 58, 0
2, 14640, Note_on_c, 1, 60, 127
2, 14640, Note_off_c, 1, 61, 0
2, 14640, Note_off_c, 1, 63, 0
2, 14640, Note_off_c, 1, 79, 0
2, 14640, Note_on_c, 1, 82, 127
2, 14680, Note_off_c, 1, 54, 0
2, 14680, Note_on_c, 1, 56, 127
2, 14680, Note_off_c, 1, 60, 0
2, 14680, Note_on_c, 1, 71, 127
2, 14680, Note_off_c, 1, 82, 0
2, 14680, Note_on_c, 1, 83, 127
2, 14720, Note_on_c, 1, 54, 127
2, 14720, Note_off_c, 1, 56, 0
2, 14720, Note_on_c, 1, 58, 127
2, 14720, Note_on_c, 1, 64, 127
2, 14720, Note_off_c, 1, 71, 0
2, 14720, Note_on_c, 1, 73, 127
2, 14720, Note_on_c, 1, 76, 127
2, 14720, Note_off_c, 1, 83, 0
2, 14760, Note_on_c, 1, 44, 127
2, 14760, Note_on_c, 1, 45, 127
2, 14760, Note_off_c, 1, 54, 0
2, 14760, Note_on_c, 1, 56, 127
2, 14760, Note_on_c, 1, 57, 127
2, 14760, Note_off_c, 1, 58, 0
2, 14760, Note_off_c, 1, 64, 0
2, 14760, Note_off_c, 1, 73, 0
2, 14760, Note_off_c, 1, 76, 0
2, 14800, Note_off_c, 1, 44, 0
2, 14800, Note_off_c, 1, 45, 0
2, 14800, Note_off_c, 1, 56, 0
2, 14800, Note_off_c, 1, 57, 0
2, 14800, Note_on_c, 1, 76, 127
2, 14800, Note_on_c, 1, 78, 127
2, 14800, Note_on_c, 1, 82, 127
2, 14840, Note_on_c, 1, 57, 127
2, 14840, Note_on_c, 1, 58, 127
2, 14840, Note_off_c, 1, 76, 0
2, 14840, Note_off_c, 1, 78, 0
2, 14840, Note_off_c, 1, 82, 0
2, 14880, Note_off_c, 1, 57, 0
2, 14880, Note_on_c, 1, 65, 127
2, 14880, Note_on_c, 1, 77, 127
2, 14880, Note_on_c, 1, 82, 127
2, 14920, Note_off_c, 1, 65, 0
2, 14920, Note_off_c, 1, 77, 0
2, 14920, Note_off_c, 1, 82, 0
2, 14960, Note_on_c, 1, 80, 127
2, 15000, Note_off_c, 1, 80, 0
2, 15040, Note_on_c, 1, 54, 127
2, 15040, Note_off_c, 1, 58, 0
2, 15040, Note_on_c, 1, 62, 127
2, 15040, Note_on_c, 1, 78, 127
2, 15080, Note_off_c, 1, 54, 0
2, 15080, Note_on_c, 1, 56, 127
2, 15080, Note_on_c, 1, 59, 127
2, 15080, Note_off_c, 1, 62, 0
2, 15120, Note_off_c, 1, 56, 0
2, 15120, Note_off_c, 1, 59, 0
2, 15160, Note_on_c, 1, 56, 127
2, 15160, Note_off_c, 1, 78, 0
2, 15160, Note_on_c, 1, 88, 127
2, 15200, Note_off_c, 1, 56, 0
2, 15200, Note_on_c, 1, 59, 127
2, 15200, Note_on_c, 1, 83, 127
2, 15200, Note_on_c, 1, 85, 127
2, 15200, Note_off_c, 1, 88, 0
2, 15240, Note_off_c, 1, 59, 0
2, 15240, Note_off_c, 1, 83, 0
2, 15240, Note_off_c, 1, 85, 0
2, 15280, Note_on_c, 1, 58, 127
2, 15280, Note_on_c, 1, 85, 127
2, 15360, Note_on_c, 1, 84, 127
2, 15360, Note_off_c, 1, 85, 0
2, 15400, Note_on_c, 1, 32, 127
2, 15400, Note_on_c, 1, 44, 127
2, 15400, Note_on_c, 1, 49, 127
2, 15400, Note_on_c, 1, 56, 127
2, 15400, Note_off_c, 1, 84, 0
2, 15440, Note_on_c, 1, 52, 127
2, 15440, Note_off_c, 1, 56, 0
2, 15440, Note_off_c, 1, 58, 0
2, 15480, Note_off_c, 1, 32, 0
2, 15480, Note_off_c, 1, 44, 0
2, 15480, Note_on_c, 1, 45, 127
2, 15480, Note_off_c, 1, 49, 0
2, 15480, Note_off_c, 1, 52, 0
2, 15480, Note_on_c, 1, 77, 127
2, 15480, Note_on_c, 1, 83, 127
2, 15480, Note_on_c, 1, 89, 127
2, 15520, Note_off_c, 1, 45, 0
2, 15520, Note_on_c, 1, 46, 127
2, 15520, Note_on_c, 1, 54, 127
2, 15520, Note_on_c, 1, 61, 127
2, 15520, Note_off_c, 1, 77, 0
2, 15520, Note_off_c, 1, 89, 0
2, 15560, Note_on_c, 1, 28, 127
2, 15560, Note_on_c, 1, 40, 127
2, 15560, Note_off_c, 1, 46, 0
2, 15560, Note_off_c, 1, 54, 0
2, 15560, Note_off_c, 1, 61, 0
2, 15560, Note_on_c, 1, 70, 127
2, 15560, Note_off_c, 1, 83, 0
2, 15600, Note_off_c, 1, 28, 0
2, 15600, Note_off_c, 1, 40, 0
2, 15600, Note_on_c, 1, 54, 127
2, 15600, Note_on_c, 1, 58, 127
2, 15600, Note_on_c, 1, 64, 127
2, 15600, Note_on_c, 1, 66, 127
2, 15600, Note_off_c, 1, 70, 0
2, 15600, Note_on_c, 1, 78, 127
2, 15640, Note_off_c, 1, 54, 0
2, 15640, Note_off_c, 1, 58, 0
2, 15640, Note_off_c, 1, 64, 0
2, 15640, Note_off_c, 1, 66, 0
2, 15640, Note_on_c, 1, 70, 127
2, 15640, Note_off_c, 1, 78, 0
2, 15680, Note_on_c, 1, 58, 127
2, 15680, Note_on_c, 1, 61, 127
2, 15680, Note_on_c, 1, 64, 127
2, 15680, Note_off_c, 1, 70, 0
2, 15720, Note_off_c, 1, 58, 0
2, 15720, Note_off_c, 1, 64, 0
2, 15840, Note_off_c, 1, 61, 0
2, 15880, Note_on_c, 1, 59, 127
2, 15880, Note_on_c, 1, 64, 127
2, 15880, Note_on_c, 1, 68, 127
2, 15880, Note_on_c, 1, 71, 127
2, 15920, Note_off_c, 1, 59, 0
2, 15920, Note_on_c, 1, 61, 127
2, 15920, Note_off_c, 1, 64, 0
2, 15920, Note_on_c, 1, 65, 127
2, 15920, Note_off_c, 1, 71, 0
2, 15920, Note_on_c, 1, 80, 127
2, 16000, Note_off_c, 1, 61, 0
2, 16000, Note_off_c, 1, 65, 0
2, 16000, Note_off_c, 1, 68, 0
2, 16000, Note_off_c, 1, 80, 0
2, 16040, Note_on_c, 1, 44, 127
2, 16040, Note_on_c, 1, 54, 127
2, 16040, Note_on_c, 1, 60, 127
2, 16040, Note_on_c, 1, 64, 127
2, 16080, Note_off_c, 1, 44, 0
2, 16080, Note_off_c, 1, 54, 0
2, 16080, Note_on_c, 1, 57, 127
2, 16080, Note_on_c, 1, 63, 127
2, 16080, Note_off_c, 1, 64, 0
2, 16080, Note_on_c, 1, 72, 127
2, 16080, Note_on_c, 1, 78, 127
2, 16080, Note_on_c, 1, 83, 127
2, 16120, Note_on_c, 1, 44, 127
2, 16120, Note_on_c, 1, 54, 127
2, 16120, Note_off_c, 1, 57, 0
2, 16120, Note_off_c, 1, 63, 0
2, 16120, Note_on_c, 1, 64, 127
2, 16120, Note_off_c, 1, 72, 0
2, 16120, Note_off_c, 1, 78, 0
2, 16120, Note_off_c, 1, 83, 0
2, 16280, Note_off_c, 1, 44, 0
2, 16280, Note_off_c, 1, 54, 0
2, 16280, Note_off_c, 1, 60, 0
2, 16280, Note_off_c, 1, 64, 0
2, 16440, Note_on_c, 1, 49, 127
2, 16440, Note_on_c, 1, 56, 127
2, 16440, Note_on_c, 1, 61, 127
2, 16440, Note_on_c, 1, 64, 127
2, 17200, Note_off_c, 1, 49, 0
2, 17200, Note_off_c, 1, 56, 0
2, 17200, Note_off_c, 1, 61, 0
2, 17200, Note_off_c, 1, 64, 0
2, 18160, Note_on_c, 1, 47, 127
2, 18600, Note_off_c, 1, 47, 0
2, 18640, Note_on_c, 1, 49, 127
2, 19160, Note_off_c, 1, 49, 0
2, 19200, Note_on_c, 1, 49, 127
2, 19560, Note_off_c, 1, 49, 0
2, 19600, Note_on_c, 1, 51, 127
2, 19960, Note_off_c, 1, 51, 0
2, 20000, Note_on_c, 1, 56, 127
2, 20000, Note_on_c, 1, 60, 127
2, 20000, Note_on_c, 1, 63, 127
2, 20000, Note_on_c, 1, 68, 127
2, 20000, Note_on_c, 1, 72, 127
2, 20360, Note_off_c, 1, 68, 0
2, 20360, Note_off_c, 1, 72, 0
2, 20440, Note_on_c, 1, 55, 127
2, 20440, Note_off_c, 1, 56, 0
2, 20760, Note_off_c, 1, 55, 0
2, 20760, Note_off_c, 1, 60, 0
2, 20760, Note_off_c, 1, 63, 0
2, 20840, Note_on_c, 1, 44, 127
2, 20840, Note_on_c, 1, 56, 127
2, 20840, Note_on_c, 1, 65, 127
2, 20840, Note_on_c, 1, 68, 127
2, 21200, Note_off_c, 1, 44, 0
2, 21200, Note_off_c, 1, 56, 0
2, 21200, Note_off_c, 1, 65, 0
2, 21200, Note_off_c, 1, 68, 0
2, 21240, Note_on_c, 1, 41, 127
2, 21240, Note_on_c, 1, 50, 127
2, 21240, Note_on_c, 1, 58, 127
2, 21600, Note_off_c, 1, 41, 0
2, 21600, Note_off_c, 1, 50, 0
2, 21600, Note_off_c, 1, 58, 0
2, 21640, Note_on_c, 1, 42, 127
2, 21640, Note_on_c, 1, 55, 127
2, 21640, Note_on_c, 1, 58, 127
2, 21640, Note_on_c, 1, 61, 127
2, 22000, Note_off_c, 1, 55, 0
2, 22040, Note_on_c, 1, 55, 127
2, 22320, Note_off_c, 1, 55, 0
2, 22360, Note_on_c, 1, 55, 127
2, 22400, Note_off_c, 1, 55, 0
2, 22440, Note_on_c, 1, 55, 127
2, 22720, Note_off_c, 1, 55, 0
2, 22760, Note_off_c, 1, 42, 0
2, 22760, Note_off_c, 1, 58, 0
2, 22760, Note_off_c, 1, 61, 0
2, 22800, Note_on_c, 1, 42, 127
2, 22800, Note_on_c, 1, 55, 127
2, 22800, Note_on_c, 1, 58, 127
2, 22800, Note_on_c, 1, 61, 127
2, 22840, Note_off_c, 1, 55, 0
2, 22880, Note_on_c, 1, 55, 127
2, 23120, Note_off_c, 1, 55, 0
2, 23280, Note_off_c, 1, 42, 0
2, 23280, Note_on_c, 1, 49, 127
2, 23280, Note_on_c, 1, 52, 127
2, 23280, Note_off_c, 1, 61, 0
2, 23280, Note_on_c, 1, 66, 127
2, 23640, Note_off_c, 1, 49, 0
2, 23640, Note_off_c, 1, 52, 0
2, 23640, Note_off_c, 1, 58, 0
2, 23640, Note_off_c, 1, 66, 0
2, 23680, Note_on_c, 1, 48, 127
2, 23680, Note_on_c, 1, 51, 127
2, 23680, Note_on_c, 1, 60, 127
2, 23680, Note_on_c, 1, 63, 127
2, 23680, Note_on_c, 1, 68, 127
2, 23680, Note_on_c, 1, 75, 127
2, 24640, Note_on_c, 1, 46, 127
2, 24640, Note_off_c, 1, 48, 0
2, 24640, Note_on_c, 1, 58, 127
2, 24640, Note_off_c, 1, 60, 0
2, 24640, Note_on_c, 1, 61, 127
2, 24640, Note_off_c, 1, 63, 0
2, 24640, Note_on_c, 1, 73, 127
2, 24640, Note_off_c, 1, 75, 0
2, 24680, Note_off_c, 1, 46, 0
2, 24680, Note_off_c, 1, 51, 0
2, 24680, Note_off_c, 1, 58, 0
2, 24680, Note_off_c, 1, 61, 0
2, 24680, Note_off_c, 1, 68, 0
2, 24680, Note_off_c, 1, 73, 0
2, 24720, Note_on_c, 1, 48, 127
2, 24720, Note_on_c, 1, 51, 127
2, 24720, Note_on_c, 1, 60, 127
2, 24720, Note_on_c, 1, 63, 127
2, 24720, Note_on_c, 1, 68, 127
2, 24720, Note_on_c, 1, 75, 127
2, 25280, Note_off_c, 1, 48, 0
2, 25280, Note_off_c, 1, 51, 0
2, 25280, Note_off_c, 1, 60, 0
2, 25280, Note_off_c, 1, 63, 0
2, 25280, Note_off_c, 1, 68, 0
2, 25280, Note_off_c, 1, 75, 0
2, 25320, Note_on_c, 1, 48, 127
2, 25320, Note_on_c, 1, 51, 127
2, 25320, Note_on_c, 1, 60, 127
2, 25320, Note_on_c, 1, 63, 127
2, 25320, Note_on_c, 1, 68, 127
2, 25320, Note_on_c, 1, 75, 127
2, 26080, Note_off_c, 1, 48, 0
2, 26080, Note_off_c, 1, 51, 0
2, 26080, Note_off_c, 1, 60, 0
2, 26080, Note_off_c, 1, 63, 0
2, 26080, Note_off_c, 1, 68, 0
2, 26080, Note_off_c, 1, 75, 0
2, 26120, Note_on_c, 1, 53, 127
2, 26120, Note_on_c, 1, 58, 127
2, 26120, Note_on_c, 1, 62, 127
2, 26120, Note_on_c, 1, 65, 127
2, 26120, Note_on_c, 1, 70, 127
2, 26120, Note_on_c, 1, 74, 127
2, 26520, Note_off_c, 1, 53, 0
2, 26520, Note_off_c, 1, 58, 0
2, 26520, Note_off_c, 1, 62, 0
2, 26520, Note_off_c, 1, 65, 0
2, 26520, Note_off_c, 1, 70, 0
2, 26520, Note_off_c, 1, 74, 0
2, 26600, Note_on_c, 1, 39, 127
2, 27320, Note_off_c, 1, 39, 0
2, 27360, Note_on_c, 1, 32, 127
2, 27720, Note_off_c, 1, 32, 0
2, 27760, Note_on_c, 1, 36, 127
2, 27760, Note_on_c, 1, 48, 127
2, 28640, Note_off_c, 1, 36, 0
2, 28640, Note_off_c, 1, 48, 0
2, 28680, Note_on_c, 1, 36, 127
2, 28680, Note_on_c, 1, 48, 127
2, 28800, Note_off_c, 1, 36, 0
2, 28800, Note_off_c, 1, 48, 0
2, 28840, Note_on_c, 1, 34, 127
2, 28840, Note_on_c, 1, 46, 127
2, 30280, Note_off_c, 1, 34, 0
2, 30280, Note_off_c, 1, 46, 0
2, 30320, Note_on_c, 1, 31, 127
2, 30320, Note_on_c, 1, 47, 127
2, 30320, Note_on_c, 1, 49, 127
2, 30320, Note_on_c, 1, 62, 127
2, 30360, Note_on_c, 1, 29, 127
2, 30360, Note_off_c, 1, 31, 0
2, 30360, Note_off_c, 1, 47, 0
2, 30360, Note_off_c, 1, 49, 0
2, 30360, Note_off_c, 1, 62, 0
2, 30360, Note_on_c, 1, 63, 127
2, 30360, Note_on_c, 1, 65, 127
2, 30360, Note_on_c, 1, 69, 127
2, 30360, Note_on_c, 1, 74, 127
2, 30360, Note_on_c, 1, 77, 127
2, 30840, Note_off_c, 1, 29, 0
2, 30840, Note_off_c, 1, 63, 0
2, 30840, Note_off_c, 1, 65, 0
2, 30840, Note_off_c, 1, 69, 0
2, 30840, Note_off_c, 1, 74, 0
2, 30840, Note_off_c, 1, 77, 0
2, 30880, Note_on_c, 1, 29, 127
2, 30880, Note_on_c, 1, 63, 127
2, 30880, Note_on_c, 1, 65, 127
2, 30880, Note_on_c, 1, 69, 127
2, 30880, Note_on_c, 1, 74, 127
2, 30880, Note_on_c, 1, 77, 127
2, 31120, Note_off_c, 1, 29, 0
2, 31120, Note_off_c, 1, 63, 0
2, 31120, Note_off_c, 1, 65, 0
2, 31120, Note_off_c, 1, 69, 0
2, 31120, Note_off_c, 1, 74, 0
2, 31120, Note_off_c, 1, 77, 0
2, 31160, Note_on_c, 1, 55, 127
2, 31160, Note_on_c, 1, 67, 127
2, 31160, Note_on_c, 1, 70, 127
2, 31160, Note_on_c, 1, 76, 127
2, 31160, Note_on_c, 1, 79, 127
2, 31440, Note_off_c, 1, 55, 0
2, 31440, Note_on_c, 1, 58, 127
2, 31480, Note_on_c, 1, 55, 127
2, 31480, Note_off_c, 1, 58, 0
2, 31520, Note_off_c, 1, 55, 0
2, 31520, Note_off_c, 1, 67, 0
2, 31520, Note_off_c, 1, 70, 0
2, 31520, Note_off_c, 1, 76, 0
2, 31520, Note_off_c, 1, 79, 0
2, 31560, Note_on_c, 1, 48, 127
2, 31560, Note_on_c, 1, 64, 127
2, 31560, Note_on_c, 1, 67, 127
2, 31560, Note_on_c, 1, 72, 127
2, 31560, Note_on_c, 1, 79, 127
2, 31920, Note_off_c, 1, 48, 0
2, 31920, Note_off_c, 1, 64, 0
2, 31920, Note_off_c, 1, 67, 0
2, 31920, Note_off_c, 1, 72, 0
2, 31920, Note_off_c, 1, 79, 0
2, 31960, Note_on_c, 1, 29, 127
2, 31960, Note_on_c, 1, 41, 127
2, 31960, Note_on_c, 1, 45, 127
2, 31960, Note_on_c, 1, 53, 127
2, 32000, Note_off_c, 1, 29, 0
2, 32000, Note_off_c, 1, 41, 0
2, 32000, Note_off_c, 1, 45, 0
2, 32000, Note_off_c, 1, 53, 0
2, 32040, Note_on_c, 1, 48, 127
2, 32040, Note_on_c, 1, 54, 127
2, 32040, Note_on_c, 1, 57, 127
2, 32040, Note_on_c, 1, 63, 127
2, 32040, Note_on_c, 1, 66, 127
2, 32040, Note_on_c, 1, 69, 127
2, 32200, Note_off_c, 1, 48, 0
2, 32200, Note_on_c, 1, 49, 127
2, 32200, Note_off_c, 1, 57, 0
2, 32200, Note_on_c, 1, 58, 127
2, 32200, Note_on_c, 1, 61, 127
2, 32200, Note_off_c, 1, 63, 0
2, 32200, Note_off_c, 1, 69, 0
2, 32200, Note_on_c, 1, 70, 127
2, 32400, Note_off_c, 1, 49, 0
2, 32400, Note_off_c, 1, 54, 0
2, 32400, Note_off_c, 1, 58, 0
2, 32400, Note_off_c, 1, 61, 0
2, 32400, Note_off_c, 1, 66, 0
2, 32400, Note_off_c, 1, 70, 0
2, 32440, Note_on_c, 1, 39, 127
2, 32440, Note_on_c, 1, 51, 127
2, 32440, Note_on_c, 1, 66, 127
2, 32440, Note_on_c, 1, 70, 127
2, 32440, Note_on_c, 1, 78, 127
2, 32480, Note_off_c, 1, 39, 0
2, 32480, Note_on_c, 1, 42, 127
2, 32480, Note_on_c, 1, 60, 127
2, 32480, Note_off_c, 1, 66, 0
2, 32480, Note_off_c, 1, 70, 0
2, 32480, Note_on_c, 1, 72, 127
2, 32480, Note_off_c, 1, 78, 0
2, 32600, Note_off_c, 1, 60, 0
2, 32600, Note_off_c, 1, 72, 0
2, 32640, Note_off_c, 1, 42, 0
2, 32640, Note_on_c, 1, 47, 127
2, 32640, Note_off_c, 1, 51, 0
2, 32640, Note_on_c, 1, 54, 127
2, 32640, Note_on_c, 1, 64, 127
2, 32640, Note_on_c, 1, 70, 127
2, 32640, Note_on_c, 1, 73, 127
2, 32840, Note_off_c, 1, 47, 0
2, 32840, Note_off_c, 1, 54, 0
2, 32840, Note_off_c, 1, 64, 0
2, 32840, Note_off_c, 1, 70, 0
2, 32840, Note_off_c, 1, 73, 0
2, 32920, Note_on_c, 1, 49, 127
2, 32920, Note_on_c, 1, 54, 127
2, 32920, Note_on_c, 1, 57, 127
2, 32920, Note_on_c, 1, 68, 127
2, 33080, Note_off_c, 1, 49, 0
2, 33080, Note_off_c, 1, 54, 0
2, 33080, Note_off_c, 1, 57, 0
2, 33120, Note_on_c, 1, 49, 127
2, 33120, Note_on_c, 1, 54, 127
2, 33120, Note_on_c, 1, 57, 127
2, 33280, Note_off_c, 1, 49, 0
2, 33280, Note_off_c, 1, 54, 0
2, 33280, Note_off_c, 1, 57, 0
2, 33280, Note_off_c, 1, 68, 0
2, 33320, Note_on_c, 1, 39, 127
2, 33320, Note_on_c, 1, 51, 127
2, 33320, Note_on_c, 1, 58, 127
2, 33320, Note_on_c, 1, 62, 127
2, 33320, Note_on_c, 1, 65, 127
2, 33320, Note_on_c, 1, 70, 127
2, 33360, Note_on_c, 1, 33, 127
2, 33360, Note_off_c, 1, 39, 0
2, 33360, Note_on_c, 1, 45, 127
2, 33360, Note_off_c, 1, 51, 0
2, 33360, Note_on_c, 1, 57, 127
2, 33360, Note_off_c, 1, 58, 0
2, 33360, Note_off_c, 1, 65, 0
2, 33360, Note_on_c, 1, 66, 127
2, 33360, Note_off_c, 1, 70, 0
2, 33400, Note_off_c, 1, 33, 0
2, 33400, Note_off_c, 1, 45, 0
2, 33400, Note_on_c, 1, 49, 127
2, 33400, Note_on_c, 1, 54, 127
2, 33400, Note_off_c, 1, 57, 0
2, 33400, Note_on_c, 1, 58, 127
2, 33400, Note_on_c, 1, 61, 127
2, 33400, Note_off_c, 1, 62, 0
2, 33400, Note_off_c, 1, 66, 0
2, 33400, Note_on_c, 1, 78, 127
2, 33400, Note_on_c, 1, 82, 127
2, 33400, Note_on_c, 1, 85, 127
2, 33400, Note_on_c, 1, 90, 127
2, 33440, Note_on_c, 1, 34, 127
2, 33440, Note_on_c, 1, 41, 127
2, 33440, Note_on_c, 1, 46, 127
2, 33440, Note_off_c, 1, 49, 0
2, 33440, Note_off_c, 1, 54, 0
2, 33440, Note_off_c, 1, 58, 0
2, 33440, Note_off_c, 1, 61, 0
2, 33440, Note_on_c, 1, 73, 127
2, 33440, Note_on_c, 1, 77, 127
2, 33440, Note_off_c, 1, 78, 0
2, 33440, Note_off_c, 1, 82, 0
2, 33440, Note_off_c, 1, 85, 0
2, 33440, Note_off_c, 1, 90, 0
2, 33480, Note_off_c, 1, 34, 0
2, 33480, Note_off_c, 1, 41, 0
2, 33480, Note_off_c, 1, 46, 0
2, 33480, Note_on_c, 1, 47, 127
2, 33480, Note_on_c, 1, 52, 127
2, 33480, Note_on_c, 1, 70, 127
2, 33480, Note_off_c, 1, 77, 0
2, 33520, Note_off_c, 1, 47, 0
2, 33520, Note_off_c, 1, 52, 0
2, 33520, Note_off_c, 1, 70, 0
2, 33520, Note_off_c, 1, 73, 0
2, 33560, Note_on_c, 1, 33, 127
2, 33560, Note_on_c, 1, 45, 127
2, 33560, Note_on_c, 1, 57, 127
2, 33560, Note_on_c, 1, 62, 127
2, 33560, Note_on_c, 1, 66, 127
2, 33720, Note_off_c, 1, 33, 0
2, 33720, Note_off_c, 1, 45, 0
2, 33720, Note_off_c, 1, 57, 0
2, 33720, Note_off_c, 1, 62, 0
2, 33720, Note_off_c, 1, 66, 0
2, 33760, Note_on_c, 1, 33, 127
2, 33760, Note_on_c, 1, 45, 127
2, 33760, Note_on_c, 1, 57, 127
2, 33760, Note_on_c, 1, 62, 127
2, 33760, Note_on_c, 1, 66, 127
2, 33960, Note_off_c, 1, 33, 0
2, 33960, Note_off_c, 1, 45, 0
2, 33960, Note_off_c, 1, 57, 0
2, 33960, Note_off_c, 1, 62, 0
2, 33960, Note_off_c, 1, 66, 0
2, 34000, Note_on_c, 1, 30, 127
2, 34000, Note_on_c, 1, 42, 127
2, 34000, Note_on_c, 1, 45, 127
2, 34400, Note_off_c, 1, 30, 0
2, 34400, Note_off_c, 1, 42, 0
2, 34400, Note_off_c, 1, 45, 0
2, 34440, Note_on_c, 1, 30, 127
2, 34440, Note_on_c, 1, 42, 127
2, 34440, Note_on_c, 1, 45, 127
2, 34840, Note_off_c, 1, 30, 0
2, 34840, Note_off_c, 1, 42, 0
2, 34840, Note_off_c, 1, 45, 0
2, 34920, Note_on_c, 1, 66, 127
2, 34920, Note_on_c, 1, 75, 127
2, 34920, Note_on_c, 1, 79, 127
2, 35080, Note_off_c, 1, 66, 0
2, 35120, Note_on_c, 1, 67, 127
2, 35280, Note_off_c, 1, 67, 0
2, 35280, Note_off_c, 1, 75, 0
2, 35280, Note_off_c, 1, 79, 0
2, 35320, Note_on_c, 1, 41, 127
2, 35320, Note_on_c, 1, 53, 127
2, 35320, Note_on_c, 1, 69, 127
2, 35320, Note_on_c, 1, 75, 127
2, 35360, Note_off_c, 1, 69, 0
2, 35480, Note_off_c, 1, 53, 0
2, 35480, Note_on_c, 1, 69, 127
2, 35520, Note_off_c, 1, 41, 0
2, 35520, Note_off_c, 1, 69, 0
2, 35520, Note_off_c, 1, 75, 0
2, 35560, Note_on_c, 1, 53, 127
2, 35560, Note_on_c, 1, 60, 127
2, 35560, Note_on_c, 1, 69, 127
2, 35560, Note_on_c, 1, 76, 127
2, 35720, Note_off_c, 1, 69, 0
2, 35720, Note_off_c, 1, 76, 0
2, 35760, Note_on_c, 1, 69, 127
2, 35760, Note_on_c, 1, 81, 127
2, 35920, Note_off_c, 1, 53, 0
2, 35920, Note_off_c, 1, 60, 0
2, 35920, Note_off_c, 1, 69, 0
2, 35920, Note_on_c, 1, 72, 127
2, 35920, Note_off_c, 1, 81, 0
2, 35960, Note_on_c, 1, 58, 127
2, 35960, Note_on_c, 1, 60, 127
2, 35960, Note_on_c, 1, 63, 127
2, 35960, Note_on_c, 1, 67, 127
2, 36000, Note_on_c, 1, 31, 127
2, 36000, Note_on_c, 1, 43, 127
2, 36000, Note_off_c, 1, 58, 0
2, 36000, Note_off_c, 1, 60, 0
2, 36000, Note_off_c, 1, 63, 0
2, 36000, Note_on_c, 1, 66, 127
2, 36000, Note_off_c, 1, 67, 0
2, 36000, Note_off_c, 1, 72, 0
2, 36000, Note_on_c, 1, 78, 127
2, 36040, Note_off_c, 1, 31, 0
2, 36040, Note_off_c, 1, 43, 0
2, 36040, Note_on_c, 1, 52, 127
2, 36040, Note_on_c, 1, 64, 127
2, 36040, Note_off_c, 1, 66, 0
2, 36040, Note_on_c, 1, 69, 127
2, 36040, Note_on_c, 1, 76, 127
2, 36040, Note_off_c, 1, 78, 0
2, 36080, Note_on_c, 1, 37, 127
2, 36080, Note_off_c, 1, 52, 0
2, 36080, Note_off_c, 1, 64, 0
2, 36080, Note_on_c, 1, 66, 127
2, 36080, Note_on_c, 1, 73, 127
2, 36080, Note_off_c, 1, 76, 0
2, 36120, Note_off_c, 1, 37, 0
2, 36120, Note_on_c, 1, 55, 127
2, 36120, Note_off_c, 1, 66, 0
2, 36120, Note_off_c, 1, 69, 0
2, 36120, Note_on_c, 1, 70, 127
2, 36120, Note_off_c, 1, 73, 0
2, 36120, Note_on_c, 1, 74, 127
2, 36120, Note_on_c, 1, 82, 127
2, 36160, Note_off_c, 1, 55, 0
2, 36160, Note_off_c, 1, 70, 0
2, 36160, Note_off_c, 1, 74, 0
2, 36160, Note_off_c, 1, 82, 0
2, 36200, Note_on_c, 1, 51, 127
2, 36200, Note_on_c, 1, 66, 127
2, 36200, Note_on_c, 1, 75, 127
2, 36240, Note_off_c, 1, 66, 0
2, 36280, Note_off_c, 1, 51, 0
2, 36280, Note_on_c, 1, 65, 127
2, 36280, Note_on_c, 1, 71, 127
2, 36280, Note_off_c, 1, 75, 0
2, 36280, Note_on_c, 1, 78, 127
2, 36280, Note_on_c, 1, 83, 127
2, 36320, Note_on_c, 1, 57, 127
2, 36320, Note_off_c, 1, 65, 0
2, 36320, Note_off_c, 1, 71, 0
2, 36320, Note_off_c, 1, 78, 0
2, 36320, Note_on_c, 1, 81, 127
2, 36320, Note_off_c, 1, 83, 0
2, 36320, Note_on_c, 1, 90, 127
2, 36320, Note_on_c, 1, 93, 127
2, 36360, Note_off_c, 1, 57, 0
2, 36360, Note_off_c, 1, 81, 0
2, 36360, Note_off_c, 1, 90, 0
2, 36360, Note_off_c, 1, 93, 0
2, 36400, Note_on_c, 1, 47, 127
2, 36400, Note_on_c, 1, 59, 127
2, 36400, Note_on_c, 1, 62, 127
2, 36400, Note_on_c, 1, 64, 127
2, 36400, Note_on_c, 1, 68, 127
2, 36560, Note_off_c, 1, 47, 0
2, 36560, Note_off_c, 1, 59, 0
2, 36560, Note_off_c, 1, 62, 0
2, 36560, Note_off_c, 1, 64, 0
2, 36560, Note_off_c, 1, 68, 0
2, 36600, Note_on_c, 1, 61, 127
2, 36600, Note_on_c, 1, 68, 127
2, 36600, Note_on_c, 1, 77, 127
2, 36600, Note_on_c, 1, 84, 127
2, 36800, Note_off_c, 1, 61, 0
2, 36800, Note_off_c, 1, 68, 0
2, 36800, Note_off_c, 1, 77, 0
2, 36800, Note_off_c, 1, 84, 0
2, 36840, Note_on_c, 1, 41, 127
2, 36840, Note_on_c, 1, 50, 127
2, 36840, Note_on_c, 1, 53, 127
2, 36840, Note_on_c, 1, 62, 127
2, 36840, Note_on_c, 1, 70, 127
2, 36840, Note_on_c, 1, 74, 127
2, 37000, Note_off_c, 1, 41, 0
2, 37000, Note_off_c, 1, 50, 0
2, 37000, Note_off_c, 1, 53, 0
2, 37000, Note_off_c, 1, 62, 0
2, 37000, Note_off_c, 1, 70, 0
2, 37000, Note_off_c, 1, 74, 0
2, 37040, Note_on_c, 1, 41, 127
2, 37040, Note_on_c, 1, 50, 127
2, 37040, Note_on_c, 1, 53, 127
2, 37040, Note_on_c, 1, 62, 127
2, 37040, Note_on_c, 1, 70, 127
2, 37040, Note_on_c, 1, 74, 127
2, 37240, Note_off_c, 1, 41, 0
2, 37240, Note_off_c, 1, 50, 0
2, 37240, Note_off_c, 1, 53, 0
2, 37240, Note_off_c, 1, 62, 0
2, 37240, Note_off_c, 1, 70, 0
2, 37240, Note_off_c, 1, 74, 0
2, 37280, Note_on_c, 1, 32, 127
2, 37280, Note_on_c, 1, 44, 127
2, 37280, Note_on_c, 1, 56, 127
2, 37480, Note_off_c, 1, 32, 0
2, 37480, Note_off_c, 1, 44, 0
2, 37480, Note_off_c, 1, 56, 0
2, 38720, Note_on_c, 1, 38, 127
2, 38720, Note_on_c, 1, 50, 127
2, 38720, Note_on_c, 1, 53, 127
2, 38720, Note_on_c, 1, 57, 127
2, 38720, Note_on_c, 1, 62, 127
2, 38880, Note_off_c, 1, 38, 0
2, 38880, Note_off_c, 1, 50, 0
2, 38880, Note_off_c, 1, 53, 0
2, 38880, Note_off_c, 1, 57, 0
2, 38880, Note_off_c, 1, 62, 0
2, 38920, Note_on_c, 1, 62, 127
2, 38920, Note_on_c, 1, 66, 127
2, 39120, Note_off_c, 1, 62, 0
2, 39120, Note_off_c, 1, 66, 0
2, 39160, Note_on_c, 1, 74, 127
2, 40920, Note_off_c, 1, 74, 0
2, 40960, Note_on_c, 1, 74, 127
2, 41360, Note_on_c, 1, 62, 127
2, 41440, Note_off_c, 1, 62, 0
2, 41480, Note_on_c, 1, 69, 127
2, 41560, Note_off_c, 1, 74, 0
2, 41600, Note_on_c, 1, 74, 127
2, 41680, Note_off_c, 1, 74, 0
2, 41720, Note_on_c, 1, 76, 127
2, 41800, Note_off_c, 1, 69, 0
2, 41800, Note_off_c, 1, 76, 0
2, 41840, Note_on_c, 1, 81, 127
2, 42240, Note_off_c, 1, 81, 0
2, 42280, Note_on_c, 1, 62, 127
2, 42280, Note_on_c, 1, 81, 127
2, 42720, Note_off_c, 1, 62, 0
2, 42760, Note_on_c, 1, 66, 127
2, 42960, Note_off_c, 1, 66, 0
2, 43000, Note_on_c, 1, 62, 127
2, 43200, Note_off_c, 1, 62, 0
2, 43200, Note_off_c, 1, 81, 0
2, 43240, Note_on_c, 1, 64, 127
2, 43240, Note_on_c, 1, 79, 127
2, 43400, Note_off_c, 1, 64, 0
2, 43400, Note_off_c, 1, 79, 0
2, 43440, Note_on_c, 1, 64, 127
2, 43440, Note_on_c, 1, 79, 127
2, 43480, Note_off_c, 1, 64, 0
2, 43480, Note_off_c, 1, 79, 0
2, 43520, Note_on_c, 1, 62, 127
2, 43520, Note_on_c, 1, 79, 127
2, 43720, Note_off_c, 1, 62, 0
2, 43720, Note_off_c, 1, 79, 0
2, 43760, Note_on_c, 1, 64, 127
2, 43760, Note_on_c, 1, 79, 127
2, 43960, Note_off_c, 1, 64, 0
2, 43960, Note_off_c, 1, 79, 0
2, 44000, Note_on_c, 1, 67, 127
2, 44000, Note_on_c, 1, 81, 127
2, 44040, Note_off_c, 1, 81, 0
2, 44080, Note_on_c, 1, 81, 127
2, 44120, Note_off_c, 1, 81, 0
2, 44160, Note_on_c, 1, 81, 127
2, 44200, Note_off_c, 1, 67, 0
2, 44200, Note_off_c, 1, 81, 0
2, 44240, Note_on_c, 1, 69, 127
2, 44240, Note_on_c, 1, 85, 127
2, 44440, Note_off_c, 1, 69, 0
2, 44480, Note_on_c, 1, 64, 127
2, 44640, Note_off_c, 1, 64, 0
2, 44640, Note_off_c, 1, 85, 0
2, 44680, Note_on_c, 1, 57, 127
2, 44680, Note_on_c, 1, 86, 127
2, 44880, Note_off_c, 1, 57, 0
2, 44880, Note_off_c, 1, 86, 0
2, 44920, Note_on_c, 1, 66, 127
2, 44920, Note_on_c, 1, 81, 127
2, 45120, Note_off_c, 1, 66, 0
2, 45120, Note_off_c, 1, 81, 0
2, 45160, Note_on_c, 1, 64, 127
2, 45160, Note_on_c, 1, 79, 127
2, 45360, Note_off_c, 1, 64, 0
2, 45360, Note_off_c, 1, 79, 0
2, 45400, Note_on_c, 1, 62, 127
2, 45400, Note_on_c, 1, 78, 127
2, 45600, Note_off_c, 1, 62, 0
2, 45600, Note_off_c, 1, 78, 0
2, 45680, Note_on_c, 1, 62, 127
2, 45680, Note_on_c, 1, 69, 127
2, 45840, Note_off_c, 1, 69, 0
2, 45880, Note_on_c, 1, 69, 127
2, 46080, Note_off_c, 1, 69, 0
2, 46120, Note_on_c, 1, 77, 127
2, 46160, Note_off_c, 1, 62, 0
2, 46320, Note_off_c, 1, 77, 0
2, 46360, Note_on_c, 1, 63, 127
2, 46360, Note_on_c, 1, 73, 127
2, 46560, Note_off_c, 1, 63, 0
2, 46600, Note_on_c, 1, 69, 127
2, 46800, Note_off_c, 1, 69, 0
2, 46800, Note_off_c, 1, 73, 0
2, 46840, Note_on_c, 1, 67, 127
2, 46840, Note_on_c, 1, 74, 127
2, 47040, Note_off_c, 1, 74, 0
2, 47080, Note_on_c, 1, 76, 127
2, 47280, Note_off_c, 1, 67, 0
2, 47280, Note_off_c, 1, 76, 0
2, 47320, Note_on_c, 1, 81, 127
2, 47520, Note_off_c, 1, 81, 0
2, 47560, Note_on_c, 1, 64, 127
2, 47560, Note_on_c, 1, 79, 127
2, 47760, Note_off_c, 1, 64, 0
2, 47760, Note_off_c, 1, 79, 0
2, 47800, Note_on_c, 1, 62, 127
2, 47800, Note_on_c, 1, 78, 127
2, 47960, Note_off_c, 1, 62, 0
2, 47960, Note_off_c, 1, 78, 0
2, 48000, Note_on_c, 1, 62, 127
2, 48000, Note_on_c, 1, 78, 127
2, 48040, Note_off_c, 1, 62, 0
2, 48040, Note_off_c, 1, 78, 0
2, 48080, Note_on_c, 1, 67, 127
2, 48080, Note_on_c, 1, 82, 127
2, 48280, Note_off_c, 1, 67, 0
2, 48280, Note_off_c, 1, 82, 0
2, 48320, Note_on_c, 1, 62, 127
2, 48320, Note_on_c, 1, 78, 127
2, 48520, Note_off_c, 1, 62, 0
2, 48520, Note_off_c, 1, 78, 0
2, 48560, Note_on_c, 1, 64, 127
2, 48560, Note_on_c, 1, 79, 127
2, 48760, Note_off_c, 1, 64, 0
2, 48760, Note_off_c, 1, 79, 0
2, 48800, Note_on_c, 1, 74, 127
2, 48800, Note_on_c, 1, 90, 127
2, 49000, Note_off_c, 1, 74, 0
2, 49000, Note_off_c, 1, 90, 0
2, 49040, Note_on_c, 1, 69, 127
2, 49040, Note_on_c, 1, 84, 127
2, 49240, Note_off_c, 1, 69, 0
2, 49240, Note_off_c, 1, 84, 0
2, 49280, Note_on_c, 1, 62, 127
2, 49280, Note_on_c, 1, 78, 127
2, 49480, Note_off_c, 1, 62, 0
2, 49480, Note_off_c, 1, 78, 0
2, 49520, Note_on_c, 1, 69, 127
2, 49520, Note_on_c, 1, 84, 127
2, 49720, Note_off_c, 1, 69, 0
2, 49720, Note_off_c, 1, 84, 0
2, 49760, Note_on_c, 1, 79, 127
2, 49960, Note_off_c, 1, 79, 0
2, 50000, Note_on_c, 1, 59, 127
2, 50000, Note_on_c, 1, 78, 127
2, 50080, Note_off_c, 1, 59, 0
2, 50080, Note_off_c, 1, 78, 0
2, 50120, Note_on_c, 1, 59, 127
2, 50120, Note_on_c, 1, 78, 127
2, 50240, Note_off_c, 1, 59, 0
2, 50240, Note_off_c, 1, 78, 0
2, 50280, Note_on_c, 1, 62, 127
2, 50280, Note_on_c, 1, 78, 127
2, 50480, Note_off_c, 1, 62, 0
2, 50480, Note_off_c, 1, 78, 0
2, 50520, Note_on_c, 1, 64, 127
2, 50520, Note_on_c, 1, 79, 127
2, 50720, Note_off_c, 1, 64, 0
2, 50720, Note_off_c, 1, 79, 0
2, 50760, Note_on_c, 1, 66, 127
2, 50760, Note_on_c, 1, 81, 127
2, 50960, Note_off_c, 1, 66, 0
2, 50960, Note_off_c, 1, 81, 0
2, 51000, Note_on_c, 1, 67, 127
2, 51000, Note_on_c, 1, 83, 127
2, 51200, Note_off_c, 1, 67, 0
2, 51200, Note_off_c, 1, 83, 0
2, 51240, Note_on_c, 1, 66, 127
2, 51240, Note_on_c, 1, 81, 127
2, 51440, Note_off_c, 1, 66, 0
2, 51440, Note_off_c, 1, 81, 0
2, 51480, Note_on_c, 1, 64, 127
2, 51480, Note_on_c, 1, 79, 127
2, 51680, Note_off_c, 1, 64, 0
2, 51680, Note_off_c, 1, 79, 0
2, 51720, Note_on_c, 1, 62, 127
2, 51720, Note_on_c, 1, 78, 127
2, 51920, Note_off_c, 1, 62, 0
2, 51920, Note_off_c, 1, 78, 0
2, 51960, Note_on_c, 1, 64, 127
2, 51960, Note_on_c, 1, 79, 127
2, 52120, Note_off_c, 1, 64, 0
2, 52120, Note_off_c, 1, 79, 0
2, 52160, Note_on_c, 1, 64, 127
2, 52160, Note_on_c, 1, 79, 127
2, 52200, Note_off_c, 1, 64, 0
2, 52200, Note_off_c, 1, 79, 0
2, 52240, Note_on_c, 1, 62, 127
2, 52240, Note_on_c, 1, 77, 127
2, 52440, Note_off_c, 1, 62, 0
2, 52440, Note_off_c, 1, 77, 0
2, 52480, Note_on_c, 1, 67, 127
2, 52480, Note_on_c, 1, 83, 127
2, 52680, Note_off_c, 1, 67, 0
2, 52680, Note_off_c, 1, 83, 0
2, 52720, Note_on_c, 1, 66, 127
2, 52720, Note_on_c, 1, 81, 127
2, 52920, Note_off_c, 1, 66, 0
2, 52920, Note_off_c, 1, 81, 0
2, 52960, Note_on_c, 1, 64, 127
2, 52960, Note_on_c, 1, 79, 127
2, 53160, Note_off_c, 1, 64, 0
2, 53160, Note_off_c, 1, 79, 0
2, 53200, Note_on_c, 1, 66, 127
2, 53200, Note_on_c, 1, 81, 127
2, 53400, Note_off_c, 1, 66, 0
2, 53400, Note_off_c, 1, 81, 0
2, 53440, Note_on_c, 1, 64, 127
2, 53440, Note_on_c, 1, 79, 127
2, 53640, Note_off_c, 1, 64, 0
2, 53640, Note_off_c, 1, 79, 0
2, 53680, Note_on_c, 1, 64, 127
2, 53680, Note_on_c, 1, 88, 127
2, 53880, Note_off_c, 1, 64, 0
2, 53880, Note_off_c, 1, 88, 0
2, 53920, Note_on_c, 1, 69, 127
2, 53920, Note_on_c, 1, 84, 127
2, 54080, Note_off_c, 1, 69, 0
2, 54080, Note_off_c, 1, 84, 0
2, 54120, Note_on_c, 1, 69, 127
2, 54120, Note_on_c, 1, 84, 127
2, 54160, Note_off_c, 1, 69, 0
2, 54160, Note_off_c, 1, 84, 0
2, 54200, Note_on_c, 1, 67, 127
2, 54200, Note_on_c, 1, 83, 127
2, 54400, Note_off_c, 1, 67, 0
2, 54400, Note_off_c, 1, 83, 0
2, 54440, Note_on_c, 1, 66, 127
2, 54440, Note_on_c, 1, 81, 127
2, 54640, Note_off_c, 1, 66, 0
2, 54640, Note_off_c, 1, 81, 0
2, 54680, Note_on_c, 1, 64, 127
2, 54680, Note_on_c, 1, 79, 127
2, 54880, Note_off_c, 1, 64, 0
2, 54880, Note_off_c, 1, 79, 0
2, 54920, Note_on_c, 1, 62, 127
2, 54920, Note_on_c, 1, 78, 127
2, 55120, Note_off_c, 1, 62, 0
2, 55120, Note_off_c, 1, 78, 0
2, 55160, Note_on_c, 1, 67, 127
2, 55160, Note_on_c, 1, 83, 127
2, 55360, Note_off_c, 1, 67, 0
2, 55360, Note_off_c, 1, 83, 0
2, 55400, Note_on_c, 1, 66, 127
2, 55400, Note_on_c, 1, 81, 127
2, 55600, Note_off_c, 1, 66, 0
2, 55600, Note_off_c, 1, 81, 0
2, 55640, Note_on_c, 1, 63, 127
2, 55640, Note_on_c, 1, 78, 127
2, 55840, Note_off_c, 1, 63, 0
2, 55840, Note_off_c, 1, 78, 0
2, 55880, Note_on_c, 1, 64, 127
2, 55880, Note_on_c, 1, 79, 127
2, 56120, Note_off_c, 1, 64, 0
2, 56120, Note_off_c, 1, 79, 0
2, 56160, Note_on_c, 1, 64, 127
2, 56160, Note_on_c, 1, 79, 127
2, 56360, Note_off_c, 1, 64, 0
2, 56360, Note_off_c, 1, 79, 0
2, 56400, Note_on_c, 1, 67, 127
2, 56400, Note_on_c, 1, 82, 127
2, 56600, Note_off_c, 1, 82, 0
2, 56640, Note_on_c, 1, 83, 127
2, 56840, Note_off_c, 1, 67, 0
2, 56840, Note_off_c, 1, 83, 0
2, 56880, Note_on_c, 1, 61, 127
2, 56880, Note_on_c, 1, 76, 127
2, 56880, Note_on_c, 1, 82, 127
2, 56880, Note_on_c, 1, 88, 127
2, 57320, Note_off_c, 1, 61, 0
2, 57320, Note_off_c, 1, 76, 0
2, 57320, Note_off_c, 1, 82, 0
2, 57320, Note_off_c, 1, 88, 0
2, 57360, Note_on_c, 1, 62, 127
2, 57360, Note_on_c, 1, 90, 127
2, 57560, Note_off_c, 1, 62, 0
2, 57560, Note_off_c, 1, 90, 0
2, 57600, Note_on_c, 1, 74, 127
2, 57600, Note_on_c, 1, 90, 127
2, 57800, Note_off_c, 1, 74, 0
2, 57800, Note_off_c, 1, 90, 0
2, 57840, Note_on_c, 1, 64, 127
2, 57840, Note_on_c, 1, 74, 127
2, 57840, Note_on_c, 1, 86, 127
2, 58000, Note_off_c, 1, 64, 0
2, 58000, Note_off_c, 1, 74, 0
2, 58000, Note_off_c, 1, 86, 0
2, 58040, Note_on_c, 1, 64, 127
2, 58040, Note_on_c, 1, 74, 127
2, 58040, Note_on_c, 1, 86, 127
2, 58080, Note_off_c, 1, 86, 0
2, 58120, Note_on_c, 1, 86, 127
2, 58320, Note_off_c, 1, 64, 0
2, 58320, Note_off_c, 1, 74, 0
2, 58320, Note_off_c, 1, 86, 0
2, 58360, Note_on_c, 1, 66, 127
2, 58360, Note_on_c, 1, 74, 127
2, 58360, Note_on_c, 1, 81, 127
2, 58560, Note_off_c, 1, 66, 0
2, 58560, Note_off_c, 1, 74, 0
2, 58560, Note_off_c, 1, 81, 0
2, 58600, Note_on_c, 1, 64, 127
2, 58600, Note_on_c, 1, 73, 127
2, 58600, Note_on_c, 1, 76, 127
2, 58800, Note_off_c, 1, 64, 0
2, 58800, Note_off_c, 1, 73, 0
2, 58800, Note_off_c, 1, 76, 0
2, 58840, Note_on_c, 1, 62, 127
2, 58840, Note_on_c, 1, 78, 127
2, 58840, Note_on_c, 1, 81, 127
2, 59040, Note_off_c, 1, 62, 0
2, 59040, Note_off_c, 1, 78, 0
2, 59040, Note_off_c, 1, 81, 0
2, 59080, Note_on_c, 1, 62, 127
2, 59280, Note_off_c, 1, 62, 0
2, 59320, Note_on_c, 1, 60, 127
2, 59320, Note_on_c, 1, 69, 127
2, 59320, Note_on_c, 1, 77, 127
2, 59520, Note_off_c, 1, 69, 0
2, 59520, Note_off_c, 1, 77, 0
2, 59560, Note_on_c, 1, 70, 127
2, 59680, Note_on_c, 1, 76, 127
2, 59760, Note_off_c, 1, 60, 0
2, 59760, Note_off_c, 1, 70, 0
2, 59760, Note_off_c, 1, 76, 0
2, 59800, Note_on_c, 1, 66, 127
2, 59800, Note_on_c, 1, 72, 127
2, 59880, Note_off_c, 1, 66, 0
2, 59880, Note_off_c, 1, 72, 0
2, 59920, Note_on_c, 1, 66, 127
2, 59920, Note_on_c, 1, 72, 127
2, 60040, Note_off_c, 1, 72, 0
2, 60080, Note_on_c, 1, 73, 127
2, 60280, Note_off_c, 1, 73, 0
2, 60320, Note_on_c, 1, 72, 127
2, 60520, Note_off_c, 1, 72, 0
2, 60560, Note_on_c, 1, 75, 127
2, 60760, Note_off_c, 1, 75, 0
2, 60800, Note_on_c, 1, 81, 127
2, 61000, Note_off_c, 1, 81, 0
2, 61040, Note_on_c, 1, 78, 127
2, 61240, Note_off_c, 1, 66, 0
2, 61240, Note_off_c, 1, 78, 0
2, 61280, Note_on_c, 1, 69, 127
2, 61280, Note_on_c, 1, 74, 127
2, 61480, Note_off_c, 1, 69, 0
2, 61480, Note_off_c, 1, 74, 0
2, 61520, Note_on_c, 1, 67, 127
2, 61520, Note_on_c, 1, 75, 127
2, 61720, Note_off_c, 1, 67, 0
2, 61720, Note_off_c, 1, 75, 0
2, 61760, Note_on_c, 1, 78, 127
2, 61760, Note_on_c, 1, 81, 127
2, 61760, Note_on_c, 1, 87, 127
2, 61960, Note_off_c, 1, 78, 0
2, 61960, Note_off_c, 1, 81, 0
2, 61960, Note_off_c, 1, 87, 0
2, 62000, Note_on_c, 1, 81, 127
2, 62040, Note_on_c, 1, 72, 127
2, 62040, Note_on_c, 1, 75, 127
2, 62240, Note_off_c, 1, 72, 0
2, 62240, Note_off_c, 1, 75, 0
2, 62240, Note_off_c, 1, 81, 0
2, 62280, Note_on_c, 1, 71, 127
2, 62280, Note_on_c, 1, 74, 127
2, 62280, Note_on_c, 1, 83, 127
2, 62480, Note_off_c, 1, 83, 0
2, 62520, Note_on_c, 1, 62, 127
2, 62520, Note_off_c, 1, 71, 0
2, 62520, Note_on_c, 1, 73, 127
2, 62520, Note_off_c, 1, 74, 0
2, 62520, Note_on_c, 1, 76, 127
2, 62720, Note_off_c, 1, 62, 0
2, 62720, Note_off_c, 1, 73, 0
2, 62720, Note_off_c, 1, 76, 0
2, 62760, Note_on_c, 1, 66, 127
2, 62760, Note_on_c, 1, 74, 127
2, 62760, Note_on_c, 1, 78, 127
2, 62960, Note_off_c, 1, 66, 0
2, 62960, Note_off_c, 1, 74, 0
2, 62960, Note_off_c, 1, 78, 0
2, 63000, Note_on_c, 1, 58, 127
2, 63000, Note_on_c, 1, 67, 127
2, 63000, Note_on_c, 1, 74, 127
2, 63000, Note_on_c, 1, 79, 127
2, 63200, Note_off_c, 1, 58, 0
2, 63200, Note_off_c, 1, 67, 0
2, 63200, Note_off_c, 1, 74, 0
2, 63200, Note_off_c, 1, 79, 0
2, 63240, Note_on_c, 1, 65, 127
2, 63240, Note_on_c, 1, 81, 127
2, 63240, Note_on_c, 1, 93, 127
2, 63440, Note_off_c, 1, 65, 0
2, 63480, Note_off_c, 1, 81, 0
2, 63480, Note_on_c, 1, 82, 127
2, 63480, Note_on_c, 1, 86, 127
2, 63480, Note_on_c, 1, 91, 127
2, 63480, Note_off_c, 1, 93, 0
2, 63680, Note_off_c, 1, 82, 0
2, 63680, Note_off_c, 1, 86, 0
2, 63680, Note_off_c, 1, 91, 0
2, 63720, Note_on_c, 1, 57, 127
2, 63720, Note_on_c, 1, 93, 127
2, 63920, Note_off_c, 1, 57, 0
2, 63920, Note_off_c, 1, 93, 0
2, 63960, Note_on_c, 1, 84, 127
2, 63960, Note_on_c, 1, 88, 127
2, 64000, Note_on_c, 1, 76, 127
2, 64000, Note_off_c, 1, 88, 0
2, 64040, Note_off_c, 1, 76, 0
2, 64040, Note_off_c, 1, 84, 0
2, 64080, Note_on_c, 1, 76, 127
2, 64080, Note_on_c, 1, 84, 127
2, 64120, Note_off_c, 1, 76, 0
2, 64120, Note_on_c, 1, 88, 127
2, 64200, Note_off_c, 1, 84, 0
2, 64200, Note_off_c, 1, 88, 0
2, 64240, Note_on_c, 1, 71, 127
2, 64240, Note_on_c, 1, 76, 127
2, 64240, Note_on_c, 1, 80, 127
2, 64240, Note_on_c, 1, 86, 127
2, 64240, Note_on_c, 1, 88, 127
2, 64440, Note_off_c, 1, 76, 0
2, 64440, Note_off_c, 1, 80, 0
2, 64440, Note_off_c, 1, 86, 0
2, 64440, Note_off_c, 1, 88, 0
2, 64480, Note_on_c, 1, 56, 127
2, 64480, Note_on_c, 1, 62, 127
2, 64480, Note_on_c, 1, 74, 127
2, 64680, Note_off_c, 1, 56, 0
2, 64680, Note_off_c, 1, 62, 0
2, 64680, Note_off_c, 1, 71, 0
2, 64680, Note_off_c, 1, 74, 0
2, 64720, Note_on_c, 1, 62, 127
2, 64720, Note_on_c, 1, 67, 127
2, 64720, Note_on_c, 1, 70, 127
2, 64920, Note_off_c, 1, 67, 0
2, 64920, Note_off_c, 1, 70, 0
2, 64960, Note_on_c, 1, 68, 127
2, 64960, Note_on_c, 1, 71, 127
2, 65160, Note_off_c, 1, 62, 0
2, 65160, Note_off_c, 1, 68, 0
2, 65160, Note_off_c, 1, 71, 0
2, 65200, Note_on_c, 1, 69, 127
2, 65200, Note_on_c, 1, 77, 127
2, 65200, Note_on_c, 1, 81, 127
2, 65400, Note_off_c, 1, 77, 0
2, 65440, Note_on_c, 1, 60, 127
2, 65640, Note_off_c, 1, 60, 0
2, 65640, Note_off_c, 1, 69, 0
2, 65640, Note_off_c, 1, 81, 0
2, 65680, Note_on_c, 1, 62, 127
2, 65680, Note_on_c, 1, 69, 127
2, 65680, Note_on_c, 1, 78, 127
2, 65880, Note_off_c, 1, 62, 0
2, 65880, Note_off_c, 1, 69, 0
2, 65880, Note_off_c, 1, 78, 0
2, 66200, Note_on_c, 1, 61, 127
2, 66200, Note_on_c, 1, 67, 127
2, 66200, Note_on_c, 1, 76, 127
2, 66400, Note_off_c, 1, 61, 0
2, 66400, Note_off_c, 1, 67, 0
2, 66400, Note_off_c, 1, 76, 0
2, 66440, Note_on_c, 1, 59, 127
2, 66440, Note_on_c, 1, 66, 127
2, 66440, Note_on_c, 1, 74, 127
2, 66640, Note_off_c, 1, 59, 0
2, 66640, Note_off_c, 1, 66, 0
2, 66640, Note_off_c, 1, 74, 0
2, 66680, Note_on_c, 1, 55, 127
2, 66680, Note_on_c, 1, 67, 127
2, 66680, Note_on_c, 1, 79, 127
2, 66880, Note_off_c, 1, 55, 0
2, 66880, Note_off_c, 1, 67, 0
2, 66880, Note_off_c, 1, 79, 0
2, 66920, Note_on_c, 1, 45, 127
2, 66920, Note_on_c, 1, 69, 127
2, 66920, Note_on_c, 1, 81, 127
2, 67120, Note_off_c, 1, 45, 0
2, 67120, Note_off_c, 1, 69, 0
2, 67120, Note_off_c, 1, 81, 0
2, 67160, Note_on_c, 1, 45, 127
2, 67160, Note_on_c, 1, 57, 127
2, 67160, Note_on_c, 1, 81, 127
2, 67160, Note_on_c, 1, 93, 127
2, 67360, Note_off_c, 1, 45, 0
2, 67360, Note_off_c, 1, 57, 0
2, 67360, Note_off_c, 1, 81, 0
2, 67360, Note_off_c, 1, 93, 0
2, 67400, Note_on_c, 1, 52, 127
2, 67400, Note_on_c, 1, 56, 127
2, 67400, Note_on_c, 1, 62, 127
2, 67400, Note_on_c, 1, 64, 127
2, 67400, Note_on_c, 1, 71, 127
2, 67400, Note_on_c, 1, 76, 127
2, 67600, Note_off_c, 1, 52, 0
2, 67600, Note_off_c, 1, 56, 0
2, 67600, Note_off_c, 1, 62, 0
2, 67600, Note_off_c, 1, 64, 0
2, 67600, Note_off_c, 1, 71, 0
2, 67600, Note_off_c, 1, 76, 0
2, 67640, Note_on_c, 1, 45, 127
2, 67640, Note_on_c, 1, 69, 127
2, 67640, Note_on_c, 1, 81, 127
2, 67840, Note_off_c, 1, 45, 0
2, 67840, Note_off_c, 1, 69, 0
2, 67840, Note_off_c, 1, 81, 0
2, 67880, Note_on_c, 1, 54, 127
2, 67880, Note_on_c, 1, 63, 127
2, 67880, Note_on_c, 1, 69, 127
2, 67880, Note_on_c, 1, 71, 127
2, 67880, Note_on_c, 1, 78, 127
2, 67960, Note_off_c, 1, 54, 0
2, 67960, Note_off_c, 1, 63, 0
2, 67960, Note_off_c, 1, 69, 0
2, 67960, Note_off_c, 1, 71, 0
2, 67960, Note_off_c, 1, 78, 0
2, 68000, Note_on_c, 1, 54, 127
2, 68000, Note_on_c, 1, 63, 127
2, 68000, Note_on_c, 1, 69, 127
2, 68000, Note_on_c, 1, 71, 127
2, 68000, Note_on_c, 1, 78, 127
2, 68120, Note_off_c, 1, 54, 0
2, 68120, Note_off_c, 1, 63, 0
2, 68120, Note_off_c, 1, 69, 0
2, 68120, Note_off_c, 1, 78, 0
2, 68160, Note_on_c, 1, 35, 127
2, 68160, Note_on_c, 1, 69, 127
2, 68160, Note_off_c, 1, 71, 0
2, 68160, Note_on_c, 1, 72, 127
2, 68160, Note_on_c, 1, 78, 127
2, 68200, Note_off_c, 1, 35, 0
2, 68200, Note_on_c, 1, 57, 127
2, 68200, Note_off_c, 1, 69, 0
2, 68200, Note_on_c, 1, 71, 127
2, 68200, Note_off_c, 1, 72, 0
2, 68200, Note_on_c, 1, 76, 127
2, 68200, Note_off_c, 1, 78, 0
2, 68240, Note_on_c, 1, 42, 127
2, 68240, Note_off_c, 1, 57, 0
2, 68240, Note_on_c, 1, 67, 127
2, 68280, Note_off_c, 1, 42, 0
2, 68280, Note_on_c, 1, 47, 127
2, 68280, Note_on_c, 1, 59, 127
2, 68280, Note_on_c, 1, 64, 127
2, 68280, Note_off_c, 1, 76, 0
2, 68320, Note_off_c, 1, 59, 0
2, 68320, Note_off_c, 1, 64, 0
2, 68320, Note_on_c, 1, 76, 127
2, 68360, Note_off_c, 1, 47, 0
2, 68360, Note_off_c, 1, 67, 0
2, 68360, Note_off_c, 1, 71, 0
2, 68360, Note_off_c, 1, 76, 0
2, 68400, Note_on_c, 1, 46, 127
2, 68400, Note_on_c, 1, 66, 127
2, 68400, Note_on_c, 1, 71, 127
2, 68400, Note_on_c, 1, 75, 127
2, 68600, Note_off_c, 1, 46, 0
2, 68600, Note_off_c, 1, 66, 0
2, 68600, Note_off_c, 1, 71, 0
2, 68600, Note_off_c, 1, 75, 0
2, 68640, Note_on_c, 1, 49, 127
2, 68640, Note_on_c, 1, 61, 127
2, 68640, Note_on_c, 1, 64, 127
2, 68640, Note_on_c, 1, 68, 127
2, 68640, Note_on_c, 1, 76, 127
2, 68840, Note_off_c, 1, 49, 0
2, 68840, Note_off_c, 1, 61, 0
2, 68840, Note_off_c, 1, 64, 0
2, 68840, Note_off_c, 1, 68, 0
2, 68840, Note_off_c, 1, 76, 0
2, 68880, Note_on_c, 1, 49, 127
2, 68880, Note_on_c, 1, 61, 127
2, 68880, Note_on_c, 1, 64, 127
2, 68880, Note_on_c, 1, 68, 127
2, 68880, Note_on_c, 1, 76, 127
2, 69080, Note_off_c, 1, 49, 0
2, 69080, Note_off_c, 1, 61, 0
2, 69080, Note_off_c, 1, 64, 0
2, 69080, Note_off_c, 1, 68, 0
2, 69080, Note_off_c, 1, 76, 0
2, 69120, Note_on_c, 1, 37, 127
2, 69120, Note_on_c, 1, 49, 127
2, 69120, Note_on_c, 1, 56, 127
2, 69120, Note_on_c, 1, 61, 127
2, 69120, Note_on_c, 1, 64, 127
2, 69320, Note_off_c, 1, 37, 0
2, 69320, Note_off_c, 1, 49, 0
2, 69320, Note_off_c, 1, 56, 0
2, 69320, Note_off_c, 1, 61, 0
2, 69320, Note_off_c, 1, 64, 0
2, 69360, Note_on_c, 1, 55, 127
2, 69360, Note_on_c, 1, 57, 127
2, 69360, Note_on_c, 1, 61, 127
2, 69360, Note_on_c, 1, 64, 127
2, 69360, Note_on_c, 1, 69, 127
2, 69360, Note_on_c, 1, 76, 127
2, 69560, Note_off_c, 1, 64, 0
2, 69560, Note_off_c, 1, 69, 0
2, 69560, Note_off_c, 1, 76, 0
2, 69600, Note_on_c, 1, 52, 127
2, 69600, Note_off_c, 1, 55, 0
2, 69600, Note_off_c, 1, 57, 0
2, 69600, Note_off_c, 1, 61, 0
2, 69600, Note_on_c, 1, 62, 127
2, 69600, Note_on_c, 1, 64, 127
2, 69600, Note_on_c, 1, 80, 127
2, 69640, Note_off_c, 1, 80, 0
2, 69640, Note_on_c, 1, 88, 127
2, 69680, Note_on_c, 1, 80, 127
2, 69680, Note_off_c, 1, 88, 0
2, 69800, Note_off_c, 1, 52, 0
2, 69800, Note_off_c, 1, 62, 0
2, 69800, Note_off_c, 1, 64, 0
2, 69800, Note_off_c, 1, 80, 0
2, 69880, Note_on_c, 1, 57, 127
2, 69880, Note_on_c, 1, 69, 127
2, 70080, Note_off_c, 1, 57, 0
2, 70080, Note_off_c, 1, 69, 0
2, 70120, Note_on_c, 1, 57, 127
2, 70120, Note_on_c, 1, 61, 127
2, 70120, Note_on_c, 1, 69, 127
2, 70120, Note_on_c, 1, 73, 127
2, 70200, Note_off_c, 1, 57, 0
2, 70200, Note_off_c, 1, 61, 0
2, 70200, Note_off_c, 1, 69, 0
2, 70200, Note_off_c, 1, 73, 0
2, 70360, Note_on_c, 1, 62, 127
2, 70360, Note_on_c, 1, 66, 127
2, 70360, Note_on_c, 1, 74, 127
2, 70360, Note_on_c, 1, 78, 127
2, 70560, Note_off_c, 1, 62, 0
2, 70560, Note_off_c, 1, 66, 0
2, 70560, Note_off_c, 1, 74, 0
2, 70560, Note_off_c, 1, 78, 0
2, 70600, Note_on_c, 1, 61, 127
2, 70600, Note_on_c, 1, 64, 127
2, 70600, Note_on_c, 1, 73, 127
2, 70600, Note_on_c, 1, 76, 127
2, 70800, Note_off_c, 1, 61, 0
2, 70800, Note_off_c, 1, 64, 0
2, 70800, Note_off_c, 1, 73, 0
2, 70800, Note_off_c, 1, 76, 0
2, 70840, Note_on_c, 1, 62, 127
2, 70840, Note_on_c, 1, 66, 127
2, 70840, Note_on_c, 1, 78, 127
2, 70880, Note_on_c, 1, 74, 127
2, 71000, Note_off_c, 1, 74, 0
2, 71040, Note_off_c, 1, 62, 0
2, 71040, Note_off_c, 1, 66, 0
2, 71040, Note_off_c, 1, 78, 0
2, 71080, Note_on_c, 1, 66, 127
2, 71080, Note_on_c, 1, 69, 127
2, 71080, Note_on_c, 1, 78, 127
2, 71080, Note_on_c, 1, 81, 127
2, 71280, Note_off_c, 1, 66, 0
2, 71280, Note_off_c, 1, 69, 0
2, 71280, Note_off_c, 1, 78, 0
2, 71280, Note_off_c, 1, 81, 0
2, 71320, Note_on_c, 1, 66, 127
2, 71320, Note_on_c, 1, 69, 127
2, 71320, Note_on_c, 1, 74, 127
2, 71320, Note_on_c, 1, 78, 127
2, 71520, Note_off_c, 1, 66, 0
2, 71520, Note_off_c, 1, 69, 0
2, 71520, Note_off_c, 1, 74, 0
2, 71520, Note_off_c, 1, 78, 0
2, 71560, Note_on_c, 1, 68, 127
2, 71560, Note_on_c, 1, 69, 127
2, 71560, Note_on_c, 1, 73, 127
2, 71640, Note_off_c, 1, 68, 0
2, 71680, Note_off_c, 1, 73, 0
2, 71680, Note_on_c, 1, 74, 127
2, 71680, Note_on_c, 1, 81, 127
2, 71720, Note_off_c, 1, 69, 0
2, 71720, Note_off_c, 1, 74, 0
2, 71720, Note_off_c, 1, 81, 0
2, 71760, Note_on_c, 1, 69, 127
2, 71760, Note_on_c, 1, 74, 127
2, 71800, Note_off_c, 1, 69, 0
2, 71800, Note_off_c, 1, 74, 0
2, 71840, Note_on_c, 1, 50, 127
2, 71840, Note_on_c, 1, 66, 127
2, 71840, Note_on_c, 1, 74, 127
2, 72040, Note_off_c, 1, 50, 0
2, 72040, Note_off_c, 1, 66, 0
2, 72040, Note_off_c, 1, 74, 0
2, 72080, Note_on_c, 1, 50, 127
2, 72080, Note_on_c, 1, 66, 127
2, 72080, Note_on_c, 1, 69, 127
2, 72080, Note_on_c, 1, 74, 127
2, 72280, Note_off_c, 1, 50, 0
2, 72280, Note_off_c, 1, 66, 0
2, 72280, Note_off_c, 1, 69, 0
2, 72280, Note_off_c, 1, 74, 0
2, 72320, Note_on_c, 1, 50, 127
2, 72320, Note_on_c, 1, 66, 127
2, 72320, Note_on_c, 1, 69, 127
2, 72320, Note_on_c, 1, 74, 127
2, 72520, Note_off_c, 1, 50, 0
2, 72520, Note_off_c, 1, 66, 0
2, 72520, Note_off_c, 1, 69, 0
2, 72520, Note_off_c, 1, 74, 0
2, 72560, Note_on_c, 1, 38, 127
2, 72560, Note_on_c, 1, 62, 127
2, 72560, Note_on_c, 1, 66, 127
2, 72560, Note_on_c, 1, 69, 127
2, 72760, Note_off_c, 1, 38, 0
2, 72760, Note_off_c, 1, 62, 0
2, 72760, Note_off_c, 1, 66, 0
2, 72760, Note_off_c, 1, 69, 0
2, 72800, Note_on_c, 1, 38, 127
2, 72800, Note_on_c, 1, 66, 127
2, 72800, Note_on_c, 1, 69, 127
2, 72800, Note_on_c, 1, 74, 127
2, 73000, Note_off_c, 1, 38, 0
2, 73000, Note_off_c, 1, 66, 0
2, 73000, Note_off_c, 1, 69, 0
2, 73000, Note_off_c, 1, 74, 0
2, 73040, Note_on_c, 1, 38, 127
2, 73040, Note_on_c, 1, 66, 127
2, 73040, Note_on_c, 1, 69, 127
2, 73040, Note_on_c, 1, 74, 127
2, 73240, Note_off_c, 1, 38, 0
2, 73240, Note_off_c, 1, 66, 0
2, 73240, Note_off_c, 1, 69, 0
2, 73240, Note_off_c, 1, 74, 0
2, 73280, Note_on_c, 1, 38, 127
2, 73280, Note_on_c, 1, 66, 127
2, 73280, Note_on_c, 1, 69, 127
2, 73280, Note_on_c, 1, 74, 127
2, 73480, Note_off_c, 1, 38, 0
2, 73480, Note_off_c, 1, 66, 0
2, 73480, Note_off_c, 1, 69, 0
2, 73480, Note_off_c, 1, 74, 0
2, 73520, Note_on_c, 1, 42, 127
2, 73520, Note_on_c, 1, 61, 127
2, 73520, Note_on_c, 1, 66, 127
2, 73520, Note_on_c, 1, 70, 127
2, 73720, Note_off_c, 1, 42, 0
2, 73720, Note_off_c, 1, 61, 0
2, 73720, Note_off_c, 1, 66, 0
2, 73720, Note_off_c, 1, 70, 0
2, 73800, Note_on_c, 1, 37, 127
2, 73800, Note_on_c, 1, 44, 127
2, 73800, Note_on_c, 1, 68, 127
2, 73800, Note_on_c, 1, 73, 127
2, 73800, Note_on_c, 1, 80, 127
2, 73840, Note_off_c, 1, 37, 0
2, 73840, Note_off_c, 1, 44, 0
2, 73840, Note_on_c, 1, 61, 127
2, 73840, Note_on_c, 1, 66, 127
2, 73840, Note_off_c, 1, 68, 0
2, 73840, Note_on_c, 1, 70, 127
2, 73840, Note_off_c, 1, 73, 0
2, 73840, Note_off_c, 1, 80, 0
2, 73840, Note_on_c, 1, 82, 127
2, 73840, Note_on_c, 1, 85, 127
2, 73880, Note_off_c, 1, 61, 0
2, 73880, Note_off_c, 1, 66, 0
2, 73880, Note_off_c, 1, 70, 0
2, 73880, Note_off_c, 1, 82, 0
2, 73880, Note_off_c, 1, 85, 0
2, 74040, Note_on_c, 1, 42, 127
2, 74040, Note_on_c, 1, 61, 127
2, 74040, Note_on_c, 1, 66, 127
2, 74040, Note_on_c, 1, 70, 127
2, 74240, Note_off_c, 1, 42, 0
2, 74240, Note_off_c, 1, 61, 0
2, 74240, Note_off_c, 1, 66, 0
2, 74240, Note_off_c, 1, 70, 0
2, 74280, Note_on_c, 1, 42, 127
2, 74280, Note_on_c, 1, 61, 127
2, 74280, Note_on_c, 1, 66, 127
2, 74280, Note_on_c, 1, 70, 127
2, 74480, Note_off_c, 1, 42, 0
2, 74480, Note_off_c, 1, 61, 0
2, 74480, Note_off_c, 1, 66, 0
2, 74480, Note_off_c, 1, 70, 0
2, 74520, Note_on_c, 1, 42, 127
2, 74520, Note_on_c, 1, 61, 127
2, 74520, Note_on_c, 1, 66, 127
2, 74520, Note_on_c, 1, 70, 127
2, 74720, Note_off_c, 1, 42, 0
2, 74720, Note_on_c, 1, 55, 127
2, 74720, Note_on_c, 1, 58, 127
2, 74720, Note_off_c, 1, 61, 0
2, 74720, Note_on_c, 1, 62, 127
2, 74720, Note_off_c, 1, 66, 0
2, 74720, Note_on_c, 1, 67, 127
2, 74760, Note_off_c, 1, 55, 0
2, 74760, Note_off_c, 1, 58, 0
2, 74760, Note_off_c, 1, 62, 0
2, 74760, Note_off_c, 1, 67, 0
2, 74760, Note_on_c, 1, 68, 127
2, 74760, Note_off_c, 1, 70, 0
2, 74760, Note_on_c, 1, 71, 127
2, 74760, Note_on_c, 1, 77, 127
2, 74760, Note_on_c, 1, 85, 127
2, 74760, Note_on_c, 1, 89, 127
2, 74960, Note_off_c, 1, 68, 0
2, 74960, Note_off_c, 1, 71, 0
2, 74960, Note_off_c, 1, 77, 0
2, 74960, Note_off_c, 1, 85, 0
2, 74960, Note_off_c, 1, 89, 0
2, 75000, Note_on_c, 1, 64, 127
2, 75000, Note_on_c, 1, 67, 127
2, 75000, Note_on_c, 1, 73, 127
2, 75000, Note_on_c, 1, 82, 127
2, 75000, Note_on_c, 1, 85, 127
2, 75000, Note_on_c, 1, 94, 127
2, 75040, Note_on_c, 1, 44, 127
2, 75040, Note_on_c, 1, 49, 127
2, 75040, Note_on_c, 1, 53, 127
2, 75040, Note_off_c, 1, 64, 0
2, 75040, Note_off_c, 1, 67, 0
2, 75040, Note_off_c, 1, 73, 0
2, 75040, Note_off_c, 1, 82, 0
2, 75040, Note_off_c, 1, 85, 0
2, 75040, Note_off_c, 1, 94, 0
2, 75080, Note_off_c, 1, 44, 0
2, 75080, Note_off_c, 1, 49, 0
2, 75080, Note_off_c, 1, 53, 0
2, 75120, Note_on_c, 1, 44, 127
2, 75120, Note_on_c, 1, 47, 127
2, 75120, Note_on_c, 1, 52, 127
2, 75120, Note_on_c, 1, 64, 127
2, 75200, Note_off_c, 1, 44, 0
2, 75200, Note_off_c, 1, 47, 0
2, 75200, Note_off_c, 1, 52, 0
2, 75200, Note_off_c, 1, 64, 0
2, 75240, Note_on_c, 1, 48, 127
2, 75240, Note_on_c, 1, 66, 127
2, 75240, Note_on_c, 1, 68, 127
2, 75320, Note_off_c, 1, 48, 0
2, 75320, Note_off_c, 1, 66, 0
2, 75320, Note_off_c, 1, 68, 0
2, 75360, Note_on_c, 1, 46, 127
2, 75440, Note_off_c, 1, 46, 0
2, 75480, Note_on_c, 1, 60, 127
2, 75480, Note_on_c, 1, 63, 127
2, 75480, Note_on_c, 1, 68, 127
2, 75480, Note_on_c, 1, 70, 127
2, 75560, Note_off_c, 1, 60, 0
2, 75560, Note_off_c, 1, 63, 0
2, 75560, Note_off_c, 1, 68, 0
2, 75560, Note_off_c, 1, 70, 0
2, 75600, Note_on_c, 1, 51, 127
2, 75680, Note_off_c, 1, 51, 0
2, 75760, Note_on_c, 1, 56, 127
2, 75760, Note_on_c, 1, 61, 127
2, 75760, Note_on_c, 1, 64, 127
2, 75760, Note_on_c, 1, 73, 127
2, 76200, Note_off_c, 1, 56, 0
2, 76200, Note_off_c, 1, 61, 0
2, 76200, Note_off_c, 1, 64, 0
2, 76200, Note_off_c, 1, 73, 0
2, 76240, Note_on_c, 1, 37, 127
2, 76240, Note_on_c, 1, 68, 127
2, 76240, Note_on_c, 1, 73, 127
2, 76240, Note_on_c, 1, 77, 127
2, 76320, Note_off_c, 1, 37, 0
2, 76320, Note_on_c, 1, 49, 127
2, 76320, Note_off_c, 1, 68, 0
2, 76320, Note_off_c, 1, 73, 0
2, 76320, Note_off_c, 1, 77, 0
2, 76480, Note_off_c, 1, 49, 0
2, 76480, Note_on_c, 1, 51, 127
2, 76480, Note_on_c, 1, 66, 127
2, 76480, Note_on_c, 1, 68, 127
2, 76480, Note_on_c, 1, 72, 127
2, 76680, Note_on_c, 1, 49, 127
2, 76680, Note_off_c, 1, 51, 0
2, 76680, Note_off_c, 1, 66, 0
2, 76680, Note_off_c, 1, 68, 0
2, 76680, Note_off_c, 1, 72, 0
2, 76720, Note_on_c, 1, 61, 127
2, 76720, Note_on_c, 1, 66, 127
2, 76720, Note_on_c, 1, 69, 127
2, 76720, Note_on_c, 1, 73, 127
2, 76920, Note_off_c, 1, 49, 0
2, 76920, Note_off_c, 1, 61, 0
2, 76920, Note_off_c, 1, 66, 0
2, 76920, Note_off_c, 1, 69, 0
2, 76920, Note_off_c, 1, 73, 0
2, 76960, Note_on_c, 1, 37, 127
2, 77200, Note_off_c, 1, 37, 0
2, 77200, Note_on_c, 1, 43, 127
2, 77200, Note_on_c, 1, 73, 127
2, 77200, Note_on_c, 1, 85, 127
2, 77360, Note_off_c, 1, 43, 0
2, 77360, Note_on_c, 1, 44, 127
2, 77360, Note_on_c, 1, 49, 127
2, 77400, Note_off_c, 1, 44, 0
2, 77400, Note_off_c, 1, 49, 0
2, 77400, Note_off_c, 1, 73, 0
2, 77400, Note_off_c, 1, 85, 0
2, 77440, Note_on_c, 1, 42, 127
2, 77440, Note_on_c, 1, 49, 127
2, 77440, Note_on_c, 1, 70, 127
2, 77440, Note_on_c, 1, 73, 127
2, 77640, Note_off_c, 1, 70, 0
2, 77640, Note_off_c, 1, 73, 0
2, 77680, Note_on_c, 1, 70, 127
2, 77680, Note_on_c, 1, 73, 127
2, 77760, Note_off_c, 1, 49, 0
2, 77800, Note_on_c, 1, 49, 127
2, 77880, Note_off_c, 1, 42, 0
2, 77880, Note_off_c, 1, 49, 0
2, 77880, Note_off_c, 1, 70, 0
2, 77880, Note_off_c, 1, 73, 0
2, 77960, Note_on_c, 1, 42, 127
2, 77960, Note_on_c, 1, 49, 127
2, 77960, Note_on_c, 1, 70, 127
2, 77960, Note_on_c, 1, 73, 127
2, 78400, Note_off_c, 1, 42, 0
2, 78400, Note_off_c, 1, 49, 0
2, 78400, Note_off_c, 1, 70, 0
2, 78400, Note_off_c, 1, 73, 0
2, 78440, Note_on_c, 1, 64, 127
2, 78440, Note_on_c, 1, 71, 127
2, 78440, Note_on_c, 1, 83, 127
2, 78440, Note_on_c, 1, 90, 127
2, 78480, Note_on_c, 1, 51, 127
2, 78480, Note_on_c, 1, 63, 127
2, 78480, Note_off_c, 1, 64, 0
2, 78480, Note_on_c, 1, 67, 127
2, 78480, Note_off_c, 1, 71, 0
2, 78480, Note_on_c, 1, 72, 127
2, 78480, Note_off_c, 1, 83, 0
2, 78480, Note_on_c, 1, 87, 127
2, 78480, Note_off_c, 1, 90, 0
2, 78520, Note_off_c, 1, 51, 0
2, 78520, Note_off_c, 1, 63, 0
2, 78520, Note_off_c, 1, 67, 0
2, 78520, Note_off_c, 1, 72, 0
2, 78520, Note_on_c, 1, 99, 127
2, 78560, Note_on_c, 1, 54, 127
2, 78560, Note_on_c, 1, 57, 127
2, 78560, Note_on_c, 1, 60, 127
2, 78560, Note_on_c, 1, 75, 127
2, 78560, Note_off_c, 1, 99, 0
2, 78600, Note_on_c, 1, 49, 127
2, 78600, Note_on_c, 1, 53, 127
2, 78600, Note_off_c, 1, 54, 0
2, 78600, Note_off_c, 1, 57, 0
2, 78600, Note_on_c, 1, 59, 127
2, 78600, Note_off_c, 1, 60, 0
2, 78600, Note_on_c, 1, 68, 127
2, 78600, Note_on_c, 1, 73, 127
2, 78600, Note_off_c, 1, 75, 0
2, 78600, Note_off_c, 1, 87, 0
2, 78640, Note_off_c, 1, 49, 0
2, 78640, Note_off_c, 1, 53, 0
2, 78640, Note_off_c, 1, 59, 0
2, 78640, Note_off_c, 1, 68, 0
2, 78640, Note_off_c, 1, 73, 0
2, 78680, Note_on_c, 1, 54, 127
2, 78680, Note_on_c, 1, 75, 127
2, 78680, Note_on_c, 1, 76, 127
2, 78720, Note_on_c, 1, 58, 127
2, 78720, Note_off_c, 1, 75, 0
2, 78720, Note_off_c, 1, 76, 0
2, 78720, Note_on_c, 1, 85, 127
2, 78720, Note_on_c, 1, 97, 127
2, 78760, Note_off_c, 1, 58, 0
2, 78760, Note_on_c, 1, 79, 127
2, 78760, Note_off_c, 1, 85, 0
2, 78760, Note_off_c, 1, 97, 0
2, 78880, Note_off_c, 1, 54, 0
2, 78880, Note_off_c, 1, 79, 0
2, 78920, Note_on_c, 1, 30, 127
2, 78920, Note_on_c, 1, 42, 127
2, 78920, Note_on_c, 1, 61, 127
2, 78920, Note_on_c, 1, 64, 127
2, 79120, Note_off_c, 1, 30, 0
2, 79120, Note_off_c, 1, 42, 0
2, 79120, Note_off_c, 1, 61, 0
2, 79120, Note_off_c, 1, 64, 0
2, 79160, Note_on_c, 1, 80, 127
2, 79160, Note_on_c, 1, 83, 127
2, 79160, Note_on_c, 1, 89, 127
2, 79360, Note_off_c, 1, 80, 0
2, 79360, Note_off_c, 1, 83, 0
2, 79360, Note_on_c, 1, 86, 127
2, 79360, Note_off_c, 1, 89, 0
2, 79400, Note_on_c, 1, 80, 127
2, 79400, Note_on_c, 1, 83, 127
2, 79400, Note_off_c, 1, 86, 0
2, 79400, Note_on_c, 1, 89, 127
2, 79600, Note_off_c, 1, 80, 0
2, 79600, Note_off_c, 1, 83, 0
2, 79600, Note_off_c, 1, 89, 0
2, 79640, Note_on_c, 1, 37, 127
2, 79720, Note_off_c, 1, 37, 0
2, 79760, Note_on_c, 1, 37, 127
2, 79920, Note_off_c, 1, 37, 0
2, 79920, Note_on_c, 1, 56, 127
2, 79920, Note_on_c, 1, 68, 127
2, 79920, Note_on_c, 1, 73, 127
2, 79920, Note_on_c, 1, 77, 127
2, 79920, Note_on_c, 1, 83, 127
2, 79960, Note_off_c, 1, 56, 0
2, 79960, Note_on_c, 1, 62, 127
2, 79960, Note_on_c, 1, 71, 127
2, 79960, Note_off_c, 1, 73, 0
2, 79960, Note_on_c, 1, 80, 127
2, 79960, Note_off_c, 1, 83, 0
2, 80120, Note_on_c, 1, 37, 127
2, 80120, Note_off_c, 1, 62, 0
2, 80120, Note_off_c, 1, 68, 0
2, 80120, Note_off_c, 1, 71, 0
2, 80120, Note_off_c, 1, 77, 0
2, 80120, Note_off_c, 1, 80, 0
2, 80160, Note_off_c, 1, 37, 0
2, 80160, Note_on_c, 1, 38, 127
2, 80160, Note_on_c, 1, 41, 127
2, 80160, Note_on_c, 1, 53, 127
2, 80160, Note_on_c, 1, 62, 127
2, 80160, Note_on_c, 1, 65, 127
2, 80160, Note_on_c, 1, 69, 127
2, 80200, Note_off_c, 1, 38, 0
2, 80200, Note_off_c, 1, 41, 0
2, 80200, Note_off_c, 1, 53, 0
2, 80200, Note_off_c, 1, 62, 0
2, 80200, Note_off_c, 1, 65, 0
2, 80200, Note_on_c, 1, 68, 127
2, 80200, Note_off_c, 1, 69, 0
2, 80200, Note_on_c, 1, 71, 127
2, 80200, Note_on_c, 1, 76, 127
2, 80200, Note_on_c, 1, 88, 127
2, 80200, Note_on_c, 1, 95, 127
2, 80200, Note_on_c, 1, 100, 127
2, 80240, Note_on_c, 1, 34, 127
2, 80240, Note_on_c, 1, 50, 127
2, 80240, Note_on_c, 1, 53, 127
2, 80240, Note_off_c, 1, 68, 0
2, 80240, Note_on_c, 1, 70, 127
2, 80240, Note_off_c, 1, 71, 0
2, 80240, Note_off_c, 1, 76, 0
2, 80240, Note_off_c, 1, 88, 0
2, 80240, Note_off_c, 1, 95, 0
2, 80240, Note_off_c, 1, 100, 0
2, 80280, Note_off_c, 1, 34, 0
2, 80280, Note_off_c, 1, 50, 0
2, 80280, Note_off_c, 1, 53, 0
2, 80280, Note_on_c, 1, 68, 127
2, 80280, Note_off_c, 1, 70, 0
2, 80280, Note_on_c, 1, 71, 127
2, 80280, Note_on_c, 1, 76, 127
2, 80280, Note_on_c, 1, 88, 127
2, 80280, Note_on_c, 1, 95, 127
2, 80280, Note_on_c, 1, 100, 127
2, 80360, Note_on_c, 1, 38, 127
2, 80360, Note_on_c, 1, 45, 127
2, 80360, Note_on_c, 1, 48, 127
2, 80360, Note_on_c, 1, 50, 127
2, 80360, Note_off_c, 1, 68, 0
2, 80360, Note_off_c, 1, 71, 0
2, 80360, Note_on_c, 1, 72, 127
2, 80360, Note_off_c, 1, 76, 0
2, 80360, Note_off_c, 1, 88, 0
2, 80360, Note_off_c, 1, 95, 0
2, 80360, Note_off_c, 1, 100, 0
2, 80400, Note_off_c, 1, 38, 0
2, 80400, Note_off_c, 1, 45, 0
2, 80400, Note_off_c, 1, 48, 0
2, 80400, Note_off_c, 1, 50, 0
2, 80400, Note_on_c, 1, 68, 127
2, 80400, Note_on_c, 1, 71, 127
2, 80400, Note_off_c, 1, 72, 0
2, 80400, Note_on_c, 1, 76, 127
2, 80400, Note_on_c, 1, 88, 127
2, 80400, Note_on_c, 1, 95, 127
2, 80400, Note_on_c, 1, 100, 127
2, 81080, Note_off_c, 1, 68, 0
2, 81080, Note_off_c, 1, 71, 0
2, 81080, Note_off_c, 1, 76, 0
2, 81080, Note_off_c, 1, 88, 0
2, 81080, Note_off_c, 1, 95, 0
2, 81080, Note_off_c, 1, 100, 0
2, 81360, Note_on_c, 1, 43, 127
2, 81360, Note_on_c, 1, 51, 127
2, 81360, Note_on_c, 1, 73, 127
2, 81360, Note_on_c, 1, 82, 127
2, 81440, Note_off_c, 1, 73, 0
2, 81520, Note_on_c, 1, 73, 127
2, 81560, Note_off_c, 1, 43, 0
2, 81560, Note_off_c, 1, 51, 0
2, 81560, Note_off_c, 1, 73, 0
2, 81560, Note_off_c, 1, 82, 0
2, 82360, Note_on_c, 1, 46, 127
2, 82360, Note_on_c, 1, 70, 127
2, 82560, Note_off_c, 1, 46, 0
2, 82560, Note_off_c, 1, 70, 0
2, 82600, Note_on_c, 1, 58, 127
2, 82600, Note_on_c, 1, 63, 127
2, 82600, Note_on_c, 1, 66, 127
2, 82600, Note_on_c, 1, 74, 127
2, 82800, Note_off_c, 1, 58, 0
2, 82800, Note_off_c, 1, 63, 0
2, 82800, Note_off_c, 1, 66, 0
2, 82800, Note_off_c, 1, 74, 0
2, 82840, Note_on_c, 1, 46, 127
2, 82840, Note_on_c, 1, 70, 127
2, 83280, Note_off_c, 1, 46, 0
2, 83280, Note_off_c, 1, 70, 0
2, 83320, Note_on_c, 1, 56, 127
2, 83320, Note_on_c, 1, 58, 127
2, 83320, Note_on_c, 1, 62, 127
2, 83320, Note_on_c, 1, 65, 127
2, 83520, Note_off_c, 1, 56, 0
2, 83520, Note_off_c, 1, 58, 0
2, 83520, Note_off_c, 1, 62, 0
2, 83520, Note_off_c, 1, 65, 0
2, 83560, Note_on_c, 1, 46, 127
2, 83560, Note_on_c, 1, 70, 127
2, 83760, Note_off_c, 1, 46, 0
2, 83760, Note_off_c, 1, 70, 0
2, 83800, Note_on_c, 1, 53, 127
2, 83800, Note_on_c, 1, 62, 127
2, 83800, Note_on_c, 1, 70, 127
2, 83880, Note_off_c, 1, 53, 0
2, 83880, Note_off_c, 1, 62, 0
2, 83880, Note_off_c, 1, 70, 0
2, 83920, Note_on_c, 1, 53, 127
2, 83920, Note_on_c, 1, 62, 127
2, 83920, Note_on_c, 1, 70, 127
2, 84040, Note_off_c, 1, 70, 0
2, 84080, Note_on_c, 1, 65, 127
2, 84280, Note_off_c, 1, 53, 0
2, 84280, Note_off_c, 1, 62, 0
2, 84280, Note_off_c, 1, 65, 0
2, 84320, Note_on_c, 1, 51, 127
2, 84320, Note_on_c, 1, 58, 127
2, 84320, Note_on_c, 1, 75, 127
2, 84520, Note_off_c, 1, 51, 0
2, 84520, Note_off_c, 1, 58, 0
2, 84520, Note_off_c, 1, 75, 0
2, 84560, Note_on_c, 1, 46, 127
2, 84560, Note_on_c, 1, 73, 127
2, 84760, Note_off_c, 1, 46, 0
2, 84760, Note_off_c, 1, 73, 0
2, 84800, Note_on_c, 1, 54, 127
2, 84800, Note_on_c, 1, 70, 127
2, 85000, Note_off_c, 1, 54, 0
2, 85000, Note_off_c, 1, 70, 0
2, 85040, Note_on_c, 1, 34, 127
2, 85040, Note_on_c, 1, 70, 127
2, 85240, Note_off_c, 1, 34, 0
2, 85280, Note_on_c, 1, 54, 127
2, 85480, Note_off_c, 1, 54, 0
2, 85520, Note_on_c, 1, 58, 127
2, 85720, Note_off_c, 1, 58, 0
2, 85960, Note_off_c, 1, 70, 0
2, 86000, Note_on_c, 1, 70, 127
2, 86160, Note_off_c, 1, 70, 0
2, 86200, Note_on_c, 1, 70, 127
2, 86240, Note_off_c, 1, 70, 0
2, 86280, Note_on_c, 1, 51, 127
2, 86280, Note_on_c, 1, 66, 127
2, 86480, Note_off_c, 1, 51, 0
2, 86480, Note_off_c, 1, 66, 0
2, 86520, Note_on_c, 1, 63, 127
2, 86720, Note_off_c, 1, 63, 0
2, 86760, Note_on_c, 1, 58, 127
2, 86760, Note_on_c, 1, 66, 127
2, 86960, Note_off_c, 1, 58, 0
2, 86960, Note_off_c, 1, 66, 0
2, 87000, Note_on_c, 1, 70, 127
2, 87200, Note_off_c, 1, 70, 0
2, 87240, Note_on_c, 1, 51, 127
2, 87240, Note_on_c, 1, 66, 127
2, 87440, Note_off_c, 1, 51, 0
2, 87440, Note_off_c, 1, 66, 0
2, 87480, Note_on_c, 1, 65, 127
2, 87680, Note_off_c, 1, 65, 0
2, 87720, Note_on_c, 1, 54, 127
2, 87720, Note_on_c, 1, 70, 127
2, 87920, Note_off_c, 1, 54, 0
2, 87920, Note_off_c, 1, 70, 0
2, 87960, Note_on_c, 1, 70, 127
2, 88160, Note_off_c, 1, 70, 0
2, 88240, Note_on_c, 1, 46, 127
2, 88240, Note_on_c, 1, 73, 127
2, 88440, Note_off_c, 1, 46, 0
2, 88440, Note_off_c, 1, 73, 0
2, 88480, Note_on_c, 1, 76, 127
2, 88680, Note_off_c, 1, 76, 0
2, 88720, Note_on_c, 1, 50, 127
2, 88720, Note_on_c, 1, 70, 127
2, 88920, Note_off_c, 1, 50, 0
2, 88920, Note_off_c, 1, 70, 0
2, 88960, Note_on_c, 1, 73, 127
2, 89160, Note_off_c, 1, 73, 0
2, 89200, Note_on_c, 1, 47, 127
2, 89200, Note_on_c, 1, 70, 127
2, 89400, Note_off_c, 1, 47, 0
2, 89400, Note_off_c, 1, 70, 0
2, 89440, Note_on_c, 1, 71, 127
2, 89640, Note_off_c, 1, 71, 0
2, 89680, Note_on_c, 1, 56, 127
2, 89680, Note_on_c, 1, 68, 127
2, 89880, Note_off_c, 1, 56, 0
2, 89880, Note_off_c, 1, 68, 0
2, 89920, Note_on_c, 1, 75, 127
2, 90120, Note_off_c, 1, 75, 0
2, 90200, Note_on_c, 1, 53, 127
2, 90200, Note_on_c, 1, 68, 127
2, 90400, Note_off_c, 1, 53, 0
2, 90400, Note_off_c, 1, 68, 0
2, 90440, Note_on_c, 1, 63, 127
2, 90640, Note_off_c, 1, 63, 0
2, 90680, Note_on_c, 1, 61, 127
2, 90680, Note_on_c, 1, 70, 127
2, 90880, Note_off_c, 1, 61, 0
2, 90880, Note_off_c, 1, 70, 0
2, 90920, Note_on_c, 1, 77, 127
2, 91120, Note_off_c, 1, 77, 0
2, 91160, Note_on_c, 1, 44, 127
2, 91160, Note_on_c, 1, 75, 127
2, 91360, Note_off_c, 1, 44, 0
2, 91360, Note_off_c, 1, 75, 0
2, 91400, Note_on_c, 1, 71, 127
2, 91600, Note_off_c, 1, 71, 0
2, 91640, Note_on_c, 1, 46, 127
2, 91640, Note_on_c, 1, 55, 127
2, 91640, Note_on_c, 1, 70, 127
2, 91840, Note_off_c, 1, 46, 0
2, 91840, Note_off_c, 1, 55, 0
2, 91880, Note_on_c, 1, 46, 127
2, 91880, Note_on_c, 1, 61, 127
2, 92080, Note_off_c, 1, 46, 0
2, 92080, Note_off_c, 1, 61, 0
2, 92080, Note_off_c, 1, 70, 0
2, 92120, Note_on_c, 1, 70, 127
2, 92240, Note_off_c, 1, 70, 0
2, 92280, Note_on_c, 1, 70, 127
2, 92360, Note_off_c, 1, 70, 0
2, 92400, Note_on_c, 1, 73, 127
2, 92600, Note_off_c, 1, 73, 0
2, 92640, Note_on_c, 1, 46, 127
2, 92640, Note_on_c, 1, 70, 127
2, 92840, Note_off_c, 1, 46, 0
2, 92840, Note_off_c, 1, 70, 0
2, 92880, Note_on_c, 1, 46, 127
2, 93080, Note_off_c, 1, 46, 0
2, 93120, Note_on_c, 1, 44, 127
2, 93120, Note_on_c, 1, 75, 127
2, 93320, Note_off_c, 1, 44, 0
2, 93320, Note_off_c, 1, 75, 0
2, 93320, Note_on_c, 1, 76, 127
2, 93360, Note_on_c, 1, 49, 127
2, 93560, Note_off_c, 1, 49, 0
2, 93600, Note_on_c, 1, 58, 127
2, 93800, Note_off_c, 1, 58, 0
2, 93800, Note_off_c, 1, 76, 0
2, 93840, Note_on_c, 1, 65, 127
2, 93840, Note_on_c, 1, 74, 127
2, 94040, Note_off_c, 1, 65, 0
2, 94040, Note_off_c, 1, 74, 0
2, 94080, Note_on_c, 1, 46, 127
2, 94080, Note_on_c, 1, 75, 127
2, 94280, Note_off_c, 1, 75, 0
2, 94320, Note_off_c, 1, 46, 0
2, 94360, Note_on_c, 1, 46, 127
2, 94360, Note_on_c, 1, 73, 127
2, 94560, Note_off_c, 1, 46, 0
2, 94560, Note_off_c, 1, 73, 0
2, 94600, Note_on_c, 1, 75, 127
2, 94800, Note_off_c, 1, 75, 0
2, 94840, Note_on_c, 1, 49, 127
2, 94840, Note_on_c, 1, 77, 127
2, 95040, Note_off_c, 1, 49, 0
2, 95040, Note_off_c, 1, 77, 0
2, 95080, Note_on_c, 1, 82, 127
2, 95280, Note_off_c, 1, 82, 0
2, 95320, Note_on_c, 1, 50, 127
2, 95320, Note_on_c, 1, 77, 127
2, 95520, Note_off_c, 1, 50, 0
2, 95520, Note_off_c, 1, 77, 0
2, 95560, Note_on_c, 1, 78, 127
2, 95760, Note_off_c, 1, 78, 0
2, 95800, Note_on_c, 1, 46, 127
2, 95800, Note_on_c, 1, 77, 127
2, 96000, Note_off_c, 1, 46, 0
2, 96000, Note_off_c, 1, 77, 0
2, 96040, Note_on_c, 1, 78, 127
2, 96240, Note_off_c, 1, 78, 0
2, 96280, Note_on_c, 1, 49, 127
2, 96280, Note_on_c, 1, 77, 127
2, 96480, Note_off_c, 1, 49, 0
2, 96480, Note_off_c, 1, 77, 0
2, 96560, Note_on_c, 1, 80, 127
2, 96760, Note_off_c, 1, 80, 0
2, 96800, Note_on_c, 1, 54, 127
2, 96800, Note_on_c, 1, 70, 127
2, 97000, Note_off_c, 1, 54, 0
2, 97000, Note_off_c, 1, 70, 0
2, 97040, Note_on_c, 1, 78, 127
2, 97240, Note_off_c, 1, 78, 0
2, 97280, Note_on_c, 1, 54, 127
2, 97280, Note_on_c, 1, 70, 127
2, 97480, Note_off_c, 1, 54, 0
2, 97480, Note_off_c, 1, 70, 0
2, 97520, Note_on_c, 1, 69, 127
2, 97720, Note_off_c, 1, 69, 0
2, 97760, Note_on_c, 1, 56, 127
2, 97760, Note_on_c, 1, 71, 127
2, 97960, Note_off_c, 1, 56, 0
2, 97960, Note_off_c, 1, 71, 0
2, 98000, Note_on_c, 1, 71, 127
2, 98200, Note_off_c, 1, 71, 0
2, 98240, Note_on_c, 1, 58, 127
2, 98240, Note_on_c, 1, 73, 127
2, 98440, Note_off_c, 1, 58, 0
2, 98440, Note_off_c, 1, 73, 0
2, 98480, Note_on_c, 1, 80, 127
2, 98680, Note_off_c, 1, 80, 0
2, 98760, Note_on_c, 1, 51, 127
2, 98760, Note_on_c, 1, 78, 127
2, 98960, Note_off_c, 1, 51, 0
2, 98960, Note_off_c, 1, 78, 0
2, 99000, Note_on_c, 1, 75, 127
2, 99200, Note_off_c, 1, 75, 0
2, 99240, Note_on_c, 1, 58, 127
2, 99240, Note_on_c, 1, 73, 127
2, 99440, Note_off_c, 1, 58, 0
2, 99440, Note_off_c, 1, 73, 0
2, 99480, Note_on_c, 1, 71, 127
2, 99680, Note_off_c, 1, 71, 0
2, 99720, Note_on_c, 1, 58, 127
2, 99720, Note_on_c, 1, 74, 127
2, 99920, Note_off_c, 1, 58, 0
2, 99920, Note_off_c, 1, 74, 0
2, 99960, Note_on_c, 1, 65, 127
2, 100160, Note_off_c, 1, 65, 0
2, 100200, Note_on_c, 1, 59, 127
2, 100200, Note_on_c, 1, 78, 127
2, 100400, Note_off_c, 1, 59, 0
2, 100400, Note_off_c, 1, 78, 0
2, 100440, Note_on_c, 1, 83, 127
2, 100640, Note_off_c, 1, 83, 0
2, 100680, Note_on_c, 1, 54, 127
2, 100680, Note_on_c, 1, 82, 127
2, 100840, Note_off_c, 1, 54, 0
2, 100840, Note_off_c, 1, 82, 0
2, 100880, Note_on_c, 1, 54, 127
2, 100880, Note_on_c, 1, 82, 127
2, 100920, Note_off_c, 1, 54, 0
2, 100920, Note_off_c, 1, 82, 0
2, 100960, Note_on_c, 1, 70, 127
2, 101160, Note_off_c, 1, 70, 0
2, 101200, Note_on_c, 1, 63, 127
2, 101200, Note_on_c, 1, 79, 127
2, 101400, Note_off_c, 1, 63, 0
2, 101400, Note_off_c, 1, 79, 0
2, 101440, Note_on_c, 1, 85, 127
2, 101640, Note_off_c, 1, 85, 0
2, 101680, Note_on_c, 1, 68, 127
2, 101680, Note_on_c, 1, 83, 127
2, 101880, Note_off_c, 1, 68, 0
2, 101880, Note_off_c, 1, 83, 0
2, 101920, Note_on_c, 1, 82, 127
2, 102120, Note_off_c, 1, 82, 0
2, 102160, Note_on_c, 1, 64, 127
2, 102160, Note_on_c, 1, 82, 127
2, 102360, Note_off_c, 1, 64, 0
2, 102360, Note_off_c, 1, 82, 0
2, 102400, Note_on_c, 1, 80, 127
2, 102600, Note_off_c, 1, 80, 0
2, 102640, Note_on_c, 1, 47, 127
2, 102640, Note_on_c, 1, 78, 127
2, 102840, Note_off_c, 1, 47, 0
2, 102840, Note_off_c, 1, 78, 0
2, 102880, Note_on_c, 1, 78, 127
2, 102960, Note_off_c, 1, 78, 0
2, 103000, Note_on_c, 1, 78, 127
2, 103120, Note_off_c, 1, 78, 0
2, 103160, Note_on_c, 1, 54, 127
2, 103160, Note_on_c, 1, 75, 127
2, 103360, Note_off_c, 1, 54, 0
2, 103360, Note_off_c, 1, 75, 0
2, 103400, Note_on_c, 1, 78, 127
2, 103600, Note_off_c, 1, 78, 0
2, 103640, Note_on_c, 1, 59, 127
2, 103640, Note_on_c, 1, 75, 127
2, 103840, Note_off_c, 1, 59, 0
2, 103840, Note_off_c, 1, 75, 0
2, 103880, Note_on_c, 1, 75, 127
2, 104080, Note_off_c, 1, 75, 0
2, 104120, Note_on_c, 1, 47, 127
2, 104120, Note_on_c, 1, 75, 127
2, 104320, Note_off_c, 1, 47, 0
2, 104320, Note_off_c, 1, 75, 0
2, 104360, Note_on_c, 1, 75, 127
2, 104560, Note_off_c, 1, 75, 0
2, 104600, Note_on_c, 1, 47, 127
2, 104600, Note_on_c, 1, 74, 127
2, 104800, Note_off_c, 1, 47, 0
2, 104800, Note_off_c, 1, 74, 0
2, 104840, Note_on_c, 1, 84, 127
2, 105040, Note_off_c, 1, 84, 0
2, 105120, Note_on_c, 1, 47, 127
2, 105120, Note_on_c, 1, 74, 127
2, 105320, Note_off_c, 1, 47, 0
2, 105320, Note_off_c, 1, 74, 0
2, 105360, Note_on_c, 1, 80, 127
2, 105560, Note_off_c, 1, 80, 0
2, 105600, Note_on_c, 1, 54, 127
2, 105600, Note_on_c, 1, 70, 127
2, 105800, Note_off_c, 1, 54, 0
2, 105800, Note_off_c, 1, 70, 0
2, 105840, Note_on_c, 1, 70, 127
2, 106040, Note_off_c, 1, 70, 0
2, 106080, Note_on_c, 1, 54, 127
2, 106080, Note_on_c, 1, 78, 127
2, 106280, Note_off_c, 1, 54, 0
2, 106280, Note_off_c, 1, 78, 0
2, 106320, Note_on_c, 1, 84, 127
2, 106520, Note_off_c, 1, 84, 0
2, 106560, Note_on_c, 1, 54, 127
2, 106560, Note_on_c, 1, 70, 127
2, 106760, Note_off_c, 1, 54, 0
2, 106760, Note_off_c, 1, 70, 0
2, 106800, Note_on_c, 1, 85, 127
2, 107000, Note_off_c, 1, 85, 0
2, 107080, Note_on_c, 1, 51, 127
2, 107080, Note_on_c, 1, 70, 127
2, 107280, Note_off_c, 1, 51, 0
2, 107280, Note_off_c, 1, 70, 0
2, 107320, Note_on_c, 1, 85, 127
2, 107520, Note_off_c, 1, 85, 0
2, 107560, Note_on_c, 1, 60, 127
2, 107560, Note_on_c, 1, 68, 127
2, 107760, Note_off_c, 1, 60, 0
2, 107760, Note_off_c, 1, 68, 0
2, 107800, Note_on_c, 1, 83, 127
2, 108000, Note_off_c, 1, 83, 0
2, 108040, Note_on_c, 1, 51, 127
2, 108040, Note_on_c, 1, 72, 127
2, 108240, Note_off_c, 1, 51, 0
2, 108240, Note_off_c, 1, 72, 0
2, 108280, Note_on_c, 1, 78, 127
2, 108480, Note_off_c, 1, 78, 0
2, 108520, Note_on_c, 1, 52, 127
2, 108520, Note_on_c, 1, 68, 127
2, 108720, Note_off_c, 1, 52, 0
2, 108720, Note_off_c, 1, 68, 0
2, 108760, Note_on_c, 1, 74, 127
2, 108960, Note_off_c, 1, 74, 0
2, 109000, Note_on_c, 1, 59, 127
2, 109000, Note_on_c, 1, 78, 127
2, 109080, Note_off_c, 1, 59, 0
2, 109080, Note_off_c, 1, 78, 0
2, 109120, Note_on_c, 1, 59, 127
2, 109120, Note_on_c, 1, 78, 127
2, 109240, Note_off_c, 1, 59, 0
2, 109240, Note_off_c, 1, 78, 0
2, 109280, Note_on_c, 1, 83, 127
2, 109480, Note_off_c, 1, 83, 0
2, 109520, Note_on_c, 1, 51, 127
2, 109520, Note_on_c, 1, 78, 127
2, 109720, Note_off_c, 1, 51, 0
2, 109720, Note_off_c, 1, 78, 0
2, 109760, Note_on_c, 1, 78, 127
2, 109960, Note_off_c, 1, 78, 0
2, 110000, Note_on_c, 1, 59, 127
2, 110000, Note_on_c, 1, 76, 127
2, 110200, Note_off_c, 1, 59, 0
2, 110200, Note_off_c, 1, 76, 0
2, 110240, Note_on_c, 1, 76, 127
2, 110440, Note_off_c, 1, 76, 0
2, 110480, Note_on_c, 1, 56, 127
2, 110480, Note_on_c, 1, 71, 127
2, 110680, Note_off_c, 1, 56, 0
2, 110680, Note_off_c, 1, 71, 0
2, 110720, Note_on_c, 1, 75, 127
2, 110920, Note_off_c, 1, 75, 0
2, 110960, Note_on_c, 1, 54, 127
2, 110960, Note_on_c, 1, 69, 127
2, 111040, Note_off_c, 1, 54, 0
2, 111040, Note_off_c, 1, 69, 0
2, 111080, Note_on_c, 1, 54, 127
2, 111080, Note_on_c, 1, 69, 127
2, 111200, Note_off_c, 1, 54, 0
2, 111200, Note_off_c, 1, 69, 0
2, 111240, Note_on_c, 1, 72, 127
2, 111440, Note_off_c, 1, 72, 0
2, 111480, Note_on_c, 1, 47, 127
2, 111480, Note_on_c, 1, 66, 127
2, 111680, Note_off_c, 1, 47, 0
2, 111680, Note_off_c, 1, 66, 0
2, 111720, Note_on_c, 1, 59, 127
2, 111920, Note_off_c, 1, 59, 0
2, 111960, Note_on_c, 1, 51, 127
2, 111960, Note_on_c, 1, 67, 127
2, 112160, Note_off_c, 1, 51, 0
2, 112160, Note_off_c, 1, 67, 0
2, 112200, Note_on_c, 1, 71, 127
2, 112400, Note_off_c, 1, 71, 0
2, 112440, Note_on_c, 1, 49, 127
2, 112440, Note_on_c, 1, 68, 127
2, 112640, Note_off_c, 1, 49, 0
2, 112640, Note_off_c, 1, 68, 0
2, 112680, Note_on_c, 1, 61, 127
2, 112880, Note_off_c, 1, 61, 0
2, 112920, Note_on_c, 1, 54, 127
2, 112920, Note_on_c, 1, 68, 127
2, 113120, Note_off_c, 1, 54, 0
2, 113120, Note_off_c, 1, 68, 0
2, 113200, Note_on_c, 1, 71, 127
2, 113400, Note_off_c, 1, 71, 0
2, 113440, Note_on_c, 1, 49, 127
2, 113440, Note_on_c, 1, 68, 127
2, 113640, Note_off_c, 1, 49, 0
2, 113640, Note_off_c, 1, 68, 0
2, 113680, Note_on_c, 1, 61, 127
2, 113880, Note_off_c, 1, 61, 0
2, 113920, Note_on_c, 1, 56, 127
2, 113920, Note_on_c, 1, 68, 127
2, 114120, Note_off_c, 1, 56, 0
2, 114120, Note_off_c, 1, 68, 0
2, 114160, Note_on_c, 1, 73, 127
2, 114360, Note_off_c, 1, 73, 0
2, 114400, Note_on_c, 1, 49, 127
2, 114400, Note_on_c, 1, 68, 127
2, 114600, Note_off_c, 1, 49, 0
2, 114600, Note_off_c, 1, 68, 0
2, 114640, Note_on_c, 1, 58, 127
2, 114840, Note_off_c, 1, 58, 0
2, 114880, Note_on_c, 1, 49, 127
2, 114880, Note_on_c, 1, 59, 127
2, 115080, Note_off_c, 1, 49, 0
2, 115080, Note_off_c, 1, 59, 0
2, 115120, Note_on_c, 1, 62, 127
2, 115280, Note_off_c, 1, 62, 0
2, 115320, Note_on_c, 1, 62, 127
2, 115360, Note_off_c, 1, 62, 0
2, 115400, Note_on_c, 1, 49, 127
2, 115400, Note_on_c, 1, 65, 127
2, 115600, Note_off_c, 1, 49, 0
2, 115600, Note_off_c, 1, 65, 0
2, 115640, Note_on_c, 1, 61, 127
2, 115840, Note_off_c, 1, 61, 0
2, 115880, Note_on_c, 1, 58, 127
2, 115880, Note_on_c, 1, 66, 127
2, 116080, Note_off_c, 1, 58, 0
2, 116080, Note_off_c, 1, 66, 0
2, 116120, Note_on_c, 1, 61, 127
2, 116320, Note_off_c, 1, 61, 0
2, 116360, Note_on_c, 1, 58, 127
2, 116360, Note_on_c, 1, 70, 127
2, 116560, Note_off_c, 1, 58, 0
2, 116560, Note_off_c, 1, 70, 0
2, 116600, Note_on_c, 1, 68, 127
2, 116800, Note_off_c, 1, 68, 0
2, 116840, Note_on_c, 1, 54, 127
2, 116840, Note_on_c, 1, 70, 127
2, 117040, Note_off_c, 1, 54, 0
2, 117040, Note_off_c, 1, 70, 0
2, 117080, Note_on_c, 1, 61, 127
2, 117080, Note_on_c, 1, 73, 127
2, 117280, Note_off_c, 1, 61, 0
2, 117280, Note_off_c, 1, 73, 0
2, 117360, Note_on_c, 1, 66, 127
2, 117360, Note_on_c, 1, 70, 127
2, 117560, Note_off_c, 1, 66, 0
2, 117560, Note_off_c, 1, 70, 0
2, 117600, Note_on_c, 1, 73, 127
2, 117800, Note_off_c, 1, 73, 0
2, 117840, Note_on_c, 1, 54, 127
2, 117840, Note_on_c, 1, 70, 127
2, 118040, Note_off_c, 1, 54, 0
2, 118040, Note_off_c, 1, 70, 0
2, 118080, Note_on_c, 1, 66, 127
2, 118280, Note_off_c, 1, 66, 0
2, 118320, Note_on_c, 1, 50, 127
2, 118320, Note_on_c, 1, 65, 127
2, 118520, Note_off_c, 1, 50, 0
2, 118520, Note_off_c, 1, 65, 0
2, 118560, Note_on_c, 1, 63, 127
2, 118760, Note_off_c, 1, 63, 0
2, 118800, Note_on_c, 1, 58, 127
2, 118800, Note_on_c, 1, 66, 127
2, 119000, Note_off_c, 1, 58, 0
2, 119000, Note_off_c, 1, 66, 0
2, 119040, Note_on_c, 1, 72, 127
2, 119240, Note_off_c, 1, 72, 0
2, 119320, Note_on_c, 1, 54, 127
2, 119320, Note_on_c, 1, 63, 127
2, 119520, Note_off_c, 1, 54, 0
2, 119520, Note_off_c, 1, 63, 0
2, 119560, Note_on_c, 1, 70, 127
2, 119760, Note_off_c, 1, 70, 0
2, 119800, Note_on_c, 1, 54, 127
2, 119800, Note_on_c, 1, 70, 127
2, 120000, Note_off_c, 1, 54, 0
2, 120000, Note_off_c, 1, 70, 0
2, 120040, End_track
3, 0, Start_track
3, 0, Title_t, "MIDI"
3, 1536, End_track
0, 0, End_of_file
