0, 0, Header, 1, 3, 192
1, 0, Start_track
1, 0, Time_signature, 4, 2, 24, 8
1, 0, Tempo, 500000
1, 120040, End_track
2, 0, Start_track
2, 0, Text_t, "random instrument: random person i dunno whatev"
2, 0, Title_t, "Track 1"
2, 0, Note_on_c, 1, 40, 127
2, 0, Note_on_c, 1, 48, 127
2, 0, Note_on_c, 1, 56, 127
2, 0, Note_on_c, 1, 60, 127
2, 40, Note_off_c, 1, 40, 0
2, 40, Note_off_c, 1, 48, 0
2, 40, Note_on_c, 1, 55, 127
2, 40, Note_off_c, 1, 56, 0
2, 40, Note_off_c, 1, 60, 0
2, 40, Note_on_c, 1, 72, 127
2, 40, Note_on_c, 1, 75, 127
2, 40, Note_on_c, 1, 79, 127
2, 40, Note_on_c, 1, 84, 127
2, 80, Note_off_c, 1, 55, 0
2, 80, Note_off_c, 1, 72, 0
2, 80, Note_off_c, 1, 75, 0
2, 80, Note_off_c, 1, 79, 0
2, 80, Note_off_c, 1, 84, 0
2, 120, Note_on_c, 1, 50, 127
2, 120, Note_on_c, 1, 59, 127
2, 120, Note_on_c, 1, 62, 127
2, 120, Note_on_c, 1, 78, 127
2, 160, Note_off_c, 1, 50, 0
2, 160, Note_off_c, 1, 59, 0
2, 160, Note_on_c, 1, 60, 127
2, 160, Note_off_c, 1, 62, 0
2, 160, Note_on_c, 1, 66, 127
2, 160, Note_on_c, 1, 68, 127
2, 160, Note_off_c, 1, 78, 0
2, 160, Note_on_c, 1, 90, 127
2, 200, Note_on_c, 1, 35, 127
2, 200, Note_on_c, 1, 39, 127
2, 200, Note_on_c, 1, 47, 127
2, 200, Note_on_c, 1, 50, 127
2, 200, Note_off_c, 1, 60, 0
2, 200, Note_off_c, 1, 66, 0
2, 200, Note_off_c, 1, 68, 0
2, 200, Note_off_c, 1, 90, 0
2, 240, Note_off_c, 1, 35, 0
2, 240, Note_off_c, 1, 39, 0
2, 240, Note_off_c, 1, 47, 0
2, 240, Note_off_c, 1, 50, 0
2, 240, Note_on_c, 1, 51, 127
2, 240, Note_on_c, 1, 55, 127
2, 240, Note_on_c, 1, 58, 127
2, 240, Note_on_c, 1, 63, 127
2, 240, Note_on_c, 1, 82, 127
2, 240, Note_on_c, 1, 91, 127
2, 280, Note_off_c, 1, 51, 0
2, 280, Note_off_c, 1, 55, 0
2, 280, Note_off_c, 1, 58, 0
2, 280, Note_off_c, 1, 63, 0
2, 280, Note_on_c, 1, 76, 127
2, 280, Note_on_c, 1, 80, 127
2, 280, Note_off_c, 1, 82, 0
2, 280, Note_on_c, 1, 83, 127
2, 280, Note_on_c, 1, 89, 127
2, 280, Note_off_c, 1, 91, 0
2, 320, Note_on_c, 1, 58, 127
2, 320, Note_on_c, 1, 63, 127
2, 320, Note_on_c, 1, 66, 127
2, 320, Note_on_c, 1, 72, 127
2, 320, Note_on_c, 1, 75, 127
2, 320, Note_off_c, 1, 76, 0
2, 320, Note_off_c, 1, 80, 0
2, 320, Note_on_c, 1, 82, 127
2, 320, Note_off_c, 1, 83, 0
2, 320, Note_on_c, 1, 87, 127
2, 320, Note_off_c, 1, 89, 0
2, 360, Note_on_c, 1, 57, 127
2, 360, Note_off_c, 1, 58, 0
2, 360, Note_on_c, 1, 62, 127
2, 360, Note_off_c, 1, 63, 0
2, 360, Note_off_c, 1, 66, 0
2, 360, Note_off_c, 1, 72, 0
2, 360, Note_off_c, 1, 75, 0
2, 360, Note_off_c, 1, 82, 0
2, 360, Note_off_c, 1, 87, 0
2, 400, Note_off_c, 1, 57, 0
2, 400, Note_on_c, 1, 60, 127
2, 400, Note_off_c, 1, 62, 0
2, 400, Note_on_c, 1, 85, 127
2, 400, Note_on_c, 1, 88, 127
2, 440, Note_on_c, 1, 50, 127
2, 440, Note_on_c, 1, 57, 127
2, 440, Note_off_c, 1, 60, 0
2, 440, Note_on_c, 1, 65, 127
2, 440, Note_off_c, 1, 85, 0
2, 440, Note_off_c, 1, 88, 0
2, 440, Note_on_c, 1, 93, 127
2, 800, Note_off_c, 1, 50, 0
2, 800, Note_off_c, 1, 57, 0
2, 800, Note_off_c, 1, 65, 0
2, 800, Note_off_c, 1, 93, 0
2, 5240, Note_on_c, 1, 43, 127
2, 5240, Note_on_c, 1, 50, 127
2, 5240, Note_on_c, 1, 60, 127
2, 5240, Note_on_c, 1, 62, 127
2, 5240, Note_on_c, 1, 69, 127
2, 5480, Note_off_c, 1, 43, 0
2, 5480, Note_off_c, 1, 50, 0
2, 5480, Note_off_c, 1, 60, 0
2, 5480, Note_off_c, 1, 62, 0
2, 5480, Note_off_c, 1, 69, 0
2, 6120, Note_on_c, 1, 47, 127
2, 6120, Note_on_c, 1, 56, 127
2, 6120, Note_on_c, 1, 64, 127
2, 6120, Note_on_c, 1, 70, 127
2, 6160, Note_off_c, 1, 47, 0
2, 6160, Note_off_c, 1, 56, 0
2, 6160, Note_off_c, 1, 64, 0
2, 6160, Note_on_c, 1, 68, 127
2, 6160, Note_off_c, 1, 70, 0
2, 6160, Note_on_c, 1, 73, 127
2, 6160, Note_on_c, 1, 80, 127
2, 6160, Note_on_c, 1, 85, 127
2, 6160, Note_on_c, 1, 89, 127
2, 6200, Note_on_c, 1, 42, 127
2, 6200, Note_on_c, 1, 52, 127
2, 6200, Note_on_c, 1, 59, 127
2, 6200, Note_on_c, 1, 64, 127
2, 6200, Note_off_c, 1, 68, 0
2, 6200, Note_off_c, 1, 73, 0
2, 6200, Note_off_c, 1, 80, 0
2, 6200, Note_off_c, 1, 85, 0
2, 6200, Note_off_c, 1, 89, 0
2, 6240, Note_off_c, 1, 42, 0
2, 6240, Note_off_c, 1, 52, 0
2, 6240, Note_off_c, 1, 59, 0
2, 6240, Note_off_c, 1, 64, 0
2, 6240, Note_on_c, 1, 68, 127
2, 6240, Note_on_c, 1, 73, 127
2, 6240, Note_on_c, 1, 80, 127
2, 6240, Note_on_c, 1, 85, 127
2, 6240, Note_on_c, 1, 89, 127
2, 6280, Note_off_c, 1, 68, 0
2, 6280, Note_off_c, 1, 73, 0
2, 6280, Note_off_c, 1, 80, 0
2, 6280, Note_off_c, 1, 85, 0
2, 6280, Note_off_c, 1, 89, 0
2, 6320, Note_on_c, 1, 68, 127
2, 6320, Note_on_c, 1, 73, 127
2, 6320, Note_on_c, 1, 80, 127
2, 6320, Note_on_c, 1, 85, 127
2, 6320, Note_on_c, 1, 89, 127
2, 6480, Note_off_c, 1, 68, 0
2, 6480, Note_off_c, 1, 80, 0
2, 6480, Note_off_c, 1, 85, 0
2, 6480, Note_off_c, 1, 89, 0
2, 6520, Note_on_c, 1, 68, 127
2, 6520, Note_on_c, 1, 80, 127
2, 6520, Note_on_c, 1, 85, 127
2, 6520, Note_on_c, 1, 89, 127
2, 6640, Note_off_c, 1, 68, 0
2, 6640, Note_off_c, 1, 80, 0
2, 6640, Note_off_c, 1, 85, 0
2, 6640, Note_off_c, 1, 89, 0
2, 6720, Note_on_c, 1, 43, 127
2, 6720, Note_on_c, 1, 51, 127
2, 6720, Note_on_c, 1, 55, 127
2, 6720, Note_on_c, 1, 60, 127
2, 6720, Note_on_c, 1, 63, 127
2, 6720, Note_on_c, 1, 72, 127
2, 6720, Note_off_c, 1, 73, 0
2, 7040, Note_off_c, 1, 43, 0
2, 7040, Note_off_c, 1, 51, 0
2, 7040, Note_off_c, 1, 55, 0
2, 7040, Note_off_c, 1, 60, 0
2, 7040, Note_off_c, 1, 63, 0
2, 7040, Note_off_c, 1, 72, 0
2, 7080, Note_on_c, 1, 58, 127
2, 7080, Note_on_c, 1, 61, 127
2, 7080, Note_on_c, 1, 68, 127
2, 7080, Note_on_c, 1, 75, 127
2, 7200, Note_off_c, 1, 58, 0
2, 7200, Note_off_c, 1, 61, 0
2, 7200, Note_off_c, 1, 68, 0
2, 7200, Note_off_c, 1, 75, 0
2, 7240, Note_on_c, 1, 58, 127
2, 7240, Note_on_c, 1, 61, 127
2, 7240, Note_on_c, 1, 68, 127
2, 7240, Note_on_c, 1, 75, 127
2, 7720, Note_off_c, 1, 58, 0
2, 7720, Note_off_c, 1, 61, 0
2, 7720, Note_off_c, 1, 68, 0
2, 7760, Note_on_c, 1, 58, 127
2, 7760, Note_on_c, 1, 61, 127
2, 7760, Note_on_c, 1, 67, 127
2, 8160, Note_off_c, 1, 58, 0
2, 8160, Note_off_c, 1, 61, 0
2, 8160, Note_off_c, 1, 67, 0
2, 8160, Note_off_c, 1, 75, 0
2, 8200, Note_on_c, 1, 58, 127
2, 8200, Note_on_c, 1, 61, 127
2, 8200, Note_on_c, 1, 67, 127
2, 8200, Note_on_c, 1, 75, 127
2, 8280, Note_off_c, 1, 58, 0
2, 8280, Note_off_c, 1, 61, 0
2, 8280, Note_off_c, 1, 67, 0
2, 8280, Note_on_c, 1, 68, 127
2, 8280, Note_off_c, 1, 75, 0
2, 8320, Note_on_c, 1, 58, 127
2, 8320, Note_on_c, 1, 61, 127
2, 8320, Note_on_c, 1, 67, 127
2, 8320, Note_off_c, 1, 68, 0
2, 8320, Note_on_c, 1, 75, 127
2, 8480, Note_off_c, 1, 75, 0
2, 8520, Note_on_c, 1, 76, 127
2, 8640, Note_off_c, 1, 58, 0
2, 8640, Note_off_c, 1, 61, 0
2, 8640, Note_off_c, 1, 67, 0
2, 8640, Note_off_c, 1, 76, 0
2, 8680, Note_on_c, 1, 55, 127
2, 8680, Note_on_c, 1, 58, 127
2, 8680, Note_on_c, 1, 62, 127
2, 8680, Note_on_c, 1, 73, 127
2, 8960, Note_off_c, 1, 55, 0
2, 8960, Note_off_c, 1, 58, 0
2, 8960, Note_off_c, 1, 62, 0
2, 8960, Note_off_c, 1, 73, 0
2, 9000, Note_on_c, 1, 73, 127
2, 9040, Note_on_c, 1, 58, 127
2, 9040, Note_off_c, 1, 73, 0
2, 9040, Note_on_c, 1, 79, 127
2, 9040, Note_on_c, 1, 82, 127
2, 9160, Note_off_c, 1, 79, 0
2, 9160, Note_off_c, 1, 82, 0
2, 9200, Note_off_c, 1, 58, 0
2, 9200, Note_on_c, 1, 92, 127
2, 9200, Note_on_c, 1, 95, 127
2, 9200, Note_on_c, 1, 101, 127
2, 9280, Note_on_c, 1, 55, 127
2, 9280, Note_on_c, 1, 82, 127
2, 9280, Note_on_c, 1, 85, 127
2, 9280, Note_off_c, 1, 92, 0
2, 9280, Note_off_c, 1, 95, 0
2, 9280, Note_off_c, 1, 101, 0
2, 9320, Note_off_c, 1, 55, 0
2, 9320, Note_on_c, 1, 75, 127
2, 9360, Note_on_c, 1, 56, 127
2, 9360, Note_on_c, 1, 58, 127
2, 9360, Note_on_c, 1, 64, 127
2, 9360, Note_off_c, 1, 75, 0
2, 9360, Note_off_c, 1, 82, 0
2, 9360, Note_off_c, 1, 85, 0
2, 9400, Note_off_c, 1, 56, 0
2, 9400, Note_off_c, 1, 64, 0
2, 9400, Note_on_c, 1, 73, 127
2, 9440, Note_on_c, 1, 55, 127
2, 9440, Note_on_c, 1, 63, 127
2, 9440, Note_off_c, 1, 73, 0
2, 9440, Note_on_c, 1, 87, 127
2, 9480, Note_off_c, 1, 55, 0
2, 9480, Note_off_c, 1, 63, 0
2, 9520, Note_on_c, 1, 54, 127
2, 9520, Note_off_c, 1, 58, 0
2, 9520, Note_on_c, 1, 60, 127
2, 9520, Note_on_c, 1, 66, 127
2, 9520, Note_on_c, 1, 70, 127
2, 9520, Note_off_c, 1, 87, 0
2, 9680, Note_off_c, 1, 54, 0
2, 9680, Note_off_c, 1, 60, 0
2, 9680, Note_off_c, 1, 66, 0
2, 9720, Note_on_c, 1, 56, 127
2, 9840, Note_off_c, 1, 56, 0
2, 9840, Note_off_c, 1, 70, 0
2, 9880, Note_on_c, 1, 51, 127
2, 9880, Note_on_c, 1, 58, 127
2, 9880, Note_on_c, 1, 61, 127
2, 9880, Note_on_c, 1, 67, 127
2, 9880, Note_on_c, 1, 75, 127
2, 10160, Note_off_c, 1, 51, 0
2, 10160, Note_off_c, 1, 58, 0
2, 10160, Note_off_c, 1, 61, 0
2, 10160, Note_off_c, 1, 67, 0
2, 10200, Note_off_c, 1, 75, 0
2, 10280, Note_on_c, 1, 51, 127
2, 10280, Note_on_c, 1, 58, 127
2, 10280, Note_on_c, 1, 61, 127
2, 10280, Note_on_c, 1, 67, 127
2, 10280, Note_on_c, 1, 75, 127
2, 10560, Note_off_c, 1, 51, 0
2, 10560, Note_off_c, 1, 58, 0
2, 10560, Note_off_c, 1, 61, 0
2, 10560, Note_off_c, 1, 67, 0
2, 10560, Note_off_c, 1, 75, 0
2, 10600, Note_on_c, 1, 51, 127
2, 10600, Note_on_c, 1, 56, 127
2, 10600, Note_on_c, 1, 60, 127
2, 10600, Note_on_c, 1, 77, 127
2, 10880, Note_off_c, 1, 51, 0
2, 10880, Note_off_c, 1, 56, 0
2, 10880, Note_off_c, 1, 60, 0
2, 10880, Note_on_c, 1, 75, 127
2, 10880, Note_off_c, 1, 77, 0
2, 10960, Note_on_c, 1, 51, 127
2, 10960, Note_on_c, 1, 56, 127
2, 10960, Note_on_c, 1, 60, 127
2, 10960, Note_off_c, 1, 75, 0
2, 10960, Note_on_c, 1, 77, 127
2, 11240, Note_off_c, 1, 51, 0
2, 11240, Note_off_c, 1, 56, 0
2, 11240, Note_off_c, 1, 60, 0
2, 11240, Note_off_c, 1, 77, 0
2, 11240, Note_on_c, 1, 79, 127
2, 11280, Note_off_c, 1, 79, 0
2, 11320, Note_on_c, 1, 51, 127
2, 11320, Note_on_c, 1, 56, 127
2, 11320, Note_on_c, 1, 60, 127
2, 11320, Note_on_c, 1, 80, 127
2, 11840, Note_off_c, 1, 80, 0
2, 11840, Note_on_c, 1, 84, 127
2, 11880, Note_on_c, 1, 80, 127
2, 11880, Note_off_c, 1, 84, 0
2, 11920, Note_on_c, 1, 75, 127
2, 11920, Note_off_c, 1, 80, 0
2, 12000, Note_on_c, 1, 72, 127
2, 12000, Note_off_c, 1, 75, 0
2, 12040, Note_off_c, 1, 72, 0
2, 12040, Note_on_c, 1, 75, 127
2, 12080, Note_on_c, 1, 72, 127
2, 12080, Note_off_c, 1, 75, 0
2, 12160, Note_on_c, 1, 68, 127
2, 12160, Note_off_c, 1, 72, 0
2, 12320, Note_off_c, 1, 51, 0
2, 12320, Note_off_c, 1, 56, 0
2, 12320, Note_off_c, 1, 60, 0
2, 12320, Note_off_c, 1, 68, 0
2, 12400, Note_on_c, 1, 51, 127
2, 12400, Note_on_c, 1, 61, 127
2, 12400, Note_on_c, 1, 67, 127
2, 12400, Note_on_c, 1, 70, 127
2, 12600, Note_off_c, 1, 70, 0
2, 12680, Note_off_c, 1, 51, 0
2, 12680, Note_off_c, 1, 61, 0
2, 12720, Note_on_c, 1, 51, 127
2, 12720, Note_on_c, 1, 61, 127
2, 12720, Note_on_c, 1, 70, 127
2, 12840, Note_off_c, 1, 70, 0
2, 12880, Note_on_c, 1, 70, 127
2, 13040, Note_off_c, 1, 51, 0
2, 13040, Note_off_c, 1, 61, 0
2, 13040, Note_off_c, 1, 67, 0
2, 13080, Note_on_c, 1, 58, 127
2, 13080, Note_on_c, 1, 63, 127
2, 13080, Note_on_c, 1, 67, 127
2, 13080, Note_off_c, 1, 70, 0
2, 13080, Note_on_c, 1, 73, 127
2, 13320, Note_off_c, 1, 58, 0
2, 13320, Note_off_c, 1, 67, 0
2, 13320, Note_off_c, 1, 73, 0
2, 13360, Note_on_c, 1, 36, 127
2, 13360, Note_on_c, 1, 46, 127
2, 13360, Note_on_c, 1, 62, 127
2, 13360, Note_off_c, 1, 63, 0
2, 13400, Note_off_c, 1, 36, 0
2, 13400, Note_off_c, 1, 46, 0
2, 13400, Note_on_c, 1, 61, 127
2, 13400, Note_off_c, 1, 62, 0
2, 13400, Note_on_c, 1, 63, 127
2, 13400, Note_on_c, 1, 67, 127
2, 13400, Note_on_c, 1, 72, 127
2, 13560, Note_off_c, 1, 72, 0
2, 13600, Note_on_c, 1, 72, 127
2, 13640, Note_off_c, 1, 61, 0
2, 13640, Note_off_c, 1, 67, 0
2, 13640, Note_off_c, 1, 72, 0
2, 13680, Note_on_c, 1, 60, 127
2, 13680, Note_on_c, 1, 68, 127
2, 13680, Note_on_c, 1, 72, 127
2, 13920, Note_off_c, 1, 60, 0
2, 13920, Note_off_c, 1, 68, 0
2, 13920, Note_off_c, 1, 72, 0
2, 13960, Note_on_c, 1, 67, 127
2, 13960, Note_on_c, 1, 70, 127
2, 14240, Note_off_c, 1, 63, 0
2, 14280, Note_on_c, 1, 63, 127
2, 14480, Note_off_c, 1, 63, 0
2, 14480, Note_off_c, 1, 67, 0
2, 14480, Note_off_c, 1, 70, 0
2, 14520, Note_on_c, 1, 63, 127
2, 14520, Note_on_c, 1, 67, 127
2, 14520, Note_on_c, 1, 70, 127
2, 14560, Note_off_c, 1, 63, 0
2, 14600, Note_on_c, 1, 63, 127
2, 14600, Note_on_c, 1, 68, 127
2, 14600, Note_off_c, 1, 70, 0
2, 14880, Note_off_c, 1, 63, 0
2, 14880, Note_off_c, 1, 68, 0
2, 14920, Note_on_c, 1, 63, 127
2, 14920, Note_on_c, 1, 72, 127
2, 15200, Note_off_c, 1, 63, 0
2, 15200, Note_off_c, 1, 72, 0
2, 15240, Note_off_c, 1, 67, 0
2, 15280, Note_on_c, 1, 73, 127
2, 15320, Note_off_c, 1, 73, 0
2, 15360, Note_on_c, 1, 75, 127
2, 16640, Note_off_c, 1, 75, 0
2, 16680, Note_on_c, 1, 75, 127
2, 16720, Note_off_c, 1, 75, 0
2, 16760, Note_on_c, 1, 75, 127
2, 17000, Note_off_c, 1, 75, 0
2, 17040, Note_on_c, 1, 75, 127
2, 17360, Note_on_c, 1, 63, 127
2, 17360, Note_on_c, 1, 67, 127
2, 17360, Note_on_c, 1, 70, 127
2, 17600, Note_off_c, 1, 63, 0
2, 17600, Note_off_c, 1, 67, 0
2, 17600, Note_off_c, 1, 70, 0
2, 17600, Note_off_c, 1, 75, 0
2, 17640, Note_on_c, 1, 51, 127
2, 17640, Note_on_c, 1, 80, 127
2, 17640, Note_on_c, 1, 83, 127
2, 17640, Note_on_c, 1, 87, 127
2, 17720, Note_on_c, 1, 79, 127
2, 17720, Note_off_c, 1, 80, 0
2, 17720, Note_on_c, 1, 82, 127
2, 17720, Note_off_c, 1, 83, 0
2, 17880, Note_off_c, 1, 51, 0
2, 17880, Note_off_c, 1, 79, 0
2, 17880, Note_off_c, 1, 82, 0
2, 17880, Note_off_c, 1, 87, 0
2, 17920, Note_on_c, 1, 51, 127
2, 17920, Note_on_c, 1, 66, 127
2, 17920, Note_on_c, 1, 73, 127
2, 18200, Note_off_c, 1, 51, 0
2, 18200, Note_off_c, 1, 66, 0
2, 18200, Note_off_c, 1, 73, 0
2, 18240, Note_on_c, 1, 51, 127
2, 18240, Note_on_c, 1, 61, 127
2, 18240, Note_on_c, 1, 67, 127
2, 18240, Note_on_c, 1, 70, 127
2, 18480, Note_off_c, 1, 51, 0
2, 18480, Note_off_c, 1, 61, 0
2, 18480, Note_off_c, 1, 67, 0
2, 18520, Note_on_c, 1, 54, 127
2, 18520, Note_on_c, 1, 58, 127
2, 18520, Note_on_c, 1, 62, 127
2, 18520, Note_off_c, 1, 70, 0
2, 18520, Note_on_c, 1, 77, 127
2, 18560, Note_on_c, 1, 56, 127
2, 18560, Note_off_c, 1, 58, 0
2, 18560, Note_off_c, 1, 62, 0
2, 18560, Note_on_c, 1, 63, 127
2, 18560, Note_on_c, 1, 68, 127
2, 18560, Note_off_c, 1, 77, 0
2, 18600, Note_off_c, 1, 68, 0
2, 18600, Note_on_c, 1, 70, 127
2, 18640, Note_on_c, 1, 68, 127
2, 18640, Note_off_c, 1, 70, 0
2, 18800, Note_off_c, 1, 54, 0
2, 18800, Note_off_c, 1, 56, 0
2, 18800, Note_off_c, 1, 63, 0
2, 18800, Note_off_c, 1, 68, 0
2, 18880, Note_on_c, 1, 54, 127
2, 18880, Note_on_c, 1, 63, 127
2, 18880, Note_on_c, 1, 73, 127
2, 19080, Note_on_c, 1, 71, 127
2, 19080, Note_off_c, 1, 73, 0
2, 19120, Note_off_c, 1, 54, 0
2, 19120, Note_off_c, 1, 71, 0
2, 19160, Note_on_c, 1, 55, 127
2, 19160, Note_on_c, 1, 70, 127
2, 19400, Note_off_c, 1, 63, 0
2, 19440, Note_on_c, 1, 63, 127
2, 19720, Note_off_c, 1, 63, 0
2, 19760, Note_on_c, 1, 44, 127
2, 19760, Note_off_c, 1, 55, 0
2, 19760, Note_on_c, 1, 60, 127
2, 19760, Note_on_c, 1, 69, 127
2, 19760, Note_off_c, 1, 70, 0
2, 19960, Note_off_c, 1, 44, 0
2, 20000, Note_on_c, 1, 44, 127
2, 20160, Note_off_c, 1, 44, 0
2, 20200, Note_on_c, 1, 53, 127
2, 20240, Note_off_c, 1, 69, 0
2, 20240, Note_on_c, 1, 70, 127
2, 20280, Note_off_c, 1, 53, 0
2, 20280, Note_off_c, 1, 70, 0
2, 20320, Note_on_c, 1, 55, 127
2, 20320, Note_on_c, 1, 58, 127
2, 20320, Note_off_c, 1, 60, 0
2, 20320, Note_on_c, 1, 70, 127
2, 20480, Note_on_c, 1, 62, 127
2, 20560, Note_off_c, 1, 62, 0
2, 20880, Note_off_c, 1, 55, 0
2, 20880, Note_off_c, 1, 58, 0
2, 20880, Note_off_c, 1, 70, 0
2, 20920, Note_on_c, 1, 55, 127
2, 20920, Note_on_c, 1, 58, 127
2, 20920, Note_on_c, 1, 70, 127
2, 20960, Note_off_c, 1, 55, 0
2, 20960, Note_off_c, 1, 58, 0
2, 20960, Note_off_c, 1, 70, 0
2, 21000, Note_on_c, 1, 51, 127
2, 21000, Note_on_c, 1, 58, 127
2, 21000, Note_on_c, 1, 65, 127
2, 21000, Note_on_c, 1, 70, 127
2, 21240, Note_off_c, 1, 58, 0
2, 21240, Note_off_c, 1, 65, 0
2, 21280, Note_on_c, 1, 55, 127
2, 21280, Note_on_c, 1, 63, 127
2, 21560, Note_off_c, 1, 55, 0
2, 21560, Note_off_c, 1, 63, 0
2, 21600, Note_on_c, 1, 63, 127
2, 21600, Note_on_c, 1, 67, 127
2, 21840, Note_off_c, 1, 63, 0
2, 21840, Note_off_c, 1, 67, 0
2, 21880, Note_on_c, 1, 60, 127
2, 21880, Note_on_c, 1, 63, 127
2, 21880, Note_on_c, 1, 67, 127
2, 21920, Note_on_c, 1, 57, 127
2, 21920, Note_off_c, 1, 60, 0
2, 21960, Note_off_c, 1, 57, 0
2, 21960, Note_on_c, 1, 60, 127
2, 22120, Note_on_c, 1, 58, 127
2, 22120, Note_off_c, 1, 60, 0
2, 22120, Note_off_c, 1, 63, 0
2, 22120, Note_off_c, 1, 67, 0
2, 22120, Note_off_c, 1, 70, 0
2, 22400, Note_off_c, 1, 58, 0
2, 22440, Note_off_c, 1, 51, 0
2, 22480, Note_on_c, 1, 39, 127
2, 22480, Note_on_c, 1, 51, 127
2, 22480, Note_on_c, 1, 58, 127
2, 22480, Note_on_c, 1, 67, 127
2, 22480, Note_on_c, 1, 70, 127
2, 22720, Note_off_c, 1, 39, 0
2, 22720, Note_off_c, 1, 58, 0
2, 22720, Note_on_c, 1, 63, 127
2, 23040, Note_on_c, 1, 44, 127
2, 23040, Note_off_c, 1, 51, 0
2, 23040, Note_off_c, 1, 63, 0
2, 23040, Note_off_c, 1, 67, 0
2, 23080, Note_off_c, 1, 44, 0
2, 23080, Note_off_c, 1, 70, 0
2, 23120, Note_on_c, 1, 41, 127
2, 23120, Note_on_c, 1, 46, 127
2, 23120, Note_on_c, 1, 70, 127
2, 23120, Note_on_c, 1, 82, 127
2, 23680, Note_off_c, 1, 41, 0
2, 23680, Note_off_c, 1, 46, 0
2, 23680, Note_off_c, 1, 70, 0
2, 23680, Note_off_c, 1, 82, 0
2, 23720, Note_on_c, 1, 43, 127
2, 23720, Note_on_c, 1, 55, 127
2, 23720, Note_on_c, 1, 58, 127
2, 23720, Note_on_c, 1, 63, 127
2, 23720, Note_on_c, 1, 70, 127
2, 24280, Note_off_c, 1, 43, 0
2, 24280, Note_off_c, 1, 55, 0
2, 24280, Note_off_c, 1, 58, 0
2, 24280, Note_off_c, 1, 63, 0
2, 24280, Note_off_c, 1, 70, 0
2, 24320, Note_on_c, 1, 38, 127
2, 24320, Note_on_c, 1, 50, 127
2, 24320, Note_on_c, 1, 65, 127
2, 24320, Note_on_c, 1, 68, 127
2, 24560, Note_off_c, 1, 65, 0
2, 24600, Note_on_c, 1, 65, 127
2, 24880, Note_off_c, 1, 65, 0
2, 24880, Note_off_c, 1, 68, 0
2, 24920, Note_on_c, 1, 56, 127
2, 24920, Note_on_c, 1, 65, 127
2, 25120, Note_off_c, 1, 38, 0
2, 25120, Note_off_c, 1, 50, 0
2, 25120, Note_off_c, 1, 56, 0
2, 25120, Note_off_c, 1, 65, 0
2, 25160, Note_on_c, 1, 38, 127
2, 25160, Note_on_c, 1, 50, 127
2, 25160, Note_on_c, 1, 58, 127
2, 25160, Note_on_c, 1, 65, 127
2, 25200, Note_off_c, 1, 58, 0
2, 25200, Note_off_c, 1, 65, 0
2, 25240, Note_on_c, 1, 58, 127
2, 25240, Note_on_c, 1, 65, 127
2, 25480, Note_off_c, 1, 38, 0
2, 25480, Note_off_c, 1, 50, 0
2, 25480, Note_off_c, 1, 58, 0
2, 25480, Note_off_c, 1, 65, 0
2, 25520, Note_on_c, 1, 34, 127
2, 25520, Note_on_c, 1, 41, 127
2, 25520, Note_on_c, 1, 46, 127
2, 25520, Note_on_c, 1, 74, 127
2, 25520, Note_on_c, 1, 77, 127
2, 25520, Note_on_c, 1, 82, 127
2, 25520, Note_on_c, 1, 86, 127
2, 26360, Note_off_c, 1, 34, 0
2, 26360, Note_on_c, 1, 38, 127
2, 26360, Note_off_c, 1, 41, 0
2, 26360, Note_off_c, 1, 46, 0
2, 26360, Note_on_c, 1, 50, 127
2, 26360, Note_on_c, 1, 71, 127
2, 26360, Note_off_c, 1, 74, 0
2, 26360, Note_off_c, 1, 82, 0
2, 26360, Note_on_c, 1, 83, 127
2, 26360, Note_off_c, 1, 86, 0
2, 26400, Note_off_c, 1, 38, 0
2, 26400, Note_off_c, 1, 50, 0
2, 26400, Note_off_c, 1, 71, 0
2, 26400, Note_off_c, 1, 77, 0
2, 26400, Note_off_c, 1, 83, 0
2, 26440, Note_on_c, 1, 34, 127
2, 26440, Note_on_c, 1, 41, 127
2, 26440, Note_on_c, 1, 46, 127
2, 26440, Note_on_c, 1, 74, 127
2, 26440, Note_on_c, 1, 77, 127
2, 26440, Note_on_c, 1, 82, 127
2, 26440, Note_on_c, 1, 86, 127
2, 27000, Note_off_c, 1, 34, 0
2, 27000, Note_off_c, 1, 41, 0
2, 27000, Note_off_c, 1, 46, 0
2, 27000, Note_off_c, 1, 74, 0
2, 27000, Note_off_c, 1, 77, 0
2, 27000, Note_off_c, 1, 82, 0
2, 27000, Note_off_c, 1, 86, 0
2, 27040, Note_on_c, 1, 34, 127
2, 27040, Note_on_c, 1, 41, 127
2, 27040, Note_on_c, 1, 46, 127
2, 27040, Note_on_c, 1, 74, 127
2, 27040, Note_on_c, 1, 77, 127
2, 27040, Note_on_c, 1, 82, 127
2, 27040, Note_on_c, 1, 86, 127
2, 27320, Note_off_c, 1, 34, 0
2, 27320, Note_off_c, 1, 41, 0
2, 27320, Note_off_c, 1, 46, 0
2, 27320, Note_off_c, 1, 74, 0
2, 27320, Note_off_c, 1, 77, 0
2, 27320, Note_off_c, 1, 82, 0
2, 27320, Note_off_c, 1, 86, 0
2, 27360, Note_on_c, 1, 32, 127
2, 27360, Note_on_c, 1, 44, 127
2, 27360, Note_on_c, 1, 55, 127
2, 27360, Note_on_c, 1, 67, 127
2, 27400, Note_off_c, 1, 32, 0
2, 27400, Note_on_c, 1, 33, 127
2, 27400, Note_off_c, 1, 44, 0
2, 27400, Note_on_c, 1, 45, 127
2, 27640, Note_off_c, 1, 55, 0
2, 27640, Note_off_c, 1, 67, 0
2, 27680, Note_off_c, 1, 33, 0
2, 27680, Note_on_c, 1, 34, 127
2, 27680, Note_off_c, 1, 45, 0
2, 27680, Note_on_c, 1, 46, 127
2, 27680, Note_on_c, 1, 55, 127
2, 27680, Note_on_c, 1, 67, 127
2, 27920, Note_off_c, 1, 34, 0
2, 27920, Note_off_c, 1, 46, 0
2, 27920, Note_off_c, 1, 55, 0
2, 27920, Note_off_c, 1, 67, 0
2, 27960, Note_on_c, 1, 41, 127
2, 27960, Note_on_c, 1, 49, 127
2, 27960, Note_on_c, 1, 61, 127
2, 27960, Note_on_c, 1, 72, 127
2, 28000, Note_off_c, 1, 41, 0
2, 28000, Note_on_c, 1, 45, 127
2, 28000, Note_off_c, 1, 49, 0
2, 28000, Note_on_c, 1, 51, 127
2, 28000, Note_on_c, 1, 53, 127
2, 28000, Note_on_c, 1, 57, 127
2, 28000, Note_off_c, 1, 61, 0
2, 28000, Note_on_c, 1, 69, 127
2, 28000, Note_off_c, 1, 72, 0
2, 28000, Note_on_c, 1, 75, 127
2, 28000, Note_on_c, 1, 77, 127
2, 28000, Note_on_c, 1, 81, 127
2, 28040, Note_off_c, 1, 45, 0
2, 28040, Note_off_c, 1, 51, 0
2, 28040, Note_off_c, 1, 53, 0
2, 28040, Note_off_c, 1, 57, 0
2, 28040, Note_on_c, 1, 67, 127
2, 28040, Note_off_c, 1, 69, 0
2, 28040, Note_off_c, 1, 75, 0
2, 28040, Note_on_c, 1, 79, 127
2, 28040, Note_off_c, 1, 81, 0
2, 28040, Note_on_c, 1, 83, 127
2, 28040, Note_on_c, 1, 87, 127
2, 28080, Note_on_c, 1, 38, 127
2, 28080, Note_on_c, 1, 45, 127
2, 28080, Note_on_c, 1, 50, 127
2, 28080, Note_off_c, 1, 67, 0
2, 28080, Note_on_c, 1, 74, 127
2, 28080, Note_off_c, 1, 79, 0
2, 28080, Note_off_c, 1, 83, 0
2, 28080, Note_off_c, 1, 87, 0
2, 28120, Note_on_c, 1, 36, 127
2, 28120, Note_off_c, 1, 38, 0
2, 28120, Note_off_c, 1, 45, 0
2, 28120, Note_on_c, 1, 48, 127
2, 28120, Note_off_c, 1, 50, 0
2, 28120, Note_on_c, 1, 67, 127
2, 28120, Note_on_c, 1, 70, 127
2, 28120, Note_on_c, 1, 71, 127
2, 28120, Note_off_c, 1, 74, 0
2, 28120, Note_off_c, 1, 77, 0
2, 28160, Note_on_c, 1, 34, 127
2, 28160, Note_off_c, 1, 36, 0
2, 28160, Note_on_c, 1, 64, 127
2, 28160, Note_off_c, 1, 67, 0
2, 28160, Note_off_c, 1, 70, 0
2, 28160, Note_off_c, 1, 71, 0
2, 28200, Note_off_c, 1, 34, 0
2, 28200, Note_on_c, 1, 41, 127
2, 28200, Note_on_c, 1, 58, 127
2, 28200, Note_off_c, 1, 64, 0
2, 28200, Note_on_c, 1, 65, 127
2, 28200, Note_on_c, 1, 70, 127
2, 28240, Note_off_c, 1, 41, 0
2, 28240, Note_off_c, 1, 48, 0
2, 28240, Note_off_c, 1, 58, 0
2, 28240, Note_off_c, 1, 65, 0
2, 28240, Note_off_c, 1, 70, 0
2, 28280, Note_on_c, 1, 42, 127
2, 28280, Note_on_c, 1, 93, 127
2, 28280, Note_on_c, 1, 95, 127
2, 28320, Note_off_c, 1, 42, 0
2, 28320, Note_on_c, 1, 67, 127
2, 28320, Note_on_c, 1, 77, 127
2, 28320, Note_on_c, 1, 85, 127
2, 28320, Note_off_c, 1, 93, 0
2, 28320, Note_on_c, 1, 94, 127
2, 28320, Note_off_c, 1, 95, 0
2, 28360, Note_on_c, 1, 45, 127
2, 28360, Note_on_c, 1, 57, 127
2, 28360, Note_off_c, 1, 67, 0
2, 28360, Note_on_c, 1, 73, 127
2, 28360, Note_on_c, 1, 76, 127
2, 28360, Note_off_c, 1, 77, 0
2, 28360, Note_on_c, 1, 81, 127
2, 28360, Note_off_c, 1, 94, 0
2, 28400, Note_off_c, 1, 45, 0
2, 28400, Note_off_c, 1, 57, 0
2, 28400, Note_on_c, 1, 67, 127
2, 28400, Note_off_c, 1, 73, 0
2, 28400, Note_off_c, 1, 76, 0
2, 28400, Note_on_c, 1, 77, 127
2, 28400, Note_off_c, 1, 81, 0
2, 28400, Note_on_c, 1, 94, 127
2, 28520, Note_off_c, 1, 67, 0
2, 28520, Note_off_c, 1, 77, 0
2, 28520, Note_off_c, 1, 85, 0
2, 28520, Note_off_c, 1, 94, 0
2, 28560, Note_on_c, 1, 36, 127
2, 28560, Note_on_c, 1, 48, 127
2, 28560, Note_on_c, 1, 51, 127
2, 28560, Note_on_c, 1, 63, 127
2, 28840, Note_off_c, 1, 36, 0
2, 28840, Note_off_c, 1, 48, 0
2, 28840, Note_off_c, 1, 51, 0
2, 28840, Note_off_c, 1, 63, 0
2, 28880, Note_on_c, 1, 91, 127
2, 28880, Note_on_c, 1, 94, 127
2, 28880, Note_on_c, 1, 99, 127
2, 28880, Note_on_c, 1, 103, 127
2, 28920, Note_on_c, 1, 34, 127
2, 28920, Note_on_c, 1, 46, 127
2, 28920, Note_off_c, 1, 91, 0
2, 28920, Note_off_c, 1, 94, 0
2, 28920, Note_off_c, 1, 99, 0
2, 28920, Note_off_c, 1, 103, 0
2, 29120, Note_off_c, 1, 34, 0
2, 29120, Note_off_c, 1, 46, 0
2, 29160, Note_on_c, 1, 34, 127
2, 29160, Note_on_c, 1, 46, 127
2, 29440, Note_off_c, 1, 34, 0
2, 29440, Note_off_c, 1, 46, 0
2, 29480, Note_on_c, 1, 39, 127
2, 29480, Note_on_c, 1, 46, 127
2, 29480, Note_on_c, 1, 80, 127
2, 29520, Note_on_c, 1, 58, 127
2, 29520, Note_on_c, 1, 67, 127
2, 29520, Note_off_c, 1, 80, 0
2, 29600, Note_off_c, 1, 67, 0
2, 29640, Note_off_c, 1, 58, 0
2, 29640, Note_on_c, 1, 67, 127
2, 29640, Note_on_c, 1, 75, 127
2, 29680, Note_on_c, 1, 58, 127
2, 29680, Note_off_c, 1, 75, 0
2, 29720, Note_off_c, 1, 58, 0
2, 29720, Note_off_c, 1, 67, 0
2, 29760, Note_on_c, 1, 58, 127
2, 29880, Note_on_c, 1, 54, 127
2, 29880, Note_off_c, 1, 58, 0
2, 29920, Note_off_c, 1, 54, 0
2, 29920, Note_on_c, 1, 58, 127
2, 30040, Note_off_c, 1, 39, 0
2, 30040, Note_off_c, 1, 46, 0
2, 30040, Note_off_c, 1, 58, 0
2, 30080, Note_on_c, 1, 39, 127
2, 30080, Note_on_c, 1, 46, 127
2, 30080, Note_on_c, 1, 58, 127
2, 30320, Note_off_c, 1, 58, 0
2, 30360, Note_off_c, 1, 39, 0
2, 30360, Note_on_c, 1, 42, 127
2, 30360, Note_on_c, 1, 58, 127
2, 30640, Note_off_c, 1, 42, 0
2, 30640, Note_off_c, 1, 46, 0
2, 30640, Note_off_c, 1, 58, 0
2, 30680, Note_on_c, 1, 42, 127
2, 30680, Note_on_c, 1, 46, 127
2, 30680, Note_on_c, 1, 58, 127
2, 30920, Note_off_c, 1, 58, 0
2, 30960, Note_on_c, 1, 58, 127
2, 31240, Note_off_c, 1, 42, 0
2, 31240, Note_off_c, 1, 46, 0
2, 31240, Note_off_c, 1, 58, 0
2, 31320, Note_on_c, 1, 33, 127
2, 31320, Note_on_c, 1, 38, 127
2, 31320, Note_on_c, 1, 42, 127
2, 31320, Note_on_c, 1, 45, 127
2, 31320, Note_on_c, 1, 50, 127
2, 31320, Note_on_c, 1, 54, 127
2, 31320, Note_on_c, 1, 57, 127
2, 31320, Note_on_c, 1, 69, 127
2, 31320, Note_on_c, 1, 78, 127
2, 31320, Note_on_c, 1, 81, 127
2, 31360, Note_off_c, 1, 33, 0
2, 31360, Note_off_c, 1, 38, 0
2, 31360, Note_off_c, 1, 42, 0
2, 31360, Note_off_c, 1, 45, 0
2, 31360, Note_off_c, 1, 50, 0
2, 31360, Note_off_c, 1, 54, 0
2, 31360, Note_on_c, 1, 55, 127
2, 31360, Note_off_c, 1, 57, 0
2, 31360, Note_on_c, 1, 62, 127
2, 31360, Note_on_c, 1, 65, 127
2, 31360, Note_off_c, 1, 69, 0
2, 31360, Note_on_c, 1, 74, 127
2, 31360, Note_on_c, 1, 77, 127
2, 31360, Note_off_c, 1, 78, 0
2, 31400, Note_off_c, 1, 62, 0
2, 31400, Note_off_c, 1, 65, 0
2, 31400, Note_on_c, 1, 70, 127
2, 31400, Note_off_c, 1, 81, 0
2, 31440, Note_on_c, 1, 43, 127
2, 31440, Note_on_c, 1, 50, 127
2, 31440, Note_on_c, 1, 62, 127
2, 31440, Note_on_c, 1, 65, 127
2, 31440, Note_off_c, 1, 70, 0
2, 31440, Note_on_c, 1, 71, 127
2, 31440, Note_off_c, 1, 74, 0
2, 31440, Note_off_c, 1, 77, 0
2, 31480, Note_on_c, 1, 39, 127
2, 31480, Note_on_c, 1, 42, 127
2, 31480, Note_off_c, 1, 43, 0
2, 31480, Note_off_c, 1, 50, 0
2, 31480, Note_on_c, 1, 51, 127
2, 31480, Note_off_c, 1, 55, 0
2, 31480, Note_off_c, 1, 62, 0
2, 31480, Note_off_c, 1, 65, 0
2, 31480, Note_on_c, 1, 66, 127
2, 31480, Note_off_c, 1, 71, 0
2, 31480, Note_on_c, 1, 75, 127
2, 31480, Note_on_c, 1, 78, 127
2, 31520, Note_off_c, 1, 39, 0
2, 31520, Note_on_c, 1, 40, 127
2, 31520, Note_off_c, 1, 42, 0
2, 31520, Note_off_c, 1, 51, 0
2, 31520, Note_off_c, 1, 66, 0
2, 31520, Note_off_c, 1, 75, 0
2, 31520, Note_off_c, 1, 78, 0
2, 31520, Note_on_c, 1, 86, 127
2, 31520, Note_on_c, 1, 92, 127
2, 31520, Note_on_c, 1, 95, 127
2, 31520, Note_on_c, 1, 98, 127
2, 31560, Note_off_c, 1, 40, 0
2, 31560, Note_off_c, 1, 86, 0
2, 31560, Note_off_c, 1, 92, 0
2, 31560, Note_on_c, 1, 93, 127
2, 31560, Note_on_c, 1, 101, 127
2, 31560, Note_on_c, 1, 105, 127
2, 31600, Note_on_c, 1, 44, 127
2, 31600, Note_on_c, 1, 48, 127
2, 31600, Note_on_c, 1, 56, 127
2, 31600, Note_on_c, 1, 72, 127
2, 31600, Note_on_c, 1, 75, 127
2, 31600, Note_on_c, 1, 84, 127
2, 31600, Note_off_c, 1, 93, 0
2, 31600, Note_off_c, 1, 95, 0
2, 31600, Note_off_c, 1, 98, 0
2, 31600, Note_off_c, 1, 101, 0
2, 31600, Note_off_c, 1, 105, 0
2, 31840, Note_off_c, 1, 44, 0
2, 31840, Note_off_c, 1, 48, 0
2, 31840, Note_off_c, 1, 56, 0
2, 31840, Note_off_c, 1, 72, 0
2, 31840, Note_off_c, 1, 75, 0
2, 31840, Note_off_c, 1, 84, 0
2, 31880, Note_on_c, 1, 44, 127
2, 31880, Note_on_c, 1, 48, 127
2, 31880, Note_on_c, 1, 56, 127
2, 31880, Note_on_c, 1, 72, 127
2, 31880, Note_on_c, 1, 75, 127
2, 31880, Note_on_c, 1, 84, 127
2, 32400, Note_off_c, 1, 44, 0
2, 32400, Note_off_c, 1, 48, 0
2, 32400, Note_off_c, 1, 56, 0
2, 32400, Note_off_c, 1, 72, 0
2, 32400, Note_off_c, 1, 75, 0
2, 32400, Note_off_c, 1, 84, 0
2, 32440, Note_on_c, 1, 33, 127
2, 32440, Note_on_c, 1, 45, 127
2, 32440, Note_on_c, 1, 65, 127
2, 32440, Note_on_c, 1, 70, 127
2, 32440, Note_on_c, 1, 73, 127
2, 33000, Note_off_c, 1, 33, 0
2, 33000, Note_off_c, 1, 45, 0
2, 33000, Note_off_c, 1, 65, 0
2, 33000, Note_off_c, 1, 70, 0
2, 33000, Note_off_c, 1, 73, 0
2, 33040, Note_on_c, 1, 35, 127
2, 33040, Note_on_c, 1, 47, 127
2, 33040, Note_on_c, 1, 56, 127
2, 33040, Note_on_c, 1, 68, 127
2, 33440, Note_off_c, 1, 35, 0
2, 33440, Note_off_c, 1, 47, 0
2, 33440, Note_off_c, 1, 56, 0
2, 33440, Note_off_c, 1, 68, 0
2, 33480, Note_on_c, 1, 35, 127
2, 33480, Note_on_c, 1, 47, 127
2, 33480, Note_on_c, 1, 56, 127
2, 33480, Note_on_c, 1, 68, 127
2, 33640, Note_off_c, 1, 35, 0
2, 33640, Note_off_c, 1, 47, 0
2, 33640, Note_off_c, 1, 56, 0
2, 33640, Note_off_c, 1, 68, 0
2, 33680, Note_on_c, 1, 41, 127
2, 33680, Note_on_c, 1, 68, 127
2, 33920, Note_off_c, 1, 41, 0
2, 33920, Note_off_c, 1, 68, 0
2, 33960, Note_on_c, 1, 49, 127
2, 33960, Note_on_c, 1, 58, 127
2, 33960, Note_on_c, 1, 66, 127
2, 34520, Note_off_c, 1, 58, 0
2, 34520, Note_on_c, 1, 59, 127
2, 34520, Note_off_c, 1, 66, 0
2, 34560, Note_on_c, 1, 65, 127
2, 34800, Note_off_c, 1, 49, 0
2, 34800, Note_off_c, 1, 59, 0
2, 34800, Note_off_c, 1, 65, 0
2, 34840, Note_on_c, 1, 42, 127
2, 34840, Note_on_c, 1, 58, 127
2, 34840, Note_on_c, 1, 66, 127
2, 35240, Note_off_c, 1, 66, 0
2, 35280, Note_on_c, 1, 68, 127
2, 35400, Note_off_c, 1, 42, 0
2, 35400, Note_off_c, 1, 58, 0
2, 35400, Note_off_c, 1, 68, 0
2, 35480, Note_on_c, 1, 40, 127
2, 35480, Note_on_c, 1, 50, 127
2, 35480, Note_on_c, 1, 62, 127
2, 35880, Note_off_c, 1, 40, 0
2, 35880, Note_off_c, 1, 50, 0
2, 35880, Note_off_c, 1, 62, 0
2, 35920, Note_on_c, 1, 42, 127
2, 36040, Note_off_c, 1, 42, 0
2, 36040, Note_on_c, 1, 45, 127
2, 36080, Note_on_c, 1, 52, 127
2, 36080, Note_on_c, 1, 60, 127
2, 36080, Note_on_c, 1, 69, 127
2, 36080, Note_on_c, 1, 76, 127
2, 36080, Note_on_c, 1, 81, 127
2, 36320, Note_off_c, 1, 45, 0
2, 36320, Note_off_c, 1, 52, 0
2, 36320, Note_off_c, 1, 60, 0
2, 36320, Note_off_c, 1, 69, 0
2, 36320, Note_off_c, 1, 76, 0
2, 36320, Note_off_c, 1, 81, 0
2, 36360, Note_on_c, 1, 40, 127
2, 36360, Note_on_c, 1, 47, 127
2, 37240, Note_on_c, 1, 66, 127
2, 37360, Note_off_c, 1, 40, 0
2, 37360, Note_off_c, 1, 47, 0
2, 37360, Note_off_c, 1, 66, 0
2, 37400, Note_on_c, 1, 40, 127
2, 37400, Note_on_c, 1, 47, 127
2, 37400, Note_on_c, 1, 66, 127
2, 37520, Note_off_c, 1, 40, 0
2, 37520, Note_off_c, 1, 47, 0
2, 37520, Note_off_c, 1, 66, 0
2, 37560, Note_on_c, 1, 47, 127
2, 37560, Note_on_c, 1, 51, 127
2, 37560, Note_on_c, 1, 54, 127
2, 37560, Note_on_c, 1, 59, 127
2, 37840, Note_off_c, 1, 51, 0
2, 37840, Note_off_c, 1, 54, 0
2, 37840, Note_off_c, 1, 59, 0
2, 37880, Note_on_c, 1, 54, 127
2, 37880, Note_on_c, 1, 63, 127
2, 37880, Note_on_c, 1, 66, 127
2, 38120, Note_off_c, 1, 63, 0
2, 38120, Note_off_c, 1, 66, 0
2, 38160, Note_on_c, 1, 63, 127
2, 38160, Note_on_c, 1, 66, 127
2, 38440, Note_off_c, 1, 63, 0
2, 38440, Note_off_c, 1, 66, 0
2, 38480, Note_on_c, 1, 63, 127
2, 38480, Note_on_c, 1, 66, 127
2, 38720, Note_off_c, 1, 54, 0
2, 38760, Note_on_c, 1, 54, 127
2, 39040, Note_off_c, 1, 47, 0
2, 39040, Note_off_c, 1, 54, 0
2, 39040, Note_off_c, 1, 63, 0
2, 39040, Note_off_c, 1, 66, 0
2, 39080, Note_on_c, 1, 59, 127
2, 39080, Note_on_c, 1, 63, 127
2, 39280, Note_off_c, 1, 59, 0
2, 39280, Note_off_c, 1, 63, 0
2, 39320, Note_on_c, 1, 59, 127
2, 39320, Note_on_c, 1, 63, 127
2, 39400, Note_on_c, 1, 66, 127
2, 40240, Note_off_c, 1, 59, 0
2, 40240, Note_off_c, 1, 63, 0
2, 40240, Note_off_c, 1, 66, 0
2, 40280, Note_on_c, 1, 51, 127
2, 40280, Note_on_c, 1, 59, 127
2, 40280, Note_on_c, 1, 71, 127
2, 40520, Note_off_c, 1, 59, 0
2, 40520, Note_off_c, 1, 71, 0
2, 40560, Note_on_c, 1, 54, 127
2, 40560, Note_on_c, 1, 75, 127
2, 40840, Note_off_c, 1, 51, 0
2, 40840, Note_off_c, 1, 75, 0
2, 40880, Note_on_c, 1, 51, 127
2, 40880, Note_on_c, 1, 72, 127
2, 41120, Note_off_c, 1, 51, 0
2, 41120, Note_off_c, 1, 54, 0
2, 41160, Note_on_c, 1, 71, 127
2, 41160, Note_off_c, 1, 72, 0
2, 41160, Note_on_c, 1, 73, 127
2, 41160, Note_on_c, 1, 78, 127
2, 41160, Note_on_c, 1, 82, 127
2, 41160, Note_on_c, 1, 85, 127
2, 41240, Note_off_c, 1, 82, 0
2, 41320, Note_off_c, 1, 71, 0
2, 41320, Note_off_c, 1, 73, 0
2, 41320, Note_off_c, 1, 78, 0
2, 41320, Note_off_c, 1, 85, 0
2, 41360, Note_on_c, 1, 71, 127
2, 41360, Note_on_c, 1, 73, 127
2, 41360, Note_on_c, 1, 78, 127
2, 41360, Note_on_c, 1, 85, 127
2, 41440, Note_off_c, 1, 73, 0
2, 41440, Note_off_c, 1, 78, 0
2, 41440, Note_off_c, 1, 85, 0
2, 41480, Note_on_c, 1, 47, 127
2, 41760, Note_on_c, 1, 63, 127
2, 42040, Note_off_c, 1, 63, 0
2, 42040, Note_off_c, 1, 71, 0
2, 42080, Note_on_c, 1, 54, 127
2, 42080, Note_on_c, 1, 90, 127
2, 42320, Note_off_c, 1, 47, 0
2, 42320, Note_off_c, 1, 90, 0
2, 42360, Note_on_c, 1, 47, 127
2, 42360, Note_on_c, 1, 78, 127
2, 43200, Note_off_c, 1, 54, 0
2, 43240, Note_on_c, 1, 54, 127
2, 43480, Note_off_c, 1, 47, 0
2, 43480, Note_off_c, 1, 54, 0
2, 43480, Note_off_c, 1, 78, 0
2, 43560, Note_on_c, 1, 47, 127
2, 43560, Note_on_c, 1, 78, 127
2, 43840, Note_off_c, 1, 47, 0
2, 43840, Note_on_c, 1, 49, 127
2, 43840, Note_on_c, 1, 56, 127
2, 43840, Note_on_c, 1, 61, 127
2, 43840, Note_on_c, 1, 64, 127
2, 43840, Note_on_c, 1, 68, 127
2, 43840, Note_on_c, 1, 76, 127
2, 43840, Note_off_c, 1, 78, 0
2, 44400, Note_off_c, 1, 49, 0
2, 44400, Note_off_c, 1, 56, 0
2, 44400, Note_off_c, 1, 61, 0
2, 44400, Note_off_c, 1, 64, 0
2, 44400, Note_off_c, 1, 68, 0
2, 44400, Note_off_c, 1, 76, 0
2, 44440, Note_on_c, 1, 56, 127
2, 44440, Note_on_c, 1, 78, 127
2, 44720, Note_on_c, 1, 63, 127
2, 44720, Note_on_c, 1, 66, 127
2, 44720, Note_on_c, 1, 75, 127
2, 44720, Note_off_c, 1, 78, 0
2, 44720, Note_on_c, 1, 80, 127
2, 44840, Note_off_c, 1, 75, 0
2, 44840, Note_off_c, 1, 80, 0
2, 44880, Note_on_c, 1, 73, 127
2, 44960, Note_off_c, 1, 73, 0
2, 45000, Note_on_c, 1, 72, 127
2, 45240, Note_off_c, 1, 56, 0
2, 45280, Note_on_c, 1, 54, 127
2, 45280, Note_on_c, 1, 61, 127
2, 45280, Note_off_c, 1, 63, 0
2, 45280, Note_on_c, 1, 69, 127
2, 45280, Note_off_c, 1, 72, 0
2, 45280, Note_on_c, 1, 73, 127
2, 45560, Note_off_c, 1, 54, 0
2, 45560, Note_off_c, 1, 73, 0
2, 45600, Note_off_c, 1, 61, 0
2, 45600, Note_off_c, 1, 66, 0
2, 45600, Note_off_c, 1, 69, 0
2, 45640, Note_on_c, 1, 54, 127
2, 45640, Note_on_c, 1, 61, 127
2, 45640, Note_on_c, 1, 66, 127
2, 45640, Note_on_c, 1, 69, 127
2, 45640, Note_on_c, 1, 73, 127
2, 45880, Note_off_c, 1, 54, 0
2, 45880, Note_off_c, 1, 61, 0
2, 45880, Note_off_c, 1, 66, 0
2, 45880, Note_off_c, 1, 69, 0
2, 45880, Note_off_c, 1, 73, 0
2, 45920, Note_on_c, 1, 52, 127
2, 45920, Note_on_c, 1, 71, 127
2, 46200, Note_on_c, 1, 62, 127
2, 46200, Note_on_c, 1, 68, 127
2, 46440, Note_off_c, 1, 62, 0
2, 46440, Note_off_c, 1, 71, 0
2, 46480, Note_on_c, 1, 59, 127
2, 46720, Note_off_c, 1, 52, 0
2, 46720, Note_off_c, 1, 59, 0
2, 46760, Note_on_c, 1, 52, 127
2, 46760, Note_on_c, 1, 59, 127
2, 46760, Note_on_c, 1, 62, 127
2, 47040, Note_off_c, 1, 52, 0
2, 47040, Note_off_c, 1, 59, 0
2, 47040, Note_off_c, 1, 62, 0
2, 47080, Note_on_c, 1, 49, 127
2, 47320, Note_off_c, 1, 49, 0
2, 47360, Note_on_c, 1, 52, 127
2, 47600, Note_off_c, 1, 52, 0
2, 47640, Note_off_c, 1, 68, 0
2, 47680, Note_on_c, 1, 47, 127
2, 47680, Note_on_c, 1, 57, 127
2, 47680, Note_on_c, 1, 62, 127
2, 47680, Note_on_c, 1, 68, 127
2, 47680, Note_on_c, 1, 71, 127
2, 47880, Note_off_c, 1, 47, 0
2, 47880, Note_on_c, 1, 52, 127
2, 47880, Note_on_c, 1, 59, 127
2, 47880, Note_off_c, 1, 62, 0
2, 47880, Note_on_c, 1, 64, 127
2, 47880, Note_off_c, 1, 68, 0
2, 47880, Note_off_c, 1, 71, 0
2, 47920, Note_on_c, 1, 45, 127
2, 47920, Note_off_c, 1, 57, 0
2, 47920, Note_off_c, 1, 59, 0
2, 47920, Note_off_c, 1, 64, 0
2, 47920, Note_on_c, 1, 73, 127
2, 47960, Note_off_c, 1, 73, 0
2, 47960, Note_on_c, 1, 88, 127
2, 48800, Note_off_c, 1, 45, 0
2, 48800, Note_off_c, 1, 52, 0
2, 48800, Note_off_c, 1, 88, 0
2, 48840, Note_on_c, 1, 52, 127
2, 48840, Note_on_c, 1, 76, 127
2, 49080, Note_off_c, 1, 52, 0
2, 49120, Note_on_c, 1, 52, 127
2, 49120, Note_on_c, 1, 57, 127
2, 49120, Note_on_c, 1, 61, 127
2, 49120, Note_on_c, 1, 64, 127
2, 49120, Note_on_c, 1, 69, 127
2, 49120, Note_on_c, 1, 73, 127
2, 49360, Note_off_c, 1, 52, 0
2, 49360, Note_off_c, 1, 57, 0
2, 49360, Note_off_c, 1, 61, 0
2, 49360, Note_off_c, 1, 64, 0
2, 49360, Note_off_c, 1, 69, 0
2, 49360, Note_off_c, 1, 73, 0
2, 49400, Note_on_c, 1, 52, 127
2, 49400, Note_on_c, 1, 57, 127
2, 49400, Note_on_c, 1, 61, 127
2, 49400, Note_on_c, 1, 64, 127
2, 49400, Note_on_c, 1, 69, 127
2, 49400, Note_on_c, 1, 73, 127
2, 49640, Note_off_c, 1, 52, 0
2, 49640, Note_off_c, 1, 57, 0
2, 49640, Note_off_c, 1, 61, 0
2, 49640, Note_off_c, 1, 64, 0
2, 49640, Note_off_c, 1, 69, 0
2, 49640, Note_off_c, 1, 73, 0
2, 49680, Note_off_c, 1, 76, 0
2, 49720, Note_on_c, 1, 57, 127
2, 49720, Note_on_c, 1, 59, 127
2, 49720, Note_on_c, 1, 63, 127
2, 49720, Note_on_c, 1, 66, 127
2, 49720, Note_on_c, 1, 71, 127
2, 49720, Note_on_c, 1, 76, 127
2, 49960, Note_off_c, 1, 57, 0
2, 49960, Note_off_c, 1, 59, 0
2, 49960, Note_off_c, 1, 63, 0
2, 49960, Note_off_c, 1, 66, 0
2, 49960, Note_off_c, 1, 71, 0
2, 49960, Note_off_c, 1, 76, 0
2, 50000, Note_on_c, 1, 47, 127
2, 50000, Note_on_c, 1, 80, 127
2, 50280, Note_off_c, 1, 47, 0
2, 50280, Note_on_c, 1, 52, 127
2, 50280, Note_on_c, 1, 59, 127
2, 50280, Note_on_c, 1, 76, 127
2, 50520, Note_off_c, 1, 59, 0
2, 50520, Note_off_c, 1, 76, 0
2, 50520, Note_off_c, 1, 80, 0
2, 50560, Note_on_c, 1, 59, 127
2, 50560, Note_on_c, 1, 75, 127
2, 50560, Note_on_c, 1, 78, 127
2, 50800, Note_off_c, 1, 59, 0
2, 50800, Note_off_c, 1, 75, 0
2, 50800, Note_off_c, 1, 78, 0
2, 50840, Note_on_c, 1, 57, 127
2, 50840, Note_on_c, 1, 66, 127
2, 50840, Note_on_c, 1, 76, 127
2, 50960, Note_off_c, 1, 66, 0
2, 51000, Note_on_c, 1, 69, 127
2, 51120, Note_off_c, 1, 57, 0
2, 51120, Note_off_c, 1, 69, 0
2, 51120, Note_off_c, 1, 76, 0
2, 51160, Note_on_c, 1, 57, 127
2, 51160, Note_on_c, 1, 76, 127
2, 51360, Note_off_c, 1, 76, 0
2, 51400, Note_off_c, 1, 57, 0
2, 51440, Note_on_c, 1, 59, 127
2, 51440, Note_on_c, 1, 74, 127
2, 51640, Note_off_c, 1, 52, 0
2, 51640, Note_off_c, 1, 59, 0
2, 51640, Note_off_c, 1, 74, 0
2, 51680, Note_on_c, 1, 52, 127
2, 51680, Note_on_c, 1, 59, 127
2, 51680, Note_on_c, 1, 74, 127
2, 51720, Note_off_c, 1, 52, 0
2, 51720, Note_off_c, 1, 59, 0
2, 51720, Note_off_c, 1, 74, 0
2, 51760, Note_on_c, 1, 45, 127
2, 51760, Note_on_c, 1, 69, 127
2, 52000, Note_off_c, 1, 45, 0
2, 52040, Note_on_c, 1, 52, 127
2, 52040, Note_on_c, 1, 61, 127
2, 52280, Note_off_c, 1, 69, 0
2, 52320, Note_on_c, 1, 64, 127
2, 52560, Note_off_c, 1, 61, 0
2, 52560, Note_off_c, 1, 64, 0
2, 52600, Note_on_c, 1, 61, 127
2, 52600, Note_on_c, 1, 64, 127
2, 52880, Note_off_c, 1, 52, 0
2, 52880, Note_off_c, 1, 61, 0
2, 52920, Note_on_c, 1, 52, 127
2, 52920, Note_on_c, 1, 61, 127
2, 53160, Note_off_c, 1, 52, 0
2, 53160, Note_off_c, 1, 61, 0
2, 53160, Note_off_c, 1, 64, 0
2, 53200, Note_on_c, 1, 45, 127
2, 53200, Note_on_c, 1, 69, 127
2, 53440, Note_off_c, 1, 45, 0
2, 53480, Note_on_c, 1, 52, 127
2, 53480, Note_on_c, 1, 61, 127
2, 53760, Note_off_c, 1, 69, 0
2, 53800, Note_off_c, 1, 52, 0
2, 53800, Note_off_c, 1, 61, 0
2, 53840, Note_on_c, 1, 52, 127
2, 53840, Note_on_c, 1, 61, 127
2, 53840, Note_on_c, 1, 64, 127
2, 54080, Note_off_c, 1, 52, 0
2, 54080, Note_off_c, 1, 61, 0
2, 54080, Note_off_c, 1, 64, 0
2, 54120, Note_on_c, 1, 45, 127
2, 54120, Note_on_c, 1, 69, 127
2, 54360, Note_off_c, 1, 45, 0
2, 54400, Note_on_c, 1, 52, 127
2, 54400, Note_on_c, 1, 61, 127
2, 54640, Note_off_c, 1, 61, 0
2, 54640, Note_off_c, 1, 69, 0
2, 54680, Note_on_c, 1, 61, 127
2, 54680, Note_on_c, 1, 64, 127
2, 54920, Note_off_c, 1, 61, 0
2, 54920, Note_off_c, 1, 64, 0
2, 54960, Note_on_c, 1, 61, 127
2, 54960, Note_on_c, 1, 64, 127
2, 55240, Note_off_c, 1, 52, 0
2, 55240, Note_on_c, 1, 57, 127
2, 55240, Note_off_c, 1, 61, 0
2, 55240, Note_off_c, 1, 64, 0
2, 55280, Note_on_c, 1, 52, 127
2, 55280, Note_off_c, 1, 57, 0
2, 55280, Note_on_c, 1, 61, 127
2, 55280, Note_on_c, 1, 64, 127
2, 55520, Note_off_c, 1, 52, 0
2, 55520, Note_off_c, 1, 61, 0
2, 55520, Note_off_c, 1, 64, 0
2, 55560, Note_on_c, 1, 45, 127
2, 55560, Note_on_c, 1, 69, 127
2, 55800, Note_off_c, 1, 45, 0
2, 55800, Note_off_c, 1, 69, 0
2, 55880, Note_on_c, 1, 38, 127
2, 55880, Note_on_c, 1, 74, 127
2, 56120, Note_off_c, 1, 38, 0
2, 56160, Note_on_c, 1, 50, 127
2, 56160, Note_on_c, 1, 57, 127
2, 56160, Note_on_c, 1, 62, 127
2, 56160, Note_on_c, 1, 66, 127
2, 57320, Note_on_c, 1, 69, 127
2, 57320, Note_off_c, 1, 74, 0
2, 57840, Note_off_c, 1, 50, 0
2, 57840, Note_off_c, 1, 57, 0
2, 57840, Note_off_c, 1, 62, 0
2, 57840, Note_off_c, 1, 66, 0
2, 57840, Note_off_c, 1, 69, 0
2, 57880, Note_on_c, 1, 50, 127
2, 57880, Note_on_c, 1, 57, 127
2, 57880, Note_on_c, 1, 62, 127
2, 57880, Note_on_c, 1, 66, 127
2, 57880, Note_on_c, 1, 69, 127
2, 57920, Note_off_c, 1, 50, 0
2, 57920, Note_off_c, 1, 57, 0
2, 57920, Note_off_c, 1, 62, 0
2, 57920, Note_off_c, 1, 66, 0
2, 57920, Note_off_c, 1, 69, 0
2, 57960, Note_on_c, 1, 59, 127
2, 57960, Note_on_c, 1, 71, 127
2, 58200, Note_off_c, 1, 59, 0
2, 58200, Note_off_c, 1, 71, 0
2, 58240, Note_on_c, 1, 62, 127
2, 58240, Note_on_c, 1, 74, 127
2, 58480, Note_off_c, 1, 62, 0
2, 58480, Note_off_c, 1, 74, 0
2, 58520, Note_on_c, 1, 52, 127
2, 58520, Note_on_c, 1, 59, 127
2, 58520, Note_on_c, 1, 71, 127
2, 58760, Note_off_c, 1, 52, 0
2, 58760, Note_off_c, 1, 59, 0
2, 58760, Note_off_c, 1, 71, 0
2, 58800, Note_on_c, 1, 57, 127
2, 58800, Note_on_c, 1, 59, 127
2, 58800, Note_on_c, 1, 71, 127
2, 59040, Note_off_c, 1, 57, 0
2, 59080, Note_on_c, 1, 54, 127
2, 59360, Note_on_c, 1, 52, 127
2, 59360, Note_off_c, 1, 54, 0
2, 59640, Note_off_c, 1, 52, 0
2, 59640, Note_off_c, 1, 59, 0
2, 59640, Note_off_c, 1, 71, 0
2, 59680, Note_on_c, 1, 52, 127
2, 59680, Note_on_c, 1, 59, 127
2, 59680, Note_on_c, 1, 71, 127
2, 60240, Note_off_c, 1, 52, 0
2, 60240, Note_off_c, 1, 59, 0
2, 60240, Note_off_c, 1, 71, 0
2, 60280, Note_on_c, 1, 52, 127
2, 60280, Note_on_c, 1, 59, 127
2, 60280, Note_on_c, 1, 71, 127
2, 60840, Note_on_c, 1, 64, 127
2, 60840, Note_on_c, 1, 68, 127
2, 60960, Note_off_c, 1, 64, 0
2, 60960, Note_off_c, 1, 68, 0
2, 61720, Note_off_c, 1, 52, 0
2, 61720, Note_off_c, 1, 59, 0
2, 61720, Note_off_c, 1, 71, 0
2, 61760, Note_on_c, 1, 52, 127
2, 61760, Note_on_c, 1, 59, 127
2, 61760, Note_on_c, 1, 71, 127
2, 62040, Note_on_c, 1, 64, 127
2, 62120, Note_off_c, 1, 64, 0
2, 62160, Note_on_c, 1, 64, 127
2, 62240, Note_off_c, 1, 64, 0
2, 62320, Note_on_c, 1, 64, 127
2, 62360, Note_off_c, 1, 64, 0
2, 62600, Note_on_c, 1, 64, 127
2, 62880, Note_off_c, 1, 59, 0
2, 62880, Note_off_c, 1, 71, 0
2, 63160, Note_off_c, 1, 52, 0
2, 63160, Note_off_c, 1, 64, 0
2, 63200, Note_on_c, 1, 50, 127
2, 63200, Note_on_c, 1, 52, 127
2, 63200, Note_on_c, 1, 59, 127
2, 63200, Note_on_c, 1, 68, 127
2, 63760, Note_off_c, 1, 50, 0
2, 63760, Note_off_c, 1, 52, 0
2, 63800, Note_off_c, 1, 59, 0
2, 63800, Note_off_c, 1, 68, 0
2, 63840, Note_on_c, 1, 50, 127
2, 63840, Note_on_c, 1, 52, 127
2, 63840, Note_on_c, 1, 59, 127
2, 63840, Note_on_c, 1, 68, 127
2, 64400, Note_off_c, 1, 50, 0
2, 64400, Note_off_c, 1, 52, 0
2, 64440, Note_on_c, 1, 48, 127
2, 64440, Note_on_c, 1, 55, 127
2, 64440, Note_off_c, 1, 59, 0
2, 64440, Note_on_c, 1, 64, 127
2, 64440, Note_off_c, 1, 68, 0
2, 64440, Note_on_c, 1, 70, 127
2, 64440, Note_on_c, 1, 76, 127
2, 64960, Note_off_c, 1, 48, 0
2, 64960, Note_off_c, 1, 55, 0
2, 64960, Note_on_c, 1, 58, 127
2, 64960, Note_on_c, 1, 62, 127
2, 64960, Note_off_c, 1, 64, 0
2, 64960, Note_on_c, 1, 65, 127
2, 64960, Note_on_c, 1, 74, 127
2, 64960, Note_off_c, 1, 76, 0
2, 64960, Note_on_c, 1, 79, 127
2, 65000, Note_off_c, 1, 58, 0
2, 65000, Note_off_c, 1, 62, 0
2, 65000, Note_off_c, 1, 65, 0
2, 65000, Note_off_c, 1, 70, 0
2, 65000, Note_off_c, 1, 74, 0
2, 65000, Note_off_c, 1, 79, 0
2, 65640, Note_on_c, 1, 48, 127
2, 65640, Note_on_c, 1, 55, 127
2, 65640, Note_on_c, 1, 62, 127
2, 65640, Note_on_c, 1, 65, 127
2, 66040, Note_off_c, 1, 48, 0
2, 66040, Note_off_c, 1, 55, 0
2, 66040, Note_off_c, 1, 62, 0
2, 66040, Note_off_c, 1, 65, 0
2, 66080, Note_on_c, 1, 48, 127
2, 66080, Note_on_c, 1, 55, 127
2, 66080, Note_on_c, 1, 62, 127
2, 66080, Note_on_c, 1, 65, 127
2, 66840, Note_on_c, 1, 58, 127
2, 66840, Note_off_c, 1, 62, 0
2, 66840, Note_off_c, 1, 65, 0
2, 66880, Note_off_c, 1, 58, 0
2, 66880, Note_on_c, 1, 62, 127
2, 66880, Note_on_c, 1, 65, 127
2, 68000, Note_off_c, 1, 62, 0
2, 68000, Note_off_c, 1, 65, 0
2, 68360, Note_off_c, 1, 48, 0
2, 68360, Note_off_c, 1, 55, 0
2, 68400, Note_on_c, 1, 48, 127
2, 68400, Note_on_c, 1, 55, 127
2, 68640, Note_off_c, 1, 48, 0
2, 68640, Note_off_c, 1, 55, 0
2, 74720, Note_on_c, 1, 55, 127
2, 74720, Note_on_c, 1, 58, 127
2, 74720, Note_on_c, 1, 62, 127
2, 74720, Note_on_c, 1, 67, 127
2, 74720, Note_on_c, 1, 70, 127
2, 74960, Note_off_c, 1, 55, 0
2, 74960, Note_off_c, 1, 58, 0
2, 74960, Note_off_c, 1, 62, 0
2, 74960, Note_off_c, 1, 67, 0
2, 74960, Note_off_c, 1, 70, 0
2, 75000, Note_on_c, 1, 55, 127
2, 75000, Note_on_c, 1, 58, 127
2, 75000, Note_on_c, 1, 62, 127
2, 75000, Note_on_c, 1, 67, 127
2, 75040, Note_off_c, 1, 55, 0
2, 75040, Note_off_c, 1, 58, 0
2, 75040, Note_off_c, 1, 62, 0
2, 75040, Note_off_c, 1, 67, 0
2, 75120, Note_on_c, 1, 55, 127
2, 75120, Note_on_c, 1, 58, 127
2, 75120, Note_on_c, 1, 62, 127
2, 75120, Note_on_c, 1, 67, 127
2, 75160, Note_off_c, 1, 55, 0
2, 75160, Note_off_c, 1, 58, 0
2, 75160, Note_off_c, 1, 62, 0
2, 75160, Note_off_c, 1, 67, 0
2, 75200, Note_on_c, 1, 55, 127
2, 75200, Note_on_c, 1, 58, 127
2, 75200, Note_on_c, 1, 62, 127
2, 75200, Note_on_c, 1, 67, 127
2, 75240, Note_off_c, 1, 55, 0
2, 75240, Note_off_c, 1, 58, 0
2, 75240, Note_off_c, 1, 62, 0
2, 75240, Note_off_c, 1, 67, 0
2, 75320, Note_on_c, 1, 55, 127
2, 75320, Note_on_c, 1, 58, 127
2, 75320, Note_on_c, 1, 62, 127
2, 75320, Note_on_c, 1, 67, 127
2, 75560, Note_off_c, 1, 55, 0
2, 75560, Note_off_c, 1, 58, 0
2, 75560, Note_off_c, 1, 62, 0
2, 75560, Note_off_c, 1, 67, 0
2, 75760, Note_on_c, 1, 55, 127
2, 75760, Note_on_c, 1, 58, 127
2, 75760, Note_on_c, 1, 62, 127
2, 75760, Note_on_c, 1, 67, 127
2, 75840, Note_off_c, 1, 55, 0
2, 75840, Note_off_c, 1, 58, 0
2, 75840, Note_off_c, 1, 62, 0
2, 75840, Note_off_c, 1, 67, 0
2, 75920, Note_on_c, 1, 55, 127
2, 75920, Note_on_c, 1, 58, 127
2, 75920, Note_on_c, 1, 62, 127
2, 75920, Note_on_c, 1, 67, 127
2, 76120, Note_off_c, 1, 55, 0
2, 76120, Note_off_c, 1, 58, 0
2, 76120, Note_off_c, 1, 62, 0
2, 76120, Note_off_c, 1, 67, 0
2, 76160, Note_on_c, 1, 55, 127
2, 76160, Note_on_c, 1, 58, 127
2, 76160, Note_on_c, 1, 62, 127
2, 76160, Note_on_c, 1, 67, 127
2, 76200, Note_off_c, 1, 55, 0
2, 76200, Note_off_c, 1, 58, 0
2, 76200, Note_off_c, 1, 62, 0
2, 76200, Note_off_c, 1, 67, 0
2, 76240, Note_on_c, 1, 58, 127
2, 76240, Note_on_c, 1, 67, 127
2, 76280, Note_off_c, 1, 58, 0
2, 76280, Note_off_c, 1, 67, 0
2, 76560, Note_on_c, 1, 38, 127
2, 76560, Note_on_c, 1, 50, 127
2, 76560, Note_on_c, 1, 54, 127
2, 76560, Note_on_c, 1, 57, 127
2, 76560, Note_on_c, 1, 62, 127
2, 76800, Note_off_c, 1, 38, 0
2, 76800, Note_off_c, 1, 50, 0
2, 76800, Note_off_c, 1, 54, 0
2, 76800, Note_off_c, 1, 57, 0
2, 76800, Note_off_c, 1, 62, 0
2, 76840, Note_on_c, 1, 31, 127
2, 76840, Note_on_c, 1, 43, 127
2, 76840, Note_on_c, 1, 55, 127
2, 76840, Note_on_c, 1, 59, 127
2, 76840, Note_on_c, 1, 62, 127
2, 77120, Note_off_c, 1, 31, 0
2, 77120, Note_off_c, 1, 43, 0
2, 77120, Note_off_c, 1, 55, 0
2, 77120, Note_off_c, 1, 59, 0
2, 77120, Note_off_c, 1, 62, 0
2, 77160, Note_on_c, 1, 41, 127
2, 77160, Note_on_c, 1, 48, 127
2, 77160, Note_on_c, 1, 57, 127
2, 77160, Note_on_c, 1, 65, 127
2, 77400, Note_off_c, 1, 41, 0
2, 77400, Note_off_c, 1, 48, 0
2, 77400, Note_off_c, 1, 57, 0
2, 77400, Note_off_c, 1, 65, 0
2, 77720, Note_on_c, 1, 43, 127
2, 77720, Note_on_c, 1, 45, 127
2, 77720, Note_on_c, 1, 49, 127
2, 77720, Note_on_c, 1, 52, 127
2, 77720, Note_on_c, 1, 57, 127
2, 78280, Note_off_c, 1, 43, 0
2, 78280, Note_off_c, 1, 45, 0
2, 78280, Note_off_c, 1, 49, 0
2, 78280, Note_off_c, 1, 52, 0
2, 78280, Note_off_c, 1, 57, 0
2, 78360, Note_on_c, 1, 40, 127
2, 78360, Note_on_c, 1, 45, 127
2, 78360, Note_on_c, 1, 49, 127
2, 78360, Note_on_c, 1, 55, 127
2, 78360, Note_on_c, 1, 57, 127
2, 78800, Note_off_c, 1, 40, 0
2, 78800, Note_off_c, 1, 45, 0
2, 78800, Note_off_c, 1, 49, 0
2, 78800, Note_off_c, 1, 55, 0
2, 78800, Note_off_c, 1, 57, 0
2, 78840, Note_on_c, 1, 43, 127
2, 78840, Note_on_c, 1, 45, 127
2, 78840, Note_on_c, 1, 49, 127
2, 78840, Note_on_c, 1, 52, 127
2, 78840, Note_on_c, 1, 57, 127
2, 79400, Note_off_c, 1, 43, 0
2, 79400, Note_off_c, 1, 45, 0
2, 79400, Note_off_c, 1, 49, 0
2, 79400, Note_off_c, 1, 52, 0
2, 79400, Note_off_c, 1, 57, 0
2, 79440, Note_on_c, 1, 40, 127
2, 79440, Note_on_c, 1, 45, 127
2, 79440, Note_on_c, 1, 49, 127
2, 79440, Note_on_c, 1, 55, 127
2, 79440, Note_on_c, 1, 57, 127
2, 79880, Note_off_c, 1, 40, 0
2, 79880, Note_off_c, 1, 45, 0
2, 79880, Note_off_c, 1, 49, 0
2, 79880, Note_off_c, 1, 55, 0
2, 79880, Note_off_c, 1, 57, 0
2, 79920, Note_on_c, 1, 43, 127
2, 79920, Note_on_c, 1, 45, 127
2, 79920, Note_on_c, 1, 49, 127
2, 79920, Note_on_c, 1, 52, 127
2, 79920, Note_on_c, 1, 57, 127
2, 80360, Note_off_c, 1, 43, 0
2, 80360, Note_off_c, 1, 45, 0
2, 80360, Note_off_c, 1, 49, 0
2, 80360, Note_off_c, 1, 52, 0
2, 80360, Note_off_c, 1, 57, 0
2, 80440, Note_on_c, 1, 40, 127
2, 80440, Note_on_c, 1, 45, 127
2, 80440, Note_on_c, 1, 49, 127
2, 80440, Note_on_c, 1, 55, 127
2, 80440, Note_on_c, 1, 57, 127
2, 80720, Note_off_c, 1, 40, 0
2, 80720, Note_off_c, 1, 45, 0
2, 80720, Note_off_c, 1, 49, 0
2, 80720, Note_off_c, 1, 55, 0
2, 80720, Note_off_c, 1, 57, 0
2, 80760, Note_on_c, 1, 43, 127
2, 80760, Note_on_c, 1, 45, 127
2, 80760, Note_on_c, 1, 49, 127
2, 80760, Note_on_c, 1, 52, 127
2, 80760, Note_on_c, 1, 57, 127
2, 81040, Note_off_c, 1, 43, 0
2, 81040, Note_off_c, 1, 45, 0
2, 81040, Note_off_c, 1, 49, 0
2, 81040, Note_off_c, 1, 52, 0
2, 81040, Note_off_c, 1, 57, 0
2, 81080, Note_on_c, 1, 40, 127
2, 81080, Note_on_c, 1, 45, 127
2, 81080, Note_on_c, 1, 49, 127
2, 81080, Note_on_c, 1, 55, 127
2, 81080, Note_on_c, 1, 57, 127
2, 81360, Note_off_c, 1, 40, 0
2, 81360, Note_off_c, 1, 45, 0
2, 81360, Note_off_c, 1, 49, 0
2, 81360, Note_off_c, 1, 55, 0
2, 81360, Note_off_c, 1, 57, 0
2, 81400, Note_on_c, 1, 40, 127
2, 81400, Note_on_c, 1, 45, 127
2, 81400, Note_on_c, 1, 49, 127
2, 81400, Note_on_c, 1, 55, 127
2, 81400, Note_on_c, 1, 57, 127
2, 81680, Note_off_c, 1, 40, 0
2, 81680, Note_off_c, 1, 45, 0
2, 81680, Note_off_c, 1, 49, 0
2, 81680, Note_off_c, 1, 55, 0
2, 81680, Note_off_c, 1, 57, 0
2, 81720, Note_on_c, 1, 52, 127
2, 81720, Note_on_c, 1, 56, 127
2, 81720, Note_on_c, 1, 62, 127
2, 81720, Note_on_c, 1, 64, 127
2, 81720, Note_on_c, 1, 71, 127
2, 81720, Note_on_c, 1, 76, 127
2, 81960, Note_off_c, 1, 52, 0
2, 81960, Note_off_c, 1, 56, 0
2, 81960, Note_off_c, 1, 62, 0
2, 81960, Note_off_c, 1, 64, 0
2, 81960, Note_off_c, 1, 71, 0
2, 81960, Note_off_c, 1, 76, 0
2, 82000, Note_on_c, 1, 49, 127
2, 82000, Note_on_c, 1, 54, 127
2, 82000, Note_on_c, 1, 76, 127
2, 82000, Note_on_c, 1, 78, 127
2, 82000, Note_on_c, 1, 82, 127
2, 82280, Note_off_c, 1, 82, 0
2, 82320, Note_off_c, 1, 54, 0
2, 82320, Note_on_c, 1, 82, 127
2, 82440, Note_off_c, 1, 49, 0
2, 82440, Note_off_c, 1, 76, 0
2, 82440, Note_off_c, 1, 78, 0
2, 82440, Note_off_c, 1, 82, 0
2, 82480, Note_on_c, 1, 49, 127
2, 82480, Note_on_c, 1, 76, 127
2, 82480, Note_on_c, 1, 78, 127
2, 82480, Note_on_c, 1, 82, 127
2, 82600, Note_off_c, 1, 49, 0
2, 82600, Note_off_c, 1, 76, 0
2, 82600, Note_off_c, 1, 78, 0
2, 82600, Note_off_c, 1, 82, 0
2, 82640, Note_on_c, 1, 56, 127
2, 82640, Note_on_c, 1, 80, 127
2, 82640, Note_on_c, 1, 83, 127
2, 82640, Note_on_c, 1, 87, 127
2, 82920, Note_off_c, 1, 56, 0
2, 82920, Note_off_c, 1, 80, 0
2, 82920, Note_off_c, 1, 83, 0
2, 82920, Note_off_c, 1, 87, 0
2, 82960, Note_on_c, 1, 56, 127
2, 82960, Note_on_c, 1, 80, 127
2, 82960, Note_on_c, 1, 83, 127
2, 82960, Note_on_c, 1, 87, 127
2, 83280, Note_off_c, 1, 56, 0
2, 83280, Note_off_c, 1, 80, 0
2, 83280, Note_off_c, 1, 83, 0
2, 83280, Note_off_c, 1, 87, 0
2, 83320, Note_on_c, 1, 41, 127
2, 83320, Note_on_c, 1, 49, 127
2, 83320, Note_on_c, 1, 70, 127
2, 83320, Note_on_c, 1, 80, 127
2, 83560, Note_off_c, 1, 41, 0
2, 83560, Note_off_c, 1, 49, 0
2, 83560, Note_off_c, 1, 70, 0
2, 83560, Note_off_c, 1, 80, 0
2, 83600, Note_on_c, 1, 41, 127
2, 83600, Note_on_c, 1, 49, 127
2, 83600, Note_on_c, 1, 80, 127
2, 83840, Note_on_c, 1, 70, 127
2, 83880, Note_off_c, 1, 41, 0
2, 83880, Note_off_c, 1, 49, 0
2, 83880, Note_off_c, 1, 70, 0
2, 83880, Note_off_c, 1, 80, 0
2, 83920, Note_on_c, 1, 37, 127
2, 83920, Note_on_c, 1, 41, 127
2, 83920, Note_on_c, 1, 49, 127
2, 84200, Note_off_c, 1, 37, 0
2, 84200, Note_off_c, 1, 41, 0
2, 84200, Note_off_c, 1, 49, 0
2, 84240, Note_on_c, 1, 35, 127
2, 84240, Note_on_c, 1, 39, 127
2, 84240, Note_on_c, 1, 47, 127
2, 84240, Note_on_c, 1, 63, 127
2, 84440, Note_off_c, 1, 35, 0
2, 84440, Note_off_c, 1, 39, 0
2, 84440, Note_off_c, 1, 47, 0
2, 84440, Note_off_c, 1, 63, 0
2, 84480, Note_on_c, 1, 35, 127
2, 84480, Note_on_c, 1, 39, 127
2, 84480, Note_on_c, 1, 47, 127
2, 84480, Note_on_c, 1, 63, 127
2, 84720, Note_off_c, 1, 35, 0
2, 84720, Note_on_c, 1, 42, 127
2, 84720, Note_off_c, 1, 47, 0
2, 84720, Note_on_c, 1, 51, 127
2, 84840, Note_off_c, 1, 39, 0
2, 84840, Note_off_c, 1, 42, 0
2, 84840, Note_off_c, 1, 51, 0
2, 84840, Note_off_c, 1, 63, 0
2, 84880, Note_on_c, 1, 52, 127
2, 84880, Note_on_c, 1, 59, 127
2, 84880, Note_on_c, 1, 71, 127
2, 84880, Note_on_c, 1, 80, 127
2, 85440, Note_off_c, 1, 59, 0
2, 85440, Note_off_c, 1, 71, 0
2, 85440, Note_off_c, 1, 80, 0
2, 85480, Note_on_c, 1, 59, 127
2, 85480, Note_on_c, 1, 68, 127
2, 85480, Note_on_c, 1, 76, 127
2, 85480, Note_on_c, 1, 88, 127
2, 85880, Note_off_c, 1, 68, 0
2, 85880, Note_off_c, 1, 76, 0
2, 85880, Note_off_c, 1, 88, 0
2, 85920, Note_on_c, 1, 68, 127
2, 85920, Note_on_c, 1, 80, 127
2, 86040, Note_on_c, 1, 76, 127
2, 86040, Note_off_c, 1, 80, 0
2, 86480, Note_off_c, 1, 52, 0
2, 86480, Note_off_c, 1, 59, 0
2, 86480, Note_off_c, 1, 68, 0
2, 86480, Note_off_c, 1, 76, 0
2, 86520, Note_on_c, 1, 52, 127
2, 86520, Note_on_c, 1, 59, 127
2, 86520, Note_on_c, 1, 68, 127
2, 86520, Note_on_c, 1, 76, 127
2, 88400, Note_off_c, 1, 52, 0
2, 88400, Note_off_c, 1, 59, 0
2, 88400, Note_off_c, 1, 68, 0
2, 88400, Note_off_c, 1, 76, 0
2, 88440, Note_on_c, 1, 52, 127
2, 88440, Note_on_c, 1, 59, 127
2, 88440, Note_on_c, 1, 68, 127
2, 88440, Note_on_c, 1, 76, 127
2, 89360, Note_off_c, 1, 52, 0
2, 89360, Note_off_c, 1, 59, 0
2, 89360, Note_off_c, 1, 68, 0
2, 89360, Note_off_c, 1, 76, 0
2, 89400, Note_on_c, 1, 52, 127
2, 89400, Note_on_c, 1, 59, 127
2, 89400, Note_on_c, 1, 68, 127
2, 89400, Note_on_c, 1, 76, 127
2, 92720, Note_off_c, 1, 52, 0
2, 92720, Note_off_c, 1, 59, 0
2, 92720, Note_off_c, 1, 68, 0
2, 92720, Note_off_c, 1, 76, 0
2, 92760, Note_on_c, 1, 52, 127
2, 92760, Note_on_c, 1, 59, 127
2, 92760, Note_on_c, 1, 68, 127
2, 92760, Note_on_c, 1, 76, 127
2, 94120, Note_off_c, 1, 68, 0
2, 94160, Note_on_c, 1, 68, 127
2, 95480, Note_off_c, 1, 52, 0
2, 95480, Note_off_c, 1, 59, 0
2, 95480, Note_off_c, 1, 68, 0
2, 95480, Note_off_c, 1, 76, 0
2, 95520, Note_on_c, 1, 52, 127
2, 95520, Note_on_c, 1, 59, 127
2, 95520, Note_on_c, 1, 68, 127
2, 95520, Note_on_c, 1, 76, 127
2, 98080, Note_off_c, 1, 52, 0
2, 98080, Note_off_c, 1, 59, 0
2, 98080, Note_off_c, 1, 68, 0
2, 98080, Note_off_c, 1, 76, 0
2, 98120, Note_on_c, 1, 52, 127
2, 98120, Note_on_c, 1, 59, 127
2, 98120, Note_on_c, 1, 68, 127
2, 98120, Note_on_c, 1, 76, 127
2, 98160, Note_off_c, 1, 52, 0
2, 98160, Note_off_c, 1, 59, 0
2, 98160, Note_off_c, 1, 68, 0
2, 98160, Note_off_c, 1, 76, 0
2, 100240, Note_on_c, 1, 56, 127
2, 100240, Note_on_c, 1, 68, 127
2, 101440, Note_off_c, 1, 56, 0
2, 101440, Note_off_c, 1, 68, 0
2, 101520, Note_on_c, 1, 54, 127
2, 101520, Note_on_c, 1, 66, 127
2, 102200, Note_off_c, 1, 54, 0
2, 102200, Note_off_c, 1, 66, 0
2, 102240, Note_on_c, 1, 57, 127
2, 102240, Note_on_c, 1, 69, 127
2, 102920, Note_on_c, 1, 54, 127
2, 102920, Note_off_c, 1, 57, 0
2, 102920, Note_on_c, 1, 66, 127
2, 102920, Note_off_c, 1, 69, 0
2, 102960, Note_off_c, 1, 54, 0
2, 102960, Note_on_c, 1, 57, 127
2, 102960, Note_off_c, 1, 66, 0
2, 102960, Note_on_c, 1, 69, 127
2, 103520, Note_off_c, 1, 57, 0
2, 103520, Note_off_c, 1, 69, 0
2, 103600, Note_on_c, 1, 54, 127
2, 103600, Note_on_c, 1, 66, 127
2, 104960, Note_off_c, 1, 54, 0
2, 104960, Note_off_c, 1, 66, 0
2, 105000, Note_on_c, 1, 60, 127
2, 105000, Note_on_c, 1, 72, 127
2, 105840, Note_off_c, 1, 60, 0
2, 105840, Note_off_c, 1, 72, 0
2, 105880, Note_on_c, 1, 46, 127
2, 105880, Note_on_c, 1, 86, 127
2, 105880, Note_on_c, 1, 91, 127
2, 105920, Note_on_c, 1, 45, 127
2, 105920, Note_off_c, 1, 46, 0
2, 105920, Note_on_c, 1, 47, 127
2, 105920, Note_on_c, 1, 57, 127
2, 105920, Note_on_c, 1, 63, 127
2, 105920, Note_on_c, 1, 66, 127
2, 105920, Note_on_c, 1, 71, 127
2, 105920, Note_on_c, 1, 75, 127
2, 105920, Note_off_c, 1, 86, 0
2, 105920, Note_off_c, 1, 91, 0
2, 105960, Note_off_c, 1, 45, 0
2, 105960, Note_off_c, 1, 47, 0
2, 105960, Note_off_c, 1, 57, 0
2, 105960, Note_off_c, 1, 63, 0
2, 105960, Note_off_c, 1, 66, 0
2, 105960, Note_off_c, 1, 71, 0
2, 105960, Note_off_c, 1, 75, 0
2, 106000, Note_on_c, 1, 41, 127
2, 106000, Note_on_c, 1, 45, 127
2, 106000, Note_on_c, 1, 61, 127
2, 106000, Note_on_c, 1, 64, 127
2, 106000, Note_on_c, 1, 67, 127
2, 106000, Note_on_c, 1, 69, 127
2, 106040, Note_off_c, 1, 41, 0
2, 106040, Note_off_c, 1, 45, 0
2, 106040, Note_on_c, 1, 52, 127
2, 106040, Note_on_c, 1, 54, 127
2, 106040, Note_off_c, 1, 61, 0
2, 106040, Note_off_c, 1, 64, 0
2, 106040, Note_off_c, 1, 67, 0
2, 106040, Note_off_c, 1, 69, 0
2, 106040, Note_on_c, 1, 73, 127
2, 106040, Note_on_c, 1, 75, 127
2, 106080, Note_on_c, 1, 47, 127
2, 106080, Note_off_c, 1, 52, 0
2, 106080, Note_off_c, 1, 54, 0
2, 106080, Note_on_c, 1, 57, 127
2, 106080, Note_off_c, 1, 73, 0
2, 106080, Note_off_c, 1, 75, 0
2, 106080, Note_on_c, 1, 87, 127
2, 106120, Note_on_c, 1, 45, 127
2, 106120, Note_off_c, 1, 47, 0
2, 106120, Note_on_c, 1, 52, 127
2, 106120, Note_off_c, 1, 57, 0
2, 106120, Note_on_c, 1, 81, 127
2, 106120, Note_on_c, 1, 85, 127
2, 106120, Note_off_c, 1, 87, 0
2, 106160, Note_off_c, 1, 45, 0
2, 106160, Note_off_c, 1, 52, 0
2, 106160, Note_on_c, 1, 69, 127
2, 106160, Note_on_c, 1, 72, 127
2, 106160, Note_on_c, 1, 75, 127
2, 106160, Note_on_c, 1, 79, 127
2, 106160, Note_on_c, 1, 84, 127
2, 106160, Note_off_c, 1, 85, 0
2, 106200, Note_off_c, 1, 69, 0
2, 106200, Note_off_c, 1, 72, 0
2, 106200, Note_off_c, 1, 75, 0
2, 106200, Note_off_c, 1, 79, 0
2, 106200, Note_off_c, 1, 81, 0
2, 106200, Note_off_c, 1, 84, 0
2, 106240, Note_on_c, 1, 44, 127
2, 106240, Note_on_c, 1, 49, 127
2, 106240, Note_on_c, 1, 71, 127
2, 106240, Note_on_c, 1, 76, 127
2, 106240, Note_on_c, 1, 83, 127
2, 106520, Note_off_c, 1, 44, 0
2, 106520, Note_off_c, 1, 49, 0
2, 106520, Note_off_c, 1, 71, 0
2, 106520, Note_off_c, 1, 76, 0
2, 106520, Note_off_c, 1, 83, 0
2, 106560, Note_on_c, 1, 52, 127
2, 106560, Note_on_c, 1, 71, 127
2, 106560, Note_on_c, 1, 76, 127
2, 106560, Note_on_c, 1, 80, 127
2, 106840, Note_off_c, 1, 76, 0
2, 106840, Note_off_c, 1, 80, 0
2, 106880, Note_on_c, 1, 76, 127
2, 106880, Note_on_c, 1, 80, 127
2, 107120, Note_off_c, 1, 76, 0
2, 107120, Note_off_c, 1, 80, 0
2, 107160, Note_on_c, 1, 40, 127
2, 107160, Note_off_c, 1, 52, 0
2, 107160, Note_on_c, 1, 80, 127
2, 107200, Note_off_c, 1, 80, 0
2, 107240, Note_off_c, 1, 40, 0
2, 107240, Note_on_c, 1, 52, 127
2, 107240, Note_on_c, 1, 78, 127
2, 107280, Note_on_c, 1, 40, 127
2, 107280, Note_off_c, 1, 52, 0
2, 107280, Note_off_c, 1, 78, 0
2, 107440, Note_off_c, 1, 40, 0
2, 107480, Note_on_c, 1, 52, 127
2, 107480, Note_on_c, 1, 56, 127
2, 107480, Note_on_c, 1, 64, 127
2, 107720, Note_off_c, 1, 56, 0
2, 107720, Note_off_c, 1, 64, 0
2, 107760, Note_on_c, 1, 56, 127
2, 107760, Note_on_c, 1, 64, 127
2, 108040, Note_off_c, 1, 52, 0
2, 108040, Note_off_c, 1, 56, 0
2, 108040, Note_off_c, 1, 64, 0
2, 108040, Note_off_c, 1, 71, 0
2, 108120, Note_on_c, 1, 53, 127
2, 108120, Note_on_c, 1, 59, 127
2, 108120, Note_on_c, 1, 61, 127
2, 108120, Note_on_c, 1, 68, 127
2, 108680, Note_off_c, 1, 53, 0
2, 108680, Note_off_c, 1, 59, 0
2, 108680, Note_off_c, 1, 61, 0
2, 108720, Note_on_c, 1, 53, 127
2, 108720, Note_on_c, 1, 59, 127
2, 108720, Note_on_c, 1, 61, 127
2, 109240, Note_off_c, 1, 53, 0
2, 109240, Note_off_c, 1, 59, 0
2, 109240, Note_off_c, 1, 61, 0
2, 109240, Note_off_c, 1, 68, 0
2, 109280, Note_on_c, 1, 51, 127
2, 109280, Note_on_c, 1, 54, 127
2, 109280, Note_on_c, 1, 69, 127
2, 109560, Note_on_c, 1, 50, 127
2, 109560, Note_off_c, 1, 51, 0
2, 109560, Note_off_c, 1, 69, 0
2, 109560, Note_on_c, 1, 71, 127
2, 109840, Note_off_c, 1, 50, 0
2, 109840, Note_off_c, 1, 54, 0
2, 109840, Note_off_c, 1, 71, 0
2, 109880, Note_on_c, 1, 56, 127
2, 109880, Note_on_c, 1, 59, 127
2, 109880, Note_on_c, 1, 64, 127
2, 109880, Note_on_c, 1, 68, 127
2, 110080, Note_off_c, 1, 56, 0
2, 110080, Note_off_c, 1, 59, 0
2, 110080, Note_off_c, 1, 64, 0
2, 110080, Note_off_c, 1, 68, 0
2, 110120, Note_on_c, 1, 56, 127
2, 110120, Note_on_c, 1, 59, 127
2, 110120, Note_on_c, 1, 64, 127
2, 110120, Note_on_c, 1, 68, 127
2, 110160, Note_off_c, 1, 56, 0
2, 110160, Note_off_c, 1, 59, 0
2, 110160, Note_off_c, 1, 64, 0
2, 110160, Note_off_c, 1, 68, 0
2, 110520, Note_on_c, 1, 52, 127
2, 110520, Note_on_c, 1, 60, 127
2, 110520, Note_on_c, 1, 64, 127
2, 110520, Note_on_c, 1, 67, 127
2, 111640, Note_off_c, 1, 52, 0
2, 111640, Note_off_c, 1, 60, 0
2, 111640, Note_off_c, 1, 64, 0
2, 111640, Note_off_c, 1, 67, 0
2, 111680, Note_on_c, 1, 54, 127
2, 111680, Note_on_c, 1, 63, 127
2, 111680, Note_on_c, 1, 69, 127
2, 112120, Note_off_c, 1, 54, 0
2, 112120, Note_off_c, 1, 63, 0
2, 112120, Note_off_c, 1, 69, 0
2, 112160, Note_on_c, 1, 54, 127
2, 112160, Note_on_c, 1, 63, 127
2, 112160, Note_on_c, 1, 69, 127
2, 112440, Note_off_c, 1, 63, 0
2, 112480, Note_on_c, 1, 67, 127
2, 113040, Note_off_c, 1, 54, 0
2, 113040, Note_off_c, 1, 67, 0
2, 113040, Note_off_c, 1, 69, 0
2, 113080, Note_on_c, 1, 56, 127
2, 113080, Note_on_c, 1, 64, 127
2, 113080, Note_on_c, 1, 71, 127
2, 113080, Note_on_c, 1, 76, 127
2, 113600, Note_off_c, 1, 56, 0
2, 113600, Note_off_c, 1, 64, 0
2, 113600, Note_off_c, 1, 71, 0
2, 113600, Note_off_c, 1, 76, 0
2, 113640, Note_on_c, 1, 56, 127
2, 113640, Note_on_c, 1, 64, 127
2, 113640, Note_on_c, 1, 71, 127
2, 113640, Note_on_c, 1, 76, 127
2, 113960, Note_off_c, 1, 56, 0
2, 113960, Note_off_c, 1, 64, 0
2, 113960, Note_off_c, 1, 71, 0
2, 113960, Note_off_c, 1, 76, 0
2, 114000, Note_on_c, 1, 56, 127
2, 114000, Note_on_c, 1, 64, 127
2, 114000, Note_on_c, 1, 71, 127
2, 114000, Note_on_c, 1, 76, 127
2, 114200, Note_off_c, 1, 56, 0
2, 114200, Note_off_c, 1, 64, 0
2, 114200, Note_off_c, 1, 71, 0
2, 114200, Note_off_c, 1, 76, 0
2, 114240, Note_on_c, 1, 54, 127
2, 114240, Note_on_c, 1, 63, 127
2, 114240, Note_on_c, 1, 69, 127
2, 115040, Note_on_c, 1, 62, 127
2, 115040, Note_off_c, 1, 63, 0
2, 115080, Note_off_c, 1, 62, 0
2, 115080, Note_on_c, 1, 63, 127
2, 115200, Note_off_c, 1, 63, 0
2, 115240, Note_on_c, 1, 61, 127
2, 115800, Note_off_c, 1, 54, 0
2, 115800, Note_off_c, 1, 61, 0
2, 115800, Note_off_c, 1, 69, 0
2, 115840, Note_on_c, 1, 54, 127
2, 115840, Note_on_c, 1, 61, 127
2, 115840, Note_on_c, 1, 69, 127
2, 117560, Note_off_c, 1, 54, 0
2, 117560, Note_off_c, 1, 61, 0
2, 117560, Note_off_c, 1, 69, 0
2, 117640, Note_on_c, 1, 47, 127
2, 117640, Note_on_c, 1, 62, 127
2, 117640, Note_on_c, 1, 66, 127
2, 118160, Note_off_c, 1, 47, 0
2, 118200, Note_on_c, 1, 44, 127
2, 118200, Note_on_c, 1, 54, 127
2, 118200, Note_off_c, 1, 62, 0
2, 118200, Note_on_c, 1, 63, 127
2, 118480, Note_off_c, 1, 44, 0
2, 118480, Note_off_c, 1, 54, 0
2, 118760, Note_on_c, 1, 56, 127
2, 119320, Note_off_c, 1, 56, 0
2, 119320, Note_off_c, 1, 63, 0
2, 119320, Note_off_c, 1, 66, 0
2, 119360, Note_on_c, 1, 46, 127
2, 119360, Note_on_c, 1, 53, 127
2, 119360, Note_on_c, 1, 61, 127
2, 119360, Note_on_c, 1, 70, 127
2, 119640, Note_off_c, 1, 70, 0
2, 119760, Note_off_c, 1, 46, 0
2, 119760, Note_off_c, 1, 53, 0
2, 119760, Note_off_c, 1, 61, 0
2, 119800, Note_on_c, 1, 46, 127
2, 119800, Note_on_c, 1, 53, 127
2, 119800, Note_on_c, 1, 61, 127
2, 120000, Note_off_c, 1, 46, 0
2, 120000, Note_off_c, 1, 53, 0
2, 120000, Note_off_c, 1, 61, 0
2, 120040, End_track
3, 0, Start_track
3, 0, Title_t, "MIDI"
3, 1536, End_track
0, 0, End_of_file
