0, 0, Header, 1, 3, 192
1, 0, Start_track
1, 0, Time_signature, 4, 2, 24, 8
1, 0, Tempo, 500000
1, 120040, End_track
2, 0, Start_track
2, 0, Text_t, "random instrument: random person i dunno whatev"
2, 0, Title_t, "Track 1"
2, 0, Note_on_c, 1, 40, 127
2, 0, Note_on_c, 1, 48, 127
2, 0, Note_on_c, 1, 56, 127
2, 0, Note_on_c, 1, 60, 127
2, 40, Note_off_c, 1, 40, 0
2, 40, Note_off_c, 1, 48, 0
2, 40, Note_on_c, 1, 55, 127
2, 40, Note_off_c, 1, 56, 0
2, 40, Note_off_c, 1, 60, 0
2, 40, Note_on_c, 1, 72, 127
2, 40, Note_on_c, 1, 75, 127
2, 40, Note_on_c, 1, 79, 127
2, 40, Note_on_c, 1, 84, 127
2, 80, Note_off_c, 1, 55, 0
2, 80, Note_off_c, 1, 72, 0
2, 80, Note_off_c, 1, 75, 0
2, 80, Note_off_c, 1, 79, 0
2, 80, Note_off_c, 1, 84, 0
2, 120, Note_on_c, 1, 50, 127
2, 120, Note_on_c, 1, 59, 127
2, 120, Note_on_c, 1, 62, 127
2, 120, Note_on_c, 1, 78, 127
2, 160, Note_off_c, 1, 50, 0
2, 160, Note_off_c, 1, 59, 0
2, 160, Note_on_c, 1, 60, 127
2, 160, Note_off_c, 1, 62, 0
2, 160, Note_on_c, 1, 66, 127
2, 160, Note_on_c, 1, 68, 127
2, 160, Note_off_c, 1, 78, 0
2, 160, Note_on_c, 1, 90, 127
2, 200, Note_on_c, 1, 35, 127
2, 200, Note_on_c, 1, 39, 127
2, 200, Note_on_c, 1, 47, 127
2, 200, Note_on_c, 1, 50, 127
2, 200, Note_off_c, 1, 60, 0
2, 200, Note_off_c, 1, 66, 0
2, 200, Note_off_c, 1, 68, 0
2, 200, Note_off_c, 1, 90, 0
2, 240, Note_off_c, 1, 35, 0
2, 240, Note_off_c, 1, 39, 0
2, 240, Note_off_c, 1, 47, 0
2, 240, Note_off_c, 1, 50, 0
2, 240, Note_on_c, 1, 51, 127
2, 240, Note_on_c, 1, 55, 127
2, 240, Note_on_c, 1, 58, 127
2, 240, Note_on_c, 1, 63, 127
2, 240, Note_on_c, 1, 82, 127
2, 240, Note_on_c, 1, 91, 127
2, 280, Note_off_c, 1, 51, 0
2, 280, Note_off_c, 1, 55, 0
2, 280, Note_off_c, 1, 58, 0
2, 280, Note_off_c, 1, 63, 0
2, 280, Note_on_c, 1, 76, 127
2, 280, Note_on_c, 1, 80, 127
2, 280, Note_off_c, 1, 82, 0
2, 280, Note_on_c, 1, 83, 127
2, 280, Note_on_c, 1, 89, 127
2, 280, Note_off_c, 1, 91, 0
2, 320, Note_on_c, 1, 58, 127
2, 320, Note_on_c, 1, 63, 127
2, 320, Note_on_c, 1, 66, 127
2, 320, Note_on_c, 1, 72, 127
2, 320, Note_on_c, 1, 75, 127
2, 320, Note_off_c, 1, 76, 0
2, 320, Note_off_c, 1, 80, 0
2, 320, Note_on_c, 1, 82, 127
2, 320, Note_off_c, 1, 83, 0
2, 320, Note_on_c, 1, 87, 127
2, 320, Note_off_c, 1, 89, 0
2, 360, Note_on_c, 1, 57, 127
2, 360, Note_off_c, 1, 58, 0
2, 360, Note_on_c, 1, 62, 127
2, 360, Note_off_c, 1, 63, 0
2, 360, Note_off_c, 1, 66, 0
2, 360, Note_off_c, 1, 72, 0
2, 360, Note_off_c, 1, 75, 0
2, 360, Note_off_c, 1, 82, 0
2, 360, Note_off_c, 1, 87, 0
2, 400, Note_off_c, 1, 57, 0
2, 400, Note_on_c, 1, 60, 127
2, 400, Note_off_c, 1, 62, 0
2, 400, Note_on_c, 1, 85, 127
2, 400, Note_on_c, 1, 88, 127
2, 440, Note_on_c, 1, 50, 127
2, 440, Note_on_c, 1, 57, 127
2, 440, Note_off_c, 1, 60, 0
2, 440, Note_on_c, 1, 65, 127
2, 440, Note_off_c, 1, 85, 0
2, 440, Note_off_c, 1, 88, 0
2, 440, Note_on_c, 1, 93, 127
2, 800, Note_off_c, 1, 50, 0
2, 800, Note_off_c, 1, 57, 0
2, 800, Note_off_c, 1, 65, 0
2, 800, Note_off_c, 1, 93, 0
2, 5240, Note_on_c, 1, 43, 127
2, 5240, Note_on_c, 1, 50, 127
2, 5240, Note_on_c, 1, 60, 127
2, 5240, Note_on_c, 1, 62, 127
2, 5240, Note_on_c, 1, 69, 127
2, 5480, Note_off_c, 1, 43, 0
2, 5480, Note_off_c, 1, 50, 0
2, 5480, Note_off_c, 1, 60, 0
2, 5480, Note_off_c, 1, 62, 0
2, 5480, Note_off_c, 1, 69, 0
2, 6120, Note_on_c, 1, 47, 127
2, 6120, Note_on_c, 1, 56, 127
2, 6120, Note_on_c, 1, 64, 127
2, 6120, Note_on_c, 1, 70, 127
2, 6160, Note_off_c, 1, 47, 0
2, 6160, Note_off_c, 1, 56, 0
2, 6160, Note_off_c, 1, 64, 0
2, 6160, Note_on_c, 1, 68, 127
2, 6160, Note_off_c, 1, 70, 0
2, 6160, Note_on_c, 1, 73, 127
2, 6160, Note_on_c, 1, 80, 127
2, 6160, Note_on_c, 1, 85, 127
2, 6160, Note_on_c, 1, 89, 127
2, 6200, Note_on_c, 1, 42, 127
2, 6200, Note_on_c, 1, 52, 127
2, 6200, Note_on_c, 1, 59, 127
2, 6200, Note_on_c, 1, 64, 127
2, 6200, Note_off_c, 1, 68, 0
2, 6200, Note_off_c, 1, 73, 0
2, 6200, Note_off_c, 1, 80, 0
2, 6200, Note_off_c, 1, 85, 0
2, 6200, Note_off_c, 1, 89, 0
2, 6240, Note_off_c, 1, 42, 0
2, 6240, Note_off_c, 1, 52, 0
2, 6240, Note_off_c, 1, 59, 0
2, 6240, Note_off_c, 1, 64, 0
2, 6240, Note_on_c, 1, 68, 127
2, 6240, Note_on_c, 1, 73, 127
2, 6240, Note_on_c, 1, 80, 127
2, 6240, Note_on_c, 1, 85, 127
2, 6240, Note_on_c, 1, 89, 127
2, 6280, Note_off_c, 1, 68, 0
2, 6280, Note_off_c, 1, 73, 0
2, 6280, Note_off_c, 1, 80, 0
2, 6280, Note_off_c, 1, 85, 0
2, 6280, Note_off_c, 1, 89, 0
2, 6320, Note_on_c, 1, 41, 127
2, 6320, Note_on_c, 1, 49, 127
2, 6320, Note_on_c, 1, 61, 127
2, 6320, Note_on_c, 1, 65, 127
2, 6320, Note_on_c, 1, 68, 127
2, 6320, Note_on_c, 1, 73, 127
2, 6320, Note_on_c, 1, 80, 127
2, 6720, Note_off_c, 1, 41, 0
2, 6720, Note_off_c, 1, 49, 0
2, 6720, Note_off_c, 1, 61, 0
2, 6720, Note_off_c, 1, 65, 0
2, 6720, Note_off_c, 1, 68, 0
2, 6720, Note_off_c, 1, 73, 0
2, 6720, Note_off_c, 1, 80, 0
2, 6760, Note_on_c, 1, 49, 127
2, 6760, Note_on_c, 1, 52, 127
2, 6760, Note_on_c, 1, 57, 127
2, 6760, Note_on_c, 1, 61, 127
2, 6760, Note_on_c, 1, 63, 127
2, 6960, Note_off_c, 1, 49, 0
2, 6960, Note_off_c, 1, 52, 0
2, 6960, Note_off_c, 1, 57, 0
2, 6960, Note_off_c, 1, 61, 0
2, 6960, Note_off_c, 1, 63, 0
2, 7000, Note_on_c, 1, 47, 127
2, 7000, Note_on_c, 1, 56, 127
2, 7000, Note_on_c, 1, 64, 127
2, 7000, Note_on_c, 1, 71, 127
2, 7000, Note_on_c, 1, 73, 127
2, 7200, Note_off_c, 1, 73, 0
2, 7240, Note_on_c, 1, 75, 127
2, 7360, Note_off_c, 1, 75, 0
2, 7360, Note_on_c, 1, 76, 127
2, 7560, Note_off_c, 1, 47, 0
2, 7560, Note_off_c, 1, 56, 0
2, 7560, Note_off_c, 1, 64, 0
2, 7560, Note_off_c, 1, 71, 0
2, 7560, Note_off_c, 1, 76, 0
2, 7600, Note_on_c, 1, 47, 127
2, 7600, Note_on_c, 1, 56, 127
2, 7600, Note_on_c, 1, 64, 127
2, 7600, Note_on_c, 1, 71, 127
2, 7600, Note_on_c, 1, 76, 127
2, 7680, Note_off_c, 1, 47, 0
2, 7680, Note_off_c, 1, 56, 0
2, 7680, Note_off_c, 1, 64, 0
2, 7680, Note_off_c, 1, 71, 0
2, 7680, Note_off_c, 1, 76, 0
2, 9400, Note_on_c, 1, 76, 127
2, 9400, Note_on_c, 1, 80, 127
2, 9680, Note_on_c, 1, 75, 127
2, 9680, Note_off_c, 1, 76, 0
2, 9680, Note_on_c, 1, 79, 127
2, 9680, Note_off_c, 1, 80, 0
2, 9720, Note_off_c, 1, 75, 0
2, 9720, Note_on_c, 1, 76, 127
2, 9720, Note_off_c, 1, 79, 0
2, 9720, Note_on_c, 1, 80, 127
2, 9800, Note_off_c, 1, 76, 0
2, 9800, Note_off_c, 1, 80, 0
2, 9840, Note_on_c, 1, 76, 127
2, 9840, Note_on_c, 1, 83, 127
2, 9840, Note_on_c, 1, 88, 127
2, 9840, Note_on_c, 1, 92, 127
2, 10200, Note_off_c, 1, 76, 0
2, 10200, Note_off_c, 1, 83, 0
2, 10640, Note_off_c, 1, 88, 0
2, 10640, Note_off_c, 1, 92, 0
2, 10680, Note_on_c, 1, 88, 127
2, 10680, Note_on_c, 1, 92, 127
2, 10720, Note_off_c, 1, 88, 0
2, 10720, Note_off_c, 1, 92, 0
2, 10760, Note_on_c, 1, 88, 127
2, 10760, Note_on_c, 1, 92, 127
2, 11120, Note_off_c, 1, 88, 0
2, 11120, Note_off_c, 1, 92, 0
2, 13400, Note_on_c, 1, 37, 127
2, 13400, Note_on_c, 1, 49, 127
2, 14560, Note_on_c, 1, 56, 127
2, 14920, Note_off_c, 1, 37, 0
2, 14920, Note_off_c, 1, 49, 0
2, 14960, Note_on_c, 1, 49, 127
2, 14960, Note_off_c, 1, 56, 0
2, 14960, Note_on_c, 1, 66, 127
2, 14960, Note_on_c, 1, 68, 127
2, 15720, Note_off_c, 1, 49, 0
2, 15760, Note_on_c, 1, 49, 127
2, 16120, Note_off_c, 1, 49, 0
2, 16120, Note_off_c, 1, 66, 0
2, 16120, Note_off_c, 1, 68, 0
2, 16200, Note_on_c, 1, 49, 127
2, 18160, Note_on_c, 1, 47, 127
2, 18160, Note_off_c, 1, 49, 0
2, 18200, Note_off_c, 1, 47, 0
2, 18200, Note_on_c, 1, 49, 127
2, 18360, Note_off_c, 1, 49, 0
2, 18400, Note_on_c, 1, 49, 127
2, 19040, Note_off_c, 1, 49, 0
2, 19080, Note_on_c, 1, 49, 127
2, 19080, Note_on_c, 1, 56, 127
2, 19080, Note_on_c, 1, 59, 127
2, 19080, Note_on_c, 1, 82, 127
2, 19440, Note_off_c, 1, 82, 0
2, 19480, Note_on_c, 1, 42, 127
2, 19480, Note_off_c, 1, 49, 0
2, 19480, Note_off_c, 1, 56, 0
2, 19480, Note_off_c, 1, 59, 0
2, 19480, Note_on_c, 1, 78, 127
2, 19480, Note_on_c, 1, 85, 127
2, 19520, Note_off_c, 1, 42, 0
2, 19520, Note_on_c, 1, 44, 127
2, 19520, Note_on_c, 1, 69, 127
2, 19520, Note_on_c, 1, 73, 127
2, 19520, Note_off_c, 1, 85, 0
2, 19560, Note_off_c, 1, 44, 0
2, 19560, Note_on_c, 1, 51, 127
2, 19560, Note_on_c, 1, 67, 127
2, 19560, Note_off_c, 1, 69, 0
2, 19560, Note_on_c, 1, 70, 127
2, 19560, Note_off_c, 1, 73, 0
2, 19560, Note_off_c, 1, 78, 0
2, 19560, Note_on_c, 1, 94, 127
2, 19600, Note_on_c, 1, 42, 127
2, 19600, Note_off_c, 1, 51, 0
2, 19600, Note_off_c, 1, 67, 0
2, 19600, Note_off_c, 1, 70, 0
2, 19640, Note_on_c, 1, 85, 127
2, 19640, Note_off_c, 1, 94, 0
2, 19680, Note_off_c, 1, 85, 0
2, 19680, Note_on_c, 1, 88, 127
2, 19840, Note_off_c, 1, 88, 0
2, 19880, Note_on_c, 1, 88, 127
2, 20040, Note_off_c, 1, 88, 0
2, 20080, Note_on_c, 1, 88, 127
2, 20120, Note_on_c, 1, 85, 127
2, 20120, Note_off_c, 1, 88, 0
2, 20200, Note_off_c, 1, 85, 0
2, 20200, Note_on_c, 1, 88, 127
2, 20240, Note_off_c, 1, 88, 0
2, 20280, Note_on_c, 1, 88, 127
2, 20440, Note_off_c, 1, 88, 0
2, 20480, Note_off_c, 1, 42, 0
2, 20520, Note_on_c, 1, 42, 127
2, 20520, Note_on_c, 1, 82, 127
2, 20680, Note_off_c, 1, 82, 0
2, 20720, Note_on_c, 1, 76, 127
2, 20880, Note_off_c, 1, 76, 0
2, 20920, Note_on_c, 1, 90, 127
2, 21080, Note_off_c, 1, 42, 0
2, 21080, Note_off_c, 1, 90, 0
2, 21120, Note_on_c, 1, 34, 127
2, 21120, Note_on_c, 1, 82, 127
2, 21280, Note_off_c, 1, 34, 0
2, 21280, Note_off_c, 1, 82, 0
2, 21320, Note_on_c, 1, 35, 127
2, 21480, Note_off_c, 1, 35, 0
2, 21520, Note_on_c, 1, 39, 127
2, 21520, Note_on_c, 1, 82, 127
2, 21680, Note_off_c, 1, 82, 0
2, 21720, Note_on_c, 1, 79, 127
2, 21880, Note_off_c, 1, 39, 0
2, 21880, Note_off_c, 1, 79, 0
2, 21920, Note_on_c, 1, 39, 127
2, 21920, Note_on_c, 1, 75, 127
2, 21920, Note_on_c, 1, 79, 127
2, 22280, Note_off_c, 1, 39, 0
2, 22280, Note_off_c, 1, 75, 0
2, 22280, Note_off_c, 1, 79, 0
2, 22320, Note_on_c, 1, 46, 127
2, 22320, Note_on_c, 1, 75, 127
2, 22320, Note_on_c, 1, 79, 127
2, 22640, Note_off_c, 1, 46, 0
2, 22640, Note_off_c, 1, 75, 0
2, 22640, Note_off_c, 1, 79, 0
2, 22680, Note_on_c, 1, 46, 127
2, 22680, Note_on_c, 1, 75, 127
2, 22680, Note_on_c, 1, 79, 127
2, 22720, Note_off_c, 1, 46, 0
2, 22720, Note_off_c, 1, 75, 0
2, 22720, Note_off_c, 1, 79, 0
2, 22760, Note_on_c, 1, 39, 127
2, 22760, Note_on_c, 1, 75, 127
2, 22760, Note_on_c, 1, 79, 127
2, 23120, Note_off_c, 1, 39, 0
2, 23120, Note_off_c, 1, 75, 0
2, 23120, Note_off_c, 1, 79, 0
2, 23160, Note_on_c, 1, 39, 127
2, 23160, Note_on_c, 1, 46, 127
2, 23160, Note_on_c, 1, 75, 127
2, 23160, Note_on_c, 1, 79, 127
2, 23520, Note_off_c, 1, 39, 0
2, 23520, Note_off_c, 1, 46, 0
2, 23520, Note_off_c, 1, 75, 0
2, 23520, Note_off_c, 1, 79, 0
2, 23560, Note_on_c, 1, 39, 127
2, 23560, Note_on_c, 1, 46, 127
2, 23560, Note_on_c, 1, 75, 127
2, 23560, Note_on_c, 1, 79, 127
2, 23920, Note_off_c, 1, 39, 0
2, 23920, Note_off_c, 1, 46, 0
2, 23920, Note_off_c, 1, 75, 0
2, 23920, Note_off_c, 1, 79, 0
2, 23960, Note_on_c, 1, 39, 127
2, 23960, Note_on_c, 1, 46, 127
2, 23960, Note_on_c, 1, 75, 127
2, 23960, Note_on_c, 1, 79, 127
2, 24320, Note_off_c, 1, 39, 0
2, 24320, Note_off_c, 1, 46, 0
2, 24320, Note_off_c, 1, 75, 0
2, 24320, Note_off_c, 1, 79, 0
2, 24360, Note_on_c, 1, 39, 127
2, 24360, Note_on_c, 1, 46, 127
2, 24360, Note_on_c, 1, 75, 127
2, 24360, Note_on_c, 1, 79, 127
2, 24720, Note_off_c, 1, 39, 0
2, 24720, Note_off_c, 1, 46, 0
2, 24720, Note_off_c, 1, 75, 0
2, 24720, Note_off_c, 1, 79, 0
2, 24800, Note_on_c, 1, 39, 127
2, 24800, Note_on_c, 1, 46, 127
2, 24800, Note_on_c, 1, 75, 127
2, 24800, Note_on_c, 1, 79, 127
2, 25160, Note_off_c, 1, 39, 0
2, 25160, Note_off_c, 1, 46, 0
2, 25160, Note_off_c, 1, 75, 0
2, 25160, Note_off_c, 1, 79, 0
2, 25200, Note_on_c, 1, 39, 127
2, 25200, Note_on_c, 1, 46, 127
2, 25200, Note_on_c, 1, 75, 127
2, 25200, Note_on_c, 1, 79, 127
2, 25560, Note_off_c, 1, 39, 0
2, 25560, Note_off_c, 1, 46, 0
2, 25560, Note_off_c, 1, 75, 0
2, 25560, Note_off_c, 1, 79, 0
2, 25600, Note_on_c, 1, 39, 127
2, 25600, Note_on_c, 1, 46, 127
2, 25600, Note_on_c, 1, 75, 127
2, 25600, Note_on_c, 1, 79, 127
2, 25960, Note_off_c, 1, 39, 0
2, 25960, Note_off_c, 1, 46, 0
2, 25960, Note_off_c, 1, 75, 0
2, 25960, Note_off_c, 1, 79, 0
2, 26000, Note_on_c, 1, 39, 127
2, 26000, Note_on_c, 1, 46, 127
2, 26000, Note_on_c, 1, 75, 127
2, 26000, Note_on_c, 1, 79, 127
2, 26360, Note_off_c, 1, 39, 0
2, 26360, Note_off_c, 1, 46, 0
2, 26360, Note_off_c, 1, 75, 0
2, 26360, Note_off_c, 1, 79, 0
2, 26400, Note_on_c, 1, 39, 127
2, 26400, Note_on_c, 1, 46, 127
2, 26400, Note_on_c, 1, 75, 127
2, 26400, Note_on_c, 1, 79, 127
2, 26760, Note_off_c, 1, 39, 0
2, 26760, Note_off_c, 1, 46, 0
2, 26760, Note_off_c, 1, 75, 0
2, 26760, Note_off_c, 1, 79, 0
2, 26840, Note_on_c, 1, 39, 127
2, 26840, Note_on_c, 1, 46, 127
2, 26840, Note_on_c, 1, 75, 127
2, 26840, Note_on_c, 1, 79, 127
2, 27200, Note_off_c, 1, 39, 0
2, 27200, Note_off_c, 1, 46, 0
2, 27200, Note_off_c, 1, 75, 0
2, 27200, Note_off_c, 1, 79, 0
2, 27240, Note_on_c, 1, 39, 127
2, 27240, Note_on_c, 1, 46, 127
2, 27240, Note_on_c, 1, 75, 127
2, 27240, Note_on_c, 1, 79, 127
2, 27600, Note_off_c, 1, 39, 0
2, 27600, Note_off_c, 1, 46, 0
2, 27600, Note_off_c, 1, 75, 0
2, 27600, Note_off_c, 1, 79, 0
2, 27640, Note_on_c, 1, 39, 127
2, 27640, Note_on_c, 1, 46, 127
2, 27640, Note_on_c, 1, 75, 127
2, 27640, Note_on_c, 1, 79, 127
2, 28000, Note_off_c, 1, 39, 0
2, 28000, Note_off_c, 1, 46, 0
2, 28000, Note_off_c, 1, 75, 0
2, 28000, Note_off_c, 1, 79, 0
2, 28040, Note_on_c, 1, 39, 127
2, 28040, Note_on_c, 1, 46, 127
2, 28040, Note_on_c, 1, 75, 127
2, 28040, Note_on_c, 1, 79, 127
2, 28400, Note_off_c, 1, 39, 0
2, 28400, Note_off_c, 1, 46, 0
2, 28400, Note_off_c, 1, 75, 0
2, 28400, Note_off_c, 1, 79, 0
2, 28440, Note_on_c, 1, 39, 127
2, 28440, Note_on_c, 1, 46, 127
2, 28440, Note_on_c, 1, 75, 127
2, 28440, Note_on_c, 1, 79, 127
2, 28800, Note_off_c, 1, 39, 0
2, 28800, Note_off_c, 1, 46, 0
2, 28800, Note_off_c, 1, 75, 0
2, 28800, Note_off_c, 1, 79, 0
2, 28880, Note_on_c, 1, 39, 127
2, 28880, Note_on_c, 1, 46, 127
2, 28880, Note_on_c, 1, 75, 127
2, 28880, Note_on_c, 1, 79, 127
2, 29240, Note_off_c, 1, 39, 0
2, 29240, Note_off_c, 1, 46, 0
2, 29240, Note_off_c, 1, 75, 0
2, 29240, Note_off_c, 1, 79, 0
2, 29280, Note_on_c, 1, 39, 127
2, 29280, Note_on_c, 1, 46, 127
2, 29280, Note_on_c, 1, 75, 127
2, 29280, Note_on_c, 1, 79, 127
2, 29640, Note_off_c, 1, 39, 0
2, 29640, Note_off_c, 1, 46, 0
2, 29640, Note_off_c, 1, 75, 0
2, 29640, Note_off_c, 1, 79, 0
2, 29680, Note_on_c, 1, 39, 127
2, 29680, Note_on_c, 1, 46, 127
2, 29680, Note_on_c, 1, 75, 127
2, 29680, Note_on_c, 1, 79, 127
2, 30040, Note_off_c, 1, 39, 0
2, 30040, Note_off_c, 1, 46, 0
2, 30040, Note_off_c, 1, 75, 0
2, 30040, Note_off_c, 1, 79, 0
2, 30080, Note_on_c, 1, 39, 127
2, 30080, Note_on_c, 1, 46, 127
2, 30080, Note_on_c, 1, 75, 127
2, 30080, Note_on_c, 1, 79, 127
2, 30440, Note_off_c, 1, 39, 0
2, 30440, Note_off_c, 1, 46, 0
2, 30440, Note_off_c, 1, 75, 0
2, 30440, Note_off_c, 1, 79, 0
2, 30480, Note_on_c, 1, 39, 127
2, 30480, Note_on_c, 1, 46, 127
2, 30480, Note_on_c, 1, 75, 127
2, 30480, Note_on_c, 1, 79, 127
2, 30840, Note_off_c, 1, 39, 0
2, 30840, Note_off_c, 1, 46, 0
2, 30840, Note_off_c, 1, 75, 0
2, 30840, Note_off_c, 1, 79, 0
2, 30920, Note_on_c, 1, 39, 127
2, 30920, Note_on_c, 1, 46, 127
2, 30920, Note_on_c, 1, 75, 127
2, 30920, Note_on_c, 1, 79, 127
2, 31280, Note_off_c, 1, 39, 0
2, 31280, Note_off_c, 1, 46, 0
2, 31280, Note_off_c, 1, 75, 0
2, 31280, Note_off_c, 1, 79, 0
2, 31320, Note_on_c, 1, 39, 127
2, 31320, Note_on_c, 1, 46, 127
2, 31320, Note_on_c, 1, 75, 127
2, 31320, Note_on_c, 1, 79, 127
2, 31680, Note_off_c, 1, 39, 0
2, 31680, Note_off_c, 1, 46, 0
2, 31680, Note_off_c, 1, 75, 0
2, 31680, Note_off_c, 1, 79, 0
2, 31720, Note_on_c, 1, 44, 127
2, 31720, Note_on_c, 1, 51, 127
2, 31720, Note_on_c, 1, 73, 127
2, 31720, Note_on_c, 1, 78, 127
2, 31880, Note_on_c, 1, 72, 127
2, 31880, Note_off_c, 1, 73, 0
2, 31920, Note_off_c, 1, 72, 0
2, 31920, Note_on_c, 1, 75, 127
2, 31920, Note_off_c, 1, 78, 0
2, 31920, Note_on_c, 1, 87, 127
2, 32080, Note_off_c, 1, 44, 0
2, 32080, Note_off_c, 1, 51, 0
2, 32080, Note_off_c, 1, 75, 0
2, 32080, Note_off_c, 1, 87, 0
2, 32120, Note_on_c, 1, 44, 127
2, 32120, Note_on_c, 1, 75, 127
2, 32280, Note_off_c, 1, 44, 0
2, 32320, Note_on_c, 1, 44, 127
2, 32480, Note_off_c, 1, 44, 0
2, 32520, Note_on_c, 1, 51, 127
2, 32680, Note_off_c, 1, 51, 0
2, 32720, Note_on_c, 1, 55, 127
2, 32880, Note_off_c, 1, 55, 0
2, 32880, Note_off_c, 1, 75, 0
2, 32960, Note_on_c, 1, 36, 127
2, 32960, Note_on_c, 1, 75, 127
2, 33120, Note_off_c, 1, 36, 0
2, 33160, Note_on_c, 1, 48, 127
2, 33320, Note_off_c, 1, 48, 0
2, 33360, Note_on_c, 1, 63, 127
2, 33520, Note_off_c, 1, 63, 0
2, 33560, Note_on_c, 1, 68, 127
2, 33720, Note_off_c, 1, 68, 0
2, 33720, Note_off_c, 1, 75, 0
2, 33760, Note_on_c, 1, 55, 127
2, 33760, Note_on_c, 1, 58, 127
2, 33760, Note_on_c, 1, 62, 127
2, 33760, Note_on_c, 1, 77, 127
2, 34040, Note_off_c, 1, 58, 0
2, 34040, Note_on_c, 1, 61, 127
2, 34040, Note_off_c, 1, 62, 0
2, 34040, Note_on_c, 1, 64, 127
2, 34040, Note_off_c, 1, 77, 0
2, 34080, Note_on_c, 1, 43, 127
2, 34080, Note_on_c, 1, 58, 127
2, 34080, Note_off_c, 1, 61, 0
2, 34080, Note_on_c, 1, 62, 127
2, 34080, Note_off_c, 1, 64, 0
2, 34120, Note_off_c, 1, 43, 0
2, 34120, Note_off_c, 1, 55, 0
2, 34120, Note_off_c, 1, 58, 0
2, 34120, Note_off_c, 1, 62, 0
2, 34160, Note_on_c, 1, 39, 127
2, 34560, Note_off_c, 1, 39, 0
2, 34560, Note_on_c, 1, 50, 127
2, 34560, Note_on_c, 1, 55, 127
2, 34560, Note_on_c, 1, 60, 127
2, 34560, Note_on_c, 1, 63, 127
2, 34600, Note_on_c, 1, 48, 127
2, 34600, Note_off_c, 1, 50, 0
2, 34600, Note_on_c, 1, 51, 127
2, 34600, Note_off_c, 1, 55, 0
2, 34600, Note_on_c, 1, 56, 127
2, 34600, Note_on_c, 1, 75, 127
2, 34960, Note_off_c, 1, 48, 0
2, 34960, Note_off_c, 1, 51, 0
2, 34960, Note_off_c, 1, 56, 0
2, 34960, Note_off_c, 1, 60, 0
2, 34960, Note_off_c, 1, 63, 0
2, 34960, Note_off_c, 1, 75, 0
2, 35000, Note_on_c, 1, 48, 127
2, 35000, Note_on_c, 1, 51, 127
2, 35000, Note_on_c, 1, 56, 127
2, 35000, Note_on_c, 1, 60, 127
2, 35000, Note_on_c, 1, 63, 127
2, 35000, Note_on_c, 1, 75, 127
2, 35360, Note_off_c, 1, 48, 0
2, 35360, Note_off_c, 1, 51, 0
2, 35360, Note_off_c, 1, 56, 0
2, 35360, Note_off_c, 1, 60, 0
2, 35360, Note_off_c, 1, 63, 0
2, 35360, Note_off_c, 1, 75, 0
2, 35400, Note_on_c, 1, 44, 127
2, 35400, Note_on_c, 1, 72, 127
2, 35400, Note_on_c, 1, 75, 127
2, 35400, Note_on_c, 1, 80, 127
2, 36560, Note_off_c, 1, 44, 0
2, 36560, Note_off_c, 1, 72, 0
2, 36560, Note_off_c, 1, 75, 0
2, 36560, Note_off_c, 1, 80, 0
2, 36600, Note_on_c, 1, 44, 127
2, 36600, Note_on_c, 1, 72, 127
2, 36600, Note_on_c, 1, 75, 127
2, 36600, Note_on_c, 1, 80, 127
2, 37120, Note_off_c, 1, 44, 0
2, 37120, Note_off_c, 1, 72, 0
2, 37120, Note_off_c, 1, 75, 0
2, 37120, Note_off_c, 1, 80, 0
2, 37160, Note_on_c, 1, 44, 127
2, 37160, Note_on_c, 1, 72, 127
2, 37160, Note_on_c, 1, 75, 127
2, 37160, Note_on_c, 1, 80, 127
2, 37400, Note_off_c, 1, 44, 0
2, 37400, Note_off_c, 1, 72, 0
2, 37400, Note_off_c, 1, 75, 0
2, 37400, Note_off_c, 1, 80, 0
2, 37440, Note_on_c, 1, 44, 127
2, 37440, Note_on_c, 1, 72, 127
2, 37440, Note_on_c, 1, 75, 127
2, 37440, Note_on_c, 1, 80, 127
2, 38600, Note_off_c, 1, 44, 0
2, 38600, Note_off_c, 1, 72, 0
2, 38600, Note_off_c, 1, 75, 0
2, 38600, Note_off_c, 1, 80, 0
2, 39440, Note_on_c, 1, 57, 127
2, 39440, Note_on_c, 1, 61, 127
2, 39440, Note_on_c, 1, 69, 127
2, 39840, Note_off_c, 1, 57, 0
2, 39840, Note_off_c, 1, 61, 0
2, 39840, Note_off_c, 1, 69, 0
2, 39880, Note_on_c, 1, 57, 127
2, 39880, Note_on_c, 1, 61, 127
2, 39880, Note_on_c, 1, 69, 127
2, 40240, Note_off_c, 1, 57, 0
2, 40240, Note_off_c, 1, 61, 0
2, 40240, Note_off_c, 1, 69, 0
2, 40280, Note_on_c, 1, 51, 127
2, 40280, Note_on_c, 1, 59, 127
2, 40280, Note_on_c, 1, 71, 127
2, 40640, Note_off_c, 1, 51, 0
2, 40640, Note_off_c, 1, 59, 0
2, 40640, Note_off_c, 1, 71, 0
2, 40680, Note_on_c, 1, 54, 127
2, 40680, Note_on_c, 1, 61, 127
2, 40680, Note_on_c, 1, 73, 127
2, 41040, Note_off_c, 1, 54, 0
2, 41040, Note_off_c, 1, 61, 0
2, 41040, Note_off_c, 1, 73, 0
2, 41080, Note_on_c, 1, 40, 127
2, 41080, Note_on_c, 1, 68, 127
2, 41080, Note_on_c, 1, 71, 127
2, 41080, Note_on_c, 1, 76, 127
2, 41440, Note_off_c, 1, 68, 0
2, 41440, Note_off_c, 1, 71, 0
2, 41440, Note_off_c, 1, 76, 0
2, 41720, Note_off_c, 1, 40, 0
2, 41760, Note_on_c, 1, 40, 127
2, 42280, Note_off_c, 1, 40, 0
2, 42320, Note_on_c, 1, 59, 127
2, 42320, Note_on_c, 1, 64, 127
2, 42320, Note_on_c, 1, 68, 127
2, 42320, Note_on_c, 1, 76, 127
2, 42320, Note_on_c, 1, 80, 127
2, 43080, Note_off_c, 1, 59, 0
2, 43080, Note_off_c, 1, 64, 0
2, 43080, Note_off_c, 1, 68, 0
2, 43080, Note_off_c, 1, 76, 0
2, 43080, Note_off_c, 1, 80, 0
2, 43520, Note_on_c, 1, 47, 127
2, 43520, Note_on_c, 1, 59, 127
2, 43880, Note_off_c, 1, 47, 0
2, 43880, Note_off_c, 1, 59, 0
2, 43960, Note_on_c, 1, 52, 127
2, 43960, Note_on_c, 1, 64, 127
2, 44320, Note_off_c, 1, 52, 0
2, 44320, Note_off_c, 1, 64, 0
2, 44360, Note_on_c, 1, 49, 127
2, 44360, Note_on_c, 1, 61, 127
2, 44640, Note_off_c, 1, 49, 0
2, 44640, Note_off_c, 1, 61, 0
2, 44760, Note_on_c, 1, 49, 127
2, 44760, Note_on_c, 1, 61, 127
2, 45080, Note_off_c, 1, 49, 0
2, 45080, Note_off_c, 1, 61, 0
2, 45160, Note_on_c, 1, 47, 127
2, 45160, Note_on_c, 1, 59, 127
2, 45480, Note_off_c, 1, 47, 0
2, 45480, Note_off_c, 1, 59, 0
2, 45560, Note_on_c, 1, 49, 127
2, 45560, Note_on_c, 1, 61, 127
2, 45880, Note_off_c, 1, 49, 0
2, 45880, Note_off_c, 1, 61, 0
2, 45920, Note_on_c, 1, 49, 127
2, 45920, Note_on_c, 1, 61, 127
2, 45960, Note_off_c, 1, 49, 0
2, 45960, Note_off_c, 1, 61, 0
2, 46000, Note_on_c, 1, 47, 127
2, 46000, Note_on_c, 1, 59, 127
2, 46320, Note_off_c, 1, 47, 0
2, 46320, Note_off_c, 1, 59, 0
2, 46400, Note_on_c, 1, 47, 127
2, 46400, Note_on_c, 1, 51, 127
2, 46400, Note_on_c, 1, 54, 127
2, 46400, Note_on_c, 1, 59, 127
2, 46720, Note_on_c, 1, 35, 127
2, 46720, Note_off_c, 1, 47, 0
2, 46720, Note_off_c, 1, 51, 0
2, 46720, Note_off_c, 1, 54, 0
2, 46720, Note_off_c, 1, 59, 0
2, 46760, Note_off_c, 1, 35, 0
2, 46800, Note_on_c, 1, 42, 127
2, 46800, Note_on_c, 1, 54, 127
2, 46800, Note_on_c, 1, 76, 127
2, 46800, Note_on_c, 1, 78, 127
2, 46840, Note_on_c, 1, 30, 127
2, 46840, Note_on_c, 1, 50, 127
2, 46840, Note_off_c, 1, 54, 0
2, 46840, Note_on_c, 1, 58, 127
2, 46840, Note_off_c, 1, 76, 0
2, 46840, Note_off_c, 1, 78, 0
2, 46880, Note_off_c, 1, 30, 0
2, 46880, Note_off_c, 1, 42, 0
2, 46880, Note_on_c, 1, 44, 127
2, 46880, Note_on_c, 1, 48, 127
2, 46880, Note_off_c, 1, 50, 0
2, 46880, Note_on_c, 1, 51, 127
2, 46880, Note_on_c, 1, 54, 127
2, 46880, Note_off_c, 1, 58, 0
2, 46880, Note_on_c, 1, 81, 127
2, 46920, Note_on_c, 1, 42, 127
2, 46920, Note_off_c, 1, 44, 0
2, 46920, Note_off_c, 1, 48, 0
2, 46920, Note_off_c, 1, 51, 0
2, 46920, Note_off_c, 1, 54, 0
2, 46920, Note_on_c, 1, 66, 127
2, 46920, Note_on_c, 1, 67, 127
2, 46920, Note_off_c, 1, 81, 0
2, 46960, Note_off_c, 1, 42, 0
2, 46960, Note_on_c, 1, 44, 127
2, 46960, Note_on_c, 1, 47, 127
2, 46960, Note_on_c, 1, 52, 127
2, 46960, Note_off_c, 1, 66, 0
2, 46960, Note_off_c, 1, 67, 0
2, 47000, Note_on_c, 1, 43, 127
2, 47000, Note_off_c, 1, 44, 0
2, 47000, Note_off_c, 1, 47, 0
2, 47000, Note_on_c, 1, 48, 127
2, 47000, Note_on_c, 1, 80, 127
2, 47120, Note_off_c, 1, 43, 0
2, 47120, Note_off_c, 1, 48, 0
2, 47120, Note_off_c, 1, 52, 0
2, 47120, Note_on_c, 1, 55, 127
2, 47120, Note_on_c, 1, 59, 127
2, 47120, Note_on_c, 1, 62, 127
2, 47120, Note_on_c, 1, 65, 127
2, 47120, Note_on_c, 1, 67, 127
2, 47120, Note_off_c, 1, 80, 0
2, 47120, Note_on_c, 1, 83, 127
2, 47160, Note_off_c, 1, 55, 0
2, 47160, Note_off_c, 1, 59, 0
2, 47160, Note_off_c, 1, 62, 0
2, 47160, Note_off_c, 1, 65, 0
2, 47160, Note_off_c, 1, 67, 0
2, 47160, Note_off_c, 1, 83, 0
2, 47200, Note_on_c, 1, 47, 127
2, 47200, Note_on_c, 1, 51, 127
2, 47200, Note_on_c, 1, 57, 127
2, 47200, Note_on_c, 1, 66, 127
2, 47360, Note_off_c, 1, 66, 0
2, 47400, Note_on_c, 1, 66, 127
2, 47760, Note_off_c, 1, 47, 0
2, 47760, Note_off_c, 1, 51, 0
2, 47760, Note_off_c, 1, 57, 0
2, 47760, Note_off_c, 1, 66, 0
2, 47800, Note_on_c, 1, 47, 127
2, 47800, Note_on_c, 1, 51, 127
2, 47800, Note_on_c, 1, 57, 127
2, 48000, Note_off_c, 1, 47, 0
2, 48000, Note_off_c, 1, 51, 0
2, 48000, Note_off_c, 1, 57, 0
2, 48040, Note_on_c, 1, 42, 127
2, 48040, Note_on_c, 1, 54, 127
2, 48040, Note_on_c, 1, 59, 127
2, 48040, Note_on_c, 1, 68, 127
2, 48400, Note_off_c, 1, 59, 0
2, 48400, Note_off_c, 1, 68, 0
2, 48440, Note_on_c, 1, 58, 127
2, 48440, Note_on_c, 1, 66, 127
2, 48800, Note_off_c, 1, 42, 0
2, 48800, Note_off_c, 1, 54, 0
2, 48800, Note_off_c, 1, 58, 0
2, 48800, Note_off_c, 1, 66, 0
2, 48840, Note_on_c, 1, 42, 127
2, 48840, Note_on_c, 1, 52, 127
2, 48840, Note_on_c, 1, 58, 127
2, 48840, Note_on_c, 1, 61, 127
2, 49200, Note_off_c, 1, 42, 0
2, 49200, Note_off_c, 1, 52, 0
2, 49200, Note_off_c, 1, 58, 0
2, 49200, Note_off_c, 1, 61, 0
2, 49240, Note_on_c, 1, 42, 127
2, 49240, Note_on_c, 1, 52, 127
2, 49240, Note_on_c, 1, 58, 127
2, 49240, Note_on_c, 1, 61, 127
2, 49760, Note_off_c, 1, 42, 0
2, 49760, Note_off_c, 1, 52, 0
2, 49760, Note_off_c, 1, 58, 0
2, 49760, Note_off_c, 1, 61, 0
2, 49800, Note_on_c, 1, 42, 127
2, 49800, Note_on_c, 1, 52, 127
2, 49800, Note_on_c, 1, 58, 127
2, 49800, Note_on_c, 1, 61, 127
2, 50040, Note_off_c, 1, 42, 0
2, 50040, Note_off_c, 1, 52, 0
2, 50040, Note_off_c, 1, 58, 0
2, 50040, Note_off_c, 1, 61, 0
2, 50080, Note_on_c, 1, 44, 127
2, 50080, Note_on_c, 1, 47, 127
2, 50080, Note_on_c, 1, 64, 127
2, 50080, Note_on_c, 1, 76, 127
2, 50440, Note_off_c, 1, 44, 0
2, 50440, Note_off_c, 1, 47, 0
2, 50440, Note_off_c, 1, 64, 0
2, 50440, Note_off_c, 1, 76, 0
2, 50480, Note_on_c, 1, 44, 127
2, 50480, Note_on_c, 1, 47, 127
2, 50480, Note_on_c, 1, 68, 127
2, 50480, Note_on_c, 1, 80, 127
2, 50600, Note_off_c, 1, 68, 0
2, 50600, Note_off_c, 1, 80, 0
2, 50680, Note_on_c, 1, 71, 127
2, 50760, Note_off_c, 1, 71, 0
2, 50760, Note_on_c, 1, 80, 127
2, 50800, Note_off_c, 1, 80, 0
2, 50840, Note_off_c, 1, 44, 0
2, 50840, Note_off_c, 1, 47, 0
2, 50880, Note_on_c, 1, 44, 127
2, 50880, Note_on_c, 1, 47, 127
2, 50880, Note_on_c, 1, 71, 127
2, 51040, Note_off_c, 1, 71, 0
2, 51080, Note_on_c, 1, 71, 127
2, 51240, Note_off_c, 1, 44, 0
2, 51240, Note_off_c, 1, 47, 0
2, 51240, Note_off_c, 1, 71, 0
2, 51280, Note_on_c, 1, 44, 127
2, 51280, Note_on_c, 1, 47, 127
2, 51280, Note_on_c, 1, 71, 127
2, 51440, Note_off_c, 1, 71, 0
2, 51480, Note_on_c, 1, 71, 127
2, 51560, Note_off_c, 1, 71, 0
2, 51560, Note_on_c, 1, 80, 127
2, 51600, Note_on_c, 1, 71, 127
2, 51600, Note_off_c, 1, 80, 0
2, 51640, Note_off_c, 1, 71, 0
2, 51680, Note_on_c, 1, 71, 127
2, 51760, Note_off_c, 1, 71, 0
2, 51760, Note_on_c, 1, 76, 127
2, 51800, Note_off_c, 1, 44, 0
2, 51800, Note_off_c, 1, 47, 0
2, 51800, Note_off_c, 1, 76, 0
2, 51840, Note_on_c, 1, 44, 127
2, 51840, Note_on_c, 1, 47, 127
2, 51840, Note_on_c, 1, 76, 127
2, 51880, Note_off_c, 1, 76, 0
2, 51920, Note_on_c, 1, 71, 127
2, 52040, Note_off_c, 1, 71, 0
2, 52040, Note_on_c, 1, 80, 127
2, 52080, Note_off_c, 1, 44, 0
2, 52080, Note_off_c, 1, 47, 0
2, 52080, Note_off_c, 1, 80, 0
2, 52120, Note_on_c, 1, 44, 127
2, 52120, Note_on_c, 1, 47, 127
2, 52120, Note_on_c, 1, 71, 127
2, 52280, Note_off_c, 1, 71, 0
2, 52320, Note_on_c, 1, 76, 127
2, 52480, Note_off_c, 1, 44, 0
2, 52480, Note_off_c, 1, 47, 0
2, 52480, Note_off_c, 1, 76, 0
2, 52520, Note_on_c, 1, 44, 127
2, 52520, Note_on_c, 1, 47, 127
2, 52520, Note_on_c, 1, 83, 127
2, 52680, Note_off_c, 1, 83, 0
2, 52720, Note_on_c, 1, 83, 127
2, 52880, Note_off_c, 1, 44, 0
2, 52880, Note_off_c, 1, 47, 0
2, 52880, Note_off_c, 1, 83, 0
2, 52920, Note_on_c, 1, 44, 127
2, 52920, Note_on_c, 1, 47, 127
2, 52920, Note_on_c, 1, 83, 127
2, 53080, Note_off_c, 1, 83, 0
2, 53120, Note_on_c, 1, 80, 127
2, 53280, Note_off_c, 1, 44, 0
2, 53280, Note_off_c, 1, 47, 0
2, 53280, Note_off_c, 1, 80, 0
2, 53320, Note_on_c, 1, 44, 127
2, 53320, Note_on_c, 1, 47, 127
2, 53320, Note_on_c, 1, 80, 127
2, 53720, Note_off_c, 1, 44, 0
2, 53720, Note_off_c, 1, 47, 0
2, 53720, Note_off_c, 1, 80, 0
2, 53760, Note_on_c, 1, 44, 127
2, 53760, Note_on_c, 1, 47, 127
2, 53760, Note_on_c, 1, 71, 127
2, 53880, Note_off_c, 1, 44, 0
2, 53880, Note_off_c, 1, 47, 0
2, 53880, Note_off_c, 1, 71, 0
2, 53920, Note_on_c, 1, 44, 127
2, 53920, Note_on_c, 1, 47, 127
2, 53920, Note_on_c, 1, 76, 127
2, 53960, Note_on_c, 1, 71, 127
2, 53960, Note_off_c, 1, 76, 0
2, 54000, Note_off_c, 1, 71, 0
2, 54000, Note_on_c, 1, 76, 127
2, 54120, Note_off_c, 1, 76, 0
2, 54120, Note_on_c, 1, 80, 127
2, 54160, Note_off_c, 1, 44, 0
2, 54160, Note_off_c, 1, 47, 0
2, 54160, Note_off_c, 1, 80, 0
2, 54200, Note_on_c, 1, 40, 127
2, 54200, Note_on_c, 1, 52, 127
2, 54200, Note_on_c, 1, 55, 127
2, 54200, Note_on_c, 1, 61, 127
2, 54200, Note_on_c, 1, 67, 127
2, 54200, Note_on_c, 1, 73, 127
2, 54560, Note_off_c, 1, 40, 0
2, 54560, Note_off_c, 1, 52, 0
2, 54560, Note_off_c, 1, 55, 0
2, 54560, Note_off_c, 1, 61, 0
2, 54560, Note_off_c, 1, 67, 0
2, 54560, Note_off_c, 1, 73, 0
2, 54600, Note_on_c, 1, 36, 127
2, 54600, Note_on_c, 1, 48, 127
2, 54600, Note_on_c, 1, 70, 127
2, 54600, Note_on_c, 1, 76, 127
2, 54960, Note_off_c, 1, 36, 0
2, 54960, Note_off_c, 1, 48, 0
2, 54960, Note_off_c, 1, 70, 0
2, 54960, Note_off_c, 1, 76, 0
2, 55000, Note_on_c, 1, 38, 127
2, 55000, Note_on_c, 1, 46, 127
2, 55000, Note_on_c, 1, 62, 127
2, 55000, Note_on_c, 1, 66, 127
2, 55360, Note_off_c, 1, 38, 0
2, 55360, Note_off_c, 1, 46, 0
2, 55360, Note_off_c, 1, 62, 0
2, 55360, Note_off_c, 1, 66, 0
2, 55400, Note_on_c, 1, 44, 127
2, 55400, Note_on_c, 1, 50, 127
2, 55400, Note_on_c, 1, 61, 127
2, 55400, Note_on_c, 1, 65, 127
2, 55400, Note_on_c, 1, 73, 127
2, 55760, Note_on_c, 1, 49, 127
2, 55760, Note_off_c, 1, 50, 0
2, 56120, Note_off_c, 1, 44, 0
2, 56120, Note_off_c, 1, 49, 0
2, 56120, Note_off_c, 1, 61, 0
2, 56120, Note_off_c, 1, 65, 0
2, 56120, Note_off_c, 1, 73, 0
2, 56160, Note_on_c, 1, 44, 127
2, 56160, Note_on_c, 1, 49, 127
2, 56160, Note_on_c, 1, 61, 127
2, 56160, Note_on_c, 1, 65, 127
2, 56160, Note_on_c, 1, 73, 127
2, 56200, Note_off_c, 1, 44, 0
2, 56200, Note_off_c, 1, 49, 0
2, 56200, Note_off_c, 1, 61, 0
2, 56200, Note_off_c, 1, 65, 0
2, 56200, Note_off_c, 1, 73, 0
2, 56240, Note_on_c, 1, 44, 127
2, 56240, Note_on_c, 1, 50, 127
2, 56240, Note_on_c, 1, 61, 127
2, 56240, Note_on_c, 1, 65, 127
2, 56240, Note_on_c, 1, 73, 127
2, 56600, Note_on_c, 1, 49, 127
2, 56600, Note_off_c, 1, 50, 0
2, 57440, Note_off_c, 1, 49, 0
2, 57440, Note_on_c, 1, 50, 127
2, 57640, Note_on_c, 1, 49, 127
2, 57640, Note_off_c, 1, 50, 0
2, 57840, Note_off_c, 1, 49, 0
2, 57840, Note_on_c, 1, 50, 127
2, 58160, Note_on_c, 1, 49, 127
2, 58160, Note_off_c, 1, 50, 0
2, 58240, Note_off_c, 1, 44, 0
2, 58240, Note_off_c, 1, 49, 0
2, 58240, Note_off_c, 1, 61, 0
2, 58240, Note_off_c, 1, 65, 0
2, 58240, Note_off_c, 1, 73, 0
2, 58280, Note_on_c, 1, 44, 127
2, 58280, Note_on_c, 1, 49, 127
2, 58280, Note_on_c, 1, 61, 127
2, 58280, Note_on_c, 1, 65, 127
2, 58280, Note_on_c, 1, 73, 127
2, 60240, Note_off_c, 1, 44, 0
2, 60240, Note_off_c, 1, 49, 0
2, 60240, Note_off_c, 1, 61, 0
2, 60240, Note_off_c, 1, 65, 0
2, 60240, Note_off_c, 1, 73, 0
2, 60280, Note_on_c, 1, 44, 127
2, 60280, Note_on_c, 1, 49, 127
2, 60280, Note_on_c, 1, 61, 127
2, 60280, Note_on_c, 1, 65, 127
2, 60280, Note_on_c, 1, 73, 127
2, 60680, Note_on_c, 1, 33, 127
2, 60680, Note_off_c, 1, 44, 0
2, 60680, Note_off_c, 1, 61, 0
2, 60680, Note_off_c, 1, 65, 0
2, 60680, Note_off_c, 1, 73, 0
2, 60720, Note_off_c, 1, 33, 0
2, 60720, Note_on_c, 1, 44, 127
2, 60720, Note_off_c, 1, 49, 0
2, 60720, Note_on_c, 1, 50, 127
2, 60720, Note_on_c, 1, 61, 127
2, 60720, Note_on_c, 1, 65, 127
2, 60720, Note_on_c, 1, 73, 127
2, 61040, Note_on_c, 1, 49, 127
2, 61040, Note_off_c, 1, 50, 0
2, 62200, Note_off_c, 1, 44, 0
2, 62200, Note_off_c, 1, 49, 0
2, 62200, Note_off_c, 1, 61, 0
2, 62200, Note_off_c, 1, 65, 0
2, 62200, Note_off_c, 1, 73, 0
2, 62240, Note_on_c, 1, 44, 127
2, 62240, Note_on_c, 1, 49, 127
2, 62240, Note_on_c, 1, 61, 127
2, 62240, Note_on_c, 1, 65, 127
2, 62240, Note_on_c, 1, 73, 127
2, 62360, Note_off_c, 1, 49, 0
2, 62360, Note_on_c, 1, 50, 127
2, 62480, Note_on_c, 1, 49, 127
2, 62480, Note_off_c, 1, 50, 0
2, 63080, Note_off_c, 1, 44, 0
2, 63080, Note_off_c, 1, 49, 0
2, 63080, Note_off_c, 1, 61, 0
2, 63080, Note_off_c, 1, 65, 0
2, 63080, Note_off_c, 1, 73, 0
2, 63120, Note_on_c, 1, 44, 127
2, 63120, Note_on_c, 1, 50, 127
2, 63120, Note_on_c, 1, 61, 127
2, 63120, Note_on_c, 1, 65, 127
2, 63120, Note_on_c, 1, 73, 127
2, 63520, Note_on_c, 1, 49, 127
2, 63520, Note_off_c, 1, 50, 0
2, 64280, Note_off_c, 1, 44, 0
2, 64280, Note_off_c, 1, 49, 0
2, 64280, Note_off_c, 1, 61, 0
2, 64280, Note_off_c, 1, 65, 0
2, 64280, Note_off_c, 1, 73, 0
2, 64320, Note_on_c, 1, 44, 127
2, 64320, Note_on_c, 1, 49, 127
2, 64320, Note_on_c, 1, 61, 127
2, 64320, Note_on_c, 1, 65, 127
2, 64320, Note_on_c, 1, 73, 127
2, 64680, Note_off_c, 1, 49, 0
2, 64680, Note_on_c, 1, 50, 127
2, 65040, Note_on_c, 1, 49, 127
2, 65040, Note_off_c, 1, 50, 0
2, 65440, Note_off_c, 1, 49, 0
2, 65440, Note_on_c, 1, 50, 127
2, 65840, Note_on_c, 1, 49, 127
2, 65840, Note_off_c, 1, 50, 0
2, 66200, Note_off_c, 1, 44, 0
2, 66200, Note_off_c, 1, 49, 0
2, 66200, Note_off_c, 1, 61, 0
2, 66200, Note_off_c, 1, 65, 0
2, 66200, Note_off_c, 1, 73, 0
2, 66240, Note_on_c, 1, 44, 127
2, 66240, Note_on_c, 1, 49, 127
2, 66240, Note_on_c, 1, 61, 127
2, 66240, Note_on_c, 1, 65, 127
2, 66240, Note_on_c, 1, 73, 127
2, 67440, Note_off_c, 1, 49, 0
2, 67440, Note_on_c, 1, 50, 127
2, 68400, Note_on_c, 1, 49, 127
2, 68400, Note_off_c, 1, 50, 0
2, 68560, Note_off_c, 1, 44, 0
2, 68560, Note_off_c, 1, 49, 0
2, 68560, Note_off_c, 1, 61, 0
2, 68560, Note_off_c, 1, 65, 0
2, 68560, Note_off_c, 1, 73, 0
2, 68600, Note_on_c, 1, 44, 127
2, 68600, Note_on_c, 1, 49, 127
2, 68600, Note_on_c, 1, 61, 127
2, 68600, Note_on_c, 1, 65, 127
2, 68600, Note_on_c, 1, 73, 127
2, 70200, Note_off_c, 1, 44, 0
2, 70200, Note_off_c, 1, 49, 0
2, 70200, Note_off_c, 1, 61, 0
2, 70200, Note_off_c, 1, 65, 0
2, 70200, Note_off_c, 1, 73, 0
2, 70240, Note_on_c, 1, 49, 127
2, 70240, Note_on_c, 1, 55, 127
2, 70240, Note_on_c, 1, 64, 127
2, 70240, Note_on_c, 1, 70, 127
2, 71720, Note_off_c, 1, 49, 0
2, 71720, Note_off_c, 1, 55, 0
2, 71720, Note_off_c, 1, 64, 0
2, 71720, Note_off_c, 1, 70, 0
2, 71760, Note_on_c, 1, 49, 127
2, 71760, Note_on_c, 1, 55, 127
2, 71760, Note_on_c, 1, 64, 127
2, 71760, Note_on_c, 1, 70, 127
2, 73440, Note_off_c, 1, 49, 0
2, 73440, Note_off_c, 1, 55, 0
2, 73440, Note_off_c, 1, 64, 0
2, 73440, Note_off_c, 1, 70, 0
2, 73480, Note_on_c, 1, 49, 127
2, 73480, Note_on_c, 1, 55, 127
2, 73480, Note_on_c, 1, 64, 127
2, 73480, Note_on_c, 1, 70, 127
2, 74320, Note_off_c, 1, 49, 0
2, 74320, Note_off_c, 1, 55, 0
2, 74320, Note_off_c, 1, 64, 0
2, 74320, Note_off_c, 1, 70, 0
2, 74360, Note_on_c, 1, 49, 127
2, 74360, Note_on_c, 1, 55, 127
2, 74360, Note_on_c, 1, 64, 127
2, 74360, Note_on_c, 1, 70, 127
2, 74720, Note_off_c, 1, 49, 0
2, 74720, Note_on_c, 1, 58, 127
2, 74720, Note_on_c, 1, 62, 127
2, 74720, Note_off_c, 1, 64, 0
2, 74720, Note_on_c, 1, 67, 127
2, 75920, Note_off_c, 1, 55, 0
2, 75920, Note_off_c, 1, 58, 0
2, 75920, Note_off_c, 1, 62, 0
2, 75920, Note_off_c, 1, 67, 0
2, 75920, Note_off_c, 1, 70, 0
2, 75960, Note_on_c, 1, 55, 127
2, 76560, Note_off_c, 1, 55, 0
2, 76600, Note_on_c, 1, 55, 127
2, 78000, Note_off_c, 1, 55, 0
2, 78000, Note_on_c, 1, 56, 127
2, 78200, Note_off_c, 1, 56, 0
2, 78240, Note_on_c, 1, 55, 127
2, 78400, Note_off_c, 1, 55, 0
2, 78440, Note_on_c, 1, 64, 127
2, 78440, Note_on_c, 1, 71, 127
2, 78440, Note_on_c, 1, 83, 127
2, 78440, Note_on_c, 1, 90, 127
2, 78480, Note_on_c, 1, 56, 127
2, 78480, Note_off_c, 1, 64, 0
2, 78480, Note_on_c, 1, 68, 127
2, 78480, Note_off_c, 1, 71, 0
2, 78480, Note_on_c, 1, 77, 127
2, 78480, Note_on_c, 1, 89, 127
2, 78480, Note_off_c, 1, 90, 0
2, 78520, Note_on_c, 1, 31, 127
2, 78520, Note_on_c, 1, 39, 127
2, 78520, Note_on_c, 1, 43, 127
2, 78520, Note_off_c, 1, 56, 0
2, 78520, Note_on_c, 1, 58, 127
2, 78520, Note_on_c, 1, 63, 127
2, 78520, Note_off_c, 1, 68, 0
2, 78520, Note_on_c, 1, 70, 127
2, 78520, Note_off_c, 1, 77, 0
2, 78520, Note_off_c, 1, 83, 0
2, 78520, Note_off_c, 1, 89, 0
2, 78560, Note_off_c, 1, 31, 0
2, 78560, Note_off_c, 1, 39, 0
2, 78560, Note_off_c, 1, 43, 0
2, 78560, Note_on_c, 1, 51, 127
2, 78560, Note_on_c, 1, 54, 127
2, 78560, Note_on_c, 1, 57, 127
2, 78560, Note_off_c, 1, 58, 0
2, 78560, Note_on_c, 1, 59, 127
2, 78560, Note_off_c, 1, 63, 0
2, 78560, Note_off_c, 1, 70, 0
2, 78560, Note_on_c, 1, 85, 127
2, 78600, Note_on_c, 1, 49, 127
2, 78600, Note_off_c, 1, 51, 0
2, 78600, Note_on_c, 1, 53, 127
2, 78600, Note_off_c, 1, 54, 0
2, 78600, Note_off_c, 1, 57, 0
2, 78600, Note_on_c, 1, 68, 127
2, 78600, Note_on_c, 1, 73, 127
2, 78600, Note_off_c, 1, 85, 0
2, 78640, Note_off_c, 1, 49, 0
2, 78640, Note_off_c, 1, 53, 0
2, 78640, Note_off_c, 1, 59, 0
2, 78640, Note_on_c, 1, 63, 127
2, 78640, Note_on_c, 1, 65, 127
2, 78640, Note_off_c, 1, 68, 0
2, 78640, Note_on_c, 1, 69, 127
2, 78640, Note_off_c, 1, 73, 0
2, 78640, Note_on_c, 1, 87, 127
2, 78680, Note_off_c, 1, 63, 0
2, 78680, Note_on_c, 1, 64, 127
2, 78680, Note_off_c, 1, 65, 0
2, 78680, Note_off_c, 1, 69, 0
2, 78680, Note_on_c, 1, 70, 127
2, 78680, Note_on_c, 1, 73, 127
2, 78680, Note_on_c, 1, 82, 127
2, 78680, Note_off_c, 1, 87, 0
2, 78680, Note_on_c, 1, 90, 127
2, 78680, Note_on_c, 1, 94, 127
2, 78720, Note_off_c, 1, 64, 0
2, 78720, Note_off_c, 1, 70, 0
2, 78720, Note_off_c, 1, 73, 0
2, 78720, Note_off_c, 1, 82, 0
2, 78720, Note_off_c, 1, 90, 0
2, 78720, Note_off_c, 1, 94, 0
2, 78760, Note_on_c, 1, 37, 127
2, 78760, Note_on_c, 1, 63, 127
2, 78760, Note_on_c, 1, 66, 127
2, 78760, Note_on_c, 1, 70, 127
2, 78800, Note_off_c, 1, 37, 0
2, 78800, Note_off_c, 1, 63, 0
2, 78800, Note_on_c, 1, 64, 127
2, 78800, Note_off_c, 1, 66, 0
2, 78800, Note_on_c, 1, 73, 127
2, 78800, Note_on_c, 1, 82, 127
2, 78800, Note_on_c, 1, 90, 127
2, 78800, Note_on_c, 1, 94, 127
2, 78840, Note_on_c, 1, 34, 127
2, 78840, Note_off_c, 1, 64, 0
2, 78840, Note_on_c, 1, 65, 127
2, 78840, Note_off_c, 1, 70, 0
2, 78840, Note_off_c, 1, 82, 0
2, 78840, Note_off_c, 1, 90, 0
2, 78840, Note_off_c, 1, 94, 0
2, 78880, Note_off_c, 1, 34, 0
2, 78880, Note_on_c, 1, 64, 127
2, 78880, Note_off_c, 1, 65, 0
2, 78880, Note_on_c, 1, 70, 127
2, 78880, Note_on_c, 1, 82, 127
2, 78880, Note_on_c, 1, 90, 127
2, 78880, Note_on_c, 1, 94, 127
2, 79240, Note_off_c, 1, 64, 0
2, 79240, Note_off_c, 1, 70, 0
2, 79240, Note_off_c, 1, 73, 0
2, 79240, Note_off_c, 1, 82, 0
2, 79240, Note_off_c, 1, 90, 0
2, 79240, Note_off_c, 1, 94, 0
2, 79280, Note_on_c, 1, 54, 127
2, 79280, Note_on_c, 1, 66, 127
2, 79280, Note_on_c, 1, 73, 127
2, 79280, Note_on_c, 1, 83, 127
2, 79400, Note_off_c, 1, 83, 0
2, 79440, Note_on_c, 1, 85, 127
2, 80440, Note_off_c, 1, 54, 0
2, 80440, Note_off_c, 1, 66, 0
2, 80440, Note_off_c, 1, 73, 0
2, 80440, Note_off_c, 1, 85, 0
2, 80480, Note_on_c, 1, 48, 127
2, 80480, Note_on_c, 1, 60, 127
2, 80480, Note_on_c, 1, 79, 127
2, 80480, Note_on_c, 1, 82, 127
2, 80480, Note_on_c, 1, 88, 127
2, 80480, Note_on_c, 1, 91, 127
2, 80720, Note_off_c, 1, 48, 0
2, 80840, Note_off_c, 1, 60, 0
2, 80880, Note_off_c, 1, 79, 0
2, 80880, Note_off_c, 1, 82, 0
2, 80880, Note_off_c, 1, 88, 0
2, 80880, Note_off_c, 1, 91, 0
2, 80920, Note_on_c, 1, 55, 127
2, 80920, Note_on_c, 1, 79, 127
2, 80920, Note_on_c, 1, 82, 127
2, 80920, Note_on_c, 1, 88, 127
2, 80920, Note_on_c, 1, 91, 127
2, 81080, Note_off_c, 1, 55, 0
2, 81120, Note_on_c, 1, 55, 127
2, 81240, Note_off_c, 1, 55, 0
2, 81320, Note_on_c, 1, 40, 127
2, 81480, Note_off_c, 1, 40, 0
2, 81720, Note_on_c, 1, 52, 127
2, 81840, Note_off_c, 1, 52, 0
2, 82120, Note_on_c, 1, 55, 127
2, 82240, Note_off_c, 1, 55, 0
2, 82520, Note_on_c, 1, 52, 127
2, 82680, Note_off_c, 1, 52, 0
2, 82920, Note_on_c, 1, 55, 127
2, 83000, Note_off_c, 1, 55, 0
2, 83240, Note_off_c, 1, 79, 0
2, 83240, Note_off_c, 1, 82, 0
2, 83240, Note_off_c, 1, 88, 0
2, 83240, Note_off_c, 1, 91, 0
2, 83280, Note_on_c, 1, 79, 127
2, 83280, Note_on_c, 1, 82, 127
2, 83280, Note_on_c, 1, 88, 127
2, 83280, Note_on_c, 1, 91, 127
2, 83760, Note_off_c, 1, 79, 0
2, 83760, Note_off_c, 1, 82, 0
2, 83760, Note_off_c, 1, 88, 0
2, 83760, Note_off_c, 1, 91, 0
2, 83800, Note_on_c, 1, 67, 127
2, 83800, Note_on_c, 1, 79, 127
2, 83800, Note_on_c, 1, 80, 127
2, 83840, Note_on_c, 1, 75, 127
2, 83840, Note_off_c, 1, 79, 0
2, 83840, Note_off_c, 1, 80, 0
2, 83920, Note_off_c, 1, 75, 0
2, 84000, Note_on_c, 1, 77, 127
2, 84040, Note_off_c, 1, 77, 0
2, 84080, Note_on_c, 1, 76, 127
2, 84120, Note_off_c, 1, 76, 0
2, 84160, Note_off_c, 1, 67, 0
2, 84160, Note_on_c, 1, 72, 127
2, 84200, Note_on_c, 1, 67, 127
2, 84200, Note_on_c, 1, 71, 127
2, 84200, Note_off_c, 1, 72, 0
2, 84200, Note_on_c, 1, 75, 127
2, 84280, Note_off_c, 1, 71, 0
2, 84360, Note_off_c, 1, 75, 0
2, 84400, Note_on_c, 1, 74, 127
2, 84640, Note_on_c, 1, 79, 127
2, 84640, Note_on_c, 1, 82, 127
2, 84760, Note_off_c, 1, 82, 0
2, 85000, Note_off_c, 1, 74, 0
2, 85000, Note_off_c, 1, 79, 0
2, 85040, Note_on_c, 1, 72, 127
2, 85200, Note_off_c, 1, 72, 0
2, 85240, Note_on_c, 1, 72, 127
2, 85400, Note_off_c, 1, 67, 0
2, 85400, Note_off_c, 1, 72, 0
2, 85440, Note_on_c, 1, 67, 127
2, 85440, Note_on_c, 1, 72, 127
2, 85680, Note_on_c, 1, 52, 127
2, 85840, Note_off_c, 1, 52, 0
2, 86040, Note_off_c, 1, 72, 0
2, 86080, Note_on_c, 1, 72, 127
2, 86240, Note_off_c, 1, 72, 0
2, 86280, Note_on_c, 1, 72, 127
2, 86440, Note_off_c, 1, 72, 0
2, 86480, Note_on_c, 1, 72, 127
2, 86680, Note_off_c, 1, 72, 0
2, 86720, Note_on_c, 1, 72, 127
2, 86840, Note_off_c, 1, 72, 0
2, 86880, Note_on_c, 1, 72, 127
2, 87080, Note_off_c, 1, 72, 0
2, 87120, Note_on_c, 1, 60, 127
2, 87280, Note_off_c, 1, 60, 0
2, 87480, Note_off_c, 1, 67, 0
2, 87520, Note_on_c, 1, 67, 127
2, 88760, Note_off_c, 1, 67, 0
2, 88760, Note_on_c, 1, 70, 127
2, 88920, Note_off_c, 1, 70, 0
2, 88960, Note_on_c, 1, 76, 127
2, 89560, Note_off_c, 1, 76, 0
2, 89600, Note_on_c, 1, 76, 127
2, 89760, Note_off_c, 1, 76, 0
2, 89840, Note_on_c, 1, 69, 127
2, 89840, Note_on_c, 1, 72, 127
2, 90600, Note_off_c, 1, 69, 0
2, 90600, Note_off_c, 1, 72, 0
2, 90640, Note_on_c, 1, 67, 127
2, 90640, Note_on_c, 1, 82, 127
2, 91000, Note_off_c, 1, 67, 0
2, 91000, Note_off_c, 1, 82, 0
2, 91040, Note_on_c, 1, 67, 127
2, 91040, Note_on_c, 1, 74, 127
2, 91400, Note_off_c, 1, 67, 0
2, 91440, Note_off_c, 1, 74, 0
2, 91480, Note_on_c, 1, 67, 127
2, 91480, Note_on_c, 1, 74, 127
2, 91840, Note_off_c, 1, 67, 0
2, 91840, Note_off_c, 1, 74, 0
2, 91880, Note_on_c, 1, 48, 127
2, 91880, Note_on_c, 1, 76, 127
2, 92240, Note_off_c, 1, 48, 0
2, 92280, Note_on_c, 1, 67, 127
2, 92640, Note_off_c, 1, 76, 0
2, 92680, Note_on_c, 1, 72, 127
2, 93040, Note_off_c, 1, 67, 0
2, 93040, Note_off_c, 1, 72, 0
2, 93080, Note_on_c, 1, 76, 127
2, 93440, Note_off_c, 1, 76, 0
2, 93480, Note_on_c, 1, 86, 127
2, 93560, Note_off_c, 1, 86, 0
2, 93600, Note_on_c, 1, 86, 127
2, 93880, Note_off_c, 1, 86, 0
2, 93920, Note_on_c, 1, 84, 127
2, 94320, Note_on_c, 1, 67, 127
2, 94680, Note_off_c, 1, 67, 0
2, 94680, Note_off_c, 1, 84, 0
2, 94720, Note_on_c, 1, 63, 127
2, 94720, Note_on_c, 1, 72, 127
2, 95080, Note_off_c, 1, 63, 0
2, 95080, Note_off_c, 1, 72, 0
2, 95120, Note_on_c, 1, 84, 127
2, 95480, Note_off_c, 1, 84, 0
2, 95560, Note_on_c, 1, 67, 127
2, 95560, Note_on_c, 1, 76, 127
2, 95920, Note_off_c, 1, 67, 0
2, 95920, Note_off_c, 1, 76, 0
2, 95960, Note_on_c, 1, 82, 127
2, 96320, Note_off_c, 1, 82, 0
2, 96360, Note_on_c, 1, 68, 127
2, 96360, Note_on_c, 1, 84, 127
2, 96520, Note_off_c, 1, 84, 0
2, 96560, Note_on_c, 1, 82, 127
2, 96600, Note_off_c, 1, 82, 0
2, 96720, Note_off_c, 1, 68, 0
2, 96760, Note_on_c, 1, 75, 127
2, 96760, Note_on_c, 1, 78, 127
2, 96760, Note_on_c, 1, 83, 127
2, 97120, Note_off_c, 1, 75, 0
2, 97120, Note_off_c, 1, 78, 0
2, 97120, Note_off_c, 1, 83, 0
2, 97160, Note_on_c, 1, 71, 127
2, 97160, Note_on_c, 1, 80, 127
2, 97160, Note_on_c, 1, 86, 127
2, 97160, Note_on_c, 1, 89, 127
2, 97320, Note_off_c, 1, 71, 0
2, 97320, Note_off_c, 1, 80, 0
2, 97320, Note_off_c, 1, 86, 0
2, 97320, Note_off_c, 1, 89, 0
2, 97360, Note_on_c, 1, 71, 127
2, 97360, Note_on_c, 1, 80, 127
2, 97360, Note_on_c, 1, 86, 127
2, 97360, Note_on_c, 1, 89, 127
2, 97560, Note_off_c, 1, 71, 0
2, 97560, Note_off_c, 1, 80, 0
2, 97560, Note_off_c, 1, 86, 0
2, 97560, Note_off_c, 1, 89, 0
2, 97600, Note_on_c, 1, 71, 127
2, 97600, Note_on_c, 1, 80, 127
2, 97600, Note_on_c, 1, 87, 127
2, 97680, Note_on_c, 1, 68, 127
2, 97680, Note_off_c, 1, 71, 0
2, 97680, Note_on_c, 1, 75, 127
2, 97680, Note_on_c, 1, 83, 127
2, 97680, Note_off_c, 1, 87, 0
2, 97760, Note_on_c, 1, 59, 127
2, 97760, Note_off_c, 1, 75, 0
2, 97760, Note_off_c, 1, 80, 0
2, 97760, Note_on_c, 1, 87, 127
2, 97800, Note_off_c, 1, 59, 0
2, 97800, Note_on_c, 1, 75, 127
2, 97800, Note_on_c, 1, 80, 127
2, 97800, Note_off_c, 1, 87, 0
2, 97960, Note_off_c, 1, 80, 0
2, 97960, Note_off_c, 1, 83, 0
2, 98000, Note_on_c, 1, 80, 127
2, 98400, Note_off_c, 1, 68, 0
2, 98400, Note_off_c, 1, 75, 0
2, 98440, Note_on_c, 1, 67, 127
2, 98440, Note_on_c, 1, 75, 127
2, 98640, Note_off_c, 1, 67, 0
2, 98640, Note_on_c, 1, 68, 127
2, 99120, Note_on_c, 1, 56, 127
2, 99120, Note_off_c, 1, 68, 0
2, 99120, Note_off_c, 1, 80, 0
2, 99120, Note_on_c, 1, 83, 127
2, 99160, Note_off_c, 1, 56, 0
2, 99160, Note_on_c, 1, 68, 127
2, 99160, Note_on_c, 1, 80, 127
2, 99160, Note_off_c, 1, 83, 0
2, 99200, Note_off_c, 1, 75, 0
2, 99200, Note_off_c, 1, 80, 0
2, 99240, Note_off_c, 1, 68, 0
2, 99280, Note_on_c, 1, 63, 127
2, 99280, Note_on_c, 1, 75, 127
2, 99280, Note_on_c, 1, 80, 127
2, 99280, Note_on_c, 1, 87, 127
2, 99640, Note_off_c, 1, 63, 0
2, 99680, Note_on_c, 1, 63, 127
2, 100040, Note_off_c, 1, 63, 0
2, 100080, Note_on_c, 1, 64, 127
2, 100440, Note_off_c, 1, 64, 0
2, 100480, Note_on_c, 1, 63, 127
2, 100840, Note_off_c, 1, 63, 0
2, 100840, Note_off_c, 1, 75, 0
2, 100840, Note_off_c, 1, 80, 0
2, 100840, Note_off_c, 1, 87, 0
2, 100880, Note_on_c, 1, 44, 127
2, 100880, Note_on_c, 1, 51, 127
2, 101520, Note_off_c, 1, 44, 0
2, 101520, Note_off_c, 1, 51, 0
2, 101560, Note_on_c, 1, 44, 127
2, 101560, Note_on_c, 1, 51, 127
2, 102520, Note_off_c, 1, 44, 0
2, 102520, Note_off_c, 1, 51, 0
2, 102560, Note_on_c, 1, 44, 127
2, 102560, Note_on_c, 1, 51, 127
2, 103680, Note_off_c, 1, 44, 0
2, 103680, Note_off_c, 1, 51, 0
2, 103720, Note_on_c, 1, 44, 127
2, 103720, Note_on_c, 1, 51, 127
2, 104560, Note_off_c, 1, 44, 0
2, 104560, Note_off_c, 1, 51, 0
2, 104600, Note_on_c, 1, 69, 127
2, 104600, Note_on_c, 1, 72, 127
2, 104600, Note_on_c, 1, 75, 127
2, 104600, Note_on_c, 1, 77, 127
2, 104600, Note_on_c, 1, 84, 127
2, 104640, Note_on_c, 1, 66, 127
2, 104640, Note_off_c, 1, 69, 0
2, 104640, Note_off_c, 1, 72, 0
2, 104640, Note_on_c, 1, 73, 127
2, 104640, Note_off_c, 1, 75, 0
2, 104640, Note_off_c, 1, 77, 0
2, 104640, Note_on_c, 1, 78, 127
2, 104640, Note_on_c, 1, 82, 127
2, 104640, Note_off_c, 1, 84, 0
2, 104640, Note_on_c, 1, 85, 127
2, 104640, Note_on_c, 1, 90, 127
2, 104640, Note_on_c, 1, 94, 127
2, 104680, Note_on_c, 1, 50, 127
2, 104680, Note_on_c, 1, 55, 127
2, 104680, Note_on_c, 1, 59, 127
2, 104680, Note_on_c, 1, 62, 127
2, 104680, Note_off_c, 1, 66, 0
2, 104680, Note_on_c, 1, 67, 127
2, 104680, Note_on_c, 1, 71, 127
2, 104680, Note_off_c, 1, 73, 0
2, 104680, Note_off_c, 1, 78, 0
2, 104680, Note_on_c, 1, 79, 127
2, 104680, Note_off_c, 1, 82, 0
2, 104680, Note_off_c, 1, 85, 0
2, 104680, Note_off_c, 1, 90, 0
2, 104680, Note_off_c, 1, 94, 0
2, 104720, Note_on_c, 1, 49, 127
2, 104720, Note_off_c, 1, 50, 0
2, 104720, Note_on_c, 1, 51, 127
2, 104720, Note_off_c, 1, 55, 0
2, 104720, Note_off_c, 1, 59, 0
2, 104720, Note_off_c, 1, 62, 0
2, 104720, Note_off_c, 1, 67, 0
2, 104720, Note_on_c, 1, 70, 127
2, 104720, Note_off_c, 1, 71, 0
2, 104720, Note_on_c, 1, 72, 127
2, 104720, Note_off_c, 1, 79, 0
2, 104760, Note_on_c, 1, 30, 127
2, 104760, Note_on_c, 1, 37, 127
2, 104760, Note_off_c, 1, 49, 0
2, 104760, Note_off_c, 1, 51, 0
2, 104760, Note_on_c, 1, 69, 127
2, 104760, Note_off_c, 1, 70, 0
2, 104760, Note_off_c, 1, 72, 0
2, 104800, Note_off_c, 1, 30, 0
2, 104800, Note_off_c, 1, 37, 0
2, 104800, Note_on_c, 1, 53, 127
2, 104800, Note_on_c, 1, 56, 127
2, 104800, Note_off_c, 1, 69, 0
2, 104800, Note_on_c, 1, 73, 127
2, 104800, Note_on_c, 1, 85, 127
2, 104840, Note_on_c, 1, 49, 127
2, 104840, Note_off_c, 1, 53, 0
2, 104840, Note_on_c, 1, 55, 127
2, 104840, Note_off_c, 1, 56, 0
2, 104840, Note_on_c, 1, 61, 127
2, 104840, Note_on_c, 1, 64, 127
2, 104840, Note_off_c, 1, 73, 0
2, 104840, Note_off_c, 1, 85, 0
2, 104880, Note_off_c, 1, 55, 0
2, 104880, Note_on_c, 1, 59, 127
2, 104880, Note_off_c, 1, 61, 0
2, 104880, Note_off_c, 1, 64, 0
2, 104880, Note_on_c, 1, 68, 127
2, 104880, Note_on_c, 1, 73, 127
2, 104880, Note_on_c, 1, 77, 127
2, 104920, Note_on_c, 1, 38, 127
2, 104920, Note_on_c, 1, 47, 127
2, 104920, Note_off_c, 1, 49, 0
2, 104920, Note_on_c, 1, 52, 127
2, 104920, Note_off_c, 1, 59, 0
2, 104920, Note_on_c, 1, 62, 127
2, 104920, Note_off_c, 1, 68, 0
2, 104920, Note_off_c, 1, 73, 0
2, 104920, Note_off_c, 1, 77, 0
2, 104960, Note_on_c, 1, 35, 127
2, 104960, Note_off_c, 1, 38, 0
2, 104960, Note_on_c, 1, 40, 127
2, 104960, Note_off_c, 1, 52, 0
2, 104960, Note_on_c, 1, 59, 127
2, 104960, Note_off_c, 1, 62, 0
2, 104960, Note_on_c, 1, 68, 127
2, 104960, Note_on_c, 1, 71, 127
2, 104960, Note_on_c, 1, 83, 127
2, 104960, Note_on_c, 1, 88, 127
2, 104960, Note_on_c, 1, 92, 127
2, 105000, Note_off_c, 1, 35, 0
2, 105000, Note_off_c, 1, 40, 0
2, 105000, Note_off_c, 1, 47, 0
2, 105000, Note_off_c, 1, 59, 0
2, 105000, Note_off_c, 1, 68, 0
2, 105000, Note_off_c, 1, 71, 0
2, 105000, Note_on_c, 1, 72, 127
2, 105000, Note_on_c, 1, 80, 127
2, 105000, Note_off_c, 1, 88, 0
2, 105000, Note_on_c, 1, 89, 127
2, 105000, Note_off_c, 1, 92, 0
2, 105000, Note_on_c, 1, 98, 127
2, 105160, Note_off_c, 1, 98, 0
2, 105400, Note_off_c, 1, 72, 0
2, 105400, Note_off_c, 1, 80, 0
2, 105400, Note_off_c, 1, 83, 0
2, 105400, Note_off_c, 1, 89, 0
2, 105440, Note_on_c, 1, 37, 127
2, 105440, Note_on_c, 1, 44, 127
2, 105440, Note_on_c, 1, 49, 127
2, 105440, Note_on_c, 1, 52, 127
2, 105440, Note_on_c, 1, 56, 127
2, 105440, Note_on_c, 1, 61, 127
2, 105840, Note_off_c, 1, 37, 0
2, 105840, Note_off_c, 1, 44, 0
2, 105840, Note_off_c, 1, 49, 0
2, 105840, Note_off_c, 1, 52, 0
2, 105840, Note_off_c, 1, 56, 0
2, 105840, Note_off_c, 1, 61, 0
2, 105880, Note_on_c, 1, 37, 127
2, 105880, Note_on_c, 1, 44, 127
2, 105880, Note_on_c, 1, 49, 127
2, 105880, Note_on_c, 1, 52, 127
2, 105880, Note_on_c, 1, 56, 127
2, 105880, Note_on_c, 1, 61, 127
2, 108080, Note_off_c, 1, 37, 0
2, 108080, Note_off_c, 1, 44, 0
2, 108080, Note_off_c, 1, 49, 0
2, 108080, Note_off_c, 1, 52, 0
2, 108080, Note_off_c, 1, 56, 0
2, 108080, Note_off_c, 1, 61, 0
2, 108120, Note_on_c, 1, 37, 127
2, 108120, Note_on_c, 1, 44, 127
2, 108120, Note_on_c, 1, 49, 127
2, 108120, Note_on_c, 1, 52, 127
2, 108120, Note_on_c, 1, 56, 127
2, 108120, Note_on_c, 1, 61, 127
2, 110040, Note_off_c, 1, 37, 0
2, 110040, Note_off_c, 1, 44, 0
2, 110040, Note_off_c, 1, 49, 0
2, 110040, Note_off_c, 1, 52, 0
2, 110040, Note_off_c, 1, 56, 0
2, 110040, Note_off_c, 1, 61, 0
2, 110080, Note_on_c, 1, 37, 127
2, 110080, Note_on_c, 1, 44, 127
2, 110080, Note_on_c, 1, 49, 127
2, 110080, Note_on_c, 1, 52, 127
2, 110080, Note_on_c, 1, 56, 127
2, 110080, Note_on_c, 1, 61, 127
2, 111120, Note_off_c, 1, 37, 0
2, 111120, Note_off_c, 1, 44, 0
2, 111120, Note_off_c, 1, 49, 0
2, 111120, Note_off_c, 1, 52, 0
2, 111120, Note_off_c, 1, 56, 0
2, 111120, Note_off_c, 1, 61, 0
2, 115200, Note_on_c, 1, 70, 127
2, 115200, Note_on_c, 1, 74, 127
2, 115200, Note_on_c, 1, 79, 127
2, 115200, Note_on_c, 1, 82, 127
2, 115200, Note_on_c, 1, 86, 127
2, 115200, Note_on_c, 1, 91, 127
2, 115440, Note_off_c, 1, 70, 0
2, 115440, Note_off_c, 1, 74, 0
2, 115440, Note_off_c, 1, 79, 0
2, 115440, Note_off_c, 1, 82, 0
2, 115440, Note_off_c, 1, 86, 0
2, 115440, Note_off_c, 1, 91, 0
2, 115480, Note_on_c, 1, 70, 127
2, 115480, Note_on_c, 1, 74, 127
2, 115480, Note_on_c, 1, 79, 127
2, 115480, Note_on_c, 1, 82, 127
2, 115480, Note_on_c, 1, 86, 127
2, 115480, Note_on_c, 1, 91, 127
2, 115600, Note_off_c, 1, 70, 0
2, 115600, Note_off_c, 1, 74, 0
2, 115600, Note_off_c, 1, 79, 0
2, 115600, Note_off_c, 1, 82, 0
2, 115600, Note_off_c, 1, 86, 0
2, 115600, Note_off_c, 1, 91, 0
2, 115640, Note_on_c, 1, 76, 127
2, 115640, Note_on_c, 1, 81, 127
2, 115640, Note_on_c, 1, 85, 127
2, 116360, Note_off_c, 1, 76, 0
2, 116360, Note_off_c, 1, 81, 0
2, 116360, Note_off_c, 1, 85, 0
2, 116440, Note_on_c, 1, 76, 127
2, 116440, Note_on_c, 1, 81, 127
2, 116440, Note_on_c, 1, 85, 127
2, 116520, Note_on_c, 1, 69, 127
2, 116560, Note_off_c, 1, 69, 0
2, 116640, Note_on_c, 1, 69, 127
2, 116760, Note_off_c, 1, 69, 0
2, 116800, Note_off_c, 1, 76, 0
2, 116800, Note_off_c, 1, 81, 0
2, 116800, Note_off_c, 1, 85, 0
2, 116840, Note_on_c, 1, 73, 127
2, 116840, Note_on_c, 1, 76, 127
2, 116840, Note_on_c, 1, 81, 127
2, 116840, Note_on_c, 1, 85, 127
2, 117560, Note_off_c, 1, 73, 0
2, 117560, Note_off_c, 1, 76, 0
2, 117560, Note_off_c, 1, 81, 0
2, 117560, Note_off_c, 1, 85, 0
2, 117640, Note_on_c, 1, 64, 127
2, 117640, Note_on_c, 1, 73, 127
2, 117640, Note_on_c, 1, 76, 127
2, 117640, Note_on_c, 1, 81, 127
2, 117920, Note_off_c, 1, 64, 0
2, 117920, Note_off_c, 1, 73, 0
2, 117920, Note_off_c, 1, 76, 0
2, 117920, Note_off_c, 1, 81, 0
2, 117960, Note_on_c, 1, 64, 127
2, 117960, Note_on_c, 1, 73, 127
2, 117960, Note_on_c, 1, 76, 127
2, 117960, Note_on_c, 1, 81, 127
2, 118440, Note_off_c, 1, 64, 0
2, 118440, Note_off_c, 1, 73, 0
2, 118440, Note_off_c, 1, 76, 0
2, 118440, Note_off_c, 1, 81, 0
2, 118480, Note_on_c, 1, 64, 127
2, 118480, Note_on_c, 1, 73, 127
2, 118480, Note_on_c, 1, 76, 127
2, 118480, Note_on_c, 1, 81, 127
2, 118840, Note_off_c, 1, 64, 0
2, 118840, Note_off_c, 1, 73, 0
2, 118840, Note_off_c, 1, 76, 0
2, 118840, Note_off_c, 1, 81, 0
2, 118880, Note_on_c, 1, 45, 127
2, 118880, Note_on_c, 1, 57, 127
2, 118880, Note_on_c, 1, 69, 127
2, 118880, Note_on_c, 1, 73, 127
2, 118880, Note_on_c, 1, 76, 127
2, 119240, Note_off_c, 1, 45, 0
2, 119240, Note_off_c, 1, 57, 0
2, 119280, Note_on_c, 1, 45, 127
2, 119280, Note_on_c, 1, 57, 127
2, 119640, Note_off_c, 1, 45, 0
2, 119640, Note_off_c, 1, 57, 0
2, 119640, Note_off_c, 1, 69, 0
2, 119640, Note_off_c, 1, 73, 0
2, 119640, Note_off_c, 1, 76, 0
2, 119680, Note_on_c, 1, 45, 127
2, 119680, Note_on_c, 1, 57, 127
2, 119680, Note_on_c, 1, 69, 127
2, 119680, Note_on_c, 1, 73, 127
2, 119680, Note_on_c, 1, 76, 127
2, 119840, Note_off_c, 1, 45, 0
2, 119840, Note_off_c, 1, 57, 0
2, 119840, Note_off_c, 1, 69, 0
2, 119840, Note_off_c, 1, 73, 0
2, 119840, Note_off_c, 1, 76, 0
2, 119880, Note_on_c, 1, 45, 127
2, 119880, Note_on_c, 1, 57, 127
2, 119880, Note_on_c, 1, 69, 127
2, 119880, Note_on_c, 1, 73, 127
2, 119880, Note_on_c, 1, 76, 127
2, 120000, Note_off_c, 1, 45, 0
2, 120000, Note_off_c, 1, 57, 0
2, 120000, Note_off_c, 1, 69, 0
2, 120000, Note_off_c, 1, 73, 0
2, 120000, Note_off_c, 1, 76, 0
2, 120040, End_track
3, 0, Start_track
3, 0, Title_t, "MIDI"
3, 1536, End_track
0, 0, End_of_file
