0, 0, Header, 1, 3, 192
1, 0, Start_track
1, 0, Time_signature, 4, 2, 24, 8
1, 0, Tempo, 500000
1, 120040, End_track
2, 0, Start_track
2, 0, Text_t, "random instrument: random person i dunno whatev"
2, 0, Title_t, "Track 1"
2, 0, Note_on_c, 1, 40, 127
2, 0, Note_on_c, 1, 48, 127
2, 0, Note_on_c, 1, 56, 127
2, 0, Note_on_c, 1, 60, 127
2, 120, Note_off_c, 1, 40, 0
2, 120, Note_off_c, 1, 48, 0
2, 120, Note_off_c, 1, 56, 0
2, 120, Note_off_c, 1, 60, 0
2, 160, Note_on_c, 1, 40, 127
2, 160, Note_on_c, 1, 48, 127
2, 160, Note_on_c, 1, 56, 127
2, 160, Note_on_c, 1, 60, 127
2, 200, Note_on_c, 1, 35, 127
2, 200, Note_on_c, 1, 39, 127
2, 200, Note_off_c, 1, 40, 0
2, 200, Note_on_c, 1, 47, 127
2, 200, Note_off_c, 1, 48, 0
2, 200, Note_on_c, 1, 50, 127
2, 200, Note_off_c, 1, 56, 0
2, 200, Note_off_c, 1, 60, 0
2, 240, Note_off_c, 1, 35, 0
2, 240, Note_off_c, 1, 39, 0
2, 240, Note_off_c, 1, 47, 0
2, 240, Note_off_c, 1, 50, 0
2, 240, Note_on_c, 1, 74, 127
2, 240, Note_on_c, 1, 77, 127
2, 240, Note_on_c, 1, 80, 127
2, 240, Note_on_c, 1, 83, 127
2, 520, Note_off_c, 1, 74, 0
2, 520, Note_off_c, 1, 77, 0
2, 520, Note_off_c, 1, 80, 0
2, 520, Note_off_c, 1, 83, 0
2, 14960, Note_on_c, 1, 35, 127
2, 15120, Note_off_c, 1, 35, 0
2, 18240, Note_on_c, 1, 40, 127
2, 18240, Note_on_c, 1, 52, 127
2, 18240, Note_on_c, 1, 64, 127
2, 19000, Note_off_c, 1, 40, 0
2, 19000, Note_off_c, 1, 52, 0
2, 19000, Note_off_c, 1, 64, 0
2, 19040, Note_on_c, 1, 37, 127
2, 19040, Note_on_c, 1, 49, 127
2, 19040, Note_on_c, 1, 61, 127
2, 19800, Note_off_c, 1, 37, 0
2, 19800, Note_off_c, 1, 49, 0
2, 19800, Note_off_c, 1, 61, 0
2, 19840, Note_on_c, 1, 33, 127
2, 19840, Note_on_c, 1, 45, 127
2, 19840, Note_on_c, 1, 57, 127
2, 21120, Note_off_c, 1, 33, 0
2, 21120, Note_off_c, 1, 45, 0
2, 21120, Note_off_c, 1, 57, 0
2, 21160, Note_on_c, 1, 33, 127
2, 21160, Note_on_c, 1, 45, 127
2, 21160, Note_on_c, 1, 57, 127
2, 21400, Note_off_c, 1, 33, 0
2, 21400, Note_off_c, 1, 45, 0
2, 21400, Note_off_c, 1, 57, 0
2, 32600, Note_on_c, 1, 57, 127
2, 32600, Note_on_c, 1, 73, 127
2, 33120, Note_off_c, 1, 57, 0
2, 33160, Note_on_c, 1, 50, 127
2, 34280, Note_off_c, 1, 73, 0
2, 34280, Note_on_c, 1, 74, 127
2, 34320, Note_off_c, 1, 50, 0
2, 34320, Note_off_c, 1, 74, 0
2, 34360, Note_on_c, 1, 50, 127
2, 34360, Note_on_c, 1, 69, 127
2, 34960, Note_off_c, 1, 69, 0
2, 35000, Note_on_c, 1, 59, 127
2, 35000, Note_on_c, 1, 62, 127
2, 35200, Note_on_c, 1, 67, 127
2, 35560, Note_off_c, 1, 59, 0
2, 35560, Note_off_c, 1, 62, 0
2, 35560, Note_off_c, 1, 67, 0
2, 35880, Note_off_c, 1, 50, 0
2, 35920, Note_on_c, 1, 72, 127
2, 36160, Note_off_c, 1, 72, 0
2, 36200, Note_on_c, 1, 71, 127
2, 36440, Note_off_c, 1, 71, 0
2, 36480, Note_on_c, 1, 71, 127
2, 36520, Note_off_c, 1, 71, 0
2, 36560, Note_on_c, 1, 72, 127
2, 37120, Note_off_c, 1, 72, 0
2, 37160, Note_on_c, 1, 69, 127
2, 37720, Note_off_c, 1, 69, 0
2, 37760, Note_on_c, 1, 71, 127
2, 38280, Note_off_c, 1, 71, 0
2, 38320, Note_on_c, 1, 43, 127
2, 38520, Note_off_c, 1, 43, 0
2, 38560, Note_on_c, 1, 43, 127
2, 39280, Note_off_c, 1, 43, 0
2, 39320, Note_on_c, 1, 71, 127
2, 40480, Note_off_c, 1, 71, 0
2, 40560, Note_on_c, 1, 71, 127
2, 40920, Note_off_c, 1, 71, 0
2, 40960, Note_on_c, 1, 79, 127
2, 42120, Note_off_c, 1, 79, 0
2, 42160, Note_on_c, 1, 81, 127
2, 42760, Note_off_c, 1, 81, 0
2, 42800, Note_on_c, 1, 54, 127
2, 42800, Note_on_c, 1, 57, 127
2, 42800, Note_on_c, 1, 60, 127
2, 42800, Note_on_c, 1, 63, 127
2, 42800, Note_on_c, 1, 84, 127
2, 43360, Note_off_c, 1, 54, 0
2, 43360, Note_off_c, 1, 57, 0
2, 43360, Note_off_c, 1, 60, 0
2, 43360, Note_off_c, 1, 63, 0
2, 43360, Note_off_c, 1, 84, 0
2, 43400, Note_on_c, 1, 83, 127
2, 44960, Note_off_c, 1, 83, 0
2, 45040, Note_on_c, 1, 87, 127
2, 45400, Note_off_c, 1, 87, 0
2, 45440, Note_on_c, 1, 88, 127
2, 45800, Note_off_c, 1, 88, 0
2, 45840, Note_on_c, 1, 92, 127
2, 46200, Note_off_c, 1, 92, 0
2, 46240, Note_on_c, 1, 91, 127
2, 46400, Note_off_c, 1, 91, 0
2, 46440, Note_on_c, 1, 90, 127
2, 46600, Note_off_c, 1, 90, 0
2, 46640, Note_on_c, 1, 88, 127
2, 46960, Note_off_c, 1, 88, 0
2, 47040, Note_on_c, 1, 92, 127
2, 47560, Note_on_c, 1, 80, 127
2, 47560, Note_off_c, 1, 92, 0
2, 47600, Note_off_c, 1, 80, 0
2, 67200, Note_on_c, 1, 52, 127
2, 67560, Note_off_c, 1, 52, 0
2, 74720, Note_on_c, 1, 55, 127
2, 74720, Note_on_c, 1, 58, 127
2, 74720, Note_on_c, 1, 62, 127
2, 74720, Note_on_c, 1, 67, 127
2, 74720, Note_on_c, 1, 70, 127
2, 75880, Note_off_c, 1, 55, 0
2, 75880, Note_off_c, 1, 58, 0
2, 75880, Note_off_c, 1, 62, 0
2, 75880, Note_off_c, 1, 67, 0
2, 75880, Note_off_c, 1, 70, 0
2, 96600, Note_on_c, 1, 68, 127
2, 97560, Note_off_c, 1, 68, 0
2, 97600, Note_on_c, 1, 68, 127
2, 98200, Note_on_c, 1, 67, 127
2, 98200, Note_off_c, 1, 68, 0
2, 98560, Note_off_c, 1, 67, 0
2, 98600, Note_on_c, 1, 68, 127
2, 99320, Note_off_c, 1, 68, 0
2, 99360, Note_on_c, 1, 65, 127
2, 100120, Note_off_c, 1, 65, 0
2, 100200, Note_on_c, 1, 63, 127
2, 102120, Note_off_c, 1, 63, 0
2, 102200, Note_on_c, 1, 37, 127
2, 102200, Note_on_c, 1, 61, 127
2, 102560, Note_off_c, 1, 37, 0
2, 102960, Note_off_c, 1, 61, 0
2, 103000, Note_on_c, 1, 64, 127
2, 104160, Note_off_c, 1, 64, 0
2, 104240, Note_on_c, 1, 63, 127
2, 104600, Note_off_c, 1, 63, 0
2, 104640, Note_on_c, 1, 58, 127
2, 105400, Note_off_c, 1, 58, 0
2, 105440, Note_on_c, 1, 52, 127
2, 106200, Note_off_c, 1, 52, 0
2, 106280, Note_on_c, 1, 42, 127
2, 108920, Note_on_c, 1, 41, 127
2, 108920, Note_off_c, 1, 42, 0
2, 109000, Note_off_c, 1, 41, 0
2, 109040, Note_on_c, 1, 42, 127
2, 110160, Note_off_c, 1, 42, 0
2, 110200, Note_on_c, 1, 41, 127
2, 111160, Note_off_c, 1, 41, 0
2, 111200, Note_on_c, 1, 54, 127
2, 111600, Note_off_c, 1, 54, 0
2, 111640, Note_on_c, 1, 54, 127
2, 111960, Note_off_c, 1, 54, 0
2, 112000, Note_on_c, 1, 54, 127
2, 113520, Note_off_c, 1, 54, 0
2, 113560, Note_on_c, 1, 39, 127
2, 113760, Note_off_c, 1, 39, 0
2, 113800, Note_on_c, 1, 39, 127
2, 113920, Note_off_c, 1, 39, 0
2, 114000, Note_on_c, 1, 35, 127
2, 115080, Note_off_c, 1, 35, 0
2, 115120, Note_on_c, 1, 39, 127
2, 115480, Note_off_c, 1, 39, 0
2, 115520, Note_on_c, 1, 35, 127
2, 115880, Note_off_c, 1, 35, 0
2, 115960, Note_on_c, 1, 37, 127
2, 116280, Note_off_c, 1, 37, 0
2, 116320, Note_on_c, 1, 35, 127
2, 117800, Note_off_c, 1, 35, 0
2, 117840, Note_on_c, 1, 47, 127
2, 118200, Note_off_c, 1, 47, 0
2, 118280, Note_on_c, 1, 47, 127
2, 118600, Note_off_c, 1, 47, 0
2, 118640, Note_on_c, 1, 47, 127
2, 119000, Note_off_c, 1, 47, 0
2, 119040, Note_on_c, 1, 47, 127
2, 119040, Note_on_c, 1, 68, 127
2, 119040, Note_on_c, 1, 76, 127
2, 119400, Note_off_c, 1, 47, 0
2, 119440, Note_on_c, 1, 59, 127
2, 120000, Note_off_c, 1, 59, 0
2, 120000, Note_off_c, 1, 68, 0
2, 120000, Note_off_c, 1, 76, 0
2, 120040, End_track
3, 0, Start_track
3, 0, Title_t, "MIDI"
3, 1536, End_track
0, 0, End_of_file
