0, 0, Header, 1, 3, 192
1, 0, Start_track
1, 0, Time_signature, 4, 2, 24, 8
1, 0, Tempo, 500000
1, 120040, End_track
2, 0, Start_track
2, 0, Text_t, "random instrument: random person i dunno whatev"
2, 0, Title_t, "Track 1"
2, 0, Note_on_c, 1, 40, 127
2, 0, Note_on_c, 1, 48, 127
2, 0, Note_on_c, 1, 56, 127
2, 0, Note_on_c, 1, 60, 127
2, 40, Note_off_c, 1, 40, 0
2, 40, Note_off_c, 1, 48, 0
2, 40, Note_on_c, 1, 55, 127
2, 40, Note_off_c, 1, 56, 0
2, 40, Note_off_c, 1, 60, 0
2, 40, Note_on_c, 1, 72, 127
2, 40, Note_on_c, 1, 75, 127
2, 40, Note_on_c, 1, 79, 127
2, 40, Note_on_c, 1, 84, 127
2, 80, Note_off_c, 1, 55, 0
2, 80, Note_off_c, 1, 72, 0
2, 80, Note_off_c, 1, 75, 0
2, 80, Note_off_c, 1, 79, 0
2, 80, Note_off_c, 1, 84, 0
2, 120, Note_on_c, 1, 50, 127
2, 120, Note_on_c, 1, 59, 127
2, 120, Note_on_c, 1, 62, 127
2, 120, Note_on_c, 1, 78, 127
2, 160, Note_off_c, 1, 50, 0
2, 160, Note_off_c, 1, 59, 0
2, 160, Note_on_c, 1, 60, 127
2, 160, Note_off_c, 1, 62, 0
2, 160, Note_on_c, 1, 66, 127
2, 160, Note_on_c, 1, 68, 127
2, 160, Note_off_c, 1, 78, 0
2, 160, Note_on_c, 1, 90, 127
2, 200, Note_on_c, 1, 35, 127
2, 200, Note_on_c, 1, 39, 127
2, 200, Note_on_c, 1, 47, 127
2, 200, Note_on_c, 1, 50, 127
2, 200, Note_off_c, 1, 60, 0
2, 200, Note_off_c, 1, 66, 0
2, 200, Note_off_c, 1, 68, 0
2, 200, Note_off_c, 1, 90, 0
2, 240, Note_off_c, 1, 35, 0
2, 240, Note_off_c, 1, 39, 0
2, 240, Note_off_c, 1, 47, 0
2, 240, Note_off_c, 1, 50, 0
2, 240, Note_on_c, 1, 51, 127
2, 240, Note_on_c, 1, 55, 127
2, 240, Note_on_c, 1, 58, 127
2, 240, Note_on_c, 1, 63, 127
2, 240, Note_on_c, 1, 82, 127
2, 240, Note_on_c, 1, 91, 127
2, 280, Note_off_c, 1, 51, 0
2, 280, Note_off_c, 1, 55, 0
2, 280, Note_off_c, 1, 58, 0
2, 280, Note_off_c, 1, 63, 0
2, 280, Note_on_c, 1, 76, 127
2, 280, Note_on_c, 1, 80, 127
2, 280, Note_off_c, 1, 82, 0
2, 280, Note_on_c, 1, 83, 127
2, 280, Note_on_c, 1, 89, 127
2, 280, Note_off_c, 1, 91, 0
2, 320, Note_on_c, 1, 58, 127
2, 320, Note_on_c, 1, 63, 127
2, 320, Note_on_c, 1, 66, 127
2, 320, Note_on_c, 1, 72, 127
2, 320, Note_on_c, 1, 75, 127
2, 320, Note_off_c, 1, 76, 0
2, 320, Note_off_c, 1, 80, 0
2, 320, Note_on_c, 1, 82, 127
2, 320, Note_off_c, 1, 83, 0
2, 320, Note_on_c, 1, 87, 127
2, 320, Note_off_c, 1, 89, 0
2, 360, Note_on_c, 1, 57, 127
2, 360, Note_off_c, 1, 58, 0
2, 360, Note_on_c, 1, 62, 127
2, 360, Note_off_c, 1, 63, 0
2, 360, Note_off_c, 1, 66, 0
2, 360, Note_off_c, 1, 72, 0
2, 360, Note_off_c, 1, 75, 0
2, 360, Note_off_c, 1, 82, 0
2, 360, Note_off_c, 1, 87, 0
2, 400, Note_off_c, 1, 57, 0
2, 400, Note_on_c, 1, 60, 127
2, 400, Note_off_c, 1, 62, 0
2, 400, Note_on_c, 1, 85, 127
2, 400, Note_on_c, 1, 88, 127
2, 440, Note_on_c, 1, 50, 127
2, 440, Note_on_c, 1, 57, 127
2, 440, Note_off_c, 1, 60, 0
2, 440, Note_on_c, 1, 65, 127
2, 440, Note_off_c, 1, 85, 0
2, 440, Note_off_c, 1, 88, 0
2, 440, Note_on_c, 1, 93, 127
2, 800, Note_off_c, 1, 50, 0
2, 800, Note_off_c, 1, 57, 0
2, 800, Note_off_c, 1, 65, 0
2, 800, Note_off_c, 1, 93, 0
2, 1280, Note_on_c, 1, 38, 127
2, 1280, Note_on_c, 1, 54, 127
2, 1280, Note_on_c, 1, 62, 127
2, 1840, Note_off_c, 1, 38, 0
2, 1840, Note_off_c, 1, 54, 0
2, 1840, Note_off_c, 1, 62, 0
2, 5240, Note_on_c, 1, 43, 127
2, 5240, Note_on_c, 1, 50, 127
2, 5240, Note_on_c, 1, 60, 127
2, 5240, Note_on_c, 1, 62, 127
2, 5240, Note_on_c, 1, 69, 127
2, 5480, Note_off_c, 1, 43, 0
2, 5480, Note_off_c, 1, 50, 0
2, 5480, Note_off_c, 1, 60, 0
2, 5480, Note_off_c, 1, 62, 0
2, 5480, Note_off_c, 1, 69, 0
2, 5800, Note_on_c, 1, 52, 127
2, 5800, Note_on_c, 1, 55, 127
2, 5800, Note_on_c, 1, 58, 127
2, 5800, Note_on_c, 1, 61, 127
2, 5800, Note_on_c, 1, 70, 127
2, 6200, Note_on_c, 1, 42, 127
2, 6200, Note_off_c, 1, 55, 0
2, 6200, Note_off_c, 1, 58, 0
2, 6200, Note_on_c, 1, 59, 127
2, 6200, Note_off_c, 1, 61, 0
2, 6200, Note_on_c, 1, 64, 127
2, 6200, Note_off_c, 1, 70, 0
2, 6240, Note_on_c, 1, 49, 127
2, 6240, Note_off_c, 1, 52, 0
2, 6240, Note_off_c, 1, 59, 0
2, 6240, Note_off_c, 1, 64, 0
2, 6240, Note_on_c, 1, 66, 127
2, 6240, Note_on_c, 1, 70, 127
2, 6240, Note_on_c, 1, 78, 127
2, 6280, Note_off_c, 1, 42, 0
2, 6280, Note_off_c, 1, 49, 0
2, 6280, Note_on_c, 1, 52, 127
2, 6280, Note_on_c, 1, 55, 127
2, 6280, Note_on_c, 1, 58, 127
2, 6280, Note_on_c, 1, 61, 127
2, 6280, Note_off_c, 1, 66, 0
2, 6280, Note_off_c, 1, 70, 0
2, 6280, Note_off_c, 1, 78, 0
2, 6320, Note_on_c, 1, 70, 127
2, 6840, Note_off_c, 1, 70, 0
2, 6880, Note_off_c, 1, 52, 0
2, 6880, Note_off_c, 1, 55, 0
2, 6880, Note_off_c, 1, 58, 0
2, 6880, Note_on_c, 1, 60, 127
2, 6880, Note_off_c, 1, 61, 0
2, 6880, Note_on_c, 1, 66, 127
2, 6880, Note_on_c, 1, 69, 127
2, 6880, Note_on_c, 1, 74, 127
2, 6880, Note_on_c, 1, 83, 127
2, 7200, Note_off_c, 1, 60, 0
2, 7200, Note_off_c, 1, 66, 0
2, 7200, Note_off_c, 1, 69, 0
2, 7200, Note_off_c, 1, 74, 0
2, 7200, Note_off_c, 1, 83, 0
2, 7240, Note_on_c, 1, 92, 127
2, 7280, Note_on_c, 1, 85, 127
2, 7280, Note_on_c, 1, 87, 127
2, 7280, Note_off_c, 1, 92, 0
2, 7320, Note_on_c, 1, 84, 127
2, 7320, Note_off_c, 1, 85, 0
2, 7320, Note_off_c, 1, 87, 0
2, 7360, Note_on_c, 1, 83, 127
2, 7360, Note_off_c, 1, 84, 0
2, 7400, Note_on_c, 1, 80, 127
2, 7400, Note_off_c, 1, 83, 0
2, 7440, Note_on_c, 1, 72, 127
2, 7440, Note_off_c, 1, 80, 0
2, 7480, Note_off_c, 1, 72, 0
2, 7480, Note_on_c, 1, 80, 127
2, 7520, Note_off_c, 1, 80, 0
2, 7520, Note_on_c, 1, 82, 127
2, 7560, Note_on_c, 1, 79, 127
2, 7560, Note_off_c, 1, 82, 0
2, 7600, Note_off_c, 1, 79, 0
2, 7640, Note_on_c, 1, 82, 127
2, 7680, Note_on_c, 1, 80, 127
2, 7680, Note_off_c, 1, 82, 0
2, 7720, Note_off_c, 1, 80, 0
2, 7720, Note_on_c, 1, 84, 127
2, 7760, Note_on_c, 1, 80, 127
2, 7760, Note_off_c, 1, 84, 0
2, 7880, Note_off_c, 1, 80, 0
2, 7880, Note_on_c, 1, 82, 127
2, 7920, Note_on_c, 1, 80, 127
2, 7920, Note_off_c, 1, 82, 0
2, 8000, Note_on_c, 1, 47, 127
2, 8000, Note_on_c, 1, 67, 127
2, 8000, Note_on_c, 1, 74, 127
2, 8000, Note_on_c, 1, 78, 127
2, 8000, Note_off_c, 1, 80, 0
2, 8040, Note_on_c, 1, 79, 127
2, 8080, Note_off_c, 1, 79, 0
2, 8080, Note_on_c, 1, 81, 127
2, 8120, Note_on_c, 1, 79, 127
2, 8120, Note_off_c, 1, 81, 0
2, 8160, Note_off_c, 1, 79, 0
2, 8160, Note_on_c, 1, 81, 127
2, 8200, Note_off_c, 1, 81, 0
2, 8240, Note_on_c, 1, 81, 127
2, 8440, Note_on_c, 1, 33, 127
2, 8440, Note_on_c, 1, 45, 127
2, 8440, Note_off_c, 1, 47, 0
2, 8440, Note_on_c, 1, 73, 127
2, 8440, Note_off_c, 1, 74, 0
2, 8440, Note_off_c, 1, 78, 0
2, 8440, Note_on_c, 1, 79, 127
2, 8440, Note_off_c, 1, 81, 0
2, 8480, Note_off_c, 1, 33, 0
2, 8480, Note_off_c, 1, 45, 0
2, 8480, Note_on_c, 1, 47, 127
2, 8480, Note_off_c, 1, 73, 0
2, 8480, Note_on_c, 1, 74, 127
2, 8480, Note_on_c, 1, 78, 127
2, 8480, Note_off_c, 1, 79, 0
2, 8480, Note_on_c, 1, 81, 127
2, 8520, Note_off_c, 1, 47, 0
2, 8520, Note_on_c, 1, 61, 127
2, 8520, Note_off_c, 1, 67, 0
2, 8520, Note_off_c, 1, 74, 0
2, 8520, Note_off_c, 1, 81, 0
2, 8560, Note_on_c, 1, 50, 127
2, 8560, Note_on_c, 1, 57, 127
2, 8560, Note_off_c, 1, 61, 0
2, 8560, Note_on_c, 1, 62, 127
2, 8560, Note_on_c, 1, 66, 127
2, 8560, Note_on_c, 1, 69, 127
2, 8560, Note_on_c, 1, 76, 127
2, 8560, Note_off_c, 1, 78, 0
2, 8960, Note_off_c, 1, 50, 0
2, 8960, Note_off_c, 1, 57, 0
2, 8960, Note_off_c, 1, 62, 0
2, 8960, Note_off_c, 1, 66, 0
2, 8960, Note_off_c, 1, 69, 0
2, 8960, Note_off_c, 1, 76, 0
2, 9160, Note_on_c, 1, 31, 127
2, 9160, Note_on_c, 1, 43, 127
2, 9760, Note_off_c, 1, 31, 0
2, 9760, Note_off_c, 1, 43, 0
2, 9800, Note_on_c, 1, 31, 127
2, 9800, Note_on_c, 1, 43, 127
2, 9800, Note_on_c, 1, 57, 127
2, 9920, Note_off_c, 1, 57, 0
2, 10000, Note_on_c, 1, 58, 127
2, 10160, Note_off_c, 1, 58, 0
2, 10400, Note_on_c, 1, 58, 127
2, 10520, Note_off_c, 1, 58, 0
2, 10560, Note_off_c, 1, 31, 0
2, 10560, Note_off_c, 1, 43, 0
2, 10600, Note_on_c, 1, 41, 127
2, 10600, Note_on_c, 1, 53, 127
2, 10600, Note_on_c, 1, 60, 127
2, 10600, Note_on_c, 1, 70, 127
2, 10600, Note_on_c, 1, 72, 127
2, 10640, Note_on_c, 1, 40, 127
2, 10640, Note_off_c, 1, 41, 0
2, 10640, Note_on_c, 1, 52, 127
2, 10640, Note_off_c, 1, 53, 0
2, 10640, Note_off_c, 1, 60, 0
2, 10640, Note_off_c, 1, 70, 0
2, 10640, Note_off_c, 1, 72, 0
2, 10840, Note_on_c, 1, 51, 127
2, 10840, Note_off_c, 1, 52, 0
2, 11120, Note_off_c, 1, 51, 0
2, 11160, Note_off_c, 1, 40, 0
2, 11200, Note_on_c, 1, 62, 127
2, 11200, Note_on_c, 1, 68, 127
2, 11200, Note_on_c, 1, 86, 127
2, 11200, Note_on_c, 1, 89, 127
2, 11240, Note_on_c, 1, 38, 127
2, 11240, Note_on_c, 1, 50, 127
2, 11240, Note_on_c, 1, 60, 127
2, 11240, Note_off_c, 1, 68, 0
2, 11240, Note_off_c, 1, 86, 0
2, 11240, Note_off_c, 1, 89, 0
2, 11280, Note_off_c, 1, 38, 0
2, 11280, Note_off_c, 1, 50, 0
2, 11280, Note_off_c, 1, 62, 0
2, 11280, Note_on_c, 1, 74, 127
2, 11280, Note_on_c, 1, 79, 127
2, 11280, Note_on_c, 1, 82, 127
2, 11280, Note_on_c, 1, 86, 127
2, 11320, Note_on_c, 1, 38, 127
2, 11320, Note_on_c, 1, 50, 127
2, 11320, Note_on_c, 1, 62, 127
2, 11320, Note_off_c, 1, 74, 0
2, 11320, Note_off_c, 1, 79, 0
2, 11320, Note_off_c, 1, 82, 0
2, 11320, Note_off_c, 1, 86, 0
2, 11760, Note_off_c, 1, 38, 0
2, 11760, Note_off_c, 1, 50, 0
2, 11760, Note_off_c, 1, 60, 0
2, 11760, Note_off_c, 1, 62, 0
2, 11840, Note_on_c, 1, 35, 127
2, 11840, Note_on_c, 1, 47, 127
2, 11840, Note_on_c, 1, 56, 127
2, 11840, Note_on_c, 1, 63, 127
2, 11840, Note_on_c, 1, 68, 127
2, 12960, Note_off_c, 1, 35, 0
2, 12960, Note_off_c, 1, 47, 0
2, 12960, Note_off_c, 1, 56, 0
2, 12960, Note_off_c, 1, 63, 0
2, 12960, Note_off_c, 1, 68, 0
2, 13040, Note_on_c, 1, 48, 127
2, 13040, Note_on_c, 1, 77, 127
2, 13040, Note_on_c, 1, 83, 127
2, 13040, Note_on_c, 1, 91, 127
2, 13080, Note_on_c, 1, 36, 127
2, 13080, Note_on_c, 1, 62, 127
2, 13080, Note_on_c, 1, 65, 127
2, 13080, Note_on_c, 1, 67, 127
2, 13080, Note_off_c, 1, 77, 0
2, 13080, Note_off_c, 1, 83, 0
2, 13080, Note_off_c, 1, 91, 0
2, 13120, Note_off_c, 1, 36, 0
2, 13120, Note_off_c, 1, 48, 0
2, 13120, Note_off_c, 1, 62, 0
2, 13120, Note_off_c, 1, 65, 0
2, 13120, Note_on_c, 1, 70, 127
2, 13120, Note_on_c, 1, 85, 127
2, 13120, Note_on_c, 1, 94, 127
2, 13160, Note_on_c, 1, 55, 127
2, 13160, Note_on_c, 1, 59, 127
2, 13160, Note_on_c, 1, 65, 127
2, 13160, Note_off_c, 1, 70, 0
2, 13160, Note_on_c, 1, 81, 127
2, 13160, Note_on_c, 1, 83, 127
2, 13160, Note_off_c, 1, 85, 0
2, 13160, Note_off_c, 1, 94, 0
2, 13200, Note_on_c, 1, 62, 127
2, 13200, Note_off_c, 1, 65, 0
2, 13200, Note_on_c, 1, 79, 127
2, 13200, Note_off_c, 1, 81, 0
2, 13200, Note_off_c, 1, 83, 0
2, 13240, Note_on_c, 1, 43, 127
2, 13240, Note_on_c, 1, 46, 127
2, 13240, Note_off_c, 1, 59, 0
2, 13240, Note_off_c, 1, 62, 0
2, 13240, Note_off_c, 1, 67, 0
2, 13240, Note_off_c, 1, 79, 0
2, 13240, Note_on_c, 1, 85, 127
2, 13360, Note_on_c, 1, 36, 127
2, 13360, Note_off_c, 1, 43, 0
2, 13360, Note_off_c, 1, 55, 0
2, 13360, Note_on_c, 1, 62, 127
2, 13360, Note_off_c, 1, 85, 0
2, 13400, Note_off_c, 1, 36, 0
2, 13400, Note_on_c, 1, 43, 127
2, 13400, Note_on_c, 1, 55, 127
2, 13400, Note_off_c, 1, 62, 0
2, 13400, Note_on_c, 1, 85, 127
2, 13440, Note_off_c, 1, 43, 0
2, 13440, Note_off_c, 1, 46, 0
2, 13440, Note_on_c, 1, 48, 127
2, 13440, Note_off_c, 1, 55, 0
2, 13440, Note_on_c, 1, 64, 127
2, 13440, Note_on_c, 1, 67, 127
2, 13440, Note_on_c, 1, 72, 127
2, 13440, Note_on_c, 1, 79, 127
2, 13440, Note_off_c, 1, 85, 0
2, 13480, Note_on_c, 1, 43, 127
2, 13480, Note_on_c, 1, 46, 127
2, 13480, Note_off_c, 1, 48, 0
2, 13480, Note_on_c, 1, 55, 127
2, 13480, Note_off_c, 1, 64, 0
2, 13480, Note_off_c, 1, 67, 0
2, 13480, Note_off_c, 1, 72, 0
2, 13480, Note_off_c, 1, 79, 0
2, 13480, Note_on_c, 1, 85, 127
2, 13560, Note_off_c, 1, 43, 0
2, 13560, Note_off_c, 1, 46, 0
2, 13560, Note_on_c, 1, 51, 127
2, 13560, Note_on_c, 1, 60, 127
2, 13560, Note_on_c, 1, 63, 127
2, 13560, Note_off_c, 1, 85, 0
2, 13560, Note_on_c, 1, 87, 127
2, 13560, Note_on_c, 1, 89, 127
2, 13600, Note_on_c, 1, 47, 127
2, 13600, Note_off_c, 1, 51, 0
2, 13600, Note_off_c, 1, 55, 0
2, 13600, Note_off_c, 1, 60, 0
2, 13600, Note_on_c, 1, 62, 127
2, 13600, Note_off_c, 1, 63, 0
2, 13600, Note_on_c, 1, 68, 127
2, 13600, Note_on_c, 1, 71, 127
2, 13600, Note_on_c, 1, 74, 127
2, 13600, Note_off_c, 1, 87, 0
2, 13600, Note_off_c, 1, 89, 0
2, 13640, Note_off_c, 1, 47, 0
2, 13640, Note_on_c, 1, 52, 127
2, 13640, Note_on_c, 1, 55, 127
2, 13640, Note_off_c, 1, 62, 0
2, 13640, Note_off_c, 1, 68, 0
2, 13640, Note_on_c, 1, 83, 127
2, 13680, Note_off_c, 1, 52, 0
2, 13680, Note_off_c, 1, 55, 0
2, 13680, Note_off_c, 1, 74, 0
2, 13680, Note_on_c, 1, 76, 127
2, 13680, Note_on_c, 1, 79, 127
2, 13680, Note_off_c, 1, 83, 0
2, 13680, Note_on_c, 1, 95, 127
2, 13720, Note_on_c, 1, 37, 127
2, 13720, Note_on_c, 1, 49, 127
2, 13720, Note_on_c, 1, 61, 127
2, 13720, Note_on_c, 1, 66, 127
2, 13720, Note_off_c, 1, 71, 0
2, 13720, Note_off_c, 1, 76, 0
2, 13720, Note_on_c, 1, 78, 127
2, 13720, Note_off_c, 1, 79, 0
2, 13720, Note_off_c, 1, 95, 0
2, 13760, Note_on_c, 1, 32, 127
2, 13760, Note_off_c, 1, 37, 0
2, 13760, Note_on_c, 1, 44, 127
2, 13760, Note_off_c, 1, 49, 0
2, 13760, Note_off_c, 1, 61, 0
2, 13760, Note_off_c, 1, 66, 0
2, 13760, Note_on_c, 1, 71, 127
2, 13760, Note_on_c, 1, 75, 127
2, 13760, Note_on_c, 1, 83, 127
2, 13800, Note_off_c, 1, 32, 0
2, 13800, Note_off_c, 1, 44, 0
2, 13800, Note_off_c, 1, 71, 0
2, 13800, Note_off_c, 1, 75, 0
2, 13800, Note_off_c, 1, 78, 0
2, 13800, Note_off_c, 1, 83, 0
2, 13880, Note_on_c, 1, 38, 127
2, 13880, Note_on_c, 1, 50, 127
2, 13880, Note_on_c, 1, 55, 127
2, 13880, Note_on_c, 1, 67, 127
2, 14240, Note_off_c, 1, 55, 0
2, 14240, Note_off_c, 1, 67, 0
2, 14280, Note_off_c, 1, 38, 0
2, 14280, Note_on_c, 1, 43, 127
2, 14280, Note_off_c, 1, 50, 0
2, 14280, Note_on_c, 1, 52, 127
2, 14280, Note_on_c, 1, 60, 127
2, 14280, Note_on_c, 1, 71, 127
2, 14640, Note_off_c, 1, 52, 0
2, 14640, Note_off_c, 1, 60, 0
2, 14640, Note_off_c, 1, 71, 0
2, 14680, Note_on_c, 1, 50, 127
2, 14680, Note_on_c, 1, 59, 127
2, 14680, Note_on_c, 1, 67, 127
2, 14680, Note_on_c, 1, 74, 127
2, 15240, Note_off_c, 1, 43, 0
2, 15240, Note_off_c, 1, 50, 0
2, 15240, Note_off_c, 1, 59, 0
2, 15240, Note_off_c, 1, 67, 0
2, 15240, Note_off_c, 1, 74, 0
2, 15480, Note_on_c, 1, 45, 127
2, 15480, Note_on_c, 1, 77, 127
2, 15480, Note_on_c, 1, 83, 127
2, 15480, Note_on_c, 1, 89, 127
2, 15800, Note_off_c, 1, 45, 0
2, 15800, Note_on_c, 1, 53, 127
2, 15800, Note_on_c, 1, 57, 127
2, 15800, Note_on_c, 1, 60, 127
2, 15800, Note_on_c, 1, 65, 127
2, 15800, Note_on_c, 1, 72, 127
2, 15800, Note_on_c, 1, 75, 127
2, 15800, Note_off_c, 1, 77, 0
2, 15800, Note_on_c, 1, 81, 127
2, 15800, Note_off_c, 1, 83, 0
2, 15800, Note_on_c, 1, 84, 127
2, 15800, Note_off_c, 1, 89, 0
2, 15840, Note_off_c, 1, 53, 0
2, 15840, Note_off_c, 1, 57, 0
2, 15840, Note_off_c, 1, 60, 0
2, 15840, Note_off_c, 1, 65, 0
2, 15840, Note_off_c, 1, 72, 0
2, 15840, Note_off_c, 1, 75, 0
2, 15840, Note_off_c, 1, 81, 0
2, 15840, Note_off_c, 1, 84, 0
2, 15880, Note_on_c, 1, 59, 127
2, 15880, Note_on_c, 1, 66, 127
2, 15880, Note_on_c, 1, 69, 127
2, 15880, Note_on_c, 1, 78, 127
2, 15880, Note_on_c, 1, 81, 127
2, 15920, Note_on_c, 1, 30, 127
2, 15920, Note_on_c, 1, 38, 127
2, 15920, Note_on_c, 1, 42, 127
2, 15920, Note_on_c, 1, 57, 127
2, 15920, Note_off_c, 1, 59, 0
2, 15920, Note_on_c, 1, 62, 127
2, 15920, Note_off_c, 1, 66, 0
2, 15920, Note_off_c, 1, 69, 0
2, 15920, Note_on_c, 1, 70, 127
2, 15920, Note_off_c, 1, 78, 0
2, 15920, Note_off_c, 1, 81, 0
2, 16240, Note_off_c, 1, 30, 0
2, 16240, Note_off_c, 1, 38, 0
2, 16240, Note_off_c, 1, 42, 0
2, 16240, Note_off_c, 1, 57, 0
2, 16240, Note_off_c, 1, 62, 0
2, 16240, Note_off_c, 1, 70, 0
2, 18240, Note_on_c, 1, 40, 127
2, 18240, Note_on_c, 1, 52, 127
2, 18240, Note_on_c, 1, 64, 127
2, 18800, Note_off_c, 1, 40, 0
2, 18800, Note_off_c, 1, 52, 0
2, 18800, Note_off_c, 1, 64, 0
2, 18840, Note_on_c, 1, 41, 127
2, 18840, Note_on_c, 1, 53, 127
2, 18840, Note_on_c, 1, 65, 127
2, 20000, Note_off_c, 1, 41, 0
2, 20000, Note_off_c, 1, 53, 0
2, 20000, Note_off_c, 1, 65, 0
2, 20080, Note_on_c, 1, 35, 127
2, 20080, Note_on_c, 1, 47, 127
2, 20080, Note_on_c, 1, 59, 127
2, 20080, Note_on_c, 1, 71, 127
2, 21240, Note_off_c, 1, 35, 0
2, 21240, Note_off_c, 1, 47, 0
2, 21240, Note_off_c, 1, 59, 0
2, 21240, Note_off_c, 1, 71, 0
2, 21280, Note_on_c, 1, 27, 127
2, 21280, Note_on_c, 1, 39, 127
2, 21280, Note_on_c, 1, 51, 127
2, 22080, Note_off_c, 1, 27, 0
2, 22080, Note_off_c, 1, 39, 0
2, 22080, Note_off_c, 1, 51, 0
2, 22120, Note_on_c, 1, 27, 127
2, 22120, Note_on_c, 1, 39, 127
2, 22120, Note_on_c, 1, 51, 127
2, 22440, Note_off_c, 1, 27, 0
2, 22440, Note_off_c, 1, 39, 0
2, 22440, Note_off_c, 1, 51, 0
2, 22520, Note_on_c, 1, 31, 127
2, 22520, Note_on_c, 1, 43, 127
2, 22520, Note_on_c, 1, 55, 127
2, 22520, Note_on_c, 1, 58, 127
2, 22760, Note_on_c, 1, 62, 127
2, 22800, Note_off_c, 1, 62, 0
2, 23600, Note_off_c, 1, 31, 0
2, 23600, Note_off_c, 1, 43, 0
2, 23600, Note_off_c, 1, 55, 0
2, 23600, Note_off_c, 1, 58, 0
2, 23720, Note_on_c, 1, 31, 127
2, 23720, Note_on_c, 1, 43, 127
2, 23720, Note_on_c, 1, 55, 127
2, 23720, Note_on_c, 1, 58, 127
2, 24120, Note_off_c, 1, 31, 0
2, 24120, Note_off_c, 1, 43, 0
2, 24120, Note_off_c, 1, 55, 0
2, 24120, Note_off_c, 1, 58, 0
2, 24160, Note_on_c, 1, 31, 127
2, 24160, Note_on_c, 1, 43, 127
2, 24160, Note_on_c, 1, 55, 127
2, 24160, Note_on_c, 1, 58, 127
2, 24320, Note_off_c, 1, 31, 0
2, 24320, Note_off_c, 1, 43, 0
2, 24320, Note_off_c, 1, 55, 0
2, 24320, Note_off_c, 1, 58, 0
2, 26640, Note_on_c, 1, 42, 127
2, 26640, Note_on_c, 1, 54, 127
2, 26640, Note_on_c, 1, 66, 127
2, 26640, Note_on_c, 1, 78, 127
2, 27800, Note_off_c, 1, 42, 0
2, 27800, Note_off_c, 1, 54, 0
2, 27800, Note_off_c, 1, 66, 0
2, 27800, Note_off_c, 1, 78, 0
2, 27840, Note_on_c, 1, 39, 127
2, 27840, Note_on_c, 1, 51, 127
2, 27840, Note_on_c, 1, 63, 127
2, 27840, Note_on_c, 1, 75, 127
2, 28040, Note_off_c, 1, 39, 0
2, 28040, Note_off_c, 1, 51, 0
2, 28040, Note_off_c, 1, 63, 0
2, 28040, Note_off_c, 1, 75, 0
2, 28480, Note_on_c, 1, 50, 127
2, 28480, Note_on_c, 1, 57, 127
2, 28480, Note_on_c, 1, 74, 127
2, 28880, Note_on_c, 1, 66, 127
2, 28920, Note_off_c, 1, 66, 0
2, 28960, Note_on_c, 1, 66, 127
2, 29040, Note_off_c, 1, 66, 0
2, 29040, Note_off_c, 1, 74, 0
2, 29640, Note_off_c, 1, 50, 0
2, 29640, Note_off_c, 1, 57, 0
2, 29680, Note_on_c, 1, 55, 127
2, 29680, Note_on_c, 1, 57, 127
2, 29680, Note_on_c, 1, 59, 127
2, 29680, Note_on_c, 1, 62, 127
2, 29720, Note_on_c, 1, 42, 127
2, 29720, Note_on_c, 1, 49, 127
2, 29720, Note_off_c, 1, 55, 0
2, 29720, Note_off_c, 1, 57, 0
2, 29720, Note_on_c, 1, 58, 127
2, 29720, Note_off_c, 1, 59, 0
2, 29720, Note_off_c, 1, 62, 0
2, 29720, Note_on_c, 1, 68, 127
2, 29920, Note_off_c, 1, 68, 0
2, 29920, Note_on_c, 1, 70, 127
2, 29960, Note_on_c, 1, 68, 127
2, 29960, Note_off_c, 1, 70, 0
2, 30480, Note_off_c, 1, 42, 0
2, 30480, Note_off_c, 1, 49, 0
2, 30480, Note_off_c, 1, 58, 0
2, 30480, Note_off_c, 1, 68, 0
2, 30520, Note_on_c, 1, 42, 127
2, 30520, Note_on_c, 1, 49, 127
2, 30520, Note_on_c, 1, 58, 127
2, 30520, Note_on_c, 1, 68, 127
2, 30840, Note_on_c, 1, 66, 127
2, 30840, Note_off_c, 1, 68, 0
2, 30880, Note_off_c, 1, 49, 0
2, 30880, Note_off_c, 1, 58, 0
2, 30880, Note_off_c, 1, 66, 0
2, 30920, Note_on_c, 1, 51, 127
2, 30920, Note_on_c, 1, 59, 127
2, 30920, Note_on_c, 1, 70, 127
2, 31320, Note_off_c, 1, 70, 0
2, 31480, Note_off_c, 1, 42, 0
2, 31480, Note_off_c, 1, 51, 0
2, 31480, Note_off_c, 1, 59, 0
2, 31520, Note_on_c, 1, 42, 127
2, 31520, Note_on_c, 1, 53, 127
2, 31520, Note_on_c, 1, 61, 127
2, 31520, Note_on_c, 1, 70, 127
2, 31720, Note_off_c, 1, 70, 0
2, 31760, Note_off_c, 1, 42, 0
2, 31760, Note_on_c, 1, 49, 127
2, 31760, Note_off_c, 1, 53, 0
2, 31760, Note_on_c, 1, 57, 127
2, 31760, Note_off_c, 1, 61, 0
2, 31760, Note_on_c, 1, 66, 127
2, 31760, Note_on_c, 1, 72, 127
2, 31760, Note_on_c, 1, 76, 127
2, 31800, Note_on_c, 1, 42, 127
2, 31800, Note_off_c, 1, 49, 0
2, 31800, Note_on_c, 1, 53, 127
2, 31800, Note_off_c, 1, 57, 0
2, 31800, Note_on_c, 1, 61, 127
2, 31800, Note_off_c, 1, 66, 0
2, 31800, Note_on_c, 1, 70, 127
2, 31800, Note_off_c, 1, 72, 0
2, 31800, Note_off_c, 1, 76, 0
2, 31840, Note_off_c, 1, 70, 0
2, 31960, Note_on_c, 1, 66, 127
2, 32000, Note_off_c, 1, 66, 0
2, 32080, Note_off_c, 1, 42, 0
2, 32080, Note_off_c, 1, 53, 0
2, 32080, Note_off_c, 1, 61, 0
2, 32120, Note_on_c, 1, 42, 127
2, 32120, Note_on_c, 1, 51, 127
2, 32120, Note_on_c, 1, 59, 127
2, 32120, Note_on_c, 1, 70, 127
2, 32400, Note_off_c, 1, 70, 0
2, 32440, Note_on_c, 1, 70, 127
2, 32520, Note_off_c, 1, 42, 0
2, 32520, Note_off_c, 1, 51, 0
2, 32520, Note_off_c, 1, 59, 0
2, 32520, Note_off_c, 1, 70, 0
2, 32560, Note_on_c, 1, 42, 127
2, 32560, Note_on_c, 1, 51, 127
2, 32560, Note_on_c, 1, 59, 127
2, 32560, Note_on_c, 1, 70, 127
2, 32720, Note_off_c, 1, 42, 0
2, 32720, Note_off_c, 1, 51, 0
2, 32720, Note_on_c, 1, 57, 127
2, 32720, Note_off_c, 1, 59, 0
2, 32720, Note_on_c, 1, 69, 127
2, 32720, Note_off_c, 1, 70, 0
2, 32760, Note_on_c, 1, 36, 127
2, 32760, Note_on_c, 1, 43, 127
2, 32760, Note_on_c, 1, 48, 127
2, 32760, Note_on_c, 1, 52, 127
2, 32760, Note_on_c, 1, 56, 127
2, 32760, Note_off_c, 1, 57, 0
2, 32760, Note_on_c, 1, 64, 127
2, 32760, Note_on_c, 1, 67, 127
2, 32760, Note_off_c, 1, 69, 0
2, 32800, Note_off_c, 1, 36, 0
2, 32800, Note_off_c, 1, 43, 0
2, 32800, Note_off_c, 1, 48, 0
2, 32800, Note_off_c, 1, 52, 0
2, 32800, Note_on_c, 1, 55, 127
2, 32800, Note_off_c, 1, 56, 0
2, 32800, Note_on_c, 1, 58, 127
2, 32800, Note_on_c, 1, 61, 127
2, 32800, Note_on_c, 1, 63, 127
2, 32800, Note_off_c, 1, 64, 0
2, 32800, Note_on_c, 1, 70, 127
2, 32800, Note_on_c, 1, 77, 127
2, 32840, Note_on_c, 1, 41, 127
2, 32840, Note_off_c, 1, 55, 0
2, 32840, Note_off_c, 1, 58, 0
2, 32840, Note_off_c, 1, 61, 0
2, 32840, Note_off_c, 1, 63, 0
2, 32840, Note_off_c, 1, 67, 0
2, 32840, Note_on_c, 1, 74, 127
2, 32840, Note_off_c, 1, 77, 0
2, 32840, Note_on_c, 1, 80, 127
2, 32840, Note_on_c, 1, 82, 127
2, 32880, Note_on_c, 1, 30, 127
2, 32880, Note_off_c, 1, 41, 0
2, 32880, Note_on_c, 1, 42, 127
2, 32880, Note_on_c, 1, 54, 127
2, 32880, Note_on_c, 1, 58, 127
2, 32880, Note_on_c, 1, 64, 127
2, 32880, Note_on_c, 1, 66, 127
2, 32880, Note_off_c, 1, 70, 0
2, 32880, Note_off_c, 1, 74, 0
2, 32880, Note_off_c, 1, 80, 0
2, 32880, Note_off_c, 1, 82, 0
2, 32920, Note_off_c, 1, 30, 0
2, 32920, Note_off_c, 1, 42, 0
2, 32920, Note_off_c, 1, 54, 0
2, 32920, Note_on_c, 1, 56, 127
2, 32920, Note_off_c, 1, 58, 0
2, 32920, Note_off_c, 1, 66, 0
2, 32920, Note_on_c, 1, 71, 127
2, 32920, Note_on_c, 1, 74, 127
2, 32920, Note_on_c, 1, 83, 127
2, 32920, Note_on_c, 1, 86, 127
2, 32960, Note_on_c, 1, 42, 127
2, 32960, Note_off_c, 1, 56, 0
2, 32960, Note_off_c, 1, 64, 0
2, 32960, Note_off_c, 1, 74, 0
2, 32960, Note_on_c, 1, 78, 127
2, 32960, Note_off_c, 1, 83, 0
2, 32960, Note_off_c, 1, 86, 0
2, 33000, Note_on_c, 1, 39, 127
2, 33000, Note_off_c, 1, 42, 0
2, 33000, Note_on_c, 1, 43, 127
2, 33000, Note_on_c, 1, 51, 127
2, 33000, Note_off_c, 1, 71, 0
2, 33000, Note_on_c, 1, 72, 127
2, 33000, Note_off_c, 1, 78, 0
2, 33000, Note_on_c, 1, 84, 127
2, 33040, Note_on_c, 1, 35, 127
2, 33040, Note_off_c, 1, 39, 0
2, 33040, Note_off_c, 1, 43, 0
2, 33040, Note_on_c, 1, 47, 127
2, 33040, Note_off_c, 1, 51, 0
2, 33040, Note_on_c, 1, 68, 127
2, 33040, Note_off_c, 1, 72, 0
2, 33040, Note_on_c, 1, 74, 127
2, 33040, Note_on_c, 1, 78, 127
2, 33040, Note_on_c, 1, 80, 127
2, 33040, Note_off_c, 1, 84, 0
2, 33080, Note_off_c, 1, 35, 0
2, 33080, Note_off_c, 1, 47, 0
2, 33080, Note_on_c, 1, 54, 127
2, 33080, Note_on_c, 1, 59, 127
2, 33080, Note_on_c, 1, 63, 127
2, 33080, Note_on_c, 1, 66, 127
2, 33080, Note_off_c, 1, 68, 0
2, 33080, Note_off_c, 1, 74, 0
2, 33080, Note_off_c, 1, 78, 0
2, 33080, Note_off_c, 1, 80, 0
2, 33080, Note_on_c, 1, 94, 127
2, 33120, Note_on_c, 1, 41, 127
2, 33120, Note_on_c, 1, 46, 127
2, 33120, Note_on_c, 1, 50, 127
2, 33120, Note_off_c, 1, 54, 0
2, 33120, Note_off_c, 1, 59, 0
2, 33120, Note_off_c, 1, 63, 0
2, 33120, Note_off_c, 1, 66, 0
2, 33120, Note_on_c, 1, 73, 127
2, 33120, Note_off_c, 1, 94, 0
2, 33160, Note_off_c, 1, 41, 0
2, 33160, Note_off_c, 1, 46, 0
2, 33160, Note_on_c, 1, 49, 127
2, 33160, Note_off_c, 1, 50, 0
2, 33160, Note_on_c, 1, 53, 127
2, 33160, Note_on_c, 1, 59, 127
2, 33160, Note_on_c, 1, 63, 127
2, 33160, Note_off_c, 1, 73, 0
2, 33200, Note_off_c, 1, 49, 0
2, 33200, Note_off_c, 1, 53, 0
2, 33200, Note_on_c, 1, 56, 127
2, 33200, Note_off_c, 1, 59, 0
2, 33200, Note_on_c, 1, 62, 127
2, 33200, Note_off_c, 1, 63, 0
2, 33200, Note_on_c, 1, 65, 127
2, 33200, Note_on_c, 1, 71, 127
2, 33200, Note_on_c, 1, 87, 127
2, 33240, Note_off_c, 1, 56, 0
2, 33240, Note_off_c, 1, 62, 0
2, 33240, Note_off_c, 1, 65, 0
2, 33240, Note_on_c, 1, 69, 127
2, 33240, Note_off_c, 1, 71, 0
2, 33240, Note_on_c, 1, 79, 127
2, 33240, Note_on_c, 1, 96, 127
2, 33280, Note_off_c, 1, 69, 0
2, 33280, Note_off_c, 1, 79, 0
2, 33280, Note_off_c, 1, 87, 0
2, 33280, Note_off_c, 1, 96, 0
2, 33360, Note_on_c, 1, 33, 127
2, 33360, Note_on_c, 1, 45, 127
2, 33360, Note_on_c, 1, 57, 127
2, 33360, Note_on_c, 1, 62, 127
2, 33360, Note_on_c, 1, 66, 127
2, 33880, Note_off_c, 1, 33, 0
2, 33880, Note_off_c, 1, 45, 0
2, 33880, Note_off_c, 1, 57, 0
2, 33880, Note_off_c, 1, 62, 0
2, 33880, Note_off_c, 1, 66, 0
2, 33880, Note_on_c, 1, 78, 127
2, 33920, Note_off_c, 1, 78, 0
2, 33960, Note_on_c, 1, 61, 127
2, 33960, Note_on_c, 1, 68, 127
2, 33960, Note_on_c, 1, 73, 127
2, 33960, Note_on_c, 1, 77, 127
2, 33960, Note_on_c, 1, 85, 127
2, 34360, Note_off_c, 1, 61, 0
2, 34360, Note_off_c, 1, 68, 0
2, 34360, Note_off_c, 1, 73, 0
2, 34360, Note_off_c, 1, 77, 0
2, 34360, Note_off_c, 1, 85, 0
2, 34400, Note_on_c, 1, 61, 127
2, 34400, Note_on_c, 1, 68, 127
2, 34400, Note_on_c, 1, 73, 127
2, 34400, Note_on_c, 1, 77, 127
2, 34400, Note_on_c, 1, 85, 127
2, 35080, Note_on_c, 1, 48, 127
2, 35080, Note_on_c, 1, 50, 127
2, 35080, Note_on_c, 1, 54, 127
2, 35080, Note_on_c, 1, 60, 127
2, 35080, Note_off_c, 1, 61, 0
2, 35080, Note_off_c, 1, 68, 0
2, 35080, Note_on_c, 1, 72, 127
2, 35080, Note_off_c, 1, 73, 0
2, 35080, Note_on_c, 1, 74, 127
2, 35080, Note_off_c, 1, 77, 0
2, 35080, Note_on_c, 1, 78, 127
2, 35080, Note_on_c, 1, 84, 127
2, 35080, Note_off_c, 1, 85, 0
2, 35120, Note_off_c, 1, 48, 0
2, 35120, Note_off_c, 1, 50, 0
2, 35120, Note_off_c, 1, 54, 0
2, 35120, Note_off_c, 1, 60, 0
2, 35120, Note_off_c, 1, 72, 0
2, 35120, Note_off_c, 1, 74, 0
2, 35120, Note_off_c, 1, 78, 0
2, 35120, Note_off_c, 1, 84, 0
2, 35200, Note_on_c, 1, 61, 127
2, 35200, Note_on_c, 1, 68, 127
2, 35200, Note_on_c, 1, 73, 127
2, 35200, Note_on_c, 1, 77, 127
2, 35200, Note_on_c, 1, 85, 127
2, 36280, Note_off_c, 1, 61, 0
2, 36280, Note_off_c, 1, 68, 0
2, 36280, Note_off_c, 1, 73, 0
2, 36280, Note_off_c, 1, 77, 0
2, 36280, Note_off_c, 1, 85, 0
2, 36440, Note_on_c, 1, 61, 127
2, 36440, Note_on_c, 1, 68, 127
2, 36440, Note_on_c, 1, 73, 127
2, 36440, Note_on_c, 1, 77, 127
2, 36440, Note_on_c, 1, 85, 127
2, 37520, Note_off_c, 1, 61, 0
2, 37520, Note_off_c, 1, 68, 0
2, 37520, Note_off_c, 1, 73, 0
2, 37520, Note_off_c, 1, 77, 0
2, 37520, Note_off_c, 1, 85, 0
2, 37640, Note_on_c, 1, 61, 127
2, 37640, Note_on_c, 1, 68, 127
2, 37640, Note_on_c, 1, 73, 127
2, 37640, Note_on_c, 1, 77, 127
2, 37640, Note_on_c, 1, 85, 127
2, 38440, Note_off_c, 1, 61, 0
2, 38440, Note_off_c, 1, 68, 0
2, 38440, Note_off_c, 1, 73, 0
2, 38440, Note_off_c, 1, 77, 0
2, 38440, Note_off_c, 1, 85, 0
2, 38480, Note_on_c, 1, 61, 127
2, 38480, Note_on_c, 1, 68, 127
2, 38480, Note_on_c, 1, 73, 127
2, 38480, Note_on_c, 1, 77, 127
2, 38480, Note_on_c, 1, 85, 127
2, 38800, Note_off_c, 1, 61, 0
2, 38800, Note_off_c, 1, 68, 0
2, 38800, Note_off_c, 1, 73, 0
2, 38800, Note_off_c, 1, 77, 0
2, 38800, Note_off_c, 1, 85, 0
2, 38880, Note_on_c, 1, 54, 127
2, 38880, Note_on_c, 1, 58, 127
2, 38880, Note_on_c, 1, 61, 127
2, 38880, Note_on_c, 1, 66, 127
2, 38880, Note_on_c, 1, 82, 127
2, 38880, Note_on_c, 1, 90, 127
2, 38880, Note_on_c, 1, 94, 127
2, 39000, Note_off_c, 1, 58, 0
2, 39000, Note_on_c, 1, 59, 127
2, 39000, Note_off_c, 1, 61, 0
2, 39000, Note_on_c, 1, 63, 127
2, 39000, Note_off_c, 1, 82, 0
2, 39000, Note_on_c, 1, 83, 127
2, 39000, Note_off_c, 1, 94, 0
2, 39000, Note_on_c, 1, 95, 127
2, 39080, Note_on_c, 1, 58, 127
2, 39080, Note_off_c, 1, 59, 0
2, 39080, Note_on_c, 1, 61, 127
2, 39080, Note_off_c, 1, 63, 0
2, 39080, Note_on_c, 1, 82, 127
2, 39080, Note_off_c, 1, 83, 0
2, 39080, Note_on_c, 1, 94, 127
2, 39080, Note_off_c, 1, 95, 0
2, 39120, Note_off_c, 1, 58, 0
2, 39120, Note_on_c, 1, 59, 127
2, 39120, Note_off_c, 1, 61, 0
2, 39120, Note_on_c, 1, 63, 127
2, 39120, Note_off_c, 1, 82, 0
2, 39120, Note_on_c, 1, 83, 127
2, 39120, Note_off_c, 1, 94, 0
2, 39120, Note_on_c, 1, 95, 127
2, 39440, Note_on_c, 1, 49, 127
2, 39440, Note_off_c, 1, 54, 0
2, 39440, Note_off_c, 1, 59, 0
2, 39440, Note_off_c, 1, 63, 0
2, 39440, Note_off_c, 1, 66, 0
2, 39440, Note_off_c, 1, 83, 0
2, 39440, Note_off_c, 1, 90, 0
2, 39440, Note_off_c, 1, 95, 0
2, 39480, Note_on_c, 1, 39, 127
2, 39480, Note_on_c, 1, 47, 127
2, 39480, Note_off_c, 1, 49, 0
2, 39480, Note_on_c, 1, 51, 127
2, 39480, Note_on_c, 1, 75, 127
2, 39480, Note_on_c, 1, 87, 127
2, 39840, Note_off_c, 1, 39, 0
2, 39840, Note_off_c, 1, 47, 0
2, 39840, Note_off_c, 1, 51, 0
2, 39840, Note_on_c, 1, 64, 127
2, 39840, Note_off_c, 1, 75, 0
2, 39840, Note_on_c, 1, 88, 127
2, 39840, Note_on_c, 1, 92, 127
2, 39880, Note_on_c, 1, 39, 127
2, 39880, Note_on_c, 1, 47, 127
2, 39880, Note_on_c, 1, 51, 127
2, 39880, Note_off_c, 1, 64, 0
2, 39880, Note_on_c, 1, 75, 127
2, 39880, Note_off_c, 1, 88, 0
2, 39880, Note_off_c, 1, 92, 0
2, 40000, Note_off_c, 1, 39, 0
2, 40000, Note_off_c, 1, 47, 0
2, 40000, Note_on_c, 1, 49, 127
2, 40000, Note_off_c, 1, 51, 0
2, 40000, Note_on_c, 1, 53, 127
2, 40000, Note_on_c, 1, 58, 127
2, 40000, Note_off_c, 1, 75, 0
2, 40000, Note_on_c, 1, 81, 127
2, 40000, Note_off_c, 1, 87, 0
2, 40040, Note_off_c, 1, 49, 0
2, 40040, Note_off_c, 1, 53, 0
2, 40040, Note_off_c, 1, 58, 0
2, 40040, Note_off_c, 1, 81, 0
2, 40080, Note_on_c, 1, 70, 127
2, 40080, Note_on_c, 1, 73, 127
2, 40080, Note_on_c, 1, 78, 127
2, 40480, Note_off_c, 1, 70, 0
2, 40480, Note_off_c, 1, 73, 0
2, 40480, Note_off_c, 1, 78, 0
2, 40520, Note_on_c, 1, 70, 127
2, 40520, Note_on_c, 1, 73, 127
2, 40520, Note_on_c, 1, 78, 127
2, 40680, Note_off_c, 1, 70, 0
2, 40680, Note_off_c, 1, 73, 0
2, 40680, Note_off_c, 1, 78, 0
2, 40720, Note_on_c, 1, 37, 127
2, 40720, Note_on_c, 1, 49, 127
2, 40720, Note_on_c, 1, 53, 127
2, 40720, Note_on_c, 1, 63, 127
2, 40720, Note_on_c, 1, 65, 127
2, 41280, Note_off_c, 1, 37, 0
2, 41280, Note_off_c, 1, 49, 0
2, 41280, Note_off_c, 1, 53, 0
2, 41280, Note_off_c, 1, 63, 0
2, 41280, Note_off_c, 1, 65, 0
2, 41320, Note_on_c, 1, 49, 127
2, 41320, Note_on_c, 1, 53, 127
2, 41320, Note_on_c, 1, 56, 127
2, 41320, Note_on_c, 1, 61, 127
2, 41320, Note_on_c, 1, 75, 127
2, 41560, Note_off_c, 1, 49, 0
2, 41560, Note_off_c, 1, 53, 0
2, 41560, Note_off_c, 1, 56, 0
2, 41560, Note_off_c, 1, 61, 0
2, 41560, Note_on_c, 1, 73, 127
2, 41560, Note_off_c, 1, 75, 0
2, 41920, Note_on_c, 1, 54, 127
2, 41920, Note_on_c, 1, 58, 127
2, 41920, Note_on_c, 1, 61, 127
2, 41920, Note_on_c, 1, 66, 127
2, 41920, Note_on_c, 1, 70, 127
2, 42320, Note_off_c, 1, 54, 0
2, 42320, Note_off_c, 1, 58, 0
2, 42320, Note_off_c, 1, 61, 0
2, 42320, Note_off_c, 1, 66, 0
2, 42320, Note_off_c, 1, 70, 0
2, 42320, Note_off_c, 1, 73, 0
2, 42360, Note_on_c, 1, 54, 127
2, 42360, Note_on_c, 1, 58, 127
2, 42360, Note_on_c, 1, 61, 127
2, 42360, Note_on_c, 1, 66, 127
2, 42360, Note_on_c, 1, 70, 127
2, 42360, Note_on_c, 1, 73, 127
2, 42520, Note_off_c, 1, 54, 0
2, 42520, Note_off_c, 1, 58, 0
2, 42520, Note_off_c, 1, 61, 0
2, 42520, Note_off_c, 1, 66, 0
2, 42520, Note_off_c, 1, 70, 0
2, 42520, Note_off_c, 1, 73, 0
2, 42560, Note_on_c, 1, 54, 127
2, 42560, Note_on_c, 1, 57, 127
2, 42560, Note_on_c, 1, 61, 127
2, 42560, Note_on_c, 1, 78, 127
2, 43080, Note_off_c, 1, 54, 0
2, 43080, Note_off_c, 1, 57, 0
2, 43080, Note_off_c, 1, 61, 0
2, 43160, Note_on_c, 1, 54, 127
2, 43160, Note_on_c, 1, 57, 127
2, 43160, Note_on_c, 1, 61, 127
2, 43680, Note_off_c, 1, 54, 0
2, 43680, Note_off_c, 1, 57, 0
2, 43680, Note_off_c, 1, 61, 0
2, 43760, Note_on_c, 1, 54, 127
2, 43760, Note_on_c, 1, 57, 127
2, 43760, Note_on_c, 1, 61, 127
2, 44160, Note_off_c, 1, 54, 0
2, 44160, Note_off_c, 1, 57, 0
2, 44160, Note_off_c, 1, 61, 0
2, 44160, Note_off_c, 1, 78, 0
2, 44200, Note_on_c, 1, 54, 127
2, 44200, Note_on_c, 1, 57, 127
2, 44200, Note_on_c, 1, 61, 127
2, 44200, Note_on_c, 1, 78, 127
2, 44320, Note_off_c, 1, 54, 0
2, 44320, Note_off_c, 1, 57, 0
2, 44320, Note_off_c, 1, 61, 0
2, 44400, Note_on_c, 1, 57, 127
2, 44400, Note_on_c, 1, 66, 127
2, 44400, Note_off_c, 1, 78, 0
2, 44400, Note_on_c, 1, 81, 127
2, 44400, Note_on_c, 1, 84, 127
2, 44520, Note_off_c, 1, 57, 0
2, 44520, Note_on_c, 1, 59, 127
2, 44520, Note_off_c, 1, 66, 0
2, 44520, Note_off_c, 1, 81, 0
2, 44520, Note_on_c, 1, 83, 127
2, 44520, Note_off_c, 1, 84, 0
2, 44520, Note_on_c, 1, 92, 127
2, 44560, Note_on_c, 1, 57, 127
2, 44560, Note_off_c, 1, 59, 0
2, 44560, Note_on_c, 1, 66, 127
2, 44560, Note_on_c, 1, 81, 127
2, 44560, Note_off_c, 1, 83, 0
2, 44560, Note_on_c, 1, 84, 127
2, 44560, Note_off_c, 1, 92, 0
2, 44600, Note_on_c, 1, 63, 127
2, 44600, Note_on_c, 1, 65, 127
2, 44600, Note_off_c, 1, 66, 0
2, 44600, Note_on_c, 1, 72, 127
2, 44600, Note_on_c, 1, 77, 127
2, 44600, Note_off_c, 1, 81, 0
2, 44600, Note_off_c, 1, 84, 0
2, 44640, Note_off_c, 1, 72, 0
2, 44640, Note_off_c, 1, 77, 0
2, 44680, Note_on_c, 1, 56, 127
2, 44680, Note_off_c, 1, 57, 0
2, 44680, Note_on_c, 1, 61, 127
2, 44680, Note_off_c, 1, 63, 0
2, 44680, Note_on_c, 1, 85, 127
2, 44840, Note_off_c, 1, 85, 0
2, 44840, Note_on_c, 1, 89, 127
2, 44880, Note_off_c, 1, 56, 0
2, 44880, Note_off_c, 1, 61, 0
2, 44880, Note_off_c, 1, 65, 0
2, 44920, Note_off_c, 1, 89, 0
2, 44920, Note_on_c, 1, 90, 127
2, 44960, Note_off_c, 1, 90, 0
2, 45000, Note_on_c, 1, 58, 127
2, 45000, Note_on_c, 1, 61, 127
2, 45000, Note_on_c, 1, 64, 127
2, 45000, Note_on_c, 1, 66, 127
2, 45000, Note_on_c, 1, 88, 127
2, 45520, Note_off_c, 1, 58, 0
2, 45520, Note_off_c, 1, 61, 0
2, 45520, Note_off_c, 1, 64, 0
2, 45520, Note_off_c, 1, 66, 0
2, 45520, Note_off_c, 1, 88, 0
2, 45520, Note_on_c, 1, 90, 127
2, 45560, Note_on_c, 1, 88, 127
2, 45560, Note_off_c, 1, 90, 0
2, 45600, Note_on_c, 1, 58, 127
2, 45600, Note_on_c, 1, 61, 127
2, 45600, Note_on_c, 1, 64, 127
2, 45600, Note_on_c, 1, 66, 127
2, 46000, Note_off_c, 1, 58, 0
2, 46000, Note_off_c, 1, 61, 0
2, 46000, Note_off_c, 1, 64, 0
2, 46000, Note_off_c, 1, 66, 0
2, 46000, Note_off_c, 1, 88, 0
2, 46040, Note_on_c, 1, 58, 127
2, 46040, Note_on_c, 1, 61, 127
2, 46040, Note_on_c, 1, 64, 127
2, 46040, Note_on_c, 1, 66, 127
2, 46040, Note_on_c, 1, 88, 127
2, 46160, Note_off_c, 1, 58, 0
2, 46160, Note_off_c, 1, 61, 0
2, 46160, Note_off_c, 1, 64, 0
2, 46160, Note_off_c, 1, 66, 0
2, 46240, Note_on_c, 1, 58, 127
2, 46240, Note_on_c, 1, 61, 127
2, 46240, Note_on_c, 1, 64, 127
2, 46240, Note_on_c, 1, 66, 127
2, 46800, Note_off_c, 1, 58, 0
2, 46800, Note_off_c, 1, 61, 0
2, 46800, Note_off_c, 1, 64, 0
2, 46800, Note_off_c, 1, 66, 0
2, 46840, Note_on_c, 1, 58, 127
2, 46840, Note_on_c, 1, 61, 127
2, 46840, Note_on_c, 1, 64, 127
2, 46840, Note_on_c, 1, 66, 127
2, 47360, Note_off_c, 1, 58, 0
2, 47360, Note_off_c, 1, 61, 0
2, 47360, Note_off_c, 1, 64, 0
2, 47360, Note_off_c, 1, 66, 0
2, 47400, Note_off_c, 1, 88, 0
2, 47440, Note_on_c, 1, 59, 127
2, 47440, Note_on_c, 1, 68, 127
2, 47440, Note_on_c, 1, 78, 127
2, 47440, Note_on_c, 1, 87, 127
2, 47840, Note_off_c, 1, 59, 0
2, 47840, Note_off_c, 1, 68, 0
2, 47840, Note_off_c, 1, 78, 0
2, 47840, Note_off_c, 1, 87, 0
2, 47880, Note_on_c, 1, 59, 127
2, 47880, Note_on_c, 1, 68, 127
2, 47880, Note_on_c, 1, 78, 127
2, 47880, Note_on_c, 1, 87, 127
2, 48000, Note_off_c, 1, 68, 0
2, 48000, Note_off_c, 1, 78, 0
2, 48440, Note_off_c, 1, 87, 0
2, 48480, Note_on_c, 1, 87, 127
2, 48640, Note_off_c, 1, 59, 0
2, 48640, Note_off_c, 1, 87, 0
2, 48680, Note_on_c, 1, 43, 127
2, 48680, Note_on_c, 1, 88, 127
2, 48920, Note_off_c, 1, 88, 0
2, 48960, Note_on_c, 1, 88, 127
2, 49200, Note_off_c, 1, 43, 0
2, 49200, Note_on_c, 1, 44, 127
2, 49200, Note_on_c, 1, 83, 127
2, 49200, Note_off_c, 1, 88, 0
2, 49240, Note_on_c, 1, 43, 127
2, 49240, Note_off_c, 1, 44, 0
2, 49240, Note_off_c, 1, 83, 0
2, 49280, Note_off_c, 1, 43, 0
2, 49280, Note_on_c, 1, 52, 127
2, 49280, Note_on_c, 1, 56, 127
2, 49280, Note_on_c, 1, 59, 127
2, 49280, Note_on_c, 1, 61, 127
2, 49280, Note_on_c, 1, 80, 127
2, 49440, Note_off_c, 1, 80, 0
2, 49680, Note_off_c, 1, 52, 0
2, 49680, Note_off_c, 1, 56, 0
2, 49680, Note_off_c, 1, 59, 0
2, 49680, Note_off_c, 1, 61, 0
2, 49720, Note_on_c, 1, 52, 127
2, 49720, Note_on_c, 1, 56, 127
2, 49720, Note_on_c, 1, 59, 127
2, 49720, Note_on_c, 1, 61, 127
2, 49880, Note_off_c, 1, 52, 0
2, 49880, Note_off_c, 1, 56, 0
2, 49880, Note_off_c, 1, 59, 0
2, 49880, Note_off_c, 1, 61, 0
2, 49920, Note_on_c, 1, 71, 127
2, 50480, Note_off_c, 1, 71, 0
2, 50520, Note_on_c, 1, 58, 127
2, 50520, Note_on_c, 1, 79, 127
2, 51080, Note_off_c, 1, 58, 0
2, 51120, Note_on_c, 1, 63, 127
2, 51680, Note_off_c, 1, 63, 0
2, 51720, Note_off_c, 1, 79, 0
2, 51760, Note_on_c, 1, 62, 127
2, 51760, Note_on_c, 1, 64, 127
2, 51760, Note_on_c, 1, 71, 127
2, 51760, Note_on_c, 1, 79, 127
2, 52280, Note_off_c, 1, 62, 0
2, 52280, Note_off_c, 1, 71, 0
2, 52360, Note_on_c, 1, 71, 127
2, 52920, Note_off_c, 1, 64, 0
2, 52920, Note_off_c, 1, 71, 0
2, 52920, Note_off_c, 1, 79, 0
2, 52960, Note_on_c, 1, 67, 127
2, 52960, Note_on_c, 1, 76, 127
2, 53440, Note_off_c, 1, 76, 0
2, 53560, Note_on_c, 1, 73, 127
2, 53760, Note_off_c, 1, 67, 0
2, 53760, Note_off_c, 1, 73, 0
2, 53800, Note_on_c, 1, 67, 127
2, 53800, Note_on_c, 1, 73, 127
2, 54160, Note_off_c, 1, 67, 0
2, 54160, Note_off_c, 1, 73, 0
2, 54200, Note_on_c, 1, 68, 127
2, 54200, Note_on_c, 1, 71, 127
2, 54200, Note_on_c, 1, 78, 127
2, 54200, Note_on_c, 1, 83, 127
2, 54760, Note_off_c, 1, 68, 0
2, 54760, Note_off_c, 1, 71, 0
2, 54760, Note_on_c, 1, 72, 127
2, 54760, Note_on_c, 1, 75, 127
2, 54760, Note_off_c, 1, 83, 0
2, 55360, Note_off_c, 1, 75, 0
2, 55400, Note_on_c, 1, 75, 127
2, 55400, Note_on_c, 1, 80, 127
2, 55760, Note_off_c, 1, 72, 0
2, 55760, Note_off_c, 1, 75, 0
2, 55760, Note_off_c, 1, 78, 0
2, 55760, Note_off_c, 1, 80, 0
2, 55800, Note_on_c, 1, 72, 127
2, 55800, Note_on_c, 1, 75, 127
2, 55800, Note_on_c, 1, 78, 127
2, 55800, Note_on_c, 1, 80, 127
2, 56000, Note_off_c, 1, 80, 0
2, 56040, Note_on_c, 1, 79, 127
2, 56600, Note_off_c, 1, 79, 0
2, 56640, Note_on_c, 1, 80, 127
2, 57120, Note_off_c, 1, 72, 0
2, 57120, Note_off_c, 1, 75, 0
2, 57160, Note_off_c, 1, 78, 0
2, 57160, Note_off_c, 1, 80, 0
2, 57240, Note_on_c, 1, 72, 127
2, 57240, Note_on_c, 1, 75, 127
2, 57240, Note_on_c, 1, 78, 127
2, 57240, Note_on_c, 1, 80, 127
2, 57640, Note_off_c, 1, 72, 0
2, 57640, Note_off_c, 1, 75, 0
2, 57640, Note_off_c, 1, 78, 0
2, 57640, Note_off_c, 1, 80, 0
2, 57680, Note_on_c, 1, 72, 127
2, 57680, Note_on_c, 1, 75, 127
2, 57680, Note_on_c, 1, 78, 127
2, 57680, Note_on_c, 1, 80, 127
2, 58360, Note_off_c, 1, 72, 0
2, 58360, Note_off_c, 1, 75, 0
2, 58400, Note_on_c, 1, 77, 127
2, 58400, Note_off_c, 1, 78, 0
2, 58400, Note_off_c, 1, 80, 0
2, 58440, Note_off_c, 1, 77, 0
2, 58480, Note_on_c, 1, 74, 127
2, 58480, Note_on_c, 1, 78, 127
2, 58480, Note_on_c, 1, 81, 127
2, 58480, Note_on_c, 1, 90, 127
2, 59240, Note_on_c, 1, 67, 127
2, 59240, Note_off_c, 1, 78, 0
2, 59240, Note_on_c, 1, 79, 127
2, 59240, Note_off_c, 1, 81, 0
2, 59240, Note_on_c, 1, 83, 127
2, 59240, Note_off_c, 1, 90, 0
2, 59280, Note_off_c, 1, 67, 0
2, 59280, Note_on_c, 1, 78, 127
2, 59280, Note_off_c, 1, 79, 0
2, 59280, Note_on_c, 1, 81, 127
2, 59280, Note_off_c, 1, 83, 0
2, 59280, Note_on_c, 1, 90, 127
2, 59480, Note_off_c, 1, 74, 0
2, 59480, Note_off_c, 1, 78, 0
2, 59480, Note_off_c, 1, 81, 0
2, 59480, Note_off_c, 1, 90, 0
2, 59520, Note_on_c, 1, 74, 127
2, 59520, Note_on_c, 1, 78, 127
2, 59520, Note_on_c, 1, 81, 127
2, 59520, Note_on_c, 1, 90, 127
2, 59640, Note_off_c, 1, 74, 0
2, 59640, Note_off_c, 1, 78, 0
2, 59640, Note_off_c, 1, 81, 0
2, 59640, Note_off_c, 1, 90, 0
2, 59720, Note_on_c, 1, 64, 127
2, 59720, Note_on_c, 1, 68, 127
2, 59720, Note_on_c, 1, 73, 127
2, 59720, Note_on_c, 1, 80, 127
2, 60280, Note_on_c, 1, 62, 127
2, 60280, Note_off_c, 1, 64, 0
2, 60280, Note_on_c, 1, 65, 127
2, 60280, Note_on_c, 1, 71, 127
2, 60280, Note_off_c, 1, 73, 0
2, 60280, Note_off_c, 1, 80, 0
2, 60320, Note_off_c, 1, 62, 0
2, 60320, Note_on_c, 1, 64, 127
2, 60320, Note_off_c, 1, 65, 0
2, 60320, Note_off_c, 1, 71, 0
2, 60320, Note_on_c, 1, 73, 127
2, 60320, Note_on_c, 1, 80, 127
2, 60840, Note_off_c, 1, 64, 0
2, 60840, Note_off_c, 1, 68, 0
2, 60840, Note_off_c, 1, 73, 0
2, 60840, Note_off_c, 1, 80, 0
2, 60920, Note_on_c, 1, 64, 127
2, 60920, Note_on_c, 1, 68, 127
2, 60920, Note_on_c, 1, 73, 127
2, 60920, Note_on_c, 1, 80, 127
2, 61440, Note_on_c, 1, 47, 127
2, 61440, Note_on_c, 1, 61, 127
2, 61440, Note_on_c, 1, 63, 127
2, 61440, Note_off_c, 1, 64, 0
2, 61440, Note_off_c, 1, 73, 0
2, 61440, Note_off_c, 1, 80, 0
2, 61480, Note_off_c, 1, 47, 0
2, 61480, Note_off_c, 1, 61, 0
2, 61480, Note_off_c, 1, 63, 0
2, 61480, Note_off_c, 1, 68, 0
2, 61520, Note_on_c, 1, 41, 127
2, 61520, Note_on_c, 1, 53, 127
2, 61520, Note_on_c, 1, 65, 127
2, 61520, Note_on_c, 1, 68, 127
2, 61520, Note_on_c, 1, 73, 127
2, 61520, Note_on_c, 1, 77, 127
2, 61680, Note_off_c, 1, 41, 0
2, 61680, Note_off_c, 1, 53, 0
2, 61680, Note_off_c, 1, 65, 0
2, 61680, Note_off_c, 1, 68, 0
2, 61680, Note_off_c, 1, 73, 0
2, 61680, Note_off_c, 1, 77, 0
2, 61720, Note_on_c, 1, 41, 127
2, 61720, Note_on_c, 1, 53, 127
2, 61720, Note_on_c, 1, 65, 127
2, 61720, Note_on_c, 1, 68, 127
2, 61720, Note_on_c, 1, 73, 127
2, 61720, Note_on_c, 1, 77, 127
2, 62080, Note_off_c, 1, 41, 0
2, 62080, Note_off_c, 1, 53, 0
2, 62080, Note_off_c, 1, 65, 0
2, 62080, Note_off_c, 1, 68, 0
2, 62080, Note_off_c, 1, 73, 0
2, 62080, Note_off_c, 1, 77, 0
2, 62160, Note_on_c, 1, 46, 127
2, 62160, Note_on_c, 1, 53, 127
2, 62160, Note_on_c, 1, 55, 127
2, 62160, Note_on_c, 1, 58, 127
2, 62160, Note_on_c, 1, 61, 127
2, 62160, Note_on_c, 1, 64, 127
2, 62680, Note_off_c, 1, 46, 0
2, 62680, Note_off_c, 1, 53, 0
2, 62680, Note_off_c, 1, 55, 0
2, 62680, Note_off_c, 1, 58, 0
2, 62680, Note_on_c, 1, 59, 127
2, 62680, Note_off_c, 1, 61, 0
2, 62680, Note_off_c, 1, 64, 0
2, 62680, Note_on_c, 1, 71, 127
2, 62720, Note_on_c, 1, 43, 127
2, 62720, Note_on_c, 1, 48, 127
2, 62720, Note_on_c, 1, 51, 127
2, 62720, Note_on_c, 1, 55, 127
2, 62720, Note_off_c, 1, 59, 0
2, 62720, Note_on_c, 1, 63, 127
2, 62720, Note_off_c, 1, 71, 0
2, 62720, Note_on_c, 1, 72, 127
2, 62760, Note_off_c, 1, 43, 0
2, 62760, Note_off_c, 1, 48, 0
2, 62760, Note_on_c, 1, 49, 127
2, 62760, Note_off_c, 1, 51, 0
2, 62760, Note_on_c, 1, 52, 127
2, 62760, Note_on_c, 1, 57, 127
2, 62760, Note_on_c, 1, 61, 127
2, 62760, Note_off_c, 1, 63, 0
2, 62760, Note_on_c, 1, 64, 127
2, 62760, Note_off_c, 1, 72, 0
2, 62800, Note_on_c, 1, 42, 127
2, 62800, Note_off_c, 1, 52, 0
2, 62800, Note_off_c, 1, 55, 0
2, 62800, Note_off_c, 1, 57, 0
2, 62800, Note_on_c, 1, 58, 127
2, 62800, Note_off_c, 1, 61, 0
2, 62800, Note_off_c, 1, 64, 0
2, 62800, Note_on_c, 1, 73, 127
2, 62800, Note_on_c, 1, 78, 127
2, 62800, Note_on_c, 1, 82, 127
2, 62800, Note_on_c, 1, 85, 127
2, 62840, Note_off_c, 1, 42, 0
2, 62840, Note_off_c, 1, 49, 0
2, 62840, Note_off_c, 1, 58, 0
2, 62840, Note_on_c, 1, 59, 127
2, 62840, Note_on_c, 1, 63, 127
2, 62840, Note_off_c, 1, 78, 0
2, 62840, Note_on_c, 1, 81, 127
2, 62840, Note_off_c, 1, 82, 0
2, 62840, Note_off_c, 1, 85, 0
2, 62840, Note_on_c, 1, 93, 127
2, 62880, Note_on_c, 1, 49, 127
2, 62880, Note_on_c, 1, 57, 127
2, 62880, Note_off_c, 1, 59, 0
2, 62880, Note_off_c, 1, 63, 0
2, 62880, Note_on_c, 1, 66, 127
2, 62880, Note_on_c, 1, 69, 127
2, 62880, Note_off_c, 1, 73, 0
2, 62880, Note_off_c, 1, 81, 0
2, 62880, Note_off_c, 1, 93, 0
2, 62920, Note_off_c, 1, 49, 0
2, 62920, Note_on_c, 1, 54, 127
2, 62920, Note_off_c, 1, 57, 0
2, 62920, Note_on_c, 1, 64, 127
2, 62920, Note_off_c, 1, 69, 0
2, 62920, Note_on_c, 1, 85, 127
2, 62960, Note_on_c, 1, 45, 127
2, 62960, Note_on_c, 1, 52, 127
2, 62960, Note_off_c, 1, 54, 0
2, 62960, Note_off_c, 1, 64, 0
2, 62960, Note_off_c, 1, 66, 0
2, 62960, Note_off_c, 1, 85, 0
2, 62960, Note_on_c, 1, 86, 127
2, 62960, Note_on_c, 1, 88, 127
2, 63000, Note_on_c, 1, 41, 127
2, 63000, Note_off_c, 1, 45, 0
2, 63000, Note_off_c, 1, 52, 0
2, 63000, Note_on_c, 1, 74, 127
2, 63000, Note_on_c, 1, 77, 127
2, 63000, Note_on_c, 1, 82, 127
2, 63000, Note_off_c, 1, 88, 0
2, 63040, Note_off_c, 1, 41, 0
2, 63040, Note_on_c, 1, 67, 127
2, 63040, Note_on_c, 1, 71, 127
2, 63040, Note_off_c, 1, 74, 0
2, 63040, Note_off_c, 1, 82, 0
2, 63040, Note_off_c, 1, 86, 0
2, 63040, Note_on_c, 1, 89, 127
2, 63080, Note_on_c, 1, 46, 127
2, 63080, Note_on_c, 1, 50, 127
2, 63080, Note_on_c, 1, 56, 127
2, 63080, Note_off_c, 1, 67, 0
2, 63080, Note_off_c, 1, 71, 0
2, 63080, Note_off_c, 1, 77, 0
2, 63080, Note_on_c, 1, 85, 127
2, 63080, Note_off_c, 1, 89, 0
2, 63120, Note_off_c, 1, 46, 0
2, 63120, Note_off_c, 1, 50, 0
2, 63120, Note_off_c, 1, 56, 0
2, 63120, Note_on_c, 1, 63, 127
2, 63120, Note_on_c, 1, 64, 127
2, 63120, Note_on_c, 1, 68, 127
2, 63120, Note_on_c, 1, 75, 127
2, 63120, Note_off_c, 1, 85, 0
2, 63160, Note_on_c, 1, 56, 127
2, 63160, Note_on_c, 1, 59, 127
2, 63160, Note_on_c, 1, 62, 127
2, 63160, Note_off_c, 1, 63, 0
2, 63160, Note_off_c, 1, 64, 0
2, 63160, Note_on_c, 1, 66, 127
2, 63160, Note_off_c, 1, 68, 0
2, 63160, Note_on_c, 1, 71, 127
2, 63160, Note_on_c, 1, 74, 127
2, 63160, Note_off_c, 1, 75, 0
2, 63160, Note_on_c, 1, 78, 127
2, 63160, Note_on_c, 1, 83, 127
2, 63200, Note_on_c, 1, 49, 127
2, 63200, Note_off_c, 1, 56, 0
2, 63200, Note_off_c, 1, 62, 0
2, 63200, Note_off_c, 1, 66, 0
2, 63200, Note_off_c, 1, 71, 0
2, 63200, Note_off_c, 1, 74, 0
2, 63200, Note_off_c, 1, 78, 0
2, 63200, Note_off_c, 1, 83, 0
2, 63200, Note_on_c, 1, 89, 127
2, 63240, Note_on_c, 1, 42, 127
2, 63240, Note_on_c, 1, 45, 127
2, 63240, Note_on_c, 1, 54, 127
2, 63240, Note_off_c, 1, 59, 0
2, 63240, Note_on_c, 1, 69, 127
2, 63240, Note_off_c, 1, 89, 0
2, 63280, Note_off_c, 1, 42, 0
2, 63280, Note_off_c, 1, 45, 0
2, 63280, Note_off_c, 1, 49, 0
2, 63280, Note_off_c, 1, 54, 0
2, 63280, Note_on_c, 1, 59, 127
2, 63280, Note_off_c, 1, 69, 0
2, 63280, Note_on_c, 1, 88, 127
2, 63320, Note_on_c, 1, 63, 127
2, 63320, Note_on_c, 1, 75, 127
2, 63320, Note_on_c, 1, 87, 127
2, 63320, Note_off_c, 1, 88, 0
2, 63720, Note_off_c, 1, 59, 0
2, 63720, Note_off_c, 1, 63, 0
2, 63720, Note_off_c, 1, 75, 0
2, 63720, Note_off_c, 1, 87, 0
2, 63760, Note_on_c, 1, 59, 127
2, 63760, Note_on_c, 1, 63, 127
2, 63760, Note_on_c, 1, 75, 127
2, 63760, Note_on_c, 1, 87, 127
2, 64520, Note_off_c, 1, 59, 0
2, 64520, Note_off_c, 1, 63, 0
2, 64520, Note_off_c, 1, 75, 0
2, 64520, Note_off_c, 1, 87, 0
2, 64560, Note_on_c, 1, 51, 127
2, 64560, Note_on_c, 1, 63, 127
2, 64560, Note_on_c, 1, 74, 127
2, 64560, Note_on_c, 1, 86, 127
2, 65120, Note_off_c, 1, 74, 0
2, 65120, Note_off_c, 1, 86, 0
2, 65160, Note_on_c, 1, 49, 127
2, 65160, Note_off_c, 1, 51, 0
2, 65160, Note_on_c, 1, 56, 127
2, 65160, Note_off_c, 1, 63, 0
2, 65160, Note_on_c, 1, 68, 127
2, 65160, Note_on_c, 1, 73, 127
2, 65160, Note_on_c, 1, 77, 127
2, 65760, Note_off_c, 1, 49, 0
2, 65760, Note_off_c, 1, 56, 0
2, 65760, Note_off_c, 1, 68, 0
2, 65760, Note_off_c, 1, 73, 0
2, 65760, Note_off_c, 1, 77, 0
2, 65800, Note_on_c, 1, 49, 127
2, 65800, Note_on_c, 1, 56, 127
2, 65800, Note_on_c, 1, 68, 127
2, 65800, Note_on_c, 1, 73, 127
2, 65800, Note_on_c, 1, 77, 127
2, 67800, Note_off_c, 1, 49, 0
2, 67800, Note_off_c, 1, 56, 0
2, 67800, Note_off_c, 1, 68, 0
2, 67800, Note_off_c, 1, 73, 0
2, 67800, Note_off_c, 1, 77, 0
2, 67840, Note_on_c, 1, 49, 127
2, 67840, Note_on_c, 1, 56, 127
2, 67840, Note_on_c, 1, 68, 127
2, 67840, Note_on_c, 1, 73, 127
2, 67840, Note_on_c, 1, 77, 127
2, 69840, Note_off_c, 1, 49, 0
2, 69840, Note_off_c, 1, 56, 0
2, 69840, Note_off_c, 1, 68, 0
2, 69840, Note_off_c, 1, 73, 0
2, 69840, Note_off_c, 1, 77, 0
2, 69880, Note_on_c, 1, 49, 127
2, 69880, Note_on_c, 1, 56, 127
2, 69880, Note_on_c, 1, 68, 127
2, 69880, Note_on_c, 1, 73, 127
2, 69880, Note_on_c, 1, 77, 127
2, 71800, Note_off_c, 1, 49, 0
2, 71800, Note_off_c, 1, 56, 0
2, 71800, Note_off_c, 1, 68, 0
2, 71800, Note_off_c, 1, 73, 0
2, 71800, Note_off_c, 1, 77, 0
2, 71920, Note_on_c, 1, 52, 127
2, 71920, Note_on_c, 1, 66, 127
2, 71920, Note_on_c, 1, 75, 127
2, 72480, Note_off_c, 1, 66, 0
2, 72480, Note_off_c, 1, 75, 0
2, 72520, Note_on_c, 1, 68, 127
2, 72520, Note_on_c, 1, 73, 127
2, 73040, Note_off_c, 1, 68, 0
2, 73040, Note_off_c, 1, 73, 0
2, 73080, Note_off_c, 1, 52, 0
2, 73120, Note_on_c, 1, 45, 127
2, 73120, Note_on_c, 1, 50, 127
2, 73120, Note_on_c, 1, 83, 127
2, 73160, Note_off_c, 1, 50, 0
2, 73160, Note_on_c, 1, 56, 127
2, 73160, Note_off_c, 1, 83, 0
2, 73160, Note_on_c, 1, 86, 127
2, 73200, Note_on_c, 1, 50, 127
2, 73200, Note_off_c, 1, 56, 0
2, 73200, Note_on_c, 1, 83, 127
2, 73200, Note_off_c, 1, 86, 0
2, 73240, Note_off_c, 1, 50, 0
2, 73240, Note_on_c, 1, 56, 127
2, 73240, Note_off_c, 1, 83, 0
2, 73240, Note_on_c, 1, 86, 127
2, 73320, Note_on_c, 1, 50, 127
2, 73320, Note_off_c, 1, 56, 0
2, 73320, Note_on_c, 1, 83, 127
2, 73320, Note_off_c, 1, 86, 0
2, 73400, Note_off_c, 1, 50, 0
2, 73400, Note_on_c, 1, 56, 127
2, 73400, Note_off_c, 1, 83, 0
2, 73400, Note_on_c, 1, 86, 127
2, 73640, Note_off_c, 1, 45, 0
2, 73640, Note_on_c, 1, 48, 127
2, 73640, Note_on_c, 1, 65, 127
2, 73640, Note_on_c, 1, 74, 127
2, 73640, Note_off_c, 1, 86, 0
2, 73680, Note_off_c, 1, 48, 0
2, 73680, Note_off_c, 1, 65, 0
2, 73680, Note_off_c, 1, 74, 0
2, 73680, Note_on_c, 1, 83, 127
2, 73720, Note_on_c, 1, 73, 127
2, 73720, Note_off_c, 1, 83, 0
2, 73720, Note_on_c, 1, 89, 127
2, 73840, Note_off_c, 1, 56, 0
2, 73840, Note_off_c, 1, 73, 0
2, 73840, Note_off_c, 1, 89, 0
2, 73880, Note_on_c, 1, 56, 127
2, 73880, Note_on_c, 1, 73, 127
2, 73880, Note_on_c, 1, 89, 127
2, 73920, Note_on_c, 1, 46, 127
2, 73920, Note_on_c, 1, 53, 127
2, 73920, Note_off_c, 1, 56, 0
2, 73920, Note_on_c, 1, 65, 127
2, 73920, Note_off_c, 1, 73, 0
2, 73920, Note_on_c, 1, 74, 127
2, 73920, Note_on_c, 1, 77, 127
2, 73920, Note_off_c, 1, 89, 0
2, 73960, Note_off_c, 1, 46, 0
2, 73960, Note_off_c, 1, 53, 0
2, 73960, Note_on_c, 1, 56, 127
2, 73960, Note_off_c, 1, 65, 0
2, 73960, Note_on_c, 1, 73, 127
2, 73960, Note_off_c, 1, 74, 0
2, 73960, Note_off_c, 1, 77, 0
2, 73960, Note_on_c, 1, 89, 127
2, 74280, Note_off_c, 1, 56, 0
2, 74280, Note_on_c, 1, 58, 127
2, 74280, Note_on_c, 1, 85, 127
2, 74280, Note_off_c, 1, 89, 0
2, 74320, Note_on_c, 1, 44, 127
2, 74320, Note_off_c, 1, 58, 0
2, 74320, Note_off_c, 1, 73, 0
2, 74320, Note_off_c, 1, 85, 0
2, 74320, Note_on_c, 1, 90, 127
2, 74320, Note_on_c, 1, 93, 127
2, 74360, Note_on_c, 1, 36, 127
2, 74360, Note_off_c, 1, 44, 0
2, 74360, Note_on_c, 1, 53, 127
2, 74360, Note_on_c, 1, 57, 127
2, 74360, Note_on_c, 1, 62, 127
2, 74360, Note_on_c, 1, 65, 127
2, 74360, Note_off_c, 1, 90, 0
2, 74360, Note_off_c, 1, 93, 0
2, 74560, Note_off_c, 1, 36, 0
2, 74560, Note_on_c, 1, 45, 127
2, 74560, Note_on_c, 1, 49, 127
2, 74560, Note_on_c, 1, 52, 127
2, 74560, Note_off_c, 1, 53, 0
2, 74560, Note_off_c, 1, 62, 0
2, 74560, Note_off_c, 1, 65, 0
2, 74560, Note_on_c, 1, 74, 127
2, 74600, Note_on_c, 1, 36, 127
2, 74600, Note_off_c, 1, 45, 0
2, 74600, Note_off_c, 1, 49, 0
2, 74600, Note_off_c, 1, 52, 0
2, 74600, Note_on_c, 1, 53, 127
2, 74600, Note_on_c, 1, 62, 127
2, 74600, Note_on_c, 1, 65, 127
2, 74600, Note_off_c, 1, 74, 0
2, 74880, Note_off_c, 1, 36, 0
2, 74880, Note_off_c, 1, 53, 0
2, 74880, Note_off_c, 1, 57, 0
2, 74880, Note_off_c, 1, 62, 0
2, 74880, Note_off_c, 1, 65, 0
2, 74920, Note_on_c, 1, 28, 127
2, 74920, Note_on_c, 1, 39, 127
2, 74920, Note_on_c, 1, 40, 127
2, 74920, Note_on_c, 1, 47, 127
2, 74920, Note_on_c, 1, 51, 127
2, 74920, Note_on_c, 1, 52, 127
2, 74920, Note_on_c, 1, 59, 127
2, 74920, Note_on_c, 1, 68, 127
2, 74920, Note_on_c, 1, 71, 127
2, 75480, Note_off_c, 1, 28, 0
2, 75480, Note_off_c, 1, 39, 0
2, 75480, Note_off_c, 1, 40, 0
2, 75480, Note_off_c, 1, 47, 0
2, 75480, Note_off_c, 1, 51, 0
2, 75480, Note_off_c, 1, 52, 0
2, 75480, Note_off_c, 1, 59, 0
2, 75480, Note_on_c, 1, 61, 127
2, 75480, Note_off_c, 1, 68, 0
2, 75480, Note_off_c, 1, 71, 0
2, 75480, Note_on_c, 1, 88, 127
2, 75520, Note_on_c, 1, 28, 127
2, 75520, Note_on_c, 1, 39, 127
2, 75520, Note_on_c, 1, 40, 127
2, 75520, Note_on_c, 1, 47, 127
2, 75520, Note_on_c, 1, 51, 127
2, 75520, Note_on_c, 1, 52, 127
2, 75520, Note_on_c, 1, 59, 127
2, 75520, Note_off_c, 1, 61, 0
2, 75520, Note_on_c, 1, 68, 127
2, 75520, Note_on_c, 1, 71, 127
2, 75520, Note_off_c, 1, 88, 0
2, 76080, Note_off_c, 1, 28, 0
2, 76080, Note_off_c, 1, 39, 0
2, 76080, Note_off_c, 1, 40, 0
2, 76080, Note_off_c, 1, 47, 0
2, 76080, Note_off_c, 1, 51, 0
2, 76080, Note_off_c, 1, 52, 0
2, 76080, Note_off_c, 1, 59, 0
2, 76080, Note_off_c, 1, 68, 0
2, 76080, Note_off_c, 1, 71, 0
2, 76160, Note_on_c, 1, 58, 127
2, 76160, Note_on_c, 1, 63, 127
2, 76160, Note_on_c, 1, 65, 127
2, 76160, Note_on_c, 1, 73, 127
2, 76160, Note_on_c, 1, 84, 127
2, 76200, Note_off_c, 1, 58, 0
2, 76200, Note_off_c, 1, 65, 0
2, 76200, Note_on_c, 1, 66, 127
2, 76200, Note_off_c, 1, 73, 0
2, 76200, Note_on_c, 1, 76, 127
2, 76200, Note_on_c, 1, 88, 127
2, 76240, Note_on_c, 1, 44, 127
2, 76240, Note_on_c, 1, 56, 127
2, 76240, Note_off_c, 1, 63, 0
2, 76240, Note_on_c, 1, 65, 127
2, 76240, Note_off_c, 1, 66, 0
2, 76240, Note_on_c, 1, 71, 127
2, 76240, Note_on_c, 1, 75, 127
2, 76240, Note_off_c, 1, 76, 0
2, 76240, Note_on_c, 1, 77, 127
2, 76240, Note_off_c, 1, 84, 0
2, 76240, Note_off_c, 1, 88, 0
2, 76280, Note_off_c, 1, 44, 0
2, 76280, Note_off_c, 1, 56, 0
2, 76280, Note_off_c, 1, 65, 0
2, 76280, Note_off_c, 1, 71, 0
2, 76280, Note_off_c, 1, 77, 0
2, 76280, Note_on_c, 1, 79, 127
2, 76280, Note_on_c, 1, 85, 127
2, 76320, Note_on_c, 1, 34, 127
2, 76320, Note_on_c, 1, 46, 127
2, 76320, Note_on_c, 1, 56, 127
2, 76320, Note_on_c, 1, 70, 127
2, 76320, Note_off_c, 1, 75, 0
2, 76320, Note_off_c, 1, 79, 0
2, 76320, Note_off_c, 1, 85, 0
2, 76360, Note_off_c, 1, 34, 0
2, 76360, Note_off_c, 1, 46, 0
2, 76360, Note_off_c, 1, 56, 0
2, 76360, Note_on_c, 1, 57, 127
2, 76360, Note_on_c, 1, 60, 127
2, 76360, Note_on_c, 1, 63, 127
2, 76360, Note_on_c, 1, 67, 127
2, 76360, Note_off_c, 1, 70, 0
2, 76360, Note_on_c, 1, 72, 127
2, 76360, Note_on_c, 1, 75, 127
2, 76360, Note_on_c, 1, 79, 127
2, 76360, Note_on_c, 1, 84, 127
2, 76400, Note_off_c, 1, 57, 0
2, 76400, Note_on_c, 1, 58, 127
2, 76400, Note_off_c, 1, 60, 0
2, 76400, Note_on_c, 1, 61, 127
2, 76400, Note_off_c, 1, 63, 0
2, 76400, Note_on_c, 1, 64, 127
2, 76400, Note_on_c, 1, 66, 127
2, 76400, Note_off_c, 1, 67, 0
2, 76400, Note_off_c, 1, 72, 0
2, 76400, Note_off_c, 1, 75, 0
2, 76400, Note_off_c, 1, 79, 0
2, 76400, Note_off_c, 1, 84, 0
2, 76400, Note_on_c, 1, 91, 127
2, 76440, Note_off_c, 1, 58, 0
2, 76440, Note_off_c, 1, 61, 0
2, 76440, Note_off_c, 1, 64, 0
2, 76440, Note_off_c, 1, 66, 0
2, 76440, Note_on_c, 1, 72, 127
2, 76440, Note_on_c, 1, 84, 127
2, 76440, Note_on_c, 1, 89, 127
2, 76440, Note_off_c, 1, 91, 0
2, 76440, Note_on_c, 1, 93, 127
2, 76440, Note_on_c, 1, 96, 127
2, 76480, Note_on_c, 1, 47, 127
2, 76480, Note_on_c, 1, 57, 127
2, 76480, Note_on_c, 1, 59, 127
2, 76480, Note_on_c, 1, 65, 127
2, 76480, Note_on_c, 1, 69, 127
2, 76480, Note_off_c, 1, 72, 0
2, 76480, Note_on_c, 1, 74, 127
2, 76480, Note_off_c, 1, 84, 0
2, 76480, Note_off_c, 1, 89, 0
2, 76480, Note_off_c, 1, 93, 0
2, 76480, Note_off_c, 1, 96, 0
2, 76520, Note_off_c, 1, 47, 0
2, 76520, Note_off_c, 1, 59, 0
2, 76520, Note_on_c, 1, 60, 127
2, 76520, Note_on_c, 1, 63, 127
2, 76520, Note_off_c, 1, 65, 0
2, 76520, Note_on_c, 1, 67, 127
2, 76520, Note_off_c, 1, 69, 0
2, 76520, Note_on_c, 1, 72, 127
2, 76520, Note_off_c, 1, 74, 0
2, 76520, Note_on_c, 1, 75, 127
2, 76520, Note_on_c, 1, 79, 127
2, 76520, Note_on_c, 1, 84, 127
2, 76560, Note_on_c, 1, 42, 127
2, 76560, Note_on_c, 1, 52, 127
2, 76560, Note_on_c, 1, 54, 127
2, 76560, Note_off_c, 1, 57, 0
2, 76560, Note_on_c, 1, 59, 127
2, 76560, Note_off_c, 1, 60, 0
2, 76560, Note_off_c, 1, 63, 0
2, 76560, Note_on_c, 1, 64, 127
2, 76560, Note_off_c, 1, 67, 0
2, 76560, Note_on_c, 1, 69, 127
2, 76560, Note_on_c, 1, 71, 127
2, 76560, Note_off_c, 1, 72, 0
2, 76560, Note_off_c, 1, 75, 0
2, 76560, Note_off_c, 1, 79, 0
2, 76560, Note_off_c, 1, 84, 0
2, 76600, Note_off_c, 1, 42, 0
2, 76600, Note_on_c, 1, 50, 127
2, 76600, Note_off_c, 1, 52, 0
2, 76600, Note_on_c, 1, 57, 127
2, 76600, Note_off_c, 1, 59, 0
2, 76600, Note_off_c, 1, 64, 0
2, 76600, Note_off_c, 1, 69, 0
2, 76600, Note_off_c, 1, 71, 0
2, 76600, Note_on_c, 1, 74, 127
2, 76600, Note_on_c, 1, 78, 127
2, 76640, Note_on_c, 1, 47, 127
2, 76640, Note_off_c, 1, 50, 0
2, 76640, Note_on_c, 1, 53, 127
2, 76640, Note_off_c, 1, 54, 0
2, 76640, Note_on_c, 1, 55, 127
2, 76640, Note_off_c, 1, 57, 0
2, 76640, Note_on_c, 1, 59, 127
2, 76640, Note_on_c, 1, 62, 127
2, 76640, Note_on_c, 1, 67, 127
2, 76640, Note_off_c, 1, 74, 0
2, 76640, Note_off_c, 1, 78, 0
2, 76680, Note_off_c, 1, 47, 0
2, 76680, Note_off_c, 1, 53, 0
2, 76680, Note_off_c, 1, 55, 0
2, 76680, Note_off_c, 1, 59, 0
2, 76680, Note_on_c, 1, 61, 127
2, 76680, Note_off_c, 1, 62, 0
2, 76680, Note_off_c, 1, 67, 0
2, 76680, Note_on_c, 1, 70, 127
2, 76680, Note_on_c, 1, 76, 127
2, 76680, Note_on_c, 1, 88, 127
2, 76720, Note_on_c, 1, 52, 127
2, 76720, Note_on_c, 1, 56, 127
2, 76720, Note_on_c, 1, 59, 127
2, 76720, Note_off_c, 1, 61, 0
2, 76720, Note_on_c, 1, 64, 127
2, 76720, Note_off_c, 1, 70, 0
2, 76720, Note_off_c, 1, 76, 0
2, 76720, Note_off_c, 1, 88, 0
2, 76760, Note_off_c, 1, 56, 0
2, 76760, Note_on_c, 1, 57, 127
2, 76760, Note_off_c, 1, 59, 0
2, 76760, Note_on_c, 1, 61, 127
2, 77360, Note_off_c, 1, 52, 0
2, 77360, Note_off_c, 1, 57, 0
2, 77360, Note_off_c, 1, 61, 0
2, 77360, Note_off_c, 1, 64, 0
2, 77360, Note_on_c, 1, 66, 127
2, 77360, Note_on_c, 1, 69, 127
2, 77360, Note_on_c, 1, 71, 127
2, 77360, Note_on_c, 1, 76, 127
2, 77360, Note_on_c, 1, 78, 127
2, 77360, Note_on_c, 1, 83, 127
2, 77360, Note_on_c, 1, 88, 127
2, 77360, Note_on_c, 1, 95, 127
2, 78160, Note_off_c, 1, 66, 0
2, 78160, Note_off_c, 1, 69, 0
2, 78160, Note_off_c, 1, 71, 0
2, 78160, Note_off_c, 1, 76, 0
2, 78160, Note_off_c, 1, 78, 0
2, 78160, Note_off_c, 1, 83, 0
2, 78160, Note_off_c, 1, 88, 0
2, 78160, Note_off_c, 1, 95, 0
2, 78200, Note_on_c, 1, 66, 127
2, 78200, Note_on_c, 1, 69, 127
2, 78200, Note_on_c, 1, 71, 127
2, 78200, Note_on_c, 1, 76, 127
2, 78200, Note_on_c, 1, 78, 127
2, 78200, Note_on_c, 1, 83, 127
2, 78200, Note_on_c, 1, 88, 127
2, 78200, Note_on_c, 1, 95, 127
2, 80200, Note_off_c, 1, 66, 0
2, 80200, Note_off_c, 1, 69, 0
2, 80200, Note_off_c, 1, 71, 0
2, 80200, Note_off_c, 1, 76, 0
2, 80200, Note_off_c, 1, 78, 0
2, 80200, Note_off_c, 1, 83, 0
2, 80200, Note_off_c, 1, 88, 0
2, 80200, Note_off_c, 1, 95, 0
2, 80240, Note_on_c, 1, 66, 127
2, 80240, Note_on_c, 1, 69, 127
2, 80240, Note_on_c, 1, 71, 127
2, 80240, Note_on_c, 1, 76, 127
2, 80240, Note_on_c, 1, 78, 127
2, 80240, Note_on_c, 1, 83, 127
2, 80240, Note_on_c, 1, 88, 127
2, 80240, Note_on_c, 1, 95, 127
2, 81000, Note_on_c, 1, 46, 127
2, 81000, Note_on_c, 1, 53, 127
2, 81000, Note_off_c, 1, 66, 0
2, 81000, Note_off_c, 1, 69, 0
2, 81000, Note_off_c, 1, 71, 0
2, 81000, Note_off_c, 1, 76, 0
2, 81000, Note_off_c, 1, 78, 0
2, 81000, Note_off_c, 1, 83, 0
2, 81000, Note_off_c, 1, 88, 0
2, 81000, Note_off_c, 1, 95, 0
2, 81040, Note_on_c, 1, 39, 127
2, 81040, Note_on_c, 1, 51, 127
2, 81040, Note_off_c, 1, 53, 0
2, 81040, Note_on_c, 1, 66, 127
2, 82120, Note_off_c, 1, 39, 0
2, 82120, Note_off_c, 1, 46, 0
2, 82120, Note_off_c, 1, 51, 0
2, 82120, Note_off_c, 1, 66, 0
2, 82160, Note_on_c, 1, 39, 127
2, 82160, Note_on_c, 1, 46, 127
2, 82160, Note_on_c, 1, 51, 127
2, 82160, Note_on_c, 1, 66, 127
2, 82200, Note_off_c, 1, 39, 0
2, 82200, Note_off_c, 1, 46, 0
2, 82200, Note_off_c, 1, 51, 0
2, 82200, Note_off_c, 1, 66, 0
2, 82240, Note_on_c, 1, 45, 127
2, 82240, Note_on_c, 1, 48, 127
2, 82240, Note_on_c, 1, 53, 127
2, 82240, Note_on_c, 1, 63, 127
2, 82480, Note_off_c, 1, 48, 0
2, 82800, Note_off_c, 1, 45, 0
2, 82800, Note_on_c, 1, 50, 127
2, 82800, Note_off_c, 1, 53, 0
2, 82800, Note_on_c, 1, 54, 127
2, 82800, Note_on_c, 1, 60, 127
2, 82800, Note_on_c, 1, 62, 127
2, 82800, Note_off_c, 1, 63, 0
2, 82840, Note_on_c, 1, 47, 127
2, 82840, Note_on_c, 1, 53, 127
2, 82840, Note_off_c, 1, 54, 0
2, 82840, Note_on_c, 1, 56, 127
2, 82840, Note_off_c, 1, 60, 0
2, 82840, Note_off_c, 1, 62, 0
2, 82840, Note_on_c, 1, 74, 127
2, 82880, Note_off_c, 1, 47, 0
2, 82880, Note_off_c, 1, 50, 0
2, 82880, Note_off_c, 1, 53, 0
2, 82880, Note_on_c, 1, 55, 127
2, 82880, Note_off_c, 1, 56, 0
2, 82880, Note_on_c, 1, 58, 127
2, 82880, Note_on_c, 1, 62, 127
2, 82880, Note_off_c, 1, 74, 0
2, 82880, Note_on_c, 1, 76, 127
2, 82920, Note_on_c, 1, 47, 127
2, 82920, Note_on_c, 1, 50, 127
2, 82920, Note_on_c, 1, 53, 127
2, 82920, Note_off_c, 1, 55, 0
2, 82920, Note_on_c, 1, 56, 127
2, 82920, Note_off_c, 1, 58, 0
2, 82920, Note_off_c, 1, 62, 0
2, 82920, Note_on_c, 1, 74, 127
2, 82920, Note_off_c, 1, 76, 0
2, 82960, Note_on_c, 1, 44, 127
2, 82960, Note_off_c, 1, 47, 0
2, 82960, Note_off_c, 1, 50, 0
2, 82960, Note_on_c, 1, 51, 127
2, 82960, Note_on_c, 1, 60, 127
2, 82960, Note_on_c, 1, 67, 127
2, 82960, Note_off_c, 1, 74, 0
2, 83000, Note_off_c, 1, 44, 0
2, 83000, Note_on_c, 1, 47, 127
2, 83000, Note_on_c, 1, 50, 127
2, 83000, Note_off_c, 1, 51, 0
2, 83000, Note_off_c, 1, 60, 0
2, 83000, Note_off_c, 1, 67, 0
2, 83000, Note_on_c, 1, 74, 127
2, 83080, Note_off_c, 1, 47, 0
2, 83080, Note_on_c, 1, 48, 127
2, 83080, Note_off_c, 1, 50, 0
2, 83080, Note_off_c, 1, 53, 0
2, 83080, Note_on_c, 1, 54, 127
2, 83080, Note_off_c, 1, 74, 0
2, 83120, Note_off_c, 1, 48, 0
2, 83120, Note_off_c, 1, 54, 0
2, 83120, Note_off_c, 1, 56, 0
2, 83120, Note_on_c, 1, 67, 127
2, 83120, Note_on_c, 1, 71, 127
2, 83120, Note_on_c, 1, 79, 127
2, 83120, Note_on_c, 1, 88, 127
2, 83120, Note_on_c, 1, 91, 127
2, 83160, Note_on_c, 1, 41, 127
2, 83160, Note_on_c, 1, 55, 127
2, 83160, Note_on_c, 1, 58, 127
2, 83160, Note_off_c, 1, 67, 0
2, 83160, Note_on_c, 1, 70, 127
2, 83160, Note_off_c, 1, 71, 0
2, 83160, Note_on_c, 1, 74, 127
2, 83160, Note_off_c, 1, 88, 0
2, 83160, Note_off_c, 1, 91, 0
2, 83200, Note_on_c, 1, 40, 127
2, 83200, Note_off_c, 1, 41, 0
2, 83200, Note_on_c, 1, 46, 127
2, 83200, Note_on_c, 1, 52, 127
2, 83200, Note_off_c, 1, 55, 0
2, 83200, Note_off_c, 1, 58, 0
2, 83200, Note_off_c, 1, 70, 0
2, 83200, Note_off_c, 1, 74, 0
2, 83200, Note_off_c, 1, 79, 0
2, 83240, Note_off_c, 1, 40, 0
2, 83240, Note_off_c, 1, 46, 0
2, 83240, Note_off_c, 1, 52, 0
2, 83240, Note_on_c, 1, 81, 127
2, 83240, Note_on_c, 1, 90, 127
2, 83240, Note_on_c, 1, 92, 127
2, 83240, Note_on_c, 1, 97, 127
2, 83280, Note_on_c, 1, 66, 127
2, 83280, Note_off_c, 1, 81, 0
2, 83280, Note_on_c, 1, 82, 127
2, 83280, Note_on_c, 1, 88, 127
2, 83280, Note_off_c, 1, 92, 0
2, 83280, Note_off_c, 1, 97, 0
2, 83320, Note_on_c, 1, 52, 127
2, 83320, Note_on_c, 1, 54, 127
2, 83320, Note_on_c, 1, 57, 127
2, 83320, Note_on_c, 1, 64, 127
2, 83320, Note_off_c, 1, 66, 0
2, 83320, Note_on_c, 1, 78, 127
2, 83320, Note_on_c, 1, 81, 127
2, 83320, Note_off_c, 1, 82, 0
2, 83320, Note_off_c, 1, 90, 0
2, 83360, Note_on_c, 1, 48, 127
2, 83360, Note_on_c, 1, 51, 127
2, 83360, Note_off_c, 1, 52, 0
2, 83360, Note_off_c, 1, 64, 0
2, 83360, Note_off_c, 1, 78, 0
2, 83360, Note_off_c, 1, 81, 0
2, 83360, Note_on_c, 1, 82, 127
2, 83360, Note_off_c, 1, 88, 0
2, 83400, Note_off_c, 1, 48, 0
2, 83400, Note_off_c, 1, 51, 0
2, 83400, Note_off_c, 1, 54, 0
2, 83400, Note_off_c, 1, 57, 0
2, 83400, Note_off_c, 1, 82, 0
2, 83440, Note_on_c, 1, 33, 127
2, 83440, Note_on_c, 1, 45, 127
2, 83440, Note_on_c, 1, 53, 127
2, 83440, Note_on_c, 1, 61, 127
2, 83440, Note_on_c, 1, 65, 127
2, 84000, Note_off_c, 1, 33, 0
2, 84000, Note_off_c, 1, 45, 0
2, 84040, Note_off_c, 1, 53, 0
2, 84040, Note_off_c, 1, 61, 0
2, 84040, Note_on_c, 1, 63, 127
2, 84040, Note_off_c, 1, 65, 0
2, 84040, Note_on_c, 1, 68, 127
2, 84040, Note_on_c, 1, 78, 127
2, 84040, Note_on_c, 1, 82, 127
2, 84040, Note_on_c, 1, 90, 127
2, 84320, Note_off_c, 1, 63, 0
2, 84320, Note_off_c, 1, 68, 0
2, 84320, Note_off_c, 1, 78, 0
2, 84320, Note_off_c, 1, 82, 0
2, 84320, Note_off_c, 1, 90, 0
2, 84360, Note_on_c, 1, 63, 127
2, 84360, Note_on_c, 1, 68, 127
2, 84360, Note_on_c, 1, 78, 127
2, 84360, Note_on_c, 1, 82, 127
2, 84360, Note_on_c, 1, 90, 127
2, 84600, Note_on_c, 1, 41, 127
2, 84600, Note_on_c, 1, 48, 127
2, 84600, Note_on_c, 1, 57, 127
2, 84600, Note_off_c, 1, 63, 0
2, 84600, Note_off_c, 1, 68, 0
2, 84600, Note_off_c, 1, 78, 0
2, 84600, Note_on_c, 1, 81, 127
2, 84600, Note_off_c, 1, 82, 0
2, 84600, Note_on_c, 1, 84, 127
2, 84600, Note_on_c, 1, 89, 127
2, 84600, Note_off_c, 1, 90, 0
2, 84600, Note_on_c, 1, 93, 127
2, 84640, Note_off_c, 1, 41, 0
2, 84640, Note_off_c, 1, 48, 0
2, 84640, Note_off_c, 1, 57, 0
2, 84640, Note_on_c, 1, 60, 127
2, 84640, Note_on_c, 1, 72, 127
2, 84640, Note_on_c, 1, 80, 127
2, 84640, Note_off_c, 1, 81, 0
2, 84640, Note_off_c, 1, 84, 0
2, 84640, Note_off_c, 1, 89, 0
2, 84640, Note_on_c, 1, 92, 127
2, 84640, Note_off_c, 1, 93, 0
2, 84680, Note_on_c, 1, 45, 127
2, 84680, Note_on_c, 1, 57, 127
2, 84680, Note_off_c, 1, 60, 0
2, 84680, Note_off_c, 1, 72, 0
2, 84680, Note_off_c, 1, 80, 0
2, 84680, Note_on_c, 1, 88, 127
2, 84680, Note_off_c, 1, 92, 0
2, 84680, Note_on_c, 1, 93, 127
2, 84680, Note_on_c, 1, 97, 127
2, 84680, Note_on_c, 1, 100, 127
2, 84720, Note_off_c, 1, 45, 0
2, 84720, Note_off_c, 1, 57, 0
2, 84720, Note_on_c, 1, 67, 127
2, 84720, Note_on_c, 1, 68, 127
2, 84720, Note_on_c, 1, 73, 127
2, 84720, Note_on_c, 1, 77, 127
2, 84720, Note_off_c, 1, 88, 0
2, 84720, Note_off_c, 1, 93, 0
2, 84720, Note_off_c, 1, 97, 0
2, 84720, Note_off_c, 1, 100, 0
2, 84760, Note_on_c, 1, 61, 127
2, 84760, Note_on_c, 1, 64, 127
2, 84760, Note_off_c, 1, 67, 0
2, 84760, Note_off_c, 1, 68, 0
2, 84760, Note_on_c, 1, 70, 127
2, 84760, Note_off_c, 1, 73, 0
2, 84760, Note_on_c, 1, 89, 127
2, 84800, Note_on_c, 1, 38, 127
2, 84800, Note_on_c, 1, 50, 127
2, 84800, Note_on_c, 1, 53, 127
2, 84800, Note_on_c, 1, 58, 127
2, 84800, Note_off_c, 1, 61, 0
2, 84800, Note_off_c, 1, 70, 0
2, 84800, Note_off_c, 1, 77, 0
2, 84800, Note_off_c, 1, 89, 0
2, 84840, Note_off_c, 1, 38, 0
2, 84840, Note_off_c, 1, 50, 0
2, 84840, Note_off_c, 1, 53, 0
2, 84840, Note_on_c, 1, 54, 127
2, 84840, Note_off_c, 1, 58, 0
2, 84840, Note_on_c, 1, 60, 127
2, 84840, Note_off_c, 1, 64, 0
2, 84840, Note_on_c, 1, 82, 127
2, 84840, Note_on_c, 1, 87, 127
2, 84840, Note_on_c, 1, 94, 127
2, 84880, Note_off_c, 1, 54, 0
2, 84880, Note_on_c, 1, 58, 127
2, 84880, Note_off_c, 1, 60, 0
2, 84880, Note_on_c, 1, 63, 127
2, 84880, Note_on_c, 1, 66, 127
2, 84880, Note_on_c, 1, 72, 127
2, 84880, Note_on_c, 1, 75, 127
2, 84880, Note_off_c, 1, 94, 0
2, 84920, Note_on_c, 1, 27, 127
2, 84920, Note_on_c, 1, 30, 127
2, 84920, Note_on_c, 1, 34, 127
2, 84920, Note_on_c, 1, 39, 127
2, 84920, Note_off_c, 1, 58, 0
2, 84920, Note_off_c, 1, 63, 0
2, 84920, Note_off_c, 1, 66, 0
2, 84920, Note_off_c, 1, 72, 0
2, 84920, Note_off_c, 1, 75, 0
2, 84920, Note_off_c, 1, 82, 0
2, 84920, Note_off_c, 1, 87, 0
2, 84960, Note_off_c, 1, 27, 0
2, 84960, Note_off_c, 1, 30, 0
2, 84960, Note_off_c, 1, 34, 0
2, 84960, Note_off_c, 1, 39, 0
2, 84960, Note_on_c, 1, 53, 127
2, 84960, Note_on_c, 1, 56, 127
2, 84960, Note_on_c, 1, 60, 127
2, 84960, Note_on_c, 1, 80, 127
2, 84960, Note_on_c, 1, 84, 127
2, 85040, Note_off_c, 1, 53, 0
2, 85040, Note_off_c, 1, 56, 0
2, 85040, Note_on_c, 1, 58, 127
2, 85040, Note_off_c, 1, 60, 0
2, 85040, Note_on_c, 1, 62, 127
2, 85040, Note_on_c, 1, 65, 127
2, 85040, Note_on_c, 1, 68, 127
2, 85040, Note_on_c, 1, 74, 127
2, 85040, Note_off_c, 1, 80, 0
2, 85040, Note_on_c, 1, 82, 127
2, 85040, Note_off_c, 1, 84, 0
2, 85040, Note_on_c, 1, 86, 127
2, 85080, Note_on_c, 1, 38, 127
2, 85080, Note_off_c, 1, 58, 0
2, 85080, Note_off_c, 1, 62, 0
2, 85080, Note_on_c, 1, 63, 127
2, 85080, Note_off_c, 1, 65, 0
2, 85080, Note_on_c, 1, 66, 127
2, 85080, Note_off_c, 1, 68, 0
2, 85080, Note_on_c, 1, 70, 127
2, 85080, Note_off_c, 1, 74, 0
2, 85080, Note_off_c, 1, 82, 0
2, 85080, Note_off_c, 1, 86, 0
2, 85120, Note_off_c, 1, 38, 0
2, 85120, Note_on_c, 1, 56, 127
2, 85120, Note_on_c, 1, 60, 127
2, 85120, Note_off_c, 1, 63, 0
2, 85120, Note_off_c, 1, 66, 0
2, 85120, Note_off_c, 1, 70, 0
2, 85120, Note_on_c, 1, 84, 127
2, 85120, Note_on_c, 1, 87, 127
2, 85160, Note_on_c, 1, 34, 127
2, 85160, Note_on_c, 1, 46, 127
2, 85160, Note_on_c, 1, 54, 127
2, 85160, Note_off_c, 1, 56, 0
2, 85160, Note_off_c, 1, 60, 0
2, 85160, Note_on_c, 1, 66, 127
2, 85160, Note_on_c, 1, 78, 127
2, 85160, Note_off_c, 1, 84, 0
2, 85160, Note_off_c, 1, 87, 0
2, 85200, Note_off_c, 1, 34, 0
2, 85200, Note_off_c, 1, 46, 0
2, 85200, Note_off_c, 1, 54, 0
2, 85200, Note_on_c, 1, 65, 127
2, 85200, Note_off_c, 1, 66, 0
2, 85200, Note_on_c, 1, 77, 127
2, 85200, Note_off_c, 1, 78, 0
2, 85200, Note_on_c, 1, 84, 127
2, 85200, Note_on_c, 1, 93, 127
2, 85200, Note_on_c, 1, 96, 127
2, 85240, Note_off_c, 1, 65, 0
2, 85240, Note_off_c, 1, 77, 0
2, 85240, Note_off_c, 1, 84, 0
2, 85240, Note_off_c, 1, 93, 0
2, 85240, Note_off_c, 1, 96, 0
2, 85280, Note_on_c, 1, 36, 127
2, 85280, Note_on_c, 1, 39, 127
2, 85280, Note_on_c, 1, 42, 127
2, 85280, Note_on_c, 1, 45, 127
2, 85280, Note_on_c, 1, 48, 127
2, 85280, Note_on_c, 1, 75, 127
2, 85280, Note_on_c, 1, 78, 127
2, 85280, Note_on_c, 1, 81, 127
2, 85280, Note_on_c, 1, 87, 127
2, 85320, Note_off_c, 1, 36, 0
2, 85320, Note_on_c, 1, 37, 127
2, 85320, Note_off_c, 1, 39, 0
2, 85320, Note_off_c, 1, 42, 0
2, 85320, Note_off_c, 1, 45, 0
2, 85320, Note_off_c, 1, 48, 0
2, 85320, Note_on_c, 1, 49, 127
2, 85360, Note_on_c, 1, 36, 127
2, 85360, Note_off_c, 1, 37, 0
2, 85360, Note_on_c, 1, 39, 127
2, 85360, Note_on_c, 1, 42, 127
2, 85360, Note_on_c, 1, 45, 127
2, 85360, Note_on_c, 1, 48, 127
2, 85360, Note_off_c, 1, 49, 0
2, 85480, Note_off_c, 1, 36, 0
2, 85480, Note_on_c, 1, 37, 127
2, 85480, Note_off_c, 1, 39, 0
2, 85480, Note_off_c, 1, 42, 0
2, 85480, Note_off_c, 1, 45, 0
2, 85480, Note_off_c, 1, 48, 0
2, 85480, Note_on_c, 1, 49, 127
2, 85520, Note_on_c, 1, 36, 127
2, 85520, Note_off_c, 1, 37, 0
2, 85520, Note_on_c, 1, 48, 127
2, 85520, Note_off_c, 1, 49, 0
2, 85560, Note_off_c, 1, 36, 0
2, 85560, Note_on_c, 1, 37, 127
2, 85560, Note_off_c, 1, 48, 0
2, 85560, Note_on_c, 1, 49, 127
2, 85600, Note_on_c, 1, 36, 127
2, 85600, Note_off_c, 1, 37, 0
2, 85600, Note_on_c, 1, 39, 127
2, 85600, Note_on_c, 1, 42, 127
2, 85600, Note_on_c, 1, 45, 127
2, 85600, Note_on_c, 1, 48, 127
2, 85600, Note_off_c, 1, 49, 0
2, 85640, Note_off_c, 1, 36, 0
2, 85640, Note_on_c, 1, 37, 127
2, 85640, Note_off_c, 1, 39, 0
2, 85640, Note_off_c, 1, 42, 0
2, 85640, Note_off_c, 1, 45, 0
2, 85640, Note_off_c, 1, 48, 0
2, 85640, Note_on_c, 1, 49, 127
2, 85680, Note_on_c, 1, 36, 127
2, 85680, Note_off_c, 1, 37, 0
2, 85680, Note_on_c, 1, 39, 127
2, 85680, Note_on_c, 1, 42, 127
2, 85680, Note_on_c, 1, 45, 127
2, 85680, Note_on_c, 1, 48, 127
2, 85680, Note_off_c, 1, 49, 0
2, 85720, Note_off_c, 1, 36, 0
2, 85720, Note_off_c, 1, 42, 0
2, 85720, Note_off_c, 1, 45, 0
2, 85720, Note_off_c, 1, 48, 0
2, 85720, Note_on_c, 1, 51, 127
2, 85760, Note_on_c, 1, 36, 127
2, 85760, Note_on_c, 1, 42, 127
2, 85760, Note_on_c, 1, 45, 127
2, 85760, Note_on_c, 1, 48, 127
2, 85760, Note_off_c, 1, 51, 0
2, 85840, Note_off_c, 1, 36, 0
2, 85840, Note_off_c, 1, 39, 0
2, 85840, Note_off_c, 1, 42, 0
2, 85840, Note_off_c, 1, 45, 0
2, 85840, Note_off_c, 1, 48, 0
2, 85840, Note_off_c, 1, 75, 0
2, 85840, Note_off_c, 1, 78, 0
2, 85840, Note_off_c, 1, 81, 0
2, 85840, Note_on_c, 1, 82, 127
2, 85840, Note_on_c, 1, 91, 127
2, 85840, Note_on_c, 1, 94, 127
2, 85880, Note_on_c, 1, 57, 127
2, 85880, Note_on_c, 1, 62, 127
2, 85880, Note_on_c, 1, 65, 127
2, 85880, Note_on_c, 1, 71, 127
2, 85880, Note_on_c, 1, 74, 127
2, 85880, Note_on_c, 1, 80, 127
2, 85880, Note_off_c, 1, 82, 0
2, 85880, Note_on_c, 1, 83, 127
2, 85880, Note_off_c, 1, 87, 0
2, 85880, Note_on_c, 1, 89, 127
2, 85880, Note_off_c, 1, 91, 0
2, 85880, Note_off_c, 1, 94, 0
2, 86440, Note_off_c, 1, 57, 0
2, 86440, Note_off_c, 1, 62, 0
2, 86440, Note_off_c, 1, 65, 0
2, 86440, Note_off_c, 1, 71, 0
2, 86440, Note_off_c, 1, 74, 0
2, 86440, Note_off_c, 1, 80, 0
2, 86440, Note_off_c, 1, 83, 0
2, 86440, Note_off_c, 1, 89, 0
2, 86520, Note_on_c, 1, 29, 127
2, 86520, Note_on_c, 1, 41, 127
2, 86520, Note_on_c, 1, 84, 127
2, 86520, Note_on_c, 1, 92, 127
2, 86520, Note_on_c, 1, 96, 127
2, 86680, Note_off_c, 1, 29, 0
2, 86680, Note_off_c, 1, 41, 0
2, 86720, Note_on_c, 1, 43, 127
2, 86720, Note_on_c, 1, 87, 127
2, 86720, Note_off_c, 1, 92, 0
2, 86720, Note_off_c, 1, 96, 0
2, 86760, Note_off_c, 1, 43, 0
2, 86760, Note_off_c, 1, 87, 0
2, 86760, Note_on_c, 1, 92, 127
2, 86760, Note_on_c, 1, 96, 127
2, 86800, Note_off_c, 1, 84, 0
2, 86800, Note_on_c, 1, 91, 127
2, 86800, Note_off_c, 1, 92, 0
2, 86800, Note_on_c, 1, 94, 127
2, 86800, Note_off_c, 1, 96, 0
2, 86800, Note_on_c, 1, 98, 127
2, 86800, Note_on_c, 1, 103, 127
2, 86840, Note_on_c, 1, 44, 127
2, 86840, Note_on_c, 1, 54, 127
2, 86840, Note_on_c, 1, 69, 127
2, 86840, Note_on_c, 1, 72, 127
2, 86840, Note_on_c, 1, 75, 127
2, 86840, Note_on_c, 1, 78, 127
2, 86840, Note_on_c, 1, 81, 127
2, 86840, Note_off_c, 1, 91, 0
2, 86840, Note_off_c, 1, 94, 0
2, 86840, Note_off_c, 1, 98, 0
2, 86840, Note_off_c, 1, 103, 0
2, 86880, Note_on_c, 1, 38, 127
2, 86880, Note_off_c, 1, 44, 0
2, 86880, Note_on_c, 1, 52, 127
2, 86880, Note_off_c, 1, 54, 0
2, 86880, Note_on_c, 1, 57, 127
2, 86880, Note_off_c, 1, 69, 0
2, 86880, Note_off_c, 1, 72, 0
2, 86880, Note_off_c, 1, 75, 0
2, 86880, Note_on_c, 1, 76, 127
2, 86880, Note_off_c, 1, 78, 0
2, 86880, Note_off_c, 1, 81, 0
2, 86920, Note_off_c, 1, 38, 0
2, 86920, Note_off_c, 1, 52, 0
2, 86920, Note_on_c, 1, 54, 127
2, 86920, Note_off_c, 1, 57, 0
2, 86920, Note_on_c, 1, 66, 127
2, 86920, Note_on_c, 1, 72, 127
2, 86920, Note_off_c, 1, 76, 0
2, 86920, Note_on_c, 1, 81, 127
2, 86920, Note_on_c, 1, 84, 127
2, 87000, Note_off_c, 1, 54, 0
2, 87000, Note_off_c, 1, 66, 0
2, 87000, Note_on_c, 1, 67, 127
2, 87000, Note_on_c, 1, 76, 127
2, 87000, Note_off_c, 1, 81, 0
2, 87000, Note_off_c, 1, 84, 0
2, 87000, Note_on_c, 1, 88, 127
2, 87000, Note_on_c, 1, 96, 127
2, 87000, Note_on_c, 1, 100, 127
2, 87040, Note_on_c, 1, 44, 127
2, 87040, Note_off_c, 1, 67, 0
2, 87040, Note_off_c, 1, 72, 0
2, 87040, Note_off_c, 1, 76, 0
2, 87040, Note_on_c, 1, 80, 127
2, 87040, Note_off_c, 1, 88, 0
2, 87040, Note_on_c, 1, 89, 127
2, 87040, Note_on_c, 1, 92, 127
2, 87040, Note_off_c, 1, 96, 0
2, 87040, Note_off_c, 1, 100, 0
2, 87080, Note_off_c, 1, 44, 0
2, 87080, Note_off_c, 1, 80, 0
2, 87080, Note_on_c, 1, 82, 127
2, 87080, Note_off_c, 1, 89, 0
2, 87080, Note_on_c, 1, 91, 127
2, 87080, Note_off_c, 1, 92, 0
2, 87080, Note_on_c, 1, 94, 127
2, 87120, Note_on_c, 1, 29, 127
2, 87440, Note_off_c, 1, 29, 0
2, 87440, Note_on_c, 1, 41, 127
2, 87480, Note_on_c, 1, 29, 127
2, 87480, Note_off_c, 1, 41, 0
2, 87680, Note_off_c, 1, 29, 0
2, 87680, Note_off_c, 1, 82, 0
2, 87680, Note_off_c, 1, 91, 0
2, 87680, Note_off_c, 1, 94, 0
2, 87720, Note_on_c, 1, 41, 127
2, 87720, Note_on_c, 1, 82, 127
2, 87720, Note_on_c, 1, 91, 127
2, 87720, Note_on_c, 1, 94, 127
2, 88240, Note_on_c, 1, 45, 127
2, 88240, Note_on_c, 1, 53, 127
2, 88240, Note_off_c, 1, 82, 0
2, 88240, Note_off_c, 1, 91, 0
2, 88240, Note_off_c, 1, 94, 0
2, 88280, Note_off_c, 1, 45, 0
2, 88280, Note_off_c, 1, 53, 0
2, 88320, Note_on_c, 1, 34, 127
2, 88320, Note_off_c, 1, 41, 0
2, 88320, Note_on_c, 1, 70, 127
2, 88320, Note_on_c, 1, 82, 127
2, 88520, Note_off_c, 1, 34, 0
2, 88520, Note_off_c, 1, 70, 0
2, 88520, Note_off_c, 1, 82, 0
2, 88560, Note_on_c, 1, 34, 127
2, 88560, Note_on_c, 1, 70, 127
2, 88560, Note_on_c, 1, 82, 127
2, 88920, Note_off_c, 1, 34, 0
2, 88920, Note_off_c, 1, 70, 0
2, 88920, Note_off_c, 1, 82, 0
2, 88960, Note_on_c, 1, 57, 127
2, 88960, Note_on_c, 1, 61, 127
2, 88960, Note_on_c, 1, 79, 127
2, 88960, Note_on_c, 1, 88, 127
2, 88960, Note_on_c, 1, 91, 127
2, 90080, Note_on_c, 1, 29, 127
2, 90080, Note_on_c, 1, 41, 127
2, 90080, Note_on_c, 1, 56, 127
2, 90080, Note_off_c, 1, 57, 0
2, 90080, Note_on_c, 1, 60, 127
2, 90080, Note_off_c, 1, 61, 0
2, 90080, Note_on_c, 1, 65, 127
2, 90080, Note_off_c, 1, 79, 0
2, 90080, Note_off_c, 1, 88, 0
2, 90080, Note_off_c, 1, 91, 0
2, 90120, Note_off_c, 1, 29, 0
2, 90120, Note_off_c, 1, 41, 0
2, 90120, Note_off_c, 1, 56, 0
2, 90120, Note_off_c, 1, 60, 0
2, 90120, Note_off_c, 1, 65, 0
2, 90160, Note_on_c, 1, 58, 127
2, 90160, Note_on_c, 1, 61, 127
2, 90160, Note_on_c, 1, 65, 127
2, 90160, Note_on_c, 1, 70, 127
2, 90160, Note_on_c, 1, 73, 127
2, 90160, Note_on_c, 1, 77, 127
2, 90560, Note_off_c, 1, 58, 0
2, 90560, Note_off_c, 1, 61, 0
2, 90560, Note_off_c, 1, 65, 0
2, 90560, Note_off_c, 1, 70, 0
2, 90560, Note_off_c, 1, 73, 0
2, 90560, Note_off_c, 1, 77, 0
2, 90600, Note_on_c, 1, 58, 127
2, 90600, Note_on_c, 1, 61, 127
2, 90600, Note_on_c, 1, 65, 127
2, 90600, Note_on_c, 1, 70, 127
2, 90600, Note_on_c, 1, 73, 127
2, 90600, Note_on_c, 1, 77, 127
2, 91320, Note_off_c, 1, 58, 0
2, 91320, Note_off_c, 1, 61, 0
2, 91320, Note_off_c, 1, 65, 0
2, 91320, Note_off_c, 1, 70, 0
2, 91320, Note_off_c, 1, 73, 0
2, 91320, Note_off_c, 1, 77, 0
2, 91400, Note_on_c, 1, 54, 127
2, 91400, Note_on_c, 1, 58, 127
2, 91400, Note_on_c, 1, 63, 127
2, 91400, Note_on_c, 1, 70, 127
2, 91400, Note_on_c, 1, 75, 127
2, 92520, Note_off_c, 1, 54, 0
2, 92520, Note_off_c, 1, 58, 0
2, 92520, Note_off_c, 1, 63, 0
2, 92520, Note_off_c, 1, 70, 0
2, 92520, Note_off_c, 1, 75, 0
2, 92640, Note_on_c, 1, 44, 127
2, 92640, Note_on_c, 1, 56, 127
2, 92640, Note_on_c, 1, 60, 127
2, 92640, Note_on_c, 1, 72, 127
2, 93800, Note_off_c, 1, 56, 0
2, 93800, Note_off_c, 1, 60, 0
2, 93840, Note_on_c, 1, 51, 127
2, 93840, Note_on_c, 1, 63, 127
2, 94640, Note_off_c, 1, 44, 0
2, 94640, Note_off_c, 1, 51, 0
2, 94640, Note_off_c, 1, 63, 0
2, 94640, Note_off_c, 1, 72, 0
2, 94680, Note_on_c, 1, 44, 127
2, 94680, Note_on_c, 1, 51, 127
2, 94680, Note_on_c, 1, 63, 127
2, 94680, Note_on_c, 1, 72, 127
2, 95000, Note_off_c, 1, 44, 0
2, 95000, Note_off_c, 1, 51, 0
2, 95000, Note_off_c, 1, 63, 0
2, 95000, Note_off_c, 1, 72, 0
2, 95080, Note_on_c, 1, 47, 127
2, 95080, Note_on_c, 1, 56, 127
2, 95080, Note_on_c, 1, 64, 127
2, 95080, Note_on_c, 1, 71, 127
2, 95080, Note_on_c, 1, 73, 127
2, 96240, Note_off_c, 1, 47, 0
2, 96240, Note_on_c, 1, 52, 127
2, 96240, Note_off_c, 1, 56, 0
2, 96240, Note_on_c, 1, 59, 127
2, 96240, Note_on_c, 1, 68, 127
2, 96240, Note_off_c, 1, 71, 0
2, 96240, Note_off_c, 1, 73, 0
2, 96280, Note_on_c, 1, 56, 127
2, 96280, Note_off_c, 1, 59, 0
2, 96280, Note_off_c, 1, 68, 0
2, 96280, Note_on_c, 1, 71, 127
2, 96680, Note_off_c, 1, 52, 0
2, 96680, Note_off_c, 1, 56, 0
2, 96680, Note_off_c, 1, 64, 0
2, 96680, Note_off_c, 1, 71, 0
2, 96720, Note_on_c, 1, 52, 127
2, 96720, Note_on_c, 1, 56, 127
2, 96720, Note_on_c, 1, 64, 127
2, 96720, Note_on_c, 1, 71, 127
2, 97480, Note_off_c, 1, 52, 0
2, 97480, Note_off_c, 1, 56, 0
2, 97480, Note_off_c, 1, 64, 0
2, 97480, Note_off_c, 1, 71, 0
2, 97520, Note_on_c, 1, 29, 127
2, 97520, Note_on_c, 1, 49, 127
2, 97560, Note_off_c, 1, 29, 0
2, 97560, Note_off_c, 1, 49, 0
2, 97560, Note_on_c, 1, 54, 127
2, 97560, Note_on_c, 1, 78, 127
2, 97560, Note_on_c, 1, 90, 127
2, 97560, Note_on_c, 1, 93, 127
2, 97600, Note_off_c, 1, 54, 0
2, 97600, Note_on_c, 1, 66, 127
2, 97600, Note_on_c, 1, 70, 127
2, 97600, Note_on_c, 1, 76, 127
2, 97600, Note_off_c, 1, 78, 0
2, 97600, Note_on_c, 1, 85, 127
2, 97600, Note_off_c, 1, 90, 0
2, 97600, Note_off_c, 1, 93, 0
2, 97640, Note_on_c, 1, 43, 127
2, 97640, Note_on_c, 1, 46, 127
2, 97640, Note_on_c, 1, 55, 127
2, 97640, Note_off_c, 1, 66, 0
2, 97640, Note_off_c, 1, 70, 0
2, 97640, Note_off_c, 1, 76, 0
2, 97640, Note_off_c, 1, 85, 0
2, 97640, Note_on_c, 1, 86, 127
2, 97680, Note_off_c, 1, 43, 0
2, 97680, Note_off_c, 1, 46, 0
2, 97680, Note_on_c, 1, 48, 127
2, 97680, Note_off_c, 1, 55, 0
2, 97680, Note_on_c, 1, 59, 127
2, 97680, Note_on_c, 1, 67, 127
2, 97680, Note_on_c, 1, 70, 127
2, 97680, Note_off_c, 1, 86, 0
2, 97720, Note_off_c, 1, 48, 0
2, 97720, Note_off_c, 1, 59, 0
2, 97720, Note_on_c, 1, 60, 127
2, 97720, Note_off_c, 1, 67, 0
2, 97720, Note_off_c, 1, 70, 0
2, 97720, Note_on_c, 1, 77, 127
2, 97720, Note_on_c, 1, 84, 127
2, 97720, Note_on_c, 1, 87, 127
2, 97720, Note_on_c, 1, 89, 127
2, 97760, Note_on_c, 1, 30, 127
2, 97760, Note_on_c, 1, 42, 127
2, 97760, Note_off_c, 1, 60, 0
2, 97760, Note_on_c, 1, 71, 127
2, 97760, Note_on_c, 1, 80, 127
2, 97760, Note_off_c, 1, 84, 0
2, 97760, Note_on_c, 1, 86, 127
2, 97760, Note_off_c, 1, 87, 0
2, 97760, Note_off_c, 1, 89, 0
2, 97800, Note_off_c, 1, 30, 0
2, 97800, Note_on_c, 1, 37, 127
2, 97800, Note_off_c, 1, 42, 0
2, 97800, Note_on_c, 1, 49, 127
2, 97800, Note_on_c, 1, 54, 127
2, 97800, Note_on_c, 1, 59, 127
2, 97800, Note_off_c, 1, 71, 0
2, 97800, Note_off_c, 1, 77, 0
2, 97800, Note_off_c, 1, 80, 0
2, 97800, Note_off_c, 1, 86, 0
2, 97840, Note_off_c, 1, 37, 0
2, 97840, Note_on_c, 1, 44, 127
2, 97840, Note_off_c, 1, 49, 0
2, 97840, Note_off_c, 1, 54, 0
2, 97840, Note_on_c, 1, 56, 127
2, 97840, Note_off_c, 1, 59, 0
2, 97840, Note_on_c, 1, 84, 127
2, 97840, Note_on_c, 1, 89, 127
2, 97840, Note_on_c, 1, 96, 127
2, 97880, Note_off_c, 1, 44, 0
2, 97880, Note_off_c, 1, 56, 0
2, 97880, Note_on_c, 1, 69, 127
2, 97880, Note_on_c, 1, 72, 127
2, 97880, Note_on_c, 1, 77, 127
2, 97880, Note_on_c, 1, 81, 127
2, 97880, Note_off_c, 1, 89, 0
2, 97880, Note_off_c, 1, 96, 0
2, 97920, Note_on_c, 1, 34, 127
2, 97920, Note_on_c, 1, 41, 127
2, 97920, Note_on_c, 1, 46, 127
2, 97920, Note_off_c, 1, 69, 0
2, 97920, Note_off_c, 1, 72, 0
2, 97920, Note_on_c, 1, 73, 127
2, 97920, Note_off_c, 1, 81, 0
2, 97920, Note_on_c, 1, 82, 127
2, 97920, Note_off_c, 1, 84, 0
2, 97920, Note_on_c, 1, 85, 127
2, 97960, Note_off_c, 1, 34, 0
2, 97960, Note_off_c, 1, 41, 0
2, 97960, Note_off_c, 1, 46, 0
2, 97960, Note_on_c, 1, 52, 127
2, 97960, Note_on_c, 1, 58, 127
2, 97960, Note_on_c, 1, 60, 127
2, 97960, Note_on_c, 1, 74, 127
2, 97960, Note_off_c, 1, 77, 0
2, 97960, Note_off_c, 1, 82, 0
2, 97960, Note_off_c, 1, 85, 0
2, 98000, Note_on_c, 1, 33, 127
2, 98000, Note_on_c, 1, 50, 127
2, 98000, Note_off_c, 1, 52, 0
2, 98000, Note_off_c, 1, 58, 0
2, 98000, Note_on_c, 1, 59, 127
2, 98000, Note_off_c, 1, 60, 0
2, 98000, Note_off_c, 1, 73, 0
2, 98000, Note_off_c, 1, 74, 0
2, 98040, Note_off_c, 1, 33, 0
2, 98040, Note_off_c, 1, 50, 0
2, 98040, Note_on_c, 1, 53, 127
2, 98040, Note_on_c, 1, 57, 127
2, 98040, Note_off_c, 1, 59, 0
2, 98040, Note_on_c, 1, 60, 127
2, 98040, Note_on_c, 1, 73, 127
2, 98080, Note_off_c, 1, 60, 0
2, 98080, Note_on_c, 1, 61, 127
2, 98080, Note_off_c, 1, 73, 0
2, 98080, Note_on_c, 1, 93, 127
2, 98080, Note_on_c, 1, 97, 127
2, 98120, Note_on_c, 1, 32, 127
2, 98120, Note_on_c, 1, 35, 127
2, 98120, Note_on_c, 1, 44, 127
2, 98120, Note_off_c, 1, 53, 0
2, 98120, Note_off_c, 1, 57, 0
2, 98120, Note_on_c, 1, 59, 127
2, 98120, Note_off_c, 1, 61, 0
2, 98120, Note_off_c, 1, 93, 0
2, 98120, Note_off_c, 1, 97, 0
2, 98280, Note_off_c, 1, 32, 0
2, 98280, Note_off_c, 1, 35, 0
2, 98280, Note_on_c, 1, 51, 127
2, 98280, Note_on_c, 1, 56, 127
2, 98280, Note_off_c, 1, 59, 0
2, 98280, Note_on_c, 1, 71, 127
2, 98280, Note_on_c, 1, 75, 127
2, 98320, Note_on_c, 1, 41, 127
2, 98320, Note_off_c, 1, 44, 0
2, 98320, Note_off_c, 1, 51, 0
2, 98320, Note_on_c, 1, 53, 127
2, 98320, Note_off_c, 1, 56, 0
2, 98320, Note_off_c, 1, 71, 0
2, 98320, Note_on_c, 1, 74, 127
2, 98320, Note_off_c, 1, 75, 0
2, 98320, Note_on_c, 1, 86, 127
2, 98360, Note_off_c, 1, 41, 0
2, 98360, Note_on_c, 1, 46, 127
2, 98360, Note_off_c, 1, 53, 0
2, 98360, Note_on_c, 1, 56, 127
2, 98360, Note_on_c, 1, 61, 127
2, 98360, Note_on_c, 1, 64, 127
2, 98360, Note_on_c, 1, 68, 127
2, 98360, Note_on_c, 1, 73, 127
2, 98360, Note_off_c, 1, 74, 0
2, 98360, Note_on_c, 1, 85, 127
2, 98360, Note_off_c, 1, 86, 0
2, 98400, Note_on_c, 1, 40, 127
2, 98400, Note_on_c, 1, 44, 127
2, 98400, Note_off_c, 1, 46, 0
2, 98400, Note_on_c, 1, 47, 127
2, 98400, Note_on_c, 1, 50, 127
2, 98400, Note_off_c, 1, 56, 0
2, 98400, Note_off_c, 1, 61, 0
2, 98400, Note_off_c, 1, 64, 0
2, 98400, Note_off_c, 1, 68, 0
2, 98400, Note_off_c, 1, 73, 0
2, 98400, Note_on_c, 1, 80, 127
2, 98400, Note_on_c, 1, 83, 127
2, 98400, Note_off_c, 1, 85, 0
2, 98440, Note_off_c, 1, 40, 0
2, 98440, Note_off_c, 1, 44, 0
2, 98440, Note_off_c, 1, 47, 0
2, 98440, Note_off_c, 1, 50, 0
2, 98440, Note_on_c, 1, 51, 127
2, 98440, Note_on_c, 1, 61, 127
2, 98440, Note_on_c, 1, 70, 127
2, 98440, Note_on_c, 1, 73, 127
2, 98440, Note_on_c, 1, 77, 127
2, 98440, Note_off_c, 1, 80, 0
2, 98440, Note_on_c, 1, 82, 127
2, 98440, Note_off_c, 1, 83, 0
2, 98480, Note_on_c, 1, 41, 127
2, 98480, Note_off_c, 1, 51, 0
2, 98480, Note_on_c, 1, 53, 127
2, 98480, Note_off_c, 1, 61, 0
2, 98480, Note_on_c, 1, 65, 127
2, 98480, Note_off_c, 1, 70, 0
2, 98480, Note_on_c, 1, 71, 127
2, 98480, Note_off_c, 1, 73, 0
2, 98480, Note_on_c, 1, 74, 127
2, 98480, Note_off_c, 1, 77, 0
2, 98480, Note_off_c, 1, 82, 0
2, 98520, Note_off_c, 1, 41, 0
2, 98520, Note_off_c, 1, 53, 0
2, 98520, Note_on_c, 1, 59, 127
2, 98520, Note_off_c, 1, 65, 0
2, 98520, Note_off_c, 1, 71, 0
2, 98520, Note_on_c, 1, 73, 127
2, 98520, Note_off_c, 1, 74, 0
2, 98520, Note_on_c, 1, 81, 127
2, 98520, Note_on_c, 1, 88, 127
2, 98640, Note_on_c, 1, 46, 127
2, 98640, Note_on_c, 1, 58, 127
2, 98640, Note_off_c, 1, 59, 0
2, 98640, Note_off_c, 1, 73, 0
2, 98640, Note_on_c, 1, 80, 127
2, 98640, Note_off_c, 1, 81, 0
2, 98640, Note_off_c, 1, 88, 0
2, 98640, Note_on_c, 1, 89, 127
2, 98640, Note_on_c, 1, 92, 127
2, 98680, Note_off_c, 1, 46, 0
2, 98680, Note_off_c, 1, 58, 0
2, 98680, Note_off_c, 1, 80, 0
2, 98680, Note_off_c, 1, 89, 0
2, 98680, Note_off_c, 1, 92, 0
2, 98760, Note_on_c, 1, 52, 127
2, 98760, Note_on_c, 1, 71, 127
2, 98760, Note_on_c, 1, 83, 127
2, 99320, Note_off_c, 1, 71, 0
2, 99320, Note_off_c, 1, 83, 0
2, 99360, Note_on_c, 1, 71, 127
2, 99360, Note_on_c, 1, 83, 127
2, 99920, Note_off_c, 1, 52, 0
2, 99960, Note_on_c, 1, 52, 127
2, 100520, Note_off_c, 1, 52, 0
2, 100560, Note_on_c, 1, 52, 127
2, 100760, Note_off_c, 1, 52, 0
2, 100760, Note_off_c, 1, 71, 0
2, 100760, Note_off_c, 1, 83, 0
2, 100800, Note_on_c, 1, 52, 127
2, 100800, Note_on_c, 1, 71, 127
2, 100800, Note_on_c, 1, 83, 127
2, 101160, Note_off_c, 1, 52, 0
2, 101160, Note_off_c, 1, 71, 0
2, 101160, Note_off_c, 1, 83, 0
2, 101200, Note_on_c, 1, 45, 127
2, 101200, Note_on_c, 1, 69, 127
2, 101200, Note_on_c, 1, 81, 127
2, 101760, Note_off_c, 1, 45, 0
2, 101800, Note_on_c, 1, 52, 127
2, 101800, Note_on_c, 1, 57, 127
2, 101800, Note_on_c, 1, 61, 127
2, 102320, Note_off_c, 1, 52, 0
2, 102320, Note_off_c, 1, 57, 0
2, 102320, Note_off_c, 1, 61, 0
2, 102360, Note_off_c, 1, 69, 0
2, 102360, Note_off_c, 1, 81, 0
2, 102400, Note_on_c, 1, 50, 127
2, 102400, Note_on_c, 1, 62, 127
2, 102400, Note_on_c, 1, 66, 127
2, 102400, Note_on_c, 1, 78, 127
2, 102800, Note_off_c, 1, 50, 0
2, 102800, Note_off_c, 1, 62, 0
2, 102800, Note_off_c, 1, 66, 0
2, 102800, Note_off_c, 1, 78, 0
2, 102840, Note_on_c, 1, 50, 127
2, 102840, Note_on_c, 1, 62, 127
2, 102840, Note_on_c, 1, 66, 127
2, 102840, Note_on_c, 1, 78, 127
2, 103000, Note_off_c, 1, 62, 0
2, 103040, Note_on_c, 1, 62, 127
2, 103600, Note_off_c, 1, 62, 0
2, 103600, Note_off_c, 1, 66, 0
2, 103600, Note_off_c, 1, 78, 0
2, 103640, Note_on_c, 1, 66, 127
2, 103640, Note_on_c, 1, 69, 127
2, 103640, Note_on_c, 1, 81, 127
2, 104240, Note_off_c, 1, 66, 0
2, 104240, Note_on_c, 1, 67, 127
2, 104240, Note_off_c, 1, 69, 0
2, 104240, Note_on_c, 1, 71, 127
2, 104240, Note_off_c, 1, 81, 0
2, 104240, Note_on_c, 1, 83, 127
2, 104760, Note_on_c, 1, 55, 127
2, 104760, Note_off_c, 1, 67, 0
2, 104760, Note_off_c, 1, 71, 0
2, 104760, Note_off_c, 1, 83, 0
2, 104800, Note_off_c, 1, 55, 0
2, 104800, Note_on_c, 1, 57, 127
2, 104800, Note_on_c, 1, 66, 127
2, 104800, Note_on_c, 1, 72, 127
2, 104840, Note_off_c, 1, 50, 0
2, 104840, Note_off_c, 1, 57, 0
2, 104840, Note_off_c, 1, 66, 0
2, 104840, Note_off_c, 1, 72, 0
2, 104880, Note_on_c, 1, 50, 127
2, 104880, Note_on_c, 1, 57, 127
2, 104880, Note_on_c, 1, 66, 127
2, 104880, Note_on_c, 1, 72, 127
2, 106040, Note_off_c, 1, 72, 0
2, 106080, Note_on_c, 1, 72, 127
2, 106640, Note_off_c, 1, 57, 0
2, 106640, Note_off_c, 1, 66, 0
2, 106640, Note_on_c, 1, 69, 127
2, 106640, Note_off_c, 1, 72, 0
2, 106680, Note_on_c, 1, 57, 127
2, 106680, Note_on_c, 1, 62, 127
2, 106880, Note_off_c, 1, 50, 0
2, 106880, Note_off_c, 1, 57, 0
2, 106880, Note_off_c, 1, 62, 0
2, 106880, Note_off_c, 1, 69, 0
2, 106920, Note_on_c, 1, 50, 127
2, 106920, Note_on_c, 1, 57, 127
2, 106920, Note_on_c, 1, 62, 127
2, 106920, Note_on_c, 1, 69, 127
2, 107240, Note_off_c, 1, 50, 0
2, 107240, Note_off_c, 1, 57, 0
2, 107240, Note_off_c, 1, 62, 0
2, 107240, Note_off_c, 1, 69, 0
2, 107320, Note_on_c, 1, 50, 127
2, 107320, Note_on_c, 1, 57, 127
2, 107320, Note_on_c, 1, 62, 127
2, 107320, Note_on_c, 1, 66, 127
2, 107320, Note_on_c, 1, 69, 127
2, 107600, Note_off_c, 1, 50, 0
2, 108920, Note_off_c, 1, 57, 0
2, 108920, Note_off_c, 1, 62, 0
2, 108920, Note_off_c, 1, 66, 0
2, 108920, Note_off_c, 1, 69, 0
2, 108960, Note_on_c, 1, 57, 127
2, 108960, Note_on_c, 1, 62, 127
2, 108960, Note_on_c, 1, 66, 127
2, 108960, Note_on_c, 1, 69, 127
2, 109680, Note_off_c, 1, 57, 0
2, 109680, Note_off_c, 1, 62, 0
2, 109680, Note_off_c, 1, 66, 0
2, 109680, Note_off_c, 1, 69, 0
2, 109760, Note_on_c, 1, 47, 127
2, 109760, Note_on_c, 1, 52, 127
2, 109760, Note_on_c, 1, 59, 127
2, 109760, Note_on_c, 1, 68, 127
2, 109760, Note_on_c, 1, 71, 127
2, 110320, Note_off_c, 1, 52, 0
2, 110320, Note_off_c, 1, 68, 0
2, 110840, Note_off_c, 1, 47, 0
2, 110840, Note_off_c, 1, 59, 0
2, 110840, Note_off_c, 1, 71, 0
2, 110880, Note_on_c, 1, 47, 127
2, 110880, Note_on_c, 1, 59, 127
2, 110880, Note_on_c, 1, 71, 127
2, 110960, Note_off_c, 1, 47, 0
2, 110960, Note_off_c, 1, 59, 0
2, 110960, Note_off_c, 1, 71, 0
2, 111000, Note_on_c, 1, 54, 127
2, 111000, Note_on_c, 1, 56, 127
2, 111000, Note_on_c, 1, 63, 127
2, 111000, Note_on_c, 1, 72, 127
2, 112120, Note_off_c, 1, 54, 0
2, 112120, Note_off_c, 1, 56, 0
2, 112120, Note_off_c, 1, 63, 0
2, 112120, Note_off_c, 1, 72, 0
2, 112200, Note_on_c, 1, 44, 127
2, 112200, Note_on_c, 1, 56, 127
2, 112200, Note_on_c, 1, 59, 127
2, 112200, Note_on_c, 1, 64, 127
2, 113000, Note_off_c, 1, 44, 0
2, 113000, Note_off_c, 1, 56, 0
2, 113000, Note_off_c, 1, 59, 0
2, 113000, Note_off_c, 1, 64, 0
2, 113040, Note_on_c, 1, 44, 127
2, 113040, Note_on_c, 1, 56, 127
2, 113040, Note_on_c, 1, 59, 127
2, 113040, Note_on_c, 1, 64, 127
2, 113320, Note_off_c, 1, 44, 0
2, 113320, Note_off_c, 1, 56, 0
2, 113320, Note_off_c, 1, 59, 0
2, 113320, Note_off_c, 1, 64, 0
2, 113440, Note_on_c, 1, 44, 127
2, 113440, Note_on_c, 1, 56, 127
2, 113440, Note_on_c, 1, 59, 127
2, 113440, Note_on_c, 1, 64, 127
2, 114560, Note_off_c, 1, 44, 0
2, 114560, Note_off_c, 1, 56, 0
2, 114560, Note_off_c, 1, 59, 0
2, 114560, Note_off_c, 1, 64, 0
2, 114640, Note_on_c, 1, 40, 127
2, 114640, Note_on_c, 1, 52, 127
2, 114640, Note_on_c, 1, 59, 127
2, 114640, Note_on_c, 1, 64, 127
2, 114640, Note_on_c, 1, 67, 127
2, 115040, Note_off_c, 1, 40, 0
2, 115040, Note_off_c, 1, 52, 0
2, 115040, Note_off_c, 1, 59, 0
2, 115040, Note_off_c, 1, 64, 0
2, 115040, Note_off_c, 1, 67, 0
2, 115080, Note_on_c, 1, 40, 127
2, 115080, Note_on_c, 1, 52, 127
2, 115080, Note_on_c, 1, 59, 127
2, 115080, Note_on_c, 1, 64, 127
2, 115080, Note_on_c, 1, 67, 127
2, 116440, Note_off_c, 1, 40, 0
2, 116440, Note_off_c, 1, 52, 0
2, 116440, Note_off_c, 1, 59, 0
2, 116440, Note_off_c, 1, 64, 0
2, 116480, Note_on_c, 1, 55, 127
2, 116480, Note_on_c, 1, 58, 127
2, 116480, Note_on_c, 1, 64, 127
2, 116880, Note_off_c, 1, 55, 0
2, 116880, Note_off_c, 1, 58, 0
2, 116880, Note_off_c, 1, 64, 0
2, 116880, Note_off_c, 1, 67, 0
2, 116920, Note_on_c, 1, 55, 127
2, 116920, Note_on_c, 1, 58, 127
2, 116920, Note_on_c, 1, 64, 127
2, 116920, Note_on_c, 1, 67, 127
2, 117080, Note_off_c, 1, 55, 0
2, 117080, Note_off_c, 1, 58, 0
2, 117080, Note_off_c, 1, 64, 0
2, 117080, Note_off_c, 1, 67, 0
2, 117120, Note_on_c, 1, 48, 127
2, 117120, Note_on_c, 1, 60, 127
2, 117120, Note_on_c, 1, 76, 127
2, 117120, Note_on_c, 1, 88, 127
2, 118280, Note_off_c, 1, 48, 0
2, 118280, Note_off_c, 1, 60, 0
2, 118280, Note_off_c, 1, 76, 0
2, 118280, Note_off_c, 1, 88, 0
2, 118320, Note_on_c, 1, 33, 127
2, 118320, Note_on_c, 1, 49, 127
2, 118320, Note_on_c, 1, 52, 127
2, 118320, Note_on_c, 1, 65, 127
2, 118320, Note_on_c, 1, 69, 127
2, 118360, Note_off_c, 1, 33, 0
2, 118360, Note_on_c, 1, 34, 127
2, 118360, Note_on_c, 1, 41, 127
2, 118360, Note_off_c, 1, 49, 0
2, 118360, Note_off_c, 1, 52, 0
2, 118360, Note_on_c, 1, 58, 127
2, 118360, Note_on_c, 1, 61, 127
2, 118360, Note_off_c, 1, 69, 0
2, 118400, Note_off_c, 1, 34, 0
2, 118400, Note_on_c, 1, 36, 127
2, 118400, Note_off_c, 1, 41, 0
2, 118400, Note_on_c, 1, 48, 127
2, 118400, Note_off_c, 1, 61, 0
2, 118400, Note_off_c, 1, 65, 0
2, 118400, Note_on_c, 1, 82, 127
2, 118400, Note_on_c, 1, 88, 127
2, 118400, Note_on_c, 1, 94, 127
2, 118440, Note_on_c, 1, 34, 127
2, 118440, Note_off_c, 1, 36, 0
2, 118440, Note_on_c, 1, 41, 127
2, 118440, Note_off_c, 1, 48, 0
2, 118440, Note_on_c, 1, 61, 127
2, 118440, Note_on_c, 1, 65, 127
2, 118440, Note_off_c, 1, 82, 0
2, 118440, Note_off_c, 1, 88, 0
2, 118440, Note_off_c, 1, 94, 0
2, 118720, Note_off_c, 1, 34, 0
2, 118720, Note_off_c, 1, 41, 0
2, 118720, Note_off_c, 1, 58, 0
2, 118720, Note_off_c, 1, 61, 0
2, 118720, Note_off_c, 1, 65, 0
2, 118760, Note_on_c, 1, 34, 127
2, 118760, Note_on_c, 1, 41, 127
2, 118760, Note_on_c, 1, 58, 127
2, 118760, Note_on_c, 1, 61, 127
2, 118760, Note_on_c, 1, 65, 127
2, 120000, Note_off_c, 1, 34, 0
2, 120000, Note_off_c, 1, 41, 0
2, 120000, Note_off_c, 1, 58, 0
2, 120000, Note_off_c, 1, 61, 0
2, 120000, Note_off_c, 1, 65, 0
2, 120040, End_track
3, 0, Start_track
3, 0, Title_t, "MIDI"
3, 1536, End_track
0, 0, End_of_file
