0, 0, Header, 1, 3, 192
1, 0, Start_track
1, 0, Time_signature, 4, 2, 24, 8
1, 0, Tempo, 500000
1, 120040, End_track
2, 0, Start_track
2, 0, Text_t, "random instrument: random person i dunno whatev"
2, 0, Title_t, "Track 1"
2, 0, Note_on_c, 1, 40, 127
2, 0, Note_on_c, 1, 48, 127
2, 0, Note_on_c, 1, 56, 127
2, 0, Note_on_c, 1, 60, 127
2, 40, Note_off_c, 1, 40, 0
2, 40, Note_off_c, 1, 48, 0
2, 40, Note_on_c, 1, 55, 127
2, 40, Note_off_c, 1, 56, 0
2, 40, Note_off_c, 1, 60, 0
2, 40, Note_on_c, 1, 72, 127
2, 40, Note_on_c, 1, 75, 127
2, 40, Note_on_c, 1, 79, 127
2, 40, Note_on_c, 1, 84, 127
2, 80, Note_off_c, 1, 55, 0
2, 80, Note_off_c, 1, 72, 0
2, 80, Note_off_c, 1, 75, 0
2, 80, Note_off_c, 1, 79, 0
2, 80, Note_off_c, 1, 84, 0
2, 120, Note_on_c, 1, 50, 127
2, 120, Note_on_c, 1, 59, 127
2, 120, Note_on_c, 1, 62, 127
2, 120, Note_on_c, 1, 78, 127
2, 160, Note_off_c, 1, 50, 0
2, 160, Note_off_c, 1, 59, 0
2, 160, Note_on_c, 1, 60, 127
2, 160, Note_off_c, 1, 62, 0
2, 160, Note_on_c, 1, 66, 127
2, 160, Note_on_c, 1, 68, 127
2, 160, Note_off_c, 1, 78, 0
2, 160, Note_on_c, 1, 90, 127
2, 200, Note_on_c, 1, 35, 127
2, 200, Note_on_c, 1, 39, 127
2, 200, Note_on_c, 1, 47, 127
2, 200, Note_on_c, 1, 50, 127
2, 200, Note_off_c, 1, 60, 0
2, 200, Note_off_c, 1, 66, 0
2, 200, Note_off_c, 1, 68, 0
2, 200, Note_off_c, 1, 90, 0
2, 240, Note_off_c, 1, 35, 0
2, 240, Note_off_c, 1, 39, 0
2, 240, Note_off_c, 1, 47, 0
2, 240, Note_off_c, 1, 50, 0
2, 240, Note_on_c, 1, 51, 127
2, 240, Note_on_c, 1, 55, 127
2, 240, Note_on_c, 1, 58, 127
2, 240, Note_on_c, 1, 63, 127
2, 240, Note_on_c, 1, 82, 127
2, 240, Note_on_c, 1, 91, 127
2, 280, Note_off_c, 1, 51, 0
2, 280, Note_off_c, 1, 55, 0
2, 280, Note_off_c, 1, 58, 0
2, 280, Note_off_c, 1, 63, 0
2, 280, Note_on_c, 1, 76, 127
2, 280, Note_on_c, 1, 80, 127
2, 280, Note_off_c, 1, 82, 0
2, 280, Note_on_c, 1, 83, 127
2, 280, Note_on_c, 1, 89, 127
2, 280, Note_off_c, 1, 91, 0
2, 320, Note_on_c, 1, 58, 127
2, 320, Note_on_c, 1, 63, 127
2, 320, Note_on_c, 1, 66, 127
2, 320, Note_on_c, 1, 72, 127
2, 320, Note_on_c, 1, 75, 127
2, 320, Note_off_c, 1, 76, 0
2, 320, Note_off_c, 1, 80, 0
2, 320, Note_on_c, 1, 82, 127
2, 320, Note_off_c, 1, 83, 0
2, 320, Note_on_c, 1, 87, 127
2, 320, Note_off_c, 1, 89, 0
2, 360, Note_on_c, 1, 57, 127
2, 360, Note_off_c, 1, 58, 0
2, 360, Note_on_c, 1, 62, 127
2, 360, Note_off_c, 1, 63, 0
2, 360, Note_off_c, 1, 66, 0
2, 360, Note_off_c, 1, 72, 0
2, 360, Note_off_c, 1, 75, 0
2, 360, Note_off_c, 1, 82, 0
2, 360, Note_off_c, 1, 87, 0
2, 400, Note_off_c, 1, 57, 0
2, 400, Note_on_c, 1, 60, 127
2, 400, Note_off_c, 1, 62, 0
2, 400, Note_on_c, 1, 85, 127
2, 400, Note_on_c, 1, 88, 127
2, 440, Note_on_c, 1, 50, 127
2, 440, Note_on_c, 1, 57, 127
2, 440, Note_off_c, 1, 60, 0
2, 440, Note_on_c, 1, 65, 127
2, 440, Note_off_c, 1, 85, 0
2, 440, Note_off_c, 1, 88, 0
2, 440, Note_on_c, 1, 93, 127
2, 480, Note_off_c, 1, 50, 0
2, 480, Note_on_c, 1, 54, 127
2, 480, Note_off_c, 1, 57, 0
2, 480, Note_on_c, 1, 58, 127
2, 480, Note_on_c, 1, 61, 127
2, 480, Note_off_c, 1, 65, 0
2, 480, Note_off_c, 1, 93, 0
2, 480, Note_on_c, 1, 97, 127
2, 520, Note_on_c, 1, 50, 127
2, 520, Note_off_c, 1, 54, 0
2, 520, Note_on_c, 1, 57, 127
2, 520, Note_off_c, 1, 58, 0
2, 520, Note_off_c, 1, 61, 0
2, 520, Note_on_c, 1, 65, 127
2, 520, Note_on_c, 1, 93, 127
2, 520, Note_off_c, 1, 97, 0
2, 800, Note_off_c, 1, 50, 0
2, 800, Note_off_c, 1, 57, 0
2, 800, Note_off_c, 1, 65, 0
2, 800, Note_off_c, 1, 93, 0
2, 1240, Note_on_c, 1, 61, 127
2, 1240, Note_on_c, 1, 67, 127
2, 1440, Note_on_c, 1, 51, 127
2, 1600, Note_off_c, 1, 51, 0
2, 1600, Note_off_c, 1, 61, 0
2, 1640, Note_on_c, 1, 58, 127
2, 1800, Note_off_c, 1, 67, 0
2, 1840, Note_off_c, 1, 58, 0
2, 1840, Note_on_c, 1, 63, 127
2, 1840, Note_on_c, 1, 72, 127
2, 1840, Note_on_c, 1, 91, 127
2, 2000, Note_off_c, 1, 91, 0
2, 2040, Note_off_c, 1, 63, 0
2, 2040, Note_off_c, 1, 72, 0
2, 2080, Note_on_c, 1, 55, 127
2, 2080, Note_on_c, 1, 60, 127
2, 2080, Note_on_c, 1, 70, 127
2, 2480, Note_off_c, 1, 55, 0
2, 2480, Note_off_c, 1, 60, 0
2, 2480, Note_off_c, 1, 70, 0
2, 2520, Note_on_c, 1, 55, 127
2, 2520, Note_on_c, 1, 60, 127
2, 2520, Note_on_c, 1, 69, 127
2, 3080, Note_off_c, 1, 60, 0
2, 3080, Note_off_c, 1, 69, 0
2, 3120, Note_on_c, 1, 48, 127
2, 3120, Note_on_c, 1, 64, 127
2, 3280, Note_off_c, 1, 55, 0
2, 3280, Note_on_c, 1, 67, 127
2, 3680, Note_off_c, 1, 48, 0
2, 3720, Note_on_c, 1, 48, 127
2, 4240, Note_off_c, 1, 48, 0
2, 4240, Note_off_c, 1, 64, 0
2, 4240, Note_off_c, 1, 67, 0
2, 4280, Note_on_c, 1, 48, 127
2, 4280, Note_on_c, 1, 64, 127
2, 4280, Note_on_c, 1, 67, 127
2, 4320, Note_off_c, 1, 48, 0
2, 4320, Note_off_c, 1, 64, 0
2, 4320, Note_off_c, 1, 67, 0
2, 4360, Note_on_c, 1, 48, 127
2, 4360, Note_on_c, 1, 53, 127
2, 4360, Note_on_c, 1, 70, 127
2, 4520, Note_off_c, 1, 48, 0
2, 4520, Note_on_c, 1, 52, 127
2, 4520, Note_off_c, 1, 53, 0
2, 4520, Note_on_c, 1, 58, 127
2, 4520, Note_on_c, 1, 67, 127
2, 4520, Note_off_c, 1, 70, 0
2, 4520, Note_on_c, 1, 72, 127
2, 4560, Note_on_c, 1, 48, 127
2, 4560, Note_off_c, 1, 52, 0
2, 4560, Note_on_c, 1, 55, 127
2, 4560, Note_off_c, 1, 58, 0
2, 4560, Note_off_c, 1, 67, 0
2, 4560, Note_on_c, 1, 69, 127
2, 4560, Note_off_c, 1, 72, 0
2, 5960, Note_off_c, 1, 48, 0
2, 5960, Note_off_c, 1, 55, 0
2, 5960, Note_on_c, 1, 67, 127
2, 5960, Note_off_c, 1, 69, 0
2, 6000, Note_on_c, 1, 45, 127
2, 6000, Note_on_c, 1, 57, 127
2, 6000, Note_off_c, 1, 67, 0
2, 6000, Note_on_c, 1, 72, 127
2, 6240, Note_on_c, 1, 65, 127
2, 6240, Note_off_c, 1, 72, 0
2, 6360, Note_off_c, 1, 45, 0
2, 6360, Note_off_c, 1, 57, 0
2, 6360, Note_off_c, 1, 65, 0
2, 6400, Note_on_c, 1, 45, 127
2, 6400, Note_on_c, 1, 57, 127
2, 6400, Note_on_c, 1, 65, 127
2, 6440, Note_off_c, 1, 65, 0
2, 6440, Note_on_c, 1, 72, 127
2, 6640, Note_off_c, 1, 72, 0
2, 6680, Note_on_c, 1, 65, 127
2, 7040, Note_off_c, 1, 45, 0
2, 7040, Note_off_c, 1, 57, 0
2, 7040, Note_off_c, 1, 65, 0
2, 7080, Note_on_c, 1, 46, 127
2, 7080, Note_on_c, 1, 58, 127
2, 7080, Note_on_c, 1, 70, 127
2, 8200, Note_off_c, 1, 46, 0
2, 8240, Note_on_c, 1, 46, 127
2, 8240, Note_off_c, 1, 70, 0
2, 8280, Note_on_c, 1, 67, 127
2, 8400, Note_off_c, 1, 67, 0
2, 8440, Note_on_c, 1, 67, 127
2, 8640, Note_off_c, 1, 46, 0
2, 8640, Note_off_c, 1, 58, 0
2, 8640, Note_off_c, 1, 67, 0
2, 8720, Note_on_c, 1, 41, 127
2, 8720, Note_on_c, 1, 53, 127
2, 8720, Note_on_c, 1, 65, 127
2, 9440, Note_off_c, 1, 41, 0
2, 9440, Note_off_c, 1, 53, 0
2, 9440, Note_off_c, 1, 65, 0
2, 9480, Note_on_c, 1, 50, 127
2, 9480, Note_on_c, 1, 62, 127
2, 9480, Note_on_c, 1, 74, 127
2, 10720, Note_off_c, 1, 50, 0
2, 10720, Note_off_c, 1, 62, 0
2, 10720, Note_off_c, 1, 74, 0
2, 10760, Note_on_c, 1, 49, 127
2, 10760, Note_on_c, 1, 61, 127
2, 10760, Note_on_c, 1, 73, 127
2, 10920, Note_off_c, 1, 49, 0
2, 10920, Note_off_c, 1, 61, 0
2, 10920, Note_off_c, 1, 73, 0
2, 10960, Note_on_c, 1, 49, 127
2, 10960, Note_on_c, 1, 61, 127
2, 10960, Note_on_c, 1, 73, 127
2, 11200, Note_on_c, 1, 66, 127
2, 11200, Note_on_c, 1, 70, 127
2, 11920, Note_on_c, 1, 45, 127
2, 11920, Note_off_c, 1, 49, 0
2, 11920, Note_on_c, 1, 55, 127
2, 11920, Note_off_c, 1, 66, 0
2, 11920, Note_on_c, 1, 69, 127
2, 11920, Note_off_c, 1, 70, 0
2, 11920, Note_off_c, 1, 73, 0
2, 11960, Note_off_c, 1, 45, 0
2, 11960, Note_off_c, 1, 55, 0
2, 11960, Note_off_c, 1, 61, 0
2, 11960, Note_off_c, 1, 69, 0
2, 12000, Note_on_c, 1, 45, 127
2, 12000, Note_on_c, 1, 52, 127
2, 12000, Note_on_c, 1, 81, 127
2, 13080, Note_off_c, 1, 45, 0
2, 13080, Note_off_c, 1, 52, 0
2, 13080, Note_off_c, 1, 81, 0
2, 13120, Note_on_c, 1, 45, 127
2, 13120, Note_on_c, 1, 52, 127
2, 13120, Note_on_c, 1, 81, 127
2, 13400, Note_on_c, 1, 50, 127
2, 13400, Note_off_c, 1, 52, 0
2, 13400, Note_on_c, 1, 76, 127
2, 13400, Note_off_c, 1, 81, 0
2, 13600, Note_off_c, 1, 45, 0
2, 13600, Note_off_c, 1, 50, 0
2, 13600, Note_off_c, 1, 76, 0
2, 13640, Note_on_c, 1, 35, 127
2, 13640, Note_on_c, 1, 47, 127
2, 13640, Note_on_c, 1, 98, 127
2, 13640, Note_on_c, 1, 100, 127
2, 13680, Note_off_c, 1, 35, 0
2, 13680, Note_off_c, 1, 47, 0
2, 13680, Note_on_c, 1, 71, 127
2, 13680, Note_on_c, 1, 76, 127
2, 13680, Note_on_c, 1, 79, 127
2, 13680, Note_on_c, 1, 95, 127
2, 13680, Note_off_c, 1, 98, 0
2, 13680, Note_off_c, 1, 100, 0
2, 13720, Note_on_c, 1, 35, 127
2, 13720, Note_on_c, 1, 47, 127
2, 13720, Note_off_c, 1, 71, 0
2, 13720, Note_off_c, 1, 76, 0
2, 13720, Note_off_c, 1, 79, 0
2, 13720, Note_off_c, 1, 95, 0
2, 13720, Note_on_c, 1, 98, 127
2, 13720, Note_on_c, 1, 100, 127
2, 13760, Note_off_c, 1, 35, 0
2, 13760, Note_on_c, 1, 39, 127
2, 13760, Note_off_c, 1, 47, 0
2, 13760, Note_on_c, 1, 54, 127
2, 13760, Note_on_c, 1, 69, 127
2, 13760, Note_off_c, 1, 98, 0
2, 13760, Note_off_c, 1, 100, 0
2, 13800, Note_on_c, 1, 35, 127
2, 13800, Note_off_c, 1, 39, 0
2, 13800, Note_on_c, 1, 47, 127
2, 13800, Note_off_c, 1, 54, 0
2, 13800, Note_off_c, 1, 69, 0
2, 13800, Note_on_c, 1, 88, 127
2, 13840, Note_off_c, 1, 35, 0
2, 13840, Note_off_c, 1, 47, 0
2, 13840, Note_on_c, 1, 77, 127
2, 13840, Note_on_c, 1, 81, 127
2, 13840, Note_off_c, 1, 88, 0
2, 13840, Note_on_c, 1, 91, 127
2, 13840, Note_on_c, 1, 96, 127
2, 13880, Note_on_c, 1, 35, 127
2, 13880, Note_on_c, 1, 47, 127
2, 13880, Note_on_c, 1, 59, 127
2, 13880, Note_off_c, 1, 77, 0
2, 13880, Note_on_c, 1, 80, 127
2, 13880, Note_off_c, 1, 81, 0
2, 13880, Note_off_c, 1, 91, 0
2, 13880, Note_off_c, 1, 96, 0
2, 13920, Note_off_c, 1, 35, 0
2, 13920, Note_on_c, 1, 46, 127
2, 13920, Note_off_c, 1, 47, 0
2, 13920, Note_on_c, 1, 50, 127
2, 13920, Note_on_c, 1, 55, 127
2, 13920, Note_off_c, 1, 59, 0
2, 13920, Note_off_c, 1, 80, 0
2, 13920, Note_on_c, 1, 91, 127
2, 13960, Note_off_c, 1, 46, 0
2, 13960, Note_off_c, 1, 50, 0
2, 13960, Note_off_c, 1, 55, 0
2, 13960, Note_on_c, 1, 61, 127
2, 13960, Note_on_c, 1, 64, 127
2, 13960, Note_on_c, 1, 70, 127
2, 13960, Note_on_c, 1, 73, 127
2, 13960, Note_on_c, 1, 76, 127
2, 13960, Note_on_c, 1, 85, 127
2, 13960, Note_off_c, 1, 91, 0
2, 14000, Note_on_c, 1, 35, 127
2, 14000, Note_on_c, 1, 47, 127
2, 14000, Note_off_c, 1, 61, 0
2, 14000, Note_off_c, 1, 64, 0
2, 14000, Note_off_c, 1, 70, 0
2, 14000, Note_on_c, 1, 71, 127
2, 14000, Note_off_c, 1, 73, 0
2, 14000, Note_on_c, 1, 74, 127
2, 14000, Note_off_c, 1, 76, 0
2, 14000, Note_off_c, 1, 85, 0
2, 14040, Note_off_c, 1, 35, 0
2, 14040, Note_off_c, 1, 47, 0
2, 14040, Note_on_c, 1, 56, 127
2, 14040, Note_off_c, 1, 71, 0
2, 14040, Note_off_c, 1, 74, 0
2, 14040, Note_on_c, 1, 78, 127
2, 14040, Note_on_c, 1, 86, 127
2, 14080, Note_on_c, 1, 36, 127
2, 14080, Note_on_c, 1, 48, 127
2, 14080, Note_off_c, 1, 56, 0
2, 14080, Note_on_c, 1, 57, 127
2, 14080, Note_on_c, 1, 60, 127
2, 14080, Note_on_c, 1, 65, 127
2, 14080, Note_on_c, 1, 72, 127
2, 14080, Note_off_c, 1, 78, 0
2, 14080, Note_off_c, 1, 86, 0
2, 14120, Note_off_c, 1, 36, 0
2, 14120, Note_on_c, 1, 37, 127
2, 14120, Note_off_c, 1, 48, 0
2, 14120, Note_off_c, 1, 57, 0
2, 14120, Note_on_c, 1, 59, 127
2, 14120, Note_off_c, 1, 60, 0
2, 14120, Note_off_c, 1, 65, 0
2, 14120, Note_off_c, 1, 72, 0
2, 14160, Note_on_c, 1, 34, 127
2, 14160, Note_off_c, 1, 37, 0
2, 14160, Note_on_c, 1, 41, 127
2, 14160, Note_on_c, 1, 46, 127
2, 14160, Note_off_c, 1, 59, 0
2, 14160, Note_on_c, 1, 73, 127
2, 14160, Note_on_c, 1, 77, 127
2, 14200, Note_off_c, 1, 34, 0
2, 14200, Note_off_c, 1, 41, 0
2, 14200, Note_on_c, 1, 43, 127
2, 14200, Note_off_c, 1, 46, 0
2, 14200, Note_on_c, 1, 52, 127
2, 14200, Note_off_c, 1, 73, 0
2, 14200, Note_on_c, 1, 76, 127
2, 14200, Note_off_c, 1, 77, 0
2, 14200, Note_on_c, 1, 79, 127
2, 14200, Note_on_c, 1, 83, 127
2, 14200, Note_on_c, 1, 88, 127
2, 14240, Note_off_c, 1, 43, 0
2, 14240, Note_on_c, 1, 48, 127
2, 14240, Note_off_c, 1, 52, 0
2, 14240, Note_on_c, 1, 56, 127
2, 14240, Note_on_c, 1, 60, 127
2, 14240, Note_on_c, 1, 67, 127
2, 14240, Note_on_c, 1, 72, 127
2, 14240, Note_off_c, 1, 76, 0
2, 14240, Note_on_c, 1, 77, 127
2, 14240, Note_off_c, 1, 83, 0
2, 14240, Note_off_c, 1, 88, 0
2, 14280, Note_off_c, 1, 48, 0
2, 14280, Note_on_c, 1, 50, 127
2, 14280, Note_off_c, 1, 56, 0
2, 14280, Note_on_c, 1, 57, 127
2, 14280, Note_off_c, 1, 60, 0
2, 14280, Note_on_c, 1, 62, 127
2, 14280, Note_on_c, 1, 66, 127
2, 14280, Note_off_c, 1, 67, 0
2, 14280, Note_off_c, 1, 77, 0
2, 14280, Note_on_c, 1, 78, 127
2, 14280, Note_off_c, 1, 79, 0
2, 14320, Note_on_c, 1, 38, 127
2, 14320, Note_off_c, 1, 50, 0
2, 14320, Note_off_c, 1, 57, 0
2, 14320, Note_off_c, 1, 62, 0
2, 14320, Note_off_c, 1, 66, 0
2, 14320, Note_on_c, 1, 67, 127
2, 14320, Note_on_c, 1, 70, 127
2, 14320, Note_off_c, 1, 72, 0
2, 14320, Note_off_c, 1, 78, 0
2, 14320, Note_on_c, 1, 79, 127
2, 14360, Note_off_c, 1, 38, 0
2, 14360, Note_on_c, 1, 54, 127
2, 14360, Note_on_c, 1, 60, 127
2, 14360, Note_off_c, 1, 67, 0
2, 14360, Note_on_c, 1, 73, 127
2, 14360, Note_off_c, 1, 79, 0
2, 14360, Note_on_c, 1, 82, 127
2, 14400, Note_off_c, 1, 54, 0
2, 14400, Note_off_c, 1, 60, 0
2, 14400, Note_off_c, 1, 70, 0
2, 14400, Note_off_c, 1, 73, 0
2, 14400, Note_off_c, 1, 82, 0
2, 14440, Note_on_c, 1, 55, 127
2, 14440, Note_on_c, 1, 62, 127
2, 14440, Note_on_c, 1, 64, 127
2, 14440, Note_on_c, 1, 67, 127
2, 14480, Note_on_c, 1, 37, 127
2, 14480, Note_on_c, 1, 42, 127
2, 14480, Note_on_c, 1, 45, 127
2, 14480, Note_on_c, 1, 49, 127
2, 14480, Note_off_c, 1, 55, 0
2, 14480, Note_off_c, 1, 62, 0
2, 14480, Note_off_c, 1, 64, 0
2, 14480, Note_off_c, 1, 67, 0
2, 14480, Note_on_c, 1, 85, 127
2, 14480, Note_on_c, 1, 90, 127
2, 14480, Note_on_c, 1, 93, 127
2, 14480, Note_on_c, 1, 97, 127
2, 14520, Note_off_c, 1, 37, 0
2, 14520, Note_off_c, 1, 42, 0
2, 14520, Note_off_c, 1, 45, 0
2, 14520, Note_off_c, 1, 49, 0
2, 14520, Note_on_c, 1, 53, 127
2, 14520, Note_on_c, 1, 60, 127
2, 14520, Note_on_c, 1, 62, 127
2, 14520, Note_on_c, 1, 65, 127
2, 14520, Note_off_c, 1, 85, 0
2, 14520, Note_off_c, 1, 90, 0
2, 14520, Note_off_c, 1, 93, 0
2, 14520, Note_off_c, 1, 97, 0
2, 14560, Note_off_c, 1, 53, 0
2, 14560, Note_off_c, 1, 60, 0
2, 14560, Note_on_c, 1, 61, 127
2, 14560, Note_off_c, 1, 62, 0
2, 14560, Note_on_c, 1, 64, 127
2, 14560, Note_off_c, 1, 65, 0
2, 14560, Note_on_c, 1, 70, 127
2, 14560, Note_on_c, 1, 79, 127
2, 14560, Note_on_c, 1, 91, 127
2, 14600, Note_on_c, 1, 44, 127
2, 14600, Note_on_c, 1, 48, 127
2, 14600, Note_on_c, 1, 58, 127
2, 14600, Note_off_c, 1, 61, 0
2, 14600, Note_off_c, 1, 64, 0
2, 14600, Note_off_c, 1, 70, 0
2, 14600, Note_off_c, 1, 79, 0
2, 14600, Note_on_c, 1, 84, 127
2, 14600, Note_off_c, 1, 91, 0
2, 14600, Note_on_c, 1, 92, 127
2, 14600, Note_on_c, 1, 96, 127
2, 14640, Note_on_c, 1, 34, 127
2, 14640, Note_on_c, 1, 38, 127
2, 14640, Note_on_c, 1, 41, 127
2, 14640, Note_off_c, 1, 44, 0
2, 14640, Note_on_c, 1, 46, 127
2, 14640, Note_off_c, 1, 48, 0
2, 14640, Note_on_c, 1, 53, 127
2, 14640, Note_on_c, 1, 62, 127
2, 14640, Note_on_c, 1, 65, 127
2, 14640, Note_off_c, 1, 84, 0
2, 14640, Note_off_c, 1, 92, 0
2, 14640, Note_off_c, 1, 96, 0
2, 14680, Note_off_c, 1, 34, 0
2, 14680, Note_off_c, 1, 38, 0
2, 14680, Note_off_c, 1, 41, 0
2, 14680, Note_off_c, 1, 46, 0
2, 14680, Note_on_c, 1, 50, 127
2, 14680, Note_off_c, 1, 53, 0
2, 14680, Note_off_c, 1, 65, 0
2, 14680, Note_on_c, 1, 70, 127
2, 14680, Note_on_c, 1, 77, 127
2, 14680, Note_on_c, 1, 80, 127
2, 14680, Note_on_c, 1, 82, 127
2, 14720, Note_off_c, 1, 62, 0
2, 14720, Note_off_c, 1, 70, 0
2, 14720, Note_on_c, 1, 73, 127
2, 14720, Note_off_c, 1, 77, 0
2, 14720, Note_off_c, 1, 80, 0
2, 14720, Note_off_c, 1, 82, 0
2, 14720, Note_on_c, 1, 85, 127
2, 14760, Note_off_c, 1, 50, 0
2, 14760, Note_on_c, 1, 52, 127
2, 14760, Note_on_c, 1, 53, 127
2, 14760, Note_off_c, 1, 58, 0
2, 14760, Note_off_c, 1, 73, 0
2, 14760, Note_off_c, 1, 85, 0
2, 14800, Note_off_c, 1, 52, 0
2, 14800, Note_off_c, 1, 53, 0
2, 14800, Note_on_c, 1, 76, 127
2, 14800, Note_on_c, 1, 78, 127
2, 14800, Note_on_c, 1, 82, 127
2, 14840, Note_on_c, 1, 45, 127
2, 14840, Note_on_c, 1, 48, 127
2, 14840, Note_on_c, 1, 57, 127
2, 14840, Note_on_c, 1, 65, 127
2, 14840, Note_on_c, 1, 72, 127
2, 14840, Note_off_c, 1, 76, 0
2, 14840, Note_on_c, 1, 77, 127
2, 14840, Note_off_c, 1, 78, 0
2, 14840, Note_off_c, 1, 82, 0
2, 15200, Note_off_c, 1, 45, 0
2, 15200, Note_off_c, 1, 48, 0
2, 15200, Note_off_c, 1, 57, 0
2, 15200, Note_off_c, 1, 65, 0
2, 15200, Note_off_c, 1, 72, 0
2, 15200, Note_off_c, 1, 77, 0
2, 15320, Note_on_c, 1, 38, 127
2, 15320, Note_on_c, 1, 43, 127
2, 15320, Note_on_c, 1, 58, 127
2, 15320, Note_on_c, 1, 70, 127
2, 15360, Note_off_c, 1, 38, 0
2, 15360, Note_on_c, 1, 39, 127
2, 15360, Note_on_c, 1, 55, 127
2, 15360, Note_off_c, 1, 58, 0
2, 15360, Note_off_c, 1, 70, 0
2, 15680, Note_off_c, 1, 39, 0
2, 15680, Note_off_c, 1, 43, 0
2, 15680, Note_off_c, 1, 55, 0
2, 15720, Note_on_c, 1, 39, 127
2, 15720, Note_on_c, 1, 43, 127
2, 15720, Note_on_c, 1, 55, 127
2, 16080, Note_off_c, 1, 39, 0
2, 16080, Note_off_c, 1, 43, 0
2, 16080, Note_off_c, 1, 55, 0
2, 16120, Note_on_c, 1, 39, 127
2, 16120, Note_on_c, 1, 43, 127
2, 16120, Note_on_c, 1, 55, 127
2, 16480, Note_off_c, 1, 39, 0
2, 16480, Note_off_c, 1, 43, 0
2, 16480, Note_off_c, 1, 55, 0
2, 16520, Note_on_c, 1, 39, 127
2, 16520, Note_on_c, 1, 43, 127
2, 16520, Note_on_c, 1, 55, 127
2, 16920, Note_off_c, 1, 39, 0
2, 16920, Note_off_c, 1, 43, 0
2, 16920, Note_off_c, 1, 55, 0
2, 16960, Note_on_c, 1, 28, 127
2, 16960, Note_on_c, 1, 40, 127
2, 16960, Note_on_c, 1, 44, 127
2, 16960, Note_on_c, 1, 47, 127
2, 16960, Note_on_c, 1, 52, 127
2, 16960, Note_on_c, 1, 56, 127
2, 16960, Note_on_c, 1, 64, 127
2, 16960, Note_on_c, 1, 68, 127
2, 16960, Note_on_c, 1, 71, 127
2, 16960, Note_on_c, 1, 76, 127
2, 17520, Note_off_c, 1, 28, 0
2, 17520, Note_off_c, 1, 40, 0
2, 17520, Note_off_c, 1, 44, 0
2, 17520, Note_off_c, 1, 47, 0
2, 17520, Note_off_c, 1, 52, 0
2, 17520, Note_off_c, 1, 56, 0
2, 17520, Note_off_c, 1, 64, 0
2, 17520, Note_off_c, 1, 68, 0
2, 17520, Note_off_c, 1, 71, 0
2, 17520, Note_off_c, 1, 76, 0
2, 17560, Note_on_c, 1, 28, 127
2, 17560, Note_on_c, 1, 40, 127
2, 17560, Note_on_c, 1, 44, 127
2, 17560, Note_on_c, 1, 47, 127
2, 17560, Note_on_c, 1, 52, 127
2, 17560, Note_on_c, 1, 56, 127
2, 17560, Note_on_c, 1, 64, 127
2, 17560, Note_on_c, 1, 68, 127
2, 17560, Note_on_c, 1, 71, 127
2, 17560, Note_on_c, 1, 76, 127
2, 17800, Note_off_c, 1, 28, 0
2, 17800, Note_off_c, 1, 40, 0
2, 17800, Note_off_c, 1, 44, 0
2, 17800, Note_off_c, 1, 47, 0
2, 17800, Note_off_c, 1, 52, 0
2, 17800, Note_off_c, 1, 56, 0
2, 17800, Note_off_c, 1, 64, 0
2, 17800, Note_off_c, 1, 68, 0
2, 17800, Note_off_c, 1, 71, 0
2, 17800, Note_off_c, 1, 76, 0
2, 17840, Note_on_c, 1, 51, 127
2, 17840, Note_on_c, 1, 63, 127
2, 17840, Note_on_c, 1, 67, 127
2, 17840, Note_on_c, 1, 79, 127
2, 17840, Note_on_c, 1, 82, 127
2, 18200, Note_on_c, 1, 48, 127
2, 18200, Note_off_c, 1, 51, 0
2, 18200, Note_on_c, 1, 55, 127
2, 18200, Note_on_c, 1, 62, 127
2, 18200, Note_off_c, 1, 63, 0
2, 18200, Note_off_c, 1, 67, 0
2, 18200, Note_off_c, 1, 79, 0
2, 18200, Note_off_c, 1, 82, 0
2, 18200, Note_on_c, 1, 96, 127
2, 18240, Note_on_c, 1, 40, 127
2, 18240, Note_off_c, 1, 48, 0
2, 18240, Note_on_c, 1, 52, 127
2, 18240, Note_off_c, 1, 55, 0
2, 18240, Note_off_c, 1, 62, 0
2, 18240, Note_on_c, 1, 64, 127
2, 18240, Note_off_c, 1, 96, 0
2, 18280, Note_off_c, 1, 40, 0
2, 18280, Note_off_c, 1, 52, 0
2, 18280, Note_off_c, 1, 64, 0
2, 18280, Note_on_c, 1, 74, 127
2, 18280, Note_on_c, 1, 77, 127
2, 18280, Note_on_c, 1, 80, 127
2, 18280, Note_on_c, 1, 83, 127
2, 18280, Note_on_c, 1, 94, 127
2, 18320, Note_on_c, 1, 41, 127
2, 18320, Note_on_c, 1, 44, 127
2, 18320, Note_on_c, 1, 53, 127
2, 18320, Note_on_c, 1, 73, 127
2, 18320, Note_off_c, 1, 74, 0
2, 18320, Note_off_c, 1, 77, 0
2, 18320, Note_off_c, 1, 80, 0
2, 18320, Note_off_c, 1, 83, 0
2, 18320, Note_off_c, 1, 94, 0
2, 18360, Note_on_c, 1, 33, 127
2, 18360, Note_off_c, 1, 41, 0
2, 18360, Note_off_c, 1, 44, 0
2, 18360, Note_on_c, 1, 45, 127
2, 18360, Note_off_c, 1, 53, 0
2, 18360, Note_off_c, 1, 73, 0
2, 18360, Note_on_c, 1, 86, 127
2, 18360, Note_on_c, 1, 90, 127
2, 18360, Note_on_c, 1, 93, 127
2, 18360, Note_on_c, 1, 98, 127
2, 18400, Note_off_c, 1, 33, 0
2, 18400, Note_on_c, 1, 41, 127
2, 18400, Note_on_c, 1, 44, 127
2, 18400, Note_off_c, 1, 45, 0
2, 18400, Note_on_c, 1, 53, 127
2, 18400, Note_on_c, 1, 73, 127
2, 18400, Note_off_c, 1, 86, 0
2, 18400, Note_off_c, 1, 90, 0
2, 18400, Note_off_c, 1, 93, 0
2, 18400, Note_off_c, 1, 98, 0
2, 18440, Note_off_c, 1, 44, 0
2, 18440, Note_on_c, 1, 50, 127
2, 18440, Note_off_c, 1, 73, 0
2, 18440, Note_on_c, 1, 81, 127
2, 18440, Note_on_c, 1, 86, 127
2, 18480, Note_off_c, 1, 41, 0
2, 18480, Note_off_c, 1, 50, 0
2, 18480, Note_on_c, 1, 51, 127
2, 18480, Note_off_c, 1, 53, 0
2, 18480, Note_on_c, 1, 55, 127
2, 18480, Note_on_c, 1, 68, 127
2, 18480, Note_on_c, 1, 80, 127
2, 18480, Note_off_c, 1, 81, 0
2, 18480, Note_off_c, 1, 86, 0
2, 18520, Note_on_c, 1, 36, 127
2, 18520, Note_on_c, 1, 41, 127
2, 18520, Note_on_c, 1, 48, 127
2, 18520, Note_off_c, 1, 51, 0
2, 18520, Note_off_c, 1, 55, 0
2, 18520, Note_off_c, 1, 68, 0
2, 18520, Note_on_c, 1, 77, 127
2, 18520, Note_off_c, 1, 80, 0
2, 18520, Note_on_c, 1, 89, 127
2, 18560, Note_off_c, 1, 36, 0
2, 18560, Note_off_c, 1, 41, 0
2, 18560, Note_off_c, 1, 48, 0
2, 18560, Note_on_c, 1, 49, 127
2, 18560, Note_on_c, 1, 52, 127
2, 18560, Note_on_c, 1, 57, 127
2, 18560, Note_on_c, 1, 61, 127
2, 18560, Note_on_c, 1, 73, 127
2, 18560, Note_on_c, 1, 76, 127
2, 18560, Note_off_c, 1, 77, 0
2, 18560, Note_on_c, 1, 81, 127
2, 18560, Note_on_c, 1, 85, 127
2, 18560, Note_off_c, 1, 89, 0
2, 18600, Note_on_c, 1, 38, 127
2, 18600, Note_on_c, 1, 48, 127
2, 18600, Note_off_c, 1, 49, 0
2, 18600, Note_off_c, 1, 52, 0
2, 18600, Note_off_c, 1, 57, 0
2, 18600, Note_off_c, 1, 61, 0
2, 18600, Note_on_c, 1, 69, 127
2, 18600, Note_off_c, 1, 73, 0
2, 18600, Note_off_c, 1, 76, 0
2, 18600, Note_off_c, 1, 81, 0
2, 18600, Note_off_c, 1, 85, 0
2, 18640, Note_off_c, 1, 38, 0
2, 18640, Note_off_c, 1, 48, 0
2, 18640, Note_on_c, 1, 61, 127
2, 18640, Note_off_c, 1, 69, 0
2, 18680, Note_off_c, 1, 61, 0
2, 18680, Note_on_c, 1, 62, 127
2, 18680, Note_on_c, 1, 65, 127
2, 18680, Note_on_c, 1, 73, 127
2, 18680, Note_on_c, 1, 78, 127
2, 18680, Note_on_c, 1, 85, 127
2, 19080, Note_off_c, 1, 62, 0
2, 19080, Note_off_c, 1, 65, 0
2, 19080, Note_off_c, 1, 73, 0
2, 19080, Note_off_c, 1, 78, 0
2, 19080, Note_off_c, 1, 85, 0
2, 19120, Note_on_c, 1, 43, 127
2, 19120, Note_on_c, 1, 62, 127
2, 19120, Note_on_c, 1, 71, 127
2, 19480, Note_off_c, 1, 43, 0
2, 19520, Note_on_c, 1, 47, 127
2, 19760, Note_off_c, 1, 47, 0
2, 19760, Note_off_c, 1, 62, 0
2, 19760, Note_off_c, 1, 71, 0
2, 19800, Note_on_c, 1, 47, 127
2, 19800, Note_on_c, 1, 62, 127
2, 19800, Note_on_c, 1, 71, 127
2, 19960, Note_off_c, 1, 47, 0
2, 19960, Note_off_c, 1, 62, 0
2, 19960, Note_off_c, 1, 71, 0
2, 20000, Note_on_c, 1, 47, 127
2, 20000, Note_on_c, 1, 63, 127
2, 20000, Note_on_c, 1, 69, 127
2, 20000, Note_on_c, 1, 79, 127
2, 20160, Note_off_c, 1, 79, 0
2, 20200, Note_on_c, 1, 29, 127
2, 20200, Note_off_c, 1, 63, 0
2, 20200, Note_off_c, 1, 69, 0
2, 20240, Note_off_c, 1, 29, 0
2, 20240, Note_off_c, 1, 47, 0
2, 20240, Note_on_c, 1, 59, 127
2, 20240, Note_on_c, 1, 63, 127
2, 20240, Note_on_c, 1, 73, 127
2, 20240, Note_on_c, 1, 81, 127
2, 20240, Note_on_c, 1, 93, 127
2, 20280, Note_on_c, 1, 55, 127
2, 20280, Note_off_c, 1, 59, 0
2, 20280, Note_on_c, 1, 61, 127
2, 20280, Note_off_c, 1, 63, 0
2, 20280, Note_on_c, 1, 71, 127
2, 20280, Note_off_c, 1, 73, 0
2, 20280, Note_on_c, 1, 74, 127
2, 20280, Note_off_c, 1, 81, 0
2, 20280, Note_on_c, 1, 83, 127
2, 20280, Note_off_c, 1, 93, 0
2, 20320, Note_off_c, 1, 55, 0
2, 20320, Note_off_c, 1, 61, 0
2, 20320, Note_off_c, 1, 71, 0
2, 20320, Note_off_c, 1, 74, 0
2, 20320, Note_on_c, 1, 76, 127
2, 20320, Note_on_c, 1, 80, 127
2, 20320, Note_off_c, 1, 83, 0
2, 20320, Note_on_c, 1, 85, 127
2, 20320, Note_on_c, 1, 88, 127
2, 20320, Note_on_c, 1, 96, 127
2, 20360, Note_on_c, 1, 47, 127
2, 20360, Note_off_c, 1, 76, 0
2, 20360, Note_off_c, 1, 80, 0
2, 20360, Note_off_c, 1, 85, 0
2, 20360, Note_off_c, 1, 88, 0
2, 20360, Note_off_c, 1, 96, 0
2, 20400, Note_on_c, 1, 54, 127
2, 20400, Note_on_c, 1, 62, 127
2, 20400, Note_on_c, 1, 66, 127
2, 20800, Note_off_c, 1, 47, 0
2, 20800, Note_off_c, 1, 54, 0
2, 20800, Note_off_c, 1, 62, 0
2, 20800, Note_off_c, 1, 66, 0
2, 20840, Note_on_c, 1, 31, 127
2, 20840, Note_on_c, 1, 55, 127
2, 20840, Note_on_c, 1, 62, 127
2, 20880, Note_off_c, 1, 31, 0
2, 20880, Note_on_c, 1, 34, 127
2, 20880, Note_on_c, 1, 37, 127
2, 20880, Note_on_c, 1, 46, 127
2, 20880, Note_off_c, 1, 55, 0
2, 20880, Note_off_c, 1, 62, 0
2, 20880, Note_on_c, 1, 65, 127
2, 20880, Note_on_c, 1, 77, 127
2, 20920, Note_off_c, 1, 34, 0
2, 20920, Note_off_c, 1, 37, 0
2, 20920, Note_on_c, 1, 39, 127
2, 20920, Note_on_c, 1, 42, 127
2, 20920, Note_off_c, 1, 46, 0
2, 20920, Note_on_c, 1, 47, 127
2, 20920, Note_on_c, 1, 51, 127
2, 20920, Note_off_c, 1, 65, 0
2, 20920, Note_on_c, 1, 71, 127
2, 20920, Note_off_c, 1, 77, 0
2, 20920, Note_on_c, 1, 83, 127
2, 20960, Note_off_c, 1, 39, 0
2, 20960, Note_off_c, 1, 42, 0
2, 20960, Note_off_c, 1, 47, 0
2, 20960, Note_off_c, 1, 51, 0
2, 20960, Note_on_c, 1, 55, 127
2, 20960, Note_on_c, 1, 58, 127
2, 20960, Note_on_c, 1, 62, 127
2, 20960, Note_on_c, 1, 65, 127
2, 20960, Note_off_c, 1, 71, 0
2, 20960, Note_on_c, 1, 77, 127
2, 20960, Note_off_c, 1, 83, 0
2, 21000, Note_on_c, 1, 27, 127
2, 21000, Note_on_c, 1, 39, 127
2, 21000, Note_off_c, 1, 55, 0
2, 21000, Note_off_c, 1, 58, 0
2, 21000, Note_off_c, 1, 62, 0
2, 21000, Note_on_c, 1, 63, 127
2, 21000, Note_off_c, 1, 65, 0
2, 21000, Note_on_c, 1, 67, 127
2, 21000, Note_on_c, 1, 75, 127
2, 21000, Note_off_c, 1, 77, 0
2, 21040, Note_off_c, 1, 27, 0
2, 21040, Note_off_c, 1, 39, 0
2, 21040, Note_on_c, 1, 56, 127
2, 21040, Note_on_c, 1, 58, 127
2, 21040, Note_off_c, 1, 63, 0
2, 21040, Note_on_c, 1, 65, 127
2, 21040, Note_off_c, 1, 67, 0
2, 21040, Note_off_c, 1, 75, 0
2, 21040, Note_on_c, 1, 77, 127
2, 21040, Note_on_c, 1, 80, 127
2, 21040, Note_on_c, 1, 89, 127
2, 21080, Note_on_c, 1, 35, 127
2, 21080, Note_on_c, 1, 45, 127
2, 21080, Note_off_c, 1, 56, 0
2, 21080, Note_off_c, 1, 58, 0
2, 21080, Note_off_c, 1, 65, 0
2, 21080, Note_off_c, 1, 77, 0
2, 21080, Note_off_c, 1, 80, 0
2, 21080, Note_off_c, 1, 89, 0
2, 21120, Note_off_c, 1, 35, 0
2, 21120, Note_on_c, 1, 38, 127
2, 21120, Note_off_c, 1, 45, 0
2, 21120, Note_on_c, 1, 50, 127
2, 21120, Note_on_c, 1, 62, 127
2, 21120, Note_on_c, 1, 67, 127
2, 21120, Note_on_c, 1, 72, 127
2, 21160, Note_off_c, 1, 38, 0
2, 21160, Note_on_c, 1, 46, 127
2, 21160, Note_off_c, 1, 50, 0
2, 21160, Note_on_c, 1, 55, 127
2, 21160, Note_on_c, 1, 58, 127
2, 21160, Note_off_c, 1, 62, 0
2, 21160, Note_on_c, 1, 63, 127
2, 21160, Note_on_c, 1, 70, 127
2, 21160, Note_off_c, 1, 72, 0
2, 21200, Note_off_c, 1, 46, 0
2, 21200, Note_off_c, 1, 55, 0
2, 21200, Note_off_c, 1, 58, 0
2, 21200, Note_off_c, 1, 63, 0
2, 21200, Note_off_c, 1, 67, 0
2, 21200, Note_off_c, 1, 70, 0
2, 21240, Note_on_c, 1, 41, 127
2, 21240, Note_on_c, 1, 50, 127
2, 21240, Note_on_c, 1, 58, 127
2, 21640, Note_off_c, 1, 41, 0
2, 21640, Note_off_c, 1, 50, 0
2, 21640, Note_off_c, 1, 58, 0
2, 21680, Note_on_c, 1, 45, 127
2, 21680, Note_on_c, 1, 84, 127
2, 21680, Note_on_c, 1, 94, 127
2, 21720, Note_on_c, 1, 38, 127
2, 21720, Note_on_c, 1, 43, 127
2, 21720, Note_off_c, 1, 45, 0
2, 21720, Note_on_c, 1, 50, 127
2, 21720, Note_on_c, 1, 79, 127
2, 21720, Note_off_c, 1, 84, 0
2, 21720, Note_off_c, 1, 94, 0
2, 21760, Note_on_c, 1, 32, 127
2, 21760, Note_off_c, 1, 38, 0
2, 21760, Note_on_c, 1, 39, 127
2, 21760, Note_off_c, 1, 43, 0
2, 21760, Note_off_c, 1, 50, 0
2, 21760, Note_on_c, 1, 64, 127
2, 21760, Note_on_c, 1, 67, 127
2, 21760, Note_on_c, 1, 70, 127
2, 21760, Note_on_c, 1, 73, 127
2, 21760, Note_off_c, 1, 79, 0
2, 21800, Note_off_c, 1, 32, 0
2, 21800, Note_on_c, 1, 37, 127
2, 21800, Note_off_c, 1, 39, 0
2, 21800, Note_on_c, 1, 49, 127
2, 21800, Note_off_c, 1, 64, 0
2, 21800, Note_on_c, 1, 66, 127
2, 21800, Note_off_c, 1, 67, 0
2, 21800, Note_on_c, 1, 68, 127
2, 21800, Note_off_c, 1, 70, 0
2, 21800, Note_on_c, 1, 78, 127
2, 21840, Note_off_c, 1, 37, 0
2, 21840, Note_on_c, 1, 40, 127
2, 21840, Note_off_c, 1, 49, 0
2, 21840, Note_on_c, 1, 50, 127
2, 21840, Note_on_c, 1, 55, 127
2, 21840, Note_off_c, 1, 66, 0
2, 21840, Note_off_c, 1, 68, 0
2, 21840, Note_off_c, 1, 73, 0
2, 21840, Note_off_c, 1, 78, 0
2, 21880, Note_on_c, 1, 38, 127
2, 21880, Note_off_c, 1, 40, 0
2, 21880, Note_on_c, 1, 43, 127
2, 21880, Note_off_c, 1, 55, 0
2, 21880, Note_on_c, 1, 79, 127
2, 21920, Note_off_c, 1, 38, 0
2, 21920, Note_off_c, 1, 43, 0
2, 21920, Note_off_c, 1, 50, 0
2, 21920, Note_off_c, 1, 79, 0
2, 21960, Note_on_c, 1, 38, 127
2, 21960, Note_on_c, 1, 43, 127
2, 21960, Note_on_c, 1, 50, 127
2, 21960, Note_on_c, 1, 79, 127
2, 22080, Note_off_c, 1, 38, 0
2, 22080, Note_on_c, 1, 39, 127
2, 22080, Note_off_c, 1, 43, 0
2, 22080, Note_off_c, 1, 50, 0
2, 22080, Note_on_c, 1, 51, 127
2, 22080, Note_on_c, 1, 61, 127
2, 22080, Note_on_c, 1, 66, 127
2, 22080, Note_on_c, 1, 70, 127
2, 22080, Note_on_c, 1, 73, 127
2, 22080, Note_off_c, 1, 79, 0
2, 22080, Note_on_c, 1, 82, 127
2, 22120, Note_off_c, 1, 39, 0
2, 22120, Note_off_c, 1, 51, 0
2, 22120, Note_off_c, 1, 61, 0
2, 22120, Note_off_c, 1, 66, 0
2, 22120, Note_off_c, 1, 70, 0
2, 22120, Note_off_c, 1, 73, 0
2, 22120, Note_off_c, 1, 82, 0
2, 22160, Note_on_c, 1, 37, 127
2, 22160, Note_on_c, 1, 46, 127
2, 22160, Note_on_c, 1, 52, 127
2, 22160, Note_on_c, 1, 55, 127
2, 22160, Note_on_c, 1, 58, 127
2, 22160, Note_on_c, 1, 67, 127
2, 22520, Note_off_c, 1, 37, 0
2, 22520, Note_off_c, 1, 46, 0
2, 22520, Note_off_c, 1, 52, 0
2, 22520, Note_off_c, 1, 55, 0
2, 22520, Note_off_c, 1, 58, 0
2, 22520, Note_on_c, 1, 65, 127
2, 22520, Note_off_c, 1, 67, 0
2, 22560, Note_on_c, 1, 43, 127
2, 22560, Note_on_c, 1, 48, 127
2, 22560, Note_on_c, 1, 52, 127
2, 22560, Note_on_c, 1, 64, 127
2, 22560, Note_off_c, 1, 65, 0
2, 22560, Note_on_c, 1, 72, 127
2, 22560, Note_on_c, 1, 76, 127
2, 22920, Note_off_c, 1, 48, 0
2, 22920, Note_off_c, 1, 52, 0
2, 22920, Note_on_c, 1, 59, 127
2, 22920, Note_off_c, 1, 64, 0
2, 22920, Note_on_c, 1, 67, 127
2, 22920, Note_on_c, 1, 71, 127
2, 22920, Note_off_c, 1, 72, 0
2, 22920, Note_on_c, 1, 74, 127
2, 22920, Note_off_c, 1, 76, 0
2, 22960, Note_off_c, 1, 59, 0
2, 22960, Note_off_c, 1, 67, 0
2, 22960, Note_off_c, 1, 71, 0
2, 22960, Note_off_c, 1, 74, 0
2, 23000, Note_off_c, 1, 43, 0
2, 23000, Note_on_c, 1, 44, 127
2, 23000, Note_on_c, 1, 51, 127
2, 23000, Note_on_c, 1, 60, 127
2, 23000, Note_on_c, 1, 62, 127
2, 23000, Note_on_c, 1, 72, 127
2, 23200, Note_off_c, 1, 44, 0
2, 23200, Note_off_c, 1, 51, 0
2, 23200, Note_on_c, 1, 53, 127
2, 23200, Note_on_c, 1, 56, 127
2, 23200, Note_on_c, 1, 59, 127
2, 23200, Note_off_c, 1, 60, 0
2, 23200, Note_off_c, 1, 62, 0
2, 23320, Note_off_c, 1, 56, 0
2, 23320, Note_on_c, 1, 57, 127
2, 23320, Note_off_c, 1, 59, 0
2, 23320, Note_on_c, 1, 65, 127
2, 23320, Note_on_c, 1, 84, 127
2, 23360, Note_off_c, 1, 53, 0
2, 23360, Note_off_c, 1, 57, 0
2, 23360, Note_off_c, 1, 65, 0
2, 23360, Note_off_c, 1, 72, 0
2, 23360, Note_off_c, 1, 84, 0
2, 23400, Note_on_c, 1, 28, 127
2, 23400, Note_on_c, 1, 33, 127
2, 23400, Note_on_c, 1, 36, 127
2, 23400, Note_on_c, 1, 40, 127
2, 23400, Note_on_c, 1, 52, 127
2, 23400, Note_on_c, 1, 57, 127
2, 23400, Note_on_c, 1, 60, 127
2, 23400, Note_on_c, 1, 64, 127
2, 23440, Note_off_c, 1, 28, 0
2, 23440, Note_off_c, 1, 33, 0
2, 23440, Note_off_c, 1, 36, 0
2, 23440, Note_off_c, 1, 40, 0
2, 23440, Note_off_c, 1, 52, 0
2, 23440, Note_on_c, 1, 55, 127
2, 23440, Note_on_c, 1, 62, 127
2, 23440, Note_off_c, 1, 64, 0
2, 23440, Note_on_c, 1, 84, 127
2, 23480, Note_off_c, 1, 55, 0
2, 23480, Note_off_c, 1, 57, 0
2, 23480, Note_on_c, 1, 59, 127
2, 23480, Note_off_c, 1, 60, 0
2, 23480, Note_off_c, 1, 62, 0
2, 23480, Note_off_c, 1, 84, 0
2, 23480, Note_on_c, 1, 100, 127
2, 23520, Note_on_c, 1, 44, 127
2, 23520, Note_on_c, 1, 65, 127
2, 23520, Note_on_c, 1, 71, 127
2, 23520, Note_off_c, 1, 100, 0
2, 23560, Note_off_c, 1, 44, 0
2, 23560, Note_on_c, 1, 55, 127
2, 23560, Note_off_c, 1, 59, 0
2, 23560, Note_on_c, 1, 62, 127
2, 23560, Note_on_c, 1, 64, 127
2, 23560, Note_off_c, 1, 65, 0
2, 23600, Note_off_c, 1, 55, 0
2, 23600, Note_off_c, 1, 62, 0
2, 23600, Note_off_c, 1, 64, 0
2, 23600, Note_off_c, 1, 71, 0
2, 23600, Note_on_c, 1, 79, 127
2, 23600, Note_on_c, 1, 85, 127
2, 23600, Note_on_c, 1, 88, 127
2, 23600, Note_on_c, 1, 93, 127
2, 23640, Note_on_c, 1, 61, 127
2, 23640, Note_on_c, 1, 63, 127
2, 23640, Note_on_c, 1, 68, 127
2, 23640, Note_on_c, 1, 75, 127
2, 23640, Note_off_c, 1, 79, 0
2, 23640, Note_off_c, 1, 85, 0
2, 23640, Note_off_c, 1, 88, 0
2, 23640, Note_off_c, 1, 93, 0
2, 23680, Note_on_c, 1, 46, 127
2, 23680, Note_on_c, 1, 51, 127
2, 23680, Note_on_c, 1, 58, 127
2, 23680, Note_off_c, 1, 63, 0
2, 23680, Note_off_c, 1, 68, 0
2, 23680, Note_on_c, 1, 73, 127
2, 23720, Note_off_c, 1, 46, 0
2, 23720, Note_off_c, 1, 51, 0
2, 23720, Note_off_c, 1, 58, 0
2, 23720, Note_off_c, 1, 61, 0
2, 23720, Note_off_c, 1, 73, 0
2, 23720, Note_off_c, 1, 75, 0
2, 23760, Note_on_c, 1, 92, 127
2, 23760, Note_on_c, 1, 102, 127
2, 23800, Note_on_c, 1, 40, 127
2, 23800, Note_on_c, 1, 52, 127
2, 23800, Note_on_c, 1, 56, 127
2, 23800, Note_on_c, 1, 58, 127
2, 23800, Note_on_c, 1, 65, 127
2, 23800, Note_on_c, 1, 68, 127
2, 23800, Note_on_c, 1, 70, 127
2, 23800, Note_off_c, 1, 92, 0
2, 23800, Note_off_c, 1, 102, 0
2, 23840, Note_off_c, 1, 40, 0
2, 23840, Note_off_c, 1, 52, 0
2, 23840, Note_off_c, 1, 56, 0
2, 23840, Note_off_c, 1, 58, 0
2, 23840, Note_off_c, 1, 65, 0
2, 23840, Note_off_c, 1, 68, 0
2, 23840, Note_off_c, 1, 70, 0
2, 23880, Note_on_c, 1, 45, 127
2, 23880, Note_on_c, 1, 50, 127
2, 23880, Note_on_c, 1, 57, 127
2, 23880, Note_on_c, 1, 65, 127
2, 23880, Note_on_c, 1, 69, 127
2, 24240, Note_off_c, 1, 45, 0
2, 24240, Note_off_c, 1, 50, 0
2, 24240, Note_off_c, 1, 57, 0
2, 24240, Note_off_c, 1, 65, 0
2, 24240, Note_off_c, 1, 69, 0
2, 24280, Note_on_c, 1, 46, 127
2, 24280, Note_on_c, 1, 51, 127
2, 24280, Note_on_c, 1, 58, 127
2, 24280, Note_on_c, 1, 61, 127
2, 24320, Note_off_c, 1, 46, 0
2, 24320, Note_off_c, 1, 51, 0
2, 24320, Note_on_c, 1, 53, 127
2, 24320, Note_on_c, 1, 55, 127
2, 24320, Note_off_c, 1, 61, 0
2, 24320, Note_on_c, 1, 74, 127
2, 24360, Note_on_c, 1, 47, 127
2, 24360, Note_off_c, 1, 53, 0
2, 24360, Note_on_c, 1, 54, 127
2, 24360, Note_off_c, 1, 55, 0
2, 24360, Note_off_c, 1, 58, 0
2, 24360, Note_on_c, 1, 61, 127
2, 24360, Note_on_c, 1, 70, 127
2, 24360, Note_off_c, 1, 74, 0
2, 24360, Note_on_c, 1, 76, 127
2, 24360, Note_on_c, 1, 78, 127
2, 24400, Note_on_c, 1, 36, 127
2, 24400, Note_off_c, 1, 47, 0
2, 24400, Note_off_c, 1, 54, 0
2, 24400, Note_on_c, 1, 57, 127
2, 24400, Note_on_c, 1, 60, 127
2, 24400, Note_off_c, 1, 61, 0
2, 24400, Note_on_c, 1, 64, 127
2, 24400, Note_off_c, 1, 70, 0
2, 24400, Note_off_c, 1, 78, 0
2, 24440, Note_off_c, 1, 36, 0
2, 24440, Note_on_c, 1, 41, 127
2, 24440, Note_off_c, 1, 60, 0
2, 24440, Note_off_c, 1, 64, 0
2, 24440, Note_on_c, 1, 69, 127
2, 24440, Note_on_c, 1, 74, 127
2, 24440, Note_off_c, 1, 76, 0
2, 24480, Note_off_c, 1, 41, 0
2, 24480, Note_on_c, 1, 54, 127
2, 24480, Note_off_c, 1, 57, 0
2, 24480, Note_on_c, 1, 61, 127
2, 24480, Note_on_c, 1, 64, 127
2, 24480, Note_off_c, 1, 69, 0
2, 24480, Note_on_c, 1, 70, 127
2, 24480, Note_off_c, 1, 74, 0
2, 24480, Note_on_c, 1, 76, 127
2, 24520, Note_on_c, 1, 44, 127
2, 24520, Note_on_c, 1, 49, 127
2, 24520, Note_off_c, 1, 54, 0
2, 24520, Note_on_c, 1, 59, 127
2, 24520, Note_off_c, 1, 61, 0
2, 24520, Note_off_c, 1, 64, 0
2, 24520, Note_off_c, 1, 70, 0
2, 24520, Note_off_c, 1, 76, 0
2, 24520, Note_on_c, 1, 77, 127
2, 24560, Note_off_c, 1, 44, 0
2, 24560, Note_off_c, 1, 49, 0
2, 24560, Note_on_c, 1, 62, 127
2, 24560, Note_on_c, 1, 65, 127
2, 24560, Note_off_c, 1, 77, 0
2, 24560, Note_on_c, 1, 85, 127
2, 24600, Note_on_c, 1, 38, 127
2, 24600, Note_on_c, 1, 45, 127
2, 24600, Note_on_c, 1, 48, 127
2, 24600, Note_on_c, 1, 54, 127
2, 24600, Note_off_c, 1, 59, 0
2, 24600, Note_on_c, 1, 60, 127
2, 24600, Note_off_c, 1, 62, 0
2, 24600, Note_off_c, 1, 65, 0
2, 24600, Note_on_c, 1, 66, 127
2, 24600, Note_on_c, 1, 69, 127
2, 24600, Note_off_c, 1, 85, 0
2, 24640, Note_off_c, 1, 38, 0
2, 24640, Note_off_c, 1, 45, 0
2, 24640, Note_off_c, 1, 48, 0
2, 24640, Note_off_c, 1, 54, 0
2, 24640, Note_on_c, 1, 57, 127
2, 24640, Note_off_c, 1, 69, 0
2, 24640, Note_on_c, 1, 77, 127
2, 24640, Note_on_c, 1, 84, 127
2, 24640, Note_on_c, 1, 87, 127
2, 24640, Note_on_c, 1, 89, 127
2, 24680, Note_off_c, 1, 57, 0
2, 24680, Note_off_c, 1, 60, 0
2, 24680, Note_off_c, 1, 66, 0
2, 24680, Note_off_c, 1, 77, 0
2, 24680, Note_off_c, 1, 84, 0
2, 24680, Note_off_c, 1, 87, 0
2, 24680, Note_off_c, 1, 89, 0
2, 24720, Note_on_c, 1, 34, 127
2, 24720, Note_on_c, 1, 43, 127
2, 24720, Note_on_c, 1, 49, 127
2, 24720, Note_on_c, 1, 52, 127
2, 25520, Note_off_c, 1, 34, 0
2, 25520, Note_off_c, 1, 43, 0
2, 25520, Note_off_c, 1, 49, 0
2, 25520, Note_off_c, 1, 52, 0
2, 25560, Note_on_c, 1, 31, 127
2, 25680, Note_off_c, 1, 31, 0
2, 25680, Note_on_c, 1, 36, 127
2, 25720, Note_off_c, 1, 36, 0
2, 25720, Note_on_c, 1, 62, 127
2, 25720, Note_on_c, 1, 69, 127
2, 25720, Note_on_c, 1, 81, 127
2, 25720, Note_on_c, 1, 85, 127
2, 25760, Note_off_c, 1, 62, 0
2, 25760, Note_off_c, 1, 69, 0
2, 25760, Note_off_c, 1, 81, 0
2, 25760, Note_off_c, 1, 85, 0
2, 25800, Note_on_c, 1, 46, 127
2, 25800, Note_on_c, 1, 49, 127
2, 25800, Note_on_c, 1, 61, 127
2, 25800, Note_on_c, 1, 66, 127
2, 25840, Note_on_c, 1, 45, 127
2, 25840, Note_off_c, 1, 46, 0
2, 25840, Note_off_c, 1, 49, 0
2, 25840, Note_on_c, 1, 54, 127
2, 25840, Note_off_c, 1, 61, 0
2, 25840, Note_off_c, 1, 66, 0
2, 25840, Note_on_c, 1, 75, 127
2, 25840, Note_on_c, 1, 78, 127
2, 25840, Note_on_c, 1, 83, 127
2, 25840, Note_on_c, 1, 87, 127
2, 25880, Note_off_c, 1, 45, 0
2, 25880, Note_on_c, 1, 47, 127
2, 25880, Note_on_c, 1, 50, 127
2, 25880, Note_on_c, 1, 59, 127
2, 25880, Note_off_c, 1, 75, 0
2, 25880, Note_off_c, 1, 78, 0
2, 25880, Note_on_c, 1, 82, 127
2, 25880, Note_off_c, 1, 83, 0
2, 25880, Note_off_c, 1, 87, 0
2, 25920, Note_off_c, 1, 47, 0
2, 25920, Note_off_c, 1, 50, 0
2, 25920, Note_on_c, 1, 51, 127
2, 25920, Note_off_c, 1, 54, 0
2, 25920, Note_on_c, 1, 55, 127
2, 25920, Note_off_c, 1, 59, 0
2, 25920, Note_on_c, 1, 60, 127
2, 25920, Note_on_c, 1, 63, 127
2, 25920, Note_on_c, 1, 72, 127
2, 25920, Note_on_c, 1, 79, 127
2, 25920, Note_on_c, 1, 84, 127
2, 25960, Note_off_c, 1, 51, 0
2, 25960, Note_off_c, 1, 55, 0
2, 25960, Note_off_c, 1, 60, 0
2, 25960, Note_off_c, 1, 63, 0
2, 25960, Note_off_c, 1, 72, 0
2, 25960, Note_off_c, 1, 79, 0
2, 25960, Note_off_c, 1, 82, 0
2, 25960, Note_off_c, 1, 84, 0
2, 26000, Note_on_c, 1, 53, 127
2, 26000, Note_on_c, 1, 58, 127
2, 26000, Note_on_c, 1, 94, 127
2, 26000, Note_on_c, 1, 98, 127
2, 26040, Note_on_c, 1, 38, 127
2, 26040, Note_on_c, 1, 47, 127
2, 26040, Note_off_c, 1, 53, 0
2, 26040, Note_off_c, 1, 58, 0
2, 26040, Note_on_c, 1, 74, 127
2, 26040, Note_on_c, 1, 83, 127
2, 26040, Note_on_c, 1, 86, 127
2, 26040, Note_off_c, 1, 94, 0
2, 26040, Note_off_c, 1, 98, 0
2, 26080, Note_off_c, 1, 38, 0
2, 26080, Note_off_c, 1, 47, 0
2, 26080, Note_on_c, 1, 55, 127
2, 26080, Note_on_c, 1, 79, 127
2, 26120, Note_on_c, 1, 31, 127
2, 26120, Note_on_c, 1, 43, 127
2, 26120, Note_off_c, 1, 55, 0
2, 26160, Note_off_c, 1, 31, 0
2, 26160, Note_off_c, 1, 43, 0
2, 26160, Note_off_c, 1, 74, 0
2, 26160, Note_off_c, 1, 79, 0
2, 26160, Note_off_c, 1, 83, 0
2, 26160, Note_off_c, 1, 86, 0
2, 26200, Note_on_c, 1, 38, 127
2, 26200, Note_on_c, 1, 65, 127
2, 26200, Note_on_c, 1, 76, 127
2, 26200, Note_on_c, 1, 77, 127
2, 26240, Note_off_c, 1, 38, 0
2, 26240, Note_on_c, 1, 42, 127
2, 26240, Note_on_c, 1, 45, 127
2, 26240, Note_on_c, 1, 50, 127
2, 26240, Note_on_c, 1, 54, 127
2, 26240, Note_on_c, 1, 59, 127
2, 26240, Note_off_c, 1, 65, 0
2, 26240, Note_on_c, 1, 71, 127
2, 26240, Note_off_c, 1, 76, 0
2, 26240, Note_off_c, 1, 77, 0
2, 26280, Note_on_c, 1, 32, 127
2, 26280, Note_off_c, 1, 42, 0
2, 26280, Note_on_c, 1, 44, 127
2, 26280, Note_off_c, 1, 45, 0
2, 26280, Note_off_c, 1, 50, 0
2, 26280, Note_off_c, 1, 54, 0
2, 26280, Note_off_c, 1, 59, 0
2, 26280, Note_on_c, 1, 61, 127
2, 26280, Note_on_c, 1, 65, 127
2, 26280, Note_off_c, 1, 71, 0
2, 26280, Note_on_c, 1, 73, 127
2, 26320, Note_off_c, 1, 32, 0
2, 26320, Note_on_c, 1, 39, 127
2, 26320, Note_off_c, 1, 44, 0
2, 26320, Note_on_c, 1, 51, 127
2, 26320, Note_off_c, 1, 61, 0
2, 26320, Note_on_c, 1, 63, 127
2, 26320, Note_off_c, 1, 65, 0
2, 26320, Note_on_c, 1, 71, 127
2, 26320, Note_off_c, 1, 73, 0
2, 26320, Note_on_c, 1, 75, 127
2, 26360, Note_on_c, 1, 38, 127
2, 26360, Note_off_c, 1, 39, 0
2, 26360, Note_on_c, 1, 50, 127
2, 26360, Note_off_c, 1, 51, 0
2, 26360, Note_off_c, 1, 63, 0
2, 26360, Note_off_c, 1, 75, 0
2, 26360, Note_on_c, 1, 77, 127
2, 26360, Note_on_c, 1, 83, 127
2, 26400, Note_off_c, 1, 38, 0
2, 26400, Note_off_c, 1, 50, 0
2, 26400, Note_on_c, 1, 64, 127
2, 26400, Note_off_c, 1, 71, 0
2, 26400, Note_off_c, 1, 83, 0
2, 26400, Note_on_c, 1, 84, 127
2, 26400, Note_on_c, 1, 87, 127
2, 26400, Note_on_c, 1, 89, 127
2, 26440, Note_off_c, 1, 64, 0
2, 26440, Note_off_c, 1, 77, 0
2, 26440, Note_off_c, 1, 84, 0
2, 26440, Note_off_c, 1, 87, 0
2, 26440, Note_off_c, 1, 89, 0
2, 26480, Note_on_c, 1, 55, 127
2, 26480, Note_on_c, 1, 62, 127
2, 26480, Note_on_c, 1, 65, 127
2, 26480, Note_on_c, 1, 74, 127
2, 26480, Note_on_c, 1, 77, 127
2, 26640, Note_off_c, 1, 62, 0
2, 26640, Note_off_c, 1, 65, 0
2, 26640, Note_off_c, 1, 74, 0
2, 26640, Note_off_c, 1, 77, 0
2, 26840, Note_off_c, 1, 55, 0
2, 26880, Note_on_c, 1, 42, 127
2, 26880, Note_on_c, 1, 49, 127
2, 26880, Note_on_c, 1, 61, 127
2, 26880, Note_on_c, 1, 66, 127
2, 26880, Note_on_c, 1, 73, 127
2, 27240, Note_off_c, 1, 42, 0
2, 27240, Note_off_c, 1, 49, 0
2, 27240, Note_off_c, 1, 61, 0
2, 27240, Note_off_c, 1, 66, 0
2, 27240, Note_off_c, 1, 73, 0
2, 27280, Note_on_c, 1, 65, 127
2, 27280, Note_on_c, 1, 68, 127
2, 27280, Note_on_c, 1, 80, 127
2, 27280, Note_on_c, 1, 89, 127
2, 27320, Note_on_c, 1, 59, 127
2, 27320, Note_off_c, 1, 65, 0
2, 27320, Note_off_c, 1, 68, 0
2, 27320, Note_on_c, 1, 78, 127
2, 27320, Note_off_c, 1, 80, 0
2, 27320, Note_on_c, 1, 86, 127
2, 27320, Note_off_c, 1, 89, 0
2, 27360, Note_off_c, 1, 59, 0
2, 27360, Note_on_c, 1, 65, 127
2, 27360, Note_on_c, 1, 68, 127
2, 27360, Note_off_c, 1, 78, 0
2, 27360, Note_on_c, 1, 80, 127
2, 27360, Note_off_c, 1, 86, 0
2, 27360, Note_on_c, 1, 89, 127
2, 27520, Note_on_c, 1, 53, 127
2, 27520, Note_on_c, 1, 56, 127
2, 27520, Note_off_c, 1, 65, 0
2, 27520, Note_off_c, 1, 68, 0
2, 27520, Note_on_c, 1, 70, 127
2, 27520, Note_off_c, 1, 89, 0
2, 27560, Note_off_c, 1, 53, 0
2, 27560, Note_off_c, 1, 56, 0
2, 27560, Note_on_c, 1, 65, 127
2, 27560, Note_on_c, 1, 68, 127
2, 27560, Note_off_c, 1, 70, 0
2, 27560, Note_on_c, 1, 89, 127
2, 27600, Note_on_c, 1, 49, 127
2, 27600, Note_off_c, 1, 65, 0
2, 27600, Note_off_c, 1, 68, 0
2, 27600, Note_off_c, 1, 80, 0
2, 27600, Note_on_c, 1, 82, 127
2, 27600, Note_on_c, 1, 85, 127
2, 27600, Note_off_c, 1, 89, 0
2, 27600, Note_on_c, 1, 94, 127
2, 27640, Note_on_c, 1, 44, 127
2, 27640, Note_off_c, 1, 49, 0
2, 27640, Note_on_c, 1, 51, 127
2, 27640, Note_on_c, 1, 52, 127
2, 27640, Note_on_c, 1, 60, 127
2, 27640, Note_off_c, 1, 82, 0
2, 27640, Note_on_c, 1, 84, 127
2, 27640, Note_off_c, 1, 85, 0
2, 27640, Note_off_c, 1, 94, 0
2, 27680, Note_off_c, 1, 44, 0
2, 27680, Note_off_c, 1, 51, 0
2, 27680, Note_off_c, 1, 52, 0
2, 27680, Note_off_c, 1, 60, 0
2, 27680, Note_off_c, 1, 84, 0
2, 27720, Note_on_c, 1, 29, 127
2, 27720, Note_on_c, 1, 54, 127
2, 27760, Note_off_c, 1, 29, 0
2, 27760, Note_on_c, 1, 35, 127
2, 27760, Note_off_c, 1, 54, 0
2, 27760, Note_on_c, 1, 71, 127
2, 27760, Note_on_c, 1, 79, 127
2, 27800, Note_on_c, 1, 29, 127
2, 27800, Note_off_c, 1, 35, 0
2, 27800, Note_on_c, 1, 54, 127
2, 27800, Note_off_c, 1, 71, 0
2, 27800, Note_off_c, 1, 79, 0
2, 27840, Note_off_c, 1, 29, 0
2, 27840, Note_on_c, 1, 45, 127
2, 27840, Note_on_c, 1, 57, 127
2, 27840, Note_on_c, 1, 63, 127
2, 27840, Note_on_c, 1, 69, 127
2, 27880, Note_on_c, 1, 36, 127
2, 27880, Note_off_c, 1, 45, 0
2, 27880, Note_on_c, 1, 48, 127
2, 27880, Note_off_c, 1, 54, 0
2, 27880, Note_off_c, 1, 57, 0
2, 27880, Note_off_c, 1, 63, 0
2, 27880, Note_off_c, 1, 69, 0
2, 27920, Note_on_c, 1, 31, 127
2, 27920, Note_off_c, 1, 36, 0
2, 27920, Note_on_c, 1, 43, 127
2, 27920, Note_off_c, 1, 48, 0
2, 27920, Note_on_c, 1, 69, 127
2, 28120, Note_off_c, 1, 31, 0
2, 28120, Note_off_c, 1, 43, 0
2, 28120, Note_off_c, 1, 69, 0
2, 28200, Note_on_c, 1, 31, 127
2, 28200, Note_on_c, 1, 43, 127
2, 28200, Note_on_c, 1, 59, 127
2, 28200, Note_on_c, 1, 64, 127
2, 28320, Note_off_c, 1, 59, 0
2, 28320, Note_off_c, 1, 64, 0
2, 28400, Note_on_c, 1, 52, 127
2, 28480, Note_off_c, 1, 52, 0
2, 28480, Note_on_c, 1, 64, 127
2, 28520, Note_off_c, 1, 64, 0
2, 28600, Note_on_c, 1, 52, 127
2, 28720, Note_off_c, 1, 52, 0
2, 28800, Note_on_c, 1, 59, 127
2, 28920, Note_off_c, 1, 59, 0
2, 28960, Note_off_c, 1, 31, 0
2, 28960, Note_off_c, 1, 43, 0
2, 29000, Note_on_c, 1, 51, 127
2, 29000, Note_on_c, 1, 55, 127
2, 29000, Note_on_c, 1, 58, 127
2, 29000, Note_on_c, 1, 61, 127
2, 29000, Note_on_c, 1, 63, 127
2, 29000, Note_on_c, 1, 67, 127
2, 29040, Note_on_c, 1, 41, 127
2, 29040, Note_on_c, 1, 48, 127
2, 29040, Note_off_c, 1, 51, 0
2, 29040, Note_off_c, 1, 55, 0
2, 29040, Note_off_c, 1, 61, 0
2, 29040, Note_off_c, 1, 63, 0
2, 29080, Note_on_c, 1, 34, 127
2, 29080, Note_off_c, 1, 41, 0
2, 29080, Note_on_c, 1, 46, 127
2, 29080, Note_off_c, 1, 48, 0
2, 29080, Note_on_c, 1, 55, 127
2, 29080, Note_off_c, 1, 58, 0
2, 29080, Note_on_c, 1, 61, 127
2, 29080, Note_off_c, 1, 67, 0
2, 29120, Note_off_c, 1, 34, 0
2, 29120, Note_off_c, 1, 46, 0
2, 29120, Note_off_c, 1, 55, 0
2, 29120, Note_on_c, 1, 60, 127
2, 29120, Note_off_c, 1, 61, 0
2, 29120, Note_on_c, 1, 64, 127
2, 29120, Note_on_c, 1, 67, 127
2, 29120, Note_on_c, 1, 72, 127
2, 29120, Note_on_c, 1, 76, 127
2, 29120, Note_on_c, 1, 84, 127
2, 29160, Note_on_c, 1, 29, 127
2, 29160, Note_on_c, 1, 36, 127
2, 29160, Note_on_c, 1, 51, 127
2, 29160, Note_on_c, 1, 57, 127
2, 29160, Note_off_c, 1, 60, 0
2, 29160, Note_off_c, 1, 64, 0
2, 29160, Note_off_c, 1, 67, 0
2, 29160, Note_off_c, 1, 72, 0
2, 29160, Note_off_c, 1, 76, 0
2, 29160, Note_off_c, 1, 84, 0
2, 29200, Note_off_c, 1, 29, 0
2, 29200, Note_off_c, 1, 36, 0
2, 29200, Note_off_c, 1, 51, 0
2, 29200, Note_on_c, 1, 56, 127
2, 29200, Note_off_c, 1, 57, 0
2, 29200, Note_on_c, 1, 60, 127
2, 29200, Note_on_c, 1, 75, 127
2, 29200, Note_on_c, 1, 79, 127
2, 29240, Note_off_c, 1, 56, 0
2, 29240, Note_off_c, 1, 60, 0
2, 29240, Note_on_c, 1, 64, 127
2, 29240, Note_on_c, 1, 69, 127
2, 29240, Note_on_c, 1, 73, 127
2, 29240, Note_off_c, 1, 75, 0
2, 29240, Note_on_c, 1, 76, 127
2, 29240, Note_off_c, 1, 79, 0
2, 29240, Note_on_c, 1, 88, 127
2, 29240, Note_on_c, 1, 93, 127
2, 29240, Note_on_c, 1, 97, 127
2, 29240, Note_on_c, 1, 100, 127
2, 29280, Note_on_c, 1, 38, 127
2, 29280, Note_on_c, 1, 41, 127
2, 29280, Note_on_c, 1, 50, 127
2, 29280, Note_off_c, 1, 64, 0
2, 29280, Note_off_c, 1, 69, 0
2, 29280, Note_off_c, 1, 73, 0
2, 29280, Note_on_c, 1, 74, 127
2, 29280, Note_off_c, 1, 76, 0
2, 29280, Note_on_c, 1, 86, 127
2, 29280, Note_off_c, 1, 88, 0
2, 29280, Note_off_c, 1, 93, 0
2, 29280, Note_off_c, 1, 97, 0
2, 29280, Note_off_c, 1, 100, 0
2, 29320, Note_off_c, 1, 38, 0
2, 29320, Note_off_c, 1, 41, 0
2, 29320, Note_on_c, 1, 44, 127
2, 29320, Note_off_c, 1, 50, 0
2, 29320, Note_on_c, 1, 56, 127
2, 29320, Note_on_c, 1, 66, 127
2, 29320, Note_on_c, 1, 71, 127
2, 29320, Note_off_c, 1, 74, 0
2, 29320, Note_on_c, 1, 75, 127
2, 29320, Note_off_c, 1, 86, 0
2, 29360, Note_off_c, 1, 44, 0
2, 29360, Note_off_c, 1, 56, 0
2, 29360, Note_on_c, 1, 59, 127
2, 29360, Note_off_c, 1, 66, 0
2, 29360, Note_off_c, 1, 71, 0
2, 29360, Note_off_c, 1, 75, 0
2, 29400, Note_on_c, 1, 36, 127
2, 29400, Note_on_c, 1, 48, 127
2, 29400, Note_on_c, 1, 58, 127
2, 29400, Note_off_c, 1, 59, 0
2, 29400, Note_on_c, 1, 69, 127
2, 29680, Note_off_c, 1, 36, 0
2, 29680, Note_off_c, 1, 48, 0
2, 29680, Note_off_c, 1, 58, 0
2, 29680, Note_off_c, 1, 69, 0
2, 29720, Note_on_c, 1, 31, 127
2, 29720, Note_on_c, 1, 43, 127
2, 29720, Note_on_c, 1, 59, 127
2, 29720, Note_on_c, 1, 64, 127
2, 29720, Note_on_c, 1, 67, 127
2, 29880, Note_off_c, 1, 31, 0
2, 29880, Note_off_c, 1, 43, 0
2, 29880, Note_on_c, 1, 45, 127
2, 29880, Note_off_c, 1, 59, 0
2, 29880, Note_off_c, 1, 64, 0
2, 29920, Note_on_c, 1, 42, 127
2, 29920, Note_off_c, 1, 45, 0
2, 29920, Note_on_c, 1, 52, 127
2, 29920, Note_on_c, 1, 64, 127
2, 29920, Note_off_c, 1, 67, 0
2, 29920, Note_on_c, 1, 69, 127
2, 29920, Note_on_c, 1, 72, 127
2, 30040, Note_off_c, 1, 42, 0
2, 30040, Note_off_c, 1, 52, 0
2, 30040, Note_off_c, 1, 64, 0
2, 30040, Note_off_c, 1, 69, 0
2, 30040, Note_off_c, 1, 72, 0
2, 30080, Note_on_c, 1, 42, 127
2, 30080, Note_on_c, 1, 52, 127
2, 30080, Note_on_c, 1, 64, 127
2, 30080, Note_on_c, 1, 69, 127
2, 30080, Note_on_c, 1, 72, 127
2, 30120, Note_off_c, 1, 42, 0
2, 30120, Note_off_c, 1, 52, 0
2, 30120, Note_off_c, 1, 64, 0
2, 30120, Note_off_c, 1, 69, 0
2, 30120, Note_off_c, 1, 72, 0
2, 30160, Note_on_c, 1, 55, 127
2, 30160, Note_on_c, 1, 62, 127
2, 30160, Note_on_c, 1, 71, 127
2, 30160, Note_on_c, 1, 78, 127
2, 30160, Note_on_c, 1, 86, 127
2, 30360, Note_on_c, 1, 32, 127
2, 30360, Note_on_c, 1, 44, 127
2, 30360, Note_off_c, 1, 55, 0
2, 30360, Note_on_c, 1, 60, 127
2, 30360, Note_off_c, 1, 62, 0
2, 30360, Note_off_c, 1, 71, 0
2, 30360, Note_on_c, 1, 72, 127
2, 30360, Note_off_c, 1, 78, 0
2, 30360, Note_off_c, 1, 86, 0
2, 30560, Note_off_c, 1, 32, 0
2, 30560, Note_off_c, 1, 44, 0
2, 30560, Note_off_c, 1, 60, 0
2, 30560, Note_off_c, 1, 72, 0
2, 30600, Note_on_c, 1, 30, 127
2, 30600, Note_on_c, 1, 42, 127
2, 30600, Note_on_c, 1, 54, 127
2, 30600, Note_on_c, 1, 58, 127
2, 30640, Note_off_c, 1, 54, 0
2, 30680, Note_on_c, 1, 54, 127
2, 30720, Note_off_c, 1, 54, 0
2, 30800, Note_on_c, 1, 54, 127
2, 30840, Note_off_c, 1, 54, 0
2, 30960, Note_off_c, 1, 30, 0
2, 30960, Note_off_c, 1, 42, 0
2, 30960, Note_off_c, 1, 58, 0
2, 31000, Note_on_c, 1, 57, 127
2, 31000, Note_on_c, 1, 63, 127
2, 31000, Note_on_c, 1, 66, 127
2, 31000, Note_on_c, 1, 78, 127
2, 31000, Note_on_c, 1, 90, 127
2, 31320, Note_off_c, 1, 57, 0
2, 31320, Note_off_c, 1, 63, 0
2, 31320, Note_off_c, 1, 66, 0
2, 31320, Note_off_c, 1, 78, 0
2, 31320, Note_off_c, 1, 90, 0
2, 31400, Note_on_c, 1, 31, 127
2, 31400, Note_on_c, 1, 43, 127
2, 31400, Note_on_c, 1, 55, 127
2, 31400, Note_on_c, 1, 67, 127
2, 31440, Note_off_c, 1, 55, 0
2, 31480, Note_on_c, 1, 55, 127
2, 31560, Note_on_c, 1, 28, 127
2, 31560, Note_off_c, 1, 31, 0
2, 31560, Note_on_c, 1, 40, 127
2, 31560, Note_off_c, 1, 43, 0
2, 31560, Note_on_c, 1, 52, 127
2, 31560, Note_off_c, 1, 55, 0
2, 31560, Note_off_c, 1, 67, 0
2, 31600, Note_off_c, 1, 28, 0
2, 31600, Note_on_c, 1, 31, 127
2, 31600, Note_off_c, 1, 40, 0
2, 31600, Note_on_c, 1, 43, 127
2, 31600, Note_off_c, 1, 52, 0
2, 31600, Note_on_c, 1, 59, 127
2, 31600, Note_on_c, 1, 67, 127
2, 31600, Note_on_c, 1, 74, 127
2, 31760, Note_off_c, 1, 59, 0
2, 31760, Note_off_c, 1, 67, 0
2, 31760, Note_off_c, 1, 74, 0
2, 31800, Note_off_c, 1, 31, 0
2, 31800, Note_off_c, 1, 43, 0
2, 31800, Note_on_c, 1, 49, 127
2, 31800, Note_on_c, 1, 60, 127
2, 31800, Note_on_c, 1, 63, 127
2, 31800, Note_on_c, 1, 72, 127
2, 31800, Note_on_c, 1, 75, 127
2, 31840, Note_on_c, 1, 40, 127
2, 31840, Note_on_c, 1, 45, 127
2, 31840, Note_off_c, 1, 49, 0
2, 31840, Note_on_c, 1, 52, 127
2, 31840, Note_off_c, 1, 60, 0
2, 31840, Note_on_c, 1, 61, 127
2, 31840, Note_off_c, 1, 63, 0
2, 31840, Note_on_c, 1, 66, 127
2, 31840, Note_off_c, 1, 72, 0
2, 31840, Note_on_c, 1, 73, 127
2, 31840, Note_off_c, 1, 75, 0
2, 31920, Note_off_c, 1, 40, 0
2, 31920, Note_off_c, 1, 45, 0
2, 31920, Note_off_c, 1, 52, 0
2, 31920, Note_off_c, 1, 61, 0
2, 31920, Note_off_c, 1, 66, 0
2, 31920, Note_off_c, 1, 73, 0
2, 31960, Note_on_c, 1, 40, 127
2, 31960, Note_on_c, 1, 45, 127
2, 31960, Note_on_c, 1, 52, 127
2, 31960, Note_on_c, 1, 61, 127
2, 31960, Note_on_c, 1, 66, 127
2, 31960, Note_on_c, 1, 73, 127
2, 32000, Note_off_c, 1, 40, 0
2, 32000, Note_off_c, 1, 45, 0
2, 32000, Note_on_c, 1, 49, 127
2, 32000, Note_off_c, 1, 52, 0
2, 32000, Note_off_c, 1, 61, 0
2, 32000, Note_off_c, 1, 66, 0
2, 32000, Note_off_c, 1, 73, 0
2, 32040, Note_on_c, 1, 41, 127
2, 32040, Note_on_c, 1, 46, 127
2, 32040, Note_off_c, 1, 49, 0
2, 32040, Note_on_c, 1, 56, 127
2, 32040, Note_on_c, 1, 62, 127
2, 32200, Note_off_c, 1, 41, 0
2, 32200, Note_off_c, 1, 46, 0
2, 32200, Note_off_c, 1, 56, 0
2, 32200, Note_off_c, 1, 62, 0
2, 32240, Note_on_c, 1, 55, 127
2, 32240, Note_on_c, 1, 64, 127
2, 32240, Note_on_c, 1, 67, 127
2, 32240, Note_on_c, 1, 73, 127
2, 32240, Note_on_c, 1, 76, 127
2, 32600, Note_off_c, 1, 55, 0
2, 32600, Note_off_c, 1, 64, 0
2, 32600, Note_off_c, 1, 67, 0
2, 32600, Note_off_c, 1, 73, 0
2, 32600, Note_off_c, 1, 76, 0
2, 32640, Note_on_c, 1, 46, 127
2, 32640, Note_on_c, 1, 51, 127
2, 32640, Note_on_c, 1, 54, 127
2, 32640, Note_on_c, 1, 66, 127
2, 32640, Note_on_c, 1, 71, 127
2, 32640, Note_on_c, 1, 75, 127
2, 32640, Note_on_c, 1, 78, 127
2, 33000, Note_off_c, 1, 46, 0
2, 33000, Note_off_c, 1, 51, 0
2, 33000, Note_off_c, 1, 54, 0
2, 33000, Note_off_c, 1, 66, 0
2, 33000, Note_off_c, 1, 71, 0
2, 33000, Note_off_c, 1, 75, 0
2, 33000, Note_off_c, 1, 78, 0
2, 33040, Note_on_c, 1, 49, 127
2, 33040, Note_on_c, 1, 65, 127
2, 33040, Note_on_c, 1, 71, 127
2, 33040, Note_on_c, 1, 73, 127
2, 33400, Note_off_c, 1, 49, 0
2, 33400, Note_off_c, 1, 65, 0
2, 33400, Note_off_c, 1, 71, 0
2, 33400, Note_off_c, 1, 73, 0
2, 33440, Note_on_c, 1, 51, 127
2, 33440, Note_on_c, 1, 63, 127
2, 33440, Note_on_c, 1, 71, 127
2, 33440, Note_on_c, 1, 78, 127
2, 33600, Note_off_c, 1, 51, 0
2, 33600, Note_off_c, 1, 63, 0
2, 33600, Note_off_c, 1, 71, 0
2, 33600, Note_off_c, 1, 78, 0
2, 33680, Note_on_c, 1, 35, 127
2, 33680, Note_on_c, 1, 47, 127
2, 33680, Note_on_c, 1, 63, 127
2, 33680, Note_on_c, 1, 66, 127
2, 33680, Note_on_c, 1, 71, 127
2, 33680, Note_on_c, 1, 75, 127
2, 33800, Note_off_c, 1, 35, 0
2, 33800, Note_off_c, 1, 47, 0
2, 33800, Note_off_c, 1, 63, 0
2, 33800, Note_off_c, 1, 66, 0
2, 33800, Note_off_c, 1, 71, 0
2, 33800, Note_off_c, 1, 75, 0
2, 33840, Note_on_c, 1, 41, 127
2, 33840, Note_on_c, 1, 71, 127
2, 33840, Note_on_c, 1, 81, 127
2, 34000, Note_off_c, 1, 41, 0
2, 34000, Note_off_c, 1, 71, 0
2, 34000, Note_off_c, 1, 81, 0
2, 34040, Note_on_c, 1, 41, 127
2, 34040, Note_on_c, 1, 71, 127
2, 34040, Note_on_c, 1, 81, 127
2, 34160, Note_off_c, 1, 41, 0
2, 34160, Note_on_c, 1, 58, 127
2, 34160, Note_on_c, 1, 63, 127
2, 34160, Note_on_c, 1, 67, 127
2, 34160, Note_off_c, 1, 71, 0
2, 34160, Note_off_c, 1, 81, 0
2, 34160, Note_on_c, 1, 93, 127
2, 34200, Note_off_c, 1, 58, 0
2, 34200, Note_off_c, 1, 63, 0
2, 34200, Note_off_c, 1, 67, 0
2, 34200, Note_off_c, 1, 93, 0
2, 34280, Note_on_c, 1, 40, 127
2, 34280, Note_on_c, 1, 48, 127
2, 34280, Note_on_c, 1, 55, 127
2, 34280, Note_on_c, 1, 72, 127
2, 34280, Note_on_c, 1, 84, 127
2, 34320, Note_off_c, 1, 40, 0
2, 34320, Note_off_c, 1, 55, 0
2, 34320, Note_on_c, 1, 59, 127
2, 34320, Note_on_c, 1, 62, 127
2, 34320, Note_on_c, 1, 67, 127
2, 34320, Note_off_c, 1, 72, 0
2, 34320, Note_on_c, 1, 76, 127
2, 34320, Note_off_c, 1, 84, 0
2, 34360, Note_on_c, 1, 33, 127
2, 34360, Note_off_c, 1, 48, 0
2, 34360, Note_on_c, 1, 51, 127
2, 34360, Note_off_c, 1, 59, 0
2, 34360, Note_off_c, 1, 62, 0
2, 34360, Note_on_c, 1, 63, 127
2, 34360, Note_off_c, 1, 67, 0
2, 34360, Note_off_c, 1, 76, 0
2, 34400, Note_off_c, 1, 33, 0
2, 34400, Note_on_c, 1, 48, 127
2, 34400, Note_off_c, 1, 51, 0
2, 34400, Note_on_c, 1, 56, 127
2, 34400, Note_off_c, 1, 63, 0
2, 34400, Note_on_c, 1, 68, 127
2, 34400, Note_on_c, 1, 72, 127
2, 34400, Note_on_c, 1, 79, 127
2, 34440, Note_on_c, 1, 35, 127
2, 34440, Note_on_c, 1, 47, 127
2, 34440, Note_off_c, 1, 48, 0
2, 34440, Note_off_c, 1, 56, 0
2, 34440, Note_on_c, 1, 59, 127
2, 34440, Note_on_c, 1, 66, 127
2, 34440, Note_off_c, 1, 68, 0
2, 34440, Note_on_c, 1, 69, 127
2, 34440, Note_off_c, 1, 72, 0
2, 34440, Note_on_c, 1, 73, 127
2, 34440, Note_on_c, 1, 76, 127
2, 34440, Note_off_c, 1, 79, 0
2, 34440, Note_on_c, 1, 85, 127
2, 34480, Note_off_c, 1, 35, 0
2, 34480, Note_off_c, 1, 59, 0
2, 34480, Note_off_c, 1, 66, 0
2, 34480, Note_off_c, 1, 69, 0
2, 34480, Note_off_c, 1, 73, 0
2, 34480, Note_off_c, 1, 76, 0
2, 34480, Note_on_c, 1, 77, 127
2, 34480, Note_off_c, 1, 85, 0
2, 34480, Note_on_c, 1, 91, 127
2, 34520, Note_on_c, 1, 35, 127
2, 34520, Note_off_c, 1, 47, 0
2, 34520, Note_on_c, 1, 54, 127
2, 34520, Note_on_c, 1, 59, 127
2, 34520, Note_on_c, 1, 64, 127
2, 34520, Note_on_c, 1, 68, 127
2, 34520, Note_on_c, 1, 71, 127
2, 34520, Note_off_c, 1, 77, 0
2, 34520, Note_off_c, 1, 91, 0
2, 34560, Note_off_c, 1, 35, 0
2, 34560, Note_on_c, 1, 44, 127
2, 34560, Note_on_c, 1, 48, 127
2, 34560, Note_off_c, 1, 54, 0
2, 34560, Note_off_c, 1, 59, 0
2, 34560, Note_off_c, 1, 64, 0
2, 34560, Note_off_c, 1, 68, 0
2, 34560, Note_off_c, 1, 71, 0
2, 34560, Note_on_c, 1, 72, 127
2, 34560, Note_on_c, 1, 74, 127
2, 34560, Note_on_c, 1, 84, 127
2, 34600, Note_off_c, 1, 44, 0
2, 34600, Note_off_c, 1, 48, 0
2, 34600, Note_off_c, 1, 72, 0
2, 34600, Note_off_c, 1, 74, 0
2, 34600, Note_off_c, 1, 84, 0
2, 34640, Note_on_c, 1, 64, 127
2, 34640, Note_on_c, 1, 69, 127
2, 34640, Note_on_c, 1, 72, 127
2, 34640, Note_on_c, 1, 77, 127
2, 34640, Note_on_c, 1, 84, 127
2, 34680, Note_on_c, 1, 61, 127
2, 34680, Note_on_c, 1, 66, 127
2, 34680, Note_off_c, 1, 69, 0
2, 34680, Note_off_c, 1, 72, 0
2, 34680, Note_off_c, 1, 77, 0
2, 34680, Note_on_c, 1, 80, 127
2, 34680, Note_off_c, 1, 84, 0
2, 34720, Note_off_c, 1, 61, 0
2, 34720, Note_off_c, 1, 66, 0
2, 34720, Note_on_c, 1, 69, 127
2, 34720, Note_on_c, 1, 72, 127
2, 34720, Note_on_c, 1, 77, 127
2, 34720, Note_off_c, 1, 80, 0
2, 34720, Note_on_c, 1, 84, 127
2, 34800, Note_off_c, 1, 64, 0
2, 34800, Note_off_c, 1, 69, 0
2, 34800, Note_off_c, 1, 72, 0
2, 34800, Note_off_c, 1, 77, 0
2, 34800, Note_off_c, 1, 84, 0
2, 34840, Note_on_c, 1, 45, 127
2, 34840, Note_on_c, 1, 57, 127
2, 34840, Note_on_c, 1, 73, 127
2, 34840, Note_on_c, 1, 79, 127
2, 34880, Note_on_c, 1, 37, 127
2, 34880, Note_off_c, 1, 45, 0
2, 34880, Note_on_c, 1, 49, 127
2, 34880, Note_off_c, 1, 57, 0
2, 34880, Note_on_c, 1, 61, 127
2, 34880, Note_off_c, 1, 79, 0
2, 34880, Note_on_c, 1, 81, 127
2, 34880, Note_on_c, 1, 93, 127
2, 35040, Note_off_c, 1, 37, 0
2, 35040, Note_off_c, 1, 49, 0
2, 35040, Note_off_c, 1, 61, 0
2, 35040, Note_off_c, 1, 73, 0
2, 35040, Note_off_c, 1, 81, 0
2, 35040, Note_off_c, 1, 93, 0
2, 35080, Note_on_c, 1, 48, 127
2, 35080, Note_on_c, 1, 50, 127
2, 35080, Note_on_c, 1, 54, 127
2, 35080, Note_on_c, 1, 60, 127
2, 35080, Note_on_c, 1, 72, 127
2, 35080, Note_on_c, 1, 74, 127
2, 35080, Note_on_c, 1, 78, 127
2, 35080, Note_on_c, 1, 84, 127
2, 35400, Note_on_c, 1, 44, 127
2, 35400, Note_off_c, 1, 48, 0
2, 35400, Note_off_c, 1, 50, 0
2, 35400, Note_off_c, 1, 54, 0
2, 35400, Note_off_c, 1, 60, 0
2, 35400, Note_off_c, 1, 74, 0
2, 35400, Note_on_c, 1, 75, 127
2, 35400, Note_off_c, 1, 78, 0
2, 35400, Note_on_c, 1, 80, 127
2, 35400, Note_off_c, 1, 84, 0
2, 35440, Note_off_c, 1, 44, 0
2, 35440, Note_off_c, 1, 72, 0
2, 35440, Note_off_c, 1, 75, 0
2, 35440, Note_off_c, 1, 80, 0
2, 35480, Note_on_c, 1, 36, 127
2, 35480, Note_on_c, 1, 48, 127
2, 35480, Note_on_c, 1, 69, 127
2, 35480, Note_on_c, 1, 72, 127
2, 35480, Note_on_c, 1, 76, 127
2, 35480, Note_on_c, 1, 81, 127
2, 35640, Note_off_c, 1, 36, 0
2, 35640, Note_off_c, 1, 48, 0
2, 35640, Note_off_c, 1, 69, 0
2, 35640, Note_off_c, 1, 72, 0
2, 35640, Note_off_c, 1, 76, 0
2, 35640, Note_off_c, 1, 81, 0
2, 35680, Note_on_c, 1, 36, 127
2, 35680, Note_on_c, 1, 48, 127
2, 35680, Note_on_c, 1, 69, 127
2, 35680, Note_on_c, 1, 72, 127
2, 35680, Note_on_c, 1, 76, 127
2, 35680, Note_on_c, 1, 81, 127
2, 35840, Note_off_c, 1, 36, 0
2, 35840, Note_off_c, 1, 48, 0
2, 35840, Note_off_c, 1, 69, 0
2, 35840, Note_off_c, 1, 72, 0
2, 35840, Note_off_c, 1, 76, 0
2, 35840, Note_off_c, 1, 81, 0
2, 35920, Note_on_c, 1, 36, 127
2, 35920, Note_on_c, 1, 48, 127
2, 35920, Note_on_c, 1, 69, 127
2, 35920, Note_on_c, 1, 72, 127
2, 35920, Note_on_c, 1, 76, 127
2, 35920, Note_on_c, 1, 81, 127
2, 36040, Note_off_c, 1, 36, 0
2, 36040, Note_off_c, 1, 48, 0
2, 36040, Note_off_c, 1, 69, 0
2, 36040, Note_off_c, 1, 72, 0
2, 36040, Note_off_c, 1, 76, 0
2, 36040, Note_off_c, 1, 81, 0
2, 36080, Note_on_c, 1, 36, 127
2, 36080, Note_on_c, 1, 48, 127
2, 36080, Note_on_c, 1, 69, 127
2, 36080, Note_on_c, 1, 72, 127
2, 36080, Note_on_c, 1, 76, 127
2, 36080, Note_on_c, 1, 81, 127
2, 36120, Note_off_c, 1, 36, 0
2, 36120, Note_off_c, 1, 48, 0
2, 36120, Note_off_c, 1, 69, 0
2, 36120, Note_off_c, 1, 72, 0
2, 36120, Note_off_c, 1, 76, 0
2, 36120, Note_off_c, 1, 81, 0
2, 36160, Note_on_c, 1, 36, 127
2, 36160, Note_on_c, 1, 48, 127
2, 36160, Note_on_c, 1, 69, 127
2, 36160, Note_on_c, 1, 72, 127
2, 36160, Note_on_c, 1, 76, 127
2, 36160, Note_on_c, 1, 81, 127
2, 36320, Note_off_c, 1, 36, 0
2, 36320, Note_off_c, 1, 48, 0
2, 36320, Note_off_c, 1, 69, 0
2, 36320, Note_off_c, 1, 72, 0
2, 36320, Note_off_c, 1, 76, 0
2, 36320, Note_off_c, 1, 81, 0
2, 36360, Note_on_c, 1, 46, 127
2, 36360, Note_on_c, 1, 53, 127
2, 36360, Note_on_c, 1, 56, 127
2, 36360, Note_on_c, 1, 58, 127
2, 36360, Note_on_c, 1, 62, 127
2, 36360, Note_on_c, 1, 65, 127
2, 36360, Note_on_c, 1, 70, 127
2, 36520, Note_off_c, 1, 46, 0
2, 36520, Note_off_c, 1, 53, 0
2, 36520, Note_off_c, 1, 56, 0
2, 36520, Note_off_c, 1, 58, 0
2, 36520, Note_off_c, 1, 62, 0
2, 36520, Note_off_c, 1, 65, 0
2, 36520, Note_off_c, 1, 70, 0
2, 36560, Note_on_c, 1, 41, 127
2, 36560, Note_on_c, 1, 53, 127
2, 36560, Note_on_c, 1, 62, 127
2, 36560, Note_on_c, 1, 74, 127
2, 36560, Note_on_c, 1, 77, 127
2, 36720, Note_off_c, 1, 41, 0
2, 36720, Note_off_c, 1, 53, 0
2, 36720, Note_off_c, 1, 62, 0
2, 36720, Note_off_c, 1, 74, 0
2, 36720, Note_off_c, 1, 77, 0
2, 36760, Note_on_c, 1, 53, 127
2, 36760, Note_on_c, 1, 60, 127
2, 36760, Note_on_c, 1, 69, 127
2, 36760, Note_on_c, 1, 77, 127
2, 36760, Note_on_c, 1, 89, 127
2, 36920, Note_off_c, 1, 53, 0
2, 36920, Note_off_c, 1, 60, 0
2, 36920, Note_off_c, 1, 69, 0
2, 36920, Note_off_c, 1, 77, 0
2, 36920, Note_off_c, 1, 89, 0
2, 36960, Note_on_c, 1, 58, 127
2, 36960, Note_on_c, 1, 60, 127
2, 36960, Note_on_c, 1, 63, 127
2, 36960, Note_on_c, 1, 69, 127
2, 36960, Note_on_c, 1, 78, 127
2, 36960, Note_on_c, 1, 90, 127
2, 37000, Note_on_c, 1, 38, 127
2, 37000, Note_on_c, 1, 54, 127
2, 37000, Note_off_c, 1, 58, 0
2, 37000, Note_off_c, 1, 63, 0
2, 37000, Note_on_c, 1, 64, 127
2, 37000, Note_off_c, 1, 69, 0
2, 37000, Note_on_c, 1, 71, 127
2, 37000, Note_off_c, 1, 78, 0
2, 37000, Note_off_c, 1, 90, 0
2, 37040, Note_off_c, 1, 38, 0
2, 37040, Note_off_c, 1, 54, 0
2, 37040, Note_off_c, 1, 60, 0
2, 37040, Note_off_c, 1, 64, 0
2, 37040, Note_on_c, 1, 70, 127
2, 37040, Note_off_c, 1, 71, 0
2, 37040, Note_on_c, 1, 72, 127
2, 37040, Note_on_c, 1, 78, 127
2, 37040, Note_on_c, 1, 87, 127
2, 37040, Note_on_c, 1, 89, 127
2, 37040, Note_on_c, 1, 93, 127
2, 37080, Note_on_c, 1, 58, 127
2, 37080, Note_on_c, 1, 60, 127
2, 37080, Note_on_c, 1, 63, 127
2, 37080, Note_on_c, 1, 69, 127
2, 37080, Note_off_c, 1, 70, 0
2, 37080, Note_off_c, 1, 72, 0
2, 37080, Note_off_c, 1, 87, 0
2, 37080, Note_off_c, 1, 89, 0
2, 37080, Note_on_c, 1, 90, 127
2, 37080, Note_off_c, 1, 93, 0
2, 37120, Note_off_c, 1, 58, 0
2, 37120, Note_off_c, 1, 60, 0
2, 37120, Note_off_c, 1, 63, 0
2, 37120, Note_off_c, 1, 69, 0
2, 37120, Note_off_c, 1, 78, 0
2, 37120, Note_off_c, 1, 90, 0
2, 37160, Note_on_c, 1, 36, 127
2, 37160, Note_on_c, 1, 55, 127
2, 37160, Note_on_c, 1, 65, 127
2, 37160, Note_on_c, 1, 67, 127
2, 37160, Note_on_c, 1, 71, 127
2, 37160, Note_on_c, 1, 77, 127
2, 37320, Note_off_c, 1, 36, 0
2, 37320, Note_off_c, 1, 55, 0
2, 37320, Note_off_c, 1, 65, 0
2, 37320, Note_off_c, 1, 67, 0
2, 37320, Note_off_c, 1, 71, 0
2, 37320, Note_off_c, 1, 77, 0
2, 37360, Note_on_c, 1, 46, 127
2, 37360, Note_on_c, 1, 50, 127
2, 37360, Note_on_c, 1, 55, 127
2, 37360, Note_on_c, 1, 58, 127
2, 37360, Note_on_c, 1, 62, 127
2, 37360, Note_on_c, 1, 67, 127
2, 37400, Note_off_c, 1, 46, 0
2, 37400, Note_off_c, 1, 50, 0
2, 37400, Note_off_c, 1, 55, 0
2, 37400, Note_off_c, 1, 58, 0
2, 37400, Note_off_c, 1, 62, 0
2, 37400, Note_off_c, 1, 67, 0
2, 37440, Note_on_c, 1, 46, 127
2, 37440, Note_on_c, 1, 50, 127
2, 37440, Note_on_c, 1, 55, 127
2, 37440, Note_on_c, 1, 58, 127
2, 37440, Note_on_c, 1, 62, 127
2, 37440, Note_on_c, 1, 67, 127
2, 37520, Note_off_c, 1, 46, 0
2, 37520, Note_off_c, 1, 50, 0
2, 37520, Note_off_c, 1, 55, 0
2, 37520, Note_off_c, 1, 58, 0
2, 37520, Note_off_c, 1, 62, 0
2, 37520, Note_off_c, 1, 67, 0
2, 37560, Note_on_c, 1, 46, 127
2, 37560, Note_on_c, 1, 50, 127
2, 37560, Note_on_c, 1, 55, 127
2, 37560, Note_on_c, 1, 58, 127
2, 37560, Note_on_c, 1, 62, 127
2, 37560, Note_on_c, 1, 67, 127
2, 37680, Note_off_c, 1, 46, 0
2, 37680, Note_off_c, 1, 50, 0
2, 37680, Note_off_c, 1, 55, 0
2, 37680, Note_off_c, 1, 58, 0
2, 37680, Note_off_c, 1, 62, 0
2, 37680, Note_off_c, 1, 67, 0
2, 37760, Note_on_c, 1, 52, 127
2, 37760, Note_on_c, 1, 57, 127
2, 37760, Note_on_c, 1, 60, 127
2, 37760, Note_on_c, 1, 64, 127
2, 37760, Note_on_c, 1, 76, 127
2, 37880, Note_off_c, 1, 52, 0
2, 37880, Note_off_c, 1, 57, 0
2, 37880, Note_off_c, 1, 60, 0
2, 37880, Note_off_c, 1, 64, 0
2, 37880, Note_off_c, 1, 76, 0
2, 37960, Note_on_c, 1, 46, 127
2, 37960, Note_on_c, 1, 52, 127
2, 37960, Note_on_c, 1, 55, 127
2, 37960, Note_on_c, 1, 60, 127
2, 37960, Note_on_c, 1, 72, 127
2, 37960, Note_on_c, 1, 76, 127
2, 37960, Note_on_c, 1, 79, 127
2, 37960, Note_on_c, 1, 84, 127
2, 38280, Note_off_c, 1, 46, 0
2, 38280, Note_off_c, 1, 52, 0
2, 38280, Note_off_c, 1, 55, 0
2, 38280, Note_off_c, 1, 60, 0
2, 38280, Note_off_c, 1, 72, 0
2, 38280, Note_off_c, 1, 76, 0
2, 38280, Note_off_c, 1, 79, 0
2, 38280, Note_off_c, 1, 84, 0
2, 38320, Note_on_c, 1, 46, 127
2, 38320, Note_on_c, 1, 52, 127
2, 38320, Note_on_c, 1, 55, 127
2, 38320, Note_on_c, 1, 60, 127
2, 38320, Note_on_c, 1, 72, 127
2, 38320, Note_on_c, 1, 76, 127
2, 38320, Note_on_c, 1, 79, 127
2, 38320, Note_on_c, 1, 84, 127
2, 38560, Note_off_c, 1, 46, 0
2, 38560, Note_off_c, 1, 52, 0
2, 38560, Note_off_c, 1, 55, 0
2, 38560, Note_off_c, 1, 60, 0
2, 38560, Note_off_c, 1, 72, 0
2, 38560, Note_off_c, 1, 76, 0
2, 38560, Note_off_c, 1, 79, 0
2, 38560, Note_off_c, 1, 84, 0
2, 38600, Note_on_c, 1, 37, 127
2, 38600, Note_on_c, 1, 49, 127
2, 38600, Note_on_c, 1, 56, 127
2, 38600, Note_on_c, 1, 61, 127
2, 38600, Note_on_c, 1, 65, 127
2, 38760, Note_off_c, 1, 37, 0
2, 38760, Note_off_c, 1, 49, 0
2, 38760, Note_off_c, 1, 56, 0
2, 38760, Note_off_c, 1, 61, 0
2, 38760, Note_off_c, 1, 65, 0
2, 38800, Note_on_c, 1, 44, 127
2, 38800, Note_on_c, 1, 82, 127
2, 38800, Note_on_c, 1, 86, 127
2, 38800, Note_on_c, 1, 89, 127
2, 38800, Note_on_c, 1, 94, 127
2, 38840, Note_on_c, 1, 28, 127
2, 38840, Note_on_c, 1, 40, 127
2, 38840, Note_on_c, 1, 47, 127
2, 38840, Note_on_c, 1, 52, 127
2, 38840, Note_on_c, 1, 56, 127
2, 38840, Note_on_c, 1, 68, 127
2, 38840, Note_on_c, 1, 71, 127
2, 38840, Note_on_c, 1, 76, 127
2, 38840, Note_on_c, 1, 80, 127
2, 38840, Note_off_c, 1, 82, 0
2, 38840, Note_off_c, 1, 86, 0
2, 38840, Note_off_c, 1, 89, 0
2, 38840, Note_off_c, 1, 94, 0
2, 38880, Note_off_c, 1, 28, 0
2, 38880, Note_off_c, 1, 40, 0
2, 38880, Note_off_c, 1, 47, 0
2, 38880, Note_off_c, 1, 52, 0
2, 38880, Note_off_c, 1, 56, 0
2, 38880, Note_off_c, 1, 68, 0
2, 38880, Note_off_c, 1, 71, 0
2, 38880, Note_off_c, 1, 76, 0
2, 38880, Note_off_c, 1, 80, 0
2, 38880, Note_on_c, 1, 82, 127
2, 38880, Note_on_c, 1, 86, 127
2, 38880, Note_on_c, 1, 89, 127
2, 38880, Note_on_c, 1, 94, 127
2, 38960, Note_off_c, 1, 44, 0
2, 38960, Note_off_c, 1, 82, 0
2, 38960, Note_off_c, 1, 86, 0
2, 38960, Note_off_c, 1, 89, 0
2, 38960, Note_off_c, 1, 94, 0
2, 39000, Note_on_c, 1, 44, 127
2, 39000, Note_on_c, 1, 82, 127
2, 39000, Note_on_c, 1, 86, 127
2, 39000, Note_on_c, 1, 89, 127
2, 39000, Note_on_c, 1, 94, 127
2, 39040, Note_off_c, 1, 44, 0
2, 39040, Note_on_c, 1, 56, 127
2, 39040, Note_on_c, 1, 60, 127
2, 39040, Note_on_c, 1, 63, 127
2, 39040, Note_on_c, 1, 68, 127
2, 39040, Note_on_c, 1, 75, 127
2, 39040, Note_on_c, 1, 78, 127
2, 39040, Note_on_c, 1, 80, 127
2, 39040, Note_off_c, 1, 82, 0
2, 39040, Note_off_c, 1, 86, 0
2, 39040, Note_off_c, 1, 89, 0
2, 39040, Note_off_c, 1, 94, 0
2, 39080, Note_on_c, 1, 46, 127
2, 39080, Note_off_c, 1, 56, 0
2, 39080, Note_off_c, 1, 60, 0
2, 39080, Note_off_c, 1, 63, 0
2, 39080, Note_off_c, 1, 68, 0
2, 39080, Note_off_c, 1, 75, 0
2, 39080, Note_off_c, 1, 78, 0
2, 39080, Note_off_c, 1, 80, 0
2, 39080, Note_on_c, 1, 82, 127
2, 39080, Note_on_c, 1, 87, 127
2, 39080, Note_on_c, 1, 90, 127
2, 39080, Note_on_c, 1, 94, 127
2, 39120, Note_on_c, 1, 44, 127
2, 39120, Note_off_c, 1, 46, 0
2, 39120, Note_on_c, 1, 86, 127
2, 39120, Note_off_c, 1, 87, 0
2, 39120, Note_on_c, 1, 89, 127
2, 39120, Note_off_c, 1, 90, 0
2, 39160, Note_off_c, 1, 44, 0
2, 39160, Note_on_c, 1, 56, 127
2, 39160, Note_off_c, 1, 82, 0
2, 39160, Note_off_c, 1, 86, 0
2, 39160, Note_off_c, 1, 89, 0
2, 39160, Note_off_c, 1, 94, 0
2, 39200, Note_on_c, 1, 53, 127
2, 39200, Note_on_c, 1, 60, 127
2, 39200, Note_on_c, 1, 92, 127
2, 39240, Note_on_c, 1, 44, 127
2, 39240, Note_off_c, 1, 53, 0
2, 39240, Note_off_c, 1, 60, 0
2, 39240, Note_on_c, 1, 87, 127
2, 39240, Note_off_c, 1, 92, 0
2, 39240, Note_on_c, 1, 96, 127
2, 39240, Note_on_c, 1, 99, 127
2, 39360, Note_off_c, 1, 44, 0
2, 39360, Note_off_c, 1, 56, 0
2, 39360, Note_off_c, 1, 87, 0
2, 39360, Note_off_c, 1, 96, 0
2, 39360, Note_off_c, 1, 99, 0
2, 39400, Note_on_c, 1, 49, 127
2, 39400, Note_on_c, 1, 61, 127
2, 39400, Note_on_c, 1, 85, 127
2, 39400, Note_on_c, 1, 94, 127
2, 39400, Note_on_c, 1, 97, 127
2, 39440, Note_off_c, 1, 49, 0
2, 39440, Note_on_c, 1, 57, 127
2, 39440, Note_on_c, 1, 60, 127
2, 39440, Note_off_c, 1, 61, 0
2, 39440, Note_on_c, 1, 69, 127
2, 39440, Note_on_c, 1, 72, 127
2, 39440, Note_on_c, 1, 81, 127
2, 39440, Note_off_c, 1, 85, 0
2, 39440, Note_off_c, 1, 94, 0
2, 39440, Note_off_c, 1, 97, 0
2, 39520, Note_off_c, 1, 57, 0
2, 39520, Note_off_c, 1, 60, 0
2, 39520, Note_off_c, 1, 69, 0
2, 39520, Note_off_c, 1, 72, 0
2, 39520, Note_off_c, 1, 81, 0
2, 39560, Note_on_c, 1, 54, 127
2, 39560, Note_on_c, 1, 75, 127
2, 39560, Note_on_c, 1, 84, 127
2, 39560, Note_on_c, 1, 87, 127
2, 39600, Note_off_c, 1, 54, 0
2, 39600, Note_on_c, 1, 60, 127
2, 39600, Note_on_c, 1, 65, 127
2, 39600, Note_off_c, 1, 75, 0
2, 39600, Note_off_c, 1, 84, 0
2, 39600, Note_off_c, 1, 87, 0
2, 39600, Note_on_c, 1, 89, 127
2, 39600, Note_on_c, 1, 96, 127
2, 39640, Note_on_c, 1, 40, 127
2, 39640, Note_on_c, 1, 52, 127
2, 39640, Note_off_c, 1, 60, 0
2, 39640, Note_on_c, 1, 61, 127
2, 39640, Note_on_c, 1, 64, 127
2, 39640, Note_off_c, 1, 65, 0
2, 39640, Note_on_c, 1, 69, 127
2, 39640, Note_on_c, 1, 73, 127
2, 39640, Note_off_c, 1, 89, 0
2, 39640, Note_off_c, 1, 96, 0
2, 39680, Note_off_c, 1, 40, 0
2, 39680, Note_on_c, 1, 50, 127
2, 39680, Note_off_c, 1, 52, 0
2, 39680, Note_off_c, 1, 61, 0
2, 39680, Note_off_c, 1, 64, 0
2, 39680, Note_off_c, 1, 69, 0
2, 39680, Note_on_c, 1, 72, 127
2, 39680, Note_off_c, 1, 73, 0
2, 39680, Note_on_c, 1, 77, 127
2, 39680, Note_on_c, 1, 81, 127
2, 39680, Note_on_c, 1, 84, 127
2, 39720, Note_off_c, 1, 50, 0
2, 39720, Note_off_c, 1, 72, 0
2, 39720, Note_off_c, 1, 77, 0
2, 39720, Note_off_c, 1, 81, 0
2, 39720, Note_off_c, 1, 84, 0
2, 39760, Note_on_c, 1, 56, 127
2, 39760, Note_on_c, 1, 60, 127
2, 39760, Note_on_c, 1, 65, 127
2, 39760, Note_on_c, 1, 68, 127
2, 39760, Note_on_c, 1, 84, 127
2, 40120, Note_off_c, 1, 56, 0
2, 40120, Note_off_c, 1, 60, 0
2, 40120, Note_off_c, 1, 65, 0
2, 40120, Note_off_c, 1, 68, 0
2, 40160, Note_on_c, 1, 50, 127
2, 40160, Note_on_c, 1, 55, 127
2, 40160, Note_on_c, 1, 58, 127
2, 40160, Note_on_c, 1, 62, 127
2, 40160, Note_on_c, 1, 67, 127
2, 40160, Note_on_c, 1, 69, 127
2, 40160, Note_off_c, 1, 84, 0
2, 40200, Note_on_c, 1, 38, 127
2, 40200, Note_on_c, 1, 45, 127
2, 40200, Note_off_c, 1, 50, 0
2, 40200, Note_off_c, 1, 55, 0
2, 40200, Note_off_c, 1, 58, 0
2, 40200, Note_on_c, 1, 66, 127
2, 40200, Note_off_c, 1, 67, 0
2, 40200, Note_off_c, 1, 69, 0
2, 40240, Note_off_c, 1, 38, 0
2, 40240, Note_off_c, 1, 45, 0
2, 40240, Note_on_c, 1, 49, 127
2, 40240, Note_on_c, 1, 52, 127
2, 40240, Note_on_c, 1, 55, 127
2, 40240, Note_on_c, 1, 61, 127
2, 40240, Note_off_c, 1, 62, 0
2, 40240, Note_off_c, 1, 66, 0
2, 40280, Note_on_c, 1, 45, 127
2, 40280, Note_off_c, 1, 49, 0
2, 40280, Note_off_c, 1, 55, 0
2, 40280, Note_on_c, 1, 67, 127
2, 40280, Note_on_c, 1, 76, 127
2, 40320, Note_off_c, 1, 45, 0
2, 40320, Note_off_c, 1, 52, 0
2, 40320, Note_on_c, 1, 58, 127
2, 40320, Note_off_c, 1, 61, 0
2, 40320, Note_off_c, 1, 67, 0
2, 40320, Note_on_c, 1, 68, 127
2, 40320, Note_off_c, 1, 76, 0
2, 40320, Note_on_c, 1, 91, 127
2, 40360, Note_on_c, 1, 49, 127
2, 40360, Note_on_c, 1, 53, 127
2, 40360, Note_off_c, 1, 58, 0
2, 40360, Note_on_c, 1, 61, 127
2, 40360, Note_on_c, 1, 64, 127
2, 40360, Note_off_c, 1, 68, 0
2, 40360, Note_on_c, 1, 70, 127
2, 40360, Note_on_c, 1, 76, 127
2, 40360, Note_off_c, 1, 91, 0
2, 40400, Note_on_c, 1, 45, 127
2, 40400, Note_off_c, 1, 49, 0
2, 40400, Note_on_c, 1, 52, 127
2, 40400, Note_off_c, 1, 53, 0
2, 40400, Note_off_c, 1, 64, 0
2, 40400, Note_on_c, 1, 67, 127
2, 40400, Note_off_c, 1, 70, 0
2, 40400, Note_on_c, 1, 73, 127
2, 40400, Note_off_c, 1, 76, 0
2, 40520, Note_off_c, 1, 45, 0
2, 40520, Note_off_c, 1, 52, 0
2, 40520, Note_off_c, 1, 61, 0
2, 40520, Note_off_c, 1, 67, 0
2, 40520, Note_off_c, 1, 73, 0
2, 40560, Note_on_c, 1, 62, 127
2, 40560, Note_on_c, 1, 65, 127
2, 40560, Note_on_c, 1, 68, 127
2, 40560, Note_on_c, 1, 71, 127
2, 40560, Note_on_c, 1, 82, 127
2, 40600, Note_on_c, 1, 53, 127
2, 40600, Note_on_c, 1, 58, 127
2, 40600, Note_off_c, 1, 68, 0
2, 40600, Note_on_c, 1, 70, 127
2, 40600, Note_off_c, 1, 71, 0
2, 40600, Note_on_c, 1, 74, 127
2, 40600, Note_on_c, 1, 79, 127
2, 40600, Note_off_c, 1, 82, 0
2, 40640, Note_off_c, 1, 53, 0
2, 40640, Note_off_c, 1, 58, 0
2, 40640, Note_off_c, 1, 62, 0
2, 40640, Note_off_c, 1, 65, 0
2, 40640, Note_off_c, 1, 70, 0
2, 40640, Note_off_c, 1, 74, 0
2, 40640, Note_off_c, 1, 79, 0
2, 40680, Note_on_c, 1, 40, 127
2, 40680, Note_on_c, 1, 48, 127
2, 40680, Note_on_c, 1, 70, 127
2, 40720, Note_off_c, 1, 40, 0
2, 40720, Note_off_c, 1, 48, 0
2, 40720, Note_on_c, 1, 53, 127
2, 40720, Note_on_c, 1, 58, 127
2, 40720, Note_on_c, 1, 62, 127
2, 40720, Note_on_c, 1, 65, 127
2, 40720, Note_on_c, 1, 74, 127
2, 40720, Note_on_c, 1, 79, 127
2, 40760, Note_off_c, 1, 53, 0
2, 40760, Note_off_c, 1, 58, 0
2, 40760, Note_off_c, 1, 62, 0
2, 40760, Note_off_c, 1, 65, 0
2, 40760, Note_off_c, 1, 70, 0
2, 40760, Note_off_c, 1, 74, 0
2, 40760, Note_off_c, 1, 79, 0
2, 40760, Note_on_c, 1, 82, 127
2, 40800, Note_on_c, 1, 61, 127
2, 40800, Note_on_c, 1, 67, 127
2, 40840, Note_off_c, 1, 61, 0
2, 40840, Note_on_c, 1, 66, 127
2, 40840, Note_off_c, 1, 67, 0
2, 40840, Note_on_c, 1, 73, 127
2, 40840, Note_on_c, 1, 79, 127
2, 40840, Note_off_c, 1, 82, 0
2, 40880, Note_on_c, 1, 55, 127
2, 40880, Note_off_c, 1, 66, 0
2, 40880, Note_off_c, 1, 73, 0
2, 40880, Note_on_c, 1, 84, 127
2, 40920, Note_off_c, 1, 55, 0
2, 40920, Note_on_c, 1, 56, 127
2, 40920, Note_on_c, 1, 61, 127
2, 40920, Note_on_c, 1, 71, 127
2, 40920, Note_on_c, 1, 75, 127
2, 40920, Note_off_c, 1, 79, 0
2, 40920, Note_on_c, 1, 83, 127
2, 40920, Note_off_c, 1, 84, 0
2, 40960, Note_off_c, 1, 56, 0
2, 40960, Note_off_c, 1, 61, 0
2, 40960, Note_off_c, 1, 71, 0
2, 40960, Note_off_c, 1, 75, 0
2, 40960, Note_on_c, 1, 79, 127
2, 40960, Note_off_c, 1, 83, 0
2, 41000, Note_on_c, 1, 51, 127
2, 41000, Note_on_c, 1, 55, 127
2, 41000, Note_on_c, 1, 61, 127
2, 41000, Note_on_c, 1, 64, 127
2, 41000, Note_on_c, 1, 71, 127
2, 41000, Note_on_c, 1, 76, 127
2, 41000, Note_off_c, 1, 79, 0
2, 41360, Note_off_c, 1, 51, 0
2, 41360, Note_off_c, 1, 55, 0
2, 41360, Note_off_c, 1, 61, 0
2, 41360, Note_off_c, 1, 64, 0
2, 41360, Note_off_c, 1, 71, 0
2, 41360, Note_off_c, 1, 76, 0
2, 41400, Note_on_c, 1, 49, 127
2, 41400, Note_on_c, 1, 56, 127
2, 41400, Note_on_c, 1, 59, 127
2, 41400, Note_on_c, 1, 63, 127
2, 41400, Note_on_c, 1, 68, 127
2, 41400, Note_on_c, 1, 75, 127
2, 41480, Note_on_c, 1, 71, 127
2, 41480, Note_off_c, 1, 75, 0
2, 41560, Note_off_c, 1, 49, 0
2, 41560, Note_off_c, 1, 56, 0
2, 41560, Note_off_c, 1, 59, 0
2, 41560, Note_off_c, 1, 63, 0
2, 41560, Note_off_c, 1, 68, 0
2, 41560, Note_on_c, 1, 69, 127
2, 41560, Note_off_c, 1, 71, 0
2, 41600, Note_on_c, 1, 56, 127
2, 41600, Note_on_c, 1, 60, 127
2, 41600, Note_on_c, 1, 63, 127
2, 41600, Note_off_c, 1, 69, 0
2, 41600, Note_on_c, 1, 84, 127
2, 41600, Note_on_c, 1, 87, 127
2, 41720, Note_on_c, 1, 40, 127
2, 41720, Note_on_c, 1, 47, 127
2, 41720, Note_off_c, 1, 56, 0
2, 41720, Note_off_c, 1, 60, 0
2, 41720, Note_on_c, 1, 62, 127
2, 41720, Note_off_c, 1, 63, 0
2, 41720, Note_on_c, 1, 68, 127
2, 41720, Note_on_c, 1, 71, 127
2, 41720, Note_on_c, 1, 80, 127
2, 41720, Note_on_c, 1, 83, 127
2, 41720, Note_off_c, 1, 84, 0
2, 41720, Note_off_c, 1, 87, 0
2, 41760, Note_off_c, 1, 40, 0
2, 41760, Note_off_c, 1, 47, 0
2, 41760, Note_off_c, 1, 62, 0
2, 41760, Note_off_c, 1, 68, 0
2, 41760, Note_off_c, 1, 71, 0
2, 41760, Note_off_c, 1, 80, 0
2, 41760, Note_off_c, 1, 83, 0
2, 41800, Note_on_c, 1, 34, 127
2, 41800, Note_on_c, 1, 36, 127
2, 41800, Note_on_c, 1, 41, 127
2, 41800, Note_on_c, 1, 46, 127
2, 41800, Note_on_c, 1, 48, 127
2, 41800, Note_on_c, 1, 58, 127
2, 41800, Note_on_c, 1, 61, 127
2, 41800, Note_on_c, 1, 65, 127
2, 41800, Note_on_c, 1, 70, 127
2, 41840, Note_on_c, 1, 33, 127
2, 41840, Note_off_c, 1, 34, 0
2, 41840, Note_off_c, 1, 36, 0
2, 41840, Note_off_c, 1, 41, 0
2, 41840, Note_off_c, 1, 46, 0
2, 41840, Note_off_c, 1, 48, 0
2, 41840, Note_on_c, 1, 55, 127
2, 41840, Note_off_c, 1, 58, 0
2, 41840, Note_off_c, 1, 61, 0
2, 41840, Note_on_c, 1, 64, 127
2, 41840, Note_off_c, 1, 65, 0
2, 41840, Note_off_c, 1, 70, 0
2, 41960, Note_off_c, 1, 33, 0
2, 41960, Note_off_c, 1, 55, 0
2, 41960, Note_off_c, 1, 64, 0
2, 42000, Note_on_c, 1, 65, 127
2, 42000, Note_on_c, 1, 66, 127
2, 42000, Note_on_c, 1, 70, 127
2, 42000, Note_on_c, 1, 77, 127
2, 42000, Note_on_c, 1, 82, 127
2, 42000, Note_on_c, 1, 89, 127
2, 42160, Note_off_c, 1, 65, 0
2, 42160, Note_off_c, 1, 66, 0
2, 42160, Note_off_c, 1, 70, 0
2, 42160, Note_off_c, 1, 77, 0
2, 42160, Note_off_c, 1, 82, 0
2, 42160, Note_off_c, 1, 89, 0
2, 42200, Note_on_c, 1, 56, 127
2, 42200, Note_on_c, 1, 66, 127
2, 42200, Note_on_c, 1, 71, 127
2, 42200, Note_on_c, 1, 81, 127
2, 42360, Note_on_c, 1, 53, 127
2, 42360, Note_off_c, 1, 56, 0
2, 42360, Note_on_c, 1, 58, 127
2, 42360, Note_on_c, 1, 62, 127
2, 42360, Note_off_c, 1, 66, 0
2, 42360, Note_on_c, 1, 68, 127
2, 42360, Note_off_c, 1, 71, 0
2, 42360, Note_on_c, 1, 80, 127
2, 42360, Note_off_c, 1, 81, 0
2, 42400, Note_off_c, 1, 53, 0
2, 42400, Note_on_c, 1, 56, 127
2, 42400, Note_off_c, 1, 58, 0
2, 42400, Note_off_c, 1, 62, 0
2, 42400, Note_on_c, 1, 66, 127
2, 42400, Note_off_c, 1, 68, 0
2, 42400, Note_on_c, 1, 71, 127
2, 42400, Note_off_c, 1, 80, 0
2, 42400, Note_on_c, 1, 81, 127
2, 42560, Note_off_c, 1, 56, 0
2, 42560, Note_off_c, 1, 66, 0
2, 42560, Note_off_c, 1, 71, 0
2, 42560, Note_off_c, 1, 81, 0
2, 42600, Note_on_c, 1, 50, 127
2, 42600, Note_on_c, 1, 55, 127
2, 42600, Note_on_c, 1, 60, 127
2, 42600, Note_on_c, 1, 64, 127
2, 42600, Note_on_c, 1, 71, 127
2, 42960, Note_off_c, 1, 50, 0
2, 42960, Note_off_c, 1, 55, 0
2, 42960, Note_off_c, 1, 60, 0
2, 42960, Note_off_c, 1, 64, 0
2, 42960, Note_off_c, 1, 71, 0
2, 43040, Note_on_c, 1, 55, 127
2, 43040, Note_on_c, 1, 67, 127
2, 43040, Note_on_c, 1, 71, 127
2, 43040, Note_on_c, 1, 83, 127
2, 43400, Note_off_c, 1, 55, 0
2, 43400, Note_off_c, 1, 67, 0
2, 43400, Note_off_c, 1, 71, 0
2, 43400, Note_off_c, 1, 83, 0
2, 43440, Note_on_c, 1, 68, 127
2, 43440, Note_on_c, 1, 71, 127
2, 43440, Note_on_c, 1, 85, 127
2, 43440, Note_on_c, 1, 97, 127
2, 43480, Note_on_c, 1, 62, 127
2, 43480, Note_off_c, 1, 71, 0
2, 43480, Note_on_c, 1, 76, 127
2, 43480, Note_on_c, 1, 83, 127
2, 43480, Note_off_c, 1, 85, 0
2, 43480, Note_off_c, 1, 97, 0
2, 43520, Note_on_c, 1, 57, 127
2, 43520, Note_off_c, 1, 62, 0
2, 43520, Note_on_c, 1, 64, 127
2, 43520, Note_on_c, 1, 67, 127
2, 43520, Note_off_c, 1, 68, 0
2, 43520, Note_on_c, 1, 74, 127
2, 43520, Note_off_c, 1, 76, 0
2, 43520, Note_off_c, 1, 83, 0
2, 43520, Note_on_c, 1, 86, 127
2, 43560, Note_off_c, 1, 57, 0
2, 43560, Note_on_c, 1, 62, 127
2, 43560, Note_off_c, 1, 64, 0
2, 43560, Note_off_c, 1, 67, 0
2, 43560, Note_on_c, 1, 71, 127
2, 43560, Note_off_c, 1, 74, 0
2, 43560, Note_on_c, 1, 81, 127
2, 43560, Note_off_c, 1, 86, 0
2, 43560, Note_on_c, 1, 90, 127
2, 43600, Note_off_c, 1, 62, 0
2, 43600, Note_off_c, 1, 71, 0
2, 43600, Note_on_c, 1, 77, 127
2, 43600, Note_off_c, 1, 81, 0
2, 43600, Note_off_c, 1, 90, 0
2, 43640, Note_on_c, 1, 41, 127
2, 43640, Note_on_c, 1, 49, 127
2, 43640, Note_on_c, 1, 58, 127
2, 43640, Note_on_c, 1, 73, 127
2, 43640, Note_off_c, 1, 77, 0
2, 43680, Note_off_c, 1, 41, 0
2, 43680, Note_off_c, 1, 49, 0
2, 43680, Note_on_c, 1, 56, 127
2, 43680, Note_off_c, 1, 58, 0
2, 43680, Note_on_c, 1, 62, 127
2, 43680, Note_off_c, 1, 73, 0
2, 43680, Note_on_c, 1, 80, 127
2, 43680, Note_on_c, 1, 86, 127
2, 43720, Note_on_c, 1, 49, 127
2, 43720, Note_on_c, 1, 61, 127
2, 43720, Note_off_c, 1, 62, 0
2, 43720, Note_on_c, 1, 68, 127
2, 43720, Note_on_c, 1, 73, 127
2, 43720, Note_on_c, 1, 76, 127
2, 43720, Note_off_c, 1, 86, 0
2, 43760, Note_on_c, 1, 43, 127
2, 43760, Note_off_c, 1, 49, 0
2, 43760, Note_on_c, 1, 50, 127
2, 43760, Note_off_c, 1, 56, 0
2, 43760, Note_on_c, 1, 57, 127
2, 43760, Note_on_c, 1, 60, 127
2, 43760, Note_off_c, 1, 61, 0
2, 43760, Note_off_c, 1, 68, 0
2, 43760, Note_on_c, 1, 72, 127
2, 43760, Note_off_c, 1, 73, 0
2, 43760, Note_off_c, 1, 76, 0
2, 43760, Note_off_c, 1, 80, 0
2, 43800, Note_off_c, 1, 43, 0
2, 43800, Note_off_c, 1, 50, 0
2, 43800, Note_off_c, 1, 57, 0
2, 43800, Note_off_c, 1, 60, 0
2, 43800, Note_off_c, 1, 72, 0
2, 43840, Note_on_c, 1, 57, 127
2, 43840, Note_on_c, 1, 64, 127
2, 43840, Note_on_c, 1, 67, 127
2, 43840, Note_on_c, 1, 69, 127
2, 43840, Note_on_c, 1, 73, 127
2, 43840, Note_on_c, 1, 85, 127
2, 44000, Note_off_c, 1, 57, 0
2, 44000, Note_off_c, 1, 64, 0
2, 44000, Note_off_c, 1, 67, 0
2, 44000, Note_off_c, 1, 69, 0
2, 44000, Note_off_c, 1, 73, 0
2, 44000, Note_off_c, 1, 85, 0
2, 44040, Note_on_c, 1, 64, 127
2, 44040, Note_on_c, 1, 67, 127
2, 44040, Note_on_c, 1, 79, 127
2, 44200, Note_off_c, 1, 64, 0
2, 44200, Note_off_c, 1, 67, 0
2, 44200, Note_off_c, 1, 79, 0
2, 44240, Note_on_c, 1, 55, 127
2, 44240, Note_on_c, 1, 61, 127
2, 44240, Note_on_c, 1, 65, 127
2, 44240, Note_on_c, 1, 70, 127
2, 44400, Note_off_c, 1, 55, 0
2, 44400, Note_off_c, 1, 61, 0
2, 44400, Note_off_c, 1, 65, 0
2, 44400, Note_off_c, 1, 70, 0
2, 44440, Note_on_c, 1, 54, 127
2, 44440, Note_on_c, 1, 57, 127
2, 44440, Note_on_c, 1, 60, 127
2, 44440, Note_on_c, 1, 62, 127
2, 44440, Note_on_c, 1, 81, 127
2, 44600, Note_off_c, 1, 54, 0
2, 44600, Note_off_c, 1, 57, 0
2, 44600, Note_off_c, 1, 60, 0
2, 44600, Note_off_c, 1, 62, 0
2, 44600, Note_off_c, 1, 81, 0
2, 44640, Note_on_c, 1, 41, 127
2, 44640, Note_on_c, 1, 53, 127
2, 44640, Note_on_c, 1, 85, 127
2, 44640, Note_on_c, 1, 89, 127
2, 44640, Note_on_c, 1, 97, 127
2, 44800, Note_off_c, 1, 41, 0
2, 44800, Note_off_c, 1, 53, 0
2, 44800, Note_off_c, 1, 85, 0
2, 44800, Note_off_c, 1, 89, 0
2, 44800, Note_off_c, 1, 97, 0
2, 44840, Note_on_c, 1, 62, 127
2, 44840, Note_on_c, 1, 65, 127
2, 44840, Note_on_c, 1, 71, 127
2, 44840, Note_on_c, 1, 81, 127
2, 45000, Note_off_c, 1, 62, 0
2, 45000, Note_off_c, 1, 65, 0
2, 45000, Note_off_c, 1, 71, 0
2, 45000, Note_off_c, 1, 81, 0
2, 45080, Note_on_c, 1, 60, 127
2, 45080, Note_on_c, 1, 64, 127
2, 45080, Note_on_c, 1, 69, 127
2, 45080, Note_on_c, 1, 81, 127
2, 45240, Note_off_c, 1, 60, 0
2, 45240, Note_off_c, 1, 64, 0
2, 45240, Note_off_c, 1, 69, 0
2, 45240, Note_off_c, 1, 81, 0
2, 45280, Note_on_c, 1, 47, 127
2, 45280, Note_on_c, 1, 59, 127
2, 45280, Note_on_c, 1, 67, 127
2, 45280, Note_on_c, 1, 79, 127
2, 45440, Note_off_c, 1, 47, 0
2, 45440, Note_off_c, 1, 59, 0
2, 45440, Note_off_c, 1, 67, 0
2, 45440, Note_off_c, 1, 79, 0
2, 45480, Note_on_c, 1, 48, 127
2, 45480, Note_on_c, 1, 60, 127
2, 45480, Note_on_c, 1, 68, 127
2, 45480, Note_on_c, 1, 75, 127
2, 45480, Note_on_c, 1, 78, 127
2, 45480, Note_on_c, 1, 80, 127
2, 45640, Note_off_c, 1, 48, 0
2, 45640, Note_off_c, 1, 60, 0
2, 45640, Note_off_c, 1, 68, 0
2, 45640, Note_off_c, 1, 75, 0
2, 45640, Note_off_c, 1, 78, 0
2, 45640, Note_off_c, 1, 80, 0
2, 45680, Note_on_c, 1, 59, 127
2, 45680, Note_on_c, 1, 64, 127
2, 45680, Note_on_c, 1, 68, 127
2, 45680, Note_on_c, 1, 76, 127
2, 45680, Note_on_c, 1, 80, 127
2, 45680, Note_on_c, 1, 83, 127
2, 45680, Note_on_c, 1, 85, 127
2, 45720, Note_on_c, 1, 41, 127
2, 45720, Note_off_c, 1, 59, 0
2, 45720, Note_off_c, 1, 64, 0
2, 45720, Note_off_c, 1, 68, 0
2, 45720, Note_on_c, 1, 72, 127
2, 45720, Note_off_c, 1, 76, 0
2, 45720, Note_off_c, 1, 83, 0
2, 45720, Note_on_c, 1, 84, 127
2, 45720, Note_off_c, 1, 85, 0
2, 45760, Note_off_c, 1, 41, 0
2, 45760, Note_on_c, 1, 64, 127
2, 45760, Note_on_c, 1, 68, 127
2, 45760, Note_on_c, 1, 71, 127
2, 45760, Note_off_c, 1, 72, 0
2, 45760, Note_on_c, 1, 76, 127
2, 45760, Note_on_c, 1, 83, 127
2, 45760, Note_off_c, 1, 84, 0
2, 45760, Note_on_c, 1, 85, 127
2, 45800, Note_on_c, 1, 59, 127
2, 45800, Note_off_c, 1, 71, 0
2, 45840, Note_off_c, 1, 59, 0
2, 45840, Note_off_c, 1, 64, 0
2, 45840, Note_off_c, 1, 68, 0
2, 45840, Note_off_c, 1, 76, 0
2, 45840, Note_off_c, 1, 80, 0
2, 45840, Note_off_c, 1, 83, 0
2, 45840, Note_off_c, 1, 85, 0
2, 45880, Note_on_c, 1, 46, 127
2, 45880, Note_on_c, 1, 58, 127
2, 45880, Note_on_c, 1, 79, 127
2, 45880, Note_on_c, 1, 85, 127
2, 45880, Note_on_c, 1, 87, 127
2, 45880, Note_on_c, 1, 91, 127
2, 46000, Note_off_c, 1, 46, 0
2, 46000, Note_off_c, 1, 58, 0
2, 46000, Note_off_c, 1, 79, 0
2, 46000, Note_off_c, 1, 85, 0
2, 46000, Note_off_c, 1, 87, 0
2, 46000, Note_off_c, 1, 91, 0
2, 46080, Note_on_c, 1, 37, 127
2, 46080, Note_on_c, 1, 43, 127
2, 46080, Note_on_c, 1, 46, 127
2, 46080, Note_on_c, 1, 49, 127
2, 46080, Note_on_c, 1, 61, 127
2, 46080, Note_on_c, 1, 64, 127
2, 46120, Note_off_c, 1, 37, 0
2, 46120, Note_off_c, 1, 43, 0
2, 46120, Note_off_c, 1, 46, 0
2, 46120, Note_off_c, 1, 49, 0
2, 46120, Note_on_c, 1, 54, 127
2, 46120, Note_off_c, 1, 61, 0
2, 46120, Note_off_c, 1, 64, 0
2, 46120, Note_on_c, 1, 66, 127
2, 46120, Note_on_c, 1, 67, 127
2, 46120, Note_on_c, 1, 76, 127
2, 46160, Note_on_c, 1, 32, 127
2, 46160, Note_on_c, 1, 44, 127
2, 46160, Note_off_c, 1, 54, 0
2, 46160, Note_off_c, 1, 66, 0
2, 46160, Note_off_c, 1, 67, 0
2, 46160, Note_off_c, 1, 76, 0
2, 46160, Note_on_c, 1, 77, 127
2, 46160, Note_on_c, 1, 80, 127
2, 46160, Note_on_c, 1, 85, 127
2, 46160, Note_on_c, 1, 89, 127
2, 46200, Note_off_c, 1, 32, 0
2, 46200, Note_off_c, 1, 44, 0
2, 46200, Note_on_c, 1, 55, 127
2, 46200, Note_on_c, 1, 58, 127
2, 46200, Note_on_c, 1, 64, 127
2, 46200, Note_on_c, 1, 70, 127
2, 46200, Note_on_c, 1, 74, 127
2, 46200, Note_off_c, 1, 77, 0
2, 46200, Note_off_c, 1, 80, 0
2, 46200, Note_off_c, 1, 85, 0
2, 46200, Note_off_c, 1, 89, 0
2, 46240, Note_off_c, 1, 55, 0
2, 46240, Note_off_c, 1, 58, 0
2, 46240, Note_off_c, 1, 64, 0
2, 46240, Note_off_c, 1, 70, 0
2, 46240, Note_off_c, 1, 74, 0
2, 46280, Note_on_c, 1, 62, 127
2, 46280, Note_on_c, 1, 65, 127
2, 46280, Note_on_c, 1, 70, 127
2, 46280, Note_on_c, 1, 74, 127
2, 46280, Note_on_c, 1, 86, 127
2, 46320, Note_on_c, 1, 57, 127
2, 46320, Note_off_c, 1, 62, 0
2, 46320, Note_off_c, 1, 65, 0
2, 46320, Note_on_c, 1, 66, 127
2, 46320, Note_off_c, 1, 70, 0
2, 46320, Note_off_c, 1, 74, 0
2, 46320, Note_off_c, 1, 86, 0
2, 46320, Note_on_c, 1, 90, 127
2, 46320, Note_on_c, 1, 93, 127
2, 46360, Note_off_c, 1, 57, 0
2, 46360, Note_on_c, 1, 62, 127
2, 46360, Note_on_c, 1, 65, 127
2, 46360, Note_off_c, 1, 66, 0
2, 46360, Note_on_c, 1, 70, 127
2, 46360, Note_on_c, 1, 74, 127
2, 46360, Note_on_c, 1, 86, 127
2, 46360, Note_off_c, 1, 90, 0
2, 46360, Note_off_c, 1, 93, 0
2, 46440, Note_off_c, 1, 62, 0
2, 46440, Note_off_c, 1, 65, 0
2, 46440, Note_off_c, 1, 70, 0
2, 46440, Note_off_c, 1, 74, 0
2, 46440, Note_off_c, 1, 86, 0
2, 46480, Note_on_c, 1, 53, 127
2, 46480, Note_on_c, 1, 57, 127
2, 46480, Note_on_c, 1, 67, 127
2, 46480, Note_on_c, 1, 77, 127
2, 46640, Note_off_c, 1, 53, 0
2, 46640, Note_off_c, 1, 57, 0
2, 46640, Note_off_c, 1, 67, 0
2, 46640, Note_off_c, 1, 77, 0
2, 46680, Note_on_c, 1, 53, 127
2, 46680, Note_on_c, 1, 57, 127
2, 46680, Note_on_c, 1, 67, 127
2, 46680, Note_on_c, 1, 77, 127
2, 46840, Note_off_c, 1, 53, 0
2, 46840, Note_off_c, 1, 57, 0
2, 46840, Note_off_c, 1, 67, 0
2, 46840, Note_off_c, 1, 77, 0
2, 46880, Note_on_c, 1, 41, 127
2, 46880, Note_on_c, 1, 60, 127
2, 46880, Note_on_c, 1, 69, 127
2, 46880, Note_on_c, 1, 77, 127
2, 47040, Note_off_c, 1, 41, 0
2, 47040, Note_off_c, 1, 60, 0
2, 47040, Note_off_c, 1, 69, 0
2, 47040, Note_off_c, 1, 77, 0
2, 47120, Note_on_c, 1, 62, 127
2, 47120, Note_on_c, 1, 66, 127
2, 47120, Note_on_c, 1, 72, 127
2, 47120, Note_on_c, 1, 74, 127
2, 47120, Note_on_c, 1, 81, 127
2, 47280, Note_off_c, 1, 62, 0
2, 47280, Note_off_c, 1, 66, 0
2, 47280, Note_off_c, 1, 72, 0
2, 47280, Note_off_c, 1, 74, 0
2, 47280, Note_off_c, 1, 81, 0
2, 47320, Note_on_c, 1, 60, 127
2, 47320, Note_on_c, 1, 69, 127
2, 47320, Note_on_c, 1, 75, 127
2, 47320, Note_on_c, 1, 78, 127
2, 47440, Note_off_c, 1, 69, 0
2, 47440, Note_on_c, 1, 72, 127
2, 47440, Note_off_c, 1, 75, 0
2, 47440, Note_on_c, 1, 76, 127
2, 47440, Note_off_c, 1, 78, 0
2, 47440, Note_on_c, 1, 79, 127
2, 47480, Note_off_c, 1, 60, 0
2, 47480, Note_off_c, 1, 72, 0
2, 47480, Note_off_c, 1, 76, 0
2, 47480, Note_off_c, 1, 79, 0
2, 47520, Note_on_c, 1, 48, 127
2, 47520, Note_on_c, 1, 60, 127
2, 47520, Note_on_c, 1, 78, 127
2, 47520, Note_on_c, 1, 81, 127
2, 47520, Note_on_c, 1, 87, 127
2, 47520, Note_on_c, 1, 90, 127
2, 47680, Note_on_c, 1, 47, 127
2, 47680, Note_off_c, 1, 48, 0
2, 47680, Note_on_c, 1, 57, 127
2, 47680, Note_off_c, 1, 60, 0
2, 47680, Note_on_c, 1, 62, 127
2, 47680, Note_on_c, 1, 68, 127
2, 47680, Note_on_c, 1, 71, 127
2, 47680, Note_off_c, 1, 78, 0
2, 47680, Note_off_c, 1, 81, 0
2, 47680, Note_off_c, 1, 87, 0
2, 47680, Note_off_c, 1, 90, 0
2, 47720, Note_off_c, 1, 47, 0
2, 47720, Note_on_c, 1, 48, 127
2, 47720, Note_off_c, 1, 57, 0
2, 47720, Note_on_c, 1, 60, 127
2, 47720, Note_off_c, 1, 62, 0
2, 47720, Note_off_c, 1, 68, 0
2, 47720, Note_off_c, 1, 71, 0
2, 47720, Note_on_c, 1, 78, 127
2, 47720, Note_on_c, 1, 81, 127
2, 47720, Note_on_c, 1, 87, 127
2, 47720, Note_on_c, 1, 90, 127
2, 47880, Note_off_c, 1, 48, 0
2, 47880, Note_off_c, 1, 60, 0
2, 47880, Note_off_c, 1, 78, 0
2, 47880, Note_off_c, 1, 81, 0
2, 47880, Note_off_c, 1, 87, 0
2, 47880, Note_off_c, 1, 90, 0
2, 47920, Note_on_c, 1, 34, 127
2, 47920, Note_on_c, 1, 41, 127
2, 47920, Note_on_c, 1, 46, 127
2, 47920, Note_on_c, 1, 85, 127
2, 47920, Note_on_c, 1, 90, 127
2, 48080, Note_off_c, 1, 34, 0
2, 48080, Note_off_c, 1, 41, 0
2, 48080, Note_off_c, 1, 46, 0
2, 48080, Note_off_c, 1, 85, 0
2, 48080, Note_off_c, 1, 90, 0
2, 48120, Note_on_c, 1, 31, 127
2, 48120, Note_on_c, 1, 43, 127
2, 48120, Note_on_c, 1, 67, 127
2, 48120, Note_on_c, 1, 71, 127
2, 48120, Note_on_c, 1, 74, 127
2, 48120, Note_on_c, 1, 79, 127
2, 48280, Note_off_c, 1, 31, 0
2, 48280, Note_off_c, 1, 43, 0
2, 48280, Note_off_c, 1, 67, 0
2, 48280, Note_off_c, 1, 71, 0
2, 48280, Note_off_c, 1, 74, 0
2, 48280, Note_off_c, 1, 79, 0
2, 48320, Note_on_c, 1, 42, 127
2, 48320, Note_on_c, 1, 54, 127
2, 48320, Note_on_c, 1, 64, 127
2, 48320, Note_on_c, 1, 67, 127
2, 48320, Note_on_c, 1, 76, 127
2, 48360, Note_off_c, 1, 42, 0
2, 48360, Note_off_c, 1, 54, 0
2, 48360, Note_on_c, 1, 56, 127
2, 48360, Note_on_c, 1, 59, 127
2, 48360, Note_off_c, 1, 67, 0
2, 48360, Note_on_c, 1, 71, 127
2, 48360, Note_on_c, 1, 74, 127
2, 48360, Note_off_c, 1, 76, 0
2, 48400, Note_on_c, 1, 40, 127
2, 48400, Note_on_c, 1, 45, 127
2, 48400, Note_on_c, 1, 49, 127
2, 48400, Note_on_c, 1, 52, 127
2, 48400, Note_off_c, 1, 56, 0
2, 48400, Note_off_c, 1, 59, 0
2, 48400, Note_off_c, 1, 71, 0
2, 48400, Note_off_c, 1, 74, 0
2, 48400, Note_on_c, 1, 76, 127
2, 48440, Note_off_c, 1, 40, 0
2, 48440, Note_off_c, 1, 45, 0
2, 48440, Note_off_c, 1, 49, 0
2, 48440, Note_off_c, 1, 52, 0
2, 48440, Note_on_c, 1, 55, 127
2, 48440, Note_off_c, 1, 64, 0
2, 48440, Note_on_c, 1, 71, 127
2, 48440, Note_off_c, 1, 76, 0
2, 48440, Note_on_c, 1, 77, 127
2, 48440, Note_on_c, 1, 81, 127
2, 48480, Note_off_c, 1, 55, 0
2, 48480, Note_off_c, 1, 71, 0
2, 48480, Note_off_c, 1, 77, 0
2, 48480, Note_off_c, 1, 81, 0
2, 48520, Note_on_c, 1, 36, 127
2, 48520, Note_on_c, 1, 48, 127
2, 48520, Note_on_c, 1, 67, 127
2, 48520, Note_on_c, 1, 72, 127
2, 48520, Note_on_c, 1, 77, 127
2, 48880, Note_off_c, 1, 36, 0
2, 48880, Note_off_c, 1, 48, 0
2, 48880, Note_off_c, 1, 67, 0
2, 48880, Note_off_c, 1, 72, 0
2, 48880, Note_off_c, 1, 77, 0
2, 48920, Note_on_c, 1, 29, 127
2, 48920, Note_on_c, 1, 41, 127
2, 48920, Note_on_c, 1, 60, 127
2, 48920, Note_on_c, 1, 65, 127
2, 48920, Note_on_c, 1, 69, 127
2, 48920, Note_on_c, 1, 72, 127
2, 49080, Note_off_c, 1, 29, 0
2, 49080, Note_off_c, 1, 41, 0
2, 49080, Note_off_c, 1, 60, 0
2, 49080, Note_off_c, 1, 65, 0
2, 49080, Note_off_c, 1, 69, 0
2, 49080, Note_off_c, 1, 72, 0
2, 49160, Note_on_c, 1, 46, 127
2, 49160, Note_on_c, 1, 58, 127
2, 49160, Note_on_c, 1, 88, 127
2, 49160, Note_on_c, 1, 94, 127
2, 49160, Note_on_c, 1, 97, 127
2, 49160, Note_on_c, 1, 100, 127
2, 49200, Note_on_c, 1, 39, 127
2, 49200, Note_off_c, 1, 46, 0
2, 49200, Note_on_c, 1, 49, 127
2, 49200, Note_on_c, 1, 51, 127
2, 49200, Note_off_c, 1, 58, 0
2, 49200, Note_on_c, 1, 70, 127
2, 49200, Note_on_c, 1, 73, 127
2, 49200, Note_on_c, 1, 75, 127
2, 49200, Note_off_c, 1, 88, 0
2, 49200, Note_off_c, 1, 94, 0
2, 49200, Note_off_c, 1, 97, 0
2, 49200, Note_off_c, 1, 100, 0
2, 49240, Note_off_c, 1, 39, 0
2, 49240, Note_on_c, 1, 46, 127
2, 49240, Note_off_c, 1, 49, 0
2, 49240, Note_off_c, 1, 51, 0
2, 49240, Note_on_c, 1, 58, 127
2, 49240, Note_off_c, 1, 70, 0
2, 49240, Note_off_c, 1, 73, 0
2, 49240, Note_off_c, 1, 75, 0
2, 49240, Note_on_c, 1, 88, 127
2, 49240, Note_on_c, 1, 94, 127
2, 49240, Note_on_c, 1, 97, 127
2, 49240, Note_on_c, 1, 100, 127
2, 49320, Note_off_c, 1, 46, 0
2, 49320, Note_off_c, 1, 58, 0
2, 49320, Note_off_c, 1, 88, 0
2, 49320, Note_off_c, 1, 94, 0
2, 49320, Note_off_c, 1, 97, 0
2, 49320, Note_off_c, 1, 100, 0
2, 49360, Note_on_c, 1, 44, 127
2, 49360, Note_on_c, 1, 56, 127
2, 49360, Note_on_c, 1, 63, 127
2, 49360, Note_on_c, 1, 72, 127
2, 49360, Note_on_c, 1, 80, 127
2, 49520, Note_off_c, 1, 44, 0
2, 49520, Note_off_c, 1, 56, 0
2, 49520, Note_off_c, 1, 63, 0
2, 49520, Note_off_c, 1, 72, 0
2, 49520, Note_off_c, 1, 80, 0
2, 49560, Note_on_c, 1, 43, 127
2, 49560, Note_on_c, 1, 55, 127
2, 49560, Note_on_c, 1, 75, 127
2, 49560, Note_on_c, 1, 82, 127
2, 49560, Note_on_c, 1, 87, 127
2, 49720, Note_off_c, 1, 43, 0
2, 49720, Note_off_c, 1, 55, 0
2, 49720, Note_off_c, 1, 75, 0
2, 49720, Note_off_c, 1, 82, 0
2, 49720, Note_off_c, 1, 87, 0
2, 49760, Note_on_c, 1, 43, 127
2, 49760, Note_on_c, 1, 55, 127
2, 49760, Note_on_c, 1, 70, 127
2, 49760, Note_on_c, 1, 75, 127
2, 49760, Note_on_c, 1, 79, 127
2, 49760, Note_on_c, 1, 82, 127
2, 49920, Note_off_c, 1, 43, 0
2, 49920, Note_off_c, 1, 55, 0
2, 49960, Note_on_c, 1, 46, 127
2, 49960, Note_on_c, 1, 58, 127
2, 49960, Note_on_c, 1, 65, 127
2, 49960, Note_off_c, 1, 70, 0
2, 49960, Note_on_c, 1, 73, 127
2, 49960, Note_off_c, 1, 75, 0
2, 49960, Note_on_c, 1, 77, 127
2, 49960, Note_off_c, 1, 79, 0
2, 49960, Note_off_c, 1, 82, 0
2, 50120, Note_off_c, 1, 46, 0
2, 50120, Note_off_c, 1, 58, 0
2, 50120, Note_off_c, 1, 65, 0
2, 50120, Note_off_c, 1, 73, 0
2, 50120, Note_off_c, 1, 77, 0
2, 50160, Note_on_c, 1, 38, 127
2, 50160, Note_on_c, 1, 50, 127
2, 50160, Note_on_c, 1, 72, 127
2, 50160, Note_on_c, 1, 78, 127
2, 50320, Note_off_c, 1, 38, 0
2, 50320, Note_off_c, 1, 50, 0
2, 50320, Note_off_c, 1, 72, 0
2, 50320, Note_off_c, 1, 78, 0
2, 50360, Note_on_c, 1, 40, 127
2, 50360, Note_on_c, 1, 47, 127
2, 50360, Note_on_c, 1, 56, 127
2, 50360, Note_on_c, 1, 76, 127
2, 50360, Note_on_c, 1, 80, 127
2, 50360, Note_on_c, 1, 85, 127
2, 50400, Note_on_c, 1, 38, 127
2, 50400, Note_off_c, 1, 40, 0
2, 50400, Note_off_c, 1, 47, 0
2, 50400, Note_on_c, 1, 50, 127
2, 50400, Note_off_c, 1, 56, 0
2, 50400, Note_on_c, 1, 65, 127
2, 50400, Note_on_c, 1, 70, 127
2, 50400, Note_on_c, 1, 74, 127
2, 50400, Note_off_c, 1, 76, 0
2, 50400, Note_off_c, 1, 80, 0
2, 50400, Note_off_c, 1, 85, 0
2, 50440, Note_off_c, 1, 38, 0
2, 50440, Note_on_c, 1, 40, 127
2, 50440, Note_off_c, 1, 50, 0
2, 50440, Note_on_c, 1, 56, 127
2, 50440, Note_off_c, 1, 65, 0
2, 50440, Note_off_c, 1, 70, 0
2, 50440, Note_off_c, 1, 74, 0
2, 50440, Note_on_c, 1, 76, 127
2, 50440, Note_on_c, 1, 80, 127
2, 50440, Note_on_c, 1, 83, 127
2, 50480, Note_on_c, 1, 47, 127
2, 50480, Note_off_c, 1, 83, 0
2, 50480, Note_on_c, 1, 85, 127
2, 50520, Note_off_c, 1, 40, 0
2, 50520, Note_off_c, 1, 47, 0
2, 50520, Note_off_c, 1, 56, 0
2, 50520, Note_off_c, 1, 76, 0
2, 50520, Note_off_c, 1, 80, 0
2, 50520, Note_off_c, 1, 85, 0
2, 50560, Note_on_c, 1, 52, 127
2, 50560, Note_on_c, 1, 59, 127
2, 50560, Note_on_c, 1, 71, 127
2, 50560, Note_on_c, 1, 76, 127
2, 50560, Note_on_c, 1, 79, 127
2, 50640, Note_off_c, 1, 59, 0
2, 50640, Note_off_c, 1, 79, 0
2, 50680, Note_on_c, 1, 47, 127
2, 50680, Note_on_c, 1, 62, 127
2, 50680, Note_on_c, 1, 66, 127
2, 50680, Note_off_c, 1, 71, 0
2, 50680, Note_off_c, 1, 76, 0
2, 50720, Note_off_c, 1, 47, 0
2, 50720, Note_off_c, 1, 52, 0
2, 50720, Note_off_c, 1, 62, 0
2, 50720, Note_off_c, 1, 66, 0
2, 50760, Note_on_c, 1, 52, 127
2, 50760, Note_on_c, 1, 62, 127
2, 50760, Note_on_c, 1, 74, 127
2, 50760, Note_on_c, 1, 80, 127
2, 50800, Note_off_c, 1, 62, 0
2, 50800, Note_on_c, 1, 64, 127
2, 50800, Note_on_c, 1, 68, 127
2, 50800, Note_off_c, 1, 80, 0
2, 50840, Note_on_c, 1, 46, 127
2, 50840, Note_off_c, 1, 52, 0
2, 50840, Note_on_c, 1, 54, 127
2, 50840, Note_off_c, 1, 64, 0
2, 50840, Note_off_c, 1, 68, 0
2, 50840, Note_on_c, 1, 73, 127
2, 50840, Note_off_c, 1, 74, 0
2, 50840, Note_on_c, 1, 83, 127
2, 50880, Note_off_c, 1, 46, 0
2, 50880, Note_on_c, 1, 51, 127
2, 50880, Note_off_c, 1, 54, 0
2, 50880, Note_off_c, 1, 73, 0
2, 50880, Note_on_c, 1, 75, 127
2, 50880, Note_on_c, 1, 80, 127
2, 50880, Note_off_c, 1, 83, 0
2, 50920, Note_off_c, 1, 51, 0
2, 50920, Note_off_c, 1, 75, 0
2, 50920, Note_off_c, 1, 80, 0
2, 50960, Note_on_c, 1, 42, 127
2, 50960, Note_on_c, 1, 54, 127
2, 50960, Note_on_c, 1, 66, 127
2, 50960, Note_on_c, 1, 69, 127
2, 50960, Note_on_c, 1, 73, 127
2, 50960, Note_on_c, 1, 78, 127
2, 51000, Note_on_c, 1, 36, 127
2, 51000, Note_off_c, 1, 42, 0
2, 51000, Note_on_c, 1, 48, 127
2, 51000, Note_off_c, 1, 54, 0
2, 51000, Note_on_c, 1, 63, 127
2, 51000, Note_off_c, 1, 66, 0
2, 51000, Note_off_c, 1, 69, 0
2, 51000, Note_on_c, 1, 72, 127
2, 51000, Note_off_c, 1, 73, 0
2, 51000, Note_off_c, 1, 78, 0
2, 51040, Note_off_c, 1, 36, 0
2, 51040, Note_on_c, 1, 40, 127
2, 51040, Note_off_c, 1, 48, 0
2, 51040, Note_on_c, 1, 52, 127
2, 51040, Note_off_c, 1, 63, 0
2, 51040, Note_on_c, 1, 70, 127
2, 51040, Note_off_c, 1, 72, 0
2, 51040, Note_on_c, 1, 73, 127
2, 51040, Note_on_c, 1, 78, 127
2, 51080, Note_on_c, 1, 32, 127
2, 51080, Note_on_c, 1, 39, 127
2, 51080, Note_off_c, 1, 40, 0
2, 51080, Note_on_c, 1, 44, 127
2, 51080, Note_on_c, 1, 48, 127
2, 51080, Note_on_c, 1, 60, 127
2, 51080, Note_on_c, 1, 63, 127
2, 51080, Note_off_c, 1, 70, 0
2, 51080, Note_off_c, 1, 73, 0
2, 51080, Note_off_c, 1, 78, 0
2, 51120, Note_off_c, 1, 32, 0
2, 51120, Note_off_c, 1, 39, 0
2, 51120, Note_off_c, 1, 44, 0
2, 51120, Note_off_c, 1, 48, 0
2, 51120, Note_off_c, 1, 52, 0
2, 51120, Note_off_c, 1, 60, 0
2, 51120, Note_off_c, 1, 63, 0
2, 51160, Note_on_c, 1, 44, 127
2, 51160, Note_on_c, 1, 52, 127
2, 51160, Note_on_c, 1, 59, 127
2, 51160, Note_on_c, 1, 64, 127
2, 51160, Note_on_c, 1, 68, 127
2, 51160, Note_on_c, 1, 76, 127
2, 51320, Note_off_c, 1, 44, 0
2, 51320, Note_off_c, 1, 52, 0
2, 51320, Note_off_c, 1, 59, 0
2, 51320, Note_off_c, 1, 64, 0
2, 51320, Note_off_c, 1, 68, 0
2, 51320, Note_off_c, 1, 76, 0
2, 51400, Note_on_c, 1, 49, 127
2, 51400, Note_on_c, 1, 54, 127
2, 51400, Note_on_c, 1, 63, 127
2, 51400, Note_on_c, 1, 68, 127
2, 51400, Note_on_c, 1, 72, 127
2, 51760, Note_off_c, 1, 49, 0
2, 51760, Note_off_c, 1, 54, 0
2, 51760, Note_off_c, 1, 63, 0
2, 51760, Note_off_c, 1, 68, 0
2, 51760, Note_off_c, 1, 72, 0
2, 51800, Note_on_c, 1, 51, 127
2, 51800, Note_on_c, 1, 66, 127
2, 51800, Note_on_c, 1, 69, 127
2, 51800, Note_on_c, 1, 71, 127
2, 51960, Note_off_c, 1, 51, 0
2, 51960, Note_off_c, 1, 66, 0
2, 51960, Note_off_c, 1, 69, 0
2, 51960, Note_off_c, 1, 71, 0
2, 52000, Note_on_c, 1, 66, 127
2, 52000, Note_on_c, 1, 74, 127
2, 52000, Note_on_c, 1, 78, 127
2, 52000, Note_on_c, 1, 83, 127
2, 52000, Note_on_c, 1, 90, 127
2, 52160, Note_off_c, 1, 66, 0
2, 52160, Note_off_c, 1, 74, 0
2, 52160, Note_off_c, 1, 78, 0
2, 52160, Note_off_c, 1, 83, 0
2, 52160, Note_off_c, 1, 90, 0
2, 52160, Note_on_c, 1, 91, 127
2, 52160, Note_on_c, 1, 94, 127
2, 52160, Note_on_c, 1, 99, 127
2, 52200, Note_on_c, 1, 66, 127
2, 52200, Note_on_c, 1, 74, 127
2, 52200, Note_on_c, 1, 78, 127
2, 52200, Note_on_c, 1, 83, 127
2, 52200, Note_on_c, 1, 90, 127
2, 52200, Note_off_c, 1, 91, 0
2, 52200, Note_off_c, 1, 94, 0
2, 52200, Note_off_c, 1, 99, 0
2, 52360, Note_off_c, 1, 66, 0
2, 52360, Note_off_c, 1, 74, 0
2, 52360, Note_off_c, 1, 78, 0
2, 52360, Note_off_c, 1, 83, 0
2, 52360, Note_off_c, 1, 90, 0
2, 52400, Note_on_c, 1, 56, 127
2, 52400, Note_on_c, 1, 75, 127
2, 52400, Note_on_c, 1, 82, 127
2, 52400, Note_on_c, 1, 85, 127
2, 52560, Note_off_c, 1, 56, 0
2, 52560, Note_off_c, 1, 75, 0
2, 52560, Note_off_c, 1, 82, 0
2, 52560, Note_off_c, 1, 85, 0
2, 52600, Note_on_c, 1, 52, 127
2, 52600, Note_on_c, 1, 59, 127
2, 52600, Note_on_c, 1, 64, 127
2, 52600, Note_on_c, 1, 68, 127
2, 52600, Note_on_c, 1, 80, 127
2, 52600, Note_on_c, 1, 83, 127
2, 52600, Note_on_c, 1, 92, 127
2, 52760, Note_off_c, 1, 52, 0
2, 52760, Note_off_c, 1, 59, 0
2, 52760, Note_off_c, 1, 64, 0
2, 52760, Note_off_c, 1, 68, 0
2, 52760, Note_off_c, 1, 80, 0
2, 52760, Note_off_c, 1, 83, 0
2, 52760, Note_off_c, 1, 92, 0
2, 52800, Note_on_c, 1, 40, 127
2, 52800, Note_on_c, 1, 52, 127
2, 52800, Note_on_c, 1, 56, 127
2, 52800, Note_on_c, 1, 64, 127
2, 52800, Note_on_c, 1, 68, 127
2, 53120, Note_off_c, 1, 40, 0
2, 53120, Note_off_c, 1, 52, 0
2, 53120, Note_off_c, 1, 56, 0
2, 53120, Note_off_c, 1, 64, 0
2, 53120, Note_off_c, 1, 68, 0
2, 53200, Note_on_c, 1, 40, 127
2, 53200, Note_on_c, 1, 52, 127
2, 53200, Note_on_c, 1, 56, 127
2, 53200, Note_on_c, 1, 64, 127
2, 53200, Note_on_c, 1, 68, 127
2, 53320, Note_off_c, 1, 40, 0
2, 53320, Note_off_c, 1, 52, 0
2, 53360, Note_on_c, 1, 31, 127
2, 53360, Note_on_c, 1, 43, 127
2, 53360, Note_on_c, 1, 50, 127
2, 53360, Note_off_c, 1, 56, 0
2, 53360, Note_on_c, 1, 62, 127
2, 53360, Note_off_c, 1, 64, 0
2, 53360, Note_off_c, 1, 68, 0
2, 53360, Note_on_c, 1, 71, 127
2, 53360, Note_on_c, 1, 83, 127
2, 53400, Note_off_c, 1, 31, 0
2, 53400, Note_off_c, 1, 43, 0
2, 53400, Note_off_c, 1, 50, 0
2, 53400, Note_off_c, 1, 62, 0
2, 53400, Note_off_c, 1, 71, 0
2, 53400, Note_off_c, 1, 83, 0
2, 53440, Note_on_c, 1, 43, 127
2, 53440, Note_on_c, 1, 53, 127
2, 53440, Note_on_c, 1, 58, 127
2, 53440, Note_on_c, 1, 65, 127
2, 53480, Note_on_c, 1, 40, 127
2, 53480, Note_off_c, 1, 43, 0
2, 53480, Note_on_c, 1, 45, 127
2, 53480, Note_on_c, 1, 52, 127
2, 53480, Note_off_c, 1, 53, 0
2, 53480, Note_off_c, 1, 58, 0
2, 53480, Note_off_c, 1, 65, 0
2, 53480, Note_on_c, 1, 72, 127
2, 53520, Note_off_c, 1, 40, 0
2, 53520, Note_off_c, 1, 45, 0
2, 53520, Note_off_c, 1, 52, 0
2, 53520, Note_on_c, 1, 66, 127
2, 53520, Note_off_c, 1, 72, 0
2, 53520, Note_on_c, 1, 74, 127
2, 53520, Note_on_c, 1, 78, 127
2, 53520, Note_on_c, 1, 86, 127
2, 53520, Note_on_c, 1, 90, 127
2, 53560, Note_on_c, 1, 39, 127
2, 53560, Note_on_c, 1, 51, 127
2, 53560, Note_on_c, 1, 61, 127
2, 53560, Note_on_c, 1, 63, 127
2, 53560, Note_off_c, 1, 66, 0
2, 53560, Note_on_c, 1, 67, 127
2, 53560, Note_on_c, 1, 70, 127
2, 53560, Note_on_c, 1, 73, 127
2, 53560, Note_off_c, 1, 74, 0
2, 53560, Note_off_c, 1, 78, 0
2, 53560, Note_off_c, 1, 86, 0
2, 53560, Note_off_c, 1, 90, 0
2, 53600, Note_off_c, 1, 39, 0
2, 53600, Note_off_c, 1, 51, 0
2, 53600, Note_off_c, 1, 61, 0
2, 53600, Note_off_c, 1, 63, 0
2, 53600, Note_off_c, 1, 67, 0
2, 53600, Note_off_c, 1, 70, 0
2, 53600, Note_off_c, 1, 73, 0
2, 53640, Note_on_c, 1, 49, 127
2, 53640, Note_on_c, 1, 54, 127
2, 53640, Note_on_c, 1, 61, 127
2, 53640, Note_on_c, 1, 76, 127
2, 53640, Note_on_c, 1, 78, 127
2, 53640, Note_on_c, 1, 88, 127
2, 53800, Note_off_c, 1, 49, 0
2, 53800, Note_off_c, 1, 54, 0
2, 53800, Note_off_c, 1, 61, 0
2, 53800, Note_off_c, 1, 76, 0
2, 53800, Note_off_c, 1, 78, 0
2, 53800, Note_off_c, 1, 88, 0
2, 53840, Note_on_c, 1, 47, 127
2, 53840, Note_on_c, 1, 54, 127
2, 53840, Note_on_c, 1, 59, 127
2, 53840, Note_on_c, 1, 75, 127
2, 53840, Note_on_c, 1, 78, 127
2, 53840, Note_on_c, 1, 87, 127
2, 54000, Note_off_c, 1, 47, 0
2, 54000, Note_off_c, 1, 54, 0
2, 54000, Note_off_c, 1, 59, 0
2, 54000, Note_off_c, 1, 75, 0
2, 54000, Note_off_c, 1, 78, 0
2, 54000, Note_off_c, 1, 87, 0
2, 54040, Note_on_c, 1, 47, 127
2, 54040, Note_on_c, 1, 54, 127
2, 54040, Note_on_c, 1, 67, 127
2, 54200, Note_off_c, 1, 47, 0
2, 54200, Note_off_c, 1, 54, 0
2, 54200, Note_off_c, 1, 67, 0
2, 54240, Note_on_c, 1, 44, 127
2, 54240, Note_on_c, 1, 71, 127
2, 54240, Note_on_c, 1, 75, 127
2, 54240, Note_on_c, 1, 83, 127
2, 54360, Note_on_c, 1, 32, 127
2, 54360, Note_off_c, 1, 44, 0
2, 54360, Note_off_c, 1, 71, 0
2, 54360, Note_off_c, 1, 83, 0
2, 54400, Note_off_c, 1, 32, 0
2, 54400, Note_off_c, 1, 75, 0
2, 54440, Note_on_c, 1, 51, 127
2, 54440, Note_on_c, 1, 71, 127
2, 54440, Note_on_c, 1, 75, 127
2, 54440, Note_on_c, 1, 83, 127
2, 54600, Note_off_c, 1, 51, 0
2, 54600, Note_off_c, 1, 71, 0
2, 54600, Note_off_c, 1, 75, 0
2, 54600, Note_off_c, 1, 83, 0
2, 54640, Note_on_c, 1, 64, 127
2, 54640, Note_on_c, 1, 68, 127
2, 54640, Note_on_c, 1, 80, 127
2, 54640, Note_on_c, 1, 88, 127
2, 54640, Note_on_c, 1, 92, 127
2, 54800, Note_off_c, 1, 64, 0
2, 54800, Note_off_c, 1, 68, 0
2, 54800, Note_off_c, 1, 80, 0
2, 54800, Note_off_c, 1, 88, 0
2, 54800, Note_off_c, 1, 92, 0
2, 54840, Note_on_c, 1, 63, 127
2, 54840, Note_on_c, 1, 71, 127
2, 54840, Note_on_c, 1, 74, 127
2, 54840, Note_on_c, 1, 77, 127
2, 54840, Note_on_c, 1, 83, 127
2, 54840, Note_on_c, 1, 85, 127
2, 54880, Note_off_c, 1, 85, 0
2, 55000, Note_off_c, 1, 63, 0
2, 55000, Note_off_c, 1, 71, 0
2, 55000, Note_off_c, 1, 74, 0
2, 55000, Note_off_c, 1, 77, 0
2, 55000, Note_off_c, 1, 83, 0
2, 55040, Note_on_c, 1, 63, 127
2, 55040, Note_on_c, 1, 71, 127
2, 55040, Note_on_c, 1, 74, 127
2, 55040, Note_on_c, 1, 77, 127
2, 55040, Note_on_c, 1, 83, 127
2, 55200, Note_off_c, 1, 63, 0
2, 55200, Note_off_c, 1, 71, 0
2, 55200, Note_off_c, 1, 74, 0
2, 55200, Note_off_c, 1, 77, 0
2, 55200, Note_off_c, 1, 83, 0
2, 55240, Note_on_c, 1, 63, 127
2, 55240, Note_on_c, 1, 71, 127
2, 55240, Note_on_c, 1, 74, 127
2, 55240, Note_on_c, 1, 77, 127
2, 55240, Note_on_c, 1, 83, 127
2, 55400, Note_off_c, 1, 63, 0
2, 55400, Note_off_c, 1, 71, 0
2, 55400, Note_off_c, 1, 74, 0
2, 55400, Note_off_c, 1, 77, 0
2, 55400, Note_off_c, 1, 83, 0
2, 55440, Note_on_c, 1, 46, 127
2, 55440, Note_on_c, 1, 58, 127
2, 55440, Note_on_c, 1, 68, 127
2, 55440, Note_on_c, 1, 73, 127
2, 55440, Note_on_c, 1, 77, 127
2, 55600, Note_off_c, 1, 46, 0
2, 55600, Note_off_c, 1, 58, 0
2, 55600, Note_off_c, 1, 68, 0
2, 55600, Note_off_c, 1, 73, 0
2, 55600, Note_off_c, 1, 77, 0
2, 55680, Note_on_c, 1, 62, 127
2, 55680, Note_on_c, 1, 86, 127
2, 55680, Note_on_c, 1, 89, 127
2, 55680, Note_on_c, 1, 93, 127
2, 55680, Note_on_c, 1, 98, 127
2, 56200, Note_off_c, 1, 62, 0
2, 56240, Note_off_c, 1, 86, 0
2, 56240, Note_off_c, 1, 89, 0
2, 56240, Note_off_c, 1, 93, 0
2, 56240, Note_off_c, 1, 98, 0
2, 56280, Note_on_c, 1, 53, 127
2, 56280, Note_on_c, 1, 55, 127
2, 56280, Note_on_c, 1, 63, 127
2, 56280, Note_on_c, 1, 65, 127
2, 56280, Note_on_c, 1, 67, 127
2, 56440, Note_off_c, 1, 53, 0
2, 56440, Note_off_c, 1, 55, 0
2, 56440, Note_off_c, 1, 63, 0
2, 56440, Note_off_c, 1, 65, 0
2, 56440, Note_off_c, 1, 67, 0
2, 56480, Note_on_c, 1, 53, 127
2, 56480, Note_on_c, 1, 55, 127
2, 56480, Note_on_c, 1, 63, 127
2, 56480, Note_on_c, 1, 65, 127
2, 56480, Note_on_c, 1, 67, 127
2, 56640, Note_off_c, 1, 53, 0
2, 56640, Note_off_c, 1, 55, 0
2, 56640, Note_off_c, 1, 63, 0
2, 56640, Note_off_c, 1, 65, 0
2, 56640, Note_off_c, 1, 67, 0
2, 56680, Note_on_c, 1, 53, 127
2, 56680, Note_on_c, 1, 55, 127
2, 56680, Note_on_c, 1, 63, 127
2, 56680, Note_on_c, 1, 65, 127
2, 56680, Note_on_c, 1, 67, 127
2, 56840, Note_off_c, 1, 53, 0
2, 56840, Note_off_c, 1, 55, 0
2, 56840, Note_off_c, 1, 63, 0
2, 56840, Note_off_c, 1, 65, 0
2, 56840, Note_off_c, 1, 67, 0
2, 56880, Note_on_c, 1, 61, 127
2, 56880, Note_on_c, 1, 76, 127
2, 56880, Note_on_c, 1, 82, 127
2, 56880, Note_on_c, 1, 88, 127
2, 57040, Note_on_c, 1, 58, 127
2, 57040, Note_off_c, 1, 61, 0
2, 57040, Note_off_c, 1, 76, 0
2, 57040, Note_off_c, 1, 82, 0
2, 57040, Note_off_c, 1, 88, 0
2, 57080, Note_off_c, 1, 58, 0
2, 57080, Note_on_c, 1, 60, 127
2, 57080, Note_on_c, 1, 76, 127
2, 57080, Note_on_c, 1, 79, 127
2, 57080, Note_on_c, 1, 82, 127
2, 57120, Note_off_c, 1, 60, 0
2, 57120, Note_on_c, 1, 64, 127
2, 57120, Note_off_c, 1, 76, 0
2, 57120, Note_off_c, 1, 79, 0
2, 57120, Note_off_c, 1, 82, 0
2, 57120, Note_on_c, 1, 86, 127
2, 57120, Note_on_c, 1, 89, 127
2, 57120, Note_on_c, 1, 93, 127
2, 57120, Note_on_c, 1, 98, 127
2, 57160, Note_on_c, 1, 60, 127
2, 57160, Note_off_c, 1, 64, 0
2, 57160, Note_on_c, 1, 76, 127
2, 57160, Note_on_c, 1, 79, 127
2, 57160, Note_on_c, 1, 82, 127
2, 57160, Note_off_c, 1, 86, 0
2, 57160, Note_off_c, 1, 89, 0
2, 57160, Note_off_c, 1, 93, 0
2, 57160, Note_off_c, 1, 98, 0
2, 57240, Note_off_c, 1, 60, 0
2, 57240, Note_off_c, 1, 76, 0
2, 57240, Note_off_c, 1, 79, 0
2, 57240, Note_off_c, 1, 82, 0
2, 57280, Note_on_c, 1, 64, 127
2, 57280, Note_on_c, 1, 67, 127
2, 57280, Note_on_c, 1, 91, 127
2, 57280, Note_on_c, 1, 95, 127
2, 57320, Note_on_c, 1, 55, 127
2, 57320, Note_on_c, 1, 58, 127
2, 57320, Note_on_c, 1, 63, 127
2, 57320, Note_off_c, 1, 64, 0
2, 57320, Note_off_c, 1, 67, 0
2, 57320, Note_on_c, 1, 87, 127
2, 57320, Note_on_c, 1, 94, 127
2, 57320, Note_off_c, 1, 95, 0
2, 57360, Note_on_c, 1, 46, 127
2, 57360, Note_off_c, 1, 63, 0
2, 57360, Note_on_c, 1, 67, 127
2, 57360, Note_off_c, 1, 87, 0
2, 57360, Note_off_c, 1, 91, 0
2, 57360, Note_off_c, 1, 94, 0
2, 57400, Note_off_c, 1, 46, 0
2, 57400, Note_off_c, 1, 55, 0
2, 57400, Note_off_c, 1, 58, 0
2, 57400, Note_off_c, 1, 67, 0
2, 57400, Note_on_c, 1, 82, 127
2, 57400, Note_on_c, 1, 93, 127
2, 57440, Note_off_c, 1, 82, 0
2, 57440, Note_off_c, 1, 93, 0
2, 57480, Note_on_c, 1, 70, 127
2, 57480, Note_on_c, 1, 93, 127
2, 57600, Note_on_c, 1, 53, 127
2, 57600, Note_on_c, 1, 65, 127
2, 57600, Note_off_c, 1, 70, 0
2, 57600, Note_on_c, 1, 92, 127
2, 57600, Note_off_c, 1, 93, 0
2, 57640, Note_off_c, 1, 53, 0
2, 57640, Note_off_c, 1, 65, 0
2, 57640, Note_off_c, 1, 92, 0
2, 57680, Note_on_c, 1, 70, 127
2, 57680, Note_on_c, 1, 91, 127
2, 57720, Note_on_c, 1, 55, 127
2, 57720, Note_on_c, 1, 75, 127
2, 57720, Note_on_c, 1, 79, 127
2, 57720, Note_on_c, 1, 82, 127
2, 57720, Note_off_c, 1, 91, 0
2, 57880, Note_off_c, 1, 55, 0
2, 57880, Note_on_c, 1, 67, 127
2, 57880, Note_off_c, 1, 70, 0
2, 57880, Note_off_c, 1, 75, 0
2, 57880, Note_off_c, 1, 79, 0
2, 57920, Note_on_c, 1, 65, 127
2, 57920, Note_off_c, 1, 67, 0
2, 57920, Note_on_c, 1, 68, 127
2, 57920, Note_off_c, 1, 82, 0
2, 57920, Note_on_c, 1, 103, 127
2, 57960, Note_on_c, 1, 34, 127
2, 57960, Note_on_c, 1, 46, 127
2, 57960, Note_on_c, 1, 51, 127
2, 57960, Note_on_c, 1, 61, 127
2, 57960, Note_off_c, 1, 65, 0
2, 57960, Note_off_c, 1, 68, 0
2, 57960, Note_off_c, 1, 103, 0
2, 58000, Note_off_c, 1, 34, 0
2, 58000, Note_on_c, 1, 45, 127
2, 58000, Note_off_c, 1, 46, 0
2, 58000, Note_off_c, 1, 51, 0
2, 58000, Note_on_c, 1, 54, 127
2, 58000, Note_off_c, 1, 61, 0
2, 58000, Note_on_c, 1, 76, 127
2, 58000, Note_on_c, 1, 80, 127
2, 58040, Note_on_c, 1, 44, 127
2, 58040, Note_off_c, 1, 45, 0
2, 58040, Note_off_c, 1, 54, 0
2, 58040, Note_on_c, 1, 61, 127
2, 58040, Note_on_c, 1, 64, 127
2, 58040, Note_on_c, 1, 68, 127
2, 58040, Note_off_c, 1, 76, 0
2, 58040, Note_off_c, 1, 80, 0
2, 58080, Note_off_c, 1, 44, 0
2, 58080, Note_off_c, 1, 61, 0
2, 58080, Note_off_c, 1, 64, 0
2, 58080, Note_off_c, 1, 68, 0
2, 58120, Note_on_c, 1, 37, 127
2, 58120, Note_on_c, 1, 44, 127
2, 58120, Note_on_c, 1, 49, 127
2, 58120, Note_on_c, 1, 64, 127
2, 58120, Note_on_c, 1, 76, 127
2, 58280, Note_off_c, 1, 37, 0
2, 58280, Note_off_c, 1, 44, 0
2, 58280, Note_off_c, 1, 49, 0
2, 58280, Note_off_c, 1, 64, 0
2, 58280, Note_off_c, 1, 76, 0
2, 58320, Note_on_c, 1, 40, 127
2, 58320, Note_on_c, 1, 43, 127
2, 58320, Note_on_c, 1, 46, 127
2, 58320, Note_on_c, 1, 52, 127
2, 58320, Note_on_c, 1, 97, 127
2, 58360, Note_off_c, 1, 40, 0
2, 58360, Note_off_c, 1, 43, 0
2, 58360, Note_on_c, 1, 45, 127
2, 58360, Note_off_c, 1, 46, 0
2, 58360, Note_off_c, 1, 52, 0
2, 58360, Note_on_c, 1, 53, 127
2, 58360, Note_on_c, 1, 57, 127
2, 58360, Note_on_c, 1, 59, 127
2, 58360, Note_on_c, 1, 61, 127
2, 58360, Note_off_c, 1, 97, 0
2, 58400, Note_on_c, 1, 37, 127
2, 58400, Note_on_c, 1, 40, 127
2, 58400, Note_off_c, 1, 45, 0
2, 58400, Note_on_c, 1, 49, 127
2, 58400, Note_off_c, 1, 53, 0
2, 58400, Note_off_c, 1, 57, 0
2, 58400, Note_off_c, 1, 59, 0
2, 58400, Note_off_c, 1, 61, 0
2, 58440, Note_off_c, 1, 37, 0
2, 58440, Note_off_c, 1, 40, 0
2, 58440, Note_on_c, 1, 53, 127
2, 58440, Note_on_c, 1, 59, 127
2, 58440, Note_on_c, 1, 68, 127
2, 58480, Note_off_c, 1, 49, 0
2, 58480, Note_off_c, 1, 53, 0
2, 58480, Note_off_c, 1, 59, 0
2, 58480, Note_off_c, 1, 68, 0
2, 58520, Note_on_c, 1, 38, 127
2, 58520, Note_on_c, 1, 50, 127
2, 58520, Note_on_c, 1, 67, 127
2, 58520, Note_on_c, 1, 70, 127
2, 58520, Note_on_c, 1, 74, 127
2, 58520, Note_on_c, 1, 79, 127
2, 58880, Note_off_c, 1, 38, 0
2, 58880, Note_off_c, 1, 50, 0
2, 58880, Note_off_c, 1, 67, 0
2, 58880, Note_off_c, 1, 70, 0
2, 58880, Note_off_c, 1, 74, 0
2, 58880, Note_off_c, 1, 79, 0
2, 58920, Note_on_c, 1, 44, 127
2, 58920, Note_on_c, 1, 53, 127
2, 58920, Note_on_c, 1, 59, 127
2, 58920, Note_on_c, 1, 63, 127
2, 58920, Note_on_c, 1, 70, 127
2, 59080, Note_off_c, 1, 44, 0
2, 59080, Note_off_c, 1, 53, 0
2, 59080, Note_off_c, 1, 59, 0
2, 59080, Note_off_c, 1, 63, 0
2, 59080, Note_off_c, 1, 70, 0
2, 59120, Note_on_c, 1, 44, 127
2, 59120, Note_on_c, 1, 53, 127
2, 59120, Note_on_c, 1, 59, 127
2, 59120, Note_on_c, 1, 63, 127
2, 59120, Note_on_c, 1, 70, 127
2, 59280, Note_off_c, 1, 44, 0
2, 59280, Note_off_c, 1, 53, 0
2, 59280, Note_off_c, 1, 59, 0
2, 59280, Note_off_c, 1, 63, 0
2, 59280, Note_off_c, 1, 70, 0
2, 59320, Note_on_c, 1, 46, 127
2, 59320, Note_on_c, 1, 51, 127
2, 59320, Note_on_c, 1, 55, 127
2, 59320, Note_on_c, 1, 69, 127
2, 59400, Note_off_c, 1, 69, 0
2, 59440, Note_on_c, 1, 69, 127
2, 59480, Note_on_c, 1, 44, 127
2, 59480, Note_off_c, 1, 46, 0
2, 59480, Note_off_c, 1, 51, 0
2, 59480, Note_off_c, 1, 55, 0
2, 59480, Note_on_c, 1, 60, 127
2, 59480, Note_on_c, 1, 63, 127
2, 59480, Note_off_c, 1, 69, 0
2, 59480, Note_on_c, 1, 70, 127
2, 59520, Note_off_c, 1, 44, 0
2, 59520, Note_on_c, 1, 51, 127
2, 59520, Note_on_c, 1, 58, 127
2, 59520, Note_off_c, 1, 60, 0
2, 59520, Note_off_c, 1, 63, 0
2, 59520, Note_off_c, 1, 70, 0
2, 59520, Note_on_c, 1, 73, 127
2, 59520, Note_on_c, 1, 76, 127
2, 59560, Note_off_c, 1, 51, 0
2, 59560, Note_off_c, 1, 58, 0
2, 59560, Note_off_c, 1, 73, 0
2, 59560, Note_off_c, 1, 76, 0
2, 59600, Note_on_c, 1, 72, 127
2, 59600, Note_on_c, 1, 74, 127
2, 59600, Note_on_c, 1, 79, 127
2, 59600, Note_on_c, 1, 89, 127
2, 59600, Note_on_c, 1, 91, 127
2, 59600, Note_on_c, 1, 95, 127
2, 59640, Note_on_c, 1, 42, 127
2, 59640, Note_on_c, 1, 55, 127
2, 59640, Note_off_c, 1, 72, 0
2, 59640, Note_off_c, 1, 74, 0
2, 59640, Note_on_c, 1, 76, 127
2, 59640, Note_off_c, 1, 79, 0
2, 59640, Note_on_c, 1, 81, 127
2, 59640, Note_off_c, 1, 89, 0
2, 59640, Note_off_c, 1, 91, 0
2, 59640, Note_off_c, 1, 95, 0
2, 59680, Note_on_c, 1, 54, 127
2, 59680, Note_off_c, 1, 55, 0
2, 59680, Note_on_c, 1, 66, 127
2, 59680, Note_on_c, 1, 73, 127
2, 59680, Note_on_c, 1, 78, 127
2, 59680, Note_off_c, 1, 81, 0
2, 59720, Note_off_c, 1, 42, 0
2, 59720, Note_off_c, 1, 54, 0
2, 59720, Note_off_c, 1, 66, 0
2, 59720, Note_off_c, 1, 73, 0
2, 59720, Note_off_c, 1, 76, 0
2, 59720, Note_off_c, 1, 78, 0
2, 59760, Note_on_c, 1, 45, 127
2, 59760, Note_on_c, 1, 53, 127
2, 59760, Note_on_c, 1, 65, 127
2, 59760, Note_on_c, 1, 69, 127
2, 59760, Note_on_c, 1, 72, 127
2, 59760, Note_on_c, 1, 77, 127
2, 59760, Note_on_c, 1, 84, 127
2, 60120, Note_on_c, 1, 38, 127
2, 60120, Note_on_c, 1, 50, 127
2, 60120, Note_off_c, 1, 53, 0
2, 60120, Note_on_c, 1, 54, 127
2, 60120, Note_on_c, 1, 62, 127
2, 60120, Note_off_c, 1, 65, 0
2, 60120, Note_off_c, 1, 69, 0
2, 60120, Note_off_c, 1, 72, 0
2, 60120, Note_off_c, 1, 77, 0
2, 60120, Note_off_c, 1, 84, 0
2, 60160, Note_off_c, 1, 38, 0
2, 60160, Note_off_c, 1, 45, 0
2, 60160, Note_off_c, 1, 50, 0
2, 60160, Note_on_c, 1, 51, 127
2, 60160, Note_off_c, 1, 54, 0
2, 60160, Note_on_c, 1, 58, 127
2, 60160, Note_off_c, 1, 62, 0
2, 60160, Note_on_c, 1, 63, 127
2, 60160, Note_on_c, 1, 66, 127
2, 60160, Note_on_c, 1, 75, 127
2, 60160, Note_on_c, 1, 78, 127
2, 60520, Note_off_c, 1, 51, 0
2, 60520, Note_off_c, 1, 58, 0
2, 60520, Note_off_c, 1, 63, 0
2, 60520, Note_off_c, 1, 66, 0
2, 60520, Note_off_c, 1, 75, 0
2, 60520, Note_off_c, 1, 78, 0
2, 60560, Note_on_c, 1, 50, 127
2, 60560, Note_on_c, 1, 62, 127
2, 60560, Note_on_c, 1, 74, 127
2, 60560, Note_on_c, 1, 78, 127
2, 60560, Note_on_c, 1, 86, 127
2, 60920, Note_off_c, 1, 50, 0
2, 60920, Note_off_c, 1, 62, 0
2, 60920, Note_off_c, 1, 74, 0
2, 60920, Note_off_c, 1, 78, 0
2, 60920, Note_off_c, 1, 86, 0
2, 60960, Note_on_c, 1, 51, 127
2, 60960, Note_on_c, 1, 61, 127
2, 60960, Note_on_c, 1, 78, 127
2, 60960, Note_on_c, 1, 81, 127
2, 61080, Note_off_c, 1, 51, 0
2, 61080, Note_on_c, 1, 56, 127
2, 61080, Note_off_c, 1, 61, 0
2, 61080, Note_on_c, 1, 68, 127
2, 61080, Note_on_c, 1, 74, 127
2, 61080, Note_off_c, 1, 78, 0
2, 61080, Note_off_c, 1, 81, 0
2, 61080, Note_on_c, 1, 86, 127
2, 61120, Note_off_c, 1, 56, 0
2, 61120, Note_off_c, 1, 68, 0
2, 61120, Note_off_c, 1, 74, 0
2, 61120, Note_off_c, 1, 86, 0
2, 61160, Note_on_c, 1, 38, 127
2, 61160, Note_on_c, 1, 50, 127
2, 61160, Note_on_c, 1, 62, 127
2, 61160, Note_on_c, 1, 69, 127
2, 61160, Note_on_c, 1, 74, 127
2, 61200, Note_off_c, 1, 38, 0
2, 61200, Note_off_c, 1, 50, 0
2, 61200, Note_on_c, 1, 51, 127
2, 61200, Note_on_c, 1, 55, 127
2, 61200, Note_on_c, 1, 61, 127
2, 61200, Note_off_c, 1, 62, 0
2, 61200, Note_off_c, 1, 69, 0
2, 61200, Note_on_c, 1, 71, 127
2, 61200, Note_off_c, 1, 74, 0
2, 61240, Note_on_c, 1, 48, 127
2, 61240, Note_off_c, 1, 51, 0
2, 61240, Note_off_c, 1, 55, 0
2, 61240, Note_on_c, 1, 56, 127
2, 61240, Note_on_c, 1, 60, 127
2, 61240, Note_off_c, 1, 61, 0
2, 61240, Note_off_c, 1, 71, 0
2, 61240, Note_on_c, 1, 75, 127
2, 61240, Note_on_c, 1, 80, 127
2, 61240, Note_on_c, 1, 87, 127
2, 61280, Note_on_c, 1, 35, 127
2, 61280, Note_on_c, 1, 47, 127
2, 61280, Note_off_c, 1, 48, 0
2, 61280, Note_off_c, 1, 56, 0
2, 61280, Note_off_c, 1, 60, 0
2, 61280, Note_on_c, 1, 63, 127
2, 61280, Note_on_c, 1, 71, 127
2, 61280, Note_off_c, 1, 80, 0
2, 61280, Note_off_c, 1, 87, 0
2, 61320, Note_off_c, 1, 35, 0
2, 61320, Note_off_c, 1, 47, 0
2, 61320, Note_off_c, 1, 63, 0
2, 61320, Note_off_c, 1, 71, 0
2, 61320, Note_off_c, 1, 75, 0
2, 61360, Note_on_c, 1, 35, 127
2, 61360, Note_on_c, 1, 47, 127
2, 61360, Note_on_c, 1, 63, 127
2, 61360, Note_on_c, 1, 71, 127
2, 61360, Note_on_c, 1, 75, 127
2, 61520, Note_off_c, 1, 35, 0
2, 61520, Note_on_c, 1, 41, 127
2, 61520, Note_off_c, 1, 47, 0
2, 61520, Note_on_c, 1, 53, 127
2, 61520, Note_off_c, 1, 63, 0
2, 61520, Note_on_c, 1, 65, 127
2, 61520, Note_on_c, 1, 68, 127
2, 61520, Note_off_c, 1, 71, 0
2, 61520, Note_on_c, 1, 73, 127
2, 61520, Note_off_c, 1, 75, 0
2, 61520, Note_on_c, 1, 77, 127
2, 61560, Note_off_c, 1, 41, 0
2, 61560, Note_off_c, 1, 53, 0
2, 61560, Note_off_c, 1, 65, 0
2, 61560, Note_off_c, 1, 68, 0
2, 61560, Note_off_c, 1, 73, 0
2, 61560, Note_off_c, 1, 77, 0
2, 61600, Note_on_c, 1, 50, 127
2, 61600, Note_on_c, 1, 55, 127
2, 61600, Note_on_c, 1, 77, 127
2, 61600, Note_on_c, 1, 79, 127
2, 61600, Note_on_c, 1, 84, 127
2, 61640, Note_on_c, 1, 41, 127
2, 61640, Note_off_c, 1, 50, 0
2, 61640, Note_on_c, 1, 53, 127
2, 61640, Note_off_c, 1, 55, 0
2, 61640, Note_on_c, 1, 65, 127
2, 61640, Note_on_c, 1, 74, 127
2, 61640, Note_off_c, 1, 79, 0
2, 61640, Note_off_c, 1, 84, 0
2, 61680, Note_off_c, 1, 41, 0
2, 61680, Note_on_c, 1, 50, 127
2, 61680, Note_off_c, 1, 53, 0
2, 61680, Note_on_c, 1, 55, 127
2, 61680, Note_off_c, 1, 65, 0
2, 61680, Note_off_c, 1, 74, 0
2, 61680, Note_on_c, 1, 79, 127
2, 61680, Note_on_c, 1, 84, 127
2, 61760, Note_off_c, 1, 50, 0
2, 61760, Note_off_c, 1, 55, 0
2, 61760, Note_off_c, 1, 77, 0
2, 61760, Note_off_c, 1, 79, 0
2, 61760, Note_off_c, 1, 84, 0
2, 61800, Note_on_c, 1, 68, 127
2, 61800, Note_on_c, 1, 71, 127
2, 61800, Note_on_c, 1, 76, 127
2, 61800, Note_on_c, 1, 80, 127
2, 61800, Note_on_c, 1, 83, 127
2, 61800, Note_on_c, 1, 88, 127
2, 61840, Note_on_c, 1, 39, 127
2, 61840, Note_on_c, 1, 42, 127
2, 61840, Note_on_c, 1, 61, 127
2, 61840, Note_on_c, 1, 63, 127
2, 61840, Note_on_c, 1, 66, 127
2, 61840, Note_off_c, 1, 68, 0
2, 61840, Note_off_c, 1, 71, 0
2, 61840, Note_off_c, 1, 76, 0
2, 61840, Note_off_c, 1, 80, 0
2, 61840, Note_off_c, 1, 83, 0
2, 61840, Note_off_c, 1, 88, 0
2, 61880, Note_off_c, 1, 39, 0
2, 61880, Note_off_c, 1, 42, 0
2, 61880, Note_off_c, 1, 61, 0
2, 61880, Note_off_c, 1, 63, 0
2, 61880, Note_off_c, 1, 66, 0
2, 61880, Note_on_c, 1, 68, 127
2, 61880, Note_on_c, 1, 89, 127
2, 61880, Note_on_c, 1, 97, 127
2, 61920, Note_off_c, 1, 68, 0
2, 61920, Note_off_c, 1, 89, 0
2, 61920, Note_off_c, 1, 97, 0
2, 61960, Note_on_c, 1, 54, 127
2, 61960, Note_on_c, 1, 61, 127
2, 61960, Note_on_c, 1, 64, 127
2, 61960, Note_on_c, 1, 67, 127
2, 62000, Note_on_c, 1, 43, 127
2, 62000, Note_on_c, 1, 48, 127
2, 62000, Note_on_c, 1, 51, 127
2, 62000, Note_off_c, 1, 54, 0
2, 62000, Note_on_c, 1, 55, 127
2, 62000, Note_on_c, 1, 60, 127
2, 62000, Note_off_c, 1, 61, 0
2, 62000, Note_on_c, 1, 63, 127
2, 62000, Note_off_c, 1, 64, 0
2, 62000, Note_on_c, 1, 72, 127
2, 62160, Note_off_c, 1, 43, 0
2, 62160, Note_off_c, 1, 48, 0
2, 62160, Note_off_c, 1, 51, 0
2, 62160, Note_off_c, 1, 55, 0
2, 62160, Note_off_c, 1, 60, 0
2, 62160, Note_off_c, 1, 63, 0
2, 62160, Note_off_c, 1, 67, 0
2, 62160, Note_off_c, 1, 72, 0
2, 62200, Note_on_c, 1, 43, 127
2, 62200, Note_on_c, 1, 48, 127
2, 62200, Note_on_c, 1, 51, 127
2, 62200, Note_on_c, 1, 55, 127
2, 62200, Note_on_c, 1, 60, 127
2, 62200, Note_on_c, 1, 63, 127
2, 62200, Note_on_c, 1, 67, 127
2, 62200, Note_on_c, 1, 72, 127
2, 62360, Note_off_c, 1, 43, 0
2, 62360, Note_off_c, 1, 48, 0
2, 62360, Note_off_c, 1, 51, 0
2, 62360, Note_off_c, 1, 55, 0
2, 62360, Note_off_c, 1, 60, 0
2, 62360, Note_off_c, 1, 63, 0
2, 62360, Note_off_c, 1, 67, 0
2, 62360, Note_off_c, 1, 72, 0
2, 62400, Note_on_c, 1, 43, 127
2, 62400, Note_on_c, 1, 48, 127
2, 62400, Note_on_c, 1, 51, 127
2, 62400, Note_on_c, 1, 55, 127
2, 62400, Note_on_c, 1, 60, 127
2, 62400, Note_on_c, 1, 63, 127
2, 62400, Note_on_c, 1, 67, 127
2, 62400, Note_on_c, 1, 72, 127
2, 62560, Note_off_c, 1, 43, 0
2, 62560, Note_off_c, 1, 48, 0
2, 62560, Note_off_c, 1, 51, 0
2, 62560, Note_off_c, 1, 55, 0
2, 62560, Note_off_c, 1, 60, 0
2, 62560, Note_off_c, 1, 63, 0
2, 62560, Note_off_c, 1, 67, 0
2, 62560, Note_off_c, 1, 72, 0
2, 62600, Note_on_c, 1, 43, 127
2, 62600, Note_on_c, 1, 48, 127
2, 62600, Note_on_c, 1, 51, 127
2, 62600, Note_on_c, 1, 55, 127
2, 62600, Note_on_c, 1, 60, 127
2, 62600, Note_on_c, 1, 63, 127
2, 62600, Note_on_c, 1, 67, 127
2, 62600, Note_on_c, 1, 72, 127
2, 62960, Note_off_c, 1, 43, 0
2, 62960, Note_off_c, 1, 48, 0
2, 62960, Note_off_c, 1, 51, 0
2, 62960, Note_off_c, 1, 55, 0
2, 62960, Note_off_c, 1, 60, 0
2, 62960, Note_off_c, 1, 63, 0
2, 62960, Note_off_c, 1, 67, 0
2, 62960, Note_off_c, 1, 72, 0
2, 63000, Note_on_c, 1, 51, 127
2, 63000, Note_on_c, 1, 59, 127
2, 63000, Note_on_c, 1, 70, 127
2, 63000, Note_on_c, 1, 75, 127
2, 63000, Note_on_c, 1, 78, 127
2, 63160, Note_off_c, 1, 51, 0
2, 63160, Note_off_c, 1, 59, 0
2, 63160, Note_off_c, 1, 70, 0
2, 63160, Note_off_c, 1, 75, 0
2, 63160, Note_off_c, 1, 78, 0
2, 63200, Note_on_c, 1, 33, 127
2, 63200, Note_on_c, 1, 87, 127
2, 63200, Note_on_c, 1, 90, 127
2, 63240, Note_off_c, 1, 33, 0
2, 63240, Note_on_c, 1, 75, 127
2, 63240, Note_on_c, 1, 79, 127
2, 63240, Note_on_c, 1, 84, 127
2, 63240, Note_off_c, 1, 90, 0
2, 63240, Note_on_c, 1, 95, 127
2, 63280, Note_on_c, 1, 60, 127
2, 63280, Note_on_c, 1, 63, 127
2, 63280, Note_on_c, 1, 72, 127
2, 63280, Note_off_c, 1, 79, 0
2, 63280, Note_on_c, 1, 80, 127
2, 63280, Note_off_c, 1, 84, 0
2, 63280, Note_off_c, 1, 87, 0
2, 63280, Note_off_c, 1, 95, 0
2, 63320, Note_on_c, 1, 49, 127
2, 63320, Note_on_c, 1, 54, 127
2, 63320, Note_on_c, 1, 58, 127
2, 63320, Note_off_c, 1, 60, 0
2, 63320, Note_on_c, 1, 61, 127
2, 63320, Note_off_c, 1, 63, 0
2, 63320, Note_off_c, 1, 72, 0
2, 63320, Note_off_c, 1, 75, 0
2, 63320, Note_on_c, 1, 78, 127
2, 63320, Note_off_c, 1, 80, 0
2, 63320, Note_on_c, 1, 82, 127
2, 63360, Note_off_c, 1, 49, 0
2, 63360, Note_off_c, 1, 54, 0
2, 63360, Note_off_c, 1, 58, 0
2, 63360, Note_off_c, 1, 61, 0
2, 63360, Note_off_c, 1, 78, 0
2, 63360, Note_off_c, 1, 82, 0
2, 63400, Note_on_c, 1, 33, 127
2, 63400, Note_on_c, 1, 36, 127
2, 63400, Note_on_c, 1, 41, 127
2, 63400, Note_on_c, 1, 45, 127
2, 63400, Note_on_c, 1, 57, 127
2, 63440, Note_off_c, 1, 36, 0
2, 63440, Note_off_c, 1, 41, 0
2, 63440, Note_off_c, 1, 57, 0
2, 63440, Note_on_c, 1, 74, 127
2, 63440, Note_on_c, 1, 77, 127
2, 63440, Note_on_c, 1, 83, 127
2, 63480, Note_off_c, 1, 33, 0
2, 63480, Note_on_c, 1, 41, 127
2, 63480, Note_off_c, 1, 45, 0
2, 63480, Note_on_c, 1, 69, 127
2, 63480, Note_off_c, 1, 74, 0
2, 63480, Note_on_c, 1, 75, 127
2, 63480, Note_on_c, 1, 81, 127
2, 63480, Note_off_c, 1, 83, 0
2, 63520, Note_on_c, 1, 30, 127
2, 63520, Note_off_c, 1, 41, 0
2, 63520, Note_on_c, 1, 42, 127
2, 63520, Note_on_c, 1, 49, 127
2, 63520, Note_on_c, 1, 54, 127
2, 63520, Note_off_c, 1, 69, 0
2, 63520, Note_on_c, 1, 70, 127
2, 63520, Note_on_c, 1, 73, 127
2, 63520, Note_off_c, 1, 75, 0
2, 63520, Note_off_c, 1, 77, 0
2, 63520, Note_on_c, 1, 78, 127
2, 63520, Note_off_c, 1, 81, 0
2, 63520, Note_on_c, 1, 82, 127
2, 63560, Note_off_c, 1, 30, 0
2, 63560, Note_on_c, 1, 41, 127
2, 63560, Note_off_c, 1, 42, 0
2, 63560, Note_off_c, 1, 54, 0
2, 63560, Note_off_c, 1, 70, 0
2, 63560, Note_off_c, 1, 73, 0
2, 63560, Note_on_c, 1, 77, 127
2, 63560, Note_off_c, 1, 78, 0
2, 63560, Note_off_c, 1, 82, 0
2, 63600, Note_off_c, 1, 41, 0
2, 63600, Note_off_c, 1, 49, 0
2, 63600, Note_on_c, 1, 50, 127
2, 63600, Note_on_c, 1, 62, 127
2, 63600, Note_on_c, 1, 72, 127
2, 63600, Note_on_c, 1, 81, 127
2, 63600, Note_on_c, 1, 84, 127
2, 63640, Note_on_c, 1, 39, 127
2, 63640, Note_off_c, 1, 50, 0
2, 63640, Note_on_c, 1, 54, 127
2, 63640, Note_off_c, 1, 62, 0
2, 63640, Note_on_c, 1, 66, 127
2, 63640, Note_off_c, 1, 72, 0
2, 63640, Note_on_c, 1, 73, 127
2, 63640, Note_off_c, 1, 77, 0
2, 63640, Note_off_c, 1, 81, 0
2, 63640, Note_off_c, 1, 84, 0
2, 63680, Note_off_c, 1, 39, 0
2, 63680, Note_off_c, 1, 54, 0
2, 63680, Note_on_c, 1, 55, 127
2, 63680, Note_on_c, 1, 57, 127
2, 63680, Note_on_c, 1, 64, 127
2, 63680, Note_off_c, 1, 66, 0
2, 63680, Note_off_c, 1, 73, 0
2, 63680, Note_on_c, 1, 83, 127
2, 63720, Note_off_c, 1, 55, 0
2, 63720, Note_off_c, 1, 57, 0
2, 63720, Note_off_c, 1, 64, 0
2, 63720, Note_on_c, 1, 67, 127
2, 63720, Note_on_c, 1, 74, 127
2, 63720, Note_on_c, 1, 77, 127
2, 63720, Note_off_c, 1, 83, 0
2, 63720, Note_on_c, 1, 85, 127
2, 63760, Note_on_c, 1, 38, 127
2, 63760, Note_off_c, 1, 74, 0
2, 63760, Note_off_c, 1, 77, 0
2, 63760, Note_off_c, 1, 85, 0
2, 63760, Note_on_c, 1, 93, 127
2, 63800, Note_off_c, 1, 38, 0
2, 63800, Note_off_c, 1, 67, 0
2, 63800, Note_off_c, 1, 93, 0
2, 63880, Note_on_c, 1, 33, 127
2, 63880, Note_on_c, 1, 45, 127
2, 63880, Note_on_c, 1, 71, 127
2, 63880, Note_on_c, 1, 76, 127
2, 63880, Note_on_c, 1, 83, 127
2, 63920, Note_off_c, 1, 33, 0
2, 63920, Note_off_c, 1, 45, 0
2, 63920, Note_on_c, 1, 69, 127
2, 63920, Note_off_c, 1, 71, 0
2, 63920, Note_on_c, 1, 72, 127
2, 63920, Note_off_c, 1, 76, 0
2, 63920, Note_on_c, 1, 77, 127
2, 63920, Note_on_c, 1, 81, 127
2, 63920, Note_off_c, 1, 83, 0
2, 63920, Note_on_c, 1, 84, 127
2, 63920, Note_on_c, 1, 89, 127
2, 63920, Note_on_c, 1, 96, 127
2, 63960, Note_on_c, 1, 44, 127
2, 63960, Note_on_c, 1, 56, 127
2, 63960, Note_on_c, 1, 65, 127
2, 63960, Note_off_c, 1, 69, 0
2, 63960, Note_off_c, 1, 77, 0
2, 63960, Note_on_c, 1, 78, 127
2, 63960, Note_off_c, 1, 81, 0
2, 63960, Note_off_c, 1, 84, 0
2, 63960, Note_off_c, 1, 89, 0
2, 63960, Note_off_c, 1, 96, 0
2, 64000, Note_off_c, 1, 44, 0
2, 64000, Note_off_c, 1, 56, 0
2, 64000, Note_off_c, 1, 65, 0
2, 64000, Note_on_c, 1, 69, 127
2, 64000, Note_on_c, 1, 77, 127
2, 64000, Note_off_c, 1, 78, 0
2, 64000, Note_on_c, 1, 81, 127
2, 64000, Note_on_c, 1, 84, 127
2, 64000, Note_on_c, 1, 89, 127
2, 64000, Note_on_c, 1, 96, 127
2, 64040, Note_off_c, 1, 69, 0
2, 64040, Note_off_c, 1, 72, 0
2, 64040, Note_off_c, 1, 77, 0
2, 64040, Note_off_c, 1, 81, 0
2, 64040, Note_off_c, 1, 84, 0
2, 64040, Note_off_c, 1, 89, 0
2, 64040, Note_off_c, 1, 96, 0
2, 64080, Note_on_c, 1, 33, 127
2, 64080, Note_on_c, 1, 45, 127
2, 64080, Note_on_c, 1, 73, 127
2, 64080, Note_on_c, 1, 79, 127
2, 64080, Note_on_c, 1, 85, 127
2, 64200, Note_off_c, 1, 33, 0
2, 64200, Note_off_c, 1, 45, 0
2, 64240, Note_off_c, 1, 73, 0
2, 64240, Note_off_c, 1, 79, 0
2, 64240, Note_off_c, 1, 85, 0
2, 64280, Note_on_c, 1, 39, 127
2, 64280, Note_on_c, 1, 51, 127
2, 64280, Note_on_c, 1, 59, 127
2, 64280, Note_on_c, 1, 66, 127
2, 64280, Note_on_c, 1, 69, 127
2, 64280, Note_on_c, 1, 71, 127
2, 64400, Note_off_c, 1, 39, 0
2, 64400, Note_off_c, 1, 51, 0
2, 64400, Note_off_c, 1, 66, 0
2, 64400, Note_off_c, 1, 69, 0
2, 64400, Note_on_c, 1, 70, 127
2, 64400, Note_off_c, 1, 71, 0
2, 64400, Note_on_c, 1, 73, 127
2, 64400, Note_on_c, 1, 78, 127
2, 64440, Note_on_c, 1, 39, 127
2, 64440, Note_on_c, 1, 51, 127
2, 64440, Note_on_c, 1, 66, 127
2, 64440, Note_on_c, 1, 69, 127
2, 64440, Note_off_c, 1, 70, 0
2, 64440, Note_on_c, 1, 71, 127
2, 64440, Note_off_c, 1, 73, 0
2, 64440, Note_off_c, 1, 78, 0
2, 64640, Note_off_c, 1, 39, 0
2, 64640, Note_off_c, 1, 51, 0
2, 64640, Note_off_c, 1, 59, 0
2, 64640, Note_off_c, 1, 66, 0
2, 64640, Note_off_c, 1, 69, 0
2, 64640, Note_off_c, 1, 71, 0
2, 64680, Note_on_c, 1, 45, 127
2, 64680, Note_on_c, 1, 66, 127
2, 64680, Note_on_c, 1, 69, 127
2, 64680, Note_on_c, 1, 71, 127
2, 64680, Note_on_c, 1, 74, 127
2, 64840, Note_off_c, 1, 45, 0
2, 64840, Note_off_c, 1, 66, 0
2, 64840, Note_off_c, 1, 69, 0
2, 64840, Note_off_c, 1, 71, 0
2, 64840, Note_off_c, 1, 74, 0
2, 64880, Note_on_c, 1, 45, 127
2, 64880, Note_on_c, 1, 66, 127
2, 64880, Note_on_c, 1, 69, 127
2, 64880, Note_on_c, 1, 71, 127
2, 64880, Note_on_c, 1, 74, 127
2, 65040, Note_off_c, 1, 45, 0
2, 65040, Note_off_c, 1, 66, 0
2, 65040, Note_off_c, 1, 69, 0
2, 65040, Note_off_c, 1, 71, 0
2, 65040, Note_off_c, 1, 74, 0
2, 65080, Note_on_c, 1, 58, 127
2, 65080, Note_on_c, 1, 70, 127
2, 65080, Note_on_c, 1, 82, 127
2, 65080, Note_on_c, 1, 86, 127
2, 65080, Note_on_c, 1, 94, 127
2, 65120, Note_on_c, 1, 30, 127
2, 65120, Note_on_c, 1, 42, 127
2, 65120, Note_on_c, 1, 54, 127
2, 65120, Note_on_c, 1, 57, 127
2, 65120, Note_off_c, 1, 58, 0
2, 65120, Note_on_c, 1, 61, 127
2, 65120, Note_on_c, 1, 66, 127
2, 65120, Note_on_c, 1, 69, 127
2, 65120, Note_off_c, 1, 70, 0
2, 65120, Note_on_c, 1, 73, 127
2, 65120, Note_on_c, 1, 78, 127
2, 65120, Note_on_c, 1, 81, 127
2, 65120, Note_off_c, 1, 82, 0
2, 65120, Note_on_c, 1, 85, 127
2, 65120, Note_off_c, 1, 86, 0
2, 65120, Note_off_c, 1, 94, 0
2, 65160, Note_off_c, 1, 30, 0
2, 65160, Note_off_c, 1, 42, 0
2, 65160, Note_off_c, 1, 54, 0
2, 65160, Note_off_c, 1, 57, 0
2, 65160, Note_on_c, 1, 58, 127
2, 65160, Note_off_c, 1, 61, 0
2, 65160, Note_off_c, 1, 66, 0
2, 65160, Note_off_c, 1, 69, 0
2, 65160, Note_on_c, 1, 70, 127
2, 65160, Note_off_c, 1, 73, 0
2, 65160, Note_off_c, 1, 78, 0
2, 65160, Note_off_c, 1, 81, 0
2, 65160, Note_on_c, 1, 82, 127
2, 65160, Note_off_c, 1, 85, 0
2, 65160, Note_on_c, 1, 86, 127
2, 65160, Note_on_c, 1, 94, 127
2, 65240, Note_off_c, 1, 58, 0
2, 65240, Note_off_c, 1, 70, 0
2, 65240, Note_off_c, 1, 82, 0
2, 65240, Note_off_c, 1, 86, 0
2, 65240, Note_off_c, 1, 94, 0
2, 65280, Note_on_c, 1, 64, 127
2, 65280, Note_on_c, 1, 76, 127
2, 65280, Note_on_c, 1, 94, 127
2, 65640, Note_on_c, 1, 54, 127
2, 65640, Note_on_c, 1, 63, 127
2, 65640, Note_off_c, 1, 64, 0
2, 65640, Note_off_c, 1, 76, 0
2, 65640, Note_on_c, 1, 84, 127
2, 65640, Note_on_c, 1, 87, 127
2, 65640, Note_off_c, 1, 94, 0
2, 65680, Note_off_c, 1, 54, 0
2, 65680, Note_off_c, 1, 63, 0
2, 65680, Note_on_c, 1, 64, 127
2, 65680, Note_on_c, 1, 76, 127
2, 65680, Note_off_c, 1, 84, 0
2, 65680, Note_off_c, 1, 87, 0
2, 65680, Note_on_c, 1, 94, 127
2, 65840, Note_off_c, 1, 64, 0
2, 65840, Note_off_c, 1, 76, 0
2, 65840, Note_off_c, 1, 94, 0
2, 65880, Note_on_c, 1, 30, 127
2, 65880, Note_on_c, 1, 42, 127
2, 65880, Note_on_c, 1, 80, 127
2, 65880, Note_on_c, 1, 89, 127
2, 65880, Note_on_c, 1, 92, 127
2, 65920, Note_off_c, 1, 30, 0
2, 65920, Note_off_c, 1, 42, 0
2, 65960, Note_off_c, 1, 80, 0
2, 65960, Note_off_c, 1, 89, 0
2, 65960, Note_off_c, 1, 92, 0
2, 66000, Note_on_c, 1, 48, 127
2, 66000, Note_on_c, 1, 60, 127
2, 66000, Note_on_c, 1, 81, 127
2, 66000, Note_on_c, 1, 93, 127
2, 66040, Note_off_c, 1, 48, 0
2, 66040, Note_off_c, 1, 60, 0
2, 66040, Note_on_c, 1, 66, 127
2, 66040, Note_off_c, 1, 81, 0
2, 66040, Note_on_c, 1, 83, 127
2, 66040, Note_off_c, 1, 93, 0
2, 66040, Note_on_c, 1, 95, 127
2, 66080, Note_off_c, 1, 66, 0
2, 66080, Note_on_c, 1, 80, 127
2, 66080, Note_off_c, 1, 83, 0
2, 66080, Note_on_c, 1, 89, 127
2, 66080, Note_on_c, 1, 92, 127
2, 66080, Note_off_c, 1, 95, 0
2, 66280, Note_off_c, 1, 80, 0
2, 66280, Note_off_c, 1, 89, 0
2, 66280, Note_off_c, 1, 92, 0
2, 66320, Note_on_c, 1, 56, 127
2, 66320, Note_on_c, 1, 61, 127
2, 66320, Note_on_c, 1, 65, 127
2, 66320, Note_on_c, 1, 68, 127
2, 66320, Note_on_c, 1, 73, 127
2, 66320, Note_on_c, 1, 77, 127
2, 66480, Note_off_c, 1, 56, 0
2, 66480, Note_off_c, 1, 61, 0
2, 66480, Note_off_c, 1, 65, 0
2, 66480, Note_off_c, 1, 68, 0
2, 66480, Note_off_c, 1, 73, 0
2, 66480, Note_off_c, 1, 77, 0
2, 66520, Note_on_c, 1, 61, 127
2, 66520, Note_on_c, 1, 66, 127
2, 66520, Note_on_c, 1, 70, 127
2, 66520, Note_on_c, 1, 73, 127
2, 66520, Note_on_c, 1, 78, 127
2, 66720, Note_off_c, 1, 61, 0
2, 66720, Note_off_c, 1, 66, 0
2, 66720, Note_off_c, 1, 70, 0
2, 66720, Note_off_c, 1, 73, 0
2, 66720, Note_off_c, 1, 78, 0
2, 66760, Note_on_c, 1, 56, 127
2, 66760, Note_on_c, 1, 64, 127
2, 66760, Note_on_c, 1, 68, 127
2, 66760, Note_on_c, 1, 76, 127
2, 66920, Note_off_c, 1, 56, 0
2, 66920, Note_off_c, 1, 64, 0
2, 66920, Note_off_c, 1, 68, 0
2, 66920, Note_off_c, 1, 76, 0
2, 66960, Note_on_c, 1, 47, 127
2, 66960, Note_on_c, 1, 51, 127
2, 66960, Note_on_c, 1, 54, 127
2, 66960, Note_on_c, 1, 57, 127
2, 66960, Note_on_c, 1, 68, 127
2, 66960, Note_on_c, 1, 80, 127
2, 67000, Note_on_c, 1, 41, 127
2, 67000, Note_off_c, 1, 47, 0
2, 67000, Note_off_c, 1, 51, 0
2, 67000, Note_on_c, 1, 53, 127
2, 67000, Note_off_c, 1, 54, 0
2, 67000, Note_off_c, 1, 57, 0
2, 67000, Note_off_c, 1, 68, 0
2, 67000, Note_off_c, 1, 80, 0
2, 67000, Note_on_c, 1, 94, 127
2, 67000, Note_on_c, 1, 102, 127
2, 67000, Note_on_c, 1, 106, 127
2, 67040, Note_off_c, 1, 41, 0
2, 67040, Note_on_c, 1, 47, 127
2, 67040, Note_off_c, 1, 53, 0
2, 67040, Note_on_c, 1, 57, 127
2, 67040, Note_on_c, 1, 59, 127
2, 67040, Note_on_c, 1, 63, 127
2, 67040, Note_on_c, 1, 66, 127
2, 67040, Note_on_c, 1, 71, 127
2, 67040, Note_on_c, 1, 75, 127
2, 67040, Note_off_c, 1, 94, 0
2, 67040, Note_off_c, 1, 102, 0
2, 67040, Note_off_c, 1, 106, 0
2, 67080, Note_off_c, 1, 47, 0
2, 67080, Note_on_c, 1, 54, 127
2, 67080, Note_off_c, 1, 57, 0
2, 67080, Note_off_c, 1, 59, 0
2, 67080, Note_on_c, 1, 70, 127
2, 67080, Note_off_c, 1, 71, 0
2, 67080, Note_on_c, 1, 73, 127
2, 67080, Note_off_c, 1, 75, 0
2, 67080, Note_on_c, 1, 78, 127
2, 67080, Note_on_c, 1, 82, 127
2, 67120, Note_off_c, 1, 54, 0
2, 67120, Note_off_c, 1, 63, 0
2, 67120, Note_off_c, 1, 66, 0
2, 67120, Note_off_c, 1, 70, 0
2, 67120, Note_off_c, 1, 73, 0
2, 67120, Note_off_c, 1, 78, 0
2, 67120, Note_off_c, 1, 82, 0
2, 67160, Note_on_c, 1, 61, 127
2, 67160, Note_on_c, 1, 64, 127
2, 67160, Note_on_c, 1, 76, 127
2, 67160, Note_on_c, 1, 88, 127
2, 67320, Note_off_c, 1, 61, 0
2, 67320, Note_off_c, 1, 64, 0
2, 67320, Note_off_c, 1, 76, 0
2, 67320, Note_off_c, 1, 88, 0
2, 67360, Note_on_c, 1, 57, 127
2, 67360, Note_on_c, 1, 64, 127
2, 67360, Note_on_c, 1, 69, 127
2, 67360, Note_on_c, 1, 73, 127
2, 67360, Note_on_c, 1, 76, 127
2, 67360, Note_on_c, 1, 85, 127
2, 67560, Note_off_c, 1, 57, 0
2, 67560, Note_off_c, 1, 64, 0
2, 67560, Note_off_c, 1, 69, 0
2, 67560, Note_off_c, 1, 73, 0
2, 67560, Note_off_c, 1, 76, 0
2, 67560, Note_off_c, 1, 85, 0
2, 67600, Note_on_c, 1, 57, 127
2, 67600, Note_on_c, 1, 64, 127
2, 67600, Note_on_c, 1, 69, 127
2, 67600, Note_on_c, 1, 73, 127
2, 67600, Note_on_c, 1, 76, 127
2, 67600, Note_on_c, 1, 85, 127
2, 67760, Note_off_c, 1, 57, 0
2, 67760, Note_off_c, 1, 64, 0
2, 67760, Note_off_c, 1, 69, 0
2, 67760, Note_off_c, 1, 73, 0
2, 67760, Note_off_c, 1, 76, 0
2, 67760, Note_off_c, 1, 85, 0
2, 67800, Note_on_c, 1, 65, 127
2, 67800, Note_on_c, 1, 76, 127
2, 67800, Note_on_c, 1, 80, 127
2, 67800, Note_on_c, 1, 88, 127
2, 67960, Note_off_c, 1, 65, 0
2, 67960, Note_off_c, 1, 76, 0
2, 67960, Note_off_c, 1, 80, 0
2, 67960, Note_off_c, 1, 88, 0
2, 68040, Note_on_c, 1, 65, 127
2, 68040, Note_on_c, 1, 76, 127
2, 68040, Note_on_c, 1, 80, 127
2, 68040, Note_on_c, 1, 88, 127
2, 68200, Note_off_c, 1, 65, 0
2, 68200, Note_off_c, 1, 76, 0
2, 68200, Note_off_c, 1, 88, 0
2, 68240, Note_on_c, 1, 62, 127
2, 68240, Note_on_c, 1, 65, 127
2, 68240, Note_on_c, 1, 69, 127
2, 68240, Note_off_c, 1, 80, 0
2, 68240, Note_on_c, 1, 82, 127
2, 68400, Note_off_c, 1, 62, 0
2, 68400, Note_off_c, 1, 65, 0
2, 68400, Note_off_c, 1, 69, 0
2, 68400, Note_off_c, 1, 82, 0
2, 68440, Note_on_c, 1, 45, 127
2, 68440, Note_on_c, 1, 49, 127
2, 68440, Note_on_c, 1, 52, 127
2, 68440, Note_on_c, 1, 57, 127
2, 68440, Note_on_c, 1, 61, 127
2, 68440, Note_on_c, 1, 69, 127
2, 69040, Note_off_c, 1, 45, 0
2, 69040, Note_off_c, 1, 49, 0
2, 69040, Note_off_c, 1, 52, 0
2, 69040, Note_off_c, 1, 57, 0
2, 69040, Note_off_c, 1, 61, 0
2, 69040, Note_off_c, 1, 69, 0
2, 69080, Note_on_c, 1, 47, 127
2, 69080, Note_on_c, 1, 50, 127
2, 69080, Note_on_c, 1, 77, 127
2, 69080, Note_on_c, 1, 89, 127
2, 69240, Note_off_c, 1, 47, 0
2, 69240, Note_off_c, 1, 50, 0
2, 69240, Note_off_c, 1, 77, 0
2, 69240, Note_off_c, 1, 89, 0
2, 69280, Note_on_c, 1, 40, 127
2, 69280, Note_on_c, 1, 52, 127
2, 69280, Note_on_c, 1, 62, 127
2, 69280, Note_on_c, 1, 68, 127
2, 69280, Note_on_c, 1, 71, 127
2, 69880, Note_off_c, 1, 40, 0
2, 69880, Note_off_c, 1, 52, 0
2, 69880, Note_off_c, 1, 62, 0
2, 69880, Note_off_c, 1, 68, 0
2, 69880, Note_off_c, 1, 71, 0
2, 69920, Note_on_c, 1, 62, 127
2, 69920, Note_on_c, 1, 66, 127
2, 69920, Note_on_c, 1, 69, 127
2, 69920, Note_on_c, 1, 74, 127
2, 69920, Note_on_c, 1, 81, 127
2, 70080, Note_on_c, 1, 65, 127
2, 70080, Note_off_c, 1, 66, 0
2, 70080, Note_on_c, 1, 68, 127
2, 70080, Note_off_c, 1, 69, 0
2, 70080, Note_on_c, 1, 72, 127
2, 70080, Note_on_c, 1, 77, 127
2, 70080, Note_on_c, 1, 80, 127
2, 70080, Note_off_c, 1, 81, 0
2, 70080, Note_on_c, 1, 84, 127
2, 70120, Note_off_c, 1, 62, 0
2, 70120, Note_off_c, 1, 65, 0
2, 70120, Note_off_c, 1, 68, 0
2, 70120, Note_off_c, 1, 72, 0
2, 70120, Note_off_c, 1, 74, 0
2, 70120, Note_off_c, 1, 77, 0
2, 70120, Note_off_c, 1, 80, 0
2, 70120, Note_off_c, 1, 84, 0
2, 70160, Note_on_c, 1, 59, 127
2, 70160, Note_on_c, 1, 65, 127
2, 70160, Note_on_c, 1, 68, 127
2, 70160, Note_on_c, 1, 74, 127
2, 70160, Note_on_c, 1, 79, 127
2, 70200, Note_off_c, 1, 59, 0
2, 70200, Note_off_c, 1, 65, 0
2, 70200, Note_off_c, 1, 68, 0
2, 70200, Note_off_c, 1, 74, 0
2, 70200, Note_off_c, 1, 79, 0
2, 70240, Note_on_c, 1, 37, 127
2, 70240, Note_on_c, 1, 49, 127
2, 70240, Note_on_c, 1, 80, 127
2, 70240, Note_on_c, 1, 87, 127
2, 70280, Note_on_c, 1, 34, 127
2, 70280, Note_off_c, 1, 37, 0
2, 70280, Note_on_c, 1, 46, 127
2, 70280, Note_off_c, 1, 49, 0
2, 70280, Note_on_c, 1, 51, 127
2, 70280, Note_on_c, 1, 58, 127
2, 70280, Note_on_c, 1, 63, 127
2, 70280, Note_off_c, 1, 80, 0
2, 70280, Note_off_c, 1, 87, 0
2, 70320, Note_off_c, 1, 34, 0
2, 70320, Note_off_c, 1, 46, 0
2, 70320, Note_off_c, 1, 51, 0
2, 70320, Note_off_c, 1, 58, 0
2, 70320, Note_off_c, 1, 63, 0
2, 70360, Note_on_c, 1, 37, 127
2, 70360, Note_on_c, 1, 49, 127
2, 70360, Note_on_c, 1, 56, 127
2, 70360, Note_on_c, 1, 66, 127
2, 70400, Note_off_c, 1, 37, 0
2, 70400, Note_off_c, 1, 49, 0
2, 70400, Note_off_c, 1, 56, 0
2, 70400, Note_off_c, 1, 66, 0
2, 70400, Note_on_c, 1, 68, 127
2, 70440, Note_on_c, 1, 49, 127
2, 70440, Note_on_c, 1, 61, 127
2, 70440, Note_off_c, 1, 68, 0
2, 70440, Note_on_c, 1, 70, 127
2, 70440, Note_on_c, 1, 73, 127
2, 70440, Note_on_c, 1, 79, 127
2, 70440, Note_on_c, 1, 82, 127
2, 70480, Note_on_c, 1, 44, 127
2, 70480, Note_off_c, 1, 49, 0
2, 70480, Note_on_c, 1, 51, 127
2, 70480, Note_off_c, 1, 61, 0
2, 70480, Note_on_c, 1, 67, 127
2, 70480, Note_off_c, 1, 70, 0
2, 70480, Note_on_c, 1, 72, 127
2, 70480, Note_off_c, 1, 73, 0
2, 70480, Note_off_c, 1, 79, 0
2, 70480, Note_off_c, 1, 82, 0
2, 70520, Note_off_c, 1, 44, 0
2, 70520, Note_off_c, 1, 51, 0
2, 70520, Note_off_c, 1, 67, 0
2, 70520, Note_off_c, 1, 72, 0
2, 70520, Note_on_c, 1, 75, 127
2, 70520, Note_on_c, 1, 77, 127
2, 70520, Note_on_c, 1, 87, 127
2, 70560, Note_on_c, 1, 41, 127
2, 70560, Note_on_c, 1, 48, 127
2, 70560, Note_on_c, 1, 60, 127
2, 70560, Note_on_c, 1, 69, 127
2, 70560, Note_on_c, 1, 72, 127
2, 70560, Note_off_c, 1, 75, 0
2, 70560, Note_off_c, 1, 77, 0
2, 70560, Note_off_c, 1, 87, 0
2, 70600, Note_off_c, 1, 41, 0
2, 70600, Note_off_c, 1, 48, 0
2, 70600, Note_off_c, 1, 60, 0
2, 70600, Note_off_c, 1, 69, 0
2, 70600, Note_off_c, 1, 72, 0
2, 70640, Note_on_c, 1, 28, 127
2, 70640, Note_on_c, 1, 40, 127
2, 70640, Note_on_c, 1, 83, 127
2, 70640, Note_on_c, 1, 88, 127
2, 70640, Note_on_c, 1, 95, 127
2, 70680, Note_off_c, 1, 28, 0
2, 70680, Note_off_c, 1, 40, 0
2, 70680, Note_off_c, 1, 83, 0
2, 70680, Note_off_c, 1, 88, 0
2, 70680, Note_off_c, 1, 95, 0
2, 70760, Note_on_c, 1, 60, 127
2, 70760, Note_on_c, 1, 72, 127
2, 70760, Note_on_c, 1, 81, 127
2, 70760, Note_on_c, 1, 93, 127
2, 70800, Note_off_c, 1, 60, 0
2, 70800, Note_off_c, 1, 72, 0
2, 70800, Note_off_c, 1, 81, 0
2, 70800, Note_off_c, 1, 93, 0
2, 70840, Note_on_c, 1, 45, 127
2, 70840, Note_on_c, 1, 48, 127
2, 70840, Note_on_c, 1, 57, 127
2, 70840, Note_on_c, 1, 60, 127
2, 70840, Note_on_c, 1, 69, 127
2, 70840, Note_on_c, 1, 72, 127
2, 70880, Note_off_c, 1, 45, 0
2, 70880, Note_off_c, 1, 48, 0
2, 70880, Note_off_c, 1, 57, 0
2, 70880, Note_off_c, 1, 60, 0
2, 70880, Note_off_c, 1, 69, 0
2, 70880, Note_off_c, 1, 72, 0
2, 70960, Note_on_c, 1, 50, 127
2, 70960, Note_on_c, 1, 74, 127
2, 70960, Note_on_c, 1, 78, 127
2, 70960, Note_on_c, 1, 86, 127
2, 71000, Note_off_c, 1, 50, 0
2, 71000, Note_off_c, 1, 74, 0
2, 71000, Note_off_c, 1, 78, 0
2, 71000, Note_off_c, 1, 86, 0
2, 71080, Note_on_c, 1, 57, 127
2, 71080, Note_on_c, 1, 69, 127
2, 71120, Note_off_c, 1, 57, 0
2, 71120, Note_off_c, 1, 69, 0
2, 71200, Note_on_c, 1, 31, 127
2, 71200, Note_on_c, 1, 33, 127
2, 71200, Note_on_c, 1, 37, 127
2, 71200, Note_on_c, 1, 40, 127
2, 71200, Note_on_c, 1, 43, 127
2, 71200, Note_on_c, 1, 55, 127
2, 71240, Note_off_c, 1, 31, 0
2, 71240, Note_off_c, 1, 33, 0
2, 71240, Note_off_c, 1, 37, 0
2, 71240, Note_off_c, 1, 40, 0
2, 71240, Note_off_c, 1, 43, 0
2, 71240, Note_off_c, 1, 55, 0
2, 71280, Note_on_c, 1, 45, 127
2, 71280, Note_on_c, 1, 60, 127
2, 71320, Note_off_c, 1, 45, 0
2, 71320, Note_off_c, 1, 60, 0
2, 71360, Note_on_c, 1, 39, 127
2, 71360, Note_on_c, 1, 47, 127
2, 71400, Note_off_c, 1, 39, 0
2, 71400, Note_off_c, 1, 47, 0
2, 71400, Note_on_c, 1, 63, 127
2, 71400, Note_on_c, 1, 67, 127
2, 71400, Note_on_c, 1, 69, 127
2, 71400, Note_on_c, 1, 71, 127
2, 71400, Note_on_c, 1, 91, 127
2, 71440, Note_off_c, 1, 63, 0
2, 71440, Note_off_c, 1, 67, 0
2, 71440, Note_off_c, 1, 69, 0
2, 71440, Note_off_c, 1, 71, 0
2, 71440, Note_off_c, 1, 91, 0
2, 71480, Note_on_c, 1, 36, 127
2, 71480, Note_on_c, 1, 48, 127
2, 71520, Note_off_c, 1, 36, 0
2, 71520, Note_off_c, 1, 48, 0
2, 71600, Note_on_c, 1, 34, 127
2, 71600, Note_on_c, 1, 82, 127
2, 71600, Note_on_c, 1, 94, 127
2, 71640, Note_off_c, 1, 34, 0
2, 71640, Note_off_c, 1, 82, 0
2, 71640, Note_off_c, 1, 94, 0
2, 71680, Note_on_c, 1, 82, 127
2, 71680, Note_on_c, 1, 94, 127
2, 71720, Note_on_c, 1, 77, 127
2, 71720, Note_off_c, 1, 82, 0
2, 71720, Note_on_c, 1, 89, 127
2, 71720, Note_off_c, 1, 94, 0
2, 71760, Note_off_c, 1, 77, 0
2, 71760, Note_off_c, 1, 89, 0
2, 71800, Note_on_c, 1, 60, 127
2, 71800, Note_on_c, 1, 63, 127
2, 71800, Note_on_c, 1, 68, 127
2, 71800, Note_on_c, 1, 80, 127
2, 71800, Note_on_c, 1, 92, 127
2, 71840, Note_off_c, 1, 60, 0
2, 71840, Note_off_c, 1, 63, 0
2, 71840, Note_off_c, 1, 68, 0
2, 71840, Note_off_c, 1, 80, 0
2, 71840, Note_off_c, 1, 92, 0
2, 71920, Note_on_c, 1, 35, 127
2, 71920, Note_on_c, 1, 47, 127
2, 71920, Note_on_c, 1, 64, 127
2, 71920, Note_on_c, 1, 68, 127
2, 71920, Note_on_c, 1, 71, 127
2, 71920, Note_on_c, 1, 76, 127
2, 71960, Note_off_c, 1, 35, 0
2, 71960, Note_off_c, 1, 47, 0
2, 71960, Note_off_c, 1, 64, 0
2, 71960, Note_off_c, 1, 68, 0
2, 71960, Note_off_c, 1, 71, 0
2, 71960, Note_off_c, 1, 76, 0
2, 72040, Note_on_c, 1, 48, 127
2, 72040, Note_on_c, 1, 60, 127
2, 72040, Note_on_c, 1, 75, 127
2, 72040, Note_on_c, 1, 87, 127
2, 72080, Note_off_c, 1, 48, 0
2, 72080, Note_off_c, 1, 60, 0
2, 72080, Note_off_c, 1, 75, 0
2, 72080, Note_off_c, 1, 87, 0
2, 72120, Note_on_c, 1, 37, 127
2, 72120, Note_on_c, 1, 41, 127
2, 72120, Note_on_c, 1, 49, 127
2, 72160, Note_off_c, 1, 37, 0
2, 72160, Note_off_c, 1, 41, 0
2, 72160, Note_off_c, 1, 49, 0
2, 72240, Note_on_c, 1, 64, 127
2, 72240, Note_on_c, 1, 73, 127
2, 72240, Note_on_c, 1, 85, 127
2, 72240, Note_on_c, 1, 97, 127
2, 72280, Note_off_c, 1, 64, 0
2, 72280, Note_off_c, 1, 73, 0
2, 72280, Note_off_c, 1, 85, 0
2, 72280, Note_off_c, 1, 97, 0
2, 72400, Note_on_c, 1, 81, 127
2, 72400, Note_on_c, 1, 93, 127
2, 72440, Note_off_c, 1, 81, 0
2, 72440, Note_off_c, 1, 93, 0
2, 72480, Note_on_c, 1, 56, 127
2, 72480, Note_on_c, 1, 59, 127
2, 72480, Note_on_c, 1, 63, 127
2, 72480, Note_on_c, 1, 75, 127
2, 72480, Note_on_c, 1, 87, 127
2, 72520, Note_off_c, 1, 56, 0
2, 72520, Note_off_c, 1, 59, 0
2, 72520, Note_off_c, 1, 63, 0
2, 72520, Note_off_c, 1, 75, 0
2, 72520, Note_off_c, 1, 87, 0
2, 72600, Note_on_c, 1, 73, 127
2, 72600, Note_on_c, 1, 74, 127
2, 72600, Note_on_c, 1, 78, 127
2, 72600, Note_on_c, 1, 81, 127
2, 72640, Note_off_c, 1, 73, 0
2, 72640, Note_off_c, 1, 74, 0
2, 72640, Note_off_c, 1, 78, 0
2, 72640, Note_off_c, 1, 81, 0
2, 72720, Note_on_c, 1, 69, 127
2, 72720, Note_on_c, 1, 81, 127
2, 72760, Note_off_c, 1, 69, 0
2, 72760, Note_off_c, 1, 81, 0
2, 72840, Note_on_c, 1, 69, 127
2, 72840, Note_on_c, 1, 76, 127
2, 72840, Note_on_c, 1, 81, 127
2, 72840, Note_on_c, 1, 85, 127
2, 72840, Note_on_c, 1, 91, 127
2, 72880, Note_off_c, 1, 69, 0
2, 72880, Note_off_c, 1, 76, 0
2, 72880, Note_off_c, 1, 81, 0
2, 72880, Note_off_c, 1, 85, 0
2, 72880, Note_off_c, 1, 91, 0
2, 72920, Note_on_c, 1, 73, 127
2, 72920, Note_on_c, 1, 85, 127
2, 72960, Note_off_c, 1, 73, 0
2, 72960, Note_off_c, 1, 85, 0
2, 73040, Note_on_c, 1, 45, 127
2, 73040, Note_on_c, 1, 57, 127
2, 73040, Note_on_c, 1, 69, 127
2, 73040, Note_on_c, 1, 72, 127
2, 73040, Note_on_c, 1, 81, 127
2, 73080, Note_off_c, 1, 45, 0
2, 73080, Note_off_c, 1, 57, 0
2, 73080, Note_off_c, 1, 69, 0
2, 73080, Note_off_c, 1, 72, 0
2, 73080, Note_off_c, 1, 81, 0
2, 73120, Note_on_c, 1, 65, 127
2, 73120, Note_on_c, 1, 77, 127
2, 73160, Note_off_c, 1, 65, 0
2, 73160, Note_off_c, 1, 77, 0
2, 73240, Note_on_c, 1, 38, 127
2, 73240, Note_on_c, 1, 46, 127
2, 73240, Note_on_c, 1, 60, 127
2, 73240, Note_on_c, 1, 64, 127
2, 73240, Note_on_c, 1, 72, 127
2, 73280, Note_off_c, 1, 38, 0
2, 73280, Note_off_c, 1, 46, 0
2, 73280, Note_off_c, 1, 60, 0
2, 73280, Note_off_c, 1, 64, 0
2, 73280, Note_off_c, 1, 72, 0
2, 73360, Note_on_c, 1, 42, 127
2, 73360, Note_on_c, 1, 71, 127
2, 73360, Note_on_c, 1, 78, 127
2, 73360, Note_on_c, 1, 83, 127
2, 73400, Note_off_c, 1, 42, 0
2, 73400, Note_off_c, 1, 71, 0
2, 73400, Note_off_c, 1, 78, 0
2, 73400, Note_off_c, 1, 83, 0
2, 73480, Note_on_c, 1, 65, 127
2, 73480, Note_on_c, 1, 77, 127
2, 73480, Note_on_c, 1, 88, 127
2, 73480, Note_on_c, 1, 100, 127
2, 73520, Note_off_c, 1, 65, 0
2, 73520, Note_off_c, 1, 77, 0
2, 73520, Note_off_c, 1, 88, 0
2, 73520, Note_off_c, 1, 100, 0
2, 73600, Note_on_c, 1, 40, 127
2, 73600, Note_on_c, 1, 76, 127
2, 73600, Note_on_c, 1, 80, 127
2, 73600, Note_on_c, 1, 88, 127
2, 73640, Note_off_c, 1, 40, 0
2, 73640, Note_off_c, 1, 76, 0
2, 73640, Note_off_c, 1, 80, 0
2, 73640, Note_off_c, 1, 88, 0
2, 73720, Note_on_c, 1, 56, 127
2, 73720, Note_on_c, 1, 73, 127
2, 73720, Note_on_c, 1, 89, 127
2, 73760, Note_off_c, 1, 56, 0
2, 73760, Note_off_c, 1, 73, 0
2, 73760, Note_off_c, 1, 89, 0
2, 73880, Note_on_c, 1, 42, 127
2, 73880, Note_on_c, 1, 54, 127
2, 73880, Note_on_c, 1, 68, 127
2, 73880, Note_on_c, 1, 71, 127
2, 73880, Note_on_c, 1, 76, 127
2, 73880, Note_on_c, 1, 80, 127
2, 73920, Note_on_c, 1, 41, 127
2, 73920, Note_off_c, 1, 42, 0
2, 73920, Note_on_c, 1, 48, 127
2, 73920, Note_on_c, 1, 53, 127
2, 73920, Note_off_c, 1, 54, 0
2, 73920, Note_on_c, 1, 60, 127
2, 73920, Note_on_c, 1, 63, 127
2, 73920, Note_off_c, 1, 68, 0
2, 73920, Note_off_c, 1, 71, 0
2, 73920, Note_on_c, 1, 75, 127
2, 73920, Note_off_c, 1, 76, 0
2, 73920, Note_off_c, 1, 80, 0
2, 73920, Note_on_c, 1, 81, 127
2, 73920, Note_on_c, 1, 87, 127
2, 73960, Note_off_c, 1, 41, 0
2, 73960, Note_off_c, 1, 48, 0
2, 73960, Note_off_c, 1, 53, 0
2, 73960, Note_off_c, 1, 60, 0
2, 73960, Note_off_c, 1, 63, 0
2, 73960, Note_off_c, 1, 75, 0
2, 73960, Note_off_c, 1, 81, 0
2, 73960, Note_off_c, 1, 87, 0
2, 74080, Note_on_c, 1, 43, 127
2, 74080, Note_on_c, 1, 55, 127
2, 74080, Note_on_c, 1, 64, 127
2, 74080, Note_on_c, 1, 67, 127
2, 74080, Note_on_c, 1, 70, 127
2, 74080, Note_on_c, 1, 76, 127
2, 74120, Note_off_c, 1, 43, 0
2, 74120, Note_off_c, 1, 55, 0
2, 74120, Note_off_c, 1, 64, 0
2, 74120, Note_off_c, 1, 67, 0
2, 74120, Note_off_c, 1, 70, 0
2, 74120, Note_off_c, 1, 76, 0
2, 74200, Note_on_c, 1, 66, 127
2, 74200, Note_on_c, 1, 70, 127
2, 74200, Note_on_c, 1, 74, 127
2, 74200, Note_on_c, 1, 78, 127
2, 74200, Note_on_c, 1, 82, 127
2, 74200, Note_on_c, 1, 86, 127
2, 74240, Note_off_c, 1, 66, 0
2, 74240, Note_off_c, 1, 70, 0
2, 74240, Note_off_c, 1, 74, 0
2, 74240, Note_off_c, 1, 78, 0
2, 74240, Note_off_c, 1, 82, 0
2, 74240, Note_off_c, 1, 86, 0
2, 74320, Note_on_c, 1, 44, 127
2, 74320, Note_on_c, 1, 90, 127
2, 74320, Note_on_c, 1, 93, 127
2, 74360, Note_off_c, 1, 44, 0
2, 74360, Note_off_c, 1, 90, 0
2, 74360, Note_off_c, 1, 93, 0
2, 74440, Note_on_c, 1, 61, 127
2, 74440, Note_on_c, 1, 67, 127
2, 74440, Note_on_c, 1, 69, 127
2, 74440, Note_on_c, 1, 73, 127
2, 74440, Note_on_c, 1, 78, 127
2, 74440, Note_on_c, 1, 81, 127
2, 74480, Note_on_c, 1, 30, 127
2, 74480, Note_on_c, 1, 42, 127
2, 74480, Note_off_c, 1, 61, 0
2, 74480, Note_off_c, 1, 67, 0
2, 74480, Note_off_c, 1, 69, 0
2, 74480, Note_off_c, 1, 73, 0
2, 74480, Note_off_c, 1, 78, 0
2, 74480, Note_off_c, 1, 81, 0
2, 74560, Note_off_c, 1, 30, 0
2, 74560, Note_off_c, 1, 42, 0
2, 74560, Note_on_c, 1, 45, 127
2, 74560, Note_on_c, 1, 49, 127
2, 74560, Note_on_c, 1, 52, 127
2, 74560, Note_on_c, 1, 57, 127
2, 74560, Note_on_c, 1, 74, 127
2, 74600, Note_on_c, 1, 43, 127
2, 74600, Note_off_c, 1, 45, 0
2, 74600, Note_off_c, 1, 49, 0
2, 74600, Note_on_c, 1, 50, 127
2, 74600, Note_off_c, 1, 52, 0
2, 74600, Note_on_c, 1, 55, 127
2, 74600, Note_off_c, 1, 57, 0
2, 74600, Note_on_c, 1, 59, 127
2, 74600, Note_off_c, 1, 74, 0
2, 74600, Note_on_c, 1, 95, 127
2, 74640, Note_off_c, 1, 43, 0
2, 74640, Note_off_c, 1, 50, 0
2, 74640, Note_off_c, 1, 55, 0
2, 74640, Note_off_c, 1, 59, 0
2, 74640, Note_off_c, 1, 95, 0
2, 74720, Note_on_c, 1, 55, 127
2, 74720, Note_on_c, 1, 58, 127
2, 74720, Note_on_c, 1, 62, 127
2, 74720, Note_on_c, 1, 67, 127
2, 74720, Note_on_c, 1, 70, 127
2, 74760, Note_off_c, 1, 55, 0
2, 74760, Note_off_c, 1, 58, 0
2, 74760, Note_off_c, 1, 62, 0
2, 74760, Note_off_c, 1, 67, 0
2, 74760, Note_off_c, 1, 70, 0
2, 74800, Note_on_c, 1, 64, 127
2, 74800, Note_on_c, 1, 86, 127
2, 74800, Note_on_c, 1, 87, 127
2, 74800, Note_on_c, 1, 89, 127
2, 74800, Note_on_c, 1, 90, 127
2, 74840, Note_on_c, 1, 51, 127
2, 74840, Note_on_c, 1, 55, 127
2, 74840, Note_on_c, 1, 60, 127
2, 74840, Note_off_c, 1, 64, 0
2, 74840, Note_on_c, 1, 74, 127
2, 74840, Note_on_c, 1, 75, 127
2, 74840, Note_off_c, 1, 86, 0
2, 74840, Note_off_c, 1, 87, 0
2, 74840, Note_off_c, 1, 89, 0
2, 74840, Note_off_c, 1, 90, 0
2, 74880, Note_off_c, 1, 51, 0
2, 74880, Note_off_c, 1, 55, 0
2, 74880, Note_on_c, 1, 57, 127
2, 74880, Note_off_c, 1, 60, 0
2, 74880, Note_on_c, 1, 69, 127
2, 74880, Note_off_c, 1, 74, 0
2, 74880, Note_off_c, 1, 75, 0
2, 74880, Note_on_c, 1, 90, 127
2, 74880, Note_on_c, 1, 93, 127
2, 74920, Note_on_c, 1, 28, 127
2, 74920, Note_on_c, 1, 39, 127
2, 74920, Note_on_c, 1, 40, 127
2, 74920, Note_on_c, 1, 47, 127
2, 74920, Note_on_c, 1, 51, 127
2, 74920, Note_on_c, 1, 52, 127
2, 74920, Note_off_c, 1, 57, 0
2, 74920, Note_on_c, 1, 59, 127
2, 74920, Note_on_c, 1, 68, 127
2, 74920, Note_off_c, 1, 69, 0
2, 74920, Note_on_c, 1, 71, 127
2, 74920, Note_off_c, 1, 90, 0
2, 74920, Note_off_c, 1, 93, 0
2, 74960, Note_off_c, 1, 28, 0
2, 74960, Note_off_c, 1, 39, 0
2, 74960, Note_off_c, 1, 40, 0
2, 74960, Note_off_c, 1, 47, 0
2, 74960, Note_on_c, 1, 48, 127
2, 74960, Note_off_c, 1, 51, 0
2, 74960, Note_off_c, 1, 52, 0
2, 74960, Note_off_c, 1, 59, 0
2, 74960, Note_off_c, 1, 68, 0
2, 74960, Note_off_c, 1, 71, 0
2, 74960, Note_on_c, 1, 103, 127
2, 75000, Note_off_c, 1, 48, 0
2, 75000, Note_on_c, 1, 64, 127
2, 75000, Note_on_c, 1, 67, 127
2, 75000, Note_on_c, 1, 73, 127
2, 75000, Note_on_c, 1, 82, 127
2, 75000, Note_on_c, 1, 85, 127
2, 75000, Note_on_c, 1, 94, 127
2, 75000, Note_off_c, 1, 103, 0
2, 75040, Note_on_c, 1, 44, 127
2, 75040, Note_on_c, 1, 47, 127
2, 75040, Note_on_c, 1, 56, 127
2, 75040, Note_off_c, 1, 64, 0
2, 75040, Note_off_c, 1, 67, 0
2, 75040, Note_on_c, 1, 68, 127
2, 75040, Note_off_c, 1, 73, 0
2, 75040, Note_on_c, 1, 80, 127
2, 75040, Note_off_c, 1, 82, 0
2, 75040, Note_off_c, 1, 85, 0
2, 75040, Note_off_c, 1, 94, 0
2, 75080, Note_off_c, 1, 44, 0
2, 75080, Note_off_c, 1, 47, 0
2, 75080, Note_off_c, 1, 56, 0
2, 75080, Note_off_c, 1, 68, 0
2, 75080, Note_on_c, 1, 73, 127
2, 75080, Note_on_c, 1, 85, 127
2, 75080, Note_on_c, 1, 89, 127
2, 75080, Note_on_c, 1, 97, 127
2, 75080, Note_on_c, 1, 102, 127
2, 75120, Note_on_c, 1, 44, 127
2, 75120, Note_on_c, 1, 56, 127
2, 75120, Note_on_c, 1, 59, 127
2, 75120, Note_on_c, 1, 64, 127
2, 75120, Note_on_c, 1, 68, 127
2, 75120, Note_on_c, 1, 71, 127
2, 75120, Note_off_c, 1, 73, 0
2, 75120, Note_on_c, 1, 76, 127
2, 75120, Note_off_c, 1, 85, 0
2, 75120, Note_off_c, 1, 89, 0
2, 75120, Note_off_c, 1, 97, 0
2, 75120, Note_off_c, 1, 102, 0
2, 75160, Note_on_c, 1, 40, 127
2, 75160, Note_off_c, 1, 44, 0
2, 75160, Note_off_c, 1, 56, 0
2, 75160, Note_off_c, 1, 59, 0
2, 75160, Note_on_c, 1, 60, 127
2, 75160, Note_off_c, 1, 64, 0
2, 75160, Note_off_c, 1, 71, 0
2, 75160, Note_off_c, 1, 76, 0
2, 75160, Note_off_c, 1, 80, 0
2, 75200, Note_on_c, 1, 32, 127
2, 75200, Note_on_c, 1, 39, 127
2, 75200, Note_off_c, 1, 40, 0
2, 75200, Note_off_c, 1, 60, 0
2, 75240, Note_off_c, 1, 32, 0
2, 75240, Note_off_c, 1, 39, 0
2, 75240, Note_on_c, 1, 57, 127
2, 75240, Note_on_c, 1, 59, 127
2, 75240, Note_on_c, 1, 62, 127
2, 75240, Note_on_c, 1, 77, 127
2, 75240, Note_on_c, 1, 89, 127
2, 75280, Note_on_c, 1, 40, 127
2, 75280, Note_on_c, 1, 52, 127
2, 75280, Note_off_c, 1, 57, 0
2, 75280, Note_off_c, 1, 59, 0
2, 75280, Note_on_c, 1, 64, 127
2, 75280, Note_on_c, 1, 74, 127
2, 75280, Note_off_c, 1, 77, 0
2, 75280, Note_off_c, 1, 89, 0
2, 75320, Note_on_c, 1, 32, 127
2, 75320, Note_off_c, 1, 40, 0
2, 75320, Note_on_c, 1, 51, 127
2, 75320, Note_off_c, 1, 52, 0
2, 75320, Note_on_c, 1, 56, 127
2, 75320, Note_off_c, 1, 62, 0
2, 75320, Note_off_c, 1, 64, 0
2, 75320, Note_off_c, 1, 68, 0
2, 75320, Note_off_c, 1, 74, 0
2, 75360, Note_off_c, 1, 32, 0
2, 75360, Note_off_c, 1, 51, 0
2, 75360, Note_on_c, 1, 60, 127
2, 75360, Note_on_c, 1, 74, 127
2, 75360, Note_on_c, 1, 86, 127
2, 75400, Note_on_c, 1, 48, 127
2, 75400, Note_on_c, 1, 55, 127
2, 75400, Note_off_c, 1, 56, 0
2, 75400, Note_on_c, 1, 58, 127
2, 75400, Note_off_c, 1, 60, 0
2, 75400, Note_off_c, 1, 74, 0
2, 75400, Note_off_c, 1, 86, 0
2, 75400, Note_on_c, 1, 100, 127
2, 75440, Note_off_c, 1, 48, 0
2, 75440, Note_off_c, 1, 55, 0
2, 75440, Note_off_c, 1, 58, 0
2, 75440, Note_off_c, 1, 100, 0
2, 75480, Note_on_c, 1, 61, 127
2, 75480, Note_on_c, 1, 88, 127
2, 75520, Note_on_c, 1, 47, 127
2, 75520, Note_off_c, 1, 61, 0
2, 75520, Note_on_c, 1, 63, 127
2, 75520, Note_on_c, 1, 72, 127
2, 75520, Note_off_c, 1, 88, 0
2, 75560, Note_on_c, 1, 37, 127
2, 75560, Note_off_c, 1, 47, 0
2, 75560, Note_on_c, 1, 49, 127
2, 75560, Note_off_c, 1, 63, 0
2, 75560, Note_off_c, 1, 72, 0
2, 75560, Note_on_c, 1, 92, 127
2, 75560, Note_on_c, 1, 93, 127
2, 75600, Note_on_c, 1, 32, 127
2, 75600, Note_on_c, 1, 41, 127
2, 75600, Note_on_c, 1, 44, 127
2, 75600, Note_on_c, 1, 53, 127
2, 75600, Note_on_c, 1, 61, 127
2, 75600, Note_on_c, 1, 72, 127
2, 75600, Note_on_c, 1, 80, 127
2, 75600, Note_on_c, 1, 84, 127
2, 75600, Note_off_c, 1, 92, 0
2, 75600, Note_off_c, 1, 93, 0
2, 75640, Note_off_c, 1, 32, 0
2, 75640, Note_off_c, 1, 37, 0
2, 75640, Note_off_c, 1, 41, 0
2, 75640, Note_on_c, 1, 43, 127
2, 75640, Note_off_c, 1, 44, 0
2, 75640, Note_off_c, 1, 49, 0
2, 75640, Note_on_c, 1, 50, 127
2, 75640, Note_off_c, 1, 53, 0
2, 75640, Note_off_c, 1, 61, 0
2, 75640, Note_on_c, 1, 71, 127
2, 75640, Note_off_c, 1, 72, 0
2, 75640, Note_on_c, 1, 77, 127
2, 75640, Note_off_c, 1, 80, 0
2, 75640, Note_on_c, 1, 81, 127
2, 75640, Note_off_c, 1, 84, 0
2, 75680, Note_off_c, 1, 43, 0
2, 75680, Note_on_c, 1, 44, 127
2, 75680, Note_on_c, 1, 49, 127
2, 75680, Note_off_c, 1, 50, 0
2, 75680, Note_on_c, 1, 52, 127
2, 75680, Note_off_c, 1, 71, 0
2, 75680, Note_off_c, 1, 77, 0
2, 75680, Note_off_c, 1, 81, 0
2, 75720, Note_off_c, 1, 44, 0
2, 75720, Note_off_c, 1, 49, 0
2, 75720, Note_on_c, 1, 55, 127
2, 75720, Note_on_c, 1, 57, 127
2, 75720, Note_on_c, 1, 61, 127
2, 75720, Note_on_c, 1, 85, 127
2, 75720, Note_on_c, 1, 88, 127
2, 75760, Note_on_c, 1, 47, 127
2, 75760, Note_on_c, 1, 50, 127
2, 75760, Note_off_c, 1, 55, 0
2, 75760, Note_on_c, 1, 56, 127
2, 75760, Note_off_c, 1, 57, 0
2, 75760, Note_off_c, 1, 61, 0
2, 75760, Note_on_c, 1, 78, 127
2, 75760, Note_off_c, 1, 85, 0
2, 75760, Note_off_c, 1, 88, 0
2, 75800, Note_on_c, 1, 31, 127
2, 75800, Note_on_c, 1, 35, 127
2, 75800, Note_on_c, 1, 40, 127
2, 75800, Note_off_c, 1, 47, 0
2, 75800, Note_off_c, 1, 50, 0
2, 75800, Note_off_c, 1, 56, 0
2, 75800, Note_off_c, 1, 78, 0
2, 75840, Note_off_c, 1, 31, 0
2, 75840, Note_off_c, 1, 35, 0
2, 75840, Note_off_c, 1, 40, 0
2, 75840, Note_on_c, 1, 50, 127
2, 75840, Note_off_c, 1, 52, 0
2, 75840, Note_on_c, 1, 61, 127
2, 75840, Note_on_c, 1, 64, 127
2, 75840, Note_on_c, 1, 66, 127
2, 75840, Note_on_c, 1, 68, 127
2, 75840, Note_on_c, 1, 78, 127
2, 75880, Note_off_c, 1, 50, 0
2, 75880, Note_on_c, 1, 54, 127
2, 75880, Note_off_c, 1, 68, 0
2, 75880, Note_off_c, 1, 78, 0
2, 75880, Note_on_c, 1, 82, 127
2, 75920, Note_on_c, 1, 51, 127
2, 75920, Note_off_c, 1, 54, 0
2, 75920, Note_off_c, 1, 61, 0
2, 75920, Note_on_c, 1, 63, 127
2, 75920, Note_off_c, 1, 64, 0
2, 75920, Note_off_c, 1, 66, 0
2, 75920, Note_on_c, 1, 67, 127
2, 75920, Note_on_c, 1, 79, 127
2, 75960, Note_off_c, 1, 51, 0
2, 75960, Note_on_c, 1, 66, 127
2, 75960, Note_off_c, 1, 67, 0
2, 75960, Note_on_c, 1, 70, 127
2, 75960, Note_on_c, 1, 78, 127
2, 75960, Note_off_c, 1, 79, 0
2, 75960, Note_off_c, 1, 82, 0
2, 75960, Note_on_c, 1, 90, 127
2, 76000, Note_on_c, 1, 40, 127
2, 76000, Note_on_c, 1, 48, 127
2, 76000, Note_on_c, 1, 58, 127
2, 76000, Note_off_c, 1, 63, 0
2, 76000, Note_off_c, 1, 66, 0
2, 76000, Note_on_c, 1, 67, 127
2, 76000, Note_off_c, 1, 78, 0
2, 76000, Note_off_c, 1, 90, 0
2, 76040, Note_off_c, 1, 40, 0
2, 76040, Note_off_c, 1, 48, 0
2, 76040, Note_off_c, 1, 58, 0
2, 76040, Note_on_c, 1, 64, 127
2, 76040, Note_off_c, 1, 67, 0
2, 76040, Note_off_c, 1, 70, 0
2, 76080, Note_on_c, 1, 57, 127
2, 76080, Note_on_c, 1, 61, 127
2, 76080, Note_on_c, 1, 68, 127
2, 76120, Note_off_c, 1, 57, 0
2, 76120, Note_off_c, 1, 61, 0
2, 76120, Note_off_c, 1, 64, 0
2, 76120, Note_off_c, 1, 68, 0
2, 76200, Note_on_c, 1, 63, 127
2, 76200, Note_on_c, 1, 66, 127
2, 76200, Note_on_c, 1, 76, 127
2, 76200, Note_on_c, 1, 84, 127
2, 76200, Note_on_c, 1, 88, 127
2, 76240, Note_on_c, 1, 60, 127
2, 76240, Note_off_c, 1, 63, 0
2, 76240, Note_on_c, 1, 64, 127
2, 76240, Note_off_c, 1, 66, 0
2, 76240, Note_off_c, 1, 76, 0
2, 76240, Note_on_c, 1, 79, 127
2, 76240, Note_off_c, 1, 84, 0
2, 76240, Note_off_c, 1, 88, 0
2, 76240, Note_on_c, 1, 89, 127
2, 76280, Note_off_c, 1, 60, 0
2, 76280, Note_off_c, 1, 64, 0
2, 76280, Note_on_c, 1, 75, 127
2, 76280, Note_on_c, 1, 85, 127
2, 76280, Note_off_c, 1, 89, 0
2, 76320, Note_off_c, 1, 75, 0
2, 76320, Note_off_c, 1, 79, 0
2, 76320, Note_on_c, 1, 81, 127
2, 76320, Note_on_c, 1, 84, 127
2, 76320, Note_off_c, 1, 85, 0
2, 76320, Note_on_c, 1, 86, 127
2, 76320, Note_on_c, 1, 93, 127
2, 76360, Note_on_c, 1, 57, 127
2, 76360, Note_on_c, 1, 59, 127
2, 76360, Note_on_c, 1, 71, 127
2, 76360, Note_on_c, 1, 75, 127
2, 76360, Note_on_c, 1, 83, 127
2, 76360, Note_off_c, 1, 84, 0
2, 76360, Note_off_c, 1, 86, 0
2, 76360, Note_off_c, 1, 93, 0
2, 76400, Note_off_c, 1, 57, 0
2, 76400, Note_off_c, 1, 59, 0
2, 76400, Note_off_c, 1, 71, 0
2, 76400, Note_off_c, 1, 75, 0
2, 76400, Note_off_c, 1, 81, 0
2, 76400, Note_off_c, 1, 83, 0
2, 76440, Note_on_c, 1, 72, 127
2, 76440, Note_on_c, 1, 84, 127
2, 76440, Note_on_c, 1, 89, 127
2, 76440, Note_on_c, 1, 93, 127
2, 76440, Note_on_c, 1, 96, 127
2, 76480, Note_off_c, 1, 84, 0
2, 76480, Note_off_c, 1, 89, 0
2, 76480, Note_off_c, 1, 93, 0
2, 76480, Note_off_c, 1, 96, 0
2, 76520, Note_off_c, 1, 72, 0
2, 76560, Note_on_c, 1, 48, 127
2, 76560, Note_on_c, 1, 55, 127
2, 76560, Note_on_c, 1, 58, 127
2, 76560, Note_on_c, 1, 64, 127
2, 76560, Note_on_c, 1, 72, 127
2, 76560, Note_on_c, 1, 79, 127
2, 76600, Note_off_c, 1, 48, 0
2, 76600, Note_on_c, 1, 50, 127
2, 76600, Note_on_c, 1, 54, 127
2, 76600, Note_off_c, 1, 55, 0
2, 76600, Note_on_c, 1, 57, 127
2, 76600, Note_off_c, 1, 58, 0
2, 76600, Note_off_c, 1, 64, 0
2, 76600, Note_off_c, 1, 72, 0
2, 76600, Note_on_c, 1, 74, 127
2, 76600, Note_on_c, 1, 78, 127
2, 76600, Note_off_c, 1, 79, 0
2, 76640, Note_on_c, 1, 42, 127
2, 76640, Note_on_c, 1, 47, 127
2, 76640, Note_on_c, 1, 49, 127
2, 76640, Note_off_c, 1, 50, 0
2, 76640, Note_off_c, 1, 57, 0
2, 76640, Note_on_c, 1, 59, 127
2, 76640, Note_on_c, 1, 66, 127
2, 76640, Note_off_c, 1, 74, 0
2, 76640, Note_off_c, 1, 78, 0
2, 76680, Note_off_c, 1, 42, 0
2, 76680, Note_off_c, 1, 47, 0
2, 76680, Note_off_c, 1, 49, 0
2, 76680, Note_off_c, 1, 54, 0
2, 76680, Note_off_c, 1, 59, 0
2, 76680, Note_on_c, 1, 60, 127
2, 76680, Note_on_c, 1, 75, 127
2, 76680, Note_on_c, 1, 79, 127
2, 76720, Note_off_c, 1, 60, 0
2, 76720, Note_off_c, 1, 66, 0
2, 76720, Note_off_c, 1, 75, 0
2, 76720, Note_off_c, 1, 79, 0
2, 76760, Note_on_c, 1, 45, 127
2, 76760, Note_on_c, 1, 48, 127
2, 76760, Note_on_c, 1, 57, 127
2, 76760, Note_on_c, 1, 86, 127
2, 76800, Note_on_c, 1, 38, 127
2, 76800, Note_off_c, 1, 45, 0
2, 76800, Note_off_c, 1, 48, 0
2, 76800, Note_off_c, 1, 57, 0
2, 76800, Note_on_c, 1, 72, 127
2, 76800, Note_on_c, 1, 77, 127
2, 76800, Note_on_c, 1, 81, 127
2, 76800, Note_off_c, 1, 86, 0
2, 76840, Note_off_c, 1, 38, 0
2, 76840, Note_on_c, 1, 69, 127
2, 76840, Note_off_c, 1, 77, 0
2, 76840, Note_off_c, 1, 81, 0
2, 76880, Note_off_c, 1, 69, 0
2, 76880, Note_off_c, 1, 72, 0
2, 77040, Note_on_c, 1, 38, 127
2, 77040, Note_on_c, 1, 50, 127
2, 77040, Note_on_c, 1, 73, 127
2, 77040, Note_on_c, 1, 79, 127
2, 77040, Note_on_c, 1, 81, 127
2, 77080, Note_off_c, 1, 38, 0
2, 77080, Note_off_c, 1, 50, 0
2, 77080, Note_on_c, 1, 58, 127
2, 77080, Note_on_c, 1, 68, 127
2, 77080, Note_off_c, 1, 73, 0
2, 77080, Note_on_c, 1, 74, 127
2, 77080, Note_off_c, 1, 79, 0
2, 77080, Note_on_c, 1, 80, 127
2, 77080, Note_off_c, 1, 81, 0
2, 77080, Note_on_c, 1, 91, 127
2, 77120, Note_off_c, 1, 58, 0
2, 77120, Note_on_c, 1, 66, 127
2, 77120, Note_on_c, 1, 67, 127
2, 77120, Note_off_c, 1, 68, 0
2, 77120, Note_off_c, 1, 74, 0
2, 77120, Note_off_c, 1, 80, 0
2, 77120, Note_on_c, 1, 85, 127
2, 77120, Note_on_c, 1, 90, 127
2, 77120, Note_off_c, 1, 91, 0
2, 77160, Note_on_c, 1, 59, 127
2, 77160, Note_off_c, 1, 66, 0
2, 77160, Note_off_c, 1, 67, 0
2, 77160, Note_on_c, 1, 80, 127
2, 77160, Note_off_c, 1, 85, 0
2, 77160, Note_on_c, 1, 87, 127
2, 77160, Note_off_c, 1, 90, 0
2, 77160, Note_on_c, 1, 92, 127
2, 77200, Note_on_c, 1, 41, 127
2, 77200, Note_on_c, 1, 53, 127
2, 77200, Note_off_c, 1, 59, 0
2, 77200, Note_on_c, 1, 77, 127
2, 77200, Note_on_c, 1, 85, 127
2, 77200, Note_off_c, 1, 87, 0
2, 77200, Note_on_c, 1, 89, 127
2, 77200, Note_off_c, 1, 92, 0
2, 77240, Note_off_c, 1, 41, 0
2, 77240, Note_off_c, 1, 53, 0
2, 77240, Note_on_c, 1, 55, 127
2, 77240, Note_on_c, 1, 60, 127
2, 77240, Note_off_c, 1, 77, 0
2, 77240, Note_off_c, 1, 80, 0
2, 77240, Note_off_c, 1, 85, 0
2, 77240, Note_off_c, 1, 89, 0
2, 77280, Note_off_c, 1, 55, 0
2, 77280, Note_off_c, 1, 60, 0
2, 77280, Note_on_c, 1, 61, 127
2, 77280, Note_on_c, 1, 97, 127
2, 77280, Note_on_c, 1, 101, 127
2, 77320, Note_on_c, 1, 43, 127
2, 77320, Note_on_c, 1, 46, 127
2, 77320, Note_on_c, 1, 52, 127
2, 77320, Note_off_c, 1, 61, 0
2, 77320, Note_on_c, 1, 64, 127
2, 77320, Note_off_c, 1, 97, 0
2, 77320, Note_off_c, 1, 101, 0
2, 77360, Note_off_c, 1, 43, 0
2, 77360, Note_off_c, 1, 46, 0
2, 77360, Note_on_c, 1, 50, 127
2, 77360, Note_off_c, 1, 52, 0
2, 77360, Note_on_c, 1, 56, 127
2, 77360, Note_on_c, 1, 59, 127
2, 77360, Note_off_c, 1, 64, 0
2, 77360, Note_on_c, 1, 65, 127
2, 77360, Note_on_c, 1, 75, 127
2, 77360, Note_on_c, 1, 87, 127
2, 77400, Note_off_c, 1, 50, 0
2, 77400, Note_off_c, 1, 56, 0
2, 77400, Note_off_c, 1, 59, 0
2, 77400, Note_off_c, 1, 65, 0
2, 77400, Note_off_c, 1, 75, 0
2, 77400, Note_off_c, 1, 87, 0
2, 77480, Note_on_c, 1, 34, 127
2, 77480, Note_on_c, 1, 43, 127
2, 77480, Note_on_c, 1, 74, 127
2, 77520, Note_off_c, 1, 34, 0
2, 77520, Note_off_c, 1, 43, 0
2, 77520, Note_on_c, 1, 71, 127
2, 77520, Note_off_c, 1, 74, 0
2, 77520, Note_on_c, 1, 75, 127
2, 77520, Note_on_c, 1, 83, 127
2, 77520, Note_on_c, 1, 91, 127
2, 77520, Note_on_c, 1, 99, 127
2, 77520, Note_on_c, 1, 103, 127
2, 77560, Note_on_c, 1, 29, 127
2, 77560, Note_on_c, 1, 41, 127
2, 77560, Note_on_c, 1, 65, 127
2, 77560, Note_on_c, 1, 69, 127
2, 77560, Note_off_c, 1, 71, 0
2, 77560, Note_on_c, 1, 74, 127
2, 77560, Note_off_c, 1, 75, 0
2, 77560, Note_on_c, 1, 77, 127
2, 77560, Note_off_c, 1, 83, 0
2, 77560, Note_off_c, 1, 91, 0
2, 77560, Note_off_c, 1, 99, 0
2, 77560, Note_off_c, 1, 103, 0
2, 77600, Note_off_c, 1, 29, 0
2, 77600, Note_off_c, 1, 41, 0
2, 77600, Note_off_c, 1, 69, 0
2, 77600, Note_on_c, 1, 71, 127
2, 77600, Note_on_c, 1, 73, 127
2, 77600, Note_off_c, 1, 74, 0
2, 77600, Note_off_c, 1, 77, 0
2, 77600, Note_on_c, 1, 80, 127
2, 77600, Note_on_c, 1, 85, 127
2, 77640, Note_on_c, 1, 53, 127
2, 77640, Note_off_c, 1, 71, 0
2, 77640, Note_on_c, 1, 72, 127
2, 77640, Note_off_c, 1, 73, 0
2, 77640, Note_on_c, 1, 74, 127
2, 77640, Note_off_c, 1, 80, 0
2, 77640, Note_on_c, 1, 81, 127
2, 77640, Note_on_c, 1, 84, 127
2, 77640, Note_off_c, 1, 85, 0
2, 77680, Note_on_c, 1, 49, 127
2, 77680, Note_on_c, 1, 52, 127
2, 77680, Note_off_c, 1, 53, 0
2, 77680, Note_on_c, 1, 55, 127
2, 77680, Note_on_c, 1, 58, 127
2, 77680, Note_off_c, 1, 65, 0
2, 77680, Note_off_c, 1, 72, 0
2, 77680, Note_off_c, 1, 74, 0
2, 77680, Note_off_c, 1, 81, 0
2, 77680, Note_off_c, 1, 84, 0
2, 77680, Note_on_c, 1, 88, 127
2, 77720, Note_off_c, 1, 49, 0
2, 77720, Note_off_c, 1, 52, 0
2, 77720, Note_off_c, 1, 55, 0
2, 77720, Note_off_c, 1, 58, 0
2, 77720, Note_off_c, 1, 88, 0
2, 77720, Note_on_c, 1, 91, 127
2, 77760, Note_off_c, 1, 91, 0
2, 77840, Note_on_c, 1, 39, 127
2, 77840, Note_on_c, 1, 44, 127
2, 77840, Note_on_c, 1, 56, 127
2, 77840, Note_on_c, 1, 77, 127
2, 77840, Note_on_c, 1, 80, 127
2, 77840, Note_on_c, 1, 87, 127
2, 77840, Note_on_c, 1, 89, 127
2, 78000, Note_off_c, 1, 39, 0
2, 78000, Note_off_c, 1, 44, 0
2, 78000, Note_on_c, 1, 48, 127
2, 78000, Note_on_c, 1, 52, 127
2, 78000, Note_off_c, 1, 56, 0
2, 78000, Note_off_c, 1, 77, 0
2, 78000, Note_on_c, 1, 79, 127
2, 78000, Note_off_c, 1, 80, 0
2, 78000, Note_on_c, 1, 83, 127
2, 78000, Note_off_c, 1, 87, 0
2, 78000, Note_off_c, 1, 89, 0
2, 78040, Note_off_c, 1, 48, 0
2, 78040, Note_off_c, 1, 52, 0
2, 78040, Note_off_c, 1, 79, 0
2, 78040, Note_off_c, 1, 83, 0
2, 78120, Note_on_c, 1, 34, 127
2, 78120, Note_on_c, 1, 46, 127
2, 78120, Note_on_c, 1, 58, 127
2, 78160, Note_off_c, 1, 34, 0
2, 78160, Note_off_c, 1, 46, 0
2, 78160, Note_off_c, 1, 58, 0
2, 78240, Note_on_c, 1, 38, 127
2, 78240, Note_on_c, 1, 50, 127
2, 78240, Note_on_c, 1, 62, 127
2, 78280, Note_off_c, 1, 38, 0
2, 78280, Note_off_c, 1, 50, 0
2, 78280, Note_off_c, 1, 62, 0
2, 78360, Note_on_c, 1, 34, 127
2, 78360, Note_on_c, 1, 46, 127
2, 78360, Note_on_c, 1, 58, 127
2, 78400, Note_off_c, 1, 34, 0
2, 78400, Note_off_c, 1, 46, 0
2, 78400, Note_off_c, 1, 58, 0
2, 78440, Note_on_c, 1, 64, 127
2, 78440, Note_on_c, 1, 71, 127
2, 78440, Note_on_c, 1, 83, 127
2, 78440, Note_on_c, 1, 90, 127
2, 78480, Note_off_c, 1, 64, 0
2, 78480, Note_off_c, 1, 71, 0
2, 78480, Note_on_c, 1, 82, 127
2, 78480, Note_off_c, 1, 83, 0
2, 78480, Note_off_c, 1, 90, 0
2, 78520, Note_on_c, 1, 80, 127
2, 78520, Note_off_c, 1, 82, 0
2, 78560, Note_on_c, 1, 51, 127
2, 78560, Note_on_c, 1, 54, 127
2, 78560, Note_on_c, 1, 57, 127
2, 78560, Note_on_c, 1, 59, 127
2, 78560, Note_off_c, 1, 80, 0
2, 78560, Note_on_c, 1, 85, 127
2, 78600, Note_on_c, 1, 49, 127
2, 78600, Note_off_c, 1, 51, 0
2, 78600, Note_on_c, 1, 53, 127
2, 78600, Note_off_c, 1, 54, 0
2, 78600, Note_off_c, 1, 57, 0
2, 78600, Note_on_c, 1, 68, 127
2, 78600, Note_on_c, 1, 73, 127
2, 78600, Note_off_c, 1, 85, 0
2, 78640, Note_off_c, 1, 49, 0
2, 78640, Note_off_c, 1, 53, 0
2, 78640, Note_off_c, 1, 59, 0
2, 78640, Note_off_c, 1, 68, 0
2, 78640, Note_off_c, 1, 73, 0
2, 78680, Note_on_c, 1, 83, 127
2, 78680, Note_on_c, 1, 86, 127
2, 78720, Note_on_c, 1, 82, 127
2, 78720, Note_off_c, 1, 83, 0
2, 78720, Note_on_c, 1, 85, 127
2, 78720, Note_off_c, 1, 86, 0
2, 78760, Note_on_c, 1, 81, 127
2, 78760, Note_off_c, 1, 85, 0
2, 78760, Note_on_c, 1, 93, 127
2, 78760, Note_on_c, 1, 94, 127
2, 78800, Note_off_c, 1, 81, 0
2, 78800, Note_off_c, 1, 82, 0
2, 78800, Note_off_c, 1, 93, 0
2, 78800, Note_off_c, 1, 94, 0
2, 78840, Note_on_c, 1, 34, 127
2, 78840, Note_on_c, 1, 65, 127
2, 78840, Note_on_c, 1, 73, 127
2, 78880, Note_off_c, 1, 34, 0
2, 78880, Note_on_c, 1, 47, 127
2, 78880, Note_on_c, 1, 56, 127
2, 78880, Note_on_c, 1, 62, 127
2, 78880, Note_off_c, 1, 65, 0
2, 78880, Note_on_c, 1, 66, 127
2, 78880, Note_on_c, 1, 68, 127
2, 78880, Note_off_c, 1, 73, 0
2, 78880, Note_on_c, 1, 74, 127
2, 78880, Note_on_c, 1, 78, 127
2, 78920, Note_off_c, 1, 47, 0
2, 78920, Note_on_c, 1, 51, 127
2, 78920, Note_off_c, 1, 56, 0
2, 78920, Note_off_c, 1, 62, 0
2, 78920, Note_off_c, 1, 66, 0
2, 78920, Note_off_c, 1, 68, 0
2, 78920, Note_on_c, 1, 70, 127
2, 78920, Note_off_c, 1, 74, 0
2, 78920, Note_on_c, 1, 76, 127
2, 78920, Note_on_c, 1, 82, 127
2, 78960, Note_off_c, 1, 51, 0
2, 78960, Note_off_c, 1, 70, 0
2, 78960, Note_off_c, 1, 76, 0
2, 78960, Note_off_c, 1, 78, 0
2, 78960, Note_off_c, 1, 82, 0
2, 79000, Note_on_c, 1, 36, 127
2, 79000, Note_on_c, 1, 39, 127
2, 79000, Note_on_c, 1, 44, 127
2, 79000, Note_on_c, 1, 48, 127
2, 79000, Note_on_c, 1, 75, 127
2, 79040, Note_off_c, 1, 36, 0
2, 79040, Note_off_c, 1, 39, 0
2, 79040, Note_off_c, 1, 44, 0
2, 79040, Note_off_c, 1, 48, 0
2, 79040, Note_off_c, 1, 75, 0
2, 79080, Note_on_c, 1, 74, 127
2, 79080, Note_on_c, 1, 77, 127
2, 79080, Note_on_c, 1, 79, 127
2, 79080, Note_on_c, 1, 86, 127
2, 79120, Note_on_c, 1, 33, 127
2, 79120, Note_on_c, 1, 62, 127
2, 79120, Note_off_c, 1, 74, 0
2, 79120, Note_off_c, 1, 77, 0
2, 79120, Note_off_c, 1, 79, 0
2, 79160, Note_off_c, 1, 33, 0
2, 79160, Note_off_c, 1, 62, 0
2, 79160, Note_on_c, 1, 80, 127
2, 79160, Note_on_c, 1, 83, 127
2, 79160, Note_off_c, 1, 86, 0
2, 79160, Note_on_c, 1, 89, 127
2, 79200, Note_on_c, 1, 44, 127
2, 79200, Note_on_c, 1, 51, 127
2, 79200, Note_on_c, 1, 56, 127
2, 79200, Note_on_c, 1, 72, 127
2, 79200, Note_on_c, 1, 73, 127
2, 79200, Note_off_c, 1, 83, 0
2, 79200, Note_on_c, 1, 84, 127
2, 79200, Note_on_c, 1, 85, 127
2, 79200, Note_off_c, 1, 89, 0
2, 79240, Note_on_c, 1, 34, 127
2, 79240, Note_off_c, 1, 44, 0
2, 79240, Note_on_c, 1, 46, 127
2, 79240, Note_on_c, 1, 49, 127
2, 79240, Note_off_c, 1, 51, 0
2, 79240, Note_on_c, 1, 53, 127
2, 79240, Note_off_c, 1, 56, 0
2, 79240, Note_off_c, 1, 72, 0
2, 79240, Note_off_c, 1, 73, 0
2, 79240, Note_off_c, 1, 80, 0
2, 79240, Note_off_c, 1, 84, 0
2, 79240, Note_off_c, 1, 85, 0
2, 79280, Note_on_c, 1, 30, 127
2, 79280, Note_off_c, 1, 34, 0
2, 79280, Note_on_c, 1, 42, 127
2, 79280, Note_off_c, 1, 46, 0
2, 79280, Note_off_c, 1, 49, 0
2, 79280, Note_off_c, 1, 53, 0
2, 79280, Note_on_c, 1, 58, 127
2, 79280, Note_on_c, 1, 66, 127
2, 79280, Note_on_c, 1, 70, 127
2, 79320, Note_off_c, 1, 30, 0
2, 79320, Note_off_c, 1, 42, 0
2, 79320, Note_off_c, 1, 58, 0
2, 79320, Note_off_c, 1, 66, 0
2, 79320, Note_off_c, 1, 70, 0
2, 79360, Note_on_c, 1, 62, 127
2, 79400, Note_on_c, 1, 41, 127
2, 79400, Note_on_c, 1, 53, 127
2, 79400, Note_off_c, 1, 62, 0
2, 79400, Note_on_c, 1, 72, 127
2, 79400, Note_on_c, 1, 77, 127
2, 79400, Note_on_c, 1, 80, 127
2, 79400, Note_on_c, 1, 84, 127
2, 79440, Note_off_c, 1, 41, 0
2, 79440, Note_off_c, 1, 53, 0
2, 79440, Note_off_c, 1, 72, 0
2, 79440, Note_off_c, 1, 77, 0
2, 79440, Note_off_c, 1, 80, 0
2, 79440, Note_off_c, 1, 84, 0
2, 79480, Note_on_c, 1, 39, 127
2, 79480, Note_on_c, 1, 46, 127
2, 79480, Note_on_c, 1, 51, 127
2, 79480, Note_on_c, 1, 67, 127
2, 79480, Note_on_c, 1, 75, 127
2, 79480, Note_on_c, 1, 79, 127
2, 79680, Note_off_c, 1, 39, 0
2, 79680, Note_off_c, 1, 46, 0
2, 79680, Note_off_c, 1, 51, 0
2, 79680, Note_off_c, 1, 67, 0
2, 79680, Note_off_c, 1, 75, 0
2, 79680, Note_off_c, 1, 79, 0
2, 79720, Note_on_c, 1, 43, 127
2, 79720, Note_on_c, 1, 67, 127
2, 79720, Note_on_c, 1, 70, 127
2, 79720, Note_on_c, 1, 76, 127
2, 79760, Note_off_c, 1, 43, 0
2, 79760, Note_off_c, 1, 67, 0
2, 79760, Note_off_c, 1, 70, 0
2, 79760, Note_off_c, 1, 76, 0
2, 79800, Note_on_c, 1, 47, 127
2, 79800, Note_on_c, 1, 50, 127
2, 79800, Note_on_c, 1, 54, 127
2, 79800, Note_on_c, 1, 59, 127
2, 79800, Note_on_c, 1, 62, 127
2, 79800, Note_on_c, 1, 66, 127
2, 79800, Note_on_c, 1, 74, 127
2, 79840, Note_on_c, 1, 41, 127
2, 79840, Note_off_c, 1, 47, 0
2, 79840, Note_off_c, 1, 50, 0
2, 79840, Note_off_c, 1, 54, 0
2, 79840, Note_off_c, 1, 59, 0
2, 79840, Note_off_c, 1, 62, 0
2, 79840, Note_on_c, 1, 70, 127
2, 79840, Note_off_c, 1, 74, 0
2, 79880, Note_off_c, 1, 41, 0
2, 79880, Note_off_c, 1, 66, 0
2, 79880, Note_off_c, 1, 70, 0
2, 79920, Note_on_c, 1, 51, 127
2, 79920, Note_on_c, 1, 63, 127
2, 79920, Note_on_c, 1, 72, 127
2, 79920, Note_on_c, 1, 75, 127
2, 80520, Note_off_c, 1, 51, 0
2, 80520, Note_off_c, 1, 63, 0
2, 80520, Note_off_c, 1, 72, 0
2, 80520, Note_off_c, 1, 75, 0
2, 80560, Note_on_c, 1, 43, 127
2, 80600, Note_off_c, 1, 43, 0
2, 80600, Note_on_c, 1, 46, 127
2, 80600, Note_on_c, 1, 60, 127
2, 80640, Note_off_c, 1, 46, 0
2, 80640, Note_off_c, 1, 60, 0
2, 80680, Note_on_c, 1, 50, 127
2, 80680, Note_on_c, 1, 58, 127
2, 80680, Note_on_c, 1, 64, 127
2, 80720, Note_off_c, 1, 64, 0
2, 80720, Note_on_c, 1, 74, 127
2, 80760, Note_on_c, 1, 62, 127
2, 80760, Note_on_c, 1, 67, 127
2, 80760, Note_off_c, 1, 74, 0
2, 80800, Note_on_c, 1, 39, 127
2, 80800, Note_off_c, 1, 50, 0
2, 80800, Note_off_c, 1, 58, 0
2, 80800, Note_off_c, 1, 67, 0
2, 80840, Note_on_c, 1, 35, 127
2, 80840, Note_off_c, 1, 39, 0
2, 80840, Note_on_c, 1, 47, 127
2, 80840, Note_on_c, 1, 53, 127
2, 80840, Note_off_c, 1, 62, 0
2, 80840, Note_on_c, 1, 65, 127
2, 80840, Note_on_c, 1, 68, 127
2, 80880, Note_off_c, 1, 35, 0
2, 80880, Note_on_c, 1, 43, 127
2, 80880, Note_off_c, 1, 47, 0
2, 80880, Note_on_c, 1, 52, 127
2, 80880, Note_off_c, 1, 53, 0
2, 80880, Note_off_c, 1, 65, 0
2, 80880, Note_off_c, 1, 68, 0
2, 80880, Note_on_c, 1, 71, 127
2, 80880, Note_on_c, 1, 74, 127
2, 80880, Note_on_c, 1, 83, 127
2, 80920, Note_off_c, 1, 43, 0
2, 80920, Note_on_c, 1, 45, 127
2, 80920, Note_off_c, 1, 52, 0
2, 80920, Note_on_c, 1, 54, 127
2, 80920, Note_off_c, 1, 71, 0
2, 80920, Note_off_c, 1, 74, 0
2, 80920, Note_on_c, 1, 76, 127
2, 80920, Note_on_c, 1, 78, 127
2, 80920, Note_off_c, 1, 83, 0
2, 80960, Note_off_c, 1, 45, 0
2, 80960, Note_off_c, 1, 54, 0
2, 80960, Note_off_c, 1, 76, 0
2, 80960, Note_off_c, 1, 78, 0
2, 81000, Note_on_c, 1, 29, 127
2, 81000, Note_on_c, 1, 31, 127
2, 81000, Note_on_c, 1, 47, 127
2, 81040, Note_off_c, 1, 29, 0
2, 81040, Note_off_c, 1, 31, 0
2, 81040, Note_on_c, 1, 45, 127
2, 81040, Note_off_c, 1, 47, 0
2, 81040, Note_on_c, 1, 64, 127
2, 81040, Note_on_c, 1, 81, 127
2, 81080, Note_off_c, 1, 45, 0
2, 81080, Note_on_c, 1, 49, 127
2, 81080, Note_on_c, 1, 59, 127
2, 81080, Note_off_c, 1, 64, 0
2, 81080, Note_on_c, 1, 65, 127
2, 81080, Note_on_c, 1, 69, 127
2, 81080, Note_off_c, 1, 81, 0
2, 81120, Note_on_c, 1, 33, 127
2, 81120, Note_off_c, 1, 49, 0
2, 81120, Note_off_c, 1, 59, 0
2, 81120, Note_off_c, 1, 65, 0
2, 81120, Note_off_c, 1, 69, 0
2, 81120, Note_on_c, 1, 72, 127
2, 81120, Note_on_c, 1, 76, 127
2, 81120, Note_on_c, 1, 81, 127
2, 81160, Note_off_c, 1, 33, 0
2, 81160, Note_on_c, 1, 64, 127
2, 81160, Note_off_c, 1, 72, 0
2, 81160, Note_on_c, 1, 73, 127
2, 81160, Note_on_c, 1, 75, 127
2, 81160, Note_on_c, 1, 78, 127
2, 81160, Note_on_c, 1, 80, 127
2, 81160, Note_off_c, 1, 81, 0
2, 81200, Note_on_c, 1, 44, 127
2, 81200, Note_on_c, 1, 56, 127
2, 81200, Note_on_c, 1, 60, 127
2, 81200, Note_on_c, 1, 63, 127
2, 81200, Note_off_c, 1, 64, 0
2, 81200, Note_on_c, 1, 68, 127
2, 81200, Note_on_c, 1, 72, 127
2, 81200, Note_off_c, 1, 73, 0
2, 81200, Note_off_c, 1, 76, 0
2, 81200, Note_off_c, 1, 78, 0
2, 81240, Note_on_c, 1, 43, 127
2, 81240, Note_off_c, 1, 44, 0
2, 81240, Note_on_c, 1, 46, 127
2, 81240, Note_on_c, 1, 50, 127
2, 81240, Note_on_c, 1, 53, 127
2, 81240, Note_off_c, 1, 56, 0
2, 81240, Note_off_c, 1, 60, 0
2, 81240, Note_off_c, 1, 63, 0
2, 81240, Note_off_c, 1, 68, 0
2, 81240, Note_on_c, 1, 70, 127
2, 81240, Note_off_c, 1, 72, 0
2, 81240, Note_off_c, 1, 75, 0
2, 81240, Note_off_c, 1, 80, 0
2, 81240, Note_on_c, 1, 82, 127
2, 81280, Note_on_c, 1, 39, 127
2, 81280, Note_on_c, 1, 40, 127
2, 81280, Note_off_c, 1, 43, 0
2, 81280, Note_on_c, 1, 44, 127
2, 81280, Note_off_c, 1, 46, 0
2, 81280, Note_on_c, 1, 47, 127
2, 81280, Note_off_c, 1, 50, 0
2, 81280, Note_off_c, 1, 53, 0
2, 81280, Note_on_c, 1, 59, 127
2, 81280, Note_on_c, 1, 64, 127
2, 81280, Note_off_c, 1, 70, 0
2, 81280, Note_off_c, 1, 82, 0
2, 81320, Note_off_c, 1, 39, 0
2, 81320, Note_off_c, 1, 40, 0
2, 81320, Note_on_c, 1, 43, 127
2, 81320, Note_off_c, 1, 44, 0
2, 81320, Note_off_c, 1, 47, 0
2, 81320, Note_on_c, 1, 50, 127
2, 81320, Note_off_c, 1, 59, 0
2, 81320, Note_off_c, 1, 64, 0
2, 81320, Note_on_c, 1, 67, 127
2, 81320, Note_on_c, 1, 86, 127
2, 81360, Note_off_c, 1, 50, 0
2, 81360, Note_on_c, 1, 51, 127
2, 81360, Note_off_c, 1, 67, 0
2, 81360, Note_on_c, 1, 73, 127
2, 81360, Note_on_c, 1, 82, 127
2, 81360, Note_off_c, 1, 86, 0
2, 81400, Note_off_c, 1, 43, 0
2, 81400, Note_on_c, 1, 50, 127
2, 81400, Note_off_c, 1, 51, 0
2, 81400, Note_on_c, 1, 66, 127
2, 81400, Note_on_c, 1, 67, 127
2, 81400, Note_on_c, 1, 69, 127
2, 81400, Note_off_c, 1, 73, 0
2, 81400, Note_off_c, 1, 82, 0
2, 81440, Note_on_c, 1, 49, 127
2, 81440, Note_off_c, 1, 50, 0
2, 81440, Note_on_c, 1, 54, 127
2, 81440, Note_on_c, 1, 59, 127
2, 81440, Note_on_c, 1, 61, 127
2, 81440, Note_off_c, 1, 66, 0
2, 81440, Note_off_c, 1, 67, 0
2, 81440, Note_on_c, 1, 68, 127
2, 81440, Note_off_c, 1, 69, 0
2, 81480, Note_off_c, 1, 49, 0
2, 81480, Note_off_c, 1, 54, 0
2, 81480, Note_off_c, 1, 59, 0
2, 81480, Note_off_c, 1, 61, 0
2, 81480, Note_off_c, 1, 68, 0
2, 81520, Note_on_c, 1, 44, 127
2, 81560, Note_off_c, 1, 44, 0
2, 81560, Note_on_c, 1, 47, 127
2, 81560, Note_on_c, 1, 51, 127
2, 81560, Note_on_c, 1, 54, 127
2, 81560, Note_on_c, 1, 67, 127
2, 81560, Note_on_c, 1, 70, 127
2, 81600, Note_off_c, 1, 51, 0
2, 81600, Note_on_c, 1, 53, 127
2, 81600, Note_off_c, 1, 54, 0
2, 81600, Note_on_c, 1, 59, 127
2, 81600, Note_off_c, 1, 67, 0
2, 81600, Note_off_c, 1, 70, 0
2, 81600, Note_on_c, 1, 73, 127
2, 81600, Note_on_c, 1, 76, 127
2, 81600, Note_on_c, 1, 80, 127
2, 81600, Note_on_c, 1, 86, 127
2, 81600, Note_on_c, 1, 92, 127
2, 81640, Note_off_c, 1, 47, 0
2, 81640, Note_off_c, 1, 53, 0
2, 81640, Note_on_c, 1, 57, 127
2, 81640, Note_off_c, 1, 59, 0
2, 81640, Note_off_c, 1, 73, 0
2, 81640, Note_off_c, 1, 76, 0
2, 81640, Note_off_c, 1, 80, 0
2, 81640, Note_on_c, 1, 82, 127
2, 81640, Note_on_c, 1, 89, 127
2, 81640, Note_off_c, 1, 92, 0
2, 81680, Note_on_c, 1, 43, 127
2, 81680, Note_off_c, 1, 57, 0
2, 81680, Note_on_c, 1, 59, 127
2, 81680, Note_on_c, 1, 65, 127
2, 81680, Note_on_c, 1, 71, 127
2, 81680, Note_off_c, 1, 82, 0
2, 81680, Note_off_c, 1, 86, 0
2, 81680, Note_off_c, 1, 89, 0
2, 81720, Note_off_c, 1, 43, 0
2, 81720, Note_on_c, 1, 57, 127
2, 81720, Note_off_c, 1, 59, 0
2, 81720, Note_off_c, 1, 71, 0
2, 81720, Note_on_c, 1, 89, 127
2, 81720, Note_on_c, 1, 93, 127
2, 81720, Note_on_c, 1, 101, 127
2, 81760, Note_on_c, 1, 45, 127
2, 81760, Note_on_c, 1, 51, 127
2, 81760, Note_on_c, 1, 61, 127
2, 81760, Note_off_c, 1, 65, 0
2, 81760, Note_off_c, 1, 89, 0
2, 81760, Note_off_c, 1, 93, 0
2, 81760, Note_off_c, 1, 101, 0
2, 81800, Note_on_c, 1, 49, 127
2, 81800, Note_off_c, 1, 51, 0
2, 81800, Note_off_c, 1, 57, 0
2, 81800, Note_on_c, 1, 73, 127
2, 81840, Note_on_c, 1, 32, 127
2, 81840, Note_on_c, 1, 37, 127
2, 81840, Note_on_c, 1, 44, 127
2, 81840, Note_off_c, 1, 45, 0
2, 81840, Note_off_c, 1, 49, 0
2, 81840, Note_on_c, 1, 52, 127
2, 81840, Note_off_c, 1, 61, 0
2, 81840, Note_off_c, 1, 73, 0
2, 81880, Note_off_c, 1, 32, 0
2, 81880, Note_off_c, 1, 37, 0
2, 81880, Note_on_c, 1, 41, 127
2, 81880, Note_off_c, 1, 44, 0
2, 81880, Note_off_c, 1, 52, 0
2, 81880, Note_on_c, 1, 70, 127
2, 81880, Note_on_c, 1, 74, 127
2, 81880, Note_on_c, 1, 77, 127
2, 81920, Note_off_c, 1, 41, 0
2, 81920, Note_on_c, 1, 58, 127
2, 81920, Note_on_c, 1, 63, 127
2, 81920, Note_on_c, 1, 66, 127
2, 81920, Note_off_c, 1, 74, 0
2, 81920, Note_on_c, 1, 75, 127
2, 81920, Note_off_c, 1, 77, 0
2, 81920, Note_on_c, 1, 78, 127
2, 81960, Note_off_c, 1, 58, 0
2, 81960, Note_off_c, 1, 63, 0
2, 81960, Note_off_c, 1, 66, 0
2, 81960, Note_off_c, 1, 70, 0
2, 81960, Note_off_c, 1, 75, 0
2, 81960, Note_off_c, 1, 78, 0
2, 82000, Note_on_c, 1, 40, 127
2, 82040, Note_off_c, 1, 40, 0
2, 82040, Note_on_c, 1, 41, 127
2, 82040, Note_on_c, 1, 53, 127
2, 82040, Note_on_c, 1, 64, 127
2, 82040, Note_on_c, 1, 69, 127
2, 82080, Note_off_c, 1, 53, 0
2, 82080, Note_on_c, 1, 56, 127
2, 82080, Note_off_c, 1, 64, 0
2, 82080, Note_off_c, 1, 69, 0
2, 82120, Note_off_c, 1, 41, 0
2, 82120, Note_on_c, 1, 53, 127
2, 82120, Note_off_c, 1, 56, 0
2, 82120, Note_on_c, 1, 65, 127
2, 82120, Note_on_c, 1, 91, 127
2, 82160, Note_on_c, 1, 37, 127
2, 82160, Note_on_c, 1, 49, 127
2, 82160, Note_off_c, 1, 53, 0
2, 82160, Note_on_c, 1, 61, 127
2, 82160, Note_off_c, 1, 65, 0
2, 82160, Note_on_c, 1, 70, 127
2, 82160, Note_on_c, 1, 73, 127
2, 82160, Note_on_c, 1, 75, 127
2, 82160, Note_off_c, 1, 91, 0
2, 82200, Note_off_c, 1, 37, 0
2, 82200, Note_off_c, 1, 49, 0
2, 82200, Note_on_c, 1, 57, 127
2, 82200, Note_on_c, 1, 60, 127
2, 82200, Note_off_c, 1, 61, 0
2, 82200, Note_on_c, 1, 64, 127
2, 82200, Note_off_c, 1, 70, 0
2, 82200, Note_off_c, 1, 73, 0
2, 82200, Note_off_c, 1, 75, 0
2, 82200, Note_on_c, 1, 98, 127
2, 82240, Note_on_c, 1, 45, 127
2, 82240, Note_on_c, 1, 48, 127
2, 82240, Note_on_c, 1, 53, 127
2, 82240, Note_off_c, 1, 57, 0
2, 82240, Note_off_c, 1, 60, 0
2, 82240, Note_on_c, 1, 63, 127
2, 82240, Note_off_c, 1, 64, 0
2, 82240, Note_off_c, 1, 98, 0
2, 82280, Note_off_c, 1, 45, 0
2, 82280, Note_off_c, 1, 48, 0
2, 82280, Note_off_c, 1, 53, 0
2, 82280, Note_off_c, 1, 63, 0
2, 82280, Note_on_c, 1, 66, 127
2, 82280, Note_on_c, 1, 88, 127
2, 82280, Note_on_c, 1, 100, 127
2, 82320, Note_on_c, 1, 40, 127
2, 82320, Note_on_c, 1, 52, 127
2, 82320, Note_on_c, 1, 59, 127
2, 82320, Note_on_c, 1, 62, 127
2, 82320, Note_off_c, 1, 66, 0
2, 82320, Note_on_c, 1, 68, 127
2, 82320, Note_off_c, 1, 88, 0
2, 82320, Note_on_c, 1, 91, 127
2, 82320, Note_off_c, 1, 100, 0
2, 82360, Note_off_c, 1, 40, 0
2, 82360, Note_off_c, 1, 52, 0
2, 82360, Note_off_c, 1, 59, 0
2, 82360, Note_on_c, 1, 61, 127
2, 82360, Note_off_c, 1, 62, 0
2, 82360, Note_on_c, 1, 71, 127
2, 82360, Note_on_c, 1, 74, 127
2, 82360, Note_on_c, 1, 77, 127
2, 82360, Note_on_c, 1, 80, 127
2, 82360, Note_off_c, 1, 91, 0
2, 82400, Note_off_c, 1, 61, 0
2, 82400, Note_off_c, 1, 68, 0
2, 82400, Note_off_c, 1, 71, 0
2, 82400, Note_off_c, 1, 74, 0
2, 82400, Note_off_c, 1, 77, 0
2, 82400, Note_off_c, 1, 80, 0
2, 82440, Note_on_c, 1, 54, 127
2, 82440, Note_on_c, 1, 59, 127
2, 82440, Note_on_c, 1, 62, 127
2, 82440, Note_on_c, 1, 83, 127
2, 82440, Note_on_c, 1, 86, 127
2, 82440, Note_on_c, 1, 88, 127
2, 82480, Note_on_c, 1, 45, 127
2, 82480, Note_on_c, 1, 50, 127
2, 82480, Note_on_c, 1, 53, 127
2, 82480, Note_off_c, 1, 54, 0
2, 82480, Note_on_c, 1, 56, 127
2, 82480, Note_on_c, 1, 65, 127
2, 82480, Note_off_c, 1, 83, 0
2, 82480, Note_off_c, 1, 86, 0
2, 82480, Note_off_c, 1, 88, 0
2, 82520, Note_off_c, 1, 45, 0
2, 82520, Note_off_c, 1, 50, 0
2, 82520, Note_off_c, 1, 53, 0
2, 82520, Note_off_c, 1, 56, 0
2, 82520, Note_off_c, 1, 59, 0
2, 82520, Note_off_c, 1, 62, 0
2, 82520, Note_off_c, 1, 65, 0
2, 82560, Note_on_c, 1, 39, 127
2, 82560, Note_on_c, 1, 46, 127
2, 82560, Note_on_c, 1, 62, 127
2, 82560, Note_on_c, 1, 68, 127
2, 82600, Note_off_c, 1, 39, 0
2, 82600, Note_off_c, 1, 46, 0
2, 82600, Note_on_c, 1, 47, 127
2, 82600, Note_on_c, 1, 54, 127
2, 82600, Note_off_c, 1, 68, 0
2, 82600, Note_on_c, 1, 71, 127
2, 82600, Note_on_c, 1, 83, 127
2, 82640, Note_on_c, 1, 38, 127
2, 82640, Note_off_c, 1, 47, 0
2, 82640, Note_on_c, 1, 49, 127
2, 82640, Note_off_c, 1, 54, 0
2, 82640, Note_off_c, 1, 62, 0
2, 82640, Note_off_c, 1, 71, 0
2, 82640, Note_off_c, 1, 83, 0
2, 82680, Note_off_c, 1, 38, 0
2, 82680, Note_on_c, 1, 48, 127
2, 82680, Note_off_c, 1, 49, 0
2, 82680, Note_on_c, 1, 59, 127
2, 82680, Note_on_c, 1, 62, 127
2, 82720, Note_on_c, 1, 34, 127
2, 82720, Note_on_c, 1, 46, 127
2, 82720, Note_off_c, 1, 48, 0
2, 82720, Note_on_c, 1, 54, 127
2, 82720, Note_off_c, 1, 59, 0
2, 82720, Note_on_c, 1, 61, 127
2, 82720, Note_off_c, 1, 62, 0
2, 82720, Note_on_c, 1, 64, 127
2, 82760, Note_off_c, 1, 34, 0
2, 82760, Note_off_c, 1, 46, 0
2, 82760, Note_on_c, 1, 49, 127
2, 82760, Note_on_c, 1, 53, 127
2, 82760, Note_off_c, 1, 54, 0
2, 82760, Note_on_c, 1, 58, 127
2, 82760, Note_off_c, 1, 64, 0
2, 82760, Note_on_c, 1, 103, 127
2, 82800, Note_on_c, 1, 31, 127
2, 82800, Note_off_c, 1, 49, 0
2, 82800, Note_off_c, 1, 53, 0
2, 82800, Note_off_c, 1, 58, 0
2, 82800, Note_off_c, 1, 61, 0
2, 82800, Note_on_c, 1, 82, 127
2, 82800, Note_on_c, 1, 86, 127
2, 82800, Note_on_c, 1, 94, 127
2, 82800, Note_off_c, 1, 103, 0
2, 82840, Note_off_c, 1, 31, 0
2, 82840, Note_on_c, 1, 47, 127
2, 82840, Note_on_c, 1, 50, 127
2, 82840, Note_on_c, 1, 53, 127
2, 82840, Note_on_c, 1, 56, 127
2, 82840, Note_on_c, 1, 74, 127
2, 82840, Note_off_c, 1, 82, 0
2, 82840, Note_off_c, 1, 86, 0
2, 82840, Note_off_c, 1, 94, 0
2, 82880, Note_on_c, 1, 35, 127
2, 82880, Note_on_c, 1, 42, 127
2, 82880, Note_off_c, 1, 47, 0
2, 82880, Note_off_c, 1, 50, 0
2, 82880, Note_off_c, 1, 53, 0
2, 82880, Note_on_c, 1, 54, 127
2, 82880, Note_off_c, 1, 56, 0
2, 82880, Note_on_c, 1, 62, 127
2, 82880, Note_off_c, 1, 74, 0
2, 82920, Note_off_c, 1, 35, 0
2, 82920, Note_on_c, 1, 39, 127
2, 82920, Note_on_c, 1, 41, 127
2, 82920, Note_off_c, 1, 42, 0
2, 82920, Note_off_c, 1, 54, 0
2, 82920, Note_off_c, 1, 62, 0
2, 82920, Note_on_c, 1, 73, 127
2, 82920, Note_on_c, 1, 77, 127
2, 82920, Note_on_c, 1, 83, 127
2, 82920, Note_on_c, 1, 85, 127
2, 82960, Note_off_c, 1, 39, 0
2, 82960, Note_off_c, 1, 41, 0
2, 82960, Note_on_c, 1, 47, 127
2, 82960, Note_off_c, 1, 73, 0
2, 82960, Note_off_c, 1, 77, 0
2, 82960, Note_on_c, 1, 81, 127
2, 82960, Note_off_c, 1, 83, 0
2, 82960, Note_off_c, 1, 85, 0
2, 82960, Note_on_c, 1, 93, 127
2, 83000, Note_on_c, 1, 34, 127
2, 83000, Note_off_c, 1, 47, 0
2, 83000, Note_on_c, 1, 57, 127
2, 83000, Note_on_c, 1, 60, 127
2, 83000, Note_on_c, 1, 65, 127
2, 83000, Note_on_c, 1, 69, 127
2, 83000, Note_on_c, 1, 72, 127
2, 83000, Note_on_c, 1, 77, 127
2, 83000, Note_off_c, 1, 81, 0
2, 83000, Note_off_c, 1, 93, 0
2, 83040, Note_on_c, 1, 33, 127
2, 83040, Note_off_c, 1, 34, 0
2, 83040, Note_on_c, 1, 45, 127
2, 83040, Note_off_c, 1, 57, 0
2, 83040, Note_off_c, 1, 60, 0
2, 83040, Note_off_c, 1, 65, 0
2, 83040, Note_off_c, 1, 69, 0
2, 83040, Note_off_c, 1, 72, 0
2, 83040, Note_off_c, 1, 77, 0
2, 83080, Note_off_c, 1, 33, 0
2, 83080, Note_on_c, 1, 34, 127
2, 83080, Note_off_c, 1, 45, 0
2, 83080, Note_on_c, 1, 49, 127
2, 83080, Note_on_c, 1, 52, 127
2, 83080, Note_on_c, 1, 55, 127
2, 83120, Note_off_c, 1, 34, 0
2, 83120, Note_off_c, 1, 49, 0
2, 83120, Note_off_c, 1, 52, 0
2, 83120, Note_off_c, 1, 55, 0
2, 83120, Note_on_c, 1, 62, 127
2, 83120, Note_on_c, 1, 65, 127
2, 83120, Note_on_c, 1, 69, 127
2, 83120, Note_on_c, 1, 79, 127
2, 83120, Note_on_c, 1, 91, 127
2, 83160, Note_off_c, 1, 62, 0
2, 83160, Note_off_c, 1, 65, 0
2, 83160, Note_off_c, 1, 69, 0
2, 83160, Note_off_c, 1, 79, 0
2, 83160, Note_off_c, 1, 91, 0
2, 83200, Note_on_c, 1, 43, 127
2, 83200, Note_on_c, 1, 68, 127
2, 83240, Note_off_c, 1, 43, 0
2, 83240, Note_on_c, 1, 64, 127
2, 83240, Note_on_c, 1, 67, 127
2, 83240, Note_off_c, 1, 68, 0
2, 83240, Note_on_c, 1, 72, 127
2, 83240, Note_on_c, 1, 76, 127
2, 83240, Note_on_c, 1, 83, 127
2, 83240, Note_on_c, 1, 84, 127
2, 83240, Note_on_c, 1, 91, 127
2, 83240, Note_on_c, 1, 95, 127
2, 83280, Note_on_c, 1, 55, 127
2, 83280, Note_on_c, 1, 59, 127
2, 83280, Note_on_c, 1, 62, 127
2, 83280, Note_off_c, 1, 64, 0
2, 83280, Note_off_c, 1, 67, 0
2, 83280, Note_off_c, 1, 72, 0
2, 83280, Note_off_c, 1, 76, 0
2, 83280, Note_on_c, 1, 77, 127
2, 83280, Note_off_c, 1, 83, 0
2, 83280, Note_off_c, 1, 84, 0
2, 83280, Note_off_c, 1, 91, 0
2, 83280, Note_off_c, 1, 95, 0
2, 83320, Note_on_c, 1, 40, 127
2, 83320, Note_on_c, 1, 52, 127
2, 83320, Note_off_c, 1, 55, 0
2, 83320, Note_off_c, 1, 59, 0
2, 83320, Note_off_c, 1, 62, 0
2, 83320, Note_off_c, 1, 77, 0
2, 83320, Note_on_c, 1, 81, 127
2, 83320, Note_on_c, 1, 85, 127
2, 83320, Note_on_c, 1, 92, 127
2, 83360, Note_off_c, 1, 40, 0
2, 83360, Note_on_c, 1, 43, 127
2, 83360, Note_off_c, 1, 52, 0
2, 83360, Note_off_c, 1, 92, 0
2, 83360, Note_on_c, 1, 93, 127
2, 83400, Note_on_c, 1, 42, 127
2, 83400, Note_off_c, 1, 43, 0
2, 83400, Note_on_c, 1, 50, 127
2, 83400, Note_on_c, 1, 59, 127
2, 83400, Note_on_c, 1, 62, 127
2, 83400, Note_off_c, 1, 81, 0
2, 83400, Note_off_c, 1, 85, 0
2, 83400, Note_off_c, 1, 93, 0
2, 83440, Note_on_c, 1, 33, 127
2, 83440, Note_off_c, 1, 42, 0
2, 83440, Note_on_c, 1, 45, 127
2, 83440, Note_off_c, 1, 50, 0
2, 83440, Note_on_c, 1, 53, 127
2, 83440, Note_off_c, 1, 59, 0
2, 83440, Note_on_c, 1, 61, 127
2, 83440, Note_off_c, 1, 62, 0
2, 83440, Note_on_c, 1, 65, 127
2, 83480, Note_off_c, 1, 33, 0
2, 83480, Note_on_c, 1, 41, 127
2, 83480, Note_off_c, 1, 45, 0
2, 83480, Note_on_c, 1, 46, 127
2, 83480, Note_on_c, 1, 50, 127
2, 83480, Note_off_c, 1, 53, 0
2, 83480, Note_off_c, 1, 61, 0
2, 83480, Note_off_c, 1, 65, 0
2, 83480, Note_on_c, 1, 83, 127
2, 83520, Note_on_c, 1, 32, 127
2, 83520, Note_off_c, 1, 41, 0
2, 83520, Note_off_c, 1, 46, 0
2, 83520, Note_off_c, 1, 50, 0
2, 83520, Note_off_c, 1, 83, 0
2, 83520, Note_on_c, 1, 90, 127
2, 83520, Note_on_c, 1, 93, 127
2, 83560, Note_off_c, 1, 32, 0
2, 83560, Note_on_c, 1, 38, 127
2, 83560, Note_on_c, 1, 43, 127
2, 83560, Note_on_c, 1, 52, 127
2, 83560, Note_off_c, 1, 90, 0
2, 83560, Note_off_c, 1, 93, 0
2, 83600, Note_off_c, 1, 38, 0
2, 83600, Note_off_c, 1, 43, 0
2, 83600, Note_off_c, 1, 52, 0
2, 83600, Note_on_c, 1, 59, 127
2, 83600, Note_on_c, 1, 68, 127
2, 83600, Note_on_c, 1, 71, 127
2, 83600, Note_on_c, 1, 88, 127
2, 83600, Note_on_c, 1, 100, 127
2, 83640, Note_on_c, 1, 35, 127
2, 83640, Note_on_c, 1, 45, 127
2, 83640, Note_on_c, 1, 51, 127
2, 83640, Note_off_c, 1, 59, 0
2, 83640, Note_on_c, 1, 63, 127
2, 83640, Note_on_c, 1, 65, 127
2, 83640, Note_off_c, 1, 68, 0
2, 83640, Note_off_c, 1, 71, 0
2, 83640, Note_off_c, 1, 88, 0
2, 83640, Note_off_c, 1, 100, 0
2, 83680, Note_on_c, 1, 32, 127
2, 83680, Note_off_c, 1, 35, 0
2, 83680, Note_on_c, 1, 44, 127
2, 83680, Note_off_c, 1, 45, 0
2, 83680, Note_off_c, 1, 51, 0
2, 83680, Note_on_c, 1, 59, 127
2, 83680, Note_off_c, 1, 63, 0
2, 83680, Note_off_c, 1, 65, 0
2, 83680, Note_on_c, 1, 68, 127
2, 83720, Note_off_c, 1, 32, 0
2, 83720, Note_on_c, 1, 43, 127
2, 83720, Note_off_c, 1, 44, 0
2, 83720, Note_on_c, 1, 55, 127
2, 83720, Note_off_c, 1, 59, 0
2, 83720, Note_off_c, 1, 68, 0
2, 83720, Note_on_c, 1, 70, 127
2, 83720, Note_on_c, 1, 74, 127
2, 83720, Note_on_c, 1, 76, 127
2, 83720, Note_on_c, 1, 82, 127
2, 83760, Note_on_c, 1, 26, 127
2, 83760, Note_on_c, 1, 30, 127
2, 83760, Note_on_c, 1, 33, 127
2, 83760, Note_on_c, 1, 38, 127
2, 83760, Note_off_c, 1, 43, 0
2, 83760, Note_on_c, 1, 50, 127
2, 83760, Note_off_c, 1, 55, 0
2, 83760, Note_on_c, 1, 62, 127
2, 83760, Note_off_c, 1, 70, 0
2, 83760, Note_off_c, 1, 74, 0
2, 83760, Note_off_c, 1, 76, 0
2, 83760, Note_off_c, 1, 82, 0
2, 83800, Note_off_c, 1, 26, 0
2, 83800, Note_off_c, 1, 30, 0
2, 83800, Note_off_c, 1, 33, 0
2, 83800, Note_off_c, 1, 38, 0
2, 83800, Note_off_c, 1, 50, 0
2, 83800, Note_on_c, 1, 59, 127
2, 83800, Note_off_c, 1, 62, 0
2, 83800, Note_on_c, 1, 74, 127
2, 83800, Note_on_c, 1, 76, 127
2, 83800, Note_on_c, 1, 81, 127
2, 83840, Note_off_c, 1, 59, 0
2, 83840, Note_on_c, 1, 62, 127
2, 83840, Note_off_c, 1, 76, 0
2, 83840, Note_off_c, 1, 81, 0
2, 83880, Note_on_c, 1, 29, 127
2, 83880, Note_on_c, 1, 60, 127
2, 83880, Note_off_c, 1, 62, 0
2, 83880, Note_off_c, 1, 74, 0
2, 83920, Note_off_c, 1, 29, 0
2, 83920, Note_off_c, 1, 60, 0
2, 83960, Note_on_c, 1, 36, 127
2, 83960, Note_on_c, 1, 47, 127
2, 83960, Note_on_c, 1, 60, 127
2, 84120, Note_off_c, 1, 60, 0
2, 84200, Note_on_c, 1, 60, 127
2, 84240, Note_on_c, 1, 35, 127
2, 84240, Note_off_c, 1, 36, 0
2, 84240, Note_off_c, 1, 47, 0
2, 84240, Note_on_c, 1, 59, 127
2, 84240, Note_off_c, 1, 60, 0
2, 84240, Note_on_c, 1, 63, 127
2, 84240, Note_on_c, 1, 66, 127
2, 84240, Note_on_c, 1, 71, 127
2, 84280, Note_off_c, 1, 35, 0
2, 84280, Note_on_c, 1, 36, 127
2, 84280, Note_on_c, 1, 47, 127
2, 84280, Note_off_c, 1, 59, 0
2, 84280, Note_off_c, 1, 63, 0
2, 84280, Note_off_c, 1, 66, 0
2, 84280, Note_off_c, 1, 71, 0
2, 84320, Note_on_c, 1, 60, 127
2, 84360, Note_off_c, 1, 60, 0
2, 84400, Note_off_c, 1, 36, 0
2, 84400, Note_off_c, 1, 47, 0
2, 84440, Note_on_c, 1, 73, 127
2, 84440, Note_on_c, 1, 87, 127
2, 84440, Note_on_c, 1, 99, 127
2, 84440, Note_on_c, 1, 100, 127
2, 84480, Note_on_c, 1, 46, 127
2, 84480, Note_on_c, 1, 55, 127
2, 84480, Note_on_c, 1, 58, 127
2, 84480, Note_on_c, 1, 63, 127
2, 84480, Note_on_c, 1, 70, 127
2, 84480, Note_off_c, 1, 73, 0
2, 84480, Note_off_c, 1, 87, 0
2, 84480, Note_off_c, 1, 99, 0
2, 84480, Note_off_c, 1, 100, 0
2, 84520, Note_on_c, 1, 41, 127
2, 84520, Note_off_c, 1, 46, 0
2, 84520, Note_on_c, 1, 50, 127
2, 84520, Note_off_c, 1, 55, 0
2, 84520, Note_off_c, 1, 58, 0
2, 84520, Note_off_c, 1, 63, 0
2, 84520, Note_off_c, 1, 70, 0
2, 84520, Note_on_c, 1, 72, 127
2, 84560, Note_on_c, 1, 40, 127
2, 84560, Note_off_c, 1, 41, 0
2, 84560, Note_off_c, 1, 50, 0
2, 84560, Note_off_c, 1, 72, 0
2, 84560, Note_on_c, 1, 78, 127
2, 84560, Note_on_c, 1, 90, 127
2, 84600, Note_off_c, 1, 40, 0
2, 84600, Note_on_c, 1, 51, 127
2, 84600, Note_on_c, 1, 60, 127
2, 84600, Note_on_c, 1, 62, 127
2, 84600, Note_off_c, 1, 78, 0
2, 84600, Note_off_c, 1, 90, 0
2, 84640, Note_off_c, 1, 51, 0
2, 84640, Note_off_c, 1, 62, 0
2, 84640, Note_on_c, 1, 72, 127
2, 84640, Note_on_c, 1, 80, 127
2, 84640, Note_on_c, 1, 92, 127
2, 84680, Note_on_c, 1, 45, 127
2, 84680, Note_on_c, 1, 57, 127
2, 84680, Note_off_c, 1, 60, 0
2, 84680, Note_off_c, 1, 72, 0
2, 84680, Note_off_c, 1, 80, 0
2, 84680, Note_on_c, 1, 88, 127
2, 84680, Note_off_c, 1, 92, 0
2, 84680, Note_on_c, 1, 93, 127
2, 84680, Note_on_c, 1, 97, 127
2, 84680, Note_on_c, 1, 100, 127
2, 84720, Note_off_c, 1, 45, 0
2, 84720, Note_on_c, 1, 46, 127
2, 84720, Note_on_c, 1, 54, 127
2, 84720, Note_off_c, 1, 57, 0
2, 84720, Note_on_c, 1, 61, 127
2, 84720, Note_on_c, 1, 64, 127
2, 84720, Note_on_c, 1, 66, 127
2, 84720, Note_off_c, 1, 88, 0
2, 84720, Note_off_c, 1, 93, 0
2, 84720, Note_off_c, 1, 97, 0
2, 84720, Note_off_c, 1, 100, 0
2, 84760, Note_on_c, 1, 43, 127
2, 84760, Note_off_c, 1, 46, 0
2, 84760, Note_on_c, 1, 51, 127
2, 84760, Note_off_c, 1, 54, 0
2, 84760, Note_off_c, 1, 61, 0
2, 84760, Note_off_c, 1, 64, 0
2, 84760, Note_off_c, 1, 66, 0
2, 84760, Note_on_c, 1, 79, 127
2, 84800, Note_on_c, 1, 34, 127
2, 84800, Note_off_c, 1, 43, 0
2, 84800, Note_on_c, 1, 49, 127
2, 84800, Note_off_c, 1, 51, 0
2, 84800, Note_on_c, 1, 52, 127
2, 84800, Note_on_c, 1, 55, 127
2, 84800, Note_off_c, 1, 79, 0
2, 84840, Note_off_c, 1, 34, 0
2, 84840, Note_off_c, 1, 49, 0
2, 84840, Note_off_c, 1, 52, 0
2, 84840, Note_on_c, 1, 54, 127
2, 84840, Note_off_c, 1, 55, 0
2, 84840, Note_on_c, 1, 60, 127
2, 84840, Note_on_c, 1, 82, 127
2, 84840, Note_on_c, 1, 87, 127
2, 84840, Note_on_c, 1, 94, 127
2, 84880, Note_on_c, 1, 44, 127
2, 84880, Note_off_c, 1, 54, 0
2, 84880, Note_on_c, 1, 56, 127
2, 84880, Note_off_c, 1, 60, 0
2, 84880, Note_on_c, 1, 80, 127
2, 84880, Note_off_c, 1, 82, 0
2, 84880, Note_on_c, 1, 84, 127
2, 84880, Note_off_c, 1, 87, 0
2, 84880, Note_off_c, 1, 94, 0
2, 84920, Note_off_c, 1, 44, 0
2, 84920, Note_on_c, 1, 58, 127
2, 84920, Note_on_c, 1, 61, 127
2, 84920, Note_on_c, 1, 65, 127
2, 84920, Note_off_c, 1, 80, 0
2, 84920, Note_on_c, 1, 82, 127
2, 84920, Note_off_c, 1, 84, 0
2, 84960, Note_on_c, 1, 36, 127
2, 84960, Note_on_c, 1, 43, 127
2, 84960, Note_on_c, 1, 48, 127
2, 84960, Note_on_c, 1, 55, 127
2, 84960, Note_off_c, 1, 56, 0
2, 84960, Note_off_c, 1, 58, 0
2, 84960, Note_on_c, 1, 60, 127
2, 84960, Note_off_c, 1, 61, 0
2, 84960, Note_off_c, 1, 65, 0
2, 84960, Note_on_c, 1, 67, 127
2, 84960, Note_off_c, 1, 82, 0
2, 85000, Note_off_c, 1, 36, 0
2, 85000, Note_off_c, 1, 43, 0
2, 85000, Note_off_c, 1, 48, 0
2, 85000, Note_off_c, 1, 55, 0
2, 85000, Note_off_c, 1, 60, 0
2, 85000, Note_on_c, 1, 63, 127
2, 85000, Note_off_c, 1, 67, 0
2, 85000, Note_on_c, 1, 75, 127
2, 85000, Note_on_c, 1, 78, 127
2, 85000, Note_on_c, 1, 82, 127
2, 85040, Note_on_c, 1, 39, 127
2, 85040, Note_on_c, 1, 49, 127
2, 85040, Note_on_c, 1, 54, 127
2, 85040, Note_on_c, 1, 58, 127
2, 85040, Note_on_c, 1, 61, 127
2, 85040, Note_off_c, 1, 63, 0
2, 85040, Note_off_c, 1, 75, 0
2, 85040, Note_off_c, 1, 78, 0
2, 85040, Note_off_c, 1, 82, 0
2, 85080, Note_off_c, 1, 39, 0
2, 85080, Note_on_c, 1, 46, 127
2, 85080, Note_off_c, 1, 49, 0
2, 85080, Note_on_c, 1, 50, 127
2, 85080, Note_off_c, 1, 54, 0
2, 85080, Note_on_c, 1, 55, 127
2, 85080, Note_off_c, 1, 58, 0
2, 85080, Note_off_c, 1, 61, 0
2, 85080, Note_on_c, 1, 82, 127
2, 85120, Note_on_c, 1, 36, 127
2, 85120, Note_on_c, 1, 40, 127
2, 85120, Note_on_c, 1, 43, 127
2, 85120, Note_off_c, 1, 46, 0
2, 85120, Note_on_c, 1, 48, 127
2, 85120, Note_off_c, 1, 50, 0
2, 85120, Note_off_c, 1, 82, 0
2, 85160, Note_on_c, 1, 34, 127
2, 85160, Note_off_c, 1, 36, 0
2, 85160, Note_off_c, 1, 40, 0
2, 85160, Note_off_c, 1, 43, 0
2, 85160, Note_on_c, 1, 46, 127
2, 85160, Note_off_c, 1, 48, 0
2, 85160, Note_off_c, 1, 55, 0
2, 85160, Note_on_c, 1, 61, 127
2, 85160, Note_on_c, 1, 65, 127
2, 85160, Note_on_c, 1, 67, 127
2, 85160, Note_on_c, 1, 73, 127
2, 85200, Note_off_c, 1, 34, 0
2, 85200, Note_off_c, 1, 46, 0
2, 85200, Note_off_c, 1, 61, 0
2, 85200, Note_off_c, 1, 67, 0
2, 85200, Note_off_c, 1, 73, 0
2, 85200, Note_on_c, 1, 77, 127
2, 85200, Note_on_c, 1, 84, 127
2, 85200, Note_on_c, 1, 93, 127
2, 85200, Note_on_c, 1, 96, 127
2, 85240, Note_on_c, 1, 57, 127
2, 85240, Note_on_c, 1, 64, 127
2, 85240, Note_on_c, 1, 71, 127
2, 85240, Note_on_c, 1, 74, 127
2, 85240, Note_off_c, 1, 77, 0
2, 85240, Note_off_c, 1, 84, 0
2, 85240, Note_off_c, 1, 93, 0
2, 85240, Note_off_c, 1, 96, 0
2, 85280, Note_on_c, 1, 36, 127
2, 85280, Note_on_c, 1, 39, 127
2, 85280, Note_on_c, 1, 42, 127
2, 85280, Note_on_c, 1, 45, 127
2, 85280, Note_on_c, 1, 48, 127
2, 85280, Note_off_c, 1, 57, 0
2, 85280, Note_off_c, 1, 64, 0
2, 85280, Note_off_c, 1, 65, 0
2, 85280, Note_off_c, 1, 71, 0
2, 85280, Note_off_c, 1, 74, 0
2, 85280, Note_on_c, 1, 75, 127
2, 85280, Note_on_c, 1, 78, 127
2, 85280, Note_on_c, 1, 81, 127
2, 85280, Note_on_c, 1, 87, 127
2, 85320, Note_on_c, 1, 35, 127
2, 85320, Note_off_c, 1, 36, 0
2, 85320, Note_off_c, 1, 39, 0
2, 85320, Note_off_c, 1, 45, 0
2, 85320, Note_off_c, 1, 48, 0
2, 85320, Note_on_c, 1, 74, 127
2, 85320, Note_off_c, 1, 75, 0
2, 85320, Note_on_c, 1, 77, 127
2, 85320, Note_off_c, 1, 81, 0
2, 85320, Note_on_c, 1, 83, 127
2, 85320, Note_off_c, 1, 87, 0
2, 85360, Note_off_c, 1, 35, 0
2, 85360, Note_off_c, 1, 42, 0
2, 85360, Note_off_c, 1, 74, 0
2, 85360, Note_off_c, 1, 77, 0
2, 85360, Note_off_c, 1, 78, 0
2, 85360, Note_off_c, 1, 83, 0
2, 85360, Note_on_c, 1, 91, 127
2, 85360, Note_on_c, 1, 97, 127
2, 85400, Note_on_c, 1, 53, 127
2, 85400, Note_on_c, 1, 65, 127
2, 85400, Note_on_c, 1, 75, 127
2, 85400, Note_on_c, 1, 87, 127
2, 85400, Note_off_c, 1, 91, 0
2, 85400, Note_off_c, 1, 97, 0
2, 85440, Note_on_c, 1, 42, 127
2, 85440, Note_on_c, 1, 51, 127
2, 85440, Note_off_c, 1, 53, 0
2, 85440, Note_on_c, 1, 59, 127
2, 85440, Note_off_c, 1, 65, 0
2, 85440, Note_on_c, 1, 72, 127
2, 85440, Note_off_c, 1, 75, 0
2, 85440, Note_off_c, 1, 87, 0
2, 85480, Note_off_c, 1, 42, 0
2, 85480, Note_off_c, 1, 51, 0
2, 85480, Note_off_c, 1, 59, 0
2, 85480, Note_on_c, 1, 70, 127
2, 85480, Note_on_c, 1, 77, 127
2, 85480, Note_on_c, 1, 87, 127
2, 85480, Note_on_c, 1, 93, 127
2, 85520, Note_on_c, 1, 27, 127
2, 85520, Note_on_c, 1, 51, 127
2, 85520, Note_on_c, 1, 63, 127
2, 85520, Note_off_c, 1, 70, 0
2, 85520, Note_off_c, 1, 72, 0
2, 85520, Note_off_c, 1, 77, 0
2, 85520, Note_off_c, 1, 87, 0
2, 85520, Note_off_c, 1, 93, 0
2, 85560, Note_off_c, 1, 27, 0
2, 85560, Note_on_c, 1, 43, 127
2, 85560, Note_off_c, 1, 51, 0
2, 85560, Note_on_c, 1, 53, 127
2, 85560, Note_on_c, 1, 58, 127
2, 85560, Note_on_c, 1, 61, 127
2, 85560, Note_off_c, 1, 63, 0
2, 85560, Note_on_c, 1, 65, 127
2, 85560, Note_on_c, 1, 70, 127
2, 85560, Note_on_c, 1, 73, 127
2, 85600, Note_off_c, 1, 43, 0
2, 85600, Note_off_c, 1, 53, 0
2, 85600, Note_off_c, 1, 58, 0
2, 85600, Note_off_c, 1, 61, 0
2, 85600, Note_off_c, 1, 65, 0
2, 85600, Note_off_c, 1, 70, 0
2, 85600, Note_off_c, 1, 73, 0
2, 85600, Note_on_c, 1, 87, 127
2, 85600, Note_on_c, 1, 96, 127
2, 85600, Note_on_c, 1, 99, 127
2, 85640, Note_on_c, 1, 50, 127
2, 85640, Note_on_c, 1, 59, 127
2, 85640, Note_on_c, 1, 71, 127
2, 85640, Note_on_c, 1, 83, 127
2, 85640, Note_off_c, 1, 87, 0
2, 85640, Note_off_c, 1, 96, 0
2, 85640, Note_off_c, 1, 99, 0
2, 85680, Note_on_c, 1, 49, 127
2, 85680, Note_off_c, 1, 50, 0
2, 85680, Note_off_c, 1, 59, 0
2, 85680, Note_on_c, 1, 73, 127
2, 85680, Note_on_c, 1, 77, 127
2, 85680, Note_on_c, 1, 80, 127
2, 85680, Note_off_c, 1, 83, 0
2, 85680, Note_on_c, 1, 85, 127
2, 85720, Note_on_c, 1, 45, 127
2, 85720, Note_off_c, 1, 49, 0
2, 85720, Note_on_c, 1, 57, 127
2, 85720, Note_off_c, 1, 71, 0
2, 85720, Note_off_c, 1, 73, 0
2, 85720, Note_off_c, 1, 77, 0
2, 85720, Note_on_c, 1, 92, 127
2, 85760, Note_on_c, 1, 34, 127
2, 85760, Note_off_c, 1, 45, 0
2, 85760, Note_on_c, 1, 46, 127
2, 85760, Note_off_c, 1, 57, 0
2, 85760, Note_on_c, 1, 61, 127
2, 85760, Note_on_c, 1, 64, 127
2, 85760, Note_off_c, 1, 80, 0
2, 85760, Note_off_c, 1, 85, 0
2, 85760, Note_off_c, 1, 92, 0
2, 85800, Note_off_c, 1, 34, 0
2, 85800, Note_off_c, 1, 46, 0
2, 85800, Note_off_c, 1, 61, 0
2, 85800, Note_off_c, 1, 64, 0
2, 85840, Note_on_c, 1, 51, 127
2, 85840, Note_on_c, 1, 55, 127
2, 85840, Note_on_c, 1, 60, 127
2, 85840, Note_on_c, 1, 87, 127
2, 85880, Note_on_c, 1, 31, 127
2, 85880, Note_off_c, 1, 51, 0
2, 85880, Note_off_c, 1, 55, 0
2, 85880, Note_off_c, 1, 60, 0
2, 85880, Note_on_c, 1, 77, 127
2, 85880, Note_on_c, 1, 79, 127
2, 85880, Note_on_c, 1, 86, 127
2, 85880, Note_off_c, 1, 87, 0
2, 85880, Note_on_c, 1, 89, 127
2, 85920, Note_off_c, 1, 31, 0
2, 85920, Note_on_c, 1, 37, 127
2, 85920, Note_on_c, 1, 44, 127
2, 85920, Note_off_c, 1, 77, 0
2, 85920, Note_off_c, 1, 79, 0
2, 85920, Note_on_c, 1, 80, 127
2, 85920, Note_off_c, 1, 86, 0
2, 85920, Note_on_c, 1, 88, 127
2, 85920, Note_off_c, 1, 89, 0
2, 85920, Note_on_c, 1, 92, 127
2, 85960, Note_off_c, 1, 37, 0
2, 85960, Note_off_c, 1, 44, 0
2, 85960, Note_on_c, 1, 51, 127
2, 85960, Note_on_c, 1, 55, 127
2, 85960, Note_on_c, 1, 60, 127
2, 85960, Note_on_c, 1, 63, 127
2, 85960, Note_off_c, 1, 80, 0
2, 85960, Note_on_c, 1, 87, 127
2, 85960, Note_off_c, 1, 88, 0
2, 85960, Note_off_c, 1, 92, 0
2, 86000, Note_on_c, 1, 40, 127
2, 86000, Note_off_c, 1, 51, 0
2, 86000, Note_off_c, 1, 60, 0
2, 86000, Note_off_c, 1, 63, 0
2, 86000, Note_on_c, 1, 71, 127
2, 86000, Note_on_c, 1, 76, 127
2, 86000, Note_off_c, 1, 87, 0
2, 86040, Note_off_c, 1, 40, 0
2, 86040, Note_on_c, 1, 48, 127
2, 86040, Note_on_c, 1, 53, 127
2, 86040, Note_off_c, 1, 55, 0
2, 86040, Note_on_c, 1, 60, 127
2, 86040, Note_on_c, 1, 62, 127
2, 86040, Note_on_c, 1, 65, 127
2, 86040, Note_off_c, 1, 71, 0
2, 86040, Note_off_c, 1, 76, 0
2, 86080, Note_on_c, 1, 43, 127
2, 86080, Note_off_c, 1, 48, 0
2, 86080, Note_on_c, 1, 50, 127
2, 86080, Note_off_c, 1, 60, 0
2, 86080, Note_off_c, 1, 62, 0
2, 86080, Note_off_c, 1, 65, 0
2, 86080, Note_on_c, 1, 77, 127
2, 86120, Note_off_c, 1, 43, 0
2, 86120, Note_off_c, 1, 50, 0
2, 86120, Note_off_c, 1, 53, 0
2, 86120, Note_off_c, 1, 77, 0
2, 86160, Note_on_c, 1, 40, 127
2, 86200, Note_off_c, 1, 40, 0
2, 86200, Note_on_c, 1, 64, 127
2, 86240, Note_on_c, 1, 41, 127
2, 86240, Note_on_c, 1, 47, 127
2, 86240, Note_on_c, 1, 50, 127
2, 86240, Note_on_c, 1, 53, 127
2, 86240, Note_on_c, 1, 59, 127
2, 86240, Note_off_c, 1, 64, 0
2, 86240, Note_on_c, 1, 71, 127
2, 86280, Note_off_c, 1, 41, 0
2, 86280, Note_off_c, 1, 47, 0
2, 86280, Note_off_c, 1, 50, 0
2, 86280, Note_off_c, 1, 53, 0
2, 86280, Note_off_c, 1, 59, 0
2, 86280, Note_on_c, 1, 68, 127
2, 86280, Note_off_c, 1, 71, 0
2, 86280, Note_on_c, 1, 76, 127
2, 86280, Note_on_c, 1, 88, 127
2, 86280, Note_on_c, 1, 96, 127
2, 86320, Note_on_c, 1, 45, 127
2, 86320, Note_on_c, 1, 60, 127
2, 86320, Note_on_c, 1, 65, 127
2, 86320, Note_off_c, 1, 68, 0
2, 86320, Note_on_c, 1, 72, 127
2, 86320, Note_off_c, 1, 76, 0
2, 86320, Note_on_c, 1, 77, 127
2, 86320, Note_off_c, 1, 88, 0
2, 86320, Note_off_c, 1, 96, 0
2, 86360, Note_off_c, 1, 45, 0
2, 86360, Note_off_c, 1, 60, 0
2, 86360, Note_on_c, 1, 62, 127
2, 86360, Note_off_c, 1, 65, 0
2, 86360, Note_off_c, 1, 72, 0
2, 86360, Note_off_c, 1, 77, 0
2, 86360, Note_on_c, 1, 83, 127
2, 86360, Note_on_c, 1, 90, 127
2, 86360, Note_on_c, 1, 95, 127
2, 86400, Note_on_c, 1, 48, 127
2, 86400, Note_on_c, 1, 55, 127
2, 86400, Note_off_c, 1, 62, 0
2, 86400, Note_on_c, 1, 80, 127
2, 86400, Note_off_c, 1, 83, 0
2, 86400, Note_off_c, 1, 90, 0
2, 86400, Note_off_c, 1, 95, 0
2, 86440, Note_off_c, 1, 48, 0
2, 86440, Note_off_c, 1, 55, 0
2, 86440, Note_on_c, 1, 59, 127
2, 86440, Note_on_c, 1, 65, 127
2, 86440, Note_on_c, 1, 71, 127
2, 86440, Note_on_c, 1, 77, 127
2, 86440, Note_on_c, 1, 79, 127
2, 86440, Note_off_c, 1, 80, 0
2, 86440, Note_on_c, 1, 83, 127
2, 86480, Note_off_c, 1, 59, 0
2, 86480, Note_off_c, 1, 65, 0
2, 86480, Note_off_c, 1, 71, 0
2, 86480, Note_off_c, 1, 77, 0
2, 86480, Note_off_c, 1, 79, 0
2, 86480, Note_off_c, 1, 83, 0
2, 86520, Note_on_c, 1, 33, 127
2, 86520, Note_on_c, 1, 45, 127
2, 86520, Note_on_c, 1, 69, 127
2, 86520, Note_on_c, 1, 76, 127
2, 86560, Note_off_c, 1, 33, 0
2, 86560, Note_off_c, 1, 45, 0
2, 86560, Note_off_c, 1, 69, 0
2, 86560, Note_off_c, 1, 76, 0
2, 86600, Note_on_c, 1, 35, 127
2, 86600, Note_on_c, 1, 51, 127
2, 86600, Note_on_c, 1, 54, 127
2, 86600, Note_on_c, 1, 59, 127
2, 86600, Note_on_c, 1, 63, 127
2, 86640, Note_off_c, 1, 35, 0
2, 86640, Note_on_c, 1, 45, 127
2, 86640, Note_off_c, 1, 51, 0
2, 86640, Note_off_c, 1, 54, 0
2, 86640, Note_on_c, 1, 55, 127
2, 86640, Note_off_c, 1, 59, 0
2, 86640, Note_on_c, 1, 60, 127
2, 86640, Note_off_c, 1, 63, 0
2, 86640, Note_on_c, 1, 69, 127
2, 86680, Note_off_c, 1, 45, 0
2, 86680, Note_on_c, 1, 50, 127
2, 86680, Note_off_c, 1, 55, 0
2, 86680, Note_on_c, 1, 57, 127
2, 86680, Note_on_c, 1, 67, 127
2, 86680, Note_off_c, 1, 69, 0
2, 86680, Note_on_c, 1, 86, 127
2, 86720, Note_on_c, 1, 43, 127
2, 86720, Note_off_c, 1, 50, 0
2, 86720, Note_off_c, 1, 57, 0
2, 86720, Note_off_c, 1, 60, 0
2, 86720, Note_off_c, 1, 67, 0
2, 86720, Note_on_c, 1, 84, 127
2, 86720, Note_off_c, 1, 86, 0
2, 86720, Note_on_c, 1, 87, 127
2, 86760, Note_off_c, 1, 43, 0
2, 86760, Note_on_c, 1, 55, 127
2, 86760, Note_on_c, 1, 67, 127
2, 86760, Note_on_c, 1, 79, 127
2, 86760, Note_off_c, 1, 84, 0
2, 86760, Note_on_c, 1, 86, 127
2, 86760, Note_off_c, 1, 87, 0
2, 86800, Note_on_c, 1, 50, 127
2, 86800, Note_on_c, 1, 53, 127
2, 86800, Note_off_c, 1, 55, 0
2, 86800, Note_on_c, 1, 57, 127
2, 86800, Note_on_c, 1, 62, 127
2, 86800, Note_off_c, 1, 67, 0
2, 86800, Note_on_c, 1, 74, 127
2, 86800, Note_on_c, 1, 77, 127
2, 86800, Note_off_c, 1, 79, 0
2, 86800, Note_on_c, 1, 81, 127
2, 86840, Note_on_c, 1, 48, 127
2, 86840, Note_off_c, 1, 50, 0
2, 86840, Note_on_c, 1, 52, 127
2, 86840, Note_off_c, 1, 53, 0
2, 86840, Note_on_c, 1, 55, 127
2, 86840, Note_off_c, 1, 57, 0
2, 86840, Note_on_c, 1, 58, 127
2, 86840, Note_on_c, 1, 60, 127
2, 86840, Note_off_c, 1, 62, 0
2, 86840, Note_on_c, 1, 64, 127
2, 86840, Note_off_c, 1, 74, 0
2, 86840, Note_off_c, 1, 77, 0
2, 86840, Note_off_c, 1, 81, 0
2, 86840, Note_off_c, 1, 86, 0
2, 86880, Note_on_c, 1, 38, 127
2, 86880, Note_off_c, 1, 48, 0
2, 86880, Note_off_c, 1, 55, 0
2, 86880, Note_on_c, 1, 57, 127
2, 86880, Note_off_c, 1, 58, 0
2, 86880, Note_off_c, 1, 60, 0
2, 86880, Note_off_c, 1, 64, 0
2, 86880, Note_on_c, 1, 76, 127
2, 86920, Note_off_c, 1, 38, 0
2, 86920, Note_off_c, 1, 52, 0
2, 86920, Note_off_c, 1, 57, 0
2, 86920, Note_off_c, 1, 76, 0
2, 86960, Note_on_c, 1, 32, 127
2, 86960, Note_on_c, 1, 44, 127
2, 86960, Note_on_c, 1, 63, 127
2, 87000, Note_off_c, 1, 32, 0
2, 87000, Note_off_c, 1, 44, 0
2, 87000, Note_off_c, 1, 63, 0
2, 87000, Note_on_c, 1, 67, 127
2, 87000, Note_on_c, 1, 72, 127
2, 87000, Note_on_c, 1, 76, 127
2, 87000, Note_on_c, 1, 88, 127
2, 87000, Note_on_c, 1, 96, 127
2, 87000, Note_on_c, 1, 100, 127
2, 87040, Note_on_c, 1, 60, 127
2, 87040, Note_on_c, 1, 64, 127
2, 87040, Note_on_c, 1, 74, 127
2, 87040, Note_off_c, 1, 76, 0
2, 87040, Note_off_c, 1, 88, 0
2, 87040, Note_off_c, 1, 96, 0
2, 87040, Note_off_c, 1, 100, 0
2, 87080, Note_on_c, 1, 35, 127
2, 87080, Note_on_c, 1, 42, 127
2, 87080, Note_off_c, 1, 60, 0
2, 87080, Note_on_c, 1, 70, 127
2, 87080, Note_off_c, 1, 72, 0
2, 87080, Note_on_c, 1, 73, 127
2, 87080, Note_off_c, 1, 74, 0
2, 87120, Note_off_c, 1, 35, 0
2, 87120, Note_off_c, 1, 42, 0
2, 87120, Note_off_c, 1, 64, 0
2, 87120, Note_off_c, 1, 67, 0
2, 87120, Note_on_c, 1, 72, 127
2, 87120, Note_on_c, 1, 75, 127
2, 87160, Note_on_c, 1, 32, 127
2, 87160, Note_on_c, 1, 40, 127
2, 87160, Note_off_c, 1, 70, 0
2, 87160, Note_off_c, 1, 72, 0
2, 87160, Note_off_c, 1, 73, 0
2, 87160, Note_off_c, 1, 75, 0
2, 87200, Note_on_c, 1, 31, 127
2, 87200, Note_off_c, 1, 32, 0
2, 87200, Note_off_c, 1, 40, 0
2, 87200, Note_on_c, 1, 43, 127
2, 87200, Note_on_c, 1, 86, 127
2, 87200, Note_on_c, 1, 94, 127
2, 87200, Note_on_c, 1, 98, 127
2, 87240, Note_off_c, 1, 31, 0
2, 87240, Note_off_c, 1, 43, 0
2, 87240, Note_on_c, 1, 71, 127
2, 87240, Note_on_c, 1, 78, 127
2, 87240, Note_off_c, 1, 86, 0
2, 87240, Note_off_c, 1, 94, 0
2, 87240, Note_on_c, 1, 95, 127
2, 87240, Note_off_c, 1, 98, 0
2, 87240, Note_on_c, 1, 100, 127
2, 87280, Note_on_c, 1, 50, 127
2, 87280, Note_off_c, 1, 71, 0
2, 87280, Note_on_c, 1, 76, 127
2, 87280, Note_off_c, 1, 78, 0
2, 87280, Note_on_c, 1, 81, 127
2, 87280, Note_off_c, 1, 95, 0
2, 87280, Note_off_c, 1, 100, 0
2, 87320, Note_on_c, 1, 39, 127
2, 87320, Note_on_c, 1, 42, 127
2, 87320, Note_off_c, 1, 50, 0
2, 87320, Note_on_c, 1, 66, 127
2, 87320, Note_on_c, 1, 70, 127
2, 87320, Note_off_c, 1, 76, 0
2, 87320, Note_off_c, 1, 81, 0
2, 87360, Note_off_c, 1, 39, 0
2, 87360, Note_off_c, 1, 42, 0
2, 87360, Note_off_c, 1, 66, 0
2, 87360, Note_off_c, 1, 70, 0
2, 87360, Note_on_c, 1, 74, 127
2, 87360, Note_on_c, 1, 79, 127
2, 87360, Note_on_c, 1, 82, 127
2, 87360, Note_on_c, 1, 86, 127
2, 87400, Note_on_c, 1, 48, 127
2, 87400, Note_on_c, 1, 55, 127
2, 87400, Note_on_c, 1, 58, 127
2, 87400, Note_on_c, 1, 64, 127
2, 87400, Note_on_c, 1, 72, 127
2, 87400, Note_off_c, 1, 74, 0
2, 87400, Note_on_c, 1, 76, 127
2, 87400, Note_off_c, 1, 79, 0
2, 87400, Note_off_c, 1, 82, 0
2, 87400, Note_off_c, 1, 86, 0
2, 87440, Note_off_c, 1, 48, 0
2, 87440, Note_off_c, 1, 55, 0
2, 87440, Note_off_c, 1, 58, 0
2, 87440, Note_off_c, 1, 64, 0
2, 87440, Note_off_c, 1, 72, 0
2, 87480, Note_on_c, 1, 50, 127
2, 87480, Note_on_c, 1, 54, 127
2, 87480, Note_on_c, 1, 57, 127
2, 87480, Note_on_c, 1, 62, 127
2, 87480, Note_on_c, 1, 69, 127
2, 87480, Note_off_c, 1, 76, 0
2, 87520, Note_on_c, 1, 40, 127
2, 87520, Note_off_c, 1, 50, 0
2, 87520, Note_off_c, 1, 54, 0
2, 87520, Note_off_c, 1, 57, 0
2, 87520, Note_off_c, 1, 69, 0
2, 87560, Note_on_c, 1, 38, 127
2, 87560, Note_off_c, 1, 40, 0
2, 87560, Note_on_c, 1, 44, 127
2, 87560, Note_on_c, 1, 48, 127
2, 87560, Note_on_c, 1, 60, 127
2, 87560, Note_off_c, 1, 62, 0
2, 87560, Note_on_c, 1, 66, 127
2, 87560, Note_on_c, 1, 68, 127
2, 87600, Note_off_c, 1, 44, 0
2, 87600, Note_on_c, 1, 45, 127
2, 87600, Note_off_c, 1, 48, 0
2, 87600, Note_on_c, 1, 53, 127
2, 87600, Note_on_c, 1, 57, 127
2, 87600, Note_off_c, 1, 60, 0
2, 87600, Note_on_c, 1, 64, 127
2, 87600, Note_off_c, 1, 66, 0
2, 87600, Note_off_c, 1, 68, 0
2, 87640, Note_off_c, 1, 38, 0
2, 87640, Note_off_c, 1, 45, 0
2, 87640, Note_on_c, 1, 50, 127
2, 87640, Note_off_c, 1, 53, 0
2, 87640, Note_off_c, 1, 57, 0
2, 87640, Note_on_c, 1, 61, 127
2, 87640, Note_off_c, 1, 64, 0
2, 87640, Note_on_c, 1, 69, 127
2, 87640, Note_on_c, 1, 73, 127
2, 87680, Note_off_c, 1, 50, 0
2, 87680, Note_on_c, 1, 55, 127
2, 87680, Note_on_c, 1, 57, 127
2, 87680, Note_off_c, 1, 61, 0
2, 87680, Note_on_c, 1, 62, 127
2, 87680, Note_off_c, 1, 69, 0
2, 87680, Note_off_c, 1, 73, 0
2, 87680, Note_on_c, 1, 74, 127
2, 87720, Note_off_c, 1, 55, 0
2, 87720, Note_off_c, 1, 57, 0
2, 87720, Note_off_c, 1, 62, 0
2, 87720, Note_on_c, 1, 64, 127
2, 87720, Note_on_c, 1, 67, 127
2, 87720, Note_on_c, 1, 69, 127
2, 87760, Note_on_c, 1, 38, 127
2, 87760, Note_on_c, 1, 42, 127
2, 87760, Note_on_c, 1, 50, 127
2, 87760, Note_off_c, 1, 64, 0
2, 87760, Note_off_c, 1, 67, 0
2, 87760, Note_off_c, 1, 69, 0
2, 87760, Note_off_c, 1, 74, 0
2, 87760, Note_on_c, 1, 78, 127
2, 87760, Note_on_c, 1, 81, 127
2, 87760, Note_on_c, 1, 86, 127
2, 87760, Note_on_c, 1, 90, 127
2, 87800, Note_off_c, 1, 38, 0
2, 87800, Note_off_c, 1, 42, 0
2, 87800, Note_off_c, 1, 50, 0
2, 87800, Note_off_c, 1, 78, 0
2, 87800, Note_off_c, 1, 81, 0
2, 87800, Note_off_c, 1, 86, 0
2, 87800, Note_off_c, 1, 90, 0
2, 87840, Note_on_c, 1, 52, 127
2, 87880, Note_off_c, 1, 52, 0
2, 87880, Note_on_c, 1, 59, 127
2, 87880, Note_on_c, 1, 71, 127
2, 87920, Note_off_c, 1, 59, 0
2, 87920, Note_off_c, 1, 71, 0
2, 88000, Note_on_c, 1, 72, 127
2, 88000, Note_on_c, 1, 79, 127
2, 88000, Note_on_c, 1, 82, 127
2, 88000, Note_on_c, 1, 89, 127
2, 88000, Note_on_c, 1, 96, 127
2, 88000, Note_on_c, 1, 101, 127
2, 88040, Note_on_c, 1, 52, 127
2, 88040, Note_on_c, 1, 56, 127
2, 88040, Note_on_c, 1, 64, 127
2, 88040, Note_on_c, 1, 68, 127
2, 88040, Note_on_c, 1, 71, 127
2, 88040, Note_off_c, 1, 72, 0
2, 88040, Note_off_c, 1, 79, 0
2, 88040, Note_off_c, 1, 82, 0
2, 88040, Note_off_c, 1, 89, 0
2, 88040, Note_off_c, 1, 96, 0
2, 88040, Note_off_c, 1, 101, 0
2, 88200, Note_on_c, 1, 45, 127
2, 88200, Note_off_c, 1, 52, 0
2, 88200, Note_on_c, 1, 60, 127
2, 88200, Note_on_c, 1, 63, 127
2, 88200, Note_off_c, 1, 64, 0
2, 88200, Note_off_c, 1, 68, 0
2, 88200, Note_off_c, 1, 71, 0
2, 88240, Note_off_c, 1, 45, 0
2, 88240, Note_on_c, 1, 49, 127
2, 88240, Note_off_c, 1, 60, 0
2, 88240, Note_off_c, 1, 63, 0
2, 88240, Note_on_c, 1, 64, 127
2, 88240, Note_on_c, 1, 87, 127
2, 88240, Note_on_c, 1, 99, 127
2, 88280, Note_on_c, 1, 43, 127
2, 88280, Note_on_c, 1, 47, 127
2, 88280, Note_off_c, 1, 49, 0
2, 88280, Note_on_c, 1, 50, 127
2, 88280, Note_on_c, 1, 54, 127
2, 88280, Note_off_c, 1, 56, 0
2, 88280, Note_off_c, 1, 64, 0
2, 88280, Note_off_c, 1, 87, 0
2, 88280, Note_off_c, 1, 99, 0
2, 88320, Note_off_c, 1, 43, 0
2, 88320, Note_off_c, 1, 47, 0
2, 88320, Note_off_c, 1, 50, 0
2, 88320, Note_off_c, 1, 54, 0
2, 88320, Note_on_c, 1, 63, 127
2, 88320, Note_on_c, 1, 82, 127
2, 88320, Note_on_c, 1, 87, 127
2, 88320, Note_on_c, 1, 94, 127
2, 88360, Note_off_c, 1, 63, 0
2, 88360, Note_off_c, 1, 82, 0
2, 88360, Note_off_c, 1, 87, 0
2, 88360, Note_off_c, 1, 94, 0
2, 88400, Note_on_c, 1, 57, 127
2, 88400, Note_on_c, 1, 84, 127
2, 88440, Note_on_c, 1, 43, 127
2, 88440, Note_on_c, 1, 53, 127
2, 88440, Note_on_c, 1, 55, 127
2, 88440, Note_off_c, 1, 57, 0
2, 88440, Note_on_c, 1, 59, 127
2, 88440, Note_on_c, 1, 67, 127
2, 88440, Note_off_c, 1, 84, 0
2, 88480, Note_off_c, 1, 43, 0
2, 88480, Note_off_c, 1, 53, 0
2, 88480, Note_off_c, 1, 55, 0
2, 88480, Note_off_c, 1, 59, 0
2, 88480, Note_on_c, 1, 63, 127
2, 88480, Note_on_c, 1, 64, 127
2, 88480, Note_off_c, 1, 67, 0
2, 88480, Note_on_c, 1, 68, 127
2, 88480, Note_on_c, 1, 71, 127
2, 88480, Note_on_c, 1, 75, 127
2, 88520, Note_on_c, 1, 41, 127
2, 88520, Note_on_c, 1, 53, 127
2, 88520, Note_off_c, 1, 63, 0
2, 88520, Note_off_c, 1, 64, 0
2, 88520, Note_off_c, 1, 68, 0
2, 88520, Note_off_c, 1, 71, 0
2, 88520, Note_on_c, 1, 74, 127
2, 88520, Note_off_c, 1, 75, 0
2, 88520, Note_on_c, 1, 81, 127
2, 88520, Note_on_c, 1, 86, 127
2, 88560, Note_off_c, 1, 41, 0
2, 88560, Note_off_c, 1, 53, 0
2, 88560, Note_on_c, 1, 56, 127
2, 88560, Note_on_c, 1, 66, 127
2, 88560, Note_off_c, 1, 74, 0
2, 88560, Note_on_c, 1, 80, 127
2, 88560, Note_off_c, 1, 81, 0
2, 88560, Note_off_c, 1, 86, 0
2, 88560, Note_on_c, 1, 88, 127
2, 88600, Note_off_c, 1, 56, 0
2, 88600, Note_off_c, 1, 66, 0
2, 88600, Note_off_c, 1, 80, 0
2, 88600, Note_off_c, 1, 88, 0
2, 88640, Note_on_c, 1, 86, 127
2, 88640, Note_on_c, 1, 95, 127
2, 88640, Note_on_c, 1, 102, 127
2, 88680, Note_on_c, 1, 34, 127
2, 88680, Note_on_c, 1, 38, 127
2, 88680, Note_on_c, 1, 50, 127
2, 88680, Note_off_c, 1, 86, 0
2, 88680, Note_off_c, 1, 95, 0
2, 88680, Note_off_c, 1, 102, 0
2, 88720, Note_off_c, 1, 34, 0
2, 88720, Note_off_c, 1, 38, 0
2, 88720, Note_off_c, 1, 50, 0
2, 88720, Note_on_c, 1, 51, 127
2, 88720, Note_on_c, 1, 56, 127
2, 88720, Note_on_c, 1, 60, 127
2, 88720, Note_on_c, 1, 89, 127
2, 88760, Note_on_c, 1, 49, 127
2, 88760, Note_off_c, 1, 51, 0
2, 88760, Note_on_c, 1, 54, 127
2, 88760, Note_off_c, 1, 60, 0
2, 88760, Note_on_c, 1, 63, 127
2, 88760, Note_on_c, 1, 68, 127
2, 88760, Note_off_c, 1, 89, 0
2, 88800, Note_off_c, 1, 49, 0
2, 88800, Note_off_c, 1, 54, 0
2, 88800, Note_off_c, 1, 56, 0
2, 88800, Note_off_c, 1, 63, 0
2, 88800, Note_off_c, 1, 68, 0
2, 88800, Note_on_c, 1, 92, 127
2, 88800, Note_on_c, 1, 96, 127
2, 88800, Note_on_c, 1, 99, 127
2, 88800, Note_on_c, 1, 104, 127
2, 88840, Note_on_c, 1, 56, 127
2, 88840, Note_on_c, 1, 63, 127
2, 88840, Note_on_c, 1, 68, 127
2, 88840, Note_on_c, 1, 71, 127
2, 88840, Note_on_c, 1, 80, 127
2, 88840, Note_on_c, 1, 87, 127
2, 88840, Note_off_c, 1, 92, 0
2, 88840, Note_off_c, 1, 96, 0
2, 88840, Note_off_c, 1, 99, 0
2, 88840, Note_off_c, 1, 104, 0
2, 88880, Note_on_c, 1, 50, 127
2, 88880, Note_off_c, 1, 56, 0
2, 88880, Note_on_c, 1, 57, 127
2, 88880, Note_off_c, 1, 63, 0
2, 88880, Note_on_c, 1, 65, 127
2, 88880, Note_off_c, 1, 68, 0
2, 88880, Note_off_c, 1, 71, 0
2, 88880, Note_on_c, 1, 74, 127
2, 88880, Note_on_c, 1, 77, 127
2, 88880, Note_off_c, 1, 80, 0
2, 88880, Note_on_c, 1, 81, 127
2, 88880, Note_on_c, 1, 86, 127
2, 88880, Note_off_c, 1, 87, 0
2, 88920, Note_off_c, 1, 50, 0
2, 88920, Note_on_c, 1, 55, 127
2, 88920, Note_on_c, 1, 56, 127
2, 88920, Note_off_c, 1, 57, 0
2, 88920, Note_off_c, 1, 65, 0
2, 88920, Note_on_c, 1, 67, 127
2, 88920, Note_on_c, 1, 68, 127
2, 88920, Note_off_c, 1, 74, 0
2, 88920, Note_off_c, 1, 77, 0
2, 88920, Note_off_c, 1, 81, 0
2, 88920, Note_off_c, 1, 86, 0
2, 88960, Note_off_c, 1, 55, 0
2, 88960, Note_off_c, 1, 67, 0
2, 89000, Note_on_c, 1, 48, 127
2, 89000, Note_off_c, 1, 56, 0
2, 89000, Note_on_c, 1, 60, 127
2, 89000, Note_off_c, 1, 68, 0
2, 89040, Note_off_c, 1, 48, 0
2, 89040, Note_on_c, 1, 51, 127
2, 89040, Note_on_c, 1, 52, 127
2, 89040, Note_off_c, 1, 60, 0
2, 89040, Note_on_c, 1, 63, 127
2, 89040, Note_on_c, 1, 64, 127
2, 89080, Note_on_c, 1, 37, 127
2, 89080, Note_on_c, 1, 49, 127
2, 89080, Note_off_c, 1, 51, 0
2, 89080, Note_off_c, 1, 52, 0
2, 89080, Note_on_c, 1, 54, 127
2, 89080, Note_on_c, 1, 57, 127
2, 89080, Note_on_c, 1, 61, 127
2, 89080, Note_off_c, 1, 63, 0
2, 89080, Note_off_c, 1, 64, 0
2, 89080, Note_on_c, 1, 66, 127
2, 89080, Note_on_c, 1, 69, 127
2, 89080, Note_on_c, 1, 73, 127
2, 89120, Note_off_c, 1, 54, 0
2, 89120, Note_off_c, 1, 57, 0
2, 89120, Note_off_c, 1, 66, 0
2, 89120, Note_off_c, 1, 69, 0
2, 89160, Note_off_c, 1, 37, 0
2, 89160, Note_on_c, 1, 56, 127
2, 89160, Note_on_c, 1, 59, 127
2, 89160, Note_off_c, 1, 61, 0
2, 89160, Note_off_c, 1, 73, 0
2, 89160, Note_on_c, 1, 75, 127
2, 89200, Note_off_c, 1, 49, 0
2, 89200, Note_off_c, 1, 56, 0
2, 89200, Note_on_c, 1, 57, 127
2, 89200, Note_off_c, 1, 59, 0
2, 89200, Note_on_c, 1, 63, 127
2, 89200, Note_on_c, 1, 66, 127
2, 89200, Note_off_c, 1, 75, 0
2, 89200, Note_on_c, 1, 85, 127
2, 89200, Note_on_c, 1, 87, 127
2, 89240, Note_on_c, 1, 49, 127
2, 89240, Note_off_c, 1, 63, 0
2, 89240, Note_on_c, 1, 76, 127
2, 89240, Note_off_c, 1, 85, 0
2, 89240, Note_off_c, 1, 87, 0
2, 89280, Note_off_c, 1, 49, 0
2, 89280, Note_off_c, 1, 57, 0
2, 89280, Note_off_c, 1, 66, 0
2, 89280, Note_on_c, 1, 68, 127
2, 89280, Note_off_c, 1, 76, 0
2, 89280, Note_on_c, 1, 80, 127
2, 89320, Note_on_c, 1, 53, 127
2, 89320, Note_on_c, 1, 55, 127
2, 89320, Note_on_c, 1, 65, 127
2, 89320, Note_on_c, 1, 67, 127
2, 89320, Note_off_c, 1, 68, 0
2, 89320, Note_off_c, 1, 80, 0
2, 89360, Note_off_c, 1, 53, 0
2, 89360, Note_off_c, 1, 55, 0
2, 89360, Note_on_c, 1, 56, 127
2, 89360, Note_on_c, 1, 58, 127
2, 89360, Note_on_c, 1, 64, 127
2, 89360, Note_off_c, 1, 65, 0
2, 89360, Note_on_c, 1, 66, 127
2, 89360, Note_off_c, 1, 67, 0
2, 89400, Note_on_c, 1, 54, 127
2, 89400, Note_off_c, 1, 58, 0
2, 89400, Note_on_c, 1, 63, 127
2, 89400, Note_off_c, 1, 64, 0
2, 89400, Note_on_c, 1, 65, 127
2, 89400, Note_off_c, 1, 66, 0
2, 89440, Note_on_c, 1, 44, 127
2, 89440, Note_on_c, 1, 48, 127
2, 89440, Note_off_c, 1, 54, 0
2, 89440, Note_off_c, 1, 56, 0
2, 89440, Note_on_c, 1, 60, 127
2, 89440, Note_off_c, 1, 63, 0
2, 89440, Note_off_c, 1, 65, 0
2, 89440, Note_on_c, 1, 66, 127
2, 89440, Note_on_c, 1, 68, 127
2, 89440, Note_on_c, 1, 75, 127
2, 89440, Note_on_c, 1, 78, 127
2, 89480, Note_on_c, 1, 40, 127
2, 89480, Note_off_c, 1, 44, 0
2, 89480, Note_off_c, 1, 48, 0
2, 89480, Note_off_c, 1, 60, 0
2, 89480, Note_off_c, 1, 66, 0
2, 89480, Note_off_c, 1, 68, 0
2, 89480, Note_off_c, 1, 75, 0
2, 89480, Note_on_c, 1, 76, 127
2, 89480, Note_off_c, 1, 78, 0
2, 89480, Note_on_c, 1, 80, 127
2, 89480, Note_on_c, 1, 83, 127
2, 89520, Note_off_c, 1, 40, 0
2, 89520, Note_on_c, 1, 60, 127
2, 89520, Note_on_c, 1, 61, 127
2, 89520, Note_on_c, 1, 73, 127
2, 89520, Note_off_c, 1, 76, 0
2, 89520, Note_on_c, 1, 77, 127
2, 89520, Note_off_c, 1, 80, 0
2, 89520, Note_off_c, 1, 83, 0
2, 89560, Note_on_c, 1, 34, 127
2, 89560, Note_on_c, 1, 46, 127
2, 89560, Note_off_c, 1, 60, 0
2, 89560, Note_off_c, 1, 61, 0
2, 89560, Note_off_c, 1, 73, 0
2, 89560, Note_on_c, 1, 76, 127
2, 89560, Note_off_c, 1, 77, 0
2, 89560, Note_on_c, 1, 83, 127
2, 89560, Note_on_c, 1, 88, 127
2, 89600, Note_off_c, 1, 34, 0
2, 89600, Note_off_c, 1, 46, 0
2, 89600, Note_off_c, 1, 76, 0
2, 89600, Note_on_c, 1, 82, 127
2, 89600, Note_off_c, 1, 83, 0
2, 89600, Note_on_c, 1, 85, 127
2, 89600, Note_off_c, 1, 88, 0
2, 89600, Note_on_c, 1, 89, 127
2, 89600, Note_on_c, 1, 94, 127
2, 89640, Note_on_c, 1, 46, 127
2, 89640, Note_on_c, 1, 53, 127
2, 89640, Note_on_c, 1, 58, 127
2, 89640, Note_on_c, 1, 65, 127
2, 89640, Note_on_c, 1, 74, 127
2, 89640, Note_off_c, 1, 82, 0
2, 89640, Note_off_c, 1, 85, 0
2, 89640, Note_off_c, 1, 89, 0
2, 89640, Note_off_c, 1, 94, 0
2, 89680, Note_off_c, 1, 46, 0
2, 89680, Note_on_c, 1, 61, 127
2, 89680, Note_off_c, 1, 65, 0
2, 89680, Note_on_c, 1, 67, 127
2, 89680, Note_off_c, 1, 74, 0
2, 89720, Note_on_c, 1, 39, 127
2, 89720, Note_on_c, 1, 48, 127
2, 89720, Note_on_c, 1, 51, 127
2, 89720, Note_off_c, 1, 53, 0
2, 89720, Note_off_c, 1, 58, 0
2, 89720, Note_off_c, 1, 61, 0
2, 89720, Note_off_c, 1, 67, 0
2, 89720, Note_on_c, 1, 79, 127
2, 89720, Note_on_c, 1, 84, 127
2, 89760, Note_off_c, 1, 39, 0
2, 89760, Note_off_c, 1, 48, 0
2, 89760, Note_off_c, 1, 51, 0
2, 89760, Note_off_c, 1, 79, 0
2, 89760, Note_off_c, 1, 84, 0
2, 89840, Note_on_c, 1, 50, 127
2, 89840, Note_on_c, 1, 56, 127
2, 89840, Note_on_c, 1, 58, 127
2, 89840, Note_on_c, 1, 68, 127
2, 89840, Note_on_c, 1, 80, 127
2, 89880, Note_off_c, 1, 50, 0
2, 89880, Note_off_c, 1, 56, 0
2, 89880, Note_off_c, 1, 58, 0
2, 89880, Note_off_c, 1, 68, 0
2, 89880, Note_off_c, 1, 80, 0
2, 89920, Note_on_c, 1, 55, 127
2, 89920, Note_on_c, 1, 58, 127
2, 89920, Note_on_c, 1, 70, 127
2, 89920, Note_on_c, 1, 73, 127
2, 89920, Note_on_c, 1, 82, 127
2, 89960, Note_on_c, 1, 54, 127
2, 89960, Note_off_c, 1, 55, 0
2, 89960, Note_off_c, 1, 58, 0
2, 89960, Note_on_c, 1, 66, 127
2, 89960, Note_off_c, 1, 70, 0
2, 89960, Note_off_c, 1, 73, 0
2, 89960, Note_on_c, 1, 76, 127
2, 89960, Note_on_c, 1, 78, 127
2, 89960, Note_on_c, 1, 85, 127
2, 90000, Note_on_c, 1, 47, 127
2, 90000, Note_on_c, 1, 51, 127
2, 90000, Note_off_c, 1, 54, 0
2, 90000, Note_on_c, 1, 56, 127
2, 90000, Note_off_c, 1, 66, 0
2, 90000, Note_on_c, 1, 75, 127
2, 90000, Note_off_c, 1, 76, 0
2, 90000, Note_off_c, 1, 78, 0
2, 90000, Note_off_c, 1, 82, 0
2, 90000, Note_off_c, 1, 85, 0
2, 90000, Note_on_c, 1, 87, 127
2, 90040, Note_on_c, 1, 37, 127
2, 90040, Note_on_c, 1, 41, 127
2, 90040, Note_off_c, 1, 47, 0
2, 90040, Note_on_c, 1, 49, 127
2, 90040, Note_off_c, 1, 51, 0
2, 90040, Note_off_c, 1, 56, 0
2, 90040, Note_on_c, 1, 66, 127
2, 90040, Note_off_c, 1, 75, 0
2, 90040, Note_on_c, 1, 78, 127
2, 90040, Note_off_c, 1, 87, 0
2, 90080, Note_off_c, 1, 37, 0
2, 90080, Note_off_c, 1, 41, 0
2, 90080, Note_on_c, 1, 46, 127
2, 90080, Note_on_c, 1, 48, 127
2, 90080, Note_off_c, 1, 49, 0
2, 90080, Note_on_c, 1, 52, 127
2, 90080, Note_on_c, 1, 60, 127
2, 90080, Note_on_c, 1, 64, 127
2, 90080, Note_off_c, 1, 66, 0
2, 90080, Note_on_c, 1, 72, 127
2, 90080, Note_off_c, 1, 78, 0
2, 90120, Note_on_c, 1, 29, 127
2, 90120, Note_off_c, 1, 46, 0
2, 90120, Note_off_c, 1, 48, 0
2, 90120, Note_off_c, 1, 52, 0
2, 90120, Note_on_c, 1, 57, 127
2, 90120, Note_off_c, 1, 64, 0
2, 90120, Note_on_c, 1, 69, 127
2, 90120, Note_off_c, 1, 72, 0
2, 90160, Note_on_c, 1, 27, 127
2, 90160, Note_off_c, 1, 29, 0
2, 90160, Note_on_c, 1, 39, 127
2, 90160, Note_off_c, 1, 57, 0
2, 90160, Note_off_c, 1, 60, 0
2, 90160, Note_off_c, 1, 69, 0
2, 90160, Note_on_c, 1, 87, 127
2, 90160, Note_on_c, 1, 91, 127
2, 90160, Note_on_c, 1, 94, 127
2, 90160, Note_on_c, 1, 99, 127
2, 90200, Note_off_c, 1, 27, 0
2, 90200, Note_off_c, 1, 39, 0
2, 90200, Note_on_c, 1, 61, 127
2, 90200, Note_on_c, 1, 71, 127
2, 90200, Note_on_c, 1, 76, 127
2, 90200, Note_on_c, 1, 83, 127
2, 90200, Note_off_c, 1, 87, 0
2, 90200, Note_off_c, 1, 91, 0
2, 90200, Note_off_c, 1, 94, 0
2, 90200, Note_off_c, 1, 99, 0
2, 90240, Note_off_c, 1, 61, 0
2, 90240, Note_off_c, 1, 71, 0
2, 90240, Note_off_c, 1, 76, 0
2, 90240, Note_off_c, 1, 83, 0
2, 90280, Note_on_c, 1, 60, 127
2, 90280, Note_on_c, 1, 63, 127
2, 90280, Note_on_c, 1, 66, 127
2, 90280, Note_on_c, 1, 74, 127
2, 90280, Note_on_c, 1, 78, 127
2, 90320, Note_off_c, 1, 60, 0
2, 90320, Note_off_c, 1, 63, 0
2, 90320, Note_off_c, 1, 66, 0
2, 90320, Note_off_c, 1, 74, 0
2, 90320, Note_off_c, 1, 78, 0
2, 90360, Note_on_c, 1, 46, 127
2, 90360, Note_on_c, 1, 81, 127
2, 90360, Note_on_c, 1, 82, 127
2, 90400, Note_off_c, 1, 46, 0
2, 90400, Note_on_c, 1, 63, 127
2, 90400, Note_on_c, 1, 75, 127
2, 90400, Note_off_c, 1, 81, 0
2, 90400, Note_off_c, 1, 82, 0
2, 90400, Note_on_c, 1, 83, 127
2, 90400, Note_on_c, 1, 92, 127
2, 90440, Note_off_c, 1, 63, 0
2, 90440, Note_off_c, 1, 75, 0
2, 90440, Note_off_c, 1, 83, 0
2, 90440, Note_on_c, 1, 86, 127
2, 90440, Note_off_c, 1, 92, 0
2, 90440, Note_on_c, 1, 94, 127
2, 90440, Note_on_c, 1, 98, 127
2, 90480, Note_on_c, 1, 41, 127
2, 90480, Note_on_c, 1, 50, 127
2, 90480, Note_on_c, 1, 56, 127
2, 90480, Note_on_c, 1, 61, 127
2, 90480, Note_off_c, 1, 86, 0
2, 90480, Note_off_c, 1, 94, 0
2, 90480, Note_off_c, 1, 98, 0
2, 90520, Note_off_c, 1, 41, 0
2, 90520, Note_on_c, 1, 43, 127
2, 90520, Note_off_c, 1, 50, 0
2, 90520, Note_off_c, 1, 56, 0
2, 90520, Note_off_c, 1, 61, 0
2, 90520, Note_on_c, 1, 62, 127
2, 90520, Note_on_c, 1, 72, 127
2, 90520, Note_on_c, 1, 79, 127
2, 90560, Note_on_c, 1, 36, 127
2, 90560, Note_on_c, 1, 39, 127
2, 90560, Note_on_c, 1, 42, 127
2, 90560, Note_off_c, 1, 43, 0
2, 90560, Note_on_c, 1, 44, 127
2, 90560, Note_on_c, 1, 56, 127
2, 90560, Note_off_c, 1, 62, 0
2, 90560, Note_off_c, 1, 72, 0
2, 90560, Note_off_c, 1, 79, 0
2, 90600, Note_off_c, 1, 36, 0
2, 90600, Note_off_c, 1, 39, 0
2, 90600, Note_off_c, 1, 42, 0
2, 90600, Note_on_c, 1, 43, 127
2, 90600, Note_off_c, 1, 44, 0
2, 90600, Note_on_c, 1, 49, 127
2, 90600, Note_off_c, 1, 56, 0
2, 90600, Note_on_c, 1, 57, 127
2, 90600, Note_on_c, 1, 65, 127
2, 90640, Note_off_c, 1, 43, 0
2, 90640, Note_on_c, 1, 47, 127
2, 90640, Note_off_c, 1, 49, 0
2, 90640, Note_on_c, 1, 56, 127
2, 90640, Note_off_c, 1, 57, 0
2, 90640, Note_on_c, 1, 64, 127
2, 90640, Note_off_c, 1, 65, 0
2, 90640, Note_on_c, 1, 80, 127
2, 90640, Note_on_c, 1, 88, 127
2, 90640, Note_on_c, 1, 92, 127
2, 90680, Note_off_c, 1, 47, 0
2, 90680, Note_off_c, 1, 56, 0
2, 90680, Note_off_c, 1, 64, 0
2, 90680, Note_off_c, 1, 80, 0
2, 90680, Note_off_c, 1, 88, 0
2, 90680, Note_off_c, 1, 92, 0
2, 90720, Note_on_c, 1, 61, 127
2, 90720, Note_on_c, 1, 65, 127
2, 90720, Note_on_c, 1, 73, 127
2, 90720, Note_on_c, 1, 85, 127
2, 90720, Note_on_c, 1, 89, 127
2, 90760, Note_on_c, 1, 40, 127
2, 90760, Note_on_c, 1, 43, 127
2, 90760, Note_on_c, 1, 52, 127
2, 90760, Note_off_c, 1, 61, 0
2, 90760, Note_off_c, 1, 65, 0
2, 90760, Note_off_c, 1, 73, 0
2, 90760, Note_off_c, 1, 85, 0
2, 90760, Note_on_c, 1, 87, 127
2, 90760, Note_off_c, 1, 89, 0
2, 90800, Note_off_c, 1, 40, 0
2, 90800, Note_off_c, 1, 43, 0
2, 90800, Note_on_c, 1, 44, 127
2, 90800, Note_on_c, 1, 49, 127
2, 90800, Note_off_c, 1, 52, 0
2, 90800, Note_on_c, 1, 53, 127
2, 90800, Note_on_c, 1, 60, 127
2, 90800, Note_off_c, 1, 87, 0
2, 90840, Note_off_c, 1, 44, 0
2, 90840, Note_off_c, 1, 49, 0
2, 90840, Note_off_c, 1, 53, 0
2, 90840, Note_on_c, 1, 55, 127
2, 90840, Note_on_c, 1, 58, 127
2, 90840, Note_off_c, 1, 60, 0
2, 90840, Note_on_c, 1, 63, 127
2, 90840, Note_on_c, 1, 80, 127
2, 90840, Note_on_c, 1, 84, 127
2, 90880, Note_off_c, 1, 55, 0
2, 90880, Note_off_c, 1, 58, 0
2, 90880, Note_off_c, 1, 63, 0
2, 90880, Note_on_c, 1, 77, 127
2, 90880, Note_off_c, 1, 80, 0
2, 90880, Note_on_c, 1, 82, 127
2, 90880, Note_on_c, 1, 87, 127
2, 90880, Note_on_c, 1, 92, 127
2, 90920, Note_on_c, 1, 44, 127
2, 90920, Note_on_c, 1, 59, 127
2, 90920, Note_on_c, 1, 66, 127
2, 90920, Note_off_c, 1, 77, 0
2, 90920, Note_on_c, 1, 80, 127
2, 90920, Note_off_c, 1, 82, 0
2, 90920, Note_off_c, 1, 84, 0
2, 90920, Note_off_c, 1, 87, 0
2, 90920, Note_off_c, 1, 92, 0
2, 90960, Note_off_c, 1, 44, 0
2, 90960, Note_on_c, 1, 47, 127
2, 90960, Note_off_c, 1, 59, 0
2, 90960, Note_off_c, 1, 66, 0
2, 90960, Note_on_c, 1, 83, 127
2, 90960, Note_on_c, 1, 87, 127
2, 90960, Note_on_c, 1, 92, 127
2, 91000, Note_off_c, 1, 47, 0
2, 91000, Note_on_c, 1, 51, 127
2, 91000, Note_off_c, 1, 80, 0
2, 91000, Note_on_c, 1, 82, 127
2, 91000, Note_off_c, 1, 83, 0
2, 91000, Note_on_c, 1, 85, 127
2, 91000, Note_off_c, 1, 87, 0
2, 91000, Note_on_c, 1, 91, 127
2, 91000, Note_off_c, 1, 92, 0
2, 91040, Note_on_c, 1, 33, 127
2, 91040, Note_on_c, 1, 40, 127
2, 91040, Note_on_c, 1, 48, 127
2, 91040, Note_off_c, 1, 51, 0
2, 91040, Note_on_c, 1, 52, 127
2, 91040, Note_on_c, 1, 57, 127
2, 91040, Note_off_c, 1, 82, 0
2, 91040, Note_off_c, 1, 85, 0
2, 91040, Note_off_c, 1, 91, 0
2, 91080, Note_off_c, 1, 33, 0
2, 91080, Note_off_c, 1, 40, 0
2, 91080, Note_off_c, 1, 48, 0
2, 91080, Note_off_c, 1, 52, 0
2, 91080, Note_off_c, 1, 57, 0
2, 91080, Note_on_c, 1, 62, 127
2, 91080, Note_on_c, 1, 67, 127
2, 91080, Note_on_c, 1, 70, 127
2, 91080, Note_on_c, 1, 91, 127
2, 91120, Note_on_c, 1, 57, 127
2, 91120, Note_on_c, 1, 60, 127
2, 91120, Note_off_c, 1, 62, 0
2, 91120, Note_on_c, 1, 63, 127
2, 91120, Note_on_c, 1, 66, 127
2, 91120, Note_off_c, 1, 67, 0
2, 91120, Note_off_c, 1, 70, 0
2, 91120, Note_on_c, 1, 75, 127
2, 91120, Note_off_c, 1, 91, 0
2, 91160, Note_on_c, 1, 52, 127
2, 91160, Note_on_c, 1, 55, 127
2, 91160, Note_off_c, 1, 57, 0
2, 91160, Note_off_c, 1, 60, 0
2, 91160, Note_off_c, 1, 63, 0
2, 91160, Note_off_c, 1, 66, 0
2, 91160, Note_on_c, 1, 67, 127
2, 91160, Note_on_c, 1, 69, 127
2, 91160, Note_off_c, 1, 75, 0
2, 91160, Note_on_c, 1, 76, 127
2, 91160, Note_on_c, 1, 79, 127
2, 91200, Note_on_c, 1, 51, 127
2, 91200, Note_off_c, 1, 52, 0
2, 91200, Note_off_c, 1, 55, 0
2, 91200, Note_on_c, 1, 56, 127
2, 91200, Note_on_c, 1, 66, 127
2, 91200, Note_off_c, 1, 67, 0
2, 91200, Note_off_c, 1, 69, 0
2, 91200, Note_on_c, 1, 72, 127
2, 91200, Note_off_c, 1, 76, 0
2, 91200, Note_on_c, 1, 78, 127
2, 91200, Note_off_c, 1, 79, 0
2, 91240, Note_on_c, 1, 40, 127
2, 91240, Note_on_c, 1, 44, 127
2, 91240, Note_on_c, 1, 49, 127
2, 91240, Note_off_c, 1, 51, 0
2, 91240, Note_on_c, 1, 52, 127
2, 91240, Note_off_c, 1, 56, 0
2, 91240, Note_off_c, 1, 66, 0
2, 91240, Note_off_c, 1, 72, 0
2, 91240, Note_off_c, 1, 78, 0
2, 91240, Note_on_c, 1, 87, 127
2, 91240, Note_on_c, 1, 88, 127
2, 91240, Note_on_c, 1, 100, 127
2, 91280, Note_off_c, 1, 40, 0
2, 91280, Note_off_c, 1, 44, 0
2, 91280, Note_on_c, 1, 47, 127
2, 91280, Note_off_c, 1, 49, 0
2, 91280, Note_off_c, 1, 52, 0
2, 91280, Note_on_c, 1, 54, 127
2, 91280, Note_on_c, 1, 59, 127
2, 91280, Note_on_c, 1, 66, 127
2, 91280, Note_on_c, 1, 75, 127
2, 91280, Note_on_c, 1, 78, 127
2, 91280, Note_on_c, 1, 83, 127
2, 91280, Note_off_c, 1, 88, 0
2, 91280, Note_off_c, 1, 100, 0
2, 91320, Note_off_c, 1, 47, 0
2, 91320, Note_on_c, 1, 48, 127
2, 91320, Note_off_c, 1, 54, 0
2, 91320, Note_on_c, 1, 55, 127
2, 91320, Note_off_c, 1, 59, 0
2, 91320, Note_on_c, 1, 60, 127
2, 91320, Note_off_c, 1, 66, 0
2, 91320, Note_off_c, 1, 75, 0
2, 91320, Note_on_c, 1, 77, 127
2, 91320, Note_off_c, 1, 78, 0
2, 91320, Note_off_c, 1, 83, 0
2, 91320, Note_off_c, 1, 87, 0
2, 91320, Note_on_c, 1, 89, 127
2, 91360, Note_off_c, 1, 48, 0
2, 91360, Note_on_c, 1, 51, 127
2, 91360, Note_off_c, 1, 55, 0
2, 91360, Note_on_c, 1, 58, 127
2, 91360, Note_on_c, 1, 63, 127
2, 91360, Note_on_c, 1, 67, 127
2, 91360, Note_off_c, 1, 77, 0
2, 91360, Note_on_c, 1, 82, 127
2, 91360, Note_off_c, 1, 89, 0
2, 91400, Note_on_c, 1, 48, 127
2, 91400, Note_off_c, 1, 51, 0
2, 91400, Note_off_c, 1, 58, 0
2, 91400, Note_off_c, 1, 60, 0
2, 91400, Note_off_c, 1, 63, 0
2, 91400, Note_off_c, 1, 67, 0
2, 91400, Note_on_c, 1, 73, 127
2, 91400, Note_on_c, 1, 75, 127
2, 91400, Note_off_c, 1, 82, 0
2, 91440, Note_on_c, 1, 44, 127
2, 91440, Note_off_c, 1, 48, 0
2, 91440, Note_on_c, 1, 56, 127
2, 91440, Note_off_c, 1, 73, 0
2, 91440, Note_off_c, 1, 75, 0
2, 91440, Note_on_c, 1, 76, 127
2, 91440, Note_on_c, 1, 88, 127
2, 91440, Note_on_c, 1, 100, 127
2, 91480, Note_on_c, 1, 40, 127
2, 91480, Note_on_c, 1, 41, 127
2, 91480, Note_on_c, 1, 42, 127
2, 91480, Note_off_c, 1, 44, 0
2, 91480, Note_off_c, 1, 56, 0
2, 91480, Note_off_c, 1, 76, 0
2, 91480, Note_off_c, 1, 88, 0
2, 91480, Note_off_c, 1, 100, 0
2, 91520, Note_off_c, 1, 40, 0
2, 91520, Note_off_c, 1, 41, 0
2, 91520, Note_off_c, 1, 42, 0
2, 91520, Note_on_c, 1, 52, 127
2, 91520, Note_on_c, 1, 58, 127
2, 91520, Note_on_c, 1, 61, 127
2, 91520, Note_on_c, 1, 64, 127
2, 91520, Note_on_c, 1, 66, 127
2, 91520, Note_on_c, 1, 73, 127
2, 91560, Note_on_c, 1, 44, 127
2, 91560, Note_on_c, 1, 48, 127
2, 91560, Note_on_c, 1, 51, 127
2, 91560, Note_off_c, 1, 52, 0
2, 91560, Note_on_c, 1, 53, 127
2, 91560, Note_off_c, 1, 58, 0
2, 91560, Note_off_c, 1, 61, 0
2, 91560, Note_off_c, 1, 64, 0
2, 91560, Note_off_c, 1, 66, 0
2, 91560, Note_off_c, 1, 73, 0
2, 91560, Note_on_c, 1, 76, 127
2, 91600, Note_off_c, 1, 44, 0
2, 91600, Note_off_c, 1, 48, 0
2, 91600, Note_off_c, 1, 51, 0
2, 91600, Note_off_c, 1, 53, 0
2, 91600, Note_on_c, 1, 70, 127
2, 91600, Note_off_c, 1, 76, 0
2, 91600, Note_on_c, 1, 79, 127
2, 91600, Note_on_c, 1, 82, 127
2, 91600, Note_on_c, 1, 94, 127
2, 91600, Note_on_c, 1, 99, 127
2, 91600, Note_on_c, 1, 101, 127
2, 91640, Note_on_c, 1, 68, 127
2, 91640, Note_off_c, 1, 70, 0
2, 91640, Note_on_c, 1, 75, 127
2, 91640, Note_off_c, 1, 79, 0
2, 91640, Note_off_c, 1, 82, 0
2, 91640, Note_on_c, 1, 84, 127
2, 91640, Note_on_c, 1, 87, 127
2, 91640, Note_on_c, 1, 92, 127
2, 91640, Note_off_c, 1, 94, 0
2, 91640, Note_off_c, 1, 99, 0
2, 91640, Note_off_c, 1, 101, 0
2, 91680, Note_on_c, 1, 44, 127
2, 91680, Note_on_c, 1, 51, 127
2, 91680, Note_on_c, 1, 60, 127
2, 91680, Note_off_c, 1, 68, 0
2, 91680, Note_off_c, 1, 75, 0
2, 91680, Note_off_c, 1, 84, 0
2, 91680, Note_off_c, 1, 87, 0
2, 91680, Note_off_c, 1, 92, 0
2, 91720, Note_off_c, 1, 44, 0
2, 91720, Note_off_c, 1, 51, 0
2, 91720, Note_on_c, 1, 52, 127
2, 91720, Note_on_c, 1, 56, 127
2, 91720, Note_off_c, 1, 60, 0
2, 91720, Note_on_c, 1, 62, 127
2, 91720, Note_on_c, 1, 70, 127
2, 91760, Note_off_c, 1, 52, 0
2, 91760, Note_off_c, 1, 56, 0
2, 91760, Note_on_c, 1, 67, 127
2, 91760, Note_on_c, 1, 94, 127
2, 91760, Note_on_c, 1, 98, 127
2, 91800, Note_on_c, 1, 57, 127
2, 91800, Note_on_c, 1, 59, 127
2, 91800, Note_off_c, 1, 67, 0
2, 91800, Note_off_c, 1, 70, 0
2, 91800, Note_off_c, 1, 94, 0
2, 91800, Note_off_c, 1, 98, 0
2, 91840, Note_on_c, 1, 41, 127
2, 91840, Note_off_c, 1, 59, 0
2, 91840, Note_off_c, 1, 62, 0
2, 91840, Note_on_c, 1, 77, 127
2, 91880, Note_on_c, 1, 29, 127
2, 91880, Note_off_c, 1, 41, 0
2, 91880, Note_on_c, 1, 53, 127
2, 91880, Note_on_c, 1, 56, 127
2, 91880, Note_off_c, 1, 57, 0
2, 91880, Note_on_c, 1, 65, 127
2, 91880, Note_off_c, 1, 77, 0
2, 91920, Note_off_c, 1, 29, 0
2, 91920, Note_on_c, 1, 49, 127
2, 91920, Note_off_c, 1, 53, 0
2, 91920, Note_on_c, 1, 59, 127
2, 91920, Note_on_c, 1, 63, 127
2, 91920, Note_off_c, 1, 65, 0
2, 91920, Note_on_c, 1, 66, 127
2, 91920, Note_on_c, 1, 68, 127
2, 91960, Note_off_c, 1, 49, 0
2, 91960, Note_on_c, 1, 55, 127
2, 91960, Note_off_c, 1, 56, 0
2, 91960, Note_on_c, 1, 57, 127
2, 91960, Note_off_c, 1, 59, 0
2, 91960, Note_off_c, 1, 63, 0
2, 91960, Note_on_c, 1, 64, 127
2, 91960, Note_off_c, 1, 66, 0
2, 91960, Note_off_c, 1, 68, 0
2, 91960, Note_on_c, 1, 70, 127
2, 92000, Note_on_c, 1, 51, 127
2, 92000, Note_off_c, 1, 64, 0
2, 92000, Note_off_c, 1, 70, 0
2, 92040, Note_off_c, 1, 55, 0
2, 92040, Note_on_c, 1, 56, 127
2, 92040, Note_off_c, 1, 57, 0
2, 92040, Note_on_c, 1, 59, 127
2, 92040, Note_on_c, 1, 63, 127
2, 92040, Note_on_c, 1, 71, 127
2, 92080, Note_off_c, 1, 51, 0
2, 92080, Note_off_c, 1, 56, 0
2, 92080, Note_off_c, 1, 59, 0
2, 92080, Note_off_c, 1, 63, 0
2, 92080, Note_off_c, 1, 71, 0
2, 92160, Note_on_c, 1, 79, 127
2, 92160, Note_on_c, 1, 82, 127
2, 92160, Note_on_c, 1, 88, 127
2, 92160, Note_on_c, 1, 100, 127
2, 92200, Note_on_c, 1, 45, 127
2, 92200, Note_on_c, 1, 52, 127
2, 92200, Note_off_c, 1, 79, 0
2, 92200, Note_off_c, 1, 82, 0
2, 92200, Note_on_c, 1, 83, 127
2, 92200, Note_off_c, 1, 88, 0
2, 92200, Note_on_c, 1, 91, 127
2, 92200, Note_on_c, 1, 95, 127
2, 92200, Note_off_c, 1, 100, 0
2, 92240, Note_on_c, 1, 44, 127
2, 92240, Note_off_c, 1, 45, 0
2, 92240, Note_on_c, 1, 47, 127
2, 92240, Note_on_c, 1, 49, 127
2, 92240, Note_off_c, 1, 52, 0
2, 92240, Note_on_c, 1, 53, 127
2, 92240, Note_on_c, 1, 59, 127
2, 92240, Note_off_c, 1, 83, 0
2, 92240, Note_off_c, 1, 91, 0
2, 92240, Note_off_c, 1, 95, 0
2, 92280, Note_off_c, 1, 44, 0
2, 92280, Note_off_c, 1, 47, 0
2, 92280, Note_off_c, 1, 49, 0
2, 92280, Note_off_c, 1, 53, 0
2, 92280, Note_off_c, 1, 59, 0
2, 92280, Note_on_c, 1, 70, 127
2, 92280, Note_on_c, 1, 73, 127
2, 92280, Note_on_c, 1, 87, 127
2, 92280, Note_on_c, 1, 94, 127
2, 92320, Note_on_c, 1, 43, 127
2, 92320, Note_on_c, 1, 47, 127
2, 92320, Note_on_c, 1, 59, 127
2, 92320, Note_on_c, 1, 65, 127
2, 92320, Note_on_c, 1, 67, 127
2, 92320, Note_off_c, 1, 70, 0
2, 92320, Note_off_c, 1, 73, 0
2, 92320, Note_on_c, 1, 74, 127
2, 92320, Note_on_c, 1, 77, 127
2, 92320, Note_off_c, 1, 87, 0
2, 92320, Note_off_c, 1, 94, 0
2, 92360, Note_on_c, 1, 34, 127
2, 92360, Note_off_c, 1, 43, 0
2, 92360, Note_off_c, 1, 47, 0
2, 92360, Note_on_c, 1, 50, 127
2, 92360, Note_on_c, 1, 56, 127
2, 92360, Note_on_c, 1, 58, 127
2, 92360, Note_off_c, 1, 59, 0
2, 92360, Note_on_c, 1, 62, 127
2, 92360, Note_off_c, 1, 65, 0
2, 92360, Note_off_c, 1, 67, 0
2, 92360, Note_off_c, 1, 74, 0
2, 92360, Note_off_c, 1, 77, 0
2, 92400, Note_off_c, 1, 34, 0
2, 92400, Note_on_c, 1, 36, 127
2, 92400, Note_on_c, 1, 39, 127
2, 92400, Note_on_c, 1, 44, 127
2, 92400, Note_on_c, 1, 48, 127
2, 92400, Note_off_c, 1, 50, 0
2, 92400, Note_off_c, 1, 56, 0
2, 92400, Note_off_c, 1, 58, 0
2, 92400, Note_on_c, 1, 60, 127
2, 92400, Note_off_c, 1, 62, 0
2, 92400, Note_on_c, 1, 63, 127
2, 92400, Note_on_c, 1, 68, 127
2, 92400, Note_on_c, 1, 72, 127
2, 92440, Note_off_c, 1, 36, 0
2, 92440, Note_off_c, 1, 39, 0
2, 92440, Note_off_c, 1, 44, 0
2, 92440, Note_on_c, 1, 52, 127
2, 92440, Note_on_c, 1, 55, 127
2, 92440, Note_off_c, 1, 60, 0
2, 92440, Note_off_c, 1, 63, 0
2, 92440, Note_off_c, 1, 68, 0
2, 92480, Note_off_c, 1, 48, 0
2, 92480, Note_off_c, 1, 52, 0
2, 92480, Note_off_c, 1, 55, 0
2, 92480, Note_on_c, 1, 62, 127
2, 92480, Note_on_c, 1, 71, 127
2, 92480, Note_off_c, 1, 72, 0
2, 92480, Note_on_c, 1, 92, 127
2, 92480, Note_on_c, 1, 97, 127
2, 92520, Note_on_c, 1, 38, 127
2, 92520, Note_on_c, 1, 43, 127
2, 92520, Note_on_c, 1, 53, 127
2, 92520, Note_off_c, 1, 62, 0
2, 92520, Note_off_c, 1, 71, 0
2, 92520, Note_on_c, 1, 80, 127
2, 92520, Note_off_c, 1, 92, 0
2, 92520, Note_off_c, 1, 97, 0
2, 92560, Note_off_c, 1, 38, 0
2, 92560, Note_off_c, 1, 43, 0
2, 92560, Note_off_c, 1, 53, 0
2, 92560, Note_off_c, 1, 80, 0
2, 92600, Note_on_c, 1, 54, 127
2, 92600, Note_on_c, 1, 57, 127
2, 92600, Note_on_c, 1, 74, 127
2, 92600, Note_on_c, 1, 78, 127
2, 92600, Note_on_c, 1, 80, 127
2, 92640, Note_off_c, 1, 54, 0
2, 92640, Note_on_c, 1, 56, 127
2, 92640, Note_off_c, 1, 57, 0
2, 92640, Note_on_c, 1, 67, 127
2, 92640, Note_on_c, 1, 73, 127
2, 92640, Note_off_c, 1, 74, 0
2, 92640, Note_off_c, 1, 80, 0
2, 92640, Note_on_c, 1, 81, 127
2, 92680, Note_off_c, 1, 56, 0
2, 92680, Note_on_c, 1, 60, 127
2, 92680, Note_off_c, 1, 67, 0
2, 92680, Note_off_c, 1, 73, 0
2, 92680, Note_on_c, 1, 76, 127
2, 92680, Note_off_c, 1, 78, 0
2, 92680, Note_on_c, 1, 80, 127
2, 92680, Note_off_c, 1, 81, 0
2, 92680, Note_on_c, 1, 88, 127
2, 92720, Note_on_c, 1, 35, 127
2, 92720, Note_on_c, 1, 47, 127
2, 92720, Note_off_c, 1, 60, 0
2, 92720, Note_off_c, 1, 76, 0
2, 92720, Note_off_c, 1, 80, 0
2, 92720, Note_on_c, 1, 83, 127
2, 92720, Note_on_c, 1, 87, 127
2, 92720, Note_off_c, 1, 88, 0
2, 92720, Note_on_c, 1, 90, 127
2, 92720, Note_on_c, 1, 95, 127
2, 92760, Note_on_c, 1, 33, 127
2, 92760, Note_off_c, 1, 35, 0
2, 92760, Note_on_c, 1, 36, 127
2, 92760, Note_on_c, 1, 39, 127
2, 92760, Note_on_c, 1, 42, 127
2, 92760, Note_on_c, 1, 45, 127
2, 92760, Note_off_c, 1, 47, 0
2, 92760, Note_on_c, 1, 51, 127
2, 92760, Note_on_c, 1, 54, 127
2, 92760, Note_on_c, 1, 60, 127
2, 92760, Note_off_c, 1, 83, 0
2, 92760, Note_off_c, 1, 87, 0
2, 92760, Note_off_c, 1, 90, 0
2, 92760, Note_off_c, 1, 95, 0
2, 92800, Note_off_c, 1, 33, 0
2, 92800, Note_off_c, 1, 36, 0
2, 92800, Note_off_c, 1, 39, 0
2, 92800, Note_off_c, 1, 42, 0
2, 92800, Note_off_c, 1, 45, 0
2, 92800, Note_off_c, 1, 51, 0
2, 92800, Note_on_c, 1, 53, 127
2, 92800, Note_off_c, 1, 54, 0
2, 92800, Note_on_c, 1, 58, 127
2, 92800, Note_on_c, 1, 64, 127
2, 92800, Note_on_c, 1, 84, 127
2, 92840, Note_on_c, 1, 36, 127
2, 92840, Note_on_c, 1, 37, 127
2, 92840, Note_on_c, 1, 48, 127
2, 92840, Note_on_c, 1, 49, 127
2, 92840, Note_off_c, 1, 53, 0
2, 92840, Note_off_c, 1, 58, 0
2, 92840, Note_off_c, 1, 60, 0
2, 92840, Note_off_c, 1, 64, 0
2, 92840, Note_off_c, 1, 84, 0
2, 92920, Note_off_c, 1, 36, 0
2, 92920, Note_off_c, 1, 37, 0
2, 92920, Note_off_c, 1, 48, 0
2, 92920, Note_off_c, 1, 49, 0
2, 93040, Note_on_c, 1, 49, 127
2, 93040, Note_on_c, 1, 53, 127
2, 93040, Note_on_c, 1, 56, 127
2, 93040, Note_on_c, 1, 61, 127
2, 93040, Note_on_c, 1, 73, 127
2, 93040, Note_on_c, 1, 77, 127
2, 93040, Note_on_c, 1, 80, 127
2, 93040, Note_on_c, 1, 85, 127
2, 93240, Note_off_c, 1, 49, 0
2, 93240, Note_off_c, 1, 53, 0
2, 93240, Note_off_c, 1, 56, 0
2, 93240, Note_off_c, 1, 61, 0
2, 93240, Note_off_c, 1, 73, 0
2, 93240, Note_off_c, 1, 77, 0
2, 93240, Note_off_c, 1, 80, 0
2, 93240, Note_off_c, 1, 85, 0
2, 93280, Note_on_c, 1, 53, 127
2, 93280, Note_on_c, 1, 65, 127
2, 93280, Note_on_c, 1, 72, 127
2, 93280, Note_on_c, 1, 77, 127
2, 93280, Note_on_c, 1, 81, 127
2, 93280, Note_on_c, 1, 84, 127
2, 93320, Note_off_c, 1, 53, 0
2, 93320, Note_off_c, 1, 65, 0
2, 93320, Note_off_c, 1, 72, 0
2, 93320, Note_off_c, 1, 77, 0
2, 93320, Note_off_c, 1, 81, 0
2, 93320, Note_off_c, 1, 84, 0
2, 93360, Note_on_c, 1, 41, 127
2, 93360, Note_on_c, 1, 48, 127
2, 93360, Note_on_c, 1, 60, 127
2, 93360, Note_on_c, 1, 65, 127
2, 93360, Note_on_c, 1, 69, 127
2, 93400, Note_off_c, 1, 41, 0
2, 93400, Note_off_c, 1, 48, 0
2, 93400, Note_off_c, 1, 60, 0
2, 93400, Note_off_c, 1, 65, 0
2, 93400, Note_off_c, 1, 69, 0
2, 93440, Note_on_c, 1, 43, 127
2, 93440, Note_on_c, 1, 48, 127
2, 93440, Note_on_c, 1, 52, 127
2, 93440, Note_on_c, 1, 55, 127
2, 93440, Note_on_c, 1, 67, 127
2, 93440, Note_on_c, 1, 72, 127
2, 93440, Note_on_c, 1, 76, 127
2, 93440, Note_on_c, 1, 79, 127
2, 93840, Note_off_c, 1, 43, 0
2, 93840, Note_off_c, 1, 48, 0
2, 93840, Note_off_c, 1, 52, 0
2, 93840, Note_off_c, 1, 55, 0
2, 93840, Note_off_c, 1, 67, 0
2, 93840, Note_off_c, 1, 72, 0
2, 93840, Note_off_c, 1, 76, 0
2, 93840, Note_off_c, 1, 79, 0
2, 93880, Note_on_c, 1, 39, 127
2, 93880, Note_on_c, 1, 71, 127
2, 93880, Note_on_c, 1, 76, 127
2, 93880, Note_on_c, 1, 80, 127
2, 93920, Note_on_c, 1, 33, 127
2, 93920, Note_off_c, 1, 39, 0
2, 93920, Note_on_c, 1, 45, 127
2, 93920, Note_off_c, 1, 71, 0
2, 93920, Note_off_c, 1, 76, 0
2, 93920, Note_on_c, 1, 78, 127
2, 93920, Note_off_c, 1, 80, 0
2, 93920, Note_on_c, 1, 81, 127
2, 93920, Note_on_c, 1, 86, 127
2, 93920, Note_on_c, 1, 90, 127
2, 94080, Note_off_c, 1, 33, 0
2, 94080, Note_off_c, 1, 45, 0
2, 94080, Note_off_c, 1, 78, 0
2, 94080, Note_off_c, 1, 81, 0
2, 94080, Note_off_c, 1, 86, 0
2, 94080, Note_off_c, 1, 90, 0
2, 94120, Note_on_c, 1, 58, 127
2, 94120, Note_on_c, 1, 61, 127
2, 94120, Note_on_c, 1, 64, 127
2, 94120, Note_on_c, 1, 67, 127
2, 94120, Note_on_c, 1, 70, 127
2, 94120, Note_on_c, 1, 73, 127
2, 94120, Note_on_c, 1, 76, 127
2, 94120, Note_on_c, 1, 79, 127
2, 94160, Note_on_c, 1, 35, 127
2, 94160, Note_off_c, 1, 58, 0
2, 94160, Note_off_c, 1, 61, 0
2, 94160, Note_off_c, 1, 64, 0
2, 94160, Note_off_c, 1, 67, 0
2, 94160, Note_off_c, 1, 70, 0
2, 94160, Note_off_c, 1, 73, 0
2, 94160, Note_on_c, 1, 84, 127
2, 94160, Note_on_c, 1, 89, 127
2, 94200, Note_off_c, 1, 35, 0
2, 94200, Note_on_c, 1, 62, 127
2, 94200, Note_on_c, 1, 69, 127
2, 94200, Note_on_c, 1, 71, 127
2, 94200, Note_off_c, 1, 76, 0
2, 94200, Note_on_c, 1, 78, 127
2, 94200, Note_off_c, 1, 79, 0
2, 94200, Note_on_c, 1, 81, 127
2, 94200, Note_on_c, 1, 83, 127
2, 94200, Note_off_c, 1, 84, 0
2, 94200, Note_off_c, 1, 89, 0
2, 94240, Note_off_c, 1, 62, 0
2, 94240, Note_off_c, 1, 69, 0
2, 94240, Note_on_c, 1, 70, 127
2, 94240, Note_off_c, 1, 71, 0
2, 94240, Note_on_c, 1, 75, 127
2, 94240, Note_off_c, 1, 78, 0
2, 94240, Note_on_c, 1, 79, 127
2, 94240, Note_off_c, 1, 81, 0
2, 94240, Note_off_c, 1, 83, 0
2, 94240, Note_on_c, 1, 91, 127
2, 94280, Note_on_c, 1, 63, 127
2, 94280, Note_on_c, 1, 69, 127
2, 94280, Note_off_c, 1, 70, 0
2, 94280, Note_on_c, 1, 73, 127
2, 94280, Note_off_c, 1, 75, 0
2, 94280, Note_on_c, 1, 76, 127
2, 94280, Note_off_c, 1, 79, 0
2, 94280, Note_on_c, 1, 80, 127
2, 94280, Note_off_c, 1, 91, 0
2, 94320, Note_off_c, 1, 63, 0
2, 94320, Note_off_c, 1, 69, 0
2, 94320, Note_off_c, 1, 73, 0
2, 94320, Note_off_c, 1, 76, 0
2, 94320, Note_off_c, 1, 80, 0
2, 94360, Note_on_c, 1, 38, 127
2, 94360, Note_on_c, 1, 50, 127
2, 94360, Note_on_c, 1, 65, 127
2, 94360, Note_on_c, 1, 69, 127
2, 94360, Note_on_c, 1, 71, 127
2, 94360, Note_on_c, 1, 74, 127
2, 94400, Note_off_c, 1, 38, 0
2, 94400, Note_off_c, 1, 50, 0
2, 94400, Note_on_c, 1, 57, 127
2, 94400, Note_on_c, 1, 64, 127
2, 94400, Note_off_c, 1, 65, 0
2, 94400, Note_off_c, 1, 71, 0
2, 94400, Note_on_c, 1, 72, 127
2, 94400, Note_off_c, 1, 74, 0
2, 94400, Note_on_c, 1, 78, 127
2, 94440, Note_on_c, 1, 53, 127
2, 94440, Note_off_c, 1, 57, 0
2, 94440, Note_on_c, 1, 58, 127
2, 94440, Note_off_c, 1, 64, 0
2, 94440, Note_on_c, 1, 67, 127
2, 94440, Note_off_c, 1, 69, 0
2, 94440, Note_off_c, 1, 72, 0
2, 94440, Note_off_c, 1, 78, 0
2, 94440, Note_on_c, 1, 85, 127
2, 94480, Note_off_c, 1, 53, 0
2, 94480, Note_off_c, 1, 58, 0
2, 94480, Note_off_c, 1, 67, 0
2, 94480, Note_off_c, 1, 85, 0
2, 94520, Note_on_c, 1, 38, 127
2, 94520, Note_on_c, 1, 50, 127
2, 94520, Note_on_c, 1, 65, 127
2, 94520, Note_on_c, 1, 69, 127
2, 94520, Note_on_c, 1, 71, 127
2, 94520, Note_on_c, 1, 74, 127
2, 94760, Note_off_c, 1, 38, 0
2, 94760, Note_off_c, 1, 50, 0
2, 94760, Note_off_c, 1, 65, 0
2, 94760, Note_off_c, 1, 69, 0
2, 94760, Note_off_c, 1, 71, 0
2, 94760, Note_off_c, 1, 74, 0
2, 94800, Note_on_c, 1, 62, 127
2, 94800, Note_on_c, 1, 65, 127
2, 94800, Note_on_c, 1, 68, 127
2, 94800, Note_on_c, 1, 92, 127
2, 94800, Note_on_c, 1, 101, 127
2, 94840, Note_on_c, 1, 60, 127
2, 94840, Note_off_c, 1, 62, 0
2, 94840, Note_off_c, 1, 68, 0
2, 94840, Note_on_c, 1, 70, 127
2, 94840, Note_on_c, 1, 79, 127
2, 94840, Note_off_c, 1, 92, 0
2, 94840, Note_off_c, 1, 101, 0
2, 94880, Note_on_c, 1, 33, 127
2, 94880, Note_on_c, 1, 40, 127
2, 94880, Note_on_c, 1, 45, 127
2, 94880, Note_on_c, 1, 49, 127
2, 94880, Note_on_c, 1, 52, 127
2, 94880, Note_on_c, 1, 57, 127
2, 94880, Note_off_c, 1, 60, 0
2, 94880, Note_on_c, 1, 61, 127
2, 94880, Note_on_c, 1, 64, 127
2, 94880, Note_off_c, 1, 65, 0
2, 94880, Note_on_c, 1, 69, 127
2, 94880, Note_off_c, 1, 70, 0
2, 94880, Note_off_c, 1, 79, 0
2, 94880, Note_on_c, 1, 81, 127
2, 94880, Note_on_c, 1, 85, 127
2, 94880, Note_on_c, 1, 93, 127
2, 94920, Note_off_c, 1, 33, 0
2, 94920, Note_off_c, 1, 40, 0
2, 94920, Note_off_c, 1, 45, 0
2, 94920, Note_off_c, 1, 49, 0
2, 94920, Note_off_c, 1, 52, 0
2, 94920, Note_off_c, 1, 57, 0
2, 94920, Note_on_c, 1, 59, 127
2, 94920, Note_off_c, 1, 61, 0
2, 94920, Note_off_c, 1, 64, 0
2, 94920, Note_off_c, 1, 69, 0
2, 94920, Note_on_c, 1, 73, 127
2, 94920, Note_off_c, 1, 81, 0
2, 94920, Note_on_c, 1, 82, 127
2, 94920, Note_off_c, 1, 85, 0
2, 94920, Note_off_c, 1, 93, 0
2, 94920, Note_on_c, 1, 94, 127
2, 94960, Note_off_c, 1, 59, 0
2, 94960, Note_on_c, 1, 66, 127
2, 94960, Note_on_c, 1, 76, 127
2, 94960, Note_on_c, 1, 78, 127
2, 94960, Note_on_c, 1, 90, 127
2, 94960, Note_off_c, 1, 94, 0
2, 95000, Note_on_c, 1, 37, 127
2, 95000, Note_on_c, 1, 44, 127
2, 95000, Note_on_c, 1, 49, 127
2, 95000, Note_on_c, 1, 52, 127
2, 95000, Note_on_c, 1, 56, 127
2, 95000, Note_on_c, 1, 61, 127
2, 95000, Note_on_c, 1, 64, 127
2, 95000, Note_off_c, 1, 66, 0
2, 95000, Note_off_c, 1, 76, 0
2, 95000, Note_off_c, 1, 78, 0
2, 95000, Note_off_c, 1, 82, 0
2, 95000, Note_off_c, 1, 90, 0
2, 95040, Note_off_c, 1, 37, 0
2, 95040, Note_off_c, 1, 44, 0
2, 95040, Note_off_c, 1, 49, 0
2, 95040, Note_off_c, 1, 52, 0
2, 95040, Note_off_c, 1, 56, 0
2, 95040, Note_off_c, 1, 61, 0
2, 95040, Note_off_c, 1, 64, 0
2, 95040, Note_off_c, 1, 73, 0
2, 95080, Note_on_c, 1, 53, 127
2, 95080, Note_on_c, 1, 56, 127
2, 95080, Note_on_c, 1, 62, 127
2, 95080, Note_on_c, 1, 65, 127
2, 95240, Note_on_c, 1, 32, 127
2, 95240, Note_on_c, 1, 44, 127
2, 95240, Note_off_c, 1, 53, 0
2, 95240, Note_off_c, 1, 56, 0
2, 95240, Note_off_c, 1, 62, 0
2, 95240, Note_on_c, 1, 63, 127
2, 95240, Note_off_c, 1, 65, 0
2, 95240, Note_on_c, 1, 66, 127
2, 95240, Note_on_c, 1, 72, 127
2, 95280, Note_off_c, 1, 32, 0
2, 95280, Note_off_c, 1, 44, 0
2, 95280, Note_off_c, 1, 63, 0
2, 95280, Note_off_c, 1, 66, 0
2, 95280, Note_off_c, 1, 72, 0
2, 95320, Note_on_c, 1, 46, 127
2, 95320, Note_on_c, 1, 53, 127
2, 95320, Note_on_c, 1, 56, 127
2, 95320, Note_on_c, 1, 62, 127
2, 95320, Note_on_c, 1, 65, 127
2, 95320, Note_on_c, 1, 68, 127
2, 95320, Note_on_c, 1, 70, 127
2, 95360, Note_off_c, 1, 53, 0
2, 95360, Note_off_c, 1, 56, 0
2, 95360, Note_off_c, 1, 62, 0
2, 95360, Note_off_c, 1, 65, 0
2, 95360, Note_off_c, 1, 68, 0
2, 95400, Note_on_c, 1, 53, 127
2, 95400, Note_on_c, 1, 56, 127
2, 95400, Note_on_c, 1, 62, 127
2, 95400, Note_on_c, 1, 65, 127
2, 95400, Note_on_c, 1, 68, 127
2, 95480, Note_off_c, 1, 53, 0
2, 95480, Note_off_c, 1, 56, 0
2, 95480, Note_off_c, 1, 62, 0
2, 95480, Note_off_c, 1, 65, 0
2, 95480, Note_off_c, 1, 68, 0
2, 95520, Note_on_c, 1, 53, 127
2, 95520, Note_on_c, 1, 56, 127
2, 95520, Note_on_c, 1, 62, 127
2, 95520, Note_on_c, 1, 65, 127
2, 95520, Note_on_c, 1, 68, 127
2, 95560, Note_off_c, 1, 53, 0
2, 95560, Note_off_c, 1, 56, 0
2, 95560, Note_off_c, 1, 62, 0
2, 95560, Note_off_c, 1, 65, 0
2, 95560, Note_off_c, 1, 68, 0
2, 95600, Note_on_c, 1, 53, 127
2, 95600, Note_on_c, 1, 56, 127
2, 95600, Note_on_c, 1, 62, 127
2, 95600, Note_on_c, 1, 65, 127
2, 95600, Note_on_c, 1, 68, 127
2, 95680, Note_off_c, 1, 53, 0
2, 95680, Note_off_c, 1, 56, 0
2, 95680, Note_off_c, 1, 62, 0
2, 95680, Note_off_c, 1, 65, 0
2, 95680, Note_off_c, 1, 68, 0
2, 95720, Note_off_c, 1, 46, 0
2, 95720, Note_on_c, 1, 55, 127
2, 95720, Note_off_c, 1, 70, 0
2, 95720, Note_on_c, 1, 93, 127
2, 95720, Note_on_c, 1, 96, 127
2, 95760, Note_on_c, 1, 40, 127
2, 95760, Note_on_c, 1, 42, 127
2, 95760, Note_on_c, 1, 52, 127
2, 95760, Note_off_c, 1, 55, 0
2, 95760, Note_on_c, 1, 84, 127
2, 95760, Note_off_c, 1, 93, 0
2, 95760, Note_off_c, 1, 96, 0
2, 95800, Note_off_c, 1, 40, 0
2, 95800, Note_off_c, 1, 42, 0
2, 95800, Note_off_c, 1, 52, 0
2, 95800, Note_on_c, 1, 70, 127
2, 95800, Note_off_c, 1, 84, 0
2, 95800, Note_on_c, 1, 90, 127
2, 95800, Note_on_c, 1, 93, 127
2, 95840, Note_on_c, 1, 46, 127
2, 95840, Note_on_c, 1, 56, 127
2, 95840, Note_on_c, 1, 61, 127
2, 95840, Note_on_c, 1, 65, 127
2, 95840, Note_off_c, 1, 90, 0
2, 95840, Note_off_c, 1, 93, 0
2, 95880, Note_off_c, 1, 46, 0
2, 95880, Note_off_c, 1, 56, 0
2, 95880, Note_on_c, 1, 64, 127
2, 95880, Note_off_c, 1, 65, 0
2, 95880, Note_on_c, 1, 69, 127
2, 95880, Note_off_c, 1, 70, 0
2, 95880, Note_on_c, 1, 76, 127
2, 95880, Note_on_c, 1, 85, 127
2, 95880, Note_on_c, 1, 88, 127
2, 95920, Note_on_c, 1, 57, 127
2, 95920, Note_on_c, 1, 59, 127
2, 95920, Note_off_c, 1, 61, 0
2, 95920, Note_on_c, 1, 63, 127
2, 95920, Note_off_c, 1, 64, 0
2, 95920, Note_on_c, 1, 66, 127
2, 95920, Note_on_c, 1, 67, 127
2, 95920, Note_off_c, 1, 69, 0
2, 95920, Note_off_c, 1, 76, 0
2, 95920, Note_off_c, 1, 85, 0
2, 95920, Note_off_c, 1, 88, 0
2, 95960, Note_on_c, 1, 43, 127
2, 95960, Note_on_c, 1, 48, 127
2, 95960, Note_on_c, 1, 55, 127
2, 95960, Note_off_c, 1, 57, 0
2, 95960, Note_on_c, 1, 58, 127
2, 95960, Note_off_c, 1, 59, 0
2, 95960, Note_on_c, 1, 62, 127
2, 95960, Note_off_c, 1, 63, 0
2, 95960, Note_on_c, 1, 64, 127
2, 95960, Note_off_c, 1, 66, 0
2, 95960, Note_off_c, 1, 67, 0
2, 95960, Note_on_c, 1, 70, 127
2, 95960, Note_on_c, 1, 74, 127
2, 96000, Note_off_c, 1, 43, 0
2, 96000, Note_off_c, 1, 48, 0
2, 96000, Note_off_c, 1, 55, 0
2, 96000, Note_off_c, 1, 58, 0
2, 96000, Note_off_c, 1, 64, 0
2, 96000, Note_on_c, 1, 67, 127
2, 96000, Note_on_c, 1, 69, 127
2, 96000, Note_off_c, 1, 70, 0
2, 96000, Note_on_c, 1, 91, 127
2, 96000, Note_on_c, 1, 96, 127
2, 96040, Note_off_c, 1, 62, 0
2, 96040, Note_on_c, 1, 66, 127
2, 96040, Note_off_c, 1, 69, 0
2, 96040, Note_off_c, 1, 74, 0
2, 96040, Note_on_c, 1, 89, 127
2, 96040, Note_off_c, 1, 91, 0
2, 96040, Note_off_c, 1, 96, 0
2, 96040, Note_on_c, 1, 98, 127
2, 96080, Note_on_c, 1, 36, 127
2, 96080, Note_on_c, 1, 49, 127
2, 96080, Note_on_c, 1, 52, 127
2, 96080, Note_on_c, 1, 55, 127
2, 96080, Note_off_c, 1, 66, 0
2, 96080, Note_off_c, 1, 67, 0
2, 96080, Note_off_c, 1, 89, 0
2, 96080, Note_off_c, 1, 98, 0
2, 96120, Note_off_c, 1, 36, 0
2, 96120, Note_off_c, 1, 49, 0
2, 96120, Note_off_c, 1, 52, 0
2, 96120, Note_off_c, 1, 55, 0
2, 96120, Note_on_c, 1, 66, 127
2, 96160, Note_on_c, 1, 39, 127
2, 96160, Note_on_c, 1, 46, 127
2, 96160, Note_on_c, 1, 59, 127
2, 96160, Note_on_c, 1, 69, 127
2, 96160, Note_on_c, 1, 71, 127
2, 96520, Note_off_c, 1, 39, 0
2, 96520, Note_off_c, 1, 46, 0
2, 96520, Note_off_c, 1, 59, 0
2, 96520, Note_off_c, 1, 66, 0
2, 96520, Note_off_c, 1, 69, 0
2, 96520, Note_off_c, 1, 71, 0
2, 96560, Note_on_c, 1, 39, 127
2, 96560, Note_on_c, 1, 46, 127
2, 96560, Note_on_c, 1, 59, 127
2, 96560, Note_on_c, 1, 66, 127
2, 96560, Note_on_c, 1, 69, 127
2, 96560, Note_on_c, 1, 71, 127
2, 96600, Note_off_c, 1, 39, 0
2, 96600, Note_off_c, 1, 46, 0
2, 96600, Note_off_c, 1, 59, 0
2, 96600, Note_off_c, 1, 66, 0
2, 96600, Note_on_c, 1, 68, 127
2, 96600, Note_off_c, 1, 69, 0
2, 96600, Note_off_c, 1, 71, 0
2, 96640, Note_on_c, 1, 46, 127
2, 96640, Note_on_c, 1, 53, 127
2, 96640, Note_on_c, 1, 65, 127
2, 96640, Note_off_c, 1, 68, 0
2, 96640, Note_on_c, 1, 73, 127
2, 96640, Note_on_c, 1, 77, 127
2, 96960, Note_off_c, 1, 46, 0
2, 96960, Note_off_c, 1, 65, 0
2, 96960, Note_off_c, 1, 73, 0
2, 96960, Note_off_c, 1, 77, 0
2, 97000, Note_on_c, 1, 41, 127
2, 97000, Note_on_c, 1, 48, 127
2, 97000, Note_on_c, 1, 57, 127
2, 97000, Note_on_c, 1, 65, 127
2, 97040, Note_off_c, 1, 48, 0
2, 97040, Note_off_c, 1, 53, 0
2, 97040, Note_on_c, 1, 56, 127
2, 97040, Note_off_c, 1, 57, 0
2, 97040, Note_off_c, 1, 65, 0
2, 97080, Note_on_c, 1, 53, 127
2, 97080, Note_off_c, 1, 56, 0
2, 97120, Note_off_c, 1, 53, 0
2, 97160, Note_on_c, 1, 50, 127
2, 97200, Note_off_c, 1, 41, 0
2, 97200, Note_off_c, 1, 50, 0
2, 97200, Note_on_c, 1, 52, 127
2, 97200, Note_on_c, 1, 53, 127
2, 97240, Note_off_c, 1, 52, 0
2, 97240, Note_off_c, 1, 53, 0
2, 97240, Note_on_c, 1, 61, 127
2, 97280, Note_on_c, 1, 33, 127
2, 97280, Note_on_c, 1, 40, 127
2, 97280, Note_on_c, 1, 45, 127
2, 97280, Note_on_c, 1, 57, 127
2, 97280, Note_on_c, 1, 60, 127
2, 97280, Note_off_c, 1, 61, 0
2, 97280, Note_on_c, 1, 64, 127
2, 97280, Note_on_c, 1, 69, 127
2, 97560, Note_off_c, 1, 33, 0
2, 97560, Note_off_c, 1, 40, 0
2, 97560, Note_off_c, 1, 45, 0
2, 97560, Note_on_c, 1, 54, 127
2, 97560, Note_off_c, 1, 57, 0
2, 97560, Note_off_c, 1, 60, 0
2, 97560, Note_off_c, 1, 64, 0
2, 97560, Note_off_c, 1, 69, 0
2, 97560, Note_on_c, 1, 78, 127
2, 97560, Note_on_c, 1, 90, 127
2, 97560, Note_on_c, 1, 93, 127
2, 97600, Note_off_c, 1, 54, 0
2, 97600, Note_off_c, 1, 78, 0
2, 97600, Note_off_c, 1, 90, 0
2, 97600, Note_off_c, 1, 93, 0
2, 97640, Note_on_c, 1, 64, 127
2, 97640, Note_on_c, 1, 66, 127
2, 97640, Note_on_c, 1, 76, 127
2, 97640, Note_on_c, 1, 78, 127
2, 97720, Note_off_c, 1, 64, 0
2, 97720, Note_off_c, 1, 66, 0
2, 97720, Note_off_c, 1, 76, 0
2, 97720, Note_off_c, 1, 78, 0
2, 97760, Note_on_c, 1, 30, 127
2, 97760, Note_on_c, 1, 42, 127
2, 97760, Note_on_c, 1, 71, 127
2, 97760, Note_on_c, 1, 77, 127
2, 97760, Note_on_c, 1, 80, 127
2, 97760, Note_on_c, 1, 86, 127
2, 98000, Note_off_c, 1, 30, 0
2, 98000, Note_off_c, 1, 42, 0
2, 98000, Note_off_c, 1, 71, 0
2, 98000, Note_off_c, 1, 77, 0
2, 98000, Note_off_c, 1, 80, 0
2, 98000, Note_off_c, 1, 86, 0
2, 98040, Note_on_c, 1, 49, 127
2, 98040, Note_on_c, 1, 61, 127
2, 98040, Note_on_c, 1, 65, 127
2, 98040, Note_on_c, 1, 73, 127
2, 98040, Note_on_c, 1, 77, 127
2, 98280, Note_off_c, 1, 49, 0
2, 98280, Note_off_c, 1, 61, 0
2, 98280, Note_off_c, 1, 65, 0
2, 98280, Note_off_c, 1, 73, 0
2, 98280, Note_off_c, 1, 77, 0
2, 98320, Note_on_c, 1, 64, 127
2, 98320, Note_on_c, 1, 72, 127
2, 98320, Note_on_c, 1, 91, 127
2, 98320, Note_on_c, 1, 93, 127
2, 98360, Note_on_c, 1, 46, 127
2, 98360, Note_on_c, 1, 56, 127
2, 98360, Note_on_c, 1, 61, 127
2, 98360, Note_on_c, 1, 68, 127
2, 98360, Note_off_c, 1, 72, 0
2, 98360, Note_on_c, 1, 73, 127
2, 98360, Note_on_c, 1, 85, 127
2, 98360, Note_off_c, 1, 91, 0
2, 98360, Note_off_c, 1, 93, 0
2, 98400, Note_on_c, 1, 32, 127
2, 98400, Note_on_c, 1, 44, 127
2, 98400, Note_off_c, 1, 46, 0
2, 98400, Note_on_c, 1, 51, 127
2, 98400, Note_on_c, 1, 59, 127
2, 98400, Note_off_c, 1, 61, 0
2, 98400, Note_off_c, 1, 64, 0
2, 98400, Note_off_c, 1, 68, 0
2, 98400, Note_off_c, 1, 73, 0
2, 98400, Note_off_c, 1, 85, 0
2, 98440, Note_off_c, 1, 32, 0
2, 98440, Note_off_c, 1, 44, 0
2, 98440, Note_off_c, 1, 51, 0
2, 98440, Note_off_c, 1, 56, 0
2, 98440, Note_off_c, 1, 59, 0
2, 98480, Note_on_c, 1, 41, 127
2, 98480, Note_on_c, 1, 53, 127
2, 98480, Note_on_c, 1, 65, 127
2, 98480, Note_on_c, 1, 71, 127
2, 98480, Note_on_c, 1, 74, 127
2, 98520, Note_off_c, 1, 41, 0
2, 98520, Note_off_c, 1, 53, 0
2, 98520, Note_on_c, 1, 63, 127
2, 98520, Note_off_c, 1, 65, 0
2, 98520, Note_on_c, 1, 70, 127
2, 98520, Note_off_c, 1, 71, 0
2, 98520, Note_on_c, 1, 86, 127
2, 98520, Note_on_c, 1, 94, 127
2, 98520, Note_on_c, 1, 98, 127
2, 98560, Note_on_c, 1, 39, 127
2, 98560, Note_on_c, 1, 51, 127
2, 98560, Note_off_c, 1, 63, 0
2, 98560, Note_off_c, 1, 70, 0
2, 98560, Note_on_c, 1, 73, 127
2, 98560, Note_off_c, 1, 74, 0
2, 98560, Note_on_c, 1, 75, 127
2, 98560, Note_on_c, 1, 79, 127
2, 98560, Note_on_c, 1, 82, 127
2, 98560, Note_off_c, 1, 86, 0
2, 98560, Note_off_c, 1, 94, 0
2, 98560, Note_off_c, 1, 98, 0
2, 98600, Note_off_c, 1, 39, 0
2, 98600, Note_off_c, 1, 51, 0
2, 98600, Note_on_c, 1, 56, 127
2, 98600, Note_on_c, 1, 59, 127
2, 98600, Note_on_c, 1, 64, 127
2, 98600, Note_on_c, 1, 68, 127
2, 98600, Note_off_c, 1, 73, 0
2, 98600, Note_off_c, 1, 75, 0
2, 98600, Note_on_c, 1, 76, 127
2, 98600, Note_off_c, 1, 79, 0
2, 98600, Note_on_c, 1, 80, 127
2, 98600, Note_off_c, 1, 82, 0
2, 98600, Note_on_c, 1, 83, 127
2, 98600, Note_on_c, 1, 88, 127
2, 98640, Note_on_c, 1, 30, 127
2, 98640, Note_on_c, 1, 37, 127
2, 98640, Note_on_c, 1, 42, 127
2, 98640, Note_off_c, 1, 56, 0
2, 98640, Note_off_c, 1, 59, 0
2, 98640, Note_off_c, 1, 64, 0
2, 98640, Note_off_c, 1, 68, 0
2, 98640, Note_off_c, 1, 76, 0
2, 98640, Note_off_c, 1, 80, 0
2, 98640, Note_on_c, 1, 81, 127
2, 98640, Note_off_c, 1, 83, 0
2, 98640, Note_on_c, 1, 85, 127
2, 98640, Note_off_c, 1, 88, 0
2, 98680, Note_off_c, 1, 30, 0
2, 98680, Note_off_c, 1, 37, 0
2, 98680, Note_off_c, 1, 42, 0
2, 98680, Note_on_c, 1, 52, 127
2, 98680, Note_on_c, 1, 62, 127
2, 98680, Note_on_c, 1, 64, 127
2, 98680, Note_on_c, 1, 68, 127
2, 98680, Note_on_c, 1, 71, 127
2, 98680, Note_on_c, 1, 76, 127
2, 98680, Note_off_c, 1, 81, 0
2, 98680, Note_off_c, 1, 85, 0
2, 98720, Note_off_c, 1, 64, 0
2, 98720, Note_off_c, 1, 71, 0
2, 98720, Note_on_c, 1, 74, 127
2, 98720, Note_off_c, 1, 76, 0
2, 98720, Note_on_c, 1, 77, 127
2, 98760, Note_on_c, 1, 43, 127
2, 98760, Note_on_c, 1, 46, 127
2, 98760, Note_on_c, 1, 51, 127
2, 98760, Note_off_c, 1, 52, 0
2, 98760, Note_on_c, 1, 55, 127
2, 98760, Note_off_c, 1, 62, 0
2, 98760, Note_off_c, 1, 68, 0
2, 98760, Note_off_c, 1, 74, 0
2, 98760, Note_off_c, 1, 77, 0
2, 98760, Note_on_c, 1, 79, 127
2, 98800, Note_off_c, 1, 43, 0
2, 98800, Note_off_c, 1, 46, 0
2, 98800, Note_off_c, 1, 51, 0
2, 98800, Note_off_c, 1, 55, 0
2, 98800, Note_on_c, 1, 59, 127
2, 98800, Note_on_c, 1, 63, 127
2, 98800, Note_on_c, 1, 68, 127
2, 98800, Note_off_c, 1, 79, 0
2, 98800, Note_on_c, 1, 96, 127
2, 98840, Note_off_c, 1, 59, 0
2, 98840, Note_off_c, 1, 63, 0
2, 98840, Note_off_c, 1, 68, 0
2, 98840, Note_on_c, 1, 79, 127
2, 98840, Note_on_c, 1, 80, 127
2, 98840, Note_on_c, 1, 82, 127
2, 98840, Note_on_c, 1, 83, 127
2, 98840, Note_on_c, 1, 87, 127
2, 98840, Note_on_c, 1, 88, 127
2, 98840, Note_on_c, 1, 91, 127
2, 98840, Note_on_c, 1, 92, 127
2, 98840, Note_off_c, 1, 96, 0
2, 98840, Note_on_c, 1, 99, 127
2, 98840, Note_on_c, 1, 100, 127
2, 98880, Note_on_c, 1, 41, 127
2, 98880, Note_on_c, 1, 49, 127
2, 98880, Note_on_c, 1, 59, 127
2, 98880, Note_on_c, 1, 73, 127
2, 98880, Note_off_c, 1, 79, 0
2, 98880, Note_off_c, 1, 80, 0
2, 98880, Note_off_c, 1, 82, 0
2, 98880, Note_off_c, 1, 83, 0
2, 98880, Note_off_c, 1, 87, 0
2, 98880, Note_off_c, 1, 88, 0
2, 98880, Note_off_c, 1, 91, 0
2, 98880, Note_off_c, 1, 92, 0
2, 98880, Note_off_c, 1, 99, 0
2, 98880, Note_off_c, 1, 100, 0
2, 98920, Note_off_c, 1, 41, 0
2, 98920, Note_on_c, 1, 47, 127
2, 98920, Note_off_c, 1, 49, 0
2, 98920, Note_on_c, 1, 52, 127
2, 98920, Note_off_c, 1, 59, 0
2, 98920, Note_on_c, 1, 67, 127
2, 98920, Note_on_c, 1, 71, 127
2, 98920, Note_off_c, 1, 73, 0
2, 98920, Note_on_c, 1, 76, 127
2, 98960, Note_on_c, 1, 46, 127
2, 98960, Note_off_c, 1, 47, 0
2, 98960, Note_off_c, 1, 52, 0
2, 98960, Note_on_c, 1, 54, 127
2, 98960, Note_on_c, 1, 65, 127
2, 98960, Note_off_c, 1, 67, 0
2, 98960, Note_off_c, 1, 71, 0
2, 98960, Note_on_c, 1, 73, 127
2, 98960, Note_off_c, 1, 76, 0
2, 98960, Note_on_c, 1, 77, 127
2, 99000, Note_on_c, 1, 29, 127
2, 99000, Note_on_c, 1, 41, 127
2, 99000, Note_off_c, 1, 46, 0
2, 99000, Note_on_c, 1, 53, 127
2, 99000, Note_off_c, 1, 54, 0
2, 99000, Note_on_c, 1, 57, 127
2, 99000, Note_on_c, 1, 63, 127
2, 99000, Note_off_c, 1, 73, 0
2, 99000, Note_off_c, 1, 77, 0
2, 99040, Note_off_c, 1, 29, 0
2, 99040, Note_on_c, 1, 38, 127
2, 99040, Note_off_c, 1, 41, 0
2, 99040, Note_off_c, 1, 57, 0
2, 99040, Note_off_c, 1, 63, 0
2, 99040, Note_off_c, 1, 65, 0
2, 99040, Note_on_c, 1, 89, 127
2, 99040, Note_on_c, 1, 92, 127
2, 99080, Note_off_c, 1, 38, 0
2, 99080, Note_on_c, 1, 40, 127
2, 99080, Note_on_c, 1, 43, 127
2, 99080, Note_on_c, 1, 48, 127
2, 99080, Note_on_c, 1, 52, 127
2, 99080, Note_off_c, 1, 53, 0
2, 99080, Note_on_c, 1, 84, 127
2, 99080, Note_on_c, 1, 88, 127
2, 99080, Note_off_c, 1, 89, 0
2, 99080, Note_on_c, 1, 91, 127
2, 99080, Note_off_c, 1, 92, 0
2, 99080, Note_on_c, 1, 96, 127
2, 99120, Note_off_c, 1, 40, 0
2, 99120, Note_off_c, 1, 43, 0
2, 99120, Note_off_c, 1, 48, 0
2, 99120, Note_off_c, 1, 52, 0
2, 99120, Note_on_c, 1, 56, 127
2, 99120, Note_on_c, 1, 75, 127
2, 99120, Note_on_c, 1, 83, 127
2, 99120, Note_off_c, 1, 84, 0
2, 99120, Note_off_c, 1, 88, 0
2, 99120, Note_off_c, 1, 91, 0
2, 99120, Note_off_c, 1, 96, 0
2, 99160, Note_on_c, 1, 39, 127
2, 99160, Note_on_c, 1, 42, 127
2, 99160, Note_on_c, 1, 48, 127
2, 99160, Note_off_c, 1, 56, 0
2, 99160, Note_on_c, 1, 60, 127
2, 99160, Note_on_c, 1, 69, 127
2, 99160, Note_on_c, 1, 71, 127
2, 99160, Note_off_c, 1, 75, 0
2, 99160, Note_off_c, 1, 83, 0
2, 99200, Note_off_c, 1, 39, 0
2, 99200, Note_off_c, 1, 42, 0
2, 99200, Note_off_c, 1, 48, 0
2, 99200, Note_on_c, 1, 49, 127
2, 99200, Note_on_c, 1, 53, 127
2, 99200, Note_on_c, 1, 56, 127
2, 99200, Note_off_c, 1, 60, 0
2, 99200, Note_on_c, 1, 61, 127
2, 99200, Note_off_c, 1, 69, 0
2, 99200, Note_off_c, 1, 71, 0
2, 99200, Note_on_c, 1, 80, 127
2, 99200, Note_on_c, 1, 85, 127
2, 99200, Note_on_c, 1, 89, 127
2, 99200, Note_on_c, 1, 92, 127
2, 99240, Note_on_c, 1, 38, 127
2, 99240, Note_off_c, 1, 49, 0
2, 99240, Note_on_c, 1, 50, 127
2, 99240, Note_off_c, 1, 53, 0
2, 99240, Note_off_c, 1, 56, 0
2, 99240, Note_on_c, 1, 60, 127
2, 99240, Note_off_c, 1, 61, 0
2, 99240, Note_on_c, 1, 66, 127
2, 99240, Note_on_c, 1, 69, 127
2, 99240, Note_on_c, 1, 74, 127
2, 99240, Note_off_c, 1, 80, 0
2, 99240, Note_off_c, 1, 85, 0
2, 99240, Note_off_c, 1, 89, 0
2, 99240, Note_off_c, 1, 92, 0
2, 99280, Note_on_c, 1, 33, 127
2, 99280, Note_off_c, 1, 38, 0
2, 99280, Note_on_c, 1, 56, 127
2, 99280, Note_off_c, 1, 60, 0
2, 99280, Note_off_c, 1, 66, 0
2, 99280, Note_off_c, 1, 69, 0
2, 99280, Note_off_c, 1, 74, 0
2, 99320, Note_off_c, 1, 33, 0
2, 99320, Note_on_c, 1, 34, 127
2, 99320, Note_on_c, 1, 47, 127
2, 99320, Note_off_c, 1, 50, 0
2, 99320, Note_on_c, 1, 54, 127
2, 99320, Note_off_c, 1, 56, 0
2, 99320, Note_on_c, 1, 57, 127
2, 99360, Note_off_c, 1, 34, 0
2, 99360, Note_on_c, 1, 45, 127
2, 99360, Note_off_c, 1, 47, 0
2, 99360, Note_on_c, 1, 49, 127
2, 99360, Note_on_c, 1, 53, 127
2, 99360, Note_off_c, 1, 54, 0
2, 99360, Note_off_c, 1, 57, 0
2, 99360, Note_on_c, 1, 59, 127
2, 99360, Note_on_c, 1, 65, 127
2, 99400, Note_off_c, 1, 45, 0
2, 99400, Note_off_c, 1, 49, 0
2, 99400, Note_off_c, 1, 53, 0
2, 99400, Note_off_c, 1, 59, 0
2, 99400, Note_on_c, 1, 61, 127
2, 99400, Note_off_c, 1, 65, 0
2, 99400, Note_on_c, 1, 67, 127
2, 99400, Note_on_c, 1, 82, 127
2, 99400, Note_on_c, 1, 84, 127
2, 99440, Note_off_c, 1, 61, 0
2, 99440, Note_on_c, 1, 62, 127
2, 99440, Note_on_c, 1, 69, 127
2, 99440, Note_on_c, 1, 73, 127
2, 99440, Note_on_c, 1, 78, 127
2, 99440, Note_off_c, 1, 82, 0
2, 99440, Note_off_c, 1, 84, 0
2, 99480, Note_on_c, 1, 50, 127
2, 99480, Note_off_c, 1, 67, 0
2, 99480, Note_off_c, 1, 69, 0
2, 99480, Note_off_c, 1, 73, 0
2, 99480, Note_off_c, 1, 78, 0
2, 99480, Note_on_c, 1, 79, 127
2, 99480, Note_on_c, 1, 83, 127
2, 99480, Note_on_c, 1, 86, 127
2, 99520, Note_off_c, 1, 50, 0
2, 99520, Note_on_c, 1, 56, 127
2, 99520, Note_off_c, 1, 62, 0
2, 99520, Note_on_c, 1, 63, 127
2, 99520, Note_on_c, 1, 66, 127
2, 99520, Note_on_c, 1, 71, 127
2, 99520, Note_on_c, 1, 75, 127
2, 99520, Note_off_c, 1, 79, 0
2, 99520, Note_off_c, 1, 83, 0
2, 99520, Note_off_c, 1, 86, 0
2, 99560, Note_on_c, 1, 34, 127
2, 99560, Note_on_c, 1, 46, 127
2, 99560, Note_on_c, 1, 55, 127
2, 99560, Note_off_c, 1, 56, 0
2, 99560, Note_on_c, 1, 62, 127
2, 99560, Note_off_c, 1, 63, 0
2, 99560, Note_off_c, 1, 66, 0
2, 99560, Note_off_c, 1, 71, 0
2, 99560, Note_off_c, 1, 75, 0
2, 99600, Note_off_c, 1, 34, 0
2, 99600, Note_on_c, 1, 45, 127
2, 99600, Note_off_c, 1, 46, 0
2, 99600, Note_off_c, 1, 55, 0
2, 99600, Note_on_c, 1, 57, 127
2, 99600, Note_off_c, 1, 62, 0
2, 99600, Note_on_c, 1, 89, 127
2, 99600, Note_on_c, 1, 98, 127
2, 99640, Note_on_c, 1, 34, 127
2, 99640, Note_on_c, 1, 41, 127
2, 99640, Note_off_c, 1, 45, 0
2, 99640, Note_on_c, 1, 46, 127
2, 99640, Note_off_c, 1, 57, 0
2, 99640, Note_on_c, 1, 77, 127
2, 99640, Note_on_c, 1, 82, 127
2, 99640, Note_off_c, 1, 89, 0
2, 99640, Note_off_c, 1, 98, 0
2, 99680, Note_off_c, 1, 34, 0
2, 99680, Note_off_c, 1, 41, 0
2, 99680, Note_off_c, 1, 46, 0
2, 99680, Note_on_c, 1, 68, 127
2, 99680, Note_on_c, 1, 72, 127
2, 99680, Note_on_c, 1, 75, 127
2, 99680, Note_off_c, 1, 77, 0
2, 99680, Note_on_c, 1, 78, 127
2, 99680, Note_off_c, 1, 82, 0
2, 99680, Note_on_c, 1, 91, 127
2, 99680, Note_on_c, 1, 92, 127
2, 99720, Note_on_c, 1, 49, 127
2, 99720, Note_on_c, 1, 61, 127
2, 99720, Note_on_c, 1, 66, 127
2, 99720, Note_off_c, 1, 72, 0
2, 99720, Note_off_c, 1, 75, 0
2, 99720, Note_off_c, 1, 78, 0
2, 99720, Note_off_c, 1, 91, 0
2, 99720, Note_off_c, 1, 92, 0
2, 99760, Note_on_c, 1, 32, 127
2, 99760, Note_on_c, 1, 39, 127
2, 99760, Note_on_c, 1, 44, 127
2, 99760, Note_off_c, 1, 49, 0
2, 99760, Note_off_c, 1, 61, 0
2, 99760, Note_off_c, 1, 66, 0
2, 99760, Note_off_c, 1, 68, 0
2, 99760, Note_on_c, 1, 75, 127
2, 99760, Note_on_c, 1, 83, 127
2, 99800, Note_off_c, 1, 32, 0
2, 99800, Note_off_c, 1, 39, 0
2, 99800, Note_on_c, 1, 41, 127
2, 99800, Note_off_c, 1, 44, 0
2, 99800, Note_on_c, 1, 53, 127
2, 99800, Note_off_c, 1, 75, 0
2, 99800, Note_off_c, 1, 83, 0
2, 99800, Note_on_c, 1, 87, 127
2, 99800, Note_on_c, 1, 88, 127
2, 99840, Note_off_c, 1, 41, 0
2, 99840, Note_off_c, 1, 53, 0
2, 99840, Note_on_c, 1, 55, 127
2, 99840, Note_on_c, 1, 58, 127
2, 99840, Note_on_c, 1, 64, 127
2, 99840, Note_on_c, 1, 71, 127
2, 99840, Note_on_c, 1, 83, 127
2, 99840, Note_off_c, 1, 87, 0
2, 99840, Note_off_c, 1, 88, 0
2, 99880, Note_on_c, 1, 51, 127
2, 99880, Note_off_c, 1, 58, 0
2, 99880, Note_on_c, 1, 60, 127
2, 99880, Note_on_c, 1, 63, 127
2, 99880, Note_off_c, 1, 64, 0
2, 99880, Note_off_c, 1, 71, 0
2, 99880, Note_off_c, 1, 83, 0
2, 99880, Note_on_c, 1, 99, 127
2, 99880, Note_on_c, 1, 102, 127
2, 99920, Note_off_c, 1, 51, 0
2, 99920, Note_off_c, 1, 55, 0
2, 99920, Note_on_c, 1, 56, 127
2, 99920, Note_off_c, 1, 60, 0
2, 99920, Note_off_c, 1, 63, 0
2, 99920, Note_on_c, 1, 73, 127
2, 99920, Note_on_c, 1, 74, 127
2, 99920, Note_on_c, 1, 83, 127
2, 99920, Note_off_c, 1, 99, 0
2, 99920, Note_off_c, 1, 102, 0
2, 99960, Note_on_c, 1, 47, 127
2, 99960, Note_off_c, 1, 56, 0
2, 99960, Note_on_c, 1, 59, 127
2, 99960, Note_off_c, 1, 73, 0
2, 99960, Note_off_c, 1, 74, 0
2, 99960, Note_off_c, 1, 83, 0
2, 99960, Note_on_c, 1, 89, 127
2, 99960, Note_on_c, 1, 95, 127
2, 99960, Note_on_c, 1, 98, 127
2, 99960, Note_on_c, 1, 101, 127
2, 100000, Note_off_c, 1, 47, 0
2, 100000, Note_on_c, 1, 58, 127
2, 100000, Note_off_c, 1, 59, 0
2, 100000, Note_on_c, 1, 63, 127
2, 100000, Note_on_c, 1, 66, 127
2, 100000, Note_on_c, 1, 70, 127
2, 100000, Note_on_c, 1, 78, 127
2, 100000, Note_off_c, 1, 89, 0
2, 100000, Note_on_c, 1, 90, 127
2, 100000, Note_off_c, 1, 95, 0
2, 100000, Note_off_c, 1, 98, 0
2, 100000, Note_off_c, 1, 101, 0
2, 100040, Note_on_c, 1, 32, 127
2, 100040, Note_on_c, 1, 44, 127
2, 100040, Note_off_c, 1, 58, 0
2, 100040, Note_off_c, 1, 63, 0
2, 100040, Note_off_c, 1, 66, 0
2, 100040, Note_off_c, 1, 70, 0
2, 100040, Note_off_c, 1, 78, 0
2, 100040, Note_on_c, 1, 84, 127
2, 100040, Note_on_c, 1, 87, 127
2, 100040, Note_off_c, 1, 90, 0
2, 100080, Note_off_c, 1, 32, 0
2, 100080, Note_on_c, 1, 38, 127
2, 100080, Note_on_c, 1, 39, 127
2, 100080, Note_off_c, 1, 44, 0
2, 100080, Note_on_c, 1, 52, 127
2, 100080, Note_off_c, 1, 84, 0
2, 100080, Note_off_c, 1, 87, 0
2, 100120, Note_off_c, 1, 38, 0
2, 100120, Note_off_c, 1, 39, 0
2, 100120, Note_off_c, 1, 52, 0
2, 100120, Note_on_c, 1, 60, 127
2, 100120, Note_on_c, 1, 63, 127
2, 100120, Note_on_c, 1, 66, 127
2, 100120, Note_on_c, 1, 68, 127
2, 100120, Note_on_c, 1, 75, 127
2, 100160, Note_on_c, 1, 47, 127
2, 100160, Note_on_c, 1, 52, 127
2, 100160, Note_on_c, 1, 55, 127
2, 100160, Note_on_c, 1, 59, 127
2, 100160, Note_off_c, 1, 60, 0
2, 100160, Note_off_c, 1, 63, 0
2, 100160, Note_on_c, 1, 64, 127
2, 100160, Note_off_c, 1, 66, 0
2, 100160, Note_off_c, 1, 68, 0
2, 100160, Note_off_c, 1, 75, 0
2, 100200, Note_off_c, 1, 47, 0
2, 100200, Note_off_c, 1, 52, 0
2, 100200, Note_off_c, 1, 55, 0
2, 100200, Note_off_c, 1, 59, 0
2, 100200, Note_off_c, 1, 64, 0
2, 100240, Note_on_c, 1, 31, 127
2, 100240, Note_on_c, 1, 35, 127
2, 100240, Note_on_c, 1, 41, 127
2, 100240, Note_on_c, 1, 43, 127
2, 100240, Note_on_c, 1, 50, 127
2, 100240, Note_on_c, 1, 53, 127
2, 100240, Note_on_c, 1, 58, 127
2, 100240, Note_on_c, 1, 74, 127
2, 100240, Note_on_c, 1, 83, 127
2, 100240, Note_on_c, 1, 86, 127
2, 100280, Note_off_c, 1, 31, 0
2, 100280, Note_off_c, 1, 35, 0
2, 100280, Note_off_c, 1, 41, 0
2, 100280, Note_off_c, 1, 43, 0
2, 100280, Note_off_c, 1, 50, 0
2, 100280, Note_off_c, 1, 53, 0
2, 100280, Note_on_c, 1, 55, 127
2, 100280, Note_off_c, 1, 58, 0
2, 100280, Note_on_c, 1, 62, 127
2, 100280, Note_on_c, 1, 65, 127
2, 100280, Note_off_c, 1, 83, 0
2, 100320, Note_on_c, 1, 40, 127
2, 100320, Note_on_c, 1, 43, 127
2, 100320, Note_on_c, 1, 48, 127
2, 100320, Note_on_c, 1, 52, 127
2, 100320, Note_off_c, 1, 55, 0
2, 100320, Note_off_c, 1, 62, 0
2, 100320, Note_off_c, 1, 65, 0
2, 100320, Note_off_c, 1, 74, 0
2, 100320, Note_on_c, 1, 76, 127
2, 100320, Note_on_c, 1, 79, 127
2, 100320, Note_on_c, 1, 84, 127
2, 100320, Note_off_c, 1, 86, 0
2, 100320, Note_on_c, 1, 88, 127
2, 100360, Note_off_c, 1, 40, 0
2, 100360, Note_off_c, 1, 43, 0
2, 100360, Note_off_c, 1, 48, 0
2, 100360, Note_off_c, 1, 52, 0
2, 100360, Note_on_c, 1, 53, 127
2, 100360, Note_on_c, 1, 58, 127
2, 100360, Note_on_c, 1, 60, 127
2, 100360, Note_on_c, 1, 64, 127
2, 100360, Note_off_c, 1, 76, 0
2, 100360, Note_off_c, 1, 79, 0
2, 100360, Note_off_c, 1, 84, 0
2, 100360, Note_on_c, 1, 86, 127
2, 100360, Note_off_c, 1, 88, 0
2, 100400, Note_on_c, 1, 52, 127
2, 100400, Note_off_c, 1, 53, 0
2, 100400, Note_on_c, 1, 55, 127
2, 100400, Note_on_c, 1, 57, 127
2, 100400, Note_off_c, 1, 58, 0
2, 100400, Note_off_c, 1, 60, 0
2, 100400, Note_on_c, 1, 76, 127
2, 100400, Note_off_c, 1, 86, 0
2, 100440, Note_on_c, 1, 44, 127
2, 100440, Note_on_c, 1, 48, 127
2, 100440, Note_on_c, 1, 51, 127
2, 100440, Note_off_c, 1, 52, 0
2, 100440, Note_off_c, 1, 55, 0
2, 100440, Note_on_c, 1, 56, 127
2, 100440, Note_off_c, 1, 57, 0
2, 100440, Note_off_c, 1, 64, 0
2, 100440, Note_off_c, 1, 76, 0
2, 100440, Note_on_c, 1, 78, 127
2, 100440, Note_on_c, 1, 80, 127
2, 100480, Note_off_c, 1, 48, 0
2, 100480, Note_on_c, 1, 49, 127
2, 100480, Note_off_c, 1, 51, 0
2, 100480, Note_on_c, 1, 52, 127
2, 100480, Note_off_c, 1, 78, 0
2, 100480, Note_off_c, 1, 80, 0
2, 100480, Note_on_c, 1, 85, 127
2, 100520, Note_on_c, 1, 29, 127
2, 100520, Note_on_c, 1, 41, 127
2, 100520, Note_off_c, 1, 44, 0
2, 100520, Note_off_c, 1, 49, 0
2, 100520, Note_on_c, 1, 50, 127
2, 100520, Note_off_c, 1, 52, 0
2, 100520, Note_on_c, 1, 53, 127
2, 100520, Note_off_c, 1, 56, 0
2, 100520, Note_on_c, 1, 57, 127
2, 100520, Note_on_c, 1, 62, 127
2, 100520, Note_off_c, 1, 85, 0
2, 100560, Note_off_c, 1, 29, 0
2, 100560, Note_off_c, 1, 41, 0
2, 100560, Note_on_c, 1, 43, 127
2, 100560, Note_on_c, 1, 55, 127
2, 100560, Note_off_c, 1, 57, 0
2, 100560, Note_off_c, 1, 62, 0
2, 100560, Note_on_c, 1, 77, 127
2, 100600, Note_off_c, 1, 43, 0
2, 100600, Note_on_c, 1, 47, 127
2, 100600, Note_off_c, 1, 53, 0
2, 100600, Note_on_c, 1, 54, 127
2, 100600, Note_off_c, 1, 55, 0
2, 100600, Note_on_c, 1, 59, 127
2, 100600, Note_off_c, 1, 77, 0
2, 100600, Note_on_c, 1, 85, 127
2, 100640, Note_off_c, 1, 47, 0
2, 100640, Note_off_c, 1, 50, 0
2, 100640, Note_off_c, 1, 54, 0
2, 100640, Note_on_c, 1, 57, 127
2, 100640, Note_off_c, 1, 59, 0
2, 100640, Note_on_c, 1, 60, 127
2, 100640, Note_on_c, 1, 66, 127
2, 100640, Note_on_c, 1, 78, 127
2, 100640, Note_on_c, 1, 79, 127
2, 100640, Note_off_c, 1, 85, 0
2, 100680, Note_off_c, 1, 57, 0
2, 100680, Note_off_c, 1, 60, 0
2, 100680, Note_off_c, 1, 66, 0
2, 100680, Note_on_c, 1, 72, 127
2, 100680, Note_off_c, 1, 78, 0
2, 100680, Note_off_c, 1, 79, 0
2, 100680, Note_on_c, 1, 80, 127
2, 100680, Note_on_c, 1, 87, 127
2, 100720, Note_on_c, 1, 52, 127
2, 100720, Note_on_c, 1, 59, 127
2, 100720, Note_on_c, 1, 62, 127
2, 100720, Note_on_c, 1, 68, 127
2, 100720, Note_off_c, 1, 72, 0
2, 100720, Note_off_c, 1, 87, 0
2, 100760, Note_on_c, 1, 39, 127
2, 100760, Note_off_c, 1, 52, 0
2, 100760, Note_on_c, 1, 55, 127
2, 100760, Note_off_c, 1, 59, 0
2, 100760, Note_off_c, 1, 62, 0
2, 100760, Note_on_c, 1, 63, 127
2, 100760, Note_off_c, 1, 68, 0
2, 100760, Note_on_c, 1, 70, 127
2, 100760, Note_on_c, 1, 75, 127
2, 100760, Note_off_c, 1, 80, 0
2, 100800, Note_off_c, 1, 39, 0
2, 100800, Note_on_c, 1, 53, 127
2, 100800, Note_on_c, 1, 59, 127
2, 100800, Note_on_c, 1, 62, 127
2, 100800, Note_off_c, 1, 63, 0
2, 100800, Note_on_c, 1, 67, 127
2, 100800, Note_off_c, 1, 70, 0
2, 100800, Note_on_c, 1, 72, 127
2, 100800, Note_off_c, 1, 75, 0
2, 100840, Note_off_c, 1, 53, 0
2, 100840, Note_on_c, 1, 54, 127
2, 100840, Note_off_c, 1, 55, 0
2, 100840, Note_on_c, 1, 57, 127
2, 100840, Note_off_c, 1, 59, 0
2, 100840, Note_off_c, 1, 62, 0
2, 100840, Note_on_c, 1, 66, 127
2, 100840, Note_off_c, 1, 67, 0
2, 100840, Note_off_c, 1, 72, 0
2, 100840, Note_on_c, 1, 74, 127
2, 100840, Note_on_c, 1, 80, 127
2, 100880, Note_on_c, 1, 33, 127
2, 100880, Note_on_c, 1, 45, 127
2, 100880, Note_on_c, 1, 51, 127
2, 100880, Note_off_c, 1, 54, 0
2, 100880, Note_off_c, 1, 57, 0
2, 100880, Note_on_c, 1, 59, 127
2, 100880, Note_on_c, 1, 63, 127
2, 100880, Note_off_c, 1, 66, 0
2, 100880, Note_off_c, 1, 74, 0
2, 100880, Note_off_c, 1, 80, 0
2, 100920, Note_off_c, 1, 33, 0
2, 100920, Note_off_c, 1, 45, 0
2, 100920, Note_on_c, 1, 50, 127
2, 100920, Note_off_c, 1, 51, 0
2, 100920, Note_on_c, 1, 54, 127
2, 100920, Note_on_c, 1, 62, 127
2, 100920, Note_off_c, 1, 63, 0
2, 100920, Note_on_c, 1, 78, 127
2, 100960, Note_on_c, 1, 38, 127
2, 100960, Note_on_c, 1, 42, 127
2, 100960, Note_on_c, 1, 47, 127
2, 100960, Note_off_c, 1, 54, 0
2, 100960, Note_off_c, 1, 62, 0
2, 100960, Note_on_c, 1, 71, 127
2, 100960, Note_off_c, 1, 78, 0
2, 101000, Note_off_c, 1, 38, 0
2, 101000, Note_off_c, 1, 42, 0
2, 101000, Note_off_c, 1, 47, 0
2, 101000, Note_off_c, 1, 50, 0
2, 101000, Note_on_c, 1, 56, 127
2, 101000, Note_off_c, 1, 59, 0
2, 101000, Note_on_c, 1, 63, 127
2, 101000, Note_on_c, 1, 66, 127
2, 101000, Note_off_c, 1, 71, 0
2, 101000, Note_on_c, 1, 88, 127
2, 101040, Note_on_c, 1, 54, 127
2, 101040, Note_off_c, 1, 56, 0
2, 101040, Note_on_c, 1, 58, 127
2, 101040, Note_off_c, 1, 63, 0
2, 101040, Note_off_c, 1, 66, 0
2, 101040, Note_on_c, 1, 79, 127
2, 101040, Note_on_c, 1, 91, 127
2, 101080, Note_on_c, 1, 48, 127
2, 101080, Note_on_c, 1, 53, 127
2, 101080, Note_off_c, 1, 54, 0
2, 101080, Note_on_c, 1, 57, 127
2, 101080, Note_off_c, 1, 58, 0
2, 101080, Note_on_c, 1, 63, 127
2, 101080, Note_on_c, 1, 65, 127
2, 101080, Note_on_c, 1, 69, 127
2, 101080, Note_on_c, 1, 74, 127
2, 101080, Note_off_c, 1, 79, 0
2, 101080, Note_off_c, 1, 88, 0
2, 101080, Note_off_c, 1, 91, 0
2, 101120, Note_on_c, 1, 43, 127
2, 101120, Note_off_c, 1, 48, 0
2, 101120, Note_on_c, 1, 49, 127
2, 101120, Note_on_c, 1, 52, 127
2, 101120, Note_off_c, 1, 53, 0
2, 101120, Note_on_c, 1, 55, 127
2, 101120, Note_off_c, 1, 57, 0
2, 101120, Note_off_c, 1, 63, 0
2, 101120, Note_off_c, 1, 65, 0
2, 101120, Note_off_c, 1, 69, 0
2, 101120, Note_on_c, 1, 73, 127
2, 101120, Note_off_c, 1, 74, 0
2, 101160, Note_on_c, 1, 31, 127
2, 101160, Note_off_c, 1, 49, 0
2, 101160, Note_off_c, 1, 52, 0
2, 101160, Note_on_c, 1, 54, 127
2, 101160, Note_off_c, 1, 55, 0
2, 101160, Note_on_c, 1, 59, 127
2, 101160, Note_on_c, 1, 66, 127
2, 101160, Note_off_c, 1, 73, 0
2, 101200, Note_off_c, 1, 31, 0
2, 101200, Note_off_c, 1, 43, 0
2, 101200, Note_off_c, 1, 54, 0
2, 101200, Note_on_c, 1, 56, 127
2, 101200, Note_off_c, 1, 59, 0
2, 101200, Note_on_c, 1, 63, 127
2, 101200, Note_off_c, 1, 66, 0
2, 101200, Note_on_c, 1, 68, 127
2, 101200, Note_on_c, 1, 82, 127
2, 101200, Note_on_c, 1, 84, 127
2, 101240, Note_on_c, 1, 29, 127
2, 101240, Note_on_c, 1, 41, 127
2, 101240, Note_on_c, 1, 48, 127
2, 101240, Note_off_c, 1, 56, 0
2, 101240, Note_off_c, 1, 63, 0
2, 101240, Note_off_c, 1, 68, 0
2, 101240, Note_on_c, 1, 72, 127
2, 101240, Note_on_c, 1, 77, 127
2, 101240, Note_off_c, 1, 82, 0
2, 101240, Note_off_c, 1, 84, 0
2, 101280, Note_off_c, 1, 29, 0
2, 101280, Note_on_c, 1, 35, 127
2, 101280, Note_off_c, 1, 41, 0
2, 101280, Note_on_c, 1, 47, 127
2, 101280, Note_off_c, 1, 48, 0
2, 101280, Note_off_c, 1, 72, 0
2, 101280, Note_off_c, 1, 77, 0
2, 101320, Note_on_c, 1, 24, 127
2, 101320, Note_off_c, 1, 35, 0
2, 101320, Note_on_c, 1, 36, 127
2, 101320, Note_off_c, 1, 47, 0
2, 101320, Note_on_c, 1, 52, 127
2, 101320, Note_on_c, 1, 55, 127
2, 101320, Note_on_c, 1, 60, 127
2, 101480, Note_on_c, 1, 48, 127
2, 101480, Note_off_c, 1, 52, 0
2, 101480, Note_off_c, 1, 55, 0
2, 101520, Note_off_c, 1, 24, 0
2, 101520, Note_off_c, 1, 36, 0
2, 101520, Note_off_c, 1, 48, 0
2, 101520, Note_on_c, 1, 57, 127
2, 101520, Note_off_c, 1, 60, 0
2, 101520, Note_on_c, 1, 66, 127
2, 101520, Note_on_c, 1, 87, 127
2, 101520, Note_on_c, 1, 99, 127
2, 101560, Note_off_c, 1, 57, 0
2, 101560, Note_off_c, 1, 66, 0
2, 101560, Note_on_c, 1, 91, 127
2, 101600, Note_on_c, 1, 39, 127
2, 101600, Note_on_c, 1, 46, 127
2, 101600, Note_on_c, 1, 66, 127
2, 101600, Note_on_c, 1, 70, 127
2, 101600, Note_on_c, 1, 75, 127
2, 101600, Note_off_c, 1, 87, 0
2, 101600, Note_off_c, 1, 91, 0
2, 101600, Note_off_c, 1, 99, 0
2, 101680, Note_on_c, 1, 36, 127
2, 101680, Note_off_c, 1, 39, 0
2, 101680, Note_off_c, 1, 46, 0
2, 101680, Note_on_c, 1, 48, 127
2, 101680, Note_on_c, 1, 61, 127
2, 101680, Note_on_c, 1, 64, 127
2, 101680, Note_off_c, 1, 66, 0
2, 101680, Note_off_c, 1, 70, 0
2, 101680, Note_off_c, 1, 75, 0
2, 101720, Note_off_c, 1, 36, 0
2, 101720, Note_off_c, 1, 48, 0
2, 101720, Note_on_c, 1, 60, 127
2, 101720, Note_off_c, 1, 61, 0
2, 101720, Note_off_c, 1, 64, 0
2, 101720, Note_on_c, 1, 72, 127
2, 101720, Note_on_c, 1, 90, 127
2, 101760, Note_off_c, 1, 60, 0
2, 101760, Note_off_c, 1, 72, 0
2, 101760, Note_off_c, 1, 90, 0
2, 101800, Note_on_c, 1, 41, 127
2, 101800, Note_on_c, 1, 53, 127
2, 101800, Note_on_c, 1, 56, 127
2, 101800, Note_on_c, 1, 59, 127
2, 101800, Note_on_c, 1, 65, 127
2, 101800, Note_on_c, 1, 69, 127
2, 101800, Note_on_c, 1, 77, 127
2, 101840, Note_on_c, 1, 34, 127
2, 101840, Note_off_c, 1, 41, 0
2, 101840, Note_on_c, 1, 43, 127
2, 101840, Note_on_c, 1, 50, 127
2, 101840, Note_off_c, 1, 53, 0
2, 101840, Note_off_c, 1, 56, 0
2, 101840, Note_off_c, 1, 59, 0
2, 101840, Note_on_c, 1, 62, 127
2, 101840, Note_off_c, 1, 65, 0
2, 101840, Note_off_c, 1, 69, 0
2, 101840, Note_off_c, 1, 77, 0
2, 101880, Note_off_c, 1, 34, 0
2, 101880, Note_on_c, 1, 41, 127
2, 101880, Note_off_c, 1, 43, 0
2, 101880, Note_on_c, 1, 48, 127
2, 101880, Note_off_c, 1, 50, 0
2, 101880, Note_on_c, 1, 53, 127
2, 101880, Note_on_c, 1, 57, 127
2, 101880, Note_on_c, 1, 60, 127
2, 101880, Note_off_c, 1, 62, 0
2, 101880, Note_on_c, 1, 67, 127
2, 101920, Note_off_c, 1, 41, 0
2, 101920, Note_off_c, 1, 48, 0
2, 101920, Note_off_c, 1, 53, 0
2, 101920, Note_off_c, 1, 57, 0
2, 101920, Note_off_c, 1, 60, 0
2, 101920, Note_off_c, 1, 67, 0
2, 101920, Note_on_c, 1, 75, 127
2, 101920, Note_on_c, 1, 80, 127
2, 101920, Note_on_c, 1, 84, 127
2, 101920, Note_on_c, 1, 100, 127
2, 101960, Note_on_c, 1, 47, 127
2, 101960, Note_off_c, 1, 75, 0
2, 101960, Note_on_c, 1, 77, 127
2, 101960, Note_off_c, 1, 80, 0
2, 101960, Note_on_c, 1, 83, 127
2, 101960, Note_off_c, 1, 84, 0
2, 101960, Note_on_c, 1, 86, 127
2, 101960, Note_on_c, 1, 89, 127
2, 101960, Note_off_c, 1, 100, 0
2, 102000, Note_on_c, 1, 42, 127
2, 102000, Note_off_c, 1, 47, 0
2, 102000, Note_on_c, 1, 51, 127
2, 102000, Note_on_c, 1, 73, 127
2, 102000, Note_off_c, 1, 77, 0
2, 102000, Note_off_c, 1, 83, 0
2, 102000, Note_off_c, 1, 86, 0
2, 102000, Note_off_c, 1, 89, 0
2, 102040, Note_off_c, 1, 42, 0
2, 102040, Note_off_c, 1, 51, 0
2, 102040, Note_on_c, 1, 55, 127
2, 102040, Note_on_c, 1, 62, 127
2, 102040, Note_on_c, 1, 72, 127
2, 102040, Note_off_c, 1, 73, 0
2, 102040, Note_on_c, 1, 81, 127
2, 102040, Note_on_c, 1, 84, 127
2, 102080, Note_on_c, 1, 47, 127
2, 102080, Note_on_c, 1, 51, 127
2, 102080, Note_off_c, 1, 55, 0
2, 102080, Note_on_c, 1, 57, 127
2, 102080, Note_off_c, 1, 62, 0
2, 102080, Note_on_c, 1, 68, 127
2, 102080, Note_off_c, 1, 72, 0
2, 102080, Note_on_c, 1, 80, 127
2, 102080, Note_off_c, 1, 81, 0
2, 102080, Note_off_c, 1, 84, 0
2, 102120, Note_off_c, 1, 51, 0
2, 102120, Note_on_c, 1, 55, 127
2, 102120, Note_off_c, 1, 57, 0
2, 102120, Note_on_c, 1, 58, 127
2, 102120, Note_off_c, 1, 68, 0
2, 102120, Note_on_c, 1, 73, 127
2, 102120, Note_off_c, 1, 80, 0
2, 102160, Note_on_c, 1, 33, 127
2, 102160, Note_off_c, 1, 47, 0
2, 102160, Note_off_c, 1, 55, 0
2, 102160, Note_off_c, 1, 58, 0
2, 102160, Note_on_c, 1, 67, 127
2, 102160, Note_on_c, 1, 70, 127
2, 102160, Note_off_c, 1, 73, 0
2, 102160, Note_on_c, 1, 74, 127
2, 102200, Note_off_c, 1, 33, 0
2, 102200, Note_on_c, 1, 34, 127
2, 102200, Note_on_c, 1, 41, 127
2, 102200, Note_on_c, 1, 49, 127
2, 102200, Note_on_c, 1, 59, 127
2, 102200, Note_off_c, 1, 67, 0
2, 102200, Note_off_c, 1, 70, 0
2, 102200, Note_off_c, 1, 74, 0
2, 102240, Note_off_c, 1, 34, 0
2, 102240, Note_on_c, 1, 38, 127
2, 102240, Note_off_c, 1, 41, 0
2, 102240, Note_on_c, 1, 45, 127
2, 102240, Note_off_c, 1, 49, 0
2, 102240, Note_on_c, 1, 50, 127
2, 102240, Note_off_c, 1, 59, 0
2, 102240, Note_on_c, 1, 77, 127
2, 102240, Note_on_c, 1, 81, 127
2, 102280, Note_off_c, 1, 38, 0
2, 102280, Note_off_c, 1, 45, 0
2, 102280, Note_off_c, 1, 50, 0
2, 102280, Note_on_c, 1, 54, 127
2, 102280, Note_on_c, 1, 56, 127
2, 102280, Note_on_c, 1, 59, 127
2, 102280, Note_on_c, 1, 63, 127
2, 102280, Note_off_c, 1, 77, 0
2, 102280, Note_off_c, 1, 81, 0
2, 102280, Note_on_c, 1, 85, 127
2, 102320, Note_on_c, 1, 35, 127
2, 102320, Note_on_c, 1, 41, 127
2, 102320, Note_on_c, 1, 47, 127
2, 102320, Note_off_c, 1, 54, 0
2, 102320, Note_off_c, 1, 56, 0
2, 102320, Note_off_c, 1, 59, 0
2, 102320, Note_off_c, 1, 63, 0
2, 102320, Note_on_c, 1, 74, 127
2, 102320, Note_on_c, 1, 77, 127
2, 102320, Note_off_c, 1, 85, 0
2, 102360, Note_off_c, 1, 35, 0
2, 102360, Note_off_c, 1, 41, 0
2, 102360, Note_off_c, 1, 47, 0
2, 102360, Note_off_c, 1, 74, 0
2, 102360, Note_off_c, 1, 77, 0
2, 102400, Note_on_c, 1, 43, 127
2, 102400, Note_on_c, 1, 59, 127
2, 102400, Note_on_c, 1, 66, 127
2, 102400, Note_on_c, 1, 69, 127
2, 102440, Note_off_c, 1, 43, 0
2, 102440, Note_on_c, 1, 55, 127
2, 102440, Note_on_c, 1, 58, 127
2, 102440, Note_off_c, 1, 59, 0
2, 102440, Note_off_c, 1, 66, 0
2, 102440, Note_off_c, 1, 69, 0
2, 102440, Note_on_c, 1, 73, 127
2, 102440, Note_on_c, 1, 79, 127
2, 102440, Note_on_c, 1, 85, 127
2, 102480, Note_on_c, 1, 44, 127
2, 102480, Note_off_c, 1, 55, 0
2, 102480, Note_on_c, 1, 56, 127
2, 102480, Note_off_c, 1, 58, 0
2, 102480, Note_on_c, 1, 71, 127
2, 102480, Note_off_c, 1, 73, 0
2, 102480, Note_on_c, 1, 75, 127
2, 102480, Note_on_c, 1, 77, 127
2, 102480, Note_off_c, 1, 79, 0
2, 102480, Note_on_c, 1, 83, 127
2, 102480, Note_off_c, 1, 85, 0
2, 102520, Note_off_c, 1, 44, 0
2, 102520, Note_off_c, 1, 56, 0
2, 102520, Note_off_c, 1, 71, 0
2, 102520, Note_off_c, 1, 75, 0
2, 102520, Note_off_c, 1, 77, 0
2, 102520, Note_off_c, 1, 83, 0
2, 102560, Note_on_c, 1, 36, 127
2, 102560, Note_on_c, 1, 44, 127
2, 102560, Note_on_c, 1, 55, 127
2, 102560, Note_on_c, 1, 60, 127
2, 102600, Note_off_c, 1, 36, 0
2, 102600, Note_on_c, 1, 41, 127
2, 102600, Note_off_c, 1, 44, 0
2, 102600, Note_on_c, 1, 50, 127
2, 102600, Note_off_c, 1, 55, 0
2, 102600, Note_on_c, 1, 57, 127
2, 102600, Note_off_c, 1, 60, 0
2, 102600, Note_on_c, 1, 62, 127
2, 102600, Note_on_c, 1, 69, 127
2, 102600, Note_on_c, 1, 74, 127
2, 102640, Note_off_c, 1, 41, 0
2, 102640, Note_off_c, 1, 50, 0
2, 102640, Note_on_c, 1, 52, 127
2, 102640, Note_off_c, 1, 57, 0
2, 102640, Note_on_c, 1, 60, 127
2, 102640, Note_off_c, 1, 62, 0
2, 102640, Note_on_c, 1, 67, 127
2, 102640, Note_off_c, 1, 69, 0
2, 102640, Note_on_c, 1, 72, 127
2, 102640, Note_off_c, 1, 74, 0
2, 102640, Note_on_c, 1, 80, 127
2, 102640, Note_on_c, 1, 83, 127
2, 102680, Note_off_c, 1, 52, 0
2, 102680, Note_off_c, 1, 60, 0
2, 102680, Note_on_c, 1, 63, 127
2, 102680, Note_off_c, 1, 72, 0
2, 102680, Note_on_c, 1, 79, 127
2, 102680, Note_off_c, 1, 80, 0
2, 102680, Note_on_c, 1, 82, 127
2, 102680, Note_off_c, 1, 83, 0
2, 102680, Note_on_c, 1, 87, 127
2, 102720, Note_on_c, 1, 34, 127
2, 102720, Note_on_c, 1, 46, 127
2, 102720, Note_on_c, 1, 55, 127
2, 102720, Note_off_c, 1, 63, 0
2, 102720, Note_off_c, 1, 82, 0
2, 102720, Note_on_c, 1, 86, 127
2, 102720, Note_off_c, 1, 87, 0
2, 102720, Note_on_c, 1, 91, 127
2, 102760, Note_off_c, 1, 34, 0
2, 102760, Note_on_c, 1, 38, 127
2, 102760, Note_off_c, 1, 46, 0
2, 102760, Note_on_c, 1, 47, 127
2, 102760, Note_off_c, 1, 55, 0
2, 102760, Note_off_c, 1, 67, 0
2, 102760, Note_on_c, 1, 68, 127
2, 102760, Note_off_c, 1, 79, 0
2, 102760, Note_on_c, 1, 80, 127
2, 102760, Note_off_c, 1, 86, 0
2, 102760, Note_off_c, 1, 91, 0
2, 102800, Note_off_c, 1, 38, 0
2, 102800, Note_off_c, 1, 47, 0
2, 102800, Note_off_c, 1, 68, 0
2, 102800, Note_on_c, 1, 73, 127
2, 102800, Note_on_c, 1, 83, 127
2, 102800, Note_on_c, 1, 87, 127
2, 102800, Note_on_c, 1, 90, 127
2, 102840, Note_off_c, 1, 73, 0
2, 102840, Note_off_c, 1, 80, 0
2, 102840, Note_off_c, 1, 83, 0
2, 102840, Note_off_c, 1, 87, 0
2, 102840, Note_on_c, 1, 88, 127
2, 102840, Note_off_c, 1, 90, 0
2, 102840, Note_on_c, 1, 93, 127
2, 102840, Note_on_c, 1, 95, 127
2, 102880, Note_on_c, 1, 39, 127
2, 102880, Note_on_c, 1, 51, 127
2, 102880, Note_on_c, 1, 54, 127
2, 102880, Note_on_c, 1, 60, 127
2, 102880, Note_off_c, 1, 88, 0
2, 102880, Note_off_c, 1, 93, 0
2, 102880, Note_off_c, 1, 95, 0
2, 102920, Note_off_c, 1, 39, 0
2, 102920, Note_off_c, 1, 51, 0
2, 102920, Note_off_c, 1, 60, 0
2, 102920, Note_on_c, 1, 66, 127
2, 102960, Note_on_c, 1, 47, 127
2, 102960, Note_on_c, 1, 50, 127
2, 102960, Note_on_c, 1, 53, 127
2, 102960, Note_off_c, 1, 54, 0
2, 102960, Note_on_c, 1, 62, 127
2, 102960, Note_off_c, 1, 66, 0
2, 103000, Note_off_c, 1, 47, 0
2, 103000, Note_off_c, 1, 50, 0
2, 103000, Note_on_c, 1, 51, 127
2, 103000, Note_off_c, 1, 53, 0
2, 103000, Note_on_c, 1, 58, 127
2, 103000, Note_off_c, 1, 62, 0
2, 103000, Note_on_c, 1, 63, 127
2, 103000, Note_on_c, 1, 77, 127
2, 103000, Note_on_c, 1, 89, 127
2, 103040, Note_off_c, 1, 51, 0
2, 103040, Note_on_c, 1, 54, 127
2, 103040, Note_off_c, 1, 58, 0
2, 103040, Note_off_c, 1, 63, 0
2, 103040, Note_on_c, 1, 66, 127
2, 103040, Note_on_c, 1, 81, 127
2, 103040, Note_off_c, 1, 89, 0
2, 103080, Note_on_c, 1, 40, 127
2, 103080, Note_on_c, 1, 43, 127
2, 103080, Note_off_c, 1, 54, 0
2, 103080, Note_on_c, 1, 64, 127
2, 103080, Note_off_c, 1, 66, 0
2, 103080, Note_on_c, 1, 67, 127
2, 103080, Note_on_c, 1, 72, 127
2, 103080, Note_off_c, 1, 77, 0
2, 103080, Note_off_c, 1, 81, 0
2, 103120, Note_off_c, 1, 40, 0
2, 103120, Note_off_c, 1, 43, 0
2, 103120, Note_on_c, 1, 46, 127
2, 103120, Note_on_c, 1, 49, 127
2, 103120, Note_on_c, 1, 53, 127
2, 103120, Note_on_c, 1, 58, 127
2, 103120, Note_off_c, 1, 64, 0
2, 103120, Note_off_c, 1, 67, 0
2, 103120, Note_on_c, 1, 70, 127
2, 103120, Note_off_c, 1, 72, 0
2, 103120, Note_on_c, 1, 73, 127
2, 103120, Note_on_c, 1, 82, 127
2, 103160, Note_off_c, 1, 46, 0
2, 103160, Note_off_c, 1, 49, 0
2, 103160, Note_off_c, 1, 53, 0
2, 103160, Note_off_c, 1, 58, 0
2, 103160, Note_off_c, 1, 70, 0
2, 103160, Note_off_c, 1, 73, 0
2, 103160, Note_on_c, 1, 80, 127
2, 103160, Note_off_c, 1, 82, 0
2, 103160, Note_on_c, 1, 92, 127
2, 103160, Note_on_c, 1, 102, 127
2, 103200, Note_on_c, 1, 54, 127
2, 103200, Note_on_c, 1, 58, 127
2, 103200, Note_on_c, 1, 61, 127
2, 103200, Note_on_c, 1, 66, 127
2, 103200, Note_off_c, 1, 80, 0
2, 103200, Note_on_c, 1, 90, 127
2, 103200, Note_off_c, 1, 92, 0
2, 103200, Note_off_c, 1, 102, 0
2, 103240, Note_on_c, 1, 46, 127
2, 103240, Note_on_c, 1, 51, 127
2, 103240, Note_off_c, 1, 54, 0
2, 103240, Note_off_c, 1, 58, 0
2, 103240, Note_off_c, 1, 61, 0
2, 103240, Note_off_c, 1, 66, 0
2, 103240, Note_on_c, 1, 68, 127
2, 103240, Note_on_c, 1, 72, 127
2, 103240, Note_off_c, 1, 90, 0
2, 103280, Note_on_c, 1, 39, 127
2, 103280, Note_off_c, 1, 46, 0
2, 103280, Note_on_c, 1, 61, 127
2, 103280, Note_on_c, 1, 66, 127
2, 103280, Note_off_c, 1, 68, 0
2, 103280, Note_on_c, 1, 70, 127
2, 103280, Note_off_c, 1, 72, 0
2, 103320, Note_off_c, 1, 39, 0
2, 103320, Note_off_c, 1, 51, 0
2, 103320, Note_off_c, 1, 66, 0
2, 103320, Note_off_c, 1, 70, 0
2, 103320, Note_on_c, 1, 85, 127
2, 103360, Note_off_c, 1, 61, 0
2, 103360, Note_on_c, 1, 66, 127
2, 103360, Note_on_c, 1, 75, 127
2, 103360, Note_on_c, 1, 78, 127
2, 103360, Note_on_c, 1, 82, 127
2, 103360, Note_off_c, 1, 85, 0
2, 103360, Note_on_c, 1, 94, 127
2, 103400, Note_on_c, 1, 36, 127
2, 103400, Note_on_c, 1, 48, 127
2, 103400, Note_on_c, 1, 60, 127
2, 103400, Note_on_c, 1, 65, 127
2, 103400, Note_off_c, 1, 66, 0
2, 103400, Note_on_c, 1, 69, 127
2, 103400, Note_on_c, 1, 72, 127
2, 103400, Note_off_c, 1, 75, 0
2, 103400, Note_off_c, 1, 78, 0
2, 103400, Note_off_c, 1, 82, 0
2, 103400, Note_off_c, 1, 94, 0
2, 103440, Note_on_c, 1, 35, 127
2, 103440, Note_off_c, 1, 36, 0
2, 103440, Note_on_c, 1, 47, 127
2, 103440, Note_off_c, 1, 48, 0
2, 103440, Note_on_c, 1, 57, 127
2, 103440, Note_off_c, 1, 65, 0
2, 103440, Note_off_c, 1, 69, 0
2, 103440, Note_off_c, 1, 72, 0
2, 103480, Note_off_c, 1, 35, 0
2, 103480, Note_on_c, 1, 46, 127
2, 103480, Note_off_c, 1, 47, 0
2, 103480, Note_on_c, 1, 50, 127
2, 103480, Note_on_c, 1, 55, 127
2, 103480, Note_off_c, 1, 57, 0
2, 103480, Note_off_c, 1, 60, 0
2, 103480, Note_on_c, 1, 85, 127
2, 103520, Note_off_c, 1, 46, 0
2, 103520, Note_off_c, 1, 50, 0
2, 103520, Note_off_c, 1, 55, 0
2, 103520, Note_on_c, 1, 58, 127
2, 103520, Note_on_c, 1, 64, 127
2, 103520, Note_on_c, 1, 69, 127
2, 103520, Note_on_c, 1, 82, 127
2, 103520, Note_off_c, 1, 85, 0
2, 103520, Note_on_c, 1, 86, 127
2, 103520, Note_on_c, 1, 88, 127
2, 103560, Note_on_c, 1, 57, 127
2, 103560, Note_off_c, 1, 58, 0
2, 103560, Note_on_c, 1, 62, 127
2, 103560, Note_off_c, 1, 64, 0
2, 103560, Note_on_c, 1, 65, 127
2, 103560, Note_off_c, 1, 69, 0
2, 103560, Note_on_c, 1, 77, 127
2, 103560, Note_off_c, 1, 82, 0
2, 103560, Note_off_c, 1, 88, 0
2, 103560, Note_on_c, 1, 89, 127
2, 103600, Note_on_c, 1, 42, 127
2, 103600, Note_off_c, 1, 57, 0
2, 103600, Note_off_c, 1, 62, 0
2, 103600, Note_on_c, 1, 64, 127
2, 103600, Note_off_c, 1, 65, 0
2, 103600, Note_on_c, 1, 68, 127
2, 103600, Note_on_c, 1, 73, 127
2, 103600, Note_off_c, 1, 77, 0
2, 103600, Note_off_c, 1, 86, 0
2, 103600, Note_off_c, 1, 89, 0
2, 103640, Note_off_c, 1, 42, 0
2, 103640, Note_on_c, 1, 55, 127
2, 103640, Note_off_c, 1, 64, 0
2, 103640, Note_on_c, 1, 65, 127
2, 103640, Note_off_c, 1, 68, 0
2, 103640, Note_on_c, 1, 70, 127
2, 103640, Note_on_c, 1, 82, 127
2, 103680, Note_on_c, 1, 47, 127
2, 103680, Note_off_c, 1, 55, 0
2, 103680, Note_off_c, 1, 65, 0
2, 103680, Note_off_c, 1, 70, 0
2, 103680, Note_off_c, 1, 73, 0
2, 103680, Note_on_c, 1, 77, 127
2, 103680, Note_off_c, 1, 82, 0
2, 103680, Note_on_c, 1, 91, 127
2, 103720, Note_off_c, 1, 47, 0
2, 103720, Note_on_c, 1, 70, 127
2, 103720, Note_on_c, 1, 73, 127
2, 103720, Note_on_c, 1, 76, 127
2, 103720, Note_off_c, 1, 77, 0
2, 103720, Note_off_c, 1, 91, 0
2, 103760, Note_on_c, 1, 64, 127
2, 103760, Note_on_c, 1, 67, 127
2, 103760, Note_off_c, 1, 73, 0
2, 103760, Note_on_c, 1, 82, 127
2, 103760, Note_on_c, 1, 88, 127
2, 103800, Note_on_c, 1, 56, 127
2, 103800, Note_off_c, 1, 64, 0
2, 103800, Note_off_c, 1, 67, 0
2, 103800, Note_on_c, 1, 68, 127
2, 103800, Note_off_c, 1, 70, 0
2, 103800, Note_off_c, 1, 76, 0
2, 103800, Note_off_c, 1, 82, 0
2, 103800, Note_on_c, 1, 85, 127
2, 103800, Note_on_c, 1, 92, 127
2, 103800, Note_on_c, 1, 97, 127
2, 103840, Note_on_c, 1, 51, 127
2, 103840, Note_off_c, 1, 56, 0
2, 103840, Note_on_c, 1, 58, 127
2, 103840, Note_on_c, 1, 62, 127
2, 103840, Note_off_c, 1, 68, 0
2, 103840, Note_on_c, 1, 74, 127
2, 103840, Note_on_c, 1, 82, 127
2, 103840, Note_off_c, 1, 85, 0
2, 103840, Note_on_c, 1, 86, 127
2, 103840, Note_off_c, 1, 88, 0
2, 103840, Note_off_c, 1, 92, 0
2, 103840, Note_off_c, 1, 97, 0
2, 103880, Note_off_c, 1, 51, 0
2, 103880, Note_off_c, 1, 58, 0
2, 103880, Note_off_c, 1, 62, 0
2, 103880, Note_off_c, 1, 74, 0
2, 103880, Note_off_c, 1, 82, 0
2, 103880, Note_off_c, 1, 86, 0
2, 103880, Note_on_c, 1, 91, 127
2, 103880, Note_on_c, 1, 93, 127
2, 103880, Note_on_c, 1, 97, 127
2, 103880, Note_on_c, 1, 98, 127
2, 103920, Note_on_c, 1, 34, 127
2, 103920, Note_on_c, 1, 41, 127
2, 103920, Note_on_c, 1, 57, 127
2, 103920, Note_on_c, 1, 58, 127
2, 103920, Note_off_c, 1, 91, 0
2, 103920, Note_off_c, 1, 93, 0
2, 103920, Note_off_c, 1, 97, 0
2, 103920, Note_off_c, 1, 98, 0
2, 103960, Note_off_c, 1, 34, 0
2, 103960, Note_off_c, 1, 41, 0
2, 103960, Note_off_c, 1, 57, 0
2, 103960, Note_off_c, 1, 58, 0
2, 103960, Note_on_c, 1, 63, 127
2, 103960, Note_on_c, 1, 64, 127
2, 103960, Note_on_c, 1, 68, 127
2, 103960, Note_on_c, 1, 75, 127
2, 104000, Note_on_c, 1, 57, 127
2, 104000, Note_on_c, 1, 60, 127
2, 104000, Note_off_c, 1, 63, 0
2, 104000, Note_off_c, 1, 64, 0
2, 104000, Note_on_c, 1, 66, 127
2, 104000, Note_off_c, 1, 68, 0
2, 104000, Note_off_c, 1, 75, 0
2, 104000, Note_on_c, 1, 92, 127
2, 104040, Note_on_c, 1, 56, 127
2, 104040, Note_off_c, 1, 57, 0
2, 104040, Note_off_c, 1, 60, 0
2, 104040, Note_off_c, 1, 66, 0
2, 104040, Note_on_c, 1, 82, 127
2, 104040, Note_on_c, 1, 85, 127
2, 104040, Note_off_c, 1, 92, 0
2, 104080, Note_off_c, 1, 56, 0
2, 104080, Note_off_c, 1, 82, 0
2, 104080, Note_off_c, 1, 85, 0
2, 104080, Note_on_c, 1, 94, 127
2, 104120, Note_off_c, 1, 94, 0
2, 104120, Note_on_c, 1, 97, 127
2, 104160, Note_on_c, 1, 92, 127
2, 104160, Note_on_c, 1, 93, 127
2, 104160, Note_off_c, 1, 97, 0
2, 104200, Note_off_c, 1, 92, 0
2, 104200, Note_on_c, 1, 96, 127
2, 104240, Note_off_c, 1, 93, 0
2, 104240, Note_on_c, 1, 94, 127
2, 104240, Note_off_c, 1, 96, 0
2, 104240, Note_on_c, 1, 97, 127
2, 104320, Note_on_c, 1, 50, 127
2, 104320, Note_on_c, 1, 53, 127
2, 104320, Note_on_c, 1, 58, 127
2, 104320, Note_on_c, 1, 62, 127
2, 104320, Note_on_c, 1, 80, 127
2, 104320, Note_off_c, 1, 94, 0
2, 104320, Note_off_c, 1, 97, 0
2, 104360, Note_off_c, 1, 50, 0
2, 104360, Note_off_c, 1, 53, 0
2, 104360, Note_off_c, 1, 58, 0
2, 104360, Note_off_c, 1, 62, 0
2, 104360, Note_off_c, 1, 80, 0
2, 104360, Note_on_c, 1, 87, 127
2, 104360, Note_on_c, 1, 88, 127
2, 104360, Note_on_c, 1, 95, 127
2, 104400, Note_on_c, 1, 79, 127
2, 104400, Note_on_c, 1, 82, 127
2, 104400, Note_on_c, 1, 86, 127
2, 104400, Note_off_c, 1, 87, 0
2, 104400, Note_off_c, 1, 88, 0
2, 104400, Note_on_c, 1, 89, 127
2, 104400, Note_off_c, 1, 95, 0
2, 104440, Note_on_c, 1, 42, 127
2, 104440, Note_on_c, 1, 64, 127
2, 104440, Note_off_c, 1, 79, 0
2, 104440, Note_off_c, 1, 82, 0
2, 104440, Note_off_c, 1, 86, 0
2, 104440, Note_on_c, 1, 88, 127
2, 104440, Note_off_c, 1, 89, 0
2, 104480, Note_off_c, 1, 42, 0
2, 104480, Note_on_c, 1, 43, 127
2, 104480, Note_on_c, 1, 55, 127
2, 104480, Note_off_c, 1, 64, 0
2, 104480, Note_off_c, 1, 88, 0
2, 104480, Note_on_c, 1, 89, 127
2, 104480, Note_on_c, 1, 101, 127
2, 104520, Note_off_c, 1, 43, 0
2, 104520, Note_off_c, 1, 55, 0
2, 104520, Note_on_c, 1, 67, 127
2, 104520, Note_on_c, 1, 79, 127
2, 104520, Note_on_c, 1, 87, 127
2, 104520, Note_off_c, 1, 89, 0
2, 104520, Note_off_c, 1, 101, 0
2, 104560, Note_on_c, 1, 50, 127
2, 104560, Note_on_c, 1, 59, 127
2, 104560, Note_on_c, 1, 62, 127
2, 104560, Note_off_c, 1, 67, 0
2, 104560, Note_off_c, 1, 79, 0
2, 104560, Note_on_c, 1, 85, 127
2, 104560, Note_off_c, 1, 87, 0
2, 104600, Note_off_c, 1, 50, 0
2, 104600, Note_off_c, 1, 59, 0
2, 104600, Note_off_c, 1, 62, 0
2, 104600, Note_on_c, 1, 69, 127
2, 104600, Note_on_c, 1, 72, 127
2, 104600, Note_on_c, 1, 75, 127
2, 104600, Note_on_c, 1, 77, 127
2, 104600, Note_on_c, 1, 84, 127
2, 104600, Note_off_c, 1, 85, 0
2, 104640, Note_on_c, 1, 56, 127
2, 104640, Note_on_c, 1, 60, 127
2, 104640, Note_off_c, 1, 69, 0
2, 104640, Note_off_c, 1, 72, 0
2, 104640, Note_off_c, 1, 75, 0
2, 104640, Note_off_c, 1, 77, 0
2, 104640, Note_on_c, 1, 87, 127
2, 104680, Note_off_c, 1, 56, 0
2, 104680, Note_on_c, 1, 59, 127
2, 104680, Note_off_c, 1, 60, 0
2, 104680, Note_off_c, 1, 84, 0
2, 104680, Note_off_c, 1, 87, 0
2, 104680, Note_on_c, 1, 91, 127
2, 104680, Note_on_c, 1, 103, 127
2, 104720, Note_on_c, 1, 46, 127
2, 104720, Note_on_c, 1, 51, 127
2, 104720, Note_off_c, 1, 59, 0
2, 104720, Note_on_c, 1, 66, 127
2, 104720, Note_on_c, 1, 70, 127
2, 104720, Note_off_c, 1, 91, 0
2, 104720, Note_off_c, 1, 103, 0
2, 104760, Note_on_c, 1, 33, 127
2, 104760, Note_on_c, 1, 40, 127
2, 104760, Note_on_c, 1, 45, 127
2, 104760, Note_off_c, 1, 46, 0
2, 104760, Note_off_c, 1, 51, 0
2, 104760, Note_off_c, 1, 66, 0
2, 104760, Note_off_c, 1, 70, 0
2, 104760, Note_on_c, 1, 88, 127
2, 104760, Note_on_c, 1, 93, 127
2, 104760, Note_on_c, 1, 100, 127
2, 104800, Note_off_c, 1, 33, 0
2, 104800, Note_off_c, 1, 45, 0
2, 104800, Note_on_c, 1, 52, 127
2, 104800, Note_on_c, 1, 59, 127
2, 104800, Note_on_c, 1, 62, 127
2, 104800, Note_on_c, 1, 68, 127
2, 104800, Note_off_c, 1, 93, 0
2, 104800, Note_off_c, 1, 100, 0
2, 104840, Note_off_c, 1, 40, 0
2, 104840, Note_on_c, 1, 49, 127
2, 104840, Note_off_c, 1, 52, 0
2, 104840, Note_on_c, 1, 55, 127
2, 104840, Note_off_c, 1, 59, 0
2, 104840, Note_on_c, 1, 61, 127
2, 104840, Note_off_c, 1, 62, 0
2, 104840, Note_on_c, 1, 64, 127
2, 104840, Note_off_c, 1, 68, 0
2, 104840, Note_off_c, 1, 88, 0
2, 104880, Note_off_c, 1, 55, 0
2, 104880, Note_on_c, 1, 59, 127
2, 104880, Note_off_c, 1, 61, 0
2, 104880, Note_off_c, 1, 64, 0
2, 104880, Note_on_c, 1, 68, 127
2, 104880, Note_on_c, 1, 73, 127
2, 104880, Note_on_c, 1, 77, 127
2, 104920, Note_off_c, 1, 49, 0
2, 104920, Note_off_c, 1, 59, 0
2, 104920, Note_off_c, 1, 68, 0
2, 104920, Note_off_c, 1, 73, 0
2, 104920, Note_off_c, 1, 77, 0
2, 104960, Note_on_c, 1, 35, 127
2, 104960, Note_on_c, 1, 40, 127
2, 104960, Note_on_c, 1, 47, 127
2, 104960, Note_on_c, 1, 59, 127
2, 104960, Note_on_c, 1, 68, 127
2, 104960, Note_on_c, 1, 71, 127
2, 104960, Note_on_c, 1, 83, 127
2, 104960, Note_on_c, 1, 88, 127
2, 104960, Note_on_c, 1, 92, 127
2, 105000, Note_off_c, 1, 35, 0
2, 105000, Note_off_c, 1, 40, 0
2, 105000, Note_off_c, 1, 47, 0
2, 105000, Note_off_c, 1, 59, 0
2, 105000, Note_off_c, 1, 68, 0
2, 105000, Note_off_c, 1, 71, 0
2, 105000, Note_off_c, 1, 83, 0
2, 105000, Note_on_c, 1, 87, 127
2, 105000, Note_off_c, 1, 88, 0
2, 105000, Note_off_c, 1, 92, 0
2, 105000, Note_on_c, 1, 96, 127
2, 105000, Note_on_c, 1, 103, 127
2, 105040, Note_on_c, 1, 62, 127
2, 105040, Note_on_c, 1, 81, 127
2, 105040, Note_off_c, 1, 87, 0
2, 105040, Note_on_c, 1, 89, 127
2, 105040, Note_on_c, 1, 93, 127
2, 105040, Note_off_c, 1, 96, 0
2, 105040, Note_off_c, 1, 103, 0
2, 105080, Note_off_c, 1, 62, 0
2, 105080, Note_off_c, 1, 81, 0
2, 105080, Note_off_c, 1, 89, 0
2, 105080, Note_on_c, 1, 92, 127
2, 105080, Note_off_c, 1, 93, 0
2, 105080, Note_on_c, 1, 101, 127
2, 105120, Note_on_c, 1, 51, 127
2, 105120, Note_on_c, 1, 82, 127
2, 105120, Note_on_c, 1, 91, 127
2, 105120, Note_off_c, 1, 92, 0
2, 105120, Note_on_c, 1, 96, 127
2, 105120, Note_off_c, 1, 101, 0
2, 105160, Note_on_c, 1, 39, 127
2, 105160, Note_on_c, 1, 57, 127
2, 105160, Note_on_c, 1, 69, 127
2, 105160, Note_on_c, 1, 81, 127
2, 105160, Note_off_c, 1, 82, 0
2, 105160, Note_off_c, 1, 91, 0
2, 105160, Note_on_c, 1, 93, 127
2, 105160, Note_off_c, 1, 96, 0
2, 105200, Note_off_c, 1, 39, 0
2, 105200, Note_off_c, 1, 51, 0
2, 105200, Note_off_c, 1, 57, 0
2, 105200, Note_off_c, 1, 69, 0
2, 105200, Note_off_c, 1, 81, 0
2, 105200, Note_on_c, 1, 91, 127
2, 105200, Note_off_c, 1, 93, 0
2, 105200, Note_on_c, 1, 97, 127
2, 105240, Note_off_c, 1, 91, 0
2, 105240, Note_on_c, 1, 94, 127
2, 105240, Note_off_c, 1, 97, 0
2, 105280, Note_on_c, 1, 55, 127
2, 105280, Note_on_c, 1, 59, 127
2, 105280, Note_on_c, 1, 62, 127
2, 105280, Note_on_c, 1, 69, 127
2, 105280, Note_on_c, 1, 79, 127
2, 105280, Note_off_c, 1, 94, 0
2, 105320, Note_on_c, 1, 46, 127
2, 105320, Note_off_c, 1, 55, 0
2, 105320, Note_on_c, 1, 56, 127
2, 105320, Note_off_c, 1, 59, 0
2, 105320, Note_on_c, 1, 65, 127
2, 105320, Note_on_c, 1, 67, 127
2, 105320, Note_off_c, 1, 69, 0
2, 105320, Note_off_c, 1, 79, 0
2, 105360, Note_off_c, 1, 46, 0
2, 105360, Note_on_c, 1, 51, 127
2, 105360, Note_on_c, 1, 54, 127
2, 105360, Note_off_c, 1, 56, 0
2, 105360, Note_on_c, 1, 57, 127
2, 105360, Note_on_c, 1, 60, 127
2, 105360, Note_off_c, 1, 65, 0
2, 105360, Note_off_c, 1, 67, 0
2, 105400, Note_on_c, 1, 42, 127
2, 105400, Note_off_c, 1, 51, 0
2, 105400, Note_off_c, 1, 57, 0
2, 105400, Note_off_c, 1, 60, 0
2, 105400, Note_off_c, 1, 62, 0
2, 105400, Note_on_c, 1, 81, 127
2, 105400, Note_on_c, 1, 85, 127
2, 105400, Note_on_c, 1, 93, 127
2, 105440, Note_off_c, 1, 42, 0
2, 105440, Note_on_c, 1, 56, 127
2, 105440, Note_on_c, 1, 60, 127
2, 105440, Note_off_c, 1, 81, 0
2, 105440, Note_on_c, 1, 84, 127
2, 105440, Note_off_c, 1, 85, 0
2, 105440, Note_off_c, 1, 93, 0
2, 105480, Note_on_c, 1, 31, 127
2, 105480, Note_on_c, 1, 39, 127
2, 105480, Note_off_c, 1, 54, 0
2, 105480, Note_off_c, 1, 56, 0
2, 105480, Note_off_c, 1, 60, 0
2, 105480, Note_off_c, 1, 84, 0
2, 105480, Note_on_c, 1, 96, 127
2, 105520, Note_off_c, 1, 31, 0
2, 105520, Note_off_c, 1, 39, 0
2, 105520, Note_on_c, 1, 56, 127
2, 105520, Note_on_c, 1, 86, 127
2, 105520, Note_on_c, 1, 91, 127
2, 105520, Note_off_c, 1, 96, 0
2, 105560, Note_on_c, 1, 41, 127
2, 105560, Note_on_c, 1, 53, 127
2, 105560, Note_off_c, 1, 56, 0
2, 105560, Note_on_c, 1, 65, 127
2, 105560, Note_on_c, 1, 69, 127
2, 105560, Note_on_c, 1, 73, 127
2, 105560, Note_off_c, 1, 86, 0
2, 105560, Note_off_c, 1, 91, 0
2, 105600, Note_on_c, 1, 39, 127
2, 105600, Note_off_c, 1, 41, 0
2, 105600, Note_on_c, 1, 51, 127
2, 105600, Note_off_c, 1, 53, 0
2, 105600, Note_on_c, 1, 58, 127
2, 105600, Note_off_c, 1, 65, 0
2, 105600, Note_off_c, 1, 69, 0
2, 105600, Note_off_c, 1, 73, 0
2, 105600, Note_on_c, 1, 75, 127
2, 105600, Note_on_c, 1, 77, 127
2, 105640, Note_off_c, 1, 39, 0
2, 105640, Note_off_c, 1, 51, 0
2, 105640, Note_on_c, 1, 52, 127
2, 105640, Note_off_c, 1, 58, 0
2, 105640, Note_on_c, 1, 59, 127
2, 105640, Note_on_c, 1, 67, 127
2, 105640, Note_off_c, 1, 75, 0
2, 105640, Note_off_c, 1, 77, 0
2, 105640, Note_on_c, 1, 95, 127
2, 105640, Note_on_c, 1, 96, 127
2, 105680, Note_off_c, 1, 52, 0
2, 105680, Note_off_c, 1, 59, 0
2, 105680, Note_off_c, 1, 67, 0
2, 105680, Note_on_c, 1, 88, 127
2, 105680, Note_on_c, 1, 89, 127
2, 105680, Note_on_c, 1, 91, 127
2, 105680, Note_on_c, 1, 92, 127
2, 105680, Note_off_c, 1, 95, 0
2, 105680, Note_off_c, 1, 96, 0
2, 105720, Note_off_c, 1, 88, 0
2, 105720, Note_off_c, 1, 89, 0
2, 105720, Note_off_c, 1, 91, 0
2, 105720, Note_off_c, 1, 92, 0
2, 105720, Note_on_c, 1, 97, 127
2, 105720, Note_on_c, 1, 102, 127
2, 105760, Note_on_c, 1, 39, 127
2, 105760, Note_on_c, 1, 60, 127
2, 105760, Note_on_c, 1, 80, 127
2, 105760, Note_on_c, 1, 84, 127
2, 105760, Note_off_c, 1, 97, 0
2, 105760, Note_off_c, 1, 102, 0
2, 105800, Note_off_c, 1, 39, 0
2, 105800, Note_off_c, 1, 60, 0
2, 105800, Note_off_c, 1, 80, 0
2, 105800, Note_off_c, 1, 84, 0
2, 105800, Note_on_c, 1, 85, 127
2, 105800, Note_on_c, 1, 88, 127
2, 105800, Note_on_c, 1, 100, 127
2, 105800, Note_on_c, 1, 102, 127
2, 105840, Note_off_c, 1, 85, 0
2, 105840, Note_off_c, 1, 88, 0
2, 105840, Note_on_c, 1, 95, 127
2, 105840, Note_off_c, 1, 100, 0
2, 105840, Note_off_c, 1, 102, 0
2, 105840, Note_on_c, 1, 104, 127
2, 105880, Note_on_c, 1, 92, 127
2, 105880, Note_off_c, 1, 95, 0
2, 105880, Note_on_c, 1, 101, 127
2, 105880, Note_off_c, 1, 104, 0
2, 105920, Note_on_c, 1, 45, 127
2, 105920, Note_on_c, 1, 47, 127
2, 105920, Note_on_c, 1, 57, 127
2, 105920, Note_on_c, 1, 63, 127
2, 105920, Note_on_c, 1, 66, 127
2, 105920, Note_on_c, 1, 71, 127
2, 105920, Note_on_c, 1, 75, 127
2, 105920, Note_off_c, 1, 92, 0
2, 105920, Note_off_c, 1, 101, 0
2, 105960, Note_off_c, 1, 47, 0
2, 105960, Note_on_c, 1, 53, 127
2, 105960, Note_off_c, 1, 63, 0
2, 105960, Note_on_c, 1, 64, 127
2, 105960, Note_off_c, 1, 66, 0
2, 105960, Note_off_c, 1, 71, 0
2, 105960, Note_off_c, 1, 75, 0
2, 106000, Note_off_c, 1, 45, 0
2, 106000, Note_off_c, 1, 53, 0
2, 106000, Note_off_c, 1, 57, 0
2, 106000, Note_on_c, 1, 67, 127
2, 106000, Note_on_c, 1, 73, 127
2, 106000, Note_on_c, 1, 79, 127
2, 106000, Note_on_c, 1, 82, 127
2, 106000, Note_on_c, 1, 91, 127
2, 106040, Note_off_c, 1, 64, 0
2, 106040, Note_off_c, 1, 67, 0
2, 106040, Note_off_c, 1, 73, 0
2, 106040, Note_off_c, 1, 79, 0
2, 106040, Note_off_c, 1, 82, 0
2, 106040, Note_off_c, 1, 91, 0
2, 106040, Note_on_c, 1, 100, 127
2, 106040, Note_on_c, 1, 102, 127
2, 106080, Note_on_c, 1, 47, 127
2, 106080, Note_on_c, 1, 57, 127
2, 106080, Note_on_c, 1, 87, 127
2, 106080, Note_off_c, 1, 100, 0
2, 106080, Note_off_c, 1, 102, 0
2, 106120, Note_off_c, 1, 47, 0
2, 106120, Note_off_c, 1, 57, 0
2, 106120, Note_off_c, 1, 87, 0
2, 106120, Note_on_c, 1, 99, 127
2, 106120, Note_on_c, 1, 104, 127
2, 106160, Note_on_c, 1, 95, 127
2, 106160, Note_off_c, 1, 104, 0
2, 106200, Note_on_c, 1, 71, 127
2, 106200, Note_on_c, 1, 90, 127
2, 106200, Note_on_c, 1, 92, 127
2, 106200, Note_off_c, 1, 95, 0
2, 106200, Note_off_c, 1, 99, 0
2, 106240, Note_off_c, 1, 71, 0
2, 106240, Note_off_c, 1, 90, 0
2, 106240, Note_off_c, 1, 92, 0
2, 106240, Note_on_c, 1, 99, 127
2, 106240, Note_on_c, 1, 100, 127
2, 106400, Note_on_c, 1, 95, 127
2, 106400, Note_off_c, 1, 99, 0
2, 106400, Note_off_c, 1, 100, 0
2, 106400, Note_on_c, 1, 102, 127
2, 106440, Note_on_c, 1, 51, 127
2, 106440, Note_on_c, 1, 59, 127
2, 106440, Note_off_c, 1, 95, 0
2, 106440, Note_off_c, 1, 102, 0
2, 106480, Note_off_c, 1, 51, 0
2, 106480, Note_off_c, 1, 59, 0
2, 106480, Note_on_c, 1, 75, 127
2, 106480, Note_on_c, 1, 78, 127
2, 106480, Note_on_c, 1, 83, 127
2, 106520, Note_on_c, 1, 39, 127
2, 106520, Note_on_c, 1, 51, 127
2, 106520, Note_on_c, 1, 70, 127
2, 106520, Note_off_c, 1, 75, 0
2, 106520, Note_on_c, 1, 76, 127
2, 106520, Note_off_c, 1, 78, 0
2, 106520, Note_on_c, 1, 80, 127
2, 106520, Note_off_c, 1, 83, 0
2, 106560, Note_off_c, 1, 39, 0
2, 106560, Note_off_c, 1, 51, 0
2, 106560, Note_on_c, 1, 69, 127
2, 106560, Note_off_c, 1, 70, 0
2, 106560, Note_on_c, 1, 78, 127
2, 106560, Note_off_c, 1, 80, 0
2, 106600, Note_on_c, 1, 36, 127
2, 106600, Note_on_c, 1, 52, 127
2, 106600, Note_on_c, 1, 61, 127
2, 106600, Note_on_c, 1, 67, 127
2, 106600, Note_off_c, 1, 69, 0
2, 106600, Note_off_c, 1, 76, 0
2, 106600, Note_off_c, 1, 78, 0
2, 106640, Note_off_c, 1, 36, 0
2, 106640, Note_off_c, 1, 52, 0
2, 106640, Note_off_c, 1, 61, 0
2, 106640, Note_on_c, 1, 62, 127
2, 106640, Note_off_c, 1, 67, 0
2, 106640, Note_on_c, 1, 76, 127
2, 106640, Note_on_c, 1, 80, 127
2, 106640, Note_on_c, 1, 83, 127
2, 106680, Note_off_c, 1, 62, 0
2, 106680, Note_on_c, 1, 68, 127
2, 106680, Note_off_c, 1, 76, 0
2, 106680, Note_off_c, 1, 83, 0
2, 106680, Note_on_c, 1, 88, 127
2, 106680, Note_on_c, 1, 92, 127
2, 106720, Note_on_c, 1, 66, 127
2, 106720, Note_off_c, 1, 68, 0
2, 106720, Note_on_c, 1, 72, 127
2, 106720, Note_off_c, 1, 80, 0
2, 106720, Note_on_c, 1, 87, 127
2, 106720, Note_off_c, 1, 88, 0
2, 106720, Note_off_c, 1, 92, 0
2, 106720, Note_on_c, 1, 94, 127
2, 106760, Note_on_c, 1, 48, 127
2, 106760, Note_on_c, 1, 53, 127
2, 106760, Note_on_c, 1, 56, 127
2, 106760, Note_on_c, 1, 59, 127
2, 106760, Note_on_c, 1, 62, 127
2, 106760, Note_on_c, 1, 65, 127
2, 106760, Note_off_c, 1, 66, 0
2, 106760, Note_on_c, 1, 68, 127
2, 106760, Note_on_c, 1, 71, 127
2, 106760, Note_off_c, 1, 72, 0
2, 106760, Note_on_c, 1, 74, 127
2, 106760, Note_off_c, 1, 87, 0
2, 106760, Note_off_c, 1, 94, 0
2, 106800, Note_on_c, 1, 47, 127
2, 106800, Note_off_c, 1, 48, 0
2, 106800, Note_off_c, 1, 53, 0
2, 106800, Note_off_c, 1, 56, 0
2, 106800, Note_off_c, 1, 62, 0
2, 106800, Note_off_c, 1, 65, 0
2, 106800, Note_off_c, 1, 68, 0
2, 106800, Note_off_c, 1, 71, 0
2, 106800, Note_off_c, 1, 74, 0
2, 106800, Note_on_c, 1, 81, 127
2, 106800, Note_on_c, 1, 87, 127
2, 106800, Note_on_c, 1, 90, 127
2, 106800, Note_on_c, 1, 95, 127
2, 106840, Note_on_c, 1, 38, 127
2, 106840, Note_off_c, 1, 47, 0
2, 106840, Note_on_c, 1, 76, 127
2, 106840, Note_on_c, 1, 78, 127
2, 106840, Note_off_c, 1, 81, 0
2, 106840, Note_off_c, 1, 87, 0
2, 106840, Note_off_c, 1, 90, 0
2, 106840, Note_off_c, 1, 95, 0
2, 106880, Note_off_c, 1, 38, 0
2, 106880, Note_on_c, 1, 56, 127
2, 106880, Note_off_c, 1, 59, 0
2, 106880, Note_on_c, 1, 63, 127
2, 106880, Note_on_c, 1, 66, 127
2, 106880, Note_on_c, 1, 68, 127
2, 106880, Note_off_c, 1, 76, 0
2, 106880, Note_off_c, 1, 78, 0
2, 106880, Note_on_c, 1, 84, 127
2, 106920, Note_off_c, 1, 56, 0
2, 106920, Note_off_c, 1, 63, 0
2, 106920, Note_off_c, 1, 66, 0
2, 106920, Note_off_c, 1, 68, 0
2, 106920, Note_off_c, 1, 84, 0
2, 106920, Note_on_c, 1, 86, 127
2, 106920, Note_on_c, 1, 95, 127
2, 106960, Note_off_c, 1, 86, 0
2, 106960, Note_on_c, 1, 87, 127
2, 106960, Note_on_c, 1, 88, 127
2, 106960, Note_off_c, 1, 95, 0
2, 107000, Note_on_c, 1, 78, 127
2, 107000, Note_on_c, 1, 80, 127
2, 107000, Note_off_c, 1, 87, 0
2, 107000, Note_off_c, 1, 88, 0
2, 107040, Note_off_c, 1, 78, 0
2, 107040, Note_off_c, 1, 80, 0
2, 107040, Note_on_c, 1, 85, 127
2, 107040, Note_on_c, 1, 92, 127
2, 107080, Note_on_c, 1, 81, 127
2, 107080, Note_off_c, 1, 85, 0
2, 107080, Note_on_c, 1, 88, 127
2, 107080, Note_off_c, 1, 92, 0
2, 107120, Note_off_c, 1, 81, 0
2, 107120, Note_off_c, 1, 88, 0
2, 107160, Note_on_c, 1, 95, 127
2, 107200, Note_on_c, 1, 88, 127
2, 107200, Note_off_c, 1, 95, 0
2, 107240, Note_off_c, 1, 88, 0
2, 107240, Note_on_c, 1, 92, 127
2, 107240, Note_on_c, 1, 93, 127
2, 107280, Note_off_c, 1, 92, 0
2, 107280, Note_off_c, 1, 93, 0
2, 107280, Note_on_c, 1, 94, 127
2, 107320, Note_on_c, 1, 93, 127
2, 107320, Note_off_c, 1, 94, 0
2, 107360, Note_on_c, 1, 86, 127
2, 107360, Note_on_c, 1, 89, 127
2, 107360, Note_off_c, 1, 93, 0
2, 107360, Note_on_c, 1, 95, 127
2, 107400, Note_off_c, 1, 86, 0
2, 107400, Note_off_c, 1, 89, 0
2, 107400, Note_on_c, 1, 93, 127
2, 107480, Note_off_c, 1, 93, 0
2, 107480, Note_on_c, 1, 94, 127
2, 107480, Note_off_c, 1, 95, 0
2, 107480, Note_on_c, 1, 96, 127
2, 107520, Note_off_c, 1, 94, 0
2, 107520, Note_on_c, 1, 95, 127
2, 107520, Note_off_c, 1, 96, 0
2, 107560, Note_on_c, 1, 92, 127
2, 107720, Note_off_c, 1, 92, 0
2, 107720, Note_on_c, 1, 94, 127
2, 107720, Note_off_c, 1, 95, 0
2, 107720, Note_on_c, 1, 97, 127
2, 107760, Note_on_c, 1, 92, 127
2, 107760, Note_off_c, 1, 94, 0
2, 107760, Note_on_c, 1, 95, 127
2, 107760, Note_off_c, 1, 97, 0
2, 107800, Note_off_c, 1, 92, 0
2, 107800, Note_on_c, 1, 94, 127
2, 107800, Note_off_c, 1, 95, 0
2, 107800, Note_on_c, 1, 97, 127
2, 107840, Note_on_c, 1, 92, 127
2, 107840, Note_off_c, 1, 94, 0
2, 107840, Note_on_c, 1, 96, 127
2, 107840, Note_off_c, 1, 97, 0
2, 107880, Note_on_c, 1, 71, 127
2, 107880, Note_on_c, 1, 87, 127
2, 107880, Note_off_c, 1, 92, 0
2, 107880, Note_off_c, 1, 96, 0
2, 107880, Note_on_c, 1, 99, 127
2, 107880, Note_on_c, 1, 100, 127
2, 107880, Note_on_c, 1, 102, 127
2, 107920, Note_off_c, 1, 71, 0
2, 107920, Note_off_c, 1, 87, 0
2, 107920, Note_on_c, 1, 96, 127
2, 107920, Note_off_c, 1, 99, 0
2, 107920, Note_off_c, 1, 102, 0
2, 107960, Note_on_c, 1, 89, 127
2, 107960, Note_on_c, 1, 92, 127
2, 107960, Note_off_c, 1, 96, 0
2, 107960, Note_on_c, 1, 97, 127
2, 107960, Note_off_c, 1, 100, 0
2, 108000, Note_on_c, 1, 33, 127
2, 108000, Note_on_c, 1, 40, 127
2, 108000, Note_on_c, 1, 45, 127
2, 108000, Note_on_c, 1, 81, 127
2, 108000, Note_on_c, 1, 85, 127
2, 108000, Note_on_c, 1, 88, 127
2, 108000, Note_off_c, 1, 89, 0
2, 108000, Note_off_c, 1, 92, 0
2, 108000, Note_on_c, 1, 93, 127
2, 108000, Note_off_c, 1, 97, 0
2, 108040, Note_off_c, 1, 33, 0
2, 108040, Note_off_c, 1, 40, 0
2, 108040, Note_off_c, 1, 45, 0
2, 108040, Note_on_c, 1, 72, 127
2, 108040, Note_off_c, 1, 81, 0
2, 108040, Note_off_c, 1, 85, 0
2, 108040, Note_off_c, 1, 88, 0
2, 108040, Note_off_c, 1, 93, 0
2, 108040, Note_on_c, 1, 96, 127
2, 108040, Note_on_c, 1, 98, 127
2, 108080, Note_on_c, 1, 35, 127
2, 108080, Note_on_c, 1, 39, 127
2, 108080, Note_on_c, 1, 42, 127
2, 108080, Note_on_c, 1, 47, 127
2, 108080, Note_off_c, 1, 72, 0
2, 108080, Note_on_c, 1, 90, 127
2, 108080, Note_on_c, 1, 95, 127
2, 108080, Note_off_c, 1, 96, 0
2, 108080, Note_off_c, 1, 98, 0
2, 108080, Note_on_c, 1, 99, 127
2, 108080, Note_on_c, 1, 102, 127
2, 108120, Note_off_c, 1, 35, 0
2, 108120, Note_off_c, 1, 39, 0
2, 108120, Note_off_c, 1, 42, 0
2, 108120, Note_off_c, 1, 47, 0
2, 108120, Note_off_c, 1, 90, 0
2, 108120, Note_on_c, 1, 92, 127
2, 108120, Note_off_c, 1, 95, 0
2, 108120, Note_off_c, 1, 99, 0
2, 108120, Note_off_c, 1, 102, 0
2, 108120, Note_on_c, 1, 103, 127
2, 108160, Note_on_c, 1, 58, 127
2, 108160, Note_on_c, 1, 65, 127
2, 108160, Note_on_c, 1, 67, 127
2, 108160, Note_on_c, 1, 74, 127
2, 108160, Note_on_c, 1, 86, 127
2, 108160, Note_off_c, 1, 92, 0
2, 108160, Note_off_c, 1, 103, 0
2, 108200, Note_on_c, 1, 42, 127
2, 108200, Note_on_c, 1, 49, 127
2, 108200, Note_on_c, 1, 52, 127
2, 108200, Note_on_c, 1, 54, 127
2, 108200, Note_off_c, 1, 58, 0
2, 108200, Note_off_c, 1, 65, 0
2, 108200, Note_off_c, 1, 67, 0
2, 108200, Note_off_c, 1, 74, 0
2, 108200, Note_on_c, 1, 85, 127
2, 108200, Note_off_c, 1, 86, 0
2, 108240, Note_off_c, 1, 42, 0
2, 108240, Note_off_c, 1, 49, 0
2, 108240, Note_off_c, 1, 52, 0
2, 108240, Note_off_c, 1, 54, 0
2, 108240, Note_on_c, 1, 59, 127
2, 108240, Note_on_c, 1, 63, 127
2, 108240, Note_on_c, 1, 66, 127
2, 108240, Note_off_c, 1, 85, 0
2, 108240, Note_on_c, 1, 100, 127
2, 108280, Note_off_c, 1, 59, 0
2, 108280, Note_off_c, 1, 63, 0
2, 108280, Note_off_c, 1, 66, 0
2, 108280, Note_on_c, 1, 74, 127
2, 108280, Note_on_c, 1, 77, 127
2, 108280, Note_on_c, 1, 94, 127
2, 108280, Note_off_c, 1, 100, 0
2, 108320, Note_off_c, 1, 74, 0
2, 108320, Note_off_c, 1, 77, 0
2, 108320, Note_off_c, 1, 94, 0
2, 108320, Note_on_c, 1, 97, 127
2, 108320, Note_on_c, 1, 99, 127
2, 108320, Note_on_c, 1, 100, 127
2, 108360, Note_on_c, 1, 49, 127
2, 108360, Note_on_c, 1, 56, 127
2, 108360, Note_on_c, 1, 63, 127
2, 108360, Note_on_c, 1, 66, 127
2, 108360, Note_on_c, 1, 72, 127
2, 108360, Note_on_c, 1, 80, 127
2, 108360, Note_on_c, 1, 87, 127
2, 108360, Note_off_c, 1, 97, 0
2, 108360, Note_off_c, 1, 99, 0
2, 108360, Note_off_c, 1, 100, 0
2, 108400, Note_off_c, 1, 49, 0
2, 108400, Note_off_c, 1, 56, 0
2, 108400, Note_on_c, 1, 59, 127
2, 108400, Note_off_c, 1, 63, 0
2, 108400, Note_off_c, 1, 66, 0
2, 108400, Note_off_c, 1, 72, 0
2, 108400, Note_on_c, 1, 81, 127
2, 108400, Note_off_c, 1, 87, 0
2, 108440, Note_on_c, 1, 56, 127
2, 108440, Note_off_c, 1, 59, 0
2, 108440, Note_on_c, 1, 67, 127
2, 108440, Note_on_c, 1, 76, 127
2, 108440, Note_off_c, 1, 80, 0
2, 108480, Note_on_c, 1, 43, 127
2, 108480, Note_on_c, 1, 49, 127
2, 108480, Note_off_c, 1, 56, 0
2, 108480, Note_on_c, 1, 59, 127
2, 108480, Note_on_c, 1, 61, 127
2, 108480, Note_off_c, 1, 67, 0
2, 108480, Note_off_c, 1, 76, 0
2, 108480, Note_off_c, 1, 81, 0
2, 108520, Note_off_c, 1, 43, 0
2, 108520, Note_off_c, 1, 49, 0
2, 108520, Note_off_c, 1, 59, 0
2, 108520, Note_off_c, 1, 61, 0
2, 108520, Note_on_c, 1, 70, 127
2, 108520, Note_on_c, 1, 73, 127
2, 108520, Note_on_c, 1, 82, 127
2, 108520, Note_on_c, 1, 85, 127
2, 108520, Note_on_c, 1, 89, 127
2, 108560, Note_on_c, 1, 64, 127
2, 108560, Note_off_c, 1, 70, 0
2, 108560, Note_off_c, 1, 73, 0
2, 108560, Note_off_c, 1, 85, 0
2, 108560, Note_off_c, 1, 89, 0
2, 108560, Note_on_c, 1, 91, 127
2, 108600, Note_on_c, 1, 46, 127
2, 108600, Note_on_c, 1, 54, 127
2, 108600, Note_off_c, 1, 64, 0
2, 108600, Note_on_c, 1, 65, 127
2, 108600, Note_on_c, 1, 73, 127
2, 108600, Note_on_c, 1, 77, 127
2, 108600, Note_off_c, 1, 82, 0
2, 108600, Note_off_c, 1, 91, 0
2, 108640, Note_on_c, 1, 28, 127
2, 108640, Note_off_c, 1, 46, 0
2, 108640, Note_on_c, 1, 48, 127
2, 108640, Note_on_c, 1, 52, 127
2, 108640, Note_off_c, 1, 54, 0
2, 108640, Note_on_c, 1, 55, 127
2, 108640, Note_on_c, 1, 60, 127
2, 108640, Note_off_c, 1, 65, 0
2, 108640, Note_on_c, 1, 67, 127
2, 108640, Note_on_c, 1, 72, 127
2, 108640, Note_off_c, 1, 73, 0
2, 108640, Note_on_c, 1, 76, 127
2, 108640, Note_off_c, 1, 77, 0
2, 108640, Note_on_c, 1, 79, 127
2, 108640, Note_on_c, 1, 84, 127
2, 108640, Note_on_c, 1, 88, 127
2, 108680, Note_off_c, 1, 28, 0
2, 108680, Note_on_c, 1, 44, 127
2, 108680, Note_off_c, 1, 52, 0
2, 108680, Note_off_c, 1, 55, 0
2, 108680, Note_off_c, 1, 67, 0
2, 108680, Note_on_c, 1, 68, 127
2, 108680, Note_off_c, 1, 76, 0
2, 108680, Note_off_c, 1, 79, 0
2, 108680, Note_off_c, 1, 84, 0
2, 108680, Note_off_c, 1, 88, 0
2, 108720, Note_off_c, 1, 44, 0
2, 108720, Note_off_c, 1, 48, 0
2, 108720, Note_off_c, 1, 60, 0
2, 108720, Note_on_c, 1, 63, 127
2, 108720, Note_on_c, 1, 71, 127
2, 108720, Note_off_c, 1, 72, 0
2, 108720, Note_on_c, 1, 83, 127
2, 108720, Note_on_c, 1, 92, 127
2, 108720, Note_on_c, 1, 95, 127
2, 108760, Note_on_c, 1, 41, 127
2, 108760, Note_on_c, 1, 58, 127
2, 108760, Note_on_c, 1, 62, 127
2, 108760, Note_off_c, 1, 63, 0
2, 108760, Note_off_c, 1, 68, 0
2, 108760, Note_on_c, 1, 70, 127
2, 108760, Note_off_c, 1, 71, 0
2, 108760, Note_on_c, 1, 74, 127
2, 108760, Note_off_c, 1, 83, 0
2, 108760, Note_off_c, 1, 92, 0
2, 108760, Note_off_c, 1, 95, 0
2, 108800, Note_off_c, 1, 41, 0
2, 108800, Note_on_c, 1, 56, 127
2, 108800, Note_off_c, 1, 62, 0
2, 108800, Note_on_c, 1, 66, 127
2, 108800, Note_on_c, 1, 68, 127
2, 108800, Note_off_c, 1, 74, 0
2, 108840, Note_on_c, 1, 40, 127
2, 108840, Note_on_c, 1, 47, 127
2, 108840, Note_on_c, 1, 52, 127
2, 108840, Note_off_c, 1, 56, 0
2, 108840, Note_off_c, 1, 58, 0
2, 108840, Note_off_c, 1, 66, 0
2, 108840, Note_off_c, 1, 68, 0
2, 108840, Note_off_c, 1, 70, 0
2, 108840, Note_on_c, 1, 76, 127
2, 108840, Note_on_c, 1, 80, 127
2, 108840, Note_on_c, 1, 83, 127
2, 108840, Note_on_c, 1, 88, 127
2, 108880, Note_on_c, 1, 37, 127
2, 108880, Note_off_c, 1, 40, 0
2, 108880, Note_off_c, 1, 47, 0
2, 108880, Note_off_c, 1, 52, 0
2, 108880, Note_on_c, 1, 55, 127
2, 108880, Note_off_c, 1, 76, 0
2, 108880, Note_off_c, 1, 80, 0
2, 108880, Note_off_c, 1, 83, 0
2, 108880, Note_off_c, 1, 88, 0
2, 108920, Note_off_c, 1, 37, 0
2, 108920, Note_on_c, 1, 44, 127
2, 108920, Note_off_c, 1, 55, 0
2, 108920, Note_on_c, 1, 60, 127
2, 108920, Note_on_c, 1, 73, 127
2, 108960, Note_on_c, 1, 34, 127
2, 108960, Note_off_c, 1, 44, 0
2, 108960, Note_on_c, 1, 46, 127
2, 108960, Note_on_c, 1, 54, 127
2, 108960, Note_on_c, 1, 58, 127
2, 108960, Note_off_c, 1, 60, 0
2, 108960, Note_on_c, 1, 66, 127
2, 108960, Note_off_c, 1, 73, 0
2, 109000, Note_off_c, 1, 34, 0
2, 109000, Note_off_c, 1, 46, 0
2, 109000, Note_on_c, 1, 48, 127
2, 109000, Note_off_c, 1, 58, 0
2, 109000, Note_on_c, 1, 62, 127
2, 109000, Note_off_c, 1, 66, 0
2, 109000, Note_on_c, 1, 85, 127
2, 109040, Note_on_c, 1, 30, 127
2, 109040, Note_on_c, 1, 34, 127
2, 109040, Note_on_c, 1, 39, 127
2, 109040, Note_on_c, 1, 42, 127
2, 109040, Note_off_c, 1, 48, 0
2, 109040, Note_off_c, 1, 54, 0
2, 109040, Note_on_c, 1, 58, 127
2, 109040, Note_on_c, 1, 60, 127
2, 109040, Note_off_c, 1, 62, 0
2, 109040, Note_off_c, 1, 85, 0
2, 109080, Note_off_c, 1, 30, 0
2, 109080, Note_off_c, 1, 34, 0
2, 109080, Note_off_c, 1, 39, 0
2, 109080, Note_off_c, 1, 42, 0
2, 109080, Note_off_c, 1, 58, 0
2, 109080, Note_off_c, 1, 60, 0
2, 109080, Note_on_c, 1, 84, 127
2, 109080, Note_on_c, 1, 92, 127
2, 109080, Note_on_c, 1, 96, 127
2, 109120, Note_on_c, 1, 33, 127
2, 109120, Note_on_c, 1, 40, 127
2, 109120, Note_on_c, 1, 69, 127
2, 109120, Note_off_c, 1, 84, 0
2, 109120, Note_off_c, 1, 92, 0
2, 109120, Note_off_c, 1, 96, 0
2, 109160, Note_off_c, 1, 33, 0
2, 109160, Note_off_c, 1, 40, 0
2, 109160, Note_on_c, 1, 55, 127
2, 109160, Note_on_c, 1, 59, 127
2, 109160, Note_on_c, 1, 64, 127
2, 109160, Note_off_c, 1, 69, 0
2, 109160, Note_on_c, 1, 88, 127
2, 109200, Note_on_c, 1, 47, 127
2, 109200, Note_on_c, 1, 54, 127
2, 109200, Note_off_c, 1, 55, 0
2, 109200, Note_on_c, 1, 57, 127
2, 109200, Note_off_c, 1, 59, 0
2, 109200, Note_on_c, 1, 63, 127
2, 109200, Note_off_c, 1, 64, 0
2, 109200, Note_on_c, 1, 75, 127
2, 109200, Note_on_c, 1, 78, 127
2, 109200, Note_on_c, 1, 84, 127
2, 109200, Note_off_c, 1, 88, 0
2, 109240, Note_on_c, 1, 32, 127
2, 109240, Note_off_c, 1, 47, 0
2, 109240, Note_off_c, 1, 54, 0
2, 109240, Note_off_c, 1, 57, 0
2, 109240, Note_on_c, 1, 60, 127
2, 109240, Note_off_c, 1, 75, 0
2, 109240, Note_off_c, 1, 78, 0
2, 109240, Note_off_c, 1, 84, 0
2, 109280, Note_off_c, 1, 32, 0
2, 109280, Note_on_c, 1, 62, 127
2, 109280, Note_off_c, 1, 63, 0
2, 109280, Note_on_c, 1, 84, 127
2, 109320, Note_on_c, 1, 47, 127
2, 109320, Note_on_c, 1, 55, 127
2, 109320, Note_on_c, 1, 58, 127
2, 109320, Note_off_c, 1, 60, 0
2, 109320, Note_off_c, 1, 62, 0
2, 109320, Note_on_c, 1, 64, 127
2, 109320, Note_on_c, 1, 70, 127
2, 109320, Note_off_c, 1, 84, 0
2, 109360, Note_on_c, 1, 32, 127
2, 109360, Note_on_c, 1, 44, 127
2, 109360, Note_off_c, 1, 47, 0
2, 109360, Note_off_c, 1, 55, 0
2, 109360, Note_off_c, 1, 58, 0
2, 109360, Note_off_c, 1, 64, 0
2, 109360, Note_off_c, 1, 70, 0
2, 109360, Note_on_c, 1, 78, 127
2, 109360, Note_on_c, 1, 82, 127
2, 109400, Note_off_c, 1, 32, 0
2, 109400, Note_on_c, 1, 40, 127
2, 109400, Note_off_c, 1, 44, 0
2, 109400, Note_on_c, 1, 49, 127
2, 109400, Note_on_c, 1, 64, 127
2, 109400, Note_on_c, 1, 68, 127
2, 109400, Note_off_c, 1, 78, 0
2, 109400, Note_off_c, 1, 82, 0
2, 109440, Note_on_c, 1, 39, 127
2, 109440, Note_off_c, 1, 40, 0
2, 109440, Note_off_c, 1, 49, 0
2, 109440, Note_off_c, 1, 64, 0
2, 109440, Note_off_c, 1, 68, 0
2, 109440, Note_on_c, 1, 71, 127
2, 109440, Note_on_c, 1, 74, 127
2, 109440, Note_on_c, 1, 80, 127
2, 109480, Note_on_c, 1, 35, 127
2, 109480, Note_off_c, 1, 39, 0
2, 109480, Note_on_c, 1, 47, 127
2, 109480, Note_off_c, 1, 71, 0
2, 109480, Note_off_c, 1, 74, 0
2, 109480, Note_on_c, 1, 79, 127
2, 109480, Note_off_c, 1, 80, 0
2, 109480, Note_on_c, 1, 85, 127
2, 109480, Note_on_c, 1, 91, 127
2, 109520, Note_off_c, 1, 35, 0
2, 109520, Note_off_c, 1, 47, 0
2, 109520, Note_off_c, 1, 79, 0
2, 109520, Note_off_c, 1, 85, 0
2, 109520, Note_off_c, 1, 91, 0
2, 109560, Note_on_c, 1, 35, 127
2, 109560, Note_on_c, 1, 42, 127
2, 109560, Note_on_c, 1, 45, 127
2, 109560, Note_on_c, 1, 54, 127
2, 109560, Note_on_c, 1, 57, 127
2, 109600, Note_off_c, 1, 35, 0
2, 109600, Note_off_c, 1, 42, 0
2, 109600, Note_on_c, 1, 43, 127
2, 109600, Note_off_c, 1, 45, 0
2, 109600, Note_on_c, 1, 49, 127
2, 109600, Note_on_c, 1, 52, 127
2, 109600, Note_off_c, 1, 54, 0
2, 109600, Note_off_c, 1, 57, 0
2, 109600, Note_on_c, 1, 58, 127
2, 109600, Note_on_c, 1, 64, 127
2, 109600, Note_on_c, 1, 70, 127
2, 109600, Note_on_c, 1, 73, 127
2, 109600, Note_on_c, 1, 76, 127
2, 109640, Note_off_c, 1, 43, 0
2, 109640, Note_off_c, 1, 49, 0
2, 109640, Note_off_c, 1, 52, 0
2, 109640, Note_off_c, 1, 58, 0
2, 109640, Note_on_c, 1, 68, 127
2, 109640, Note_off_c, 1, 70, 0
2, 109640, Note_off_c, 1, 73, 0
2, 109640, Note_off_c, 1, 76, 0
2, 109640, Note_on_c, 1, 83, 127
2, 109640, Note_on_c, 1, 92, 127
2, 109640, Note_on_c, 1, 95, 127
2, 109680, Note_on_c, 1, 40, 127
2, 109680, Note_on_c, 1, 54, 127
2, 109680, Note_off_c, 1, 64, 0
2, 109680, Note_off_c, 1, 68, 0
2, 109680, Note_on_c, 1, 69, 127
2, 109680, Note_off_c, 1, 83, 0
2, 109680, Note_off_c, 1, 92, 0
2, 109680, Note_off_c, 1, 95, 0
2, 109720, Note_off_c, 1, 40, 0
2, 109720, Note_on_c, 1, 47, 127
2, 109720, Note_on_c, 1, 51, 127
2, 109720, Note_on_c, 1, 59, 127
2, 109720, Note_off_c, 1, 69, 0
2, 109720, Note_on_c, 1, 79, 127
2, 109760, Note_off_c, 1, 51, 0
2, 109760, Note_on_c, 1, 52, 127
2, 109760, Note_off_c, 1, 54, 0
2, 109760, Note_on_c, 1, 68, 127
2, 109760, Note_on_c, 1, 71, 127
2, 109760, Note_off_c, 1, 79, 0
2, 109800, Note_on_c, 1, 40, 127
2, 109800, Note_off_c, 1, 47, 0
2, 109800, Note_off_c, 1, 52, 0
2, 109800, Note_on_c, 1, 64, 127
2, 109800, Note_off_c, 1, 68, 0
2, 109800, Note_on_c, 1, 69, 127
2, 109800, Note_off_c, 1, 71, 0
2, 109840, Note_off_c, 1, 40, 0
2, 109840, Note_off_c, 1, 59, 0
2, 109840, Note_on_c, 1, 60, 127
2, 109840, Note_off_c, 1, 64, 0
2, 109840, Note_off_c, 1, 69, 0
2, 109840, Note_on_c, 1, 74, 127
2, 109840, Note_on_c, 1, 78, 127
2, 109840, Note_on_c, 1, 81, 127
2, 109840, Note_on_c, 1, 86, 127
2, 109880, Note_on_c, 1, 59, 127
2, 109880, Note_off_c, 1, 60, 0
2, 109880, Note_on_c, 1, 68, 127
2, 109880, Note_on_c, 1, 71, 127
2, 109880, Note_off_c, 1, 74, 0
2, 109880, Note_off_c, 1, 78, 0
2, 109880, Note_off_c, 1, 81, 0
2, 109880, Note_off_c, 1, 86, 0
2, 109880, Note_on_c, 1, 95, 127
2, 109920, Note_on_c, 1, 30, 127
2, 109920, Note_on_c, 1, 35, 127
2, 109920, Note_on_c, 1, 37, 127
2, 109920, Note_on_c, 1, 51, 127
2, 109920, Note_off_c, 1, 68, 0
2, 109920, Note_off_c, 1, 71, 0
2, 109920, Note_off_c, 1, 95, 0
2, 109960, Note_off_c, 1, 30, 0
2, 109960, Note_off_c, 1, 35, 0
2, 109960, Note_on_c, 1, 47, 127
2, 109960, Note_off_c, 1, 51, 0
2, 109960, Note_off_c, 1, 59, 0
2, 110000, Note_off_c, 1, 37, 0
2, 110000, Note_off_c, 1, 47, 0
2, 110000, Note_on_c, 1, 62, 127
2, 110000, Note_on_c, 1, 68, 127
2, 110000, Note_on_c, 1, 70, 127
2, 110000, Note_on_c, 1, 81, 127
2, 110000, Note_on_c, 1, 82, 127
2, 110000, Note_on_c, 1, 83, 127
2, 110040, Note_on_c, 1, 55, 127
2, 110040, Note_off_c, 1, 62, 0
2, 110040, Note_off_c, 1, 68, 0
2, 110040, Note_off_c, 1, 70, 0
2, 110040, Note_on_c, 1, 75, 127
2, 110040, Note_on_c, 1, 79, 127
2, 110040, Note_off_c, 1, 81, 0
2, 110040, Note_off_c, 1, 83, 0
2, 110040, Note_on_c, 1, 87, 127
2, 110080, Note_off_c, 1, 55, 0
2, 110080, Note_on_c, 1, 56, 127
2, 110080, Note_on_c, 1, 63, 127
2, 110080, Note_on_c, 1, 66, 127
2, 110080, Note_on_c, 1, 68, 127
2, 110080, Note_off_c, 1, 75, 0
2, 110080, Note_off_c, 1, 79, 0
2, 110080, Note_off_c, 1, 82, 0
2, 110080, Note_on_c, 1, 84, 127
2, 110080, Note_on_c, 1, 90, 127
2, 110080, Note_on_c, 1, 92, 127
2, 110080, Note_on_c, 1, 96, 127
2, 110120, Note_on_c, 1, 46, 127
2, 110120, Note_on_c, 1, 51, 127
2, 110120, Note_off_c, 1, 56, 0
2, 110120, Note_on_c, 1, 58, 127
2, 110120, Note_on_c, 1, 61, 127
2, 110120, Note_off_c, 1, 63, 0
2, 110120, Note_off_c, 1, 66, 0
2, 110120, Note_on_c, 1, 67, 127
2, 110120, Note_off_c, 1, 68, 0
2, 110120, Note_on_c, 1, 75, 127
2, 110120, Note_off_c, 1, 84, 0
2, 110120, Note_off_c, 1, 87, 0
2, 110120, Note_off_c, 1, 90, 0
2, 110120, Note_off_c, 1, 92, 0
2, 110120, Note_off_c, 1, 96, 0
2, 110160, Note_off_c, 1, 46, 0
2, 110160, Note_off_c, 1, 51, 0
2, 110160, Note_off_c, 1, 58, 0
2, 110160, Note_off_c, 1, 61, 0
2, 110160, Note_off_c, 1, 67, 0
2, 110160, Note_off_c, 1, 75, 0
2, 110240, Note_on_c, 1, 91, 127
2, 110240, Note_on_c, 1, 95, 127
2, 110240, Note_on_c, 1, 98, 127
2, 110240, Note_on_c, 1, 103, 127
2, 110440, Note_off_c, 1, 91, 0
2, 110440, Note_off_c, 1, 95, 0
2, 110440, Note_off_c, 1, 98, 0
2, 110440, Note_off_c, 1, 103, 0
2, 110480, Note_on_c, 1, 58, 127
2, 110480, Note_on_c, 1, 64, 127
2, 110480, Note_on_c, 1, 79, 127
2, 110480, Note_on_c, 1, 81, 127
2, 110520, Note_off_c, 1, 58, 0
2, 110520, Note_on_c, 1, 63, 127
2, 110520, Note_off_c, 1, 64, 0
2, 110520, Note_on_c, 1, 72, 127
2, 110520, Note_off_c, 1, 79, 0
2, 110520, Note_on_c, 1, 80, 127
2, 110520, Note_off_c, 1, 81, 0
2, 110520, Note_on_c, 1, 89, 127
2, 110560, Note_on_c, 1, 58, 127
2, 110560, Note_off_c, 1, 63, 0
2, 110560, Note_on_c, 1, 64, 127
2, 110560, Note_off_c, 1, 72, 0
2, 110560, Note_on_c, 1, 79, 127
2, 110560, Note_off_c, 1, 80, 0
2, 110560, Note_on_c, 1, 81, 127
2, 110560, Note_off_c, 1, 89, 0
2, 110680, Note_on_c, 1, 61, 127
2, 110680, Note_on_c, 1, 67, 127
2, 110680, Note_on_c, 1, 70, 127
2, 110680, Note_on_c, 1, 73, 127
2, 110680, Note_on_c, 1, 76, 127
2, 110680, Note_off_c, 1, 81, 0
2, 110680, Note_on_c, 1, 85, 127
2, 110720, Note_on_c, 1, 55, 127
2, 110720, Note_off_c, 1, 58, 0
2, 110720, Note_off_c, 1, 61, 0
2, 110720, Note_on_c, 1, 62, 127
2, 110720, Note_off_c, 1, 64, 0
2, 110720, Note_off_c, 1, 70, 0
2, 110720, Note_on_c, 1, 72, 127
2, 110720, Note_off_c, 1, 73, 0
2, 110720, Note_off_c, 1, 76, 0
2, 110720, Note_on_c, 1, 77, 127
2, 110720, Note_off_c, 1, 79, 0
2, 110720, Note_off_c, 1, 85, 0
2, 110760, Note_on_c, 1, 29, 127
2, 110760, Note_off_c, 1, 55, 0
2, 110760, Note_on_c, 1, 57, 127
2, 110760, Note_on_c, 1, 60, 127
2, 110760, Note_off_c, 1, 62, 0
2, 110760, Note_off_c, 1, 67, 0
2, 110760, Note_on_c, 1, 69, 127
2, 110760, Note_off_c, 1, 72, 0
2, 110760, Note_off_c, 1, 77, 0
2, 110800, Note_off_c, 1, 29, 0
2, 110800, Note_on_c, 1, 43, 127
2, 110800, Note_on_c, 1, 55, 127
2, 110800, Note_off_c, 1, 57, 0
2, 110800, Note_off_c, 1, 60, 0
2, 110800, Note_on_c, 1, 77, 127
2, 110840, Note_on_c, 1, 30, 127
2, 110840, Note_on_c, 1, 32, 127
2, 110840, Note_off_c, 1, 43, 0
2, 110840, Note_on_c, 1, 51, 127
2, 110840, Note_off_c, 1, 55, 0
2, 110840, Note_off_c, 1, 69, 0
2, 110840, Note_off_c, 1, 77, 0
2, 110880, Note_off_c, 1, 30, 0
2, 110880, Note_off_c, 1, 32, 0
2, 110880, Note_off_c, 1, 51, 0
2, 110880, Note_on_c, 1, 60, 127
2, 110880, Note_on_c, 1, 63, 127
2, 110880, Note_on_c, 1, 66, 127
2, 110880, Note_on_c, 1, 69, 127
2, 110880, Note_on_c, 1, 72, 127
2, 110920, Note_on_c, 1, 52, 127
2, 110920, Note_on_c, 1, 59, 127
2, 110920, Note_off_c, 1, 60, 0
2, 110920, Note_on_c, 1, 61, 127
2, 110920, Note_off_c, 1, 63, 0
2, 110920, Note_off_c, 1, 66, 0
2, 110920, Note_off_c, 1, 72, 0
2, 110960, Note_on_c, 1, 50, 127
2, 110960, Note_off_c, 1, 52, 0
2, 110960, Note_off_c, 1, 59, 0
2, 110960, Note_off_c, 1, 61, 0
2, 110960, Note_off_c, 1, 69, 0
2, 110960, Note_on_c, 1, 86, 127
2, 110960, Note_on_c, 1, 95, 127
2, 111000, Note_on_c, 1, 33, 127
2, 111000, Note_on_c, 1, 49, 127
2, 111000, Note_off_c, 1, 50, 0
2, 111000, Note_on_c, 1, 61, 127
2, 111000, Note_on_c, 1, 69, 127
2, 111000, Note_off_c, 1, 86, 0
2, 111000, Note_off_c, 1, 95, 0
2, 111040, Note_off_c, 1, 33, 0
2, 111040, Note_off_c, 1, 49, 0
2, 111040, Note_off_c, 1, 61, 0
2, 111040, Note_off_c, 1, 69, 0
2, 111040, Note_on_c, 1, 92, 127
2, 111040, Note_on_c, 1, 94, 127
2, 111080, Note_off_c, 1, 92, 0
2, 111080, Note_off_c, 1, 94, 0
2, 111320, Note_on_c, 1, 27, 127
2, 111320, Note_on_c, 1, 57, 127
2, 111360, Note_off_c, 1, 27, 0
2, 111360, Note_off_c, 1, 57, 0
2, 111360, Note_on_c, 1, 62, 127
2, 111360, Note_on_c, 1, 71, 127
2, 111360, Note_on_c, 1, 90, 127
2, 111360, Note_on_c, 1, 96, 127
2, 111400, Note_on_c, 1, 33, 127
2, 111400, Note_on_c, 1, 40, 127
2, 111400, Note_off_c, 1, 62, 0
2, 111400, Note_on_c, 1, 64, 127
2, 111400, Note_on_c, 1, 66, 127
2, 111400, Note_on_c, 1, 69, 127
2, 111400, Note_off_c, 1, 71, 0
2, 111400, Note_on_c, 1, 72, 127
2, 111400, Note_off_c, 1, 90, 0
2, 111400, Note_off_c, 1, 96, 0
2, 111440, Note_off_c, 1, 33, 0
2, 111440, Note_off_c, 1, 40, 0
2, 111440, Note_on_c, 1, 48, 127
2, 111440, Note_on_c, 1, 59, 127
2, 111440, Note_off_c, 1, 64, 0
2, 111440, Note_off_c, 1, 66, 0
2, 111440, Note_on_c, 1, 68, 127
2, 111440, Note_off_c, 1, 69, 0
2, 111440, Note_on_c, 1, 70, 127
2, 111440, Note_off_c, 1, 72, 0
2, 111480, Note_on_c, 1, 44, 127
2, 111480, Note_off_c, 1, 48, 0
2, 111480, Note_off_c, 1, 59, 0
2, 111480, Note_on_c, 1, 66, 127
2, 111480, Note_off_c, 1, 68, 0
2, 111480, Note_off_c, 1, 70, 0
2, 111480, Note_on_c, 1, 90, 127
2, 111520, Note_off_c, 1, 44, 0
2, 111520, Note_off_c, 1, 66, 0
2, 111520, Note_off_c, 1, 90, 0
2, 111560, Note_on_c, 1, 75, 127
2, 111560, Note_on_c, 1, 80, 127
2, 111560, Note_on_c, 1, 95, 127
2, 111600, Note_off_c, 1, 75, 0
2, 111600, Note_off_c, 1, 80, 0
2, 111600, Note_on_c, 1, 98, 127
2, 111640, Note_off_c, 1, 95, 0
2, 111640, Note_off_c, 1, 98, 0
2, 111680, Note_on_c, 1, 51, 127
2, 111680, Note_on_c, 1, 80, 127
2, 111680, Note_on_c, 1, 83, 127
2, 111680, Note_on_c, 1, 87, 127
2, 111720, Note_off_c, 1, 51, 0
2, 111720, Note_off_c, 1, 80, 0
2, 111720, Note_off_c, 1, 83, 0
2, 111720, Note_off_c, 1, 87, 0
2, 111720, Note_on_c, 1, 90, 127
2, 111720, Note_on_c, 1, 96, 127
2, 111760, Note_on_c, 1, 38, 127
2, 111760, Note_on_c, 1, 50, 127
2, 111760, Note_on_c, 1, 57, 127
2, 111760, Note_on_c, 1, 60, 127
2, 111760, Note_off_c, 1, 90, 0
2, 111760, Note_off_c, 1, 96, 0
2, 111800, Note_off_c, 1, 38, 0
2, 111800, Note_off_c, 1, 50, 0
2, 111800, Note_off_c, 1, 57, 0
2, 111800, Note_off_c, 1, 60, 0
2, 111800, Note_on_c, 1, 75, 127
2, 111800, Note_on_c, 1, 80, 127
2, 111800, Note_on_c, 1, 83, 127
2, 111800, Note_on_c, 1, 87, 127
2, 111840, Note_on_c, 1, 29, 127
2, 111840, Note_on_c, 1, 38, 127
2, 111840, Note_on_c, 1, 46, 127
2, 111840, Note_on_c, 1, 47, 127
2, 111840, Note_on_c, 1, 50, 127
2, 111840, Note_on_c, 1, 56, 127
2, 111840, Note_off_c, 1, 75, 0
2, 111840, Note_off_c, 1, 80, 0
2, 111840, Note_off_c, 1, 83, 0
2, 111840, Note_off_c, 1, 87, 0
2, 111880, Note_off_c, 1, 29, 0
2, 111880, Note_off_c, 1, 38, 0
2, 111880, Note_off_c, 1, 46, 0
2, 111880, Note_off_c, 1, 47, 0
2, 111880, Note_on_c, 1, 53, 127
2, 111880, Note_on_c, 1, 59, 127
2, 111880, Note_on_c, 1, 62, 127
2, 111880, Note_on_c, 1, 83, 127
2, 111880, Note_on_c, 1, 86, 127
2, 111880, Note_on_c, 1, 89, 127
2, 111880, Note_on_c, 1, 92, 127
2, 111880, Note_on_c, 1, 95, 127
2, 111920, Note_off_c, 1, 50, 0
2, 111920, Note_off_c, 1, 53, 0
2, 111920, Note_off_c, 1, 56, 0
2, 111920, Note_off_c, 1, 59, 0
2, 111920, Note_off_c, 1, 62, 0
2, 111920, Note_on_c, 1, 69, 127
2, 111920, Note_on_c, 1, 72, 127
2, 111920, Note_on_c, 1, 78, 127
2, 111920, Note_on_c, 1, 81, 127
2, 111920, Note_off_c, 1, 83, 0
2, 111920, Note_on_c, 1, 84, 127
2, 111920, Note_off_c, 1, 86, 0
2, 111920, Note_off_c, 1, 89, 0
2, 111920, Note_on_c, 1, 90, 127
2, 111920, Note_off_c, 1, 92, 0
2, 111920, Note_off_c, 1, 95, 0
2, 111960, Note_on_c, 1, 59, 127
2, 111960, Note_on_c, 1, 62, 127
2, 111960, Note_on_c, 1, 67, 127
2, 111960, Note_off_c, 1, 69, 0
2, 111960, Note_on_c, 1, 71, 127
2, 111960, Note_off_c, 1, 72, 0
2, 111960, Note_on_c, 1, 74, 127
2, 111960, Note_off_c, 1, 78, 0
2, 111960, Note_on_c, 1, 79, 127
2, 111960, Note_off_c, 1, 81, 0
2, 111960, Note_on_c, 1, 83, 127
2, 111960, Note_off_c, 1, 84, 0
2, 111960, Note_on_c, 1, 86, 127
2, 111960, Note_off_c, 1, 90, 0
2, 112000, Note_on_c, 1, 51, 127
2, 112000, Note_on_c, 1, 54, 127
2, 112000, Note_on_c, 1, 58, 127
2, 112000, Note_off_c, 1, 59, 0
2, 112000, Note_off_c, 1, 62, 0
2, 112000, Note_on_c, 1, 66, 127
2, 112000, Note_off_c, 1, 67, 0
2, 112000, Note_off_c, 1, 71, 0
2, 112000, Note_off_c, 1, 74, 0
2, 112000, Note_on_c, 1, 78, 127
2, 112000, Note_off_c, 1, 79, 0
2, 112000, Note_off_c, 1, 83, 0
2, 112000, Note_off_c, 1, 86, 0
2, 112040, Note_on_c, 1, 40, 127
2, 112040, Note_off_c, 1, 51, 0
2, 112040, Note_on_c, 1, 52, 127
2, 112040, Note_off_c, 1, 54, 0
2, 112040, Note_off_c, 1, 58, 0
2, 112040, Note_off_c, 1, 66, 0
2, 112040, Note_off_c, 1, 78, 0
2, 112040, Note_on_c, 1, 86, 127
2, 112040, Note_on_c, 1, 92, 127
2, 112080, Note_off_c, 1, 40, 0
2, 112080, Note_off_c, 1, 52, 0
2, 112080, Note_on_c, 1, 62, 127
2, 112080, Note_on_c, 1, 67, 127
2, 112080, Note_off_c, 1, 86, 0
2, 112080, Note_off_c, 1, 92, 0
2, 112080, Note_on_c, 1, 93, 127
2, 112080, Note_on_c, 1, 95, 127
2, 112120, Note_off_c, 1, 62, 0
2, 112120, Note_off_c, 1, 67, 0
2, 112120, Note_off_c, 1, 93, 0
2, 112120, Note_off_c, 1, 95, 0
2, 112120, Note_on_c, 1, 100, 127
2, 112160, Note_on_c, 1, 42, 127
2, 112160, Note_on_c, 1, 54, 127
2, 112160, Note_on_c, 1, 90, 127
2, 112160, Note_on_c, 1, 97, 127
2, 112160, Note_off_c, 1, 100, 0
2, 112200, Note_off_c, 1, 42, 0
2, 112200, Note_off_c, 1, 54, 0
2, 112200, Note_off_c, 1, 90, 0
2, 112240, Note_on_c, 1, 52, 127
2, 112240, Note_on_c, 1, 96, 127
2, 112240, Note_off_c, 1, 97, 0
2, 112280, Note_off_c, 1, 52, 0
2, 112280, Note_off_c, 1, 96, 0
2, 112320, Note_on_c, 1, 78, 127
2, 112320, Note_on_c, 1, 84, 127
2, 112320, Note_on_c, 1, 86, 127
2, 112360, Note_on_c, 1, 46, 127
2, 112360, Note_on_c, 1, 51, 127
2, 112360, Note_on_c, 1, 69, 127
2, 112360, Note_off_c, 1, 78, 0
2, 112360, Note_off_c, 1, 84, 0
2, 112360, Note_off_c, 1, 86, 0
2, 112400, Note_on_c, 1, 37, 127
2, 112400, Note_off_c, 1, 46, 0
2, 112400, Note_on_c, 1, 49, 127
2, 112400, Note_off_c, 1, 51, 0
2, 112400, Note_on_c, 1, 66, 127
2, 112400, Note_on_c, 1, 68, 127
2, 112400, Note_off_c, 1, 69, 0
2, 112400, Note_on_c, 1, 71, 127
2, 112400, Note_on_c, 1, 75, 127
2, 112440, Note_off_c, 1, 37, 0
2, 112440, Note_off_c, 1, 49, 0
2, 112440, Note_on_c, 1, 52, 127
2, 112440, Note_off_c, 1, 66, 0
2, 112440, Note_off_c, 1, 71, 0
2, 112440, Note_on_c, 1, 72, 127
2, 112440, Note_off_c, 1, 75, 0
2, 112440, Note_on_c, 1, 77, 127
2, 112480, Note_on_c, 1, 34, 127
2, 112480, Note_on_c, 1, 46, 127
2, 112480, Note_off_c, 1, 52, 0
2, 112480, Note_on_c, 1, 67, 127
2, 112480, Note_off_c, 1, 68, 0
2, 112480, Note_on_c, 1, 70, 127
2, 112480, Note_off_c, 1, 72, 0
2, 112480, Note_on_c, 1, 75, 127
2, 112480, Note_off_c, 1, 77, 0
2, 112480, Note_on_c, 1, 79, 127
2, 112520, Note_off_c, 1, 34, 0
2, 112520, Note_on_c, 1, 36, 127
2, 112520, Note_on_c, 1, 43, 127
2, 112520, Note_off_c, 1, 46, 0
2, 112520, Note_on_c, 1, 63, 127
2, 112520, Note_on_c, 1, 66, 127
2, 112520, Note_off_c, 1, 67, 0
2, 112520, Note_off_c, 1, 70, 0
2, 112520, Note_off_c, 1, 75, 0
2, 112520, Note_off_c, 1, 79, 0
2, 112560, Note_off_c, 1, 36, 0
2, 112560, Note_off_c, 1, 43, 0
2, 112560, Note_off_c, 1, 63, 0
2, 112560, Note_off_c, 1, 66, 0
2, 112560, Note_on_c, 1, 68, 127
2, 112560, Note_on_c, 1, 74, 127
2, 112560, Note_on_c, 1, 77, 127
2, 112560, Note_on_c, 1, 79, 127
2, 112560, Note_on_c, 1, 86, 127
2, 112600, Note_on_c, 1, 46, 127
2, 112600, Note_on_c, 1, 61, 127
2, 112600, Note_on_c, 1, 63, 127
2, 112600, Note_on_c, 1, 67, 127
2, 112600, Note_off_c, 1, 68, 0
2, 112600, Note_off_c, 1, 74, 0
2, 112600, Note_off_c, 1, 77, 0
2, 112600, Note_off_c, 1, 86, 0
2, 112640, Note_off_c, 1, 46, 0
2, 112640, Note_off_c, 1, 61, 0
2, 112640, Note_off_c, 1, 63, 0
2, 112640, Note_off_c, 1, 67, 0
2, 112640, Note_off_c, 1, 79, 0
2, 112640, Note_on_c, 1, 83, 127
2, 112640, Note_on_c, 1, 86, 127
2, 112640, Note_on_c, 1, 91, 127
2, 112640, Note_on_c, 1, 95, 127
2, 112680, Note_on_c, 1, 56, 127
2, 112680, Note_on_c, 1, 63, 127
2, 112680, Note_on_c, 1, 78, 127
2, 112680, Note_off_c, 1, 83, 0
2, 112680, Note_on_c, 1, 84, 127
2, 112680, Note_off_c, 1, 86, 0
2, 112680, Note_off_c, 1, 91, 0
2, 112680, Note_off_c, 1, 95, 0
2, 112720, Note_off_c, 1, 56, 0
2, 112720, Note_off_c, 1, 63, 0
2, 112720, Note_on_c, 1, 69, 127
2, 112720, Note_on_c, 1, 73, 127
2, 112720, Note_off_c, 1, 78, 0
2, 112720, Note_off_c, 1, 84, 0
2, 112720, Note_on_c, 1, 85, 127
2, 112720, Note_on_c, 1, 93, 127
2, 112720, Note_on_c, 1, 97, 127
2, 112760, Note_on_c, 1, 56, 127
2, 112760, Note_on_c, 1, 65, 127
2, 112760, Note_on_c, 1, 68, 127
2, 112760, Note_off_c, 1, 69, 0
2, 112760, Note_off_c, 1, 73, 0
2, 112760, Note_off_c, 1, 85, 0
2, 112760, Note_off_c, 1, 93, 0
2, 112800, Note_off_c, 1, 56, 0
2, 112800, Note_off_c, 1, 65, 0
2, 112800, Note_off_c, 1, 68, 0
2, 112800, Note_off_c, 1, 97, 0
2, 112800, Note_on_c, 1, 100, 127
2, 112800, Note_on_c, 1, 102, 127
2, 112840, Note_on_c, 1, 72, 127
2, 112840, Note_on_c, 1, 77, 127
2, 112840, Note_off_c, 1, 100, 0
2, 112840, Note_on_c, 1, 101, 127
2, 112840, Note_off_c, 1, 102, 0
2, 112880, Note_on_c, 1, 50, 127
2, 112880, Note_on_c, 1, 53, 127
2, 112880, Note_off_c, 1, 72, 0
2, 112880, Note_on_c, 1, 75, 127
2, 112880, Note_off_c, 1, 77, 0
2, 112880, Note_on_c, 1, 87, 127
2, 112880, Note_off_c, 1, 101, 0
2, 112920, Note_off_c, 1, 50, 0
2, 112920, Note_off_c, 1, 53, 0
2, 112920, Note_off_c, 1, 75, 0
2, 112920, Note_off_c, 1, 87, 0
2, 112920, Note_on_c, 1, 92, 127
2, 112920, Note_on_c, 1, 104, 127
2, 112960, Note_off_c, 1, 92, 0
2, 112960, Note_on_c, 1, 93, 127
2, 112960, Note_on_c, 1, 98, 127
2, 112960, Note_on_c, 1, 100, 127
2, 112960, Note_off_c, 1, 104, 0
2, 113000, Note_on_c, 1, 63, 127
2, 113000, Note_on_c, 1, 67, 127
2, 113000, Note_on_c, 1, 77, 127
2, 113000, Note_on_c, 1, 89, 127
2, 113000, Note_off_c, 1, 93, 0
2, 113000, Note_off_c, 1, 98, 0
2, 113000, Note_off_c, 1, 100, 0
2, 113040, Note_on_c, 1, 59, 127
2, 113040, Note_on_c, 1, 62, 127
2, 113040, Note_off_c, 1, 63, 0
2, 113040, Note_off_c, 1, 77, 0
2, 113040, Note_on_c, 1, 83, 127
2, 113040, Note_off_c, 1, 89, 0
2, 113040, Note_on_c, 1, 95, 127
2, 113080, Note_on_c, 1, 43, 127
2, 113080, Note_on_c, 1, 44, 127
2, 113080, Note_on_c, 1, 55, 127
2, 113080, Note_on_c, 1, 56, 127
2, 113080, Note_off_c, 1, 59, 0
2, 113080, Note_off_c, 1, 62, 0
2, 113080, Note_off_c, 1, 67, 0
2, 113080, Note_off_c, 1, 83, 0
2, 113080, Note_off_c, 1, 95, 0
2, 113120, Note_off_c, 1, 43, 0
2, 113120, Note_off_c, 1, 44, 0
2, 113120, Note_on_c, 1, 47, 127
2, 113120, Note_on_c, 1, 49, 127
2, 113120, Note_off_c, 1, 55, 0
2, 113120, Note_on_c, 1, 58, 127
2, 113160, Note_off_c, 1, 47, 0
2, 113160, Note_off_c, 1, 49, 0
2, 113160, Note_off_c, 1, 56, 0
2, 113160, Note_off_c, 1, 58, 0
2, 113160, Note_on_c, 1, 64, 127
2, 113160, Note_on_c, 1, 102, 127
2, 113200, Note_on_c, 1, 43, 127
2, 113200, Note_on_c, 1, 55, 127
2, 113200, Note_on_c, 1, 60, 127
2, 113200, Note_on_c, 1, 69, 127
2, 113200, Note_on_c, 1, 72, 127
2, 113200, Note_off_c, 1, 102, 0
2, 113240, Note_off_c, 1, 43, 0
2, 113240, Note_off_c, 1, 55, 0
2, 113240, Note_off_c, 1, 64, 0
2, 113240, Note_off_c, 1, 69, 0
2, 113240, Note_on_c, 1, 86, 127
2, 113240, Note_on_c, 1, 90, 127
2, 113240, Note_on_c, 1, 93, 127
2, 113280, Note_on_c, 1, 59, 127
2, 113280, Note_on_c, 1, 62, 127
2, 113280, Note_on_c, 1, 63, 127
2, 113280, Note_on_c, 1, 67, 127
2, 113280, Note_on_c, 1, 68, 127
2, 113280, Note_on_c, 1, 71, 127
2, 113280, Note_on_c, 1, 79, 127
2, 113280, Note_on_c, 1, 80, 127
2, 113280, Note_off_c, 1, 86, 0
2, 113280, Note_off_c, 1, 90, 0
2, 113280, Note_off_c, 1, 93, 0
2, 113320, Note_on_c, 1, 48, 127
2, 113320, Note_on_c, 1, 57, 127
2, 113320, Note_off_c, 1, 59, 0
2, 113320, Note_off_c, 1, 60, 0
2, 113320, Note_off_c, 1, 62, 0
2, 113320, Note_off_c, 1, 63, 0
2, 113320, Note_off_c, 1, 67, 0
2, 113320, Note_on_c, 1, 70, 127
2, 113320, Note_off_c, 1, 71, 0
2, 113320, Note_off_c, 1, 79, 0
2, 113320, Note_off_c, 1, 80, 0
2, 113360, Note_on_c, 1, 45, 127
2, 113360, Note_on_c, 1, 46, 127
2, 113360, Note_off_c, 1, 48, 0
2, 113360, Note_on_c, 1, 58, 127
2, 113360, Note_off_c, 1, 68, 0
2, 113360, Note_off_c, 1, 70, 0
2, 113360, Note_off_c, 1, 72, 0
2, 113400, Note_off_c, 1, 45, 0
2, 113400, Note_off_c, 1, 46, 0
2, 113400, Note_off_c, 1, 57, 0
2, 113400, Note_off_c, 1, 58, 0
2, 113400, Note_on_c, 1, 89, 127
2, 113400, Note_on_c, 1, 96, 127
2, 113400, Note_on_c, 1, 101, 127
2, 113440, Note_on_c, 1, 33, 127
2, 113440, Note_on_c, 1, 45, 127
2, 113440, Note_off_c, 1, 96, 0
2, 113440, Note_off_c, 1, 101, 0
2, 113480, Note_off_c, 1, 33, 0
2, 113480, Note_on_c, 1, 43, 127
2, 113480, Note_off_c, 1, 45, 0
2, 113480, Note_on_c, 1, 55, 127
2, 113480, Note_on_c, 1, 69, 127
2, 113480, Note_on_c, 1, 75, 127
2, 113480, Note_off_c, 1, 89, 0
2, 113520, Note_off_c, 1, 43, 0
2, 113520, Note_off_c, 1, 55, 0
2, 113520, Note_on_c, 1, 56, 127
2, 113520, Note_on_c, 1, 61, 127
2, 113520, Note_on_c, 1, 65, 127
2, 113520, Note_on_c, 1, 68, 127
2, 113520, Note_off_c, 1, 69, 0
2, 113520, Note_on_c, 1, 73, 127
2, 113520, Note_off_c, 1, 75, 0
2, 113520, Note_on_c, 1, 85, 127
2, 113560, Note_on_c, 1, 39, 127
2, 113560, Note_on_c, 1, 48, 127
2, 113560, Note_on_c, 1, 51, 127
2, 113560, Note_off_c, 1, 56, 0
2, 113560, Note_off_c, 1, 61, 0
2, 113560, Note_off_c, 1, 65, 0
2, 113560, Note_off_c, 1, 68, 0
2, 113560, Note_off_c, 1, 73, 0
2, 113560, Note_on_c, 1, 84, 127
2, 113560, Note_off_c, 1, 85, 0
2, 113560, Note_on_c, 1, 90, 127
2, 113560, Note_on_c, 1, 93, 127
2, 113600, Note_off_c, 1, 39, 0
2, 113600, Note_off_c, 1, 48, 0
2, 113600, Note_off_c, 1, 51, 0
2, 113600, Note_off_c, 1, 84, 0
2, 113600, Note_off_c, 1, 90, 0
2, 113600, Note_off_c, 1, 93, 0
2, 113640, Note_on_c, 1, 47, 127
2, 113640, Note_on_c, 1, 55, 127
2, 113640, Note_on_c, 1, 67, 127
2, 113640, Note_on_c, 1, 76, 127
2, 113680, Note_off_c, 1, 47, 0
2, 113680, Note_on_c, 1, 48, 127
2, 113680, Note_on_c, 1, 64, 127
2, 113680, Note_off_c, 1, 67, 0
2, 113680, Note_off_c, 1, 76, 0
2, 113680, Note_on_c, 1, 84, 127
2, 113680, Note_on_c, 1, 96, 127
2, 113720, Note_on_c, 1, 44, 127
2, 113720, Note_on_c, 1, 51, 127
2, 113720, Note_on_c, 1, 53, 127
2, 113720, Note_off_c, 1, 55, 0
2, 113720, Note_off_c, 1, 64, 0
2, 113720, Note_on_c, 1, 77, 127
2, 113720, Note_off_c, 1, 84, 0
2, 113720, Note_off_c, 1, 96, 0
2, 113760, Note_off_c, 1, 44, 0
2, 113760, Note_off_c, 1, 48, 0
2, 113760, Note_off_c, 1, 51, 0
2, 113760, Note_on_c, 1, 56, 127
2, 113760, Note_on_c, 1, 61, 127
2, 113760, Note_on_c, 1, 73, 127
2, 113760, Note_on_c, 1, 80, 127
2, 113760, Note_on_c, 1, 85, 127
2, 113800, Note_on_c, 1, 37, 127
2, 113800, Note_on_c, 1, 41, 127
2, 113800, Note_on_c, 1, 44, 127
2, 113800, Note_on_c, 1, 49, 127
2, 113800, Note_off_c, 1, 53, 0
2, 113800, Note_off_c, 1, 56, 0
2, 113800, Note_on_c, 1, 65, 127
2, 113800, Note_on_c, 1, 68, 127
2, 113800, Note_off_c, 1, 77, 0
2, 113800, Note_off_c, 1, 80, 0
2, 113800, Note_off_c, 1, 85, 0
2, 113840, Note_off_c, 1, 37, 0
2, 113840, Note_on_c, 1, 38, 127
2, 113840, Note_off_c, 1, 41, 0
2, 113840, Note_on_c, 1, 42, 127
2, 113840, Note_off_c, 1, 44, 0
2, 113840, Note_on_c, 1, 45, 127
2, 113840, Note_off_c, 1, 49, 0
2, 113840, Note_on_c, 1, 50, 127
2, 113840, Note_off_c, 1, 61, 0
2, 113840, Note_off_c, 1, 65, 0
2, 113840, Note_off_c, 1, 68, 0
2, 113840, Note_off_c, 1, 73, 0
2, 113840, Note_on_c, 1, 74, 127
2, 113840, Note_on_c, 1, 78, 127
2, 113840, Note_on_c, 1, 81, 127
2, 113840, Note_on_c, 1, 86, 127
2, 113880, Note_off_c, 1, 38, 0
2, 113880, Note_off_c, 1, 42, 0
2, 113880, Note_off_c, 1, 45, 0
2, 113880, Note_off_c, 1, 50, 0
2, 113880, Note_on_c, 1, 63, 127
2, 113880, Note_on_c, 1, 66, 127
2, 113880, Note_off_c, 1, 74, 0
2, 113880, Note_off_c, 1, 78, 0
2, 113880, Note_off_c, 1, 81, 0
2, 113880, Note_on_c, 1, 82, 127
2, 113880, Note_off_c, 1, 86, 0
2, 113880, Note_on_c, 1, 87, 127
2, 113880, Note_on_c, 1, 90, 127
2, 113920, Note_off_c, 1, 63, 0
2, 113920, Note_off_c, 1, 66, 0
2, 113920, Note_off_c, 1, 82, 0
2, 113920, Note_off_c, 1, 87, 0
2, 113920, Note_off_c, 1, 90, 0
2, 114040, Note_on_c, 1, 43, 127
2, 114040, Note_on_c, 1, 49, 127
2, 114040, Note_on_c, 1, 52, 127
2, 114040, Note_on_c, 1, 58, 127
2, 114040, Note_on_c, 1, 61, 127
2, 114040, Note_on_c, 1, 64, 127
2, 114040, Note_on_c, 1, 70, 127
2, 114240, Note_off_c, 1, 49, 0
2, 114240, Note_off_c, 1, 52, 0
2, 114240, Note_off_c, 1, 61, 0
2, 114240, Note_off_c, 1, 64, 0
2, 114240, Note_off_c, 1, 70, 0
2, 114240, Note_on_c, 1, 77, 127
2, 114280, Note_on_c, 1, 48, 127
2, 114280, Note_off_c, 1, 58, 0
2, 114280, Note_on_c, 1, 76, 127
2, 114280, Note_off_c, 1, 77, 0
2, 114320, Note_off_c, 1, 43, 0
2, 114320, Note_off_c, 1, 48, 0
2, 114320, Note_off_c, 1, 76, 0
2, 114320, Note_on_c, 1, 96, 127
2, 114320, Note_on_c, 1, 97, 127
2, 114320, Note_on_c, 1, 100, 127
2, 114360, Note_on_c, 1, 47, 127
2, 114360, Note_on_c, 1, 63, 127
2, 114360, Note_on_c, 1, 64, 127
2, 114360, Note_on_c, 1, 66, 127
2, 114360, Note_off_c, 1, 96, 0
2, 114360, Note_off_c, 1, 97, 0
2, 114360, Note_off_c, 1, 100, 0
2, 114400, Note_on_c, 1, 43, 127
2, 114400, Note_off_c, 1, 47, 0
2, 114400, Note_on_c, 1, 55, 127
2, 114400, Note_off_c, 1, 63, 0
2, 114400, Note_off_c, 1, 66, 0
2, 114400, Note_on_c, 1, 69, 127
2, 114440, Note_off_c, 1, 43, 0
2, 114440, Note_off_c, 1, 55, 0
2, 114440, Note_on_c, 1, 59, 127
2, 114440, Note_off_c, 1, 64, 0
2, 114440, Note_off_c, 1, 69, 0
2, 114440, Note_on_c, 1, 82, 127
2, 114440, Note_on_c, 1, 85, 127
2, 114440, Note_on_c, 1, 88, 127
2, 114440, Note_on_c, 1, 94, 127
2, 114480, Note_on_c, 1, 38, 127
2, 114480, Note_on_c, 1, 47, 127
2, 114480, Note_on_c, 1, 50, 127
2, 114480, Note_off_c, 1, 59, 0
2, 114480, Note_off_c, 1, 82, 0
2, 114480, Note_on_c, 1, 83, 127
2, 114480, Note_off_c, 1, 85, 0
2, 114480, Note_off_c, 1, 88, 0
2, 114480, Note_on_c, 1, 89, 127
2, 114480, Note_on_c, 1, 92, 127
2, 114480, Note_off_c, 1, 94, 0
2, 114520, Note_off_c, 1, 38, 0
2, 114520, Note_off_c, 1, 47, 0
2, 114520, Note_off_c, 1, 50, 0
2, 114520, Note_on_c, 1, 60, 127
2, 114520, Note_off_c, 1, 83, 0
2, 114520, Note_on_c, 1, 86, 127
2, 114520, Note_off_c, 1, 89, 0
2, 114520, Note_off_c, 1, 92, 0
2, 114520, Note_on_c, 1, 95, 127
2, 114560, Note_on_c, 1, 56, 127
2, 114560, Note_off_c, 1, 60, 0
2, 114560, Note_on_c, 1, 63, 127
2, 114560, Note_on_c, 1, 66, 127
2, 114560, Note_on_c, 1, 70, 127
2, 114560, Note_on_c, 1, 75, 127
2, 114560, Note_off_c, 1, 86, 0
2, 114560, Note_off_c, 1, 95, 0
2, 114600, Note_on_c, 1, 31, 127
2, 114600, Note_on_c, 1, 34, 127
2, 114600, Note_on_c, 1, 43, 127
2, 114600, Note_off_c, 1, 56, 0
2, 114600, Note_off_c, 1, 63, 0
2, 114600, Note_off_c, 1, 66, 0
2, 114600, Note_off_c, 1, 70, 0
2, 114600, Note_on_c, 1, 72, 127
2, 114600, Note_on_c, 1, 79, 127
2, 114600, Note_on_c, 1, 81, 127
2, 114640, Note_off_c, 1, 31, 0
2, 114640, Note_off_c, 1, 34, 0
2, 114640, Note_on_c, 1, 39, 127
2, 114640, Note_off_c, 1, 43, 0
2, 114640, Note_on_c, 1, 58, 127
2, 114640, Note_off_c, 1, 72, 0
2, 114640, Note_off_c, 1, 75, 0
2, 114640, Note_on_c, 1, 78, 127
2, 114640, Note_off_c, 1, 79, 0
2, 114640, Note_off_c, 1, 81, 0
2, 114680, Note_off_c, 1, 39, 0
2, 114680, Note_on_c, 1, 41, 127
2, 114680, Note_on_c, 1, 57, 127
2, 114680, Note_off_c, 1, 58, 0
2, 114680, Note_on_c, 1, 60, 127
2, 114680, Note_on_c, 1, 63, 127
2, 114680, Note_on_c, 1, 69, 127
2, 114680, Note_off_c, 1, 78, 0
2, 114720, Note_on_c, 1, 39, 127
2, 114720, Note_on_c, 1, 54, 127
2, 114720, Note_off_c, 1, 63, 0
2, 114720, Note_off_c, 1, 69, 0
2, 114760, Note_off_c, 1, 39, 0
2, 114760, Note_off_c, 1, 41, 0
2, 114760, Note_on_c, 1, 49, 127
2, 114760, Note_off_c, 1, 57, 0
2, 114760, Note_off_c, 1, 60, 0
2, 114760, Note_on_c, 1, 93, 127
2, 114800, Note_off_c, 1, 49, 0
2, 114800, Note_on_c, 1, 52, 127
2, 114800, Note_off_c, 1, 54, 0
2, 114800, Note_on_c, 1, 55, 127
2, 114800, Note_on_c, 1, 58, 127
2, 114800, Note_on_c, 1, 60, 127
2, 114800, Note_on_c, 1, 82, 127
2, 114800, Note_on_c, 1, 86, 127
2, 114800, Note_off_c, 1, 93, 0
2, 114840, Note_off_c, 1, 52, 0
2, 114840, Note_off_c, 1, 55, 0
2, 114840, Note_off_c, 1, 58, 0
2, 114840, Note_off_c, 1, 60, 0
2, 114840, Note_on_c, 1, 61, 127
2, 114840, Note_on_c, 1, 73, 127
2, 114840, Note_off_c, 1, 82, 0
2, 114840, Note_on_c, 1, 85, 127
2, 114840, Note_off_c, 1, 86, 0
2, 114840, Note_on_c, 1, 88, 127
2, 114840, Note_on_c, 1, 93, 127
2, 114840, Note_on_c, 1, 97, 127
2, 114880, Note_on_c, 1, 29, 127
2, 114880, Note_on_c, 1, 55, 127
2, 114880, Note_off_c, 1, 61, 0
2, 114880, Note_off_c, 1, 73, 0
2, 114880, Note_off_c, 1, 85, 0
2, 114880, Note_off_c, 1, 88, 0
2, 114880, Note_off_c, 1, 93, 0
2, 114880, Note_off_c, 1, 97, 0
2, 114920, Note_off_c, 1, 29, 0
2, 114920, Note_on_c, 1, 45, 127
2, 114920, Note_on_c, 1, 48, 127
2, 114920, Note_on_c, 1, 53, 127
2, 114920, Note_off_c, 1, 55, 0
2, 114920, Note_on_c, 1, 57, 127
2, 114920, Note_on_c, 1, 64, 127
2, 114920, Note_on_c, 1, 76, 127
2, 114960, Note_off_c, 1, 45, 0
2, 114960, Note_off_c, 1, 48, 0
2, 114960, Note_off_c, 1, 53, 0
2, 114960, Note_off_c, 1, 57, 0
2, 114960, Note_off_c, 1, 64, 0
2, 114960, Note_off_c, 1, 76, 0
2, 114960, Note_on_c, 1, 78, 127
2, 114960, Note_on_c, 1, 81, 127
2, 114960, Note_on_c, 1, 93, 127
2, 114960, Note_on_c, 1, 95, 127
2, 114960, Note_on_c, 1, 97, 127
2, 115000, Note_on_c, 1, 44, 127
2, 115000, Note_on_c, 1, 66, 127
2, 115000, Note_on_c, 1, 73, 127
2, 115000, Note_off_c, 1, 78, 0
2, 115000, Note_off_c, 1, 93, 0
2, 115000, Note_off_c, 1, 95, 0
2, 115000, Note_off_c, 1, 97, 0
2, 115040, Note_off_c, 1, 44, 0
2, 115040, Note_on_c, 1, 65, 127
2, 115040, Note_off_c, 1, 66, 0
2, 115040, Note_off_c, 1, 73, 0
2, 115040, Note_off_c, 1, 81, 0
2, 115040, Note_on_c, 1, 89, 127
2, 115040, Note_on_c, 1, 90, 127
2, 115080, Note_on_c, 1, 64, 127
2, 115080, Note_off_c, 1, 65, 0
2, 115080, Note_on_c, 1, 73, 127
2, 115080, Note_on_c, 1, 81, 127
2, 115080, Note_on_c, 1, 85, 127
2, 115080, Note_off_c, 1, 89, 0
2, 115080, Note_off_c, 1, 90, 0
2, 115120, Note_on_c, 1, 44, 127
2, 115120, Note_on_c, 1, 51, 127
2, 115120, Note_on_c, 1, 59, 127
2, 115120, Note_off_c, 1, 64, 0
2, 115120, Note_on_c, 1, 66, 127
2, 115120, Note_off_c, 1, 73, 0
2, 115120, Note_off_c, 1, 81, 0
2, 115120, Note_off_c, 1, 85, 0
2, 115160, Note_on_c, 1, 29, 127
2, 115160, Note_on_c, 1, 30, 127
2, 115160, Note_off_c, 1, 44, 0
2, 115160, Note_off_c, 1, 51, 0
2, 115160, Note_off_c, 1, 59, 0
2, 115160, Note_off_c, 1, 66, 0
2, 115200, Note_off_c, 1, 29, 0
2, 115200, Note_off_c, 1, 30, 0
2, 115200, Note_on_c, 1, 70, 127
2, 115200, Note_on_c, 1, 74, 127
2, 115200, Note_on_c, 1, 79, 127
2, 115200, Note_on_c, 1, 82, 127
2, 115200, Note_on_c, 1, 86, 127
2, 115200, Note_on_c, 1, 91, 127
2, 115240, Note_on_c, 1, 36, 127
2, 115240, Note_on_c, 1, 37, 127
2, 115240, Note_on_c, 1, 45, 127
2, 115240, Note_on_c, 1, 48, 127
2, 115240, Note_on_c, 1, 49, 127
2, 115240, Note_off_c, 1, 70, 0
2, 115240, Note_off_c, 1, 74, 0
2, 115240, Note_off_c, 1, 79, 0
2, 115240, Note_off_c, 1, 82, 0
2, 115240, Note_off_c, 1, 86, 0
2, 115240, Note_off_c, 1, 91, 0
2, 115280, Note_off_c, 1, 36, 0
2, 115280, Note_off_c, 1, 37, 0
2, 115280, Note_off_c, 1, 45, 0
2, 115280, Note_off_c, 1, 48, 0
2, 115280, Note_off_c, 1, 49, 0
2, 115280, Note_on_c, 1, 60, 127
2, 115280, Note_on_c, 1, 66, 127
2, 115280, Note_on_c, 1, 74, 127
2, 115280, Note_on_c, 1, 81, 127
2, 115320, Note_on_c, 1, 56, 127
2, 115320, Note_on_c, 1, 59, 127
2, 115320, Note_off_c, 1, 60, 0
2, 115320, Note_on_c, 1, 65, 127
2, 115320, Note_off_c, 1, 66, 0
2, 115320, Note_off_c, 1, 74, 0
2, 115320, Note_off_c, 1, 81, 0
2, 115320, Note_on_c, 1, 88, 127
2, 115320, Note_on_c, 1, 92, 127
2, 115320, Note_on_c, 1, 100, 127
2, 115360, Note_on_c, 1, 54, 127
2, 115360, Note_off_c, 1, 56, 0
2, 115360, Note_off_c, 1, 59, 0
2, 115360, Note_on_c, 1, 61, 127
2, 115360, Note_off_c, 1, 65, 0
2, 115360, Note_on_c, 1, 70, 127
2, 115360, Note_on_c, 1, 73, 127
2, 115360, Note_on_c, 1, 85, 127
2, 115360, Note_off_c, 1, 88, 0
2, 115360, Note_off_c, 1, 92, 0
2, 115360, Note_on_c, 1, 94, 127
2, 115360, Note_on_c, 1, 97, 127
2, 115360, Note_off_c, 1, 100, 0
2, 115400, Note_on_c, 1, 44, 127
2, 115400, Note_on_c, 1, 60, 127
2, 115400, Note_off_c, 1, 61, 0
2, 115400, Note_on_c, 1, 65, 127
2, 115400, Note_off_c, 1, 70, 0
2, 115400, Note_off_c, 1, 73, 0
2, 115400, Note_on_c, 1, 77, 127
2, 115400, Note_off_c, 1, 85, 0
2, 115400, Note_off_c, 1, 94, 0
2, 115400, Note_off_c, 1, 97, 0
2, 115440, Note_off_c, 1, 44, 0
2, 115440, Note_off_c, 1, 54, 0
2, 115440, Note_off_c, 1, 60, 0
2, 115440, Note_off_c, 1, 65, 0
2, 115440, Note_off_c, 1, 77, 0
2, 115480, Note_on_c, 1, 32, 127
2, 115480, Note_on_c, 1, 37, 127
2, 115480, Note_on_c, 1, 41, 127
2, 115480, Note_on_c, 1, 44, 127
2, 115480, Note_on_c, 1, 49, 127
2, 115480, Note_on_c, 1, 53, 127
2, 115480, Note_on_c, 1, 61, 127
2, 115520, Note_off_c, 1, 32, 0
2, 115520, Note_off_c, 1, 37, 0
2, 115520, Note_off_c, 1, 41, 0
2, 115520, Note_off_c, 1, 53, 0
2, 115520, Note_on_c, 1, 59, 127
2, 115520, Note_off_c, 1, 61, 0
2, 115520, Note_on_c, 1, 65, 127
2, 115520, Note_on_c, 1, 68, 127
2, 115560, Note_on_c, 1, 43, 127
2, 115560, Note_off_c, 1, 44, 0
2, 115560, Note_off_c, 1, 49, 0
2, 115560, Note_on_c, 1, 50, 127
2, 115560, Note_on_c, 1, 52, 127
2, 115560, Note_on_c, 1, 55, 127
2, 115560, Note_off_c, 1, 65, 0
2, 115560, Note_off_c, 1, 68, 0
2, 115600, Note_off_c, 1, 43, 0
2, 115600, Note_off_c, 1, 50, 0
2, 115600, Note_on_c, 1, 51, 127
2, 115600, Note_off_c, 1, 52, 0
2, 115600, Note_off_c, 1, 55, 0
2, 115600, Note_on_c, 1, 58, 127
2, 115600, Note_off_c, 1, 59, 0
2, 115600, Note_on_c, 1, 61, 127
2, 115600, Note_on_c, 1, 64, 127
2, 115600, Note_on_c, 1, 67, 127
2, 115600, Note_on_c, 1, 70, 127
2, 115600, Note_on_c, 1, 76, 127
2, 115600, Note_on_c, 1, 79, 127
2, 115640, Note_off_c, 1, 51, 0
2, 115640, Note_on_c, 1, 55, 127
2, 115640, Note_on_c, 1, 57, 127
2, 115640, Note_off_c, 1, 58, 0
2, 115640, Note_off_c, 1, 61, 0
2, 115640, Note_off_c, 1, 64, 0
2, 115640, Note_off_c, 1, 67, 0
2, 115640, Note_off_c, 1, 70, 0
2, 115640, Note_off_c, 1, 76, 0
2, 115640, Note_on_c, 1, 84, 127
2, 115680, Note_on_c, 1, 45, 127
2, 115680, Note_on_c, 1, 49, 127
2, 115680, Note_on_c, 1, 67, 127
2, 115680, Note_on_c, 1, 69, 127
2, 115680, Note_off_c, 1, 79, 0
2, 115680, Note_off_c, 1, 84, 0
2, 115720, Note_on_c, 1, 48, 127
2, 115720, Note_off_c, 1, 49, 0
2, 115720, Note_on_c, 1, 53, 127
2, 115720, Note_off_c, 1, 55, 0
2, 115720, Note_off_c, 1, 57, 0
2, 115720, Note_off_c, 1, 67, 0
2, 115720, Note_off_c, 1, 69, 0
2, 115720, Note_on_c, 1, 82, 127
2, 115760, Note_off_c, 1, 45, 0
2, 115760, Note_off_c, 1, 53, 0
2, 115760, Note_on_c, 1, 57, 127
2, 115760, Note_on_c, 1, 64, 127
2, 115760, Note_on_c, 1, 69, 127
2, 115760, Note_on_c, 1, 76, 127
2, 115760, Note_on_c, 1, 80, 127
2, 115760, Note_on_c, 1, 81, 127
2, 115760, Note_off_c, 1, 82, 0
2, 115800, Note_on_c, 1, 45, 127
2, 115800, Note_off_c, 1, 48, 0
2, 115800, Note_on_c, 1, 49, 127
2, 115800, Note_on_c, 1, 52, 127
2, 115800, Note_off_c, 1, 64, 0
2, 115800, Note_off_c, 1, 69, 0
2, 115800, Note_off_c, 1, 76, 0
2, 115800, Note_off_c, 1, 80, 0
2, 115800, Note_off_c, 1, 81, 0
2, 115800, Note_on_c, 1, 93, 127
2, 115800, Note_on_c, 1, 97, 127
2, 115800, Note_on_c, 1, 105, 127
2, 115840, Note_off_c, 1, 45, 0
2, 115840, Note_off_c, 1, 49, 0
2, 115840, Note_off_c, 1, 52, 0
2, 115840, Note_on_c, 1, 55, 127
2, 115840, Note_off_c, 1, 57, 0
2, 115840, Note_on_c, 1, 63, 127
2, 115840, Note_on_c, 1, 70, 127
2, 115840, Note_on_c, 1, 74, 127
2, 115840, Note_on_c, 1, 87, 127
2, 115840, Note_off_c, 1, 93, 0
2, 115840, Note_on_c, 1, 95, 127
2, 115840, Note_off_c, 1, 97, 0
2, 115840, Note_on_c, 1, 99, 127
2, 115840, Note_off_c, 1, 105, 0
2, 115880, Note_off_c, 1, 55, 0
2, 115880, Note_on_c, 1, 56, 127
2, 115880, Note_on_c, 1, 61, 127
2, 115880, Note_off_c, 1, 63, 0
2, 115880, Note_on_c, 1, 64, 127
2, 115880, Note_off_c, 1, 74, 0
2, 115880, Note_on_c, 1, 76, 127
2, 115880, Note_on_c, 1, 79, 127
2, 115880, Note_on_c, 1, 85, 127
2, 115880, Note_off_c, 1, 87, 0
2, 115880, Note_off_c, 1, 95, 0
2, 115880, Note_off_c, 1, 99, 0
2, 115920, Note_on_c, 1, 45, 127
2, 115920, Note_off_c, 1, 56, 0
2, 115920, Note_off_c, 1, 61, 0
2, 115920, Note_on_c, 1, 67, 127
2, 115920, Note_off_c, 1, 70, 0
2, 115920, Note_on_c, 1, 73, 127
2, 115920, Note_off_c, 1, 76, 0
2, 115920, Note_off_c, 1, 79, 0
2, 115920, Note_on_c, 1, 81, 127
2, 115920, Note_off_c, 1, 85, 0
2, 115960, Note_on_c, 1, 40, 127
2, 115960, Note_off_c, 1, 45, 0
2, 115960, Note_on_c, 1, 53, 127
2, 115960, Note_on_c, 1, 57, 127
2, 115960, Note_on_c, 1, 59, 127
2, 115960, Note_off_c, 1, 64, 0
2, 115960, Note_off_c, 1, 67, 0
2, 115960, Note_off_c, 1, 73, 0
2, 115960, Note_off_c, 1, 81, 0
2, 116000, Note_on_c, 1, 39, 127
2, 116000, Note_off_c, 1, 40, 0
2, 116000, Note_on_c, 1, 42, 127
2, 116000, Note_on_c, 1, 51, 127
2, 116000, Note_off_c, 1, 53, 0
2, 116000, Note_on_c, 1, 54, 127
2, 116000, Note_off_c, 1, 57, 0
2, 116000, Note_off_c, 1, 59, 0
2, 116040, Note_off_c, 1, 39, 0
2, 116040, Note_off_c, 1, 42, 0
2, 116040, Note_off_c, 1, 51, 0
2, 116040, Note_off_c, 1, 54, 0
2, 116040, Note_on_c, 1, 62, 127
2, 116040, Note_on_c, 1, 64, 127
2, 116040, Note_on_c, 1, 68, 127
2, 116040, Note_on_c, 1, 71, 127
2, 116040, Note_on_c, 1, 74, 127
2, 116040, Note_on_c, 1, 78, 127
2, 116080, Note_on_c, 1, 35, 127
2, 116080, Note_off_c, 1, 62, 0
2, 116080, Note_off_c, 1, 64, 0
2, 116080, Note_on_c, 1, 66, 127
2, 116080, Note_off_c, 1, 68, 0
2, 116080, Note_off_c, 1, 74, 0
2, 116080, Note_on_c, 1, 75, 127
2, 116080, Note_off_c, 1, 78, 0
2, 116120, Note_off_c, 1, 35, 0
2, 116120, Note_on_c, 1, 62, 127
2, 116120, Note_off_c, 1, 66, 0
2, 116120, Note_off_c, 1, 71, 0
2, 116120, Note_on_c, 1, 74, 127
2, 116120, Note_off_c, 1, 75, 0
2, 116120, Note_on_c, 1, 77, 127
2, 116120, Note_on_c, 1, 80, 127
2, 116160, Note_on_c, 1, 54, 127
2, 116160, Note_on_c, 1, 63, 127
2, 116160, Note_on_c, 1, 66, 127
2, 116160, Note_off_c, 1, 74, 0
2, 116160, Note_off_c, 1, 77, 0
2, 116160, Note_off_c, 1, 80, 0
2, 116200, Note_on_c, 1, 42, 127
2, 116200, Note_on_c, 1, 52, 127
2, 116200, Note_off_c, 1, 62, 0
2, 116200, Note_off_c, 1, 63, 0
2, 116200, Note_off_c, 1, 66, 0
2, 116200, Note_on_c, 1, 71, 127
2, 116200, Note_on_c, 1, 83, 127
2, 116240, Note_on_c, 1, 38, 127
2, 116240, Note_off_c, 1, 42, 0
2, 116240, Note_on_c, 1, 46, 127
2, 116240, Note_off_c, 1, 52, 0
2, 116240, Note_off_c, 1, 54, 0
2, 116240, Note_on_c, 1, 62, 127
2, 116240, Note_off_c, 1, 71, 0
2, 116240, Note_on_c, 1, 74, 127
2, 116240, Note_off_c, 1, 83, 0
2, 116280, Note_off_c, 1, 38, 0
2, 116280, Note_off_c, 1, 46, 0
2, 116280, Note_on_c, 1, 50, 127
2, 116280, Note_off_c, 1, 62, 0
2, 116280, Note_off_c, 1, 74, 0
2, 116280, Note_on_c, 1, 77, 127
2, 116280, Note_on_c, 1, 80, 127
2, 116280, Note_on_c, 1, 85, 127
2, 116320, Note_off_c, 1, 50, 0
2, 116320, Note_on_c, 1, 59, 127
2, 116320, Note_on_c, 1, 61, 127
2, 116320, Note_on_c, 1, 65, 127
2, 116320, Note_on_c, 1, 68, 127
2, 116320, Note_on_c, 1, 73, 127
2, 116320, Note_off_c, 1, 77, 0
2, 116320, Note_off_c, 1, 85, 0
2, 116360, Note_on_c, 1, 52, 127
2, 116360, Note_off_c, 1, 59, 0
2, 116360, Note_off_c, 1, 61, 0
2, 116360, Note_off_c, 1, 65, 0
2, 116360, Note_on_c, 1, 71, 127
2, 116360, Note_off_c, 1, 73, 0
2, 116400, Note_off_c, 1, 52, 0
2, 116400, Note_on_c, 1, 58, 127
2, 116400, Note_on_c, 1, 63, 127
2, 116400, Note_on_c, 1, 66, 127
2, 116400, Note_off_c, 1, 68, 0
2, 116400, Note_off_c, 1, 80, 0
2, 116440, Note_on_c, 1, 38, 127
2, 116440, Note_on_c, 1, 50, 127
2, 116440, Note_on_c, 1, 55, 127
2, 116440, Note_off_c, 1, 58, 0
2, 116440, Note_on_c, 1, 59, 127
2, 116440, Note_on_c, 1, 62, 127
2, 116440, Note_off_c, 1, 63, 0
2, 116440, Note_off_c, 1, 66, 0
2, 116440, Note_on_c, 1, 67, 127
2, 116440, Note_on_c, 1, 74, 127
2, 116440, Note_on_c, 1, 79, 127
2, 116480, Note_off_c, 1, 38, 0
2, 116480, Note_off_c, 1, 50, 0
2, 116480, Note_off_c, 1, 55, 0
2, 116480, Note_off_c, 1, 59, 0
2, 116480, Note_off_c, 1, 62, 0
2, 116480, Note_off_c, 1, 67, 0
2, 116480, Note_on_c, 1, 69, 127
2, 116480, Note_off_c, 1, 71, 0
2, 116480, Note_on_c, 1, 72, 127
2, 116480, Note_off_c, 1, 74, 0
2, 116480, Note_on_c, 1, 77, 127
2, 116480, Note_off_c, 1, 79, 0
2, 116480, Note_on_c, 1, 81, 127
2, 116480, Note_on_c, 1, 87, 127
2, 116480, Note_on_c, 1, 96, 127
2, 116480, Note_on_c, 1, 101, 127
2, 116520, Note_off_c, 1, 69, 0
2, 116520, Note_off_c, 1, 72, 0
2, 116520, Note_off_c, 1, 77, 0
2, 116520, Note_off_c, 1, 81, 0
2, 116520, Note_off_c, 1, 87, 0
2, 116520, Note_on_c, 1, 88, 127
2, 116520, Note_on_c, 1, 100, 127
2, 116520, Note_off_c, 1, 101, 0
2, 116560, Note_on_c, 1, 34, 127
2, 116560, Note_on_c, 1, 43, 127
2, 116560, Note_on_c, 1, 62, 127
2, 116560, Note_off_c, 1, 88, 0
2, 116560, Note_off_c, 1, 96, 0
2, 116560, Note_off_c, 1, 100, 0
2, 116600, Note_on_c, 1, 31, 127
2, 116600, Note_off_c, 1, 34, 0
2, 116600, Note_off_c, 1, 43, 0
2, 116600, Note_off_c, 1, 62, 0
2, 116600, Note_on_c, 1, 72, 127
2, 116600, Note_on_c, 1, 82, 127
2, 116640, Note_off_c, 1, 31, 0
2, 116640, Note_on_c, 1, 38, 127
2, 116640, Note_on_c, 1, 40, 127
2, 116640, Note_on_c, 1, 43, 127
2, 116640, Note_on_c, 1, 50, 127
2, 116640, Note_on_c, 1, 62, 127
2, 116640, Note_off_c, 1, 72, 0
2, 116640, Note_on_c, 1, 74, 127
2, 116640, Note_off_c, 1, 82, 0
2, 116680, Note_off_c, 1, 38, 0
2, 116680, Note_off_c, 1, 40, 0
2, 116680, Note_off_c, 1, 43, 0
2, 116680, Note_off_c, 1, 50, 0
2, 116680, Note_on_c, 1, 58, 127
2, 116680, Note_off_c, 1, 62, 0
2, 116680, Note_on_c, 1, 66, 127
2, 116680, Note_off_c, 1, 74, 0
2, 116680, Note_on_c, 1, 78, 127
2, 116680, Note_on_c, 1, 83, 127
2, 116720, Note_on_c, 1, 33, 127
2, 116720, Note_on_c, 1, 40, 127
2, 116720, Note_off_c, 1, 58, 0
2, 116720, Note_off_c, 1, 66, 0
2, 116720, Note_off_c, 1, 78, 0
2, 116720, Note_off_c, 1, 83, 0
2, 116760, Note_off_c, 1, 33, 0
2, 116760, Note_off_c, 1, 40, 0
2, 116760, Note_on_c, 1, 41, 127
2, 116760, Note_on_c, 1, 53, 127
2, 116760, Note_on_c, 1, 57, 127
2, 116760, Note_on_c, 1, 61, 127
2, 116760, Note_on_c, 1, 64, 127
2, 116760, Note_on_c, 1, 69, 127
2, 116800, Note_on_c, 1, 36, 127
2, 116800, Note_off_c, 1, 41, 0
2, 116800, Note_off_c, 1, 53, 0
2, 116800, Note_off_c, 1, 57, 0
2, 116800, Note_off_c, 1, 61, 0
2, 116800, Note_off_c, 1, 64, 0
2, 116800, Note_on_c, 1, 65, 127
2, 116840, Note_off_c, 1, 36, 0
2, 116840, Note_on_c, 1, 40, 127
2, 116840, Note_on_c, 1, 47, 127
2, 116840, Note_off_c, 1, 65, 0
2, 116840, Note_off_c, 1, 69, 0
2, 116880, Note_off_c, 1, 40, 0
2, 116880, Note_on_c, 1, 43, 127
2, 116880, Note_off_c, 1, 47, 0
2, 116880, Note_on_c, 1, 50, 127
2, 116880, Note_on_c, 1, 55, 127
2, 116880, Note_on_c, 1, 82, 127
2, 116920, Note_off_c, 1, 43, 0
2, 116920, Note_off_c, 1, 50, 0
2, 116920, Note_off_c, 1, 55, 0
2, 116920, Note_off_c, 1, 82, 0
2, 116920, Note_on_c, 1, 96, 127
2, 116920, Note_on_c, 1, 97, 127
2, 116920, Note_on_c, 1, 99, 127
2, 116960, Note_on_c, 1, 69, 127
2, 116960, Note_on_c, 1, 71, 127
2, 116960, Note_on_c, 1, 79, 127
2, 116960, Note_on_c, 1, 81, 127
2, 116960, Note_on_c, 1, 89, 127
2, 116960, Note_off_c, 1, 96, 0
2, 116960, Note_off_c, 1, 97, 0
2, 116960, Note_off_c, 1, 99, 0
2, 117000, Note_on_c, 1, 56, 127
2, 117000, Note_on_c, 1, 63, 127
2, 117000, Note_off_c, 1, 69, 0
2, 117000, Note_off_c, 1, 71, 0
2, 117000, Note_off_c, 1, 79, 0
2, 117000, Note_off_c, 1, 81, 0
2, 117000, Note_on_c, 1, 82, 127
2, 117000, Note_on_c, 1, 85, 127
2, 117000, Note_off_c, 1, 89, 0
2, 117040, Note_off_c, 1, 56, 0
2, 117040, Note_off_c, 1, 63, 0
2, 117040, Note_on_c, 1, 74, 127
2, 117040, Note_on_c, 1, 81, 127
2, 117040, Note_off_c, 1, 82, 0
2, 117040, Note_off_c, 1, 85, 0
2, 117040, Note_on_c, 1, 98, 127
2, 117040, Note_on_c, 1, 103, 127
2, 117080, Note_on_c, 1, 41, 127
2, 117080, Note_on_c, 1, 63, 127
2, 117080, Note_on_c, 1, 65, 127
2, 117080, Note_on_c, 1, 67, 127
2, 117080, Note_on_c, 1, 69, 127
2, 117080, Note_off_c, 1, 74, 0
2, 117080, Note_off_c, 1, 81, 0
2, 117080, Note_off_c, 1, 98, 0
2, 117080, Note_off_c, 1, 103, 0
2, 117120, Note_off_c, 1, 41, 0
2, 117120, Note_off_c, 1, 63, 0
2, 117120, Note_off_c, 1, 65, 0
2, 117120, Note_on_c, 1, 66, 127
2, 117120, Note_off_c, 1, 67, 0
2, 117120, Note_off_c, 1, 69, 0
2, 117120, Note_on_c, 1, 71, 127
2, 117120, Note_on_c, 1, 75, 127
2, 117120, Note_on_c, 1, 94, 127
2, 117160, Note_on_c, 1, 55, 127
2, 117160, Note_off_c, 1, 66, 0
2, 117160, Note_on_c, 1, 69, 127
2, 117160, Note_off_c, 1, 71, 0
2, 117160, Note_on_c, 1, 77, 127
2, 117160, Note_on_c, 1, 81, 127
2, 117160, Note_off_c, 1, 94, 0
2, 117200, Note_on_c, 1, 50, 127
2, 117200, Note_off_c, 1, 55, 0
2, 117200, Note_on_c, 1, 61, 127
2, 117200, Note_on_c, 1, 66, 127
2, 117200, Note_off_c, 1, 69, 0
2, 117200, Note_off_c, 1, 75, 0
2, 117200, Note_off_c, 1, 77, 0
2, 117200, Note_off_c, 1, 81, 0
2, 117240, Note_on_c, 1, 32, 127
2, 117240, Note_off_c, 1, 50, 0
2, 117240, Note_on_c, 1, 52, 127
2, 117240, Note_on_c, 1, 55, 127
2, 117240, Note_on_c, 1, 58, 127
2, 117240, Note_off_c, 1, 61, 0
2, 117240, Note_off_c, 1, 66, 0
2, 117280, Note_off_c, 1, 32, 0
2, 117280, Note_off_c, 1, 52, 0
2, 117280, Note_off_c, 1, 55, 0
2, 117280, Note_off_c, 1, 58, 0
2, 117320, Note_on_c, 1, 57, 127
2, 117320, Note_on_c, 1, 65, 127
2, 117320, Note_on_c, 1, 86, 127
2, 117320, Note_on_c, 1, 98, 127
2, 117360, Note_off_c, 1, 57, 0
2, 117360, Note_off_c, 1, 65, 0
2, 117360, Note_on_c, 1, 70, 127
2, 117360, Note_on_c, 1, 79, 127
2, 117360, Note_off_c, 1, 86, 0
2, 117360, Note_on_c, 1, 87, 127
2, 117360, Note_on_c, 1, 91, 127
2, 117400, Note_on_c, 1, 49, 127
2, 117400, Note_on_c, 1, 52, 127
2, 117400, Note_on_c, 1, 61, 127
2, 117400, Note_on_c, 1, 64, 127
2, 117400, Note_on_c, 1, 67, 127
2, 117400, Note_off_c, 1, 70, 0
2, 117400, Note_on_c, 1, 82, 127
2, 117400, Note_off_c, 1, 87, 0
2, 117400, Note_off_c, 1, 98, 0
2, 117440, Note_on_c, 1, 31, 127
2, 117440, Note_off_c, 1, 49, 0
2, 117440, Note_on_c, 1, 50, 127
2, 117440, Note_off_c, 1, 52, 0
2, 117440, Note_off_c, 1, 61, 0
2, 117440, Note_off_c, 1, 64, 0
2, 117440, Note_off_c, 1, 67, 0
2, 117440, Note_on_c, 1, 77, 127
2, 117440, Note_off_c, 1, 79, 0
2, 117440, Note_on_c, 1, 80, 127
2, 117440, Note_off_c, 1, 82, 0
2, 117440, Note_on_c, 1, 86, 127
2, 117440, Note_off_c, 1, 91, 0
2, 117480, Note_off_c, 1, 31, 0
2, 117480, Note_off_c, 1, 50, 0
2, 117480, Note_on_c, 1, 70, 127
2, 117480, Note_on_c, 1, 84, 127
2, 117480, Note_off_c, 1, 86, 0
2, 117520, Note_on_c, 1, 53, 127
2, 117520, Note_on_c, 1, 60, 127
2, 117520, Note_on_c, 1, 63, 127
2, 117520, Note_on_c, 1, 69, 127
2, 117520, Note_off_c, 1, 70, 0
2, 117520, Note_on_c, 1, 75, 127
2, 117520, Note_off_c, 1, 77, 0
2, 117520, Note_off_c, 1, 80, 0
2, 117520, Note_on_c, 1, 81, 127
2, 117520, Note_off_c, 1, 84, 0
2, 117560, Note_off_c, 1, 53, 0
2, 117560, Note_on_c, 1, 55, 127
2, 117560, Note_on_c, 1, 58, 127
2, 117560, Note_off_c, 1, 60, 0
2, 117560, Note_off_c, 1, 63, 0
2, 117560, Note_off_c, 1, 69, 0
2, 117560, Note_on_c, 1, 72, 127
2, 117560, Note_off_c, 1, 75, 0
2, 117560, Note_on_c, 1, 79, 127
2, 117560, Note_off_c, 1, 81, 0
2, 117560, Note_on_c, 1, 84, 127
2, 117600, Note_off_c, 1, 55, 0
2, 117600, Note_off_c, 1, 58, 0
2, 117600, Note_on_c, 1, 71, 127
2, 117600, Note_off_c, 1, 72, 0
2, 117600, Note_on_c, 1, 73, 127
2, 117600, Note_off_c, 1, 84, 0
2, 117600, Note_on_c, 1, 88, 127
2, 117600, Note_on_c, 1, 94, 127
2, 117600, Note_on_c, 1, 102, 127
2, 117640, Note_on_c, 1, 48, 127
2, 117640, Note_on_c, 1, 58, 127
2, 117640, Note_on_c, 1, 64, 127
2, 117640, Note_on_c, 1, 70, 127
2, 117640, Note_off_c, 1, 71, 0
2, 117640, Note_off_c, 1, 73, 0
2, 117640, Note_on_c, 1, 76, 127
2, 117640, Note_off_c, 1, 79, 0
2, 117640, Note_off_c, 1, 88, 0
2, 117640, Note_off_c, 1, 94, 0
2, 117640, Note_off_c, 1, 102, 0
2, 117680, Note_on_c, 1, 51, 127
2, 117680, Note_on_c, 1, 54, 127
2, 117680, Note_on_c, 1, 56, 127
2, 117680, Note_off_c, 1, 58, 0
2, 117680, Note_off_c, 1, 64, 0
2, 117680, Note_off_c, 1, 70, 0
2, 117680, Note_off_c, 1, 76, 0
2, 117680, Note_on_c, 1, 84, 127
2, 117680, Note_on_c, 1, 87, 127
2, 117680, Note_on_c, 1, 92, 127
2, 117720, Note_on_c, 1, 44, 127
2, 117720, Note_off_c, 1, 51, 0
2, 117720, Note_on_c, 1, 53, 127
2, 117720, Note_off_c, 1, 54, 0
2, 117720, Note_off_c, 1, 56, 0
2, 117720, Note_on_c, 1, 80, 127
2, 117720, Note_off_c, 1, 84, 0
2, 117720, Note_off_c, 1, 87, 0
2, 117720, Note_off_c, 1, 92, 0
2, 117760, Note_on_c, 1, 33, 127
2, 117760, Note_on_c, 1, 38, 127
2, 117760, Note_off_c, 1, 44, 0
2, 117760, Note_on_c, 1, 46, 127
2, 117760, Note_off_c, 1, 48, 0
2, 117760, Note_on_c, 1, 49, 127
2, 117760, Note_off_c, 1, 53, 0
2, 117760, Note_on_c, 1, 55, 127
2, 117760, Note_off_c, 1, 80, 0
2, 117800, Note_off_c, 1, 33, 0
2, 117800, Note_off_c, 1, 38, 0
2, 117800, Note_off_c, 1, 46, 0
2, 117800, Note_on_c, 1, 47, 127
2, 117800, Note_on_c, 1, 52, 127
2, 117800, Note_on_c, 1, 54, 127
2, 117800, Note_off_c, 1, 55, 0
2, 117800, Note_on_c, 1, 58, 127
2, 117800, Note_on_c, 1, 76, 127
2, 117840, Note_off_c, 1, 47, 0
2, 117840, Note_off_c, 1, 49, 0
2, 117840, Note_off_c, 1, 52, 0
2, 117840, Note_off_c, 1, 54, 0
2, 117840, Note_on_c, 1, 56, 127
2, 117840, Note_off_c, 1, 58, 0
2, 117840, Note_on_c, 1, 66, 127
2, 117840, Note_on_c, 1, 72, 127
2, 117840, Note_off_c, 1, 76, 0
2, 117840, Note_on_c, 1, 80, 127
2, 117840, Note_on_c, 1, 84, 127
2, 117880, Note_off_c, 1, 56, 0
2, 117880, Note_off_c, 1, 66, 0
2, 117880, Note_on_c, 1, 69, 127
2, 117880, Note_off_c, 1, 72, 0
2, 117880, Note_on_c, 1, 74, 127
2, 117880, Note_on_c, 1, 77, 127
2, 117880, Note_off_c, 1, 80, 0
2, 117880, Note_on_c, 1, 83, 127
2, 117880, Note_off_c, 1, 84, 0
2, 117880, Note_on_c, 1, 88, 127
2, 117880, Note_on_c, 1, 92, 127
2, 117920, Note_off_c, 1, 69, 0
2, 117920, Note_off_c, 1, 74, 0
2, 117920, Note_off_c, 1, 77, 0
2, 117920, Note_off_c, 1, 83, 0
2, 117920, Note_off_c, 1, 88, 0
2, 117920, Note_off_c, 1, 92, 0
2, 117960, Note_on_c, 1, 47, 127
2, 117960, Note_on_c, 1, 51, 127
2, 118000, Note_off_c, 1, 47, 0
2, 118000, Note_off_c, 1, 51, 0
2, 118000, Note_on_c, 1, 72, 127
2, 118000, Note_on_c, 1, 86, 127
2, 118000, Note_on_c, 1, 98, 127
2, 118000, Note_on_c, 1, 99, 127
2, 118040, Note_on_c, 1, 62, 127
2, 118040, Note_on_c, 1, 64, 127
2, 118040, Note_on_c, 1, 67, 127
2, 118040, Note_off_c, 1, 72, 0
2, 118040, Note_on_c, 1, 74, 127
2, 118040, Note_on_c, 1, 79, 127
2, 118040, Note_off_c, 1, 86, 0
2, 118040, Note_on_c, 1, 88, 127
2, 118040, Note_on_c, 1, 91, 127
2, 118040, Note_off_c, 1, 98, 0
2, 118040, Note_off_c, 1, 99, 0
2, 118080, Note_on_c, 1, 57, 127
2, 118080, Note_off_c, 1, 62, 0
2, 118080, Note_on_c, 1, 63, 127
2, 118080, Note_off_c, 1, 64, 0
2, 118080, Note_on_c, 1, 66, 127
2, 118080, Note_off_c, 1, 67, 0
2, 118080, Note_off_c, 1, 74, 0
2, 118080, Note_on_c, 1, 78, 127
2, 118080, Note_off_c, 1, 79, 0
2, 118080, Note_off_c, 1, 88, 0
2, 118080, Note_on_c, 1, 90, 127
2, 118080, Note_off_c, 1, 91, 0
2, 118120, Note_on_c, 1, 56, 127
2, 118120, Note_off_c, 1, 57, 0
2, 118120, Note_on_c, 1, 61, 127
2, 118120, Note_off_c, 1, 63, 0
2, 118120, Note_on_c, 1, 64, 127
2, 118120, Note_off_c, 1, 66, 0
2, 118120, Note_on_c, 1, 70, 127
2, 118120, Note_on_c, 1, 76, 127
2, 118120, Note_off_c, 1, 78, 0
2, 118120, Note_on_c, 1, 79, 127
2, 118120, Note_on_c, 1, 85, 127
2, 118120, Note_off_c, 1, 90, 0
2, 118160, Note_on_c, 1, 31, 127
2, 118160, Note_on_c, 1, 50, 127
2, 118160, Note_off_c, 1, 56, 0
2, 118160, Note_on_c, 1, 58, 127
2, 118160, Note_off_c, 1, 61, 0
2, 118160, Note_on_c, 1, 62, 127
2, 118160, Note_off_c, 1, 64, 0
2, 118160, Note_off_c, 1, 70, 0
2, 118160, Note_off_c, 1, 76, 0
2, 118160, Note_off_c, 1, 79, 0
2, 118160, Note_off_c, 1, 85, 0
2, 118200, Note_off_c, 1, 31, 0
2, 118200, Note_on_c, 1, 34, 127
2, 118200, Note_off_c, 1, 58, 0
2, 118200, Note_off_c, 1, 62, 0
2, 118200, Note_on_c, 1, 63, 127
2, 118200, Note_on_c, 1, 70, 127
2, 118240, Note_off_c, 1, 34, 0
2, 118240, Note_off_c, 1, 50, 0
2, 118240, Note_on_c, 1, 57, 127
2, 118240, Note_off_c, 1, 63, 0
2, 118240, Note_on_c, 1, 66, 127
2, 118240, Note_on_c, 1, 69, 127
2, 118240, Note_off_c, 1, 70, 0
2, 118240, Note_on_c, 1, 90, 127
2, 118240, Note_on_c, 1, 93, 127
2, 118280, Note_off_c, 1, 57, 0
2, 118280, Note_off_c, 1, 66, 0
2, 118280, Note_off_c, 1, 69, 0
2, 118280, Note_on_c, 1, 86, 127
2, 118280, Note_off_c, 1, 90, 0
2, 118280, Note_off_c, 1, 93, 0
2, 118280, Note_on_c, 1, 95, 127
2, 118280, Note_on_c, 1, 99, 127
2, 118320, Note_on_c, 1, 33, 127
2, 118320, Note_on_c, 1, 49, 127
2, 118320, Note_on_c, 1, 52, 127
2, 118320, Note_on_c, 1, 65, 127
2, 118320, Note_on_c, 1, 69, 127
2, 118320, Note_off_c, 1, 86, 0
2, 118320, Note_off_c, 1, 95, 0
2, 118320, Note_off_c, 1, 99, 0
2, 118360, Note_off_c, 1, 33, 0
2, 118360, Note_off_c, 1, 49, 0
2, 118360, Note_off_c, 1, 52, 0
2, 118360, Note_off_c, 1, 65, 0
2, 118360, Note_off_c, 1, 69, 0
2, 118360, Note_on_c, 1, 88, 127
2, 118360, Note_on_c, 1, 90, 127
2, 118400, Note_on_c, 1, 55, 127
2, 118400, Note_on_c, 1, 60, 127
2, 118400, Note_on_c, 1, 63, 127
2, 118400, Note_on_c, 1, 66, 127
2, 118400, Note_off_c, 1, 88, 0
2, 118400, Note_off_c, 1, 90, 0
2, 118400, Note_on_c, 1, 93, 127
2, 118440, Note_on_c, 1, 94, 127
2, 118600, Note_off_c, 1, 55, 0
2, 118600, Note_off_c, 1, 60, 0
2, 118600, Note_off_c, 1, 63, 0
2, 118600, Note_off_c, 1, 66, 0
2, 118600, Note_on_c, 1, 71, 127
2, 118600, Note_on_c, 1, 74, 127
2, 118600, Note_on_c, 1, 78, 127
2, 118600, Note_on_c, 1, 86, 127
2, 118600, Note_on_c, 1, 90, 127
2, 118600, Note_off_c, 1, 93, 0
2, 118600, Note_off_c, 1, 94, 0
2, 118600, Note_on_c, 1, 100, 127
2, 118640, Note_on_c, 1, 55, 127
2, 118640, Note_on_c, 1, 60, 127
2, 118640, Note_on_c, 1, 63, 127
2, 118640, Note_on_c, 1, 66, 127
2, 118640, Note_off_c, 1, 71, 0
2, 118640, Note_off_c, 1, 74, 0
2, 118640, Note_off_c, 1, 78, 0
2, 118640, Note_on_c, 1, 81, 127
2, 118640, Note_off_c, 1, 86, 0
2, 118640, Note_off_c, 1, 90, 0
2, 118640, Note_off_c, 1, 100, 0
2, 118680, Note_off_c, 1, 81, 0
2, 118680, Note_on_c, 1, 93, 127
2, 118720, Note_on_c, 1, 92, 127
2, 118760, Note_off_c, 1, 92, 0
2, 118760, Note_on_c, 1, 94, 127
2, 118800, Note_on_c, 1, 92, 127
2, 118800, Note_off_c, 1, 94, 0
2, 118840, Note_on_c, 1, 43, 127
2, 118840, Note_on_c, 1, 47, 127
2, 118840, Note_on_c, 1, 49, 127
2, 118840, Note_on_c, 1, 52, 127
2, 118840, Note_off_c, 1, 55, 0
2, 118840, Note_off_c, 1, 60, 0
2, 118840, Note_off_c, 1, 63, 0
2, 118840, Note_off_c, 1, 66, 0
2, 118840, Note_off_c, 1, 92, 0
2, 118840, Note_off_c, 1, 93, 0
2, 118880, Note_off_c, 1, 43, 0
2, 118880, Note_off_c, 1, 47, 0
2, 118880, Note_off_c, 1, 49, 0
2, 118880, Note_off_c, 1, 52, 0
2, 118880, Note_on_c, 1, 55, 127
2, 118880, Note_on_c, 1, 60, 127
2, 118880, Note_on_c, 1, 63, 127
2, 118880, Note_on_c, 1, 66, 127
2, 118880, Note_on_c, 1, 93, 127
2, 118880, Note_on_c, 1, 94, 127
2, 119000, Note_on_c, 1, 92, 127
2, 119000, Note_off_c, 1, 94, 0
2, 119040, Note_on_c, 1, 38, 127
2, 119040, Note_on_c, 1, 50, 127
2, 119040, Note_off_c, 1, 55, 0
2, 119040, Note_off_c, 1, 60, 0
2, 119040, Note_off_c, 1, 63, 0
2, 119040, Note_off_c, 1, 66, 0
2, 119040, Note_on_c, 1, 86, 127
2, 119040, Note_on_c, 1, 90, 127
2, 119040, Note_off_c, 1, 92, 0
2, 119040, Note_off_c, 1, 93, 0
2, 119040, Note_on_c, 1, 98, 127
2, 119080, Note_off_c, 1, 38, 0
2, 119080, Note_off_c, 1, 50, 0
2, 119080, Note_off_c, 1, 86, 0
2, 119080, Note_off_c, 1, 90, 0
2, 119080, Note_off_c, 1, 98, 0
2, 119120, Note_on_c, 1, 38, 127
2, 119120, Note_on_c, 1, 43, 127
2, 119120, Note_on_c, 1, 50, 127
2, 119120, Note_on_c, 1, 55, 127
2, 119160, Note_off_c, 1, 38, 0
2, 119160, Note_off_c, 1, 43, 0
2, 119160, Note_on_c, 1, 48, 127
2, 119160, Note_off_c, 1, 50, 0
2, 119160, Note_on_c, 1, 53, 127
2, 119160, Note_off_c, 1, 55, 0
2, 119160, Note_on_c, 1, 57, 127
2, 119160, Note_on_c, 1, 60, 127
2, 119160, Note_on_c, 1, 77, 127
2, 119160, Note_on_c, 1, 81, 127
2, 119160, Note_on_c, 1, 84, 127
2, 119200, Note_off_c, 1, 48, 0
2, 119200, Note_on_c, 1, 65, 127
2, 119200, Note_on_c, 1, 72, 127
2, 119200, Note_off_c, 1, 77, 0
2, 119200, Note_off_c, 1, 84, 0
2, 119240, Note_on_c, 1, 48, 127
2, 119240, Note_off_c, 1, 65, 0
2, 119240, Note_off_c, 1, 72, 0
2, 119240, Note_off_c, 1, 81, 0
2, 119240, Note_on_c, 1, 84, 127
2, 119600, Note_off_c, 1, 53, 0
2, 119600, Note_off_c, 1, 57, 0
2, 119600, Note_off_c, 1, 84, 0
2, 119640, Note_off_c, 1, 48, 0
2, 119640, Note_off_c, 1, 60, 0
2, 119680, Note_on_c, 1, 43, 127
2, 119680, Note_on_c, 1, 55, 127
2, 119680, Note_on_c, 1, 63, 127
2, 119680, Note_on_c, 1, 67, 127
2, 119680, Note_on_c, 1, 72, 127
2, 119720, Note_off_c, 1, 43, 0
2, 119720, Note_on_c, 1, 46, 127
2, 119720, Note_on_c, 1, 53, 127
2, 119720, Note_off_c, 1, 55, 0
2, 119720, Note_off_c, 1, 63, 0
2, 119720, Note_on_c, 1, 65, 127
2, 119720, Note_off_c, 1, 67, 0
2, 119720, Note_on_c, 1, 69, 127
2, 119720, Note_on_c, 1, 77, 127
2, 119760, Note_on_c, 1, 38, 127
2, 119760, Note_on_c, 1, 45, 127
2, 119760, Note_off_c, 1, 46, 0
2, 119760, Note_off_c, 1, 53, 0
2, 119760, Note_off_c, 1, 72, 0
2, 119760, Note_on_c, 1, 74, 127
2, 119760, Note_off_c, 1, 77, 0
2, 119800, Note_off_c, 1, 38, 0
2, 119800, Note_off_c, 1, 45, 0
2, 119800, Note_off_c, 1, 65, 0
2, 119800, Note_off_c, 1, 69, 0
2, 119800, Note_on_c, 1, 72, 127
2, 119800, Note_off_c, 1, 74, 0
2, 119800, Note_on_c, 1, 77, 127
2, 119800, Note_on_c, 1, 89, 127
2, 119800, Note_on_c, 1, 93, 127
2, 119840, Note_on_c, 1, 29, 127
2, 119840, Note_on_c, 1, 41, 127
2, 119840, Note_on_c, 1, 65, 127
2, 119840, Note_off_c, 1, 72, 0
2, 119840, Note_on_c, 1, 73, 127
2, 119840, Note_off_c, 1, 77, 0
2, 119840, Note_off_c, 1, 89, 0
2, 119840, Note_off_c, 1, 93, 0
2, 119880, Note_off_c, 1, 29, 0
2, 119880, Note_off_c, 1, 41, 0
2, 119880, Note_on_c, 1, 55, 127
2, 119880, Note_on_c, 1, 59, 127
2, 119880, Note_on_c, 1, 64, 127
2, 119880, Note_off_c, 1, 65, 0
2, 119880, Note_on_c, 1, 67, 127
2, 119880, Note_off_c, 1, 73, 0
2, 119880, Note_on_c, 1, 79, 127
2, 119920, Note_on_c, 1, 42, 127
2, 119920, Note_on_c, 1, 46, 127
2, 119920, Note_on_c, 1, 48, 127
2, 119920, Note_off_c, 1, 55, 0
2, 119920, Note_off_c, 1, 59, 0
2, 119920, Note_on_c, 1, 60, 127
2, 119920, Note_off_c, 1, 64, 0
2, 119920, Note_off_c, 1, 67, 0
2, 119920, Note_on_c, 1, 72, 127
2, 119920, Note_off_c, 1, 79, 0
2, 120000, Note_off_c, 1, 42, 0
2, 120000, Note_off_c, 1, 46, 0
2, 120000, Note_off_c, 1, 48, 0
2, 120000, Note_off_c, 1, 60, 0
2, 120000, Note_off_c, 1, 72, 0
2, 120040, End_track
3, 0, Start_track
3, 0, Title_t, "MIDI"
3, 1536, End_track
0, 0, End_of_file
