0, 0, Header, 1, 3, 192
1, 0, Start_track
1, 0, Time_signature, 4, 2, 24, 8
1, 0, Tempo, 500000
1, 120040, End_track
2, 0, Start_track
2, 0, Text_t, "random instrument: random person i dunno whatev"
2, 0, Title_t, "Track 1"
2, 0, Note_on_c, 1, 40, 127
2, 0, Note_on_c, 1, 48, 127
2, 0, Note_on_c, 1, 56, 127
2, 0, Note_on_c, 1, 60, 127
2, 40, Note_off_c, 1, 40, 0
2, 40, Note_off_c, 1, 48, 0
2, 40, Note_on_c, 1, 55, 127
2, 40, Note_off_c, 1, 56, 0
2, 40, Note_off_c, 1, 60, 0
2, 40, Note_on_c, 1, 72, 127
2, 40, Note_on_c, 1, 75, 127
2, 40, Note_on_c, 1, 79, 127
2, 40, Note_on_c, 1, 84, 127
2, 80, Note_off_c, 1, 55, 0
2, 80, Note_off_c, 1, 72, 0
2, 80, Note_off_c, 1, 75, 0
2, 80, Note_off_c, 1, 79, 0
2, 80, Note_off_c, 1, 84, 0
2, 120, Note_on_c, 1, 50, 127
2, 120, Note_on_c, 1, 59, 127
2, 120, Note_on_c, 1, 62, 127
2, 120, Note_on_c, 1, 78, 127
2, 160, Note_off_c, 1, 50, 0
2, 160, Note_off_c, 1, 59, 0
2, 160, Note_on_c, 1, 60, 127
2, 160, Note_off_c, 1, 62, 0
2, 160, Note_on_c, 1, 66, 127
2, 160, Note_on_c, 1, 68, 127
2, 160, Note_off_c, 1, 78, 0
2, 160, Note_on_c, 1, 90, 127
2, 200, Note_on_c, 1, 35, 127
2, 200, Note_on_c, 1, 39, 127
2, 200, Note_on_c, 1, 47, 127
2, 200, Note_on_c, 1, 50, 127
2, 200, Note_off_c, 1, 60, 0
2, 200, Note_off_c, 1, 66, 0
2, 200, Note_off_c, 1, 68, 0
2, 200, Note_off_c, 1, 90, 0
2, 240, Note_off_c, 1, 35, 0
2, 240, Note_off_c, 1, 39, 0
2, 240, Note_off_c, 1, 47, 0
2, 240, Note_off_c, 1, 50, 0
2, 240, Note_on_c, 1, 51, 127
2, 240, Note_on_c, 1, 55, 127
2, 240, Note_on_c, 1, 58, 127
2, 240, Note_on_c, 1, 63, 127
2, 240, Note_on_c, 1, 82, 127
2, 240, Note_on_c, 1, 91, 127
2, 280, Note_off_c, 1, 51, 0
2, 280, Note_off_c, 1, 55, 0
2, 280, Note_off_c, 1, 58, 0
2, 280, Note_off_c, 1, 63, 0
2, 280, Note_on_c, 1, 76, 127
2, 280, Note_on_c, 1, 80, 127
2, 280, Note_off_c, 1, 82, 0
2, 280, Note_on_c, 1, 83, 127
2, 280, Note_on_c, 1, 89, 127
2, 280, Note_off_c, 1, 91, 0
2, 320, Note_on_c, 1, 58, 127
2, 320, Note_on_c, 1, 63, 127
2, 320, Note_on_c, 1, 66, 127
2, 320, Note_on_c, 1, 72, 127
2, 320, Note_on_c, 1, 75, 127
2, 320, Note_off_c, 1, 76, 0
2, 320, Note_off_c, 1, 80, 0
2, 320, Note_on_c, 1, 82, 127
2, 320, Note_off_c, 1, 83, 0
2, 320, Note_on_c, 1, 87, 127
2, 320, Note_off_c, 1, 89, 0
2, 360, Note_on_c, 1, 57, 127
2, 360, Note_off_c, 1, 58, 0
2, 360, Note_on_c, 1, 62, 127
2, 360, Note_off_c, 1, 63, 0
2, 360, Note_off_c, 1, 66, 0
2, 360, Note_off_c, 1, 72, 0
2, 360, Note_off_c, 1, 75, 0
2, 360, Note_off_c, 1, 82, 0
2, 360, Note_off_c, 1, 87, 0
2, 400, Note_off_c, 1, 57, 0
2, 400, Note_on_c, 1, 60, 127
2, 400, Note_off_c, 1, 62, 0
2, 400, Note_on_c, 1, 85, 127
2, 400, Note_on_c, 1, 88, 127
2, 440, Note_on_c, 1, 50, 127
2, 440, Note_on_c, 1, 57, 127
2, 440, Note_off_c, 1, 60, 0
2, 440, Note_on_c, 1, 65, 127
2, 440, Note_off_c, 1, 85, 0
2, 440, Note_off_c, 1, 88, 0
2, 440, Note_on_c, 1, 93, 127
2, 800, Note_off_c, 1, 50, 0
2, 800, Note_off_c, 1, 57, 0
2, 800, Note_off_c, 1, 65, 0
2, 800, Note_off_c, 1, 93, 0
2, 5240, Note_on_c, 1, 43, 127
2, 5240, Note_on_c, 1, 50, 127
2, 5240, Note_on_c, 1, 60, 127
2, 5240, Note_on_c, 1, 62, 127
2, 5240, Note_on_c, 1, 69, 127
2, 5480, Note_off_c, 1, 43, 0
2, 5480, Note_off_c, 1, 50, 0
2, 5480, Note_off_c, 1, 60, 0
2, 5480, Note_off_c, 1, 62, 0
2, 5480, Note_off_c, 1, 69, 0
2, 6120, Note_on_c, 1, 47, 127
2, 6120, Note_on_c, 1, 56, 127
2, 6120, Note_on_c, 1, 64, 127
2, 6120, Note_on_c, 1, 70, 127
2, 6160, Note_off_c, 1, 47, 0
2, 6160, Note_off_c, 1, 56, 0
2, 6160, Note_off_c, 1, 64, 0
2, 6160, Note_on_c, 1, 68, 127
2, 6160, Note_off_c, 1, 70, 0
2, 6160, Note_on_c, 1, 73, 127
2, 6160, Note_on_c, 1, 80, 127
2, 6160, Note_on_c, 1, 85, 127
2, 6160, Note_on_c, 1, 89, 127
2, 6200, Note_on_c, 1, 42, 127
2, 6200, Note_on_c, 1, 52, 127
2, 6200, Note_on_c, 1, 59, 127
2, 6200, Note_on_c, 1, 64, 127
2, 6200, Note_off_c, 1, 68, 0
2, 6200, Note_off_c, 1, 73, 0
2, 6200, Note_off_c, 1, 80, 0
2, 6200, Note_off_c, 1, 85, 0
2, 6200, Note_off_c, 1, 89, 0
2, 6240, Note_off_c, 1, 42, 0
2, 6240, Note_off_c, 1, 52, 0
2, 6240, Note_off_c, 1, 59, 0
2, 6240, Note_off_c, 1, 64, 0
2, 6240, Note_on_c, 1, 68, 127
2, 6240, Note_on_c, 1, 73, 127
2, 6240, Note_on_c, 1, 80, 127
2, 6240, Note_on_c, 1, 85, 127
2, 6240, Note_on_c, 1, 89, 127
2, 6280, Note_off_c, 1, 68, 0
2, 6280, Note_off_c, 1, 73, 0
2, 6280, Note_off_c, 1, 80, 0
2, 6280, Note_off_c, 1, 85, 0
2, 6280, Note_off_c, 1, 89, 0
2, 6320, Note_on_c, 1, 41, 127
2, 6320, Note_on_c, 1, 49, 127
2, 6320, Note_on_c, 1, 61, 127
2, 6320, Note_on_c, 1, 65, 127
2, 6320, Note_on_c, 1, 68, 127
2, 6320, Note_on_c, 1, 73, 127
2, 6320, Note_on_c, 1, 80, 127
2, 6720, Note_off_c, 1, 41, 0
2, 6720, Note_off_c, 1, 49, 0
2, 6720, Note_off_c, 1, 61, 0
2, 6720, Note_off_c, 1, 65, 0
2, 6720, Note_off_c, 1, 68, 0
2, 6720, Note_off_c, 1, 73, 0
2, 6720, Note_off_c, 1, 80, 0
2, 6760, Note_on_c, 1, 49, 127
2, 6760, Note_on_c, 1, 52, 127
2, 6760, Note_on_c, 1, 57, 127
2, 6760, Note_on_c, 1, 61, 127
2, 6760, Note_on_c, 1, 63, 127
2, 6960, Note_off_c, 1, 49, 0
2, 6960, Note_off_c, 1, 52, 0
2, 6960, Note_off_c, 1, 57, 0
2, 6960, Note_off_c, 1, 61, 0
2, 6960, Note_off_c, 1, 63, 0
2, 7000, Note_on_c, 1, 47, 127
2, 7000, Note_on_c, 1, 56, 127
2, 7000, Note_on_c, 1, 64, 127
2, 7000, Note_on_c, 1, 71, 127
2, 7000, Note_on_c, 1, 73, 127
2, 7200, Note_off_c, 1, 73, 0
2, 7240, Note_on_c, 1, 75, 127
2, 7360, Note_off_c, 1, 75, 0
2, 7360, Note_on_c, 1, 76, 127
2, 7560, Note_off_c, 1, 47, 0
2, 7560, Note_off_c, 1, 56, 0
2, 7560, Note_off_c, 1, 64, 0
2, 7560, Note_off_c, 1, 71, 0
2, 7560, Note_off_c, 1, 76, 0
2, 7600, Note_on_c, 1, 47, 127
2, 7600, Note_on_c, 1, 56, 127
2, 7600, Note_on_c, 1, 64, 127
2, 7600, Note_on_c, 1, 71, 127
2, 7600, Note_on_c, 1, 76, 127
2, 7680, Note_off_c, 1, 47, 0
2, 7680, Note_off_c, 1, 56, 0
2, 7680, Note_off_c, 1, 64, 0
2, 7680, Note_off_c, 1, 71, 0
2, 7680, Note_off_c, 1, 76, 0
2, 9400, Note_on_c, 1, 76, 127
2, 9400, Note_on_c, 1, 80, 127
2, 9680, Note_on_c, 1, 75, 127
2, 9680, Note_off_c, 1, 76, 0
2, 9680, Note_on_c, 1, 79, 127
2, 9680, Note_off_c, 1, 80, 0
2, 9720, Note_off_c, 1, 75, 0
2, 9720, Note_on_c, 1, 76, 127
2, 9720, Note_off_c, 1, 79, 0
2, 9720, Note_on_c, 1, 80, 127
2, 9800, Note_off_c, 1, 76, 0
2, 9800, Note_off_c, 1, 80, 0
2, 9840, Note_on_c, 1, 76, 127
2, 9840, Note_on_c, 1, 83, 127
2, 9840, Note_on_c, 1, 88, 127
2, 9840, Note_on_c, 1, 92, 127
2, 10200, Note_off_c, 1, 76, 0
2, 10200, Note_off_c, 1, 83, 0
2, 10640, Note_off_c, 1, 88, 0
2, 10640, Note_off_c, 1, 92, 0
2, 10680, Note_on_c, 1, 88, 127
2, 10680, Note_on_c, 1, 92, 127
2, 10720, Note_off_c, 1, 88, 0
2, 10720, Note_off_c, 1, 92, 0
2, 10760, Note_on_c, 1, 88, 127
2, 10760, Note_on_c, 1, 92, 127
2, 11120, Note_off_c, 1, 88, 0
2, 11120, Note_off_c, 1, 92, 0
2, 13400, Note_on_c, 1, 37, 127
2, 13400, Note_on_c, 1, 49, 127
2, 14560, Note_on_c, 1, 56, 127
2, 14920, Note_off_c, 1, 37, 0
2, 14920, Note_off_c, 1, 49, 0
2, 14960, Note_on_c, 1, 49, 127
2, 14960, Note_off_c, 1, 56, 0
2, 14960, Note_on_c, 1, 66, 127
2, 14960, Note_on_c, 1, 68, 127
2, 15720, Note_off_c, 1, 49, 0
2, 15760, Note_on_c, 1, 49, 127
2, 16120, Note_off_c, 1, 49, 0
2, 16120, Note_off_c, 1, 66, 0
2, 16120, Note_off_c, 1, 68, 0
2, 16200, Note_on_c, 1, 49, 127
2, 18160, Note_on_c, 1, 47, 127
2, 18160, Note_off_c, 1, 49, 0
2, 18200, Note_off_c, 1, 47, 0
2, 18200, Note_on_c, 1, 49, 127
2, 18360, Note_off_c, 1, 49, 0
2, 18400, Note_on_c, 1, 49, 127
2, 19040, Note_off_c, 1, 49, 0
2, 19080, Note_on_c, 1, 49, 127
2, 19080, Note_on_c, 1, 56, 127
2, 19080, Note_on_c, 1, 59, 127
2, 19080, Note_on_c, 1, 82, 127
2, 19440, Note_off_c, 1, 82, 0
2, 19480, Note_on_c, 1, 42, 127
2, 19480, Note_off_c, 1, 49, 0
2, 19480, Note_off_c, 1, 56, 0
2, 19480, Note_off_c, 1, 59, 0
2, 19480, Note_on_c, 1, 78, 127
2, 19480, Note_on_c, 1, 85, 127
2, 19520, Note_off_c, 1, 42, 0
2, 19520, Note_on_c, 1, 44, 127
2, 19520, Note_on_c, 1, 69, 127
2, 19520, Note_on_c, 1, 73, 127
2, 19520, Note_off_c, 1, 85, 0
2, 19560, Note_off_c, 1, 44, 0
2, 19560, Note_on_c, 1, 51, 127
2, 19560, Note_on_c, 1, 67, 127
2, 19560, Note_off_c, 1, 69, 0
2, 19560, Note_on_c, 1, 70, 127
2, 19560, Note_off_c, 1, 73, 0
2, 19560, Note_off_c, 1, 78, 0
2, 19560, Note_on_c, 1, 94, 127
2, 19600, Note_on_c, 1, 42, 127
2, 19600, Note_off_c, 1, 51, 0
2, 19600, Note_off_c, 1, 67, 0
2, 19600, Note_off_c, 1, 70, 0
2, 19640, Note_on_c, 1, 85, 127
2, 19640, Note_off_c, 1, 94, 0
2, 19680, Note_off_c, 1, 85, 0
2, 19680, Note_on_c, 1, 88, 127
2, 19840, Note_off_c, 1, 88, 0
2, 19880, Note_on_c, 1, 88, 127
2, 20040, Note_off_c, 1, 88, 0
2, 20080, Note_on_c, 1, 88, 127
2, 20120, Note_on_c, 1, 85, 127
2, 20120, Note_off_c, 1, 88, 0
2, 20200, Note_off_c, 1, 85, 0
2, 20200, Note_on_c, 1, 88, 127
2, 20240, Note_off_c, 1, 88, 0
2, 20280, Note_on_c, 1, 88, 127
2, 20440, Note_off_c, 1, 88, 0
2, 20480, Note_off_c, 1, 42, 0
2, 20520, Note_on_c, 1, 42, 127
2, 20520, Note_on_c, 1, 82, 127
2, 20680, Note_off_c, 1, 82, 0
2, 20720, Note_on_c, 1, 76, 127
2, 20880, Note_off_c, 1, 76, 0
2, 20920, Note_on_c, 1, 90, 127
2, 21080, Note_off_c, 1, 42, 0
2, 21080, Note_off_c, 1, 90, 0
2, 21120, Note_on_c, 1, 34, 127
2, 21120, Note_on_c, 1, 82, 127
2, 21280, Note_off_c, 1, 34, 0
2, 21280, Note_off_c, 1, 82, 0
2, 21320, Note_on_c, 1, 35, 127
2, 21480, Note_off_c, 1, 35, 0
2, 21520, Note_on_c, 1, 39, 127
2, 21520, Note_on_c, 1, 82, 127
2, 21680, Note_off_c, 1, 82, 0
2, 21720, Note_on_c, 1, 79, 127
2, 21880, Note_off_c, 1, 39, 0
2, 21880, Note_off_c, 1, 79, 0
2, 21920, Note_on_c, 1, 39, 127
2, 21920, Note_on_c, 1, 75, 127
2, 21920, Note_on_c, 1, 79, 127
2, 22280, Note_off_c, 1, 39, 0
2, 22280, Note_off_c, 1, 75, 0
2, 22280, Note_off_c, 1, 79, 0
2, 22320, Note_on_c, 1, 46, 127
2, 22320, Note_on_c, 1, 75, 127
2, 22320, Note_on_c, 1, 79, 127
2, 22640, Note_off_c, 1, 46, 0
2, 22640, Note_off_c, 1, 75, 0
2, 22640, Note_off_c, 1, 79, 0
2, 22680, Note_on_c, 1, 46, 127
2, 22680, Note_on_c, 1, 75, 127
2, 22680, Note_on_c, 1, 79, 127
2, 22720, Note_off_c, 1, 46, 0
2, 22720, Note_off_c, 1, 75, 0
2, 22720, Note_off_c, 1, 79, 0
2, 22760, Note_on_c, 1, 39, 127
2, 22760, Note_on_c, 1, 75, 127
2, 22760, Note_on_c, 1, 79, 127
2, 23120, Note_off_c, 1, 39, 0
2, 23120, Note_off_c, 1, 75, 0
2, 23120, Note_off_c, 1, 79, 0
2, 23160, Note_on_c, 1, 39, 127
2, 23160, Note_on_c, 1, 46, 127
2, 23160, Note_on_c, 1, 75, 127
2, 23160, Note_on_c, 1, 79, 127
2, 23520, Note_off_c, 1, 39, 0
2, 23520, Note_off_c, 1, 46, 0
2, 23520, Note_off_c, 1, 75, 0
2, 23520, Note_off_c, 1, 79, 0
2, 23560, Note_on_c, 1, 39, 127
2, 23560, Note_on_c, 1, 46, 127
2, 23560, Note_on_c, 1, 75, 127
2, 23560, Note_on_c, 1, 79, 127
2, 23920, Note_off_c, 1, 39, 0
2, 23920, Note_off_c, 1, 46, 0
2, 23920, Note_off_c, 1, 75, 0
2, 23920, Note_off_c, 1, 79, 0
2, 23960, Note_on_c, 1, 39, 127
2, 23960, Note_on_c, 1, 46, 127
2, 23960, Note_on_c, 1, 75, 127
2, 23960, Note_on_c, 1, 79, 127
2, 24320, Note_off_c, 1, 39, 0
2, 24320, Note_off_c, 1, 46, 0
2, 24320, Note_off_c, 1, 75, 0
2, 24320, Note_off_c, 1, 79, 0
2, 24360, Note_on_c, 1, 39, 127
2, 24360, Note_on_c, 1, 46, 127
2, 24360, Note_on_c, 1, 75, 127
2, 24360, Note_on_c, 1, 79, 127
2, 24720, Note_off_c, 1, 39, 0
2, 24720, Note_off_c, 1, 46, 0
2, 24720, Note_off_c, 1, 75, 0
2, 24720, Note_off_c, 1, 79, 0
2, 24800, Note_on_c, 1, 39, 127
2, 24800, Note_on_c, 1, 46, 127
2, 24800, Note_on_c, 1, 75, 127
2, 24800, Note_on_c, 1, 79, 127
2, 25160, Note_off_c, 1, 39, 0
2, 25160, Note_off_c, 1, 46, 0
2, 25160, Note_off_c, 1, 75, 0
2, 25160, Note_off_c, 1, 79, 0
2, 25200, Note_on_c, 1, 39, 127
2, 25200, Note_on_c, 1, 46, 127
2, 25200, Note_on_c, 1, 75, 127
2, 25200, Note_on_c, 1, 79, 127
2, 25560, Note_off_c, 1, 39, 0
2, 25560, Note_off_c, 1, 46, 0
2, 25560, Note_off_c, 1, 75, 0
2, 25560, Note_off_c, 1, 79, 0
2, 25600, Note_on_c, 1, 39, 127
2, 25600, Note_on_c, 1, 46, 127
2, 25600, Note_on_c, 1, 75, 127
2, 25600, Note_on_c, 1, 79, 127
2, 25960, Note_off_c, 1, 39, 0
2, 25960, Note_off_c, 1, 46, 0
2, 25960, Note_off_c, 1, 75, 0
2, 25960, Note_off_c, 1, 79, 0
2, 26000, Note_on_c, 1, 39, 127
2, 26000, Note_on_c, 1, 46, 127
2, 26000, Note_on_c, 1, 75, 127
2, 26000, Note_on_c, 1, 79, 127
2, 26360, Note_off_c, 1, 39, 0
2, 26360, Note_off_c, 1, 46, 0
2, 26360, Note_off_c, 1, 75, 0
2, 26360, Note_off_c, 1, 79, 0
2, 26400, Note_on_c, 1, 39, 127
2, 26400, Note_on_c, 1, 46, 127
2, 26400, Note_on_c, 1, 75, 127
2, 26400, Note_on_c, 1, 79, 127
2, 26760, Note_off_c, 1, 39, 0
2, 26760, Note_off_c, 1, 46, 0
2, 26760, Note_off_c, 1, 75, 0
2, 26760, Note_off_c, 1, 79, 0
2, 26840, Note_on_c, 1, 39, 127
2, 26840, Note_on_c, 1, 46, 127
2, 26840, Note_on_c, 1, 75, 127
2, 26840, Note_on_c, 1, 79, 127
2, 27200, Note_off_c, 1, 39, 0
2, 27200, Note_off_c, 1, 46, 0
2, 27200, Note_off_c, 1, 75, 0
2, 27200, Note_off_c, 1, 79, 0
2, 27240, Note_on_c, 1, 39, 127
2, 27240, Note_on_c, 1, 46, 127
2, 27240, Note_on_c, 1, 75, 127
2, 27240, Note_on_c, 1, 79, 127
2, 27600, Note_off_c, 1, 39, 0
2, 27600, Note_off_c, 1, 46, 0
2, 27600, Note_off_c, 1, 75, 0
2, 27600, Note_off_c, 1, 79, 0
2, 27640, Note_on_c, 1, 39, 127
2, 27640, Note_on_c, 1, 46, 127
2, 27640, Note_on_c, 1, 75, 127
2, 27640, Note_on_c, 1, 79, 127
2, 28000, Note_off_c, 1, 39, 0
2, 28000, Note_off_c, 1, 46, 0
2, 28000, Note_off_c, 1, 75, 0
2, 28000, Note_off_c, 1, 79, 0
2, 28040, Note_on_c, 1, 39, 127
2, 28040, Note_on_c, 1, 46, 127
2, 28040, Note_on_c, 1, 75, 127
2, 28040, Note_on_c, 1, 79, 127
2, 28400, Note_off_c, 1, 39, 0
2, 28400, Note_off_c, 1, 46, 0
2, 28400, Note_off_c, 1, 75, 0
2, 28400, Note_off_c, 1, 79, 0
2, 28440, Note_on_c, 1, 39, 127
2, 28440, Note_on_c, 1, 46, 127
2, 28440, Note_on_c, 1, 75, 127
2, 28440, Note_on_c, 1, 79, 127
2, 28800, Note_off_c, 1, 39, 0
2, 28800, Note_off_c, 1, 46, 0
2, 28800, Note_off_c, 1, 75, 0
2, 28800, Note_off_c, 1, 79, 0
2, 28880, Note_on_c, 1, 39, 127
2, 28880, Note_on_c, 1, 46, 127
2, 28880, Note_on_c, 1, 75, 127
2, 28880, Note_on_c, 1, 79, 127
2, 29240, Note_off_c, 1, 39, 0
2, 29240, Note_off_c, 1, 46, 0
2, 29240, Note_off_c, 1, 75, 0
2, 29240, Note_off_c, 1, 79, 0
2, 29280, Note_on_c, 1, 39, 127
2, 29280, Note_on_c, 1, 46, 127
2, 29280, Note_on_c, 1, 75, 127
2, 29280, Note_on_c, 1, 79, 127
2, 29640, Note_off_c, 1, 39, 0
2, 29640, Note_off_c, 1, 46, 0
2, 29640, Note_off_c, 1, 75, 0
2, 29640, Note_off_c, 1, 79, 0
2, 29680, Note_on_c, 1, 39, 127
2, 29680, Note_on_c, 1, 46, 127
2, 29680, Note_on_c, 1, 75, 127
2, 29680, Note_on_c, 1, 79, 127
2, 30040, Note_off_c, 1, 39, 0
2, 30040, Note_off_c, 1, 46, 0
2, 30040, Note_off_c, 1, 75, 0
2, 30040, Note_off_c, 1, 79, 0
2, 30080, Note_on_c, 1, 39, 127
2, 30080, Note_on_c, 1, 46, 127
2, 30080, Note_on_c, 1, 75, 127
2, 30080, Note_on_c, 1, 79, 127
2, 30440, Note_off_c, 1, 39, 0
2, 30440, Note_off_c, 1, 46, 0
2, 30440, Note_off_c, 1, 75, 0
2, 30440, Note_off_c, 1, 79, 0
2, 30480, Note_on_c, 1, 39, 127
2, 30480, Note_on_c, 1, 46, 127
2, 30480, Note_on_c, 1, 75, 127
2, 30480, Note_on_c, 1, 79, 127
2, 30840, Note_off_c, 1, 39, 0
2, 30840, Note_off_c, 1, 46, 0
2, 30840, Note_off_c, 1, 75, 0
2, 30840, Note_off_c, 1, 79, 0
2, 30920, Note_on_c, 1, 39, 127
2, 30920, Note_on_c, 1, 46, 127
2, 30920, Note_on_c, 1, 75, 127
2, 30920, Note_on_c, 1, 79, 127
2, 31280, Note_off_c, 1, 39, 0
2, 31280, Note_off_c, 1, 46, 0
2, 31280, Note_off_c, 1, 75, 0
2, 31280, Note_off_c, 1, 79, 0
2, 31320, Note_on_c, 1, 39, 127
2, 31320, Note_on_c, 1, 46, 127
2, 31320, Note_on_c, 1, 75, 127
2, 31320, Note_on_c, 1, 79, 127
2, 31680, Note_off_c, 1, 39, 0
2, 31680, Note_off_c, 1, 46, 0
2, 31680, Note_off_c, 1, 75, 0
2, 31680, Note_off_c, 1, 79, 0
2, 31720, Note_on_c, 1, 44, 127
2, 31720, Note_on_c, 1, 51, 127
2, 31720, Note_on_c, 1, 73, 127
2, 31720, Note_on_c, 1, 78, 127
2, 31880, Note_on_c, 1, 72, 127
2, 31880, Note_off_c, 1, 73, 0
2, 31920, Note_off_c, 1, 72, 0
2, 31920, Note_on_c, 1, 75, 127
2, 31920, Note_off_c, 1, 78, 0
2, 31920, Note_on_c, 1, 87, 127
2, 32080, Note_off_c, 1, 44, 0
2, 32080, Note_off_c, 1, 51, 0
2, 32080, Note_off_c, 1, 75, 0
2, 32080, Note_off_c, 1, 87, 0
2, 32120, Note_on_c, 1, 44, 127
2, 32120, Note_on_c, 1, 75, 127
2, 32280, Note_off_c, 1, 44, 0
2, 32320, Note_on_c, 1, 44, 127
2, 32480, Note_off_c, 1, 44, 0
2, 32520, Note_on_c, 1, 51, 127
2, 32680, Note_off_c, 1, 51, 0
2, 32720, Note_on_c, 1, 55, 127
2, 32880, Note_off_c, 1, 55, 0
2, 32880, Note_off_c, 1, 75, 0
2, 32960, Note_on_c, 1, 36, 127
2, 32960, Note_on_c, 1, 75, 127
2, 33120, Note_off_c, 1, 36, 0
2, 33160, Note_on_c, 1, 48, 127
2, 33320, Note_off_c, 1, 48, 0
2, 33360, Note_on_c, 1, 63, 127
2, 33520, Note_off_c, 1, 63, 0
2, 33560, Note_on_c, 1, 68, 127
2, 33720, Note_off_c, 1, 68, 0
2, 33720, Note_off_c, 1, 75, 0
2, 33760, Note_on_c, 1, 55, 127
2, 33760, Note_on_c, 1, 58, 127
2, 33760, Note_on_c, 1, 62, 127
2, 33760, Note_on_c, 1, 77, 127
2, 34040, Note_off_c, 1, 58, 0
2, 34040, Note_on_c, 1, 61, 127
2, 34040, Note_off_c, 1, 62, 0
2, 34040, Note_on_c, 1, 64, 127
2, 34040, Note_off_c, 1, 77, 0
2, 34080, Note_on_c, 1, 43, 127
2, 34080, Note_on_c, 1, 58, 127
2, 34080, Note_off_c, 1, 61, 0
2, 34080, Note_on_c, 1, 62, 127
2, 34080, Note_off_c, 1, 64, 0
2, 34120, Note_off_c, 1, 43, 0
2, 34120, Note_off_c, 1, 55, 0
2, 34120, Note_off_c, 1, 58, 0
2, 34120, Note_off_c, 1, 62, 0
2, 34160, Note_on_c, 1, 39, 127
2, 34560, Note_off_c, 1, 39, 0
2, 34560, Note_on_c, 1, 50, 127
2, 34560, Note_on_c, 1, 55, 127
2, 34560, Note_on_c, 1, 60, 127
2, 34560, Note_on_c, 1, 63, 127
2, 34600, Note_on_c, 1, 48, 127
2, 34600, Note_off_c, 1, 50, 0
2, 34600, Note_on_c, 1, 51, 127
2, 34600, Note_off_c, 1, 55, 0
2, 34600, Note_on_c, 1, 56, 127
2, 34600, Note_on_c, 1, 75, 127
2, 34680, Note_on_c, 1, 46, 127
2, 34680, Note_off_c, 1, 56, 0
2, 34680, Note_on_c, 1, 58, 127
2, 34680, Note_off_c, 1, 60, 0
2, 34680, Note_off_c, 1, 63, 0
2, 34680, Note_off_c, 1, 75, 0
2, 34720, Note_off_c, 1, 46, 0
2, 34720, Note_on_c, 1, 56, 127
2, 34720, Note_off_c, 1, 58, 0
2, 34720, Note_on_c, 1, 60, 127
2, 34720, Note_on_c, 1, 63, 127
2, 34720, Note_on_c, 1, 75, 127
2, 34960, Note_off_c, 1, 48, 0
2, 34960, Note_off_c, 1, 51, 0
2, 34960, Note_off_c, 1, 56, 0
2, 34960, Note_off_c, 1, 60, 0
2, 34960, Note_off_c, 1, 63, 0
2, 34960, Note_off_c, 1, 75, 0
2, 35000, Note_on_c, 1, 48, 127
2, 35000, Note_on_c, 1, 51, 127
2, 35000, Note_on_c, 1, 56, 127
2, 35000, Note_on_c, 1, 60, 127
2, 35000, Note_on_c, 1, 63, 127
2, 35000, Note_on_c, 1, 75, 127
2, 35360, Note_off_c, 1, 48, 0
2, 35360, Note_off_c, 1, 51, 0
2, 35360, Note_off_c, 1, 56, 0
2, 35360, Note_off_c, 1, 60, 0
2, 35360, Note_off_c, 1, 63, 0
2, 35360, Note_off_c, 1, 75, 0
2, 35400, Note_on_c, 1, 44, 127
2, 35400, Note_on_c, 1, 72, 127
2, 35400, Note_on_c, 1, 75, 127
2, 35400, Note_on_c, 1, 80, 127
2, 36560, Note_off_c, 1, 44, 0
2, 36560, Note_off_c, 1, 72, 0
2, 36560, Note_off_c, 1, 75, 0
2, 36560, Note_off_c, 1, 80, 0
2, 36600, Note_on_c, 1, 44, 127
2, 36600, Note_on_c, 1, 72, 127
2, 36600, Note_on_c, 1, 75, 127
2, 36600, Note_on_c, 1, 80, 127
2, 37120, Note_off_c, 1, 44, 0
2, 37120, Note_off_c, 1, 72, 0
2, 37120, Note_off_c, 1, 75, 0
2, 37120, Note_off_c, 1, 80, 0
2, 37160, Note_on_c, 1, 44, 127
2, 37160, Note_on_c, 1, 72, 127
2, 37160, Note_on_c, 1, 75, 127
2, 37160, Note_on_c, 1, 80, 127
2, 37400, Note_off_c, 1, 44, 0
2, 37400, Note_off_c, 1, 72, 0
2, 37400, Note_off_c, 1, 75, 0
2, 37400, Note_off_c, 1, 80, 0
2, 37440, Note_on_c, 1, 44, 127
2, 37440, Note_on_c, 1, 72, 127
2, 37440, Note_on_c, 1, 75, 127
2, 37440, Note_on_c, 1, 80, 127
2, 38600, Note_off_c, 1, 44, 0
2, 38600, Note_off_c, 1, 72, 0
2, 38600, Note_off_c, 1, 75, 0
2, 38600, Note_off_c, 1, 80, 0
2, 39440, Note_on_c, 1, 57, 127
2, 39440, Note_on_c, 1, 61, 127
2, 39440, Note_on_c, 1, 69, 127
2, 39840, Note_off_c, 1, 57, 0
2, 39840, Note_off_c, 1, 61, 0
2, 39840, Note_off_c, 1, 69, 0
2, 39880, Note_on_c, 1, 57, 127
2, 39880, Note_on_c, 1, 61, 127
2, 39880, Note_on_c, 1, 69, 127
2, 40240, Note_off_c, 1, 57, 0
2, 40240, Note_off_c, 1, 61, 0
2, 40240, Note_off_c, 1, 69, 0
2, 40280, Note_on_c, 1, 51, 127
2, 40280, Note_on_c, 1, 59, 127
2, 40280, Note_on_c, 1, 71, 127
2, 40640, Note_off_c, 1, 51, 0
2, 40640, Note_off_c, 1, 59, 0
2, 40640, Note_off_c, 1, 71, 0
2, 40680, Note_on_c, 1, 54, 127
2, 40680, Note_on_c, 1, 61, 127
2, 40680, Note_on_c, 1, 73, 127
2, 41040, Note_off_c, 1, 54, 0
2, 41040, Note_off_c, 1, 61, 0
2, 41040, Note_off_c, 1, 73, 0
2, 41080, Note_on_c, 1, 40, 127
2, 41080, Note_on_c, 1, 68, 127
2, 41080, Note_on_c, 1, 71, 127
2, 41080, Note_on_c, 1, 76, 127
2, 41440, Note_off_c, 1, 68, 0
2, 41440, Note_off_c, 1, 71, 0
2, 41440, Note_off_c, 1, 76, 0
2, 41720, Note_off_c, 1, 40, 0
2, 41760, Note_on_c, 1, 40, 127
2, 42280, Note_off_c, 1, 40, 0
2, 42320, Note_on_c, 1, 59, 127
2, 42320, Note_on_c, 1, 64, 127
2, 42320, Note_on_c, 1, 68, 127
2, 42320, Note_on_c, 1, 76, 127
2, 42320, Note_on_c, 1, 80, 127
2, 43080, Note_off_c, 1, 59, 0
2, 43080, Note_off_c, 1, 64, 0
2, 43080, Note_off_c, 1, 68, 0
2, 43080, Note_off_c, 1, 76, 0
2, 43080, Note_off_c, 1, 80, 0
2, 43520, Note_on_c, 1, 47, 127
2, 43520, Note_on_c, 1, 59, 127
2, 43880, Note_off_c, 1, 47, 0
2, 43880, Note_off_c, 1, 59, 0
2, 43960, Note_on_c, 1, 52, 127
2, 43960, Note_on_c, 1, 64, 127
2, 44320, Note_off_c, 1, 52, 0
2, 44320, Note_off_c, 1, 64, 0
2, 44360, Note_on_c, 1, 49, 127
2, 44360, Note_on_c, 1, 61, 127
2, 44640, Note_off_c, 1, 49, 0
2, 44640, Note_off_c, 1, 61, 0
2, 44760, Note_on_c, 1, 49, 127
2, 44760, Note_on_c, 1, 61, 127
2, 45080, Note_off_c, 1, 49, 0
2, 45080, Note_off_c, 1, 61, 0
2, 45160, Note_on_c, 1, 47, 127
2, 45160, Note_on_c, 1, 59, 127
2, 45480, Note_off_c, 1, 47, 0
2, 45480, Note_off_c, 1, 59, 0
2, 45560, Note_on_c, 1, 49, 127
2, 45560, Note_on_c, 1, 61, 127
2, 45880, Note_off_c, 1, 49, 0
2, 45880, Note_off_c, 1, 61, 0
2, 46000, Note_on_c, 1, 47, 127
2, 46000, Note_on_c, 1, 59, 127
2, 46320, Note_off_c, 1, 47, 0
2, 46320, Note_off_c, 1, 59, 0
2, 46400, Note_on_c, 1, 47, 127
2, 46400, Note_on_c, 1, 51, 127
2, 46400, Note_on_c, 1, 54, 127
2, 46400, Note_on_c, 1, 59, 127
2, 46720, Note_on_c, 1, 35, 127
2, 46720, Note_off_c, 1, 47, 0
2, 46720, Note_off_c, 1, 51, 0
2, 46720, Note_off_c, 1, 54, 0
2, 46720, Note_off_c, 1, 59, 0
2, 46760, Note_off_c, 1, 35, 0
2, 46800, Note_on_c, 1, 42, 127
2, 46800, Note_on_c, 1, 54, 127
2, 46800, Note_on_c, 1, 76, 127
2, 46800, Note_on_c, 1, 78, 127
2, 46840, Note_on_c, 1, 30, 127
2, 46840, Note_on_c, 1, 50, 127
2, 46840, Note_off_c, 1, 54, 0
2, 46840, Note_on_c, 1, 58, 127
2, 46840, Note_off_c, 1, 76, 0
2, 46840, Note_off_c, 1, 78, 0
2, 46880, Note_off_c, 1, 30, 0
2, 46880, Note_off_c, 1, 42, 0
2, 46880, Note_on_c, 1, 44, 127
2, 46880, Note_on_c, 1, 48, 127
2, 46880, Note_off_c, 1, 50, 0
2, 46880, Note_on_c, 1, 51, 127
2, 46880, Note_on_c, 1, 54, 127
2, 46880, Note_off_c, 1, 58, 0
2, 46880, Note_on_c, 1, 81, 127
2, 46920, Note_on_c, 1, 42, 127
2, 46920, Note_off_c, 1, 44, 0
2, 46920, Note_off_c, 1, 48, 0
2, 46920, Note_off_c, 1, 51, 0
2, 46920, Note_off_c, 1, 54, 0
2, 46920, Note_on_c, 1, 66, 127
2, 46920, Note_on_c, 1, 67, 127
2, 46920, Note_off_c, 1, 81, 0
2, 46960, Note_off_c, 1, 42, 0
2, 46960, Note_on_c, 1, 44, 127
2, 46960, Note_on_c, 1, 49, 127
2, 46960, Note_on_c, 1, 52, 127
2, 46960, Note_on_c, 1, 61, 127
2, 46960, Note_off_c, 1, 66, 0
2, 46960, Note_off_c, 1, 67, 0
2, 47000, Note_on_c, 1, 43, 127
2, 47000, Note_off_c, 1, 44, 0
2, 47000, Note_on_c, 1, 48, 127
2, 47000, Note_off_c, 1, 49, 0
2, 47000, Note_off_c, 1, 61, 0
2, 47000, Note_on_c, 1, 80, 127
2, 47040, Note_off_c, 1, 43, 0
2, 47040, Note_off_c, 1, 48, 0
2, 47040, Note_off_c, 1, 52, 0
2, 47040, Note_on_c, 1, 66, 127
2, 47040, Note_on_c, 1, 73, 127
2, 47040, Note_on_c, 1, 76, 127
2, 47040, Note_off_c, 1, 80, 0
2, 47040, Note_on_c, 1, 84, 127
2, 47080, Note_on_c, 1, 43, 127
2, 47080, Note_on_c, 1, 48, 127
2, 47080, Note_on_c, 1, 52, 127
2, 47080, Note_off_c, 1, 66, 0
2, 47080, Note_off_c, 1, 73, 0
2, 47080, Note_off_c, 1, 76, 0
2, 47080, Note_on_c, 1, 80, 127
2, 47080, Note_off_c, 1, 84, 0
2, 47120, Note_off_c, 1, 43, 0
2, 47120, Note_off_c, 1, 48, 0
2, 47120, Note_off_c, 1, 52, 0
2, 47120, Note_on_c, 1, 55, 127
2, 47120, Note_on_c, 1, 59, 127
2, 47120, Note_on_c, 1, 62, 127
2, 47120, Note_on_c, 1, 65, 127
2, 47120, Note_on_c, 1, 67, 127
2, 47120, Note_off_c, 1, 80, 0
2, 47120, Note_on_c, 1, 83, 127
2, 47160, Note_off_c, 1, 55, 0
2, 47160, Note_off_c, 1, 59, 0
2, 47160, Note_off_c, 1, 62, 0
2, 47160, Note_off_c, 1, 65, 0
2, 47160, Note_off_c, 1, 67, 0
2, 47160, Note_off_c, 1, 83, 0
2, 47200, Note_on_c, 1, 47, 127
2, 47200, Note_on_c, 1, 51, 127
2, 47200, Note_on_c, 1, 57, 127
2, 47200, Note_on_c, 1, 66, 127
2, 47560, Note_off_c, 1, 47, 0
2, 47560, Note_off_c, 1, 51, 0
2, 47560, Note_off_c, 1, 57, 0
2, 47600, Note_on_c, 1, 42, 127
2, 47600, Note_on_c, 1, 54, 127
2, 47600, Note_on_c, 1, 63, 127
2, 48040, Note_off_c, 1, 42, 0
2, 48040, Note_off_c, 1, 54, 0
2, 48040, Note_off_c, 1, 63, 0
2, 48040, Note_off_c, 1, 66, 0
2, 48080, Note_on_c, 1, 42, 127
2, 48080, Note_on_c, 1, 54, 127
2, 48080, Note_on_c, 1, 63, 127
2, 48080, Note_on_c, 1, 66, 127
2, 48440, Note_off_c, 1, 42, 0
2, 48440, Note_off_c, 1, 54, 0
2, 48440, Note_off_c, 1, 63, 0
2, 48440, Note_off_c, 1, 66, 0
2, 48480, Note_on_c, 1, 38, 127
2, 48480, Note_on_c, 1, 50, 127
2, 48480, Note_on_c, 1, 65, 127
2, 48480, Note_on_c, 1, 68, 127
2, 48480, Note_on_c, 1, 70, 127
2, 48840, Note_off_c, 1, 38, 0
2, 48840, Note_off_c, 1, 50, 0
2, 48840, Note_off_c, 1, 70, 0
2, 48840, Note_on_c, 1, 73, 127
2, 48880, Note_on_c, 1, 38, 127
2, 48880, Note_on_c, 1, 50, 127
2, 48880, Note_on_c, 1, 70, 127
2, 48880, Note_off_c, 1, 73, 0
2, 49240, Note_off_c, 1, 38, 0
2, 49240, Note_off_c, 1, 50, 0
2, 49240, Note_off_c, 1, 65, 0
2, 49240, Note_off_c, 1, 68, 0
2, 49240, Note_off_c, 1, 70, 0
2, 49280, Note_on_c, 1, 52, 127
2, 49280, Note_on_c, 1, 56, 127
2, 49280, Note_on_c, 1, 59, 127
2, 49280, Note_on_c, 1, 61, 127
2, 49280, Note_on_c, 1, 80, 127
2, 49440, Note_off_c, 1, 80, 0
2, 49480, Note_on_c, 1, 82, 127
2, 49600, Note_off_c, 1, 82, 0
2, 49640, Note_off_c, 1, 52, 0
2, 49640, Note_off_c, 1, 56, 0
2, 49640, Note_off_c, 1, 59, 0
2, 49640, Note_off_c, 1, 61, 0
2, 49680, Note_on_c, 1, 52, 127
2, 49680, Note_on_c, 1, 56, 127
2, 49680, Note_on_c, 1, 59, 127
2, 49680, Note_on_c, 1, 61, 127
2, 49680, Note_on_c, 1, 83, 127
2, 50040, Note_off_c, 1, 52, 0
2, 50040, Note_off_c, 1, 56, 0
2, 50040, Note_off_c, 1, 59, 0
2, 50040, Note_off_c, 1, 61, 0
2, 50040, Note_off_c, 1, 83, 0
2, 50160, Note_on_c, 1, 52, 127
2, 50160, Note_on_c, 1, 56, 127
2, 50160, Note_on_c, 1, 59, 127
2, 50160, Note_on_c, 1, 61, 127
2, 50160, Note_on_c, 1, 83, 127
2, 50520, Note_off_c, 1, 52, 0
2, 50520, Note_off_c, 1, 56, 0
2, 50520, Note_off_c, 1, 59, 0
2, 50520, Note_off_c, 1, 61, 0
2, 50520, Note_off_c, 1, 83, 0
2, 50560, Note_on_c, 1, 52, 127
2, 50560, Note_on_c, 1, 56, 127
2, 50560, Note_on_c, 1, 59, 127
2, 50560, Note_on_c, 1, 61, 127
2, 50560, Note_on_c, 1, 80, 127
2, 50720, Note_off_c, 1, 80, 0
2, 50760, Note_on_c, 1, 80, 127
2, 50920, Note_off_c, 1, 52, 0
2, 50920, Note_off_c, 1, 56, 0
2, 50920, Note_off_c, 1, 59, 0
2, 50920, Note_off_c, 1, 61, 0
2, 50920, Note_off_c, 1, 80, 0
2, 50960, Note_on_c, 1, 52, 127
2, 50960, Note_on_c, 1, 56, 127
2, 50960, Note_on_c, 1, 59, 127
2, 50960, Note_on_c, 1, 61, 127
2, 50960, Note_on_c, 1, 80, 127
2, 51160, Note_off_c, 1, 80, 0
2, 51200, Note_on_c, 1, 73, 127
2, 51320, Note_off_c, 1, 52, 0
2, 51320, Note_off_c, 1, 56, 0
2, 51320, Note_off_c, 1, 59, 0
2, 51320, Note_off_c, 1, 61, 0
2, 51320, Note_off_c, 1, 73, 0
2, 51400, Note_on_c, 1, 51, 127
2, 51400, Note_on_c, 1, 66, 127
2, 51400, Note_on_c, 1, 69, 127
2, 51560, Note_off_c, 1, 66, 0
2, 51600, Note_on_c, 1, 37, 127
2, 51600, Note_off_c, 1, 51, 0
2, 51600, Note_on_c, 1, 59, 127
2, 51760, Note_off_c, 1, 37, 0
2, 51760, Note_off_c, 1, 59, 0
2, 51760, Note_off_c, 1, 69, 0
2, 51800, Note_on_c, 1, 52, 127
2, 51800, Note_on_c, 1, 64, 127
2, 51800, Note_on_c, 1, 68, 127
2, 51960, Note_off_c, 1, 52, 0
2, 51960, Note_off_c, 1, 64, 0
2, 51960, Note_off_c, 1, 68, 0
2, 52080, Note_on_c, 1, 54, 127
2, 52080, Note_on_c, 1, 59, 127
2, 52080, Note_on_c, 1, 63, 127
2, 52080, Note_on_c, 1, 69, 127
2, 52240, Note_off_c, 1, 54, 0
2, 52240, Note_off_c, 1, 59, 0
2, 52240, Note_off_c, 1, 63, 0
2, 52240, Note_off_c, 1, 69, 0
2, 52280, Note_on_c, 1, 54, 127
2, 52280, Note_on_c, 1, 59, 127
2, 52280, Note_on_c, 1, 63, 127
2, 52280, Note_on_c, 1, 69, 127
2, 52440, Note_off_c, 1, 54, 0
2, 52440, Note_off_c, 1, 59, 0
2, 52440, Note_off_c, 1, 63, 0
2, 52440, Note_off_c, 1, 69, 0
2, 52480, Note_on_c, 1, 52, 127
2, 52480, Note_on_c, 1, 64, 127
2, 52480, Note_on_c, 1, 68, 127
2, 52640, Note_off_c, 1, 52, 0
2, 52640, Note_off_c, 1, 64, 0
2, 52640, Note_off_c, 1, 68, 0
2, 53120, Note_on_c, 1, 52, 127
2, 53280, Note_off_c, 1, 52, 0
2, 53320, Note_on_c, 1, 68, 127
2, 53480, Note_off_c, 1, 68, 0
2, 53520, Note_on_c, 1, 71, 127
2, 53680, Note_off_c, 1, 71, 0
2, 53720, Note_on_c, 1, 73, 127
2, 53880, Note_off_c, 1, 73, 0
2, 53920, Note_on_c, 1, 76, 127
2, 54000, Note_off_c, 1, 76, 0
2, 54040, Note_on_c, 1, 76, 127
2, 54120, Note_off_c, 1, 76, 0
2, 54160, Note_on_c, 1, 78, 127
2, 54320, Note_off_c, 1, 78, 0
2, 54360, Note_on_c, 1, 32, 127
2, 54360, Note_on_c, 1, 75, 127
2, 54520, Note_off_c, 1, 32, 0
2, 54560, Note_on_c, 1, 32, 127
2, 55160, Note_off_c, 1, 32, 0
2, 55200, Note_on_c, 1, 32, 127
2, 55960, Note_off_c, 1, 32, 0
2, 56000, Note_on_c, 1, 40, 127
2, 56000, Note_off_c, 1, 75, 0
2, 56000, Note_on_c, 1, 76, 127
2, 56160, Note_off_c, 1, 40, 0
2, 56160, Note_off_c, 1, 76, 0
2, 56200, Note_on_c, 1, 40, 127
2, 56200, Note_on_c, 1, 76, 127
2, 56440, Note_off_c, 1, 40, 0
2, 56480, Note_on_c, 1, 47, 127
2, 56840, Note_off_c, 1, 47, 0
2, 56880, Note_on_c, 1, 40, 127
2, 57240, Note_off_c, 1, 40, 0
2, 57240, Note_off_c, 1, 76, 0
2, 57280, Note_on_c, 1, 47, 127
2, 57280, Note_on_c, 1, 71, 127
2, 57640, Note_off_c, 1, 47, 0
2, 57680, Note_on_c, 1, 51, 127
2, 58040, Note_off_c, 1, 51, 0
2, 58080, Note_on_c, 1, 53, 127
2, 58440, Note_off_c, 1, 53, 0
2, 58440, Note_off_c, 1, 71, 0
2, 58480, Note_on_c, 1, 53, 127
2, 58480, Note_on_c, 1, 71, 127
2, 58520, Note_off_c, 1, 53, 0
2, 58560, Note_on_c, 1, 56, 127
2, 58920, Note_off_c, 1, 56, 0
2, 58920, Note_off_c, 1, 71, 0
2, 58960, Note_on_c, 1, 49, 127
2, 58960, Note_on_c, 1, 70, 127
2, 59120, Note_off_c, 1, 70, 0
2, 59160, Note_on_c, 1, 70, 127
2, 59320, Note_off_c, 1, 49, 0
2, 59360, Note_on_c, 1, 54, 127
2, 59720, Note_off_c, 1, 54, 0
2, 59760, Note_on_c, 1, 58, 127
2, 60120, Note_off_c, 1, 58, 0
2, 60160, Note_on_c, 1, 54, 127
2, 60520, Note_off_c, 1, 54, 0
2, 60560, Note_off_c, 1, 70, 0
2, 60600, Note_on_c, 1, 52, 127
2, 60600, Note_on_c, 1, 70, 127
2, 60960, Note_off_c, 1, 52, 0
2, 61000, Note_on_c, 1, 56, 127
2, 61400, Note_off_c, 1, 56, 0
2, 61840, Note_on_c, 1, 61, 127
2, 62440, Note_off_c, 1, 61, 0
2, 62440, Note_off_c, 1, 70, 0
2, 62480, Note_on_c, 1, 61, 127
2, 62480, Note_on_c, 1, 70, 127
2, 62640, Note_off_c, 1, 61, 0
2, 62640, Note_off_c, 1, 70, 0
2, 62680, Note_on_c, 1, 63, 127
2, 62680, Note_on_c, 1, 73, 127
2, 63040, Note_off_c, 1, 63, 0
2, 63040, Note_off_c, 1, 73, 0
2, 63080, Note_on_c, 1, 70, 127
2, 63080, Note_on_c, 1, 73, 127
2, 63880, Note_off_c, 1, 73, 0
2, 63920, Note_on_c, 1, 62, 127
2, 64280, Note_off_c, 1, 62, 0
2, 64320, Note_off_c, 1, 70, 0
2, 64360, Note_on_c, 1, 61, 127
2, 64360, Note_on_c, 1, 70, 127
2, 64720, Note_off_c, 1, 61, 0
2, 64720, Note_off_c, 1, 70, 0
2, 64760, Note_on_c, 1, 51, 127
2, 64760, Note_on_c, 1, 68, 127
2, 65120, Note_off_c, 1, 51, 0
2, 65160, Note_on_c, 1, 56, 127
2, 65520, Note_off_c, 1, 56, 0
2, 65560, Note_on_c, 1, 60, 127
2, 65720, Note_off_c, 1, 68, 0
2, 65760, Note_on_c, 1, 68, 127
2, 65920, Note_off_c, 1, 60, 0
2, 65920, Note_off_c, 1, 68, 0
2, 65960, Note_on_c, 1, 44, 127
2, 65960, Note_on_c, 1, 67, 127
2, 66320, Note_off_c, 1, 44, 0
2, 66360, Note_off_c, 1, 67, 0
2, 66400, Note_on_c, 1, 58, 127
2, 66400, Note_on_c, 1, 67, 127
2, 66760, Note_off_c, 1, 58, 0
2, 66800, Note_on_c, 1, 48, 127
2, 67160, Note_off_c, 1, 48, 0
2, 67200, Note_on_c, 1, 52, 127
2, 67200, Note_off_c, 1, 67, 0
2, 67560, Note_off_c, 1, 52, 0
2, 67600, Note_on_c, 1, 53, 127
2, 67600, Note_on_c, 1, 69, 127
2, 67960, Note_off_c, 1, 53, 0
2, 67960, Note_off_c, 1, 69, 0
2, 68000, Note_on_c, 1, 60, 127
2, 68000, Note_on_c, 1, 70, 127
2, 68360, Note_off_c, 1, 70, 0
2, 68400, Note_off_c, 1, 60, 0
2, 68440, Note_on_c, 1, 60, 127
2, 68440, Note_on_c, 1, 68, 127
2, 68760, Note_off_c, 1, 60, 0
2, 68760, Note_off_c, 1, 68, 0
2, 68800, Note_on_c, 1, 53, 127
2, 68800, Note_on_c, 1, 72, 127
2, 69160, Note_off_c, 1, 53, 0
2, 69160, Note_off_c, 1, 72, 0
2, 69200, Note_on_c, 1, 53, 127
2, 69200, Note_on_c, 1, 70, 127
2, 69560, Note_off_c, 1, 53, 0
2, 69600, Note_on_c, 1, 53, 127
2, 69960, Note_off_c, 1, 53, 0
2, 69960, Note_off_c, 1, 70, 0
2, 70000, Note_on_c, 1, 58, 127
2, 70000, Note_on_c, 1, 73, 127
2, 70360, Note_off_c, 1, 58, 0
2, 70400, Note_off_c, 1, 73, 0
2, 70440, Note_on_c, 1, 53, 127
2, 70440, Note_on_c, 1, 73, 127
2, 70800, Note_off_c, 1, 53, 0
2, 70840, Note_on_c, 1, 56, 127
2, 71000, Note_off_c, 1, 73, 0
2, 71040, Note_on_c, 1, 73, 127
2, 71200, Note_off_c, 1, 56, 0
2, 71200, Note_off_c, 1, 73, 0
2, 71240, Note_on_c, 1, 60, 127
2, 71240, Note_on_c, 1, 72, 127
2, 71600, Note_off_c, 1, 60, 0
2, 71640, Note_on_c, 1, 53, 127
2, 72000, Note_off_c, 1, 53, 0
2, 72000, Note_off_c, 1, 72, 0
2, 72040, Note_on_c, 1, 65, 127
2, 72440, Note_off_c, 1, 65, 0
2, 72480, Note_on_c, 1, 46, 127
2, 72480, Note_on_c, 1, 65, 127
2, 72840, Note_off_c, 1, 46, 0
2, 72880, Note_on_c, 1, 56, 127
2, 73240, Note_off_c, 1, 56, 0
2, 73280, Note_on_c, 1, 48, 127
2, 73640, Note_off_c, 1, 48, 0
2, 73680, Note_on_c, 1, 44, 127
2, 74040, Note_off_c, 1, 44, 0
2, 74440, Note_off_c, 1, 65, 0
2, 74520, Note_on_c, 1, 53, 127
2, 74520, Note_on_c, 1, 68, 127
2, 74720, Note_off_c, 1, 53, 0
2, 74720, Note_on_c, 1, 55, 127
2, 74720, Note_on_c, 1, 58, 127
2, 74720, Note_on_c, 1, 62, 127
2, 74720, Note_on_c, 1, 67, 127
2, 74720, Note_off_c, 1, 68, 0
2, 74720, Note_on_c, 1, 70, 127
2, 75280, Note_off_c, 1, 55, 0
2, 75280, Note_off_c, 1, 58, 0
2, 75280, Note_off_c, 1, 62, 0
2, 75280, Note_on_c, 1, 65, 127
2, 75280, Note_off_c, 1, 67, 0
2, 75280, Note_off_c, 1, 70, 0
2, 75320, Note_on_c, 1, 53, 127
2, 75320, Note_off_c, 1, 65, 0
2, 75320, Note_on_c, 1, 68, 127
2, 75680, Note_off_c, 1, 53, 0
2, 75720, Note_on_c, 1, 56, 127
2, 76040, Note_off_c, 1, 56, 0
2, 76120, Note_on_c, 1, 53, 127
2, 76480, Note_off_c, 1, 53, 0
2, 76480, Note_off_c, 1, 68, 0
2, 76560, Note_on_c, 1, 53, 127
2, 76560, Note_on_c, 1, 68, 127
2, 76920, Note_off_c, 1, 53, 0
2, 76960, Note_on_c, 1, 50, 127
2, 77320, Note_off_c, 1, 50, 0
2, 77360, Note_on_c, 1, 53, 127
2, 77720, Note_off_c, 1, 53, 0
2, 77760, Note_on_c, 1, 50, 127
2, 78120, Note_off_c, 1, 50, 0
2, 78160, Note_on_c, 1, 46, 127
2, 78400, Note_on_c, 1, 67, 127
2, 78400, Note_off_c, 1, 68, 0
2, 78440, Note_off_c, 1, 67, 0
2, 78440, Note_on_c, 1, 68, 127
2, 78520, Note_off_c, 1, 46, 0
2, 78560, Note_off_c, 1, 68, 0
2, 78600, Note_on_c, 1, 52, 127
2, 78600, Note_on_c, 1, 68, 127
2, 78960, Note_off_c, 1, 52, 0
2, 78960, Note_off_c, 1, 68, 0
2, 79000, Note_on_c, 1, 47, 127
2, 79000, Note_on_c, 1, 67, 127
2, 79360, Note_off_c, 1, 47, 0
2, 79400, Note_on_c, 1, 47, 127
2, 79760, Note_off_c, 1, 47, 0
2, 79800, Note_on_c, 1, 55, 127
2, 79800, Note_on_c, 1, 65, 127
2, 79800, Note_off_c, 1, 67, 0
2, 80160, Note_off_c, 1, 55, 0
2, 80200, Note_on_c, 1, 47, 127
2, 80560, Note_off_c, 1, 47, 0
2, 80600, Note_off_c, 1, 65, 0
2, 80640, Note_on_c, 1, 47, 127
2, 80640, Note_on_c, 1, 65, 127
2, 81000, Note_off_c, 1, 65, 0
2, 81040, Note_on_c, 1, 65, 127
2, 81400, Note_off_c, 1, 47, 0
2, 81440, Note_on_c, 1, 47, 127
2, 81800, Note_off_c, 1, 47, 0
2, 81840, Note_on_c, 1, 59, 127
2, 82200, Note_off_c, 1, 59, 0
2, 82240, Note_on_c, 1, 47, 127
2, 82600, Note_off_c, 1, 65, 0
2, 82640, Note_off_c, 1, 47, 0
2, 82680, Note_on_c, 1, 47, 127
2, 82680, Note_on_c, 1, 65, 127
2, 83040, Note_off_c, 1, 65, 0
2, 83080, Note_on_c, 1, 59, 127
2, 84240, Note_off_c, 1, 59, 0
2, 84280, Note_on_c, 1, 59, 127
2, 84560, Note_off_c, 1, 47, 0
2, 84560, Note_off_c, 1, 59, 0
2, 84600, Note_on_c, 1, 47, 127
2, 84600, Note_on_c, 1, 59, 127
2, 85040, Note_off_c, 1, 47, 0
2, 85080, Note_on_c, 1, 54, 127
2, 85080, Note_off_c, 1, 59, 0
2, 85120, Note_on_c, 1, 47, 127
2, 85120, Note_off_c, 1, 54, 0
2, 85120, Note_on_c, 1, 59, 127
2, 85680, Note_on_c, 1, 68, 127
2, 85840, Note_off_c, 1, 68, 0
2, 86480, Note_off_c, 1, 47, 0
2, 86480, Note_off_c, 1, 59, 0
2, 86520, Note_on_c, 1, 47, 127
2, 86520, Note_on_c, 1, 59, 127
2, 87880, Note_off_c, 1, 47, 0
2, 87880, Note_on_c, 1, 71, 127
2, 88280, Note_off_c, 1, 59, 0
2, 88280, Note_off_c, 1, 71, 0
2, 88360, Note_on_c, 1, 43, 127
2, 88360, Note_on_c, 1, 55, 127
2, 88360, Note_on_c, 1, 81, 127
2, 88920, Note_off_c, 1, 81, 0
2, 88960, Note_on_c, 1, 81, 127
2, 89120, Note_off_c, 1, 81, 0
2, 89160, Note_on_c, 1, 81, 127
2, 89320, Note_on_c, 1, 70, 127
2, 89320, Note_off_c, 1, 81, 0
2, 89360, Note_off_c, 1, 70, 0
2, 89360, Note_on_c, 1, 81, 127
2, 89520, Note_off_c, 1, 81, 0
2, 89560, Note_on_c, 1, 81, 127
2, 89920, Note_off_c, 1, 81, 0
2, 89960, Note_on_c, 1, 74, 127
2, 90120, Note_off_c, 1, 74, 0
2, 90160, Note_off_c, 1, 43, 0
2, 90160, Note_off_c, 1, 55, 0
2, 90200, Note_on_c, 1, 43, 127
2, 90200, Note_on_c, 1, 55, 127
2, 90200, Note_on_c, 1, 71, 127
2, 90320, Note_off_c, 1, 71, 0
2, 90320, Note_on_c, 1, 74, 127
2, 90360, Note_off_c, 1, 74, 0
2, 90400, Note_on_c, 1, 81, 127
2, 90760, Note_off_c, 1, 81, 0
2, 90800, Note_on_c, 1, 71, 127
2, 90960, Note_off_c, 1, 71, 0
2, 91000, Note_on_c, 1, 74, 127
2, 91160, Note_off_c, 1, 43, 0
2, 91160, Note_off_c, 1, 55, 0
2, 91160, Note_off_c, 1, 74, 0
2, 91200, Note_on_c, 1, 71, 127
2, 91360, Note_off_c, 1, 71, 0
2, 91400, Note_on_c, 1, 74, 127
2, 91560, Note_off_c, 1, 74, 0
2, 91600, Note_on_c, 1, 31, 127
2, 91600, Note_on_c, 1, 43, 127
2, 91600, Note_on_c, 1, 55, 127
2, 92360, Note_off_c, 1, 31, 0
2, 92360, Note_off_c, 1, 43, 0
2, 92360, Note_off_c, 1, 55, 0
2, 92400, Note_on_c, 1, 31, 127
2, 92400, Note_on_c, 1, 43, 127
2, 92400, Note_on_c, 1, 55, 127
2, 92440, Note_off_c, 1, 31, 0
2, 92440, Note_off_c, 1, 43, 0
2, 92440, Note_off_c, 1, 55, 0
2, 92440, Note_on_c, 1, 62, 127
2, 92480, Note_on_c, 1, 33, 127
2, 92480, Note_on_c, 1, 45, 127
2, 92480, Note_on_c, 1, 61, 127
2, 92480, Note_off_c, 1, 62, 0
2, 92840, Note_off_c, 1, 61, 0
2, 92880, Note_on_c, 1, 54, 127
2, 93240, Note_off_c, 1, 33, 0
2, 93240, Note_off_c, 1, 45, 0
2, 93240, Note_off_c, 1, 54, 0
2, 93280, Note_on_c, 1, 35, 127
2, 93280, Note_on_c, 1, 47, 127
2, 93280, Note_on_c, 1, 66, 127
2, 94080, Note_off_c, 1, 66, 0
2, 94120, Note_on_c, 1, 62, 127
2, 94440, Note_off_c, 1, 35, 0
2, 94440, Note_off_c, 1, 47, 0
2, 94440, Note_off_c, 1, 62, 0
2, 94480, Note_on_c, 1, 35, 127
2, 94480, Note_on_c, 1, 47, 127
2, 94480, Note_on_c, 1, 62, 127
2, 94520, Note_off_c, 1, 62, 0
2, 94560, Note_on_c, 1, 66, 127
2, 95160, Note_off_c, 1, 66, 0
2, 95160, Note_on_c, 1, 69, 127
2, 95320, Note_off_c, 1, 35, 0
2, 95320, Note_off_c, 1, 47, 0
2, 95320, Note_off_c, 1, 69, 0
2, 95360, Note_on_c, 1, 40, 127
2, 95360, Note_on_c, 1, 60, 127
2, 96160, Note_off_c, 1, 40, 0
2, 96200, Note_on_c, 1, 50, 127
2, 96520, Note_off_c, 1, 50, 0
2, 96560, Note_off_c, 1, 60, 0
2, 96640, Note_on_c, 1, 45, 127
2, 96640, Note_on_c, 1, 55, 127
2, 97000, Note_off_c, 1, 55, 0
2, 97040, Note_on_c, 1, 57, 127
2, 97400, Note_off_c, 1, 45, 0
2, 97440, Note_on_c, 1, 47, 127
2, 98200, Note_off_c, 1, 47, 0
2, 98200, Note_off_c, 1, 57, 0
2, 98240, Note_on_c, 1, 48, 127
2, 98680, Note_on_c, 1, 64, 127
2, 98880, Note_off_c, 1, 48, 0
2, 98880, Note_off_c, 1, 64, 0
2, 98920, Note_on_c, 1, 48, 127
2, 98920, Note_on_c, 1, 64, 127
2, 99040, Note_off_c, 1, 48, 0
2, 99080, Note_on_c, 1, 55, 127
2, 99440, Note_off_c, 1, 55, 0
2, 99440, Note_off_c, 1, 64, 0
2, 99480, Note_on_c, 1, 55, 127
2, 99480, Note_on_c, 1, 63, 127
2, 99840, Note_off_c, 1, 63, 0
2, 99880, Note_on_c, 1, 64, 127
2, 100240, Note_off_c, 1, 64, 0
2, 100280, Note_on_c, 1, 53, 127
2, 101080, Note_off_c, 1, 53, 0
2, 101120, Note_off_c, 1, 55, 0
2, 101160, Note_on_c, 1, 53, 127
2, 101160, Note_on_c, 1, 55, 127
2, 101920, Note_off_c, 1, 53, 0
2, 101960, Note_on_c, 1, 48, 127
2, 102320, Note_off_c, 1, 48, 0
2, 102360, Note_on_c, 1, 48, 127
2, 102720, Note_off_c, 1, 48, 0
2, 102760, Note_on_c, 1, 48, 127
2, 103120, Note_off_c, 1, 48, 0
2, 103120, Note_off_c, 1, 55, 0
2, 103120, Note_on_c, 1, 60, 127
2, 103160, Note_off_c, 1, 60, 0
2, 103200, Note_on_c, 1, 50, 127
2, 103200, Note_on_c, 1, 60, 127
2, 103560, Note_off_c, 1, 60, 0
2, 103600, Note_on_c, 1, 56, 127
2, 103960, Note_off_c, 1, 56, 0
2, 104000, Note_on_c, 1, 65, 127
2, 104360, Note_off_c, 1, 50, 0
2, 104360, Note_off_c, 1, 65, 0
2, 104400, Note_on_c, 1, 36, 127
2, 104400, Note_on_c, 1, 63, 127
2, 104760, Note_off_c, 1, 36, 0
2, 104800, Note_on_c, 1, 48, 127
2, 105160, Note_off_c, 1, 48, 0
2, 105200, Note_off_c, 1, 63, 0
2, 105240, Note_on_c, 1, 48, 127
2, 105240, Note_on_c, 1, 63, 127
2, 105600, Note_off_c, 1, 48, 0
2, 105640, Note_on_c, 1, 45, 127
2, 106000, Note_off_c, 1, 45, 0
2, 106040, Note_on_c, 1, 48, 127
2, 106400, Note_off_c, 1, 48, 0
2, 106440, Note_on_c, 1, 45, 127
2, 106800, Note_off_c, 1, 45, 0
2, 106840, Note_on_c, 1, 48, 127
2, 106840, Note_on_c, 1, 65, 127
2, 107240, Note_off_c, 1, 48, 0
2, 107240, Note_off_c, 1, 63, 0
2, 107240, Note_off_c, 1, 65, 0
2, 107280, Note_on_c, 1, 48, 127
2, 107280, Note_on_c, 1, 63, 127
2, 107280, Note_on_c, 1, 65, 127
2, 107680, Note_off_c, 1, 48, 0
2, 107680, Note_off_c, 1, 63, 0
2, 107680, Note_off_c, 1, 65, 0
2, 107720, Note_on_c, 1, 50, 127
2, 107720, Note_on_c, 1, 53, 127
2, 107720, Note_on_c, 1, 58, 127
2, 107720, Note_on_c, 1, 70, 127
2, 108080, Note_off_c, 1, 50, 0
2, 108480, Note_off_c, 1, 58, 0
2, 108480, Note_off_c, 1, 70, 0
2, 108520, Note_on_c, 1, 56, 127
2, 108520, Note_on_c, 1, 74, 127
2, 108840, Note_off_c, 1, 74, 0
2, 108840, Note_on_c, 1, 75, 127
2, 108880, Note_off_c, 1, 53, 0
2, 108880, Note_off_c, 1, 56, 0
2, 108880, Note_off_c, 1, 75, 0
2, 108920, Note_on_c, 1, 55, 127
2, 108920, Note_on_c, 1, 58, 127
2, 108920, Note_on_c, 1, 63, 127
2, 109280, Note_off_c, 1, 55, 0
2, 109280, Note_off_c, 1, 58, 0
2, 109320, Note_off_c, 1, 63, 0
2, 109360, Note_on_c, 1, 55, 127
2, 109360, Note_on_c, 1, 63, 127
2, 109720, Note_off_c, 1, 55, 0
2, 109760, Note_on_c, 1, 57, 127
2, 110120, Note_off_c, 1, 57, 0
2, 110160, Note_on_c, 1, 53, 127
2, 110520, Note_off_c, 1, 53, 0
2, 110560, Note_on_c, 1, 46, 127
2, 110560, Note_on_c, 1, 62, 127
2, 110560, Note_off_c, 1, 63, 0
2, 110920, Note_off_c, 1, 46, 0
2, 110960, Note_on_c, 1, 47, 127
2, 110960, Note_off_c, 1, 62, 0
2, 110960, Note_on_c, 1, 65, 127
2, 111320, Note_off_c, 1, 47, 0
2, 111360, Note_off_c, 1, 65, 0
2, 111400, Note_on_c, 1, 45, 127
2, 111400, Note_on_c, 1, 65, 127
2, 111760, Note_off_c, 1, 45, 0
2, 111800, Note_on_c, 1, 47, 127
2, 112160, Note_off_c, 1, 47, 0
2, 112200, Note_on_c, 1, 50, 127
2, 112560, Note_off_c, 1, 50, 0
2, 112600, Note_on_c, 1, 50, 127
2, 112960, Note_off_c, 1, 50, 0
2, 112960, Note_off_c, 1, 65, 0
2, 113000, Note_on_c, 1, 45, 127
2, 113600, Note_off_c, 1, 45, 0
2, 113640, Note_on_c, 1, 45, 127
2, 113800, Note_off_c, 1, 45, 0
2, 113840, Note_on_c, 1, 50, 127
2, 114200, Note_off_c, 1, 50, 0
2, 114240, Note_on_c, 1, 60, 127
2, 115040, Note_off_c, 1, 60, 0
2, 115080, Note_on_c, 1, 69, 127
2, 115480, Note_off_c, 1, 69, 0
2, 115520, Note_on_c, 1, 42, 127
2, 115520, Note_on_c, 1, 69, 127
2, 115880, Note_off_c, 1, 42, 0
2, 115920, Note_on_c, 1, 66, 127
2, 116280, Note_off_c, 1, 66, 0
2, 116320, Note_on_c, 1, 48, 127
2, 116640, Note_off_c, 1, 48, 0
2, 116720, Note_on_c, 1, 41, 127
2, 116720, Note_on_c, 1, 57, 127
2, 117280, Note_off_c, 1, 41, 0
2, 117280, Note_off_c, 1, 57, 0
2, 117280, Note_off_c, 1, 69, 0
2, 117320, Note_on_c, 1, 41, 127
2, 117320, Note_on_c, 1, 57, 127
2, 117320, Note_on_c, 1, 69, 127
2, 117560, Note_off_c, 1, 41, 0
2, 117560, Note_off_c, 1, 57, 0
2, 117560, Note_off_c, 1, 69, 0
2, 117600, Note_on_c, 1, 57, 127
2, 118360, Note_off_c, 1, 57, 0
2, 118400, Note_on_c, 1, 59, 127
2, 118760, Note_off_c, 1, 59, 0
2, 118800, Note_on_c, 1, 45, 127
2, 118800, Note_on_c, 1, 57, 127
2, 119160, Note_off_c, 1, 45, 0
2, 119160, Note_off_c, 1, 57, 0
2, 119240, Note_on_c, 1, 45, 127
2, 119240, Note_on_c, 1, 62, 127
2, 119600, Note_off_c, 1, 45, 0
2, 119640, Note_on_c, 1, 45, 127
2, 120000, Note_off_c, 1, 45, 0
2, 120000, Note_off_c, 1, 62, 0
2, 120040, End_track
3, 0, Start_track
3, 0, Title_t, "MIDI"
3, 1536, End_track
0, 0, End_of_file
