0, 0, Header, 1, 3, 192
1, 0, Start_track
1, 0, Time_signature, 4, 2, 24, 8
1, 0, Tempo, 500000
1, 120040, End_track
2, 0, Start_track
2, 0, Text_t, "random instrument: random person i dunno whatev"
2, 0, Title_t, "Track 1"
2, 0, Note_on_c, 1, 40, 127
2, 0, Note_on_c, 1, 48, 127
2, 0, Note_on_c, 1, 56, 127
2, 0, Note_on_c, 1, 60, 127
2, 80, Note_off_c, 1, 40, 0
2, 80, Note_off_c, 1, 48, 0
2, 80, Note_off_c, 1, 56, 0
2, 80, Note_off_c, 1, 60, 0
2, 120, Note_on_c, 1, 40, 127
2, 120, Note_on_c, 1, 48, 127
2, 120, Note_on_c, 1, 56, 127
2, 120, Note_on_c, 1, 60, 127
2, 200, Note_on_c, 1, 35, 127
2, 200, Note_on_c, 1, 39, 127
2, 200, Note_off_c, 1, 40, 0
2, 200, Note_on_c, 1, 47, 127
2, 200, Note_off_c, 1, 48, 0
2, 200, Note_on_c, 1, 50, 127
2, 200, Note_off_c, 1, 56, 0
2, 200, Note_off_c, 1, 60, 0
2, 240, Note_off_c, 1, 35, 0
2, 240, Note_off_c, 1, 39, 0
2, 240, Note_off_c, 1, 47, 0
2, 240, Note_off_c, 1, 50, 0
2, 240, Note_on_c, 1, 51, 127
2, 240, Note_on_c, 1, 55, 127
2, 240, Note_on_c, 1, 58, 127
2, 240, Note_on_c, 1, 63, 127
2, 240, Note_on_c, 1, 82, 127
2, 240, Note_on_c, 1, 91, 127
2, 280, Note_off_c, 1, 51, 0
2, 280, Note_off_c, 1, 55, 0
2, 280, Note_off_c, 1, 58, 0
2, 280, Note_off_c, 1, 63, 0
2, 280, Note_on_c, 1, 76, 127
2, 280, Note_on_c, 1, 80, 127
2, 280, Note_off_c, 1, 82, 0
2, 280, Note_on_c, 1, 83, 127
2, 280, Note_on_c, 1, 89, 127
2, 280, Note_off_c, 1, 91, 0
2, 320, Note_on_c, 1, 58, 127
2, 320, Note_on_c, 1, 63, 127
2, 320, Note_on_c, 1, 66, 127
2, 320, Note_on_c, 1, 72, 127
2, 320, Note_on_c, 1, 75, 127
2, 320, Note_off_c, 1, 76, 0
2, 320, Note_off_c, 1, 80, 0
2, 320, Note_on_c, 1, 82, 127
2, 320, Note_off_c, 1, 83, 0
2, 320, Note_on_c, 1, 87, 127
2, 320, Note_off_c, 1, 89, 0
2, 360, Note_on_c, 1, 51, 127
2, 360, Note_off_c, 1, 58, 0
2, 360, Note_on_c, 1, 59, 127
2, 360, Note_off_c, 1, 63, 0
2, 360, Note_on_c, 1, 69, 127
2, 360, Note_off_c, 1, 72, 0
2, 360, Note_off_c, 1, 82, 0
2, 360, Note_on_c, 1, 85, 127
2, 360, Note_off_c, 1, 87, 0
2, 400, Note_on_c, 1, 56, 127
2, 400, Note_on_c, 1, 58, 127
2, 400, Note_off_c, 1, 59, 0
2, 400, Note_on_c, 1, 62, 127
2, 400, Note_off_c, 1, 66, 0
2, 400, Note_off_c, 1, 69, 0
2, 400, Note_off_c, 1, 75, 0
2, 400, Note_off_c, 1, 85, 0
2, 400, Note_on_c, 1, 87, 127
2, 440, Note_on_c, 1, 50, 127
2, 440, Note_off_c, 1, 51, 0
2, 440, Note_off_c, 1, 56, 0
2, 440, Note_on_c, 1, 57, 127
2, 440, Note_off_c, 1, 58, 0
2, 440, Note_off_c, 1, 62, 0
2, 440, Note_on_c, 1, 65, 127
2, 440, Note_off_c, 1, 87, 0
2, 440, Note_on_c, 1, 93, 127
2, 640, Note_off_c, 1, 50, 0
2, 640, Note_off_c, 1, 57, 0
2, 640, Note_off_c, 1, 65, 0
2, 640, Note_off_c, 1, 93, 0
2, 5240, Note_on_c, 1, 43, 127
2, 5240, Note_on_c, 1, 50, 127
2, 5240, Note_on_c, 1, 60, 127
2, 5240, Note_on_c, 1, 62, 127
2, 5240, Note_on_c, 1, 69, 127
2, 5480, Note_off_c, 1, 43, 0
2, 5480, Note_off_c, 1, 50, 0
2, 5480, Note_off_c, 1, 60, 0
2, 5480, Note_off_c, 1, 62, 0
2, 5480, Note_off_c, 1, 69, 0
2, 6120, Note_on_c, 1, 47, 127
2, 6120, Note_on_c, 1, 56, 127
2, 6120, Note_on_c, 1, 64, 127
2, 6120, Note_on_c, 1, 70, 127
2, 6160, Note_off_c, 1, 47, 0
2, 6160, Note_off_c, 1, 56, 0
2, 6160, Note_off_c, 1, 64, 0
2, 6160, Note_off_c, 1, 70, 0
2, 6200, Note_on_c, 1, 42, 127
2, 6200, Note_on_c, 1, 52, 127
2, 6200, Note_on_c, 1, 59, 127
2, 6200, Note_on_c, 1, 64, 127
2, 6240, Note_off_c, 1, 42, 0
2, 6240, Note_off_c, 1, 52, 0
2, 6240, Note_off_c, 1, 59, 0
2, 6240, Note_off_c, 1, 64, 0
2, 6280, Note_on_c, 1, 55, 127
2, 6280, Note_on_c, 1, 61, 127
2, 6280, Note_on_c, 1, 64, 127
2, 6280, Note_on_c, 1, 69, 127
2, 6280, Note_on_c, 1, 85, 127
2, 6320, Note_off_c, 1, 55, 0
2, 6320, Note_off_c, 1, 61, 0
2, 6320, Note_off_c, 1, 64, 0
2, 6320, Note_off_c, 1, 69, 0
2, 6320, Note_off_c, 1, 85, 0
2, 6360, Note_on_c, 1, 70, 127
2, 6360, Note_on_c, 1, 78, 127
2, 6360, Note_on_c, 1, 88, 127
2, 6400, Note_off_c, 1, 70, 0
2, 6400, Note_off_c, 1, 78, 0
2, 6400, Note_off_c, 1, 88, 0
2, 6440, Note_on_c, 1, 43, 127
2, 6440, Note_on_c, 1, 52, 127
2, 6440, Note_on_c, 1, 55, 127
2, 6440, Note_on_c, 1, 72, 127
2, 6440, Note_on_c, 1, 79, 127
2, 6440, Note_on_c, 1, 84, 127
2, 6480, Note_off_c, 1, 43, 0
2, 6480, Note_off_c, 1, 52, 0
2, 6480, Note_off_c, 1, 55, 0
2, 6480, Note_off_c, 1, 72, 0
2, 6480, Note_off_c, 1, 79, 0
2, 6480, Note_off_c, 1, 84, 0
2, 6520, Note_on_c, 1, 43, 127
2, 6520, Note_on_c, 1, 52, 127
2, 6520, Note_on_c, 1, 55, 127
2, 6520, Note_on_c, 1, 72, 127
2, 6520, Note_on_c, 1, 79, 127
2, 6520, Note_on_c, 1, 84, 127
2, 6560, Note_off_c, 1, 43, 0
2, 6560, Note_off_c, 1, 52, 0
2, 6560, Note_off_c, 1, 55, 0
2, 6560, Note_off_c, 1, 72, 0
2, 6560, Note_off_c, 1, 79, 0
2, 6560, Note_off_c, 1, 84, 0
2, 6600, Note_on_c, 1, 43, 127
2, 6600, Note_on_c, 1, 52, 127
2, 6600, Note_on_c, 1, 55, 127
2, 6600, Note_on_c, 1, 72, 127
2, 6600, Note_on_c, 1, 79, 127
2, 6600, Note_on_c, 1, 84, 127
2, 6640, Note_off_c, 1, 43, 0
2, 6640, Note_off_c, 1, 52, 0
2, 6640, Note_off_c, 1, 55, 0
2, 6640, Note_off_c, 1, 72, 0
2, 6640, Note_off_c, 1, 79, 0
2, 6640, Note_off_c, 1, 84, 0
2, 6680, Note_on_c, 1, 43, 127
2, 6680, Note_on_c, 1, 52, 127
2, 6680, Note_on_c, 1, 55, 127
2, 6680, Note_on_c, 1, 72, 127
2, 6680, Note_on_c, 1, 79, 127
2, 6680, Note_on_c, 1, 84, 127
2, 6720, Note_off_c, 1, 43, 0
2, 6720, Note_off_c, 1, 52, 0
2, 6720, Note_off_c, 1, 55, 0
2, 6720, Note_off_c, 1, 72, 0
2, 6720, Note_off_c, 1, 79, 0
2, 6720, Note_off_c, 1, 84, 0
2, 6760, Note_on_c, 1, 43, 127
2, 6760, Note_on_c, 1, 52, 127
2, 6760, Note_on_c, 1, 55, 127
2, 6760, Note_on_c, 1, 72, 127
2, 6760, Note_on_c, 1, 79, 127
2, 6760, Note_on_c, 1, 84, 127
2, 6800, Note_off_c, 1, 43, 0
2, 6800, Note_off_c, 1, 52, 0
2, 6800, Note_off_c, 1, 55, 0
2, 6800, Note_off_c, 1, 72, 0
2, 6800, Note_off_c, 1, 79, 0
2, 6800, Note_off_c, 1, 84, 0
2, 6840, Note_on_c, 1, 43, 127
2, 6840, Note_on_c, 1, 48, 127
2, 6840, Note_on_c, 1, 55, 127
2, 6840, Note_on_c, 1, 69, 127
2, 6840, Note_on_c, 1, 79, 127
2, 6840, Note_on_c, 1, 81, 127
2, 6880, Note_off_c, 1, 43, 0
2, 6880, Note_off_c, 1, 48, 0
2, 6880, Note_off_c, 1, 55, 0
2, 6880, Note_off_c, 1, 69, 0
2, 6880, Note_off_c, 1, 79, 0
2, 6880, Note_off_c, 1, 81, 0
2, 6920, Note_on_c, 1, 43, 127
2, 6920, Note_on_c, 1, 48, 127
2, 6920, Note_on_c, 1, 55, 127
2, 6920, Note_on_c, 1, 69, 127
2, 6920, Note_on_c, 1, 79, 127
2, 6920, Note_on_c, 1, 81, 127
2, 6960, Note_off_c, 1, 43, 0
2, 6960, Note_off_c, 1, 48, 0
2, 6960, Note_off_c, 1, 55, 0
2, 6960, Note_off_c, 1, 69, 0
2, 6960, Note_off_c, 1, 79, 0
2, 6960, Note_off_c, 1, 81, 0
2, 7000, Note_on_c, 1, 43, 127
2, 7000, Note_on_c, 1, 48, 127
2, 7000, Note_on_c, 1, 55, 127
2, 7000, Note_on_c, 1, 69, 127
2, 7000, Note_on_c, 1, 79, 127
2, 7000, Note_on_c, 1, 81, 127
2, 7040, Note_off_c, 1, 43, 0
2, 7040, Note_off_c, 1, 48, 0
2, 7040, Note_off_c, 1, 55, 0
2, 7040, Note_off_c, 1, 69, 0
2, 7040, Note_off_c, 1, 79, 0
2, 7040, Note_off_c, 1, 81, 0
2, 7080, Note_on_c, 1, 43, 127
2, 7080, Note_on_c, 1, 48, 127
2, 7080, Note_on_c, 1, 55, 127
2, 7080, Note_on_c, 1, 69, 127
2, 7080, Note_on_c, 1, 79, 127
2, 7080, Note_on_c, 1, 81, 127
2, 7120, Note_off_c, 1, 43, 0
2, 7120, Note_off_c, 1, 48, 0
2, 7120, Note_off_c, 1, 55, 0
2, 7120, Note_off_c, 1, 69, 0
2, 7120, Note_off_c, 1, 79, 0
2, 7120, Note_off_c, 1, 81, 0
2, 7160, Note_on_c, 1, 43, 127
2, 7160, Note_on_c, 1, 48, 127
2, 7160, Note_on_c, 1, 55, 127
2, 7160, Note_on_c, 1, 69, 127
2, 7160, Note_on_c, 1, 79, 127
2, 7160, Note_on_c, 1, 81, 127
2, 7200, Note_off_c, 1, 43, 0
2, 7200, Note_off_c, 1, 48, 0
2, 7200, Note_off_c, 1, 55, 0
2, 7200, Note_off_c, 1, 69, 0
2, 7200, Note_off_c, 1, 79, 0
2, 7200, Note_off_c, 1, 81, 0
2, 7240, Note_on_c, 1, 43, 127
2, 7240, Note_on_c, 1, 48, 127
2, 7240, Note_on_c, 1, 55, 127
2, 7240, Note_on_c, 1, 69, 127
2, 7240, Note_on_c, 1, 79, 127
2, 7240, Note_on_c, 1, 81, 127
2, 7280, Note_off_c, 1, 43, 0
2, 7280, Note_off_c, 1, 48, 0
2, 7280, Note_off_c, 1, 55, 0
2, 7280, Note_off_c, 1, 69, 0
2, 7280, Note_off_c, 1, 79, 0
2, 7280, Note_off_c, 1, 81, 0
2, 7320, Note_on_c, 1, 43, 127
2, 7320, Note_on_c, 1, 48, 127
2, 7320, Note_on_c, 1, 55, 127
2, 7320, Note_on_c, 1, 69, 127
2, 7320, Note_on_c, 1, 79, 127
2, 7320, Note_on_c, 1, 81, 127
2, 7360, Note_off_c, 1, 43, 0
2, 7360, Note_off_c, 1, 48, 0
2, 7360, Note_off_c, 1, 55, 0
2, 7360, Note_off_c, 1, 69, 0
2, 7360, Note_off_c, 1, 79, 0
2, 7360, Note_off_c, 1, 81, 0
2, 7400, Note_on_c, 1, 43, 127
2, 7400, Note_on_c, 1, 48, 127
2, 7400, Note_on_c, 1, 55, 127
2, 7400, Note_on_c, 1, 69, 127
2, 7400, Note_on_c, 1, 79, 127
2, 7400, Note_on_c, 1, 81, 127
2, 7440, Note_off_c, 1, 43, 0
2, 7440, Note_off_c, 1, 48, 0
2, 7440, Note_off_c, 1, 55, 0
2, 7440, Note_off_c, 1, 69, 0
2, 7440, Note_off_c, 1, 79, 0
2, 7440, Note_off_c, 1, 81, 0
2, 7480, Note_on_c, 1, 43, 127
2, 7480, Note_on_c, 1, 48, 127
2, 7480, Note_on_c, 1, 55, 127
2, 7480, Note_on_c, 1, 69, 127
2, 7480, Note_on_c, 1, 79, 127
2, 7480, Note_on_c, 1, 81, 127
2, 7520, Note_off_c, 1, 43, 0
2, 7520, Note_off_c, 1, 48, 0
2, 7520, Note_off_c, 1, 55, 0
2, 7520, Note_off_c, 1, 69, 0
2, 7520, Note_off_c, 1, 79, 0
2, 7520, Note_off_c, 1, 81, 0
2, 7560, Note_on_c, 1, 43, 127
2, 7560, Note_on_c, 1, 48, 127
2, 7560, Note_on_c, 1, 55, 127
2, 7560, Note_on_c, 1, 69, 127
2, 7560, Note_on_c, 1, 79, 127
2, 7560, Note_on_c, 1, 81, 127
2, 7600, Note_off_c, 1, 43, 0
2, 7600, Note_off_c, 1, 48, 0
2, 7600, Note_off_c, 1, 55, 0
2, 7600, Note_off_c, 1, 69, 0
2, 7600, Note_off_c, 1, 79, 0
2, 7600, Note_off_c, 1, 81, 0
2, 7640, Note_on_c, 1, 43, 127
2, 7640, Note_on_c, 1, 48, 127
2, 7640, Note_on_c, 1, 55, 127
2, 7640, Note_on_c, 1, 69, 127
2, 7640, Note_on_c, 1, 79, 127
2, 7640, Note_on_c, 1, 81, 127
2, 7680, Note_off_c, 1, 43, 0
2, 7680, Note_off_c, 1, 48, 0
2, 7680, Note_off_c, 1, 55, 0
2, 7680, Note_off_c, 1, 69, 0
2, 7680, Note_off_c, 1, 79, 0
2, 7680, Note_off_c, 1, 81, 0
2, 7720, Note_on_c, 1, 43, 127
2, 7720, Note_on_c, 1, 48, 127
2, 7720, Note_on_c, 1, 55, 127
2, 7720, Note_on_c, 1, 69, 127
2, 7720, Note_on_c, 1, 79, 127
2, 7720, Note_on_c, 1, 81, 127
2, 7760, Note_off_c, 1, 43, 0
2, 7760, Note_off_c, 1, 48, 0
2, 7760, Note_off_c, 1, 55, 0
2, 7760, Note_off_c, 1, 69, 0
2, 7760, Note_off_c, 1, 79, 0
2, 7760, Note_off_c, 1, 81, 0
2, 7800, Note_on_c, 1, 43, 127
2, 7800, Note_on_c, 1, 48, 127
2, 7800, Note_on_c, 1, 55, 127
2, 7800, Note_on_c, 1, 69, 127
2, 7800, Note_on_c, 1, 79, 127
2, 7800, Note_on_c, 1, 81, 127
2, 7840, Note_off_c, 1, 43, 0
2, 7840, Note_off_c, 1, 48, 0
2, 7840, Note_off_c, 1, 55, 0
2, 7840, Note_off_c, 1, 69, 0
2, 7840, Note_off_c, 1, 79, 0
2, 7840, Note_off_c, 1, 81, 0
2, 7920, Note_on_c, 1, 39, 127
2, 7920, Note_on_c, 1, 42, 127
2, 7920, Note_on_c, 1, 51, 127
2, 7920, Note_on_c, 1, 59, 127
2, 7960, Note_off_c, 1, 39, 0
2, 7960, Note_off_c, 1, 42, 0
2, 7960, Note_off_c, 1, 51, 0
2, 7960, Note_off_c, 1, 59, 0
2, 8000, Note_on_c, 1, 40, 127
2, 8000, Note_on_c, 1, 44, 127
2, 8000, Note_on_c, 1, 47, 127
2, 8000, Note_on_c, 1, 52, 127
2, 8000, Note_on_c, 1, 64, 127
2, 8000, Note_on_c, 1, 68, 127
2, 8000, Note_on_c, 1, 71, 127
2, 8000, Note_on_c, 1, 76, 127
2, 8040, Note_off_c, 1, 40, 0
2, 8040, Note_off_c, 1, 44, 0
2, 8040, Note_off_c, 1, 47, 0
2, 8040, Note_off_c, 1, 52, 0
2, 8040, Note_off_c, 1, 64, 0
2, 8040, Note_off_c, 1, 68, 0
2, 8040, Note_off_c, 1, 71, 0
2, 8040, Note_off_c, 1, 76, 0
2, 8120, Note_on_c, 1, 35, 127
2, 8120, Note_on_c, 1, 47, 127
2, 8120, Note_on_c, 1, 62, 127
2, 8120, Note_on_c, 1, 66, 127
2, 8120, Note_on_c, 1, 71, 127
2, 8120, Note_on_c, 1, 74, 127
2, 8160, Note_off_c, 1, 35, 0
2, 8160, Note_off_c, 1, 47, 0
2, 8160, Note_off_c, 1, 62, 0
2, 8160, Note_off_c, 1, 66, 0
2, 8160, Note_off_c, 1, 71, 0
2, 8160, Note_off_c, 1, 74, 0
2, 8440, Note_on_c, 1, 81, 127
2, 8440, Note_on_c, 1, 84, 127
2, 8440, Note_on_c, 1, 88, 127
2, 8480, Note_off_c, 1, 81, 0
2, 8480, Note_off_c, 1, 84, 0
2, 8480, Note_off_c, 1, 88, 0
2, 8520, Note_on_c, 1, 84, 127
2, 8520, Note_on_c, 1, 88, 127
2, 8560, Note_off_c, 1, 84, 0
2, 8560, Note_off_c, 1, 88, 0
2, 8600, Note_on_c, 1, 81, 127
2, 8600, Note_on_c, 1, 84, 127
2, 8600, Note_on_c, 1, 88, 127
2, 8640, Note_off_c, 1, 81, 0
2, 8640, Note_off_c, 1, 84, 0
2, 8640, Note_off_c, 1, 88, 0
2, 8680, Note_on_c, 1, 84, 127
2, 8680, Note_on_c, 1, 88, 127
2, 8720, Note_off_c, 1, 84, 0
2, 8720, Note_off_c, 1, 88, 0
2, 8760, Note_on_c, 1, 93, 127
2, 8760, Note_on_c, 1, 96, 127
2, 8840, Note_off_c, 1, 93, 0
2, 8840, Note_off_c, 1, 96, 0
2, 9400, Note_on_c, 1, 76, 127
2, 9400, Note_on_c, 1, 80, 127
2, 9440, Note_off_c, 1, 76, 0
2, 9440, Note_on_c, 1, 78, 127
2, 9440, Note_off_c, 1, 80, 0
2, 9440, Note_on_c, 1, 88, 127
2, 9480, Note_on_c, 1, 76, 127
2, 9480, Note_off_c, 1, 78, 0
2, 9480, Note_off_c, 1, 88, 0
2, 9520, Note_off_c, 1, 76, 0
2, 9520, Note_on_c, 1, 81, 127
2, 9520, Note_on_c, 1, 85, 127
2, 9640, Note_off_c, 1, 81, 0
2, 9640, Note_off_c, 1, 85, 0
2, 9680, Note_on_c, 1, 75, 127
2, 9680, Note_on_c, 1, 79, 127
2, 9720, Note_off_c, 1, 75, 0
2, 9720, Note_off_c, 1, 79, 0
2, 9760, Note_on_c, 1, 76, 127
2, 9760, Note_on_c, 1, 79, 127
2, 9800, Note_off_c, 1, 76, 0
2, 9800, Note_off_c, 1, 79, 0
2, 9840, Note_on_c, 1, 73, 127
2, 9840, Note_on_c, 1, 76, 127
2, 9880, Note_off_c, 1, 73, 0
2, 9880, Note_off_c, 1, 76, 0
2, 9920, Note_on_c, 1, 73, 127
2, 9920, Note_on_c, 1, 76, 127
2, 9960, Note_off_c, 1, 73, 0
2, 9960, Note_off_c, 1, 76, 0
2, 10040, Note_on_c, 1, 73, 127
2, 10040, Note_on_c, 1, 76, 127
2, 10080, Note_off_c, 1, 73, 0
2, 10080, Note_off_c, 1, 76, 0
2, 10480, Note_on_c, 1, 69, 127
2, 10480, Note_on_c, 1, 73, 127
2, 10560, Note_off_c, 1, 69, 0
2, 10560, Note_off_c, 1, 73, 0
2, 10600, Note_on_c, 1, 69, 127
2, 10600, Note_on_c, 1, 73, 127
2, 10680, Note_off_c, 1, 69, 0
2, 10680, Note_off_c, 1, 73, 0
2, 10760, Note_on_c, 1, 69, 127
2, 10760, Note_on_c, 1, 73, 127
2, 10800, Note_off_c, 1, 69, 0
2, 10800, Note_off_c, 1, 73, 0
2, 10840, Note_on_c, 1, 69, 127
2, 10840, Note_on_c, 1, 73, 127
2, 10880, Note_off_c, 1, 69, 0
2, 10880, Note_off_c, 1, 73, 0
2, 10920, Note_on_c, 1, 69, 127
2, 10920, Note_on_c, 1, 73, 127
2, 10960, Note_off_c, 1, 69, 0
2, 10960, Note_off_c, 1, 73, 0
2, 11000, Note_on_c, 1, 66, 127
2, 11000, Note_on_c, 1, 69, 127
2, 11040, Note_off_c, 1, 66, 0
2, 11040, Note_off_c, 1, 69, 0
2, 11120, Note_on_c, 1, 64, 127
2, 11120, Note_on_c, 1, 69, 127
2, 11160, Note_off_c, 1, 64, 0
2, 11160, Note_off_c, 1, 69, 0
2, 11320, Note_on_c, 1, 66, 127
2, 11320, Note_on_c, 1, 69, 127
2, 11360, Note_off_c, 1, 66, 0
2, 11360, Note_off_c, 1, 69, 0
2, 13400, Note_on_c, 1, 37, 127
2, 13400, Note_on_c, 1, 49, 127
2, 14040, Note_off_c, 1, 37, 0
2, 14040, Note_off_c, 1, 49, 0
2, 14960, Note_on_c, 1, 35, 127
2, 15040, Note_off_c, 1, 35, 0
2, 16920, Note_on_c, 1, 57, 127
2, 16920, Note_on_c, 1, 73, 127
2, 17200, Note_off_c, 1, 57, 0
2, 17200, Note_off_c, 1, 73, 0
2, 17240, Note_on_c, 1, 62, 127
2, 17240, Note_on_c, 1, 74, 127
2, 17560, Note_off_c, 1, 62, 0
2, 17560, Note_off_c, 1, 74, 0
2, 17600, Note_on_c, 1, 52, 127
2, 17880, Note_off_c, 1, 52, 0
2, 17920, Note_on_c, 1, 57, 127
2, 17920, Note_on_c, 1, 73, 127
2, 18240, Note_off_c, 1, 57, 0
2, 18240, Note_off_c, 1, 73, 0
2, 18280, Note_on_c, 1, 59, 127
2, 18280, Note_on_c, 1, 74, 127
2, 18560, Note_off_c, 1, 59, 0
2, 18560, Note_off_c, 1, 74, 0
2, 18600, Note_on_c, 1, 61, 127
2, 18600, Note_on_c, 1, 69, 127
2, 18920, Note_off_c, 1, 61, 0
2, 18920, Note_off_c, 1, 69, 0
2, 18960, Note_on_c, 1, 45, 127
2, 18960, Note_on_c, 1, 76, 127
2, 19280, Note_off_c, 1, 45, 0
2, 19280, Note_off_c, 1, 76, 0
2, 19320, Note_on_c, 1, 76, 127
2, 19360, Note_on_c, 1, 57, 127
2, 19640, Note_off_c, 1, 57, 0
2, 19640, Note_off_c, 1, 76, 0
2, 19680, Note_on_c, 1, 50, 127
2, 19680, Note_on_c, 1, 77, 127
2, 20000, Note_off_c, 1, 50, 0
2, 20040, Note_on_c, 1, 57, 127
2, 20320, Note_off_c, 1, 57, 0
2, 20360, Note_on_c, 1, 38, 127
2, 20680, Note_off_c, 1, 38, 0
2, 20680, Note_off_c, 1, 77, 0
2, 20720, Note_on_c, 1, 53, 127
2, 20720, Note_on_c, 1, 74, 127
2, 21040, Note_off_c, 1, 53, 0
2, 21080, Note_on_c, 1, 45, 127
2, 21400, Note_off_c, 1, 45, 0
2, 21400, Note_off_c, 1, 74, 0
2, 21480, Note_on_c, 1, 57, 127
2, 21480, Note_on_c, 1, 72, 127
2, 21760, Note_off_c, 1, 57, 0
2, 21760, Note_off_c, 1, 72, 0
2, 21800, Note_on_c, 1, 51, 127
2, 21800, Note_on_c, 1, 69, 127
2, 22120, Note_off_c, 1, 51, 0
2, 22160, Note_on_c, 1, 62, 127
2, 22480, Note_off_c, 1, 62, 0
2, 22520, Note_on_c, 1, 63, 127
2, 22800, Note_off_c, 1, 63, 0
2, 22840, Note_on_c, 1, 50, 127
2, 23160, Note_off_c, 1, 50, 0
2, 23200, Note_on_c, 1, 50, 127
2, 23520, Note_off_c, 1, 50, 0
2, 23520, Note_off_c, 1, 69, 0
2, 23600, Note_on_c, 1, 50, 127
2, 23600, Note_on_c, 1, 66, 127
2, 23880, Note_off_c, 1, 50, 0
2, 23920, Note_on_c, 1, 60, 127
2, 24240, Note_off_c, 1, 60, 0
2, 24280, Note_on_c, 1, 57, 127
2, 24600, Note_off_c, 1, 57, 0
2, 24600, Note_off_c, 1, 66, 0
2, 24640, Note_on_c, 1, 50, 127
2, 24640, Note_on_c, 1, 65, 127
2, 24920, Note_off_c, 1, 50, 0
2, 24920, Note_off_c, 1, 65, 0
2, 24960, Note_on_c, 1, 55, 127
2, 24960, Note_on_c, 1, 69, 127
2, 25280, Note_off_c, 1, 55, 0
2, 25320, Note_on_c, 1, 60, 127
2, 25640, Note_off_c, 1, 60, 0
2, 25680, Note_off_c, 1, 69, 0
2, 25720, Note_on_c, 1, 62, 127
2, 25720, Note_on_c, 1, 69, 127
2, 26000, Note_off_c, 1, 62, 0
2, 26000, Note_off_c, 1, 69, 0
2, 26040, Note_on_c, 1, 57, 127
2, 26040, Note_on_c, 1, 77, 127
2, 26360, Note_off_c, 1, 57, 0
2, 26360, Note_off_c, 1, 77, 0
2, 26400, Note_on_c, 1, 67, 127
2, 26400, Note_on_c, 1, 69, 127
2, 26720, Note_off_c, 1, 67, 0
2, 26720, Note_off_c, 1, 69, 0
2, 26760, Note_on_c, 1, 62, 127
2, 26760, Note_on_c, 1, 66, 127
2, 26760, Note_on_c, 1, 69, 127
2, 27400, Note_off_c, 1, 62, 0
2, 27400, Note_off_c, 1, 66, 0
2, 27400, Note_off_c, 1, 69, 0
2, 27440, Note_on_c, 1, 62, 127
2, 27440, Note_on_c, 1, 66, 127
2, 27440, Note_on_c, 1, 74, 127
2, 27720, Note_off_c, 1, 62, 0
2, 27720, Note_off_c, 1, 66, 0
2, 27720, Note_off_c, 1, 74, 0
2, 27760, Note_on_c, 1, 62, 127
2, 27760, Note_on_c, 1, 66, 127
2, 27760, Note_on_c, 1, 74, 127
2, 27800, Note_off_c, 1, 62, 0
2, 27800, Note_off_c, 1, 66, 0
2, 27800, Note_off_c, 1, 74, 0
2, 27840, Note_on_c, 1, 61, 127
2, 27840, Note_on_c, 1, 64, 127
2, 27840, Note_on_c, 1, 76, 127
2, 28120, Note_off_c, 1, 61, 0
2, 28120, Note_off_c, 1, 64, 0
2, 28120, Note_off_c, 1, 76, 0
2, 28160, Note_on_c, 1, 62, 127
2, 28160, Note_on_c, 1, 66, 127
2, 28160, Note_on_c, 1, 78, 127
2, 28480, Note_off_c, 1, 62, 0
2, 28480, Note_off_c, 1, 66, 0
2, 28480, Note_off_c, 1, 78, 0
2, 28520, Note_on_c, 1, 52, 127
2, 28520, Note_on_c, 1, 74, 127
2, 28520, Note_on_c, 1, 78, 127
2, 28800, Note_off_c, 1, 52, 0
2, 28800, Note_off_c, 1, 74, 0
2, 28800, Note_off_c, 1, 78, 0
2, 28840, Note_on_c, 1, 66, 127
2, 28840, Note_on_c, 1, 74, 127
2, 28840, Note_on_c, 1, 81, 127
2, 29160, Note_off_c, 1, 66, 0
2, 29160, Note_off_c, 1, 74, 0
2, 29160, Note_off_c, 1, 81, 0
2, 29200, Note_on_c, 1, 69, 127
2, 29200, Note_on_c, 1, 73, 127
2, 29200, Note_on_c, 1, 81, 127
2, 29480, Note_off_c, 1, 69, 0
2, 29480, Note_off_c, 1, 73, 0
2, 29480, Note_off_c, 1, 81, 0
2, 29600, Note_on_c, 1, 66, 127
2, 29600, Note_on_c, 1, 69, 127
2, 29600, Note_on_c, 1, 74, 127
2, 29600, Note_on_c, 1, 78, 127
2, 29880, Note_off_c, 1, 66, 0
2, 29880, Note_off_c, 1, 69, 0
2, 29880, Note_off_c, 1, 74, 0
2, 29880, Note_off_c, 1, 78, 0
2, 29920, Note_on_c, 1, 66, 127
2, 29920, Note_on_c, 1, 69, 127
2, 29920, Note_on_c, 1, 74, 127
2, 29920, Note_on_c, 1, 78, 127
2, 30240, Note_off_c, 1, 66, 0
2, 30240, Note_off_c, 1, 69, 0
2, 30240, Note_off_c, 1, 74, 0
2, 30240, Note_off_c, 1, 78, 0
2, 30280, Note_on_c, 1, 47, 127
2, 30280, Note_on_c, 1, 63, 127
2, 30280, Note_on_c, 1, 69, 127
2, 30280, Note_on_c, 1, 78, 127
2, 30560, Note_off_c, 1, 47, 0
2, 30560, Note_off_c, 1, 63, 0
2, 30560, Note_off_c, 1, 69, 0
2, 30560, Note_off_c, 1, 78, 0
2, 30600, Note_on_c, 1, 47, 127
2, 30600, Note_on_c, 1, 63, 127
2, 30600, Note_on_c, 1, 69, 127
2, 30600, Note_on_c, 1, 78, 127
2, 30920, Note_off_c, 1, 47, 0
2, 30920, Note_off_c, 1, 63, 0
2, 30920, Note_off_c, 1, 69, 0
2, 30920, Note_off_c, 1, 78, 0
2, 30960, Note_on_c, 1, 47, 127
2, 30960, Note_on_c, 1, 63, 127
2, 30960, Note_on_c, 1, 69, 127
2, 30960, Note_on_c, 1, 78, 127
2, 31240, Note_off_c, 1, 78, 0
2, 31280, Note_off_c, 1, 47, 0
2, 31280, Note_off_c, 1, 63, 0
2, 31280, Note_off_c, 1, 69, 0
2, 31320, Note_on_c, 1, 47, 127
2, 31320, Note_on_c, 1, 63, 127
2, 31320, Note_on_c, 1, 69, 127
2, 31320, Note_on_c, 1, 78, 127
2, 31600, Note_off_c, 1, 47, 0
2, 31600, Note_off_c, 1, 63, 0
2, 31600, Note_off_c, 1, 69, 0
2, 31600, Note_off_c, 1, 78, 0
2, 31680, Note_on_c, 1, 54, 127
2, 31680, Note_on_c, 1, 64, 127
2, 31680, Note_on_c, 1, 70, 127
2, 31680, Note_on_c, 1, 73, 127
2, 31960, Note_off_c, 1, 54, 0
2, 31960, Note_off_c, 1, 64, 0
2, 31960, Note_off_c, 1, 70, 0
2, 31960, Note_off_c, 1, 73, 0
2, 32040, Note_on_c, 1, 59, 127
2, 32040, Note_on_c, 1, 66, 127
2, 32040, Note_on_c, 1, 71, 127
2, 32040, Note_on_c, 1, 75, 127
2, 32360, Note_off_c, 1, 59, 0
2, 32360, Note_off_c, 1, 66, 0
2, 32360, Note_off_c, 1, 71, 0
2, 32360, Note_off_c, 1, 75, 0
2, 32400, Note_on_c, 1, 54, 127
2, 32400, Note_on_c, 1, 66, 127
2, 32400, Note_on_c, 1, 70, 127
2, 32400, Note_on_c, 1, 73, 127
2, 32680, Note_off_c, 1, 54, 0
2, 32680, Note_off_c, 1, 66, 0
2, 32680, Note_off_c, 1, 70, 0
2, 32680, Note_off_c, 1, 73, 0
2, 32720, Note_on_c, 1, 59, 127
2, 32720, Note_on_c, 1, 66, 127
2, 32720, Note_on_c, 1, 71, 127
2, 32720, Note_on_c, 1, 75, 127
2, 33040, Note_off_c, 1, 59, 0
2, 33040, Note_off_c, 1, 66, 0
2, 33040, Note_off_c, 1, 71, 0
2, 33040, Note_off_c, 1, 75, 0
2, 33080, Note_on_c, 1, 55, 127
2, 33080, Note_on_c, 1, 67, 127
2, 33080, Note_on_c, 1, 71, 127
2, 33080, Note_on_c, 1, 75, 127
2, 33200, Note_off_c, 1, 71, 0
2, 33200, Note_off_c, 1, 75, 0
2, 33240, Note_on_c, 1, 71, 127
2, 33240, Note_on_c, 1, 75, 127
2, 33280, Note_off_c, 1, 71, 0
2, 33280, Note_off_c, 1, 75, 0
2, 33320, Note_on_c, 1, 71, 127
2, 33320, Note_on_c, 1, 75, 127
2, 33360, Note_off_c, 1, 55, 0
2, 33360, Note_off_c, 1, 67, 0
2, 33360, Note_off_c, 1, 71, 0
2, 33360, Note_off_c, 1, 75, 0
2, 33400, Note_on_c, 1, 54, 127
2, 33400, Note_on_c, 1, 65, 127
2, 33400, Note_on_c, 1, 68, 127
2, 33400, Note_on_c, 1, 74, 127
2, 33600, Note_off_c, 1, 54, 0
2, 33600, Note_off_c, 1, 65, 0
2, 33600, Note_off_c, 1, 68, 0
2, 33600, Note_off_c, 1, 74, 0
2, 33640, Note_on_c, 1, 54, 127
2, 33640, Note_on_c, 1, 65, 127
2, 33640, Note_on_c, 1, 68, 127
2, 33640, Note_on_c, 1, 74, 127
2, 33760, Note_off_c, 1, 54, 0
2, 33760, Note_off_c, 1, 65, 0
2, 33760, Note_off_c, 1, 68, 0
2, 33760, Note_off_c, 1, 74, 0
2, 33800, Note_on_c, 1, 54, 127
2, 33800, Note_on_c, 1, 65, 127
2, 33800, Note_on_c, 1, 68, 127
2, 33800, Note_on_c, 1, 74, 127
2, 34080, Note_off_c, 1, 54, 0
2, 34080, Note_off_c, 1, 65, 0
2, 34080, Note_off_c, 1, 68, 0
2, 34080, Note_off_c, 1, 74, 0
2, 34120, Note_on_c, 1, 54, 127
2, 34120, Note_on_c, 1, 65, 127
2, 34120, Note_on_c, 1, 68, 127
2, 34120, Note_on_c, 1, 74, 127
2, 34440, Note_off_c, 1, 65, 0
2, 34440, Note_off_c, 1, 68, 0
2, 34480, Note_on_c, 1, 64, 127
2, 34480, Note_on_c, 1, 67, 127
2, 34480, Note_on_c, 1, 70, 127
2, 34600, Note_off_c, 1, 74, 0
2, 34640, Note_on_c, 1, 74, 127
2, 34760, Note_off_c, 1, 64, 0
2, 34760, Note_off_c, 1, 67, 0
2, 34760, Note_off_c, 1, 70, 0
2, 34760, Note_off_c, 1, 74, 0
2, 34800, Note_on_c, 1, 61, 127
2, 34800, Note_on_c, 1, 66, 127
2, 34800, Note_on_c, 1, 70, 127
2, 35040, Note_off_c, 1, 54, 0
2, 35040, Note_off_c, 1, 61, 0
2, 35040, Note_off_c, 1, 66, 0
2, 35040, Note_off_c, 1, 70, 0
2, 35080, Note_on_c, 1, 48, 127
2, 35080, Note_on_c, 1, 50, 127
2, 35080, Note_on_c, 1, 54, 127
2, 35080, Note_on_c, 1, 60, 127
2, 35080, Note_on_c, 1, 72, 127
2, 35080, Note_on_c, 1, 74, 127
2, 35080, Note_on_c, 1, 78, 127
2, 35080, Note_on_c, 1, 84, 127
2, 35120, Note_off_c, 1, 48, 0
2, 35120, Note_off_c, 1, 50, 0
2, 35120, Note_off_c, 1, 54, 0
2, 35120, Note_off_c, 1, 60, 0
2, 35120, Note_off_c, 1, 72, 0
2, 35120, Note_off_c, 1, 74, 0
2, 35120, Note_off_c, 1, 78, 0
2, 35120, Note_off_c, 1, 84, 0
2, 35160, Note_on_c, 1, 48, 127
2, 35160, Note_on_c, 1, 50, 127
2, 35160, Note_on_c, 1, 54, 127
2, 35160, Note_on_c, 1, 60, 127
2, 35160, Note_on_c, 1, 72, 127
2, 35160, Note_on_c, 1, 74, 127
2, 35160, Note_on_c, 1, 78, 127
2, 35160, Note_on_c, 1, 84, 127
2, 35440, Note_off_c, 1, 48, 0
2, 35440, Note_off_c, 1, 50, 0
2, 35440, Note_off_c, 1, 54, 0
2, 35440, Note_off_c, 1, 60, 0
2, 35440, Note_off_c, 1, 72, 0
2, 35440, Note_off_c, 1, 74, 0
2, 35440, Note_off_c, 1, 78, 0
2, 35440, Note_off_c, 1, 84, 0
2, 35480, Note_on_c, 1, 59, 127
2, 35480, Note_on_c, 1, 62, 127
2, 35480, Note_on_c, 1, 66, 127
2, 35480, Note_on_c, 1, 83, 127
2, 35520, Note_off_c, 1, 83, 0
2, 35520, Note_on_c, 1, 86, 127
2, 35560, Note_on_c, 1, 83, 127
2, 35560, Note_off_c, 1, 86, 0
2, 35600, Note_off_c, 1, 59, 0
2, 35600, Note_off_c, 1, 62, 0
2, 35600, Note_off_c, 1, 66, 0
2, 35600, Note_off_c, 1, 83, 0
2, 35640, Note_on_c, 1, 59, 127
2, 35640, Note_on_c, 1, 62, 127
2, 35640, Note_on_c, 1, 66, 127
2, 35640, Note_on_c, 1, 83, 127
2, 35680, Note_off_c, 1, 83, 0
2, 35720, Note_on_c, 1, 83, 127
2, 35840, Note_off_c, 1, 59, 0
2, 35840, Note_off_c, 1, 62, 0
2, 35840, Note_off_c, 1, 66, 0
2, 35840, Note_off_c, 1, 83, 0
2, 35880, Note_on_c, 1, 59, 127
2, 35880, Note_on_c, 1, 62, 127
2, 35880, Note_on_c, 1, 66, 127
2, 35880, Note_on_c, 1, 83, 127
2, 35920, Note_off_c, 1, 83, 0
2, 35960, Note_on_c, 1, 78, 127
2, 36000, Note_off_c, 1, 78, 0
2, 36040, Note_on_c, 1, 83, 127
2, 36080, Note_off_c, 1, 83, 0
2, 36120, Note_on_c, 1, 78, 127
2, 36160, Note_off_c, 1, 78, 0
2, 36240, Note_on_c, 1, 74, 127
2, 36280, Note_off_c, 1, 74, 0
2, 36320, Note_on_c, 1, 74, 127
2, 36360, Note_off_c, 1, 74, 0
2, 36400, Note_on_c, 1, 47, 127
2, 36440, Note_off_c, 1, 47, 0
2, 36480, Note_on_c, 1, 74, 127
2, 36520, Note_off_c, 1, 59, 0
2, 36520, Note_off_c, 1, 62, 0
2, 36520, Note_off_c, 1, 66, 0
2, 36520, Note_off_c, 1, 74, 0
2, 36560, Note_on_c, 1, 59, 127
2, 36560, Note_on_c, 1, 62, 127
2, 36560, Note_on_c, 1, 66, 127
2, 36560, Note_on_c, 1, 71, 127
2, 36600, Note_off_c, 1, 71, 0
2, 36640, Note_on_c, 1, 78, 127
2, 36680, Note_off_c, 1, 78, 0
2, 36720, Note_on_c, 1, 74, 127
2, 36760, Note_off_c, 1, 74, 0
2, 36800, Note_on_c, 1, 71, 127
2, 36880, Note_off_c, 1, 59, 0
2, 36880, Note_off_c, 1, 62, 0
2, 36880, Note_off_c, 1, 66, 0
2, 36880, Note_off_c, 1, 71, 0
2, 36920, Note_on_c, 1, 59, 127
2, 36920, Note_on_c, 1, 62, 127
2, 36920, Note_on_c, 1, 66, 127
2, 36920, Note_on_c, 1, 71, 127
2, 36960, Note_off_c, 1, 71, 0
2, 37000, Note_on_c, 1, 71, 127
2, 37040, Note_off_c, 1, 71, 0
2, 37080, Note_on_c, 1, 74, 127
2, 37120, Note_off_c, 1, 74, 0
2, 37160, Note_on_c, 1, 71, 127
2, 37240, Note_off_c, 1, 59, 0
2, 37240, Note_off_c, 1, 62, 0
2, 37240, Note_off_c, 1, 66, 0
2, 37240, Note_off_c, 1, 71, 0
2, 37280, Note_on_c, 1, 59, 127
2, 37280, Note_on_c, 1, 62, 127
2, 37280, Note_on_c, 1, 66, 127
2, 37280, Note_on_c, 1, 71, 127
2, 37400, Note_off_c, 1, 59, 0
2, 37400, Note_off_c, 1, 62, 0
2, 37400, Note_off_c, 1, 66, 0
2, 37400, Note_off_c, 1, 71, 0
2, 37480, Note_on_c, 1, 47, 127
2, 37480, Note_on_c, 1, 59, 127
2, 37480, Note_on_c, 1, 71, 127
2, 37480, Note_on_c, 1, 79, 127
2, 37800, Note_off_c, 1, 47, 0
2, 37800, Note_off_c, 1, 59, 0
2, 37800, Note_off_c, 1, 71, 0
2, 37800, Note_off_c, 1, 79, 0
2, 37840, Note_on_c, 1, 47, 127
2, 37840, Note_on_c, 1, 59, 127
2, 37840, Note_on_c, 1, 71, 127
2, 37840, Note_on_c, 1, 79, 127
2, 38160, Note_off_c, 1, 47, 0
2, 38160, Note_off_c, 1, 59, 0
2, 38160, Note_off_c, 1, 71, 0
2, 38160, Note_off_c, 1, 79, 0
2, 38200, Note_on_c, 1, 47, 127
2, 38200, Note_on_c, 1, 59, 127
2, 38200, Note_on_c, 1, 71, 127
2, 38200, Note_on_c, 1, 79, 127
2, 38840, Note_off_c, 1, 47, 0
2, 38840, Note_off_c, 1, 59, 0
2, 38840, Note_off_c, 1, 71, 0
2, 38840, Note_off_c, 1, 79, 0
2, 38880, Note_on_c, 1, 59, 127
2, 38880, Note_on_c, 1, 65, 127
2, 38880, Note_on_c, 1, 74, 127
2, 38880, Note_on_c, 1, 80, 127
2, 39160, Note_off_c, 1, 59, 0
2, 39160, Note_off_c, 1, 65, 0
2, 39160, Note_off_c, 1, 80, 0
2, 39200, Note_off_c, 1, 74, 0
2, 39240, Note_on_c, 1, 54, 127
2, 39240, Note_on_c, 1, 58, 127
2, 39240, Note_on_c, 1, 61, 127
2, 39240, Note_on_c, 1, 66, 127
2, 39240, Note_on_c, 1, 70, 127
2, 39240, Note_on_c, 1, 73, 127
2, 39240, Note_on_c, 1, 78, 127
2, 39560, Note_off_c, 1, 54, 0
2, 39560, Note_off_c, 1, 58, 0
2, 39560, Note_off_c, 1, 61, 0
2, 39560, Note_off_c, 1, 66, 0
2, 39560, Note_off_c, 1, 70, 0
2, 39560, Note_off_c, 1, 73, 0
2, 39560, Note_off_c, 1, 78, 0
2, 39600, Note_on_c, 1, 54, 127
2, 39600, Note_on_c, 1, 58, 127
2, 39600, Note_on_c, 1, 61, 127
2, 39600, Note_on_c, 1, 66, 127
2, 39640, Note_on_c, 1, 70, 127
2, 39640, Note_on_c, 1, 73, 127
2, 39640, Note_on_c, 1, 78, 127
2, 39760, Note_off_c, 1, 70, 0
2, 39760, Note_off_c, 1, 73, 0
2, 39760, Note_off_c, 1, 78, 0
2, 39800, Note_on_c, 1, 70, 127
2, 39800, Note_on_c, 1, 73, 127
2, 39800, Note_on_c, 1, 78, 127
2, 39920, Note_off_c, 1, 54, 0
2, 39920, Note_off_c, 1, 58, 0
2, 39920, Note_off_c, 1, 61, 0
2, 39920, Note_off_c, 1, 66, 0
2, 39920, Note_off_c, 1, 70, 0
2, 39920, Note_off_c, 1, 73, 0
2, 39920, Note_off_c, 1, 78, 0
2, 39960, Note_on_c, 1, 29, 127
2, 39960, Note_on_c, 1, 53, 127
2, 39960, Note_on_c, 1, 56, 127
2, 39960, Note_on_c, 1, 63, 127
2, 39960, Note_on_c, 1, 75, 127
2, 40000, Note_off_c, 1, 29, 0
2, 40000, Note_off_c, 1, 53, 0
2, 40000, Note_off_c, 1, 56, 0
2, 40000, Note_off_c, 1, 63, 0
2, 40000, Note_on_c, 1, 68, 127
2, 40000, Note_on_c, 1, 80, 127
2, 40000, Note_on_c, 1, 83, 127
2, 40000, Note_on_c, 1, 87, 127
2, 40000, Note_on_c, 1, 92, 127
2, 40040, Note_on_c, 1, 44, 127
2, 40040, Note_on_c, 1, 51, 127
2, 40040, Note_on_c, 1, 60, 127
2, 40040, Note_off_c, 1, 68, 0
2, 40040, Note_off_c, 1, 75, 0
2, 40040, Note_off_c, 1, 80, 0
2, 40040, Note_off_c, 1, 83, 0
2, 40040, Note_off_c, 1, 87, 0
2, 40040, Note_on_c, 1, 90, 127
2, 40040, Note_off_c, 1, 92, 0
2, 40040, Note_on_c, 1, 99, 127
2, 40040, Note_on_c, 1, 102, 127
2, 40080, Note_on_c, 1, 32, 127
2, 40080, Note_on_c, 1, 36, 127
2, 40080, Note_on_c, 1, 39, 127
2, 40080, Note_off_c, 1, 51, 0
2, 40080, Note_on_c, 1, 63, 127
2, 40080, Note_on_c, 1, 68, 127
2, 40080, Note_off_c, 1, 90, 0
2, 40080, Note_off_c, 1, 99, 0
2, 40080, Note_off_c, 1, 102, 0
2, 40120, Note_off_c, 1, 32, 0
2, 40120, Note_off_c, 1, 36, 0
2, 40120, Note_off_c, 1, 39, 0
2, 40120, Note_off_c, 1, 44, 0
2, 40120, Note_on_c, 1, 57, 127
2, 40120, Note_off_c, 1, 60, 0
2, 40120, Note_on_c, 1, 62, 127
2, 40120, Note_off_c, 1, 63, 0
2, 40120, Note_on_c, 1, 65, 127
2, 40120, Note_on_c, 1, 104, 127
2, 40120, Note_on_c, 1, 105, 127
2, 40160, Note_on_c, 1, 50, 127
2, 40160, Note_on_c, 1, 56, 127
2, 40160, Note_off_c, 1, 57, 0
2, 40160, Note_on_c, 1, 58, 127
2, 40160, Note_off_c, 1, 62, 0
2, 40160, Note_on_c, 1, 64, 127
2, 40160, Note_off_c, 1, 65, 0
2, 40160, Note_on_c, 1, 80, 127
2, 40160, Note_off_c, 1, 104, 0
2, 40160, Note_off_c, 1, 105, 0
2, 40200, Note_on_c, 1, 40, 127
2, 40200, Note_on_c, 1, 44, 127
2, 40200, Note_on_c, 1, 47, 127
2, 40200, Note_off_c, 1, 50, 0
2, 40200, Note_on_c, 1, 52, 127
2, 40200, Note_off_c, 1, 56, 0
2, 40200, Note_off_c, 1, 58, 0
2, 40200, Note_off_c, 1, 64, 0
2, 40200, Note_on_c, 1, 71, 127
2, 40200, Note_on_c, 1, 76, 127
2, 40240, Note_on_c, 1, 36, 127
2, 40240, Note_off_c, 1, 40, 0
2, 40240, Note_off_c, 1, 44, 0
2, 40240, Note_off_c, 1, 47, 0
2, 40240, Note_on_c, 1, 48, 127
2, 40240, Note_off_c, 1, 52, 0
2, 40240, Note_on_c, 1, 56, 127
2, 40240, Note_off_c, 1, 71, 0
2, 40240, Note_off_c, 1, 76, 0
2, 40240, Note_on_c, 1, 88, 127
2, 40240, Note_on_c, 1, 92, 127
2, 40280, Note_off_c, 1, 36, 0
2, 40280, Note_off_c, 1, 48, 0
2, 40280, Note_off_c, 1, 56, 0
2, 40280, Note_off_c, 1, 68, 0
2, 40280, Note_off_c, 1, 80, 0
2, 40280, Note_off_c, 1, 88, 0
2, 40280, Note_off_c, 1, 92, 0
2, 40320, Note_on_c, 1, 49, 127
2, 40320, Note_on_c, 1, 61, 127
2, 40320, Note_on_c, 1, 64, 127
2, 40320, Note_on_c, 1, 67, 127
2, 40320, Note_on_c, 1, 71, 127
2, 40640, Note_off_c, 1, 49, 0
2, 40640, Note_off_c, 1, 61, 0
2, 40640, Note_off_c, 1, 64, 0
2, 40640, Note_off_c, 1, 67, 0
2, 40640, Note_off_c, 1, 71, 0
2, 40680, Note_on_c, 1, 49, 127
2, 40680, Note_on_c, 1, 61, 127
2, 40680, Note_on_c, 1, 64, 127
2, 40680, Note_on_c, 1, 67, 127
2, 40680, Note_on_c, 1, 71, 127
2, 40960, Note_off_c, 1, 49, 0
2, 40960, Note_off_c, 1, 61, 0
2, 40960, Note_off_c, 1, 64, 0
2, 40960, Note_off_c, 1, 67, 0
2, 40960, Note_off_c, 1, 71, 0
2, 41000, Note_on_c, 1, 43, 127
2, 41000, Note_on_c, 1, 71, 127
2, 41000, Note_on_c, 1, 79, 127
2, 41000, Note_on_c, 1, 83, 127
2, 41280, Note_off_c, 1, 43, 0
2, 41280, Note_off_c, 1, 71, 0
2, 41280, Note_off_c, 1, 79, 0
2, 41280, Note_off_c, 1, 83, 0
2, 41360, Note_on_c, 1, 52, 127
2, 41360, Note_on_c, 1, 56, 127
2, 41360, Note_on_c, 1, 60, 127
2, 41360, Note_on_c, 1, 66, 127
2, 41360, Note_on_c, 1, 78, 127
2, 41600, Note_off_c, 1, 52, 0
2, 41600, Note_off_c, 1, 56, 0
2, 41600, Note_off_c, 1, 60, 0
2, 41600, Note_off_c, 1, 66, 0
2, 41600, Note_off_c, 1, 78, 0
2, 41640, Note_on_c, 1, 52, 127
2, 41640, Note_on_c, 1, 56, 127
2, 41640, Note_on_c, 1, 60, 127
2, 41640, Note_on_c, 1, 66, 127
2, 41640, Note_on_c, 1, 78, 127
2, 41680, Note_off_c, 1, 52, 0
2, 41680, Note_off_c, 1, 56, 0
2, 41680, Note_off_c, 1, 60, 0
2, 41680, Note_off_c, 1, 66, 0
2, 41680, Note_off_c, 1, 78, 0
2, 41720, Note_on_c, 1, 52, 127
2, 41720, Note_on_c, 1, 56, 127
2, 41720, Note_on_c, 1, 60, 127
2, 41720, Note_on_c, 1, 66, 127
2, 41720, Note_on_c, 1, 78, 127
2, 41880, Note_on_c, 1, 64, 127
2, 41880, Note_off_c, 1, 66, 0
2, 41880, Note_on_c, 1, 76, 127
2, 41880, Note_off_c, 1, 78, 0
2, 42040, Note_off_c, 1, 52, 0
2, 42040, Note_off_c, 1, 56, 0
2, 42040, Note_off_c, 1, 60, 0
2, 42040, Note_off_c, 1, 64, 0
2, 42040, Note_off_c, 1, 76, 0
2, 42080, Note_on_c, 1, 52, 127
2, 42080, Note_on_c, 1, 56, 127
2, 42080, Note_on_c, 1, 60, 127
2, 42080, Note_on_c, 1, 64, 127
2, 42080, Note_on_c, 1, 76, 127
2, 42360, Note_off_c, 1, 52, 0
2, 42360, Note_off_c, 1, 56, 0
2, 42360, Note_off_c, 1, 60, 0
2, 42360, Note_off_c, 1, 64, 0
2, 42360, Note_off_c, 1, 76, 0
2, 42440, Note_on_c, 1, 52, 127
2, 42440, Note_on_c, 1, 56, 127
2, 42440, Note_on_c, 1, 60, 127
2, 42440, Note_on_c, 1, 64, 127
2, 42440, Note_on_c, 1, 76, 127
2, 42720, Note_off_c, 1, 52, 0
2, 42720, Note_off_c, 1, 56, 0
2, 42720, Note_off_c, 1, 60, 0
2, 42720, Note_off_c, 1, 64, 0
2, 42720, Note_off_c, 1, 76, 0
2, 42760, Note_on_c, 1, 38, 127
2, 42760, Note_on_c, 1, 52, 127
2, 42760, Note_on_c, 1, 59, 127
2, 42760, Note_on_c, 1, 67, 127
2, 43080, Note_off_c, 1, 38, 0
2, 43080, Note_off_c, 1, 52, 0
2, 43080, Note_off_c, 1, 59, 0
2, 43080, Note_off_c, 1, 67, 0
2, 43080, Note_on_c, 1, 79, 127
2, 43080, Note_on_c, 1, 84, 127
2, 43080, Note_on_c, 1, 88, 127
2, 43080, Note_on_c, 1, 91, 127
2, 43120, Note_on_c, 1, 57, 127
2, 43120, Note_on_c, 1, 59, 127
2, 43120, Note_on_c, 1, 63, 127
2, 43120, Note_on_c, 1, 66, 127
2, 43120, Note_on_c, 1, 76, 127
2, 43120, Note_off_c, 1, 79, 0
2, 43120, Note_off_c, 1, 84, 0
2, 43120, Note_off_c, 1, 88, 0
2, 43120, Note_off_c, 1, 91, 0
2, 43240, Note_off_c, 1, 57, 0
2, 43240, Note_off_c, 1, 59, 0
2, 43240, Note_off_c, 1, 63, 0
2, 43240, Note_off_c, 1, 66, 0
2, 43240, Note_off_c, 1, 76, 0
2, 43280, Note_on_c, 1, 56, 127
2, 43280, Note_on_c, 1, 66, 127
2, 43280, Note_on_c, 1, 74, 127
2, 43280, Note_on_c, 1, 78, 127
2, 43600, Note_off_c, 1, 56, 0
2, 43600, Note_off_c, 1, 66, 0
2, 43600, Note_off_c, 1, 74, 0
2, 43600, Note_off_c, 1, 78, 0
2, 43680, Note_on_c, 1, 68, 127
2, 43680, Note_on_c, 1, 70, 127
2, 43680, Note_on_c, 1, 72, 127
2, 43680, Note_on_c, 1, 75, 127
2, 43680, Note_on_c, 1, 82, 127
2, 43800, Note_off_c, 1, 68, 0
2, 43800, Note_off_c, 1, 70, 0
2, 43800, Note_off_c, 1, 72, 0
2, 43800, Note_off_c, 1, 75, 0
2, 43800, Note_off_c, 1, 82, 0
2, 43840, Note_on_c, 1, 49, 127
2, 43840, Note_on_c, 1, 56, 127
2, 43840, Note_on_c, 1, 61, 127
2, 43840, Note_on_c, 1, 64, 127
2, 43840, Note_on_c, 1, 68, 127
2, 43840, Note_on_c, 1, 76, 127
2, 44160, Note_off_c, 1, 49, 0
2, 44160, Note_off_c, 1, 56, 0
2, 44160, Note_off_c, 1, 61, 0
2, 44160, Note_off_c, 1, 64, 0
2, 44160, Note_off_c, 1, 68, 0
2, 44160, Note_off_c, 1, 76, 0
2, 44200, Note_on_c, 1, 47, 127
2, 44200, Note_on_c, 1, 54, 127
2, 44200, Note_on_c, 1, 59, 127
2, 44200, Note_on_c, 1, 62, 127
2, 44200, Note_on_c, 1, 66, 127
2, 44200, Note_on_c, 1, 74, 127
2, 44480, Note_off_c, 1, 59, 0
2, 44480, Note_off_c, 1, 62, 0
2, 44480, Note_off_c, 1, 66, 0
2, 44480, Note_off_c, 1, 74, 0
2, 44520, Note_on_c, 1, 59, 127
2, 44520, Note_on_c, 1, 62, 127
2, 44520, Note_on_c, 1, 66, 127
2, 44520, Note_on_c, 1, 74, 127
2, 44840, Note_off_c, 1, 47, 0
2, 44840, Note_off_c, 1, 54, 0
2, 44840, Note_off_c, 1, 59, 0
2, 44840, Note_off_c, 1, 62, 0
2, 44840, Note_off_c, 1, 66, 0
2, 44840, Note_off_c, 1, 74, 0
2, 44880, Note_on_c, 1, 40, 127
2, 44880, Note_on_c, 1, 52, 127
2, 44880, Note_on_c, 1, 71, 127
2, 44880, Note_on_c, 1, 76, 127
2, 44880, Note_on_c, 1, 79, 127
2, 44880, Note_on_c, 1, 83, 127
2, 45640, Note_off_c, 1, 40, 0
2, 45640, Note_off_c, 1, 52, 0
2, 45640, Note_off_c, 1, 71, 0
2, 45640, Note_off_c, 1, 76, 0
2, 45640, Note_off_c, 1, 79, 0
2, 45640, Note_off_c, 1, 83, 0
2, 45680, Note_on_c, 1, 40, 127
2, 45680, Note_on_c, 1, 52, 127
2, 45680, Note_on_c, 1, 71, 127
2, 45680, Note_on_c, 1, 76, 127
2, 45680, Note_on_c, 1, 79, 127
2, 45680, Note_on_c, 1, 83, 127
2, 45920, Note_off_c, 1, 40, 0
2, 45920, Note_off_c, 1, 52, 0
2, 45920, Note_off_c, 1, 71, 0
2, 45920, Note_off_c, 1, 76, 0
2, 45920, Note_off_c, 1, 79, 0
2, 45920, Note_off_c, 1, 83, 0
2, 45960, Note_on_c, 1, 50, 127
2, 45960, Note_on_c, 1, 62, 127
2, 45960, Note_on_c, 1, 64, 127
2, 45960, Note_on_c, 1, 71, 127
2, 45960, Note_on_c, 1, 76, 127
2, 46280, Note_off_c, 1, 50, 0
2, 46280, Note_off_c, 1, 62, 0
2, 46280, Note_off_c, 1, 64, 0
2, 46280, Note_off_c, 1, 71, 0
2, 46280, Note_off_c, 1, 76, 0
2, 46320, Note_on_c, 1, 57, 127
2, 46320, Note_on_c, 1, 66, 127
2, 46320, Note_on_c, 1, 90, 127
2, 46320, Note_on_c, 1, 93, 127
2, 46360, Note_on_c, 1, 50, 127
2, 46360, Note_on_c, 1, 54, 127
2, 46360, Note_on_c, 1, 64, 127
2, 46360, Note_off_c, 1, 66, 0
2, 46360, Note_off_c, 1, 90, 0
2, 46360, Note_off_c, 1, 93, 0
2, 46400, Note_on_c, 1, 49, 127
2, 46400, Note_off_c, 1, 50, 0
2, 46400, Note_off_c, 1, 54, 0
2, 46400, Note_off_c, 1, 57, 0
2, 46400, Note_on_c, 1, 60, 127
2, 46400, Note_off_c, 1, 64, 0
2, 46400, Note_on_c, 1, 68, 127
2, 46400, Note_on_c, 1, 75, 127
2, 46440, Note_on_c, 1, 37, 127
2, 46440, Note_on_c, 1, 45, 127
2, 46440, Note_on_c, 1, 52, 127
2, 46440, Note_on_c, 1, 57, 127
2, 46440, Note_off_c, 1, 60, 0
2, 46440, Note_on_c, 1, 64, 127
2, 46440, Note_off_c, 1, 68, 0
2, 46440, Note_off_c, 1, 75, 0
2, 46480, Note_off_c, 1, 37, 0
2, 46480, Note_off_c, 1, 45, 0
2, 46480, Note_off_c, 1, 49, 0
2, 46480, Note_off_c, 1, 52, 0
2, 46480, Note_off_c, 1, 57, 0
2, 46480, Note_off_c, 1, 64, 0
2, 46480, Note_on_c, 1, 76, 127
2, 46480, Note_on_c, 1, 85, 127
2, 46480, Note_on_c, 1, 100, 127
2, 46520, Note_on_c, 1, 45, 127
2, 46520, Note_off_c, 1, 76, 0
2, 46520, Note_off_c, 1, 85, 0
2, 46520, Note_on_c, 1, 90, 127
2, 46520, Note_on_c, 1, 95, 127
2, 46520, Note_on_c, 1, 99, 127
2, 46520, Note_off_c, 1, 100, 0
2, 46560, Note_off_c, 1, 45, 0
2, 46560, Note_on_c, 1, 76, 127
2, 46560, Note_on_c, 1, 85, 127
2, 46560, Note_off_c, 1, 90, 0
2, 46560, Note_off_c, 1, 95, 0
2, 46560, Note_off_c, 1, 99, 0
2, 46560, Note_on_c, 1, 100, 127
2, 46600, Note_off_c, 1, 76, 0
2, 46600, Note_off_c, 1, 85, 0
2, 46600, Note_off_c, 1, 100, 0
2, 46640, Note_on_c, 1, 41, 127
2, 46640, Note_on_c, 1, 53, 127
2, 46640, Note_on_c, 1, 80, 127
2, 46640, Note_on_c, 1, 84, 127
2, 46640, Note_on_c, 1, 92, 127
2, 46960, Note_off_c, 1, 41, 0
2, 46960, Note_off_c, 1, 53, 0
2, 46960, Note_off_c, 1, 80, 0
2, 46960, Note_off_c, 1, 84, 0
2, 46960, Note_off_c, 1, 92, 0
2, 47000, Note_on_c, 1, 49, 127
2, 47000, Note_on_c, 1, 61, 127
2, 47000, Note_on_c, 1, 73, 127
2, 47000, Note_on_c, 1, 77, 127
2, 47000, Note_on_c, 1, 85, 127
2, 47320, Note_off_c, 1, 49, 0
2, 47320, Note_off_c, 1, 61, 0
2, 47320, Note_off_c, 1, 73, 0
2, 47320, Note_off_c, 1, 77, 0
2, 47320, Note_off_c, 1, 85, 0
2, 47360, Note_on_c, 1, 35, 127
2, 47360, Note_on_c, 1, 47, 127
2, 47360, Note_on_c, 1, 54, 127
2, 47360, Note_on_c, 1, 62, 127
2, 47360, Note_on_c, 1, 66, 127
2, 47640, Note_off_c, 1, 35, 0
2, 47640, Note_off_c, 1, 47, 0
2, 47640, Note_off_c, 1, 54, 0
2, 47640, Note_off_c, 1, 62, 0
2, 47640, Note_off_c, 1, 66, 0
2, 47680, Note_on_c, 1, 35, 127
2, 47680, Note_on_c, 1, 47, 127
2, 47680, Note_on_c, 1, 54, 127
2, 47680, Note_on_c, 1, 62, 127
2, 47680, Note_on_c, 1, 66, 127
2, 47720, Note_off_c, 1, 35, 0
2, 47720, Note_off_c, 1, 47, 0
2, 47720, Note_off_c, 1, 54, 0
2, 47720, Note_off_c, 1, 62, 0
2, 47720, Note_off_c, 1, 66, 0
2, 47760, Note_on_c, 1, 40, 127
2, 47760, Note_on_c, 1, 47, 127
2, 47760, Note_on_c, 1, 52, 127
2, 47760, Note_on_c, 1, 67, 127
2, 48040, Note_off_c, 1, 40, 0
2, 48040, Note_off_c, 1, 47, 0
2, 48040, Note_off_c, 1, 52, 0
2, 48040, Note_off_c, 1, 67, 0
2, 48080, Note_on_c, 1, 37, 127
2, 48080, Note_on_c, 1, 44, 127
2, 48080, Note_on_c, 1, 49, 127
2, 48080, Note_on_c, 1, 64, 127
2, 48080, Note_on_c, 1, 68, 127
2, 48080, Note_on_c, 1, 73, 127
2, 48080, Note_on_c, 1, 76, 127
2, 48400, Note_off_c, 1, 37, 0
2, 48400, Note_off_c, 1, 44, 0
2, 48400, Note_off_c, 1, 49, 0
2, 48400, Note_off_c, 1, 64, 0
2, 48400, Note_off_c, 1, 68, 0
2, 48400, Note_off_c, 1, 73, 0
2, 48400, Note_off_c, 1, 76, 0
2, 48440, Note_on_c, 1, 37, 127
2, 48440, Note_on_c, 1, 44, 127
2, 48440, Note_on_c, 1, 49, 127
2, 48440, Note_on_c, 1, 64, 127
2, 48440, Note_on_c, 1, 68, 127
2, 48440, Note_on_c, 1, 73, 127
2, 48440, Note_on_c, 1, 76, 127
2, 48760, Note_off_c, 1, 37, 0
2, 48760, Note_off_c, 1, 44, 0
2, 48760, Note_off_c, 1, 49, 0
2, 48760, Note_off_c, 1, 64, 0
2, 48760, Note_off_c, 1, 68, 0
2, 48760, Note_off_c, 1, 73, 0
2, 48760, Note_off_c, 1, 76, 0
2, 48800, Note_on_c, 1, 37, 127
2, 48800, Note_on_c, 1, 44, 127
2, 48800, Note_on_c, 1, 49, 127
2, 48800, Note_on_c, 1, 64, 127
2, 48800, Note_on_c, 1, 68, 127
2, 48800, Note_on_c, 1, 73, 127
2, 48800, Note_on_c, 1, 76, 127
2, 49080, Note_off_c, 1, 37, 0
2, 49080, Note_off_c, 1, 44, 0
2, 49080, Note_off_c, 1, 49, 0
2, 49080, Note_off_c, 1, 64, 0
2, 49080, Note_off_c, 1, 68, 0
2, 49080, Note_off_c, 1, 73, 0
2, 49080, Note_off_c, 1, 76, 0
2, 49120, Note_on_c, 1, 37, 127
2, 49120, Note_on_c, 1, 44, 127
2, 49120, Note_on_c, 1, 49, 127
2, 49120, Note_on_c, 1, 64, 127
2, 49120, Note_on_c, 1, 68, 127
2, 49120, Note_on_c, 1, 73, 127
2, 49120, Note_on_c, 1, 76, 127
2, 49440, Note_off_c, 1, 37, 0
2, 49440, Note_off_c, 1, 44, 0
2, 49440, Note_off_c, 1, 49, 0
2, 49440, Note_off_c, 1, 64, 0
2, 49440, Note_off_c, 1, 68, 0
2, 49440, Note_off_c, 1, 73, 0
2, 49440, Note_off_c, 1, 76, 0
2, 49480, Note_on_c, 1, 37, 127
2, 49480, Note_on_c, 1, 44, 127
2, 49480, Note_on_c, 1, 49, 127
2, 49480, Note_on_c, 1, 64, 127
2, 49480, Note_on_c, 1, 68, 127
2, 49480, Note_on_c, 1, 73, 127
2, 49480, Note_on_c, 1, 76, 127
2, 49760, Note_off_c, 1, 37, 0
2, 49760, Note_off_c, 1, 44, 0
2, 49760, Note_off_c, 1, 49, 0
2, 49760, Note_off_c, 1, 64, 0
2, 49760, Note_off_c, 1, 68, 0
2, 49760, Note_off_c, 1, 73, 0
2, 49760, Note_off_c, 1, 76, 0
2, 49800, Note_on_c, 1, 37, 127
2, 49800, Note_on_c, 1, 44, 127
2, 49800, Note_on_c, 1, 49, 127
2, 49800, Note_on_c, 1, 64, 127
2, 49800, Note_on_c, 1, 68, 127
2, 49800, Note_on_c, 1, 73, 127
2, 49800, Note_on_c, 1, 76, 127
2, 49840, Note_off_c, 1, 37, 0
2, 49840, Note_off_c, 1, 44, 0
2, 49840, Note_off_c, 1, 49, 0
2, 49840, Note_off_c, 1, 64, 0
2, 49840, Note_off_c, 1, 68, 0
2, 49840, Note_off_c, 1, 73, 0
2, 49840, Note_off_c, 1, 76, 0
2, 49880, Note_on_c, 1, 40, 127
2, 49880, Note_on_c, 1, 47, 127
2, 49880, Note_on_c, 1, 52, 127
2, 49880, Note_on_c, 1, 68, 127
2, 49880, Note_on_c, 1, 71, 127
2, 49880, Note_on_c, 1, 76, 127
2, 49880, Note_on_c, 1, 80, 127
2, 50160, Note_off_c, 1, 40, 0
2, 50160, Note_off_c, 1, 47, 0
2, 50160, Note_off_c, 1, 52, 0
2, 50160, Note_off_c, 1, 68, 0
2, 50160, Note_off_c, 1, 71, 0
2, 50160, Note_off_c, 1, 76, 0
2, 50160, Note_off_c, 1, 80, 0
2, 50200, Note_on_c, 1, 35, 127
2, 50200, Note_on_c, 1, 47, 127
2, 50200, Note_on_c, 1, 66, 127
2, 50200, Note_on_c, 1, 69, 127
2, 50200, Note_on_c, 1, 75, 127
2, 50200, Note_on_c, 1, 78, 127
2, 50360, Note_off_c, 1, 35, 0
2, 50360, Note_off_c, 1, 47, 0
2, 50360, Note_off_c, 1, 66, 0
2, 50360, Note_off_c, 1, 69, 0
2, 50360, Note_off_c, 1, 75, 0
2, 50360, Note_off_c, 1, 78, 0
2, 50400, Note_on_c, 1, 35, 127
2, 50400, Note_on_c, 1, 47, 127
2, 50400, Note_on_c, 1, 66, 127
2, 50400, Note_on_c, 1, 69, 127
2, 50400, Note_on_c, 1, 75, 127
2, 50400, Note_on_c, 1, 78, 127
2, 50520, Note_off_c, 1, 35, 0
2, 50520, Note_off_c, 1, 47, 0
2, 50520, Note_off_c, 1, 66, 0
2, 50520, Note_off_c, 1, 69, 0
2, 50520, Note_off_c, 1, 75, 0
2, 50520, Note_off_c, 1, 78, 0
2, 50560, Note_on_c, 1, 28, 127
2, 50560, Note_on_c, 1, 40, 127
2, 50560, Note_on_c, 1, 64, 127
2, 50560, Note_on_c, 1, 68, 127
2, 50560, Note_on_c, 1, 71, 127
2, 50560, Note_on_c, 1, 76, 127
2, 50720, Note_off_c, 1, 28, 0
2, 50720, Note_off_c, 1, 40, 0
2, 50720, Note_off_c, 1, 64, 0
2, 50720, Note_off_c, 1, 68, 0
2, 50720, Note_off_c, 1, 71, 0
2, 50720, Note_off_c, 1, 76, 0
2, 50760, Note_on_c, 1, 38, 127
2, 50760, Note_on_c, 1, 50, 127
2, 50760, Note_on_c, 1, 65, 127
2, 50760, Note_on_c, 1, 70, 127
2, 50760, Note_on_c, 1, 74, 127
2, 50880, Note_off_c, 1, 38, 0
2, 50880, Note_off_c, 1, 50, 0
2, 50880, Note_off_c, 1, 65, 0
2, 50880, Note_off_c, 1, 70, 0
2, 50880, Note_off_c, 1, 74, 0
2, 50920, Note_on_c, 1, 36, 127
2, 50920, Note_on_c, 1, 48, 127
2, 50920, Note_on_c, 1, 65, 127
2, 50920, Note_on_c, 1, 72, 127
2, 50920, Note_on_c, 1, 75, 127
2, 51040, Note_off_c, 1, 36, 0
2, 51040, Note_off_c, 1, 48, 0
2, 51040, Note_off_c, 1, 65, 0
2, 51040, Note_off_c, 1, 72, 0
2, 51040, Note_off_c, 1, 75, 0
2, 51080, Note_on_c, 1, 36, 127
2, 51080, Note_on_c, 1, 48, 127
2, 51080, Note_on_c, 1, 65, 127
2, 51080, Note_on_c, 1, 72, 127
2, 51080, Note_on_c, 1, 75, 127
2, 51200, Note_off_c, 1, 36, 0
2, 51200, Note_off_c, 1, 48, 0
2, 51200, Note_off_c, 1, 65, 0
2, 51200, Note_off_c, 1, 72, 0
2, 51200, Note_off_c, 1, 75, 0
2, 51280, Note_on_c, 1, 34, 127
2, 51280, Note_on_c, 1, 46, 127
2, 51280, Note_on_c, 1, 65, 127
2, 51280, Note_on_c, 1, 74, 127
2, 51280, Note_on_c, 1, 77, 127
2, 51400, Note_off_c, 1, 34, 0
2, 51400, Note_off_c, 1, 46, 0
2, 51400, Note_off_c, 1, 65, 0
2, 51400, Note_off_c, 1, 74, 0
2, 51400, Note_off_c, 1, 77, 0
2, 51440, Note_on_c, 1, 34, 127
2, 51440, Note_on_c, 1, 46, 127
2, 51440, Note_on_c, 1, 65, 127
2, 51440, Note_on_c, 1, 74, 127
2, 51440, Note_on_c, 1, 77, 127
2, 51560, Note_off_c, 1, 34, 0
2, 51560, Note_off_c, 1, 46, 0
2, 51560, Note_off_c, 1, 65, 0
2, 51560, Note_off_c, 1, 74, 0
2, 51560, Note_off_c, 1, 77, 0
2, 51600, Note_on_c, 1, 34, 127
2, 51600, Note_on_c, 1, 46, 127
2, 51600, Note_on_c, 1, 65, 127
2, 51600, Note_on_c, 1, 74, 127
2, 51600, Note_on_c, 1, 77, 127
2, 51760, Note_off_c, 1, 34, 0
2, 51760, Note_off_c, 1, 46, 0
2, 51760, Note_off_c, 1, 65, 0
2, 51760, Note_off_c, 1, 74, 0
2, 51760, Note_off_c, 1, 77, 0
2, 51800, Note_on_c, 1, 47, 127
2, 51800, Note_on_c, 1, 59, 127
2, 51800, Note_on_c, 1, 66, 127
2, 51800, Note_on_c, 1, 71, 127
2, 51800, Note_on_c, 1, 78, 127
2, 51920, Note_off_c, 1, 47, 0
2, 51920, Note_off_c, 1, 59, 0
2, 51920, Note_off_c, 1, 66, 0
2, 51920, Note_off_c, 1, 71, 0
2, 51920, Note_off_c, 1, 78, 0
2, 52000, Note_on_c, 1, 35, 127
2, 52000, Note_on_c, 1, 47, 127
2, 52000, Note_on_c, 1, 63, 127
2, 52000, Note_on_c, 1, 66, 127
2, 52000, Note_on_c, 1, 71, 127
2, 52120, Note_off_c, 1, 35, 0
2, 52120, Note_off_c, 1, 47, 0
2, 52120, Note_off_c, 1, 63, 0
2, 52120, Note_off_c, 1, 66, 0
2, 52120, Note_off_c, 1, 71, 0
2, 52160, Note_on_c, 1, 91, 127
2, 52160, Note_on_c, 1, 94, 127
2, 52160, Note_on_c, 1, 99, 127
2, 52320, Note_off_c, 1, 91, 0
2, 52320, Note_off_c, 1, 94, 0
2, 52320, Note_off_c, 1, 99, 0
2, 52360, Note_on_c, 1, 91, 127
2, 52360, Note_on_c, 1, 94, 127
2, 52360, Note_on_c, 1, 99, 127
2, 52480, Note_off_c, 1, 91, 0
2, 52480, Note_off_c, 1, 94, 0
2, 52480, Note_off_c, 1, 99, 0
2, 52520, Note_on_c, 1, 40, 127
2, 52520, Note_on_c, 1, 52, 127
2, 52520, Note_on_c, 1, 83, 127
2, 52520, Note_on_c, 1, 92, 127
2, 52520, Note_on_c, 1, 95, 127
2, 52640, Note_off_c, 1, 40, 0
2, 52640, Note_off_c, 1, 52, 0
2, 52640, Note_off_c, 1, 83, 0
2, 52640, Note_off_c, 1, 92, 0
2, 52640, Note_off_c, 1, 95, 0
2, 52720, Note_on_c, 1, 40, 127
2, 52720, Note_on_c, 1, 52, 127
2, 52720, Note_on_c, 1, 83, 127
2, 52720, Note_on_c, 1, 92, 127
2, 52720, Note_on_c, 1, 95, 127
2, 52840, Note_off_c, 1, 40, 0
2, 52840, Note_off_c, 1, 52, 0
2, 52840, Note_off_c, 1, 83, 0
2, 52840, Note_off_c, 1, 92, 0
2, 52840, Note_off_c, 1, 95, 0
2, 52880, Note_on_c, 1, 40, 127
2, 52880, Note_on_c, 1, 52, 127
2, 52880, Note_on_c, 1, 83, 127
2, 52880, Note_on_c, 1, 92, 127
2, 52880, Note_on_c, 1, 95, 127
2, 53000, Note_off_c, 1, 40, 0
2, 53000, Note_off_c, 1, 52, 0
2, 53000, Note_off_c, 1, 83, 0
2, 53000, Note_off_c, 1, 92, 0
2, 53000, Note_off_c, 1, 95, 0
2, 53040, Note_on_c, 1, 40, 127
2, 53040, Note_on_c, 1, 52, 127
2, 53040, Note_on_c, 1, 83, 127
2, 53040, Note_on_c, 1, 92, 127
2, 53040, Note_on_c, 1, 95, 127
2, 53200, Note_off_c, 1, 40, 0
2, 53200, Note_off_c, 1, 52, 0
2, 53200, Note_off_c, 1, 83, 0
2, 53200, Note_off_c, 1, 92, 0
2, 53200, Note_off_c, 1, 95, 0
2, 53240, Note_on_c, 1, 40, 127
2, 53240, Note_on_c, 1, 52, 127
2, 53240, Note_on_c, 1, 83, 127
2, 53240, Note_on_c, 1, 92, 127
2, 53240, Note_on_c, 1, 95, 127
2, 53360, Note_off_c, 1, 40, 0
2, 53360, Note_off_c, 1, 52, 0
2, 53360, Note_off_c, 1, 83, 0
2, 53360, Note_off_c, 1, 92, 0
2, 53360, Note_off_c, 1, 95, 0
2, 53400, Note_on_c, 1, 40, 127
2, 53400, Note_on_c, 1, 52, 127
2, 53400, Note_on_c, 1, 83, 127
2, 53400, Note_on_c, 1, 92, 127
2, 53400, Note_on_c, 1, 95, 127
2, 53520, Note_off_c, 1, 40, 0
2, 53520, Note_off_c, 1, 52, 0
2, 53520, Note_off_c, 1, 83, 0
2, 53520, Note_off_c, 1, 92, 0
2, 53520, Note_off_c, 1, 95, 0
2, 53560, Note_on_c, 1, 52, 127
2, 53560, Note_on_c, 1, 56, 127
2, 53560, Note_on_c, 1, 59, 127
2, 53560, Note_on_c, 1, 87, 127
2, 53600, Note_on_c, 1, 66, 127
2, 53600, Note_off_c, 1, 87, 0
2, 53720, Note_off_c, 1, 52, 0
2, 53720, Note_off_c, 1, 56, 0
2, 53720, Note_off_c, 1, 59, 0
2, 53720, Note_off_c, 1, 66, 0
2, 53800, Note_on_c, 1, 52, 127
2, 53800, Note_on_c, 1, 56, 127
2, 53800, Note_on_c, 1, 59, 127
2, 53800, Note_on_c, 1, 68, 127
2, 53920, Note_off_c, 1, 52, 0
2, 53920, Note_off_c, 1, 56, 0
2, 53920, Note_off_c, 1, 59, 0
2, 53920, Note_off_c, 1, 68, 0
2, 53960, Note_on_c, 1, 52, 127
2, 53960, Note_on_c, 1, 57, 127
2, 53960, Note_on_c, 1, 59, 127
2, 53960, Note_on_c, 1, 63, 127
2, 53960, Note_on_c, 1, 66, 127
2, 55120, Note_off_c, 1, 52, 0
2, 55120, Note_off_c, 1, 57, 0
2, 55120, Note_off_c, 1, 59, 0
2, 55120, Note_off_c, 1, 63, 0
2, 55120, Note_off_c, 1, 66, 0
2, 55160, Note_on_c, 1, 57, 127
2, 55480, Note_off_c, 1, 57, 0
2, 55520, Note_on_c, 1, 59, 127
2, 55720, Note_off_c, 1, 59, 0
2, 55760, Note_on_c, 1, 59, 127
2, 55800, Note_off_c, 1, 59, 0
2, 55840, Note_on_c, 1, 57, 127
2, 56040, Note_off_c, 1, 57, 0
2, 56040, Note_on_c, 1, 58, 127
2, 56160, Note_off_c, 1, 58, 0
2, 56200, Note_on_c, 1, 59, 127
2, 56520, Note_off_c, 1, 59, 0
2, 56560, Note_on_c, 1, 52, 127
2, 57560, Note_off_c, 1, 52, 0
2, 57600, Note_on_c, 1, 47, 127
2, 57720, Note_off_c, 1, 47, 0
2, 57760, Note_on_c, 1, 47, 127
2, 58280, Note_off_c, 1, 47, 0
2, 58320, Note_on_c, 1, 47, 127
2, 58640, Note_off_c, 1, 47, 0
2, 58680, Note_on_c, 1, 40, 127
2, 59000, Note_off_c, 1, 40, 0
2, 59040, Note_on_c, 1, 47, 127
2, 59680, Note_off_c, 1, 47, 0
2, 59720, Note_on_c, 1, 37, 127
2, 59920, Note_off_c, 1, 37, 0
2, 59960, Note_on_c, 1, 37, 127
2, 60080, Note_off_c, 1, 37, 0
2, 60120, Note_on_c, 1, 43, 127
2, 60120, Note_on_c, 1, 50, 127
2, 60120, Note_on_c, 1, 53, 127
2, 60120, Note_on_c, 1, 59, 127
2, 60400, Note_off_c, 1, 43, 0
2, 60400, Note_off_c, 1, 50, 0
2, 60400, Note_off_c, 1, 53, 0
2, 60400, Note_off_c, 1, 59, 0
2, 60800, Note_on_c, 1, 47, 127
2, 61120, Note_off_c, 1, 47, 0
2, 61160, Note_on_c, 1, 50, 127
2, 61440, Note_off_c, 1, 50, 0
2, 61520, Note_on_c, 1, 47, 127
2, 61840, Note_off_c, 1, 47, 0
2, 61920, Note_on_c, 1, 47, 127
2, 62200, Note_off_c, 1, 47, 0
2, 62240, Note_on_c, 1, 47, 127
2, 62560, Note_off_c, 1, 47, 0
2, 62600, Note_on_c, 1, 47, 127
2, 62920, Note_off_c, 1, 47, 0
2, 62960, Note_on_c, 1, 40, 127
2, 63280, Note_off_c, 1, 40, 0
2, 63320, Note_on_c, 1, 40, 127
2, 63640, Note_off_c, 1, 40, 0
2, 63680, Note_on_c, 1, 55, 127
2, 63680, Note_on_c, 1, 57, 127
2, 63680, Note_on_c, 1, 64, 127
2, 63680, Note_on_c, 1, 83, 127
2, 63720, Note_on_c, 1, 40, 127
2, 63720, Note_on_c, 1, 48, 127
2, 63720, Note_on_c, 1, 52, 127
2, 63720, Note_off_c, 1, 55, 0
2, 63720, Note_off_c, 1, 57, 0
2, 63720, Note_on_c, 1, 58, 127
2, 63720, Note_off_c, 1, 64, 0
2, 63720, Note_on_c, 1, 67, 127
2, 63720, Note_on_c, 1, 70, 127
2, 63720, Note_off_c, 1, 83, 0
2, 63760, Note_on_c, 1, 38, 127
2, 63760, Note_off_c, 1, 40, 0
2, 63760, Note_off_c, 1, 48, 0
2, 63760, Note_off_c, 1, 52, 0
2, 63760, Note_off_c, 1, 58, 0
2, 63760, Note_off_c, 1, 70, 0
2, 63760, Note_on_c, 1, 93, 127
2, 63800, Note_off_c, 1, 38, 0
2, 63800, Note_off_c, 1, 67, 0
2, 63800, Note_off_c, 1, 93, 0
2, 63840, Note_on_c, 1, 43, 127
2, 63840, Note_on_c, 1, 48, 127
2, 63840, Note_on_c, 1, 52, 127
2, 63840, Note_on_c, 1, 74, 127
2, 63880, Note_on_c, 1, 42, 127
2, 63880, Note_off_c, 1, 43, 0
2, 63880, Note_off_c, 1, 48, 0
2, 63880, Note_on_c, 1, 51, 127
2, 63880, Note_off_c, 1, 52, 0
2, 63880, Note_on_c, 1, 60, 127
2, 63880, Note_off_c, 1, 74, 0
2, 63920, Note_off_c, 1, 42, 0
2, 63920, Note_off_c, 1, 51, 0
2, 63920, Note_off_c, 1, 60, 0
2, 63920, Note_on_c, 1, 69, 127
2, 63920, Note_on_c, 1, 72, 127
2, 63920, Note_on_c, 1, 77, 127
2, 63920, Note_on_c, 1, 81, 127
2, 63920, Note_on_c, 1, 84, 127
2, 63920, Note_on_c, 1, 89, 127
2, 63920, Note_on_c, 1, 96, 127
2, 63960, Note_on_c, 1, 59, 127
2, 63960, Note_on_c, 1, 65, 127
2, 63960, Note_off_c, 1, 69, 0
2, 63960, Note_on_c, 1, 71, 127
2, 63960, Note_off_c, 1, 72, 0
2, 63960, Note_on_c, 1, 73, 127
2, 63960, Note_off_c, 1, 77, 0
2, 63960, Note_off_c, 1, 81, 0
2, 63960, Note_off_c, 1, 84, 0
2, 63960, Note_off_c, 1, 89, 0
2, 63960, Note_off_c, 1, 96, 0
2, 64000, Note_off_c, 1, 59, 0
2, 64000, Note_off_c, 1, 65, 0
2, 64000, Note_off_c, 1, 71, 0
2, 64000, Note_off_c, 1, 73, 0
2, 64040, Note_on_c, 1, 47, 127
2, 64040, Note_on_c, 1, 57, 127
2, 64040, Note_on_c, 1, 61, 127
2, 64040, Note_on_c, 1, 68, 127
2, 64360, Note_off_c, 1, 47, 0
2, 64360, Note_off_c, 1, 57, 0
2, 64360, Note_off_c, 1, 61, 0
2, 64360, Note_off_c, 1, 68, 0
2, 64400, Note_on_c, 1, 59, 127
2, 64400, Note_on_c, 1, 70, 127
2, 64400, Note_on_c, 1, 73, 127
2, 64400, Note_on_c, 1, 78, 127
2, 64720, Note_off_c, 1, 59, 0
2, 64720, Note_off_c, 1, 70, 0
2, 64720, Note_off_c, 1, 73, 0
2, 64720, Note_off_c, 1, 78, 0
2, 64760, Note_on_c, 1, 40, 127
2, 64760, Note_on_c, 1, 52, 127
2, 64760, Note_on_c, 1, 68, 127
2, 64760, Note_on_c, 1, 71, 127
2, 64760, Note_on_c, 1, 76, 127
2, 65080, Note_off_c, 1, 40, 0
2, 65080, Note_off_c, 1, 52, 0
2, 65080, Note_off_c, 1, 68, 0
2, 65080, Note_off_c, 1, 71, 0
2, 65080, Note_off_c, 1, 76, 0
2, 65120, Note_on_c, 1, 64, 127
2, 65120, Note_on_c, 1, 67, 127
2, 65120, Note_on_c, 1, 71, 127
2, 65120, Note_on_c, 1, 76, 127
2, 65120, Note_on_c, 1, 83, 127
2, 65400, Note_off_c, 1, 64, 0
2, 65400, Note_off_c, 1, 67, 0
2, 65400, Note_off_c, 1, 71, 0
2, 65400, Note_off_c, 1, 76, 0
2, 65400, Note_off_c, 1, 83, 0
2, 65480, Note_on_c, 1, 43, 127
2, 65480, Note_on_c, 1, 55, 127
2, 65480, Note_on_c, 1, 71, 127
2, 65480, Note_on_c, 1, 74, 127
2, 65480, Note_on_c, 1, 77, 127
2, 65480, Note_on_c, 1, 83, 127
2, 65520, Note_off_c, 1, 43, 0
2, 65520, Note_on_c, 1, 45, 127
2, 65520, Note_off_c, 1, 55, 0
2, 65520, Note_on_c, 1, 57, 127
2, 65520, Note_off_c, 1, 71, 0
2, 65520, Note_off_c, 1, 74, 0
2, 65520, Note_off_c, 1, 77, 0
2, 65520, Note_on_c, 1, 81, 127
2, 65520, Note_off_c, 1, 83, 0
2, 65520, Note_on_c, 1, 85, 127
2, 65520, Note_on_c, 1, 88, 127
2, 65520, Note_on_c, 1, 93, 127
2, 65840, Note_off_c, 1, 45, 0
2, 65840, Note_off_c, 1, 57, 0
2, 65840, Note_off_c, 1, 81, 0
2, 65840, Note_off_c, 1, 85, 0
2, 65840, Note_off_c, 1, 88, 0
2, 65840, Note_off_c, 1, 93, 0
2, 65880, Note_on_c, 1, 45, 127
2, 65880, Note_on_c, 1, 57, 127
2, 65880, Note_on_c, 1, 81, 127
2, 65880, Note_on_c, 1, 85, 127
2, 65880, Note_on_c, 1, 88, 127
2, 65880, Note_on_c, 1, 93, 127
2, 66120, Note_off_c, 1, 45, 0
2, 66120, Note_off_c, 1, 57, 0
2, 66120, Note_on_c, 1, 69, 127
2, 66120, Note_off_c, 1, 85, 0
2, 66120, Note_off_c, 1, 88, 0
2, 66120, Note_off_c, 1, 93, 0
2, 66200, Note_off_c, 1, 69, 0
2, 66200, Note_off_c, 1, 81, 0
2, 66240, Note_on_c, 1, 59, 127
2, 66240, Note_on_c, 1, 64, 127
2, 66240, Note_on_c, 1, 68, 127
2, 66240, Note_on_c, 1, 71, 127
2, 66240, Note_on_c, 1, 76, 127
2, 66240, Note_on_c, 1, 80, 127
2, 66520, Note_off_c, 1, 59, 0
2, 66520, Note_off_c, 1, 64, 0
2, 66520, Note_off_c, 1, 68, 0
2, 66520, Note_off_c, 1, 71, 0
2, 66520, Note_off_c, 1, 76, 0
2, 66520, Note_off_c, 1, 80, 0
2, 66600, Note_on_c, 1, 61, 127
2, 66600, Note_on_c, 1, 64, 127
2, 66600, Note_on_c, 1, 69, 127
2, 66600, Note_on_c, 1, 76, 127
2, 66600, Note_on_c, 1, 81, 127
2, 66880, Note_off_c, 1, 61, 0
2, 66880, Note_off_c, 1, 64, 0
2, 66880, Note_off_c, 1, 69, 0
2, 66880, Note_off_c, 1, 76, 0
2, 66880, Note_off_c, 1, 81, 0
2, 66960, Note_on_c, 1, 59, 127
2, 66960, Note_on_c, 1, 64, 127
2, 66960, Note_on_c, 1, 68, 127
2, 66960, Note_on_c, 1, 71, 127
2, 66960, Note_on_c, 1, 76, 127
2, 66960, Note_on_c, 1, 80, 127
2, 67240, Note_off_c, 1, 59, 0
2, 67240, Note_off_c, 1, 64, 0
2, 67240, Note_off_c, 1, 68, 0
2, 67240, Note_off_c, 1, 71, 0
2, 67240, Note_off_c, 1, 76, 0
2, 67240, Note_off_c, 1, 80, 0
2, 67320, Note_on_c, 1, 59, 127
2, 67320, Note_on_c, 1, 64, 127
2, 67320, Note_on_c, 1, 68, 127
2, 67320, Note_on_c, 1, 71, 127
2, 67320, Note_on_c, 1, 76, 127
2, 67320, Note_on_c, 1, 80, 127
2, 67600, Note_off_c, 1, 59, 0
2, 67600, Note_off_c, 1, 64, 0
2, 67600, Note_off_c, 1, 68, 0
2, 67600, Note_off_c, 1, 71, 0
2, 67600, Note_off_c, 1, 76, 0
2, 67600, Note_off_c, 1, 80, 0
2, 67720, Note_on_c, 1, 59, 127
2, 67720, Note_on_c, 1, 64, 127
2, 67720, Note_on_c, 1, 68, 127
2, 67720, Note_on_c, 1, 71, 127
2, 67720, Note_on_c, 1, 76, 127
2, 67720, Note_on_c, 1, 80, 127
2, 68000, Note_off_c, 1, 59, 0
2, 68000, Note_off_c, 1, 64, 0
2, 68000, Note_off_c, 1, 68, 0
2, 68000, Note_off_c, 1, 71, 0
2, 68000, Note_off_c, 1, 76, 0
2, 68000, Note_off_c, 1, 80, 0
2, 68040, Note_on_c, 1, 59, 127
2, 68040, Note_on_c, 1, 63, 127
2, 68040, Note_on_c, 1, 66, 127
2, 68040, Note_on_c, 1, 71, 127
2, 68040, Note_on_c, 1, 75, 127
2, 68040, Note_on_c, 1, 78, 127
2, 68360, Note_off_c, 1, 59, 0
2, 68360, Note_off_c, 1, 63, 0
2, 68360, Note_off_c, 1, 66, 0
2, 68360, Note_off_c, 1, 71, 0
2, 68360, Note_off_c, 1, 75, 0
2, 68360, Note_off_c, 1, 78, 0
2, 68400, Note_on_c, 1, 59, 127
2, 68400, Note_on_c, 1, 63, 127
2, 68400, Note_on_c, 1, 66, 127
2, 68400, Note_on_c, 1, 69, 127
2, 68400, Note_on_c, 1, 75, 127
2, 68400, Note_on_c, 1, 78, 127
2, 68640, Note_off_c, 1, 59, 0
2, 68640, Note_off_c, 1, 63, 0
2, 68640, Note_off_c, 1, 66, 0
2, 68640, Note_off_c, 1, 69, 0
2, 68640, Note_off_c, 1, 75, 0
2, 68640, Note_off_c, 1, 78, 0
2, 68680, Note_on_c, 1, 59, 127
2, 68680, Note_on_c, 1, 63, 127
2, 68680, Note_on_c, 1, 66, 127
2, 68680, Note_on_c, 1, 69, 127
2, 68680, Note_on_c, 1, 75, 127
2, 68680, Note_on_c, 1, 78, 127
2, 68720, Note_off_c, 1, 59, 0
2, 68720, Note_off_c, 1, 63, 0
2, 68720, Note_off_c, 1, 66, 0
2, 68720, Note_off_c, 1, 69, 0
2, 68720, Note_off_c, 1, 75, 0
2, 68720, Note_off_c, 1, 78, 0
2, 68760, Note_on_c, 1, 59, 127
2, 68760, Note_on_c, 1, 63, 127
2, 68760, Note_on_c, 1, 66, 127
2, 68760, Note_on_c, 1, 69, 127
2, 68760, Note_on_c, 1, 75, 127
2, 68760, Note_on_c, 1, 78, 127
2, 69000, Note_off_c, 1, 59, 0
2, 69000, Note_off_c, 1, 63, 0
2, 69000, Note_off_c, 1, 66, 0
2, 69000, Note_off_c, 1, 69, 0
2, 69000, Note_off_c, 1, 75, 0
2, 69000, Note_off_c, 1, 78, 0
2, 69040, Note_on_c, 1, 60, 127
2, 69040, Note_on_c, 1, 64, 127
2, 69040, Note_on_c, 1, 67, 127
2, 69040, Note_on_c, 1, 76, 127
2, 69080, Note_off_c, 1, 60, 0
2, 69080, Note_off_c, 1, 64, 0
2, 69080, Note_off_c, 1, 67, 0
2, 69080, Note_off_c, 1, 76, 0
2, 69120, Note_on_c, 1, 60, 127
2, 69120, Note_on_c, 1, 64, 127
2, 69120, Note_on_c, 1, 67, 127
2, 69120, Note_on_c, 1, 76, 127
2, 69440, Note_off_c, 1, 60, 0
2, 69440, Note_off_c, 1, 64, 0
2, 69440, Note_off_c, 1, 67, 0
2, 69440, Note_off_c, 1, 76, 0
2, 69480, Note_on_c, 1, 60, 127
2, 69480, Note_on_c, 1, 64, 127
2, 69480, Note_on_c, 1, 67, 127
2, 69480, Note_on_c, 1, 76, 127
2, 69680, Note_off_c, 1, 60, 0
2, 69680, Note_off_c, 1, 64, 0
2, 69680, Note_off_c, 1, 67, 0
2, 69680, Note_off_c, 1, 76, 0
2, 69720, Note_on_c, 1, 60, 127
2, 69720, Note_on_c, 1, 64, 127
2, 69720, Note_on_c, 1, 67, 127
2, 69720, Note_on_c, 1, 76, 127
2, 69840, Note_off_c, 1, 60, 0
2, 69840, Note_off_c, 1, 64, 0
2, 69840, Note_off_c, 1, 67, 0
2, 69840, Note_off_c, 1, 76, 0
2, 69880, Note_on_c, 1, 57, 127
2, 69880, Note_on_c, 1, 62, 127
2, 69880, Note_on_c, 1, 66, 127
2, 69880, Note_on_c, 1, 72, 127
2, 70200, Note_off_c, 1, 57, 0
2, 70200, Note_off_c, 1, 62, 0
2, 70200, Note_off_c, 1, 66, 0
2, 70200, Note_off_c, 1, 72, 0
2, 70240, Note_on_c, 1, 57, 127
2, 70240, Note_on_c, 1, 62, 127
2, 70240, Note_on_c, 1, 66, 127
2, 70240, Note_on_c, 1, 72, 127
2, 70560, Note_off_c, 1, 57, 0
2, 70560, Note_off_c, 1, 62, 0
2, 70560, Note_off_c, 1, 66, 0
2, 70560, Note_off_c, 1, 72, 0
2, 70600, Note_on_c, 1, 43, 127
2, 70600, Note_on_c, 1, 62, 127
2, 70600, Note_on_c, 1, 67, 127
2, 70600, Note_on_c, 1, 71, 127
2, 70880, Note_off_c, 1, 43, 0
2, 70880, Note_off_c, 1, 62, 0
2, 70880, Note_off_c, 1, 67, 0
2, 70880, Note_off_c, 1, 71, 0
2, 70960, Note_on_c, 1, 55, 127
2, 70960, Note_on_c, 1, 62, 127
2, 70960, Note_on_c, 1, 67, 127
2, 70960, Note_on_c, 1, 71, 127
2, 71280, Note_off_c, 1, 55, 0
2, 71280, Note_off_c, 1, 62, 0
2, 71280, Note_off_c, 1, 67, 0
2, 71280, Note_off_c, 1, 71, 0
2, 71320, Note_on_c, 1, 55, 127
2, 71320, Note_on_c, 1, 66, 127
2, 71320, Note_on_c, 1, 74, 127
2, 71480, Note_off_c, 1, 74, 0
2, 71520, Note_on_c, 1, 57, 127
2, 71520, Note_on_c, 1, 72, 127
2, 71640, Note_off_c, 1, 55, 0
2, 71640, Note_off_c, 1, 57, 0
2, 71640, Note_off_c, 1, 66, 0
2, 71640, Note_off_c, 1, 72, 0
2, 71680, Note_on_c, 1, 55, 127
2, 71680, Note_on_c, 1, 60, 127
2, 71680, Note_on_c, 1, 66, 127
2, 71680, Note_on_c, 1, 69, 127
2, 71960, Note_off_c, 1, 55, 0
2, 71960, Note_off_c, 1, 60, 0
2, 71960, Note_off_c, 1, 66, 0
2, 71960, Note_off_c, 1, 69, 0
2, 72000, Note_on_c, 1, 55, 127
2, 72000, Note_on_c, 1, 60, 127
2, 72000, Note_on_c, 1, 66, 127
2, 72000, Note_on_c, 1, 69, 127
2, 72040, Note_off_c, 1, 55, 0
2, 72040, Note_off_c, 1, 60, 0
2, 72040, Note_off_c, 1, 66, 0
2, 72040, Note_off_c, 1, 69, 0
2, 72080, Note_on_c, 1, 54, 127
2, 72080, Note_on_c, 1, 62, 127
2, 72080, Note_on_c, 1, 69, 127
2, 72400, Note_off_c, 1, 54, 0
2, 72400, Note_off_c, 1, 69, 0
2, 72440, Note_on_c, 1, 50, 127
2, 72440, Note_on_c, 1, 66, 127
2, 72440, Note_on_c, 1, 71, 127
2, 72760, Note_off_c, 1, 50, 0
2, 72760, Note_off_c, 1, 62, 0
2, 72760, Note_off_c, 1, 66, 0
2, 72760, Note_off_c, 1, 71, 0
2, 72800, Note_on_c, 1, 55, 127
2, 72800, Note_on_c, 1, 59, 127
2, 72800, Note_on_c, 1, 67, 127
2, 72800, Note_on_c, 1, 71, 127
2, 73120, Note_off_c, 1, 55, 0
2, 73120, Note_off_c, 1, 59, 0
2, 73120, Note_off_c, 1, 67, 0
2, 73120, Note_off_c, 1, 71, 0
2, 73160, Note_on_c, 1, 52, 127
2, 73160, Note_on_c, 1, 55, 127
2, 73160, Note_on_c, 1, 59, 127
2, 73160, Note_on_c, 1, 64, 127
2, 73160, Note_on_c, 1, 67, 127
2, 73160, Note_on_c, 1, 71, 127
2, 73440, Note_off_c, 1, 52, 0
2, 73440, Note_off_c, 1, 55, 0
2, 73440, Note_off_c, 1, 59, 0
2, 73440, Note_off_c, 1, 64, 0
2, 73440, Note_off_c, 1, 67, 0
2, 73440, Note_off_c, 1, 71, 0
2, 73520, Note_on_c, 1, 52, 127
2, 73520, Note_on_c, 1, 55, 127
2, 73520, Note_on_c, 1, 59, 127
2, 73520, Note_on_c, 1, 64, 127
2, 73520, Note_on_c, 1, 67, 127
2, 73520, Note_on_c, 1, 71, 127
2, 73800, Note_off_c, 1, 52, 0
2, 73800, Note_off_c, 1, 55, 0
2, 73800, Note_off_c, 1, 59, 0
2, 73800, Note_off_c, 1, 64, 0
2, 73800, Note_off_c, 1, 67, 0
2, 73800, Note_off_c, 1, 71, 0
2, 73920, Note_on_c, 1, 41, 127
2, 73920, Note_on_c, 1, 48, 127
2, 73920, Note_on_c, 1, 53, 127
2, 73920, Note_on_c, 1, 60, 127
2, 73920, Note_on_c, 1, 63, 127
2, 73920, Note_on_c, 1, 75, 127
2, 73920, Note_on_c, 1, 81, 127
2, 73920, Note_on_c, 1, 87, 127
2, 73960, Note_on_c, 1, 37, 127
2, 73960, Note_off_c, 1, 41, 0
2, 73960, Note_off_c, 1, 48, 0
2, 73960, Note_on_c, 1, 49, 127
2, 73960, Note_off_c, 1, 53, 0
2, 73960, Note_on_c, 1, 59, 127
2, 73960, Note_off_c, 1, 60, 0
2, 73960, Note_on_c, 1, 61, 127
2, 73960, Note_off_c, 1, 63, 0
2, 73960, Note_on_c, 1, 68, 127
2, 73960, Note_on_c, 1, 71, 127
2, 73960, Note_off_c, 1, 75, 0
2, 73960, Note_off_c, 1, 81, 0
2, 73960, Note_off_c, 1, 87, 0
2, 74000, Note_off_c, 1, 37, 0
2, 74000, Note_off_c, 1, 49, 0
2, 74000, Note_on_c, 1, 51, 127
2, 74000, Note_on_c, 1, 58, 127
2, 74000, Note_off_c, 1, 59, 0
2, 74000, Note_off_c, 1, 61, 0
2, 74000, Note_on_c, 1, 62, 127
2, 74000, Note_on_c, 1, 67, 127
2, 74000, Note_off_c, 1, 68, 0
2, 74000, Note_on_c, 1, 70, 127
2, 74000, Note_off_c, 1, 71, 0
2, 74000, Note_on_c, 1, 79, 127
2, 74040, Note_on_c, 1, 48, 127
2, 74040, Note_off_c, 1, 51, 0
2, 74040, Note_on_c, 1, 52, 127
2, 74040, Note_on_c, 1, 55, 127
2, 74040, Note_off_c, 1, 58, 0
2, 74040, Note_on_c, 1, 60, 127
2, 74040, Note_off_c, 1, 62, 0
2, 74040, Note_off_c, 1, 67, 0
2, 74040, Note_off_c, 1, 70, 0
2, 74040, Note_off_c, 1, 79, 0
2, 74040, Note_on_c, 1, 88, 127
2, 74080, Note_on_c, 1, 44, 127
2, 74080, Note_off_c, 1, 52, 0
2, 74080, Note_on_c, 1, 53, 127
2, 74080, Note_off_c, 1, 55, 0
2, 74080, Note_off_c, 1, 60, 0
2, 74080, Note_off_c, 1, 88, 0
2, 74080, Note_on_c, 1, 94, 127
2, 74120, Note_off_c, 1, 48, 0
2, 74120, Note_off_c, 1, 53, 0
2, 74120, Note_on_c, 1, 70, 127
2, 74120, Note_on_c, 1, 80, 127
2, 74120, Note_off_c, 1, 94, 0
2, 74160, Note_off_c, 1, 44, 0
2, 74160, Note_off_c, 1, 70, 0
2, 74160, Note_on_c, 1, 77, 127
2, 74160, Note_off_c, 1, 80, 0
2, 74200, Note_off_c, 1, 77, 0
2, 74240, Note_on_c, 1, 46, 127
2, 74240, Note_on_c, 1, 58, 127
2, 74240, Note_on_c, 1, 70, 127
2, 74240, Note_on_c, 1, 74, 127
2, 74240, Note_on_c, 1, 79, 127
2, 74240, Note_on_c, 1, 82, 127
2, 74560, Note_off_c, 1, 46, 0
2, 74560, Note_off_c, 1, 58, 0
2, 74560, Note_off_c, 1, 70, 0
2, 74560, Note_off_c, 1, 74, 0
2, 74560, Note_off_c, 1, 79, 0
2, 74560, Note_off_c, 1, 82, 0
2, 74600, Note_on_c, 1, 46, 127
2, 74600, Note_on_c, 1, 58, 127
2, 74600, Note_on_c, 1, 70, 127
2, 74600, Note_on_c, 1, 74, 127
2, 74600, Note_on_c, 1, 79, 127
2, 74600, Note_on_c, 1, 82, 127
2, 74920, Note_off_c, 1, 46, 0
2, 74920, Note_off_c, 1, 58, 0
2, 74920, Note_off_c, 1, 70, 0
2, 74920, Note_off_c, 1, 74, 0
2, 74920, Note_off_c, 1, 79, 0
2, 74920, Note_off_c, 1, 82, 0
2, 74960, Note_on_c, 1, 46, 127
2, 74960, Note_on_c, 1, 58, 127
2, 74960, Note_on_c, 1, 70, 127
2, 74960, Note_on_c, 1, 74, 127
2, 74960, Note_on_c, 1, 79, 127
2, 74960, Note_on_c, 1, 82, 127
2, 75280, Note_off_c, 1, 46, 0
2, 75280, Note_off_c, 1, 58, 0
2, 75280, Note_off_c, 1, 70, 0
2, 75280, Note_off_c, 1, 74, 0
2, 75280, Note_off_c, 1, 79, 0
2, 75280, Note_off_c, 1, 82, 0
2, 75320, Note_on_c, 1, 46, 127
2, 75320, Note_on_c, 1, 58, 127
2, 75320, Note_on_c, 1, 70, 127
2, 75320, Note_on_c, 1, 74, 127
2, 75320, Note_on_c, 1, 79, 127
2, 75320, Note_on_c, 1, 82, 127
2, 75640, Note_off_c, 1, 46, 0
2, 75640, Note_off_c, 1, 58, 0
2, 75640, Note_off_c, 1, 70, 0
2, 75640, Note_off_c, 1, 74, 0
2, 75640, Note_off_c, 1, 79, 0
2, 75640, Note_off_c, 1, 82, 0
2, 75680, Note_on_c, 1, 44, 127
2, 75680, Note_on_c, 1, 49, 127
2, 75680, Note_on_c, 1, 52, 127
2, 75920, Note_off_c, 1, 44, 0
2, 75920, Note_off_c, 1, 49, 0
2, 75920, Note_off_c, 1, 52, 0
2, 75960, Note_on_c, 1, 44, 127
2, 75960, Note_on_c, 1, 49, 127
2, 75960, Note_on_c, 1, 52, 127
2, 76000, Note_off_c, 1, 44, 0
2, 76000, Note_off_c, 1, 49, 0
2, 76000, Note_off_c, 1, 52, 0
2, 76040, Note_on_c, 1, 40, 127
2, 76040, Note_on_c, 1, 45, 127
2, 76040, Note_on_c, 1, 48, 127
2, 76040, Note_on_c, 1, 75, 127
2, 76080, Note_off_c, 1, 40, 0
2, 76080, Note_off_c, 1, 45, 0
2, 76080, Note_on_c, 1, 47, 127
2, 76080, Note_off_c, 1, 48, 0
2, 76080, Note_on_c, 1, 59, 127
2, 76080, Note_off_c, 1, 75, 0
2, 76080, Note_on_c, 1, 91, 127
2, 76080, Note_on_c, 1, 100, 127
2, 76080, Note_on_c, 1, 103, 127
2, 76120, Note_off_c, 1, 47, 0
2, 76120, Note_on_c, 1, 52, 127
2, 76120, Note_on_c, 1, 57, 127
2, 76120, Note_off_c, 1, 59, 0
2, 76120, Note_on_c, 1, 61, 127
2, 76120, Note_on_c, 1, 64, 127
2, 76120, Note_on_c, 1, 81, 127
2, 76120, Note_on_c, 1, 85, 127
2, 76120, Note_on_c, 1, 88, 127
2, 76120, Note_off_c, 1, 91, 0
2, 76120, Note_on_c, 1, 93, 127
2, 76120, Note_off_c, 1, 100, 0
2, 76120, Note_off_c, 1, 103, 0
2, 76160, Note_on_c, 1, 38, 127
2, 76160, Note_on_c, 1, 41, 127
2, 76160, Note_on_c, 1, 46, 127
2, 76160, Note_on_c, 1, 50, 127
2, 76160, Note_off_c, 1, 52, 0
2, 76160, Note_off_c, 1, 57, 0
2, 76160, Note_off_c, 1, 61, 0
2, 76160, Note_on_c, 1, 62, 127
2, 76160, Note_off_c, 1, 64, 0
2, 76160, Note_on_c, 1, 65, 127
2, 76160, Note_on_c, 1, 70, 127
2, 76160, Note_on_c, 1, 74, 127
2, 76160, Note_off_c, 1, 81, 0
2, 76160, Note_off_c, 1, 85, 0
2, 76160, Note_off_c, 1, 88, 0
2, 76160, Note_off_c, 1, 93, 0
2, 76200, Note_off_c, 1, 38, 0
2, 76200, Note_on_c, 1, 40, 127
2, 76200, Note_off_c, 1, 41, 0
2, 76200, Note_off_c, 1, 46, 0
2, 76200, Note_off_c, 1, 50, 0
2, 76200, Note_on_c, 1, 52, 127
2, 76200, Note_off_c, 1, 62, 0
2, 76200, Note_off_c, 1, 65, 0
2, 76200, Note_off_c, 1, 70, 0
2, 76200, Note_off_c, 1, 74, 0
2, 76200, Note_on_c, 1, 82, 127
2, 76200, Note_on_c, 1, 84, 127
2, 76200, Note_on_c, 1, 91, 127
2, 76200, Note_on_c, 1, 94, 127
2, 76240, Note_off_c, 1, 40, 0
2, 76240, Note_off_c, 1, 52, 0
2, 76240, Note_on_c, 1, 70, 127
2, 76240, Note_on_c, 1, 79, 127
2, 76240, Note_off_c, 1, 84, 0
2, 76240, Note_on_c, 1, 86, 127
2, 76240, Note_off_c, 1, 91, 0
2, 76240, Note_off_c, 1, 94, 0
2, 76280, Note_on_c, 1, 43, 127
2, 76280, Note_on_c, 1, 50, 127
2, 76280, Note_on_c, 1, 58, 127
2, 76280, Note_off_c, 1, 70, 0
2, 76280, Note_off_c, 1, 79, 0
2, 76320, Note_off_c, 1, 43, 0
2, 76320, Note_on_c, 1, 48, 127
2, 76320, Note_off_c, 1, 50, 0
2, 76320, Note_off_c, 1, 58, 0
2, 76320, Note_on_c, 1, 60, 127
2, 76320, Note_on_c, 1, 69, 127
2, 76320, Note_on_c, 1, 76, 127
2, 76320, Note_on_c, 1, 78, 127
2, 76320, Note_on_c, 1, 81, 127
2, 76320, Note_off_c, 1, 82, 0
2, 76320, Note_off_c, 1, 86, 0
2, 76360, Note_off_c, 1, 48, 0
2, 76360, Note_off_c, 1, 60, 0
2, 76360, Note_off_c, 1, 69, 0
2, 76360, Note_off_c, 1, 76, 0
2, 76360, Note_off_c, 1, 78, 0
2, 76360, Note_off_c, 1, 81, 0
2, 76400, Note_on_c, 1, 54, 127
2, 76400, Note_on_c, 1, 60, 127
2, 76400, Note_on_c, 1, 82, 127
2, 76400, Note_on_c, 1, 87, 127
2, 76400, Note_on_c, 1, 94, 127
2, 76440, Note_off_c, 1, 54, 0
2, 76440, Note_off_c, 1, 60, 0
2, 76440, Note_on_c, 1, 72, 127
2, 76440, Note_off_c, 1, 82, 0
2, 76440, Note_on_c, 1, 84, 127
2, 76440, Note_off_c, 1, 87, 0
2, 76440, Note_on_c, 1, 89, 127
2, 76440, Note_on_c, 1, 93, 127
2, 76440, Note_off_c, 1, 94, 0
2, 76440, Note_on_c, 1, 96, 127
2, 76480, Note_on_c, 1, 60, 127
2, 76480, Note_on_c, 1, 66, 127
2, 76480, Note_on_c, 1, 68, 127
2, 76480, Note_on_c, 1, 76, 127
2, 76480, Note_off_c, 1, 84, 0
2, 76480, Note_off_c, 1, 89, 0
2, 76480, Note_off_c, 1, 93, 0
2, 76480, Note_off_c, 1, 96, 0
2, 76520, Note_on_c, 1, 40, 127
2, 76520, Note_on_c, 1, 43, 127
2, 76520, Note_on_c, 1, 52, 127
2, 76520, Note_off_c, 1, 60, 0
2, 76520, Note_off_c, 1, 66, 0
2, 76520, Note_on_c, 1, 67, 127
2, 76520, Note_off_c, 1, 68, 0
2, 76520, Note_off_c, 1, 72, 0
2, 76520, Note_on_c, 1, 79, 127
2, 76560, Note_off_c, 1, 40, 0
2, 76560, Note_off_c, 1, 43, 0
2, 76560, Note_on_c, 1, 45, 127
2, 76560, Note_on_c, 1, 50, 127
2, 76560, Note_off_c, 1, 52, 0
2, 76560, Note_on_c, 1, 57, 127
2, 76560, Note_on_c, 1, 60, 127
2, 76560, Note_on_c, 1, 64, 127
2, 76560, Note_on_c, 1, 66, 127
2, 76560, Note_off_c, 1, 67, 0
2, 76560, Note_on_c, 1, 72, 127
2, 76560, Note_on_c, 1, 74, 127
2, 76560, Note_off_c, 1, 76, 0
2, 76560, Note_off_c, 1, 79, 0
2, 76600, Note_off_c, 1, 45, 0
2, 76600, Note_on_c, 1, 54, 127
2, 76600, Note_off_c, 1, 60, 0
2, 76600, Note_off_c, 1, 64, 0
2, 76600, Note_off_c, 1, 66, 0
2, 76600, Note_off_c, 1, 72, 0
2, 76600, Note_on_c, 1, 78, 127
2, 76640, Note_off_c, 1, 50, 0
2, 76640, Note_off_c, 1, 54, 0
2, 76640, Note_off_c, 1, 57, 0
2, 76640, Note_off_c, 1, 74, 0
2, 76640, Note_off_c, 1, 78, 0
2, 76680, Note_on_c, 1, 61, 127
2, 76680, Note_on_c, 1, 70, 127
2, 76680, Note_on_c, 1, 76, 127
2, 76680, Note_on_c, 1, 88, 127
2, 76720, Note_off_c, 1, 61, 0
2, 76720, Note_off_c, 1, 70, 0
2, 76720, Note_off_c, 1, 76, 0
2, 76720, Note_off_c, 1, 88, 0
2, 76760, Note_on_c, 1, 52, 127
2, 76760, Note_on_c, 1, 57, 127
2, 76760, Note_on_c, 1, 61, 127
2, 76760, Note_on_c, 1, 64, 127
2, 77080, Note_off_c, 1, 52, 0
2, 77080, Note_off_c, 1, 57, 0
2, 77080, Note_off_c, 1, 61, 0
2, 77080, Note_off_c, 1, 64, 0
2, 77120, Note_on_c, 1, 33, 127
2, 77120, Note_on_c, 1, 52, 127
2, 77120, Note_on_c, 1, 57, 127
2, 77120, Note_on_c, 1, 61, 127
2, 77120, Note_on_c, 1, 64, 127
2, 77440, Note_off_c, 1, 33, 0
2, 77480, Note_on_c, 1, 32, 127
2, 77800, Note_off_c, 1, 32, 0
2, 77800, Note_off_c, 1, 52, 0
2, 77800, Note_off_c, 1, 57, 0
2, 77800, Note_off_c, 1, 61, 0
2, 77800, Note_off_c, 1, 64, 0
2, 77840, Note_on_c, 1, 33, 127
2, 77840, Note_on_c, 1, 52, 127
2, 77840, Note_on_c, 1, 57, 127
2, 77840, Note_on_c, 1, 61, 127
2, 77840, Note_on_c, 1, 64, 127
2, 78080, Note_off_c, 1, 33, 0
2, 78080, Note_off_c, 1, 52, 0
2, 78080, Note_off_c, 1, 57, 0
2, 78080, Note_off_c, 1, 61, 0
2, 78080, Note_off_c, 1, 64, 0
2, 78120, Note_on_c, 1, 33, 127
2, 78120, Note_on_c, 1, 52, 127
2, 78120, Note_on_c, 1, 57, 127
2, 78120, Note_on_c, 1, 61, 127
2, 78120, Note_on_c, 1, 64, 127
2, 78160, Note_off_c, 1, 33, 0
2, 78160, Note_off_c, 1, 52, 0
2, 78160, Note_off_c, 1, 57, 0
2, 78160, Note_off_c, 1, 61, 0
2, 78160, Note_off_c, 1, 64, 0
2, 78240, Note_on_c, 1, 40, 127
2, 78240, Note_on_c, 1, 52, 127
2, 78240, Note_on_c, 1, 59, 127
2, 78240, Note_on_c, 1, 68, 127
2, 78240, Note_on_c, 1, 71, 127
2, 78520, Note_off_c, 1, 40, 0
2, 78520, Note_on_c, 1, 43, 127
2, 78520, Note_off_c, 1, 52, 0
2, 78520, Note_on_c, 1, 55, 127
2, 78520, Note_on_c, 1, 67, 127
2, 78520, Note_off_c, 1, 68, 0
2, 78560, Note_on_c, 1, 40, 127
2, 78560, Note_off_c, 1, 43, 0
2, 78560, Note_on_c, 1, 52, 127
2, 78560, Note_off_c, 1, 55, 0
2, 78560, Note_off_c, 1, 67, 0
2, 78560, Note_on_c, 1, 68, 127
2, 78880, Note_off_c, 1, 40, 0
2, 78880, Note_off_c, 1, 52, 0
2, 78880, Note_off_c, 1, 59, 0
2, 78880, Note_off_c, 1, 68, 0
2, 78880, Note_off_c, 1, 71, 0
2, 78920, Note_on_c, 1, 45, 127
2, 78920, Note_on_c, 1, 52, 127
2, 78920, Note_on_c, 1, 61, 127
2, 78920, Note_on_c, 1, 69, 127
2, 78920, Note_on_c, 1, 73, 127
2, 79240, Note_off_c, 1, 45, 0
2, 79240, Note_off_c, 1, 52, 0
2, 79240, Note_off_c, 1, 61, 0
2, 79240, Note_off_c, 1, 69, 0
2, 79240, Note_off_c, 1, 73, 0
2, 79280, Note_on_c, 1, 40, 127
2, 79280, Note_on_c, 1, 52, 127
2, 79280, Note_on_c, 1, 59, 127
2, 79280, Note_on_c, 1, 68, 127
2, 79280, Note_on_c, 1, 71, 127
2, 79600, Note_off_c, 1, 40, 0
2, 79600, Note_off_c, 1, 52, 0
2, 79600, Note_off_c, 1, 59, 0
2, 79600, Note_off_c, 1, 68, 0
2, 79600, Note_off_c, 1, 71, 0
2, 79640, Note_on_c, 1, 33, 127
2, 79640, Note_on_c, 1, 69, 127
2, 79640, Note_on_c, 1, 72, 127
2, 79800, Note_off_c, 1, 33, 0
2, 79840, Note_on_c, 1, 45, 127
2, 79960, Note_off_c, 1, 45, 0
2, 79960, Note_off_c, 1, 69, 0
2, 79960, Note_off_c, 1, 72, 0
2, 80000, Note_on_c, 1, 33, 127
2, 80000, Note_on_c, 1, 69, 127
2, 80000, Note_on_c, 1, 72, 127
2, 80120, Note_off_c, 1, 33, 0
2, 80160, Note_on_c, 1, 45, 127
2, 80160, Note_off_c, 1, 69, 0
2, 80160, Note_off_c, 1, 72, 0
2, 80200, Note_off_c, 1, 45, 0
2, 80240, Note_on_c, 1, 45, 127
2, 80240, Note_on_c, 1, 69, 127
2, 80240, Note_on_c, 1, 72, 127
2, 80360, Note_off_c, 1, 45, 0
2, 80360, Note_off_c, 1, 69, 0
2, 80360, Note_off_c, 1, 72, 0
2, 80400, Note_on_c, 1, 48, 127
2, 80400, Note_on_c, 1, 62, 127
2, 80400, Note_on_c, 1, 65, 127
2, 80400, Note_on_c, 1, 71, 127
2, 80680, Note_off_c, 1, 48, 0
2, 80720, Note_off_c, 1, 62, 0
2, 80720, Note_off_c, 1, 65, 0
2, 80720, Note_off_c, 1, 71, 0
2, 80760, Note_on_c, 1, 48, 127
2, 80760, Note_on_c, 1, 62, 127
2, 80760, Note_on_c, 1, 65, 127
2, 80760, Note_on_c, 1, 71, 127
2, 81040, Note_off_c, 1, 48, 0
2, 81080, Note_off_c, 1, 62, 0
2, 81080, Note_off_c, 1, 65, 0
2, 81080, Note_off_c, 1, 71, 0
2, 81120, Note_on_c, 1, 48, 127
2, 81120, Note_on_c, 1, 62, 127
2, 81120, Note_on_c, 1, 65, 127
2, 81120, Note_on_c, 1, 71, 127
2, 81440, Note_off_c, 1, 48, 0
2, 81440, Note_off_c, 1, 62, 0
2, 81440, Note_off_c, 1, 65, 0
2, 81440, Note_off_c, 1, 71, 0
2, 81480, Note_on_c, 1, 48, 127
2, 81480, Note_on_c, 1, 62, 127
2, 81480, Note_on_c, 1, 65, 127
2, 81480, Note_on_c, 1, 71, 127
2, 81800, Note_off_c, 1, 48, 0
2, 81800, Note_off_c, 1, 62, 0
2, 81800, Note_off_c, 1, 65, 0
2, 81800, Note_off_c, 1, 71, 0
2, 81840, Note_on_c, 1, 48, 127
2, 81840, Note_on_c, 1, 62, 127
2, 81840, Note_on_c, 1, 65, 127
2, 81840, Note_on_c, 1, 71, 127
2, 82120, Note_off_c, 1, 48, 0
2, 82200, Note_on_c, 1, 43, 127
2, 82320, Note_off_c, 1, 43, 0
2, 82320, Note_off_c, 1, 62, 0
2, 82320, Note_off_c, 1, 65, 0
2, 82320, Note_off_c, 1, 71, 0
2, 82360, Note_on_c, 1, 43, 127
2, 82360, Note_on_c, 1, 62, 127
2, 82360, Note_on_c, 1, 65, 127
2, 82360, Note_on_c, 1, 71, 127
2, 82520, Note_off_c, 1, 43, 0
2, 82560, Note_off_c, 1, 62, 0
2, 82560, Note_off_c, 1, 65, 0
2, 82560, Note_off_c, 1, 71, 0
2, 82600, Note_on_c, 1, 43, 127
2, 82600, Note_on_c, 1, 62, 127
2, 82600, Note_on_c, 1, 65, 127
2, 82600, Note_on_c, 1, 71, 127
2, 82880, Note_off_c, 1, 43, 0
2, 82920, Note_off_c, 1, 62, 0
2, 82920, Note_off_c, 1, 65, 0
2, 82920, Note_off_c, 1, 71, 0
2, 82960, Note_on_c, 1, 43, 127
2, 82960, Note_on_c, 1, 62, 127
2, 82960, Note_on_c, 1, 65, 127
2, 82960, Note_on_c, 1, 71, 127
2, 83280, Note_off_c, 1, 43, 0
2, 83280, Note_off_c, 1, 62, 0
2, 83280, Note_off_c, 1, 65, 0
2, 83280, Note_off_c, 1, 71, 0
2, 83320, Note_on_c, 1, 48, 127
2, 83320, Note_on_c, 1, 64, 127
2, 83320, Note_on_c, 1, 67, 127
2, 83640, Note_off_c, 1, 48, 0
2, 83640, Note_off_c, 1, 64, 0
2, 83640, Note_off_c, 1, 67, 0
2, 83680, Note_on_c, 1, 41, 127
2, 83680, Note_on_c, 1, 57, 127
2, 83680, Note_on_c, 1, 65, 127
2, 84360, Note_off_c, 1, 41, 0
2, 84360, Note_off_c, 1, 57, 0
2, 84360, Note_off_c, 1, 65, 0
2, 84440, Note_on_c, 1, 37, 127
2, 84440, Note_on_c, 1, 44, 127
2, 84440, Note_on_c, 1, 49, 127
2, 84440, Note_on_c, 1, 73, 127
2, 84440, Note_on_c, 1, 76, 127
2, 84440, Note_on_c, 1, 85, 127
2, 84640, Note_on_c, 1, 71, 127
2, 84640, Note_off_c, 1, 73, 0
2, 84640, Note_on_c, 1, 83, 127
2, 84640, Note_off_c, 1, 85, 0
2, 84720, Note_off_c, 1, 71, 0
2, 84720, Note_on_c, 1, 73, 127
2, 84720, Note_off_c, 1, 83, 0
2, 84720, Note_on_c, 1, 85, 127
2, 84800, Note_on_c, 1, 71, 127
2, 84800, Note_off_c, 1, 73, 0
2, 84800, Note_on_c, 1, 83, 127
2, 84800, Note_off_c, 1, 85, 0
2, 85080, Note_off_c, 1, 37, 0
2, 85080, Note_off_c, 1, 44, 0
2, 85080, Note_off_c, 1, 49, 0
2, 85080, Note_off_c, 1, 71, 0
2, 85080, Note_off_c, 1, 76, 0
2, 85080, Note_off_c, 1, 83, 0
2, 85120, Note_on_c, 1, 42, 127
2, 85120, Note_on_c, 1, 43, 127
2, 85120, Note_on_c, 1, 59, 127
2, 85120, Note_on_c, 1, 63, 127
2, 85120, Note_on_c, 1, 69, 127
2, 85120, Note_on_c, 1, 71, 127
2, 85160, Note_on_c, 1, 34, 127
2, 85160, Note_off_c, 1, 42, 0
2, 85160, Note_off_c, 1, 43, 0
2, 85160, Note_on_c, 1, 46, 127
2, 85160, Note_on_c, 1, 54, 127
2, 85160, Note_off_c, 1, 59, 0
2, 85160, Note_off_c, 1, 63, 0
2, 85160, Note_on_c, 1, 66, 127
2, 85160, Note_off_c, 1, 69, 0
2, 85160, Note_off_c, 1, 71, 0
2, 85160, Note_on_c, 1, 78, 127
2, 85200, Note_off_c, 1, 34, 0
2, 85200, Note_off_c, 1, 46, 0
2, 85200, Note_on_c, 1, 51, 127
2, 85200, Note_off_c, 1, 54, 0
2, 85200, Note_on_c, 1, 62, 127
2, 85200, Note_off_c, 1, 66, 0
2, 85200, Note_on_c, 1, 74, 127
2, 85200, Note_on_c, 1, 77, 127
2, 85200, Note_off_c, 1, 78, 0
2, 85200, Note_on_c, 1, 82, 127
2, 85240, Note_on_c, 1, 34, 127
2, 85240, Note_on_c, 1, 46, 127
2, 85240, Note_off_c, 1, 51, 0
2, 85240, Note_on_c, 1, 54, 127
2, 85240, Note_off_c, 1, 62, 0
2, 85240, Note_on_c, 1, 66, 127
2, 85240, Note_off_c, 1, 74, 0
2, 85240, Note_off_c, 1, 77, 0
2, 85240, Note_on_c, 1, 78, 127
2, 85240, Note_off_c, 1, 82, 0
2, 85440, Note_off_c, 1, 34, 0
2, 85440, Note_off_c, 1, 46, 0
2, 85440, Note_off_c, 1, 54, 0
2, 85440, Note_off_c, 1, 66, 0
2, 85440, Note_off_c, 1, 78, 0
2, 85480, Note_on_c, 1, 36, 127
2, 85480, Note_on_c, 1, 44, 127
2, 85480, Note_on_c, 1, 48, 127
2, 85480, Note_on_c, 1, 66, 127
2, 85480, Note_on_c, 1, 68, 127
2, 85640, Note_off_c, 1, 66, 0
2, 85640, Note_off_c, 1, 68, 0
2, 85680, Note_on_c, 1, 66, 127
2, 85680, Note_on_c, 1, 68, 127
2, 85800, Note_off_c, 1, 66, 0
2, 85800, Note_off_c, 1, 68, 0
2, 85840, Note_on_c, 1, 66, 127
2, 85840, Note_on_c, 1, 68, 127
2, 86160, Note_off_c, 1, 66, 0
2, 86200, Note_on_c, 1, 56, 127
2, 86400, Note_off_c, 1, 36, 0
2, 86400, Note_off_c, 1, 44, 0
2, 86400, Note_off_c, 1, 48, 0
2, 86400, Note_off_c, 1, 56, 0
2, 86400, Note_off_c, 1, 68, 0
2, 86440, Note_on_c, 1, 36, 127
2, 86440, Note_on_c, 1, 44, 127
2, 86440, Note_on_c, 1, 48, 127
2, 86440, Note_on_c, 1, 56, 127
2, 86440, Note_on_c, 1, 68, 127
2, 86480, Note_off_c, 1, 56, 0
2, 86520, Note_on_c, 1, 33, 127
2, 86520, Note_off_c, 1, 36, 0
2, 86520, Note_on_c, 1, 37, 127
2, 86520, Note_on_c, 1, 40, 127
2, 86520, Note_off_c, 1, 44, 0
2, 86520, Note_on_c, 1, 45, 127
2, 86520, Note_off_c, 1, 48, 0
2, 86520, Note_on_c, 1, 57, 127
2, 86520, Note_on_c, 1, 61, 127
2, 86520, Note_on_c, 1, 64, 127
2, 86520, Note_off_c, 1, 68, 0
2, 86520, Note_on_c, 1, 69, 127
2, 86560, Note_off_c, 1, 33, 0
2, 86560, Note_off_c, 1, 37, 0
2, 86560, Note_off_c, 1, 40, 0
2, 86560, Note_off_c, 1, 45, 0
2, 86560, Note_off_c, 1, 57, 0
2, 86560, Note_off_c, 1, 61, 0
2, 86560, Note_off_c, 1, 64, 0
2, 86560, Note_off_c, 1, 69, 0
2, 86600, Note_on_c, 1, 35, 127
2, 86600, Note_on_c, 1, 51, 127
2, 86600, Note_on_c, 1, 54, 127
2, 86600, Note_on_c, 1, 59, 127
2, 86600, Note_on_c, 1, 63, 127
2, 86640, Note_on_c, 1, 47, 127
2, 86640, Note_off_c, 1, 51, 0
2, 86640, Note_off_c, 1, 54, 0
2, 86640, Note_on_c, 1, 56, 127
2, 86640, Note_off_c, 1, 59, 0
2, 86640, Note_off_c, 1, 63, 0
2, 86640, Note_on_c, 1, 80, 127
2, 86640, Note_on_c, 1, 86, 127
2, 86640, Note_on_c, 1, 92, 127
2, 86720, Note_off_c, 1, 35, 0
2, 86720, Note_on_c, 1, 43, 127
2, 86720, Note_off_c, 1, 47, 0
2, 86720, Note_off_c, 1, 56, 0
2, 86720, Note_off_c, 1, 80, 0
2, 86720, Note_on_c, 1, 84, 127
2, 86720, Note_off_c, 1, 86, 0
2, 86720, Note_on_c, 1, 87, 127
2, 86720, Note_off_c, 1, 92, 0
2, 86760, Note_on_c, 1, 34, 127
2, 86760, Note_on_c, 1, 41, 127
2, 86760, Note_off_c, 1, 43, 0
2, 86760, Note_on_c, 1, 63, 127
2, 86760, Note_off_c, 1, 84, 0
2, 86760, Note_off_c, 1, 87, 0
2, 86920, Note_off_c, 1, 34, 0
2, 86920, Note_off_c, 1, 41, 0
2, 86920, Note_off_c, 1, 63, 0
2, 86960, Note_on_c, 1, 32, 127
2, 86960, Note_on_c, 1, 44, 127
2, 86960, Note_on_c, 1, 63, 127
2, 87120, Note_off_c, 1, 32, 0
2, 87120, Note_on_c, 1, 42, 127
2, 87120, Note_off_c, 1, 44, 0
2, 87120, Note_on_c, 1, 54, 127
2, 87120, Note_on_c, 1, 72, 127
2, 87120, Note_on_c, 1, 75, 127
2, 87280, Note_off_c, 1, 42, 0
2, 87280, Note_off_c, 1, 54, 0
2, 87280, Note_off_c, 1, 63, 0
2, 87280, Note_off_c, 1, 72, 0
2, 87280, Note_off_c, 1, 75, 0
2, 87320, Note_on_c, 1, 35, 127
2, 87320, Note_on_c, 1, 47, 127
2, 87320, Note_on_c, 1, 57, 127
2, 87320, Note_on_c, 1, 63, 127
2, 87480, Note_off_c, 1, 63, 0
2, 87480, Note_on_c, 1, 66, 127
2, 87600, Note_off_c, 1, 66, 0
2, 87640, Note_on_c, 1, 66, 127
2, 87800, Note_off_c, 1, 66, 0
2, 87840, Note_on_c, 1, 64, 127
2, 87960, Note_off_c, 1, 35, 0
2, 87960, Note_off_c, 1, 47, 0
2, 87960, Note_off_c, 1, 57, 0
2, 87960, Note_off_c, 1, 64, 0
2, 88000, Note_on_c, 1, 40, 127
2, 88000, Note_on_c, 1, 47, 127
2, 88000, Note_on_c, 1, 56, 127
2, 88000, Note_on_c, 1, 64, 127
2, 88600, Note_off_c, 1, 40, 0
2, 88600, Note_off_c, 1, 47, 0
2, 88600, Note_off_c, 1, 56, 0
2, 88600, Note_off_c, 1, 64, 0
2, 88640, Note_on_c, 1, 40, 127
2, 88640, Note_on_c, 1, 47, 127
2, 88640, Note_on_c, 1, 56, 127
2, 88640, Note_on_c, 1, 64, 127
2, 88680, Note_off_c, 1, 40, 0
2, 88680, Note_off_c, 1, 47, 0
2, 88680, Note_off_c, 1, 56, 0
2, 88680, Note_off_c, 1, 64, 0
2, 88720, Note_on_c, 1, 40, 127
2, 88720, Note_on_c, 1, 47, 127
2, 88720, Note_on_c, 1, 56, 127
2, 88720, Note_on_c, 1, 64, 127
2, 89400, Note_off_c, 1, 40, 0
2, 89400, Note_off_c, 1, 47, 0
2, 89400, Note_off_c, 1, 56, 0
2, 89400, Note_off_c, 1, 64, 0
2, 89440, Note_on_c, 1, 40, 127
2, 89440, Note_on_c, 1, 47, 127
2, 89440, Note_on_c, 1, 56, 127
2, 89440, Note_on_c, 1, 64, 127
2, 90480, Note_off_c, 1, 40, 0
2, 90480, Note_off_c, 1, 47, 0
2, 90480, Note_off_c, 1, 56, 0
2, 90480, Note_off_c, 1, 64, 0
2, 90560, Note_on_c, 1, 40, 127
2, 90560, Note_on_c, 1, 47, 127
2, 90560, Note_on_c, 1, 56, 127
2, 90560, Note_on_c, 1, 64, 127
2, 91880, Note_off_c, 1, 40, 0
2, 91880, Note_off_c, 1, 47, 0
2, 91880, Note_off_c, 1, 56, 0
2, 91880, Note_off_c, 1, 64, 0
2, 91920, Note_on_c, 1, 49, 127
2, 91920, Note_on_c, 1, 56, 127
2, 91920, Note_on_c, 1, 59, 127
2, 91920, Note_on_c, 1, 63, 127
2, 91920, Note_on_c, 1, 66, 127
2, 91920, Note_on_c, 1, 68, 127
2, 92240, Note_off_c, 1, 49, 0
2, 92240, Note_on_c, 1, 52, 127
2, 92240, Note_off_c, 1, 56, 0
2, 92240, Note_on_c, 1, 57, 127
2, 92240, Note_off_c, 1, 59, 0
2, 92240, Note_on_c, 1, 61, 127
2, 92240, Note_off_c, 1, 63, 0
2, 92240, Note_off_c, 1, 66, 0
2, 92240, Note_off_c, 1, 68, 0
2, 92280, Note_on_c, 1, 49, 127
2, 92280, Note_off_c, 1, 52, 0
2, 92280, Note_on_c, 1, 56, 127
2, 92280, Note_off_c, 1, 57, 0
2, 92280, Note_on_c, 1, 59, 127
2, 92280, Note_off_c, 1, 61, 0
2, 92280, Note_on_c, 1, 63, 127
2, 92280, Note_on_c, 1, 66, 127
2, 92280, Note_on_c, 1, 68, 127
2, 92480, Note_off_c, 1, 49, 0
2, 92480, Note_off_c, 1, 56, 0
2, 92480, Note_off_c, 1, 59, 0
2, 92480, Note_off_c, 1, 63, 0
2, 92480, Note_off_c, 1, 66, 0
2, 92480, Note_off_c, 1, 68, 0
2, 92520, Note_on_c, 1, 49, 127
2, 92520, Note_on_c, 1, 56, 127
2, 92520, Note_on_c, 1, 59, 127
2, 92520, Note_on_c, 1, 63, 127
2, 92520, Note_on_c, 1, 66, 127
2, 92520, Note_on_c, 1, 68, 127
2, 92640, Note_off_c, 1, 49, 0
2, 92640, Note_off_c, 1, 56, 0
2, 92640, Note_off_c, 1, 59, 0
2, 92640, Note_off_c, 1, 63, 0
2, 92640, Note_off_c, 1, 66, 0
2, 92640, Note_off_c, 1, 68, 0
2, 92680, Note_on_c, 1, 44, 127
2, 92680, Note_on_c, 1, 53, 127
2, 92680, Note_on_c, 1, 56, 127
2, 92680, Note_on_c, 1, 68, 127
2, 93000, Note_off_c, 1, 56, 0
2, 93000, Note_off_c, 1, 68, 0
2, 93040, Note_on_c, 1, 65, 127
2, 93040, Note_on_c, 1, 68, 127
2, 93320, Note_off_c, 1, 53, 0
2, 93320, Note_off_c, 1, 65, 0
2, 93320, Note_off_c, 1, 68, 0
2, 93360, Note_on_c, 1, 60, 127
2, 93360, Note_on_c, 1, 65, 127
2, 93360, Note_on_c, 1, 68, 127
2, 93680, Note_off_c, 1, 44, 0
2, 93680, Note_off_c, 1, 60, 0
2, 93680, Note_off_c, 1, 65, 0
2, 93680, Note_off_c, 1, 68, 0
2, 93720, Note_on_c, 1, 44, 127
2, 93720, Note_on_c, 1, 53, 127
2, 93720, Note_on_c, 1, 61, 127
2, 94040, Note_off_c, 1, 53, 0
2, 94040, Note_off_c, 1, 61, 0
2, 94080, Note_on_c, 1, 42, 127
2, 94080, Note_off_c, 1, 44, 0
2, 94080, Note_on_c, 1, 65, 127
2, 94080, Note_on_c, 1, 71, 127
2, 94280, Note_off_c, 1, 42, 0
2, 94280, Note_on_c, 1, 63, 127
2, 94280, Note_off_c, 1, 65, 0
2, 94280, Note_on_c, 1, 69, 127
2, 94280, Note_off_c, 1, 71, 0
2, 94280, Note_on_c, 1, 73, 127
2, 94280, Note_on_c, 1, 76, 127
2, 94280, Note_on_c, 1, 80, 127
2, 94320, Note_on_c, 1, 42, 127
2, 94320, Note_off_c, 1, 63, 0
2, 94320, Note_on_c, 1, 65, 127
2, 94320, Note_off_c, 1, 69, 0
2, 94320, Note_on_c, 1, 71, 127
2, 94320, Note_off_c, 1, 73, 0
2, 94320, Note_off_c, 1, 76, 0
2, 94320, Note_off_c, 1, 80, 0
2, 94400, Note_off_c, 1, 42, 0
2, 94400, Note_off_c, 1, 65, 0
2, 94400, Note_off_c, 1, 71, 0
2, 94480, Note_on_c, 1, 48, 127
2, 94480, Note_on_c, 1, 55, 127
2, 94480, Note_on_c, 1, 65, 127
2, 94480, Note_on_c, 1, 72, 127
2, 94480, Note_on_c, 1, 79, 127
2, 94720, Note_on_c, 1, 71, 127
2, 94720, Note_off_c, 1, 72, 0
2, 94720, Note_on_c, 1, 75, 127
2, 94720, Note_off_c, 1, 79, 0
2, 94760, Note_off_c, 1, 48, 0
2, 94760, Note_off_c, 1, 55, 0
2, 94760, Note_off_c, 1, 65, 0
2, 94760, Note_off_c, 1, 71, 0
2, 94760, Note_off_c, 1, 75, 0
2, 94800, Note_on_c, 1, 48, 127
2, 94800, Note_on_c, 1, 55, 127
2, 94800, Note_on_c, 1, 65, 127
2, 94800, Note_on_c, 1, 72, 127
2, 94800, Note_on_c, 1, 79, 127
2, 95000, Note_off_c, 1, 72, 0
2, 95000, Note_off_c, 1, 79, 0
2, 95160, Note_off_c, 1, 55, 0
2, 95160, Note_on_c, 1, 56, 127
2, 95160, Note_off_c, 1, 65, 0
2, 95160, Note_on_c, 1, 78, 127
2, 95480, Note_off_c, 1, 48, 0
2, 95480, Note_on_c, 1, 49, 127
2, 95480, Note_off_c, 1, 56, 0
2, 95480, Note_off_c, 1, 78, 0
2, 95520, Note_on_c, 1, 56, 127
2, 95520, Note_on_c, 1, 77, 127
2, 95800, Note_off_c, 1, 56, 0
2, 95840, Note_off_c, 1, 49, 0
2, 95880, Note_on_c, 1, 56, 127
2, 95880, Note_on_c, 1, 65, 127
2, 95880, Note_on_c, 1, 70, 127
2, 95880, Note_on_c, 1, 73, 127
2, 95880, Note_off_c, 1, 77, 0
2, 95880, Note_on_c, 1, 80, 127
2, 96200, Note_off_c, 1, 56, 0
2, 96200, Note_off_c, 1, 65, 0
2, 96200, Note_off_c, 1, 70, 0
2, 96200, Note_off_c, 1, 73, 0
2, 96200, Note_off_c, 1, 80, 0
2, 96240, Note_on_c, 1, 56, 127
2, 96240, Note_on_c, 1, 77, 127
2, 96560, Note_off_c, 1, 56, 0
2, 96560, Note_off_c, 1, 77, 0
2, 96640, Note_on_c, 1, 49, 127
2, 96640, Note_on_c, 1, 77, 127
2, 96920, Note_off_c, 1, 49, 0
2, 96960, Note_on_c, 1, 44, 127
2, 97280, Note_off_c, 1, 44, 0
2, 97320, Note_on_c, 1, 44, 127
2, 97640, Note_off_c, 1, 44, 0
2, 97680, Note_on_c, 1, 53, 127
2, 97680, Note_on_c, 1, 59, 127
2, 97680, Note_on_c, 1, 65, 127
2, 98000, Note_off_c, 1, 53, 0
2, 98000, Note_off_c, 1, 59, 0
2, 98000, Note_off_c, 1, 65, 0
2, 98000, Note_off_c, 1, 77, 0
2, 98040, Note_on_c, 1, 44, 127
2, 98040, Note_on_c, 1, 60, 127
2, 98040, Note_on_c, 1, 75, 127
2, 98360, Note_off_c, 1, 60, 0
2, 98360, Note_off_c, 1, 75, 0
2, 98400, Note_on_c, 1, 60, 127
2, 98400, Note_on_c, 1, 75, 127
2, 98720, Note_off_c, 1, 44, 0
2, 98720, Note_off_c, 1, 60, 0
2, 98720, Note_off_c, 1, 75, 0
2, 98800, Note_on_c, 1, 44, 127
2, 98800, Note_on_c, 1, 71, 127
2, 99080, Note_off_c, 1, 44, 0
2, 99080, Note_off_c, 1, 71, 0
2, 99120, Note_on_c, 1, 53, 127
2, 99120, Note_on_c, 1, 61, 127
2, 99120, Note_on_c, 1, 73, 127
2, 99440, Note_off_c, 1, 53, 0
2, 99440, Note_off_c, 1, 61, 0
2, 99480, Note_on_c, 1, 54, 127
2, 99480, Note_on_c, 1, 61, 127
2, 99480, Note_off_c, 1, 73, 0
2, 99480, Note_on_c, 1, 75, 127
2, 99760, Note_off_c, 1, 75, 0
2, 99800, Note_off_c, 1, 54, 0
2, 99800, Note_off_c, 1, 61, 0
2, 99800, Note_on_c, 1, 73, 127
2, 99840, Note_on_c, 1, 44, 127
2, 100160, Note_off_c, 1, 44, 0
2, 100160, Note_off_c, 1, 73, 0
2, 100200, Note_on_c, 1, 53, 127
2, 100200, Note_on_c, 1, 73, 127
2, 100480, Note_off_c, 1, 53, 0
2, 100560, Note_on_c, 1, 34, 127
2, 100840, Note_off_c, 1, 34, 0
2, 100920, Note_off_c, 1, 73, 0
2, 100960, Note_on_c, 1, 73, 127
2, 101240, Note_off_c, 1, 73, 0
2, 101280, Note_on_c, 1, 44, 127
2, 101600, Note_off_c, 1, 44, 0
2, 101640, Note_on_c, 1, 49, 127
2, 102000, Note_on_c, 1, 68, 127
2, 102320, Note_off_c, 1, 49, 0
2, 102360, Note_on_c, 1, 49, 127
2, 102360, Note_on_c, 1, 65, 127
2, 102360, Note_off_c, 1, 68, 0
2, 102680, Note_off_c, 1, 49, 0
2, 102720, Note_on_c, 1, 49, 127
2, 102720, Note_on_c, 1, 58, 127
2, 102960, Note_off_c, 1, 49, 0
2, 102960, Note_off_c, 1, 58, 0
2, 102960, Note_off_c, 1, 65, 0
2, 103000, Note_on_c, 1, 49, 127
2, 103000, Note_on_c, 1, 58, 127
2, 103000, Note_on_c, 1, 65, 127
2, 103040, Note_off_c, 1, 49, 0
2, 103080, Note_on_c, 1, 49, 127
2, 103400, Note_off_c, 1, 49, 0
2, 103400, Note_off_c, 1, 65, 0
2, 103440, Note_on_c, 1, 37, 127
2, 103440, Note_on_c, 1, 63, 127
2, 103680, Note_off_c, 1, 37, 0
2, 103720, Note_on_c, 1, 37, 127
2, 103760, Note_off_c, 1, 37, 0
2, 103760, Note_off_c, 1, 58, 0
2, 103760, Note_off_c, 1, 63, 0
2, 103800, Note_on_c, 1, 51, 127
2, 103800, Note_on_c, 1, 66, 127
2, 104120, Note_off_c, 1, 51, 0
2, 104120, Note_off_c, 1, 66, 0
2, 104160, Note_on_c, 1, 37, 127
2, 104160, Note_on_c, 1, 65, 127
2, 104440, Note_off_c, 1, 37, 0
2, 104480, Note_on_c, 1, 49, 127
2, 104800, Note_off_c, 1, 65, 0
2, 104840, Note_on_c, 1, 56, 127
2, 105160, Note_off_c, 1, 49, 0
2, 105160, Note_off_c, 1, 56, 0
2, 105200, Note_on_c, 1, 49, 127
2, 105200, Note_on_c, 1, 56, 127
2, 105920, Note_off_c, 1, 49, 0
2, 105920, Note_off_c, 1, 56, 0
2, 105960, Note_on_c, 1, 44, 127
2, 105960, Note_on_c, 1, 49, 127
2, 106280, Note_off_c, 1, 44, 0
2, 106280, Note_off_c, 1, 49, 0
2, 106320, Note_on_c, 1, 49, 127
2, 106320, Note_on_c, 1, 53, 127
2, 106320, Note_on_c, 1, 61, 127
2, 106640, Note_off_c, 1, 49, 0
2, 106640, Note_off_c, 1, 53, 0
2, 106640, Note_off_c, 1, 61, 0
2, 106680, Note_on_c, 1, 44, 127
2, 106680, Note_on_c, 1, 60, 127
2, 107000, Note_off_c, 1, 44, 0
2, 107000, Note_off_c, 1, 60, 0
2, 107080, Note_on_c, 1, 37, 127
2, 107080, Note_on_c, 1, 65, 127
2, 107360, Note_off_c, 1, 65, 0
2, 107400, Note_on_c, 1, 73, 127
2, 107400, Note_on_c, 1, 77, 127
2, 107720, Note_off_c, 1, 73, 0
2, 107720, Note_off_c, 1, 77, 0
2, 107760, Note_on_c, 1, 71, 127
2, 107760, Note_on_c, 1, 77, 127
2, 108080, Note_off_c, 1, 37, 0
2, 108080, Note_off_c, 1, 71, 0
2, 108080, Note_off_c, 1, 77, 0
2, 108120, Note_on_c, 1, 37, 127
2, 108120, Note_on_c, 1, 71, 127
2, 108440, Note_off_c, 1, 71, 0
2, 108480, Note_on_c, 1, 53, 127
2, 108480, Note_on_c, 1, 65, 127
2, 108800, Note_off_c, 1, 53, 0
2, 108800, Note_off_c, 1, 65, 0
2, 108840, Note_on_c, 1, 53, 127
2, 108840, Note_on_c, 1, 65, 127
2, 109080, Note_off_c, 1, 37, 0
2, 109080, Note_off_c, 1, 53, 0
2, 109080, Note_off_c, 1, 65, 0
2, 109120, Note_on_c, 1, 37, 127
2, 109120, Note_on_c, 1, 53, 127
2, 109120, Note_on_c, 1, 65, 127
2, 109160, Note_off_c, 1, 53, 0
2, 109200, Note_on_c, 1, 59, 127
2, 109520, Note_off_c, 1, 37, 0
2, 109520, Note_off_c, 1, 59, 0
2, 109520, Note_on_c, 1, 68, 127
2, 109560, Note_on_c, 1, 37, 127
2, 109560, Note_off_c, 1, 68, 0
2, 109560, Note_on_c, 1, 71, 127
2, 109880, Note_off_c, 1, 37, 0
2, 109880, Note_off_c, 1, 65, 0
2, 109880, Note_off_c, 1, 71, 0
2, 109920, Note_on_c, 1, 37, 127
2, 109920, Note_on_c, 1, 68, 127
2, 110240, Note_off_c, 1, 37, 0
2, 110280, Note_on_c, 1, 37, 127
2, 110280, Note_on_c, 1, 75, 127
2, 110560, Note_off_c, 1, 37, 0
2, 110560, Note_off_c, 1, 75, 0
2, 110600, Note_on_c, 1, 49, 127
2, 110600, Note_on_c, 1, 53, 127
2, 110600, Note_on_c, 1, 59, 127
2, 110920, Note_off_c, 1, 49, 0
2, 110920, Note_off_c, 1, 53, 0
2, 110920, Note_off_c, 1, 59, 0
2, 110960, Note_on_c, 1, 49, 127
2, 110960, Note_on_c, 1, 53, 127
2, 110960, Note_on_c, 1, 59, 127
2, 111280, Note_off_c, 1, 49, 0
2, 111280, Note_off_c, 1, 53, 0
2, 111280, Note_off_c, 1, 59, 0
2, 111320, Note_off_c, 1, 68, 0
2, 111360, Note_on_c, 1, 51, 127
2, 111360, Note_on_c, 1, 68, 127
2, 111640, Note_off_c, 1, 51, 0
2, 111680, Note_on_c, 1, 56, 127
2, 112000, Note_off_c, 1, 56, 0
2, 112040, Note_on_c, 1, 49, 127
2, 112360, Note_off_c, 1, 49, 0
2, 112360, Note_off_c, 1, 68, 0
2, 112400, Note_on_c, 1, 68, 127
2, 112760, Note_on_c, 1, 49, 127
2, 113080, Note_off_c, 1, 49, 0
2, 113120, Note_on_c, 1, 49, 127
2, 113440, Note_off_c, 1, 49, 0
2, 113480, Note_on_c, 1, 32, 127
2, 113600, Note_off_c, 1, 32, 0
2, 113600, Note_off_c, 1, 68, 0
2, 113640, Note_on_c, 1, 32, 127
2, 113640, Note_on_c, 1, 68, 127
2, 113800, Note_off_c, 1, 32, 0
2, 113840, Note_on_c, 1, 56, 127
2, 114160, Note_off_c, 1, 56, 0
2, 114200, Note_on_c, 1, 61, 127
2, 114200, Note_on_c, 1, 65, 127
2, 114520, Note_off_c, 1, 61, 0
2, 114520, Note_off_c, 1, 65, 0
2, 114560, Note_on_c, 1, 61, 127
2, 114880, Note_off_c, 1, 61, 0
2, 114880, Note_off_c, 1, 68, 0
2, 114920, Note_on_c, 1, 56, 127
2, 114920, Note_on_c, 1, 73, 127
2, 115040, Note_off_c, 1, 73, 0
2, 115080, Note_on_c, 1, 71, 127
2, 115240, Note_off_c, 1, 56, 0
2, 115240, Note_off_c, 1, 71, 0
2, 115280, Note_on_c, 1, 49, 127
2, 115280, Note_on_c, 1, 68, 127
2, 115400, Note_off_c, 1, 68, 0
2, 115440, Note_on_c, 1, 61, 127
2, 115600, Note_off_c, 1, 49, 0
2, 115600, Note_off_c, 1, 61, 0
2, 115680, Note_on_c, 1, 49, 127
2, 115680, Note_on_c, 1, 68, 127
2, 115800, Note_off_c, 1, 68, 0
2, 115840, Note_on_c, 1, 61, 127
2, 115960, Note_off_c, 1, 49, 0
2, 115960, Note_off_c, 1, 61, 0
2, 116000, Note_on_c, 1, 47, 127
2, 116000, Note_on_c, 1, 75, 127
2, 116320, Note_off_c, 1, 47, 0
2, 116360, Note_on_c, 1, 51, 127
2, 116680, Note_off_c, 1, 51, 0
2, 116720, Note_on_c, 1, 46, 127
2, 117000, Note_off_c, 1, 46, 0
2, 117040, Note_on_c, 1, 63, 127
2, 117040, Note_on_c, 1, 73, 127
2, 117040, Note_off_c, 1, 75, 0
2, 117360, Note_off_c, 1, 63, 0
2, 117360, Note_off_c, 1, 73, 0
2, 117440, Note_on_c, 1, 59, 127
2, 117440, Note_on_c, 1, 75, 127
2, 117720, Note_off_c, 1, 59, 0
2, 117720, Note_off_c, 1, 75, 0
2, 117760, Note_on_c, 1, 51, 127
2, 117760, Note_on_c, 1, 71, 127
2, 118080, Note_off_c, 1, 51, 0
2, 118080, Note_off_c, 1, 71, 0
2, 118120, Note_on_c, 1, 54, 127
2, 118120, Note_on_c, 1, 71, 127
2, 118440, Note_off_c, 1, 54, 0
2, 118480, Note_on_c, 1, 56, 127
2, 118800, Note_off_c, 1, 56, 0
2, 118840, Note_on_c, 1, 54, 127
2, 119160, Note_off_c, 1, 54, 0
2, 119200, Note_on_c, 1, 59, 127
2, 119520, Note_off_c, 1, 59, 0
2, 119520, Note_off_c, 1, 71, 0
2, 119600, Note_on_c, 1, 68, 127
2, 119920, Note_off_c, 1, 68, 0
2, 119960, Note_on_c, 1, 51, 127
2, 119960, Note_on_c, 1, 68, 127
2, 120000, Note_off_c, 1, 51, 0
2, 120000, Note_off_c, 1, 68, 0
2, 120040, End_track
3, 0, Start_track
3, 0, Title_t, "MIDI"
3, 1536, End_track
0, 0, End_of_file
