0, 0, Header, 1, 3, 192
1, 0, Start_track
1, 0, Time_signature, 4, 2, 24, 8
1, 0, Tempo, 500000
1, 120040, End_track
2, 0, Start_track
2, 0, Text_t, "random instrument: random person i dunno whatev"
2, 0, Title_t, "Track 1"
2, 0, Note_on_c, 1, 40, 127
2, 0, Note_on_c, 1, 48, 127
2, 0, Note_on_c, 1, 56, 127
2, 0, Note_on_c, 1, 60, 127
2, 120, Note_off_c, 1, 40, 0
2, 120, Note_off_c, 1, 48, 0
2, 120, Note_off_c, 1, 56, 0
2, 120, Note_off_c, 1, 60, 0
2, 160, Note_on_c, 1, 40, 127
2, 160, Note_on_c, 1, 48, 127
2, 160, Note_on_c, 1, 56, 127
2, 160, Note_on_c, 1, 60, 127
2, 200, Note_on_c, 1, 35, 127
2, 200, Note_on_c, 1, 39, 127
2, 200, Note_off_c, 1, 40, 0
2, 200, Note_on_c, 1, 47, 127
2, 200, Note_off_c, 1, 48, 0
2, 200, Note_on_c, 1, 50, 127
2, 200, Note_off_c, 1, 56, 0
2, 200, Note_off_c, 1, 60, 0
2, 240, Note_off_c, 1, 35, 0
2, 240, Note_off_c, 1, 39, 0
2, 240, Note_off_c, 1, 47, 0
2, 240, Note_off_c, 1, 50, 0
2, 240, Note_on_c, 1, 74, 127
2, 240, Note_on_c, 1, 77, 127
2, 240, Note_on_c, 1, 80, 127
2, 240, Note_on_c, 1, 83, 127
2, 520, Note_off_c, 1, 74, 0
2, 520, Note_off_c, 1, 77, 0
2, 520, Note_off_c, 1, 80, 0
2, 520, Note_off_c, 1, 83, 0
2, 14960, Note_on_c, 1, 35, 127
2, 15120, Note_off_c, 1, 35, 0
2, 18240, Note_on_c, 1, 40, 127
2, 18240, Note_on_c, 1, 52, 127
2, 18240, Note_on_c, 1, 64, 127
2, 19000, Note_off_c, 1, 40, 0
2, 19000, Note_off_c, 1, 52, 0
2, 19000, Note_off_c, 1, 64, 0
2, 19040, Note_on_c, 1, 37, 127
2, 19040, Note_on_c, 1, 49, 127
2, 19040, Note_on_c, 1, 61, 127
2, 19800, Note_off_c, 1, 37, 0
2, 19800, Note_off_c, 1, 49, 0
2, 19800, Note_off_c, 1, 61, 0
2, 19840, Note_on_c, 1, 33, 127
2, 19840, Note_on_c, 1, 45, 127
2, 19840, Note_on_c, 1, 57, 127
2, 21120, Note_off_c, 1, 33, 0
2, 21120, Note_off_c, 1, 45, 0
2, 21120, Note_off_c, 1, 57, 0
2, 21160, Note_on_c, 1, 33, 127
2, 21160, Note_on_c, 1, 45, 127
2, 21160, Note_on_c, 1, 57, 127
2, 21400, Note_off_c, 1, 33, 0
2, 21400, Note_off_c, 1, 45, 0
2, 21400, Note_off_c, 1, 57, 0
2, 32600, Note_on_c, 1, 57, 127
2, 32600, Note_on_c, 1, 73, 127
2, 33120, Note_off_c, 1, 57, 0
2, 33160, Note_on_c, 1, 50, 127
2, 34280, Note_off_c, 1, 73, 0
2, 34280, Note_on_c, 1, 74, 127
2, 34320, Note_off_c, 1, 50, 0
2, 34320, Note_off_c, 1, 74, 0
2, 34360, Note_on_c, 1, 50, 127
2, 34360, Note_on_c, 1, 69, 127
2, 34960, Note_off_c, 1, 69, 0
2, 35000, Note_on_c, 1, 59, 127
2, 35000, Note_on_c, 1, 62, 127
2, 35200, Note_on_c, 1, 67, 127
2, 35560, Note_off_c, 1, 59, 0
2, 35560, Note_off_c, 1, 62, 0
2, 35560, Note_off_c, 1, 67, 0
2, 35880, Note_off_c, 1, 50, 0
2, 35920, Note_on_c, 1, 72, 127
2, 36160, Note_off_c, 1, 72, 0
2, 36200, Note_on_c, 1, 71, 127
2, 36440, Note_off_c, 1, 71, 0
2, 36480, Note_on_c, 1, 71, 127
2, 36520, Note_off_c, 1, 71, 0
2, 36560, Note_on_c, 1, 72, 127
2, 37120, Note_off_c, 1, 72, 0
2, 37160, Note_on_c, 1, 69, 127
2, 37720, Note_off_c, 1, 69, 0
2, 37760, Note_on_c, 1, 71, 127
2, 38280, Note_off_c, 1, 71, 0
2, 38320, Note_on_c, 1, 43, 127
2, 38520, Note_off_c, 1, 43, 0
2, 38560, Note_on_c, 1, 43, 127
2, 39280, Note_off_c, 1, 43, 0
2, 39320, Note_on_c, 1, 71, 127
2, 40480, Note_off_c, 1, 71, 0
2, 40560, Note_on_c, 1, 71, 127
2, 40920, Note_off_c, 1, 71, 0
2, 40960, Note_on_c, 1, 79, 127
2, 41560, Note_on_c, 1, 40, 127
2, 41920, Note_off_c, 1, 40, 0
2, 41960, Note_on_c, 1, 69, 127
2, 42120, Note_off_c, 1, 69, 0
2, 42120, Note_off_c, 1, 79, 0
2, 42160, Note_on_c, 1, 81, 127
2, 42760, Note_off_c, 1, 81, 0
2, 42800, Note_on_c, 1, 38, 127
2, 42800, Note_on_c, 1, 84, 127
2, 43120, Note_on_c, 1, 72, 127
2, 43120, Note_off_c, 1, 84, 0
2, 43160, Note_off_c, 1, 38, 0
2, 43160, Note_off_c, 1, 72, 0
2, 43200, Note_on_c, 1, 78, 127
2, 43600, Note_on_c, 1, 47, 127
2, 43960, Note_off_c, 1, 47, 0
2, 44000, Note_on_c, 1, 50, 127
2, 44360, Note_off_c, 1, 50, 0
2, 44400, Note_on_c, 1, 60, 127
2, 44760, Note_off_c, 1, 60, 0
2, 44760, Note_off_c, 1, 78, 0
2, 44840, Note_on_c, 1, 78, 127
2, 45240, Note_on_c, 1, 47, 127
2, 45520, Note_off_c, 1, 47, 0
2, 45640, Note_on_c, 1, 50, 127
2, 46000, Note_off_c, 1, 50, 0
2, 46040, Note_on_c, 1, 59, 127
2, 46400, Note_off_c, 1, 59, 0
2, 46400, Note_off_c, 1, 78, 0
2, 46440, Note_on_c, 1, 79, 127
2, 46800, Note_off_c, 1, 79, 0
2, 46840, Note_on_c, 1, 79, 127
2, 47680, Note_on_c, 1, 47, 127
2, 47680, Note_on_c, 1, 57, 127
2, 47680, Note_on_c, 1, 62, 127
2, 47680, Note_on_c, 1, 68, 127
2, 47680, Note_on_c, 1, 71, 127
2, 47680, Note_off_c, 1, 79, 0
2, 47800, Note_off_c, 1, 47, 0
2, 47800, Note_on_c, 1, 55, 127
2, 47800, Note_off_c, 1, 57, 0
2, 47800, Note_on_c, 1, 61, 127
2, 47800, Note_off_c, 1, 62, 0
2, 47800, Note_off_c, 1, 68, 0
2, 47800, Note_on_c, 1, 70, 127
2, 47800, Note_off_c, 1, 71, 0
2, 47800, Note_on_c, 1, 79, 127
2, 47800, Note_on_c, 1, 82, 127
2, 47840, Note_on_c, 1, 47, 127
2, 47840, Note_off_c, 1, 55, 0
2, 47840, Note_on_c, 1, 57, 127
2, 47840, Note_off_c, 1, 61, 0
2, 47840, Note_on_c, 1, 62, 127
2, 47840, Note_on_c, 1, 68, 127
2, 47840, Note_off_c, 1, 70, 0
2, 47840, Note_on_c, 1, 71, 127
2, 47840, Note_off_c, 1, 79, 0
2, 47840, Note_off_c, 1, 82, 0
2, 47880, Note_on_c, 1, 45, 127
2, 47880, Note_off_c, 1, 47, 0
2, 47880, Note_off_c, 1, 62, 0
2, 47880, Note_off_c, 1, 68, 0
2, 47880, Note_off_c, 1, 71, 0
2, 47880, Note_on_c, 1, 72, 127
2, 47880, Note_on_c, 1, 76, 127
2, 48240, Note_off_c, 1, 45, 0
2, 48240, Note_off_c, 1, 57, 0
2, 48240, Note_off_c, 1, 72, 0
2, 48240, Note_off_c, 1, 76, 0
2, 48280, Note_on_c, 1, 45, 127
2, 48280, Note_on_c, 1, 52, 127
2, 48280, Note_on_c, 1, 73, 127
2, 48880, Note_off_c, 1, 45, 0
2, 48880, Note_off_c, 1, 52, 0
2, 48880, Note_off_c, 1, 73, 0
2, 48920, Note_on_c, 1, 45, 127
2, 48920, Note_on_c, 1, 52, 127
2, 48920, Note_on_c, 1, 73, 127
2, 49480, Note_off_c, 1, 45, 0
2, 49480, Note_off_c, 1, 52, 0
2, 49480, Note_off_c, 1, 73, 0
2, 49520, Note_on_c, 1, 45, 127
2, 49520, Note_on_c, 1, 57, 127
2, 49520, Note_on_c, 1, 73, 127
2, 50080, Note_off_c, 1, 45, 0
2, 50080, Note_off_c, 1, 57, 0
2, 50120, Note_on_c, 1, 39, 127
2, 50120, Note_on_c, 1, 51, 127
2, 50120, Note_on_c, 1, 67, 127
2, 50120, Note_off_c, 1, 73, 0
2, 50680, Note_off_c, 1, 39, 0
2, 50680, Note_off_c, 1, 51, 0
2, 50720, Note_on_c, 1, 38, 127
2, 50720, Note_on_c, 1, 50, 127
2, 50720, Note_off_c, 1, 67, 0
2, 50720, Note_on_c, 1, 71, 127
2, 51120, Note_off_c, 1, 38, 0
2, 51120, Note_off_c, 1, 50, 0
2, 51120, Note_off_c, 1, 71, 0
2, 51160, Note_on_c, 1, 38, 127
2, 51160, Note_on_c, 1, 50, 127
2, 51160, Note_on_c, 1, 71, 127
2, 51360, Note_on_c, 1, 62, 127
2, 51920, Note_off_c, 1, 38, 0
2, 51920, Note_off_c, 1, 50, 0
2, 51920, Note_off_c, 1, 62, 0
2, 51920, Note_off_c, 1, 71, 0
2, 51960, Note_on_c, 1, 38, 127
2, 51960, Note_on_c, 1, 62, 127
2, 52560, Note_on_c, 1, 55, 127
2, 53080, Note_off_c, 1, 38, 0
2, 53120, Note_off_c, 1, 55, 0
2, 53120, Note_off_c, 1, 62, 0
2, 53200, Note_on_c, 1, 38, 127
2, 53200, Note_on_c, 1, 57, 127
2, 53200, Note_on_c, 1, 60, 127
2, 53760, Note_off_c, 1, 60, 0
2, 54360, Note_off_c, 1, 38, 0
2, 54360, Note_off_c, 1, 57, 0
2, 54400, Note_on_c, 1, 62, 127
2, 55400, Note_off_c, 1, 62, 0
2, 55440, Note_on_c, 1, 62, 127
2, 55600, Note_off_c, 1, 62, 0
2, 55640, Note_on_c, 1, 50, 127
2, 56800, Note_off_c, 1, 50, 0
2, 56840, Note_on_c, 1, 45, 127
2, 57640, Note_off_c, 1, 45, 0
2, 57680, Note_on_c, 1, 45, 127
2, 58040, Note_off_c, 1, 45, 0
2, 58080, Note_on_c, 1, 38, 127
2, 60040, Note_off_c, 1, 38, 0
2, 60120, Note_on_c, 1, 38, 127
2, 61280, Note_off_c, 1, 38, 0
2, 61320, Note_on_c, 1, 38, 127
2, 62400, Note_off_c, 1, 38, 0
2, 62440, Note_on_c, 1, 38, 127
2, 62520, Note_off_c, 1, 38, 0
2, 62560, Note_on_c, 1, 48, 127
2, 63160, Note_on_c, 1, 50, 127
2, 63720, Note_off_c, 1, 50, 0
2, 63760, Note_on_c, 1, 50, 127
2, 64000, Note_off_c, 1, 50, 0
2, 64320, Note_off_c, 1, 48, 0
2, 64360, Note_on_c, 1, 48, 127
2, 64560, Note_off_c, 1, 48, 0
2, 64600, Note_on_c, 1, 48, 127
2, 65600, Note_on_c, 1, 83, 127
2, 66160, Note_off_c, 1, 48, 0
2, 66160, Note_off_c, 1, 83, 0
2, 66200, Note_on_c, 1, 43, 127
2, 66200, Note_on_c, 1, 91, 127
2, 66600, Note_off_c, 1, 43, 0
2, 66600, Note_off_c, 1, 91, 0
2, 66640, Note_on_c, 1, 43, 127
2, 66640, Note_on_c, 1, 91, 127
2, 67400, Note_off_c, 1, 43, 0
2, 67400, Note_off_c, 1, 91, 0
2, 67440, Note_on_c, 1, 46, 127
2, 67440, Note_on_c, 1, 91, 127
2, 68600, Note_off_c, 1, 46, 0
2, 68600, Note_off_c, 1, 91, 0
2, 68680, Note_on_c, 1, 41, 127
2, 68680, Note_on_c, 1, 86, 127
2, 69240, Note_off_c, 1, 86, 0
2, 69280, Note_on_c, 1, 86, 127
2, 69680, Note_on_c, 1, 38, 127
2, 69680, Note_off_c, 1, 41, 0
2, 69840, Note_off_c, 1, 86, 0
2, 69880, Note_on_c, 1, 79, 127
2, 70440, Note_off_c, 1, 38, 0
2, 70440, Note_off_c, 1, 79, 0
2, 70480, Note_on_c, 1, 46, 127
2, 70480, Note_on_c, 1, 79, 127
2, 70880, Note_off_c, 1, 46, 0
2, 70880, Note_off_c, 1, 79, 0
2, 70920, Note_on_c, 1, 46, 127
2, 70920, Note_on_c, 1, 79, 127
2, 71080, Note_off_c, 1, 46, 0
2, 71120, Note_on_c, 1, 35, 127
2, 71120, Note_on_c, 1, 67, 127
2, 71360, Note_off_c, 1, 79, 0
2, 71400, Note_on_c, 1, 79, 127
2, 71680, Note_off_c, 1, 35, 0
2, 71680, Note_off_c, 1, 67, 0
2, 71680, Note_off_c, 1, 79, 0
2, 71720, Note_on_c, 1, 38, 127
2, 71720, Note_on_c, 1, 79, 127
2, 72880, Note_off_c, 1, 38, 0
2, 72880, Note_off_c, 1, 79, 0
2, 72960, Note_on_c, 1, 45, 127
2, 72960, Note_on_c, 1, 78, 127
2, 73520, Note_off_c, 1, 45, 0
2, 73520, Note_on_c, 1, 50, 127
2, 73560, Note_on_c, 1, 38, 127
2, 73560, Note_off_c, 1, 50, 0
2, 73560, Note_on_c, 1, 74, 127
2, 74120, Note_off_c, 1, 38, 0
2, 74120, Note_off_c, 1, 74, 0
2, 74120, Note_off_c, 1, 78, 0
2, 74160, Note_on_c, 1, 43, 127
2, 74160, Note_on_c, 1, 76, 127
2, 74720, Note_off_c, 1, 43, 0
2, 74720, Note_on_c, 1, 55, 127
2, 74720, Note_on_c, 1, 58, 127
2, 74720, Note_on_c, 1, 62, 127
2, 74720, Note_on_c, 1, 67, 127
2, 74720, Note_on_c, 1, 70, 127
2, 74720, Note_off_c, 1, 76, 0
2, 74760, Note_on_c, 1, 43, 127
2, 74760, Note_on_c, 1, 52, 127
2, 74760, Note_off_c, 1, 55, 0
2, 74760, Note_off_c, 1, 58, 0
2, 74760, Note_on_c, 1, 59, 127
2, 74760, Note_off_c, 1, 62, 0
2, 74760, Note_off_c, 1, 67, 0
2, 74760, Note_off_c, 1, 70, 0
2, 74760, Note_on_c, 1, 71, 127
2, 74960, Note_off_c, 1, 43, 0
2, 74960, Note_off_c, 1, 52, 0
2, 74960, Note_off_c, 1, 59, 0
2, 74960, Note_off_c, 1, 71, 0
2, 75000, Note_on_c, 1, 43, 127
2, 75000, Note_on_c, 1, 52, 127
2, 75000, Note_on_c, 1, 59, 127
2, 75000, Note_on_c, 1, 71, 127
2, 75320, Note_off_c, 1, 52, 0
2, 75320, Note_off_c, 1, 59, 0
2, 75320, Note_off_c, 1, 71, 0
2, 75360, Note_on_c, 1, 74, 127
2, 75920, Note_off_c, 1, 43, 0
2, 75920, Note_off_c, 1, 74, 0
2, 75960, Note_on_c, 1, 38, 127
2, 75960, Note_on_c, 1, 69, 127
2, 76560, Note_on_c, 1, 57, 127
2, 76760, Note_off_c, 1, 38, 0
2, 76760, Note_off_c, 1, 57, 0
2, 76760, Note_off_c, 1, 69, 0
2, 76800, Note_on_c, 1, 38, 127
2, 76800, Note_on_c, 1, 57, 127
2, 76800, Note_on_c, 1, 69, 127
2, 77120, Note_off_c, 1, 57, 0
2, 77160, Note_off_c, 1, 38, 0
2, 77160, Note_off_c, 1, 69, 0
2, 77200, Note_on_c, 1, 38, 127
2, 77200, Note_on_c, 1, 74, 127
2, 77200, Note_on_c, 1, 78, 127
2, 77760, Note_off_c, 1, 74, 0
2, 77800, Note_on_c, 1, 45, 127
2, 77800, Note_on_c, 1, 74, 127
2, 78320, Note_off_c, 1, 38, 0
2, 78320, Note_off_c, 1, 45, 0
2, 78320, Note_off_c, 1, 74, 0
2, 78320, Note_off_c, 1, 78, 0
2, 78400, Note_on_c, 1, 38, 127
2, 78400, Note_on_c, 1, 45, 127
2, 78400, Note_on_c, 1, 74, 127
2, 78400, Note_on_c, 1, 78, 127
2, 78800, Note_off_c, 1, 38, 0
2, 78800, Note_off_c, 1, 45, 0
2, 78800, Note_off_c, 1, 74, 0
2, 78800, Note_off_c, 1, 78, 0
2, 78840, Note_on_c, 1, 38, 127
2, 78840, Note_on_c, 1, 45, 127
2, 78840, Note_on_c, 1, 74, 127
2, 78840, Note_on_c, 1, 78, 127
2, 79560, Note_on_c, 1, 33, 127
2, 79560, Note_off_c, 1, 38, 0
2, 79560, Note_off_c, 1, 45, 0
2, 79560, Note_off_c, 1, 74, 0
2, 79560, Note_off_c, 1, 78, 0
2, 79600, Note_off_c, 1, 33, 0
2, 79640, Note_on_c, 1, 38, 127
2, 79640, Note_on_c, 1, 45, 127
2, 79640, Note_on_c, 1, 74, 127
2, 79640, Note_on_c, 1, 78, 127
2, 80720, Note_off_c, 1, 38, 0
2, 80720, Note_off_c, 1, 45, 0
2, 80720, Note_off_c, 1, 74, 0
2, 80720, Note_off_c, 1, 78, 0
2, 80880, Note_on_c, 1, 38, 127
2, 80880, Note_on_c, 1, 45, 127
2, 80880, Note_on_c, 1, 74, 127
2, 80880, Note_on_c, 1, 78, 127
2, 81960, Note_off_c, 1, 38, 0
2, 81960, Note_off_c, 1, 45, 0
2, 81960, Note_off_c, 1, 74, 0
2, 81960, Note_off_c, 1, 78, 0
2, 82080, Note_on_c, 1, 38, 127
2, 82080, Note_on_c, 1, 45, 127
2, 82080, Note_on_c, 1, 74, 127
2, 82080, Note_on_c, 1, 78, 127
2, 82880, Note_off_c, 1, 38, 0
2, 82880, Note_off_c, 1, 45, 0
2, 82880, Note_off_c, 1, 74, 0
2, 82880, Note_off_c, 1, 78, 0
2, 82920, Note_on_c, 1, 38, 127
2, 82920, Note_on_c, 1, 45, 127
2, 82920, Note_on_c, 1, 74, 127
2, 82920, Note_on_c, 1, 78, 127
2, 83240, Note_off_c, 1, 38, 0
2, 83240, Note_off_c, 1, 45, 0
2, 83240, Note_off_c, 1, 74, 0
2, 83240, Note_off_c, 1, 78, 0
2, 83320, Note_on_c, 1, 38, 127
2, 83320, Note_on_c, 1, 45, 127
2, 83320, Note_on_c, 1, 74, 127
2, 83320, Note_on_c, 1, 78, 127
2, 84400, Note_off_c, 1, 38, 0
2, 84400, Note_off_c, 1, 45, 0
2, 84400, Note_off_c, 1, 74, 0
2, 84400, Note_off_c, 1, 78, 0
2, 84520, Note_on_c, 1, 38, 127
2, 84520, Note_on_c, 1, 45, 127
2, 84520, Note_on_c, 1, 74, 127
2, 84520, Note_on_c, 1, 78, 127
2, 84920, Note_off_c, 1, 38, 0
2, 84920, Note_off_c, 1, 45, 0
2, 84920, Note_off_c, 1, 74, 0
2, 84920, Note_off_c, 1, 78, 0
2, 84960, Note_on_c, 1, 38, 127
2, 84960, Note_on_c, 1, 45, 127
2, 84960, Note_on_c, 1, 74, 127
2, 84960, Note_on_c, 1, 78, 127
2, 85640, Note_off_c, 1, 38, 0
2, 85640, Note_off_c, 1, 45, 0
2, 85640, Note_off_c, 1, 74, 0
2, 85640, Note_off_c, 1, 78, 0
2, 85760, Note_on_c, 1, 38, 127
2, 85760, Note_on_c, 1, 45, 127
2, 85760, Note_on_c, 1, 74, 127
2, 85760, Note_on_c, 1, 78, 127
2, 86840, Note_off_c, 1, 38, 0
2, 86840, Note_off_c, 1, 45, 0
2, 86840, Note_off_c, 1, 74, 0
2, 86840, Note_off_c, 1, 78, 0
2, 87000, Note_on_c, 1, 67, 127
2, 87000, Note_on_c, 1, 72, 127
2, 87000, Note_on_c, 1, 76, 127
2, 87000, Note_on_c, 1, 88, 127
2, 87000, Note_on_c, 1, 96, 127
2, 87000, Note_on_c, 1, 100, 127
2, 87080, Note_on_c, 1, 35, 127
2, 87080, Note_on_c, 1, 42, 127
2, 87080, Note_on_c, 1, 64, 127
2, 87080, Note_on_c, 1, 70, 127
2, 87080, Note_off_c, 1, 72, 0
2, 87080, Note_on_c, 1, 73, 127
2, 87080, Note_off_c, 1, 76, 0
2, 87080, Note_off_c, 1, 88, 0
2, 87080, Note_off_c, 1, 96, 0
2, 87080, Note_off_c, 1, 100, 0
2, 87120, Note_off_c, 1, 35, 0
2, 87120, Note_off_c, 1, 42, 0
2, 87120, Note_off_c, 1, 64, 0
2, 87120, Note_off_c, 1, 70, 0
2, 87120, Note_on_c, 1, 72, 127
2, 87120, Note_off_c, 1, 73, 0
2, 87120, Note_on_c, 1, 76, 127
2, 87120, Note_on_c, 1, 88, 127
2, 87120, Note_on_c, 1, 96, 127
2, 87120, Note_on_c, 1, 100, 127
2, 87200, Note_on_c, 1, 31, 127
2, 87200, Note_on_c, 1, 43, 127
2, 87200, Note_off_c, 1, 67, 0
2, 87200, Note_off_c, 1, 72, 0
2, 87200, Note_off_c, 1, 76, 0
2, 87200, Note_on_c, 1, 86, 127
2, 87200, Note_off_c, 1, 88, 0
2, 87200, Note_on_c, 1, 94, 127
2, 87200, Note_off_c, 1, 96, 0
2, 87200, Note_on_c, 1, 98, 127
2, 87200, Note_off_c, 1, 100, 0
2, 87240, Note_off_c, 1, 31, 0
2, 87240, Note_off_c, 1, 43, 0
2, 87240, Note_on_c, 1, 50, 127
2, 87240, Note_on_c, 1, 56, 127
2, 87240, Note_off_c, 1, 86, 0
2, 87240, Note_off_c, 1, 94, 0
2, 87240, Note_off_c, 1, 98, 0
2, 87280, Note_on_c, 1, 48, 127
2, 87280, Note_off_c, 1, 50, 0
2, 87280, Note_on_c, 1, 52, 127
2, 87280, Note_on_c, 1, 55, 127
2, 87280, Note_off_c, 1, 56, 0
2, 87280, Note_on_c, 1, 60, 127
2, 87280, Note_on_c, 1, 88, 127
2, 87280, Note_on_c, 1, 91, 127
2, 87280, Note_on_c, 1, 96, 127
2, 87280, Note_on_c, 1, 100, 127
2, 87560, Note_off_c, 1, 48, 0
2, 87560, Note_off_c, 1, 52, 0
2, 87560, Note_off_c, 1, 55, 0
2, 87560, Note_off_c, 1, 60, 0
2, 87560, Note_on_c, 1, 85, 127
2, 87560, Note_off_c, 1, 88, 0
2, 87560, Note_off_c, 1, 96, 0
2, 87560, Note_off_c, 1, 100, 0
2, 87600, Note_on_c, 1, 41, 127
2, 87600, Note_on_c, 1, 44, 127
2, 87600, Note_on_c, 1, 48, 127
2, 87600, Note_on_c, 1, 53, 127
2, 87600, Note_on_c, 1, 80, 127
2, 87600, Note_on_c, 1, 84, 127
2, 87600, Note_off_c, 1, 85, 0
2, 87600, Note_on_c, 1, 89, 127
2, 87600, Note_off_c, 1, 91, 0
2, 87600, Note_on_c, 1, 92, 127
2, 89000, Note_off_c, 1, 41, 0
2, 89000, Note_off_c, 1, 44, 0
2, 89000, Note_off_c, 1, 48, 0
2, 89000, Note_off_c, 1, 53, 0
2, 89000, Note_off_c, 1, 80, 0
2, 89000, Note_off_c, 1, 84, 0
2, 89000, Note_off_c, 1, 89, 0
2, 89000, Note_off_c, 1, 92, 0
2, 89040, Note_on_c, 1, 41, 127
2, 89040, Note_on_c, 1, 44, 127
2, 89040, Note_on_c, 1, 48, 127
2, 89040, Note_on_c, 1, 53, 127
2, 89040, Note_on_c, 1, 80, 127
2, 89040, Note_on_c, 1, 84, 127
2, 89040, Note_on_c, 1, 89, 127
2, 89040, Note_on_c, 1, 92, 127
2, 89400, Note_off_c, 1, 41, 0
2, 89400, Note_off_c, 1, 44, 0
2, 89400, Note_off_c, 1, 48, 0
2, 89400, Note_off_c, 1, 53, 0
2, 89400, Note_off_c, 1, 80, 0
2, 89400, Note_off_c, 1, 84, 0
2, 89400, Note_off_c, 1, 89, 0
2, 89400, Note_off_c, 1, 92, 0
2, 89440, Note_on_c, 1, 65, 127
2, 89440, Note_on_c, 1, 68, 127
2, 89440, Note_on_c, 1, 73, 127
2, 89440, Note_on_c, 1, 80, 127
2, 89440, Note_on_c, 1, 85, 127
2, 90560, Note_off_c, 1, 65, 0
2, 90560, Note_off_c, 1, 68, 0
2, 90560, Note_off_c, 1, 73, 0
2, 90560, Note_off_c, 1, 80, 0
2, 90560, Note_off_c, 1, 85, 0
2, 90640, Note_on_c, 1, 42, 127
2, 90640, Note_on_c, 1, 54, 127
2, 90640, Note_on_c, 1, 66, 127
2, 90640, Note_on_c, 1, 78, 127
2, 91040, Note_off_c, 1, 42, 0
2, 91040, Note_off_c, 1, 54, 0
2, 91040, Note_off_c, 1, 66, 0
2, 91040, Note_off_c, 1, 78, 0
2, 91080, Note_on_c, 1, 42, 127
2, 91080, Note_on_c, 1, 54, 127
2, 91080, Note_on_c, 1, 66, 127
2, 91080, Note_on_c, 1, 78, 127
2, 91840, Note_off_c, 1, 42, 0
2, 91840, Note_off_c, 1, 54, 0
2, 91840, Note_off_c, 1, 66, 0
2, 91840, Note_off_c, 1, 78, 0
2, 91880, Note_on_c, 1, 39, 127
2, 91880, Note_on_c, 1, 51, 127
2, 91880, Note_on_c, 1, 63, 127
2, 91880, Note_on_c, 1, 75, 127
2, 93040, Note_off_c, 1, 39, 0
2, 93040, Note_off_c, 1, 51, 0
2, 93040, Note_off_c, 1, 63, 0
2, 93040, Note_off_c, 1, 75, 0
2, 93120, Note_on_c, 1, 39, 127
2, 93120, Note_on_c, 1, 51, 127
2, 93120, Note_on_c, 1, 63, 127
2, 93120, Note_on_c, 1, 75, 127
2, 94280, Note_off_c, 1, 39, 0
2, 94280, Note_off_c, 1, 51, 0
2, 94280, Note_off_c, 1, 63, 0
2, 94280, Note_off_c, 1, 75, 0
2, 94320, Note_on_c, 1, 35, 127
2, 94320, Note_on_c, 1, 47, 127
2, 94320, Note_on_c, 1, 59, 127
2, 94320, Note_on_c, 1, 71, 127
2, 94520, Note_off_c, 1, 35, 0
2, 94520, Note_off_c, 1, 47, 0
2, 94520, Note_off_c, 1, 59, 0
2, 94520, Note_off_c, 1, 71, 0
2, 95560, Note_on_c, 1, 40, 127
2, 95560, Note_on_c, 1, 52, 127
2, 95560, Note_on_c, 1, 64, 127
2, 95560, Note_on_c, 1, 76, 127
2, 96720, Note_off_c, 1, 40, 0
2, 96720, Note_off_c, 1, 52, 0
2, 96720, Note_off_c, 1, 64, 0
2, 96720, Note_off_c, 1, 76, 0
2, 96760, Note_on_c, 1, 35, 127
2, 96760, Note_on_c, 1, 47, 127
2, 96760, Note_on_c, 1, 59, 127
2, 96760, Note_on_c, 1, 71, 127
2, 96960, Note_off_c, 1, 35, 0
2, 96960, Note_off_c, 1, 47, 0
2, 96960, Note_off_c, 1, 59, 0
2, 96960, Note_off_c, 1, 71, 0
2, 98000, Note_on_c, 1, 40, 127
2, 98000, Note_on_c, 1, 52, 127
2, 98000, Note_on_c, 1, 64, 127
2, 98000, Note_on_c, 1, 76, 127
2, 99160, Note_off_c, 1, 40, 0
2, 99160, Note_off_c, 1, 52, 0
2, 99160, Note_off_c, 1, 64, 0
2, 99160, Note_off_c, 1, 76, 0
2, 99240, Note_on_c, 1, 35, 127
2, 99240, Note_on_c, 1, 47, 127
2, 99240, Note_on_c, 1, 59, 127
2, 99240, Note_on_c, 1, 71, 127
2, 99440, Note_off_c, 1, 35, 0
2, 99440, Note_off_c, 1, 47, 0
2, 99440, Note_off_c, 1, 59, 0
2, 99440, Note_off_c, 1, 71, 0
2, 100440, Note_on_c, 1, 40, 127
2, 100440, Note_on_c, 1, 52, 127
2, 100440, Note_on_c, 1, 64, 127
2, 100440, Note_on_c, 1, 76, 127
2, 101240, Note_off_c, 1, 40, 0
2, 101240, Note_off_c, 1, 52, 0
2, 101240, Note_off_c, 1, 64, 0
2, 101240, Note_off_c, 1, 76, 0
2, 101280, Note_on_c, 1, 40, 127
2, 101280, Note_on_c, 1, 52, 127
2, 101280, Note_on_c, 1, 64, 127
2, 101280, Note_on_c, 1, 76, 127
2, 102840, Note_off_c, 1, 40, 0
2, 102840, Note_off_c, 1, 52, 0
2, 102840, Note_off_c, 1, 64, 0
2, 102840, Note_off_c, 1, 76, 0
2, 102880, Note_on_c, 1, 40, 127
2, 102880, Note_on_c, 1, 52, 127
2, 102880, Note_on_c, 1, 64, 127
2, 102880, Note_on_c, 1, 76, 127
2, 103080, Note_off_c, 1, 40, 0
2, 103080, Note_off_c, 1, 52, 0
2, 103080, Note_off_c, 1, 64, 0
2, 103080, Note_off_c, 1, 76, 0
2, 104120, Note_on_c, 1, 40, 127
2, 104120, Note_on_c, 1, 52, 127
2, 104120, Note_on_c, 1, 64, 127
2, 104120, Note_on_c, 1, 76, 127
2, 104680, Note_off_c, 1, 40, 0
2, 104680, Note_off_c, 1, 52, 0
2, 104680, Note_off_c, 1, 64, 0
2, 104680, Note_off_c, 1, 76, 0
2, 104720, Note_on_c, 1, 41, 127
2, 104720, Note_on_c, 1, 53, 127
2, 104720, Note_on_c, 1, 65, 127
2, 104720, Note_on_c, 1, 77, 127
2, 105280, Note_off_c, 1, 41, 0
2, 105280, Note_off_c, 1, 53, 0
2, 105280, Note_off_c, 1, 65, 0
2, 105280, Note_off_c, 1, 77, 0
2, 105320, Note_on_c, 1, 40, 127
2, 105320, Note_on_c, 1, 52, 127
2, 105320, Note_on_c, 1, 64, 127
2, 105320, Note_on_c, 1, 76, 127
2, 105480, Note_off_c, 1, 40, 0
2, 105480, Note_off_c, 1, 52, 0
2, 105480, Note_off_c, 1, 64, 0
2, 105480, Note_off_c, 1, 76, 0
2, 105520, Note_on_c, 1, 40, 127
2, 105520, Note_on_c, 1, 52, 127
2, 105520, Note_on_c, 1, 64, 127
2, 105520, Note_on_c, 1, 76, 127
2, 105920, Note_off_c, 1, 40, 0
2, 105920, Note_off_c, 1, 52, 0
2, 105920, Note_off_c, 1, 64, 0
2, 105920, Note_off_c, 1, 76, 0
2, 105960, Note_on_c, 1, 41, 127
2, 105960, Note_on_c, 1, 53, 127
2, 105960, Note_on_c, 1, 65, 127
2, 105960, Note_on_c, 1, 77, 127
2, 106520, Note_off_c, 1, 41, 0
2, 106520, Note_off_c, 1, 53, 0
2, 106520, Note_off_c, 1, 65, 0
2, 106520, Note_off_c, 1, 77, 0
2, 106560, Note_on_c, 1, 40, 127
2, 106560, Note_on_c, 1, 52, 127
2, 106560, Note_on_c, 1, 64, 127
2, 106560, Note_on_c, 1, 76, 127
2, 106760, Note_off_c, 1, 40, 0
2, 106760, Note_off_c, 1, 52, 0
2, 106760, Note_off_c, 1, 64, 0
2, 106760, Note_off_c, 1, 76, 0
2, 107160, Note_on_c, 1, 40, 127
2, 107160, Note_on_c, 1, 52, 127
2, 107160, Note_on_c, 1, 64, 127
2, 107160, Note_on_c, 1, 76, 127
2, 107560, Note_off_c, 1, 40, 0
2, 107560, Note_off_c, 1, 52, 0
2, 107560, Note_off_c, 1, 64, 0
2, 107560, Note_off_c, 1, 76, 0
2, 107600, Note_on_c, 1, 40, 127
2, 107600, Note_on_c, 1, 52, 127
2, 107600, Note_on_c, 1, 64, 127
2, 107600, Note_on_c, 1, 76, 127
2, 107760, Note_off_c, 1, 40, 0
2, 107760, Note_off_c, 1, 52, 0
2, 107760, Note_off_c, 1, 64, 0
2, 107760, Note_off_c, 1, 76, 0
2, 107800, Note_on_c, 1, 37, 127
2, 107800, Note_on_c, 1, 49, 127
2, 107800, Note_on_c, 1, 61, 127
2, 107800, Note_on_c, 1, 73, 127
2, 108360, Note_off_c, 1, 37, 0
2, 108360, Note_off_c, 1, 49, 0
2, 108360, Note_off_c, 1, 61, 0
2, 108360, Note_off_c, 1, 73, 0
2, 108400, Note_on_c, 1, 35, 127
2, 108400, Note_on_c, 1, 47, 127
2, 108400, Note_on_c, 1, 59, 127
2, 108400, Note_on_c, 1, 71, 127
2, 108600, Note_off_c, 1, 35, 0
2, 108600, Note_off_c, 1, 47, 0
2, 108600, Note_off_c, 1, 59, 0
2, 108600, Note_off_c, 1, 71, 0
2, 109000, Note_on_c, 1, 33, 127
2, 109000, Note_on_c, 1, 45, 127
2, 109000, Note_on_c, 1, 57, 127
2, 109000, Note_on_c, 1, 69, 127
2, 109560, Note_off_c, 1, 33, 0
2, 109560, Note_off_c, 1, 45, 0
2, 109560, Note_off_c, 1, 57, 0
2, 109560, Note_off_c, 1, 69, 0
2, 109640, Note_on_c, 1, 33, 127
2, 109640, Note_on_c, 1, 45, 127
2, 109640, Note_on_c, 1, 57, 127
2, 109640, Note_on_c, 1, 69, 127
2, 109800, Note_off_c, 1, 33, 0
2, 109800, Note_off_c, 1, 45, 0
2, 109800, Note_off_c, 1, 57, 0
2, 109800, Note_off_c, 1, 69, 0
2, 110240, Note_on_c, 1, 42, 127
2, 110240, Note_on_c, 1, 57, 127
2, 110240, Note_on_c, 1, 69, 127
2, 110800, Note_off_c, 1, 42, 0
2, 110800, Note_off_c, 1, 57, 0
2, 110800, Note_off_c, 1, 69, 0
2, 110840, Note_on_c, 1, 45, 127
2, 110840, Note_on_c, 1, 57, 127
2, 110840, Note_on_c, 1, 69, 127
2, 111400, Note_off_c, 1, 45, 0
2, 111400, Note_off_c, 1, 57, 0
2, 111400, Note_off_c, 1, 69, 0
2, 111440, Note_on_c, 1, 34, 127
2, 111440, Note_on_c, 1, 46, 127
2, 111440, Note_on_c, 1, 58, 127
2, 111640, Note_off_c, 1, 34, 0
2, 111640, Note_off_c, 1, 46, 0
2, 111640, Note_off_c, 1, 58, 0
2, 111680, Note_on_c, 1, 34, 127
2, 111680, Note_on_c, 1, 46, 127
2, 111680, Note_on_c, 1, 58, 127
2, 112040, Note_off_c, 1, 34, 0
2, 112040, Note_off_c, 1, 46, 0
2, 112040, Note_off_c, 1, 58, 0
2, 112080, Note_on_c, 1, 34, 127
2, 112080, Note_on_c, 1, 46, 127
2, 112080, Note_on_c, 1, 58, 127
2, 112280, Note_off_c, 1, 34, 0
2, 112280, Note_off_c, 1, 46, 0
2, 112280, Note_off_c, 1, 58, 0
2, 113280, Note_on_c, 1, 43, 127
2, 113280, Note_on_c, 1, 55, 127
2, 113280, Note_on_c, 1, 67, 127
2, 113280, Note_on_c, 1, 79, 127
2, 113680, Note_off_c, 1, 43, 0
2, 113680, Note_off_c, 1, 55, 0
2, 113680, Note_off_c, 1, 67, 0
2, 113680, Note_off_c, 1, 79, 0
2, 113720, Note_on_c, 1, 43, 127
2, 113720, Note_on_c, 1, 55, 127
2, 113720, Note_on_c, 1, 67, 127
2, 113720, Note_on_c, 1, 79, 127
2, 114480, Note_off_c, 1, 43, 0
2, 114480, Note_off_c, 1, 55, 0
2, 114480, Note_off_c, 1, 67, 0
2, 114480, Note_off_c, 1, 79, 0
2, 114520, Note_on_c, 1, 41, 127
2, 114520, Note_on_c, 1, 53, 127
2, 114520, Note_on_c, 1, 65, 127
2, 114520, Note_on_c, 1, 77, 127
2, 115680, Note_off_c, 1, 41, 0
2, 115680, Note_off_c, 1, 53, 0
2, 115680, Note_off_c, 1, 65, 0
2, 115680, Note_off_c, 1, 77, 0
2, 115760, Note_on_c, 1, 40, 127
2, 115760, Note_on_c, 1, 52, 127
2, 115760, Note_on_c, 1, 64, 127
2, 115760, Note_on_c, 1, 76, 127
2, 116920, Note_off_c, 1, 40, 0
2, 116920, Note_off_c, 1, 52, 0
2, 116920, Note_off_c, 1, 64, 0
2, 116920, Note_off_c, 1, 76, 0
2, 116960, Note_on_c, 1, 41, 127
2, 116960, Note_on_c, 1, 53, 127
2, 116960, Note_on_c, 1, 65, 127
2, 116960, Note_on_c, 1, 77, 127
2, 117160, Note_off_c, 1, 41, 0
2, 117160, Note_off_c, 1, 53, 0
2, 117160, Note_off_c, 1, 65, 0
2, 117160, Note_off_c, 1, 77, 0
2, 117880, Note_on_c, 1, 43, 127
2, 117880, Note_on_c, 1, 67, 127
2, 118160, Note_off_c, 1, 43, 0
2, 118160, Note_off_c, 1, 67, 0
2, 118200, Note_on_c, 1, 50, 127
2, 118200, Note_on_c, 1, 59, 127
2, 118440, Note_off_c, 1, 50, 0
2, 118440, Note_off_c, 1, 59, 0
2, 118480, Note_on_c, 1, 43, 127
2, 118480, Note_on_c, 1, 52, 127
2, 118720, Note_off_c, 1, 43, 0
2, 118720, Note_off_c, 1, 52, 0
2, 118800, Note_on_c, 1, 50, 127
2, 118800, Note_on_c, 1, 59, 127
2, 119360, Note_off_c, 1, 50, 0
2, 119360, Note_off_c, 1, 59, 0
2, 119400, Note_on_c, 1, 50, 127
2, 119400, Note_on_c, 1, 59, 127
2, 119600, Note_off_c, 1, 50, 0
2, 119600, Note_off_c, 1, 59, 0
2, 119640, Note_on_c, 1, 50, 127
2, 119640, Note_on_c, 1, 59, 127
2, 119680, Note_off_c, 1, 50, 0
2, 119680, Note_off_c, 1, 59, 0
2, 119720, Note_on_c, 1, 43, 127
2, 119960, Note_off_c, 1, 43, 0
2, 120040, End_track
3, 0, Start_track
3, 0, Title_t, "MIDI"
3, 1536, End_track
0, 0, End_of_file
