0, 0, Header, 1, 3, 192
1, 0, Start_track
1, 0, Time_signature, 4, 2, 24, 8
1, 0, Tempo, 500000
1, 120040, End_track
2, 0, Start_track
2, 0, Text_t, "random instrument: random person i dunno whatev"
2, 0, Title_t, "Track 1"
2, 0, Note_on_c, 1, 40, 127
2, 0, Note_on_c, 1, 48, 127
2, 0, Note_on_c, 1, 56, 127
2, 0, Note_on_c, 1, 60, 127
2, 40, Note_off_c, 1, 40, 0
2, 40, Note_off_c, 1, 48, 0
2, 40, Note_on_c, 1, 55, 127
2, 40, Note_off_c, 1, 56, 0
2, 40, Note_off_c, 1, 60, 0
2, 40, Note_on_c, 1, 72, 127
2, 40, Note_on_c, 1, 75, 127
2, 40, Note_on_c, 1, 79, 127
2, 40, Note_on_c, 1, 84, 127
2, 80, Note_off_c, 1, 55, 0
2, 80, Note_off_c, 1, 72, 0
2, 80, Note_off_c, 1, 75, 0
2, 80, Note_off_c, 1, 79, 0
2, 80, Note_off_c, 1, 84, 0
2, 120, Note_on_c, 1, 50, 127
2, 120, Note_on_c, 1, 59, 127
2, 120, Note_on_c, 1, 62, 127
2, 120, Note_on_c, 1, 78, 127
2, 160, Note_off_c, 1, 50, 0
2, 160, Note_off_c, 1, 59, 0
2, 160, Note_on_c, 1, 60, 127
2, 160, Note_off_c, 1, 62, 0
2, 160, Note_on_c, 1, 66, 127
2, 160, Note_on_c, 1, 68, 127
2, 160, Note_off_c, 1, 78, 0
2, 160, Note_on_c, 1, 90, 127
2, 200, Note_on_c, 1, 35, 127
2, 200, Note_on_c, 1, 39, 127
2, 200, Note_on_c, 1, 47, 127
2, 200, Note_on_c, 1, 50, 127
2, 200, Note_off_c, 1, 60, 0
2, 200, Note_off_c, 1, 66, 0
2, 200, Note_off_c, 1, 68, 0
2, 200, Note_off_c, 1, 90, 0
2, 240, Note_off_c, 1, 35, 0
2, 240, Note_off_c, 1, 39, 0
2, 240, Note_off_c, 1, 47, 0
2, 240, Note_off_c, 1, 50, 0
2, 240, Note_on_c, 1, 51, 127
2, 240, Note_on_c, 1, 55, 127
2, 240, Note_on_c, 1, 58, 127
2, 240, Note_on_c, 1, 63, 127
2, 240, Note_on_c, 1, 82, 127
2, 240, Note_on_c, 1, 91, 127
2, 280, Note_off_c, 1, 51, 0
2, 280, Note_off_c, 1, 55, 0
2, 280, Note_off_c, 1, 58, 0
2, 280, Note_off_c, 1, 63, 0
2, 280, Note_on_c, 1, 76, 127
2, 280, Note_on_c, 1, 80, 127
2, 280, Note_off_c, 1, 82, 0
2, 280, Note_on_c, 1, 83, 127
2, 280, Note_on_c, 1, 89, 127
2, 280, Note_off_c, 1, 91, 0
2, 320, Note_on_c, 1, 58, 127
2, 320, Note_on_c, 1, 63, 127
2, 320, Note_on_c, 1, 66, 127
2, 320, Note_on_c, 1, 72, 127
2, 320, Note_on_c, 1, 75, 127
2, 320, Note_off_c, 1, 76, 0
2, 320, Note_off_c, 1, 80, 0
2, 320, Note_on_c, 1, 82, 127
2, 320, Note_off_c, 1, 83, 0
2, 320, Note_on_c, 1, 87, 127
2, 320, Note_off_c, 1, 89, 0
2, 360, Note_on_c, 1, 57, 127
2, 360, Note_off_c, 1, 58, 0
2, 360, Note_on_c, 1, 62, 127
2, 360, Note_off_c, 1, 63, 0
2, 360, Note_off_c, 1, 66, 0
2, 360, Note_off_c, 1, 72, 0
2, 360, Note_off_c, 1, 75, 0
2, 360, Note_off_c, 1, 82, 0
2, 360, Note_off_c, 1, 87, 0
2, 400, Note_off_c, 1, 57, 0
2, 400, Note_on_c, 1, 60, 127
2, 400, Note_off_c, 1, 62, 0
2, 400, Note_on_c, 1, 85, 127
2, 400, Note_on_c, 1, 88, 127
2, 440, Note_on_c, 1, 50, 127
2, 440, Note_on_c, 1, 57, 127
2, 440, Note_off_c, 1, 60, 0
2, 440, Note_on_c, 1, 65, 127
2, 440, Note_off_c, 1, 85, 0
2, 440, Note_off_c, 1, 88, 0
2, 440, Note_on_c, 1, 93, 127
2, 800, Note_off_c, 1, 50, 0
2, 800, Note_off_c, 1, 57, 0
2, 800, Note_off_c, 1, 65, 0
2, 800, Note_off_c, 1, 93, 0
2, 5240, Note_on_c, 1, 43, 127
2, 5240, Note_on_c, 1, 50, 127
2, 5240, Note_on_c, 1, 60, 127
2, 5240, Note_on_c, 1, 62, 127
2, 5240, Note_on_c, 1, 69, 127
2, 5480, Note_off_c, 1, 43, 0
2, 5480, Note_off_c, 1, 50, 0
2, 5480, Note_off_c, 1, 60, 0
2, 5480, Note_off_c, 1, 62, 0
2, 5480, Note_off_c, 1, 69, 0
2, 6120, Note_on_c, 1, 47, 127
2, 6120, Note_on_c, 1, 56, 127
2, 6120, Note_on_c, 1, 64, 127
2, 6120, Note_on_c, 1, 70, 127
2, 6160, Note_off_c, 1, 47, 0
2, 6160, Note_off_c, 1, 56, 0
2, 6160, Note_off_c, 1, 64, 0
2, 6160, Note_on_c, 1, 68, 127
2, 6160, Note_off_c, 1, 70, 0
2, 6160, Note_on_c, 1, 73, 127
2, 6160, Note_on_c, 1, 80, 127
2, 6160, Note_on_c, 1, 85, 127
2, 6160, Note_on_c, 1, 89, 127
2, 6200, Note_on_c, 1, 42, 127
2, 6200, Note_on_c, 1, 52, 127
2, 6200, Note_on_c, 1, 59, 127
2, 6200, Note_on_c, 1, 64, 127
2, 6200, Note_off_c, 1, 68, 0
2, 6200, Note_off_c, 1, 73, 0
2, 6200, Note_off_c, 1, 80, 0
2, 6200, Note_off_c, 1, 85, 0
2, 6200, Note_off_c, 1, 89, 0
2, 6240, Note_off_c, 1, 42, 0
2, 6240, Note_off_c, 1, 52, 0
2, 6240, Note_off_c, 1, 59, 0
2, 6240, Note_off_c, 1, 64, 0
2, 6240, Note_on_c, 1, 68, 127
2, 6240, Note_on_c, 1, 73, 127
2, 6240, Note_on_c, 1, 80, 127
2, 6240, Note_on_c, 1, 85, 127
2, 6240, Note_on_c, 1, 89, 127
2, 6280, Note_off_c, 1, 68, 0
2, 6280, Note_off_c, 1, 73, 0
2, 6280, Note_off_c, 1, 80, 0
2, 6280, Note_off_c, 1, 85, 0
2, 6280, Note_off_c, 1, 89, 0
2, 6320, Note_on_c, 1, 41, 127
2, 6320, Note_on_c, 1, 49, 127
2, 6320, Note_on_c, 1, 61, 127
2, 6320, Note_on_c, 1, 65, 127
2, 6320, Note_on_c, 1, 68, 127
2, 6320, Note_on_c, 1, 73, 127
2, 6320, Note_on_c, 1, 80, 127
2, 6720, Note_off_c, 1, 41, 0
2, 6720, Note_off_c, 1, 49, 0
2, 6720, Note_off_c, 1, 61, 0
2, 6720, Note_off_c, 1, 65, 0
2, 6720, Note_off_c, 1, 68, 0
2, 6720, Note_off_c, 1, 73, 0
2, 6720, Note_off_c, 1, 80, 0
2, 6760, Note_on_c, 1, 49, 127
2, 6760, Note_on_c, 1, 52, 127
2, 6760, Note_on_c, 1, 57, 127
2, 6760, Note_on_c, 1, 61, 127
2, 6760, Note_on_c, 1, 63, 127
2, 6960, Note_off_c, 1, 49, 0
2, 6960, Note_off_c, 1, 52, 0
2, 6960, Note_off_c, 1, 57, 0
2, 6960, Note_off_c, 1, 61, 0
2, 6960, Note_off_c, 1, 63, 0
2, 7000, Note_on_c, 1, 47, 127
2, 7000, Note_on_c, 1, 56, 127
2, 7000, Note_on_c, 1, 64, 127
2, 7000, Note_on_c, 1, 71, 127
2, 7000, Note_on_c, 1, 73, 127
2, 7200, Note_off_c, 1, 73, 0
2, 7240, Note_on_c, 1, 75, 127
2, 7360, Note_off_c, 1, 75, 0
2, 7360, Note_on_c, 1, 76, 127
2, 7560, Note_off_c, 1, 47, 0
2, 7560, Note_off_c, 1, 56, 0
2, 7560, Note_off_c, 1, 64, 0
2, 7560, Note_off_c, 1, 71, 0
2, 7560, Note_off_c, 1, 76, 0
2, 7600, Note_on_c, 1, 47, 127
2, 7600, Note_on_c, 1, 56, 127
2, 7600, Note_on_c, 1, 64, 127
2, 7600, Note_on_c, 1, 71, 127
2, 7600, Note_on_c, 1, 76, 127
2, 7680, Note_off_c, 1, 47, 0
2, 7680, Note_off_c, 1, 56, 0
2, 7680, Note_off_c, 1, 64, 0
2, 7680, Note_off_c, 1, 71, 0
2, 7680, Note_off_c, 1, 76, 0
2, 9400, Note_on_c, 1, 76, 127
2, 9400, Note_on_c, 1, 80, 127
2, 9680, Note_on_c, 1, 75, 127
2, 9680, Note_off_c, 1, 76, 0
2, 9680, Note_on_c, 1, 79, 127
2, 9680, Note_off_c, 1, 80, 0
2, 9720, Note_off_c, 1, 75, 0
2, 9720, Note_on_c, 1, 76, 127
2, 9720, Note_off_c, 1, 79, 0
2, 9720, Note_on_c, 1, 80, 127
2, 9800, Note_off_c, 1, 76, 0
2, 9800, Note_off_c, 1, 80, 0
2, 9840, Note_on_c, 1, 76, 127
2, 9840, Note_on_c, 1, 83, 127
2, 9840, Note_on_c, 1, 88, 127
2, 9840, Note_on_c, 1, 92, 127
2, 10200, Note_off_c, 1, 76, 0
2, 10200, Note_off_c, 1, 83, 0
2, 10640, Note_off_c, 1, 88, 0
2, 10640, Note_off_c, 1, 92, 0
2, 10680, Note_on_c, 1, 88, 127
2, 10680, Note_on_c, 1, 92, 127
2, 10720, Note_off_c, 1, 88, 0
2, 10720, Note_off_c, 1, 92, 0
2, 10760, Note_on_c, 1, 88, 127
2, 10760, Note_on_c, 1, 92, 127
2, 11120, Note_off_c, 1, 88, 0
2, 11120, Note_off_c, 1, 92, 0
2, 13400, Note_on_c, 1, 37, 127
2, 13400, Note_on_c, 1, 49, 127
2, 14560, Note_on_c, 1, 56, 127
2, 14920, Note_off_c, 1, 37, 0
2, 14920, Note_off_c, 1, 49, 0
2, 14960, Note_on_c, 1, 49, 127
2, 14960, Note_off_c, 1, 56, 0
2, 14960, Note_on_c, 1, 66, 127
2, 14960, Note_on_c, 1, 68, 127
2, 15720, Note_off_c, 1, 49, 0
2, 15760, Note_on_c, 1, 49, 127
2, 16120, Note_off_c, 1, 49, 0
2, 16120, Note_off_c, 1, 66, 0
2, 16120, Note_off_c, 1, 68, 0
2, 16200, Note_on_c, 1, 49, 127
2, 18160, Note_on_c, 1, 47, 127
2, 18160, Note_off_c, 1, 49, 0
2, 18200, Note_off_c, 1, 47, 0
2, 18200, Note_on_c, 1, 49, 127
2, 18360, Note_off_c, 1, 49, 0
2, 18400, Note_on_c, 1, 49, 127
2, 19040, Note_off_c, 1, 49, 0
2, 19080, Note_on_c, 1, 49, 127
2, 19080, Note_on_c, 1, 56, 127
2, 19080, Note_on_c, 1, 59, 127
2, 19080, Note_on_c, 1, 82, 127
2, 19440, Note_off_c, 1, 82, 0
2, 19480, Note_on_c, 1, 42, 127
2, 19480, Note_off_c, 1, 49, 0
2, 19480, Note_off_c, 1, 56, 0
2, 19480, Note_off_c, 1, 59, 0
2, 19480, Note_on_c, 1, 78, 127
2, 19480, Note_on_c, 1, 85, 127
2, 19520, Note_off_c, 1, 42, 0
2, 19520, Note_on_c, 1, 44, 127
2, 19520, Note_on_c, 1, 69, 127
2, 19520, Note_on_c, 1, 73, 127
2, 19520, Note_off_c, 1, 85, 0
2, 19560, Note_off_c, 1, 44, 0
2, 19560, Note_on_c, 1, 51, 127
2, 19560, Note_on_c, 1, 67, 127
2, 19560, Note_off_c, 1, 69, 0
2, 19560, Note_on_c, 1, 70, 127
2, 19560, Note_off_c, 1, 73, 0
2, 19560, Note_off_c, 1, 78, 0
2, 19560, Note_on_c, 1, 94, 127
2, 19600, Note_on_c, 1, 42, 127
2, 19600, Note_off_c, 1, 51, 0
2, 19600, Note_off_c, 1, 67, 0
2, 19600, Note_off_c, 1, 70, 0
2, 19640, Note_on_c, 1, 85, 127
2, 19640, Note_off_c, 1, 94, 0
2, 19680, Note_off_c, 1, 85, 0
2, 19680, Note_on_c, 1, 88, 127
2, 19840, Note_off_c, 1, 88, 0
2, 19880, Note_on_c, 1, 88, 127
2, 20040, Note_off_c, 1, 88, 0
2, 20080, Note_on_c, 1, 88, 127
2, 20120, Note_on_c, 1, 85, 127
2, 20120, Note_off_c, 1, 88, 0
2, 20200, Note_off_c, 1, 85, 0
2, 20200, Note_on_c, 1, 88, 127
2, 20240, Note_off_c, 1, 88, 0
2, 20280, Note_on_c, 1, 88, 127
2, 20440, Note_off_c, 1, 88, 0
2, 20480, Note_off_c, 1, 42, 0
2, 20520, Note_on_c, 1, 42, 127
2, 20520, Note_on_c, 1, 82, 127
2, 20680, Note_off_c, 1, 82, 0
2, 20720, Note_on_c, 1, 76, 127
2, 20880, Note_off_c, 1, 76, 0
2, 20920, Note_on_c, 1, 90, 127
2, 21080, Note_off_c, 1, 42, 0
2, 21080, Note_off_c, 1, 90, 0
2, 21120, Note_on_c, 1, 34, 127
2, 21120, Note_on_c, 1, 82, 127
2, 21280, Note_off_c, 1, 34, 0
2, 21280, Note_off_c, 1, 82, 0
2, 21320, Note_on_c, 1, 35, 127
2, 21480, Note_off_c, 1, 35, 0
2, 21520, Note_on_c, 1, 39, 127
2, 21520, Note_on_c, 1, 82, 127
2, 21680, Note_off_c, 1, 82, 0
2, 21720, Note_on_c, 1, 79, 127
2, 21880, Note_off_c, 1, 39, 0
2, 21880, Note_off_c, 1, 79, 0
2, 21920, Note_on_c, 1, 39, 127
2, 21920, Note_on_c, 1, 75, 127
2, 21920, Note_on_c, 1, 79, 127
2, 22280, Note_off_c, 1, 39, 0
2, 22280, Note_off_c, 1, 75, 0
2, 22280, Note_off_c, 1, 79, 0
2, 22320, Note_on_c, 1, 46, 127
2, 22320, Note_on_c, 1, 75, 127
2, 22320, Note_on_c, 1, 79, 127
2, 22640, Note_off_c, 1, 46, 0
2, 22640, Note_off_c, 1, 75, 0
2, 22640, Note_off_c, 1, 79, 0
2, 22680, Note_on_c, 1, 46, 127
2, 22680, Note_on_c, 1, 75, 127
2, 22680, Note_on_c, 1, 79, 127
2, 22720, Note_off_c, 1, 46, 0
2, 22720, Note_off_c, 1, 75, 0
2, 22720, Note_off_c, 1, 79, 0
2, 22760, Note_on_c, 1, 39, 127
2, 22760, Note_on_c, 1, 75, 127
2, 22760, Note_on_c, 1, 79, 127
2, 23120, Note_off_c, 1, 39, 0
2, 23120, Note_off_c, 1, 75, 0
2, 23120, Note_off_c, 1, 79, 0
2, 23160, Note_on_c, 1, 39, 127
2, 23160, Note_on_c, 1, 46, 127
2, 23160, Note_on_c, 1, 75, 127
2, 23160, Note_on_c, 1, 79, 127
2, 23520, Note_off_c, 1, 39, 0
2, 23520, Note_off_c, 1, 46, 0
2, 23520, Note_off_c, 1, 75, 0
2, 23520, Note_off_c, 1, 79, 0
2, 23560, Note_on_c, 1, 39, 127
2, 23560, Note_on_c, 1, 46, 127
2, 23560, Note_on_c, 1, 75, 127
2, 23560, Note_on_c, 1, 79, 127
2, 23920, Note_off_c, 1, 39, 0
2, 23920, Note_off_c, 1, 46, 0
2, 23920, Note_off_c, 1, 75, 0
2, 23920, Note_off_c, 1, 79, 0
2, 23960, Note_on_c, 1, 39, 127
2, 23960, Note_on_c, 1, 46, 127
2, 23960, Note_on_c, 1, 75, 127
2, 23960, Note_on_c, 1, 79, 127
2, 24320, Note_off_c, 1, 39, 0
2, 24320, Note_off_c, 1, 46, 0
2, 24320, Note_off_c, 1, 75, 0
2, 24320, Note_off_c, 1, 79, 0
2, 24360, Note_on_c, 1, 39, 127
2, 24360, Note_on_c, 1, 46, 127
2, 24360, Note_on_c, 1, 75, 127
2, 24360, Note_on_c, 1, 79, 127
2, 24720, Note_off_c, 1, 39, 0
2, 24720, Note_off_c, 1, 46, 0
2, 24720, Note_off_c, 1, 75, 0
2, 24720, Note_off_c, 1, 79, 0
2, 24800, Note_on_c, 1, 39, 127
2, 24800, Note_on_c, 1, 46, 127
2, 24800, Note_on_c, 1, 75, 127
2, 24800, Note_on_c, 1, 79, 127
2, 25160, Note_off_c, 1, 39, 0
2, 25160, Note_off_c, 1, 46, 0
2, 25160, Note_off_c, 1, 75, 0
2, 25160, Note_off_c, 1, 79, 0
2, 25200, Note_on_c, 1, 39, 127
2, 25200, Note_on_c, 1, 46, 127
2, 25200, Note_on_c, 1, 75, 127
2, 25200, Note_on_c, 1, 79, 127
2, 25560, Note_off_c, 1, 39, 0
2, 25560, Note_off_c, 1, 46, 0
2, 25560, Note_off_c, 1, 75, 0
2, 25560, Note_off_c, 1, 79, 0
2, 25600, Note_on_c, 1, 39, 127
2, 25600, Note_on_c, 1, 46, 127
2, 25600, Note_on_c, 1, 75, 127
2, 25600, Note_on_c, 1, 79, 127
2, 25960, Note_off_c, 1, 39, 0
2, 25960, Note_off_c, 1, 46, 0
2, 25960, Note_off_c, 1, 75, 0
2, 25960, Note_off_c, 1, 79, 0
2, 26000, Note_on_c, 1, 39, 127
2, 26000, Note_on_c, 1, 46, 127
2, 26000, Note_on_c, 1, 75, 127
2, 26000, Note_on_c, 1, 79, 127
2, 26360, Note_off_c, 1, 39, 0
2, 26360, Note_off_c, 1, 46, 0
2, 26360, Note_off_c, 1, 75, 0
2, 26360, Note_off_c, 1, 79, 0
2, 26400, Note_on_c, 1, 39, 127
2, 26400, Note_on_c, 1, 46, 127
2, 26400, Note_on_c, 1, 75, 127
2, 26400, Note_on_c, 1, 79, 127
2, 26760, Note_off_c, 1, 39, 0
2, 26760, Note_off_c, 1, 46, 0
2, 26760, Note_off_c, 1, 75, 0
2, 26760, Note_off_c, 1, 79, 0
2, 26840, Note_on_c, 1, 39, 127
2, 26840, Note_on_c, 1, 46, 127
2, 26840, Note_on_c, 1, 75, 127
2, 26840, Note_on_c, 1, 79, 127
2, 27200, Note_off_c, 1, 39, 0
2, 27200, Note_off_c, 1, 46, 0
2, 27200, Note_off_c, 1, 75, 0
2, 27200, Note_off_c, 1, 79, 0
2, 27240, Note_on_c, 1, 39, 127
2, 27240, Note_on_c, 1, 46, 127
2, 27240, Note_on_c, 1, 75, 127
2, 27240, Note_on_c, 1, 79, 127
2, 27600, Note_off_c, 1, 39, 0
2, 27600, Note_off_c, 1, 46, 0
2, 27600, Note_off_c, 1, 75, 0
2, 27600, Note_off_c, 1, 79, 0
2, 27640, Note_on_c, 1, 39, 127
2, 27640, Note_on_c, 1, 46, 127
2, 27640, Note_on_c, 1, 75, 127
2, 27640, Note_on_c, 1, 79, 127
2, 28000, Note_off_c, 1, 39, 0
2, 28000, Note_off_c, 1, 46, 0
2, 28000, Note_off_c, 1, 75, 0
2, 28000, Note_off_c, 1, 79, 0
2, 28040, Note_on_c, 1, 39, 127
2, 28040, Note_on_c, 1, 46, 127
2, 28040, Note_on_c, 1, 75, 127
2, 28040, Note_on_c, 1, 79, 127
2, 28400, Note_off_c, 1, 39, 0
2, 28400, Note_off_c, 1, 46, 0
2, 28400, Note_off_c, 1, 75, 0
2, 28400, Note_off_c, 1, 79, 0
2, 28440, Note_on_c, 1, 39, 127
2, 28440, Note_on_c, 1, 46, 127
2, 28440, Note_on_c, 1, 75, 127
2, 28440, Note_on_c, 1, 79, 127
2, 28800, Note_off_c, 1, 39, 0
2, 28800, Note_off_c, 1, 46, 0
2, 28800, Note_off_c, 1, 75, 0
2, 28800, Note_off_c, 1, 79, 0
2, 28880, Note_on_c, 1, 39, 127
2, 28880, Note_on_c, 1, 46, 127
2, 28880, Note_on_c, 1, 75, 127
2, 28880, Note_on_c, 1, 79, 127
2, 29240, Note_off_c, 1, 39, 0
2, 29240, Note_off_c, 1, 46, 0
2, 29240, Note_off_c, 1, 75, 0
2, 29240, Note_off_c, 1, 79, 0
2, 29280, Note_on_c, 1, 39, 127
2, 29280, Note_on_c, 1, 46, 127
2, 29280, Note_on_c, 1, 75, 127
2, 29280, Note_on_c, 1, 79, 127
2, 29640, Note_off_c, 1, 39, 0
2, 29640, Note_off_c, 1, 46, 0
2, 29640, Note_off_c, 1, 75, 0
2, 29640, Note_off_c, 1, 79, 0
2, 29680, Note_on_c, 1, 39, 127
2, 29680, Note_on_c, 1, 46, 127
2, 29680, Note_on_c, 1, 75, 127
2, 29680, Note_on_c, 1, 79, 127
2, 30040, Note_off_c, 1, 39, 0
2, 30040, Note_off_c, 1, 46, 0
2, 30040, Note_off_c, 1, 75, 0
2, 30040, Note_off_c, 1, 79, 0
2, 30080, Note_on_c, 1, 39, 127
2, 30080, Note_on_c, 1, 46, 127
2, 30080, Note_on_c, 1, 75, 127
2, 30080, Note_on_c, 1, 79, 127
2, 30440, Note_off_c, 1, 39, 0
2, 30440, Note_off_c, 1, 46, 0
2, 30440, Note_off_c, 1, 75, 0
2, 30440, Note_off_c, 1, 79, 0
2, 30480, Note_on_c, 1, 39, 127
2, 30480, Note_on_c, 1, 46, 127
2, 30480, Note_on_c, 1, 75, 127
2, 30480, Note_on_c, 1, 79, 127
2, 30840, Note_off_c, 1, 39, 0
2, 30840, Note_off_c, 1, 46, 0
2, 30840, Note_off_c, 1, 75, 0
2, 30840, Note_off_c, 1, 79, 0
2, 30920, Note_on_c, 1, 39, 127
2, 30920, Note_on_c, 1, 46, 127
2, 30920, Note_on_c, 1, 75, 127
2, 30920, Note_on_c, 1, 79, 127
2, 31280, Note_off_c, 1, 39, 0
2, 31280, Note_off_c, 1, 46, 0
2, 31280, Note_off_c, 1, 75, 0
2, 31280, Note_off_c, 1, 79, 0
2, 31320, Note_on_c, 1, 39, 127
2, 31320, Note_on_c, 1, 46, 127
2, 31320, Note_on_c, 1, 75, 127
2, 31320, Note_on_c, 1, 79, 127
2, 31680, Note_off_c, 1, 39, 0
2, 31680, Note_off_c, 1, 46, 0
2, 31680, Note_off_c, 1, 75, 0
2, 31680, Note_off_c, 1, 79, 0
2, 31720, Note_on_c, 1, 44, 127
2, 31720, Note_on_c, 1, 51, 127
2, 31720, Note_on_c, 1, 73, 127
2, 31720, Note_on_c, 1, 78, 127
2, 31880, Note_on_c, 1, 72, 127
2, 31880, Note_off_c, 1, 73, 0
2, 31920, Note_off_c, 1, 72, 0
2, 31920, Note_on_c, 1, 75, 127
2, 31920, Note_off_c, 1, 78, 0
2, 31920, Note_on_c, 1, 87, 127
2, 32080, Note_off_c, 1, 44, 0
2, 32080, Note_off_c, 1, 51, 0
2, 32080, Note_off_c, 1, 75, 0
2, 32080, Note_off_c, 1, 87, 0
2, 32120, Note_on_c, 1, 44, 127
2, 32120, Note_on_c, 1, 75, 127
2, 32280, Note_off_c, 1, 44, 0
2, 32320, Note_on_c, 1, 44, 127
2, 32480, Note_off_c, 1, 44, 0
2, 32520, Note_on_c, 1, 51, 127
2, 32680, Note_off_c, 1, 51, 0
2, 32720, Note_on_c, 1, 55, 127
2, 32880, Note_off_c, 1, 55, 0
2, 32880, Note_off_c, 1, 75, 0
2, 32960, Note_on_c, 1, 36, 127
2, 32960, Note_on_c, 1, 75, 127
2, 33120, Note_off_c, 1, 36, 0
2, 33160, Note_on_c, 1, 48, 127
2, 33320, Note_off_c, 1, 48, 0
2, 33360, Note_on_c, 1, 63, 127
2, 33520, Note_off_c, 1, 63, 0
2, 33560, Note_on_c, 1, 68, 127
2, 33720, Note_off_c, 1, 68, 0
2, 33720, Note_off_c, 1, 75, 0
2, 33760, Note_on_c, 1, 55, 127
2, 33760, Note_on_c, 1, 58, 127
2, 33760, Note_on_c, 1, 62, 127
2, 33760, Note_on_c, 1, 77, 127
2, 34040, Note_off_c, 1, 58, 0
2, 34040, Note_on_c, 1, 61, 127
2, 34040, Note_off_c, 1, 62, 0
2, 34040, Note_on_c, 1, 64, 127
2, 34040, Note_off_c, 1, 77, 0
2, 34080, Note_on_c, 1, 43, 127
2, 34080, Note_on_c, 1, 58, 127
2, 34080, Note_off_c, 1, 61, 0
2, 34080, Note_on_c, 1, 62, 127
2, 34080, Note_off_c, 1, 64, 0
2, 34120, Note_off_c, 1, 43, 0
2, 34120, Note_off_c, 1, 55, 0
2, 34120, Note_off_c, 1, 58, 0
2, 34120, Note_off_c, 1, 62, 0
2, 34160, Note_on_c, 1, 32, 127
2, 34160, Note_on_c, 1, 68, 127
2, 34160, Note_on_c, 1, 76, 127
2, 34520, Note_off_c, 1, 32, 0
2, 34520, Note_off_c, 1, 76, 0
2, 34560, Note_on_c, 1, 44, 127
2, 34560, Note_on_c, 1, 48, 127
2, 34560, Note_off_c, 1, 68, 0
2, 34560, Note_on_c, 1, 72, 127
2, 34560, Note_on_c, 1, 74, 127
2, 34560, Note_on_c, 1, 84, 127
2, 34840, Note_off_c, 1, 44, 0
2, 34840, Note_off_c, 1, 48, 0
2, 34880, Note_on_c, 1, 44, 127
2, 34880, Note_on_c, 1, 48, 127
2, 34920, Note_off_c, 1, 44, 0
2, 34920, Note_off_c, 1, 48, 0
2, 34920, Note_off_c, 1, 72, 0
2, 34920, Note_off_c, 1, 74, 0
2, 34920, Note_off_c, 1, 84, 0
2, 35000, Note_on_c, 1, 41, 127
2, 35000, Note_on_c, 1, 48, 127
2, 35000, Note_on_c, 1, 70, 127
2, 35000, Note_on_c, 1, 74, 127
2, 35360, Note_off_c, 1, 41, 0
2, 35360, Note_off_c, 1, 48, 0
2, 35360, Note_off_c, 1, 70, 0
2, 35360, Note_off_c, 1, 74, 0
2, 35400, Note_on_c, 1, 44, 127
2, 35400, Note_on_c, 1, 72, 127
2, 35400, Note_on_c, 1, 75, 127
2, 35400, Note_on_c, 1, 80, 127
2, 35760, Note_off_c, 1, 44, 0
2, 35760, Note_off_c, 1, 72, 0
2, 35760, Note_off_c, 1, 75, 0
2, 35760, Note_off_c, 1, 80, 0
2, 35800, Note_on_c, 1, 61, 127
2, 35800, Note_on_c, 1, 65, 127
2, 35800, Note_on_c, 1, 77, 127
2, 35960, Note_off_c, 1, 61, 0
2, 35960, Note_off_c, 1, 65, 0
2, 35960, Note_off_c, 1, 77, 0
2, 36000, Note_on_c, 1, 56, 127
2, 36000, Note_on_c, 1, 72, 127
2, 36000, Note_on_c, 1, 75, 127
2, 36160, Note_off_c, 1, 56, 0
2, 36160, Note_off_c, 1, 72, 0
2, 36160, Note_off_c, 1, 75, 0
2, 36200, Note_on_c, 1, 51, 127
2, 36200, Note_on_c, 1, 66, 127
2, 36200, Note_on_c, 1, 75, 127
2, 36560, Note_off_c, 1, 51, 0
2, 36560, Note_off_c, 1, 66, 0
2, 36560, Note_off_c, 1, 75, 0
2, 36600, Note_on_c, 1, 49, 127
2, 36600, Note_on_c, 1, 56, 127
2, 36600, Note_on_c, 1, 61, 127
2, 36600, Note_on_c, 1, 65, 127
2, 36600, Note_on_c, 1, 68, 127
2, 36600, Note_on_c, 1, 77, 127
2, 37000, Note_off_c, 1, 49, 0
2, 37000, Note_off_c, 1, 56, 0
2, 37000, Note_off_c, 1, 61, 0
2, 37000, Note_off_c, 1, 65, 0
2, 37000, Note_off_c, 1, 68, 0
2, 37000, Note_off_c, 1, 77, 0
2, 37040, Note_on_c, 1, 49, 127
2, 37040, Note_on_c, 1, 56, 127
2, 37040, Note_on_c, 1, 61, 127
2, 37040, Note_on_c, 1, 65, 127
2, 37040, Note_on_c, 1, 68, 127
2, 37040, Note_on_c, 1, 77, 127
2, 37400, Note_off_c, 1, 49, 0
2, 37400, Note_off_c, 1, 56, 0
2, 37400, Note_off_c, 1, 61, 0
2, 37400, Note_off_c, 1, 65, 0
2, 37400, Note_off_c, 1, 68, 0
2, 37400, Note_off_c, 1, 77, 0
2, 37440, Note_on_c, 1, 53, 127
2, 37440, Note_on_c, 1, 65, 127
2, 37440, Note_on_c, 1, 68, 127
2, 37440, Note_on_c, 1, 73, 127
2, 37440, Note_on_c, 1, 77, 127
2, 37600, Note_off_c, 1, 53, 0
2, 37640, Note_on_c, 1, 61, 127
2, 37800, Note_off_c, 1, 61, 0
2, 37800, Note_off_c, 1, 65, 0
2, 37800, Note_off_c, 1, 68, 0
2, 37800, Note_off_c, 1, 73, 0
2, 37800, Note_off_c, 1, 77, 0
2, 37840, Note_on_c, 1, 49, 127
2, 37840, Note_on_c, 1, 56, 127
2, 37840, Note_on_c, 1, 61, 127
2, 37840, Note_on_c, 1, 65, 127
2, 37840, Note_on_c, 1, 68, 127
2, 37840, Note_on_c, 1, 77, 127
2, 38160, Note_off_c, 1, 49, 0
2, 38200, Note_on_c, 1, 49, 127
2, 38200, Note_off_c, 1, 77, 0
2, 38240, Note_on_c, 1, 75, 127
2, 38400, Note_off_c, 1, 75, 0
2, 38600, Note_off_c, 1, 49, 0
2, 38600, Note_off_c, 1, 56, 0
2, 38600, Note_off_c, 1, 61, 0
2, 38600, Note_off_c, 1, 65, 0
2, 38600, Note_off_c, 1, 68, 0
2, 38640, Note_on_c, 1, 58, 127
2, 38640, Note_on_c, 1, 61, 127
2, 38640, Note_on_c, 1, 65, 127
2, 38640, Note_on_c, 1, 73, 127
2, 38800, Note_on_c, 1, 53, 127
2, 38800, Note_on_c, 1, 70, 127
2, 38840, Note_off_c, 1, 53, 0
2, 38840, Note_off_c, 1, 58, 0
2, 38840, Note_off_c, 1, 61, 0
2, 38840, Note_off_c, 1, 65, 0
2, 38840, Note_off_c, 1, 70, 0
2, 38840, Note_off_c, 1, 73, 0
2, 38880, Note_on_c, 1, 53, 127
2, 38880, Note_on_c, 1, 58, 127
2, 38880, Note_on_c, 1, 61, 127
2, 38880, Note_on_c, 1, 65, 127
2, 38880, Note_on_c, 1, 70, 127
2, 38880, Note_on_c, 1, 73, 127
2, 39040, Note_off_c, 1, 53, 0
2, 39040, Note_off_c, 1, 58, 0
2, 39040, Note_off_c, 1, 61, 0
2, 39040, Note_off_c, 1, 65, 0
2, 39040, Note_off_c, 1, 70, 0
2, 39040, Note_off_c, 1, 73, 0
2, 39080, Note_on_c, 1, 51, 127
2, 39080, Note_on_c, 1, 61, 127
2, 39080, Note_on_c, 1, 67, 127
2, 39080, Note_on_c, 1, 72, 127
2, 39440, Note_off_c, 1, 51, 0
2, 39480, Note_on_c, 1, 51, 127
2, 39640, Note_off_c, 1, 72, 0
2, 39680, Note_on_c, 1, 70, 127
2, 39840, Note_off_c, 1, 51, 0
2, 39840, Note_off_c, 1, 61, 0
2, 39840, Note_off_c, 1, 67, 0
2, 39840, Note_off_c, 1, 70, 0
2, 39880, Note_on_c, 1, 51, 127
2, 39880, Note_on_c, 1, 61, 127
2, 39880, Note_on_c, 1, 67, 127
2, 39880, Note_on_c, 1, 75, 127
2, 40640, Note_off_c, 1, 51, 0
2, 40640, Note_off_c, 1, 61, 0
2, 40640, Note_off_c, 1, 67, 0
2, 40640, Note_off_c, 1, 75, 0
2, 40720, Note_on_c, 1, 51, 127
2, 40720, Note_on_c, 1, 61, 127
2, 40720, Note_on_c, 1, 67, 127
2, 40720, Note_on_c, 1, 75, 127
2, 41480, Note_off_c, 1, 51, 0
2, 41480, Note_off_c, 1, 61, 0
2, 41480, Note_off_c, 1, 67, 0
2, 41480, Note_off_c, 1, 75, 0
2, 41520, Note_on_c, 1, 51, 127
2, 41520, Note_on_c, 1, 61, 127
2, 41520, Note_on_c, 1, 67, 127
2, 41520, Note_on_c, 1, 75, 127
2, 42280, Note_off_c, 1, 51, 0
2, 42280, Note_off_c, 1, 61, 0
2, 42280, Note_off_c, 1, 67, 0
2, 42280, Note_off_c, 1, 75, 0
2, 42320, Note_on_c, 1, 59, 127
2, 42320, Note_on_c, 1, 64, 127
2, 42320, Note_on_c, 1, 68, 127
2, 42320, Note_on_c, 1, 76, 127
2, 42320, Note_on_c, 1, 80, 127
2, 42680, Note_off_c, 1, 59, 0
2, 42680, Note_off_c, 1, 64, 0
2, 42680, Note_off_c, 1, 68, 0
2, 42680, Note_off_c, 1, 76, 0
2, 42680, Note_off_c, 1, 80, 0
2, 43160, Note_on_c, 1, 47, 127
2, 43160, Note_on_c, 1, 63, 127
2, 43160, Note_on_c, 1, 66, 127
2, 43160, Note_on_c, 1, 71, 127
2, 43520, Note_off_c, 1, 47, 0
2, 43520, Note_off_c, 1, 63, 0
2, 43520, Note_off_c, 1, 66, 0
2, 43520, Note_off_c, 1, 71, 0
2, 43560, Note_on_c, 1, 47, 127
2, 43560, Note_on_c, 1, 63, 127
2, 43560, Note_on_c, 1, 66, 127
2, 43560, Note_on_c, 1, 71, 127
2, 43920, Note_off_c, 1, 47, 0
2, 43920, Note_off_c, 1, 63, 0
2, 43920, Note_off_c, 1, 66, 0
2, 43920, Note_off_c, 1, 71, 0
2, 43960, Note_on_c, 1, 47, 127
2, 43960, Note_on_c, 1, 63, 127
2, 43960, Note_on_c, 1, 66, 127
2, 43960, Note_on_c, 1, 71, 127
2, 44320, Note_off_c, 1, 47, 0
2, 44320, Note_off_c, 1, 63, 0
2, 44320, Note_off_c, 1, 66, 0
2, 44320, Note_off_c, 1, 71, 0
2, 44360, Note_on_c, 1, 47, 127
2, 44360, Note_on_c, 1, 63, 127
2, 44360, Note_on_c, 1, 66, 127
2, 44360, Note_on_c, 1, 71, 127
2, 44560, Note_off_c, 1, 47, 0
2, 44560, Note_on_c, 1, 51, 127
2, 44720, Note_off_c, 1, 51, 0
2, 44760, Note_off_c, 1, 63, 0
2, 44760, Note_off_c, 1, 66, 0
2, 44760, Note_off_c, 1, 71, 0
2, 44800, Note_on_c, 1, 47, 127
2, 44800, Note_on_c, 1, 63, 127
2, 44800, Note_on_c, 1, 66, 127
2, 44800, Note_on_c, 1, 71, 127
2, 44960, Note_off_c, 1, 47, 0
2, 44960, Note_off_c, 1, 63, 0
2, 44960, Note_off_c, 1, 66, 0
2, 44960, Note_off_c, 1, 71, 0
2, 45000, Note_on_c, 1, 45, 127
2, 45000, Note_on_c, 1, 63, 127
2, 45000, Note_on_c, 1, 66, 127
2, 45000, Note_on_c, 1, 71, 127
2, 45160, Note_off_c, 1, 45, 0
2, 45160, Note_off_c, 1, 63, 0
2, 45160, Note_off_c, 1, 66, 0
2, 45160, Note_off_c, 1, 71, 0
2, 45200, Note_on_c, 1, 45, 127
2, 45200, Note_on_c, 1, 63, 127
2, 45200, Note_on_c, 1, 66, 127
2, 45200, Note_on_c, 1, 71, 127
2, 45360, Note_off_c, 1, 45, 0
2, 45360, Note_on_c, 1, 54, 127
2, 45360, Note_off_c, 1, 63, 0
2, 45360, Note_off_c, 1, 66, 0
2, 45360, Note_off_c, 1, 71, 0
2, 45400, Note_on_c, 1, 45, 127
2, 45400, Note_off_c, 1, 54, 0
2, 45400, Note_on_c, 1, 63, 127
2, 45400, Note_on_c, 1, 66, 127
2, 45400, Note_on_c, 1, 71, 127
2, 45560, Note_off_c, 1, 45, 0
2, 45560, Note_off_c, 1, 63, 0
2, 45560, Note_off_c, 1, 66, 0
2, 45560, Note_off_c, 1, 71, 0
2, 45600, Note_on_c, 1, 45, 127
2, 45600, Note_on_c, 1, 53, 127
2, 45600, Note_on_c, 1, 57, 127
2, 45600, Note_on_c, 1, 65, 127
2, 45600, Note_on_c, 1, 69, 127
2, 45600, Note_on_c, 1, 74, 127
2, 45600, Note_on_c, 1, 77, 127
2, 45960, Note_off_c, 1, 45, 0
2, 45960, Note_off_c, 1, 53, 0
2, 45960, Note_off_c, 1, 57, 0
2, 45960, Note_off_c, 1, 65, 0
2, 45960, Note_off_c, 1, 69, 0
2, 45960, Note_off_c, 1, 74, 0
2, 45960, Note_off_c, 1, 77, 0
2, 46000, Note_on_c, 1, 53, 127
2, 46000, Note_on_c, 1, 60, 127
2, 46000, Note_on_c, 1, 65, 127
2, 46000, Note_on_c, 1, 68, 127
2, 46000, Note_on_c, 1, 72, 127
2, 46000, Note_on_c, 1, 80, 127
2, 46360, Note_off_c, 1, 53, 0
2, 46360, Note_off_c, 1, 60, 0
2, 46360, Note_off_c, 1, 65, 0
2, 46360, Note_off_c, 1, 68, 0
2, 46360, Note_off_c, 1, 72, 0
2, 46360, Note_off_c, 1, 80, 0
2, 46400, Note_on_c, 1, 53, 127
2, 46400, Note_on_c, 1, 60, 127
2, 46400, Note_on_c, 1, 65, 127
2, 46400, Note_on_c, 1, 68, 127
2, 46400, Note_on_c, 1, 72, 127
2, 46400, Note_on_c, 1, 80, 127
2, 46760, Note_off_c, 1, 53, 0
2, 46760, Note_off_c, 1, 60, 0
2, 46760, Note_off_c, 1, 65, 0
2, 46760, Note_off_c, 1, 68, 0
2, 46760, Note_off_c, 1, 72, 0
2, 46760, Note_off_c, 1, 80, 0
2, 46840, Note_on_c, 1, 67, 127
2, 46840, Note_on_c, 1, 74, 127
2, 46840, Note_on_c, 1, 77, 127
2, 46840, Note_on_c, 1, 79, 127
2, 46840, Note_on_c, 1, 83, 127
2, 46840, Note_on_c, 1, 91, 127
2, 47200, Note_off_c, 1, 67, 0
2, 47200, Note_off_c, 1, 74, 0
2, 47200, Note_off_c, 1, 77, 0
2, 47200, Note_off_c, 1, 79, 0
2, 47200, Note_off_c, 1, 83, 0
2, 47200, Note_off_c, 1, 91, 0
2, 47240, Note_on_c, 1, 48, 127
2, 47240, Note_on_c, 1, 51, 127
2, 47240, Note_on_c, 1, 67, 127
2, 47240, Note_on_c, 1, 70, 127
2, 47240, Note_on_c, 1, 79, 127
2, 47600, Note_off_c, 1, 48, 0
2, 47600, Note_off_c, 1, 51, 0
2, 47600, Note_off_c, 1, 67, 0
2, 47600, Note_off_c, 1, 70, 0
2, 47600, Note_off_c, 1, 79, 0
2, 47640, Note_on_c, 1, 45, 127
2, 47640, Note_on_c, 1, 57, 127
2, 47640, Note_on_c, 1, 67, 127
2, 47640, Note_on_c, 1, 73, 127
2, 47640, Note_on_c, 1, 76, 127
2, 48000, Note_off_c, 1, 45, 0
2, 48000, Note_off_c, 1, 57, 0
2, 48000, Note_off_c, 1, 67, 0
2, 48000, Note_off_c, 1, 73, 0
2, 48000, Note_off_c, 1, 76, 0
2, 48040, Note_on_c, 1, 50, 127
2, 48040, Note_on_c, 1, 57, 127
2, 48040, Note_on_c, 1, 65, 127
2, 48040, Note_on_c, 1, 74, 127
2, 48400, Note_on_c, 1, 47, 127
2, 48400, Note_off_c, 1, 50, 0
2, 48400, Note_on_c, 1, 52, 127
2, 48400, Note_off_c, 1, 57, 0
2, 48400, Note_on_c, 1, 63, 127
2, 48400, Note_off_c, 1, 65, 0
2, 48400, Note_on_c, 1, 69, 127
2, 48400, Note_off_c, 1, 74, 0
2, 48440, Note_off_c, 1, 47, 0
2, 48440, Note_off_c, 1, 52, 0
2, 48440, Note_on_c, 1, 55, 127
2, 48440, Note_off_c, 1, 63, 0
2, 48440, Note_off_c, 1, 69, 0
2, 48440, Note_on_c, 1, 71, 127
2, 48440, Note_on_c, 1, 77, 127
2, 48440, Note_on_c, 1, 81, 127
2, 48480, Note_off_c, 1, 55, 0
2, 48480, Note_on_c, 1, 67, 127
2, 48480, Note_off_c, 1, 71, 0
2, 48480, Note_off_c, 1, 77, 0
2, 48480, Note_off_c, 1, 81, 0
2, 48480, Note_on_c, 1, 84, 127
2, 48480, Note_on_c, 1, 89, 127
2, 48520, Note_on_c, 1, 38, 127
2, 48520, Note_off_c, 1, 67, 0
2, 48520, Note_on_c, 1, 69, 127
2, 48520, Note_on_c, 1, 77, 127
2, 48520, Note_off_c, 1, 84, 0
2, 48520, Note_off_c, 1, 89, 0
2, 48560, Note_off_c, 1, 38, 0
2, 48560, Note_on_c, 1, 47, 127
2, 48560, Note_on_c, 1, 59, 127
2, 48560, Note_off_c, 1, 69, 0
2, 48560, Note_on_c, 1, 73, 127
2, 48560, Note_off_c, 1, 77, 0
2, 48560, Note_on_c, 1, 80, 127
2, 48600, Note_off_c, 1, 47, 0
2, 48600, Note_off_c, 1, 59, 0
2, 48600, Note_off_c, 1, 73, 0
2, 48600, Note_on_c, 1, 77, 127
2, 48600, Note_off_c, 1, 80, 0
2, 48640, Note_on_c, 1, 38, 127
2, 48640, Note_on_c, 1, 69, 127
2, 48800, Note_off_c, 1, 38, 0
2, 48800, Note_off_c, 1, 69, 0
2, 48800, Note_off_c, 1, 77, 0
2, 48880, Note_on_c, 1, 48, 127
2, 48880, Note_on_c, 1, 70, 127
2, 48880, Note_on_c, 1, 76, 127
2, 49240, Note_off_c, 1, 48, 0
2, 49240, Note_off_c, 1, 70, 0
2, 49240, Note_off_c, 1, 76, 0
2, 49280, Note_on_c, 1, 41, 127
2, 49280, Note_on_c, 1, 69, 127
2, 49280, Note_on_c, 1, 77, 127
2, 49640, Note_off_c, 1, 41, 0
2, 49640, Note_off_c, 1, 69, 0
2, 49640, Note_off_c, 1, 77, 0
2, 49680, Note_on_c, 1, 41, 127
2, 49680, Note_on_c, 1, 67, 127
2, 49680, Note_on_c, 1, 69, 127
2, 49680, Note_on_c, 1, 75, 127
2, 49720, Note_off_c, 1, 41, 0
2, 50040, Note_on_c, 1, 65, 127
2, 50040, Note_off_c, 1, 67, 0
2, 50040, Note_off_c, 1, 69, 0
2, 50040, Note_off_c, 1, 75, 0
2, 50080, Note_on_c, 1, 53, 127
2, 50080, Note_on_c, 1, 69, 127
2, 50080, Note_on_c, 1, 74, 127
2, 50440, Note_off_c, 1, 53, 0
2, 50440, Note_off_c, 1, 65, 0
2, 50440, Note_off_c, 1, 69, 0
2, 50440, Note_off_c, 1, 74, 0
2, 50480, Note_on_c, 1, 48, 127
2, 50480, Note_on_c, 1, 55, 127
2, 50480, Note_on_c, 1, 64, 127
2, 50480, Note_on_c, 1, 70, 127
2, 50840, Note_off_c, 1, 48, 0
2, 50840, Note_off_c, 1, 55, 0
2, 50840, Note_off_c, 1, 64, 0
2, 50840, Note_off_c, 1, 70, 0
2, 50920, Note_on_c, 1, 48, 127
2, 50920, Note_on_c, 1, 57, 127
2, 50920, Note_on_c, 1, 65, 127
2, 50920, Note_on_c, 1, 69, 127
2, 51680, Note_off_c, 1, 57, 0
2, 51680, Note_off_c, 1, 65, 0
2, 51680, Note_off_c, 1, 69, 0
2, 51720, Note_on_c, 1, 57, 127
2, 51720, Note_on_c, 1, 65, 127
2, 51720, Note_on_c, 1, 69, 127
2, 52080, Note_off_c, 1, 57, 0
2, 52080, Note_off_c, 1, 65, 0
2, 52080, Note_off_c, 1, 69, 0
2, 52120, Note_on_c, 1, 57, 127
2, 52120, Note_on_c, 1, 65, 127
2, 52120, Note_on_c, 1, 69, 127
2, 52480, Note_off_c, 1, 48, 0
2, 52480, Note_off_c, 1, 57, 0
2, 52520, Note_on_c, 1, 48, 127
2, 52520, Note_on_c, 1, 57, 127
2, 52880, Note_off_c, 1, 48, 0
2, 52880, Note_off_c, 1, 57, 0
2, 52880, Note_off_c, 1, 65, 0
2, 52880, Note_off_c, 1, 69, 0
2, 52920, Note_on_c, 1, 48, 127
2, 52920, Note_on_c, 1, 57, 127
2, 52920, Note_on_c, 1, 65, 127
2, 52920, Note_on_c, 1, 69, 127
2, 52960, Note_off_c, 1, 48, 0
2, 52960, Note_off_c, 1, 57, 0
2, 52960, Note_off_c, 1, 65, 0
2, 52960, Note_off_c, 1, 69, 0
2, 53000, Note_on_c, 1, 33, 127
2, 53000, Note_on_c, 1, 42, 127
2, 53000, Note_on_c, 1, 45, 127
2, 53000, Note_on_c, 1, 62, 127
2, 53000, Note_on_c, 1, 74, 127
2, 53360, Note_on_c, 1, 31, 127
2, 53360, Note_off_c, 1, 33, 0
2, 53360, Note_off_c, 1, 42, 0
2, 53360, Note_on_c, 1, 43, 127
2, 53360, Note_off_c, 1, 45, 0
2, 53360, Note_on_c, 1, 50, 127
2, 53360, Note_on_c, 1, 71, 127
2, 53360, Note_off_c, 1, 74, 0
2, 53360, Note_on_c, 1, 83, 127
2, 53400, Note_off_c, 1, 31, 0
2, 53400, Note_on_c, 1, 33, 127
2, 53400, Note_off_c, 1, 43, 0
2, 53400, Note_on_c, 1, 45, 127
2, 53400, Note_off_c, 1, 50, 0
2, 53400, Note_off_c, 1, 62, 0
2, 53400, Note_on_c, 1, 66, 127
2, 53400, Note_off_c, 1, 71, 0
2, 53400, Note_on_c, 1, 75, 127
2, 53400, Note_off_c, 1, 83, 0
2, 53720, Note_off_c, 1, 33, 0
2, 53720, Note_off_c, 1, 45, 0
2, 53720, Note_off_c, 1, 66, 0
2, 53720, Note_off_c, 1, 75, 0
2, 53760, Note_on_c, 1, 37, 127
2, 53760, Note_on_c, 1, 67, 127
2, 53760, Note_on_c, 1, 76, 127
2, 54520, Note_off_c, 1, 67, 0
2, 54520, Note_off_c, 1, 76, 0
2, 54560, Note_on_c, 1, 67, 127
2, 54560, Note_on_c, 1, 76, 127
2, 54920, Note_off_c, 1, 37, 0
2, 54920, Note_on_c, 1, 52, 127
2, 54920, Note_off_c, 1, 67, 0
2, 54920, Note_off_c, 1, 76, 0
2, 54960, Note_off_c, 1, 52, 0
2, 54960, Note_on_c, 1, 54, 127
2, 54960, Note_on_c, 1, 58, 127
2, 54960, Note_on_c, 1, 61, 127
2, 54960, Note_on_c, 1, 72, 127
2, 55080, Note_off_c, 1, 54, 0
2, 55080, Note_off_c, 1, 58, 0
2, 55080, Note_off_c, 1, 61, 0
2, 55080, Note_off_c, 1, 72, 0
2, 55120, Note_on_c, 1, 54, 127
2, 55120, Note_on_c, 1, 58, 127
2, 55120, Note_on_c, 1, 61, 127
2, 55120, Note_on_c, 1, 72, 127
2, 55360, Note_on_c, 1, 44, 127
2, 55360, Note_off_c, 1, 54, 0
2, 55360, Note_off_c, 1, 58, 0
2, 55360, Note_off_c, 1, 61, 0
2, 55360, Note_on_c, 1, 66, 127
2, 55360, Note_off_c, 1, 72, 0
2, 55360, Note_on_c, 1, 73, 127
2, 55400, Note_off_c, 1, 44, 0
2, 55400, Note_on_c, 1, 54, 127
2, 55400, Note_on_c, 1, 58, 127
2, 55400, Note_on_c, 1, 61, 127
2, 55400, Note_off_c, 1, 66, 0
2, 55400, Note_on_c, 1, 72, 127
2, 55400, Note_off_c, 1, 73, 0
2, 55760, Note_off_c, 1, 54, 0
2, 55760, Note_off_c, 1, 58, 0
2, 55760, Note_off_c, 1, 61, 0
2, 55800, Note_on_c, 1, 54, 127
2, 55800, Note_on_c, 1, 58, 127
2, 55800, Note_on_c, 1, 61, 127
2, 56560, Note_off_c, 1, 54, 0
2, 56560, Note_off_c, 1, 58, 0
2, 56560, Note_off_c, 1, 61, 0
2, 56600, Note_on_c, 1, 46, 127
2, 56600, Note_on_c, 1, 53, 127
2, 56600, Note_on_c, 1, 62, 127
2, 56600, Note_on_c, 1, 70, 127
2, 56600, Note_off_c, 1, 72, 0
2, 56600, Note_on_c, 1, 74, 127
2, 56960, Note_off_c, 1, 46, 0
2, 56960, Note_off_c, 1, 53, 0
2, 56960, Note_on_c, 1, 54, 127
2, 56960, Note_off_c, 1, 62, 0
2, 56960, Note_off_c, 1, 70, 0
2, 56960, Note_off_c, 1, 74, 0
2, 57000, Note_off_c, 1, 54, 0
2, 57040, Note_on_c, 1, 48, 127
2, 57040, Note_on_c, 1, 53, 127
2, 57040, Note_on_c, 1, 63, 127
2, 57040, Note_on_c, 1, 69, 127
2, 57040, Note_on_c, 1, 75, 127
2, 58600, Note_off_c, 1, 48, 0
2, 58600, Note_off_c, 1, 53, 0
2, 58600, Note_off_c, 1, 63, 0
2, 58600, Note_off_c, 1, 69, 0
2, 58600, Note_off_c, 1, 75, 0
2, 58640, Note_on_c, 1, 41, 127
2, 58640, Note_on_c, 1, 50, 127
2, 58640, Note_on_c, 1, 53, 127
2, 58640, Note_on_c, 1, 58, 127
2, 58640, Note_on_c, 1, 65, 127
2, 58640, Note_on_c, 1, 70, 127
2, 59000, Note_off_c, 1, 41, 0
2, 59000, Note_off_c, 1, 50, 0
2, 59000, Note_off_c, 1, 53, 0
2, 59000, Note_off_c, 1, 58, 0
2, 59000, Note_off_c, 1, 65, 0
2, 59000, Note_off_c, 1, 70, 0
2, 59080, Note_on_c, 1, 35, 127
2, 59080, Note_on_c, 1, 42, 127
2, 59080, Note_on_c, 1, 47, 127
2, 59080, Note_on_c, 1, 54, 127
2, 59080, Note_on_c, 1, 61, 127
2, 59080, Note_on_c, 1, 64, 127
2, 59840, Note_off_c, 1, 35, 0
2, 59840, Note_off_c, 1, 42, 0
2, 59840, Note_off_c, 1, 47, 0
2, 59840, Note_off_c, 1, 54, 0
2, 59840, Note_off_c, 1, 61, 0
2, 59840, Note_off_c, 1, 64, 0
2, 59880, Note_on_c, 1, 35, 127
2, 59880, Note_on_c, 1, 42, 127
2, 59880, Note_on_c, 1, 47, 127
2, 59880, Note_on_c, 1, 54, 127
2, 59880, Note_on_c, 1, 59, 127
2, 59880, Note_on_c, 1, 62, 127
2, 60240, Note_off_c, 1, 35, 0
2, 60240, Note_off_c, 1, 42, 0
2, 60240, Note_off_c, 1, 47, 0
2, 60240, Note_off_c, 1, 54, 0
2, 60240, Note_off_c, 1, 59, 0
2, 60240, Note_off_c, 1, 62, 0
2, 60280, Note_on_c, 1, 38, 127
2, 60280, Note_on_c, 1, 43, 127
2, 60280, Note_on_c, 1, 50, 127
2, 60280, Note_on_c, 1, 55, 127
2, 60280, Note_on_c, 1, 59, 127
2, 60280, Note_on_c, 1, 62, 127
2, 60640, Note_off_c, 1, 38, 0
2, 60640, Note_off_c, 1, 43, 0
2, 60640, Note_off_c, 1, 50, 0
2, 60640, Note_off_c, 1, 55, 0
2, 60640, Note_off_c, 1, 59, 0
2, 60640, Note_off_c, 1, 62, 0
2, 60680, Note_on_c, 1, 35, 127
2, 60680, Note_on_c, 1, 42, 127
2, 60680, Note_on_c, 1, 47, 127
2, 60680, Note_on_c, 1, 59, 127
2, 60680, Note_on_c, 1, 62, 127
2, 60680, Note_on_c, 1, 71, 127
2, 61040, Note_off_c, 1, 35, 0
2, 61040, Note_off_c, 1, 42, 0
2, 61040, Note_off_c, 1, 47, 0
2, 61040, Note_off_c, 1, 59, 0
2, 61040, Note_off_c, 1, 62, 0
2, 61040, Note_off_c, 1, 71, 0
2, 61080, Note_on_c, 1, 35, 127
2, 61080, Note_on_c, 1, 42, 127
2, 61080, Note_on_c, 1, 47, 127
2, 61080, Note_on_c, 1, 59, 127
2, 61080, Note_on_c, 1, 62, 127
2, 61080, Note_on_c, 1, 69, 127
2, 61200, Note_off_c, 1, 35, 0
2, 61200, Note_off_c, 1, 42, 0
2, 61200, Note_off_c, 1, 47, 0
2, 61200, Note_off_c, 1, 59, 0
2, 61200, Note_off_c, 1, 62, 0
2, 61200, Note_off_c, 1, 69, 0
2, 61240, Note_on_c, 1, 35, 127
2, 61240, Note_on_c, 1, 42, 127
2, 61240, Note_on_c, 1, 47, 127
2, 61240, Note_on_c, 1, 59, 127
2, 61240, Note_on_c, 1, 62, 127
2, 61240, Note_on_c, 1, 69, 127
2, 61480, Note_off_c, 1, 35, 0
2, 61480, Note_off_c, 1, 42, 0
2, 61480, Note_off_c, 1, 47, 0
2, 61480, Note_off_c, 1, 59, 0
2, 61480, Note_off_c, 1, 62, 0
2, 61480, Note_off_c, 1, 69, 0
2, 61520, Note_on_c, 1, 41, 127
2, 61520, Note_on_c, 1, 53, 127
2, 61520, Note_on_c, 1, 65, 127
2, 61520, Note_on_c, 1, 68, 127
2, 61520, Note_on_c, 1, 73, 127
2, 61520, Note_on_c, 1, 77, 127
2, 61880, Note_off_c, 1, 41, 0
2, 61880, Note_off_c, 1, 53, 0
2, 61880, Note_off_c, 1, 65, 0
2, 61880, Note_off_c, 1, 68, 0
2, 61880, Note_off_c, 1, 73, 0
2, 61880, Note_off_c, 1, 77, 0
2, 61920, Note_on_c, 1, 40, 127
2, 61920, Note_on_c, 1, 52, 127
2, 61920, Note_on_c, 1, 64, 127
2, 61920, Note_on_c, 1, 72, 127
2, 62280, Note_off_c, 1, 40, 0
2, 62280, Note_off_c, 1, 52, 0
2, 62280, Note_off_c, 1, 64, 0
2, 62280, Note_off_c, 1, 72, 0
2, 62320, Note_on_c, 1, 68, 127
2, 62320, Note_on_c, 1, 71, 127
2, 62320, Note_on_c, 1, 76, 127
2, 62320, Note_on_c, 1, 92, 127
2, 62680, Note_off_c, 1, 68, 0
2, 62680, Note_off_c, 1, 71, 0
2, 62680, Note_off_c, 1, 76, 0
2, 62680, Note_off_c, 1, 92, 0
2, 62720, Note_on_c, 1, 43, 127
2, 62720, Note_on_c, 1, 48, 127
2, 62720, Note_on_c, 1, 51, 127
2, 62720, Note_on_c, 1, 55, 127
2, 62720, Note_on_c, 1, 63, 127
2, 62720, Note_on_c, 1, 72, 127
2, 62760, Note_off_c, 1, 43, 0
2, 62760, Note_off_c, 1, 48, 0
2, 62760, Note_on_c, 1, 49, 127
2, 62760, Note_off_c, 1, 51, 0
2, 62760, Note_on_c, 1, 52, 127
2, 62760, Note_on_c, 1, 57, 127
2, 62760, Note_on_c, 1, 61, 127
2, 62760, Note_off_c, 1, 63, 0
2, 62760, Note_on_c, 1, 64, 127
2, 62760, Note_off_c, 1, 72, 0
2, 62800, Note_on_c, 1, 42, 127
2, 62800, Note_off_c, 1, 52, 0
2, 62800, Note_off_c, 1, 55, 0
2, 62800, Note_off_c, 1, 57, 0
2, 62800, Note_on_c, 1, 58, 127
2, 62800, Note_off_c, 1, 61, 0
2, 62800, Note_off_c, 1, 64, 0
2, 62800, Note_on_c, 1, 73, 127
2, 62800, Note_on_c, 1, 78, 127
2, 62800, Note_on_c, 1, 82, 127
2, 62800, Note_on_c, 1, 85, 127
2, 62840, Note_off_c, 1, 42, 0
2, 62840, Note_off_c, 1, 49, 0
2, 62840, Note_on_c, 1, 56, 127
2, 62840, Note_off_c, 1, 58, 0
2, 62840, Note_on_c, 1, 63, 127
2, 62840, Note_on_c, 1, 71, 127
2, 62840, Note_off_c, 1, 73, 0
2, 62840, Note_off_c, 1, 78, 0
2, 62840, Note_off_c, 1, 82, 0
2, 62840, Note_off_c, 1, 85, 0
2, 62840, Note_on_c, 1, 87, 127
2, 62880, Note_on_c, 1, 36, 127
2, 62880, Note_on_c, 1, 44, 127
2, 62880, Note_on_c, 1, 48, 127
2, 62880, Note_on_c, 1, 53, 127
2, 62880, Note_off_c, 1, 56, 0
2, 62880, Note_on_c, 1, 60, 127
2, 62880, Note_off_c, 1, 63, 0
2, 62880, Note_on_c, 1, 65, 127
2, 62880, Note_off_c, 1, 71, 0
2, 62880, Note_off_c, 1, 87, 0
2, 62920, Note_off_c, 1, 36, 0
2, 62920, Note_off_c, 1, 44, 0
2, 62920, Note_off_c, 1, 48, 0
2, 62920, Note_off_c, 1, 53, 0
2, 62920, Note_off_c, 1, 60, 0
2, 62920, Note_off_c, 1, 65, 0
2, 62920, Note_on_c, 1, 78, 127
2, 62920, Note_on_c, 1, 102, 127
2, 62920, Note_on_c, 1, 103, 127
2, 62960, Note_on_c, 1, 63, 127
2, 62960, Note_on_c, 1, 71, 127
2, 62960, Note_off_c, 1, 78, 0
2, 62960, Note_on_c, 1, 80, 127
2, 62960, Note_on_c, 1, 90, 127
2, 62960, Note_off_c, 1, 102, 0
2, 62960, Note_off_c, 1, 103, 0
2, 63000, Note_off_c, 1, 63, 0
2, 63000, Note_on_c, 1, 64, 127
2, 63000, Note_on_c, 1, 70, 127
2, 63000, Note_off_c, 1, 71, 0
2, 63000, Note_on_c, 1, 75, 127
2, 63000, Note_off_c, 1, 80, 0
2, 63000, Note_on_c, 1, 82, 127
2, 63000, Note_on_c, 1, 94, 127
2, 63040, Note_off_c, 1, 64, 0
2, 63040, Note_on_c, 1, 66, 127
2, 63040, Note_on_c, 1, 72, 127
2, 63040, Note_on_c, 1, 78, 127
2, 63040, Note_on_c, 1, 87, 127
2, 63040, Note_off_c, 1, 90, 0
2, 63080, Note_off_c, 1, 66, 0
2, 63080, Note_off_c, 1, 70, 0
2, 63080, Note_off_c, 1, 72, 0
2, 63080, Note_off_c, 1, 75, 0
2, 63080, Note_off_c, 1, 78, 0
2, 63080, Note_off_c, 1, 82, 0
2, 63080, Note_off_c, 1, 87, 0
2, 63080, Note_off_c, 1, 94, 0
2, 63120, Note_on_c, 1, 63, 127
2, 63120, Note_on_c, 1, 64, 127
2, 63120, Note_on_c, 1, 68, 127
2, 63120, Note_on_c, 1, 75, 127
2, 63320, Note_off_c, 1, 63, 0
2, 63320, Note_off_c, 1, 64, 0
2, 63320, Note_off_c, 1, 68, 0
2, 63320, Note_off_c, 1, 75, 0
2, 63360, Note_on_c, 1, 63, 127
2, 63360, Note_on_c, 1, 64, 127
2, 63360, Note_on_c, 1, 68, 127
2, 63360, Note_on_c, 1, 75, 127
2, 63920, Note_off_c, 1, 63, 0
2, 63920, Note_off_c, 1, 75, 0
2, 63960, Note_on_c, 1, 63, 127
2, 63960, Note_on_c, 1, 75, 127
2, 64320, Note_off_c, 1, 63, 0
2, 64320, Note_off_c, 1, 64, 0
2, 64320, Note_off_c, 1, 68, 0
2, 64320, Note_off_c, 1, 75, 0
2, 64360, Note_on_c, 1, 62, 127
2, 64360, Note_on_c, 1, 64, 127
2, 64360, Note_on_c, 1, 73, 127
2, 64720, Note_off_c, 1, 73, 0
2, 64760, Note_on_c, 1, 61, 127
2, 64760, Note_on_c, 1, 69, 127
2, 65120, Note_off_c, 1, 61, 0
2, 65120, Note_off_c, 1, 69, 0
2, 65120, Note_on_c, 1, 71, 127
2, 65160, Note_on_c, 1, 49, 127
2, 65160, Note_on_c, 1, 52, 127
2, 65160, Note_on_c, 1, 59, 127
2, 65160, Note_on_c, 1, 61, 127
2, 65160, Note_off_c, 1, 62, 0
2, 65160, Note_off_c, 1, 64, 0
2, 65160, Note_off_c, 1, 71, 0
2, 65200, Note_off_c, 1, 49, 0
2, 65200, Note_on_c, 1, 54, 127
2, 65200, Note_on_c, 1, 58, 127
2, 65200, Note_off_c, 1, 59, 0
2, 65200, Note_off_c, 1, 61, 0
2, 65200, Note_on_c, 1, 64, 127
2, 65240, Note_off_c, 1, 52, 0
2, 65240, Note_off_c, 1, 54, 0
2, 65240, Note_on_c, 1, 57, 127
2, 65240, Note_off_c, 1, 58, 0
2, 65240, Note_off_c, 1, 64, 0
2, 65240, Note_on_c, 1, 91, 127
2, 65240, Note_on_c, 1, 93, 127
2, 65240, Note_on_c, 1, 96, 127
2, 65240, Note_on_c, 1, 99, 127
2, 65240, Note_on_c, 1, 103, 127
2, 65280, Note_off_c, 1, 57, 0
2, 65280, Note_on_c, 1, 58, 127
2, 65280, Note_on_c, 1, 69, 127
2, 65280, Note_on_c, 1, 78, 127
2, 65280, Note_on_c, 1, 87, 127
2, 65280, Note_off_c, 1, 91, 0
2, 65280, Note_off_c, 1, 93, 0
2, 65280, Note_off_c, 1, 96, 0
2, 65280, Note_off_c, 1, 99, 0
2, 65280, Note_off_c, 1, 103, 0
2, 65320, Note_on_c, 1, 40, 127
2, 65320, Note_on_c, 1, 44, 127
2, 65320, Note_on_c, 1, 47, 127
2, 65320, Note_on_c, 1, 52, 127
2, 65320, Note_off_c, 1, 58, 0
2, 65320, Note_on_c, 1, 68, 127
2, 65320, Note_off_c, 1, 69, 0
2, 65320, Note_off_c, 1, 78, 0
2, 65320, Note_off_c, 1, 87, 0
2, 65360, Note_off_c, 1, 40, 0
2, 65360, Note_off_c, 1, 44, 0
2, 65360, Note_off_c, 1, 47, 0
2, 65360, Note_off_c, 1, 52, 0
2, 65360, Note_off_c, 1, 68, 0
2, 65400, Note_on_c, 1, 32, 127
2, 65400, Note_on_c, 1, 44, 127
2, 65400, Note_on_c, 1, 62, 127
2, 65400, Note_on_c, 1, 64, 127
2, 65400, Note_on_c, 1, 71, 127
2, 65560, Note_off_c, 1, 32, 0
2, 65560, Note_off_c, 1, 44, 0
2, 65560, Note_off_c, 1, 62, 0
2, 65560, Note_off_c, 1, 64, 0
2, 65560, Note_off_c, 1, 71, 0
2, 65600, Note_on_c, 1, 59, 127
2, 65600, Note_on_c, 1, 63, 127
2, 65600, Note_on_c, 1, 66, 127
2, 65600, Note_on_c, 1, 71, 127
2, 66360, Note_off_c, 1, 71, 0
2, 66400, Note_on_c, 1, 71, 127
2, 66760, Note_off_c, 1, 59, 0
2, 66760, Note_off_c, 1, 63, 0
2, 66760, Note_off_c, 1, 66, 0
2, 66760, Note_off_c, 1, 71, 0
2, 66800, Note_on_c, 1, 68, 127
2, 66800, Note_on_c, 1, 83, 127
2, 66960, Note_off_c, 1, 68, 0
2, 67000, Note_on_c, 1, 71, 127
2, 67160, Note_off_c, 1, 71, 0
2, 67200, Note_on_c, 1, 68, 127
2, 67400, Note_off_c, 1, 68, 0
2, 67400, Note_off_c, 1, 83, 0
2, 67440, Note_on_c, 1, 68, 127
2, 67440, Note_on_c, 1, 83, 127
2, 67600, Note_off_c, 1, 68, 0
2, 67600, Note_off_c, 1, 83, 0
2, 67640, Note_on_c, 1, 67, 127
2, 67640, Note_on_c, 1, 70, 127
2, 67640, Note_on_c, 1, 76, 127
2, 68000, Note_off_c, 1, 67, 0
2, 68000, Note_off_c, 1, 70, 0
2, 68040, Note_on_c, 1, 64, 127
2, 68200, Note_off_c, 1, 64, 0
2, 68240, Note_on_c, 1, 68, 127
2, 68400, Note_off_c, 1, 68, 0
2, 68440, Note_on_c, 1, 71, 127
2, 68600, Note_off_c, 1, 71, 0
2, 68600, Note_off_c, 1, 76, 0
2, 68640, Note_on_c, 1, 64, 127
2, 68640, Note_on_c, 1, 76, 127
2, 68800, Note_off_c, 1, 76, 0
2, 68840, Note_on_c, 1, 75, 127
2, 69000, Note_off_c, 1, 64, 0
2, 69000, Note_off_c, 1, 75, 0
2, 69040, Note_on_c, 1, 68, 127
2, 69040, Note_on_c, 1, 73, 127
2, 69200, Note_off_c, 1, 73, 0
2, 69240, Note_on_c, 1, 71, 127
2, 69400, Note_off_c, 1, 68, 0
2, 69400, Note_off_c, 1, 71, 0
2, 69480, Note_on_c, 1, 71, 127
2, 69840, Note_off_c, 1, 71, 0
2, 70280, Note_on_c, 1, 76, 127
2, 70640, Note_off_c, 1, 76, 0
2, 70680, Note_on_c, 1, 76, 127
2, 71040, Note_off_c, 1, 76, 0
2, 71080, Note_on_c, 1, 71, 127
2, 71440, Note_off_c, 1, 71, 0
2, 71520, Note_on_c, 1, 68, 127
2, 71520, Note_on_c, 1, 71, 127
2, 72240, Note_off_c, 1, 68, 0
2, 72240, Note_off_c, 1, 71, 0
2, 72320, Note_on_c, 1, 64, 127
2, 72320, Note_on_c, 1, 71, 127
2, 73080, Note_off_c, 1, 64, 0
2, 73080, Note_off_c, 1, 71, 0
2, 73120, Note_on_c, 1, 58, 127
2, 73120, Note_on_c, 1, 66, 127
2, 73480, Note_off_c, 1, 58, 0
2, 73480, Note_off_c, 1, 66, 0
2, 73560, Note_on_c, 1, 66, 127
2, 73560, Note_on_c, 1, 69, 127
2, 73880, Note_off_c, 1, 69, 0
2, 73960, Note_on_c, 1, 69, 127
2, 74320, Note_off_c, 1, 66, 0
2, 74320, Note_off_c, 1, 69, 0
2, 74360, Note_on_c, 1, 67, 127
2, 74360, Note_on_c, 1, 71, 127
2, 74720, Note_on_c, 1, 55, 127
2, 74720, Note_on_c, 1, 58, 127
2, 74720, Note_on_c, 1, 62, 127
2, 74720, Note_on_c, 1, 70, 127
2, 74720, Note_off_c, 1, 71, 0
2, 75440, Note_off_c, 1, 55, 0
2, 75440, Note_off_c, 1, 58, 0
2, 75440, Note_off_c, 1, 62, 0
2, 75440, Note_off_c, 1, 67, 0
2, 75440, Note_off_c, 1, 70, 0
2, 75560, Note_on_c, 1, 37, 127
2, 75560, Note_on_c, 1, 49, 127
2, 75560, Note_on_c, 1, 92, 127
2, 75560, Note_on_c, 1, 93, 127
2, 75600, Note_off_c, 1, 37, 0
2, 75600, Note_on_c, 1, 41, 127
2, 75600, Note_on_c, 1, 47, 127
2, 75600, Note_off_c, 1, 49, 0
2, 75600, Note_on_c, 1, 53, 127
2, 75600, Note_on_c, 1, 70, 127
2, 75600, Note_on_c, 1, 73, 127
2, 75600, Note_on_c, 1, 74, 127
2, 75600, Note_on_c, 1, 80, 127
2, 75600, Note_on_c, 1, 86, 127
2, 75600, Note_off_c, 1, 92, 0
2, 75600, Note_off_c, 1, 93, 0
2, 75640, Note_off_c, 1, 41, 0
2, 75640, Note_off_c, 1, 47, 0
2, 75640, Note_on_c, 1, 49, 127
2, 75640, Note_on_c, 1, 60, 127
2, 75640, Note_off_c, 1, 70, 0
2, 75640, Note_on_c, 1, 72, 127
2, 75640, Note_off_c, 1, 73, 0
2, 75640, Note_off_c, 1, 74, 0
2, 75640, Note_off_c, 1, 86, 0
2, 75680, Note_on_c, 1, 35, 127
2, 75680, Note_on_c, 1, 47, 127
2, 75680, Note_off_c, 1, 49, 0
2, 75680, Note_off_c, 1, 53, 0
2, 75680, Note_off_c, 1, 60, 0
2, 75680, Note_on_c, 1, 68, 127
2, 75680, Note_off_c, 1, 72, 0
2, 75680, Note_on_c, 1, 77, 127
2, 75680, Note_on_c, 1, 85, 127
2, 75680, Note_on_c, 1, 89, 127
2, 75720, Note_off_c, 1, 35, 0
2, 75720, Note_on_c, 1, 40, 127
2, 75720, Note_off_c, 1, 47, 0
2, 75720, Note_on_c, 1, 52, 127
2, 75720, Note_on_c, 1, 61, 127
2, 75720, Note_on_c, 1, 64, 127
2, 75720, Note_off_c, 1, 68, 0
2, 75720, Note_on_c, 1, 73, 127
2, 75720, Note_off_c, 1, 77, 0
2, 75720, Note_off_c, 1, 80, 0
2, 75720, Note_off_c, 1, 85, 0
2, 75720, Note_off_c, 1, 89, 0
2, 75760, Note_off_c, 1, 40, 0
2, 75760, Note_on_c, 1, 45, 127
2, 75760, Note_off_c, 1, 61, 0
2, 75760, Note_off_c, 1, 64, 0
2, 75760, Note_on_c, 1, 83, 127
2, 75800, Note_on_c, 1, 31, 127
2, 75800, Note_on_c, 1, 35, 127
2, 75800, Note_on_c, 1, 40, 127
2, 75800, Note_off_c, 1, 45, 0
2, 75800, Note_off_c, 1, 73, 0
2, 75800, Note_off_c, 1, 83, 0
2, 75840, Note_off_c, 1, 31, 0
2, 75840, Note_off_c, 1, 35, 0
2, 75840, Note_off_c, 1, 40, 0
2, 75840, Note_on_c, 1, 45, 127
2, 75840, Note_on_c, 1, 80, 127
2, 75840, Note_on_c, 1, 83, 127
2, 75880, Note_on_c, 1, 31, 127
2, 75880, Note_on_c, 1, 43, 127
2, 75880, Note_off_c, 1, 45, 0
2, 75880, Note_off_c, 1, 52, 0
2, 75880, Note_on_c, 1, 73, 127
2, 75880, Note_on_c, 1, 75, 127
2, 75880, Note_off_c, 1, 80, 0
2, 75880, Note_on_c, 1, 82, 127
2, 75880, Note_off_c, 1, 83, 0
2, 75880, Note_on_c, 1, 85, 127
2, 75920, Note_off_c, 1, 31, 0
2, 75920, Note_off_c, 1, 43, 0
2, 75920, Note_off_c, 1, 73, 0
2, 75920, Note_off_c, 1, 75, 0
2, 75920, Note_off_c, 1, 82, 0
2, 75920, Note_off_c, 1, 85, 0
2, 75960, Note_on_c, 1, 63, 127
2, 75960, Note_on_c, 1, 66, 127
2, 75960, Note_on_c, 1, 70, 127
2, 75960, Note_on_c, 1, 78, 127
2, 75960, Note_on_c, 1, 90, 127
2, 76120, Note_on_c, 1, 58, 127
2, 76120, Note_off_c, 1, 63, 0
2, 76120, Note_on_c, 1, 64, 127
2, 76120, Note_off_c, 1, 66, 0
2, 76120, Note_off_c, 1, 70, 0
2, 76120, Note_on_c, 1, 72, 127
2, 76120, Note_off_c, 1, 78, 0
2, 76120, Note_on_c, 1, 81, 127
2, 76120, Note_off_c, 1, 90, 0
2, 76160, Note_off_c, 1, 58, 0
2, 76160, Note_off_c, 1, 64, 0
2, 76160, Note_on_c, 1, 67, 127
2, 76160, Note_on_c, 1, 70, 127
2, 76160, Note_off_c, 1, 72, 0
2, 76160, Note_on_c, 1, 73, 127
2, 76160, Note_on_c, 1, 76, 127
2, 76160, Note_on_c, 1, 79, 127
2, 76160, Note_off_c, 1, 81, 0
2, 76160, Note_on_c, 1, 82, 127
2, 76160, Note_on_c, 1, 85, 127
2, 76160, Note_on_c, 1, 88, 127
2, 76160, Note_on_c, 1, 94, 127
2, 76320, Note_off_c, 1, 67, 0
2, 76320, Note_off_c, 1, 70, 0
2, 76320, Note_off_c, 1, 73, 0
2, 76320, Note_off_c, 1, 76, 0
2, 76320, Note_off_c, 1, 79, 0
2, 76320, Note_off_c, 1, 82, 0
2, 76320, Note_off_c, 1, 85, 0
2, 76320, Note_off_c, 1, 88, 0
2, 76320, Note_off_c, 1, 94, 0
2, 76360, Note_on_c, 1, 57, 127
2, 76360, Note_on_c, 1, 59, 127
2, 76360, Note_on_c, 1, 71, 127
2, 76360, Note_on_c, 1, 75, 127
2, 76360, Note_on_c, 1, 81, 127
2, 76360, Note_on_c, 1, 83, 127
2, 76440, Note_on_c, 1, 55, 127
2, 76440, Note_off_c, 1, 57, 0
2, 76440, Note_off_c, 1, 59, 0
2, 76440, Note_on_c, 1, 61, 127
2, 76440, Note_on_c, 1, 74, 127
2, 76440, Note_off_c, 1, 75, 0
2, 76440, Note_off_c, 1, 81, 0
2, 76480, Note_on_c, 1, 50, 127
2, 76480, Note_on_c, 1, 57, 127
2, 76480, Note_off_c, 1, 71, 0
2, 76480, Note_off_c, 1, 74, 0
2, 76480, Note_on_c, 1, 81, 127
2, 76480, Note_off_c, 1, 83, 0
2, 76520, Note_on_c, 1, 39, 127
2, 76520, Note_off_c, 1, 50, 0
2, 76520, Note_on_c, 1, 54, 127
2, 76520, Note_off_c, 1, 55, 0
2, 76520, Note_off_c, 1, 57, 0
2, 76520, Note_off_c, 1, 81, 0
2, 76560, Note_off_c, 1, 39, 0
2, 76560, Note_on_c, 1, 45, 127
2, 76560, Note_on_c, 1, 50, 127
2, 76560, Note_off_c, 1, 54, 0
2, 76560, Note_on_c, 1, 57, 127
2, 76560, Note_on_c, 1, 60, 127
2, 76560, Note_off_c, 1, 61, 0
2, 76560, Note_on_c, 1, 64, 127
2, 76560, Note_on_c, 1, 66, 127
2, 76560, Note_on_c, 1, 72, 127
2, 76560, Note_on_c, 1, 74, 127
2, 76600, Note_off_c, 1, 45, 0
2, 76600, Note_off_c, 1, 50, 0
2, 76600, Note_off_c, 1, 57, 0
2, 76600, Note_off_c, 1, 60, 0
2, 76600, Note_on_c, 1, 62, 127
2, 76600, Note_off_c, 1, 64, 0
2, 76600, Note_off_c, 1, 72, 0
2, 76600, Note_off_c, 1, 74, 0
2, 76600, Note_on_c, 1, 78, 127
2, 76600, Note_on_c, 1, 81, 127
2, 76600, Note_on_c, 1, 90, 127
2, 76640, Note_on_c, 1, 49, 127
2, 76640, Note_on_c, 1, 61, 127
2, 76640, Note_off_c, 1, 62, 0
2, 76640, Note_on_c, 1, 64, 127
2, 76640, Note_off_c, 1, 66, 0
2, 76640, Note_on_c, 1, 67, 127
2, 76640, Note_on_c, 1, 71, 127
2, 76640, Note_off_c, 1, 78, 0
2, 76640, Note_off_c, 1, 81, 0
2, 76640, Note_off_c, 1, 90, 0
2, 76680, Note_on_c, 1, 36, 127
2, 76680, Note_on_c, 1, 48, 127
2, 76680, Note_off_c, 1, 49, 0
2, 76680, Note_on_c, 1, 56, 127
2, 76680, Note_off_c, 1, 61, 0
2, 76680, Note_off_c, 1, 64, 0
2, 76680, Note_off_c, 1, 67, 0
2, 76680, Note_on_c, 1, 68, 127
2, 76680, Note_off_c, 1, 71, 0
2, 76680, Note_on_c, 1, 80, 127
2, 76680, Note_on_c, 1, 88, 127
2, 76680, Note_on_c, 1, 92, 127
2, 76720, Note_off_c, 1, 36, 0
2, 76720, Note_off_c, 1, 48, 0
2, 76720, Note_off_c, 1, 56, 0
2, 76720, Note_off_c, 1, 68, 0
2, 76720, Note_off_c, 1, 80, 0
2, 76720, Note_off_c, 1, 88, 0
2, 76720, Note_off_c, 1, 92, 0
2, 76760, Note_on_c, 1, 37, 127
2, 76760, Note_on_c, 1, 49, 127
2, 76760, Note_on_c, 1, 55, 127
2, 76760, Note_on_c, 1, 58, 127
2, 76760, Note_on_c, 1, 64, 127
2, 76760, Note_on_c, 1, 67, 127
2, 77520, Note_off_c, 1, 37, 0
2, 77520, Note_off_c, 1, 49, 0
2, 77520, Note_off_c, 1, 55, 0
2, 77520, Note_off_c, 1, 58, 0
2, 77520, Note_off_c, 1, 64, 0
2, 77520, Note_off_c, 1, 67, 0
2, 77600, Note_on_c, 1, 53, 127
2, 77600, Note_on_c, 1, 56, 127
2, 77600, Note_on_c, 1, 58, 127
2, 77600, Note_on_c, 1, 62, 127
2, 77600, Note_on_c, 1, 68, 127
2, 77600, Note_on_c, 1, 74, 127
2, 77640, Note_on_c, 1, 38, 127
2, 77640, Note_on_c, 1, 50, 127
2, 77640, Note_off_c, 1, 53, 0
2, 77640, Note_off_c, 1, 56, 0
2, 77640, Note_off_c, 1, 58, 0
2, 77640, Note_on_c, 1, 59, 127
2, 77640, Note_on_c, 1, 67, 127
2, 77640, Note_off_c, 1, 68, 0
2, 77640, Note_on_c, 1, 71, 127
2, 77640, Note_off_c, 1, 74, 0
2, 77680, Note_off_c, 1, 38, 0
2, 77680, Note_on_c, 1, 39, 127
2, 77680, Note_on_c, 1, 44, 127
2, 77680, Note_on_c, 1, 48, 127
2, 77680, Note_off_c, 1, 50, 0
2, 77680, Note_on_c, 1, 51, 127
2, 77680, Note_off_c, 1, 59, 0
2, 77680, Note_off_c, 1, 62, 0
2, 77680, Note_off_c, 1, 67, 0
2, 77680, Note_off_c, 1, 71, 0
2, 77720, Note_off_c, 1, 39, 0
2, 77720, Note_off_c, 1, 44, 0
2, 77720, Note_off_c, 1, 48, 0
2, 77720, Note_on_c, 1, 50, 127
2, 77720, Note_off_c, 1, 51, 0
2, 77720, Note_on_c, 1, 62, 127
2, 77720, Note_on_c, 1, 76, 127
2, 77720, Note_on_c, 1, 81, 127
2, 77720, Note_on_c, 1, 88, 127
2, 77760, Note_on_c, 1, 45, 127
2, 77760, Note_off_c, 1, 50, 0
2, 77760, Note_on_c, 1, 59, 127
2, 77760, Note_on_c, 1, 71, 127
2, 77760, Note_off_c, 1, 76, 0
2, 77760, Note_off_c, 1, 81, 0
2, 77760, Note_off_c, 1, 88, 0
2, 77800, Note_on_c, 1, 25, 127
2, 77800, Note_on_c, 1, 37, 127
2, 77800, Note_off_c, 1, 45, 0
2, 77800, Note_on_c, 1, 54, 127
2, 77800, Note_on_c, 1, 57, 127
2, 77800, Note_off_c, 1, 59, 0
2, 77800, Note_on_c, 1, 66, 127
2, 77800, Note_off_c, 1, 71, 0
2, 77960, Note_off_c, 1, 25, 0
2, 77960, Note_off_c, 1, 37, 0
2, 77960, Note_off_c, 1, 54, 0
2, 77960, Note_off_c, 1, 57, 0
2, 77960, Note_off_c, 1, 62, 0
2, 77960, Note_off_c, 1, 66, 0
2, 78000, Note_on_c, 1, 52, 127
2, 78000, Note_on_c, 1, 59, 127
2, 78000, Note_on_c, 1, 64, 127
2, 78000, Note_on_c, 1, 80, 127
2, 78000, Note_on_c, 1, 92, 127
2, 78360, Note_off_c, 1, 52, 0
2, 78360, Note_off_c, 1, 59, 0
2, 78360, Note_off_c, 1, 64, 0
2, 78360, Note_off_c, 1, 80, 0
2, 78360, Note_off_c, 1, 92, 0
2, 78400, Note_on_c, 1, 62, 127
2, 78400, Note_on_c, 1, 66, 127
2, 78400, Note_on_c, 1, 84, 127
2, 78400, Note_on_c, 1, 90, 127
2, 78760, Note_off_c, 1, 62, 0
2, 78760, Note_off_c, 1, 66, 0
2, 78760, Note_off_c, 1, 84, 0
2, 78760, Note_off_c, 1, 90, 0
2, 78800, Note_on_c, 1, 41, 127
2, 78800, Note_on_c, 1, 53, 127
2, 78800, Note_on_c, 1, 83, 127
2, 78800, Note_on_c, 1, 86, 127
2, 78800, Note_on_c, 1, 95, 127
2, 78960, Note_off_c, 1, 83, 0
2, 78960, Note_off_c, 1, 86, 0
2, 78960, Note_off_c, 1, 95, 0
2, 79200, Note_off_c, 1, 41, 0
2, 79200, Note_on_c, 1, 43, 127
2, 79200, Note_off_c, 1, 53, 0
2, 79200, Note_on_c, 1, 55, 127
2, 79200, Note_on_c, 1, 61, 127
2, 79200, Note_on_c, 1, 64, 127
2, 79200, Note_on_c, 1, 70, 127
2, 79200, Note_on_c, 1, 73, 127
2, 79240, Note_off_c, 1, 61, 0
2, 79240, Note_off_c, 1, 64, 0
2, 79240, Note_off_c, 1, 70, 0
2, 79240, Note_off_c, 1, 73, 0
2, 79400, Note_on_c, 1, 41, 127
2, 79400, Note_off_c, 1, 43, 0
2, 79400, Note_on_c, 1, 53, 127
2, 79400, Note_off_c, 1, 55, 0
2, 79400, Note_on_c, 1, 72, 127
2, 79400, Note_on_c, 1, 77, 127
2, 79400, Note_on_c, 1, 80, 127
2, 79400, Note_on_c, 1, 84, 127
2, 79480, Note_off_c, 1, 41, 0
2, 79480, Note_off_c, 1, 53, 0
2, 79480, Note_off_c, 1, 72, 0
2, 79480, Note_off_c, 1, 77, 0
2, 79480, Note_off_c, 1, 80, 0
2, 79480, Note_off_c, 1, 84, 0
2, 79520, Note_on_c, 1, 41, 127
2, 79520, Note_on_c, 1, 53, 127
2, 79520, Note_on_c, 1, 72, 127
2, 79520, Note_on_c, 1, 77, 127
2, 79520, Note_on_c, 1, 80, 127
2, 79520, Note_on_c, 1, 84, 127
2, 79600, Note_off_c, 1, 41, 0
2, 79600, Note_off_c, 1, 53, 0
2, 79600, Note_off_c, 1, 72, 0
2, 79600, Note_off_c, 1, 77, 0
2, 79600, Note_off_c, 1, 80, 0
2, 79600, Note_off_c, 1, 84, 0
2, 79640, Note_on_c, 1, 48, 127
2, 79640, Note_on_c, 1, 60, 127
2, 79640, Note_on_c, 1, 64, 127
2, 79640, Note_on_c, 1, 72, 127
2, 79640, Note_on_c, 1, 76, 127
2, 80400, Note_off_c, 1, 48, 0
2, 80400, Note_off_c, 1, 60, 0
2, 80400, Note_off_c, 1, 64, 0
2, 80400, Note_off_c, 1, 72, 0
2, 80400, Note_off_c, 1, 76, 0
2, 80440, Note_on_c, 1, 66, 127
2, 80440, Note_on_c, 1, 73, 127
2, 80440, Note_on_c, 1, 78, 127
2, 80440, Note_on_c, 1, 81, 127
2, 80440, Note_on_c, 1, 85, 127
2, 80440, Note_on_c, 1, 93, 127
2, 80800, Note_off_c, 1, 66, 0
2, 80800, Note_off_c, 1, 73, 0
2, 80800, Note_off_c, 1, 78, 0
2, 80800, Note_off_c, 1, 81, 0
2, 80800, Note_off_c, 1, 85, 0
2, 80800, Note_off_c, 1, 93, 0
2, 80840, Note_on_c, 1, 77, 127
2, 80840, Note_on_c, 1, 80, 127
2, 80840, Note_on_c, 1, 86, 127
2, 80840, Note_on_c, 1, 101, 127
2, 81200, Note_off_c, 1, 77, 0
2, 81200, Note_off_c, 1, 80, 0
2, 81200, Note_off_c, 1, 86, 0
2, 81200, Note_off_c, 1, 101, 0
2, 81240, Note_on_c, 1, 34, 127
2, 81240, Note_on_c, 1, 43, 127
2, 81240, Note_on_c, 1, 46, 127
2, 81240, Note_on_c, 1, 62, 127
2, 81240, Note_on_c, 1, 70, 127
2, 81240, Note_on_c, 1, 74, 127
2, 81400, Note_off_c, 1, 34, 0
2, 81400, Note_off_c, 1, 43, 0
2, 81400, Note_off_c, 1, 46, 0
2, 81400, Note_off_c, 1, 62, 0
2, 81400, Note_off_c, 1, 70, 0
2, 81400, Note_off_c, 1, 74, 0
2, 81440, Note_on_c, 1, 34, 127
2, 81440, Note_on_c, 1, 43, 127
2, 81440, Note_on_c, 1, 46, 127
2, 81440, Note_on_c, 1, 62, 127
2, 81440, Note_on_c, 1, 70, 127
2, 81440, Note_on_c, 1, 74, 127
2, 81640, Note_on_c, 1, 27, 127
2, 81640, Note_off_c, 1, 34, 0
2, 81640, Note_on_c, 1, 39, 127
2, 81640, Note_off_c, 1, 43, 0
2, 81640, Note_off_c, 1, 46, 0
2, 81640, Note_off_c, 1, 62, 0
2, 81640, Note_off_c, 1, 70, 0
2, 81640, Note_off_c, 1, 74, 0
2, 81680, Note_off_c, 1, 27, 0
2, 81680, Note_off_c, 1, 39, 0
2, 81680, Note_on_c, 1, 46, 127
2, 81680, Note_on_c, 1, 50, 127
2, 81680, Note_on_c, 1, 55, 127
2, 81680, Note_on_c, 1, 58, 127
2, 81680, Note_on_c, 1, 86, 127
2, 81840, Note_on_c, 1, 38, 127
2, 81840, Note_on_c, 1, 41, 127
2, 81840, Note_off_c, 1, 46, 0
2, 81840, Note_on_c, 1, 49, 127
2, 81840, Note_off_c, 1, 50, 0
2, 81840, Note_on_c, 1, 52, 127
2, 81840, Note_off_c, 1, 58, 0
2, 81840, Note_on_c, 1, 61, 127
2, 81840, Note_off_c, 1, 86, 0
2, 81880, Note_off_c, 1, 38, 0
2, 81880, Note_off_c, 1, 41, 0
2, 81880, Note_on_c, 1, 46, 127
2, 81880, Note_off_c, 1, 49, 0
2, 81880, Note_on_c, 1, 50, 127
2, 81880, Note_off_c, 1, 52, 0
2, 81880, Note_on_c, 1, 58, 127
2, 81880, Note_off_c, 1, 61, 0
2, 81880, Note_on_c, 1, 86, 127
2, 82040, Note_off_c, 1, 46, 0
2, 82040, Note_off_c, 1, 50, 0
2, 82040, Note_off_c, 1, 55, 0
2, 82040, Note_off_c, 1, 58, 0
2, 82040, Note_off_c, 1, 86, 0
2, 82080, Note_on_c, 1, 36, 127
2, 82080, Note_on_c, 1, 58, 127
2, 82080, Note_on_c, 1, 64, 127
2, 82080, Note_on_c, 1, 70, 127
2, 82280, Note_on_c, 1, 67, 127
2, 82280, Note_off_c, 1, 70, 0
2, 82440, Note_off_c, 1, 36, 0
2, 82440, Note_off_c, 1, 58, 0
2, 82440, Note_off_c, 1, 64, 0
2, 82440, Note_off_c, 1, 67, 0
2, 82480, Note_on_c, 1, 48, 127
2, 82480, Note_on_c, 1, 55, 127
2, 82480, Note_on_c, 1, 58, 127
2, 82480, Note_on_c, 1, 65, 127
2, 82640, Note_off_c, 1, 65, 0
2, 82680, Note_on_c, 1, 64, 127
2, 82840, Note_off_c, 1, 48, 0
2, 82840, Note_off_c, 1, 55, 0
2, 82840, Note_off_c, 1, 58, 0
2, 82840, Note_off_c, 1, 64, 0
2, 82880, Note_on_c, 1, 53, 127
2, 82880, Note_on_c, 1, 58, 127
2, 82880, Note_on_c, 1, 60, 127
2, 82880, Note_on_c, 1, 64, 127
2, 82880, Note_on_c, 1, 67, 127
2, 83480, Note_off_c, 1, 53, 0
2, 83480, Note_off_c, 1, 58, 0
2, 83480, Note_off_c, 1, 60, 0
2, 83480, Note_off_c, 1, 64, 0
2, 83480, Note_off_c, 1, 67, 0
2, 83520, Note_on_c, 1, 53, 127
2, 83520, Note_on_c, 1, 58, 127
2, 83520, Note_on_c, 1, 60, 127
2, 83520, Note_on_c, 1, 64, 127
2, 83520, Note_on_c, 1, 67, 127
2, 84480, Note_off_c, 1, 53, 0
2, 84480, Note_off_c, 1, 58, 0
2, 84480, Note_off_c, 1, 60, 0
2, 84480, Note_off_c, 1, 64, 0
2, 84480, Note_off_c, 1, 67, 0
2, 85760, Note_on_c, 1, 60, 127
2, 85760, Note_on_c, 1, 64, 127
2, 85760, Note_on_c, 1, 67, 127
2, 85760, Note_on_c, 1, 76, 127
2, 86560, Note_off_c, 1, 60, 0
2, 86560, Note_off_c, 1, 64, 0
2, 86560, Note_off_c, 1, 67, 0
2, 86560, Note_off_c, 1, 76, 0
2, 86600, Note_on_c, 1, 60, 127
2, 86600, Note_on_c, 1, 64, 127
2, 86600, Note_on_c, 1, 67, 127
2, 86600, Note_on_c, 1, 76, 127
2, 87800, Note_off_c, 1, 60, 0
2, 87800, Note_off_c, 1, 64, 0
2, 87800, Note_off_c, 1, 67, 0
2, 87800, Note_off_c, 1, 76, 0
2, 87840, Note_on_c, 1, 60, 127
2, 87840, Note_on_c, 1, 64, 127
2, 87840, Note_on_c, 1, 67, 127
2, 87840, Note_on_c, 1, 76, 127
2, 88640, Note_off_c, 1, 60, 0
2, 88640, Note_off_c, 1, 64, 0
2, 88640, Note_off_c, 1, 67, 0
2, 88640, Note_off_c, 1, 76, 0
2, 88720, Note_on_c, 1, 60, 127
2, 88720, Note_on_c, 1, 64, 127
2, 88720, Note_on_c, 1, 67, 127
2, 88720, Note_on_c, 1, 76, 127
2, 89920, Note_off_c, 1, 60, 0
2, 89920, Note_off_c, 1, 64, 0
2, 89920, Note_off_c, 1, 67, 0
2, 89920, Note_off_c, 1, 76, 0
2, 89960, Note_on_c, 1, 60, 127
2, 89960, Note_on_c, 1, 64, 127
2, 89960, Note_on_c, 1, 67, 127
2, 89960, Note_on_c, 1, 76, 127
2, 90760, Note_off_c, 1, 60, 0
2, 90760, Note_off_c, 1, 64, 0
2, 90760, Note_off_c, 1, 67, 0
2, 90760, Note_off_c, 1, 76, 0
2, 90840, Note_on_c, 1, 59, 127
2, 90840, Note_on_c, 1, 63, 127
2, 90840, Note_on_c, 1, 66, 127
2, 90840, Note_on_c, 1, 71, 127
2, 92000, Note_off_c, 1, 59, 0
2, 92000, Note_off_c, 1, 63, 0
2, 92000, Note_off_c, 1, 66, 0
2, 92000, Note_off_c, 1, 71, 0
2, 92040, Note_on_c, 1, 47, 127
2, 92400, Note_off_c, 1, 47, 0
2, 92440, Note_on_c, 1, 62, 127
2, 92720, Note_off_c, 1, 62, 0
2, 92760, Note_on_c, 1, 62, 127
2, 94520, Note_off_c, 1, 62, 0
2, 94600, Note_on_c, 1, 43, 127
2, 94600, Note_on_c, 1, 49, 127
2, 94600, Note_on_c, 1, 58, 127
2, 94600, Note_on_c, 1, 64, 127
2, 94600, Note_on_c, 1, 70, 127
2, 94960, Note_off_c, 1, 43, 0
2, 94960, Note_off_c, 1, 49, 0
2, 94960, Note_on_c, 1, 54, 127
2, 94960, Note_on_c, 1, 57, 127
2, 94960, Note_off_c, 1, 58, 0
2, 94960, Note_off_c, 1, 64, 0
2, 94960, Note_on_c, 1, 69, 127
2, 94960, Note_off_c, 1, 70, 0
2, 95000, Note_off_c, 1, 57, 0
2, 95000, Note_off_c, 1, 69, 0
2, 95000, Note_on_c, 1, 70, 127
2, 95000, Note_on_c, 1, 74, 127
2, 95000, Note_on_c, 1, 79, 127
2, 95200, Note_on_c, 1, 62, 127
2, 95200, Note_off_c, 1, 79, 0
2, 95240, Note_on_c, 1, 78, 127
2, 95400, Note_off_c, 1, 54, 0
2, 95400, Note_off_c, 1, 70, 0
2, 95400, Note_off_c, 1, 74, 0
2, 95400, Note_off_c, 1, 78, 0
2, 95440, Note_on_c, 1, 55, 127
2, 95440, Note_on_c, 1, 71, 127
2, 95440, Note_on_c, 1, 74, 127
2, 96240, Note_off_c, 1, 55, 0
2, 96240, Note_off_c, 1, 62, 0
2, 96240, Note_on_c, 1, 67, 127
2, 96280, Note_on_c, 1, 55, 127
2, 96280, Note_on_c, 1, 62, 127
2, 96280, Note_off_c, 1, 67, 0
2, 96680, Note_off_c, 1, 62, 0
2, 96680, Note_off_c, 1, 71, 0
2, 96720, Note_off_c, 1, 55, 0
2, 96720, Note_off_c, 1, 74, 0
2, 96760, Note_on_c, 1, 55, 127
2, 96760, Note_on_c, 1, 62, 127
2, 96760, Note_on_c, 1, 71, 127
2, 96760, Note_on_c, 1, 74, 127
2, 97120, Note_off_c, 1, 62, 0
2, 97160, Note_on_c, 1, 62, 127
2, 97520, Note_off_c, 1, 62, 0
2, 97560, Note_on_c, 1, 54, 127
2, 97560, Note_off_c, 1, 55, 0
2, 97560, Note_off_c, 1, 71, 0
2, 97560, Note_off_c, 1, 74, 0
2, 97560, Note_on_c, 1, 78, 127
2, 97560, Note_on_c, 1, 90, 127
2, 97560, Note_on_c, 1, 93, 127
2, 97600, Note_on_c, 1, 29, 127
2, 97600, Note_on_c, 1, 41, 127
2, 97600, Note_off_c, 1, 54, 0
2, 97600, Note_on_c, 1, 62, 127
2, 97600, Note_on_c, 1, 74, 127
2, 97600, Note_off_c, 1, 78, 0
2, 97600, Note_off_c, 1, 90, 0
2, 97600, Note_off_c, 1, 93, 0
2, 97960, Note_off_c, 1, 29, 0
2, 97960, Note_off_c, 1, 41, 0
2, 97960, Note_off_c, 1, 62, 0
2, 97960, Note_off_c, 1, 74, 0
2, 98000, Note_on_c, 1, 55, 127
2, 98000, Note_on_c, 1, 72, 127
2, 98000, Note_on_c, 1, 80, 127
2, 98600, Note_off_c, 1, 55, 0
2, 98640, Note_off_c, 1, 72, 0
2, 98640, Note_off_c, 1, 80, 0
2, 98680, Note_on_c, 1, 46, 127
2, 98680, Note_on_c, 1, 53, 127
2, 98680, Note_on_c, 1, 68, 127
2, 98680, Note_on_c, 1, 74, 127
2, 98680, Note_on_c, 1, 75, 127
2, 98720, Note_off_c, 1, 75, 0
2, 98760, Note_on_c, 1, 75, 127
2, 98840, Note_off_c, 1, 75, 0
2, 99480, Note_off_c, 1, 46, 0
2, 99480, Note_off_c, 1, 53, 0
2, 99480, Note_on_c, 1, 55, 127
2, 99480, Note_on_c, 1, 63, 127
2, 99480, Note_off_c, 1, 68, 0
2, 99480, Note_off_c, 1, 74, 0
2, 99520, Note_on_c, 1, 47, 127
2, 99520, Note_on_c, 1, 62, 127
2, 99520, Note_off_c, 1, 63, 0
2, 99520, Note_on_c, 1, 67, 127
2, 100320, Note_off_c, 1, 47, 0
2, 100320, Note_off_c, 1, 55, 0
2, 100320, Note_off_c, 1, 62, 0
2, 100320, Note_off_c, 1, 67, 0
2, 100360, Note_on_c, 1, 54, 127
2, 100360, Note_on_c, 1, 62, 127
2, 100360, Note_on_c, 1, 65, 127
2, 100360, Note_on_c, 1, 71, 127
2, 100800, Note_off_c, 1, 54, 0
2, 100800, Note_off_c, 1, 62, 0
2, 100800, Note_off_c, 1, 65, 0
2, 100800, Note_off_c, 1, 71, 0
2, 100840, Note_on_c, 1, 54, 127
2, 100840, Note_on_c, 1, 62, 127
2, 100840, Note_on_c, 1, 65, 127
2, 100840, Note_on_c, 1, 71, 127
2, 101200, Note_off_c, 1, 65, 0
2, 101200, Note_off_c, 1, 71, 0
2, 101240, Note_off_c, 1, 62, 0
2, 101240, Note_on_c, 1, 63, 127
2, 101240, Note_on_c, 1, 66, 127
2, 101240, Note_on_c, 1, 71, 127
2, 102000, Note_off_c, 1, 54, 0
2, 102000, Note_off_c, 1, 63, 0
2, 102000, Note_off_c, 1, 66, 0
2, 102000, Note_off_c, 1, 71, 0
2, 102040, Note_on_c, 1, 42, 127
2, 102040, Note_on_c, 1, 51, 127
2, 102040, Note_on_c, 1, 60, 127
2, 102040, Note_on_c, 1, 69, 127
2, 102040, Note_on_c, 1, 72, 127
2, 102280, Note_off_c, 1, 51, 0
2, 102360, Note_on_c, 1, 51, 127
2, 102400, Note_off_c, 1, 51, 0
2, 102480, Note_on_c, 1, 54, 127
2, 102840, Note_off_c, 1, 42, 0
2, 102840, Note_off_c, 1, 54, 0
2, 102840, Note_off_c, 1, 60, 0
2, 102840, Note_off_c, 1, 69, 0
2, 102840, Note_off_c, 1, 72, 0
2, 102880, Note_on_c, 1, 42, 127
2, 102880, Note_on_c, 1, 60, 127
2, 102880, Note_on_c, 1, 69, 127
2, 102880, Note_on_c, 1, 72, 127
2, 102920, Note_on_c, 1, 54, 127
2, 103280, Note_off_c, 1, 42, 0
2, 103280, Note_off_c, 1, 54, 0
2, 103280, Note_on_c, 1, 67, 127
2, 103280, Note_off_c, 1, 69, 0
2, 103320, Note_on_c, 1, 43, 127
2, 103320, Note_on_c, 1, 55, 127
2, 103320, Note_off_c, 1, 60, 0
2, 103320, Note_off_c, 1, 67, 0
2, 103320, Note_off_c, 1, 72, 0
2, 103320, Note_on_c, 1, 74, 127
2, 103320, Note_on_c, 1, 81, 127
2, 103680, Note_off_c, 1, 74, 0
2, 103680, Note_off_c, 1, 81, 0
2, 103720, Note_off_c, 1, 43, 0
2, 103720, Note_off_c, 1, 55, 0
2, 103720, Note_on_c, 1, 63, 127
2, 103720, Note_on_c, 1, 68, 127
2, 103720, Note_on_c, 1, 71, 127
2, 103720, Note_on_c, 1, 74, 127
2, 103720, Note_on_c, 1, 76, 127
2, 104080, Note_off_c, 1, 63, 0
2, 104080, Note_on_c, 1, 64, 127
2, 104120, Note_off_c, 1, 64, 0
2, 104120, Note_off_c, 1, 68, 0
2, 104120, Note_off_c, 1, 71, 0
2, 104120, Note_off_c, 1, 74, 0
2, 104120, Note_off_c, 1, 76, 0
2, 104160, Note_on_c, 1, 36, 127
2, 104160, Note_on_c, 1, 40, 127
2, 104160, Note_on_c, 1, 43, 127
2, 104160, Note_on_c, 1, 48, 127
2, 104160, Note_on_c, 1, 60, 127
2, 104160, Note_on_c, 1, 64, 127
2, 104160, Note_on_c, 1, 67, 127
2, 104160, Note_on_c, 1, 72, 127
2, 104960, Note_off_c, 1, 36, 0
2, 104960, Note_off_c, 1, 40, 0
2, 104960, Note_off_c, 1, 43, 0
2, 104960, Note_off_c, 1, 48, 0
2, 104960, Note_off_c, 1, 60, 0
2, 104960, Note_off_c, 1, 64, 0
2, 104960, Note_off_c, 1, 67, 0
2, 104960, Note_off_c, 1, 72, 0
2, 105000, Note_on_c, 1, 36, 127
2, 105000, Note_on_c, 1, 40, 127
2, 105000, Note_on_c, 1, 43, 127
2, 105000, Note_on_c, 1, 48, 127
2, 105000, Note_on_c, 1, 60, 127
2, 105000, Note_on_c, 1, 64, 127
2, 105000, Note_on_c, 1, 67, 127
2, 105000, Note_on_c, 1, 72, 127
2, 107160, Note_off_c, 1, 36, 0
2, 107160, Note_off_c, 1, 40, 0
2, 107160, Note_off_c, 1, 43, 0
2, 107160, Note_off_c, 1, 48, 0
2, 107160, Note_off_c, 1, 60, 0
2, 107160, Note_off_c, 1, 64, 0
2, 107160, Note_off_c, 1, 67, 0
2, 107160, Note_off_c, 1, 72, 0
2, 107200, Note_on_c, 1, 36, 127
2, 107200, Note_on_c, 1, 40, 127
2, 107200, Note_on_c, 1, 43, 127
2, 107200, Note_on_c, 1, 48, 127
2, 107200, Note_on_c, 1, 60, 127
2, 107200, Note_on_c, 1, 64, 127
2, 107200, Note_on_c, 1, 67, 127
2, 107200, Note_on_c, 1, 72, 127
2, 109520, Note_off_c, 1, 36, 0
2, 109520, Note_off_c, 1, 40, 0
2, 109520, Note_off_c, 1, 43, 0
2, 109520, Note_off_c, 1, 48, 0
2, 109520, Note_off_c, 1, 60, 0
2, 109520, Note_off_c, 1, 64, 0
2, 109520, Note_off_c, 1, 67, 0
2, 109520, Note_off_c, 1, 72, 0
2, 109560, Note_on_c, 1, 36, 127
2, 109560, Note_on_c, 1, 40, 127
2, 109560, Note_on_c, 1, 43, 127
2, 109560, Note_on_c, 1, 48, 127
2, 109560, Note_on_c, 1, 60, 127
2, 109560, Note_on_c, 1, 64, 127
2, 109560, Note_on_c, 1, 67, 127
2, 109560, Note_on_c, 1, 72, 127
2, 110160, Note_off_c, 1, 36, 0
2, 110160, Note_off_c, 1, 40, 0
2, 110160, Note_off_c, 1, 43, 0
2, 110160, Note_off_c, 1, 48, 0
2, 110160, Note_off_c, 1, 60, 0
2, 110160, Note_off_c, 1, 64, 0
2, 110160, Note_off_c, 1, 67, 0
2, 110160, Note_off_c, 1, 72, 0
2, 115200, Note_on_c, 1, 70, 127
2, 115200, Note_on_c, 1, 74, 127
2, 115200, Note_on_c, 1, 79, 127
2, 115200, Note_on_c, 1, 82, 127
2, 115200, Note_on_c, 1, 86, 127
2, 115200, Note_on_c, 1, 91, 127
2, 115440, Note_off_c, 1, 70, 0
2, 115440, Note_off_c, 1, 74, 0
2, 115440, Note_off_c, 1, 79, 0
2, 115440, Note_off_c, 1, 82, 0
2, 115440, Note_off_c, 1, 86, 0
2, 115440, Note_off_c, 1, 91, 0
2, 115480, Note_on_c, 1, 70, 127
2, 115480, Note_on_c, 1, 74, 127
2, 115480, Note_on_c, 1, 79, 127
2, 115480, Note_on_c, 1, 82, 127
2, 115480, Note_on_c, 1, 86, 127
2, 115480, Note_on_c, 1, 91, 127
2, 115600, Note_off_c, 1, 70, 0
2, 115600, Note_off_c, 1, 74, 0
2, 115600, Note_off_c, 1, 79, 0
2, 115600, Note_off_c, 1, 82, 0
2, 115600, Note_off_c, 1, 86, 0
2, 115600, Note_off_c, 1, 91, 0
2, 115640, Note_on_c, 1, 76, 127
2, 115640, Note_on_c, 1, 81, 127
2, 115640, Note_on_c, 1, 85, 127
2, 116360, Note_off_c, 1, 76, 0
2, 116360, Note_off_c, 1, 81, 0
2, 116360, Note_off_c, 1, 85, 0
2, 116440, Note_on_c, 1, 69, 127
2, 116440, Note_on_c, 1, 73, 127
2, 116440, Note_on_c, 1, 79, 127
2, 116440, Note_on_c, 1, 81, 127
2, 116800, Note_off_c, 1, 69, 0
2, 116800, Note_off_c, 1, 73, 0
2, 116800, Note_off_c, 1, 79, 0
2, 116800, Note_off_c, 1, 81, 0
2, 120040, End_track
3, 0, Start_track
3, 0, Title_t, "MIDI"
3, 1536, End_track
0, 0, End_of_file
