0, 0, Header, 1, 3, 192
1, 0, Start_track
1, 0, Time_signature, 4, 2, 24, 8
1, 0, Tempo, 500000
1, 120040, End_track
2, 0, Start_track
2, 0, Text_t, "random instrument: random person i dunno whatev"
2, 0, Title_t, "Track 1"
2, 0, Note_on_c, 1, 40, 127
2, 0, Note_on_c, 1, 48, 127
2, 0, Note_on_c, 1, 56, 127
2, 0, Note_on_c, 1, 60, 127
2, 120, Note_off_c, 1, 40, 0
2, 120, Note_off_c, 1, 48, 0
2, 120, Note_off_c, 1, 56, 0
2, 120, Note_off_c, 1, 60, 0
2, 160, Note_on_c, 1, 40, 127
2, 160, Note_on_c, 1, 48, 127
2, 160, Note_on_c, 1, 56, 127
2, 160, Note_on_c, 1, 60, 127
2, 200, Note_on_c, 1, 35, 127
2, 200, Note_on_c, 1, 39, 127
2, 200, Note_off_c, 1, 40, 0
2, 200, Note_on_c, 1, 47, 127
2, 200, Note_off_c, 1, 48, 0
2, 200, Note_on_c, 1, 50, 127
2, 200, Note_off_c, 1, 56, 0
2, 200, Note_off_c, 1, 60, 0
2, 240, Note_off_c, 1, 35, 0
2, 240, Note_off_c, 1, 39, 0
2, 240, Note_off_c, 1, 47, 0
2, 240, Note_off_c, 1, 50, 0
2, 240, Note_on_c, 1, 74, 127
2, 240, Note_on_c, 1, 77, 127
2, 240, Note_on_c, 1, 80, 127
2, 240, Note_on_c, 1, 83, 127
2, 520, Note_off_c, 1, 74, 0
2, 520, Note_off_c, 1, 77, 0
2, 520, Note_off_c, 1, 80, 0
2, 520, Note_off_c, 1, 83, 0
2, 14960, Note_on_c, 1, 35, 127
2, 15040, Note_off_c, 1, 35, 0
2, 16920, Note_on_c, 1, 57, 127
2, 16920, Note_on_c, 1, 73, 127
2, 20400, Note_on_c, 1, 66, 127
2, 20400, Note_off_c, 1, 73, 0
2, 20440, Note_off_c, 1, 57, 0
2, 20440, Note_off_c, 1, 66, 0
2, 20480, Note_on_c, 1, 54, 127
2, 20480, Note_on_c, 1, 69, 127
2, 20680, Note_off_c, 1, 69, 0
2, 20680, Note_on_c, 1, 71, 127
2, 20720, Note_off_c, 1, 54, 0
2, 20720, Note_on_c, 1, 55, 127
2, 20960, Note_off_c, 1, 55, 0
2, 20960, Note_off_c, 1, 71, 0
2, 21000, Note_on_c, 1, 55, 127
2, 21000, Note_on_c, 1, 71, 127
2, 21200, Note_off_c, 1, 55, 0
2, 21200, Note_on_c, 1, 62, 127
2, 21720, Note_off_c, 1, 62, 0
2, 21720, Note_on_c, 1, 63, 127
2, 21720, Note_off_c, 1, 71, 0
2, 21720, Note_on_c, 1, 78, 127
2, 21960, Note_on_c, 1, 59, 127
2, 21960, Note_off_c, 1, 63, 0
2, 21960, Note_on_c, 1, 74, 127
2, 21960, Note_off_c, 1, 78, 0
2, 22200, Note_on_c, 1, 55, 127
2, 22200, Note_off_c, 1, 59, 0
2, 22480, Note_on_c, 1, 71, 127
2, 22480, Note_off_c, 1, 74, 0
2, 22680, Note_off_c, 1, 55, 0
2, 22680, Note_off_c, 1, 71, 0
2, 22720, Note_on_c, 1, 55, 127
2, 22720, Note_on_c, 1, 71, 127
2, 22960, Note_on_c, 1, 69, 127
2, 22960, Note_off_c, 1, 71, 0
2, 23000, Note_on_c, 1, 54, 127
2, 23000, Note_off_c, 1, 55, 0
2, 23200, Note_off_c, 1, 54, 0
2, 23200, Note_on_c, 1, 55, 127
2, 23200, Note_off_c, 1, 69, 0
2, 23200, Note_on_c, 1, 71, 127
2, 23440, Note_on_c, 1, 54, 127
2, 23440, Note_off_c, 1, 55, 0
2, 23680, Note_on_c, 1, 52, 127
2, 23680, Note_off_c, 1, 54, 0
2, 23680, Note_on_c, 1, 67, 127
2, 23680, Note_off_c, 1, 71, 0
2, 24160, Note_off_c, 1, 52, 0
2, 24160, Note_on_c, 1, 55, 127
2, 24160, Note_on_c, 1, 64, 127
2, 24160, Note_off_c, 1, 67, 0
2, 24600, Note_off_c, 1, 55, 0
2, 24600, Note_off_c, 1, 64, 0
2, 24680, Note_on_c, 1, 50, 127
2, 24680, Note_on_c, 1, 71, 127
2, 25400, Note_off_c, 1, 50, 0
2, 25400, Note_on_c, 1, 55, 127
2, 25640, Note_off_c, 1, 71, 0
2, 25640, Note_on_c, 1, 83, 127
2, 25880, Note_on_c, 1, 79, 127
2, 25880, Note_off_c, 1, 83, 0
2, 26120, Note_on_c, 1, 54, 127
2, 26120, Note_off_c, 1, 55, 0
2, 26120, Note_on_c, 1, 78, 127
2, 26120, Note_off_c, 1, 79, 0
2, 26160, Note_off_c, 1, 54, 0
2, 26160, Note_off_c, 1, 78, 0
2, 26200, Note_on_c, 1, 54, 127
2, 26200, Note_on_c, 1, 78, 127
2, 26640, Note_on_c, 1, 42, 127
2, 26640, Note_on_c, 1, 66, 127
2, 26840, Note_off_c, 1, 42, 0
2, 26840, Note_off_c, 1, 66, 0
2, 27320, Note_off_c, 1, 54, 0
2, 27320, Note_off_c, 1, 78, 0
2, 27360, Note_on_c, 1, 43, 127
2, 27360, Note_on_c, 1, 72, 127
2, 28320, Note_off_c, 1, 43, 0
2, 28320, Note_off_c, 1, 72, 0
2, 28360, Note_on_c, 1, 43, 127
2, 28360, Note_on_c, 1, 72, 127
2, 29560, Note_on_c, 1, 71, 127
2, 29560, Note_off_c, 1, 72, 0
2, 30640, Note_off_c, 1, 71, 0
2, 30680, Note_on_c, 1, 71, 127
2, 31360, Note_off_c, 1, 43, 0
2, 31360, Note_off_c, 1, 71, 0
2, 31400, Note_on_c, 1, 43, 127
2, 31400, Note_on_c, 1, 71, 127
2, 32120, Note_off_c, 1, 71, 0
2, 32160, Note_on_c, 1, 70, 127
2, 33360, Note_on_c, 1, 67, 127
2, 33600, Note_off_c, 1, 43, 0
2, 33600, Note_off_c, 1, 67, 0
2, 33600, Note_off_c, 1, 70, 0
2, 33640, Note_on_c, 1, 43, 127
2, 33640, Note_on_c, 1, 67, 127
2, 33640, Note_on_c, 1, 70, 127
2, 33840, Note_off_c, 1, 67, 0
2, 34320, Note_off_c, 1, 43, 0
2, 34360, Note_on_c, 1, 60, 127
2, 34800, Note_off_c, 1, 60, 0
2, 34800, Note_off_c, 1, 70, 0
2, 34840, Note_on_c, 1, 45, 127
2, 34840, Note_on_c, 1, 57, 127
2, 34840, Note_on_c, 1, 73, 127
2, 34840, Note_on_c, 1, 79, 127
2, 35520, Note_off_c, 1, 45, 0
2, 35520, Note_off_c, 1, 57, 0
2, 35520, Note_off_c, 1, 73, 0
2, 35520, Note_off_c, 1, 79, 0
2, 35560, Note_on_c, 1, 45, 127
2, 35560, Note_on_c, 1, 57, 127
2, 35560, Note_on_c, 1, 73, 127
2, 35560, Note_on_c, 1, 79, 127
2, 36520, Note_off_c, 1, 45, 0
2, 36520, Note_off_c, 1, 57, 0
2, 36520, Note_off_c, 1, 73, 0
2, 36520, Note_off_c, 1, 79, 0
2, 36560, Note_on_c, 1, 33, 127
2, 36560, Note_on_c, 1, 45, 127
2, 36560, Note_on_c, 1, 69, 127
2, 36560, Note_on_c, 1, 72, 127
2, 36560, Note_on_c, 1, 77, 127
2, 36560, Note_on_c, 1, 81, 127
2, 37120, Note_off_c, 1, 33, 0
2, 37120, Note_off_c, 1, 45, 0
2, 37120, Note_off_c, 1, 69, 0
2, 37120, Note_off_c, 1, 72, 0
2, 37120, Note_off_c, 1, 77, 0
2, 37120, Note_off_c, 1, 81, 0
2, 37280, Note_on_c, 1, 36, 127
2, 37280, Note_on_c, 1, 48, 127
2, 37280, Note_on_c, 1, 52, 127
2, 37280, Note_on_c, 1, 55, 127
2, 37280, Note_on_c, 1, 60, 127
2, 37440, Note_off_c, 1, 36, 0
2, 37440, Note_off_c, 1, 48, 0
2, 37440, Note_off_c, 1, 52, 0
2, 37440, Note_off_c, 1, 55, 0
2, 37440, Note_off_c, 1, 60, 0
2, 37480, Note_on_c, 1, 36, 127
2, 37480, Note_on_c, 1, 48, 127
2, 37480, Note_on_c, 1, 52, 127
2, 37480, Note_on_c, 1, 55, 127
2, 37480, Note_on_c, 1, 60, 127
2, 38320, Note_off_c, 1, 36, 0
2, 38320, Note_off_c, 1, 48, 0
2, 38320, Note_off_c, 1, 52, 0
2, 38320, Note_off_c, 1, 55, 0
2, 38320, Note_off_c, 1, 60, 0
2, 51360, Note_on_c, 1, 60, 127
2, 51360, Note_on_c, 1, 72, 127
2, 51680, Note_off_c, 1, 60, 0
2, 51680, Note_off_c, 1, 72, 0
2, 51720, Note_on_c, 1, 58, 127
2, 51720, Note_on_c, 1, 70, 127
2, 52040, Note_off_c, 1, 58, 0
2, 52040, Note_off_c, 1, 70, 0
2, 52080, Note_on_c, 1, 55, 127
2, 52080, Note_on_c, 1, 67, 127
2, 52760, Note_off_c, 1, 55, 0
2, 52760, Note_off_c, 1, 67, 0
2, 52800, Note_on_c, 1, 53, 127
2, 52800, Note_on_c, 1, 65, 127
2, 53520, Note_off_c, 1, 53, 0
2, 53520, Note_off_c, 1, 65, 0
2, 53560, Note_on_c, 1, 55, 127
2, 53560, Note_on_c, 1, 67, 127
2, 53840, Note_off_c, 1, 55, 0
2, 53840, Note_off_c, 1, 67, 0
2, 53920, Note_on_c, 1, 53, 127
2, 53920, Note_on_c, 1, 65, 127
2, 54160, Note_off_c, 1, 53, 0
2, 54160, Note_off_c, 1, 65, 0
2, 54240, Note_on_c, 1, 53, 127
2, 54240, Note_on_c, 1, 65, 127
2, 54880, Note_off_c, 1, 53, 0
2, 54880, Note_off_c, 1, 65, 0
2, 54920, Note_on_c, 1, 55, 127
2, 54920, Note_on_c, 1, 67, 127
2, 55640, Note_off_c, 1, 55, 0
2, 55640, Note_off_c, 1, 67, 0
2, 55680, Note_on_c, 1, 53, 127
2, 55680, Note_on_c, 1, 65, 127
2, 56200, Note_off_c, 1, 53, 0
2, 56200, Note_off_c, 1, 65, 0
2, 56240, Note_on_c, 1, 53, 127
2, 56240, Note_on_c, 1, 65, 127
2, 56640, Note_off_c, 1, 53, 0
2, 56640, Note_off_c, 1, 65, 0
2, 56680, Note_on_c, 1, 53, 127
2, 56680, Note_on_c, 1, 65, 127
2, 56800, Note_off_c, 1, 53, 0
2, 56800, Note_off_c, 1, 65, 0
2, 56880, Note_on_c, 1, 55, 127
2, 56880, Note_on_c, 1, 67, 127
2, 57400, Note_off_c, 1, 55, 0
2, 57400, Note_off_c, 1, 67, 0
2, 57440, Note_on_c, 1, 46, 127
2, 57440, Note_on_c, 1, 58, 127
2, 58000, Note_off_c, 1, 46, 0
2, 58000, Note_off_c, 1, 58, 0
2, 58040, Note_on_c, 1, 47, 127
2, 58040, Note_on_c, 1, 59, 127
2, 58600, Note_off_c, 1, 47, 0
2, 58600, Note_off_c, 1, 59, 0
2, 58680, Note_on_c, 1, 46, 127
2, 58680, Note_on_c, 1, 58, 127
2, 59240, Note_off_c, 1, 46, 0
2, 59240, Note_off_c, 1, 58, 0
2, 66160, Note_on_c, 1, 55, 127
2, 66160, Note_on_c, 1, 59, 127
2, 66160, Note_on_c, 1, 67, 127
2, 66160, Note_on_c, 1, 76, 127
2, 66680, Note_off_c, 1, 55, 0
2, 66680, Note_off_c, 1, 59, 0
2, 66680, Note_off_c, 1, 67, 0
2, 66680, Note_off_c, 1, 76, 0
2, 66720, Note_on_c, 1, 52, 127
2, 66720, Note_on_c, 1, 59, 127
2, 66720, Note_on_c, 1, 64, 127
2, 66720, Note_on_c, 1, 68, 127
2, 66720, Note_on_c, 1, 76, 127
2, 67200, Note_off_c, 1, 59, 0
2, 67200, Note_off_c, 1, 64, 0
2, 67200, Note_off_c, 1, 68, 0
2, 67200, Note_off_c, 1, 76, 0
2, 67240, Note_on_c, 1, 59, 127
2, 67240, Note_on_c, 1, 64, 127
2, 67240, Note_on_c, 1, 68, 127
2, 67240, Note_on_c, 1, 71, 127
2, 68640, Note_off_c, 1, 52, 0
2, 68640, Note_off_c, 1, 59, 0
2, 68640, Note_off_c, 1, 64, 0
2, 68640, Note_off_c, 1, 68, 0
2, 68640, Note_off_c, 1, 71, 0
2, 68680, Note_on_c, 1, 52, 127
2, 68680, Note_on_c, 1, 59, 127
2, 68680, Note_on_c, 1, 64, 127
2, 68680, Note_on_c, 1, 68, 127
2, 68680, Note_on_c, 1, 71, 127
2, 68760, Note_off_c, 1, 52, 0
2, 68760, Note_off_c, 1, 59, 0
2, 68760, Note_off_c, 1, 64, 0
2, 68760, Note_off_c, 1, 68, 0
2, 68760, Note_off_c, 1, 71, 0
2, 68880, Note_on_c, 1, 52, 127
2, 68880, Note_on_c, 1, 59, 127
2, 68880, Note_on_c, 1, 64, 127
2, 68880, Note_on_c, 1, 68, 127
2, 71040, Note_off_c, 1, 52, 0
2, 71040, Note_off_c, 1, 59, 0
2, 71040, Note_off_c, 1, 64, 0
2, 71040, Note_off_c, 1, 68, 0
2, 71080, Note_on_c, 1, 52, 127
2, 71080, Note_on_c, 1, 59, 127
2, 71080, Note_on_c, 1, 64, 127
2, 71080, Note_on_c, 1, 68, 127
2, 73560, Note_off_c, 1, 52, 0
2, 73560, Note_off_c, 1, 59, 0
2, 73560, Note_off_c, 1, 64, 0
2, 73560, Note_off_c, 1, 68, 0
2, 73600, Note_on_c, 1, 52, 127
2, 73600, Note_on_c, 1, 59, 127
2, 73600, Note_on_c, 1, 64, 127
2, 73600, Note_on_c, 1, 68, 127
2, 73600, Note_on_c, 1, 71, 127
2, 73800, Note_off_c, 1, 52, 0
2, 73800, Note_off_c, 1, 59, 0
2, 73800, Note_off_c, 1, 64, 0
2, 73800, Note_off_c, 1, 68, 0
2, 73800, Note_off_c, 1, 71, 0
2, 73840, Note_on_c, 1, 52, 127
2, 73840, Note_on_c, 1, 59, 127
2, 73840, Note_on_c, 1, 64, 127
2, 73840, Note_on_c, 1, 68, 127
2, 73840, Note_on_c, 1, 71, 127
2, 74720, Note_off_c, 1, 52, 0
2, 74720, Note_on_c, 1, 55, 127
2, 74720, Note_on_c, 1, 58, 127
2, 74720, Note_off_c, 1, 59, 0
2, 74720, Note_on_c, 1, 62, 127
2, 74720, Note_off_c, 1, 64, 0
2, 74720, Note_on_c, 1, 67, 127
2, 74720, Note_off_c, 1, 68, 0
2, 74720, Note_on_c, 1, 70, 127
2, 74720, Note_off_c, 1, 71, 0
2, 74760, Note_off_c, 1, 55, 0
2, 74760, Note_off_c, 1, 58, 0
2, 74760, Note_off_c, 1, 62, 0
2, 74760, Note_off_c, 1, 67, 0
2, 74760, Note_off_c, 1, 70, 0
2, 74800, Note_on_c, 1, 52, 127
2, 74800, Note_on_c, 1, 59, 127
2, 74800, Note_on_c, 1, 64, 127
2, 74800, Note_on_c, 1, 68, 127
2, 74800, Note_on_c, 1, 71, 127
2, 75800, Note_off_c, 1, 52, 0
2, 75800, Note_off_c, 1, 59, 0
2, 75800, Note_off_c, 1, 64, 0
2, 75800, Note_off_c, 1, 68, 0
2, 75800, Note_off_c, 1, 71, 0
2, 100240, Note_on_c, 1, 56, 127
2, 100240, Note_on_c, 1, 68, 127
2, 101720, Note_off_c, 1, 56, 0
2, 101720, Note_off_c, 1, 68, 0
2, 101800, Note_on_c, 1, 52, 127
2, 101800, Note_on_c, 1, 64, 127
2, 102920, Note_off_c, 1, 52, 0
2, 102920, Note_on_c, 1, 54, 127
2, 102920, Note_off_c, 1, 64, 0
2, 102920, Note_on_c, 1, 66, 127
2, 104360, Note_off_c, 1, 54, 0
2, 104360, Note_off_c, 1, 66, 0
2, 104440, Note_on_c, 1, 52, 127
2, 104440, Note_on_c, 1, 64, 127
2, 105240, Note_off_c, 1, 52, 0
2, 105240, Note_off_c, 1, 64, 0
2, 105280, Note_on_c, 1, 58, 127
2, 105280, Note_on_c, 1, 70, 127
2, 105840, Note_off_c, 1, 58, 0
2, 105840, Note_off_c, 1, 70, 0
2, 105880, Note_on_c, 1, 56, 127
2, 105880, Note_on_c, 1, 68, 127
2, 106280, Note_off_c, 1, 56, 0
2, 106280, Note_off_c, 1, 68, 0
2, 120040, End_track
3, 0, Start_track
3, 0, Title_t, "MIDI"
3, 1536, End_track
0, 0, End_of_file
