0, 0, Header, 1, 3, 192
1, 0, Start_track
1, 0, Time_signature, 4, 2, 24, 8
1, 0, Tempo, 500000
1, 120040, End_track
2, 0, Start_track
2, 0, Text_t, "random instrument: random person i dunno whatev"
2, 0, Title_t, "Track 1"
2, 0, Note_on_c, 1, 40, 127
2, 0, Note_on_c, 1, 48, 127
2, 0, Note_on_c, 1, 56, 127
2, 0, Note_on_c, 1, 60, 127
2, 40, Note_off_c, 1, 40, 0
2, 40, Note_off_c, 1, 48, 0
2, 40, Note_on_c, 1, 55, 127
2, 40, Note_off_c, 1, 56, 0
2, 40, Note_off_c, 1, 60, 0
2, 40, Note_on_c, 1, 72, 127
2, 40, Note_on_c, 1, 75, 127
2, 40, Note_on_c, 1, 79, 127
2, 40, Note_on_c, 1, 84, 127
2, 80, Note_off_c, 1, 55, 0
2, 80, Note_off_c, 1, 72, 0
2, 80, Note_off_c, 1, 75, 0
2, 80, Note_off_c, 1, 79, 0
2, 80, Note_off_c, 1, 84, 0
2, 120, Note_on_c, 1, 50, 127
2, 120, Note_on_c, 1, 59, 127
2, 120, Note_on_c, 1, 62, 127
2, 120, Note_on_c, 1, 78, 127
2, 160, Note_off_c, 1, 50, 0
2, 160, Note_off_c, 1, 59, 0
2, 160, Note_on_c, 1, 60, 127
2, 160, Note_off_c, 1, 62, 0
2, 160, Note_on_c, 1, 66, 127
2, 160, Note_on_c, 1, 68, 127
2, 160, Note_off_c, 1, 78, 0
2, 160, Note_on_c, 1, 90, 127
2, 200, Note_on_c, 1, 35, 127
2, 200, Note_on_c, 1, 39, 127
2, 200, Note_on_c, 1, 47, 127
2, 200, Note_on_c, 1, 50, 127
2, 200, Note_off_c, 1, 60, 0
2, 200, Note_off_c, 1, 66, 0
2, 200, Note_off_c, 1, 68, 0
2, 200, Note_off_c, 1, 90, 0
2, 240, Note_off_c, 1, 35, 0
2, 240, Note_off_c, 1, 39, 0
2, 240, Note_off_c, 1, 47, 0
2, 240, Note_off_c, 1, 50, 0
2, 240, Note_on_c, 1, 51, 127
2, 240, Note_on_c, 1, 55, 127
2, 240, Note_on_c, 1, 58, 127
2, 240, Note_on_c, 1, 63, 127
2, 240, Note_on_c, 1, 82, 127
2, 240, Note_on_c, 1, 91, 127
2, 280, Note_off_c, 1, 51, 0
2, 280, Note_off_c, 1, 55, 0
2, 280, Note_off_c, 1, 58, 0
2, 280, Note_off_c, 1, 63, 0
2, 280, Note_on_c, 1, 76, 127
2, 280, Note_on_c, 1, 80, 127
2, 280, Note_off_c, 1, 82, 0
2, 280, Note_on_c, 1, 83, 127
2, 280, Note_on_c, 1, 89, 127
2, 280, Note_off_c, 1, 91, 0
2, 320, Note_on_c, 1, 58, 127
2, 320, Note_on_c, 1, 63, 127
2, 320, Note_on_c, 1, 66, 127
2, 320, Note_on_c, 1, 72, 127
2, 320, Note_on_c, 1, 75, 127
2, 320, Note_off_c, 1, 76, 0
2, 320, Note_off_c, 1, 80, 0
2, 320, Note_on_c, 1, 82, 127
2, 320, Note_off_c, 1, 83, 0
2, 320, Note_on_c, 1, 87, 127
2, 320, Note_off_c, 1, 89, 0
2, 360, Note_on_c, 1, 57, 127
2, 360, Note_off_c, 1, 58, 0
2, 360, Note_on_c, 1, 62, 127
2, 360, Note_off_c, 1, 63, 0
2, 360, Note_off_c, 1, 66, 0
2, 360, Note_off_c, 1, 72, 0
2, 360, Note_off_c, 1, 75, 0
2, 360, Note_off_c, 1, 82, 0
2, 360, Note_off_c, 1, 87, 0
2, 400, Note_off_c, 1, 57, 0
2, 400, Note_on_c, 1, 60, 127
2, 400, Note_off_c, 1, 62, 0
2, 400, Note_on_c, 1, 85, 127
2, 400, Note_on_c, 1, 88, 127
2, 440, Note_on_c, 1, 50, 127
2, 440, Note_on_c, 1, 57, 127
2, 440, Note_off_c, 1, 60, 0
2, 440, Note_on_c, 1, 65, 127
2, 440, Note_off_c, 1, 85, 0
2, 440, Note_off_c, 1, 88, 0
2, 440, Note_on_c, 1, 93, 127
2, 480, Note_off_c, 1, 50, 0
2, 480, Note_on_c, 1, 54, 127
2, 480, Note_off_c, 1, 57, 0
2, 480, Note_on_c, 1, 58, 127
2, 480, Note_on_c, 1, 61, 127
2, 480, Note_off_c, 1, 65, 0
2, 480, Note_off_c, 1, 93, 0
2, 480, Note_on_c, 1, 97, 127
2, 520, Note_on_c, 1, 50, 127
2, 520, Note_off_c, 1, 54, 0
2, 520, Note_on_c, 1, 57, 127
2, 520, Note_off_c, 1, 58, 0
2, 520, Note_off_c, 1, 61, 0
2, 520, Note_on_c, 1, 65, 127
2, 520, Note_on_c, 1, 93, 127
2, 520, Note_off_c, 1, 97, 0
2, 800, Note_off_c, 1, 50, 0
2, 800, Note_off_c, 1, 57, 0
2, 800, Note_off_c, 1, 65, 0
2, 800, Note_off_c, 1, 93, 0
2, 1240, Note_on_c, 1, 61, 127
2, 1240, Note_on_c, 1, 67, 127
2, 1440, Note_on_c, 1, 51, 127
2, 1600, Note_off_c, 1, 51, 0
2, 1600, Note_off_c, 1, 61, 0
2, 1640, Note_on_c, 1, 60, 127
2, 1640, Note_off_c, 1, 67, 0
2, 1640, Note_on_c, 1, 68, 127
2, 1800, Note_off_c, 1, 68, 0
2, 1840, Note_on_c, 1, 63, 127
2, 2000, Note_off_c, 1, 60, 0
2, 2000, Note_off_c, 1, 63, 0
2, 2080, Note_on_c, 1, 51, 127
2, 2080, Note_on_c, 1, 67, 127
2, 2280, Note_on_c, 1, 61, 127
2, 2440, Note_off_c, 1, 51, 0
2, 2440, Note_off_c, 1, 61, 0
2, 2480, Note_on_c, 1, 58, 127
2, 2640, Note_off_c, 1, 67, 0
2, 2680, Note_on_c, 1, 67, 127
2, 2840, Note_off_c, 1, 58, 0
2, 2880, Note_on_c, 1, 62, 127
2, 3040, Note_off_c, 1, 62, 0
2, 3040, Note_off_c, 1, 67, 0
2, 3080, Note_on_c, 1, 60, 127
2, 3080, Note_on_c, 1, 67, 127
2, 3240, Note_off_c, 1, 60, 0
2, 3280, Note_on_c, 1, 62, 127
2, 3440, Note_off_c, 1, 62, 0
2, 3480, Note_on_c, 1, 58, 127
2, 3640, Note_off_c, 1, 58, 0
2, 3680, Note_on_c, 1, 61, 127
2, 3880, Note_off_c, 1, 61, 0
2, 3920, Note_on_c, 1, 58, 127
2, 4080, Note_off_c, 1, 58, 0
2, 4120, Note_off_c, 1, 67, 0
2, 4160, Note_on_c, 1, 61, 127
2, 4160, Note_on_c, 1, 67, 127
2, 4320, Note_off_c, 1, 61, 0
2, 4320, Note_off_c, 1, 67, 0
2, 4360, Note_on_c, 1, 48, 127
2, 4360, Note_on_c, 1, 53, 127
2, 4360, Note_on_c, 1, 70, 127
2, 4520, Note_off_c, 1, 48, 0
2, 4520, Note_on_c, 1, 52, 127
2, 4520, Note_off_c, 1, 53, 0
2, 4520, Note_on_c, 1, 58, 127
2, 4520, Note_on_c, 1, 67, 127
2, 4520, Note_off_c, 1, 70, 0
2, 4520, Note_on_c, 1, 72, 127
2, 4560, Note_off_c, 1, 67, 0
2, 4560, Note_on_c, 1, 69, 127
2, 4560, Note_off_c, 1, 72, 0
2, 4720, Note_off_c, 1, 52, 0
2, 4720, Note_on_c, 1, 63, 127
2, 4720, Note_off_c, 1, 69, 0
2, 4760, Note_on_c, 1, 51, 127
2, 4760, Note_off_c, 1, 63, 0
2, 4760, Note_on_c, 1, 67, 127
2, 4920, Note_off_c, 1, 51, 0
2, 4920, Note_off_c, 1, 58, 0
2, 4920, Note_off_c, 1, 67, 0
2, 4960, Note_on_c, 1, 46, 127
2, 4960, Note_on_c, 1, 70, 127
2, 5360, Note_off_c, 1, 46, 0
2, 5360, Note_on_c, 1, 58, 127
2, 5360, Note_on_c, 1, 67, 127
2, 5360, Note_off_c, 1, 70, 0
2, 5360, Note_on_c, 1, 75, 127
2, 5520, Note_off_c, 1, 67, 0
2, 5520, Note_off_c, 1, 75, 0
2, 5560, Note_on_c, 1, 56, 127
2, 5560, Note_off_c, 1, 58, 0
2, 5560, Note_on_c, 1, 70, 127
2, 5560, Note_on_c, 1, 74, 127
2, 5560, Note_on_c, 1, 77, 127
2, 5560, Note_on_c, 1, 82, 127
2, 5720, Note_off_c, 1, 56, 0
2, 5720, Note_on_c, 1, 62, 127
2, 5720, Note_off_c, 1, 70, 0
2, 5720, Note_off_c, 1, 74, 0
2, 5720, Note_off_c, 1, 77, 0
2, 5720, Note_off_c, 1, 82, 0
2, 5760, Note_on_c, 1, 74, 127
2, 5960, Note_on_c, 1, 53, 127
2, 5960, Note_on_c, 1, 60, 127
2, 5960, Note_off_c, 1, 62, 0
2, 5960, Note_on_c, 1, 65, 127
2, 5960, Note_on_c, 1, 69, 127
2, 5960, Note_off_c, 1, 74, 0
2, 5960, Note_on_c, 1, 77, 127
2, 6160, Note_off_c, 1, 53, 0
2, 6160, Note_off_c, 1, 60, 0
2, 6160, Note_off_c, 1, 65, 0
2, 6160, Note_off_c, 1, 69, 0
2, 6160, Note_off_c, 1, 77, 0
2, 6200, Note_on_c, 1, 42, 127
2, 6200, Note_on_c, 1, 52, 127
2, 6200, Note_on_c, 1, 59, 127
2, 6200, Note_on_c, 1, 64, 127
2, 6240, Note_off_c, 1, 42, 0
2, 6240, Note_off_c, 1, 52, 0
2, 6240, Note_off_c, 1, 59, 0
2, 6240, Note_off_c, 1, 64, 0
2, 6240, Note_on_c, 1, 67, 127
2, 6240, Note_on_c, 1, 70, 127
2, 6240, Note_on_c, 1, 84, 127
2, 6240, Note_on_c, 1, 87, 127
2, 6240, Note_on_c, 1, 93, 127
2, 6280, Note_on_c, 1, 45, 127
2, 6280, Note_on_c, 1, 46, 127
2, 6280, Note_on_c, 1, 58, 127
2, 6280, Note_off_c, 1, 67, 0
2, 6280, Note_off_c, 1, 70, 0
2, 6280, Note_off_c, 1, 84, 0
2, 6280, Note_off_c, 1, 87, 0
2, 6280, Note_off_c, 1, 93, 0
2, 6320, Note_off_c, 1, 45, 0
2, 6320, Note_off_c, 1, 46, 0
2, 6320, Note_on_c, 1, 47, 127
2, 6320, Note_on_c, 1, 49, 127
2, 6320, Note_on_c, 1, 56, 127
2, 6320, Note_off_c, 1, 58, 0
2, 6320, Note_on_c, 1, 61, 127
2, 6360, Note_off_c, 1, 47, 0
2, 6360, Note_off_c, 1, 49, 0
2, 6360, Note_off_c, 1, 56, 0
2, 6360, Note_off_c, 1, 61, 0
2, 6400, Note_on_c, 1, 48, 127
2, 6400, Note_on_c, 1, 53, 127
2, 6400, Note_on_c, 1, 63, 127
2, 6400, Note_on_c, 1, 69, 127
2, 6560, Note_off_c, 1, 69, 0
2, 6600, Note_on_c, 1, 41, 127
2, 6600, Note_off_c, 1, 48, 0
2, 6600, Note_on_c, 1, 56, 127
2, 6600, Note_off_c, 1, 63, 0
2, 6600, Note_on_c, 1, 73, 127
2, 6600, Note_on_c, 1, 80, 127
2, 6760, Note_off_c, 1, 41, 0
2, 6760, Note_off_c, 1, 53, 0
2, 6760, Note_on_c, 1, 59, 127
2, 6760, Note_off_c, 1, 73, 0
2, 6760, Note_off_c, 1, 80, 0
2, 6800, Note_on_c, 1, 53, 127
2, 6800, Note_off_c, 1, 56, 0
2, 6800, Note_off_c, 1, 59, 0
2, 6800, Note_on_c, 1, 62, 127
2, 6800, Note_on_c, 1, 77, 127
2, 6800, Note_on_c, 1, 89, 127
2, 6960, Note_off_c, 1, 53, 0
2, 6960, Note_off_c, 1, 62, 0
2, 6960, Note_off_c, 1, 77, 0
2, 6960, Note_off_c, 1, 89, 0
2, 7000, Note_on_c, 1, 36, 127
2, 7000, Note_on_c, 1, 48, 127
2, 7000, Note_on_c, 1, 64, 127
2, 7000, Note_on_c, 1, 69, 127
2, 7000, Note_on_c, 1, 76, 127
2, 7360, Note_off_c, 1, 36, 0
2, 7360, Note_on_c, 1, 45, 127
2, 7360, Note_off_c, 1, 48, 0
2, 7360, Note_on_c, 1, 51, 127
2, 7360, Note_off_c, 1, 64, 0
2, 7360, Note_off_c, 1, 69, 0
2, 7360, Note_off_c, 1, 76, 0
2, 7400, Note_on_c, 1, 42, 127
2, 7400, Note_off_c, 1, 45, 0
2, 7400, Note_on_c, 1, 49, 127
2, 7400, Note_off_c, 1, 51, 0
2, 7400, Note_on_c, 1, 54, 127
2, 7400, Note_on_c, 1, 58, 127
2, 7400, Note_on_c, 1, 64, 127
2, 7560, Note_off_c, 1, 42, 0
2, 7560, Note_off_c, 1, 49, 0
2, 7560, Note_off_c, 1, 58, 0
2, 7560, Note_off_c, 1, 64, 0
2, 7600, Note_on_c, 1, 53, 127
2, 7600, Note_off_c, 1, 54, 0
2, 7600, Note_on_c, 1, 59, 127
2, 7600, Note_on_c, 1, 64, 127
2, 7760, Note_off_c, 1, 53, 0
2, 7760, Note_off_c, 1, 59, 0
2, 7760, Note_off_c, 1, 64, 0
2, 7800, Note_on_c, 1, 49, 127
2, 7800, Note_on_c, 1, 76, 127
2, 7800, Note_on_c, 1, 77, 127
2, 7800, Note_on_c, 1, 79, 127
2, 7800, Note_on_c, 1, 80, 127
2, 7840, Note_on_c, 1, 48, 127
2, 7840, Note_off_c, 1, 49, 0
2, 7840, Note_on_c, 1, 52, 127
2, 7840, Note_off_c, 1, 76, 0
2, 7840, Note_off_c, 1, 77, 0
2, 7840, Note_off_c, 1, 80, 0
2, 7840, Note_on_c, 1, 82, 127
2, 7880, Note_on_c, 1, 42, 127
2, 7880, Note_off_c, 1, 52, 0
2, 7880, Note_on_c, 1, 59, 127
2, 7880, Note_on_c, 1, 64, 127
2, 7880, Note_on_c, 1, 69, 127
2, 7880, Note_off_c, 1, 79, 0
2, 7880, Note_off_c, 1, 82, 0
2, 7920, Note_on_c, 1, 41, 127
2, 7920, Note_off_c, 1, 42, 0
2, 7920, Note_off_c, 1, 48, 0
2, 7920, Note_off_c, 1, 59, 0
2, 7920, Note_off_c, 1, 64, 0
2, 7920, Note_off_c, 1, 69, 0
2, 7920, Note_on_c, 1, 72, 127
2, 7920, Note_on_c, 1, 76, 127
2, 7960, Note_on_c, 1, 37, 127
2, 7960, Note_off_c, 1, 41, 0
2, 7960, Note_on_c, 1, 53, 127
2, 7960, Note_on_c, 1, 63, 127
2, 7960, Note_off_c, 1, 72, 0
2, 7960, Note_off_c, 1, 76, 0
2, 8200, Note_off_c, 1, 37, 0
2, 8200, Note_off_c, 1, 53, 0
2, 8200, Note_off_c, 1, 63, 0
2, 8240, Note_on_c, 1, 37, 127
2, 8240, Note_on_c, 1, 53, 127
2, 8240, Note_on_c, 1, 63, 127
2, 8600, Note_off_c, 1, 63, 0
2, 8640, Note_on_c, 1, 61, 127
2, 9000, Note_off_c, 1, 37, 0
2, 9000, Note_off_c, 1, 53, 0
2, 9000, Note_off_c, 1, 61, 0
2, 9040, Note_on_c, 1, 49, 127
2, 9040, Note_on_c, 1, 53, 127
2, 9040, Note_on_c, 1, 58, 127
2, 9640, Note_off_c, 1, 49, 0
2, 9640, Note_on_c, 1, 57, 127
2, 9640, Note_off_c, 1, 58, 0
2, 9640, Note_on_c, 1, 59, 127
2, 9640, Note_on_c, 1, 62, 127
2, 9800, Note_on_c, 1, 32, 127
2, 9800, Note_on_c, 1, 44, 127
2, 9800, Note_on_c, 1, 47, 127
2, 9800, Note_off_c, 1, 57, 0
2, 9800, Note_off_c, 1, 59, 0
2, 9800, Note_on_c, 1, 61, 127
2, 9800, Note_off_c, 1, 62, 0
2, 9840, Note_off_c, 1, 32, 0
2, 9840, Note_off_c, 1, 44, 0
2, 9840, Note_off_c, 1, 47, 0
2, 9840, Note_on_c, 1, 57, 127
2, 9840, Note_on_c, 1, 59, 127
2, 9840, Note_off_c, 1, 61, 0
2, 9840, Note_on_c, 1, 62, 127
2, 10000, Note_on_c, 1, 44, 127
2, 10000, Note_off_c, 1, 53, 0
2, 10000, Note_off_c, 1, 57, 0
2, 10000, Note_off_c, 1, 59, 0
2, 10000, Note_off_c, 1, 62, 0
2, 10000, Note_on_c, 1, 68, 127
2, 10000, Note_on_c, 1, 73, 127
2, 10040, Note_off_c, 1, 44, 0
2, 10040, Note_on_c, 1, 49, 127
2, 10040, Note_on_c, 1, 63, 127
2, 10040, Note_on_c, 1, 65, 127
2, 10040, Note_off_c, 1, 68, 0
2, 10040, Note_off_c, 1, 73, 0
2, 10200, Note_on_c, 1, 48, 127
2, 10200, Note_off_c, 1, 49, 0
2, 10200, Note_on_c, 1, 58, 127
2, 10200, Note_off_c, 1, 65, 0
2, 10240, Note_off_c, 1, 48, 0
2, 10240, Note_on_c, 1, 49, 127
2, 10240, Note_off_c, 1, 58, 0
2, 10240, Note_on_c, 1, 65, 127
2, 10320, Note_off_c, 1, 49, 0
2, 10320, Note_off_c, 1, 63, 0
2, 10320, Note_off_c, 1, 65, 0
2, 10360, Note_on_c, 1, 49, 127
2, 10360, Note_on_c, 1, 63, 127
2, 10360, Note_on_c, 1, 65, 127
2, 10600, Note_off_c, 1, 63, 0
2, 10600, Note_off_c, 1, 65, 0
2, 10640, Note_on_c, 1, 56, 127
2, 10640, Note_on_c, 1, 61, 127
2, 10640, Note_on_c, 1, 64, 127
2, 11000, Note_off_c, 1, 49, 0
2, 11000, Note_off_c, 1, 56, 0
2, 11000, Note_off_c, 1, 61, 0
2, 11000, Note_off_c, 1, 64, 0
2, 12000, Note_on_c, 1, 45, 127
2, 12000, Note_on_c, 1, 52, 127
2, 12000, Note_on_c, 1, 81, 127
2, 13560, Note_off_c, 1, 81, 0
2, 13600, Note_on_c, 1, 81, 127
2, 14360, Note_off_c, 1, 45, 0
2, 14360, Note_off_c, 1, 52, 0
2, 14360, Note_off_c, 1, 81, 0
2, 14400, Note_on_c, 1, 45, 127
2, 14400, Note_on_c, 1, 52, 127
2, 14400, Note_on_c, 1, 81, 127
2, 15240, Note_off_c, 1, 45, 0
2, 15240, Note_off_c, 1, 52, 0
2, 15240, Note_off_c, 1, 81, 0
2, 15280, Note_on_c, 1, 45, 127
2, 15280, Note_on_c, 1, 52, 127
2, 15280, Note_on_c, 1, 61, 127
2, 15280, Note_on_c, 1, 64, 127
2, 15600, Note_on_c, 1, 71, 127
2, 15640, Note_off_c, 1, 61, 0
2, 15640, Note_off_c, 1, 64, 0
2, 15640, Note_off_c, 1, 71, 0
2, 15680, Note_on_c, 1, 81, 127
2, 16680, Note_off_c, 1, 52, 0
2, 16680, Note_on_c, 1, 57, 127
2, 16680, Note_on_c, 1, 73, 127
2, 16680, Note_on_c, 1, 76, 127
2, 16680, Note_off_c, 1, 81, 0
2, 16720, Note_off_c, 1, 45, 0
2, 16720, Note_off_c, 1, 57, 0
2, 16720, Note_off_c, 1, 73, 0
2, 16720, Note_off_c, 1, 76, 0
2, 16760, Note_on_c, 1, 45, 127
2, 16760, Note_on_c, 1, 57, 127
2, 16760, Note_on_c, 1, 73, 127
2, 16760, Note_on_c, 1, 76, 127
2, 16880, Note_off_c, 1, 73, 0
2, 16880, Note_off_c, 1, 76, 0
2, 16920, Note_on_c, 1, 69, 127
2, 16920, Note_on_c, 1, 76, 127
2, 17080, Note_off_c, 1, 69, 0
2, 17120, Note_on_c, 1, 69, 127
2, 17280, Note_off_c, 1, 69, 0
2, 17320, Note_on_c, 1, 72, 127
2, 17680, Note_off_c, 1, 45, 0
2, 17680, Note_off_c, 1, 57, 0
2, 17680, Note_off_c, 1, 72, 0
2, 17680, Note_off_c, 1, 76, 0
2, 17720, Note_on_c, 1, 50, 127
2, 17720, Note_on_c, 1, 54, 127
2, 17720, Note_on_c, 1, 62, 127
2, 17720, Note_on_c, 1, 74, 127
2, 18480, Note_off_c, 1, 54, 0
2, 18880, Note_off_c, 1, 50, 0
2, 18880, Note_off_c, 1, 62, 0
2, 18880, Note_off_c, 1, 74, 0
2, 18960, Note_on_c, 1, 39, 127
2, 18960, Note_on_c, 1, 46, 127
2, 18960, Note_on_c, 1, 53, 127
2, 18960, Note_on_c, 1, 65, 127
2, 18960, Note_on_c, 1, 68, 127
2, 19000, Note_off_c, 1, 39, 0
2, 19000, Note_off_c, 1, 46, 0
2, 19000, Note_on_c, 1, 47, 127
2, 19000, Note_off_c, 1, 68, 0
2, 19000, Note_on_c, 1, 70, 127
2, 19040, Note_on_c, 1, 45, 127
2, 19040, Note_off_c, 1, 47, 0
2, 19040, Note_on_c, 1, 49, 127
2, 19040, Note_off_c, 1, 53, 0
2, 19040, Note_on_c, 1, 55, 127
2, 19040, Note_on_c, 1, 59, 127
2, 19040, Note_off_c, 1, 65, 0
2, 19040, Note_off_c, 1, 70, 0
2, 19080, Note_off_c, 1, 45, 0
2, 19080, Note_off_c, 1, 55, 0
2, 19080, Note_on_c, 1, 56, 127
2, 19080, Note_on_c, 1, 82, 127
2, 19120, Note_on_c, 1, 43, 127
2, 19120, Note_on_c, 1, 46, 127
2, 19120, Note_off_c, 1, 49, 0
2, 19120, Note_on_c, 1, 55, 127
2, 19120, Note_off_c, 1, 56, 0
2, 19120, Note_off_c, 1, 59, 0
2, 19120, Note_on_c, 1, 69, 127
2, 19120, Note_off_c, 1, 82, 0
2, 19160, Note_off_c, 1, 46, 0
2, 19160, Note_on_c, 1, 52, 127
2, 19160, Note_off_c, 1, 55, 0
2, 19160, Note_off_c, 1, 69, 0
2, 19160, Note_on_c, 1, 72, 127
2, 19160, Note_on_c, 1, 76, 127
2, 19200, Note_off_c, 1, 72, 0
2, 19200, Note_on_c, 1, 74, 127
2, 19240, Note_on_c, 1, 72, 127
2, 19240, Note_off_c, 1, 74, 0
2, 19280, Note_off_c, 1, 72, 0
2, 19280, Note_on_c, 1, 74, 127
2, 19320, Note_off_c, 1, 52, 0
2, 19320, Note_on_c, 1, 66, 127
2, 19320, Note_on_c, 1, 69, 127
2, 19320, Note_off_c, 1, 76, 0
2, 19360, Note_off_c, 1, 43, 0
2, 19360, Note_on_c, 1, 52, 127
2, 19360, Note_on_c, 1, 55, 127
2, 19360, Note_on_c, 1, 64, 127
2, 19360, Note_off_c, 1, 69, 0
2, 19360, Note_off_c, 1, 74, 0
2, 19400, Note_on_c, 1, 44, 127
2, 19400, Note_on_c, 1, 51, 127
2, 19400, Note_off_c, 1, 52, 0
2, 19400, Note_off_c, 1, 55, 0
2, 19400, Note_on_c, 1, 58, 127
2, 19400, Note_on_c, 1, 61, 127
2, 19400, Note_off_c, 1, 64, 0
2, 19440, Note_off_c, 1, 44, 0
2, 19440, Note_off_c, 1, 51, 0
2, 19440, Note_on_c, 1, 53, 127
2, 19440, Note_off_c, 1, 58, 0
2, 19440, Note_off_c, 1, 61, 0
2, 19440, Note_on_c, 1, 69, 127
2, 19440, Note_on_c, 1, 72, 127
2, 19440, Note_on_c, 1, 74, 127
2, 19480, Note_on_c, 1, 38, 127
2, 19480, Note_on_c, 1, 58, 127
2, 19480, Note_off_c, 1, 66, 0
2, 19480, Note_off_c, 1, 72, 0
2, 19480, Note_off_c, 1, 74, 0
2, 19520, Note_on_c, 1, 36, 127
2, 19520, Note_off_c, 1, 38, 0
2, 19520, Note_on_c, 1, 48, 127
2, 19520, Note_on_c, 1, 52, 127
2, 19520, Note_off_c, 1, 53, 0
2, 19520, Note_on_c, 1, 64, 127
2, 19520, Note_off_c, 1, 69, 0
2, 19560, Note_off_c, 1, 36, 0
2, 19560, Note_on_c, 1, 39, 127
2, 19560, Note_off_c, 1, 48, 0
2, 19560, Note_on_c, 1, 51, 127
2, 19560, Note_off_c, 1, 52, 0
2, 19560, Note_off_c, 1, 58, 0
2, 19560, Note_off_c, 1, 64, 0
2, 19560, Note_on_c, 1, 71, 127
2, 19560, Note_on_c, 1, 78, 127
2, 19560, Note_on_c, 1, 82, 127
2, 19600, Note_off_c, 1, 39, 0
2, 19600, Note_off_c, 1, 51, 0
2, 19600, Note_off_c, 1, 71, 0
2, 19600, Note_on_c, 1, 77, 127
2, 19600, Note_off_c, 1, 78, 0
2, 19600, Note_off_c, 1, 82, 0
2, 19600, Note_on_c, 1, 83, 127
2, 19600, Note_on_c, 1, 86, 127
2, 19600, Note_on_c, 1, 92, 127
2, 19640, Note_on_c, 1, 45, 127
2, 19640, Note_on_c, 1, 62, 127
2, 19640, Note_on_c, 1, 66, 127
2, 19640, Note_on_c, 1, 71, 127
2, 19640, Note_off_c, 1, 77, 0
2, 19640, Note_off_c, 1, 83, 0
2, 19640, Note_off_c, 1, 86, 0
2, 19640, Note_off_c, 1, 92, 0
2, 19680, Note_on_c, 1, 39, 127
2, 19680, Note_off_c, 1, 45, 0
2, 19680, Note_on_c, 1, 51, 127
2, 19680, Note_off_c, 1, 62, 0
2, 19680, Note_off_c, 1, 66, 0
2, 19680, Note_on_c, 1, 78, 127
2, 19680, Note_on_c, 1, 82, 127
2, 19720, Note_off_c, 1, 39, 0
2, 19720, Note_off_c, 1, 51, 0
2, 19720, Note_off_c, 1, 71, 0
2, 19720, Note_off_c, 1, 78, 0
2, 19720, Note_off_c, 1, 82, 0
2, 19760, Note_on_c, 1, 55, 127
2, 19760, Note_on_c, 1, 64, 127
2, 19760, Note_on_c, 1, 72, 127
2, 19760, Note_on_c, 1, 81, 127
2, 19760, Note_on_c, 1, 84, 127
2, 20120, Note_off_c, 1, 81, 0
2, 20160, Note_on_c, 1, 76, 127
2, 20520, Note_off_c, 1, 55, 0
2, 20520, Note_off_c, 1, 64, 0
2, 20520, Note_off_c, 1, 72, 0
2, 20520, Note_off_c, 1, 76, 0
2, 20520, Note_off_c, 1, 84, 0
2, 20560, Note_on_c, 1, 55, 127
2, 20560, Note_on_c, 1, 64, 127
2, 20560, Note_on_c, 1, 72, 127
2, 20560, Note_on_c, 1, 79, 127
2, 20920, Note_off_c, 1, 64, 0
2, 20920, Note_off_c, 1, 72, 0
2, 20920, Note_off_c, 1, 79, 0
2, 20960, Note_off_c, 1, 55, 0
2, 21000, Note_on_c, 1, 46, 127
2, 21000, Note_on_c, 1, 50, 127
2, 21000, Note_on_c, 1, 53, 127
2, 21000, Note_on_c, 1, 65, 127
2, 21000, Note_on_c, 1, 70, 127
2, 21000, Note_on_c, 1, 74, 127
2, 21040, Note_on_c, 1, 43, 127
2, 21040, Note_off_c, 1, 46, 0
2, 21040, Note_off_c, 1, 53, 0
2, 21040, Note_on_c, 1, 62, 127
2, 21040, Note_off_c, 1, 65, 0
2, 21040, Note_off_c, 1, 70, 0
2, 21160, Note_off_c, 1, 43, 0
2, 21160, Note_off_c, 1, 50, 0
2, 21160, Note_on_c, 1, 55, 127
2, 21160, Note_off_c, 1, 62, 0
2, 21160, Note_on_c, 1, 69, 127
2, 21200, Note_on_c, 1, 43, 127
2, 21200, Note_off_c, 1, 55, 0
2, 21200, Note_on_c, 1, 60, 127
2, 21200, Note_on_c, 1, 68, 127
2, 21200, Note_off_c, 1, 69, 0
2, 21200, Note_off_c, 1, 74, 0
2, 21200, Note_on_c, 1, 77, 127
2, 21360, Note_off_c, 1, 43, 0
2, 21360, Note_off_c, 1, 60, 0
2, 21360, Note_off_c, 1, 68, 0
2, 21360, Note_off_c, 1, 77, 0
2, 21400, Note_on_c, 1, 55, 127
2, 21400, Note_on_c, 1, 59, 127
2, 21400, Note_on_c, 1, 67, 127
2, 21400, Note_on_c, 1, 76, 127
2, 21760, Note_off_c, 1, 55, 0
2, 21760, Note_off_c, 1, 59, 0
2, 21760, Note_off_c, 1, 67, 0
2, 21760, Note_off_c, 1, 76, 0
2, 21800, Note_on_c, 1, 53, 127
2, 21800, Note_on_c, 1, 57, 127
2, 21800, Note_on_c, 1, 64, 127
2, 21800, Note_on_c, 1, 69, 127
2, 21800, Note_on_c, 1, 72, 127
2, 21800, Note_on_c, 1, 76, 127
2, 21920, Note_on_c, 1, 65, 127
2, 21920, Note_off_c, 1, 69, 0
2, 21920, Note_off_c, 1, 72, 0
2, 21920, Note_off_c, 1, 76, 0
2, 21960, Note_off_c, 1, 65, 0
2, 21960, Note_on_c, 1, 69, 127
2, 21960, Note_on_c, 1, 72, 127
2, 21960, Note_on_c, 1, 76, 127
2, 22000, Note_on_c, 1, 65, 127
2, 22000, Note_off_c, 1, 69, 0
2, 22000, Note_off_c, 1, 72, 0
2, 22000, Note_off_c, 1, 76, 0
2, 22080, Note_off_c, 1, 65, 0
2, 22080, Note_on_c, 1, 69, 127
2, 22080, Note_on_c, 1, 72, 127
2, 22080, Note_on_c, 1, 76, 127
2, 22120, Note_on_c, 1, 65, 127
2, 22120, Note_off_c, 1, 69, 0
2, 22120, Note_off_c, 1, 72, 0
2, 22120, Note_off_c, 1, 76, 0
2, 22160, Note_off_c, 1, 65, 0
2, 22200, Note_on_c, 1, 34, 127
2, 22200, Note_off_c, 1, 53, 0
2, 22200, Note_off_c, 1, 57, 0
2, 22200, Note_on_c, 1, 62, 127
2, 22200, Note_off_c, 1, 64, 0
2, 22200, Note_on_c, 1, 74, 127
2, 22560, Note_off_c, 1, 34, 0
2, 22560, Note_off_c, 1, 62, 0
2, 22560, Note_off_c, 1, 74, 0
2, 22600, Note_on_c, 1, 40, 127
2, 22600, Note_on_c, 1, 53, 127
2, 22600, Note_on_c, 1, 59, 127
2, 22600, Note_on_c, 1, 62, 127
2, 22600, Note_on_c, 1, 65, 127
2, 22600, Note_on_c, 1, 69, 127
2, 23000, Note_off_c, 1, 40, 0
2, 23000, Note_on_c, 1, 44, 127
2, 23000, Note_on_c, 1, 51, 127
2, 23000, Note_off_c, 1, 53, 0
2, 23000, Note_off_c, 1, 59, 0
2, 23000, Note_on_c, 1, 60, 127
2, 23000, Note_off_c, 1, 65, 0
2, 23000, Note_off_c, 1, 69, 0
2, 23000, Note_on_c, 1, 72, 127
2, 23040, Note_off_c, 1, 44, 0
2, 23040, Note_off_c, 1, 51, 0
2, 23040, Note_off_c, 1, 60, 0
2, 23040, Note_off_c, 1, 62, 0
2, 23040, Note_off_c, 1, 72, 0
2, 23080, Note_on_c, 1, 66, 127
2, 23080, Note_on_c, 1, 67, 127
2, 23080, Note_on_c, 1, 71, 127
2, 23080, Note_on_c, 1, 77, 127
2, 23120, Note_on_c, 1, 53, 127
2, 23120, Note_off_c, 1, 66, 0
2, 23120, Note_off_c, 1, 67, 0
2, 23120, Note_on_c, 1, 68, 127
2, 23120, Note_off_c, 1, 71, 0
2, 23120, Note_on_c, 1, 74, 127
2, 23120, Note_off_c, 1, 77, 0
2, 23120, Note_on_c, 1, 85, 127
2, 23160, Note_off_c, 1, 53, 0
2, 23160, Note_on_c, 1, 54, 127
2, 23160, Note_off_c, 1, 68, 0
2, 23160, Note_off_c, 1, 74, 0
2, 23160, Note_on_c, 1, 76, 127
2, 23160, Note_on_c, 1, 83, 127
2, 23160, Note_off_c, 1, 85, 0
2, 23200, Note_on_c, 1, 45, 127
2, 23200, Note_off_c, 1, 54, 0
2, 23200, Note_on_c, 1, 60, 127
2, 23200, Note_on_c, 1, 65, 127
2, 23200, Note_on_c, 1, 72, 127
2, 23200, Note_off_c, 1, 76, 0
2, 23200, Note_off_c, 1, 83, 0
2, 23240, Note_on_c, 1, 28, 127
2, 23240, Note_on_c, 1, 40, 127
2, 23240, Note_off_c, 1, 45, 0
2, 23240, Note_on_c, 1, 48, 127
2, 23240, Note_off_c, 1, 65, 0
2, 23240, Note_on_c, 1, 73, 127
2, 23240, Note_on_c, 1, 79, 127
2, 23240, Note_on_c, 1, 84, 127
2, 23400, Note_off_c, 1, 28, 0
2, 23400, Note_off_c, 1, 40, 0
2, 23400, Note_off_c, 1, 48, 0
2, 23400, Note_off_c, 1, 60, 0
2, 23400, Note_off_c, 1, 72, 0
2, 23400, Note_off_c, 1, 73, 0
2, 23400, Note_off_c, 1, 79, 0
2, 23400, Note_on_c, 1, 83, 127
2, 23400, Note_off_c, 1, 84, 0
2, 23400, Note_on_c, 1, 85, 127
2, 23400, Note_on_c, 1, 92, 127
2, 23440, Note_on_c, 1, 39, 127
2, 23440, Note_on_c, 1, 43, 127
2, 23440, Note_on_c, 1, 51, 127
2, 23440, Note_on_c, 1, 72, 127
2, 23440, Note_off_c, 1, 83, 0
2, 23440, Note_on_c, 1, 84, 127
2, 23440, Note_off_c, 1, 85, 0
2, 23440, Note_off_c, 1, 92, 0
2, 23800, Note_off_c, 1, 39, 0
2, 23800, Note_off_c, 1, 43, 0
2, 23800, Note_on_c, 1, 47, 127
2, 23800, Note_off_c, 1, 51, 0
2, 23800, Note_on_c, 1, 56, 127
2, 23800, Note_on_c, 1, 71, 127
2, 23800, Note_off_c, 1, 72, 0
2, 23800, Note_on_c, 1, 75, 127
2, 23800, Note_on_c, 1, 76, 127
2, 23800, Note_off_c, 1, 84, 0
2, 23840, Note_on_c, 1, 42, 127
2, 23840, Note_off_c, 1, 47, 0
2, 23840, Note_on_c, 1, 51, 127
2, 23840, Note_on_c, 1, 54, 127
2, 23840, Note_off_c, 1, 56, 0
2, 23840, Note_on_c, 1, 66, 127
2, 23840, Note_off_c, 1, 71, 0
2, 23840, Note_off_c, 1, 76, 0
2, 23840, Note_on_c, 1, 78, 127
2, 23880, Note_off_c, 1, 42, 0
2, 23880, Note_on_c, 1, 45, 127
2, 23880, Note_on_c, 1, 50, 127
2, 23880, Note_off_c, 1, 51, 0
2, 23880, Note_off_c, 1, 54, 0
2, 23880, Note_on_c, 1, 57, 127
2, 23880, Note_on_c, 1, 65, 127
2, 23880, Note_off_c, 1, 66, 0
2, 23880, Note_on_c, 1, 69, 127
2, 23880, Note_off_c, 1, 75, 0
2, 23880, Note_off_c, 1, 78, 0
2, 23920, Note_off_c, 1, 45, 0
2, 23920, Note_off_c, 1, 50, 0
2, 23920, Note_on_c, 1, 52, 127
2, 23920, Note_on_c, 1, 55, 127
2, 23920, Note_off_c, 1, 57, 0
2, 23920, Note_on_c, 1, 64, 127
2, 23920, Note_off_c, 1, 65, 0
2, 23920, Note_off_c, 1, 69, 0
2, 23920, Note_on_c, 1, 82, 127
2, 23920, Note_on_c, 1, 87, 127
2, 23960, Note_on_c, 1, 42, 127
2, 23960, Note_on_c, 1, 51, 127
2, 23960, Note_off_c, 1, 52, 0
2, 23960, Note_on_c, 1, 54, 127
2, 23960, Note_off_c, 1, 55, 0
2, 23960, Note_off_c, 1, 64, 0
2, 23960, Note_on_c, 1, 66, 127
2, 23960, Note_on_c, 1, 75, 127
2, 23960, Note_on_c, 1, 78, 127
2, 23960, Note_off_c, 1, 82, 0
2, 23960, Note_off_c, 1, 87, 0
2, 24000, Note_on_c, 1, 37, 127
2, 24000, Note_off_c, 1, 42, 0
2, 24000, Note_off_c, 1, 51, 0
2, 24000, Note_off_c, 1, 54, 0
2, 24000, Note_on_c, 1, 58, 127
2, 24000, Note_off_c, 1, 75, 0
2, 24000, Note_off_c, 1, 78, 0
2, 24040, Note_off_c, 1, 37, 0
2, 24040, Note_off_c, 1, 58, 0
2, 24040, Note_off_c, 1, 66, 0
2, 24040, Note_on_c, 1, 67, 127
2, 24040, Note_on_c, 1, 72, 127
2, 24040, Note_on_c, 1, 76, 127
2, 24040, Note_on_c, 1, 79, 127
2, 24040, Note_on_c, 1, 84, 127
2, 24040, Note_on_c, 1, 88, 127
2, 24040, Note_on_c, 1, 91, 127
2, 24080, Note_on_c, 1, 46, 127
2, 24080, Note_on_c, 1, 55, 127
2, 24080, Note_off_c, 1, 72, 0
2, 24080, Note_off_c, 1, 76, 0
2, 24080, Note_off_c, 1, 79, 0
2, 24080, Note_on_c, 1, 82, 127
2, 24080, Note_off_c, 1, 84, 0
2, 24080, Note_off_c, 1, 88, 0
2, 24080, Note_on_c, 1, 94, 127
2, 24120, Note_on_c, 1, 38, 127
2, 24120, Note_on_c, 1, 45, 127
2, 24120, Note_off_c, 1, 46, 0
2, 24120, Note_on_c, 1, 50, 127
2, 24120, Note_off_c, 1, 55, 0
2, 24120, Note_off_c, 1, 67, 0
2, 24120, Note_off_c, 1, 82, 0
2, 24120, Note_on_c, 1, 89, 127
2, 24120, Note_off_c, 1, 91, 0
2, 24120, Note_off_c, 1, 94, 0
2, 24160, Note_on_c, 1, 36, 127
2, 24160, Note_off_c, 1, 38, 0
2, 24160, Note_off_c, 1, 45, 0
2, 24160, Note_off_c, 1, 50, 0
2, 24160, Note_on_c, 1, 57, 127
2, 24160, Note_on_c, 1, 60, 127
2, 24160, Note_on_c, 1, 64, 127
2, 24160, Note_on_c, 1, 69, 127
2, 24160, Note_on_c, 1, 76, 127
2, 24160, Note_off_c, 1, 89, 0
2, 24200, Note_off_c, 1, 57, 0
2, 24200, Note_off_c, 1, 60, 0
2, 24200, Note_off_c, 1, 64, 0
2, 24200, Note_off_c, 1, 69, 0
2, 24200, Note_off_c, 1, 76, 0
2, 24240, Note_off_c, 1, 36, 0
2, 24240, Note_on_c, 1, 52, 127
2, 24240, Note_on_c, 1, 57, 127
2, 24240, Note_on_c, 1, 64, 127
2, 24240, Note_on_c, 1, 69, 127
2, 24240, Note_on_c, 1, 73, 127
2, 24600, Note_off_c, 1, 52, 0
2, 24600, Note_off_c, 1, 57, 0
2, 24600, Note_off_c, 1, 64, 0
2, 24600, Note_off_c, 1, 69, 0
2, 24600, Note_off_c, 1, 73, 0
2, 24640, Note_on_c, 1, 52, 127
2, 24640, Note_on_c, 1, 56, 127
2, 24640, Note_on_c, 1, 59, 127
2, 24640, Note_on_c, 1, 61, 127
2, 24640, Note_on_c, 1, 71, 127
2, 24640, Note_on_c, 1, 80, 127
2, 24720, Note_on_c, 1, 34, 127
2, 24720, Note_on_c, 1, 43, 127
2, 24720, Note_on_c, 1, 49, 127
2, 24720, Note_off_c, 1, 56, 0
2, 24720, Note_off_c, 1, 59, 0
2, 24720, Note_off_c, 1, 61, 0
2, 24720, Note_off_c, 1, 71, 0
2, 24720, Note_off_c, 1, 80, 0
2, 24760, Note_off_c, 1, 34, 0
2, 24760, Note_off_c, 1, 43, 0
2, 24760, Note_off_c, 1, 49, 0
2, 24760, Note_on_c, 1, 56, 127
2, 24760, Note_on_c, 1, 59, 127
2, 24760, Note_on_c, 1, 61, 127
2, 24760, Note_on_c, 1, 71, 127
2, 24760, Note_on_c, 1, 76, 127
2, 24800, Note_on_c, 1, 50, 127
2, 24800, Note_off_c, 1, 52, 0
2, 24800, Note_on_c, 1, 53, 127
2, 24800, Note_on_c, 1, 58, 127
2, 24800, Note_off_c, 1, 59, 0
2, 24800, Note_off_c, 1, 61, 0
2, 24800, Note_off_c, 1, 71, 0
2, 24800, Note_off_c, 1, 76, 0
2, 24800, Note_on_c, 1, 79, 127
2, 24840, Note_on_c, 1, 37, 127
2, 24840, Note_on_c, 1, 41, 127
2, 24840, Note_on_c, 1, 49, 127
2, 24840, Note_off_c, 1, 50, 0
2, 24840, Note_off_c, 1, 56, 0
2, 24840, Note_off_c, 1, 58, 0
2, 24840, Note_on_c, 1, 59, 127
2, 24840, Note_off_c, 1, 79, 0
2, 24880, Note_off_c, 1, 37, 0
2, 24880, Note_off_c, 1, 41, 0
2, 24880, Note_off_c, 1, 49, 0
2, 24880, Note_off_c, 1, 53, 0
2, 24880, Note_on_c, 1, 55, 127
2, 24880, Note_off_c, 1, 59, 0
2, 24880, Note_on_c, 1, 65, 127
2, 24880, Note_on_c, 1, 69, 127
2, 24880, Note_on_c, 1, 77, 127
2, 24920, Note_off_c, 1, 55, 0
2, 24920, Note_off_c, 1, 65, 0
2, 24920, Note_off_c, 1, 69, 0
2, 24920, Note_on_c, 1, 70, 127
2, 24920, Note_on_c, 1, 72, 127
2, 24920, Note_on_c, 1, 76, 127
2, 24920, Note_off_c, 1, 77, 0
2, 24920, Note_on_c, 1, 81, 127
2, 24960, Note_on_c, 1, 35, 127
2, 24960, Note_on_c, 1, 41, 127
2, 24960, Note_on_c, 1, 47, 127
2, 24960, Note_on_c, 1, 61, 127
2, 24960, Note_on_c, 1, 64, 127
2, 24960, Note_on_c, 1, 68, 127
2, 24960, Note_off_c, 1, 70, 0
2, 24960, Note_off_c, 1, 72, 0
2, 24960, Note_on_c, 1, 74, 127
2, 24960, Note_off_c, 1, 76, 0
2, 24960, Note_on_c, 1, 80, 127
2, 24960, Note_off_c, 1, 81, 0
2, 25000, Note_off_c, 1, 35, 0
2, 25000, Note_off_c, 1, 41, 0
2, 25000, Note_off_c, 1, 47, 0
2, 25000, Note_on_c, 1, 51, 127
2, 25000, Note_on_c, 1, 53, 127
2, 25000, Note_on_c, 1, 58, 127
2, 25000, Note_off_c, 1, 61, 0
2, 25000, Note_on_c, 1, 62, 127
2, 25000, Note_off_c, 1, 64, 0
2, 25000, Note_off_c, 1, 68, 0
2, 25000, Note_off_c, 1, 74, 0
2, 25000, Note_off_c, 1, 80, 0
2, 25000, Note_on_c, 1, 86, 127
2, 25040, Note_on_c, 1, 49, 127
2, 25040, Note_off_c, 1, 51, 0
2, 25040, Note_off_c, 1, 53, 0
2, 25040, Note_on_c, 1, 55, 127
2, 25040, Note_on_c, 1, 57, 127
2, 25040, Note_off_c, 1, 58, 0
2, 25040, Note_on_c, 1, 61, 127
2, 25040, Note_off_c, 1, 62, 0
2, 25040, Note_on_c, 1, 64, 127
2, 25040, Note_on_c, 1, 69, 127
2, 25040, Note_off_c, 1, 86, 0
2, 25160, Note_off_c, 1, 49, 0
2, 25160, Note_off_c, 1, 55, 0
2, 25160, Note_off_c, 1, 57, 0
2, 25160, Note_off_c, 1, 61, 0
2, 25160, Note_off_c, 1, 64, 0
2, 25160, Note_off_c, 1, 69, 0
2, 25200, Note_on_c, 1, 49, 127
2, 25200, Note_on_c, 1, 55, 127
2, 25200, Note_on_c, 1, 57, 127
2, 25200, Note_on_c, 1, 61, 127
2, 25200, Note_on_c, 1, 64, 127
2, 25200, Note_on_c, 1, 69, 127
2, 25440, Note_off_c, 1, 49, 0
2, 25440, Note_off_c, 1, 55, 0
2, 25440, Note_off_c, 1, 57, 0
2, 25440, Note_off_c, 1, 61, 0
2, 25440, Note_off_c, 1, 64, 0
2, 25440, Note_off_c, 1, 69, 0
2, 25480, Note_on_c, 1, 52, 127
2, 25480, Note_on_c, 1, 57, 127
2, 25480, Note_on_c, 1, 66, 127
2, 25480, Note_on_c, 1, 73, 127
2, 25480, Note_on_c, 1, 76, 127
2, 26240, Note_off_c, 1, 52, 0
2, 26240, Note_on_c, 1, 55, 127
2, 26240, Note_off_c, 1, 57, 0
2, 26240, Note_off_c, 1, 66, 0
2, 26240, Note_off_c, 1, 73, 0
2, 26240, Note_off_c, 1, 76, 0
2, 26240, Note_on_c, 1, 86, 127
2, 26240, Note_on_c, 1, 93, 127
2, 26280, Note_off_c, 1, 55, 0
2, 26280, Note_on_c, 1, 59, 127
2, 26280, Note_off_c, 1, 93, 0
2, 26320, Note_on_c, 1, 39, 127
2, 26320, Note_on_c, 1, 51, 127
2, 26320, Note_off_c, 1, 59, 0
2, 26320, Note_on_c, 1, 63, 127
2, 26320, Note_on_c, 1, 71, 127
2, 26320, Note_on_c, 1, 75, 127
2, 26320, Note_off_c, 1, 86, 0
2, 26360, Note_on_c, 1, 38, 127
2, 26360, Note_off_c, 1, 39, 0
2, 26360, Note_on_c, 1, 50, 127
2, 26360, Note_off_c, 1, 51, 0
2, 26360, Note_off_c, 1, 63, 0
2, 26360, Note_off_c, 1, 75, 0
2, 26360, Note_on_c, 1, 77, 127
2, 26360, Note_on_c, 1, 83, 127
2, 26400, Note_off_c, 1, 38, 0
2, 26400, Note_off_c, 1, 50, 0
2, 26400, Note_on_c, 1, 56, 127
2, 26400, Note_on_c, 1, 63, 127
2, 26400, Note_off_c, 1, 71, 0
2, 26400, Note_on_c, 1, 72, 127
2, 26400, Note_off_c, 1, 77, 0
2, 26400, Note_off_c, 1, 83, 0
2, 26400, Note_on_c, 1, 84, 127
2, 26400, Note_on_c, 1, 87, 127
2, 26400, Note_on_c, 1, 92, 127
2, 26400, Note_on_c, 1, 96, 127
2, 26440, Note_on_c, 1, 53, 127
2, 26440, Note_off_c, 1, 56, 0
2, 26440, Note_off_c, 1, 63, 0
2, 26440, Note_on_c, 1, 65, 127
2, 26440, Note_on_c, 1, 69, 127
2, 26440, Note_off_c, 1, 72, 0
2, 26440, Note_on_c, 1, 78, 127
2, 26440, Note_off_c, 1, 84, 0
2, 26440, Note_off_c, 1, 87, 0
2, 26440, Note_off_c, 1, 92, 0
2, 26440, Note_off_c, 1, 96, 0
2, 26480, Note_off_c, 1, 53, 0
2, 26480, Note_on_c, 1, 54, 127
2, 26480, Note_on_c, 1, 59, 127
2, 26480, Note_on_c, 1, 63, 127
2, 26480, Note_off_c, 1, 65, 0
2, 26480, Note_off_c, 1, 69, 0
2, 26480, Note_on_c, 1, 76, 127
2, 26480, Note_off_c, 1, 78, 0
2, 26480, Note_on_c, 1, 81, 127
2, 26480, Note_on_c, 1, 85, 127
2, 26520, Note_on_c, 1, 53, 127
2, 26520, Note_off_c, 1, 54, 0
2, 26520, Note_off_c, 1, 59, 0
2, 26520, Note_off_c, 1, 63, 0
2, 26520, Note_on_c, 1, 67, 127
2, 26520, Note_on_c, 1, 74, 127
2, 26520, Note_off_c, 1, 76, 0
2, 26520, Note_on_c, 1, 79, 127
2, 26520, Note_off_c, 1, 81, 0
2, 26520, Note_on_c, 1, 82, 127
2, 26520, Note_off_c, 1, 85, 0
2, 26560, Note_on_c, 1, 57, 127
2, 26560, Note_on_c, 1, 65, 127
2, 26560, Note_off_c, 1, 67, 0
2, 26560, Note_on_c, 1, 71, 127
2, 26560, Note_off_c, 1, 74, 0
2, 26560, Note_off_c, 1, 79, 0
2, 26560, Note_off_c, 1, 82, 0
2, 26600, Note_on_c, 1, 40, 127
2, 26600, Note_on_c, 1, 52, 127
2, 26600, Note_off_c, 1, 53, 0
2, 26600, Note_off_c, 1, 57, 0
2, 26600, Note_off_c, 1, 65, 0
2, 26600, Note_on_c, 1, 68, 127
2, 26600, Note_on_c, 1, 74, 127
2, 26640, Note_off_c, 1, 40, 0
2, 26640, Note_off_c, 1, 52, 0
2, 26640, Note_on_c, 1, 64, 127
2, 26640, Note_off_c, 1, 68, 0
2, 26640, Note_off_c, 1, 71, 0
2, 26640, Note_on_c, 1, 77, 127
2, 26640, Note_on_c, 1, 83, 127
2, 26680, Note_on_c, 1, 52, 127
2, 26680, Note_off_c, 1, 74, 0
2, 26680, Note_off_c, 1, 77, 0
2, 26680, Note_on_c, 1, 80, 127
2, 26680, Note_off_c, 1, 83, 0
2, 26720, Note_off_c, 1, 52, 0
2, 26720, Note_on_c, 1, 59, 127
2, 26720, Note_on_c, 1, 74, 127
2, 26720, Note_off_c, 1, 80, 0
2, 26720, Note_on_c, 1, 92, 127
2, 26760, Note_on_c, 1, 55, 127
2, 26760, Note_on_c, 1, 58, 127
2, 26760, Note_off_c, 1, 59, 0
2, 26760, Note_off_c, 1, 64, 0
2, 26760, Note_on_c, 1, 66, 127
2, 26760, Note_off_c, 1, 74, 0
2, 26760, Note_off_c, 1, 92, 0
2, 26800, Note_on_c, 1, 34, 127
2, 26800, Note_off_c, 1, 58, 0
2, 26800, Note_on_c, 1, 60, 127
2, 26800, Note_on_c, 1, 65, 127
2, 26800, Note_off_c, 1, 66, 0
2, 26840, Note_on_c, 1, 43, 127
2, 26840, Note_on_c, 1, 46, 127
2, 26840, Note_off_c, 1, 55, 0
2, 26840, Note_off_c, 1, 60, 0
2, 26840, Note_off_c, 1, 65, 0
2, 26880, Note_off_c, 1, 34, 0
2, 26880, Note_on_c, 1, 41, 127
2, 26880, Note_off_c, 1, 43, 0
2, 26880, Note_off_c, 1, 46, 0
2, 26880, Note_on_c, 1, 69, 127
2, 26880, Note_on_c, 1, 93, 127
2, 26880, Note_on_c, 1, 96, 127
2, 26920, Note_off_c, 1, 41, 0
2, 26920, Note_on_c, 1, 54, 127
2, 26920, Note_on_c, 1, 59, 127
2, 26920, Note_on_c, 1, 63, 127
2, 26920, Note_off_c, 1, 69, 0
2, 26920, Note_on_c, 1, 71, 127
2, 26920, Note_on_c, 1, 80, 127
2, 26920, Note_off_c, 1, 93, 0
2, 26920, Note_off_c, 1, 96, 0
2, 26960, Note_on_c, 1, 47, 127
2, 26960, Note_off_c, 1, 59, 0
2, 26960, Note_on_c, 1, 60, 127
2, 26960, Note_off_c, 1, 63, 0
2, 26960, Note_on_c, 1, 70, 127
2, 26960, Note_off_c, 1, 71, 0
2, 26960, Note_off_c, 1, 80, 0
2, 27000, Note_off_c, 1, 47, 0
2, 27000, Note_off_c, 1, 54, 0
2, 27000, Note_off_c, 1, 60, 0
2, 27000, Note_off_c, 1, 70, 0
2, 27000, Note_on_c, 1, 75, 127
2, 27000, Note_on_c, 1, 81, 127
2, 27000, Note_on_c, 1, 87, 127
2, 27000, Note_on_c, 1, 90, 127
2, 27000, Note_on_c, 1, 93, 127
2, 27040, Note_on_c, 1, 69, 127
2, 27040, Note_on_c, 1, 73, 127
2, 27040, Note_off_c, 1, 75, 0
2, 27040, Note_off_c, 1, 87, 0
2, 27040, Note_on_c, 1, 88, 127
2, 27040, Note_off_c, 1, 90, 0
2, 27040, Note_off_c, 1, 93, 0
2, 27080, Note_off_c, 1, 69, 0
2, 27080, Note_off_c, 1, 73, 0
2, 27080, Note_on_c, 1, 80, 127
2, 27080, Note_off_c, 1, 81, 0
2, 27080, Note_off_c, 1, 88, 0
2, 27120, Note_off_c, 1, 80, 0
2, 27160, Note_on_c, 1, 48, 127
2, 27160, Note_on_c, 1, 55, 127
2, 27160, Note_on_c, 1, 67, 127
2, 27160, Note_on_c, 1, 71, 127
2, 27160, Note_on_c, 1, 74, 127
2, 27160, Note_on_c, 1, 79, 127
2, 28320, Note_off_c, 1, 48, 0
2, 28360, Note_on_c, 1, 41, 127
2, 28360, Note_on_c, 1, 49, 127
2, 28360, Note_off_c, 1, 55, 0
2, 28360, Note_on_c, 1, 56, 127
2, 28360, Note_off_c, 1, 67, 0
2, 28360, Note_off_c, 1, 71, 0
2, 28360, Note_off_c, 1, 74, 0
2, 28360, Note_off_c, 1, 79, 0
2, 28360, Note_on_c, 1, 92, 127
2, 28400, Note_off_c, 1, 41, 0
2, 28400, Note_on_c, 1, 48, 127
2, 28400, Note_off_c, 1, 49, 0
2, 28400, Note_on_c, 1, 54, 127
2, 28400, Note_off_c, 1, 56, 0
2, 28400, Note_on_c, 1, 62, 127
2, 28400, Note_on_c, 1, 74, 127
2, 28400, Note_off_c, 1, 92, 0
2, 28440, Note_on_c, 1, 44, 127
2, 28440, Note_off_c, 1, 48, 0
2, 28440, Note_on_c, 1, 51, 127
2, 28440, Note_off_c, 1, 54, 0
2, 28440, Note_on_c, 1, 61, 127
2, 28440, Note_off_c, 1, 62, 0
2, 28440, Note_on_c, 1, 63, 127
2, 28440, Note_on_c, 1, 68, 127
2, 28440, Note_off_c, 1, 74, 0
2, 28480, Note_on_c, 1, 43, 127
2, 28480, Note_off_c, 1, 44, 0
2, 28480, Note_off_c, 1, 51, 0
2, 28480, Note_on_c, 1, 52, 127
2, 28480, Note_on_c, 1, 55, 127
2, 28480, Note_on_c, 1, 60, 127
2, 28480, Note_off_c, 1, 61, 0
2, 28480, Note_off_c, 1, 63, 0
2, 28480, Note_off_c, 1, 68, 0
2, 28480, Note_on_c, 1, 72, 127
2, 28520, Note_off_c, 1, 43, 0
2, 28520, Note_off_c, 1, 52, 0
2, 28520, Note_off_c, 1, 55, 0
2, 28520, Note_on_c, 1, 67, 127
2, 28520, Note_off_c, 1, 72, 0
2, 28520, Note_on_c, 1, 95, 127
2, 28520, Note_on_c, 1, 96, 127
2, 28560, Note_on_c, 1, 43, 127
2, 28560, Note_on_c, 1, 50, 127
2, 28560, Note_off_c, 1, 60, 0
2, 28560, Note_on_c, 1, 64, 127
2, 28560, Note_off_c, 1, 67, 0
2, 28560, Note_on_c, 1, 86, 127
2, 28560, Note_off_c, 1, 95, 0
2, 28560, Note_off_c, 1, 96, 0
2, 28640, Note_off_c, 1, 64, 0
2, 28640, Note_on_c, 1, 66, 127
2, 28680, Note_off_c, 1, 43, 0
2, 28680, Note_off_c, 1, 50, 0
2, 28680, Note_on_c, 1, 55, 127
2, 28680, Note_on_c, 1, 60, 127
2, 28680, Note_on_c, 1, 64, 127
2, 28680, Note_off_c, 1, 66, 0
2, 28680, Note_on_c, 1, 70, 127
2, 28680, Note_on_c, 1, 72, 127
2, 28680, Note_on_c, 1, 79, 127
2, 28680, Note_off_c, 1, 86, 0
2, 28720, Note_off_c, 1, 55, 0
2, 28720, Note_on_c, 1, 58, 127
2, 28720, Note_off_c, 1, 60, 0
2, 28720, Note_off_c, 1, 64, 0
2, 28720, Note_off_c, 1, 70, 0
2, 28720, Note_off_c, 1, 72, 0
2, 28720, Note_off_c, 1, 79, 0
2, 28760, Note_on_c, 1, 63, 127
2, 28760, Note_on_c, 1, 65, 127
2, 28760, Note_on_c, 1, 73, 127
2, 28760, Note_on_c, 1, 91, 127
2, 28800, Note_on_c, 1, 39, 127
2, 28800, Note_on_c, 1, 46, 127
2, 28800, Note_on_c, 1, 51, 127
2, 28800, Note_off_c, 1, 58, 0
2, 28800, Note_off_c, 1, 63, 0
2, 28800, Note_off_c, 1, 65, 0
2, 28800, Note_off_c, 1, 73, 0
2, 28800, Note_on_c, 1, 75, 127
2, 28800, Note_off_c, 1, 91, 0
2, 28840, Note_off_c, 1, 39, 0
2, 28840, Note_off_c, 1, 46, 0
2, 28840, Note_off_c, 1, 51, 0
2, 28840, Note_on_c, 1, 58, 127
2, 28840, Note_off_c, 1, 75, 0
2, 28840, Note_on_c, 1, 82, 127
2, 28840, Note_on_c, 1, 85, 127
2, 28840, Note_on_c, 1, 89, 127
2, 28840, Note_on_c, 1, 94, 127
2, 28880, Note_on_c, 1, 40, 127
2, 28880, Note_on_c, 1, 50, 127
2, 28880, Note_off_c, 1, 58, 0
2, 28880, Note_on_c, 1, 65, 127
2, 28880, Note_on_c, 1, 68, 127
2, 28880, Note_on_c, 1, 71, 127
2, 28880, Note_on_c, 1, 74, 127
2, 28880, Note_on_c, 1, 77, 127
2, 28880, Note_off_c, 1, 82, 0
2, 28880, Note_off_c, 1, 85, 0
2, 28880, Note_off_c, 1, 89, 0
2, 28880, Note_off_c, 1, 94, 0
2, 28920, Note_off_c, 1, 40, 0
2, 28920, Note_off_c, 1, 50, 0
2, 28920, Note_on_c, 1, 62, 127
2, 28920, Note_off_c, 1, 65, 0
2, 28920, Note_off_c, 1, 68, 0
2, 28920, Note_on_c, 1, 70, 127
2, 28920, Note_off_c, 1, 71, 0
2, 28920, Note_off_c, 1, 74, 0
2, 28920, Note_on_c, 1, 75, 127
2, 28920, Note_off_c, 1, 77, 0
2, 28920, Note_on_c, 1, 79, 127
2, 28920, Note_on_c, 1, 81, 127
2, 28960, Note_on_c, 1, 47, 127
2, 28960, Note_on_c, 1, 52, 127
2, 28960, Note_off_c, 1, 62, 0
2, 28960, Note_on_c, 1, 63, 127
2, 28960, Note_off_c, 1, 70, 0
2, 28960, Note_on_c, 1, 71, 127
2, 28960, Note_off_c, 1, 79, 0
2, 28960, Note_off_c, 1, 81, 0
2, 29000, Note_off_c, 1, 47, 0
2, 29000, Note_on_c, 1, 51, 127
2, 29000, Note_off_c, 1, 52, 0
2, 29000, Note_on_c, 1, 55, 127
2, 29000, Note_on_c, 1, 58, 127
2, 29000, Note_on_c, 1, 61, 127
2, 29000, Note_on_c, 1, 67, 127
2, 29000, Note_off_c, 1, 71, 0
2, 29000, Note_off_c, 1, 75, 0
2, 29040, Note_on_c, 1, 47, 127
2, 29040, Note_off_c, 1, 51, 0
2, 29040, Note_on_c, 1, 52, 127
2, 29040, Note_off_c, 1, 55, 0
2, 29040, Note_off_c, 1, 58, 0
2, 29040, Note_off_c, 1, 61, 0
2, 29040, Note_off_c, 1, 67, 0
2, 29040, Note_on_c, 1, 71, 127
2, 29040, Note_on_c, 1, 75, 127
2, 29120, Note_off_c, 1, 47, 0
2, 29120, Note_off_c, 1, 52, 0
2, 29120, Note_off_c, 1, 63, 0
2, 29120, Note_off_c, 1, 71, 0
2, 29120, Note_off_c, 1, 75, 0
2, 29120, Note_on_c, 1, 83, 127
2, 29160, Note_off_c, 1, 83, 0
2, 29200, Note_on_c, 1, 65, 127
2, 29200, Note_on_c, 1, 71, 127
2, 29200, Note_on_c, 1, 74, 127
2, 29200, Note_on_c, 1, 93, 127
2, 29560, Note_off_c, 1, 65, 0
2, 29560, Note_off_c, 1, 71, 0
2, 29560, Note_on_c, 1, 79, 127
2, 29560, Note_on_c, 1, 83, 127
2, 29560, Note_off_c, 1, 93, 0
2, 29600, Note_on_c, 1, 65, 127
2, 29600, Note_on_c, 1, 71, 127
2, 29600, Note_off_c, 1, 79, 0
2, 29600, Note_off_c, 1, 83, 0
2, 29600, Note_on_c, 1, 93, 127
2, 29960, Note_off_c, 1, 65, 0
2, 29960, Note_off_c, 1, 71, 0
2, 29960, Note_off_c, 1, 74, 0
2, 29960, Note_off_c, 1, 93, 0
2, 30000, Note_on_c, 1, 49, 127
2, 30000, Note_on_c, 1, 52, 127
2, 30000, Note_on_c, 1, 61, 127
2, 30000, Note_on_c, 1, 65, 127
2, 30000, Note_on_c, 1, 69, 127
2, 30040, Note_off_c, 1, 65, 0
2, 30360, Note_off_c, 1, 52, 0
2, 30360, Note_on_c, 1, 53, 127
2, 30360, Note_on_c, 1, 59, 127
2, 30360, Note_off_c, 1, 61, 0
2, 30400, Note_on_c, 1, 37, 127
2, 30400, Note_on_c, 1, 41, 127
2, 30400, Note_off_c, 1, 53, 0
2, 30400, Note_off_c, 1, 59, 0
2, 30400, Note_on_c, 1, 65, 127
2, 30400, Note_off_c, 1, 69, 0
2, 30760, Note_off_c, 1, 37, 0
2, 30760, Note_off_c, 1, 41, 0
2, 30760, Note_off_c, 1, 49, 0
2, 30800, Note_on_c, 1, 41, 127
2, 30800, Note_on_c, 1, 44, 127
2, 30800, Note_on_c, 1, 53, 127
2, 31200, Note_off_c, 1, 41, 0
2, 31200, Note_off_c, 1, 44, 0
2, 31200, Note_off_c, 1, 53, 0
2, 31200, Note_off_c, 1, 65, 0
2, 31240, Note_on_c, 1, 41, 127
2, 31240, Note_on_c, 1, 44, 127
2, 31240, Note_on_c, 1, 53, 127
2, 31240, Note_on_c, 1, 65, 127
2, 31600, Note_off_c, 1, 41, 0
2, 31600, Note_off_c, 1, 44, 0
2, 31600, Note_off_c, 1, 53, 0
2, 31600, Note_off_c, 1, 65, 0
2, 31640, Note_on_c, 1, 35, 127
2, 31640, Note_on_c, 1, 47, 127
2, 31640, Note_on_c, 1, 51, 127
2, 31640, Note_on_c, 1, 56, 127
2, 31640, Note_on_c, 1, 61, 127
2, 32800, Note_off_c, 1, 35, 0
2, 32800, Note_off_c, 1, 47, 0
2, 32800, Note_off_c, 1, 51, 0
2, 32800, Note_off_c, 1, 56, 0
2, 32840, Note_on_c, 1, 56, 127
2, 32840, Note_on_c, 1, 58, 127
2, 32840, Note_off_c, 1, 61, 0
2, 32840, Note_on_c, 1, 78, 127
2, 33240, Note_off_c, 1, 56, 0
2, 33240, Note_off_c, 1, 58, 0
2, 33240, Note_off_c, 1, 78, 0
2, 33280, Note_on_c, 1, 56, 127
2, 33280, Note_on_c, 1, 58, 127
2, 33280, Note_on_c, 1, 78, 127
2, 33640, Note_off_c, 1, 56, 0
2, 33640, Note_off_c, 1, 58, 0
2, 33640, Note_off_c, 1, 78, 0
2, 33680, Note_on_c, 1, 61, 127
2, 33680, Note_on_c, 1, 67, 127
2, 33680, Note_on_c, 1, 75, 127
2, 33680, Note_on_c, 1, 84, 127
2, 33720, Note_off_c, 1, 61, 0
2, 33720, Note_on_c, 1, 63, 127
2, 33720, Note_off_c, 1, 67, 0
2, 33720, Note_on_c, 1, 73, 127
2, 33720, Note_off_c, 1, 84, 0
2, 33760, Note_on_c, 1, 55, 127
2, 33760, Note_on_c, 1, 58, 127
2, 33760, Note_on_c, 1, 62, 127
2, 33760, Note_off_c, 1, 63, 0
2, 33760, Note_off_c, 1, 73, 0
2, 33760, Note_off_c, 1, 75, 0
2, 33760, Note_on_c, 1, 77, 127
2, 33800, Note_off_c, 1, 55, 0
2, 33800, Note_off_c, 1, 58, 0
2, 33800, Note_off_c, 1, 62, 0
2, 33800, Note_on_c, 1, 63, 127
2, 33800, Note_on_c, 1, 73, 127
2, 33800, Note_on_c, 1, 75, 127
2, 33800, Note_off_c, 1, 77, 0
2, 33840, Note_on_c, 1, 60, 127
2, 33840, Note_off_c, 1, 63, 0
2, 33840, Note_off_c, 1, 73, 0
2, 33840, Note_on_c, 1, 74, 127
2, 33840, Note_off_c, 1, 75, 0
2, 33880, Note_on_c, 1, 34, 127
2, 33880, Note_on_c, 1, 46, 127
2, 33880, Note_off_c, 1, 60, 0
2, 33880, Note_on_c, 1, 70, 127
2, 33880, Note_on_c, 1, 73, 127
2, 33880, Note_off_c, 1, 74, 0
2, 33920, Note_off_c, 1, 34, 0
2, 33920, Note_off_c, 1, 46, 0
2, 33920, Note_on_c, 1, 63, 127
2, 33920, Note_off_c, 1, 70, 0
2, 33920, Note_on_c, 1, 75, 127
2, 34040, Note_on_c, 1, 55, 127
2, 34040, Note_on_c, 1, 61, 127
2, 34040, Note_off_c, 1, 63, 0
2, 34040, Note_on_c, 1, 64, 127
2, 34040, Note_off_c, 1, 73, 0
2, 34040, Note_off_c, 1, 75, 0
2, 34080, Note_on_c, 1, 33, 127
2, 34080, Note_off_c, 1, 55, 0
2, 34080, Note_off_c, 1, 61, 0
2, 34080, Note_off_c, 1, 64, 0
2, 34080, Note_on_c, 1, 65, 127
2, 34080, Note_on_c, 1, 72, 127
2, 34240, Note_off_c, 1, 33, 0
2, 34240, Note_on_c, 1, 42, 127
2, 34240, Note_on_c, 1, 53, 127
2, 34240, Note_on_c, 1, 58, 127
2, 34240, Note_on_c, 1, 61, 127
2, 34240, Note_off_c, 1, 65, 0
2, 34240, Note_on_c, 1, 68, 127
2, 34240, Note_off_c, 1, 72, 0
2, 34240, Note_on_c, 1, 73, 127
2, 34280, Note_on_c, 1, 37, 127
2, 34280, Note_off_c, 1, 42, 0
2, 34280, Note_on_c, 1, 44, 127
2, 34280, Note_on_c, 1, 49, 127
2, 34280, Note_off_c, 1, 53, 0
2, 34280, Note_off_c, 1, 58, 0
2, 34280, Note_on_c, 1, 65, 127
2, 34280, Note_off_c, 1, 68, 0
2, 34280, Note_off_c, 1, 73, 0
2, 34440, Note_off_c, 1, 37, 0
2, 34440, Note_off_c, 1, 44, 0
2, 34440, Note_off_c, 1, 49, 0
2, 34440, Note_off_c, 1, 61, 0
2, 34440, Note_off_c, 1, 65, 0
2, 34440, Note_on_c, 1, 67, 127
2, 34440, Note_on_c, 1, 77, 127
2, 34480, Note_on_c, 1, 47, 127
2, 34480, Note_off_c, 1, 67, 0
2, 34480, Note_on_c, 1, 91, 127
2, 34520, Note_on_c, 1, 35, 127
2, 34520, Note_off_c, 1, 47, 0
2, 34520, Note_on_c, 1, 54, 127
2, 34520, Note_on_c, 1, 59, 127
2, 34520, Note_on_c, 1, 64, 127
2, 34520, Note_on_c, 1, 68, 127
2, 34520, Note_on_c, 1, 71, 127
2, 34520, Note_off_c, 1, 77, 0
2, 34520, Note_off_c, 1, 91, 0
2, 34560, Note_off_c, 1, 35, 0
2, 34560, Note_on_c, 1, 44, 127
2, 34560, Note_on_c, 1, 48, 127
2, 34560, Note_off_c, 1, 54, 0
2, 34560, Note_off_c, 1, 59, 0
2, 34560, Note_off_c, 1, 64, 0
2, 34560, Note_off_c, 1, 68, 0
2, 34560, Note_off_c, 1, 71, 0
2, 34560, Note_on_c, 1, 72, 127
2, 34560, Note_on_c, 1, 74, 127
2, 34560, Note_on_c, 1, 84, 127
2, 34600, Note_on_c, 1, 32, 127
2, 34600, Note_on_c, 1, 37, 127
2, 34600, Note_off_c, 1, 48, 0
2, 34600, Note_on_c, 1, 61, 127
2, 34600, Note_off_c, 1, 72, 0
2, 34600, Note_off_c, 1, 74, 0
2, 34600, Note_off_c, 1, 84, 0
2, 34640, Note_off_c, 1, 32, 0
2, 34640, Note_off_c, 1, 37, 0
2, 34640, Note_off_c, 1, 44, 0
2, 34640, Note_off_c, 1, 61, 0
2, 34640, Note_on_c, 1, 65, 127
2, 34640, Note_on_c, 1, 66, 127
2, 34640, Note_on_c, 1, 73, 127
2, 34640, Note_on_c, 1, 85, 127
2, 34680, Note_on_c, 1, 52, 127
2, 34680, Note_on_c, 1, 60, 127
2, 34680, Note_off_c, 1, 65, 0
2, 34680, Note_off_c, 1, 66, 0
2, 34680, Note_on_c, 1, 67, 127
2, 34680, Note_on_c, 1, 72, 127
2, 34680, Note_off_c, 1, 73, 0
2, 34680, Note_on_c, 1, 82, 127
2, 34680, Note_off_c, 1, 85, 0
2, 34680, Note_on_c, 1, 91, 127
2, 34680, Note_on_c, 1, 94, 127
2, 34720, Note_off_c, 1, 52, 0
2, 34720, Note_off_c, 1, 67, 0
2, 34720, Note_on_c, 1, 69, 127
2, 34720, Note_off_c, 1, 72, 0
2, 34720, Note_on_c, 1, 73, 127
2, 34720, Note_on_c, 1, 76, 127
2, 34720, Note_off_c, 1, 82, 0
2, 34720, Note_off_c, 1, 91, 0
2, 34720, Note_off_c, 1, 94, 0
2, 34760, Note_off_c, 1, 60, 0
2, 34760, Note_on_c, 1, 67, 127
2, 34760, Note_off_c, 1, 69, 0
2, 34760, Note_on_c, 1, 72, 127
2, 34760, Note_off_c, 1, 73, 0
2, 34760, Note_off_c, 1, 76, 0
2, 34760, Note_on_c, 1, 79, 127
2, 34760, Note_on_c, 1, 82, 127
2, 34760, Note_on_c, 1, 84, 127
2, 34800, Note_on_c, 1, 48, 127
2, 34800, Note_on_c, 1, 53, 127
2, 34800, Note_on_c, 1, 55, 127
2, 34800, Note_on_c, 1, 59, 127
2, 34800, Note_off_c, 1, 67, 0
2, 34800, Note_off_c, 1, 72, 0
2, 34800, Note_off_c, 1, 79, 0
2, 34800, Note_on_c, 1, 81, 127
2, 34800, Note_off_c, 1, 82, 0
2, 34800, Note_off_c, 1, 84, 0
2, 34840, Note_on_c, 1, 45, 127
2, 34840, Note_off_c, 1, 48, 0
2, 34840, Note_off_c, 1, 53, 0
2, 34840, Note_off_c, 1, 55, 0
2, 34840, Note_on_c, 1, 57, 127
2, 34840, Note_off_c, 1, 59, 0
2, 34840, Note_on_c, 1, 73, 127
2, 34840, Note_on_c, 1, 79, 127
2, 34840, Note_off_c, 1, 81, 0
2, 34880, Note_on_c, 1, 37, 127
2, 34880, Note_off_c, 1, 45, 0
2, 34880, Note_on_c, 1, 49, 127
2, 34880, Note_off_c, 1, 57, 0
2, 34880, Note_on_c, 1, 61, 127
2, 34880, Note_off_c, 1, 79, 0
2, 34880, Note_on_c, 1, 81, 127
2, 34880, Note_on_c, 1, 93, 127
2, 35400, Note_off_c, 1, 37, 0
2, 35400, Note_off_c, 1, 49, 0
2, 35400, Note_off_c, 1, 61, 0
2, 35400, Note_off_c, 1, 73, 0
2, 35400, Note_off_c, 1, 81, 0
2, 35400, Note_off_c, 1, 93, 0
2, 35440, Note_on_c, 1, 37, 127
2, 35440, Note_on_c, 1, 49, 127
2, 35440, Note_on_c, 1, 61, 127
2, 35440, Note_on_c, 1, 73, 127
2, 35440, Note_on_c, 1, 81, 127
2, 35440, Note_on_c, 1, 93, 127
2, 35720, Note_off_c, 1, 37, 0
2, 35720, Note_on_c, 1, 42, 127
2, 35720, Note_on_c, 1, 54, 127
2, 35720, Note_off_c, 1, 61, 0
2, 35720, Note_on_c, 1, 76, 127
2, 35720, Note_off_c, 1, 81, 0
2, 35720, Note_on_c, 1, 82, 127
2, 35720, Note_on_c, 1, 85, 127
2, 35720, Note_off_c, 1, 93, 0
2, 35880, Note_off_c, 1, 42, 0
2, 35880, Note_off_c, 1, 49, 0
2, 35880, Note_off_c, 1, 54, 0
2, 35880, Note_off_c, 1, 73, 0
2, 35880, Note_off_c, 1, 76, 0
2, 35880, Note_off_c, 1, 82, 0
2, 35880, Note_off_c, 1, 85, 0
2, 35920, Note_on_c, 1, 72, 127
2, 36080, Note_off_c, 1, 72, 0
2, 36080, Note_on_c, 1, 73, 127
2, 36120, Note_off_c, 1, 73, 0
2, 36160, Note_on_c, 1, 74, 127
2, 36480, Note_off_c, 1, 74, 0
2, 36520, Note_on_c, 1, 62, 127
2, 36520, Note_on_c, 1, 63, 127
2, 36520, Note_on_c, 1, 87, 127
2, 36520, Note_on_c, 1, 96, 127
2, 36560, Note_on_c, 1, 52, 127
2, 36560, Note_on_c, 1, 57, 127
2, 36560, Note_on_c, 1, 61, 127
2, 36560, Note_off_c, 1, 62, 0
2, 36560, Note_off_c, 1, 63, 0
2, 36560, Note_on_c, 1, 69, 127
2, 36560, Note_on_c, 1, 85, 127
2, 36560, Note_off_c, 1, 87, 0
2, 36560, Note_off_c, 1, 96, 0
2, 36600, Note_off_c, 1, 52, 0
2, 36600, Note_off_c, 1, 57, 0
2, 36600, Note_on_c, 1, 68, 127
2, 36600, Note_off_c, 1, 69, 0
2, 36600, Note_on_c, 1, 77, 127
2, 36600, Note_on_c, 1, 84, 127
2, 36600, Note_off_c, 1, 85, 0
2, 36640, Note_on_c, 1, 49, 127
2, 36640, Note_on_c, 1, 53, 127
2, 36640, Note_on_c, 1, 56, 127
2, 36640, Note_on_c, 1, 58, 127
2, 36640, Note_off_c, 1, 61, 0
2, 36640, Note_off_c, 1, 68, 0
2, 36640, Note_off_c, 1, 77, 0
2, 36640, Note_off_c, 1, 84, 0
2, 36680, Note_off_c, 1, 49, 0
2, 36680, Note_off_c, 1, 53, 0
2, 36680, Note_on_c, 1, 54, 127
2, 36680, Note_off_c, 1, 56, 0
2, 36680, Note_off_c, 1, 58, 0
2, 36680, Note_on_c, 1, 61, 127
2, 36680, Note_on_c, 1, 64, 127
2, 36680, Note_on_c, 1, 68, 127
2, 36680, Note_on_c, 1, 70, 127
2, 36680, Note_on_c, 1, 76, 127
2, 36680, Note_on_c, 1, 80, 127
2, 36720, Note_off_c, 1, 54, 0
2, 36720, Note_on_c, 1, 56, 127
2, 36720, Note_off_c, 1, 61, 0
2, 36720, Note_on_c, 1, 63, 127
2, 36720, Note_off_c, 1, 64, 0
2, 36720, Note_on_c, 1, 66, 127
2, 36720, Note_off_c, 1, 68, 0
2, 36720, Note_off_c, 1, 70, 0
2, 36720, Note_on_c, 1, 71, 127
2, 36720, Note_on_c, 1, 75, 127
2, 36720, Note_off_c, 1, 76, 0
2, 36720, Note_off_c, 1, 80, 0
2, 36720, Note_on_c, 1, 83, 127
2, 36920, Note_on_c, 1, 46, 127
2, 36920, Note_off_c, 1, 56, 0
2, 36920, Note_on_c, 1, 57, 127
2, 36920, Note_off_c, 1, 66, 0
2, 36920, Note_off_c, 1, 71, 0
2, 36920, Note_on_c, 1, 72, 127
2, 36920, Note_off_c, 1, 75, 0
2, 36920, Note_off_c, 1, 83, 0
2, 36960, Note_on_c, 1, 32, 127
2, 36960, Note_on_c, 1, 38, 127
2, 36960, Note_on_c, 1, 44, 127
2, 36960, Note_off_c, 1, 46, 0
2, 36960, Note_off_c, 1, 57, 0
2, 36960, Note_off_c, 1, 63, 0
2, 36960, Note_on_c, 1, 71, 127
2, 36960, Note_off_c, 1, 72, 0
2, 37000, Note_off_c, 1, 32, 0
2, 37000, Note_off_c, 1, 38, 0
2, 37000, Note_on_c, 1, 43, 127
2, 37000, Note_off_c, 1, 44, 0
2, 37000, Note_on_c, 1, 77, 127
2, 37000, Note_on_c, 1, 83, 127
2, 37040, Note_off_c, 1, 43, 0
2, 37040, Note_on_c, 1, 70, 127
2, 37040, Note_off_c, 1, 71, 0
2, 37040, Note_on_c, 1, 72, 127
2, 37040, Note_off_c, 1, 77, 0
2, 37040, Note_on_c, 1, 78, 127
2, 37040, Note_off_c, 1, 83, 0
2, 37040, Note_on_c, 1, 87, 127
2, 37040, Note_on_c, 1, 89, 127
2, 37040, Note_on_c, 1, 93, 127
2, 37080, Note_on_c, 1, 36, 127
2, 37080, Note_on_c, 1, 44, 127
2, 37080, Note_on_c, 1, 56, 127
2, 37080, Note_on_c, 1, 63, 127
2, 37080, Note_on_c, 1, 66, 127
2, 37080, Note_on_c, 1, 68, 127
2, 37080, Note_off_c, 1, 70, 0
2, 37080, Note_off_c, 1, 72, 0
2, 37080, Note_off_c, 1, 78, 0
2, 37080, Note_off_c, 1, 87, 0
2, 37080, Note_off_c, 1, 89, 0
2, 37080, Note_off_c, 1, 93, 0
2, 37280, Note_off_c, 1, 36, 0
2, 37280, Note_off_c, 1, 44, 0
2, 37280, Note_off_c, 1, 56, 0
2, 37280, Note_off_c, 1, 63, 0
2, 37280, Note_off_c, 1, 66, 0
2, 37280, Note_off_c, 1, 68, 0
2, 37320, Note_on_c, 1, 55, 127
2, 37320, Note_on_c, 1, 59, 127
2, 37320, Note_on_c, 1, 62, 127
2, 37320, Note_on_c, 1, 67, 127
2, 37640, Note_off_c, 1, 55, 0
2, 37640, Note_off_c, 1, 59, 0
2, 37640, Note_off_c, 1, 62, 0
2, 37640, Note_off_c, 1, 67, 0
2, 37680, Note_on_c, 1, 55, 127
2, 37680, Note_on_c, 1, 59, 127
2, 37680, Note_on_c, 1, 62, 127
2, 37680, Note_on_c, 1, 67, 127
2, 37760, Note_on_c, 1, 52, 127
2, 37760, Note_off_c, 1, 55, 0
2, 37760, Note_on_c, 1, 57, 127
2, 37760, Note_off_c, 1, 59, 0
2, 37760, Note_on_c, 1, 60, 127
2, 37760, Note_off_c, 1, 62, 0
2, 37760, Note_on_c, 1, 64, 127
2, 37760, Note_off_c, 1, 67, 0
2, 37760, Note_on_c, 1, 76, 127
2, 38120, Note_off_c, 1, 64, 0
2, 38120, Note_off_c, 1, 76, 0
2, 38160, Note_off_c, 1, 60, 0
2, 38160, Note_on_c, 1, 64, 127
2, 38160, Note_on_c, 1, 66, 127
2, 38160, Note_on_c, 1, 69, 127
2, 38160, Note_on_c, 1, 73, 127
2, 38520, Note_on_c, 1, 45, 127
2, 38520, Note_off_c, 1, 52, 0
2, 38520, Note_off_c, 1, 64, 0
2, 38520, Note_off_c, 1, 66, 0
2, 38520, Note_on_c, 1, 68, 127
2, 38520, Note_off_c, 1, 69, 0
2, 38520, Note_off_c, 1, 73, 0
2, 38560, Note_off_c, 1, 45, 0
2, 38560, Note_on_c, 1, 50, 127
2, 38560, Note_on_c, 1, 55, 127
2, 38560, Note_off_c, 1, 57, 0
2, 38560, Note_on_c, 1, 62, 127
2, 38560, Note_off_c, 1, 68, 0
2, 38560, Note_on_c, 1, 79, 127
2, 38560, Note_on_c, 1, 86, 127
2, 38600, Note_on_c, 1, 45, 127
2, 38600, Note_off_c, 1, 55, 0
2, 38600, Note_on_c, 1, 60, 127
2, 38600, Note_off_c, 1, 62, 0
2, 38600, Note_off_c, 1, 79, 0
2, 38600, Note_on_c, 1, 84, 127
2, 38600, Note_off_c, 1, 86, 0
2, 38640, Note_off_c, 1, 45, 0
2, 38640, Note_off_c, 1, 50, 0
2, 38640, Note_off_c, 1, 60, 0
2, 38640, Note_on_c, 1, 64, 127
2, 38640, Note_on_c, 1, 70, 127
2, 38640, Note_on_c, 1, 74, 127
2, 38640, Note_on_c, 1, 76, 127
2, 38640, Note_off_c, 1, 84, 0
2, 38640, Note_on_c, 1, 86, 127
2, 38640, Note_on_c, 1, 88, 127
2, 38680, Note_on_c, 1, 35, 127
2, 38680, Note_on_c, 1, 38, 127
2, 38680, Note_on_c, 1, 47, 127
2, 38680, Note_off_c, 1, 64, 0
2, 38680, Note_off_c, 1, 70, 0
2, 38680, Note_off_c, 1, 74, 0
2, 38680, Note_on_c, 1, 79, 127
2, 38680, Note_on_c, 1, 85, 127
2, 38680, Note_off_c, 1, 88, 0
2, 38720, Note_off_c, 1, 35, 0
2, 38720, Note_off_c, 1, 38, 0
2, 38720, Note_on_c, 1, 46, 127
2, 38720, Note_off_c, 1, 47, 0
2, 38720, Note_on_c, 1, 51, 127
2, 38720, Note_on_c, 1, 63, 127
2, 38720, Note_on_c, 1, 73, 127
2, 38720, Note_off_c, 1, 76, 0
2, 38720, Note_off_c, 1, 79, 0
2, 38720, Note_off_c, 1, 85, 0
2, 38720, Note_off_c, 1, 86, 0
2, 38760, Note_off_c, 1, 46, 0
2, 38760, Note_on_c, 1, 48, 127
2, 38760, Note_off_c, 1, 51, 0
2, 38760, Note_on_c, 1, 53, 127
2, 38760, Note_on_c, 1, 57, 127
2, 38760, Note_off_c, 1, 63, 0
2, 38760, Note_off_c, 1, 73, 0
2, 38760, Note_on_c, 1, 79, 127
2, 38800, Note_on_c, 1, 44, 127
2, 38800, Note_off_c, 1, 48, 0
2, 38800, Note_off_c, 1, 53, 0
2, 38800, Note_off_c, 1, 57, 0
2, 38800, Note_off_c, 1, 79, 0
2, 38800, Note_on_c, 1, 82, 127
2, 38800, Note_on_c, 1, 86, 127
2, 38800, Note_on_c, 1, 89, 127
2, 38800, Note_on_c, 1, 94, 127
2, 38840, Note_off_c, 1, 44, 0
2, 38840, Note_on_c, 1, 53, 127
2, 38840, Note_on_c, 1, 60, 127
2, 38840, Note_on_c, 1, 63, 127
2, 38840, Note_on_c, 1, 65, 127
2, 38840, Note_off_c, 1, 82, 0
2, 38840, Note_off_c, 1, 86, 0
2, 38840, Note_off_c, 1, 89, 0
2, 38840, Note_off_c, 1, 94, 0
2, 38840, Note_on_c, 1, 96, 127
2, 38880, Note_on_c, 1, 50, 127
2, 38880, Note_on_c, 1, 52, 127
2, 38880, Note_off_c, 1, 53, 0
2, 38880, Note_on_c, 1, 57, 127
2, 38880, Note_off_c, 1, 60, 0
2, 38880, Note_on_c, 1, 62, 127
2, 38880, Note_off_c, 1, 63, 0
2, 38880, Note_on_c, 1, 64, 127
2, 38880, Note_off_c, 1, 65, 0
2, 38880, Note_off_c, 1, 96, 0
2, 38920, Note_off_c, 1, 50, 0
2, 38920, Note_off_c, 1, 52, 0
2, 38920, Note_off_c, 1, 57, 0
2, 38920, Note_off_c, 1, 62, 0
2, 38920, Note_off_c, 1, 64, 0
2, 38920, Note_on_c, 1, 72, 127
2, 39320, Note_on_c, 1, 53, 127
2, 39320, Note_on_c, 1, 57, 127
2, 39320, Note_on_c, 1, 62, 127
2, 39320, Note_on_c, 1, 65, 127
2, 39320, Note_off_c, 1, 72, 0
2, 39320, Note_on_c, 1, 81, 127
2, 39320, Note_on_c, 1, 86, 127
2, 39360, Note_off_c, 1, 53, 0
2, 39360, Note_off_c, 1, 57, 0
2, 39360, Note_off_c, 1, 62, 0
2, 39360, Note_on_c, 1, 63, 127
2, 39360, Note_off_c, 1, 65, 0
2, 39360, Note_on_c, 1, 69, 127
2, 39360, Note_off_c, 1, 81, 0
2, 39360, Note_on_c, 1, 84, 127
2, 39360, Note_off_c, 1, 86, 0
2, 39360, Note_on_c, 1, 93, 127
2, 39400, Note_on_c, 1, 51, 127
2, 39400, Note_off_c, 1, 69, 0
2, 39400, Note_on_c, 1, 76, 127
2, 39400, Note_on_c, 1, 80, 127
2, 39400, Note_on_c, 1, 83, 127
2, 39400, Note_off_c, 1, 84, 0
2, 39400, Note_on_c, 1, 88, 127
2, 39400, Note_off_c, 1, 93, 0
2, 39440, Note_on_c, 1, 36, 127
2, 39440, Note_on_c, 1, 48, 127
2, 39440, Note_off_c, 1, 51, 0
2, 39440, Note_off_c, 1, 63, 0
2, 39440, Note_on_c, 1, 70, 127
2, 39440, Note_off_c, 1, 76, 0
2, 39440, Note_on_c, 1, 77, 127
2, 39440, Note_off_c, 1, 80, 0
2, 39440, Note_on_c, 1, 81, 127
2, 39440, Note_off_c, 1, 83, 0
2, 39440, Note_off_c, 1, 88, 0
2, 39480, Note_off_c, 1, 36, 0
2, 39480, Note_on_c, 1, 43, 127
2, 39480, Note_off_c, 1, 48, 0
2, 39480, Note_on_c, 1, 61, 127
2, 39480, Note_off_c, 1, 77, 0
2, 39480, Note_off_c, 1, 81, 0
2, 39520, Note_off_c, 1, 43, 0
2, 39520, Note_on_c, 1, 54, 127
2, 39520, Note_on_c, 1, 67, 127
2, 39680, Note_on_c, 1, 41, 127
2, 39680, Note_on_c, 1, 50, 127
2, 39680, Note_off_c, 1, 54, 0
2, 39680, Note_off_c, 1, 61, 0
2, 39680, Note_off_c, 1, 67, 0
2, 39680, Note_off_c, 1, 70, 0
2, 39680, Note_on_c, 1, 71, 127
2, 39680, Note_on_c, 1, 83, 127
2, 39720, Note_off_c, 1, 41, 0
2, 39720, Note_off_c, 1, 50, 0
2, 39720, Note_off_c, 1, 71, 0
2, 39720, Note_off_c, 1, 83, 0
2, 39760, Note_on_c, 1, 56, 127
2, 39760, Note_on_c, 1, 60, 127
2, 39760, Note_on_c, 1, 65, 127
2, 39760, Note_on_c, 1, 68, 127
2, 39760, Note_on_c, 1, 84, 127
2, 40120, Note_on_c, 1, 55, 127
2, 40120, Note_off_c, 1, 56, 0
2, 40120, Note_off_c, 1, 60, 0
2, 40120, Note_off_c, 1, 65, 0
2, 40120, Note_off_c, 1, 68, 0
2, 40560, Note_off_c, 1, 55, 0
2, 40560, Note_on_c, 1, 62, 127
2, 40560, Note_on_c, 1, 65, 127
2, 40560, Note_on_c, 1, 68, 127
2, 40560, Note_on_c, 1, 71, 127
2, 40560, Note_on_c, 1, 82, 127
2, 40560, Note_off_c, 1, 84, 0
2, 40600, Note_on_c, 1, 51, 127
2, 40600, Note_on_c, 1, 54, 127
2, 40600, Note_on_c, 1, 58, 127
2, 40600, Note_off_c, 1, 62, 0
2, 40600, Note_off_c, 1, 65, 0
2, 40600, Note_on_c, 1, 66, 127
2, 40600, Note_off_c, 1, 68, 0
2, 40600, Note_on_c, 1, 70, 127
2, 40600, Note_off_c, 1, 71, 0
2, 40600, Note_on_c, 1, 78, 127
2, 40600, Note_off_c, 1, 82, 0
2, 40640, Note_off_c, 1, 54, 0
2, 40640, Note_on_c, 1, 56, 127
2, 40640, Note_off_c, 1, 58, 0
2, 40640, Note_on_c, 1, 60, 127
2, 40640, Note_off_c, 1, 66, 0
2, 40640, Note_off_c, 1, 70, 0
2, 40640, Note_on_c, 1, 74, 127
2, 40640, Note_off_c, 1, 78, 0
2, 40680, Note_on_c, 1, 54, 127
2, 40680, Note_off_c, 1, 56, 0
2, 40680, Note_on_c, 1, 58, 127
2, 40680, Note_off_c, 1, 60, 0
2, 40680, Note_on_c, 1, 66, 127
2, 40680, Note_on_c, 1, 70, 127
2, 40680, Note_off_c, 1, 74, 0
2, 40680, Note_on_c, 1, 78, 127
2, 40720, Note_on_c, 1, 42, 127
2, 40720, Note_off_c, 1, 51, 0
2, 40720, Note_off_c, 1, 54, 0
2, 40720, Note_on_c, 1, 57, 127
2, 40720, Note_off_c, 1, 58, 0
2, 40720, Note_on_c, 1, 62, 127
2, 40720, Note_off_c, 1, 66, 0
2, 40720, Note_on_c, 1, 69, 127
2, 40720, Note_off_c, 1, 78, 0
2, 40760, Note_on_c, 1, 39, 127
2, 40760, Note_off_c, 1, 42, 0
2, 40760, Note_on_c, 1, 53, 127
2, 40760, Note_off_c, 1, 57, 0
2, 40760, Note_off_c, 1, 62, 0
2, 40760, Note_off_c, 1, 69, 0
2, 40760, Note_off_c, 1, 70, 0
2, 40760, Note_on_c, 1, 80, 127
2, 40800, Note_off_c, 1, 39, 0
2, 40800, Note_on_c, 1, 47, 127
2, 40800, Note_on_c, 1, 68, 127
2, 40840, Note_off_c, 1, 47, 0
2, 40840, Note_off_c, 1, 53, 0
2, 40840, Note_on_c, 1, 64, 127
2, 40840, Note_off_c, 1, 68, 0
2, 40840, Note_on_c, 1, 70, 127
2, 40840, Note_on_c, 1, 73, 127
2, 40840, Note_off_c, 1, 80, 0
2, 40840, Note_on_c, 1, 92, 127
2, 40880, Note_on_c, 1, 35, 127
2, 40880, Note_on_c, 1, 47, 127
2, 40880, Note_on_c, 1, 54, 127
2, 40880, Note_on_c, 1, 59, 127
2, 40880, Note_on_c, 1, 63, 127
2, 40880, Note_off_c, 1, 64, 0
2, 40880, Note_off_c, 1, 70, 0
2, 40880, Note_off_c, 1, 73, 0
2, 40880, Note_on_c, 1, 78, 127
2, 40880, Note_off_c, 1, 92, 0
2, 40920, Note_off_c, 1, 35, 0
2, 40920, Note_off_c, 1, 47, 0
2, 40920, Note_on_c, 1, 51, 127
2, 40920, Note_off_c, 1, 54, 0
2, 40920, Note_on_c, 1, 55, 127
2, 40920, Note_on_c, 1, 58, 127
2, 40920, Note_off_c, 1, 59, 0
2, 40920, Note_off_c, 1, 63, 0
2, 40920, Note_off_c, 1, 78, 0
2, 40920, Note_on_c, 1, 79, 127
2, 41960, Note_off_c, 1, 51, 0
2, 41960, Note_off_c, 1, 55, 0
2, 41960, Note_off_c, 1, 58, 0
2, 41960, Note_off_c, 1, 79, 0
2, 42000, Note_on_c, 1, 51, 127
2, 42000, Note_on_c, 1, 55, 127
2, 42000, Note_on_c, 1, 58, 127
2, 42000, Note_on_c, 1, 79, 127
2, 42120, Note_off_c, 1, 51, 0
2, 42120, Note_off_c, 1, 55, 0
2, 42120, Note_off_c, 1, 58, 0
2, 42120, Note_off_c, 1, 79, 0
2, 42160, Note_on_c, 1, 51, 127
2, 42160, Note_on_c, 1, 79, 127
2, 42520, Note_off_c, 1, 51, 0
2, 42560, Note_on_c, 1, 46, 127
2, 42920, Note_off_c, 1, 46, 0
2, 42960, Note_on_c, 1, 50, 127
2, 43680, Note_off_c, 1, 50, 0
2, 43720, Note_on_c, 1, 50, 127
2, 44120, Note_off_c, 1, 50, 0
2, 44120, Note_off_c, 1, 79, 0
2, 44160, Note_on_c, 1, 43, 127
2, 44160, Note_on_c, 1, 52, 127
2, 44160, Note_on_c, 1, 60, 127
2, 44160, Note_on_c, 1, 72, 127
2, 44520, Note_off_c, 1, 52, 0
2, 44520, Note_off_c, 1, 60, 0
2, 44520, Note_off_c, 1, 72, 0
2, 44560, Note_on_c, 1, 52, 127
2, 44560, Note_on_c, 1, 60, 127
2, 44560, Note_on_c, 1, 72, 127
2, 44920, Note_off_c, 1, 52, 0
2, 44920, Note_off_c, 1, 60, 0
2, 44920, Note_off_c, 1, 72, 0
2, 44960, Note_on_c, 1, 52, 127
2, 44960, Note_on_c, 1, 60, 127
2, 44960, Note_on_c, 1, 72, 127
2, 45280, Note_off_c, 1, 52, 0
2, 45280, Note_off_c, 1, 60, 0
2, 45280, Note_off_c, 1, 72, 0
2, 45320, Note_on_c, 1, 52, 127
2, 45320, Note_on_c, 1, 60, 127
2, 45320, Note_on_c, 1, 72, 127
2, 46080, Note_off_c, 1, 52, 0
2, 46080, Note_off_c, 1, 60, 0
2, 46080, Note_off_c, 1, 72, 0
2, 46120, Note_off_c, 1, 43, 0
2, 46120, Note_on_c, 1, 50, 127
2, 46120, Note_on_c, 1, 60, 127
2, 46120, Note_on_c, 1, 66, 127
2, 46120, Note_on_c, 1, 81, 127
2, 46320, Note_off_c, 1, 50, 0
2, 46320, Note_off_c, 1, 60, 0
2, 46320, Note_off_c, 1, 66, 0
2, 46320, Note_off_c, 1, 81, 0
2, 46360, Note_on_c, 1, 50, 127
2, 46360, Note_on_c, 1, 60, 127
2, 46360, Note_on_c, 1, 66, 127
2, 46360, Note_on_c, 1, 81, 127
2, 46400, Note_off_c, 1, 81, 0
2, 46440, Note_on_c, 1, 78, 127
2, 46520, Note_off_c, 1, 78, 0
2, 46560, Note_on_c, 1, 75, 127
2, 46600, Note_off_c, 1, 75, 0
2, 46640, Note_on_c, 1, 75, 127
2, 46720, Note_off_c, 1, 75, 0
2, 46760, Note_on_c, 1, 75, 127
2, 46800, Note_off_c, 1, 75, 0
2, 46840, Note_on_c, 1, 71, 127
2, 46920, Note_off_c, 1, 50, 0
2, 46920, Note_off_c, 1, 60, 0
2, 46920, Note_off_c, 1, 66, 0
2, 46920, Note_off_c, 1, 71, 0
2, 46960, Note_on_c, 1, 50, 127
2, 46960, Note_on_c, 1, 60, 127
2, 46960, Note_on_c, 1, 66, 127
2, 46960, Note_on_c, 1, 71, 127
2, 47000, Note_off_c, 1, 71, 0
2, 47040, Note_on_c, 1, 69, 127
2, 47200, Note_off_c, 1, 69, 0
2, 47240, Note_on_c, 1, 71, 127
2, 47320, Note_off_c, 1, 71, 0
2, 47360, Note_off_c, 1, 50, 0
2, 47360, Note_off_c, 1, 60, 0
2, 47360, Note_off_c, 1, 66, 0
2, 47360, Note_on_c, 1, 67, 127
2, 47360, Note_on_c, 1, 71, 127
2, 47360, Note_on_c, 1, 75, 127
2, 47360, Note_on_c, 1, 79, 127
2, 47400, Note_on_c, 1, 47, 127
2, 47400, Note_on_c, 1, 60, 127
2, 47400, Note_on_c, 1, 66, 127
2, 47400, Note_off_c, 1, 67, 0
2, 47400, Note_on_c, 1, 69, 127
2, 47400, Note_off_c, 1, 71, 0
2, 47400, Note_off_c, 1, 75, 0
2, 47400, Note_off_c, 1, 79, 0
2, 47440, Note_on_c, 1, 43, 127
2, 47440, Note_off_c, 1, 47, 0
2, 47440, Note_off_c, 1, 60, 0
2, 47440, Note_off_c, 1, 66, 0
2, 47440, Note_on_c, 1, 67, 127
2, 47440, Note_off_c, 1, 69, 0
2, 47440, Note_on_c, 1, 71, 127
2, 47440, Note_on_c, 1, 75, 127
2, 47440, Note_on_c, 1, 79, 127
2, 47480, Note_off_c, 1, 43, 0
2, 47480, Note_on_c, 1, 60, 127
2, 47480, Note_on_c, 1, 69, 127
2, 47480, Note_off_c, 1, 71, 0
2, 47480, Note_off_c, 1, 75, 0
2, 47480, Note_on_c, 1, 78, 127
2, 47480, Note_off_c, 1, 79, 0
2, 47520, Note_on_c, 1, 47, 127
2, 47520, Note_off_c, 1, 60, 0
2, 47520, Note_off_c, 1, 69, 0
2, 47520, Note_on_c, 1, 71, 127
2, 47520, Note_on_c, 1, 75, 127
2, 47520, Note_off_c, 1, 78, 0
2, 47520, Note_on_c, 1, 79, 127
2, 47560, Note_off_c, 1, 47, 0
2, 47560, Note_on_c, 1, 50, 127
2, 47560, Note_on_c, 1, 55, 127
2, 47560, Note_on_c, 1, 59, 127
2, 47560, Note_on_c, 1, 62, 127
2, 47560, Note_on_c, 1, 65, 127
2, 47560, Note_off_c, 1, 67, 0
2, 47560, Note_off_c, 1, 71, 0
2, 47560, Note_off_c, 1, 75, 0
2, 47560, Note_off_c, 1, 79, 0
2, 47600, Note_off_c, 1, 50, 0
2, 47600, Note_off_c, 1, 55, 0
2, 47600, Note_off_c, 1, 62, 0
2, 47600, Note_on_c, 1, 63, 127
2, 47600, Note_off_c, 1, 65, 0
2, 47600, Note_on_c, 1, 66, 127
2, 47600, Note_on_c, 1, 77, 127
2, 47640, Note_on_c, 1, 49, 127
2, 47640, Note_on_c, 1, 54, 127
2, 47640, Note_on_c, 1, 58, 127
2, 47640, Note_off_c, 1, 59, 0
2, 47640, Note_off_c, 1, 63, 0
2, 47640, Note_off_c, 1, 66, 0
2, 47640, Note_on_c, 1, 70, 127
2, 47640, Note_off_c, 1, 77, 0
2, 47640, Note_on_c, 1, 78, 127
2, 47640, Note_on_c, 1, 82, 127
2, 47680, Note_on_c, 1, 47, 127
2, 47680, Note_off_c, 1, 49, 0
2, 47680, Note_off_c, 1, 54, 0
2, 47680, Note_on_c, 1, 57, 127
2, 47680, Note_off_c, 1, 58, 0
2, 47680, Note_on_c, 1, 62, 127
2, 47680, Note_on_c, 1, 68, 127
2, 47680, Note_off_c, 1, 70, 0
2, 47680, Note_on_c, 1, 71, 127
2, 47680, Note_off_c, 1, 78, 0
2, 47680, Note_off_c, 1, 82, 0
2, 47720, Note_off_c, 1, 47, 0
2, 47720, Note_on_c, 1, 49, 127
2, 47720, Note_on_c, 1, 55, 127
2, 47720, Note_off_c, 1, 57, 0
2, 47720, Note_on_c, 1, 59, 127
2, 47720, Note_off_c, 1, 62, 0
2, 47720, Note_on_c, 1, 67, 127
2, 47720, Note_off_c, 1, 68, 0
2, 47720, Note_off_c, 1, 71, 0
2, 47760, Note_on_c, 1, 38, 127
2, 47760, Note_off_c, 1, 49, 0
2, 47760, Note_on_c, 1, 66, 127
2, 47760, Note_off_c, 1, 67, 0
2, 47760, Note_on_c, 1, 98, 127
2, 47760, Note_on_c, 1, 102, 127
2, 47800, Note_off_c, 1, 38, 0
2, 47800, Note_off_c, 1, 59, 0
2, 47800, Note_on_c, 1, 61, 127
2, 47800, Note_off_c, 1, 66, 0
2, 47800, Note_on_c, 1, 70, 127
2, 47800, Note_on_c, 1, 79, 127
2, 47800, Note_on_c, 1, 82, 127
2, 47800, Note_off_c, 1, 98, 0
2, 47800, Note_off_c, 1, 102, 0
2, 47840, Note_on_c, 1, 31, 127
2, 47840, Note_on_c, 1, 38, 127
2, 47840, Note_on_c, 1, 50, 127
2, 47840, Note_off_c, 1, 55, 0
2, 47840, Note_off_c, 1, 61, 0
2, 47840, Note_off_c, 1, 70, 0
2, 47840, Note_off_c, 1, 79, 0
2, 47840, Note_off_c, 1, 82, 0
2, 47880, Note_off_c, 1, 31, 0
2, 47880, Note_off_c, 1, 38, 0
2, 47880, Note_off_c, 1, 50, 0
2, 47880, Note_on_c, 1, 52, 127
2, 47880, Note_on_c, 1, 66, 127
2, 47880, Note_on_c, 1, 73, 127
2, 47880, Note_on_c, 1, 82, 127
2, 47880, Note_on_c, 1, 85, 127
2, 47920, Note_off_c, 1, 52, 0
2, 47920, Note_on_c, 1, 59, 127
2, 47920, Note_off_c, 1, 66, 0
2, 47920, Note_on_c, 1, 67, 127
2, 47920, Note_off_c, 1, 73, 0
2, 47920, Note_off_c, 1, 82, 0
2, 47920, Note_off_c, 1, 85, 0
2, 47920, Note_on_c, 1, 90, 127
2, 47960, Note_on_c, 1, 48, 127
2, 47960, Note_on_c, 1, 52, 127
2, 47960, Note_off_c, 1, 59, 0
2, 47960, Note_on_c, 1, 60, 127
2, 47960, Note_off_c, 1, 67, 0
2, 47960, Note_on_c, 1, 69, 127
2, 47960, Note_off_c, 1, 90, 0
2, 48000, Note_off_c, 1, 48, 0
2, 48000, Note_on_c, 1, 55, 127
2, 48000, Note_off_c, 1, 60, 0
2, 48000, Note_on_c, 1, 64, 127
2, 48000, Note_off_c, 1, 69, 0
2, 48040, Note_on_c, 1, 43, 127
2, 48040, Note_off_c, 1, 52, 0
2, 48040, Note_on_c, 1, 53, 127
2, 48040, Note_off_c, 1, 55, 0
2, 48040, Note_on_c, 1, 59, 127
2, 48040, Note_off_c, 1, 64, 0
2, 48080, Note_off_c, 1, 43, 0
2, 48080, Note_off_c, 1, 53, 0
2, 48080, Note_off_c, 1, 59, 0
2, 48120, Note_on_c, 1, 43, 127
2, 48120, Note_on_c, 1, 50, 127
2, 48120, Note_on_c, 1, 67, 127
2, 48240, Note_on_c, 1, 59, 127
2, 48240, Note_off_c, 1, 67, 0
2, 48320, Note_off_c, 1, 59, 0
2, 48320, Note_on_c, 1, 67, 127
2, 48360, Note_off_c, 1, 43, 0
2, 48360, Note_off_c, 1, 50, 0
2, 48360, Note_off_c, 1, 67, 0
2, 48400, Note_on_c, 1, 43, 127
2, 48400, Note_on_c, 1, 50, 127
2, 48400, Note_on_c, 1, 59, 127
2, 48400, Note_on_c, 1, 71, 127
2, 48440, Note_off_c, 1, 59, 0
2, 48480, Note_on_c, 1, 59, 127
2, 48520, Note_off_c, 1, 59, 0
2, 48560, Note_off_c, 1, 50, 0
2, 48560, Note_on_c, 1, 52, 127
2, 48560, Note_on_c, 1, 60, 127
2, 48760, Note_on_c, 1, 67, 127
2, 48760, Note_off_c, 1, 71, 0
2, 48920, Note_off_c, 1, 52, 0
2, 48920, Note_off_c, 1, 60, 0
2, 48920, Note_off_c, 1, 67, 0
2, 48960, Note_on_c, 1, 55, 127
2, 48960, Note_on_c, 1, 71, 127
2, 49120, Note_on_c, 1, 65, 127
2, 49240, Note_on_c, 1, 41, 127
2, 49240, Note_off_c, 1, 43, 0
2, 49240, Note_on_c, 1, 46, 127
2, 49240, Note_on_c, 1, 53, 127
2, 49240, Note_off_c, 1, 55, 0
2, 49240, Note_off_c, 1, 65, 0
2, 49240, Note_off_c, 1, 71, 0
2, 49240, Note_on_c, 1, 87, 127
2, 49280, Note_off_c, 1, 41, 0
2, 49280, Note_off_c, 1, 46, 0
2, 49280, Note_on_c, 1, 52, 127
2, 49280, Note_off_c, 1, 53, 0
2, 49280, Note_on_c, 1, 56, 127
2, 49280, Note_on_c, 1, 59, 127
2, 49280, Note_on_c, 1, 61, 127
2, 49280, Note_on_c, 1, 80, 127
2, 49280, Note_off_c, 1, 87, 0
2, 49320, Note_off_c, 1, 52, 0
2, 49320, Note_off_c, 1, 56, 0
2, 49320, Note_off_c, 1, 59, 0
2, 49320, Note_off_c, 1, 61, 0
2, 49320, Note_off_c, 1, 80, 0
2, 49360, Note_on_c, 1, 31, 127
2, 49360, Note_on_c, 1, 43, 127
2, 49360, Note_on_c, 1, 59, 127
2, 49720, Note_off_c, 1, 59, 0
2, 49760, Note_on_c, 1, 59, 127
2, 50120, Note_off_c, 1, 59, 0
2, 50160, Note_on_c, 1, 62, 127
2, 50320, Note_on_c, 1, 67, 127
2, 50360, Note_off_c, 1, 67, 0
2, 50440, Note_off_c, 1, 31, 0
2, 50440, Note_off_c, 1, 43, 0
2, 50440, Note_off_c, 1, 62, 0
2, 50480, Note_on_c, 1, 31, 127
2, 50480, Note_on_c, 1, 43, 127
2, 50480, Note_on_c, 1, 62, 127
2, 50600, Note_on_c, 1, 59, 127
2, 50760, Note_off_c, 1, 59, 0
2, 50800, Note_off_c, 1, 62, 0
2, 50800, Note_on_c, 1, 72, 127
2, 50800, Note_on_c, 1, 79, 127
2, 50960, Note_off_c, 1, 72, 0
2, 50960, Note_off_c, 1, 79, 0
2, 51000, Note_off_c, 1, 31, 0
2, 51000, Note_on_c, 1, 36, 127
2, 51000, Note_off_c, 1, 43, 0
2, 51000, Note_on_c, 1, 48, 127
2, 51000, Note_on_c, 1, 63, 127
2, 51000, Note_on_c, 1, 72, 127
2, 51360, Note_off_c, 1, 36, 0
2, 51360, Note_off_c, 1, 48, 0
2, 51360, Note_on_c, 1, 60, 127
2, 51360, Note_off_c, 1, 63, 0
2, 51400, Note_on_c, 1, 36, 127
2, 51400, Note_on_c, 1, 48, 127
2, 51400, Note_off_c, 1, 60, 0
2, 51400, Note_on_c, 1, 63, 127
2, 51760, Note_off_c, 1, 63, 0
2, 51800, Note_on_c, 1, 58, 127
2, 51800, Note_on_c, 1, 70, 127
2, 51800, Note_off_c, 1, 72, 0
2, 52160, Note_off_c, 1, 36, 0
2, 52160, Note_off_c, 1, 48, 0
2, 52160, Note_off_c, 1, 58, 0
2, 52160, Note_off_c, 1, 70, 0
2, 52200, Note_on_c, 1, 32, 127
2, 52200, Note_on_c, 1, 44, 127
2, 52200, Note_on_c, 1, 76, 127
2, 52360, Note_off_c, 1, 32, 0
2, 52360, Note_off_c, 1, 44, 0
2, 52360, Note_off_c, 1, 76, 0
2, 52400, Note_on_c, 1, 32, 127
2, 52400, Note_on_c, 1, 44, 127
2, 52400, Note_on_c, 1, 76, 127
2, 52640, Note_on_c, 1, 68, 127
2, 52960, Note_off_c, 1, 68, 0
2, 53000, Note_on_c, 1, 68, 127
2, 53360, Note_off_c, 1, 68, 0
2, 53400, Note_on_c, 1, 71, 127
2, 53760, Note_off_c, 1, 71, 0
2, 53760, Note_off_c, 1, 76, 0
2, 53800, Note_off_c, 1, 32, 0
2, 53800, Note_on_c, 1, 36, 127
2, 53800, Note_off_c, 1, 44, 0
2, 53800, Note_on_c, 1, 52, 127
2, 53800, Note_on_c, 1, 67, 127
2, 54040, Note_off_c, 1, 67, 0
2, 54040, Note_on_c, 1, 69, 127
2, 54160, Note_off_c, 1, 36, 0
2, 54160, Note_off_c, 1, 52, 0
2, 54160, Note_off_c, 1, 69, 0
2, 54240, Note_on_c, 1, 41, 127
2, 54240, Note_on_c, 1, 48, 127
2, 54240, Note_on_c, 1, 53, 127
2, 54240, Note_on_c, 1, 72, 127
2, 55000, Note_off_c, 1, 72, 0
2, 55040, Note_on_c, 1, 36, 127
2, 55040, Note_off_c, 1, 41, 0
2, 55040, Note_on_c, 1, 46, 127
2, 55040, Note_off_c, 1, 48, 0
2, 55040, Note_off_c, 1, 53, 0
2, 55040, Note_on_c, 1, 87, 127
2, 55080, Note_off_c, 1, 36, 0
2, 55080, Note_off_c, 1, 46, 0
2, 55080, Note_on_c, 1, 69, 127
2, 55080, Note_on_c, 1, 81, 127
2, 55080, Note_on_c, 1, 84, 127
2, 55080, Note_off_c, 1, 87, 0
2, 55080, Note_on_c, 1, 89, 127
2, 55080, Note_on_c, 1, 93, 127
2, 55120, Note_on_c, 1, 53, 127
2, 55120, Note_on_c, 1, 59, 127
2, 55120, Note_on_c, 1, 68, 127
2, 55120, Note_off_c, 1, 69, 0
2, 55120, Note_on_c, 1, 75, 127
2, 55120, Note_on_c, 1, 80, 127
2, 55120, Note_off_c, 1, 81, 0
2, 55120, Note_off_c, 1, 84, 0
2, 55120, Note_off_c, 1, 89, 0
2, 55120, Note_off_c, 1, 93, 0
2, 55160, Note_on_c, 1, 51, 127
2, 55160, Note_off_c, 1, 53, 0
2, 55160, Note_off_c, 1, 59, 0
2, 55160, Note_off_c, 1, 68, 0
2, 55160, Note_on_c, 1, 73, 127
2, 55160, Note_off_c, 1, 75, 0
2, 55160, Note_on_c, 1, 76, 127
2, 55160, Note_off_c, 1, 80, 0
2, 55160, Note_on_c, 1, 85, 127
2, 55200, Note_on_c, 1, 45, 127
2, 55200, Note_off_c, 1, 51, 0
2, 55200, Note_on_c, 1, 61, 127
2, 55200, Note_on_c, 1, 66, 127
2, 55200, Note_on_c, 1, 69, 127
2, 55200, Note_off_c, 1, 73, 0
2, 55200, Note_off_c, 1, 76, 0
2, 55200, Note_on_c, 1, 78, 127
2, 55200, Note_off_c, 1, 85, 0
2, 55240, Note_off_c, 1, 45, 0
2, 55240, Note_on_c, 1, 60, 127
2, 55240, Note_off_c, 1, 61, 0
2, 55240, Note_on_c, 1, 63, 127
2, 55240, Note_off_c, 1, 66, 0
2, 55240, Note_on_c, 1, 68, 127
2, 55240, Note_off_c, 1, 69, 0
2, 55240, Note_on_c, 1, 72, 127
2, 55240, Note_off_c, 1, 78, 0
2, 55240, Note_on_c, 1, 80, 127
2, 55240, Note_on_c, 1, 84, 127
2, 55280, Note_on_c, 1, 59, 127
2, 55280, Note_off_c, 1, 60, 0
2, 55280, Note_on_c, 1, 62, 127
2, 55280, Note_off_c, 1, 63, 0
2, 55280, Note_off_c, 1, 72, 0
2, 55280, Note_on_c, 1, 74, 127
2, 55280, Note_off_c, 1, 80, 0
2, 55280, Note_off_c, 1, 84, 0
2, 55280, Note_on_c, 1, 86, 127
2, 55320, Note_off_c, 1, 59, 0
2, 55320, Note_on_c, 1, 60, 127
2, 55320, Note_off_c, 1, 62, 0
2, 55320, Note_on_c, 1, 66, 127
2, 55320, Note_off_c, 1, 74, 0
2, 55320, Note_off_c, 1, 86, 0
2, 55320, Note_on_c, 1, 92, 127
2, 55320, Note_on_c, 1, 104, 127
2, 55360, Note_on_c, 1, 56, 127
2, 55360, Note_on_c, 1, 58, 127
2, 55360, Note_off_c, 1, 60, 0
2, 55360, Note_on_c, 1, 61, 127
2, 55360, Note_on_c, 1, 64, 127
2, 55360, Note_off_c, 1, 66, 0
2, 55360, Note_off_c, 1, 92, 0
2, 55360, Note_off_c, 1, 104, 0
2, 55400, Note_on_c, 1, 46, 127
2, 55400, Note_off_c, 1, 56, 0
2, 55400, Note_off_c, 1, 58, 0
2, 55400, Note_off_c, 1, 61, 0
2, 55400, Note_off_c, 1, 64, 0
2, 55400, Note_off_c, 1, 68, 0
2, 55400, Note_on_c, 1, 69, 127
2, 55440, Note_on_c, 1, 62, 127
2, 55440, Note_off_c, 1, 69, 0
2, 55440, Note_on_c, 1, 70, 127
2, 55440, Note_on_c, 1, 82, 127
2, 55600, Note_off_c, 1, 46, 0
2, 55600, Note_off_c, 1, 62, 0
2, 55600, Note_on_c, 1, 66, 127
2, 55600, Note_on_c, 1, 67, 127
2, 55600, Note_on_c, 1, 69, 127
2, 55600, Note_off_c, 1, 70, 0
2, 55600, Note_on_c, 1, 73, 127
2, 55600, Note_off_c, 1, 82, 0
2, 55640, Note_off_c, 1, 67, 0
2, 55640, Note_off_c, 1, 69, 0
2, 55640, Note_on_c, 1, 72, 127
2, 55640, Note_off_c, 1, 73, 0
2, 55640, Note_on_c, 1, 82, 127
2, 55680, Note_on_c, 1, 62, 127
2, 55680, Note_off_c, 1, 66, 0
2, 55680, Note_off_c, 1, 72, 0
2, 55680, Note_off_c, 1, 82, 0
2, 55680, Note_on_c, 1, 86, 127
2, 55680, Note_on_c, 1, 89, 127
2, 55680, Note_on_c, 1, 93, 127
2, 55680, Note_on_c, 1, 98, 127
2, 55720, Note_on_c, 1, 45, 127
2, 55720, Note_on_c, 1, 49, 127
2, 55720, Note_off_c, 1, 62, 0
2, 55720, Note_on_c, 1, 67, 127
2, 55720, Note_on_c, 1, 79, 127
2, 55720, Note_off_c, 1, 86, 0
2, 55720, Note_off_c, 1, 89, 0
2, 55720, Note_off_c, 1, 93, 0
2, 55720, Note_off_c, 1, 98, 0
2, 55760, Note_on_c, 1, 36, 127
2, 55760, Note_off_c, 1, 45, 0
2, 55760, Note_on_c, 1, 48, 127
2, 55760, Note_off_c, 1, 49, 0
2, 55760, Note_off_c, 1, 67, 0
2, 55760, Note_on_c, 1, 70, 127
2, 55760, Note_on_c, 1, 73, 127
2, 55760, Note_off_c, 1, 79, 0
2, 55800, Note_off_c, 1, 36, 0
2, 55800, Note_off_c, 1, 48, 0
2, 55800, Note_off_c, 1, 70, 0
2, 55800, Note_off_c, 1, 73, 0
2, 55840, Note_on_c, 1, 41, 127
2, 55840, Note_on_c, 1, 68, 127
2, 55840, Note_on_c, 1, 74, 127
2, 55840, Note_on_c, 1, 77, 127
2, 56120, Note_off_c, 1, 41, 0
2, 56120, Note_off_c, 1, 68, 0
2, 56120, Note_off_c, 1, 74, 0
2, 56120, Note_off_c, 1, 77, 0
2, 56160, Note_on_c, 1, 41, 127
2, 56160, Note_on_c, 1, 68, 127
2, 56160, Note_on_c, 1, 74, 127
2, 56160, Note_on_c, 1, 77, 127
2, 56240, Note_off_c, 1, 41, 0
2, 56280, Note_on_c, 1, 49, 127
2, 56280, Note_on_c, 1, 52, 127
2, 56280, Note_on_c, 1, 55, 127
2, 56280, Note_on_c, 1, 58, 127
2, 56280, Note_off_c, 1, 68, 0
2, 56280, Note_off_c, 1, 74, 0
2, 56280, Note_off_c, 1, 77, 0
2, 56280, Note_on_c, 1, 84, 127
2, 56640, Note_off_c, 1, 49, 0
2, 56640, Note_off_c, 1, 52, 0
2, 56640, Note_off_c, 1, 55, 0
2, 56640, Note_off_c, 1, 58, 0
2, 56640, Note_off_c, 1, 84, 0
2, 56680, Note_on_c, 1, 43, 127
2, 56680, Note_on_c, 1, 62, 127
2, 56680, Note_on_c, 1, 67, 127
2, 56680, Note_on_c, 1, 71, 127
2, 57440, Note_off_c, 1, 43, 0
2, 57440, Note_off_c, 1, 62, 0
2, 57440, Note_off_c, 1, 67, 0
2, 57440, Note_off_c, 1, 71, 0
2, 57480, Note_on_c, 1, 55, 127
2, 57480, Note_on_c, 1, 60, 127
2, 57480, Note_on_c, 1, 62, 127
2, 57480, Note_on_c, 1, 66, 127
2, 57480, Note_on_c, 1, 69, 127
2, 58160, Note_off_c, 1, 55, 0
2, 58160, Note_off_c, 1, 60, 0
2, 58160, Note_off_c, 1, 62, 0
2, 58160, Note_off_c, 1, 66, 0
2, 58160, Note_off_c, 1, 69, 0
2, 58200, Note_on_c, 1, 55, 127
2, 58200, Note_on_c, 1, 60, 127
2, 58200, Note_on_c, 1, 62, 127
2, 58200, Note_on_c, 1, 66, 127
2, 58200, Note_on_c, 1, 69, 127
2, 58680, Note_off_c, 1, 60, 0
2, 58680, Note_off_c, 1, 66, 0
2, 58680, Note_off_c, 1, 69, 0
2, 58720, Note_on_c, 1, 59, 127
2, 58720, Note_on_c, 1, 67, 127
2, 59080, Note_off_c, 1, 55, 0
2, 59080, Note_off_c, 1, 59, 0
2, 59080, Note_off_c, 1, 62, 0
2, 59080, Note_off_c, 1, 67, 0
2, 59120, Note_on_c, 1, 34, 127
2, 59120, Note_on_c, 1, 46, 127
2, 59120, Note_on_c, 1, 58, 127
2, 59120, Note_on_c, 1, 61, 127
2, 59120, Note_on_c, 1, 67, 127
2, 59480, Note_off_c, 1, 34, 0
2, 59480, Note_on_c, 1, 44, 127
2, 59480, Note_off_c, 1, 46, 0
2, 59480, Note_off_c, 1, 58, 0
2, 59480, Note_on_c, 1, 60, 127
2, 59480, Note_off_c, 1, 61, 0
2, 59480, Note_on_c, 1, 63, 127
2, 59480, Note_off_c, 1, 67, 0
2, 59480, Note_on_c, 1, 70, 127
2, 59520, Note_on_c, 1, 37, 127
2, 59520, Note_off_c, 1, 44, 0
2, 59520, Note_on_c, 1, 53, 127
2, 59520, Note_on_c, 1, 58, 127
2, 59520, Note_off_c, 1, 60, 0
2, 59520, Note_off_c, 1, 63, 0
2, 59520, Note_on_c, 1, 66, 127
2, 59520, Note_off_c, 1, 70, 0
2, 59720, Note_off_c, 1, 37, 0
2, 59720, Note_off_c, 1, 53, 0
2, 59720, Note_off_c, 1, 58, 0
2, 59720, Note_off_c, 1, 66, 0
2, 59720, Note_on_c, 1, 72, 127
2, 59720, Note_on_c, 1, 81, 127
2, 59720, Note_on_c, 1, 84, 127
2, 59720, Note_on_c, 1, 91, 127
2, 59760, Note_on_c, 1, 52, 127
2, 59760, Note_on_c, 1, 57, 127
2, 59760, Note_on_c, 1, 61, 127
2, 59760, Note_on_c, 1, 64, 127
2, 59760, Note_off_c, 1, 72, 0
2, 59760, Note_on_c, 1, 76, 127
2, 59760, Note_off_c, 1, 81, 0
2, 59760, Note_off_c, 1, 84, 0
2, 59760, Note_on_c, 1, 88, 127
2, 59760, Note_off_c, 1, 91, 0
2, 59800, Note_off_c, 1, 52, 0
2, 59800, Note_off_c, 1, 57, 0
2, 59800, Note_off_c, 1, 64, 0
2, 59800, Note_on_c, 1, 69, 127
2, 59800, Note_off_c, 1, 76, 0
2, 59800, Note_on_c, 1, 86, 127
2, 59800, Note_off_c, 1, 88, 0
2, 59840, Note_on_c, 1, 41, 127
2, 59840, Note_off_c, 1, 61, 0
2, 59840, Note_off_c, 1, 69, 0
2, 59840, Note_on_c, 1, 78, 127
2, 59840, Note_on_c, 1, 82, 127
2, 59840, Note_off_c, 1, 86, 0
2, 59880, Note_off_c, 1, 41, 0
2, 59880, Note_off_c, 1, 78, 0
2, 59880, Note_off_c, 1, 82, 0
2, 59920, Note_on_c, 1, 53, 127
2, 59920, Note_on_c, 1, 60, 127
2, 59920, Note_on_c, 1, 72, 127
2, 59920, Note_on_c, 1, 76, 127
2, 60200, Note_off_c, 1, 72, 0
2, 60200, Note_off_c, 1, 76, 0
2, 60200, Note_on_c, 1, 77, 127
2, 60240, Note_off_c, 1, 53, 0
2, 60240, Note_off_c, 1, 60, 0
2, 60240, Note_off_c, 1, 77, 0
2, 60280, Note_on_c, 1, 53, 127
2, 60280, Note_on_c, 1, 60, 127
2, 60280, Note_on_c, 1, 72, 127
2, 60280, Note_on_c, 1, 76, 127
2, 60320, Note_off_c, 1, 72, 0
2, 60320, Note_off_c, 1, 76, 0
2, 60360, Note_on_c, 1, 72, 127
2, 60360, Note_on_c, 1, 76, 127
2, 60640, Note_on_c, 1, 69, 127
2, 60640, Note_off_c, 1, 72, 0
2, 60680, Note_off_c, 1, 69, 0
2, 60680, Note_on_c, 1, 72, 127
2, 60720, Note_off_c, 1, 72, 0
2, 60720, Note_off_c, 1, 76, 0
2, 60760, Note_on_c, 1, 46, 127
2, 60760, Note_off_c, 1, 53, 0
2, 60760, Note_off_c, 1, 60, 0
2, 60760, Note_on_c, 1, 63, 127
2, 60760, Note_on_c, 1, 72, 127
2, 61120, Note_off_c, 1, 46, 0
2, 61120, Note_off_c, 1, 63, 0
2, 61120, Note_off_c, 1, 72, 0
2, 61160, Note_on_c, 1, 48, 127
2, 61160, Note_on_c, 1, 62, 127
2, 61160, Note_on_c, 1, 66, 127
2, 61160, Note_on_c, 1, 69, 127
2, 61520, Note_off_c, 1, 48, 0
2, 61560, Note_on_c, 1, 48, 127
2, 61920, Note_off_c, 1, 48, 0
2, 61920, Note_off_c, 1, 62, 0
2, 61960, Note_on_c, 1, 50, 127
2, 61960, Note_on_c, 1, 62, 127
2, 62320, Note_off_c, 1, 50, 0
2, 62320, Note_off_c, 1, 62, 0
2, 62320, Note_off_c, 1, 66, 0
2, 62320, Note_off_c, 1, 69, 0
2, 62400, Note_on_c, 1, 43, 127
2, 62400, Note_on_c, 1, 62, 127
2, 62400, Note_on_c, 1, 67, 127
2, 62400, Note_on_c, 1, 70, 127
2, 62760, Note_off_c, 1, 43, 0
2, 62800, Note_on_c, 1, 43, 127
2, 63080, Note_on_c, 1, 42, 127
2, 63080, Note_off_c, 1, 43, 0
2, 63120, Note_off_c, 1, 42, 0
2, 63120, Note_on_c, 1, 43, 127
2, 63160, Note_off_c, 1, 43, 0
2, 63200, Note_on_c, 1, 33, 127
2, 63200, Note_off_c, 1, 62, 0
2, 63200, Note_off_c, 1, 67, 0
2, 63200, Note_off_c, 1, 70, 0
2, 63200, Note_on_c, 1, 87, 127
2, 63200, Note_on_c, 1, 90, 127
2, 63240, Note_off_c, 1, 33, 0
2, 63240, Note_on_c, 1, 75, 127
2, 63240, Note_on_c, 1, 79, 127
2, 63240, Note_on_c, 1, 84, 127
2, 63240, Note_off_c, 1, 90, 0
2, 63240, Note_on_c, 1, 95, 127
2, 63280, Note_on_c, 1, 60, 127
2, 63280, Note_on_c, 1, 63, 127
2, 63280, Note_on_c, 1, 72, 127
2, 63280, Note_off_c, 1, 79, 0
2, 63280, Note_on_c, 1, 80, 127
2, 63280, Note_off_c, 1, 84, 0
2, 63280, Note_off_c, 1, 87, 0
2, 63280, Note_off_c, 1, 95, 0
2, 63320, Note_on_c, 1, 49, 127
2, 63320, Note_on_c, 1, 54, 127
2, 63320, Note_on_c, 1, 58, 127
2, 63320, Note_off_c, 1, 60, 0
2, 63320, Note_on_c, 1, 61, 127
2, 63320, Note_off_c, 1, 63, 0
2, 63320, Note_off_c, 1, 72, 0
2, 63320, Note_off_c, 1, 75, 0
2, 63320, Note_on_c, 1, 78, 127
2, 63320, Note_off_c, 1, 80, 0
2, 63320, Note_on_c, 1, 82, 127
2, 63360, Note_off_c, 1, 49, 0
2, 63360, Note_off_c, 1, 54, 0
2, 63360, Note_off_c, 1, 58, 0
2, 63360, Note_off_c, 1, 61, 0
2, 63360, Note_on_c, 1, 69, 127
2, 63360, Note_on_c, 1, 75, 127
2, 63360, Note_off_c, 1, 78, 0
2, 63360, Note_off_c, 1, 82, 0
2, 63360, Note_on_c, 1, 84, 127
2, 63360, Note_on_c, 1, 90, 127
2, 63400, Note_on_c, 1, 67, 127
2, 63400, Note_off_c, 1, 69, 0
2, 63400, Note_off_c, 1, 75, 0
2, 63400, Note_on_c, 1, 79, 127
2, 63400, Note_on_c, 1, 87, 127
2, 63400, Note_off_c, 1, 90, 0
2, 63400, Note_on_c, 1, 91, 127
2, 63440, Note_on_c, 1, 55, 127
2, 63440, Note_on_c, 1, 60, 127
2, 63440, Note_on_c, 1, 62, 127
2, 63440, Note_off_c, 1, 67, 0
2, 63440, Note_off_c, 1, 79, 0
2, 63440, Note_on_c, 1, 82, 127
2, 63440, Note_off_c, 1, 84, 0
2, 63440, Note_off_c, 1, 87, 0
2, 63440, Note_off_c, 1, 91, 0
2, 63480, Note_on_c, 1, 46, 127
2, 63480, Note_off_c, 1, 55, 0
2, 63480, Note_off_c, 1, 60, 0
2, 63480, Note_off_c, 1, 62, 0
2, 63480, Note_on_c, 1, 72, 127
2, 63480, Note_on_c, 1, 80, 127
2, 63480, Note_off_c, 1, 82, 0
2, 63520, Note_off_c, 1, 46, 0
2, 63520, Note_on_c, 1, 68, 127
2, 63520, Note_on_c, 1, 87, 127
2, 63560, Note_off_c, 1, 68, 0
2, 63560, Note_off_c, 1, 72, 0
2, 63560, Note_off_c, 1, 80, 0
2, 63560, Note_off_c, 1, 87, 0
2, 63600, Note_on_c, 1, 50, 127
2, 63600, Note_on_c, 1, 62, 127
2, 63600, Note_on_c, 1, 72, 127
2, 63600, Note_on_c, 1, 77, 127
2, 63600, Note_on_c, 1, 81, 127
2, 63600, Note_on_c, 1, 84, 127
2, 63640, Note_on_c, 1, 27, 127
2, 63640, Note_off_c, 1, 50, 0
2, 63640, Note_on_c, 1, 51, 127
2, 63640, Note_on_c, 1, 55, 127
2, 63640, Note_on_c, 1, 58, 127
2, 63640, Note_off_c, 1, 62, 0
2, 63640, Note_off_c, 1, 72, 0
2, 63640, Note_off_c, 1, 77, 0
2, 63640, Note_off_c, 1, 81, 0
2, 63640, Note_off_c, 1, 84, 0
2, 63680, Note_off_c, 1, 27, 0
2, 63680, Note_off_c, 1, 51, 0
2, 63680, Note_on_c, 1, 57, 127
2, 63680, Note_off_c, 1, 58, 0
2, 63680, Note_on_c, 1, 64, 127
2, 63680, Note_on_c, 1, 83, 127
2, 63720, Note_on_c, 1, 43, 127
2, 63720, Note_on_c, 1, 46, 127
2, 63720, Note_on_c, 1, 54, 127
2, 63720, Note_off_c, 1, 55, 0
2, 63720, Note_off_c, 1, 57, 0
2, 63720, Note_off_c, 1, 64, 0
2, 63720, Note_on_c, 1, 66, 127
2, 63720, Note_off_c, 1, 83, 0
2, 63760, Note_on_c, 1, 38, 127
2, 63760, Note_off_c, 1, 43, 0
2, 63760, Note_off_c, 1, 46, 0
2, 63760, Note_off_c, 1, 54, 0
2, 63760, Note_off_c, 1, 66, 0
2, 63760, Note_on_c, 1, 67, 127
2, 63760, Note_on_c, 1, 93, 127
2, 63800, Note_off_c, 1, 38, 0
2, 63800, Note_on_c, 1, 66, 127
2, 63800, Note_off_c, 1, 67, 0
2, 63800, Note_on_c, 1, 71, 127
2, 63800, Note_on_c, 1, 74, 127
2, 63800, Note_on_c, 1, 76, 127
2, 63800, Note_off_c, 1, 93, 0
2, 63840, Note_on_c, 1, 42, 127
2, 63840, Note_on_c, 1, 49, 127
2, 63840, Note_off_c, 1, 66, 0
2, 63840, Note_off_c, 1, 71, 0
2, 63840, Note_off_c, 1, 74, 0
2, 63840, Note_off_c, 1, 76, 0
2, 63840, Note_on_c, 1, 94, 127
2, 63840, Note_on_c, 1, 106, 127
2, 63880, Note_on_c, 1, 33, 127
2, 63880, Note_off_c, 1, 42, 0
2, 63880, Note_on_c, 1, 45, 127
2, 63880, Note_off_c, 1, 49, 0
2, 63880, Note_on_c, 1, 71, 127
2, 63880, Note_on_c, 1, 76, 127
2, 63880, Note_on_c, 1, 83, 127
2, 63880, Note_off_c, 1, 94, 0
2, 63880, Note_off_c, 1, 106, 0
2, 63920, Note_off_c, 1, 33, 0
2, 63920, Note_off_c, 1, 45, 0
2, 63920, Note_on_c, 1, 69, 127
2, 63920, Note_off_c, 1, 71, 0
2, 63920, Note_on_c, 1, 72, 127
2, 63920, Note_off_c, 1, 76, 0
2, 63920, Note_on_c, 1, 77, 127
2, 63920, Note_on_c, 1, 81, 127
2, 63920, Note_off_c, 1, 83, 0
2, 63920, Note_on_c, 1, 84, 127
2, 63920, Note_on_c, 1, 89, 127
2, 63920, Note_on_c, 1, 96, 127
2, 63960, Note_on_c, 1, 44, 127
2, 63960, Note_on_c, 1, 47, 127
2, 63960, Note_off_c, 1, 69, 0
2, 63960, Note_off_c, 1, 72, 0
2, 63960, Note_on_c, 1, 74, 127
2, 63960, Note_off_c, 1, 77, 0
2, 63960, Note_off_c, 1, 81, 0
2, 63960, Note_off_c, 1, 84, 0
2, 63960, Note_off_c, 1, 89, 0
2, 63960, Note_off_c, 1, 96, 0
2, 64000, Note_on_c, 1, 43, 127
2, 64000, Note_off_c, 1, 44, 0
2, 64000, Note_on_c, 1, 46, 127
2, 64000, Note_off_c, 1, 47, 0
2, 64000, Note_on_c, 1, 51, 127
2, 64000, Note_off_c, 1, 74, 0
2, 64000, Note_on_c, 1, 78, 127
2, 64360, Note_off_c, 1, 43, 0
2, 64360, Note_off_c, 1, 46, 0
2, 64360, Note_off_c, 1, 51, 0
2, 64360, Note_on_c, 1, 62, 127
2, 64360, Note_on_c, 1, 64, 127
2, 64360, Note_on_c, 1, 73, 127
2, 64360, Note_off_c, 1, 78, 0
2, 64400, Note_on_c, 1, 59, 127
2, 64400, Note_off_c, 1, 62, 0
2, 64400, Note_off_c, 1, 64, 0
2, 64400, Note_on_c, 1, 70, 127
2, 64400, Note_on_c, 1, 78, 127
2, 64520, Note_off_c, 1, 59, 0
2, 64520, Note_off_c, 1, 70, 0
2, 64520, Note_off_c, 1, 73, 0
2, 64520, Note_off_c, 1, 78, 0
2, 64560, Note_on_c, 1, 59, 127
2, 64560, Note_on_c, 1, 70, 127
2, 64560, Note_on_c, 1, 73, 127
2, 64560, Note_on_c, 1, 78, 127
2, 64800, Note_off_c, 1, 59, 0
2, 64800, Note_off_c, 1, 70, 0
2, 64800, Note_off_c, 1, 73, 0
2, 64800, Note_off_c, 1, 78, 0
2, 64840, Note_on_c, 1, 50, 127
2, 64840, Note_on_c, 1, 62, 127
2, 64840, Note_on_c, 1, 76, 127
2, 64840, Note_on_c, 1, 83, 127
2, 65600, Note_off_c, 1, 50, 0
2, 65600, Note_off_c, 1, 62, 0
2, 65600, Note_off_c, 1, 76, 0
2, 65600, Note_off_c, 1, 83, 0
2, 65640, Note_on_c, 1, 48, 127
2, 65640, Note_on_c, 1, 55, 127
2, 65640, Note_on_c, 1, 62, 127
2, 65640, Note_on_c, 1, 65, 127
2, 66000, Note_off_c, 1, 62, 0
2, 66000, Note_off_c, 1, 65, 0
2, 66040, Note_off_c, 1, 48, 0
2, 66040, Note_on_c, 1, 62, 127
2, 66040, Note_on_c, 1, 71, 127
2, 66040, Note_on_c, 1, 74, 127
2, 66040, Note_on_c, 1, 79, 127
2, 66400, Note_off_c, 1, 62, 0
2, 66400, Note_off_c, 1, 71, 0
2, 66400, Note_off_c, 1, 74, 0
2, 66400, Note_off_c, 1, 79, 0
2, 66440, Note_on_c, 1, 50, 127
2, 66440, Note_off_c, 1, 55, 0
2, 66440, Note_on_c, 1, 62, 127
2, 66440, Note_on_c, 1, 82, 127
2, 66440, Note_on_c, 1, 89, 127
2, 66440, Note_on_c, 1, 94, 127
2, 66480, Note_on_c, 1, 29, 127
2, 66480, Note_on_c, 1, 41, 127
2, 66480, Note_off_c, 1, 50, 0
2, 66480, Note_off_c, 1, 62, 0
2, 66480, Note_on_c, 1, 68, 127
2, 66480, Note_on_c, 1, 72, 127
2, 66480, Note_on_c, 1, 80, 127
2, 66480, Note_off_c, 1, 82, 0
2, 66480, Note_off_c, 1, 89, 0
2, 66480, Note_off_c, 1, 94, 0
2, 66520, Note_off_c, 1, 29, 0
2, 66520, Note_off_c, 1, 41, 0
2, 66520, Note_off_c, 1, 68, 0
2, 66520, Note_off_c, 1, 72, 0
2, 66520, Note_off_c, 1, 80, 0
2, 66560, Note_on_c, 1, 56, 127
2, 66560, Note_on_c, 1, 63, 127
2, 66560, Note_on_c, 1, 64, 127
2, 66560, Note_on_c, 1, 65, 127
2, 66600, Note_on_c, 1, 46, 127
2, 66600, Note_on_c, 1, 53, 127
2, 66600, Note_off_c, 1, 56, 0
2, 66600, Note_on_c, 1, 60, 127
2, 66600, Note_on_c, 1, 62, 127
2, 66600, Note_off_c, 1, 63, 0
2, 66600, Note_off_c, 1, 64, 0
2, 66600, Note_on_c, 1, 72, 127
2, 66640, Note_on_c, 1, 29, 127
2, 66640, Note_on_c, 1, 36, 127
2, 66640, Note_off_c, 1, 46, 0
2, 66640, Note_on_c, 1, 51, 127
2, 66640, Note_off_c, 1, 53, 0
2, 66640, Note_on_c, 1, 57, 127
2, 66640, Note_off_c, 1, 60, 0
2, 66640, Note_off_c, 1, 62, 0
2, 66640, Note_off_c, 1, 65, 0
2, 66640, Note_off_c, 1, 72, 0
2, 66680, Note_off_c, 1, 29, 0
2, 66680, Note_off_c, 1, 36, 0
2, 66680, Note_on_c, 1, 46, 127
2, 66680, Note_on_c, 1, 55, 127
2, 66680, Note_off_c, 1, 57, 0
2, 66680, Note_on_c, 1, 58, 127
2, 66680, Note_on_c, 1, 82, 127
2, 66680, Note_on_c, 1, 87, 127
2, 66680, Note_on_c, 1, 91, 127
2, 66680, Note_on_c, 1, 94, 127
2, 66720, Note_on_c, 1, 44, 127
2, 66720, Note_off_c, 1, 46, 0
2, 66720, Note_on_c, 1, 48, 127
2, 66720, Note_off_c, 1, 51, 0
2, 66720, Note_off_c, 1, 55, 0
2, 66720, Note_on_c, 1, 56, 127
2, 66720, Note_off_c, 1, 58, 0
2, 66720, Note_off_c, 1, 82, 0
2, 66720, Note_on_c, 1, 84, 127
2, 66720, Note_off_c, 1, 87, 0
2, 66720, Note_off_c, 1, 91, 0
2, 66720, Note_off_c, 1, 94, 0
2, 66720, Note_on_c, 1, 96, 127
2, 66760, Note_off_c, 1, 44, 0
2, 66760, Note_off_c, 1, 48, 0
2, 66760, Note_off_c, 1, 56, 0
2, 66760, Note_on_c, 1, 59, 127
2, 66760, Note_on_c, 1, 83, 127
2, 66760, Note_on_c, 1, 88, 127
2, 66760, Note_off_c, 1, 96, 0
2, 66800, Note_on_c, 1, 58, 127
2, 66800, Note_off_c, 1, 59, 0
2, 66800, Note_on_c, 1, 70, 127
2, 66800, Note_on_c, 1, 75, 127
2, 66800, Note_on_c, 1, 79, 127
2, 66800, Note_on_c, 1, 82, 127
2, 66800, Note_off_c, 1, 83, 0
2, 66800, Note_off_c, 1, 84, 0
2, 66800, Note_off_c, 1, 88, 0
2, 66840, Note_off_c, 1, 58, 0
2, 66840, Note_off_c, 1, 70, 0
2, 66840, Note_off_c, 1, 75, 0
2, 66840, Note_off_c, 1, 79, 0
2, 66840, Note_off_c, 1, 82, 0
2, 66880, Note_on_c, 1, 35, 127
2, 66880, Note_on_c, 1, 43, 127
2, 66880, Note_on_c, 1, 47, 127
2, 66880, Note_on_c, 1, 65, 127
2, 67240, Note_off_c, 1, 35, 0
2, 67240, Note_off_c, 1, 43, 0
2, 67240, Note_off_c, 1, 47, 0
2, 67240, Note_off_c, 1, 65, 0
2, 67280, Note_on_c, 1, 35, 127
2, 67280, Note_on_c, 1, 43, 127
2, 67280, Note_on_c, 1, 47, 127
2, 67280, Note_on_c, 1, 65, 127
2, 67640, Note_off_c, 1, 35, 0
2, 67640, Note_off_c, 1, 43, 0
2, 67640, Note_off_c, 1, 47, 0
2, 67640, Note_off_c, 1, 65, 0
2, 67680, Note_on_c, 1, 28, 127
2, 67680, Note_on_c, 1, 32, 127
2, 67680, Note_on_c, 1, 40, 127
2, 67680, Note_on_c, 1, 64, 127
2, 68040, Note_off_c, 1, 28, 0
2, 68040, Note_off_c, 1, 32, 0
2, 68040, Note_off_c, 1, 40, 0
2, 68080, Note_on_c, 1, 32, 127
2, 68080, Note_on_c, 1, 35, 127
2, 68080, Note_on_c, 1, 44, 127
2, 68440, Note_off_c, 1, 32, 0
2, 68440, Note_off_c, 1, 35, 0
2, 68440, Note_off_c, 1, 44, 0
2, 68440, Note_on_c, 1, 63, 127
2, 68480, Note_on_c, 1, 39, 127
2, 68480, Note_on_c, 1, 51, 127
2, 68480, Note_off_c, 1, 63, 0
2, 68480, Note_off_c, 1, 64, 0
2, 68480, Note_on_c, 1, 70, 127
2, 68480, Note_on_c, 1, 73, 127
2, 68480, Note_on_c, 1, 79, 127
2, 68560, Note_off_c, 1, 39, 0
2, 68560, Note_off_c, 1, 51, 0
2, 68560, Note_off_c, 1, 70, 0
2, 68560, Note_off_c, 1, 73, 0
2, 68560, Note_off_c, 1, 79, 0
2, 68600, Note_on_c, 1, 39, 127
2, 68600, Note_on_c, 1, 51, 127
2, 68600, Note_on_c, 1, 70, 127
2, 68600, Note_on_c, 1, 73, 127
2, 68600, Note_on_c, 1, 79, 127
2, 68880, Note_off_c, 1, 39, 0
2, 68880, Note_off_c, 1, 51, 0
2, 68880, Note_off_c, 1, 70, 0
2, 68880, Note_off_c, 1, 73, 0
2, 68880, Note_off_c, 1, 79, 0
2, 68920, Note_on_c, 1, 35, 127
2, 68920, Note_on_c, 1, 44, 127
2, 68920, Note_on_c, 1, 80, 127
2, 68960, Note_off_c, 1, 35, 0
2, 68960, Note_off_c, 1, 44, 0
2, 68960, Note_on_c, 1, 70, 127
2, 68960, Note_on_c, 1, 73, 127
2, 68960, Note_on_c, 1, 79, 127
2, 68960, Note_off_c, 1, 80, 0
2, 68960, Note_on_c, 1, 91, 127
2, 69000, Note_on_c, 1, 35, 127
2, 69000, Note_on_c, 1, 44, 127
2, 69000, Note_off_c, 1, 70, 0
2, 69000, Note_off_c, 1, 73, 0
2, 69000, Note_off_c, 1, 79, 0
2, 69000, Note_off_c, 1, 91, 0
2, 69040, Note_on_c, 1, 87, 127
2, 69080, Note_off_c, 1, 87, 0
2, 69120, Note_off_c, 1, 35, 0
2, 69120, Note_off_c, 1, 44, 0
2, 69120, Note_on_c, 1, 46, 127
2, 69120, Note_on_c, 1, 52, 127
2, 69120, Note_on_c, 1, 65, 127
2, 69120, Note_on_c, 1, 70, 127
2, 69120, Note_on_c, 1, 77, 127
2, 69280, Note_off_c, 1, 46, 0
2, 69280, Note_off_c, 1, 52, 0
2, 69280, Note_off_c, 1, 65, 0
2, 69280, Note_off_c, 1, 70, 0
2, 69280, Note_off_c, 1, 77, 0
2, 69320, Note_on_c, 1, 41, 127
2, 69320, Note_on_c, 1, 50, 127
2, 69320, Note_on_c, 1, 53, 127
2, 69320, Note_on_c, 1, 58, 127
2, 69320, Note_on_c, 1, 62, 127
2, 70080, Note_off_c, 1, 41, 0
2, 70080, Note_off_c, 1, 50, 0
2, 70080, Note_off_c, 1, 53, 0
2, 70080, Note_off_c, 1, 58, 0
2, 70080, Note_off_c, 1, 62, 0
2, 70120, Note_on_c, 1, 41, 127
2, 70120, Note_on_c, 1, 50, 127
2, 70120, Note_on_c, 1, 53, 127
2, 70120, Note_on_c, 1, 58, 127
2, 70120, Note_on_c, 1, 62, 127
2, 70520, Note_off_c, 1, 41, 0
2, 70520, Note_off_c, 1, 50, 0
2, 70520, Note_off_c, 1, 53, 0
2, 70520, Note_off_c, 1, 58, 0
2, 70520, Note_off_c, 1, 62, 0
2, 70560, Note_on_c, 1, 41, 127
2, 70560, Note_on_c, 1, 50, 127
2, 70560, Note_on_c, 1, 53, 127
2, 70560, Note_on_c, 1, 58, 127
2, 70560, Note_on_c, 1, 62, 127
2, 70920, Note_off_c, 1, 41, 0
2, 70920, Note_off_c, 1, 50, 0
2, 70920, Note_off_c, 1, 53, 0
2, 70920, Note_off_c, 1, 58, 0
2, 70920, Note_off_c, 1, 62, 0
2, 70960, Note_on_c, 1, 41, 127
2, 70960, Note_on_c, 1, 50, 127
2, 70960, Note_on_c, 1, 53, 127
2, 70960, Note_on_c, 1, 58, 127
2, 70960, Note_on_c, 1, 62, 127
2, 72120, Note_on_c, 1, 37, 127
2, 72120, Note_on_c, 1, 49, 127
2, 72120, Note_off_c, 1, 50, 0
2, 72120, Note_off_c, 1, 53, 0
2, 72120, Note_off_c, 1, 58, 0
2, 72120, Note_off_c, 1, 62, 0
2, 72160, Note_off_c, 1, 37, 0
2, 72160, Note_off_c, 1, 49, 0
2, 72160, Note_on_c, 1, 50, 127
2, 72160, Note_on_c, 1, 53, 127
2, 72160, Note_on_c, 1, 58, 127
2, 72160, Note_on_c, 1, 62, 127
2, 72760, Note_off_c, 1, 41, 0
2, 72760, Note_off_c, 1, 50, 0
2, 72760, Note_off_c, 1, 53, 0
2, 72760, Note_off_c, 1, 58, 0
2, 72760, Note_off_c, 1, 62, 0
2, 72800, Note_on_c, 1, 41, 127
2, 72800, Note_on_c, 1, 50, 127
2, 72800, Note_on_c, 1, 53, 127
2, 72800, Note_on_c, 1, 58, 127
2, 72800, Note_on_c, 1, 62, 127
2, 72920, Note_off_c, 1, 50, 0
2, 72920, Note_off_c, 1, 53, 0
2, 72920, Note_off_c, 1, 58, 0
2, 72920, Note_off_c, 1, 62, 0
2, 72920, Note_on_c, 1, 76, 127
2, 72920, Note_on_c, 1, 81, 127
2, 72960, Note_off_c, 1, 41, 0
2, 72960, Note_off_c, 1, 76, 0
2, 72960, Note_off_c, 1, 81, 0
2, 73000, Note_on_c, 1, 58, 127
2, 73000, Note_on_c, 1, 65, 127
2, 73000, Note_on_c, 1, 67, 127
2, 73000, Note_on_c, 1, 73, 127
2, 73360, Note_off_c, 1, 67, 0
2, 73360, Note_off_c, 1, 73, 0
2, 73400, Note_on_c, 1, 48, 127
2, 73400, Note_on_c, 1, 64, 127
2, 73400, Note_off_c, 1, 65, 0
2, 73400, Note_on_c, 1, 68, 127
2, 73760, Note_off_c, 1, 48, 0
2, 73760, Note_off_c, 1, 58, 0
2, 73760, Note_off_c, 1, 64, 0
2, 73760, Note_off_c, 1, 68, 0
2, 73800, Note_on_c, 1, 53, 127
2, 73800, Note_on_c, 1, 55, 127
2, 73800, Note_on_c, 1, 57, 127
2, 73800, Note_on_c, 1, 63, 127
2, 73960, Note_off_c, 1, 55, 0
2, 73960, Note_off_c, 1, 57, 0
2, 73960, Note_off_c, 1, 63, 0
2, 74000, Note_off_c, 1, 53, 0
2, 74000, Note_on_c, 1, 54, 127
2, 74000, Note_on_c, 1, 63, 127
2, 74000, Note_on_c, 1, 66, 127
2, 74000, Note_on_c, 1, 85, 127
2, 74000, Note_on_c, 1, 93, 127
2, 74000, Note_on_c, 1, 97, 127
2, 74160, Note_off_c, 1, 54, 0
2, 74160, Note_off_c, 1, 63, 0
2, 74160, Note_off_c, 1, 66, 0
2, 74160, Note_off_c, 1, 85, 0
2, 74160, Note_off_c, 1, 93, 0
2, 74160, Note_off_c, 1, 97, 0
2, 74200, Note_on_c, 1, 45, 127
2, 74200, Note_on_c, 1, 57, 127
2, 74200, Note_on_c, 1, 72, 127
2, 74200, Note_on_c, 1, 76, 127
2, 74200, Note_on_c, 1, 84, 127
2, 74560, Note_on_c, 1, 49, 127
2, 74560, Note_on_c, 1, 52, 127
2, 74560, Note_off_c, 1, 72, 0
2, 74560, Note_on_c, 1, 74, 127
2, 74560, Note_off_c, 1, 76, 0
2, 74560, Note_off_c, 1, 84, 0
2, 74600, Note_on_c, 1, 43, 127
2, 74600, Note_off_c, 1, 45, 0
2, 74600, Note_off_c, 1, 49, 0
2, 74600, Note_on_c, 1, 50, 127
2, 74600, Note_off_c, 1, 52, 0
2, 74600, Note_on_c, 1, 55, 127
2, 74600, Note_off_c, 1, 57, 0
2, 74600, Note_on_c, 1, 59, 127
2, 74600, Note_off_c, 1, 74, 0
2, 74600, Note_on_c, 1, 95, 127
2, 74640, Note_off_c, 1, 43, 0
2, 74640, Note_on_c, 1, 48, 127
2, 74640, Note_off_c, 1, 50, 0
2, 74640, Note_off_c, 1, 55, 0
2, 74640, Note_off_c, 1, 59, 0
2, 74640, Note_on_c, 1, 65, 127
2, 74640, Note_on_c, 1, 67, 127
2, 74640, Note_on_c, 1, 69, 127
2, 74640, Note_on_c, 1, 75, 127
2, 74640, Note_on_c, 1, 79, 127
2, 74640, Note_off_c, 1, 95, 0
2, 74680, Note_on_c, 1, 32, 127
2, 74680, Note_on_c, 1, 44, 127
2, 74680, Note_off_c, 1, 48, 0
2, 74680, Note_off_c, 1, 65, 0
2, 74680, Note_off_c, 1, 67, 0
2, 74680, Note_off_c, 1, 69, 0
2, 74680, Note_off_c, 1, 75, 0
2, 74680, Note_off_c, 1, 79, 0
2, 74680, Note_on_c, 1, 83, 127
2, 74680, Note_on_c, 1, 87, 127
2, 74680, Note_on_c, 1, 92, 127
2, 74680, Note_on_c, 1, 95, 127
2, 74720, Note_off_c, 1, 32, 0
2, 74720, Note_off_c, 1, 44, 0
2, 74720, Note_on_c, 1, 55, 127
2, 74720, Note_on_c, 1, 58, 127
2, 74720, Note_on_c, 1, 62, 127
2, 74720, Note_on_c, 1, 67, 127
2, 74720, Note_on_c, 1, 70, 127
2, 74720, Note_off_c, 1, 83, 0
2, 74720, Note_off_c, 1, 87, 0
2, 74720, Note_off_c, 1, 92, 0
2, 74720, Note_off_c, 1, 95, 0
2, 74760, Note_off_c, 1, 55, 0
2, 74760, Note_off_c, 1, 58, 0
2, 74760, Note_off_c, 1, 62, 0
2, 74760, Note_off_c, 1, 67, 0
2, 74760, Note_off_c, 1, 70, 0
2, 74800, Note_on_c, 1, 64, 127
2, 74800, Note_on_c, 1, 86, 127
2, 74800, Note_on_c, 1, 87, 127
2, 74800, Note_on_c, 1, 89, 127
2, 74800, Note_on_c, 1, 90, 127
2, 74840, Note_on_c, 1, 37, 127
2, 74840, Note_on_c, 1, 44, 127
2, 74840, Note_on_c, 1, 53, 127
2, 74840, Note_off_c, 1, 64, 0
2, 74840, Note_on_c, 1, 65, 127
2, 74840, Note_on_c, 1, 77, 127
2, 74840, Note_off_c, 1, 86, 0
2, 74840, Note_off_c, 1, 87, 0
2, 74840, Note_off_c, 1, 89, 0
2, 74840, Note_off_c, 1, 90, 0
2, 74880, Note_off_c, 1, 37, 0
2, 74880, Note_off_c, 1, 44, 0
2, 74880, Note_on_c, 1, 52, 127
2, 74880, Note_off_c, 1, 53, 0
2, 74880, Note_off_c, 1, 65, 0
2, 74880, Note_on_c, 1, 72, 127
2, 74880, Note_off_c, 1, 77, 0
2, 74880, Note_on_c, 1, 82, 127
2, 74920, Note_on_c, 1, 28, 127
2, 74920, Note_on_c, 1, 39, 127
2, 74920, Note_on_c, 1, 40, 127
2, 74920, Note_on_c, 1, 47, 127
2, 74920, Note_on_c, 1, 51, 127
2, 74920, Note_on_c, 1, 59, 127
2, 74920, Note_on_c, 1, 68, 127
2, 74920, Note_on_c, 1, 71, 127
2, 74920, Note_off_c, 1, 72, 0
2, 74920, Note_off_c, 1, 82, 0
2, 74960, Note_off_c, 1, 28, 0
2, 74960, Note_off_c, 1, 39, 0
2, 74960, Note_off_c, 1, 40, 0
2, 74960, Note_off_c, 1, 47, 0
2, 74960, Note_off_c, 1, 51, 0
2, 74960, Note_off_c, 1, 59, 0
2, 74960, Note_on_c, 1, 61, 127
2, 74960, Note_on_c, 1, 65, 127
2, 74960, Note_off_c, 1, 68, 0
2, 74960, Note_on_c, 1, 70, 127
2, 74960, Note_off_c, 1, 71, 0
2, 74960, Note_on_c, 1, 77, 127
2, 75000, Note_off_c, 1, 52, 0
2, 75000, Note_off_c, 1, 61, 0
2, 75000, Note_on_c, 1, 64, 127
2, 75000, Note_off_c, 1, 65, 0
2, 75000, Note_on_c, 1, 67, 127
2, 75000, Note_off_c, 1, 70, 0
2, 75000, Note_on_c, 1, 73, 127
2, 75000, Note_off_c, 1, 77, 0
2, 75000, Note_on_c, 1, 82, 127
2, 75000, Note_on_c, 1, 85, 127
2, 75000, Note_on_c, 1, 94, 127
2, 75040, Note_on_c, 1, 46, 127
2, 75040, Note_on_c, 1, 54, 127
2, 75040, Note_off_c, 1, 64, 0
2, 75040, Note_off_c, 1, 67, 0
2, 75040, Note_off_c, 1, 73, 0
2, 75040, Note_off_c, 1, 82, 0
2, 75040, Note_off_c, 1, 85, 0
2, 75040, Note_on_c, 1, 88, 127
2, 75040, Note_off_c, 1, 94, 0
2, 75080, Note_off_c, 1, 46, 0
2, 75080, Note_off_c, 1, 54, 0
2, 75080, Note_on_c, 1, 73, 127
2, 75080, Note_on_c, 1, 80, 127
2, 75080, Note_on_c, 1, 85, 127
2, 75080, Note_off_c, 1, 88, 0
2, 75080, Note_on_c, 1, 89, 127
2, 75080, Note_on_c, 1, 97, 127
2, 75080, Note_on_c, 1, 102, 127
2, 75120, Note_on_c, 1, 50, 127
2, 75120, Note_on_c, 1, 57, 127
2, 75120, Note_on_c, 1, 63, 127
2, 75120, Note_on_c, 1, 66, 127
2, 75120, Note_on_c, 1, 69, 127
2, 75120, Note_off_c, 1, 73, 0
2, 75120, Note_on_c, 1, 75, 127
2, 75120, Note_off_c, 1, 80, 0
2, 75120, Note_off_c, 1, 85, 0
2, 75120, Note_off_c, 1, 89, 0
2, 75120, Note_off_c, 1, 97, 0
2, 75120, Note_off_c, 1, 102, 0
2, 75160, Note_off_c, 1, 50, 0
2, 75160, Note_off_c, 1, 57, 0
2, 75160, Note_off_c, 1, 63, 0
2, 75160, Note_on_c, 1, 64, 127
2, 75160, Note_off_c, 1, 66, 0
2, 75160, Note_off_c, 1, 69, 0
2, 75160, Note_off_c, 1, 75, 0
2, 75160, Note_on_c, 1, 81, 127
2, 75160, Note_on_c, 1, 84, 127
2, 75160, Note_on_c, 1, 88, 127
2, 75160, Note_on_c, 1, 93, 127
2, 75200, Note_on_c, 1, 32, 127
2, 75200, Note_on_c, 1, 39, 127
2, 75200, Note_off_c, 1, 64, 0
2, 75200, Note_on_c, 1, 68, 127
2, 75200, Note_off_c, 1, 81, 0
2, 75200, Note_off_c, 1, 84, 0
2, 75200, Note_off_c, 1, 88, 0
2, 75200, Note_off_c, 1, 93, 0
2, 75240, Note_off_c, 1, 32, 0
2, 75240, Note_off_c, 1, 39, 0
2, 75240, Note_on_c, 1, 41, 127
2, 75240, Note_on_c, 1, 51, 127
2, 75240, Note_on_c, 1, 57, 127
2, 75240, Note_on_c, 1, 60, 127
2, 75240, Note_off_c, 1, 68, 0
2, 75240, Note_on_c, 1, 69, 127
2, 75280, Note_off_c, 1, 41, 0
2, 75280, Note_off_c, 1, 51, 0
2, 75280, Note_on_c, 1, 53, 127
2, 75280, Note_off_c, 1, 57, 0
2, 75280, Note_on_c, 1, 58, 127
2, 75280, Note_off_c, 1, 60, 0
2, 75280, Note_on_c, 1, 62, 127
2, 75280, Note_on_c, 1, 65, 127
2, 75280, Note_off_c, 1, 69, 0
2, 75280, Note_on_c, 1, 79, 127
2, 75320, Note_off_c, 1, 58, 0
2, 75320, Note_off_c, 1, 62, 0
2, 75320, Note_off_c, 1, 65, 0
2, 75320, Note_off_c, 1, 79, 0
2, 75320, Note_on_c, 1, 89, 127
2, 75320, Note_on_c, 1, 98, 127
2, 75360, Note_off_c, 1, 53, 0
2, 75360, Note_on_c, 1, 56, 127
2, 75360, Note_on_c, 1, 60, 127
2, 75360, Note_on_c, 1, 74, 127
2, 75360, Note_on_c, 1, 86, 127
2, 75360, Note_off_c, 1, 89, 0
2, 75360, Note_off_c, 1, 98, 0
2, 75400, Note_on_c, 1, 42, 127
2, 75400, Note_on_c, 1, 54, 127
2, 75400, Note_off_c, 1, 56, 0
2, 75400, Note_on_c, 1, 57, 127
2, 75400, Note_off_c, 1, 60, 0
2, 75400, Note_on_c, 1, 61, 127
2, 75400, Note_on_c, 1, 66, 127
2, 75400, Note_off_c, 1, 74, 0
2, 75400, Note_off_c, 1, 86, 0
2, 75440, Note_off_c, 1, 42, 0
2, 75440, Note_off_c, 1, 54, 0
2, 75440, Note_off_c, 1, 57, 0
2, 75440, Note_off_c, 1, 61, 0
2, 75440, Note_on_c, 1, 63, 127
2, 75440, Note_on_c, 1, 71, 127
2, 75440, Note_on_c, 1, 75, 127
2, 75440, Note_on_c, 1, 87, 127
2, 75600, Note_on_c, 1, 83, 127
2, 75600, Note_off_c, 1, 87, 0
2, 75640, Note_off_c, 1, 83, 0
2, 75640, Note_on_c, 1, 87, 127
2, 75760, Note_on_c, 1, 83, 127
2, 75760, Note_off_c, 1, 87, 0
2, 75800, Note_off_c, 1, 63, 0
2, 75800, Note_off_c, 1, 66, 0
2, 75800, Note_off_c, 1, 71, 0
2, 75800, Note_off_c, 1, 75, 0
2, 75800, Note_off_c, 1, 83, 0
2, 75840, Note_on_c, 1, 50, 127
2, 75840, Note_on_c, 1, 61, 127
2, 75840, Note_on_c, 1, 64, 127
2, 75840, Note_on_c, 1, 66, 127
2, 75840, Note_on_c, 1, 68, 127
2, 75840, Note_on_c, 1, 78, 127
2, 76600, Note_on_c, 1, 54, 127
2, 76600, Note_on_c, 1, 57, 127
2, 76600, Note_off_c, 1, 61, 0
2, 76600, Note_off_c, 1, 64, 0
2, 76600, Note_off_c, 1, 66, 0
2, 76600, Note_off_c, 1, 68, 0
2, 76600, Note_on_c, 1, 74, 127
2, 76640, Note_on_c, 1, 44, 127
2, 76640, Note_on_c, 1, 49, 127
2, 76640, Note_off_c, 1, 50, 0
2, 76640, Note_off_c, 1, 54, 0
2, 76640, Note_off_c, 1, 57, 0
2, 76640, Note_on_c, 1, 59, 127
2, 76640, Note_on_c, 1, 71, 127
2, 76640, Note_off_c, 1, 74, 0
2, 76640, Note_off_c, 1, 78, 0
2, 76680, Note_off_c, 1, 44, 0
2, 76680, Note_off_c, 1, 49, 0
2, 76680, Note_off_c, 1, 59, 0
2, 76680, Note_off_c, 1, 71, 0
2, 76720, Note_on_c, 1, 44, 127
2, 76720, Note_on_c, 1, 49, 127
2, 76720, Note_on_c, 1, 59, 127
2, 76720, Note_on_c, 1, 71, 127
2, 77040, Note_off_c, 1, 44, 0
2, 77040, Note_off_c, 1, 49, 0
2, 77040, Note_off_c, 1, 59, 0
2, 77040, Note_off_c, 1, 71, 0
2, 77080, Note_on_c, 1, 58, 127
2, 77080, Note_on_c, 1, 68, 127
2, 77080, Note_on_c, 1, 74, 127
2, 77080, Note_on_c, 1, 80, 127
2, 77080, Note_on_c, 1, 91, 127
2, 77120, Note_off_c, 1, 58, 0
2, 77120, Note_on_c, 1, 66, 127
2, 77120, Note_on_c, 1, 67, 127
2, 77120, Note_off_c, 1, 68, 0
2, 77120, Note_off_c, 1, 74, 0
2, 77120, Note_off_c, 1, 80, 0
2, 77120, Note_on_c, 1, 85, 127
2, 77120, Note_on_c, 1, 90, 127
2, 77120, Note_off_c, 1, 91, 0
2, 77160, Note_on_c, 1, 59, 127
2, 77160, Note_off_c, 1, 66, 0
2, 77160, Note_off_c, 1, 67, 0
2, 77160, Note_on_c, 1, 80, 127
2, 77160, Note_off_c, 1, 85, 0
2, 77160, Note_on_c, 1, 87, 127
2, 77160, Note_off_c, 1, 90, 0
2, 77160, Note_on_c, 1, 92, 127
2, 77200, Note_on_c, 1, 49, 127
2, 77200, Note_on_c, 1, 56, 127
2, 77200, Note_off_c, 1, 59, 0
2, 77200, Note_on_c, 1, 73, 127
2, 77200, Note_on_c, 1, 75, 127
2, 77200, Note_off_c, 1, 80, 0
2, 77200, Note_off_c, 1, 87, 0
2, 77200, Note_off_c, 1, 92, 0
2, 77240, Note_off_c, 1, 49, 0
2, 77240, Note_off_c, 1, 56, 0
2, 77240, Note_off_c, 1, 75, 0
2, 77240, Note_on_c, 1, 77, 127
2, 77240, Note_on_c, 1, 85, 127
2, 77240, Note_on_c, 1, 89, 127
2, 77240, Note_on_c, 1, 92, 127
2, 77280, Note_on_c, 1, 64, 127
2, 77280, Note_on_c, 1, 70, 127
2, 77280, Note_on_c, 1, 72, 127
2, 77280, Note_off_c, 1, 73, 0
2, 77280, Note_on_c, 1, 76, 127
2, 77280, Note_off_c, 1, 77, 0
2, 77280, Note_on_c, 1, 82, 127
2, 77280, Note_off_c, 1, 85, 0
2, 77280, Note_off_c, 1, 89, 0
2, 77280, Note_off_c, 1, 92, 0
2, 77320, Note_on_c, 1, 58, 127
2, 77320, Note_off_c, 1, 64, 0
2, 77320, Note_on_c, 1, 67, 127
2, 77320, Note_off_c, 1, 72, 0
2, 77320, Note_off_c, 1, 82, 0
2, 77320, Note_on_c, 1, 85, 127
2, 77360, Note_on_c, 1, 41, 127
2, 77360, Note_on_c, 1, 46, 127
2, 77360, Note_on_c, 1, 50, 127
2, 77360, Note_on_c, 1, 53, 127
2, 77360, Note_off_c, 1, 58, 0
2, 77360, Note_off_c, 1, 67, 0
2, 77360, Note_on_c, 1, 68, 127
2, 77360, Note_off_c, 1, 70, 0
2, 77360, Note_off_c, 1, 76, 0
2, 77360, Note_on_c, 1, 80, 127
2, 77360, Note_off_c, 1, 85, 0
2, 77400, Note_on_c, 1, 30, 127
2, 77400, Note_on_c, 1, 37, 127
2, 77400, Note_off_c, 1, 41, 0
2, 77400, Note_on_c, 1, 42, 127
2, 77400, Note_off_c, 1, 46, 0
2, 77400, Note_off_c, 1, 50, 0
2, 77400, Note_off_c, 1, 53, 0
2, 77400, Note_on_c, 1, 61, 127
2, 77400, Note_off_c, 1, 68, 0
2, 77400, Note_on_c, 1, 73, 127
2, 77400, Note_off_c, 1, 80, 0
2, 77440, Note_off_c, 1, 30, 0
2, 77440, Note_off_c, 1, 37, 0
2, 77440, Note_off_c, 1, 42, 0
2, 77440, Note_off_c, 1, 61, 0
2, 77440, Note_off_c, 1, 73, 0
2, 77480, Note_on_c, 1, 60, 127
2, 77480, Note_on_c, 1, 69, 127
2, 77480, Note_on_c, 1, 72, 127
2, 77480, Note_on_c, 1, 78, 127
2, 77480, Note_on_c, 1, 87, 127
2, 77840, Note_on_c, 1, 39, 127
2, 77840, Note_on_c, 1, 44, 127
2, 77840, Note_on_c, 1, 56, 127
2, 77840, Note_off_c, 1, 60, 0
2, 77840, Note_off_c, 1, 69, 0
2, 77840, Note_off_c, 1, 72, 0
2, 77840, Note_on_c, 1, 77, 127
2, 77840, Note_off_c, 1, 78, 0
2, 77840, Note_on_c, 1, 80, 127
2, 77840, Note_on_c, 1, 89, 127
2, 77880, Note_on_c, 1, 36, 127
2, 77880, Note_off_c, 1, 39, 0
2, 77880, Note_off_c, 1, 44, 0
2, 77880, Note_on_c, 1, 48, 127
2, 77880, Note_on_c, 1, 52, 127
2, 77880, Note_off_c, 1, 56, 0
2, 77880, Note_on_c, 1, 64, 127
2, 77880, Note_on_c, 1, 76, 127
2, 77880, Note_off_c, 1, 77, 0
2, 77880, Note_off_c, 1, 80, 0
2, 77880, Note_on_c, 1, 84, 127
2, 77880, Note_off_c, 1, 87, 0
2, 77880, Note_on_c, 1, 88, 127
2, 77880, Note_off_c, 1, 89, 0
2, 78240, Note_off_c, 1, 36, 0
2, 78240, Note_off_c, 1, 48, 0
2, 78240, Note_off_c, 1, 52, 0
2, 78240, Note_off_c, 1, 64, 0
2, 78240, Note_off_c, 1, 76, 0
2, 78240, Note_off_c, 1, 84, 0
2, 78240, Note_off_c, 1, 88, 0
2, 78280, Note_on_c, 1, 48, 127
2, 78280, Note_on_c, 1, 55, 127
2, 78280, Note_on_c, 1, 57, 127
2, 78280, Note_on_c, 1, 63, 127
2, 78280, Note_on_c, 1, 69, 127
2, 78280, Note_on_c, 1, 75, 127
2, 78280, Note_on_c, 1, 79, 127
2, 78280, Note_on_c, 1, 81, 127
2, 78360, Note_on_c, 1, 67, 127
2, 78360, Note_off_c, 1, 69, 0
2, 78360, Note_off_c, 1, 75, 0
2, 78360, Note_off_c, 1, 81, 0
2, 78440, Note_off_c, 1, 48, 0
2, 78440, Note_off_c, 1, 55, 0
2, 78440, Note_off_c, 1, 57, 0
2, 78440, Note_off_c, 1, 63, 0
2, 78440, Note_on_c, 1, 64, 127
2, 78440, Note_off_c, 1, 67, 0
2, 78440, Note_on_c, 1, 71, 127
2, 78440, Note_off_c, 1, 79, 0
2, 78440, Note_on_c, 1, 83, 127
2, 78440, Note_on_c, 1, 90, 127
2, 78480, Note_on_c, 1, 48, 127
2, 78480, Note_on_c, 1, 55, 127
2, 78480, Note_on_c, 1, 57, 127
2, 78480, Note_on_c, 1, 63, 127
2, 78480, Note_off_c, 1, 64, 0
2, 78480, Note_on_c, 1, 69, 127
2, 78480, Note_off_c, 1, 71, 0
2, 78480, Note_on_c, 1, 75, 127
2, 78480, Note_on_c, 1, 79, 127
2, 78480, Note_on_c, 1, 81, 127
2, 78480, Note_off_c, 1, 83, 0
2, 78480, Note_off_c, 1, 90, 0
2, 78520, Note_on_c, 1, 67, 127
2, 78520, Note_off_c, 1, 69, 0
2, 78520, Note_off_c, 1, 75, 0
2, 78520, Note_off_c, 1, 81, 0
2, 78600, Note_off_c, 1, 48, 0
2, 78600, Note_on_c, 1, 49, 127
2, 78600, Note_on_c, 1, 53, 127
2, 78600, Note_off_c, 1, 55, 0
2, 78600, Note_off_c, 1, 57, 0
2, 78600, Note_on_c, 1, 59, 127
2, 78600, Note_off_c, 1, 63, 0
2, 78600, Note_off_c, 1, 67, 0
2, 78600, Note_on_c, 1, 68, 127
2, 78600, Note_on_c, 1, 73, 127
2, 78600, Note_off_c, 1, 79, 0
2, 78640, Note_off_c, 1, 49, 0
2, 78640, Note_off_c, 1, 53, 0
2, 78640, Note_off_c, 1, 59, 0
2, 78640, Note_off_c, 1, 68, 0
2, 78640, Note_off_c, 1, 73, 0
2, 78720, Note_on_c, 1, 50, 127
2, 78720, Note_on_c, 1, 53, 127
2, 78720, Note_on_c, 1, 62, 127
2, 78720, Note_on_c, 1, 65, 127
2, 78720, Note_on_c, 1, 79, 127
2, 78760, Note_on_c, 1, 40, 127
2, 78760, Note_on_c, 1, 46, 127
2, 78760, Note_on_c, 1, 48, 127
2, 78760, Note_off_c, 1, 50, 0
2, 78760, Note_on_c, 1, 52, 127
2, 78760, Note_off_c, 1, 53, 0
2, 78760, Note_on_c, 1, 57, 127
2, 78760, Note_on_c, 1, 59, 127
2, 78760, Note_off_c, 1, 62, 0
2, 78760, Note_on_c, 1, 64, 127
2, 78760, Note_off_c, 1, 65, 0
2, 78760, Note_on_c, 1, 69, 127
2, 78760, Note_off_c, 1, 79, 0
2, 78800, Note_off_c, 1, 40, 0
2, 78800, Note_off_c, 1, 46, 0
2, 78800, Note_off_c, 1, 48, 0
2, 78800, Note_off_c, 1, 52, 0
2, 78800, Note_on_c, 1, 55, 127
2, 78800, Note_off_c, 1, 57, 0
2, 78800, Note_off_c, 1, 59, 0
2, 78800, Note_on_c, 1, 60, 127
2, 78800, Note_off_c, 1, 64, 0
2, 78800, Note_on_c, 1, 68, 127
2, 78800, Note_off_c, 1, 69, 0
2, 78800, Note_on_c, 1, 80, 127
2, 78840, Note_on_c, 1, 40, 127
2, 78840, Note_on_c, 1, 46, 127
2, 78840, Note_on_c, 1, 48, 127
2, 78840, Note_on_c, 1, 52, 127
2, 78840, Note_off_c, 1, 55, 0
2, 78840, Note_on_c, 1, 57, 127
2, 78840, Note_on_c, 1, 59, 127
2, 78840, Note_off_c, 1, 60, 0
2, 78840, Note_on_c, 1, 64, 127
2, 78840, Note_off_c, 1, 68, 0
2, 78840, Note_on_c, 1, 69, 127
2, 78840, Note_off_c, 1, 80, 0
2, 78880, Note_off_c, 1, 40, 0
2, 78880, Note_off_c, 1, 46, 0
2, 78880, Note_off_c, 1, 48, 0
2, 78880, Note_on_c, 1, 51, 127
2, 78880, Note_off_c, 1, 52, 0
2, 78880, Note_off_c, 1, 59, 0
2, 78880, Note_on_c, 1, 60, 127
2, 78880, Note_off_c, 1, 64, 0
2, 78880, Note_off_c, 1, 69, 0
2, 78880, Note_on_c, 1, 81, 127
2, 78920, Note_on_c, 1, 30, 127
2, 78920, Note_on_c, 1, 42, 127
2, 78920, Note_off_c, 1, 51, 0
2, 78920, Note_off_c, 1, 57, 0
2, 78920, Note_off_c, 1, 60, 0
2, 78920, Note_on_c, 1, 61, 127
2, 78920, Note_on_c, 1, 64, 127
2, 78920, Note_off_c, 1, 81, 0
2, 78960, Note_off_c, 1, 30, 0
2, 78960, Note_on_c, 1, 32, 127
2, 78960, Note_off_c, 1, 42, 0
2, 78960, Note_on_c, 1, 44, 127
2, 78960, Note_off_c, 1, 61, 0
2, 78960, Note_on_c, 1, 76, 127
2, 79040, Note_off_c, 1, 32, 0
2, 79040, Note_off_c, 1, 44, 0
2, 79040, Note_off_c, 1, 64, 0
2, 79040, Note_off_c, 1, 76, 0
2, 79080, Note_on_c, 1, 74, 127
2, 79080, Note_on_c, 1, 77, 127
2, 79080, Note_on_c, 1, 79, 127
2, 79080, Note_on_c, 1, 86, 127
2, 79440, Note_off_c, 1, 74, 0
2, 79440, Note_off_c, 1, 77, 0
2, 79440, Note_off_c, 1, 79, 0
2, 79440, Note_off_c, 1, 86, 0
2, 79480, Note_on_c, 1, 39, 127
2, 79480, Note_on_c, 1, 46, 127
2, 79480, Note_on_c, 1, 51, 127
2, 79480, Note_on_c, 1, 67, 127
2, 79480, Note_on_c, 1, 75, 127
2, 79480, Note_on_c, 1, 79, 127
2, 80240, Note_off_c, 1, 39, 0
2, 80240, Note_off_c, 1, 46, 0
2, 80240, Note_off_c, 1, 51, 0
2, 80240, Note_off_c, 1, 67, 0
2, 80240, Note_off_c, 1, 75, 0
2, 80240, Note_off_c, 1, 79, 0
2, 80280, Note_on_c, 1, 41, 127
2, 80280, Note_on_c, 1, 46, 127
2, 80280, Note_on_c, 1, 58, 127
2, 80280, Note_on_c, 1, 62, 127
2, 80280, Note_on_c, 1, 70, 127
2, 80640, Note_off_c, 1, 41, 0
2, 80640, Note_off_c, 1, 46, 0
2, 80640, Note_off_c, 1, 58, 0
2, 80640, Note_off_c, 1, 62, 0
2, 80640, Note_off_c, 1, 70, 0
2, 80720, Note_on_c, 1, 34, 127
2, 80720, Note_on_c, 1, 53, 127
2, 80720, Note_on_c, 1, 61, 127
2, 81240, Note_off_c, 1, 34, 0
2, 81240, Note_on_c, 1, 43, 127
2, 81240, Note_on_c, 1, 50, 127
2, 81240, Note_off_c, 1, 53, 0
2, 81240, Note_off_c, 1, 61, 0
2, 81240, Note_on_c, 1, 67, 127
2, 81280, Note_on_c, 1, 34, 127
2, 81280, Note_off_c, 1, 43, 0
2, 81280, Note_on_c, 1, 49, 127
2, 81280, Note_off_c, 1, 50, 0
2, 81280, Note_on_c, 1, 61, 127
2, 81280, Note_off_c, 1, 67, 0
2, 81440, Note_off_c, 1, 34, 0
2, 81440, Note_off_c, 1, 49, 0
2, 81440, Note_off_c, 1, 61, 0
2, 81440, Note_on_c, 1, 67, 127
2, 81480, Note_off_c, 1, 67, 0
2, 81520, Note_on_c, 1, 66, 127
2, 81520, Note_on_c, 1, 73, 127
2, 81520, Note_on_c, 1, 80, 127
2, 81520, Note_on_c, 1, 87, 127
2, 81560, Note_on_c, 1, 54, 127
2, 81560, Note_on_c, 1, 58, 127
2, 81560, Note_off_c, 1, 73, 0
2, 81560, Note_on_c, 1, 74, 127
2, 81560, Note_off_c, 1, 80, 0
2, 81560, Note_off_c, 1, 87, 0
2, 81600, Note_on_c, 1, 46, 127
2, 81600, Note_on_c, 1, 49, 127
2, 81600, Note_on_c, 1, 52, 127
2, 81600, Note_off_c, 1, 54, 0
2, 81600, Note_on_c, 1, 55, 127
2, 81600, Note_off_c, 1, 58, 0
2, 81600, Note_on_c, 1, 64, 127
2, 81600, Note_off_c, 1, 66, 0
2, 81600, Note_off_c, 1, 74, 0
2, 81600, Note_on_c, 1, 76, 127
2, 81640, Note_off_c, 1, 46, 0
2, 81640, Note_on_c, 1, 48, 127
2, 81640, Note_off_c, 1, 49, 0
2, 81640, Note_off_c, 1, 52, 0
2, 81640, Note_off_c, 1, 55, 0
2, 81640, Note_on_c, 1, 61, 127
2, 81640, Note_off_c, 1, 64, 0
2, 81640, Note_on_c, 1, 67, 127
2, 81640, Note_off_c, 1, 76, 0
2, 81640, Note_on_c, 1, 79, 127
2, 81680, Note_on_c, 1, 47, 127
2, 81680, Note_off_c, 1, 48, 0
2, 81680, Note_on_c, 1, 50, 127
2, 81680, Note_off_c, 1, 61, 0
2, 81680, Note_on_c, 1, 64, 127
2, 81680, Note_off_c, 1, 67, 0
2, 81680, Note_off_c, 1, 79, 0
2, 81720, Note_off_c, 1, 47, 0
2, 81720, Note_off_c, 1, 50, 0
2, 81720, Note_on_c, 1, 57, 127
2, 81720, Note_off_c, 1, 64, 0
2, 81720, Note_on_c, 1, 65, 127
2, 81720, Note_on_c, 1, 89, 127
2, 81720, Note_on_c, 1, 93, 127
2, 81720, Note_on_c, 1, 101, 127
2, 81760, Note_on_c, 1, 33, 127
2, 81760, Note_on_c, 1, 45, 127
2, 81760, Note_off_c, 1, 57, 0
2, 81760, Note_off_c, 1, 65, 0
2, 81760, Note_on_c, 1, 72, 127
2, 81760, Note_on_c, 1, 78, 127
2, 81760, Note_off_c, 1, 89, 0
2, 81760, Note_off_c, 1, 93, 0
2, 81760, Note_off_c, 1, 101, 0
2, 81800, Note_off_c, 1, 33, 0
2, 81800, Note_on_c, 1, 49, 127
2, 81800, Note_on_c, 1, 61, 127
2, 81800, Note_off_c, 1, 72, 0
2, 81800, Note_on_c, 1, 73, 127
2, 81800, Note_off_c, 1, 78, 0
2, 81840, Note_on_c, 1, 32, 127
2, 81840, Note_on_c, 1, 37, 127
2, 81840, Note_on_c, 1, 44, 127
2, 81840, Note_off_c, 1, 45, 0
2, 81840, Note_off_c, 1, 49, 0
2, 81840, Note_on_c, 1, 52, 127
2, 81840, Note_off_c, 1, 61, 0
2, 81840, Note_off_c, 1, 73, 0
2, 81880, Note_off_c, 1, 32, 0
2, 81880, Note_off_c, 1, 37, 0
2, 81880, Note_off_c, 1, 44, 0
2, 81880, Note_off_c, 1, 52, 0
2, 81920, Note_on_c, 1, 52, 127
2, 81920, Note_on_c, 1, 61, 127
2, 81920, Note_on_c, 1, 76, 127
2, 81920, Note_on_c, 1, 88, 127
2, 82080, Note_off_c, 1, 76, 0
2, 82080, Note_off_c, 1, 88, 0
2, 82120, Note_on_c, 1, 45, 127
2, 82120, Note_off_c, 1, 52, 0
2, 82120, Note_on_c, 1, 59, 127
2, 82120, Note_off_c, 1, 61, 0
2, 82120, Note_on_c, 1, 68, 127
2, 82280, Note_off_c, 1, 45, 0
2, 82320, Note_on_c, 1, 44, 127
2, 82640, Note_off_c, 1, 44, 0
2, 82640, Note_on_c, 1, 52, 127
2, 82640, Note_on_c, 1, 56, 127
2, 82640, Note_off_c, 1, 59, 0
2, 82640, Note_on_c, 1, 60, 127
2, 82640, Note_off_c, 1, 68, 0
2, 82680, Note_off_c, 1, 52, 0
2, 82680, Note_off_c, 1, 56, 0
2, 82680, Note_off_c, 1, 60, 0
2, 82720, Note_on_c, 1, 34, 127
2, 82720, Note_on_c, 1, 46, 127
2, 82720, Note_on_c, 1, 54, 127
2, 82720, Note_on_c, 1, 61, 127
2, 82720, Note_on_c, 1, 64, 127
2, 82800, Note_off_c, 1, 34, 0
2, 82800, Note_off_c, 1, 46, 0
2, 82800, Note_off_c, 1, 54, 0
2, 82800, Note_off_c, 1, 61, 0
2, 82800, Note_off_c, 1, 64, 0
2, 82840, Note_on_c, 1, 34, 127
2, 82840, Note_on_c, 1, 46, 127
2, 82840, Note_on_c, 1, 54, 127
2, 82840, Note_on_c, 1, 61, 127
2, 82840, Note_on_c, 1, 64, 127
2, 83120, Note_off_c, 1, 34, 0
2, 83120, Note_off_c, 1, 46, 0
2, 83120, Note_off_c, 1, 54, 0
2, 83120, Note_off_c, 1, 61, 0
2, 83120, Note_off_c, 1, 64, 0
2, 83160, Note_on_c, 1, 33, 127
2, 83160, Note_on_c, 1, 57, 127
2, 83160, Note_on_c, 1, 61, 127
2, 83160, Note_on_c, 1, 64, 127
2, 83320, Note_off_c, 1, 33, 0
2, 83360, Note_on_c, 1, 33, 127
2, 83520, Note_off_c, 1, 33, 0
2, 83560, Note_on_c, 1, 33, 127
2, 83640, Note_off_c, 1, 33, 0
2, 83640, Note_on_c, 1, 45, 127
2, 83720, Note_off_c, 1, 45, 0
2, 83880, Note_off_c, 1, 57, 0
2, 83880, Note_off_c, 1, 61, 0
2, 83880, Note_off_c, 1, 64, 0
2, 83960, Note_on_c, 1, 52, 127
2, 83960, Note_on_c, 1, 57, 127
2, 83960, Note_on_c, 1, 61, 127
2, 83960, Note_on_c, 1, 80, 127
2, 84000, Note_on_c, 1, 76, 127
2, 84000, Note_off_c, 1, 80, 0
2, 84080, Note_off_c, 1, 76, 0
2, 84080, Note_on_c, 1, 81, 127
2, 84120, Note_off_c, 1, 81, 0
2, 84160, Note_on_c, 1, 69, 127
2, 84240, Note_off_c, 1, 69, 0
2, 84240, Note_on_c, 1, 76, 127
2, 84280, Note_off_c, 1, 76, 0
2, 84320, Note_on_c, 1, 67, 127
2, 84360, Note_on_c, 1, 45, 127
2, 84360, Note_off_c, 1, 52, 0
2, 84360, Note_on_c, 1, 54, 127
2, 84360, Note_off_c, 1, 57, 0
2, 84360, Note_off_c, 1, 61, 0
2, 84360, Note_on_c, 1, 63, 127
2, 84360, Note_off_c, 1, 67, 0
2, 84360, Note_on_c, 1, 73, 127
2, 84400, Note_off_c, 1, 45, 0
2, 84400, Note_off_c, 1, 54, 0
2, 84400, Note_off_c, 1, 63, 0
2, 84400, Note_on_c, 1, 68, 127
2, 84400, Note_off_c, 1, 73, 0
2, 84400, Note_on_c, 1, 90, 127
2, 84400, Note_on_c, 1, 93, 127
2, 84400, Note_on_c, 1, 97, 127
2, 84400, Note_on_c, 1, 102, 127
2, 84440, Note_on_c, 1, 50, 127
2, 84440, Note_on_c, 1, 59, 127
2, 84440, Note_on_c, 1, 65, 127
2, 84440, Note_on_c, 1, 67, 127
2, 84440, Note_off_c, 1, 68, 0
2, 84440, Note_on_c, 1, 74, 127
2, 84440, Note_off_c, 1, 90, 0
2, 84440, Note_off_c, 1, 93, 0
2, 84440, Note_off_c, 1, 97, 0
2, 84440, Note_off_c, 1, 102, 0
2, 84480, Note_on_c, 1, 45, 127
2, 84480, Note_off_c, 1, 50, 0
2, 84480, Note_on_c, 1, 54, 127
2, 84480, Note_off_c, 1, 59, 0
2, 84480, Note_off_c, 1, 65, 0
2, 84480, Note_off_c, 1, 67, 0
2, 84480, Note_on_c, 1, 73, 127
2, 84480, Note_off_c, 1, 74, 0
2, 84520, Note_on_c, 1, 38, 127
2, 84520, Note_on_c, 1, 50, 127
2, 84520, Note_off_c, 1, 54, 0
2, 84520, Note_off_c, 1, 73, 0
2, 84520, Note_on_c, 1, 74, 127
2, 84520, Note_on_c, 1, 78, 127
2, 84520, Note_on_c, 1, 81, 127
2, 84520, Note_on_c, 1, 86, 127
2, 84560, Note_off_c, 1, 38, 0
2, 84560, Note_on_c, 1, 42, 127
2, 84560, Note_off_c, 1, 45, 0
2, 84560, Note_off_c, 1, 50, 0
2, 84560, Note_on_c, 1, 52, 127
2, 84560, Note_on_c, 1, 69, 127
2, 84560, Note_on_c, 1, 73, 127
2, 84560, Note_off_c, 1, 74, 0
2, 84560, Note_off_c, 1, 78, 0
2, 84560, Note_off_c, 1, 81, 0
2, 84560, Note_off_c, 1, 86, 0
2, 84600, Note_off_c, 1, 42, 0
2, 84600, Note_on_c, 1, 45, 127
2, 84600, Note_off_c, 1, 52, 0
2, 84600, Note_on_c, 1, 54, 127
2, 84600, Note_on_c, 1, 66, 127
2, 84600, Note_off_c, 1, 69, 0
2, 84640, Note_off_c, 1, 45, 0
2, 84640, Note_on_c, 1, 47, 127
2, 84640, Note_off_c, 1, 66, 0
2, 84640, Note_off_c, 1, 73, 0
2, 84640, Note_on_c, 1, 75, 127
2, 84640, Note_on_c, 1, 78, 127
2, 84640, Note_on_c, 1, 88, 127
2, 84680, Note_on_c, 1, 45, 127
2, 84680, Note_off_c, 1, 47, 0
2, 84680, Note_off_c, 1, 54, 0
2, 84680, Note_on_c, 1, 57, 127
2, 84680, Note_off_c, 1, 75, 0
2, 84680, Note_off_c, 1, 78, 0
2, 84680, Note_on_c, 1, 93, 127
2, 84680, Note_on_c, 1, 97, 127
2, 84680, Note_on_c, 1, 100, 127
2, 84720, Note_off_c, 1, 45, 0
2, 84720, Note_on_c, 1, 46, 127
2, 84720, Note_on_c, 1, 54, 127
2, 84720, Note_off_c, 1, 57, 0
2, 84720, Note_on_c, 1, 61, 127
2, 84720, Note_on_c, 1, 64, 127
2, 84720, Note_on_c, 1, 66, 127
2, 84720, Note_off_c, 1, 88, 0
2, 84720, Note_off_c, 1, 93, 0
2, 84720, Note_off_c, 1, 97, 0
2, 84720, Note_off_c, 1, 100, 0
2, 84760, Note_off_c, 1, 46, 0
2, 84760, Note_off_c, 1, 54, 0
2, 84760, Note_off_c, 1, 61, 0
2, 84760, Note_off_c, 1, 64, 0
2, 84760, Note_off_c, 1, 66, 0
2, 84800, Note_on_c, 1, 38, 127
2, 84800, Note_on_c, 1, 50, 127
2, 84800, Note_on_c, 1, 53, 127
2, 84800, Note_on_c, 1, 58, 127
2, 84800, Note_on_c, 1, 64, 127
2, 84840, Note_off_c, 1, 38, 0
2, 84840, Note_on_c, 1, 42, 127
2, 84840, Note_off_c, 1, 50, 0
2, 84840, Note_off_c, 1, 53, 0
2, 84840, Note_on_c, 1, 54, 127
2, 84840, Note_off_c, 1, 58, 0
2, 84840, Note_off_c, 1, 64, 0
2, 84840, Note_on_c, 1, 69, 127
2, 84840, Note_on_c, 1, 73, 127
2, 84840, Note_on_c, 1, 78, 127
2, 84840, Note_on_c, 1, 81, 127
2, 84880, Note_off_c, 1, 42, 0
2, 84880, Note_off_c, 1, 54, 0
2, 84880, Note_on_c, 1, 58, 127
2, 84880, Note_on_c, 1, 63, 127
2, 84880, Note_on_c, 1, 66, 127
2, 84880, Note_off_c, 1, 69, 0
2, 84880, Note_on_c, 1, 72, 127
2, 84880, Note_off_c, 1, 73, 0
2, 84880, Note_on_c, 1, 75, 127
2, 84880, Note_off_c, 1, 78, 0
2, 84880, Note_off_c, 1, 81, 0
2, 84880, Note_on_c, 1, 82, 127
2, 84880, Note_on_c, 1, 87, 127
2, 84920, Note_on_c, 1, 42, 127
2, 84920, Note_on_c, 1, 54, 127
2, 84920, Note_off_c, 1, 58, 0
2, 84920, Note_off_c, 1, 63, 0
2, 84920, Note_off_c, 1, 66, 0
2, 84920, Note_on_c, 1, 69, 127
2, 84920, Note_off_c, 1, 72, 0
2, 84920, Note_on_c, 1, 73, 127
2, 84920, Note_off_c, 1, 75, 0
2, 84920, Note_on_c, 1, 78, 127
2, 84920, Note_on_c, 1, 81, 127
2, 84920, Note_off_c, 1, 82, 0
2, 84920, Note_off_c, 1, 87, 0
2, 84960, Note_off_c, 1, 42, 0
2, 84960, Note_on_c, 1, 61, 127
2, 84960, Note_on_c, 1, 64, 127
2, 84960, Note_on_c, 1, 66, 127
2, 84960, Note_off_c, 1, 69, 0
2, 84960, Note_off_c, 1, 73, 0
2, 84960, Note_off_c, 1, 78, 0
2, 84960, Note_off_c, 1, 81, 0
2, 84960, Note_on_c, 1, 88, 127
2, 85000, Note_on_c, 1, 52, 127
2, 85000, Note_off_c, 1, 54, 0
2, 85000, Note_on_c, 1, 56, 127
2, 85000, Note_off_c, 1, 61, 0
2, 85000, Note_off_c, 1, 64, 0
2, 85000, Note_off_c, 1, 66, 0
2, 85000, Note_on_c, 1, 68, 127
2, 85000, Note_on_c, 1, 71, 127
2, 85000, Note_on_c, 1, 80, 127
2, 85000, Note_off_c, 1, 88, 0
2, 85040, Note_on_c, 1, 29, 127
2, 85040, Note_on_c, 1, 41, 127
2, 85040, Note_on_c, 1, 45, 127
2, 85040, Note_on_c, 1, 48, 127
2, 85040, Note_off_c, 1, 52, 0
2, 85040, Note_on_c, 1, 53, 127
2, 85040, Note_off_c, 1, 56, 0
2, 85040, Note_on_c, 1, 57, 127
2, 85040, Note_on_c, 1, 65, 127
2, 85040, Note_off_c, 1, 68, 0
2, 85040, Note_on_c, 1, 69, 127
2, 85040, Note_off_c, 1, 71, 0
2, 85040, Note_on_c, 1, 72, 127
2, 85040, Note_on_c, 1, 77, 127
2, 85040, Note_off_c, 1, 80, 0
2, 85120, Note_off_c, 1, 29, 0
2, 85120, Note_on_c, 1, 37, 127
2, 85120, Note_off_c, 1, 41, 0
2, 85120, Note_off_c, 1, 45, 0
2, 85120, Note_off_c, 1, 48, 0
2, 85120, Note_on_c, 1, 49, 127
2, 85120, Note_off_c, 1, 53, 0
2, 85120, Note_on_c, 1, 62, 127
2, 85120, Note_off_c, 1, 65, 0
2, 85120, Note_on_c, 1, 66, 127
2, 85120, Note_off_c, 1, 69, 0
2, 85120, Note_off_c, 1, 72, 0
2, 85120, Note_off_c, 1, 77, 0
2, 85160, Note_off_c, 1, 37, 0
2, 85160, Note_off_c, 1, 49, 0
2, 85160, Note_off_c, 1, 57, 0
2, 85160, Note_off_c, 1, 62, 0
2, 85160, Note_off_c, 1, 66, 0
2, 85200, Note_on_c, 1, 65, 127
2, 85200, Note_on_c, 1, 77, 127
2, 85200, Note_on_c, 1, 84, 127
2, 85200, Note_on_c, 1, 93, 127
2, 85200, Note_on_c, 1, 96, 127
2, 85360, Note_on_c, 1, 58, 127
2, 85360, Note_on_c, 1, 69, 127
2, 85360, Note_on_c, 1, 72, 127
2, 85360, Note_off_c, 1, 77, 0
2, 85360, Note_off_c, 1, 84, 0
2, 85360, Note_off_c, 1, 93, 0
2, 85360, Note_off_c, 1, 96, 0
2, 85400, Note_off_c, 1, 58, 0
2, 85400, Note_off_c, 1, 65, 0
2, 85400, Note_on_c, 1, 67, 127
2, 85400, Note_off_c, 1, 69, 0
2, 85400, Note_on_c, 1, 71, 127
2, 85400, Note_off_c, 1, 72, 0
2, 85400, Note_on_c, 1, 78, 127
2, 85400, Note_on_c, 1, 88, 127
2, 85400, Note_on_c, 1, 95, 127
2, 85400, Note_on_c, 1, 100, 127
2, 85440, Note_on_c, 1, 42, 127
2, 85440, Note_on_c, 1, 51, 127
2, 85440, Note_on_c, 1, 59, 127
2, 85440, Note_off_c, 1, 67, 0
2, 85440, Note_off_c, 1, 71, 0
2, 85440, Note_on_c, 1, 72, 127
2, 85440, Note_off_c, 1, 78, 0
2, 85440, Note_off_c, 1, 88, 0
2, 85440, Note_off_c, 1, 95, 0
2, 85440, Note_off_c, 1, 100, 0
2, 85480, Note_on_c, 1, 36, 127
2, 85480, Note_off_c, 1, 42, 0
2, 85480, Note_on_c, 1, 44, 127
2, 85480, Note_on_c, 1, 48, 127
2, 85480, Note_off_c, 1, 51, 0
2, 85480, Note_off_c, 1, 59, 0
2, 85480, Note_on_c, 1, 66, 127
2, 85480, Note_on_c, 1, 68, 127
2, 85480, Note_off_c, 1, 72, 0
2, 85520, Note_off_c, 1, 36, 0
2, 85520, Note_off_c, 1, 44, 0
2, 85520, Note_off_c, 1, 48, 0
2, 85520, Note_on_c, 1, 55, 127
2, 85520, Note_on_c, 1, 63, 127
2, 85520, Note_off_c, 1, 66, 0
2, 85520, Note_off_c, 1, 68, 0
2, 85520, Note_on_c, 1, 79, 127
2, 85520, Note_on_c, 1, 83, 127
2, 85520, Note_on_c, 1, 91, 127
2, 85560, Note_on_c, 1, 30, 127
2, 85560, Note_on_c, 1, 36, 127
2, 85560, Note_on_c, 1, 39, 127
2, 85560, Note_on_c, 1, 42, 127
2, 85560, Note_off_c, 1, 55, 0
2, 85560, Note_on_c, 1, 57, 127
2, 85560, Note_on_c, 1, 69, 127
2, 85560, Note_off_c, 1, 79, 0
2, 85560, Note_off_c, 1, 83, 0
2, 85560, Note_off_c, 1, 91, 0
2, 85600, Note_off_c, 1, 30, 0
2, 85600, Note_off_c, 1, 36, 0
2, 85600, Note_on_c, 1, 37, 127
2, 85600, Note_off_c, 1, 39, 0
2, 85600, Note_off_c, 1, 42, 0
2, 85600, Note_off_c, 1, 57, 0
2, 85600, Note_on_c, 1, 61, 127
2, 85600, Note_off_c, 1, 63, 0
2, 85600, Note_off_c, 1, 69, 0
2, 85600, Note_on_c, 1, 76, 127
2, 85760, Note_on_c, 1, 34, 127
2, 85760, Note_off_c, 1, 37, 0
2, 85760, Note_on_c, 1, 46, 127
2, 85760, Note_on_c, 1, 64, 127
2, 85760, Note_off_c, 1, 76, 0
2, 85800, Note_off_c, 1, 34, 0
2, 85800, Note_off_c, 1, 46, 0
2, 85800, Note_on_c, 1, 47, 127
2, 85800, Note_off_c, 1, 61, 0
2, 85800, Note_off_c, 1, 64, 0
2, 85800, Note_on_c, 1, 77, 127
2, 85800, Note_on_c, 1, 83, 127
2, 85800, Note_on_c, 1, 86, 127
2, 85800, Note_on_c, 1, 89, 127
2, 85960, Note_off_c, 1, 47, 0
2, 85960, Note_off_c, 1, 77, 0
2, 85960, Note_off_c, 1, 83, 0
2, 85960, Note_off_c, 1, 86, 0
2, 85960, Note_off_c, 1, 89, 0
2, 86000, Note_on_c, 1, 31, 127
2, 86000, Note_on_c, 1, 43, 127
2, 86000, Note_on_c, 1, 59, 127
2, 86000, Note_on_c, 1, 65, 127
2, 86000, Note_on_c, 1, 66, 127
2, 86160, Note_off_c, 1, 66, 0
2, 86200, Note_on_c, 1, 67, 127
2, 86360, Note_off_c, 1, 31, 0
2, 86360, Note_off_c, 1, 43, 0
2, 86360, Note_off_c, 1, 59, 0
2, 86360, Note_off_c, 1, 65, 0
2, 86360, Note_off_c, 1, 67, 0
2, 86400, Note_on_c, 1, 36, 127
2, 86400, Note_on_c, 1, 58, 127
2, 86400, Note_on_c, 1, 64, 127
2, 86400, Note_on_c, 1, 70, 127
2, 86560, Note_off_c, 1, 36, 0
2, 86560, Note_off_c, 1, 58, 0
2, 86560, Note_off_c, 1, 64, 0
2, 86560, Note_off_c, 1, 70, 0
2, 86600, Note_on_c, 1, 35, 127
2, 86600, Note_on_c, 1, 51, 127
2, 86600, Note_on_c, 1, 54, 127
2, 86600, Note_on_c, 1, 59, 127
2, 86600, Note_on_c, 1, 63, 127
2, 86640, Note_off_c, 1, 35, 0
2, 86640, Note_on_c, 1, 45, 127
2, 86640, Note_off_c, 1, 51, 0
2, 86640, Note_off_c, 1, 54, 0
2, 86640, Note_on_c, 1, 55, 127
2, 86640, Note_off_c, 1, 59, 0
2, 86640, Note_on_c, 1, 60, 127
2, 86640, Note_off_c, 1, 63, 0
2, 86640, Note_on_c, 1, 69, 127
2, 86680, Note_off_c, 1, 45, 0
2, 86680, Note_on_c, 1, 50, 127
2, 86680, Note_off_c, 1, 55, 0
2, 86680, Note_on_c, 1, 57, 127
2, 86680, Note_on_c, 1, 67, 127
2, 86680, Note_off_c, 1, 69, 0
2, 86680, Note_on_c, 1, 86, 127
2, 86720, Note_on_c, 1, 43, 127
2, 86720, Note_off_c, 1, 50, 0
2, 86720, Note_off_c, 1, 57, 0
2, 86720, Note_off_c, 1, 60, 0
2, 86720, Note_off_c, 1, 67, 0
2, 86720, Note_on_c, 1, 84, 127
2, 86720, Note_off_c, 1, 86, 0
2, 86720, Note_on_c, 1, 87, 127
2, 86760, Note_off_c, 1, 43, 0
2, 86760, Note_on_c, 1, 55, 127
2, 86760, Note_on_c, 1, 67, 127
2, 86760, Note_on_c, 1, 79, 127
2, 86760, Note_off_c, 1, 84, 0
2, 86760, Note_on_c, 1, 86, 127
2, 86760, Note_off_c, 1, 87, 0
2, 86800, Note_off_c, 1, 55, 0
2, 86800, Note_off_c, 1, 67, 0
2, 86800, Note_off_c, 1, 79, 0
2, 86800, Note_off_c, 1, 86, 0
2, 86840, Note_on_c, 1, 44, 127
2, 86840, Note_on_c, 1, 54, 127
2, 86840, Note_on_c, 1, 69, 127
2, 86840, Note_on_c, 1, 72, 127
2, 86840, Note_on_c, 1, 75, 127
2, 86840, Note_on_c, 1, 78, 127
2, 86840, Note_on_c, 1, 81, 127
2, 86880, Note_off_c, 1, 44, 0
2, 86880, Note_on_c, 1, 51, 127
2, 86880, Note_on_c, 1, 60, 127
2, 86880, Note_on_c, 1, 63, 127
2, 86880, Note_on_c, 1, 66, 127
2, 86880, Note_off_c, 1, 69, 0
2, 86880, Note_off_c, 1, 72, 0
2, 86880, Note_off_c, 1, 75, 0
2, 86880, Note_off_c, 1, 78, 0
2, 86880, Note_off_c, 1, 81, 0
2, 86920, Note_on_c, 1, 35, 127
2, 86920, Note_on_c, 1, 39, 127
2, 86920, Note_on_c, 1, 42, 127
2, 86920, Note_on_c, 1, 47, 127
2, 86920, Note_off_c, 1, 51, 0
2, 86920, Note_off_c, 1, 54, 0
2, 86920, Note_on_c, 1, 59, 127
2, 86920, Note_off_c, 1, 60, 0
2, 86920, Note_on_c, 1, 71, 127
2, 86920, Note_on_c, 1, 75, 127
2, 86920, Note_on_c, 1, 78, 127
2, 86920, Note_on_c, 1, 83, 127
2, 86960, Note_off_c, 1, 35, 0
2, 86960, Note_off_c, 1, 39, 0
2, 86960, Note_off_c, 1, 42, 0
2, 86960, Note_off_c, 1, 47, 0
2, 86960, Note_off_c, 1, 59, 0
2, 86960, Note_on_c, 1, 61, 127
2, 86960, Note_off_c, 1, 71, 0
2, 86960, Note_on_c, 1, 73, 127
2, 86960, Note_off_c, 1, 75, 0
2, 86960, Note_off_c, 1, 83, 0
2, 86960, Note_on_c, 1, 87, 127
2, 86960, Note_on_c, 1, 90, 127
2, 87000, Note_off_c, 1, 61, 0
2, 87000, Note_off_c, 1, 63, 0
2, 87000, Note_off_c, 1, 66, 0
2, 87000, Note_on_c, 1, 67, 127
2, 87000, Note_on_c, 1, 72, 127
2, 87000, Note_off_c, 1, 73, 0
2, 87000, Note_on_c, 1, 76, 127
2, 87000, Note_off_c, 1, 78, 0
2, 87000, Note_off_c, 1, 87, 0
2, 87000, Note_on_c, 1, 88, 127
2, 87000, Note_off_c, 1, 90, 0
2, 87000, Note_on_c, 1, 96, 127
2, 87000, Note_on_c, 1, 100, 127
2, 87040, Note_on_c, 1, 60, 127
2, 87040, Note_on_c, 1, 64, 127
2, 87040, Note_on_c, 1, 74, 127
2, 87040, Note_off_c, 1, 76, 0
2, 87040, Note_off_c, 1, 88, 0
2, 87040, Note_off_c, 1, 96, 0
2, 87040, Note_off_c, 1, 100, 0
2, 87080, Note_on_c, 1, 35, 127
2, 87080, Note_on_c, 1, 42, 127
2, 87080, Note_off_c, 1, 60, 0
2, 87080, Note_on_c, 1, 70, 127
2, 87080, Note_off_c, 1, 72, 0
2, 87080, Note_on_c, 1, 73, 127
2, 87080, Note_off_c, 1, 74, 0
2, 87120, Note_off_c, 1, 35, 0
2, 87120, Note_off_c, 1, 42, 0
2, 87120, Note_on_c, 1, 51, 127
2, 87120, Note_on_c, 1, 58, 127
2, 87120, Note_on_c, 1, 61, 127
2, 87120, Note_on_c, 1, 63, 127
2, 87120, Note_off_c, 1, 64, 0
2, 87120, Note_off_c, 1, 70, 0
2, 87120, Note_off_c, 1, 73, 0
2, 87120, Note_on_c, 1, 75, 127
2, 87160, Note_on_c, 1, 45, 127
2, 87160, Note_off_c, 1, 51, 0
2, 87160, Note_on_c, 1, 52, 127
2, 87160, Note_on_c, 1, 55, 127
2, 87160, Note_on_c, 1, 57, 127
2, 87160, Note_off_c, 1, 58, 0
2, 87160, Note_off_c, 1, 63, 0
2, 87160, Note_on_c, 1, 64, 127
2, 87160, Note_off_c, 1, 67, 0
2, 87160, Note_on_c, 1, 69, 127
2, 87160, Note_off_c, 1, 75, 0
2, 87200, Note_on_c, 1, 32, 127
2, 87200, Note_off_c, 1, 45, 0
2, 87200, Note_off_c, 1, 52, 0
2, 87200, Note_off_c, 1, 55, 0
2, 87200, Note_off_c, 1, 57, 0
2, 87200, Note_off_c, 1, 61, 0
2, 87200, Note_off_c, 1, 64, 0
2, 87200, Note_off_c, 1, 69, 0
2, 87240, Note_off_c, 1, 32, 0
2, 87240, Note_on_c, 1, 46, 127
2, 87240, Note_on_c, 1, 56, 127
2, 87240, Note_on_c, 1, 58, 127
2, 87240, Note_on_c, 1, 64, 127
2, 87240, Note_on_c, 1, 68, 127
2, 87240, Note_on_c, 1, 73, 127
2, 87400, Note_off_c, 1, 46, 0
2, 87400, Note_on_c, 1, 48, 127
2, 87400, Note_on_c, 1, 55, 127
2, 87400, Note_off_c, 1, 56, 0
2, 87400, Note_off_c, 1, 68, 0
2, 87400, Note_on_c, 1, 72, 127
2, 87400, Note_off_c, 1, 73, 0
2, 87400, Note_on_c, 1, 76, 127
2, 87440, Note_on_c, 1, 46, 127
2, 87440, Note_off_c, 1, 48, 0
2, 87440, Note_off_c, 1, 55, 0
2, 87440, Note_on_c, 1, 56, 127
2, 87440, Note_on_c, 1, 68, 127
2, 87440, Note_off_c, 1, 72, 0
2, 87440, Note_on_c, 1, 73, 127
2, 87440, Note_off_c, 1, 76, 0
2, 87560, Note_off_c, 1, 46, 0
2, 87560, Note_on_c, 1, 49, 127
2, 87560, Note_on_c, 1, 55, 127
2, 87560, Note_off_c, 1, 56, 0
2, 87560, Note_off_c, 1, 58, 0
2, 87560, Note_off_c, 1, 68, 0
2, 87560, Note_on_c, 1, 69, 127
2, 87600, Note_off_c, 1, 49, 0
2, 87600, Note_off_c, 1, 55, 0
2, 87600, Note_off_c, 1, 64, 0
2, 87600, Note_off_c, 1, 69, 0
2, 87600, Note_off_c, 1, 73, 0
2, 87600, Note_on_c, 1, 91, 127
2, 87600, Note_on_c, 1, 92, 127
2, 87600, Note_on_c, 1, 95, 127
2, 87600, Note_on_c, 1, 96, 127
2, 87640, Note_on_c, 1, 44, 127
2, 87640, Note_on_c, 1, 49, 127
2, 87640, Note_on_c, 1, 56, 127
2, 87640, Note_on_c, 1, 61, 127
2, 87640, Note_off_c, 1, 91, 0
2, 87640, Note_off_c, 1, 92, 0
2, 87640, Note_off_c, 1, 95, 0
2, 87640, Note_off_c, 1, 96, 0
2, 87800, Note_off_c, 1, 44, 0
2, 87800, Note_off_c, 1, 49, 0
2, 87800, Note_off_c, 1, 56, 0
2, 87800, Note_off_c, 1, 61, 0
2, 87840, Note_on_c, 1, 47, 127
2, 87840, Note_on_c, 1, 54, 127
2, 87840, Note_on_c, 1, 75, 127
2, 88240, Note_on_c, 1, 66, 127
2, 88400, Note_off_c, 1, 47, 0
2, 88400, Note_off_c, 1, 54, 0
2, 88400, Note_off_c, 1, 66, 0
2, 88400, Note_off_c, 1, 75, 0
2, 88440, Note_on_c, 1, 47, 127
2, 88440, Note_on_c, 1, 54, 127
2, 88440, Note_on_c, 1, 66, 127
2, 88440, Note_on_c, 1, 75, 127
2, 88600, Note_off_c, 1, 66, 0
2, 88600, Note_off_c, 1, 75, 0
2, 88640, Note_on_c, 1, 73, 127
2, 88800, Note_off_c, 1, 54, 0
2, 88840, Note_off_c, 1, 47, 0
2, 88840, Note_off_c, 1, 73, 0
2, 88880, Note_on_c, 1, 47, 127
2, 88880, Note_on_c, 1, 54, 127
2, 88880, Note_on_c, 1, 66, 127
2, 88880, Note_on_c, 1, 75, 127
2, 89040, Note_off_c, 1, 47, 0
2, 89040, Note_off_c, 1, 54, 0
2, 89040, Note_off_c, 1, 66, 0
2, 89040, Note_off_c, 1, 75, 0
2, 89080, Note_on_c, 1, 37, 127
2, 89080, Note_on_c, 1, 49, 127
2, 89080, Note_on_c, 1, 54, 127
2, 89080, Note_on_c, 1, 57, 127
2, 89080, Note_on_c, 1, 61, 127
2, 89080, Note_on_c, 1, 66, 127
2, 89080, Note_on_c, 1, 69, 127
2, 89080, Note_on_c, 1, 73, 127
2, 89280, Note_off_c, 1, 37, 0
2, 89280, Note_off_c, 1, 49, 0
2, 89280, Note_on_c, 1, 53, 127
2, 89280, Note_off_c, 1, 54, 0
2, 89280, Note_off_c, 1, 57, 0
2, 89280, Note_off_c, 1, 66, 0
2, 89280, Note_on_c, 1, 68, 127
2, 89280, Note_off_c, 1, 69, 0
2, 89280, Note_on_c, 1, 72, 127
2, 89280, Note_off_c, 1, 73, 0
2, 89320, Note_on_c, 1, 37, 127
2, 89320, Note_on_c, 1, 49, 127
2, 89320, Note_off_c, 1, 53, 0
2, 89320, Note_off_c, 1, 68, 0
2, 89320, Note_off_c, 1, 72, 0
2, 89320, Note_on_c, 1, 73, 127
2, 89640, Note_off_c, 1, 37, 0
2, 89640, Note_off_c, 1, 49, 0
2, 89640, Note_off_c, 1, 61, 0
2, 89640, Note_off_c, 1, 73, 0
2, 89680, Note_on_c, 1, 54, 127
2, 89680, Note_on_c, 1, 56, 127
2, 89680, Note_on_c, 1, 59, 127
2, 89680, Note_on_c, 1, 66, 127
2, 89680, Note_on_c, 1, 80, 127
2, 89680, Note_on_c, 1, 90, 127
2, 89680, Note_on_c, 1, 92, 127
2, 89720, Note_on_c, 1, 39, 127
2, 89720, Note_on_c, 1, 48, 127
2, 89720, Note_on_c, 1, 51, 127
2, 89720, Note_off_c, 1, 54, 0
2, 89720, Note_off_c, 1, 56, 0
2, 89720, Note_off_c, 1, 59, 0
2, 89720, Note_off_c, 1, 66, 0
2, 89720, Note_on_c, 1, 79, 127
2, 89720, Note_off_c, 1, 80, 0
2, 89720, Note_on_c, 1, 84, 127
2, 89720, Note_off_c, 1, 90, 0
2, 89720, Note_off_c, 1, 92, 0
2, 89760, Note_off_c, 1, 39, 0
2, 89760, Note_off_c, 1, 48, 0
2, 89760, Note_off_c, 1, 51, 0
2, 89760, Note_on_c, 1, 54, 127
2, 89760, Note_on_c, 1, 56, 127
2, 89760, Note_on_c, 1, 59, 127
2, 89760, Note_on_c, 1, 66, 127
2, 89760, Note_off_c, 1, 79, 0
2, 89760, Note_on_c, 1, 80, 127
2, 89760, Note_off_c, 1, 84, 0
2, 89760, Note_on_c, 1, 90, 127
2, 89760, Note_on_c, 1, 92, 127
2, 89840, Note_off_c, 1, 54, 0
2, 89840, Note_off_c, 1, 56, 0
2, 89840, Note_off_c, 1, 59, 0
2, 89840, Note_on_c, 1, 70, 127
2, 89840, Note_on_c, 1, 73, 127
2, 89840, Note_on_c, 1, 78, 127
2, 89840, Note_off_c, 1, 80, 0
2, 89840, Note_off_c, 1, 90, 0
2, 89840, Note_off_c, 1, 92, 0
2, 89880, Note_on_c, 1, 46, 127
2, 89880, Note_on_c, 1, 49, 127
2, 89880, Note_off_c, 1, 66, 0
2, 89880, Note_off_c, 1, 70, 0
2, 89880, Note_off_c, 1, 73, 0
2, 89880, Note_on_c, 1, 77, 127
2, 89880, Note_off_c, 1, 78, 0
2, 89880, Note_on_c, 1, 85, 127
2, 89880, Note_on_c, 1, 89, 127
2, 90040, Note_off_c, 1, 46, 0
2, 90040, Note_off_c, 1, 49, 0
2, 90040, Note_off_c, 1, 77, 0
2, 90040, Note_off_c, 1, 85, 0
2, 90040, Note_off_c, 1, 89, 0
2, 90080, Note_on_c, 1, 46, 127
2, 90080, Note_on_c, 1, 48, 127
2, 90080, Note_on_c, 1, 52, 127
2, 90080, Note_on_c, 1, 60, 127
2, 90080, Note_on_c, 1, 64, 127
2, 90080, Note_on_c, 1, 72, 127
2, 90240, Note_off_c, 1, 48, 0
2, 90240, Note_off_c, 1, 60, 0
2, 90280, Note_off_c, 1, 46, 0
2, 90280, Note_off_c, 1, 52, 0
2, 90280, Note_on_c, 1, 60, 127
2, 90280, Note_on_c, 1, 63, 127
2, 90280, Note_off_c, 1, 64, 0
2, 90280, Note_on_c, 1, 66, 127
2, 90280, Note_off_c, 1, 72, 0
2, 90280, Note_on_c, 1, 74, 127
2, 90280, Note_on_c, 1, 78, 127
2, 90320, Note_on_c, 1, 49, 127
2, 90320, Note_on_c, 1, 52, 127
2, 90320, Note_off_c, 1, 60, 0
2, 90320, Note_off_c, 1, 63, 0
2, 90320, Note_off_c, 1, 66, 0
2, 90320, Note_on_c, 1, 70, 127
2, 90320, Note_off_c, 1, 74, 0
2, 90320, Note_off_c, 1, 78, 0
2, 90320, Note_on_c, 1, 82, 127
2, 90360, Note_off_c, 1, 49, 0
2, 90360, Note_off_c, 1, 52, 0
2, 90360, Note_on_c, 1, 59, 127
2, 90360, Note_on_c, 1, 63, 127
2, 90360, Note_on_c, 1, 67, 127
2, 90360, Note_off_c, 1, 70, 0
2, 90360, Note_on_c, 1, 71, 127
2, 90360, Note_on_c, 1, 75, 127
2, 90400, Note_on_c, 1, 42, 127
2, 90400, Note_on_c, 1, 49, 127
2, 90400, Note_off_c, 1, 59, 0
2, 90400, Note_off_c, 1, 63, 0
2, 90400, Note_off_c, 1, 67, 0
2, 90400, Note_off_c, 1, 71, 0
2, 90400, Note_off_c, 1, 75, 0
2, 90400, Note_off_c, 1, 82, 0
2, 90400, Note_on_c, 1, 85, 127
2, 90440, Note_off_c, 1, 42, 0
2, 90440, Note_on_c, 1, 54, 127
2, 90440, Note_on_c, 1, 61, 127
2, 90440, Note_on_c, 1, 64, 127
2, 90440, Note_on_c, 1, 71, 127
2, 90440, Note_on_c, 1, 76, 127
2, 90440, Note_off_c, 1, 85, 0
2, 90480, Note_on_c, 1, 41, 127
2, 90480, Note_off_c, 1, 49, 0
2, 90480, Note_on_c, 1, 50, 127
2, 90480, Note_off_c, 1, 54, 0
2, 90480, Note_on_c, 1, 56, 127
2, 90480, Note_off_c, 1, 64, 0
2, 90480, Note_off_c, 1, 71, 0
2, 90480, Note_off_c, 1, 76, 0
2, 90520, Note_on_c, 1, 47, 127
2, 90520, Note_off_c, 1, 50, 0
2, 90520, Note_off_c, 1, 56, 0
2, 90520, Note_on_c, 1, 57, 127
2, 90520, Note_off_c, 1, 61, 0
2, 90520, Note_on_c, 1, 65, 127
2, 90560, Note_off_c, 1, 41, 0
2, 90560, Note_on_c, 1, 46, 127
2, 90560, Note_off_c, 1, 47, 0
2, 90560, Note_on_c, 1, 55, 127
2, 90560, Note_off_c, 1, 57, 0
2, 90560, Note_on_c, 1, 58, 127
2, 90560, Note_off_c, 1, 65, 0
2, 90560, Note_on_c, 1, 86, 127
2, 90600, Note_off_c, 1, 46, 0
2, 90600, Note_off_c, 1, 55, 0
2, 90600, Note_on_c, 1, 66, 127
2, 90600, Note_on_c, 1, 71, 127
2, 90600, Note_on_c, 1, 79, 127
2, 90600, Note_off_c, 1, 86, 0
2, 90640, Note_on_c, 1, 47, 127
2, 90640, Note_on_c, 1, 56, 127
2, 90640, Note_off_c, 1, 58, 0
2, 90640, Note_on_c, 1, 64, 127
2, 90640, Note_off_c, 1, 66, 0
2, 90640, Note_off_c, 1, 71, 0
2, 90640, Note_off_c, 1, 79, 0
2, 90640, Note_on_c, 1, 80, 127
2, 90640, Note_on_c, 1, 88, 127
2, 90640, Note_on_c, 1, 92, 127
2, 90680, Note_on_c, 1, 46, 127
2, 90680, Note_off_c, 1, 47, 0
2, 90680, Note_on_c, 1, 49, 127
2, 90680, Note_on_c, 1, 53, 127
2, 90680, Note_off_c, 1, 64, 0
2, 90680, Note_on_c, 1, 73, 127
2, 90680, Note_off_c, 1, 80, 0
2, 90680, Note_on_c, 1, 85, 127
2, 90680, Note_off_c, 1, 88, 0
2, 90680, Note_off_c, 1, 92, 0
2, 90720, Note_on_c, 1, 38, 127
2, 90720, Note_off_c, 1, 46, 0
2, 90720, Note_off_c, 1, 49, 0
2, 90720, Note_off_c, 1, 53, 0
2, 90720, Note_off_c, 1, 56, 0
2, 90720, Note_on_c, 1, 68, 127
2, 90720, Note_off_c, 1, 73, 0
2, 90720, Note_on_c, 1, 74, 127
2, 90720, Note_on_c, 1, 76, 127
2, 90720, Note_on_c, 1, 80, 127
2, 90720, Note_off_c, 1, 85, 0
2, 90760, Note_off_c, 1, 38, 0
2, 90760, Note_on_c, 1, 42, 127
2, 90760, Note_on_c, 1, 50, 127
2, 90760, Note_off_c, 1, 68, 0
2, 90760, Note_on_c, 1, 69, 127
2, 90760, Note_off_c, 1, 74, 0
2, 90760, Note_off_c, 1, 76, 0
2, 90760, Note_off_c, 1, 80, 0
2, 90800, Note_off_c, 1, 42, 0
2, 90800, Note_off_c, 1, 50, 0
2, 90800, Note_on_c, 1, 63, 127
2, 90800, Note_on_c, 1, 66, 127
2, 90840, Note_on_c, 1, 55, 127
2, 90840, Note_on_c, 1, 58, 127
2, 90840, Note_off_c, 1, 66, 0
2, 90840, Note_off_c, 1, 69, 0
2, 90840, Note_on_c, 1, 80, 127
2, 90840, Note_on_c, 1, 84, 127
2, 90880, Note_on_c, 1, 50, 127
2, 90880, Note_off_c, 1, 58, 0
2, 90880, Note_on_c, 1, 59, 127
2, 90880, Note_on_c, 1, 64, 127
2, 90880, Note_off_c, 1, 80, 0
2, 90880, Note_off_c, 1, 84, 0
2, 90920, Note_off_c, 1, 50, 0
2, 90920, Note_off_c, 1, 55, 0
2, 90920, Note_off_c, 1, 59, 0
2, 90920, Note_off_c, 1, 63, 0
2, 90920, Note_off_c, 1, 64, 0
2, 90960, Note_on_c, 1, 47, 127
2, 90960, Note_on_c, 1, 80, 127
2, 90960, Note_on_c, 1, 83, 127
2, 90960, Note_on_c, 1, 87, 127
2, 90960, Note_on_c, 1, 92, 127
2, 91000, Note_off_c, 1, 47, 0
2, 91000, Note_off_c, 1, 80, 0
2, 91000, Note_off_c, 1, 83, 0
2, 91000, Note_off_c, 1, 87, 0
2, 91000, Note_off_c, 1, 92, 0
2, 91040, Note_on_c, 1, 85, 127
2, 91040, Note_on_c, 1, 91, 127
2, 91040, Note_on_c, 1, 94, 127
2, 91040, Note_on_c, 1, 100, 127
2, 91080, Note_on_c, 1, 84, 127
2, 91080, Note_off_c, 1, 85, 0
2, 91080, Note_on_c, 1, 90, 127
2, 91080, Note_off_c, 1, 91, 0
2, 91080, Note_on_c, 1, 93, 127
2, 91080, Note_off_c, 1, 94, 0
2, 91080, Note_on_c, 1, 99, 127
2, 91080, Note_off_c, 1, 100, 0
2, 91120, Note_off_c, 1, 84, 0
2, 91120, Note_on_c, 1, 85, 127
2, 91120, Note_off_c, 1, 90, 0
2, 91120, Note_on_c, 1, 91, 127
2, 91120, Note_off_c, 1, 93, 0
2, 91120, Note_on_c, 1, 94, 127
2, 91120, Note_off_c, 1, 99, 0
2, 91120, Note_on_c, 1, 100, 127
2, 91160, Note_off_c, 1, 85, 0
2, 91160, Note_on_c, 1, 87, 127
2, 91160, Note_off_c, 1, 91, 0
2, 91160, Note_on_c, 1, 93, 127
2, 91160, Note_off_c, 1, 94, 0
2, 91160, Note_on_c, 1, 96, 127
2, 91160, Note_off_c, 1, 100, 0
2, 91160, Note_on_c, 1, 102, 127
2, 91240, Note_off_c, 1, 87, 0
2, 91240, Note_on_c, 1, 88, 127
2, 91240, Note_off_c, 1, 93, 0
2, 91240, Note_on_c, 1, 94, 127
2, 91240, Note_off_c, 1, 96, 0
2, 91240, Note_on_c, 1, 97, 127
2, 91240, Note_off_c, 1, 102, 0
2, 91240, Note_on_c, 1, 103, 127
2, 91280, Note_on_c, 1, 87, 127
2, 91280, Note_off_c, 1, 88, 0
2, 91280, Note_on_c, 1, 93, 127
2, 91280, Note_off_c, 1, 94, 0
2, 91280, Note_on_c, 1, 96, 127
2, 91280, Note_off_c, 1, 97, 0
2, 91280, Note_on_c, 1, 102, 127
2, 91280, Note_off_c, 1, 103, 0
2, 91320, Note_off_c, 1, 87, 0
2, 91320, Note_off_c, 1, 93, 0
2, 91320, Note_off_c, 1, 96, 0
2, 91320, Note_off_c, 1, 102, 0
2, 91360, Note_on_c, 1, 51, 127
2, 91360, Note_on_c, 1, 58, 127
2, 91360, Note_on_c, 1, 60, 127
2, 91360, Note_on_c, 1, 63, 127
2, 91360, Note_on_c, 1, 67, 127
2, 91360, Note_on_c, 1, 82, 127
2, 91400, Note_on_c, 1, 48, 127
2, 91400, Note_off_c, 1, 51, 0
2, 91400, Note_on_c, 1, 55, 127
2, 91400, Note_off_c, 1, 58, 0
2, 91400, Note_off_c, 1, 60, 0
2, 91400, Note_off_c, 1, 67, 0
2, 91400, Note_on_c, 1, 72, 127
2, 91400, Note_on_c, 1, 74, 127
2, 91400, Note_on_c, 1, 79, 127
2, 91400, Note_off_c, 1, 82, 0
2, 91440, Note_on_c, 1, 44, 127
2, 91440, Note_off_c, 1, 48, 0
2, 91440, Note_off_c, 1, 55, 0
2, 91440, Note_on_c, 1, 56, 127
2, 91440, Note_off_c, 1, 63, 0
2, 91440, Note_off_c, 1, 72, 0
2, 91440, Note_off_c, 1, 74, 0
2, 91440, Note_on_c, 1, 76, 127
2, 91440, Note_off_c, 1, 79, 0
2, 91440, Note_on_c, 1, 88, 127
2, 91440, Note_on_c, 1, 100, 127
2, 91480, Note_off_c, 1, 44, 0
2, 91480, Note_off_c, 1, 56, 0
2, 91480, Note_off_c, 1, 76, 0
2, 91480, Note_off_c, 1, 88, 0
2, 91480, Note_off_c, 1, 100, 0
2, 91520, Note_on_c, 1, 52, 127
2, 91520, Note_on_c, 1, 58, 127
2, 91520, Note_on_c, 1, 61, 127
2, 91520, Note_on_c, 1, 64, 127
2, 91520, Note_on_c, 1, 66, 127
2, 91520, Note_on_c, 1, 73, 127
2, 91640, Note_off_c, 1, 52, 0
2, 91640, Note_off_c, 1, 58, 0
2, 91640, Note_off_c, 1, 61, 0
2, 91640, Note_off_c, 1, 64, 0
2, 91640, Note_off_c, 1, 66, 0
2, 91640, Note_off_c, 1, 73, 0
2, 91680, Note_on_c, 1, 44, 127
2, 91680, Note_on_c, 1, 82, 127
2, 91680, Note_on_c, 1, 91, 127
2, 91680, Note_on_c, 1, 94, 127
2, 91720, Note_off_c, 1, 44, 0
2, 91720, Note_on_c, 1, 56, 127
2, 91720, Note_on_c, 1, 71, 127
2, 91720, Note_on_c, 1, 76, 127
2, 91720, Note_off_c, 1, 82, 0
2, 91720, Note_on_c, 1, 83, 127
2, 91720, Note_off_c, 1, 91, 0
2, 91720, Note_off_c, 1, 94, 0
2, 91760, Note_on_c, 1, 36, 127
2, 91760, Note_off_c, 1, 56, 0
2, 91760, Note_off_c, 1, 71, 0
2, 91760, Note_off_c, 1, 76, 0
2, 91760, Note_off_c, 1, 83, 0
2, 91800, Note_on_c, 1, 30, 127
2, 91800, Note_off_c, 1, 36, 0
2, 91800, Note_on_c, 1, 82, 127
2, 91800, Note_on_c, 1, 90, 127
2, 91800, Note_on_c, 1, 94, 127
2, 91840, Note_off_c, 1, 30, 0
2, 91840, Note_on_c, 1, 39, 127
2, 91840, Note_off_c, 1, 82, 0
2, 91840, Note_off_c, 1, 90, 0
2, 91840, Note_off_c, 1, 94, 0
2, 91880, Note_on_c, 1, 37, 127
2, 91880, Note_off_c, 1, 39, 0
2, 91880, Note_on_c, 1, 80, 127
2, 91880, Note_on_c, 1, 83, 127
2, 91880, Note_on_c, 1, 89, 127
2, 91880, Note_on_c, 1, 92, 127
2, 91920, Note_off_c, 1, 37, 0
2, 91920, Note_off_c, 1, 80, 0
2, 91920, Note_off_c, 1, 83, 0
2, 91920, Note_off_c, 1, 89, 0
2, 91920, Note_off_c, 1, 92, 0
2, 91960, Note_on_c, 1, 47, 127
2, 92000, Note_off_c, 1, 47, 0
2, 92000, Note_on_c, 1, 52, 127
2, 92000, Note_on_c, 1, 64, 127
2, 92000, Note_on_c, 1, 92, 127
2, 92000, Note_on_c, 1, 95, 127
2, 92040, Note_off_c, 1, 52, 0
2, 92040, Note_off_c, 1, 64, 0
2, 92040, Note_off_c, 1, 92, 0
2, 92040, Note_off_c, 1, 95, 0
2, 92080, Note_on_c, 1, 51, 127
2, 92080, Note_on_c, 1, 59, 127
2, 92080, Note_on_c, 1, 83, 127
2, 92080, Note_on_c, 1, 92, 127
2, 92080, Note_on_c, 1, 95, 127
2, 92160, Note_off_c, 1, 51, 0
2, 92160, Note_off_c, 1, 59, 0
2, 92200, Note_on_c, 1, 45, 127
2, 92200, Note_on_c, 1, 52, 127
2, 92200, Note_on_c, 1, 91, 127
2, 92200, Note_off_c, 1, 92, 0
2, 92240, Note_off_c, 1, 45, 0
2, 92240, Note_off_c, 1, 52, 0
2, 92240, Note_on_c, 1, 76, 127
2, 92240, Note_on_c, 1, 80, 127
2, 92240, Note_off_c, 1, 83, 0
2, 92240, Note_off_c, 1, 91, 0
2, 92240, Note_on_c, 1, 92, 127
2, 92240, Note_off_c, 1, 95, 0
2, 92240, Note_on_c, 1, 100, 127
2, 92280, Note_off_c, 1, 76, 0
2, 92280, Note_off_c, 1, 80, 0
2, 92280, Note_on_c, 1, 84, 127
2, 92280, Note_off_c, 1, 92, 0
2, 92280, Note_on_c, 1, 93, 127
2, 92280, Note_on_c, 1, 96, 127
2, 92280, Note_off_c, 1, 100, 0
2, 92320, Note_off_c, 1, 84, 0
2, 92320, Note_on_c, 1, 90, 127
2, 92320, Note_off_c, 1, 93, 0
2, 92320, Note_on_c, 1, 99, 127
2, 92320, Note_on_c, 1, 105, 127
2, 92360, Note_on_c, 1, 69, 127
2, 92360, Note_on_c, 1, 75, 127
2, 92360, Note_on_c, 1, 78, 127
2, 92360, Note_on_c, 1, 87, 127
2, 92360, Note_off_c, 1, 96, 0
2, 92360, Note_off_c, 1, 99, 0
2, 92360, Note_off_c, 1, 105, 0
2, 92400, Note_off_c, 1, 69, 0
2, 92400, Note_off_c, 1, 75, 0
2, 92400, Note_off_c, 1, 78, 0
2, 92400, Note_on_c, 1, 83, 127
2, 92400, Note_off_c, 1, 87, 0
2, 92400, Note_off_c, 1, 90, 0
2, 92400, Note_on_c, 1, 91, 127
2, 92400, Note_on_c, 1, 95, 127
2, 92440, Note_on_c, 1, 48, 127
2, 92440, Note_on_c, 1, 52, 127
2, 92440, Note_on_c, 1, 55, 127
2, 92440, Note_on_c, 1, 72, 127
2, 92440, Note_off_c, 1, 83, 0
2, 92440, Note_off_c, 1, 91, 0
2, 92440, Note_off_c, 1, 95, 0
2, 92560, Note_off_c, 1, 48, 0
2, 92560, Note_off_c, 1, 52, 0
2, 92560, Note_off_c, 1, 55, 0
2, 92560, Note_off_c, 1, 72, 0
2, 92600, Note_on_c, 1, 58, 127
2, 92600, Note_on_c, 1, 60, 127
2, 92600, Note_on_c, 1, 70, 127
2, 92600, Note_on_c, 1, 75, 127
2, 92600, Note_on_c, 1, 79, 127
2, 92600, Note_on_c, 1, 84, 127
2, 92600, Note_on_c, 1, 87, 127
2, 92680, Note_on_c, 1, 54, 127
2, 92680, Note_off_c, 1, 58, 0
2, 92680, Note_off_c, 1, 60, 0
2, 92680, Note_off_c, 1, 70, 0
2, 92680, Note_off_c, 1, 75, 0
2, 92680, Note_off_c, 1, 79, 0
2, 92680, Note_off_c, 1, 84, 0
2, 92680, Note_off_c, 1, 87, 0
2, 92720, Note_off_c, 1, 54, 0
2, 92720, Note_on_c, 1, 66, 127
2, 92720, Note_on_c, 1, 70, 127
2, 92720, Note_on_c, 1, 73, 127
2, 92720, Note_on_c, 1, 76, 127
2, 92720, Note_on_c, 1, 78, 127
2, 92720, Note_on_c, 1, 82, 127
2, 92760, Note_on_c, 1, 50, 127
2, 92760, Note_on_c, 1, 55, 127
2, 92760, Note_on_c, 1, 60, 127
2, 92760, Note_on_c, 1, 62, 127
2, 92760, Note_off_c, 1, 66, 0
2, 92760, Note_on_c, 1, 69, 127
2, 92760, Note_off_c, 1, 70, 0
2, 92760, Note_off_c, 1, 73, 0
2, 92760, Note_off_c, 1, 76, 0
2, 92760, Note_off_c, 1, 78, 0
2, 92760, Note_off_c, 1, 82, 0
2, 92800, Note_on_c, 1, 46, 127
2, 92800, Note_off_c, 1, 50, 0
2, 92800, Note_off_c, 1, 55, 0
2, 92800, Note_off_c, 1, 60, 0
2, 92800, Note_off_c, 1, 62, 0
2, 92800, Note_on_c, 1, 63, 127
2, 92800, Note_on_c, 1, 66, 127
2, 92800, Note_off_c, 1, 69, 0
2, 92800, Note_on_c, 1, 70, 127
2, 92840, Note_off_c, 1, 46, 0
2, 92840, Note_off_c, 1, 63, 0
2, 92840, Note_off_c, 1, 66, 0
2, 92840, Note_off_c, 1, 70, 0
2, 92880, Note_on_c, 1, 44, 127
2, 92880, Note_on_c, 1, 56, 127
2, 92880, Note_on_c, 1, 86, 127
2, 92880, Note_on_c, 1, 90, 127
2, 92880, Note_on_c, 1, 98, 127
2, 93000, Note_off_c, 1, 44, 0
2, 93000, Note_off_c, 1, 56, 0
2, 93000, Note_off_c, 1, 86, 0
2, 93000, Note_off_c, 1, 90, 0
2, 93000, Note_off_c, 1, 98, 0
2, 93080, Note_on_c, 1, 44, 127
2, 93080, Note_on_c, 1, 56, 127
2, 93080, Note_on_c, 1, 86, 127
2, 93080, Note_on_c, 1, 90, 127
2, 93080, Note_on_c, 1, 98, 127
2, 93160, Note_off_c, 1, 44, 0
2, 93160, Note_off_c, 1, 56, 0
2, 93160, Note_off_c, 1, 86, 0
2, 93160, Note_off_c, 1, 90, 0
2, 93160, Note_off_c, 1, 98, 0
2, 93200, Note_on_c, 1, 44, 127
2, 93200, Note_on_c, 1, 56, 127
2, 93200, Note_on_c, 1, 86, 127
2, 93200, Note_on_c, 1, 90, 127
2, 93200, Note_on_c, 1, 98, 127
2, 93240, Note_on_c, 1, 43, 127
2, 93240, Note_off_c, 1, 44, 0
2, 93240, Note_on_c, 1, 55, 127
2, 93240, Note_off_c, 1, 56, 0
2, 93240, Note_off_c, 1, 86, 0
2, 93240, Note_on_c, 1, 87, 127
2, 93240, Note_off_c, 1, 90, 0
2, 93240, Note_on_c, 1, 91, 127
2, 93240, Note_off_c, 1, 98, 0
2, 93240, Note_on_c, 1, 99, 127
2, 93320, Note_off_c, 1, 43, 0
2, 93320, Note_off_c, 1, 55, 0
2, 93320, Note_off_c, 1, 87, 0
2, 93320, Note_off_c, 1, 91, 0
2, 93320, Note_off_c, 1, 99, 0
2, 93360, Note_on_c, 1, 43, 127
2, 93360, Note_on_c, 1, 55, 127
2, 93360, Note_on_c, 1, 87, 127
2, 93360, Note_on_c, 1, 91, 127
2, 93360, Note_on_c, 1, 99, 127
2, 93440, Note_off_c, 1, 43, 0
2, 93440, Note_off_c, 1, 55, 0
2, 93440, Note_off_c, 1, 87, 0
2, 93440, Note_off_c, 1, 91, 0
2, 93440, Note_off_c, 1, 99, 0
2, 93480, Note_on_c, 1, 43, 127
2, 93480, Note_on_c, 1, 55, 127
2, 93480, Note_on_c, 1, 87, 127
2, 93480, Note_on_c, 1, 91, 127
2, 93480, Note_on_c, 1, 99, 127
2, 93600, Note_off_c, 1, 43, 0
2, 93600, Note_off_c, 1, 55, 0
2, 93600, Note_off_c, 1, 87, 0
2, 93600, Note_off_c, 1, 91, 0
2, 93600, Note_off_c, 1, 99, 0
2, 93640, Note_on_c, 1, 43, 127
2, 93640, Note_on_c, 1, 55, 127
2, 93640, Note_on_c, 1, 87, 127
2, 93640, Note_on_c, 1, 91, 127
2, 93640, Note_on_c, 1, 99, 127
2, 93720, Note_off_c, 1, 43, 0
2, 93720, Note_off_c, 1, 55, 0
2, 93720, Note_off_c, 1, 87, 0
2, 93720, Note_off_c, 1, 91, 0
2, 93720, Note_off_c, 1, 99, 0
2, 93760, Note_on_c, 1, 43, 127
2, 93760, Note_on_c, 1, 55, 127
2, 93760, Note_on_c, 1, 87, 127
2, 93760, Note_on_c, 1, 91, 127
2, 93760, Note_on_c, 1, 99, 127
2, 93880, Note_off_c, 1, 43, 0
2, 93880, Note_off_c, 1, 55, 0
2, 93880, Note_off_c, 1, 87, 0
2, 93880, Note_off_c, 1, 91, 0
2, 93880, Note_off_c, 1, 99, 0
2, 93920, Note_on_c, 1, 43, 127
2, 93920, Note_on_c, 1, 55, 127
2, 93920, Note_on_c, 1, 87, 127
2, 93920, Note_on_c, 1, 91, 127
2, 93920, Note_on_c, 1, 99, 127
2, 94000, Note_off_c, 1, 43, 0
2, 94000, Note_off_c, 1, 55, 0
2, 94000, Note_off_c, 1, 87, 0
2, 94000, Note_off_c, 1, 91, 0
2, 94000, Note_off_c, 1, 99, 0
2, 94040, Note_on_c, 1, 43, 127
2, 94040, Note_on_c, 1, 55, 127
2, 94040, Note_on_c, 1, 87, 127
2, 94040, Note_on_c, 1, 91, 127
2, 94040, Note_on_c, 1, 99, 127
2, 94160, Note_off_c, 1, 43, 0
2, 94160, Note_off_c, 1, 55, 0
2, 94160, Note_off_c, 1, 87, 0
2, 94160, Note_off_c, 1, 91, 0
2, 94160, Note_off_c, 1, 99, 0
2, 94200, Note_on_c, 1, 64, 127
2, 94200, Note_on_c, 1, 73, 127
2, 94200, Note_on_c, 1, 76, 127
2, 94200, Note_on_c, 1, 82, 127
2, 94200, Note_on_c, 1, 85, 127
2, 94200, Note_on_c, 1, 94, 127
2, 94280, Note_off_c, 1, 64, 0
2, 94280, Note_off_c, 1, 73, 0
2, 94280, Note_off_c, 1, 76, 0
2, 94280, Note_off_c, 1, 82, 0
2, 94280, Note_off_c, 1, 85, 0
2, 94280, Note_off_c, 1, 94, 0
2, 94320, Note_on_c, 1, 36, 127
2, 94320, Note_on_c, 1, 40, 127
2, 94320, Note_on_c, 1, 48, 127
2, 94320, Note_on_c, 1, 54, 127
2, 94320, Note_on_c, 1, 64, 127
2, 94320, Note_on_c, 1, 66, 127
2, 94440, Note_off_c, 1, 36, 0
2, 94440, Note_off_c, 1, 40, 0
2, 94440, Note_off_c, 1, 48, 0
2, 94440, Note_off_c, 1, 54, 0
2, 94440, Note_off_c, 1, 64, 0
2, 94440, Note_off_c, 1, 66, 0
2, 94480, Note_on_c, 1, 36, 127
2, 94480, Note_on_c, 1, 40, 127
2, 94480, Note_on_c, 1, 48, 127
2, 94480, Note_on_c, 1, 54, 127
2, 94480, Note_on_c, 1, 64, 127
2, 94480, Note_on_c, 1, 66, 127
2, 94880, Note_off_c, 1, 36, 0
2, 94880, Note_off_c, 1, 40, 0
2, 94880, Note_off_c, 1, 48, 0
2, 94880, Note_off_c, 1, 54, 0
2, 94880, Note_off_c, 1, 64, 0
2, 94880, Note_off_c, 1, 66, 0
2, 94920, Note_on_c, 1, 34, 127
2, 94920, Note_on_c, 1, 46, 127
2, 94920, Note_on_c, 1, 76, 127
2, 94920, Note_on_c, 1, 88, 127
2, 94960, Note_off_c, 1, 34, 0
2, 94960, Note_off_c, 1, 46, 0
2, 94960, Note_on_c, 1, 66, 127
2, 94960, Note_on_c, 1, 73, 127
2, 94960, Note_on_c, 1, 78, 127
2, 94960, Note_on_c, 1, 82, 127
2, 94960, Note_off_c, 1, 88, 0
2, 94960, Note_on_c, 1, 90, 127
2, 95000, Note_off_c, 1, 66, 0
2, 95000, Note_off_c, 1, 73, 0
2, 95000, Note_off_c, 1, 76, 0
2, 95000, Note_off_c, 1, 78, 0
2, 95000, Note_off_c, 1, 82, 0
2, 95000, Note_off_c, 1, 90, 0
2, 95040, Note_on_c, 1, 58, 127
2, 95080, Note_off_c, 1, 58, 0
2, 95120, Note_on_c, 1, 44, 127
2, 95120, Note_on_c, 1, 53, 127
2, 95120, Note_on_c, 1, 56, 127
2, 95120, Note_on_c, 1, 73, 127
2, 95120, Note_on_c, 1, 80, 127
2, 95120, Note_on_c, 1, 85, 127
2, 95240, Note_off_c, 1, 44, 0
2, 95240, Note_off_c, 1, 53, 0
2, 95240, Note_off_c, 1, 56, 0
2, 95240, Note_off_c, 1, 73, 0
2, 95240, Note_off_c, 1, 80, 0
2, 95240, Note_off_c, 1, 85, 0
2, 95280, Note_on_c, 1, 44, 127
2, 95280, Note_on_c, 1, 49, 127
2, 95280, Note_on_c, 1, 56, 127
2, 95280, Note_on_c, 1, 70, 127
2, 95280, Note_on_c, 1, 80, 127
2, 95280, Note_on_c, 1, 82, 127
2, 95360, Note_off_c, 1, 44, 0
2, 95360, Note_off_c, 1, 49, 0
2, 95360, Note_on_c, 1, 51, 127
2, 95360, Note_off_c, 1, 70, 0
2, 95360, Note_off_c, 1, 80, 0
2, 95360, Note_off_c, 1, 82, 0
2, 95400, Note_on_c, 1, 44, 127
2, 95400, Note_on_c, 1, 49, 127
2, 95400, Note_off_c, 1, 51, 0
2, 95400, Note_on_c, 1, 70, 127
2, 95400, Note_on_c, 1, 80, 127
2, 95400, Note_on_c, 1, 82, 127
2, 95440, Note_off_c, 1, 44, 0
2, 95440, Note_off_c, 1, 49, 0
2, 95440, Note_off_c, 1, 56, 0
2, 95440, Note_off_c, 1, 70, 0
2, 95440, Note_off_c, 1, 80, 0
2, 95440, Note_off_c, 1, 82, 0
2, 95480, Note_on_c, 1, 44, 127
2, 95480, Note_on_c, 1, 49, 127
2, 95480, Note_on_c, 1, 56, 127
2, 95480, Note_on_c, 1, 70, 127
2, 95480, Note_on_c, 1, 80, 127
2, 95480, Note_on_c, 1, 82, 127
2, 95600, Note_off_c, 1, 44, 0
2, 95600, Note_off_c, 1, 49, 0
2, 95600, Note_off_c, 1, 56, 0
2, 95600, Note_off_c, 1, 70, 0
2, 95600, Note_off_c, 1, 80, 0
2, 95600, Note_off_c, 1, 82, 0
2, 95640, Note_on_c, 1, 44, 127
2, 95640, Note_on_c, 1, 49, 127
2, 95640, Note_on_c, 1, 56, 127
2, 95640, Note_on_c, 1, 70, 127
2, 95640, Note_on_c, 1, 80, 127
2, 95640, Note_on_c, 1, 82, 127
2, 95720, Note_off_c, 1, 44, 0
2, 95720, Note_off_c, 1, 49, 0
2, 95720, Note_on_c, 1, 55, 127
2, 95720, Note_off_c, 1, 56, 0
2, 95720, Note_off_c, 1, 70, 0
2, 95720, Note_off_c, 1, 80, 0
2, 95720, Note_off_c, 1, 82, 0
2, 95720, Note_on_c, 1, 93, 127
2, 95720, Note_on_c, 1, 96, 127
2, 95760, Note_off_c, 1, 55, 0
2, 95760, Note_off_c, 1, 93, 0
2, 95760, Note_off_c, 1, 96, 0
2, 95800, Note_on_c, 1, 44, 127
2, 95800, Note_on_c, 1, 51, 127
2, 95800, Note_on_c, 1, 56, 127
2, 95800, Note_on_c, 1, 72, 127
2, 95800, Note_on_c, 1, 80, 127
2, 95800, Note_on_c, 1, 84, 127
2, 95880, Note_off_c, 1, 44, 0
2, 95880, Note_off_c, 1, 51, 0
2, 95880, Note_off_c, 1, 56, 0
2, 95880, Note_off_c, 1, 72, 0
2, 95880, Note_off_c, 1, 80, 0
2, 95880, Note_off_c, 1, 84, 0
2, 95920, Note_on_c, 1, 63, 127
2, 95920, Note_on_c, 1, 70, 127
2, 95920, Note_on_c, 1, 75, 127
2, 95920, Note_on_c, 1, 79, 127
2, 96040, Note_off_c, 1, 63, 0
2, 96040, Note_off_c, 1, 70, 0
2, 96040, Note_off_c, 1, 75, 0
2, 96040, Note_off_c, 1, 79, 0
2, 96080, Note_on_c, 1, 58, 127
2, 96080, Note_on_c, 1, 63, 127
2, 96080, Note_on_c, 1, 87, 127
2, 96080, Note_on_c, 1, 94, 127
2, 96120, Note_off_c, 1, 58, 0
2, 96120, Note_on_c, 1, 62, 127
2, 96120, Note_off_c, 1, 63, 0
2, 96120, Note_on_c, 1, 67, 127
2, 96120, Note_on_c, 1, 71, 127
2, 96120, Note_on_c, 1, 74, 127
2, 96120, Note_on_c, 1, 77, 127
2, 96120, Note_on_c, 1, 83, 127
2, 96120, Note_off_c, 1, 87, 0
2, 96120, Note_off_c, 1, 94, 0
2, 96160, Note_on_c, 1, 39, 127
2, 96160, Note_on_c, 1, 46, 127
2, 96160, Note_on_c, 1, 59, 127
2, 96160, Note_off_c, 1, 62, 0
2, 96160, Note_on_c, 1, 66, 127
2, 96160, Note_off_c, 1, 67, 0
2, 96160, Note_on_c, 1, 69, 127
2, 96160, Note_off_c, 1, 74, 0
2, 96160, Note_off_c, 1, 77, 0
2, 96160, Note_off_c, 1, 83, 0
2, 96200, Note_off_c, 1, 39, 0
2, 96200, Note_off_c, 1, 46, 0
2, 96200, Note_off_c, 1, 59, 0
2, 96200, Note_off_c, 1, 66, 0
2, 96200, Note_off_c, 1, 69, 0
2, 96200, Note_off_c, 1, 71, 0
2, 96240, Note_on_c, 1, 32, 127
2, 96240, Note_on_c, 1, 82, 127
2, 96240, Note_on_c, 1, 91, 127
2, 96240, Note_on_c, 1, 94, 127
2, 96280, Note_off_c, 1, 32, 0
2, 96280, Note_on_c, 1, 46, 127
2, 96280, Note_on_c, 1, 55, 127
2, 96280, Note_on_c, 1, 63, 127
2, 96280, Note_on_c, 1, 67, 127
2, 96280, Note_on_c, 1, 75, 127
2, 96280, Note_off_c, 1, 82, 0
2, 96280, Note_off_c, 1, 91, 0
2, 96280, Note_off_c, 1, 94, 0
2, 96320, Note_off_c, 1, 46, 0
2, 96320, Note_off_c, 1, 55, 0
2, 96320, Note_off_c, 1, 63, 0
2, 96320, Note_off_c, 1, 67, 0
2, 96320, Note_off_c, 1, 75, 0
2, 96360, Note_on_c, 1, 32, 127
2, 96360, Note_on_c, 1, 82, 127
2, 96360, Note_on_c, 1, 91, 127
2, 96360, Note_on_c, 1, 94, 127
2, 96400, Note_off_c, 1, 32, 0
2, 96400, Note_on_c, 1, 39, 127
2, 96400, Note_off_c, 1, 82, 0
2, 96400, Note_off_c, 1, 91, 0
2, 96400, Note_off_c, 1, 94, 0
2, 96480, Note_off_c, 1, 39, 0
2, 96520, Note_on_c, 1, 41, 127
2, 96520, Note_on_c, 1, 82, 127
2, 96520, Note_on_c, 1, 94, 127
2, 96600, Note_off_c, 1, 41, 0
2, 96640, Note_on_c, 1, 46, 127
2, 96640, Note_on_c, 1, 53, 127
2, 96640, Note_on_c, 1, 65, 127
2, 96640, Note_on_c, 1, 73, 127
2, 96640, Note_on_c, 1, 77, 127
2, 96640, Note_off_c, 1, 82, 0
2, 96640, Note_off_c, 1, 94, 0
2, 96760, Note_off_c, 1, 46, 0
2, 96760, Note_off_c, 1, 53, 0
2, 96760, Note_off_c, 1, 65, 0
2, 96760, Note_off_c, 1, 73, 0
2, 96760, Note_on_c, 1, 76, 127
2, 96760, Note_off_c, 1, 77, 0
2, 96760, Note_on_c, 1, 82, 127
2, 96760, Note_on_c, 1, 85, 127
2, 96800, Note_on_c, 1, 61, 127
2, 96800, Note_on_c, 1, 65, 127
2, 96800, Note_on_c, 1, 67, 127
2, 96800, Note_on_c, 1, 70, 127
2, 96800, Note_off_c, 1, 76, 0
2, 96800, Note_on_c, 1, 79, 127
2, 96800, Note_on_c, 1, 80, 127
2, 96800, Note_off_c, 1, 82, 0
2, 96800, Note_off_c, 1, 85, 0
2, 96840, Note_off_c, 1, 61, 0
2, 96840, Note_off_c, 1, 67, 0
2, 96840, Note_on_c, 1, 74, 127
2, 96840, Note_on_c, 1, 77, 127
2, 96840, Note_off_c, 1, 79, 0
2, 96840, Note_off_c, 1, 80, 0
2, 96840, Note_on_c, 1, 86, 127
2, 96880, Note_on_c, 1, 37, 127
2, 96880, Note_on_c, 1, 51, 127
2, 96880, Note_off_c, 1, 65, 0
2, 96880, Note_on_c, 1, 66, 127
2, 96880, Note_off_c, 1, 70, 0
2, 96880, Note_off_c, 1, 74, 0
2, 96880, Note_off_c, 1, 77, 0
2, 96880, Note_on_c, 1, 78, 127
2, 96880, Note_off_c, 1, 86, 0
2, 96920, Note_off_c, 1, 37, 0
2, 96920, Note_on_c, 1, 53, 127
2, 96920, Note_on_c, 1, 57, 127
2, 96920, Note_off_c, 1, 66, 0
2, 96920, Note_off_c, 1, 78, 0
2, 96920, Note_on_c, 1, 84, 127
2, 96960, Note_off_c, 1, 51, 0
2, 96960, Note_off_c, 1, 57, 0
2, 96960, Note_on_c, 1, 58, 127
2, 96960, Note_on_c, 1, 65, 127
2, 96960, Note_on_c, 1, 73, 127
2, 96960, Note_on_c, 1, 76, 127
2, 96960, Note_off_c, 1, 84, 0
2, 97000, Note_on_c, 1, 44, 127
2, 97000, Note_off_c, 1, 53, 0
2, 97000, Note_on_c, 1, 55, 127
2, 97000, Note_off_c, 1, 58, 0
2, 97000, Note_on_c, 1, 61, 127
2, 97000, Note_on_c, 1, 63, 127
2, 97000, Note_off_c, 1, 65, 0
2, 97000, Note_on_c, 1, 67, 127
2, 97000, Note_off_c, 1, 76, 0
2, 97040, Note_on_c, 1, 36, 127
2, 97040, Note_off_c, 1, 44, 0
2, 97040, Note_off_c, 1, 55, 0
2, 97040, Note_off_c, 1, 61, 0
2, 97040, Note_on_c, 1, 62, 127
2, 97040, Note_off_c, 1, 63, 0
2, 97040, Note_off_c, 1, 67, 0
2, 97040, Note_off_c, 1, 73, 0
2, 97040, Note_on_c, 1, 77, 127
2, 97040, Note_on_c, 1, 81, 127
2, 97080, Note_off_c, 1, 36, 0
2, 97080, Note_off_c, 1, 62, 0
2, 97080, Note_off_c, 1, 77, 0
2, 97080, Note_off_c, 1, 81, 0
2, 97120, Note_on_c, 1, 36, 127
2, 97120, Note_on_c, 1, 43, 127
2, 97120, Note_on_c, 1, 48, 127
2, 97120, Note_on_c, 1, 79, 127
2, 97200, Note_off_c, 1, 79, 0
2, 97240, Note_off_c, 1, 36, 0
2, 97240, Note_off_c, 1, 43, 0
2, 97240, Note_off_c, 1, 48, 0
2, 97280, Note_on_c, 1, 36, 127
2, 97280, Note_on_c, 1, 43, 127
2, 97280, Note_on_c, 1, 48, 127
2, 97280, Note_on_c, 1, 79, 127
2, 97400, Note_off_c, 1, 36, 0
2, 97400, Note_off_c, 1, 43, 0
2, 97400, Note_off_c, 1, 48, 0
2, 97400, Note_off_c, 1, 79, 0
2, 97440, Note_on_c, 1, 36, 127
2, 97440, Note_on_c, 1, 43, 127
2, 97440, Note_on_c, 1, 48, 127
2, 97440, Note_on_c, 1, 72, 127
2, 97560, Note_off_c, 1, 36, 0
2, 97560, Note_off_c, 1, 43, 0
2, 97560, Note_off_c, 1, 48, 0
2, 97560, Note_on_c, 1, 54, 127
2, 97560, Note_off_c, 1, 72, 0
2, 97560, Note_on_c, 1, 78, 127
2, 97560, Note_on_c, 1, 90, 127
2, 97560, Note_on_c, 1, 93, 127
2, 97600, Note_on_c, 1, 36, 127
2, 97600, Note_on_c, 1, 43, 127
2, 97600, Note_on_c, 1, 48, 127
2, 97600, Note_off_c, 1, 54, 0
2, 97600, Note_on_c, 1, 72, 127
2, 97600, Note_off_c, 1, 78, 0
2, 97600, Note_off_c, 1, 90, 0
2, 97600, Note_off_c, 1, 93, 0
2, 97640, Note_off_c, 1, 48, 0
2, 97640, Note_off_c, 1, 72, 0
2, 97640, Note_on_c, 1, 79, 127
2, 97640, Note_on_c, 1, 87, 127
2, 97640, Note_on_c, 1, 91, 127
2, 97680, Note_off_c, 1, 36, 0
2, 97680, Note_off_c, 1, 43, 0
2, 97680, Note_on_c, 1, 48, 127
2, 97680, Note_on_c, 1, 59, 127
2, 97680, Note_on_c, 1, 67, 127
2, 97680, Note_on_c, 1, 70, 127
2, 97680, Note_off_c, 1, 79, 0
2, 97680, Note_off_c, 1, 87, 0
2, 97680, Note_off_c, 1, 91, 0
2, 97720, Note_off_c, 1, 48, 0
2, 97720, Note_off_c, 1, 59, 0
2, 97720, Note_off_c, 1, 67, 0
2, 97720, Note_off_c, 1, 70, 0
2, 97760, Note_on_c, 1, 31, 127
2, 97760, Note_on_c, 1, 60, 127
2, 97760, Note_on_c, 1, 63, 127
2, 97760, Note_on_c, 1, 72, 127
2, 97840, Note_off_c, 1, 31, 0
2, 97840, Note_on_c, 1, 43, 127
2, 97880, Note_on_c, 1, 31, 127
2, 97880, Note_off_c, 1, 43, 0
2, 98000, Note_off_c, 1, 31, 0
2, 98000, Note_on_c, 1, 43, 127
2, 98000, Note_off_c, 1, 60, 0
2, 98000, Note_off_c, 1, 63, 0
2, 98000, Note_off_c, 1, 72, 0
2, 98040, Note_off_c, 1, 43, 0
2, 98040, Note_on_c, 1, 62, 127
2, 98040, Note_on_c, 1, 69, 127
2, 98040, Note_on_c, 1, 70, 127
2, 98040, Note_on_c, 1, 74, 127
2, 98080, Note_on_c, 1, 31, 127
2, 98080, Note_off_c, 1, 62, 0
2, 98080, Note_on_c, 1, 67, 127
2, 98080, Note_off_c, 1, 69, 0
2, 98080, Note_off_c, 1, 70, 0
2, 98080, Note_on_c, 1, 71, 127
2, 98080, Note_off_c, 1, 74, 0
2, 98120, Note_off_c, 1, 31, 0
2, 98120, Note_on_c, 1, 46, 127
2, 98120, Note_on_c, 1, 63, 127
2, 98120, Note_off_c, 1, 67, 0
2, 98120, Note_on_c, 1, 69, 127
2, 98120, Note_off_c, 1, 71, 0
2, 98120, Note_on_c, 1, 75, 127
2, 98160, Note_on_c, 1, 40, 127
2, 98160, Note_off_c, 1, 63, 0
2, 98160, Note_off_c, 1, 69, 0
2, 98160, Note_on_c, 1, 73, 127
2, 98160, Note_off_c, 1, 75, 0
2, 98200, Note_on_c, 1, 36, 127
2, 98200, Note_off_c, 1, 40, 0
2, 98200, Note_off_c, 1, 46, 0
2, 98200, Note_on_c, 1, 58, 127
2, 98200, Note_on_c, 1, 61, 127
2, 98200, Note_on_c, 1, 67, 127
2, 98200, Note_off_c, 1, 73, 0
2, 98240, Note_off_c, 1, 36, 0
2, 98240, Note_off_c, 1, 58, 0
2, 98240, Note_off_c, 1, 61, 0
2, 98240, Note_off_c, 1, 67, 0
2, 98240, Note_on_c, 1, 75, 127
2, 98240, Note_on_c, 1, 83, 127
2, 98240, Note_on_c, 1, 85, 127
2, 98240, Note_on_c, 1, 90, 127
2, 98280, Note_off_c, 1, 75, 0
2, 98280, Note_off_c, 1, 83, 0
2, 98280, Note_off_c, 1, 85, 0
2, 98280, Note_off_c, 1, 90, 0
2, 98320, Note_on_c, 1, 64, 127
2, 98320, Note_on_c, 1, 72, 127
2, 98320, Note_on_c, 1, 91, 127
2, 98320, Note_on_c, 1, 93, 127
2, 98360, Note_on_c, 1, 36, 127
2, 98360, Note_on_c, 1, 48, 127
2, 98360, Note_off_c, 1, 64, 0
2, 98360, Note_on_c, 1, 71, 127
2, 98360, Note_off_c, 1, 72, 0
2, 98360, Note_on_c, 1, 76, 127
2, 98360, Note_on_c, 1, 83, 127
2, 98360, Note_off_c, 1, 91, 0
2, 98360, Note_off_c, 1, 93, 0
2, 98400, Note_on_c, 1, 32, 127
2, 98400, Note_off_c, 1, 36, 0
2, 98400, Note_on_c, 1, 44, 127
2, 98400, Note_off_c, 1, 48, 0
2, 98400, Note_on_c, 1, 51, 127
2, 98400, Note_on_c, 1, 56, 127
2, 98400, Note_on_c, 1, 59, 127
2, 98400, Note_off_c, 1, 71, 0
2, 98400, Note_off_c, 1, 76, 0
2, 98400, Note_off_c, 1, 83, 0
2, 98440, Note_on_c, 1, 26, 127
2, 98440, Note_off_c, 1, 32, 0
2, 98440, Note_on_c, 1, 38, 127
2, 98440, Note_off_c, 1, 44, 0
2, 98440, Note_off_c, 1, 51, 0
2, 98440, Note_off_c, 1, 56, 0
2, 98440, Note_off_c, 1, 59, 0
2, 98480, Note_off_c, 1, 26, 0
2, 98480, Note_off_c, 1, 38, 0
2, 98480, Note_on_c, 1, 56, 127
2, 98480, Note_on_c, 1, 63, 127
2, 98480, Note_on_c, 1, 78, 127
2, 98480, Note_on_c, 1, 80, 127
2, 98560, Note_on_c, 1, 55, 127
2, 98560, Note_off_c, 1, 56, 0
2, 98560, Note_off_c, 1, 63, 0
2, 98560, Note_on_c, 1, 72, 127
2, 98560, Note_on_c, 1, 75, 127
2, 98560, Note_off_c, 1, 78, 0
2, 98560, Note_off_c, 1, 80, 0
2, 98600, Note_off_c, 1, 55, 0
2, 98600, Note_off_c, 1, 72, 0
2, 98600, Note_off_c, 1, 75, 0
2, 98640, Note_on_c, 1, 30, 127
2, 98640, Note_on_c, 1, 37, 127
2, 98640, Note_on_c, 1, 42, 127
2, 98640, Note_on_c, 1, 81, 127
2, 98640, Note_on_c, 1, 85, 127
2, 98880, Note_off_c, 1, 30, 0
2, 98880, Note_off_c, 1, 37, 0
2, 98880, Note_off_c, 1, 42, 0
2, 98880, Note_off_c, 1, 81, 0
2, 98880, Note_off_c, 1, 85, 0
2, 98920, Note_on_c, 1, 32, 127
2, 98920, Note_on_c, 1, 96, 127
2, 98960, Note_on_c, 1, 87, 127
2, 98960, Note_off_c, 1, 96, 0
2, 99200, Note_off_c, 1, 32, 0
2, 99200, Note_off_c, 1, 87, 0
2, 99280, Note_on_c, 1, 51, 127
2, 99280, Note_on_c, 1, 54, 127
2, 99280, Note_on_c, 1, 57, 127
2, 99280, Note_on_c, 1, 58, 127
2, 99280, Note_on_c, 1, 70, 127
2, 99520, Note_off_c, 1, 51, 0
2, 99520, Note_off_c, 1, 54, 0
2, 99520, Note_off_c, 1, 57, 0
2, 99520, Note_off_c, 1, 58, 0
2, 99520, Note_off_c, 1, 70, 0
2, 99560, Note_on_c, 1, 34, 127
2, 99560, Note_on_c, 1, 46, 127
2, 99560, Note_on_c, 1, 55, 127
2, 99560, Note_on_c, 1, 62, 127
2, 99600, Note_off_c, 1, 34, 0
2, 99600, Note_off_c, 1, 46, 0
2, 99600, Note_off_c, 1, 55, 0
2, 99600, Note_off_c, 1, 62, 0
2, 99600, Note_on_c, 1, 63, 127
2, 99600, Note_on_c, 1, 78, 127
2, 99600, Note_on_c, 1, 84, 127
2, 99600, Note_on_c, 1, 87, 127
2, 99600, Note_on_c, 1, 90, 127
2, 99640, Note_on_c, 1, 34, 127
2, 99640, Note_on_c, 1, 41, 127
2, 99640, Note_on_c, 1, 46, 127
2, 99640, Note_off_c, 1, 63, 0
2, 99640, Note_on_c, 1, 77, 127
2, 99640, Note_off_c, 1, 78, 0
2, 99640, Note_on_c, 1, 82, 127
2, 99640, Note_off_c, 1, 84, 0
2, 99640, Note_off_c, 1, 87, 0
2, 99640, Note_off_c, 1, 90, 0
2, 99680, Note_off_c, 1, 34, 0
2, 99680, Note_off_c, 1, 41, 0
2, 99680, Note_on_c, 1, 45, 127
2, 99680, Note_off_c, 1, 46, 0
2, 99680, Note_on_c, 1, 55, 127
2, 99680, Note_on_c, 1, 57, 127
2, 99680, Note_on_c, 1, 76, 127
2, 99680, Note_off_c, 1, 77, 0
2, 99680, Note_off_c, 1, 82, 0
2, 99680, Note_on_c, 1, 85, 127
2, 99680, Note_on_c, 1, 88, 127
2, 99720, Note_off_c, 1, 45, 0
2, 99720, Note_on_c, 1, 50, 127
2, 99720, Note_off_c, 1, 55, 0
2, 99720, Note_off_c, 1, 57, 0
2, 99720, Note_on_c, 1, 62, 127
2, 99720, Note_on_c, 1, 66, 127
2, 99720, Note_on_c, 1, 69, 127
2, 99720, Note_on_c, 1, 72, 127
2, 99720, Note_on_c, 1, 74, 127
2, 99720, Note_off_c, 1, 76, 0
2, 99720, Note_off_c, 1, 85, 0
2, 99720, Note_off_c, 1, 88, 0
2, 99800, Note_off_c, 1, 50, 0
2, 99800, Note_off_c, 1, 62, 0
2, 99800, Note_off_c, 1, 66, 0
2, 99800, Note_off_c, 1, 69, 0
2, 99800, Note_off_c, 1, 72, 0
2, 99800, Note_off_c, 1, 74, 0
2, 99840, Note_on_c, 1, 39, 127
2, 99840, Note_on_c, 1, 51, 127
2, 99840, Note_on_c, 1, 67, 127
2, 99840, Note_on_c, 1, 72, 127
2, 99840, Note_on_c, 1, 75, 127
2, 100000, Note_on_c, 1, 34, 127
2, 100000, Note_off_c, 1, 39, 0
2, 100000, Note_on_c, 1, 46, 127
2, 100000, Note_off_c, 1, 51, 0
2, 100000, Note_off_c, 1, 67, 0
2, 100000, Note_off_c, 1, 72, 0
2, 100000, Note_off_c, 1, 75, 0
2, 100040, Note_on_c, 1, 32, 127
2, 100040, Note_off_c, 1, 34, 0
2, 100040, Note_on_c, 1, 44, 127
2, 100040, Note_off_c, 1, 46, 0
2, 100040, Note_on_c, 1, 84, 127
2, 100040, Note_on_c, 1, 87, 127
2, 100080, Note_off_c, 1, 32, 0
2, 100080, Note_off_c, 1, 44, 0
2, 100080, Note_off_c, 1, 84, 0
2, 100080, Note_off_c, 1, 87, 0
2, 100120, Note_on_c, 1, 60, 127
2, 100120, Note_on_c, 1, 65, 127
2, 100120, Note_on_c, 1, 68, 127
2, 100120, Note_on_c, 1, 82, 127
2, 100120, Note_on_c, 1, 94, 127
2, 100160, Note_on_c, 1, 42, 127
2, 100160, Note_on_c, 1, 57, 127
2, 100160, Note_off_c, 1, 60, 0
2, 100160, Note_off_c, 1, 65, 0
2, 100160, Note_on_c, 1, 66, 127
2, 100160, Note_off_c, 1, 68, 0
2, 100160, Note_on_c, 1, 69, 127
2, 100160, Note_off_c, 1, 82, 0
2, 100160, Note_off_c, 1, 94, 0
2, 100200, Note_on_c, 1, 49, 127
2, 100200, Note_on_c, 1, 54, 127
2, 100200, Note_off_c, 1, 57, 0
2, 100200, Note_off_c, 1, 66, 0
2, 100200, Note_on_c, 1, 71, 127
2, 100200, Note_on_c, 1, 81, 127
2, 100240, Note_on_c, 1, 28, 127
2, 100240, Note_on_c, 1, 40, 127
2, 100240, Note_off_c, 1, 42, 0
2, 100240, Note_off_c, 1, 49, 0
2, 100240, Note_on_c, 1, 51, 127
2, 100240, Note_off_c, 1, 54, 0
2, 100240, Note_off_c, 1, 69, 0
2, 100240, Note_off_c, 1, 71, 0
2, 100240, Note_off_c, 1, 81, 0
2, 100280, Note_off_c, 1, 28, 0
2, 100280, Note_off_c, 1, 40, 0
2, 100280, Note_on_c, 1, 43, 127
2, 100280, Note_off_c, 1, 51, 0
2, 100280, Note_on_c, 1, 52, 127
2, 100280, Note_on_c, 1, 55, 127
2, 100280, Note_on_c, 1, 64, 127
2, 100280, Note_on_c, 1, 72, 127
2, 100280, Note_on_c, 1, 76, 127
2, 100360, Note_on_c, 1, 34, 127
2, 100360, Note_off_c, 1, 43, 0
2, 100360, Note_on_c, 1, 46, 127
2, 100360, Note_off_c, 1, 52, 0
2, 100360, Note_off_c, 1, 55, 0
2, 100360, Note_off_c, 1, 64, 0
2, 100360, Note_off_c, 1, 72, 0
2, 100360, Note_off_c, 1, 76, 0
2, 100400, Note_off_c, 1, 34, 0
2, 100400, Note_on_c, 1, 39, 127
2, 100400, Note_off_c, 1, 46, 0
2, 100400, Note_on_c, 1, 51, 127
2, 100400, Note_on_c, 1, 66, 127
2, 100400, Note_on_c, 1, 70, 127
2, 100400, Note_on_c, 1, 78, 127
2, 100520, Note_off_c, 1, 51, 0
2, 100520, Note_off_c, 1, 66, 0
2, 100520, Note_off_c, 1, 70, 0
2, 100520, Note_off_c, 1, 78, 0
2, 100560, Note_on_c, 1, 38, 127
2, 100560, Note_off_c, 1, 39, 0
2, 100560, Note_on_c, 1, 55, 127
2, 100560, Note_on_c, 1, 59, 127
2, 100560, Note_on_c, 1, 67, 127
2, 100560, Note_on_c, 1, 71, 127
2, 100640, Note_off_c, 1, 38, 0
2, 100640, Note_off_c, 1, 55, 0
2, 100640, Note_off_c, 1, 59, 0
2, 100640, Note_off_c, 1, 67, 0
2, 100640, Note_off_c, 1, 71, 0
2, 100680, Note_on_c, 1, 72, 127
2, 100680, Note_on_c, 1, 80, 127
2, 100680, Note_on_c, 1, 87, 127
2, 100800, Note_off_c, 1, 72, 0
2, 100800, Note_on_c, 1, 75, 127
2, 100800, Note_off_c, 1, 87, 0
2, 100840, Note_on_c, 1, 60, 127
2, 100840, Note_off_c, 1, 75, 0
2, 100840, Note_on_c, 1, 77, 127
2, 100840, Note_off_c, 1, 80, 0
2, 100840, Note_on_c, 1, 85, 127
2, 100960, Note_off_c, 1, 60, 0
2, 101000, Note_on_c, 1, 46, 127
2, 101000, Note_on_c, 1, 53, 127
2, 101000, Note_off_c, 1, 77, 0
2, 101000, Note_on_c, 1, 81, 127
2, 101000, Note_on_c, 1, 84, 127
2, 101000, Note_off_c, 1, 85, 0
2, 101000, Note_on_c, 1, 87, 127
2, 101000, Note_on_c, 1, 89, 127
2, 101080, Note_off_c, 1, 46, 0
2, 101080, Note_on_c, 1, 51, 127
2, 101080, Note_off_c, 1, 53, 0
2, 101080, Note_on_c, 1, 62, 127
2, 101080, Note_on_c, 1, 65, 127
2, 101080, Note_on_c, 1, 67, 127
2, 101080, Note_on_c, 1, 79, 127
2, 101080, Note_off_c, 1, 81, 0
2, 101080, Note_off_c, 1, 84, 0
2, 101080, Note_off_c, 1, 87, 0
2, 101080, Note_off_c, 1, 89, 0
2, 101120, Note_on_c, 1, 46, 127
2, 101120, Note_off_c, 1, 51, 0
2, 101120, Note_on_c, 1, 53, 127
2, 101120, Note_off_c, 1, 62, 0
2, 101120, Note_off_c, 1, 65, 0
2, 101120, Note_off_c, 1, 67, 0
2, 101120, Note_off_c, 1, 79, 0
2, 101120, Note_on_c, 1, 81, 127
2, 101120, Note_on_c, 1, 84, 127
2, 101120, Note_on_c, 1, 87, 127
2, 101120, Note_on_c, 1, 89, 127
2, 101200, Note_off_c, 1, 46, 0
2, 101200, Note_off_c, 1, 53, 0
2, 101200, Note_off_c, 1, 81, 0
2, 101200, Note_off_c, 1, 84, 0
2, 101200, Note_off_c, 1, 87, 0
2, 101200, Note_off_c, 1, 89, 0
2, 101240, Note_on_c, 1, 46, 127
2, 101240, Note_on_c, 1, 53, 127
2, 101240, Note_on_c, 1, 81, 127
2, 101240, Note_on_c, 1, 84, 127
2, 101240, Note_on_c, 1, 87, 127
2, 101240, Note_on_c, 1, 89, 127
2, 101280, Note_off_c, 1, 46, 0
2, 101280, Note_off_c, 1, 53, 0
2, 101280, Note_off_c, 1, 81, 0
2, 101280, Note_off_c, 1, 84, 0
2, 101280, Note_off_c, 1, 87, 0
2, 101280, Note_off_c, 1, 89, 0
2, 101320, Note_on_c, 1, 46, 127
2, 101320, Note_on_c, 1, 61, 127
2, 101320, Note_on_c, 1, 65, 127
2, 101320, Note_on_c, 1, 67, 127
2, 101600, Note_off_c, 1, 46, 0
2, 101600, Note_on_c, 1, 58, 127
2, 101600, Note_on_c, 1, 60, 127
2, 101600, Note_off_c, 1, 61, 0
2, 101600, Note_off_c, 1, 67, 0
2, 101600, Note_on_c, 1, 72, 127
2, 101600, Note_on_c, 1, 75, 127
2, 101640, Note_on_c, 1, 50, 127
2, 101640, Note_on_c, 1, 57, 127
2, 101640, Note_off_c, 1, 58, 0
2, 101640, Note_off_c, 1, 60, 0
2, 101640, Note_off_c, 1, 65, 0
2, 101640, Note_on_c, 1, 66, 127
2, 101640, Note_on_c, 1, 71, 127
2, 101640, Note_off_c, 1, 72, 0
2, 101640, Note_on_c, 1, 74, 127
2, 101640, Note_off_c, 1, 75, 0
2, 101720, Note_on_c, 1, 49, 127
2, 101720, Note_off_c, 1, 50, 0
2, 101720, Note_on_c, 1, 56, 127
2, 101720, Note_off_c, 1, 57, 0
2, 101720, Note_on_c, 1, 59, 127
2, 101720, Note_off_c, 1, 71, 0
2, 101720, Note_off_c, 1, 74, 0
2, 101720, Note_on_c, 1, 81, 127
2, 101760, Note_off_c, 1, 49, 0
2, 101760, Note_on_c, 1, 53, 127
2, 101760, Note_off_c, 1, 56, 0
2, 101760, Note_off_c, 1, 59, 0
2, 101760, Note_off_c, 1, 66, 0
2, 101760, Note_on_c, 1, 70, 127
2, 101760, Note_on_c, 1, 75, 127
2, 101760, Note_on_c, 1, 79, 127
2, 101760, Note_off_c, 1, 81, 0
2, 101760, Note_on_c, 1, 82, 127
2, 101800, Note_off_c, 1, 53, 0
2, 101800, Note_on_c, 1, 60, 127
2, 101800, Note_on_c, 1, 63, 127
2, 101800, Note_on_c, 1, 69, 127
2, 101800, Note_off_c, 1, 70, 0
2, 101800, Note_on_c, 1, 72, 127
2, 101800, Note_on_c, 1, 78, 127
2, 101800, Note_off_c, 1, 79, 0
2, 101800, Note_off_c, 1, 82, 0
2, 101840, Note_on_c, 1, 34, 127
2, 101840, Note_on_c, 1, 43, 127
2, 101840, Note_on_c, 1, 50, 127
2, 101840, Note_off_c, 1, 60, 0
2, 101840, Note_on_c, 1, 62, 127
2, 101840, Note_off_c, 1, 63, 0
2, 101840, Note_off_c, 1, 69, 0
2, 101840, Note_off_c, 1, 72, 0
2, 101840, Note_off_c, 1, 75, 0
2, 101840, Note_off_c, 1, 78, 0
2, 101880, Note_off_c, 1, 34, 0
2, 101880, Note_off_c, 1, 43, 0
2, 101880, Note_off_c, 1, 50, 0
2, 101880, Note_off_c, 1, 62, 0
2, 101920, Note_on_c, 1, 60, 127
2, 101920, Note_on_c, 1, 67, 127
2, 101920, Note_on_c, 1, 70, 127
2, 101920, Note_on_c, 1, 72, 127
2, 101920, Note_on_c, 1, 77, 127
2, 102160, Note_off_c, 1, 60, 0
2, 102160, Note_off_c, 1, 67, 0
2, 102160, Note_off_c, 1, 70, 0
2, 102160, Note_off_c, 1, 72, 0
2, 102160, Note_off_c, 1, 77, 0
2, 102200, Note_on_c, 1, 67, 127
2, 102200, Note_on_c, 1, 73, 127
2, 102200, Note_on_c, 1, 77, 127
2, 102200, Note_on_c, 1, 91, 127
2, 102200, Note_on_c, 1, 94, 127
2, 102200, Note_on_c, 1, 103, 127
2, 102440, Note_on_c, 1, 55, 127
2, 102440, Note_on_c, 1, 58, 127
2, 102440, Note_off_c, 1, 67, 0
2, 102440, Note_off_c, 1, 77, 0
2, 102440, Note_on_c, 1, 79, 127
2, 102440, Note_on_c, 1, 85, 127
2, 102440, Note_off_c, 1, 91, 0
2, 102440, Note_off_c, 1, 94, 0
2, 102440, Note_off_c, 1, 103, 0
2, 102480, Note_off_c, 1, 55, 0
2, 102480, Note_off_c, 1, 58, 0
2, 102480, Note_off_c, 1, 73, 0
2, 102480, Note_off_c, 1, 79, 0
2, 102480, Note_off_c, 1, 85, 0
2, 102520, Note_on_c, 1, 36, 127
2, 102520, Note_on_c, 1, 44, 127
2, 102520, Note_on_c, 1, 48, 127
2, 102520, Note_on_c, 1, 75, 127
2, 102520, Note_on_c, 1, 78, 127
2, 102520, Note_on_c, 1, 84, 127
2, 102520, Note_on_c, 1, 87, 127
2, 102760, Note_off_c, 1, 36, 0
2, 102760, Note_on_c, 1, 38, 127
2, 102760, Note_off_c, 1, 44, 0
2, 102760, Note_on_c, 1, 47, 127
2, 102760, Note_off_c, 1, 48, 0
2, 102760, Note_on_c, 1, 68, 127
2, 102760, Note_off_c, 1, 75, 0
2, 102760, Note_off_c, 1, 78, 0
2, 102760, Note_on_c, 1, 80, 127
2, 102760, Note_off_c, 1, 84, 0
2, 102760, Note_off_c, 1, 87, 0
2, 102800, Note_on_c, 1, 36, 127
2, 102800, Note_off_c, 1, 38, 0
2, 102800, Note_on_c, 1, 44, 127
2, 102800, Note_off_c, 1, 47, 0
2, 102800, Note_on_c, 1, 48, 127
2, 102800, Note_off_c, 1, 68, 0
2, 102800, Note_on_c, 1, 75, 127
2, 102800, Note_on_c, 1, 78, 127
2, 102800, Note_off_c, 1, 80, 0
2, 102800, Note_on_c, 1, 84, 127
2, 102800, Note_on_c, 1, 87, 127
2, 103040, Note_off_c, 1, 36, 0
2, 103040, Note_off_c, 1, 44, 0
2, 103040, Note_off_c, 1, 48, 0
2, 103040, Note_off_c, 1, 75, 0
2, 103040, Note_off_c, 1, 78, 0
2, 103040, Note_off_c, 1, 84, 0
2, 103040, Note_off_c, 1, 87, 0
2, 103080, Note_on_c, 1, 36, 127
2, 103080, Note_on_c, 1, 44, 127
2, 103080, Note_on_c, 1, 48, 127
2, 103080, Note_on_c, 1, 75, 127
2, 103080, Note_on_c, 1, 78, 127
2, 103080, Note_on_c, 1, 84, 127
2, 103080, Note_on_c, 1, 87, 127
2, 103320, Note_off_c, 1, 36, 0
2, 103320, Note_off_c, 1, 44, 0
2, 103320, Note_off_c, 1, 48, 0
2, 103320, Note_off_c, 1, 75, 0
2, 103320, Note_off_c, 1, 78, 0
2, 103320, Note_off_c, 1, 84, 0
2, 103320, Note_off_c, 1, 87, 0
2, 103360, Note_on_c, 1, 36, 127
2, 103360, Note_on_c, 1, 44, 127
2, 103360, Note_on_c, 1, 48, 127
2, 103360, Note_on_c, 1, 75, 127
2, 103360, Note_on_c, 1, 78, 127
2, 103360, Note_on_c, 1, 84, 127
2, 103360, Note_on_c, 1, 87, 127
2, 103640, Note_off_c, 1, 36, 0
2, 103640, Note_off_c, 1, 44, 0
2, 103640, Note_off_c, 1, 48, 0
2, 103640, Note_off_c, 1, 75, 0
2, 103640, Note_off_c, 1, 78, 0
2, 103640, Note_off_c, 1, 84, 0
2, 103640, Note_off_c, 1, 87, 0
2, 103680, Note_on_c, 1, 40, 127
2, 103680, Note_on_c, 1, 68, 127
2, 103680, Note_on_c, 1, 81, 127
2, 103720, Note_off_c, 1, 40, 0
2, 103720, Note_on_c, 1, 47, 127
2, 103720, Note_on_c, 1, 54, 127
2, 103720, Note_off_c, 1, 68, 0
2, 103720, Note_on_c, 1, 73, 127
2, 103720, Note_on_c, 1, 76, 127
2, 103720, Note_off_c, 1, 81, 0
2, 103760, Note_on_c, 1, 28, 127
2, 103760, Note_on_c, 1, 40, 127
2, 103760, Note_off_c, 1, 47, 0
2, 103760, Note_on_c, 1, 50, 127
2, 103760, Note_on_c, 1, 52, 127
2, 103760, Note_off_c, 1, 54, 0
2, 103760, Note_on_c, 1, 56, 127
2, 103760, Note_on_c, 1, 60, 127
2, 103760, Note_off_c, 1, 73, 0
2, 103760, Note_off_c, 1, 76, 0
2, 103800, Note_off_c, 1, 28, 0
2, 103800, Note_on_c, 1, 38, 127
2, 103800, Note_off_c, 1, 40, 0
2, 103800, Note_on_c, 1, 45, 127
2, 103800, Note_off_c, 1, 52, 0
2, 103800, Note_off_c, 1, 56, 0
2, 103800, Note_off_c, 1, 60, 0
2, 103800, Note_on_c, 1, 81, 127
2, 103800, Note_on_c, 1, 93, 127
2, 103840, Note_off_c, 1, 38, 0
2, 103840, Note_off_c, 1, 45, 0
2, 103840, Note_off_c, 1, 50, 0
2, 103840, Note_on_c, 1, 51, 127
2, 103840, Note_on_c, 1, 58, 127
2, 103840, Note_on_c, 1, 62, 127
2, 103840, Note_on_c, 1, 74, 127
2, 103840, Note_off_c, 1, 81, 0
2, 103840, Note_on_c, 1, 82, 127
2, 103840, Note_on_c, 1, 86, 127
2, 103840, Note_off_c, 1, 93, 0
2, 103880, Note_on_c, 1, 47, 127
2, 103880, Note_off_c, 1, 51, 0
2, 103880, Note_off_c, 1, 58, 0
2, 103880, Note_off_c, 1, 62, 0
2, 103880, Note_off_c, 1, 74, 0
2, 103880, Note_off_c, 1, 82, 0
2, 103880, Note_off_c, 1, 86, 0
2, 103920, Note_on_c, 1, 54, 127
2, 103920, Note_on_c, 1, 81, 127
2, 103960, Note_off_c, 1, 81, 0
2, 104000, Note_on_c, 1, 44, 127
2, 104000, Note_on_c, 1, 52, 127
2, 104000, Note_off_c, 1, 54, 0
2, 104000, Note_on_c, 1, 56, 127
2, 104000, Note_on_c, 1, 59, 127
2, 104240, Note_on_c, 1, 30, 127
2, 104240, Note_on_c, 1, 42, 127
2, 104240, Note_off_c, 1, 44, 0
2, 104240, Note_off_c, 1, 47, 0
2, 104240, Note_off_c, 1, 52, 0
2, 104240, Note_off_c, 1, 56, 0
2, 104240, Note_on_c, 1, 61, 127
2, 104240, Note_on_c, 1, 66, 127
2, 104240, Note_on_c, 1, 71, 127
2, 104280, Note_off_c, 1, 30, 0
2, 104280, Note_off_c, 1, 42, 0
2, 104280, Note_on_c, 1, 49, 127
2, 104280, Note_on_c, 1, 56, 127
2, 104280, Note_off_c, 1, 59, 0
2, 104280, Note_off_c, 1, 61, 0
2, 104280, Note_off_c, 1, 66, 0
2, 104280, Note_on_c, 1, 68, 127
2, 104280, Note_off_c, 1, 71, 0
2, 104280, Note_on_c, 1, 73, 127
2, 104280, Note_on_c, 1, 76, 127
2, 104280, Note_on_c, 1, 80, 127
2, 104320, Note_on_c, 1, 47, 127
2, 104320, Note_off_c, 1, 49, 0
2, 104320, Note_off_c, 1, 73, 0
2, 104320, Note_off_c, 1, 80, 0
2, 104360, Note_off_c, 1, 47, 0
2, 104360, Note_off_c, 1, 56, 0
2, 104360, Note_on_c, 1, 57, 127
2, 104360, Note_on_c, 1, 62, 127
2, 104360, Note_off_c, 1, 68, 0
2, 104360, Note_on_c, 1, 69, 127
2, 104360, Note_on_c, 1, 72, 127
2, 104360, Note_off_c, 1, 76, 0
2, 104360, Note_on_c, 1, 84, 127
2, 104400, Note_on_c, 1, 37, 127
2, 104400, Note_on_c, 1, 53, 127
2, 104400, Note_off_c, 1, 57, 0
2, 104400, Note_on_c, 1, 59, 127
2, 104400, Note_off_c, 1, 62, 0
2, 104400, Note_off_c, 1, 69, 0
2, 104400, Note_on_c, 1, 71, 127
2, 104400, Note_off_c, 1, 72, 0
2, 104400, Note_off_c, 1, 84, 0
2, 104440, Note_on_c, 1, 34, 127
2, 104440, Note_off_c, 1, 37, 0
2, 104440, Note_on_c, 1, 45, 127
2, 104440, Note_on_c, 1, 46, 127
2, 104440, Note_off_c, 1, 53, 0
2, 104440, Note_on_c, 1, 58, 127
2, 104440, Note_off_c, 1, 59, 0
2, 104440, Note_on_c, 1, 61, 127
2, 104440, Note_on_c, 1, 66, 127
2, 104440, Note_off_c, 1, 71, 0
2, 104480, Note_off_c, 1, 34, 0
2, 104480, Note_on_c, 1, 39, 127
2, 104480, Note_on_c, 1, 44, 127
2, 104480, Note_off_c, 1, 45, 0
2, 104480, Note_off_c, 1, 46, 0
2, 104480, Note_on_c, 1, 51, 127
2, 104480, Note_off_c, 1, 58, 0
2, 104480, Note_off_c, 1, 61, 0
2, 104480, Note_off_c, 1, 66, 0
2, 104480, Note_on_c, 1, 84, 127
2, 104480, Note_on_c, 1, 90, 127
2, 104520, Note_off_c, 1, 39, 0
2, 104520, Note_off_c, 1, 44, 0
2, 104520, Note_on_c, 1, 54, 127
2, 104520, Note_off_c, 1, 84, 0
2, 104520, Note_off_c, 1, 90, 0
2, 104560, Note_on_c, 1, 50, 127
2, 104560, Note_off_c, 1, 51, 0
2, 104560, Note_off_c, 1, 54, 0
2, 104560, Note_on_c, 1, 59, 127
2, 104560, Note_on_c, 1, 62, 127
2, 104560, Note_on_c, 1, 85, 127
2, 104600, Note_on_c, 1, 46, 127
2, 104600, Note_on_c, 1, 54, 127
2, 104600, Note_off_c, 1, 59, 0
2, 104600, Note_off_c, 1, 62, 0
2, 104600, Note_on_c, 1, 66, 127
2, 104600, Note_on_c, 1, 74, 127
2, 104600, Note_on_c, 1, 78, 127
2, 104600, Note_off_c, 1, 85, 0
2, 104640, Note_off_c, 1, 46, 0
2, 104640, Note_off_c, 1, 50, 0
2, 104640, Note_off_c, 1, 54, 0
2, 104640, Note_on_c, 1, 56, 127
2, 104640, Note_on_c, 1, 60, 127
2, 104640, Note_off_c, 1, 66, 0
2, 104640, Note_off_c, 1, 74, 0
2, 104640, Note_off_c, 1, 78, 0
2, 104640, Note_on_c, 1, 84, 127
2, 104640, Note_on_c, 1, 87, 127
2, 104680, Note_on_c, 1, 45, 127
2, 104680, Note_off_c, 1, 56, 0
2, 104680, Note_off_c, 1, 60, 0
2, 104680, Note_on_c, 1, 71, 127
2, 104680, Note_on_c, 1, 78, 127
2, 104680, Note_off_c, 1, 84, 0
2, 104680, Note_off_c, 1, 87, 0
2, 104720, Note_off_c, 1, 45, 0
2, 104720, Note_on_c, 1, 46, 127
2, 104720, Note_on_c, 1, 51, 127
2, 104720, Note_on_c, 1, 66, 127
2, 104720, Note_on_c, 1, 70, 127
2, 104720, Note_off_c, 1, 71, 0
2, 104720, Note_off_c, 1, 78, 0
2, 104760, Note_off_c, 1, 46, 0
2, 104760, Note_off_c, 1, 51, 0
2, 104760, Note_on_c, 1, 56, 127
2, 104760, Note_on_c, 1, 62, 127
2, 104760, Note_off_c, 1, 66, 0
2, 104760, Note_on_c, 1, 68, 127
2, 104760, Note_off_c, 1, 70, 0
2, 104760, Note_on_c, 1, 73, 127
2, 104800, Note_on_c, 1, 40, 127
2, 104800, Note_on_c, 1, 52, 127
2, 104800, Note_off_c, 1, 56, 0
2, 104800, Note_on_c, 1, 59, 127
2, 104800, Note_off_c, 1, 73, 0
2, 104800, Note_on_c, 1, 88, 127
2, 104840, Note_off_c, 1, 40, 0
2, 104840, Note_on_c, 1, 49, 127
2, 104840, Note_off_c, 1, 52, 0
2, 104840, Note_on_c, 1, 55, 127
2, 104840, Note_off_c, 1, 59, 0
2, 104840, Note_on_c, 1, 61, 127
2, 104840, Note_off_c, 1, 62, 0
2, 104840, Note_on_c, 1, 64, 127
2, 104840, Note_off_c, 1, 68, 0
2, 104840, Note_off_c, 1, 88, 0
2, 104880, Note_off_c, 1, 55, 0
2, 104880, Note_on_c, 1, 59, 127
2, 104880, Note_off_c, 1, 61, 0
2, 104880, Note_off_c, 1, 64, 0
2, 104880, Note_on_c, 1, 68, 127
2, 104880, Note_on_c, 1, 73, 127
2, 104880, Note_on_c, 1, 77, 127
2, 104920, Note_off_c, 1, 49, 0
2, 104920, Note_off_c, 1, 59, 0
2, 104920, Note_on_c, 1, 64, 127
2, 104920, Note_off_c, 1, 68, 0
2, 104920, Note_off_c, 1, 73, 0
2, 104920, Note_on_c, 1, 76, 127
2, 104920, Note_off_c, 1, 77, 0
2, 104960, Note_on_c, 1, 35, 127
2, 104960, Note_on_c, 1, 40, 127
2, 104960, Note_on_c, 1, 47, 127
2, 104960, Note_on_c, 1, 59, 127
2, 104960, Note_off_c, 1, 64, 0
2, 104960, Note_on_c, 1, 68, 127
2, 104960, Note_on_c, 1, 71, 127
2, 104960, Note_off_c, 1, 76, 0
2, 104960, Note_on_c, 1, 83, 127
2, 104960, Note_on_c, 1, 88, 127
2, 104960, Note_on_c, 1, 92, 127
2, 105000, Note_off_c, 1, 35, 0
2, 105000, Note_off_c, 1, 40, 0
2, 105000, Note_off_c, 1, 47, 0
2, 105000, Note_off_c, 1, 59, 0
2, 105000, Note_off_c, 1, 68, 0
2, 105000, Note_off_c, 1, 71, 0
2, 105000, Note_off_c, 1, 83, 0
2, 105000, Note_on_c, 1, 87, 127
2, 105000, Note_off_c, 1, 88, 0
2, 105000, Note_off_c, 1, 92, 0
2, 105000, Note_on_c, 1, 96, 127
2, 105000, Note_on_c, 1, 103, 127
2, 105040, Note_on_c, 1, 59, 127
2, 105040, Note_on_c, 1, 68, 127
2, 105040, Note_on_c, 1, 71, 127
2, 105040, Note_on_c, 1, 80, 127
2, 105040, Note_off_c, 1, 87, 0
2, 105040, Note_on_c, 1, 92, 127
2, 105040, Note_off_c, 1, 96, 0
2, 105040, Note_off_c, 1, 103, 0
2, 105080, Note_off_c, 1, 59, 0
2, 105080, Note_off_c, 1, 68, 0
2, 105080, Note_off_c, 1, 71, 0
2, 105080, Note_off_c, 1, 80, 0
2, 105080, Note_off_c, 1, 92, 0
2, 105120, Note_on_c, 1, 51, 127
2, 105120, Note_on_c, 1, 82, 127
2, 105120, Note_on_c, 1, 91, 127
2, 105120, Note_on_c, 1, 96, 127
2, 105160, Note_off_c, 1, 51, 0
2, 105160, Note_on_c, 1, 60, 127
2, 105160, Note_on_c, 1, 64, 127
2, 105160, Note_on_c, 1, 67, 127
2, 105160, Note_off_c, 1, 82, 0
2, 105160, Note_on_c, 1, 103, 127
2, 105200, Note_on_c, 1, 36, 127
2, 105200, Note_on_c, 1, 43, 127
2, 105200, Note_off_c, 1, 60, 0
2, 105200, Note_off_c, 1, 64, 0
2, 105200, Note_on_c, 1, 65, 127
2, 105200, Note_off_c, 1, 67, 0
2, 105200, Note_off_c, 1, 91, 0
2, 105200, Note_off_c, 1, 96, 0
2, 105200, Note_off_c, 1, 103, 0
2, 105240, Note_off_c, 1, 36, 0
2, 105240, Note_off_c, 1, 43, 0
2, 105240, Note_on_c, 1, 47, 127
2, 105240, Note_on_c, 1, 54, 127
2, 105240, Note_on_c, 1, 59, 127
2, 105240, Note_off_c, 1, 65, 0
2, 105240, Note_on_c, 1, 83, 127
2, 105240, Note_on_c, 1, 86, 127
2, 105240, Note_on_c, 1, 90, 127
2, 105240, Note_on_c, 1, 95, 127
2, 105280, Note_off_c, 1, 47, 0
2, 105280, Note_off_c, 1, 54, 0
2, 105280, Note_on_c, 1, 55, 127
2, 105280, Note_on_c, 1, 62, 127
2, 105280, Note_on_c, 1, 69, 127
2, 105280, Note_on_c, 1, 79, 127
2, 105280, Note_off_c, 1, 83, 0
2, 105280, Note_off_c, 1, 86, 0
2, 105280, Note_off_c, 1, 90, 0
2, 105280, Note_off_c, 1, 95, 0
2, 105320, Note_on_c, 1, 46, 127
2, 105320, Note_off_c, 1, 55, 0
2, 105320, Note_on_c, 1, 56, 127
2, 105320, Note_off_c, 1, 59, 0
2, 105320, Note_on_c, 1, 65, 127
2, 105320, Note_on_c, 1, 67, 127
2, 105320, Note_off_c, 1, 69, 0
2, 105320, Note_off_c, 1, 79, 0
2, 105360, Note_off_c, 1, 46, 0
2, 105360, Note_off_c, 1, 56, 0
2, 105360, Note_off_c, 1, 62, 0
2, 105360, Note_off_c, 1, 65, 0
2, 105360, Note_off_c, 1, 67, 0
2, 105400, Note_on_c, 1, 57, 127
2, 105400, Note_on_c, 1, 64, 127
2, 105400, Note_on_c, 1, 68, 127
2, 105400, Note_on_c, 1, 71, 127
2, 105440, Note_off_c, 1, 57, 0
2, 105440, Note_off_c, 1, 64, 0
2, 105440, Note_off_c, 1, 68, 0
2, 105440, Note_off_c, 1, 71, 0
2, 105480, Note_on_c, 1, 57, 127
2, 105480, Note_on_c, 1, 64, 127
2, 105480, Note_on_c, 1, 68, 127
2, 105480, Note_on_c, 1, 71, 127
2, 105520, Note_off_c, 1, 57, 0
2, 105520, Note_off_c, 1, 64, 0
2, 105520, Note_off_c, 1, 71, 0
2, 105520, Note_on_c, 1, 81, 127
2, 105560, Note_on_c, 1, 41, 127
2, 105560, Note_on_c, 1, 53, 127
2, 105560, Note_on_c, 1, 65, 127
2, 105560, Note_off_c, 1, 68, 0
2, 105560, Note_on_c, 1, 69, 127
2, 105560, Note_on_c, 1, 73, 127
2, 105560, Note_off_c, 1, 81, 0
2, 105600, Note_on_c, 1, 37, 127
2, 105600, Note_off_c, 1, 41, 0
2, 105600, Note_on_c, 1, 49, 127
2, 105600, Note_off_c, 1, 53, 0
2, 105600, Note_on_c, 1, 59, 127
2, 105600, Note_off_c, 1, 65, 0
2, 105600, Note_on_c, 1, 66, 127
2, 105600, Note_off_c, 1, 69, 0
2, 105600, Note_on_c, 1, 71, 127
2, 105600, Note_off_c, 1, 73, 0
2, 105640, Note_off_c, 1, 37, 0
2, 105640, Note_on_c, 1, 47, 127
2, 105640, Note_off_c, 1, 49, 0
2, 105640, Note_off_c, 1, 59, 0
2, 105640, Note_off_c, 1, 66, 0
2, 105640, Note_on_c, 1, 69, 127
2, 105640, Note_on_c, 1, 74, 127
2, 105680, Note_off_c, 1, 47, 0
2, 105680, Note_off_c, 1, 69, 0
2, 105680, Note_off_c, 1, 71, 0
2, 105680, Note_off_c, 1, 74, 0
2, 105720, Note_on_c, 1, 52, 127
2, 105720, Note_on_c, 1, 57, 127
2, 105720, Note_on_c, 1, 59, 127
2, 105720, Note_on_c, 1, 67, 127
2, 105960, Note_off_c, 1, 52, 0
2, 105960, Note_off_c, 1, 57, 0
2, 105960, Note_off_c, 1, 59, 0
2, 106000, Note_on_c, 1, 46, 127
2, 106000, Note_on_c, 1, 55, 127
2, 106000, Note_off_c, 1, 67, 0
2, 106000, Note_on_c, 1, 70, 127
2, 106000, Note_on_c, 1, 75, 127
2, 106200, Note_on_c, 1, 67, 127
2, 106200, Note_off_c, 1, 70, 0
2, 106240, Note_off_c, 1, 67, 0
2, 106280, Note_on_c, 1, 70, 127
2, 106400, Note_off_c, 1, 70, 0
2, 106440, Note_on_c, 1, 70, 127
2, 106520, Note_off_c, 1, 70, 0
2, 106560, Note_on_c, 1, 63, 127
2, 106760, Note_off_c, 1, 46, 0
2, 106760, Note_on_c, 1, 48, 127
2, 106760, Note_on_c, 1, 53, 127
2, 106760, Note_off_c, 1, 55, 0
2, 106760, Note_on_c, 1, 56, 127
2, 106760, Note_on_c, 1, 59, 127
2, 106760, Note_on_c, 1, 62, 127
2, 106760, Note_off_c, 1, 63, 0
2, 106760, Note_on_c, 1, 65, 127
2, 106760, Note_on_c, 1, 68, 127
2, 106760, Note_on_c, 1, 71, 127
2, 106760, Note_on_c, 1, 74, 127
2, 106760, Note_off_c, 1, 75, 0
2, 106800, Note_off_c, 1, 48, 0
2, 106800, Note_off_c, 1, 53, 0
2, 106800, Note_off_c, 1, 56, 0
2, 106800, Note_off_c, 1, 59, 0
2, 106800, Note_off_c, 1, 62, 0
2, 106800, Note_off_c, 1, 65, 0
2, 106800, Note_off_c, 1, 68, 0
2, 106800, Note_off_c, 1, 71, 0
2, 106800, Note_off_c, 1, 74, 0
2, 106840, Note_on_c, 1, 49, 127
2, 106840, Note_on_c, 1, 59, 127
2, 106840, Note_on_c, 1, 62, 127
2, 106840, Note_on_c, 1, 65, 127
2, 106840, Note_on_c, 1, 71, 127
2, 107360, Note_off_c, 1, 49, 0
2, 107360, Note_off_c, 1, 62, 0
2, 107360, Note_off_c, 1, 65, 0
2, 107360, Note_off_c, 1, 71, 0
2, 107400, Note_off_c, 1, 59, 0
2, 107440, Note_on_c, 1, 49, 127
2, 107440, Note_on_c, 1, 59, 127
2, 107440, Note_on_c, 1, 62, 127
2, 107440, Note_on_c, 1, 65, 127
2, 107440, Note_on_c, 1, 71, 127
2, 107680, Note_off_c, 1, 49, 0
2, 107680, Note_off_c, 1, 65, 0
2, 107680, Note_off_c, 1, 71, 0
2, 107680, Note_on_c, 1, 79, 127
2, 107680, Note_on_c, 1, 91, 127
2, 107720, Note_on_c, 1, 34, 127
2, 107720, Note_on_c, 1, 39, 127
2, 107720, Note_on_c, 1, 41, 127
2, 107720, Note_on_c, 1, 46, 127
2, 107720, Note_on_c, 1, 51, 127
2, 107720, Note_on_c, 1, 53, 127
2, 107720, Note_on_c, 1, 58, 127
2, 107720, Note_off_c, 1, 59, 0
2, 107720, Note_on_c, 1, 61, 127
2, 107720, Note_off_c, 1, 62, 0
2, 107720, Note_on_c, 1, 65, 127
2, 107720, Note_on_c, 1, 70, 127
2, 107720, Note_off_c, 1, 79, 0
2, 107720, Note_off_c, 1, 91, 0
2, 107760, Note_off_c, 1, 34, 0
2, 107760, Note_on_c, 1, 35, 127
2, 107760, Note_off_c, 1, 39, 0
2, 107760, Note_off_c, 1, 41, 0
2, 107760, Note_on_c, 1, 42, 127
2, 107760, Note_off_c, 1, 46, 0
2, 107760, Note_off_c, 1, 51, 0
2, 107760, Note_off_c, 1, 53, 0
2, 107760, Note_off_c, 1, 58, 0
2, 107760, Note_off_c, 1, 61, 0
2, 107760, Note_on_c, 1, 62, 127
2, 107760, Note_off_c, 1, 65, 0
2, 107760, Note_on_c, 1, 66, 127
2, 107760, Note_off_c, 1, 70, 0
2, 107800, Note_off_c, 1, 35, 0
2, 107800, Note_off_c, 1, 42, 0
2, 107800, Note_on_c, 1, 61, 127
2, 107800, Note_off_c, 1, 62, 0
2, 107800, Note_off_c, 1, 66, 0
2, 107800, Note_on_c, 1, 68, 127
2, 107800, Note_on_c, 1, 71, 127
2, 107800, Note_on_c, 1, 74, 127
2, 107800, Note_on_c, 1, 78, 127
2, 107840, Note_off_c, 1, 61, 0
2, 107840, Note_off_c, 1, 68, 0
2, 107840, Note_off_c, 1, 71, 0
2, 107840, Note_on_c, 1, 83, 127
2, 107840, Note_on_c, 1, 90, 127
2, 107880, Note_on_c, 1, 32, 127
2, 107880, Note_on_c, 1, 44, 127
2, 107880, Note_on_c, 1, 72, 127
2, 107880, Note_off_c, 1, 74, 0
2, 107880, Note_on_c, 1, 75, 127
2, 107880, Note_off_c, 1, 78, 0
2, 107880, Note_on_c, 1, 80, 127
2, 107880, Note_off_c, 1, 83, 0
2, 107880, Note_on_c, 1, 84, 127
2, 107880, Note_off_c, 1, 90, 0
2, 107920, Note_off_c, 1, 32, 0
2, 107920, Note_off_c, 1, 72, 0
2, 107920, Note_off_c, 1, 75, 0
2, 107920, Note_off_c, 1, 80, 0
2, 107920, Note_off_c, 1, 84, 0
2, 107920, Note_on_c, 1, 90, 127
2, 107920, Note_on_c, 1, 93, 127
2, 107960, Note_on_c, 1, 43, 127
2, 107960, Note_off_c, 1, 44, 0
2, 107960, Note_on_c, 1, 50, 127
2, 107960, Note_on_c, 1, 59, 127
2, 107960, Note_off_c, 1, 90, 0
2, 107960, Note_off_c, 1, 93, 0
2, 108000, Note_off_c, 1, 43, 0
2, 108000, Note_on_c, 1, 48, 127
2, 108000, Note_off_c, 1, 50, 0
2, 108000, Note_on_c, 1, 58, 127
2, 108000, Note_off_c, 1, 59, 0
2, 108000, Note_on_c, 1, 63, 127
2, 108000, Note_on_c, 1, 69, 127
2, 108240, Note_off_c, 1, 48, 0
2, 108240, Note_on_c, 1, 49, 127
2, 108240, Note_off_c, 1, 58, 0
2, 108240, Note_off_c, 1, 63, 0
2, 108240, Note_off_c, 1, 69, 0
2, 108280, Note_off_c, 1, 49, 0
2, 108280, Note_on_c, 1, 57, 127
2, 108280, Note_on_c, 1, 66, 127
2, 108280, Note_on_c, 1, 69, 127
2, 108280, Note_on_c, 1, 74, 127
2, 108280, Note_on_c, 1, 78, 127
2, 108280, Note_on_c, 1, 86, 127
2, 108520, Note_off_c, 1, 57, 0
2, 108520, Note_off_c, 1, 66, 0
2, 108520, Note_off_c, 1, 69, 0
2, 108520, Note_off_c, 1, 74, 0
2, 108520, Note_off_c, 1, 78, 0
2, 108520, Note_off_c, 1, 86, 0
2, 108560, Note_on_c, 1, 64, 127
2, 108560, Note_on_c, 1, 82, 127
2, 108560, Note_on_c, 1, 91, 127
2, 108600, Note_on_c, 1, 52, 127
2, 108600, Note_on_c, 1, 55, 127
2, 108600, Note_on_c, 1, 58, 127
2, 108600, Note_off_c, 1, 64, 0
2, 108600, Note_on_c, 1, 79, 127
2, 108600, Note_off_c, 1, 82, 0
2, 108640, Note_off_c, 1, 52, 0
2, 108640, Note_off_c, 1, 55, 0
2, 108640, Note_off_c, 1, 58, 0
2, 108640, Note_on_c, 1, 64, 127
2, 108640, Note_on_c, 1, 82, 127
2, 108640, Note_off_c, 1, 91, 0
2, 108680, Note_on_c, 1, 36, 127
2, 108680, Note_off_c, 1, 64, 0
2, 108680, Note_off_c, 1, 79, 0
2, 108680, Note_off_c, 1, 82, 0
2, 108680, Note_on_c, 1, 87, 127
2, 108680, Note_on_c, 1, 90, 127
2, 108720, Note_off_c, 1, 36, 0
2, 108720, Note_on_c, 1, 59, 127
2, 108720, Note_on_c, 1, 83, 127
2, 108720, Note_off_c, 1, 87, 0
2, 108720, Note_off_c, 1, 90, 0
2, 108720, Note_on_c, 1, 91, 127
2, 108760, Note_off_c, 1, 59, 0
2, 108760, Note_on_c, 1, 69, 127
2, 108760, Note_off_c, 1, 83, 0
2, 108760, Note_on_c, 1, 84, 127
2, 108760, Note_off_c, 1, 91, 0
2, 108760, Note_on_c, 1, 96, 127
2, 108800, Note_off_c, 1, 69, 0
2, 108800, Note_off_c, 1, 84, 0
2, 108800, Note_off_c, 1, 96, 0
2, 108840, Note_on_c, 1, 45, 127
2, 108840, Note_on_c, 1, 65, 127
2, 108840, Note_on_c, 1, 81, 127
2, 108840, Note_on_c, 1, 84, 127
2, 108840, Note_on_c, 1, 88, 127
2, 109000, Note_off_c, 1, 84, 0
2, 109000, Note_on_c, 1, 86, 127
2, 109000, Note_off_c, 1, 88, 0
2, 109000, Note_on_c, 1, 89, 127
2, 109040, Note_on_c, 1, 84, 127
2, 109040, Note_off_c, 1, 86, 0
2, 109040, Note_on_c, 1, 88, 127
2, 109040, Note_off_c, 1, 89, 0
2, 109080, Note_off_c, 1, 45, 0
2, 109080, Note_off_c, 1, 65, 0
2, 109080, Note_off_c, 1, 81, 0
2, 109080, Note_off_c, 1, 84, 0
2, 109080, Note_off_c, 1, 88, 0
2, 109120, Note_on_c, 1, 34, 127
2, 109120, Note_on_c, 1, 46, 127
2, 109120, Note_on_c, 1, 53, 127
2, 109120, Note_on_c, 1, 61, 127
2, 109120, Note_on_c, 1, 65, 127
2, 109120, Note_on_c, 1, 73, 127
2, 109120, Note_on_c, 1, 77, 127
2, 109120, Note_on_c, 1, 82, 127
2, 109120, Note_on_c, 1, 85, 127
2, 109320, Note_off_c, 1, 34, 0
2, 109320, Note_off_c, 1, 46, 0
2, 109320, Note_off_c, 1, 53, 0
2, 109320, Note_off_c, 1, 61, 0
2, 109320, Note_off_c, 1, 65, 0
2, 109320, Note_off_c, 1, 73, 0
2, 109320, Note_off_c, 1, 77, 0
2, 109320, Note_off_c, 1, 82, 0
2, 109320, Note_off_c, 1, 85, 0
2, 109360, Note_on_c, 1, 34, 127
2, 109360, Note_on_c, 1, 46, 127
2, 109360, Note_on_c, 1, 53, 127
2, 109360, Note_on_c, 1, 61, 127
2, 109360, Note_on_c, 1, 65, 127
2, 109360, Note_on_c, 1, 73, 127
2, 109360, Note_on_c, 1, 77, 127
2, 109360, Note_on_c, 1, 82, 127
2, 109360, Note_on_c, 1, 85, 127
2, 109680, Note_off_c, 1, 34, 0
2, 109680, Note_off_c, 1, 46, 0
2, 109680, Note_off_c, 1, 53, 0
2, 109680, Note_off_c, 1, 61, 0
2, 109680, Note_off_c, 1, 65, 0
2, 109680, Note_off_c, 1, 73, 0
2, 109680, Note_off_c, 1, 77, 0
2, 109680, Note_off_c, 1, 82, 0
2, 109680, Note_off_c, 1, 85, 0
2, 109720, Note_on_c, 1, 47, 127
2, 109720, Note_on_c, 1, 51, 127
2, 109720, Note_on_c, 1, 54, 127
2, 109720, Note_on_c, 1, 59, 127
2, 109720, Note_on_c, 1, 79, 127
2, 109760, Note_on_c, 1, 40, 127
2, 109760, Note_off_c, 1, 47, 0
2, 109760, Note_off_c, 1, 51, 0
2, 109760, Note_off_c, 1, 59, 0
2, 109760, Note_on_c, 1, 61, 127
2, 109760, Note_on_c, 1, 69, 127
2, 109760, Note_on_c, 1, 73, 127
2, 109760, Note_off_c, 1, 79, 0
2, 109800, Note_on_c, 1, 37, 127
2, 109800, Note_off_c, 1, 40, 0
2, 109800, Note_on_c, 1, 49, 127
2, 109800, Note_off_c, 1, 54, 0
2, 109800, Note_off_c, 1, 61, 0
2, 109800, Note_on_c, 1, 68, 127
2, 109800, Note_off_c, 1, 69, 0
2, 109800, Note_on_c, 1, 71, 127
2, 109800, Note_on_c, 1, 77, 127
2, 109840, Note_off_c, 1, 37, 0
2, 109840, Note_on_c, 1, 45, 127
2, 109840, Note_on_c, 1, 47, 127
2, 109840, Note_off_c, 1, 49, 0
2, 109840, Note_on_c, 1, 51, 127
2, 109840, Note_on_c, 1, 54, 127
2, 109840, Note_off_c, 1, 68, 0
2, 109840, Note_off_c, 1, 71, 0
2, 109840, Note_off_c, 1, 73, 0
2, 109840, Note_off_c, 1, 77, 0
2, 109840, Note_on_c, 1, 78, 127
2, 109880, Note_on_c, 1, 37, 127
2, 109880, Note_on_c, 1, 40, 127
2, 109880, Note_on_c, 1, 44, 127
2, 109880, Note_off_c, 1, 45, 0
2, 109880, Note_off_c, 1, 47, 0
2, 109880, Note_on_c, 1, 49, 127
2, 109880, Note_off_c, 1, 51, 0
2, 109880, Note_on_c, 1, 52, 127
2, 109880, Note_off_c, 1, 54, 0
2, 109880, Note_on_c, 1, 64, 127
2, 109880, Note_on_c, 1, 68, 127
2, 109880, Note_on_c, 1, 73, 127
2, 109880, Note_on_c, 1, 76, 127
2, 109880, Note_off_c, 1, 78, 0
2, 109920, Note_off_c, 1, 37, 0
2, 109920, Note_off_c, 1, 40, 0
2, 109920, Note_off_c, 1, 44, 0
2, 109920, Note_off_c, 1, 49, 0
2, 109920, Note_on_c, 1, 56, 127
2, 109920, Note_on_c, 1, 71, 127
2, 109920, Note_off_c, 1, 73, 0
2, 109960, Note_on_c, 1, 37, 127
2, 109960, Note_on_c, 1, 47, 127
2, 109960, Note_off_c, 1, 52, 0
2, 109960, Note_off_c, 1, 56, 0
2, 109960, Note_off_c, 1, 64, 0
2, 109960, Note_off_c, 1, 68, 0
2, 109960, Note_off_c, 1, 71, 0
2, 109960, Note_off_c, 1, 76, 0
2, 110000, Note_on_c, 1, 34, 127
2, 110000, Note_off_c, 1, 37, 0
2, 110000, Note_off_c, 1, 47, 0
2, 110000, Note_on_c, 1, 54, 127
2, 110000, Note_on_c, 1, 58, 127
2, 110000, Note_on_c, 1, 63, 127
2, 110000, Note_on_c, 1, 66, 127
2, 110000, Note_on_c, 1, 74, 127
2, 110160, Note_off_c, 1, 34, 0
2, 110160, Note_on_c, 1, 50, 127
2, 110160, Note_off_c, 1, 54, 0
2, 110160, Note_on_c, 1, 57, 127
2, 110160, Note_off_c, 1, 58, 0
2, 110160, Note_on_c, 1, 62, 127
2, 110160, Note_off_c, 1, 63, 0
2, 110160, Note_off_c, 1, 66, 0
2, 110160, Note_on_c, 1, 69, 127
2, 110160, Note_off_c, 1, 74, 0
2, 110200, Note_on_c, 1, 28, 127
2, 110200, Note_on_c, 1, 47, 127
2, 110200, Note_off_c, 1, 50, 0
2, 110200, Note_off_c, 1, 57, 0
2, 110200, Note_off_c, 1, 62, 0
2, 110200, Note_off_c, 1, 69, 0
2, 110240, Note_off_c, 1, 28, 0
2, 110240, Note_off_c, 1, 47, 0
2, 110240, Note_on_c, 1, 91, 127
2, 110240, Note_on_c, 1, 95, 127
2, 110240, Note_on_c, 1, 98, 127
2, 110240, Note_on_c, 1, 103, 127
2, 110280, Note_on_c, 1, 60, 127
2, 110280, Note_on_c, 1, 63, 127
2, 110280, Note_on_c, 1, 65, 127
2, 110280, Note_on_c, 1, 69, 127
2, 110280, Note_on_c, 1, 72, 127
2, 110280, Note_on_c, 1, 77, 127
2, 110280, Note_on_c, 1, 84, 127
2, 110280, Note_off_c, 1, 91, 0
2, 110280, Note_off_c, 1, 95, 0
2, 110280, Note_off_c, 1, 98, 0
2, 110280, Note_off_c, 1, 103, 0
2, 110320, Note_on_c, 1, 47, 127
2, 110320, Note_off_c, 1, 60, 0
2, 110320, Note_off_c, 1, 63, 0
2, 110320, Note_off_c, 1, 65, 0
2, 110320, Note_off_c, 1, 69, 0
2, 110320, Note_off_c, 1, 72, 0
2, 110320, Note_off_c, 1, 77, 0
2, 110320, Note_off_c, 1, 84, 0
2, 110320, Note_on_c, 1, 87, 127
2, 110360, Note_on_c, 1, 40, 127
2, 110360, Note_off_c, 1, 47, 0
2, 110360, Note_on_c, 1, 63, 127
2, 110360, Note_on_c, 1, 75, 127
2, 110360, Note_off_c, 1, 87, 0
2, 110400, Note_on_c, 1, 39, 127
2, 110400, Note_off_c, 1, 40, 0
2, 110400, Note_on_c, 1, 47, 127
2, 110400, Note_on_c, 1, 51, 127
2, 110400, Note_on_c, 1, 55, 127
2, 110400, Note_on_c, 1, 59, 127
2, 110400, Note_off_c, 1, 75, 0
2, 110440, Note_off_c, 1, 39, 0
2, 110440, Note_on_c, 1, 40, 127
2, 110440, Note_off_c, 1, 47, 0
2, 110440, Note_off_c, 1, 51, 0
2, 110440, Note_off_c, 1, 55, 0
2, 110440, Note_off_c, 1, 59, 0
2, 110440, Note_on_c, 1, 75, 127
2, 110480, Note_on_c, 1, 37, 127
2, 110480, Note_off_c, 1, 40, 0
2, 110480, Note_on_c, 1, 49, 127
2, 110480, Note_off_c, 1, 63, 0
2, 110480, Note_on_c, 1, 64, 127
2, 110480, Note_on_c, 1, 67, 127
2, 110480, Note_off_c, 1, 75, 0
2, 110520, Note_off_c, 1, 37, 0
2, 110520, Note_on_c, 1, 40, 127
2, 110520, Note_off_c, 1, 49, 0
2, 110520, Note_off_c, 1, 64, 0
2, 110520, Note_off_c, 1, 67, 0
2, 110560, Note_off_c, 1, 40, 0
2, 110560, Note_on_c, 1, 63, 127
2, 110560, Note_on_c, 1, 77, 127
2, 110560, Note_on_c, 1, 89, 127
2, 110560, Note_on_c, 1, 92, 127
2, 110600, Note_on_c, 1, 48, 127
2, 110600, Note_off_c, 1, 63, 0
2, 110600, Note_off_c, 1, 77, 0
2, 110600, Note_on_c, 1, 82, 127
2, 110600, Note_on_c, 1, 86, 127
2, 110600, Note_off_c, 1, 89, 0
2, 110600, Note_off_c, 1, 92, 0
2, 110600, Note_on_c, 1, 94, 127
2, 110640, Note_on_c, 1, 55, 127
2, 110640, Note_on_c, 1, 58, 127
2, 110640, Note_on_c, 1, 73, 127
2, 110640, Note_on_c, 1, 77, 127
2, 110640, Note_off_c, 1, 82, 0
2, 110640, Note_off_c, 1, 86, 0
2, 110640, Note_off_c, 1, 94, 0
2, 110680, Note_on_c, 1, 36, 127
2, 110680, Note_off_c, 1, 55, 0
2, 110680, Note_off_c, 1, 58, 0
2, 110680, Note_off_c, 1, 73, 0
2, 110680, Note_on_c, 1, 83, 127
2, 110680, Note_on_c, 1, 86, 127
2, 110680, Note_on_c, 1, 91, 127
2, 110720, Note_off_c, 1, 36, 0
2, 110720, Note_on_c, 1, 45, 127
2, 110720, Note_off_c, 1, 48, 0
2, 110720, Note_on_c, 1, 49, 127
2, 110720, Note_on_c, 1, 53, 127
2, 110720, Note_on_c, 1, 73, 127
2, 110720, Note_off_c, 1, 77, 0
2, 110720, Note_off_c, 1, 83, 0
2, 110720, Note_off_c, 1, 86, 0
2, 110720, Note_off_c, 1, 91, 0
2, 110760, Note_off_c, 1, 53, 0
2, 110760, Note_on_c, 1, 58, 127
2, 110760, Note_off_c, 1, 73, 0
2, 110800, Note_off_c, 1, 45, 0
2, 110800, Note_off_c, 1, 49, 0
2, 110800, Note_off_c, 1, 58, 0
2, 110840, Note_on_c, 1, 52, 127
2, 110840, Note_on_c, 1, 64, 127
2, 110840, Note_on_c, 1, 67, 127
2, 110840, Note_on_c, 1, 72, 127
2, 110840, Note_on_c, 1, 76, 127
2, 110840, Note_on_c, 1, 79, 127
2, 111000, Note_on_c, 1, 50, 127
2, 111000, Note_off_c, 1, 52, 0
2, 111000, Note_on_c, 1, 62, 127
2, 111000, Note_off_c, 1, 64, 0
2, 111040, Note_off_c, 1, 50, 0
2, 111040, Note_off_c, 1, 62, 0
2, 111040, Note_off_c, 1, 67, 0
2, 111040, Note_off_c, 1, 72, 0
2, 111040, Note_off_c, 1, 76, 0
2, 111040, Note_off_c, 1, 79, 0
2, 111040, Note_on_c, 1, 92, 127
2, 111040, Note_on_c, 1, 94, 127
2, 111080, Note_on_c, 1, 36, 127
2, 111080, Note_on_c, 1, 43, 127
2, 111080, Note_on_c, 1, 68, 127
2, 111080, Note_off_c, 1, 92, 0
2, 111080, Note_off_c, 1, 94, 0
2, 111120, Note_off_c, 1, 36, 0
2, 111120, Note_off_c, 1, 43, 0
2, 111120, Note_on_c, 1, 48, 127
2, 111120, Note_on_c, 1, 56, 127
2, 111120, Note_off_c, 1, 68, 0
2, 111120, Note_on_c, 1, 75, 127
2, 111120, Note_on_c, 1, 80, 127
2, 111120, Note_on_c, 1, 87, 127
2, 111160, Note_off_c, 1, 48, 0
2, 111160, Note_on_c, 1, 49, 127
2, 111160, Note_off_c, 1, 56, 0
2, 111160, Note_on_c, 1, 62, 127
2, 111160, Note_on_c, 1, 65, 127
2, 111160, Note_on_c, 1, 68, 127
2, 111160, Note_on_c, 1, 70, 127
2, 111160, Note_off_c, 1, 75, 0
2, 111160, Note_off_c, 1, 80, 0
2, 111160, Note_off_c, 1, 87, 0
2, 111200, Note_off_c, 1, 49, 0
2, 111200, Note_on_c, 1, 51, 127
2, 111200, Note_on_c, 1, 58, 127
2, 111200, Note_on_c, 1, 61, 127
2, 111200, Note_off_c, 1, 62, 0
2, 111200, Note_on_c, 1, 64, 127
2, 111200, Note_off_c, 1, 65, 0
2, 111200, Note_on_c, 1, 67, 127
2, 111200, Note_off_c, 1, 68, 0
2, 111200, Note_off_c, 1, 70, 0
2, 111240, Note_off_c, 1, 51, 0
2, 111240, Note_off_c, 1, 58, 0
2, 111240, Note_off_c, 1, 61, 0
2, 111240, Note_off_c, 1, 64, 0
2, 111240, Note_off_c, 1, 67, 0
2, 111240, Note_on_c, 1, 70, 127
2, 111240, Note_on_c, 1, 80, 127
2, 111240, Note_on_c, 1, 96, 127
2, 111280, Note_on_c, 1, 41, 127
2, 111280, Note_on_c, 1, 52, 127
2, 111280, Note_on_c, 1, 58, 127
2, 111280, Note_on_c, 1, 67, 127
2, 111280, Note_on_c, 1, 74, 127
2, 111280, Note_off_c, 1, 80, 0
2, 111280, Note_off_c, 1, 96, 0
2, 111320, Note_off_c, 1, 41, 0
2, 111320, Note_off_c, 1, 52, 0
2, 111320, Note_off_c, 1, 58, 0
2, 111320, Note_off_c, 1, 67, 0
2, 111320, Note_off_c, 1, 70, 0
2, 111320, Note_off_c, 1, 74, 0
2, 111400, Note_on_c, 1, 51, 127
2, 111400, Note_on_c, 1, 55, 127
2, 111400, Note_on_c, 1, 58, 127
2, 111400, Note_on_c, 1, 63, 127
2, 111400, Note_on_c, 1, 78, 127
2, 111400, Note_on_c, 1, 90, 127
2, 111440, Note_on_c, 1, 48, 127
2, 111440, Note_off_c, 1, 51, 0
2, 111440, Note_off_c, 1, 55, 0
2, 111440, Note_off_c, 1, 58, 0
2, 111440, Note_on_c, 1, 59, 127
2, 111440, Note_off_c, 1, 63, 0
2, 111440, Note_on_c, 1, 68, 127
2, 111440, Note_on_c, 1, 70, 127
2, 111440, Note_off_c, 1, 78, 0
2, 111440, Note_off_c, 1, 90, 0
2, 111480, Note_on_c, 1, 44, 127
2, 111480, Note_off_c, 1, 48, 0
2, 111480, Note_off_c, 1, 59, 0
2, 111480, Note_on_c, 1, 66, 127
2, 111480, Note_off_c, 1, 68, 0
2, 111480, Note_off_c, 1, 70, 0
2, 111480, Note_on_c, 1, 90, 127
2, 111520, Note_off_c, 1, 44, 0
2, 111520, Note_on_c, 1, 45, 127
2, 111520, Note_on_c, 1, 49, 127
2, 111520, Note_on_c, 1, 54, 127
2, 111520, Note_off_c, 1, 66, 0
2, 111560, Note_off_c, 1, 45, 0
2, 111560, Note_off_c, 1, 49, 0
2, 111560, Note_on_c, 1, 50, 127
2, 111560, Note_off_c, 1, 54, 0
2, 111560, Note_on_c, 1, 62, 127
2, 111560, Note_on_c, 1, 79, 127
2, 111560, Note_on_c, 1, 87, 127
2, 111560, Note_off_c, 1, 90, 0
2, 111560, Note_on_c, 1, 91, 127
2, 111600, Note_off_c, 1, 50, 0
2, 111600, Note_off_c, 1, 62, 0
2, 111600, Note_on_c, 1, 65, 127
2, 111600, Note_on_c, 1, 73, 127
2, 111600, Note_off_c, 1, 79, 0
2, 111600, Note_off_c, 1, 91, 0
2, 111640, Note_off_c, 1, 65, 0
2, 111640, Note_off_c, 1, 73, 0
2, 111640, Note_off_c, 1, 87, 0
2, 111680, Note_on_c, 1, 39, 127
2, 111680, Note_on_c, 1, 46, 127
2, 111680, Note_on_c, 1, 51, 127
2, 111680, Note_on_c, 1, 54, 127
2, 111680, Note_on_c, 1, 58, 127
2, 112200, Note_on_c, 1, 63, 127
2, 113320, Note_off_c, 1, 39, 0
2, 113320, Note_off_c, 1, 46, 0
2, 113320, Note_off_c, 1, 51, 0
2, 113320, Note_off_c, 1, 54, 0
2, 113320, Note_off_c, 1, 58, 0
2, 113320, Note_off_c, 1, 63, 0
2, 113880, Note_on_c, 1, 54, 127
2, 113880, Note_on_c, 1, 58, 127
2, 113880, Note_on_c, 1, 61, 127
2, 113880, Note_on_c, 1, 73, 127
2, 114120, Note_off_c, 1, 58, 0
2, 114120, Note_on_c, 1, 59, 127
2, 114120, Note_off_c, 1, 61, 0
2, 114120, Note_on_c, 1, 63, 127
2, 114120, Note_on_c, 1, 71, 127
2, 114120, Note_off_c, 1, 73, 0
2, 114280, Note_off_c, 1, 71, 0
2, 114320, Note_on_c, 1, 78, 127
2, 114360, Note_off_c, 1, 54, 0
2, 114360, Note_off_c, 1, 59, 0
2, 114360, Note_off_c, 1, 63, 0
2, 114360, Note_off_c, 1, 78, 0
2, 114400, Note_on_c, 1, 54, 127
2, 114400, Note_on_c, 1, 59, 127
2, 114400, Note_on_c, 1, 63, 127
2, 114400, Note_on_c, 1, 78, 127
2, 114440, Note_off_c, 1, 78, 0
2, 114480, Note_off_c, 1, 54, 0
2, 114480, Note_off_c, 1, 59, 0
2, 114480, Note_off_c, 1, 63, 0
2, 114480, Note_on_c, 1, 69, 127
2, 114480, Note_on_c, 1, 79, 127
2, 114480, Note_on_c, 1, 84, 127
2, 114480, Note_on_c, 1, 86, 127
2, 114480, Note_on_c, 1, 91, 127
2, 114520, Note_on_c, 1, 54, 127
2, 114520, Note_on_c, 1, 59, 127
2, 114520, Note_on_c, 1, 63, 127
2, 114520, Note_off_c, 1, 69, 0
2, 114520, Note_off_c, 1, 79, 0
2, 114520, Note_off_c, 1, 84, 0
2, 114520, Note_off_c, 1, 86, 0
2, 114520, Note_off_c, 1, 91, 0
2, 114560, Note_off_c, 1, 54, 0
2, 114560, Note_on_c, 1, 56, 127
2, 114560, Note_off_c, 1, 59, 0
2, 114560, Note_on_c, 1, 66, 127
2, 114560, Note_on_c, 1, 70, 127
2, 114560, Note_on_c, 1, 75, 127
2, 114600, Note_on_c, 1, 37, 127
2, 114600, Note_on_c, 1, 54, 127
2, 114600, Note_off_c, 1, 56, 0
2, 114600, Note_on_c, 1, 59, 127
2, 114600, Note_off_c, 1, 66, 0
2, 114600, Note_off_c, 1, 70, 0
2, 114600, Note_off_c, 1, 75, 0
2, 114640, Note_off_c, 1, 37, 0
2, 114680, Note_on_c, 1, 42, 127
2, 114680, Note_off_c, 1, 54, 0
2, 114680, Note_off_c, 1, 59, 0
2, 114680, Note_off_c, 1, 63, 0
2, 114680, Note_on_c, 1, 95, 127
2, 114720, Note_on_c, 1, 39, 127
2, 114720, Note_on_c, 1, 41, 127
2, 114720, Note_off_c, 1, 42, 0
2, 114720, Note_on_c, 1, 54, 127
2, 114720, Note_on_c, 1, 57, 127
2, 114720, Note_on_c, 1, 60, 127
2, 114720, Note_off_c, 1, 95, 0
2, 114760, Note_off_c, 1, 39, 0
2, 114760, Note_off_c, 1, 41, 0
2, 114760, Note_off_c, 1, 57, 0
2, 114760, Note_on_c, 1, 59, 127
2, 114760, Note_off_c, 1, 60, 0
2, 114760, Note_on_c, 1, 63, 127
2, 114800, Note_on_c, 1, 52, 127
2, 114800, Note_off_c, 1, 54, 0
2, 114800, Note_on_c, 1, 55, 127
2, 114800, Note_on_c, 1, 58, 127
2, 114800, Note_off_c, 1, 59, 0
2, 114800, Note_on_c, 1, 60, 127
2, 114800, Note_off_c, 1, 63, 0
2, 114800, Note_on_c, 1, 82, 127
2, 114800, Note_on_c, 1, 86, 127
2, 114840, Note_off_c, 1, 52, 0
2, 114840, Note_off_c, 1, 55, 0
2, 114840, Note_off_c, 1, 58, 0
2, 114840, Note_off_c, 1, 60, 0
2, 114840, Note_off_c, 1, 82, 0
2, 114840, Note_off_c, 1, 86, 0
2, 114880, Note_on_c, 1, 59, 127
2, 114880, Note_on_c, 1, 66, 127
2, 114880, Note_on_c, 1, 75, 127
2, 114880, Note_on_c, 1, 78, 127
2, 114880, Note_on_c, 1, 83, 127
2, 115120, Note_on_c, 1, 58, 127
2, 115120, Note_off_c, 1, 59, 0
2, 115120, Note_on_c, 1, 63, 127
2, 115120, Note_on_c, 1, 70, 127
2, 115120, Note_off_c, 1, 83, 0
2, 115160, Note_off_c, 1, 58, 0
2, 115160, Note_on_c, 1, 59, 127
2, 115160, Note_off_c, 1, 63, 0
2, 115160, Note_off_c, 1, 70, 0
2, 115160, Note_on_c, 1, 83, 127
2, 115200, Note_off_c, 1, 59, 0
2, 115200, Note_off_c, 1, 66, 0
2, 115200, Note_on_c, 1, 70, 127
2, 115200, Note_on_c, 1, 74, 127
2, 115200, Note_off_c, 1, 75, 0
2, 115200, Note_off_c, 1, 78, 0
2, 115200, Note_on_c, 1, 79, 127
2, 115200, Note_on_c, 1, 82, 127
2, 115200, Note_off_c, 1, 83, 0
2, 115200, Note_on_c, 1, 86, 127
2, 115200, Note_on_c, 1, 91, 127
2, 115240, Note_off_c, 1, 70, 0
2, 115240, Note_off_c, 1, 74, 0
2, 115240, Note_off_c, 1, 79, 0
2, 115240, Note_off_c, 1, 82, 0
2, 115240, Note_off_c, 1, 86, 0
2, 115240, Note_off_c, 1, 91, 0
2, 115280, Note_on_c, 1, 51, 127
2, 115280, Note_on_c, 1, 59, 127
2, 115280, Note_on_c, 1, 63, 127
2, 115280, Note_on_c, 1, 68, 127
2, 115360, Note_off_c, 1, 51, 0
2, 115360, Note_off_c, 1, 59, 0
2, 115360, Note_off_c, 1, 63, 0
2, 115360, Note_off_c, 1, 68, 0
2, 115400, Note_on_c, 1, 42, 127
2, 115400, Note_on_c, 1, 48, 127
2, 115400, Note_on_c, 1, 54, 127
2, 115400, Note_on_c, 1, 81, 127
2, 115400, Note_on_c, 1, 87, 127
2, 115400, Note_on_c, 1, 93, 127
2, 115600, Note_off_c, 1, 42, 0
2, 115600, Note_off_c, 1, 48, 0
2, 115600, Note_off_c, 1, 54, 0
2, 115600, Note_off_c, 1, 81, 0
2, 115600, Note_off_c, 1, 87, 0
2, 115600, Note_off_c, 1, 93, 0
2, 115640, Note_on_c, 1, 42, 127
2, 115640, Note_on_c, 1, 48, 127
2, 115640, Note_on_c, 1, 54, 127
2, 115640, Note_on_c, 1, 81, 127
2, 115640, Note_on_c, 1, 87, 127
2, 115640, Note_on_c, 1, 93, 127
2, 115680, Note_off_c, 1, 42, 0
2, 115680, Note_off_c, 1, 48, 0
2, 115680, Note_off_c, 1, 54, 0
2, 115680, Note_off_c, 1, 81, 0
2, 115680, Note_off_c, 1, 87, 0
2, 115680, Note_off_c, 1, 93, 0
2, 115720, Note_on_c, 1, 45, 127
2, 115720, Note_on_c, 1, 48, 127
2, 115720, Note_on_c, 1, 53, 127
2, 115720, Note_on_c, 1, 82, 127
2, 115760, Note_off_c, 1, 45, 0
2, 115760, Note_off_c, 1, 48, 0
2, 115760, Note_off_c, 1, 53, 0
2, 115760, Note_on_c, 1, 59, 127
2, 115760, Note_on_c, 1, 67, 127
2, 115760, Note_on_c, 1, 75, 127
2, 115760, Note_off_c, 1, 82, 0
2, 115760, Note_on_c, 1, 86, 127
2, 115800, Note_on_c, 1, 45, 127
2, 115800, Note_on_c, 1, 48, 127
2, 115800, Note_on_c, 1, 53, 127
2, 115800, Note_off_c, 1, 59, 0
2, 115800, Note_off_c, 1, 67, 0
2, 115800, Note_off_c, 1, 75, 0
2, 115800, Note_on_c, 1, 77, 127
2, 115800, Note_off_c, 1, 86, 0
2, 115840, Note_off_c, 1, 45, 0
2, 115840, Note_off_c, 1, 48, 0
2, 115840, Note_on_c, 1, 50, 127
2, 115840, Note_off_c, 1, 53, 0
2, 115840, Note_on_c, 1, 54, 127
2, 115840, Note_on_c, 1, 68, 127
2, 115840, Note_off_c, 1, 77, 0
2, 115840, Note_on_c, 1, 78, 127
2, 115840, Note_on_c, 1, 80, 127
2, 115880, Note_off_c, 1, 50, 0
2, 115880, Note_off_c, 1, 54, 0
2, 115880, Note_off_c, 1, 68, 0
2, 115880, Note_off_c, 1, 78, 0
2, 115880, Note_off_c, 1, 80, 0
2, 115920, Note_on_c, 1, 46, 127
2, 115920, Note_on_c, 1, 58, 127
2, 115920, Note_on_c, 1, 80, 127
2, 115920, Note_on_c, 1, 82, 127
2, 115920, Note_on_c, 1, 86, 127
2, 115920, Note_on_c, 1, 89, 127
2, 116120, Note_off_c, 1, 46, 0
2, 116120, Note_off_c, 1, 58, 0
2, 116120, Note_off_c, 1, 80, 0
2, 116120, Note_off_c, 1, 82, 0
2, 116120, Note_off_c, 1, 86, 0
2, 116120, Note_off_c, 1, 89, 0
2, 116160, Note_on_c, 1, 46, 127
2, 116160, Note_on_c, 1, 58, 127
2, 116160, Note_on_c, 1, 80, 127
2, 116160, Note_on_c, 1, 82, 127
2, 116160, Note_on_c, 1, 86, 127
2, 116160, Note_on_c, 1, 89, 127
2, 116320, Note_off_c, 1, 46, 0
2, 116320, Note_off_c, 1, 58, 0
2, 116320, Note_off_c, 1, 80, 0
2, 116320, Note_off_c, 1, 82, 0
2, 116320, Note_off_c, 1, 86, 0
2, 116320, Note_off_c, 1, 89, 0
2, 116360, Note_on_c, 1, 41, 127
2, 116360, Note_on_c, 1, 44, 127
2, 116360, Note_on_c, 1, 53, 127
2, 116360, Note_on_c, 1, 61, 127
2, 116360, Note_on_c, 1, 68, 127
2, 116360, Note_on_c, 1, 73, 127
2, 116600, Note_off_c, 1, 41, 0
2, 116600, Note_off_c, 1, 44, 0
2, 116600, Note_off_c, 1, 53, 0
2, 116600, Note_off_c, 1, 61, 0
2, 116600, Note_off_c, 1, 68, 0
2, 116600, Note_off_c, 1, 73, 0
2, 116640, Note_on_c, 1, 61, 127
2, 116640, Note_on_c, 1, 67, 127
2, 116640, Note_on_c, 1, 76, 127
2, 116640, Note_on_c, 1, 83, 127
2, 116640, Note_on_c, 1, 88, 127
2, 116840, Note_on_c, 1, 45, 127
2, 116840, Note_on_c, 1, 57, 127
2, 116840, Note_off_c, 1, 61, 0
2, 116840, Note_on_c, 1, 64, 127
2, 116840, Note_on_c, 1, 73, 127
2, 116840, Note_off_c, 1, 83, 0
2, 116840, Note_off_c, 1, 88, 0
2, 116880, Note_off_c, 1, 45, 0
2, 116880, Note_off_c, 1, 57, 0
2, 116880, Note_off_c, 1, 64, 0
2, 116880, Note_off_c, 1, 67, 0
2, 116880, Note_off_c, 1, 73, 0
2, 116880, Note_off_c, 1, 76, 0
2, 116920, Note_on_c, 1, 47, 127
2, 116920, Note_on_c, 1, 51, 127
2, 116920, Note_on_c, 1, 59, 127
2, 116920, Note_on_c, 1, 67, 127
2, 117360, Note_off_c, 1, 47, 0
2, 117360, Note_off_c, 1, 51, 0
2, 117360, Note_off_c, 1, 59, 0
2, 117360, Note_off_c, 1, 67, 0
2, 117360, Note_on_c, 1, 74, 127
2, 117360, Note_on_c, 1, 77, 127
2, 117400, Note_on_c, 1, 47, 127
2, 117400, Note_on_c, 1, 53, 127
2, 117400, Note_on_c, 1, 62, 127
2, 117400, Note_on_c, 1, 65, 127
2, 117400, Note_off_c, 1, 74, 0
2, 117400, Note_off_c, 1, 77, 0
2, 117720, Note_off_c, 1, 47, 0
2, 117720, Note_off_c, 1, 53, 0
2, 117720, Note_off_c, 1, 62, 0
2, 117720, Note_off_c, 1, 65, 0
2, 117760, Note_on_c, 1, 47, 127
2, 117760, Note_on_c, 1, 53, 127
2, 117760, Note_on_c, 1, 62, 127
2, 117760, Note_on_c, 1, 65, 127
2, 117920, Note_off_c, 1, 47, 0
2, 117920, Note_off_c, 1, 53, 0
2, 117920, Note_off_c, 1, 62, 0
2, 117920, Note_off_c, 1, 65, 0
2, 117960, Note_on_c, 1, 53, 127
2, 117960, Note_on_c, 1, 59, 127
2, 117960, Note_on_c, 1, 62, 127
2, 117960, Note_on_c, 1, 68, 127
2, 118440, Note_off_c, 1, 53, 0
2, 118440, Note_off_c, 1, 59, 0
2, 118440, Note_off_c, 1, 62, 0
2, 118440, Note_off_c, 1, 68, 0
2, 118480, Note_on_c, 1, 47, 127
2, 118480, Note_on_c, 1, 54, 127
2, 118480, Note_on_c, 1, 59, 127
2, 118480, Note_on_c, 1, 63, 127
2, 118880, Note_on_c, 1, 71, 127
2, 118920, Note_off_c, 1, 47, 0
2, 118920, Note_off_c, 1, 54, 0
2, 118920, Note_off_c, 1, 59, 0
2, 118920, Note_off_c, 1, 63, 0
2, 118920, Note_off_c, 1, 71, 0
2, 118960, Note_on_c, 1, 47, 127
2, 118960, Note_on_c, 1, 51, 127
2, 118960, Note_on_c, 1, 54, 127
2, 118960, Note_on_c, 1, 59, 127
2, 119240, Note_off_c, 1, 51, 0
2, 119240, Note_off_c, 1, 54, 0
2, 119240, Note_on_c, 1, 57, 127
2, 119240, Note_off_c, 1, 59, 0
2, 119240, Note_on_c, 1, 63, 127
2, 119240, Note_on_c, 1, 71, 127
2, 119280, Note_on_c, 1, 51, 127
2, 119280, Note_on_c, 1, 54, 127
2, 119280, Note_off_c, 1, 57, 0
2, 119280, Note_on_c, 1, 59, 127
2, 119280, Note_off_c, 1, 63, 0
2, 119280, Note_off_c, 1, 71, 0
2, 119400, Note_off_c, 1, 47, 0
2, 119400, Note_off_c, 1, 51, 0
2, 119400, Note_off_c, 1, 54, 0
2, 119400, Note_off_c, 1, 59, 0
2, 119440, Note_on_c, 1, 35, 127
2, 119440, Note_on_c, 1, 47, 127
2, 119440, Note_on_c, 1, 59, 127
2, 119440, Note_on_c, 1, 63, 127
2, 119840, Note_off_c, 1, 35, 0
2, 119840, Note_off_c, 1, 47, 0
2, 119840, Note_off_c, 1, 59, 0
2, 119840, Note_off_c, 1, 63, 0
2, 119880, Note_on_c, 1, 35, 127
2, 119880, Note_on_c, 1, 47, 127
2, 119880, Note_on_c, 1, 59, 127
2, 119880, Note_on_c, 1, 63, 127
2, 119960, Note_off_c, 1, 35, 0
2, 119960, Note_off_c, 1, 47, 0
2, 119960, Note_off_c, 1, 59, 0
2, 119960, Note_off_c, 1, 63, 0
2, 120040, End_track
3, 0, Start_track
3, 0, Title_t, "MIDI"
3, 1536, End_track
0, 0, End_of_file
