0, 0, Header, 1, 3, 192
1, 0, Start_track
1, 0, Time_signature, 4, 2, 24, 8
1, 0, Tempo, 500000
1, 120040, End_track
2, 0, Start_track
2, 0, Text_t, "random instrument: random person i dunno whatev"
2, 0, Title_t, "Track 1"
2, 0, Note_on_c, 1, 40, 127
2, 0, Note_on_c, 1, 48, 127
2, 0, Note_on_c, 1, 56, 127
2, 0, Note_on_c, 1, 60, 127
2, 40, Note_off_c, 1, 40, 0
2, 40, Note_off_c, 1, 48, 0
2, 40, Note_on_c, 1, 55, 127
2, 40, Note_off_c, 1, 56, 0
2, 40, Note_off_c, 1, 60, 0
2, 40, Note_on_c, 1, 72, 127
2, 40, Note_on_c, 1, 75, 127
2, 40, Note_on_c, 1, 79, 127
2, 40, Note_on_c, 1, 84, 127
2, 80, Note_off_c, 1, 55, 0
2, 80, Note_off_c, 1, 72, 0
2, 80, Note_off_c, 1, 75, 0
2, 80, Note_off_c, 1, 79, 0
2, 80, Note_off_c, 1, 84, 0
2, 120, Note_on_c, 1, 50, 127
2, 120, Note_on_c, 1, 59, 127
2, 120, Note_on_c, 1, 62, 127
2, 120, Note_on_c, 1, 78, 127
2, 160, Note_off_c, 1, 50, 0
2, 160, Note_off_c, 1, 59, 0
2, 160, Note_on_c, 1, 60, 127
2, 160, Note_off_c, 1, 62, 0
2, 160, Note_on_c, 1, 66, 127
2, 160, Note_on_c, 1, 68, 127
2, 160, Note_off_c, 1, 78, 0
2, 160, Note_on_c, 1, 90, 127
2, 200, Note_on_c, 1, 35, 127
2, 200, Note_on_c, 1, 39, 127
2, 200, Note_on_c, 1, 47, 127
2, 200, Note_on_c, 1, 50, 127
2, 200, Note_off_c, 1, 60, 0
2, 200, Note_off_c, 1, 66, 0
2, 200, Note_off_c, 1, 68, 0
2, 200, Note_off_c, 1, 90, 0
2, 240, Note_off_c, 1, 35, 0
2, 240, Note_off_c, 1, 39, 0
2, 240, Note_off_c, 1, 47, 0
2, 240, Note_off_c, 1, 50, 0
2, 240, Note_on_c, 1, 51, 127
2, 240, Note_on_c, 1, 55, 127
2, 240, Note_on_c, 1, 58, 127
2, 240, Note_on_c, 1, 63, 127
2, 240, Note_on_c, 1, 82, 127
2, 240, Note_on_c, 1, 91, 127
2, 280, Note_off_c, 1, 51, 0
2, 280, Note_off_c, 1, 55, 0
2, 280, Note_off_c, 1, 58, 0
2, 280, Note_off_c, 1, 63, 0
2, 280, Note_on_c, 1, 76, 127
2, 280, Note_on_c, 1, 80, 127
2, 280, Note_off_c, 1, 82, 0
2, 280, Note_on_c, 1, 83, 127
2, 280, Note_on_c, 1, 89, 127
2, 280, Note_off_c, 1, 91, 0
2, 320, Note_on_c, 1, 58, 127
2, 320, Note_on_c, 1, 63, 127
2, 320, Note_on_c, 1, 66, 127
2, 320, Note_on_c, 1, 72, 127
2, 320, Note_on_c, 1, 75, 127
2, 320, Note_off_c, 1, 76, 0
2, 320, Note_off_c, 1, 80, 0
2, 320, Note_on_c, 1, 82, 127
2, 320, Note_off_c, 1, 83, 0
2, 320, Note_on_c, 1, 87, 127
2, 320, Note_off_c, 1, 89, 0
2, 360, Note_on_c, 1, 57, 127
2, 360, Note_off_c, 1, 58, 0
2, 360, Note_on_c, 1, 62, 127
2, 360, Note_off_c, 1, 63, 0
2, 360, Note_off_c, 1, 66, 0
2, 360, Note_off_c, 1, 72, 0
2, 360, Note_off_c, 1, 75, 0
2, 360, Note_off_c, 1, 82, 0
2, 360, Note_off_c, 1, 87, 0
2, 400, Note_off_c, 1, 57, 0
2, 400, Note_on_c, 1, 60, 127
2, 400, Note_off_c, 1, 62, 0
2, 400, Note_on_c, 1, 85, 127
2, 400, Note_on_c, 1, 88, 127
2, 440, Note_on_c, 1, 50, 127
2, 440, Note_on_c, 1, 57, 127
2, 440, Note_off_c, 1, 60, 0
2, 440, Note_on_c, 1, 65, 127
2, 440, Note_off_c, 1, 85, 0
2, 440, Note_off_c, 1, 88, 0
2, 440, Note_on_c, 1, 93, 127
2, 800, Note_off_c, 1, 50, 0
2, 800, Note_off_c, 1, 57, 0
2, 800, Note_off_c, 1, 65, 0
2, 800, Note_off_c, 1, 93, 0
2, 5240, Note_on_c, 1, 43, 127
2, 5240, Note_on_c, 1, 50, 127
2, 5240, Note_on_c, 1, 60, 127
2, 5240, Note_on_c, 1, 62, 127
2, 5240, Note_on_c, 1, 69, 127
2, 5480, Note_off_c, 1, 43, 0
2, 5480, Note_off_c, 1, 50, 0
2, 5480, Note_off_c, 1, 60, 0
2, 5480, Note_off_c, 1, 62, 0
2, 5480, Note_off_c, 1, 69, 0
2, 6120, Note_on_c, 1, 47, 127
2, 6120, Note_on_c, 1, 56, 127
2, 6120, Note_on_c, 1, 64, 127
2, 6120, Note_on_c, 1, 70, 127
2, 6160, Note_off_c, 1, 47, 0
2, 6160, Note_off_c, 1, 56, 0
2, 6160, Note_off_c, 1, 64, 0
2, 6160, Note_on_c, 1, 68, 127
2, 6160, Note_off_c, 1, 70, 0
2, 6160, Note_on_c, 1, 73, 127
2, 6160, Note_on_c, 1, 80, 127
2, 6160, Note_on_c, 1, 85, 127
2, 6160, Note_on_c, 1, 89, 127
2, 6200, Note_on_c, 1, 42, 127
2, 6200, Note_on_c, 1, 52, 127
2, 6200, Note_on_c, 1, 59, 127
2, 6200, Note_on_c, 1, 64, 127
2, 6200, Note_off_c, 1, 68, 0
2, 6200, Note_off_c, 1, 73, 0
2, 6200, Note_off_c, 1, 80, 0
2, 6200, Note_off_c, 1, 85, 0
2, 6200, Note_off_c, 1, 89, 0
2, 6240, Note_off_c, 1, 42, 0
2, 6240, Note_off_c, 1, 52, 0
2, 6240, Note_off_c, 1, 59, 0
2, 6240, Note_off_c, 1, 64, 0
2, 6240, Note_on_c, 1, 68, 127
2, 6240, Note_on_c, 1, 73, 127
2, 6240, Note_on_c, 1, 80, 127
2, 6240, Note_on_c, 1, 85, 127
2, 6240, Note_on_c, 1, 89, 127
2, 6280, Note_off_c, 1, 68, 0
2, 6280, Note_off_c, 1, 73, 0
2, 6280, Note_off_c, 1, 80, 0
2, 6280, Note_off_c, 1, 85, 0
2, 6280, Note_off_c, 1, 89, 0
2, 6320, Note_on_c, 1, 68, 127
2, 6320, Note_on_c, 1, 73, 127
2, 6320, Note_on_c, 1, 80, 127
2, 6320, Note_on_c, 1, 85, 127
2, 6320, Note_on_c, 1, 89, 127
2, 6480, Note_off_c, 1, 68, 0
2, 6480, Note_off_c, 1, 80, 0
2, 6480, Note_off_c, 1, 85, 0
2, 6480, Note_off_c, 1, 89, 0
2, 6520, Note_on_c, 1, 68, 127
2, 6520, Note_on_c, 1, 80, 127
2, 6520, Note_on_c, 1, 85, 127
2, 6520, Note_on_c, 1, 89, 127
2, 6640, Note_off_c, 1, 68, 0
2, 6640, Note_off_c, 1, 80, 0
2, 6640, Note_off_c, 1, 85, 0
2, 6640, Note_off_c, 1, 89, 0
2, 6720, Note_on_c, 1, 43, 127
2, 6720, Note_on_c, 1, 51, 127
2, 6720, Note_on_c, 1, 55, 127
2, 6720, Note_on_c, 1, 60, 127
2, 6720, Note_on_c, 1, 63, 127
2, 6720, Note_on_c, 1, 72, 127
2, 6720, Note_off_c, 1, 73, 0
2, 7040, Note_off_c, 1, 43, 0
2, 7040, Note_off_c, 1, 51, 0
2, 7040, Note_off_c, 1, 55, 0
2, 7040, Note_off_c, 1, 60, 0
2, 7040, Note_off_c, 1, 63, 0
2, 7040, Note_off_c, 1, 72, 0
2, 7080, Note_on_c, 1, 58, 127
2, 7080, Note_on_c, 1, 61, 127
2, 7080, Note_on_c, 1, 68, 127
2, 7080, Note_on_c, 1, 75, 127
2, 7200, Note_off_c, 1, 58, 0
2, 7200, Note_off_c, 1, 61, 0
2, 7200, Note_off_c, 1, 68, 0
2, 7200, Note_off_c, 1, 75, 0
2, 7240, Note_on_c, 1, 58, 127
2, 7240, Note_on_c, 1, 61, 127
2, 7240, Note_on_c, 1, 68, 127
2, 7240, Note_on_c, 1, 75, 127
2, 7720, Note_off_c, 1, 58, 0
2, 7720, Note_off_c, 1, 61, 0
2, 7720, Note_off_c, 1, 68, 0
2, 7760, Note_on_c, 1, 58, 127
2, 7760, Note_on_c, 1, 61, 127
2, 7760, Note_on_c, 1, 67, 127
2, 8160, Note_off_c, 1, 58, 0
2, 8160, Note_off_c, 1, 61, 0
2, 8160, Note_off_c, 1, 67, 0
2, 8160, Note_off_c, 1, 75, 0
2, 8200, Note_on_c, 1, 58, 127
2, 8200, Note_on_c, 1, 61, 127
2, 8200, Note_on_c, 1, 67, 127
2, 8200, Note_on_c, 1, 75, 127
2, 8280, Note_off_c, 1, 58, 0
2, 8280, Note_off_c, 1, 61, 0
2, 8280, Note_off_c, 1, 67, 0
2, 8280, Note_on_c, 1, 68, 127
2, 8280, Note_off_c, 1, 75, 0
2, 8320, Note_on_c, 1, 58, 127
2, 8320, Note_on_c, 1, 61, 127
2, 8320, Note_on_c, 1, 67, 127
2, 8320, Note_off_c, 1, 68, 0
2, 8320, Note_on_c, 1, 75, 127
2, 8480, Note_off_c, 1, 75, 0
2, 8520, Note_on_c, 1, 76, 127
2, 8640, Note_off_c, 1, 58, 0
2, 8640, Note_off_c, 1, 61, 0
2, 8640, Note_off_c, 1, 67, 0
2, 8640, Note_off_c, 1, 76, 0
2, 8680, Note_on_c, 1, 55, 127
2, 8680, Note_on_c, 1, 58, 127
2, 8680, Note_on_c, 1, 62, 127
2, 8680, Note_on_c, 1, 73, 127
2, 8960, Note_off_c, 1, 55, 0
2, 8960, Note_off_c, 1, 58, 0
2, 8960, Note_off_c, 1, 62, 0
2, 8960, Note_off_c, 1, 73, 0
2, 9000, Note_on_c, 1, 73, 127
2, 9040, Note_on_c, 1, 58, 127
2, 9040, Note_off_c, 1, 73, 0
2, 9040, Note_on_c, 1, 79, 127
2, 9040, Note_on_c, 1, 82, 127
2, 9160, Note_off_c, 1, 79, 0
2, 9160, Note_off_c, 1, 82, 0
2, 9200, Note_off_c, 1, 58, 0
2, 9200, Note_on_c, 1, 92, 127
2, 9200, Note_on_c, 1, 95, 127
2, 9200, Note_on_c, 1, 101, 127
2, 9320, Note_on_c, 1, 75, 127
2, 9320, Note_on_c, 1, 82, 127
2, 9320, Note_on_c, 1, 85, 127
2, 9320, Note_off_c, 1, 92, 0
2, 9320, Note_off_c, 1, 95, 0
2, 9320, Note_off_c, 1, 101, 0
2, 9360, Note_on_c, 1, 58, 127
2, 9360, Note_off_c, 1, 75, 0
2, 9360, Note_on_c, 1, 80, 127
2, 9360, Note_off_c, 1, 82, 0
2, 9360, Note_on_c, 1, 84, 127
2, 9360, Note_off_c, 1, 85, 0
2, 9480, Note_off_c, 1, 58, 0
2, 9480, Note_off_c, 1, 80, 0
2, 9480, Note_off_c, 1, 84, 0
2, 9520, Note_on_c, 1, 58, 127
2, 9520, Note_on_c, 1, 67, 127
2, 9520, Note_on_c, 1, 70, 127
2, 9520, Note_on_c, 1, 76, 127
2, 9520, Note_on_c, 1, 85, 127
2, 9800, Note_on_c, 1, 65, 127
2, 9800, Note_off_c, 1, 67, 0
2, 9800, Note_off_c, 1, 70, 0
2, 9800, Note_on_c, 1, 73, 127
2, 9800, Note_off_c, 1, 76, 0
2, 9800, Note_off_c, 1, 85, 0
2, 9840, Note_off_c, 1, 58, 0
2, 9840, Note_off_c, 1, 65, 0
2, 9840, Note_off_c, 1, 73, 0
2, 9840, Note_on_c, 1, 74, 127
2, 9840, Note_on_c, 1, 75, 127
2, 9880, Note_on_c, 1, 51, 127
2, 9880, Note_on_c, 1, 58, 127
2, 9880, Note_on_c, 1, 61, 127
2, 9880, Note_on_c, 1, 67, 127
2, 9880, Note_off_c, 1, 74, 0
2, 10160, Note_off_c, 1, 51, 0
2, 10160, Note_off_c, 1, 58, 0
2, 10160, Note_off_c, 1, 61, 0
2, 10160, Note_off_c, 1, 67, 0
2, 10200, Note_off_c, 1, 75, 0
2, 10240, Note_on_c, 1, 51, 127
2, 10240, Note_on_c, 1, 58, 127
2, 10240, Note_on_c, 1, 61, 127
2, 10240, Note_on_c, 1, 67, 127
2, 10240, Note_on_c, 1, 75, 127
2, 10520, Note_off_c, 1, 51, 0
2, 10520, Note_off_c, 1, 58, 0
2, 10520, Note_off_c, 1, 61, 0
2, 10520, Note_off_c, 1, 67, 0
2, 10560, Note_off_c, 1, 75, 0
2, 10600, Note_on_c, 1, 51, 127
2, 10600, Note_on_c, 1, 56, 127
2, 10600, Note_on_c, 1, 60, 127
2, 10600, Note_on_c, 1, 77, 127
2, 10880, Note_off_c, 1, 51, 0
2, 10880, Note_off_c, 1, 56, 0
2, 10880, Note_off_c, 1, 60, 0
2, 10880, Note_on_c, 1, 75, 127
2, 10880, Note_off_c, 1, 77, 0
2, 10920, Note_on_c, 1, 51, 127
2, 10920, Note_on_c, 1, 56, 127
2, 10920, Note_on_c, 1, 60, 127
2, 10920, Note_off_c, 1, 75, 0
2, 10920, Note_on_c, 1, 77, 127
2, 11160, Note_off_c, 1, 77, 0
2, 11200, Note_off_c, 1, 51, 0
2, 11200, Note_off_c, 1, 56, 0
2, 11200, Note_off_c, 1, 60, 0
2, 11240, Note_on_c, 1, 79, 127
2, 11280, Note_on_c, 1, 60, 127
2, 11280, Note_on_c, 1, 63, 127
2, 11280, Note_on_c, 1, 68, 127
2, 11280, Note_on_c, 1, 75, 127
2, 11280, Note_off_c, 1, 79, 0
2, 11560, Note_off_c, 1, 60, 0
2, 11560, Note_off_c, 1, 63, 0
2, 11560, Note_off_c, 1, 68, 0
2, 11600, Note_on_c, 1, 60, 127
2, 11600, Note_on_c, 1, 63, 127
2, 11600, Note_on_c, 1, 68, 127
2, 11840, Note_off_c, 1, 75, 0
2, 11880, Note_off_c, 1, 60, 0
2, 11880, Note_off_c, 1, 63, 0
2, 11880, Note_off_c, 1, 68, 0
2, 11880, Note_on_c, 1, 75, 127
2, 11920, Note_off_c, 1, 75, 0
2, 11960, Note_on_c, 1, 60, 127
2, 11960, Note_on_c, 1, 63, 127
2, 11960, Note_on_c, 1, 68, 127
2, 11960, Note_on_c, 1, 75, 127
2, 12200, Note_off_c, 1, 60, 0
2, 12200, Note_off_c, 1, 63, 0
2, 12200, Note_off_c, 1, 68, 0
2, 12200, Note_off_c, 1, 75, 0
2, 12240, Note_on_c, 1, 60, 127
2, 12240, Note_on_c, 1, 63, 127
2, 12240, Note_on_c, 1, 68, 127
2, 12240, Note_on_c, 1, 75, 127
2, 12280, Note_off_c, 1, 60, 0
2, 12280, Note_off_c, 1, 63, 0
2, 12280, Note_off_c, 1, 68, 0
2, 12320, Note_on_c, 1, 60, 127
2, 12320, Note_on_c, 1, 63, 127
2, 12320, Note_on_c, 1, 68, 127
2, 12440, Note_off_c, 1, 75, 0
2, 12480, Note_on_c, 1, 75, 127
2, 12600, Note_off_c, 1, 75, 0
2, 12640, Note_off_c, 1, 60, 0
2, 12640, Note_off_c, 1, 63, 0
2, 12640, Note_off_c, 1, 68, 0
2, 12640, Note_on_c, 1, 75, 127
2, 12680, Note_on_c, 1, 60, 127
2, 12680, Note_on_c, 1, 63, 127
2, 12680, Note_on_c, 1, 68, 127
2, 12960, Note_off_c, 1, 60, 0
2, 12960, Note_off_c, 1, 63, 0
2, 12960, Note_off_c, 1, 68, 0
2, 13040, Note_on_c, 1, 60, 127
2, 13040, Note_on_c, 1, 63, 127
2, 13040, Note_on_c, 1, 68, 127
2, 13280, Note_off_c, 1, 75, 0
2, 13320, Note_off_c, 1, 60, 0
2, 13320, Note_off_c, 1, 63, 0
2, 13320, Note_off_c, 1, 68, 0
2, 13320, Note_on_c, 1, 75, 127
2, 13360, Note_on_c, 1, 60, 127
2, 13360, Note_on_c, 1, 63, 127
2, 13360, Note_on_c, 1, 68, 127
2, 13640, Note_off_c, 1, 60, 0
2, 13640, Note_off_c, 1, 63, 0
2, 13640, Note_off_c, 1, 68, 0
2, 13680, Note_off_c, 1, 75, 0
2, 13720, Note_on_c, 1, 56, 127
2, 13720, Note_on_c, 1, 60, 127
2, 13720, Note_on_c, 1, 63, 127
2, 13720, Note_on_c, 1, 75, 127
2, 14000, Note_off_c, 1, 56, 0
2, 14000, Note_off_c, 1, 60, 0
2, 14000, Note_off_c, 1, 63, 0
2, 14000, Note_off_c, 1, 75, 0
2, 14040, Note_on_c, 1, 56, 127
2, 14040, Note_on_c, 1, 60, 127
2, 14040, Note_on_c, 1, 63, 127
2, 14120, Note_on_c, 1, 72, 127
2, 14160, Note_off_c, 1, 72, 0
2, 14240, Note_off_c, 1, 56, 0
2, 14240, Note_off_c, 1, 60, 0
2, 14240, Note_off_c, 1, 63, 0
2, 14280, Note_on_c, 1, 56, 127
2, 14280, Note_on_c, 1, 60, 127
2, 14280, Note_on_c, 1, 63, 127
2, 14280, Note_on_c, 1, 70, 127
2, 14320, Note_off_c, 1, 70, 0
2, 14360, Note_on_c, 1, 72, 127
2, 14400, Note_off_c, 1, 56, 0
2, 14400, Note_off_c, 1, 60, 0
2, 14400, Note_off_c, 1, 63, 0
2, 14400, Note_off_c, 1, 72, 0
2, 14440, Note_on_c, 1, 51, 127
2, 14440, Note_on_c, 1, 58, 127
2, 14440, Note_on_c, 1, 61, 127
2, 14440, Note_on_c, 1, 75, 127
2, 14720, Note_off_c, 1, 51, 0
2, 14720, Note_off_c, 1, 58, 0
2, 14720, Note_off_c, 1, 61, 0
2, 14720, Note_on_c, 1, 73, 127
2, 14720, Note_off_c, 1, 75, 0
2, 14760, Note_off_c, 1, 73, 0
2, 14800, Note_on_c, 1, 51, 127
2, 14800, Note_on_c, 1, 58, 127
2, 14800, Note_on_c, 1, 61, 127
2, 14800, Note_on_c, 1, 73, 127
2, 15000, Note_off_c, 1, 73, 0
2, 15000, Note_on_c, 1, 75, 127
2, 15040, Note_on_c, 1, 73, 127
2, 15040, Note_off_c, 1, 75, 0
2, 15080, Note_off_c, 1, 51, 0
2, 15080, Note_off_c, 1, 58, 0
2, 15080, Note_off_c, 1, 61, 0
2, 15080, Note_off_c, 1, 73, 0
2, 15080, Note_on_c, 1, 75, 127
2, 15120, Note_on_c, 1, 56, 127
2, 15120, Note_on_c, 1, 60, 127
2, 15120, Note_on_c, 1, 63, 127
2, 15120, Note_off_c, 1, 75, 0
2, 15120, Note_on_c, 1, 96, 127
2, 15400, Note_off_c, 1, 56, 0
2, 15400, Note_off_c, 1, 60, 0
2, 15400, Note_off_c, 1, 63, 0
2, 15400, Note_on_c, 1, 84, 127
2, 15400, Note_off_c, 1, 96, 0
2, 15440, Note_off_c, 1, 84, 0
2, 15440, Note_on_c, 1, 85, 127
2, 15480, Note_on_c, 1, 56, 127
2, 15480, Note_on_c, 1, 60, 127
2, 15480, Note_on_c, 1, 63, 127
2, 15480, Note_off_c, 1, 85, 0
2, 15480, Note_on_c, 1, 96, 127
2, 15760, Note_off_c, 1, 56, 0
2, 15760, Note_off_c, 1, 60, 0
2, 15760, Note_off_c, 1, 63, 0
2, 15760, Note_off_c, 1, 96, 0
2, 15800, Note_on_c, 1, 56, 127
2, 15800, Note_on_c, 1, 60, 127
2, 15800, Note_on_c, 1, 63, 127
2, 15800, Note_on_c, 1, 96, 127
2, 16080, Note_off_c, 1, 56, 0
2, 16080, Note_on_c, 1, 57, 127
2, 16080, Note_on_c, 1, 72, 127
2, 16080, Note_on_c, 1, 78, 127
2, 16080, Note_on_c, 1, 83, 127
2, 16080, Note_off_c, 1, 96, 0
2, 16120, Note_off_c, 1, 57, 0
2, 16120, Note_off_c, 1, 60, 0
2, 16120, Note_off_c, 1, 63, 0
2, 16120, Note_off_c, 1, 72, 0
2, 16120, Note_off_c, 1, 78, 0
2, 16120, Note_off_c, 1, 83, 0
2, 16160, Note_on_c, 1, 61, 127
2, 16160, Note_on_c, 1, 63, 127
2, 16160, Note_on_c, 1, 67, 127
2, 16160, Note_on_c, 1, 82, 127
2, 16400, Note_off_c, 1, 82, 0
2, 16440, Note_off_c, 1, 61, 0
2, 16440, Note_off_c, 1, 63, 0
2, 16440, Note_off_c, 1, 67, 0
2, 16440, Note_on_c, 1, 82, 127
2, 16480, Note_off_c, 1, 82, 0
2, 16520, Note_on_c, 1, 60, 127
2, 16520, Note_on_c, 1, 63, 127
2, 16520, Note_on_c, 1, 80, 127
2, 16800, Note_off_c, 1, 60, 0
2, 16800, Note_off_c, 1, 63, 0
2, 16840, Note_off_c, 1, 80, 0
2, 16880, Note_on_c, 1, 60, 127
2, 16880, Note_on_c, 1, 63, 127
2, 16880, Note_on_c, 1, 80, 127
2, 17160, Note_off_c, 1, 60, 0
2, 17160, Note_off_c, 1, 63, 0
2, 17160, Note_off_c, 1, 80, 0
2, 17240, Note_on_c, 1, 61, 127
2, 17240, Note_on_c, 1, 64, 127
2, 17240, Note_on_c, 1, 68, 127
2, 17240, Note_on_c, 1, 80, 127
2, 17520, Note_off_c, 1, 61, 0
2, 17520, Note_off_c, 1, 64, 0
2, 17520, Note_off_c, 1, 68, 0
2, 17520, Note_off_c, 1, 80, 0
2, 17560, Note_on_c, 1, 61, 127
2, 17560, Note_on_c, 1, 64, 127
2, 17560, Note_on_c, 1, 68, 127
2, 17560, Note_on_c, 1, 80, 127
2, 17840, Note_off_c, 1, 61, 0
2, 17840, Note_off_c, 1, 64, 0
2, 17840, Note_off_c, 1, 68, 0
2, 17840, Note_off_c, 1, 80, 0
2, 17920, Note_on_c, 1, 61, 127
2, 17920, Note_on_c, 1, 64, 127
2, 17920, Note_on_c, 1, 68, 127
2, 17920, Note_on_c, 1, 80, 127
2, 18200, Note_off_c, 1, 61, 0
2, 18200, Note_off_c, 1, 64, 0
2, 18200, Note_off_c, 1, 68, 0
2, 18240, Note_on_c, 1, 61, 127
2, 18240, Note_on_c, 1, 64, 127
2, 18240, Note_on_c, 1, 68, 127
2, 18520, Note_off_c, 1, 61, 0
2, 18520, Note_off_c, 1, 64, 0
2, 18520, Note_off_c, 1, 68, 0
2, 18560, Note_off_c, 1, 80, 0
2, 18600, Note_on_c, 1, 61, 127
2, 18600, Note_on_c, 1, 64, 127
2, 18600, Note_on_c, 1, 68, 127
2, 18600, Note_on_c, 1, 80, 127
2, 18840, Note_off_c, 1, 61, 0
2, 18840, Note_off_c, 1, 64, 0
2, 18840, Note_off_c, 1, 68, 0
2, 18840, Note_off_c, 1, 80, 0
2, 18880, Note_on_c, 1, 61, 127
2, 18880, Note_on_c, 1, 64, 127
2, 18880, Note_on_c, 1, 68, 127
2, 18880, Note_on_c, 1, 80, 127
2, 18920, Note_off_c, 1, 61, 0
2, 18920, Note_off_c, 1, 64, 0
2, 18920, Note_off_c, 1, 68, 0
2, 18920, Note_off_c, 1, 80, 0
2, 18960, Note_on_c, 1, 61, 127
2, 18960, Note_on_c, 1, 64, 127
2, 18960, Note_on_c, 1, 68, 127
2, 18960, Note_on_c, 1, 80, 127
2, 19120, Note_off_c, 1, 80, 0
2, 19160, Note_on_c, 1, 80, 127
2, 19240, Note_off_c, 1, 61, 0
2, 19240, Note_off_c, 1, 64, 0
2, 19240, Note_off_c, 1, 68, 0
2, 19280, Note_off_c, 1, 80, 0
2, 19320, Note_on_c, 1, 61, 127
2, 19320, Note_on_c, 1, 64, 127
2, 19320, Note_on_c, 1, 68, 127
2, 19320, Note_on_c, 1, 80, 127
2, 19600, Note_off_c, 1, 61, 0
2, 19600, Note_off_c, 1, 64, 0
2, 19600, Note_off_c, 1, 68, 0
2, 19600, Note_off_c, 1, 80, 0
2, 19680, Note_on_c, 1, 61, 127
2, 19680, Note_on_c, 1, 64, 127
2, 19680, Note_on_c, 1, 68, 127
2, 19680, Note_on_c, 1, 80, 127
2, 19960, Note_off_c, 1, 61, 0
2, 19960, Note_off_c, 1, 64, 0
2, 19960, Note_off_c, 1, 68, 0
2, 20000, Note_on_c, 1, 58, 127
2, 20000, Note_on_c, 1, 61, 127
2, 20000, Note_on_c, 1, 67, 127
2, 20000, Note_on_c, 1, 79, 127
2, 20000, Note_off_c, 1, 80, 0
2, 20080, Note_off_c, 1, 79, 0
2, 20120, Note_on_c, 1, 79, 127
2, 20240, Note_off_c, 1, 79, 0
2, 20280, Note_off_c, 1, 58, 0
2, 20280, Note_off_c, 1, 61, 0
2, 20320, Note_off_c, 1, 67, 0
2, 20360, Note_on_c, 1, 56, 127
2, 20360, Note_on_c, 1, 60, 127
2, 20360, Note_on_c, 1, 63, 127
2, 20520, Note_on_c, 1, 90, 127
2, 20640, Note_off_c, 1, 56, 0
2, 20640, Note_off_c, 1, 60, 0
2, 20640, Note_off_c, 1, 63, 0
2, 20640, Note_on_c, 1, 82, 127
2, 20640, Note_off_c, 1, 90, 0
2, 20680, Note_off_c, 1, 82, 0
2, 20720, Note_on_c, 1, 56, 127
2, 20720, Note_on_c, 1, 60, 127
2, 20720, Note_on_c, 1, 63, 127
2, 20880, Note_on_c, 1, 69, 127
2, 20960, Note_off_c, 1, 69, 0
2, 20960, Note_on_c, 1, 72, 127
2, 21000, Note_off_c, 1, 56, 0
2, 21000, Note_off_c, 1, 60, 0
2, 21000, Note_off_c, 1, 63, 0
2, 21000, Note_off_c, 1, 72, 0
2, 21080, Note_on_c, 1, 56, 127
2, 21080, Note_on_c, 1, 60, 127
2, 21080, Note_on_c, 1, 63, 127
2, 21080, Note_on_c, 1, 84, 127
2, 21200, Note_off_c, 1, 84, 0
2, 21240, Note_on_c, 1, 84, 127
2, 21360, Note_off_c, 1, 84, 0
2, 21440, Note_on_c, 1, 90, 127
2, 21720, Note_off_c, 1, 56, 0
2, 21720, Note_off_c, 1, 60, 0
2, 21720, Note_off_c, 1, 63, 0
2, 21720, Note_off_c, 1, 90, 0
2, 21760, Note_on_c, 1, 56, 127
2, 21760, Note_on_c, 1, 60, 127
2, 21760, Note_on_c, 1, 63, 127
2, 21960, Note_on_c, 1, 87, 127
2, 22040, Note_off_c, 1, 56, 0
2, 22040, Note_off_c, 1, 60, 0
2, 22040, Note_off_c, 1, 63, 0
2, 22040, Note_on_c, 1, 80, 127
2, 22040, Note_off_c, 1, 87, 0
2, 22080, Note_off_c, 1, 80, 0
2, 22120, Note_on_c, 1, 53, 127
2, 22120, Note_on_c, 1, 56, 127
2, 22120, Note_on_c, 1, 61, 127
2, 22120, Note_on_c, 1, 83, 127
2, 22400, Note_off_c, 1, 53, 0
2, 22400, Note_off_c, 1, 56, 0
2, 22400, Note_off_c, 1, 61, 0
2, 22400, Note_off_c, 1, 83, 0
2, 22480, Note_on_c, 1, 53, 127
2, 22480, Note_on_c, 1, 56, 127
2, 22480, Note_on_c, 1, 61, 127
2, 22480, Note_on_c, 1, 84, 127
2, 22640, Note_off_c, 1, 84, 0
2, 22640, Note_on_c, 1, 85, 127
2, 22720, Note_off_c, 1, 53, 0
2, 22720, Note_off_c, 1, 56, 0
2, 22720, Note_off_c, 1, 61, 0
2, 22720, Note_on_c, 1, 80, 127
2, 22720, Note_off_c, 1, 85, 0
2, 22760, Note_off_c, 1, 80, 0
2, 22800, Note_on_c, 1, 53, 127
2, 22800, Note_on_c, 1, 56, 127
2, 22800, Note_on_c, 1, 61, 127
2, 22800, Note_on_c, 1, 84, 127
2, 23080, Note_off_c, 1, 53, 0
2, 23080, Note_off_c, 1, 56, 0
2, 23080, Note_off_c, 1, 61, 0
2, 23080, Note_off_c, 1, 84, 0
2, 23160, Note_on_c, 1, 80, 127
2, 23200, Note_on_c, 1, 53, 127
2, 23200, Note_on_c, 1, 56, 127
2, 23200, Note_on_c, 1, 61, 127
2, 23200, Note_off_c, 1, 80, 0
2, 23200, Note_on_c, 1, 85, 127
2, 23480, Note_off_c, 1, 53, 0
2, 23480, Note_off_c, 1, 56, 0
2, 23480, Note_off_c, 1, 61, 0
2, 23480, Note_on_c, 1, 73, 127
2, 23480, Note_off_c, 1, 85, 0
2, 23560, Note_on_c, 1, 53, 127
2, 23560, Note_on_c, 1, 56, 127
2, 23560, Note_on_c, 1, 61, 127
2, 23560, Note_off_c, 1, 73, 0
2, 23560, Note_on_c, 1, 85, 127
2, 23800, Note_off_c, 1, 53, 0
2, 23800, Note_off_c, 1, 56, 0
2, 23800, Note_off_c, 1, 61, 0
2, 23840, Note_on_c, 1, 73, 127
2, 23840, Note_off_c, 1, 85, 0
2, 23880, Note_on_c, 1, 53, 127
2, 23880, Note_on_c, 1, 56, 127
2, 23880, Note_on_c, 1, 61, 127
2, 23880, Note_off_c, 1, 73, 0
2, 23880, Note_on_c, 1, 85, 127
2, 24160, Note_off_c, 1, 53, 0
2, 24160, Note_off_c, 1, 56, 0
2, 24160, Note_off_c, 1, 61, 0
2, 24200, Note_off_c, 1, 85, 0
2, 24240, Note_on_c, 1, 53, 127
2, 24240, Note_on_c, 1, 56, 127
2, 24240, Note_on_c, 1, 61, 127
2, 24240, Note_on_c, 1, 85, 127
2, 24520, Note_off_c, 1, 53, 0
2, 24520, Note_off_c, 1, 56, 0
2, 24520, Note_off_c, 1, 61, 0
2, 24600, Note_on_c, 1, 53, 127
2, 24600, Note_on_c, 1, 56, 127
2, 24600, Note_on_c, 1, 61, 127
2, 24880, Note_off_c, 1, 53, 0
2, 24880, Note_off_c, 1, 56, 0
2, 24880, Note_off_c, 1, 61, 0
2, 24880, Note_on_c, 1, 73, 127
2, 24880, Note_off_c, 1, 85, 0
2, 24920, Note_off_c, 1, 73, 0
2, 24960, Note_on_c, 1, 53, 127
2, 24960, Note_on_c, 1, 56, 127
2, 24960, Note_on_c, 1, 61, 127
2, 24960, Note_on_c, 1, 85, 127
2, 25200, Note_off_c, 1, 53, 0
2, 25200, Note_off_c, 1, 56, 0
2, 25200, Note_off_c, 1, 61, 0
2, 25200, Note_off_c, 1, 85, 0
2, 25240, Note_on_c, 1, 53, 127
2, 25240, Note_on_c, 1, 56, 127
2, 25240, Note_on_c, 1, 61, 127
2, 25240, Note_on_c, 1, 85, 127
2, 25280, Note_off_c, 1, 53, 0
2, 25280, Note_off_c, 1, 56, 0
2, 25280, Note_off_c, 1, 61, 0
2, 25280, Note_off_c, 1, 85, 0
2, 25320, Note_on_c, 1, 53, 127
2, 25320, Note_on_c, 1, 56, 127
2, 25320, Note_on_c, 1, 61, 127
2, 25320, Note_on_c, 1, 85, 127
2, 25600, Note_off_c, 1, 53, 0
2, 25600, Note_off_c, 1, 56, 0
2, 25600, Note_off_c, 1, 61, 0
2, 25600, Note_on_c, 1, 73, 127
2, 25600, Note_off_c, 1, 85, 0
2, 25680, Note_on_c, 1, 53, 127
2, 25680, Note_on_c, 1, 56, 127
2, 25680, Note_on_c, 1, 61, 127
2, 25680, Note_off_c, 1, 73, 0
2, 25680, Note_on_c, 1, 85, 127
2, 25960, Note_off_c, 1, 53, 0
2, 25960, Note_off_c, 1, 56, 0
2, 25960, Note_off_c, 1, 61, 0
2, 25960, Note_on_c, 1, 73, 127
2, 25960, Note_off_c, 1, 85, 0
2, 26040, Note_on_c, 1, 53, 127
2, 26040, Note_on_c, 1, 56, 127
2, 26040, Note_on_c, 1, 61, 127
2, 26040, Note_off_c, 1, 73, 0
2, 26040, Note_on_c, 1, 85, 127
2, 26280, Note_off_c, 1, 53, 0
2, 26280, Note_off_c, 1, 56, 0
2, 26280, Note_off_c, 1, 61, 0
2, 26320, Note_on_c, 1, 73, 127
2, 26320, Note_off_c, 1, 85, 0
2, 26360, Note_on_c, 1, 53, 127
2, 26360, Note_on_c, 1, 56, 127
2, 26360, Note_on_c, 1, 61, 127
2, 26360, Note_off_c, 1, 73, 0
2, 26360, Note_on_c, 1, 85, 127
2, 26640, Note_off_c, 1, 53, 0
2, 26640, Note_off_c, 1, 56, 0
2, 26640, Note_off_c, 1, 61, 0
2, 26640, Note_on_c, 1, 73, 127
2, 26640, Note_off_c, 1, 85, 0
2, 26680, Note_off_c, 1, 73, 0
2, 26720, Note_on_c, 1, 53, 127
2, 26720, Note_on_c, 1, 56, 127
2, 26720, Note_on_c, 1, 61, 127
2, 26720, Note_on_c, 1, 85, 127
2, 27000, Note_off_c, 1, 53, 0
2, 27000, Note_off_c, 1, 56, 0
2, 27000, Note_off_c, 1, 61, 0
2, 27000, Note_on_c, 1, 73, 127
2, 27000, Note_off_c, 1, 85, 0
2, 27080, Note_on_c, 1, 53, 127
2, 27080, Note_on_c, 1, 56, 127
2, 27080, Note_on_c, 1, 61, 127
2, 27080, Note_off_c, 1, 73, 0
2, 27080, Note_on_c, 1, 85, 127
2, 27320, Note_off_c, 1, 53, 0
2, 27320, Note_off_c, 1, 56, 0
2, 27320, Note_off_c, 1, 61, 0
2, 27320, Note_off_c, 1, 85, 0
2, 27480, Note_on_c, 1, 53, 127
2, 27480, Note_on_c, 1, 56, 127
2, 27480, Note_on_c, 1, 61, 127
2, 27480, Note_on_c, 1, 85, 127
2, 27720, Note_off_c, 1, 53, 0
2, 27720, Note_off_c, 1, 56, 0
2, 27720, Note_off_c, 1, 61, 0
2, 27720, Note_on_c, 1, 77, 127
2, 27720, Note_off_c, 1, 85, 0
2, 27760, Note_off_c, 1, 77, 0
2, 27800, Note_on_c, 1, 53, 127
2, 27800, Note_on_c, 1, 56, 127
2, 27800, Note_on_c, 1, 61, 127
2, 27800, Note_on_c, 1, 85, 127
2, 28080, Note_off_c, 1, 53, 0
2, 28080, Note_off_c, 1, 56, 0
2, 28080, Note_off_c, 1, 61, 0
2, 28080, Note_on_c, 1, 84, 127
2, 28080, Note_off_c, 1, 85, 0
2, 28120, Note_off_c, 1, 84, 0
2, 28160, Note_on_c, 1, 53, 127
2, 28160, Note_on_c, 1, 56, 127
2, 28160, Note_on_c, 1, 61, 127
2, 28160, Note_on_c, 1, 85, 127
2, 28440, Note_off_c, 1, 53, 0
2, 28440, Note_off_c, 1, 56, 0
2, 28440, Note_off_c, 1, 61, 0
2, 28440, Note_on_c, 1, 77, 127
2, 28440, Note_off_c, 1, 85, 0
2, 28480, Note_off_c, 1, 77, 0
2, 28520, Note_on_c, 1, 53, 127
2, 28520, Note_on_c, 1, 56, 127
2, 28520, Note_on_c, 1, 61, 127
2, 28520, Note_on_c, 1, 85, 127
2, 28760, Note_off_c, 1, 53, 0
2, 28760, Note_off_c, 1, 56, 0
2, 28760, Note_off_c, 1, 61, 0
2, 28800, Note_off_c, 1, 85, 0
2, 28840, Note_on_c, 1, 53, 127
2, 28840, Note_on_c, 1, 56, 127
2, 28840, Note_on_c, 1, 61, 127
2, 28840, Note_on_c, 1, 85, 127
2, 29120, Note_off_c, 1, 53, 0
2, 29120, Note_off_c, 1, 56, 0
2, 29120, Note_off_c, 1, 61, 0
2, 29120, Note_on_c, 1, 83, 127
2, 29120, Note_off_c, 1, 85, 0
2, 29160, Note_off_c, 1, 83, 0
2, 29200, Note_on_c, 1, 53, 127
2, 29200, Note_on_c, 1, 56, 127
2, 29200, Note_on_c, 1, 61, 127
2, 29200, Note_on_c, 1, 85, 127
2, 29440, Note_off_c, 1, 53, 0
2, 29440, Note_off_c, 1, 56, 0
2, 29440, Note_off_c, 1, 61, 0
2, 29440, Note_off_c, 1, 85, 0
2, 29480, Note_on_c, 1, 53, 127
2, 29480, Note_on_c, 1, 56, 127
2, 29480, Note_on_c, 1, 61, 127
2, 29480, Note_on_c, 1, 85, 127
2, 29520, Note_off_c, 1, 53, 0
2, 29520, Note_off_c, 1, 56, 0
2, 29520, Note_off_c, 1, 61, 0
2, 29560, Note_on_c, 1, 53, 127
2, 29560, Note_on_c, 1, 56, 127
2, 29560, Note_on_c, 1, 61, 127
2, 29840, Note_off_c, 1, 53, 0
2, 29840, Note_off_c, 1, 56, 0
2, 29840, Note_off_c, 1, 61, 0
2, 29920, Note_on_c, 1, 53, 127
2, 29920, Note_on_c, 1, 56, 127
2, 29920, Note_on_c, 1, 61, 127
2, 30200, Note_off_c, 1, 53, 0
2, 30200, Note_off_c, 1, 56, 0
2, 30200, Note_off_c, 1, 61, 0
2, 30200, Note_on_c, 1, 73, 127
2, 30200, Note_off_c, 1, 85, 0
2, 30280, Note_on_c, 1, 53, 127
2, 30280, Note_on_c, 1, 56, 127
2, 30280, Note_on_c, 1, 61, 127
2, 30280, Note_off_c, 1, 73, 0
2, 30280, Note_on_c, 1, 85, 127
2, 30520, Note_off_c, 1, 53, 0
2, 30520, Note_off_c, 1, 56, 0
2, 30520, Note_off_c, 1, 61, 0
2, 30520, Note_on_c, 1, 73, 127
2, 30520, Note_off_c, 1, 85, 0
2, 30600, Note_on_c, 1, 53, 127
2, 30600, Note_on_c, 1, 56, 127
2, 30600, Note_on_c, 1, 61, 127
2, 30600, Note_off_c, 1, 73, 0
2, 30600, Note_on_c, 1, 85, 127
2, 30880, Note_off_c, 1, 53, 0
2, 30880, Note_off_c, 1, 56, 0
2, 30880, Note_off_c, 1, 61, 0
2, 30880, Note_on_c, 1, 82, 127
2, 30880, Note_off_c, 1, 85, 0
2, 30920, Note_off_c, 1, 82, 0
2, 30960, Note_on_c, 1, 53, 127
2, 30960, Note_on_c, 1, 56, 127
2, 30960, Note_on_c, 1, 61, 127
2, 30960, Note_on_c, 1, 85, 127
2, 31200, Note_off_c, 1, 53, 0
2, 31200, Note_off_c, 1, 56, 0
2, 31200, Note_off_c, 1, 61, 0
2, 31280, Note_off_c, 1, 85, 0
2, 31360, Note_on_c, 1, 53, 127
2, 31360, Note_on_c, 1, 56, 127
2, 31360, Note_on_c, 1, 61, 127
2, 31360, Note_on_c, 1, 85, 127
2, 31600, Note_off_c, 1, 53, 0
2, 31600, Note_off_c, 1, 56, 0
2, 31600, Note_off_c, 1, 61, 0
2, 31600, Note_on_c, 1, 73, 127
2, 31600, Note_off_c, 1, 85, 0
2, 31640, Note_off_c, 1, 73, 0
2, 31680, Note_on_c, 1, 53, 127
2, 31680, Note_on_c, 1, 56, 127
2, 31680, Note_on_c, 1, 61, 127
2, 31680, Note_on_c, 1, 85, 127
2, 31960, Note_off_c, 1, 53, 0
2, 31960, Note_off_c, 1, 56, 0
2, 31960, Note_off_c, 1, 61, 0
2, 31960, Note_on_c, 1, 73, 127
2, 31960, Note_off_c, 1, 85, 0
2, 32040, Note_on_c, 1, 53, 127
2, 32040, Note_on_c, 1, 56, 127
2, 32040, Note_on_c, 1, 61, 127
2, 32040, Note_off_c, 1, 73, 0
2, 32040, Note_on_c, 1, 85, 127
2, 32280, Note_off_c, 1, 53, 0
2, 32280, Note_off_c, 1, 56, 0
2, 32280, Note_off_c, 1, 61, 0
2, 32280, Note_on_c, 1, 73, 127
2, 32280, Note_off_c, 1, 85, 0
2, 32360, Note_on_c, 1, 53, 127
2, 32360, Note_on_c, 1, 56, 127
2, 32360, Note_on_c, 1, 61, 127
2, 32360, Note_off_c, 1, 73, 0
2, 32360, Note_on_c, 1, 85, 127
2, 32640, Note_off_c, 1, 53, 0
2, 32640, Note_off_c, 1, 56, 0
2, 32640, Note_off_c, 1, 61, 0
2, 32640, Note_on_c, 1, 73, 127
2, 32640, Note_off_c, 1, 85, 0
2, 32680, Note_off_c, 1, 73, 0
2, 32720, Note_on_c, 1, 53, 127
2, 32720, Note_on_c, 1, 56, 127
2, 32720, Note_on_c, 1, 61, 127
2, 32720, Note_on_c, 1, 85, 127
2, 33000, Note_off_c, 1, 53, 0
2, 33000, Note_off_c, 1, 56, 0
2, 33000, Note_off_c, 1, 61, 0
2, 33000, Note_on_c, 1, 73, 127
2, 33000, Note_off_c, 1, 85, 0
2, 33080, Note_on_c, 1, 53, 127
2, 33080, Note_on_c, 1, 56, 127
2, 33080, Note_on_c, 1, 61, 127
2, 33080, Note_off_c, 1, 73, 0
2, 33080, Note_on_c, 1, 85, 127
2, 33320, Note_off_c, 1, 53, 0
2, 33320, Note_off_c, 1, 56, 0
2, 33320, Note_off_c, 1, 61, 0
2, 33320, Note_off_c, 1, 85, 0
2, 33360, Note_on_c, 1, 85, 127
2, 33400, Note_off_c, 1, 85, 0
2, 33440, Note_on_c, 1, 53, 127
2, 33440, Note_on_c, 1, 56, 127
2, 33440, Note_on_c, 1, 61, 127
2, 33440, Note_on_c, 1, 85, 127
2, 33720, Note_off_c, 1, 53, 0
2, 33720, Note_off_c, 1, 56, 0
2, 33720, Note_off_c, 1, 61, 0
2, 33760, Note_off_c, 1, 85, 0
2, 33800, Note_on_c, 1, 53, 127
2, 33800, Note_on_c, 1, 56, 127
2, 33800, Note_on_c, 1, 61, 127
2, 33800, Note_on_c, 1, 85, 127
2, 34080, Note_off_c, 1, 53, 0
2, 34080, Note_off_c, 1, 56, 0
2, 34080, Note_off_c, 1, 61, 0
2, 34120, Note_off_c, 1, 85, 0
2, 34160, Note_on_c, 1, 53, 127
2, 34160, Note_on_c, 1, 56, 127
2, 34160, Note_on_c, 1, 61, 127
2, 34160, Note_on_c, 1, 85, 127
2, 34400, Note_off_c, 1, 53, 0
2, 34400, Note_off_c, 1, 56, 0
2, 34400, Note_off_c, 1, 61, 0
2, 34480, Note_on_c, 1, 47, 127
2, 34480, Note_on_c, 1, 77, 127
2, 34480, Note_off_c, 1, 85, 0
2, 34480, Note_on_c, 1, 91, 127
2, 34520, Note_on_c, 1, 35, 127
2, 34520, Note_off_c, 1, 47, 0
2, 34520, Note_on_c, 1, 54, 127
2, 34520, Note_on_c, 1, 59, 127
2, 34520, Note_on_c, 1, 64, 127
2, 34520, Note_on_c, 1, 68, 127
2, 34520, Note_on_c, 1, 71, 127
2, 34520, Note_off_c, 1, 77, 0
2, 34520, Note_off_c, 1, 91, 0
2, 34560, Note_off_c, 1, 35, 0
2, 34560, Note_on_c, 1, 44, 127
2, 34560, Note_on_c, 1, 48, 127
2, 34560, Note_off_c, 1, 54, 0
2, 34560, Note_off_c, 1, 59, 0
2, 34560, Note_off_c, 1, 64, 0
2, 34560, Note_off_c, 1, 68, 0
2, 34560, Note_off_c, 1, 71, 0
2, 34560, Note_on_c, 1, 72, 127
2, 34560, Note_on_c, 1, 74, 127
2, 34560, Note_on_c, 1, 84, 127
2, 34600, Note_on_c, 1, 38, 127
2, 34600, Note_off_c, 1, 44, 0
2, 34600, Note_off_c, 1, 48, 0
2, 34600, Note_on_c, 1, 62, 127
2, 34600, Note_off_c, 1, 72, 0
2, 34600, Note_off_c, 1, 74, 0
2, 34600, Note_on_c, 1, 78, 127
2, 34600, Note_off_c, 1, 84, 0
2, 34640, Note_off_c, 1, 38, 0
2, 34640, Note_off_c, 1, 62, 0
2, 34640, Note_on_c, 1, 64, 127
2, 34640, Note_on_c, 1, 69, 127
2, 34640, Note_on_c, 1, 72, 127
2, 34640, Note_on_c, 1, 77, 127
2, 34640, Note_off_c, 1, 78, 0
2, 34640, Note_on_c, 1, 84, 127
2, 34680, Note_on_c, 1, 35, 127
2, 34680, Note_on_c, 1, 39, 127
2, 34680, Note_on_c, 1, 44, 127
2, 34680, Note_on_c, 1, 47, 127
2, 34680, Note_on_c, 1, 56, 127
2, 34680, Note_on_c, 1, 59, 127
2, 34680, Note_on_c, 1, 63, 127
2, 34680, Note_off_c, 1, 64, 0
2, 34680, Note_on_c, 1, 68, 127
2, 34680, Note_off_c, 1, 69, 0
2, 34680, Note_off_c, 1, 72, 0
2, 34680, Note_off_c, 1, 77, 0
2, 34680, Note_off_c, 1, 84, 0
2, 34720, Note_off_c, 1, 35, 0
2, 34720, Note_off_c, 1, 39, 0
2, 34720, Note_off_c, 1, 44, 0
2, 34720, Note_off_c, 1, 47, 0
2, 34720, Note_off_c, 1, 56, 0
2, 34720, Note_off_c, 1, 59, 0
2, 34720, Note_off_c, 1, 63, 0
2, 34720, Note_off_c, 1, 68, 0
2, 34720, Note_on_c, 1, 84, 127
2, 34760, Note_off_c, 1, 84, 0
2, 34760, Note_on_c, 1, 85, 127
2, 34800, Note_off_c, 1, 85, 0
2, 34840, Note_on_c, 1, 61, 127
2, 34840, Note_on_c, 1, 65, 127
2, 34840, Note_on_c, 1, 68, 127
2, 34840, Note_on_c, 1, 89, 127
2, 34960, Note_off_c, 1, 89, 0
2, 35000, Note_on_c, 1, 92, 127
2, 35120, Note_off_c, 1, 92, 0
2, 35160, Note_off_c, 1, 61, 0
2, 35160, Note_off_c, 1, 65, 0
2, 35160, Note_off_c, 1, 68, 0
2, 35200, Note_on_c, 1, 61, 127
2, 35200, Note_on_c, 1, 65, 127
2, 35200, Note_on_c, 1, 68, 127
2, 35200, Note_on_c, 1, 92, 127
2, 35320, Note_off_c, 1, 61, 0
2, 35320, Note_off_c, 1, 65, 0
2, 35320, Note_off_c, 1, 68, 0
2, 35320, Note_off_c, 1, 92, 0
2, 35360, Note_on_c, 1, 61, 127
2, 35360, Note_on_c, 1, 65, 127
2, 35360, Note_on_c, 1, 68, 127
2, 35360, Note_on_c, 1, 92, 127
2, 35680, Note_off_c, 1, 92, 0
2, 35720, Note_on_c, 1, 89, 127
2, 35880, Note_off_c, 1, 61, 0
2, 35880, Note_off_c, 1, 65, 0
2, 35880, Note_off_c, 1, 68, 0
2, 35880, Note_off_c, 1, 89, 0
2, 35920, Note_on_c, 1, 61, 127
2, 35920, Note_on_c, 1, 65, 127
2, 35920, Note_on_c, 1, 68, 127
2, 35920, Note_on_c, 1, 89, 127
2, 36040, Note_off_c, 1, 89, 0
2, 36080, Note_on_c, 1, 89, 127
2, 36200, Note_off_c, 1, 61, 0
2, 36200, Note_off_c, 1, 65, 0
2, 36200, Note_off_c, 1, 68, 0
2, 36200, Note_on_c, 1, 80, 127
2, 36200, Note_off_c, 1, 89, 0
2, 36240, Note_off_c, 1, 80, 0
2, 36280, Note_on_c, 1, 61, 127
2, 36280, Note_on_c, 1, 65, 127
2, 36280, Note_on_c, 1, 68, 127
2, 36280, Note_on_c, 1, 89, 127
2, 36400, Note_off_c, 1, 89, 0
2, 36440, Note_on_c, 1, 89, 127
2, 36520, Note_off_c, 1, 61, 0
2, 36520, Note_off_c, 1, 65, 0
2, 36520, Note_off_c, 1, 68, 0
2, 36520, Note_on_c, 1, 85, 127
2, 36520, Note_off_c, 1, 89, 0
2, 36560, Note_off_c, 1, 85, 0
2, 36600, Note_on_c, 1, 61, 127
2, 36600, Note_on_c, 1, 65, 127
2, 36600, Note_on_c, 1, 68, 127
2, 36600, Note_on_c, 1, 89, 127
2, 36720, Note_off_c, 1, 89, 0
2, 36760, Note_on_c, 1, 89, 127
2, 36880, Note_off_c, 1, 61, 0
2, 36880, Note_off_c, 1, 65, 0
2, 36880, Note_off_c, 1, 89, 0
2, 36920, Note_off_c, 1, 68, 0
2, 36960, Note_on_c, 1, 61, 127
2, 36960, Note_on_c, 1, 68, 127
2, 36960, Note_on_c, 1, 89, 127
2, 37240, Note_on_c, 1, 84, 127
2, 37240, Note_off_c, 1, 89, 0
2, 37280, Note_off_c, 1, 61, 0
2, 37280, Note_off_c, 1, 68, 0
2, 37280, Note_off_c, 1, 84, 0
2, 37360, Note_on_c, 1, 61, 127
2, 37360, Note_on_c, 1, 68, 127
2, 37360, Note_on_c, 1, 89, 127
2, 37640, Note_off_c, 1, 61, 0
2, 37640, Note_off_c, 1, 68, 0
2, 37640, Note_off_c, 1, 89, 0
2, 37680, Note_on_c, 1, 61, 127
2, 37680, Note_on_c, 1, 68, 127
2, 37680, Note_on_c, 1, 89, 127
2, 38000, Note_off_c, 1, 61, 0
2, 38000, Note_off_c, 1, 68, 0
2, 38000, Note_off_c, 1, 89, 0
2, 38040, Note_on_c, 1, 53, 127
2, 38040, Note_on_c, 1, 65, 127
2, 38040, Note_on_c, 1, 87, 127
2, 38320, Note_off_c, 1, 53, 0
2, 38320, Note_off_c, 1, 65, 0
2, 38320, Note_off_c, 1, 87, 0
2, 38320, Note_on_c, 1, 93, 127
2, 38360, Note_off_c, 1, 93, 0
2, 38400, Note_on_c, 1, 53, 127
2, 38400, Note_on_c, 1, 65, 127
2, 38400, Note_on_c, 1, 87, 127
2, 38680, Note_off_c, 1, 53, 0
2, 38680, Note_off_c, 1, 65, 0
2, 38680, Note_off_c, 1, 87, 0
2, 38720, Note_on_c, 1, 60, 127
2, 38720, Note_on_c, 1, 68, 127
2, 38720, Note_on_c, 1, 89, 127
2, 39000, Note_off_c, 1, 60, 0
2, 39000, Note_off_c, 1, 68, 0
2, 39000, Note_on_c, 1, 80, 127
2, 39000, Note_off_c, 1, 89, 0
2, 39040, Note_off_c, 1, 80, 0
2, 39080, Note_on_c, 1, 60, 127
2, 39080, Note_on_c, 1, 68, 127
2, 39080, Note_on_c, 1, 89, 127
2, 39320, Note_off_c, 1, 60, 0
2, 39320, Note_off_c, 1, 68, 0
2, 39320, Note_off_c, 1, 89, 0
2, 39360, Note_on_c, 1, 60, 127
2, 39360, Note_on_c, 1, 68, 127
2, 39360, Note_on_c, 1, 89, 127
2, 39400, Note_off_c, 1, 60, 0
2, 39400, Note_off_c, 1, 68, 0
2, 39400, Note_off_c, 1, 89, 0
2, 39440, Note_on_c, 1, 60, 127
2, 39440, Note_on_c, 1, 68, 127
2, 39440, Note_on_c, 1, 92, 127
2, 39760, Note_off_c, 1, 60, 0
2, 39760, Note_off_c, 1, 68, 0
2, 39760, Note_on_c, 1, 89, 127
2, 39760, Note_off_c, 1, 92, 0
2, 39800, Note_on_c, 1, 60, 127
2, 39800, Note_on_c, 1, 68, 127
2, 39800, Note_off_c, 1, 89, 0
2, 39800, Note_on_c, 1, 92, 127
2, 40080, Note_off_c, 1, 60, 0
2, 40080, Note_off_c, 1, 68, 0
2, 40080, Note_on_c, 1, 87, 127
2, 40080, Note_off_c, 1, 92, 0
2, 40120, Note_off_c, 1, 87, 0
2, 40120, Note_on_c, 1, 89, 127
2, 40160, Note_on_c, 1, 60, 127
2, 40160, Note_on_c, 1, 68, 127
2, 40160, Note_off_c, 1, 89, 0
2, 40160, Note_on_c, 1, 92, 127
2, 40440, Note_off_c, 1, 60, 0
2, 40440, Note_off_c, 1, 68, 0
2, 40440, Note_on_c, 1, 89, 127
2, 40440, Note_off_c, 1, 92, 0
2, 40480, Note_on_c, 1, 60, 127
2, 40480, Note_on_c, 1, 68, 127
2, 40480, Note_off_c, 1, 89, 0
2, 40480, Note_on_c, 1, 92, 127
2, 40760, Note_off_c, 1, 92, 0
2, 40800, Note_off_c, 1, 60, 0
2, 40800, Note_off_c, 1, 68, 0
2, 40800, Note_on_c, 1, 87, 127
2, 40840, Note_on_c, 1, 60, 127
2, 40840, Note_on_c, 1, 68, 127
2, 40840, Note_off_c, 1, 87, 0
2, 40840, Note_on_c, 1, 92, 127
2, 41120, Note_off_c, 1, 60, 0
2, 41120, Note_off_c, 1, 68, 0
2, 41120, Note_on_c, 1, 89, 127
2, 41120, Note_off_c, 1, 92, 0
2, 41200, Note_on_c, 1, 60, 127
2, 41200, Note_on_c, 1, 68, 127
2, 41200, Note_off_c, 1, 89, 0
2, 41200, Note_on_c, 1, 92, 127
2, 41720, Note_off_c, 1, 60, 0
2, 41720, Note_off_c, 1, 68, 0
2, 41720, Note_off_c, 1, 92, 0
2, 41760, Note_on_c, 1, 60, 127
2, 41760, Note_on_c, 1, 68, 127
2, 41760, Note_on_c, 1, 92, 127
2, 41840, Note_off_c, 1, 60, 0
2, 41840, Note_off_c, 1, 68, 0
2, 41840, Note_on_c, 1, 87, 127
2, 41840, Note_off_c, 1, 92, 0
2, 41880, Note_off_c, 1, 87, 0
2, 41920, Note_on_c, 1, 65, 127
2, 41920, Note_on_c, 1, 68, 127
2, 41920, Note_on_c, 1, 87, 127
2, 42200, Note_off_c, 1, 65, 0
2, 42200, Note_off_c, 1, 68, 0
2, 42200, Note_on_c, 1, 85, 127
2, 42200, Note_off_c, 1, 87, 0
2, 42240, Note_on_c, 1, 65, 127
2, 42240, Note_on_c, 1, 68, 127
2, 42520, Note_off_c, 1, 65, 0
2, 42520, Note_off_c, 1, 68, 0
2, 42520, Note_on_c, 1, 80, 127
2, 42520, Note_off_c, 1, 85, 0
2, 42560, Note_off_c, 1, 80, 0
2, 42600, Note_on_c, 1, 61, 127
2, 42600, Note_on_c, 1, 65, 127
2, 42600, Note_on_c, 1, 80, 127
2, 42880, Note_off_c, 1, 61, 0
2, 42880, Note_off_c, 1, 65, 0
2, 42880, Note_on_c, 1, 77, 127
2, 42880, Note_off_c, 1, 80, 0
2, 42920, Note_off_c, 1, 77, 0
2, 42960, Note_on_c, 1, 61, 127
2, 42960, Note_on_c, 1, 65, 127
2, 43120, Note_on_c, 1, 73, 127
2, 43200, Note_off_c, 1, 73, 0
2, 43240, Note_off_c, 1, 61, 0
2, 43240, Note_off_c, 1, 65, 0
2, 43280, Note_on_c, 1, 51, 127
2, 43280, Note_on_c, 1, 60, 127
2, 43280, Note_on_c, 1, 68, 127
2, 43440, Note_off_c, 1, 68, 0
2, 43480, Note_on_c, 1, 72, 127
2, 43600, Note_off_c, 1, 51, 0
2, 43600, Note_off_c, 1, 60, 0
2, 43600, Note_off_c, 1, 72, 0
2, 43640, Note_on_c, 1, 61, 127
2, 43640, Note_on_c, 1, 63, 127
2, 43640, Note_on_c, 1, 66, 127
2, 43640, Note_on_c, 1, 75, 127
2, 43880, Note_off_c, 1, 61, 0
2, 43880, Note_off_c, 1, 63, 0
2, 43880, Note_off_c, 1, 66, 0
2, 43880, Note_off_c, 1, 75, 0
2, 43920, Note_on_c, 1, 61, 127
2, 43920, Note_on_c, 1, 63, 127
2, 43920, Note_on_c, 1, 66, 127
2, 43920, Note_on_c, 1, 75, 127
2, 43960, Note_off_c, 1, 61, 0
2, 43960, Note_off_c, 1, 63, 0
2, 43960, Note_off_c, 1, 66, 0
2, 44000, Note_off_c, 1, 75, 0
2, 44040, Note_on_c, 1, 63, 127
2, 44040, Note_on_c, 1, 68, 127
2, 44040, Note_on_c, 1, 77, 127
2, 44320, Note_off_c, 1, 63, 0
2, 44320, Note_off_c, 1, 68, 0
2, 44360, Note_on_c, 1, 63, 127
2, 44360, Note_on_c, 1, 68, 127
2, 44640, Note_off_c, 1, 63, 0
2, 44640, Note_off_c, 1, 68, 0
2, 44680, Note_off_c, 1, 77, 0
2, 44720, Note_on_c, 1, 60, 127
2, 44720, Note_on_c, 1, 68, 127
2, 44720, Note_on_c, 1, 75, 127
2, 45000, Note_off_c, 1, 60, 0
2, 45000, Note_off_c, 1, 68, 0
2, 45000, Note_off_c, 1, 75, 0
2, 45080, Note_on_c, 1, 77, 127
2, 45360, Note_off_c, 1, 77, 0
2, 45400, Note_on_c, 1, 61, 127
2, 45400, Note_on_c, 1, 65, 127
2, 45400, Note_on_c, 1, 76, 127
2, 45680, Note_off_c, 1, 61, 0
2, 45680, Note_off_c, 1, 65, 0
2, 45680, Note_off_c, 1, 76, 0
2, 45680, Note_on_c, 1, 77, 127
2, 45720, Note_off_c, 1, 77, 0
2, 45760, Note_on_c, 1, 61, 127
2, 45760, Note_on_c, 1, 65, 127
2, 45760, Note_on_c, 1, 77, 127
2, 46040, Note_off_c, 1, 61, 0
2, 46040, Note_off_c, 1, 65, 0
2, 46040, Note_off_c, 1, 77, 0
2, 46080, Note_on_c, 1, 77, 127
2, 46120, Note_on_c, 1, 75, 127
2, 46160, Note_on_c, 1, 68, 127
2, 46160, Note_on_c, 1, 72, 127
2, 46280, Note_off_c, 1, 68, 0
2, 46280, Note_on_c, 1, 69, 127
2, 46320, Note_on_c, 1, 68, 127
2, 46320, Note_off_c, 1, 69, 0
2, 46440, Note_off_c, 1, 68, 0
2, 46440, Note_off_c, 1, 72, 0
2, 46440, Note_off_c, 1, 75, 0
2, 46440, Note_off_c, 1, 77, 0
2, 46480, Note_on_c, 1, 69, 127
2, 46480, Note_on_c, 1, 72, 127
2, 46480, Note_on_c, 1, 75, 127
2, 46480, Note_on_c, 1, 77, 127
2, 46760, Note_off_c, 1, 69, 0
2, 46760, Note_off_c, 1, 75, 0
2, 46800, Note_off_c, 1, 72, 0
2, 46800, Note_off_c, 1, 77, 0
2, 46840, Note_on_c, 1, 69, 127
2, 46840, Note_on_c, 1, 72, 127
2, 46840, Note_on_c, 1, 75, 127
2, 46840, Note_on_c, 1, 77, 127
2, 47120, Note_off_c, 1, 69, 0
2, 47120, Note_off_c, 1, 72, 0
2, 47120, Note_off_c, 1, 75, 0
2, 47120, Note_off_c, 1, 77, 0
2, 47160, Note_on_c, 1, 72, 127
2, 47160, Note_on_c, 1, 75, 127
2, 47200, Note_on_c, 1, 69, 127
2, 47200, Note_on_c, 1, 77, 127
2, 47440, Note_off_c, 1, 69, 0
2, 47440, Note_off_c, 1, 72, 0
2, 47480, Note_off_c, 1, 75, 0
2, 47480, Note_off_c, 1, 77, 0
2, 47520, Note_on_c, 1, 48, 127
2, 47520, Note_on_c, 1, 60, 127
2, 47520, Note_on_c, 1, 78, 127
2, 47520, Note_on_c, 1, 81, 127
2, 47520, Note_on_c, 1, 87, 127
2, 47520, Note_on_c, 1, 90, 127
2, 47800, Note_off_c, 1, 48, 0
2, 47800, Note_off_c, 1, 60, 0
2, 47800, Note_off_c, 1, 78, 0
2, 47800, Note_off_c, 1, 81, 0
2, 47800, Note_off_c, 1, 87, 0
2, 47800, Note_off_c, 1, 90, 0
2, 47880, Note_on_c, 1, 72, 127
2, 47880, Note_on_c, 1, 75, 127
2, 47880, Note_on_c, 1, 81, 127
2, 47880, Note_on_c, 1, 87, 127
2, 47880, Note_on_c, 1, 89, 127
2, 48000, Note_off_c, 1, 72, 0
2, 48000, Note_off_c, 1, 75, 0
2, 48000, Note_off_c, 1, 81, 0
2, 48000, Note_off_c, 1, 87, 0
2, 48000, Note_off_c, 1, 89, 0
2, 48040, Note_on_c, 1, 72, 127
2, 48040, Note_on_c, 1, 75, 127
2, 48040, Note_on_c, 1, 81, 127
2, 48040, Note_on_c, 1, 87, 127
2, 48040, Note_on_c, 1, 89, 127
2, 48200, Note_off_c, 1, 72, 0
2, 48200, Note_off_c, 1, 75, 0
2, 48200, Note_off_c, 1, 81, 0
2, 48200, Note_off_c, 1, 87, 0
2, 48200, Note_off_c, 1, 89, 0
2, 48240, Note_on_c, 1, 92, 127
2, 48240, Note_on_c, 1, 101, 127
2, 48520, Note_off_c, 1, 92, 0
2, 48520, Note_off_c, 1, 101, 0
2, 48600, Note_on_c, 1, 92, 127
2, 48600, Note_on_c, 1, 101, 127
2, 48880, Note_off_c, 1, 92, 0
2, 48880, Note_off_c, 1, 101, 0
2, 48960, Note_on_c, 1, 92, 127
2, 48960, Note_on_c, 1, 101, 127
2, 49240, Note_off_c, 1, 92, 0
2, 49240, Note_off_c, 1, 101, 0
2, 49280, Note_on_c, 1, 92, 127
2, 49280, Note_on_c, 1, 101, 127
2, 49560, Note_off_c, 1, 92, 0
2, 49560, Note_off_c, 1, 101, 0
2, 49640, Note_on_c, 1, 92, 127
2, 49640, Note_on_c, 1, 101, 127
2, 49920, Note_off_c, 1, 92, 0
2, 49920, Note_off_c, 1, 101, 0
2, 50040, Note_on_c, 1, 92, 127
2, 50040, Note_on_c, 1, 101, 127
2, 50320, Note_off_c, 1, 92, 0
2, 50320, Note_off_c, 1, 101, 0
2, 50360, Note_on_c, 1, 92, 127
2, 50360, Note_on_c, 1, 101, 127
2, 50640, Note_off_c, 1, 92, 0
2, 50640, Note_off_c, 1, 101, 0
2, 50720, Note_on_c, 1, 92, 127
2, 50720, Note_on_c, 1, 101, 127
2, 51000, Note_off_c, 1, 92, 0
2, 51000, Note_off_c, 1, 101, 0
2, 51080, Note_on_c, 1, 94, 127
2, 51080, Note_on_c, 1, 102, 127
2, 51560, Note_on_c, 1, 92, 127
2, 51560, Note_off_c, 1, 94, 0
2, 51560, Note_on_c, 1, 100, 127
2, 51560, Note_off_c, 1, 102, 0
2, 51680, Note_off_c, 1, 92, 0
2, 51680, Note_off_c, 1, 100, 0
2, 51720, Note_on_c, 1, 92, 127
2, 51720, Note_on_c, 1, 100, 127
2, 51760, Note_on_c, 1, 85, 127
2, 51760, Note_off_c, 1, 92, 0
2, 51760, Note_off_c, 1, 100, 0
2, 51800, Note_off_c, 1, 85, 0
2, 51800, Note_on_c, 1, 90, 127
2, 51800, Note_on_c, 1, 99, 127
2, 52080, Note_off_c, 1, 90, 0
2, 52080, Note_on_c, 1, 97, 127
2, 52080, Note_off_c, 1, 99, 0
2, 52160, Note_on_c, 1, 91, 127
2, 52160, Note_on_c, 1, 94, 127
2, 52160, Note_off_c, 1, 97, 0
2, 52160, Note_on_c, 1, 99, 127
2, 52200, Note_on_c, 1, 87, 127
2, 52200, Note_on_c, 1, 90, 127
2, 52200, Note_off_c, 1, 91, 0
2, 52200, Note_off_c, 1, 94, 0
2, 52200, Note_on_c, 1, 95, 127
2, 52200, Note_off_c, 1, 99, 0
2, 52240, Note_off_c, 1, 87, 0
2, 52240, Note_off_c, 1, 90, 0
2, 52240, Note_on_c, 1, 91, 127
2, 52240, Note_on_c, 1, 94, 127
2, 52240, Note_off_c, 1, 95, 0
2, 52240, Note_on_c, 1, 99, 127
2, 52440, Note_off_c, 1, 91, 0
2, 52440, Note_off_c, 1, 94, 0
2, 52440, Note_off_c, 1, 99, 0
2, 52480, Note_on_c, 1, 94, 127
2, 53000, Note_on_c, 1, 39, 127
2, 53000, Note_on_c, 1, 51, 127
2, 53000, Note_off_c, 1, 94, 0
2, 53000, Note_on_c, 1, 95, 127
2, 53760, Note_off_c, 1, 39, 0
2, 53760, Note_off_c, 1, 51, 0
2, 53760, Note_off_c, 1, 95, 0
2, 53800, Note_on_c, 1, 39, 127
2, 53800, Note_on_c, 1, 51, 127
2, 53800, Note_on_c, 1, 95, 127
2, 55760, Note_off_c, 1, 39, 0
2, 55760, Note_off_c, 1, 51, 0
2, 55760, Note_off_c, 1, 95, 0
2, 55800, Note_on_c, 1, 39, 127
2, 55800, Note_on_c, 1, 51, 127
2, 55800, Note_on_c, 1, 95, 127
2, 56840, Note_on_c, 1, 58, 127
2, 56840, Note_on_c, 1, 67, 127
2, 56840, Note_off_c, 1, 95, 0
2, 57120, Note_off_c, 1, 67, 0
2, 57160, Note_off_c, 1, 39, 0
2, 57160, Note_off_c, 1, 51, 0
2, 57160, Note_off_c, 1, 58, 0
2, 57160, Note_on_c, 1, 70, 127
2, 57200, Note_off_c, 1, 70, 0
2, 57200, Note_on_c, 1, 75, 127
2, 57560, Note_off_c, 1, 75, 0
2, 57600, Note_on_c, 1, 75, 127
2, 58760, Note_off_c, 1, 75, 0
2, 58960, Note_on_c, 1, 75, 127
2, 59120, Note_off_c, 1, 75, 0
2, 59120, Note_on_c, 1, 78, 127
2, 59440, Note_off_c, 1, 78, 0
2, 59480, Note_on_c, 1, 78, 127
2, 59520, Note_off_c, 1, 78, 0
2, 59520, Note_on_c, 1, 79, 127
2, 61280, Note_off_c, 1, 79, 0
2, 61320, Note_on_c, 1, 77, 127
2, 61480, Note_off_c, 1, 77, 0
2, 61560, Note_on_c, 1, 76, 127
2, 62560, Note_off_c, 1, 76, 0
2, 62600, Note_on_c, 1, 75, 127
2, 62920, Note_off_c, 1, 75, 0
2, 62960, Note_on_c, 1, 74, 127
2, 63280, Note_off_c, 1, 74, 0
2, 63320, Note_on_c, 1, 77, 127
2, 63480, Note_off_c, 1, 77, 0
2, 63520, Note_on_c, 1, 77, 127
2, 64040, Note_off_c, 1, 77, 0
2, 64080, Note_on_c, 1, 78, 127
2, 64440, Note_on_c, 1, 46, 127
2, 64760, Note_off_c, 1, 46, 0
2, 64800, Note_on_c, 1, 58, 127
2, 65120, Note_off_c, 1, 58, 0
2, 65160, Note_on_c, 1, 51, 127
2, 65440, Note_off_c, 1, 51, 0
2, 65440, Note_off_c, 1, 78, 0
2, 65480, Note_on_c, 1, 51, 127
2, 65480, Note_on_c, 1, 78, 127
2, 65520, Note_off_c, 1, 51, 0
2, 65520, Note_off_c, 1, 78, 0
2, 65560, Note_on_c, 1, 67, 127
2, 65560, Note_on_c, 1, 70, 127
2, 65560, Note_on_c, 1, 75, 127
2, 65880, Note_off_c, 1, 75, 0
2, 65920, Note_on_c, 1, 46, 127
2, 65920, Note_on_c, 1, 75, 127
2, 66040, Note_off_c, 1, 46, 0
2, 66080, Note_on_c, 1, 46, 127
2, 66160, Note_off_c, 1, 46, 0
2, 66240, Note_off_c, 1, 75, 0
2, 66280, Note_on_c, 1, 75, 127
2, 66400, Note_off_c, 1, 75, 0
2, 66440, Note_on_c, 1, 76, 127
2, 66600, Note_off_c, 1, 76, 0
2, 66640, Note_on_c, 1, 75, 127
2, 66760, Note_off_c, 1, 75, 0
2, 66800, Note_on_c, 1, 77, 127
2, 66960, Note_off_c, 1, 67, 0
2, 66960, Note_off_c, 1, 70, 0
2, 66960, Note_off_c, 1, 77, 0
2, 67000, Note_on_c, 1, 78, 127
2, 67120, Note_off_c, 1, 78, 0
2, 67160, Note_on_c, 1, 77, 127
2, 67280, Note_off_c, 1, 77, 0
2, 67320, Note_on_c, 1, 82, 127
2, 67480, Note_off_c, 1, 82, 0
2, 67560, Note_on_c, 1, 82, 127
2, 67680, Note_off_c, 1, 82, 0
2, 67720, Note_on_c, 1, 82, 127
2, 67880, Note_off_c, 1, 82, 0
2, 67920, Note_on_c, 1, 83, 127
2, 68040, Note_off_c, 1, 83, 0
2, 68080, Note_on_c, 1, 82, 127
2, 68240, Note_off_c, 1, 82, 0
2, 68280, Note_on_c, 1, 83, 127
2, 68400, Note_off_c, 1, 83, 0
2, 68440, Note_on_c, 1, 84, 127
2, 68600, Note_off_c, 1, 84, 0
2, 68640, Note_on_c, 1, 82, 127
2, 68760, Note_off_c, 1, 82, 0
2, 68800, Note_on_c, 1, 83, 127
2, 68960, Note_off_c, 1, 83, 0
2, 69000, Note_on_c, 1, 82, 127
2, 69120, Note_off_c, 1, 82, 0
2, 69160, Note_on_c, 1, 51, 127
2, 69160, Note_on_c, 1, 75, 127
2, 69280, Note_off_c, 1, 75, 0
2, 69320, Note_off_c, 1, 51, 0
2, 69320, Note_on_c, 1, 59, 127
2, 69320, Note_on_c, 1, 75, 127
2, 69480, Note_off_c, 1, 59, 0
2, 69480, Note_off_c, 1, 75, 0
2, 69560, Note_on_c, 1, 75, 127
2, 69680, Note_off_c, 1, 75, 0
2, 69720, Note_on_c, 1, 74, 127
2, 69880, Note_off_c, 1, 74, 0
2, 69920, Note_on_c, 1, 75, 127
2, 70040, Note_off_c, 1, 75, 0
2, 70080, Note_on_c, 1, 74, 127
2, 70200, Note_off_c, 1, 74, 0
2, 70240, Note_on_c, 1, 51, 127
2, 70240, Note_on_c, 1, 75, 127
2, 70400, Note_off_c, 1, 51, 0
2, 70400, Note_off_c, 1, 75, 0
2, 70440, Note_on_c, 1, 60, 127
2, 70440, Note_on_c, 1, 75, 127
2, 70560, Note_off_c, 1, 60, 0
2, 70560, Note_off_c, 1, 75, 0
2, 70600, Note_on_c, 1, 75, 127
2, 70920, Note_off_c, 1, 75, 0
2, 70960, Note_on_c, 1, 47, 127
2, 70960, Note_on_c, 1, 75, 127
2, 71280, Note_off_c, 1, 47, 0
2, 71320, Note_on_c, 1, 58, 127
2, 71520, Note_off_c, 1, 58, 0
2, 71520, Note_off_c, 1, 75, 0
2, 71560, Note_on_c, 1, 58, 127
2, 71560, Note_on_c, 1, 75, 127
2, 71680, Note_off_c, 1, 58, 0
2, 71720, Note_on_c, 1, 68, 127
2, 72040, Note_off_c, 1, 68, 0
2, 72080, Note_on_c, 1, 46, 127
2, 72400, Note_off_c, 1, 46, 0
2, 72440, Note_on_c, 1, 63, 127
2, 72760, Note_off_c, 1, 63, 0
2, 72800, Note_on_c, 1, 46, 127
2, 73120, Note_off_c, 1, 46, 0
2, 73160, Note_on_c, 1, 63, 127
2, 73480, Note_off_c, 1, 63, 0
2, 73480, Note_off_c, 1, 75, 0
2, 73560, Note_on_c, 1, 65, 127
2, 73560, Note_on_c, 1, 75, 127
2, 73880, Note_off_c, 1, 65, 0
2, 73880, Note_off_c, 1, 75, 0
2, 73920, Note_on_c, 1, 63, 127
2, 73920, Note_on_c, 1, 74, 127
2, 74240, Note_off_c, 1, 63, 0
2, 74240, Note_off_c, 1, 74, 0
2, 74280, Note_on_c, 1, 70, 127
2, 74280, Note_on_c, 1, 75, 127
2, 74600, Note_off_c, 1, 70, 0
2, 74640, Note_on_c, 1, 63, 127
2, 74960, Note_off_c, 1, 63, 0
2, 75000, Note_on_c, 1, 68, 127
2, 75320, Note_off_c, 1, 68, 0
2, 75360, Note_on_c, 1, 63, 127
2, 75560, Note_off_c, 1, 63, 0
2, 75560, Note_off_c, 1, 75, 0
2, 75600, Note_on_c, 1, 63, 127
2, 75600, Note_on_c, 1, 75, 127
2, 75720, Note_off_c, 1, 63, 0
2, 75720, Note_off_c, 1, 75, 0
2, 75760, Note_on_c, 1, 76, 127
2, 76120, Note_on_c, 1, 53, 127
2, 76120, Note_off_c, 1, 76, 0
2, 76120, Note_on_c, 1, 77, 127
2, 76440, Note_off_c, 1, 53, 0
2, 76480, Note_on_c, 1, 62, 127
2, 76800, Note_off_c, 1, 62, 0
2, 76840, Note_on_c, 1, 70, 127
2, 77160, Note_off_c, 1, 70, 0
2, 77200, Note_on_c, 1, 57, 127
2, 77520, Note_off_c, 1, 57, 0
2, 77520, Note_off_c, 1, 77, 0
2, 77600, Note_on_c, 1, 50, 127
2, 77600, Note_on_c, 1, 75, 127
2, 77880, Note_off_c, 1, 50, 0
2, 77920, Note_on_c, 1, 65, 127
2, 78280, Note_off_c, 1, 65, 0
2, 78280, Note_off_c, 1, 75, 0
2, 78320, Note_on_c, 1, 70, 127
2, 78320, Note_on_c, 1, 77, 127
2, 78640, Note_off_c, 1, 70, 0
2, 78680, Note_on_c, 1, 61, 127
2, 79000, Note_off_c, 1, 61, 0
2, 79040, Note_on_c, 1, 68, 127
2, 79360, Note_off_c, 1, 68, 0
2, 79400, Note_on_c, 1, 65, 127
2, 79560, Note_off_c, 1, 77, 0
2, 79600, Note_off_c, 1, 65, 0
2, 79640, Note_on_c, 1, 65, 127
2, 79640, Note_on_c, 1, 77, 127
2, 79760, Note_off_c, 1, 65, 0
2, 79760, Note_off_c, 1, 77, 0
2, 79800, Note_on_c, 1, 75, 127
2, 80120, Note_off_c, 1, 75, 0
2, 80160, Note_on_c, 1, 74, 127
2, 80480, Note_off_c, 1, 74, 0
2, 80520, Note_on_c, 1, 77, 127
2, 80840, Note_off_c, 1, 77, 0
2, 80880, Note_on_c, 1, 36, 127
2, 80880, Note_on_c, 1, 79, 127
2, 81200, Note_off_c, 1, 36, 0
2, 81240, Note_on_c, 1, 48, 127
2, 81600, Note_off_c, 1, 48, 0
2, 81640, Note_off_c, 1, 79, 0
2, 81680, Note_on_c, 1, 50, 127
2, 81680, Note_on_c, 1, 79, 127
2, 82000, Note_off_c, 1, 50, 0
2, 82040, Note_on_c, 1, 48, 127
2, 82360, Note_off_c, 1, 48, 0
2, 82400, Note_on_c, 1, 57, 127
2, 82720, Note_off_c, 1, 57, 0
2, 82720, Note_off_c, 1, 79, 0
2, 82760, Note_on_c, 1, 51, 127
2, 82760, Note_on_c, 1, 77, 127
2, 83080, Note_off_c, 1, 51, 0
2, 83120, Note_on_c, 1, 55, 127
2, 83440, Note_off_c, 1, 55, 0
2, 83480, Note_on_c, 1, 67, 127
2, 83760, Note_off_c, 1, 67, 0
2, 83760, Note_off_c, 1, 77, 0
2, 83800, Note_on_c, 1, 67, 127
2, 83800, Note_on_c, 1, 77, 127
2, 83840, Note_off_c, 1, 67, 0
2, 83840, Note_off_c, 1, 77, 0
2, 83880, Note_on_c, 1, 63, 127
2, 83880, Note_on_c, 1, 74, 127
2, 84200, Note_off_c, 1, 63, 0
2, 84200, Note_off_c, 1, 74, 0
2, 84240, Note_on_c, 1, 67, 127
2, 84240, Note_on_c, 1, 72, 127
2, 84560, Note_off_c, 1, 67, 0
2, 84560, Note_off_c, 1, 72, 0
2, 84600, Note_on_c, 1, 46, 127
2, 84600, Note_on_c, 1, 72, 127
2, 84920, Note_off_c, 1, 46, 0
2, 84960, Note_on_c, 1, 65, 127
2, 85280, Note_off_c, 1, 65, 0
2, 85320, Note_on_c, 1, 62, 127
2, 85640, Note_off_c, 1, 62, 0
2, 85680, Note_on_c, 1, 48, 127
2, 85960, Note_off_c, 1, 48, 0
2, 85960, Note_off_c, 1, 72, 0
2, 86000, Note_on_c, 1, 48, 127
2, 86000, Note_on_c, 1, 72, 127
2, 86040, Note_off_c, 1, 48, 0
2, 86080, Note_on_c, 1, 63, 127
2, 86400, Note_off_c, 1, 63, 0
2, 86400, Note_off_c, 1, 72, 0
2, 86440, Note_on_c, 1, 53, 127
2, 86440, Note_on_c, 1, 72, 127
2, 86760, Note_off_c, 1, 53, 0
2, 87480, Note_off_c, 1, 72, 0
2, 87520, Note_on_c, 1, 46, 127
2, 87520, Note_on_c, 1, 70, 127
2, 87840, Note_off_c, 1, 46, 0
2, 87880, Note_on_c, 1, 53, 127
2, 88160, Note_off_c, 1, 53, 0
2, 88160, Note_off_c, 1, 70, 0
2, 88200, Note_on_c, 1, 53, 127
2, 88200, Note_on_c, 1, 70, 127
2, 88240, Note_off_c, 1, 53, 0
2, 88280, Note_on_c, 1, 62, 127
2, 88600, Note_off_c, 1, 62, 0
2, 88640, Note_on_c, 1, 53, 127
2, 88960, Note_off_c, 1, 53, 0
2, 88960, Note_off_c, 1, 70, 0
2, 89000, Note_on_c, 1, 53, 127
2, 89000, Note_on_c, 1, 71, 127
2, 89320, Note_off_c, 1, 53, 0
2, 89360, Note_on_c, 1, 56, 127
2, 89680, Note_off_c, 1, 56, 0
2, 89720, Note_on_c, 1, 55, 127
2, 90040, Note_off_c, 1, 55, 0
2, 90080, Note_on_c, 1, 53, 127
2, 90360, Note_off_c, 1, 53, 0
2, 90360, Note_off_c, 1, 71, 0
2, 90400, Note_on_c, 1, 53, 127
2, 90400, Note_on_c, 1, 71, 127
2, 90440, Note_off_c, 1, 53, 0
2, 90480, Note_on_c, 1, 56, 127
2, 90800, Note_off_c, 1, 56, 0
2, 90840, Note_on_c, 1, 53, 127
2, 91160, Note_off_c, 1, 53, 0
2, 91200, Note_on_c, 1, 56, 127
2, 91520, Note_off_c, 1, 71, 0
2, 91560, Note_on_c, 1, 55, 127
2, 91560, Note_off_c, 1, 56, 0
2, 91560, Note_on_c, 1, 71, 127
2, 91880, Note_off_c, 1, 71, 0
2, 91920, Note_on_c, 1, 67, 127
2, 92240, Note_off_c, 1, 55, 0
2, 92280, Note_on_c, 1, 50, 127
2, 92400, Note_off_c, 1, 50, 0
2, 92400, Note_off_c, 1, 67, 0
2, 92440, Note_on_c, 1, 50, 127
2, 92440, Note_on_c, 1, 67, 127
2, 92600, Note_off_c, 1, 50, 0
2, 92640, Note_on_c, 1, 58, 127
2, 92960, Note_off_c, 1, 58, 0
2, 93000, Note_on_c, 1, 50, 127
2, 93320, Note_off_c, 1, 50, 0
2, 93360, Note_on_c, 1, 51, 127
2, 93680, Note_off_c, 1, 51, 0
2, 93720, Note_on_c, 1, 55, 127
2, 94040, Note_off_c, 1, 55, 0
2, 94080, Note_on_c, 1, 46, 127
2, 94400, Note_off_c, 1, 46, 0
2, 94440, Note_off_c, 1, 67, 0
2, 94480, Note_on_c, 1, 53, 127
2, 94480, Note_on_c, 1, 67, 127
2, 94800, Note_off_c, 1, 53, 0
2, 94840, Note_on_c, 1, 49, 127
2, 95120, Note_on_c, 1, 58, 127
2, 95160, Note_off_c, 1, 49, 0
2, 95160, Note_off_c, 1, 58, 0
2, 95200, Note_on_c, 1, 50, 127
2, 95520, Note_off_c, 1, 50, 0
2, 95560, Note_on_c, 1, 47, 127
2, 95880, Note_off_c, 1, 47, 0
2, 95920, Note_on_c, 1, 47, 127
2, 96240, Note_off_c, 1, 47, 0
2, 96280, Note_on_c, 1, 47, 127
2, 96600, Note_off_c, 1, 47, 0
2, 96600, Note_off_c, 1, 67, 0
2, 96600, Note_on_c, 1, 68, 127
2, 96640, Note_off_c, 1, 68, 0
2, 96680, Note_on_c, 1, 48, 127
2, 96680, Note_on_c, 1, 68, 127
2, 97000, Note_off_c, 1, 48, 0
2, 97040, Note_on_c, 1, 47, 127
2, 97360, Note_off_c, 1, 47, 0
2, 97400, Note_on_c, 1, 46, 127
2, 97720, Note_off_c, 1, 46, 0
2, 97760, Note_on_c, 1, 50, 127
2, 98080, Note_off_c, 1, 50, 0
2, 98080, Note_on_c, 1, 67, 127
2, 98080, Note_off_c, 1, 68, 0
2, 98120, Note_on_c, 1, 58, 127
2, 98440, Note_off_c, 1, 58, 0
2, 98480, Note_on_c, 1, 48, 127
2, 98680, Note_off_c, 1, 48, 0
2, 98680, Note_off_c, 1, 67, 0
2, 98720, Note_on_c, 1, 48, 127
2, 98720, Note_on_c, 1, 67, 127
2, 98840, Note_off_c, 1, 48, 0
2, 98880, Note_on_c, 1, 58, 127
2, 99200, Note_off_c, 1, 58, 0
2, 99240, Note_on_c, 1, 43, 127
2, 99560, Note_off_c, 1, 43, 0
2, 99600, Note_on_c, 1, 50, 127
2, 99920, Note_off_c, 1, 50, 0
2, 99960, Note_on_c, 1, 55, 127
2, 100280, Note_off_c, 1, 55, 0
2, 100320, Note_on_c, 1, 58, 127
2, 100640, Note_off_c, 1, 58, 0
2, 100680, Note_off_c, 1, 67, 0
2, 100720, Note_on_c, 1, 58, 127
2, 100720, Note_on_c, 1, 67, 127
2, 101040, Note_off_c, 1, 58, 0
2, 101080, Note_on_c, 1, 51, 127
2, 101400, Note_off_c, 1, 51, 0
2, 101440, Note_on_c, 1, 58, 127
2, 101760, Note_off_c, 1, 58, 0
2, 101800, Note_on_c, 1, 50, 127
2, 102120, Note_off_c, 1, 50, 0
2, 102160, Note_on_c, 1, 58, 127
2, 102480, Note_off_c, 1, 58, 0
2, 102520, Note_off_c, 1, 67, 0
2, 102560, Note_on_c, 1, 39, 127
2, 102560, Note_on_c, 1, 67, 127
2, 102920, Note_off_c, 1, 39, 0
2, 102960, Note_on_c, 1, 69, 127
2, 103280, Note_off_c, 1, 69, 0
2, 103320, Note_on_c, 1, 58, 127
2, 103640, Note_off_c, 1, 58, 0
2, 103680, Note_on_c, 1, 48, 127
2, 104000, Note_off_c, 1, 48, 0
2, 104040, Note_on_c, 1, 58, 127
2, 104360, Note_off_c, 1, 58, 0
2, 104400, Note_off_c, 1, 67, 0
2, 104440, Note_on_c, 1, 48, 127
2, 104440, Note_on_c, 1, 67, 127
2, 104760, Note_off_c, 1, 48, 0
2, 104800, Note_on_c, 1, 58, 127
2, 105120, Note_off_c, 1, 58, 0
2, 105160, Note_on_c, 1, 64, 127
2, 105480, Note_off_c, 1, 64, 0
2, 105520, Note_on_c, 1, 60, 127
2, 105840, Note_off_c, 1, 60, 0
2, 105880, Note_on_c, 1, 72, 127
2, 106120, Note_off_c, 1, 72, 0
2, 106160, Note_on_c, 1, 70, 127
2, 106240, Note_off_c, 1, 67, 0
2, 106240, Note_off_c, 1, 70, 0
2, 106320, Note_on_c, 1, 61, 127
2, 106320, Note_on_c, 1, 70, 127
2, 106640, Note_off_c, 1, 61, 0
2, 106680, Note_on_c, 1, 64, 127
2, 107000, Note_off_c, 1, 64, 0
2, 107040, Note_on_c, 1, 61, 127
2, 107360, Note_off_c, 1, 61, 0
2, 107400, Note_on_c, 1, 53, 127
2, 107720, Note_off_c, 1, 53, 0
2, 107760, Note_on_c, 1, 61, 127
2, 108080, Note_off_c, 1, 61, 0
2, 108080, Note_off_c, 1, 70, 0
2, 108160, Note_on_c, 1, 60, 127
2, 108160, Note_on_c, 1, 67, 127
2, 108160, Note_on_c, 1, 84, 127
2, 108320, Note_on_c, 1, 72, 127
2, 108320, Note_off_c, 1, 84, 0
2, 108480, Note_off_c, 1, 72, 0
2, 108520, Note_on_c, 1, 82, 127
2, 108840, Note_off_c, 1, 82, 0
2, 108880, Note_on_c, 1, 65, 127
2, 108880, Note_off_c, 1, 67, 0
2, 108880, Note_on_c, 1, 82, 127
2, 109200, Note_off_c, 1, 82, 0
2, 109240, Note_on_c, 1, 82, 127
2, 109400, Note_off_c, 1, 82, 0
2, 109440, Note_on_c, 1, 82, 127
2, 109560, Note_off_c, 1, 82, 0
2, 109600, Note_on_c, 1, 79, 127
2, 109760, Note_off_c, 1, 79, 0
2, 109800, Note_on_c, 1, 79, 127
2, 109920, Note_off_c, 1, 79, 0
2, 109960, Note_on_c, 1, 77, 127
2, 110040, Note_off_c, 1, 60, 0
2, 110040, Note_off_c, 1, 65, 0
2, 110040, Note_off_c, 1, 77, 0
2, 110080, Note_on_c, 1, 60, 127
2, 110080, Note_on_c, 1, 65, 127
2, 110080, Note_on_c, 1, 77, 127
2, 110320, Note_off_c, 1, 65, 0
2, 110320, Note_off_c, 1, 77, 0
2, 110360, Note_on_c, 1, 65, 127
2, 110360, Note_on_c, 1, 79, 127
2, 110680, Note_off_c, 1, 79, 0
2, 110720, Note_on_c, 1, 77, 127
2, 111040, Note_off_c, 1, 77, 0
2, 111080, Note_off_c, 1, 60, 0
2, 111080, Note_off_c, 1, 65, 0
2, 111120, Note_on_c, 1, 60, 127
2, 111120, Note_on_c, 1, 63, 127
2, 111120, Note_on_c, 1, 78, 127
2, 111440, Note_off_c, 1, 78, 0
2, 111480, Note_on_c, 1, 68, 127
2, 111800, Note_off_c, 1, 60, 0
2, 111800, Note_off_c, 1, 63, 0
2, 111840, Note_on_c, 1, 60, 127
2, 112000, Note_off_c, 1, 60, 0
2, 112000, Note_off_c, 1, 68, 0
2, 112040, Note_on_c, 1, 60, 127
2, 112040, Note_on_c, 1, 68, 127
2, 112200, Note_off_c, 1, 60, 0
2, 112240, Note_on_c, 1, 62, 127
2, 112560, Note_off_c, 1, 62, 0
2, 112600, Note_on_c, 1, 65, 127
2, 113320, Note_off_c, 1, 65, 0
2, 113320, Note_off_c, 1, 68, 0
2, 113360, Note_on_c, 1, 59, 127
2, 113360, Note_on_c, 1, 65, 127
2, 113680, Note_off_c, 1, 59, 0
2, 113720, Note_on_c, 1, 56, 127
2, 113960, Note_off_c, 1, 56, 0
2, 113960, Note_off_c, 1, 65, 0
2, 114000, Note_on_c, 1, 56, 127
2, 114000, Note_on_c, 1, 65, 127
2, 114080, Note_off_c, 1, 56, 0
2, 114120, Note_on_c, 1, 56, 127
2, 114440, Note_off_c, 1, 56, 0
2, 114480, Note_on_c, 1, 50, 127
2, 114800, Note_off_c, 1, 50, 0
2, 114840, Note_on_c, 1, 59, 127
2, 115200, Note_off_c, 1, 59, 0
2, 115240, Note_on_c, 1, 56, 127
2, 115560, Note_off_c, 1, 56, 0
2, 115600, Note_on_c, 1, 58, 127
2, 115600, Note_on_c, 1, 64, 127
2, 115600, Note_off_c, 1, 65, 0
2, 115920, Note_off_c, 1, 58, 0
2, 115960, Note_off_c, 1, 64, 0
2, 116000, Note_on_c, 1, 58, 127
2, 116000, Note_on_c, 1, 64, 127
2, 116320, Note_off_c, 1, 64, 0
2, 116360, Note_on_c, 1, 72, 127
2, 116720, Note_off_c, 1, 72, 0
2, 116760, Note_on_c, 1, 75, 127
2, 117080, Note_off_c, 1, 75, 0
2, 117120, Note_on_c, 1, 74, 127
2, 117440, Note_off_c, 1, 74, 0
2, 117480, Note_on_c, 1, 56, 127
2, 117480, Note_off_c, 1, 58, 0
2, 117480, Note_on_c, 1, 82, 127
2, 117840, Note_off_c, 1, 82, 0
2, 117880, Note_off_c, 1, 56, 0
2, 117920, Note_on_c, 1, 56, 127
2, 117920, Note_on_c, 1, 82, 127
2, 118200, Note_off_c, 1, 56, 0
2, 118240, Note_on_c, 1, 60, 127
2, 118560, Note_off_c, 1, 82, 0
2, 118600, Note_on_c, 1, 56, 127
2, 118600, Note_off_c, 1, 60, 0
2, 118600, Note_on_c, 1, 84, 127
2, 118960, Note_off_c, 1, 56, 0
2, 119000, Note_on_c, 1, 53, 127
2, 119320, Note_off_c, 1, 53, 0
2, 119360, Note_on_c, 1, 52, 127
2, 119920, Note_off_c, 1, 52, 0
2, 119920, Note_off_c, 1, 84, 0
2, 119960, Note_on_c, 1, 52, 127
2, 119960, Note_on_c, 1, 84, 127
2, 120000, Note_off_c, 1, 52, 0
2, 120000, Note_off_c, 1, 84, 0
2, 120040, End_track
3, 0, Start_track
3, 0, Title_t, "MIDI"
3, 1536, End_track
0, 0, End_of_file
