0, 0, Header, 1, 3, 192
1, 0, Start_track
1, 0, Time_signature, 4, 2, 24, 8
1, 0, Tempo, 500000
1, 120040, End_track
2, 0, Start_track
2, 0, Text_t, "random instrument: random person i dunno whatev"
2, 0, Title_t, "Track 1"
2, 0, Note_on_c, 1, 40, 127
2, 0, Note_on_c, 1, 48, 127
2, 0, Note_on_c, 1, 56, 127
2, 0, Note_on_c, 1, 60, 127
2, 40, Note_off_c, 1, 40, 0
2, 40, Note_off_c, 1, 48, 0
2, 40, Note_on_c, 1, 55, 127
2, 40, Note_off_c, 1, 56, 0
2, 40, Note_off_c, 1, 60, 0
2, 40, Note_on_c, 1, 72, 127
2, 40, Note_on_c, 1, 75, 127
2, 40, Note_on_c, 1, 79, 127
2, 40, Note_on_c, 1, 84, 127
2, 80, Note_off_c, 1, 55, 0
2, 80, Note_off_c, 1, 72, 0
2, 80, Note_off_c, 1, 75, 0
2, 80, Note_off_c, 1, 79, 0
2, 80, Note_off_c, 1, 84, 0
2, 120, Note_on_c, 1, 50, 127
2, 120, Note_on_c, 1, 59, 127
2, 120, Note_on_c, 1, 62, 127
2, 120, Note_on_c, 1, 78, 127
2, 160, Note_off_c, 1, 50, 0
2, 160, Note_off_c, 1, 59, 0
2, 160, Note_on_c, 1, 60, 127
2, 160, Note_off_c, 1, 62, 0
2, 160, Note_on_c, 1, 66, 127
2, 160, Note_on_c, 1, 68, 127
2, 160, Note_off_c, 1, 78, 0
2, 160, Note_on_c, 1, 90, 127
2, 200, Note_on_c, 1, 35, 127
2, 200, Note_on_c, 1, 39, 127
2, 200, Note_on_c, 1, 47, 127
2, 200, Note_on_c, 1, 50, 127
2, 200, Note_off_c, 1, 60, 0
2, 200, Note_off_c, 1, 66, 0
2, 200, Note_off_c, 1, 68, 0
2, 200, Note_off_c, 1, 90, 0
2, 240, Note_off_c, 1, 35, 0
2, 240, Note_off_c, 1, 39, 0
2, 240, Note_off_c, 1, 47, 0
2, 240, Note_off_c, 1, 50, 0
2, 240, Note_on_c, 1, 51, 127
2, 240, Note_on_c, 1, 55, 127
2, 240, Note_on_c, 1, 58, 127
2, 240, Note_on_c, 1, 63, 127
2, 240, Note_on_c, 1, 82, 127
2, 240, Note_on_c, 1, 91, 127
2, 280, Note_off_c, 1, 51, 0
2, 280, Note_off_c, 1, 55, 0
2, 280, Note_off_c, 1, 58, 0
2, 280, Note_off_c, 1, 63, 0
2, 280, Note_on_c, 1, 76, 127
2, 280, Note_on_c, 1, 80, 127
2, 280, Note_off_c, 1, 82, 0
2, 280, Note_on_c, 1, 83, 127
2, 280, Note_on_c, 1, 89, 127
2, 280, Note_off_c, 1, 91, 0
2, 320, Note_on_c, 1, 58, 127
2, 320, Note_on_c, 1, 63, 127
2, 320, Note_on_c, 1, 66, 127
2, 320, Note_on_c, 1, 72, 127
2, 320, Note_on_c, 1, 75, 127
2, 320, Note_off_c, 1, 76, 0
2, 320, Note_off_c, 1, 80, 0
2, 320, Note_on_c, 1, 82, 127
2, 320, Note_off_c, 1, 83, 0
2, 320, Note_on_c, 1, 87, 127
2, 320, Note_off_c, 1, 89, 0
2, 360, Note_on_c, 1, 57, 127
2, 360, Note_off_c, 1, 58, 0
2, 360, Note_on_c, 1, 62, 127
2, 360, Note_off_c, 1, 63, 0
2, 360, Note_off_c, 1, 66, 0
2, 360, Note_off_c, 1, 72, 0
2, 360, Note_off_c, 1, 75, 0
2, 360, Note_off_c, 1, 82, 0
2, 360, Note_off_c, 1, 87, 0
2, 400, Note_off_c, 1, 57, 0
2, 400, Note_on_c, 1, 60, 127
2, 400, Note_off_c, 1, 62, 0
2, 400, Note_on_c, 1, 85, 127
2, 400, Note_on_c, 1, 88, 127
2, 440, Note_on_c, 1, 50, 127
2, 440, Note_on_c, 1, 57, 127
2, 440, Note_off_c, 1, 60, 0
2, 440, Note_on_c, 1, 65, 127
2, 440, Note_off_c, 1, 85, 0
2, 440, Note_off_c, 1, 88, 0
2, 440, Note_on_c, 1, 93, 127
2, 800, Note_off_c, 1, 50, 0
2, 800, Note_off_c, 1, 57, 0
2, 800, Note_off_c, 1, 65, 0
2, 800, Note_off_c, 1, 93, 0
2, 1440, Note_on_c, 1, 44, 127
2, 1440, Note_on_c, 1, 56, 127
2, 1440, Note_on_c, 1, 72, 127
2, 1440, Note_on_c, 1, 80, 127
2, 2000, Note_off_c, 1, 44, 0
2, 2000, Note_off_c, 1, 56, 0
2, 2000, Note_off_c, 1, 72, 0
2, 2000, Note_off_c, 1, 80, 0
2, 2240, Note_on_c, 1, 32, 127
2, 2240, Note_on_c, 1, 44, 127
2, 2240, Note_on_c, 1, 56, 127
2, 2440, Note_off_c, 1, 32, 0
2, 2440, Note_off_c, 1, 44, 0
2, 2440, Note_off_c, 1, 56, 0
2, 5240, Note_on_c, 1, 43, 127
2, 5240, Note_on_c, 1, 50, 127
2, 5240, Note_on_c, 1, 60, 127
2, 5240, Note_on_c, 1, 62, 127
2, 5240, Note_on_c, 1, 69, 127
2, 5480, Note_off_c, 1, 43, 0
2, 5480, Note_off_c, 1, 50, 0
2, 5480, Note_off_c, 1, 60, 0
2, 5480, Note_off_c, 1, 62, 0
2, 5480, Note_off_c, 1, 69, 0
2, 5800, Note_on_c, 1, 52, 127
2, 5800, Note_on_c, 1, 55, 127
2, 5800, Note_on_c, 1, 58, 127
2, 5800, Note_on_c, 1, 61, 127
2, 5800, Note_on_c, 1, 70, 127
2, 5960, Note_off_c, 1, 52, 0
2, 5960, Note_off_c, 1, 55, 0
2, 5960, Note_off_c, 1, 58, 0
2, 5960, Note_off_c, 1, 61, 0
2, 5960, Note_off_c, 1, 70, 0
2, 6200, Note_on_c, 1, 42, 127
2, 6200, Note_on_c, 1, 52, 127
2, 6200, Note_on_c, 1, 59, 127
2, 6200, Note_on_c, 1, 64, 127
2, 6240, Note_off_c, 1, 42, 0
2, 6240, Note_off_c, 1, 52, 0
2, 6240, Note_off_c, 1, 59, 0
2, 6240, Note_off_c, 1, 64, 0
2, 6240, Note_on_c, 1, 67, 127
2, 6240, Note_on_c, 1, 70, 127
2, 6240, Note_on_c, 1, 84, 127
2, 6240, Note_on_c, 1, 87, 127
2, 6240, Note_on_c, 1, 93, 127
2, 6280, Note_on_c, 1, 55, 127
2, 6280, Note_on_c, 1, 61, 127
2, 6280, Note_on_c, 1, 64, 127
2, 6280, Note_off_c, 1, 67, 0
2, 6280, Note_on_c, 1, 69, 127
2, 6280, Note_off_c, 1, 70, 0
2, 6280, Note_off_c, 1, 84, 0
2, 6280, Note_on_c, 1, 85, 127
2, 6280, Note_off_c, 1, 87, 0
2, 6280, Note_off_c, 1, 93, 0
2, 6320, Note_on_c, 1, 45, 127
2, 6320, Note_on_c, 1, 52, 127
2, 6320, Note_on_c, 1, 54, 127
2, 6320, Note_off_c, 1, 55, 0
2, 6320, Note_on_c, 1, 57, 127
2, 6320, Note_off_c, 1, 61, 0
2, 6320, Note_off_c, 1, 69, 0
2, 6320, Note_on_c, 1, 76, 127
2, 6320, Note_off_c, 1, 85, 0
2, 6320, Note_on_c, 1, 88, 127
2, 6360, Note_off_c, 1, 45, 0
2, 6360, Note_off_c, 1, 52, 0
2, 6360, Note_off_c, 1, 54, 0
2, 6360, Note_off_c, 1, 57, 0
2, 6360, Note_off_c, 1, 64, 0
2, 6360, Note_off_c, 1, 76, 0
2, 6360, Note_off_c, 1, 88, 0
2, 6600, Note_on_c, 1, 41, 127
2, 6600, Note_on_c, 1, 53, 127
2, 6600, Note_on_c, 1, 56, 127
2, 6600, Note_on_c, 1, 73, 127
2, 6600, Note_on_c, 1, 80, 127
2, 7040, Note_off_c, 1, 41, 0
2, 7040, Note_off_c, 1, 53, 0
2, 7040, Note_off_c, 1, 56, 0
2, 7040, Note_off_c, 1, 73, 0
2, 7040, Note_off_c, 1, 80, 0
2, 7080, Note_on_c, 1, 58, 127
2, 7080, Note_on_c, 1, 61, 127
2, 7080, Note_on_c, 1, 68, 127
2, 7080, Note_on_c, 1, 75, 127
2, 7480, Note_off_c, 1, 58, 0
2, 7480, Note_off_c, 1, 61, 0
2, 7480, Note_off_c, 1, 68, 0
2, 7480, Note_off_c, 1, 75, 0
2, 7560, Note_on_c, 1, 44, 127
2, 7560, Note_on_c, 1, 56, 127
2, 7560, Note_on_c, 1, 60, 127
2, 7560, Note_on_c, 1, 72, 127
2, 7920, Note_off_c, 1, 44, 0
2, 7920, Note_off_c, 1, 56, 0
2, 7920, Note_off_c, 1, 60, 0
2, 7920, Note_off_c, 1, 72, 0
2, 7960, Note_on_c, 1, 53, 127
2, 7960, Note_on_c, 1, 61, 127
2, 7960, Note_on_c, 1, 65, 127
2, 7960, Note_on_c, 1, 68, 127
2, 7960, Note_on_c, 1, 73, 127
2, 7960, Note_on_c, 1, 80, 127
2, 8360, Note_off_c, 1, 53, 0
2, 8360, Note_off_c, 1, 61, 0
2, 8360, Note_off_c, 1, 65, 0
2, 8360, Note_off_c, 1, 68, 0
2, 8360, Note_off_c, 1, 73, 0
2, 8360, Note_off_c, 1, 80, 0
2, 8400, Note_on_c, 1, 49, 127
2, 8400, Note_on_c, 1, 56, 127
2, 8400, Note_on_c, 1, 61, 127
2, 8400, Note_on_c, 1, 65, 127
2, 8400, Note_on_c, 1, 68, 127
2, 8400, Note_on_c, 1, 73, 127
2, 8400, Note_on_c, 1, 77, 127
2, 8760, Note_off_c, 1, 49, 0
2, 8760, Note_off_c, 1, 56, 0
2, 8760, Note_off_c, 1, 61, 0
2, 8760, Note_off_c, 1, 65, 0
2, 8760, Note_off_c, 1, 68, 0
2, 8760, Note_off_c, 1, 73, 0
2, 8760, Note_off_c, 1, 77, 0
2, 8800, Note_on_c, 1, 49, 127
2, 8800, Note_on_c, 1, 56, 127
2, 8800, Note_on_c, 1, 61, 127
2, 8800, Note_on_c, 1, 65, 127
2, 8800, Note_on_c, 1, 68, 127
2, 8800, Note_on_c, 1, 73, 127
2, 8800, Note_on_c, 1, 77, 127
2, 9120, Note_off_c, 1, 49, 0
2, 9120, Note_off_c, 1, 56, 0
2, 9120, Note_off_c, 1, 61, 0
2, 9120, Note_off_c, 1, 65, 0
2, 9120, Note_off_c, 1, 68, 0
2, 9120, Note_off_c, 1, 73, 0
2, 9120, Note_off_c, 1, 77, 0
2, 9160, Note_on_c, 1, 49, 127
2, 9160, Note_on_c, 1, 56, 127
2, 9160, Note_on_c, 1, 61, 127
2, 9160, Note_on_c, 1, 65, 127
2, 9160, Note_on_c, 1, 68, 127
2, 9160, Note_on_c, 1, 73, 127
2, 9160, Note_on_c, 1, 77, 127
2, 9560, Note_off_c, 1, 49, 0
2, 9560, Note_off_c, 1, 56, 0
2, 9560, Note_off_c, 1, 61, 0
2, 9560, Note_off_c, 1, 65, 0
2, 9560, Note_off_c, 1, 68, 0
2, 9560, Note_off_c, 1, 73, 0
2, 9560, Note_off_c, 1, 77, 0
2, 9640, Note_on_c, 1, 53, 127
2, 9640, Note_on_c, 1, 57, 127
2, 9640, Note_on_c, 1, 59, 127
2, 9640, Note_on_c, 1, 62, 127
2, 9680, Note_off_c, 1, 53, 0
2, 9680, Note_off_c, 1, 57, 0
2, 9680, Note_off_c, 1, 59, 0
2, 9680, Note_off_c, 1, 62, 0
2, 9760, Note_on_c, 1, 83, 127
2, 9760, Note_on_c, 1, 86, 127
2, 9760, Note_on_c, 1, 89, 127
2, 9760, Note_on_c, 1, 92, 127
2, 9800, Note_off_c, 1, 83, 0
2, 9800, Note_off_c, 1, 86, 0
2, 9800, Note_off_c, 1, 89, 0
2, 9800, Note_off_c, 1, 92, 0
2, 9880, Note_on_c, 1, 59, 127
2, 9880, Note_on_c, 1, 62, 127
2, 9880, Note_on_c, 1, 65, 127
2, 9880, Note_on_c, 1, 68, 127
2, 9880, Note_on_c, 1, 86, 127
2, 9920, Note_off_c, 1, 59, 0
2, 9920, Note_off_c, 1, 62, 0
2, 9920, Note_off_c, 1, 65, 0
2, 9920, Note_off_c, 1, 68, 0
2, 9920, Note_off_c, 1, 86, 0
2, 10040, Note_on_c, 1, 50, 127
2, 10040, Note_on_c, 1, 56, 127
2, 10040, Note_on_c, 1, 58, 127
2, 10040, Note_on_c, 1, 62, 127
2, 10040, Note_on_c, 1, 65, 127
2, 10040, Note_on_c, 1, 68, 127
2, 10400, Note_off_c, 1, 50, 0
2, 10400, Note_off_c, 1, 56, 0
2, 10400, Note_off_c, 1, 58, 0
2, 10400, Note_off_c, 1, 62, 0
2, 10400, Note_off_c, 1, 65, 0
2, 10400, Note_off_c, 1, 68, 0
2, 10480, Note_on_c, 1, 50, 127
2, 10480, Note_on_c, 1, 56, 127
2, 10480, Note_on_c, 1, 58, 127
2, 10480, Note_on_c, 1, 62, 127
2, 10480, Note_on_c, 1, 65, 127
2, 10480, Note_on_c, 1, 68, 127
2, 10800, Note_off_c, 1, 50, 0
2, 10800, Note_off_c, 1, 56, 0
2, 10800, Note_off_c, 1, 58, 0
2, 10800, Note_off_c, 1, 62, 0
2, 10800, Note_off_c, 1, 65, 0
2, 10800, Note_off_c, 1, 68, 0
2, 10840, Note_on_c, 1, 50, 127
2, 10840, Note_on_c, 1, 52, 127
2, 10840, Note_on_c, 1, 62, 127
2, 10840, Note_on_c, 1, 66, 127
2, 10840, Note_on_c, 1, 69, 127
2, 10840, Note_on_c, 1, 78, 127
2, 11000, Note_off_c, 1, 50, 0
2, 11000, Note_off_c, 1, 52, 0
2, 11000, Note_off_c, 1, 62, 0
2, 11000, Note_off_c, 1, 66, 0
2, 11000, Note_off_c, 1, 69, 0
2, 11000, Note_off_c, 1, 78, 0
2, 11040, Note_on_c, 1, 50, 127
2, 11040, Note_on_c, 1, 52, 127
2, 11040, Note_on_c, 1, 62, 127
2, 11040, Note_on_c, 1, 66, 127
2, 11040, Note_on_c, 1, 69, 127
2, 11040, Note_on_c, 1, 78, 127
2, 11200, Note_off_c, 1, 50, 0
2, 11200, Note_off_c, 1, 52, 0
2, 11200, Note_off_c, 1, 62, 0
2, 11200, Note_off_c, 1, 66, 0
2, 11200, Note_off_c, 1, 69, 0
2, 11200, Note_off_c, 1, 78, 0
2, 11240, Note_on_c, 1, 49, 127
2, 11240, Note_on_c, 1, 52, 127
2, 11240, Note_on_c, 1, 61, 127
2, 11240, Note_on_c, 1, 64, 127
2, 11240, Note_on_c, 1, 69, 127
2, 11240, Note_on_c, 1, 76, 127
2, 11440, Note_off_c, 1, 49, 0
2, 11440, Note_off_c, 1, 52, 0
2, 11440, Note_off_c, 1, 61, 0
2, 11440, Note_off_c, 1, 64, 0
2, 11440, Note_off_c, 1, 69, 0
2, 11440, Note_off_c, 1, 76, 0
2, 11520, Note_on_c, 1, 49, 127
2, 11520, Note_on_c, 1, 52, 127
2, 11520, Note_on_c, 1, 61, 127
2, 11520, Note_on_c, 1, 64, 127
2, 11520, Note_on_c, 1, 69, 127
2, 11520, Note_on_c, 1, 76, 127
2, 11680, Note_off_c, 1, 49, 0
2, 11680, Note_off_c, 1, 52, 0
2, 11680, Note_off_c, 1, 61, 0
2, 11680, Note_off_c, 1, 64, 0
2, 11680, Note_off_c, 1, 69, 0
2, 11680, Note_off_c, 1, 76, 0
2, 11720, Note_on_c, 1, 49, 127
2, 11720, Note_on_c, 1, 52, 127
2, 11720, Note_on_c, 1, 61, 127
2, 11720, Note_on_c, 1, 64, 127
2, 11720, Note_on_c, 1, 69, 127
2, 11720, Note_on_c, 1, 76, 127
2, 11880, Note_off_c, 1, 49, 0
2, 11880, Note_off_c, 1, 52, 0
2, 11880, Note_off_c, 1, 61, 0
2, 11880, Note_off_c, 1, 64, 0
2, 11880, Note_off_c, 1, 69, 0
2, 11880, Note_off_c, 1, 76, 0
2, 11920, Note_on_c, 1, 49, 127
2, 11920, Note_on_c, 1, 52, 127
2, 11920, Note_on_c, 1, 61, 127
2, 11920, Note_on_c, 1, 64, 127
2, 11920, Note_on_c, 1, 69, 127
2, 11920, Note_on_c, 1, 76, 127
2, 12120, Note_off_c, 1, 49, 0
2, 12120, Note_off_c, 1, 52, 0
2, 12120, Note_off_c, 1, 61, 0
2, 12120, Note_off_c, 1, 64, 0
2, 12120, Note_off_c, 1, 69, 0
2, 12120, Note_off_c, 1, 76, 0
2, 12160, Note_on_c, 1, 49, 127
2, 12160, Note_on_c, 1, 52, 127
2, 12160, Note_on_c, 1, 61, 127
2, 12160, Note_on_c, 1, 64, 127
2, 12160, Note_on_c, 1, 69, 127
2, 12160, Note_on_c, 1, 76, 127
2, 12320, Note_off_c, 1, 49, 0
2, 12320, Note_off_c, 1, 52, 0
2, 12320, Note_off_c, 1, 61, 0
2, 12320, Note_off_c, 1, 64, 0
2, 12320, Note_off_c, 1, 69, 0
2, 12320, Note_off_c, 1, 76, 0
2, 12360, Note_on_c, 1, 49, 127
2, 12360, Note_on_c, 1, 52, 127
2, 12360, Note_on_c, 1, 61, 127
2, 12360, Note_on_c, 1, 64, 127
2, 12360, Note_on_c, 1, 69, 127
2, 12360, Note_on_c, 1, 76, 127
2, 12520, Note_off_c, 1, 49, 0
2, 12520, Note_off_c, 1, 52, 0
2, 12520, Note_off_c, 1, 61, 0
2, 12520, Note_off_c, 1, 64, 0
2, 12520, Note_off_c, 1, 69, 0
2, 12520, Note_off_c, 1, 76, 0
2, 12600, Note_on_c, 1, 49, 127
2, 12600, Note_on_c, 1, 52, 127
2, 12600, Note_on_c, 1, 61, 127
2, 12600, Note_on_c, 1, 64, 127
2, 12600, Note_on_c, 1, 69, 127
2, 12600, Note_on_c, 1, 76, 127
2, 12760, Note_off_c, 1, 49, 0
2, 12760, Note_off_c, 1, 52, 0
2, 12760, Note_off_c, 1, 61, 0
2, 12760, Note_off_c, 1, 64, 0
2, 12760, Note_off_c, 1, 69, 0
2, 12760, Note_off_c, 1, 76, 0
2, 12800, Note_on_c, 1, 49, 127
2, 12800, Note_on_c, 1, 52, 127
2, 12800, Note_on_c, 1, 61, 127
2, 12800, Note_on_c, 1, 64, 127
2, 12800, Note_on_c, 1, 69, 127
2, 12800, Note_on_c, 1, 76, 127
2, 12960, Note_off_c, 1, 49, 0
2, 12960, Note_off_c, 1, 52, 0
2, 12960, Note_off_c, 1, 61, 0
2, 12960, Note_off_c, 1, 64, 0
2, 12960, Note_off_c, 1, 69, 0
2, 12960, Note_off_c, 1, 76, 0
2, 13000, Note_on_c, 1, 49, 127
2, 13000, Note_on_c, 1, 52, 127
2, 13000, Note_on_c, 1, 61, 127
2, 13000, Note_on_c, 1, 64, 127
2, 13000, Note_on_c, 1, 69, 127
2, 13000, Note_on_c, 1, 76, 127
2, 13200, Note_off_c, 1, 49, 0
2, 13200, Note_off_c, 1, 52, 0
2, 13200, Note_off_c, 1, 61, 0
2, 13200, Note_off_c, 1, 64, 0
2, 13200, Note_off_c, 1, 69, 0
2, 13200, Note_off_c, 1, 76, 0
2, 13240, Note_on_c, 1, 49, 127
2, 13240, Note_on_c, 1, 52, 127
2, 13240, Note_on_c, 1, 61, 127
2, 13240, Note_on_c, 1, 64, 127
2, 13240, Note_on_c, 1, 69, 127
2, 13240, Note_on_c, 1, 76, 127
2, 13400, Note_off_c, 1, 49, 0
2, 13400, Note_off_c, 1, 52, 0
2, 13400, Note_off_c, 1, 61, 0
2, 13400, Note_off_c, 1, 64, 0
2, 13400, Note_off_c, 1, 69, 0
2, 13400, Note_off_c, 1, 76, 0
2, 13440, Note_on_c, 1, 49, 127
2, 13440, Note_on_c, 1, 52, 127
2, 13440, Note_on_c, 1, 61, 127
2, 13440, Note_on_c, 1, 64, 127
2, 13440, Note_on_c, 1, 69, 127
2, 13440, Note_on_c, 1, 76, 127
2, 13520, Note_off_c, 1, 49, 0
2, 13520, Note_off_c, 1, 52, 0
2, 13520, Note_off_c, 1, 61, 0
2, 13520, Note_off_c, 1, 64, 0
2, 13520, Note_off_c, 1, 69, 0
2, 13520, Note_off_c, 1, 76, 0
2, 13560, Note_on_c, 1, 49, 127
2, 13560, Note_on_c, 1, 52, 127
2, 13560, Note_on_c, 1, 61, 127
2, 13560, Note_on_c, 1, 64, 127
2, 13560, Note_on_c, 1, 69, 127
2, 13560, Note_on_c, 1, 76, 127
2, 13640, Note_off_c, 1, 49, 0
2, 13640, Note_off_c, 1, 52, 0
2, 13640, Note_off_c, 1, 61, 0
2, 13640, Note_off_c, 1, 64, 0
2, 13640, Note_off_c, 1, 69, 0
2, 13640, Note_off_c, 1, 76, 0
2, 13680, Note_on_c, 1, 44, 127
2, 13680, Note_on_c, 1, 52, 127
2, 13680, Note_on_c, 1, 56, 127
2, 13680, Note_on_c, 1, 59, 127
2, 13680, Note_on_c, 1, 64, 127
2, 13680, Note_on_c, 1, 71, 127
2, 13880, Note_off_c, 1, 44, 0
2, 13880, Note_off_c, 1, 52, 0
2, 13880, Note_off_c, 1, 56, 0
2, 13880, Note_off_c, 1, 59, 0
2, 13880, Note_off_c, 1, 64, 0
2, 13880, Note_off_c, 1, 71, 0
2, 13920, Note_on_c, 1, 47, 127
2, 13920, Note_on_c, 1, 52, 127
2, 13920, Note_on_c, 1, 59, 127
2, 13920, Note_on_c, 1, 62, 127
2, 13920, Note_on_c, 1, 64, 127
2, 13920, Note_on_c, 1, 74, 127
2, 14080, Note_off_c, 1, 47, 0
2, 14080, Note_off_c, 1, 52, 0
2, 14080, Note_off_c, 1, 59, 0
2, 14080, Note_off_c, 1, 62, 0
2, 14080, Note_off_c, 1, 64, 0
2, 14080, Note_off_c, 1, 74, 0
2, 14120, Note_on_c, 1, 47, 127
2, 14120, Note_on_c, 1, 52, 127
2, 14120, Note_on_c, 1, 59, 127
2, 14120, Note_on_c, 1, 62, 127
2, 14120, Note_on_c, 1, 64, 127
2, 14120, Note_on_c, 1, 74, 127
2, 14280, Note_off_c, 1, 47, 0
2, 14280, Note_off_c, 1, 52, 0
2, 14280, Note_off_c, 1, 59, 0
2, 14280, Note_off_c, 1, 62, 0
2, 14280, Note_off_c, 1, 64, 0
2, 14280, Note_off_c, 1, 74, 0
2, 14320, Note_on_c, 1, 45, 127
2, 14320, Note_on_c, 1, 52, 127
2, 14320, Note_on_c, 1, 57, 127
2, 14320, Note_on_c, 1, 61, 127
2, 14320, Note_on_c, 1, 64, 127
2, 14320, Note_on_c, 1, 73, 127
2, 14480, Note_off_c, 1, 45, 0
2, 14480, Note_off_c, 1, 52, 0
2, 14480, Note_off_c, 1, 57, 0
2, 14480, Note_off_c, 1, 61, 0
2, 14480, Note_off_c, 1, 64, 0
2, 14480, Note_off_c, 1, 73, 0
2, 14520, Note_on_c, 1, 44, 127
2, 14520, Note_on_c, 1, 52, 127
2, 14520, Note_on_c, 1, 56, 127
2, 14520, Note_on_c, 1, 59, 127
2, 14520, Note_on_c, 1, 64, 127
2, 14520, Note_on_c, 1, 71, 127
2, 14720, Note_off_c, 1, 44, 0
2, 14720, Note_off_c, 1, 52, 0
2, 14720, Note_off_c, 1, 56, 0
2, 14720, Note_off_c, 1, 59, 0
2, 14720, Note_off_c, 1, 64, 0
2, 14720, Note_off_c, 1, 71, 0
2, 14760, Note_on_c, 1, 47, 127
2, 14760, Note_on_c, 1, 52, 127
2, 14760, Note_on_c, 1, 59, 127
2, 14760, Note_on_c, 1, 62, 127
2, 14760, Note_on_c, 1, 64, 127
2, 14760, Note_on_c, 1, 74, 127
2, 14920, Note_off_c, 1, 47, 0
2, 14920, Note_off_c, 1, 52, 0
2, 14920, Note_off_c, 1, 59, 0
2, 14920, Note_off_c, 1, 62, 0
2, 14920, Note_off_c, 1, 64, 0
2, 14920, Note_off_c, 1, 74, 0
2, 14960, Note_on_c, 1, 47, 127
2, 14960, Note_on_c, 1, 52, 127
2, 14960, Note_on_c, 1, 59, 127
2, 14960, Note_on_c, 1, 62, 127
2, 14960, Note_on_c, 1, 64, 127
2, 14960, Note_on_c, 1, 74, 127
2, 15120, Note_off_c, 1, 47, 0
2, 15120, Note_off_c, 1, 52, 0
2, 15120, Note_off_c, 1, 59, 0
2, 15120, Note_off_c, 1, 62, 0
2, 15120, Note_off_c, 1, 64, 0
2, 15120, Note_off_c, 1, 74, 0
2, 15160, Note_on_c, 1, 47, 127
2, 15160, Note_on_c, 1, 52, 127
2, 15160, Note_on_c, 1, 59, 127
2, 15160, Note_on_c, 1, 62, 127
2, 15160, Note_on_c, 1, 64, 127
2, 15160, Note_on_c, 1, 74, 127
2, 15320, Note_off_c, 1, 47, 0
2, 15320, Note_off_c, 1, 52, 0
2, 15320, Note_off_c, 1, 59, 0
2, 15320, Note_off_c, 1, 62, 0
2, 15320, Note_off_c, 1, 64, 0
2, 15320, Note_off_c, 1, 74, 0
2, 15400, Note_on_c, 1, 47, 127
2, 15400, Note_on_c, 1, 52, 127
2, 15400, Note_on_c, 1, 59, 127
2, 15400, Note_on_c, 1, 62, 127
2, 15400, Note_on_c, 1, 64, 127
2, 15400, Note_on_c, 1, 74, 127
2, 15560, Note_off_c, 1, 47, 0
2, 15560, Note_off_c, 1, 52, 0
2, 15560, Note_off_c, 1, 59, 0
2, 15560, Note_off_c, 1, 62, 0
2, 15560, Note_off_c, 1, 64, 0
2, 15560, Note_off_c, 1, 74, 0
2, 15600, Note_on_c, 1, 47, 127
2, 15600, Note_on_c, 1, 52, 127
2, 15600, Note_on_c, 1, 59, 127
2, 15600, Note_on_c, 1, 62, 127
2, 15600, Note_on_c, 1, 64, 127
2, 15600, Note_on_c, 1, 74, 127
2, 15720, Note_off_c, 1, 47, 0
2, 15720, Note_off_c, 1, 52, 0
2, 15720, Note_off_c, 1, 59, 0
2, 15720, Note_off_c, 1, 62, 0
2, 15720, Note_off_c, 1, 64, 0
2, 15720, Note_off_c, 1, 74, 0
2, 15760, Note_on_c, 1, 47, 127
2, 15760, Note_on_c, 1, 52, 127
2, 15760, Note_on_c, 1, 59, 127
2, 15760, Note_on_c, 1, 62, 127
2, 15760, Note_on_c, 1, 64, 127
2, 15760, Note_on_c, 1, 74, 127
2, 15800, Note_off_c, 1, 47, 0
2, 15800, Note_off_c, 1, 52, 0
2, 15800, Note_off_c, 1, 59, 0
2, 15800, Note_off_c, 1, 62, 0
2, 15800, Note_off_c, 1, 64, 0
2, 15800, Note_off_c, 1, 74, 0
2, 15840, Note_on_c, 1, 47, 127
2, 15840, Note_on_c, 1, 52, 127
2, 15840, Note_on_c, 1, 59, 127
2, 15840, Note_on_c, 1, 62, 127
2, 15840, Note_on_c, 1, 64, 127
2, 15840, Note_on_c, 1, 74, 127
2, 16000, Note_off_c, 1, 47, 0
2, 16000, Note_off_c, 1, 52, 0
2, 16000, Note_off_c, 1, 59, 0
2, 16000, Note_off_c, 1, 62, 0
2, 16000, Note_off_c, 1, 64, 0
2, 16000, Note_off_c, 1, 74, 0
2, 16080, Note_on_c, 1, 47, 127
2, 16080, Note_on_c, 1, 52, 127
2, 16080, Note_on_c, 1, 59, 127
2, 16080, Note_on_c, 1, 62, 127
2, 16080, Note_on_c, 1, 64, 127
2, 16080, Note_on_c, 1, 74, 127
2, 16240, Note_off_c, 1, 47, 0
2, 16240, Note_off_c, 1, 52, 0
2, 16240, Note_off_c, 1, 59, 0
2, 16240, Note_off_c, 1, 62, 0
2, 16240, Note_off_c, 1, 64, 0
2, 16240, Note_off_c, 1, 74, 0
2, 16280, Note_on_c, 1, 47, 127
2, 16280, Note_on_c, 1, 52, 127
2, 16280, Note_on_c, 1, 59, 127
2, 16280, Note_on_c, 1, 62, 127
2, 16280, Note_on_c, 1, 64, 127
2, 16280, Note_on_c, 1, 74, 127
2, 16440, Note_off_c, 1, 47, 0
2, 16440, Note_off_c, 1, 52, 0
2, 16440, Note_off_c, 1, 59, 0
2, 16440, Note_off_c, 1, 62, 0
2, 16440, Note_off_c, 1, 64, 0
2, 16440, Note_off_c, 1, 74, 0
2, 16480, Note_on_c, 1, 47, 127
2, 16480, Note_on_c, 1, 52, 127
2, 16480, Note_on_c, 1, 59, 127
2, 16480, Note_on_c, 1, 62, 127
2, 16480, Note_on_c, 1, 64, 127
2, 16480, Note_on_c, 1, 74, 127
2, 16640, Note_off_c, 1, 47, 0
2, 16640, Note_off_c, 1, 52, 0
2, 16640, Note_off_c, 1, 59, 0
2, 16640, Note_off_c, 1, 62, 0
2, 16640, Note_off_c, 1, 64, 0
2, 16640, Note_off_c, 1, 74, 0
2, 16680, Note_on_c, 1, 45, 127
2, 16680, Note_on_c, 1, 57, 127
2, 16680, Note_on_c, 1, 73, 127
2, 16680, Note_on_c, 1, 76, 127
2, 16880, Note_off_c, 1, 45, 0
2, 16880, Note_off_c, 1, 57, 0
2, 16880, Note_off_c, 1, 73, 0
2, 16880, Note_off_c, 1, 76, 0
2, 16920, Note_on_c, 1, 47, 127
2, 16920, Note_on_c, 1, 57, 127
2, 16920, Note_on_c, 1, 59, 127
2, 16920, Note_on_c, 1, 74, 127
2, 16920, Note_on_c, 1, 78, 127
2, 17080, Note_off_c, 1, 47, 0
2, 17080, Note_off_c, 1, 57, 0
2, 17080, Note_off_c, 1, 59, 0
2, 17080, Note_off_c, 1, 74, 0
2, 17080, Note_off_c, 1, 78, 0
2, 17120, Note_on_c, 1, 28, 127
2, 17120, Note_on_c, 1, 40, 127
2, 17120, Note_on_c, 1, 67, 127
2, 17120, Note_on_c, 1, 72, 127
2, 17280, Note_off_c, 1, 67, 0
2, 17280, Note_off_c, 1, 72, 0
2, 17320, Note_on_c, 1, 71, 127
2, 17520, Note_off_c, 1, 28, 0
2, 17520, Note_off_c, 1, 40, 0
2, 17520, Note_off_c, 1, 71, 0
2, 17560, Note_on_c, 1, 35, 127
2, 17560, Note_on_c, 1, 47, 127
2, 17560, Note_on_c, 1, 71, 127
2, 17560, Note_on_c, 1, 74, 127
2, 17600, Note_off_c, 1, 71, 0
2, 17640, Note_on_c, 1, 66, 127
2, 17680, Note_off_c, 1, 66, 0
2, 17720, Note_off_c, 1, 35, 0
2, 17720, Note_off_c, 1, 47, 0
2, 17720, Note_off_c, 1, 74, 0
2, 17760, Note_on_c, 1, 35, 127
2, 17760, Note_on_c, 1, 47, 127
2, 17760, Note_on_c, 1, 71, 127
2, 17760, Note_on_c, 1, 74, 127
2, 17800, Note_off_c, 1, 71, 0
2, 17840, Note_on_c, 1, 34, 127
2, 17840, Note_off_c, 1, 35, 0
2, 17840, Note_on_c, 1, 46, 127
2, 17840, Note_off_c, 1, 47, 0
2, 17840, Note_on_c, 1, 64, 127
2, 17840, Note_on_c, 1, 73, 127
2, 17840, Note_off_c, 1, 74, 0
2, 17880, Note_off_c, 1, 34, 0
2, 17880, Note_on_c, 1, 35, 127
2, 17880, Note_off_c, 1, 46, 0
2, 17880, Note_on_c, 1, 47, 127
2, 17880, Note_off_c, 1, 64, 0
2, 17880, Note_on_c, 1, 71, 127
2, 17880, Note_off_c, 1, 73, 0
2, 17880, Note_on_c, 1, 74, 127
2, 17920, Note_off_c, 1, 35, 0
2, 17920, Note_off_c, 1, 47, 0
2, 17920, Note_off_c, 1, 71, 0
2, 17920, Note_off_c, 1, 74, 0
2, 17960, Note_on_c, 1, 74, 127
2, 18000, Note_on_c, 1, 35, 127
2, 18000, Note_on_c, 1, 47, 127
2, 18000, Note_on_c, 1, 71, 127
2, 18040, Note_off_c, 1, 71, 0
2, 18080, Note_on_c, 1, 71, 127
2, 18200, Note_off_c, 1, 35, 0
2, 18200, Note_off_c, 1, 47, 0
2, 18200, Note_off_c, 1, 71, 0
2, 18200, Note_off_c, 1, 74, 0
2, 18240, Note_on_c, 1, 35, 127
2, 18240, Note_on_c, 1, 47, 127
2, 18240, Note_on_c, 1, 71, 127
2, 18240, Note_on_c, 1, 74, 127
2, 18280, Note_off_c, 1, 71, 0
2, 18320, Note_on_c, 1, 71, 127
2, 18400, Note_off_c, 1, 35, 0
2, 18400, Note_off_c, 1, 47, 0
2, 18400, Note_off_c, 1, 71, 0
2, 18400, Note_off_c, 1, 74, 0
2, 18440, Note_on_c, 1, 35, 127
2, 18440, Note_on_c, 1, 47, 127
2, 18440, Note_on_c, 1, 71, 127
2, 18440, Note_on_c, 1, 74, 127
2, 18480, Note_off_c, 1, 71, 0
2, 18520, Note_off_c, 1, 74, 0
2, 18520, Note_on_c, 1, 77, 127
2, 18560, Note_on_c, 1, 65, 127
2, 18560, Note_on_c, 1, 74, 127
2, 18560, Note_off_c, 1, 77, 0
2, 18600, Note_off_c, 1, 65, 0
2, 18640, Note_on_c, 1, 71, 127
2, 18720, Note_off_c, 1, 71, 0
2, 18720, Note_off_c, 1, 74, 0
2, 18760, Note_on_c, 1, 86, 127
2, 18840, Note_off_c, 1, 35, 0
2, 18840, Note_off_c, 1, 47, 0
2, 18840, Note_off_c, 1, 86, 0
2, 18880, Note_on_c, 1, 35, 127
2, 18880, Note_on_c, 1, 47, 127
2, 18880, Note_on_c, 1, 71, 127
2, 18880, Note_on_c, 1, 74, 127
2, 18920, Note_off_c, 1, 71, 0
2, 18920, Note_off_c, 1, 74, 0
2, 18960, Note_on_c, 1, 86, 127
2, 19000, Note_off_c, 1, 86, 0
2, 19040, Note_off_c, 1, 35, 0
2, 19040, Note_off_c, 1, 47, 0
2, 19080, Note_on_c, 1, 35, 127
2, 19080, Note_on_c, 1, 47, 127
2, 19080, Note_on_c, 1, 69, 127
2, 19080, Note_on_c, 1, 78, 127
2, 19120, Note_off_c, 1, 69, 0
2, 19120, Note_off_c, 1, 78, 0
2, 19200, Note_on_c, 1, 72, 127
2, 19240, Note_off_c, 1, 35, 0
2, 19240, Note_off_c, 1, 47, 0
2, 19240, Note_off_c, 1, 72, 0
2, 19280, Note_on_c, 1, 35, 127
2, 19280, Note_on_c, 1, 47, 127
2, 19280, Note_on_c, 1, 69, 127
2, 19280, Note_on_c, 1, 78, 127
2, 19320, Note_off_c, 1, 69, 0
2, 19320, Note_off_c, 1, 78, 0
2, 19400, Note_on_c, 1, 81, 127
2, 19440, Note_off_c, 1, 81, 0
2, 19480, Note_off_c, 1, 35, 0
2, 19480, Note_off_c, 1, 47, 0
2, 19520, Note_on_c, 1, 32, 127
2, 19520, Note_on_c, 1, 44, 127
2, 19520, Note_on_c, 1, 73, 127
2, 19520, Note_on_c, 1, 76, 127
2, 19560, Note_off_c, 1, 32, 0
2, 19560, Note_on_c, 1, 40, 127
2, 19560, Note_off_c, 1, 44, 0
2, 19560, Note_on_c, 1, 52, 127
2, 19560, Note_off_c, 1, 73, 0
2, 19560, Note_off_c, 1, 76, 0
2, 19560, Note_on_c, 1, 80, 127
2, 19600, Note_on_c, 1, 35, 127
2, 19600, Note_off_c, 1, 40, 0
2, 19600, Note_on_c, 1, 47, 127
2, 19600, Note_off_c, 1, 52, 0
2, 19600, Note_off_c, 1, 80, 0
2, 19600, Note_on_c, 1, 81, 127
2, 19640, Note_off_c, 1, 35, 0
2, 19640, Note_off_c, 1, 47, 0
2, 19640, Note_on_c, 1, 80, 127
2, 19640, Note_off_c, 1, 81, 0
2, 19680, Note_off_c, 1, 80, 0
2, 19720, Note_on_c, 1, 37, 127
2, 19720, Note_on_c, 1, 49, 127
2, 19720, Note_on_c, 1, 69, 127
2, 19720, Note_on_c, 1, 76, 127
2, 19720, Note_on_c, 1, 81, 127
2, 19880, Note_off_c, 1, 37, 0
2, 19880, Note_off_c, 1, 49, 0
2, 19880, Note_off_c, 1, 69, 0
2, 19880, Note_off_c, 1, 76, 0
2, 19880, Note_off_c, 1, 81, 0
2, 19920, Note_on_c, 1, 37, 127
2, 19920, Note_on_c, 1, 49, 127
2, 19920, Note_on_c, 1, 69, 127
2, 19920, Note_on_c, 1, 76, 127
2, 19920, Note_on_c, 1, 81, 127
2, 20160, Note_off_c, 1, 37, 0
2, 20160, Note_off_c, 1, 49, 0
2, 20160, Note_off_c, 1, 69, 0
2, 20160, Note_off_c, 1, 76, 0
2, 20160, Note_off_c, 1, 81, 0
2, 20200, Note_on_c, 1, 45, 127
2, 20200, Note_on_c, 1, 57, 127
2, 20200, Note_on_c, 1, 73, 127
2, 20200, Note_on_c, 1, 81, 127
2, 20200, Note_on_c, 1, 85, 127
2, 20360, Note_off_c, 1, 45, 0
2, 20360, Note_off_c, 1, 57, 0
2, 20360, Note_off_c, 1, 73, 0
2, 20360, Note_off_c, 1, 81, 0
2, 20360, Note_off_c, 1, 85, 0
2, 20400, Note_on_c, 1, 45, 127
2, 20400, Note_on_c, 1, 57, 127
2, 20400, Note_on_c, 1, 73, 127
2, 20400, Note_on_c, 1, 81, 127
2, 20400, Note_on_c, 1, 85, 127
2, 20560, Note_off_c, 1, 45, 0
2, 20560, Note_off_c, 1, 57, 0
2, 20560, Note_off_c, 1, 73, 0
2, 20560, Note_off_c, 1, 81, 0
2, 20560, Note_off_c, 1, 85, 0
2, 20600, Note_on_c, 1, 37, 127
2, 20600, Note_on_c, 1, 49, 127
2, 20600, Note_on_c, 1, 69, 127
2, 20600, Note_on_c, 1, 76, 127
2, 20600, Note_on_c, 1, 81, 127
2, 20800, Note_off_c, 1, 37, 0
2, 20800, Note_off_c, 1, 49, 0
2, 20800, Note_off_c, 1, 69, 0
2, 20800, Note_off_c, 1, 76, 0
2, 20800, Note_off_c, 1, 81, 0
2, 20840, Note_on_c, 1, 45, 127
2, 20840, Note_on_c, 1, 57, 127
2, 20840, Note_on_c, 1, 73, 127
2, 20840, Note_on_c, 1, 81, 127
2, 20840, Note_on_c, 1, 85, 127
2, 21000, Note_off_c, 1, 45, 0
2, 21000, Note_off_c, 1, 57, 0
2, 21000, Note_off_c, 1, 73, 0
2, 21000, Note_off_c, 1, 81, 0
2, 21000, Note_off_c, 1, 85, 0
2, 21040, Note_on_c, 1, 47, 127
2, 21040, Note_on_c, 1, 57, 127
2, 21040, Note_on_c, 1, 59, 127
2, 21040, Note_on_c, 1, 74, 127
2, 21040, Note_on_c, 1, 81, 127
2, 21040, Note_on_c, 1, 86, 127
2, 21200, Note_off_c, 1, 47, 0
2, 21200, Note_off_c, 1, 57, 0
2, 21200, Note_off_c, 1, 59, 0
2, 21200, Note_off_c, 1, 74, 0
2, 21200, Note_off_c, 1, 81, 0
2, 21200, Note_off_c, 1, 86, 0
2, 21240, Note_on_c, 1, 31, 127
2, 21240, Note_on_c, 1, 43, 127
2, 21240, Note_on_c, 1, 55, 127
2, 21240, Note_on_c, 1, 59, 127
2, 21240, Note_on_c, 1, 62, 127
2, 21240, Note_on_c, 1, 67, 127
2, 21320, Note_off_c, 1, 31, 0
2, 21320, Note_off_c, 1, 43, 0
2, 21320, Note_off_c, 1, 55, 0
2, 21320, Note_off_c, 1, 59, 0
2, 21320, Note_off_c, 1, 62, 0
2, 21320, Note_off_c, 1, 67, 0
2, 21320, Note_on_c, 1, 73, 127
2, 21320, Note_on_c, 1, 78, 127
2, 21320, Note_on_c, 1, 82, 127
2, 21320, Note_on_c, 1, 85, 127
2, 21360, Note_on_c, 1, 54, 127
2, 21360, Note_on_c, 1, 59, 127
2, 21360, Note_on_c, 1, 62, 127
2, 21360, Note_on_c, 1, 65, 127
2, 21360, Note_off_c, 1, 73, 0
2, 21360, Note_off_c, 1, 78, 0
2, 21360, Note_off_c, 1, 82, 0
2, 21360, Note_off_c, 1, 85, 0
2, 21360, Note_on_c, 1, 95, 127
2, 21400, Note_off_c, 1, 54, 0
2, 21400, Note_off_c, 1, 59, 0
2, 21400, Note_off_c, 1, 62, 0
2, 21400, Note_off_c, 1, 65, 0
2, 21400, Note_off_c, 1, 95, 0
2, 21480, Note_on_c, 1, 29, 127
2, 21480, Note_on_c, 1, 43, 127
2, 21480, Note_on_c, 1, 58, 127
2, 21520, Note_off_c, 1, 29, 0
2, 21520, Note_off_c, 1, 43, 0
2, 21520, Note_on_c, 1, 51, 127
2, 21520, Note_on_c, 1, 56, 127
2, 21520, Note_off_c, 1, 58, 0
2, 21520, Note_on_c, 1, 60, 127
2, 21520, Note_on_c, 1, 63, 127
2, 21520, Note_on_c, 1, 92, 127
2, 21560, Note_off_c, 1, 51, 0
2, 21560, Note_off_c, 1, 56, 0
2, 21560, Note_off_c, 1, 60, 0
2, 21560, Note_off_c, 1, 63, 0
2, 21560, Note_on_c, 1, 78, 127
2, 21560, Note_on_c, 1, 88, 127
2, 21560, Note_on_c, 1, 90, 127
2, 21560, Note_off_c, 1, 92, 0
2, 21600, Note_on_c, 1, 70, 127
2, 21600, Note_off_c, 1, 78, 0
2, 21600, Note_off_c, 1, 88, 0
2, 21600, Note_on_c, 1, 102, 127
2, 21640, Note_off_c, 1, 70, 0
2, 21640, Note_off_c, 1, 90, 0
2, 21640, Note_off_c, 1, 102, 0
2, 21680, Note_on_c, 1, 60, 127
2, 21680, Note_on_c, 1, 62, 127
2, 21680, Note_on_c, 1, 69, 127
2, 21680, Note_on_c, 1, 79, 127
2, 21720, Note_off_c, 1, 79, 0
2, 21760, Note_on_c, 1, 78, 127
2, 21840, Note_off_c, 1, 60, 0
2, 21840, Note_off_c, 1, 62, 0
2, 21840, Note_off_c, 1, 69, 0
2, 21840, Note_off_c, 1, 78, 0
2, 21960, Note_on_c, 1, 59, 127
2, 21960, Note_on_c, 1, 62, 127
2, 21960, Note_on_c, 1, 67, 127
2, 21960, Note_on_c, 1, 89, 127
2, 22000, Note_off_c, 1, 89, 0
2, 22080, Note_on_c, 1, 79, 127
2, 22120, Note_off_c, 1, 59, 0
2, 22120, Note_off_c, 1, 62, 0
2, 22120, Note_off_c, 1, 67, 0
2, 22120, Note_off_c, 1, 79, 0
2, 22160, Note_on_c, 1, 59, 127
2, 22160, Note_on_c, 1, 62, 127
2, 22160, Note_on_c, 1, 67, 127
2, 22160, Note_on_c, 1, 85, 127
2, 22240, Note_off_c, 1, 85, 0
2, 22280, Note_on_c, 1, 91, 127
2, 22320, Note_off_c, 1, 59, 0
2, 22320, Note_off_c, 1, 62, 0
2, 22320, Note_off_c, 1, 67, 0
2, 22320, Note_off_c, 1, 91, 0
2, 22360, Note_on_c, 1, 54, 127
2, 22360, Note_on_c, 1, 59, 127
2, 22360, Note_on_c, 1, 62, 127
2, 22360, Note_on_c, 1, 86, 127
2, 22520, Note_on_c, 1, 83, 127
2, 22520, Note_off_c, 1, 86, 0
2, 22560, Note_off_c, 1, 54, 0
2, 22560, Note_off_c, 1, 59, 0
2, 22560, Note_off_c, 1, 62, 0
2, 22560, Note_off_c, 1, 83, 0
2, 22600, Note_on_c, 1, 60, 127
2, 22600, Note_on_c, 1, 67, 127
2, 22600, Note_on_c, 1, 70, 127
2, 22600, Note_on_c, 1, 72, 127
2, 22600, Note_on_c, 1, 79, 127
2, 22600, Note_on_c, 1, 88, 127
2, 22600, Note_on_c, 1, 91, 127
2, 22680, Note_off_c, 1, 79, 0
2, 22680, Note_on_c, 1, 81, 127
2, 22680, Note_off_c, 1, 91, 0
2, 22680, Note_on_c, 1, 93, 127
2, 22720, Note_off_c, 1, 60, 0
2, 22720, Note_off_c, 1, 67, 0
2, 22720, Note_off_c, 1, 70, 0
2, 22720, Note_off_c, 1, 72, 0
2, 22720, Note_off_c, 1, 81, 0
2, 22720, Note_off_c, 1, 88, 0
2, 22720, Note_off_c, 1, 93, 0
2, 22800, Note_on_c, 1, 36, 127
2, 22800, Note_on_c, 1, 48, 127
2, 22800, Note_on_c, 1, 55, 127
2, 22800, Note_on_c, 1, 64, 127
2, 22960, Note_off_c, 1, 36, 0
2, 22960, Note_off_c, 1, 48, 0
2, 22960, Note_off_c, 1, 55, 0
2, 22960, Note_off_c, 1, 64, 0
2, 23000, Note_on_c, 1, 31, 127
2, 23000, Note_on_c, 1, 43, 127
2, 23000, Note_on_c, 1, 52, 127
2, 23000, Note_on_c, 1, 64, 127
2, 23200, Note_off_c, 1, 31, 0
2, 23200, Note_off_c, 1, 43, 0
2, 23200, Note_off_c, 1, 52, 0
2, 23200, Note_off_c, 1, 64, 0
2, 23240, Note_on_c, 1, 31, 127
2, 23240, Note_on_c, 1, 43, 127
2, 23240, Note_on_c, 1, 52, 127
2, 23240, Note_on_c, 1, 64, 127
2, 23400, Note_off_c, 1, 31, 0
2, 23400, Note_off_c, 1, 43, 0
2, 23400, Note_off_c, 1, 52, 0
2, 23400, Note_off_c, 1, 64, 0
2, 23440, Note_on_c, 1, 33, 127
2, 23440, Note_on_c, 1, 45, 127
2, 23440, Note_on_c, 1, 54, 127
2, 23440, Note_on_c, 1, 60, 127
2, 23440, Note_on_c, 1, 64, 127
2, 23440, Note_on_c, 1, 66, 127
2, 23600, Note_off_c, 1, 33, 0
2, 23600, Note_off_c, 1, 45, 0
2, 23600, Note_off_c, 1, 54, 0
2, 23600, Note_off_c, 1, 60, 0
2, 23600, Note_off_c, 1, 64, 0
2, 23600, Note_off_c, 1, 66, 0
2, 23640, Note_on_c, 1, 33, 127
2, 23640, Note_on_c, 1, 45, 127
2, 23640, Note_on_c, 1, 54, 127
2, 23640, Note_on_c, 1, 60, 127
2, 23640, Note_on_c, 1, 64, 127
2, 23640, Note_on_c, 1, 66, 127
2, 23840, Note_off_c, 1, 33, 0
2, 23840, Note_off_c, 1, 45, 0
2, 23840, Note_off_c, 1, 54, 0
2, 23840, Note_off_c, 1, 60, 0
2, 23840, Note_off_c, 1, 64, 0
2, 23840, Note_off_c, 1, 66, 0
2, 23880, Note_on_c, 1, 45, 127
2, 23880, Note_on_c, 1, 50, 127
2, 23880, Note_on_c, 1, 57, 127
2, 23880, Note_on_c, 1, 65, 127
2, 23880, Note_on_c, 1, 69, 127
2, 23960, Note_off_c, 1, 45, 0
2, 23960, Note_off_c, 1, 50, 0
2, 23960, Note_off_c, 1, 57, 0
2, 23960, Note_off_c, 1, 65, 0
2, 23960, Note_off_c, 1, 69, 0
2, 24000, Note_on_c, 1, 45, 127
2, 24000, Note_on_c, 1, 50, 127
2, 24000, Note_on_c, 1, 57, 127
2, 24000, Note_on_c, 1, 65, 127
2, 24000, Note_on_c, 1, 69, 127
2, 24080, Note_off_c, 1, 45, 0
2, 24080, Note_off_c, 1, 50, 0
2, 24080, Note_off_c, 1, 57, 0
2, 24080, Note_off_c, 1, 65, 0
2, 24080, Note_off_c, 1, 69, 0
2, 24120, Note_on_c, 1, 38, 127
2, 24120, Note_on_c, 1, 45, 127
2, 24120, Note_on_c, 1, 50, 127
2, 24120, Note_on_c, 1, 89, 127
2, 24280, Note_off_c, 1, 38, 0
2, 24280, Note_off_c, 1, 45, 0
2, 24280, Note_off_c, 1, 50, 0
2, 24280, Note_off_c, 1, 89, 0
2, 24360, Note_on_c, 1, 44, 127
2, 24360, Note_on_c, 1, 51, 127
2, 24360, Note_on_c, 1, 63, 127
2, 24360, Note_on_c, 1, 68, 127
2, 24360, Note_on_c, 1, 73, 127
2, 24720, Note_off_c, 1, 44, 0
2, 24720, Note_off_c, 1, 51, 0
2, 24720, Note_off_c, 1, 63, 0
2, 24720, Note_off_c, 1, 68, 0
2, 24720, Note_off_c, 1, 73, 0
2, 24760, Note_on_c, 1, 46, 127
2, 24760, Note_on_c, 1, 84, 127
2, 24760, Note_on_c, 1, 88, 127
2, 24760, Note_on_c, 1, 91, 127
2, 24760, Note_on_c, 1, 96, 127
2, 24800, Note_off_c, 1, 46, 0
2, 24800, Note_on_c, 1, 50, 127
2, 24800, Note_on_c, 1, 53, 127
2, 24800, Note_on_c, 1, 56, 127
2, 24800, Note_on_c, 1, 58, 127
2, 24800, Note_on_c, 1, 79, 127
2, 24800, Note_off_c, 1, 84, 0
2, 24800, Note_off_c, 1, 88, 0
2, 24800, Note_off_c, 1, 91, 0
2, 24800, Note_off_c, 1, 96, 0
2, 24840, Note_on_c, 1, 46, 127
2, 24840, Note_off_c, 1, 50, 0
2, 24840, Note_on_c, 1, 51, 127
2, 24840, Note_off_c, 1, 53, 0
2, 24840, Note_off_c, 1, 56, 0
2, 24840, Note_off_c, 1, 58, 0
2, 24840, Note_on_c, 1, 60, 127
2, 24840, Note_on_c, 1, 70, 127
2, 24840, Note_on_c, 1, 72, 127
2, 24840, Note_off_c, 1, 79, 0
2, 24880, Note_off_c, 1, 51, 0
2, 24880, Note_on_c, 1, 58, 127
2, 24880, Note_off_c, 1, 60, 0
2, 24880, Note_off_c, 1, 70, 0
2, 24880, Note_off_c, 1, 72, 0
2, 24880, Note_on_c, 1, 76, 127
2, 24880, Note_on_c, 1, 79, 127
2, 24880, Note_on_c, 1, 86, 127
2, 24920, Note_off_c, 1, 46, 0
2, 24920, Note_off_c, 1, 58, 0
2, 24920, Note_off_c, 1, 76, 0
2, 24920, Note_off_c, 1, 79, 0
2, 24920, Note_off_c, 1, 86, 0
2, 25000, Note_on_c, 1, 46, 127
2, 25000, Note_on_c, 1, 50, 127
2, 25000, Note_on_c, 1, 55, 127
2, 25000, Note_on_c, 1, 62, 127
2, 25000, Note_on_c, 1, 74, 127
2, 25040, Note_off_c, 1, 62, 0
2, 25040, Note_off_c, 1, 74, 0
2, 25080, Note_on_c, 1, 62, 127
2, 25080, Note_on_c, 1, 74, 127
2, 25120, Note_off_c, 1, 62, 0
2, 25120, Note_off_c, 1, 74, 0
2, 25160, Note_off_c, 1, 46, 0
2, 25160, Note_off_c, 1, 50, 0
2, 25160, Note_off_c, 1, 55, 0
2, 25200, Note_on_c, 1, 55, 127
2, 25200, Note_on_c, 1, 60, 127
2, 25200, Note_on_c, 1, 67, 127
2, 25200, Note_on_c, 1, 76, 127
2, 25200, Note_on_c, 1, 79, 127
2, 25360, Note_off_c, 1, 55, 0
2, 25360, Note_off_c, 1, 60, 0
2, 25360, Note_off_c, 1, 67, 0
2, 25360, Note_off_c, 1, 76, 0
2, 25360, Note_off_c, 1, 79, 0
2, 25400, Note_on_c, 1, 47, 127
2, 25400, Note_on_c, 1, 67, 127
2, 25400, Note_on_c, 1, 76, 127
2, 25400, Note_on_c, 1, 79, 127
2, 25600, Note_off_c, 1, 47, 0
2, 25600, Note_off_c, 1, 67, 0
2, 25600, Note_off_c, 1, 76, 0
2, 25600, Note_off_c, 1, 79, 0
2, 25640, Note_on_c, 1, 47, 127
2, 25640, Note_on_c, 1, 59, 127
2, 25640, Note_on_c, 1, 64, 127
2, 25640, Note_on_c, 1, 67, 127
2, 25640, Note_on_c, 1, 71, 127
2, 25800, Note_off_c, 1, 47, 0
2, 25800, Note_off_c, 1, 59, 0
2, 25800, Note_off_c, 1, 64, 0
2, 25800, Note_off_c, 1, 67, 0
2, 25800, Note_off_c, 1, 71, 0
2, 25840, Note_on_c, 1, 47, 127
2, 25840, Note_on_c, 1, 59, 127
2, 25840, Note_on_c, 1, 68, 127
2, 25840, Note_on_c, 1, 73, 127
2, 25840, Note_on_c, 1, 77, 127
2, 25840, Note_on_c, 1, 80, 127
2, 25920, Note_off_c, 1, 47, 0
2, 25920, Note_off_c, 1, 59, 0
2, 25920, Note_on_c, 1, 67, 127
2, 25920, Note_off_c, 1, 68, 0
2, 25920, Note_on_c, 1, 71, 127
2, 25920, Note_off_c, 1, 73, 0
2, 25920, Note_off_c, 1, 80, 0
2, 25920, Note_on_c, 1, 89, 127
2, 25920, Note_on_c, 1, 100, 127
2, 25960, Note_off_c, 1, 67, 0
2, 25960, Note_off_c, 1, 71, 0
2, 25960, Note_off_c, 1, 77, 0
2, 25960, Note_off_c, 1, 89, 0
2, 25960, Note_off_c, 1, 100, 0
2, 26000, Note_on_c, 1, 47, 127
2, 26000, Note_on_c, 1, 59, 127
2, 26000, Note_on_c, 1, 68, 127
2, 26000, Note_on_c, 1, 73, 127
2, 26000, Note_on_c, 1, 77, 127
2, 26000, Note_on_c, 1, 80, 127
2, 26040, Note_off_c, 1, 47, 0
2, 26040, Note_off_c, 1, 59, 0
2, 26040, Note_off_c, 1, 68, 0
2, 26040, Note_off_c, 1, 73, 0
2, 26040, Note_off_c, 1, 77, 0
2, 26040, Note_off_c, 1, 80, 0
2, 26080, Note_on_c, 1, 59, 127
2, 26080, Note_on_c, 1, 63, 127
2, 26080, Note_on_c, 1, 71, 127
2, 26080, Note_on_c, 1, 75, 127
2, 26080, Note_on_c, 1, 83, 127
2, 26080, Note_on_c, 1, 87, 127
2, 26280, Note_off_c, 1, 59, 0
2, 26280, Note_off_c, 1, 63, 0
2, 26280, Note_off_c, 1, 71, 0
2, 26280, Note_off_c, 1, 75, 0
2, 26280, Note_off_c, 1, 83, 0
2, 26280, Note_off_c, 1, 87, 0
2, 26320, Note_on_c, 1, 39, 127
2, 26320, Note_on_c, 1, 51, 127
2, 26320, Note_on_c, 1, 63, 127
2, 26320, Note_on_c, 1, 71, 127
2, 26320, Note_on_c, 1, 75, 127
2, 26360, Note_on_c, 1, 38, 127
2, 26360, Note_off_c, 1, 39, 0
2, 26360, Note_on_c, 1, 50, 127
2, 26360, Note_off_c, 1, 51, 0
2, 26360, Note_off_c, 1, 63, 0
2, 26360, Note_off_c, 1, 75, 0
2, 26360, Note_on_c, 1, 77, 127
2, 26360, Note_on_c, 1, 83, 127
2, 26400, Note_off_c, 1, 38, 0
2, 26400, Note_off_c, 1, 50, 0
2, 26400, Note_on_c, 1, 65, 127
2, 26400, Note_on_c, 1, 68, 127
2, 26400, Note_off_c, 1, 71, 0
2, 26400, Note_on_c, 1, 72, 127
2, 26400, Note_off_c, 1, 83, 0
2, 26400, Note_on_c, 1, 86, 127
2, 26440, Note_on_c, 1, 53, 127
2, 26440, Note_off_c, 1, 68, 0
2, 26440, Note_on_c, 1, 69, 127
2, 26440, Note_off_c, 1, 72, 0
2, 26440, Note_off_c, 1, 77, 0
2, 26440, Note_on_c, 1, 78, 127
2, 26440, Note_off_c, 1, 86, 0
2, 26480, Note_off_c, 1, 53, 0
2, 26480, Note_off_c, 1, 65, 0
2, 26480, Note_off_c, 1, 69, 0
2, 26480, Note_off_c, 1, 78, 0
2, 26520, Note_on_c, 1, 49, 127
2, 26520, Note_on_c, 1, 76, 127
2, 26520, Note_on_c, 1, 78, 127
2, 26520, Note_on_c, 1, 82, 127
2, 26680, Note_off_c, 1, 49, 0
2, 26680, Note_off_c, 1, 76, 0
2, 26680, Note_on_c, 1, 77, 127
2, 26680, Note_off_c, 1, 78, 0
2, 26680, Note_off_c, 1, 82, 0
2, 26680, Note_on_c, 1, 86, 127
2, 26680, Note_on_c, 1, 89, 127
2, 26720, Note_on_c, 1, 49, 127
2, 26720, Note_on_c, 1, 76, 127
2, 26720, Note_off_c, 1, 77, 0
2, 26720, Note_on_c, 1, 78, 127
2, 26720, Note_on_c, 1, 82, 127
2, 26720, Note_off_c, 1, 86, 0
2, 26720, Note_off_c, 1, 89, 0
2, 26920, Note_off_c, 1, 49, 0
2, 26920, Note_off_c, 1, 76, 0
2, 26920, Note_off_c, 1, 78, 0
2, 26920, Note_off_c, 1, 82, 0
2, 26960, Note_on_c, 1, 46, 127
2, 26960, Note_on_c, 1, 52, 127
2, 26960, Note_on_c, 1, 74, 127
2, 26960, Note_on_c, 1, 79, 127
2, 27320, Note_off_c, 1, 46, 0
2, 27320, Note_off_c, 1, 52, 0
2, 27320, Note_off_c, 1, 74, 0
2, 27320, Note_off_c, 1, 79, 0
2, 27360, Note_on_c, 1, 32, 127
2, 27360, Note_on_c, 1, 44, 127
2, 27360, Note_on_c, 1, 55, 127
2, 27360, Note_on_c, 1, 67, 127
2, 27400, Note_off_c, 1, 32, 0
2, 27400, Note_off_c, 1, 44, 0
2, 27400, Note_on_c, 1, 51, 127
2, 27400, Note_on_c, 1, 54, 127
2, 27400, Note_off_c, 1, 55, 0
2, 27400, Note_on_c, 1, 63, 127
2, 27400, Note_off_c, 1, 67, 0
2, 27400, Note_on_c, 1, 79, 127
2, 27400, Note_on_c, 1, 83, 127
2, 27440, Note_off_c, 1, 51, 0
2, 27440, Note_off_c, 1, 54, 0
2, 27440, Note_off_c, 1, 63, 0
2, 27440, Note_off_c, 1, 79, 0
2, 27440, Note_off_c, 1, 83, 0
2, 27480, Note_on_c, 1, 37, 127
2, 27480, Note_on_c, 1, 49, 127
2, 27480, Note_on_c, 1, 63, 127
2, 27480, Note_on_c, 1, 70, 127
2, 27480, Note_on_c, 1, 75, 127
2, 27520, Note_off_c, 1, 37, 0
2, 27520, Note_off_c, 1, 49, 0
2, 27520, Note_on_c, 1, 53, 127
2, 27520, Note_on_c, 1, 56, 127
2, 27520, Note_off_c, 1, 63, 0
2, 27520, Note_off_c, 1, 75, 0
2, 27520, Note_on_c, 1, 80, 127
2, 27560, Note_off_c, 1, 53, 0
2, 27560, Note_off_c, 1, 56, 0
2, 27560, Note_off_c, 1, 70, 0
2, 27560, Note_off_c, 1, 80, 0
2, 27600, Note_on_c, 1, 45, 127
2, 27600, Note_on_c, 1, 57, 127
2, 27600, Note_on_c, 1, 63, 127
2, 27600, Note_on_c, 1, 72, 127
2, 27600, Note_on_c, 1, 75, 127
2, 27760, Note_off_c, 1, 45, 0
2, 27760, Note_off_c, 1, 57, 0
2, 27760, Note_off_c, 1, 63, 0
2, 27760, Note_off_c, 1, 72, 0
2, 27760, Note_off_c, 1, 75, 0
2, 27840, Note_on_c, 1, 45, 127
2, 27840, Note_on_c, 1, 63, 127
2, 27840, Note_on_c, 1, 72, 127
2, 27840, Note_on_c, 1, 75, 127
2, 28000, Note_off_c, 1, 45, 0
2, 28000, Note_off_c, 1, 63, 0
2, 28000, Note_off_c, 1, 72, 0
2, 28000, Note_off_c, 1, 75, 0
2, 28040, Note_on_c, 1, 45, 127
2, 28040, Note_on_c, 1, 57, 127
2, 28040, Note_on_c, 1, 69, 127
2, 28040, Note_on_c, 1, 72, 127
2, 28040, Note_on_c, 1, 76, 127
2, 28040, Note_on_c, 1, 81, 127
2, 28120, Note_on_c, 1, 40, 127
2, 28120, Note_off_c, 1, 45, 0
2, 28120, Note_on_c, 1, 52, 127
2, 28120, Note_off_c, 1, 57, 0
2, 28120, Note_on_c, 1, 67, 127
2, 28120, Note_off_c, 1, 69, 0
2, 28120, Note_on_c, 1, 71, 127
2, 28120, Note_off_c, 1, 72, 0
2, 28120, Note_on_c, 1, 79, 127
2, 28120, Note_off_c, 1, 81, 0
2, 28240, Note_off_c, 1, 40, 0
2, 28240, Note_off_c, 1, 52, 0
2, 28240, Note_off_c, 1, 67, 0
2, 28240, Note_off_c, 1, 71, 0
2, 28240, Note_off_c, 1, 76, 0
2, 28240, Note_off_c, 1, 79, 0
2, 28280, Note_on_c, 1, 37, 127
2, 28280, Note_on_c, 1, 58, 127
2, 28280, Note_on_c, 1, 65, 127
2, 28280, Note_on_c, 1, 68, 127
2, 28440, Note_off_c, 1, 37, 0
2, 28440, Note_off_c, 1, 58, 0
2, 28440, Note_off_c, 1, 65, 0
2, 28440, Note_off_c, 1, 68, 0
2, 28480, Note_on_c, 1, 42, 127
2, 28480, Note_on_c, 1, 48, 127
2, 28480, Note_on_c, 1, 51, 127
2, 28480, Note_on_c, 1, 63, 127
2, 28480, Note_on_c, 1, 72, 127
2, 28480, Note_on_c, 1, 75, 127
2, 28640, Note_off_c, 1, 42, 0
2, 28640, Note_off_c, 1, 48, 0
2, 28640, Note_off_c, 1, 51, 0
2, 28640, Note_off_c, 1, 63, 0
2, 28640, Note_off_c, 1, 72, 0
2, 28640, Note_off_c, 1, 75, 0
2, 28680, Note_on_c, 1, 42, 127
2, 28680, Note_on_c, 1, 54, 127
2, 28680, Note_on_c, 1, 73, 127
2, 28680, Note_on_c, 1, 80, 127
2, 28680, Note_on_c, 1, 85, 127
2, 28880, Note_off_c, 1, 42, 0
2, 28880, Note_off_c, 1, 54, 0
2, 28880, Note_off_c, 1, 73, 0
2, 28880, Note_off_c, 1, 80, 0
2, 28880, Note_off_c, 1, 85, 0
2, 28920, Note_on_c, 1, 39, 127
2, 28920, Note_on_c, 1, 44, 127
2, 28920, Note_on_c, 1, 63, 127
2, 28920, Note_on_c, 1, 75, 127
2, 29080, Note_off_c, 1, 39, 0
2, 29080, Note_off_c, 1, 44, 0
2, 29080, Note_off_c, 1, 63, 0
2, 29080, Note_off_c, 1, 75, 0
2, 29120, Note_on_c, 1, 42, 127
2, 29120, Note_on_c, 1, 54, 127
2, 29120, Note_on_c, 1, 73, 127
2, 29120, Note_on_c, 1, 78, 127
2, 29120, Note_on_c, 1, 81, 127
2, 29120, Note_on_c, 1, 85, 127
2, 29280, Note_off_c, 1, 42, 0
2, 29280, Note_off_c, 1, 54, 0
2, 29280, Note_off_c, 1, 73, 0
2, 29280, Note_off_c, 1, 78, 0
2, 29280, Note_off_c, 1, 81, 0
2, 29280, Note_off_c, 1, 85, 0
2, 29320, Note_on_c, 1, 40, 127
2, 29320, Note_on_c, 1, 52, 127
2, 29320, Note_on_c, 1, 82, 127
2, 29320, Note_on_c, 1, 85, 127
2, 29320, Note_on_c, 1, 94, 127
2, 29520, Note_off_c, 1, 40, 0
2, 29520, Note_off_c, 1, 52, 0
2, 29520, Note_off_c, 1, 82, 0
2, 29520, Note_off_c, 1, 85, 0
2, 29520, Note_off_c, 1, 94, 0
2, 29560, Note_on_c, 1, 39, 127
2, 29560, Note_on_c, 1, 51, 127
2, 29560, Note_on_c, 1, 58, 127
2, 29560, Note_on_c, 1, 63, 127
2, 29560, Note_on_c, 1, 67, 127
2, 29720, Note_off_c, 1, 39, 0
2, 29720, Note_off_c, 1, 51, 0
2, 29720, Note_off_c, 1, 58, 0
2, 29720, Note_off_c, 1, 63, 0
2, 29720, Note_off_c, 1, 67, 0
2, 29800, Note_on_c, 1, 39, 127
2, 29800, Note_on_c, 1, 51, 127
2, 29800, Note_on_c, 1, 60, 127
2, 29800, Note_on_c, 1, 63, 127
2, 29800, Note_on_c, 1, 68, 127
2, 29960, Note_off_c, 1, 39, 0
2, 29960, Note_off_c, 1, 51, 0
2, 29960, Note_off_c, 1, 60, 0
2, 29960, Note_off_c, 1, 63, 0
2, 29960, Note_off_c, 1, 68, 0
2, 30040, Note_on_c, 1, 39, 127
2, 30040, Note_on_c, 1, 51, 127
2, 30040, Note_on_c, 1, 60, 127
2, 30040, Note_on_c, 1, 63, 127
2, 30040, Note_on_c, 1, 68, 127
2, 30200, Note_off_c, 1, 39, 0
2, 30200, Note_off_c, 1, 51, 0
2, 30200, Note_off_c, 1, 60, 0
2, 30200, Note_off_c, 1, 63, 0
2, 30200, Note_off_c, 1, 68, 0
2, 30240, Note_on_c, 1, 39, 127
2, 30240, Note_on_c, 1, 51, 127
2, 30240, Note_on_c, 1, 58, 127
2, 30240, Note_on_c, 1, 63, 127
2, 30240, Note_on_c, 1, 67, 127
2, 30400, Note_off_c, 1, 39, 0
2, 30400, Note_off_c, 1, 51, 0
2, 30400, Note_off_c, 1, 58, 0
2, 30400, Note_off_c, 1, 63, 0
2, 30400, Note_off_c, 1, 67, 0
2, 30440, Note_on_c, 1, 49, 127
2, 30440, Note_on_c, 1, 56, 127
2, 30440, Note_on_c, 1, 61, 127
2, 30440, Note_on_c, 1, 65, 127
2, 30440, Note_on_c, 1, 68, 127
2, 30440, Note_on_c, 1, 77, 127
2, 30600, Note_off_c, 1, 49, 0
2, 30600, Note_off_c, 1, 56, 0
2, 30600, Note_off_c, 1, 61, 0
2, 30600, Note_off_c, 1, 65, 0
2, 30600, Note_off_c, 1, 68, 0
2, 30600, Note_off_c, 1, 77, 0
2, 30680, Note_on_c, 1, 48, 127
2, 30680, Note_on_c, 1, 56, 127
2, 30680, Note_on_c, 1, 60, 127
2, 30680, Note_on_c, 1, 63, 127
2, 30680, Note_on_c, 1, 68, 127
2, 30680, Note_on_c, 1, 75, 127
2, 31040, Note_off_c, 1, 48, 0
2, 31040, Note_off_c, 1, 56, 0
2, 31040, Note_off_c, 1, 60, 0
2, 31040, Note_off_c, 1, 63, 0
2, 31040, Note_off_c, 1, 68, 0
2, 31040, Note_off_c, 1, 75, 0
2, 31080, Note_on_c, 1, 48, 127
2, 31080, Note_on_c, 1, 56, 127
2, 31080, Note_on_c, 1, 60, 127
2, 31080, Note_on_c, 1, 63, 127
2, 31080, Note_on_c, 1, 68, 127
2, 31080, Note_on_c, 1, 75, 127
2, 31280, Note_off_c, 1, 48, 0
2, 31280, Note_off_c, 1, 56, 0
2, 31280, Note_off_c, 1, 60, 0
2, 31280, Note_off_c, 1, 63, 0
2, 31280, Note_off_c, 1, 68, 0
2, 31280, Note_off_c, 1, 75, 0
2, 31320, Note_on_c, 1, 49, 127
2, 31320, Note_on_c, 1, 56, 127
2, 31320, Note_on_c, 1, 61, 127
2, 31320, Note_on_c, 1, 65, 127
2, 31320, Note_on_c, 1, 68, 127
2, 31320, Note_on_c, 1, 77, 127
2, 31480, Note_off_c, 1, 49, 0
2, 31480, Note_off_c, 1, 56, 0
2, 31480, Note_off_c, 1, 61, 0
2, 31480, Note_off_c, 1, 65, 0
2, 31480, Note_off_c, 1, 68, 0
2, 31480, Note_off_c, 1, 77, 0
2, 31520, Note_on_c, 1, 49, 127
2, 31520, Note_on_c, 1, 56, 127
2, 31520, Note_on_c, 1, 61, 127
2, 31520, Note_on_c, 1, 65, 127
2, 31520, Note_on_c, 1, 68, 127
2, 31520, Note_on_c, 1, 77, 127
2, 31680, Note_off_c, 1, 49, 0
2, 31680, Note_off_c, 1, 56, 0
2, 31680, Note_off_c, 1, 61, 0
2, 31680, Note_off_c, 1, 65, 0
2, 31680, Note_off_c, 1, 68, 0
2, 31680, Note_off_c, 1, 77, 0
2, 31720, Note_on_c, 1, 54, 127
2, 31720, Note_on_c, 1, 61, 127
2, 31720, Note_on_c, 1, 64, 127
2, 31720, Note_on_c, 1, 66, 127
2, 31720, Note_on_c, 1, 70, 127
2, 31720, Note_on_c, 1, 78, 127
2, 31880, Note_off_c, 1, 54, 0
2, 31880, Note_off_c, 1, 61, 0
2, 31880, Note_off_c, 1, 64, 0
2, 31880, Note_off_c, 1, 66, 0
2, 31880, Note_off_c, 1, 70, 0
2, 31880, Note_off_c, 1, 78, 0
2, 32000, Note_on_c, 1, 54, 127
2, 32000, Note_on_c, 1, 61, 127
2, 32000, Note_on_c, 1, 64, 127
2, 32000, Note_on_c, 1, 66, 127
2, 32000, Note_on_c, 1, 70, 127
2, 32000, Note_on_c, 1, 78, 127
2, 32160, Note_off_c, 1, 54, 0
2, 32160, Note_off_c, 1, 61, 0
2, 32160, Note_off_c, 1, 64, 0
2, 32160, Note_off_c, 1, 66, 0
2, 32160, Note_off_c, 1, 70, 0
2, 32160, Note_off_c, 1, 78, 0
2, 32200, Note_on_c, 1, 54, 127
2, 32200, Note_on_c, 1, 61, 127
2, 32200, Note_on_c, 1, 66, 127
2, 32200, Note_on_c, 1, 70, 127
2, 32200, Note_on_c, 1, 73, 127
2, 32200, Note_on_c, 1, 82, 127
2, 32360, Note_off_c, 1, 54, 0
2, 32360, Note_off_c, 1, 61, 0
2, 32360, Note_off_c, 1, 66, 0
2, 32360, Note_off_c, 1, 70, 0
2, 32360, Note_off_c, 1, 73, 0
2, 32360, Note_off_c, 1, 82, 0
2, 32400, Note_on_c, 1, 54, 127
2, 32400, Note_on_c, 1, 61, 127
2, 32400, Note_on_c, 1, 66, 127
2, 32400, Note_on_c, 1, 70, 127
2, 32400, Note_on_c, 1, 73, 127
2, 32400, Note_on_c, 1, 82, 127
2, 32480, Note_on_c, 1, 53, 127
2, 32480, Note_off_c, 1, 54, 0
2, 32480, Note_on_c, 1, 65, 127
2, 32480, Note_off_c, 1, 66, 0
2, 32480, Note_on_c, 1, 68, 127
2, 32480, Note_off_c, 1, 70, 0
2, 32480, Note_on_c, 1, 80, 127
2, 32480, Note_off_c, 1, 82, 0
2, 32520, Note_off_c, 1, 53, 0
2, 32520, Note_on_c, 1, 54, 127
2, 32520, Note_off_c, 1, 65, 0
2, 32520, Note_on_c, 1, 66, 127
2, 32520, Note_off_c, 1, 68, 0
2, 32520, Note_on_c, 1, 70, 127
2, 32520, Note_off_c, 1, 80, 0
2, 32520, Note_on_c, 1, 82, 127
2, 32560, Note_off_c, 1, 54, 0
2, 32560, Note_off_c, 1, 61, 0
2, 32560, Note_off_c, 1, 66, 0
2, 32560, Note_off_c, 1, 70, 0
2, 32560, Note_off_c, 1, 73, 0
2, 32560, Note_off_c, 1, 82, 0
2, 32640, Note_on_c, 1, 54, 127
2, 32640, Note_on_c, 1, 61, 127
2, 32640, Note_on_c, 1, 66, 127
2, 32640, Note_on_c, 1, 70, 127
2, 32640, Note_on_c, 1, 73, 127
2, 32640, Note_on_c, 1, 82, 127
2, 32800, Note_off_c, 1, 54, 0
2, 32800, Note_off_c, 1, 61, 0
2, 32800, Note_off_c, 1, 66, 0
2, 32800, Note_off_c, 1, 70, 0
2, 32800, Note_off_c, 1, 73, 0
2, 32800, Note_off_c, 1, 82, 0
2, 32840, Note_on_c, 1, 54, 127
2, 32840, Note_on_c, 1, 61, 127
2, 32840, Note_on_c, 1, 66, 127
2, 32840, Note_on_c, 1, 70, 127
2, 32840, Note_on_c, 1, 73, 127
2, 32840, Note_on_c, 1, 82, 127
2, 33000, Note_off_c, 1, 54, 0
2, 33000, Note_off_c, 1, 61, 0
2, 33000, Note_off_c, 1, 66, 0
2, 33000, Note_off_c, 1, 70, 0
2, 33000, Note_off_c, 1, 73, 0
2, 33000, Note_off_c, 1, 82, 0
2, 33040, Note_on_c, 1, 53, 127
2, 33040, Note_on_c, 1, 62, 127
2, 33040, Note_on_c, 1, 65, 127
2, 33040, Note_on_c, 1, 70, 127
2, 33040, Note_on_c, 1, 74, 127
2, 33040, Note_on_c, 1, 82, 127
2, 33240, Note_off_c, 1, 53, 0
2, 33240, Note_off_c, 1, 62, 0
2, 33240, Note_off_c, 1, 65, 0
2, 33240, Note_off_c, 1, 70, 0
2, 33240, Note_off_c, 1, 74, 0
2, 33240, Note_off_c, 1, 82, 0
2, 33280, Note_on_c, 1, 53, 127
2, 33280, Note_on_c, 1, 62, 127
2, 33280, Note_on_c, 1, 65, 127
2, 33280, Note_on_c, 1, 70, 127
2, 33280, Note_on_c, 1, 74, 127
2, 33280, Note_on_c, 1, 82, 127
2, 33440, Note_off_c, 1, 53, 0
2, 33440, Note_off_c, 1, 62, 0
2, 33440, Note_off_c, 1, 65, 0
2, 33440, Note_off_c, 1, 70, 0
2, 33440, Note_off_c, 1, 74, 0
2, 33440, Note_off_c, 1, 82, 0
2, 33480, Note_on_c, 1, 53, 127
2, 33480, Note_on_c, 1, 62, 127
2, 33480, Note_on_c, 1, 65, 127
2, 33480, Note_on_c, 1, 70, 127
2, 33480, Note_on_c, 1, 74, 127
2, 33480, Note_on_c, 1, 82, 127
2, 33640, Note_off_c, 1, 53, 0
2, 33640, Note_off_c, 1, 62, 0
2, 33640, Note_off_c, 1, 65, 0
2, 33640, Note_off_c, 1, 70, 0
2, 33640, Note_off_c, 1, 74, 0
2, 33640, Note_off_c, 1, 82, 0
2, 33720, Note_on_c, 1, 53, 127
2, 33720, Note_on_c, 1, 62, 127
2, 33720, Note_on_c, 1, 65, 127
2, 33720, Note_on_c, 1, 70, 127
2, 33720, Note_on_c, 1, 74, 127
2, 33720, Note_on_c, 1, 82, 127
2, 33880, Note_off_c, 1, 53, 0
2, 33880, Note_off_c, 1, 62, 0
2, 33880, Note_off_c, 1, 65, 0
2, 33880, Note_off_c, 1, 70, 0
2, 33880, Note_off_c, 1, 74, 0
2, 33880, Note_on_c, 1, 78, 127
2, 33880, Note_off_c, 1, 82, 0
2, 33920, Note_on_c, 1, 53, 127
2, 33920, Note_on_c, 1, 62, 127
2, 33920, Note_on_c, 1, 65, 127
2, 33920, Note_on_c, 1, 70, 127
2, 33920, Note_on_c, 1, 74, 127
2, 33920, Note_off_c, 1, 78, 0
2, 33920, Note_on_c, 1, 82, 127
2, 34080, Note_off_c, 1, 53, 0
2, 34080, Note_off_c, 1, 62, 0
2, 34080, Note_off_c, 1, 65, 0
2, 34080, Note_off_c, 1, 70, 0
2, 34080, Note_off_c, 1, 74, 0
2, 34080, Note_off_c, 1, 82, 0
2, 34160, Note_on_c, 1, 53, 127
2, 34160, Note_on_c, 1, 62, 127
2, 34160, Note_on_c, 1, 65, 127
2, 34160, Note_on_c, 1, 70, 127
2, 34160, Note_on_c, 1, 74, 127
2, 34160, Note_on_c, 1, 82, 127
2, 34320, Note_off_c, 1, 53, 0
2, 34320, Note_off_c, 1, 62, 0
2, 34320, Note_off_c, 1, 65, 0
2, 34320, Note_off_c, 1, 70, 0
2, 34320, Note_off_c, 1, 74, 0
2, 34320, Note_off_c, 1, 82, 0
2, 34400, Note_on_c, 1, 53, 127
2, 34400, Note_on_c, 1, 62, 127
2, 34400, Note_on_c, 1, 65, 127
2, 34400, Note_on_c, 1, 70, 127
2, 34400, Note_on_c, 1, 74, 127
2, 34400, Note_on_c, 1, 82, 127
2, 34560, Note_off_c, 1, 53, 0
2, 34560, Note_off_c, 1, 62, 0
2, 34560, Note_off_c, 1, 65, 0
2, 34560, Note_off_c, 1, 70, 0
2, 34560, Note_off_c, 1, 74, 0
2, 34560, Note_off_c, 1, 82, 0
2, 34600, Note_on_c, 1, 53, 127
2, 34600, Note_on_c, 1, 62, 127
2, 34600, Note_on_c, 1, 65, 127
2, 34600, Note_on_c, 1, 70, 127
2, 34600, Note_on_c, 1, 74, 127
2, 34600, Note_on_c, 1, 82, 127
2, 34760, Note_off_c, 1, 53, 0
2, 34760, Note_off_c, 1, 62, 0
2, 34760, Note_off_c, 1, 65, 0
2, 34760, Note_off_c, 1, 70, 0
2, 34760, Note_off_c, 1, 74, 0
2, 34760, Note_off_c, 1, 82, 0
2, 34800, Note_on_c, 1, 53, 127
2, 34800, Note_on_c, 1, 62, 127
2, 34800, Note_on_c, 1, 65, 127
2, 34800, Note_on_c, 1, 70, 127
2, 34800, Note_on_c, 1, 74, 127
2, 34800, Note_on_c, 1, 82, 127
2, 34960, Note_off_c, 1, 53, 0
2, 34960, Note_off_c, 1, 62, 0
2, 34960, Note_off_c, 1, 65, 0
2, 34960, Note_off_c, 1, 70, 0
2, 34960, Note_off_c, 1, 74, 0
2, 34960, Note_off_c, 1, 82, 0
2, 35040, Note_on_c, 1, 53, 127
2, 35040, Note_on_c, 1, 62, 127
2, 35040, Note_on_c, 1, 65, 127
2, 35040, Note_on_c, 1, 70, 127
2, 35040, Note_on_c, 1, 74, 127
2, 35040, Note_on_c, 1, 82, 127
2, 35200, Note_off_c, 1, 53, 0
2, 35200, Note_off_c, 1, 62, 0
2, 35200, Note_off_c, 1, 65, 0
2, 35200, Note_off_c, 1, 70, 0
2, 35200, Note_off_c, 1, 74, 0
2, 35200, Note_off_c, 1, 82, 0
2, 35240, Note_on_c, 1, 53, 127
2, 35240, Note_on_c, 1, 62, 127
2, 35240, Note_on_c, 1, 65, 127
2, 35240, Note_on_c, 1, 70, 127
2, 35240, Note_on_c, 1, 74, 127
2, 35240, Note_on_c, 1, 82, 127
2, 35400, Note_off_c, 1, 53, 0
2, 35400, Note_off_c, 1, 62, 0
2, 35400, Note_off_c, 1, 65, 0
2, 35400, Note_off_c, 1, 70, 0
2, 35400, Note_off_c, 1, 74, 0
2, 35400, Note_off_c, 1, 82, 0
2, 35440, Note_on_c, 1, 53, 127
2, 35440, Note_on_c, 1, 62, 127
2, 35440, Note_on_c, 1, 65, 127
2, 35440, Note_on_c, 1, 70, 127
2, 35440, Note_on_c, 1, 74, 127
2, 35440, Note_on_c, 1, 82, 127
2, 35600, Note_off_c, 1, 53, 0
2, 35600, Note_off_c, 1, 62, 0
2, 35600, Note_off_c, 1, 65, 0
2, 35600, Note_off_c, 1, 70, 0
2, 35600, Note_off_c, 1, 74, 0
2, 35600, Note_off_c, 1, 82, 0
2, 35680, Note_on_c, 1, 53, 127
2, 35680, Note_on_c, 1, 62, 127
2, 35680, Note_on_c, 1, 65, 127
2, 35680, Note_on_c, 1, 70, 127
2, 35680, Note_on_c, 1, 74, 127
2, 35680, Note_on_c, 1, 82, 127
2, 35840, Note_off_c, 1, 53, 0
2, 35840, Note_off_c, 1, 62, 0
2, 35840, Note_off_c, 1, 65, 0
2, 35840, Note_off_c, 1, 70, 0
2, 35840, Note_off_c, 1, 74, 0
2, 35840, Note_off_c, 1, 82, 0
2, 36080, Note_on_c, 1, 73, 127
2, 36240, Note_off_c, 1, 73, 0
2, 36280, Note_on_c, 1, 73, 127
2, 36360, Note_on_c, 1, 49, 127
2, 36360, Note_on_c, 1, 56, 127
2, 36360, Note_on_c, 1, 61, 127
2, 36360, Note_on_c, 1, 65, 127
2, 36520, Note_off_c, 1, 49, 0
2, 36520, Note_off_c, 1, 56, 0
2, 36520, Note_off_c, 1, 61, 0
2, 36520, Note_off_c, 1, 65, 0
2, 36520, Note_off_c, 1, 73, 0
2, 36760, Note_on_c, 1, 49, 127
2, 36760, Note_on_c, 1, 56, 127
2, 36760, Note_on_c, 1, 61, 127
2, 36760, Note_on_c, 1, 65, 127
2, 36760, Note_on_c, 1, 68, 127
2, 37400, Note_off_c, 1, 49, 0
2, 37400, Note_off_c, 1, 56, 0
2, 37400, Note_off_c, 1, 61, 0
2, 37400, Note_off_c, 1, 65, 0
2, 37400, Note_off_c, 1, 68, 0
2, 37440, Note_on_c, 1, 58, 127
2, 37440, Note_on_c, 1, 61, 127
2, 37440, Note_on_c, 1, 65, 127
2, 37440, Note_on_c, 1, 70, 127
2, 38040, Note_off_c, 1, 58, 0
2, 38040, Note_off_c, 1, 61, 0
2, 38040, Note_off_c, 1, 65, 0
2, 38040, Note_off_c, 1, 70, 0
2, 38080, Note_on_c, 1, 54, 127
2, 38080, Note_on_c, 1, 66, 127
2, 38240, Note_off_c, 1, 54, 0
2, 38240, Note_off_c, 1, 66, 0
2, 38360, Note_on_c, 1, 47, 127
2, 38360, Note_on_c, 1, 54, 127
2, 38360, Note_on_c, 1, 59, 127
2, 38360, Note_on_c, 1, 63, 127
2, 38360, Note_on_c, 1, 66, 127
2, 38360, Note_on_c, 1, 75, 127
2, 38640, Note_off_c, 1, 47, 0
2, 38640, Note_off_c, 1, 54, 0
2, 38640, Note_off_c, 1, 59, 0
2, 38640, Note_off_c, 1, 63, 0
2, 38640, Note_off_c, 1, 66, 0
2, 38640, Note_off_c, 1, 75, 0
2, 38760, Note_on_c, 1, 47, 127
2, 38760, Note_on_c, 1, 54, 127
2, 38760, Note_on_c, 1, 59, 127
2, 38760, Note_on_c, 1, 63, 127
2, 38760, Note_on_c, 1, 66, 127
2, 38760, Note_on_c, 1, 75, 127
2, 39160, Note_off_c, 1, 47, 0
2, 39160, Note_off_c, 1, 54, 0
2, 39160, Note_off_c, 1, 59, 0
2, 39160, Note_off_c, 1, 63, 0
2, 39160, Note_off_c, 1, 66, 0
2, 39160, Note_off_c, 1, 75, 0
2, 39200, Note_on_c, 1, 51, 127
2, 39200, Note_on_c, 1, 63, 127
2, 39200, Note_on_c, 1, 71, 127
2, 39200, Note_on_c, 1, 78, 127
2, 39360, Note_off_c, 1, 51, 0
2, 39360, Note_off_c, 1, 63, 0
2, 39360, Note_off_c, 1, 71, 0
2, 39360, Note_off_c, 1, 78, 0
2, 39400, Note_on_c, 1, 47, 127
2, 39400, Note_on_c, 1, 59, 127
2, 39400, Note_on_c, 1, 71, 127
2, 39400, Note_on_c, 1, 75, 127
2, 39560, Note_off_c, 1, 71, 0
2, 39560, Note_off_c, 1, 75, 0
2, 39600, Note_off_c, 1, 47, 0
2, 39600, Note_off_c, 1, 59, 0
2, 39640, Note_on_c, 1, 47, 127
2, 39640, Note_on_c, 1, 59, 127
2, 39640, Note_on_c, 1, 71, 127
2, 39640, Note_on_c, 1, 75, 127
2, 39800, Note_off_c, 1, 47, 0
2, 39800, Note_off_c, 1, 59, 0
2, 39800, Note_off_c, 1, 71, 0
2, 39800, Note_off_c, 1, 75, 0
2, 39840, Note_on_c, 1, 47, 127
2, 39840, Note_on_c, 1, 59, 127
2, 39840, Note_on_c, 1, 71, 127
2, 39840, Note_on_c, 1, 75, 127
2, 40000, Note_off_c, 1, 47, 0
2, 40000, Note_off_c, 1, 59, 0
2, 40000, Note_off_c, 1, 71, 0
2, 40000, Note_off_c, 1, 75, 0
2, 40040, Note_on_c, 1, 51, 127
2, 40040, Note_on_c, 1, 63, 127
2, 40040, Note_on_c, 1, 71, 127
2, 40040, Note_on_c, 1, 78, 127
2, 40240, Note_off_c, 1, 51, 0
2, 40240, Note_off_c, 1, 63, 0
2, 40240, Note_off_c, 1, 71, 0
2, 40240, Note_off_c, 1, 78, 0
2, 40280, Note_on_c, 1, 47, 127
2, 40280, Note_on_c, 1, 59, 127
2, 40280, Note_on_c, 1, 71, 127
2, 40280, Note_on_c, 1, 75, 127
2, 40440, Note_off_c, 1, 47, 0
2, 40440, Note_off_c, 1, 59, 0
2, 40440, Note_off_c, 1, 71, 0
2, 40440, Note_off_c, 1, 75, 0
2, 40520, Note_on_c, 1, 47, 127
2, 40520, Note_on_c, 1, 59, 127
2, 40520, Note_on_c, 1, 71, 127
2, 40520, Note_on_c, 1, 75, 127
2, 40680, Note_off_c, 1, 47, 0
2, 40680, Note_off_c, 1, 59, 0
2, 40680, Note_off_c, 1, 71, 0
2, 40680, Note_off_c, 1, 75, 0
2, 40760, Note_on_c, 1, 39, 127
2, 40760, Note_on_c, 1, 53, 127
2, 40760, Note_on_c, 1, 80, 127
2, 40800, Note_off_c, 1, 39, 0
2, 40800, Note_on_c, 1, 47, 127
2, 40800, Note_on_c, 1, 49, 127
2, 40800, Note_off_c, 1, 53, 0
2, 40800, Note_on_c, 1, 61, 127
2, 40800, Note_off_c, 1, 80, 0
2, 40840, Note_off_c, 1, 47, 0
2, 40840, Note_off_c, 1, 49, 0
2, 40840, Note_off_c, 1, 61, 0
2, 40840, Note_on_c, 1, 66, 127
2, 40840, Note_on_c, 1, 73, 127
2, 40840, Note_on_c, 1, 79, 127
2, 40880, Note_on_c, 1, 35, 127
2, 40880, Note_on_c, 1, 47, 127
2, 40880, Note_on_c, 1, 54, 127
2, 40880, Note_on_c, 1, 59, 127
2, 40880, Note_on_c, 1, 63, 127
2, 40880, Note_off_c, 1, 66, 0
2, 40880, Note_off_c, 1, 73, 0
2, 40880, Note_on_c, 1, 78, 127
2, 40880, Note_off_c, 1, 79, 0
2, 40920, Note_off_c, 1, 35, 0
2, 40920, Note_off_c, 1, 47, 0
2, 40920, Note_off_c, 1, 54, 0
2, 40920, Note_off_c, 1, 59, 0
2, 40920, Note_off_c, 1, 63, 0
2, 40920, Note_off_c, 1, 78, 0
2, 40960, Note_on_c, 1, 33, 127
2, 40960, Note_on_c, 1, 45, 127
2, 40960, Note_on_c, 1, 79, 127
2, 40960, Note_on_c, 1, 81, 127
2, 40960, Note_on_c, 1, 85, 127
2, 40960, Note_on_c, 1, 88, 127
2, 40960, Note_on_c, 1, 93, 127
2, 41120, Note_off_c, 1, 33, 0
2, 41120, Note_off_c, 1, 45, 0
2, 41120, Note_off_c, 1, 79, 0
2, 41120, Note_off_c, 1, 81, 0
2, 41120, Note_off_c, 1, 85, 0
2, 41120, Note_off_c, 1, 88, 0
2, 41120, Note_off_c, 1, 93, 0
2, 41160, Note_on_c, 1, 33, 127
2, 41160, Note_on_c, 1, 45, 127
2, 41160, Note_on_c, 1, 79, 127
2, 41160, Note_on_c, 1, 81, 127
2, 41160, Note_on_c, 1, 85, 127
2, 41160, Note_on_c, 1, 88, 127
2, 41160, Note_on_c, 1, 93, 127
2, 41560, Note_off_c, 1, 33, 0
2, 41560, Note_off_c, 1, 45, 0
2, 41560, Note_off_c, 1, 79, 0
2, 41560, Note_off_c, 1, 81, 0
2, 41560, Note_off_c, 1, 85, 0
2, 41560, Note_off_c, 1, 88, 0
2, 41560, Note_off_c, 1, 93, 0
2, 41600, Note_on_c, 1, 33, 127
2, 41600, Note_on_c, 1, 45, 127
2, 41600, Note_on_c, 1, 79, 127
2, 41600, Note_on_c, 1, 81, 127
2, 41600, Note_on_c, 1, 85, 127
2, 41600, Note_on_c, 1, 88, 127
2, 41600, Note_on_c, 1, 93, 127
2, 41760, Note_off_c, 1, 33, 0
2, 41760, Note_off_c, 1, 45, 0
2, 41760, Note_off_c, 1, 79, 0
2, 41760, Note_off_c, 1, 81, 0
2, 41760, Note_off_c, 1, 85, 0
2, 41760, Note_off_c, 1, 88, 0
2, 41760, Note_off_c, 1, 93, 0
2, 41800, Note_on_c, 1, 33, 127
2, 41800, Note_on_c, 1, 45, 127
2, 41800, Note_on_c, 1, 79, 127
2, 41800, Note_on_c, 1, 81, 127
2, 41800, Note_on_c, 1, 85, 127
2, 41800, Note_on_c, 1, 88, 127
2, 41800, Note_on_c, 1, 93, 127
2, 41960, Note_off_c, 1, 33, 0
2, 41960, Note_off_c, 1, 45, 0
2, 41960, Note_off_c, 1, 79, 0
2, 41960, Note_off_c, 1, 81, 0
2, 41960, Note_off_c, 1, 85, 0
2, 41960, Note_off_c, 1, 88, 0
2, 41960, Note_off_c, 1, 93, 0
2, 42040, Note_on_c, 1, 33, 127
2, 42040, Note_on_c, 1, 45, 127
2, 42040, Note_on_c, 1, 79, 127
2, 42040, Note_on_c, 1, 81, 127
2, 42040, Note_on_c, 1, 85, 127
2, 42040, Note_on_c, 1, 88, 127
2, 42040, Note_on_c, 1, 93, 127
2, 42200, Note_off_c, 1, 33, 0
2, 42200, Note_off_c, 1, 45, 0
2, 42200, Note_off_c, 1, 79, 0
2, 42200, Note_off_c, 1, 81, 0
2, 42200, Note_off_c, 1, 85, 0
2, 42200, Note_off_c, 1, 88, 0
2, 42200, Note_off_c, 1, 93, 0
2, 42240, Note_on_c, 1, 33, 127
2, 42240, Note_on_c, 1, 45, 127
2, 42240, Note_on_c, 1, 79, 127
2, 42240, Note_on_c, 1, 81, 127
2, 42240, Note_on_c, 1, 85, 127
2, 42240, Note_on_c, 1, 88, 127
2, 42240, Note_on_c, 1, 93, 127
2, 42400, Note_off_c, 1, 33, 0
2, 42400, Note_off_c, 1, 45, 0
2, 42400, Note_off_c, 1, 79, 0
2, 42400, Note_off_c, 1, 81, 0
2, 42400, Note_off_c, 1, 85, 0
2, 42400, Note_off_c, 1, 88, 0
2, 42400, Note_off_c, 1, 93, 0
2, 42440, Note_on_c, 1, 33, 127
2, 42440, Note_on_c, 1, 45, 127
2, 42440, Note_on_c, 1, 79, 127
2, 42440, Note_on_c, 1, 81, 127
2, 42440, Note_on_c, 1, 85, 127
2, 42440, Note_on_c, 1, 88, 127
2, 42440, Note_on_c, 1, 93, 127
2, 42640, Note_off_c, 1, 33, 0
2, 42640, Note_off_c, 1, 45, 0
2, 42640, Note_off_c, 1, 79, 0
2, 42640, Note_off_c, 1, 81, 0
2, 42640, Note_off_c, 1, 85, 0
2, 42640, Note_off_c, 1, 88, 0
2, 42640, Note_off_c, 1, 93, 0
2, 42720, Note_on_c, 1, 33, 127
2, 42720, Note_on_c, 1, 45, 127
2, 42720, Note_on_c, 1, 79, 127
2, 42720, Note_on_c, 1, 81, 127
2, 42720, Note_on_c, 1, 85, 127
2, 42720, Note_on_c, 1, 88, 127
2, 42720, Note_on_c, 1, 93, 127
2, 42880, Note_off_c, 1, 33, 0
2, 42880, Note_off_c, 1, 45, 0
2, 42880, Note_off_c, 1, 79, 0
2, 42880, Note_off_c, 1, 81, 0
2, 42880, Note_off_c, 1, 85, 0
2, 42880, Note_off_c, 1, 88, 0
2, 42880, Note_off_c, 1, 93, 0
2, 42920, Note_on_c, 1, 37, 127
2, 42920, Note_on_c, 1, 49, 127
2, 42920, Note_on_c, 1, 79, 127
2, 42920, Note_on_c, 1, 81, 127
2, 42920, Note_on_c, 1, 85, 127
2, 42920, Note_on_c, 1, 88, 127
2, 42920, Note_on_c, 1, 93, 127
2, 43080, Note_off_c, 1, 37, 0
2, 43080, Note_off_c, 1, 49, 0
2, 43080, Note_off_c, 1, 79, 0
2, 43080, Note_off_c, 1, 81, 0
2, 43080, Note_off_c, 1, 85, 0
2, 43080, Note_off_c, 1, 88, 0
2, 43080, Note_off_c, 1, 93, 0
2, 43120, Note_on_c, 1, 37, 127
2, 43120, Note_on_c, 1, 49, 127
2, 43120, Note_on_c, 1, 79, 127
2, 43120, Note_on_c, 1, 81, 127
2, 43120, Note_on_c, 1, 85, 127
2, 43120, Note_on_c, 1, 88, 127
2, 43120, Note_on_c, 1, 93, 127
2, 43280, Note_off_c, 1, 37, 0
2, 43280, Note_off_c, 1, 49, 0
2, 43280, Note_off_c, 1, 79, 0
2, 43280, Note_off_c, 1, 81, 0
2, 43280, Note_off_c, 1, 85, 0
2, 43280, Note_off_c, 1, 88, 0
2, 43280, Note_off_c, 1, 93, 0
2, 43360, Note_on_c, 1, 37, 127
2, 43360, Note_on_c, 1, 49, 127
2, 43360, Note_on_c, 1, 79, 127
2, 43360, Note_on_c, 1, 81, 127
2, 43360, Note_on_c, 1, 85, 127
2, 43360, Note_on_c, 1, 88, 127
2, 43360, Note_on_c, 1, 93, 127
2, 43520, Note_off_c, 1, 37, 0
2, 43520, Note_off_c, 1, 49, 0
2, 43520, Note_off_c, 1, 79, 0
2, 43520, Note_off_c, 1, 81, 0
2, 43520, Note_off_c, 1, 85, 0
2, 43520, Note_off_c, 1, 88, 0
2, 43520, Note_off_c, 1, 93, 0
2, 43560, Note_on_c, 1, 40, 127
2, 43560, Note_on_c, 1, 52, 127
2, 43560, Note_on_c, 1, 79, 127
2, 43560, Note_on_c, 1, 81, 127
2, 43560, Note_on_c, 1, 85, 127
2, 43560, Note_on_c, 1, 88, 127
2, 43560, Note_on_c, 1, 93, 127
2, 43720, Note_off_c, 1, 40, 0
2, 43720, Note_off_c, 1, 52, 0
2, 43720, Note_off_c, 1, 79, 0
2, 43720, Note_off_c, 1, 81, 0
2, 43720, Note_off_c, 1, 85, 0
2, 43720, Note_off_c, 1, 88, 0
2, 43720, Note_off_c, 1, 93, 0
2, 43760, Note_on_c, 1, 45, 127
2, 43760, Note_on_c, 1, 57, 127
2, 43760, Note_on_c, 1, 79, 127
2, 43760, Note_on_c, 1, 81, 127
2, 43760, Note_on_c, 1, 85, 127
2, 43760, Note_on_c, 1, 88, 127
2, 43760, Note_on_c, 1, 93, 127
2, 43960, Note_off_c, 1, 45, 0
2, 43960, Note_off_c, 1, 57, 0
2, 43960, Note_off_c, 1, 79, 0
2, 43960, Note_off_c, 1, 81, 0
2, 43960, Note_off_c, 1, 85, 0
2, 43960, Note_off_c, 1, 88, 0
2, 43960, Note_off_c, 1, 93, 0
2, 44000, Note_on_c, 1, 45, 127
2, 44000, Note_on_c, 1, 57, 127
2, 44000, Note_on_c, 1, 79, 127
2, 44000, Note_on_c, 1, 81, 127
2, 44000, Note_on_c, 1, 85, 127
2, 44000, Note_on_c, 1, 88, 127
2, 44000, Note_on_c, 1, 93, 127
2, 44160, Note_off_c, 1, 45, 0
2, 44160, Note_off_c, 1, 57, 0
2, 44160, Note_off_c, 1, 79, 0
2, 44160, Note_off_c, 1, 81, 0
2, 44160, Note_off_c, 1, 85, 0
2, 44160, Note_off_c, 1, 88, 0
2, 44160, Note_off_c, 1, 93, 0
2, 44200, Note_on_c, 1, 45, 127
2, 44200, Note_on_c, 1, 57, 127
2, 44200, Note_on_c, 1, 79, 127
2, 44200, Note_on_c, 1, 81, 127
2, 44200, Note_on_c, 1, 85, 127
2, 44200, Note_on_c, 1, 88, 127
2, 44200, Note_on_c, 1, 93, 127
2, 44360, Note_off_c, 1, 45, 0
2, 44360, Note_off_c, 1, 57, 0
2, 44360, Note_off_c, 1, 79, 0
2, 44360, Note_off_c, 1, 81, 0
2, 44360, Note_off_c, 1, 85, 0
2, 44360, Note_off_c, 1, 88, 0
2, 44360, Note_off_c, 1, 93, 0
2, 44400, Note_on_c, 1, 45, 127
2, 44400, Note_on_c, 1, 57, 127
2, 44400, Note_on_c, 1, 79, 127
2, 44400, Note_on_c, 1, 81, 127
2, 44400, Note_on_c, 1, 85, 127
2, 44400, Note_on_c, 1, 88, 127
2, 44400, Note_on_c, 1, 93, 127
2, 44600, Note_off_c, 1, 45, 0
2, 44600, Note_off_c, 1, 57, 0
2, 44600, Note_off_c, 1, 79, 0
2, 44600, Note_off_c, 1, 81, 0
2, 44600, Note_off_c, 1, 85, 0
2, 44600, Note_off_c, 1, 88, 0
2, 44600, Note_off_c, 1, 93, 0
2, 44640, Note_on_c, 1, 38, 127
2, 44640, Note_on_c, 1, 50, 127
2, 44640, Note_on_c, 1, 78, 127
2, 44640, Note_on_c, 1, 81, 127
2, 44640, Note_on_c, 1, 86, 127
2, 44640, Note_on_c, 1, 90, 127
2, 44800, Note_off_c, 1, 38, 0
2, 44800, Note_off_c, 1, 50, 0
2, 44800, Note_off_c, 1, 78, 0
2, 44800, Note_off_c, 1, 81, 0
2, 44800, Note_off_c, 1, 86, 0
2, 44800, Note_off_c, 1, 90, 0
2, 47520, Note_on_c, 1, 48, 127
2, 47520, Note_on_c, 1, 60, 127
2, 47520, Note_on_c, 1, 78, 127
2, 47520, Note_on_c, 1, 81, 127
2, 47520, Note_on_c, 1, 87, 127
2, 47520, Note_on_c, 1, 90, 127
2, 47880, Note_off_c, 1, 48, 0
2, 47880, Note_off_c, 1, 60, 0
2, 47880, Note_off_c, 1, 78, 0
2, 47880, Note_off_c, 1, 81, 0
2, 47880, Note_off_c, 1, 87, 0
2, 47880, Note_off_c, 1, 90, 0
2, 48840, Note_on_c, 1, 65, 127
2, 48840, Note_on_c, 1, 68, 127
2, 48840, Note_on_c, 1, 73, 127
2, 49200, Note_off_c, 1, 65, 0
2, 49200, Note_off_c, 1, 68, 0
2, 49200, Note_off_c, 1, 73, 0
2, 49240, Note_on_c, 1, 65, 127
2, 49240, Note_on_c, 1, 68, 127
2, 49240, Note_on_c, 1, 73, 127
2, 49240, Note_on_c, 1, 80, 127
2, 49640, Note_off_c, 1, 65, 0
2, 49640, Note_off_c, 1, 68, 0
2, 49640, Note_off_c, 1, 73, 0
2, 49640, Note_off_c, 1, 80, 0
2, 49680, Note_on_c, 1, 51, 127
2, 49680, Note_on_c, 1, 70, 127
2, 49680, Note_on_c, 1, 78, 127
2, 49680, Note_on_c, 1, 82, 127
2, 50080, Note_off_c, 1, 51, 0
2, 50080, Note_off_c, 1, 70, 0
2, 50080, Note_off_c, 1, 78, 0
2, 50080, Note_off_c, 1, 82, 0
2, 50160, Note_on_c, 1, 51, 127
2, 50160, Note_on_c, 1, 57, 127
2, 50160, Note_on_c, 1, 66, 127
2, 50160, Note_on_c, 1, 72, 127
2, 50960, Note_off_c, 1, 51, 0
2, 50960, Note_off_c, 1, 57, 0
2, 50960, Note_off_c, 1, 66, 0
2, 50960, Note_off_c, 1, 72, 0
2, 51000, Note_on_c, 1, 36, 127
2, 51000, Note_on_c, 1, 48, 127
2, 51000, Note_on_c, 1, 63, 127
2, 51000, Note_on_c, 1, 72, 127
2, 51800, Note_off_c, 1, 36, 0
2, 51800, Note_off_c, 1, 48, 0
2, 51800, Note_off_c, 1, 63, 0
2, 51800, Note_off_c, 1, 72, 0
2, 51840, Note_on_c, 1, 40, 127
2, 51840, Note_on_c, 1, 52, 127
2, 51840, Note_on_c, 1, 68, 127
2, 51840, Note_on_c, 1, 80, 127
2, 52040, Note_off_c, 1, 40, 0
2, 52040, Note_off_c, 1, 52, 0
2, 52040, Note_off_c, 1, 68, 0
2, 52040, Note_off_c, 1, 80, 0
2, 52120, Note_on_c, 1, 44, 127
2, 52120, Note_on_c, 1, 56, 127
2, 52120, Note_on_c, 1, 70, 127
2, 52120, Note_on_c, 1, 73, 127
2, 52280, Note_off_c, 1, 44, 0
2, 52280, Note_off_c, 1, 56, 0
2, 52280, Note_off_c, 1, 70, 0
2, 52280, Note_off_c, 1, 73, 0
2, 52320, Note_on_c, 1, 44, 127
2, 52320, Note_on_c, 1, 56, 127
2, 52320, Note_on_c, 1, 70, 127
2, 52320, Note_on_c, 1, 73, 127
2, 52680, Note_off_c, 1, 44, 0
2, 52680, Note_off_c, 1, 56, 0
2, 52680, Note_off_c, 1, 70, 0
2, 52680, Note_off_c, 1, 73, 0
2, 52760, Note_on_c, 1, 44, 127
2, 52760, Note_on_c, 1, 56, 127
2, 52760, Note_on_c, 1, 70, 127
2, 52760, Note_on_c, 1, 73, 127
2, 53120, Note_off_c, 1, 44, 0
2, 53120, Note_off_c, 1, 56, 0
2, 53120, Note_off_c, 1, 70, 0
2, 53120, Note_off_c, 1, 73, 0
2, 53160, Note_on_c, 1, 44, 127
2, 53160, Note_on_c, 1, 56, 127
2, 53160, Note_on_c, 1, 70, 127
2, 53160, Note_on_c, 1, 73, 127
2, 53520, Note_off_c, 1, 44, 0
2, 53520, Note_off_c, 1, 56, 0
2, 53520, Note_off_c, 1, 70, 0
2, 53520, Note_off_c, 1, 73, 0
2, 53600, Note_on_c, 1, 37, 127
2, 53600, Note_on_c, 1, 49, 127
2, 53600, Note_on_c, 1, 61, 127
2, 53600, Note_on_c, 1, 65, 127
2, 53600, Note_on_c, 1, 68, 127
2, 53600, Note_on_c, 1, 73, 127
2, 54000, Note_off_c, 1, 37, 0
2, 54000, Note_off_c, 1, 49, 0
2, 54000, Note_off_c, 1, 61, 0
2, 54000, Note_off_c, 1, 65, 0
2, 54000, Note_off_c, 1, 68, 0
2, 54000, Note_off_c, 1, 73, 0
2, 54040, Note_on_c, 1, 49, 127
2, 54040, Note_on_c, 1, 61, 127
2, 54040, Note_on_c, 1, 65, 127
2, 54040, Note_on_c, 1, 71, 127
2, 54040, Note_on_c, 1, 77, 127
2, 54200, Note_off_c, 1, 49, 0
2, 54200, Note_off_c, 1, 61, 0
2, 54200, Note_off_c, 1, 65, 0
2, 54200, Note_off_c, 1, 71, 0
2, 54200, Note_off_c, 1, 77, 0
2, 54240, Note_on_c, 1, 49, 127
2, 54240, Note_on_c, 1, 61, 127
2, 54240, Note_on_c, 1, 65, 127
2, 54240, Note_on_c, 1, 71, 127
2, 54240, Note_on_c, 1, 77, 127
2, 54440, Note_off_c, 1, 49, 0
2, 54440, Note_off_c, 1, 61, 0
2, 54440, Note_off_c, 1, 65, 0
2, 54440, Note_off_c, 1, 71, 0
2, 54440, Note_off_c, 1, 77, 0
2, 54480, Note_on_c, 1, 49, 127
2, 54480, Note_on_c, 1, 61, 127
2, 54480, Note_on_c, 1, 65, 127
2, 54480, Note_on_c, 1, 71, 127
2, 54480, Note_on_c, 1, 77, 127
2, 54800, Note_off_c, 1, 49, 0
2, 54800, Note_off_c, 1, 61, 0
2, 54800, Note_off_c, 1, 65, 0
2, 54800, Note_off_c, 1, 71, 0
2, 54800, Note_off_c, 1, 77, 0
2, 54840, Note_on_c, 1, 49, 127
2, 54840, Note_on_c, 1, 61, 127
2, 54840, Note_on_c, 1, 65, 127
2, 54840, Note_on_c, 1, 71, 127
2, 54840, Note_on_c, 1, 77, 127
2, 54880, Note_off_c, 1, 49, 0
2, 54880, Note_off_c, 1, 61, 0
2, 54880, Note_off_c, 1, 65, 0
2, 54880, Note_off_c, 1, 71, 0
2, 54880, Note_off_c, 1, 77, 0
2, 54920, Note_on_c, 1, 49, 127
2, 54920, Note_on_c, 1, 61, 127
2, 54920, Note_on_c, 1, 65, 127
2, 54920, Note_on_c, 1, 71, 127
2, 54920, Note_on_c, 1, 77, 127
2, 55240, Note_off_c, 1, 49, 0
2, 55240, Note_off_c, 1, 61, 0
2, 55240, Note_off_c, 1, 65, 0
2, 55240, Note_off_c, 1, 71, 0
2, 55240, Note_off_c, 1, 77, 0
2, 55280, Note_on_c, 1, 49, 127
2, 55280, Note_on_c, 1, 61, 127
2, 55280, Note_on_c, 1, 65, 127
2, 55280, Note_on_c, 1, 71, 127
2, 55280, Note_on_c, 1, 77, 127
2, 55320, Note_off_c, 1, 49, 0
2, 55320, Note_off_c, 1, 61, 0
2, 55320, Note_off_c, 1, 65, 0
2, 55320, Note_off_c, 1, 71, 0
2, 55320, Note_off_c, 1, 77, 0
2, 55360, Note_on_c, 1, 49, 127
2, 55360, Note_on_c, 1, 61, 127
2, 55360, Note_on_c, 1, 65, 127
2, 55360, Note_on_c, 1, 71, 127
2, 55360, Note_on_c, 1, 77, 127
2, 55680, Note_off_c, 1, 49, 0
2, 55680, Note_off_c, 1, 61, 0
2, 55680, Note_off_c, 1, 65, 0
2, 55680, Note_off_c, 1, 71, 0
2, 55680, Note_off_c, 1, 77, 0
2, 55720, Note_on_c, 1, 49, 127
2, 55720, Note_on_c, 1, 61, 127
2, 55720, Note_on_c, 1, 65, 127
2, 55720, Note_on_c, 1, 71, 127
2, 55720, Note_on_c, 1, 77, 127
2, 55800, Note_off_c, 1, 49, 0
2, 55800, Note_off_c, 1, 61, 0
2, 55800, Note_off_c, 1, 65, 0
2, 55800, Note_off_c, 1, 71, 0
2, 55800, Note_off_c, 1, 77, 0
2, 55840, Note_on_c, 1, 49, 127
2, 55840, Note_on_c, 1, 61, 127
2, 55840, Note_on_c, 1, 65, 127
2, 55840, Note_on_c, 1, 71, 127
2, 55840, Note_on_c, 1, 77, 127
2, 55960, Note_off_c, 1, 49, 0
2, 55960, Note_off_c, 1, 61, 0
2, 55960, Note_off_c, 1, 65, 0
2, 55960, Note_off_c, 1, 71, 0
2, 55960, Note_off_c, 1, 77, 0
2, 56000, Note_on_c, 1, 49, 127
2, 56000, Note_on_c, 1, 61, 127
2, 56000, Note_on_c, 1, 65, 127
2, 56000, Note_on_c, 1, 71, 127
2, 56000, Note_on_c, 1, 77, 127
2, 56120, Note_off_c, 1, 49, 0
2, 56120, Note_off_c, 1, 61, 0
2, 56120, Note_off_c, 1, 65, 0
2, 56120, Note_off_c, 1, 71, 0
2, 56120, Note_off_c, 1, 77, 0
2, 56160, Note_on_c, 1, 49, 127
2, 56160, Note_on_c, 1, 61, 127
2, 56160, Note_on_c, 1, 65, 127
2, 56160, Note_on_c, 1, 71, 127
2, 56160, Note_on_c, 1, 77, 127
2, 56400, Note_off_c, 1, 49, 0
2, 56400, Note_off_c, 1, 61, 0
2, 56400, Note_off_c, 1, 65, 0
2, 56400, Note_off_c, 1, 71, 0
2, 56400, Note_off_c, 1, 77, 0
2, 56440, Note_on_c, 1, 49, 127
2, 56440, Note_on_c, 1, 61, 127
2, 56440, Note_on_c, 1, 65, 127
2, 56440, Note_on_c, 1, 71, 127
2, 56440, Note_on_c, 1, 77, 127
2, 56520, Note_off_c, 1, 49, 0
2, 56520, Note_off_c, 1, 61, 0
2, 56520, Note_off_c, 1, 65, 0
2, 56520, Note_off_c, 1, 71, 0
2, 56520, Note_off_c, 1, 77, 0
2, 56600, Note_on_c, 1, 56, 127
2, 56600, Note_on_c, 1, 64, 127
2, 56600, Note_on_c, 1, 76, 127
2, 56600, Note_on_c, 1, 80, 127
2, 56600, Note_on_c, 1, 85, 127
2, 56640, Note_on_c, 1, 43, 127
2, 56640, Note_on_c, 1, 53, 127
2, 56640, Note_off_c, 1, 56, 0
2, 56640, Note_on_c, 1, 59, 127
2, 56640, Note_off_c, 1, 64, 0
2, 56640, Note_on_c, 1, 67, 127
2, 56640, Note_on_c, 1, 72, 127
2, 56640, Note_off_c, 1, 76, 0
2, 56640, Note_off_c, 1, 80, 0
2, 56640, Note_off_c, 1, 85, 0
2, 56680, Note_off_c, 1, 43, 0
2, 56680, Note_on_c, 1, 49, 127
2, 56680, Note_off_c, 1, 53, 0
2, 56680, Note_on_c, 1, 61, 127
2, 56680, Note_off_c, 1, 67, 0
2, 56680, Note_off_c, 1, 72, 0
2, 56680, Note_on_c, 1, 80, 127
2, 56720, Note_on_c, 1, 46, 127
2, 56720, Note_off_c, 1, 49, 0
2, 56720, Note_on_c, 1, 52, 127
2, 56720, Note_off_c, 1, 59, 0
2, 56720, Note_on_c, 1, 67, 127
2, 56720, Note_on_c, 1, 70, 127
2, 56720, Note_on_c, 1, 73, 127
2, 56720, Note_on_c, 1, 79, 127
2, 56720, Note_off_c, 1, 80, 0
2, 56760, Note_on_c, 1, 43, 127
2, 56760, Note_off_c, 1, 46, 0
2, 56760, Note_on_c, 1, 50, 127
2, 56760, Note_off_c, 1, 52, 0
2, 56760, Note_on_c, 1, 53, 127
2, 56760, Note_on_c, 1, 55, 127
2, 56760, Note_on_c, 1, 59, 127
2, 56760, Note_off_c, 1, 61, 0
2, 56760, Note_on_c, 1, 62, 127
2, 56760, Note_off_c, 1, 70, 0
2, 56760, Note_off_c, 1, 73, 0
2, 56760, Note_off_c, 1, 79, 0
2, 56800, Note_off_c, 1, 43, 0
2, 56800, Note_off_c, 1, 50, 0
2, 56800, Note_off_c, 1, 53, 0
2, 56800, Note_off_c, 1, 55, 0
2, 56800, Note_off_c, 1, 59, 0
2, 56800, Note_on_c, 1, 61, 127
2, 56800, Note_off_c, 1, 62, 0
2, 56800, Note_on_c, 1, 65, 127
2, 56800, Note_off_c, 1, 67, 0
2, 56800, Note_on_c, 1, 73, 127
2, 56800, Note_on_c, 1, 92, 127
2, 56800, Note_on_c, 1, 96, 127
2, 56840, Note_on_c, 1, 49, 127
2, 56840, Note_on_c, 1, 56, 127
2, 56840, Note_on_c, 1, 59, 127
2, 56840, Note_off_c, 1, 61, 0
2, 56840, Note_on_c, 1, 63, 127
2, 56840, Note_off_c, 1, 65, 0
2, 56840, Note_on_c, 1, 66, 127
2, 56840, Note_off_c, 1, 73, 0
2, 56840, Note_off_c, 1, 92, 0
2, 56840, Note_off_c, 1, 96, 0
2, 56880, Note_off_c, 1, 49, 0
2, 56880, Note_off_c, 1, 56, 0
2, 56880, Note_off_c, 1, 59, 0
2, 56880, Note_on_c, 1, 61, 127
2, 56880, Note_off_c, 1, 63, 0
2, 56880, Note_off_c, 1, 66, 0
2, 56880, Note_on_c, 1, 76, 127
2, 56880, Note_on_c, 1, 82, 127
2, 56880, Note_on_c, 1, 88, 127
2, 56920, Note_off_c, 1, 61, 0
2, 56920, Note_off_c, 1, 76, 0
2, 56920, Note_off_c, 1, 82, 0
2, 56920, Note_off_c, 1, 88, 0
2, 56960, Note_on_c, 1, 45, 127
2, 56960, Note_on_c, 1, 57, 127
2, 56960, Note_on_c, 1, 63, 127
2, 56960, Note_on_c, 1, 69, 127
2, 56960, Note_on_c, 1, 73, 127
2, 56960, Note_on_c, 1, 75, 127
2, 57000, Note_off_c, 1, 45, 0
2, 57000, Note_off_c, 1, 57, 0
2, 57000, Note_off_c, 1, 63, 0
2, 57000, Note_on_c, 1, 64, 127
2, 57000, Note_off_c, 1, 69, 0
2, 57000, Note_on_c, 1, 70, 127
2, 57000, Note_off_c, 1, 75, 0
2, 57000, Note_on_c, 1, 76, 127
2, 57000, Note_on_c, 1, 79, 127
2, 57000, Note_on_c, 1, 82, 127
2, 57000, Note_on_c, 1, 85, 127
2, 57000, Note_on_c, 1, 94, 127
2, 57040, Note_on_c, 1, 36, 127
2, 57040, Note_on_c, 1, 46, 127
2, 57040, Note_on_c, 1, 55, 127
2, 57040, Note_on_c, 1, 60, 127
2, 57040, Note_off_c, 1, 70, 0
2, 57040, Note_on_c, 1, 72, 127
2, 57040, Note_off_c, 1, 73, 0
2, 57040, Note_off_c, 1, 76, 0
2, 57040, Note_off_c, 1, 79, 0
2, 57040, Note_off_c, 1, 82, 0
2, 57040, Note_off_c, 1, 85, 0
2, 57040, Note_off_c, 1, 94, 0
2, 57080, Note_off_c, 1, 36, 0
2, 57080, Note_on_c, 1, 45, 127
2, 57080, Note_off_c, 1, 46, 0
2, 57080, Note_off_c, 1, 55, 0
2, 57080, Note_on_c, 1, 57, 127
2, 57080, Note_off_c, 1, 60, 0
2, 57080, Note_on_c, 1, 63, 127
2, 57080, Note_off_c, 1, 64, 0
2, 57080, Note_on_c, 1, 69, 127
2, 57080, Note_off_c, 1, 72, 0
2, 57080, Note_on_c, 1, 73, 127
2, 57080, Note_on_c, 1, 75, 127
2, 57120, Note_on_c, 1, 38, 127
2, 57120, Note_off_c, 1, 45, 0
2, 57120, Note_on_c, 1, 50, 127
2, 57120, Note_off_c, 1, 57, 0
2, 57120, Note_on_c, 1, 62, 127
2, 57120, Note_off_c, 1, 63, 0
2, 57120, Note_on_c, 1, 65, 127
2, 57120, Note_off_c, 1, 69, 0
2, 57120, Note_off_c, 1, 73, 0
2, 57120, Note_off_c, 1, 75, 0
2, 57160, Note_off_c, 1, 38, 0
2, 57160, Note_off_c, 1, 50, 0
2, 57160, Note_off_c, 1, 62, 0
2, 57160, Note_off_c, 1, 65, 0
2, 57200, Note_on_c, 1, 46, 127
2, 57200, Note_on_c, 1, 56, 127
2, 57200, Note_on_c, 1, 62, 127
2, 57200, Note_on_c, 1, 65, 127
2, 57200, Note_on_c, 1, 70, 127
2, 57480, Note_off_c, 1, 46, 0
2, 57480, Note_off_c, 1, 56, 0
2, 57560, Note_off_c, 1, 62, 0
2, 57560, Note_off_c, 1, 65, 0
2, 57560, Note_off_c, 1, 70, 0
2, 57640, Note_on_c, 1, 32, 127
2, 57640, Note_on_c, 1, 44, 127
2, 57640, Note_on_c, 1, 60, 127
2, 57640, Note_on_c, 1, 63, 127
2, 57640, Note_on_c, 1, 68, 127
2, 58000, Note_off_c, 1, 32, 0
2, 58000, Note_off_c, 1, 44, 0
2, 58000, Note_off_c, 1, 60, 0
2, 58000, Note_off_c, 1, 63, 0
2, 58000, Note_off_c, 1, 68, 0
2, 58040, Note_on_c, 1, 44, 127
2, 58040, Note_on_c, 1, 51, 127
2, 58040, Note_on_c, 1, 63, 127
2, 58040, Note_on_c, 1, 68, 127
2, 58040, Note_on_c, 1, 72, 127
2, 58440, Note_off_c, 1, 44, 0
2, 58440, Note_off_c, 1, 51, 0
2, 58440, Note_off_c, 1, 63, 0
2, 58440, Note_off_c, 1, 68, 0
2, 58440, Note_off_c, 1, 72, 0
2, 58480, Note_on_c, 1, 39, 127
2, 58480, Note_on_c, 1, 51, 127
2, 58480, Note_on_c, 1, 63, 127
2, 58480, Note_on_c, 1, 67, 127
2, 58480, Note_on_c, 1, 70, 127
2, 58640, Note_off_c, 1, 39, 0
2, 58640, Note_off_c, 1, 51, 0
2, 58640, Note_off_c, 1, 63, 0
2, 58640, Note_off_c, 1, 67, 0
2, 58640, Note_off_c, 1, 70, 0
2, 58680, Note_on_c, 1, 39, 127
2, 58680, Note_on_c, 1, 51, 127
2, 58680, Note_on_c, 1, 63, 127
2, 58680, Note_on_c, 1, 67, 127
2, 58680, Note_on_c, 1, 70, 127
2, 58920, Note_off_c, 1, 39, 0
2, 58920, Note_off_c, 1, 51, 0
2, 58920, Note_off_c, 1, 63, 0
2, 58920, Note_off_c, 1, 67, 0
2, 58920, Note_off_c, 1, 70, 0
2, 58960, Note_on_c, 1, 44, 127
2, 58960, Note_on_c, 1, 56, 127
2, 58960, Note_on_c, 1, 63, 127
2, 58960, Note_on_c, 1, 68, 127
2, 58960, Note_on_c, 1, 72, 127
2, 59360, Note_off_c, 1, 44, 0
2, 59360, Note_off_c, 1, 56, 0
2, 59360, Note_off_c, 1, 63, 0
2, 59360, Note_off_c, 1, 68, 0
2, 59360, Note_off_c, 1, 72, 0
2, 59400, Note_on_c, 1, 53, 127
2, 59400, Note_on_c, 1, 60, 127
2, 59400, Note_on_c, 1, 68, 127
2, 59400, Note_on_c, 1, 72, 127
2, 59560, Note_off_c, 1, 72, 0
2, 59600, Note_on_c, 1, 72, 127
2, 59800, Note_off_c, 1, 53, 0
2, 59800, Note_off_c, 1, 60, 0
2, 59800, Note_off_c, 1, 68, 0
2, 59800, Note_off_c, 1, 72, 0
2, 59840, Note_on_c, 1, 53, 127
2, 59840, Note_on_c, 1, 58, 127
2, 59840, Note_on_c, 1, 62, 127
2, 59840, Note_on_c, 1, 68, 127
2, 59840, Note_on_c, 1, 74, 127
2, 60200, Note_off_c, 1, 53, 0
2, 60200, Note_off_c, 1, 58, 0
2, 60200, Note_off_c, 1, 62, 0
2, 60200, Note_off_c, 1, 68, 0
2, 60200, Note_off_c, 1, 74, 0
2, 60280, Note_on_c, 1, 39, 127
2, 60280, Note_on_c, 1, 41, 127
2, 60280, Note_on_c, 1, 44, 127
2, 60280, Note_on_c, 1, 56, 127
2, 60280, Note_on_c, 1, 65, 127
2, 60280, Note_on_c, 1, 68, 127
2, 60440, Note_off_c, 1, 39, 0
2, 60640, Note_off_c, 1, 41, 0
2, 60640, Note_off_c, 1, 44, 0
2, 60640, Note_off_c, 1, 56, 0
2, 60640, Note_off_c, 1, 65, 0
2, 60640, Note_off_c, 1, 68, 0
2, 60680, Note_on_c, 1, 62, 127
2, 60680, Note_on_c, 1, 66, 127
2, 60680, Note_on_c, 1, 72, 127
2, 60680, Note_on_c, 1, 74, 127
2, 60680, Note_on_c, 1, 81, 127
2, 60680, Note_on_c, 1, 86, 127
2, 60800, Note_off_c, 1, 62, 0
2, 60800, Note_off_c, 1, 66, 0
2, 60800, Note_off_c, 1, 72, 0
2, 60800, Note_off_c, 1, 74, 0
2, 60800, Note_off_c, 1, 81, 0
2, 60800, Note_off_c, 1, 86, 0
2, 60840, Note_on_c, 1, 62, 127
2, 60840, Note_on_c, 1, 66, 127
2, 60840, Note_on_c, 1, 72, 127
2, 60840, Note_on_c, 1, 74, 127
2, 60840, Note_on_c, 1, 81, 127
2, 60840, Note_on_c, 1, 86, 127
2, 61120, Note_off_c, 1, 62, 0
2, 61120, Note_off_c, 1, 66, 0
2, 61120, Note_off_c, 1, 72, 0
2, 61120, Note_off_c, 1, 74, 0
2, 61120, Note_off_c, 1, 81, 0
2, 61120, Note_off_c, 1, 86, 0
2, 61160, Note_on_c, 1, 48, 127
2, 61160, Note_on_c, 1, 62, 127
2, 61160, Note_on_c, 1, 66, 127
2, 61160, Note_on_c, 1, 69, 127
2, 61520, Note_off_c, 1, 48, 0
2, 61520, Note_off_c, 1, 62, 0
2, 61520, Note_off_c, 1, 66, 0
2, 61520, Note_on_c, 1, 67, 127
2, 61520, Note_off_c, 1, 69, 0
2, 61560, Note_off_c, 1, 67, 0
2, 61600, Note_on_c, 1, 45, 127
2, 61600, Note_on_c, 1, 61, 127
2, 61600, Note_on_c, 1, 67, 127
2, 61600, Note_on_c, 1, 69, 127
2, 62400, Note_off_c, 1, 45, 0
2, 62400, Note_off_c, 1, 61, 0
2, 62400, Note_off_c, 1, 67, 0
2, 62400, Note_off_c, 1, 69, 0
2, 62440, Note_on_c, 1, 45, 127
2, 62440, Note_on_c, 1, 61, 127
2, 62440, Note_on_c, 1, 67, 127
2, 62440, Note_on_c, 1, 69, 127
2, 62840, Note_off_c, 1, 45, 0
2, 62840, Note_off_c, 1, 61, 0
2, 62840, Note_off_c, 1, 67, 0
2, 62840, Note_off_c, 1, 69, 0
2, 62880, Note_on_c, 1, 45, 127
2, 62880, Note_on_c, 1, 61, 127
2, 62880, Note_on_c, 1, 67, 127
2, 62880, Note_on_c, 1, 69, 127
2, 63280, Note_off_c, 1, 45, 0
2, 63280, Note_off_c, 1, 61, 0
2, 63280, Note_off_c, 1, 67, 0
2, 63280, Note_off_c, 1, 69, 0
2, 63320, Note_on_c, 1, 45, 127
2, 63320, Note_on_c, 1, 61, 127
2, 63320, Note_on_c, 1, 67, 127
2, 63320, Note_on_c, 1, 69, 127
2, 63720, Note_off_c, 1, 45, 0
2, 63720, Note_off_c, 1, 61, 0
2, 63720, Note_off_c, 1, 67, 0
2, 63720, Note_off_c, 1, 69, 0
2, 63760, Note_on_c, 1, 45, 127
2, 63760, Note_on_c, 1, 61, 127
2, 63760, Note_on_c, 1, 67, 127
2, 63760, Note_on_c, 1, 69, 127
2, 64520, Note_off_c, 1, 45, 0
2, 64520, Note_off_c, 1, 61, 0
2, 64520, Note_off_c, 1, 67, 0
2, 64520, Note_off_c, 1, 69, 0
2, 64560, Note_on_c, 1, 45, 127
2, 64560, Note_on_c, 1, 61, 127
2, 64560, Note_on_c, 1, 67, 127
2, 64560, Note_on_c, 1, 69, 127
2, 64960, Note_off_c, 1, 45, 0
2, 64960, Note_off_c, 1, 61, 0
2, 64960, Note_off_c, 1, 67, 0
2, 64960, Note_off_c, 1, 69, 0
2, 65040, Note_on_c, 1, 45, 127
2, 65040, Note_on_c, 1, 61, 127
2, 65040, Note_on_c, 1, 67, 127
2, 65040, Note_on_c, 1, 69, 127
2, 65840, Note_off_c, 1, 45, 0
2, 65840, Note_off_c, 1, 61, 0
2, 65840, Note_off_c, 1, 67, 0
2, 65840, Note_off_c, 1, 69, 0
2, 65880, Note_on_c, 1, 45, 127
2, 65880, Note_on_c, 1, 61, 127
2, 65880, Note_on_c, 1, 67, 127
2, 65880, Note_on_c, 1, 69, 127
2, 66280, Note_off_c, 1, 45, 0
2, 66280, Note_off_c, 1, 61, 0
2, 66280, Note_off_c, 1, 67, 0
2, 66280, Note_off_c, 1, 69, 0
2, 66320, Note_on_c, 1, 45, 127
2, 66320, Note_on_c, 1, 61, 127
2, 66320, Note_on_c, 1, 67, 127
2, 66320, Note_on_c, 1, 69, 127
2, 67120, Note_off_c, 1, 45, 0
2, 67120, Note_off_c, 1, 61, 0
2, 67120, Note_off_c, 1, 67, 0
2, 67120, Note_off_c, 1, 69, 0
2, 67160, Note_on_c, 1, 45, 127
2, 67160, Note_on_c, 1, 61, 127
2, 67160, Note_on_c, 1, 67, 127
2, 67160, Note_on_c, 1, 69, 127
2, 67400, Note_off_c, 1, 45, 0
2, 67400, Note_off_c, 1, 61, 0
2, 67400, Note_off_c, 1, 67, 0
2, 67400, Note_off_c, 1, 69, 0
2, 67440, Note_on_c, 1, 45, 127
2, 67440, Note_on_c, 1, 61, 127
2, 67440, Note_on_c, 1, 67, 127
2, 67440, Note_on_c, 1, 69, 127
2, 68040, Note_off_c, 1, 45, 0
2, 68040, Note_off_c, 1, 61, 0
2, 68040, Note_off_c, 1, 67, 0
2, 68040, Note_off_c, 1, 69, 0
2, 68080, Note_on_c, 1, 45, 127
2, 68080, Note_on_c, 1, 61, 127
2, 68080, Note_on_c, 1, 67, 127
2, 68080, Note_on_c, 1, 69, 127
2, 68880, Note_off_c, 1, 45, 0
2, 68880, Note_off_c, 1, 61, 0
2, 68880, Note_off_c, 1, 67, 0
2, 68880, Note_off_c, 1, 69, 0
2, 68920, Note_on_c, 1, 45, 127
2, 68920, Note_on_c, 1, 61, 127
2, 68920, Note_on_c, 1, 67, 127
2, 68920, Note_on_c, 1, 69, 127
2, 69560, Note_off_c, 1, 45, 0
2, 69560, Note_off_c, 1, 61, 0
2, 69560, Note_off_c, 1, 67, 0
2, 69560, Note_off_c, 1, 69, 0
2, 69600, Note_on_c, 1, 45, 127
2, 69600, Note_on_c, 1, 61, 127
2, 69600, Note_on_c, 1, 67, 127
2, 69600, Note_on_c, 1, 69, 127
2, 69800, Note_off_c, 1, 45, 0
2, 69800, Note_off_c, 1, 61, 0
2, 69800, Note_off_c, 1, 67, 0
2, 69800, Note_off_c, 1, 69, 0
2, 69840, Note_on_c, 1, 45, 127
2, 69840, Note_on_c, 1, 61, 127
2, 69840, Note_on_c, 1, 67, 127
2, 69840, Note_on_c, 1, 69, 127
2, 70200, Note_off_c, 1, 45, 0
2, 70200, Note_off_c, 1, 61, 0
2, 70200, Note_off_c, 1, 67, 0
2, 70200, Note_off_c, 1, 69, 0
2, 70240, Note_on_c, 1, 45, 127
2, 70240, Note_on_c, 1, 61, 127
2, 70240, Note_on_c, 1, 67, 127
2, 70240, Note_on_c, 1, 69, 127
2, 71040, Note_off_c, 1, 45, 0
2, 71040, Note_off_c, 1, 61, 0
2, 71040, Note_off_c, 1, 67, 0
2, 71040, Note_off_c, 1, 69, 0
2, 71080, Note_on_c, 1, 45, 127
2, 71080, Note_on_c, 1, 61, 127
2, 71080, Note_on_c, 1, 67, 127
2, 71080, Note_on_c, 1, 69, 127
2, 71600, Note_off_c, 1, 45, 0
2, 71600, Note_off_c, 1, 61, 0
2, 71600, Note_off_c, 1, 67, 0
2, 71600, Note_off_c, 1, 69, 0
2, 71640, Note_on_c, 1, 45, 127
2, 71640, Note_on_c, 1, 61, 127
2, 71640, Note_on_c, 1, 67, 127
2, 71640, Note_on_c, 1, 69, 127
2, 71920, Note_off_c, 1, 45, 0
2, 71920, Note_off_c, 1, 61, 0
2, 71920, Note_off_c, 1, 67, 0
2, 71920, Note_off_c, 1, 69, 0
2, 71960, Note_on_c, 1, 45, 127
2, 71960, Note_on_c, 1, 61, 127
2, 71960, Note_on_c, 1, 67, 127
2, 71960, Note_on_c, 1, 69, 127
2, 72360, Note_off_c, 1, 45, 0
2, 72360, Note_off_c, 1, 61, 0
2, 72360, Note_off_c, 1, 67, 0
2, 72360, Note_off_c, 1, 69, 0
2, 72400, Note_on_c, 1, 45, 127
2, 72400, Note_on_c, 1, 61, 127
2, 72400, Note_on_c, 1, 67, 127
2, 72400, Note_on_c, 1, 69, 127
2, 72800, Note_off_c, 1, 45, 0
2, 72800, Note_off_c, 1, 61, 0
2, 72800, Note_off_c, 1, 67, 0
2, 72800, Note_off_c, 1, 69, 0
2, 72840, Note_on_c, 1, 45, 127
2, 72840, Note_on_c, 1, 61, 127
2, 72840, Note_on_c, 1, 67, 127
2, 72840, Note_on_c, 1, 69, 127
2, 73240, Note_off_c, 1, 45, 0
2, 73240, Note_off_c, 1, 61, 0
2, 73240, Note_off_c, 1, 67, 0
2, 73240, Note_off_c, 1, 69, 0
2, 73280, Note_on_c, 1, 45, 127
2, 73280, Note_on_c, 1, 61, 127
2, 73280, Note_on_c, 1, 67, 127
2, 73280, Note_on_c, 1, 69, 127
2, 73680, Note_off_c, 1, 45, 0
2, 73680, Note_off_c, 1, 61, 0
2, 73680, Note_off_c, 1, 67, 0
2, 73680, Note_off_c, 1, 69, 0
2, 73720, Note_on_c, 1, 45, 127
2, 73720, Note_on_c, 1, 61, 127
2, 73720, Note_on_c, 1, 67, 127
2, 73720, Note_on_c, 1, 69, 127
2, 73840, Note_off_c, 1, 45, 0
2, 73840, Note_off_c, 1, 61, 0
2, 73840, Note_off_c, 1, 67, 0
2, 73840, Note_off_c, 1, 69, 0
2, 73880, Note_on_c, 1, 45, 127
2, 73880, Note_on_c, 1, 61, 127
2, 73880, Note_on_c, 1, 67, 127
2, 73880, Note_on_c, 1, 69, 127
2, 74600, Note_off_c, 1, 45, 0
2, 74600, Note_off_c, 1, 61, 0
2, 74600, Note_off_c, 1, 67, 0
2, 74600, Note_off_c, 1, 69, 0
2, 74640, Note_on_c, 1, 45, 127
2, 74640, Note_on_c, 1, 61, 127
2, 74640, Note_on_c, 1, 67, 127
2, 74640, Note_on_c, 1, 69, 127
2, 75440, Note_off_c, 1, 45, 0
2, 75440, Note_off_c, 1, 61, 0
2, 75440, Note_off_c, 1, 67, 0
2, 75440, Note_off_c, 1, 69, 0
2, 75480, Note_on_c, 1, 45, 127
2, 75480, Note_on_c, 1, 61, 127
2, 75480, Note_on_c, 1, 67, 127
2, 75480, Note_on_c, 1, 69, 127
2, 76120, Note_off_c, 1, 45, 0
2, 76120, Note_off_c, 1, 61, 0
2, 76120, Note_off_c, 1, 67, 0
2, 76120, Note_off_c, 1, 69, 0
2, 76160, Note_on_c, 1, 45, 127
2, 76160, Note_on_c, 1, 61, 127
2, 76160, Note_on_c, 1, 67, 127
2, 76160, Note_on_c, 1, 69, 127
2, 76800, Note_off_c, 1, 45, 0
2, 76800, Note_off_c, 1, 61, 0
2, 76800, Note_off_c, 1, 67, 0
2, 76800, Note_off_c, 1, 69, 0
2, 76840, Note_on_c, 1, 45, 127
2, 76840, Note_on_c, 1, 61, 127
2, 76840, Note_on_c, 1, 67, 127
2, 76840, Note_on_c, 1, 69, 127
2, 77240, Note_off_c, 1, 45, 0
2, 77240, Note_off_c, 1, 61, 0
2, 77240, Note_off_c, 1, 67, 0
2, 77240, Note_off_c, 1, 69, 0
2, 77280, Note_on_c, 1, 45, 127
2, 77280, Note_on_c, 1, 61, 127
2, 77280, Note_on_c, 1, 67, 127
2, 77280, Note_on_c, 1, 69, 127
2, 78080, Note_off_c, 1, 45, 0
2, 78080, Note_off_c, 1, 61, 0
2, 78080, Note_off_c, 1, 67, 0
2, 78080, Note_off_c, 1, 69, 0
2, 78120, Note_on_c, 1, 34, 127
2, 78120, Note_on_c, 1, 46, 127
2, 78120, Note_on_c, 1, 58, 127
2, 78320, Note_off_c, 1, 34, 0
2, 78320, Note_off_c, 1, 46, 0
2, 78320, Note_off_c, 1, 58, 0
2, 78360, Note_on_c, 1, 34, 127
2, 78360, Note_on_c, 1, 46, 127
2, 78360, Note_on_c, 1, 58, 127
2, 78960, Note_off_c, 1, 34, 0
2, 78960, Note_off_c, 1, 46, 0
2, 78960, Note_off_c, 1, 58, 0
2, 79000, Note_on_c, 1, 30, 127
2, 79000, Note_on_c, 1, 42, 127
2, 79000, Note_on_c, 1, 54, 127
2, 79840, Note_off_c, 1, 30, 0
2, 79840, Note_on_c, 1, 38, 127
2, 79840, Note_off_c, 1, 42, 0
2, 79840, Note_on_c, 1, 50, 127
2, 79840, Note_off_c, 1, 54, 0
2, 79840, Note_on_c, 1, 57, 127
2, 79840, Note_on_c, 1, 66, 127
2, 79840, Note_on_c, 1, 69, 127
2, 79880, Note_off_c, 1, 38, 0
2, 79880, Note_off_c, 1, 50, 0
2, 79880, Note_off_c, 1, 57, 0
2, 79880, Note_off_c, 1, 66, 0
2, 79880, Note_off_c, 1, 69, 0
2, 79920, Note_on_c, 1, 43, 127
2, 79920, Note_on_c, 1, 55, 127
2, 79920, Note_on_c, 1, 59, 127
2, 79920, Note_on_c, 1, 62, 127
2, 79920, Note_on_c, 1, 71, 127
2, 80240, Note_off_c, 1, 43, 0
2, 80240, Note_off_c, 1, 55, 0
2, 80240, Note_off_c, 1, 59, 0
2, 80240, Note_off_c, 1, 62, 0
2, 80240, Note_off_c, 1, 71, 0
2, 80320, Note_on_c, 1, 43, 127
2, 80320, Note_on_c, 1, 55, 127
2, 80320, Note_on_c, 1, 59, 127
2, 80320, Note_on_c, 1, 62, 127
2, 80320, Note_on_c, 1, 67, 127
2, 80600, Note_off_c, 1, 43, 0
2, 80600, Note_off_c, 1, 55, 0
2, 80600, Note_off_c, 1, 59, 0
2, 80600, Note_off_c, 1, 62, 0
2, 80600, Note_off_c, 1, 67, 0
2, 80640, Note_on_c, 1, 43, 127
2, 80640, Note_on_c, 1, 55, 127
2, 80640, Note_on_c, 1, 59, 127
2, 80640, Note_on_c, 1, 62, 127
2, 80640, Note_on_c, 1, 67, 127
2, 81160, Note_off_c, 1, 43, 0
2, 81160, Note_off_c, 1, 55, 0
2, 81160, Note_off_c, 1, 59, 0
2, 81160, Note_off_c, 1, 62, 0
2, 81160, Note_off_c, 1, 67, 0
2, 81240, Note_on_c, 1, 43, 127
2, 81240, Note_on_c, 1, 50, 127
2, 81240, Note_on_c, 1, 67, 127
2, 81720, Note_off_c, 1, 50, 0
2, 81720, Note_on_c, 1, 52, 127
2, 81720, Note_on_c, 1, 60, 127
2, 81720, Note_off_c, 1, 67, 0
2, 81720, Note_on_c, 1, 71, 127
2, 82040, Note_off_c, 1, 71, 0
2, 82080, Note_on_c, 1, 51, 127
2, 82080, Note_off_c, 1, 52, 0
2, 82080, Note_off_c, 1, 60, 0
2, 82120, Note_off_c, 1, 51, 0
2, 82160, Note_on_c, 1, 50, 127
2, 82160, Note_on_c, 1, 59, 127
2, 82160, Note_on_c, 1, 67, 127
2, 82160, Note_on_c, 1, 71, 127
2, 82560, Note_off_c, 1, 43, 0
2, 82560, Note_off_c, 1, 50, 0
2, 82560, Note_off_c, 1, 59, 0
2, 82560, Note_off_c, 1, 67, 0
2, 82560, Note_off_c, 1, 71, 0
2, 82600, Note_on_c, 1, 48, 127
2, 82600, Note_on_c, 1, 52, 127
2, 82600, Note_on_c, 1, 60, 127
2, 82600, Note_on_c, 1, 67, 127
2, 82600, Note_on_c, 1, 72, 127
2, 82800, Note_off_c, 1, 48, 0
2, 82800, Note_off_c, 1, 52, 0
2, 82800, Note_off_c, 1, 60, 0
2, 82800, Note_off_c, 1, 67, 0
2, 82800, Note_off_c, 1, 72, 0
2, 82840, Note_on_c, 1, 48, 127
2, 82840, Note_on_c, 1, 52, 127
2, 82840, Note_on_c, 1, 60, 127
2, 82840, Note_on_c, 1, 67, 127
2, 82840, Note_on_c, 1, 72, 127
2, 83480, Note_off_c, 1, 48, 0
2, 83480, Note_off_c, 1, 52, 0
2, 83480, Note_off_c, 1, 60, 0
2, 83480, Note_off_c, 1, 67, 0
2, 83480, Note_off_c, 1, 72, 0
2, 83520, Note_on_c, 1, 57, 127
2, 83520, Note_on_c, 1, 60, 127
2, 83520, Note_on_c, 1, 64, 127
2, 83520, Note_on_c, 1, 69, 127
2, 83520, Note_on_c, 1, 72, 127
2, 84840, Note_off_c, 1, 57, 0
2, 84840, Note_off_c, 1, 60, 0
2, 84840, Note_off_c, 1, 64, 0
2, 84840, Note_off_c, 1, 69, 0
2, 84840, Note_off_c, 1, 72, 0
2, 84920, Note_on_c, 1, 57, 127
2, 84920, Note_on_c, 1, 60, 127
2, 84920, Note_on_c, 1, 65, 127
2, 84920, Note_on_c, 1, 72, 127
2, 85320, Note_off_c, 1, 72, 0
2, 85360, Note_on_c, 1, 72, 127
2, 85720, Note_off_c, 1, 72, 0
2, 85760, Note_on_c, 1, 72, 127
2, 85800, Note_off_c, 1, 57, 0
2, 85800, Note_off_c, 1, 60, 0
2, 85800, Note_off_c, 1, 65, 0
2, 85800, Note_off_c, 1, 72, 0
2, 85840, Note_on_c, 1, 52, 127
2, 85840, Note_on_c, 1, 55, 127
2, 85840, Note_on_c, 1, 60, 127
2, 85840, Note_on_c, 1, 71, 127
2, 86200, Note_off_c, 1, 71, 0
2, 86240, Note_on_c, 1, 71, 127
2, 86560, Note_off_c, 1, 71, 0
2, 86600, Note_on_c, 1, 71, 127
2, 86680, Note_off_c, 1, 52, 0
2, 86680, Note_off_c, 1, 55, 0
2, 86680, Note_off_c, 1, 60, 0
2, 86680, Note_off_c, 1, 71, 0
2, 86720, Note_on_c, 1, 51, 127
2, 86720, Note_on_c, 1, 56, 127
2, 86720, Note_on_c, 1, 63, 127
2, 86720, Note_on_c, 1, 72, 127
2, 87080, Note_off_c, 1, 51, 0
2, 87080, Note_off_c, 1, 56, 0
2, 87080, Note_off_c, 1, 63, 0
2, 87080, Note_off_c, 1, 72, 0
2, 87120, Note_on_c, 1, 51, 127
2, 87120, Note_on_c, 1, 56, 127
2, 87120, Note_on_c, 1, 63, 127
2, 87120, Note_on_c, 1, 72, 127
2, 87160, Note_off_c, 1, 51, 0
2, 87160, Note_off_c, 1, 56, 0
2, 87160, Note_off_c, 1, 63, 0
2, 87160, Note_off_c, 1, 72, 0
2, 87200, Note_on_c, 1, 51, 127
2, 87200, Note_on_c, 1, 55, 127
2, 87200, Note_on_c, 1, 63, 127
2, 87200, Note_on_c, 1, 70, 127
2, 87640, Note_off_c, 1, 51, 0
2, 87640, Note_off_c, 1, 55, 0
2, 87640, Note_off_c, 1, 63, 0
2, 87640, Note_off_c, 1, 70, 0
2, 87680, Note_on_c, 1, 51, 127
2, 88120, Note_off_c, 1, 51, 0
2, 88160, Note_on_c, 1, 53, 127
2, 88160, Note_on_c, 1, 61, 127
2, 88160, Note_on_c, 1, 65, 127
2, 88160, Note_on_c, 1, 68, 127
2, 89040, Note_off_c, 1, 53, 0
2, 89040, Note_off_c, 1, 61, 0
2, 89040, Note_off_c, 1, 65, 0
2, 89040, Note_off_c, 1, 68, 0
2, 89120, Note_on_c, 1, 53, 127
2, 89120, Note_on_c, 1, 61, 127
2, 89120, Note_on_c, 1, 65, 127
2, 89120, Note_on_c, 1, 68, 127
2, 90880, Note_off_c, 1, 61, 0
2, 90880, Note_off_c, 1, 65, 0
2, 90960, Note_off_c, 1, 53, 0
2, 90960, Note_off_c, 1, 68, 0
2, 91000, Note_on_c, 1, 37, 127
2, 91000, Note_on_c, 1, 49, 127
2, 91000, Note_on_c, 1, 56, 127
2, 91000, Note_on_c, 1, 61, 127
2, 91000, Note_on_c, 1, 65, 127
2, 91800, Note_off_c, 1, 37, 0
2, 91800, Note_off_c, 1, 49, 0
2, 91800, Note_off_c, 1, 56, 0
2, 91800, Note_off_c, 1, 61, 0
2, 91800, Note_off_c, 1, 65, 0
2, 91840, Note_on_c, 1, 42, 127
2, 91840, Note_on_c, 1, 54, 127
2, 91840, Note_on_c, 1, 61, 127
2, 91840, Note_on_c, 1, 66, 127
2, 91840, Note_on_c, 1, 70, 127
2, 92240, Note_off_c, 1, 70, 0
2, 92280, Note_on_c, 1, 71, 127
2, 92680, Note_off_c, 1, 42, 0
2, 92680, Note_on_c, 1, 49, 127
2, 92680, Note_on_c, 1, 52, 127
2, 92680, Note_off_c, 1, 54, 0
2, 92680, Note_off_c, 1, 61, 0
2, 92680, Note_on_c, 1, 64, 127
2, 92680, Note_off_c, 1, 66, 0
2, 92680, Note_off_c, 1, 71, 0
2, 92720, Note_on_c, 1, 37, 127
2, 92720, Note_off_c, 1, 52, 0
2, 92720, Note_on_c, 1, 59, 127
2, 92720, Note_on_c, 1, 68, 127
2, 92960, Note_off_c, 1, 37, 0
2, 92960, Note_off_c, 1, 49, 0
2, 92960, Note_off_c, 1, 59, 0
2, 92960, Note_off_c, 1, 64, 0
2, 92960, Note_off_c, 1, 68, 0
2, 93000, Note_on_c, 1, 37, 127
2, 93000, Note_on_c, 1, 49, 127
2, 93000, Note_on_c, 1, 59, 127
2, 93000, Note_on_c, 1, 64, 127
2, 93000, Note_on_c, 1, 68, 127
2, 93160, Note_off_c, 1, 37, 0
2, 93160, Note_off_c, 1, 49, 0
2, 93160, Note_off_c, 1, 59, 0
2, 93160, Note_off_c, 1, 64, 0
2, 93160, Note_off_c, 1, 68, 0
2, 93200, Note_on_c, 1, 37, 127
2, 93200, Note_on_c, 1, 49, 127
2, 93200, Note_on_c, 1, 61, 127
2, 93200, Note_on_c, 1, 65, 127
2, 93200, Note_on_c, 1, 68, 127
2, 94480, Note_off_c, 1, 37, 0
2, 94480, Note_off_c, 1, 49, 0
2, 94480, Note_off_c, 1, 61, 0
2, 94480, Note_off_c, 1, 65, 0
2, 94480, Note_off_c, 1, 68, 0
2, 94520, Note_on_c, 1, 42, 127
2, 94520, Note_on_c, 1, 54, 127
2, 94520, Note_on_c, 1, 61, 127
2, 94520, Note_on_c, 1, 66, 127
2, 94520, Note_on_c, 1, 70, 127
2, 94840, Note_off_c, 1, 42, 0
2, 94840, Note_off_c, 1, 54, 0
2, 94840, Note_off_c, 1, 61, 0
2, 94840, Note_off_c, 1, 66, 0
2, 94840, Note_off_c, 1, 70, 0
2, 94880, Note_on_c, 1, 42, 127
2, 94880, Note_on_c, 1, 54, 127
2, 94880, Note_on_c, 1, 61, 127
2, 94880, Note_on_c, 1, 66, 127
2, 94880, Note_on_c, 1, 70, 127
2, 95400, Note_off_c, 1, 42, 0
2, 96320, Note_off_c, 1, 54, 0
2, 96320, Note_off_c, 1, 61, 0
2, 96320, Note_off_c, 1, 66, 0
2, 96320, Note_off_c, 1, 70, 0
2, 96360, Note_on_c, 1, 54, 127
2, 96360, Note_on_c, 1, 61, 127
2, 96360, Note_on_c, 1, 66, 127
2, 96360, Note_on_c, 1, 70, 127
2, 96840, Note_off_c, 1, 54, 0
2, 96840, Note_off_c, 1, 61, 0
2, 96840, Note_off_c, 1, 66, 0
2, 96840, Note_off_c, 1, 70, 0
2, 96880, Note_on_c, 1, 54, 127
2, 96880, Note_on_c, 1, 61, 127
2, 96880, Note_on_c, 1, 66, 127
2, 96880, Note_on_c, 1, 70, 127
2, 98360, Note_on_c, 1, 42, 127
2, 99240, Note_off_c, 1, 42, 0
2, 99240, Note_off_c, 1, 54, 0
2, 99240, Note_off_c, 1, 61, 0
2, 99240, Note_off_c, 1, 66, 0
2, 99240, Note_off_c, 1, 70, 0
2, 99280, Note_on_c, 1, 42, 127
2, 99280, Note_on_c, 1, 54, 127
2, 99280, Note_on_c, 1, 61, 127
2, 99280, Note_on_c, 1, 66, 127
2, 99280, Note_on_c, 1, 70, 127
2, 99440, Note_off_c, 1, 42, 0
2, 99440, Note_off_c, 1, 54, 0
2, 99440, Note_off_c, 1, 61, 0
2, 99440, Note_off_c, 1, 66, 0
2, 99440, Note_off_c, 1, 70, 0
2, 99480, Note_on_c, 1, 42, 127
2, 99480, Note_on_c, 1, 54, 127
2, 99480, Note_on_c, 1, 61, 127
2, 99480, Note_on_c, 1, 66, 127
2, 99480, Note_on_c, 1, 70, 127
2, 100320, Note_off_c, 1, 42, 0
2, 100320, Note_off_c, 1, 54, 0
2, 100320, Note_off_c, 1, 61, 0
2, 100320, Note_off_c, 1, 66, 0
2, 100320, Note_off_c, 1, 70, 0
2, 100360, Note_on_c, 1, 58, 127
2, 100360, Note_on_c, 1, 62, 127
2, 100360, Note_on_c, 1, 65, 127
2, 100360, Note_on_c, 1, 70, 127
2, 100360, Note_on_c, 1, 74, 127
2, 101280, Note_off_c, 1, 58, 0
2, 101280, Note_off_c, 1, 62, 0
2, 101280, Note_off_c, 1, 65, 0
2, 101280, Note_off_c, 1, 70, 0
2, 101280, Note_off_c, 1, 74, 0
2, 101320, Note_on_c, 1, 58, 127
2, 101320, Note_on_c, 1, 62, 127
2, 101320, Note_on_c, 1, 65, 127
2, 101320, Note_on_c, 1, 70, 127
2, 101320, Note_on_c, 1, 74, 127
2, 101720, Note_off_c, 1, 62, 0
2, 101720, Note_off_c, 1, 65, 0
2, 101720, Note_off_c, 1, 70, 0
2, 101720, Note_off_c, 1, 74, 0
2, 101760, Note_on_c, 1, 55, 127
2, 101760, Note_on_c, 1, 67, 127
2, 101760, Note_on_c, 1, 70, 127
2, 102640, Note_off_c, 1, 55, 0
2, 102640, Note_off_c, 1, 58, 0
2, 102640, Note_off_c, 1, 67, 0
2, 102640, Note_off_c, 1, 70, 0
2, 102680, Note_on_c, 1, 46, 127
2, 102680, Note_on_c, 1, 55, 127
2, 102680, Note_on_c, 1, 58, 127
2, 102680, Note_on_c, 1, 63, 127
2, 103280, Note_off_c, 1, 46, 0
2, 103280, Note_off_c, 1, 55, 0
2, 103280, Note_off_c, 1, 58, 0
2, 103280, Note_off_c, 1, 63, 0
2, 103320, Note_on_c, 1, 46, 127
2, 103320, Note_on_c, 1, 55, 127
2, 103320, Note_on_c, 1, 58, 127
2, 103320, Note_on_c, 1, 63, 127
2, 103600, Note_on_c, 1, 39, 127
2, 103600, Note_off_c, 1, 46, 0
2, 103640, Note_off_c, 1, 63, 0
2, 104080, Note_on_c, 1, 63, 127
2, 104920, Note_off_c, 1, 39, 0
2, 104920, Note_off_c, 1, 55, 0
2, 104920, Note_off_c, 1, 58, 0
2, 104920, Note_off_c, 1, 63, 0
2, 107080, Note_on_c, 1, 57, 127
2, 107080, Note_on_c, 1, 64, 127
2, 107080, Note_on_c, 1, 73, 127
2, 108360, Note_off_c, 1, 64, 0
2, 108400, Note_on_c, 1, 45, 127
2, 108400, Note_off_c, 1, 57, 0
2, 108400, Note_on_c, 1, 64, 127
2, 109120, Note_off_c, 1, 64, 0
2, 109160, Note_on_c, 1, 69, 127
2, 109960, Note_off_c, 1, 45, 0
2, 110000, Note_on_c, 1, 33, 127
2, 110400, Note_off_c, 1, 33, 0
2, 110440, Note_on_c, 1, 45, 127
2, 111040, Note_off_c, 1, 45, 0
2, 111040, Note_off_c, 1, 69, 0
2, 111040, Note_off_c, 1, 73, 0
2, 111080, Note_on_c, 1, 45, 127
2, 111080, Note_on_c, 1, 69, 127
2, 111080, Note_on_c, 1, 73, 127
2, 113080, Note_off_c, 1, 45, 0
2, 113160, Note_on_c, 1, 45, 127
2, 113320, Note_off_c, 1, 45, 0
2, 113320, Note_off_c, 1, 69, 0
2, 113320, Note_off_c, 1, 73, 0
2, 113360, Note_on_c, 1, 45, 127
2, 113360, Note_on_c, 1, 69, 127
2, 113360, Note_on_c, 1, 73, 127
2, 113960, Note_off_c, 1, 45, 0
2, 114000, Note_on_c, 1, 38, 127
2, 114000, Note_on_c, 1, 66, 127
2, 114000, Note_off_c, 1, 73, 0
2, 114240, Note_off_c, 1, 69, 0
2, 114560, Note_off_c, 1, 66, 0
2, 114600, Note_on_c, 1, 66, 127
2, 115080, Note_off_c, 1, 38, 0
2, 115080, Note_off_c, 1, 66, 0
2, 115120, Note_on_c, 1, 62, 127
2, 115120, Note_on_c, 1, 66, 127
2, 115520, Note_on_c, 1, 59, 127
2, 115680, Note_off_c, 1, 59, 0
2, 115680, Note_off_c, 1, 62, 0
2, 115720, Note_on_c, 1, 57, 127
2, 115920, Note_off_c, 1, 57, 0
2, 115920, Note_off_c, 1, 66, 0
2, 115960, Note_on_c, 1, 57, 127
2, 115960, Note_on_c, 1, 66, 127
2, 116320, Note_off_c, 1, 57, 0
2, 116320, Note_off_c, 1, 66, 0
2, 116360, Note_on_c, 1, 47, 127
2, 116360, Note_on_c, 1, 74, 127
2, 116960, Note_on_c, 1, 62, 127
2, 117520, Note_on_c, 1, 44, 127
2, 117520, Note_off_c, 1, 47, 0
2, 117520, Note_on_c, 1, 71, 127
2, 117520, Note_off_c, 1, 74, 0
2, 117960, Note_off_c, 1, 44, 0
2, 117960, Note_off_c, 1, 62, 0
2, 117960, Note_off_c, 1, 71, 0
2, 118000, Note_on_c, 1, 44, 127
2, 118000, Note_on_c, 1, 62, 127
2, 118000, Note_on_c, 1, 71, 127
2, 118160, Note_off_c, 1, 44, 0
2, 118200, Note_on_c, 1, 44, 127
2, 120000, Note_off_c, 1, 44, 0
2, 120000, Note_off_c, 1, 62, 0
2, 120000, Note_off_c, 1, 71, 0
2, 120040, End_track
3, 0, Start_track
3, 0, Title_t, "MIDI"
3, 1536, End_track
0, 0, End_of_file
