0, 0, Header, 1, 3, 192
1, 0, Start_track
1, 0, Time_signature, 4, 2, 24, 8
1, 0, Tempo, 500000
1, 120040, End_track
2, 0, Start_track
2, 0, Text_t, "random instrument: random person i dunno whatev"
2, 0, Title_t, "Track 1"
2, 0, Note_on_c, 1, 40, 127
2, 0, Note_on_c, 1, 48, 127
2, 0, Note_on_c, 1, 56, 127
2, 0, Note_on_c, 1, 60, 127
2, 40, Note_off_c, 1, 40, 0
2, 40, Note_off_c, 1, 48, 0
2, 40, Note_on_c, 1, 55, 127
2, 40, Note_off_c, 1, 56, 0
2, 40, Note_off_c, 1, 60, 0
2, 40, Note_on_c, 1, 72, 127
2, 40, Note_on_c, 1, 75, 127
2, 40, Note_on_c, 1, 79, 127
2, 40, Note_on_c, 1, 84, 127
2, 80, Note_off_c, 1, 55, 0
2, 80, Note_off_c, 1, 72, 0
2, 80, Note_off_c, 1, 75, 0
2, 80, Note_off_c, 1, 79, 0
2, 80, Note_off_c, 1, 84, 0
2, 120, Note_on_c, 1, 50, 127
2, 120, Note_on_c, 1, 59, 127
2, 120, Note_on_c, 1, 62, 127
2, 120, Note_on_c, 1, 78, 127
2, 160, Note_off_c, 1, 50, 0
2, 160, Note_off_c, 1, 59, 0
2, 160, Note_on_c, 1, 60, 127
2, 160, Note_off_c, 1, 62, 0
2, 160, Note_on_c, 1, 66, 127
2, 160, Note_on_c, 1, 68, 127
2, 160, Note_off_c, 1, 78, 0
2, 160, Note_on_c, 1, 90, 127
2, 200, Note_on_c, 1, 35, 127
2, 200, Note_on_c, 1, 39, 127
2, 200, Note_on_c, 1, 47, 127
2, 200, Note_on_c, 1, 50, 127
2, 200, Note_off_c, 1, 60, 0
2, 200, Note_off_c, 1, 66, 0
2, 200, Note_off_c, 1, 68, 0
2, 200, Note_off_c, 1, 90, 0
2, 240, Note_off_c, 1, 35, 0
2, 240, Note_off_c, 1, 39, 0
2, 240, Note_off_c, 1, 47, 0
2, 240, Note_off_c, 1, 50, 0
2, 240, Note_on_c, 1, 51, 127
2, 240, Note_on_c, 1, 55, 127
2, 240, Note_on_c, 1, 58, 127
2, 240, Note_on_c, 1, 63, 127
2, 240, Note_on_c, 1, 82, 127
2, 240, Note_on_c, 1, 91, 127
2, 280, Note_off_c, 1, 51, 0
2, 280, Note_off_c, 1, 55, 0
2, 280, Note_off_c, 1, 58, 0
2, 280, Note_off_c, 1, 63, 0
2, 280, Note_on_c, 1, 76, 127
2, 280, Note_on_c, 1, 80, 127
2, 280, Note_off_c, 1, 82, 0
2, 280, Note_on_c, 1, 83, 127
2, 280, Note_on_c, 1, 89, 127
2, 280, Note_off_c, 1, 91, 0
2, 320, Note_on_c, 1, 58, 127
2, 320, Note_on_c, 1, 63, 127
2, 320, Note_on_c, 1, 66, 127
2, 320, Note_on_c, 1, 72, 127
2, 320, Note_on_c, 1, 75, 127
2, 320, Note_off_c, 1, 76, 0
2, 320, Note_off_c, 1, 80, 0
2, 320, Note_on_c, 1, 82, 127
2, 320, Note_off_c, 1, 83, 0
2, 320, Note_on_c, 1, 87, 127
2, 320, Note_off_c, 1, 89, 0
2, 360, Note_on_c, 1, 57, 127
2, 360, Note_off_c, 1, 58, 0
2, 360, Note_on_c, 1, 62, 127
2, 360, Note_off_c, 1, 63, 0
2, 360, Note_off_c, 1, 66, 0
2, 360, Note_off_c, 1, 72, 0
2, 360, Note_off_c, 1, 75, 0
2, 360, Note_off_c, 1, 82, 0
2, 360, Note_off_c, 1, 87, 0
2, 400, Note_off_c, 1, 57, 0
2, 400, Note_on_c, 1, 60, 127
2, 400, Note_off_c, 1, 62, 0
2, 400, Note_on_c, 1, 85, 127
2, 400, Note_on_c, 1, 88, 127
2, 440, Note_on_c, 1, 50, 127
2, 440, Note_on_c, 1, 57, 127
2, 440, Note_off_c, 1, 60, 0
2, 440, Note_on_c, 1, 65, 127
2, 440, Note_off_c, 1, 85, 0
2, 440, Note_off_c, 1, 88, 0
2, 440, Note_on_c, 1, 93, 127
2, 800, Note_off_c, 1, 50, 0
2, 800, Note_off_c, 1, 57, 0
2, 800, Note_off_c, 1, 65, 0
2, 800, Note_off_c, 1, 93, 0
2, 1440, Note_on_c, 1, 44, 127
2, 1440, Note_on_c, 1, 56, 127
2, 1440, Note_on_c, 1, 72, 127
2, 1440, Note_on_c, 1, 80, 127
2, 2000, Note_off_c, 1, 44, 0
2, 2000, Note_off_c, 1, 56, 0
2, 2000, Note_off_c, 1, 72, 0
2, 2000, Note_off_c, 1, 80, 0
2, 2240, Note_on_c, 1, 32, 127
2, 2240, Note_on_c, 1, 44, 127
2, 2240, Note_on_c, 1, 56, 127
2, 2440, Note_off_c, 1, 32, 0
2, 2440, Note_off_c, 1, 44, 0
2, 2440, Note_off_c, 1, 56, 0
2, 5240, Note_on_c, 1, 43, 127
2, 5240, Note_on_c, 1, 50, 127
2, 5240, Note_on_c, 1, 60, 127
2, 5240, Note_on_c, 1, 62, 127
2, 5240, Note_on_c, 1, 69, 127
2, 5480, Note_off_c, 1, 43, 0
2, 5480, Note_off_c, 1, 50, 0
2, 5480, Note_off_c, 1, 60, 0
2, 5480, Note_off_c, 1, 62, 0
2, 5480, Note_off_c, 1, 69, 0
2, 5800, Note_on_c, 1, 52, 127
2, 5800, Note_on_c, 1, 55, 127
2, 5800, Note_on_c, 1, 58, 127
2, 5800, Note_on_c, 1, 61, 127
2, 5800, Note_on_c, 1, 70, 127
2, 5960, Note_off_c, 1, 52, 0
2, 5960, Note_off_c, 1, 55, 0
2, 5960, Note_off_c, 1, 58, 0
2, 5960, Note_off_c, 1, 61, 0
2, 5960, Note_off_c, 1, 70, 0
2, 6120, Note_on_c, 1, 47, 127
2, 6120, Note_on_c, 1, 56, 127
2, 6120, Note_on_c, 1, 64, 127
2, 6120, Note_on_c, 1, 70, 127
2, 6160, Note_off_c, 1, 47, 0
2, 6160, Note_off_c, 1, 56, 0
2, 6160, Note_off_c, 1, 64, 0
2, 6160, Note_off_c, 1, 70, 0
2, 6200, Note_on_c, 1, 42, 127
2, 6200, Note_on_c, 1, 52, 127
2, 6200, Note_on_c, 1, 59, 127
2, 6200, Note_on_c, 1, 64, 127
2, 6240, Note_off_c, 1, 42, 0
2, 6240, Note_off_c, 1, 52, 0
2, 6240, Note_off_c, 1, 59, 0
2, 6240, Note_off_c, 1, 64, 0
2, 6240, Note_on_c, 1, 67, 127
2, 6240, Note_on_c, 1, 70, 127
2, 6240, Note_on_c, 1, 84, 127
2, 6240, Note_on_c, 1, 87, 127
2, 6240, Note_on_c, 1, 93, 127
2, 6280, Note_on_c, 1, 55, 127
2, 6280, Note_on_c, 1, 61, 127
2, 6280, Note_on_c, 1, 64, 127
2, 6280, Note_off_c, 1, 67, 0
2, 6280, Note_on_c, 1, 69, 127
2, 6280, Note_off_c, 1, 70, 0
2, 6280, Note_off_c, 1, 84, 0
2, 6280, Note_on_c, 1, 85, 127
2, 6280, Note_off_c, 1, 87, 0
2, 6280, Note_off_c, 1, 93, 0
2, 6320, Note_on_c, 1, 35, 127
2, 6320, Note_on_c, 1, 47, 127
2, 6320, Note_off_c, 1, 55, 0
2, 6320, Note_off_c, 1, 61, 0
2, 6320, Note_off_c, 1, 64, 0
2, 6320, Note_off_c, 1, 69, 0
2, 6320, Note_on_c, 1, 74, 127
2, 6320, Note_on_c, 1, 79, 127
2, 6320, Note_on_c, 1, 83, 127
2, 6320, Note_off_c, 1, 85, 0
2, 6360, Note_off_c, 1, 35, 0
2, 6360, Note_off_c, 1, 47, 0
2, 6360, Note_off_c, 1, 74, 0
2, 6360, Note_off_c, 1, 79, 0
2, 6360, Note_off_c, 1, 83, 0
2, 6400, Note_on_c, 1, 46, 127
2, 6400, Note_on_c, 1, 54, 127
2, 6400, Note_on_c, 1, 59, 127
2, 6440, Note_off_c, 1, 46, 0
2, 6440, Note_off_c, 1, 54, 0
2, 6440, Note_off_c, 1, 59, 0
2, 6600, Note_on_c, 1, 41, 127
2, 6600, Note_on_c, 1, 53, 127
2, 6600, Note_on_c, 1, 56, 127
2, 6600, Note_on_c, 1, 73, 127
2, 6600, Note_on_c, 1, 80, 127
2, 6840, Note_off_c, 1, 41, 0
2, 6840, Note_off_c, 1, 53, 0
2, 6840, Note_off_c, 1, 56, 0
2, 6840, Note_off_c, 1, 73, 0
2, 6840, Note_off_c, 1, 80, 0
2, 6880, Note_on_c, 1, 42, 127
2, 6880, Note_on_c, 1, 54, 127
2, 6880, Note_on_c, 1, 58, 127
2, 6880, Note_on_c, 1, 61, 127
2, 6880, Note_on_c, 1, 66, 127
2, 6880, Note_on_c, 1, 70, 127
2, 7040, Note_off_c, 1, 42, 0
2, 7040, Note_off_c, 1, 54, 0
2, 7040, Note_off_c, 1, 58, 0
2, 7040, Note_off_c, 1, 61, 0
2, 7040, Note_off_c, 1, 66, 0
2, 7040, Note_off_c, 1, 70, 0
2, 7080, Note_on_c, 1, 58, 127
2, 7080, Note_on_c, 1, 61, 127
2, 7080, Note_on_c, 1, 68, 127
2, 7080, Note_on_c, 1, 75, 127
2, 7400, Note_off_c, 1, 58, 0
2, 7400, Note_off_c, 1, 61, 0
2, 7400, Note_off_c, 1, 68, 0
2, 7400, Note_off_c, 1, 75, 0
2, 7440, Note_on_c, 1, 58, 127
2, 7440, Note_on_c, 1, 61, 127
2, 7440, Note_on_c, 1, 68, 127
2, 7440, Note_on_c, 1, 75, 127
2, 7480, Note_off_c, 1, 58, 0
2, 7480, Note_off_c, 1, 61, 0
2, 7480, Note_off_c, 1, 68, 0
2, 7480, Note_off_c, 1, 75, 0
2, 7520, Note_on_c, 1, 56, 127
2, 7520, Note_on_c, 1, 60, 127
2, 7520, Note_on_c, 1, 66, 127
2, 7520, Note_on_c, 1, 68, 127
2, 7520, Note_on_c, 1, 75, 127
2, 7760, Note_off_c, 1, 68, 0
2, 7800, Note_off_c, 1, 56, 0
2, 7800, Note_off_c, 1, 60, 0
2, 7800, Note_off_c, 1, 66, 0
2, 7800, Note_off_c, 1, 75, 0
2, 7840, Note_on_c, 1, 56, 127
2, 7840, Note_on_c, 1, 63, 127
2, 7840, Note_on_c, 1, 66, 127
2, 7840, Note_on_c, 1, 68, 127
2, 8080, Note_off_c, 1, 56, 0
2, 8080, Note_off_c, 1, 63, 0
2, 8080, Note_off_c, 1, 66, 0
2, 8080, Note_off_c, 1, 68, 0
2, 8120, Note_on_c, 1, 37, 127
2, 8120, Note_on_c, 1, 49, 127
2, 8120, Note_on_c, 1, 64, 127
2, 8120, Note_on_c, 1, 68, 127
2, 8120, Note_on_c, 1, 73, 127
2, 8200, Note_off_c, 1, 64, 0
2, 8320, Note_off_c, 1, 37, 0
2, 8320, Note_on_c, 1, 42, 127
2, 8320, Note_off_c, 1, 49, 0
2, 8320, Note_on_c, 1, 54, 127
2, 8320, Note_on_c, 1, 61, 127
2, 8320, Note_on_c, 1, 66, 127
2, 8320, Note_off_c, 1, 68, 0
2, 8320, Note_on_c, 1, 70, 127
2, 8320, Note_off_c, 1, 73, 0
2, 8360, Note_off_c, 1, 42, 0
2, 8360, Note_off_c, 1, 54, 0
2, 8360, Note_off_c, 1, 61, 0
2, 8360, Note_off_c, 1, 66, 0
2, 8360, Note_off_c, 1, 70, 0
2, 8400, Note_on_c, 1, 48, 127
2, 8400, Note_on_c, 1, 64, 127
2, 8400, Note_on_c, 1, 69, 127
2, 8400, Note_on_c, 1, 73, 127
2, 8440, Note_off_c, 1, 48, 0
2, 8520, Note_on_c, 1, 49, 127
2, 8560, Note_off_c, 1, 49, 0
2, 8640, Note_on_c, 1, 52, 127
2, 8680, Note_off_c, 1, 52, 0
2, 8680, Note_off_c, 1, 64, 0
2, 8680, Note_off_c, 1, 69, 0
2, 8680, Note_off_c, 1, 73, 0
2, 8720, Note_on_c, 1, 47, 127
2, 8720, Note_on_c, 1, 63, 127
2, 8720, Note_on_c, 1, 69, 127
2, 8720, Note_on_c, 1, 73, 127
2, 8760, Note_off_c, 1, 47, 0
2, 8760, Note_off_c, 1, 63, 0
2, 8760, Note_off_c, 1, 69, 0
2, 8760, Note_off_c, 1, 73, 0
2, 8800, Note_on_c, 1, 61, 127
2, 8800, Note_on_c, 1, 66, 127
2, 8800, Note_on_c, 1, 69, 127
2, 8800, Note_on_c, 1, 73, 127
2, 8800, Note_on_c, 1, 76, 127
2, 8960, Note_off_c, 1, 61, 0
2, 8960, Note_off_c, 1, 66, 0
2, 8960, Note_off_c, 1, 76, 0
2, 9000, Note_on_c, 1, 45, 127
2, 9160, Note_off_c, 1, 45, 0
2, 9200, Note_on_c, 1, 40, 127
2, 9200, Note_on_c, 1, 47, 127
2, 9200, Note_on_c, 1, 52, 127
2, 9200, Note_off_c, 1, 69, 0
2, 9200, Note_off_c, 1, 73, 0
2, 9200, Note_on_c, 1, 76, 127
2, 9200, Note_on_c, 1, 79, 127
2, 9200, Note_on_c, 1, 83, 127
2, 9360, Note_off_c, 1, 76, 0
2, 9360, Note_off_c, 1, 79, 0
2, 9360, Note_off_c, 1, 83, 0
2, 9400, Note_off_c, 1, 40, 0
2, 9400, Note_off_c, 1, 47, 0
2, 9400, Note_off_c, 1, 52, 0
2, 9400, Note_on_c, 1, 54, 127
2, 9400, Note_on_c, 1, 60, 127
2, 9400, Note_on_c, 1, 78, 127
2, 9400, Note_on_c, 1, 90, 127
2, 9520, Note_off_c, 1, 54, 0
2, 9520, Note_on_c, 1, 58, 127
2, 9520, Note_off_c, 1, 60, 0
2, 9520, Note_on_c, 1, 67, 127
2, 9520, Note_on_c, 1, 70, 127
2, 9520, Note_on_c, 1, 76, 127
2, 9520, Note_off_c, 1, 78, 0
2, 9520, Note_on_c, 1, 85, 127
2, 9520, Note_off_c, 1, 90, 0
2, 9560, Note_off_c, 1, 58, 0
2, 9560, Note_off_c, 1, 67, 0
2, 9560, Note_off_c, 1, 70, 0
2, 9560, Note_off_c, 1, 76, 0
2, 9560, Note_off_c, 1, 85, 0
2, 9640, Note_on_c, 1, 53, 127
2, 9640, Note_on_c, 1, 57, 127
2, 9640, Note_on_c, 1, 59, 127
2, 9640, Note_on_c, 1, 62, 127
2, 9760, Note_on_c, 1, 52, 127
2, 9760, Note_off_c, 1, 53, 0
2, 9760, Note_on_c, 1, 56, 127
2, 9760, Note_off_c, 1, 57, 0
2, 9760, Note_off_c, 1, 62, 0
2, 9760, Note_on_c, 1, 64, 127
2, 10000, Note_off_c, 1, 52, 0
2, 10000, Note_off_c, 1, 56, 0
2, 10000, Note_off_c, 1, 59, 0
2, 10000, Note_off_c, 1, 64, 0
2, 10040, Note_on_c, 1, 42, 127
2, 10040, Note_on_c, 1, 49, 127
2, 10080, Note_on_c, 1, 37, 127
2, 10080, Note_off_c, 1, 42, 0
2, 10080, Note_off_c, 1, 49, 0
2, 10080, Note_on_c, 1, 54, 127
2, 10080, Note_on_c, 1, 59, 127
2, 10080, Note_on_c, 1, 63, 127
2, 10200, Note_on_c, 1, 35, 127
2, 10200, Note_off_c, 1, 37, 0
2, 10240, Note_off_c, 1, 35, 0
2, 10240, Note_on_c, 1, 37, 127
2, 10680, Note_on_c, 1, 68, 127
2, 10720, Note_off_c, 1, 37, 0
2, 10720, Note_off_c, 1, 54, 0
2, 10720, Note_off_c, 1, 59, 0
2, 10720, Note_off_c, 1, 63, 0
2, 10720, Note_off_c, 1, 68, 0
2, 10880, Note_on_c, 1, 58, 127
2, 10960, Note_off_c, 1, 58, 0
2, 10960, Note_on_c, 1, 59, 127
2, 11040, Note_off_c, 1, 59, 0
2, 11040, Note_on_c, 1, 63, 127
2, 11080, Note_on_c, 1, 35, 127
2, 11080, Note_off_c, 1, 63, 0
2, 11080, Note_on_c, 1, 66, 127
2, 11120, Note_off_c, 1, 66, 0
2, 11160, Note_off_c, 1, 35, 0
2, 11160, Note_on_c, 1, 44, 127
2, 11160, Note_on_c, 1, 72, 127
2, 11160, Note_on_c, 1, 75, 127
2, 11200, Note_off_c, 1, 44, 0
2, 11200, Note_on_c, 1, 62, 127
2, 11200, Note_on_c, 1, 68, 127
2, 11200, Note_off_c, 1, 72, 0
2, 11200, Note_off_c, 1, 75, 0
2, 11200, Note_on_c, 1, 86, 127
2, 11200, Note_on_c, 1, 89, 127
2, 11240, Note_on_c, 1, 40, 127
2, 11240, Note_off_c, 1, 62, 0
2, 11240, Note_off_c, 1, 68, 0
2, 11240, Note_on_c, 1, 72, 127
2, 11240, Note_on_c, 1, 79, 127
2, 11240, Note_on_c, 1, 82, 127
2, 11240, Note_off_c, 1, 86, 0
2, 11240, Note_off_c, 1, 89, 0
2, 11280, Note_off_c, 1, 40, 0
2, 11280, Note_on_c, 1, 51, 127
2, 11280, Note_on_c, 1, 53, 127
2, 11280, Note_on_c, 1, 56, 127
2, 11280, Note_on_c, 1, 59, 127
2, 11280, Note_on_c, 1, 71, 127
2, 11280, Note_off_c, 1, 72, 0
2, 11280, Note_on_c, 1, 75, 127
2, 11280, Note_off_c, 1, 79, 0
2, 11280, Note_off_c, 1, 82, 0
2, 11320, Note_on_c, 1, 40, 127
2, 11320, Note_off_c, 1, 51, 0
2, 11320, Note_off_c, 1, 53, 0
2, 11320, Note_off_c, 1, 56, 0
2, 11320, Note_off_c, 1, 59, 0
2, 11320, Note_off_c, 1, 71, 0
2, 11320, Note_on_c, 1, 72, 127
2, 11320, Note_off_c, 1, 75, 0
2, 11320, Note_on_c, 1, 79, 127
2, 11320, Note_on_c, 1, 82, 127
2, 11440, Note_off_c, 1, 40, 0
2, 11440, Note_off_c, 1, 72, 0
2, 11440, Note_off_c, 1, 79, 0
2, 11440, Note_off_c, 1, 82, 0
2, 11480, Note_on_c, 1, 35, 127
2, 11560, Note_on_c, 1, 47, 127
2, 11560, Note_on_c, 1, 61, 127
2, 11760, Note_off_c, 1, 35, 0
2, 11760, Note_off_c, 1, 47, 0
2, 11760, Note_off_c, 1, 61, 0
2, 11800, Note_on_c, 1, 35, 127
2, 11800, Note_on_c, 1, 47, 127
2, 11800, Note_on_c, 1, 61, 127
2, 11840, Note_off_c, 1, 61, 0
2, 11880, Note_on_c, 1, 64, 127
2, 12080, Note_on_c, 1, 63, 127
2, 12080, Note_off_c, 1, 64, 0
2, 12120, Note_on_c, 1, 51, 127
2, 12120, Note_off_c, 1, 63, 0
2, 12160, Note_off_c, 1, 35, 0
2, 12160, Note_off_c, 1, 47, 0
2, 12160, Note_off_c, 1, 51, 0
2, 12200, Note_on_c, 1, 42, 127
2, 12200, Note_on_c, 1, 59, 127
2, 12440, Note_off_c, 1, 42, 0
2, 12480, Note_on_c, 1, 40, 127
2, 12480, Note_off_c, 1, 59, 0
2, 12480, Note_on_c, 1, 61, 127
2, 12520, Note_off_c, 1, 40, 0
2, 12520, Note_off_c, 1, 61, 0
2, 12560, Note_on_c, 1, 61, 127
2, 12600, Note_on_c, 1, 44, 127
2, 12600, Note_on_c, 1, 59, 127
2, 12600, Note_off_c, 1, 61, 0
2, 12640, Note_on_c, 1, 58, 127
2, 12640, Note_off_c, 1, 59, 0
2, 12680, Note_off_c, 1, 58, 0
2, 12680, Note_on_c, 1, 59, 127
2, 12720, Note_off_c, 1, 44, 0
2, 12760, Note_on_c, 1, 42, 127
2, 12840, Note_off_c, 1, 42, 0
2, 12880, Note_on_c, 1, 42, 127
2, 12920, Note_off_c, 1, 42, 0
2, 12960, Note_on_c, 1, 42, 127
2, 12960, Note_on_c, 1, 56, 127
2, 12960, Note_off_c, 1, 59, 0
2, 13000, Note_off_c, 1, 56, 0
2, 13000, Note_on_c, 1, 59, 127
2, 13040, Note_on_c, 1, 35, 127
2, 13040, Note_off_c, 1, 42, 0
2, 13040, Note_off_c, 1, 59, 0
2, 13080, Note_off_c, 1, 35, 0
2, 13080, Note_on_c, 1, 42, 127
2, 13080, Note_on_c, 1, 59, 127
2, 13120, Note_off_c, 1, 42, 0
2, 13160, Note_on_c, 1, 42, 127
2, 13200, Note_off_c, 1, 42, 0
2, 13200, Note_on_c, 1, 44, 127
2, 13240, Note_off_c, 1, 44, 0
2, 13240, Note_off_c, 1, 59, 0
2, 13280, Note_on_c, 1, 46, 127
2, 13280, Note_on_c, 1, 58, 127
2, 13280, Note_on_c, 1, 62, 127
2, 13320, Note_off_c, 1, 46, 0
2, 13320, Note_off_c, 1, 58, 0
2, 13320, Note_off_c, 1, 62, 0
2, 13320, Note_on_c, 1, 63, 127
2, 13360, Note_on_c, 1, 36, 127
2, 13360, Note_on_c, 1, 46, 127
2, 13360, Note_on_c, 1, 62, 127
2, 13360, Note_off_c, 1, 63, 0
2, 13400, Note_off_c, 1, 36, 0
2, 13400, Note_off_c, 1, 46, 0
2, 13400, Note_off_c, 1, 62, 0
2, 13400, Note_on_c, 1, 64, 127
2, 13400, Note_on_c, 1, 76, 127
2, 13400, Note_on_c, 1, 88, 127
2, 13400, Note_on_c, 1, 92, 127
2, 13440, Note_on_c, 1, 35, 127
2, 13440, Note_on_c, 1, 47, 127
2, 13440, Note_off_c, 1, 64, 0
2, 13440, Note_on_c, 1, 74, 127
2, 13440, Note_off_c, 1, 76, 0
2, 13440, Note_on_c, 1, 78, 127
2, 13440, Note_on_c, 1, 83, 127
2, 13440, Note_off_c, 1, 88, 0
2, 13440, Note_off_c, 1, 92, 0
2, 13480, Note_on_c, 1, 42, 127
2, 13480, Note_off_c, 1, 47, 0
2, 13480, Note_on_c, 1, 58, 127
2, 13480, Note_on_c, 1, 64, 127
2, 13480, Note_off_c, 1, 74, 0
2, 13480, Note_off_c, 1, 78, 0
2, 13480, Note_off_c, 1, 83, 0
2, 13520, Note_off_c, 1, 35, 0
2, 13520, Note_off_c, 1, 42, 0
2, 13520, Note_on_c, 1, 52, 127
2, 13520, Note_on_c, 1, 56, 127
2, 13520, Note_off_c, 1, 58, 0
2, 13520, Note_on_c, 1, 59, 127
2, 13520, Note_off_c, 1, 64, 0
2, 13560, Note_on_c, 1, 40, 127
2, 13560, Note_on_c, 1, 47, 127
2, 13560, Note_off_c, 1, 52, 0
2, 13560, Note_on_c, 1, 64, 127
2, 13720, Note_off_c, 1, 40, 0
2, 13720, Note_off_c, 1, 47, 0
2, 13720, Note_off_c, 1, 56, 0
2, 13720, Note_off_c, 1, 59, 0
2, 13720, Note_off_c, 1, 64, 0
2, 13800, Note_on_c, 1, 46, 127
2, 13800, Note_on_c, 1, 49, 127
2, 13800, Note_on_c, 1, 52, 127
2, 13800, Note_on_c, 1, 54, 127
2, 13800, Note_on_c, 1, 66, 127
2, 13960, Note_on_c, 1, 64, 127
2, 13960, Note_off_c, 1, 66, 0
2, 14000, Note_on_c, 1, 61, 127
2, 14000, Note_off_c, 1, 64, 0
2, 14120, Note_off_c, 1, 46, 0
2, 14120, Note_off_c, 1, 49, 0
2, 14120, Note_off_c, 1, 52, 0
2, 14120, Note_off_c, 1, 54, 0
2, 14120, Note_on_c, 1, 58, 127
2, 14120, Note_off_c, 1, 61, 0
2, 14160, Note_on_c, 1, 66, 127
2, 14160, Note_on_c, 1, 71, 127
2, 14240, Note_off_c, 1, 71, 0
2, 14360, Note_on_c, 1, 42, 127
2, 14360, Note_off_c, 1, 58, 0
2, 14360, Note_on_c, 1, 59, 127
2, 14360, Note_on_c, 1, 63, 127
2, 14360, Note_off_c, 1, 66, 0
2, 14400, Note_off_c, 1, 42, 0
2, 14400, Note_on_c, 1, 51, 127
2, 14400, Note_off_c, 1, 59, 0
2, 14400, Note_on_c, 1, 70, 127
2, 14400, Note_on_c, 1, 82, 127
2, 14440, Note_off_c, 1, 51, 0
2, 14440, Note_on_c, 1, 58, 127
2, 14440, Note_off_c, 1, 63, 0
2, 14440, Note_on_c, 1, 66, 127
2, 14440, Note_off_c, 1, 70, 0
2, 14440, Note_off_c, 1, 82, 0
2, 14520, Note_on_c, 1, 54, 127
2, 14520, Note_off_c, 1, 58, 0
2, 14560, Note_on_c, 1, 60, 127
2, 14560, Note_off_c, 1, 66, 0
2, 14560, Note_on_c, 1, 69, 127
2, 14560, Note_on_c, 1, 72, 127
2, 14600, Note_off_c, 1, 54, 0
2, 14600, Note_off_c, 1, 72, 0
2, 14640, Note_on_c, 1, 54, 127
2, 14640, Note_on_c, 1, 72, 127
2, 14720, Note_off_c, 1, 54, 0
2, 14720, Note_off_c, 1, 69, 0
2, 14720, Note_off_c, 1, 72, 0
2, 14760, Note_on_c, 1, 69, 127
2, 14840, Note_off_c, 1, 60, 0
2, 14880, Note_on_c, 1, 60, 127
2, 14920, Note_off_c, 1, 60, 0
2, 14960, Note_on_c, 1, 49, 127
2, 14960, Note_on_c, 1, 66, 127
2, 14960, Note_on_c, 1, 68, 127
2, 14960, Note_off_c, 1, 69, 0
2, 15040, Note_off_c, 1, 49, 0
2, 15040, Note_off_c, 1, 66, 0
2, 15040, Note_off_c, 1, 68, 0
2, 15080, Note_on_c, 1, 49, 127
2, 15080, Note_on_c, 1, 56, 127
2, 15080, Note_on_c, 1, 64, 127
2, 15120, Note_off_c, 1, 56, 0
2, 15120, Note_off_c, 1, 64, 0
2, 15160, Note_on_c, 1, 56, 127
2, 15160, Note_on_c, 1, 64, 127
2, 15200, Note_on_c, 1, 48, 127
2, 15200, Note_off_c, 1, 49, 0
2, 15200, Note_off_c, 1, 64, 0
2, 15240, Note_off_c, 1, 48, 0
2, 15240, Note_off_c, 1, 56, 0
2, 15280, Note_on_c, 1, 56, 127
2, 15360, Note_on_c, 1, 37, 127
2, 15360, Note_off_c, 1, 56, 0
2, 15360, Note_on_c, 1, 61, 127
2, 15360, Note_on_c, 1, 69, 127
2, 15520, Note_off_c, 1, 37, 0
2, 15560, Note_on_c, 1, 37, 127
2, 15720, Note_off_c, 1, 37, 0
2, 15720, Note_off_c, 1, 69, 0
2, 15760, Note_off_c, 1, 61, 0
2, 15800, Note_on_c, 1, 37, 127
2, 15800, Note_on_c, 1, 56, 127
2, 15800, Note_on_c, 1, 65, 127
2, 15960, Note_off_c, 1, 56, 0
2, 16000, Note_on_c, 1, 56, 127
2, 16040, Note_off_c, 1, 37, 0
2, 16040, Note_on_c, 1, 44, 127
2, 16040, Note_on_c, 1, 54, 127
2, 16040, Note_off_c, 1, 56, 0
2, 16040, Note_on_c, 1, 60, 127
2, 16040, Note_on_c, 1, 64, 127
2, 16040, Note_off_c, 1, 65, 0
2, 16080, Note_off_c, 1, 44, 0
2, 16080, Note_off_c, 1, 54, 0
2, 16080, Note_on_c, 1, 57, 127
2, 16080, Note_on_c, 1, 63, 127
2, 16080, Note_off_c, 1, 64, 0
2, 16080, Note_on_c, 1, 72, 127
2, 16080, Note_on_c, 1, 78, 127
2, 16080, Note_on_c, 1, 83, 127
2, 16120, Note_off_c, 1, 57, 0
2, 16120, Note_off_c, 1, 60, 0
2, 16120, Note_off_c, 1, 63, 0
2, 16120, Note_off_c, 1, 72, 0
2, 16120, Note_off_c, 1, 78, 0
2, 16120, Note_off_c, 1, 83, 0
2, 16160, Note_on_c, 1, 45, 127
2, 16160, Note_on_c, 1, 66, 127
2, 16360, Note_off_c, 1, 45, 0
2, 16360, Note_on_c, 1, 49, 127
2, 16360, Note_on_c, 1, 62, 127
2, 16360, Note_off_c, 1, 66, 0
2, 16360, Note_on_c, 1, 71, 127
2, 16400, Note_off_c, 1, 49, 0
2, 16400, Note_on_c, 1, 53, 127
2, 16400, Note_off_c, 1, 62, 0
2, 16400, Note_on_c, 1, 63, 127
2, 16400, Note_off_c, 1, 71, 0
2, 16440, Note_off_c, 1, 53, 0
2, 16440, Note_on_c, 1, 62, 127
2, 16440, Note_off_c, 1, 63, 0
2, 16440, Note_on_c, 1, 72, 127
2, 16480, Note_off_c, 1, 72, 0
2, 16520, Note_off_c, 1, 62, 0
2, 16520, Note_on_c, 1, 74, 127
2, 16560, Note_on_c, 1, 57, 127
2, 16560, Note_on_c, 1, 66, 127
2, 16560, Note_off_c, 1, 74, 0
2, 16600, Note_on_c, 1, 47, 127
2, 16600, Note_on_c, 1, 56, 127
2, 16600, Note_off_c, 1, 57, 0
2, 16600, Note_on_c, 1, 65, 127
2, 16600, Note_off_c, 1, 66, 0
2, 16600, Note_on_c, 1, 74, 127
2, 16640, Note_off_c, 1, 47, 0
2, 16640, Note_off_c, 1, 56, 0
2, 16640, Note_on_c, 1, 57, 127
2, 16640, Note_off_c, 1, 65, 0
2, 16640, Note_on_c, 1, 66, 127
2, 16640, Note_off_c, 1, 74, 0
2, 16760, Note_on_c, 1, 60, 127
2, 16800, Note_off_c, 1, 60, 0
2, 16840, Note_off_c, 1, 57, 0
2, 16840, Note_on_c, 1, 64, 127
2, 16840, Note_off_c, 1, 66, 0
2, 16840, Note_on_c, 1, 67, 127
2, 16840, Note_on_c, 1, 69, 127
2, 16880, Note_off_c, 1, 64, 0
2, 16880, Note_off_c, 1, 67, 0
2, 16920, Note_on_c, 1, 57, 127
2, 16920, Note_off_c, 1, 69, 0
2, 16920, Note_on_c, 1, 73, 127
2, 16960, Note_on_c, 1, 45, 127
2, 16960, Note_on_c, 1, 55, 127
2, 16960, Note_off_c, 1, 57, 0
2, 16960, Note_on_c, 1, 59, 127
2, 16960, Note_off_c, 1, 73, 0
2, 17000, Note_off_c, 1, 55, 0
2, 17000, Note_off_c, 1, 59, 0
2, 17000, Note_on_c, 1, 62, 127
2, 17040, Note_on_c, 1, 38, 127
2, 17040, Note_on_c, 1, 61, 127
2, 17040, Note_off_c, 1, 62, 0
2, 17080, Note_off_c, 1, 61, 0
2, 17080, Note_on_c, 1, 62, 127
2, 17080, Note_on_c, 1, 66, 127
2, 17080, Note_on_c, 1, 69, 127
2, 17080, Note_on_c, 1, 74, 127
2, 17120, Note_on_c, 1, 61, 127
2, 17120, Note_off_c, 1, 62, 0
2, 17120, Note_off_c, 1, 66, 0
2, 17120, Note_off_c, 1, 69, 0
2, 17120, Note_off_c, 1, 74, 0
2, 17160, Note_on_c, 1, 57, 127
2, 17160, Note_off_c, 1, 61, 0
2, 17160, Note_on_c, 1, 71, 127
2, 17200, Note_off_c, 1, 57, 0
2, 17200, Note_on_c, 1, 61, 127
2, 17200, Note_off_c, 1, 71, 0
2, 17240, Note_on_c, 1, 59, 127
2, 17240, Note_off_c, 1, 61, 0
2, 17240, Note_on_c, 1, 65, 127
2, 17240, Note_on_c, 1, 68, 127
2, 17240, Note_on_c, 1, 71, 127
2, 17280, Note_off_c, 1, 59, 0
2, 17280, Note_on_c, 1, 61, 127
2, 17280, Note_off_c, 1, 65, 0
2, 17280, Note_off_c, 1, 68, 0
2, 17280, Note_off_c, 1, 71, 0
2, 17320, Note_on_c, 1, 57, 127
2, 17320, Note_off_c, 1, 61, 0
2, 17320, Note_on_c, 1, 62, 127
2, 17360, Note_off_c, 1, 57, 0
2, 17360, Note_on_c, 1, 59, 127
2, 17360, Note_off_c, 1, 62, 0
2, 17360, Note_on_c, 1, 65, 127
2, 17360, Note_on_c, 1, 68, 127
2, 17360, Note_on_c, 1, 71, 127
2, 17400, Note_off_c, 1, 59, 0
2, 17400, Note_off_c, 1, 65, 0
2, 17400, Note_off_c, 1, 68, 0
2, 17400, Note_off_c, 1, 71, 0
2, 17440, Note_on_c, 1, 28, 127
2, 17440, Note_off_c, 1, 38, 0
2, 17440, Note_on_c, 1, 40, 127
2, 17440, Note_off_c, 1, 45, 0
2, 17440, Note_on_c, 1, 59, 127
2, 17440, Note_on_c, 1, 64, 127
2, 17440, Note_on_c, 1, 68, 127
2, 17480, Note_off_c, 1, 28, 0
2, 17480, Note_off_c, 1, 40, 0
2, 17480, Note_on_c, 1, 52, 127
2, 17480, Note_off_c, 1, 59, 0
2, 17480, Note_on_c, 1, 66, 127
2, 17520, Note_on_c, 1, 37, 127
2, 17520, Note_on_c, 1, 38, 127
2, 17520, Note_on_c, 1, 49, 127
2, 17520, Note_on_c, 1, 50, 127
2, 17520, Note_off_c, 1, 52, 0
2, 17520, Note_off_c, 1, 64, 0
2, 17520, Note_off_c, 1, 66, 0
2, 17520, Note_off_c, 1, 68, 0
2, 17560, Note_off_c, 1, 37, 0
2, 17560, Note_off_c, 1, 38, 0
2, 17560, Note_off_c, 1, 49, 0
2, 17560, Note_off_c, 1, 50, 0
2, 17560, Note_on_c, 1, 62, 127
2, 17560, Note_on_c, 1, 72, 127
2, 17560, Note_on_c, 1, 75, 127
2, 17560, Note_on_c, 1, 82, 127
2, 17600, Note_on_c, 1, 56, 127
2, 17600, Note_on_c, 1, 64, 127
2, 17600, Note_on_c, 1, 68, 127
2, 17600, Note_on_c, 1, 71, 127
2, 17600, Note_off_c, 1, 72, 0
2, 17600, Note_off_c, 1, 82, 0
2, 17640, Note_on_c, 1, 39, 127
2, 17640, Note_on_c, 1, 46, 127
2, 17640, Note_off_c, 1, 56, 0
2, 17640, Note_on_c, 1, 58, 127
2, 17640, Note_off_c, 1, 62, 0
2, 17640, Note_off_c, 1, 64, 0
2, 17640, Note_off_c, 1, 68, 0
2, 17640, Note_on_c, 1, 69, 127
2, 17640, Note_off_c, 1, 71, 0
2, 17640, Note_off_c, 1, 75, 0
2, 17680, Note_on_c, 1, 37, 127
2, 17680, Note_off_c, 1, 39, 0
2, 17680, Note_on_c, 1, 40, 127
2, 17680, Note_on_c, 1, 45, 127
2, 17680, Note_off_c, 1, 46, 0
2, 17680, Note_on_c, 1, 49, 127
2, 17680, Note_off_c, 1, 58, 0
2, 17680, Note_off_c, 1, 69, 0
2, 17720, Note_off_c, 1, 37, 0
2, 17720, Note_on_c, 1, 38, 127
2, 17720, Note_off_c, 1, 40, 0
2, 17720, Note_on_c, 1, 42, 127
2, 17720, Note_off_c, 1, 45, 0
2, 17720, Note_on_c, 1, 47, 127
2, 17720, Note_off_c, 1, 49, 0
2, 17720, Note_on_c, 1, 50, 127
2, 17720, Note_on_c, 1, 71, 127
2, 17720, Note_on_c, 1, 83, 127
2, 17760, Note_off_c, 1, 38, 0
2, 17760, Note_off_c, 1, 42, 0
2, 17760, Note_off_c, 1, 47, 0
2, 17760, Note_off_c, 1, 50, 0
2, 17760, Note_on_c, 1, 64, 127
2, 17760, Note_off_c, 1, 71, 0
2, 17760, Note_off_c, 1, 83, 0
2, 17760, Note_on_c, 1, 92, 127
2, 17760, Note_on_c, 1, 96, 127
2, 17800, Note_on_c, 1, 45, 127
2, 17800, Note_on_c, 1, 49, 127
2, 17800, Note_on_c, 1, 52, 127
2, 17800, Note_on_c, 1, 55, 127
2, 17800, Note_off_c, 1, 64, 0
2, 17800, Note_off_c, 1, 92, 0
2, 17800, Note_off_c, 1, 96, 0
2, 17840, Note_off_c, 1, 45, 0
2, 17840, Note_off_c, 1, 49, 0
2, 17840, Note_on_c, 1, 51, 127
2, 17840, Note_off_c, 1, 52, 0
2, 17840, Note_off_c, 1, 55, 0
2, 17840, Note_on_c, 1, 63, 127
2, 17840, Note_on_c, 1, 67, 127
2, 17840, Note_on_c, 1, 79, 127
2, 17840, Note_on_c, 1, 82, 127
2, 17880, Note_on_c, 1, 39, 127
2, 17880, Note_on_c, 1, 46, 127
2, 17880, Note_off_c, 1, 51, 0
2, 17880, Note_on_c, 1, 58, 127
2, 17880, Note_off_c, 1, 63, 0
2, 17880, Note_off_c, 1, 67, 0
2, 17880, Note_on_c, 1, 72, 127
2, 17880, Note_off_c, 1, 79, 0
2, 17880, Note_off_c, 1, 82, 0
2, 17920, Note_off_c, 1, 39, 0
2, 17920, Note_off_c, 1, 46, 0
2, 17920, Note_off_c, 1, 58, 0
2, 17920, Note_off_c, 1, 72, 0
2, 17960, Note_on_c, 1, 47, 127
2, 17960, Note_on_c, 1, 52, 127
2, 17960, Note_on_c, 1, 62, 127
2, 17960, Note_on_c, 1, 76, 127
2, 18000, Note_off_c, 1, 47, 0
2, 18000, Note_off_c, 1, 52, 0
2, 18000, Note_on_c, 1, 53, 127
2, 18000, Note_on_c, 1, 57, 127
2, 18000, Note_on_c, 1, 60, 127
2, 18000, Note_off_c, 1, 62, 0
2, 18000, Note_on_c, 1, 65, 127
2, 18000, Note_off_c, 1, 76, 0
2, 18000, Note_on_c, 1, 84, 127
2, 18040, Note_on_c, 1, 38, 127
2, 18040, Note_on_c, 1, 50, 127
2, 18040, Note_off_c, 1, 53, 0
2, 18040, Note_off_c, 1, 57, 0
2, 18040, Note_off_c, 1, 60, 0
2, 18040, Note_on_c, 1, 62, 127
2, 18040, Note_off_c, 1, 84, 0
2, 18080, Note_on_c, 1, 27, 127
2, 18080, Note_off_c, 1, 38, 0
2, 18080, Note_on_c, 1, 39, 127
2, 18080, Note_off_c, 1, 50, 0
2, 18080, Note_off_c, 1, 62, 0
2, 18080, Note_off_c, 1, 65, 0
2, 18080, Note_on_c, 1, 70, 127
2, 18080, Note_on_c, 1, 82, 127
2, 18120, Note_off_c, 1, 27, 0
2, 18120, Note_off_c, 1, 39, 0
2, 18120, Note_on_c, 1, 67, 127
2, 18120, Note_off_c, 1, 70, 0
2, 18120, Note_on_c, 1, 75, 127
2, 18120, Note_off_c, 1, 82, 0
2, 18120, Note_on_c, 1, 85, 127
2, 18120, Note_on_c, 1, 89, 127
2, 18160, Note_off_c, 1, 67, 0
2, 18160, Note_off_c, 1, 75, 0
2, 18160, Note_off_c, 1, 85, 0
2, 18160, Note_off_c, 1, 89, 0
2, 18160, Note_on_c, 1, 97, 127
2, 18160, Note_on_c, 1, 98, 127
2, 18160, Note_on_c, 1, 102, 127
2, 18160, Note_on_c, 1, 103, 127
2, 18200, Note_on_c, 1, 48, 127
2, 18200, Note_on_c, 1, 55, 127
2, 18200, Note_on_c, 1, 62, 127
2, 18200, Note_on_c, 1, 96, 127
2, 18200, Note_off_c, 1, 97, 0
2, 18200, Note_off_c, 1, 98, 0
2, 18200, Note_off_c, 1, 102, 0
2, 18200, Note_off_c, 1, 103, 0
2, 18240, Note_on_c, 1, 47, 127
2, 18240, Note_off_c, 1, 48, 0
2, 18240, Note_on_c, 1, 51, 127
2, 18240, Note_on_c, 1, 54, 127
2, 18240, Note_off_c, 1, 55, 0
2, 18240, Note_off_c, 1, 62, 0
2, 18240, Note_on_c, 1, 63, 127
2, 18240, Note_on_c, 1, 71, 127
2, 18240, Note_off_c, 1, 96, 0
2, 18280, Note_off_c, 1, 47, 0
2, 18280, Note_off_c, 1, 51, 0
2, 18280, Note_off_c, 1, 54, 0
2, 18280, Note_off_c, 1, 63, 0
2, 18280, Note_off_c, 1, 71, 0
2, 18280, Note_on_c, 1, 94, 127
2, 18280, Note_on_c, 1, 97, 127
2, 18280, Note_on_c, 1, 102, 127
2, 18280, Note_on_c, 1, 103, 127
2, 18320, Note_on_c, 1, 40, 127
2, 18320, Note_on_c, 1, 52, 127
2, 18320, Note_on_c, 1, 59, 127
2, 18320, Note_on_c, 1, 62, 127
2, 18320, Note_on_c, 1, 68, 127
2, 18320, Note_on_c, 1, 74, 127
2, 18320, Note_on_c, 1, 77, 127
2, 18320, Note_off_c, 1, 94, 0
2, 18320, Note_off_c, 1, 97, 0
2, 18320, Note_off_c, 1, 102, 0
2, 18320, Note_off_c, 1, 103, 0
2, 18360, Note_on_c, 1, 33, 127
2, 18360, Note_off_c, 1, 40, 0
2, 18360, Note_on_c, 1, 45, 127
2, 18360, Note_off_c, 1, 52, 0
2, 18360, Note_off_c, 1, 59, 0
2, 18360, Note_off_c, 1, 62, 0
2, 18360, Note_off_c, 1, 68, 0
2, 18360, Note_off_c, 1, 74, 0
2, 18360, Note_off_c, 1, 77, 0
2, 18360, Note_on_c, 1, 86, 127
2, 18360, Note_on_c, 1, 90, 127
2, 18360, Note_on_c, 1, 93, 127
2, 18360, Note_on_c, 1, 98, 127
2, 18400, Note_off_c, 1, 33, 0
2, 18400, Note_off_c, 1, 45, 0
2, 18400, Note_off_c, 1, 86, 0
2, 18400, Note_off_c, 1, 90, 0
2, 18400, Note_on_c, 1, 103, 127
2, 18480, Note_on_c, 1, 90, 127
2, 18480, Note_on_c, 1, 91, 127
2, 18480, Note_off_c, 1, 93, 0
2, 18480, Note_off_c, 1, 103, 0
2, 18520, Note_off_c, 1, 90, 0
2, 18520, Note_off_c, 1, 91, 0
2, 18520, Note_on_c, 1, 94, 127
2, 18520, Note_on_c, 1, 97, 127
2, 18520, Note_off_c, 1, 98, 0
2, 18520, Note_on_c, 1, 102, 127
2, 18520, Note_on_c, 1, 103, 127
2, 18800, Note_on_c, 1, 95, 127
2, 18800, Note_off_c, 1, 97, 0
2, 18800, Note_on_c, 1, 99, 127
2, 18800, Note_off_c, 1, 102, 0
2, 18800, Note_off_c, 1, 103, 0
2, 18840, Note_on_c, 1, 87, 127
2, 18840, Note_on_c, 1, 88, 127
2, 18840, Note_off_c, 1, 94, 0
2, 18840, Note_off_c, 1, 95, 0
2, 18840, Note_off_c, 1, 99, 0
2, 18880, Note_on_c, 1, 51, 127
2, 18880, Note_on_c, 1, 58, 127
2, 18880, Note_on_c, 1, 72, 127
2, 18880, Note_on_c, 1, 84, 127
2, 18880, Note_off_c, 1, 87, 0
2, 18880, Note_off_c, 1, 88, 0
2, 18920, Note_off_c, 1, 51, 0
2, 18920, Note_off_c, 1, 58, 0
2, 18920, Note_off_c, 1, 72, 0
2, 18920, Note_on_c, 1, 77, 127
2, 18920, Note_on_c, 1, 80, 127
2, 18920, Note_off_c, 1, 84, 0
2, 18920, Note_on_c, 1, 86, 127
2, 18920, Note_on_c, 1, 101, 127
2, 18960, Note_on_c, 1, 31, 127
2, 18960, Note_on_c, 1, 39, 127
2, 18960, Note_on_c, 1, 43, 127
2, 18960, Note_on_c, 1, 58, 127
2, 18960, Note_on_c, 1, 67, 127
2, 18960, Note_on_c, 1, 70, 127
2, 18960, Note_off_c, 1, 77, 0
2, 18960, Note_off_c, 1, 80, 0
2, 18960, Note_off_c, 1, 86, 0
2, 18960, Note_off_c, 1, 101, 0
2, 19000, Note_off_c, 1, 31, 0
2, 19000, Note_off_c, 1, 39, 0
2, 19000, Note_off_c, 1, 43, 0
2, 19000, Note_on_c, 1, 51, 127
2, 19000, Note_on_c, 1, 54, 127
2, 19000, Note_off_c, 1, 58, 0
2, 19000, Note_on_c, 1, 59, 127
2, 19000, Note_off_c, 1, 67, 0
2, 19000, Note_off_c, 1, 70, 0
2, 19000, Note_on_c, 1, 95, 127
2, 19040, Note_off_c, 1, 51, 0
2, 19040, Note_off_c, 1, 54, 0
2, 19040, Note_off_c, 1, 59, 0
2, 19040, Note_on_c, 1, 98, 127
2, 19040, Note_on_c, 1, 103, 127
2, 19040, Note_on_c, 1, 104, 127
2, 19080, Note_on_c, 1, 49, 127
2, 19080, Note_on_c, 1, 56, 127
2, 19080, Note_on_c, 1, 59, 127
2, 19080, Note_on_c, 1, 82, 127
2, 19080, Note_off_c, 1, 95, 0
2, 19080, Note_off_c, 1, 98, 0
2, 19080, Note_off_c, 1, 103, 0
2, 19080, Note_off_c, 1, 104, 0
2, 19120, Note_on_c, 1, 43, 127
2, 19120, Note_on_c, 1, 46, 127
2, 19120, Note_off_c, 1, 49, 0
2, 19120, Note_on_c, 1, 55, 127
2, 19120, Note_off_c, 1, 56, 0
2, 19120, Note_off_c, 1, 59, 0
2, 19120, Note_on_c, 1, 69, 127
2, 19120, Note_off_c, 1, 82, 0
2, 19160, Note_off_c, 1, 43, 0
2, 19160, Note_off_c, 1, 46, 0
2, 19160, Note_on_c, 1, 52, 127
2, 19160, Note_off_c, 1, 55, 0
2, 19160, Note_on_c, 1, 56, 127
2, 19160, Note_on_c, 1, 59, 127
2, 19160, Note_on_c, 1, 61, 127
2, 19160, Note_off_c, 1, 69, 0
2, 19160, Note_on_c, 1, 71, 127
2, 19160, Note_on_c, 1, 75, 127
2, 19200, Note_off_c, 1, 52, 0
2, 19200, Note_off_c, 1, 56, 0
2, 19200, Note_off_c, 1, 59, 0
2, 19200, Note_off_c, 1, 61, 0
2, 19200, Note_off_c, 1, 71, 0
2, 19200, Note_on_c, 1, 72, 127
2, 19200, Note_on_c, 1, 74, 127
2, 19200, Note_off_c, 1, 75, 0
2, 19200, Note_on_c, 1, 81, 127
2, 19200, Note_on_c, 1, 100, 127
2, 19240, Note_on_c, 1, 39, 127
2, 19240, Note_on_c, 1, 57, 127
2, 19240, Note_on_c, 1, 60, 127
2, 19240, Note_on_c, 1, 66, 127
2, 19240, Note_on_c, 1, 69, 127
2, 19240, Note_off_c, 1, 72, 0
2, 19240, Note_off_c, 1, 74, 0
2, 19240, Note_off_c, 1, 81, 0
2, 19240, Note_off_c, 1, 100, 0
2, 19280, Note_on_c, 1, 35, 127
2, 19280, Note_off_c, 1, 39, 0
2, 19280, Note_on_c, 1, 63, 127
2, 19280, Note_off_c, 1, 69, 0
2, 19320, Note_on_c, 1, 32, 127
2, 19320, Note_off_c, 1, 35, 0
2, 19320, Note_on_c, 1, 56, 127
2, 19320, Note_off_c, 1, 57, 0
2, 19320, Note_on_c, 1, 59, 127
2, 19320, Note_off_c, 1, 60, 0
2, 19320, Note_off_c, 1, 63, 0
2, 19320, Note_off_c, 1, 66, 0
2, 19360, Note_off_c, 1, 32, 0
2, 19360, Note_off_c, 1, 56, 0
2, 19360, Note_off_c, 1, 59, 0
2, 19360, Note_on_c, 1, 72, 127
2, 19360, Note_on_c, 1, 75, 127
2, 19360, Note_on_c, 1, 79, 127
2, 19360, Note_on_c, 1, 84, 127
2, 19360, Note_on_c, 1, 86, 127
2, 19400, Note_on_c, 1, 30, 127
2, 19400, Note_on_c, 1, 35, 127
2, 19400, Note_on_c, 1, 37, 127
2, 19400, Note_off_c, 1, 75, 0
2, 19400, Note_off_c, 1, 79, 0
2, 19400, Note_off_c, 1, 84, 0
2, 19400, Note_off_c, 1, 86, 0
2, 19440, Note_off_c, 1, 30, 0
2, 19440, Note_off_c, 1, 35, 0
2, 19440, Note_off_c, 1, 37, 0
2, 19440, Note_on_c, 1, 59, 127
2, 19440, Note_on_c, 1, 62, 127
2, 19440, Note_on_c, 1, 65, 127
2, 19440, Note_off_c, 1, 72, 0
2, 19440, Note_on_c, 1, 78, 127
2, 19440, Note_on_c, 1, 87, 127
2, 19480, Note_on_c, 1, 42, 127
2, 19480, Note_off_c, 1, 59, 0
2, 19480, Note_off_c, 1, 62, 0
2, 19480, Note_off_c, 1, 65, 0
2, 19480, Note_on_c, 1, 85, 127
2, 19480, Note_off_c, 1, 87, 0
2, 19520, Note_off_c, 1, 42, 0
2, 19520, Note_off_c, 1, 78, 0
2, 19520, Note_off_c, 1, 85, 0
2, 19520, Note_on_c, 1, 93, 127
2, 19520, Note_on_c, 1, 94, 127
2, 19520, Note_on_c, 1, 97, 127
2, 19520, Note_on_c, 1, 98, 127
2, 19560, Note_on_c, 1, 92, 127
2, 19560, Note_off_c, 1, 94, 0
2, 19560, Note_on_c, 1, 96, 127
2, 19560, Note_off_c, 1, 98, 0
2, 19600, Note_on_c, 1, 77, 127
2, 19600, Note_on_c, 1, 83, 127
2, 19600, Note_on_c, 1, 86, 127
2, 19600, Note_off_c, 1, 93, 0
2, 19600, Note_off_c, 1, 96, 0
2, 19600, Note_off_c, 1, 97, 0
2, 19640, Note_on_c, 1, 45, 127
2, 19640, Note_on_c, 1, 62, 127
2, 19640, Note_on_c, 1, 66, 127
2, 19640, Note_on_c, 1, 71, 127
2, 19640, Note_off_c, 1, 77, 0
2, 19640, Note_off_c, 1, 83, 0
2, 19640, Note_off_c, 1, 86, 0
2, 19640, Note_off_c, 1, 92, 0
2, 19680, Note_off_c, 1, 45, 0
2, 19680, Note_off_c, 1, 62, 0
2, 19680, Note_off_c, 1, 66, 0
2, 19680, Note_off_c, 1, 71, 0
2, 19680, Note_on_c, 1, 93, 127
2, 19680, Note_on_c, 1, 94, 127
2, 19680, Note_on_c, 1, 97, 127
2, 19680, Note_on_c, 1, 98, 127
2, 19720, Note_off_c, 1, 93, 0
2, 19720, Note_off_c, 1, 94, 0
2, 19720, Note_on_c, 1, 96, 127
2, 19720, Note_off_c, 1, 98, 0
2, 19760, Note_on_c, 1, 49, 127
2, 19760, Note_on_c, 1, 93, 127
2, 19760, Note_off_c, 1, 96, 0
2, 19800, Note_off_c, 1, 49, 0
2, 19800, Note_on_c, 1, 90, 127
2, 19800, Note_on_c, 1, 91, 127
2, 19800, Note_off_c, 1, 93, 0
2, 19800, Note_off_c, 1, 97, 0
2, 19800, Note_on_c, 1, 100, 127
2, 19840, Note_on_c, 1, 60, 127
2, 19840, Note_on_c, 1, 62, 127
2, 19840, Note_on_c, 1, 69, 127
2, 19840, Note_on_c, 1, 82, 127
2, 19840, Note_off_c, 1, 90, 0
2, 19840, Note_off_c, 1, 91, 0
2, 19840, Note_off_c, 1, 100, 0
2, 19880, Note_on_c, 1, 56, 127
2, 19880, Note_on_c, 1, 59, 127
2, 19880, Note_off_c, 1, 60, 0
2, 19880, Note_on_c, 1, 64, 127
2, 19880, Note_off_c, 1, 69, 0
2, 19880, Note_on_c, 1, 78, 127
2, 19880, Note_off_c, 1, 82, 0
2, 19920, Note_off_c, 1, 59, 0
2, 19920, Note_on_c, 1, 60, 127
2, 19920, Note_off_c, 1, 62, 0
2, 19920, Note_off_c, 1, 64, 0
2, 19920, Note_off_c, 1, 78, 0
2, 19920, Note_on_c, 1, 84, 127
2, 19920, Note_on_c, 1, 87, 127
2, 19920, Note_on_c, 1, 89, 127
2, 19960, Note_on_c, 1, 29, 127
2, 19960, Note_on_c, 1, 41, 127
2, 19960, Note_on_c, 1, 45, 127
2, 19960, Note_on_c, 1, 48, 127
2, 19960, Note_on_c, 1, 53, 127
2, 19960, Note_off_c, 1, 56, 0
2, 19960, Note_on_c, 1, 57, 127
2, 19960, Note_off_c, 1, 60, 0
2, 19960, Note_off_c, 1, 84, 0
2, 19960, Note_off_c, 1, 87, 0
2, 19960, Note_off_c, 1, 89, 0
2, 20000, Note_off_c, 1, 29, 0
2, 20000, Note_off_c, 1, 41, 0
2, 20000, Note_off_c, 1, 45, 0
2, 20000, Note_off_c, 1, 48, 0
2, 20000, Note_off_c, 1, 53, 0
2, 20000, Note_off_c, 1, 57, 0
2, 20000, Note_on_c, 1, 80, 127
2, 20000, Note_on_c, 1, 84, 127
2, 20000, Note_on_c, 1, 96, 127
2, 20000, Note_on_c, 1, 97, 127
2, 20000, Note_on_c, 1, 99, 127
2, 20120, Note_on_c, 1, 38, 127
2, 20120, Note_on_c, 1, 48, 127
2, 20120, Note_on_c, 1, 55, 127
2, 20120, Note_off_c, 1, 80, 0
2, 20120, Note_off_c, 1, 84, 0
2, 20120, Note_off_c, 1, 96, 0
2, 20120, Note_off_c, 1, 97, 0
2, 20120, Note_off_c, 1, 99, 0
2, 20160, Note_off_c, 1, 38, 0
2, 20160, Note_off_c, 1, 48, 0
2, 20160, Note_on_c, 1, 53, 127
2, 20160, Note_off_c, 1, 55, 0
2, 20160, Note_on_c, 1, 58, 127
2, 20160, Note_on_c, 1, 65, 127
2, 20160, Note_on_c, 1, 74, 127
2, 20160, Note_on_c, 1, 79, 127
2, 20200, Note_on_c, 1, 29, 127
2, 20200, Note_on_c, 1, 47, 127
2, 20200, Note_off_c, 1, 53, 0
2, 20200, Note_off_c, 1, 58, 0
2, 20200, Note_off_c, 1, 65, 0
2, 20200, Note_off_c, 1, 74, 0
2, 20200, Note_off_c, 1, 79, 0
2, 20240, Note_off_c, 1, 29, 0
2, 20240, Note_off_c, 1, 47, 0
2, 20280, Note_on_c, 1, 101, 127
2, 20280, Note_on_c, 1, 103, 127
2, 20320, Note_on_c, 1, 79, 127
2, 20320, Note_on_c, 1, 91, 127
2, 20320, Note_on_c, 1, 95, 127
2, 20320, Note_on_c, 1, 97, 127
2, 20320, Note_off_c, 1, 101, 0
2, 20320, Note_off_c, 1, 103, 0
2, 20560, Note_on_c, 1, 78, 127
2, 20560, Note_off_c, 1, 79, 0
2, 20560, Note_on_c, 1, 81, 127
2, 20560, Note_on_c, 1, 86, 127
2, 20560, Note_on_c, 1, 90, 127
2, 20560, Note_off_c, 1, 91, 0
2, 20560, Note_off_c, 1, 95, 0
2, 20560, Note_off_c, 1, 97, 0
2, 20600, Note_on_c, 1, 48, 127
2, 20600, Note_on_c, 1, 55, 127
2, 20600, Note_on_c, 1, 58, 127
2, 20600, Note_on_c, 1, 64, 127
2, 20600, Note_on_c, 1, 76, 127
2, 20600, Note_off_c, 1, 78, 0
2, 20600, Note_on_c, 1, 79, 127
2, 20600, Note_off_c, 1, 81, 0
2, 20600, Note_on_c, 1, 85, 127
2, 20600, Note_off_c, 1, 86, 0
2, 20600, Note_off_c, 1, 90, 0
2, 20640, Note_on_c, 1, 34, 127
2, 20640, Note_on_c, 1, 46, 127
2, 20640, Note_off_c, 1, 48, 0
2, 20640, Note_on_c, 1, 54, 127
2, 20640, Note_off_c, 1, 55, 0
2, 20640, Note_off_c, 1, 58, 0
2, 20640, Note_on_c, 1, 62, 127
2, 20640, Note_off_c, 1, 64, 0
2, 20640, Note_on_c, 1, 66, 127
2, 20640, Note_off_c, 1, 76, 0
2, 20640, Note_off_c, 1, 79, 0
2, 20640, Note_off_c, 1, 85, 0
2, 20680, Note_off_c, 1, 34, 0
2, 20680, Note_off_c, 1, 46, 0
2, 20680, Note_on_c, 1, 48, 127
2, 20680, Note_off_c, 1, 54, 0
2, 20680, Note_on_c, 1, 55, 127
2, 20680, Note_on_c, 1, 58, 127
2, 20680, Note_off_c, 1, 62, 0
2, 20680, Note_on_c, 1, 64, 127
2, 20680, Note_off_c, 1, 66, 0
2, 20680, Note_on_c, 1, 76, 127
2, 20680, Note_on_c, 1, 79, 127
2, 20680, Note_on_c, 1, 85, 127
2, 20720, Note_on_c, 1, 42, 127
2, 20720, Note_off_c, 1, 48, 0
2, 20720, Note_on_c, 1, 49, 127
2, 20720, Note_off_c, 1, 55, 0
2, 20720, Note_off_c, 1, 58, 0
2, 20720, Note_on_c, 1, 59, 127
2, 20720, Note_off_c, 1, 64, 0
2, 20720, Note_on_c, 1, 66, 127
2, 20720, Note_on_c, 1, 71, 127
2, 20720, Note_off_c, 1, 76, 0
2, 20720, Note_off_c, 1, 79, 0
2, 20720, Note_off_c, 1, 85, 0
2, 20760, Note_off_c, 1, 42, 0
2, 20760, Note_off_c, 1, 49, 0
2, 20760, Note_on_c, 1, 57, 127
2, 20760, Note_off_c, 1, 59, 0
2, 20760, Note_on_c, 1, 65, 127
2, 20760, Note_off_c, 1, 66, 0
2, 20760, Note_on_c, 1, 68, 127
2, 20760, Note_off_c, 1, 71, 0
2, 20760, Note_on_c, 1, 74, 127
2, 20760, Note_on_c, 1, 83, 127
2, 20800, Note_on_c, 1, 60, 127
2, 20800, Note_on_c, 1, 62, 127
2, 20800, Note_off_c, 1, 65, 0
2, 20800, Note_on_c, 1, 66, 127
2, 20800, Note_off_c, 1, 68, 0
2, 20800, Note_off_c, 1, 74, 0
2, 20800, Note_off_c, 1, 83, 0
2, 20800, Note_on_c, 1, 86, 127
2, 20840, Note_off_c, 1, 57, 0
2, 20840, Note_on_c, 1, 59, 127
2, 20840, Note_off_c, 1, 60, 0
2, 20840, Note_off_c, 1, 62, 0
2, 20840, Note_off_c, 1, 66, 0
2, 20840, Note_off_c, 1, 86, 0
2, 20840, Note_on_c, 1, 93, 127
2, 20840, Note_on_c, 1, 95, 127
2, 20840, Note_on_c, 1, 97, 127
2, 20880, Note_on_c, 1, 54, 127
2, 20880, Note_off_c, 1, 59, 0
2, 20880, Note_on_c, 1, 68, 127
2, 20880, Note_on_c, 1, 75, 127
2, 20880, Note_on_c, 1, 84, 127
2, 20880, Note_on_c, 1, 87, 127
2, 20880, Note_off_c, 1, 93, 0
2, 20880, Note_off_c, 1, 95, 0
2, 20880, Note_off_c, 1, 97, 0
2, 20920, Note_off_c, 1, 54, 0
2, 20920, Note_off_c, 1, 68, 0
2, 20920, Note_off_c, 1, 75, 0
2, 20920, Note_off_c, 1, 84, 0
2, 20920, Note_off_c, 1, 87, 0
2, 20920, Note_on_c, 1, 95, 127
2, 20920, Note_on_c, 1, 97, 127
2, 20960, Note_off_c, 1, 97, 0
2, 21000, Note_on_c, 1, 93, 127
2, 21000, Note_off_c, 1, 95, 0
2, 21040, Note_off_c, 1, 93, 0
2, 21040, Note_on_c, 1, 95, 127
2, 21080, Note_on_c, 1, 93, 127
2, 21080, Note_off_c, 1, 95, 0
2, 21120, Note_off_c, 1, 93, 0
2, 21120, Note_on_c, 1, 95, 127
2, 21200, Note_on_c, 1, 90, 127
2, 21200, Note_off_c, 1, 95, 0
2, 21240, Note_off_c, 1, 90, 0
2, 21240, Note_on_c, 1, 93, 127
2, 21280, Note_on_c, 1, 90, 127
2, 21280, Note_off_c, 1, 93, 0
2, 21360, Note_off_c, 1, 90, 0
2, 21360, Note_on_c, 1, 93, 127
2, 21400, Note_on_c, 1, 88, 127
2, 21400, Note_off_c, 1, 93, 0
2, 21520, Note_off_c, 1, 88, 0
2, 21520, Note_on_c, 1, 90, 127
2, 21560, Note_on_c, 1, 88, 127
2, 21560, Note_off_c, 1, 90, 0
2, 21600, Note_on_c, 1, 87, 127
2, 21600, Note_off_c, 1, 88, 0
2, 21640, Note_on_c, 1, 86, 127
2, 21640, Note_off_c, 1, 87, 0
2, 21680, Note_on_c, 1, 84, 127
2, 21680, Note_off_c, 1, 86, 0
2, 21720, Note_on_c, 1, 83, 127
2, 21720, Note_off_c, 1, 84, 0
2, 21760, Note_on_c, 1, 81, 127
2, 21760, Note_off_c, 1, 83, 0
2, 21800, Note_on_c, 1, 78, 127
2, 21800, Note_off_c, 1, 81, 0
2, 21840, Note_on_c, 1, 74, 127
2, 21840, Note_off_c, 1, 78, 0
2, 21880, Note_off_c, 1, 74, 0
2, 21920, Note_on_c, 1, 31, 127
2, 21920, Note_on_c, 1, 43, 127
2, 21920, Note_on_c, 1, 71, 127
2, 22040, Note_on_c, 1, 55, 127
2, 22040, Note_on_c, 1, 62, 127
2, 22040, Note_off_c, 1, 71, 0
2, 22080, Note_off_c, 1, 55, 0
2, 22080, Note_off_c, 1, 62, 0
2, 22080, Note_on_c, 1, 74, 127
2, 22120, Note_on_c, 1, 72, 127
2, 22120, Note_off_c, 1, 74, 0
2, 22160, Note_off_c, 1, 72, 0
2, 22160, Note_on_c, 1, 74, 127
2, 22240, Note_on_c, 1, 69, 127
2, 22240, Note_off_c, 1, 74, 0
2, 22280, Note_on_c, 1, 57, 127
2, 22280, Note_off_c, 1, 69, 0
2, 22320, Note_off_c, 1, 31, 0
2, 22320, Note_off_c, 1, 43, 0
2, 22320, Note_off_c, 1, 57, 0
2, 22360, Note_on_c, 1, 31, 127
2, 22360, Note_on_c, 1, 43, 127
2, 22360, Note_on_c, 1, 72, 127
2, 22400, Note_on_c, 1, 71, 127
2, 22400, Note_off_c, 1, 72, 0
2, 22480, Note_off_c, 1, 31, 0
2, 22480, Note_off_c, 1, 43, 0
2, 22480, Note_on_c, 1, 64, 127
2, 22480, Note_off_c, 1, 71, 0
2, 22520, Note_off_c, 1, 64, 0
2, 22520, Note_on_c, 1, 72, 127
2, 22560, Note_off_c, 1, 72, 0
2, 22600, Note_on_c, 1, 71, 127
2, 22640, Note_on_c, 1, 67, 127
2, 22640, Note_off_c, 1, 71, 0
2, 22680, Note_on_c, 1, 65, 127
2, 22680, Note_off_c, 1, 67, 0
2, 22720, Note_on_c, 1, 60, 127
2, 22720, Note_off_c, 1, 65, 0
2, 22760, Note_on_c, 1, 59, 127
2, 22760, Note_off_c, 1, 60, 0
2, 22800, Note_on_c, 1, 43, 127
2, 22800, Note_off_c, 1, 59, 0
2, 22840, Note_off_c, 1, 43, 0
2, 22880, Note_on_c, 1, 39, 127
2, 22920, Note_off_c, 1, 39, 0
2, 22920, Note_on_c, 1, 50, 127
2, 22960, Note_on_c, 1, 48, 127
2, 22960, Note_off_c, 1, 50, 0
2, 23000, Note_on_c, 1, 47, 127
2, 23000, Note_off_c, 1, 48, 0
2, 23040, Note_on_c, 1, 44, 127
2, 23040, Note_off_c, 1, 47, 0
2, 23040, Note_on_c, 1, 70, 127
2, 23080, Note_off_c, 1, 44, 0
2, 23080, Note_off_c, 1, 70, 0
2, 23120, Note_on_c, 1, 44, 127
2, 23120, Note_on_c, 1, 75, 127
2, 23160, Note_on_c, 1, 71, 127
2, 23160, Note_off_c, 1, 75, 0
2, 23200, Note_off_c, 1, 71, 0
2, 23200, Note_on_c, 1, 76, 127
2, 23240, Note_off_c, 1, 44, 0
2, 23240, Note_off_c, 1, 76, 0
2, 23240, Note_on_c, 1, 77, 127
2, 23280, Note_on_c, 1, 44, 127
2, 23480, Note_off_c, 1, 44, 0
2, 23560, Note_on_c, 1, 75, 127
2, 23560, Note_off_c, 1, 77, 0
2, 23640, Note_on_c, 1, 74, 127
2, 23640, Note_off_c, 1, 75, 0
2, 23680, Note_off_c, 1, 74, 0
2, 23680, Note_on_c, 1, 77, 127
2, 23720, Note_on_c, 1, 76, 127
2, 23720, Note_off_c, 1, 77, 0
2, 23760, Note_off_c, 1, 76, 0
2, 23760, Note_on_c, 1, 77, 127
2, 23800, Note_on_c, 1, 74, 127
2, 23800, Note_off_c, 1, 77, 0
2, 23840, Note_off_c, 1, 74, 0
2, 23840, Note_on_c, 1, 75, 127
2, 23880, Note_off_c, 1, 75, 0
2, 23880, Note_on_c, 1, 78, 127
2, 23880, Note_on_c, 1, 80, 127
2, 23920, Note_on_c, 1, 77, 127
2, 23920, Note_off_c, 1, 78, 0
2, 23920, Note_off_c, 1, 80, 0
2, 23960, Note_off_c, 1, 77, 0
2, 24000, Note_on_c, 1, 77, 127
2, 24000, Note_on_c, 1, 80, 127
2, 24120, Note_on_c, 1, 75, 127
2, 24120, Note_off_c, 1, 77, 0
2, 24120, Note_on_c, 1, 78, 127
2, 24120, Note_off_c, 1, 80, 0
2, 24160, Note_off_c, 1, 75, 0
2, 24160, Note_on_c, 1, 77, 127
2, 24160, Note_off_c, 1, 78, 0
2, 24200, Note_on_c, 1, 80, 127
2, 24240, Note_off_c, 1, 77, 0
2, 24240, Note_off_c, 1, 80, 0
2, 24280, Note_on_c, 1, 77, 127
2, 24280, Note_on_c, 1, 80, 127
2, 24720, Note_on_c, 1, 71, 127
2, 24720, Note_off_c, 1, 77, 0
2, 24720, Note_on_c, 1, 78, 127
2, 24720, Note_off_c, 1, 80, 0
2, 24720, Note_on_c, 1, 81, 127
2, 24760, Note_off_c, 1, 71, 0
2, 24760, Note_on_c, 1, 77, 127
2, 24760, Note_off_c, 1, 78, 0
2, 24760, Note_on_c, 1, 80, 127
2, 24760, Note_off_c, 1, 81, 0
2, 24920, Note_on_c, 1, 76, 127
2, 24920, Note_off_c, 1, 77, 0
2, 24920, Note_on_c, 1, 79, 127
2, 24920, Note_off_c, 1, 80, 0
2, 24960, Note_off_c, 1, 76, 0
2, 24960, Note_on_c, 1, 77, 127
2, 24960, Note_off_c, 1, 79, 0
2, 25000, Note_on_c, 1, 74, 127
2, 25040, Note_off_c, 1, 74, 0
2, 25120, Note_on_c, 1, 78, 127
2, 25160, Note_off_c, 1, 78, 0
2, 25160, Note_on_c, 1, 80, 127
2, 25200, Note_on_c, 1, 71, 127
2, 25200, Note_off_c, 1, 80, 0
2, 25240, Note_off_c, 1, 71, 0
2, 25240, Note_on_c, 1, 80, 127
2, 25280, Note_on_c, 1, 74, 127
2, 25280, Note_off_c, 1, 80, 0
2, 25320, Note_off_c, 1, 74, 0
2, 25360, Note_on_c, 1, 80, 127
2, 25520, Note_off_c, 1, 77, 0
2, 25520, Note_off_c, 1, 80, 0
2, 25560, Note_on_c, 1, 77, 127
2, 25560, Note_on_c, 1, 80, 127
2, 25680, Note_on_c, 1, 73, 127
2, 25680, Note_off_c, 1, 80, 0
2, 25720, Note_off_c, 1, 73, 0
2, 25720, Note_off_c, 1, 77, 0
2, 25760, Note_on_c, 1, 73, 127
2, 25760, Note_on_c, 1, 77, 127
2, 25880, Note_on_c, 1, 76, 127
2, 25880, Note_off_c, 1, 77, 0
2, 25920, Note_off_c, 1, 73, 0
2, 25920, Note_off_c, 1, 76, 0
2, 26000, Note_on_c, 1, 45, 127
2, 26000, Note_on_c, 1, 57, 127
2, 26000, Note_on_c, 1, 61, 127
2, 26000, Note_on_c, 1, 69, 127
2, 26160, Note_off_c, 1, 45, 0
2, 26160, Note_off_c, 1, 57, 0
2, 26160, Note_off_c, 1, 61, 0
2, 26160, Note_off_c, 1, 69, 0
2, 26200, Note_on_c, 1, 45, 127
2, 26200, Note_on_c, 1, 57, 127
2, 26200, Note_on_c, 1, 61, 127
2, 26200, Note_on_c, 1, 69, 127
2, 26600, Note_off_c, 1, 45, 0
2, 26600, Note_off_c, 1, 57, 0
2, 26600, Note_off_c, 1, 61, 0
2, 26600, Note_off_c, 1, 69, 0
2, 27840, Note_on_c, 1, 75, 127
2, 28440, Note_off_c, 1, 75, 0
2, 28480, Note_on_c, 1, 50, 127
2, 28480, Note_on_c, 1, 57, 127
2, 28480, Note_on_c, 1, 74, 127
2, 28640, Note_off_c, 1, 50, 0
2, 28640, Note_off_c, 1, 57, 0
2, 28680, Note_on_c, 1, 50, 127
2, 28680, Note_on_c, 1, 60, 127
2, 28680, Note_on_c, 1, 69, 127
2, 28680, Note_off_c, 1, 74, 0
2, 28840, Note_off_c, 1, 50, 0
2, 28840, Note_off_c, 1, 60, 0
2, 28880, Note_on_c, 1, 70, 127
2, 28880, Note_on_c, 1, 74, 127
2, 28880, Note_on_c, 1, 77, 127
2, 29040, Note_off_c, 1, 70, 0
2, 29040, Note_off_c, 1, 74, 0
2, 29040, Note_off_c, 1, 77, 0
2, 29080, Note_on_c, 1, 70, 127
2, 29080, Note_on_c, 1, 74, 127
2, 29080, Note_on_c, 1, 77, 127
2, 29240, Note_off_c, 1, 70, 0
2, 29240, Note_off_c, 1, 74, 0
2, 29240, Note_off_c, 1, 77, 0
2, 29280, Note_off_c, 1, 69, 0
2, 29320, Note_on_c, 1, 67, 127
2, 29320, Note_on_c, 1, 70, 127
2, 29320, Note_on_c, 1, 74, 127
2, 29320, Note_on_c, 1, 77, 127
2, 29480, Note_off_c, 1, 67, 0
2, 29480, Note_off_c, 1, 70, 0
2, 29480, Note_off_c, 1, 74, 0
2, 29480, Note_off_c, 1, 77, 0
2, 29520, Note_on_c, 1, 67, 127
2, 29520, Note_on_c, 1, 70, 127
2, 29520, Note_on_c, 1, 74, 127
2, 29520, Note_on_c, 1, 77, 127
2, 29680, Note_off_c, 1, 67, 0
2, 29680, Note_off_c, 1, 70, 0
2, 29680, Note_off_c, 1, 74, 0
2, 29680, Note_off_c, 1, 77, 0
2, 29720, Note_on_c, 1, 60, 127
2, 29720, Note_on_c, 1, 74, 127
2, 29720, Note_on_c, 1, 79, 127
2, 29720, Note_on_c, 1, 86, 127
2, 29880, Note_off_c, 1, 60, 0
2, 29880, Note_off_c, 1, 74, 0
2, 29880, Note_off_c, 1, 79, 0
2, 29880, Note_off_c, 1, 86, 0
2, 29920, Note_on_c, 1, 42, 127
2, 29920, Note_on_c, 1, 49, 127
2, 29920, Note_on_c, 1, 58, 127
2, 29920, Note_on_c, 1, 70, 127
2, 30080, Note_off_c, 1, 42, 0
2, 30080, Note_off_c, 1, 49, 0
2, 30080, Note_off_c, 1, 58, 0
2, 30080, Note_off_c, 1, 70, 0
2, 30120, Note_on_c, 1, 50, 127
2, 30120, Note_on_c, 1, 58, 127
2, 30120, Note_on_c, 1, 62, 127
2, 30120, Note_on_c, 1, 70, 127
2, 30120, Note_on_c, 1, 77, 127
2, 30120, Note_on_c, 1, 80, 127
2, 30120, Note_on_c, 1, 82, 127
2, 30280, Note_off_c, 1, 50, 0
2, 30280, Note_off_c, 1, 58, 0
2, 30280, Note_off_c, 1, 62, 0
2, 30280, Note_off_c, 1, 70, 0
2, 30280, Note_off_c, 1, 77, 0
2, 30280, Note_off_c, 1, 80, 0
2, 30280, Note_off_c, 1, 82, 0
2, 30320, Note_on_c, 1, 50, 127
2, 30320, Note_on_c, 1, 58, 127
2, 30320, Note_on_c, 1, 62, 127
2, 30320, Note_on_c, 1, 70, 127
2, 30320, Note_on_c, 1, 77, 127
2, 30320, Note_on_c, 1, 80, 127
2, 30320, Note_on_c, 1, 82, 127
2, 30480, Note_off_c, 1, 50, 0
2, 30480, Note_off_c, 1, 58, 0
2, 30480, Note_off_c, 1, 62, 0
2, 30480, Note_off_c, 1, 70, 0
2, 30480, Note_off_c, 1, 77, 0
2, 30480, Note_off_c, 1, 80, 0
2, 30480, Note_off_c, 1, 82, 0
2, 30520, Note_on_c, 1, 81, 127
2, 30680, Note_off_c, 1, 81, 0
2, 30720, Note_on_c, 1, 66, 127
2, 30720, Note_on_c, 1, 76, 127
2, 30720, Note_on_c, 1, 92, 127
2, 30760, Note_on_c, 1, 31, 127
2, 30760, Note_on_c, 1, 51, 127
2, 30760, Note_on_c, 1, 57, 127
2, 30760, Note_on_c, 1, 60, 127
2, 30760, Note_on_c, 1, 63, 127
2, 30760, Note_off_c, 1, 66, 0
2, 30760, Note_off_c, 1, 76, 0
2, 30760, Note_off_c, 1, 92, 0
2, 30800, Note_off_c, 1, 31, 0
2, 30800, Note_on_c, 1, 40, 127
2, 30800, Note_off_c, 1, 51, 0
2, 30800, Note_on_c, 1, 52, 127
2, 30800, Note_off_c, 1, 57, 0
2, 30800, Note_off_c, 1, 60, 0
2, 30800, Note_off_c, 1, 63, 0
2, 30800, Note_on_c, 1, 70, 127
2, 30800, Note_on_c, 1, 74, 127
2, 30800, Note_on_c, 1, 77, 127
2, 30800, Note_on_c, 1, 82, 127
2, 30840, Note_off_c, 1, 40, 0
2, 30840, Note_on_c, 1, 44, 127
2, 30840, Note_on_c, 1, 48, 127
2, 30840, Note_off_c, 1, 52, 0
2, 30840, Note_on_c, 1, 53, 127
2, 30840, Note_off_c, 1, 70, 0
2, 30840, Note_off_c, 1, 74, 0
2, 30840, Note_off_c, 1, 77, 0
2, 30840, Note_on_c, 1, 80, 127
2, 30840, Note_off_c, 1, 82, 0
2, 30880, Note_off_c, 1, 44, 0
2, 30880, Note_off_c, 1, 48, 0
2, 30880, Note_off_c, 1, 53, 0
2, 30880, Note_off_c, 1, 80, 0
2, 30880, Note_on_c, 1, 82, 127
2, 30920, Note_on_c, 1, 38, 127
2, 30920, Note_on_c, 1, 45, 127
2, 30920, Note_on_c, 1, 60, 127
2, 30920, Note_on_c, 1, 72, 127
2, 30920, Note_off_c, 1, 82, 0
2, 31000, Note_off_c, 1, 45, 0
2, 31000, Note_on_c, 1, 48, 127
2, 31000, Note_off_c, 1, 60, 0
2, 31000, Note_on_c, 1, 69, 127
2, 31000, Note_off_c, 1, 72, 0
2, 31080, Note_off_c, 1, 38, 0
2, 31080, Note_off_c, 1, 48, 0
2, 31080, Note_off_c, 1, 69, 0
2, 31120, Note_on_c, 1, 62, 127
2, 31120, Note_on_c, 1, 66, 127
2, 31120, Note_on_c, 1, 71, 127
2, 31120, Note_on_c, 1, 74, 127
2, 31120, Note_on_c, 1, 81, 127
2, 31160, Note_on_c, 1, 50, 127
2, 31160, Note_off_c, 1, 66, 0
2, 31160, Note_off_c, 1, 71, 0
2, 31160, Note_on_c, 1, 78, 127
2, 31200, Note_off_c, 1, 50, 0
2, 31200, Note_off_c, 1, 62, 0
2, 31200, Note_off_c, 1, 74, 0
2, 31200, Note_off_c, 1, 78, 0
2, 31200, Note_off_c, 1, 81, 0
2, 31240, Note_on_c, 1, 55, 127
2, 31240, Note_on_c, 1, 58, 127
2, 31240, Note_on_c, 1, 62, 127
2, 31240, Note_on_c, 1, 69, 127
2, 31280, Note_off_c, 1, 55, 0
2, 31280, Note_off_c, 1, 58, 0
2, 31280, Note_on_c, 1, 67, 127
2, 31280, Note_off_c, 1, 69, 0
2, 31280, Note_on_c, 1, 71, 127
2, 31280, Note_on_c, 1, 83, 127
2, 31320, Note_off_c, 1, 62, 0
2, 31320, Note_off_c, 1, 67, 0
2, 31320, Note_off_c, 1, 71, 0
2, 31320, Note_off_c, 1, 83, 0
2, 31360, Note_on_c, 1, 43, 127
2, 31360, Note_on_c, 1, 79, 127
2, 31360, Note_on_c, 1, 82, 127
2, 31520, Note_off_c, 1, 43, 0
2, 31520, Note_off_c, 1, 79, 0
2, 31520, Note_off_c, 1, 82, 0
2, 31560, Note_on_c, 1, 48, 127
2, 31560, Note_on_c, 1, 64, 127
2, 31560, Note_on_c, 1, 67, 127
2, 31560, Note_on_c, 1, 72, 127
2, 31560, Note_on_c, 1, 79, 127
2, 31720, Note_off_c, 1, 48, 0
2, 31720, Note_off_c, 1, 64, 0
2, 31720, Note_off_c, 1, 67, 0
2, 31720, Note_off_c, 1, 72, 0
2, 31720, Note_off_c, 1, 79, 0
2, 31760, Note_on_c, 1, 36, 127
2, 31760, Note_on_c, 1, 48, 127
2, 31760, Note_on_c, 1, 72, 127
2, 31760, Note_on_c, 1, 76, 127
2, 31760, Note_on_c, 1, 84, 127
2, 32120, Note_off_c, 1, 36, 0
2, 32120, Note_off_c, 1, 48, 0
2, 32120, Note_off_c, 1, 72, 0
2, 32120, Note_off_c, 1, 76, 0
2, 32120, Note_off_c, 1, 84, 0
2, 32160, Note_on_c, 1, 52, 127
2, 32160, Note_on_c, 1, 71, 127
2, 32160, Note_on_c, 1, 74, 127
2, 32160, Note_on_c, 1, 76, 127
2, 32160, Note_on_c, 1, 80, 127
2, 32240, Note_off_c, 1, 52, 0
2, 32320, Note_off_c, 1, 71, 0
2, 32320, Note_off_c, 1, 74, 0
2, 32320, Note_off_c, 1, 76, 0
2, 32320, Note_off_c, 1, 80, 0
2, 32360, Note_on_c, 1, 52, 127
2, 32360, Note_on_c, 1, 71, 127
2, 32360, Note_on_c, 1, 74, 127
2, 32360, Note_on_c, 1, 76, 127
2, 32360, Note_on_c, 1, 80, 127
2, 32440, Note_off_c, 1, 52, 0
2, 32560, Note_on_c, 1, 52, 127
2, 32640, Note_off_c, 1, 52, 0
2, 32720, Note_off_c, 1, 71, 0
2, 32720, Note_off_c, 1, 74, 0
2, 32720, Note_off_c, 1, 76, 0
2, 32720, Note_off_c, 1, 80, 0
2, 32760, Note_on_c, 1, 52, 127
2, 32760, Note_on_c, 1, 71, 127
2, 32760, Note_on_c, 1, 74, 127
2, 32760, Note_on_c, 1, 76, 127
2, 32760, Note_on_c, 1, 80, 127
2, 32800, Note_off_c, 1, 52, 0
2, 32920, Note_off_c, 1, 71, 0
2, 32920, Note_off_c, 1, 74, 0
2, 32920, Note_off_c, 1, 80, 0
2, 32960, Note_on_c, 1, 52, 127
2, 32960, Note_on_c, 1, 72, 127
2, 32960, Note_on_c, 1, 84, 127
2, 33080, Note_off_c, 1, 52, 0
2, 33120, Note_off_c, 1, 72, 0
2, 33120, Note_off_c, 1, 84, 0
2, 33160, Note_on_c, 1, 52, 127
2, 33160, Note_on_c, 1, 72, 127
2, 33160, Note_on_c, 1, 84, 127
2, 33240, Note_off_c, 1, 52, 0
2, 33320, Note_off_c, 1, 72, 0
2, 33320, Note_off_c, 1, 76, 0
2, 33320, Note_off_c, 1, 84, 0
2, 33360, Note_on_c, 1, 45, 127
2, 33360, Note_on_c, 1, 50, 127
2, 33360, Note_on_c, 1, 57, 127
2, 33360, Note_on_c, 1, 60, 127
2, 33360, Note_on_c, 1, 67, 127
2, 33360, Note_on_c, 1, 72, 127
2, 33440, Note_off_c, 1, 45, 0
2, 33440, Note_off_c, 1, 50, 0
2, 33440, Note_off_c, 1, 57, 0
2, 33440, Note_off_c, 1, 60, 0
2, 33440, Note_off_c, 1, 67, 0
2, 33440, Note_off_c, 1, 72, 0
2, 33480, Note_on_c, 1, 45, 127
2, 33480, Note_on_c, 1, 50, 127
2, 33480, Note_on_c, 1, 57, 127
2, 33480, Note_on_c, 1, 60, 127
2, 33480, Note_on_c, 1, 67, 127
2, 33480, Note_on_c, 1, 72, 127
2, 33560, Note_off_c, 1, 45, 0
2, 33560, Note_off_c, 1, 50, 0
2, 33560, Note_off_c, 1, 57, 0
2, 33560, Note_off_c, 1, 60, 0
2, 33560, Note_off_c, 1, 67, 0
2, 33560, Note_off_c, 1, 72, 0
2, 33600, Note_on_c, 1, 57, 127
2, 33600, Note_on_c, 1, 67, 127
2, 33600, Note_on_c, 1, 73, 127
2, 33600, Note_on_c, 1, 78, 127
2, 33760, Note_off_c, 1, 57, 0
2, 33760, Note_off_c, 1, 67, 0
2, 33760, Note_off_c, 1, 73, 0
2, 33760, Note_off_c, 1, 78, 0
2, 33800, Note_on_c, 1, 34, 127
2, 33800, Note_on_c, 1, 74, 127
2, 33800, Note_on_c, 1, 77, 127
2, 33800, Note_on_c, 1, 86, 127
2, 33960, Note_off_c, 1, 34, 0
2, 34000, Note_on_c, 1, 57, 127
2, 34000, Note_on_c, 1, 61, 127
2, 34000, Note_on_c, 1, 67, 127
2, 34000, Note_on_c, 1, 69, 127
2, 34000, Note_off_c, 1, 74, 0
2, 34000, Note_on_c, 1, 76, 127
2, 34000, Note_off_c, 1, 77, 0
2, 34000, Note_off_c, 1, 86, 0
2, 34160, Note_off_c, 1, 57, 0
2, 34160, Note_off_c, 1, 61, 0
2, 34160, Note_off_c, 1, 67, 0
2, 34160, Note_off_c, 1, 69, 0
2, 34160, Note_off_c, 1, 76, 0
2, 34200, Note_on_c, 1, 57, 127
2, 34200, Note_on_c, 1, 61, 127
2, 34200, Note_on_c, 1, 69, 127
2, 34200, Note_on_c, 1, 73, 127
2, 34360, Note_off_c, 1, 57, 0
2, 34360, Note_off_c, 1, 61, 0
2, 34360, Note_off_c, 1, 69, 0
2, 34360, Note_off_c, 1, 73, 0
2, 34400, Note_on_c, 1, 38, 127
2, 34400, Note_on_c, 1, 74, 127
2, 34400, Note_on_c, 1, 86, 127
2, 34560, Note_off_c, 1, 38, 0
2, 34560, Note_off_c, 1, 74, 0
2, 34560, Note_off_c, 1, 86, 0
2, 34600, Note_on_c, 1, 57, 127
2, 34600, Note_on_c, 1, 62, 127
2, 34600, Note_on_c, 1, 66, 127
2, 34600, Note_on_c, 1, 69, 127
2, 34600, Note_on_c, 1, 74, 127
2, 34600, Note_on_c, 1, 78, 127
2, 34760, Note_off_c, 1, 57, 0
2, 34760, Note_off_c, 1, 62, 0
2, 34760, Note_off_c, 1, 66, 0
2, 34760, Note_off_c, 1, 69, 0
2, 34760, Note_off_c, 1, 74, 0
2, 34760, Note_off_c, 1, 78, 0
2, 34800, Note_on_c, 1, 59, 127
2, 34800, Note_on_c, 1, 62, 127
2, 34800, Note_on_c, 1, 74, 127
2, 34800, Note_on_c, 1, 78, 127
2, 34960, Note_off_c, 1, 59, 0
2, 34960, Note_off_c, 1, 62, 0
2, 34960, Note_off_c, 1, 74, 0
2, 34960, Note_off_c, 1, 78, 0
2, 35000, Note_on_c, 1, 62, 127
2, 35000, Note_on_c, 1, 65, 127
2, 35000, Note_on_c, 1, 69, 127
2, 35000, Note_on_c, 1, 74, 127
2, 35000, Note_on_c, 1, 77, 127
2, 35160, Note_off_c, 1, 62, 0
2, 35160, Note_off_c, 1, 65, 0
2, 35160, Note_off_c, 1, 69, 0
2, 35160, Note_off_c, 1, 74, 0
2, 35160, Note_off_c, 1, 77, 0
2, 35200, Note_on_c, 1, 54, 127
2, 35200, Note_on_c, 1, 64, 127
2, 35200, Note_on_c, 1, 66, 127
2, 35200, Note_on_c, 1, 81, 127
2, 35200, Note_on_c, 1, 85, 127
2, 35360, Note_off_c, 1, 54, 0
2, 35360, Note_off_c, 1, 64, 0
2, 35360, Note_off_c, 1, 66, 0
2, 35360, Note_off_c, 1, 81, 0
2, 35360, Note_off_c, 1, 85, 0
2, 35400, Note_on_c, 1, 42, 127
2, 35400, Note_on_c, 1, 51, 127
2, 35400, Note_on_c, 1, 54, 127
2, 35400, Note_on_c, 1, 59, 127
2, 35400, Note_on_c, 1, 63, 127
2, 35600, Note_off_c, 1, 42, 0
2, 35600, Note_off_c, 1, 51, 0
2, 35600, Note_off_c, 1, 54, 0
2, 35600, Note_off_c, 1, 59, 0
2, 35600, Note_off_c, 1, 63, 0
2, 35640, Note_on_c, 1, 42, 127
2, 35640, Note_on_c, 1, 51, 127
2, 35640, Note_on_c, 1, 54, 127
2, 35640, Note_on_c, 1, 59, 127
2, 35640, Note_on_c, 1, 63, 127
2, 35800, Note_off_c, 1, 42, 0
2, 35800, Note_off_c, 1, 51, 0
2, 35800, Note_off_c, 1, 54, 0
2, 35800, Note_off_c, 1, 59, 0
2, 35800, Note_off_c, 1, 63, 0
2, 35840, Note_on_c, 1, 59, 127
2, 35840, Note_on_c, 1, 67, 127
2, 35840, Note_on_c, 1, 77, 127
2, 35840, Note_on_c, 1, 80, 127
2, 35880, Note_off_c, 1, 59, 0
2, 35880, Note_off_c, 1, 67, 0
2, 35880, Note_off_c, 1, 77, 0
2, 35880, Note_off_c, 1, 80, 0
2, 35920, Note_on_c, 1, 32, 127
2, 35920, Note_on_c, 1, 44, 127
2, 35920, Note_on_c, 1, 74, 127
2, 35920, Note_on_c, 1, 78, 127
2, 35920, Note_on_c, 1, 84, 127
2, 35920, Note_on_c, 1, 86, 127
2, 35960, Note_off_c, 1, 32, 0
2, 35960, Note_off_c, 1, 44, 0
2, 35960, Note_on_c, 1, 58, 127
2, 35960, Note_on_c, 1, 60, 127
2, 35960, Note_on_c, 1, 63, 127
2, 35960, Note_on_c, 1, 67, 127
2, 35960, Note_on_c, 1, 72, 127
2, 35960, Note_off_c, 1, 74, 0
2, 35960, Note_off_c, 1, 78, 0
2, 35960, Note_off_c, 1, 84, 0
2, 35960, Note_off_c, 1, 86, 0
2, 36000, Note_off_c, 1, 58, 0
2, 36000, Note_off_c, 1, 60, 0
2, 36000, Note_off_c, 1, 63, 0
2, 36000, Note_off_c, 1, 67, 0
2, 36000, Note_off_c, 1, 72, 0
2, 36040, Note_on_c, 1, 61, 127
2, 36040, Note_on_c, 1, 67, 127
2, 36040, Note_on_c, 1, 69, 127
2, 36040, Note_on_c, 1, 76, 127
2, 36200, Note_off_c, 1, 61, 0
2, 36200, Note_off_c, 1, 67, 0
2, 36200, Note_off_c, 1, 69, 0
2, 36200, Note_off_c, 1, 76, 0
2, 36240, Note_on_c, 1, 61, 127
2, 36240, Note_on_c, 1, 67, 127
2, 36240, Note_on_c, 1, 69, 127
2, 36240, Note_on_c, 1, 76, 127
2, 36280, Note_off_c, 1, 61, 0
2, 36280, Note_on_c, 1, 62, 127
2, 36280, Note_on_c, 1, 66, 127
2, 36280, Note_off_c, 1, 67, 0
2, 36280, Note_off_c, 1, 69, 0
2, 36280, Note_off_c, 1, 76, 0
2, 36280, Note_on_c, 1, 78, 127
2, 36320, Note_on_c, 1, 61, 127
2, 36320, Note_off_c, 1, 62, 0
2, 36320, Note_off_c, 1, 66, 0
2, 36320, Note_on_c, 1, 67, 127
2, 36320, Note_on_c, 1, 69, 127
2, 36320, Note_on_c, 1, 76, 127
2, 36320, Note_off_c, 1, 78, 0
2, 36400, Note_off_c, 1, 61, 0
2, 36400, Note_off_c, 1, 67, 0
2, 36400, Note_off_c, 1, 69, 0
2, 36400, Note_off_c, 1, 76, 0
2, 36440, Note_on_c, 1, 59, 127
2, 36440, Note_on_c, 1, 64, 127
2, 36440, Note_on_c, 1, 68, 127
2, 36440, Note_on_c, 1, 74, 127
2, 36600, Note_off_c, 1, 64, 0
2, 36600, Note_off_c, 1, 68, 0
2, 36640, Note_on_c, 1, 64, 127
2, 36640, Note_on_c, 1, 68, 127
2, 36800, Note_off_c, 1, 59, 0
2, 36800, Note_off_c, 1, 64, 0
2, 36800, Note_off_c, 1, 68, 0
2, 36800, Note_off_c, 1, 74, 0
2, 36840, Note_on_c, 1, 57, 127
2, 36840, Note_on_c, 1, 64, 127
2, 36840, Note_on_c, 1, 69, 127
2, 36840, Note_on_c, 1, 73, 127
2, 37000, Note_off_c, 1, 57, 0
2, 37000, Note_off_c, 1, 64, 0
2, 37000, Note_off_c, 1, 69, 0
2, 37000, Note_off_c, 1, 73, 0
2, 37040, Note_on_c, 1, 70, 127
2, 37040, Note_on_c, 1, 72, 127
2, 37040, Note_on_c, 1, 78, 127
2, 37040, Note_on_c, 1, 87, 127
2, 37040, Note_on_c, 1, 89, 127
2, 37040, Note_on_c, 1, 93, 127
2, 37200, Note_off_c, 1, 70, 0
2, 37200, Note_off_c, 1, 72, 0
2, 37200, Note_off_c, 1, 78, 0
2, 37200, Note_off_c, 1, 87, 0
2, 37200, Note_off_c, 1, 89, 0
2, 37200, Note_off_c, 1, 93, 0
2, 37240, Note_on_c, 1, 45, 127
2, 37240, Note_on_c, 1, 52, 127
2, 37240, Note_on_c, 1, 61, 127
2, 37240, Note_on_c, 1, 73, 127
2, 37240, Note_on_c, 1, 76, 127
2, 37240, Note_on_c, 1, 81, 127
2, 37240, Note_on_c, 1, 85, 127
2, 37280, Note_off_c, 1, 52, 0
2, 37280, Note_off_c, 1, 61, 0
2, 37280, Note_off_c, 1, 73, 0
2, 37280, Note_off_c, 1, 76, 0
2, 37280, Note_off_c, 1, 85, 0
2, 37280, Note_on_c, 1, 86, 127
2, 37280, Note_on_c, 1, 90, 127
2, 37280, Note_on_c, 1, 93, 127
2, 37360, Note_off_c, 1, 45, 0
2, 37360, Note_on_c, 1, 54, 127
2, 37360, Note_on_c, 1, 60, 127
2, 37360, Note_on_c, 1, 66, 127
2, 37360, Note_on_c, 1, 69, 127
2, 37360, Note_on_c, 1, 78, 127
2, 37360, Note_off_c, 1, 81, 0
2, 37360, Note_off_c, 1, 86, 0
2, 37360, Note_off_c, 1, 90, 0
2, 37360, Note_off_c, 1, 93, 0
2, 37400, Note_off_c, 1, 54, 0
2, 37400, Note_off_c, 1, 60, 0
2, 37400, Note_off_c, 1, 66, 0
2, 37400, Note_off_c, 1, 69, 0
2, 37400, Note_off_c, 1, 78, 0
2, 37440, Note_on_c, 1, 57, 127
2, 37440, Note_on_c, 1, 62, 127
2, 37440, Note_on_c, 1, 84, 127
2, 37440, Note_on_c, 1, 90, 127
2, 37440, Note_on_c, 1, 95, 127
2, 37600, Note_off_c, 1, 57, 0
2, 37600, Note_off_c, 1, 62, 0
2, 37600, Note_off_c, 1, 84, 0
2, 37600, Note_off_c, 1, 90, 0
2, 37600, Note_off_c, 1, 95, 0
2, 37680, Note_on_c, 1, 48, 127
2, 37680, Note_on_c, 1, 53, 127
2, 37680, Note_on_c, 1, 57, 127
2, 37680, Note_on_c, 1, 60, 127
2, 37680, Note_on_c, 1, 77, 127
2, 37680, Note_on_c, 1, 81, 127
2, 37680, Note_on_c, 1, 84, 127
2, 37680, Note_on_c, 1, 89, 127
2, 37840, Note_off_c, 1, 48, 0
2, 37840, Note_off_c, 1, 53, 0
2, 37840, Note_off_c, 1, 57, 0
2, 37840, Note_off_c, 1, 60, 0
2, 37840, Note_off_c, 1, 77, 0
2, 37840, Note_off_c, 1, 81, 0
2, 37840, Note_off_c, 1, 84, 0
2, 37840, Note_off_c, 1, 89, 0
2, 37880, Note_on_c, 1, 33, 127
2, 37880, Note_on_c, 1, 50, 127
2, 37880, Note_on_c, 1, 54, 127
2, 37880, Note_on_c, 1, 62, 127
2, 38040, Note_off_c, 1, 33, 0
2, 38040, Note_off_c, 1, 50, 0
2, 38040, Note_off_c, 1, 54, 0
2, 38040, Note_off_c, 1, 62, 0
2, 38080, Note_on_c, 1, 59, 127
2, 38080, Note_on_c, 1, 62, 127
2, 38080, Note_on_c, 1, 67, 127
2, 38080, Note_on_c, 1, 71, 127
2, 38080, Note_on_c, 1, 91, 127
2, 38120, Note_on_c, 1, 42, 127
2, 38120, Note_off_c, 1, 59, 0
2, 38120, Note_off_c, 1, 62, 0
2, 38120, Note_off_c, 1, 67, 0
2, 38120, Note_off_c, 1, 71, 0
2, 38120, Note_off_c, 1, 91, 0
2, 38120, Note_on_c, 1, 93, 127
2, 38120, Note_on_c, 1, 105, 127
2, 38160, Note_off_c, 1, 42, 0
2, 38160, Note_off_c, 1, 93, 0
2, 38200, Note_on_c, 1, 65, 127
2, 38200, Note_on_c, 1, 80, 127
2, 38200, Note_on_c, 1, 89, 127
2, 38200, Note_on_c, 1, 92, 127
2, 38200, Note_off_c, 1, 105, 0
2, 38240, Note_off_c, 1, 65, 0
2, 38240, Note_off_c, 1, 80, 0
2, 38240, Note_off_c, 1, 89, 0
2, 38240, Note_off_c, 1, 92, 0
2, 38280, Note_on_c, 1, 40, 127
2, 38280, Note_on_c, 1, 43, 127
2, 38280, Note_on_c, 1, 52, 127
2, 38280, Note_on_c, 1, 67, 127
2, 38440, Note_off_c, 1, 40, 0
2, 38440, Note_off_c, 1, 43, 0
2, 38440, Note_off_c, 1, 52, 0
2, 38440, Note_off_c, 1, 67, 0
2, 38480, Note_on_c, 1, 40, 127
2, 38480, Note_on_c, 1, 43, 127
2, 38480, Note_on_c, 1, 52, 127
2, 38480, Note_on_c, 1, 67, 127
2, 38640, Note_off_c, 1, 40, 0
2, 38640, Note_off_c, 1, 43, 0
2, 38640, Note_off_c, 1, 52, 0
2, 38640, Note_off_c, 1, 67, 0
2, 38680, Note_on_c, 1, 38, 127
2, 38680, Note_on_c, 1, 58, 127
2, 38680, Note_on_c, 1, 61, 127
2, 38680, Note_on_c, 1, 67, 127
2, 38720, Note_on_c, 1, 50, 127
2, 38720, Note_on_c, 1, 53, 127
2, 38720, Note_on_c, 1, 57, 127
2, 38720, Note_off_c, 1, 58, 0
2, 38720, Note_off_c, 1, 61, 0
2, 38720, Note_on_c, 1, 62, 127
2, 38720, Note_off_c, 1, 67, 0
2, 38760, Note_on_c, 1, 47, 127
2, 38760, Note_off_c, 1, 50, 0
2, 38760, Note_off_c, 1, 53, 0
2, 38760, Note_off_c, 1, 57, 0
2, 38760, Note_on_c, 1, 59, 127
2, 38760, Note_on_c, 1, 66, 127
2, 38840, Note_off_c, 1, 38, 0
2, 38840, Note_off_c, 1, 47, 0
2, 38840, Note_off_c, 1, 59, 0
2, 38840, Note_off_c, 1, 62, 0
2, 38840, Note_off_c, 1, 66, 0
2, 38880, Note_on_c, 1, 49, 127
2, 38880, Note_on_c, 1, 51, 127
2, 38880, Note_on_c, 1, 58, 127
2, 38880, Note_on_c, 1, 101, 127
2, 38920, Note_off_c, 1, 49, 0
2, 38920, Note_off_c, 1, 51, 0
2, 38920, Note_on_c, 1, 57, 127
2, 38920, Note_off_c, 1, 58, 0
2, 38920, Note_on_c, 1, 69, 127
2, 38920, Note_on_c, 1, 88, 127
2, 38920, Note_on_c, 1, 93, 127
2, 38920, Note_off_c, 1, 101, 0
2, 38960, Note_on_c, 1, 49, 127
2, 38960, Note_on_c, 1, 51, 127
2, 38960, Note_off_c, 1, 57, 0
2, 38960, Note_on_c, 1, 58, 127
2, 38960, Note_off_c, 1, 69, 0
2, 38960, Note_off_c, 1, 88, 0
2, 38960, Note_off_c, 1, 93, 0
2, 38960, Note_on_c, 1, 101, 127
2, 39040, Note_off_c, 1, 49, 0
2, 39040, Note_off_c, 1, 51, 0
2, 39040, Note_off_c, 1, 58, 0
2, 39040, Note_off_c, 1, 101, 0
2, 39040, Note_on_c, 1, 103, 127
2, 39080, Note_on_c, 1, 39, 127
2, 39080, Note_on_c, 1, 51, 127
2, 39080, Note_on_c, 1, 58, 127
2, 39080, Note_on_c, 1, 61, 127
2, 39080, Note_on_c, 1, 67, 127
2, 39080, Note_on_c, 1, 94, 127
2, 39080, Note_off_c, 1, 103, 0
2, 39120, Note_off_c, 1, 39, 0
2, 39120, Note_off_c, 1, 51, 0
2, 39120, Note_on_c, 1, 55, 127
2, 39120, Note_off_c, 1, 58, 0
2, 39120, Note_off_c, 1, 61, 0
2, 39120, Note_on_c, 1, 65, 127
2, 39120, Note_off_c, 1, 67, 0
2, 39120, Note_on_c, 1, 72, 127
2, 39120, Note_on_c, 1, 81, 127
2, 39120, Note_on_c, 1, 84, 127
2, 39120, Note_off_c, 1, 94, 0
2, 39160, Note_on_c, 1, 37, 127
2, 39160, Note_on_c, 1, 52, 127
2, 39160, Note_off_c, 1, 55, 0
2, 39160, Note_off_c, 1, 65, 0
2, 39160, Note_on_c, 1, 68, 127
2, 39160, Note_off_c, 1, 72, 0
2, 39160, Note_on_c, 1, 76, 127
2, 39160, Note_on_c, 1, 80, 127
2, 39160, Note_off_c, 1, 81, 0
2, 39160, Note_off_c, 1, 84, 0
2, 39200, Note_off_c, 1, 37, 0
2, 39200, Note_on_c, 1, 40, 127
2, 39200, Note_off_c, 1, 68, 0
2, 39200, Note_on_c, 1, 70, 127
2, 39200, Note_on_c, 1, 73, 127
2, 39200, Note_off_c, 1, 76, 0
2, 39200, Note_on_c, 1, 78, 127
2, 39240, Note_off_c, 1, 40, 0
2, 39240, Note_off_c, 1, 52, 0
2, 39240, Note_off_c, 1, 70, 0
2, 39240, Note_off_c, 1, 73, 0
2, 39240, Note_off_c, 1, 78, 0
2, 39240, Note_off_c, 1, 80, 0
2, 39280, Note_on_c, 1, 48, 127
2, 39280, Note_on_c, 1, 103, 127
2, 39440, Note_off_c, 1, 48, 0
2, 39480, Note_on_c, 1, 55, 127
2, 39480, Note_on_c, 1, 60, 127
2, 39480, Note_on_c, 1, 64, 127
2, 39480, Note_on_c, 1, 67, 127
2, 39480, Note_on_c, 1, 91, 127
2, 39480, Note_off_c, 1, 103, 0
2, 39560, Note_off_c, 1, 55, 0
2, 39560, Note_off_c, 1, 60, 0
2, 39560, Note_off_c, 1, 64, 0
2, 39560, Note_off_c, 1, 67, 0
2, 39560, Note_on_c, 1, 88, 127
2, 39560, Note_off_c, 1, 91, 0
2, 39680, Note_on_c, 1, 50, 127
2, 39680, Note_on_c, 1, 72, 127
2, 39680, Note_on_c, 1, 77, 127
2, 39680, Note_on_c, 1, 81, 127
2, 39680, Note_on_c, 1, 84, 127
2, 39680, Note_off_c, 1, 88, 0
2, 39720, Note_on_c, 1, 48, 127
2, 39720, Note_off_c, 1, 50, 0
2, 39760, Note_off_c, 1, 48, 0
2, 39760, Note_on_c, 1, 56, 127
2, 39760, Note_on_c, 1, 60, 127
2, 39760, Note_on_c, 1, 65, 127
2, 39760, Note_on_c, 1, 68, 127
2, 39760, Note_off_c, 1, 72, 0
2, 39760, Note_off_c, 1, 77, 0
2, 39760, Note_off_c, 1, 81, 0
2, 39800, Note_off_c, 1, 56, 0
2, 39800, Note_off_c, 1, 60, 0
2, 39800, Note_off_c, 1, 65, 0
2, 39800, Note_off_c, 1, 68, 0
2, 39800, Note_off_c, 1, 84, 0
2, 39840, Note_on_c, 1, 48, 127
2, 39840, Note_on_c, 1, 72, 127
2, 39840, Note_on_c, 1, 77, 127
2, 39840, Note_on_c, 1, 81, 127
2, 39840, Note_on_c, 1, 84, 127
2, 39880, Note_on_c, 1, 40, 127
2, 39880, Note_off_c, 1, 48, 0
2, 39880, Note_off_c, 1, 72, 0
2, 39880, Note_off_c, 1, 77, 0
2, 39880, Note_off_c, 1, 81, 0
2, 39880, Note_off_c, 1, 84, 0
2, 39920, Note_off_c, 1, 40, 0
2, 39920, Note_on_c, 1, 45, 127
2, 39920, Note_on_c, 1, 53, 127
2, 39920, Note_on_c, 1, 57, 127
2, 39920, Note_on_c, 1, 60, 127
2, 39920, Note_on_c, 1, 65, 127
2, 39920, Note_on_c, 1, 72, 127
2, 39920, Note_on_c, 1, 77, 127
2, 40080, Note_off_c, 1, 45, 0
2, 40080, Note_off_c, 1, 53, 0
2, 40080, Note_off_c, 1, 57, 0
2, 40080, Note_off_c, 1, 60, 0
2, 40080, Note_off_c, 1, 65, 0
2, 40080, Note_off_c, 1, 72, 0
2, 40080, Note_off_c, 1, 77, 0
2, 40120, Note_on_c, 1, 57, 127
2, 40120, Note_on_c, 1, 62, 127
2, 40120, Note_on_c, 1, 65, 127
2, 40120, Note_on_c, 1, 68, 127
2, 40120, Note_on_c, 1, 104, 127
2, 40120, Note_on_c, 1, 105, 127
2, 40160, Note_on_c, 1, 50, 127
2, 40160, Note_on_c, 1, 55, 127
2, 40160, Note_off_c, 1, 57, 0
2, 40160, Note_on_c, 1, 58, 127
2, 40160, Note_off_c, 1, 65, 0
2, 40160, Note_on_c, 1, 67, 127
2, 40160, Note_off_c, 1, 68, 0
2, 40160, Note_on_c, 1, 69, 127
2, 40160, Note_off_c, 1, 104, 0
2, 40160, Note_off_c, 1, 105, 0
2, 40200, Note_on_c, 1, 36, 127
2, 40200, Note_on_c, 1, 48, 127
2, 40200, Note_off_c, 1, 50, 0
2, 40200, Note_off_c, 1, 55, 0
2, 40200, Note_off_c, 1, 58, 0
2, 40200, Note_off_c, 1, 62, 0
2, 40200, Note_on_c, 1, 66, 127
2, 40200, Note_off_c, 1, 67, 0
2, 40200, Note_on_c, 1, 81, 127
2, 40200, Note_on_c, 1, 93, 127
2, 40240, Note_off_c, 1, 36, 0
2, 40240, Note_off_c, 1, 48, 0
2, 40240, Note_on_c, 1, 57, 127
2, 40240, Note_on_c, 1, 62, 127
2, 40240, Note_on_c, 1, 65, 127
2, 40240, Note_off_c, 1, 66, 0
2, 40240, Note_on_c, 1, 68, 127
2, 40240, Note_off_c, 1, 69, 0
2, 40240, Note_off_c, 1, 81, 0
2, 40240, Note_off_c, 1, 93, 0
2, 40240, Note_on_c, 1, 104, 127
2, 40240, Note_on_c, 1, 105, 127
2, 40280, Note_off_c, 1, 57, 0
2, 40280, Note_off_c, 1, 62, 0
2, 40280, Note_off_c, 1, 65, 0
2, 40280, Note_off_c, 1, 68, 0
2, 40280, Note_off_c, 1, 104, 0
2, 40280, Note_off_c, 1, 105, 0
2, 40320, Note_on_c, 1, 57, 127
2, 40320, Note_on_c, 1, 62, 127
2, 40320, Note_on_c, 1, 65, 127
2, 40320, Note_on_c, 1, 68, 127
2, 40320, Note_on_c, 1, 83, 127
2, 40320, Note_on_c, 1, 84, 127
2, 40600, Note_on_c, 1, 82, 127
2, 40680, Note_off_c, 1, 57, 0
2, 40680, Note_off_c, 1, 62, 0
2, 40680, Note_off_c, 1, 65, 0
2, 40680, Note_off_c, 1, 68, 0
2, 40680, Note_off_c, 1, 82, 0
2, 40680, Note_off_c, 1, 83, 0
2, 40680, Note_off_c, 1, 84, 0
2, 40720, Note_on_c, 1, 37, 127
2, 40720, Note_on_c, 1, 49, 127
2, 40720, Note_on_c, 1, 53, 127
2, 40720, Note_on_c, 1, 63, 127
2, 40720, Note_on_c, 1, 65, 127
2, 40880, Note_off_c, 1, 37, 0
2, 40880, Note_off_c, 1, 49, 0
2, 40880, Note_off_c, 1, 53, 0
2, 40880, Note_off_c, 1, 63, 0
2, 40880, Note_off_c, 1, 65, 0
2, 40920, Note_on_c, 1, 52, 127
2, 40920, Note_on_c, 1, 54, 127
2, 40920, Note_on_c, 1, 57, 127
2, 40920, Note_on_c, 1, 59, 127
2, 40920, Note_on_c, 1, 63, 127
2, 40920, Note_on_c, 1, 87, 127
2, 40960, Note_on_c, 1, 50, 127
2, 40960, Note_off_c, 1, 54, 0
2, 40960, Note_on_c, 1, 56, 127
2, 40960, Note_off_c, 1, 57, 0
2, 40960, Note_off_c, 1, 59, 0
2, 40960, Note_off_c, 1, 63, 0
2, 40960, Note_off_c, 1, 87, 0
2, 41000, Note_off_c, 1, 50, 0
2, 41000, Note_on_c, 1, 51, 127
2, 41000, Note_off_c, 1, 52, 0
2, 41000, Note_on_c, 1, 55, 127
2, 41000, Note_off_c, 1, 56, 0
2, 41000, Note_on_c, 1, 61, 127
2, 41000, Note_on_c, 1, 64, 127
2, 41000, Note_on_c, 1, 71, 127
2, 41000, Note_on_c, 1, 76, 127
2, 41040, Note_off_c, 1, 51, 0
2, 41040, Note_off_c, 1, 55, 0
2, 41040, Note_off_c, 1, 61, 0
2, 41040, Note_off_c, 1, 64, 0
2, 41040, Note_off_c, 1, 71, 0
2, 41040, Note_on_c, 1, 75, 127
2, 41040, Note_off_c, 1, 76, 0
2, 41040, Note_on_c, 1, 80, 127
2, 41040, Note_on_c, 1, 83, 127
2, 41040, Note_on_c, 1, 95, 127
2, 41080, Note_off_c, 1, 75, 0
2, 41080, Note_off_c, 1, 80, 0
2, 41080, Note_off_c, 1, 83, 0
2, 41080, Note_off_c, 1, 95, 0
2, 41120, Note_on_c, 1, 36, 127
2, 41120, Note_on_c, 1, 48, 127
2, 41120, Note_on_c, 1, 54, 127
2, 41120, Note_on_c, 1, 65, 127
2, 41160, Note_off_c, 1, 36, 0
2, 41160, Note_off_c, 1, 48, 0
2, 41160, Note_off_c, 1, 54, 0
2, 41160, Note_off_c, 1, 65, 0
2, 41160, Note_on_c, 1, 71, 127
2, 41160, Note_on_c, 1, 73, 127
2, 41160, Note_on_c, 1, 78, 127
2, 41160, Note_on_c, 1, 82, 127
2, 41160, Note_on_c, 1, 85, 127
2, 41200, Note_on_c, 1, 38, 127
2, 41200, Note_on_c, 1, 47, 127
2, 41200, Note_on_c, 1, 55, 127
2, 41200, Note_on_c, 1, 65, 127
2, 41200, Note_on_c, 1, 67, 127
2, 41200, Note_off_c, 1, 71, 0
2, 41200, Note_off_c, 1, 73, 0
2, 41200, Note_off_c, 1, 78, 0
2, 41200, Note_off_c, 1, 82, 0
2, 41200, Note_off_c, 1, 85, 0
2, 41240, Note_off_c, 1, 38, 0
2, 41240, Note_on_c, 1, 39, 127
2, 41240, Note_on_c, 1, 51, 127
2, 41240, Note_on_c, 1, 54, 127
2, 41240, Note_off_c, 1, 55, 0
2, 41240, Note_on_c, 1, 59, 127
2, 41240, Note_off_c, 1, 65, 0
2, 41240, Note_on_c, 1, 66, 127
2, 41240, Note_off_c, 1, 67, 0
2, 41280, Note_off_c, 1, 39, 0
2, 41280, Note_off_c, 1, 47, 0
2, 41280, Note_off_c, 1, 51, 0
2, 41280, Note_off_c, 1, 54, 0
2, 41280, Note_off_c, 1, 59, 0
2, 41280, Note_off_c, 1, 66, 0
2, 41320, Note_on_c, 1, 50, 127
2, 41320, Note_on_c, 1, 57, 127
2, 41320, Note_on_c, 1, 60, 127
2, 41320, Note_on_c, 1, 61, 127
2, 41320, Note_on_c, 1, 66, 127
2, 41320, Note_on_c, 1, 73, 127
2, 41480, Note_off_c, 1, 50, 0
2, 41480, Note_off_c, 1, 57, 0
2, 41480, Note_off_c, 1, 60, 0
2, 41480, Note_off_c, 1, 61, 0
2, 41480, Note_off_c, 1, 66, 0
2, 41480, Note_off_c, 1, 73, 0
2, 41520, Note_on_c, 1, 50, 127
2, 41520, Note_on_c, 1, 57, 127
2, 41520, Note_on_c, 1, 60, 127
2, 41520, Note_on_c, 1, 62, 127
2, 41520, Note_on_c, 1, 66, 127
2, 41520, Note_on_c, 1, 74, 127
2, 41680, Note_off_c, 1, 50, 0
2, 41680, Note_off_c, 1, 57, 0
2, 41680, Note_off_c, 1, 60, 0
2, 41680, Note_off_c, 1, 62, 0
2, 41680, Note_off_c, 1, 66, 0
2, 41680, Note_off_c, 1, 74, 0
2, 41720, Note_on_c, 1, 50, 127
2, 41720, Note_on_c, 1, 57, 127
2, 41720, Note_on_c, 1, 60, 127
2, 41720, Note_on_c, 1, 62, 127
2, 41720, Note_on_c, 1, 66, 127
2, 41720, Note_on_c, 1, 74, 127
2, 41880, Note_off_c, 1, 50, 0
2, 41880, Note_off_c, 1, 57, 0
2, 41880, Note_off_c, 1, 60, 0
2, 41880, Note_off_c, 1, 62, 0
2, 41880, Note_off_c, 1, 66, 0
2, 41880, Note_off_c, 1, 74, 0
2, 41920, Note_on_c, 1, 50, 127
2, 41920, Note_on_c, 1, 57, 127
2, 41920, Note_on_c, 1, 60, 127
2, 41920, Note_on_c, 1, 63, 127
2, 41920, Note_on_c, 1, 66, 127
2, 41920, Note_on_c, 1, 75, 127
2, 42040, Note_off_c, 1, 50, 0
2, 42040, Note_off_c, 1, 57, 0
2, 42040, Note_off_c, 1, 60, 0
2, 42040, Note_off_c, 1, 63, 0
2, 42040, Note_off_c, 1, 66, 0
2, 42040, Note_off_c, 1, 75, 0
2, 42080, Note_on_c, 1, 50, 127
2, 42080, Note_on_c, 1, 57, 127
2, 42080, Note_on_c, 1, 60, 127
2, 42080, Note_on_c, 1, 63, 127
2, 42080, Note_on_c, 1, 66, 127
2, 42080, Note_on_c, 1, 75, 127
2, 42120, Note_off_c, 1, 50, 0
2, 42120, Note_off_c, 1, 57, 0
2, 42120, Note_off_c, 1, 60, 0
2, 42120, Note_off_c, 1, 63, 0
2, 42120, Note_off_c, 1, 66, 0
2, 42120, Note_off_c, 1, 75, 0
2, 42160, Note_on_c, 1, 60, 127
2, 42160, Note_on_c, 1, 65, 127
2, 42160, Note_on_c, 1, 69, 127
2, 42160, Note_on_c, 1, 75, 127
2, 42160, Note_on_c, 1, 77, 127
2, 42520, Note_off_c, 1, 60, 0
2, 42520, Note_off_c, 1, 65, 0
2, 42520, Note_off_c, 1, 69, 0
2, 42520, Note_off_c, 1, 75, 0
2, 42520, Note_off_c, 1, 77, 0
2, 42560, Note_on_c, 1, 53, 127
2, 42560, Note_on_c, 1, 60, 127
2, 42560, Note_on_c, 1, 77, 127
2, 42560, Note_on_c, 1, 81, 127
2, 42560, Note_on_c, 1, 89, 127
2, 42720, Note_off_c, 1, 53, 0
2, 42720, Note_off_c, 1, 60, 0
2, 42720, Note_off_c, 1, 77, 0
2, 42720, Note_off_c, 1, 81, 0
2, 42720, Note_off_c, 1, 89, 0
2, 42760, Note_on_c, 1, 53, 127
2, 42760, Note_on_c, 1, 60, 127
2, 42760, Note_on_c, 1, 77, 127
2, 42760, Note_on_c, 1, 81, 127
2, 42760, Note_on_c, 1, 89, 127
2, 42920, Note_off_c, 1, 53, 0
2, 42920, Note_off_c, 1, 60, 0
2, 42920, Note_off_c, 1, 77, 0
2, 42920, Note_off_c, 1, 81, 0
2, 42920, Note_off_c, 1, 89, 0
2, 42960, Note_on_c, 1, 37, 127
2, 42960, Note_on_c, 1, 64, 127
2, 42960, Note_on_c, 1, 71, 127
2, 42960, Note_on_c, 1, 76, 127
2, 42960, Note_on_c, 1, 82, 127
2, 43120, Note_off_c, 1, 37, 0
2, 43120, Note_off_c, 1, 64, 0
2, 43120, Note_off_c, 1, 71, 0
2, 43120, Note_off_c, 1, 76, 0
2, 43120, Note_off_c, 1, 82, 0
2, 43160, Note_on_c, 1, 49, 127
2, 43160, Note_on_c, 1, 56, 127
2, 43160, Note_on_c, 1, 68, 127
2, 43160, Note_on_c, 1, 77, 127
2, 43160, Note_on_c, 1, 85, 127
2, 43160, Note_on_c, 1, 89, 127
2, 43320, Note_off_c, 1, 49, 0
2, 43320, Note_off_c, 1, 56, 0
2, 43320, Note_off_c, 1, 68, 0
2, 43320, Note_off_c, 1, 77, 0
2, 43320, Note_off_c, 1, 85, 0
2, 43320, Note_off_c, 1, 89, 0
2, 43360, Note_on_c, 1, 66, 127
2, 43360, Note_on_c, 1, 69, 127
2, 43360, Note_on_c, 1, 74, 127
2, 43360, Note_on_c, 1, 86, 127
2, 43360, Note_on_c, 1, 93, 127
2, 43360, Note_on_c, 1, 98, 127
2, 43520, Note_off_c, 1, 66, 0
2, 43520, Note_off_c, 1, 69, 0
2, 43520, Note_off_c, 1, 74, 0
2, 43520, Note_off_c, 1, 86, 0
2, 43520, Note_off_c, 1, 93, 0
2, 43520, Note_off_c, 1, 98, 0
2, 43560, Note_on_c, 1, 61, 127
2, 43560, Note_on_c, 1, 64, 127
2, 43560, Note_on_c, 1, 69, 127
2, 43560, Note_on_c, 1, 73, 127
2, 43560, Note_on_c, 1, 81, 127
2, 43560, Note_on_c, 1, 85, 127
2, 43720, Note_off_c, 1, 61, 0
2, 43720, Note_off_c, 1, 64, 0
2, 43720, Note_off_c, 1, 69, 0
2, 43720, Note_off_c, 1, 73, 0
2, 43720, Note_off_c, 1, 81, 0
2, 43720, Note_off_c, 1, 85, 0
2, 43760, Note_on_c, 1, 53, 127
2, 43760, Note_on_c, 1, 60, 127
2, 43760, Note_on_c, 1, 63, 127
2, 43760, Note_on_c, 1, 70, 127
2, 43760, Note_on_c, 1, 91, 127
2, 43960, Note_on_c, 1, 32, 127
2, 43960, Note_on_c, 1, 44, 127
2, 43960, Note_off_c, 1, 53, 0
2, 43960, Note_on_c, 1, 57, 127
2, 43960, Note_off_c, 1, 63, 0
2, 43960, Note_off_c, 1, 70, 0
2, 43960, Note_off_c, 1, 91, 0
2, 44120, Note_off_c, 1, 32, 0
2, 44120, Note_off_c, 1, 44, 0
2, 44120, Note_off_c, 1, 57, 0
2, 44120, Note_off_c, 1, 60, 0
2, 44200, Note_on_c, 1, 36, 127
2, 44200, Note_on_c, 1, 48, 127
2, 44200, Note_on_c, 1, 55, 127
2, 44200, Note_on_c, 1, 60, 127
2, 44200, Note_on_c, 1, 64, 127
2, 44200, Note_on_c, 1, 67, 127
2, 44560, Note_off_c, 1, 36, 0
2, 44560, Note_off_c, 1, 48, 0
2, 44560, Note_off_c, 1, 55, 0
2, 44560, Note_off_c, 1, 60, 0
2, 44560, Note_off_c, 1, 64, 0
2, 44560, Note_off_c, 1, 67, 0
2, 44600, Note_on_c, 1, 36, 127
2, 44600, Note_on_c, 1, 48, 127
2, 44600, Note_on_c, 1, 84, 127
2, 44600, Note_on_c, 1, 96, 127
2, 44760, Note_off_c, 1, 36, 0
2, 44760, Note_off_c, 1, 48, 0
2, 44760, Note_off_c, 1, 84, 0
2, 44760, Note_off_c, 1, 96, 0
2, 44800, Note_on_c, 1, 38, 127
2, 44800, Note_on_c, 1, 50, 127
2, 44800, Note_on_c, 1, 86, 127
2, 44800, Note_on_c, 1, 98, 127
2, 44960, Note_off_c, 1, 38, 0
2, 44960, Note_off_c, 1, 50, 0
2, 44960, Note_off_c, 1, 86, 0
2, 44960, Note_off_c, 1, 98, 0
2, 45000, Note_on_c, 1, 60, 127
2, 45000, Note_on_c, 1, 72, 127
2, 45000, Note_on_c, 1, 75, 127
2, 45000, Note_on_c, 1, 87, 127
2, 45160, Note_off_c, 1, 60, 0
2, 45160, Note_off_c, 1, 72, 0
2, 45160, Note_off_c, 1, 75, 0
2, 45160, Note_off_c, 1, 87, 0
2, 45200, Note_on_c, 1, 56, 127
2, 45200, Note_on_c, 1, 68, 127
2, 45200, Note_on_c, 1, 72, 127
2, 45200, Note_on_c, 1, 84, 127
2, 45360, Note_off_c, 1, 56, 0
2, 45360, Note_off_c, 1, 68, 0
2, 45360, Note_off_c, 1, 72, 0
2, 45360, Note_off_c, 1, 84, 0
2, 45400, Note_on_c, 1, 44, 127
2, 45400, Note_on_c, 1, 56, 127
2, 45400, Note_on_c, 1, 72, 127
2, 45400, Note_on_c, 1, 75, 127
2, 45400, Note_on_c, 1, 80, 127
2, 45400, Note_on_c, 1, 84, 127
2, 45560, Note_off_c, 1, 44, 0
2, 45560, Note_off_c, 1, 56, 0
2, 45560, Note_off_c, 1, 72, 0
2, 45560, Note_off_c, 1, 75, 0
2, 45560, Note_off_c, 1, 80, 0
2, 45560, Note_off_c, 1, 84, 0
2, 45600, Note_on_c, 1, 35, 127
2, 45600, Note_on_c, 1, 47, 127
2, 45600, Note_on_c, 1, 62, 127
2, 45600, Note_on_c, 1, 67, 127
2, 45600, Note_on_c, 1, 71, 127
2, 45600, Note_on_c, 1, 74, 127
2, 45760, Note_off_c, 1, 35, 0
2, 45760, Note_off_c, 1, 47, 0
2, 45760, Note_off_c, 1, 62, 0
2, 45760, Note_off_c, 1, 67, 0
2, 45760, Note_off_c, 1, 71, 0
2, 45760, Note_off_c, 1, 74, 0
2, 45800, Note_on_c, 1, 38, 127
2, 45800, Note_on_c, 1, 50, 127
2, 45800, Note_on_c, 1, 65, 127
2, 45800, Note_on_c, 1, 69, 127
2, 45800, Note_on_c, 1, 74, 127
2, 45920, Note_off_c, 1, 65, 0
2, 45920, Note_on_c, 1, 66, 127
2, 45960, Note_off_c, 1, 38, 0
2, 45960, Note_off_c, 1, 50, 0
2, 45960, Note_off_c, 1, 66, 0
2, 45960, Note_off_c, 1, 69, 0
2, 45960, Note_off_c, 1, 74, 0
2, 46040, Note_on_c, 1, 53, 127
2, 46040, Note_on_c, 1, 57, 127
2, 46040, Note_on_c, 1, 60, 127
2, 46040, Note_on_c, 1, 65, 127
2, 46040, Note_on_c, 1, 69, 127
2, 46040, Note_on_c, 1, 72, 127
2, 46040, Note_on_c, 1, 81, 127
2, 46080, Note_on_c, 1, 36, 127
2, 46080, Note_on_c, 1, 48, 127
2, 46080, Note_off_c, 1, 53, 0
2, 46080, Note_off_c, 1, 57, 0
2, 46080, Note_off_c, 1, 60, 0
2, 46080, Note_off_c, 1, 65, 0
2, 46080, Note_off_c, 1, 69, 0
2, 46080, Note_off_c, 1, 72, 0
2, 46080, Note_on_c, 1, 78, 127
2, 46080, Note_on_c, 1, 88, 127
2, 46120, Note_off_c, 1, 36, 0
2, 46120, Note_on_c, 1, 43, 127
2, 46120, Note_on_c, 1, 60, 127
2, 46120, Note_on_c, 1, 67, 127
2, 46120, Note_off_c, 1, 78, 0
2, 46120, Note_off_c, 1, 81, 0
2, 46120, Note_off_c, 1, 88, 0
2, 46160, Note_on_c, 1, 36, 127
2, 46160, Note_off_c, 1, 43, 0
2, 46160, Note_off_c, 1, 60, 0
2, 46160, Note_off_c, 1, 67, 0
2, 46160, Note_on_c, 1, 78, 127
2, 46160, Note_on_c, 1, 81, 127
2, 46160, Note_on_c, 1, 88, 127
2, 46200, Note_off_c, 1, 36, 0
2, 46200, Note_off_c, 1, 48, 0
2, 46200, Note_off_c, 1, 78, 0
2, 46200, Note_off_c, 1, 81, 0
2, 46200, Note_off_c, 1, 88, 0
2, 46240, Note_on_c, 1, 42, 127
2, 46240, Note_on_c, 1, 54, 127
2, 46240, Note_on_c, 1, 83, 127
2, 46240, Note_on_c, 1, 87, 127
2, 46240, Note_on_c, 1, 90, 127
2, 46240, Note_on_c, 1, 95, 127
2, 46400, Note_off_c, 1, 42, 0
2, 46400, Note_off_c, 1, 54, 0
2, 46400, Note_off_c, 1, 83, 0
2, 46400, Note_off_c, 1, 87, 0
2, 46400, Note_off_c, 1, 90, 0
2, 46400, Note_off_c, 1, 95, 0
2, 46440, Note_on_c, 1, 32, 127
2, 46440, Note_on_c, 1, 44, 127
2, 46440, Note_on_c, 1, 91, 127
2, 46600, Note_off_c, 1, 32, 0
2, 46600, Note_off_c, 1, 44, 0
2, 46600, Note_off_c, 1, 91, 0
2, 46640, Note_on_c, 1, 32, 127
2, 46640, Note_on_c, 1, 44, 127
2, 46640, Note_on_c, 1, 91, 127
2, 46720, Note_on_c, 1, 79, 127
2, 46720, Note_off_c, 1, 91, 0
2, 46760, Note_off_c, 1, 79, 0
2, 46760, Note_on_c, 1, 91, 127
2, 46800, Note_off_c, 1, 32, 0
2, 46800, Note_off_c, 1, 44, 0
2, 46800, Note_off_c, 1, 91, 0
2, 46840, Note_on_c, 1, 32, 127
2, 46840, Note_on_c, 1, 44, 127
2, 46840, Note_on_c, 1, 89, 127
2, 46880, Note_on_c, 1, 77, 127
2, 46880, Note_off_c, 1, 89, 0
2, 46920, Note_off_c, 1, 77, 0
2, 46920, Note_on_c, 1, 89, 127
2, 47000, Note_off_c, 1, 89, 0
2, 47040, Note_on_c, 1, 89, 127
2, 47080, Note_on_c, 1, 77, 127
2, 47080, Note_off_c, 1, 89, 0
2, 47120, Note_off_c, 1, 77, 0
2, 47120, Note_on_c, 1, 89, 127
2, 47200, Note_off_c, 1, 32, 0
2, 47200, Note_off_c, 1, 44, 0
2, 47200, Note_off_c, 1, 89, 0
2, 47240, Note_on_c, 1, 70, 127
2, 47240, Note_on_c, 1, 73, 127
2, 47240, Note_on_c, 1, 82, 127
2, 47240, Note_on_c, 1, 94, 127
2, 47240, Note_on_c, 1, 97, 127
2, 47280, Note_on_c, 1, 65, 127
2, 47280, Note_off_c, 1, 70, 0
2, 47280, Note_off_c, 1, 73, 0
2, 47280, Note_on_c, 1, 79, 127
2, 47280, Note_on_c, 1, 86, 127
2, 47280, Note_off_c, 1, 94, 0
2, 47280, Note_off_c, 1, 97, 0
2, 47320, Note_off_c, 1, 65, 0
2, 47320, Note_on_c, 1, 70, 127
2, 47320, Note_on_c, 1, 73, 127
2, 47320, Note_off_c, 1, 79, 0
2, 47320, Note_off_c, 1, 86, 0
2, 47320, Note_on_c, 1, 94, 127
2, 47320, Note_on_c, 1, 97, 127
2, 47360, Note_on_c, 1, 35, 127
2, 47360, Note_on_c, 1, 47, 127
2, 47360, Note_on_c, 1, 54, 127
2, 47360, Note_on_c, 1, 62, 127
2, 47360, Note_on_c, 1, 66, 127
2, 47360, Note_off_c, 1, 70, 0
2, 47360, Note_off_c, 1, 73, 0
2, 47360, Note_off_c, 1, 82, 0
2, 47360, Note_off_c, 1, 94, 0
2, 47360, Note_off_c, 1, 97, 0
2, 47400, Note_off_c, 1, 35, 0
2, 47400, Note_off_c, 1, 47, 0
2, 47400, Note_off_c, 1, 54, 0
2, 47400, Note_off_c, 1, 62, 0
2, 47400, Note_off_c, 1, 66, 0
2, 47440, Note_on_c, 1, 57, 127
2, 47440, Note_on_c, 1, 81, 127
2, 47440, Note_on_c, 1, 86, 127
2, 47440, Note_on_c, 1, 90, 127
2, 47440, Note_on_c, 1, 93, 127
2, 47600, Note_off_c, 1, 81, 0
2, 47600, Note_off_c, 1, 86, 0
2, 47600, Note_off_c, 1, 90, 0
2, 47600, Note_off_c, 1, 93, 0
2, 47640, Note_on_c, 1, 33, 127
2, 47640, Note_on_c, 1, 45, 127
2, 47640, Note_on_c, 1, 60, 127
2, 47640, Note_on_c, 1, 64, 127
2, 47640, Note_on_c, 1, 69, 127
2, 47800, Note_off_c, 1, 33, 0
2, 47800, Note_off_c, 1, 45, 0
2, 47800, Note_off_c, 1, 57, 0
2, 47800, Note_off_c, 1, 60, 0
2, 47800, Note_off_c, 1, 64, 0
2, 47800, Note_off_c, 1, 69, 0
2, 47840, Note_on_c, 1, 36, 127
2, 47840, Note_on_c, 1, 48, 127
2, 47840, Note_on_c, 1, 63, 127
2, 47840, Note_on_c, 1, 68, 127
2, 47840, Note_on_c, 1, 72, 127
2, 48000, Note_off_c, 1, 36, 0
2, 48000, Note_off_c, 1, 48, 0
2, 48000, Note_off_c, 1, 63, 0
2, 48000, Note_off_c, 1, 68, 0
2, 48000, Note_off_c, 1, 72, 0
2, 48080, Note_on_c, 1, 45, 127
2, 48080, Note_on_c, 1, 57, 127
2, 48080, Note_on_c, 1, 65, 127
2, 48080, Note_on_c, 1, 72, 127
2, 48240, Note_off_c, 1, 45, 0
2, 48240, Note_off_c, 1, 57, 0
2, 48240, Note_off_c, 1, 65, 0
2, 48240, Note_off_c, 1, 72, 0
2, 48280, Note_on_c, 1, 42, 127
2, 48280, Note_on_c, 1, 54, 127
2, 48280, Note_on_c, 1, 73, 127
2, 48280, Note_on_c, 1, 80, 127
2, 48440, Note_off_c, 1, 42, 0
2, 48440, Note_off_c, 1, 54, 0
2, 48440, Note_off_c, 1, 73, 0
2, 48440, Note_off_c, 1, 80, 0
2, 48480, Note_on_c, 1, 38, 127
2, 48480, Note_on_c, 1, 50, 127
2, 48480, Note_on_c, 1, 65, 127
2, 48480, Note_on_c, 1, 68, 127
2, 48480, Note_on_c, 1, 70, 127
2, 48640, Note_off_c, 1, 38, 0
2, 48640, Note_off_c, 1, 50, 0
2, 48640, Note_off_c, 1, 65, 0
2, 48640, Note_off_c, 1, 68, 0
2, 48640, Note_off_c, 1, 70, 0
2, 48680, Note_on_c, 1, 40, 127
2, 48680, Note_on_c, 1, 52, 127
2, 48680, Note_on_c, 1, 59, 127
2, 48680, Note_on_c, 1, 64, 127
2, 48680, Note_on_c, 1, 68, 127
2, 48840, Note_off_c, 1, 59, 0
2, 48840, Note_off_c, 1, 64, 0
2, 48880, Note_on_c, 1, 56, 127
2, 49040, Note_off_c, 1, 40, 0
2, 49040, Note_off_c, 1, 52, 0
2, 49040, Note_off_c, 1, 56, 0
2, 49040, Note_off_c, 1, 68, 0
2, 49080, Note_on_c, 1, 43, 127
2, 49080, Note_on_c, 1, 52, 127
2, 49080, Note_on_c, 1, 59, 127
2, 49080, Note_on_c, 1, 64, 127
2, 49080, Note_on_c, 1, 71, 127
2, 49240, Note_off_c, 1, 59, 0
2, 49240, Note_off_c, 1, 71, 0
2, 49280, Note_on_c, 1, 59, 127
2, 49280, Note_on_c, 1, 71, 127
2, 49400, Note_off_c, 1, 59, 0
2, 49400, Note_off_c, 1, 71, 0
2, 49440, Note_off_c, 1, 43, 0
2, 49440, Note_off_c, 1, 52, 0
2, 49440, Note_off_c, 1, 64, 0
2, 49480, Note_on_c, 1, 45, 127
2, 49480, Note_on_c, 1, 57, 127
2, 49480, Note_on_c, 1, 69, 127
2, 49480, Note_on_c, 1, 73, 127
2, 49600, Note_off_c, 1, 69, 0
2, 49600, Note_off_c, 1, 73, 0
2, 49680, Note_on_c, 1, 69, 127
2, 49680, Note_on_c, 1, 73, 127
2, 49760, Note_off_c, 1, 69, 0
2, 49760, Note_off_c, 1, 73, 0
2, 49840, Note_off_c, 1, 45, 0
2, 49840, Note_off_c, 1, 57, 0
2, 49880, Note_on_c, 1, 45, 127
2, 49880, Note_on_c, 1, 50, 127
2, 49880, Note_on_c, 1, 54, 127
2, 49880, Note_on_c, 1, 69, 127
2, 50040, Note_off_c, 1, 45, 0
2, 50040, Note_off_c, 1, 50, 0
2, 50040, Note_off_c, 1, 54, 0
2, 50040, Note_off_c, 1, 69, 0
2, 50120, Note_on_c, 1, 39, 127
2, 50120, Note_on_c, 1, 51, 127
2, 50120, Note_on_c, 1, 67, 127
2, 50280, Note_off_c, 1, 67, 0
2, 50320, Note_on_c, 1, 63, 127
2, 50320, Note_on_c, 1, 76, 127
2, 50480, Note_off_c, 1, 63, 0
2, 50480, Note_off_c, 1, 76, 0
2, 50520, Note_on_c, 1, 68, 127
2, 50520, Note_on_c, 1, 76, 127
2, 50680, Note_off_c, 1, 39, 0
2, 50680, Note_off_c, 1, 51, 0
2, 50680, Note_off_c, 1, 68, 0
2, 50680, Note_off_c, 1, 76, 0
2, 50720, Note_on_c, 1, 39, 127
2, 50720, Note_on_c, 1, 51, 127
2, 50720, Note_on_c, 1, 71, 127
2, 50720, Note_on_c, 1, 76, 127
2, 50880, Note_off_c, 1, 39, 0
2, 50880, Note_off_c, 1, 51, 0
2, 50880, Note_off_c, 1, 71, 0
2, 50880, Note_off_c, 1, 76, 0
2, 50920, Note_on_c, 1, 44, 127
2, 50920, Note_on_c, 1, 56, 127
2, 50920, Note_on_c, 1, 63, 127
2, 50920, Note_on_c, 1, 76, 127
2, 51080, Note_off_c, 1, 44, 0
2, 51080, Note_off_c, 1, 56, 0
2, 51080, Note_off_c, 1, 63, 0
2, 51080, Note_off_c, 1, 76, 0
2, 51120, Note_on_c, 1, 44, 127
2, 51120, Note_on_c, 1, 56, 127
2, 51120, Note_on_c, 1, 68, 127
2, 51120, Note_on_c, 1, 76, 127
2, 51280, Note_off_c, 1, 44, 0
2, 51280, Note_off_c, 1, 56, 0
2, 51280, Note_off_c, 1, 68, 0
2, 51280, Note_off_c, 1, 76, 0
2, 51320, Note_on_c, 1, 44, 127
2, 51320, Note_on_c, 1, 56, 127
2, 51320, Note_on_c, 1, 71, 127
2, 51320, Note_on_c, 1, 76, 127
2, 51480, Note_off_c, 1, 44, 0
2, 51480, Note_off_c, 1, 56, 0
2, 51480, Note_off_c, 1, 71, 0
2, 51480, Note_off_c, 1, 76, 0
2, 51520, Note_on_c, 1, 44, 127
2, 51520, Note_on_c, 1, 56, 127
2, 51520, Note_on_c, 1, 71, 127
2, 51520, Note_on_c, 1, 76, 127
2, 51680, Note_off_c, 1, 44, 0
2, 51680, Note_off_c, 1, 56, 0
2, 51680, Note_off_c, 1, 71, 0
2, 51680, Note_off_c, 1, 76, 0
2, 51720, Note_on_c, 1, 47, 127
2, 51720, Note_on_c, 1, 59, 127
2, 51720, Note_on_c, 1, 63, 127
2, 51720, Note_on_c, 1, 76, 127
2, 51880, Note_off_c, 1, 47, 0
2, 51880, Note_off_c, 1, 59, 0
2, 51880, Note_off_c, 1, 63, 0
2, 51880, Note_off_c, 1, 76, 0
2, 51920, Note_on_c, 1, 51, 127
2, 51920, Note_on_c, 1, 63, 127
2, 51920, Note_on_c, 1, 71, 127
2, 51920, Note_on_c, 1, 78, 127
2, 52080, Note_off_c, 1, 51, 0
2, 52080, Note_off_c, 1, 63, 0
2, 52080, Note_off_c, 1, 71, 0
2, 52080, Note_off_c, 1, 78, 0
2, 52160, Note_on_c, 1, 37, 127
2, 52160, Note_on_c, 1, 44, 127
2, 52160, Note_on_c, 1, 49, 127
2, 52160, Note_on_c, 1, 64, 127
2, 52160, Note_on_c, 1, 68, 127
2, 52160, Note_on_c, 1, 73, 127
2, 52160, Note_on_c, 1, 76, 127
2, 52320, Note_off_c, 1, 37, 0
2, 52320, Note_off_c, 1, 44, 0
2, 52320, Note_off_c, 1, 49, 0
2, 52320, Note_off_c, 1, 64, 0
2, 52320, Note_off_c, 1, 68, 0
2, 52320, Note_off_c, 1, 73, 0
2, 52320, Note_off_c, 1, 76, 0
2, 52360, Note_on_c, 1, 37, 127
2, 52360, Note_on_c, 1, 44, 127
2, 52360, Note_on_c, 1, 49, 127
2, 52360, Note_on_c, 1, 64, 127
2, 52360, Note_on_c, 1, 68, 127
2, 52360, Note_on_c, 1, 73, 127
2, 52360, Note_on_c, 1, 76, 127
2, 52520, Note_off_c, 1, 37, 0
2, 52520, Note_off_c, 1, 44, 0
2, 52520, Note_off_c, 1, 49, 0
2, 52520, Note_off_c, 1, 64, 0
2, 52520, Note_off_c, 1, 68, 0
2, 52520, Note_off_c, 1, 73, 0
2, 52520, Note_off_c, 1, 76, 0
2, 52560, Note_on_c, 1, 39, 127
2, 52560, Note_on_c, 1, 51, 127
2, 52560, Note_on_c, 1, 59, 127
2, 52560, Note_on_c, 1, 71, 127
2, 52720, Note_off_c, 1, 39, 0
2, 52720, Note_off_c, 1, 51, 0
2, 52720, Note_off_c, 1, 59, 0
2, 52720, Note_off_c, 1, 71, 0
2, 52760, Note_on_c, 1, 38, 127
2, 52760, Note_on_c, 1, 50, 127
2, 52760, Note_on_c, 1, 59, 127
2, 52760, Note_on_c, 1, 71, 127
2, 52920, Note_off_c, 1, 38, 0
2, 52920, Note_off_c, 1, 50, 0
2, 52920, Note_off_c, 1, 59, 0
2, 52920, Note_off_c, 1, 71, 0
2, 52960, Note_on_c, 1, 43, 127
2, 52960, Note_on_c, 1, 55, 127
2, 52960, Note_on_c, 1, 71, 127
2, 52960, Note_on_c, 1, 74, 127
2, 52960, Note_on_c, 1, 79, 127
2, 53120, Note_off_c, 1, 43, 0
2, 53120, Note_off_c, 1, 55, 0
2, 53120, Note_off_c, 1, 71, 0
2, 53120, Note_off_c, 1, 74, 0
2, 53120, Note_off_c, 1, 79, 0
2, 53160, Note_on_c, 1, 43, 127
2, 53160, Note_on_c, 1, 55, 127
2, 53160, Note_on_c, 1, 65, 127
2, 53160, Note_on_c, 1, 70, 127
2, 53160, Note_on_c, 1, 74, 127
2, 53320, Note_off_c, 1, 43, 0
2, 53320, Note_off_c, 1, 55, 0
2, 53320, Note_off_c, 1, 65, 0
2, 53320, Note_off_c, 1, 70, 0
2, 53320, Note_off_c, 1, 74, 0
2, 53360, Note_on_c, 1, 31, 127
2, 53360, Note_on_c, 1, 43, 127
2, 53360, Note_on_c, 1, 50, 127
2, 53360, Note_on_c, 1, 62, 127
2, 53360, Note_on_c, 1, 71, 127
2, 53360, Note_on_c, 1, 83, 127
2, 53440, Note_off_c, 1, 31, 0
2, 53440, Note_off_c, 1, 50, 0
2, 53440, Note_on_c, 1, 53, 127
2, 53440, Note_on_c, 1, 58, 127
2, 53440, Note_off_c, 1, 62, 0
2, 53440, Note_on_c, 1, 65, 127
2, 53440, Note_off_c, 1, 71, 0
2, 53440, Note_off_c, 1, 83, 0
2, 53480, Note_on_c, 1, 31, 127
2, 53480, Note_on_c, 1, 50, 127
2, 53480, Note_off_c, 1, 53, 0
2, 53480, Note_off_c, 1, 58, 0
2, 53480, Note_on_c, 1, 62, 127
2, 53480, Note_off_c, 1, 65, 0
2, 53480, Note_on_c, 1, 71, 127
2, 53480, Note_on_c, 1, 81, 127
2, 53520, Note_off_c, 1, 31, 0
2, 53520, Note_off_c, 1, 43, 0
2, 53520, Note_off_c, 1, 50, 0
2, 53520, Note_off_c, 1, 62, 0
2, 53520, Note_off_c, 1, 71, 0
2, 53520, Note_off_c, 1, 81, 0
2, 53560, Note_on_c, 1, 34, 127
2, 53560, Note_on_c, 1, 46, 127
2, 53560, Note_on_c, 1, 67, 127
2, 53560, Note_on_c, 1, 79, 127
2, 53720, Note_off_c, 1, 34, 0
2, 53720, Note_off_c, 1, 46, 0
2, 53720, Note_off_c, 1, 67, 0
2, 53720, Note_off_c, 1, 79, 0
2, 53760, Note_on_c, 1, 34, 127
2, 53760, Note_on_c, 1, 46, 127
2, 53760, Note_on_c, 1, 62, 127
2, 53760, Note_on_c, 1, 67, 127
2, 53760, Note_on_c, 1, 74, 127
2, 53920, Note_off_c, 1, 34, 0
2, 53920, Note_off_c, 1, 46, 0
2, 53920, Note_off_c, 1, 62, 0
2, 53920, Note_off_c, 1, 67, 0
2, 53920, Note_off_c, 1, 74, 0
2, 53960, Note_on_c, 1, 33, 127
2, 53960, Note_on_c, 1, 45, 127
2, 53960, Note_on_c, 1, 60, 127
2, 53960, Note_on_c, 1, 67, 127
2, 53960, Note_on_c, 1, 72, 127
2, 54120, Note_off_c, 1, 33, 0
2, 54120, Note_off_c, 1, 45, 0
2, 54120, Note_off_c, 1, 60, 0
2, 54120, Note_off_c, 1, 67, 0
2, 54120, Note_off_c, 1, 72, 0
2, 54200, Note_on_c, 1, 34, 127
2, 54200, Note_on_c, 1, 46, 127
2, 54200, Note_on_c, 1, 62, 127
2, 54200, Note_on_c, 1, 67, 127
2, 54200, Note_on_c, 1, 74, 127
2, 54360, Note_off_c, 1, 34, 0
2, 54360, Note_off_c, 1, 46, 0
2, 54360, Note_off_c, 1, 62, 0
2, 54360, Note_off_c, 1, 67, 0
2, 54360, Note_off_c, 1, 74, 0
2, 54400, Note_on_c, 1, 33, 127
2, 54400, Note_on_c, 1, 45, 127
2, 54400, Note_on_c, 1, 60, 127
2, 54400, Note_on_c, 1, 67, 127
2, 54400, Note_on_c, 1, 72, 127
2, 54560, Note_off_c, 1, 33, 0
2, 54560, Note_off_c, 1, 45, 0
2, 54560, Note_off_c, 1, 60, 0
2, 54560, Note_off_c, 1, 67, 0
2, 54560, Note_off_c, 1, 72, 0
2, 54600, Note_on_c, 1, 34, 127
2, 54600, Note_on_c, 1, 46, 127
2, 54600, Note_on_c, 1, 62, 127
2, 54600, Note_on_c, 1, 67, 127
2, 54600, Note_on_c, 1, 74, 127
2, 54760, Note_off_c, 1, 34, 0
2, 54760, Note_off_c, 1, 46, 0
2, 54760, Note_off_c, 1, 62, 0
2, 54760, Note_off_c, 1, 67, 0
2, 54760, Note_off_c, 1, 74, 0
2, 54800, Note_on_c, 1, 46, 127
2, 54800, Note_on_c, 1, 50, 127
2, 54800, Note_on_c, 1, 53, 127
2, 54800, Note_on_c, 1, 58, 127
2, 54800, Note_on_c, 1, 65, 127
2, 54800, Note_on_c, 1, 70, 127
2, 54800, Note_on_c, 1, 74, 127
2, 54800, Note_on_c, 1, 77, 127
2, 54960, Note_off_c, 1, 46, 0
2, 54960, Note_off_c, 1, 50, 0
2, 54960, Note_off_c, 1, 53, 0
2, 54960, Note_off_c, 1, 58, 0
2, 54960, Note_off_c, 1, 65, 0
2, 54960, Note_off_c, 1, 70, 0
2, 54960, Note_off_c, 1, 74, 0
2, 54960, Note_off_c, 1, 77, 0
2, 55000, Note_on_c, 1, 38, 127
2, 55000, Note_on_c, 1, 41, 127
2, 55000, Note_on_c, 1, 46, 127
2, 55000, Note_on_c, 1, 50, 127
2, 55000, Note_on_c, 1, 62, 127
2, 55000, Note_on_c, 1, 65, 127
2, 55000, Note_on_c, 1, 70, 127
2, 55000, Note_on_c, 1, 74, 127
2, 55360, Note_off_c, 1, 38, 0
2, 55360, Note_off_c, 1, 41, 0
2, 55360, Note_off_c, 1, 46, 0
2, 55360, Note_off_c, 1, 50, 0
2, 55360, Note_off_c, 1, 62, 0
2, 55360, Note_off_c, 1, 65, 0
2, 55360, Note_off_c, 1, 70, 0
2, 55360, Note_off_c, 1, 74, 0
2, 55400, Note_on_c, 1, 35, 127
2, 55400, Note_on_c, 1, 47, 127
2, 55400, Note_on_c, 1, 56, 127
2, 55400, Note_on_c, 1, 62, 127
2, 55400, Note_on_c, 1, 67, 127
2, 55960, Note_off_c, 1, 35, 0
2, 55960, Note_off_c, 1, 47, 0
2, 55960, Note_off_c, 1, 56, 0
2, 55960, Note_off_c, 1, 62, 0
2, 55960, Note_off_c, 1, 67, 0
2, 56000, Note_on_c, 1, 62, 127
2, 56000, Note_on_c, 1, 84, 127
2, 56000, Note_on_c, 1, 88, 127
2, 56000, Note_on_c, 1, 96, 127
2, 56040, Note_on_c, 1, 36, 127
2, 56040, Note_off_c, 1, 62, 0
2, 56040, Note_on_c, 1, 69, 127
2, 56040, Note_on_c, 1, 78, 127
2, 56040, Note_off_c, 1, 84, 0
2, 56040, Note_off_c, 1, 88, 0
2, 56040, Note_off_c, 1, 96, 0
2, 56080, Note_off_c, 1, 36, 0
2, 56080, Note_off_c, 1, 69, 0
2, 56080, Note_off_c, 1, 78, 0
2, 56120, Note_on_c, 1, 50, 127
2, 56120, Note_on_c, 1, 69, 127
2, 56120, Note_on_c, 1, 86, 127
2, 56160, Note_on_c, 1, 37, 127
2, 56160, Note_on_c, 1, 45, 127
2, 56160, Note_off_c, 1, 50, 0
2, 56160, Note_on_c, 1, 56, 127
2, 56160, Note_on_c, 1, 61, 127
2, 56160, Note_on_c, 1, 68, 127
2, 56160, Note_off_c, 1, 69, 0
2, 56160, Note_off_c, 1, 86, 0
2, 56200, Note_off_c, 1, 37, 0
2, 56200, Note_off_c, 1, 45, 0
2, 56200, Note_off_c, 1, 56, 0
2, 56200, Note_off_c, 1, 61, 0
2, 56200, Note_off_c, 1, 68, 0
2, 56240, Note_on_c, 1, 41, 127
2, 56240, Note_on_c, 1, 57, 127
2, 56240, Note_on_c, 1, 65, 127
2, 56240, Note_on_c, 1, 76, 127
2, 56240, Note_on_c, 1, 77, 127
2, 56400, Note_off_c, 1, 41, 0
2, 56400, Note_off_c, 1, 57, 0
2, 56400, Note_off_c, 1, 65, 0
2, 56400, Note_off_c, 1, 76, 0
2, 56400, Note_off_c, 1, 77, 0
2, 56440, Note_on_c, 1, 53, 127
2, 56440, Note_on_c, 1, 57, 127
2, 56440, Note_on_c, 1, 65, 127
2, 56440, Note_on_c, 1, 74, 127
2, 56440, Note_on_c, 1, 77, 127
2, 56600, Note_off_c, 1, 53, 0
2, 56600, Note_off_c, 1, 57, 0
2, 56600, Note_off_c, 1, 65, 0
2, 56600, Note_off_c, 1, 74, 0
2, 56600, Note_off_c, 1, 77, 0
2, 56640, Note_on_c, 1, 43, 127
2, 56640, Note_on_c, 1, 53, 127
2, 56640, Note_on_c, 1, 59, 127
2, 56640, Note_on_c, 1, 67, 127
2, 56640, Note_on_c, 1, 72, 127
2, 56760, Note_off_c, 1, 43, 0
2, 56760, Note_on_c, 1, 47, 127
2, 56760, Note_off_c, 1, 53, 0
2, 56760, Note_off_c, 1, 67, 0
2, 56760, Note_on_c, 1, 69, 127
2, 56760, Note_off_c, 1, 72, 0
2, 56760, Note_on_c, 1, 75, 127
2, 56760, Note_on_c, 1, 81, 127
2, 56800, Note_off_c, 1, 47, 0
2, 56800, Note_off_c, 1, 59, 0
2, 56800, Note_off_c, 1, 69, 0
2, 56800, Note_off_c, 1, 75, 0
2, 56800, Note_off_c, 1, 81, 0
2, 56840, Note_on_c, 1, 47, 127
2, 56840, Note_on_c, 1, 59, 127
2, 56840, Note_on_c, 1, 69, 127
2, 56840, Note_on_c, 1, 75, 127
2, 56840, Note_on_c, 1, 81, 127
2, 57000, Note_off_c, 1, 47, 0
2, 57000, Note_off_c, 1, 59, 0
2, 57000, Note_off_c, 1, 69, 0
2, 57000, Note_off_c, 1, 75, 0
2, 57000, Note_off_c, 1, 81, 0
2, 57040, Note_on_c, 1, 35, 127
2, 57040, Note_on_c, 1, 47, 127
2, 57040, Note_on_c, 1, 69, 127
2, 57040, Note_on_c, 1, 75, 127
2, 57040, Note_on_c, 1, 81, 127
2, 57200, Note_off_c, 1, 35, 0
2, 57200, Note_off_c, 1, 47, 0
2, 57200, Note_off_c, 1, 69, 0
2, 57200, Note_off_c, 1, 75, 0
2, 57200, Note_off_c, 1, 81, 0
2, 57240, Note_on_c, 1, 47, 127
2, 57240, Note_on_c, 1, 59, 127
2, 57240, Note_on_c, 1, 69, 127
2, 57240, Note_on_c, 1, 75, 127
2, 57240, Note_on_c, 1, 81, 127
2, 57400, Note_off_c, 1, 47, 0
2, 57400, Note_off_c, 1, 59, 0
2, 57400, Note_off_c, 1, 69, 0
2, 57400, Note_off_c, 1, 75, 0
2, 57400, Note_off_c, 1, 81, 0
2, 57440, Note_on_c, 1, 35, 127
2, 57440, Note_on_c, 1, 47, 127
2, 57440, Note_on_c, 1, 69, 127
2, 57440, Note_on_c, 1, 75, 127
2, 57440, Note_on_c, 1, 81, 127
2, 57600, Note_off_c, 1, 35, 0
2, 57600, Note_off_c, 1, 47, 0
2, 57600, Note_off_c, 1, 69, 0
2, 57600, Note_off_c, 1, 75, 0
2, 57600, Note_off_c, 1, 81, 0
2, 57640, Note_on_c, 1, 47, 127
2, 57640, Note_on_c, 1, 59, 127
2, 57640, Note_on_c, 1, 69, 127
2, 57640, Note_on_c, 1, 75, 127
2, 57640, Note_on_c, 1, 81, 127
2, 57800, Note_off_c, 1, 47, 0
2, 57800, Note_off_c, 1, 59, 0
2, 57800, Note_off_c, 1, 69, 0
2, 57800, Note_off_c, 1, 75, 0
2, 57800, Note_off_c, 1, 81, 0
2, 57840, Note_on_c, 1, 51, 127
2, 57840, Note_on_c, 1, 63, 127
2, 57840, Note_on_c, 1, 79, 127
2, 57840, Note_on_c, 1, 85, 127
2, 57960, Note_off_c, 1, 51, 0
2, 57960, Note_off_c, 1, 63, 0
2, 57960, Note_off_c, 1, 79, 0
2, 57960, Note_off_c, 1, 85, 0
2, 58000, Note_on_c, 1, 51, 127
2, 58000, Note_on_c, 1, 63, 127
2, 58000, Note_on_c, 1, 79, 127
2, 58000, Note_on_c, 1, 85, 127
2, 58040, Note_off_c, 1, 51, 0
2, 58040, Note_off_c, 1, 63, 0
2, 58040, Note_off_c, 1, 79, 0
2, 58040, Note_off_c, 1, 85, 0
2, 58080, Note_on_c, 1, 30, 127
2, 58080, Note_on_c, 1, 42, 127
2, 58080, Note_on_c, 1, 45, 127
2, 58240, Note_off_c, 1, 30, 0
2, 58240, Note_off_c, 1, 42, 0
2, 58240, Note_off_c, 1, 45, 0
2, 58280, Note_on_c, 1, 30, 127
2, 58280, Note_on_c, 1, 42, 127
2, 58280, Note_on_c, 1, 45, 127
2, 58440, Note_off_c, 1, 30, 0
2, 58440, Note_off_c, 1, 42, 0
2, 58440, Note_off_c, 1, 45, 0
2, 58480, Note_on_c, 1, 30, 127
2, 58480, Note_on_c, 1, 42, 127
2, 58480, Note_on_c, 1, 45, 127
2, 58640, Note_off_c, 1, 30, 0
2, 58640, Note_off_c, 1, 42, 0
2, 58640, Note_off_c, 1, 45, 0
2, 58680, Note_on_c, 1, 30, 127
2, 58680, Note_on_c, 1, 42, 127
2, 58680, Note_on_c, 1, 45, 127
2, 58840, Note_off_c, 1, 30, 0
2, 58840, Note_off_c, 1, 42, 0
2, 58840, Note_off_c, 1, 45, 0
2, 58880, Note_on_c, 1, 30, 127
2, 58880, Note_on_c, 1, 42, 127
2, 58880, Note_on_c, 1, 45, 127
2, 59040, Note_off_c, 1, 30, 0
2, 59040, Note_off_c, 1, 42, 0
2, 59040, Note_off_c, 1, 45, 0
2, 59080, Note_on_c, 1, 30, 127
2, 59080, Note_on_c, 1, 42, 127
2, 59080, Note_on_c, 1, 45, 127
2, 59240, Note_off_c, 1, 30, 0
2, 59240, Note_off_c, 1, 42, 0
2, 59240, Note_off_c, 1, 45, 0
2, 59280, Note_on_c, 1, 30, 127
2, 59280, Note_on_c, 1, 42, 127
2, 59280, Note_on_c, 1, 45, 127
2, 59440, Note_off_c, 1, 30, 0
2, 59440, Note_off_c, 1, 42, 0
2, 59440, Note_off_c, 1, 45, 0
2, 59480, Note_on_c, 1, 30, 127
2, 59480, Note_on_c, 1, 42, 127
2, 59480, Note_on_c, 1, 45, 127
2, 59640, Note_off_c, 1, 30, 0
2, 59640, Note_off_c, 1, 42, 0
2, 59640, Note_off_c, 1, 45, 0
2, 59680, Note_on_c, 1, 30, 127
2, 59680, Note_on_c, 1, 42, 127
2, 59680, Note_on_c, 1, 45, 127
2, 59840, Note_off_c, 1, 30, 0
2, 59840, Note_off_c, 1, 42, 0
2, 59840, Note_off_c, 1, 45, 0
2, 59880, Note_on_c, 1, 30, 127
2, 59880, Note_on_c, 1, 42, 127
2, 59880, Note_on_c, 1, 45, 127
2, 60000, Note_off_c, 1, 30, 0
2, 60000, Note_off_c, 1, 42, 0
2, 60000, Note_off_c, 1, 45, 0
2, 60040, Note_on_c, 1, 30, 127
2, 60040, Note_on_c, 1, 42, 127
2, 60040, Note_on_c, 1, 45, 127
2, 60080, Note_off_c, 1, 30, 0
2, 60080, Note_off_c, 1, 42, 0
2, 60080, Note_off_c, 1, 45, 0
2, 60120, Note_on_c, 1, 30, 127
2, 60120, Note_on_c, 1, 42, 127
2, 60120, Note_on_c, 1, 45, 127
2, 60280, Note_off_c, 1, 30, 0
2, 60280, Note_off_c, 1, 42, 0
2, 60280, Note_off_c, 1, 45, 0
2, 60320, Note_on_c, 1, 30, 127
2, 60320, Note_on_c, 1, 42, 127
2, 60320, Note_on_c, 1, 45, 127
2, 60480, Note_off_c, 1, 30, 0
2, 60480, Note_off_c, 1, 42, 0
2, 60480, Note_off_c, 1, 45, 0
2, 60520, Note_on_c, 1, 30, 127
2, 60520, Note_on_c, 1, 42, 127
2, 60520, Note_on_c, 1, 45, 127
2, 60680, Note_off_c, 1, 30, 0
2, 60680, Note_off_c, 1, 42, 0
2, 60680, Note_off_c, 1, 45, 0
2, 60720, Note_on_c, 1, 30, 127
2, 60720, Note_on_c, 1, 42, 127
2, 60720, Note_on_c, 1, 45, 127
2, 60880, Note_off_c, 1, 30, 0
2, 60880, Note_off_c, 1, 42, 0
2, 60880, Note_off_c, 1, 45, 0
2, 60920, Note_on_c, 1, 44, 127
2, 60920, Note_on_c, 1, 56, 127
2, 60920, Note_on_c, 1, 64, 127
2, 60920, Note_on_c, 1, 72, 127
2, 60920, Note_on_c, 1, 76, 127
2, 61040, Note_off_c, 1, 44, 0
2, 61040, Note_off_c, 1, 56, 0
2, 61040, Note_off_c, 1, 64, 0
2, 61040, Note_off_c, 1, 72, 0
2, 61040, Note_off_c, 1, 76, 0
2, 61120, Note_on_c, 1, 46, 127
2, 61120, Note_on_c, 1, 54, 127
2, 61120, Note_on_c, 1, 63, 127
2, 61120, Note_on_c, 1, 66, 127
2, 61120, Note_on_c, 1, 73, 127
2, 61280, Note_off_c, 1, 46, 0
2, 61280, Note_off_c, 1, 54, 0
2, 61280, Note_off_c, 1, 63, 0
2, 61280, Note_off_c, 1, 66, 0
2, 61280, Note_off_c, 1, 73, 0
2, 61320, Note_on_c, 1, 41, 127
2, 61320, Note_on_c, 1, 47, 127
2, 61320, Note_on_c, 1, 53, 127
2, 61320, Note_on_c, 1, 80, 127
2, 61320, Note_on_c, 1, 86, 127
2, 61320, Note_on_c, 1, 92, 127
2, 61480, Note_off_c, 1, 41, 0
2, 61480, Note_off_c, 1, 47, 0
2, 61480, Note_off_c, 1, 53, 0
2, 61480, Note_off_c, 1, 80, 0
2, 61480, Note_off_c, 1, 86, 0
2, 61480, Note_off_c, 1, 92, 0
2, 61520, Note_on_c, 1, 41, 127
2, 61520, Note_on_c, 1, 53, 127
2, 61520, Note_on_c, 1, 65, 127
2, 61520, Note_on_c, 1, 68, 127
2, 61520, Note_on_c, 1, 73, 127
2, 61520, Note_on_c, 1, 77, 127
2, 61680, Note_off_c, 1, 41, 0
2, 61680, Note_off_c, 1, 53, 0
2, 61680, Note_off_c, 1, 65, 0
2, 61680, Note_off_c, 1, 68, 0
2, 61680, Note_off_c, 1, 73, 0
2, 61680, Note_off_c, 1, 77, 0
2, 61720, Note_on_c, 1, 47, 127
2, 61720, Note_on_c, 1, 59, 127
2, 61720, Note_on_c, 1, 65, 127
2, 61720, Note_on_c, 1, 74, 127
2, 61840, Note_off_c, 1, 47, 0
2, 61840, Note_off_c, 1, 59, 0
2, 61840, Note_off_c, 1, 65, 0
2, 61840, Note_off_c, 1, 74, 0
2, 61920, Note_on_c, 1, 40, 127
2, 61920, Note_on_c, 1, 52, 127
2, 61920, Note_on_c, 1, 64, 127
2, 61920, Note_on_c, 1, 72, 127
2, 62080, Note_off_c, 1, 40, 0
2, 62080, Note_off_c, 1, 52, 0
2, 62080, Note_off_c, 1, 64, 0
2, 62080, Note_off_c, 1, 72, 0
2, 62160, Note_on_c, 1, 46, 127
2, 62160, Note_on_c, 1, 58, 127
2, 62160, Note_on_c, 1, 66, 127
2, 62160, Note_on_c, 1, 73, 127
2, 62160, Note_on_c, 1, 76, 127
2, 62160, Note_on_c, 1, 78, 127
2, 62280, Note_off_c, 1, 46, 0
2, 62280, Note_off_c, 1, 58, 0
2, 62280, Note_off_c, 1, 66, 0
2, 62280, Note_off_c, 1, 73, 0
2, 62280, Note_off_c, 1, 76, 0
2, 62280, Note_off_c, 1, 78, 0
2, 62320, Note_on_c, 1, 47, 127
2, 62320, Note_on_c, 1, 59, 127
2, 62320, Note_on_c, 1, 74, 127
2, 62320, Note_on_c, 1, 81, 127
2, 62320, Note_on_c, 1, 86, 127
2, 62480, Note_off_c, 1, 47, 0
2, 62480, Note_off_c, 1, 59, 0
2, 62480, Note_off_c, 1, 74, 0
2, 62480, Note_off_c, 1, 81, 0
2, 62480, Note_off_c, 1, 86, 0
2, 62520, Note_on_c, 1, 40, 127
2, 62520, Note_on_c, 1, 52, 127
2, 62520, Note_on_c, 1, 74, 127
2, 62520, Note_on_c, 1, 80, 127
2, 62520, Note_on_c, 1, 86, 127
2, 62680, Note_off_c, 1, 40, 0
2, 62680, Note_off_c, 1, 52, 0
2, 62680, Note_off_c, 1, 74, 0
2, 62680, Note_off_c, 1, 80, 0
2, 62680, Note_off_c, 1, 86, 0
2, 62720, Note_on_c, 1, 40, 127
2, 62720, Note_on_c, 1, 52, 127
2, 62720, Note_on_c, 1, 74, 127
2, 62720, Note_on_c, 1, 80, 127
2, 62720, Note_on_c, 1, 86, 127
2, 62880, Note_off_c, 1, 40, 0
2, 62880, Note_off_c, 1, 52, 0
2, 62880, Note_off_c, 1, 74, 0
2, 62880, Note_off_c, 1, 80, 0
2, 62880, Note_off_c, 1, 86, 0
2, 62920, Note_on_c, 1, 45, 127
2, 62920, Note_on_c, 1, 57, 127
2, 62920, Note_on_c, 1, 73, 127
2, 62920, Note_on_c, 1, 81, 127
2, 62920, Note_on_c, 1, 85, 127
2, 63040, Note_off_c, 1, 45, 0
2, 63040, Note_off_c, 1, 57, 0
2, 63040, Note_off_c, 1, 73, 0
2, 63040, Note_off_c, 1, 81, 0
2, 63040, Note_off_c, 1, 85, 0
2, 63120, Note_on_c, 1, 45, 127
2, 63120, Note_on_c, 1, 57, 127
2, 63120, Note_on_c, 1, 73, 127
2, 63120, Note_on_c, 1, 81, 127
2, 63120, Note_on_c, 1, 85, 127
2, 63240, Note_off_c, 1, 45, 0
2, 63240, Note_off_c, 1, 57, 0
2, 63240, Note_off_c, 1, 73, 0
2, 63240, Note_off_c, 1, 81, 0
2, 63240, Note_off_c, 1, 85, 0
2, 63320, Note_on_c, 1, 45, 127
2, 63320, Note_on_c, 1, 57, 127
2, 63320, Note_on_c, 1, 73, 127
2, 63320, Note_on_c, 1, 81, 127
2, 63320, Note_on_c, 1, 85, 127
2, 63440, Note_off_c, 1, 45, 0
2, 63440, Note_off_c, 1, 57, 0
2, 63440, Note_off_c, 1, 73, 0
2, 63440, Note_off_c, 1, 81, 0
2, 63440, Note_off_c, 1, 85, 0
2, 63520, Note_on_c, 1, 47, 127
2, 63520, Note_on_c, 1, 57, 127
2, 63520, Note_on_c, 1, 59, 127
2, 63520, Note_on_c, 1, 74, 127
2, 63520, Note_on_c, 1, 81, 127
2, 63520, Note_on_c, 1, 86, 127
2, 63640, Note_off_c, 1, 47, 0
2, 63640, Note_off_c, 1, 57, 0
2, 63640, Note_off_c, 1, 59, 0
2, 63640, Note_off_c, 1, 74, 0
2, 63640, Note_off_c, 1, 81, 0
2, 63640, Note_off_c, 1, 86, 0
2, 63720, Note_on_c, 1, 47, 127
2, 63720, Note_on_c, 1, 57, 127
2, 63720, Note_on_c, 1, 59, 127
2, 63720, Note_on_c, 1, 74, 127
2, 63720, Note_on_c, 1, 81, 127
2, 63720, Note_on_c, 1, 86, 127
2, 64040, Note_off_c, 1, 47, 0
2, 64040, Note_off_c, 1, 57, 0
2, 64040, Note_off_c, 1, 59, 0
2, 64040, Note_off_c, 1, 74, 0
2, 64040, Note_off_c, 1, 81, 0
2, 64040, Note_off_c, 1, 86, 0
2, 64120, Note_on_c, 1, 49, 127
2, 64120, Note_on_c, 1, 57, 127
2, 64120, Note_on_c, 1, 61, 127
2, 64120, Note_on_c, 1, 76, 127
2, 64120, Note_on_c, 1, 81, 127
2, 64120, Note_on_c, 1, 88, 127
2, 64240, Note_off_c, 1, 49, 0
2, 64240, Note_off_c, 1, 57, 0
2, 64240, Note_off_c, 1, 61, 0
2, 64240, Note_off_c, 1, 76, 0
2, 64240, Note_off_c, 1, 81, 0
2, 64240, Note_off_c, 1, 88, 0
2, 64320, Note_on_c, 1, 50, 127
2, 64320, Note_on_c, 1, 57, 127
2, 64320, Note_on_c, 1, 62, 127
2, 64320, Note_on_c, 1, 77, 127
2, 64320, Note_on_c, 1, 81, 127
2, 64320, Note_on_c, 1, 89, 127
2, 64680, Note_off_c, 1, 50, 0
2, 64680, Note_off_c, 1, 57, 0
2, 64680, Note_off_c, 1, 62, 0
2, 64680, Note_off_c, 1, 77, 0
2, 64680, Note_off_c, 1, 81, 0
2, 64680, Note_off_c, 1, 89, 0
2, 64760, Note_on_c, 1, 50, 127
2, 64760, Note_on_c, 1, 57, 127
2, 64760, Note_on_c, 1, 62, 127
2, 64760, Note_on_c, 1, 77, 127
2, 64760, Note_on_c, 1, 81, 127
2, 64760, Note_on_c, 1, 89, 127
2, 64880, Note_off_c, 1, 50, 0
2, 64880, Note_off_c, 1, 57, 0
2, 64880, Note_off_c, 1, 62, 0
2, 64880, Note_off_c, 1, 77, 0
2, 64880, Note_off_c, 1, 81, 0
2, 64880, Note_off_c, 1, 89, 0
2, 64960, Note_on_c, 1, 50, 127
2, 64960, Note_on_c, 1, 57, 127
2, 64960, Note_on_c, 1, 62, 127
2, 64960, Note_on_c, 1, 77, 127
2, 64960, Note_on_c, 1, 81, 127
2, 64960, Note_on_c, 1, 89, 127
2, 65080, Note_off_c, 1, 50, 0
2, 65080, Note_off_c, 1, 57, 0
2, 65080, Note_off_c, 1, 62, 0
2, 65080, Note_off_c, 1, 77, 0
2, 65080, Note_off_c, 1, 81, 0
2, 65080, Note_off_c, 1, 89, 0
2, 65160, Note_on_c, 1, 50, 127
2, 65160, Note_on_c, 1, 57, 127
2, 65160, Note_on_c, 1, 62, 127
2, 65160, Note_on_c, 1, 77, 127
2, 65160, Note_on_c, 1, 81, 127
2, 65160, Note_on_c, 1, 89, 127
2, 65280, Note_off_c, 1, 50, 0
2, 65280, Note_off_c, 1, 57, 0
2, 65280, Note_off_c, 1, 62, 0
2, 65280, Note_off_c, 1, 77, 0
2, 65280, Note_off_c, 1, 81, 0
2, 65280, Note_off_c, 1, 89, 0
2, 65360, Note_on_c, 1, 50, 127
2, 65360, Note_on_c, 1, 57, 127
2, 65360, Note_on_c, 1, 62, 127
2, 65360, Note_on_c, 1, 77, 127
2, 65360, Note_on_c, 1, 81, 127
2, 65360, Note_on_c, 1, 89, 127
2, 65480, Note_off_c, 1, 50, 0
2, 65480, Note_off_c, 1, 57, 0
2, 65480, Note_off_c, 1, 62, 0
2, 65480, Note_off_c, 1, 77, 0
2, 65480, Note_off_c, 1, 81, 0
2, 65480, Note_off_c, 1, 89, 0
2, 65560, Note_on_c, 1, 50, 127
2, 65560, Note_on_c, 1, 57, 127
2, 65560, Note_on_c, 1, 62, 127
2, 65560, Note_on_c, 1, 77, 127
2, 65560, Note_on_c, 1, 81, 127
2, 65560, Note_on_c, 1, 89, 127
2, 65680, Note_off_c, 1, 50, 0
2, 65680, Note_off_c, 1, 57, 0
2, 65680, Note_off_c, 1, 62, 0
2, 65680, Note_off_c, 1, 77, 0
2, 65680, Note_off_c, 1, 81, 0
2, 65680, Note_off_c, 1, 89, 0
2, 65760, Note_on_c, 1, 50, 127
2, 65760, Note_on_c, 1, 57, 127
2, 65760, Note_on_c, 1, 62, 127
2, 65760, Note_on_c, 1, 77, 127
2, 65760, Note_on_c, 1, 81, 127
2, 65760, Note_on_c, 1, 89, 127
2, 65880, Note_off_c, 1, 50, 0
2, 65880, Note_off_c, 1, 57, 0
2, 65880, Note_off_c, 1, 62, 0
2, 65880, Note_off_c, 1, 77, 0
2, 65880, Note_off_c, 1, 81, 0
2, 65880, Note_off_c, 1, 89, 0
2, 65960, Note_on_c, 1, 50, 127
2, 65960, Note_on_c, 1, 57, 127
2, 65960, Note_on_c, 1, 62, 127
2, 65960, Note_on_c, 1, 77, 127
2, 65960, Note_on_c, 1, 81, 127
2, 65960, Note_on_c, 1, 89, 127
2, 66080, Note_off_c, 1, 50, 0
2, 66080, Note_off_c, 1, 57, 0
2, 66080, Note_off_c, 1, 62, 0
2, 66080, Note_off_c, 1, 77, 0
2, 66080, Note_off_c, 1, 81, 0
2, 66080, Note_off_c, 1, 89, 0
2, 66160, Note_on_c, 1, 50, 127
2, 66160, Note_on_c, 1, 57, 127
2, 66160, Note_on_c, 1, 62, 127
2, 66160, Note_on_c, 1, 77, 127
2, 66160, Note_on_c, 1, 81, 127
2, 66160, Note_on_c, 1, 89, 127
2, 66280, Note_off_c, 1, 50, 0
2, 66280, Note_off_c, 1, 57, 0
2, 66280, Note_off_c, 1, 62, 0
2, 66280, Note_off_c, 1, 77, 0
2, 66280, Note_off_c, 1, 81, 0
2, 66280, Note_off_c, 1, 89, 0
2, 66400, Note_on_c, 1, 50, 127
2, 66400, Note_on_c, 1, 57, 127
2, 66400, Note_on_c, 1, 62, 127
2, 66400, Note_on_c, 1, 77, 127
2, 66400, Note_on_c, 1, 81, 127
2, 66400, Note_on_c, 1, 89, 127
2, 66520, Note_off_c, 1, 50, 0
2, 66520, Note_off_c, 1, 57, 0
2, 66520, Note_off_c, 1, 62, 0
2, 66520, Note_off_c, 1, 77, 0
2, 66520, Note_off_c, 1, 81, 0
2, 66520, Note_off_c, 1, 89, 0
2, 66600, Note_on_c, 1, 50, 127
2, 66600, Note_on_c, 1, 57, 127
2, 66600, Note_on_c, 1, 62, 127
2, 66600, Note_on_c, 1, 77, 127
2, 66600, Note_on_c, 1, 81, 127
2, 66600, Note_on_c, 1, 89, 127
2, 66720, Note_off_c, 1, 50, 0
2, 66720, Note_off_c, 1, 57, 0
2, 66720, Note_off_c, 1, 62, 0
2, 66720, Note_off_c, 1, 77, 0
2, 66720, Note_off_c, 1, 81, 0
2, 66720, Note_off_c, 1, 89, 0
2, 66800, Note_on_c, 1, 50, 127
2, 66800, Note_on_c, 1, 57, 127
2, 66800, Note_on_c, 1, 62, 127
2, 66800, Note_on_c, 1, 77, 127
2, 66800, Note_on_c, 1, 81, 127
2, 66800, Note_on_c, 1, 89, 127
2, 66920, Note_off_c, 1, 50, 0
2, 66920, Note_off_c, 1, 57, 0
2, 66920, Note_off_c, 1, 62, 0
2, 66920, Note_off_c, 1, 77, 0
2, 66920, Note_off_c, 1, 81, 0
2, 66920, Note_off_c, 1, 89, 0
2, 67000, Note_on_c, 1, 50, 127
2, 67000, Note_on_c, 1, 57, 127
2, 67000, Note_on_c, 1, 62, 127
2, 67000, Note_on_c, 1, 77, 127
2, 67000, Note_on_c, 1, 81, 127
2, 67000, Note_on_c, 1, 89, 127
2, 67120, Note_off_c, 1, 50, 0
2, 67120, Note_off_c, 1, 57, 0
2, 67120, Note_off_c, 1, 62, 0
2, 67120, Note_off_c, 1, 77, 0
2, 67120, Note_off_c, 1, 81, 0
2, 67120, Note_off_c, 1, 89, 0
2, 67200, Note_on_c, 1, 50, 127
2, 67200, Note_on_c, 1, 57, 127
2, 67200, Note_on_c, 1, 62, 127
2, 67200, Note_on_c, 1, 77, 127
2, 67200, Note_on_c, 1, 81, 127
2, 67200, Note_on_c, 1, 89, 127
2, 67320, Note_off_c, 1, 50, 0
2, 67320, Note_off_c, 1, 57, 0
2, 67320, Note_off_c, 1, 62, 0
2, 67320, Note_off_c, 1, 77, 0
2, 67320, Note_off_c, 1, 81, 0
2, 67320, Note_off_c, 1, 89, 0
2, 67400, Note_on_c, 1, 50, 127
2, 67400, Note_on_c, 1, 57, 127
2, 67400, Note_on_c, 1, 62, 127
2, 67400, Note_on_c, 1, 77, 127
2, 67400, Note_on_c, 1, 81, 127
2, 67400, Note_on_c, 1, 89, 127
2, 67520, Note_off_c, 1, 50, 0
2, 67520, Note_off_c, 1, 57, 0
2, 67520, Note_off_c, 1, 62, 0
2, 67520, Note_off_c, 1, 77, 0
2, 67520, Note_off_c, 1, 81, 0
2, 67520, Note_off_c, 1, 89, 0
2, 67600, Note_on_c, 1, 50, 127
2, 67600, Note_on_c, 1, 57, 127
2, 67600, Note_on_c, 1, 62, 127
2, 67600, Note_on_c, 1, 77, 127
2, 67600, Note_on_c, 1, 81, 127
2, 67600, Note_on_c, 1, 89, 127
2, 67720, Note_off_c, 1, 50, 0
2, 67720, Note_off_c, 1, 57, 0
2, 67720, Note_off_c, 1, 62, 0
2, 67720, Note_off_c, 1, 77, 0
2, 67720, Note_off_c, 1, 81, 0
2, 67720, Note_off_c, 1, 89, 0
2, 67800, Note_on_c, 1, 50, 127
2, 67800, Note_on_c, 1, 57, 127
2, 67800, Note_on_c, 1, 62, 127
2, 67800, Note_on_c, 1, 77, 127
2, 67800, Note_on_c, 1, 81, 127
2, 67800, Note_on_c, 1, 89, 127
2, 67920, Note_off_c, 1, 50, 0
2, 67920, Note_off_c, 1, 57, 0
2, 67920, Note_off_c, 1, 62, 0
2, 67920, Note_off_c, 1, 77, 0
2, 67920, Note_off_c, 1, 81, 0
2, 67920, Note_off_c, 1, 89, 0
2, 68000, Note_on_c, 1, 50, 127
2, 68000, Note_on_c, 1, 57, 127
2, 68000, Note_on_c, 1, 62, 127
2, 68000, Note_on_c, 1, 77, 127
2, 68000, Note_on_c, 1, 81, 127
2, 68000, Note_on_c, 1, 89, 127
2, 68120, Note_off_c, 1, 50, 0
2, 68120, Note_off_c, 1, 57, 0
2, 68120, Note_off_c, 1, 62, 0
2, 68120, Note_off_c, 1, 77, 0
2, 68120, Note_off_c, 1, 81, 0
2, 68120, Note_off_c, 1, 89, 0
2, 68200, Note_on_c, 1, 50, 127
2, 68200, Note_on_c, 1, 57, 127
2, 68200, Note_on_c, 1, 62, 127
2, 68200, Note_on_c, 1, 77, 127
2, 68200, Note_on_c, 1, 81, 127
2, 68200, Note_on_c, 1, 89, 127
2, 68320, Note_off_c, 1, 50, 0
2, 68320, Note_off_c, 1, 57, 0
2, 68320, Note_off_c, 1, 62, 0
2, 68320, Note_off_c, 1, 77, 0
2, 68320, Note_off_c, 1, 81, 0
2, 68320, Note_off_c, 1, 89, 0
2, 68440, Note_on_c, 1, 50, 127
2, 68440, Note_on_c, 1, 57, 127
2, 68440, Note_on_c, 1, 62, 127
2, 68440, Note_on_c, 1, 77, 127
2, 68440, Note_on_c, 1, 81, 127
2, 68440, Note_on_c, 1, 89, 127
2, 68560, Note_off_c, 1, 50, 0
2, 68560, Note_off_c, 1, 57, 0
2, 68560, Note_off_c, 1, 62, 0
2, 68560, Note_off_c, 1, 77, 0
2, 68560, Note_off_c, 1, 81, 0
2, 68560, Note_off_c, 1, 89, 0
2, 68640, Note_on_c, 1, 50, 127
2, 68640, Note_on_c, 1, 57, 127
2, 68640, Note_on_c, 1, 62, 127
2, 68640, Note_on_c, 1, 77, 127
2, 68640, Note_on_c, 1, 81, 127
2, 68640, Note_on_c, 1, 89, 127
2, 68760, Note_off_c, 1, 50, 0
2, 68760, Note_off_c, 1, 57, 0
2, 68760, Note_off_c, 1, 62, 0
2, 68760, Note_off_c, 1, 77, 0
2, 68760, Note_off_c, 1, 81, 0
2, 68760, Note_off_c, 1, 89, 0
2, 68840, Note_on_c, 1, 50, 127
2, 68840, Note_on_c, 1, 57, 127
2, 68840, Note_on_c, 1, 62, 127
2, 68840, Note_on_c, 1, 77, 127
2, 68840, Note_on_c, 1, 81, 127
2, 68840, Note_on_c, 1, 89, 127
2, 68960, Note_off_c, 1, 50, 0
2, 68960, Note_off_c, 1, 57, 0
2, 68960, Note_off_c, 1, 62, 0
2, 68960, Note_off_c, 1, 77, 0
2, 68960, Note_off_c, 1, 81, 0
2, 68960, Note_off_c, 1, 89, 0
2, 69040, Note_on_c, 1, 50, 127
2, 69040, Note_on_c, 1, 57, 127
2, 69040, Note_on_c, 1, 62, 127
2, 69040, Note_on_c, 1, 77, 127
2, 69040, Note_on_c, 1, 81, 127
2, 69040, Note_on_c, 1, 89, 127
2, 69160, Note_off_c, 1, 50, 0
2, 69160, Note_off_c, 1, 57, 0
2, 69160, Note_off_c, 1, 62, 0
2, 69160, Note_off_c, 1, 77, 0
2, 69160, Note_off_c, 1, 81, 0
2, 69160, Note_off_c, 1, 89, 0
2, 69240, Note_on_c, 1, 50, 127
2, 69240, Note_on_c, 1, 57, 127
2, 69240, Note_on_c, 1, 62, 127
2, 69240, Note_on_c, 1, 77, 127
2, 69240, Note_on_c, 1, 81, 127
2, 69240, Note_on_c, 1, 89, 127
2, 69360, Note_off_c, 1, 50, 0
2, 69360, Note_off_c, 1, 57, 0
2, 69360, Note_off_c, 1, 62, 0
2, 69360, Note_off_c, 1, 77, 0
2, 69360, Note_off_c, 1, 81, 0
2, 69360, Note_off_c, 1, 89, 0
2, 69440, Note_on_c, 1, 50, 127
2, 69440, Note_on_c, 1, 57, 127
2, 69440, Note_on_c, 1, 62, 127
2, 69440, Note_on_c, 1, 77, 127
2, 69440, Note_on_c, 1, 81, 127
2, 69440, Note_on_c, 1, 89, 127
2, 69560, Note_off_c, 1, 50, 0
2, 69560, Note_off_c, 1, 57, 0
2, 69560, Note_off_c, 1, 62, 0
2, 69560, Note_off_c, 1, 77, 0
2, 69560, Note_off_c, 1, 81, 0
2, 69560, Note_off_c, 1, 89, 0
2, 69640, Note_on_c, 1, 50, 127
2, 69640, Note_on_c, 1, 57, 127
2, 69640, Note_on_c, 1, 62, 127
2, 69640, Note_on_c, 1, 77, 127
2, 69640, Note_on_c, 1, 81, 127
2, 69640, Note_on_c, 1, 89, 127
2, 69760, Note_off_c, 1, 50, 0
2, 69760, Note_off_c, 1, 57, 0
2, 69760, Note_off_c, 1, 62, 0
2, 69760, Note_off_c, 1, 77, 0
2, 69760, Note_off_c, 1, 81, 0
2, 69760, Note_off_c, 1, 89, 0
2, 69840, Note_on_c, 1, 50, 127
2, 69840, Note_on_c, 1, 57, 127
2, 69840, Note_on_c, 1, 62, 127
2, 69840, Note_on_c, 1, 77, 127
2, 69840, Note_on_c, 1, 81, 127
2, 69840, Note_on_c, 1, 89, 127
2, 69960, Note_off_c, 1, 50, 0
2, 69960, Note_off_c, 1, 57, 0
2, 69960, Note_off_c, 1, 62, 0
2, 69960, Note_off_c, 1, 77, 0
2, 69960, Note_off_c, 1, 81, 0
2, 69960, Note_off_c, 1, 89, 0
2, 70040, Note_on_c, 1, 50, 127
2, 70040, Note_on_c, 1, 57, 127
2, 70040, Note_on_c, 1, 62, 127
2, 70040, Note_on_c, 1, 77, 127
2, 70040, Note_on_c, 1, 81, 127
2, 70040, Note_on_c, 1, 89, 127
2, 70160, Note_off_c, 1, 50, 0
2, 70160, Note_off_c, 1, 57, 0
2, 70160, Note_off_c, 1, 62, 0
2, 70160, Note_off_c, 1, 77, 0
2, 70160, Note_off_c, 1, 81, 0
2, 70160, Note_off_c, 1, 89, 0
2, 70240, Note_on_c, 1, 50, 127
2, 70240, Note_on_c, 1, 57, 127
2, 70240, Note_on_c, 1, 62, 127
2, 70240, Note_on_c, 1, 77, 127
2, 70240, Note_on_c, 1, 81, 127
2, 70240, Note_on_c, 1, 89, 127
2, 70360, Note_off_c, 1, 50, 0
2, 70360, Note_off_c, 1, 57, 0
2, 70360, Note_off_c, 1, 62, 0
2, 70360, Note_off_c, 1, 77, 0
2, 70360, Note_off_c, 1, 81, 0
2, 70360, Note_off_c, 1, 89, 0
2, 70480, Note_on_c, 1, 50, 127
2, 70480, Note_on_c, 1, 57, 127
2, 70480, Note_on_c, 1, 62, 127
2, 70480, Note_on_c, 1, 77, 127
2, 70480, Note_on_c, 1, 81, 127
2, 70480, Note_on_c, 1, 89, 127
2, 70600, Note_off_c, 1, 50, 0
2, 70600, Note_off_c, 1, 57, 0
2, 70600, Note_off_c, 1, 62, 0
2, 70600, Note_off_c, 1, 77, 0
2, 70600, Note_off_c, 1, 81, 0
2, 70600, Note_off_c, 1, 89, 0
2, 70680, Note_on_c, 1, 50, 127
2, 70680, Note_on_c, 1, 57, 127
2, 70680, Note_on_c, 1, 62, 127
2, 70680, Note_on_c, 1, 77, 127
2, 70680, Note_on_c, 1, 81, 127
2, 70680, Note_on_c, 1, 89, 127
2, 70800, Note_off_c, 1, 50, 0
2, 70800, Note_off_c, 1, 57, 0
2, 70800, Note_off_c, 1, 62, 0
2, 70800, Note_off_c, 1, 77, 0
2, 70800, Note_off_c, 1, 81, 0
2, 70800, Note_off_c, 1, 89, 0
2, 70880, Note_on_c, 1, 50, 127
2, 70880, Note_on_c, 1, 57, 127
2, 70880, Note_on_c, 1, 62, 127
2, 70880, Note_on_c, 1, 77, 127
2, 70880, Note_on_c, 1, 81, 127
2, 70880, Note_on_c, 1, 89, 127
2, 71000, Note_off_c, 1, 50, 0
2, 71000, Note_off_c, 1, 57, 0
2, 71000, Note_off_c, 1, 62, 0
2, 71000, Note_off_c, 1, 77, 0
2, 71000, Note_off_c, 1, 81, 0
2, 71000, Note_off_c, 1, 89, 0
2, 71080, Note_on_c, 1, 50, 127
2, 71080, Note_on_c, 1, 57, 127
2, 71080, Note_on_c, 1, 62, 127
2, 71080, Note_on_c, 1, 77, 127
2, 71080, Note_on_c, 1, 81, 127
2, 71080, Note_on_c, 1, 89, 127
2, 71200, Note_off_c, 1, 50, 0
2, 71200, Note_off_c, 1, 57, 0
2, 71200, Note_off_c, 1, 62, 0
2, 71200, Note_off_c, 1, 77, 0
2, 71200, Note_off_c, 1, 81, 0
2, 71200, Note_off_c, 1, 89, 0
2, 71280, Note_on_c, 1, 50, 127
2, 71280, Note_on_c, 1, 57, 127
2, 71280, Note_on_c, 1, 62, 127
2, 71280, Note_on_c, 1, 77, 127
2, 71280, Note_on_c, 1, 81, 127
2, 71280, Note_on_c, 1, 89, 127
2, 71400, Note_off_c, 1, 50, 0
2, 71400, Note_off_c, 1, 57, 0
2, 71400, Note_off_c, 1, 62, 0
2, 71400, Note_off_c, 1, 77, 0
2, 71400, Note_off_c, 1, 81, 0
2, 71400, Note_off_c, 1, 89, 0
2, 71480, Note_on_c, 1, 50, 127
2, 71480, Note_on_c, 1, 57, 127
2, 71480, Note_on_c, 1, 62, 127
2, 71480, Note_on_c, 1, 77, 127
2, 71480, Note_on_c, 1, 81, 127
2, 71480, Note_on_c, 1, 89, 127
2, 71600, Note_off_c, 1, 50, 0
2, 71600, Note_off_c, 1, 57, 0
2, 71600, Note_off_c, 1, 62, 0
2, 71600, Note_off_c, 1, 77, 0
2, 71600, Note_off_c, 1, 81, 0
2, 71600, Note_off_c, 1, 89, 0
2, 71680, Note_on_c, 1, 50, 127
2, 71680, Note_on_c, 1, 57, 127
2, 71680, Note_on_c, 1, 62, 127
2, 71680, Note_on_c, 1, 77, 127
2, 71680, Note_on_c, 1, 81, 127
2, 71680, Note_on_c, 1, 89, 127
2, 71800, Note_off_c, 1, 50, 0
2, 71800, Note_off_c, 1, 57, 0
2, 71800, Note_off_c, 1, 62, 0
2, 71800, Note_off_c, 1, 77, 0
2, 71800, Note_off_c, 1, 81, 0
2, 71800, Note_off_c, 1, 89, 0
2, 71880, Note_on_c, 1, 50, 127
2, 71880, Note_on_c, 1, 57, 127
2, 71880, Note_on_c, 1, 62, 127
2, 71880, Note_on_c, 1, 77, 127
2, 71880, Note_on_c, 1, 81, 127
2, 71880, Note_on_c, 1, 89, 127
2, 72000, Note_off_c, 1, 50, 0
2, 72000, Note_off_c, 1, 57, 0
2, 72000, Note_off_c, 1, 62, 0
2, 72000, Note_off_c, 1, 77, 0
2, 72000, Note_off_c, 1, 81, 0
2, 72000, Note_off_c, 1, 89, 0
2, 72080, Note_on_c, 1, 54, 127
2, 72080, Note_on_c, 1, 57, 127
2, 72080, Note_on_c, 1, 62, 127
2, 72080, Note_on_c, 1, 66, 127
2, 72080, Note_on_c, 1, 69, 127
2, 72080, Note_on_c, 1, 74, 127
2, 72200, Note_off_c, 1, 54, 0
2, 72200, Note_off_c, 1, 57, 0
2, 72200, Note_off_c, 1, 62, 0
2, 72200, Note_off_c, 1, 66, 0
2, 72200, Note_off_c, 1, 69, 0
2, 72200, Note_off_c, 1, 74, 0
2, 72280, Note_on_c, 1, 52, 127
2, 72280, Note_on_c, 1, 55, 127
2, 72280, Note_on_c, 1, 58, 127
2, 72280, Note_on_c, 1, 61, 127
2, 72280, Note_on_c, 1, 82, 127
2, 72400, Note_off_c, 1, 52, 0
2, 72400, Note_off_c, 1, 55, 0
2, 72400, Note_off_c, 1, 58, 0
2, 72400, Note_off_c, 1, 61, 0
2, 72480, Note_on_c, 1, 33, 127
2, 72480, Note_on_c, 1, 45, 127
2, 72480, Note_on_c, 1, 58, 127
2, 72480, Note_on_c, 1, 61, 127
2, 72480, Note_off_c, 1, 82, 0
2, 72640, Note_off_c, 1, 33, 0
2, 72640, Note_off_c, 1, 45, 0
2, 72640, Note_off_c, 1, 58, 0
2, 72640, Note_off_c, 1, 61, 0
2, 72680, Note_on_c, 1, 33, 127
2, 72680, Note_on_c, 1, 45, 127
2, 72680, Note_on_c, 1, 58, 127
2, 72680, Note_on_c, 1, 61, 127
2, 72880, Note_off_c, 1, 33, 0
2, 72880, Note_off_c, 1, 45, 0
2, 72880, Note_off_c, 1, 58, 0
2, 72880, Note_off_c, 1, 61, 0
2, 72920, Note_on_c, 1, 41, 127
2, 72920, Note_on_c, 1, 76, 127
2, 72920, Note_on_c, 1, 81, 127
2, 73080, Note_off_c, 1, 41, 0
2, 73080, Note_off_c, 1, 76, 0
2, 73080, Note_off_c, 1, 81, 0
2, 73120, Note_on_c, 1, 81, 127
2, 73240, Note_off_c, 1, 81, 0
2, 73320, Note_on_c, 1, 54, 127
2, 73320, Note_on_c, 1, 59, 127
2, 73320, Note_on_c, 1, 62, 127
2, 73320, Note_on_c, 1, 86, 127
2, 73440, Note_off_c, 1, 54, 0
2, 73440, Note_off_c, 1, 59, 0
2, 73440, Note_off_c, 1, 62, 0
2, 73440, Note_off_c, 1, 86, 0
2, 73520, Note_on_c, 1, 54, 127
2, 73520, Note_on_c, 1, 59, 127
2, 73520, Note_on_c, 1, 62, 127
2, 73520, Note_on_c, 1, 83, 127
2, 73680, Note_off_c, 1, 54, 0
2, 73680, Note_off_c, 1, 59, 0
2, 73680, Note_off_c, 1, 62, 0
2, 73680, Note_off_c, 1, 83, 0
2, 73720, Note_on_c, 1, 40, 127
2, 73720, Note_on_c, 1, 52, 127
2, 73720, Note_on_c, 1, 73, 127
2, 73720, Note_on_c, 1, 79, 127
2, 73720, Note_on_c, 1, 85, 127
2, 73840, Note_on_c, 1, 38, 127
2, 73840, Note_off_c, 1, 40, 0
2, 73840, Note_on_c, 1, 45, 127
2, 73840, Note_on_c, 1, 50, 127
2, 73840, Note_off_c, 1, 52, 0
2, 73840, Note_off_c, 1, 73, 0
2, 73840, Note_on_c, 1, 74, 127
2, 73840, Note_on_c, 1, 78, 127
2, 73840, Note_off_c, 1, 79, 0
2, 73840, Note_off_c, 1, 85, 0
2, 73840, Note_on_c, 1, 86, 127
2, 73880, Note_off_c, 1, 38, 0
2, 73880, Note_off_c, 1, 45, 0
2, 73880, Note_off_c, 1, 50, 0
2, 73880, Note_off_c, 1, 74, 0
2, 73880, Note_off_c, 1, 78, 0
2, 73880, Note_off_c, 1, 86, 0
2, 73920, Note_on_c, 1, 41, 127
2, 73920, Note_on_c, 1, 48, 127
2, 73920, Note_on_c, 1, 53, 127
2, 73920, Note_on_c, 1, 60, 127
2, 73920, Note_on_c, 1, 63, 127
2, 73920, Note_on_c, 1, 75, 127
2, 73920, Note_on_c, 1, 81, 127
2, 73920, Note_on_c, 1, 87, 127
2, 73960, Note_off_c, 1, 41, 0
2, 73960, Note_off_c, 1, 48, 0
2, 73960, Note_on_c, 1, 50, 127
2, 73960, Note_off_c, 1, 53, 0
2, 73960, Note_on_c, 1, 58, 127
2, 73960, Note_off_c, 1, 60, 0
2, 73960, Note_off_c, 1, 63, 0
2, 73960, Note_on_c, 1, 67, 127
2, 73960, Note_on_c, 1, 73, 127
2, 73960, Note_off_c, 1, 75, 0
2, 73960, Note_on_c, 1, 77, 127
2, 73960, Note_off_c, 1, 81, 0
2, 73960, Note_off_c, 1, 87, 0
2, 74000, Note_off_c, 1, 50, 0
2, 74000, Note_on_c, 1, 54, 127
2, 74000, Note_off_c, 1, 58, 0
2, 74000, Note_on_c, 1, 65, 127
2, 74000, Note_off_c, 1, 67, 0
2, 74000, Note_on_c, 1, 70, 127
2, 74000, Note_off_c, 1, 77, 0
2, 74040, Note_on_c, 1, 31, 127
2, 74040, Note_on_c, 1, 43, 127
2, 74040, Note_off_c, 1, 54, 0
2, 74040, Note_off_c, 1, 65, 0
2, 74040, Note_off_c, 1, 70, 0
2, 74040, Note_off_c, 1, 73, 0
2, 74040, Note_on_c, 1, 74, 127
2, 74040, Note_on_c, 1, 79, 127
2, 74040, Note_on_c, 1, 82, 127
2, 74040, Note_on_c, 1, 86, 127
2, 74080, Note_off_c, 1, 31, 0
2, 74080, Note_off_c, 1, 43, 0
2, 74080, Note_off_c, 1, 74, 0
2, 74080, Note_off_c, 1, 79, 0
2, 74080, Note_off_c, 1, 82, 0
2, 74080, Note_off_c, 1, 86, 0
2, 74120, Note_on_c, 1, 58, 127
2, 74120, Note_on_c, 1, 64, 127
2, 74120, Note_on_c, 1, 67, 127
2, 74120, Note_on_c, 1, 73, 127
2, 74240, Note_off_c, 1, 58, 0
2, 74240, Note_off_c, 1, 64, 0
2, 74240, Note_off_c, 1, 67, 0
2, 74240, Note_off_c, 1, 73, 0
2, 74320, Note_on_c, 1, 44, 127
2, 74320, Note_on_c, 1, 90, 127
2, 74320, Note_on_c, 1, 93, 127
2, 74480, Note_off_c, 1, 44, 0
2, 74480, Note_off_c, 1, 90, 0
2, 74480, Note_off_c, 1, 93, 0
2, 74520, Note_on_c, 1, 45, 127
2, 74520, Note_on_c, 1, 52, 127
2, 74520, Note_on_c, 1, 55, 127
2, 74520, Note_on_c, 1, 57, 127
2, 74520, Note_on_c, 1, 69, 127
2, 74560, Note_on_c, 1, 49, 127
2, 74560, Note_off_c, 1, 55, 0
2, 74560, Note_off_c, 1, 69, 0
2, 74560, Note_on_c, 1, 74, 127
2, 74600, Note_off_c, 1, 45, 0
2, 74600, Note_off_c, 1, 49, 0
2, 74600, Note_off_c, 1, 52, 0
2, 74600, Note_off_c, 1, 57, 0
2, 74600, Note_off_c, 1, 74, 0
2, 74640, Note_on_c, 1, 59, 127
2, 74640, Note_on_c, 1, 63, 127
2, 74640, Note_on_c, 1, 66, 127
2, 74640, Note_on_c, 1, 71, 127
2, 74640, Note_on_c, 1, 93, 127
2, 74680, Note_on_c, 1, 35, 127
2, 74680, Note_on_c, 1, 47, 127
2, 74680, Note_on_c, 1, 51, 127
2, 74680, Note_on_c, 1, 54, 127
2, 74680, Note_off_c, 1, 66, 0
2, 74680, Note_on_c, 1, 78, 127
2, 74680, Note_off_c, 1, 93, 0
2, 74720, Note_off_c, 1, 35, 0
2, 74720, Note_off_c, 1, 47, 0
2, 74720, Note_off_c, 1, 51, 0
2, 74720, Note_off_c, 1, 54, 0
2, 74720, Note_on_c, 1, 55, 127
2, 74720, Note_on_c, 1, 58, 127
2, 74720, Note_off_c, 1, 59, 0
2, 74720, Note_on_c, 1, 62, 127
2, 74720, Note_off_c, 1, 63, 0
2, 74720, Note_on_c, 1, 67, 127
2, 74720, Note_on_c, 1, 70, 127
2, 74720, Note_off_c, 1, 71, 0
2, 74720, Note_off_c, 1, 78, 0
2, 74760, Note_off_c, 1, 55, 0
2, 74760, Note_off_c, 1, 58, 0
2, 74760, Note_off_c, 1, 62, 0
2, 74760, Note_on_c, 1, 63, 127
2, 74760, Note_on_c, 1, 82, 127
2, 74760, Note_on_c, 1, 94, 127
2, 74800, Note_off_c, 1, 82, 0
2, 74880, Note_on_c, 1, 82, 127
2, 74920, Note_off_c, 1, 63, 0
2, 74920, Note_off_c, 1, 67, 0
2, 74920, Note_off_c, 1, 70, 0
2, 74920, Note_off_c, 1, 82, 0
2, 74920, Note_off_c, 1, 94, 0
2, 74960, Note_on_c, 1, 48, 127
2, 74960, Note_on_c, 1, 103, 127
2, 75120, Note_off_c, 1, 48, 0
2, 75120, Note_off_c, 1, 103, 0
2, 75160, Note_on_c, 1, 36, 127
2, 75160, Note_on_c, 1, 96, 127
2, 75320, Note_off_c, 1, 36, 0
2, 75320, Note_off_c, 1, 96, 0
2, 75360, Note_on_c, 1, 38, 127
2, 75360, Note_on_c, 1, 48, 127
2, 75360, Note_on_c, 1, 50, 127
2, 75360, Note_on_c, 1, 65, 127
2, 75360, Note_on_c, 1, 72, 127
2, 75360, Note_on_c, 1, 77, 127
2, 75520, Note_off_c, 1, 38, 0
2, 75520, Note_off_c, 1, 48, 0
2, 75520, Note_off_c, 1, 50, 0
2, 75520, Note_off_c, 1, 65, 0
2, 75520, Note_off_c, 1, 72, 0
2, 75520, Note_off_c, 1, 77, 0
2, 75560, Note_on_c, 1, 36, 127
2, 75560, Note_on_c, 1, 43, 127
2, 75560, Note_on_c, 1, 48, 127
2, 75560, Note_on_c, 1, 64, 127
2, 75560, Note_on_c, 1, 72, 127
2, 75560, Note_on_c, 1, 76, 127
2, 75720, Note_off_c, 1, 36, 0
2, 75720, Note_off_c, 1, 43, 0
2, 75720, Note_off_c, 1, 48, 0
2, 75720, Note_off_c, 1, 64, 0
2, 75720, Note_off_c, 1, 72, 0
2, 75720, Note_off_c, 1, 76, 0
2, 75760, Note_on_c, 1, 46, 127
2, 75760, Note_on_c, 1, 53, 127
2, 75760, Note_on_c, 1, 56, 127
2, 75760, Note_on_c, 1, 61, 127
2, 75760, Note_on_c, 1, 65, 127
2, 75920, Note_off_c, 1, 46, 0
2, 75920, Note_off_c, 1, 53, 0
2, 75920, Note_off_c, 1, 56, 0
2, 75920, Note_off_c, 1, 61, 0
2, 75920, Note_off_c, 1, 65, 0
2, 75960, Note_on_c, 1, 56, 127
2, 75960, Note_on_c, 1, 60, 127
2, 75960, Note_on_c, 1, 63, 127
2, 75960, Note_on_c, 1, 80, 127
2, 75960, Note_on_c, 1, 92, 127
2, 76120, Note_off_c, 1, 56, 0
2, 76120, Note_off_c, 1, 60, 0
2, 76120, Note_off_c, 1, 63, 0
2, 76120, Note_off_c, 1, 80, 0
2, 76120, Note_off_c, 1, 92, 0
2, 76160, Note_on_c, 1, 56, 127
2, 76160, Note_on_c, 1, 60, 127
2, 76160, Note_on_c, 1, 63, 127
2, 76160, Note_on_c, 1, 80, 127
2, 76160, Note_on_c, 1, 92, 127
2, 76320, Note_off_c, 1, 56, 0
2, 76320, Note_off_c, 1, 60, 0
2, 76320, Note_off_c, 1, 63, 0
2, 76320, Note_off_c, 1, 80, 0
2, 76320, Note_off_c, 1, 92, 0
2, 76360, Note_on_c, 1, 57, 127
2, 76360, Note_on_c, 1, 59, 127
2, 76360, Note_on_c, 1, 71, 127
2, 76360, Note_on_c, 1, 75, 127
2, 76360, Note_on_c, 1, 81, 127
2, 76360, Note_on_c, 1, 83, 127
2, 76440, Note_off_c, 1, 57, 0
2, 76440, Note_off_c, 1, 59, 0
2, 76440, Note_off_c, 1, 71, 0
2, 76440, Note_on_c, 1, 72, 127
2, 76440, Note_off_c, 1, 75, 0
2, 76440, Note_off_c, 1, 81, 0
2, 76440, Note_off_c, 1, 83, 0
2, 76440, Note_on_c, 1, 84, 127
2, 76440, Note_on_c, 1, 89, 127
2, 76440, Note_on_c, 1, 93, 127
2, 76440, Note_on_c, 1, 96, 127
2, 76480, Note_off_c, 1, 72, 0
2, 76480, Note_off_c, 1, 84, 0
2, 76480, Note_off_c, 1, 89, 0
2, 76480, Note_off_c, 1, 93, 0
2, 76480, Note_off_c, 1, 96, 0
2, 76520, Note_on_c, 1, 30, 127
2, 76520, Note_on_c, 1, 42, 127
2, 76520, Note_on_c, 1, 72, 127
2, 76520, Note_on_c, 1, 76, 127
2, 76520, Note_on_c, 1, 88, 127
2, 76560, Note_off_c, 1, 30, 0
2, 76560, Note_off_c, 1, 42, 0
2, 76560, Note_off_c, 1, 72, 0
2, 76560, Note_off_c, 1, 76, 0
2, 76560, Note_off_c, 1, 88, 0
2, 76600, Note_on_c, 1, 50, 127
2, 76600, Note_on_c, 1, 54, 127
2, 76600, Note_on_c, 1, 57, 127
2, 76600, Note_on_c, 1, 74, 127
2, 76600, Note_on_c, 1, 78, 127
2, 76640, Note_on_c, 1, 49, 127
2, 76640, Note_off_c, 1, 50, 0
2, 76640, Note_off_c, 1, 54, 0
2, 76640, Note_off_c, 1, 57, 0
2, 76640, Note_on_c, 1, 61, 127
2, 76640, Note_on_c, 1, 64, 127
2, 76640, Note_on_c, 1, 67, 127
2, 76640, Note_on_c, 1, 71, 127
2, 76640, Note_off_c, 1, 74, 0
2, 76640, Note_off_c, 1, 78, 0
2, 76680, Note_on_c, 1, 31, 127
2, 76680, Note_off_c, 1, 49, 0
2, 76680, Note_off_c, 1, 61, 0
2, 76680, Note_off_c, 1, 64, 0
2, 76680, Note_off_c, 1, 67, 0
2, 76680, Note_on_c, 1, 69, 127
2, 76680, Note_off_c, 1, 71, 0
2, 76680, Note_on_c, 1, 72, 127
2, 76680, Note_on_c, 1, 75, 127
2, 76680, Note_on_c, 1, 78, 127
2, 76720, Note_off_c, 1, 31, 0
2, 76720, Note_on_c, 1, 63, 127
2, 76720, Note_on_c, 1, 67, 127
2, 76720, Note_off_c, 1, 69, 0
2, 76720, Note_off_c, 1, 75, 0
2, 76720, Note_off_c, 1, 78, 0
2, 76720, Note_on_c, 1, 81, 127
2, 76720, Note_on_c, 1, 93, 127
2, 76760, Note_off_c, 1, 63, 0
2, 76760, Note_off_c, 1, 67, 0
2, 76760, Note_off_c, 1, 72, 0
2, 76760, Note_off_c, 1, 81, 0
2, 76760, Note_off_c, 1, 93, 0
2, 76800, Note_on_c, 1, 37, 127
2, 76800, Note_on_c, 1, 42, 127
2, 76800, Note_on_c, 1, 49, 127
2, 76800, Note_on_c, 1, 64, 127
2, 76960, Note_off_c, 1, 37, 0
2, 76960, Note_off_c, 1, 42, 0
2, 76960, Note_off_c, 1, 49, 0
2, 76960, Note_off_c, 1, 64, 0
2, 77000, Note_on_c, 1, 46, 127
2, 77000, Note_on_c, 1, 58, 127
2, 77000, Note_on_c, 1, 64, 127
2, 77000, Note_on_c, 1, 70, 127
2, 77000, Note_on_c, 1, 73, 127
2, 77160, Note_off_c, 1, 46, 0
2, 77160, Note_off_c, 1, 58, 0
2, 77160, Note_off_c, 1, 64, 0
2, 77160, Note_off_c, 1, 70, 0
2, 77160, Note_off_c, 1, 73, 0
2, 77200, Note_on_c, 1, 42, 127
2, 77200, Note_on_c, 1, 59, 127
2, 77200, Note_on_c, 1, 69, 127
2, 77200, Note_on_c, 1, 81, 127
2, 77360, Note_off_c, 1, 42, 0
2, 77360, Note_off_c, 1, 59, 0
2, 77360, Note_off_c, 1, 69, 0
2, 77360, Note_off_c, 1, 81, 0
2, 77400, Note_on_c, 1, 42, 127
2, 77400, Note_on_c, 1, 59, 127
2, 77400, Note_on_c, 1, 69, 127
2, 77400, Note_on_c, 1, 81, 127
2, 77560, Note_off_c, 1, 42, 0
2, 77560, Note_off_c, 1, 59, 0
2, 77560, Note_off_c, 1, 69, 0
2, 77560, Note_off_c, 1, 81, 0
2, 77600, Note_on_c, 1, 42, 127
2, 77600, Note_on_c, 1, 59, 127
2, 77600, Note_on_c, 1, 69, 127
2, 77600, Note_on_c, 1, 81, 127
2, 77760, Note_off_c, 1, 42, 0
2, 77760, Note_off_c, 1, 59, 0
2, 77760, Note_off_c, 1, 69, 0
2, 77760, Note_off_c, 1, 81, 0
2, 77800, Note_on_c, 1, 35, 127
2, 77800, Note_on_c, 1, 43, 127
2, 77800, Note_on_c, 1, 62, 127
2, 77800, Note_on_c, 1, 64, 127
2, 77800, Note_on_c, 1, 69, 127
2, 77840, Note_off_c, 1, 35, 0
2, 77880, Note_on_c, 1, 35, 127
2, 77960, Note_off_c, 1, 35, 0
2, 78000, Note_on_c, 1, 35, 127
2, 78120, Note_off_c, 1, 35, 0
2, 78160, Note_off_c, 1, 43, 0
2, 78160, Note_off_c, 1, 62, 0
2, 78160, Note_off_c, 1, 64, 0
2, 78160, Note_off_c, 1, 69, 0
2, 78200, Note_on_c, 1, 35, 127
2, 78200, Note_on_c, 1, 43, 127
2, 78200, Note_on_c, 1, 62, 127
2, 78200, Note_on_c, 1, 64, 127
2, 78200, Note_on_c, 1, 69, 127
2, 78280, Note_off_c, 1, 35, 0
2, 78320, Note_on_c, 1, 35, 127
2, 78440, Note_off_c, 1, 35, 0
2, 78440, Note_off_c, 1, 43, 0
2, 78440, Note_off_c, 1, 62, 0
2, 78440, Note_off_c, 1, 64, 0
2, 78440, Note_off_c, 1, 69, 0
2, 78480, Note_on_c, 1, 43, 127
2, 78480, Note_on_c, 1, 62, 127
2, 78480, Note_on_c, 1, 64, 127
2, 78480, Note_on_c, 1, 69, 127
2, 78520, Note_on_c, 1, 35, 127
2, 78600, Note_off_c, 1, 35, 0
2, 78600, Note_off_c, 1, 43, 0
2, 78600, Note_off_c, 1, 62, 0
2, 78600, Note_off_c, 1, 64, 0
2, 78600, Note_off_c, 1, 69, 0
2, 78640, Note_on_c, 1, 35, 127
2, 78640, Note_on_c, 1, 43, 127
2, 78640, Note_on_c, 1, 62, 127
2, 78640, Note_on_c, 1, 64, 127
2, 78640, Note_on_c, 1, 69, 127
2, 78680, Note_off_c, 1, 35, 0
2, 78840, Note_on_c, 1, 35, 127
2, 78880, Note_off_c, 1, 35, 0
2, 79000, Note_off_c, 1, 43, 0
2, 79000, Note_off_c, 1, 62, 0
2, 79000, Note_off_c, 1, 64, 0
2, 79000, Note_off_c, 1, 69, 0
2, 79040, Note_on_c, 1, 45, 127
2, 79040, Note_on_c, 1, 57, 127
2, 79040, Note_on_c, 1, 72, 127
2, 79040, Note_on_c, 1, 77, 127
2, 79040, Note_on_c, 1, 84, 127
2, 79200, Note_off_c, 1, 45, 0
2, 79200, Note_off_c, 1, 57, 0
2, 79200, Note_off_c, 1, 72, 0
2, 79200, Note_off_c, 1, 77, 0
2, 79200, Note_off_c, 1, 84, 0
2, 79240, Note_on_c, 1, 45, 127
2, 79240, Note_on_c, 1, 57, 127
2, 79240, Note_on_c, 1, 72, 127
2, 79240, Note_on_c, 1, 77, 127
2, 79240, Note_on_c, 1, 84, 127
2, 79400, Note_off_c, 1, 45, 0
2, 79400, Note_off_c, 1, 57, 0
2, 79400, Note_off_c, 1, 72, 0
2, 79400, Note_off_c, 1, 77, 0
2, 79400, Note_off_c, 1, 84, 0
2, 79440, Note_on_c, 1, 45, 127
2, 79440, Note_on_c, 1, 57, 127
2, 79440, Note_on_c, 1, 76, 127
2, 79440, Note_on_c, 1, 88, 127
2, 79600, Note_off_c, 1, 45, 0
2, 79600, Note_off_c, 1, 57, 0
2, 79600, Note_off_c, 1, 76, 0
2, 79600, Note_off_c, 1, 88, 0
2, 79640, Note_on_c, 1, 39, 127
2, 79640, Note_on_c, 1, 46, 127
2, 79640, Note_on_c, 1, 51, 127
2, 79640, Note_on_c, 1, 66, 127
2, 79640, Note_on_c, 1, 70, 127
2, 79640, Note_on_c, 1, 75, 127
2, 79640, Note_on_c, 1, 78, 127
2, 79960, Note_off_c, 1, 39, 0
2, 79960, Note_off_c, 1, 46, 0
2, 79960, Note_off_c, 1, 51, 0
2, 79960, Note_off_c, 1, 66, 0
2, 79960, Note_off_c, 1, 70, 0
2, 79960, Note_off_c, 1, 75, 0
2, 79960, Note_off_c, 1, 78, 0
2, 80040, Note_on_c, 1, 39, 127
2, 80040, Note_on_c, 1, 46, 127
2, 80040, Note_on_c, 1, 51, 127
2, 80040, Note_on_c, 1, 66, 127
2, 80040, Note_on_c, 1, 70, 127
2, 80040, Note_on_c, 1, 75, 127
2, 80040, Note_on_c, 1, 78, 127
2, 80360, Note_off_c, 1, 39, 0
2, 80360, Note_off_c, 1, 46, 0
2, 80360, Note_off_c, 1, 51, 0
2, 80360, Note_off_c, 1, 66, 0
2, 80360, Note_off_c, 1, 70, 0
2, 80360, Note_off_c, 1, 75, 0
2, 80360, Note_off_c, 1, 78, 0
2, 80440, Note_on_c, 1, 39, 127
2, 80440, Note_on_c, 1, 46, 127
2, 80440, Note_on_c, 1, 51, 127
2, 80440, Note_on_c, 1, 66, 127
2, 80440, Note_on_c, 1, 70, 127
2, 80440, Note_on_c, 1, 75, 127
2, 80440, Note_on_c, 1, 78, 127
2, 80760, Note_off_c, 1, 39, 0
2, 80760, Note_off_c, 1, 46, 0
2, 80760, Note_off_c, 1, 51, 0
2, 80760, Note_off_c, 1, 66, 0
2, 80760, Note_off_c, 1, 70, 0
2, 80760, Note_off_c, 1, 75, 0
2, 80760, Note_off_c, 1, 78, 0
2, 80880, Note_on_c, 1, 39, 127
2, 80880, Note_on_c, 1, 46, 127
2, 80880, Note_on_c, 1, 51, 127
2, 80880, Note_on_c, 1, 66, 127
2, 80880, Note_on_c, 1, 70, 127
2, 80880, Note_on_c, 1, 75, 127
2, 80880, Note_on_c, 1, 78, 127
2, 81160, Note_off_c, 1, 39, 0
2, 81160, Note_off_c, 1, 46, 0
2, 81160, Note_off_c, 1, 51, 0
2, 81160, Note_off_c, 1, 66, 0
2, 81160, Note_off_c, 1, 70, 0
2, 81160, Note_off_c, 1, 75, 0
2, 81160, Note_off_c, 1, 78, 0
2, 81280, Note_on_c, 1, 39, 127
2, 81280, Note_on_c, 1, 46, 127
2, 81280, Note_on_c, 1, 51, 127
2, 81280, Note_on_c, 1, 66, 127
2, 81280, Note_on_c, 1, 70, 127
2, 81280, Note_on_c, 1, 75, 127
2, 81280, Note_on_c, 1, 78, 127
2, 82000, Note_off_c, 1, 39, 0
2, 82000, Note_off_c, 1, 46, 0
2, 82000, Note_off_c, 1, 51, 0
2, 82000, Note_off_c, 1, 66, 0
2, 82000, Note_off_c, 1, 70, 0
2, 82000, Note_off_c, 1, 75, 0
2, 82000, Note_off_c, 1, 78, 0
2, 82080, Note_on_c, 1, 39, 127
2, 82080, Note_on_c, 1, 46, 127
2, 82080, Note_on_c, 1, 51, 127
2, 82080, Note_on_c, 1, 66, 127
2, 82080, Note_on_c, 1, 70, 127
2, 82080, Note_on_c, 1, 75, 127
2, 82080, Note_on_c, 1, 78, 127
2, 82400, Note_off_c, 1, 39, 0
2, 82400, Note_off_c, 1, 46, 0
2, 82400, Note_off_c, 1, 51, 0
2, 82400, Note_off_c, 1, 66, 0
2, 82400, Note_off_c, 1, 70, 0
2, 82400, Note_off_c, 1, 75, 0
2, 82400, Note_off_c, 1, 78, 0
2, 82440, Note_on_c, 1, 39, 127
2, 82440, Note_on_c, 1, 51, 127
2, 82440, Note_on_c, 1, 58, 127
2, 82440, Note_on_c, 1, 63, 127
2, 82440, Note_on_c, 1, 66, 127
2, 82600, Note_off_c, 1, 39, 0
2, 82600, Note_off_c, 1, 51, 0
2, 82600, Note_off_c, 1, 58, 0
2, 82600, Note_off_c, 1, 63, 0
2, 82600, Note_off_c, 1, 66, 0
2, 82840, Note_on_c, 1, 37, 127
2, 82840, Note_on_c, 1, 49, 127
2, 82840, Note_on_c, 1, 68, 127
2, 82840, Note_on_c, 1, 73, 127
2, 82840, Note_on_c, 1, 77, 127
2, 82840, Note_on_c, 1, 80, 127
2, 82880, Note_off_c, 1, 77, 0
2, 82880, Note_off_c, 1, 80, 0
2, 82960, Note_off_c, 1, 37, 0
2, 82960, Note_off_c, 1, 49, 0
2, 82960, Note_off_c, 1, 68, 0
2, 82960, Note_off_c, 1, 73, 0
2, 83000, Note_on_c, 1, 37, 127
2, 83000, Note_on_c, 1, 49, 127
2, 83000, Note_on_c, 1, 68, 127
2, 83000, Note_on_c, 1, 73, 127
2, 83640, Note_off_c, 1, 37, 0
2, 83640, Note_off_c, 1, 49, 0
2, 83640, Note_off_c, 1, 68, 0
2, 83640, Note_off_c, 1, 73, 0
2, 83680, Note_on_c, 1, 32, 127
2, 83680, Note_on_c, 1, 44, 127
2, 83680, Note_on_c, 1, 59, 127
2, 83680, Note_on_c, 1, 68, 127
2, 83840, Note_off_c, 1, 59, 0
2, 83840, Note_on_c, 1, 63, 127
2, 83840, Note_off_c, 1, 68, 0
2, 83880, Note_on_c, 1, 59, 127
2, 83880, Note_off_c, 1, 63, 0
2, 83880, Note_on_c, 1, 68, 127
2, 84040, Note_off_c, 1, 59, 0
2, 84040, Note_off_c, 1, 68, 0
2, 84080, Note_on_c, 1, 68, 127
2, 84080, Note_on_c, 1, 80, 127
2, 84440, Note_off_c, 1, 32, 0
2, 84440, Note_off_c, 1, 44, 0
2, 84440, Note_off_c, 1, 68, 0
2, 84440, Note_off_c, 1, 80, 0
2, 84480, Note_on_c, 1, 46, 127
2, 84480, Note_on_c, 1, 56, 127
2, 84480, Note_on_c, 1, 58, 127
2, 84480, Note_on_c, 1, 73, 127
2, 84480, Note_on_c, 1, 80, 127
2, 84480, Note_on_c, 1, 85, 127
2, 84640, Note_off_c, 1, 46, 0
2, 84640, Note_off_c, 1, 58, 0
2, 84640, Note_off_c, 1, 73, 0
2, 84640, Note_off_c, 1, 80, 0
2, 84640, Note_off_c, 1, 85, 0
2, 84680, Note_on_c, 1, 48, 127
2, 84680, Note_on_c, 1, 60, 127
2, 84680, Note_on_c, 1, 75, 127
2, 84680, Note_on_c, 1, 80, 127
2, 84680, Note_on_c, 1, 87, 127
2, 84840, Note_off_c, 1, 48, 0
2, 84840, Note_off_c, 1, 56, 0
2, 84840, Note_off_c, 1, 60, 0
2, 84840, Note_off_c, 1, 75, 0
2, 84840, Note_off_c, 1, 80, 0
2, 84840, Note_off_c, 1, 87, 0
2, 84880, Note_on_c, 1, 44, 127
2, 84880, Note_on_c, 1, 56, 127
2, 84880, Note_on_c, 1, 80, 127
2, 84880, Note_on_c, 1, 84, 127
2, 84920, Note_off_c, 1, 80, 0
2, 84920, Note_off_c, 1, 84, 0
2, 85000, Note_off_c, 1, 44, 0
2, 85000, Note_off_c, 1, 56, 0
2, 85040, Note_on_c, 1, 44, 127
2, 85040, Note_on_c, 1, 56, 127
2, 85120, Note_off_c, 1, 44, 0
2, 85120, Note_on_c, 1, 47, 127
2, 85120, Note_off_c, 1, 56, 0
2, 85120, Note_on_c, 1, 59, 127
2, 85120, Note_on_c, 1, 68, 127
2, 85120, Note_on_c, 1, 77, 127
2, 85120, Note_on_c, 1, 80, 127
2, 85120, Note_on_c, 1, 85, 127
2, 85120, Note_on_c, 1, 89, 127
2, 85280, Note_off_c, 1, 47, 0
2, 85280, Note_off_c, 1, 59, 0
2, 85280, Note_off_c, 1, 68, 0
2, 85280, Note_off_c, 1, 77, 0
2, 85280, Note_off_c, 1, 80, 0
2, 85280, Note_off_c, 1, 85, 0
2, 85280, Note_off_c, 1, 89, 0
2, 85320, Note_on_c, 1, 39, 127
2, 85320, Note_on_c, 1, 46, 127
2, 85320, Note_on_c, 1, 51, 127
2, 85320, Note_on_c, 1, 55, 127
2, 85320, Note_on_c, 1, 58, 127
2, 85320, Note_on_c, 1, 77, 127
2, 85320, Note_on_c, 1, 89, 127
2, 85360, Note_on_c, 1, 74, 127
2, 85360, Note_off_c, 1, 77, 0
2, 85360, Note_on_c, 1, 86, 127
2, 85360, Note_off_c, 1, 89, 0
2, 85400, Note_off_c, 1, 74, 0
2, 85400, Note_off_c, 1, 86, 0
2, 85680, Note_off_c, 1, 39, 0
2, 85680, Note_off_c, 1, 46, 0
2, 85680, Note_off_c, 1, 51, 0
2, 85680, Note_off_c, 1, 55, 0
2, 85680, Note_off_c, 1, 58, 0
2, 85720, Note_on_c, 1, 45, 127
2, 85720, Note_on_c, 1, 57, 127
2, 85720, Note_on_c, 1, 80, 127
2, 85720, Note_on_c, 1, 85, 127
2, 85720, Note_on_c, 1, 92, 127
2, 85880, Note_off_c, 1, 45, 0
2, 85880, Note_off_c, 1, 57, 0
2, 85880, Note_off_c, 1, 80, 0
2, 85880, Note_off_c, 1, 85, 0
2, 85880, Note_off_c, 1, 92, 0
2, 85920, Note_on_c, 1, 45, 127
2, 85920, Note_on_c, 1, 57, 127
2, 85920, Note_on_c, 1, 80, 127
2, 85920, Note_on_c, 1, 85, 127
2, 85920, Note_on_c, 1, 92, 127
2, 86080, Note_off_c, 1, 45, 0
2, 86080, Note_off_c, 1, 57, 0
2, 86080, Note_off_c, 1, 80, 0
2, 86080, Note_off_c, 1, 85, 0
2, 86080, Note_off_c, 1, 92, 0
2, 86120, Note_on_c, 1, 45, 127
2, 86120, Note_on_c, 1, 57, 127
2, 86120, Note_on_c, 1, 80, 127
2, 86120, Note_on_c, 1, 85, 127
2, 86120, Note_on_c, 1, 92, 127
2, 86280, Note_off_c, 1, 45, 0
2, 86280, Note_off_c, 1, 57, 0
2, 86280, Note_off_c, 1, 80, 0
2, 86280, Note_off_c, 1, 85, 0
2, 86280, Note_off_c, 1, 92, 0
2, 86320, Note_on_c, 1, 51, 127
2, 86320, Note_on_c, 1, 63, 127
2, 86320, Note_on_c, 1, 78, 127
2, 86320, Note_on_c, 1, 85, 127
2, 86320, Note_on_c, 1, 90, 127
2, 86480, Note_off_c, 1, 51, 0
2, 86480, Note_off_c, 1, 63, 0
2, 86480, Note_off_c, 1, 78, 0
2, 86480, Note_off_c, 1, 85, 0
2, 86480, Note_off_c, 1, 90, 0
2, 86520, Note_on_c, 1, 29, 127
2, 86520, Note_on_c, 1, 41, 127
2, 86520, Note_on_c, 1, 84, 127
2, 86520, Note_on_c, 1, 92, 127
2, 86520, Note_on_c, 1, 96, 127
2, 86640, Note_off_c, 1, 29, 0
2, 86640, Note_off_c, 1, 41, 0
2, 86680, Note_off_c, 1, 84, 0
2, 86680, Note_off_c, 1, 92, 0
2, 86680, Note_off_c, 1, 96, 0
2, 86720, Note_on_c, 1, 46, 127
2, 86720, Note_on_c, 1, 58, 127
2, 86720, Note_on_c, 1, 84, 127
2, 86720, Note_on_c, 1, 88, 127
2, 86720, Note_on_c, 1, 96, 127
2, 86880, Note_off_c, 1, 46, 0
2, 86880, Note_off_c, 1, 58, 0
2, 86880, Note_off_c, 1, 84, 0
2, 86880, Note_off_c, 1, 88, 0
2, 86880, Note_off_c, 1, 96, 0
2, 86960, Note_on_c, 1, 46, 127
2, 86960, Note_on_c, 1, 58, 127
2, 86960, Note_on_c, 1, 84, 127
2, 86960, Note_on_c, 1, 88, 127
2, 86960, Note_on_c, 1, 96, 127
2, 87120, Note_off_c, 1, 46, 0
2, 87120, Note_off_c, 1, 58, 0
2, 87120, Note_off_c, 1, 84, 0
2, 87120, Note_off_c, 1, 88, 0
2, 87120, Note_off_c, 1, 96, 0
2, 87160, Note_on_c, 1, 46, 127
2, 87160, Note_on_c, 1, 58, 127
2, 87160, Note_on_c, 1, 84, 127
2, 87160, Note_on_c, 1, 88, 127
2, 87160, Note_on_c, 1, 96, 127
2, 87320, Note_off_c, 1, 46, 0
2, 87320, Note_off_c, 1, 58, 0
2, 87320, Note_off_c, 1, 84, 0
2, 87320, Note_off_c, 1, 88, 0
2, 87320, Note_off_c, 1, 96, 0
2, 87360, Note_on_c, 1, 33, 127
2, 87360, Note_on_c, 1, 45, 127
2, 87360, Note_on_c, 1, 69, 127
2, 87360, Note_on_c, 1, 74, 127
2, 87360, Note_on_c, 1, 78, 127
2, 87360, Note_on_c, 1, 81, 127
2, 87480, Note_off_c, 1, 33, 0
2, 87480, Note_off_c, 1, 45, 0
2, 87520, Note_off_c, 1, 69, 0
2, 87520, Note_off_c, 1, 74, 0
2, 87520, Note_off_c, 1, 78, 0
2, 87520, Note_off_c, 1, 81, 0
2, 87560, Note_on_c, 1, 38, 127
2, 87560, Note_on_c, 1, 44, 127
2, 87560, Note_on_c, 1, 48, 127
2, 87560, Note_on_c, 1, 60, 127
2, 87560, Note_on_c, 1, 66, 127
2, 87560, Note_on_c, 1, 68, 127
2, 87720, Note_off_c, 1, 38, 0
2, 87720, Note_off_c, 1, 44, 0
2, 87720, Note_off_c, 1, 48, 0
2, 87720, Note_off_c, 1, 60, 0
2, 87720, Note_off_c, 1, 66, 0
2, 87720, Note_off_c, 1, 68, 0
2, 87760, Note_on_c, 1, 38, 127
2, 87760, Note_on_c, 1, 42, 127
2, 87760, Note_on_c, 1, 50, 127
2, 87760, Note_on_c, 1, 78, 127
2, 87760, Note_on_c, 1, 81, 127
2, 87760, Note_on_c, 1, 86, 127
2, 87760, Note_on_c, 1, 90, 127
2, 87920, Note_off_c, 1, 38, 0
2, 87920, Note_off_c, 1, 42, 0
2, 87920, Note_off_c, 1, 50, 0
2, 87920, Note_off_c, 1, 78, 0
2, 87920, Note_off_c, 1, 81, 0
2, 87920, Note_off_c, 1, 86, 0
2, 87920, Note_off_c, 1, 90, 0
2, 87960, Note_on_c, 1, 38, 127
2, 87960, Note_on_c, 1, 42, 127
2, 87960, Note_on_c, 1, 50, 127
2, 87960, Note_on_c, 1, 74, 127
2, 87960, Note_on_c, 1, 86, 127
2, 88120, Note_off_c, 1, 38, 0
2, 88120, Note_off_c, 1, 42, 0
2, 88120, Note_off_c, 1, 50, 0
2, 88120, Note_off_c, 1, 74, 0
2, 88120, Note_off_c, 1, 86, 0
2, 88160, Note_on_c, 1, 38, 127
2, 88160, Note_on_c, 1, 42, 127
2, 88160, Note_on_c, 1, 50, 127
2, 88160, Note_on_c, 1, 74, 127
2, 88160, Note_on_c, 1, 86, 127
2, 88320, Note_off_c, 1, 38, 0
2, 88320, Note_off_c, 1, 42, 0
2, 88320, Note_off_c, 1, 50, 0
2, 88320, Note_off_c, 1, 74, 0
2, 88320, Note_off_c, 1, 86, 0
2, 88360, Note_on_c, 1, 48, 127
2, 88360, Note_on_c, 1, 52, 127
2, 88360, Note_on_c, 1, 57, 127
2, 88360, Note_on_c, 1, 60, 127
2, 88360, Note_on_c, 1, 72, 127
2, 88360, Note_on_c, 1, 76, 127
2, 88360, Note_on_c, 1, 81, 127
2, 88360, Note_on_c, 1, 84, 127
2, 88720, Note_off_c, 1, 48, 0
2, 88720, Note_off_c, 1, 52, 0
2, 88720, Note_off_c, 1, 57, 0
2, 88720, Note_off_c, 1, 60, 0
2, 88720, Note_off_c, 1, 72, 0
2, 88720, Note_off_c, 1, 76, 0
2, 88720, Note_off_c, 1, 81, 0
2, 88720, Note_off_c, 1, 84, 0
2, 88760, Note_on_c, 1, 49, 127
2, 88760, Note_on_c, 1, 54, 127
2, 88760, Note_on_c, 1, 56, 127
2, 88760, Note_on_c, 1, 63, 127
2, 88760, Note_on_c, 1, 68, 127
2, 88920, Note_off_c, 1, 49, 0
2, 88920, Note_off_c, 1, 54, 0
2, 88920, Note_off_c, 1, 56, 0
2, 88920, Note_off_c, 1, 63, 0
2, 88920, Note_off_c, 1, 68, 0
2, 88960, Note_on_c, 1, 49, 127
2, 88960, Note_on_c, 1, 54, 127
2, 88960, Note_on_c, 1, 56, 127
2, 88960, Note_on_c, 1, 63, 127
2, 88960, Note_on_c, 1, 68, 127
2, 89160, Note_off_c, 1, 49, 0
2, 89160, Note_off_c, 1, 54, 0
2, 89160, Note_off_c, 1, 56, 0
2, 89160, Note_off_c, 1, 63, 0
2, 89160, Note_off_c, 1, 68, 0
2, 89200, Note_on_c, 1, 49, 127
2, 89200, Note_on_c, 1, 63, 127
2, 89200, Note_on_c, 1, 66, 127
2, 89200, Note_on_c, 1, 68, 127
2, 89360, Note_off_c, 1, 49, 0
2, 89360, Note_off_c, 1, 63, 0
2, 89360, Note_off_c, 1, 66, 0
2, 89360, Note_off_c, 1, 68, 0
2, 89400, Note_on_c, 1, 49, 127
2, 89400, Note_on_c, 1, 61, 127
2, 89400, Note_on_c, 1, 65, 127
2, 89400, Note_on_c, 1, 68, 127
2, 89560, Note_off_c, 1, 49, 0
2, 89560, Note_off_c, 1, 61, 0
2, 89560, Note_off_c, 1, 65, 0
2, 89560, Note_off_c, 1, 68, 0
2, 89600, Note_on_c, 1, 44, 127
2, 89600, Note_on_c, 1, 51, 127
2, 89600, Note_on_c, 1, 56, 127
2, 89600, Note_on_c, 1, 60, 127
2, 89600, Note_on_c, 1, 68, 127
2, 89600, Note_on_c, 1, 72, 127
2, 89760, Note_off_c, 1, 44, 0
2, 89760, Note_off_c, 1, 51, 0
2, 89760, Note_off_c, 1, 56, 0
2, 89760, Note_off_c, 1, 60, 0
2, 89760, Note_off_c, 1, 68, 0
2, 89760, Note_off_c, 1, 72, 0
2, 89840, Note_on_c, 1, 41, 127
2, 89840, Note_on_c, 1, 49, 127
2, 89840, Note_on_c, 1, 53, 127
2, 89840, Note_on_c, 1, 56, 127
2, 89840, Note_on_c, 1, 61, 127
2, 89840, Note_on_c, 1, 68, 127
2, 89960, Note_off_c, 1, 41, 0
2, 89960, Note_off_c, 1, 49, 0
2, 89960, Note_off_c, 1, 53, 0
2, 89960, Note_off_c, 1, 56, 0
2, 89960, Note_off_c, 1, 61, 0
2, 89960, Note_off_c, 1, 68, 0
2, 90000, Note_on_c, 1, 56, 127
2, 90000, Note_on_c, 1, 61, 127
2, 90000, Note_on_c, 1, 65, 127
2, 90000, Note_on_c, 1, 68, 127
2, 90000, Note_on_c, 1, 77, 127
2, 90360, Note_off_c, 1, 56, 0
2, 90360, Note_off_c, 1, 61, 0
2, 90360, Note_off_c, 1, 65, 0
2, 90360, Note_off_c, 1, 68, 0
2, 90360, Note_off_c, 1, 77, 0
2, 90400, Note_on_c, 1, 56, 127
2, 90400, Note_on_c, 1, 61, 127
2, 90400, Note_on_c, 1, 65, 127
2, 90400, Note_on_c, 1, 68, 127
2, 90400, Note_on_c, 1, 77, 127
2, 90760, Note_off_c, 1, 56, 0
2, 90760, Note_off_c, 1, 61, 0
2, 90760, Note_off_c, 1, 65, 0
2, 90760, Note_off_c, 1, 68, 0
2, 90760, Note_off_c, 1, 77, 0
2, 90800, Note_on_c, 1, 56, 127
2, 90800, Note_on_c, 1, 61, 127
2, 90800, Note_on_c, 1, 65, 127
2, 90800, Note_on_c, 1, 68, 127
2, 90800, Note_on_c, 1, 77, 127
2, 90960, Note_off_c, 1, 56, 0
2, 90960, Note_off_c, 1, 61, 0
2, 90960, Note_off_c, 1, 65, 0
2, 90960, Note_off_c, 1, 68, 0
2, 90960, Note_off_c, 1, 77, 0
2, 91040, Note_on_c, 1, 56, 127
2, 91040, Note_on_c, 1, 61, 127
2, 91040, Note_on_c, 1, 65, 127
2, 91040, Note_on_c, 1, 68, 127
2, 91040, Note_on_c, 1, 77, 127
2, 91200, Note_off_c, 1, 56, 0
2, 91200, Note_off_c, 1, 61, 0
2, 91200, Note_off_c, 1, 65, 0
2, 91200, Note_off_c, 1, 68, 0
2, 91200, Note_off_c, 1, 77, 0
2, 91240, Note_on_c, 1, 34, 127
2, 91240, Note_on_c, 1, 46, 127
2, 91240, Note_on_c, 1, 65, 127
2, 91240, Note_on_c, 1, 73, 127
2, 91240, Note_on_c, 1, 77, 127
2, 91600, Note_off_c, 1, 34, 0
2, 91600, Note_off_c, 1, 46, 0
2, 91600, Note_off_c, 1, 65, 0
2, 91600, Note_off_c, 1, 77, 0
2, 91640, Note_on_c, 1, 49, 127
2, 91640, Note_on_c, 1, 53, 127
2, 91640, Note_on_c, 1, 56, 127
2, 91640, Note_on_c, 1, 61, 127
2, 91640, Note_on_c, 1, 68, 127
2, 91800, Note_off_c, 1, 49, 0
2, 91800, Note_off_c, 1, 53, 0
2, 91800, Note_off_c, 1, 56, 0
2, 91800, Note_off_c, 1, 61, 0
2, 91800, Note_off_c, 1, 68, 0
2, 91800, Note_off_c, 1, 73, 0
2, 91840, Note_on_c, 1, 48, 127
2, 91840, Note_on_c, 1, 51, 127
2, 91840, Note_on_c, 1, 68, 127
2, 91960, Note_on_c, 1, 60, 127
2, 92000, Note_off_c, 1, 48, 0
2, 92000, Note_off_c, 1, 51, 0
2, 92000, Note_off_c, 1, 60, 0
2, 92000, Note_off_c, 1, 68, 0
2, 92040, Note_on_c, 1, 49, 127
2, 92040, Note_on_c, 1, 56, 127
2, 92040, Note_on_c, 1, 61, 127
2, 92040, Note_on_c, 1, 65, 127
2, 92040, Note_on_c, 1, 68, 127
2, 92040, Note_on_c, 1, 77, 127
2, 92800, Note_off_c, 1, 49, 0
2, 92800, Note_off_c, 1, 56, 0
2, 92800, Note_off_c, 1, 61, 0
2, 92800, Note_off_c, 1, 65, 0
2, 92800, Note_off_c, 1, 68, 0
2, 92800, Note_off_c, 1, 77, 0
2, 92840, Note_on_c, 1, 51, 127
2, 92840, Note_on_c, 1, 66, 127
2, 92840, Note_on_c, 1, 75, 127
2, 93200, Note_off_c, 1, 51, 0
2, 93200, Note_off_c, 1, 66, 0
2, 93200, Note_off_c, 1, 75, 0
2, 93280, Note_on_c, 1, 39, 127
2, 93280, Note_on_c, 1, 51, 127
2, 93280, Note_on_c, 1, 66, 127
2, 93280, Note_on_c, 1, 73, 127
2, 93280, Note_on_c, 1, 77, 127
2, 93640, Note_off_c, 1, 39, 0
2, 93640, Note_off_c, 1, 51, 0
2, 93640, Note_off_c, 1, 66, 0
2, 93640, Note_off_c, 1, 73, 0
2, 93640, Note_off_c, 1, 77, 0
2, 93680, Note_on_c, 1, 36, 127
2, 93680, Note_on_c, 1, 48, 127
2, 93680, Note_on_c, 1, 67, 127
2, 93680, Note_on_c, 1, 73, 127
2, 93680, Note_on_c, 1, 75, 127
2, 94040, Note_off_c, 1, 36, 0
2, 94040, Note_off_c, 1, 48, 0
2, 94040, Note_off_c, 1, 67, 0
2, 94040, Note_off_c, 1, 73, 0
2, 94040, Note_off_c, 1, 75, 0
2, 94080, Note_on_c, 1, 41, 127
2, 94080, Note_on_c, 1, 53, 127
2, 94080, Note_on_c, 1, 68, 127
2, 94080, Note_on_c, 1, 72, 127
2, 94080, Note_on_c, 1, 75, 127
2, 94280, Note_off_c, 1, 68, 0
2, 94280, Note_on_c, 1, 69, 127
2, 94440, Note_off_c, 1, 41, 0
2, 94440, Note_off_c, 1, 53, 0
2, 94440, Note_off_c, 1, 69, 0
2, 94440, Note_off_c, 1, 72, 0
2, 94440, Note_off_c, 1, 75, 0
2, 94480, Note_on_c, 1, 39, 127
2, 94480, Note_on_c, 1, 51, 127
2, 94480, Note_on_c, 1, 70, 127
2, 94480, Note_on_c, 1, 75, 127
2, 94480, Note_on_c, 1, 78, 127
2, 94480, Note_on_c, 1, 82, 127
2, 94840, Note_off_c, 1, 39, 0
2, 94840, Note_off_c, 1, 51, 0
2, 94840, Note_off_c, 1, 70, 0
2, 94840, Note_off_c, 1, 75, 0
2, 94840, Note_off_c, 1, 78, 0
2, 94840, Note_off_c, 1, 82, 0
2, 94880, Note_on_c, 1, 58, 127
2, 94880, Note_on_c, 1, 64, 127
2, 94880, Note_on_c, 1, 76, 127
2, 94880, Note_on_c, 1, 88, 127
2, 95040, Note_off_c, 1, 64, 0
2, 95040, Note_off_c, 1, 76, 0
2, 95040, Note_off_c, 1, 88, 0
2, 95080, Note_on_c, 1, 65, 127
2, 95080, Note_on_c, 1, 70, 127
2, 95080, Note_on_c, 1, 77, 127
2, 95240, Note_off_c, 1, 58, 0
2, 95240, Note_off_c, 1, 65, 0
2, 95240, Note_off_c, 1, 70, 0
2, 95240, Note_off_c, 1, 77, 0
2, 95280, Note_on_c, 1, 42, 127
2, 95280, Note_on_c, 1, 83, 127
2, 95280, Note_on_c, 1, 87, 127
2, 95280, Note_on_c, 1, 90, 127
2, 95280, Note_on_c, 1, 95, 127
2, 95360, Note_off_c, 1, 42, 0
2, 95400, Note_off_c, 1, 83, 0
2, 95400, Note_off_c, 1, 87, 0
2, 95400, Note_off_c, 1, 90, 0
2, 95400, Note_off_c, 1, 95, 0
2, 95440, Note_on_c, 1, 42, 127
2, 95440, Note_on_c, 1, 83, 127
2, 95440, Note_on_c, 1, 87, 127
2, 95440, Note_on_c, 1, 90, 127
2, 95440, Note_on_c, 1, 95, 127
2, 95480, Note_off_c, 1, 42, 0
2, 95520, Note_on_c, 1, 47, 127
2, 95680, Note_off_c, 1, 47, 0
2, 95680, Note_off_c, 1, 83, 0
2, 95680, Note_off_c, 1, 87, 0
2, 95680, Note_off_c, 1, 90, 0
2, 95680, Note_off_c, 1, 95, 0
2, 95720, Note_on_c, 1, 47, 127
2, 95720, Note_on_c, 1, 59, 127
2, 95720, Note_on_c, 1, 78, 127
2, 95720, Note_on_c, 1, 83, 127
2, 95720, Note_on_c, 1, 87, 127
2, 95720, Note_on_c, 1, 90, 127
2, 95880, Note_off_c, 1, 47, 0
2, 95880, Note_off_c, 1, 59, 0
2, 95880, Note_off_c, 1, 78, 0
2, 95880, Note_off_c, 1, 83, 0
2, 95880, Note_off_c, 1, 87, 0
2, 95880, Note_off_c, 1, 90, 0
2, 95920, Note_on_c, 1, 39, 127
2, 95920, Note_on_c, 1, 51, 127
2, 95920, Note_on_c, 1, 59, 127
2, 95920, Note_on_c, 1, 66, 127
2, 95920, Note_on_c, 1, 71, 127
2, 96080, Note_off_c, 1, 39, 0
2, 96080, Note_off_c, 1, 51, 0
2, 96080, Note_off_c, 1, 59, 0
2, 96080, Note_off_c, 1, 66, 0
2, 96080, Note_off_c, 1, 71, 0
2, 96120, Note_on_c, 1, 39, 127
2, 96120, Note_on_c, 1, 51, 127
2, 96120, Note_on_c, 1, 66, 127
2, 96120, Note_on_c, 1, 70, 127
2, 96120, Note_on_c, 1, 78, 127
2, 96280, Note_off_c, 1, 78, 0
2, 96320, Note_on_c, 1, 73, 127
2, 96480, Note_off_c, 1, 39, 0
2, 96480, Note_off_c, 1, 51, 0
2, 96480, Note_off_c, 1, 66, 0
2, 96480, Note_off_c, 1, 70, 0
2, 96480, Note_off_c, 1, 73, 0
2, 96520, Note_on_c, 1, 32, 127
2, 96520, Note_on_c, 1, 44, 127
2, 96520, Note_on_c, 1, 70, 127
2, 96520, Note_on_c, 1, 73, 127
2, 96680, Note_off_c, 1, 70, 0
2, 96720, Note_on_c, 1, 68, 127
2, 96880, Note_off_c, 1, 32, 0
2, 96880, Note_off_c, 1, 44, 0
2, 96880, Note_off_c, 1, 68, 0
2, 96880, Note_off_c, 1, 73, 0
2, 96920, Note_on_c, 1, 44, 127
2, 96920, Note_on_c, 1, 56, 127
2, 96920, Note_on_c, 1, 63, 127
2, 96920, Note_on_c, 1, 71, 127
2, 97040, Note_off_c, 1, 63, 0
2, 97120, Note_on_c, 1, 59, 127
2, 97280, Note_off_c, 1, 44, 0
2, 97280, Note_off_c, 1, 56, 0
2, 97280, Note_off_c, 1, 59, 0
2, 97280, Note_off_c, 1, 71, 0
2, 97320, Note_on_c, 1, 47, 127
2, 97320, Note_on_c, 1, 54, 127
2, 97320, Note_on_c, 1, 63, 127
2, 97320, Note_on_c, 1, 75, 127
2, 97480, Note_off_c, 1, 47, 0
2, 97480, Note_off_c, 1, 54, 0
2, 97480, Note_off_c, 1, 63, 0
2, 97480, Note_off_c, 1, 75, 0
2, 97520, Note_on_c, 1, 47, 127
2, 97520, Note_on_c, 1, 54, 127
2, 97520, Note_on_c, 1, 63, 127
2, 97520, Note_on_c, 1, 75, 127
2, 97560, Note_off_c, 1, 47, 0
2, 97560, Note_off_c, 1, 63, 0
2, 97560, Note_off_c, 1, 75, 0
2, 97560, Note_on_c, 1, 78, 127
2, 97560, Note_on_c, 1, 90, 127
2, 97560, Note_on_c, 1, 93, 127
2, 97600, Note_on_c, 1, 43, 127
2, 97600, Note_off_c, 1, 54, 0
2, 97600, Note_on_c, 1, 62, 127
2, 97600, Note_on_c, 1, 66, 127
2, 97600, Note_on_c, 1, 71, 127
2, 97600, Note_off_c, 1, 78, 0
2, 97600, Note_off_c, 1, 90, 0
2, 97600, Note_off_c, 1, 93, 0
2, 97640, Note_off_c, 1, 43, 0
2, 97640, Note_on_c, 1, 54, 127
2, 97640, Note_off_c, 1, 62, 0
2, 97640, Note_off_c, 1, 66, 0
2, 97640, Note_off_c, 1, 71, 0
2, 97640, Note_on_c, 1, 78, 127
2, 97640, Note_on_c, 1, 90, 127
2, 97640, Note_on_c, 1, 93, 127
2, 97720, Note_off_c, 1, 54, 0
2, 97720, Note_off_c, 1, 78, 0
2, 97720, Note_off_c, 1, 90, 0
2, 97720, Note_off_c, 1, 93, 0
2, 97760, Note_on_c, 1, 37, 127
2, 97760, Note_on_c, 1, 49, 127
2, 97760, Note_on_c, 1, 59, 127
2, 97760, Note_on_c, 1, 65, 127
2, 97760, Note_on_c, 1, 70, 127
2, 97920, Note_off_c, 1, 37, 0
2, 97920, Note_off_c, 1, 70, 0
2, 97960, Note_off_c, 1, 49, 0
2, 97960, Note_on_c, 1, 51, 127
2, 97960, Note_on_c, 1, 54, 127
2, 97960, Note_on_c, 1, 56, 127
2, 97960, Note_off_c, 1, 59, 0
2, 97960, Note_on_c, 1, 61, 127
2, 97960, Note_off_c, 1, 65, 0
2, 97960, Note_on_c, 1, 68, 127
2, 97960, Note_on_c, 1, 73, 127
2, 98120, Note_off_c, 1, 51, 0
2, 98120, Note_off_c, 1, 54, 0
2, 98120, Note_off_c, 1, 56, 0
2, 98120, Note_off_c, 1, 61, 0
2, 98120, Note_off_c, 1, 68, 0
2, 98120, Note_off_c, 1, 73, 0
2, 98160, Note_on_c, 1, 32, 127
2, 98160, Note_on_c, 1, 44, 127
2, 98160, Note_on_c, 1, 56, 127
2, 98160, Note_on_c, 1, 68, 127
2, 98520, Note_off_c, 1, 32, 0
2, 98520, Note_off_c, 1, 44, 0
2, 98520, Note_off_c, 1, 56, 0
2, 98520, Note_off_c, 1, 68, 0
2, 98560, Note_on_c, 1, 37, 127
2, 98560, Note_on_c, 1, 49, 127
2, 98560, Note_on_c, 1, 59, 127
2, 98560, Note_on_c, 1, 65, 127
2, 98560, Note_on_c, 1, 68, 127
2, 98920, Note_off_c, 1, 37, 0
2, 98920, Note_off_c, 1, 49, 0
2, 98920, Note_off_c, 1, 59, 0
2, 98920, Note_off_c, 1, 65, 0
2, 98920, Note_off_c, 1, 68, 0
2, 98960, Note_on_c, 1, 42, 127
2, 98960, Note_on_c, 1, 49, 127
2, 98960, Note_on_c, 1, 58, 127
2, 98960, Note_on_c, 1, 66, 127
2, 99680, Note_off_c, 1, 42, 0
2, 99680, Note_off_c, 1, 49, 0
2, 99680, Note_off_c, 1, 58, 0
2, 99680, Note_off_c, 1, 66, 0
2, 99720, Note_on_c, 1, 42, 127
2, 99720, Note_on_c, 1, 49, 127
2, 99720, Note_on_c, 1, 58, 127
2, 99720, Note_on_c, 1, 66, 127
2, 99760, Note_off_c, 1, 42, 0
2, 99760, Note_off_c, 1, 49, 0
2, 99760, Note_off_c, 1, 58, 0
2, 99760, Note_off_c, 1, 66, 0
2, 100640, Note_on_c, 1, 57, 127
2, 100640, Note_on_c, 1, 60, 127
2, 100640, Note_on_c, 1, 66, 127
2, 100640, Note_on_c, 1, 78, 127
2, 100640, Note_on_c, 1, 79, 127
2, 100680, Note_off_c, 1, 57, 0
2, 100680, Note_off_c, 1, 60, 0
2, 100680, Note_off_c, 1, 66, 0
2, 100680, Note_on_c, 1, 72, 127
2, 100680, Note_off_c, 1, 78, 0
2, 100680, Note_off_c, 1, 79, 0
2, 100680, Note_on_c, 1, 80, 127
2, 100680, Note_on_c, 1, 87, 127
2, 100760, Note_on_c, 1, 38, 127
2, 100760, Note_on_c, 1, 50, 127
2, 100760, Note_on_c, 1, 54, 127
2, 100760, Note_on_c, 1, 60, 127
2, 100760, Note_on_c, 1, 66, 127
2, 100760, Note_on_c, 1, 69, 127
2, 100760, Note_off_c, 1, 72, 0
2, 100760, Note_off_c, 1, 80, 0
2, 100760, Note_off_c, 1, 87, 0
2, 100800, Note_off_c, 1, 38, 0
2, 100800, Note_off_c, 1, 50, 0
2, 100800, Note_off_c, 1, 54, 0
2, 100800, Note_off_c, 1, 60, 0
2, 100800, Note_off_c, 1, 66, 0
2, 100800, Note_off_c, 1, 69, 0
2, 100840, Note_on_c, 1, 88, 127
2, 100840, Note_on_c, 1, 94, 127
2, 100840, Note_on_c, 1, 97, 127
2, 101000, Note_on_c, 1, 73, 127
2, 101000, Note_off_c, 1, 88, 0
2, 101000, Note_off_c, 1, 94, 0
2, 101000, Note_off_c, 1, 97, 0
2, 101040, Note_on_c, 1, 52, 127
2, 101040, Note_on_c, 1, 56, 127
2, 101040, Note_on_c, 1, 62, 127
2, 101040, Note_off_c, 1, 73, 0
2, 101040, Note_on_c, 1, 75, 127
2, 101200, Note_off_c, 1, 52, 0
2, 101200, Note_off_c, 1, 56, 0
2, 101200, Note_off_c, 1, 62, 0
2, 101200, Note_off_c, 1, 75, 0
2, 101240, Note_on_c, 1, 52, 127
2, 101240, Note_on_c, 1, 56, 127
2, 101240, Note_on_c, 1, 62, 127
2, 101240, Note_on_c, 1, 75, 127
2, 101400, Note_off_c, 1, 52, 0
2, 101400, Note_off_c, 1, 56, 0
2, 101400, Note_off_c, 1, 62, 0
2, 101400, Note_off_c, 1, 75, 0
2, 101440, Note_on_c, 1, 52, 127
2, 101440, Note_on_c, 1, 56, 127
2, 101440, Note_on_c, 1, 62, 127
2, 101440, Note_on_c, 1, 76, 127
2, 101600, Note_off_c, 1, 52, 0
2, 101600, Note_off_c, 1, 56, 0
2, 101600, Note_off_c, 1, 62, 0
2, 101600, Note_on_c, 1, 71, 127
2, 101600, Note_off_c, 1, 76, 0
2, 101640, Note_on_c, 1, 37, 127
2, 101640, Note_on_c, 1, 44, 127
2, 101640, Note_on_c, 1, 49, 127
2, 101640, Note_on_c, 1, 53, 127
2, 101640, Note_on_c, 1, 61, 127
2, 101640, Note_on_c, 1, 65, 127
2, 101640, Note_off_c, 1, 71, 0
2, 102000, Note_off_c, 1, 37, 0
2, 102000, Note_off_c, 1, 44, 0
2, 102000, Note_off_c, 1, 49, 0
2, 102000, Note_off_c, 1, 53, 0
2, 102000, Note_off_c, 1, 61, 0
2, 102000, Note_off_c, 1, 65, 0
2, 102040, Note_on_c, 1, 46, 127
2, 102040, Note_on_c, 1, 53, 127
2, 102040, Note_on_c, 1, 57, 127
2, 102040, Note_on_c, 1, 65, 127
2, 102040, Note_on_c, 1, 75, 127
2, 102120, Note_on_c, 1, 63, 127
2, 102120, Note_off_c, 1, 65, 0
2, 102160, Note_off_c, 1, 63, 0
2, 102160, Note_on_c, 1, 65, 127
2, 102200, Note_off_c, 1, 46, 0
2, 102200, Note_off_c, 1, 53, 0
2, 102200, Note_off_c, 1, 57, 0
2, 102200, Note_off_c, 1, 65, 0
2, 102200, Note_off_c, 1, 75, 0
2, 102240, Note_on_c, 1, 39, 127
2, 102240, Note_on_c, 1, 51, 127
2, 102240, Note_on_c, 1, 80, 127
2, 102240, Note_on_c, 1, 83, 127
2, 102280, Note_off_c, 1, 39, 0
2, 102280, Note_off_c, 1, 51, 0
2, 102280, Note_on_c, 1, 61, 127
2, 102280, Note_on_c, 1, 64, 127
2, 102280, Note_off_c, 1, 80, 0
2, 102280, Note_on_c, 1, 82, 127
2, 102280, Note_off_c, 1, 83, 0
2, 102280, Note_on_c, 1, 85, 127
2, 102320, Note_off_c, 1, 61, 0
2, 102320, Note_off_c, 1, 64, 0
2, 102320, Note_off_c, 1, 82, 0
2, 102320, Note_off_c, 1, 85, 0
2, 102440, Note_on_c, 1, 55, 127
2, 102440, Note_on_c, 1, 58, 127
2, 102440, Note_on_c, 1, 73, 127
2, 102440, Note_on_c, 1, 79, 127
2, 102440, Note_on_c, 1, 85, 127
2, 102480, Note_on_c, 1, 52, 127
2, 102480, Note_off_c, 1, 55, 0
2, 102480, Note_off_c, 1, 58, 0
2, 102480, Note_on_c, 1, 66, 127
2, 102480, Note_on_c, 1, 68, 127
2, 102480, Note_off_c, 1, 73, 0
2, 102480, Note_on_c, 1, 78, 127
2, 102480, Note_off_c, 1, 79, 0
2, 102480, Note_off_c, 1, 85, 0
2, 102640, Note_off_c, 1, 52, 0
2, 102640, Note_off_c, 1, 66, 0
2, 102640, Note_off_c, 1, 68, 0
2, 102640, Note_off_c, 1, 78, 0
2, 102680, Note_on_c, 1, 58, 127
2, 102680, Note_on_c, 1, 67, 127
2, 102680, Note_on_c, 1, 74, 127
2, 102680, Note_on_c, 1, 76, 127
2, 102840, Note_off_c, 1, 58, 0
2, 102840, Note_off_c, 1, 67, 0
2, 102840, Note_off_c, 1, 74, 0
2, 102840, Note_off_c, 1, 76, 0
2, 102880, Note_on_c, 1, 55, 127
2, 102880, Note_on_c, 1, 63, 127
2, 102880, Note_on_c, 1, 79, 127
2, 102880, Note_on_c, 1, 89, 127
2, 102920, Note_off_c, 1, 63, 0
2, 102920, Note_on_c, 1, 67, 127
2, 102920, Note_on_c, 1, 72, 127
2, 102920, Note_on_c, 1, 84, 127
2, 102920, Note_off_c, 1, 89, 0
2, 102960, Note_off_c, 1, 55, 0
2, 102960, Note_on_c, 1, 56, 127
2, 102960, Note_on_c, 1, 58, 127
2, 102960, Note_on_c, 1, 62, 127
2, 102960, Note_on_c, 1, 65, 127
2, 102960, Note_off_c, 1, 67, 0
2, 102960, Note_off_c, 1, 72, 0
2, 102960, Note_off_c, 1, 79, 0
2, 102960, Note_on_c, 1, 82, 127
2, 102960, Note_off_c, 1, 84, 0
2, 102960, Note_on_c, 1, 86, 127
2, 102960, Note_on_c, 1, 89, 127
2, 102960, Note_on_c, 1, 94, 127
2, 103000, Note_on_c, 1, 51, 127
2, 103000, Note_off_c, 1, 56, 0
2, 103000, Note_off_c, 1, 62, 0
2, 103000, Note_on_c, 1, 63, 127
2, 103000, Note_off_c, 1, 65, 0
2, 103000, Note_on_c, 1, 77, 127
2, 103000, Note_off_c, 1, 82, 0
2, 103000, Note_off_c, 1, 86, 0
2, 103000, Note_off_c, 1, 94, 0
2, 103040, Note_off_c, 1, 51, 0
2, 103040, Note_off_c, 1, 58, 0
2, 103040, Note_off_c, 1, 63, 0
2, 103040, Note_off_c, 1, 77, 0
2, 103040, Note_off_c, 1, 89, 0
2, 103080, Note_on_c, 1, 58, 127
2, 103080, Note_on_c, 1, 67, 127
2, 103080, Note_on_c, 1, 70, 127
2, 103080, Note_on_c, 1, 76, 127
2, 103080, Note_on_c, 1, 79, 127
2, 103080, Note_on_c, 1, 88, 127
2, 103240, Note_off_c, 1, 58, 0
2, 103240, Note_off_c, 1, 67, 0
2, 103240, Note_off_c, 1, 70, 0
2, 103240, Note_off_c, 1, 76, 0
2, 103240, Note_off_c, 1, 79, 0
2, 103240, Note_off_c, 1, 88, 0
2, 103280, Note_on_c, 1, 67, 127
2, 103280, Note_on_c, 1, 77, 127
2, 103280, Note_on_c, 1, 81, 127
2, 103280, Note_on_c, 1, 93, 127
2, 103440, Note_off_c, 1, 67, 0
2, 103440, Note_off_c, 1, 77, 0
2, 103440, Note_off_c, 1, 81, 0
2, 103440, Note_off_c, 1, 93, 0
2, 103480, Note_on_c, 1, 33, 127
2, 103480, Note_on_c, 1, 45, 127
2, 103480, Note_on_c, 1, 79, 127
2, 103480, Note_on_c, 1, 81, 127
2, 103480, Note_on_c, 1, 85, 127
2, 103480, Note_on_c, 1, 88, 127
2, 103480, Note_on_c, 1, 93, 127
2, 103640, Note_off_c, 1, 33, 0
2, 103640, Note_off_c, 1, 45, 0
2, 103640, Note_off_c, 1, 79, 0
2, 103640, Note_off_c, 1, 81, 0
2, 103640, Note_off_c, 1, 85, 0
2, 103640, Note_off_c, 1, 88, 0
2, 103640, Note_off_c, 1, 93, 0
2, 103680, Note_on_c, 1, 37, 127
2, 103680, Note_on_c, 1, 49, 127
2, 103680, Note_on_c, 1, 79, 127
2, 103680, Note_on_c, 1, 81, 127
2, 103680, Note_on_c, 1, 85, 127
2, 103680, Note_on_c, 1, 88, 127
2, 103680, Note_on_c, 1, 93, 127
2, 103840, Note_off_c, 1, 37, 0
2, 103840, Note_off_c, 1, 49, 0
2, 103840, Note_off_c, 1, 79, 0
2, 103840, Note_off_c, 1, 81, 0
2, 103840, Note_off_c, 1, 85, 0
2, 103840, Note_off_c, 1, 88, 0
2, 103840, Note_off_c, 1, 93, 0
2, 103920, Note_on_c, 1, 40, 127
2, 103920, Note_on_c, 1, 52, 127
2, 103920, Note_on_c, 1, 79, 127
2, 103920, Note_on_c, 1, 81, 127
2, 103920, Note_on_c, 1, 85, 127
2, 103920, Note_on_c, 1, 88, 127
2, 103920, Note_on_c, 1, 93, 127
2, 104080, Note_off_c, 1, 40, 0
2, 104080, Note_off_c, 1, 52, 0
2, 104080, Note_off_c, 1, 79, 0
2, 104080, Note_off_c, 1, 81, 0
2, 104080, Note_off_c, 1, 85, 0
2, 104080, Note_off_c, 1, 88, 0
2, 104080, Note_off_c, 1, 93, 0
2, 104120, Note_on_c, 1, 45, 127
2, 104120, Note_on_c, 1, 57, 127
2, 104120, Note_on_c, 1, 79, 127
2, 104120, Note_on_c, 1, 81, 127
2, 104120, Note_on_c, 1, 85, 127
2, 104120, Note_on_c, 1, 88, 127
2, 104120, Note_on_c, 1, 93, 127
2, 104280, Note_off_c, 1, 45, 0
2, 104280, Note_off_c, 1, 57, 0
2, 104280, Note_off_c, 1, 79, 0
2, 104280, Note_off_c, 1, 81, 0
2, 104280, Note_off_c, 1, 85, 0
2, 104280, Note_off_c, 1, 88, 0
2, 104280, Note_off_c, 1, 93, 0
2, 104320, Note_on_c, 1, 38, 127
2, 104320, Note_on_c, 1, 50, 127
2, 104320, Note_on_c, 1, 78, 127
2, 104320, Note_on_c, 1, 81, 127
2, 104320, Note_on_c, 1, 86, 127
2, 104320, Note_on_c, 1, 90, 127
2, 104640, Note_off_c, 1, 38, 0
2, 104640, Note_off_c, 1, 50, 0
2, 104640, Note_off_c, 1, 78, 0
2, 104640, Note_off_c, 1, 81, 0
2, 104640, Note_off_c, 1, 86, 0
2, 104640, Note_off_c, 1, 90, 0
2, 104680, Note_on_c, 1, 38, 127
2, 104680, Note_on_c, 1, 50, 127
2, 104680, Note_on_c, 1, 78, 127
2, 104680, Note_on_c, 1, 81, 127
2, 104680, Note_on_c, 1, 86, 127
2, 104680, Note_on_c, 1, 90, 127
2, 104720, Note_off_c, 1, 38, 0
2, 104720, Note_off_c, 1, 50, 0
2, 104720, Note_off_c, 1, 78, 0
2, 104720, Note_off_c, 1, 81, 0
2, 104720, Note_off_c, 1, 86, 0
2, 104720, Note_off_c, 1, 90, 0
2, 104760, Note_on_c, 1, 33, 127
2, 104760, Note_on_c, 1, 40, 127
2, 104760, Note_on_c, 1, 45, 127
2, 104760, Note_on_c, 1, 88, 127
2, 104760, Note_on_c, 1, 93, 127
2, 104760, Note_on_c, 1, 100, 127
2, 104960, Note_off_c, 1, 33, 0
2, 104960, Note_off_c, 1, 40, 0
2, 104960, Note_off_c, 1, 45, 0
2, 104960, Note_off_c, 1, 88, 0
2, 104960, Note_off_c, 1, 93, 0
2, 104960, Note_off_c, 1, 100, 0
2, 105000, Note_on_c, 1, 33, 127
2, 105000, Note_on_c, 1, 40, 127
2, 105000, Note_on_c, 1, 45, 127
2, 105000, Note_on_c, 1, 88, 127
2, 105000, Note_on_c, 1, 93, 127
2, 105000, Note_on_c, 1, 100, 127
2, 105160, Note_off_c, 1, 33, 0
2, 105160, Note_off_c, 1, 40, 0
2, 105160, Note_off_c, 1, 45, 0
2, 105160, Note_off_c, 1, 88, 0
2, 105160, Note_off_c, 1, 93, 0
2, 105160, Note_off_c, 1, 100, 0
2, 105200, Note_on_c, 1, 33, 127
2, 105200, Note_on_c, 1, 40, 127
2, 105200, Note_on_c, 1, 45, 127
2, 105200, Note_on_c, 1, 88, 127
2, 105200, Note_on_c, 1, 93, 127
2, 105200, Note_on_c, 1, 100, 127
2, 105360, Note_off_c, 1, 33, 0
2, 105360, Note_off_c, 1, 40, 0
2, 105360, Note_off_c, 1, 45, 0
2, 105360, Note_off_c, 1, 88, 0
2, 105360, Note_off_c, 1, 93, 0
2, 105360, Note_off_c, 1, 100, 0
2, 105400, Note_on_c, 1, 36, 127
2, 105400, Note_on_c, 1, 40, 127
2, 105400, Note_on_c, 1, 48, 127
2, 105400, Note_on_c, 1, 57, 127
2, 105560, Note_off_c, 1, 36, 0
2, 105560, Note_off_c, 1, 40, 0
2, 105560, Note_off_c, 1, 48, 0
2, 105560, Note_off_c, 1, 57, 0
2, 105600, Note_on_c, 1, 36, 127
2, 105600, Note_on_c, 1, 40, 127
2, 105600, Note_on_c, 1, 48, 127
2, 105600, Note_on_c, 1, 57, 127
2, 105760, Note_off_c, 1, 36, 0
2, 105760, Note_off_c, 1, 40, 0
2, 105760, Note_off_c, 1, 48, 0
2, 105760, Note_off_c, 1, 57, 0
2, 105800, Note_on_c, 1, 33, 127
2, 105800, Note_on_c, 1, 40, 127
2, 105800, Note_on_c, 1, 45, 127
2, 105800, Note_on_c, 1, 59, 127
2, 105960, Note_off_c, 1, 33, 0
2, 105960, Note_off_c, 1, 40, 0
2, 105960, Note_off_c, 1, 45, 0
2, 105960, Note_off_c, 1, 59, 0
2, 106000, Note_on_c, 1, 41, 127
2, 106000, Note_on_c, 1, 45, 127
2, 106000, Note_on_c, 1, 61, 127
2, 106000, Note_on_c, 1, 64, 127
2, 106000, Note_on_c, 1, 67, 127
2, 106000, Note_on_c, 1, 69, 127
2, 106160, Note_off_c, 1, 41, 0
2, 106160, Note_off_c, 1, 45, 0
2, 106160, Note_off_c, 1, 61, 0
2, 106160, Note_off_c, 1, 64, 0
2, 106160, Note_off_c, 1, 67, 0
2, 106160, Note_off_c, 1, 69, 0
2, 106200, Note_on_c, 1, 42, 127
2, 106200, Note_on_c, 1, 63, 127
2, 106200, Note_on_c, 1, 66, 127
2, 106200, Note_on_c, 1, 78, 127
2, 106360, Note_off_c, 1, 42, 0
2, 106360, Note_off_c, 1, 63, 0
2, 106360, Note_off_c, 1, 66, 0
2, 106360, Note_off_c, 1, 78, 0
2, 106400, Note_on_c, 1, 42, 127
2, 106400, Note_on_c, 1, 63, 127
2, 106400, Note_on_c, 1, 66, 127
2, 106400, Note_on_c, 1, 78, 127
2, 106560, Note_off_c, 1, 42, 0
2, 106560, Note_off_c, 1, 63, 0
2, 106560, Note_off_c, 1, 66, 0
2, 106560, Note_off_c, 1, 78, 0
2, 106600, Note_on_c, 1, 42, 127
2, 106600, Note_on_c, 1, 63, 127
2, 106600, Note_on_c, 1, 66, 127
2, 106600, Note_on_c, 1, 78, 127
2, 106760, Note_off_c, 1, 42, 0
2, 106760, Note_off_c, 1, 63, 0
2, 106760, Note_off_c, 1, 66, 0
2, 106760, Note_off_c, 1, 78, 0
2, 106840, Note_on_c, 1, 42, 127
2, 106840, Note_on_c, 1, 63, 127
2, 106840, Note_on_c, 1, 66, 127
2, 106840, Note_on_c, 1, 78, 127
2, 107000, Note_off_c, 1, 42, 0
2, 107000, Note_off_c, 1, 63, 0
2, 107000, Note_off_c, 1, 66, 0
2, 107000, Note_off_c, 1, 78, 0
2, 107040, Note_on_c, 1, 42, 127
2, 107040, Note_on_c, 1, 63, 127
2, 107040, Note_on_c, 1, 66, 127
2, 107040, Note_on_c, 1, 78, 127
2, 107200, Note_off_c, 1, 42, 0
2, 107200, Note_off_c, 1, 63, 0
2, 107200, Note_off_c, 1, 66, 0
2, 107200, Note_off_c, 1, 78, 0
2, 107240, Note_on_c, 1, 42, 127
2, 107240, Note_on_c, 1, 63, 127
2, 107240, Note_on_c, 1, 66, 127
2, 107240, Note_on_c, 1, 78, 127
2, 107400, Note_off_c, 1, 42, 0
2, 107400, Note_off_c, 1, 63, 0
2, 107400, Note_off_c, 1, 66, 0
2, 107400, Note_off_c, 1, 78, 0
2, 107440, Note_on_c, 1, 40, 127
2, 107440, Note_on_c, 1, 64, 127
2, 107440, Note_on_c, 1, 69, 127
2, 107440, Note_on_c, 1, 76, 127
2, 107600, Note_off_c, 1, 69, 0
2, 107640, Note_on_c, 1, 68, 127
2, 107800, Note_off_c, 1, 40, 0
2, 107800, Note_off_c, 1, 64, 0
2, 107800, Note_off_c, 1, 68, 0
2, 107800, Note_off_c, 1, 76, 0
2, 107840, Note_on_c, 1, 39, 127
2, 107840, Note_on_c, 1, 46, 127
2, 107840, Note_on_c, 1, 55, 127
2, 107840, Note_on_c, 1, 75, 127
2, 107840, Note_on_c, 1, 79, 127
2, 107840, Note_on_c, 1, 84, 127
2, 108000, Note_off_c, 1, 39, 0
2, 108000, Note_off_c, 1, 46, 0
2, 108000, Note_off_c, 1, 55, 0
2, 108000, Note_off_c, 1, 75, 0
2, 108000, Note_off_c, 1, 79, 0
2, 108000, Note_off_c, 1, 84, 0
2, 108040, Note_on_c, 1, 39, 127
2, 108040, Note_on_c, 1, 56, 127
2, 108040, Note_on_c, 1, 66, 127
2, 108040, Note_on_c, 1, 78, 127
2, 108200, Note_off_c, 1, 39, 0
2, 108200, Note_off_c, 1, 56, 0
2, 108200, Note_off_c, 1, 66, 0
2, 108200, Note_off_c, 1, 78, 0
2, 108240, Note_on_c, 1, 39, 127
2, 108240, Note_on_c, 1, 56, 127
2, 108240, Note_on_c, 1, 66, 127
2, 108240, Note_on_c, 1, 78, 127
2, 108400, Note_off_c, 1, 39, 0
2, 108400, Note_off_c, 1, 56, 0
2, 108400, Note_off_c, 1, 66, 0
2, 108400, Note_off_c, 1, 78, 0
2, 108440, Note_on_c, 1, 37, 127
2, 108440, Note_on_c, 1, 61, 127
2, 108440, Note_on_c, 1, 65, 127
2, 108440, Note_on_c, 1, 77, 127
2, 108600, Note_off_c, 1, 37, 0
2, 108600, Note_off_c, 1, 61, 0
2, 108600, Note_off_c, 1, 65, 0
2, 108600, Note_off_c, 1, 77, 0
2, 108640, Note_on_c, 1, 45, 127
2, 108640, Note_on_c, 1, 57, 127
2, 108640, Note_on_c, 1, 72, 127
2, 108640, Note_on_c, 1, 74, 127
2, 108640, Note_on_c, 1, 78, 127
2, 108960, Note_off_c, 1, 45, 0
2, 108960, Note_off_c, 1, 57, 0
2, 108960, Note_off_c, 1, 72, 0
2, 108960, Note_off_c, 1, 74, 0
2, 108960, Note_off_c, 1, 78, 0
2, 109000, Note_on_c, 1, 45, 127
2, 109000, Note_on_c, 1, 57, 127
2, 109000, Note_on_c, 1, 72, 127
2, 109000, Note_on_c, 1, 74, 127
2, 109000, Note_on_c, 1, 78, 127
2, 109040, Note_on_c, 1, 43, 127
2, 109040, Note_off_c, 1, 45, 0
2, 109040, Note_on_c, 1, 49, 127
2, 109040, Note_off_c, 1, 57, 0
2, 109040, Note_on_c, 1, 61, 127
2, 109040, Note_on_c, 1, 67, 127
2, 109040, Note_on_c, 1, 71, 127
2, 109040, Note_off_c, 1, 72, 0
2, 109040, Note_off_c, 1, 74, 0
2, 109040, Note_off_c, 1, 78, 0
2, 109080, Note_off_c, 1, 43, 0
2, 109080, Note_off_c, 1, 49, 0
2, 109080, Note_off_c, 1, 61, 0
2, 109080, Note_off_c, 1, 67, 0
2, 109080, Note_off_c, 1, 71, 0
2, 109120, Note_on_c, 1, 34, 127
2, 109120, Note_on_c, 1, 46, 127
2, 109120, Note_on_c, 1, 53, 127
2, 109120, Note_on_c, 1, 61, 127
2, 109120, Note_on_c, 1, 65, 127
2, 109120, Note_on_c, 1, 73, 127
2, 109120, Note_on_c, 1, 77, 127
2, 109120, Note_on_c, 1, 82, 127
2, 109120, Note_on_c, 1, 85, 127
2, 109280, Note_off_c, 1, 34, 0
2, 109280, Note_off_c, 1, 46, 0
2, 109280, Note_off_c, 1, 53, 0
2, 109280, Note_off_c, 1, 61, 0
2, 109280, Note_off_c, 1, 65, 0
2, 109280, Note_off_c, 1, 73, 0
2, 109280, Note_off_c, 1, 77, 0
2, 109280, Note_off_c, 1, 82, 0
2, 109280, Note_off_c, 1, 85, 0
2, 109320, Note_on_c, 1, 34, 127
2, 109320, Note_on_c, 1, 46, 127
2, 109320, Note_on_c, 1, 53, 127
2, 109320, Note_on_c, 1, 61, 127
2, 109320, Note_on_c, 1, 65, 127
2, 109320, Note_on_c, 1, 73, 127
2, 109320, Note_on_c, 1, 77, 127
2, 109320, Note_on_c, 1, 82, 127
2, 109320, Note_on_c, 1, 85, 127
2, 109480, Note_off_c, 1, 34, 0
2, 109480, Note_off_c, 1, 46, 0
2, 109480, Note_off_c, 1, 53, 0
2, 109480, Note_off_c, 1, 61, 0
2, 109480, Note_off_c, 1, 65, 0
2, 109480, Note_off_c, 1, 73, 0
2, 109480, Note_off_c, 1, 77, 0
2, 109480, Note_off_c, 1, 82, 0
2, 109480, Note_off_c, 1, 85, 0
2, 109520, Note_on_c, 1, 34, 127
2, 109520, Note_on_c, 1, 46, 127
2, 109520, Note_on_c, 1, 53, 127
2, 109520, Note_on_c, 1, 61, 127
2, 109520, Note_on_c, 1, 65, 127
2, 109520, Note_on_c, 1, 73, 127
2, 109520, Note_on_c, 1, 77, 127
2, 109520, Note_on_c, 1, 82, 127
2, 109520, Note_on_c, 1, 85, 127
2, 109680, Note_off_c, 1, 34, 0
2, 109680, Note_off_c, 1, 46, 0
2, 109680, Note_off_c, 1, 53, 0
2, 109680, Note_off_c, 1, 61, 0
2, 109680, Note_off_c, 1, 65, 0
2, 109680, Note_off_c, 1, 73, 0
2, 109680, Note_off_c, 1, 77, 0
2, 109680, Note_off_c, 1, 82, 0
2, 109680, Note_off_c, 1, 85, 0
2, 109720, Note_on_c, 1, 47, 127
2, 109720, Note_on_c, 1, 51, 127
2, 109720, Note_on_c, 1, 54, 127
2, 109720, Note_on_c, 1, 59, 127
2, 109720, Note_on_c, 1, 79, 127
2, 109760, Note_off_c, 1, 47, 0
2, 109760, Note_off_c, 1, 51, 0
2, 109760, Note_off_c, 1, 54, 0
2, 109760, Note_on_c, 1, 55, 127
2, 109760, Note_off_c, 1, 59, 0
2, 109760, Note_on_c, 1, 62, 127
2, 109760, Note_on_c, 1, 65, 127
2, 109760, Note_on_c, 1, 69, 127
2, 109760, Note_on_c, 1, 74, 127
2, 109760, Note_on_c, 1, 78, 127
2, 109760, Note_off_c, 1, 79, 0
2, 109760, Note_on_c, 1, 84, 127
2, 109800, Note_off_c, 1, 55, 0
2, 109800, Note_on_c, 1, 61, 127
2, 109800, Note_off_c, 1, 62, 0
2, 109800, Note_off_c, 1, 65, 0
2, 109800, Note_on_c, 1, 66, 127
2, 109800, Note_off_c, 1, 69, 0
2, 109800, Note_on_c, 1, 70, 127
2, 109800, Note_on_c, 1, 73, 127
2, 109800, Note_off_c, 1, 74, 0
2, 109800, Note_on_c, 1, 82, 127
2, 109800, Note_off_c, 1, 84, 0
2, 109800, Note_on_c, 1, 85, 127
2, 109840, Note_on_c, 1, 50, 127
2, 109840, Note_on_c, 1, 52, 127
2, 109840, Note_on_c, 1, 59, 127
2, 109840, Note_off_c, 1, 61, 0
2, 109840, Note_off_c, 1, 66, 0
2, 109840, Note_off_c, 1, 70, 0
2, 109840, Note_off_c, 1, 73, 0
2, 109840, Note_off_c, 1, 78, 0
2, 109840, Note_off_c, 1, 82, 0
2, 109840, Note_off_c, 1, 85, 0
2, 109840, Note_on_c, 1, 100, 127
2, 109880, Note_off_c, 1, 50, 0
2, 109880, Note_off_c, 1, 52, 0
2, 109880, Note_off_c, 1, 59, 0
2, 109880, Note_off_c, 1, 100, 0
2, 109920, Note_on_c, 1, 37, 127
2, 109920, Note_on_c, 1, 49, 127
2, 109920, Note_on_c, 1, 69, 127
2, 109920, Note_on_c, 1, 76, 127
2, 109920, Note_on_c, 1, 79, 127
2, 109920, Note_on_c, 1, 81, 127
2, 110080, Note_off_c, 1, 37, 0
2, 110080, Note_off_c, 1, 49, 0
2, 110080, Note_off_c, 1, 69, 0
2, 110080, Note_off_c, 1, 76, 0
2, 110080, Note_off_c, 1, 79, 0
2, 110080, Note_off_c, 1, 81, 0
2, 110120, Note_on_c, 1, 35, 127
2, 110120, Note_on_c, 1, 47, 127
2, 110120, Note_on_c, 1, 83, 127
2, 110120, Note_on_c, 1, 87, 127
2, 110120, Note_on_c, 1, 90, 127
2, 110120, Note_on_c, 1, 95, 127
2, 110520, Note_off_c, 1, 35, 0
2, 110520, Note_off_c, 1, 47, 0
2, 110520, Note_off_c, 1, 83, 0
2, 110520, Note_off_c, 1, 87, 0
2, 110520, Note_off_c, 1, 90, 0
2, 110520, Note_off_c, 1, 95, 0
2, 110560, Note_on_c, 1, 38, 127
2, 110560, Note_on_c, 1, 50, 127
2, 110560, Note_on_c, 1, 86, 127
2, 110560, Note_on_c, 1, 98, 127
2, 110720, Note_off_c, 1, 38, 0
2, 110720, Note_off_c, 1, 50, 0
2, 110720, Note_off_c, 1, 86, 0
2, 110720, Note_off_c, 1, 98, 0
2, 110760, Note_on_c, 1, 54, 127
2, 110760, Note_on_c, 1, 66, 127
2, 110760, Note_on_c, 1, 78, 127
2, 110760, Note_on_c, 1, 81, 127
2, 110760, Note_on_c, 1, 90, 127
2, 110800, Note_off_c, 1, 54, 0
2, 110800, Note_off_c, 1, 66, 0
2, 110800, Note_off_c, 1, 78, 0
2, 110800, Note_off_c, 1, 81, 0
2, 110800, Note_off_c, 1, 90, 0
2, 110840, Note_on_c, 1, 81, 127
2, 110840, Note_on_c, 1, 93, 127
2, 110920, Note_off_c, 1, 81, 0
2, 110920, Note_off_c, 1, 93, 0
2, 110960, Note_on_c, 1, 54, 127
2, 110960, Note_on_c, 1, 66, 127
2, 110960, Note_on_c, 1, 78, 127
2, 110960, Note_on_c, 1, 81, 127
2, 110960, Note_on_c, 1, 90, 127
2, 111040, Note_off_c, 1, 54, 0
2, 111040, Note_off_c, 1, 66, 0
2, 111040, Note_off_c, 1, 78, 0
2, 111040, Note_off_c, 1, 81, 0
2, 111040, Note_off_c, 1, 90, 0
2, 111080, Note_on_c, 1, 81, 127
2, 111080, Note_on_c, 1, 93, 127
2, 111120, Note_off_c, 1, 81, 0
2, 111120, Note_off_c, 1, 93, 0
2, 111200, Note_on_c, 1, 39, 127
2, 111200, Note_on_c, 1, 51, 127
2, 111200, Note_on_c, 1, 55, 127
2, 111200, Note_on_c, 1, 58, 127
2, 111200, Note_on_c, 1, 61, 127
2, 111200, Note_on_c, 1, 63, 127
2, 111360, Note_off_c, 1, 39, 0
2, 111360, Note_off_c, 1, 51, 0
2, 111360, Note_off_c, 1, 55, 0
2, 111360, Note_off_c, 1, 58, 0
2, 111360, Note_off_c, 1, 61, 0
2, 111360, Note_off_c, 1, 63, 0
2, 111400, Note_on_c, 1, 47, 127
2, 111400, Note_on_c, 1, 50, 127
2, 111400, Note_on_c, 1, 55, 127
2, 111400, Note_on_c, 1, 71, 127
2, 111560, Note_off_c, 1, 47, 0
2, 111560, Note_off_c, 1, 50, 0
2, 111560, Note_off_c, 1, 55, 0
2, 111560, Note_off_c, 1, 71, 0
2, 111600, Note_on_c, 1, 47, 127
2, 111600, Note_on_c, 1, 50, 127
2, 111600, Note_on_c, 1, 55, 127
2, 111600, Note_on_c, 1, 66, 127
2, 111760, Note_off_c, 1, 47, 0
2, 111760, Note_off_c, 1, 50, 0
2, 111760, Note_off_c, 1, 55, 0
2, 111760, Note_off_c, 1, 66, 0
2, 111800, Note_on_c, 1, 47, 127
2, 111800, Note_on_c, 1, 50, 127
2, 111800, Note_on_c, 1, 55, 127
2, 111800, Note_on_c, 1, 66, 127
2, 111960, Note_off_c, 1, 47, 0
2, 111960, Note_off_c, 1, 50, 0
2, 111960, Note_off_c, 1, 55, 0
2, 111960, Note_off_c, 1, 66, 0
2, 112000, Note_on_c, 1, 47, 127
2, 112000, Note_on_c, 1, 50, 127
2, 112000, Note_on_c, 1, 55, 127
2, 112000, Note_on_c, 1, 66, 127
2, 112160, Note_off_c, 1, 47, 0
2, 112160, Note_off_c, 1, 50, 0
2, 112160, Note_off_c, 1, 55, 0
2, 112160, Note_off_c, 1, 66, 0
2, 112200, Note_on_c, 1, 47, 127
2, 112200, Note_on_c, 1, 50, 127
2, 112200, Note_on_c, 1, 55, 127
2, 112200, Note_on_c, 1, 66, 127
2, 112360, Note_off_c, 1, 47, 0
2, 112360, Note_off_c, 1, 50, 0
2, 112360, Note_off_c, 1, 55, 0
2, 112360, Note_off_c, 1, 66, 0
2, 112400, Note_on_c, 1, 47, 127
2, 112400, Note_on_c, 1, 50, 127
2, 112400, Note_on_c, 1, 55, 127
2, 112400, Note_on_c, 1, 66, 127
2, 112560, Note_off_c, 1, 47, 0
2, 112560, Note_off_c, 1, 50, 0
2, 112560, Note_off_c, 1, 55, 0
2, 112560, Note_off_c, 1, 66, 0
2, 112600, Note_on_c, 1, 47, 127
2, 112600, Note_on_c, 1, 50, 127
2, 112600, Note_on_c, 1, 55, 127
2, 112600, Note_on_c, 1, 66, 127
2, 112760, Note_off_c, 1, 47, 0
2, 112760, Note_off_c, 1, 50, 0
2, 112760, Note_off_c, 1, 55, 0
2, 112760, Note_off_c, 1, 66, 0
2, 112800, Note_on_c, 1, 45, 127
2, 112800, Note_on_c, 1, 61, 127
2, 112800, Note_on_c, 1, 67, 127
2, 112800, Note_on_c, 1, 71, 127
2, 112960, Note_off_c, 1, 45, 0
2, 112960, Note_off_c, 1, 61, 0
2, 112960, Note_off_c, 1, 67, 0
2, 112960, Note_off_c, 1, 71, 0
2, 113080, Note_on_c, 1, 45, 127
2, 113080, Note_on_c, 1, 52, 127
2, 113080, Note_on_c, 1, 57, 127
2, 113080, Note_on_c, 1, 61, 127
2, 113080, Note_on_c, 1, 69, 127
2, 113840, Note_off_c, 1, 45, 0
2, 113840, Note_off_c, 1, 52, 0
2, 113840, Note_off_c, 1, 57, 0
2, 113840, Note_off_c, 1, 61, 0
2, 113840, Note_off_c, 1, 69, 0
2, 113880, Note_on_c, 1, 50, 127
2, 113880, Note_on_c, 1, 62, 127
2, 113880, Note_on_c, 1, 66, 127
2, 113880, Note_on_c, 1, 69, 127
2, 114040, Note_off_c, 1, 50, 0
2, 114040, Note_off_c, 1, 62, 0
2, 114040, Note_off_c, 1, 66, 0
2, 114040, Note_off_c, 1, 69, 0
2, 114080, Note_on_c, 1, 45, 127
2, 114080, Note_on_c, 1, 52, 127
2, 114080, Note_on_c, 1, 61, 127
2, 114080, Note_on_c, 1, 67, 127
2, 114080, Note_on_c, 1, 71, 127
2, 114120, Note_off_c, 1, 71, 0
2, 114160, Note_on_c, 1, 71, 127
2, 114240, Note_off_c, 1, 71, 0
2, 114280, Note_off_c, 1, 45, 0
2, 114280, Note_off_c, 1, 52, 0
2, 114280, Note_off_c, 1, 61, 0
2, 114280, Note_on_c, 1, 69, 127
2, 114320, Note_on_c, 1, 45, 127
2, 114320, Note_on_c, 1, 52, 127
2, 114320, Note_on_c, 1, 61, 127
2, 114320, Note_off_c, 1, 69, 0
2, 114320, Note_on_c, 1, 76, 127
2, 114400, Note_off_c, 1, 76, 0
2, 114520, Note_on_c, 1, 73, 127
2, 114680, Note_off_c, 1, 45, 0
2, 114680, Note_off_c, 1, 52, 0
2, 114680, Note_off_c, 1, 61, 0
2, 114680, Note_off_c, 1, 67, 0
2, 114680, Note_off_c, 1, 73, 0
2, 114720, Note_on_c, 1, 46, 127
2, 114720, Note_on_c, 1, 50, 127
2, 114720, Note_on_c, 1, 65, 127
2, 114880, Note_off_c, 1, 46, 0
2, 114880, Note_off_c, 1, 50, 0
2, 114880, Note_off_c, 1, 65, 0
2, 114920, Note_on_c, 1, 46, 127
2, 114920, Note_on_c, 1, 50, 127
2, 114920, Note_on_c, 1, 62, 127
2, 114920, Note_on_c, 1, 65, 127
2, 115080, Note_off_c, 1, 46, 0
2, 115080, Note_off_c, 1, 50, 0
2, 115080, Note_off_c, 1, 62, 0
2, 115080, Note_off_c, 1, 65, 0
2, 115160, Note_on_c, 1, 45, 127
2, 115160, Note_on_c, 1, 61, 127
2, 115160, Note_on_c, 1, 67, 127
2, 115160, Note_on_c, 1, 73, 127
2, 115760, Note_off_c, 1, 45, 0
2, 115760, Note_off_c, 1, 61, 0
2, 115760, Note_off_c, 1, 67, 0
2, 115760, Note_off_c, 1, 73, 0
2, 115800, Note_on_c, 1, 47, 127
2, 115800, Note_on_c, 1, 62, 127
2, 115800, Note_on_c, 1, 65, 127
2, 115960, Note_off_c, 1, 47, 0
2, 115960, Note_off_c, 1, 62, 0
2, 115960, Note_off_c, 1, 65, 0
2, 116000, Note_on_c, 1, 45, 127
2, 116000, Note_on_c, 1, 57, 127
2, 116000, Note_on_c, 1, 61, 127
2, 116000, Note_on_c, 1, 66, 127
2, 116360, Note_off_c, 1, 45, 0
2, 116360, Note_off_c, 1, 57, 0
2, 116360, Note_off_c, 1, 61, 0
2, 116360, Note_off_c, 1, 66, 0
2, 116400, Note_on_c, 1, 45, 127
2, 116400, Note_on_c, 1, 52, 127
2, 116400, Note_on_c, 1, 57, 127
2, 116400, Note_on_c, 1, 61, 127
2, 116400, Note_on_c, 1, 69, 127
2, 116760, Note_off_c, 1, 45, 0
2, 116760, Note_off_c, 1, 52, 0
2, 116760, Note_off_c, 1, 57, 0
2, 116760, Note_off_c, 1, 61, 0
2, 116760, Note_off_c, 1, 69, 0
2, 116800, Note_on_c, 1, 36, 127
2, 116800, Note_on_c, 1, 65, 127
2, 116800, Note_on_c, 1, 69, 127
2, 117000, Note_off_c, 1, 36, 0
2, 117000, Note_off_c, 1, 65, 0
2, 117000, Note_off_c, 1, 69, 0
2, 117040, Note_on_c, 1, 48, 127
2, 117040, Note_on_c, 1, 65, 127
2, 117040, Note_on_c, 1, 69, 127
2, 117160, Note_off_c, 1, 48, 0
2, 117160, Note_off_c, 1, 65, 0
2, 117160, Note_off_c, 1, 69, 0
2, 117200, Note_on_c, 1, 48, 127
2, 117200, Note_on_c, 1, 65, 127
2, 117200, Note_on_c, 1, 69, 127
2, 117240, Note_off_c, 1, 48, 0
2, 117240, Note_off_c, 1, 65, 0
2, 117240, Note_off_c, 1, 69, 0
2, 117280, Note_on_c, 1, 48, 127
2, 117280, Note_on_c, 1, 65, 127
2, 117280, Note_on_c, 1, 69, 127
2, 117480, Note_off_c, 1, 48, 0
2, 117480, Note_off_c, 1, 65, 0
2, 117480, Note_off_c, 1, 69, 0
2, 117480, Note_on_c, 1, 70, 127
2, 117480, Note_on_c, 1, 77, 127
2, 117480, Note_on_c, 1, 80, 127
2, 117480, Note_on_c, 1, 84, 127
2, 117520, Note_on_c, 1, 53, 127
2, 117520, Note_on_c, 1, 60, 127
2, 117520, Note_on_c, 1, 63, 127
2, 117520, Note_on_c, 1, 69, 127
2, 117520, Note_off_c, 1, 70, 0
2, 117520, Note_on_c, 1, 75, 127
2, 117520, Note_off_c, 1, 77, 0
2, 117520, Note_off_c, 1, 80, 0
2, 117520, Note_on_c, 1, 81, 127
2, 117520, Note_off_c, 1, 84, 0
2, 117560, Note_off_c, 1, 53, 0
2, 117560, Note_off_c, 1, 60, 0
2, 117560, Note_off_c, 1, 63, 0
2, 117560, Note_off_c, 1, 69, 0
2, 117560, Note_on_c, 1, 70, 127
2, 117560, Note_off_c, 1, 75, 0
2, 117560, Note_on_c, 1, 77, 127
2, 117560, Note_on_c, 1, 80, 127
2, 117560, Note_off_c, 1, 81, 0
2, 117560, Note_on_c, 1, 84, 127
2, 117600, Note_on_c, 1, 76, 127
2, 117600, Note_off_c, 1, 77, 0
2, 117600, Note_on_c, 1, 79, 127
2, 117600, Note_off_c, 1, 80, 0
2, 117640, Note_off_c, 1, 70, 0
2, 117640, Note_off_c, 1, 76, 0
2, 117640, Note_off_c, 1, 79, 0
2, 117640, Note_off_c, 1, 84, 0
2, 117680, Note_on_c, 1, 48, 127
2, 117680, Note_on_c, 1, 52, 127
2, 117680, Note_on_c, 1, 58, 127
2, 117680, Note_on_c, 1, 60, 127
2, 117840, Note_off_c, 1, 60, 0
2, 117880, Note_off_c, 1, 58, 0
2, 117880, Note_on_c, 1, 62, 127
2, 117960, Note_on_c, 1, 58, 127
2, 117960, Note_off_c, 1, 62, 0
2, 118000, Note_off_c, 1, 58, 0
2, 118000, Note_on_c, 1, 62, 127
2, 118040, Note_off_c, 1, 48, 0
2, 118040, Note_off_c, 1, 52, 0
2, 118040, Note_off_c, 1, 62, 0
2, 118080, Note_on_c, 1, 48, 127
2, 118080, Note_on_c, 1, 52, 127
2, 118080, Note_on_c, 1, 58, 127
2, 118080, Note_on_c, 1, 60, 127
2, 118440, Note_off_c, 1, 48, 0
2, 118440, Note_off_c, 1, 52, 0
2, 118440, Note_off_c, 1, 58, 0
2, 118440, Note_off_c, 1, 60, 0
2, 118480, Note_on_c, 1, 41, 127
2, 118480, Note_on_c, 1, 48, 127
2, 118480, Note_on_c, 1, 53, 127
2, 118480, Note_on_c, 1, 57, 127
2, 118480, Note_on_c, 1, 65, 127
2, 118840, Note_off_c, 1, 41, 0
2, 118840, Note_off_c, 1, 48, 0
2, 118840, Note_off_c, 1, 53, 0
2, 118840, Note_off_c, 1, 57, 0
2, 118840, Note_off_c, 1, 65, 0
2, 118880, Note_on_c, 1, 41, 127
2, 118880, Note_on_c, 1, 48, 127
2, 118880, Note_on_c, 1, 53, 127
2, 118880, Note_on_c, 1, 57, 127
2, 118880, Note_on_c, 1, 65, 127
2, 119280, Note_off_c, 1, 41, 0
2, 119280, Note_off_c, 1, 48, 0
2, 119280, Note_off_c, 1, 53, 0
2, 119280, Note_off_c, 1, 57, 0
2, 119280, Note_off_c, 1, 65, 0
2, 119320, Note_on_c, 1, 41, 127
2, 119320, Note_on_c, 1, 48, 127
2, 119320, Note_on_c, 1, 53, 127
2, 119320, Note_on_c, 1, 57, 127
2, 119320, Note_on_c, 1, 65, 127
2, 119680, Note_off_c, 1, 41, 0
2, 119680, Note_off_c, 1, 48, 0
2, 119680, Note_off_c, 1, 53, 0
2, 119680, Note_off_c, 1, 57, 0
2, 119680, Note_off_c, 1, 65, 0
2, 119720, Note_on_c, 1, 46, 127
2, 119720, Note_on_c, 1, 53, 127
2, 119720, Note_on_c, 1, 65, 127
2, 119720, Note_on_c, 1, 69, 127
2, 119720, Note_on_c, 1, 72, 127
2, 119720, Note_on_c, 1, 77, 127
2, 120000, Note_off_c, 1, 46, 0
2, 120000, Note_off_c, 1, 53, 0
2, 120000, Note_off_c, 1, 65, 0
2, 120000, Note_off_c, 1, 69, 0
2, 120000, Note_off_c, 1, 72, 0
2, 120000, Note_off_c, 1, 77, 0
2, 120040, End_track
3, 0, Start_track
3, 0, Title_t, "MIDI"
3, 1536, End_track
0, 0, End_of_file
