0, 0, Header, 1, 3, 192
1, 0, Start_track
1, 0, Time_signature, 4, 2, 24, 8
1, 0, Tempo, 500000
1, 120040, End_track
2, 0, Start_track
2, 0, Text_t, "random instrument: random person i dunno whatev"
2, 0, Title_t, "Track 1"
2, 0, Note_on_c, 1, 40, 127
2, 0, Note_on_c, 1, 48, 127
2, 0, Note_on_c, 1, 56, 127
2, 0, Note_on_c, 1, 60, 127
2, 40, Note_off_c, 1, 40, 0
2, 40, Note_off_c, 1, 48, 0
2, 40, Note_on_c, 1, 55, 127
2, 40, Note_off_c, 1, 56, 0
2, 40, Note_off_c, 1, 60, 0
2, 40, Note_on_c, 1, 72, 127
2, 40, Note_on_c, 1, 75, 127
2, 40, Note_on_c, 1, 79, 127
2, 40, Note_on_c, 1, 84, 127
2, 80, Note_off_c, 1, 55, 0
2, 80, Note_off_c, 1, 72, 0
2, 80, Note_off_c, 1, 75, 0
2, 80, Note_off_c, 1, 79, 0
2, 80, Note_off_c, 1, 84, 0
2, 120, Note_on_c, 1, 50, 127
2, 120, Note_on_c, 1, 59, 127
2, 120, Note_on_c, 1, 62, 127
2, 120, Note_on_c, 1, 78, 127
2, 160, Note_off_c, 1, 50, 0
2, 160, Note_off_c, 1, 59, 0
2, 160, Note_on_c, 1, 60, 127
2, 160, Note_off_c, 1, 62, 0
2, 160, Note_on_c, 1, 66, 127
2, 160, Note_on_c, 1, 68, 127
2, 160, Note_off_c, 1, 78, 0
2, 160, Note_on_c, 1, 90, 127
2, 200, Note_on_c, 1, 35, 127
2, 200, Note_on_c, 1, 39, 127
2, 200, Note_on_c, 1, 47, 127
2, 200, Note_on_c, 1, 50, 127
2, 200, Note_off_c, 1, 60, 0
2, 200, Note_off_c, 1, 66, 0
2, 200, Note_off_c, 1, 68, 0
2, 200, Note_off_c, 1, 90, 0
2, 240, Note_off_c, 1, 35, 0
2, 240, Note_off_c, 1, 39, 0
2, 240, Note_off_c, 1, 47, 0
2, 240, Note_off_c, 1, 50, 0
2, 240, Note_on_c, 1, 51, 127
2, 240, Note_on_c, 1, 55, 127
2, 240, Note_on_c, 1, 58, 127
2, 240, Note_on_c, 1, 63, 127
2, 240, Note_on_c, 1, 82, 127
2, 240, Note_on_c, 1, 91, 127
2, 280, Note_off_c, 1, 51, 0
2, 280, Note_off_c, 1, 55, 0
2, 280, Note_off_c, 1, 58, 0
2, 280, Note_off_c, 1, 63, 0
2, 280, Note_on_c, 1, 76, 127
2, 280, Note_on_c, 1, 80, 127
2, 280, Note_off_c, 1, 82, 0
2, 280, Note_on_c, 1, 83, 127
2, 280, Note_on_c, 1, 89, 127
2, 280, Note_off_c, 1, 91, 0
2, 320, Note_on_c, 1, 58, 127
2, 320, Note_on_c, 1, 63, 127
2, 320, Note_on_c, 1, 66, 127
2, 320, Note_on_c, 1, 72, 127
2, 320, Note_on_c, 1, 75, 127
2, 320, Note_off_c, 1, 76, 0
2, 320, Note_off_c, 1, 80, 0
2, 320, Note_on_c, 1, 82, 127
2, 320, Note_off_c, 1, 83, 0
2, 320, Note_on_c, 1, 87, 127
2, 320, Note_off_c, 1, 89, 0
2, 360, Note_on_c, 1, 57, 127
2, 360, Note_off_c, 1, 58, 0
2, 360, Note_on_c, 1, 62, 127
2, 360, Note_off_c, 1, 63, 0
2, 360, Note_off_c, 1, 66, 0
2, 360, Note_off_c, 1, 72, 0
2, 360, Note_off_c, 1, 75, 0
2, 360, Note_off_c, 1, 82, 0
2, 360, Note_off_c, 1, 87, 0
2, 400, Note_off_c, 1, 57, 0
2, 400, Note_on_c, 1, 60, 127
2, 400, Note_off_c, 1, 62, 0
2, 400, Note_on_c, 1, 85, 127
2, 400, Note_on_c, 1, 88, 127
2, 440, Note_on_c, 1, 50, 127
2, 440, Note_on_c, 1, 57, 127
2, 440, Note_off_c, 1, 60, 0
2, 440, Note_on_c, 1, 65, 127
2, 440, Note_off_c, 1, 85, 0
2, 440, Note_off_c, 1, 88, 0
2, 440, Note_on_c, 1, 93, 127
2, 480, Note_off_c, 1, 50, 0
2, 480, Note_on_c, 1, 54, 127
2, 480, Note_off_c, 1, 57, 0
2, 480, Note_on_c, 1, 58, 127
2, 480, Note_on_c, 1, 61, 127
2, 480, Note_off_c, 1, 65, 0
2, 480, Note_off_c, 1, 93, 0
2, 480, Note_on_c, 1, 97, 127
2, 520, Note_on_c, 1, 50, 127
2, 520, Note_off_c, 1, 54, 0
2, 520, Note_on_c, 1, 57, 127
2, 520, Note_off_c, 1, 58, 0
2, 520, Note_off_c, 1, 61, 0
2, 520, Note_on_c, 1, 65, 127
2, 520, Note_on_c, 1, 93, 127
2, 520, Note_off_c, 1, 97, 0
2, 800, Note_off_c, 1, 50, 0
2, 800, Note_off_c, 1, 57, 0
2, 800, Note_off_c, 1, 65, 0
2, 800, Note_off_c, 1, 93, 0
2, 1280, Note_on_c, 1, 38, 127
2, 1280, Note_on_c, 1, 54, 127
2, 1280, Note_on_c, 1, 62, 127
2, 1840, Note_off_c, 1, 38, 0
2, 1840, Note_off_c, 1, 54, 0
2, 1840, Note_off_c, 1, 62, 0
2, 4800, Note_on_c, 1, 43, 127
2, 4800, Note_on_c, 1, 50, 127
2, 4800, Note_on_c, 1, 78, 127
2, 4800, Note_on_c, 1, 83, 127
2, 4800, Note_on_c, 1, 90, 127
2, 4840, Note_off_c, 1, 43, 0
2, 4840, Note_off_c, 1, 50, 0
2, 4840, Note_on_c, 1, 53, 127
2, 4840, Note_on_c, 1, 60, 127
2, 4840, Note_on_c, 1, 63, 127
2, 4840, Note_on_c, 1, 66, 127
2, 4840, Note_on_c, 1, 69, 127
2, 4840, Note_on_c, 1, 72, 127
2, 4840, Note_on_c, 1, 81, 127
2, 4840, Note_off_c, 1, 83, 0
2, 4840, Note_off_c, 1, 90, 0
2, 4880, Note_on_c, 1, 34, 127
2, 4880, Note_on_c, 1, 46, 127
2, 4880, Note_off_c, 1, 53, 0
2, 4880, Note_off_c, 1, 60, 0
2, 4880, Note_off_c, 1, 63, 0
2, 4880, Note_off_c, 1, 66, 0
2, 4880, Note_off_c, 1, 69, 0
2, 4880, Note_on_c, 1, 70, 127
2, 4880, Note_off_c, 1, 72, 0
2, 4880, Note_on_c, 1, 77, 127
2, 4880, Note_off_c, 1, 78, 0
2, 4880, Note_on_c, 1, 79, 127
2, 4880, Note_off_c, 1, 81, 0
2, 4880, Note_on_c, 1, 82, 127
2, 4920, Note_off_c, 1, 34, 0
2, 4920, Note_off_c, 1, 46, 0
2, 4920, Note_off_c, 1, 70, 0
2, 4920, Note_on_c, 1, 75, 127
2, 4920, Note_off_c, 1, 77, 0
2, 4920, Note_off_c, 1, 82, 0
2, 4920, Note_on_c, 1, 84, 127
2, 4920, Note_on_c, 1, 96, 127
2, 4960, Note_on_c, 1, 38, 127
2, 4960, Note_on_c, 1, 45, 127
2, 4960, Note_on_c, 1, 50, 127
2, 4960, Note_on_c, 1, 74, 127
2, 4960, Note_off_c, 1, 75, 0
2, 4960, Note_off_c, 1, 79, 0
2, 4960, Note_on_c, 1, 81, 127
2, 4960, Note_off_c, 1, 84, 0
2, 4960, Note_on_c, 1, 86, 127
2, 4960, Note_off_c, 1, 96, 0
2, 5000, Note_off_c, 1, 38, 0
2, 5000, Note_off_c, 1, 45, 0
2, 5000, Note_off_c, 1, 50, 0
2, 5000, Note_off_c, 1, 74, 0
2, 5000, Note_on_c, 1, 77, 127
2, 5000, Note_on_c, 1, 79, 127
2, 5000, Note_off_c, 1, 81, 0
2, 5000, Note_on_c, 1, 83, 127
2, 5000, Note_off_c, 1, 86, 0
2, 5000, Note_on_c, 1, 89, 127
2, 5040, Note_off_c, 1, 77, 0
2, 5040, Note_off_c, 1, 79, 0
2, 5040, Note_off_c, 1, 83, 0
2, 5040, Note_off_c, 1, 89, 0
2, 5080, Note_on_c, 1, 70, 127
2, 5080, Note_on_c, 1, 72, 127
2, 5080, Note_on_c, 1, 75, 127
2, 5080, Note_on_c, 1, 82, 127
2, 5120, Note_on_c, 1, 27, 127
2, 5120, Note_off_c, 1, 70, 0
2, 5120, Note_off_c, 1, 72, 0
2, 5120, Note_off_c, 1, 75, 0
2, 5120, Note_off_c, 1, 82, 0
2, 5120, Note_on_c, 1, 87, 127
2, 5160, Note_off_c, 1, 27, 0
2, 5160, Note_on_c, 1, 48, 127
2, 5160, Note_on_c, 1, 56, 127
2, 5160, Note_on_c, 1, 66, 127
2, 5160, Note_off_c, 1, 87, 0
2, 5160, Note_on_c, 1, 90, 127
2, 5200, Note_on_c, 1, 43, 127
2, 5200, Note_off_c, 1, 48, 0
2, 5200, Note_on_c, 1, 53, 127
2, 5200, Note_on_c, 1, 55, 127
2, 5200, Note_off_c, 1, 56, 0
2, 5200, Note_off_c, 1, 66, 0
2, 5200, Note_on_c, 1, 76, 127
2, 5200, Note_on_c, 1, 88, 127
2, 5200, Note_off_c, 1, 90, 0
2, 5240, Note_on_c, 1, 50, 127
2, 5240, Note_off_c, 1, 53, 0
2, 5240, Note_off_c, 1, 55, 0
2, 5240, Note_on_c, 1, 60, 127
2, 5240, Note_on_c, 1, 62, 127
2, 5240, Note_on_c, 1, 69, 127
2, 5240, Note_off_c, 1, 76, 0
2, 5240, Note_off_c, 1, 88, 0
2, 5280, Note_off_c, 1, 43, 0
2, 5280, Note_off_c, 1, 50, 0
2, 5280, Note_on_c, 1, 53, 127
2, 5280, Note_on_c, 1, 58, 127
2, 5280, Note_off_c, 1, 60, 0
2, 5280, Note_off_c, 1, 62, 0
2, 5280, Note_on_c, 1, 63, 127
2, 5280, Note_on_c, 1, 65, 127
2, 5280, Note_off_c, 1, 69, 0
2, 5280, Note_on_c, 1, 74, 127
2, 5320, Note_off_c, 1, 53, 0
2, 5320, Note_off_c, 1, 58, 0
2, 5320, Note_off_c, 1, 63, 0
2, 5320, Note_off_c, 1, 65, 0
2, 5320, Note_off_c, 1, 74, 0
2, 5360, Note_on_c, 1, 36, 127
2, 5360, Note_on_c, 1, 51, 127
2, 5360, Note_on_c, 1, 60, 127
2, 5600, Note_off_c, 1, 36, 0
2, 5600, Note_off_c, 1, 51, 0
2, 5600, Note_off_c, 1, 60, 0
2, 5640, Note_on_c, 1, 40, 127
2, 5640, Note_on_c, 1, 52, 127
2, 5640, Note_on_c, 1, 55, 127
2, 5640, Note_on_c, 1, 64, 127
2, 5680, Note_off_c, 1, 40, 0
2, 5680, Note_off_c, 1, 52, 0
2, 5680, Note_off_c, 1, 55, 0
2, 5680, Note_off_c, 1, 64, 0
2, 5880, Note_on_c, 1, 43, 127
2, 5880, Note_on_c, 1, 55, 127
2, 5880, Note_on_c, 1, 67, 127
2, 5880, Note_on_c, 1, 69, 127
2, 5920, Note_off_c, 1, 43, 0
2, 5920, Note_off_c, 1, 55, 0
2, 5920, Note_off_c, 1, 67, 0
2, 5920, Note_off_c, 1, 69, 0
2, 5960, Note_on_c, 1, 43, 127
2, 5960, Note_on_c, 1, 55, 127
2, 5960, Note_on_c, 1, 62, 127
2, 5960, Note_on_c, 1, 67, 127
2, 5960, Note_on_c, 1, 72, 127
2, 5960, Note_on_c, 1, 74, 127
2, 6000, Note_off_c, 1, 43, 0
2, 6000, Note_off_c, 1, 55, 0
2, 6000, Note_off_c, 1, 62, 0
2, 6000, Note_off_c, 1, 67, 0
2, 6000, Note_off_c, 1, 72, 0
2, 6000, Note_off_c, 1, 74, 0
2, 6080, Note_on_c, 1, 73, 127
2, 6080, Note_on_c, 1, 85, 127
2, 6080, Note_on_c, 1, 97, 127
2, 6120, Note_off_c, 1, 73, 0
2, 6120, Note_off_c, 1, 85, 0
2, 6120, Note_off_c, 1, 97, 0
2, 6200, Note_on_c, 1, 42, 127
2, 6200, Note_on_c, 1, 52, 127
2, 6200, Note_on_c, 1, 59, 127
2, 6200, Note_on_c, 1, 64, 127
2, 6240, Note_off_c, 1, 42, 0
2, 6240, Note_off_c, 1, 52, 0
2, 6240, Note_off_c, 1, 59, 0
2, 6240, Note_off_c, 1, 64, 0
2, 6360, Note_on_c, 1, 38, 127
2, 6360, Note_on_c, 1, 50, 127
2, 6360, Note_on_c, 1, 84, 127
2, 6360, Note_on_c, 1, 96, 127
2, 6400, Note_off_c, 1, 38, 0
2, 6400, Note_off_c, 1, 50, 0
2, 6400, Note_off_c, 1, 84, 0
2, 6400, Note_off_c, 1, 96, 0
2, 6480, Note_on_c, 1, 43, 127
2, 6480, Note_on_c, 1, 55, 127
2, 6480, Note_on_c, 1, 73, 127
2, 6480, Note_on_c, 1, 76, 127
2, 6480, Note_on_c, 1, 82, 127
2, 6480, Note_on_c, 1, 85, 127
2, 6520, Note_off_c, 1, 43, 0
2, 6520, Note_off_c, 1, 55, 0
2, 6520, Note_off_c, 1, 73, 0
2, 6520, Note_off_c, 1, 76, 0
2, 6520, Note_off_c, 1, 82, 0
2, 6520, Note_off_c, 1, 85, 0
2, 6640, Note_on_c, 1, 41, 127
2, 6640, Note_on_c, 1, 45, 127
2, 6640, Note_on_c, 1, 48, 127
2, 6640, Note_on_c, 1, 53, 127
2, 6640, Note_on_c, 1, 72, 127
2, 6640, Note_on_c, 1, 77, 127
2, 6640, Note_on_c, 1, 81, 127
2, 6640, Note_on_c, 1, 84, 127
2, 6680, Note_off_c, 1, 41, 0
2, 6680, Note_off_c, 1, 45, 0
2, 6680, Note_off_c, 1, 48, 0
2, 6680, Note_off_c, 1, 53, 0
2, 6680, Note_off_c, 1, 72, 0
2, 6680, Note_off_c, 1, 77, 0
2, 6680, Note_off_c, 1, 81, 0
2, 6680, Note_off_c, 1, 84, 0
2, 6760, Note_on_c, 1, 41, 127
2, 6760, Note_on_c, 1, 45, 127
2, 6760, Note_on_c, 1, 48, 127
2, 6760, Note_on_c, 1, 53, 127
2, 6760, Note_on_c, 1, 72, 127
2, 6760, Note_on_c, 1, 77, 127
2, 6760, Note_on_c, 1, 81, 127
2, 6760, Note_on_c, 1, 84, 127
2, 7000, Note_off_c, 1, 41, 0
2, 7000, Note_off_c, 1, 45, 0
2, 7000, Note_off_c, 1, 48, 0
2, 7000, Note_off_c, 1, 53, 0
2, 7000, Note_off_c, 1, 72, 0
2, 7000, Note_off_c, 1, 77, 0
2, 7000, Note_off_c, 1, 81, 0
2, 7000, Note_off_c, 1, 84, 0
2, 7040, Note_on_c, 1, 41, 127
2, 7040, Note_on_c, 1, 45, 127
2, 7040, Note_on_c, 1, 48, 127
2, 7040, Note_on_c, 1, 53, 127
2, 7040, Note_on_c, 1, 72, 127
2, 7040, Note_on_c, 1, 77, 127
2, 7040, Note_on_c, 1, 81, 127
2, 7040, Note_on_c, 1, 84, 127
2, 7240, Note_off_c, 1, 41, 0
2, 7240, Note_off_c, 1, 45, 0
2, 7240, Note_off_c, 1, 48, 0
2, 7240, Note_off_c, 1, 53, 0
2, 7240, Note_off_c, 1, 72, 0
2, 7240, Note_off_c, 1, 77, 0
2, 7240, Note_off_c, 1, 81, 0
2, 7240, Note_off_c, 1, 84, 0
2, 7280, Note_on_c, 1, 61, 127
2, 7280, Note_on_c, 1, 65, 127
2, 7280, Note_on_c, 1, 70, 127
2, 7280, Note_on_c, 1, 73, 127
2, 7280, Note_on_c, 1, 77, 127
2, 7280, Note_on_c, 1, 82, 127
2, 7520, Note_off_c, 1, 61, 0
2, 7520, Note_off_c, 1, 65, 0
2, 7520, Note_off_c, 1, 70, 0
2, 7520, Note_off_c, 1, 73, 0
2, 7520, Note_off_c, 1, 77, 0
2, 7520, Note_off_c, 1, 82, 0
2, 7560, Note_on_c, 1, 44, 127
2, 7560, Note_on_c, 1, 56, 127
2, 7560, Note_on_c, 1, 60, 127
2, 7560, Note_on_c, 1, 72, 127
2, 7600, Note_off_c, 1, 44, 0
2, 7600, Note_off_c, 1, 56, 0
2, 7600, Note_off_c, 1, 60, 0
2, 7600, Note_off_c, 1, 72, 0
2, 7640, Note_on_c, 1, 44, 127
2, 7640, Note_on_c, 1, 56, 127
2, 7640, Note_on_c, 1, 60, 127
2, 7640, Note_on_c, 1, 72, 127
2, 7680, Note_off_c, 1, 44, 0
2, 7680, Note_off_c, 1, 56, 0
2, 7680, Note_off_c, 1, 60, 0
2, 7680, Note_off_c, 1, 72, 0
2, 7880, Note_on_c, 1, 43, 127
2, 7880, Note_on_c, 1, 50, 127
2, 7880, Note_on_c, 1, 61, 127
2, 7880, Note_on_c, 1, 62, 127
2, 7880, Note_on_c, 1, 70, 127
2, 8080, Note_off_c, 1, 43, 0
2, 8080, Note_off_c, 1, 50, 0
2, 8080, Note_off_c, 1, 61, 0
2, 8080, Note_off_c, 1, 62, 0
2, 8080, Note_on_c, 1, 66, 127
2, 8080, Note_off_c, 1, 70, 0
2, 8080, Note_on_c, 1, 72, 127
2, 8080, Note_on_c, 1, 77, 127
2, 8080, Note_on_c, 1, 80, 127
2, 8080, Note_on_c, 1, 89, 127
2, 8080, Note_on_c, 1, 92, 127
2, 8120, Note_off_c, 1, 66, 0
2, 8120, Note_off_c, 1, 72, 0
2, 8120, Note_off_c, 1, 77, 0
2, 8120, Note_off_c, 1, 80, 0
2, 8120, Note_off_c, 1, 89, 0
2, 8120, Note_off_c, 1, 92, 0
2, 8440, Note_on_c, 1, 33, 127
2, 8440, Note_on_c, 1, 45, 127
2, 8440, Note_on_c, 1, 67, 127
2, 8440, Note_on_c, 1, 73, 127
2, 8440, Note_on_c, 1, 79, 127
2, 8640, Note_off_c, 1, 33, 0
2, 8640, Note_off_c, 1, 45, 0
2, 8640, Note_off_c, 1, 67, 0
2, 8640, Note_off_c, 1, 73, 0
2, 8640, Note_off_c, 1, 79, 0
2, 8680, Note_on_c, 1, 33, 127
2, 8680, Note_on_c, 1, 45, 127
2, 8680, Note_on_c, 1, 67, 127
2, 8680, Note_on_c, 1, 73, 127
2, 8680, Note_on_c, 1, 79, 127
2, 8920, Note_off_c, 1, 33, 0
2, 8920, Note_off_c, 1, 45, 0
2, 8920, Note_off_c, 1, 67, 0
2, 8920, Note_off_c, 1, 73, 0
2, 8920, Note_off_c, 1, 79, 0
2, 8960, Note_on_c, 1, 33, 127
2, 8960, Note_on_c, 1, 45, 127
2, 8960, Note_on_c, 1, 67, 127
2, 8960, Note_on_c, 1, 73, 127
2, 8960, Note_on_c, 1, 79, 127
2, 9200, Note_off_c, 1, 33, 0
2, 9200, Note_off_c, 1, 45, 0
2, 9200, Note_off_c, 1, 67, 0
2, 9200, Note_off_c, 1, 73, 0
2, 9200, Note_off_c, 1, 79, 0
2, 9240, Note_on_c, 1, 33, 127
2, 9240, Note_on_c, 1, 45, 127
2, 9240, Note_on_c, 1, 67, 127
2, 9240, Note_on_c, 1, 73, 127
2, 9240, Note_on_c, 1, 79, 127
2, 9480, Note_off_c, 1, 33, 0
2, 9480, Note_off_c, 1, 45, 0
2, 9480, Note_off_c, 1, 67, 0
2, 9480, Note_off_c, 1, 73, 0
2, 9480, Note_off_c, 1, 79, 0
2, 9520, Note_on_c, 1, 33, 127
2, 9520, Note_on_c, 1, 45, 127
2, 9520, Note_on_c, 1, 67, 127
2, 9520, Note_on_c, 1, 73, 127
2, 9520, Note_on_c, 1, 79, 127
2, 9720, Note_off_c, 1, 33, 0
2, 9720, Note_off_c, 1, 45, 0
2, 9720, Note_off_c, 1, 67, 0
2, 9720, Note_off_c, 1, 73, 0
2, 9720, Note_off_c, 1, 79, 0
2, 9800, Note_on_c, 1, 33, 127
2, 9800, Note_on_c, 1, 45, 127
2, 9800, Note_on_c, 1, 67, 127
2, 9800, Note_on_c, 1, 73, 127
2, 9800, Note_on_c, 1, 79, 127
2, 10040, Note_off_c, 1, 33, 0
2, 10040, Note_off_c, 1, 45, 0
2, 10040, Note_off_c, 1, 67, 0
2, 10040, Note_off_c, 1, 73, 0
2, 10040, Note_off_c, 1, 79, 0
2, 10080, Note_on_c, 1, 33, 127
2, 10080, Note_on_c, 1, 45, 127
2, 10080, Note_on_c, 1, 67, 127
2, 10080, Note_on_c, 1, 73, 127
2, 10080, Note_on_c, 1, 79, 127
2, 10280, Note_off_c, 1, 33, 0
2, 10280, Note_off_c, 1, 45, 0
2, 10280, Note_off_c, 1, 67, 0
2, 10280, Note_off_c, 1, 73, 0
2, 10280, Note_off_c, 1, 79, 0
2, 10320, Note_on_c, 1, 33, 127
2, 10320, Note_on_c, 1, 45, 127
2, 10320, Note_on_c, 1, 67, 127
2, 10320, Note_on_c, 1, 73, 127
2, 10320, Note_on_c, 1, 79, 127
2, 10560, Note_off_c, 1, 33, 0
2, 10560, Note_off_c, 1, 45, 0
2, 10560, Note_off_c, 1, 67, 0
2, 10560, Note_off_c, 1, 73, 0
2, 10560, Note_off_c, 1, 79, 0
2, 10600, Note_on_c, 1, 41, 127
2, 10600, Note_on_c, 1, 53, 127
2, 10600, Note_on_c, 1, 60, 127
2, 10600, Note_on_c, 1, 70, 127
2, 10600, Note_on_c, 1, 72, 127
2, 10640, Note_on_c, 1, 40, 127
2, 10640, Note_off_c, 1, 41, 0
2, 10640, Note_on_c, 1, 52, 127
2, 10640, Note_off_c, 1, 53, 0
2, 10640, Note_off_c, 1, 60, 0
2, 10640, Note_off_c, 1, 70, 0
2, 10640, Note_off_c, 1, 72, 0
2, 10720, Note_off_c, 1, 40, 0
2, 10720, Note_on_c, 1, 44, 127
2, 10720, Note_off_c, 1, 52, 0
2, 10720, Note_on_c, 1, 56, 127
2, 10760, Note_on_c, 1, 40, 127
2, 10760, Note_off_c, 1, 44, 0
2, 10760, Note_on_c, 1, 52, 127
2, 10760, Note_off_c, 1, 56, 0
2, 10840, Note_off_c, 1, 40, 0
2, 10840, Note_off_c, 1, 52, 0
2, 10880, Note_on_c, 1, 40, 127
2, 10880, Note_on_c, 1, 52, 127
2, 10880, Note_on_c, 1, 58, 127
2, 10880, Note_on_c, 1, 60, 127
2, 10880, Note_on_c, 1, 67, 127
2, 10880, Note_on_c, 1, 70, 127
2, 10880, Note_on_c, 1, 72, 127
2, 10920, Note_off_c, 1, 58, 0
2, 10920, Note_off_c, 1, 60, 0
2, 10920, Note_off_c, 1, 67, 0
2, 10920, Note_off_c, 1, 70, 0
2, 10920, Note_off_c, 1, 72, 0
2, 11040, Note_on_c, 1, 67, 127
2, 11040, Note_on_c, 1, 76, 127
2, 11080, Note_off_c, 1, 40, 0
2, 11080, Note_off_c, 1, 52, 0
2, 11080, Note_off_c, 1, 67, 0
2, 11080, Note_off_c, 1, 76, 0
2, 11120, Note_on_c, 1, 59, 127
2, 11120, Note_on_c, 1, 71, 127
2, 11120, Note_on_c, 1, 79, 127
2, 11200, Note_off_c, 1, 59, 0
2, 11200, Note_off_c, 1, 71, 0
2, 11200, Note_off_c, 1, 79, 0
2, 11320, Note_on_c, 1, 52, 127
2, 11320, Note_on_c, 1, 76, 127
2, 11360, Note_off_c, 1, 52, 0
2, 11360, Note_off_c, 1, 76, 0
2, 11400, Note_on_c, 1, 35, 127
2, 11400, Note_on_c, 1, 39, 127
2, 11400, Note_on_c, 1, 47, 127
2, 11400, Note_on_c, 1, 68, 127
2, 11400, Note_on_c, 1, 80, 127
2, 11600, Note_off_c, 1, 35, 0
2, 11600, Note_off_c, 1, 39, 0
2, 11600, Note_off_c, 1, 47, 0
2, 11600, Note_off_c, 1, 68, 0
2, 11600, Note_off_c, 1, 80, 0
2, 11680, Note_on_c, 1, 47, 127
2, 11680, Note_on_c, 1, 50, 127
2, 11680, Note_on_c, 1, 69, 127
2, 11680, Note_on_c, 1, 81, 127
2, 11920, Note_off_c, 1, 47, 0
2, 11920, Note_off_c, 1, 50, 0
2, 11920, Note_off_c, 1, 69, 0
2, 11920, Note_off_c, 1, 81, 0
2, 11960, Note_on_c, 1, 64, 127
2, 11960, Note_on_c, 1, 69, 127
2, 11960, Note_on_c, 1, 73, 127
2, 11960, Note_on_c, 1, 81, 127
2, 11960, Note_on_c, 1, 85, 127
2, 12120, Note_off_c, 1, 64, 0
2, 12120, Note_off_c, 1, 69, 0
2, 12120, Note_off_c, 1, 73, 0
2, 12160, Note_on_c, 1, 64, 127
2, 12160, Note_on_c, 1, 69, 127
2, 12160, Note_on_c, 1, 73, 127
2, 12200, Note_off_c, 1, 64, 0
2, 12200, Note_off_c, 1, 69, 0
2, 12200, Note_off_c, 1, 73, 0
2, 12200, Note_off_c, 1, 81, 0
2, 12200, Note_off_c, 1, 85, 0
2, 12240, Note_on_c, 1, 39, 127
2, 12240, Note_on_c, 1, 51, 127
2, 12240, Note_on_c, 1, 68, 127
2, 12240, Note_on_c, 1, 71, 127
2, 12240, Note_on_c, 1, 80, 127
2, 12400, Note_off_c, 1, 39, 0
2, 12400, Note_on_c, 1, 44, 127
2, 12400, Note_on_c, 1, 47, 127
2, 12400, Note_off_c, 1, 51, 0
2, 12400, Note_on_c, 1, 52, 127
2, 12400, Note_off_c, 1, 68, 0
2, 12400, Note_off_c, 1, 71, 0
2, 12400, Note_off_c, 1, 80, 0
2, 12440, Note_off_c, 1, 44, 0
2, 12440, Note_off_c, 1, 47, 0
2, 12440, Note_off_c, 1, 52, 0
2, 12440, Note_on_c, 1, 57, 127
2, 12440, Note_on_c, 1, 86, 127
2, 12440, Note_on_c, 1, 92, 127
2, 12480, Note_off_c, 1, 57, 0
2, 12480, Note_off_c, 1, 86, 0
2, 12480, Note_off_c, 1, 92, 0
2, 12520, Note_on_c, 1, 48, 127
2, 12520, Note_on_c, 1, 59, 127
2, 12520, Note_on_c, 1, 77, 127
2, 12560, Note_off_c, 1, 48, 0
2, 12560, Note_off_c, 1, 59, 0
2, 12560, Note_on_c, 1, 68, 127
2, 12560, Note_on_c, 1, 71, 127
2, 12560, Note_on_c, 1, 76, 127
2, 12560, Note_off_c, 1, 77, 0
2, 12560, Note_on_c, 1, 88, 127
2, 12560, Note_on_c, 1, 100, 127
2, 12600, Note_on_c, 1, 60, 127
2, 12600, Note_off_c, 1, 71, 0
2, 12600, Note_off_c, 1, 76, 0
2, 12600, Note_off_c, 1, 88, 0
2, 12600, Note_off_c, 1, 100, 0
2, 12600, Note_on_c, 1, 104, 127
2, 12640, Note_on_c, 1, 45, 127
2, 12640, Note_on_c, 1, 52, 127
2, 12640, Note_on_c, 1, 55, 127
2, 12640, Note_on_c, 1, 57, 127
2, 12640, Note_off_c, 1, 60, 0
2, 12640, Note_off_c, 1, 68, 0
2, 12640, Note_on_c, 1, 73, 127
2, 12640, Note_on_c, 1, 76, 127
2, 12640, Note_on_c, 1, 85, 127
2, 12640, Note_off_c, 1, 104, 0
2, 12680, Note_off_c, 1, 45, 0
2, 12680, Note_off_c, 1, 52, 0
2, 12680, Note_off_c, 1, 55, 0
2, 12680, Note_off_c, 1, 57, 0
2, 12680, Note_off_c, 1, 73, 0
2, 12680, Note_off_c, 1, 76, 0
2, 12680, Note_on_c, 1, 80, 127
2, 12680, Note_off_c, 1, 85, 0
2, 12680, Note_on_c, 1, 88, 127
2, 12720, Note_on_c, 1, 56, 127
2, 12720, Note_on_c, 1, 69, 127
2, 12720, Note_on_c, 1, 75, 127
2, 12720, Note_on_c, 1, 77, 127
2, 12720, Note_off_c, 1, 80, 0
2, 12720, Note_off_c, 1, 88, 0
2, 12760, Note_off_c, 1, 56, 0
2, 12760, Note_off_c, 1, 69, 0
2, 12760, Note_off_c, 1, 75, 0
2, 12760, Note_off_c, 1, 77, 0
2, 12800, Note_on_c, 1, 59, 127
2, 12800, Note_on_c, 1, 83, 127
2, 12800, Note_on_c, 1, 86, 127
2, 12800, Note_on_c, 1, 90, 127
2, 12800, Note_on_c, 1, 95, 127
2, 13040, Note_off_c, 1, 59, 0
2, 13040, Note_off_c, 1, 83, 0
2, 13040, Note_off_c, 1, 86, 0
2, 13040, Note_off_c, 1, 90, 0
2, 13040, Note_off_c, 1, 95, 0
2, 13080, Note_on_c, 1, 51, 127
2, 13080, Note_on_c, 1, 83, 127
2, 13080, Note_on_c, 1, 87, 127
2, 13080, Note_on_c, 1, 95, 127
2, 13160, Note_off_c, 1, 51, 0
2, 13160, Note_on_c, 1, 78, 127
2, 13160, Note_off_c, 1, 83, 0
2, 13160, Note_on_c, 1, 94, 127
2, 13160, Note_off_c, 1, 95, 0
2, 13200, Note_on_c, 1, 51, 127
2, 13200, Note_off_c, 1, 78, 0
2, 13200, Note_on_c, 1, 83, 127
2, 13200, Note_off_c, 1, 94, 0
2, 13200, Note_on_c, 1, 95, 127
2, 13280, Note_off_c, 1, 51, 0
2, 13280, Note_off_c, 1, 83, 0
2, 13280, Note_off_c, 1, 87, 0
2, 13280, Note_off_c, 1, 95, 0
2, 13320, Note_on_c, 1, 51, 127
2, 13320, Note_on_c, 1, 56, 127
2, 13320, Note_on_c, 1, 60, 127
2, 13320, Note_on_c, 1, 63, 127
2, 13320, Note_on_c, 1, 68, 127
2, 13320, Note_on_c, 1, 72, 127
2, 13320, Note_on_c, 1, 75, 127
2, 13320, Note_on_c, 1, 80, 127
2, 13520, Note_off_c, 1, 51, 0
2, 13520, Note_off_c, 1, 56, 0
2, 13520, Note_off_c, 1, 60, 0
2, 13520, Note_off_c, 1, 63, 0
2, 13520, Note_off_c, 1, 68, 0
2, 13520, Note_off_c, 1, 72, 0
2, 13520, Note_off_c, 1, 75, 0
2, 13520, Note_off_c, 1, 80, 0
2, 13560, Note_on_c, 1, 51, 127
2, 13560, Note_on_c, 1, 56, 127
2, 13560, Note_on_c, 1, 60, 127
2, 13560, Note_on_c, 1, 63, 127
2, 13560, Note_on_c, 1, 68, 127
2, 13560, Note_on_c, 1, 72, 127
2, 13560, Note_on_c, 1, 75, 127
2, 13560, Note_on_c, 1, 80, 127
2, 13600, Note_off_c, 1, 51, 0
2, 13600, Note_off_c, 1, 56, 0
2, 13600, Note_off_c, 1, 60, 0
2, 13600, Note_off_c, 1, 63, 0
2, 13600, Note_off_c, 1, 68, 0
2, 13600, Note_off_c, 1, 72, 0
2, 13600, Note_off_c, 1, 75, 0
2, 13600, Note_off_c, 1, 80, 0
2, 13640, Note_on_c, 1, 56, 127
2, 13640, Note_on_c, 1, 59, 127
2, 13640, Note_on_c, 1, 65, 127
2, 13640, Note_on_c, 1, 71, 127
2, 13640, Note_on_c, 1, 73, 127
2, 13640, Note_on_c, 1, 77, 127
2, 13880, Note_off_c, 1, 56, 0
2, 13880, Note_off_c, 1, 59, 0
2, 13880, Note_off_c, 1, 65, 0
2, 13880, Note_off_c, 1, 71, 0
2, 13880, Note_off_c, 1, 73, 0
2, 13880, Note_off_c, 1, 77, 0
2, 13920, Note_on_c, 1, 56, 127
2, 13920, Note_on_c, 1, 59, 127
2, 13920, Note_on_c, 1, 65, 127
2, 13920, Note_on_c, 1, 71, 127
2, 13920, Note_on_c, 1, 73, 127
2, 13920, Note_on_c, 1, 77, 127
2, 14120, Note_off_c, 1, 56, 0
2, 14120, Note_off_c, 1, 59, 0
2, 14120, Note_off_c, 1, 65, 0
2, 14120, Note_off_c, 1, 71, 0
2, 14120, Note_off_c, 1, 73, 0
2, 14120, Note_off_c, 1, 77, 0
2, 14160, Note_on_c, 1, 56, 127
2, 14160, Note_on_c, 1, 59, 127
2, 14160, Note_on_c, 1, 71, 127
2, 14160, Note_on_c, 1, 73, 127
2, 14400, Note_off_c, 1, 56, 0
2, 14400, Note_off_c, 1, 59, 0
2, 14400, Note_off_c, 1, 71, 0
2, 14400, Note_off_c, 1, 73, 0
2, 14440, Note_on_c, 1, 55, 127
2, 14440, Note_on_c, 1, 62, 127
2, 14440, Note_on_c, 1, 64, 127
2, 14440, Note_on_c, 1, 67, 127
2, 14480, Note_on_c, 1, 37, 127
2, 14480, Note_on_c, 1, 42, 127
2, 14480, Note_on_c, 1, 45, 127
2, 14480, Note_on_c, 1, 49, 127
2, 14480, Note_off_c, 1, 55, 0
2, 14480, Note_off_c, 1, 62, 0
2, 14480, Note_off_c, 1, 64, 0
2, 14480, Note_off_c, 1, 67, 0
2, 14480, Note_on_c, 1, 85, 127
2, 14480, Note_on_c, 1, 90, 127
2, 14480, Note_on_c, 1, 93, 127
2, 14480, Note_on_c, 1, 97, 127
2, 14520, Note_off_c, 1, 37, 0
2, 14520, Note_off_c, 1, 42, 0
2, 14520, Note_off_c, 1, 45, 0
2, 14520, Note_off_c, 1, 49, 0
2, 14520, Note_on_c, 1, 54, 127
2, 14520, Note_on_c, 1, 62, 127
2, 14520, Note_on_c, 1, 72, 127
2, 14520, Note_on_c, 1, 74, 127
2, 14520, Note_on_c, 1, 84, 127
2, 14520, Note_off_c, 1, 85, 0
2, 14520, Note_off_c, 1, 90, 0
2, 14520, Note_off_c, 1, 93, 0
2, 14520, Note_off_c, 1, 97, 0
2, 14560, Note_on_c, 1, 49, 127
2, 14560, Note_off_c, 1, 54, 0
2, 14560, Note_on_c, 1, 58, 127
2, 14560, Note_on_c, 1, 61, 127
2, 14560, Note_off_c, 1, 62, 0
2, 14560, Note_on_c, 1, 66, 127
2, 14560, Note_off_c, 1, 72, 0
2, 14560, Note_off_c, 1, 74, 0
2, 14560, Note_on_c, 1, 75, 127
2, 14560, Note_off_c, 1, 84, 0
2, 14600, Note_off_c, 1, 49, 0
2, 14600, Note_on_c, 1, 55, 127
2, 14600, Note_off_c, 1, 58, 0
2, 14600, Note_on_c, 1, 60, 127
2, 14600, Note_off_c, 1, 61, 0
2, 14600, Note_on_c, 1, 64, 127
2, 14600, Note_off_c, 1, 66, 0
2, 14600, Note_on_c, 1, 67, 127
2, 14600, Note_off_c, 1, 75, 0
2, 14600, Note_on_c, 1, 93, 127
2, 14640, Note_off_c, 1, 55, 0
2, 14640, Note_off_c, 1, 60, 0
2, 14640, Note_off_c, 1, 64, 0
2, 14640, Note_off_c, 1, 67, 0
2, 14640, Note_off_c, 1, 93, 0
2, 14680, Note_on_c, 1, 56, 127
2, 14680, Note_on_c, 1, 71, 127
2, 14680, Note_on_c, 1, 83, 127
2, 14720, Note_on_c, 1, 54, 127
2, 14720, Note_off_c, 1, 56, 0
2, 14720, Note_on_c, 1, 58, 127
2, 14720, Note_on_c, 1, 64, 127
2, 14720, Note_off_c, 1, 71, 0
2, 14720, Note_on_c, 1, 73, 127
2, 14720, Note_on_c, 1, 76, 127
2, 14720, Note_off_c, 1, 83, 0
2, 14760, Note_on_c, 1, 36, 127
2, 14760, Note_on_c, 1, 43, 127
2, 14760, Note_on_c, 1, 48, 127
2, 14760, Note_off_c, 1, 54, 0
2, 14760, Note_off_c, 1, 58, 0
2, 14760, Note_off_c, 1, 64, 0
2, 14760, Note_off_c, 1, 73, 0
2, 14760, Note_off_c, 1, 76, 0
2, 14760, Note_on_c, 1, 79, 127
2, 14760, Note_on_c, 1, 84, 127
2, 14760, Note_on_c, 1, 91, 127
2, 14800, Note_off_c, 1, 36, 0
2, 14800, Note_off_c, 1, 43, 0
2, 14800, Note_off_c, 1, 48, 0
2, 14800, Note_on_c, 1, 76, 127
2, 14800, Note_on_c, 1, 78, 127
2, 14800, Note_off_c, 1, 79, 0
2, 14800, Note_on_c, 1, 82, 127
2, 14800, Note_off_c, 1, 84, 0
2, 14800, Note_off_c, 1, 91, 0
2, 14840, Note_on_c, 1, 54, 127
2, 14840, Note_on_c, 1, 69, 127
2, 14840, Note_on_c, 1, 73, 127
2, 14840, Note_off_c, 1, 76, 0
2, 14840, Note_off_c, 1, 78, 0
2, 14840, Note_on_c, 1, 81, 127
2, 14840, Note_off_c, 1, 82, 0
2, 14880, Note_on_c, 1, 58, 127
2, 14880, Note_on_c, 1, 64, 127
2, 14880, Note_off_c, 1, 69, 0
2, 14880, Note_on_c, 1, 76, 127
2, 14880, Note_off_c, 1, 81, 0
2, 14920, Note_off_c, 1, 54, 0
2, 14920, Note_off_c, 1, 58, 0
2, 14920, Note_off_c, 1, 64, 0
2, 14920, Note_off_c, 1, 73, 0
2, 14920, Note_off_c, 1, 76, 0
2, 14960, Note_on_c, 1, 43, 127
2, 14960, Note_on_c, 1, 51, 127
2, 14960, Note_on_c, 1, 55, 127
2, 14960, Note_on_c, 1, 60, 127
2, 14960, Note_on_c, 1, 63, 127
2, 14960, Note_on_c, 1, 67, 127
2, 14960, Note_on_c, 1, 75, 127
2, 15000, Note_off_c, 1, 43, 0
2, 15000, Note_off_c, 1, 51, 0
2, 15000, Note_off_c, 1, 55, 0
2, 15000, Note_off_c, 1, 60, 0
2, 15000, Note_off_c, 1, 63, 0
2, 15000, Note_off_c, 1, 67, 0
2, 15000, Note_on_c, 1, 71, 127
2, 15000, Note_off_c, 1, 75, 0
2, 15000, Note_on_c, 1, 76, 127
2, 15000, Note_on_c, 1, 78, 127
2, 15000, Note_on_c, 1, 85, 127
2, 15000, Note_on_c, 1, 90, 127
2, 15000, Note_on_c, 1, 95, 127
2, 15040, Note_on_c, 1, 52, 127
2, 15040, Note_on_c, 1, 56, 127
2, 15040, Note_on_c, 1, 61, 127
2, 15040, Note_on_c, 1, 68, 127
2, 15040, Note_off_c, 1, 71, 0
2, 15040, Note_off_c, 1, 78, 0
2, 15040, Note_off_c, 1, 85, 0
2, 15040, Note_off_c, 1, 90, 0
2, 15040, Note_off_c, 1, 95, 0
2, 15080, Note_off_c, 1, 52, 0
2, 15080, Note_off_c, 1, 56, 0
2, 15080, Note_off_c, 1, 61, 0
2, 15080, Note_off_c, 1, 68, 0
2, 15080, Note_off_c, 1, 76, 0
2, 15080, Note_on_c, 1, 82, 127
2, 15080, Note_on_c, 1, 87, 127
2, 15080, Note_on_c, 1, 89, 127
2, 15120, Note_off_c, 1, 82, 0
2, 15120, Note_off_c, 1, 89, 0
2, 15120, Note_on_c, 1, 95, 127
2, 15120, Note_on_c, 1, 99, 127
2, 15160, Note_on_c, 1, 44, 127
2, 15160, Note_on_c, 1, 48, 127
2, 15160, Note_on_c, 1, 51, 127
2, 15160, Note_on_c, 1, 56, 127
2, 15160, Note_on_c, 1, 63, 127
2, 15160, Note_on_c, 1, 68, 127
2, 15160, Note_on_c, 1, 72, 127
2, 15160, Note_on_c, 1, 75, 127
2, 15160, Note_off_c, 1, 87, 0
2, 15160, Note_off_c, 1, 95, 0
2, 15160, Note_off_c, 1, 99, 0
2, 15200, Note_off_c, 1, 44, 0
2, 15200, Note_off_c, 1, 48, 0
2, 15200, Note_off_c, 1, 51, 0
2, 15200, Note_off_c, 1, 56, 0
2, 15200, Note_off_c, 1, 63, 0
2, 15200, Note_off_c, 1, 68, 0
2, 15200, Note_off_c, 1, 72, 0
2, 15200, Note_off_c, 1, 75, 0
2, 15240, Note_on_c, 1, 34, 127
2, 15240, Note_on_c, 1, 46, 127
2, 15240, Note_on_c, 1, 55, 127
2, 15240, Note_on_c, 1, 63, 127
2, 15400, Note_on_c, 1, 32, 127
2, 15400, Note_off_c, 1, 34, 0
2, 15400, Note_on_c, 1, 44, 127
2, 15400, Note_off_c, 1, 46, 0
2, 15400, Note_on_c, 1, 49, 127
2, 15400, Note_off_c, 1, 55, 0
2, 15400, Note_on_c, 1, 56, 127
2, 15400, Note_on_c, 1, 58, 127
2, 15400, Note_off_c, 1, 63, 0
2, 15440, Note_off_c, 1, 32, 0
2, 15440, Note_off_c, 1, 44, 0
2, 15440, Note_off_c, 1, 49, 0
2, 15440, Note_off_c, 1, 56, 0
2, 15440, Note_off_c, 1, 58, 0
2, 15440, Note_on_c, 1, 63, 127
2, 15480, Note_on_c, 1, 45, 127
2, 15480, Note_off_c, 1, 63, 0
2, 15480, Note_on_c, 1, 77, 127
2, 15480, Note_on_c, 1, 83, 127
2, 15480, Note_on_c, 1, 89, 127
2, 15560, Note_off_c, 1, 45, 0
2, 15560, Note_off_c, 1, 77, 0
2, 15560, Note_off_c, 1, 83, 0
2, 15560, Note_off_c, 1, 89, 0
2, 15600, Note_on_c, 1, 45, 127
2, 15600, Note_on_c, 1, 77, 127
2, 15600, Note_on_c, 1, 83, 127
2, 15600, Note_on_c, 1, 89, 127
2, 15760, Note_off_c, 1, 45, 0
2, 15760, Note_off_c, 1, 77, 0
2, 15760, Note_off_c, 1, 83, 0
2, 15760, Note_off_c, 1, 89, 0
2, 15800, Note_on_c, 1, 49, 127
2, 15800, Note_on_c, 1, 68, 127
2, 15800, Note_on_c, 1, 77, 127
2, 15800, Note_on_c, 1, 80, 127
2, 15960, Note_off_c, 1, 49, 0
2, 16000, Note_off_c, 1, 68, 0
2, 16000, Note_off_c, 1, 77, 0
2, 16000, Note_off_c, 1, 80, 0
2, 16040, Note_on_c, 1, 62, 127
2, 16040, Note_on_c, 1, 66, 127
2, 16040, Note_on_c, 1, 74, 127
2, 16040, Note_on_c, 1, 78, 127
2, 16280, Note_off_c, 1, 62, 0
2, 16280, Note_off_c, 1, 66, 0
2, 16280, Note_off_c, 1, 74, 0
2, 16280, Note_off_c, 1, 78, 0
2, 16320, Note_on_c, 1, 61, 127
2, 16320, Note_on_c, 1, 65, 127
2, 16320, Note_on_c, 1, 73, 127
2, 16320, Note_on_c, 1, 77, 127
2, 16520, Note_off_c, 1, 61, 0
2, 16520, Note_off_c, 1, 65, 0
2, 16520, Note_off_c, 1, 73, 0
2, 16520, Note_off_c, 1, 77, 0
2, 16560, Note_on_c, 1, 60, 127
2, 16560, Note_on_c, 1, 64, 127
2, 16560, Note_on_c, 1, 67, 127
2, 16560, Note_on_c, 1, 70, 127
2, 16560, Note_on_c, 1, 76, 127
2, 16560, Note_on_c, 1, 79, 127
2, 16800, Note_off_c, 1, 60, 0
2, 16800, Note_off_c, 1, 64, 0
2, 16800, Note_off_c, 1, 67, 0
2, 16800, Note_off_c, 1, 70, 0
2, 16800, Note_off_c, 1, 76, 0
2, 16800, Note_off_c, 1, 79, 0
2, 16840, Note_on_c, 1, 60, 127
2, 16840, Note_on_c, 1, 64, 127
2, 16840, Note_on_c, 1, 67, 127
2, 16840, Note_on_c, 1, 70, 127
2, 16840, Note_on_c, 1, 76, 127
2, 16840, Note_on_c, 1, 79, 127
2, 17080, Note_off_c, 1, 60, 0
2, 17080, Note_off_c, 1, 64, 0
2, 17080, Note_off_c, 1, 67, 0
2, 17080, Note_off_c, 1, 70, 0
2, 17080, Note_off_c, 1, 76, 0
2, 17080, Note_off_c, 1, 79, 0
2, 17120, Note_on_c, 1, 60, 127
2, 17120, Note_on_c, 1, 64, 127
2, 17120, Note_on_c, 1, 67, 127
2, 17120, Note_on_c, 1, 70, 127
2, 17120, Note_on_c, 1, 76, 127
2, 17120, Note_on_c, 1, 79, 127
2, 17320, Note_off_c, 1, 60, 0
2, 17320, Note_off_c, 1, 64, 0
2, 17320, Note_off_c, 1, 67, 0
2, 17320, Note_off_c, 1, 70, 0
2, 17320, Note_off_c, 1, 76, 0
2, 17320, Note_off_c, 1, 79, 0
2, 17360, Note_on_c, 1, 63, 127
2, 17360, Note_on_c, 1, 67, 127
2, 17360, Note_on_c, 1, 70, 127
2, 17360, Note_on_c, 1, 75, 127
2, 17520, Note_off_c, 1, 63, 0
2, 17520, Note_off_c, 1, 67, 0
2, 17520, Note_off_c, 1, 70, 0
2, 17520, Note_off_c, 1, 75, 0
2, 17560, Note_on_c, 1, 63, 127
2, 17560, Note_on_c, 1, 67, 127
2, 17560, Note_on_c, 1, 70, 127
2, 17560, Note_on_c, 1, 75, 127
2, 17640, Note_off_c, 1, 63, 0
2, 17640, Note_off_c, 1, 67, 0
2, 17640, Note_off_c, 1, 70, 0
2, 17640, Note_off_c, 1, 75, 0
2, 17680, Note_on_c, 1, 37, 127
2, 17680, Note_on_c, 1, 40, 127
2, 17680, Note_on_c, 1, 45, 127
2, 17680, Note_on_c, 1, 49, 127
2, 18160, Note_off_c, 1, 37, 0
2, 18160, Note_off_c, 1, 40, 0
2, 18160, Note_off_c, 1, 45, 0
2, 18160, Note_off_c, 1, 49, 0
2, 18200, Note_on_c, 1, 52, 127
2, 18200, Note_on_c, 1, 61, 127
2, 18200, Note_on_c, 1, 64, 127
2, 18200, Note_on_c, 1, 69, 127
2, 18440, Note_off_c, 1, 61, 0
2, 18440, Note_off_c, 1, 64, 0
2, 18480, Note_on_c, 1, 62, 127
2, 18480, Note_on_c, 1, 66, 127
2, 18480, Note_off_c, 1, 69, 0
2, 18480, Note_on_c, 1, 71, 127
2, 18480, Note_on_c, 1, 76, 127
2, 19400, Note_on_c, 1, 30, 127
2, 19400, Note_on_c, 1, 35, 127
2, 19400, Note_on_c, 1, 37, 127
2, 19400, Note_off_c, 1, 52, 0
2, 19400, Note_off_c, 1, 62, 0
2, 19400, Note_off_c, 1, 66, 0
2, 19400, Note_off_c, 1, 71, 0
2, 19400, Note_on_c, 1, 72, 127
2, 19400, Note_off_c, 1, 76, 0
2, 19440, Note_off_c, 1, 30, 0
2, 19440, Note_off_c, 1, 35, 0
2, 19440, Note_off_c, 1, 37, 0
2, 19440, Note_off_c, 1, 72, 0
2, 19480, Note_on_c, 1, 52, 127
2, 19480, Note_on_c, 1, 62, 127
2, 19480, Note_on_c, 1, 66, 127
2, 19480, Note_on_c, 1, 71, 127
2, 19480, Note_on_c, 1, 76, 127
2, 20080, Note_off_c, 1, 62, 0
2, 20080, Note_off_c, 1, 66, 0
2, 20080, Note_off_c, 1, 71, 0
2, 20080, Note_off_c, 1, 76, 0
2, 20120, Note_on_c, 1, 62, 127
2, 20120, Note_on_c, 1, 66, 127
2, 20120, Note_on_c, 1, 71, 127
2, 20120, Note_on_c, 1, 76, 127
2, 20600, Note_off_c, 1, 76, 0
2, 20640, Note_on_c, 1, 76, 127
2, 21080, Note_on_c, 1, 61, 127
2, 21080, Note_off_c, 1, 62, 0
2, 21080, Note_on_c, 1, 64, 127
2, 21080, Note_off_c, 1, 66, 0
2, 21080, Note_on_c, 1, 69, 127
2, 21080, Note_off_c, 1, 71, 0
2, 21120, Note_off_c, 1, 52, 0
2, 21120, Note_off_c, 1, 61, 0
2, 21120, Note_off_c, 1, 64, 0
2, 21120, Note_off_c, 1, 69, 0
2, 21160, Note_on_c, 1, 52, 127
2, 21160, Note_on_c, 1, 62, 127
2, 21160, Note_on_c, 1, 66, 127
2, 21160, Note_on_c, 1, 71, 127
2, 21560, Note_off_c, 1, 52, 0
2, 21560, Note_off_c, 1, 62, 0
2, 21560, Note_off_c, 1, 66, 0
2, 21560, Note_off_c, 1, 71, 0
2, 21560, Note_off_c, 1, 76, 0
2, 21600, Note_on_c, 1, 52, 127
2, 21600, Note_on_c, 1, 62, 127
2, 21600, Note_on_c, 1, 66, 127
2, 21600, Note_on_c, 1, 71, 127
2, 21600, Note_on_c, 1, 76, 127
2, 23640, Note_off_c, 1, 52, 0
2, 23640, Note_off_c, 1, 62, 0
2, 23640, Note_off_c, 1, 66, 0
2, 23640, Note_off_c, 1, 71, 0
2, 23640, Note_off_c, 1, 76, 0
2, 23680, Note_on_c, 1, 52, 127
2, 23680, Note_on_c, 1, 62, 127
2, 23680, Note_on_c, 1, 66, 127
2, 23680, Note_on_c, 1, 71, 127
2, 23680, Note_on_c, 1, 76, 127
2, 24040, Note_off_c, 1, 76, 0
2, 24080, Note_on_c, 1, 76, 127
2, 25160, Note_off_c, 1, 52, 0
2, 25160, Note_off_c, 1, 62, 0
2, 25160, Note_off_c, 1, 66, 0
2, 25160, Note_off_c, 1, 71, 0
2, 25160, Note_off_c, 1, 76, 0
2, 25200, Note_on_c, 1, 52, 127
2, 25200, Note_on_c, 1, 61, 127
2, 25200, Note_on_c, 1, 64, 127
2, 25200, Note_on_c, 1, 69, 127
2, 25200, Note_on_c, 1, 76, 127
2, 25880, Note_off_c, 1, 52, 0
2, 25880, Note_off_c, 1, 61, 0
2, 25880, Note_off_c, 1, 64, 0
2, 25880, Note_off_c, 1, 69, 0
2, 25880, Note_off_c, 1, 76, 0
2, 25920, Note_on_c, 1, 52, 127
2, 25920, Note_on_c, 1, 61, 127
2, 25920, Note_on_c, 1, 64, 127
2, 25920, Note_on_c, 1, 69, 127
2, 25920, Note_on_c, 1, 76, 127
2, 26760, Note_off_c, 1, 61, 0
2, 26760, Note_on_c, 1, 62, 127
2, 26760, Note_off_c, 1, 64, 0
2, 26760, Note_on_c, 1, 66, 127
2, 26760, Note_off_c, 1, 69, 0
2, 26760, Note_on_c, 1, 71, 127
2, 27800, Note_off_c, 1, 76, 0
2, 27840, Note_on_c, 1, 76, 127
2, 28120, Note_off_c, 1, 52, 0
2, 28120, Note_off_c, 1, 62, 0
2, 28120, Note_off_c, 1, 66, 0
2, 28120, Note_off_c, 1, 71, 0
2, 28120, Note_off_c, 1, 76, 0
2, 28160, Note_on_c, 1, 52, 127
2, 28160, Note_on_c, 1, 62, 127
2, 28160, Note_on_c, 1, 66, 127
2, 28160, Note_on_c, 1, 71, 127
2, 28160, Note_on_c, 1, 76, 127
2, 29400, Note_off_c, 1, 52, 0
2, 29400, Note_on_c, 1, 57, 127
2, 29400, Note_off_c, 1, 62, 0
2, 29400, Note_on_c, 1, 64, 127
2, 29400, Note_off_c, 1, 66, 0
2, 29400, Note_off_c, 1, 71, 0
2, 29400, Note_on_c, 1, 72, 127
2, 29400, Note_off_c, 1, 76, 0
2, 29440, Note_on_c, 1, 26, 127
2, 29440, Note_on_c, 1, 38, 127
2, 29440, Note_off_c, 1, 57, 0
2, 29440, Note_off_c, 1, 64, 0
2, 29440, Note_off_c, 1, 72, 0
2, 29440, Note_on_c, 1, 78, 127
2, 29480, Note_off_c, 1, 26, 0
2, 29480, Note_off_c, 1, 38, 0
2, 29480, Note_on_c, 1, 47, 127
2, 29480, Note_on_c, 1, 52, 127
2, 29480, Note_on_c, 1, 55, 127
2, 29480, Note_on_c, 1, 59, 127
2, 29480, Note_on_c, 1, 64, 127
2, 29480, Note_on_c, 1, 71, 127
2, 29480, Note_off_c, 1, 78, 0
2, 29520, Note_on_c, 1, 26, 127
2, 29520, Note_on_c, 1, 38, 127
2, 29520, Note_off_c, 1, 47, 0
2, 29520, Note_off_c, 1, 52, 0
2, 29520, Note_off_c, 1, 55, 0
2, 29520, Note_off_c, 1, 59, 0
2, 29520, Note_off_c, 1, 64, 0
2, 29520, Note_off_c, 1, 71, 0
2, 29520, Note_on_c, 1, 78, 127
2, 29560, Note_off_c, 1, 26, 0
2, 29560, Note_on_c, 1, 31, 127
2, 29560, Note_off_c, 1, 38, 0
2, 29560, Note_on_c, 1, 43, 127
2, 29560, Note_on_c, 1, 51, 127
2, 29560, Note_off_c, 1, 78, 0
2, 29600, Note_off_c, 1, 31, 0
2, 29600, Note_on_c, 1, 33, 127
2, 29600, Note_off_c, 1, 43, 0
2, 29600, Note_on_c, 1, 45, 127
2, 29600, Note_off_c, 1, 51, 0
2, 29600, Note_on_c, 1, 63, 127
2, 29600, Note_on_c, 1, 72, 127
2, 29640, Note_on_c, 1, 30, 127
2, 29640, Note_off_c, 1, 33, 0
2, 29640, Note_on_c, 1, 42, 127
2, 29640, Note_off_c, 1, 45, 0
2, 29640, Note_off_c, 1, 63, 0
2, 29680, Note_on_c, 1, 29, 127
2, 29680, Note_off_c, 1, 30, 0
2, 29680, Note_on_c, 1, 41, 127
2, 29680, Note_off_c, 1, 42, 0
2, 29680, Note_on_c, 1, 63, 127
2, 29680, Note_off_c, 1, 72, 0
2, 29920, Note_off_c, 1, 29, 0
2, 29920, Note_off_c, 1, 41, 0
2, 29960, Note_on_c, 1, 37, 127
2, 29960, Note_on_c, 1, 49, 127
2, 29960, Note_off_c, 1, 63, 0
2, 29960, Note_on_c, 1, 78, 127
2, 29960, Note_on_c, 1, 90, 127
2, 30200, Note_off_c, 1, 37, 0
2, 30200, Note_off_c, 1, 49, 0
2, 30200, Note_off_c, 1, 78, 0
2, 30200, Note_off_c, 1, 90, 0
2, 30240, Note_on_c, 1, 37, 127
2, 30240, Note_on_c, 1, 49, 127
2, 30240, Note_on_c, 1, 78, 127
2, 30240, Note_on_c, 1, 90, 127
2, 30480, Note_off_c, 1, 37, 0
2, 30480, Note_off_c, 1, 49, 0
2, 30480, Note_off_c, 1, 78, 0
2, 30480, Note_off_c, 1, 90, 0
2, 30520, Note_on_c, 1, 37, 127
2, 30520, Note_on_c, 1, 49, 127
2, 30520, Note_on_c, 1, 64, 127
2, 30520, Note_on_c, 1, 71, 127
2, 31000, Note_off_c, 1, 64, 0
2, 31000, Note_on_c, 1, 66, 127
2, 31000, Note_off_c, 1, 71, 0
2, 31040, Note_on_c, 1, 35, 127
2, 31040, Note_off_c, 1, 37, 0
2, 31040, Note_on_c, 1, 47, 127
2, 31040, Note_off_c, 1, 49, 0
2, 31040, Note_on_c, 1, 62, 127
2, 31040, Note_on_c, 1, 69, 127
2, 31200, Note_off_c, 1, 62, 0
2, 31200, Note_on_c, 1, 63, 127
2, 31240, Note_off_c, 1, 63, 0
2, 31520, Note_off_c, 1, 35, 0
2, 31520, Note_off_c, 1, 47, 0
2, 31520, Note_off_c, 1, 66, 0
2, 31520, Note_off_c, 1, 69, 0
2, 31560, Note_on_c, 1, 28, 127
2, 31560, Note_on_c, 1, 40, 127
2, 31560, Note_on_c, 1, 52, 127
2, 32280, Note_off_c, 1, 28, 0
2, 32280, Note_off_c, 1, 40, 0
2, 32280, Note_off_c, 1, 52, 0
2, 32320, Note_on_c, 1, 28, 127
2, 32320, Note_on_c, 1, 40, 127
2, 32320, Note_on_c, 1, 52, 127
2, 33080, Note_off_c, 1, 28, 0
2, 33080, Note_off_c, 1, 40, 0
2, 33080, Note_on_c, 1, 56, 127
2, 33080, Note_on_c, 1, 68, 127
2, 33560, Note_off_c, 1, 52, 0
2, 33560, Note_off_c, 1, 56, 0
2, 33560, Note_off_c, 1, 68, 0
2, 33600, Note_on_c, 1, 35, 127
2, 33600, Note_on_c, 1, 47, 127
2, 33600, Note_on_c, 1, 80, 127
2, 33760, Note_off_c, 1, 80, 0
2, 33760, Note_on_c, 1, 92, 127
2, 33800, Note_on_c, 1, 83, 127
2, 33800, Note_off_c, 1, 92, 0
2, 34000, Note_off_c, 1, 83, 0
2, 34040, Note_on_c, 1, 83, 127
2, 34080, Note_off_c, 1, 83, 0
2, 34080, Note_on_c, 1, 87, 127
2, 34440, Note_off_c, 1, 35, 0
2, 34440, Note_off_c, 1, 47, 0
2, 34440, Note_off_c, 1, 87, 0
2, 34480, Note_on_c, 1, 35, 127
2, 34480, Note_on_c, 1, 47, 127
2, 34520, Note_on_c, 1, 91, 127
2, 34560, Note_off_c, 1, 91, 0
2, 34560, Note_on_c, 1, 92, 127
2, 34640, Note_on_c, 1, 91, 127
2, 34640, Note_off_c, 1, 92, 0
2, 34840, Note_off_c, 1, 35, 0
2, 34840, Note_on_c, 1, 45, 127
2, 34840, Note_off_c, 1, 47, 0
2, 34840, Note_on_c, 1, 57, 127
2, 34840, Note_on_c, 1, 73, 127
2, 34840, Note_on_c, 1, 79, 127
2, 34840, Note_off_c, 1, 91, 0
2, 34880, Note_off_c, 1, 45, 0
2, 34880, Note_off_c, 1, 57, 0
2, 34880, Note_off_c, 1, 73, 0
2, 34880, Note_off_c, 1, 79, 0
2, 34920, Note_on_c, 1, 35, 127
2, 34920, Note_on_c, 1, 47, 127
2, 34920, Note_on_c, 1, 84, 127
2, 35360, Note_on_c, 1, 72, 127
2, 35360, Note_off_c, 1, 84, 0
2, 35440, Note_off_c, 1, 72, 0
2, 35440, Note_on_c, 1, 84, 127
2, 36000, Note_on_c, 1, 72, 127
2, 36000, Note_off_c, 1, 84, 0
2, 36640, Note_off_c, 1, 35, 0
2, 36640, Note_off_c, 1, 47, 0
2, 36640, Note_off_c, 1, 72, 0
2, 36680, Note_on_c, 1, 35, 127
2, 36680, Note_on_c, 1, 47, 127
2, 36680, Note_on_c, 1, 72, 127
2, 36800, Note_off_c, 1, 35, 0
2, 36800, Note_off_c, 1, 72, 0
2, 36840, Note_on_c, 1, 35, 127
2, 36840, Note_off_c, 1, 47, 0
2, 36840, Note_on_c, 1, 51, 127
2, 37440, Note_off_c, 1, 35, 0
2, 37440, Note_on_c, 1, 40, 127
2, 37440, Note_off_c, 1, 51, 0
2, 37440, Note_on_c, 1, 52, 127
2, 37440, Note_on_c, 1, 71, 127
2, 37440, Note_on_c, 1, 76, 127
2, 37440, Note_on_c, 1, 80, 127
2, 37480, Note_off_c, 1, 40, 0
2, 37480, Note_on_c, 1, 47, 127
2, 37480, Note_off_c, 1, 52, 0
2, 37480, Note_on_c, 1, 59, 127
2, 37480, Note_off_c, 1, 76, 0
2, 37480, Note_on_c, 1, 79, 127
2, 37480, Note_off_c, 1, 80, 0
2, 37520, Note_on_c, 1, 40, 127
2, 37520, Note_off_c, 1, 47, 0
2, 37520, Note_on_c, 1, 52, 127
2, 37520, Note_off_c, 1, 59, 0
2, 37520, Note_on_c, 1, 76, 127
2, 37520, Note_off_c, 1, 79, 0
2, 37520, Note_on_c, 1, 80, 127
2, 37920, Note_off_c, 1, 40, 0
2, 37920, Note_on_c, 1, 43, 127
2, 37920, Note_on_c, 1, 47, 127
2, 37920, Note_off_c, 1, 52, 0
2, 37920, Note_off_c, 1, 71, 0
2, 37920, Note_off_c, 1, 76, 0
2, 37920, Note_off_c, 1, 80, 0
2, 37960, Note_off_c, 1, 43, 0
2, 37960, Note_off_c, 1, 47, 0
2, 37960, Note_on_c, 1, 68, 127
2, 37960, Note_on_c, 1, 90, 127
2, 37960, Note_on_c, 1, 92, 127
2, 37960, Note_on_c, 1, 95, 127
2, 37960, Note_on_c, 1, 98, 127
2, 37960, Note_on_c, 1, 102, 127
2, 38400, Note_off_c, 1, 68, 0
2, 38400, Note_off_c, 1, 90, 0
2, 38400, Note_off_c, 1, 92, 0
2, 38400, Note_off_c, 1, 95, 0
2, 38400, Note_off_c, 1, 98, 0
2, 38400, Note_off_c, 1, 102, 0
2, 38440, Note_on_c, 1, 59, 127
2, 38440, Note_on_c, 1, 66, 127
2, 38440, Note_on_c, 1, 71, 127
2, 38440, Note_on_c, 1, 75, 127
2, 38440, Note_on_c, 1, 83, 127
2, 38840, Note_off_c, 1, 59, 0
2, 38840, Note_off_c, 1, 66, 0
2, 38840, Note_off_c, 1, 71, 0
2, 38840, Note_off_c, 1, 75, 0
2, 38840, Note_off_c, 1, 83, 0
2, 38880, Note_on_c, 1, 59, 127
2, 38880, Note_on_c, 1, 66, 127
2, 38880, Note_on_c, 1, 71, 127
2, 38880, Note_on_c, 1, 75, 127
2, 38880, Note_on_c, 1, 83, 127
2, 41000, Note_off_c, 1, 59, 0
2, 41000, Note_off_c, 1, 66, 0
2, 41000, Note_off_c, 1, 71, 0
2, 41000, Note_off_c, 1, 75, 0
2, 41000, Note_off_c, 1, 83, 0
2, 41040, Note_on_c, 1, 59, 127
2, 41040, Note_on_c, 1, 66, 127
2, 41040, Note_on_c, 1, 71, 127
2, 41040, Note_on_c, 1, 75, 127
2, 41040, Note_on_c, 1, 83, 127
2, 42320, Note_on_c, 1, 64, 127
2, 42320, Note_off_c, 1, 66, 0
2, 42320, Note_on_c, 1, 68, 127
2, 42320, Note_off_c, 1, 71, 0
2, 42320, Note_off_c, 1, 75, 0
2, 42320, Note_on_c, 1, 76, 127
2, 42320, Note_on_c, 1, 80, 127
2, 42320, Note_off_c, 1, 83, 0
2, 42360, Note_off_c, 1, 64, 0
2, 42360, Note_on_c, 1, 66, 127
2, 42360, Note_off_c, 1, 68, 0
2, 42360, Note_on_c, 1, 71, 127
2, 42360, Note_on_c, 1, 75, 127
2, 42360, Note_off_c, 1, 76, 0
2, 42360, Note_off_c, 1, 80, 0
2, 42360, Note_on_c, 1, 83, 127
2, 43240, Note_off_c, 1, 59, 0
2, 43240, Note_off_c, 1, 66, 0
2, 43240, Note_off_c, 1, 71, 0
2, 43240, Note_off_c, 1, 75, 0
2, 43240, Note_off_c, 1, 83, 0
2, 43320, Note_on_c, 1, 75, 127
2, 44280, Note_off_c, 1, 75, 0
2, 44320, Note_on_c, 1, 73, 127
2, 45120, Note_off_c, 1, 73, 0
2, 45160, Note_on_c, 1, 71, 127
2, 45440, Note_off_c, 1, 71, 0
2, 45480, Note_on_c, 1, 71, 127
2, 46360, Note_off_c, 1, 71, 0
2, 47280, Note_on_c, 1, 59, 127
2, 47280, Note_on_c, 1, 66, 127
2, 47280, Note_on_c, 1, 71, 127
2, 47280, Note_on_c, 1, 75, 127
2, 48080, Note_off_c, 1, 59, 0
2, 48080, Note_off_c, 1, 66, 0
2, 48080, Note_off_c, 1, 71, 0
2, 48080, Note_off_c, 1, 75, 0
2, 48120, Note_on_c, 1, 59, 127
2, 48120, Note_on_c, 1, 66, 127
2, 48120, Note_on_c, 1, 71, 127
2, 48120, Note_on_c, 1, 75, 127
2, 48520, Note_off_c, 1, 59, 0
2, 48520, Note_off_c, 1, 66, 0
2, 48520, Note_off_c, 1, 71, 0
2, 48520, Note_off_c, 1, 75, 0
2, 48560, Note_on_c, 1, 59, 127
2, 48560, Note_on_c, 1, 66, 127
2, 48560, Note_on_c, 1, 71, 127
2, 48560, Note_on_c, 1, 75, 127
2, 49760, Note_off_c, 1, 66, 0
2, 49760, Note_off_c, 1, 71, 0
2, 49760, Note_off_c, 1, 75, 0
2, 49800, Note_off_c, 1, 59, 0
2, 49800, Note_on_c, 1, 71, 127
2, 49800, Note_on_c, 1, 87, 127
2, 49840, Note_on_c, 1, 59, 127
2, 49840, Note_on_c, 1, 63, 127
2, 49840, Note_on_c, 1, 66, 127
2, 49840, Note_on_c, 1, 75, 127
2, 49840, Note_off_c, 1, 87, 0
2, 49880, Note_off_c, 1, 59, 0
2, 49880, Note_off_c, 1, 63, 0
2, 49880, Note_off_c, 1, 66, 0
2, 49880, Note_off_c, 1, 75, 0
2, 49880, Note_on_c, 1, 87, 127
2, 50560, Note_on_c, 1, 57, 127
2, 50560, Note_off_c, 1, 71, 0
2, 50560, Note_on_c, 1, 78, 127
2, 50560, Note_on_c, 1, 85, 127
2, 50560, Note_off_c, 1, 87, 0
2, 50600, Note_off_c, 1, 57, 0
2, 50600, Note_off_c, 1, 78, 0
2, 50600, Note_off_c, 1, 85, 0
2, 50640, Note_on_c, 1, 75, 127
2, 50640, Note_on_c, 1, 83, 127
2, 51200, Note_on_c, 1, 67, 127
2, 51200, Note_on_c, 1, 71, 127
2, 51200, Note_on_c, 1, 74, 127
2, 51200, Note_off_c, 1, 75, 0
2, 51200, Note_on_c, 1, 80, 127
2, 51200, Note_off_c, 1, 83, 0
2, 51200, Note_on_c, 1, 85, 127
2, 51240, Note_on_c, 1, 47, 127
2, 51240, Note_on_c, 1, 49, 127
2, 51240, Note_on_c, 1, 53, 127
2, 51240, Note_on_c, 1, 56, 127
2, 51240, Note_off_c, 1, 67, 0
2, 51240, Note_off_c, 1, 71, 0
2, 51240, Note_off_c, 1, 74, 0
2, 51240, Note_off_c, 1, 80, 0
2, 51240, Note_off_c, 1, 85, 0
2, 51280, Note_off_c, 1, 47, 0
2, 51280, Note_off_c, 1, 49, 0
2, 51280, Note_off_c, 1, 53, 0
2, 51280, Note_off_c, 1, 56, 0
2, 51320, Note_on_c, 1, 43, 127
2, 51320, Note_on_c, 1, 46, 127
2, 51320, Note_on_c, 1, 50, 127
2, 51320, Note_on_c, 1, 67, 127
2, 51320, Note_on_c, 1, 70, 127
2, 51320, Note_on_c, 1, 74, 127
2, 51360, Note_off_c, 1, 43, 0
2, 51360, Note_on_c, 1, 44, 127
2, 51360, Note_off_c, 1, 46, 0
2, 51360, Note_on_c, 1, 49, 127
2, 51360, Note_off_c, 1, 50, 0
2, 51360, Note_on_c, 1, 53, 127
2, 51360, Note_on_c, 1, 59, 127
2, 51360, Note_on_c, 1, 61, 127
2, 51360, Note_on_c, 1, 65, 127
2, 51360, Note_off_c, 1, 67, 0
2, 51360, Note_off_c, 1, 70, 0
2, 51360, Note_on_c, 1, 73, 127
2, 51360, Note_off_c, 1, 74, 0
2, 51400, Note_off_c, 1, 44, 0
2, 51400, Note_off_c, 1, 49, 0
2, 51400, Note_on_c, 1, 52, 127
2, 51400, Note_off_c, 1, 53, 0
2, 51400, Note_off_c, 1, 61, 0
2, 51400, Note_on_c, 1, 62, 127
2, 51400, Note_off_c, 1, 65, 0
2, 51400, Note_on_c, 1, 66, 127
2, 51400, Note_off_c, 1, 73, 0
2, 51400, Note_on_c, 1, 90, 127
2, 51440, Note_on_c, 1, 42, 127
2, 51440, Note_on_c, 1, 47, 127
2, 51440, Note_on_c, 1, 51, 127
2, 51440, Note_off_c, 1, 52, 0
2, 51440, Note_off_c, 1, 59, 0
2, 51440, Note_off_c, 1, 62, 0
2, 51440, Note_off_c, 1, 66, 0
2, 51440, Note_off_c, 1, 90, 0
2, 51480, Note_on_c, 1, 35, 127
2, 51480, Note_off_c, 1, 47, 0
2, 51480, Note_off_c, 1, 51, 0
2, 51480, Note_on_c, 1, 62, 127
2, 51480, Note_on_c, 1, 66, 127
2, 51480, Note_on_c, 1, 69, 127
2, 51520, Note_off_c, 1, 35, 0
2, 51520, Note_off_c, 1, 42, 0
2, 51520, Note_on_c, 1, 58, 127
2, 51520, Note_off_c, 1, 62, 0
2, 51520, Note_off_c, 1, 66, 0
2, 51520, Note_on_c, 1, 67, 127
2, 51520, Note_off_c, 1, 69, 0
2, 51520, Note_on_c, 1, 70, 127
2, 51520, Note_on_c, 1, 74, 127
2, 51520, Note_on_c, 1, 75, 127
2, 51520, Note_on_c, 1, 79, 127
2, 51520, Note_on_c, 1, 84, 127
2, 51560, Note_on_c, 1, 44, 127
2, 51560, Note_off_c, 1, 58, 0
2, 51560, Note_on_c, 1, 59, 127
2, 51560, Note_on_c, 1, 64, 127
2, 51560, Note_off_c, 1, 67, 0
2, 51560, Note_off_c, 1, 70, 0
2, 51560, Note_on_c, 1, 71, 127
2, 51560, Note_off_c, 1, 74, 0
2, 51560, Note_off_c, 1, 75, 0
2, 51560, Note_on_c, 1, 76, 127
2, 51560, Note_off_c, 1, 79, 0
2, 51560, Note_off_c, 1, 84, 0
2, 51600, Note_on_c, 1, 42, 127
2, 51600, Note_off_c, 1, 44, 0
2, 51600, Note_on_c, 1, 49, 127
2, 51600, Note_on_c, 1, 52, 127
2, 51600, Note_on_c, 1, 58, 127
2, 51600, Note_off_c, 1, 59, 0
2, 51600, Note_off_c, 1, 71, 0
2, 51600, Note_off_c, 1, 76, 0
2, 51640, Note_off_c, 1, 42, 0
2, 51640, Note_off_c, 1, 49, 0
2, 51640, Note_off_c, 1, 52, 0
2, 51640, Note_on_c, 1, 61, 127
2, 51640, Note_off_c, 1, 64, 0
2, 51640, Note_on_c, 1, 67, 127
2, 51640, Note_on_c, 1, 84, 127
2, 51680, Note_on_c, 1, 37, 127
2, 51680, Note_on_c, 1, 42, 127
2, 51680, Note_on_c, 1, 46, 127
2, 51680, Note_on_c, 1, 49, 127
2, 51680, Note_off_c, 1, 58, 0
2, 51680, Note_off_c, 1, 61, 0
2, 51680, Note_off_c, 1, 67, 0
2, 51680, Note_off_c, 1, 84, 0
2, 51720, Note_off_c, 1, 37, 0
2, 51720, Note_off_c, 1, 46, 0
2, 51720, Note_off_c, 1, 49, 0
2, 51720, Note_on_c, 1, 54, 127
2, 51720, Note_on_c, 1, 58, 127
2, 51720, Note_on_c, 1, 64, 127
2, 51760, Note_off_c, 1, 42, 0
2, 51760, Note_on_c, 1, 44, 127
2, 51760, Note_on_c, 1, 49, 127
2, 51760, Note_off_c, 1, 54, 0
2, 51760, Note_on_c, 1, 56, 127
2, 51760, Note_off_c, 1, 58, 0
2, 51760, Note_on_c, 1, 61, 127
2, 51760, Note_off_c, 1, 64, 0
2, 51760, Note_on_c, 1, 68, 127
2, 51760, Note_on_c, 1, 69, 127
2, 51800, Note_off_c, 1, 44, 0
2, 51800, Note_off_c, 1, 49, 0
2, 51800, Note_off_c, 1, 61, 0
2, 51800, Note_on_c, 1, 62, 127
2, 51800, Note_off_c, 1, 68, 0
2, 51800, Note_off_c, 1, 69, 0
2, 51800, Note_on_c, 1, 83, 127
2, 51800, Note_on_c, 1, 91, 127
2, 51840, Note_on_c, 1, 45, 127
2, 51840, Note_on_c, 1, 49, 127
2, 51840, Note_on_c, 1, 52, 127
2, 51840, Note_off_c, 1, 56, 0
2, 51840, Note_on_c, 1, 57, 127
2, 51840, Note_off_c, 1, 62, 0
2, 51840, Note_on_c, 1, 73, 127
2, 51840, Note_off_c, 1, 83, 0
2, 51840, Note_off_c, 1, 91, 0
2, 51880, Note_off_c, 1, 45, 0
2, 51880, Note_on_c, 1, 48, 127
2, 51880, Note_off_c, 1, 49, 0
2, 51880, Note_on_c, 1, 60, 127
2, 51880, Note_off_c, 1, 73, 0
2, 51920, Note_off_c, 1, 48, 0
2, 51920, Note_off_c, 1, 52, 0
2, 51920, Note_on_c, 1, 53, 127
2, 51920, Note_off_c, 1, 57, 0
2, 51920, Note_on_c, 1, 58, 127
2, 51920, Note_off_c, 1, 60, 0
2, 51920, Note_on_c, 1, 80, 127
2, 51920, Note_on_c, 1, 87, 127
2, 51960, Note_on_c, 1, 52, 127
2, 51960, Note_off_c, 1, 53, 0
2, 51960, Note_off_c, 1, 58, 0
2, 51960, Note_on_c, 1, 59, 127
2, 51960, Note_on_c, 1, 68, 127
2, 51960, Note_on_c, 1, 75, 127
2, 51960, Note_off_c, 1, 87, 0
2, 52000, Note_on_c, 1, 46, 127
2, 52000, Note_on_c, 1, 51, 127
2, 52000, Note_off_c, 1, 52, 0
2, 52000, Note_on_c, 1, 54, 127
2, 52000, Note_on_c, 1, 58, 127
2, 52000, Note_off_c, 1, 59, 0
2, 52000, Note_on_c, 1, 66, 127
2, 52000, Note_off_c, 1, 68, 0
2, 52000, Note_off_c, 1, 75, 0
2, 52000, Note_off_c, 1, 80, 0
2, 52040, Note_off_c, 1, 46, 0
2, 52040, Note_off_c, 1, 51, 0
2, 52040, Note_off_c, 1, 54, 0
2, 52040, Note_off_c, 1, 58, 0
2, 52040, Note_on_c, 1, 59, 127
2, 52040, Note_off_c, 1, 66, 0
2, 52040, Note_on_c, 1, 67, 127
2, 52040, Note_on_c, 1, 71, 127
2, 52040, Note_on_c, 1, 76, 127
2, 52040, Note_on_c, 1, 79, 127
2, 52040, Note_on_c, 1, 83, 127
2, 52080, Note_on_c, 1, 47, 127
2, 52080, Note_on_c, 1, 51, 127
2, 52080, Note_on_c, 1, 54, 127
2, 52080, Note_off_c, 1, 59, 0
2, 52080, Note_off_c, 1, 67, 0
2, 52080, Note_off_c, 1, 71, 0
2, 52080, Note_off_c, 1, 76, 0
2, 52080, Note_on_c, 1, 78, 127
2, 52080, Note_off_c, 1, 79, 0
2, 52080, Note_off_c, 1, 83, 0
2, 52120, Note_on_c, 1, 33, 127
2, 52120, Note_on_c, 1, 38, 127
2, 52120, Note_on_c, 1, 45, 127
2, 52120, Note_off_c, 1, 47, 0
2, 52120, Note_off_c, 1, 51, 0
2, 52120, Note_on_c, 1, 53, 127
2, 52120, Note_off_c, 1, 54, 0
2, 52120, Note_off_c, 1, 78, 0
2, 52160, Note_off_c, 1, 33, 0
2, 52160, Note_off_c, 1, 38, 0
2, 52160, Note_off_c, 1, 45, 0
2, 52160, Note_off_c, 1, 53, 0
2, 52160, Note_on_c, 1, 91, 127
2, 52160, Note_on_c, 1, 94, 127
2, 52160, Note_on_c, 1, 99, 127
2, 52200, Note_on_c, 1, 46, 127
2, 52200, Note_on_c, 1, 52, 127
2, 52200, Note_on_c, 1, 55, 127
2, 52200, Note_on_c, 1, 79, 127
2, 52200, Note_off_c, 1, 91, 0
2, 52200, Note_off_c, 1, 94, 0
2, 52200, Note_off_c, 1, 99, 0
2, 52240, Note_on_c, 1, 38, 127
2, 52240, Note_on_c, 1, 40, 127
2, 52240, Note_on_c, 1, 43, 127
2, 52240, Note_off_c, 1, 46, 0
2, 52240, Note_on_c, 1, 50, 127
2, 52240, Note_off_c, 1, 52, 0
2, 52240, Note_off_c, 1, 55, 0
2, 52240, Note_on_c, 1, 74, 127
2, 52240, Note_off_c, 1, 79, 0
2, 52280, Note_off_c, 1, 38, 0
2, 52280, Note_off_c, 1, 40, 0
2, 52280, Note_off_c, 1, 43, 0
2, 52280, Note_on_c, 1, 48, 127
2, 52280, Note_off_c, 1, 50, 0
2, 52280, Note_on_c, 1, 51, 127
2, 52280, Note_off_c, 1, 74, 0
2, 52280, Note_on_c, 1, 89, 127
2, 52320, Note_on_c, 1, 36, 127
2, 52320, Note_off_c, 1, 51, 0
2, 52320, Note_on_c, 1, 82, 127
2, 52320, Note_on_c, 1, 85, 127
2, 52360, Note_off_c, 1, 36, 0
2, 52360, Note_off_c, 1, 48, 0
2, 52360, Note_off_c, 1, 82, 0
2, 52360, Note_off_c, 1, 85, 0
2, 52360, Note_off_c, 1, 89, 0
2, 52360, Note_on_c, 1, 99, 127
2, 52360, Note_on_c, 1, 104, 127
2, 52400, Note_on_c, 1, 56, 127
2, 52400, Note_on_c, 1, 75, 127
2, 52400, Note_on_c, 1, 82, 127
2, 52400, Note_on_c, 1, 85, 127
2, 52400, Note_off_c, 1, 99, 0
2, 52400, Note_off_c, 1, 104, 0
2, 52440, Note_on_c, 1, 53, 127
2, 52440, Note_off_c, 1, 56, 0
2, 52440, Note_on_c, 1, 59, 127
2, 52440, Note_on_c, 1, 63, 127
2, 52440, Note_off_c, 1, 75, 0
2, 52440, Note_off_c, 1, 82, 0
2, 52440, Note_off_c, 1, 85, 0
2, 52440, Note_on_c, 1, 99, 127
2, 52440, Note_on_c, 1, 101, 127
2, 52480, Note_on_c, 1, 50, 127
2, 52480, Note_off_c, 1, 53, 0
2, 52480, Note_on_c, 1, 54, 127
2, 52480, Note_off_c, 1, 59, 0
2, 52480, Note_on_c, 1, 62, 127
2, 52480, Note_off_c, 1, 63, 0
2, 52480, Note_on_c, 1, 85, 127
2, 52480, Note_off_c, 1, 99, 0
2, 52480, Note_off_c, 1, 101, 0
2, 52520, Note_off_c, 1, 50, 0
2, 52520, Note_off_c, 1, 54, 0
2, 52520, Note_off_c, 1, 62, 0
2, 52520, Note_off_c, 1, 85, 0
2, 52560, Note_on_c, 1, 52, 127
2, 52680, Note_off_c, 1, 52, 0
2, 52720, Note_on_c, 1, 47, 127
2, 53040, Note_off_c, 1, 47, 0
2, 53080, Note_on_c, 1, 47, 127
2, 53480, Note_off_c, 1, 47, 0
2, 53520, Note_on_c, 1, 47, 127
2, 53520, Note_on_c, 1, 59, 127
2, 53520, Note_on_c, 1, 63, 127
2, 53520, Note_on_c, 1, 66, 127
2, 53520, Note_on_c, 1, 71, 127
2, 53880, Note_off_c, 1, 59, 0
2, 53880, Note_off_c, 1, 63, 0
2, 53880, Note_off_c, 1, 66, 0
2, 53880, Note_off_c, 1, 71, 0
2, 53920, Note_on_c, 1, 52, 127
2, 54280, Note_off_c, 1, 52, 0
2, 54320, Note_on_c, 1, 54, 127
2, 55760, Note_off_c, 1, 47, 0
2, 55760, Note_off_c, 1, 54, 0
2, 55800, Note_on_c, 1, 47, 127
2, 55800, Note_on_c, 1, 54, 127
2, 56960, Note_off_c, 1, 47, 0
2, 58000, Note_off_c, 1, 54, 0
2, 58040, Note_on_c, 1, 54, 127
2, 59960, Note_off_c, 1, 54, 0
2, 60000, Note_on_c, 1, 54, 127
2, 61880, Note_off_c, 1, 54, 0
2, 61880, Note_on_c, 1, 68, 127
2, 61880, Note_on_c, 1, 89, 127
2, 61880, Note_on_c, 1, 97, 127
2, 61920, Note_on_c, 1, 41, 127
2, 61920, Note_on_c, 1, 53, 127
2, 61920, Note_off_c, 1, 68, 0
2, 61920, Note_on_c, 1, 72, 127
2, 61920, Note_on_c, 1, 80, 127
2, 61920, Note_on_c, 1, 84, 127
2, 61920, Note_off_c, 1, 89, 0
2, 61920, Note_off_c, 1, 97, 0
2, 61960, Note_off_c, 1, 41, 0
2, 61960, Note_off_c, 1, 53, 0
2, 61960, Note_off_c, 1, 72, 0
2, 61960, Note_off_c, 1, 80, 0
2, 61960, Note_off_c, 1, 84, 0
2, 62000, Note_on_c, 1, 41, 127
2, 62000, Note_on_c, 1, 53, 127
2, 62000, Note_on_c, 1, 72, 127
2, 62000, Note_on_c, 1, 80, 127
2, 62000, Note_on_c, 1, 84, 127
2, 63080, Note_off_c, 1, 41, 0
2, 63080, Note_off_c, 1, 53, 0
2, 63080, Note_off_c, 1, 72, 0
2, 63080, Note_off_c, 1, 80, 0
2, 63080, Note_off_c, 1, 84, 0
2, 63120, Note_on_c, 1, 41, 127
2, 63120, Note_on_c, 1, 52, 127
2, 63120, Note_on_c, 1, 67, 127
2, 63120, Note_on_c, 1, 72, 127
2, 63680, Note_off_c, 1, 41, 0
2, 63680, Note_off_c, 1, 52, 0
2, 63680, Note_on_c, 1, 55, 127
2, 63680, Note_on_c, 1, 57, 127
2, 63680, Note_on_c, 1, 64, 127
2, 63680, Note_off_c, 1, 67, 0
2, 63680, Note_off_c, 1, 72, 0
2, 63680, Note_on_c, 1, 83, 127
2, 63720, Note_on_c, 1, 41, 127
2, 63720, Note_on_c, 1, 52, 127
2, 63720, Note_off_c, 1, 55, 0
2, 63720, Note_off_c, 1, 57, 0
2, 63720, Note_off_c, 1, 64, 0
2, 63720, Note_on_c, 1, 67, 127
2, 63720, Note_on_c, 1, 72, 127
2, 63720, Note_off_c, 1, 83, 0
2, 63920, Note_off_c, 1, 52, 0
2, 63920, Note_off_c, 1, 67, 0
2, 63920, Note_off_c, 1, 72, 0
2, 63960, Note_off_c, 1, 41, 0
2, 63960, Note_on_c, 1, 44, 127
2, 63960, Note_on_c, 1, 47, 127
2, 63960, Note_on_c, 1, 74, 127
2, 64120, Note_off_c, 1, 44, 0
2, 64120, Note_off_c, 1, 47, 0
2, 64120, Note_off_c, 1, 74, 0
2, 64160, Note_on_c, 1, 44, 127
2, 64160, Note_on_c, 1, 47, 127
2, 64160, Note_on_c, 1, 74, 127
2, 64560, Note_off_c, 1, 44, 0
2, 64560, Note_off_c, 1, 47, 0
2, 64560, Note_on_c, 1, 53, 127
2, 64560, Note_off_c, 1, 74, 0
2, 64600, Note_on_c, 1, 51, 127
2, 64600, Note_on_c, 1, 62, 127
2, 64600, Note_on_c, 1, 74, 127
2, 64640, Note_off_c, 1, 51, 0
2, 64640, Note_off_c, 1, 53, 0
2, 64640, Note_on_c, 1, 58, 127
2, 64640, Note_off_c, 1, 62, 0
2, 64640, Note_on_c, 1, 76, 127
2, 64640, Note_on_c, 1, 79, 127
2, 64640, Note_on_c, 1, 86, 127
2, 64680, Note_on_c, 1, 30, 127
2, 64680, Note_on_c, 1, 46, 127
2, 64680, Note_off_c, 1, 58, 0
2, 64680, Note_off_c, 1, 74, 0
2, 64680, Note_off_c, 1, 76, 0
2, 64680, Note_off_c, 1, 79, 0
2, 64680, Note_off_c, 1, 86, 0
2, 64720, Note_off_c, 1, 30, 0
2, 64720, Note_off_c, 1, 46, 0
2, 64720, Note_on_c, 1, 47, 127
2, 64720, Note_on_c, 1, 62, 127
2, 64720, Note_on_c, 1, 66, 127
2, 64720, Note_on_c, 1, 68, 127
2, 64720, Note_on_c, 1, 74, 127
2, 64720, Note_on_c, 1, 78, 127
2, 64760, Note_off_c, 1, 47, 0
2, 64760, Note_on_c, 1, 50, 127
2, 64760, Note_on_c, 1, 53, 127
2, 64760, Note_off_c, 1, 62, 0
2, 64760, Note_off_c, 1, 66, 0
2, 64760, Note_off_c, 1, 68, 0
2, 64760, Note_off_c, 1, 74, 0
2, 64760, Note_off_c, 1, 78, 0
2, 64760, Note_on_c, 1, 79, 127
2, 64800, Note_on_c, 1, 46, 127
2, 64800, Note_off_c, 1, 50, 0
2, 64800, Note_off_c, 1, 53, 0
2, 64800, Note_off_c, 1, 79, 0
2, 64800, Note_on_c, 1, 86, 127
2, 64800, Note_on_c, 1, 89, 127
2, 64840, Note_on_c, 1, 41, 127
2, 64840, Note_off_c, 1, 46, 0
2, 64840, Note_on_c, 1, 57, 127
2, 64840, Note_on_c, 1, 61, 127
2, 64840, Note_on_c, 1, 69, 127
2, 64840, Note_off_c, 1, 86, 0
2, 64840, Note_off_c, 1, 89, 0
2, 64880, Note_off_c, 1, 41, 0
2, 64880, Note_on_c, 1, 50, 127
2, 64880, Note_on_c, 1, 53, 127
2, 64880, Note_off_c, 1, 57, 0
2, 64880, Note_off_c, 1, 61, 0
2, 64880, Note_off_c, 1, 69, 0
2, 64880, Note_on_c, 1, 77, 127
2, 64880, Note_on_c, 1, 81, 127
2, 64920, Note_on_c, 1, 34, 127
2, 64920, Note_on_c, 1, 46, 127
2, 64920, Note_off_c, 1, 50, 0
2, 64920, Note_off_c, 1, 53, 0
2, 64920, Note_on_c, 1, 65, 127
2, 64920, Note_on_c, 1, 67, 127
2, 64920, Note_off_c, 1, 81, 0
2, 64960, Note_off_c, 1, 34, 0
2, 64960, Note_off_c, 1, 46, 0
2, 64960, Note_on_c, 1, 58, 127
2, 64960, Note_on_c, 1, 62, 127
2, 64960, Note_off_c, 1, 67, 0
2, 64960, Note_on_c, 1, 70, 127
2, 64960, Note_on_c, 1, 74, 127
2, 64960, Note_off_c, 1, 77, 0
2, 64960, Note_on_c, 1, 79, 127
2, 65000, Note_on_c, 1, 37, 127
2, 65000, Note_on_c, 1, 49, 127
2, 65000, Note_off_c, 1, 58, 0
2, 65000, Note_off_c, 1, 62, 0
2, 65000, Note_off_c, 1, 65, 0
2, 65000, Note_off_c, 1, 70, 0
2, 65000, Note_off_c, 1, 74, 0
2, 65000, Note_off_c, 1, 79, 0
2, 65000, Note_on_c, 1, 85, 127
2, 65000, Note_on_c, 1, 89, 127
2, 65000, Note_on_c, 1, 97, 127
2, 65040, Note_off_c, 1, 37, 0
2, 65040, Note_on_c, 1, 47, 127
2, 65040, Note_off_c, 1, 49, 0
2, 65040, Note_on_c, 1, 54, 127
2, 65040, Note_on_c, 1, 75, 127
2, 65040, Note_on_c, 1, 78, 127
2, 65040, Note_off_c, 1, 85, 0
2, 65040, Note_off_c, 1, 89, 0
2, 65040, Note_off_c, 1, 97, 0
2, 65080, Note_on_c, 1, 40, 127
2, 65080, Note_on_c, 1, 44, 127
2, 65080, Note_off_c, 1, 47, 0
2, 65080, Note_on_c, 1, 52, 127
2, 65080, Note_off_c, 1, 54, 0
2, 65080, Note_on_c, 1, 59, 127
2, 65080, Note_on_c, 1, 71, 127
2, 65080, Note_off_c, 1, 75, 0
2, 65080, Note_off_c, 1, 78, 0
2, 65120, Note_off_c, 1, 40, 0
2, 65120, Note_on_c, 1, 42, 127
2, 65120, Note_off_c, 1, 44, 0
2, 65120, Note_off_c, 1, 52, 0
2, 65120, Note_off_c, 1, 59, 0
2, 65120, Note_off_c, 1, 71, 0
2, 65120, Note_on_c, 1, 79, 127
2, 65120, Note_on_c, 1, 83, 127
2, 65120, Note_on_c, 1, 88, 127
2, 65160, Note_off_c, 1, 42, 0
2, 65160, Note_on_c, 1, 49, 127
2, 65160, Note_on_c, 1, 52, 127
2, 65160, Note_on_c, 1, 59, 127
2, 65160, Note_on_c, 1, 61, 127
2, 65160, Note_off_c, 1, 79, 0
2, 65160, Note_off_c, 1, 83, 0
2, 65160, Note_off_c, 1, 88, 0
2, 65200, Note_on_c, 1, 47, 127
2, 65200, Note_off_c, 1, 49, 0
2, 65200, Note_off_c, 1, 52, 0
2, 65200, Note_off_c, 1, 61, 0
2, 65240, Note_on_c, 1, 44, 127
2, 65240, Note_off_c, 1, 47, 0
2, 65240, Note_on_c, 1, 52, 127
2, 65240, Note_on_c, 1, 56, 127
2, 65240, Note_on_c, 1, 64, 127
2, 65240, Note_on_c, 1, 71, 127
2, 65240, Note_on_c, 1, 76, 127
2, 65440, Note_off_c, 1, 44, 0
2, 65440, Note_on_c, 1, 51, 127
2, 65440, Note_off_c, 1, 52, 0
2, 65440, Note_off_c, 1, 56, 0
2, 65440, Note_on_c, 1, 58, 127
2, 65440, Note_off_c, 1, 59, 0
2, 65440, Note_off_c, 1, 64, 0
2, 65440, Note_off_c, 1, 71, 0
2, 65440, Note_off_c, 1, 76, 0
2, 65480, Note_on_c, 1, 46, 127
2, 65480, Note_off_c, 1, 58, 0
2, 65480, Note_on_c, 1, 63, 127
2, 65480, Note_on_c, 1, 67, 127
2, 65840, Note_off_c, 1, 46, 0
2, 65840, Note_off_c, 1, 51, 0
2, 65840, Note_off_c, 1, 63, 0
2, 65840, Note_off_c, 1, 67, 0
2, 65880, Note_on_c, 1, 46, 127
2, 66280, Note_on_c, 1, 42, 127
2, 66280, Note_off_c, 1, 46, 0
2, 66280, Note_on_c, 1, 54, 127
2, 66280, Note_on_c, 1, 57, 127
2, 66280, Note_on_c, 1, 61, 127
2, 66280, Note_on_c, 1, 66, 127
2, 66360, Note_off_c, 1, 42, 0
2, 66360, Note_off_c, 1, 54, 0
2, 66360, Note_off_c, 1, 57, 0
2, 66360, Note_off_c, 1, 61, 0
2, 66360, Note_off_c, 1, 66, 0
2, 66400, Note_on_c, 1, 42, 127
2, 66400, Note_on_c, 1, 54, 127
2, 66400, Note_on_c, 1, 57, 127
2, 66400, Note_on_c, 1, 61, 127
2, 66400, Note_on_c, 1, 66, 127
2, 67120, Note_on_c, 1, 32, 127
2, 67120, Note_off_c, 1, 42, 0
2, 67120, Note_on_c, 1, 44, 127
2, 67120, Note_off_c, 1, 54, 0
2, 67120, Note_off_c, 1, 57, 0
2, 67120, Note_off_c, 1, 61, 0
2, 67120, Note_off_c, 1, 66, 0
2, 67160, Note_off_c, 1, 32, 0
2, 67160, Note_on_c, 1, 39, 127
2, 67160, Note_off_c, 1, 44, 0
2, 67160, Note_on_c, 1, 51, 127
2, 67160, Note_on_c, 1, 75, 127
2, 67160, Note_on_c, 1, 78, 127
2, 67160, Note_on_c, 1, 81, 127
2, 67160, Note_on_c, 1, 87, 127
2, 67200, Note_on_c, 1, 35, 127
2, 67200, Note_off_c, 1, 39, 0
2, 67200, Note_on_c, 1, 47, 127
2, 67200, Note_off_c, 1, 51, 0
2, 67200, Note_off_c, 1, 78, 0
2, 67200, Note_off_c, 1, 81, 0
2, 67200, Note_on_c, 1, 82, 127
2, 67240, Note_off_c, 1, 35, 0
2, 67240, Note_on_c, 1, 42, 127
2, 67240, Note_off_c, 1, 47, 0
2, 67240, Note_on_c, 1, 63, 127
2, 67240, Note_on_c, 1, 66, 127
2, 67240, Note_on_c, 1, 70, 127
2, 67240, Note_off_c, 1, 82, 0
2, 67240, Note_off_c, 1, 87, 0
2, 67280, Note_on_c, 1, 32, 127
2, 67280, Note_on_c, 1, 39, 127
2, 67280, Note_off_c, 1, 42, 0
2, 67280, Note_on_c, 1, 44, 127
2, 67280, Note_off_c, 1, 63, 0
2, 67280, Note_off_c, 1, 66, 0
2, 67280, Note_off_c, 1, 70, 0
2, 67280, Note_on_c, 1, 71, 127
2, 67280, Note_off_c, 1, 75, 0
2, 67280, Note_on_c, 1, 83, 127
2, 67320, Note_off_c, 1, 32, 0
2, 67320, Note_off_c, 1, 39, 0
2, 67320, Note_off_c, 1, 44, 0
2, 67320, Note_off_c, 1, 71, 0
2, 67320, Note_on_c, 1, 75, 127
2, 67320, Note_on_c, 1, 78, 127
2, 67320, Note_on_c, 1, 81, 127
2, 67320, Note_off_c, 1, 83, 0
2, 67320, Note_on_c, 1, 87, 127
2, 67360, Note_on_c, 1, 47, 127
2, 67360, Note_on_c, 1, 52, 127
2, 67360, Note_on_c, 1, 58, 127
2, 67360, Note_off_c, 1, 75, 0
2, 67360, Note_off_c, 1, 78, 0
2, 67360, Note_off_c, 1, 81, 0
2, 67360, Note_off_c, 1, 87, 0
2, 67400, Note_off_c, 1, 52, 0
2, 67400, Note_off_c, 1, 58, 0
2, 67400, Note_on_c, 1, 85, 127
2, 67400, Note_on_c, 1, 93, 127
2, 67400, Note_on_c, 1, 97, 127
2, 67440, Note_on_c, 1, 42, 127
2, 67440, Note_off_c, 1, 47, 0
2, 67440, Note_on_c, 1, 54, 127
2, 67440, Note_on_c, 1, 70, 127
2, 67440, Note_on_c, 1, 77, 127
2, 67440, Note_off_c, 1, 85, 0
2, 67440, Note_off_c, 1, 93, 0
2, 67440, Note_off_c, 1, 97, 0
2, 67480, Note_off_c, 1, 42, 0
2, 67480, Note_on_c, 1, 46, 127
2, 67480, Note_on_c, 1, 51, 127
2, 67480, Note_off_c, 1, 54, 0
2, 67480, Note_on_c, 1, 55, 127
2, 67480, Note_on_c, 1, 61, 127
2, 67480, Note_off_c, 1, 70, 0
2, 67480, Note_on_c, 1, 75, 127
2, 67480, Note_off_c, 1, 77, 0
2, 67520, Note_on_c, 1, 40, 127
2, 67520, Note_off_c, 1, 46, 0
2, 67520, Note_off_c, 1, 51, 0
2, 67520, Note_on_c, 1, 52, 127
2, 67520, Note_off_c, 1, 55, 0
2, 67520, Note_off_c, 1, 61, 0
2, 67520, Note_on_c, 1, 69, 127
2, 67520, Note_off_c, 1, 75, 0
2, 67520, Note_on_c, 1, 78, 127
2, 67520, Note_on_c, 1, 81, 127
2, 67560, Note_off_c, 1, 40, 0
2, 67560, Note_off_c, 1, 52, 0
2, 67560, Note_off_c, 1, 69, 0
2, 67560, Note_off_c, 1, 78, 0
2, 67560, Note_off_c, 1, 81, 0
2, 67600, Note_on_c, 1, 34, 127
2, 67600, Note_on_c, 1, 46, 127
2, 68160, Note_off_c, 1, 34, 0
2, 68160, Note_off_c, 1, 46, 0
2, 68200, Note_on_c, 1, 34, 127
2, 68200, Note_on_c, 1, 46, 127
2, 68640, Note_off_c, 1, 34, 0
2, 68640, Note_off_c, 1, 46, 0
2, 68680, Note_on_c, 1, 34, 127
2, 68680, Note_on_c, 1, 46, 127
2, 69440, Note_off_c, 1, 46, 0
2, 69480, Note_off_c, 1, 34, 0
2, 69520, Note_on_c, 1, 35, 127
2, 69520, Note_on_c, 1, 66, 127
2, 69520, Note_on_c, 1, 69, 127
2, 69520, Note_on_c, 1, 71, 127
2, 69520, Note_on_c, 1, 75, 127
2, 69560, Note_off_c, 1, 35, 0
2, 69560, Note_on_c, 1, 44, 127
2, 69560, Note_on_c, 1, 49, 127
2, 69560, Note_on_c, 1, 65, 127
2, 69560, Note_off_c, 1, 66, 0
2, 69560, Note_on_c, 1, 68, 127
2, 69560, Note_off_c, 1, 69, 0
2, 69560, Note_off_c, 1, 71, 0
2, 69560, Note_on_c, 1, 72, 127
2, 69560, Note_off_c, 1, 75, 0
2, 69600, Note_off_c, 1, 44, 0
2, 69600, Note_off_c, 1, 49, 0
2, 69600, Note_on_c, 1, 51, 127
2, 69600, Note_on_c, 1, 62, 127
2, 69600, Note_off_c, 1, 65, 0
2, 69600, Note_on_c, 1, 67, 127
2, 69600, Note_off_c, 1, 68, 0
2, 69600, Note_off_c, 1, 72, 0
2, 69600, Note_on_c, 1, 79, 127
2, 69600, Note_on_c, 1, 82, 127
2, 69640, Note_off_c, 1, 51, 0
2, 69640, Note_on_c, 1, 53, 127
2, 69640, Note_on_c, 1, 60, 127
2, 69640, Note_off_c, 1, 62, 0
2, 69640, Note_on_c, 1, 65, 127
2, 69640, Note_off_c, 1, 67, 0
2, 69640, Note_on_c, 1, 69, 127
2, 69640, Note_on_c, 1, 74, 127
2, 69640, Note_on_c, 1, 77, 127
2, 69640, Note_off_c, 1, 79, 0
2, 69640, Note_off_c, 1, 82, 0
2, 69680, Note_off_c, 1, 53, 0
2, 69680, Note_off_c, 1, 60, 0
2, 69680, Note_off_c, 1, 65, 0
2, 69680, Note_on_c, 1, 67, 127
2, 69680, Note_off_c, 1, 69, 0
2, 69680, Note_on_c, 1, 71, 127
2, 69680, Note_off_c, 1, 74, 0
2, 69680, Note_on_c, 1, 76, 127
2, 69680, Note_off_c, 1, 77, 0
2, 69680, Note_on_c, 1, 78, 127
2, 69720, Note_on_c, 1, 55, 127
2, 69720, Note_on_c, 1, 63, 127
2, 69720, Note_off_c, 1, 67, 0
2, 69720, Note_on_c, 1, 70, 127
2, 69720, Note_off_c, 1, 71, 0
2, 69720, Note_off_c, 1, 76, 0
2, 69720, Note_off_c, 1, 78, 0
2, 69720, Note_on_c, 1, 79, 127
2, 69720, Note_on_c, 1, 82, 127
2, 69760, Note_on_c, 1, 46, 127
2, 69760, Note_off_c, 1, 55, 0
2, 69760, Note_on_c, 1, 57, 127
2, 69760, Note_off_c, 1, 63, 0
2, 69760, Note_on_c, 1, 66, 127
2, 69760, Note_off_c, 1, 70, 0
2, 69760, Note_off_c, 1, 79, 0
2, 69760, Note_off_c, 1, 82, 0
2, 69800, Note_off_c, 1, 46, 0
2, 69800, Note_on_c, 1, 53, 127
2, 69800, Note_on_c, 1, 56, 127
2, 69800, Note_off_c, 1, 57, 0
2, 69800, Note_on_c, 1, 65, 127
2, 69800, Note_off_c, 1, 66, 0
2, 69800, Note_on_c, 1, 77, 127
2, 69800, Note_on_c, 1, 83, 127
2, 69840, Note_on_c, 1, 40, 127
2, 69840, Note_on_c, 1, 46, 127
2, 69840, Note_off_c, 1, 53, 0
2, 69840, Note_on_c, 1, 55, 127
2, 69840, Note_off_c, 1, 56, 0
2, 69840, Note_on_c, 1, 61, 127
2, 69840, Note_off_c, 1, 65, 0
2, 69840, Note_off_c, 1, 77, 0
2, 69840, Note_off_c, 1, 83, 0
2, 69880, Note_off_c, 1, 40, 0
2, 69880, Note_off_c, 1, 46, 0
2, 69880, Note_off_c, 1, 55, 0
2, 69880, Note_off_c, 1, 61, 0
2, 69920, Note_on_c, 1, 49, 127
2, 69920, Note_on_c, 1, 53, 127
2, 69920, Note_on_c, 1, 58, 127
2, 69920, Note_on_c, 1, 61, 127
2, 69920, Note_on_c, 1, 70, 127
2, 70200, Note_off_c, 1, 49, 0
2, 70200, Note_off_c, 1, 53, 0
2, 70200, Note_off_c, 1, 58, 0
2, 70200, Note_off_c, 1, 61, 0
2, 70200, Note_off_c, 1, 70, 0
2, 70240, Note_on_c, 1, 37, 127
2, 70240, Note_on_c, 1, 49, 127
2, 70240, Note_on_c, 1, 80, 127
2, 70240, Note_on_c, 1, 87, 127
2, 70280, Note_on_c, 1, 34, 127
2, 70280, Note_off_c, 1, 37, 0
2, 70280, Note_on_c, 1, 46, 127
2, 70280, Note_off_c, 1, 49, 0
2, 70280, Note_on_c, 1, 51, 127
2, 70280, Note_on_c, 1, 58, 127
2, 70280, Note_on_c, 1, 63, 127
2, 70280, Note_off_c, 1, 80, 0
2, 70280, Note_off_c, 1, 87, 0
2, 70320, Note_off_c, 1, 34, 0
2, 70320, Note_off_c, 1, 46, 0
2, 70320, Note_off_c, 1, 51, 0
2, 70320, Note_on_c, 1, 55, 127
2, 70320, Note_off_c, 1, 58, 0
2, 70320, Note_off_c, 1, 63, 0
2, 70320, Note_on_c, 1, 68, 127
2, 70320, Note_on_c, 1, 76, 127
2, 70320, Note_on_c, 1, 80, 127
2, 70360, Note_on_c, 1, 37, 127
2, 70360, Note_on_c, 1, 49, 127
2, 70360, Note_off_c, 1, 55, 0
2, 70360, Note_on_c, 1, 56, 127
2, 70360, Note_on_c, 1, 66, 127
2, 70360, Note_off_c, 1, 68, 0
2, 70360, Note_off_c, 1, 76, 0
2, 70360, Note_off_c, 1, 80, 0
2, 70400, Note_off_c, 1, 37, 0
2, 70400, Note_on_c, 1, 46, 127
2, 70400, Note_off_c, 1, 49, 0
2, 70400, Note_on_c, 1, 53, 127
2, 70400, Note_off_c, 1, 56, 0
2, 70400, Note_on_c, 1, 58, 127
2, 70400, Note_on_c, 1, 60, 127
2, 70400, Note_on_c, 1, 63, 127
2, 70400, Note_off_c, 1, 66, 0
2, 70400, Note_on_c, 1, 67, 127
2, 70440, Note_off_c, 1, 46, 0
2, 70440, Note_off_c, 1, 53, 0
2, 70440, Note_off_c, 1, 58, 0
2, 70440, Note_off_c, 1, 60, 0
2, 70440, Note_on_c, 1, 62, 127
2, 70440, Note_off_c, 1, 63, 0
2, 70440, Note_off_c, 1, 67, 0
2, 70440, Note_on_c, 1, 83, 127
2, 70440, Note_on_c, 1, 91, 127
2, 70480, Note_on_c, 1, 39, 127
2, 70480, Note_on_c, 1, 51, 127
2, 70480, Note_off_c, 1, 62, 0
2, 70480, Note_on_c, 1, 78, 127
2, 70480, Note_on_c, 1, 87, 127
2, 70480, Note_on_c, 1, 90, 127
2, 70480, Note_off_c, 1, 91, 0
2, 70520, Note_off_c, 1, 39, 0
2, 70520, Note_off_c, 1, 51, 0
2, 70520, Note_on_c, 1, 61, 127
2, 70520, Note_on_c, 1, 65, 127
2, 70520, Note_off_c, 1, 78, 0
2, 70520, Note_off_c, 1, 83, 0
2, 70520, Note_off_c, 1, 87, 0
2, 70520, Note_off_c, 1, 90, 0
2, 70520, Note_on_c, 1, 91, 127
2, 70520, Note_on_c, 1, 92, 127
2, 70520, Note_on_c, 1, 94, 127
2, 70560, Note_on_c, 1, 42, 127
2, 70560, Note_on_c, 1, 45, 127
2, 70560, Note_on_c, 1, 48, 127
2, 70560, Note_off_c, 1, 61, 0
2, 70560, Note_off_c, 1, 65, 0
2, 70560, Note_off_c, 1, 91, 0
2, 70560, Note_off_c, 1, 92, 0
2, 70560, Note_off_c, 1, 94, 0
2, 70600, Note_off_c, 1, 42, 0
2, 70600, Note_off_c, 1, 45, 0
2, 70600, Note_off_c, 1, 48, 0
2, 70640, Note_on_c, 1, 28, 127
2, 70640, Note_on_c, 1, 40, 127
2, 70640, Note_on_c, 1, 83, 127
2, 70640, Note_on_c, 1, 88, 127
2, 70640, Note_on_c, 1, 95, 127
2, 70680, Note_off_c, 1, 28, 0
2, 70680, Note_off_c, 1, 40, 0
2, 70680, Note_off_c, 1, 83, 0
2, 70680, Note_off_c, 1, 88, 0
2, 70680, Note_off_c, 1, 95, 0
2, 70760, Note_on_c, 1, 60, 127
2, 70760, Note_on_c, 1, 72, 127
2, 70760, Note_on_c, 1, 81, 127
2, 70760, Note_on_c, 1, 93, 127
2, 70800, Note_on_c, 1, 26, 127
2, 70800, Note_on_c, 1, 38, 127
2, 70800, Note_on_c, 1, 54, 127
2, 70800, Note_on_c, 1, 57, 127
2, 70800, Note_off_c, 1, 60, 0
2, 70800, Note_on_c, 1, 62, 127
2, 70800, Note_off_c, 1, 72, 0
2, 70800, Note_on_c, 1, 74, 127
2, 70800, Note_on_c, 1, 78, 127
2, 70800, Note_on_c, 1, 86, 127
2, 70800, Note_off_c, 1, 93, 0
2, 70840, Note_off_c, 1, 26, 0
2, 70840, Note_on_c, 1, 36, 127
2, 70840, Note_off_c, 1, 38, 0
2, 70840, Note_on_c, 1, 43, 127
2, 70840, Note_on_c, 1, 48, 127
2, 70840, Note_off_c, 1, 54, 0
2, 70840, Note_off_c, 1, 57, 0
2, 70840, Note_on_c, 1, 58, 127
2, 70840, Note_off_c, 1, 62, 0
2, 70840, Note_on_c, 1, 64, 127
2, 70840, Note_on_c, 1, 72, 127
2, 70840, Note_off_c, 1, 74, 0
2, 70840, Note_off_c, 1, 78, 0
2, 70840, Note_off_c, 1, 81, 0
2, 70840, Note_off_c, 1, 86, 0
2, 70880, Note_off_c, 1, 36, 0
2, 70880, Note_off_c, 1, 43, 0
2, 70880, Note_off_c, 1, 48, 0
2, 70880, Note_off_c, 1, 58, 0
2, 70880, Note_off_c, 1, 64, 0
2, 70880, Note_off_c, 1, 72, 0
2, 70920, Note_on_c, 1, 45, 127
2, 70920, Note_on_c, 1, 52, 127
2, 70920, Note_on_c, 1, 57, 127
2, 70920, Note_on_c, 1, 88, 127
2, 70960, Note_off_c, 1, 45, 0
2, 70960, Note_off_c, 1, 52, 0
2, 70960, Note_off_c, 1, 57, 0
2, 70960, Note_on_c, 1, 65, 127
2, 70960, Note_on_c, 1, 73, 127
2, 70960, Note_on_c, 1, 83, 127
2, 70960, Note_on_c, 1, 85, 127
2, 70960, Note_off_c, 1, 88, 0
2, 71000, Note_on_c, 1, 52, 127
2, 71000, Note_on_c, 1, 54, 127
2, 71000, Note_on_c, 1, 57, 127
2, 71000, Note_on_c, 1, 60, 127
2, 71000, Note_off_c, 1, 65, 0
2, 71000, Note_off_c, 1, 73, 0
2, 71000, Note_off_c, 1, 83, 0
2, 71000, Note_on_c, 1, 84, 127
2, 71000, Note_off_c, 1, 85, 0
2, 71040, Note_off_c, 1, 52, 0
2, 71040, Note_off_c, 1, 54, 0
2, 71040, Note_off_c, 1, 57, 0
2, 71040, Note_off_c, 1, 60, 0
2, 71040, Note_off_c, 1, 84, 0
2, 71080, Note_on_c, 1, 42, 127
2, 71080, Note_on_c, 1, 49, 127
2, 71080, Note_on_c, 1, 52, 127
2, 71080, Note_on_c, 1, 64, 127
2, 71080, Note_on_c, 1, 73, 127
2, 71080, Note_on_c, 1, 76, 127
2, 71240, Note_on_c, 1, 47, 127
2, 71240, Note_off_c, 1, 49, 0
2, 71240, Note_on_c, 1, 51, 127
2, 71240, Note_off_c, 1, 52, 0
2, 71240, Note_on_c, 1, 63, 127
2, 71240, Note_off_c, 1, 64, 0
2, 71240, Note_on_c, 1, 71, 127
2, 71240, Note_off_c, 1, 73, 0
2, 71240, Note_on_c, 1, 75, 127
2, 71240, Note_off_c, 1, 76, 0
2, 71600, Note_off_c, 1, 42, 0
2, 71600, Note_off_c, 1, 47, 0
2, 71600, Note_off_c, 1, 51, 0
2, 71600, Note_off_c, 1, 63, 0
2, 71600, Note_off_c, 1, 71, 0
2, 71600, Note_off_c, 1, 75, 0
2, 71640, Note_on_c, 1, 33, 127
2, 71640, Note_on_c, 1, 45, 127
2, 71640, Note_on_c, 1, 60, 127
2, 71640, Note_on_c, 1, 67, 127
2, 71640, Note_on_c, 1, 72, 127
2, 72160, Note_off_c, 1, 33, 0
2, 72160, Note_off_c, 1, 45, 0
2, 72160, Note_off_c, 1, 60, 0
2, 72160, Note_off_c, 1, 67, 0
2, 72160, Note_off_c, 1, 72, 0
2, 72240, Note_on_c, 1, 42, 127
2, 72240, Note_on_c, 1, 57, 127
2, 72240, Note_on_c, 1, 62, 127
2, 72240, Note_on_c, 1, 69, 127
2, 72240, Note_on_c, 1, 74, 127
2, 72640, Note_off_c, 1, 42, 0
2, 72640, Note_off_c, 1, 57, 0
2, 72640, Note_off_c, 1, 62, 0
2, 72640, Note_off_c, 1, 69, 0
2, 72640, Note_off_c, 1, 74, 0
2, 72680, Note_on_c, 1, 42, 127
2, 72680, Note_on_c, 1, 57, 127
2, 72680, Note_on_c, 1, 62, 127
2, 72680, Note_on_c, 1, 69, 127
2, 72680, Note_on_c, 1, 74, 127
2, 72840, Note_on_c, 1, 41, 127
2, 72840, Note_off_c, 1, 42, 0
2, 72840, Note_on_c, 1, 48, 127
2, 72840, Note_on_c, 1, 53, 127
2, 72840, Note_off_c, 1, 57, 0
2, 72840, Note_off_c, 1, 62, 0
2, 72840, Note_off_c, 1, 69, 0
2, 72840, Note_off_c, 1, 74, 0
2, 72880, Note_off_c, 1, 41, 0
2, 72880, Note_on_c, 1, 47, 127
2, 72880, Note_off_c, 1, 48, 0
2, 72880, Note_off_c, 1, 53, 0
2, 72880, Note_on_c, 1, 59, 127
2, 72880, Note_on_c, 1, 62, 127
2, 72880, Note_on_c, 1, 69, 127
2, 73120, Note_off_c, 1, 47, 0
2, 73120, Note_off_c, 1, 59, 0
2, 73120, Note_on_c, 1, 67, 127
2, 73160, Note_on_c, 1, 57, 127
2, 73160, Note_off_c, 1, 62, 0
2, 73160, Note_on_c, 1, 64, 127
2, 73160, Note_off_c, 1, 69, 0
2, 73160, Note_on_c, 1, 72, 127
2, 73160, Note_on_c, 1, 89, 127
2, 73200, Note_off_c, 1, 57, 0
2, 73200, Note_on_c, 1, 61, 127
2, 73200, Note_off_c, 1, 64, 0
2, 73200, Note_off_c, 1, 67, 0
2, 73200, Note_off_c, 1, 72, 0
2, 73200, Note_on_c, 1, 84, 127
2, 73200, Note_on_c, 1, 87, 127
2, 73200, Note_off_c, 1, 89, 0
2, 73200, Note_on_c, 1, 91, 127
2, 73200, Note_on_c, 1, 96, 127
2, 73240, Note_on_c, 1, 38, 127
2, 73240, Note_on_c, 1, 46, 127
2, 73240, Note_on_c, 1, 60, 127
2, 73240, Note_off_c, 1, 61, 0
2, 73240, Note_on_c, 1, 64, 127
2, 73240, Note_on_c, 1, 72, 127
2, 73240, Note_off_c, 1, 84, 0
2, 73240, Note_off_c, 1, 87, 0
2, 73240, Note_off_c, 1, 91, 0
2, 73240, Note_off_c, 1, 96, 0
2, 73280, Note_off_c, 1, 38, 0
2, 73280, Note_off_c, 1, 46, 0
2, 73280, Note_off_c, 1, 60, 0
2, 73280, Note_off_c, 1, 64, 0
2, 73280, Note_on_c, 1, 71, 127
2, 73280, Note_off_c, 1, 72, 0
2, 73280, Note_on_c, 1, 79, 127
2, 73280, Note_on_c, 1, 81, 127
2, 73280, Note_on_c, 1, 87, 127
2, 73280, Note_on_c, 1, 95, 127
2, 73320, Note_on_c, 1, 41, 127
2, 73320, Note_on_c, 1, 47, 127
2, 73320, Note_on_c, 1, 50, 127
2, 73320, Note_on_c, 1, 62, 127
2, 73320, Note_on_c, 1, 74, 127
2, 73320, Note_off_c, 1, 79, 0
2, 73320, Note_off_c, 1, 81, 0
2, 73320, Note_off_c, 1, 87, 0
2, 73320, Note_off_c, 1, 95, 0
2, 73440, Note_off_c, 1, 41, 0
2, 73440, Note_off_c, 1, 47, 0
2, 73440, Note_off_c, 1, 50, 0
2, 73440, Note_off_c, 1, 62, 0
2, 73440, Note_off_c, 1, 71, 0
2, 73440, Note_off_c, 1, 74, 0
2, 73480, Note_on_c, 1, 65, 127
2, 73480, Note_on_c, 1, 77, 127
2, 73480, Note_on_c, 1, 88, 127
2, 73480, Note_on_c, 1, 100, 127
2, 73560, Note_off_c, 1, 65, 0
2, 73560, Note_off_c, 1, 77, 0
2, 73560, Note_off_c, 1, 88, 0
2, 73560, Note_on_c, 1, 89, 127
2, 73560, Note_off_c, 1, 100, 0
2, 73560, Note_on_c, 1, 101, 127
2, 73760, Note_on_c, 1, 49, 127
2, 73760, Note_on_c, 1, 59, 127
2, 73760, Note_on_c, 1, 61, 127
2, 73760, Note_on_c, 1, 80, 127
2, 73760, Note_on_c, 1, 92, 127
2, 73760, Note_off_c, 1, 101, 0
2, 74000, Note_off_c, 1, 49, 0
2, 74000, Note_off_c, 1, 59, 0
2, 74000, Note_off_c, 1, 61, 0
2, 74000, Note_off_c, 1, 80, 0
2, 74000, Note_off_c, 1, 89, 0
2, 74000, Note_off_c, 1, 92, 0
2, 74040, Note_on_c, 1, 87, 127
2, 74040, Note_on_c, 1, 99, 127
2, 74600, Note_off_c, 1, 87, 0
2, 74600, Note_off_c, 1, 99, 0
2, 74680, Note_on_c, 1, 53, 127
2, 74680, Note_on_c, 1, 60, 127
2, 74680, Note_on_c, 1, 65, 127
2, 74680, Note_on_c, 1, 69, 127
2, 74680, Note_on_c, 1, 72, 127
2, 74680, Note_on_c, 1, 77, 127
2, 74720, Note_off_c, 1, 53, 0
2, 74720, Note_on_c, 1, 55, 127
2, 74720, Note_on_c, 1, 58, 127
2, 74720, Note_off_c, 1, 60, 0
2, 74720, Note_on_c, 1, 62, 127
2, 74720, Note_off_c, 1, 65, 0
2, 74720, Note_on_c, 1, 67, 127
2, 74720, Note_off_c, 1, 69, 0
2, 74720, Note_on_c, 1, 70, 127
2, 74720, Note_off_c, 1, 72, 0
2, 74720, Note_off_c, 1, 77, 0
2, 74760, Note_on_c, 1, 53, 127
2, 74760, Note_off_c, 1, 55, 0
2, 74760, Note_off_c, 1, 58, 0
2, 74760, Note_on_c, 1, 60, 127
2, 74760, Note_off_c, 1, 62, 0
2, 74760, Note_on_c, 1, 65, 127
2, 74760, Note_off_c, 1, 67, 0
2, 74760, Note_on_c, 1, 69, 127
2, 74760, Note_off_c, 1, 70, 0
2, 74760, Note_on_c, 1, 72, 127
2, 74760, Note_on_c, 1, 77, 127
2, 76400, Note_off_c, 1, 53, 0
2, 76400, Note_off_c, 1, 60, 0
2, 76400, Note_off_c, 1, 65, 0
2, 76400, Note_off_c, 1, 69, 0
2, 76400, Note_off_c, 1, 72, 0
2, 76400, Note_off_c, 1, 77, 0
2, 76440, Note_on_c, 1, 72, 127
2, 76440, Note_on_c, 1, 84, 127
2, 76440, Note_on_c, 1, 89, 127
2, 76440, Note_on_c, 1, 93, 127
2, 76440, Note_on_c, 1, 96, 127
2, 76560, Note_off_c, 1, 72, 0
2, 76560, Note_off_c, 1, 84, 0
2, 76560, Note_off_c, 1, 89, 0
2, 76560, Note_off_c, 1, 93, 0
2, 76560, Note_off_c, 1, 96, 0
2, 76600, Note_on_c, 1, 72, 127
2, 76640, Note_on_c, 1, 60, 127
2, 76640, Note_on_c, 1, 67, 127
2, 76640, Note_on_c, 1, 71, 127
2, 76640, Note_off_c, 1, 72, 0
2, 76640, Note_on_c, 1, 74, 127
2, 76760, Note_off_c, 1, 60, 0
2, 76760, Note_off_c, 1, 67, 0
2, 76760, Note_off_c, 1, 71, 0
2, 76760, Note_on_c, 1, 72, 127
2, 76760, Note_off_c, 1, 74, 0
2, 76800, Note_on_c, 1, 60, 127
2, 76800, Note_on_c, 1, 70, 127
2, 76800, Note_on_c, 1, 76, 127
2, 76920, Note_off_c, 1, 60, 0
2, 76920, Note_off_c, 1, 70, 0
2, 76920, Note_off_c, 1, 76, 0
2, 76960, Note_on_c, 1, 41, 127
2, 76960, Note_on_c, 1, 53, 127
2, 76960, Note_on_c, 1, 60, 127
2, 76960, Note_on_c, 1, 65, 127
2, 76960, Note_on_c, 1, 68, 127
2, 77200, Note_off_c, 1, 41, 0
2, 77200, Note_off_c, 1, 53, 0
2, 77200, Note_off_c, 1, 60, 0
2, 77200, Note_off_c, 1, 65, 0
2, 77200, Note_off_c, 1, 68, 0
2, 77200, Note_off_c, 1, 72, 0
2, 77240, Note_on_c, 1, 36, 127
2, 77240, Note_on_c, 1, 48, 127
2, 77240, Note_on_c, 1, 58, 127
2, 77240, Note_on_c, 1, 60, 127
2, 77240, Note_on_c, 1, 67, 127
2, 77240, Note_on_c, 1, 70, 127
2, 77520, Note_off_c, 1, 36, 0
2, 77520, Note_off_c, 1, 48, 0
2, 77520, Note_off_c, 1, 58, 0
2, 77520, Note_off_c, 1, 60, 0
2, 77520, Note_off_c, 1, 67, 0
2, 77520, Note_off_c, 1, 70, 0
2, 77560, Note_on_c, 1, 29, 127
2, 77560, Note_on_c, 1, 41, 127
2, 77560, Note_on_c, 1, 65, 127
2, 77560, Note_on_c, 1, 69, 127
2, 77560, Note_on_c, 1, 74, 127
2, 77560, Note_on_c, 1, 77, 127
2, 77600, Note_off_c, 1, 29, 0
2, 77600, Note_off_c, 1, 41, 0
2, 77600, Note_on_c, 1, 53, 127
2, 77600, Note_on_c, 1, 56, 127
2, 77600, Note_on_c, 1, 58, 127
2, 77600, Note_on_c, 1, 62, 127
2, 77600, Note_off_c, 1, 65, 0
2, 77600, Note_on_c, 1, 68, 127
2, 77600, Note_off_c, 1, 69, 0
2, 77600, Note_off_c, 1, 77, 0
2, 77640, Note_on_c, 1, 38, 127
2, 77640, Note_on_c, 1, 50, 127
2, 77640, Note_off_c, 1, 53, 0
2, 77640, Note_off_c, 1, 56, 0
2, 77640, Note_off_c, 1, 58, 0
2, 77640, Note_on_c, 1, 59, 127
2, 77640, Note_on_c, 1, 67, 127
2, 77640, Note_off_c, 1, 68, 0
2, 77640, Note_on_c, 1, 71, 127
2, 77640, Note_off_c, 1, 74, 0
2, 77680, Note_on_c, 1, 30, 127
2, 77680, Note_off_c, 1, 38, 0
2, 77680, Note_on_c, 1, 42, 127
2, 77680, Note_on_c, 1, 45, 127
2, 77680, Note_off_c, 1, 50, 0
2, 77680, Note_on_c, 1, 51, 127
2, 77680, Note_off_c, 1, 62, 0
2, 77680, Note_off_c, 1, 67, 0
2, 77680, Note_off_c, 1, 71, 0
2, 77720, Note_off_c, 1, 30, 0
2, 77720, Note_off_c, 1, 42, 0
2, 77720, Note_on_c, 1, 44, 127
2, 77720, Note_off_c, 1, 45, 0
2, 77720, Note_off_c, 1, 51, 0
2, 77720, Note_off_c, 1, 59, 0
2, 77720, Note_on_c, 1, 87, 127
2, 77720, Note_on_c, 1, 90, 127
2, 77720, Note_on_c, 1, 99, 127
2, 77760, Note_off_c, 1, 44, 0
2, 77760, Note_on_c, 1, 45, 127
2, 77760, Note_on_c, 1, 59, 127
2, 77760, Note_on_c, 1, 62, 127
2, 77760, Note_on_c, 1, 71, 127
2, 77760, Note_off_c, 1, 87, 0
2, 77760, Note_off_c, 1, 90, 0
2, 77760, Note_off_c, 1, 99, 0
2, 77800, Note_on_c, 1, 35, 127
2, 77800, Note_on_c, 1, 43, 127
2, 77800, Note_off_c, 1, 45, 0
2, 77800, Note_off_c, 1, 59, 0
2, 77800, Note_on_c, 1, 64, 127
2, 77800, Note_on_c, 1, 69, 127
2, 77800, Note_off_c, 1, 71, 0
2, 77840, Note_off_c, 1, 35, 0
2, 77840, Note_off_c, 1, 43, 0
2, 77840, Note_off_c, 1, 62, 0
2, 77840, Note_off_c, 1, 64, 0
2, 77840, Note_off_c, 1, 69, 0
2, 77880, Note_on_c, 1, 39, 127
2, 77880, Note_on_c, 1, 51, 127
2, 77880, Note_on_c, 1, 75, 127
2, 77880, Note_on_c, 1, 79, 127
2, 77880, Note_on_c, 1, 87, 127
2, 78120, Note_off_c, 1, 39, 0
2, 78120, Note_off_c, 1, 51, 0
2, 78160, Note_on_c, 1, 32, 127
2, 78160, Note_on_c, 1, 44, 127
2, 78160, Note_off_c, 1, 79, 0
2, 78160, Note_on_c, 1, 82, 127
2, 78320, Note_on_c, 1, 31, 127
2, 78320, Note_off_c, 1, 32, 0
2, 78320, Note_on_c, 1, 43, 127
2, 78320, Note_off_c, 1, 44, 0
2, 78400, Note_off_c, 1, 31, 0
2, 78400, Note_off_c, 1, 43, 0
2, 78440, Note_on_c, 1, 64, 127
2, 78440, Note_on_c, 1, 71, 127
2, 78440, Note_off_c, 1, 75, 0
2, 78440, Note_off_c, 1, 82, 0
2, 78440, Note_on_c, 1, 83, 127
2, 78440, Note_off_c, 1, 87, 0
2, 78440, Note_on_c, 1, 90, 127
2, 78480, Note_off_c, 1, 64, 0
2, 78480, Note_off_c, 1, 71, 0
2, 78480, Note_off_c, 1, 83, 0
2, 78480, Note_off_c, 1, 90, 0
2, 78520, Note_on_c, 1, 59, 127
2, 78520, Note_on_c, 1, 62, 127
2, 78520, Note_on_c, 1, 67, 127
2, 78520, Note_on_c, 1, 79, 127
2, 78520, Note_on_c, 1, 86, 127
2, 78520, Note_on_c, 1, 89, 127
2, 78520, Note_on_c, 1, 91, 127
2, 78720, Note_off_c, 1, 59, 0
2, 78720, Note_off_c, 1, 62, 0
2, 78720, Note_off_c, 1, 67, 0
2, 78760, Note_off_c, 1, 79, 0
2, 78760, Note_on_c, 1, 81, 127
2, 78760, Note_on_c, 1, 82, 127
2, 78760, Note_off_c, 1, 86, 0
2, 78760, Note_off_c, 1, 89, 0
2, 78760, Note_off_c, 1, 91, 0
2, 78760, Note_on_c, 1, 93, 127
2, 78760, Note_on_c, 1, 94, 127
2, 78800, Note_on_c, 1, 41, 127
2, 78800, Note_on_c, 1, 53, 127
2, 78800, Note_off_c, 1, 81, 0
2, 78800, Note_off_c, 1, 82, 0
2, 78800, Note_on_c, 1, 83, 127
2, 78800, Note_on_c, 1, 86, 127
2, 78800, Note_off_c, 1, 93, 0
2, 78800, Note_off_c, 1, 94, 0
2, 78800, Note_on_c, 1, 95, 127
2, 79000, Note_off_c, 1, 83, 0
2, 79000, Note_off_c, 1, 86, 0
2, 79000, Note_off_c, 1, 95, 0
2, 79040, Note_off_c, 1, 41, 0
2, 79040, Note_off_c, 1, 53, 0
2, 79080, Note_on_c, 1, 43, 127
2, 79080, Note_on_c, 1, 55, 127
2, 79080, Note_on_c, 1, 75, 127
2, 79080, Note_on_c, 1, 82, 127
2, 79080, Note_on_c, 1, 87, 127
2, 79320, Note_off_c, 1, 75, 0
2, 79320, Note_off_c, 1, 82, 0
2, 79320, Note_off_c, 1, 87, 0
2, 79400, Note_on_c, 1, 41, 127
2, 79400, Note_off_c, 1, 43, 0
2, 79400, Note_on_c, 1, 53, 127
2, 79400, Note_off_c, 1, 55, 0
2, 79400, Note_on_c, 1, 72, 127
2, 79400, Note_on_c, 1, 77, 127
2, 79400, Note_on_c, 1, 80, 127
2, 79400, Note_on_c, 1, 84, 127
2, 79640, Note_off_c, 1, 41, 0
2, 79640, Note_off_c, 1, 53, 0
2, 79640, Note_off_c, 1, 72, 0
2, 79640, Note_off_c, 1, 77, 0
2, 79640, Note_off_c, 1, 80, 0
2, 79640, Note_off_c, 1, 84, 0
2, 79680, Note_on_c, 1, 51, 127
2, 79680, Note_on_c, 1, 53, 127
2, 79680, Note_on_c, 1, 60, 127
2, 79680, Note_on_c, 1, 64, 127
2, 79720, Note_off_c, 1, 51, 0
2, 79720, Note_off_c, 1, 53, 0
2, 79720, Note_on_c, 1, 58, 127
2, 79720, Note_off_c, 1, 60, 0
2, 79720, Note_off_c, 1, 64, 0
2, 79720, Note_on_c, 1, 65, 127
2, 79720, Note_on_c, 1, 70, 127
2, 79720, Note_on_c, 1, 73, 127
2, 79720, Note_on_c, 1, 77, 127
2, 79720, Note_on_c, 1, 85, 127
2, 79760, Note_on_c, 1, 57, 127
2, 79760, Note_off_c, 1, 58, 0
2, 79760, Note_on_c, 1, 62, 127
2, 79760, Note_on_c, 1, 64, 127
2, 79760, Note_off_c, 1, 65, 0
2, 79760, Note_on_c, 1, 69, 127
2, 79760, Note_off_c, 1, 70, 0
2, 79760, Note_off_c, 1, 73, 0
2, 79760, Note_off_c, 1, 77, 0
2, 79760, Note_on_c, 1, 81, 127
2, 79760, Note_off_c, 1, 85, 0
2, 79800, Note_on_c, 1, 54, 127
2, 79800, Note_off_c, 1, 57, 0
2, 79800, Note_off_c, 1, 62, 0
2, 79800, Note_off_c, 1, 64, 0
2, 79800, Note_on_c, 1, 66, 127
2, 79800, Note_off_c, 1, 69, 0
2, 79800, Note_on_c, 1, 77, 127
2, 79800, Note_off_c, 1, 81, 0
2, 79840, Note_on_c, 1, 49, 127
2, 79840, Note_on_c, 1, 53, 127
2, 79840, Note_off_c, 1, 54, 0
2, 79840, Note_on_c, 1, 60, 127
2, 79840, Note_off_c, 1, 66, 0
2, 79840, Note_on_c, 1, 69, 127
2, 79840, Note_off_c, 1, 77, 0
2, 79960, Note_off_c, 1, 49, 0
2, 79960, Note_off_c, 1, 53, 0
2, 79960, Note_off_c, 1, 60, 0
2, 79960, Note_off_c, 1, 69, 0
2, 80000, Note_on_c, 1, 60, 127
2, 80000, Note_on_c, 1, 64, 127
2, 80000, Note_on_c, 1, 70, 127
2, 80000, Note_on_c, 1, 74, 127
2, 80000, Note_on_c, 1, 84, 127
2, 80240, Note_off_c, 1, 60, 0
2, 80240, Note_off_c, 1, 64, 0
2, 80240, Note_off_c, 1, 70, 0
2, 80240, Note_on_c, 1, 72, 127
2, 80240, Note_off_c, 1, 74, 0
2, 80240, Note_on_c, 1, 79, 127
2, 80240, Note_off_c, 1, 84, 0
2, 80280, Note_on_c, 1, 46, 127
2, 80280, Note_on_c, 1, 58, 127
2, 80280, Note_off_c, 1, 72, 0
2, 80280, Note_on_c, 1, 73, 127
2, 80280, Note_on_c, 1, 77, 127
2, 80280, Note_off_c, 1, 79, 0
2, 80280, Note_on_c, 1, 89, 127
2, 80320, Note_off_c, 1, 46, 0
2, 80320, Note_off_c, 1, 58, 0
2, 80320, Note_off_c, 1, 73, 0
2, 80320, Note_off_c, 1, 77, 0
2, 80320, Note_off_c, 1, 89, 0
2, 80360, Note_on_c, 1, 34, 127
2, 80360, Note_on_c, 1, 41, 127
2, 80360, Note_on_c, 1, 44, 127
2, 80360, Note_on_c, 1, 53, 127
2, 80360, Note_on_c, 1, 56, 127
2, 80360, Note_on_c, 1, 58, 127
2, 80600, Note_off_c, 1, 34, 0
2, 80600, Note_off_c, 1, 41, 0
2, 80600, Note_off_c, 1, 44, 0
2, 80600, Note_off_c, 1, 53, 0
2, 80600, Note_off_c, 1, 56, 0
2, 80600, Note_off_c, 1, 58, 0
2, 80680, Note_on_c, 1, 60, 127
2, 80680, Note_on_c, 1, 63, 127
2, 80680, Note_on_c, 1, 68, 127
2, 80680, Note_on_c, 1, 80, 127
2, 80680, Note_on_c, 1, 87, 127
2, 80680, Note_on_c, 1, 90, 127
2, 80680, Note_on_c, 1, 92, 127
2, 80880, Note_off_c, 1, 60, 0
2, 80880, Note_off_c, 1, 63, 0
2, 80880, Note_off_c, 1, 68, 0
2, 80880, Note_off_c, 1, 80, 0
2, 80880, Note_off_c, 1, 87, 0
2, 80880, Note_off_c, 1, 90, 0
2, 80880, Note_off_c, 1, 92, 0
2, 80920, Note_on_c, 1, 34, 127
2, 80920, Note_on_c, 1, 84, 127
2, 80920, Note_on_c, 1, 92, 127
2, 80960, Note_off_c, 1, 34, 0
2, 80960, Note_on_c, 1, 82, 127
2, 80960, Note_off_c, 1, 84, 0
2, 80960, Note_on_c, 1, 91, 127
2, 80960, Note_off_c, 1, 92, 0
2, 81000, Note_on_c, 1, 30, 127
2, 81000, Note_off_c, 1, 91, 0
2, 81000, Note_on_c, 1, 94, 127
2, 81040, Note_off_c, 1, 30, 0
2, 81040, Note_on_c, 1, 58, 127
2, 81040, Note_on_c, 1, 79, 127
2, 81040, Note_on_c, 1, 91, 127
2, 81040, Note_off_c, 1, 94, 0
2, 81080, Note_off_c, 1, 58, 0
2, 81080, Note_off_c, 1, 79, 0
2, 81080, Note_off_c, 1, 82, 0
2, 81080, Note_off_c, 1, 91, 0
2, 81120, Note_on_c, 1, 55, 127
2, 81120, Note_on_c, 1, 79, 127
2, 81120, Note_on_c, 1, 83, 127
2, 81120, Note_on_c, 1, 91, 127
2, 81160, Note_off_c, 1, 55, 0
2, 81160, Note_off_c, 1, 79, 0
2, 81160, Note_off_c, 1, 83, 0
2, 81160, Note_off_c, 1, 91, 0
2, 81200, Note_on_c, 1, 44, 127
2, 81200, Note_on_c, 1, 56, 127
2, 81200, Note_on_c, 1, 60, 127
2, 81200, Note_on_c, 1, 63, 127
2, 81200, Note_on_c, 1, 68, 127
2, 81200, Note_on_c, 1, 72, 127
2, 81200, Note_on_c, 1, 75, 127
2, 81200, Note_on_c, 1, 80, 127
2, 81240, Note_off_c, 1, 44, 0
2, 81240, Note_off_c, 1, 56, 0
2, 81240, Note_off_c, 1, 60, 0
2, 81240, Note_off_c, 1, 63, 0
2, 81240, Note_off_c, 1, 68, 0
2, 81240, Note_off_c, 1, 72, 0
2, 81240, Note_off_c, 1, 75, 0
2, 81240, Note_off_c, 1, 80, 0
2, 81280, Note_on_c, 1, 44, 127
2, 81280, Note_on_c, 1, 56, 127
2, 81280, Note_on_c, 1, 68, 127
2, 81280, Note_on_c, 1, 80, 127
2, 81360, Note_on_c, 1, 43, 127
2, 81360, Note_off_c, 1, 44, 0
2, 81360, Note_on_c, 1, 51, 127
2, 81360, Note_off_c, 1, 56, 0
2, 81360, Note_off_c, 1, 68, 0
2, 81360, Note_on_c, 1, 73, 127
2, 81360, Note_off_c, 1, 80, 0
2, 81360, Note_on_c, 1, 82, 127
2, 81400, Note_off_c, 1, 43, 0
2, 81400, Note_on_c, 1, 45, 127
2, 81400, Note_off_c, 1, 51, 0
2, 81400, Note_on_c, 1, 57, 127
2, 81400, Note_on_c, 1, 63, 127
2, 81400, Note_on_c, 1, 69, 127
2, 81400, Note_on_c, 1, 72, 127
2, 81400, Note_off_c, 1, 73, 0
2, 81400, Note_off_c, 1, 82, 0
2, 81440, Note_off_c, 1, 45, 0
2, 81440, Note_on_c, 1, 49, 127
2, 81440, Note_on_c, 1, 54, 127
2, 81440, Note_off_c, 1, 57, 0
2, 81440, Note_on_c, 1, 59, 127
2, 81440, Note_on_c, 1, 61, 127
2, 81440, Note_off_c, 1, 63, 0
2, 81440, Note_on_c, 1, 68, 127
2, 81440, Note_off_c, 1, 69, 0
2, 81440, Note_off_c, 1, 72, 0
2, 81480, Note_off_c, 1, 49, 0
2, 81480, Note_off_c, 1, 54, 0
2, 81480, Note_off_c, 1, 59, 0
2, 81480, Note_off_c, 1, 61, 0
2, 81480, Note_off_c, 1, 68, 0
2, 81520, Note_on_c, 1, 31, 127
2, 81520, Note_on_c, 1, 43, 127
2, 81520, Note_on_c, 1, 63, 127
2, 81520, Note_on_c, 1, 70, 127
2, 81520, Note_on_c, 1, 75, 127
2, 81760, Note_off_c, 1, 31, 0
2, 81760, Note_off_c, 1, 43, 0
2, 81760, Note_off_c, 1, 63, 0
2, 81760, Note_off_c, 1, 70, 0
2, 81760, Note_off_c, 1, 75, 0
2, 81800, Note_on_c, 1, 45, 127
2, 81800, Note_on_c, 1, 49, 127
2, 81800, Note_on_c, 1, 61, 127
2, 81800, Note_on_c, 1, 73, 127
2, 81960, Note_off_c, 1, 45, 0
2, 81960, Note_off_c, 1, 49, 0
2, 81960, Note_off_c, 1, 61, 0
2, 81960, Note_off_c, 1, 73, 0
2, 82000, Note_on_c, 1, 55, 127
2, 82000, Note_on_c, 1, 57, 127
2, 82000, Note_on_c, 1, 63, 127
2, 82000, Note_on_c, 1, 75, 127
2, 82040, Note_off_c, 1, 55, 0
2, 82040, Note_off_c, 1, 57, 0
2, 82040, Note_off_c, 1, 63, 0
2, 82040, Note_off_c, 1, 75, 0
2, 82080, Note_on_c, 1, 55, 127
2, 82080, Note_on_c, 1, 58, 127
2, 82080, Note_on_c, 1, 61, 127
2, 82080, Note_on_c, 1, 73, 127
2, 82200, Note_off_c, 1, 55, 0
2, 82200, Note_off_c, 1, 58, 0
2, 82200, Note_off_c, 1, 61, 0
2, 82200, Note_off_c, 1, 73, 0
2, 82240, Note_on_c, 1, 48, 127
2, 82240, Note_on_c, 1, 65, 127
2, 82240, Note_on_c, 1, 77, 127
2, 82280, Note_off_c, 1, 48, 0
2, 82320, Note_on_c, 1, 55, 127
2, 82320, Note_off_c, 1, 65, 0
2, 82320, Note_off_c, 1, 77, 0
2, 82360, Note_on_c, 1, 53, 127
2, 82360, Note_off_c, 1, 55, 0
2, 82360, Note_on_c, 1, 60, 127
2, 82360, Note_on_c, 1, 72, 127
2, 82400, Note_off_c, 1, 53, 0
2, 82400, Note_off_c, 1, 60, 0
2, 82400, Note_off_c, 1, 72, 0
2, 82440, Note_on_c, 1, 41, 127
2, 82440, Note_on_c, 1, 56, 127
2, 82440, Note_on_c, 1, 72, 127
2, 82600, Note_off_c, 1, 41, 0
2, 82600, Note_off_c, 1, 56, 0
2, 82600, Note_off_c, 1, 72, 0
2, 82680, Note_on_c, 1, 50, 127
2, 82680, Note_on_c, 1, 53, 127
2, 82680, Note_on_c, 1, 58, 127
2, 82680, Note_on_c, 1, 62, 127
2, 82680, Note_on_c, 1, 65, 127
2, 82680, Note_on_c, 1, 70, 127
2, 82800, Note_off_c, 1, 50, 0
2, 82800, Note_off_c, 1, 53, 0
2, 82800, Note_off_c, 1, 58, 0
2, 82800, Note_off_c, 1, 62, 0
2, 82800, Note_off_c, 1, 65, 0
2, 82800, Note_off_c, 1, 70, 0
2, 82840, Note_on_c, 1, 50, 127
2, 82840, Note_on_c, 1, 53, 127
2, 82840, Note_on_c, 1, 58, 127
2, 82840, Note_on_c, 1, 62, 127
2, 82840, Note_on_c, 1, 65, 127
2, 82840, Note_on_c, 1, 70, 127
2, 83000, Note_off_c, 1, 50, 0
2, 83000, Note_off_c, 1, 53, 0
2, 83000, Note_off_c, 1, 58, 0
2, 83000, Note_off_c, 1, 62, 0
2, 83000, Note_off_c, 1, 65, 0
2, 83000, Note_off_c, 1, 70, 0
2, 83040, Note_on_c, 1, 50, 127
2, 83040, Note_on_c, 1, 53, 127
2, 83040, Note_on_c, 1, 58, 127
2, 83040, Note_on_c, 1, 62, 127
2, 83040, Note_on_c, 1, 65, 127
2, 83040, Note_on_c, 1, 70, 127
2, 83160, Note_off_c, 1, 50, 0
2, 83160, Note_off_c, 1, 53, 0
2, 83160, Note_off_c, 1, 58, 0
2, 83160, Note_off_c, 1, 62, 0
2, 83160, Note_off_c, 1, 65, 0
2, 83160, Note_off_c, 1, 70, 0
2, 83200, Note_on_c, 1, 48, 127
2, 83200, Note_on_c, 1, 65, 127
2, 83200, Note_on_c, 1, 68, 127
2, 83200, Note_on_c, 1, 74, 127
2, 83280, Note_off_c, 1, 48, 0
2, 83280, Note_off_c, 1, 65, 0
2, 83280, Note_off_c, 1, 68, 0
2, 83280, Note_off_c, 1, 74, 0
2, 83320, Note_on_c, 1, 51, 127
2, 83320, Note_on_c, 1, 63, 127
2, 83320, Note_on_c, 1, 66, 127
2, 83320, Note_on_c, 1, 68, 127
2, 83360, Note_off_c, 1, 51, 0
2, 83360, Note_off_c, 1, 63, 0
2, 83360, Note_off_c, 1, 66, 0
2, 83360, Note_off_c, 1, 68, 0
2, 83400, Note_on_c, 1, 72, 127
2, 83440, Note_on_c, 1, 50, 127
2, 83440, Note_on_c, 1, 53, 127
2, 83440, Note_on_c, 1, 59, 127
2, 83440, Note_on_c, 1, 62, 127
2, 83440, Note_off_c, 1, 72, 0
2, 83440, Note_on_c, 1, 74, 127
2, 83440, Note_on_c, 1, 77, 127
2, 83440, Note_on_c, 1, 80, 127
2, 83440, Note_on_c, 1, 86, 127
2, 83480, Note_on_c, 1, 41, 127
2, 83480, Note_on_c, 1, 46, 127
2, 83480, Note_off_c, 1, 53, 0
2, 83480, Note_off_c, 1, 59, 0
2, 83480, Note_off_c, 1, 62, 0
2, 83480, Note_off_c, 1, 74, 0
2, 83480, Note_off_c, 1, 77, 0
2, 83480, Note_off_c, 1, 80, 0
2, 83480, Note_on_c, 1, 83, 127
2, 83480, Note_off_c, 1, 86, 0
2, 83520, Note_on_c, 1, 32, 127
2, 83520, Note_off_c, 1, 41, 0
2, 83520, Note_off_c, 1, 46, 0
2, 83520, Note_off_c, 1, 50, 0
2, 83520, Note_off_c, 1, 83, 0
2, 83520, Note_on_c, 1, 90, 127
2, 83520, Note_on_c, 1, 93, 127
2, 83560, Note_off_c, 1, 32, 0
2, 83560, Note_off_c, 1, 90, 0
2, 83560, Note_off_c, 1, 93, 0
2, 83600, Note_on_c, 1, 70, 127
2, 83600, Note_on_c, 1, 77, 127
2, 83640, Note_on_c, 1, 56, 127
2, 83640, Note_on_c, 1, 65, 127
2, 83640, Note_on_c, 1, 68, 127
2, 83640, Note_off_c, 1, 70, 0
2, 83640, Note_off_c, 1, 77, 0
2, 83640, Note_on_c, 1, 97, 127
2, 83680, Note_on_c, 1, 32, 127
2, 83680, Note_on_c, 1, 44, 127
2, 83680, Note_off_c, 1, 56, 0
2, 83680, Note_on_c, 1, 59, 127
2, 83680, Note_off_c, 1, 65, 0
2, 83680, Note_off_c, 1, 97, 0
2, 83720, Note_off_c, 1, 59, 0
2, 83720, Note_off_c, 1, 68, 0
2, 83760, Note_off_c, 1, 32, 0
2, 83760, Note_off_c, 1, 44, 0
2, 83760, Note_on_c, 1, 56, 127
2, 83800, Note_off_c, 1, 56, 0
2, 83800, Note_on_c, 1, 82, 127
2, 83800, Note_on_c, 1, 86, 127
2, 83800, Note_on_c, 1, 91, 127
2, 83800, Note_on_c, 1, 94, 127
2, 83840, Note_on_c, 1, 68, 127
2, 83840, Note_off_c, 1, 82, 0
2, 83840, Note_off_c, 1, 86, 0
2, 83840, Note_on_c, 1, 87, 127
2, 83840, Note_off_c, 1, 94, 0
2, 83880, Note_off_c, 1, 68, 0
2, 83880, Note_off_c, 1, 87, 0
2, 83880, Note_off_c, 1, 91, 0
2, 83960, Note_on_c, 1, 77, 127
2, 83960, Note_on_c, 1, 79, 127
2, 83960, Note_on_c, 1, 82, 127
2, 83960, Note_on_c, 1, 86, 127
2, 84000, Note_on_c, 1, 65, 127
2, 84000, Note_on_c, 1, 68, 127
2, 84000, Note_on_c, 1, 74, 127
2, 84000, Note_off_c, 1, 77, 0
2, 84000, Note_off_c, 1, 79, 0
2, 84000, Note_on_c, 1, 81, 127
2, 84000, Note_off_c, 1, 82, 0
2, 84000, Note_off_c, 1, 86, 0
2, 84040, Note_off_c, 1, 65, 0
2, 84040, Note_off_c, 1, 68, 0
2, 84040, Note_off_c, 1, 74, 0
2, 84040, Note_on_c, 1, 77, 127
2, 84040, Note_off_c, 1, 81, 0
2, 84040, Note_on_c, 1, 84, 127
2, 84080, Note_on_c, 1, 74, 127
2, 84080, Note_off_c, 1, 77, 0
2, 84080, Note_off_c, 1, 84, 0
2, 84120, Note_on_c, 1, 84, 127
2, 84120, Note_on_c, 1, 86, 127
2, 84160, Note_on_c, 1, 62, 127
2, 84160, Note_off_c, 1, 74, 0
2, 84160, Note_off_c, 1, 84, 0
2, 84200, Note_off_c, 1, 62, 0
2, 84200, Note_on_c, 1, 63, 127
2, 84200, Note_on_c, 1, 70, 127
2, 84200, Note_on_c, 1, 74, 127
2, 84200, Note_off_c, 1, 86, 0
2, 84280, Note_off_c, 1, 63, 0
2, 84280, Note_off_c, 1, 70, 0
2, 84280, Note_off_c, 1, 74, 0
2, 84320, Note_on_c, 1, 64, 127
2, 84320, Note_on_c, 1, 70, 127
2, 84320, Note_on_c, 1, 82, 127
2, 84320, Note_on_c, 1, 86, 127
2, 84360, Note_on_c, 1, 55, 127
2, 84360, Note_on_c, 1, 58, 127
2, 84360, Note_on_c, 1, 61, 127
2, 84360, Note_on_c, 1, 63, 127
2, 84360, Note_off_c, 1, 64, 0
2, 84360, Note_off_c, 1, 70, 0
2, 84360, Note_off_c, 1, 82, 0
2, 84360, Note_off_c, 1, 86, 0
2, 84360, Note_on_c, 1, 89, 127
2, 84400, Note_on_c, 1, 45, 127
2, 84400, Note_off_c, 1, 55, 0
2, 84400, Note_off_c, 1, 58, 0
2, 84400, Note_off_c, 1, 61, 0
2, 84400, Note_off_c, 1, 63, 0
2, 84400, Note_on_c, 1, 78, 127
2, 84400, Note_on_c, 1, 81, 127
2, 84400, Note_on_c, 1, 87, 127
2, 84400, Note_off_c, 1, 89, 0
2, 84400, Note_on_c, 1, 90, 127
2, 84440, Note_off_c, 1, 45, 0
2, 84440, Note_on_c, 1, 50, 127
2, 84440, Note_on_c, 1, 59, 127
2, 84440, Note_on_c, 1, 65, 127
2, 84440, Note_on_c, 1, 67, 127
2, 84440, Note_on_c, 1, 74, 127
2, 84440, Note_off_c, 1, 78, 0
2, 84440, Note_off_c, 1, 81, 0
2, 84440, Note_off_c, 1, 87, 0
2, 84440, Note_off_c, 1, 90, 0
2, 84480, Note_on_c, 1, 46, 127
2, 84480, Note_off_c, 1, 50, 0
2, 84480, Note_on_c, 1, 55, 127
2, 84480, Note_on_c, 1, 58, 127
2, 84480, Note_off_c, 1, 59, 0
2, 84480, Note_on_c, 1, 63, 127
2, 84480, Note_off_c, 1, 65, 0
2, 84480, Note_off_c, 1, 67, 0
2, 84480, Note_on_c, 1, 70, 127
2, 84480, Note_off_c, 1, 74, 0
2, 84520, Note_on_c, 1, 42, 127
2, 84520, Note_on_c, 1, 49, 127
2, 84520, Note_on_c, 1, 54, 127
2, 84520, Note_off_c, 1, 55, 0
2, 84520, Note_off_c, 1, 58, 0
2, 84520, Note_off_c, 1, 63, 0
2, 84520, Note_off_c, 1, 70, 0
2, 84520, Note_on_c, 1, 82, 127
2, 84560, Note_on_c, 1, 40, 127
2, 84560, Note_off_c, 1, 42, 0
2, 84560, Note_off_c, 1, 46, 0
2, 84560, Note_off_c, 1, 49, 0
2, 84560, Note_off_c, 1, 54, 0
2, 84560, Note_on_c, 1, 78, 127
2, 84560, Note_off_c, 1, 82, 0
2, 84560, Note_on_c, 1, 90, 127
2, 84600, Note_off_c, 1, 40, 0
2, 84600, Note_on_c, 1, 51, 127
2, 84600, Note_on_c, 1, 60, 127
2, 84600, Note_on_c, 1, 62, 127
2, 84600, Note_off_c, 1, 78, 0
2, 84600, Note_off_c, 1, 90, 0
2, 84640, Note_off_c, 1, 51, 0
2, 84640, Note_off_c, 1, 62, 0
2, 84640, Note_on_c, 1, 72, 127
2, 84640, Note_on_c, 1, 80, 127
2, 84640, Note_on_c, 1, 92, 127
2, 84680, Note_on_c, 1, 45, 127
2, 84680, Note_on_c, 1, 57, 127
2, 84680, Note_off_c, 1, 60, 0
2, 84680, Note_off_c, 1, 72, 0
2, 84680, Note_off_c, 1, 80, 0
2, 84680, Note_on_c, 1, 88, 127
2, 84680, Note_off_c, 1, 92, 0
2, 84680, Note_on_c, 1, 93, 127
2, 84680, Note_on_c, 1, 97, 127
2, 84680, Note_on_c, 1, 100, 127
2, 84720, Note_off_c, 1, 45, 0
2, 84720, Note_off_c, 1, 57, 0
2, 84720, Note_on_c, 1, 67, 127
2, 84720, Note_on_c, 1, 68, 127
2, 84720, Note_on_c, 1, 73, 127
2, 84720, Note_on_c, 1, 77, 127
2, 84720, Note_off_c, 1, 88, 0
2, 84720, Note_off_c, 1, 93, 0
2, 84720, Note_off_c, 1, 97, 0
2, 84720, Note_off_c, 1, 100, 0
2, 84760, Note_off_c, 1, 67, 0
2, 84760, Note_off_c, 1, 68, 0
2, 84760, Note_off_c, 1, 73, 0
2, 84760, Note_off_c, 1, 77, 0
2, 84800, Note_on_c, 1, 58, 127
2, 84800, Note_on_c, 1, 63, 127
2, 84800, Note_on_c, 1, 83, 127
2, 84840, Note_on_c, 1, 54, 127
2, 84840, Note_off_c, 1, 58, 0
2, 84840, Note_on_c, 1, 60, 127
2, 84840, Note_off_c, 1, 63, 0
2, 84840, Note_on_c, 1, 82, 127
2, 84840, Note_off_c, 1, 83, 0
2, 84840, Note_on_c, 1, 87, 127
2, 84840, Note_on_c, 1, 94, 127
2, 84880, Note_on_c, 1, 44, 127
2, 84880, Note_off_c, 1, 54, 0
2, 84880, Note_on_c, 1, 56, 127
2, 84880, Note_off_c, 1, 60, 0
2, 84880, Note_on_c, 1, 80, 127
2, 84880, Note_off_c, 1, 82, 0
2, 84880, Note_on_c, 1, 84, 127
2, 84880, Note_off_c, 1, 87, 0
2, 84880, Note_off_c, 1, 94, 0
2, 84920, Note_off_c, 1, 44, 0
2, 84920, Note_on_c, 1, 58, 127
2, 84920, Note_on_c, 1, 61, 127
2, 84920, Note_on_c, 1, 65, 127
2, 84920, Note_off_c, 1, 80, 0
2, 84920, Note_on_c, 1, 82, 127
2, 84920, Note_off_c, 1, 84, 0
2, 84960, Note_on_c, 1, 36, 127
2, 84960, Note_on_c, 1, 43, 127
2, 84960, Note_on_c, 1, 48, 127
2, 84960, Note_on_c, 1, 55, 127
2, 84960, Note_off_c, 1, 56, 0
2, 84960, Note_off_c, 1, 58, 0
2, 84960, Note_on_c, 1, 60, 127
2, 84960, Note_off_c, 1, 61, 0
2, 84960, Note_off_c, 1, 65, 0
2, 84960, Note_on_c, 1, 67, 127
2, 84960, Note_off_c, 1, 82, 0
2, 85000, Note_off_c, 1, 36, 0
2, 85000, Note_off_c, 1, 43, 0
2, 85000, Note_off_c, 1, 48, 0
2, 85000, Note_off_c, 1, 55, 0
2, 85000, Note_off_c, 1, 60, 0
2, 85000, Note_on_c, 1, 63, 127
2, 85000, Note_off_c, 1, 67, 0
2, 85000, Note_on_c, 1, 75, 127
2, 85000, Note_on_c, 1, 78, 127
2, 85000, Note_on_c, 1, 82, 127
2, 85040, Note_on_c, 1, 39, 127
2, 85040, Note_on_c, 1, 49, 127
2, 85040, Note_on_c, 1, 54, 127
2, 85040, Note_on_c, 1, 58, 127
2, 85040, Note_on_c, 1, 61, 127
2, 85040, Note_off_c, 1, 63, 0
2, 85040, Note_off_c, 1, 75, 0
2, 85040, Note_off_c, 1, 78, 0
2, 85040, Note_off_c, 1, 82, 0
2, 85080, Note_off_c, 1, 39, 0
2, 85080, Note_on_c, 1, 46, 127
2, 85080, Note_off_c, 1, 49, 0
2, 85080, Note_on_c, 1, 50, 127
2, 85080, Note_off_c, 1, 54, 0
2, 85080, Note_on_c, 1, 55, 127
2, 85080, Note_off_c, 1, 58, 0
2, 85080, Note_off_c, 1, 61, 0
2, 85080, Note_on_c, 1, 82, 127
2, 85120, Note_on_c, 1, 37, 127
2, 85120, Note_off_c, 1, 46, 0
2, 85120, Note_on_c, 1, 49, 127
2, 85120, Note_off_c, 1, 50, 0
2, 85120, Note_off_c, 1, 55, 0
2, 85120, Note_on_c, 1, 57, 127
2, 85120, Note_on_c, 1, 62, 127
2, 85120, Note_on_c, 1, 66, 127
2, 85120, Note_off_c, 1, 82, 0
2, 85160, Note_off_c, 1, 37, 0
2, 85160, Note_off_c, 1, 49, 0
2, 85160, Note_off_c, 1, 57, 0
2, 85160, Note_off_c, 1, 62, 0
2, 85160, Note_off_c, 1, 66, 0
2, 85160, Note_on_c, 1, 82, 127
2, 85200, Note_on_c, 1, 66, 127
2, 85200, Note_on_c, 1, 74, 127
2, 85200, Note_on_c, 1, 81, 127
2, 85200, Note_off_c, 1, 82, 0
2, 85200, Note_on_c, 1, 84, 127
2, 85200, Note_on_c, 1, 93, 127
2, 85240, Note_on_c, 1, 48, 127
2, 85240, Note_on_c, 1, 53, 127
2, 85240, Note_on_c, 1, 60, 127
2, 85240, Note_off_c, 1, 66, 0
2, 85240, Note_off_c, 1, 81, 0
2, 85240, Note_off_c, 1, 84, 0
2, 85240, Note_on_c, 1, 86, 127
2, 85240, Note_off_c, 1, 93, 0
2, 85280, Note_on_c, 1, 36, 127
2, 85280, Note_on_c, 1, 39, 127
2, 85280, Note_on_c, 1, 42, 127
2, 85280, Note_on_c, 1, 45, 127
2, 85280, Note_off_c, 1, 53, 0
2, 85280, Note_off_c, 1, 60, 0
2, 85280, Note_off_c, 1, 74, 0
2, 85280, Note_on_c, 1, 75, 127
2, 85280, Note_on_c, 1, 78, 127
2, 85280, Note_on_c, 1, 81, 127
2, 85280, Note_off_c, 1, 86, 0
2, 85280, Note_on_c, 1, 87, 127
2, 85320, Note_off_c, 1, 36, 0
2, 85320, Note_off_c, 1, 39, 0
2, 85320, Note_off_c, 1, 42, 0
2, 85320, Note_off_c, 1, 48, 0
2, 85320, Note_on_c, 1, 51, 127
2, 85320, Note_on_c, 1, 54, 127
2, 85320, Note_off_c, 1, 75, 0
2, 85320, Note_off_c, 1, 81, 0
2, 85320, Note_off_c, 1, 87, 0
2, 85360, Note_off_c, 1, 45, 0
2, 85360, Note_off_c, 1, 51, 0
2, 85360, Note_off_c, 1, 54, 0
2, 85360, Note_off_c, 1, 78, 0
2, 85360, Note_on_c, 1, 91, 127
2, 85360, Note_on_c, 1, 97, 127
2, 85400, Note_on_c, 1, 50, 127
2, 85400, Note_on_c, 1, 54, 127
2, 85400, Note_on_c, 1, 86, 127
2, 85400, Note_on_c, 1, 88, 127
2, 85400, Note_on_c, 1, 90, 127
2, 85400, Note_off_c, 1, 91, 0
2, 85400, Note_off_c, 1, 97, 0
2, 85440, Note_off_c, 1, 50, 0
2, 85440, Note_off_c, 1, 54, 0
2, 85440, Note_on_c, 1, 56, 127
2, 85440, Note_on_c, 1, 62, 127
2, 85440, Note_on_c, 1, 65, 127
2, 85440, Note_on_c, 1, 84, 127
2, 85440, Note_off_c, 1, 86, 0
2, 85440, Note_on_c, 1, 87, 127
2, 85440, Note_off_c, 1, 88, 0
2, 85440, Note_off_c, 1, 90, 0
2, 85440, Note_on_c, 1, 96, 127
2, 85480, Note_on_c, 1, 50, 127
2, 85480, Note_on_c, 1, 53, 127
2, 85480, Note_off_c, 1, 62, 0
2, 85480, Note_off_c, 1, 65, 0
2, 85480, Note_on_c, 1, 80, 127
2, 85480, Note_off_c, 1, 84, 0
2, 85480, Note_off_c, 1, 87, 0
2, 85480, Note_off_c, 1, 96, 0
2, 85520, Note_off_c, 1, 50, 0
2, 85520, Note_off_c, 1, 53, 0
2, 85520, Note_off_c, 1, 56, 0
2, 85520, Note_off_c, 1, 80, 0
2, 85560, Note_on_c, 1, 46, 127
2, 85560, Note_on_c, 1, 56, 127
2, 85560, Note_on_c, 1, 65, 127
2, 85560, Note_on_c, 1, 70, 127
2, 85560, Note_on_c, 1, 74, 127
2, 85720, Note_off_c, 1, 46, 0
2, 85720, Note_on_c, 1, 51, 127
2, 85720, Note_off_c, 1, 56, 0
2, 85720, Note_on_c, 1, 63, 127
2, 85720, Note_off_c, 1, 65, 0
2, 85720, Note_off_c, 1, 70, 0
2, 85720, Note_off_c, 1, 74, 0
2, 85760, Note_on_c, 1, 34, 127
2, 85760, Note_on_c, 1, 46, 127
2, 85760, Note_off_c, 1, 51, 0
2, 85760, Note_on_c, 1, 61, 127
2, 85760, Note_off_c, 1, 63, 0
2, 85760, Note_on_c, 1, 64, 127
2, 85800, Note_off_c, 1, 61, 0
2, 85800, Note_off_c, 1, 64, 0
2, 85840, Note_on_c, 1, 33, 127
2, 85840, Note_off_c, 1, 34, 0
2, 85840, Note_off_c, 1, 46, 0
2, 85840, Note_on_c, 1, 49, 127
2, 85840, Note_on_c, 1, 61, 127
2, 85880, Note_off_c, 1, 33, 0
2, 85920, Note_on_c, 1, 32, 127
2, 85920, Note_on_c, 1, 37, 127
2, 85920, Note_on_c, 1, 44, 127
2, 85920, Note_off_c, 1, 49, 0
2, 85920, Note_off_c, 1, 61, 0
2, 85920, Note_on_c, 1, 64, 127
2, 85960, Note_off_c, 1, 32, 0
2, 85960, Note_off_c, 1, 37, 0
2, 85960, Note_off_c, 1, 44, 0
2, 85960, Note_on_c, 1, 46, 127
2, 85960, Note_on_c, 1, 56, 127
2, 85960, Note_off_c, 1, 64, 0
2, 85960, Note_on_c, 1, 70, 127
2, 86000, Note_on_c, 1, 44, 127
2, 86000, Note_off_c, 1, 46, 0
2, 86000, Note_off_c, 1, 70, 0
2, 86000, Note_on_c, 1, 74, 127
2, 86000, Note_on_c, 1, 77, 127
2, 86000, Note_on_c, 1, 86, 127
2, 86040, Note_off_c, 1, 74, 0
2, 86040, Note_off_c, 1, 77, 0
2, 86040, Note_off_c, 1, 86, 0
2, 86080, Note_on_c, 1, 43, 127
2, 86080, Note_off_c, 1, 44, 0
2, 86080, Note_on_c, 1, 50, 127
2, 86080, Note_on_c, 1, 53, 127
2, 86080, Note_off_c, 1, 56, 0
2, 86080, Note_on_c, 1, 77, 127
2, 86120, Note_off_c, 1, 43, 0
2, 86120, Note_off_c, 1, 50, 0
2, 86120, Note_off_c, 1, 53, 0
2, 86120, Note_off_c, 1, 77, 0
2, 86160, Note_on_c, 1, 49, 127
2, 86160, Note_on_c, 1, 61, 127
2, 86160, Note_on_c, 1, 88, 127
2, 86160, Note_on_c, 1, 93, 127
2, 86160, Note_on_c, 1, 97, 127
2, 86160, Note_on_c, 1, 100, 127
2, 86200, Note_on_c, 1, 37, 127
2, 86200, Note_off_c, 1, 61, 0
2, 86200, Note_on_c, 1, 68, 127
2, 86200, Note_on_c, 1, 70, 127
2, 86200, Note_on_c, 1, 76, 127
2, 86200, Note_on_c, 1, 80, 127
2, 86200, Note_off_c, 1, 88, 0
2, 86200, Note_off_c, 1, 93, 0
2, 86200, Note_off_c, 1, 97, 0
2, 86200, Note_off_c, 1, 100, 0
2, 86280, Note_off_c, 1, 37, 0
2, 86280, Note_off_c, 1, 49, 0
2, 86280, Note_on_c, 1, 64, 127
2, 86280, Note_off_c, 1, 68, 0
2, 86280, Note_off_c, 1, 70, 0
2, 86280, Note_off_c, 1, 76, 0
2, 86280, Note_on_c, 1, 77, 127
2, 86280, Note_off_c, 1, 80, 0
2, 86280, Note_on_c, 1, 83, 127
2, 86280, Note_on_c, 1, 86, 127
2, 86280, Note_on_c, 1, 89, 127
2, 86320, Note_on_c, 1, 37, 127
2, 86320, Note_on_c, 1, 49, 127
2, 86320, Note_off_c, 1, 64, 0
2, 86320, Note_on_c, 1, 68, 127
2, 86320, Note_on_c, 1, 70, 127
2, 86320, Note_on_c, 1, 76, 127
2, 86320, Note_off_c, 1, 77, 0
2, 86320, Note_on_c, 1, 80, 127
2, 86320, Note_off_c, 1, 83, 0
2, 86320, Note_off_c, 1, 86, 0
2, 86320, Note_off_c, 1, 89, 0
2, 86360, Note_off_c, 1, 37, 0
2, 86360, Note_off_c, 1, 49, 0
2, 86360, Note_on_c, 1, 65, 127
2, 86360, Note_on_c, 1, 67, 127
2, 86360, Note_off_c, 1, 68, 0
2, 86360, Note_off_c, 1, 70, 0
2, 86360, Note_off_c, 1, 76, 0
2, 86360, Note_off_c, 1, 80, 0
2, 86400, Note_on_c, 1, 48, 127
2, 86400, Note_on_c, 1, 55, 127
2, 86400, Note_off_c, 1, 65, 0
2, 86400, Note_off_c, 1, 67, 0
2, 86400, Note_on_c, 1, 80, 127
2, 86440, Note_off_c, 1, 48, 0
2, 86440, Note_off_c, 1, 55, 0
2, 86440, Note_on_c, 1, 59, 127
2, 86440, Note_on_c, 1, 65, 127
2, 86440, Note_on_c, 1, 71, 127
2, 86440, Note_on_c, 1, 77, 127
2, 86440, Note_on_c, 1, 79, 127
2, 86440, Note_off_c, 1, 80, 0
2, 86440, Note_on_c, 1, 83, 127
2, 86480, Note_off_c, 1, 59, 0
2, 86480, Note_on_c, 1, 63, 127
2, 86480, Note_off_c, 1, 65, 0
2, 86480, Note_on_c, 1, 70, 127
2, 86480, Note_off_c, 1, 71, 0
2, 86480, Note_on_c, 1, 75, 127
2, 86480, Note_off_c, 1, 77, 0
2, 86480, Note_on_c, 1, 78, 127
2, 86480, Note_off_c, 1, 79, 0
2, 86480, Note_on_c, 1, 82, 127
2, 86480, Note_off_c, 1, 83, 0
2, 86480, Note_on_c, 1, 90, 127
2, 86520, Note_on_c, 1, 36, 127
2, 86520, Note_off_c, 1, 63, 0
2, 86520, Note_on_c, 1, 65, 127
2, 86520, Note_on_c, 1, 74, 127
2, 86520, Note_off_c, 1, 75, 0
2, 86520, Note_off_c, 1, 78, 0
2, 86520, Note_off_c, 1, 82, 0
2, 86520, Note_off_c, 1, 90, 0
2, 86560, Note_off_c, 1, 36, 0
2, 86560, Note_off_c, 1, 65, 0
2, 86560, Note_off_c, 1, 70, 0
2, 86560, Note_off_c, 1, 74, 0
2, 86600, Note_on_c, 1, 35, 127
2, 86600, Note_on_c, 1, 51, 127
2, 86600, Note_on_c, 1, 54, 127
2, 86600, Note_on_c, 1, 59, 127
2, 86600, Note_on_c, 1, 63, 127
2, 86640, Note_off_c, 1, 35, 0
2, 86640, Note_on_c, 1, 44, 127
2, 86640, Note_on_c, 1, 49, 127
2, 86640, Note_off_c, 1, 51, 0
2, 86640, Note_on_c, 1, 52, 127
2, 86640, Note_off_c, 1, 54, 0
2, 86640, Note_on_c, 1, 56, 127
2, 86640, Note_off_c, 1, 59, 0
2, 86640, Note_off_c, 1, 63, 0
2, 86640, Note_on_c, 1, 85, 127
2, 86680, Note_off_c, 1, 44, 0
2, 86680, Note_off_c, 1, 49, 0
2, 86680, Note_on_c, 1, 50, 127
2, 86680, Note_off_c, 1, 52, 0
2, 86680, Note_off_c, 1, 56, 0
2, 86680, Note_on_c, 1, 57, 127
2, 86680, Note_on_c, 1, 60, 127
2, 86680, Note_on_c, 1, 67, 127
2, 86680, Note_off_c, 1, 85, 0
2, 86680, Note_on_c, 1, 86, 127
2, 86720, Note_on_c, 1, 43, 127
2, 86720, Note_off_c, 1, 50, 0
2, 86720, Note_off_c, 1, 57, 0
2, 86720, Note_off_c, 1, 60, 0
2, 86720, Note_off_c, 1, 67, 0
2, 86720, Note_on_c, 1, 84, 127
2, 86720, Note_off_c, 1, 86, 0
2, 86720, Note_on_c, 1, 87, 127
2, 86760, Note_off_c, 1, 43, 0
2, 86760, Note_on_c, 1, 68, 127
2, 86760, Note_on_c, 1, 82, 127
2, 86760, Note_on_c, 1, 86, 127
2, 86800, Note_on_c, 1, 50, 127
2, 86800, Note_on_c, 1, 53, 127
2, 86800, Note_on_c, 1, 57, 127
2, 86800, Note_on_c, 1, 62, 127
2, 86800, Note_off_c, 1, 68, 0
2, 86800, Note_on_c, 1, 74, 127
2, 86800, Note_on_c, 1, 77, 127
2, 86800, Note_on_c, 1, 81, 127
2, 86800, Note_off_c, 1, 82, 0
2, 86800, Note_off_c, 1, 84, 0
2, 86800, Note_off_c, 1, 87, 0
2, 86840, Note_off_c, 1, 50, 0
2, 86840, Note_off_c, 1, 53, 0
2, 86840, Note_off_c, 1, 57, 0
2, 86840, Note_off_c, 1, 62, 0
2, 86840, Note_off_c, 1, 74, 0
2, 86840, Note_off_c, 1, 77, 0
2, 86840, Note_off_c, 1, 81, 0
2, 86840, Note_off_c, 1, 86, 0
2, 86880, Note_on_c, 1, 38, 127
2, 86880, Note_on_c, 1, 52, 127
2, 86880, Note_on_c, 1, 57, 127
2, 86880, Note_on_c, 1, 76, 127
2, 87480, Note_off_c, 1, 38, 0
2, 87480, Note_on_c, 1, 50, 127
2, 87480, Note_off_c, 1, 52, 0
2, 87480, Note_on_c, 1, 54, 127
2, 87480, Note_on_c, 1, 62, 127
2, 87480, Note_on_c, 1, 69, 127
2, 87480, Note_off_c, 1, 76, 0
2, 87520, Note_on_c, 1, 40, 127
2, 87520, Note_off_c, 1, 50, 0
2, 87520, Note_off_c, 1, 54, 0
2, 87520, Note_off_c, 1, 57, 0
2, 87520, Note_off_c, 1, 69, 0
2, 87560, Note_on_c, 1, 38, 127
2, 87560, Note_off_c, 1, 40, 0
2, 87560, Note_on_c, 1, 44, 127
2, 87560, Note_on_c, 1, 48, 127
2, 87560, Note_on_c, 1, 60, 127
2, 87560, Note_off_c, 1, 62, 0
2, 87560, Note_on_c, 1, 66, 127
2, 87560, Note_on_c, 1, 68, 127
2, 87600, Note_off_c, 1, 38, 0
2, 87600, Note_off_c, 1, 44, 0
2, 87600, Note_off_c, 1, 48, 0
2, 87600, Note_off_c, 1, 60, 0
2, 87600, Note_off_c, 1, 66, 0
2, 87600, Note_off_c, 1, 68, 0
2, 87600, Note_on_c, 1, 91, 127
2, 87600, Note_on_c, 1, 92, 127
2, 87600, Note_on_c, 1, 95, 127
2, 87600, Note_on_c, 1, 96, 127
2, 87640, Note_on_c, 1, 72, 127
2, 87640, Note_on_c, 1, 81, 127
2, 87640, Note_on_c, 1, 84, 127
2, 87640, Note_off_c, 1, 91, 0
2, 87640, Note_off_c, 1, 92, 0
2, 87640, Note_off_c, 1, 95, 0
2, 87640, Note_off_c, 1, 96, 0
2, 87640, Note_on_c, 1, 101, 127
2, 87680, Note_on_c, 1, 42, 127
2, 87680, Note_on_c, 1, 49, 127
2, 87680, Note_on_c, 1, 54, 127
2, 87680, Note_on_c, 1, 70, 127
2, 87680, Note_off_c, 1, 72, 0
2, 87680, Note_off_c, 1, 81, 0
2, 87680, Note_on_c, 1, 82, 127
2, 87680, Note_off_c, 1, 84, 0
2, 87680, Note_off_c, 1, 101, 0
2, 87720, Note_off_c, 1, 42, 0
2, 87720, Note_off_c, 1, 49, 0
2, 87720, Note_off_c, 1, 54, 0
2, 87720, Note_on_c, 1, 64, 127
2, 87720, Note_on_c, 1, 67, 127
2, 87720, Note_on_c, 1, 69, 127
2, 87720, Note_off_c, 1, 70, 0
2, 87720, Note_on_c, 1, 74, 127
2, 87720, Note_off_c, 1, 82, 0
2, 87760, Note_on_c, 1, 38, 127
2, 87760, Note_on_c, 1, 42, 127
2, 87760, Note_on_c, 1, 50, 127
2, 87760, Note_off_c, 1, 64, 0
2, 87760, Note_off_c, 1, 67, 0
2, 87760, Note_off_c, 1, 69, 0
2, 87760, Note_off_c, 1, 74, 0
2, 87760, Note_on_c, 1, 78, 127
2, 87760, Note_on_c, 1, 81, 127
2, 87760, Note_on_c, 1, 86, 127
2, 87760, Note_on_c, 1, 90, 127
2, 87800, Note_off_c, 1, 38, 0
2, 87800, Note_on_c, 1, 41, 127
2, 87800, Note_off_c, 1, 42, 0
2, 87800, Note_off_c, 1, 50, 0
2, 87800, Note_on_c, 1, 51, 127
2, 87800, Note_on_c, 1, 53, 127
2, 87800, Note_on_c, 1, 56, 127
2, 87800, Note_on_c, 1, 63, 127
2, 87800, Note_on_c, 1, 68, 127
2, 87800, Note_off_c, 1, 78, 0
2, 87800, Note_off_c, 1, 81, 0
2, 87800, Note_off_c, 1, 86, 0
2, 87800, Note_off_c, 1, 90, 0
2, 87840, Note_off_c, 1, 41, 0
2, 87840, Note_off_c, 1, 51, 0
2, 87840, Note_off_c, 1, 53, 0
2, 87840, Note_off_c, 1, 56, 0
2, 87840, Note_off_c, 1, 63, 0
2, 87840, Note_off_c, 1, 68, 0
2, 87840, Note_on_c, 1, 83, 127
2, 87840, Note_on_c, 1, 92, 127
2, 87840, Note_on_c, 1, 95, 127
2, 87880, Note_on_c, 1, 50, 127
2, 87880, Note_on_c, 1, 52, 127
2, 87880, Note_on_c, 1, 55, 127
2, 87880, Note_on_c, 1, 57, 127
2, 87880, Note_off_c, 1, 83, 0
2, 87880, Note_on_c, 1, 85, 127
2, 87880, Note_off_c, 1, 92, 0
2, 87880, Note_off_c, 1, 95, 0
2, 87920, Note_on_c, 1, 48, 127
2, 87920, Note_off_c, 1, 50, 0
2, 87920, Note_off_c, 1, 52, 0
2, 87920, Note_off_c, 1, 55, 0
2, 87920, Note_off_c, 1, 57, 0
2, 87920, Note_on_c, 1, 58, 127
2, 87920, Note_on_c, 1, 72, 127
2, 87920, Note_on_c, 1, 74, 127
2, 87920, Note_off_c, 1, 85, 0
2, 87960, Note_off_c, 1, 48, 0
2, 87960, Note_off_c, 1, 58, 0
2, 87960, Note_off_c, 1, 72, 0
2, 87960, Note_off_c, 1, 74, 0
2, 88000, Note_on_c, 1, 72, 127
2, 88000, Note_on_c, 1, 79, 127
2, 88000, Note_on_c, 1, 82, 127
2, 88000, Note_on_c, 1, 89, 127
2, 88000, Note_on_c, 1, 96, 127
2, 88000, Note_on_c, 1, 101, 127
2, 88040, Note_off_c, 1, 72, 0
2, 88040, Note_off_c, 1, 79, 0
2, 88040, Note_off_c, 1, 82, 0
2, 88040, Note_off_c, 1, 96, 0
2, 88040, Note_on_c, 1, 98, 127
2, 88040, Note_off_c, 1, 101, 0
2, 88040, Note_on_c, 1, 105, 127
2, 88160, Note_off_c, 1, 89, 0
2, 88160, Note_on_c, 1, 90, 127
2, 88160, Note_on_c, 1, 91, 127
2, 88160, Note_on_c, 1, 95, 127
2, 88160, Note_off_c, 1, 98, 0
2, 88160, Note_off_c, 1, 105, 0
2, 88200, Note_on_c, 1, 44, 127
2, 88200, Note_on_c, 1, 55, 127
2, 88200, Note_on_c, 1, 84, 127
2, 88200, Note_on_c, 1, 88, 127
2, 88200, Note_off_c, 1, 90, 0
2, 88200, Note_off_c, 1, 95, 0
2, 88240, Note_on_c, 1, 34, 127
2, 88240, Note_off_c, 1, 44, 0
2, 88240, Note_off_c, 1, 55, 0
2, 88240, Note_on_c, 1, 74, 127
2, 88240, Note_on_c, 1, 80, 127
2, 88240, Note_off_c, 1, 84, 0
2, 88240, Note_on_c, 1, 86, 127
2, 88240, Note_off_c, 1, 88, 0
2, 88240, Note_off_c, 1, 91, 0
2, 88280, Note_off_c, 1, 34, 0
2, 88280, Note_on_c, 1, 40, 127
2, 88280, Note_on_c, 1, 45, 127
2, 88280, Note_on_c, 1, 52, 127
2, 88280, Note_off_c, 1, 74, 0
2, 88280, Note_on_c, 1, 79, 127
2, 88280, Note_off_c, 1, 80, 0
2, 88280, Note_on_c, 1, 81, 127
2, 88280, Note_off_c, 1, 86, 0
2, 88320, Note_on_c, 1, 36, 127
2, 88320, Note_off_c, 1, 40, 0
2, 88320, Note_off_c, 1, 45, 0
2, 88320, Note_on_c, 1, 49, 127
2, 88320, Note_on_c, 1, 55, 127
2, 88320, Note_on_c, 1, 58, 127
2, 88320, Note_off_c, 1, 79, 0
2, 88320, Note_off_c, 1, 81, 0
2, 88360, Note_off_c, 1, 36, 0
2, 88360, Note_off_c, 1, 49, 0
2, 88360, Note_off_c, 1, 52, 0
2, 88360, Note_off_c, 1, 55, 0
2, 88360, Note_off_c, 1, 58, 0
2, 88400, Note_on_c, 1, 57, 127
2, 88400, Note_on_c, 1, 84, 127
2, 88440, Note_on_c, 1, 43, 127
2, 88440, Note_on_c, 1, 53, 127
2, 88440, Note_on_c, 1, 55, 127
2, 88440, Note_off_c, 1, 57, 0
2, 88440, Note_on_c, 1, 59, 127
2, 88440, Note_on_c, 1, 67, 127
2, 88440, Note_off_c, 1, 84, 0
2, 88480, Note_off_c, 1, 53, 0
2, 88480, Note_off_c, 1, 59, 0
2, 88480, Note_off_c, 1, 67, 0
2, 88480, Note_on_c, 1, 79, 127
2, 88480, Note_on_c, 1, 82, 127
2, 88480, Note_on_c, 1, 86, 127
2, 88480, Note_on_c, 1, 91, 127
2, 88520, Note_on_c, 1, 41, 127
2, 88520, Note_off_c, 1, 43, 0
2, 88520, Note_on_c, 1, 53, 127
2, 88520, Note_off_c, 1, 55, 0
2, 88520, Note_on_c, 1, 74, 127
2, 88520, Note_off_c, 1, 79, 0
2, 88520, Note_on_c, 1, 81, 127
2, 88520, Note_off_c, 1, 82, 0
2, 88520, Note_off_c, 1, 91, 0
2, 88560, Note_off_c, 1, 41, 0
2, 88560, Note_off_c, 1, 53, 0
2, 88560, Note_off_c, 1, 74, 0
2, 88560, Note_off_c, 1, 81, 0
2, 88560, Note_off_c, 1, 86, 0
2, 88600, Note_on_c, 1, 45, 127
2, 88600, Note_on_c, 1, 50, 127
2, 88600, Note_on_c, 1, 51, 127
2, 88600, Note_on_c, 1, 63, 127
2, 88600, Note_on_c, 1, 66, 127
2, 88600, Note_on_c, 1, 75, 127
2, 88640, Note_off_c, 1, 45, 0
2, 88640, Note_off_c, 1, 50, 0
2, 88640, Note_off_c, 1, 51, 0
2, 88640, Note_off_c, 1, 63, 0
2, 88640, Note_off_c, 1, 66, 0
2, 88640, Note_on_c, 1, 67, 127
2, 88640, Note_on_c, 1, 74, 127
2, 88640, Note_off_c, 1, 75, 0
2, 88640, Note_on_c, 1, 79, 127
2, 88640, Note_on_c, 1, 82, 127
2, 88640, Note_on_c, 1, 86, 127
2, 88680, Note_off_c, 1, 74, 0
2, 88680, Note_off_c, 1, 82, 0
2, 88680, Note_off_c, 1, 86, 0
2, 88680, Note_on_c, 1, 87, 127
2, 88720, Note_on_c, 1, 37, 127
2, 88720, Note_on_c, 1, 49, 127
2, 88720, Note_on_c, 1, 52, 127
2, 88720, Note_on_c, 1, 57, 127
2, 88720, Note_on_c, 1, 63, 127
2, 88720, Note_off_c, 1, 67, 0
2, 88720, Note_off_c, 1, 79, 0
2, 88720, Note_off_c, 1, 87, 0
2, 88760, Note_off_c, 1, 37, 0
2, 88760, Note_off_c, 1, 49, 0
2, 88760, Note_off_c, 1, 52, 0
2, 88760, Note_off_c, 1, 57, 0
2, 88760, Note_off_c, 1, 63, 0
2, 88760, Note_on_c, 1, 79, 127
2, 88760, Note_on_c, 1, 87, 127
2, 88800, Note_on_c, 1, 37, 127
2, 88800, Note_on_c, 1, 49, 127
2, 88800, Note_on_c, 1, 64, 127
2, 88800, Note_on_c, 1, 68, 127
2, 88800, Note_on_c, 1, 72, 127
2, 88800, Note_off_c, 1, 79, 0
2, 88800, Note_off_c, 1, 87, 0
2, 88880, Note_off_c, 1, 37, 0
2, 88880, Note_off_c, 1, 49, 0
2, 88880, Note_off_c, 1, 64, 0
2, 88880, Note_off_c, 1, 68, 0
2, 88880, Note_off_c, 1, 72, 0
2, 88920, Note_on_c, 1, 36, 127
2, 88920, Note_on_c, 1, 48, 127
2, 88920, Note_on_c, 1, 62, 127
2, 88920, Note_on_c, 1, 66, 127
2, 88920, Note_on_c, 1, 69, 127
2, 89080, Note_off_c, 1, 36, 0
2, 89080, Note_off_c, 1, 48, 0
2, 89080, Note_off_c, 1, 62, 0
2, 89080, Note_off_c, 1, 66, 0
2, 89080, Note_off_c, 1, 69, 0
2, 89120, Note_on_c, 1, 36, 127
2, 89120, Note_on_c, 1, 48, 127
2, 89120, Note_on_c, 1, 58, 127
2, 89120, Note_on_c, 1, 72, 127
2, 89320, Note_off_c, 1, 58, 0
2, 89360, Note_on_c, 1, 60, 127
2, 89560, Note_off_c, 1, 60, 0
2, 89560, Note_off_c, 1, 72, 0
2, 89560, Note_on_c, 1, 76, 127
2, 89560, Note_on_c, 1, 84, 127
2, 89560, Note_on_c, 1, 88, 127
2, 89720, Note_off_c, 1, 36, 0
2, 89720, Note_off_c, 1, 48, 0
2, 89720, Note_off_c, 1, 76, 0
2, 89720, Note_off_c, 1, 84, 0
2, 89720, Note_off_c, 1, 88, 0
2, 89760, Note_on_c, 1, 48, 127
2, 89760, Note_on_c, 1, 52, 127
2, 89760, Note_on_c, 1, 55, 127
2, 89760, Note_on_c, 1, 60, 127
2, 89760, Note_on_c, 1, 72, 127
2, 89760, Note_on_c, 1, 76, 127
2, 89760, Note_on_c, 1, 79, 127
2, 89760, Note_on_c, 1, 84, 127
2, 89800, Note_off_c, 1, 48, 0
2, 89800, Note_off_c, 1, 52, 0
2, 89800, Note_off_c, 1, 55, 0
2, 89800, Note_off_c, 1, 60, 0
2, 89800, Note_off_c, 1, 72, 0
2, 89800, Note_off_c, 1, 76, 0
2, 89800, Note_off_c, 1, 79, 0
2, 89800, Note_off_c, 1, 84, 0
2, 89840, Note_on_c, 1, 41, 127
2, 89840, Note_on_c, 1, 49, 127
2, 89840, Note_on_c, 1, 53, 127
2, 89840, Note_on_c, 1, 56, 127
2, 89840, Note_on_c, 1, 61, 127
2, 89840, Note_on_c, 1, 68, 127
2, 89880, Note_off_c, 1, 41, 0
2, 89880, Note_off_c, 1, 49, 0
2, 89880, Note_off_c, 1, 53, 0
2, 89880, Note_off_c, 1, 56, 0
2, 89880, Note_off_c, 1, 61, 0
2, 89880, Note_off_c, 1, 68, 0
2, 89920, Note_on_c, 1, 55, 127
2, 89920, Note_on_c, 1, 58, 127
2, 89920, Note_on_c, 1, 70, 127
2, 89920, Note_on_c, 1, 73, 127
2, 89920, Note_on_c, 1, 82, 127
2, 89960, Note_off_c, 1, 55, 0
2, 89960, Note_off_c, 1, 58, 0
2, 89960, Note_off_c, 1, 70, 0
2, 89960, Note_off_c, 1, 73, 0
2, 89960, Note_off_c, 1, 82, 0
2, 90000, Note_on_c, 1, 34, 127
2, 90000, Note_on_c, 1, 46, 127
2, 90000, Note_on_c, 1, 70, 127
2, 90000, Note_on_c, 1, 74, 127
2, 90000, Note_on_c, 1, 82, 127
2, 90280, Note_off_c, 1, 34, 0
2, 90280, Note_off_c, 1, 46, 0
2, 90280, Note_on_c, 1, 60, 127
2, 90280, Note_on_c, 1, 63, 127
2, 90280, Note_on_c, 1, 66, 127
2, 90280, Note_off_c, 1, 70, 0
2, 90280, Note_on_c, 1, 78, 127
2, 90280, Note_off_c, 1, 82, 0
2, 90320, Note_off_c, 1, 60, 0
2, 90320, Note_off_c, 1, 63, 0
2, 90320, Note_off_c, 1, 66, 0
2, 90320, Note_off_c, 1, 74, 0
2, 90320, Note_off_c, 1, 78, 0
2, 90360, Note_on_c, 1, 73, 127
2, 90360, Note_on_c, 1, 78, 127
2, 90400, Note_on_c, 1, 42, 127
2, 90400, Note_on_c, 1, 49, 127
2, 90400, Note_off_c, 1, 73, 0
2, 90400, Note_off_c, 1, 78, 0
2, 90400, Note_on_c, 1, 85, 127
2, 90440, Note_off_c, 1, 42, 0
2, 90440, Note_on_c, 1, 60, 127
2, 90440, Note_on_c, 1, 68, 127
2, 90440, Note_on_c, 1, 73, 127
2, 90440, Note_on_c, 1, 77, 127
2, 90440, Note_off_c, 1, 85, 0
2, 90480, Note_on_c, 1, 41, 127
2, 90480, Note_off_c, 1, 49, 0
2, 90480, Note_on_c, 1, 50, 127
2, 90480, Note_on_c, 1, 56, 127
2, 90480, Note_off_c, 1, 60, 0
2, 90480, Note_on_c, 1, 61, 127
2, 90480, Note_off_c, 1, 68, 0
2, 90480, Note_off_c, 1, 73, 0
2, 90480, Note_off_c, 1, 77, 0
2, 90520, Note_on_c, 1, 48, 127
2, 90520, Note_off_c, 1, 50, 0
2, 90520, Note_on_c, 1, 53, 127
2, 90520, Note_off_c, 1, 56, 0
2, 90520, Note_off_c, 1, 61, 0
2, 90520, Note_on_c, 1, 65, 127
2, 90520, Note_on_c, 1, 68, 127
2, 90520, Note_on_c, 1, 72, 127
2, 90520, Note_on_c, 1, 77, 127
2, 90560, Note_off_c, 1, 41, 0
2, 90560, Note_off_c, 1, 48, 0
2, 90560, Note_off_c, 1, 53, 0
2, 90560, Note_off_c, 1, 65, 0
2, 90560, Note_off_c, 1, 68, 0
2, 90560, Note_off_c, 1, 72, 0
2, 90560, Note_off_c, 1, 77, 0
2, 90600, Note_on_c, 1, 61, 127
2, 90600, Note_on_c, 1, 63, 127
2, 90600, Note_on_c, 1, 66, 127
2, 90600, Note_on_c, 1, 69, 127
2, 90640, Note_on_c, 1, 48, 127
2, 90640, Note_on_c, 1, 55, 127
2, 90640, Note_off_c, 1, 61, 0
2, 90640, Note_off_c, 1, 63, 0
2, 90640, Note_off_c, 1, 66, 0
2, 90640, Note_off_c, 1, 69, 0
2, 90640, Note_on_c, 1, 70, 127
2, 90640, Note_on_c, 1, 74, 127
2, 90640, Note_on_c, 1, 79, 127
2, 90680, Note_on_c, 1, 46, 127
2, 90680, Note_off_c, 1, 48, 0
2, 90680, Note_on_c, 1, 49, 127
2, 90680, Note_on_c, 1, 53, 127
2, 90680, Note_off_c, 1, 55, 0
2, 90680, Note_on_c, 1, 56, 127
2, 90680, Note_off_c, 1, 70, 0
2, 90680, Note_on_c, 1, 73, 127
2, 90680, Note_off_c, 1, 74, 0
2, 90680, Note_off_c, 1, 79, 0
2, 90680, Note_on_c, 1, 85, 127
2, 90720, Note_off_c, 1, 46, 0
2, 90720, Note_off_c, 1, 49, 0
2, 90720, Note_off_c, 1, 53, 0
2, 90720, Note_off_c, 1, 56, 0
2, 90720, Note_on_c, 1, 61, 127
2, 90720, Note_on_c, 1, 65, 127
2, 90720, Note_on_c, 1, 89, 127
2, 90760, Note_on_c, 1, 40, 127
2, 90760, Note_on_c, 1, 43, 127
2, 90760, Note_on_c, 1, 52, 127
2, 90760, Note_off_c, 1, 61, 0
2, 90760, Note_off_c, 1, 65, 0
2, 90760, Note_off_c, 1, 73, 0
2, 90760, Note_off_c, 1, 85, 0
2, 90760, Note_on_c, 1, 87, 127
2, 90760, Note_off_c, 1, 89, 0
2, 90800, Note_off_c, 1, 40, 0
2, 90800, Note_off_c, 1, 43, 0
2, 90800, Note_off_c, 1, 52, 0
2, 90800, Note_on_c, 1, 59, 127
2, 90800, Note_on_c, 1, 71, 127
2, 90800, Note_on_c, 1, 79, 127
2, 90800, Note_on_c, 1, 91, 127
2, 90840, Note_on_c, 1, 39, 127
2, 90840, Note_on_c, 1, 43, 127
2, 90840, Note_on_c, 1, 46, 127
2, 90840, Note_on_c, 1, 51, 127
2, 90840, Note_off_c, 1, 59, 0
2, 90840, Note_off_c, 1, 71, 0
2, 90840, Note_off_c, 1, 79, 0
2, 90840, Note_off_c, 1, 87, 0
2, 90880, Note_off_c, 1, 39, 0
2, 90880, Note_off_c, 1, 43, 0
2, 90880, Note_off_c, 1, 46, 0
2, 90880, Note_off_c, 1, 51, 0
2, 90880, Note_on_c, 1, 77, 127
2, 90880, Note_on_c, 1, 82, 127
2, 90880, Note_on_c, 1, 84, 127
2, 90880, Note_on_c, 1, 87, 127
2, 90880, Note_off_c, 1, 91, 0
2, 90880, Note_on_c, 1, 92, 127
2, 90920, Note_on_c, 1, 44, 127
2, 90920, Note_off_c, 1, 77, 0
2, 90920, Note_on_c, 1, 78, 127
2, 90920, Note_off_c, 1, 82, 0
2, 90920, Note_off_c, 1, 92, 0
2, 90960, Note_off_c, 1, 44, 0
2, 90960, Note_on_c, 1, 47, 127
2, 90960, Note_on_c, 1, 68, 127
2, 90960, Note_off_c, 1, 78, 0
2, 90960, Note_off_c, 1, 84, 0
2, 90960, Note_off_c, 1, 87, 0
2, 90960, Note_on_c, 1, 88, 127
2, 90960, Note_on_c, 1, 95, 127
2, 91000, Note_on_c, 1, 37, 127
2, 91000, Note_off_c, 1, 47, 0
2, 91000, Note_on_c, 1, 49, 127
2, 91000, Note_on_c, 1, 56, 127
2, 91000, Note_on_c, 1, 61, 127
2, 91000, Note_on_c, 1, 65, 127
2, 91000, Note_off_c, 1, 68, 0
2, 91000, Note_off_c, 1, 88, 0
2, 91000, Note_off_c, 1, 95, 0
2, 91040, Note_off_c, 1, 37, 0
2, 91040, Note_off_c, 1, 49, 0
2, 91040, Note_off_c, 1, 56, 0
2, 91040, Note_on_c, 1, 57, 127
2, 91040, Note_off_c, 1, 61, 0
2, 91040, Note_off_c, 1, 65, 0
2, 91040, Note_on_c, 1, 81, 127
2, 91040, Note_on_c, 1, 93, 127
2, 91080, Note_off_c, 1, 57, 0
2, 91080, Note_on_c, 1, 62, 127
2, 91080, Note_on_c, 1, 67, 127
2, 91080, Note_on_c, 1, 70, 127
2, 91080, Note_off_c, 1, 81, 0
2, 91080, Note_on_c, 1, 91, 127
2, 91080, Note_off_c, 1, 93, 0
2, 91120, Note_on_c, 1, 57, 127
2, 91120, Note_on_c, 1, 60, 127
2, 91120, Note_off_c, 1, 62, 0
2, 91120, Note_on_c, 1, 63, 127
2, 91120, Note_on_c, 1, 66, 127
2, 91120, Note_off_c, 1, 67, 0
2, 91120, Note_off_c, 1, 70, 0
2, 91120, Note_on_c, 1, 75, 127
2, 91120, Note_off_c, 1, 91, 0
2, 91160, Note_on_c, 1, 50, 127
2, 91160, Note_off_c, 1, 57, 0
2, 91160, Note_off_c, 1, 60, 0
2, 91160, Note_off_c, 1, 63, 0
2, 91160, Note_off_c, 1, 66, 0
2, 91160, Note_off_c, 1, 75, 0
2, 91160, Note_on_c, 1, 86, 127
2, 91160, Note_on_c, 1, 90, 127
2, 91160, Note_on_c, 1, 98, 127
2, 91200, Note_on_c, 1, 47, 127
2, 91200, Note_off_c, 1, 50, 0
2, 91200, Note_on_c, 1, 53, 127
2, 91200, Note_on_c, 1, 56, 127
2, 91200, Note_on_c, 1, 61, 127
2, 91200, Note_on_c, 1, 68, 127
2, 91200, Note_on_c, 1, 73, 127
2, 91200, Note_off_c, 1, 86, 0
2, 91200, Note_off_c, 1, 90, 0
2, 91200, Note_off_c, 1, 98, 0
2, 91240, Note_on_c, 1, 37, 127
2, 91240, Note_off_c, 1, 47, 0
2, 91240, Note_on_c, 1, 51, 127
2, 91240, Note_off_c, 1, 53, 0
2, 91240, Note_off_c, 1, 56, 0
2, 91240, Note_on_c, 1, 58, 127
2, 91240, Note_off_c, 1, 61, 0
2, 91240, Note_on_c, 1, 66, 127
2, 91240, Note_off_c, 1, 68, 0
2, 91240, Note_off_c, 1, 73, 0
2, 91280, Note_off_c, 1, 37, 0
2, 91280, Note_off_c, 1, 51, 0
2, 91280, Note_off_c, 1, 58, 0
2, 91280, Note_off_c, 1, 66, 0
2, 91280, Note_on_c, 1, 101, 127
2, 91280, Note_on_c, 1, 103, 127
2, 91320, Note_on_c, 1, 48, 127
2, 91320, Note_on_c, 1, 55, 127
2, 91320, Note_on_c, 1, 60, 127
2, 91320, Note_on_c, 1, 77, 127
2, 91320, Note_on_c, 1, 89, 127
2, 91320, Note_off_c, 1, 101, 0
2, 91320, Note_off_c, 1, 103, 0
2, 91360, Note_off_c, 1, 48, 0
2, 91360, Note_on_c, 1, 51, 127
2, 91360, Note_off_c, 1, 55, 0
2, 91360, Note_on_c, 1, 58, 127
2, 91360, Note_on_c, 1, 63, 127
2, 91360, Note_on_c, 1, 67, 127
2, 91360, Note_off_c, 1, 77, 0
2, 91360, Note_on_c, 1, 82, 127
2, 91360, Note_off_c, 1, 89, 0
2, 91400, Note_on_c, 1, 48, 127
2, 91400, Note_off_c, 1, 51, 0
2, 91400, Note_off_c, 1, 58, 0
2, 91400, Note_off_c, 1, 60, 0
2, 91400, Note_off_c, 1, 63, 0
2, 91400, Note_off_c, 1, 67, 0
2, 91400, Note_on_c, 1, 73, 127
2, 91400, Note_on_c, 1, 75, 127
2, 91400, Note_off_c, 1, 82, 0
2, 91440, Note_on_c, 1, 44, 127
2, 91440, Note_off_c, 1, 48, 0
2, 91440, Note_on_c, 1, 56, 127
2, 91440, Note_off_c, 1, 73, 0
2, 91440, Note_off_c, 1, 75, 0
2, 91440, Note_on_c, 1, 76, 127
2, 91440, Note_on_c, 1, 88, 127
2, 91440, Note_on_c, 1, 100, 127
2, 91480, Note_on_c, 1, 40, 127
2, 91480, Note_on_c, 1, 41, 127
2, 91480, Note_on_c, 1, 42, 127
2, 91480, Note_off_c, 1, 44, 0
2, 91480, Note_off_c, 1, 56, 0
2, 91480, Note_off_c, 1, 76, 0
2, 91480, Note_off_c, 1, 88, 0
2, 91480, Note_off_c, 1, 100, 0
2, 91520, Note_off_c, 1, 40, 0
2, 91520, Note_off_c, 1, 41, 0
2, 91520, Note_off_c, 1, 42, 0
2, 91520, Note_on_c, 1, 47, 127
2, 91520, Note_on_c, 1, 50, 127
2, 91520, Note_on_c, 1, 53, 127
2, 91520, Note_on_c, 1, 56, 127
2, 91520, Note_on_c, 1, 71, 127
2, 91560, Note_off_c, 1, 47, 0
2, 91560, Note_off_c, 1, 50, 0
2, 91560, Note_off_c, 1, 53, 0
2, 91560, Note_off_c, 1, 56, 0
2, 91560, Note_on_c, 1, 59, 127
2, 91560, Note_off_c, 1, 71, 0
2, 91560, Note_on_c, 1, 74, 127
2, 91560, Note_on_c, 1, 77, 127
2, 91560, Note_on_c, 1, 80, 127
2, 91560, Note_on_c, 1, 86, 127
2, 91600, Note_off_c, 1, 59, 0
2, 91600, Note_on_c, 1, 70, 127
2, 91600, Note_off_c, 1, 74, 0
2, 91600, Note_off_c, 1, 77, 0
2, 91600, Note_on_c, 1, 79, 127
2, 91600, Note_off_c, 1, 80, 0
2, 91600, Note_on_c, 1, 82, 127
2, 91600, Note_off_c, 1, 86, 0
2, 91600, Note_on_c, 1, 94, 127
2, 91600, Note_on_c, 1, 99, 127
2, 91600, Note_on_c, 1, 101, 127
2, 91640, Note_on_c, 1, 68, 127
2, 91640, Note_off_c, 1, 70, 0
2, 91640, Note_on_c, 1, 75, 127
2, 91640, Note_off_c, 1, 79, 0
2, 91640, Note_off_c, 1, 82, 0
2, 91640, Note_on_c, 1, 84, 127
2, 91640, Note_on_c, 1, 87, 127
2, 91640, Note_on_c, 1, 92, 127
2, 91640, Note_off_c, 1, 94, 0
2, 91640, Note_off_c, 1, 99, 0
2, 91640, Note_off_c, 1, 101, 0
2, 91680, Note_on_c, 1, 41, 127
2, 91680, Note_on_c, 1, 52, 127
2, 91680, Note_on_c, 1, 60, 127
2, 91680, Note_on_c, 1, 67, 127
2, 91680, Note_off_c, 1, 68, 0
2, 91680, Note_on_c, 1, 70, 127
2, 91680, Note_off_c, 1, 75, 0
2, 91680, Note_off_c, 1, 84, 0
2, 91680, Note_off_c, 1, 87, 0
2, 91680, Note_off_c, 1, 92, 0
2, 91720, Note_off_c, 1, 41, 0
2, 91720, Note_off_c, 1, 52, 0
2, 91720, Note_off_c, 1, 60, 0
2, 91720, Note_off_c, 1, 67, 0
2, 91720, Note_off_c, 1, 70, 0
2, 91720, Note_on_c, 1, 79, 127
2, 91720, Note_on_c, 1, 82, 127
2, 91720, Note_on_c, 1, 88, 127
2, 91720, Note_on_c, 1, 91, 127
2, 91760, Note_on_c, 1, 36, 127
2, 91760, Note_off_c, 1, 79, 0
2, 91760, Note_off_c, 1, 82, 0
2, 91760, Note_off_c, 1, 88, 0
2, 91760, Note_off_c, 1, 91, 0
2, 91800, Note_on_c, 1, 32, 127
2, 91800, Note_off_c, 1, 36, 0
2, 91800, Note_on_c, 1, 44, 127
2, 91800, Note_on_c, 1, 59, 127
2, 91800, Note_on_c, 1, 63, 127
2, 91800, Note_on_c, 1, 68, 127
2, 91800, Note_on_c, 1, 71, 127
2, 91880, Note_on_c, 1, 29, 127
2, 91880, Note_off_c, 1, 32, 0
2, 91880, Note_off_c, 1, 44, 0
2, 91880, Note_on_c, 1, 53, 127
2, 91880, Note_on_c, 1, 56, 127
2, 91880, Note_off_c, 1, 59, 0
2, 91880, Note_off_c, 1, 63, 0
2, 91880, Note_on_c, 1, 65, 127
2, 91880, Note_off_c, 1, 68, 0
2, 91880, Note_off_c, 1, 71, 0
2, 91920, Note_off_c, 1, 29, 0
2, 91920, Note_on_c, 1, 49, 127
2, 91920, Note_off_c, 1, 53, 0
2, 91920, Note_on_c, 1, 59, 127
2, 91920, Note_on_c, 1, 63, 127
2, 91920, Note_off_c, 1, 65, 0
2, 91920, Note_on_c, 1, 66, 127
2, 91920, Note_on_c, 1, 68, 127
2, 91960, Note_on_c, 1, 32, 127
2, 91960, Note_on_c, 1, 39, 127
2, 91960, Note_on_c, 1, 44, 127
2, 91960, Note_off_c, 1, 49, 0
2, 91960, Note_on_c, 1, 51, 127
2, 91960, Note_off_c, 1, 56, 0
2, 91960, Note_off_c, 1, 59, 0
2, 91960, Note_off_c, 1, 63, 0
2, 91960, Note_off_c, 1, 66, 0
2, 91960, Note_off_c, 1, 68, 0
2, 92000, Note_off_c, 1, 39, 0
2, 92000, Note_off_c, 1, 51, 0
2, 92000, Note_on_c, 1, 63, 127
2, 92000, Note_on_c, 1, 72, 127
2, 92040, Note_off_c, 1, 32, 0
2, 92040, Note_on_c, 1, 37, 127
2, 92040, Note_off_c, 1, 44, 0
2, 92040, Note_on_c, 1, 61, 127
2, 92040, Note_off_c, 1, 63, 0
2, 92040, Note_on_c, 1, 66, 127
2, 92040, Note_on_c, 1, 70, 127
2, 92040, Note_off_c, 1, 72, 0
2, 92080, Note_off_c, 1, 37, 0
2, 92080, Note_off_c, 1, 61, 0
2, 92080, Note_off_c, 1, 66, 0
2, 92080, Note_off_c, 1, 70, 0
2, 92160, Note_on_c, 1, 79, 127
2, 92160, Note_on_c, 1, 82, 127
2, 92160, Note_on_c, 1, 88, 127
2, 92160, Note_on_c, 1, 100, 127
2, 92200, Note_on_c, 1, 45, 127
2, 92200, Note_on_c, 1, 52, 127
2, 92200, Note_off_c, 1, 79, 0
2, 92200, Note_off_c, 1, 82, 0
2, 92200, Note_on_c, 1, 83, 127
2, 92200, Note_off_c, 1, 88, 0
2, 92200, Note_on_c, 1, 91, 127
2, 92200, Note_on_c, 1, 95, 127
2, 92200, Note_off_c, 1, 100, 0
2, 92240, Note_on_c, 1, 44, 127
2, 92240, Note_off_c, 1, 45, 0
2, 92240, Note_on_c, 1, 47, 127
2, 92240, Note_on_c, 1, 49, 127
2, 92240, Note_off_c, 1, 52, 0
2, 92240, Note_on_c, 1, 53, 127
2, 92240, Note_on_c, 1, 59, 127
2, 92240, Note_off_c, 1, 83, 0
2, 92240, Note_off_c, 1, 91, 0
2, 92240, Note_off_c, 1, 95, 0
2, 92280, Note_off_c, 1, 44, 0
2, 92280, Note_off_c, 1, 47, 0
2, 92280, Note_off_c, 1, 49, 0
2, 92280, Note_off_c, 1, 53, 0
2, 92280, Note_off_c, 1, 59, 0
2, 92280, Note_on_c, 1, 70, 127
2, 92280, Note_on_c, 1, 73, 127
2, 92280, Note_on_c, 1, 87, 127
2, 92280, Note_on_c, 1, 94, 127
2, 92320, Note_on_c, 1, 43, 127
2, 92320, Note_on_c, 1, 47, 127
2, 92320, Note_on_c, 1, 59, 127
2, 92320, Note_on_c, 1, 65, 127
2, 92320, Note_on_c, 1, 67, 127
2, 92320, Note_off_c, 1, 70, 0
2, 92320, Note_off_c, 1, 73, 0
2, 92320, Note_on_c, 1, 74, 127
2, 92320, Note_on_c, 1, 77, 127
2, 92320, Note_off_c, 1, 87, 0
2, 92320, Note_off_c, 1, 94, 0
2, 92360, Note_off_c, 1, 43, 0
2, 92360, Note_off_c, 1, 47, 0
2, 92360, Note_off_c, 1, 59, 0
2, 92360, Note_off_c, 1, 65, 0
2, 92360, Note_off_c, 1, 67, 0
2, 92360, Note_on_c, 1, 69, 127
2, 92360, Note_off_c, 1, 74, 0
2, 92360, Note_on_c, 1, 75, 127
2, 92360, Note_off_c, 1, 77, 0
2, 92360, Note_on_c, 1, 78, 127
2, 92360, Note_on_c, 1, 87, 127
2, 92360, Note_on_c, 1, 90, 127
2, 92400, Note_on_c, 1, 36, 127
2, 92400, Note_on_c, 1, 39, 127
2, 92400, Note_on_c, 1, 44, 127
2, 92400, Note_on_c, 1, 48, 127
2, 92400, Note_on_c, 1, 60, 127
2, 92400, Note_on_c, 1, 63, 127
2, 92400, Note_on_c, 1, 68, 127
2, 92400, Note_off_c, 1, 69, 0
2, 92400, Note_on_c, 1, 72, 127
2, 92400, Note_off_c, 1, 75, 0
2, 92400, Note_off_c, 1, 78, 0
2, 92400, Note_off_c, 1, 87, 0
2, 92400, Note_off_c, 1, 90, 0
2, 92440, Note_off_c, 1, 36, 0
2, 92440, Note_off_c, 1, 39, 0
2, 92440, Note_off_c, 1, 44, 0
2, 92440, Note_on_c, 1, 52, 127
2, 92440, Note_on_c, 1, 55, 127
2, 92440, Note_off_c, 1, 60, 0
2, 92440, Note_off_c, 1, 63, 0
2, 92440, Note_off_c, 1, 68, 0
2, 92480, Note_on_c, 1, 43, 127
2, 92480, Note_off_c, 1, 48, 0
2, 92480, Note_on_c, 1, 50, 127
2, 92480, Note_off_c, 1, 52, 0
2, 92480, Note_on_c, 1, 65, 127
2, 92480, Note_on_c, 1, 71, 127
2, 92480, Note_off_c, 1, 72, 0
2, 92480, Note_on_c, 1, 79, 127
2, 92520, Note_on_c, 1, 38, 127
2, 92520, Note_off_c, 1, 50, 0
2, 92520, Note_on_c, 1, 53, 127
2, 92520, Note_off_c, 1, 55, 0
2, 92520, Note_off_c, 1, 65, 0
2, 92520, Note_off_c, 1, 71, 0
2, 92520, Note_off_c, 1, 79, 0
2, 92520, Note_on_c, 1, 80, 127
2, 92560, Note_off_c, 1, 38, 0
2, 92560, Note_off_c, 1, 43, 0
2, 92560, Note_off_c, 1, 53, 0
2, 92560, Note_off_c, 1, 80, 0
2, 92600, Note_on_c, 1, 54, 127
2, 92600, Note_on_c, 1, 57, 127
2, 92600, Note_on_c, 1, 74, 127
2, 92600, Note_on_c, 1, 78, 127
2, 92600, Note_on_c, 1, 80, 127
2, 92640, Note_off_c, 1, 54, 0
2, 92640, Note_off_c, 1, 57, 0
2, 92640, Note_on_c, 1, 71, 127
2, 92640, Note_off_c, 1, 74, 0
2, 92640, Note_on_c, 1, 77, 127
2, 92640, Note_off_c, 1, 78, 0
2, 92640, Note_on_c, 1, 86, 127
2, 92640, Note_on_c, 1, 98, 127
2, 92640, Note_on_c, 1, 101, 127
2, 92680, Note_on_c, 1, 54, 127
2, 92680, Note_off_c, 1, 71, 0
2, 92680, Note_off_c, 1, 77, 0
2, 92680, Note_off_c, 1, 80, 0
2, 92680, Note_off_c, 1, 86, 0
2, 92680, Note_off_c, 1, 98, 0
2, 92680, Note_off_c, 1, 101, 0
2, 92720, Note_off_c, 1, 54, 0
2, 92760, Note_on_c, 1, 68, 127
2, 92760, Note_on_c, 1, 75, 127
2, 92760, Note_on_c, 1, 78, 127
2, 92760, Note_on_c, 1, 84, 127
2, 92760, Note_on_c, 1, 90, 127
2, 92760, Note_on_c, 1, 96, 127
2, 92800, Note_on_c, 1, 53, 127
2, 92800, Note_on_c, 1, 58, 127
2, 92800, Note_on_c, 1, 60, 127
2, 92800, Note_on_c, 1, 64, 127
2, 92800, Note_off_c, 1, 68, 0
2, 92800, Note_off_c, 1, 75, 0
2, 92800, Note_off_c, 1, 78, 0
2, 92800, Note_off_c, 1, 90, 0
2, 92800, Note_off_c, 1, 96, 0
2, 92840, Note_on_c, 1, 51, 127
2, 92840, Note_off_c, 1, 53, 0
2, 92840, Note_off_c, 1, 60, 0
2, 92840, Note_off_c, 1, 64, 0
2, 92840, Note_off_c, 1, 84, 0
2, 92840, Note_on_c, 1, 85, 127
2, 92880, Note_on_c, 1, 35, 127
2, 92880, Note_on_c, 1, 47, 127
2, 92880, Note_off_c, 1, 51, 0
2, 92880, Note_on_c, 1, 52, 127
2, 92880, Note_on_c, 1, 56, 127
2, 92880, Note_off_c, 1, 58, 0
2, 92880, Note_on_c, 1, 61, 127
2, 92880, Note_off_c, 1, 85, 0
2, 92920, Note_off_c, 1, 35, 0
2, 92920, Note_off_c, 1, 47, 0
2, 92920, Note_off_c, 1, 52, 0
2, 92920, Note_off_c, 1, 56, 0
2, 92920, Note_off_c, 1, 61, 0
2, 92920, Note_on_c, 1, 68, 127
2, 92920, Note_on_c, 1, 77, 127
2, 92920, Note_on_c, 1, 80, 127
2, 92920, Note_on_c, 1, 97, 127
2, 92960, Note_off_c, 1, 97, 0
2, 92960, Note_on_c, 1, 99, 127
2, 93000, Note_on_c, 1, 41, 127
2, 93000, Note_on_c, 1, 46, 127
2, 93000, Note_on_c, 1, 49, 127
2, 93000, Note_on_c, 1, 65, 127
2, 93000, Note_off_c, 1, 68, 0
2, 93000, Note_on_c, 1, 70, 127
2, 93000, Note_on_c, 1, 73, 127
2, 93000, Note_off_c, 1, 80, 0
2, 93000, Note_off_c, 1, 99, 0
2, 93040, Note_off_c, 1, 41, 0
2, 93040, Note_off_c, 1, 46, 0
2, 93040, Note_on_c, 1, 53, 127
2, 93040, Note_on_c, 1, 56, 127
2, 93040, Note_on_c, 1, 61, 127
2, 93040, Note_off_c, 1, 65, 0
2, 93040, Note_off_c, 1, 70, 0
2, 93040, Note_on_c, 1, 80, 127
2, 93040, Note_on_c, 1, 85, 127
2, 93080, Note_off_c, 1, 49, 0
2, 93080, Note_off_c, 1, 53, 0
2, 93080, Note_on_c, 1, 54, 127
2, 93080, Note_off_c, 1, 61, 0
2, 93080, Note_off_c, 1, 73, 0
2, 93080, Note_on_c, 1, 74, 127
2, 93080, Note_off_c, 1, 77, 0
2, 93080, Note_off_c, 1, 80, 0
2, 93080, Note_off_c, 1, 85, 0
2, 93120, Note_on_c, 1, 29, 127
2, 93120, Note_on_c, 1, 52, 127
2, 93120, Note_off_c, 1, 56, 0
2, 93120, Note_on_c, 1, 58, 127
2, 93120, Note_on_c, 1, 61, 127
2, 93120, Note_off_c, 1, 74, 0
2, 93160, Note_off_c, 1, 29, 0
2, 93160, Note_off_c, 1, 52, 0
2, 93160, Note_on_c, 1, 56, 127
2, 93160, Note_off_c, 1, 58, 0
2, 93160, Note_off_c, 1, 61, 0
2, 93160, Note_on_c, 1, 74, 127
2, 93200, Note_on_c, 1, 47, 127
2, 93200, Note_on_c, 1, 52, 127
2, 93200, Note_off_c, 1, 54, 0
2, 93200, Note_on_c, 1, 62, 127
2, 93200, Note_on_c, 1, 64, 127
2, 93200, Note_off_c, 1, 74, 0
2, 93240, Note_on_c, 1, 42, 127
2, 93240, Note_off_c, 1, 47, 0
2, 93240, Note_on_c, 1, 49, 127
2, 93240, Note_off_c, 1, 52, 0
2, 93240, Note_off_c, 1, 56, 0
2, 93240, Note_off_c, 1, 62, 0
2, 93240, Note_on_c, 1, 63, 127
2, 93240, Note_off_c, 1, 64, 0
2, 93280, Note_off_c, 1, 42, 0
2, 93280, Note_off_c, 1, 49, 0
2, 93280, Note_on_c, 1, 54, 127
2, 93280, Note_off_c, 1, 63, 0
2, 93320, Note_on_c, 1, 51, 127
2, 93320, Note_off_c, 1, 54, 0
2, 93360, Note_off_c, 1, 51, 0
2, 93360, Note_on_c, 1, 56, 127
2, 93400, Note_off_c, 1, 56, 0
2, 93440, Note_on_c, 1, 59, 127
2, 93440, Note_on_c, 1, 71, 127
2, 93480, Note_off_c, 1, 59, 0
2, 93480, Note_off_c, 1, 71, 0
2, 93560, Note_on_c, 1, 32, 127
2, 93560, Note_on_c, 1, 61, 127
2, 93560, Note_on_c, 1, 70, 127
2, 93560, Note_on_c, 1, 73, 127
2, 93600, Note_off_c, 1, 32, 0
2, 93600, Note_off_c, 1, 61, 0
2, 93600, Note_off_c, 1, 70, 0
2, 93600, Note_off_c, 1, 73, 0
2, 93720, Note_on_c, 1, 44, 127
2, 93720, Note_on_c, 1, 47, 127
2, 93760, Note_off_c, 1, 44, 0
2, 93760, Note_off_c, 1, 47, 0
2, 93760, Note_on_c, 1, 50, 127
2, 93760, Note_on_c, 1, 53, 127
2, 93760, Note_on_c, 1, 56, 127
2, 93760, Note_on_c, 1, 60, 127
2, 93800, Note_on_c, 1, 33, 127
2, 93800, Note_off_c, 1, 50, 0
2, 93800, Note_on_c, 1, 59, 127
2, 93800, Note_off_c, 1, 60, 0
2, 93840, Note_off_c, 1, 33, 0
2, 93840, Note_off_c, 1, 53, 0
2, 93840, Note_off_c, 1, 56, 0
2, 93840, Note_off_c, 1, 59, 0
2, 93920, Note_on_c, 1, 44, 127
2, 93920, Note_on_c, 1, 51, 127
2, 93920, Note_on_c, 1, 59, 127
2, 93920, Note_on_c, 1, 68, 127
2, 93960, Note_off_c, 1, 44, 0
2, 93960, Note_off_c, 1, 51, 0
2, 93960, Note_off_c, 1, 59, 0
2, 93960, Note_on_c, 1, 65, 127
2, 93960, Note_on_c, 1, 67, 127
2, 93960, Note_off_c, 1, 68, 0
2, 93960, Note_on_c, 1, 73, 127
2, 94040, Note_off_c, 1, 67, 0
2, 94080, Note_on_c, 1, 42, 127
2, 94080, Note_on_c, 1, 71, 127
2, 94080, Note_off_c, 1, 73, 0
2, 94200, Note_off_c, 1, 42, 0
2, 94200, Note_on_c, 1, 48, 127
2, 94200, Note_on_c, 1, 55, 127
2, 94200, Note_off_c, 1, 65, 0
2, 94200, Note_off_c, 1, 71, 0
2, 94200, Note_on_c, 1, 72, 127
2, 94240, Note_on_c, 1, 47, 127
2, 94240, Note_off_c, 1, 48, 0
2, 94240, Note_on_c, 1, 67, 127
2, 94240, Note_on_c, 1, 71, 127
2, 94240, Note_off_c, 1, 72, 0
2, 94280, Note_off_c, 1, 47, 0
2, 94280, Note_off_c, 1, 55, 0
2, 94280, Note_on_c, 1, 63, 127
2, 94280, Note_off_c, 1, 67, 0
2, 94280, Note_on_c, 1, 69, 127
2, 94280, Note_off_c, 1, 71, 0
2, 94280, Note_on_c, 1, 73, 127
2, 94280, Note_on_c, 1, 76, 127
2, 94280, Note_on_c, 1, 80, 127
2, 94320, Note_on_c, 1, 42, 127
2, 94320, Note_off_c, 1, 63, 0
2, 94320, Note_off_c, 1, 69, 0
2, 94320, Note_off_c, 1, 73, 0
2, 94320, Note_off_c, 1, 76, 0
2, 94320, Note_off_c, 1, 80, 0
2, 94360, Note_off_c, 1, 42, 0
2, 94360, Note_on_c, 1, 46, 127
2, 94360, Note_on_c, 1, 52, 127
2, 94360, Note_on_c, 1, 57, 127
2, 94400, Note_off_c, 1, 46, 0
2, 94400, Note_off_c, 1, 52, 0
2, 94400, Note_on_c, 1, 64, 127
2, 94400, Note_on_c, 1, 69, 127
2, 94400, Note_on_c, 1, 72, 127
2, 94400, Note_on_c, 1, 78, 127
2, 94440, Note_on_c, 1, 53, 127
2, 94440, Note_off_c, 1, 57, 0
2, 94440, Note_on_c, 1, 58, 127
2, 94440, Note_off_c, 1, 64, 0
2, 94440, Note_on_c, 1, 67, 127
2, 94440, Note_off_c, 1, 69, 0
2, 94440, Note_off_c, 1, 72, 0
2, 94440, Note_off_c, 1, 78, 0
2, 94440, Note_on_c, 1, 85, 127
2, 94480, Note_on_c, 1, 46, 127
2, 94480, Note_on_c, 1, 52, 127
2, 94480, Note_off_c, 1, 53, 0
2, 94480, Note_on_c, 1, 57, 127
2, 94480, Note_off_c, 1, 58, 0
2, 94480, Note_off_c, 1, 67, 0
2, 94480, Note_off_c, 1, 85, 0
2, 94560, Note_on_c, 1, 36, 127
2, 94560, Note_on_c, 1, 39, 127
2, 94560, Note_off_c, 1, 46, 0
2, 94560, Note_on_c, 1, 51, 127
2, 94560, Note_off_c, 1, 52, 0
2, 94560, Note_on_c, 1, 54, 127
2, 94560, Note_on_c, 1, 60, 127
2, 94600, Note_off_c, 1, 36, 0
2, 94600, Note_off_c, 1, 39, 0
2, 94600, Note_on_c, 1, 43, 127
2, 94600, Note_on_c, 1, 49, 127
2, 94600, Note_off_c, 1, 51, 0
2, 94600, Note_off_c, 1, 54, 0
2, 94600, Note_off_c, 1, 57, 0
2, 94600, Note_on_c, 1, 58, 127
2, 94600, Note_off_c, 1, 60, 0
2, 94600, Note_on_c, 1, 64, 127
2, 94600, Note_on_c, 1, 70, 127
2, 94640, Note_off_c, 1, 43, 0
2, 94640, Note_off_c, 1, 49, 0
2, 94640, Note_off_c, 1, 58, 0
2, 94640, Note_off_c, 1, 64, 0
2, 94640, Note_off_c, 1, 70, 0
2, 94680, Note_on_c, 1, 55, 127
2, 94680, Note_on_c, 1, 81, 127
2, 94680, Note_on_c, 1, 85, 127
2, 94720, Note_off_c, 1, 55, 0
2, 94720, Note_on_c, 1, 62, 127
2, 94720, Note_on_c, 1, 68, 127
2, 94720, Note_on_c, 1, 71, 127
2, 94720, Note_on_c, 1, 76, 127
2, 94720, Note_off_c, 1, 81, 0
2, 94720, Note_off_c, 1, 85, 0
2, 94720, Note_on_c, 1, 88, 127
2, 95040, Note_on_c, 1, 58, 127
2, 95040, Note_off_c, 1, 62, 0
2, 95040, Note_off_c, 1, 68, 0
2, 95040, Note_off_c, 1, 71, 0
2, 95040, Note_off_c, 1, 76, 0
2, 95040, Note_off_c, 1, 88, 0
2, 95080, Note_on_c, 1, 50, 127
2, 95080, Note_on_c, 1, 52, 127
2, 95080, Note_on_c, 1, 55, 127
2, 95080, Note_on_c, 1, 61, 127
2, 95080, Note_on_c, 1, 82, 127
2, 95080, Note_on_c, 1, 85, 127
2, 95080, Note_on_c, 1, 94, 127
2, 95120, Note_on_c, 1, 34, 127
2, 95120, Note_on_c, 1, 38, 127
2, 95120, Note_on_c, 1, 46, 127
2, 95120, Note_off_c, 1, 50, 0
2, 95120, Note_off_c, 1, 52, 0
2, 95120, Note_off_c, 1, 55, 0
2, 95120, Note_off_c, 1, 58, 0
2, 95120, Note_off_c, 1, 61, 0
2, 95120, Note_on_c, 1, 79, 127
2, 95120, Note_off_c, 1, 82, 0
2, 95120, Note_off_c, 1, 85, 0
2, 95120, Note_on_c, 1, 91, 127
2, 95120, Note_off_c, 1, 94, 0
2, 95160, Note_off_c, 1, 34, 0
2, 95160, Note_on_c, 1, 36, 127
2, 95160, Note_off_c, 1, 38, 0
2, 95160, Note_on_c, 1, 40, 127
2, 95160, Note_on_c, 1, 42, 127
2, 95160, Note_off_c, 1, 46, 0
2, 95160, Note_on_c, 1, 48, 127
2, 95160, Note_off_c, 1, 79, 0
2, 95160, Note_off_c, 1, 91, 0
2, 95160, Note_on_c, 1, 93, 127
2, 95160, Note_on_c, 1, 100, 127
2, 95160, Note_on_c, 1, 102, 127
2, 95160, Note_on_c, 1, 105, 127
2, 95200, Note_off_c, 1, 36, 0
2, 95200, Note_off_c, 1, 40, 0
2, 95200, Note_off_c, 1, 42, 0
2, 95200, Note_off_c, 1, 48, 0
2, 95200, Note_off_c, 1, 93, 0
2, 95200, Note_off_c, 1, 100, 0
2, 95200, Note_off_c, 1, 102, 0
2, 95200, Note_off_c, 1, 105, 0
2, 95240, Note_on_c, 1, 38, 127
2, 95240, Note_on_c, 1, 50, 127
2, 95240, Note_on_c, 1, 77, 127
2, 95240, Note_on_c, 1, 81, 127
2, 95240, Note_on_c, 1, 86, 127
2, 95240, Note_on_c, 1, 89, 127
2, 95400, Note_on_c, 1, 29, 127
2, 95400, Note_off_c, 1, 38, 0
2, 95400, Note_on_c, 1, 41, 127
2, 95400, Note_on_c, 1, 62, 127
2, 95400, Note_off_c, 1, 77, 0
2, 95400, Note_off_c, 1, 81, 0
2, 95400, Note_off_c, 1, 86, 0
2, 95400, Note_off_c, 1, 89, 0
2, 95440, Note_off_c, 1, 29, 0
2, 95440, Note_on_c, 1, 38, 127
2, 95440, Note_off_c, 1, 41, 0
2, 95440, Note_off_c, 1, 62, 0
2, 95440, Note_on_c, 1, 77, 127
2, 95440, Note_on_c, 1, 81, 127
2, 95440, Note_on_c, 1, 86, 127
2, 95440, Note_on_c, 1, 89, 127
2, 95920, Note_off_c, 1, 38, 0
2, 95920, Note_off_c, 1, 50, 0
2, 95920, Note_off_c, 1, 77, 0
2, 95920, Note_off_c, 1, 81, 0
2, 95920, Note_off_c, 1, 86, 0
2, 95920, Note_off_c, 1, 89, 0
2, 95960, Note_on_c, 1, 31, 127
2, 95960, Note_on_c, 1, 43, 127
2, 95960, Note_on_c, 1, 60, 127
2, 95960, Note_on_c, 1, 64, 127
2, 95960, Note_on_c, 1, 67, 127
2, 95960, Note_on_c, 1, 72, 127
2, 96280, Note_off_c, 1, 31, 0
2, 96280, Note_off_c, 1, 43, 0
2, 96280, Note_off_c, 1, 60, 0
2, 96280, Note_off_c, 1, 64, 0
2, 96280, Note_off_c, 1, 67, 0
2, 96280, Note_off_c, 1, 72, 0
2, 96360, Note_on_c, 1, 36, 127
2, 96360, Note_on_c, 1, 60, 127
2, 96360, Note_on_c, 1, 65, 127
2, 96360, Note_on_c, 1, 69, 127
2, 96440, Note_off_c, 1, 36, 0
2, 96440, Note_on_c, 1, 48, 127
2, 96440, Note_off_c, 1, 60, 0
2, 96440, Note_off_c, 1, 65, 0
2, 96440, Note_off_c, 1, 69, 0
2, 96480, Note_on_c, 1, 36, 127
2, 96480, Note_off_c, 1, 48, 0
2, 96480, Note_on_c, 1, 60, 127
2, 96480, Note_on_c, 1, 65, 127
2, 96480, Note_on_c, 1, 69, 127
2, 96720, Note_off_c, 1, 36, 0
2, 96720, Note_off_c, 1, 60, 0
2, 96720, Note_off_c, 1, 65, 0
2, 96720, Note_off_c, 1, 69, 0
2, 96760, Note_on_c, 1, 53, 127
2, 96760, Note_on_c, 1, 64, 127
2, 96760, Note_on_c, 1, 70, 127
2, 96760, Note_on_c, 1, 72, 127
2, 97040, Note_off_c, 1, 53, 0
2, 97040, Note_off_c, 1, 64, 0
2, 97080, Note_on_c, 1, 43, 127
2, 97080, Note_on_c, 1, 48, 127
2, 97080, Note_on_c, 1, 52, 127
2, 97080, Note_on_c, 1, 55, 127
2, 97080, Note_off_c, 1, 70, 0
2, 97080, Note_off_c, 1, 72, 0
2, 97080, Note_on_c, 1, 77, 127
2, 97080, Note_on_c, 1, 89, 127
2, 97120, Note_on_c, 1, 36, 127
2, 97120, Note_off_c, 1, 52, 0
2, 97120, Note_off_c, 1, 55, 0
2, 97120, Note_off_c, 1, 77, 0
2, 97120, Note_on_c, 1, 79, 127
2, 97120, Note_off_c, 1, 89, 0
2, 97160, Note_off_c, 1, 43, 0
2, 97160, Note_off_c, 1, 48, 0
2, 97160, Note_on_c, 1, 67, 127
2, 97160, Note_on_c, 1, 70, 127
2, 97160, Note_on_c, 1, 72, 127
2, 97160, Note_on_c, 1, 76, 127
2, 97160, Note_off_c, 1, 79, 0
2, 97200, Note_off_c, 1, 36, 0
2, 97200, Note_on_c, 1, 43, 127
2, 97200, Note_on_c, 1, 48, 127
2, 97200, Note_on_c, 1, 52, 127
2, 97200, Note_on_c, 1, 55, 127
2, 97200, Note_off_c, 1, 67, 0
2, 97200, Note_off_c, 1, 70, 0
2, 97200, Note_off_c, 1, 72, 0
2, 97200, Note_off_c, 1, 76, 0
2, 97200, Note_on_c, 1, 77, 127
2, 97200, Note_on_c, 1, 89, 127
2, 97240, Note_off_c, 1, 43, 0
2, 97240, Note_off_c, 1, 48, 0
2, 97240, Note_off_c, 1, 52, 0
2, 97240, Note_off_c, 1, 55, 0
2, 97240, Note_on_c, 1, 67, 127
2, 97240, Note_on_c, 1, 70, 127
2, 97240, Note_on_c, 1, 72, 127
2, 97240, Note_on_c, 1, 76, 127
2, 97240, Note_off_c, 1, 77, 0
2, 97240, Note_off_c, 1, 89, 0
2, 97280, Note_on_c, 1, 33, 127
2, 97280, Note_on_c, 1, 40, 127
2, 97280, Note_on_c, 1, 45, 127
2, 97280, Note_on_c, 1, 57, 127
2, 97280, Note_on_c, 1, 60, 127
2, 97280, Note_on_c, 1, 64, 127
2, 97280, Note_off_c, 1, 67, 0
2, 97280, Note_on_c, 1, 69, 127
2, 97280, Note_off_c, 1, 70, 0
2, 97280, Note_off_c, 1, 72, 0
2, 97280, Note_off_c, 1, 76, 0
2, 97320, Note_off_c, 1, 33, 0
2, 97320, Note_off_c, 1, 40, 0
2, 97320, Note_off_c, 1, 45, 0
2, 97320, Note_on_c, 1, 50, 127
2, 97320, Note_off_c, 1, 57, 0
2, 97320, Note_off_c, 1, 60, 0
2, 97320, Note_off_c, 1, 64, 0
2, 97320, Note_on_c, 1, 68, 127
2, 97320, Note_off_c, 1, 69, 0
2, 97320, Note_on_c, 1, 71, 127
2, 97320, Note_on_c, 1, 77, 127
2, 97360, Note_off_c, 1, 50, 0
2, 97360, Note_off_c, 1, 68, 0
2, 97360, Note_off_c, 1, 71, 0
2, 97360, Note_off_c, 1, 77, 0
2, 97400, Note_on_c, 1, 50, 127
2, 97400, Note_on_c, 1, 62, 127
2, 97400, Note_on_c, 1, 65, 127
2, 97400, Note_on_c, 1, 69, 127
2, 97600, Note_off_c, 1, 50, 0
2, 97640, Note_off_c, 1, 62, 0
2, 97640, Note_on_c, 1, 64, 127
2, 97640, Note_off_c, 1, 65, 0
2, 97640, Note_on_c, 1, 68, 127
2, 97640, Note_off_c, 1, 69, 0
2, 97640, Note_on_c, 1, 71, 127
2, 97640, Note_on_c, 1, 74, 127
2, 97640, Note_on_c, 1, 76, 127
2, 97640, Note_on_c, 1, 80, 127
2, 97680, Note_on_c, 1, 41, 127
2, 97680, Note_on_c, 1, 50, 127
2, 97680, Note_on_c, 1, 53, 127
2, 97680, Note_off_c, 1, 64, 0
2, 97680, Note_off_c, 1, 68, 0
2, 97680, Note_off_c, 1, 71, 0
2, 97680, Note_off_c, 1, 74, 0
2, 97680, Note_off_c, 1, 76, 0
2, 97680, Note_off_c, 1, 80, 0
2, 97720, Note_off_c, 1, 41, 0
2, 97720, Note_off_c, 1, 50, 0
2, 97720, Note_off_c, 1, 53, 0
2, 97760, Note_on_c, 1, 39, 127
2, 97760, Note_on_c, 1, 51, 127
2, 97760, Note_on_c, 1, 60, 127
2, 97760, Note_on_c, 1, 69, 127
2, 98040, Note_off_c, 1, 39, 0
2, 98040, Note_off_c, 1, 51, 0
2, 98040, Note_off_c, 1, 60, 0
2, 98040, Note_off_c, 1, 69, 0
2, 98120, Note_on_c, 1, 39, 127
2, 98120, Note_on_c, 1, 51, 127
2, 98120, Note_on_c, 1, 60, 127
2, 98120, Note_on_c, 1, 69, 127
2, 98400, Note_off_c, 1, 39, 0
2, 98400, Note_off_c, 1, 51, 0
2, 98400, Note_off_c, 1, 60, 0
2, 98400, Note_off_c, 1, 69, 0
2, 98440, Note_on_c, 1, 39, 127
2, 98440, Note_on_c, 1, 51, 127
2, 98440, Note_on_c, 1, 60, 127
2, 98440, Note_on_c, 1, 69, 127
2, 98720, Note_off_c, 1, 60, 0
2, 98720, Note_off_c, 1, 69, 0
2, 98760, Note_on_c, 1, 60, 127
2, 98760, Note_on_c, 1, 69, 127
2, 98960, Note_off_c, 1, 60, 0
2, 99000, Note_on_c, 1, 60, 127
2, 99080, Note_off_c, 1, 39, 0
2, 99080, Note_off_c, 1, 51, 0
2, 99080, Note_off_c, 1, 60, 0
2, 99080, Note_off_c, 1, 69, 0
2, 99120, Note_on_c, 1, 39, 127
2, 99120, Note_on_c, 1, 51, 127
2, 99120, Note_on_c, 1, 67, 127
2, 99120, Note_on_c, 1, 69, 127
2, 99440, Note_off_c, 1, 39, 0
2, 99440, Note_off_c, 1, 51, 0
2, 99440, Note_off_c, 1, 67, 0
2, 99440, Note_off_c, 1, 69, 0
2, 99480, Note_on_c, 1, 50, 127
2, 99480, Note_on_c, 1, 62, 127
2, 99480, Note_on_c, 1, 79, 127
2, 99480, Note_on_c, 1, 83, 127
2, 99480, Note_on_c, 1, 86, 127
2, 99680, Note_off_c, 1, 50, 0
2, 99680, Note_off_c, 1, 62, 0
2, 99680, Note_off_c, 1, 79, 0
2, 99680, Note_off_c, 1, 83, 0
2, 99680, Note_off_c, 1, 86, 0
2, 99720, Note_on_c, 1, 43, 127
2, 99720, Note_on_c, 1, 55, 127
2, 99720, Note_on_c, 1, 71, 127
2, 99720, Note_on_c, 1, 79, 127
2, 99720, Note_on_c, 1, 83, 127
2, 99800, Note_off_c, 1, 43, 0
2, 99800, Note_off_c, 1, 55, 0
2, 99800, Note_off_c, 1, 71, 0
2, 99800, Note_off_c, 1, 79, 0
2, 99800, Note_off_c, 1, 83, 0
2, 99840, Note_on_c, 1, 55, 127
2, 100120, Note_off_c, 1, 55, 0
2, 100160, Note_on_c, 1, 58, 127
2, 100440, Note_off_c, 1, 58, 0
2, 100480, Note_on_c, 1, 58, 127
2, 100520, Note_off_c, 1, 58, 0
2, 100520, Note_on_c, 1, 60, 127
2, 100560, Note_on_c, 1, 43, 127
2, 100560, Note_on_c, 1, 50, 127
2, 100560, Note_on_c, 1, 53, 127
2, 100560, Note_on_c, 1, 55, 127
2, 100560, Note_off_c, 1, 60, 0
2, 100560, Note_on_c, 1, 77, 127
2, 100600, Note_off_c, 1, 43, 0
2, 100600, Note_off_c, 1, 50, 0
2, 100600, Note_off_c, 1, 53, 0
2, 100600, Note_off_c, 1, 55, 0
2, 100600, Note_on_c, 1, 56, 127
2, 100600, Note_on_c, 1, 71, 127
2, 100600, Note_on_c, 1, 80, 127
2, 100600, Note_on_c, 1, 83, 127
2, 100640, Note_off_c, 1, 56, 0
2, 100640, Note_on_c, 1, 57, 127
2, 100640, Note_on_c, 1, 60, 127
2, 100640, Note_on_c, 1, 66, 127
2, 100640, Note_off_c, 1, 71, 0
2, 100640, Note_off_c, 1, 77, 0
2, 100640, Note_on_c, 1, 78, 127
2, 100640, Note_on_c, 1, 79, 127
2, 100640, Note_off_c, 1, 80, 0
2, 100640, Note_off_c, 1, 83, 0
2, 100680, Note_off_c, 1, 57, 0
2, 100680, Note_off_c, 1, 60, 0
2, 100680, Note_on_c, 1, 61, 127
2, 100680, Note_on_c, 1, 65, 127
2, 100680, Note_off_c, 1, 66, 0
2, 100680, Note_off_c, 1, 78, 0
2, 100680, Note_off_c, 1, 79, 0
2, 100680, Note_on_c, 1, 82, 127
2, 100680, Note_on_c, 1, 94, 127
2, 100720, Note_on_c, 1, 57, 127
2, 100720, Note_off_c, 1, 61, 0
2, 100720, Note_off_c, 1, 65, 0
2, 100720, Note_off_c, 1, 82, 0
2, 100720, Note_off_c, 1, 94, 0
2, 100760, Note_on_c, 1, 46, 127
2, 100760, Note_off_c, 1, 57, 0
2, 100760, Note_on_c, 1, 65, 127
2, 100760, Note_on_c, 1, 70, 127
2, 100760, Note_on_c, 1, 76, 127
2, 100920, Note_off_c, 1, 46, 0
2, 100920, Note_off_c, 1, 70, 0
2, 100920, Note_off_c, 1, 76, 0
2, 100960, Note_on_c, 1, 70, 127
2, 101040, Note_off_c, 1, 70, 0
2, 101080, Note_on_c, 1, 72, 127
2, 101120, Note_off_c, 1, 72, 0
2, 101120, Note_on_c, 1, 73, 127
2, 101160, Note_off_c, 1, 73, 0
2, 101200, Note_on_c, 1, 72, 127
2, 101280, Note_off_c, 1, 72, 0
2, 101320, Note_on_c, 1, 40, 127
2, 101320, Note_on_c, 1, 52, 127
2, 101320, Note_off_c, 1, 65, 0
2, 101320, Note_on_c, 1, 69, 127
2, 101320, Note_on_c, 1, 72, 127
2, 101320, Note_on_c, 1, 81, 127
2, 101840, Note_on_c, 1, 34, 127
2, 101840, Note_off_c, 1, 40, 0
2, 101840, Note_on_c, 1, 43, 127
2, 101840, Note_on_c, 1, 50, 127
2, 101840, Note_off_c, 1, 52, 0
2, 101840, Note_on_c, 1, 62, 127
2, 101840, Note_off_c, 1, 69, 0
2, 101840, Note_off_c, 1, 72, 0
2, 101840, Note_off_c, 1, 81, 0
2, 101880, Note_off_c, 1, 34, 0
2, 101880, Note_off_c, 1, 43, 0
2, 101880, Note_on_c, 1, 46, 127
2, 101880, Note_off_c, 1, 50, 0
2, 101880, Note_on_c, 1, 57, 127
2, 101880, Note_off_c, 1, 62, 0
2, 101880, Note_on_c, 1, 63, 127
2, 101880, Note_on_c, 1, 69, 127
2, 101880, Note_on_c, 1, 72, 127
2, 101880, Note_on_c, 1, 75, 127
2, 101920, Note_off_c, 1, 46, 0
2, 101920, Note_off_c, 1, 57, 0
2, 101920, Note_off_c, 1, 63, 0
2, 101920, Note_on_c, 1, 68, 127
2, 101920, Note_off_c, 1, 69, 0
2, 101920, Note_off_c, 1, 72, 0
2, 101920, Note_off_c, 1, 75, 0
2, 101920, Note_on_c, 1, 91, 127
2, 101960, Note_on_c, 1, 61, 127
2, 101960, Note_off_c, 1, 68, 0
2, 101960, Note_on_c, 1, 70, 127
2, 101960, Note_on_c, 1, 72, 127
2, 101960, Note_on_c, 1, 73, 127
2, 101960, Note_on_c, 1, 75, 127
2, 101960, Note_off_c, 1, 91, 0
2, 102000, Note_on_c, 1, 40, 127
2, 102000, Note_on_c, 1, 52, 127
2, 102000, Note_on_c, 1, 64, 127
2, 102000, Note_off_c, 1, 70, 0
2, 102000, Note_off_c, 1, 72, 0
2, 102000, Note_off_c, 1, 73, 0
2, 102000, Note_off_c, 1, 75, 0
2, 102040, Note_off_c, 1, 40, 0
2, 102040, Note_off_c, 1, 52, 0
2, 102040, Note_on_c, 1, 60, 127
2, 102040, Note_off_c, 1, 61, 0
2, 102040, Note_on_c, 1, 63, 127
2, 102040, Note_off_c, 1, 64, 0
2, 102040, Note_on_c, 1, 68, 127
2, 102040, Note_on_c, 1, 91, 127
2, 102080, Note_on_c, 1, 43, 127
2, 102080, Note_off_c, 1, 60, 0
2, 102080, Note_off_c, 1, 63, 0
2, 102080, Note_off_c, 1, 68, 0
2, 102080, Note_on_c, 1, 83, 127
2, 102080, Note_on_c, 1, 89, 127
2, 102120, Note_off_c, 1, 43, 0
2, 102120, Note_on_c, 1, 47, 127
2, 102120, Note_on_c, 1, 55, 127
2, 102120, Note_on_c, 1, 58, 127
2, 102120, Note_on_c, 1, 73, 127
2, 102120, Note_off_c, 1, 83, 0
2, 102120, Note_off_c, 1, 89, 0
2, 102120, Note_off_c, 1, 91, 0
2, 102160, Note_on_c, 1, 43, 127
2, 102160, Note_off_c, 1, 47, 0
2, 102160, Note_on_c, 1, 50, 127
2, 102160, Note_off_c, 1, 55, 0
2, 102160, Note_on_c, 1, 57, 127
2, 102160, Note_off_c, 1, 58, 0
2, 102160, Note_on_c, 1, 60, 127
2, 102160, Note_on_c, 1, 71, 127
2, 102160, Note_off_c, 1, 73, 0
2, 102200, Note_off_c, 1, 43, 0
2, 102200, Note_on_c, 1, 45, 127
2, 102200, Note_off_c, 1, 50, 0
2, 102200, Note_off_c, 1, 57, 0
2, 102200, Note_off_c, 1, 60, 0
2, 102200, Note_off_c, 1, 71, 0
2, 102200, Note_on_c, 1, 84, 127
2, 102200, Note_on_c, 1, 93, 127
2, 102200, Note_on_c, 1, 96, 127
2, 102240, Note_on_c, 1, 38, 127
2, 102240, Note_on_c, 1, 50, 127
2, 102240, Note_on_c, 1, 77, 127
2, 102240, Note_on_c, 1, 81, 127
2, 102240, Note_off_c, 1, 84, 0
2, 102240, Note_off_c, 1, 93, 0
2, 102240, Note_off_c, 1, 96, 0
2, 102280, Note_off_c, 1, 38, 0
2, 102280, Note_off_c, 1, 45, 0
2, 102280, Note_off_c, 1, 50, 0
2, 102280, Note_off_c, 1, 77, 0
2, 102280, Note_on_c, 1, 80, 127
2, 102280, Note_off_c, 1, 81, 0
2, 102280, Note_on_c, 1, 83, 127
2, 102280, Note_on_c, 1, 100, 127
2, 102320, Note_on_c, 1, 35, 127
2, 102320, Note_on_c, 1, 41, 127
2, 102320, Note_on_c, 1, 47, 127
2, 102320, Note_on_c, 1, 74, 127
2, 102320, Note_on_c, 1, 77, 127
2, 102320, Note_off_c, 1, 80, 0
2, 102320, Note_off_c, 1, 83, 0
2, 102320, Note_off_c, 1, 100, 0
2, 102360, Note_off_c, 1, 35, 0
2, 102360, Note_off_c, 1, 41, 0
2, 102360, Note_off_c, 1, 47, 0
2, 102360, Note_off_c, 1, 74, 0
2, 102360, Note_off_c, 1, 77, 0
2, 102440, Note_on_c, 1, 55, 127
2, 102440, Note_on_c, 1, 58, 127
2, 102440, Note_on_c, 1, 73, 127
2, 102440, Note_on_c, 1, 79, 127
2, 102440, Note_on_c, 1, 85, 127
2, 102480, Note_on_c, 1, 40, 127
2, 102480, Note_on_c, 1, 52, 127
2, 102480, Note_off_c, 1, 55, 0
2, 102480, Note_off_c, 1, 58, 0
2, 102480, Note_off_c, 1, 73, 0
2, 102480, Note_off_c, 1, 79, 0
2, 102480, Note_on_c, 1, 81, 127
2, 102480, Note_on_c, 1, 84, 127
2, 102480, Note_off_c, 1, 85, 0
2, 102480, Note_on_c, 1, 92, 127
2, 102520, Note_off_c, 1, 40, 0
2, 102520, Note_off_c, 1, 52, 0
2, 102520, Note_off_c, 1, 81, 0
2, 102520, Note_off_c, 1, 84, 0
2, 102520, Note_off_c, 1, 92, 0
2, 102560, Note_on_c, 1, 36, 127
2, 102560, Note_on_c, 1, 44, 127
2, 102560, Note_on_c, 1, 55, 127
2, 102560, Note_on_c, 1, 60, 127
2, 102600, Note_off_c, 1, 36, 0
2, 102600, Note_off_c, 1, 44, 0
2, 102600, Note_on_c, 1, 52, 127
2, 102600, Note_off_c, 1, 55, 0
2, 102600, Note_off_c, 1, 60, 0
2, 102600, Note_on_c, 1, 63, 127
2, 102600, Note_on_c, 1, 73, 127
2, 102600, Note_on_c, 1, 80, 127
2, 102640, Note_on_c, 1, 60, 127
2, 102640, Note_off_c, 1, 63, 0
2, 102640, Note_on_c, 1, 67, 127
2, 102640, Note_on_c, 1, 72, 127
2, 102640, Note_off_c, 1, 73, 0
2, 102640, Note_on_c, 1, 83, 127
2, 102680, Note_off_c, 1, 52, 0
2, 102680, Note_off_c, 1, 60, 0
2, 102680, Note_on_c, 1, 63, 127
2, 102680, Note_off_c, 1, 72, 0
2, 102680, Note_on_c, 1, 79, 127
2, 102680, Note_off_c, 1, 80, 0
2, 102680, Note_on_c, 1, 82, 127
2, 102680, Note_off_c, 1, 83, 0
2, 102680, Note_on_c, 1, 87, 127
2, 102720, Note_on_c, 1, 44, 127
2, 102720, Note_off_c, 1, 63, 0
2, 102720, Note_off_c, 1, 67, 0
2, 102720, Note_off_c, 1, 79, 0
2, 102720, Note_off_c, 1, 82, 0
2, 102720, Note_off_c, 1, 87, 0
2, 102720, Note_on_c, 1, 100, 127
2, 102760, Note_on_c, 1, 38, 127
2, 102760, Note_off_c, 1, 44, 0
2, 102760, Note_on_c, 1, 47, 127
2, 102760, Note_on_c, 1, 68, 127
2, 102760, Note_on_c, 1, 80, 127
2, 102760, Note_off_c, 1, 100, 0
2, 102800, Note_off_c, 1, 38, 0
2, 102800, Note_off_c, 1, 47, 0
2, 102800, Note_off_c, 1, 68, 0
2, 102800, Note_off_c, 1, 80, 0
2, 102840, Note_on_c, 1, 51, 127
2, 102880, Note_on_c, 1, 50, 127
2, 102880, Note_off_c, 1, 51, 0
2, 102880, Note_on_c, 1, 58, 127
2, 102880, Note_on_c, 1, 62, 127
2, 102880, Note_on_c, 1, 65, 127
2, 102920, Note_off_c, 1, 50, 0
2, 102920, Note_off_c, 1, 62, 0
2, 102920, Note_on_c, 1, 63, 127
2, 102920, Note_off_c, 1, 65, 0
2, 102960, Note_on_c, 1, 48, 127
2, 102960, Note_off_c, 1, 58, 0
2, 102960, Note_on_c, 1, 60, 127
2, 102960, Note_on_c, 1, 62, 127
2, 102960, Note_off_c, 1, 63, 0
2, 103000, Note_off_c, 1, 48, 0
2, 103000, Note_on_c, 1, 50, 127
2, 103000, Note_on_c, 1, 58, 127
2, 103000, Note_off_c, 1, 60, 0
2, 103000, Note_on_c, 1, 65, 127
2, 103040, Note_on_c, 1, 48, 127
2, 103040, Note_off_c, 1, 50, 0
2, 103040, Note_on_c, 1, 53, 127
2, 103040, Note_off_c, 1, 58, 0
2, 103040, Note_off_c, 1, 62, 0
2, 103120, Note_on_c, 1, 44, 127
2, 103120, Note_off_c, 1, 48, 0
2, 103120, Note_off_c, 1, 53, 0
2, 103120, Note_on_c, 1, 56, 127
2, 103120, Note_on_c, 1, 61, 127
2, 103160, Note_off_c, 1, 44, 0
2, 103160, Note_on_c, 1, 48, 127
2, 103160, Note_on_c, 1, 53, 127
2, 103160, Note_off_c, 1, 56, 0
2, 103160, Note_off_c, 1, 61, 0
2, 103200, Note_off_c, 1, 53, 0
2, 103200, Note_on_c, 1, 56, 127
2, 103240, Note_off_c, 1, 48, 0
2, 103240, Note_on_c, 1, 59, 127
2, 103240, Note_on_c, 1, 62, 127
2, 103280, Note_on_c, 1, 41, 127
2, 103280, Note_off_c, 1, 56, 0
2, 103280, Note_off_c, 1, 59, 0
2, 103280, Note_on_c, 1, 60, 127
2, 103280, Note_off_c, 1, 62, 0
2, 103320, Note_off_c, 1, 41, 0
2, 103320, Note_on_c, 1, 53, 127
2, 103320, Note_on_c, 1, 59, 127
2, 103320, Note_off_c, 1, 60, 0
2, 103360, Note_off_c, 1, 53, 0
2, 103360, Note_off_c, 1, 59, 0
2, 103360, Note_off_c, 1, 65, 0
2, 103360, Note_on_c, 1, 66, 127
2, 103360, Note_on_c, 1, 75, 127
2, 103360, Note_on_c, 1, 78, 127
2, 103360, Note_on_c, 1, 82, 127
2, 103360, Note_on_c, 1, 94, 127
2, 103400, Note_on_c, 1, 53, 127
2, 103400, Note_on_c, 1, 59, 127
2, 103400, Note_on_c, 1, 65, 127
2, 103400, Note_off_c, 1, 66, 0
2, 103400, Note_off_c, 1, 75, 0
2, 103400, Note_off_c, 1, 78, 0
2, 103400, Note_off_c, 1, 82, 0
2, 103400, Note_off_c, 1, 94, 0
2, 103480, Note_off_c, 1, 53, 0
2, 103480, Note_off_c, 1, 59, 0
2, 103480, Note_off_c, 1, 65, 0
2, 103520, Note_on_c, 1, 34, 127
2, 103520, Note_on_c, 1, 46, 127
2, 103520, Note_on_c, 1, 76, 127
2, 103520, Note_on_c, 1, 85, 127
2, 103560, Note_off_c, 1, 76, 0
2, 103560, Note_on_c, 1, 79, 127
2, 103560, Note_off_c, 1, 85, 0
2, 103600, Note_on_c, 1, 30, 127
2, 103600, Note_off_c, 1, 34, 0
2, 103600, Note_on_c, 1, 42, 127
2, 103600, Note_off_c, 1, 46, 0
2, 103600, Note_off_c, 1, 79, 0
2, 103600, Note_on_c, 1, 87, 127
2, 103640, Note_off_c, 1, 30, 0
2, 103640, Note_on_c, 1, 34, 127
2, 103640, Note_off_c, 1, 42, 0
2, 103640, Note_on_c, 1, 46, 127
2, 103640, Note_on_c, 1, 79, 127
2, 103640, Note_off_c, 1, 87, 0
2, 103720, Note_off_c, 1, 79, 0
2, 103720, Note_on_c, 1, 89, 127
2, 103760, Note_on_c, 1, 87, 127
2, 103760, Note_off_c, 1, 89, 0
2, 103840, Note_on_c, 1, 86, 127
2, 103840, Note_off_c, 1, 87, 0
2, 104000, Note_on_c, 1, 77, 127
2, 104000, Note_off_c, 1, 86, 0
2, 104040, Note_off_c, 1, 34, 0
2, 104040, Note_off_c, 1, 46, 0
2, 104040, Note_on_c, 1, 68, 127
2, 104040, Note_off_c, 1, 77, 0
2, 104080, Note_on_c, 1, 38, 127
2, 104080, Note_on_c, 1, 60, 127
2, 104080, Note_off_c, 1, 68, 0
2, 104080, Note_on_c, 1, 75, 127
2, 104120, Note_off_c, 1, 38, 0
2, 104120, Note_off_c, 1, 75, 0
2, 104160, Note_on_c, 1, 51, 127
2, 104160, Note_off_c, 1, 60, 0
2, 104160, Note_on_c, 1, 63, 127
2, 104160, Note_on_c, 1, 66, 127
2, 104200, Note_off_c, 1, 51, 0
2, 104200, Note_on_c, 1, 58, 127
2, 104200, Note_off_c, 1, 63, 0
2, 104200, Note_off_c, 1, 66, 0
2, 104240, Note_on_c, 1, 30, 127
2, 104240, Note_on_c, 1, 42, 127
2, 104240, Note_off_c, 1, 58, 0
2, 104240, Note_on_c, 1, 59, 127
2, 104240, Note_on_c, 1, 61, 127
2, 104240, Note_on_c, 1, 66, 127
2, 104240, Note_on_c, 1, 71, 127
2, 104280, Note_off_c, 1, 30, 0
2, 104280, Note_off_c, 1, 42, 0
2, 104280, Note_off_c, 1, 61, 0
2, 104280, Note_off_c, 1, 66, 0
2, 104280, Note_off_c, 1, 71, 0
2, 104320, Note_on_c, 1, 50, 127
2, 104320, Note_on_c, 1, 53, 127
2, 104320, Note_on_c, 1, 58, 127
2, 104320, Note_off_c, 1, 59, 0
2, 104320, Note_on_c, 1, 62, 127
2, 104320, Note_on_c, 1, 80, 127
2, 104360, Note_off_c, 1, 50, 0
2, 104360, Note_off_c, 1, 53, 0
2, 104360, Note_on_c, 1, 57, 127
2, 104360, Note_off_c, 1, 58, 0
2, 104360, Note_on_c, 1, 69, 127
2, 104360, Note_on_c, 1, 72, 127
2, 104360, Note_off_c, 1, 80, 0
2, 104360, Note_on_c, 1, 84, 127
2, 104400, Note_on_c, 1, 29, 127
2, 104400, Note_on_c, 1, 41, 127
2, 104400, Note_off_c, 1, 57, 0
2, 104400, Note_on_c, 1, 61, 127
2, 104400, Note_off_c, 1, 62, 0
2, 104400, Note_on_c, 1, 68, 127
2, 104400, Note_off_c, 1, 69, 0
2, 104400, Note_off_c, 1, 72, 0
2, 104400, Note_on_c, 1, 73, 127
2, 104400, Note_off_c, 1, 84, 0
2, 104440, Note_off_c, 1, 29, 0
2, 104440, Note_on_c, 1, 51, 127
2, 104440, Note_on_c, 1, 59, 127
2, 104440, Note_off_c, 1, 61, 0
2, 104440, Note_on_c, 1, 63, 127
2, 104440, Note_off_c, 1, 73, 0
2, 104480, Note_on_c, 1, 39, 127
2, 104480, Note_off_c, 1, 41, 0
2, 104480, Note_on_c, 1, 44, 127
2, 104480, Note_off_c, 1, 59, 0
2, 104480, Note_off_c, 1, 63, 0
2, 104480, Note_off_c, 1, 68, 0
2, 104480, Note_on_c, 1, 84, 127
2, 104480, Note_on_c, 1, 90, 127
2, 104520, Note_on_c, 1, 29, 127
2, 104520, Note_off_c, 1, 39, 0
2, 104520, Note_on_c, 1, 41, 127
2, 104520, Note_off_c, 1, 44, 0
2, 104520, Note_off_c, 1, 51, 0
2, 104520, Note_on_c, 1, 61, 127
2, 104520, Note_on_c, 1, 68, 127
2, 104520, Note_on_c, 1, 73, 127
2, 104520, Note_off_c, 1, 84, 0
2, 104520, Note_off_c, 1, 90, 0
2, 104560, Note_off_c, 1, 29, 0
2, 104560, Note_off_c, 1, 41, 0
2, 104560, Note_on_c, 1, 50, 127
2, 104560, Note_on_c, 1, 59, 127
2, 104560, Note_off_c, 1, 61, 0
2, 104560, Note_on_c, 1, 62, 127
2, 104560, Note_off_c, 1, 68, 0
2, 104560, Note_off_c, 1, 73, 0
2, 104560, Note_on_c, 1, 85, 127
2, 104600, Note_off_c, 1, 50, 0
2, 104600, Note_off_c, 1, 59, 0
2, 104600, Note_off_c, 1, 62, 0
2, 104600, Note_on_c, 1, 69, 127
2, 104600, Note_on_c, 1, 72, 127
2, 104600, Note_on_c, 1, 75, 127
2, 104600, Note_on_c, 1, 77, 127
2, 104600, Note_on_c, 1, 84, 127
2, 104600, Note_off_c, 1, 85, 0
2, 104640, Note_off_c, 1, 69, 0
2, 104640, Note_off_c, 1, 72, 0
2, 104640, Note_off_c, 1, 75, 0
2, 104640, Note_off_c, 1, 77, 0
2, 104640, Note_off_c, 1, 84, 0
2, 104720, Note_on_c, 1, 46, 127
2, 104720, Note_on_c, 1, 51, 127
2, 104720, Note_on_c, 1, 66, 127
2, 104720, Note_on_c, 1, 70, 127
2, 105040, Note_off_c, 1, 51, 0
2, 105040, Note_off_c, 1, 66, 0
2, 105080, Note_on_c, 1, 50, 127
2, 105080, Note_on_c, 1, 65, 127
2, 105320, Note_off_c, 1, 50, 0
2, 105320, Note_off_c, 1, 65, 0
2, 105320, Note_on_c, 1, 67, 127
2, 105320, Note_off_c, 1, 70, 0
2, 105360, Note_on_c, 1, 50, 127
2, 105360, Note_on_c, 1, 65, 127
2, 105360, Note_off_c, 1, 67, 0
2, 105360, Note_on_c, 1, 70, 127
2, 105400, Note_off_c, 1, 46, 0
2, 105400, Note_off_c, 1, 50, 0
2, 105400, Note_off_c, 1, 65, 0
2, 105400, Note_off_c, 1, 70, 0
2, 105440, Note_on_c, 1, 47, 127
2, 105440, Note_on_c, 1, 68, 127
2, 105440, Note_on_c, 1, 79, 127
2, 105520, Note_off_c, 1, 79, 0
2, 105560, Note_on_c, 1, 53, 127
2, 105560, Note_on_c, 1, 74, 127
2, 105640, Note_off_c, 1, 53, 0
2, 105640, Note_off_c, 1, 74, 0
2, 105680, Note_on_c, 1, 53, 127
2, 105680, Note_on_c, 1, 74, 127
2, 105760, Note_off_c, 1, 47, 0
2, 105760, Note_off_c, 1, 53, 0
2, 105760, Note_off_c, 1, 74, 0
2, 105800, Note_on_c, 1, 48, 127
2, 105800, Note_on_c, 1, 77, 127
2, 105880, Note_off_c, 1, 48, 0
2, 105920, Note_on_c, 1, 45, 127
2, 105920, Note_on_c, 1, 47, 127
2, 105920, Note_on_c, 1, 57, 127
2, 105920, Note_on_c, 1, 63, 127
2, 105920, Note_on_c, 1, 66, 127
2, 105920, Note_off_c, 1, 68, 0
2, 105920, Note_on_c, 1, 71, 127
2, 105920, Note_on_c, 1, 75, 127
2, 105920, Note_off_c, 1, 77, 0
2, 105960, Note_off_c, 1, 47, 0
2, 105960, Note_on_c, 1, 53, 127
2, 105960, Note_off_c, 1, 63, 0
2, 105960, Note_on_c, 1, 64, 127
2, 105960, Note_off_c, 1, 66, 0
2, 105960, Note_off_c, 1, 71, 0
2, 105960, Note_off_c, 1, 75, 0
2, 106000, Note_on_c, 1, 41, 127
2, 106000, Note_off_c, 1, 53, 0
2, 106000, Note_off_c, 1, 57, 0
2, 106000, Note_on_c, 1, 61, 127
2, 106000, Note_on_c, 1, 67, 127
2, 106000, Note_on_c, 1, 69, 127
2, 106040, Note_off_c, 1, 41, 0
2, 106040, Note_off_c, 1, 45, 0
2, 106040, Note_off_c, 1, 61, 0
2, 106040, Note_off_c, 1, 64, 0
2, 106040, Note_off_c, 1, 69, 0
2, 106040, Note_on_c, 1, 78, 127
2, 106040, Note_on_c, 1, 82, 127
2, 106040, Note_on_c, 1, 85, 127
2, 106040, Note_on_c, 1, 90, 127
2, 106080, Note_on_c, 1, 47, 127
2, 106080, Note_on_c, 1, 57, 127
2, 106080, Note_off_c, 1, 67, 0
2, 106080, Note_off_c, 1, 78, 0
2, 106080, Note_off_c, 1, 82, 0
2, 106080, Note_off_c, 1, 85, 0
2, 106080, Note_on_c, 1, 87, 127
2, 106080, Note_off_c, 1, 90, 0
2, 106120, Note_on_c, 1, 30, 127
2, 106120, Note_on_c, 1, 42, 127
2, 106120, Note_off_c, 1, 47, 0
2, 106120, Note_off_c, 1, 57, 0
2, 106120, Note_on_c, 1, 74, 127
2, 106120, Note_on_c, 1, 86, 127
2, 106120, Note_off_c, 1, 87, 0
2, 106160, Note_off_c, 1, 30, 0
2, 106160, Note_off_c, 1, 42, 0
2, 106160, Note_on_c, 1, 54, 127
2, 106160, Note_on_c, 1, 66, 127
2, 106160, Note_off_c, 1, 74, 0
2, 106160, Note_on_c, 1, 81, 127
2, 106160, Note_off_c, 1, 86, 0
2, 106200, Note_on_c, 1, 31, 127
2, 106200, Note_on_c, 1, 43, 127
2, 106200, Note_off_c, 1, 54, 0
2, 106200, Note_on_c, 1, 61, 127
2, 106200, Note_on_c, 1, 64, 127
2, 106200, Note_off_c, 1, 66, 0
2, 106200, Note_on_c, 1, 70, 127
2, 106200, Note_off_c, 1, 81, 0
2, 106360, Note_off_c, 1, 31, 0
2, 106360, Note_off_c, 1, 43, 0
2, 106360, Note_off_c, 1, 61, 0
2, 106360, Note_off_c, 1, 64, 0
2, 106360, Note_off_c, 1, 70, 0
2, 106400, Note_on_c, 1, 44, 127
2, 106400, Note_on_c, 1, 56, 127
2, 106400, Note_on_c, 1, 72, 127
2, 106400, Note_on_c, 1, 75, 127
2, 106400, Note_on_c, 1, 84, 127
2, 106640, Note_off_c, 1, 44, 0
2, 106640, Note_off_c, 1, 56, 0
2, 106640, Note_off_c, 1, 72, 0
2, 106640, Note_off_c, 1, 75, 0
2, 106640, Note_off_c, 1, 84, 0
2, 106680, Note_on_c, 1, 44, 127
2, 106680, Note_on_c, 1, 56, 127
2, 106680, Note_on_c, 1, 72, 127
2, 106680, Note_on_c, 1, 75, 127
2, 106680, Note_on_c, 1, 84, 127
2, 106760, Note_off_c, 1, 44, 0
2, 106760, Note_on_c, 1, 48, 127
2, 106760, Note_on_c, 1, 53, 127
2, 106760, Note_on_c, 1, 59, 127
2, 106760, Note_on_c, 1, 62, 127
2, 106760, Note_on_c, 1, 65, 127
2, 106760, Note_on_c, 1, 68, 127
2, 106760, Note_on_c, 1, 71, 127
2, 106760, Note_off_c, 1, 72, 0
2, 106760, Note_on_c, 1, 74, 127
2, 106760, Note_off_c, 1, 75, 0
2, 106760, Note_off_c, 1, 84, 0
2, 106800, Note_on_c, 1, 43, 127
2, 106800, Note_off_c, 1, 48, 0
2, 106800, Note_off_c, 1, 53, 0
2, 106800, Note_on_c, 1, 55, 127
2, 106800, Note_off_c, 1, 56, 0
2, 106800, Note_off_c, 1, 59, 0
2, 106800, Note_off_c, 1, 62, 0
2, 106800, Note_on_c, 1, 64, 127
2, 106800, Note_off_c, 1, 65, 0
2, 106800, Note_off_c, 1, 68, 0
2, 106800, Note_on_c, 1, 70, 127
2, 106800, Note_off_c, 1, 71, 0
2, 106840, Note_off_c, 1, 43, 0
2, 106840, Note_off_c, 1, 55, 0
2, 106840, Note_off_c, 1, 64, 0
2, 106840, Note_off_c, 1, 70, 0
2, 106840, Note_off_c, 1, 74, 0
2, 106840, Note_on_c, 1, 86, 127
2, 106840, Note_on_c, 1, 93, 127
2, 106840, Note_on_c, 1, 98, 127
2, 106840, Note_on_c, 1, 105, 127
2, 108120, Note_off_c, 1, 86, 0
2, 108120, Note_off_c, 1, 93, 0
2, 108120, Note_off_c, 1, 98, 0
2, 108120, Note_off_c, 1, 105, 0
2, 108480, Note_on_c, 1, 43, 127
2, 108480, Note_on_c, 1, 49, 127
2, 108480, Note_on_c, 1, 59, 127
2, 108480, Note_on_c, 1, 61, 127
2, 108640, Note_off_c, 1, 43, 0
2, 108640, Note_off_c, 1, 49, 0
2, 108640, Note_off_c, 1, 59, 0
2, 108640, Note_off_c, 1, 61, 0
2, 108680, Note_on_c, 1, 43, 127
2, 108680, Note_on_c, 1, 49, 127
2, 108680, Note_on_c, 1, 59, 127
2, 108680, Note_on_c, 1, 61, 127
2, 108840, Note_off_c, 1, 43, 0
2, 108880, Note_on_c, 1, 56, 127
2, 108880, Note_off_c, 1, 59, 0
2, 108880, Note_off_c, 1, 61, 0
2, 108880, Note_on_c, 1, 65, 127
2, 108880, Note_on_c, 1, 71, 127
2, 108920, Note_on_c, 1, 41, 127
2, 108920, Note_off_c, 1, 49, 0
2, 108920, Note_off_c, 1, 56, 0
2, 108920, Note_off_c, 1, 65, 0
2, 108920, Note_off_c, 1, 71, 0
2, 108960, Note_off_c, 1, 41, 0
2, 108960, Note_on_c, 1, 68, 127
2, 108960, Note_on_c, 1, 71, 127
2, 108960, Note_on_c, 1, 76, 127
2, 108960, Note_on_c, 1, 88, 127
2, 108960, Note_on_c, 1, 95, 127
2, 109440, Note_on_c, 1, 100, 127
2, 109640, Note_off_c, 1, 68, 0
2, 109640, Note_off_c, 1, 71, 0
2, 109640, Note_off_c, 1, 76, 0
2, 109640, Note_off_c, 1, 88, 0
2, 109640, Note_off_c, 1, 95, 0
2, 109640, Note_off_c, 1, 100, 0
2, 110320, Note_on_c, 1, 47, 127
2, 110320, Note_on_c, 1, 87, 127
2, 110360, Note_on_c, 1, 86, 127
2, 110360, Note_off_c, 1, 87, 0
2, 110400, Note_off_c, 1, 86, 0
2, 110400, Note_on_c, 1, 87, 127
2, 110760, Note_off_c, 1, 47, 0
2, 110760, Note_on_c, 1, 48, 127
2, 110800, Note_on_c, 1, 47, 127
2, 110800, Note_off_c, 1, 48, 0
2, 110800, Note_off_c, 1, 87, 0
2, 110800, Note_on_c, 1, 90, 127
2, 110840, Note_on_c, 1, 87, 127
2, 110840, Note_off_c, 1, 90, 0
2, 110880, Note_on_c, 1, 45, 127
2, 110880, Note_off_c, 1, 47, 0
2, 110880, Note_on_c, 1, 85, 127
2, 110880, Note_off_c, 1, 87, 0
2, 110920, Note_off_c, 1, 45, 0
2, 110920, Note_on_c, 1, 46, 127
2, 110920, Note_off_c, 1, 85, 0
2, 110920, Note_on_c, 1, 90, 127
2, 110960, Note_off_c, 1, 46, 0
2, 110960, Note_on_c, 1, 47, 127
2, 110960, Note_on_c, 1, 86, 127
2, 110960, Note_off_c, 1, 90, 0
2, 111000, Note_off_c, 1, 86, 0
2, 111000, Note_on_c, 1, 88, 127
2, 111040, Note_on_c, 1, 87, 127
2, 111040, Note_off_c, 1, 88, 0
2, 111080, Note_off_c, 1, 47, 0
2, 111080, Note_off_c, 1, 87, 0
2, 111120, Note_on_c, 1, 47, 127
2, 111120, Note_on_c, 1, 87, 127
2, 111200, Note_off_c, 1, 87, 0
2, 111200, Note_on_c, 1, 90, 127
2, 111240, Note_on_c, 1, 40, 127
2, 111240, Note_off_c, 1, 47, 0
2, 111240, Note_on_c, 1, 83, 127
2, 111240, Note_off_c, 1, 90, 0
2, 111280, Note_off_c, 1, 40, 0
2, 111280, Note_on_c, 1, 47, 127
2, 111280, Note_off_c, 1, 83, 0
2, 111280, Note_on_c, 1, 90, 127
2, 111320, Note_on_c, 1, 87, 127
2, 111320, Note_off_c, 1, 90, 0
2, 111520, Note_off_c, 1, 47, 0
2, 111520, Note_on_c, 1, 54, 127
2, 111560, Note_on_c, 1, 53, 127
2, 111560, Note_off_c, 1, 54, 0
2, 111560, Note_off_c, 1, 87, 0
2, 111560, Note_on_c, 1, 90, 127
2, 111600, Note_on_c, 1, 84, 127
2, 111600, Note_off_c, 1, 90, 0
2, 111640, Note_on_c, 1, 45, 127
2, 111640, Note_off_c, 1, 53, 0
2, 111640, Note_off_c, 1, 84, 0
2, 111640, Note_on_c, 1, 90, 127
2, 111680, Note_off_c, 1, 45, 0
2, 111680, Note_on_c, 1, 51, 127
2, 111680, Note_off_c, 1, 90, 0
2, 111680, Note_on_c, 1, 93, 127
2, 111800, Note_on_c, 1, 45, 127
2, 111800, Note_off_c, 1, 51, 0
2, 111800, Note_on_c, 1, 64, 127
2, 111800, Note_on_c, 1, 80, 127
2, 111800, Note_off_c, 1, 93, 0
2, 111840, Note_off_c, 1, 45, 0
2, 111840, Note_on_c, 1, 51, 127
2, 111840, Note_off_c, 1, 64, 0
2, 111840, Note_off_c, 1, 80, 0
2, 111840, Note_on_c, 1, 93, 127
2, 111960, Note_off_c, 1, 51, 0
2, 112000, Note_on_c, 1, 54, 127
2, 112000, Note_off_c, 1, 93, 0
2, 112040, Note_off_c, 1, 54, 0
2, 112040, Note_on_c, 1, 57, 127
2, 112080, Note_off_c, 1, 57, 0
2, 112080, Note_on_c, 1, 60, 127
2, 112120, Note_on_c, 1, 87, 127
2, 112200, Note_on_c, 1, 59, 127
2, 112200, Note_off_c, 1, 60, 0
2, 112200, Note_on_c, 1, 85, 127
2, 112200, Note_off_c, 1, 87, 0
2, 112240, Note_on_c, 1, 57, 127
2, 112240, Note_off_c, 1, 59, 0
2, 112240, Note_off_c, 1, 85, 0
2, 112240, Note_on_c, 1, 88, 127
2, 112280, Note_off_c, 1, 57, 0
2, 112280, Note_on_c, 1, 60, 127
2, 112280, Note_on_c, 1, 84, 127
2, 112280, Note_off_c, 1, 88, 0
2, 112320, Note_off_c, 1, 60, 0
2, 112320, Note_on_c, 1, 66, 127
2, 112320, Note_on_c, 1, 83, 127
2, 112320, Note_off_c, 1, 84, 0
2, 112360, Note_on_c, 1, 60, 127
2, 112360, Note_off_c, 1, 66, 0
2, 112360, Note_off_c, 1, 83, 0
2, 112360, Note_on_c, 1, 87, 127
2, 112400, Note_off_c, 1, 60, 0
2, 112400, Note_on_c, 1, 61, 127
2, 112400, Note_on_c, 1, 85, 127
2, 112400, Note_off_c, 1, 87, 0
2, 112440, Note_off_c, 1, 61, 0
2, 112440, Note_on_c, 1, 62, 127
2, 112480, Note_on_c, 1, 56, 127
2, 112480, Note_off_c, 1, 62, 0
2, 112480, Note_off_c, 1, 85, 0
2, 112480, Note_on_c, 1, 87, 127
2, 112520, Note_off_c, 1, 56, 0
2, 112520, Note_on_c, 1, 57, 127
2, 112520, Note_on_c, 1, 84, 127
2, 112520, Note_off_c, 1, 87, 0
2, 112560, Note_off_c, 1, 57, 0
2, 112560, Note_on_c, 1, 58, 127
2, 112560, Note_off_c, 1, 84, 0
2, 112560, Note_on_c, 1, 85, 127
2, 112600, Note_off_c, 1, 58, 0
2, 112600, Note_on_c, 1, 66, 127
2, 112600, Note_on_c, 1, 83, 127
2, 112600, Note_off_c, 1, 85, 0
2, 112640, Note_on_c, 1, 59, 127
2, 112640, Note_off_c, 1, 66, 0
2, 112680, Note_off_c, 1, 59, 0
2, 112680, Note_on_c, 1, 60, 127
2, 112680, Note_off_c, 1, 83, 0
2, 112680, Note_on_c, 1, 84, 127
2, 112720, Note_off_c, 1, 60, 0
2, 112720, Note_on_c, 1, 64, 127
2, 112760, Note_on_c, 1, 61, 127
2, 112760, Note_off_c, 1, 64, 0
2, 112760, Note_off_c, 1, 84, 0
2, 112760, Note_on_c, 1, 85, 127
2, 112800, Note_on_c, 1, 60, 127
2, 112800, Note_off_c, 1, 61, 0
2, 112800, Note_off_c, 1, 85, 0
2, 112840, Note_on_c, 1, 58, 127
2, 112840, Note_off_c, 1, 60, 0
2, 112840, Note_on_c, 1, 85, 127
2, 112880, Note_off_c, 1, 58, 0
2, 112880, Note_on_c, 1, 64, 127
2, 112880, Note_on_c, 1, 83, 127
2, 112880, Note_off_c, 1, 85, 0
2, 112920, Note_on_c, 1, 61, 127
2, 112920, Note_off_c, 1, 64, 0
2, 112920, Note_off_c, 1, 83, 0
2, 112920, Note_on_c, 1, 85, 127
2, 112960, Note_on_c, 1, 83, 127
2, 112960, Note_off_c, 1, 85, 0
2, 113000, Note_off_c, 1, 61, 0
2, 113000, Note_on_c, 1, 63, 127
2, 113000, Note_on_c, 1, 82, 127
2, 113000, Note_off_c, 1, 83, 0
2, 113040, Note_off_c, 1, 63, 0
2, 113040, Note_on_c, 1, 66, 127
2, 113040, Note_off_c, 1, 82, 0
2, 113040, Note_on_c, 1, 83, 127
2, 113080, Note_on_c, 1, 47, 127
2, 113080, Note_off_c, 1, 66, 0
2, 113080, Note_off_c, 1, 83, 0
2, 113080, Note_on_c, 1, 85, 127
2, 113120, Note_off_c, 1, 47, 0
2, 113120, Note_on_c, 1, 58, 127
2, 113120, Note_on_c, 1, 82, 127
2, 113120, Note_off_c, 1, 85, 0
2, 113160, Note_off_c, 1, 58, 0
2, 113160, Note_on_c, 1, 64, 127
2, 113160, Note_on_c, 1, 78, 127
2, 113160, Note_off_c, 1, 82, 0
2, 113200, Note_off_c, 1, 64, 0
2, 113200, Note_on_c, 1, 66, 127
2, 113240, Note_off_c, 1, 66, 0
2, 113240, Note_off_c, 1, 78, 0
2, 113280, Note_on_c, 1, 61, 127
2, 113280, Note_on_c, 1, 82, 127
2, 113320, Note_on_c, 1, 57, 127
2, 113320, Note_off_c, 1, 61, 0
2, 113320, Note_off_c, 1, 82, 0
2, 113320, Note_on_c, 1, 84, 127
2, 113360, Note_off_c, 1, 57, 0
2, 113360, Note_on_c, 1, 61, 127
2, 113360, Note_on_c, 1, 80, 127
2, 113360, Note_off_c, 1, 84, 0
2, 113400, Note_on_c, 1, 60, 127
2, 113400, Note_off_c, 1, 61, 0
2, 113400, Note_off_c, 1, 80, 0
2, 113400, Note_on_c, 1, 81, 127
2, 113440, Note_on_c, 1, 33, 127
2, 113440, Note_on_c, 1, 45, 127
2, 113440, Note_off_c, 1, 60, 0
2, 113440, Note_off_c, 1, 81, 0
2, 113440, Note_on_c, 1, 89, 127
2, 113480, Note_off_c, 1, 33, 0
2, 113480, Note_off_c, 1, 45, 0
2, 113480, Note_on_c, 1, 60, 127
2, 113480, Note_on_c, 1, 78, 127
2, 113480, Note_off_c, 1, 89, 0
2, 113520, Note_off_c, 1, 60, 0
2, 113520, Note_on_c, 1, 61, 127
2, 113560, Note_on_c, 1, 54, 127
2, 113560, Note_off_c, 1, 61, 0
2, 113560, Note_on_c, 1, 75, 127
2, 113560, Note_off_c, 1, 78, 0
2, 113600, Note_off_c, 1, 54, 0
2, 113600, Note_on_c, 1, 57, 127
2, 113600, Note_off_c, 1, 75, 0
2, 113600, Note_on_c, 1, 78, 127
2, 113640, Note_on_c, 1, 54, 127
2, 113640, Note_off_c, 1, 57, 0
2, 113640, Note_off_c, 1, 78, 0
2, 113640, Note_on_c, 1, 81, 127
2, 113680, Note_on_c, 1, 78, 127
2, 113680, Note_off_c, 1, 81, 0
2, 113720, Note_off_c, 1, 54, 0
2, 113720, Note_on_c, 1, 61, 127
2, 113760, Note_on_c, 1, 56, 127
2, 113760, Note_off_c, 1, 61, 0
2, 113760, Note_off_c, 1, 78, 0
2, 113760, Note_on_c, 1, 88, 127
2, 113800, Note_off_c, 1, 56, 0
2, 113800, Note_on_c, 1, 57, 127
2, 113800, Note_off_c, 1, 88, 0
2, 113800, Note_on_c, 1, 90, 127
2, 113880, Note_off_c, 1, 57, 0
2, 113880, Note_on_c, 1, 61, 127
2, 113880, Note_on_c, 1, 78, 127
2, 113880, Note_off_c, 1, 90, 0
2, 113920, Note_off_c, 1, 78, 0
2, 113920, Note_on_c, 1, 82, 127
2, 113960, Note_on_c, 1, 78, 127
2, 113960, Note_off_c, 1, 82, 0
2, 114000, Note_on_c, 1, 57, 127
2, 114000, Note_off_c, 1, 61, 0
2, 114040, Note_on_c, 1, 54, 127
2, 114040, Note_off_c, 1, 57, 0
2, 114040, Note_off_c, 1, 78, 0
2, 114040, Note_on_c, 1, 81, 127
2, 114200, Note_on_c, 1, 78, 127
2, 114200, Note_off_c, 1, 81, 0
2, 114240, Note_off_c, 1, 78, 0
2, 114240, Note_on_c, 1, 83, 127
2, 114280, Note_off_c, 1, 54, 0
2, 114280, Note_on_c, 1, 60, 127
2, 114280, Note_on_c, 1, 80, 127
2, 114280, Note_off_c, 1, 83, 0
2, 114320, Note_on_c, 1, 54, 127
2, 114320, Note_off_c, 1, 60, 0
2, 114320, Note_off_c, 1, 80, 0
2, 114320, Note_on_c, 1, 83, 127
2, 114360, Note_off_c, 1, 54, 0
2, 114360, Note_on_c, 1, 61, 127
2, 114360, Note_on_c, 1, 80, 127
2, 114360, Note_off_c, 1, 83, 0
2, 114400, Note_off_c, 1, 80, 0
2, 114400, Note_on_c, 1, 84, 127
2, 114440, Note_off_c, 1, 61, 0
2, 114440, Note_on_c, 1, 66, 127
2, 114440, Note_on_c, 1, 83, 127
2, 114440, Note_off_c, 1, 84, 0
2, 114480, Note_on_c, 1, 61, 127
2, 114480, Note_off_c, 1, 66, 0
2, 114480, Note_on_c, 1, 73, 127
2, 114480, Note_on_c, 1, 81, 127
2, 114480, Note_off_c, 1, 83, 0
2, 114520, Note_off_c, 1, 73, 0
2, 114560, Note_on_c, 1, 56, 127
2, 114560, Note_off_c, 1, 61, 0
2, 114560, Note_on_c, 1, 63, 127
2, 114560, Note_on_c, 1, 66, 127
2, 114560, Note_on_c, 1, 70, 127
2, 114560, Note_on_c, 1, 75, 127
2, 114560, Note_off_c, 1, 81, 0
2, 114600, Note_on_c, 1, 51, 127
2, 114600, Note_off_c, 1, 56, 0
2, 114600, Note_off_c, 1, 63, 0
2, 114600, Note_off_c, 1, 66, 0
2, 114600, Note_off_c, 1, 70, 0
2, 114600, Note_off_c, 1, 75, 0
2, 114600, Note_on_c, 1, 84, 127
2, 114640, Note_off_c, 1, 51, 0
2, 114640, Note_on_c, 1, 53, 127
2, 114640, Note_on_c, 1, 81, 127
2, 114640, Note_off_c, 1, 84, 0
2, 114680, Note_on_c, 1, 42, 127
2, 114680, Note_off_c, 1, 53, 0
2, 114680, Note_off_c, 1, 81, 0
2, 114680, Note_on_c, 1, 95, 127
2, 114720, Note_off_c, 1, 42, 0
2, 114720, Note_on_c, 1, 80, 127
2, 114720, Note_on_c, 1, 92, 127
2, 114720, Note_off_c, 1, 95, 0
2, 114760, Note_on_c, 1, 49, 127
2, 114760, Note_off_c, 1, 80, 0
2, 114760, Note_off_c, 1, 92, 0
2, 114760, Note_on_c, 1, 93, 127
2, 114800, Note_off_c, 1, 49, 0
2, 114800, Note_on_c, 1, 52, 127
2, 114800, Note_on_c, 1, 55, 127
2, 114800, Note_on_c, 1, 58, 127
2, 114800, Note_on_c, 1, 60, 127
2, 114800, Note_on_c, 1, 82, 127
2, 114800, Note_on_c, 1, 86, 127
2, 114800, Note_off_c, 1, 93, 0
2, 114840, Note_on_c, 1, 48, 127
2, 114840, Note_off_c, 1, 52, 0
2, 114840, Note_off_c, 1, 55, 0
2, 114840, Note_on_c, 1, 56, 127
2, 114840, Note_off_c, 1, 58, 0
2, 114840, Note_off_c, 1, 60, 0
2, 114840, Note_on_c, 1, 63, 127
2, 114840, Note_on_c, 1, 79, 127
2, 114840, Note_off_c, 1, 82, 0
2, 114840, Note_off_c, 1, 86, 0
2, 114840, Note_on_c, 1, 91, 127
2, 114880, Note_off_c, 1, 48, 0
2, 114880, Note_on_c, 1, 50, 127
2, 114880, Note_off_c, 1, 56, 0
2, 114880, Note_on_c, 1, 57, 127
2, 114880, Note_off_c, 1, 63, 0
2, 114880, Note_on_c, 1, 66, 127
2, 114880, Note_off_c, 1, 79, 0
2, 114880, Note_on_c, 1, 86, 127
2, 114880, Note_off_c, 1, 91, 0
2, 114880, Note_on_c, 1, 98, 127
2, 114920, Note_on_c, 1, 45, 127
2, 114920, Note_on_c, 1, 48, 127
2, 114920, Note_off_c, 1, 50, 0
2, 114920, Note_on_c, 1, 53, 127
2, 114920, Note_on_c, 1, 64, 127
2, 114920, Note_off_c, 1, 66, 0
2, 114920, Note_on_c, 1, 76, 127
2, 114920, Note_off_c, 1, 86, 0
2, 114920, Note_off_c, 1, 98, 0
2, 114960, Note_off_c, 1, 45, 0
2, 114960, Note_off_c, 1, 48, 0
2, 114960, Note_on_c, 1, 51, 127
2, 114960, Note_off_c, 1, 53, 0
2, 114960, Note_on_c, 1, 55, 127
2, 114960, Note_off_c, 1, 57, 0
2, 114960, Note_on_c, 1, 61, 127
2, 114960, Note_on_c, 1, 63, 127
2, 114960, Note_off_c, 1, 64, 0
2, 114960, Note_on_c, 1, 75, 127
2, 114960, Note_off_c, 1, 76, 0
2, 115000, Note_on_c, 1, 33, 127
2, 115000, Note_off_c, 1, 51, 0
2, 115000, Note_off_c, 1, 55, 0
2, 115000, Note_on_c, 1, 57, 127
2, 115000, Note_off_c, 1, 61, 0
2, 115000, Note_off_c, 1, 63, 0
2, 115000, Note_off_c, 1, 75, 0
2, 115000, Note_on_c, 1, 93, 127
2, 115000, Note_on_c, 1, 94, 127
2, 115040, Note_off_c, 1, 33, 0
2, 115040, Note_off_c, 1, 57, 0
2, 115040, Note_on_c, 1, 69, 127
2, 115040, Note_on_c, 1, 71, 127
2, 115040, Note_on_c, 1, 85, 127
2, 115040, Note_off_c, 1, 93, 0
2, 115040, Note_off_c, 1, 94, 0
2, 115080, Note_on_c, 1, 64, 127
2, 115080, Note_off_c, 1, 69, 0
2, 115080, Note_off_c, 1, 71, 0
2, 115080, Note_on_c, 1, 73, 127
2, 115080, Note_on_c, 1, 81, 127
2, 115120, Note_on_c, 1, 47, 127
2, 115120, Note_on_c, 1, 51, 127
2, 115120, Note_on_c, 1, 56, 127
2, 115120, Note_on_c, 1, 59, 127
2, 115120, Note_off_c, 1, 64, 0
2, 115120, Note_off_c, 1, 73, 0
2, 115120, Note_on_c, 1, 80, 127
2, 115120, Note_off_c, 1, 81, 0
2, 115120, Note_off_c, 1, 85, 0
2, 115160, Note_off_c, 1, 47, 0
2, 115160, Note_off_c, 1, 51, 0
2, 115160, Note_off_c, 1, 56, 0
2, 115160, Note_off_c, 1, 59, 0
2, 115160, Note_on_c, 1, 66, 127
2, 115160, Note_on_c, 1, 73, 127
2, 115160, Note_off_c, 1, 80, 0
2, 115160, Note_on_c, 1, 88, 127
2, 115200, Note_off_c, 1, 66, 0
2, 115200, Note_on_c, 1, 70, 127
2, 115200, Note_off_c, 1, 73, 0
2, 115200, Note_on_c, 1, 74, 127
2, 115200, Note_on_c, 1, 79, 127
2, 115200, Note_on_c, 1, 82, 127
2, 115200, Note_on_c, 1, 86, 127
2, 115200, Note_off_c, 1, 88, 0
2, 115200, Note_on_c, 1, 91, 127
2, 115240, Note_on_c, 1, 36, 127
2, 115240, Note_on_c, 1, 37, 127
2, 115240, Note_on_c, 1, 45, 127
2, 115240, Note_on_c, 1, 48, 127
2, 115240, Note_on_c, 1, 49, 127
2, 115240, Note_off_c, 1, 70, 0
2, 115240, Note_off_c, 1, 74, 0
2, 115240, Note_off_c, 1, 79, 0
2, 115240, Note_off_c, 1, 82, 0
2, 115240, Note_off_c, 1, 86, 0
2, 115240, Note_off_c, 1, 91, 0
2, 115280, Note_off_c, 1, 36, 0
2, 115280, Note_off_c, 1, 37, 0
2, 115280, Note_off_c, 1, 45, 0
2, 115280, Note_off_c, 1, 48, 0
2, 115280, Note_off_c, 1, 49, 0
2, 115280, Note_on_c, 1, 59, 127
2, 115280, Note_on_c, 1, 95, 127
2, 115280, Note_on_c, 1, 97, 127
2, 115320, Note_off_c, 1, 59, 0
2, 115320, Note_on_c, 1, 64, 127
2, 115320, Note_on_c, 1, 71, 127
2, 115320, Note_on_c, 1, 74, 127
2, 115320, Note_off_c, 1, 97, 0
2, 115360, Note_off_c, 1, 64, 0
2, 115360, Note_off_c, 1, 71, 0
2, 115360, Note_off_c, 1, 74, 0
2, 115360, Note_on_c, 1, 97, 127
2, 115400, Note_on_c, 1, 40, 127
2, 115400, Note_on_c, 1, 52, 127
2, 115400, Note_on_c, 1, 68, 127
2, 115400, Note_on_c, 1, 75, 127
2, 115400, Note_on_c, 1, 78, 127
2, 115400, Note_off_c, 1, 95, 0
2, 115400, Note_off_c, 1, 97, 0
2, 115440, Note_off_c, 1, 40, 0
2, 115440, Note_off_c, 1, 52, 0
2, 115440, Note_off_c, 1, 68, 0
2, 115440, Note_off_c, 1, 75, 0
2, 115440, Note_off_c, 1, 78, 0
2, 115480, Note_on_c, 1, 95, 127
2, 115480, Note_on_c, 1, 97, 127
2, 115520, Note_on_c, 1, 52, 127
2, 115520, Note_on_c, 1, 60, 127
2, 115520, Note_on_c, 1, 66, 127
2, 115520, Note_on_c, 1, 68, 127
2, 115520, Note_off_c, 1, 95, 0
2, 115520, Note_off_c, 1, 97, 0
2, 115560, Note_off_c, 1, 52, 0
2, 115560, Note_off_c, 1, 60, 0
2, 115560, Note_on_c, 1, 64, 127
2, 115560, Note_off_c, 1, 66, 0
2, 115560, Note_on_c, 1, 71, 127
2, 115560, Note_on_c, 1, 76, 127
2, 115560, Note_on_c, 1, 83, 127
2, 115600, Note_off_c, 1, 64, 0
2, 115600, Note_off_c, 1, 68, 0
2, 115600, Note_off_c, 1, 71, 0
2, 115600, Note_off_c, 1, 76, 0
2, 115600, Note_off_c, 1, 83, 0
2, 115600, Note_on_c, 1, 88, 127
2, 115600, Note_on_c, 1, 92, 127
2, 115640, Note_on_c, 1, 38, 127
2, 115640, Note_off_c, 1, 88, 0
2, 115640, Note_off_c, 1, 92, 0
2, 115640, Note_on_c, 1, 95, 127
2, 115680, Note_off_c, 1, 38, 0
2, 115680, Note_on_c, 1, 93, 127
2, 115720, Note_on_c, 1, 62, 127
2, 115720, Note_off_c, 1, 93, 0
2, 115720, Note_off_c, 1, 95, 0
2, 115720, Note_on_c, 1, 102, 127
2, 115760, Note_on_c, 1, 54, 127
2, 115760, Note_off_c, 1, 62, 0
2, 115760, Note_on_c, 1, 97, 127
2, 115760, Note_off_c, 1, 102, 0
2, 115800, Note_off_c, 1, 54, 0
2, 115800, Note_on_c, 1, 61, 127
2, 115800, Note_off_c, 1, 97, 0
2, 115840, Note_on_c, 1, 59, 127
2, 115840, Note_off_c, 1, 61, 0
2, 115840, Note_on_c, 1, 85, 127
2, 115880, Note_on_c, 1, 52, 127
2, 115880, Note_off_c, 1, 59, 0
2, 115880, Note_on_c, 1, 80, 127
2, 115920, Note_off_c, 1, 52, 0
2, 115920, Note_on_c, 1, 56, 127
2, 115920, Note_off_c, 1, 80, 0
2, 115920, Note_off_c, 1, 85, 0
2, 115920, Note_on_c, 1, 92, 127
2, 115960, Note_on_c, 1, 45, 127
2, 115960, Note_off_c, 1, 56, 0
2, 115960, Note_on_c, 1, 85, 127
2, 115960, Note_off_c, 1, 92, 0
2, 116000, Note_off_c, 1, 45, 0
2, 116000, Note_on_c, 1, 83, 127
2, 116040, Note_on_c, 1, 61, 127
2, 116040, Note_on_c, 1, 80, 127
2, 116040, Note_off_c, 1, 83, 0
2, 116040, Note_off_c, 1, 85, 0
2, 116080, Note_on_c, 1, 35, 127
2, 116080, Note_off_c, 1, 61, 0
2, 116080, Note_on_c, 1, 66, 127
2, 116080, Note_on_c, 1, 71, 127
2, 116080, Note_on_c, 1, 75, 127
2, 116080, Note_off_c, 1, 80, 0
2, 116120, Note_off_c, 1, 35, 0
2, 116120, Note_on_c, 1, 57, 127
2, 116120, Note_off_c, 1, 71, 0
2, 116120, Note_on_c, 1, 73, 127
2, 116120, Note_off_c, 1, 75, 0
2, 116120, Note_on_c, 1, 78, 127
2, 116160, Note_off_c, 1, 57, 0
2, 116160, Note_on_c, 1, 64, 127
2, 116160, Note_off_c, 1, 66, 0
2, 116160, Note_off_c, 1, 73, 0
2, 116160, Note_on_c, 1, 76, 127
2, 116160, Note_off_c, 1, 78, 0
2, 116160, Note_on_c, 1, 83, 127
2, 116200, Note_on_c, 1, 59, 127
2, 116200, Note_off_c, 1, 64, 0
2, 116200, Note_on_c, 1, 73, 127
2, 116200, Note_off_c, 1, 83, 0
2, 116240, Note_on_c, 1, 63, 127
2, 116240, Note_off_c, 1, 73, 0
2, 116240, Note_off_c, 1, 76, 0
2, 116240, Note_on_c, 1, 78, 127
2, 116240, Note_on_c, 1, 87, 127
2, 116280, Note_off_c, 1, 63, 0
2, 116280, Note_on_c, 1, 75, 127
2, 116280, Note_off_c, 1, 87, 0
2, 116320, Note_off_c, 1, 75, 0
2, 116320, Note_on_c, 1, 81, 127
2, 116360, Note_on_c, 1, 52, 127
2, 116360, Note_off_c, 1, 59, 0
2, 116360, Note_on_c, 1, 68, 127
2, 116360, Note_on_c, 1, 71, 127
2, 116360, Note_off_c, 1, 78, 0
2, 116360, Note_on_c, 1, 80, 127
2, 116360, Note_off_c, 1, 81, 0
2, 116400, Note_off_c, 1, 52, 0
2, 116400, Note_on_c, 1, 59, 127
2, 116400, Note_on_c, 1, 66, 127
2, 116400, Note_off_c, 1, 68, 0
2, 116400, Note_off_c, 1, 71, 0
2, 116400, Note_off_c, 1, 80, 0
2, 116440, Note_on_c, 1, 38, 127
2, 116440, Note_on_c, 1, 50, 127
2, 116440, Note_on_c, 1, 55, 127
2, 116440, Note_on_c, 1, 62, 127
2, 116440, Note_off_c, 1, 66, 0
2, 116440, Note_on_c, 1, 67, 127
2, 116440, Note_on_c, 1, 71, 127
2, 116440, Note_on_c, 1, 74, 127
2, 116440, Note_on_c, 1, 79, 127
2, 116480, Note_off_c, 1, 38, 0
2, 116480, Note_off_c, 1, 50, 0
2, 116480, Note_off_c, 1, 55, 0
2, 116480, Note_off_c, 1, 59, 0
2, 116480, Note_off_c, 1, 62, 0
2, 116480, Note_on_c, 1, 64, 127
2, 116480, Note_off_c, 1, 67, 0
2, 116480, Note_on_c, 1, 69, 127
2, 116480, Note_off_c, 1, 71, 0
2, 116480, Note_off_c, 1, 74, 0
2, 116480, Note_off_c, 1, 79, 0
2, 116480, Note_on_c, 1, 85, 127
2, 116520, Note_on_c, 1, 45, 127
2, 116520, Note_on_c, 1, 52, 127
2, 116520, Note_on_c, 1, 61, 127
2, 116520, Note_off_c, 1, 64, 0
2, 116520, Note_off_c, 1, 69, 0
2, 116520, Note_on_c, 1, 79, 127
2, 116520, Note_on_c, 1, 81, 127
2, 116520, Note_off_c, 1, 85, 0
2, 116520, Note_on_c, 1, 93, 127
2, 116560, Note_on_c, 1, 33, 127
2, 116560, Note_on_c, 1, 40, 127
2, 116560, Note_off_c, 1, 45, 0
2, 116560, Note_off_c, 1, 52, 0
2, 116560, Note_off_c, 1, 61, 0
2, 116560, Note_on_c, 1, 64, 127
2, 116560, Note_on_c, 1, 66, 127
2, 116560, Note_on_c, 1, 69, 127
2, 116560, Note_on_c, 1, 72, 127
2, 116560, Note_off_c, 1, 79, 0
2, 116560, Note_off_c, 1, 81, 0
2, 116560, Note_off_c, 1, 93, 0
2, 116600, Note_on_c, 1, 31, 127
2, 116600, Note_off_c, 1, 33, 0
2, 116600, Note_off_c, 1, 40, 0
2, 116600, Note_off_c, 1, 64, 0
2, 116600, Note_off_c, 1, 66, 0
2, 116600, Note_off_c, 1, 69, 0
2, 116600, Note_on_c, 1, 82, 127
2, 116640, Note_off_c, 1, 31, 0
2, 116640, Note_on_c, 1, 40, 127
2, 116640, Note_on_c, 1, 51, 127
2, 116640, Note_on_c, 1, 56, 127
2, 116640, Note_off_c, 1, 72, 0
2, 116640, Note_off_c, 1, 82, 0
2, 116680, Note_off_c, 1, 40, 0
2, 116680, Note_on_c, 1, 47, 127
2, 116680, Note_off_c, 1, 51, 0
2, 116680, Note_on_c, 1, 64, 127
2, 116720, Note_on_c, 1, 35, 127
2, 116720, Note_off_c, 1, 56, 0
2, 116720, Note_on_c, 1, 57, 127
2, 116760, Note_off_c, 1, 35, 0
2, 116760, Note_on_c, 1, 40, 127
2, 116760, Note_off_c, 1, 47, 0
2, 116760, Note_on_c, 1, 52, 127
2, 116760, Note_off_c, 1, 57, 0
2, 116760, Note_on_c, 1, 59, 127
2, 116760, Note_on_c, 1, 62, 127
2, 116760, Note_off_c, 1, 64, 0
2, 116760, Note_on_c, 1, 68, 127
2, 116760, Note_on_c, 1, 71, 127
2, 116760, Note_on_c, 1, 74, 127
2, 116800, Note_on_c, 1, 47, 127
2, 116800, Note_off_c, 1, 52, 0
2, 116800, Note_off_c, 1, 59, 0
2, 116800, Note_off_c, 1, 62, 0
2, 116800, Note_off_c, 1, 68, 0
2, 116800, Note_off_c, 1, 71, 0
2, 116800, Note_off_c, 1, 74, 0
2, 116880, Note_off_c, 1, 40, 0
2, 116880, Note_on_c, 1, 43, 127
2, 116880, Note_off_c, 1, 47, 0
2, 116880, Note_on_c, 1, 50, 127
2, 116880, Note_on_c, 1, 55, 127
2, 116880, Note_on_c, 1, 82, 127
2, 116920, Note_off_c, 1, 43, 0
2, 116920, Note_on_c, 1, 47, 127
2, 116920, Note_off_c, 1, 50, 0
2, 116920, Note_on_c, 1, 54, 127
2, 116920, Note_off_c, 1, 55, 0
2, 116920, Note_on_c, 1, 58, 127
2, 116920, Note_off_c, 1, 82, 0
2, 116960, Note_on_c, 1, 33, 127
2, 116960, Note_on_c, 1, 40, 127
2, 116960, Note_off_c, 1, 47, 0
2, 116960, Note_off_c, 1, 54, 0
2, 116960, Note_off_c, 1, 58, 0
2, 116960, Note_on_c, 1, 72, 127
2, 116960, Note_on_c, 1, 75, 127
2, 116960, Note_on_c, 1, 78, 127
2, 117000, Note_off_c, 1, 33, 0
2, 117000, Note_off_c, 1, 40, 0
2, 117000, Note_on_c, 1, 47, 127
2, 117000, Note_on_c, 1, 59, 127
2, 117000, Note_on_c, 1, 67, 127
2, 117000, Note_off_c, 1, 72, 0
2, 117000, Note_off_c, 1, 78, 0
2, 117040, Note_off_c, 1, 47, 0
2, 117040, Note_on_c, 1, 52, 127
2, 117040, Note_on_c, 1, 56, 127
2, 117040, Note_on_c, 1, 61, 127
2, 117040, Note_off_c, 1, 67, 0
2, 117040, Note_off_c, 1, 75, 0
2, 117040, Note_on_c, 1, 88, 127
2, 117080, Note_on_c, 1, 41, 127
2, 117080, Note_off_c, 1, 52, 0
2, 117080, Note_off_c, 1, 56, 0
2, 117080, Note_off_c, 1, 59, 0
2, 117080, Note_off_c, 1, 61, 0
2, 117080, Note_on_c, 1, 63, 127
2, 117080, Note_on_c, 1, 65, 127
2, 117080, Note_on_c, 1, 67, 127
2, 117080, Note_on_c, 1, 69, 127
2, 117080, Note_off_c, 1, 88, 0
2, 117120, Note_off_c, 1, 41, 0
2, 117120, Note_off_c, 1, 63, 0
2, 117120, Note_off_c, 1, 65, 0
2, 117120, Note_on_c, 1, 66, 127
2, 117120, Note_off_c, 1, 67, 0
2, 117120, Note_off_c, 1, 69, 0
2, 117120, Note_on_c, 1, 71, 127
2, 117120, Note_on_c, 1, 75, 127
2, 117120, Note_on_c, 1, 94, 127
2, 117160, Note_on_c, 1, 55, 127
2, 117160, Note_off_c, 1, 66, 0
2, 117160, Note_on_c, 1, 69, 127
2, 117160, Note_off_c, 1, 71, 0
2, 117160, Note_on_c, 1, 77, 127
2, 117160, Note_on_c, 1, 81, 127
2, 117160, Note_off_c, 1, 94, 0
2, 117200, Note_on_c, 1, 47, 127
2, 117200, Note_on_c, 1, 54, 127
2, 117200, Note_off_c, 1, 55, 0
2, 117200, Note_on_c, 1, 57, 127
2, 117200, Note_on_c, 1, 59, 127
2, 117200, Note_off_c, 1, 69, 0
2, 117200, Note_off_c, 1, 75, 0
2, 117200, Note_off_c, 1, 77, 0
2, 117200, Note_off_c, 1, 81, 0
2, 117240, Note_on_c, 1, 32, 127
2, 117240, Note_off_c, 1, 47, 0
2, 117240, Note_on_c, 1, 52, 127
2, 117240, Note_off_c, 1, 54, 0
2, 117240, Note_on_c, 1, 55, 127
2, 117240, Note_off_c, 1, 57, 0
2, 117240, Note_on_c, 1, 58, 127
2, 117240, Note_off_c, 1, 59, 0
2, 117280, Note_off_c, 1, 32, 0
2, 117280, Note_off_c, 1, 52, 0
2, 117280, Note_off_c, 1, 55, 0
2, 117280, Note_off_c, 1, 58, 0
2, 117280, Note_on_c, 1, 95, 127
2, 117280, Note_on_c, 1, 97, 127
2, 117320, Note_on_c, 1, 72, 127
2, 117320, Note_off_c, 1, 95, 0
2, 117320, Note_off_c, 1, 97, 0
2, 117320, Note_on_c, 1, 105, 127
2, 117360, Note_on_c, 1, 59, 127
2, 117360, Note_on_c, 1, 64, 127
2, 117360, Note_on_c, 1, 68, 127
2, 117360, Note_off_c, 1, 72, 0
2, 117360, Note_on_c, 1, 97, 127
2, 117360, Note_off_c, 1, 105, 0
2, 117400, Note_off_c, 1, 64, 0
2, 117400, Note_on_c, 1, 92, 127
2, 117400, Note_on_c, 1, 95, 127
2, 117400, Note_off_c, 1, 97, 0
2, 117440, Note_on_c, 1, 35, 127
2, 117440, Note_on_c, 1, 51, 127
2, 117440, Note_on_c, 1, 53, 127
2, 117440, Note_on_c, 1, 57, 127
2, 117440, Note_off_c, 1, 68, 0
2, 117440, Note_off_c, 1, 92, 0
2, 117440, Note_off_c, 1, 95, 0
2, 117480, Note_off_c, 1, 35, 0
2, 117480, Note_off_c, 1, 51, 0
2, 117480, Note_off_c, 1, 53, 0
2, 117480, Note_off_c, 1, 57, 0
2, 117480, Note_off_c, 1, 59, 0
2, 117480, Note_on_c, 1, 70, 127
2, 117480, Note_on_c, 1, 77, 127
2, 117480, Note_on_c, 1, 80, 127
2, 117480, Note_on_c, 1, 84, 127
2, 117520, Note_off_c, 1, 70, 0
2, 117520, Note_off_c, 1, 77, 0
2, 117520, Note_off_c, 1, 80, 0
2, 117520, Note_off_c, 1, 84, 0
2, 117520, Note_on_c, 1, 92, 127
2, 117520, Note_on_c, 1, 101, 127
2, 117560, Note_on_c, 1, 55, 127
2, 117560, Note_on_c, 1, 58, 127
2, 117560, Note_on_c, 1, 72, 127
2, 117560, Note_on_c, 1, 79, 127
2, 117560, Note_on_c, 1, 84, 127
2, 117560, Note_off_c, 1, 92, 0
2, 117560, Note_off_c, 1, 101, 0
2, 117600, Note_off_c, 1, 55, 0
2, 117600, Note_off_c, 1, 58, 0
2, 117600, Note_off_c, 1, 72, 0
2, 117600, Note_off_c, 1, 79, 0
2, 117600, Note_off_c, 1, 84, 0
2, 117640, Note_on_c, 1, 48, 127
2, 117640, Note_on_c, 1, 58, 127
2, 117640, Note_on_c, 1, 64, 127
2, 117640, Note_on_c, 1, 70, 127
2, 117640, Note_on_c, 1, 76, 127
2, 117680, Note_on_c, 1, 41, 127
2, 117680, Note_off_c, 1, 48, 0
2, 117680, Note_on_c, 1, 53, 127
2, 117680, Note_off_c, 1, 58, 0
2, 117680, Note_off_c, 1, 64, 0
2, 117680, Note_off_c, 1, 70, 0
2, 117680, Note_on_c, 1, 72, 127
2, 117680, Note_off_c, 1, 76, 0
2, 117680, Note_on_c, 1, 79, 127
2, 117680, Note_on_c, 1, 82, 127
2, 117680, Note_on_c, 1, 84, 127
2, 117720, Note_off_c, 1, 41, 0
2, 117720, Note_on_c, 1, 47, 127
2, 117720, Note_on_c, 1, 52, 127
2, 117720, Note_off_c, 1, 53, 0
2, 117720, Note_on_c, 1, 64, 127
2, 117720, Note_off_c, 1, 72, 0
2, 117720, Note_off_c, 1, 79, 0
2, 117720, Note_off_c, 1, 82, 0
2, 117720, Note_on_c, 1, 83, 127
2, 117720, Note_off_c, 1, 84, 0
2, 117720, Note_on_c, 1, 92, 127
2, 117720, Note_on_c, 1, 95, 127
2, 117760, Note_on_c, 1, 37, 127
2, 117760, Note_off_c, 1, 47, 0
2, 117760, Note_off_c, 1, 52, 0
2, 117760, Note_off_c, 1, 64, 0
2, 117760, Note_off_c, 1, 83, 0
2, 117760, Note_off_c, 1, 92, 0
2, 117760, Note_off_c, 1, 95, 0
2, 117760, Note_on_c, 1, 97, 127
2, 117800, Note_off_c, 1, 37, 0
2, 117800, Note_on_c, 1, 47, 127
2, 117800, Note_on_c, 1, 49, 127
2, 117800, Note_on_c, 1, 52, 127
2, 117800, Note_on_c, 1, 54, 127
2, 117800, Note_on_c, 1, 58, 127
2, 117800, Note_on_c, 1, 76, 127
2, 117800, Note_off_c, 1, 97, 0
2, 117840, Note_off_c, 1, 47, 0
2, 117840, Note_off_c, 1, 49, 0
2, 117840, Note_off_c, 1, 52, 0
2, 117840, Note_off_c, 1, 58, 0
2, 117840, Note_on_c, 1, 73, 127
2, 117840, Note_off_c, 1, 76, 0
2, 117840, Note_on_c, 1, 78, 127
2, 117880, Note_off_c, 1, 54, 0
2, 117880, Note_on_c, 1, 61, 127
2, 117880, Note_on_c, 1, 64, 127
2, 117880, Note_on_c, 1, 69, 127
2, 117880, Note_off_c, 1, 78, 0
2, 117880, Note_on_c, 1, 81, 127
2, 117880, Note_on_c, 1, 93, 127
2, 117920, Note_on_c, 1, 49, 127
2, 117920, Note_off_c, 1, 61, 0
2, 117920, Note_off_c, 1, 64, 0
2, 117920, Note_off_c, 1, 69, 0
2, 117920, Note_off_c, 1, 73, 0
2, 117920, Note_off_c, 1, 81, 0
2, 117920, Note_on_c, 1, 87, 127
2, 117920, Note_off_c, 1, 93, 0
2, 117920, Note_on_c, 1, 99, 127
2, 117960, Note_off_c, 1, 49, 0
2, 117960, Note_on_c, 1, 56, 127
2, 117960, Note_on_c, 1, 80, 127
2, 117960, Note_on_c, 1, 90, 127
2, 117960, Note_on_c, 1, 92, 127
2, 117960, Note_off_c, 1, 99, 0
2, 118000, Note_off_c, 1, 56, 0
2, 118000, Note_on_c, 1, 72, 127
2, 118000, Note_off_c, 1, 80, 0
2, 118000, Note_on_c, 1, 86, 127
2, 118000, Note_off_c, 1, 87, 0
2, 118000, Note_off_c, 1, 90, 0
2, 118000, Note_off_c, 1, 92, 0
2, 118000, Note_on_c, 1, 98, 127
2, 118000, Note_on_c, 1, 99, 127
2, 118040, Note_on_c, 1, 70, 127
2, 118040, Note_off_c, 1, 72, 0
2, 118040, Note_off_c, 1, 86, 0
2, 118040, Note_on_c, 1, 89, 127
2, 118040, Note_on_c, 1, 94, 127
2, 118040, Note_off_c, 1, 98, 0
2, 118040, Note_off_c, 1, 99, 0
2, 118080, Note_on_c, 1, 52, 127
2, 118080, Note_off_c, 1, 70, 0
2, 118080, Note_on_c, 1, 73, 127
2, 118080, Note_on_c, 1, 75, 127
2, 118080, Note_off_c, 1, 89, 0
2, 118080, Note_off_c, 1, 94, 0
2, 118120, Note_off_c, 1, 52, 0
2, 118120, Note_on_c, 1, 56, 127
2, 118120, Note_on_c, 1, 61, 127
2, 118120, Note_on_c, 1, 64, 127
2, 118120, Note_on_c, 1, 70, 127
2, 118120, Note_off_c, 1, 73, 0
2, 118120, Note_off_c, 1, 75, 0
2, 118120, Note_on_c, 1, 76, 127
2, 118120, Note_on_c, 1, 79, 127
2, 118120, Note_on_c, 1, 85, 127
2, 118160, Note_on_c, 1, 53, 127
2, 118160, Note_off_c, 1, 56, 0
2, 118160, Note_off_c, 1, 61, 0
2, 118160, Note_on_c, 1, 63, 127
2, 118160, Note_off_c, 1, 64, 0
2, 118160, Note_on_c, 1, 67, 127
2, 118160, Note_off_c, 1, 70, 0
2, 118160, Note_on_c, 1, 74, 127
2, 118160, Note_off_c, 1, 76, 0
2, 118160, Note_off_c, 1, 79, 0
2, 118160, Note_off_c, 1, 85, 0
2, 118200, Note_on_c, 1, 51, 127
2, 118200, Note_off_c, 1, 53, 0
2, 118200, Note_off_c, 1, 67, 0
2, 118200, Note_off_c, 1, 74, 0
2, 118200, Note_on_c, 1, 92, 127
2, 118200, Note_on_c, 1, 97, 127
2, 118200, Note_on_c, 1, 100, 127
2, 118200, Note_on_c, 1, 104, 127
2, 118240, Note_on_c, 1, 32, 127
2, 118240, Note_on_c, 1, 33, 127
2, 118240, Note_on_c, 1, 34, 127
2, 118240, Note_off_c, 1, 51, 0
2, 118240, Note_off_c, 1, 63, 0
2, 118240, Note_off_c, 1, 92, 0
2, 118240, Note_off_c, 1, 97, 0
2, 118240, Note_off_c, 1, 100, 0
2, 118240, Note_off_c, 1, 104, 0
2, 118280, Note_off_c, 1, 32, 0
2, 118280, Note_off_c, 1, 33, 0
2, 118280, Note_off_c, 1, 34, 0
2, 118280, Note_on_c, 1, 86, 127
2, 118280, Note_on_c, 1, 95, 127
2, 118280, Note_on_c, 1, 99, 127
2, 118320, Note_on_c, 1, 33, 127
2, 118320, Note_on_c, 1, 49, 127
2, 118320, Note_on_c, 1, 52, 127
2, 118320, Note_on_c, 1, 65, 127
2, 118320, Note_on_c, 1, 69, 127
2, 118320, Note_off_c, 1, 86, 0
2, 118320, Note_off_c, 1, 95, 0
2, 118320, Note_off_c, 1, 99, 0
2, 118360, Note_off_c, 1, 33, 0
2, 118360, Note_off_c, 1, 49, 0
2, 118360, Note_on_c, 1, 51, 127
2, 118360, Note_on_c, 1, 63, 127
2, 118360, Note_on_c, 1, 64, 127
2, 118360, Note_off_c, 1, 65, 0
2, 118360, Note_off_c, 1, 69, 0
2, 118400, Note_off_c, 1, 51, 0
2, 118400, Note_off_c, 1, 52, 0
2, 118400, Note_on_c, 1, 55, 127
2, 118400, Note_on_c, 1, 60, 127
2, 118400, Note_off_c, 1, 64, 0
2, 118400, Note_on_c, 1, 66, 127
2, 118400, Note_on_c, 1, 93, 127
2, 118440, Note_on_c, 1, 94, 127
2, 118600, Note_off_c, 1, 94, 0
2, 118640, Note_on_c, 1, 47, 127
2, 118640, Note_off_c, 1, 55, 0
2, 118640, Note_off_c, 1, 60, 0
2, 118640, Note_off_c, 1, 63, 0
2, 118640, Note_off_c, 1, 66, 0
2, 118640, Note_on_c, 1, 80, 127
2, 118640, Note_on_c, 1, 88, 127
2, 118640, Note_off_c, 1, 93, 0
2, 118680, Note_off_c, 1, 47, 0
2, 118680, Note_on_c, 1, 55, 127
2, 118680, Note_on_c, 1, 60, 127
2, 118680, Note_on_c, 1, 63, 127
2, 118680, Note_on_c, 1, 66, 127
2, 118680, Note_off_c, 1, 80, 0
2, 118680, Note_off_c, 1, 88, 0
2, 118680, Note_on_c, 1, 93, 127
2, 118720, Note_off_c, 1, 55, 0
2, 118720, Note_off_c, 1, 60, 0
2, 118720, Note_off_c, 1, 63, 0
2, 118720, Note_off_c, 1, 66, 0
2, 118720, Note_on_c, 1, 91, 127
2, 118720, Note_off_c, 1, 93, 0
2, 118760, Note_on_c, 1, 50, 127
2, 118760, Note_on_c, 1, 54, 127
2, 118760, Note_on_c, 1, 59, 127
2, 118760, Note_on_c, 1, 71, 127
2, 118760, Note_on_c, 1, 78, 127
2, 118760, Note_on_c, 1, 83, 127
2, 118760, Note_off_c, 1, 91, 0
2, 118800, Note_off_c, 1, 50, 0
2, 118800, Note_off_c, 1, 54, 0
2, 118800, Note_off_c, 1, 59, 0
2, 118840, Note_off_c, 1, 71, 0
2, 118840, Note_off_c, 1, 78, 0
2, 118840, Note_off_c, 1, 83, 0
2, 118880, Note_on_c, 1, 60, 127
2, 118880, Note_on_c, 1, 64, 127
2, 118880, Note_on_c, 1, 69, 127
2, 118880, Note_on_c, 1, 84, 127
2, 118880, Note_on_c, 1, 87, 127
2, 118880, Note_on_c, 1, 96, 127
2, 118920, Note_on_c, 1, 35, 127
2, 118920, Note_on_c, 1, 40, 127
2, 118920, Note_on_c, 1, 47, 127
2, 118920, Note_off_c, 1, 60, 0
2, 118920, Note_off_c, 1, 64, 0
2, 118920, Note_off_c, 1, 69, 0
2, 118920, Note_on_c, 1, 74, 127
2, 118920, Note_off_c, 1, 84, 0
2, 118920, Note_off_c, 1, 87, 0
2, 118920, Note_off_c, 1, 96, 0
2, 118960, Note_off_c, 1, 35, 0
2, 118960, Note_off_c, 1, 40, 0
2, 118960, Note_off_c, 1, 47, 0
2, 118960, Note_on_c, 1, 69, 127
2, 118960, Note_on_c, 1, 72, 127
2, 118960, Note_off_c, 1, 74, 0
2, 118960, Note_on_c, 1, 77, 127
2, 118960, Note_on_c, 1, 81, 127
2, 118960, Note_on_c, 1, 87, 127
2, 118960, Note_on_c, 1, 96, 127
2, 118960, Note_on_c, 1, 99, 127
2, 119000, Note_on_c, 1, 60, 127
2, 119000, Note_on_c, 1, 64, 127
2, 119000, Note_off_c, 1, 72, 0
2, 119000, Note_off_c, 1, 77, 0
2, 119000, Note_off_c, 1, 81, 0
2, 119000, Note_on_c, 1, 84, 127
2, 119000, Note_off_c, 1, 99, 0
2, 119040, Note_on_c, 1, 38, 127
2, 119040, Note_on_c, 1, 50, 127
2, 119040, Note_off_c, 1, 60, 0
2, 119040, Note_off_c, 1, 64, 0
2, 119040, Note_off_c, 1, 69, 0
2, 119040, Note_off_c, 1, 84, 0
2, 119040, Note_on_c, 1, 86, 127
2, 119040, Note_off_c, 1, 87, 0
2, 119040, Note_on_c, 1, 90, 127
2, 119040, Note_off_c, 1, 96, 0
2, 119040, Note_on_c, 1, 98, 127
2, 119080, Note_off_c, 1, 38, 0
2, 119080, Note_off_c, 1, 50, 0
2, 119080, Note_on_c, 1, 55, 127
2, 119080, Note_off_c, 1, 90, 0
2, 119080, Note_on_c, 1, 95, 127
2, 119120, Note_on_c, 1, 38, 127
2, 119120, Note_on_c, 1, 43, 127
2, 119120, Note_on_c, 1, 50, 127
2, 119120, Note_off_c, 1, 86, 0
2, 119120, Note_off_c, 1, 95, 0
2, 119120, Note_off_c, 1, 98, 0
2, 119160, Note_off_c, 1, 38, 0
2, 119160, Note_off_c, 1, 43, 0
2, 119160, Note_on_c, 1, 48, 127
2, 119160, Note_off_c, 1, 50, 0
2, 119160, Note_on_c, 1, 53, 127
2, 119160, Note_off_c, 1, 55, 0
2, 119160, Note_on_c, 1, 57, 127
2, 119160, Note_on_c, 1, 60, 127
2, 119160, Note_on_c, 1, 77, 127
2, 119160, Note_on_c, 1, 81, 127
2, 119160, Note_on_c, 1, 84, 127
2, 119200, Note_off_c, 1, 48, 0
2, 119200, Note_off_c, 1, 53, 0
2, 119200, Note_off_c, 1, 60, 0
2, 119200, Note_on_c, 1, 74, 127
2, 119200, Note_on_c, 1, 75, 127
2, 119200, Note_off_c, 1, 77, 0
2, 119200, Note_off_c, 1, 81, 0
2, 119240, Note_on_c, 1, 47, 127
2, 119240, Note_on_c, 1, 54, 127
2, 119240, Note_off_c, 1, 57, 0
2, 119240, Note_on_c, 1, 59, 127
2, 119240, Note_on_c, 1, 62, 127
2, 119240, Note_on_c, 1, 69, 127
2, 119240, Note_on_c, 1, 71, 127
2, 119240, Note_off_c, 1, 74, 0
2, 119240, Note_off_c, 1, 75, 0
2, 119240, Note_off_c, 1, 84, 0
2, 119280, Note_off_c, 1, 47, 0
2, 119280, Note_on_c, 1, 51, 127
2, 119280, Note_off_c, 1, 54, 0
2, 119280, Note_off_c, 1, 59, 0
2, 119280, Note_off_c, 1, 62, 0
2, 119280, Note_off_c, 1, 69, 0
2, 119280, Note_off_c, 1, 71, 0
2, 119280, Note_on_c, 1, 73, 127
2, 119280, Note_on_c, 1, 83, 127
2, 119320, Note_off_c, 1, 51, 0
2, 119320, Note_off_c, 1, 73, 0
2, 119320, Note_on_c, 1, 76, 127
2, 119320, Note_on_c, 1, 98, 127
2, 119360, Note_on_c, 1, 25, 127
2, 119360, Note_on_c, 1, 29, 127
2, 119360, Note_on_c, 1, 32, 127
2, 119360, Note_on_c, 1, 37, 127
2, 119360, Note_on_c, 1, 49, 127
2, 119360, Note_on_c, 1, 53, 127
2, 119360, Note_on_c, 1, 56, 127
2, 119360, Note_off_c, 1, 76, 0
2, 119360, Note_off_c, 1, 83, 0
2, 119360, Note_off_c, 1, 98, 0
2, 119400, Note_off_c, 1, 25, 0
2, 119400, Note_off_c, 1, 29, 0
2, 119400, Note_off_c, 1, 32, 0
2, 119400, Note_off_c, 1, 37, 0
2, 119400, Note_on_c, 1, 42, 127
2, 119400, Note_off_c, 1, 56, 0
2, 119400, Note_on_c, 1, 59, 127
2, 119400, Note_on_c, 1, 68, 127
2, 119440, Note_off_c, 1, 42, 0
2, 119440, Note_on_c, 1, 45, 127
2, 119440, Note_on_c, 1, 48, 127
2, 119440, Note_off_c, 1, 49, 0
2, 119440, Note_off_c, 1, 53, 0
2, 119440, Note_on_c, 1, 57, 127
2, 119440, Note_off_c, 1, 59, 0
2, 119440, Note_off_c, 1, 68, 0
2, 119440, Note_on_c, 1, 93, 127
2, 119480, Note_off_c, 1, 45, 0
2, 119480, Note_off_c, 1, 48, 0
2, 119480, Note_off_c, 1, 57, 0
2, 119480, Note_on_c, 1, 90, 127
2, 119480, Note_on_c, 1, 92, 127
2, 119480, Note_off_c, 1, 93, 0
2, 119480, Note_on_c, 1, 94, 127
2, 119520, Note_off_c, 1, 90, 0
2, 119520, Note_off_c, 1, 92, 0
2, 119520, Note_off_c, 1, 94, 0
2, 119560, Note_on_c, 1, 81, 127
2, 119600, Note_off_c, 1, 81, 0
2, 119600, Note_on_c, 1, 90, 127
2, 119600, Note_on_c, 1, 93, 127
2, 119640, Note_on_c, 1, 52, 127
2, 119640, Note_on_c, 1, 62, 127
2, 119640, Note_on_c, 1, 68, 127
2, 119640, Note_on_c, 1, 83, 127
2, 119640, Note_off_c, 1, 90, 0
2, 119640, Note_off_c, 1, 93, 0
2, 119760, Note_off_c, 1, 83, 0
2, 119800, Note_off_c, 1, 52, 0
2, 119800, Note_off_c, 1, 62, 0
2, 119800, Note_off_c, 1, 68, 0
2, 119800, Note_on_c, 1, 72, 127
2, 119800, Note_on_c, 1, 77, 127
2, 119800, Note_on_c, 1, 89, 127
2, 119800, Note_on_c, 1, 93, 127
2, 119840, Note_on_c, 1, 52, 127
2, 119840, Note_on_c, 1, 62, 127
2, 119840, Note_on_c, 1, 68, 127
2, 119840, Note_off_c, 1, 72, 0
2, 119840, Note_off_c, 1, 77, 0
2, 119840, Note_off_c, 1, 89, 0
2, 119840, Note_off_c, 1, 93, 0
2, 119880, Note_off_c, 1, 52, 0
2, 119880, Note_on_c, 1, 57, 127
2, 119880, Note_on_c, 1, 59, 127
2, 119880, Note_off_c, 1, 62, 0
2, 119880, Note_on_c, 1, 63, 127
2, 119880, Note_on_c, 1, 66, 127
2, 119880, Note_off_c, 1, 68, 0
2, 119880, Note_on_c, 1, 71, 127
2, 119880, Note_on_c, 1, 78, 127
2, 119880, Note_on_c, 1, 83, 127
2, 120000, Note_off_c, 1, 57, 0
2, 120000, Note_off_c, 1, 59, 0
2, 120000, Note_off_c, 1, 63, 0
2, 120000, Note_off_c, 1, 66, 0
2, 120000, Note_off_c, 1, 71, 0
2, 120000, Note_off_c, 1, 78, 0
2, 120000, Note_off_c, 1, 83, 0
2, 120040, End_track
3, 0, Start_track
3, 0, Title_t, "MIDI"
3, 1536, End_track
0, 0, End_of_file
