0, 0, Header, 1, 3, 192
1, 0, Start_track
1, 0, Time_signature, 4, 2, 24, 8
1, 0, Tempo, 500000
1, 120040, End_track
2, 0, Start_track
2, 0, Text_t, "random instrument: random person i dunno whatev"
2, 0, Title_t, "Track 1"
2, 0, Note_on_c, 1, 40, 127
2, 0, Note_on_c, 1, 48, 127
2, 0, Note_on_c, 1, 56, 127
2, 0, Note_on_c, 1, 60, 127
2, 120, Note_off_c, 1, 40, 0
2, 120, Note_off_c, 1, 48, 0
2, 120, Note_off_c, 1, 56, 0
2, 120, Note_off_c, 1, 60, 0
2, 160, Note_on_c, 1, 40, 127
2, 160, Note_on_c, 1, 48, 127
2, 160, Note_on_c, 1, 56, 127
2, 160, Note_on_c, 1, 60, 127
2, 200, Note_on_c, 1, 35, 127
2, 200, Note_on_c, 1, 39, 127
2, 200, Note_off_c, 1, 40, 0
2, 200, Note_on_c, 1, 47, 127
2, 200, Note_off_c, 1, 48, 0
2, 200, Note_on_c, 1, 50, 127
2, 200, Note_off_c, 1, 56, 0
2, 200, Note_off_c, 1, 60, 0
2, 240, Note_off_c, 1, 35, 0
2, 240, Note_off_c, 1, 39, 0
2, 240, Note_off_c, 1, 47, 0
2, 240, Note_off_c, 1, 50, 0
2, 240, Note_on_c, 1, 74, 127
2, 240, Note_on_c, 1, 77, 127
2, 240, Note_on_c, 1, 80, 127
2, 240, Note_on_c, 1, 83, 127
2, 520, Note_off_c, 1, 74, 0
2, 520, Note_off_c, 1, 77, 0
2, 520, Note_off_c, 1, 80, 0
2, 520, Note_off_c, 1, 83, 0
2, 14680, Note_on_c, 1, 56, 127
2, 14680, Note_on_c, 1, 71, 127
2, 14680, Note_on_c, 1, 83, 127
2, 15240, Note_off_c, 1, 56, 0
2, 15240, Note_off_c, 1, 71, 0
2, 15240, Note_off_c, 1, 83, 0
2, 15280, Note_on_c, 1, 57, 127
2, 15280, Note_on_c, 1, 66, 127
2, 15280, Note_on_c, 1, 69, 127
2, 15280, Note_on_c, 1, 78, 127
2, 16000, Note_off_c, 1, 57, 0
2, 16000, Note_off_c, 1, 66, 0
2, 16000, Note_off_c, 1, 69, 0
2, 16000, Note_off_c, 1, 78, 0
2, 16040, Note_on_c, 1, 52, 127
2, 16040, Note_on_c, 1, 61, 127
2, 16040, Note_on_c, 1, 64, 127
2, 16040, Note_on_c, 1, 73, 127
2, 16080, Note_off_c, 1, 52, 0
2, 16080, Note_on_c, 1, 57, 127
2, 16080, Note_on_c, 1, 60, 127
2, 16080, Note_off_c, 1, 61, 0
2, 16080, Note_on_c, 1, 63, 127
2, 16080, Note_off_c, 1, 64, 0
2, 16080, Note_on_c, 1, 72, 127
2, 16080, Note_off_c, 1, 73, 0
2, 16080, Note_on_c, 1, 78, 127
2, 16080, Note_on_c, 1, 83, 127
2, 16120, Note_on_c, 1, 52, 127
2, 16120, Note_off_c, 1, 57, 0
2, 16120, Note_off_c, 1, 60, 0
2, 16120, Note_on_c, 1, 61, 127
2, 16120, Note_off_c, 1, 63, 0
2, 16120, Note_on_c, 1, 64, 127
2, 16120, Note_off_c, 1, 72, 0
2, 16120, Note_on_c, 1, 73, 127
2, 16120, Note_off_c, 1, 78, 0
2, 16120, Note_off_c, 1, 83, 0
2, 16280, Note_off_c, 1, 61, 0
2, 16280, Note_off_c, 1, 73, 0
2, 16320, Note_on_c, 1, 61, 127
2, 16320, Note_on_c, 1, 73, 127
2, 16560, Note_off_c, 1, 52, 0
2, 16560, Note_off_c, 1, 61, 0
2, 16560, Note_off_c, 1, 64, 0
2, 16560, Note_off_c, 1, 73, 0
2, 16600, Note_on_c, 1, 52, 127
2, 16600, Note_on_c, 1, 61, 127
2, 16600, Note_on_c, 1, 64, 127
2, 16600, Note_on_c, 1, 73, 127
2, 16840, Note_off_c, 1, 52, 0
2, 16840, Note_off_c, 1, 61, 0
2, 16840, Note_off_c, 1, 64, 0
2, 16840, Note_off_c, 1, 73, 0
2, 16880, Note_on_c, 1, 52, 127
2, 16880, Note_on_c, 1, 61, 127
2, 16880, Note_on_c, 1, 64, 127
2, 16880, Note_on_c, 1, 73, 127
2, 17000, Note_off_c, 1, 52, 0
2, 17000, Note_off_c, 1, 61, 0
2, 17000, Note_off_c, 1, 64, 0
2, 17000, Note_off_c, 1, 73, 0
2, 17040, Note_on_c, 1, 52, 127
2, 17040, Note_on_c, 1, 61, 127
2, 17040, Note_on_c, 1, 64, 127
2, 17040, Note_on_c, 1, 73, 127
2, 17160, Note_off_c, 1, 52, 0
2, 17160, Note_off_c, 1, 61, 0
2, 17160, Note_off_c, 1, 64, 0
2, 17160, Note_off_c, 1, 73, 0
2, 17200, Note_on_c, 1, 52, 127
2, 17200, Note_on_c, 1, 61, 127
2, 17200, Note_on_c, 1, 64, 127
2, 17200, Note_on_c, 1, 73, 127
2, 17440, Note_off_c, 1, 52, 0
2, 17440, Note_off_c, 1, 61, 0
2, 17440, Note_off_c, 1, 64, 0
2, 17440, Note_off_c, 1, 73, 0
2, 17480, Note_on_c, 1, 52, 127
2, 17480, Note_on_c, 1, 61, 127
2, 17480, Note_on_c, 1, 64, 127
2, 17480, Note_on_c, 1, 73, 127
2, 17760, Note_off_c, 1, 52, 0
2, 17760, Note_off_c, 1, 61, 0
2, 17760, Note_off_c, 1, 64, 0
2, 17760, Note_off_c, 1, 73, 0
2, 17800, Note_on_c, 1, 52, 127
2, 17800, Note_on_c, 1, 61, 127
2, 17800, Note_on_c, 1, 64, 127
2, 17800, Note_on_c, 1, 73, 127
2, 18040, Note_off_c, 1, 52, 0
2, 18040, Note_off_c, 1, 61, 0
2, 18040, Note_off_c, 1, 64, 0
2, 18040, Note_off_c, 1, 73, 0
2, 18080, Note_on_c, 1, 53, 127
2, 18080, Note_on_c, 1, 56, 127
2, 18080, Note_on_c, 1, 65, 127
2, 18080, Note_on_c, 1, 68, 127
2, 18320, Note_off_c, 1, 53, 0
2, 18320, Note_off_c, 1, 56, 0
2, 18320, Note_off_c, 1, 65, 0
2, 18320, Note_off_c, 1, 68, 0
2, 18360, Note_on_c, 1, 55, 127
2, 18360, Note_on_c, 1, 61, 127
2, 18360, Note_on_c, 1, 67, 127
2, 18360, Note_on_c, 1, 73, 127
2, 18600, Note_off_c, 1, 55, 0
2, 18600, Note_off_c, 1, 61, 0
2, 18600, Note_off_c, 1, 67, 0
2, 18600, Note_off_c, 1, 73, 0
2, 18640, Note_on_c, 1, 51, 127
2, 18640, Note_on_c, 1, 59, 127
2, 18640, Note_on_c, 1, 63, 127
2, 18640, Note_on_c, 1, 71, 127
2, 18680, Note_off_c, 1, 59, 0
2, 18680, Note_off_c, 1, 71, 0
2, 18720, Note_on_c, 1, 59, 127
2, 18720, Note_on_c, 1, 71, 127
2, 18760, Note_off_c, 1, 59, 0
2, 18760, Note_off_c, 1, 71, 0
2, 18800, Note_on_c, 1, 59, 127
2, 18800, Note_on_c, 1, 71, 127
2, 18840, Note_off_c, 1, 59, 0
2, 18840, Note_off_c, 1, 71, 0
2, 18880, Note_off_c, 1, 51, 0
2, 18880, Note_off_c, 1, 63, 0
2, 18920, Note_on_c, 1, 51, 127
2, 18920, Note_on_c, 1, 59, 127
2, 18920, Note_on_c, 1, 63, 127
2, 18920, Note_on_c, 1, 71, 127
2, 19120, Note_off_c, 1, 51, 0
2, 19160, Note_off_c, 1, 59, 0
2, 19160, Note_off_c, 1, 63, 0
2, 19160, Note_off_c, 1, 71, 0
2, 19200, Note_on_c, 1, 55, 127
2, 19200, Note_on_c, 1, 67, 127
2, 19200, Note_on_c, 1, 75, 127
2, 19200, Note_on_c, 1, 82, 127
2, 19280, Note_off_c, 1, 55, 0
2, 19280, Note_off_c, 1, 67, 0
2, 19280, Note_off_c, 1, 75, 0
2, 19280, Note_off_c, 1, 82, 0
2, 19320, Note_on_c, 1, 55, 127
2, 19320, Note_on_c, 1, 67, 127
2, 19320, Note_on_c, 1, 75, 127
2, 19320, Note_on_c, 1, 82, 127
2, 19440, Note_off_c, 1, 55, 0
2, 19440, Note_off_c, 1, 67, 0
2, 19440, Note_off_c, 1, 75, 0
2, 19440, Note_off_c, 1, 82, 0
2, 19480, Note_on_c, 1, 55, 127
2, 19480, Note_on_c, 1, 67, 127
2, 19480, Note_on_c, 1, 75, 127
2, 19480, Note_on_c, 1, 82, 127
2, 19600, Note_off_c, 1, 55, 0
2, 19600, Note_off_c, 1, 67, 0
2, 19600, Note_off_c, 1, 75, 0
2, 19600, Note_off_c, 1, 82, 0
2, 19640, Note_on_c, 1, 51, 127
2, 19640, Note_on_c, 1, 63, 127
2, 19640, Note_on_c, 1, 75, 127
2, 19640, Note_on_c, 1, 79, 127
2, 19720, Note_off_c, 1, 51, 0
2, 19720, Note_off_c, 1, 63, 0
2, 19720, Note_off_c, 1, 75, 0
2, 19720, Note_off_c, 1, 79, 0
2, 19760, Note_on_c, 1, 51, 127
2, 19760, Note_on_c, 1, 63, 127
2, 19760, Note_on_c, 1, 75, 127
2, 19760, Note_on_c, 1, 79, 127
2, 19880, Note_off_c, 1, 51, 0
2, 19880, Note_off_c, 1, 63, 0
2, 19880, Note_off_c, 1, 75, 0
2, 19880, Note_off_c, 1, 79, 0
2, 19920, Note_on_c, 1, 51, 127
2, 19920, Note_on_c, 1, 63, 127
2, 19920, Note_on_c, 1, 79, 127
2, 20200, Note_off_c, 1, 79, 0
2, 20240, Note_on_c, 1, 79, 127
2, 20280, Note_off_c, 1, 79, 0
2, 20320, Note_on_c, 1, 75, 127
2, 20360, Note_off_c, 1, 75, 0
2, 20400, Note_on_c, 1, 75, 127
2, 20480, Note_off_c, 1, 51, 0
2, 20480, Note_off_c, 1, 63, 0
2, 20480, Note_off_c, 1, 75, 0
2, 20520, Note_on_c, 1, 52, 127
2, 20520, Note_on_c, 1, 64, 127
2, 20520, Note_on_c, 1, 76, 127
2, 20760, Note_off_c, 1, 52, 0
2, 20760, Note_off_c, 1, 64, 0
2, 20760, Note_off_c, 1, 76, 0
2, 20800, Note_on_c, 1, 53, 127
2, 20800, Note_on_c, 1, 65, 127
2, 20800, Note_on_c, 1, 77, 127
2, 21080, Note_off_c, 1, 53, 0
2, 21080, Note_off_c, 1, 65, 0
2, 21080, Note_off_c, 1, 77, 0
2, 21120, Note_on_c, 1, 52, 127
2, 21120, Note_on_c, 1, 64, 127
2, 21120, Note_on_c, 1, 75, 127
2, 21320, Note_off_c, 1, 52, 0
2, 21320, Note_off_c, 1, 64, 0
2, 21320, Note_off_c, 1, 75, 0
2, 21360, Note_on_c, 1, 52, 127
2, 21360, Note_on_c, 1, 64, 127
2, 21360, Note_on_c, 1, 75, 127
2, 21400, Note_off_c, 1, 52, 0
2, 21400, Note_off_c, 1, 64, 0
2, 21400, Note_off_c, 1, 75, 0
2, 21440, Note_on_c, 1, 51, 127
2, 21440, Note_on_c, 1, 63, 127
2, 21440, Note_on_c, 1, 75, 127
2, 21720, Note_off_c, 1, 51, 0
2, 21720, Note_off_c, 1, 63, 0
2, 21720, Note_off_c, 1, 75, 0
2, 21760, Note_on_c, 1, 52, 127
2, 21760, Note_on_c, 1, 64, 127
2, 21760, Note_on_c, 1, 80, 127
2, 21960, Note_off_c, 1, 80, 0
2, 22000, Note_on_c, 1, 87, 127
2, 22240, Note_off_c, 1, 52, 0
2, 22240, Note_off_c, 1, 64, 0
2, 22240, Note_off_c, 1, 87, 0
2, 22280, Note_on_c, 1, 52, 127
2, 22280, Note_on_c, 1, 64, 127
2, 22280, Note_on_c, 1, 87, 127
2, 22520, Note_off_c, 1, 52, 0
2, 22520, Note_off_c, 1, 64, 0
2, 22520, Note_off_c, 1, 87, 0
2, 22520, Note_on_c, 1, 88, 127
2, 22560, Note_on_c, 1, 52, 127
2, 22560, Note_on_c, 1, 64, 127
2, 22560, Note_on_c, 1, 87, 127
2, 22560, Note_off_c, 1, 88, 0
2, 22760, Note_off_c, 1, 52, 0
2, 22760, Note_off_c, 1, 64, 0
2, 22760, Note_off_c, 1, 87, 0
2, 22760, Note_on_c, 1, 88, 127
2, 22800, Note_on_c, 1, 52, 127
2, 22800, Note_on_c, 1, 64, 127
2, 22800, Note_on_c, 1, 87, 127
2, 22800, Note_off_c, 1, 88, 0
2, 23040, Note_off_c, 1, 52, 0
2, 23040, Note_off_c, 1, 64, 0
2, 23040, Note_off_c, 1, 87, 0
2, 23080, Note_on_c, 1, 52, 127
2, 23080, Note_on_c, 1, 64, 127
2, 23080, Note_on_c, 1, 87, 127
2, 23280, Note_off_c, 1, 87, 0
2, 23320, Note_off_c, 1, 52, 0
2, 23320, Note_off_c, 1, 64, 0
2, 23320, Note_on_c, 1, 88, 127
2, 23360, Note_on_c, 1, 52, 127
2, 23360, Note_on_c, 1, 64, 127
2, 23360, Note_on_c, 1, 87, 127
2, 23360, Note_off_c, 1, 88, 0
2, 23520, Note_off_c, 1, 87, 0
2, 23560, Note_off_c, 1, 52, 0
2, 23560, Note_off_c, 1, 64, 0
2, 23560, Note_on_c, 1, 88, 127
2, 23600, Note_on_c, 1, 52, 127
2, 23600, Note_on_c, 1, 64, 127
2, 23600, Note_on_c, 1, 87, 127
2, 23600, Note_off_c, 1, 88, 0
2, 23640, Note_off_c, 1, 52, 0
2, 23640, Note_off_c, 1, 64, 0
2, 23640, Note_off_c, 1, 87, 0
2, 23680, Note_on_c, 1, 52, 127
2, 23680, Note_on_c, 1, 64, 127
2, 23680, Note_on_c, 1, 87, 127
2, 23800, Note_off_c, 1, 87, 0
2, 23840, Note_on_c, 1, 87, 127
2, 23880, Note_off_c, 1, 52, 0
2, 23880, Note_off_c, 1, 64, 0
2, 23880, Note_off_c, 1, 87, 0
2, 23920, Note_on_c, 1, 52, 127
2, 23920, Note_on_c, 1, 64, 127
2, 23920, Note_on_c, 1, 87, 127
2, 24080, Note_off_c, 1, 87, 0
2, 24120, Note_off_c, 1, 52, 0
2, 24120, Note_off_c, 1, 64, 0
2, 24120, Note_on_c, 1, 88, 127
2, 24160, Note_on_c, 1, 52, 127
2, 24160, Note_on_c, 1, 64, 127
2, 24320, Note_off_c, 1, 88, 0
2, 24360, Note_on_c, 1, 88, 127
2, 24400, Note_off_c, 1, 52, 0
2, 24400, Note_off_c, 1, 64, 0
2, 24400, Note_off_c, 1, 88, 0
2, 24440, Note_on_c, 1, 51, 127
2, 24440, Note_on_c, 1, 63, 127
2, 24440, Note_on_c, 1, 80, 127
2, 24680, Note_off_c, 1, 51, 0
2, 24680, Note_off_c, 1, 63, 0
2, 24680, Note_off_c, 1, 80, 0
2, 24720, Note_on_c, 1, 52, 127
2, 24720, Note_on_c, 1, 64, 127
2, 24720, Note_on_c, 1, 80, 127
2, 24800, Note_off_c, 1, 80, 0
2, 24840, Note_on_c, 1, 82, 127
2, 24880, Note_on_c, 1, 80, 127
2, 24880, Note_off_c, 1, 82, 0
2, 24920, Note_off_c, 1, 52, 0
2, 24920, Note_off_c, 1, 64, 0
2, 24920, Note_off_c, 1, 80, 0
2, 24960, Note_on_c, 1, 61, 127
2, 24960, Note_on_c, 1, 64, 127
2, 24960, Note_on_c, 1, 80, 127
2, 25080, Note_off_c, 1, 80, 0
2, 25120, Note_on_c, 1, 80, 127
2, 25160, Note_on_c, 1, 78, 127
2, 25160, Note_off_c, 1, 80, 0
2, 25200, Note_off_c, 1, 61, 0
2, 25200, Note_off_c, 1, 64, 0
2, 25200, Note_off_c, 1, 78, 0
2, 25240, Note_on_c, 1, 52, 127
2, 25240, Note_on_c, 1, 64, 127
2, 25240, Note_on_c, 1, 80, 127
2, 25280, Note_off_c, 1, 80, 0
2, 25320, Note_on_c, 1, 81, 127
2, 25360, Note_off_c, 1, 81, 0
2, 25360, Note_on_c, 1, 83, 127
2, 25400, Note_off_c, 1, 83, 0
2, 25440, Note_off_c, 1, 52, 0
2, 25440, Note_off_c, 1, 64, 0
2, 25440, Note_on_c, 1, 81, 127
2, 25480, Note_on_c, 1, 61, 127
2, 25480, Note_on_c, 1, 65, 127
2, 25480, Note_off_c, 1, 81, 0
2, 25480, Note_on_c, 1, 83, 127
2, 25720, Note_off_c, 1, 61, 0
2, 25720, Note_off_c, 1, 65, 0
2, 25720, Note_off_c, 1, 83, 0
2, 25760, Note_on_c, 1, 64, 127
2, 25760, Note_on_c, 1, 76, 127
2, 25760, Note_on_c, 1, 80, 127
2, 25880, Note_off_c, 1, 64, 0
2, 25880, Note_off_c, 1, 76, 0
2, 25880, Note_off_c, 1, 80, 0
2, 25920, Note_on_c, 1, 64, 127
2, 25920, Note_on_c, 1, 76, 127
2, 25920, Note_on_c, 1, 80, 127
2, 25960, Note_off_c, 1, 64, 0
2, 25960, Note_off_c, 1, 76, 0
2, 25960, Note_off_c, 1, 80, 0
2, 26080, Note_on_c, 1, 73, 127
2, 26080, Note_on_c, 1, 85, 127
2, 26120, Note_off_c, 1, 73, 0
2, 26120, Note_off_c, 1, 85, 0
2, 26240, Note_on_c, 1, 73, 127
2, 26240, Note_on_c, 1, 85, 127
2, 26280, Note_off_c, 1, 73, 0
2, 26280, Note_off_c, 1, 85, 0
2, 26360, Note_on_c, 1, 38, 127
2, 26360, Note_on_c, 1, 50, 127
2, 26360, Note_on_c, 1, 71, 127
2, 26360, Note_on_c, 1, 77, 127
2, 26360, Note_on_c, 1, 83, 127
2, 26600, Note_off_c, 1, 38, 0
2, 26600, Note_off_c, 1, 50, 0
2, 26600, Note_off_c, 1, 71, 0
2, 26600, Note_off_c, 1, 77, 0
2, 26600, Note_off_c, 1, 83, 0
2, 26640, Note_on_c, 1, 73, 127
2, 26640, Note_on_c, 1, 76, 127
2, 26640, Note_on_c, 1, 78, 127
2, 26640, Note_on_c, 1, 82, 127
2, 26840, Note_off_c, 1, 73, 0
2, 26840, Note_off_c, 1, 76, 0
2, 26840, Note_off_c, 1, 78, 0
2, 26840, Note_off_c, 1, 82, 0
2, 26920, Note_on_c, 1, 73, 127
2, 26920, Note_on_c, 1, 76, 127
2, 26920, Note_on_c, 1, 78, 127
2, 26920, Note_on_c, 1, 82, 127
2, 27080, Note_off_c, 1, 73, 0
2, 27080, Note_off_c, 1, 76, 0
2, 27080, Note_off_c, 1, 78, 0
2, 27080, Note_on_c, 1, 80, 127
2, 27080, Note_off_c, 1, 82, 0
2, 27120, Note_off_c, 1, 80, 0
2, 27160, Note_on_c, 1, 73, 127
2, 27160, Note_on_c, 1, 76, 127
2, 27160, Note_on_c, 1, 78, 127
2, 27160, Note_on_c, 1, 82, 127
2, 27320, Note_off_c, 1, 73, 0
2, 27320, Note_off_c, 1, 76, 0
2, 27320, Note_off_c, 1, 78, 0
2, 27320, Note_off_c, 1, 82, 0
2, 27440, Note_on_c, 1, 69, 127
2, 27440, Note_on_c, 1, 75, 127
2, 27440, Note_on_c, 1, 78, 127
2, 27440, Note_on_c, 1, 90, 127
2, 27640, Note_off_c, 1, 69, 0
2, 27640, Note_off_c, 1, 75, 0
2, 27640, Note_off_c, 1, 78, 0
2, 27640, Note_off_c, 1, 90, 0
2, 27760, Note_on_c, 1, 49, 127
2, 27760, Note_on_c, 1, 75, 127
2, 27760, Note_on_c, 1, 82, 127
2, 27960, Note_off_c, 1, 49, 0
2, 27960, Note_off_c, 1, 75, 0
2, 28000, Note_on_c, 1, 66, 127
2, 28000, Note_on_c, 1, 70, 127
2, 28000, Note_on_c, 1, 80, 127
2, 28000, Note_off_c, 1, 82, 0
2, 28240, Note_off_c, 1, 66, 0
2, 28240, Note_off_c, 1, 70, 0
2, 28240, Note_off_c, 1, 80, 0
2, 28280, Note_on_c, 1, 66, 127
2, 28280, Note_on_c, 1, 70, 127
2, 28280, Note_on_c, 1, 78, 127
2, 28520, Note_off_c, 1, 66, 0
2, 28520, Note_off_c, 1, 70, 0
2, 28520, Note_off_c, 1, 78, 0
2, 28560, Note_on_c, 1, 54, 127
2, 28720, Note_off_c, 1, 54, 0
2, 28720, Note_on_c, 1, 58, 127
2, 28760, Note_off_c, 1, 58, 0
2, 28800, Note_on_c, 1, 54, 127
2, 29040, Note_off_c, 1, 54, 0
2, 29080, Note_on_c, 1, 47, 127
2, 29320, Note_off_c, 1, 47, 0
2, 29360, Note_on_c, 1, 59, 127
2, 29600, Note_off_c, 1, 59, 0
2, 29680, Note_on_c, 1, 71, 127
2, 29880, Note_off_c, 1, 71, 0
2, 29920, Note_on_c, 1, 47, 127
2, 29920, Note_on_c, 1, 75, 127
2, 30160, Note_off_c, 1, 47, 0
2, 30160, Note_off_c, 1, 75, 0
2, 30200, Note_on_c, 1, 59, 127
2, 30200, Note_on_c, 1, 75, 127
2, 30440, Note_off_c, 1, 59, 0
2, 30440, Note_off_c, 1, 75, 0
2, 30480, Note_on_c, 1, 51, 127
2, 30480, Note_on_c, 1, 73, 127
2, 30680, Note_off_c, 1, 51, 0
2, 30680, Note_off_c, 1, 73, 0
2, 30720, Note_on_c, 1, 56, 127
2, 30720, Note_on_c, 1, 71, 127
2, 30960, Note_off_c, 1, 56, 0
2, 30960, Note_off_c, 1, 71, 0
2, 31000, Note_on_c, 1, 47, 127
2, 31240, Note_off_c, 1, 47, 0
2, 31280, Note_on_c, 1, 39, 127
2, 31280, Note_on_c, 1, 67, 127
2, 31440, Note_off_c, 1, 39, 0
2, 31800, Note_off_c, 1, 67, 0
2, 31880, Note_on_c, 1, 39, 127
2, 32080, Note_off_c, 1, 39, 0
2, 32120, Note_on_c, 1, 44, 127
2, 32120, Note_on_c, 1, 75, 127
2, 32280, Note_off_c, 1, 44, 0
2, 32320, Note_on_c, 1, 44, 127
2, 32360, Note_off_c, 1, 44, 0
2, 32400, Note_on_c, 1, 51, 127
2, 32600, Note_off_c, 1, 51, 0
2, 32640, Note_on_c, 1, 59, 127
2, 32880, Note_off_c, 1, 59, 0
2, 32880, Note_off_c, 1, 75, 0
2, 32920, Note_on_c, 1, 51, 127
2, 32920, Note_on_c, 1, 71, 127
2, 33080, Note_off_c, 1, 51, 0
2, 33120, Note_on_c, 1, 51, 127
2, 33160, Note_off_c, 1, 51, 0
2, 33200, Note_on_c, 1, 54, 127
2, 33400, Note_off_c, 1, 54, 0
2, 33440, Note_on_c, 1, 51, 127
2, 33640, Note_off_c, 1, 51, 0
2, 33640, Note_off_c, 1, 71, 0
2, 33680, Note_on_c, 1, 41, 127
2, 33680, Note_on_c, 1, 68, 127
2, 33920, Note_off_c, 1, 41, 0
2, 33960, Note_on_c, 1, 49, 127
2, 34120, Note_off_c, 1, 49, 0
2, 34120, Note_off_c, 1, 68, 0
2, 34160, Note_on_c, 1, 49, 127
2, 34160, Note_on_c, 1, 68, 127
2, 34240, Note_off_c, 1, 49, 0
2, 34240, Note_off_c, 1, 68, 0
2, 34280, Note_on_c, 1, 37, 127
2, 34280, Note_on_c, 1, 68, 127
2, 34360, Note_off_c, 1, 37, 0
2, 34520, Note_on_c, 1, 52, 127
2, 34760, Note_off_c, 1, 52, 0
2, 34800, Note_on_c, 1, 49, 127
2, 35000, Note_off_c, 1, 49, 0
2, 35040, Note_on_c, 1, 56, 127
2, 35280, Note_off_c, 1, 56, 0
2, 35320, Note_on_c, 1, 49, 127
2, 35520, Note_off_c, 1, 49, 0
2, 35560, Note_on_c, 1, 53, 127
2, 35800, Note_off_c, 1, 53, 0
2, 35840, Note_on_c, 1, 56, 127
2, 36040, Note_off_c, 1, 56, 0
2, 36080, Note_on_c, 1, 51, 127
2, 36240, Note_off_c, 1, 51, 0
2, 36240, Note_off_c, 1, 68, 0
2, 36280, Note_on_c, 1, 51, 127
2, 36280, Note_on_c, 1, 68, 127
2, 36360, Note_off_c, 1, 51, 0
2, 36400, Note_on_c, 1, 59, 127
2, 36640, Note_off_c, 1, 59, 0
2, 36640, Note_off_c, 1, 68, 0
2, 36680, Note_on_c, 1, 49, 127
2, 36680, Note_on_c, 1, 68, 127
2, 36760, Note_off_c, 1, 49, 0
2, 36800, Note_on_c, 1, 53, 127
2, 36880, Note_off_c, 1, 53, 0
2, 36920, Note_on_c, 1, 56, 127
2, 37040, Note_off_c, 1, 56, 0
2, 37080, Note_on_c, 1, 65, 127
2, 37160, Note_off_c, 1, 65, 0
2, 37200, Note_on_c, 1, 56, 127
2, 37280, Note_off_c, 1, 56, 0
2, 37320, Note_on_c, 1, 65, 127
2, 37440, Note_off_c, 1, 65, 0
2, 37480, Note_on_c, 1, 60, 127
2, 37560, Note_off_c, 1, 60, 0
2, 37600, Note_on_c, 1, 65, 127
2, 37680, Note_off_c, 1, 65, 0
2, 37720, Note_on_c, 1, 56, 127
2, 37840, Note_off_c, 1, 56, 0
2, 37880, Note_on_c, 1, 65, 127
2, 37960, Note_off_c, 1, 65, 0
2, 38000, Note_on_c, 1, 56, 127
2, 38080, Note_off_c, 1, 56, 0
2, 38120, Note_on_c, 1, 65, 127
2, 38240, Note_off_c, 1, 65, 0
2, 38280, Note_off_c, 1, 68, 0
2, 38320, Note_on_c, 1, 56, 127
2, 38320, Note_on_c, 1, 68, 127
2, 38400, Note_off_c, 1, 56, 0
2, 38440, Note_on_c, 1, 65, 127
2, 38520, Note_off_c, 1, 65, 0
2, 38560, Note_on_c, 1, 77, 127
2, 38680, Note_off_c, 1, 77, 0
2, 38720, Note_on_c, 1, 65, 127
2, 38800, Note_off_c, 1, 65, 0
2, 38800, Note_off_c, 1, 68, 0
2, 38840, Note_on_c, 1, 68, 127
2, 38840, Note_on_c, 1, 83, 127
2, 38920, Note_off_c, 1, 83, 0
2, 38960, Note_on_c, 1, 83, 127
2, 39000, Note_off_c, 1, 83, 0
2, 39080, Note_off_c, 1, 68, 0
2, 39080, Note_on_c, 1, 70, 127
2, 39120, Note_off_c, 1, 70, 0
2, 39120, Note_on_c, 1, 71, 127
2, 39120, Note_on_c, 1, 89, 127
2, 39160, Note_off_c, 1, 71, 0
2, 39160, Note_on_c, 1, 74, 127
2, 39160, Note_on_c, 1, 88, 127
2, 39160, Note_off_c, 1, 89, 0
2, 39200, Note_on_c, 1, 70, 127
2, 39200, Note_off_c, 1, 74, 0
2, 39200, Note_off_c, 1, 88, 0
2, 39240, Note_off_c, 1, 70, 0
2, 39240, Note_on_c, 1, 71, 127
2, 39240, Note_on_c, 1, 89, 127
2, 39280, Note_off_c, 1, 89, 0
2, 39360, Note_on_c, 1, 89, 127
2, 39480, Note_off_c, 1, 89, 0
2, 39520, Note_on_c, 1, 89, 127
2, 39600, Note_off_c, 1, 71, 0
2, 39600, Note_off_c, 1, 89, 0
2, 39640, Note_on_c, 1, 70, 127
2, 39640, Note_on_c, 1, 73, 127
2, 39640, Note_on_c, 1, 79, 127
2, 39720, Note_off_c, 1, 79, 0
2, 39760, Note_on_c, 1, 79, 127
2, 39880, Note_off_c, 1, 79, 0
2, 39920, Note_on_c, 1, 79, 127
2, 40000, Note_off_c, 1, 79, 0
2, 40040, Note_on_c, 1, 76, 127
2, 40120, Note_off_c, 1, 70, 0
2, 40120, Note_off_c, 1, 76, 0
2, 40160, Note_on_c, 1, 65, 127
2, 40160, Note_on_c, 1, 76, 127
2, 40280, Note_off_c, 1, 65, 0
2, 40320, Note_off_c, 1, 73, 0
2, 40320, Note_off_c, 1, 76, 0
2, 40360, Note_on_c, 1, 70, 127
2, 40360, Note_on_c, 1, 73, 127
2, 40360, Note_on_c, 1, 76, 127
2, 40440, Note_off_c, 1, 70, 0
2, 40480, Note_on_c, 1, 66, 127
2, 40560, Note_off_c, 1, 66, 0
2, 40600, Note_on_c, 1, 66, 127
2, 40720, Note_off_c, 1, 66, 0
2, 40720, Note_off_c, 1, 73, 0
2, 40720, Note_off_c, 1, 76, 0
2, 40760, Note_on_c, 1, 71, 127
2, 40760, Note_on_c, 1, 74, 127
2, 40760, Note_on_c, 1, 77, 127
2, 40880, Note_on_c, 1, 59, 127
2, 40960, Note_off_c, 1, 59, 0
2, 41000, Note_on_c, 1, 61, 127
2, 41120, Note_off_c, 1, 61, 0
2, 41160, Note_on_c, 1, 56, 127
2, 41240, Note_off_c, 1, 56, 0
2, 41280, Note_on_c, 1, 56, 127
2, 41360, Note_off_c, 1, 56, 0
2, 41400, Note_on_c, 1, 56, 127
2, 41520, Note_off_c, 1, 56, 0
2, 41520, Note_off_c, 1, 71, 0
2, 41520, Note_off_c, 1, 74, 0
2, 41520, Note_off_c, 1, 77, 0
2, 41560, Note_on_c, 1, 69, 127
2, 42040, Note_off_c, 1, 69, 0
2, 42080, Note_on_c, 1, 68, 127
2, 42360, Note_on_c, 1, 49, 127
2, 42440, Note_off_c, 1, 49, 0
2, 42480, Note_on_c, 1, 53, 127
2, 42560, Note_off_c, 1, 53, 0
2, 42600, Note_on_c, 1, 49, 127
2, 42640, Note_off_c, 1, 49, 0
2, 42640, Note_off_c, 1, 68, 0
2, 42680, Note_on_c, 1, 49, 127
2, 42680, Note_on_c, 1, 68, 127
2, 42760, Note_off_c, 1, 49, 0
2, 42800, Note_on_c, 1, 59, 127
2, 42880, Note_off_c, 1, 59, 0
2, 42880, Note_off_c, 1, 68, 0
2, 42920, Note_on_c, 1, 37, 127
2, 42920, Note_on_c, 1, 69, 127
2, 43000, Note_off_c, 1, 37, 0
2, 43040, Note_on_c, 1, 45, 127
2, 43160, Note_off_c, 1, 45, 0
2, 43200, Note_on_c, 1, 57, 127
2, 43280, Note_off_c, 1, 57, 0
2, 43320, Note_on_c, 1, 61, 127
2, 43400, Note_off_c, 1, 61, 0
2, 43400, Note_off_c, 1, 69, 0
2, 43440, Note_on_c, 1, 57, 127
2, 43440, Note_on_c, 1, 68, 127
2, 43560, Note_off_c, 1, 57, 0
2, 43600, Note_on_c, 1, 61, 127
2, 43680, Note_off_c, 1, 61, 0
2, 43720, Note_on_c, 1, 56, 127
2, 43800, Note_off_c, 1, 56, 0
2, 43840, Note_on_c, 1, 61, 127
2, 43960, Note_off_c, 1, 61, 0
2, 44000, Note_on_c, 1, 49, 127
2, 44080, Note_off_c, 1, 49, 0
2, 44120, Note_on_c, 1, 56, 127
2, 44200, Note_off_c, 1, 56, 0
2, 44240, Note_on_c, 1, 49, 127
2, 44360, Note_off_c, 1, 49, 0
2, 44400, Note_on_c, 1, 61, 127
2, 44480, Note_off_c, 1, 61, 0
2, 44520, Note_on_c, 1, 54, 127
2, 44600, Note_off_c, 1, 54, 0
2, 44640, Note_on_c, 1, 53, 127
2, 44760, Note_off_c, 1, 53, 0
2, 44800, Note_off_c, 1, 68, 0
2, 44840, Note_on_c, 1, 49, 127
2, 44840, Note_on_c, 1, 68, 127
2, 44920, Note_off_c, 1, 49, 0
2, 44960, Note_on_c, 1, 53, 127
2, 45040, Note_off_c, 1, 53, 0
2, 45040, Note_off_c, 1, 68, 0
2, 45080, Note_on_c, 1, 54, 127
2, 45080, Note_on_c, 1, 69, 127
2, 45200, Note_off_c, 1, 54, 0
2, 45240, Note_on_c, 1, 64, 127
2, 45320, Note_off_c, 1, 64, 0
2, 45360, Note_on_c, 1, 57, 127
2, 45440, Note_off_c, 1, 57, 0
2, 45480, Note_on_c, 1, 61, 127
2, 45600, Note_off_c, 1, 61, 0
2, 45600, Note_off_c, 1, 69, 0
2, 45640, Note_on_c, 1, 54, 127
2, 45640, Note_on_c, 1, 80, 127
2, 45720, Note_off_c, 1, 54, 0
2, 45760, Note_on_c, 1, 68, 127
2, 45840, Note_off_c, 1, 68, 0
2, 45880, Note_on_c, 1, 56, 127
2, 46000, Note_off_c, 1, 56, 0
2, 46040, Note_on_c, 1, 61, 127
2, 46120, Note_off_c, 1, 61, 0
2, 46160, Note_on_c, 1, 56, 127
2, 46240, Note_off_c, 1, 56, 0
2, 46280, Note_on_c, 1, 61, 127
2, 46400, Note_off_c, 1, 61, 0
2, 46400, Note_off_c, 1, 80, 0
2, 46440, Note_on_c, 1, 50, 127
2, 46440, Note_on_c, 1, 83, 127
2, 46520, Note_off_c, 1, 50, 0
2, 46560, Note_on_c, 1, 57, 127
2, 46640, Note_off_c, 1, 57, 0
2, 46680, Note_on_c, 1, 52, 127
2, 46760, Note_off_c, 1, 52, 0
2, 46760, Note_on_c, 1, 56, 127
2, 46800, Note_off_c, 1, 56, 0
2, 46840, Note_off_c, 1, 83, 0
2, 46880, Note_on_c, 1, 64, 127
2, 46880, Note_on_c, 1, 83, 127
2, 46960, Note_off_c, 1, 64, 0
2, 47000, Note_on_c, 1, 55, 127
2, 47080, Note_off_c, 1, 55, 0
2, 47120, Note_on_c, 1, 64, 127
2, 47240, Note_off_c, 1, 64, 0
2, 47240, Note_off_c, 1, 83, 0
2, 47280, Note_on_c, 1, 52, 127
2, 47280, Note_on_c, 1, 80, 127
2, 47360, Note_off_c, 1, 52, 0
2, 47400, Note_on_c, 1, 56, 127
2, 47480, Note_off_c, 1, 56, 0
2, 47520, Note_on_c, 1, 64, 127
2, 47640, Note_off_c, 1, 64, 0
2, 47640, Note_off_c, 1, 80, 0
2, 47680, Note_on_c, 1, 57, 127
2, 47680, Note_on_c, 1, 78, 127
2, 47760, Note_off_c, 1, 57, 0
2, 47760, Note_off_c, 1, 78, 0
2, 47800, Note_on_c, 1, 52, 127
2, 47800, Note_on_c, 1, 80, 127
2, 47880, Note_off_c, 1, 52, 0
2, 47920, Note_on_c, 1, 59, 127
2, 48040, Note_off_c, 1, 59, 0
2, 48040, Note_off_c, 1, 80, 0
2, 48080, Note_on_c, 1, 52, 127
2, 48080, Note_on_c, 1, 83, 127
2, 48160, Note_off_c, 1, 52, 0
2, 48200, Note_on_c, 1, 64, 127
2, 48280, Note_off_c, 1, 64, 0
2, 48320, Note_on_c, 1, 57, 127
2, 48440, Note_off_c, 1, 57, 0
2, 48480, Note_on_c, 1, 68, 127
2, 48560, Note_off_c, 1, 68, 0
2, 48600, Note_on_c, 1, 57, 127
2, 48680, Note_off_c, 1, 57, 0
2, 48720, Note_on_c, 1, 52, 127
2, 48840, Note_off_c, 1, 52, 0
2, 48880, Note_off_c, 1, 83, 0
2, 48920, Note_on_c, 1, 56, 127
2, 48920, Note_on_c, 1, 83, 127
2, 49000, Note_off_c, 1, 56, 0
2, 49040, Note_on_c, 1, 64, 127
2, 49120, Note_off_c, 1, 64, 0
2, 49120, Note_off_c, 1, 83, 0
2, 49160, Note_on_c, 1, 59, 127
2, 49160, Note_on_c, 1, 80, 127
2, 49280, Note_off_c, 1, 59, 0
2, 49320, Note_on_c, 1, 64, 127
2, 49400, Note_off_c, 1, 64, 0
2, 49400, Note_off_c, 1, 80, 0
2, 49440, Note_on_c, 1, 59, 127
2, 49440, Note_on_c, 1, 76, 127
2, 49560, Note_off_c, 1, 59, 0
2, 49600, Note_on_c, 1, 61, 127
2, 49680, Note_off_c, 1, 61, 0
2, 49680, Note_off_c, 1, 76, 0
2, 49720, Note_on_c, 1, 42, 127
2, 49720, Note_on_c, 1, 83, 127
2, 49800, Note_off_c, 1, 42, 0
2, 49840, Note_on_c, 1, 59, 127
2, 49960, Note_off_c, 1, 59, 0
2, 49960, Note_off_c, 1, 83, 0
2, 50000, Note_on_c, 1, 59, 127
2, 50000, Note_on_c, 1, 78, 127
2, 50080, Note_off_c, 1, 59, 0
2, 50120, Note_on_c, 1, 59, 127
2, 50200, Note_off_c, 1, 59, 0
2, 50200, Note_off_c, 1, 78, 0
2, 50240, Note_on_c, 1, 54, 127
2, 50240, Note_on_c, 1, 80, 127
2, 50360, Note_off_c, 1, 54, 0
2, 50400, Note_on_c, 1, 59, 127
2, 50480, Note_off_c, 1, 59, 0
2, 50520, Note_on_c, 1, 54, 127
2, 50600, Note_off_c, 1, 54, 0
2, 50640, Note_on_c, 1, 61, 127
2, 50760, Note_off_c, 1, 61, 0
2, 50760, Note_off_c, 1, 80, 0
2, 50840, Note_on_c, 1, 49, 127
2, 50840, Note_on_c, 1, 80, 127
2, 50920, Note_off_c, 1, 49, 0
2, 50960, Note_on_c, 1, 56, 127
2, 51040, Note_off_c, 1, 56, 0
2, 51080, Note_on_c, 1, 51, 127
2, 51200, Note_off_c, 1, 51, 0
2, 51200, Note_off_c, 1, 80, 0
2, 51240, Note_on_c, 1, 59, 127
2, 51240, Note_on_c, 1, 77, 127
2, 51320, Note_off_c, 1, 59, 0
2, 51320, Note_off_c, 1, 77, 0
2, 51360, Note_on_c, 1, 53, 127
2, 51360, Note_on_c, 1, 74, 127
2, 51440, Note_off_c, 1, 53, 0
2, 51480, Note_on_c, 1, 59, 127
2, 51600, Note_off_c, 1, 59, 0
2, 51600, Note_off_c, 1, 74, 0
2, 51640, Note_on_c, 1, 47, 127
2, 51640, Note_on_c, 1, 74, 127
2, 51720, Note_off_c, 1, 47, 0
2, 51760, Note_on_c, 1, 56, 127
2, 51840, Note_off_c, 1, 56, 0
2, 51880, Note_on_c, 1, 56, 127
2, 52000, Note_off_c, 1, 56, 0
2, 52040, Note_on_c, 1, 52, 127
2, 52120, Note_off_c, 1, 52, 0
2, 52160, Note_on_c, 1, 45, 127
2, 52240, Note_off_c, 1, 45, 0
2, 52280, Note_on_c, 1, 47, 127
2, 52400, Note_off_c, 1, 47, 0
2, 52440, Note_on_c, 1, 52, 127
2, 52520, Note_off_c, 1, 52, 0
2, 52560, Note_on_c, 1, 56, 127
2, 52640, Note_off_c, 1, 56, 0
2, 52680, Note_on_c, 1, 57, 127
2, 52800, Note_off_c, 1, 57, 0
2, 52840, Note_off_c, 1, 74, 0
2, 52880, Note_on_c, 1, 62, 127
2, 52880, Note_on_c, 1, 74, 127
2, 52960, Note_off_c, 1, 62, 0
2, 53000, Note_on_c, 1, 56, 127
2, 53080, Note_off_c, 1, 56, 0
2, 53120, Note_on_c, 1, 59, 127
2, 53240, Note_off_c, 1, 59, 0
2, 53240, Note_off_c, 1, 74, 0
2, 53280, Note_on_c, 1, 45, 127
2, 53280, Note_on_c, 1, 73, 127
2, 53360, Note_off_c, 1, 45, 0
2, 53400, Note_on_c, 1, 57, 127
2, 53480, Note_off_c, 1, 57, 0
2, 53520, Note_on_c, 1, 52, 127
2, 53640, Note_off_c, 1, 52, 0
2, 53680, Note_on_c, 1, 61, 127
2, 53760, Note_off_c, 1, 61, 0
2, 53800, Note_on_c, 1, 52, 127
2, 53880, Note_off_c, 1, 52, 0
2, 53920, Note_on_c, 1, 57, 127
2, 54040, Note_off_c, 1, 57, 0
2, 54040, Note_off_c, 1, 73, 0
2, 54080, Note_on_c, 1, 50, 127
2, 54080, Note_on_c, 1, 73, 127
2, 54160, Note_off_c, 1, 50, 0
2, 54160, Note_off_c, 1, 73, 0
2, 54200, Note_on_c, 1, 61, 127
2, 54200, Note_on_c, 1, 73, 127
2, 54320, Note_on_c, 1, 57, 127
2, 54320, Note_off_c, 1, 61, 0
2, 54440, Note_off_c, 1, 57, 0
2, 54480, Note_on_c, 1, 54, 127
2, 54560, Note_off_c, 1, 54, 0
2, 54560, Note_off_c, 1, 73, 0
2, 54600, Note_on_c, 1, 62, 127
2, 54600, Note_on_c, 1, 69, 127
2, 54680, Note_off_c, 1, 62, 0
2, 54720, Note_on_c, 1, 57, 127
2, 54840, Note_off_c, 1, 57, 0
2, 54880, Note_on_c, 1, 52, 127
2, 54960, Note_off_c, 1, 52, 0
2, 54960, Note_off_c, 1, 69, 0
2, 55000, Note_on_c, 1, 69, 127
2, 55040, Note_on_c, 1, 61, 127
2, 55120, Note_off_c, 1, 61, 0
2, 55120, Note_off_c, 1, 69, 0
2, 55160, Note_on_c, 1, 57, 127
2, 55280, Note_on_c, 1, 45, 127
2, 55280, Note_off_c, 1, 57, 0
2, 55400, Note_off_c, 1, 45, 0
2, 55440, Note_on_c, 1, 57, 127
2, 55520, Note_off_c, 1, 57, 0
2, 55560, Note_on_c, 1, 62, 127
2, 55680, Note_off_c, 1, 62, 0
2, 55720, Note_on_c, 1, 61, 127
2, 55720, Note_on_c, 1, 76, 127
2, 55800, Note_off_c, 1, 61, 0
2, 55840, Note_on_c, 1, 57, 127
2, 55920, Note_off_c, 1, 57, 0
2, 55960, Note_on_c, 1, 61, 127
2, 56080, Note_off_c, 1, 61, 0
2, 56120, Note_on_c, 1, 55, 127
2, 56200, Note_off_c, 1, 55, 0
2, 56200, Note_off_c, 1, 76, 0
2, 56240, Note_on_c, 1, 45, 127
2, 56240, Note_on_c, 1, 73, 127
2, 56320, Note_off_c, 1, 45, 0
2, 56360, Note_on_c, 1, 57, 127
2, 56480, Note_off_c, 1, 57, 0
2, 56520, Note_on_c, 1, 52, 127
2, 56600, Note_off_c, 1, 52, 0
2, 56640, Note_on_c, 1, 57, 127
2, 56720, Note_off_c, 1, 57, 0
2, 56760, Note_on_c, 1, 52, 127
2, 56880, Note_off_c, 1, 52, 0
2, 56920, Note_off_c, 1, 73, 0
2, 56960, Note_on_c, 1, 57, 127
2, 56960, Note_on_c, 1, 73, 127
2, 57040, Note_off_c, 1, 57, 0
2, 57080, Note_on_c, 1, 52, 127
2, 57160, Note_off_c, 1, 52, 0
2, 57200, Note_on_c, 1, 57, 127
2, 57320, Note_off_c, 1, 57, 0
2, 57320, Note_off_c, 1, 73, 0
2, 57360, Note_on_c, 1, 56, 127
2, 57360, Note_on_c, 1, 71, 127
2, 57440, Note_off_c, 1, 56, 0
2, 57480, Note_on_c, 1, 52, 127
2, 57560, Note_off_c, 1, 52, 0
2, 57600, Note_on_c, 1, 56, 127
2, 57720, Note_off_c, 1, 56, 0
2, 57760, Note_on_c, 1, 52, 127
2, 57840, Note_off_c, 1, 52, 0
2, 57840, Note_off_c, 1, 71, 0
2, 57880, Note_on_c, 1, 45, 127
2, 57880, Note_on_c, 1, 73, 127
2, 57960, Note_off_c, 1, 45, 0
2, 58000, Note_on_c, 1, 49, 127
2, 58120, Note_off_c, 1, 49, 0
2, 58160, Note_on_c, 1, 57, 127
2, 58240, Note_off_c, 1, 57, 0
2, 58400, Note_on_c, 1, 50, 127
2, 58520, Note_off_c, 1, 73, 0
2, 58520, Note_on_c, 1, 79, 127
2, 58560, Note_off_c, 1, 79, 0
2, 58600, Note_on_c, 1, 76, 127
2, 58640, Note_off_c, 1, 50, 0
2, 58640, Note_on_c, 1, 74, 127
2, 58640, Note_off_c, 1, 76, 0
2, 58680, Note_on_c, 1, 55, 127
2, 58680, Note_on_c, 1, 71, 127
2, 58680, Note_off_c, 1, 74, 0
2, 58920, Note_off_c, 1, 55, 0
2, 58920, Note_off_c, 1, 71, 0
2, 59000, Note_on_c, 1, 52, 127
2, 59000, Note_on_c, 1, 73, 127
2, 59080, Note_off_c, 1, 52, 0
2, 59120, Note_on_c, 1, 57, 127
2, 59200, Note_off_c, 1, 57, 0
2, 59240, Note_on_c, 1, 57, 127
2, 59360, Note_off_c, 1, 57, 0
2, 59400, Note_on_c, 1, 61, 127
2, 59480, Note_off_c, 1, 61, 0
2, 59480, Note_off_c, 1, 73, 0
2, 59520, Note_on_c, 1, 55, 127
2, 59520, Note_on_c, 1, 76, 127
2, 59600, Note_off_c, 1, 55, 0
2, 59640, Note_on_c, 1, 52, 127
2, 59760, Note_off_c, 1, 52, 0
2, 59800, Note_on_c, 1, 47, 127
2, 59880, Note_off_c, 1, 47, 0
2, 59920, Note_on_c, 1, 57, 127
2, 60000, Note_off_c, 1, 57, 0
2, 60000, Note_off_c, 1, 76, 0
2, 60040, Note_on_c, 1, 54, 127
2, 60040, Note_on_c, 1, 74, 127
2, 60120, Note_off_c, 1, 54, 0
2, 60160, Note_on_c, 1, 62, 127
2, 60280, Note_off_c, 1, 62, 0
2, 60320, Note_on_c, 1, 53, 127
2, 60400, Note_off_c, 1, 53, 0
2, 60400, Note_off_c, 1, 74, 0
2, 60440, Note_on_c, 1, 62, 127
2, 60440, Note_on_c, 1, 74, 127
2, 60560, Note_on_c, 1, 53, 127
2, 60560, Note_off_c, 1, 62, 0
2, 60800, Note_off_c, 1, 53, 0
2, 60800, Note_off_c, 1, 74, 0
2, 60840, Note_on_c, 1, 55, 127
2, 60840, Note_on_c, 1, 74, 127
2, 60920, Note_off_c, 1, 55, 0
2, 60960, Note_on_c, 1, 61, 127
2, 61080, Note_off_c, 1, 61, 0
2, 61120, Note_off_c, 1, 74, 0
2, 61160, Note_on_c, 1, 57, 127
2, 61160, Note_on_c, 1, 74, 127
2, 61240, Note_off_c, 1, 57, 0
2, 61280, Note_on_c, 1, 62, 127
2, 61680, Note_on_c, 1, 54, 127
2, 61680, Note_on_c, 1, 57, 127
2, 61680, Note_off_c, 1, 62, 0
2, 61920, Note_off_c, 1, 74, 0
2, 61960, Note_on_c, 1, 73, 127
2, 62040, Note_off_c, 1, 73, 0
2, 62080, Note_on_c, 1, 74, 127
2, 62200, Note_off_c, 1, 74, 0
2, 62240, Note_on_c, 1, 73, 127
2, 62320, Note_off_c, 1, 73, 0
2, 62360, Note_on_c, 1, 74, 127
2, 62440, Note_off_c, 1, 74, 0
2, 62480, Note_on_c, 1, 73, 127
2, 62600, Note_off_c, 1, 73, 0
2, 62640, Note_on_c, 1, 73, 127
2, 62720, Note_off_c, 1, 73, 0
2, 62760, Note_on_c, 1, 75, 127
2, 62840, Note_off_c, 1, 75, 0
2, 62880, Note_on_c, 1, 76, 127
2, 63000, Note_off_c, 1, 76, 0
2, 63040, Note_on_c, 1, 75, 127
2, 63120, Note_off_c, 1, 75, 0
2, 63160, Note_on_c, 1, 76, 127
2, 63240, Note_off_c, 1, 54, 0
2, 63240, Note_off_c, 1, 57, 0
2, 63240, Note_off_c, 1, 76, 0
2, 63320, Note_on_c, 1, 52, 127
2, 63320, Note_on_c, 1, 57, 127
2, 63320, Note_on_c, 1, 73, 127
2, 63560, Note_off_c, 1, 73, 0
2, 63600, Note_on_c, 1, 73, 127
2, 63840, Note_off_c, 1, 57, 0
2, 63880, Note_on_c, 1, 57, 127
2, 63880, Note_on_c, 1, 62, 127
2, 63960, Note_off_c, 1, 62, 0
2, 64000, Note_on_c, 1, 62, 127
2, 64080, Note_off_c, 1, 62, 0
2, 64080, Note_off_c, 1, 73, 0
2, 64120, Note_on_c, 1, 73, 127
2, 64280, Note_on_c, 1, 62, 127
2, 64360, Note_off_c, 1, 57, 0
2, 64360, Note_off_c, 1, 62, 0
2, 64360, Note_off_c, 1, 73, 0
2, 64400, Note_on_c, 1, 56, 127
2, 64400, Note_on_c, 1, 71, 127
2, 64680, Note_on_c, 1, 64, 127
2, 64760, Note_off_c, 1, 64, 0
2, 64800, Note_on_c, 1, 62, 127
2, 64880, Note_off_c, 1, 52, 0
2, 64880, Note_off_c, 1, 56, 0
2, 64880, Note_off_c, 1, 62, 0
2, 64880, Note_off_c, 1, 71, 0
2, 64920, Note_on_c, 1, 57, 127
2, 64920, Note_on_c, 1, 69, 127
2, 65040, Note_off_c, 1, 57, 0
2, 65040, Note_off_c, 1, 69, 0
2, 65200, Note_on_c, 1, 52, 127
2, 65360, Note_off_c, 1, 52, 0
2, 65400, Note_on_c, 1, 52, 127
2, 65480, Note_off_c, 1, 52, 0
2, 65520, Note_on_c, 1, 42, 127
2, 65560, Note_off_c, 1, 42, 0
2, 65560, Note_on_c, 1, 45, 127
2, 65600, Note_off_c, 1, 45, 0
2, 65800, Note_on_c, 1, 45, 127
2, 65920, Note_off_c, 1, 45, 0
2, 66360, Note_on_c, 1, 33, 127
2, 66360, Note_on_c, 1, 45, 127
2, 66560, Note_off_c, 1, 33, 0
2, 66560, Note_off_c, 1, 45, 0
2, 66640, Note_on_c, 1, 35, 127
2, 66640, Note_on_c, 1, 47, 127
2, 66840, Note_off_c, 1, 35, 0
2, 66840, Note_off_c, 1, 47, 0
2, 66880, Note_on_c, 1, 33, 127
2, 66880, Note_on_c, 1, 45, 127
2, 67120, Note_off_c, 1, 33, 0
2, 67120, Note_off_c, 1, 45, 0
2, 67160, Note_on_c, 1, 64, 127
2, 67160, Note_on_c, 1, 67, 127
2, 67160, Note_on_c, 1, 69, 127
2, 67200, Note_on_c, 1, 52, 127
2, 67200, Note_off_c, 1, 64, 0
2, 67200, Note_off_c, 1, 67, 0
2, 67200, Note_off_c, 1, 69, 0
2, 67240, Note_off_c, 1, 52, 0
2, 67240, Note_on_c, 1, 57, 127
2, 67240, Note_on_c, 1, 64, 127
2, 67240, Note_on_c, 1, 68, 127
2, 67280, Note_off_c, 1, 57, 0
2, 67280, Note_off_c, 1, 64, 0
2, 67280, Note_off_c, 1, 68, 0
2, 67320, Note_on_c, 1, 67, 127
2, 67320, Note_on_c, 1, 69, 127
2, 67320, Note_on_c, 1, 73, 127
2, 67360, Note_off_c, 1, 67, 0
2, 67360, Note_off_c, 1, 69, 0
2, 67360, Note_off_c, 1, 73, 0
2, 67440, Note_on_c, 1, 67, 127
2, 67440, Note_on_c, 1, 69, 127
2, 67480, Note_off_c, 1, 67, 0
2, 67480, Note_off_c, 1, 69, 0
2, 67520, Note_on_c, 1, 61, 127
2, 67520, Note_on_c, 1, 67, 127
2, 67520, Note_on_c, 1, 69, 127
2, 67560, Note_off_c, 1, 61, 0
2, 67560, Note_off_c, 1, 67, 0
2, 67560, Note_off_c, 1, 69, 0
2, 67640, Note_on_c, 1, 67, 127
2, 67640, Note_on_c, 1, 70, 127
2, 67640, Note_on_c, 1, 76, 127
2, 67680, Note_off_c, 1, 67, 0
2, 67680, Note_off_c, 1, 70, 0
2, 67680, Note_off_c, 1, 76, 0
2, 67800, Note_on_c, 1, 57, 127
2, 67840, Note_off_c, 1, 57, 0
2, 67920, Note_on_c, 1, 57, 127
2, 67960, Note_off_c, 1, 57, 0
2, 68040, Note_on_c, 1, 56, 127
2, 68040, Note_on_c, 1, 62, 127
2, 68040, Note_on_c, 1, 65, 127
2, 68160, Note_off_c, 1, 56, 0
2, 68160, Note_off_c, 1, 62, 0
2, 68160, Note_off_c, 1, 65, 0
2, 70400, Note_on_c, 1, 68, 127
2, 70680, Note_off_c, 1, 68, 0
2, 70800, Note_on_c, 1, 68, 127
2, 71040, Note_off_c, 1, 68, 0
2, 71080, Note_on_c, 1, 71, 127
2, 71120, Note_off_c, 1, 71, 0
2, 71200, Note_on_c, 1, 68, 127
2, 71240, Note_off_c, 1, 68, 0
2, 71360, Note_on_c, 1, 68, 127
2, 71840, Note_off_c, 1, 68, 0
2, 71880, Note_on_c, 1, 70, 127
2, 72360, Note_off_c, 1, 70, 0
2, 72400, Note_on_c, 1, 71, 127
2, 72640, Note_off_c, 1, 71, 0
2, 72680, Note_on_c, 1, 70, 127
2, 72880, Note_off_c, 1, 70, 0
2, 72920, Note_on_c, 1, 68, 127
2, 73120, Note_off_c, 1, 68, 0
2, 73160, Note_on_c, 1, 68, 127
2, 73200, Note_off_c, 1, 68, 0
2, 73240, Note_on_c, 1, 70, 127
2, 73440, Note_off_c, 1, 70, 0
2, 73480, Note_on_c, 1, 73, 127
2, 73720, Note_off_c, 1, 73, 0
2, 73760, Note_on_c, 1, 70, 127
2, 73960, Note_off_c, 1, 70, 0
2, 74000, Note_on_c, 1, 68, 127
2, 74240, Note_off_c, 1, 68, 0
2, 74280, Note_on_c, 1, 70, 127
2, 74520, Note_off_c, 1, 70, 0
2, 74560, Note_on_c, 1, 71, 127
2, 74760, Note_off_c, 1, 71, 0
2, 74800, Note_on_c, 1, 72, 127
2, 75040, Note_off_c, 1, 72, 0
2, 75120, Note_on_c, 1, 70, 127
2, 75360, Note_off_c, 1, 70, 0
2, 75400, Note_on_c, 1, 68, 127
2, 76120, Note_off_c, 1, 68, 0
2, 76160, Note_on_c, 1, 70, 127
2, 76400, Note_off_c, 1, 70, 0
2, 76440, Note_on_c, 1, 68, 127
2, 76720, Note_on_c, 1, 47, 127
2, 76920, Note_off_c, 1, 47, 0
2, 76960, Note_on_c, 1, 52, 127
2, 77200, Note_off_c, 1, 52, 0
2, 77200, Note_off_c, 1, 68, 0
2, 77280, Note_on_c, 1, 44, 127
2, 77280, Note_on_c, 1, 68, 127
2, 77520, Note_off_c, 1, 44, 0
2, 77560, Note_on_c, 1, 51, 127
2, 77640, Note_off_c, 1, 51, 0
2, 77680, Note_on_c, 1, 52, 127
2, 77760, Note_off_c, 1, 52, 0
2, 77760, Note_off_c, 1, 68, 0
2, 77800, Note_on_c, 1, 54, 127
2, 77800, Note_on_c, 1, 69, 127
2, 78040, Note_off_c, 1, 54, 0
2, 78080, Note_on_c, 1, 57, 127
2, 78320, Note_off_c, 1, 57, 0
2, 78360, Note_on_c, 1, 54, 127
2, 78560, Note_off_c, 1, 54, 0
2, 78600, Note_on_c, 1, 52, 127
2, 78600, Note_on_c, 1, 68, 127
2, 78600, Note_off_c, 1, 69, 0
2, 78840, Note_off_c, 1, 52, 0
2, 78840, Note_off_c, 1, 68, 0
2, 78880, Note_on_c, 1, 49, 127
2, 78880, Note_on_c, 1, 77, 127
2, 79080, Note_off_c, 1, 49, 0
2, 79120, Note_on_c, 1, 56, 127
2, 79360, Note_off_c, 1, 56, 0
2, 79400, Note_off_c, 1, 77, 0
2, 79440, Note_on_c, 1, 49, 127
2, 79440, Note_on_c, 1, 77, 127
2, 79880, Note_off_c, 1, 49, 0
2, 79920, Note_on_c, 1, 49, 127
2, 80160, Note_off_c, 1, 49, 0
2, 80200, Note_on_c, 1, 53, 127
2, 80400, Note_off_c, 1, 53, 0
2, 80440, Note_on_c, 1, 61, 127
2, 80720, Note_on_c, 1, 49, 127
2, 80720, Note_off_c, 1, 61, 0
2, 80960, Note_off_c, 1, 49, 0
2, 80960, Note_off_c, 1, 77, 0
2, 81000, Note_on_c, 1, 49, 127
2, 81000, Note_on_c, 1, 82, 127
2, 81200, Note_off_c, 1, 49, 0
2, 81240, Note_on_c, 1, 56, 127
2, 81480, Note_off_c, 1, 56, 0
2, 81480, Note_off_c, 1, 82, 0
2, 81520, Note_on_c, 1, 39, 127
2, 81520, Note_on_c, 1, 80, 127
2, 81680, Note_off_c, 1, 39, 0
2, 81680, Note_off_c, 1, 80, 0
2, 81720, Note_on_c, 1, 39, 127
2, 81720, Note_on_c, 1, 80, 127
2, 81800, Note_off_c, 1, 39, 0
2, 81800, Note_off_c, 1, 80, 0
2, 81840, Note_on_c, 1, 44, 127
2, 81840, Note_on_c, 1, 78, 127
2, 81960, Note_off_c, 1, 44, 0
2, 82120, Note_on_c, 1, 53, 127
2, 82320, Note_off_c, 1, 53, 0
2, 82320, Note_off_c, 1, 78, 0
2, 82360, Note_on_c, 1, 61, 127
2, 82360, Note_on_c, 1, 77, 127
2, 82600, Note_off_c, 1, 61, 0
2, 82600, Note_off_c, 1, 77, 0
2, 82640, Note_on_c, 1, 46, 127
2, 82640, Note_on_c, 1, 77, 127
2, 82840, Note_off_c, 1, 46, 0
2, 82880, Note_on_c, 1, 39, 127
2, 83120, Note_off_c, 1, 39, 0
2, 83120, Note_off_c, 1, 77, 0
2, 83160, Note_on_c, 1, 46, 127
2, 83160, Note_on_c, 1, 75, 127
2, 83400, Note_off_c, 1, 46, 0
2, 83400, Note_off_c, 1, 75, 0
2, 83440, Note_on_c, 1, 61, 127
2, 83440, Note_on_c, 1, 77, 127
2, 83640, Note_off_c, 1, 61, 0
2, 83640, Note_off_c, 1, 77, 0
2, 83680, Note_on_c, 1, 53, 127
2, 83680, Note_on_c, 1, 82, 127
2, 83840, Note_off_c, 1, 53, 0
2, 83840, Note_off_c, 1, 82, 0
2, 83880, Note_on_c, 1, 53, 127
2, 83880, Note_on_c, 1, 82, 127
2, 83960, Note_off_c, 1, 53, 0
2, 84000, Note_on_c, 1, 56, 127
2, 84200, Note_off_c, 1, 56, 0
2, 84200, Note_on_c, 1, 80, 127
2, 84200, Note_off_c, 1, 82, 0
2, 84240, Note_on_c, 1, 49, 127
2, 84480, Note_off_c, 1, 49, 0
2, 84480, Note_off_c, 1, 80, 0
2, 84520, Note_on_c, 1, 53, 127
2, 84520, Note_on_c, 1, 75, 127
2, 84760, Note_off_c, 1, 53, 0
2, 84760, Note_off_c, 1, 75, 0
2, 84800, Note_on_c, 1, 54, 127
2, 84800, Note_on_c, 1, 70, 127
2, 85000, Note_off_c, 1, 54, 0
2, 85000, Note_off_c, 1, 70, 0
2, 85040, Note_on_c, 1, 58, 127
2, 85040, Note_on_c, 1, 70, 127
2, 85280, Note_off_c, 1, 58, 0
2, 85280, Note_off_c, 1, 70, 0
2, 85320, Note_on_c, 1, 46, 127
2, 85320, Note_on_c, 1, 73, 127
2, 85520, Note_off_c, 1, 46, 0
2, 85520, Note_off_c, 1, 73, 0
2, 85560, Note_on_c, 1, 51, 127
2, 85560, Note_on_c, 1, 73, 127
2, 85800, Note_off_c, 1, 51, 0
2, 85800, Note_off_c, 1, 73, 0
2, 85880, Note_on_c, 1, 51, 127
2, 85880, Note_on_c, 1, 58, 127
2, 85880, Note_on_c, 1, 66, 127
2, 85880, Note_on_c, 1, 72, 127
2, 86080, Note_off_c, 1, 66, 0
2, 86120, Note_off_c, 1, 51, 0
2, 86120, Note_off_c, 1, 58, 0
2, 86120, Note_off_c, 1, 72, 0
2, 86160, Note_on_c, 1, 54, 127
2, 86160, Note_on_c, 1, 58, 127
2, 86160, Note_on_c, 1, 61, 127
2, 86360, Note_off_c, 1, 54, 0
2, 86360, Note_off_c, 1, 58, 0
2, 86360, Note_off_c, 1, 61, 0
2, 86400, Note_on_c, 1, 53, 127
2, 86400, Note_on_c, 1, 56, 127
2, 86400, Note_on_c, 1, 61, 127
2, 86400, Note_on_c, 1, 73, 127
2, 86640, Note_off_c, 1, 53, 0
2, 86640, Note_off_c, 1, 56, 0
2, 86640, Note_off_c, 1, 61, 0
2, 86640, Note_off_c, 1, 73, 0
2, 86680, Note_on_c, 1, 53, 127
2, 86680, Note_on_c, 1, 56, 127
2, 86680, Note_on_c, 1, 61, 127
2, 86680, Note_on_c, 1, 73, 127
2, 86880, Note_off_c, 1, 73, 0
2, 86920, Note_off_c, 1, 53, 0
2, 86920, Note_off_c, 1, 56, 0
2, 86920, Note_off_c, 1, 61, 0
2, 86960, Note_on_c, 1, 53, 127
2, 86960, Note_on_c, 1, 56, 127
2, 86960, Note_on_c, 1, 61, 127
2, 86960, Note_on_c, 1, 73, 127
2, 87160, Note_off_c, 1, 53, 0
2, 87160, Note_off_c, 1, 56, 0
2, 87160, Note_off_c, 1, 61, 0
2, 87160, Note_off_c, 1, 73, 0
2, 87200, Note_on_c, 1, 53, 127
2, 87200, Note_on_c, 1, 56, 127
2, 87200, Note_on_c, 1, 61, 127
2, 87200, Note_on_c, 1, 73, 127
2, 87440, Note_off_c, 1, 53, 0
2, 87440, Note_off_c, 1, 56, 0
2, 87440, Note_off_c, 1, 61, 0
2, 87440, Note_off_c, 1, 73, 0
2, 87480, Note_on_c, 1, 49, 127
2, 87480, Note_on_c, 1, 56, 127
2, 87480, Note_on_c, 1, 61, 127
2, 87480, Note_on_c, 1, 65, 127
2, 87480, Note_on_c, 1, 68, 127
2, 87680, Note_off_c, 1, 49, 0
2, 87680, Note_off_c, 1, 56, 0
2, 87680, Note_off_c, 1, 61, 0
2, 87680, Note_off_c, 1, 65, 0
2, 87680, Note_off_c, 1, 68, 0
2, 87800, Note_on_c, 1, 49, 127
2, 87800, Note_on_c, 1, 56, 127
2, 87800, Note_on_c, 1, 61, 127
2, 87800, Note_on_c, 1, 65, 127
2, 87800, Note_on_c, 1, 68, 127
2, 88000, Note_off_c, 1, 49, 0
2, 88000, Note_off_c, 1, 56, 0
2, 88000, Note_off_c, 1, 61, 0
2, 88000, Note_off_c, 1, 65, 0
2, 88000, Note_off_c, 1, 68, 0
2, 88040, Note_on_c, 1, 50, 127
2, 88040, Note_on_c, 1, 56, 127
2, 88040, Note_on_c, 1, 59, 127
2, 88040, Note_on_c, 1, 65, 127
2, 88040, Note_on_c, 1, 68, 127
2, 88280, Note_off_c, 1, 50, 0
2, 88280, Note_off_c, 1, 56, 0
2, 88280, Note_off_c, 1, 59, 0
2, 88280, Note_off_c, 1, 65, 0
2, 88280, Note_off_c, 1, 68, 0
2, 88320, Note_on_c, 1, 50, 127
2, 88320, Note_on_c, 1, 56, 127
2, 88320, Note_on_c, 1, 59, 127
2, 88320, Note_on_c, 1, 65, 127
2, 88320, Note_on_c, 1, 68, 127
2, 88560, Note_off_c, 1, 50, 0
2, 88560, Note_off_c, 1, 56, 0
2, 88560, Note_off_c, 1, 59, 0
2, 88560, Note_off_c, 1, 65, 0
2, 88560, Note_off_c, 1, 68, 0
2, 88600, Note_on_c, 1, 50, 127
2, 88600, Note_on_c, 1, 56, 127
2, 88600, Note_on_c, 1, 59, 127
2, 88600, Note_on_c, 1, 65, 127
2, 88600, Note_on_c, 1, 68, 127
2, 88680, Note_off_c, 1, 50, 0
2, 88680, Note_off_c, 1, 56, 0
2, 88680, Note_off_c, 1, 59, 0
2, 88680, Note_off_c, 1, 65, 0
2, 88680, Note_off_c, 1, 68, 0
2, 88720, Note_on_c, 1, 50, 127
2, 88720, Note_on_c, 1, 56, 127
2, 88720, Note_on_c, 1, 59, 127
2, 88720, Note_on_c, 1, 65, 127
2, 88720, Note_on_c, 1, 68, 127
2, 88800, Note_off_c, 1, 50, 0
2, 88800, Note_off_c, 1, 56, 0
2, 88800, Note_off_c, 1, 59, 0
2, 88800, Note_off_c, 1, 65, 0
2, 88800, Note_off_c, 1, 68, 0
2, 88840, Note_on_c, 1, 50, 127
2, 88840, Note_on_c, 1, 56, 127
2, 88840, Note_on_c, 1, 59, 127
2, 88840, Note_on_c, 1, 65, 127
2, 88840, Note_on_c, 1, 68, 127
2, 88960, Note_off_c, 1, 50, 0
2, 88960, Note_off_c, 1, 56, 0
2, 88960, Note_off_c, 1, 59, 0
2, 88960, Note_off_c, 1, 65, 0
2, 88960, Note_off_c, 1, 68, 0
2, 89000, Note_on_c, 1, 50, 127
2, 89000, Note_on_c, 1, 56, 127
2, 89000, Note_on_c, 1, 59, 127
2, 89000, Note_on_c, 1, 65, 127
2, 89000, Note_on_c, 1, 68, 127
2, 89080, Note_off_c, 1, 50, 0
2, 89080, Note_off_c, 1, 56, 0
2, 89080, Note_off_c, 1, 59, 0
2, 89080, Note_off_c, 1, 65, 0
2, 89080, Note_off_c, 1, 68, 0
2, 89120, Note_on_c, 1, 50, 127
2, 89120, Note_on_c, 1, 56, 127
2, 89120, Note_on_c, 1, 59, 127
2, 89120, Note_on_c, 1, 65, 127
2, 89120, Note_on_c, 1, 68, 127
2, 89200, Note_off_c, 1, 50, 0
2, 89200, Note_off_c, 1, 56, 0
2, 89200, Note_off_c, 1, 59, 0
2, 89200, Note_off_c, 1, 65, 0
2, 89200, Note_off_c, 1, 68, 0
2, 89240, Note_on_c, 1, 51, 127
2, 89400, Note_on_c, 1, 65, 127
2, 89600, Note_off_c, 1, 51, 0
2, 89600, Note_off_c, 1, 65, 0
2, 89640, Note_on_c, 1, 51, 127
2, 89640, Note_on_c, 1, 60, 127
2, 89640, Note_on_c, 1, 66, 127
2, 89800, Note_off_c, 1, 51, 0
2, 89800, Note_off_c, 1, 60, 0
2, 89800, Note_off_c, 1, 66, 0
2, 89840, Note_on_c, 1, 51, 127
2, 89840, Note_on_c, 1, 60, 127
2, 89840, Note_on_c, 1, 66, 127
2, 89920, Note_off_c, 1, 51, 0
2, 89960, Note_on_c, 1, 51, 127
2, 90440, Note_off_c, 1, 51, 0
2, 90440, Note_off_c, 1, 60, 0
2, 90440, Note_off_c, 1, 66, 0
2, 90480, Note_on_c, 1, 49, 127
2, 90480, Note_on_c, 1, 61, 127
2, 90480, Note_on_c, 1, 65, 127
2, 90720, Note_off_c, 1, 49, 0
2, 90720, Note_off_c, 1, 61, 0
2, 90720, Note_off_c, 1, 65, 0
2, 90760, Note_on_c, 1, 51, 127
2, 90760, Note_on_c, 1, 56, 127
2, 90760, Note_on_c, 1, 60, 127
2, 90760, Note_on_c, 1, 66, 127
2, 91000, Note_off_c, 1, 51, 0
2, 91000, Note_off_c, 1, 56, 0
2, 91000, Note_off_c, 1, 60, 0
2, 91000, Note_off_c, 1, 66, 0
2, 91040, Note_on_c, 1, 49, 127
2, 91040, Note_on_c, 1, 61, 127
2, 91040, Note_on_c, 1, 65, 127
2, 91240, Note_off_c, 1, 49, 0
2, 91240, Note_off_c, 1, 61, 0
2, 91240, Note_off_c, 1, 65, 0
2, 91280, Note_on_c, 1, 51, 127
2, 91280, Note_on_c, 1, 56, 127
2, 91280, Note_on_c, 1, 60, 127
2, 91280, Note_on_c, 1, 66, 127
2, 91520, Note_off_c, 1, 56, 0
2, 91520, Note_off_c, 1, 60, 0
2, 91520, Note_off_c, 1, 66, 0
2, 91560, Note_on_c, 1, 60, 127
2, 91560, Note_on_c, 1, 63, 127
2, 91800, Note_off_c, 1, 51, 0
2, 91800, Note_off_c, 1, 60, 0
2, 91800, Note_off_c, 1, 63, 0
2, 91880, Note_on_c, 1, 48, 127
2, 91880, Note_on_c, 1, 63, 127
2, 91880, Note_on_c, 1, 68, 127
2, 92080, Note_off_c, 1, 48, 0
2, 92120, Note_on_c, 1, 48, 127
2, 92360, Note_off_c, 1, 48, 0
2, 92360, Note_off_c, 1, 68, 0
2, 92400, Note_on_c, 1, 49, 127
2, 92400, Note_on_c, 1, 66, 127
2, 92400, Note_on_c, 1, 70, 127
2, 92640, Note_off_c, 1, 49, 0
2, 92640, Note_off_c, 1, 66, 0
2, 92640, Note_off_c, 1, 70, 0
2, 92680, Note_on_c, 1, 44, 127
2, 92680, Note_on_c, 1, 53, 127
2, 92680, Note_on_c, 1, 56, 127
2, 92680, Note_off_c, 1, 63, 0
2, 92680, Note_on_c, 1, 68, 127
2, 93440, Note_off_c, 1, 44, 0
2, 93440, Note_off_c, 1, 53, 0
2, 93440, Note_off_c, 1, 56, 0
2, 93440, Note_off_c, 1, 68, 0
2, 93480, Note_on_c, 1, 44, 127
2, 93480, Note_on_c, 1, 60, 127
2, 93480, Note_on_c, 1, 63, 127
2, 93480, Note_on_c, 1, 66, 127
2, 93880, Note_off_c, 1, 44, 0
2, 93880, Note_off_c, 1, 60, 0
2, 93880, Note_off_c, 1, 63, 0
2, 93880, Note_off_c, 1, 66, 0
2, 93920, Note_on_c, 1, 44, 127
2, 93920, Note_on_c, 1, 60, 127
2, 93920, Note_on_c, 1, 63, 127
2, 93920, Note_on_c, 1, 66, 127
2, 95640, Note_off_c, 1, 60, 0
2, 95640, Note_off_c, 1, 63, 0
2, 95640, Note_off_c, 1, 66, 0
2, 95680, Note_off_c, 1, 44, 0
2, 95720, Note_on_c, 1, 44, 127
2, 95720, Note_on_c, 1, 53, 127
2, 95720, Note_on_c, 1, 61, 127
2, 96200, Note_off_c, 1, 53, 0
2, 96200, Note_off_c, 1, 61, 0
2, 96240, Note_on_c, 1, 49, 127
2, 96240, Note_on_c, 1, 53, 127
2, 96240, Note_on_c, 1, 61, 127
2, 96680, Note_off_c, 1, 44, 0
2, 96720, Note_on_c, 1, 44, 127
2, 96720, Note_off_c, 1, 49, 0
2, 96720, Note_off_c, 1, 53, 0
2, 96720, Note_off_c, 1, 61, 0
2, 96760, Note_on_c, 1, 49, 127
2, 96760, Note_on_c, 1, 53, 127
2, 96760, Note_on_c, 1, 61, 127
2, 97000, Note_off_c, 1, 49, 0
2, 97000, Note_off_c, 1, 53, 0
2, 97000, Note_off_c, 1, 61, 0
2, 97040, Note_off_c, 1, 44, 0
2, 97040, Note_on_c, 1, 49, 127
2, 97040, Note_on_c, 1, 57, 127
2, 97040, Note_on_c, 1, 66, 127
2, 97040, Note_on_c, 1, 78, 127
2, 97280, Note_off_c, 1, 57, 0
2, 97280, Note_off_c, 1, 66, 0
2, 97280, Note_off_c, 1, 78, 0
2, 97320, Note_on_c, 1, 35, 127
2, 97320, Note_off_c, 1, 49, 0
2, 97320, Note_on_c, 1, 56, 127
2, 97320, Note_on_c, 1, 61, 127
2, 97520, Note_off_c, 1, 35, 0
2, 97520, Note_off_c, 1, 61, 0
2, 97560, Note_off_c, 1, 56, 0
2, 97600, Note_on_c, 1, 35, 127
2, 97600, Note_on_c, 1, 56, 127
2, 97600, Note_on_c, 1, 61, 127
2, 97840, Note_off_c, 1, 35, 0
2, 97840, Note_on_c, 1, 54, 127
2, 97840, Note_off_c, 1, 56, 0
2, 97840, Note_off_c, 1, 61, 0
2, 97880, Note_on_c, 1, 35, 127
2, 97880, Note_off_c, 1, 54, 0
2, 97880, Note_on_c, 1, 56, 127
2, 97880, Note_on_c, 1, 61, 127
2, 98120, Note_off_c, 1, 35, 0
2, 98120, Note_off_c, 1, 61, 0
2, 98160, Note_on_c, 1, 47, 127
2, 98160, Note_on_c, 1, 59, 127
2, 98160, Note_on_c, 1, 63, 127
2, 98360, Note_off_c, 1, 47, 0
2, 98360, Note_off_c, 1, 59, 0
2, 98360, Note_off_c, 1, 63, 0
2, 98400, Note_on_c, 1, 35, 127
2, 98400, Note_on_c, 1, 61, 127
2, 98640, Note_off_c, 1, 35, 0
2, 98640, Note_off_c, 1, 61, 0
2, 98680, Note_on_c, 1, 40, 127
2, 98680, Note_on_c, 1, 59, 127
2, 99200, Note_on_c, 1, 52, 127
2, 99440, Note_off_c, 1, 52, 0
2, 99480, Note_off_c, 1, 40, 0
2, 99480, Note_off_c, 1, 56, 0
2, 99480, Note_off_c, 1, 59, 0
2, 99520, Note_on_c, 1, 40, 127
2, 99520, Note_on_c, 1, 56, 127
2, 99520, Note_on_c, 1, 59, 127
2, 99760, Note_off_c, 1, 59, 0
2, 99800, Note_on_c, 1, 52, 127
2, 99800, Note_on_c, 1, 59, 127
2, 100840, Note_off_c, 1, 40, 0
2, 100840, Note_off_c, 1, 52, 0
2, 100840, Note_off_c, 1, 56, 0
2, 100840, Note_off_c, 1, 59, 0
2, 100880, Note_on_c, 1, 40, 127
2, 100880, Note_on_c, 1, 56, 127
2, 100880, Note_on_c, 1, 61, 127
2, 101360, Note_off_c, 1, 40, 0
2, 101360, Note_off_c, 1, 61, 0
2, 101400, Note_on_c, 1, 49, 127
2, 101400, Note_on_c, 1, 53, 127
2, 101400, Note_on_c, 1, 61, 127
2, 101680, Note_off_c, 1, 49, 0
2, 101680, Note_off_c, 1, 53, 0
2, 101680, Note_off_c, 1, 56, 0
2, 101680, Note_off_c, 1, 61, 0
2, 101720, Note_on_c, 1, 49, 127
2, 101720, Note_on_c, 1, 53, 127
2, 101720, Note_on_c, 1, 56, 127
2, 101720, Note_on_c, 1, 61, 127
2, 102200, Note_on_c, 1, 37, 127
2, 102200, Note_off_c, 1, 49, 0
2, 102200, Note_off_c, 1, 53, 0
2, 102200, Note_off_c, 1, 56, 0
2, 102240, Note_off_c, 1, 37, 0
2, 102240, Note_on_c, 1, 49, 127
2, 102240, Note_on_c, 1, 56, 127
2, 102240, Note_on_c, 1, 66, 127
2, 102480, Note_off_c, 1, 49, 0
2, 102480, Note_off_c, 1, 56, 0
2, 102480, Note_off_c, 1, 61, 0
2, 102480, Note_off_c, 1, 66, 0
2, 104040, Note_on_c, 1, 68, 127
2, 105040, Note_off_c, 1, 68, 0
2, 105080, Note_on_c, 1, 68, 127
2, 105120, Note_off_c, 1, 68, 0
2, 105160, Note_on_c, 1, 71, 127
2, 105360, Note_off_c, 1, 71, 0
2, 107080, Note_on_c, 1, 57, 127
2, 107080, Note_on_c, 1, 64, 127
2, 107080, Note_on_c, 1, 73, 127
2, 107560, Note_off_c, 1, 57, 0
2, 107560, Note_off_c, 1, 64, 0
2, 107560, Note_off_c, 1, 73, 0
2, 107600, Note_on_c, 1, 57, 127
2, 107600, Note_on_c, 1, 62, 127
2, 107600, Note_on_c, 1, 66, 127
2, 107600, Note_on_c, 1, 69, 127
2, 108080, Note_off_c, 1, 57, 0
2, 108080, Note_off_c, 1, 62, 0
2, 108080, Note_off_c, 1, 66, 0
2, 108080, Note_off_c, 1, 69, 0
2, 108120, Note_on_c, 1, 49, 127
2, 108120, Note_on_c, 1, 57, 127
2, 108120, Note_on_c, 1, 64, 127
2, 108120, Note_on_c, 1, 71, 127
2, 108360, Note_off_c, 1, 71, 0
2, 108600, Note_off_c, 1, 49, 0
2, 108600, Note_off_c, 1, 57, 0
2, 108600, Note_off_c, 1, 64, 0
2, 108640, Note_on_c, 1, 45, 127
2, 108640, Note_on_c, 1, 57, 127
2, 108640, Note_on_c, 1, 72, 127
2, 108640, Note_on_c, 1, 74, 127
2, 108640, Note_on_c, 1, 78, 127
2, 109520, Note_off_c, 1, 45, 0
2, 109520, Note_off_c, 1, 57, 0
2, 109520, Note_off_c, 1, 72, 0
2, 109520, Note_off_c, 1, 74, 0
2, 109520, Note_off_c, 1, 78, 0
2, 109560, Note_on_c, 1, 45, 127
2, 109560, Note_on_c, 1, 57, 127
2, 109560, Note_on_c, 1, 72, 127
2, 109560, Note_on_c, 1, 74, 127
2, 109560, Note_on_c, 1, 78, 127
2, 110760, Note_off_c, 1, 45, 0
2, 110760, Note_off_c, 1, 57, 0
2, 110760, Note_off_c, 1, 72, 0
2, 110760, Note_off_c, 1, 74, 0
2, 110760, Note_off_c, 1, 78, 0
2, 110840, Note_on_c, 1, 50, 127
2, 110840, Note_on_c, 1, 57, 127
2, 110840, Note_on_c, 1, 62, 127
2, 110840, Note_on_c, 1, 66, 127
2, 110840, Note_on_c, 1, 69, 127
2, 111160, Note_off_c, 1, 50, 0
2, 111160, Note_off_c, 1, 57, 0
2, 111160, Note_off_c, 1, 62, 0
2, 111160, Note_off_c, 1, 66, 0
2, 111160, Note_off_c, 1, 69, 0
2, 111360, Note_on_c, 1, 50, 127
2, 111360, Note_on_c, 1, 57, 127
2, 111360, Note_on_c, 1, 62, 127
2, 111360, Note_on_c, 1, 66, 127
2, 111560, Note_off_c, 1, 66, 0
2, 111640, Note_on_c, 1, 66, 127
2, 111800, Note_off_c, 1, 50, 0
2, 111800, Note_off_c, 1, 57, 0
2, 111800, Note_off_c, 1, 62, 0
2, 111800, Note_off_c, 1, 66, 0
2, 111840, Note_on_c, 1, 50, 127
2, 111840, Note_on_c, 1, 57, 127
2, 111840, Note_on_c, 1, 62, 127
2, 111840, Note_on_c, 1, 66, 127
2, 112040, Note_off_c, 1, 50, 0
2, 112040, Note_off_c, 1, 62, 0
2, 112040, Note_off_c, 1, 66, 0
2, 112200, Note_on_c, 1, 50, 127
2, 112200, Note_on_c, 1, 62, 127
2, 112200, Note_on_c, 1, 66, 127
2, 112440, Note_off_c, 1, 66, 0
2, 112480, Note_on_c, 1, 66, 127
2, 112680, Note_on_c, 1, 54, 127
2, 112680, Note_off_c, 1, 57, 0
2, 112680, Note_off_c, 1, 62, 0
2, 112720, Note_off_c, 1, 50, 0
2, 112720, Note_off_c, 1, 54, 0
2, 112720, Note_on_c, 1, 57, 127
2, 112720, Note_off_c, 1, 66, 0
2, 112760, Note_on_c, 1, 50, 127
2, 112760, Note_on_c, 1, 62, 127
2, 112760, Note_on_c, 1, 66, 127
2, 113240, Note_off_c, 1, 50, 0
2, 113240, Note_off_c, 1, 57, 0
2, 113240, Note_off_c, 1, 62, 0
2, 113240, Note_off_c, 1, 66, 0
2, 113280, Note_on_c, 1, 45, 127
2, 113280, Note_on_c, 1, 57, 127
2, 113280, Note_on_c, 1, 61, 127
2, 113280, Note_on_c, 1, 64, 127
2, 113640, Note_off_c, 1, 45, 0
2, 113640, Note_off_c, 1, 61, 0
2, 113640, Note_off_c, 1, 64, 0
2, 113680, Note_on_c, 1, 50, 127
2, 113680, Note_on_c, 1, 62, 127
2, 113680, Note_on_c, 1, 66, 127
2, 113800, Note_off_c, 1, 50, 0
2, 113800, Note_off_c, 1, 57, 0
2, 113800, Note_off_c, 1, 62, 0
2, 113800, Note_off_c, 1, 66, 0
2, 113880, Note_on_c, 1, 50, 127
2, 113880, Note_on_c, 1, 57, 127
2, 113880, Note_on_c, 1, 62, 127
2, 113880, Note_on_c, 1, 66, 127
2, 114360, Note_off_c, 1, 50, 0
2, 114360, Note_off_c, 1, 57, 0
2, 114360, Note_off_c, 1, 62, 0
2, 114360, Note_off_c, 1, 66, 0
2, 114400, Note_on_c, 1, 45, 127
2, 114400, Note_on_c, 1, 52, 127
2, 114400, Note_on_c, 1, 61, 127
2, 114400, Note_on_c, 1, 67, 127
2, 114640, Note_off_c, 1, 52, 0
2, 114640, Note_off_c, 1, 67, 0
2, 114680, Note_on_c, 1, 55, 127
2, 114680, Note_on_c, 1, 64, 127
2, 114880, Note_off_c, 1, 45, 0
2, 114880, Note_off_c, 1, 55, 0
2, 114880, Note_off_c, 1, 61, 0
2, 114880, Note_off_c, 1, 64, 0
2, 114920, Note_on_c, 1, 45, 127
2, 114920, Note_on_c, 1, 52, 127
2, 114920, Note_on_c, 1, 57, 127
2, 114920, Note_on_c, 1, 60, 127
2, 115440, Note_off_c, 1, 45, 0
2, 115440, Note_off_c, 1, 52, 0
2, 115440, Note_off_c, 1, 57, 0
2, 115440, Note_off_c, 1, 60, 0
2, 115480, Note_on_c, 1, 50, 127
2, 115480, Note_on_c, 1, 54, 127
2, 115480, Note_on_c, 1, 62, 127
2, 115680, Note_off_c, 1, 54, 0
2, 115880, Note_off_c, 1, 50, 0
2, 115880, Note_off_c, 1, 62, 0
2, 115920, Note_on_c, 1, 50, 127
2, 115920, Note_on_c, 1, 62, 127
2, 116000, Note_off_c, 1, 50, 0
2, 116000, Note_off_c, 1, 62, 0
2, 116040, Note_on_c, 1, 55, 127
2, 116040, Note_on_c, 1, 62, 127
2, 116040, Note_on_c, 1, 67, 127
2, 116040, Note_on_c, 1, 71, 127
2, 116520, Note_off_c, 1, 55, 0
2, 116520, Note_off_c, 1, 62, 0
2, 116520, Note_off_c, 1, 67, 0
2, 116520, Note_off_c, 1, 71, 0
2, 116560, Note_on_c, 1, 50, 127
2, 116560, Note_on_c, 1, 59, 127
2, 116560, Note_on_c, 1, 66, 127
2, 116560, Note_on_c, 1, 71, 127
2, 117080, Note_off_c, 1, 50, 0
2, 117080, Note_off_c, 1, 59, 0
2, 117080, Note_off_c, 1, 66, 0
2, 117080, Note_off_c, 1, 71, 0
2, 117120, Note_on_c, 1, 50, 127
2, 117120, Note_on_c, 1, 57, 127
2, 117120, Note_on_c, 1, 66, 127
2, 117120, Note_on_c, 1, 72, 127
2, 117600, Note_off_c, 1, 50, 0
2, 117600, Note_off_c, 1, 57, 0
2, 117600, Note_off_c, 1, 66, 0
2, 117600, Note_off_c, 1, 72, 0
2, 117640, Note_on_c, 1, 50, 127
2, 117640, Note_on_c, 1, 57, 127
2, 117640, Note_on_c, 1, 66, 127
2, 117640, Note_on_c, 1, 72, 127
2, 117960, Note_off_c, 1, 50, 0
2, 117960, Note_off_c, 1, 57, 0
2, 117960, Note_off_c, 1, 66, 0
2, 117960, Note_off_c, 1, 72, 0
2, 118000, Note_on_c, 1, 50, 127
2, 118000, Note_on_c, 1, 57, 127
2, 118000, Note_on_c, 1, 66, 127
2, 118000, Note_on_c, 1, 72, 127
2, 118200, Note_off_c, 1, 50, 0
2, 118200, Note_off_c, 1, 57, 0
2, 118200, Note_off_c, 1, 66, 0
2, 118200, Note_off_c, 1, 72, 0
2, 118240, Note_on_c, 1, 50, 127
2, 118240, Note_on_c, 1, 57, 127
2, 118240, Note_on_c, 1, 66, 127
2, 118240, Note_on_c, 1, 72, 127
2, 118760, Note_off_c, 1, 50, 0
2, 118760, Note_off_c, 1, 57, 0
2, 118760, Note_off_c, 1, 66, 0
2, 118760, Note_off_c, 1, 72, 0
2, 118800, Note_on_c, 1, 50, 127
2, 118800, Note_on_c, 1, 54, 127
2, 118800, Note_on_c, 1, 62, 127
2, 118800, Note_on_c, 1, 69, 127
2, 119000, Note_off_c, 1, 62, 0
2, 119040, Note_on_c, 1, 60, 127
2, 119280, Note_off_c, 1, 50, 0
2, 119280, Note_off_c, 1, 54, 0
2, 119280, Note_off_c, 1, 60, 0
2, 119280, Note_off_c, 1, 69, 0
2, 119320, Note_on_c, 1, 55, 127
2, 119320, Note_on_c, 1, 59, 127
2, 119320, Note_on_c, 1, 67, 127
2, 119800, Note_off_c, 1, 55, 0
2, 119800, Note_off_c, 1, 59, 0
2, 119800, Note_off_c, 1, 67, 0
2, 119840, Note_on_c, 1, 50, 127
2, 120000, Note_off_c, 1, 50, 0
2, 120040, End_track
3, 0, Start_track
3, 0, Title_t, "MIDI"
3, 1536, End_track
0, 0, End_of_file
