0, 0, Header, 1, 3, 192
1, 0, Start_track
1, 0, Time_signature, 4, 2, 24, 8
1, 0, Tempo, 500000
1, 120040, End_track
2, 0, Start_track
2, 0, Text_t, "random instrument: random person i dunno whatev"
2, 0, Title_t, "Track 1"
2, 0, Note_on_c, 1, 40, 127
2, 0, Note_on_c, 1, 48, 127
2, 0, Note_on_c, 1, 56, 127
2, 0, Note_on_c, 1, 60, 127
2, 40, Note_off_c, 1, 40, 0
2, 40, Note_off_c, 1, 48, 0
2, 40, Note_on_c, 1, 55, 127
2, 40, Note_off_c, 1, 56, 0
2, 40, Note_off_c, 1, 60, 0
2, 40, Note_on_c, 1, 72, 127
2, 40, Note_on_c, 1, 75, 127
2, 40, Note_on_c, 1, 79, 127
2, 40, Note_on_c, 1, 84, 127
2, 80, Note_off_c, 1, 55, 0
2, 80, Note_off_c, 1, 72, 0
2, 80, Note_off_c, 1, 75, 0
2, 80, Note_off_c, 1, 79, 0
2, 80, Note_off_c, 1, 84, 0
2, 120, Note_on_c, 1, 50, 127
2, 120, Note_on_c, 1, 59, 127
2, 120, Note_on_c, 1, 62, 127
2, 120, Note_on_c, 1, 78, 127
2, 160, Note_off_c, 1, 50, 0
2, 160, Note_off_c, 1, 59, 0
2, 160, Note_on_c, 1, 60, 127
2, 160, Note_off_c, 1, 62, 0
2, 160, Note_on_c, 1, 66, 127
2, 160, Note_on_c, 1, 68, 127
2, 160, Note_off_c, 1, 78, 0
2, 160, Note_on_c, 1, 90, 127
2, 200, Note_on_c, 1, 35, 127
2, 200, Note_on_c, 1, 39, 127
2, 200, Note_on_c, 1, 47, 127
2, 200, Note_on_c, 1, 50, 127
2, 200, Note_off_c, 1, 60, 0
2, 200, Note_off_c, 1, 66, 0
2, 200, Note_off_c, 1, 68, 0
2, 200, Note_off_c, 1, 90, 0
2, 240, Note_off_c, 1, 35, 0
2, 240, Note_off_c, 1, 39, 0
2, 240, Note_off_c, 1, 47, 0
2, 240, Note_off_c, 1, 50, 0
2, 240, Note_on_c, 1, 51, 127
2, 240, Note_on_c, 1, 55, 127
2, 240, Note_on_c, 1, 58, 127
2, 240, Note_on_c, 1, 63, 127
2, 240, Note_on_c, 1, 82, 127
2, 240, Note_on_c, 1, 91, 127
2, 280, Note_off_c, 1, 51, 0
2, 280, Note_off_c, 1, 55, 0
2, 280, Note_off_c, 1, 58, 0
2, 280, Note_off_c, 1, 63, 0
2, 280, Note_on_c, 1, 76, 127
2, 280, Note_on_c, 1, 80, 127
2, 280, Note_off_c, 1, 82, 0
2, 280, Note_on_c, 1, 83, 127
2, 280, Note_on_c, 1, 89, 127
2, 280, Note_off_c, 1, 91, 0
2, 320, Note_on_c, 1, 58, 127
2, 320, Note_on_c, 1, 63, 127
2, 320, Note_on_c, 1, 66, 127
2, 320, Note_on_c, 1, 72, 127
2, 320, Note_on_c, 1, 75, 127
2, 320, Note_off_c, 1, 76, 0
2, 320, Note_off_c, 1, 80, 0
2, 320, Note_on_c, 1, 82, 127
2, 320, Note_off_c, 1, 83, 0
2, 320, Note_on_c, 1, 87, 127
2, 320, Note_off_c, 1, 89, 0
2, 360, Note_on_c, 1, 57, 127
2, 360, Note_off_c, 1, 58, 0
2, 360, Note_on_c, 1, 62, 127
2, 360, Note_off_c, 1, 63, 0
2, 360, Note_off_c, 1, 66, 0
2, 360, Note_off_c, 1, 72, 0
2, 360, Note_off_c, 1, 75, 0
2, 360, Note_off_c, 1, 82, 0
2, 360, Note_off_c, 1, 87, 0
2, 400, Note_off_c, 1, 57, 0
2, 400, Note_on_c, 1, 60, 127
2, 400, Note_off_c, 1, 62, 0
2, 400, Note_on_c, 1, 85, 127
2, 400, Note_on_c, 1, 88, 127
2, 440, Note_on_c, 1, 50, 127
2, 440, Note_on_c, 1, 57, 127
2, 440, Note_off_c, 1, 60, 0
2, 440, Note_on_c, 1, 65, 127
2, 440, Note_off_c, 1, 85, 0
2, 440, Note_off_c, 1, 88, 0
2, 440, Note_on_c, 1, 93, 127
2, 480, Note_off_c, 1, 50, 0
2, 480, Note_on_c, 1, 54, 127
2, 480, Note_off_c, 1, 57, 0
2, 480, Note_on_c, 1, 58, 127
2, 480, Note_on_c, 1, 61, 127
2, 480, Note_off_c, 1, 65, 0
2, 480, Note_off_c, 1, 93, 0
2, 480, Note_on_c, 1, 97, 127
2, 520, Note_on_c, 1, 50, 127
2, 520, Note_off_c, 1, 54, 0
2, 520, Note_on_c, 1, 57, 127
2, 520, Note_off_c, 1, 58, 0
2, 520, Note_off_c, 1, 61, 0
2, 520, Note_on_c, 1, 65, 127
2, 520, Note_on_c, 1, 93, 127
2, 520, Note_off_c, 1, 97, 0
2, 800, Note_off_c, 1, 50, 0
2, 800, Note_off_c, 1, 57, 0
2, 800, Note_off_c, 1, 65, 0
2, 800, Note_off_c, 1, 93, 0
2, 1280, Note_on_c, 1, 38, 127
2, 1280, Note_on_c, 1, 54, 127
2, 1280, Note_on_c, 1, 62, 127
2, 1840, Note_off_c, 1, 38, 0
2, 1840, Note_off_c, 1, 54, 0
2, 1840, Note_off_c, 1, 62, 0
2, 4800, Note_on_c, 1, 43, 127
2, 4800, Note_on_c, 1, 50, 127
2, 4800, Note_on_c, 1, 78, 127
2, 4800, Note_on_c, 1, 83, 127
2, 4800, Note_on_c, 1, 90, 127
2, 4840, Note_off_c, 1, 43, 0
2, 4840, Note_off_c, 1, 50, 0
2, 4840, Note_on_c, 1, 53, 127
2, 4840, Note_on_c, 1, 60, 127
2, 4840, Note_on_c, 1, 63, 127
2, 4840, Note_on_c, 1, 66, 127
2, 4840, Note_on_c, 1, 69, 127
2, 4840, Note_on_c, 1, 72, 127
2, 4840, Note_on_c, 1, 81, 127
2, 4840, Note_off_c, 1, 83, 0
2, 4840, Note_off_c, 1, 90, 0
2, 4880, Note_on_c, 1, 34, 127
2, 4880, Note_on_c, 1, 46, 127
2, 4880, Note_off_c, 1, 53, 0
2, 4880, Note_off_c, 1, 60, 0
2, 4880, Note_off_c, 1, 63, 0
2, 4880, Note_off_c, 1, 66, 0
2, 4880, Note_off_c, 1, 69, 0
2, 4880, Note_on_c, 1, 70, 127
2, 4880, Note_off_c, 1, 72, 0
2, 4880, Note_on_c, 1, 77, 127
2, 4880, Note_off_c, 1, 78, 0
2, 4880, Note_on_c, 1, 79, 127
2, 4880, Note_off_c, 1, 81, 0
2, 4880, Note_on_c, 1, 82, 127
2, 4920, Note_off_c, 1, 34, 0
2, 4920, Note_off_c, 1, 46, 0
2, 4920, Note_off_c, 1, 70, 0
2, 4920, Note_on_c, 1, 75, 127
2, 4920, Note_off_c, 1, 77, 0
2, 4920, Note_off_c, 1, 82, 0
2, 4920, Note_on_c, 1, 84, 127
2, 4920, Note_on_c, 1, 96, 127
2, 4960, Note_on_c, 1, 38, 127
2, 4960, Note_on_c, 1, 45, 127
2, 4960, Note_on_c, 1, 50, 127
2, 4960, Note_on_c, 1, 74, 127
2, 4960, Note_off_c, 1, 75, 0
2, 4960, Note_off_c, 1, 79, 0
2, 4960, Note_on_c, 1, 81, 127
2, 4960, Note_off_c, 1, 84, 0
2, 4960, Note_on_c, 1, 86, 127
2, 4960, Note_off_c, 1, 96, 0
2, 5000, Note_off_c, 1, 38, 0
2, 5000, Note_off_c, 1, 45, 0
2, 5000, Note_off_c, 1, 50, 0
2, 5000, Note_off_c, 1, 74, 0
2, 5000, Note_on_c, 1, 77, 127
2, 5000, Note_on_c, 1, 79, 127
2, 5000, Note_off_c, 1, 81, 0
2, 5000, Note_on_c, 1, 83, 127
2, 5000, Note_off_c, 1, 86, 0
2, 5000, Note_on_c, 1, 89, 127
2, 5040, Note_off_c, 1, 77, 0
2, 5040, Note_off_c, 1, 79, 0
2, 5040, Note_off_c, 1, 83, 0
2, 5040, Note_off_c, 1, 89, 0
2, 5080, Note_on_c, 1, 70, 127
2, 5080, Note_on_c, 1, 72, 127
2, 5080, Note_on_c, 1, 75, 127
2, 5080, Note_on_c, 1, 82, 127
2, 5120, Note_on_c, 1, 27, 127
2, 5120, Note_off_c, 1, 70, 0
2, 5120, Note_off_c, 1, 72, 0
2, 5120, Note_off_c, 1, 75, 0
2, 5120, Note_off_c, 1, 82, 0
2, 5120, Note_on_c, 1, 87, 127
2, 5160, Note_off_c, 1, 27, 0
2, 5160, Note_on_c, 1, 48, 127
2, 5160, Note_on_c, 1, 56, 127
2, 5160, Note_on_c, 1, 66, 127
2, 5160, Note_off_c, 1, 87, 0
2, 5160, Note_on_c, 1, 90, 127
2, 5200, Note_on_c, 1, 43, 127
2, 5200, Note_off_c, 1, 48, 0
2, 5200, Note_on_c, 1, 53, 127
2, 5200, Note_on_c, 1, 55, 127
2, 5200, Note_off_c, 1, 56, 0
2, 5200, Note_off_c, 1, 66, 0
2, 5200, Note_on_c, 1, 76, 127
2, 5200, Note_on_c, 1, 88, 127
2, 5200, Note_off_c, 1, 90, 0
2, 5240, Note_on_c, 1, 50, 127
2, 5240, Note_off_c, 1, 53, 0
2, 5240, Note_off_c, 1, 55, 0
2, 5240, Note_on_c, 1, 60, 127
2, 5240, Note_on_c, 1, 62, 127
2, 5240, Note_on_c, 1, 69, 127
2, 5240, Note_off_c, 1, 76, 0
2, 5240, Note_off_c, 1, 88, 0
2, 5280, Note_off_c, 1, 43, 0
2, 5280, Note_off_c, 1, 50, 0
2, 5280, Note_on_c, 1, 53, 127
2, 5280, Note_on_c, 1, 58, 127
2, 5280, Note_off_c, 1, 60, 0
2, 5280, Note_off_c, 1, 62, 0
2, 5280, Note_on_c, 1, 63, 127
2, 5280, Note_on_c, 1, 65, 127
2, 5280, Note_off_c, 1, 69, 0
2, 5280, Note_on_c, 1, 74, 127
2, 5320, Note_off_c, 1, 53, 0
2, 5320, Note_off_c, 1, 58, 0
2, 5320, Note_off_c, 1, 63, 0
2, 5320, Note_off_c, 1, 65, 0
2, 5320, Note_off_c, 1, 74, 0
2, 5360, Note_on_c, 1, 36, 127
2, 5360, Note_on_c, 1, 51, 127
2, 5360, Note_on_c, 1, 60, 127
2, 5600, Note_off_c, 1, 36, 0
2, 5600, Note_off_c, 1, 51, 0
2, 5600, Note_off_c, 1, 60, 0
2, 5640, Note_on_c, 1, 40, 127
2, 5640, Note_on_c, 1, 52, 127
2, 5640, Note_on_c, 1, 55, 127
2, 5640, Note_on_c, 1, 64, 127
2, 5680, Note_off_c, 1, 40, 0
2, 5680, Note_off_c, 1, 52, 0
2, 5680, Note_off_c, 1, 55, 0
2, 5680, Note_off_c, 1, 64, 0
2, 5880, Note_on_c, 1, 43, 127
2, 5880, Note_on_c, 1, 55, 127
2, 5880, Note_on_c, 1, 67, 127
2, 5880, Note_on_c, 1, 69, 127
2, 5920, Note_off_c, 1, 43, 0
2, 5920, Note_off_c, 1, 55, 0
2, 5920, Note_off_c, 1, 67, 0
2, 5920, Note_off_c, 1, 69, 0
2, 5960, Note_on_c, 1, 43, 127
2, 5960, Note_on_c, 1, 55, 127
2, 5960, Note_on_c, 1, 62, 127
2, 5960, Note_on_c, 1, 67, 127
2, 5960, Note_on_c, 1, 72, 127
2, 5960, Note_on_c, 1, 74, 127
2, 6000, Note_off_c, 1, 43, 0
2, 6000, Note_off_c, 1, 55, 0
2, 6000, Note_off_c, 1, 62, 0
2, 6000, Note_off_c, 1, 67, 0
2, 6000, Note_off_c, 1, 72, 0
2, 6000, Note_off_c, 1, 74, 0
2, 6080, Note_on_c, 1, 73, 127
2, 6080, Note_on_c, 1, 85, 127
2, 6080, Note_on_c, 1, 97, 127
2, 6120, Note_off_c, 1, 73, 0
2, 6120, Note_off_c, 1, 85, 0
2, 6120, Note_off_c, 1, 97, 0
2, 6200, Note_on_c, 1, 42, 127
2, 6200, Note_on_c, 1, 52, 127
2, 6200, Note_on_c, 1, 59, 127
2, 6200, Note_on_c, 1, 64, 127
2, 6240, Note_off_c, 1, 42, 0
2, 6240, Note_off_c, 1, 52, 0
2, 6240, Note_off_c, 1, 59, 0
2, 6240, Note_off_c, 1, 64, 0
2, 6360, Note_on_c, 1, 38, 127
2, 6360, Note_on_c, 1, 50, 127
2, 6360, Note_on_c, 1, 84, 127
2, 6360, Note_on_c, 1, 96, 127
2, 6400, Note_off_c, 1, 38, 0
2, 6400, Note_off_c, 1, 50, 0
2, 6400, Note_off_c, 1, 84, 0
2, 6400, Note_off_c, 1, 96, 0
2, 6480, Note_on_c, 1, 43, 127
2, 6480, Note_on_c, 1, 55, 127
2, 6480, Note_on_c, 1, 73, 127
2, 6480, Note_on_c, 1, 76, 127
2, 6480, Note_on_c, 1, 82, 127
2, 6480, Note_on_c, 1, 85, 127
2, 6520, Note_off_c, 1, 43, 0
2, 6520, Note_off_c, 1, 55, 0
2, 6520, Note_off_c, 1, 73, 0
2, 6520, Note_off_c, 1, 76, 0
2, 6520, Note_off_c, 1, 82, 0
2, 6520, Note_off_c, 1, 85, 0
2, 6640, Note_on_c, 1, 41, 127
2, 6640, Note_on_c, 1, 45, 127
2, 6640, Note_on_c, 1, 48, 127
2, 6640, Note_on_c, 1, 53, 127
2, 6640, Note_on_c, 1, 72, 127
2, 6640, Note_on_c, 1, 77, 127
2, 6640, Note_on_c, 1, 81, 127
2, 6640, Note_on_c, 1, 84, 127
2, 6680, Note_off_c, 1, 41, 0
2, 6680, Note_off_c, 1, 45, 0
2, 6680, Note_off_c, 1, 48, 0
2, 6680, Note_off_c, 1, 53, 0
2, 6680, Note_off_c, 1, 72, 0
2, 6680, Note_off_c, 1, 77, 0
2, 6680, Note_off_c, 1, 81, 0
2, 6680, Note_off_c, 1, 84, 0
2, 6760, Note_on_c, 1, 49, 127
2, 6760, Note_on_c, 1, 52, 127
2, 6760, Note_on_c, 1, 57, 127
2, 6760, Note_on_c, 1, 61, 127
2, 6760, Note_on_c, 1, 63, 127
2, 6800, Note_off_c, 1, 49, 0
2, 6800, Note_off_c, 1, 52, 0
2, 6800, Note_off_c, 1, 57, 0
2, 6800, Note_off_c, 1, 61, 0
2, 6800, Note_off_c, 1, 63, 0
2, 6920, Note_on_c, 1, 45, 127
2, 6920, Note_on_c, 1, 57, 127
2, 6920, Note_on_c, 1, 88, 127
2, 6920, Note_on_c, 1, 93, 127
2, 6920, Note_on_c, 1, 97, 127
2, 6920, Note_on_c, 1, 100, 127
2, 6960, Note_off_c, 1, 45, 0
2, 6960, Note_off_c, 1, 57, 0
2, 6960, Note_off_c, 1, 88, 0
2, 6960, Note_off_c, 1, 93, 0
2, 6960, Note_off_c, 1, 97, 0
2, 6960, Note_off_c, 1, 100, 0
2, 7040, Note_on_c, 1, 48, 127
2, 7040, Note_on_c, 1, 54, 127
2, 7040, Note_on_c, 1, 60, 127
2, 7040, Note_on_c, 1, 62, 127
2, 7040, Note_on_c, 1, 66, 127
2, 7040, Note_on_c, 1, 69, 127
2, 7080, Note_off_c, 1, 48, 0
2, 7080, Note_off_c, 1, 54, 0
2, 7080, Note_off_c, 1, 60, 0
2, 7080, Note_off_c, 1, 62, 0
2, 7080, Note_off_c, 1, 66, 0
2, 7080, Note_off_c, 1, 69, 0
2, 7280, Note_on_c, 1, 50, 127
2, 7280, Note_on_c, 1, 57, 127
2, 7280, Note_on_c, 1, 61, 127
2, 7280, Note_on_c, 1, 67, 127
2, 7280, Note_on_c, 1, 69, 127
2, 7320, Note_off_c, 1, 50, 0
2, 7320, Note_off_c, 1, 57, 0
2, 7320, Note_off_c, 1, 61, 0
2, 7320, Note_off_c, 1, 67, 0
2, 7320, Note_off_c, 1, 69, 0
2, 7360, Note_on_c, 1, 45, 127
2, 7360, Note_on_c, 1, 51, 127
2, 7400, Note_off_c, 1, 45, 0
2, 7400, Note_off_c, 1, 51, 0
2, 7480, Note_on_c, 1, 48, 127
2, 7480, Note_on_c, 1, 52, 127
2, 7480, Note_on_c, 1, 62, 127
2, 7480, Note_on_c, 1, 64, 127
2, 7520, Note_on_c, 1, 47, 127
2, 7520, Note_off_c, 1, 48, 0
2, 7520, Note_off_c, 1, 52, 0
2, 7520, Note_off_c, 1, 62, 0
2, 7520, Note_off_c, 1, 64, 0
2, 7560, Note_on_c, 1, 45, 127
2, 7560, Note_off_c, 1, 47, 0
2, 7600, Note_off_c, 1, 45, 0
2, 7640, Note_on_c, 1, 45, 127
2, 7680, Note_on_c, 1, 52, 127
2, 7680, Note_on_c, 1, 61, 127
2, 7680, Note_on_c, 1, 64, 127
2, 7760, Note_off_c, 1, 45, 0
2, 7760, Note_off_c, 1, 52, 0
2, 7760, Note_off_c, 1, 61, 0
2, 7760, Note_off_c, 1, 64, 0
2, 7800, Note_on_c, 1, 50, 127
2, 7800, Note_on_c, 1, 64, 127
2, 7800, Note_on_c, 1, 67, 127
2, 7800, Note_on_c, 1, 69, 127
2, 7840, Note_off_c, 1, 50, 0
2, 7920, Note_on_c, 1, 41, 127
2, 7920, Note_off_c, 1, 64, 0
2, 7920, Note_off_c, 1, 67, 0
2, 7920, Note_off_c, 1, 69, 0
2, 7920, Note_on_c, 1, 72, 127
2, 7920, Note_on_c, 1, 76, 127
2, 7960, Note_off_c, 1, 41, 0
2, 7960, Note_on_c, 1, 64, 127
2, 7960, Note_on_c, 1, 67, 127
2, 7960, Note_on_c, 1, 69, 127
2, 7960, Note_off_c, 1, 72, 0
2, 7960, Note_off_c, 1, 76, 0
2, 8000, Note_off_c, 1, 64, 0
2, 8000, Note_on_c, 1, 66, 127
2, 8000, Note_off_c, 1, 67, 0
2, 8000, Note_off_c, 1, 69, 0
2, 8000, Note_on_c, 1, 76, 127
2, 8000, Note_on_c, 1, 79, 127
2, 8000, Note_on_c, 1, 83, 127
2, 8040, Note_on_c, 1, 64, 127
2, 8040, Note_off_c, 1, 66, 0
2, 8040, Note_on_c, 1, 67, 127
2, 8040, Note_on_c, 1, 69, 127
2, 8040, Note_off_c, 1, 76, 0
2, 8040, Note_off_c, 1, 79, 0
2, 8040, Note_off_c, 1, 83, 0
2, 8080, Note_on_c, 1, 53, 127
2, 8080, Note_off_c, 1, 64, 0
2, 8080, Note_off_c, 1, 67, 0
2, 8080, Note_off_c, 1, 69, 0
2, 8080, Note_on_c, 1, 74, 127
2, 8080, Note_on_c, 1, 81, 127
2, 8080, Note_on_c, 1, 83, 127
2, 8120, Note_off_c, 1, 53, 0
2, 8120, Note_on_c, 1, 64, 127
2, 8120, Note_on_c, 1, 66, 127
2, 8120, Note_on_c, 1, 69, 127
2, 8120, Note_off_c, 1, 74, 0
2, 8120, Note_on_c, 1, 75, 127
2, 8120, Note_off_c, 1, 81, 0
2, 8120, Note_off_c, 1, 83, 0
2, 8160, Note_off_c, 1, 66, 0
2, 8160, Note_on_c, 1, 67, 127
2, 8160, Note_off_c, 1, 69, 0
2, 8160, Note_off_c, 1, 75, 0
2, 8160, Note_on_c, 1, 82, 127
2, 8200, Note_off_c, 1, 64, 0
2, 8200, Note_off_c, 1, 67, 0
2, 8200, Note_on_c, 1, 69, 127
2, 8200, Note_off_c, 1, 82, 0
2, 8200, Note_on_c, 1, 84, 127
2, 8200, Note_on_c, 1, 91, 127
2, 8240, Note_on_c, 1, 41, 127
2, 8240, Note_on_c, 1, 50, 127
2, 8240, Note_on_c, 1, 55, 127
2, 8240, Note_on_c, 1, 59, 127
2, 8240, Note_off_c, 1, 69, 0
2, 8240, Note_off_c, 1, 84, 0
2, 8240, Note_off_c, 1, 91, 0
2, 8280, Note_off_c, 1, 41, 0
2, 8280, Note_off_c, 1, 50, 0
2, 8280, Note_on_c, 1, 53, 127
2, 8280, Note_off_c, 1, 55, 0
2, 8280, Note_off_c, 1, 59, 0
2, 8280, Note_on_c, 1, 63, 127
2, 8280, Note_on_c, 1, 67, 127
2, 8280, Note_on_c, 1, 75, 127
2, 8320, Note_off_c, 1, 53, 0
2, 8320, Note_off_c, 1, 63, 0
2, 8320, Note_off_c, 1, 67, 0
2, 8320, Note_off_c, 1, 75, 0
2, 8360, Note_on_c, 1, 29, 127
2, 8360, Note_on_c, 1, 36, 127
2, 8360, Note_on_c, 1, 41, 127
2, 8360, Note_on_c, 1, 53, 127
2, 8360, Note_on_c, 1, 57, 127
2, 8360, Note_on_c, 1, 60, 127
2, 8360, Note_on_c, 1, 65, 127
2, 8400, Note_off_c, 1, 29, 0
2, 8400, Note_off_c, 1, 36, 0
2, 8400, Note_off_c, 1, 41, 0
2, 8400, Note_on_c, 1, 48, 127
2, 8400, Note_off_c, 1, 53, 0
2, 8400, Note_off_c, 1, 57, 0
2, 8400, Note_off_c, 1, 60, 0
2, 8400, Note_on_c, 1, 64, 127
2, 8400, Note_off_c, 1, 65, 0
2, 8400, Note_on_c, 1, 69, 127
2, 8400, Note_on_c, 1, 73, 127
2, 8440, Note_off_c, 1, 48, 0
2, 8440, Note_off_c, 1, 64, 0
2, 8440, Note_off_c, 1, 69, 0
2, 8440, Note_off_c, 1, 73, 0
2, 8440, Note_on_c, 1, 81, 127
2, 8440, Note_on_c, 1, 84, 127
2, 8440, Note_on_c, 1, 88, 127
2, 8480, Note_on_c, 1, 29, 127
2, 8480, Note_on_c, 1, 36, 127
2, 8480, Note_on_c, 1, 41, 127
2, 8480, Note_on_c, 1, 53, 127
2, 8480, Note_on_c, 1, 57, 127
2, 8480, Note_on_c, 1, 60, 127
2, 8480, Note_on_c, 1, 65, 127
2, 8480, Note_off_c, 1, 81, 0
2, 8480, Note_off_c, 1, 84, 0
2, 8480, Note_off_c, 1, 88, 0
2, 8640, Note_off_c, 1, 29, 0
2, 8640, Note_off_c, 1, 36, 0
2, 8640, Note_off_c, 1, 41, 0
2, 8640, Note_off_c, 1, 53, 0
2, 8640, Note_off_c, 1, 57, 0
2, 8640, Note_off_c, 1, 60, 0
2, 8640, Note_off_c, 1, 65, 0
2, 8680, Note_on_c, 1, 54, 127
2, 8680, Note_on_c, 1, 64, 127
2, 8680, Note_on_c, 1, 67, 127
2, 8720, Note_off_c, 1, 54, 0
2, 8720, Note_off_c, 1, 64, 0
2, 8720, Note_off_c, 1, 67, 0
2, 8760, Note_on_c, 1, 57, 127
2, 8760, Note_on_c, 1, 60, 127
2, 8760, Note_on_c, 1, 69, 127
2, 8760, Note_on_c, 1, 72, 127
2, 8840, Note_off_c, 1, 57, 0
2, 8840, Note_off_c, 1, 60, 0
2, 8840, Note_off_c, 1, 69, 0
2, 8840, Note_off_c, 1, 72, 0
2, 8880, Note_on_c, 1, 36, 127
2, 8880, Note_on_c, 1, 76, 127
2, 8880, Note_on_c, 1, 80, 127
2, 8880, Note_on_c, 1, 88, 127
2, 8920, Note_off_c, 1, 36, 0
2, 8920, Note_off_c, 1, 76, 0
2, 8920, Note_off_c, 1, 80, 0
2, 8920, Note_off_c, 1, 88, 0
2, 8960, Note_on_c, 1, 66, 127
2, 8960, Note_on_c, 1, 70, 127
2, 8960, Note_on_c, 1, 74, 127
2, 8960, Note_on_c, 1, 78, 127
2, 8960, Note_on_c, 1, 82, 127
2, 8960, Note_on_c, 1, 86, 127
2, 9080, Note_off_c, 1, 66, 0
2, 9080, Note_off_c, 1, 70, 0
2, 9080, Note_off_c, 1, 74, 0
2, 9080, Note_off_c, 1, 78, 0
2, 9080, Note_off_c, 1, 82, 0
2, 9080, Note_off_c, 1, 86, 0
2, 9160, Note_on_c, 1, 66, 127
2, 9160, Note_on_c, 1, 69, 127
2, 9160, Note_on_c, 1, 78, 127
2, 9160, Note_on_c, 1, 90, 127
2, 9160, Note_on_c, 1, 93, 127
2, 9200, Note_off_c, 1, 66, 0
2, 9200, Note_off_c, 1, 69, 0
2, 9200, Note_off_c, 1, 78, 0
2, 9200, Note_off_c, 1, 90, 0
2, 9200, Note_on_c, 1, 92, 127
2, 9200, Note_off_c, 1, 93, 0
2, 9200, Note_on_c, 1, 95, 127
2, 9200, Note_on_c, 1, 101, 127
2, 9240, Note_on_c, 1, 74, 127
2, 9240, Note_on_c, 1, 78, 127
2, 9240, Note_on_c, 1, 81, 127
2, 9240, Note_on_c, 1, 84, 127
2, 9240, Note_on_c, 1, 86, 127
2, 9240, Note_off_c, 1, 92, 0
2, 9240, Note_off_c, 1, 95, 0
2, 9240, Note_off_c, 1, 101, 0
2, 9280, Note_on_c, 1, 53, 127
2, 9280, Note_off_c, 1, 74, 0
2, 9280, Note_on_c, 1, 77, 127
2, 9280, Note_off_c, 1, 78, 0
2, 9280, Note_off_c, 1, 81, 0
2, 9280, Note_off_c, 1, 84, 0
2, 9280, Note_off_c, 1, 86, 0
2, 9280, Note_on_c, 1, 89, 127
2, 9280, Note_on_c, 1, 92, 127
2, 9320, Note_on_c, 1, 50, 127
2, 9320, Note_on_c, 1, 62, 127
2, 9320, Note_on_c, 1, 65, 127
2, 9320, Note_on_c, 1, 74, 127
2, 9320, Note_off_c, 1, 89, 0
2, 9320, Note_off_c, 1, 92, 0
2, 9360, Note_on_c, 1, 48, 127
2, 9360, Note_off_c, 1, 50, 0
2, 9360, Note_on_c, 1, 52, 127
2, 9360, Note_off_c, 1, 53, 0
2, 9360, Note_on_c, 1, 60, 127
2, 9360, Note_off_c, 1, 62, 0
2, 9360, Note_on_c, 1, 64, 127
2, 9360, Note_off_c, 1, 65, 0
2, 9360, Note_on_c, 1, 72, 127
2, 9360, Note_off_c, 1, 74, 0
2, 9360, Note_on_c, 1, 76, 127
2, 9360, Note_off_c, 1, 77, 0
2, 9400, Note_off_c, 1, 48, 0
2, 9400, Note_off_c, 1, 52, 0
2, 9400, Note_off_c, 1, 60, 0
2, 9400, Note_off_c, 1, 64, 0
2, 9400, Note_off_c, 1, 72, 0
2, 9400, Note_off_c, 1, 76, 0
2, 9440, Note_on_c, 1, 50, 127
2, 9440, Note_on_c, 1, 53, 127
2, 9440, Note_on_c, 1, 62, 127
2, 9440, Note_on_c, 1, 65, 127
2, 9440, Note_on_c, 1, 74, 127
2, 9440, Note_on_c, 1, 77, 127
2, 9640, Note_off_c, 1, 50, 0
2, 9640, Note_off_c, 1, 53, 0
2, 9640, Note_off_c, 1, 62, 0
2, 9640, Note_off_c, 1, 65, 0
2, 9640, Note_off_c, 1, 74, 0
2, 9640, Note_off_c, 1, 77, 0
2, 9720, Note_on_c, 1, 38, 127
2, 9720, Note_on_c, 1, 50, 127
2, 9720, Note_on_c, 1, 68, 127
2, 9720, Note_on_c, 1, 70, 127
2, 9720, Note_on_c, 1, 77, 127
2, 9720, Note_on_c, 1, 80, 127
2, 9920, Note_off_c, 1, 38, 0
2, 9920, Note_off_c, 1, 50, 0
2, 9920, Note_off_c, 1, 68, 0
2, 9920, Note_off_c, 1, 70, 0
2, 9920, Note_off_c, 1, 77, 0
2, 9920, Note_off_c, 1, 80, 0
2, 9960, Note_on_c, 1, 42, 127
2, 9960, Note_on_c, 1, 83, 127
2, 9960, Note_on_c, 1, 92, 127
2, 9960, Note_on_c, 1, 95, 127
2, 10120, Note_off_c, 1, 42, 0
2, 10120, Note_off_c, 1, 83, 0
2, 10120, Note_off_c, 1, 92, 0
2, 10120, Note_off_c, 1, 95, 0
2, 10160, Note_on_c, 1, 50, 127
2, 10160, Note_on_c, 1, 53, 127
2, 10160, Note_on_c, 1, 56, 127
2, 10160, Note_on_c, 1, 65, 127
2, 10160, Note_on_c, 1, 69, 127
2, 10160, Note_on_c, 1, 77, 127
2, 10360, Note_off_c, 1, 50, 0
2, 10360, Note_off_c, 1, 53, 0
2, 10360, Note_off_c, 1, 56, 0
2, 10360, Note_off_c, 1, 65, 0
2, 10360, Note_off_c, 1, 69, 0
2, 10360, Note_off_c, 1, 77, 0
2, 10400, Note_on_c, 1, 29, 127
2, 10400, Note_on_c, 1, 41, 127
2, 10400, Note_on_c, 1, 77, 127
2, 10400, Note_on_c, 1, 81, 127
2, 10400, Note_on_c, 1, 89, 127
2, 10600, Note_off_c, 1, 29, 0
2, 10600, Note_off_c, 1, 41, 0
2, 10600, Note_off_c, 1, 77, 0
2, 10600, Note_off_c, 1, 81, 0
2, 10600, Note_off_c, 1, 89, 0
2, 10640, Note_on_c, 1, 29, 127
2, 10640, Note_on_c, 1, 41, 127
2, 10640, Note_on_c, 1, 77, 127
2, 10640, Note_on_c, 1, 81, 127
2, 10640, Note_on_c, 1, 89, 127
2, 10840, Note_off_c, 1, 29, 0
2, 10840, Note_off_c, 1, 41, 0
2, 10840, Note_off_c, 1, 77, 0
2, 10840, Note_off_c, 1, 81, 0
2, 10840, Note_off_c, 1, 89, 0
2, 10880, Note_on_c, 1, 45, 127
2, 10880, Note_on_c, 1, 57, 127
2, 10880, Note_on_c, 1, 66, 127
2, 10880, Note_on_c, 1, 69, 127
2, 10880, Note_on_c, 1, 74, 127
2, 11200, Note_on_c, 1, 55, 127
2, 11200, Note_off_c, 1, 57, 0
2, 11200, Note_off_c, 1, 69, 0
2, 11200, Note_off_c, 1, 74, 0
2, 11240, Note_off_c, 1, 55, 0
2, 11240, Note_on_c, 1, 57, 127
2, 11240, Note_on_c, 1, 69, 127
2, 11240, Note_on_c, 1, 74, 127
2, 11320, Note_off_c, 1, 45, 0
2, 11320, Note_off_c, 1, 57, 0
2, 11320, Note_off_c, 1, 66, 0
2, 11320, Note_off_c, 1, 69, 0
2, 11320, Note_off_c, 1, 74, 0
2, 11360, Note_on_c, 1, 40, 127
2, 11360, Note_on_c, 1, 47, 127
2, 11360, Note_on_c, 1, 52, 127
2, 11360, Note_on_c, 1, 67, 127
2, 11400, Note_off_c, 1, 67, 0
2, 11400, Note_on_c, 1, 71, 127
2, 11440, Note_on_c, 1, 67, 127
2, 11440, Note_off_c, 1, 71, 0
2, 11480, Note_on_c, 1, 71, 127
2, 11520, Note_off_c, 1, 67, 0
2, 11560, Note_off_c, 1, 40, 0
2, 11560, Note_off_c, 1, 47, 0
2, 11560, Note_off_c, 1, 52, 0
2, 11560, Note_off_c, 1, 71, 0
2, 11600, Note_on_c, 1, 58, 127
2, 11600, Note_on_c, 1, 70, 127
2, 11600, Note_on_c, 1, 75, 127
2, 11600, Note_on_c, 1, 79, 127
2, 11600, Note_on_c, 1, 85, 127
2, 11640, Note_off_c, 1, 58, 0
2, 11640, Note_off_c, 1, 70, 0
2, 11640, Note_off_c, 1, 75, 0
2, 11640, Note_off_c, 1, 79, 0
2, 11640, Note_off_c, 1, 85, 0
2, 11680, Note_on_c, 1, 46, 127
2, 11680, Note_on_c, 1, 58, 127
2, 11680, Note_on_c, 1, 86, 127
2, 11680, Note_on_c, 1, 92, 127
2, 11720, Note_off_c, 1, 46, 0
2, 11720, Note_off_c, 1, 58, 0
2, 11720, Note_on_c, 1, 59, 127
2, 11720, Note_on_c, 1, 61, 127
2, 11720, Note_on_c, 1, 64, 127
2, 11720, Note_on_c, 1, 67, 127
2, 11720, Note_on_c, 1, 71, 127
2, 11720, Note_on_c, 1, 79, 127
2, 11720, Note_on_c, 1, 85, 127
2, 11720, Note_off_c, 1, 86, 0
2, 11720, Note_on_c, 1, 91, 127
2, 11720, Note_off_c, 1, 92, 0
2, 11760, Note_on_c, 1, 50, 127
2, 11760, Note_on_c, 1, 53, 127
2, 11760, Note_off_c, 1, 59, 0
2, 11760, Note_off_c, 1, 61, 0
2, 11760, Note_off_c, 1, 64, 0
2, 11760, Note_off_c, 1, 67, 0
2, 11760, Note_on_c, 1, 68, 127
2, 11760, Note_off_c, 1, 71, 0
2, 11760, Note_on_c, 1, 74, 127
2, 11760, Note_off_c, 1, 79, 0
2, 11760, Note_off_c, 1, 85, 0
2, 11760, Note_off_c, 1, 91, 0
2, 11800, Note_off_c, 1, 50, 0
2, 11800, Note_off_c, 1, 53, 0
2, 11800, Note_on_c, 1, 59, 127
2, 11800, Note_off_c, 1, 74, 0
2, 11800, Note_on_c, 1, 80, 127
2, 11800, Note_on_c, 1, 88, 127
2, 11840, Note_off_c, 1, 59, 0
2, 11840, Note_off_c, 1, 68, 0
2, 11840, Note_off_c, 1, 80, 0
2, 11840, Note_off_c, 1, 88, 0
2, 11880, Note_on_c, 1, 35, 127
2, 11880, Note_on_c, 1, 47, 127
2, 11880, Note_on_c, 1, 85, 127
2, 11880, Note_on_c, 1, 97, 127
2, 11920, Note_off_c, 1, 35, 0
2, 11920, Note_on_c, 1, 43, 127
2, 11920, Note_off_c, 1, 47, 0
2, 11920, Note_on_c, 1, 55, 127
2, 11920, Note_off_c, 1, 85, 0
2, 11920, Note_on_c, 1, 91, 127
2, 11920, Note_off_c, 1, 97, 0
2, 11920, Note_on_c, 1, 103, 127
2, 11960, Note_off_c, 1, 43, 0
2, 11960, Note_off_c, 1, 55, 0
2, 11960, Note_off_c, 1, 91, 0
2, 11960, Note_off_c, 1, 103, 0
2, 12120, Note_on_c, 1, 31, 127
2, 12120, Note_on_c, 1, 43, 127
2, 12120, Note_on_c, 1, 81, 127
2, 12120, Note_on_c, 1, 93, 127
2, 12200, Note_off_c, 1, 81, 0
2, 12200, Note_off_c, 1, 93, 0
2, 12240, Note_off_c, 1, 31, 0
2, 12240, Note_off_c, 1, 43, 0
2, 12280, Note_on_c, 1, 49, 127
2, 12280, Note_on_c, 1, 59, 127
2, 12280, Note_on_c, 1, 67, 127
2, 12280, Note_on_c, 1, 71, 127
2, 12320, Note_off_c, 1, 49, 0
2, 12320, Note_off_c, 1, 59, 0
2, 12320, Note_off_c, 1, 67, 0
2, 12320, Note_off_c, 1, 71, 0
2, 12360, Note_on_c, 1, 41, 127
2, 12360, Note_on_c, 1, 50, 127
2, 12360, Note_on_c, 1, 55, 127
2, 12360, Note_on_c, 1, 59, 127
2, 12440, Note_off_c, 1, 41, 0
2, 12440, Note_on_c, 1, 72, 127
2, 12480, Note_off_c, 1, 50, 0
2, 12480, Note_off_c, 1, 55, 0
2, 12480, Note_off_c, 1, 59, 0
2, 12480, Note_off_c, 1, 72, 0
2, 12520, Note_on_c, 1, 43, 127
2, 12520, Note_on_c, 1, 50, 127
2, 12520, Note_on_c, 1, 55, 127
2, 12520, Note_on_c, 1, 59, 127
2, 12520, Note_on_c, 1, 62, 127
2, 12520, Note_on_c, 1, 67, 127
2, 12960, Note_off_c, 1, 43, 0
2, 12960, Note_off_c, 1, 50, 0
2, 12960, Note_off_c, 1, 55, 0
2, 12960, Note_off_c, 1, 59, 0
2, 12960, Note_off_c, 1, 62, 0
2, 12960, Note_off_c, 1, 67, 0
2, 13000, Note_on_c, 1, 45, 127
2, 13000, Note_on_c, 1, 57, 127
2, 13000, Note_on_c, 1, 60, 127
2, 13000, Note_on_c, 1, 64, 127
2, 13000, Note_on_c, 1, 69, 127
2, 13000, Note_on_c, 1, 72, 127
2, 13360, Note_off_c, 1, 45, 0
2, 13360, Note_off_c, 1, 57, 0
2, 13360, Note_off_c, 1, 60, 0
2, 13360, Note_off_c, 1, 64, 0
2, 13360, Note_off_c, 1, 69, 0
2, 13360, Note_off_c, 1, 72, 0
2, 13400, Note_on_c, 1, 29, 127
2, 13400, Note_on_c, 1, 60, 127
2, 13400, Note_on_c, 1, 65, 127
2, 13400, Note_on_c, 1, 69, 127
2, 13400, Note_on_c, 1, 72, 127
2, 13440, Note_off_c, 1, 29, 0
2, 13440, Note_on_c, 1, 53, 127
2, 13640, Note_off_c, 1, 53, 0
2, 13640, Note_off_c, 1, 60, 0
2, 13640, Note_off_c, 1, 65, 0
2, 13640, Note_off_c, 1, 69, 0
2, 13640, Note_off_c, 1, 72, 0
2, 13680, Note_on_c, 1, 60, 127
2, 13680, Note_on_c, 1, 65, 127
2, 13680, Note_on_c, 1, 69, 127
2, 13680, Note_on_c, 1, 72, 127
2, 13720, Note_on_c, 1, 48, 127
2, 13840, Note_off_c, 1, 48, 0
2, 13840, Note_off_c, 1, 60, 0
2, 13840, Note_off_c, 1, 65, 0
2, 13840, Note_off_c, 1, 69, 0
2, 13840, Note_off_c, 1, 72, 0
2, 13880, Note_on_c, 1, 38, 127
2, 13880, Note_on_c, 1, 50, 127
2, 13880, Note_on_c, 1, 55, 127
2, 13880, Note_on_c, 1, 67, 127
2, 13920, Note_off_c, 1, 38, 0
2, 13920, Note_off_c, 1, 55, 0
2, 13920, Note_on_c, 1, 57, 127
2, 13920, Note_on_c, 1, 60, 127
2, 13920, Note_on_c, 1, 90, 127
2, 13960, Note_off_c, 1, 50, 0
2, 13960, Note_on_c, 1, 52, 127
2, 13960, Note_off_c, 1, 60, 0
2, 13960, Note_on_c, 1, 61, 127
2, 13960, Note_on_c, 1, 66, 127
2, 13960, Note_off_c, 1, 67, 0
2, 13960, Note_on_c, 1, 78, 127
2, 13960, Note_off_c, 1, 90, 0
2, 14000, Note_on_c, 1, 36, 127
2, 14000, Note_on_c, 1, 39, 127
2, 14000, Note_on_c, 1, 43, 127
2, 14000, Note_on_c, 1, 48, 127
2, 14000, Note_off_c, 1, 52, 0
2, 14000, Note_off_c, 1, 57, 0
2, 14000, Note_off_c, 1, 61, 0
2, 14000, Note_off_c, 1, 66, 0
2, 14000, Note_on_c, 1, 67, 127
2, 14000, Note_off_c, 1, 78, 0
2, 14000, Note_on_c, 1, 79, 127
2, 14040, Note_off_c, 1, 36, 0
2, 14040, Note_off_c, 1, 39, 0
2, 14040, Note_off_c, 1, 43, 0
2, 14040, Note_off_c, 1, 48, 0
2, 14040, Note_off_c, 1, 67, 0
2, 14040, Note_on_c, 1, 69, 127
2, 14040, Note_on_c, 1, 83, 127
2, 14080, Note_on_c, 1, 33, 127
2, 14080, Note_on_c, 1, 45, 127
2, 14080, Note_on_c, 1, 57, 127
2, 14080, Note_off_c, 1, 69, 0
2, 14080, Note_off_c, 1, 79, 0
2, 14080, Note_off_c, 1, 83, 0
2, 14080, Note_on_c, 1, 84, 127
2, 14080, Note_on_c, 1, 88, 127
2, 14080, Note_on_c, 1, 93, 127
2, 14120, Note_off_c, 1, 33, 0
2, 14120, Note_off_c, 1, 45, 0
2, 14120, Note_on_c, 1, 50, 127
2, 14120, Note_on_c, 1, 65, 127
2, 14120, Note_off_c, 1, 84, 0
2, 14120, Note_off_c, 1, 88, 0
2, 14120, Note_off_c, 1, 93, 0
2, 14160, Note_on_c, 1, 45, 127
2, 14160, Note_on_c, 1, 48, 127
2, 14160, Note_off_c, 1, 50, 0
2, 14160, Note_off_c, 1, 57, 0
2, 14280, Note_off_c, 1, 45, 0
2, 14280, Note_off_c, 1, 48, 0
2, 14320, Note_on_c, 1, 53, 127
2, 14320, Note_on_c, 1, 57, 127
2, 14360, Note_on_c, 1, 48, 127
2, 14360, Note_off_c, 1, 53, 0
2, 14360, Note_off_c, 1, 65, 0
2, 14400, Note_on_c, 1, 46, 127
2, 14400, Note_off_c, 1, 48, 0
2, 14400, Note_on_c, 1, 53, 127
2, 14400, Note_off_c, 1, 57, 0
2, 14400, Note_on_c, 1, 62, 127
2, 14400, Note_on_c, 1, 70, 127
2, 14400, Note_on_c, 1, 80, 127
2, 14560, Note_off_c, 1, 46, 0
2, 14560, Note_off_c, 1, 53, 0
2, 14560, Note_off_c, 1, 62, 0
2, 14560, Note_off_c, 1, 70, 0
2, 14560, Note_off_c, 1, 80, 0
2, 14600, Note_on_c, 1, 50, 127
2, 14600, Note_on_c, 1, 55, 127
2, 14600, Note_on_c, 1, 62, 127
2, 14600, Note_on_c, 1, 74, 127
2, 14760, Note_off_c, 1, 50, 0
2, 14760, Note_off_c, 1, 55, 0
2, 14760, Note_off_c, 1, 62, 0
2, 14760, Note_off_c, 1, 74, 0
2, 14800, Note_on_c, 1, 48, 127
2, 14800, Note_on_c, 1, 62, 127
2, 14800, Note_on_c, 1, 65, 127
2, 14800, Note_on_c, 1, 71, 127
2, 15200, Note_off_c, 1, 48, 0
2, 15200, Note_off_c, 1, 62, 0
2, 15200, Note_off_c, 1, 65, 0
2, 15200, Note_off_c, 1, 71, 0
2, 15280, Note_on_c, 1, 45, 127
2, 15280, Note_on_c, 1, 64, 127
2, 15280, Note_on_c, 1, 67, 127
2, 15520, Note_off_c, 1, 64, 0
2, 15520, Note_off_c, 1, 67, 0
2, 15560, Note_off_c, 1, 45, 0
2, 15560, Note_on_c, 1, 52, 127
2, 15560, Note_on_c, 1, 64, 127
2, 15560, Note_on_c, 1, 67, 127
2, 15600, Note_off_c, 1, 52, 0
2, 15640, Note_off_c, 1, 64, 0
2, 15640, Note_off_c, 1, 67, 0
2, 15680, Note_on_c, 1, 45, 127
2, 15680, Note_on_c, 1, 61, 127
2, 15680, Note_on_c, 1, 64, 127
2, 15680, Note_on_c, 1, 67, 127
2, 15720, Note_off_c, 1, 45, 0
2, 15720, Note_off_c, 1, 61, 0
2, 15720, Note_off_c, 1, 64, 0
2, 15720, Note_off_c, 1, 67, 0
2, 15760, Note_on_c, 1, 36, 127
2, 15760, Note_on_c, 1, 55, 127
2, 15760, Note_on_c, 1, 60, 127
2, 15760, Note_on_c, 1, 64, 127
2, 16080, Note_off_c, 1, 36, 0
2, 16080, Note_off_c, 1, 55, 0
2, 16080, Note_on_c, 1, 57, 127
2, 16080, Note_on_c, 1, 63, 127
2, 16080, Note_off_c, 1, 64, 0
2, 16080, Note_on_c, 1, 72, 127
2, 16080, Note_on_c, 1, 78, 127
2, 16080, Note_on_c, 1, 83, 127
2, 16120, Note_off_c, 1, 57, 0
2, 16120, Note_off_c, 1, 60, 0
2, 16120, Note_off_c, 1, 63, 0
2, 16120, Note_off_c, 1, 72, 0
2, 16120, Note_off_c, 1, 78, 0
2, 16120, Note_off_c, 1, 83, 0
2, 16160, Note_on_c, 1, 36, 127
2, 16160, Note_on_c, 1, 55, 127
2, 16160, Note_on_c, 1, 60, 127
2, 16160, Note_on_c, 1, 64, 127
2, 16560, Note_off_c, 1, 36, 0
2, 16560, Note_off_c, 1, 55, 0
2, 16560, Note_off_c, 1, 60, 0
2, 16560, Note_off_c, 1, 64, 0
2, 16600, Note_on_c, 1, 47, 127
2, 16600, Note_on_c, 1, 56, 127
2, 16600, Note_on_c, 1, 65, 127
2, 16600, Note_on_c, 1, 74, 127
2, 16760, Note_off_c, 1, 47, 0
2, 16760, Note_off_c, 1, 56, 0
2, 16760, Note_off_c, 1, 65, 0
2, 16760, Note_off_c, 1, 74, 0
2, 16800, Note_on_c, 1, 42, 127
2, 16800, Note_on_c, 1, 54, 127
2, 16800, Note_on_c, 1, 57, 127
2, 16800, Note_on_c, 1, 64, 127
2, 17000, Note_off_c, 1, 42, 0
2, 17000, Note_on_c, 1, 45, 127
2, 17000, Note_off_c, 1, 54, 0
2, 17000, Note_off_c, 1, 57, 0
2, 17000, Note_on_c, 1, 62, 127
2, 17000, Note_off_c, 1, 64, 0
2, 17040, Note_on_c, 1, 42, 127
2, 17040, Note_off_c, 1, 45, 0
2, 17040, Note_on_c, 1, 54, 127
2, 17480, Note_off_c, 1, 42, 0
2, 17480, Note_off_c, 1, 54, 0
2, 17520, Note_off_c, 1, 62, 0
2, 17560, Note_on_c, 1, 35, 127
2, 17560, Note_on_c, 1, 47, 127
2, 17560, Note_on_c, 1, 71, 127
2, 17560, Note_on_c, 1, 74, 127
2, 17920, Note_off_c, 1, 35, 0
2, 17920, Note_off_c, 1, 47, 0
2, 17920, Note_off_c, 1, 71, 0
2, 17920, Note_off_c, 1, 74, 0
2, 17960, Note_on_c, 1, 35, 127
2, 17960, Note_on_c, 1, 47, 127
2, 17960, Note_on_c, 1, 71, 127
2, 17960, Note_on_c, 1, 74, 127
2, 18360, Note_off_c, 1, 35, 0
2, 18360, Note_off_c, 1, 47, 0
2, 18360, Note_off_c, 1, 71, 0
2, 18360, Note_off_c, 1, 74, 0
2, 18400, Note_on_c, 1, 55, 127
2, 18400, Note_on_c, 1, 62, 127
2, 18400, Note_on_c, 1, 71, 127
2, 18400, Note_on_c, 1, 79, 127
2, 18400, Note_on_c, 1, 83, 127
2, 18760, Note_off_c, 1, 55, 0
2, 18760, Note_off_c, 1, 62, 0
2, 18760, Note_off_c, 1, 71, 0
2, 18760, Note_off_c, 1, 79, 0
2, 18760, Note_off_c, 1, 83, 0
2, 18800, Note_on_c, 1, 52, 127
2, 18800, Note_on_c, 1, 55, 127
2, 18800, Note_on_c, 1, 71, 127
2, 18800, Note_on_c, 1, 83, 127
2, 18920, Note_on_c, 1, 59, 127
2, 18960, Note_off_c, 1, 59, 0
2, 19200, Note_off_c, 1, 52, 0
2, 19200, Note_off_c, 1, 55, 0
2, 19200, Note_off_c, 1, 71, 0
2, 19200, Note_on_c, 1, 72, 127
2, 19200, Note_on_c, 1, 74, 127
2, 19200, Note_on_c, 1, 81, 127
2, 19200, Note_off_c, 1, 83, 0
2, 19200, Note_on_c, 1, 100, 127
2, 19240, Note_off_c, 1, 72, 0
2, 19240, Note_off_c, 1, 74, 0
2, 19240, Note_off_c, 1, 81, 0
2, 19240, Note_off_c, 1, 100, 0
2, 19320, Note_on_c, 1, 54, 127
2, 19320, Note_on_c, 1, 59, 127
2, 19320, Note_on_c, 1, 62, 127
2, 19320, Note_on_c, 1, 74, 127
2, 19320, Note_on_c, 1, 86, 127
2, 19680, Note_off_c, 1, 54, 0
2, 19680, Note_off_c, 1, 59, 0
2, 19680, Note_off_c, 1, 62, 0
2, 19680, Note_off_c, 1, 74, 0
2, 19680, Note_off_c, 1, 86, 0
2, 19720, Note_on_c, 1, 31, 127
2, 19720, Note_on_c, 1, 43, 127
2, 19720, Note_on_c, 1, 55, 127
2, 19720, Note_on_c, 1, 67, 127
2, 19720, Note_on_c, 1, 72, 127
2, 19720, Note_on_c, 1, 76, 127
2, 19720, Note_on_c, 1, 82, 127
2, 19720, Note_on_c, 1, 84, 127
2, 19720, Note_on_c, 1, 88, 127
2, 19720, Note_on_c, 1, 94, 127
2, 19720, Note_on_c, 1, 96, 127
2, 19760, Note_off_c, 1, 31, 0
2, 19760, Note_off_c, 1, 43, 0
2, 19760, Note_on_c, 1, 64, 127
2, 19760, Note_off_c, 1, 67, 0
2, 19760, Note_off_c, 1, 76, 0
2, 19760, Note_on_c, 1, 81, 127
2, 19760, Note_off_c, 1, 82, 0
2, 19760, Note_off_c, 1, 88, 0
2, 19760, Note_off_c, 1, 94, 0
2, 19760, Note_off_c, 1, 96, 0
2, 19800, Note_on_c, 1, 44, 127
2, 19800, Note_on_c, 1, 49, 127
2, 19800, Note_on_c, 1, 50, 127
2, 19800, Note_on_c, 1, 53, 127
2, 19800, Note_off_c, 1, 55, 0
2, 19800, Note_on_c, 1, 59, 127
2, 19800, Note_on_c, 1, 60, 127
2, 19800, Note_off_c, 1, 64, 0
2, 19800, Note_on_c, 1, 65, 127
2, 19800, Note_on_c, 1, 71, 127
2, 19800, Note_off_c, 1, 72, 0
2, 19800, Note_off_c, 1, 81, 0
2, 19800, Note_off_c, 1, 84, 0
2, 19840, Note_on_c, 1, 30, 127
2, 19840, Note_on_c, 1, 42, 127
2, 19840, Note_off_c, 1, 44, 0
2, 19840, Note_on_c, 1, 45, 127
2, 19840, Note_on_c, 1, 48, 127
2, 19840, Note_off_c, 1, 49, 0
2, 19840, Note_off_c, 1, 50, 0
2, 19840, Note_on_c, 1, 52, 127
2, 19840, Note_off_c, 1, 53, 0
2, 19840, Note_on_c, 1, 54, 127
2, 19840, Note_on_c, 1, 57, 127
2, 19840, Note_off_c, 1, 59, 0
2, 19840, Note_on_c, 1, 64, 127
2, 19840, Note_off_c, 1, 65, 0
2, 19840, Note_on_c, 1, 69, 127
2, 19840, Note_off_c, 1, 71, 0
2, 19880, Note_off_c, 1, 30, 0
2, 19880, Note_off_c, 1, 42, 0
2, 19880, Note_off_c, 1, 45, 0
2, 19880, Note_off_c, 1, 48, 0
2, 19880, Note_off_c, 1, 52, 0
2, 19880, Note_off_c, 1, 54, 0
2, 19880, Note_on_c, 1, 55, 127
2, 19880, Note_off_c, 1, 57, 0
2, 19880, Note_off_c, 1, 60, 0
2, 19880, Note_off_c, 1, 69, 0
2, 19880, Note_on_c, 1, 72, 127
2, 19880, Note_on_c, 1, 84, 127
2, 19920, Note_off_c, 1, 55, 0
2, 19920, Note_off_c, 1, 64, 0
2, 19920, Note_off_c, 1, 72, 0
2, 19920, Note_on_c, 1, 76, 127
2, 19920, Note_on_c, 1, 79, 127
2, 19920, Note_on_c, 1, 81, 127
2, 19920, Note_off_c, 1, 84, 0
2, 19920, Note_on_c, 1, 93, 127
2, 19960, Note_on_c, 1, 27, 127
2, 19960, Note_on_c, 1, 39, 127
2, 19960, Note_on_c, 1, 58, 127
2, 19960, Note_on_c, 1, 63, 127
2, 19960, Note_off_c, 1, 76, 0
2, 19960, Note_off_c, 1, 79, 0
2, 19960, Note_off_c, 1, 81, 0
2, 19960, Note_off_c, 1, 93, 0
2, 20000, Note_off_c, 1, 27, 0
2, 20000, Note_off_c, 1, 39, 0
2, 20000, Note_on_c, 1, 47, 127
2, 20000, Note_on_c, 1, 54, 127
2, 20000, Note_off_c, 1, 58, 0
2, 20000, Note_on_c, 1, 83, 127
2, 20000, Note_on_c, 1, 95, 127
2, 20040, Note_on_c, 1, 38, 127
2, 20040, Note_on_c, 1, 43, 127
2, 20040, Note_on_c, 1, 50, 127
2, 20040, Note_off_c, 1, 54, 0
2, 20040, Note_off_c, 1, 63, 0
2, 20040, Note_on_c, 1, 74, 127
2, 20040, Note_off_c, 1, 83, 0
2, 20040, Note_off_c, 1, 95, 0
2, 20080, Note_on_c, 1, 32, 127
2, 20080, Note_off_c, 1, 38, 0
2, 20080, Note_on_c, 1, 39, 127
2, 20080, Note_off_c, 1, 43, 0
2, 20080, Note_on_c, 1, 44, 127
2, 20080, Note_off_c, 1, 47, 0
2, 20080, Note_off_c, 1, 50, 0
2, 20080, Note_on_c, 1, 71, 127
2, 20080, Note_off_c, 1, 74, 0
2, 20080, Note_on_c, 1, 75, 127
2, 20080, Note_on_c, 1, 80, 127
2, 20080, Note_on_c, 1, 83, 127
2, 20120, Note_off_c, 1, 32, 0
2, 20120, Note_off_c, 1, 39, 0
2, 20120, Note_off_c, 1, 44, 0
2, 20120, Note_off_c, 1, 71, 0
2, 20120, Note_off_c, 1, 75, 0
2, 20120, Note_off_c, 1, 80, 0
2, 20120, Note_off_c, 1, 83, 0
2, 20160, Note_on_c, 1, 58, 127
2, 20160, Note_on_c, 1, 62, 127
2, 20160, Note_on_c, 1, 94, 127
2, 20200, Note_on_c, 1, 86, 127
2, 20200, Note_off_c, 1, 94, 0
2, 20520, Note_off_c, 1, 58, 0
2, 20520, Note_off_c, 1, 62, 0
2, 20520, Note_off_c, 1, 86, 0
2, 20560, Note_on_c, 1, 57, 127
2, 20560, Note_on_c, 1, 77, 127
2, 20560, Note_on_c, 1, 81, 127
2, 20960, Note_off_c, 1, 57, 0
2, 20960, Note_off_c, 1, 77, 0
2, 20960, Note_off_c, 1, 81, 0
2, 21000, Note_on_c, 1, 46, 127
2, 21000, Note_on_c, 1, 50, 127
2, 21000, Note_on_c, 1, 53, 127
2, 21000, Note_on_c, 1, 65, 127
2, 21000, Note_on_c, 1, 70, 127
2, 21000, Note_on_c, 1, 74, 127
2, 21040, Note_on_c, 1, 33, 127
2, 21040, Note_on_c, 1, 45, 127
2, 21040, Note_off_c, 1, 46, 0
2, 21040, Note_off_c, 1, 50, 0
2, 21040, Note_off_c, 1, 53, 0
2, 21040, Note_off_c, 1, 65, 0
2, 21040, Note_on_c, 1, 69, 127
2, 21040, Note_off_c, 1, 70, 0
2, 21040, Note_on_c, 1, 73, 127
2, 21040, Note_off_c, 1, 74, 0
2, 21040, Note_on_c, 1, 81, 127
2, 21400, Note_off_c, 1, 33, 0
2, 21400, Note_off_c, 1, 45, 0
2, 21400, Note_off_c, 1, 69, 0
2, 21400, Note_off_c, 1, 73, 0
2, 21400, Note_off_c, 1, 81, 0
2, 21480, Note_on_c, 1, 38, 127
2, 21480, Note_on_c, 1, 69, 127
2, 21480, Note_on_c, 1, 78, 127
2, 21680, Note_off_c, 1, 78, 0
2, 21720, Note_on_c, 1, 78, 127
2, 21880, Note_off_c, 1, 38, 0
2, 21880, Note_off_c, 1, 69, 0
2, 21880, Note_off_c, 1, 78, 0
2, 21920, Note_on_c, 1, 31, 127
2, 21920, Note_on_c, 1, 43, 127
2, 21920, Note_on_c, 1, 71, 127
2, 22040, Note_on_c, 1, 55, 127
2, 22040, Note_on_c, 1, 62, 127
2, 22040, Note_off_c, 1, 71, 0
2, 22080, Note_off_c, 1, 55, 0
2, 22080, Note_off_c, 1, 62, 0
2, 22080, Note_on_c, 1, 74, 127
2, 22120, Note_off_c, 1, 43, 0
2, 22120, Note_on_c, 1, 57, 127
2, 22120, Note_on_c, 1, 60, 127
2, 22120, Note_on_c, 1, 66, 127
2, 22120, Note_off_c, 1, 74, 0
2, 22160, Note_off_c, 1, 31, 0
2, 22160, Note_on_c, 1, 55, 127
2, 22160, Note_off_c, 1, 57, 0
2, 22160, Note_off_c, 1, 60, 0
2, 22160, Note_on_c, 1, 64, 127
2, 22160, Note_off_c, 1, 66, 0
2, 22160, Note_on_c, 1, 72, 127
2, 22160, Note_on_c, 1, 81, 127
2, 22160, Note_on_c, 1, 84, 127
2, 22200, Note_off_c, 1, 55, 0
2, 22200, Note_on_c, 1, 58, 127
2, 22200, Note_off_c, 1, 64, 0
2, 22200, Note_off_c, 1, 72, 0
2, 22200, Note_on_c, 1, 80, 127
2, 22200, Note_off_c, 1, 81, 0
2, 22200, Note_off_c, 1, 84, 0
2, 22200, Note_on_c, 1, 85, 127
2, 22200, Note_on_c, 1, 88, 127
2, 22200, Note_on_c, 1, 92, 127
2, 22240, Note_on_c, 1, 55, 127
2, 22240, Note_off_c, 1, 58, 0
2, 22240, Note_on_c, 1, 64, 127
2, 22240, Note_on_c, 1, 72, 127
2, 22240, Note_off_c, 1, 80, 0
2, 22240, Note_on_c, 1, 81, 127
2, 22240, Note_on_c, 1, 84, 127
2, 22240, Note_off_c, 1, 85, 0
2, 22240, Note_off_c, 1, 88, 0
2, 22240, Note_off_c, 1, 92, 0
2, 22280, Note_off_c, 1, 55, 0
2, 22280, Note_off_c, 1, 64, 0
2, 22280, Note_off_c, 1, 72, 0
2, 22280, Note_off_c, 1, 81, 0
2, 22280, Note_off_c, 1, 84, 0
2, 22320, Note_on_c, 1, 39, 127
2, 22320, Note_on_c, 1, 44, 127
2, 22320, Note_on_c, 1, 51, 127
2, 22320, Note_on_c, 1, 66, 127
2, 22320, Note_on_c, 1, 71, 127
2, 22320, Note_on_c, 1, 78, 127
2, 22720, Note_off_c, 1, 39, 0
2, 22720, Note_off_c, 1, 44, 0
2, 22720, Note_off_c, 1, 51, 0
2, 22720, Note_off_c, 1, 66, 0
2, 22720, Note_off_c, 1, 71, 0
2, 22720, Note_off_c, 1, 78, 0
2, 22760, Note_on_c, 1, 46, 127
2, 22760, Note_on_c, 1, 84, 127
2, 22760, Note_on_c, 1, 89, 127
2, 22760, Note_on_c, 1, 92, 127
2, 22760, Note_on_c, 1, 96, 127
2, 22800, Note_on_c, 1, 34, 127
2, 22800, Note_on_c, 1, 41, 127
2, 22800, Note_on_c, 1, 50, 127
2, 22800, Note_on_c, 1, 58, 127
2, 22800, Note_on_c, 1, 62, 127
2, 22800, Note_off_c, 1, 84, 0
2, 22800, Note_off_c, 1, 89, 0
2, 22800, Note_off_c, 1, 92, 0
2, 22800, Note_off_c, 1, 96, 0
2, 22840, Note_off_c, 1, 34, 0
2, 22840, Note_off_c, 1, 41, 0
2, 22840, Note_off_c, 1, 46, 0
2, 22840, Note_off_c, 1, 50, 0
2, 22840, Note_off_c, 1, 58, 0
2, 22840, Note_off_c, 1, 62, 0
2, 22840, Note_on_c, 1, 89, 127
2, 22840, Note_on_c, 1, 98, 127
2, 22840, Note_on_c, 1, 105, 127
2, 22880, Note_on_c, 1, 61, 127
2, 22880, Note_on_c, 1, 71, 127
2, 22880, Note_on_c, 1, 73, 127
2, 22880, Note_on_c, 1, 77, 127
2, 22880, Note_on_c, 1, 83, 127
2, 22880, Note_off_c, 1, 89, 0
2, 22880, Note_off_c, 1, 98, 0
2, 22880, Note_off_c, 1, 105, 0
2, 22920, Note_on_c, 1, 43, 127
2, 22920, Note_on_c, 1, 59, 127
2, 22920, Note_off_c, 1, 61, 0
2, 22920, Note_on_c, 1, 67, 127
2, 22920, Note_off_c, 1, 73, 0
2, 22920, Note_on_c, 1, 74, 127
2, 22920, Note_off_c, 1, 77, 0
2, 22920, Note_off_c, 1, 83, 0
2, 22960, Note_off_c, 1, 43, 0
2, 22960, Note_on_c, 1, 46, 127
2, 22960, Note_off_c, 1, 59, 0
2, 22960, Note_off_c, 1, 67, 0
2, 22960, Note_on_c, 1, 69, 127
2, 22960, Note_off_c, 1, 71, 0
2, 22960, Note_on_c, 1, 73, 127
2, 22960, Note_off_c, 1, 74, 0
2, 22960, Note_on_c, 1, 77, 127
2, 23000, Note_on_c, 1, 44, 127
2, 23000, Note_off_c, 1, 46, 0
2, 23000, Note_on_c, 1, 51, 127
2, 23000, Note_on_c, 1, 60, 127
2, 23000, Note_on_c, 1, 62, 127
2, 23000, Note_off_c, 1, 69, 0
2, 23000, Note_on_c, 1, 72, 127
2, 23000, Note_off_c, 1, 73, 0
2, 23000, Note_off_c, 1, 77, 0
2, 23040, Note_off_c, 1, 44, 0
2, 23040, Note_off_c, 1, 51, 0
2, 23040, Note_off_c, 1, 62, 0
2, 23040, Note_off_c, 1, 72, 0
2, 23040, Note_on_c, 1, 80, 127
2, 23040, Note_on_c, 1, 84, 127
2, 23080, Note_off_c, 1, 60, 0
2, 23080, Note_on_c, 1, 66, 127
2, 23080, Note_on_c, 1, 67, 127
2, 23080, Note_on_c, 1, 71, 127
2, 23080, Note_on_c, 1, 77, 127
2, 23080, Note_off_c, 1, 80, 0
2, 23080, Note_off_c, 1, 84, 0
2, 23120, Note_off_c, 1, 66, 0
2, 23120, Note_off_c, 1, 67, 0
2, 23120, Note_off_c, 1, 71, 0
2, 23120, Note_on_c, 1, 75, 127
2, 23120, Note_off_c, 1, 77, 0
2, 23120, Note_on_c, 1, 85, 127
2, 23120, Note_on_c, 1, 88, 127
2, 23160, Note_off_c, 1, 75, 0
2, 23160, Note_off_c, 1, 85, 0
2, 23160, Note_off_c, 1, 88, 0
2, 23200, Note_on_c, 1, 45, 127
2, 23200, Note_on_c, 1, 60, 127
2, 23200, Note_on_c, 1, 65, 127
2, 23200, Note_on_c, 1, 72, 127
2, 23560, Note_off_c, 1, 45, 0
2, 23560, Note_off_c, 1, 60, 0
2, 23560, Note_off_c, 1, 65, 0
2, 23560, Note_off_c, 1, 72, 0
2, 23600, Note_on_c, 1, 45, 127
2, 23600, Note_on_c, 1, 60, 127
2, 23600, Note_on_c, 1, 65, 127
2, 23600, Note_on_c, 1, 72, 127
2, 23640, Note_off_c, 1, 45, 0
2, 23640, Note_off_c, 1, 60, 0
2, 23640, Note_off_c, 1, 65, 0
2, 23640, Note_off_c, 1, 72, 0
2, 23680, Note_on_c, 1, 40, 127
2, 23680, Note_on_c, 1, 48, 127
2, 23680, Note_on_c, 1, 52, 127
2, 23680, Note_on_c, 1, 67, 127
2, 23680, Note_on_c, 1, 72, 127
2, 23680, Note_on_c, 1, 79, 127
2, 24040, Note_off_c, 1, 40, 0
2, 24040, Note_on_c, 1, 44, 127
2, 24040, Note_off_c, 1, 48, 0
2, 24040, Note_off_c, 1, 52, 0
2, 24040, Note_on_c, 1, 56, 127
2, 24040, Note_on_c, 1, 64, 127
2, 24040, Note_off_c, 1, 67, 0
2, 24040, Note_on_c, 1, 71, 127
2, 24040, Note_off_c, 1, 72, 0
2, 24040, Note_off_c, 1, 79, 0
2, 24080, Note_off_c, 1, 44, 0
2, 24080, Note_off_c, 1, 56, 0
2, 24080, Note_off_c, 1, 64, 0
2, 24080, Note_off_c, 1, 71, 0
2, 24120, Note_on_c, 1, 38, 127
2, 24120, Note_on_c, 1, 45, 127
2, 24120, Note_on_c, 1, 50, 127
2, 24120, Note_on_c, 1, 89, 127
2, 24520, Note_off_c, 1, 38, 0
2, 24520, Note_off_c, 1, 45, 0
2, 24520, Note_off_c, 1, 50, 0
2, 24520, Note_off_c, 1, 89, 0
2, 24560, Note_on_c, 1, 32, 127
2, 24560, Note_on_c, 1, 44, 127
2, 24560, Note_on_c, 1, 72, 127
2, 24560, Note_on_c, 1, 79, 127
2, 24720, Note_off_c, 1, 72, 0
2, 24720, Note_off_c, 1, 79, 0
2, 24760, Note_on_c, 1, 63, 127
2, 24760, Note_on_c, 1, 72, 127
2, 24960, Note_off_c, 1, 63, 0
2, 24960, Note_off_c, 1, 72, 0
2, 25000, Note_on_c, 1, 71, 127
2, 25000, Note_on_c, 1, 74, 127
2, 25160, Note_off_c, 1, 32, 0
2, 25160, Note_off_c, 1, 44, 0
2, 25160, Note_off_c, 1, 71, 0
2, 25160, Note_off_c, 1, 74, 0
2, 25200, Note_on_c, 1, 32, 127
2, 25200, Note_on_c, 1, 44, 127
2, 25200, Note_on_c, 1, 62, 127
2, 25200, Note_on_c, 1, 74, 127
2, 25400, Note_off_c, 1, 32, 0
2, 25400, Note_off_c, 1, 44, 0
2, 25400, Note_off_c, 1, 62, 0
2, 25400, Note_off_c, 1, 74, 0
2, 25440, Note_on_c, 1, 30, 127
2, 25440, Note_on_c, 1, 42, 127
2, 25440, Note_on_c, 1, 70, 127
2, 25440, Note_on_c, 1, 77, 127
2, 25600, Note_off_c, 1, 77, 0
2, 25640, Note_off_c, 1, 30, 0
2, 25640, Note_off_c, 1, 42, 0
2, 25640, Note_off_c, 1, 70, 0
2, 25680, Note_on_c, 1, 37, 127
2, 25680, Note_on_c, 1, 49, 127
2, 25680, Note_on_c, 1, 61, 127
2, 25680, Note_on_c, 1, 69, 127
2, 25840, Note_off_c, 1, 61, 0
2, 25840, Note_off_c, 1, 69, 0
2, 25880, Note_off_c, 1, 37, 0
2, 25880, Note_off_c, 1, 49, 0
2, 25880, Note_on_c, 1, 62, 127
2, 25880, Note_on_c, 1, 85, 127
2, 25880, Note_on_c, 1, 97, 127
2, 25920, Note_on_c, 1, 37, 127
2, 25920, Note_on_c, 1, 53, 127
2, 25920, Note_on_c, 1, 65, 127
2, 25920, Note_off_c, 1, 85, 0
2, 25920, Note_off_c, 1, 97, 0
2, 25960, Note_on_c, 1, 36, 127
2, 25960, Note_off_c, 1, 37, 0
2, 25960, Note_on_c, 1, 43, 127
2, 25960, Note_off_c, 1, 53, 0
2, 25960, Note_off_c, 1, 62, 0
2, 25960, Note_off_c, 1, 65, 0
2, 25960, Note_on_c, 1, 74, 127
2, 25960, Note_on_c, 1, 78, 127
2, 26000, Note_on_c, 1, 35, 127
2, 26000, Note_off_c, 1, 36, 0
2, 26000, Note_off_c, 1, 43, 0
2, 26000, Note_on_c, 1, 61, 127
2, 26000, Note_on_c, 1, 64, 127
2, 26000, Note_off_c, 1, 74, 0
2, 26000, Note_off_c, 1, 78, 0
2, 26040, Note_off_c, 1, 35, 0
2, 26040, Note_off_c, 1, 61, 0
2, 26040, Note_off_c, 1, 64, 0
2, 26120, Note_on_c, 1, 36, 127
2, 26120, Note_on_c, 1, 48, 127
2, 26120, Note_on_c, 1, 71, 127
2, 26120, Note_on_c, 1, 76, 127
2, 26120, Note_on_c, 1, 83, 127
2, 26280, Note_off_c, 1, 36, 0
2, 26280, Note_on_c, 1, 39, 127
2, 26280, Note_off_c, 1, 48, 0
2, 26280, Note_on_c, 1, 51, 127
2, 26280, Note_on_c, 1, 57, 127
2, 26280, Note_on_c, 1, 69, 127
2, 26280, Note_off_c, 1, 71, 0
2, 26280, Note_off_c, 1, 76, 0
2, 26280, Note_off_c, 1, 83, 0
2, 26320, Note_on_c, 1, 36, 127
2, 26320, Note_off_c, 1, 39, 0
2, 26320, Note_on_c, 1, 48, 127
2, 26320, Note_off_c, 1, 51, 0
2, 26320, Note_off_c, 1, 57, 0
2, 26320, Note_off_c, 1, 69, 0
2, 26320, Note_on_c, 1, 71, 127
2, 26320, Note_on_c, 1, 76, 127
2, 26320, Note_on_c, 1, 83, 127
2, 26480, Note_off_c, 1, 36, 0
2, 26480, Note_off_c, 1, 48, 0
2, 26480, Note_on_c, 1, 56, 127
2, 26480, Note_on_c, 1, 63, 127
2, 26480, Note_on_c, 1, 66, 127
2, 26480, Note_off_c, 1, 71, 0
2, 26480, Note_on_c, 1, 72, 127
2, 26480, Note_on_c, 1, 75, 127
2, 26480, Note_off_c, 1, 76, 0
2, 26480, Note_off_c, 1, 83, 0
2, 26520, Note_off_c, 1, 56, 0
2, 26520, Note_off_c, 1, 63, 0
2, 26520, Note_off_c, 1, 66, 0
2, 26520, Note_off_c, 1, 72, 0
2, 26520, Note_off_c, 1, 75, 0
2, 26560, Note_on_c, 1, 56, 127
2, 26560, Note_on_c, 1, 64, 127
2, 26560, Note_on_c, 1, 68, 127
2, 26560, Note_on_c, 1, 73, 127
2, 26560, Note_on_c, 1, 76, 127
2, 26560, Note_on_c, 1, 80, 127
2, 26560, Note_on_c, 1, 85, 127
2, 26560, Note_on_c, 1, 87, 127
2, 26560, Note_on_c, 1, 88, 127
2, 26600, Note_off_c, 1, 56, 0
2, 26600, Note_on_c, 1, 60, 127
2, 26600, Note_off_c, 1, 64, 0
2, 26600, Note_on_c, 1, 67, 127
2, 26600, Note_off_c, 1, 68, 0
2, 26600, Note_on_c, 1, 69, 127
2, 26600, Note_off_c, 1, 73, 0
2, 26600, Note_off_c, 1, 76, 0
2, 26600, Note_on_c, 1, 78, 127
2, 26600, Note_off_c, 1, 80, 0
2, 26600, Note_off_c, 1, 85, 0
2, 26600, Note_off_c, 1, 87, 0
2, 26600, Note_off_c, 1, 88, 0
2, 26640, Note_on_c, 1, 51, 127
2, 26640, Note_off_c, 1, 60, 0
2, 26640, Note_on_c, 1, 62, 127
2, 26640, Note_off_c, 1, 69, 0
2, 26640, Note_on_c, 1, 71, 127
2, 26640, Note_off_c, 1, 78, 0
2, 26680, Note_on_c, 1, 50, 127
2, 26680, Note_off_c, 1, 51, 0
2, 26680, Note_on_c, 1, 61, 127
2, 26680, Note_off_c, 1, 62, 0
2, 26680, Note_off_c, 1, 67, 0
2, 26680, Note_on_c, 1, 69, 127
2, 26680, Note_off_c, 1, 71, 0
2, 26680, Note_on_c, 1, 74, 127
2, 26680, Note_on_c, 1, 78, 127
2, 26720, Note_off_c, 1, 50, 0
2, 26720, Note_off_c, 1, 61, 0
2, 26720, Note_off_c, 1, 69, 0
2, 26720, Note_off_c, 1, 74, 0
2, 26720, Note_off_c, 1, 78, 0
2, 26760, Note_on_c, 1, 55, 127
2, 26760, Note_on_c, 1, 58, 127
2, 26760, Note_on_c, 1, 66, 127
2, 26920, Note_off_c, 1, 66, 0
2, 26920, Note_on_c, 1, 67, 127
2, 26960, Note_off_c, 1, 55, 0
2, 26960, Note_off_c, 1, 58, 0
2, 26960, Note_on_c, 1, 61, 127
2, 26960, Note_off_c, 1, 67, 0
2, 26960, Note_on_c, 1, 68, 127
2, 26960, Note_on_c, 1, 75, 127
2, 26960, Note_on_c, 1, 77, 127
2, 26960, Note_on_c, 1, 80, 127
2, 27000, Note_on_c, 1, 49, 127
2, 27000, Note_on_c, 1, 54, 127
2, 27000, Note_off_c, 1, 61, 0
2, 27000, Note_on_c, 1, 63, 127
2, 27000, Note_off_c, 1, 68, 0
2, 27000, Note_on_c, 1, 72, 127
2, 27000, Note_off_c, 1, 75, 0
2, 27000, Note_off_c, 1, 77, 0
2, 27000, Note_off_c, 1, 80, 0
2, 27160, Note_off_c, 1, 49, 0
2, 27160, Note_off_c, 1, 54, 0
2, 27160, Note_off_c, 1, 63, 0
2, 27160, Note_off_c, 1, 72, 0
2, 27200, Note_on_c, 1, 45, 127
2, 27200, Note_on_c, 1, 51, 127
2, 27200, Note_on_c, 1, 53, 127
2, 27200, Note_on_c, 1, 58, 127
2, 27200, Note_on_c, 1, 63, 127
2, 27200, Note_on_c, 1, 65, 127
2, 27240, Note_off_c, 1, 45, 0
2, 27240, Note_off_c, 1, 51, 0
2, 27240, Note_off_c, 1, 53, 0
2, 27240, Note_off_c, 1, 58, 0
2, 27240, Note_off_c, 1, 63, 0
2, 27240, Note_off_c, 1, 65, 0
2, 27240, Note_on_c, 1, 72, 127
2, 27240, Note_on_c, 1, 73, 127
2, 27240, Note_on_c, 1, 77, 127
2, 27280, Note_on_c, 1, 46, 127
2, 27280, Note_on_c, 1, 58, 127
2, 27280, Note_on_c, 1, 64, 127
2, 27280, Note_on_c, 1, 68, 127
2, 27280, Note_off_c, 1, 72, 0
2, 27280, Note_off_c, 1, 73, 0
2, 27280, Note_off_c, 1, 77, 0
2, 27320, Note_on_c, 1, 42, 127
2, 27320, Note_off_c, 1, 46, 0
2, 27320, Note_on_c, 1, 51, 127
2, 27320, Note_off_c, 1, 58, 0
2, 27320, Note_off_c, 1, 64, 0
2, 27320, Note_off_c, 1, 68, 0
2, 27320, Note_on_c, 1, 72, 127
2, 27320, Note_on_c, 1, 81, 127
2, 27360, Note_off_c, 1, 42, 0
2, 27360, Note_on_c, 1, 43, 127
2, 27360, Note_off_c, 1, 51, 0
2, 27360, Note_off_c, 1, 81, 0
2, 27400, Note_off_c, 1, 43, 0
2, 27400, Note_on_c, 1, 49, 127
2, 27400, Note_on_c, 1, 53, 127
2, 27400, Note_on_c, 1, 65, 127
2, 27400, Note_on_c, 1, 70, 127
2, 27400, Note_off_c, 1, 72, 0
2, 27400, Note_on_c, 1, 77, 127
2, 27600, Note_off_c, 1, 49, 0
2, 27600, Note_off_c, 1, 53, 0
2, 27600, Note_off_c, 1, 65, 0
2, 27600, Note_off_c, 1, 70, 0
2, 27600, Note_off_c, 1, 77, 0
2, 27640, Note_on_c, 1, 49, 127
2, 27640, Note_on_c, 1, 53, 127
2, 27640, Note_on_c, 1, 65, 127
2, 27640, Note_on_c, 1, 70, 127
2, 27640, Note_on_c, 1, 77, 127
2, 28000, Note_off_c, 1, 53, 0
2, 28000, Note_on_c, 1, 54, 127
2, 28080, Note_on_c, 1, 53, 127
2, 28080, Note_off_c, 1, 54, 0
2, 28240, Note_off_c, 1, 53, 0
2, 28240, Note_on_c, 1, 54, 127
2, 28280, Note_off_c, 1, 49, 0
2, 28280, Note_off_c, 1, 54, 0
2, 28280, Note_off_c, 1, 65, 0
2, 28280, Note_off_c, 1, 70, 0
2, 28280, Note_off_c, 1, 77, 0
2, 28320, Note_on_c, 1, 61, 127
2, 28320, Note_on_c, 1, 68, 127
2, 28320, Note_on_c, 1, 71, 127
2, 28320, Note_on_c, 1, 73, 127
2, 28320, Note_on_c, 1, 77, 127
2, 28520, Note_off_c, 1, 68, 0
2, 28520, Note_off_c, 1, 71, 0
2, 28520, Note_off_c, 1, 73, 0
2, 28520, Note_off_c, 1, 77, 0
2, 28560, Note_on_c, 1, 68, 127
2, 28560, Note_on_c, 1, 71, 127
2, 28560, Note_on_c, 1, 73, 127
2, 28560, Note_on_c, 1, 80, 127
2, 28720, Note_off_c, 1, 68, 0
2, 28720, Note_off_c, 1, 71, 0
2, 28720, Note_off_c, 1, 80, 0
2, 28760, Note_on_c, 1, 59, 127
2, 28760, Note_off_c, 1, 61, 0
2, 28760, Note_on_c, 1, 66, 127
2, 28760, Note_on_c, 1, 68, 127
2, 28760, Note_off_c, 1, 73, 0
2, 28760, Note_on_c, 1, 74, 127
2, 28760, Note_on_c, 1, 80, 127
2, 28960, Note_off_c, 1, 59, 0
2, 28960, Note_off_c, 1, 66, 0
2, 28960, Note_off_c, 1, 68, 0
2, 28960, Note_off_c, 1, 74, 0
2, 28960, Note_off_c, 1, 80, 0
2, 29000, Note_on_c, 1, 33, 127
2, 29000, Note_on_c, 1, 45, 127
2, 29000, Note_on_c, 1, 67, 127
2, 29000, Note_on_c, 1, 73, 127
2, 29000, Note_on_c, 1, 78, 127
2, 29400, Note_off_c, 1, 33, 0
2, 29400, Note_off_c, 1, 45, 0
2, 29400, Note_off_c, 1, 67, 0
2, 29400, Note_off_c, 1, 73, 0
2, 29400, Note_off_c, 1, 78, 0
2, 29440, Note_on_c, 1, 33, 127
2, 29440, Note_on_c, 1, 45, 127
2, 29440, Note_on_c, 1, 67, 127
2, 29440, Note_on_c, 1, 73, 127
2, 29440, Note_on_c, 1, 78, 127
2, 29640, Note_off_c, 1, 33, 0
2, 29640, Note_off_c, 1, 45, 0
2, 29640, Note_off_c, 1, 67, 0
2, 29640, Note_off_c, 1, 73, 0
2, 29640, Note_off_c, 1, 78, 0
2, 29680, Note_on_c, 1, 39, 127
2, 29680, Note_on_c, 1, 51, 127
2, 29680, Note_on_c, 1, 63, 127
2, 29680, Note_on_c, 1, 68, 127
2, 29680, Note_on_c, 1, 71, 127
2, 30520, Note_off_c, 1, 39, 0
2, 30520, Note_off_c, 1, 51, 0
2, 30520, Note_off_c, 1, 63, 0
2, 30520, Note_off_c, 1, 68, 0
2, 30520, Note_off_c, 1, 71, 0
2, 30560, Note_on_c, 1, 31, 127
2, 30560, Note_on_c, 1, 43, 127
2, 30560, Note_on_c, 1, 74, 127
2, 30560, Note_on_c, 1, 79, 127
2, 30560, Note_on_c, 1, 83, 127
2, 30560, Note_on_c, 1, 86, 127
2, 30760, Note_off_c, 1, 31, 0
2, 30760, Note_off_c, 1, 43, 0
2, 30760, Note_on_c, 1, 44, 127
2, 30760, Note_on_c, 1, 56, 127
2, 30760, Note_off_c, 1, 74, 0
2, 30760, Note_on_c, 1, 78, 127
2, 30760, Note_off_c, 1, 79, 0
2, 30760, Note_on_c, 1, 80, 127
2, 30760, Note_off_c, 1, 83, 0
2, 30760, Note_on_c, 1, 84, 127
2, 30760, Note_off_c, 1, 86, 0
2, 30760, Note_on_c, 1, 87, 127
2, 30800, Note_on_c, 1, 36, 127
2, 30800, Note_off_c, 1, 44, 0
2, 30800, Note_off_c, 1, 56, 0
2, 30800, Note_on_c, 1, 67, 127
2, 30800, Note_on_c, 1, 74, 127
2, 30800, Note_off_c, 1, 78, 0
2, 30800, Note_off_c, 1, 80, 0
2, 30800, Note_on_c, 1, 82, 127
2, 30800, Note_off_c, 1, 84, 0
2, 30800, Note_off_c, 1, 87, 0
2, 30840, Note_off_c, 1, 36, 0
2, 30840, Note_on_c, 1, 64, 127
2, 30840, Note_on_c, 1, 70, 127
2, 30840, Note_on_c, 1, 72, 127
2, 30840, Note_off_c, 1, 74, 0
2, 30840, Note_on_c, 1, 80, 127
2, 30840, Note_off_c, 1, 82, 0
2, 30880, Note_on_c, 1, 46, 127
2, 30880, Note_on_c, 1, 51, 127
2, 30880, Note_on_c, 1, 61, 127
2, 30880, Note_off_c, 1, 64, 0
2, 30880, Note_off_c, 1, 67, 0
2, 30880, Note_off_c, 1, 70, 0
2, 30880, Note_off_c, 1, 80, 0
2, 30920, Note_off_c, 1, 46, 0
2, 30920, Note_off_c, 1, 51, 0
2, 30920, Note_on_c, 1, 53, 127
2, 30920, Note_on_c, 1, 60, 127
2, 30920, Note_off_c, 1, 61, 0
2, 30920, Note_on_c, 1, 69, 127
2, 30920, Note_off_c, 1, 72, 0
2, 30920, Note_on_c, 1, 76, 127
2, 30920, Note_on_c, 1, 84, 127
2, 30920, Note_on_c, 1, 89, 127
2, 30960, Note_off_c, 1, 53, 0
2, 30960, Note_off_c, 1, 60, 0
2, 30960, Note_off_c, 1, 69, 0
2, 30960, Note_off_c, 1, 76, 0
2, 30960, Note_off_c, 1, 84, 0
2, 30960, Note_off_c, 1, 89, 0
2, 31000, Note_on_c, 1, 72, 127
2, 31000, Note_on_c, 1, 75, 127
2, 31000, Note_on_c, 1, 79, 127
2, 31000, Note_on_c, 1, 87, 127
2, 31160, Note_on_c, 1, 50, 127
2, 31160, Note_on_c, 1, 62, 127
2, 31160, Note_off_c, 1, 72, 0
2, 31160, Note_on_c, 1, 74, 127
2, 31160, Note_off_c, 1, 75, 0
2, 31160, Note_on_c, 1, 78, 127
2, 31160, Note_off_c, 1, 79, 0
2, 31160, Note_on_c, 1, 81, 127
2, 31160, Note_off_c, 1, 87, 0
2, 31200, Note_off_c, 1, 50, 0
2, 31200, Note_off_c, 1, 62, 0
2, 31200, Note_off_c, 1, 74, 0
2, 31200, Note_on_c, 1, 75, 127
2, 31200, Note_off_c, 1, 78, 0
2, 31200, Note_on_c, 1, 79, 127
2, 31200, Note_off_c, 1, 81, 0
2, 31200, Note_on_c, 1, 87, 127
2, 31240, Note_on_c, 1, 43, 127
2, 31240, Note_on_c, 1, 47, 127
2, 31240, Note_on_c, 1, 50, 127
2, 31240, Note_on_c, 1, 53, 127
2, 31240, Note_on_c, 1, 62, 127
2, 31240, Note_on_c, 1, 74, 127
2, 31240, Note_off_c, 1, 75, 0
2, 31240, Note_off_c, 1, 79, 0
2, 31240, Note_off_c, 1, 87, 0
2, 31400, Note_off_c, 1, 43, 0
2, 31400, Note_off_c, 1, 47, 0
2, 31400, Note_off_c, 1, 50, 0
2, 31400, Note_off_c, 1, 53, 0
2, 31400, Note_off_c, 1, 62, 0
2, 31400, Note_off_c, 1, 74, 0
2, 31480, Note_on_c, 1, 43, 127
2, 31480, Note_on_c, 1, 47, 127
2, 31480, Note_on_c, 1, 50, 127
2, 31480, Note_on_c, 1, 53, 127
2, 31680, Note_off_c, 1, 43, 0
2, 31680, Note_off_c, 1, 47, 0
2, 31680, Note_off_c, 1, 50, 0
2, 31680, Note_off_c, 1, 53, 0
2, 31720, Note_on_c, 1, 43, 127
2, 31720, Note_on_c, 1, 47, 127
2, 31720, Note_on_c, 1, 50, 127
2, 31720, Note_on_c, 1, 53, 127
2, 31880, Note_off_c, 1, 43, 0
2, 31880, Note_off_c, 1, 47, 0
2, 31880, Note_off_c, 1, 50, 0
2, 31880, Note_off_c, 1, 53, 0
2, 31920, Note_on_c, 1, 43, 127
2, 31920, Note_on_c, 1, 47, 127
2, 31920, Note_on_c, 1, 50, 127
2, 31920, Note_on_c, 1, 53, 127
2, 32320, Note_off_c, 1, 43, 0
2, 32320, Note_off_c, 1, 47, 0
2, 32320, Note_off_c, 1, 50, 0
2, 32320, Note_off_c, 1, 53, 0
2, 32360, Note_on_c, 1, 54, 127
2, 32360, Note_on_c, 1, 81, 127
2, 32360, Note_on_c, 1, 86, 127
2, 32360, Note_on_c, 1, 90, 127
2, 32360, Note_on_c, 1, 93, 127
2, 32800, Note_off_c, 1, 54, 0
2, 32800, Note_on_c, 1, 57, 127
2, 32800, Note_on_c, 1, 60, 127
2, 32800, Note_on_c, 1, 63, 127
2, 32800, Note_on_c, 1, 66, 127
2, 32800, Note_off_c, 1, 86, 0
2, 32800, Note_on_c, 1, 87, 127
2, 32800, Note_off_c, 1, 90, 0
2, 32800, Note_on_c, 1, 92, 127
2, 32800, Note_off_c, 1, 93, 0
2, 33000, Note_off_c, 1, 57, 0
2, 33000, Note_off_c, 1, 60, 0
2, 33000, Note_off_c, 1, 63, 0
2, 33000, Note_off_c, 1, 66, 0
2, 33000, Note_off_c, 1, 81, 0
2, 33000, Note_off_c, 1, 87, 0
2, 33000, Note_off_c, 1, 92, 0
2, 33040, Note_on_c, 1, 49, 127
2, 33040, Note_on_c, 1, 65, 127
2, 33040, Note_on_c, 1, 71, 127
2, 33040, Note_on_c, 1, 73, 127
2, 33600, Note_off_c, 1, 49, 0
2, 33600, Note_off_c, 1, 65, 0
2, 33600, Note_off_c, 1, 71, 0
2, 33600, Note_off_c, 1, 73, 0
2, 33680, Note_on_c, 1, 49, 127
2, 33680, Note_on_c, 1, 65, 127
2, 33680, Note_on_c, 1, 71, 127
2, 33680, Note_on_c, 1, 73, 127
2, 34560, Note_off_c, 1, 49, 0
2, 34560, Note_off_c, 1, 65, 0
2, 34560, Note_off_c, 1, 71, 0
2, 34560, Note_off_c, 1, 73, 0
2, 34600, Note_on_c, 1, 49, 127
2, 34600, Note_on_c, 1, 65, 127
2, 34600, Note_on_c, 1, 71, 127
2, 34600, Note_on_c, 1, 73, 127
2, 35200, Note_off_c, 1, 49, 0
2, 35240, Note_on_c, 1, 49, 127
2, 35400, Note_on_c, 1, 44, 127
2, 35400, Note_off_c, 1, 49, 0
2, 35400, Note_off_c, 1, 65, 0
2, 35400, Note_off_c, 1, 71, 0
2, 35400, Note_on_c, 1, 72, 127
2, 35400, Note_off_c, 1, 73, 0
2, 35400, Note_on_c, 1, 75, 127
2, 35400, Note_on_c, 1, 80, 127
2, 35440, Note_off_c, 1, 44, 0
2, 35440, Note_off_c, 1, 72, 0
2, 35440, Note_off_c, 1, 75, 0
2, 35440, Note_off_c, 1, 80, 0
2, 35480, Note_on_c, 1, 49, 127
2, 35480, Note_on_c, 1, 65, 127
2, 35480, Note_on_c, 1, 71, 127
2, 35480, Note_on_c, 1, 73, 127
2, 35640, Note_off_c, 1, 49, 0
2, 35640, Note_off_c, 1, 65, 0
2, 35640, Note_off_c, 1, 71, 0
2, 35640, Note_off_c, 1, 73, 0
2, 35680, Note_on_c, 1, 49, 127
2, 35680, Note_on_c, 1, 65, 127
2, 35680, Note_on_c, 1, 71, 127
2, 35680, Note_on_c, 1, 73, 127
2, 35880, Note_off_c, 1, 49, 0
2, 35880, Note_off_c, 1, 65, 0
2, 35880, Note_off_c, 1, 71, 0
2, 35880, Note_off_c, 1, 73, 0
2, 35920, Note_on_c, 1, 49, 127
2, 35920, Note_on_c, 1, 65, 127
2, 35920, Note_on_c, 1, 71, 127
2, 35920, Note_on_c, 1, 73, 127
2, 36760, Note_off_c, 1, 49, 0
2, 36760, Note_off_c, 1, 65, 0
2, 36760, Note_off_c, 1, 71, 0
2, 36760, Note_off_c, 1, 73, 0
2, 36800, Note_on_c, 1, 47, 127
2, 37560, Note_on_c, 1, 51, 127
2, 37560, Note_on_c, 1, 54, 127
2, 37560, Note_on_c, 1, 59, 127
2, 37600, Note_off_c, 1, 51, 0
2, 37600, Note_off_c, 1, 54, 0
2, 37600, Note_off_c, 1, 59, 0
2, 37680, Note_on_c, 1, 44, 127
2, 37680, Note_on_c, 1, 46, 127
2, 37680, Note_off_c, 1, 47, 0
2, 37720, Note_off_c, 1, 44, 0
2, 37720, Note_off_c, 1, 46, 0
2, 37760, Note_on_c, 1, 44, 127
2, 37800, Note_off_c, 1, 44, 0
2, 37800, Note_on_c, 1, 47, 127
2, 37920, Note_on_c, 1, 43, 127
2, 37960, Note_off_c, 1, 43, 0
2, 38000, Note_on_c, 1, 46, 127
2, 38000, Note_off_c, 1, 47, 0
2, 38040, Note_off_c, 1, 46, 0
2, 38040, Note_on_c, 1, 47, 127
2, 38040, Note_on_c, 1, 49, 127
2, 38080, Note_off_c, 1, 49, 0
2, 38160, Note_off_c, 1, 47, 0
2, 38160, Note_on_c, 1, 50, 127
2, 38160, Note_on_c, 1, 54, 127
2, 38160, Note_on_c, 1, 64, 127
2, 38160, Note_on_c, 1, 66, 127
2, 38200, Note_on_c, 1, 47, 127
2, 38200, Note_off_c, 1, 50, 0
2, 38200, Note_off_c, 1, 54, 0
2, 38200, Note_off_c, 1, 64, 0
2, 38200, Note_off_c, 1, 66, 0
2, 38360, Note_off_c, 1, 47, 0
2, 38360, Note_on_c, 1, 55, 127
2, 38360, Note_on_c, 1, 63, 127
2, 38360, Note_on_c, 1, 66, 127
2, 38360, Note_on_c, 1, 87, 127
2, 38360, Note_on_c, 1, 90, 127
2, 38400, Note_on_c, 1, 47, 127
2, 38400, Note_off_c, 1, 55, 0
2, 38400, Note_off_c, 1, 63, 0
2, 38400, Note_on_c, 1, 64, 127
2, 38400, Note_off_c, 1, 66, 0
2, 38400, Note_on_c, 1, 67, 127
2, 38400, Note_on_c, 1, 76, 127
2, 38400, Note_off_c, 1, 87, 0
2, 38400, Note_off_c, 1, 90, 0
2, 38440, Note_off_c, 1, 64, 0
2, 38440, Note_off_c, 1, 67, 0
2, 38440, Note_off_c, 1, 76, 0
2, 38560, Note_on_c, 1, 48, 127
2, 38640, Note_off_c, 1, 47, 0
2, 38800, Note_on_c, 1, 47, 127
2, 38840, Note_off_c, 1, 48, 0
2, 39000, Note_off_c, 1, 47, 0
2, 39000, Note_on_c, 1, 48, 127
2, 39000, Note_on_c, 1, 49, 127
2, 39240, Note_off_c, 1, 48, 0
2, 39240, Note_on_c, 1, 51, 127
2, 39280, Note_off_c, 1, 51, 0
2, 39600, Note_off_c, 1, 49, 0
2, 39640, Note_on_c, 1, 54, 127
2, 39720, Note_off_c, 1, 54, 0
2, 39760, Note_on_c, 1, 54, 127
2, 40080, Note_on_c, 1, 45, 127
2, 40080, Note_off_c, 1, 54, 0
2, 40080, Note_on_c, 1, 63, 127
2, 40080, Note_on_c, 1, 74, 127
2, 40120, Note_off_c, 1, 45, 0
2, 40120, Note_on_c, 1, 58, 127
2, 40120, Note_on_c, 1, 61, 127
2, 40120, Note_off_c, 1, 63, 0
2, 40120, Note_on_c, 1, 65, 127
2, 40120, Note_on_c, 1, 68, 127
2, 40120, Note_on_c, 1, 70, 127
2, 40120, Note_on_c, 1, 73, 127
2, 40120, Note_off_c, 1, 74, 0
2, 40120, Note_on_c, 1, 77, 127
2, 40120, Note_on_c, 1, 80, 127
2, 40520, Note_off_c, 1, 58, 0
2, 40520, Note_off_c, 1, 61, 0
2, 40520, Note_off_c, 1, 65, 0
2, 40520, Note_off_c, 1, 68, 0
2, 40520, Note_off_c, 1, 70, 0
2, 40520, Note_off_c, 1, 73, 0
2, 40520, Note_off_c, 1, 77, 0
2, 40520, Note_off_c, 1, 80, 0
2, 40560, Note_on_c, 1, 45, 127
2, 40560, Note_on_c, 1, 72, 127
2, 40560, Note_on_c, 1, 81, 127
2, 40560, Note_on_c, 1, 84, 127
2, 40640, Note_off_c, 1, 45, 0
2, 40760, Note_on_c, 1, 45, 127
2, 40840, Note_off_c, 1, 45, 0
2, 40960, Note_off_c, 1, 72, 0
2, 40960, Note_off_c, 1, 81, 0
2, 40960, Note_off_c, 1, 84, 0
2, 41000, Note_on_c, 1, 43, 127
2, 41000, Note_on_c, 1, 71, 127
2, 41000, Note_on_c, 1, 79, 127
2, 41000, Note_on_c, 1, 83, 127
2, 41120, Note_off_c, 1, 43, 0
2, 41160, Note_off_c, 1, 71, 0
2, 41160, Note_off_c, 1, 79, 0
2, 41160, Note_off_c, 1, 83, 0
2, 41200, Note_on_c, 1, 55, 127
2, 41200, Note_on_c, 1, 59, 127
2, 41200, Note_on_c, 1, 65, 127
2, 41200, Note_on_c, 1, 77, 127
2, 41200, Note_on_c, 1, 83, 127
2, 41200, Note_on_c, 1, 89, 127
2, 41240, Note_off_c, 1, 55, 0
2, 41240, Note_on_c, 1, 57, 127
2, 41240, Note_off_c, 1, 59, 0
2, 41240, Note_off_c, 1, 65, 0
2, 41240, Note_on_c, 1, 69, 127
2, 41240, Note_off_c, 1, 77, 0
2, 41240, Note_on_c, 1, 81, 127
2, 41240, Note_off_c, 1, 83, 0
2, 41240, Note_on_c, 1, 85, 127
2, 41240, Note_on_c, 1, 88, 127
2, 41240, Note_off_c, 1, 89, 0
2, 41240, Note_on_c, 1, 93, 127
2, 41280, Note_on_c, 1, 35, 127
2, 41280, Note_on_c, 1, 47, 127
2, 41280, Note_off_c, 1, 57, 0
2, 41280, Note_on_c, 1, 59, 127
2, 41280, Note_on_c, 1, 68, 127
2, 41280, Note_off_c, 1, 69, 0
2, 41280, Note_on_c, 1, 71, 127
2, 41280, Note_off_c, 1, 81, 0
2, 41280, Note_off_c, 1, 85, 0
2, 41280, Note_off_c, 1, 88, 0
2, 41280, Note_off_c, 1, 93, 0
2, 41320, Note_off_c, 1, 35, 0
2, 41320, Note_off_c, 1, 47, 0
2, 41320, Note_on_c, 1, 50, 127
2, 41320, Note_on_c, 1, 64, 127
2, 41320, Note_off_c, 1, 68, 0
2, 41320, Note_off_c, 1, 71, 0
2, 41320, Note_on_c, 1, 76, 127
2, 41360, Note_off_c, 1, 50, 0
2, 41360, Note_off_c, 1, 64, 0
2, 41360, Note_off_c, 1, 76, 0
2, 41400, Note_off_c, 1, 59, 0
2, 41440, Note_on_c, 1, 50, 127
2, 41440, Note_on_c, 1, 51, 127
2, 41440, Note_on_c, 1, 93, 127
2, 41480, Note_off_c, 1, 50, 0
2, 41480, Note_off_c, 1, 51, 0
2, 41480, Note_on_c, 1, 54, 127
2, 41480, Note_on_c, 1, 55, 127
2, 41480, Note_on_c, 1, 80, 127
2, 41480, Note_on_c, 1, 90, 127
2, 41480, Note_on_c, 1, 92, 127
2, 41480, Note_off_c, 1, 93, 0
2, 41520, Note_on_c, 1, 41, 127
2, 41520, Note_on_c, 1, 45, 127
2, 41520, Note_off_c, 1, 54, 0
2, 41520, Note_off_c, 1, 55, 0
2, 41520, Note_on_c, 1, 75, 127
2, 41520, Note_on_c, 1, 77, 127
2, 41520, Note_off_c, 1, 80, 0
2, 41520, Note_off_c, 1, 90, 0
2, 41520, Note_off_c, 1, 92, 0
2, 41560, Note_on_c, 1, 39, 127
2, 41560, Note_off_c, 1, 41, 0
2, 41560, Note_off_c, 1, 45, 0
2, 41560, Note_on_c, 1, 49, 127
2, 41560, Note_on_c, 1, 54, 127
2, 41560, Note_off_c, 1, 75, 0
2, 41560, Note_off_c, 1, 77, 0
2, 41600, Note_off_c, 1, 39, 0
2, 41600, Note_off_c, 1, 49, 0
2, 41600, Note_off_c, 1, 54, 0
2, 41600, Note_on_c, 1, 74, 127
2, 41600, Note_on_c, 1, 83, 127
2, 41600, Note_on_c, 1, 86, 127
2, 41640, Note_on_c, 1, 58, 127
2, 41640, Note_on_c, 1, 61, 127
2, 41640, Note_on_c, 1, 70, 127
2, 41640, Note_off_c, 1, 74, 0
2, 41640, Note_on_c, 1, 78, 127
2, 41640, Note_on_c, 1, 82, 127
2, 41640, Note_off_c, 1, 83, 0
2, 41640, Note_off_c, 1, 86, 0
2, 41720, Note_off_c, 1, 58, 0
2, 41720, Note_off_c, 1, 61, 0
2, 41720, Note_off_c, 1, 70, 0
2, 41720, Note_off_c, 1, 78, 0
2, 41720, Note_off_c, 1, 82, 0
2, 41760, Note_on_c, 1, 58, 127
2, 41760, Note_on_c, 1, 61, 127
2, 41760, Note_on_c, 1, 70, 127
2, 41760, Note_on_c, 1, 78, 127
2, 41760, Note_on_c, 1, 82, 127
2, 41840, Note_off_c, 1, 58, 0
2, 41840, Note_off_c, 1, 61, 0
2, 41840, Note_off_c, 1, 70, 0
2, 41840, Note_off_c, 1, 78, 0
2, 41840, Note_off_c, 1, 82, 0
2, 41880, Note_on_c, 1, 32, 127
2, 41880, Note_on_c, 1, 48, 127
2, 41880, Note_on_c, 1, 50, 127
2, 41880, Note_on_c, 1, 54, 127
2, 41880, Note_on_c, 1, 56, 127
2, 41920, Note_off_c, 1, 32, 0
2, 41920, Note_off_c, 1, 48, 0
2, 41920, Note_off_c, 1, 50, 0
2, 41920, Note_off_c, 1, 54, 0
2, 41920, Note_off_c, 1, 56, 0
2, 41920, Note_on_c, 1, 66, 127
2, 41920, Note_on_c, 1, 70, 127
2, 41920, Note_on_c, 1, 73, 127
2, 41920, Note_on_c, 1, 78, 127
2, 41920, Note_on_c, 1, 82, 127
2, 41920, Note_on_c, 1, 85, 127
2, 41920, Note_on_c, 1, 87, 127
2, 41960, Note_on_c, 1, 48, 127
2, 41960, Note_on_c, 1, 50, 127
2, 41960, Note_on_c, 1, 54, 127
2, 41960, Note_on_c, 1, 56, 127
2, 41960, Note_off_c, 1, 66, 0
2, 41960, Note_off_c, 1, 70, 0
2, 41960, Note_off_c, 1, 73, 0
2, 41960, Note_off_c, 1, 78, 0
2, 41960, Note_off_c, 1, 82, 0
2, 41960, Note_off_c, 1, 85, 0
2, 41960, Note_off_c, 1, 87, 0
2, 42000, Note_on_c, 1, 44, 127
2, 42000, Note_off_c, 1, 48, 0
2, 42000, Note_off_c, 1, 50, 0
2, 42000, Note_off_c, 1, 54, 0
2, 42000, Note_on_c, 1, 62, 127
2, 42000, Note_on_c, 1, 66, 127
2, 42000, Note_on_c, 1, 68, 127
2, 42040, Note_on_c, 1, 39, 127
2, 42040, Note_off_c, 1, 44, 0
2, 42040, Note_off_c, 1, 56, 0
2, 42040, Note_off_c, 1, 62, 0
2, 42040, Note_on_c, 1, 64, 127
2, 42040, Note_off_c, 1, 66, 0
2, 42040, Note_on_c, 1, 67, 127
2, 42040, Note_off_c, 1, 68, 0
2, 42040, Note_on_c, 1, 71, 127
2, 42080, Note_off_c, 1, 39, 0
2, 42080, Note_off_c, 1, 64, 0
2, 42080, Note_on_c, 1, 65, 127
2, 42080, Note_off_c, 1, 67, 0
2, 42080, Note_off_c, 1, 71, 0
2, 42080, Note_on_c, 1, 80, 127
2, 42080, Note_on_c, 1, 83, 127
2, 42120, Note_on_c, 1, 41, 127
2, 42120, Note_off_c, 1, 65, 0
2, 42120, Note_off_c, 1, 80, 0
2, 42120, Note_on_c, 1, 82, 127
2, 42120, Note_off_c, 1, 83, 0
2, 42120, Note_on_c, 1, 91, 127
2, 42120, Note_on_c, 1, 94, 127
2, 42280, Note_off_c, 1, 41, 0
2, 42280, Note_off_c, 1, 82, 0
2, 42280, Note_off_c, 1, 91, 0
2, 42280, Note_off_c, 1, 94, 0
2, 42320, Note_on_c, 1, 63, 127
2, 42320, Note_on_c, 1, 67, 127
2, 42320, Note_on_c, 1, 70, 127
2, 42320, Note_on_c, 1, 82, 127
2, 42320, Note_on_c, 1, 94, 127
2, 42440, Note_off_c, 1, 82, 0
2, 42440, Note_on_c, 1, 87, 127
2, 42440, Note_on_c, 1, 91, 127
2, 42520, Note_off_c, 1, 63, 0
2, 42520, Note_off_c, 1, 67, 0
2, 42520, Note_off_c, 1, 70, 0
2, 42520, Note_off_c, 1, 87, 0
2, 42520, Note_off_c, 1, 91, 0
2, 42520, Note_off_c, 1, 94, 0
2, 42560, Note_on_c, 1, 59, 127
2, 42560, Note_on_c, 1, 66, 127
2, 42560, Note_on_c, 1, 69, 127
2, 42560, Note_on_c, 1, 78, 127
2, 42560, Note_on_c, 1, 90, 127
2, 42720, Note_off_c, 1, 59, 0
2, 42720, Note_off_c, 1, 66, 0
2, 42720, Note_off_c, 1, 69, 0
2, 42720, Note_off_c, 1, 78, 0
2, 42720, Note_off_c, 1, 90, 0
2, 42760, Note_on_c, 1, 71, 127
2, 42760, Note_on_c, 1, 83, 127
2, 42760, Note_on_c, 1, 95, 127
2, 42920, Note_off_c, 1, 71, 0
2, 42920, Note_off_c, 1, 83, 0
2, 42920, Note_off_c, 1, 95, 0
2, 42960, Note_on_c, 1, 37, 127
2, 42960, Note_on_c, 1, 46, 127
2, 42960, Note_on_c, 1, 49, 127
2, 42960, Note_on_c, 1, 79, 127
2, 42960, Note_on_c, 1, 87, 127
2, 42960, Note_on_c, 1, 91, 127
2, 43000, Note_off_c, 1, 37, 0
2, 43000, Note_off_c, 1, 46, 0
2, 43000, Note_off_c, 1, 49, 0
2, 43000, Note_on_c, 1, 54, 127
2, 43000, Note_on_c, 1, 61, 127
2, 43000, Note_on_c, 1, 76, 127
2, 43000, Note_off_c, 1, 79, 0
2, 43000, Note_on_c, 1, 80, 127
2, 43000, Note_off_c, 1, 87, 0
2, 43000, Note_off_c, 1, 91, 0
2, 43040, Note_off_c, 1, 54, 0
2, 43040, Note_on_c, 1, 59, 127
2, 43040, Note_off_c, 1, 61, 0
2, 43040, Note_on_c, 1, 65, 127
2, 43040, Note_off_c, 1, 76, 0
2, 43040, Note_off_c, 1, 80, 0
2, 43040, Note_on_c, 1, 87, 127
2, 43080, Note_on_c, 1, 43, 127
2, 43080, Note_on_c, 1, 48, 127
2, 43080, Note_on_c, 1, 55, 127
2, 43080, Note_off_c, 1, 59, 0
2, 43080, Note_off_c, 1, 65, 0
2, 43080, Note_on_c, 1, 77, 127
2, 43080, Note_off_c, 1, 87, 0
2, 43080, Note_on_c, 1, 89, 127
2, 43120, Note_off_c, 1, 43, 0
2, 43120, Note_off_c, 1, 48, 0
2, 43120, Note_on_c, 1, 54, 127
2, 43120, Note_off_c, 1, 55, 0
2, 43120, Note_on_c, 1, 61, 127
2, 43120, Note_on_c, 1, 76, 127
2, 43120, Note_off_c, 1, 77, 0
2, 43120, Note_on_c, 1, 80, 127
2, 43120, Note_off_c, 1, 89, 0
2, 43160, Note_off_c, 1, 54, 0
2, 43160, Note_off_c, 1, 61, 0
2, 43160, Note_off_c, 1, 76, 0
2, 43160, Note_off_c, 1, 80, 0
2, 43200, Note_on_c, 1, 45, 127
2, 43200, Note_on_c, 1, 52, 127
2, 43200, Note_on_c, 1, 57, 127
2, 43200, Note_on_c, 1, 69, 127
2, 43200, Note_on_c, 1, 76, 127
2, 43200, Note_on_c, 1, 81, 127
2, 43240, Note_off_c, 1, 45, 0
2, 43240, Note_off_c, 1, 52, 0
2, 43240, Note_off_c, 1, 57, 0
2, 43240, Note_off_c, 1, 69, 0
2, 43240, Note_off_c, 1, 76, 0
2, 43240, Note_off_c, 1, 81, 0
2, 43280, Note_on_c, 1, 56, 127
2, 43280, Note_on_c, 1, 66, 127
2, 43280, Note_on_c, 1, 74, 127
2, 43280, Note_on_c, 1, 78, 127
2, 43360, Note_off_c, 1, 56, 0
2, 43360, Note_off_c, 1, 66, 0
2, 43360, Note_off_c, 1, 74, 0
2, 43360, Note_off_c, 1, 78, 0
2, 43400, Note_on_c, 1, 55, 127
2, 43400, Note_on_c, 1, 60, 127
2, 43400, Note_on_c, 1, 88, 127
2, 43400, Note_on_c, 1, 91, 127
2, 43400, Note_on_c, 1, 96, 127
2, 43440, Note_on_c, 1, 47, 127
2, 43440, Note_off_c, 1, 55, 0
2, 43440, Note_off_c, 1, 60, 0
2, 43440, Note_on_c, 1, 62, 127
2, 43440, Note_on_c, 1, 68, 127
2, 43440, Note_on_c, 1, 72, 127
2, 43440, Note_on_c, 1, 76, 127
2, 43440, Note_off_c, 1, 88, 0
2, 43440, Note_off_c, 1, 91, 0
2, 43440, Note_off_c, 1, 96, 0
2, 43480, Note_off_c, 1, 47, 0
2, 43480, Note_off_c, 1, 62, 0
2, 43480, Note_off_c, 1, 68, 0
2, 43480, Note_off_c, 1, 72, 0
2, 43480, Note_off_c, 1, 76, 0
2, 43520, Note_on_c, 1, 71, 127
2, 43520, Note_on_c, 1, 73, 127
2, 43520, Note_on_c, 1, 76, 127
2, 43520, Note_on_c, 1, 88, 127
2, 43560, Note_on_c, 1, 56, 127
2, 43560, Note_on_c, 1, 68, 127
2, 43560, Note_off_c, 1, 71, 0
2, 43560, Note_off_c, 1, 73, 0
2, 43560, Note_off_c, 1, 76, 0
2, 43560, Note_on_c, 1, 77, 127
2, 43560, Note_on_c, 1, 83, 127
2, 43560, Note_on_c, 1, 86, 127
2, 43560, Note_off_c, 1, 88, 0
2, 43560, Note_on_c, 1, 89, 127
2, 43600, Note_off_c, 1, 56, 0
2, 43600, Note_off_c, 1, 68, 0
2, 43600, Note_off_c, 1, 77, 0
2, 43600, Note_off_c, 1, 83, 0
2, 43600, Note_off_c, 1, 86, 0
2, 43600, Note_off_c, 1, 89, 0
2, 43640, Note_on_c, 1, 46, 127
2, 43640, Note_on_c, 1, 73, 127
2, 43640, Note_on_c, 1, 76, 127
2, 43640, Note_on_c, 1, 79, 127
2, 43640, Note_on_c, 1, 85, 127
2, 43800, Note_off_c, 1, 46, 0
2, 43800, Note_off_c, 1, 73, 0
2, 43800, Note_off_c, 1, 76, 0
2, 43800, Note_off_c, 1, 79, 0
2, 43800, Note_off_c, 1, 85, 0
2, 43880, Note_on_c, 1, 46, 127
2, 43880, Note_on_c, 1, 73, 127
2, 43880, Note_on_c, 1, 76, 127
2, 43880, Note_on_c, 1, 79, 127
2, 43880, Note_on_c, 1, 85, 127
2, 43960, Note_off_c, 1, 46, 0
2, 43960, Note_on_c, 1, 52, 127
2, 44000, Note_on_c, 1, 46, 127
2, 44000, Note_off_c, 1, 52, 0
2, 44080, Note_off_c, 1, 46, 0
2, 44080, Note_off_c, 1, 73, 0
2, 44080, Note_off_c, 1, 76, 0
2, 44080, Note_off_c, 1, 79, 0
2, 44080, Note_off_c, 1, 85, 0
2, 44120, Note_on_c, 1, 53, 127
2, 44120, Note_on_c, 1, 86, 127
2, 44120, Note_on_c, 1, 89, 127
2, 44120, Note_on_c, 1, 94, 127
2, 44120, Note_on_c, 1, 98, 127
2, 44280, Note_off_c, 1, 53, 0
2, 44280, Note_off_c, 1, 86, 0
2, 44280, Note_off_c, 1, 89, 0
2, 44280, Note_off_c, 1, 94, 0
2, 44280, Note_off_c, 1, 98, 0
2, 44320, Note_on_c, 1, 43, 127
2, 44320, Note_on_c, 1, 50, 127
2, 44320, Note_on_c, 1, 60, 127
2, 44320, Note_on_c, 1, 67, 127
2, 44520, Note_off_c, 1, 43, 0
2, 44520, Note_off_c, 1, 50, 0
2, 44520, Note_off_c, 1, 60, 0
2, 44520, Note_off_c, 1, 67, 0
2, 44560, Note_on_c, 1, 35, 127
2, 44560, Note_on_c, 1, 47, 127
2, 44560, Note_on_c, 1, 78, 127
2, 44560, Note_on_c, 1, 85, 127
2, 44560, Note_on_c, 1, 90, 127
2, 44720, Note_off_c, 1, 35, 0
2, 44720, Note_off_c, 1, 47, 0
2, 44720, Note_off_c, 1, 78, 0
2, 44720, Note_off_c, 1, 85, 0
2, 44720, Note_off_c, 1, 90, 0
2, 44760, Note_on_c, 1, 52, 127
2, 44760, Note_on_c, 1, 57, 127
2, 44760, Note_on_c, 1, 62, 127
2, 44760, Note_on_c, 1, 64, 127
2, 44760, Note_on_c, 1, 68, 127
2, 44760, Note_on_c, 1, 71, 127
2, 44920, Note_off_c, 1, 52, 0
2, 44920, Note_off_c, 1, 57, 0
2, 44920, Note_off_c, 1, 62, 0
2, 44920, Note_off_c, 1, 64, 0
2, 44920, Note_off_c, 1, 68, 0
2, 44920, Note_off_c, 1, 71, 0
2, 44960, Note_on_c, 1, 42, 127
2, 44960, Note_on_c, 1, 54, 127
2, 44960, Note_on_c, 1, 59, 127
2, 44960, Note_on_c, 1, 63, 127
2, 44960, Note_on_c, 1, 69, 127
2, 44960, Note_on_c, 1, 71, 127
2, 45040, Note_off_c, 1, 42, 0
2, 45040, Note_off_c, 1, 54, 0
2, 45160, Note_off_c, 1, 59, 0
2, 45160, Note_off_c, 1, 63, 0
2, 45160, Note_off_c, 1, 69, 0
2, 45160, Note_off_c, 1, 71, 0
2, 45200, Note_on_c, 1, 59, 127
2, 45200, Note_on_c, 1, 62, 127
2, 45200, Note_on_c, 1, 65, 127
2, 45200, Note_on_c, 1, 68, 127
2, 45200, Note_on_c, 1, 74, 127
2, 45240, Note_off_c, 1, 74, 0
2, 45280, Note_on_c, 1, 74, 127
2, 45360, Note_off_c, 1, 74, 0
2, 45400, Note_on_c, 1, 74, 127
2, 45440, Note_off_c, 1, 74, 0
2, 45520, Note_on_c, 1, 74, 127
2, 45560, Note_off_c, 1, 74, 0
2, 45640, Note_on_c, 1, 74, 127
2, 45720, Note_off_c, 1, 74, 0
2, 45760, Note_on_c, 1, 86, 127
2, 45800, Note_off_c, 1, 59, 0
2, 45800, Note_off_c, 1, 62, 0
2, 45800, Note_off_c, 1, 65, 0
2, 45800, Note_off_c, 1, 68, 0
2, 45800, Note_off_c, 1, 86, 0
2, 45840, Note_on_c, 1, 51, 127
2, 45840, Note_on_c, 1, 61, 127
2, 45840, Note_on_c, 1, 63, 127
2, 45840, Note_on_c, 1, 91, 127
2, 45920, Note_off_c, 1, 51, 0
2, 45920, Note_off_c, 1, 61, 0
2, 45920, Note_off_c, 1, 63, 0
2, 45920, Note_off_c, 1, 91, 0
2, 45960, Note_on_c, 1, 51, 127
2, 45960, Note_on_c, 1, 61, 127
2, 45960, Note_on_c, 1, 63, 127
2, 45960, Note_on_c, 1, 91, 127
2, 46000, Note_on_c, 1, 87, 127
2, 46000, Note_off_c, 1, 91, 0
2, 46040, Note_off_c, 1, 51, 0
2, 46040, Note_on_c, 1, 53, 127
2, 46040, Note_on_c, 1, 57, 127
2, 46040, Note_on_c, 1, 60, 127
2, 46040, Note_off_c, 1, 61, 0
2, 46040, Note_off_c, 1, 63, 0
2, 46040, Note_on_c, 1, 65, 127
2, 46040, Note_on_c, 1, 69, 127
2, 46040, Note_on_c, 1, 72, 127
2, 46040, Note_on_c, 1, 81, 127
2, 46040, Note_off_c, 1, 87, 0
2, 46080, Note_off_c, 1, 53, 0
2, 46080, Note_off_c, 1, 57, 0
2, 46080, Note_off_c, 1, 60, 0
2, 46080, Note_off_c, 1, 65, 0
2, 46080, Note_off_c, 1, 69, 0
2, 46080, Note_on_c, 1, 71, 127
2, 46080, Note_off_c, 1, 72, 0
2, 46080, Note_on_c, 1, 77, 127
2, 46080, Note_on_c, 1, 79, 127
2, 46080, Note_off_c, 1, 81, 0
2, 46080, Note_on_c, 1, 83, 127
2, 46120, Note_on_c, 1, 54, 127
2, 46120, Note_on_c, 1, 66, 127
2, 46120, Note_on_c, 1, 67, 127
2, 46120, Note_off_c, 1, 71, 0
2, 46120, Note_on_c, 1, 76, 127
2, 46120, Note_off_c, 1, 77, 0
2, 46120, Note_off_c, 1, 79, 0
2, 46120, Note_off_c, 1, 83, 0
2, 46160, Note_on_c, 1, 56, 127
2, 46160, Note_off_c, 1, 67, 0
2, 46160, Note_on_c, 1, 73, 127
2, 46160, Note_off_c, 1, 76, 0
2, 46200, Note_off_c, 1, 56, 0
2, 46200, Note_on_c, 1, 67, 127
2, 46200, Note_off_c, 1, 73, 0
2, 46200, Note_on_c, 1, 76, 127
2, 46280, Note_off_c, 1, 54, 0
2, 46280, Note_off_c, 1, 66, 0
2, 46280, Note_off_c, 1, 67, 0
2, 46280, Note_off_c, 1, 76, 0
2, 46320, Note_on_c, 1, 57, 127
2, 46320, Note_on_c, 1, 66, 127
2, 46320, Note_on_c, 1, 90, 127
2, 46320, Note_on_c, 1, 93, 127
2, 46360, Note_on_c, 1, 61, 127
2, 46360, Note_off_c, 1, 66, 0
2, 46360, Note_on_c, 1, 78, 127
2, 46360, Note_on_c, 1, 81, 127
2, 46360, Note_on_c, 1, 85, 127
2, 46360, Note_off_c, 1, 90, 0
2, 46360, Note_off_c, 1, 93, 0
2, 46400, Note_off_c, 1, 61, 0
2, 46400, Note_on_c, 1, 66, 127
2, 46400, Note_off_c, 1, 78, 0
2, 46400, Note_off_c, 1, 81, 0
2, 46400, Note_off_c, 1, 85, 0
2, 46400, Note_on_c, 1, 88, 127
2, 46400, Note_on_c, 1, 93, 127
2, 46440, Note_on_c, 1, 37, 127
2, 46440, Note_on_c, 1, 45, 127
2, 46440, Note_on_c, 1, 49, 127
2, 46440, Note_on_c, 1, 52, 127
2, 46440, Note_on_c, 1, 64, 127
2, 46440, Note_off_c, 1, 66, 0
2, 46440, Note_off_c, 1, 88, 0
2, 46440, Note_off_c, 1, 93, 0
2, 46480, Note_off_c, 1, 37, 0
2, 46480, Note_off_c, 1, 45, 0
2, 46480, Note_off_c, 1, 49, 0
2, 46480, Note_off_c, 1, 52, 0
2, 46480, Note_on_c, 1, 54, 127
2, 46480, Note_on_c, 1, 62, 127
2, 46480, Note_off_c, 1, 64, 0
2, 46480, Note_on_c, 1, 81, 127
2, 46480, Note_on_c, 1, 93, 127
2, 46520, Note_off_c, 1, 54, 0
2, 46520, Note_off_c, 1, 57, 0
2, 46520, Note_off_c, 1, 62, 0
2, 46520, Note_off_c, 1, 81, 0
2, 46520, Note_off_c, 1, 93, 0
2, 46560, Note_on_c, 1, 50, 127
2, 46560, Note_on_c, 1, 67, 127
2, 46560, Note_on_c, 1, 71, 127
2, 46560, Note_on_c, 1, 78, 127
2, 46720, Note_off_c, 1, 50, 0
2, 46720, Note_on_c, 1, 66, 127
2, 46720, Note_off_c, 1, 67, 0
2, 46720, Note_off_c, 1, 71, 0
2, 46720, Note_off_c, 1, 78, 0
2, 46760, Note_on_c, 1, 58, 127
2, 46760, Note_off_c, 1, 66, 0
2, 46760, Note_on_c, 1, 67, 127
2, 46760, Note_on_c, 1, 74, 127
2, 46760, Note_on_c, 1, 76, 127
2, 46920, Note_off_c, 1, 58, 0
2, 46920, Note_on_c, 1, 66, 127
2, 46920, Note_off_c, 1, 67, 0
2, 46920, Note_off_c, 1, 76, 0
2, 46920, Note_on_c, 1, 78, 127
2, 46960, Note_off_c, 1, 66, 0
2, 46960, Note_off_c, 1, 74, 0
2, 46960, Note_off_c, 1, 78, 0
2, 47000, Note_on_c, 1, 45, 127
2, 47000, Note_on_c, 1, 61, 127
2, 47000, Note_on_c, 1, 67, 127
2, 47000, Note_on_c, 1, 71, 127
2, 47400, Note_off_c, 1, 45, 0
2, 47400, Note_off_c, 1, 61, 0
2, 47400, Note_off_c, 1, 67, 0
2, 47400, Note_off_c, 1, 71, 0
2, 47440, Note_on_c, 1, 45, 127
2, 47440, Note_on_c, 1, 61, 127
2, 47440, Note_on_c, 1, 67, 127
2, 47440, Note_on_c, 1, 69, 127
2, 47840, Note_off_c, 1, 45, 0
2, 47840, Note_off_c, 1, 61, 0
2, 47840, Note_off_c, 1, 67, 0
2, 47840, Note_off_c, 1, 69, 0
2, 47880, Note_on_c, 1, 45, 127
2, 47880, Note_on_c, 1, 61, 127
2, 47880, Note_on_c, 1, 67, 127
2, 47880, Note_on_c, 1, 69, 127
2, 48040, Note_off_c, 1, 45, 0
2, 48040, Note_off_c, 1, 61, 0
2, 48040, Note_off_c, 1, 67, 0
2, 48040, Note_off_c, 1, 69, 0
2, 48080, Note_on_c, 1, 45, 127
2, 48080, Note_on_c, 1, 61, 127
2, 48080, Note_on_c, 1, 67, 127
2, 48080, Note_on_c, 1, 69, 127
2, 48320, Note_off_c, 1, 45, 0
2, 48320, Note_off_c, 1, 61, 0
2, 48320, Note_off_c, 1, 67, 0
2, 48320, Note_off_c, 1, 69, 0
2, 48360, Note_on_c, 1, 45, 127
2, 48360, Note_on_c, 1, 61, 127
2, 48360, Note_on_c, 1, 67, 127
2, 48360, Note_on_c, 1, 69, 127
2, 48760, Note_off_c, 1, 45, 0
2, 48760, Note_off_c, 1, 61, 0
2, 48760, Note_off_c, 1, 67, 0
2, 48760, Note_off_c, 1, 69, 0
2, 48800, Note_on_c, 1, 45, 127
2, 48800, Note_on_c, 1, 61, 127
2, 48800, Note_on_c, 1, 67, 127
2, 48800, Note_on_c, 1, 69, 127
2, 49200, Note_off_c, 1, 45, 0
2, 49200, Note_off_c, 1, 61, 0
2, 49200, Note_off_c, 1, 67, 0
2, 49200, Note_off_c, 1, 69, 0
2, 49240, Note_on_c, 1, 45, 127
2, 49240, Note_on_c, 1, 61, 127
2, 49240, Note_on_c, 1, 67, 127
2, 49240, Note_on_c, 1, 69, 127
2, 49640, Note_off_c, 1, 45, 0
2, 49640, Note_off_c, 1, 61, 0
2, 49640, Note_off_c, 1, 67, 0
2, 49640, Note_off_c, 1, 69, 0
2, 49680, Note_on_c, 1, 45, 127
2, 49680, Note_on_c, 1, 61, 127
2, 49680, Note_on_c, 1, 67, 127
2, 49680, Note_on_c, 1, 69, 127
2, 50080, Note_off_c, 1, 45, 0
2, 50080, Note_off_c, 1, 61, 0
2, 50080, Note_off_c, 1, 67, 0
2, 50080, Note_off_c, 1, 69, 0
2, 50120, Note_on_c, 1, 45, 127
2, 50120, Note_on_c, 1, 61, 127
2, 50120, Note_on_c, 1, 67, 127
2, 50120, Note_on_c, 1, 69, 127
2, 50240, Note_off_c, 1, 45, 0
2, 50240, Note_off_c, 1, 61, 0
2, 50240, Note_off_c, 1, 67, 0
2, 50240, Note_off_c, 1, 69, 0
2, 50280, Note_on_c, 1, 45, 127
2, 50280, Note_on_c, 1, 61, 127
2, 50280, Note_on_c, 1, 67, 127
2, 50280, Note_on_c, 1, 69, 127
2, 50560, Note_off_c, 1, 45, 0
2, 50560, Note_off_c, 1, 61, 0
2, 50560, Note_off_c, 1, 67, 0
2, 50560, Note_off_c, 1, 69, 0
2, 50600, Note_on_c, 1, 45, 127
2, 50600, Note_on_c, 1, 61, 127
2, 50600, Note_on_c, 1, 67, 127
2, 50600, Note_on_c, 1, 69, 127
2, 51000, Note_off_c, 1, 45, 0
2, 51000, Note_off_c, 1, 61, 0
2, 51000, Note_off_c, 1, 67, 0
2, 51000, Note_off_c, 1, 69, 0
2, 51040, Note_on_c, 1, 45, 127
2, 51040, Note_on_c, 1, 61, 127
2, 51040, Note_on_c, 1, 67, 127
2, 51040, Note_on_c, 1, 69, 127
2, 51440, Note_off_c, 1, 45, 0
2, 51440, Note_off_c, 1, 61, 0
2, 51440, Note_off_c, 1, 67, 0
2, 51440, Note_off_c, 1, 69, 0
2, 51480, Note_on_c, 1, 52, 127
2, 51480, Note_on_c, 1, 59, 127
2, 51480, Note_on_c, 1, 62, 127
2, 51480, Note_on_c, 1, 66, 127
2, 51480, Note_on_c, 1, 71, 127
2, 51880, Note_off_c, 1, 52, 0
2, 51880, Note_off_c, 1, 59, 0
2, 51880, Note_off_c, 1, 62, 0
2, 51880, Note_off_c, 1, 66, 0
2, 51880, Note_off_c, 1, 71, 0
2, 51920, Note_on_c, 1, 52, 127
2, 51920, Note_on_c, 1, 59, 127
2, 51920, Note_on_c, 1, 62, 127
2, 51920, Note_on_c, 1, 66, 127
2, 51920, Note_on_c, 1, 71, 127
2, 52320, Note_off_c, 1, 52, 0
2, 52320, Note_off_c, 1, 59, 0
2, 52320, Note_off_c, 1, 62, 0
2, 52320, Note_off_c, 1, 66, 0
2, 52320, Note_off_c, 1, 71, 0
2, 52400, Note_on_c, 1, 52, 127
2, 52400, Note_on_c, 1, 59, 127
2, 52400, Note_on_c, 1, 62, 127
2, 52400, Note_on_c, 1, 66, 127
2, 52400, Note_on_c, 1, 71, 127
2, 52600, Note_off_c, 1, 71, 0
2, 52640, Note_on_c, 1, 71, 127
2, 52760, Note_off_c, 1, 71, 0
2, 52840, Note_on_c, 1, 71, 127
2, 53240, Note_off_c, 1, 52, 0
2, 53240, Note_off_c, 1, 59, 0
2, 53240, Note_off_c, 1, 62, 0
2, 53240, Note_off_c, 1, 66, 0
2, 53240, Note_off_c, 1, 71, 0
2, 53280, Note_on_c, 1, 38, 127
2, 53280, Note_on_c, 1, 45, 127
2, 53280, Note_on_c, 1, 66, 127
2, 53280, Note_on_c, 1, 74, 127
2, 53440, Note_off_c, 1, 38, 0
2, 53440, Note_on_c, 1, 43, 127
2, 53440, Note_off_c, 1, 45, 0
2, 53440, Note_on_c, 1, 57, 127
2, 53440, Note_on_c, 1, 62, 127
2, 53440, Note_off_c, 1, 66, 0
2, 53440, Note_off_c, 1, 74, 0
2, 53480, Note_on_c, 1, 38, 127
2, 53480, Note_off_c, 1, 43, 0
2, 53480, Note_on_c, 1, 45, 127
2, 53480, Note_off_c, 1, 57, 0
2, 53480, Note_off_c, 1, 62, 0
2, 53480, Note_on_c, 1, 66, 127
2, 53480, Note_on_c, 1, 74, 127
2, 53680, Note_off_c, 1, 38, 0
2, 53680, Note_off_c, 1, 45, 0
2, 53680, Note_off_c, 1, 66, 0
2, 53680, Note_off_c, 1, 74, 0
2, 53720, Note_on_c, 1, 38, 127
2, 53720, Note_on_c, 1, 46, 127
2, 53720, Note_on_c, 1, 62, 127
2, 53720, Note_on_c, 1, 66, 127
2, 54120, Note_off_c, 1, 38, 0
2, 54120, Note_off_c, 1, 46, 0
2, 54120, Note_off_c, 1, 62, 0
2, 54120, Note_off_c, 1, 66, 0
2, 54160, Note_on_c, 1, 38, 127
2, 54160, Note_on_c, 1, 46, 127
2, 54160, Note_on_c, 1, 62, 127
2, 54160, Note_on_c, 1, 66, 127
2, 54360, Note_off_c, 1, 38, 0
2, 54360, Note_off_c, 1, 46, 0
2, 54360, Note_on_c, 1, 53, 127
2, 54360, Note_on_c, 1, 55, 127
2, 54360, Note_on_c, 1, 60, 127
2, 54360, Note_on_c, 1, 65, 127
2, 54360, Note_off_c, 1, 66, 0
2, 54400, Note_on_c, 1, 38, 127
2, 54400, Note_on_c, 1, 46, 127
2, 54400, Note_off_c, 1, 53, 0
2, 54400, Note_off_c, 1, 55, 0
2, 54400, Note_off_c, 1, 60, 0
2, 54400, Note_off_c, 1, 65, 0
2, 54400, Note_on_c, 1, 66, 127
2, 54480, Note_off_c, 1, 38, 0
2, 54480, Note_off_c, 1, 46, 0
2, 54480, Note_off_c, 1, 62, 0
2, 54480, Note_off_c, 1, 66, 0
2, 54520, Note_on_c, 1, 40, 127
2, 54520, Note_on_c, 1, 56, 127
2, 54520, Note_on_c, 1, 62, 127
2, 54520, Note_on_c, 1, 64, 127
2, 54560, Note_on_c, 1, 38, 127
2, 54560, Note_off_c, 1, 40, 0
2, 54560, Note_on_c, 1, 46, 127
2, 54560, Note_off_c, 1, 56, 0
2, 54560, Note_off_c, 1, 64, 0
2, 54560, Note_on_c, 1, 66, 127
2, 54600, Note_off_c, 1, 38, 0
2, 54600, Note_off_c, 1, 46, 0
2, 54600, Note_off_c, 1, 62, 0
2, 54600, Note_off_c, 1, 66, 0
2, 54640, Note_on_c, 1, 37, 127
2, 54640, Note_on_c, 1, 61, 127
2, 54640, Note_on_c, 1, 66, 127
2, 54640, Note_on_c, 1, 68, 127
2, 54760, Note_off_c, 1, 37, 0
2, 54760, Note_on_c, 1, 49, 127
2, 55040, Note_off_c, 1, 49, 0
2, 55040, Note_off_c, 1, 61, 0
2, 55040, Note_off_c, 1, 66, 0
2, 55040, Note_off_c, 1, 68, 0
2, 55080, Note_on_c, 1, 49, 127
2, 55080, Note_on_c, 1, 61, 127
2, 55080, Note_on_c, 1, 66, 127
2, 55080, Note_on_c, 1, 68, 127
2, 55320, Note_off_c, 1, 66, 0
2, 55360, Note_on_c, 1, 44, 127
2, 55360, Note_off_c, 1, 49, 0
2, 55360, Note_off_c, 1, 61, 0
2, 55360, Note_on_c, 1, 66, 127
2, 55360, Note_off_c, 1, 68, 0
2, 55360, Note_on_c, 1, 73, 127
2, 55400, Note_off_c, 1, 44, 0
2, 55400, Note_on_c, 1, 45, 127
2, 55400, Note_on_c, 1, 56, 127
2, 55400, Note_on_c, 1, 61, 127
2, 55400, Note_off_c, 1, 66, 0
2, 55400, Note_off_c, 1, 73, 0
2, 55440, Note_off_c, 1, 45, 0
2, 55440, Note_on_c, 1, 49, 127
2, 55440, Note_off_c, 1, 56, 0
2, 55440, Note_on_c, 1, 66, 127
2, 55440, Note_on_c, 1, 68, 127
2, 55480, Note_off_c, 1, 49, 0
2, 55480, Note_off_c, 1, 61, 0
2, 55480, Note_off_c, 1, 66, 0
2, 55480, Note_off_c, 1, 68, 0
2, 55520, Note_on_c, 1, 51, 127
2, 55520, Note_on_c, 1, 54, 127
2, 55520, Note_on_c, 1, 57, 127
2, 55520, Note_on_c, 1, 60, 127
2, 55520, Note_on_c, 1, 63, 127
2, 55520, Note_on_c, 1, 81, 127
2, 55520, Note_on_c, 1, 84, 127
2, 55560, Note_on_c, 1, 44, 127
2, 55560, Note_off_c, 1, 54, 0
2, 55560, Note_off_c, 1, 57, 0
2, 55560, Note_on_c, 1, 59, 127
2, 55560, Note_off_c, 1, 60, 0
2, 55560, Note_off_c, 1, 63, 0
2, 55560, Note_on_c, 1, 68, 127
2, 55560, Note_on_c, 1, 80, 127
2, 55560, Note_off_c, 1, 81, 0
2, 55560, Note_off_c, 1, 84, 0
2, 56400, Note_off_c, 1, 44, 0
2, 56400, Note_off_c, 1, 51, 0
2, 56400, Note_off_c, 1, 59, 0
2, 56400, Note_off_c, 1, 68, 0
2, 56400, Note_off_c, 1, 80, 0
2, 56440, Note_on_c, 1, 43, 127
2, 56440, Note_on_c, 1, 55, 127
2, 56440, Note_on_c, 1, 74, 127
2, 56440, Note_on_c, 1, 83, 127
2, 56440, Note_on_c, 1, 86, 127
2, 56680, Note_off_c, 1, 43, 0
2, 56680, Note_off_c, 1, 55, 0
2, 56680, Note_off_c, 1, 74, 0
2, 56680, Note_off_c, 1, 83, 0
2, 56680, Note_off_c, 1, 86, 0
2, 56720, Note_on_c, 1, 43, 127
2, 56720, Note_on_c, 1, 55, 127
2, 56720, Note_on_c, 1, 74, 127
2, 56720, Note_on_c, 1, 83, 127
2, 56720, Note_on_c, 1, 86, 127
2, 56880, Note_off_c, 1, 43, 0
2, 56880, Note_off_c, 1, 55, 0
2, 56880, Note_on_c, 1, 61, 127
2, 56880, Note_off_c, 1, 74, 0
2, 56880, Note_on_c, 1, 76, 127
2, 56880, Note_on_c, 1, 82, 127
2, 56880, Note_off_c, 1, 83, 0
2, 56880, Note_off_c, 1, 86, 0
2, 56880, Note_on_c, 1, 88, 127
2, 56920, Note_on_c, 1, 36, 127
2, 56920, Note_on_c, 1, 46, 127
2, 56920, Note_on_c, 1, 55, 127
2, 56920, Note_off_c, 1, 61, 0
2, 56920, Note_on_c, 1, 64, 127
2, 56920, Note_off_c, 1, 76, 0
2, 56920, Note_off_c, 1, 82, 0
2, 56920, Note_off_c, 1, 88, 0
2, 56960, Note_off_c, 1, 36, 0
2, 56960, Note_off_c, 1, 46, 0
2, 56960, Note_off_c, 1, 55, 0
2, 56960, Note_on_c, 1, 62, 127
2, 56960, Note_on_c, 1, 71, 127
2, 56960, Note_on_c, 1, 92, 127
2, 57000, Note_on_c, 1, 48, 127
2, 57000, Note_on_c, 1, 49, 127
2, 57000, Note_on_c, 1, 56, 127
2, 57000, Note_off_c, 1, 62, 0
2, 57000, Note_off_c, 1, 64, 0
2, 57000, Note_on_c, 1, 76, 127
2, 57000, Note_off_c, 1, 92, 0
2, 57040, Note_on_c, 1, 36, 127
2, 57040, Note_on_c, 1, 46, 127
2, 57040, Note_off_c, 1, 48, 0
2, 57040, Note_off_c, 1, 49, 0
2, 57040, Note_on_c, 1, 55, 127
2, 57040, Note_off_c, 1, 56, 0
2, 57040, Note_on_c, 1, 60, 127
2, 57040, Note_on_c, 1, 64, 127
2, 57040, Note_off_c, 1, 71, 0
2, 57040, Note_on_c, 1, 72, 127
2, 57040, Note_off_c, 1, 76, 0
2, 57080, Note_off_c, 1, 36, 0
2, 57080, Note_on_c, 1, 44, 127
2, 57080, Note_off_c, 1, 46, 0
2, 57080, Note_off_c, 1, 55, 0
2, 57080, Note_off_c, 1, 64, 0
2, 57080, Note_on_c, 1, 68, 127
2, 57080, Note_on_c, 1, 79, 127
2, 57120, Note_off_c, 1, 44, 0
2, 57120, Note_off_c, 1, 60, 0
2, 57120, Note_on_c, 1, 65, 127
2, 57120, Note_off_c, 1, 68, 0
2, 57120, Note_off_c, 1, 72, 0
2, 57120, Note_off_c, 1, 79, 0
2, 57120, Note_on_c, 1, 83, 127
2, 57160, Note_on_c, 1, 62, 127
2, 57160, Note_off_c, 1, 65, 0
2, 57160, Note_on_c, 1, 72, 127
2, 57160, Note_on_c, 1, 74, 127
2, 57160, Note_on_c, 1, 77, 127
2, 57160, Note_off_c, 1, 83, 0
2, 57160, Note_on_c, 1, 84, 127
2, 57320, Note_off_c, 1, 74, 0
2, 57320, Note_off_c, 1, 77, 0
2, 57320, Note_off_c, 1, 84, 0
2, 57360, Note_on_c, 1, 55, 127
2, 57360, Note_off_c, 1, 62, 0
2, 57360, Note_on_c, 1, 64, 127
2, 57360, Note_on_c, 1, 71, 127
2, 57360, Note_off_c, 1, 72, 0
2, 57360, Note_on_c, 1, 77, 127
2, 57560, Note_off_c, 1, 64, 0
2, 57560, Note_off_c, 1, 77, 0
2, 57600, Note_off_c, 1, 55, 0
2, 57600, Note_on_c, 1, 57, 127
2, 57600, Note_on_c, 1, 67, 127
2, 57600, Note_off_c, 1, 71, 0
2, 57600, Note_on_c, 1, 86, 127
2, 57600, Note_on_c, 1, 90, 127
2, 57760, Note_on_c, 1, 55, 127
2, 57760, Note_off_c, 1, 57, 0
2, 57760, Note_off_c, 1, 67, 0
2, 57760, Note_off_c, 1, 86, 0
2, 57760, Note_off_c, 1, 90, 0
2, 57800, Note_on_c, 1, 64, 127
2, 57800, Note_on_c, 1, 72, 127
2, 57800, Note_on_c, 1, 81, 127
2, 57800, Note_on_c, 1, 84, 127
2, 58200, Note_off_c, 1, 81, 0
2, 58240, Note_on_c, 1, 76, 127
2, 58680, Note_off_c, 1, 55, 0
2, 58680, Note_off_c, 1, 64, 0
2, 58680, Note_off_c, 1, 72, 0
2, 58680, Note_off_c, 1, 76, 0
2, 58680, Note_off_c, 1, 84, 0
2, 58760, Note_on_c, 1, 40, 127
2, 58760, Note_on_c, 1, 61, 127
2, 58760, Note_on_c, 1, 69, 127
2, 58760, Note_on_c, 1, 81, 127
2, 59160, Note_on_c, 1, 38, 127
2, 59160, Note_off_c, 1, 40, 0
2, 59160, Note_off_c, 1, 61, 0
2, 59160, Note_off_c, 1, 69, 0
2, 59160, Note_off_c, 1, 81, 0
2, 59200, Note_off_c, 1, 38, 0
2, 59200, Note_on_c, 1, 57, 127
2, 59200, Note_on_c, 1, 64, 127
2, 59200, Note_on_c, 1, 67, 127
2, 59200, Note_on_c, 1, 69, 127
2, 59200, Note_on_c, 1, 79, 127
2, 59200, Note_on_c, 1, 85, 127
2, 59200, Note_on_c, 1, 88, 127
2, 59600, Note_off_c, 1, 57, 0
2, 59600, Note_off_c, 1, 64, 0
2, 59600, Note_off_c, 1, 67, 0
2, 59600, Note_off_c, 1, 69, 0
2, 59600, Note_on_c, 1, 72, 127
2, 59600, Note_on_c, 1, 74, 127
2, 59600, Note_off_c, 1, 85, 0
2, 59600, Note_off_c, 1, 88, 0
2, 59600, Note_on_c, 1, 89, 127
2, 59600, Note_on_c, 1, 91, 127
2, 59600, Note_on_c, 1, 95, 127
2, 59640, Note_on_c, 1, 39, 127
2, 59640, Note_on_c, 1, 51, 127
2, 59640, Note_on_c, 1, 66, 127
2, 59640, Note_off_c, 1, 72, 0
2, 59640, Note_on_c, 1, 73, 127
2, 59640, Note_off_c, 1, 74, 0
2, 59640, Note_on_c, 1, 77, 127
2, 59640, Note_off_c, 1, 79, 0
2, 59640, Note_off_c, 1, 89, 0
2, 59640, Note_off_c, 1, 91, 0
2, 59640, Note_off_c, 1, 95, 0
2, 60040, Note_off_c, 1, 39, 0
2, 60040, Note_off_c, 1, 51, 0
2, 60040, Note_off_c, 1, 66, 0
2, 60040, Note_off_c, 1, 73, 0
2, 60040, Note_off_c, 1, 77, 0
2, 60080, Note_on_c, 1, 47, 127
2, 60080, Note_on_c, 1, 59, 127
2, 60080, Note_on_c, 1, 68, 127
2, 60080, Note_on_c, 1, 71, 127
2, 60080, Note_on_c, 1, 76, 127
2, 60080, Note_on_c, 1, 80, 127
2, 60240, Note_off_c, 1, 47, 0
2, 60240, Note_off_c, 1, 59, 0
2, 60240, Note_off_c, 1, 68, 0
2, 60240, Note_off_c, 1, 71, 0
2, 60240, Note_off_c, 1, 76, 0
2, 60240, Note_off_c, 1, 80, 0
2, 60320, Note_on_c, 1, 48, 127
2, 60320, Note_on_c, 1, 87, 127
2, 60320, Note_on_c, 1, 99, 127
2, 60480, Note_off_c, 1, 48, 0
2, 60480, Note_off_c, 1, 87, 0
2, 60480, Note_off_c, 1, 99, 0
2, 60520, Note_on_c, 1, 37, 127
2, 60520, Note_on_c, 1, 49, 127
2, 60520, Note_on_c, 1, 82, 127
2, 60520, Note_on_c, 1, 90, 127
2, 60520, Note_on_c, 1, 94, 127
2, 60680, Note_off_c, 1, 37, 0
2, 60680, Note_off_c, 1, 49, 0
2, 60680, Note_on_c, 1, 51, 127
2, 60680, Note_on_c, 1, 54, 127
2, 60680, Note_on_c, 1, 58, 127
2, 60680, Note_on_c, 1, 61, 127
2, 60680, Note_on_c, 1, 73, 127
2, 60680, Note_off_c, 1, 82, 0
2, 60680, Note_on_c, 1, 85, 127
2, 60680, Note_off_c, 1, 90, 0
2, 60680, Note_off_c, 1, 94, 0
2, 60720, Note_off_c, 1, 51, 0
2, 60720, Note_off_c, 1, 54, 0
2, 60720, Note_off_c, 1, 58, 0
2, 60720, Note_off_c, 1, 61, 0
2, 60720, Note_off_c, 1, 73, 0
2, 60720, Note_off_c, 1, 85, 0
2, 60760, Note_on_c, 1, 37, 127
2, 60760, Note_on_c, 1, 49, 127
2, 60760, Note_on_c, 1, 82, 127
2, 60760, Note_on_c, 1, 90, 127
2, 60760, Note_on_c, 1, 94, 127
2, 60960, Note_off_c, 1, 37, 0
2, 60960, Note_off_c, 1, 49, 0
2, 60960, Note_on_c, 1, 73, 127
2, 60960, Note_on_c, 1, 76, 127
2, 60960, Note_on_c, 1, 79, 127
2, 60960, Note_off_c, 1, 82, 0
2, 60960, Note_off_c, 1, 90, 0
2, 61000, Note_on_c, 1, 29, 127
2, 61000, Note_on_c, 1, 41, 127
2, 61000, Note_on_c, 1, 68, 127
2, 61000, Note_off_c, 1, 73, 0
2, 61000, Note_off_c, 1, 76, 0
2, 61000, Note_on_c, 1, 80, 127
2, 61000, Note_off_c, 1, 94, 0
2, 61040, Note_off_c, 1, 29, 0
2, 61040, Note_on_c, 1, 40, 127
2, 61040, Note_off_c, 1, 41, 0
2, 61040, Note_on_c, 1, 52, 127
2, 61040, Note_on_c, 1, 57, 127
2, 61040, Note_on_c, 1, 60, 127
2, 61040, Note_on_c, 1, 65, 127
2, 61040, Note_off_c, 1, 68, 0
2, 61040, Note_off_c, 1, 79, 0
2, 61040, Note_off_c, 1, 80, 0
2, 61080, Note_on_c, 1, 36, 127
2, 61080, Note_off_c, 1, 40, 0
2, 61080, Note_on_c, 1, 45, 127
2, 61080, Note_on_c, 1, 48, 127
2, 61080, Note_off_c, 1, 52, 0
2, 61080, Note_off_c, 1, 57, 0
2, 61080, Note_off_c, 1, 60, 0
2, 61080, Note_on_c, 1, 63, 127
2, 61080, Note_on_c, 1, 72, 127
2, 61080, Note_on_c, 1, 77, 127
2, 61120, Note_off_c, 1, 36, 0
2, 61120, Note_off_c, 1, 45, 0
2, 61120, Note_off_c, 1, 48, 0
2, 61120, Note_on_c, 1, 50, 127
2, 61120, Note_on_c, 1, 55, 127
2, 61120, Note_on_c, 1, 59, 127
2, 61120, Note_off_c, 1, 63, 0
2, 61120, Note_off_c, 1, 65, 0
2, 61120, Note_on_c, 1, 67, 127
2, 61120, Note_off_c, 1, 72, 0
2, 61160, Note_on_c, 1, 38, 127
2, 61160, Note_on_c, 1, 41, 127
2, 61160, Note_off_c, 1, 55, 0
2, 61160, Note_off_c, 1, 59, 0
2, 61160, Note_off_c, 1, 67, 0
2, 61160, Note_on_c, 1, 68, 127
2, 61160, Note_on_c, 1, 71, 127
2, 61160, Note_off_c, 1, 77, 0
2, 61160, Note_on_c, 1, 80, 127
2, 61200, Note_off_c, 1, 38, 0
2, 61200, Note_off_c, 1, 41, 0
2, 61200, Note_off_c, 1, 50, 0
2, 61200, Note_off_c, 1, 68, 0
2, 61200, Note_off_c, 1, 71, 0
2, 61200, Note_off_c, 1, 80, 0
2, 61240, Note_on_c, 1, 41, 127
2, 61240, Note_on_c, 1, 53, 127
2, 61240, Note_on_c, 1, 72, 127
2, 61240, Note_on_c, 1, 79, 127
2, 61240, Note_on_c, 1, 82, 127
2, 61240, Note_on_c, 1, 84, 127
2, 61520, Note_off_c, 1, 72, 0
2, 61520, Note_off_c, 1, 79, 0
2, 61520, Note_off_c, 1, 82, 0
2, 61520, Note_off_c, 1, 84, 0
2, 61560, Note_on_c, 1, 72, 127
2, 61560, Note_on_c, 1, 79, 127
2, 61560, Note_on_c, 1, 82, 127
2, 61560, Note_on_c, 1, 84, 127
2, 61640, Note_off_c, 1, 41, 0
2, 61640, Note_off_c, 1, 53, 0
2, 61640, Note_off_c, 1, 72, 0
2, 61640, Note_off_c, 1, 79, 0
2, 61640, Note_off_c, 1, 82, 0
2, 61640, Note_off_c, 1, 84, 0
2, 61680, Note_on_c, 1, 43, 127
2, 61680, Note_on_c, 1, 53, 127
2, 61680, Note_on_c, 1, 72, 127
2, 61680, Note_on_c, 1, 75, 127
2, 61680, Note_on_c, 1, 84, 127
2, 61880, Note_off_c, 1, 53, 0
2, 61880, Note_off_c, 1, 72, 0
2, 61880, Note_off_c, 1, 75, 0
2, 61880, Note_off_c, 1, 84, 0
2, 61920, Note_off_c, 1, 43, 0
2, 61920, Note_on_c, 1, 51, 127
2, 61920, Note_on_c, 1, 54, 127
2, 61920, Note_on_c, 1, 57, 127
2, 61920, Note_on_c, 1, 63, 127
2, 62280, Note_on_c, 1, 43, 127
2, 62280, Note_off_c, 1, 51, 0
2, 62280, Note_off_c, 1, 54, 0
2, 62280, Note_on_c, 1, 55, 127
2, 62280, Note_off_c, 1, 57, 0
2, 62280, Note_off_c, 1, 63, 0
2, 62280, Note_on_c, 1, 74, 127
2, 62280, Note_on_c, 1, 76, 127
2, 62320, Note_off_c, 1, 55, 0
2, 62320, Note_off_c, 1, 74, 0
2, 62320, Note_off_c, 1, 76, 0
2, 62360, Note_off_c, 1, 43, 0
2, 62360, Note_on_c, 1, 45, 127
2, 62360, Note_on_c, 1, 54, 127
2, 62360, Note_on_c, 1, 59, 127
2, 62360, Note_on_c, 1, 63, 127
2, 62680, Note_on_c, 1, 29, 127
2, 62680, Note_on_c, 1, 37, 127
2, 62680, Note_on_c, 1, 43, 127
2, 62680, Note_off_c, 1, 45, 0
2, 62680, Note_off_c, 1, 54, 0
2, 62680, Note_off_c, 1, 59, 0
2, 62680, Note_off_c, 1, 63, 0
2, 62720, Note_off_c, 1, 29, 0
2, 62720, Note_off_c, 1, 37, 0
2, 62720, Note_off_c, 1, 43, 0
2, 62760, Note_on_c, 1, 49, 127
2, 62760, Note_on_c, 1, 52, 127
2, 62760, Note_on_c, 1, 55, 127
2, 62760, Note_on_c, 1, 57, 127
2, 62760, Note_on_c, 1, 61, 127
2, 62760, Note_on_c, 1, 64, 127
2, 62800, Note_off_c, 1, 49, 0
2, 62800, Note_off_c, 1, 52, 0
2, 62800, Note_off_c, 1, 55, 0
2, 62800, Note_off_c, 1, 57, 0
2, 62800, Note_off_c, 1, 61, 0
2, 62800, Note_off_c, 1, 64, 0
2, 62840, Note_on_c, 1, 56, 127
2, 62840, Note_on_c, 1, 63, 127
2, 62840, Note_on_c, 1, 71, 127
2, 62840, Note_on_c, 1, 87, 127
2, 62920, Note_off_c, 1, 56, 0
2, 62920, Note_off_c, 1, 71, 0
2, 62920, Note_on_c, 1, 73, 127
2, 62920, Note_on_c, 1, 79, 127
2, 62920, Note_on_c, 1, 82, 127
2, 62920, Note_off_c, 1, 87, 0
2, 62960, Note_on_c, 1, 56, 127
2, 62960, Note_on_c, 1, 71, 127
2, 62960, Note_off_c, 1, 73, 0
2, 62960, Note_off_c, 1, 79, 0
2, 62960, Note_off_c, 1, 82, 0
2, 62960, Note_on_c, 1, 87, 127
2, 63000, Note_off_c, 1, 87, 0
2, 63040, Note_off_c, 1, 56, 0
2, 63040, Note_off_c, 1, 63, 0
2, 63040, Note_off_c, 1, 71, 0
2, 63520, Note_on_c, 1, 40, 127
2, 63520, Note_on_c, 1, 52, 127
2, 63520, Note_on_c, 1, 68, 127
2, 63520, Note_on_c, 1, 71, 127
2, 63520, Note_on_c, 1, 76, 127
2, 64360, Note_off_c, 1, 40, 0
2, 64360, Note_off_c, 1, 52, 0
2, 64360, Note_off_c, 1, 68, 0
2, 64360, Note_off_c, 1, 71, 0
2, 64360, Note_off_c, 1, 76, 0
2, 64400, Note_on_c, 1, 59, 127
2, 64400, Note_on_c, 1, 70, 127
2, 64400, Note_on_c, 1, 73, 127
2, 64400, Note_on_c, 1, 78, 127
2, 64720, Note_off_c, 1, 59, 0
2, 64720, Note_off_c, 1, 70, 0
2, 64720, Note_off_c, 1, 73, 0
2, 64720, Note_off_c, 1, 78, 0
2, 64760, Note_on_c, 1, 59, 127
2, 64760, Note_on_c, 1, 70, 127
2, 64760, Note_on_c, 1, 73, 127
2, 64760, Note_on_c, 1, 78, 127
2, 64840, Note_off_c, 1, 59, 0
2, 64840, Note_off_c, 1, 70, 0
2, 64840, Note_off_c, 1, 73, 0
2, 64840, Note_off_c, 1, 78, 0
2, 64880, Note_on_c, 1, 59, 127
2, 64880, Note_on_c, 1, 68, 127
2, 64880, Note_on_c, 1, 71, 127
2, 64880, Note_on_c, 1, 76, 127
2, 65720, Note_off_c, 1, 59, 0
2, 65720, Note_off_c, 1, 68, 0
2, 65720, Note_off_c, 1, 71, 0
2, 65720, Note_off_c, 1, 76, 0
2, 65760, Note_on_c, 1, 59, 127
2, 65760, Note_on_c, 1, 71, 127
2, 65760, Note_on_c, 1, 76, 127
2, 65760, Note_on_c, 1, 80, 127
2, 66160, Note_on_c, 1, 55, 127
2, 66160, Note_on_c, 1, 67, 127
2, 66160, Note_off_c, 1, 71, 0
2, 66160, Note_off_c, 1, 80, 0
2, 66200, Note_off_c, 1, 55, 0
2, 66200, Note_off_c, 1, 59, 0
2, 66200, Note_off_c, 1, 67, 0
2, 66200, Note_off_c, 1, 76, 0
2, 66240, Note_on_c, 1, 64, 127
2, 66240, Note_on_c, 1, 71, 127
2, 66240, Note_on_c, 1, 76, 127
2, 66240, Note_on_c, 1, 80, 127
2, 66640, Note_off_c, 1, 64, 0
2, 66640, Note_off_c, 1, 71, 0
2, 66640, Note_off_c, 1, 76, 0
2, 66640, Note_off_c, 1, 80, 0
2, 66680, Note_on_c, 1, 64, 127
2, 66680, Note_on_c, 1, 71, 127
2, 66680, Note_on_c, 1, 76, 127
2, 66680, Note_on_c, 1, 80, 127
2, 67040, Note_off_c, 1, 64, 0
2, 67040, Note_off_c, 1, 71, 0
2, 67040, Note_off_c, 1, 76, 0
2, 67040, Note_off_c, 1, 80, 0
2, 67200, Note_on_c, 1, 52, 127
2, 67360, Note_off_c, 1, 52, 0
2, 67640, Note_on_c, 1, 52, 127
2, 67640, Note_on_c, 1, 57, 127
2, 67640, Note_on_c, 1, 64, 127
2, 67640, Note_on_c, 1, 69, 127
2, 67640, Note_on_c, 1, 73, 127
2, 68040, Note_off_c, 1, 52, 0
2, 68040, Note_off_c, 1, 57, 0
2, 68040, Note_off_c, 1, 64, 0
2, 68040, Note_off_c, 1, 69, 0
2, 68040, Note_off_c, 1, 73, 0
2, 68080, Note_on_c, 1, 33, 127
2, 68080, Note_on_c, 1, 45, 127
2, 68080, Note_on_c, 1, 61, 127
2, 68080, Note_on_c, 1, 64, 127
2, 68080, Note_on_c, 1, 69, 127
2, 68480, Note_off_c, 1, 33, 0
2, 68480, Note_off_c, 1, 45, 0
2, 68480, Note_off_c, 1, 61, 0
2, 68480, Note_off_c, 1, 64, 0
2, 68480, Note_off_c, 1, 69, 0
2, 68520, Note_on_c, 1, 57, 127
2, 68520, Note_on_c, 1, 64, 127
2, 68520, Note_on_c, 1, 69, 127
2, 68520, Note_on_c, 1, 73, 127
2, 68520, Note_on_c, 1, 79, 127
2, 68840, Note_off_c, 1, 79, 0
2, 68880, Note_on_c, 1, 79, 127
2, 69360, Note_off_c, 1, 57, 0
2, 69360, Note_off_c, 1, 64, 0
2, 69360, Note_off_c, 1, 69, 0
2, 69360, Note_off_c, 1, 73, 0
2, 69360, Note_off_c, 1, 79, 0
2, 69400, Note_on_c, 1, 57, 127
2, 69400, Note_on_c, 1, 64, 127
2, 69400, Note_on_c, 1, 69, 127
2, 69400, Note_on_c, 1, 73, 127
2, 69400, Note_on_c, 1, 79, 127
2, 70200, Note_off_c, 1, 57, 0
2, 70200, Note_off_c, 1, 64, 0
2, 70200, Note_off_c, 1, 69, 0
2, 70200, Note_off_c, 1, 73, 0
2, 70200, Note_off_c, 1, 79, 0
2, 70240, Note_on_c, 1, 37, 127
2, 70240, Note_on_c, 1, 49, 127
2, 70240, Note_on_c, 1, 80, 127
2, 70240, Note_on_c, 1, 87, 127
2, 70280, Note_off_c, 1, 37, 0
2, 70280, Note_on_c, 1, 44, 127
2, 70280, Note_off_c, 1, 49, 0
2, 70280, Note_on_c, 1, 51, 127
2, 70280, Note_on_c, 1, 54, 127
2, 70280, Note_on_c, 1, 56, 127
2, 70280, Note_on_c, 1, 60, 127
2, 70280, Note_on_c, 1, 63, 127
2, 70280, Note_on_c, 1, 68, 127
2, 70280, Note_off_c, 1, 80, 0
2, 70280, Note_off_c, 1, 87, 0
2, 70320, Note_on_c, 1, 35, 127
2, 70320, Note_off_c, 1, 44, 0
2, 70320, Note_on_c, 1, 47, 127
2, 70320, Note_on_c, 1, 50, 127
2, 70320, Note_off_c, 1, 51, 0
2, 70320, Note_off_c, 1, 56, 0
2, 70320, Note_off_c, 1, 60, 0
2, 70320, Note_on_c, 1, 62, 127
2, 70320, Note_off_c, 1, 63, 0
2, 70320, Note_off_c, 1, 68, 0
2, 70480, Note_off_c, 1, 35, 0
2, 70480, Note_on_c, 1, 46, 127
2, 70480, Note_off_c, 1, 47, 0
2, 70480, Note_off_c, 1, 50, 0
2, 70480, Note_off_c, 1, 54, 0
2, 70480, Note_on_c, 1, 57, 127
2, 70480, Note_on_c, 1, 58, 127
2, 70480, Note_off_c, 1, 62, 0
2, 70480, Note_on_c, 1, 69, 127
2, 70480, Note_on_c, 1, 70, 127
2, 70520, Note_on_c, 1, 35, 127
2, 70520, Note_off_c, 1, 46, 0
2, 70520, Note_on_c, 1, 47, 127
2, 70520, Note_on_c, 1, 50, 127
2, 70520, Note_on_c, 1, 54, 127
2, 70520, Note_off_c, 1, 57, 0
2, 70520, Note_off_c, 1, 58, 0
2, 70520, Note_on_c, 1, 62, 127
2, 70520, Note_off_c, 1, 69, 0
2, 70520, Note_off_c, 1, 70, 0
2, 71040, Note_off_c, 1, 35, 0
2, 71040, Note_off_c, 1, 47, 0
2, 71040, Note_off_c, 1, 50, 0
2, 71040, Note_off_c, 1, 54, 0
2, 71040, Note_off_c, 1, 62, 0
2, 71080, Note_on_c, 1, 62, 127
2, 71080, Note_on_c, 1, 67, 127
2, 71080, Note_on_c, 1, 69, 127
2, 71080, Note_on_c, 1, 74, 127
2, 71080, Note_on_c, 1, 91, 127
2, 71080, Note_on_c, 1, 93, 127
2, 71240, Note_on_c, 1, 65, 127
2, 71240, Note_off_c, 1, 67, 0
2, 71240, Note_off_c, 1, 74, 0
2, 71240, Note_on_c, 1, 77, 127
2, 71240, Note_on_c, 1, 81, 127
2, 71240, Note_on_c, 1, 89, 127
2, 71240, Note_off_c, 1, 91, 0
2, 71240, Note_off_c, 1, 93, 0
2, 71280, Note_off_c, 1, 65, 0
2, 71280, Note_on_c, 1, 67, 127
2, 71280, Note_on_c, 1, 74, 127
2, 71280, Note_off_c, 1, 77, 0
2, 71280, Note_off_c, 1, 81, 0
2, 71280, Note_off_c, 1, 89, 0
2, 71320, Note_off_c, 1, 62, 0
2, 71320, Note_off_c, 1, 67, 0
2, 71320, Note_off_c, 1, 69, 0
2, 71320, Note_off_c, 1, 74, 0
2, 71360, Note_on_c, 1, 62, 127
2, 71360, Note_on_c, 1, 67, 127
2, 71360, Note_on_c, 1, 69, 127
2, 71360, Note_on_c, 1, 74, 127
2, 71360, Note_on_c, 1, 84, 127
2, 71360, Note_on_c, 1, 98, 127
2, 71520, Note_off_c, 1, 84, 0
2, 71520, Note_off_c, 1, 98, 0
2, 71560, Note_on_c, 1, 84, 127
2, 71560, Note_on_c, 1, 98, 127
2, 71720, Note_off_c, 1, 84, 0
2, 71720, Note_off_c, 1, 98, 0
2, 72120, Note_on_c, 1, 37, 127
2, 72120, Note_on_c, 1, 41, 127
2, 72120, Note_on_c, 1, 49, 127
2, 72120, Note_off_c, 1, 62, 0
2, 72120, Note_off_c, 1, 67, 0
2, 72120, Note_off_c, 1, 69, 0
2, 72120, Note_off_c, 1, 74, 0
2, 72160, Note_off_c, 1, 37, 0
2, 72160, Note_off_c, 1, 41, 0
2, 72160, Note_off_c, 1, 49, 0
2, 72160, Note_on_c, 1, 62, 127
2, 72160, Note_on_c, 1, 67, 127
2, 72160, Note_on_c, 1, 69, 127
2, 72160, Note_on_c, 1, 74, 127
2, 72360, Note_off_c, 1, 67, 0
2, 72360, Note_off_c, 1, 69, 0
2, 72360, Note_on_c, 1, 70, 127
2, 72360, Note_on_c, 1, 73, 127
2, 72360, Note_off_c, 1, 74, 0
2, 72360, Note_on_c, 1, 79, 127
2, 72400, Note_off_c, 1, 70, 0
2, 72400, Note_off_c, 1, 73, 0
2, 72400, Note_off_c, 1, 79, 0
2, 72440, Note_on_c, 1, 59, 127
2, 72440, Note_off_c, 1, 62, 0
2, 72440, Note_on_c, 1, 67, 127
2, 72440, Note_on_c, 1, 74, 127
2, 72440, Note_on_c, 1, 86, 127
2, 73040, Note_off_c, 1, 59, 0
2, 73040, Note_off_c, 1, 67, 0
2, 73040, Note_off_c, 1, 74, 0
2, 73040, Note_off_c, 1, 86, 0
2, 73080, Note_on_c, 1, 59, 127
2, 73080, Note_on_c, 1, 67, 127
2, 73080, Note_on_c, 1, 74, 127
2, 73080, Note_on_c, 1, 86, 127
2, 73120, Note_on_c, 1, 32, 127
2, 73120, Note_off_c, 1, 59, 0
2, 73120, Note_on_c, 1, 62, 127
2, 73120, Note_on_c, 1, 71, 127
2, 73120, Note_off_c, 1, 86, 0
2, 73160, Note_off_c, 1, 32, 0
2, 73160, Note_on_c, 1, 34, 127
2, 73200, Note_on_c, 1, 32, 127
2, 73200, Note_off_c, 1, 34, 0
2, 73240, Note_off_c, 1, 32, 0
2, 73240, Note_on_c, 1, 34, 127
2, 73280, Note_off_c, 1, 34, 0
2, 73320, Note_on_c, 1, 34, 127
2, 73600, Note_off_c, 1, 34, 0
2, 73600, Note_on_c, 1, 35, 127
2, 73600, Note_off_c, 1, 62, 0
2, 73600, Note_on_c, 1, 63, 127
2, 73600, Note_off_c, 1, 67, 0
2, 73600, Note_on_c, 1, 68, 127
2, 73600, Note_off_c, 1, 71, 0
2, 73600, Note_on_c, 1, 72, 127
2, 73600, Note_off_c, 1, 74, 0
2, 73600, Note_on_c, 1, 75, 127
2, 73640, Note_on_c, 1, 34, 127
2, 73640, Note_off_c, 1, 35, 0
2, 73640, Note_on_c, 1, 62, 127
2, 73640, Note_off_c, 1, 63, 0
2, 73640, Note_on_c, 1, 67, 127
2, 73640, Note_off_c, 1, 68, 0
2, 73640, Note_on_c, 1, 71, 127
2, 73640, Note_off_c, 1, 72, 0
2, 73640, Note_on_c, 1, 74, 127
2, 73640, Note_off_c, 1, 75, 0
2, 73760, Note_on_c, 1, 32, 127
2, 73760, Note_off_c, 1, 34, 0
2, 73800, Note_off_c, 1, 32, 0
2, 73800, Note_on_c, 1, 34, 127
2, 73840, Note_on_c, 1, 32, 127
2, 73840, Note_off_c, 1, 34, 0
2, 73880, Note_off_c, 1, 32, 0
2, 73880, Note_on_c, 1, 34, 127
2, 73920, Note_on_c, 1, 32, 127
2, 73920, Note_off_c, 1, 34, 0
2, 73960, Note_off_c, 1, 32, 0
2, 73960, Note_on_c, 1, 34, 127
2, 74040, Note_on_c, 1, 32, 127
2, 74040, Note_off_c, 1, 34, 0
2, 74080, Note_off_c, 1, 32, 0
2, 74080, Note_on_c, 1, 34, 127
2, 74120, Note_off_c, 1, 34, 0
2, 74120, Note_on_c, 1, 58, 127
2, 74120, Note_off_c, 1, 62, 0
2, 74120, Note_on_c, 1, 64, 127
2, 74120, Note_off_c, 1, 71, 0
2, 74120, Note_on_c, 1, 73, 127
2, 74120, Note_off_c, 1, 74, 0
2, 74160, Note_on_c, 1, 34, 127
2, 74160, Note_off_c, 1, 58, 0
2, 74160, Note_on_c, 1, 62, 127
2, 74160, Note_off_c, 1, 64, 0
2, 74160, Note_on_c, 1, 71, 127
2, 74160, Note_off_c, 1, 73, 0
2, 74160, Note_on_c, 1, 74, 127
2, 74240, Note_on_c, 1, 32, 127
2, 74240, Note_off_c, 1, 34, 0
2, 74280, Note_off_c, 1, 32, 0
2, 74280, Note_on_c, 1, 34, 127
2, 74480, Note_on_c, 1, 32, 127
2, 74480, Note_off_c, 1, 34, 0
2, 74520, Note_off_c, 1, 32, 0
2, 74520, Note_on_c, 1, 34, 127
2, 74560, Note_off_c, 1, 34, 0
2, 74560, Note_on_c, 1, 45, 127
2, 74560, Note_on_c, 1, 49, 127
2, 74560, Note_on_c, 1, 52, 127
2, 74560, Note_on_c, 1, 57, 127
2, 74560, Note_off_c, 1, 62, 0
2, 74560, Note_off_c, 1, 67, 0
2, 74560, Note_off_c, 1, 71, 0
2, 74600, Note_on_c, 1, 32, 127
2, 74600, Note_off_c, 1, 45, 0
2, 74600, Note_off_c, 1, 49, 0
2, 74600, Note_off_c, 1, 52, 0
2, 74600, Note_off_c, 1, 57, 0
2, 74600, Note_on_c, 1, 62, 127
2, 74600, Note_on_c, 1, 67, 127
2, 74600, Note_on_c, 1, 71, 127
2, 74640, Note_off_c, 1, 32, 0
2, 74640, Note_on_c, 1, 34, 127
2, 74680, Note_on_c, 1, 32, 127
2, 74680, Note_off_c, 1, 34, 0
2, 74720, Note_off_c, 1, 32, 0
2, 74720, Note_on_c, 1, 55, 127
2, 74720, Note_on_c, 1, 58, 127
2, 74720, Note_on_c, 1, 70, 127
2, 74720, Note_off_c, 1, 71, 0
2, 74720, Note_off_c, 1, 74, 0
2, 74760, Note_on_c, 1, 34, 127
2, 74760, Note_off_c, 1, 55, 0
2, 74760, Note_off_c, 1, 58, 0
2, 74760, Note_off_c, 1, 70, 0
2, 74760, Note_on_c, 1, 71, 127
2, 74760, Note_on_c, 1, 74, 127
2, 74800, Note_on_c, 1, 32, 127
2, 74800, Note_off_c, 1, 34, 0
2, 74840, Note_off_c, 1, 32, 0
2, 74840, Note_on_c, 1, 34, 127
2, 74920, Note_on_c, 1, 28, 127
2, 74920, Note_off_c, 1, 34, 0
2, 74920, Note_on_c, 1, 39, 127
2, 74920, Note_on_c, 1, 40, 127
2, 74920, Note_on_c, 1, 47, 127
2, 74920, Note_on_c, 1, 51, 127
2, 74920, Note_on_c, 1, 52, 127
2, 74920, Note_on_c, 1, 59, 127
2, 74920, Note_off_c, 1, 62, 0
2, 74920, Note_off_c, 1, 67, 0
2, 74920, Note_on_c, 1, 68, 127
2, 74920, Note_off_c, 1, 74, 0
2, 74960, Note_off_c, 1, 28, 0
2, 74960, Note_off_c, 1, 39, 0
2, 74960, Note_off_c, 1, 40, 0
2, 74960, Note_off_c, 1, 47, 0
2, 74960, Note_off_c, 1, 51, 0
2, 74960, Note_off_c, 1, 52, 0
2, 74960, Note_off_c, 1, 59, 0
2, 74960, Note_off_c, 1, 68, 0
2, 74960, Note_off_c, 1, 71, 0
2, 75000, Note_on_c, 1, 52, 127
2, 75000, Note_on_c, 1, 57, 127
2, 75000, Note_on_c, 1, 64, 127
2, 75000, Note_on_c, 1, 73, 127
2, 75000, Note_on_c, 1, 76, 127
2, 75040, Note_on_c, 1, 28, 127
2, 75040, Note_on_c, 1, 39, 127
2, 75040, Note_on_c, 1, 40, 127
2, 75040, Note_on_c, 1, 47, 127
2, 75040, Note_on_c, 1, 51, 127
2, 75040, Note_off_c, 1, 57, 0
2, 75040, Note_on_c, 1, 59, 127
2, 75040, Note_off_c, 1, 64, 0
2, 75040, Note_on_c, 1, 68, 127
2, 75040, Note_on_c, 1, 71, 127
2, 75040, Note_off_c, 1, 73, 0
2, 75040, Note_off_c, 1, 76, 0
2, 75400, Note_off_c, 1, 28, 0
2, 75400, Note_off_c, 1, 39, 0
2, 75400, Note_off_c, 1, 40, 0
2, 75400, Note_off_c, 1, 47, 0
2, 75400, Note_off_c, 1, 51, 0
2, 75400, Note_off_c, 1, 52, 0
2, 75400, Note_on_c, 1, 57, 127
2, 75400, Note_off_c, 1, 59, 0
2, 75400, Note_on_c, 1, 64, 127
2, 75400, Note_off_c, 1, 68, 0
2, 75400, Note_off_c, 1, 71, 0
2, 75400, Note_on_c, 1, 73, 127
2, 75400, Note_on_c, 1, 79, 127
2, 75440, Note_on_c, 1, 28, 127
2, 75440, Note_on_c, 1, 39, 127
2, 75440, Note_on_c, 1, 40, 127
2, 75440, Note_on_c, 1, 47, 127
2, 75440, Note_on_c, 1, 51, 127
2, 75440, Note_on_c, 1, 52, 127
2, 75440, Note_off_c, 1, 57, 0
2, 75440, Note_on_c, 1, 59, 127
2, 75440, Note_off_c, 1, 64, 0
2, 75440, Note_on_c, 1, 68, 127
2, 75440, Note_on_c, 1, 71, 127
2, 75440, Note_off_c, 1, 73, 0
2, 75440, Note_off_c, 1, 79, 0
2, 75840, Note_off_c, 1, 28, 0
2, 75840, Note_off_c, 1, 39, 0
2, 75840, Note_off_c, 1, 40, 0
2, 75840, Note_off_c, 1, 47, 0
2, 75840, Note_off_c, 1, 51, 0
2, 75840, Note_off_c, 1, 52, 0
2, 75840, Note_off_c, 1, 59, 0
2, 75840, Note_off_c, 1, 68, 0
2, 75840, Note_off_c, 1, 71, 0
2, 75880, Note_on_c, 1, 45, 127
2, 75880, Note_on_c, 1, 73, 127
2, 75880, Note_on_c, 1, 79, 127
2, 76040, Note_off_c, 1, 45, 0
2, 76040, Note_off_c, 1, 79, 0
2, 76080, Note_on_c, 1, 42, 127
2, 76080, Note_on_c, 1, 45, 127
2, 76080, Note_on_c, 1, 62, 127
2, 76080, Note_off_c, 1, 73, 0
2, 76080, Note_on_c, 1, 74, 127
2, 76280, Note_off_c, 1, 42, 0
2, 76280, Note_off_c, 1, 45, 0
2, 76280, Note_on_c, 1, 57, 127
2, 76280, Note_off_c, 1, 62, 0
2, 76280, Note_off_c, 1, 74, 0
2, 76320, Note_on_c, 1, 50, 127
2, 76320, Note_on_c, 1, 76, 127
2, 76480, Note_off_c, 1, 57, 0
2, 76480, Note_on_c, 1, 69, 127
2, 76480, Note_off_c, 1, 76, 0
2, 76520, Note_on_c, 1, 57, 127
2, 76520, Note_on_c, 1, 66, 127
2, 76520, Note_off_c, 1, 69, 0
2, 76520, Note_on_c, 1, 76, 127
2, 76680, Note_off_c, 1, 57, 0
2, 76680, Note_off_c, 1, 66, 0
2, 76720, Note_on_c, 1, 59, 127
2, 76720, Note_on_c, 1, 67, 127
2, 77040, Note_off_c, 1, 50, 0
2, 77040, Note_off_c, 1, 59, 0
2, 77040, Note_off_c, 1, 67, 0
2, 77040, Note_off_c, 1, 76, 0
2, 77080, Note_on_c, 1, 50, 127
2, 77080, Note_on_c, 1, 59, 127
2, 77080, Note_on_c, 1, 67, 127
2, 77080, Note_on_c, 1, 76, 127
2, 77120, Note_on_c, 1, 74, 127
2, 77120, Note_off_c, 1, 76, 0
2, 77160, Note_off_c, 1, 59, 0
2, 77160, Note_off_c, 1, 67, 0
2, 77160, Note_off_c, 1, 74, 0
2, 77200, Note_on_c, 1, 60, 127
2, 77200, Note_on_c, 1, 69, 127
2, 77200, Note_on_c, 1, 74, 127
2, 77600, Note_off_c, 1, 50, 0
2, 77600, Note_off_c, 1, 60, 0
2, 77600, Note_off_c, 1, 69, 0
2, 77640, Note_on_c, 1, 50, 127
2, 77640, Note_on_c, 1, 59, 127
2, 77640, Note_on_c, 1, 68, 127
2, 78040, Note_off_c, 1, 50, 0
2, 78040, Note_off_c, 1, 59, 0
2, 78040, Note_off_c, 1, 68, 0
2, 78040, Note_off_c, 1, 74, 0
2, 78080, Note_on_c, 1, 50, 127
2, 78080, Note_on_c, 1, 57, 127
2, 78080, Note_on_c, 1, 66, 127
2, 78080, Note_on_c, 1, 74, 127
2, 78440, Note_off_c, 1, 50, 0
2, 78440, Note_off_c, 1, 57, 0
2, 78440, Note_on_c, 1, 64, 127
2, 78440, Note_off_c, 1, 66, 0
2, 78440, Note_on_c, 1, 71, 127
2, 78440, Note_off_c, 1, 74, 0
2, 78440, Note_on_c, 1, 83, 127
2, 78440, Note_on_c, 1, 90, 127
2, 78480, Note_on_c, 1, 50, 127
2, 78480, Note_on_c, 1, 58, 127
2, 78480, Note_on_c, 1, 62, 127
2, 78480, Note_off_c, 1, 64, 0
2, 78480, Note_on_c, 1, 67, 127
2, 78480, Note_off_c, 1, 71, 0
2, 78480, Note_on_c, 1, 73, 127
2, 78480, Note_on_c, 1, 76, 127
2, 78480, Note_off_c, 1, 83, 0
2, 78480, Note_off_c, 1, 90, 0
2, 78520, Note_on_c, 1, 43, 127
2, 78520, Note_off_c, 1, 50, 0
2, 78520, Note_on_c, 1, 55, 127
2, 78520, Note_off_c, 1, 58, 0
2, 78520, Note_on_c, 1, 59, 127
2, 78520, Note_off_c, 1, 62, 0
2, 78520, Note_on_c, 1, 71, 127
2, 78520, Note_off_c, 1, 73, 0
2, 78520, Note_off_c, 1, 76, 0
2, 78920, Note_off_c, 1, 43, 0
2, 78920, Note_off_c, 1, 55, 0
2, 78920, Note_off_c, 1, 59, 0
2, 78920, Note_off_c, 1, 67, 0
2, 78920, Note_off_c, 1, 71, 0
2, 79000, Note_on_c, 1, 36, 127
2, 79000, Note_on_c, 1, 39, 127
2, 79000, Note_on_c, 1, 44, 127
2, 79000, Note_on_c, 1, 48, 127
2, 79000, Note_on_c, 1, 75, 127
2, 79040, Note_off_c, 1, 36, 0
2, 79040, Note_off_c, 1, 39, 0
2, 79040, Note_off_c, 1, 44, 0
2, 79040, Note_on_c, 1, 45, 127
2, 79040, Note_off_c, 1, 48, 0
2, 79040, Note_on_c, 1, 66, 127
2, 79040, Note_on_c, 1, 69, 127
2, 79040, Note_off_c, 1, 75, 0
2, 79040, Note_on_c, 1, 81, 127
2, 79080, Note_off_c, 1, 45, 0
2, 79080, Note_on_c, 1, 59, 127
2, 79080, Note_off_c, 1, 66, 0
2, 79080, Note_on_c, 1, 67, 127
2, 79080, Note_off_c, 1, 69, 0
2, 79080, Note_on_c, 1, 77, 127
2, 79080, Note_off_c, 1, 81, 0
2, 79080, Note_on_c, 1, 87, 127
2, 79120, Note_off_c, 1, 59, 0
2, 79120, Note_on_c, 1, 62, 127
2, 79120, Note_off_c, 1, 67, 0
2, 79120, Note_on_c, 1, 69, 127
2, 79120, Note_on_c, 1, 72, 127
2, 79120, Note_off_c, 1, 77, 0
2, 79120, Note_on_c, 1, 78, 127
2, 79120, Note_on_c, 1, 84, 127
2, 79120, Note_off_c, 1, 87, 0
2, 79160, Note_on_c, 1, 45, 127
2, 79160, Note_on_c, 1, 48, 127
2, 79160, Note_on_c, 1, 53, 127
2, 79160, Note_on_c, 1, 57, 127
2, 79160, Note_off_c, 1, 62, 0
2, 79160, Note_off_c, 1, 69, 0
2, 79160, Note_off_c, 1, 78, 0
2, 79200, Note_off_c, 1, 45, 0
2, 79200, Note_off_c, 1, 48, 0
2, 79200, Note_on_c, 1, 51, 127
2, 79200, Note_off_c, 1, 53, 0
2, 79200, Note_off_c, 1, 57, 0
2, 79200, Note_on_c, 1, 62, 127
2, 79200, Note_on_c, 1, 67, 127
2, 79200, Note_on_c, 1, 71, 127
2, 79200, Note_off_c, 1, 72, 0
2, 79200, Note_on_c, 1, 74, 127
2, 79200, Note_off_c, 1, 84, 0
2, 79240, Note_on_c, 1, 31, 127
2, 79240, Note_on_c, 1, 43, 127
2, 79240, Note_on_c, 1, 60, 127
2, 79240, Note_off_c, 1, 62, 0
2, 79240, Note_off_c, 1, 67, 0
2, 79240, Note_off_c, 1, 71, 0
2, 79240, Note_off_c, 1, 74, 0
2, 79280, Note_off_c, 1, 31, 0
2, 79280, Note_off_c, 1, 43, 0
2, 79280, Note_on_c, 1, 50, 127
2, 79280, Note_off_c, 1, 51, 0
2, 79280, Note_off_c, 1, 60, 0
2, 79280, Note_on_c, 1, 62, 127
2, 79280, Note_on_c, 1, 67, 127
2, 79280, Note_on_c, 1, 71, 127
2, 79280, Note_on_c, 1, 74, 127
2, 79320, Note_on_c, 1, 29, 127
2, 79320, Note_on_c, 1, 41, 127
2, 79320, Note_off_c, 1, 50, 0
2, 79320, Note_on_c, 1, 60, 127
2, 79320, Note_off_c, 1, 62, 0
2, 79320, Note_on_c, 1, 65, 127
2, 79320, Note_off_c, 1, 67, 0
2, 79320, Note_on_c, 1, 69, 127
2, 79320, Note_off_c, 1, 71, 0
2, 79320, Note_on_c, 1, 72, 127
2, 79320, Note_off_c, 1, 74, 0
2, 79360, Note_off_c, 1, 29, 0
2, 79360, Note_off_c, 1, 41, 0
2, 79360, Note_off_c, 1, 60, 0
2, 79360, Note_on_c, 1, 62, 127
2, 79360, Note_off_c, 1, 65, 0
2, 79360, Note_off_c, 1, 69, 0
2, 79360, Note_off_c, 1, 72, 0
2, 79400, Note_on_c, 1, 41, 127
2, 79400, Note_on_c, 1, 61, 127
2, 79400, Note_off_c, 1, 62, 0
2, 79400, Note_on_c, 1, 67, 127
2, 79400, Note_on_c, 1, 70, 127
2, 79440, Note_off_c, 1, 41, 0
2, 79440, Note_on_c, 1, 56, 127
2, 79440, Note_off_c, 1, 61, 0
2, 79440, Note_on_c, 1, 62, 127
2, 79440, Note_on_c, 1, 64, 127
2, 79440, Note_off_c, 1, 67, 0
2, 79440, Note_off_c, 1, 70, 0
2, 79440, Note_on_c, 1, 71, 127
2, 79440, Note_on_c, 1, 74, 127
2, 79440, Note_on_c, 1, 80, 127
2, 79480, Note_off_c, 1, 56, 0
2, 79480, Note_off_c, 1, 62, 0
2, 79480, Note_off_c, 1, 64, 0
2, 79480, Note_on_c, 1, 73, 127
2, 79480, Note_off_c, 1, 74, 0
2, 79480, Note_on_c, 1, 77, 127
2, 79480, Note_on_c, 1, 96, 127
2, 79520, Note_on_c, 1, 35, 127
2, 79520, Note_on_c, 1, 58, 127
2, 79520, Note_on_c, 1, 61, 127
2, 79520, Note_on_c, 1, 66, 127
2, 79520, Note_on_c, 1, 70, 127
2, 79520, Note_off_c, 1, 71, 0
2, 79520, Note_off_c, 1, 77, 0
2, 79520, Note_off_c, 1, 80, 0
2, 79520, Note_off_c, 1, 96, 0
2, 79560, Note_off_c, 1, 35, 0
2, 79560, Note_off_c, 1, 58, 0
2, 79560, Note_on_c, 1, 59, 127
2, 79560, Note_off_c, 1, 61, 0
2, 79560, Note_on_c, 1, 65, 127
2, 79560, Note_off_c, 1, 66, 0
2, 79560, Note_on_c, 1, 67, 127
2, 79560, Note_off_c, 1, 70, 0
2, 79560, Note_on_c, 1, 71, 127
2, 79560, Note_off_c, 1, 73, 0
2, 79600, Note_on_c, 1, 52, 127
2, 79600, Note_on_c, 1, 55, 127
2, 79600, Note_off_c, 1, 59, 0
2, 79600, Note_on_c, 1, 60, 127
2, 79600, Note_on_c, 1, 64, 127
2, 79600, Note_off_c, 1, 65, 0
2, 79600, Note_off_c, 1, 67, 0
2, 79600, Note_off_c, 1, 71, 0
2, 79600, Note_on_c, 1, 72, 127
2, 79600, Note_on_c, 1, 76, 127
2, 79600, Note_on_c, 1, 79, 127
2, 79600, Note_on_c, 1, 84, 127
2, 79640, Note_on_c, 1, 40, 127
2, 79640, Note_off_c, 1, 52, 0
2, 79640, Note_off_c, 1, 55, 0
2, 79640, Note_on_c, 1, 57, 127
2, 79640, Note_off_c, 1, 60, 0
2, 79640, Note_on_c, 1, 62, 127
2, 79640, Note_off_c, 1, 64, 0
2, 79640, Note_on_c, 1, 71, 127
2, 79640, Note_off_c, 1, 72, 0
2, 79640, Note_off_c, 1, 76, 0
2, 79640, Note_off_c, 1, 79, 0
2, 79640, Note_off_c, 1, 84, 0
2, 79680, Note_off_c, 1, 40, 0
2, 79680, Note_on_c, 1, 51, 127
2, 79680, Note_on_c, 1, 53, 127
2, 79680, Note_off_c, 1, 57, 0
2, 79680, Note_on_c, 1, 60, 127
2, 79680, Note_off_c, 1, 62, 0
2, 79680, Note_on_c, 1, 64, 127
2, 79680, Note_off_c, 1, 71, 0
2, 79720, Note_on_c, 1, 40, 127
2, 79720, Note_off_c, 1, 51, 0
2, 79720, Note_off_c, 1, 53, 0
2, 79720, Note_off_c, 1, 60, 0
2, 79720, Note_on_c, 1, 62, 127
2, 79720, Note_off_c, 1, 64, 0
2, 79760, Note_off_c, 1, 40, 0
2, 79760, Note_on_c, 1, 53, 127
2, 79760, Note_on_c, 1, 57, 127
2, 79760, Note_off_c, 1, 62, 0
2, 79760, Note_on_c, 1, 64, 127
2, 79760, Note_on_c, 1, 69, 127
2, 79760, Note_on_c, 1, 72, 127
2, 79760, Note_on_c, 1, 76, 127
2, 79800, Note_on_c, 1, 47, 127
2, 79800, Note_on_c, 1, 50, 127
2, 79800, Note_off_c, 1, 53, 0
2, 79800, Note_on_c, 1, 54, 127
2, 79800, Note_off_c, 1, 57, 0
2, 79800, Note_on_c, 1, 59, 127
2, 79800, Note_on_c, 1, 62, 127
2, 79800, Note_off_c, 1, 64, 0
2, 79800, Note_on_c, 1, 66, 127
2, 79800, Note_off_c, 1, 69, 0
2, 79800, Note_off_c, 1, 72, 0
2, 79800, Note_on_c, 1, 74, 127
2, 79800, Note_off_c, 1, 76, 0
2, 79840, Note_on_c, 1, 38, 127
2, 79840, Note_off_c, 1, 47, 0
2, 79840, Note_off_c, 1, 54, 0
2, 79840, Note_on_c, 1, 57, 127
2, 79840, Note_off_c, 1, 59, 0
2, 79840, Note_off_c, 1, 62, 0
2, 79840, Note_on_c, 1, 69, 127
2, 79840, Note_off_c, 1, 74, 0
2, 80040, Note_on_c, 1, 33, 127
2, 80040, Note_off_c, 1, 38, 0
2, 80040, Note_on_c, 1, 45, 127
2, 80040, Note_off_c, 1, 50, 0
2, 80040, Note_on_c, 1, 53, 127
2, 80040, Note_off_c, 1, 57, 0
2, 80040, Note_on_c, 1, 65, 127
2, 80040, Note_off_c, 1, 66, 0
2, 80040, Note_off_c, 1, 69, 0
2, 80040, Note_on_c, 1, 73, 127
2, 80040, Note_on_c, 1, 81, 127
2, 80080, Note_off_c, 1, 33, 0
2, 80080, Note_on_c, 1, 35, 127
2, 80080, Note_off_c, 1, 45, 0
2, 80080, Note_on_c, 1, 47, 127
2, 80080, Note_off_c, 1, 53, 0
2, 80080, Note_on_c, 1, 57, 127
2, 80080, Note_off_c, 1, 65, 0
2, 80080, Note_on_c, 1, 66, 127
2, 80080, Note_off_c, 1, 73, 0
2, 80080, Note_off_c, 1, 81, 0
2, 80120, Note_off_c, 1, 35, 0
2, 80120, Note_off_c, 1, 47, 0
2, 80120, Note_on_c, 1, 50, 127
2, 80120, Note_off_c, 1, 57, 0
2, 80120, Note_off_c, 1, 66, 0
2, 80120, Note_on_c, 1, 84, 127
2, 80120, Note_on_c, 1, 93, 127
2, 80160, Note_on_c, 1, 47, 127
2, 80160, Note_off_c, 1, 50, 0
2, 80160, Note_on_c, 1, 71, 127
2, 80160, Note_on_c, 1, 75, 127
2, 80160, Note_on_c, 1, 78, 127
2, 80160, Note_on_c, 1, 81, 127
2, 80160, Note_off_c, 1, 84, 0
2, 80160, Note_off_c, 1, 93, 0
2, 80200, Note_off_c, 1, 47, 0
2, 80200, Note_off_c, 1, 71, 0
2, 80200, Note_off_c, 1, 75, 0
2, 80200, Note_off_c, 1, 78, 0
2, 80200, Note_off_c, 1, 81, 0
2, 80240, Note_on_c, 1, 43, 127
2, 80240, Note_on_c, 1, 51, 127
2, 80240, Note_on_c, 1, 55, 127
2, 80240, Note_on_c, 1, 58, 127
2, 80240, Note_on_c, 1, 70, 127
2, 80280, Note_off_c, 1, 43, 0
2, 80280, Note_off_c, 1, 51, 0
2, 80280, Note_on_c, 1, 53, 127
2, 80280, Note_off_c, 1, 55, 0
2, 80280, Note_on_c, 1, 65, 127
2, 80280, Note_on_c, 1, 67, 127
2, 80280, Note_on_c, 1, 74, 127
2, 80320, Note_on_c, 1, 48, 127
2, 80320, Note_off_c, 1, 53, 0
2, 80320, Note_off_c, 1, 58, 0
2, 80320, Note_on_c, 1, 59, 127
2, 80320, Note_on_c, 1, 62, 127
2, 80320, Note_off_c, 1, 70, 0
2, 80320, Note_off_c, 1, 74, 0
2, 80360, Note_on_c, 1, 34, 127
2, 80360, Note_on_c, 1, 41, 127
2, 80360, Note_on_c, 1, 44, 127
2, 80360, Note_off_c, 1, 48, 0
2, 80360, Note_on_c, 1, 53, 127
2, 80360, Note_on_c, 1, 56, 127
2, 80360, Note_on_c, 1, 58, 127
2, 80360, Note_off_c, 1, 59, 0
2, 80360, Note_off_c, 1, 62, 0
2, 80360, Note_off_c, 1, 65, 0
2, 80360, Note_off_c, 1, 67, 0
2, 80400, Note_off_c, 1, 34, 0
2, 80400, Note_on_c, 1, 36, 127
2, 80400, Note_off_c, 1, 41, 0
2, 80400, Note_off_c, 1, 44, 0
2, 80400, Note_on_c, 1, 48, 127
2, 80400, Note_off_c, 1, 53, 0
2, 80400, Note_off_c, 1, 56, 0
2, 80400, Note_on_c, 1, 57, 127
2, 80400, Note_off_c, 1, 58, 0
2, 80400, Note_on_c, 1, 64, 127
2, 80440, Note_off_c, 1, 36, 0
2, 80440, Note_on_c, 1, 40, 127
2, 80440, Note_off_c, 1, 48, 0
2, 80440, Note_on_c, 1, 54, 127
2, 80440, Note_on_c, 1, 55, 127
2, 80440, Note_off_c, 1, 57, 0
2, 80440, Note_on_c, 1, 62, 127
2, 80440, Note_off_c, 1, 64, 0
2, 80440, Note_on_c, 1, 67, 127
2, 80480, Note_on_c, 1, 38, 127
2, 80480, Note_off_c, 1, 40, 0
2, 80480, Note_off_c, 1, 54, 0
2, 80480, Note_off_c, 1, 55, 0
2, 80480, Note_off_c, 1, 62, 0
2, 80480, Note_off_c, 1, 67, 0
2, 80480, Note_on_c, 1, 74, 127
2, 80480, Note_on_c, 1, 78, 127
2, 80480, Note_on_c, 1, 86, 127
2, 80520, Note_off_c, 1, 38, 0
2, 80520, Note_on_c, 1, 56, 127
2, 80520, Note_on_c, 1, 61, 127
2, 80520, Note_on_c, 1, 64, 127
2, 80520, Note_on_c, 1, 67, 127
2, 80520, Note_on_c, 1, 70, 127
2, 80520, Note_on_c, 1, 71, 127
2, 80520, Note_off_c, 1, 74, 0
2, 80520, Note_off_c, 1, 78, 0
2, 80520, Note_off_c, 1, 86, 0
2, 80560, Note_on_c, 1, 40, 127
2, 80560, Note_on_c, 1, 54, 127
2, 80560, Note_on_c, 1, 55, 127
2, 80560, Note_off_c, 1, 56, 0
2, 80560, Note_off_c, 1, 61, 0
2, 80560, Note_on_c, 1, 62, 127
2, 80560, Note_off_c, 1, 64, 0
2, 80560, Note_off_c, 1, 70, 0
2, 80560, Note_off_c, 1, 71, 0
2, 80600, Note_off_c, 1, 40, 0
2, 80600, Note_off_c, 1, 54, 0
2, 80600, Note_off_c, 1, 55, 0
2, 80600, Note_off_c, 1, 67, 0
2, 80600, Note_on_c, 1, 69, 127
2, 80600, Note_on_c, 1, 74, 127
2, 80600, Note_on_c, 1, 83, 127
2, 80640, Note_off_c, 1, 62, 0
2, 80640, Note_off_c, 1, 69, 0
2, 80640, Note_off_c, 1, 74, 0
2, 80640, Note_off_c, 1, 83, 0
2, 80680, Note_on_c, 1, 36, 127
2, 80680, Note_on_c, 1, 43, 127
2, 80680, Note_on_c, 1, 48, 127
2, 80680, Note_on_c, 1, 52, 127
2, 80680, Note_on_c, 1, 60, 127
2, 81040, Note_off_c, 1, 36, 0
2, 81040, Note_off_c, 1, 43, 0
2, 81040, Note_off_c, 1, 48, 0
2, 81040, Note_off_c, 1, 52, 0
2, 81040, Note_off_c, 1, 60, 0
2, 81080, Note_on_c, 1, 36, 127
2, 81080, Note_on_c, 1, 43, 127
2, 81080, Note_on_c, 1, 48, 127
2, 81080, Note_on_c, 1, 52, 127
2, 81080, Note_on_c, 1, 60, 127
2, 81480, Note_off_c, 1, 36, 0
2, 81480, Note_off_c, 1, 43, 0
2, 81480, Note_off_c, 1, 48, 0
2, 81480, Note_off_c, 1, 52, 0
2, 81480, Note_off_c, 1, 60, 0
2, 81520, Note_on_c, 1, 67, 127
2, 81520, Note_on_c, 1, 71, 127
2, 81520, Note_on_c, 1, 74, 127
2, 81520, Note_on_c, 1, 79, 127
2, 81520, Note_on_c, 1, 83, 127
2, 81560, Note_off_c, 1, 67, 0
2, 81560, Note_off_c, 1, 71, 0
2, 81560, Note_off_c, 1, 74, 0
2, 81560, Note_off_c, 1, 79, 0
2, 81560, Note_off_c, 1, 83, 0
2, 81600, Note_on_c, 1, 67, 127
2, 81600, Note_on_c, 1, 71, 127
2, 81600, Note_on_c, 1, 74, 127
2, 81600, Note_on_c, 1, 79, 127
2, 81600, Note_on_c, 1, 83, 127
2, 81960, Note_off_c, 1, 67, 0
2, 81960, Note_off_c, 1, 71, 0
2, 81960, Note_off_c, 1, 74, 0
2, 81960, Note_off_c, 1, 79, 0
2, 81960, Note_off_c, 1, 83, 0
2, 82000, Note_on_c, 1, 49, 127
2, 82000, Note_on_c, 1, 54, 127
2, 82000, Note_on_c, 1, 76, 127
2, 82000, Note_on_c, 1, 78, 127
2, 82000, Note_on_c, 1, 82, 127
2, 82520, Note_off_c, 1, 82, 0
2, 82640, Note_on_c, 1, 85, 127
2, 82760, Note_off_c, 1, 49, 0
2, 82760, Note_off_c, 1, 54, 0
2, 82760, Note_off_c, 1, 76, 0
2, 82760, Note_off_c, 1, 78, 0
2, 82760, Note_off_c, 1, 85, 0
2, 82840, Note_on_c, 1, 46, 127
2, 82840, Note_on_c, 1, 58, 127
2, 82840, Note_on_c, 1, 74, 127
2, 82840, Note_on_c, 1, 77, 127
2, 82840, Note_on_c, 1, 82, 127
2, 82840, Note_on_c, 1, 86, 127
2, 83120, Note_off_c, 1, 46, 0
2, 83120, Note_off_c, 1, 58, 0
2, 83120, Note_off_c, 1, 74, 0
2, 83120, Note_off_c, 1, 77, 0
2, 83120, Note_off_c, 1, 82, 0
2, 83120, Note_off_c, 1, 86, 0
2, 83200, Note_on_c, 1, 46, 127
2, 83200, Note_on_c, 1, 58, 127
2, 83200, Note_on_c, 1, 63, 127
2, 83200, Note_on_c, 1, 66, 127
2, 83200, Note_on_c, 1, 69, 127
2, 83560, Note_off_c, 1, 46, 0
2, 83560, Note_off_c, 1, 58, 0
2, 83560, Note_off_c, 1, 63, 0
2, 83560, Note_off_c, 1, 66, 0
2, 83560, Note_off_c, 1, 69, 0
2, 83600, Note_on_c, 1, 59, 127
2, 83600, Note_on_c, 1, 68, 127
2, 83600, Note_on_c, 1, 71, 127
2, 83600, Note_on_c, 1, 88, 127
2, 83600, Note_on_c, 1, 100, 127
2, 83640, Note_on_c, 1, 58, 127
2, 83640, Note_off_c, 1, 59, 0
2, 83640, Note_on_c, 1, 63, 127
2, 83640, Note_on_c, 1, 66, 127
2, 83640, Note_off_c, 1, 68, 0
2, 83640, Note_off_c, 1, 71, 0
2, 83640, Note_on_c, 1, 83, 127
2, 83640, Note_on_c, 1, 87, 127
2, 83640, Note_off_c, 1, 88, 0
2, 83640, Note_on_c, 1, 90, 127
2, 83640, Note_off_c, 1, 100, 0
2, 83680, Note_on_c, 1, 32, 127
2, 83680, Note_on_c, 1, 44, 127
2, 83680, Note_off_c, 1, 58, 0
2, 83680, Note_on_c, 1, 59, 127
2, 83680, Note_off_c, 1, 63, 0
2, 83680, Note_off_c, 1, 66, 0
2, 83680, Note_on_c, 1, 68, 127
2, 83680, Note_off_c, 1, 83, 0
2, 83680, Note_off_c, 1, 87, 0
2, 83680, Note_off_c, 1, 90, 0
2, 83720, Note_off_c, 1, 32, 0
2, 83720, Note_off_c, 1, 44, 0
2, 83720, Note_on_c, 1, 58, 127
2, 83720, Note_off_c, 1, 59, 0
2, 83720, Note_on_c, 1, 63, 127
2, 83720, Note_on_c, 1, 66, 127
2, 83720, Note_off_c, 1, 68, 0
2, 83720, Note_on_c, 1, 83, 127
2, 83720, Note_on_c, 1, 87, 127
2, 83720, Note_on_c, 1, 90, 127
2, 83840, Note_on_c, 1, 57, 127
2, 83840, Note_off_c, 1, 58, 0
2, 83840, Note_on_c, 1, 60, 127
2, 83840, Note_off_c, 1, 63, 0
2, 83840, Note_on_c, 1, 65, 127
2, 83840, Note_off_c, 1, 66, 0
2, 83840, Note_on_c, 1, 69, 127
2, 83840, Note_off_c, 1, 87, 0
2, 83840, Note_off_c, 1, 90, 0
2, 83880, Note_on_c, 1, 50, 127
2, 83880, Note_off_c, 1, 57, 0
2, 83880, Note_on_c, 1, 58, 127
2, 83880, Note_off_c, 1, 60, 0
2, 83880, Note_on_c, 1, 64, 127
2, 83880, Note_off_c, 1, 65, 0
2, 83880, Note_on_c, 1, 67, 127
2, 83880, Note_off_c, 1, 69, 0
2, 83880, Note_on_c, 1, 74, 127
2, 83880, Note_on_c, 1, 76, 127
2, 83880, Note_on_c, 1, 82, 127
2, 83880, Note_off_c, 1, 83, 0
2, 83920, Note_off_c, 1, 50, 0
2, 83920, Note_off_c, 1, 58, 0
2, 83920, Note_off_c, 1, 64, 0
2, 83920, Note_off_c, 1, 67, 0
2, 83920, Note_off_c, 1, 74, 0
2, 83920, Note_off_c, 1, 76, 0
2, 83920, Note_off_c, 1, 82, 0
2, 83960, Note_on_c, 1, 77, 127
2, 83960, Note_on_c, 1, 79, 127
2, 83960, Note_on_c, 1, 82, 127
2, 83960, Note_on_c, 1, 86, 127
2, 84000, Note_off_c, 1, 77, 0
2, 84000, Note_off_c, 1, 79, 0
2, 84000, Note_off_c, 1, 82, 0
2, 84000, Note_off_c, 1, 86, 0
2, 84040, Note_on_c, 1, 55, 127
2, 84040, Note_on_c, 1, 71, 127
2, 84040, Note_on_c, 1, 77, 127
2, 84040, Note_on_c, 1, 83, 127
2, 84240, Note_on_c, 1, 31, 127
2, 84240, Note_on_c, 1, 43, 127
2, 84240, Note_off_c, 1, 55, 0
2, 84240, Note_off_c, 1, 71, 0
2, 84240, Note_on_c, 1, 74, 127
2, 84240, Note_on_c, 1, 79, 127
2, 84240, Note_on_c, 1, 86, 127
2, 84280, Note_off_c, 1, 31, 0
2, 84280, Note_off_c, 1, 43, 0
2, 84280, Note_on_c, 1, 55, 127
2, 84280, Note_on_c, 1, 71, 127
2, 84280, Note_off_c, 1, 74, 0
2, 84280, Note_off_c, 1, 79, 0
2, 84280, Note_off_c, 1, 86, 0
2, 84400, Note_off_c, 1, 55, 0
2, 84400, Note_off_c, 1, 71, 0
2, 84400, Note_off_c, 1, 77, 0
2, 84400, Note_off_c, 1, 83, 0
2, 84440, Note_on_c, 1, 50, 127
2, 84440, Note_on_c, 1, 59, 127
2, 84440, Note_on_c, 1, 65, 127
2, 84440, Note_on_c, 1, 67, 127
2, 84440, Note_on_c, 1, 74, 127
2, 84480, Note_on_c, 1, 36, 127
2, 84480, Note_on_c, 1, 48, 127
2, 84480, Note_off_c, 1, 50, 0
2, 84480, Note_off_c, 1, 59, 0
2, 84480, Note_off_c, 1, 65, 0
2, 84480, Note_off_c, 1, 67, 0
2, 84480, Note_off_c, 1, 74, 0
2, 84480, Note_on_c, 1, 79, 127
2, 84480, Note_on_c, 1, 82, 127
2, 84480, Note_on_c, 1, 84, 127
2, 84480, Note_on_c, 1, 88, 127
2, 84520, Note_off_c, 1, 36, 0
2, 84520, Note_off_c, 1, 48, 0
2, 84520, Note_off_c, 1, 79, 0
2, 84520, Note_off_c, 1, 82, 0
2, 84520, Note_off_c, 1, 84, 0
2, 84520, Note_off_c, 1, 88, 0
2, 84560, Note_on_c, 1, 41, 127
2, 84560, Note_on_c, 1, 48, 127
2, 84560, Note_on_c, 1, 55, 127
2, 84560, Note_on_c, 1, 58, 127
2, 84560, Note_on_c, 1, 64, 127
2, 84600, Note_off_c, 1, 41, 0
2, 84600, Note_off_c, 1, 48, 0
2, 84600, Note_on_c, 1, 49, 127
2, 84600, Note_on_c, 1, 57, 127
2, 84600, Note_off_c, 1, 58, 0
2, 84600, Note_on_c, 1, 63, 127
2, 84600, Note_off_c, 1, 64, 0
2, 84600, Note_on_c, 1, 67, 127
2, 84600, Note_on_c, 1, 79, 127
2, 84640, Note_on_c, 1, 47, 127
2, 84640, Note_off_c, 1, 49, 0
2, 84640, Note_on_c, 1, 54, 127
2, 84640, Note_off_c, 1, 55, 0
2, 84640, Note_off_c, 1, 57, 0
2, 84640, Note_off_c, 1, 63, 0
2, 84640, Note_off_c, 1, 67, 0
2, 84640, Note_on_c, 1, 75, 127
2, 84640, Note_on_c, 1, 78, 127
2, 84640, Note_off_c, 1, 79, 0
2, 84640, Note_on_c, 1, 88, 127
2, 84680, Note_on_c, 1, 41, 127
2, 84680, Note_on_c, 1, 46, 127
2, 84680, Note_off_c, 1, 47, 0
2, 84680, Note_on_c, 1, 50, 127
2, 84680, Note_off_c, 1, 54, 0
2, 84680, Note_off_c, 1, 75, 0
2, 84680, Note_off_c, 1, 88, 0
2, 84720, Note_off_c, 1, 41, 0
2, 84720, Note_off_c, 1, 46, 0
2, 84720, Note_off_c, 1, 50, 0
2, 84720, Note_on_c, 1, 67, 127
2, 84720, Note_on_c, 1, 68, 127
2, 84720, Note_on_c, 1, 73, 127
2, 84720, Note_on_c, 1, 77, 127
2, 84720, Note_off_c, 1, 78, 0
2, 84760, Note_on_c, 1, 61, 127
2, 84760, Note_on_c, 1, 64, 127
2, 84760, Note_off_c, 1, 67, 0
2, 84760, Note_off_c, 1, 68, 0
2, 84760, Note_on_c, 1, 70, 127
2, 84760, Note_off_c, 1, 73, 0
2, 84760, Note_on_c, 1, 89, 127
2, 84800, Note_on_c, 1, 38, 127
2, 84800, Note_on_c, 1, 50, 127
2, 84800, Note_on_c, 1, 53, 127
2, 84800, Note_on_c, 1, 58, 127
2, 84800, Note_off_c, 1, 61, 0
2, 84800, Note_off_c, 1, 70, 0
2, 84800, Note_off_c, 1, 77, 0
2, 84800, Note_off_c, 1, 89, 0
2, 84840, Note_off_c, 1, 38, 0
2, 84840, Note_off_c, 1, 50, 0
2, 84840, Note_off_c, 1, 53, 0
2, 84840, Note_off_c, 1, 58, 0
2, 84840, Note_off_c, 1, 64, 0
2, 84880, Note_on_c, 1, 44, 127
2, 84880, Note_on_c, 1, 56, 127
2, 84880, Note_on_c, 1, 80, 127
2, 84880, Note_on_c, 1, 84, 127
2, 84920, Note_on_c, 1, 41, 127
2, 84920, Note_off_c, 1, 44, 0
2, 84920, Note_on_c, 1, 49, 127
2, 84920, Note_on_c, 1, 53, 127
2, 84920, Note_off_c, 1, 56, 0
2, 84920, Note_on_c, 1, 70, 127
2, 84920, Note_off_c, 1, 80, 0
2, 84920, Note_off_c, 1, 84, 0
2, 84960, Note_off_c, 1, 41, 0
2, 84960, Note_on_c, 1, 44, 127
2, 84960, Note_off_c, 1, 49, 0
2, 84960, Note_off_c, 1, 53, 0
2, 84960, Note_on_c, 1, 56, 127
2, 84960, Note_off_c, 1, 70, 0
2, 86280, Note_on_c, 1, 72, 127
2, 86280, Note_on_c, 1, 77, 127
2, 86480, Note_off_c, 1, 44, 0
2, 86480, Note_off_c, 1, 56, 0
2, 86480, Note_off_c, 1, 72, 0
2, 86480, Note_off_c, 1, 77, 0
2, 86520, Note_on_c, 1, 44, 127
2, 86520, Note_on_c, 1, 56, 127
2, 86520, Note_on_c, 1, 72, 127
2, 86520, Note_on_c, 1, 77, 127
2, 86920, Note_off_c, 1, 44, 0
2, 86920, Note_off_c, 1, 56, 0
2, 86920, Note_off_c, 1, 72, 0
2, 86920, Note_off_c, 1, 77, 0
2, 86960, Note_on_c, 1, 52, 127
2, 86960, Note_on_c, 1, 64, 127
2, 86960, Note_on_c, 1, 70, 127
2, 86960, Note_on_c, 1, 80, 127
2, 88200, Note_off_c, 1, 52, 0
2, 88200, Note_off_c, 1, 64, 0
2, 88200, Note_off_c, 1, 70, 0
2, 88200, Note_off_c, 1, 80, 0
2, 88280, Note_on_c, 1, 33, 127
2, 88280, Note_on_c, 1, 36, 127
2, 88280, Note_on_c, 1, 57, 127
2, 88280, Note_on_c, 1, 60, 127
2, 88320, Note_off_c, 1, 33, 0
2, 88320, Note_off_c, 1, 36, 0
2, 88320, Note_on_c, 1, 43, 127
2, 88320, Note_off_c, 1, 57, 0
2, 88320, Note_off_c, 1, 60, 0
2, 88320, Note_on_c, 1, 67, 127
2, 88320, Note_on_c, 1, 79, 127
2, 89040, Note_off_c, 1, 67, 0
2, 89080, Note_on_c, 1, 37, 127
2, 89080, Note_off_c, 1, 43, 0
2, 89080, Note_on_c, 1, 49, 127
2, 89080, Note_on_c, 1, 54, 127
2, 89080, Note_on_c, 1, 57, 127
2, 89080, Note_on_c, 1, 61, 127
2, 89080, Note_on_c, 1, 66, 127
2, 89080, Note_on_c, 1, 69, 127
2, 89080, Note_on_c, 1, 73, 127
2, 89080, Note_off_c, 1, 79, 0
2, 89480, Note_off_c, 1, 37, 0
2, 89480, Note_off_c, 1, 49, 0
2, 89480, Note_off_c, 1, 54, 0
2, 89480, Note_off_c, 1, 57, 0
2, 89480, Note_on_c, 1, 59, 127
2, 89480, Note_off_c, 1, 61, 0
2, 89480, Note_off_c, 1, 66, 0
2, 89480, Note_off_c, 1, 69, 0
2, 89480, Note_on_c, 1, 71, 127
2, 89480, Note_off_c, 1, 73, 0
2, 89520, Note_off_c, 1, 59, 0
2, 89520, Note_on_c, 1, 60, 127
2, 89520, Note_on_c, 1, 61, 127
2, 89520, Note_off_c, 1, 71, 0
2, 89520, Note_on_c, 1, 73, 127
2, 89520, Note_on_c, 1, 77, 127
2, 89560, Note_on_c, 1, 34, 127
2, 89560, Note_on_c, 1, 46, 127
2, 89560, Note_off_c, 1, 60, 0
2, 89560, Note_off_c, 1, 61, 0
2, 89560, Note_off_c, 1, 73, 0
2, 89560, Note_on_c, 1, 76, 127
2, 89560, Note_off_c, 1, 77, 0
2, 89560, Note_on_c, 1, 83, 127
2, 89560, Note_on_c, 1, 88, 127
2, 89600, Note_off_c, 1, 34, 0
2, 89600, Note_off_c, 1, 46, 0
2, 89600, Note_on_c, 1, 60, 127
2, 89600, Note_on_c, 1, 61, 127
2, 89600, Note_on_c, 1, 73, 127
2, 89600, Note_off_c, 1, 76, 0
2, 89600, Note_on_c, 1, 77, 127
2, 89600, Note_off_c, 1, 83, 0
2, 89600, Note_off_c, 1, 88, 0
2, 89640, Note_on_c, 1, 49, 127
2, 89640, Note_on_c, 1, 56, 127
2, 89640, Note_off_c, 1, 60, 0
2, 89640, Note_off_c, 1, 61, 0
2, 89640, Note_on_c, 1, 64, 127
2, 89640, Note_on_c, 1, 71, 127
2, 89640, Note_off_c, 1, 73, 0
2, 89640, Note_off_c, 1, 77, 0
2, 89680, Note_off_c, 1, 49, 0
2, 89680, Note_off_c, 1, 56, 0
2, 89680, Note_on_c, 1, 58, 127
2, 89680, Note_off_c, 1, 64, 0
2, 89680, Note_off_c, 1, 71, 0
2, 89680, Note_on_c, 1, 74, 127
2, 89680, Note_on_c, 1, 85, 127
2, 89720, Note_on_c, 1, 39, 127
2, 89720, Note_on_c, 1, 48, 127
2, 89720, Note_on_c, 1, 51, 127
2, 89720, Note_off_c, 1, 58, 0
2, 89720, Note_off_c, 1, 74, 0
2, 89720, Note_on_c, 1, 79, 127
2, 89720, Note_on_c, 1, 84, 127
2, 89720, Note_off_c, 1, 85, 0
2, 89760, Note_off_c, 1, 39, 0
2, 89760, Note_on_c, 1, 46, 127
2, 89760, Note_off_c, 1, 48, 0
2, 89760, Note_off_c, 1, 51, 0
2, 89760, Note_on_c, 1, 68, 127
2, 89760, Note_on_c, 1, 77, 127
2, 89760, Note_off_c, 1, 79, 0
2, 89760, Note_on_c, 1, 83, 127
2, 89760, Note_off_c, 1, 84, 0
2, 89800, Note_off_c, 1, 46, 0
2, 89800, Note_on_c, 1, 58, 127
2, 89800, Note_on_c, 1, 65, 127
2, 89800, Note_off_c, 1, 68, 0
2, 89800, Note_off_c, 1, 77, 0
2, 89800, Note_on_c, 1, 81, 127
2, 89800, Note_off_c, 1, 83, 0
2, 89800, Note_on_c, 1, 84, 127
2, 89800, Note_on_c, 1, 89, 127
2, 89840, Note_on_c, 1, 50, 127
2, 89840, Note_on_c, 1, 56, 127
2, 89840, Note_off_c, 1, 65, 0
2, 89840, Note_on_c, 1, 68, 127
2, 89840, Note_on_c, 1, 80, 127
2, 89840, Note_off_c, 1, 81, 0
2, 89840, Note_off_c, 1, 84, 0
2, 89840, Note_off_c, 1, 89, 0
2, 89880, Note_off_c, 1, 50, 0
2, 89880, Note_off_c, 1, 56, 0
2, 89880, Note_off_c, 1, 58, 0
2, 89880, Note_off_c, 1, 68, 0
2, 89880, Note_off_c, 1, 80, 0
2, 89920, Note_on_c, 1, 55, 127
2, 89920, Note_on_c, 1, 58, 127
2, 89920, Note_on_c, 1, 70, 127
2, 89920, Note_on_c, 1, 73, 127
2, 89920, Note_on_c, 1, 82, 127
2, 89960, Note_on_c, 1, 54, 127
2, 89960, Note_off_c, 1, 55, 0
2, 89960, Note_off_c, 1, 58, 0
2, 89960, Note_on_c, 1, 66, 127
2, 89960, Note_off_c, 1, 70, 0
2, 89960, Note_off_c, 1, 73, 0
2, 89960, Note_on_c, 1, 76, 127
2, 89960, Note_on_c, 1, 78, 127
2, 89960, Note_on_c, 1, 85, 127
2, 90000, Note_on_c, 1, 47, 127
2, 90000, Note_on_c, 1, 51, 127
2, 90000, Note_off_c, 1, 54, 0
2, 90000, Note_on_c, 1, 56, 127
2, 90000, Note_off_c, 1, 66, 0
2, 90000, Note_on_c, 1, 75, 127
2, 90000, Note_off_c, 1, 76, 0
2, 90000, Note_off_c, 1, 78, 0
2, 90000, Note_off_c, 1, 82, 0
2, 90000, Note_off_c, 1, 85, 0
2, 90000, Note_on_c, 1, 87, 127
2, 90040, Note_on_c, 1, 37, 127
2, 90040, Note_on_c, 1, 41, 127
2, 90040, Note_off_c, 1, 47, 0
2, 90040, Note_on_c, 1, 49, 127
2, 90040, Note_off_c, 1, 51, 0
2, 90040, Note_off_c, 1, 56, 0
2, 90040, Note_on_c, 1, 66, 127
2, 90040, Note_off_c, 1, 75, 0
2, 90040, Note_on_c, 1, 78, 127
2, 90040, Note_off_c, 1, 87, 0
2, 90080, Note_off_c, 1, 37, 0
2, 90080, Note_off_c, 1, 41, 0
2, 90080, Note_on_c, 1, 46, 127
2, 90080, Note_on_c, 1, 48, 127
2, 90080, Note_off_c, 1, 49, 0
2, 90080, Note_on_c, 1, 52, 127
2, 90080, Note_on_c, 1, 60, 127
2, 90080, Note_on_c, 1, 64, 127
2, 90080, Note_off_c, 1, 66, 0
2, 90080, Note_on_c, 1, 72, 127
2, 90080, Note_off_c, 1, 78, 0
2, 90120, Note_off_c, 1, 46, 0
2, 90120, Note_off_c, 1, 48, 0
2, 90120, Note_off_c, 1, 52, 0
2, 90120, Note_on_c, 1, 54, 127
2, 90120, Note_off_c, 1, 60, 0
2, 90120, Note_off_c, 1, 64, 0
2, 90120, Note_on_c, 1, 66, 127
2, 90120, Note_off_c, 1, 72, 0
2, 90120, Note_on_c, 1, 76, 127
2, 90120, Note_on_c, 1, 78, 127
2, 90120, Note_on_c, 1, 82, 127
2, 90120, Note_on_c, 1, 85, 127
2, 90240, Note_off_c, 1, 54, 0
2, 90240, Note_off_c, 1, 66, 0
2, 90240, Note_off_c, 1, 76, 0
2, 90240, Note_off_c, 1, 78, 0
2, 90240, Note_off_c, 1, 82, 0
2, 90240, Note_off_c, 1, 85, 0
2, 90280, Note_on_c, 1, 54, 127
2, 90280, Note_on_c, 1, 66, 127
2, 90280, Note_on_c, 1, 76, 127
2, 90280, Note_on_c, 1, 78, 127
2, 90280, Note_on_c, 1, 82, 127
2, 90280, Note_on_c, 1, 85, 127
2, 90760, Note_off_c, 1, 54, 0
2, 90760, Note_on_c, 1, 57, 127
2, 90760, Note_off_c, 1, 66, 0
2, 90760, Note_off_c, 1, 76, 0
2, 90760, Note_off_c, 1, 78, 0
2, 90760, Note_on_c, 1, 81, 127
2, 90760, Note_off_c, 1, 82, 0
2, 90760, Note_off_c, 1, 85, 0
2, 90800, Note_on_c, 1, 62, 127
2, 90800, Note_on_c, 1, 66, 127
2, 90800, Note_on_c, 1, 74, 127
2, 90800, Note_on_c, 1, 78, 127
2, 90800, Note_off_c, 1, 81, 0
2, 91560, Note_on_c, 1, 61, 127
2, 91560, Note_off_c, 1, 62, 0
2, 91560, Note_off_c, 1, 66, 0
2, 91560, Note_off_c, 1, 74, 0
2, 91560, Note_on_c, 1, 76, 127
2, 91560, Note_off_c, 1, 78, 0
2, 91600, Note_off_c, 1, 57, 0
2, 91600, Note_off_c, 1, 61, 0
2, 91600, Note_on_c, 1, 73, 127
2, 91600, Note_off_c, 1, 76, 0
2, 91640, Note_on_c, 1, 46, 127
2, 91640, Note_on_c, 1, 55, 127
2, 91640, Note_on_c, 1, 70, 127
2, 91640, Note_off_c, 1, 73, 0
2, 92040, Note_off_c, 1, 55, 0
2, 92080, Note_on_c, 1, 44, 127
2, 92080, Note_off_c, 1, 46, 0
2, 92080, Note_on_c, 1, 62, 127
2, 92440, Note_off_c, 1, 44, 0
2, 92440, Note_off_c, 1, 70, 0
2, 92480, Note_off_c, 1, 62, 0
2, 92520, Note_on_c, 1, 36, 127
2, 92520, Note_on_c, 1, 48, 127
2, 92520, Note_on_c, 1, 69, 127
2, 92520, Note_on_c, 1, 77, 127
2, 92920, Note_off_c, 1, 77, 0
2, 92960, Note_off_c, 1, 48, 0
2, 92960, Note_on_c, 1, 52, 127
2, 92960, Note_on_c, 1, 67, 127
2, 92960, Note_off_c, 1, 69, 0
2, 92960, Note_on_c, 1, 74, 127
2, 93320, Note_off_c, 1, 52, 0
2, 93320, Note_off_c, 1, 67, 0
2, 93320, Note_off_c, 1, 74, 0
2, 93360, Note_off_c, 1, 36, 0
2, 93360, Note_on_c, 1, 41, 127
2, 93360, Note_on_c, 1, 48, 127
2, 93360, Note_on_c, 1, 60, 127
2, 93360, Note_on_c, 1, 65, 127
2, 93360, Note_on_c, 1, 69, 127
2, 94680, Note_off_c, 1, 41, 0
2, 94680, Note_off_c, 1, 48, 0
2, 94680, Note_off_c, 1, 60, 0
2, 94680, Note_off_c, 1, 65, 0
2, 94680, Note_off_c, 1, 69, 0
2, 94720, Note_on_c, 1, 41, 127
2, 94720, Note_on_c, 1, 48, 127
2, 94720, Note_on_c, 1, 60, 127
2, 94720, Note_on_c, 1, 65, 127
2, 94720, Note_on_c, 1, 69, 127
2, 95040, Note_off_c, 1, 41, 0
2, 95040, Note_off_c, 1, 48, 0
2, 95040, Note_off_c, 1, 60, 0
2, 95040, Note_off_c, 1, 65, 0
2, 95040, Note_off_c, 1, 69, 0
2, 95080, Note_on_c, 1, 41, 127
2, 95080, Note_on_c, 1, 53, 127
2, 95080, Note_on_c, 1, 60, 127
2, 95080, Note_on_c, 1, 65, 127
2, 95080, Note_on_c, 1, 69, 127
2, 95880, Note_on_c, 1, 48, 127
2, 95880, Note_off_c, 1, 53, 0
2, 95880, Note_on_c, 1, 57, 127
2, 95880, Note_off_c, 1, 60, 0
2, 95880, Note_off_c, 1, 69, 0
2, 96240, Note_off_c, 1, 57, 0
2, 96240, Note_off_c, 1, 65, 0
2, 96280, Note_on_c, 1, 72, 127
2, 96320, Note_off_c, 1, 41, 0
2, 96320, Note_off_c, 1, 48, 0
2, 96320, Note_off_c, 1, 72, 0
2, 96360, Note_on_c, 1, 41, 127
2, 96360, Note_on_c, 1, 69, 127
2, 96360, Note_on_c, 1, 72, 127
2, 96360, Note_on_c, 1, 77, 127
2, 96760, Note_off_c, 1, 41, 0
2, 96760, Note_on_c, 1, 48, 127
2, 97040, Note_off_c, 1, 48, 0
2, 97040, Note_off_c, 1, 69, 0
2, 97040, Note_off_c, 1, 72, 0
2, 97040, Note_off_c, 1, 77, 0
2, 97080, Note_on_c, 1, 48, 127
2, 97080, Note_on_c, 1, 69, 127
2, 97080, Note_on_c, 1, 72, 127
2, 97080, Note_on_c, 1, 77, 127
2, 97200, Note_off_c, 1, 69, 0
2, 97200, Note_off_c, 1, 72, 0
2, 97200, Note_off_c, 1, 77, 0
2, 97240, Note_on_c, 1, 59, 127
2, 97240, Note_on_c, 1, 62, 127
2, 97240, Note_on_c, 1, 65, 127
2, 97640, Note_off_c, 1, 48, 0
2, 97640, Note_off_c, 1, 59, 0
2, 97640, Note_off_c, 1, 62, 0
2, 97640, Note_off_c, 1, 65, 0
2, 97680, Note_on_c, 1, 49, 127
2, 97680, Note_on_c, 1, 52, 127
2, 97680, Note_on_c, 1, 54, 127
2, 97680, Note_on_c, 1, 61, 127
2, 97680, Note_on_c, 1, 73, 127
2, 98040, Note_off_c, 1, 49, 0
2, 98040, Note_off_c, 1, 52, 0
2, 98040, Note_off_c, 1, 54, 0
2, 98040, Note_off_c, 1, 61, 0
2, 98040, Note_off_c, 1, 73, 0
2, 98080, Note_on_c, 1, 47, 127
2, 98080, Note_on_c, 1, 54, 127
2, 98080, Note_on_c, 1, 59, 127
2, 98080, Note_on_c, 1, 69, 127
2, 98080, Note_on_c, 1, 75, 127
2, 98080, Note_on_c, 1, 81, 127
2, 98480, Note_off_c, 1, 47, 0
2, 98480, Note_off_c, 1, 54, 0
2, 98480, Note_off_c, 1, 59, 0
2, 98480, Note_off_c, 1, 69, 0
2, 98480, Note_off_c, 1, 75, 0
2, 98480, Note_off_c, 1, 81, 0
2, 98520, Note_on_c, 1, 29, 127
2, 98520, Note_on_c, 1, 41, 127
2, 98520, Note_on_c, 1, 57, 127
2, 98520, Note_on_c, 1, 65, 127
2, 98520, Note_on_c, 1, 69, 127
2, 99320, Note_off_c, 1, 29, 0
2, 99320, Note_off_c, 1, 41, 0
2, 99320, Note_off_c, 1, 57, 0
2, 99320, Note_off_c, 1, 65, 0
2, 99320, Note_off_c, 1, 69, 0
2, 99360, Note_on_c, 1, 38, 127
2, 99360, Note_on_c, 1, 45, 127
2, 99360, Note_on_c, 1, 57, 127
2, 99360, Note_on_c, 1, 62, 127
2, 99360, Note_on_c, 1, 69, 127
2, 99480, Note_off_c, 1, 38, 0
2, 99480, Note_off_c, 1, 45, 0
2, 99480, Note_off_c, 1, 57, 0
2, 99480, Note_off_c, 1, 62, 0
2, 99480, Note_off_c, 1, 69, 0
2, 99520, Note_on_c, 1, 38, 127
2, 99520, Note_on_c, 1, 45, 127
2, 99520, Note_on_c, 1, 57, 127
2, 99520, Note_on_c, 1, 62, 127
2, 99520, Note_on_c, 1, 69, 127
2, 99800, Note_off_c, 1, 45, 0
2, 99840, Note_on_c, 1, 45, 127
2, 100200, Note_off_c, 1, 38, 0
2, 100200, Note_off_c, 1, 45, 0
2, 100200, Note_off_c, 1, 57, 0
2, 100200, Note_off_c, 1, 62, 0
2, 100200, Note_off_c, 1, 69, 0
2, 100240, Note_on_c, 1, 38, 127
2, 100240, Note_on_c, 1, 45, 127
2, 100240, Note_on_c, 1, 57, 127
2, 100240, Note_on_c, 1, 62, 127
2, 100240, Note_on_c, 1, 69, 127
2, 100960, Note_off_c, 1, 45, 0
2, 101040, Note_off_c, 1, 38, 0
2, 101040, Note_on_c, 1, 47, 127
2, 101040, Note_off_c, 1, 57, 0
2, 101040, Note_on_c, 1, 59, 127
2, 101040, Note_off_c, 1, 62, 0
2, 101040, Note_off_c, 1, 69, 0
2, 101080, Note_on_c, 1, 42, 127
2, 101080, Note_off_c, 1, 47, 0
2, 101080, Note_off_c, 1, 59, 0
2, 101080, Note_on_c, 1, 65, 127
2, 101080, Note_on_c, 1, 77, 127
2, 101440, Note_off_c, 1, 65, 0
2, 101440, Note_off_c, 1, 77, 0
2, 101480, Note_on_c, 1, 65, 127
2, 101480, Note_on_c, 1, 77, 127
2, 101560, Note_on_c, 1, 49, 127
2, 101600, Note_off_c, 1, 49, 0
2, 101640, Note_off_c, 1, 42, 0
2, 101640, Note_off_c, 1, 65, 0
2, 101640, Note_off_c, 1, 77, 0
2, 101680, Note_on_c, 1, 42, 127
2, 101680, Note_on_c, 1, 65, 127
2, 101720, Note_on_c, 1, 73, 127
2, 101840, Note_off_c, 1, 73, 0
2, 101920, Note_off_c, 1, 42, 0
2, 101920, Note_on_c, 1, 54, 127
2, 101920, Note_on_c, 1, 59, 127
2, 101920, Note_on_c, 1, 85, 127
2, 102160, Note_on_c, 1, 49, 127
2, 102160, Note_on_c, 1, 52, 127
2, 102160, Note_off_c, 1, 54, 0
2, 102160, Note_off_c, 1, 59, 0
2, 102160, Note_on_c, 1, 61, 127
2, 102160, Note_off_c, 1, 65, 0
2, 102160, Note_on_c, 1, 73, 127
2, 102160, Note_off_c, 1, 85, 0
2, 102240, Note_on_c, 1, 39, 127
2, 102240, Note_off_c, 1, 49, 0
2, 102240, Note_on_c, 1, 51, 127
2, 102240, Note_off_c, 1, 52, 0
2, 102240, Note_off_c, 1, 61, 0
2, 102240, Note_off_c, 1, 73, 0
2, 102240, Note_on_c, 1, 80, 127
2, 102240, Note_on_c, 1, 83, 127
2, 102280, Note_on_c, 1, 29, 127
2, 102280, Note_off_c, 1, 39, 0
2, 102280, Note_on_c, 1, 53, 127
2, 102280, Note_off_c, 1, 80, 0
2, 102280, Note_off_c, 1, 83, 0
2, 102320, Note_off_c, 1, 29, 0
2, 102320, Note_on_c, 1, 35, 127
2, 102320, Note_on_c, 1, 41, 127
2, 102320, Note_on_c, 1, 47, 127
2, 102320, Note_off_c, 1, 51, 0
2, 102320, Note_off_c, 1, 53, 0
2, 102320, Note_on_c, 1, 74, 127
2, 102320, Note_on_c, 1, 77, 127
2, 102360, Note_off_c, 1, 35, 0
2, 102360, Note_off_c, 1, 41, 0
2, 102360, Note_off_c, 1, 47, 0
2, 102360, Note_on_c, 1, 49, 127
2, 102360, Note_on_c, 1, 52, 127
2, 102360, Note_on_c, 1, 61, 127
2, 102360, Note_on_c, 1, 73, 127
2, 102360, Note_off_c, 1, 74, 0
2, 102360, Note_off_c, 1, 77, 0
2, 104160, Note_off_c, 1, 49, 0
2, 104160, Note_off_c, 1, 52, 0
2, 104160, Note_off_c, 1, 61, 0
2, 104160, Note_off_c, 1, 73, 0
2, 104200, Note_on_c, 1, 49, 127
2, 104200, Note_on_c, 1, 52, 127
2, 104200, Note_on_c, 1, 61, 127
2, 104200, Note_on_c, 1, 73, 127
2, 106360, Note_off_c, 1, 49, 0
2, 106360, Note_off_c, 1, 52, 0
2, 106360, Note_off_c, 1, 61, 0
2, 106360, Note_off_c, 1, 73, 0
2, 106400, Note_on_c, 1, 66, 127
2, 106400, Note_on_c, 1, 70, 127
2, 106400, Note_on_c, 1, 78, 127
2, 106560, Note_off_c, 1, 66, 0
2, 106560, Note_off_c, 1, 70, 0
2, 106560, Note_off_c, 1, 78, 0
2, 106600, Note_on_c, 1, 66, 127
2, 106600, Note_on_c, 1, 70, 127
2, 106600, Note_on_c, 1, 78, 127
2, 108800, Note_on_c, 1, 63, 127
2, 108800, Note_off_c, 1, 66, 0
2, 108800, Note_off_c, 1, 70, 0
2, 108840, Note_off_c, 1, 63, 0
2, 108840, Note_off_c, 1, 78, 0
2, 108880, Note_on_c, 1, 63, 127
2, 108880, Note_on_c, 1, 78, 127
2, 109280, Note_off_c, 1, 78, 0
2, 109320, Note_on_c, 1, 78, 127
2, 110120, Note_on_c, 1, 59, 127
2, 110120, Note_off_c, 1, 63, 0
2, 110120, Note_off_c, 1, 78, 0
2, 110120, Note_on_c, 1, 79, 127
2, 110160, Note_off_c, 1, 59, 0
2, 110160, Note_off_c, 1, 79, 0
2, 110200, Note_on_c, 1, 61, 127
2, 110200, Note_on_c, 1, 76, 127
2, 110960, Note_off_c, 1, 61, 0
2, 110960, Note_off_c, 1, 76, 0
2, 111000, Note_on_c, 1, 61, 127
2, 111000, Note_on_c, 1, 76, 127
2, 111280, Note_off_c, 1, 61, 0
2, 111280, Note_on_c, 1, 63, 127
2, 111280, Note_off_c, 1, 76, 0
2, 111280, Note_on_c, 1, 78, 127
2, 111960, Note_on_c, 1, 61, 127
2, 111960, Note_off_c, 1, 63, 0
2, 111960, Note_off_c, 1, 78, 0
2, 112000, Note_on_c, 1, 70, 127
2, 112200, Note_on_c, 1, 59, 127
2, 112200, Note_off_c, 1, 61, 0
2, 112200, Note_off_c, 1, 70, 0
2, 112200, Note_on_c, 1, 77, 127
2, 112440, Note_off_c, 1, 59, 0
2, 112440, Note_on_c, 1, 63, 127
2, 112440, Note_off_c, 1, 77, 0
2, 112440, Note_on_c, 1, 78, 127
2, 113000, Note_off_c, 1, 63, 0
2, 113000, Note_off_c, 1, 78, 0
2, 113040, Note_on_c, 1, 63, 127
2, 113040, Note_on_c, 1, 78, 127
2, 113320, Note_off_c, 1, 63, 0
2, 113320, Note_off_c, 1, 78, 0
2, 113360, Note_on_c, 1, 58, 127
2, 113360, Note_on_c, 1, 73, 127
2, 113600, Note_off_c, 1, 58, 0
2, 113600, Note_on_c, 1, 61, 127
2, 113600, Note_on_c, 1, 70, 127
2, 113600, Note_off_c, 1, 73, 0
2, 114960, Note_on_c, 1, 54, 127
2, 114960, Note_off_c, 1, 61, 0
2, 115000, Note_off_c, 1, 54, 0
2, 115000, Note_off_c, 1, 70, 0
2, 115040, Note_on_c, 1, 61, 127
2, 115040, Note_on_c, 1, 70, 127
2, 116680, Note_off_c, 1, 61, 0
2, 116680, Note_on_c, 1, 62, 127
2, 116680, Note_on_c, 1, 65, 127
2, 116680, Note_off_c, 1, 70, 0
2, 116800, Note_off_c, 1, 62, 0
2, 116800, Note_on_c, 1, 63, 127
2, 116800, Note_off_c, 1, 65, 0
2, 116800, Note_on_c, 1, 66, 127
2, 116840, Note_on_c, 1, 62, 127
2, 116840, Note_off_c, 1, 63, 0
2, 116840, Note_on_c, 1, 65, 127
2, 116840, Note_off_c, 1, 66, 0
2, 116880, Note_off_c, 1, 62, 0
2, 116880, Note_off_c, 1, 65, 0
2, 116920, Note_on_c, 1, 65, 127
2, 116920, Note_on_c, 1, 74, 127
2, 116960, Note_on_c, 1, 63, 127
2, 116960, Note_off_c, 1, 65, 0
2, 116960, Note_off_c, 1, 74, 0
2, 116960, Note_on_c, 1, 78, 127
2, 117160, Note_on_c, 1, 58, 127
2, 117160, Note_off_c, 1, 63, 0
2, 117200, Note_off_c, 1, 58, 0
2, 117200, Note_on_c, 1, 61, 127
2, 117200, Note_on_c, 1, 70, 127
2, 117200, Note_off_c, 1, 78, 0
2, 117680, Note_on_c, 1, 60, 127
2, 117680, Note_off_c, 1, 61, 0
2, 117680, Note_on_c, 1, 69, 127
2, 117680, Note_off_c, 1, 70, 0
2, 117880, Note_on_c, 1, 54, 127
2, 117880, Note_off_c, 1, 69, 0
2, 117920, Note_off_c, 1, 54, 0
2, 117920, Note_off_c, 1, 60, 0
2, 117920, Note_on_c, 1, 61, 127
2, 117920, Note_on_c, 1, 70, 127
2, 118840, Note_off_c, 1, 61, 0
2, 118840, Note_off_c, 1, 70, 0
2, 118920, Note_on_c, 1, 61, 127
2, 118920, Note_on_c, 1, 70, 127
2, 119360, Note_on_c, 1, 60, 127
2, 119360, Note_off_c, 1, 61, 0
2, 119360, Note_on_c, 1, 69, 127
2, 119360, Note_off_c, 1, 70, 0
2, 120000, Note_off_c, 1, 60, 0
2, 120000, Note_off_c, 1, 69, 0
2, 120040, End_track
3, 0, Start_track
3, 0, Title_t, "MIDI"
3, 1536, End_track
0, 0, End_of_file
