0, 0, Header, 1, 3, 192
1, 0, Start_track
1, 0, Time_signature, 4, 2, 24, 8
1, 0, Tempo, 500000
1, 120040, End_track
2, 0, Start_track
2, 0, Text_t, "random instrument: random person i dunno whatev"
2, 0, Title_t, "Track 1"
2, 0, Note_on_c, 1, 40, 127
2, 0, Note_on_c, 1, 48, 127
2, 0, Note_on_c, 1, 56, 127
2, 0, Note_on_c, 1, 60, 127
2, 40, Note_off_c, 1, 40, 0
2, 40, Note_off_c, 1, 48, 0
2, 40, Note_on_c, 1, 55, 127
2, 40, Note_off_c, 1, 56, 0
2, 40, Note_off_c, 1, 60, 0
2, 40, Note_on_c, 1, 72, 127
2, 40, Note_on_c, 1, 75, 127
2, 40, Note_on_c, 1, 79, 127
2, 40, Note_on_c, 1, 84, 127
2, 80, Note_off_c, 1, 55, 0
2, 80, Note_off_c, 1, 72, 0
2, 80, Note_off_c, 1, 75, 0
2, 80, Note_off_c, 1, 79, 0
2, 80, Note_off_c, 1, 84, 0
2, 120, Note_on_c, 1, 50, 127
2, 120, Note_on_c, 1, 59, 127
2, 120, Note_on_c, 1, 62, 127
2, 120, Note_on_c, 1, 78, 127
2, 160, Note_off_c, 1, 50, 0
2, 160, Note_off_c, 1, 59, 0
2, 160, Note_on_c, 1, 60, 127
2, 160, Note_off_c, 1, 62, 0
2, 160, Note_on_c, 1, 66, 127
2, 160, Note_on_c, 1, 68, 127
2, 160, Note_off_c, 1, 78, 0
2, 160, Note_on_c, 1, 90, 127
2, 200, Note_on_c, 1, 35, 127
2, 200, Note_on_c, 1, 39, 127
2, 200, Note_on_c, 1, 47, 127
2, 200, Note_on_c, 1, 50, 127
2, 200, Note_off_c, 1, 60, 0
2, 200, Note_off_c, 1, 66, 0
2, 200, Note_off_c, 1, 68, 0
2, 200, Note_off_c, 1, 90, 0
2, 240, Note_off_c, 1, 35, 0
2, 240, Note_off_c, 1, 39, 0
2, 240, Note_off_c, 1, 47, 0
2, 240, Note_off_c, 1, 50, 0
2, 240, Note_on_c, 1, 51, 127
2, 240, Note_on_c, 1, 55, 127
2, 240, Note_on_c, 1, 58, 127
2, 240, Note_on_c, 1, 63, 127
2, 240, Note_on_c, 1, 82, 127
2, 240, Note_on_c, 1, 91, 127
2, 280, Note_off_c, 1, 51, 0
2, 280, Note_off_c, 1, 55, 0
2, 280, Note_off_c, 1, 58, 0
2, 280, Note_off_c, 1, 63, 0
2, 280, Note_on_c, 1, 76, 127
2, 280, Note_on_c, 1, 80, 127
2, 280, Note_off_c, 1, 82, 0
2, 280, Note_on_c, 1, 83, 127
2, 280, Note_on_c, 1, 89, 127
2, 280, Note_off_c, 1, 91, 0
2, 320, Note_on_c, 1, 58, 127
2, 320, Note_on_c, 1, 63, 127
2, 320, Note_on_c, 1, 66, 127
2, 320, Note_on_c, 1, 72, 127
2, 320, Note_on_c, 1, 75, 127
2, 320, Note_off_c, 1, 76, 0
2, 320, Note_off_c, 1, 80, 0
2, 320, Note_on_c, 1, 82, 127
2, 320, Note_off_c, 1, 83, 0
2, 320, Note_on_c, 1, 87, 127
2, 320, Note_off_c, 1, 89, 0
2, 360, Note_on_c, 1, 57, 127
2, 360, Note_off_c, 1, 58, 0
2, 360, Note_on_c, 1, 62, 127
2, 360, Note_off_c, 1, 63, 0
2, 360, Note_off_c, 1, 66, 0
2, 360, Note_off_c, 1, 72, 0
2, 360, Note_off_c, 1, 75, 0
2, 360, Note_off_c, 1, 82, 0
2, 360, Note_off_c, 1, 87, 0
2, 400, Note_off_c, 1, 57, 0
2, 400, Note_on_c, 1, 60, 127
2, 400, Note_off_c, 1, 62, 0
2, 400, Note_on_c, 1, 85, 127
2, 400, Note_on_c, 1, 88, 127
2, 440, Note_on_c, 1, 50, 127
2, 440, Note_on_c, 1, 57, 127
2, 440, Note_off_c, 1, 60, 0
2, 440, Note_on_c, 1, 65, 127
2, 440, Note_off_c, 1, 85, 0
2, 440, Note_off_c, 1, 88, 0
2, 440, Note_on_c, 1, 93, 127
2, 800, Note_off_c, 1, 50, 0
2, 800, Note_off_c, 1, 57, 0
2, 800, Note_off_c, 1, 65, 0
2, 800, Note_off_c, 1, 93, 0
2, 1440, Note_on_c, 1, 44, 127
2, 1440, Note_on_c, 1, 56, 127
2, 1440, Note_on_c, 1, 72, 127
2, 1440, Note_on_c, 1, 80, 127
2, 2000, Note_off_c, 1, 44, 0
2, 2000, Note_off_c, 1, 56, 0
2, 2000, Note_off_c, 1, 72, 0
2, 2000, Note_off_c, 1, 80, 0
2, 2240, Note_on_c, 1, 32, 127
2, 2240, Note_on_c, 1, 44, 127
2, 2240, Note_on_c, 1, 56, 127
2, 2440, Note_off_c, 1, 32, 0
2, 2440, Note_off_c, 1, 44, 0
2, 2440, Note_off_c, 1, 56, 0
2, 5240, Note_on_c, 1, 43, 127
2, 5240, Note_on_c, 1, 50, 127
2, 5240, Note_on_c, 1, 60, 127
2, 5240, Note_on_c, 1, 62, 127
2, 5240, Note_on_c, 1, 69, 127
2, 5480, Note_off_c, 1, 43, 0
2, 5480, Note_off_c, 1, 50, 0
2, 5480, Note_off_c, 1, 60, 0
2, 5480, Note_off_c, 1, 62, 0
2, 5480, Note_off_c, 1, 69, 0
2, 5800, Note_on_c, 1, 52, 127
2, 5800, Note_on_c, 1, 55, 127
2, 5800, Note_on_c, 1, 58, 127
2, 5800, Note_on_c, 1, 61, 127
2, 5800, Note_on_c, 1, 70, 127
2, 5960, Note_off_c, 1, 52, 0
2, 5960, Note_off_c, 1, 55, 0
2, 5960, Note_off_c, 1, 58, 0
2, 5960, Note_off_c, 1, 61, 0
2, 5960, Note_off_c, 1, 70, 0
2, 6120, Note_on_c, 1, 47, 127
2, 6120, Note_on_c, 1, 56, 127
2, 6120, Note_on_c, 1, 64, 127
2, 6120, Note_on_c, 1, 70, 127
2, 6160, Note_off_c, 1, 47, 0
2, 6160, Note_off_c, 1, 56, 0
2, 6160, Note_off_c, 1, 64, 0
2, 6160, Note_off_c, 1, 70, 0
2, 6200, Note_on_c, 1, 42, 127
2, 6200, Note_on_c, 1, 52, 127
2, 6200, Note_on_c, 1, 59, 127
2, 6200, Note_on_c, 1, 64, 127
2, 6240, Note_off_c, 1, 42, 0
2, 6240, Note_off_c, 1, 52, 0
2, 6240, Note_off_c, 1, 59, 0
2, 6240, Note_off_c, 1, 64, 0
2, 6240, Note_on_c, 1, 67, 127
2, 6240, Note_on_c, 1, 70, 127
2, 6240, Note_on_c, 1, 84, 127
2, 6240, Note_on_c, 1, 87, 127
2, 6240, Note_on_c, 1, 93, 127
2, 6280, Note_on_c, 1, 55, 127
2, 6280, Note_on_c, 1, 61, 127
2, 6280, Note_on_c, 1, 64, 127
2, 6280, Note_off_c, 1, 67, 0
2, 6280, Note_on_c, 1, 69, 127
2, 6280, Note_off_c, 1, 70, 0
2, 6280, Note_off_c, 1, 84, 0
2, 6280, Note_on_c, 1, 85, 127
2, 6280, Note_off_c, 1, 87, 0
2, 6280, Note_off_c, 1, 93, 0
2, 6320, Note_on_c, 1, 41, 127
2, 6320, Note_on_c, 1, 48, 127
2, 6320, Note_off_c, 1, 55, 0
2, 6320, Note_on_c, 1, 56, 127
2, 6320, Note_off_c, 1, 61, 0
2, 6320, Note_off_c, 1, 64, 0
2, 6320, Note_off_c, 1, 69, 0
2, 6320, Note_on_c, 1, 77, 127
2, 6320, Note_on_c, 1, 84, 127
2, 6320, Note_off_c, 1, 85, 0
2, 6320, Note_on_c, 1, 92, 127
2, 6360, Note_off_c, 1, 41, 0
2, 6360, Note_off_c, 1, 48, 0
2, 6360, Note_off_c, 1, 56, 0
2, 6360, Note_off_c, 1, 77, 0
2, 6360, Note_off_c, 1, 84, 0
2, 6360, Note_off_c, 1, 92, 0
2, 6400, Note_on_c, 1, 46, 127
2, 6400, Note_on_c, 1, 54, 127
2, 6400, Note_on_c, 1, 59, 127
2, 6440, Note_off_c, 1, 46, 0
2, 6440, Note_off_c, 1, 54, 0
2, 6440, Note_off_c, 1, 59, 0
2, 6600, Note_on_c, 1, 41, 127
2, 6600, Note_on_c, 1, 53, 127
2, 6600, Note_on_c, 1, 56, 127
2, 6600, Note_on_c, 1, 73, 127
2, 6600, Note_on_c, 1, 80, 127
2, 6840, Note_off_c, 1, 41, 0
2, 6840, Note_off_c, 1, 53, 0
2, 6840, Note_off_c, 1, 56, 0
2, 6840, Note_off_c, 1, 73, 0
2, 6840, Note_off_c, 1, 80, 0
2, 6880, Note_on_c, 1, 42, 127
2, 6880, Note_on_c, 1, 54, 127
2, 6880, Note_on_c, 1, 58, 127
2, 6880, Note_on_c, 1, 61, 127
2, 6880, Note_on_c, 1, 66, 127
2, 6880, Note_on_c, 1, 70, 127
2, 7040, Note_off_c, 1, 42, 0
2, 7040, Note_off_c, 1, 54, 0
2, 7040, Note_off_c, 1, 58, 0
2, 7040, Note_off_c, 1, 61, 0
2, 7040, Note_off_c, 1, 66, 0
2, 7040, Note_off_c, 1, 70, 0
2, 7080, Note_on_c, 1, 58, 127
2, 7080, Note_on_c, 1, 61, 127
2, 7080, Note_on_c, 1, 68, 127
2, 7080, Note_on_c, 1, 75, 127
2, 7160, Note_off_c, 1, 58, 0
2, 7160, Note_off_c, 1, 61, 0
2, 7160, Note_off_c, 1, 68, 0
2, 7160, Note_off_c, 1, 75, 0
2, 7240, Note_on_c, 1, 58, 127
2, 7240, Note_on_c, 1, 61, 127
2, 7240, Note_on_c, 1, 68, 127
2, 7240, Note_on_c, 1, 75, 127
2, 7480, Note_off_c, 1, 58, 0
2, 7480, Note_off_c, 1, 61, 0
2, 7480, Note_off_c, 1, 68, 0
2, 7480, Note_off_c, 1, 75, 0
2, 7520, Note_on_c, 1, 56, 127
2, 7520, Note_on_c, 1, 60, 127
2, 7520, Note_on_c, 1, 63, 127
2, 7520, Note_on_c, 1, 68, 127
2, 7520, Note_on_c, 1, 72, 127
2, 7520, Note_on_c, 1, 75, 127
2, 8080, Note_off_c, 1, 56, 0
2, 8080, Note_off_c, 1, 60, 0
2, 8080, Note_off_c, 1, 63, 0
2, 8080, Note_off_c, 1, 68, 0
2, 8080, Note_off_c, 1, 72, 0
2, 8080, Note_off_c, 1, 75, 0
2, 8120, Note_on_c, 1, 40, 127
2, 8120, Note_on_c, 1, 52, 127
2, 8120, Note_on_c, 1, 58, 127
2, 8120, Note_on_c, 1, 70, 127
2, 8360, Note_off_c, 1, 40, 0
2, 8360, Note_off_c, 1, 52, 0
2, 8360, Note_off_c, 1, 58, 0
2, 8360, Note_off_c, 1, 70, 0
2, 8400, Note_on_c, 1, 48, 127
2, 8400, Note_on_c, 1, 64, 127
2, 8400, Note_on_c, 1, 69, 127
2, 8400, Note_on_c, 1, 73, 127
2, 8440, Note_off_c, 1, 48, 0
2, 8600, Note_on_c, 1, 45, 127
2, 8600, Note_on_c, 1, 48, 127
2, 8600, Note_off_c, 1, 64, 0
2, 8600, Note_on_c, 1, 65, 127
2, 8600, Note_off_c, 1, 69, 0
2, 8600, Note_off_c, 1, 73, 0
2, 8600, Note_on_c, 1, 75, 127
2, 8640, Note_off_c, 1, 45, 0
2, 8640, Note_off_c, 1, 48, 0
2, 8640, Note_off_c, 1, 65, 0
2, 8640, Note_off_c, 1, 75, 0
2, 8680, Note_on_c, 1, 54, 127
2, 8680, Note_on_c, 1, 64, 127
2, 8680, Note_on_c, 1, 67, 127
2, 8720, Note_off_c, 1, 54, 0
2, 8720, Note_on_c, 1, 55, 127
2, 8720, Note_off_c, 1, 64, 0
2, 8720, Note_off_c, 1, 67, 0
2, 8760, Note_off_c, 1, 55, 0
2, 8800, Note_on_c, 1, 59, 127
2, 8800, Note_on_c, 1, 64, 127
2, 8800, Note_on_c, 1, 67, 127
2, 8840, Note_off_c, 1, 59, 0
2, 8840, Note_off_c, 1, 64, 0
2, 8840, Note_off_c, 1, 67, 0
2, 8880, Note_on_c, 1, 40, 127
2, 8880, Note_on_c, 1, 59, 127
2, 8880, Note_on_c, 1, 64, 127
2, 8880, Note_on_c, 1, 68, 127
2, 9040, Note_off_c, 1, 40, 0
2, 9080, Note_on_c, 1, 40, 127
2, 9120, Note_off_c, 1, 40, 0
2, 9120, Note_off_c, 1, 59, 0
2, 9120, Note_off_c, 1, 64, 0
2, 9120, Note_off_c, 1, 68, 0
2, 9160, Note_on_c, 1, 40, 127
2, 9240, Note_off_c, 1, 40, 0
2, 9280, Note_on_c, 1, 40, 127
2, 9320, Note_off_c, 1, 40, 0
2, 9360, Note_on_c, 1, 40, 127
2, 9400, Note_off_c, 1, 40, 0
2, 9400, Note_on_c, 1, 76, 127
2, 9400, Note_on_c, 1, 80, 127
2, 9440, Note_off_c, 1, 76, 0
2, 9440, Note_off_c, 1, 80, 0
2, 9520, Note_on_c, 1, 58, 127
2, 9520, Note_on_c, 1, 67, 127
2, 9520, Note_on_c, 1, 70, 127
2, 9520, Note_on_c, 1, 76, 127
2, 9520, Note_on_c, 1, 85, 127
2, 9760, Note_off_c, 1, 58, 0
2, 9760, Note_off_c, 1, 67, 0
2, 9760, Note_off_c, 1, 70, 0
2, 9760, Note_off_c, 1, 76, 0
2, 9760, Note_off_c, 1, 85, 0
2, 9800, Note_on_c, 1, 32, 127
2, 9800, Note_on_c, 1, 44, 127
2, 9800, Note_on_c, 1, 47, 127
2, 9800, Note_on_c, 1, 53, 127
2, 9800, Note_on_c, 1, 61, 127
2, 10040, Note_off_c, 1, 32, 0
2, 10040, Note_off_c, 1, 44, 0
2, 10040, Note_off_c, 1, 47, 0
2, 10040, Note_off_c, 1, 53, 0
2, 10040, Note_off_c, 1, 61, 0
2, 10080, Note_on_c, 1, 45, 127
2, 10080, Note_on_c, 1, 67, 127
2, 10080, Note_on_c, 1, 71, 127
2, 10320, Note_off_c, 1, 45, 0
2, 10320, Note_on_c, 1, 49, 127
2, 10320, Note_off_c, 1, 67, 0
2, 10320, Note_on_c, 1, 74, 127
2, 10440, Note_off_c, 1, 49, 0
2, 10440, Note_off_c, 1, 71, 0
2, 10440, Note_off_c, 1, 74, 0
2, 10480, Note_on_c, 1, 52, 127
2, 10480, Note_on_c, 1, 61, 127
2, 10480, Note_on_c, 1, 68, 127
2, 10480, Note_on_c, 1, 73, 127
2, 10560, Note_off_c, 1, 52, 0
2, 10560, Note_off_c, 1, 61, 0
2, 10560, Note_off_c, 1, 68, 0
2, 10560, Note_off_c, 1, 73, 0
2, 10600, Note_on_c, 1, 52, 127
2, 10600, Note_on_c, 1, 69, 127
2, 10600, Note_on_c, 1, 78, 127
2, 10600, Note_on_c, 1, 80, 127
2, 10840, Note_off_c, 1, 52, 0
2, 10840, Note_off_c, 1, 69, 0
2, 10840, Note_off_c, 1, 78, 0
2, 10840, Note_off_c, 1, 80, 0
2, 10880, Note_on_c, 1, 52, 127
2, 10880, Note_on_c, 1, 69, 127
2, 10880, Note_on_c, 1, 78, 127
2, 10880, Note_on_c, 1, 80, 127
2, 11120, Note_off_c, 1, 52, 0
2, 11120, Note_off_c, 1, 69, 0
2, 11120, Note_off_c, 1, 78, 0
2, 11120, Note_off_c, 1, 80, 0
2, 11160, Note_on_c, 1, 44, 127
2, 11160, Note_on_c, 1, 72, 127
2, 11160, Note_on_c, 1, 75, 127
2, 11320, Note_off_c, 1, 72, 0
2, 11320, Note_off_c, 1, 75, 0
2, 11360, Note_on_c, 1, 40, 127
2, 11360, Note_off_c, 1, 44, 0
2, 11360, Note_on_c, 1, 47, 127
2, 11360, Note_on_c, 1, 52, 127
2, 11360, Note_on_c, 1, 67, 127
2, 11400, Note_off_c, 1, 40, 0
2, 11400, Note_off_c, 1, 47, 0
2, 11400, Note_off_c, 1, 52, 0
2, 11400, Note_off_c, 1, 67, 0
2, 11480, Note_on_c, 1, 54, 127
2, 11480, Note_on_c, 1, 59, 127
2, 11480, Note_on_c, 1, 69, 127
2, 11480, Note_on_c, 1, 75, 127
2, 11840, Note_off_c, 1, 54, 0
2, 11840, Note_off_c, 1, 59, 0
2, 11840, Note_off_c, 1, 69, 0
2, 11840, Note_off_c, 1, 75, 0
2, 11880, Note_on_c, 1, 52, 127
2, 11880, Note_on_c, 1, 59, 127
2, 11880, Note_on_c, 1, 68, 127
2, 11880, Note_on_c, 1, 76, 127
2, 12240, Note_off_c, 1, 52, 0
2, 12240, Note_off_c, 1, 59, 0
2, 12240, Note_off_c, 1, 68, 0
2, 12240, Note_off_c, 1, 76, 0
2, 12280, Note_on_c, 1, 49, 127
2, 12280, Note_on_c, 1, 59, 127
2, 12280, Note_on_c, 1, 67, 127
2, 12280, Note_on_c, 1, 71, 127
2, 12320, Note_off_c, 1, 49, 0
2, 12320, Note_on_c, 1, 50, 127
2, 12320, Note_on_c, 1, 65, 127
2, 12320, Note_off_c, 1, 67, 0
2, 12320, Note_off_c, 1, 71, 0
2, 12320, Note_on_c, 1, 74, 127
2, 12360, Note_on_c, 1, 45, 127
2, 12360, Note_on_c, 1, 49, 127
2, 12360, Note_off_c, 1, 50, 0
2, 12360, Note_on_c, 1, 52, 127
2, 12360, Note_on_c, 1, 57, 127
2, 12360, Note_off_c, 1, 59, 0
2, 12360, Note_off_c, 1, 65, 0
2, 12360, Note_off_c, 1, 74, 0
2, 12360, Note_on_c, 1, 80, 127
2, 12400, Note_on_c, 1, 33, 127
2, 12400, Note_on_c, 1, 40, 127
2, 12400, Note_off_c, 1, 49, 0
2, 12400, Note_off_c, 1, 52, 0
2, 12400, Note_off_c, 1, 57, 0
2, 12400, Note_on_c, 1, 60, 127
2, 12400, Note_on_c, 1, 64, 127
2, 12400, Note_on_c, 1, 71, 127
2, 12400, Note_off_c, 1, 80, 0
2, 12440, Note_off_c, 1, 33, 0
2, 12440, Note_off_c, 1, 40, 0
2, 12440, Note_off_c, 1, 45, 0
2, 12440, Note_on_c, 1, 48, 127
2, 12440, Note_on_c, 1, 52, 127
2, 12440, Note_on_c, 1, 55, 127
2, 12440, Note_off_c, 1, 64, 0
2, 12440, Note_off_c, 1, 71, 0
2, 12440, Note_on_c, 1, 88, 127
2, 12440, Note_on_c, 1, 91, 127
2, 12440, Note_on_c, 1, 96, 127
2, 12440, Note_on_c, 1, 100, 127
2, 12480, Note_on_c, 1, 45, 127
2, 12480, Note_off_c, 1, 52, 0
2, 12480, Note_off_c, 1, 55, 0
2, 12480, Note_on_c, 1, 57, 127
2, 12480, Note_on_c, 1, 64, 127
2, 12480, Note_off_c, 1, 88, 0
2, 12480, Note_off_c, 1, 91, 0
2, 12480, Note_off_c, 1, 96, 0
2, 12480, Note_off_c, 1, 100, 0
2, 12520, Note_off_c, 1, 45, 0
2, 12520, Note_off_c, 1, 48, 0
2, 12520, Note_off_c, 1, 57, 0
2, 12520, Note_off_c, 1, 60, 0
2, 12520, Note_off_c, 1, 64, 0
2, 12560, Note_on_c, 1, 46, 127
2, 12560, Note_on_c, 1, 58, 127
2, 12560, Note_on_c, 1, 76, 127
2, 12560, Note_on_c, 1, 80, 127
2, 12560, Note_on_c, 1, 88, 127
2, 12800, Note_off_c, 1, 46, 0
2, 12800, Note_off_c, 1, 58, 0
2, 12800, Note_off_c, 1, 76, 0
2, 12800, Note_off_c, 1, 80, 0
2, 12800, Note_off_c, 1, 88, 0
2, 12840, Note_on_c, 1, 47, 127
2, 12840, Note_on_c, 1, 51, 127
2, 12840, Note_on_c, 1, 54, 127
2, 12840, Note_on_c, 1, 59, 127
2, 12840, Note_on_c, 1, 83, 127
2, 12840, Note_on_c, 1, 87, 127
2, 12840, Note_on_c, 1, 95, 127
2, 12880, Note_off_c, 1, 47, 0
2, 12880, Note_off_c, 1, 51, 0
2, 12880, Note_off_c, 1, 54, 0
2, 12880, Note_on_c, 1, 55, 127
2, 12880, Note_off_c, 1, 59, 0
2, 12880, Note_on_c, 1, 61, 127
2, 12880, Note_off_c, 1, 83, 0
2, 12880, Note_on_c, 1, 85, 127
2, 12880, Note_off_c, 1, 87, 0
2, 12880, Note_off_c, 1, 95, 0
2, 12920, Note_on_c, 1, 52, 127
2, 12920, Note_off_c, 1, 55, 0
2, 12920, Note_on_c, 1, 56, 127
2, 12920, Note_on_c, 1, 59, 127
2, 12920, Note_off_c, 1, 61, 0
2, 12920, Note_on_c, 1, 62, 127
2, 12920, Note_on_c, 1, 68, 127
2, 12920, Note_on_c, 1, 71, 127
2, 12920, Note_on_c, 1, 76, 127
2, 12920, Note_off_c, 1, 85, 0
2, 12960, Note_on_c, 1, 45, 127
2, 12960, Note_off_c, 1, 52, 0
2, 12960, Note_off_c, 1, 56, 0
2, 12960, Note_off_c, 1, 59, 0
2, 12960, Note_off_c, 1, 62, 0
2, 12960, Note_off_c, 1, 68, 0
2, 12960, Note_off_c, 1, 71, 0
2, 12960, Note_off_c, 1, 76, 0
2, 12960, Note_on_c, 1, 78, 127
2, 12960, Note_on_c, 1, 87, 127
2, 12960, Note_on_c, 1, 90, 127
2, 13000, Note_off_c, 1, 45, 0
2, 13000, Note_on_c, 1, 47, 127
2, 13000, Note_on_c, 1, 50, 127
2, 13000, Note_on_c, 1, 53, 127
2, 13000, Note_on_c, 1, 55, 127
2, 13000, Note_off_c, 1, 78, 0
2, 13000, Note_on_c, 1, 86, 127
2, 13000, Note_off_c, 1, 87, 0
2, 13000, Note_on_c, 1, 89, 127
2, 13000, Note_off_c, 1, 90, 0
2, 13040, Note_on_c, 1, 43, 127
2, 13040, Note_off_c, 1, 47, 0
2, 13040, Note_off_c, 1, 50, 0
2, 13040, Note_off_c, 1, 53, 0
2, 13040, Note_off_c, 1, 55, 0
2, 13040, Note_on_c, 1, 66, 127
2, 13040, Note_on_c, 1, 69, 127
2, 13040, Note_on_c, 1, 71, 127
2, 13040, Note_off_c, 1, 86, 0
2, 13040, Note_off_c, 1, 89, 0
2, 13080, Note_off_c, 1, 43, 0
2, 13080, Note_off_c, 1, 66, 0
2, 13080, Note_off_c, 1, 69, 0
2, 13080, Note_off_c, 1, 71, 0
2, 13120, Note_on_c, 1, 52, 127
2, 13120, Note_on_c, 1, 61, 127
2, 13120, Note_on_c, 1, 67, 127
2, 13120, Note_on_c, 1, 78, 127
2, 13360, Note_off_c, 1, 52, 0
2, 13360, Note_off_c, 1, 61, 0
2, 13360, Note_off_c, 1, 67, 0
2, 13360, Note_off_c, 1, 78, 0
2, 13400, Note_on_c, 1, 47, 127
2, 13400, Note_on_c, 1, 51, 127
2, 13400, Note_on_c, 1, 57, 127
2, 13400, Note_on_c, 1, 66, 127
2, 13440, Note_off_c, 1, 66, 0
2, 13480, Note_off_c, 1, 47, 0
2, 13480, Note_off_c, 1, 51, 0
2, 13480, Note_off_c, 1, 57, 0
2, 13520, Note_on_c, 1, 47, 127
2, 13520, Note_on_c, 1, 51, 127
2, 13520, Note_on_c, 1, 57, 127
2, 13680, Note_off_c, 1, 47, 0
2, 13680, Note_off_c, 1, 51, 0
2, 13680, Note_on_c, 1, 54, 127
2, 13680, Note_off_c, 1, 57, 0
2, 13720, Note_on_c, 1, 38, 127
2, 13720, Note_on_c, 1, 50, 127
2, 13720, Note_on_c, 1, 57, 127
2, 13960, Note_off_c, 1, 38, 0
2, 13960, Note_off_c, 1, 50, 0
2, 13960, Note_off_c, 1, 54, 0
2, 13960, Note_off_c, 1, 57, 0
2, 14000, Note_on_c, 1, 35, 127
2, 14000, Note_on_c, 1, 51, 127
2, 14000, Note_on_c, 1, 54, 127
2, 14000, Note_on_c, 1, 59, 127
2, 14240, Note_off_c, 1, 35, 0
2, 14240, Note_off_c, 1, 51, 0
2, 14240, Note_off_c, 1, 54, 0
2, 14240, Note_off_c, 1, 59, 0
2, 14280, Note_on_c, 1, 43, 127
2, 14280, Note_on_c, 1, 52, 127
2, 14280, Note_on_c, 1, 60, 127
2, 14280, Note_on_c, 1, 71, 127
2, 14520, Note_off_c, 1, 52, 0
2, 14520, Note_off_c, 1, 60, 0
2, 14520, Note_off_c, 1, 71, 0
2, 14560, Note_on_c, 1, 31, 127
2, 14560, Note_off_c, 1, 43, 0
2, 14560, Note_on_c, 1, 62, 127
2, 14560, Note_on_c, 1, 70, 127
2, 14600, Note_off_c, 1, 70, 0
2, 14640, Note_off_c, 1, 31, 0
2, 14640, Note_on_c, 1, 34, 127
2, 14640, Note_on_c, 1, 38, 127
2, 14640, Note_on_c, 1, 41, 127
2, 14640, Note_on_c, 1, 46, 127
2, 14640, Note_on_c, 1, 53, 127
2, 14640, Note_on_c, 1, 58, 127
2, 14640, Note_on_c, 1, 65, 127
2, 14680, Note_on_c, 1, 31, 127
2, 14680, Note_off_c, 1, 34, 0
2, 14680, Note_off_c, 1, 38, 0
2, 14680, Note_off_c, 1, 41, 0
2, 14680, Note_off_c, 1, 46, 0
2, 14680, Note_off_c, 1, 53, 0
2, 14680, Note_off_c, 1, 58, 0
2, 14680, Note_off_c, 1, 65, 0
2, 14760, Note_off_c, 1, 31, 0
2, 14760, Note_off_c, 1, 62, 0
2, 14800, Note_on_c, 1, 48, 127
2, 14800, Note_on_c, 1, 62, 127
2, 14800, Note_on_c, 1, 65, 127
2, 14800, Note_on_c, 1, 71, 127
2, 15240, Note_off_c, 1, 48, 0
2, 15240, Note_off_c, 1, 62, 0
2, 15240, Note_off_c, 1, 65, 0
2, 15240, Note_off_c, 1, 71, 0
2, 15280, Note_on_c, 1, 45, 127
2, 15280, Note_on_c, 1, 64, 127
2, 15280, Note_on_c, 1, 69, 127
2, 15280, Note_on_c, 1, 72, 127
2, 15320, Note_off_c, 1, 45, 0
2, 15320, Note_off_c, 1, 64, 0
2, 15320, Note_off_c, 1, 69, 0
2, 15320, Note_off_c, 1, 72, 0
2, 15360, Note_on_c, 1, 46, 127
2, 15360, Note_on_c, 1, 62, 127
2, 15360, Note_on_c, 1, 65, 127
2, 15360, Note_on_c, 1, 68, 127
2, 15360, Note_on_c, 1, 72, 127
2, 15520, Note_off_c, 1, 46, 0
2, 15560, Note_off_c, 1, 62, 0
2, 15560, Note_off_c, 1, 65, 0
2, 15560, Note_off_c, 1, 68, 0
2, 15560, Note_off_c, 1, 72, 0
2, 15600, Note_on_c, 1, 46, 127
2, 15600, Note_on_c, 1, 62, 127
2, 15600, Note_on_c, 1, 65, 127
2, 15600, Note_on_c, 1, 68, 127
2, 15600, Note_on_c, 1, 72, 127
2, 15640, Note_off_c, 1, 46, 0
2, 15640, Note_off_c, 1, 62, 0
2, 15640, Note_off_c, 1, 65, 0
2, 15640, Note_off_c, 1, 68, 0
2, 15640, Note_off_c, 1, 72, 0
2, 15680, Note_on_c, 1, 65, 127
2, 15680, Note_on_c, 1, 68, 127
2, 15680, Note_on_c, 1, 72, 127
2, 15680, Note_on_c, 1, 80, 127
2, 15880, Note_off_c, 1, 65, 0
2, 15880, Note_off_c, 1, 68, 0
2, 15880, Note_off_c, 1, 72, 0
2, 15880, Note_off_c, 1, 80, 0
2, 15920, Note_on_c, 1, 43, 127
2, 15920, Note_on_c, 1, 55, 127
2, 15920, Note_on_c, 1, 65, 127
2, 15920, Note_on_c, 1, 73, 127
2, 15920, Note_on_c, 1, 77, 127
2, 15960, Note_off_c, 1, 43, 0
2, 15960, Note_off_c, 1, 55, 0
2, 15960, Note_off_c, 1, 65, 0
2, 15960, Note_off_c, 1, 73, 0
2, 15960, Note_off_c, 1, 77, 0
2, 16080, Note_on_c, 1, 57, 127
2, 16080, Note_on_c, 1, 60, 127
2, 16080, Note_on_c, 1, 63, 127
2, 16080, Note_on_c, 1, 72, 127
2, 16080, Note_on_c, 1, 78, 127
2, 16080, Note_on_c, 1, 83, 127
2, 16120, Note_off_c, 1, 57, 0
2, 16120, Note_off_c, 1, 60, 0
2, 16120, Note_off_c, 1, 63, 0
2, 16120, Note_off_c, 1, 72, 0
2, 16120, Note_off_c, 1, 78, 0
2, 16120, Note_off_c, 1, 83, 0
2, 16200, Note_on_c, 1, 33, 127
2, 16200, Note_on_c, 1, 45, 127
2, 16200, Note_on_c, 1, 55, 127
2, 16200, Note_on_c, 1, 61, 127
2, 16200, Note_on_c, 1, 64, 127
2, 16240, Note_off_c, 1, 33, 0
2, 16240, Note_off_c, 1, 45, 0
2, 16240, Note_off_c, 1, 55, 0
2, 16240, Note_off_c, 1, 61, 0
2, 16240, Note_off_c, 1, 64, 0
2, 16360, Note_on_c, 1, 58, 127
2, 16360, Note_on_c, 1, 64, 127
2, 16360, Note_on_c, 1, 67, 127
2, 16400, Note_off_c, 1, 58, 0
2, 16400, Note_off_c, 1, 64, 0
2, 16400, Note_off_c, 1, 67, 0
2, 16480, Note_on_c, 1, 63, 127
2, 16480, Note_on_c, 1, 67, 127
2, 16960, Note_off_c, 1, 63, 0
2, 16960, Note_off_c, 1, 67, 0
2, 17040, Note_on_c, 1, 35, 127
2, 17040, Note_on_c, 1, 47, 127
2, 17040, Note_on_c, 1, 55, 127
2, 17040, Note_on_c, 1, 62, 127
2, 17040, Note_on_c, 1, 65, 127
2, 17520, Note_off_c, 1, 35, 0
2, 17520, Note_off_c, 1, 47, 0
2, 17520, Note_off_c, 1, 55, 0
2, 17520, Note_off_c, 1, 62, 0
2, 17520, Note_off_c, 1, 65, 0
2, 17600, Note_on_c, 1, 36, 127
2, 17600, Note_on_c, 1, 48, 127
2, 17600, Note_on_c, 1, 55, 127
2, 17600, Note_on_c, 1, 60, 127
2, 17600, Note_on_c, 1, 64, 127
2, 18120, Note_off_c, 1, 36, 0
2, 18120, Note_off_c, 1, 48, 0
2, 18120, Note_off_c, 1, 55, 0
2, 18120, Note_off_c, 1, 60, 0
2, 18120, Note_off_c, 1, 64, 0
2, 18160, Note_on_c, 1, 35, 127
2, 18160, Note_on_c, 1, 53, 127
2, 18160, Note_on_c, 1, 65, 127
2, 18200, Note_off_c, 1, 35, 0
2, 18200, Note_off_c, 1, 53, 0
2, 18280, Note_on_c, 1, 48, 127
2, 18280, Note_on_c, 1, 53, 127
2, 18280, Note_on_c, 1, 57, 127
2, 18320, Note_off_c, 1, 48, 0
2, 18320, Note_off_c, 1, 53, 0
2, 18320, Note_off_c, 1, 57, 0
2, 18400, Note_off_c, 1, 65, 0
2, 18440, Note_on_c, 1, 47, 127
2, 18440, Note_on_c, 1, 62, 127
2, 18440, Note_on_c, 1, 65, 127
2, 18440, Note_on_c, 1, 68, 127
2, 18480, Note_off_c, 1, 47, 0
2, 18560, Note_on_c, 1, 47, 127
2, 18600, Note_off_c, 1, 47, 0
2, 18640, Note_on_c, 1, 47, 127
2, 18680, Note_off_c, 1, 47, 0
2, 18680, Note_off_c, 1, 62, 0
2, 18680, Note_off_c, 1, 68, 0
2, 18720, Note_on_c, 1, 47, 127
2, 18720, Note_on_c, 1, 62, 127
2, 18720, Note_on_c, 1, 68, 127
2, 18800, Note_off_c, 1, 47, 0
2, 18840, Note_on_c, 1, 47, 127
2, 18880, Note_off_c, 1, 47, 0
2, 18920, Note_on_c, 1, 47, 127
2, 18960, Note_off_c, 1, 47, 0
2, 18960, Note_off_c, 1, 62, 0
2, 18960, Note_off_c, 1, 65, 0
2, 18960, Note_off_c, 1, 68, 0
2, 19000, Note_on_c, 1, 61, 127
2, 19000, Note_on_c, 1, 65, 127
2, 19040, Note_on_c, 1, 60, 127
2, 19040, Note_off_c, 1, 61, 0
2, 19080, Note_off_c, 1, 60, 0
2, 19080, Note_on_c, 1, 61, 127
2, 19120, Note_on_c, 1, 46, 127
2, 19120, Note_off_c, 1, 61, 0
2, 19120, Note_on_c, 1, 62, 127
2, 19160, Note_off_c, 1, 46, 0
2, 19240, Note_on_c, 1, 45, 127
2, 19240, Note_on_c, 1, 74, 127
2, 19280, Note_off_c, 1, 45, 0
2, 19280, Note_off_c, 1, 74, 0
2, 19360, Note_off_c, 1, 62, 0
2, 19400, Note_on_c, 1, 43, 127
2, 19400, Note_on_c, 1, 58, 127
2, 19400, Note_on_c, 1, 62, 127
2, 19400, Note_off_c, 1, 65, 0
2, 19440, Note_off_c, 1, 43, 0
2, 19440, Note_off_c, 1, 62, 0
2, 19480, Note_off_c, 1, 58, 0
2, 19520, Note_on_c, 1, 41, 127
2, 19520, Note_on_c, 1, 49, 127
2, 19520, Note_on_c, 1, 56, 127
2, 19520, Note_on_c, 1, 65, 127
2, 19560, Note_off_c, 1, 41, 0
2, 19560, Note_off_c, 1, 49, 0
2, 19560, Note_off_c, 1, 56, 0
2, 19560, Note_off_c, 1, 65, 0
2, 19600, Note_on_c, 1, 55, 127
2, 19600, Note_on_c, 1, 58, 127
2, 19600, Note_on_c, 1, 61, 127
2, 19600, Note_on_c, 1, 65, 127
2, 19640, Note_on_c, 1, 41, 127
2, 19640, Note_on_c, 1, 49, 127
2, 19640, Note_off_c, 1, 55, 0
2, 19640, Note_on_c, 1, 56, 127
2, 19640, Note_off_c, 1, 58, 0
2, 19640, Note_off_c, 1, 61, 0
2, 19680, Note_off_c, 1, 41, 0
2, 19680, Note_off_c, 1, 49, 0
2, 19680, Note_on_c, 1, 55, 127
2, 19680, Note_off_c, 1, 56, 0
2, 19680, Note_on_c, 1, 58, 127
2, 19680, Note_on_c, 1, 61, 127
2, 19720, Note_on_c, 1, 52, 127
2, 19720, Note_off_c, 1, 55, 0
2, 19720, Note_off_c, 1, 58, 0
2, 19720, Note_off_c, 1, 61, 0
2, 19720, Note_off_c, 1, 65, 0
2, 19720, Note_on_c, 1, 79, 127
2, 19720, Note_on_c, 1, 85, 127
2, 19720, Note_on_c, 1, 88, 127
2, 19720, Note_on_c, 1, 91, 127
2, 19760, Note_on_c, 1, 41, 127
2, 19760, Note_on_c, 1, 49, 127
2, 19760, Note_off_c, 1, 52, 0
2, 19760, Note_on_c, 1, 56, 127
2, 19760, Note_off_c, 1, 79, 0
2, 19760, Note_off_c, 1, 85, 0
2, 19760, Note_off_c, 1, 88, 0
2, 19760, Note_off_c, 1, 91, 0
2, 19800, Note_off_c, 1, 41, 0
2, 19800, Note_on_c, 1, 48, 127
2, 19800, Note_off_c, 1, 49, 0
2, 19800, Note_off_c, 1, 56, 0
2, 19840, Note_off_c, 1, 48, 0
2, 19840, Note_on_c, 1, 60, 127
2, 19840, Note_on_c, 1, 62, 127
2, 19840, Note_on_c, 1, 69, 127
2, 19840, Note_on_c, 1, 82, 127
2, 19880, Note_on_c, 1, 57, 127
2, 19880, Note_off_c, 1, 60, 0
2, 19880, Note_on_c, 1, 61, 127
2, 19880, Note_off_c, 1, 62, 0
2, 19880, Note_on_c, 1, 67, 127
2, 19880, Note_off_c, 1, 69, 0
2, 19880, Note_off_c, 1, 82, 0
2, 19960, Note_on_c, 1, 78, 127
2, 20000, Note_off_c, 1, 78, 0
2, 20040, Note_on_c, 1, 25, 127
2, 20040, Note_on_c, 1, 37, 127
2, 20040, Note_off_c, 1, 57, 0
2, 20040, Note_off_c, 1, 61, 0
2, 20040, Note_on_c, 1, 65, 127
2, 20040, Note_off_c, 1, 67, 0
2, 20040, Note_on_c, 1, 73, 127
2, 20080, Note_off_c, 1, 25, 0
2, 20080, Note_off_c, 1, 37, 0
2, 20080, Note_off_c, 1, 65, 0
2, 20080, Note_off_c, 1, 73, 0
2, 20120, Note_on_c, 1, 55, 127
2, 20120, Note_on_c, 1, 60, 127
2, 20120, Note_on_c, 1, 62, 127
2, 20120, Note_on_c, 1, 69, 127
2, 20160, Note_off_c, 1, 69, 0
2, 20320, Note_on_c, 1, 54, 127
2, 20320, Note_off_c, 1, 55, 0
2, 20360, Note_off_c, 1, 54, 0
2, 20360, Note_off_c, 1, 60, 0
2, 20360, Note_off_c, 1, 62, 0
2, 20400, Note_on_c, 1, 47, 127
2, 20400, Note_on_c, 1, 53, 127
2, 20400, Note_on_c, 1, 62, 127
2, 20400, Note_on_c, 1, 69, 127
2, 20640, Note_off_c, 1, 47, 0
2, 20640, Note_off_c, 1, 53, 0
2, 20640, Note_off_c, 1, 62, 0
2, 20640, Note_off_c, 1, 69, 0
2, 20680, Note_on_c, 1, 43, 127
2, 20680, Note_on_c, 1, 59, 127
2, 20680, Note_on_c, 1, 70, 127
2, 20920, Note_off_c, 1, 43, 0
2, 20920, Note_off_c, 1, 59, 0
2, 20920, Note_off_c, 1, 70, 0
2, 20960, Note_on_c, 1, 31, 127
2, 20960, Note_on_c, 1, 43, 127
2, 20960, Note_on_c, 1, 76, 127
2, 20960, Note_on_c, 1, 88, 127
2, 21160, Note_off_c, 1, 76, 0
2, 21160, Note_off_c, 1, 88, 0
2, 21200, Note_off_c, 1, 31, 0
2, 21200, Note_on_c, 1, 48, 127
2, 21200, Note_on_c, 1, 60, 127
2, 21200, Note_on_c, 1, 64, 127
2, 21200, Note_on_c, 1, 72, 127
2, 21440, Note_off_c, 1, 43, 0
2, 21440, Note_off_c, 1, 48, 0
2, 21440, Note_off_c, 1, 60, 0
2, 21440, Note_off_c, 1, 64, 0
2, 21440, Note_off_c, 1, 72, 0
2, 21480, Note_on_c, 1, 41, 127
2, 21480, Note_on_c, 1, 48, 127
2, 21480, Note_on_c, 1, 60, 127
2, 21480, Note_on_c, 1, 65, 127
2, 21480, Note_on_c, 1, 69, 127
2, 21640, Note_off_c, 1, 41, 0
2, 21640, Note_off_c, 1, 48, 0
2, 21640, Note_off_c, 1, 60, 0
2, 21640, Note_off_c, 1, 65, 0
2, 21640, Note_off_c, 1, 69, 0
2, 21680, Note_on_c, 1, 41, 127
2, 21680, Note_on_c, 1, 48, 127
2, 21680, Note_on_c, 1, 60, 127
2, 21680, Note_on_c, 1, 65, 127
2, 21680, Note_on_c, 1, 69, 127
2, 23640, Note_off_c, 1, 41, 0
2, 23640, Note_off_c, 1, 48, 0
2, 23640, Note_off_c, 1, 60, 0
2, 23640, Note_off_c, 1, 65, 0
2, 23640, Note_off_c, 1, 69, 0
2, 23680, Note_on_c, 1, 41, 127
2, 23680, Note_on_c, 1, 51, 127
2, 23680, Note_on_c, 1, 57, 127
2, 23680, Note_on_c, 1, 65, 127
2, 23760, Note_on_c, 1, 62, 127
2, 23920, Note_on_c, 1, 60, 127
2, 23920, Note_off_c, 1, 62, 0
2, 24280, Note_off_c, 1, 60, 0
2, 24320, Note_on_c, 1, 62, 127
2, 24400, Note_off_c, 1, 62, 0
2, 24400, Note_on_c, 1, 63, 127
2, 24520, Note_on_c, 1, 62, 127
2, 24520, Note_off_c, 1, 63, 0
2, 24760, Note_off_c, 1, 62, 0
2, 24800, Note_on_c, 1, 60, 127
2, 25640, Note_off_c, 1, 41, 0
2, 25640, Note_off_c, 1, 51, 0
2, 25640, Note_off_c, 1, 57, 0
2, 25640, Note_off_c, 1, 60, 0
2, 25640, Note_off_c, 1, 65, 0
2, 25680, Note_on_c, 1, 41, 127
2, 25680, Note_on_c, 1, 51, 127
2, 25680, Note_on_c, 1, 57, 127
2, 25680, Note_on_c, 1, 60, 127
2, 25680, Note_on_c, 1, 65, 127
2, 26160, Note_off_c, 1, 41, 0
2, 26160, Note_off_c, 1, 51, 0
2, 26160, Note_off_c, 1, 57, 0
2, 26160, Note_off_c, 1, 60, 0
2, 26160, Note_off_c, 1, 65, 0
2, 26200, Note_on_c, 1, 41, 127
2, 26200, Note_on_c, 1, 51, 127
2, 26200, Note_on_c, 1, 57, 127
2, 26200, Note_on_c, 1, 60, 127
2, 26200, Note_on_c, 1, 65, 127
2, 27080, Note_off_c, 1, 60, 0
2, 27120, Note_on_c, 1, 62, 127
2, 27600, Note_off_c, 1, 62, 0
2, 27640, Note_on_c, 1, 60, 127
2, 28160, Note_off_c, 1, 41, 0
2, 28160, Note_off_c, 1, 51, 0
2, 28160, Note_off_c, 1, 57, 0
2, 28160, Note_off_c, 1, 60, 0
2, 28160, Note_off_c, 1, 65, 0
2, 28200, Note_on_c, 1, 41, 127
2, 28200, Note_on_c, 1, 51, 127
2, 28200, Note_on_c, 1, 57, 127
2, 28200, Note_on_c, 1, 60, 127
2, 28200, Note_on_c, 1, 65, 127
2, 29920, Note_off_c, 1, 41, 0
2, 29920, Note_on_c, 1, 42, 127
2, 29920, Note_on_c, 1, 49, 127
2, 29920, Note_off_c, 1, 51, 0
2, 29920, Note_off_c, 1, 57, 0
2, 29920, Note_on_c, 1, 58, 127
2, 29920, Note_off_c, 1, 60, 0
2, 29920, Note_off_c, 1, 65, 0
2, 29920, Note_on_c, 1, 70, 127
2, 29960, Note_off_c, 1, 42, 0
2, 29960, Note_off_c, 1, 49, 0
2, 29960, Note_off_c, 1, 58, 0
2, 29960, Note_off_c, 1, 70, 0
2, 30000, Note_on_c, 1, 43, 127
2, 30280, Note_off_c, 1, 43, 0
2, 30360, Note_on_c, 1, 42, 127
2, 30360, Note_on_c, 1, 46, 127
2, 30880, Note_off_c, 1, 46, 0
2, 30920, Note_on_c, 1, 46, 127
2, 31440, Note_off_c, 1, 46, 0
2, 31480, Note_off_c, 1, 42, 0
2, 31480, Note_on_c, 1, 49, 127
2, 31480, Note_on_c, 1, 53, 127
2, 31480, Note_on_c, 1, 65, 127
2, 31480, Note_on_c, 1, 73, 127
2, 31720, Note_off_c, 1, 49, 0
2, 31760, Note_on_c, 1, 49, 127
2, 31760, Note_off_c, 1, 53, 0
2, 31760, Note_on_c, 1, 57, 127
2, 31760, Note_off_c, 1, 65, 0
2, 31760, Note_on_c, 1, 66, 127
2, 31760, Note_on_c, 1, 72, 127
2, 31760, Note_off_c, 1, 73, 0
2, 31760, Note_on_c, 1, 76, 127
2, 32000, Note_off_c, 1, 57, 0
2, 32000, Note_off_c, 1, 66, 0
2, 32000, Note_off_c, 1, 72, 0
2, 32000, Note_off_c, 1, 76, 0
2, 32040, Note_on_c, 1, 34, 127
2, 32040, Note_on_c, 1, 46, 127
2, 32040, Note_off_c, 1, 49, 0
2, 32040, Note_on_c, 1, 50, 127
2, 32040, Note_on_c, 1, 58, 127
2, 32280, Note_off_c, 1, 34, 0
2, 32280, Note_off_c, 1, 46, 0
2, 32280, Note_off_c, 1, 50, 0
2, 32280, Note_off_c, 1, 58, 0
2, 32320, Note_on_c, 1, 34, 127
2, 32320, Note_on_c, 1, 46, 127
2, 32320, Note_on_c, 1, 50, 127
2, 32320, Note_on_c, 1, 58, 127
2, 33640, Note_off_c, 1, 34, 0
2, 33640, Note_off_c, 1, 46, 0
2, 33640, Note_off_c, 1, 50, 0
2, 33640, Note_off_c, 1, 58, 0
2, 34280, Note_on_c, 1, 46, 127
2, 34280, Note_on_c, 1, 74, 127
2, 34520, Note_on_c, 1, 58, 127
2, 35040, Note_off_c, 1, 46, 0
2, 35040, Note_off_c, 1, 58, 0
2, 35040, Note_off_c, 1, 74, 0
2, 35080, Note_on_c, 1, 53, 127
2, 35080, Note_on_c, 1, 58, 127
2, 35080, Note_on_c, 1, 62, 127
2, 35080, Note_on_c, 1, 73, 127
2, 35320, Note_off_c, 1, 73, 0
2, 35360, Note_on_c, 1, 79, 127
2, 35440, Note_off_c, 1, 79, 0
2, 35440, Note_on_c, 1, 82, 127
2, 35600, Note_off_c, 1, 82, 0
2, 35640, Note_on_c, 1, 81, 127
2, 35880, Note_off_c, 1, 53, 0
2, 35880, Note_off_c, 1, 58, 0
2, 35880, Note_off_c, 1, 62, 0
2, 35880, Note_off_c, 1, 81, 0
2, 35920, Note_on_c, 1, 53, 127
2, 35920, Note_on_c, 1, 56, 127
2, 35920, Note_on_c, 1, 65, 127
2, 35920, Note_on_c, 1, 80, 127
2, 36000, Note_off_c, 1, 53, 0
2, 36000, Note_off_c, 1, 56, 0
2, 36000, Note_off_c, 1, 65, 0
2, 36000, Note_on_c, 1, 72, 127
2, 36000, Note_off_c, 1, 80, 0
2, 36040, Note_off_c, 1, 72, 0
2, 36080, Note_on_c, 1, 72, 127
2, 36120, Note_off_c, 1, 72, 0
2, 36160, Note_on_c, 1, 75, 127
2, 36240, Note_on_c, 1, 46, 127
2, 36320, Note_off_c, 1, 46, 0
2, 36480, Note_off_c, 1, 75, 0
2, 36520, Note_on_c, 1, 51, 127
2, 36520, Note_on_c, 1, 58, 127
2, 36520, Note_on_c, 1, 63, 127
2, 36520, Note_on_c, 1, 67, 127
2, 36520, Note_on_c, 1, 79, 127
2, 36600, Note_off_c, 1, 79, 0
2, 36640, Note_on_c, 1, 79, 127
2, 36760, Note_off_c, 1, 51, 0
2, 36760, Note_off_c, 1, 58, 0
2, 36760, Note_off_c, 1, 63, 0
2, 36760, Note_off_c, 1, 67, 0
2, 36800, Note_on_c, 1, 46, 127
2, 36880, Note_off_c, 1, 46, 0
2, 37000, Note_off_c, 1, 79, 0
2, 37040, Note_on_c, 1, 53, 127
2, 37040, Note_on_c, 1, 58, 127
2, 37040, Note_on_c, 1, 62, 127
2, 37040, Note_on_c, 1, 68, 127
2, 37040, Note_on_c, 1, 77, 127
2, 37160, Note_off_c, 1, 77, 0
2, 37200, Note_on_c, 1, 75, 127
2, 37280, Note_off_c, 1, 75, 0
2, 37320, Note_on_c, 1, 77, 127
2, 37440, Note_off_c, 1, 77, 0
2, 37480, Note_on_c, 1, 75, 127
2, 37560, Note_off_c, 1, 53, 0
2, 37560, Note_off_c, 1, 58, 0
2, 37560, Note_off_c, 1, 62, 0
2, 37560, Note_off_c, 1, 68, 0
2, 37560, Note_off_c, 1, 75, 0
2, 37600, Note_on_c, 1, 53, 127
2, 37600, Note_on_c, 1, 58, 127
2, 37600, Note_on_c, 1, 62, 127
2, 37600, Note_on_c, 1, 68, 127
2, 37600, Note_on_c, 1, 74, 127
2, 37720, Note_on_c, 1, 72, 127
2, 37720, Note_off_c, 1, 74, 0
2, 37840, Note_off_c, 1, 53, 0
2, 37840, Note_off_c, 1, 58, 0
2, 37840, Note_off_c, 1, 62, 0
2, 37840, Note_off_c, 1, 68, 0
2, 37840, Note_off_c, 1, 72, 0
2, 37880, Note_on_c, 1, 39, 127
2, 37880, Note_on_c, 1, 70, 127
2, 38080, Note_off_c, 1, 39, 0
2, 38080, Note_off_c, 1, 70, 0
2, 38120, Note_on_c, 1, 39, 127
2, 38120, Note_on_c, 1, 70, 127
2, 38160, Note_off_c, 1, 39, 0
2, 38200, Note_on_c, 1, 39, 127
2, 38200, Note_on_c, 1, 75, 127
2, 38440, Note_off_c, 1, 39, 0
2, 38440, Note_off_c, 1, 75, 0
2, 38480, Note_on_c, 1, 46, 127
2, 38480, Note_on_c, 1, 63, 127
2, 38720, Note_off_c, 1, 46, 0
2, 38720, Note_on_c, 1, 47, 127
2, 38720, Note_on_c, 1, 66, 127
2, 38720, Note_off_c, 1, 70, 0
2, 38760, Note_on_c, 1, 46, 127
2, 38760, Note_off_c, 1, 47, 0
2, 38760, Note_on_c, 1, 56, 127
2, 38760, Note_on_c, 1, 62, 127
2, 38760, Note_off_c, 1, 63, 0
2, 38760, Note_on_c, 1, 65, 127
2, 38760, Note_off_c, 1, 66, 0
2, 39000, Note_off_c, 1, 46, 0
2, 39000, Note_off_c, 1, 56, 0
2, 39000, Note_off_c, 1, 62, 0
2, 39000, Note_off_c, 1, 65, 0
2, 39040, Note_on_c, 1, 51, 127
2, 39040, Note_on_c, 1, 55, 127
2, 39040, Note_on_c, 1, 63, 127
2, 39280, Note_off_c, 1, 51, 0
2, 39280, Note_off_c, 1, 55, 0
2, 39280, Note_off_c, 1, 63, 0
2, 39320, Note_on_c, 1, 53, 127
2, 39320, Note_on_c, 1, 62, 127
2, 39320, Note_on_c, 1, 70, 127
2, 39560, Note_off_c, 1, 70, 0
2, 39600, Note_on_c, 1, 65, 127
2, 39800, Note_off_c, 1, 53, 0
2, 39800, Note_off_c, 1, 62, 0
2, 39840, Note_on_c, 1, 53, 127
2, 39840, Note_on_c, 1, 62, 127
2, 39960, Note_off_c, 1, 53, 0
2, 39960, Note_off_c, 1, 62, 0
2, 40000, Note_off_c, 1, 65, 0
2, 40040, Note_on_c, 1, 59, 127
2, 40040, Note_on_c, 1, 65, 127
2, 40120, Note_off_c, 1, 59, 0
2, 40120, Note_off_c, 1, 65, 0
2, 40160, Note_on_c, 1, 48, 127
2, 40160, Note_on_c, 1, 64, 127
2, 40160, Note_on_c, 1, 67, 127
2, 40240, Note_off_c, 1, 67, 0
2, 40400, Note_off_c, 1, 48, 0
2, 40440, Note_on_c, 1, 47, 127
2, 40440, Note_off_c, 1, 64, 0
2, 40440, Note_on_c, 1, 67, 127
2, 40640, Note_off_c, 1, 47, 0
2, 40680, Note_on_c, 1, 48, 127
2, 40680, Note_off_c, 1, 67, 0
2, 40680, Note_on_c, 1, 69, 127
2, 40920, Note_off_c, 1, 48, 0
2, 40920, Note_off_c, 1, 69, 0
2, 40960, Note_on_c, 1, 79, 127
2, 41200, Note_off_c, 1, 79, 0
2, 41240, Note_on_c, 1, 59, 127
2, 41240, Note_on_c, 1, 62, 127
2, 41240, Note_on_c, 1, 79, 127
2, 41480, Note_off_c, 1, 59, 0
2, 41480, Note_off_c, 1, 62, 0
2, 41480, Note_off_c, 1, 79, 0
2, 41520, Note_on_c, 1, 59, 127
2, 41520, Note_on_c, 1, 62, 127
2, 41520, Note_on_c, 1, 79, 127
2, 41760, Note_off_c, 1, 59, 0
2, 41760, Note_off_c, 1, 62, 0
2, 41760, Note_off_c, 1, 79, 0
2, 41800, Note_on_c, 1, 59, 127
2, 41800, Note_on_c, 1, 62, 127
2, 41800, Note_on_c, 1, 77, 127
2, 41840, Note_off_c, 1, 77, 0
2, 41840, Note_on_c, 1, 79, 127
2, 42000, Note_off_c, 1, 59, 0
2, 42000, Note_off_c, 1, 62, 0
2, 42000, Note_off_c, 1, 79, 0
2, 42040, Note_on_c, 1, 59, 127
2, 42040, Note_on_c, 1, 62, 127
2, 42040, Note_on_c, 1, 79, 127
2, 42080, Note_off_c, 1, 59, 0
2, 42080, Note_off_c, 1, 62, 0
2, 42080, Note_off_c, 1, 79, 0
2, 42120, Note_on_c, 1, 59, 127
2, 42120, Note_on_c, 1, 62, 127
2, 42120, Note_on_c, 1, 79, 127
2, 42360, Note_off_c, 1, 59, 0
2, 42360, Note_off_c, 1, 62, 0
2, 42360, Note_off_c, 1, 79, 0
2, 42400, Note_on_c, 1, 59, 127
2, 42400, Note_on_c, 1, 62, 127
2, 42400, Note_on_c, 1, 79, 127
2, 42640, Note_off_c, 1, 59, 0
2, 42640, Note_off_c, 1, 62, 0
2, 42640, Note_off_c, 1, 79, 0
2, 42680, Note_on_c, 1, 59, 127
2, 42680, Note_on_c, 1, 62, 127
2, 42680, Note_on_c, 1, 79, 127
2, 42920, Note_off_c, 1, 59, 0
2, 42920, Note_off_c, 1, 62, 0
2, 42920, Note_off_c, 1, 79, 0
2, 42960, Note_on_c, 1, 59, 127
2, 42960, Note_on_c, 1, 62, 127
2, 42960, Note_on_c, 1, 79, 127
2, 43200, Note_off_c, 1, 59, 0
2, 43200, Note_off_c, 1, 62, 0
2, 43200, Note_off_c, 1, 79, 0
2, 43240, Note_on_c, 1, 59, 127
2, 43240, Note_on_c, 1, 62, 127
2, 43240, Note_on_c, 1, 79, 127
2, 43480, Note_off_c, 1, 59, 0
2, 43480, Note_off_c, 1, 62, 0
2, 43480, Note_off_c, 1, 79, 0
2, 43520, Note_on_c, 1, 59, 127
2, 43520, Note_on_c, 1, 62, 127
2, 43520, Note_on_c, 1, 79, 127
2, 43760, Note_off_c, 1, 59, 0
2, 43760, Note_off_c, 1, 62, 0
2, 43760, Note_off_c, 1, 79, 0
2, 43800, Note_on_c, 1, 59, 127
2, 43800, Note_on_c, 1, 62, 127
2, 43800, Note_on_c, 1, 79, 127
2, 44040, Note_off_c, 1, 59, 0
2, 44040, Note_off_c, 1, 62, 0
2, 44040, Note_off_c, 1, 79, 0
2, 44080, Note_on_c, 1, 59, 127
2, 44080, Note_on_c, 1, 62, 127
2, 44080, Note_on_c, 1, 79, 127
2, 44240, Note_off_c, 1, 59, 0
2, 44240, Note_off_c, 1, 62, 0
2, 44240, Note_off_c, 1, 79, 0
2, 44280, Note_on_c, 1, 59, 127
2, 44280, Note_on_c, 1, 62, 127
2, 44280, Note_on_c, 1, 79, 127
2, 44360, Note_off_c, 1, 59, 0
2, 44360, Note_off_c, 1, 62, 0
2, 44360, Note_off_c, 1, 79, 0
2, 44400, Note_on_c, 1, 59, 127
2, 44400, Note_on_c, 1, 62, 127
2, 44400, Note_on_c, 1, 79, 127
2, 44640, Note_off_c, 1, 59, 0
2, 44640, Note_off_c, 1, 62, 0
2, 44640, Note_off_c, 1, 79, 0
2, 44680, Note_on_c, 1, 59, 127
2, 44680, Note_on_c, 1, 62, 127
2, 44680, Note_on_c, 1, 79, 127
2, 44920, Note_off_c, 1, 59, 0
2, 44920, Note_off_c, 1, 62, 0
2, 44920, Note_off_c, 1, 79, 0
2, 44960, Note_on_c, 1, 59, 127
2, 44960, Note_on_c, 1, 62, 127
2, 44960, Note_on_c, 1, 79, 127
2, 45200, Note_off_c, 1, 59, 0
2, 45200, Note_off_c, 1, 62, 0
2, 45200, Note_off_c, 1, 79, 0
2, 45240, Note_on_c, 1, 57, 127
2, 45240, Note_on_c, 1, 60, 127
2, 45240, Note_on_c, 1, 78, 127
2, 45440, Note_off_c, 1, 57, 0
2, 45440, Note_off_c, 1, 60, 0
2, 45440, Note_off_c, 1, 78, 0
2, 45480, Note_on_c, 1, 78, 127
2, 45760, Note_on_c, 1, 59, 127
2, 45760, Note_on_c, 1, 62, 127
2, 45760, Note_off_c, 1, 78, 0
2, 45760, Note_on_c, 1, 79, 127
2, 46000, Note_off_c, 1, 59, 0
2, 46000, Note_off_c, 1, 62, 0
2, 46000, Note_off_c, 1, 79, 0
2, 46040, Note_on_c, 1, 59, 127
2, 46040, Note_on_c, 1, 62, 127
2, 46040, Note_on_c, 1, 79, 127
2, 46280, Note_off_c, 1, 59, 0
2, 46280, Note_off_c, 1, 62, 0
2, 46280, Note_off_c, 1, 79, 0
2, 46320, Note_on_c, 1, 59, 127
2, 46320, Note_on_c, 1, 62, 127
2, 46320, Note_on_c, 1, 79, 127
2, 46520, Note_off_c, 1, 59, 0
2, 46520, Note_off_c, 1, 62, 0
2, 46520, Note_off_c, 1, 79, 0
2, 46560, Note_on_c, 1, 59, 127
2, 46560, Note_on_c, 1, 62, 127
2, 46560, Note_on_c, 1, 79, 127
2, 46720, Note_off_c, 1, 59, 0
2, 46720, Note_off_c, 1, 62, 0
2, 46720, Note_off_c, 1, 79, 0
2, 46760, Note_on_c, 1, 59, 127
2, 46760, Note_on_c, 1, 62, 127
2, 46760, Note_on_c, 1, 79, 127
2, 46840, Note_off_c, 1, 59, 0
2, 46840, Note_off_c, 1, 62, 0
2, 46840, Note_off_c, 1, 79, 0
2, 46880, Note_on_c, 1, 59, 127
2, 46880, Note_on_c, 1, 62, 127
2, 46880, Note_on_c, 1, 79, 127
2, 47120, Note_off_c, 1, 59, 0
2, 47120, Note_off_c, 1, 62, 0
2, 47120, Note_off_c, 1, 79, 0
2, 47160, Note_on_c, 1, 63, 127
2, 47160, Note_on_c, 1, 66, 127
2, 47160, Note_on_c, 1, 81, 127
2, 47360, Note_off_c, 1, 63, 0
2, 47360, Note_off_c, 1, 66, 0
2, 47360, Note_off_c, 1, 81, 0
2, 47400, Note_on_c, 1, 62, 127
2, 47400, Note_on_c, 1, 69, 127
2, 47400, Note_on_c, 1, 81, 127
2, 47640, Note_off_c, 1, 62, 0
2, 47640, Note_off_c, 1, 69, 0
2, 47640, Note_off_c, 1, 81, 0
2, 47680, Note_on_c, 1, 47, 127
2, 47680, Note_on_c, 1, 57, 127
2, 47680, Note_on_c, 1, 62, 127
2, 47680, Note_on_c, 1, 68, 127
2, 47680, Note_on_c, 1, 71, 127
2, 47800, Note_off_c, 1, 47, 0
2, 47800, Note_on_c, 1, 55, 127
2, 47800, Note_off_c, 1, 57, 0
2, 47800, Note_on_c, 1, 61, 127
2, 47800, Note_off_c, 1, 62, 0
2, 47800, Note_off_c, 1, 68, 0
2, 47800, Note_on_c, 1, 70, 127
2, 47800, Note_off_c, 1, 71, 0
2, 47800, Note_on_c, 1, 79, 127
2, 47800, Note_on_c, 1, 82, 127
2, 47840, Note_on_c, 1, 47, 127
2, 47840, Note_off_c, 1, 55, 0
2, 47840, Note_on_c, 1, 57, 127
2, 47840, Note_off_c, 1, 61, 0
2, 47840, Note_on_c, 1, 62, 127
2, 47840, Note_on_c, 1, 68, 127
2, 47840, Note_off_c, 1, 70, 0
2, 47840, Note_on_c, 1, 71, 127
2, 47840, Note_off_c, 1, 79, 0
2, 47840, Note_off_c, 1, 82, 0
2, 47880, Note_off_c, 1, 47, 0
2, 47880, Note_on_c, 1, 52, 127
2, 47880, Note_off_c, 1, 57, 0
2, 47880, Note_off_c, 1, 62, 0
2, 47880, Note_on_c, 1, 66, 127
2, 47880, Note_off_c, 1, 68, 0
2, 47880, Note_off_c, 1, 71, 0
2, 47880, Note_on_c, 1, 73, 127
2, 47880, Note_on_c, 1, 82, 127
2, 47880, Note_on_c, 1, 85, 127
2, 47920, Note_off_c, 1, 52, 0
2, 47920, Note_off_c, 1, 66, 0
2, 47920, Note_off_c, 1, 73, 0
2, 47920, Note_off_c, 1, 82, 0
2, 47920, Note_off_c, 1, 85, 0
2, 47960, Note_on_c, 1, 52, 127
2, 47960, Note_on_c, 1, 59, 127
2, 47960, Note_on_c, 1, 67, 127
2, 47960, Note_on_c, 1, 71, 127
2, 47960, Note_on_c, 1, 76, 127
2, 47960, Note_on_c, 1, 79, 127
2, 48160, Note_off_c, 1, 52, 0
2, 48160, Note_off_c, 1, 59, 0
2, 48160, Note_off_c, 1, 67, 0
2, 48160, Note_on_c, 1, 69, 127
2, 48160, Note_off_c, 1, 71, 0
2, 48160, Note_off_c, 1, 76, 0
2, 48160, Note_off_c, 1, 79, 0
2, 48160, Note_on_c, 1, 81, 127
2, 48440, Note_off_c, 1, 69, 0
2, 48440, Note_off_c, 1, 81, 0
2, 48480, Note_on_c, 1, 57, 127
2, 48480, Note_on_c, 1, 62, 127
2, 48480, Note_on_c, 1, 64, 127
2, 48480, Note_on_c, 1, 76, 127
2, 48720, Note_off_c, 1, 76, 0
2, 48760, Note_on_c, 1, 61, 127
2, 48760, Note_off_c, 1, 62, 0
2, 48760, Note_on_c, 1, 76, 127
2, 48760, Note_on_c, 1, 88, 127
2, 48880, Note_off_c, 1, 57, 0
2, 48880, Note_off_c, 1, 61, 0
2, 48880, Note_off_c, 1, 64, 0
2, 48880, Note_off_c, 1, 76, 0
2, 48880, Note_off_c, 1, 88, 0
2, 48920, Note_on_c, 1, 57, 127
2, 48920, Note_on_c, 1, 61, 127
2, 48920, Note_on_c, 1, 64, 127
2, 48920, Note_on_c, 1, 76, 127
2, 48920, Note_on_c, 1, 88, 127
2, 49040, Note_off_c, 1, 57, 0
2, 49040, Note_off_c, 1, 61, 0
2, 49040, Note_off_c, 1, 64, 0
2, 49040, Note_off_c, 1, 76, 0
2, 49040, Note_off_c, 1, 88, 0
2, 49080, Note_on_c, 1, 57, 127
2, 49080, Note_on_c, 1, 62, 127
2, 49080, Note_on_c, 1, 65, 127
2, 49080, Note_on_c, 1, 77, 127
2, 49280, Note_off_c, 1, 57, 0
2, 49280, Note_off_c, 1, 62, 0
2, 49280, Note_off_c, 1, 65, 0
2, 49280, Note_off_c, 1, 77, 0
2, 49320, Note_on_c, 1, 57, 127
2, 49320, Note_on_c, 1, 62, 127
2, 49320, Note_on_c, 1, 65, 127
2, 49320, Note_on_c, 1, 77, 127
2, 49560, Note_off_c, 1, 57, 0
2, 49560, Note_off_c, 1, 62, 0
2, 49560, Note_off_c, 1, 65, 0
2, 49560, Note_off_c, 1, 77, 0
2, 49600, Note_on_c, 1, 60, 127
2, 49600, Note_on_c, 1, 64, 127
2, 49600, Note_on_c, 1, 79, 127
2, 49840, Note_off_c, 1, 60, 0
2, 49840, Note_off_c, 1, 64, 0
2, 49840, Note_off_c, 1, 79, 0
2, 49880, Note_on_c, 1, 57, 127
2, 49880, Note_on_c, 1, 62, 127
2, 49880, Note_on_c, 1, 65, 127
2, 49880, Note_on_c, 1, 77, 127
2, 50080, Note_off_c, 1, 57, 0
2, 50080, Note_off_c, 1, 62, 0
2, 50080, Note_off_c, 1, 65, 0
2, 50080, Note_off_c, 1, 77, 0
2, 50120, Note_on_c, 1, 57, 127
2, 50120, Note_on_c, 1, 63, 127
2, 50120, Note_on_c, 1, 74, 127
2, 50360, Note_off_c, 1, 63, 0
2, 50360, Note_off_c, 1, 74, 0
2, 50400, Note_on_c, 1, 64, 127
2, 50400, Note_on_c, 1, 79, 127
2, 50640, Note_off_c, 1, 57, 0
2, 50640, Note_off_c, 1, 64, 0
2, 50640, Note_off_c, 1, 79, 0
2, 50680, Note_on_c, 1, 57, 127
2, 50680, Note_on_c, 1, 66, 127
2, 50680, Note_on_c, 1, 73, 127
2, 50680, Note_on_c, 1, 81, 127
2, 50720, Note_on_c, 1, 64, 127
2, 50720, Note_off_c, 1, 66, 0
2, 50720, Note_on_c, 1, 79, 127
2, 50720, Note_off_c, 1, 81, 0
2, 50880, Note_off_c, 1, 57, 0
2, 50880, Note_off_c, 1, 64, 0
2, 50880, Note_off_c, 1, 73, 0
2, 50880, Note_off_c, 1, 79, 0
2, 50920, Note_on_c, 1, 57, 127
2, 50920, Note_on_c, 1, 64, 127
2, 50920, Note_on_c, 1, 79, 127
2, 50960, Note_off_c, 1, 64, 0
2, 50960, Note_on_c, 1, 66, 127
2, 50960, Note_on_c, 1, 73, 127
2, 50960, Note_off_c, 1, 79, 0
2, 50960, Note_on_c, 1, 81, 127
2, 51200, Note_off_c, 1, 66, 0
2, 51200, Note_off_c, 1, 81, 0
2, 51240, Note_on_c, 1, 66, 127
2, 51240, Note_on_c, 1, 81, 127
2, 51480, Note_off_c, 1, 66, 0
2, 51480, Note_off_c, 1, 81, 0
2, 51520, Note_on_c, 1, 69, 127
2, 51520, Note_on_c, 1, 85, 127
2, 51720, Note_off_c, 1, 57, 0
2, 51720, Note_off_c, 1, 69, 0
2, 51720, Note_off_c, 1, 73, 0
2, 51720, Note_off_c, 1, 85, 0
2, 51760, Note_on_c, 1, 57, 127
2, 51760, Note_on_c, 1, 73, 127
2, 51760, Note_on_c, 1, 81, 127
2, 52040, Note_on_c, 1, 67, 127
2, 52280, Note_on_c, 1, 64, 127
2, 52280, Note_off_c, 1, 67, 0
2, 52280, Note_off_c, 1, 73, 0
2, 52280, Note_off_c, 1, 81, 0
2, 52320, Note_on_c, 1, 73, 127
2, 52320, Note_on_c, 1, 79, 127
2, 52560, Note_off_c, 1, 73, 0
2, 52560, Note_off_c, 1, 79, 0
2, 52600, Note_on_c, 1, 73, 127
2, 52600, Note_on_c, 1, 79, 127
2, 52800, Note_off_c, 1, 57, 0
2, 52800, Note_off_c, 1, 64, 0
2, 52800, Note_off_c, 1, 73, 0
2, 52800, Note_off_c, 1, 79, 0
2, 52840, Note_on_c, 1, 50, 127
2, 52840, Note_on_c, 1, 57, 127
2, 52840, Note_on_c, 1, 62, 127
2, 52840, Note_on_c, 1, 78, 127
2, 52880, Note_on_c, 1, 66, 127
2, 52880, Note_off_c, 1, 78, 0
2, 52920, Note_off_c, 1, 50, 0
2, 52920, Note_off_c, 1, 57, 0
2, 52920, Note_off_c, 1, 62, 0
2, 52920, Note_off_c, 1, 66, 0
2, 52960, Note_on_c, 1, 50, 127
2, 52960, Note_on_c, 1, 57, 127
2, 52960, Note_on_c, 1, 62, 127
2, 52960, Note_on_c, 1, 66, 127
2, 53000, Note_off_c, 1, 66, 0
2, 53000, Note_on_c, 1, 78, 127
2, 53120, Note_off_c, 1, 50, 0
2, 53120, Note_on_c, 1, 52, 127
2, 53120, Note_off_c, 1, 57, 0
2, 53120, Note_off_c, 1, 62, 0
2, 53120, Note_off_c, 1, 78, 0
2, 53160, Note_on_c, 1, 57, 127
2, 53160, Note_on_c, 1, 61, 127
2, 53160, Note_on_c, 1, 67, 127
2, 53160, Note_on_c, 1, 76, 127
2, 53400, Note_off_c, 1, 52, 0
2, 53400, Note_off_c, 1, 57, 0
2, 53400, Note_off_c, 1, 61, 0
2, 53400, Note_off_c, 1, 67, 0
2, 53400, Note_off_c, 1, 76, 0
2, 53440, Note_on_c, 1, 45, 127
2, 53440, Note_on_c, 1, 69, 127
2, 53440, Note_on_c, 1, 78, 127
2, 53680, Note_off_c, 1, 45, 0
2, 53680, Note_off_c, 1, 69, 0
2, 53680, Note_off_c, 1, 78, 0
2, 53720, Note_on_c, 1, 55, 127
2, 53720, Note_on_c, 1, 64, 127
2, 53720, Note_on_c, 1, 67, 127
2, 53720, Note_on_c, 1, 73, 127
2, 53960, Note_off_c, 1, 64, 0
2, 53960, Note_off_c, 1, 67, 0
2, 53960, Note_off_c, 1, 73, 0
2, 53960, Note_on_c, 1, 74, 127
2, 54000, Note_on_c, 1, 62, 127
2, 54000, Note_on_c, 1, 72, 127
2, 54000, Note_off_c, 1, 74, 0
2, 54000, Note_on_c, 1, 76, 127
2, 54200, Note_off_c, 1, 55, 0
2, 54200, Note_on_c, 1, 71, 127
2, 54200, Note_off_c, 1, 72, 0
2, 54200, Note_on_c, 1, 74, 127
2, 54200, Note_off_c, 1, 76, 0
2, 54240, Note_on_c, 1, 55, 127
2, 54480, Note_off_c, 1, 62, 0
2, 54480, Note_off_c, 1, 71, 0
2, 54480, Note_off_c, 1, 74, 0
2, 54520, Note_on_c, 1, 62, 127
2, 54520, Note_on_c, 1, 71, 127
2, 54520, Note_on_c, 1, 74, 127
2, 54760, Note_off_c, 1, 62, 0
2, 54760, Note_off_c, 1, 71, 0
2, 54760, Note_off_c, 1, 74, 0
2, 54800, Note_on_c, 1, 62, 127
2, 54800, Note_on_c, 1, 71, 127
2, 54800, Note_on_c, 1, 77, 127
2, 54880, Note_off_c, 1, 71, 0
2, 54880, Note_off_c, 1, 77, 0
2, 54880, Note_on_c, 1, 79, 127
2, 54920, Note_on_c, 1, 67, 127
2, 54920, Note_on_c, 1, 77, 127
2, 54920, Note_off_c, 1, 79, 0
2, 55000, Note_off_c, 1, 55, 0
2, 55000, Note_off_c, 1, 62, 0
2, 55000, Note_off_c, 1, 67, 0
2, 55000, Note_off_c, 1, 77, 0
2, 55040, Note_on_c, 1, 55, 127
2, 55040, Note_on_c, 1, 67, 127
2, 55040, Note_on_c, 1, 74, 127
2, 55080, Note_on_c, 1, 62, 127
2, 55080, Note_off_c, 1, 67, 0
2, 55080, Note_on_c, 1, 71, 127
2, 55080, Note_off_c, 1, 74, 0
2, 55080, Note_on_c, 1, 77, 127
2, 55320, Note_off_c, 1, 55, 0
2, 55320, Note_off_c, 1, 62, 0
2, 55320, Note_off_c, 1, 71, 0
2, 55320, Note_off_c, 1, 77, 0
2, 55360, Note_on_c, 1, 52, 127
2, 55360, Note_on_c, 1, 68, 127
2, 55360, Note_on_c, 1, 71, 127
2, 55360, Note_on_c, 1, 73, 127
2, 55600, Note_off_c, 1, 52, 0
2, 55600, Note_off_c, 1, 68, 0
2, 55600, Note_off_c, 1, 71, 0
2, 55600, Note_off_c, 1, 73, 0
2, 55640, Note_on_c, 1, 51, 127
2, 55640, Note_on_c, 1, 60, 127
2, 55640, Note_on_c, 1, 63, 127
2, 55640, Note_on_c, 1, 66, 127
2, 55640, Note_on_c, 1, 73, 127
2, 55640, Note_on_c, 1, 77, 127
2, 55840, Note_on_c, 1, 41, 127
2, 55840, Note_on_c, 1, 48, 127
2, 55840, Note_off_c, 1, 51, 0
2, 55840, Note_off_c, 1, 60, 0
2, 55840, Note_off_c, 1, 63, 0
2, 55840, Note_off_c, 1, 66, 0
2, 55840, Note_on_c, 1, 67, 127
2, 55840, Note_on_c, 1, 70, 127
2, 55840, Note_off_c, 1, 73, 0
2, 55840, Note_off_c, 1, 77, 0
2, 55880, Note_off_c, 1, 41, 0
2, 55880, Note_off_c, 1, 48, 0
2, 55880, Note_off_c, 1, 67, 0
2, 55880, Note_off_c, 1, 70, 0
2, 55920, Note_on_c, 1, 50, 127
2, 55920, Note_on_c, 1, 55, 127
2, 55920, Note_on_c, 1, 76, 127
2, 55920, Note_on_c, 1, 78, 127
2, 56120, Note_off_c, 1, 50, 0
2, 56120, Note_off_c, 1, 55, 0
2, 56120, Note_off_c, 1, 76, 0
2, 56120, Note_off_c, 1, 78, 0
2, 56160, Note_on_c, 1, 50, 127
2, 56160, Note_on_c, 1, 59, 127
2, 56160, Note_on_c, 1, 77, 127
2, 56400, Note_off_c, 1, 50, 0
2, 56400, Note_off_c, 1, 59, 0
2, 56400, Note_off_c, 1, 77, 0
2, 56440, Note_on_c, 1, 57, 127
2, 56440, Note_on_c, 1, 64, 127
2, 56440, Note_on_c, 1, 76, 127
2, 56680, Note_off_c, 1, 64, 0
2, 56720, Note_on_c, 1, 64, 127
2, 56720, Note_on_c, 1, 72, 127
2, 56720, Note_off_c, 1, 76, 0
2, 56720, Note_on_c, 1, 77, 127
2, 56880, Note_off_c, 1, 57, 0
2, 56880, Note_on_c, 1, 61, 127
2, 56880, Note_off_c, 1, 64, 0
2, 56880, Note_off_c, 1, 72, 0
2, 56880, Note_on_c, 1, 76, 127
2, 56880, Note_off_c, 1, 77, 0
2, 56880, Note_on_c, 1, 82, 127
2, 56880, Note_on_c, 1, 88, 127
2, 56920, Note_on_c, 1, 57, 127
2, 56920, Note_off_c, 1, 61, 0
2, 56920, Note_on_c, 1, 72, 127
2, 56920, Note_off_c, 1, 76, 0
2, 56920, Note_off_c, 1, 82, 0
2, 56920, Note_off_c, 1, 88, 0
2, 56960, Note_on_c, 1, 50, 127
2, 56960, Note_on_c, 1, 65, 127
2, 56960, Note_off_c, 1, 72, 0
2, 56960, Note_on_c, 1, 77, 127
2, 57120, Note_off_c, 1, 50, 0
2, 57120, Note_off_c, 1, 57, 0
2, 57120, Note_off_c, 1, 65, 0
2, 57120, Note_off_c, 1, 77, 0
2, 57160, Note_on_c, 1, 50, 127
2, 57160, Note_on_c, 1, 57, 127
2, 57160, Note_on_c, 1, 65, 127
2, 57160, Note_on_c, 1, 77, 127
2, 57240, Note_off_c, 1, 50, 0
2, 57240, Note_off_c, 1, 57, 0
2, 57240, Note_off_c, 1, 65, 0
2, 57240, Note_off_c, 1, 77, 0
2, 57280, Note_on_c, 1, 60, 127
2, 57280, Note_on_c, 1, 64, 127
2, 57280, Note_on_c, 1, 72, 127
2, 57280, Note_on_c, 1, 76, 127
2, 57280, Note_on_c, 1, 79, 127
2, 57520, Note_off_c, 1, 60, 0
2, 57520, Note_off_c, 1, 64, 0
2, 57560, Note_on_c, 1, 48, 127
2, 57560, Note_on_c, 1, 66, 127
2, 57560, Note_on_c, 1, 74, 127
2, 57560, Note_off_c, 1, 76, 0
2, 57560, Note_off_c, 1, 79, 0
2, 57760, Note_on_c, 1, 60, 127
2, 57760, Note_off_c, 1, 66, 0
2, 57760, Note_off_c, 1, 72, 0
2, 57760, Note_off_c, 1, 74, 0
2, 57760, Note_on_c, 1, 76, 127
2, 58040, Note_off_c, 1, 48, 0
2, 58040, Note_off_c, 1, 60, 0
2, 58040, Note_off_c, 1, 76, 0
2, 58080, Note_on_c, 1, 49, 127
2, 58080, Note_on_c, 1, 61, 127
2, 58080, Note_on_c, 1, 76, 127
2, 58080, Note_on_c, 1, 79, 127
2, 58320, Note_off_c, 1, 49, 0
2, 58320, Note_off_c, 1, 61, 0
2, 58320, Note_off_c, 1, 76, 0
2, 58320, Note_off_c, 1, 79, 0
2, 58360, Note_on_c, 1, 49, 127
2, 58360, Note_on_c, 1, 61, 127
2, 58360, Note_on_c, 1, 76, 127
2, 58360, Note_on_c, 1, 79, 127
2, 58600, Note_off_c, 1, 49, 0
2, 58600, Note_off_c, 1, 61, 0
2, 58600, Note_off_c, 1, 76, 0
2, 58600, Note_off_c, 1, 79, 0
2, 58640, Note_on_c, 1, 50, 127
2, 58640, Note_on_c, 1, 57, 127
2, 58640, Note_on_c, 1, 78, 127
2, 59120, Note_off_c, 1, 50, 0
2, 59120, Note_off_c, 1, 57, 0
2, 59160, Note_off_c, 1, 78, 0
2, 59200, Note_on_c, 1, 50, 127
2, 59200, Note_on_c, 1, 62, 127
2, 59200, Note_on_c, 1, 78, 127
2, 59440, Note_off_c, 1, 78, 0
2, 59480, Note_on_c, 1, 74, 127
2, 59720, Note_off_c, 1, 50, 0
2, 59720, Note_off_c, 1, 62, 0
2, 59720, Note_off_c, 1, 74, 0
2, 59760, Note_on_c, 1, 43, 127
2, 59760, Note_on_c, 1, 62, 127
2, 59760, Note_on_c, 1, 71, 127
2, 59960, Note_off_c, 1, 43, 0
2, 60000, Note_on_c, 1, 50, 127
2, 60240, Note_off_c, 1, 50, 0
2, 60240, Note_off_c, 1, 62, 0
2, 60240, Note_off_c, 1, 71, 0
2, 60280, Note_on_c, 1, 59, 127
2, 60280, Note_on_c, 1, 67, 127
2, 60280, Note_on_c, 1, 74, 127
2, 60480, Note_off_c, 1, 74, 0
2, 60520, Note_on_c, 1, 77, 127
2, 60720, Note_off_c, 1, 67, 0
2, 60760, Note_off_c, 1, 59, 0
2, 60760, Note_off_c, 1, 77, 0
2, 60800, Note_on_c, 1, 59, 127
2, 60800, Note_on_c, 1, 62, 127
2, 60800, Note_on_c, 1, 79, 127
2, 61040, Note_off_c, 1, 59, 0
2, 61040, Note_off_c, 1, 62, 0
2, 61040, Note_off_c, 1, 79, 0
2, 61080, Note_on_c, 1, 60, 127
2, 61080, Note_on_c, 1, 64, 127
2, 61080, Note_on_c, 1, 81, 127
2, 61200, Note_off_c, 1, 60, 0
2, 61200, Note_off_c, 1, 64, 0
2, 61200, Note_off_c, 1, 81, 0
2, 61240, Note_on_c, 1, 60, 127
2, 61240, Note_on_c, 1, 64, 127
2, 61240, Note_on_c, 1, 81, 127
2, 61280, Note_off_c, 1, 60, 0
2, 61280, Note_off_c, 1, 64, 0
2, 61280, Note_off_c, 1, 81, 0
2, 61320, Note_on_c, 1, 59, 127
2, 61320, Note_on_c, 1, 62, 127
2, 61320, Note_on_c, 1, 79, 127
2, 61560, Note_off_c, 1, 59, 0
2, 61560, Note_off_c, 1, 62, 0
2, 61560, Note_off_c, 1, 79, 0
2, 61600, Note_on_c, 1, 59, 127
2, 61600, Note_on_c, 1, 62, 127
2, 61600, Note_on_c, 1, 74, 127
2, 61840, Note_off_c, 1, 59, 0
2, 61840, Note_off_c, 1, 62, 0
2, 61840, Note_off_c, 1, 74, 0
2, 61880, Note_on_c, 1, 59, 127
2, 61880, Note_on_c, 1, 67, 127
2, 61880, Note_on_c, 1, 74, 127
2, 62120, Note_off_c, 1, 59, 0
2, 62120, Note_off_c, 1, 67, 0
2, 62120, Note_off_c, 1, 74, 0
2, 62160, Note_on_c, 1, 62, 127
2, 62160, Note_on_c, 1, 67, 127
2, 62160, Note_on_c, 1, 77, 127
2, 62360, Note_off_c, 1, 62, 0
2, 62360, Note_off_c, 1, 67, 0
2, 62360, Note_off_c, 1, 77, 0
2, 62400, Note_on_c, 1, 60, 127
2, 62400, Note_on_c, 1, 69, 127
2, 62400, Note_on_c, 1, 75, 127
2, 62640, Note_off_c, 1, 60, 0
2, 62640, Note_off_c, 1, 69, 0
2, 62640, Note_off_c, 1, 75, 0
2, 62680, Note_on_c, 1, 52, 127
2, 62680, Note_on_c, 1, 64, 127
2, 62680, Note_on_c, 1, 67, 127
2, 62680, Note_on_c, 1, 72, 127
2, 62920, Note_off_c, 1, 52, 0
2, 62920, Note_off_c, 1, 64, 0
2, 62920, Note_off_c, 1, 67, 0
2, 62920, Note_off_c, 1, 72, 0
2, 62960, Note_on_c, 1, 55, 127
2, 62960, Note_on_c, 1, 67, 127
2, 62960, Note_on_c, 1, 71, 127
2, 62960, Note_on_c, 1, 74, 127
2, 63160, Note_off_c, 1, 71, 0
2, 63160, Note_off_c, 1, 74, 0
2, 63200, Note_on_c, 1, 71, 127
2, 63200, Note_on_c, 1, 74, 127
2, 63360, Note_off_c, 1, 55, 0
2, 63360, Note_off_c, 1, 67, 0
2, 63360, Note_off_c, 1, 71, 0
2, 63360, Note_off_c, 1, 74, 0
2, 63400, Note_on_c, 1, 55, 127
2, 63400, Note_on_c, 1, 67, 127
2, 63400, Note_on_c, 1, 71, 127
2, 63400, Note_on_c, 1, 74, 127
2, 63480, Note_off_c, 1, 55, 0
2, 63480, Note_off_c, 1, 67, 0
2, 63480, Note_off_c, 1, 71, 0
2, 63480, Note_off_c, 1, 74, 0
2, 63520, Note_on_c, 1, 40, 127
2, 63520, Note_on_c, 1, 52, 127
2, 63520, Note_on_c, 1, 68, 127
2, 63520, Note_on_c, 1, 71, 127
2, 63520, Note_on_c, 1, 76, 127
2, 63760, Note_off_c, 1, 40, 0
2, 63760, Note_off_c, 1, 52, 0
2, 63800, Note_on_c, 1, 66, 127
2, 63800, Note_off_c, 1, 68, 0
2, 63800, Note_on_c, 1, 74, 127
2, 63880, Note_on_c, 1, 64, 127
2, 63880, Note_off_c, 1, 66, 0
2, 63920, Note_off_c, 1, 64, 0
2, 63920, Note_on_c, 1, 66, 127
2, 63960, Note_off_c, 1, 66, 0
2, 64000, Note_off_c, 1, 71, 0
2, 64000, Note_off_c, 1, 74, 0
2, 64000, Note_off_c, 1, 76, 0
2, 64040, Note_on_c, 1, 68, 127
2, 64040, Note_on_c, 1, 71, 127
2, 64040, Note_on_c, 1, 74, 127
2, 64040, Note_on_c, 1, 76, 127
2, 64280, Note_off_c, 1, 76, 0
2, 64320, Note_on_c, 1, 76, 127
2, 64400, Note_on_c, 1, 59, 127
2, 64400, Note_off_c, 1, 68, 0
2, 64400, Note_on_c, 1, 70, 127
2, 64400, Note_off_c, 1, 71, 0
2, 64400, Note_on_c, 1, 73, 127
2, 64400, Note_off_c, 1, 74, 0
2, 64400, Note_off_c, 1, 76, 0
2, 64400, Note_on_c, 1, 78, 127
2, 64440, Note_off_c, 1, 59, 0
2, 64440, Note_on_c, 1, 68, 127
2, 64440, Note_off_c, 1, 70, 0
2, 64440, Note_on_c, 1, 71, 127
2, 64440, Note_off_c, 1, 73, 0
2, 64440, Note_on_c, 1, 74, 127
2, 64440, Note_on_c, 1, 76, 127
2, 64440, Note_off_c, 1, 78, 0
2, 64560, Note_off_c, 1, 68, 0
2, 64560, Note_off_c, 1, 71, 0
2, 64560, Note_off_c, 1, 74, 0
2, 64560, Note_off_c, 1, 76, 0
2, 64600, Note_on_c, 1, 64, 127
2, 64600, Note_on_c, 1, 68, 127
2, 64600, Note_on_c, 1, 71, 127
2, 64600, Note_on_c, 1, 74, 127
2, 65040, Note_off_c, 1, 64, 0
2, 65040, Note_off_c, 1, 68, 0
2, 65040, Note_off_c, 1, 71, 0
2, 65040, Note_off_c, 1, 74, 0
2, 65080, Note_on_c, 1, 64, 127
2, 65120, Note_on_c, 1, 69, 127
2, 65120, Note_on_c, 1, 78, 127
2, 65320, Note_off_c, 1, 64, 0
2, 65320, Note_off_c, 1, 69, 0
2, 65320, Note_off_c, 1, 78, 0
2, 65400, Note_on_c, 1, 64, 127
2, 65400, Note_on_c, 1, 69, 127
2, 65400, Note_on_c, 1, 78, 127
2, 65600, Note_off_c, 1, 69, 0
2, 65640, Note_on_c, 1, 76, 127
2, 65640, Note_off_c, 1, 78, 0
2, 65680, Note_on_c, 1, 68, 127
2, 65840, Note_off_c, 1, 64, 0
2, 65840, Note_off_c, 1, 68, 0
2, 65840, Note_off_c, 1, 76, 0
2, 65960, Note_on_c, 1, 64, 127
2, 65960, Note_on_c, 1, 68, 127
2, 65960, Note_on_c, 1, 71, 127
2, 65960, Note_on_c, 1, 74, 127
2, 65960, Note_on_c, 1, 76, 127
2, 66160, Note_on_c, 1, 55, 127
2, 66160, Note_on_c, 1, 59, 127
2, 66160, Note_off_c, 1, 64, 0
2, 66160, Note_on_c, 1, 67, 127
2, 66160, Note_off_c, 1, 68, 0
2, 66160, Note_off_c, 1, 71, 0
2, 66160, Note_off_c, 1, 74, 0
2, 66200, Note_off_c, 1, 55, 0
2, 66200, Note_off_c, 1, 59, 0
2, 66200, Note_off_c, 1, 67, 0
2, 66200, Note_off_c, 1, 76, 0
2, 66240, Note_on_c, 1, 64, 127
2, 66240, Note_on_c, 1, 68, 127
2, 66240, Note_on_c, 1, 71, 127
2, 66240, Note_on_c, 1, 74, 127
2, 66240, Note_on_c, 1, 76, 127
2, 66440, Note_off_c, 1, 64, 0
2, 66440, Note_off_c, 1, 68, 0
2, 66440, Note_off_c, 1, 71, 0
2, 66440, Note_off_c, 1, 74, 0
2, 66440, Note_off_c, 1, 76, 0
2, 66480, Note_on_c, 1, 64, 127
2, 66480, Note_on_c, 1, 68, 127
2, 66480, Note_on_c, 1, 71, 127
2, 66480, Note_on_c, 1, 74, 127
2, 66480, Note_on_c, 1, 76, 127
2, 66720, Note_off_c, 1, 64, 0
2, 66720, Note_off_c, 1, 68, 0
2, 66720, Note_off_c, 1, 71, 0
2, 66720, Note_off_c, 1, 74, 0
2, 66720, Note_off_c, 1, 76, 0
2, 66760, Note_on_c, 1, 64, 127
2, 66760, Note_on_c, 1, 68, 127
2, 66760, Note_on_c, 1, 71, 127
2, 66760, Note_on_c, 1, 74, 127
2, 66760, Note_on_c, 1, 76, 127
2, 67000, Note_off_c, 1, 64, 0
2, 67000, Note_off_c, 1, 68, 0
2, 67000, Note_off_c, 1, 71, 0
2, 67000, Note_off_c, 1, 74, 0
2, 67000, Note_off_c, 1, 76, 0
2, 67040, Note_on_c, 1, 64, 127
2, 67040, Note_on_c, 1, 68, 127
2, 67040, Note_on_c, 1, 71, 127
2, 67040, Note_on_c, 1, 74, 127
2, 67040, Note_on_c, 1, 76, 127
2, 67080, Note_off_c, 1, 64, 0
2, 67080, Note_off_c, 1, 68, 0
2, 67280, Note_off_c, 1, 71, 0
2, 67280, Note_off_c, 1, 74, 0
2, 67280, Note_off_c, 1, 76, 0
2, 67360, Note_on_c, 1, 71, 127
2, 67360, Note_on_c, 1, 74, 127
2, 67360, Note_on_c, 1, 76, 127
2, 67560, Note_off_c, 1, 71, 0
2, 67560, Note_off_c, 1, 74, 0
2, 67560, Note_off_c, 1, 76, 0
2, 67600, Note_on_c, 1, 71, 127
2, 67600, Note_on_c, 1, 74, 127
2, 67600, Note_on_c, 1, 76, 127
2, 67840, Note_off_c, 1, 71, 0
2, 67840, Note_off_c, 1, 74, 0
2, 67840, Note_off_c, 1, 76, 0
2, 67880, Note_on_c, 1, 71, 127
2, 67880, Note_on_c, 1, 74, 127
2, 67880, Note_on_c, 1, 76, 127
2, 68360, Note_off_c, 1, 71, 0
2, 68360, Note_off_c, 1, 74, 0
2, 68360, Note_off_c, 1, 76, 0
2, 68400, Note_on_c, 1, 71, 127
2, 68400, Note_on_c, 1, 74, 127
2, 68400, Note_on_c, 1, 77, 127
2, 68640, Note_off_c, 1, 71, 0
2, 68640, Note_off_c, 1, 74, 0
2, 68640, Note_off_c, 1, 77, 0
2, 68680, Note_on_c, 1, 71, 127
2, 68680, Note_on_c, 1, 74, 127
2, 68680, Note_on_c, 1, 77, 127
2, 68880, Note_off_c, 1, 71, 0
2, 68880, Note_off_c, 1, 74, 0
2, 68880, Note_off_c, 1, 77, 0
2, 68960, Note_on_c, 1, 71, 127
2, 68960, Note_on_c, 1, 74, 127
2, 68960, Note_on_c, 1, 77, 127
2, 69160, Note_off_c, 1, 71, 0
2, 69160, Note_off_c, 1, 74, 0
2, 69160, Note_off_c, 1, 77, 0
2, 69200, Note_on_c, 1, 70, 127
2, 69200, Note_on_c, 1, 73, 127
2, 69200, Note_on_c, 1, 76, 127
2, 69200, Note_on_c, 1, 78, 127
2, 69400, Note_off_c, 1, 70, 0
2, 69400, Note_off_c, 1, 73, 0
2, 69400, Note_off_c, 1, 76, 0
2, 69400, Note_off_c, 1, 78, 0
2, 69440, Note_on_c, 1, 70, 127
2, 69440, Note_on_c, 1, 73, 127
2, 69440, Note_on_c, 1, 76, 127
2, 69440, Note_on_c, 1, 78, 127
2, 69480, Note_off_c, 1, 70, 0
2, 69480, Note_off_c, 1, 73, 0
2, 69480, Note_off_c, 1, 76, 0
2, 69480, Note_off_c, 1, 78, 0
2, 69520, Note_on_c, 1, 35, 127
2, 69520, Note_on_c, 1, 66, 127
2, 69520, Note_on_c, 1, 69, 127
2, 69520, Note_on_c, 1, 71, 127
2, 69520, Note_on_c, 1, 75, 127
2, 69560, Note_off_c, 1, 35, 0
2, 69560, Note_on_c, 1, 64, 127
2, 69560, Note_off_c, 1, 66, 0
2, 69560, Note_on_c, 1, 67, 127
2, 69560, Note_off_c, 1, 69, 0
2, 69560, Note_off_c, 1, 75, 0
2, 69560, Note_on_c, 1, 76, 127
2, 69560, Note_on_c, 1, 88, 127
2, 69600, Note_on_c, 1, 61, 127
2, 69600, Note_off_c, 1, 64, 0
2, 69600, Note_off_c, 1, 67, 0
2, 69600, Note_on_c, 1, 69, 127
2, 69600, Note_off_c, 1, 71, 0
2, 69600, Note_on_c, 1, 73, 127
2, 69600, Note_off_c, 1, 76, 0
2, 69600, Note_on_c, 1, 77, 127
2, 69600, Note_on_c, 1, 85, 127
2, 69600, Note_off_c, 1, 88, 0
2, 69640, Note_on_c, 1, 53, 127
2, 69640, Note_on_c, 1, 60, 127
2, 69640, Note_off_c, 1, 61, 0
2, 69640, Note_on_c, 1, 65, 127
2, 69640, Note_off_c, 1, 73, 0
2, 69640, Note_on_c, 1, 74, 127
2, 69640, Note_off_c, 1, 85, 0
2, 69680, Note_off_c, 1, 53, 0
2, 69680, Note_off_c, 1, 60, 0
2, 69680, Note_off_c, 1, 65, 0
2, 69680, Note_on_c, 1, 67, 127
2, 69680, Note_off_c, 1, 69, 0
2, 69680, Note_on_c, 1, 71, 127
2, 69680, Note_off_c, 1, 74, 0
2, 69680, Note_on_c, 1, 76, 127
2, 69680, Note_off_c, 1, 77, 0
2, 69680, Note_on_c, 1, 78, 127
2, 69720, Note_off_c, 1, 67, 0
2, 69720, Note_off_c, 1, 71, 0
2, 69720, Note_off_c, 1, 76, 0
2, 69720, Note_off_c, 1, 78, 0
2, 69760, Note_on_c, 1, 40, 127
2, 69760, Note_on_c, 1, 64, 127
2, 69760, Note_on_c, 1, 67, 127
2, 69760, Note_on_c, 1, 71, 127
2, 70000, Note_off_c, 1, 40, 0
2, 70000, Note_off_c, 1, 64, 0
2, 70000, Note_on_c, 1, 66, 127
2, 70000, Note_off_c, 1, 67, 0
2, 70000, Note_on_c, 1, 70, 127
2, 70000, Note_off_c, 1, 71, 0
2, 70000, Note_on_c, 1, 73, 127
2, 70040, Note_on_c, 1, 40, 127
2, 70040, Note_on_c, 1, 64, 127
2, 70040, Note_off_c, 1, 66, 0
2, 70040, Note_on_c, 1, 67, 127
2, 70040, Note_off_c, 1, 70, 0
2, 70040, Note_on_c, 1, 71, 127
2, 70040, Note_off_c, 1, 73, 0
2, 70080, Note_off_c, 1, 40, 0
2, 70200, Note_off_c, 1, 64, 0
2, 70200, Note_off_c, 1, 67, 0
2, 70200, Note_off_c, 1, 71, 0
2, 70240, Note_on_c, 1, 64, 127
2, 70240, Note_on_c, 1, 67, 127
2, 70240, Note_on_c, 1, 70, 127
2, 70240, Note_on_c, 1, 73, 127
2, 70280, Note_off_c, 1, 64, 0
2, 70280, Note_off_c, 1, 67, 0
2, 70280, Note_off_c, 1, 70, 0
2, 70280, Note_off_c, 1, 73, 0
2, 70320, Note_on_c, 1, 40, 127
2, 70320, Note_on_c, 1, 64, 127
2, 70320, Note_on_c, 1, 67, 127
2, 70320, Note_on_c, 1, 71, 127
2, 70360, Note_off_c, 1, 40, 0
2, 70360, Note_off_c, 1, 64, 0
2, 70360, Note_off_c, 1, 67, 0
2, 70360, Note_off_c, 1, 71, 0
2, 70480, Note_on_c, 1, 64, 127
2, 70480, Note_on_c, 1, 67, 127
2, 70480, Note_on_c, 1, 71, 127
2, 70520, Note_off_c, 1, 64, 0
2, 70520, Note_off_c, 1, 67, 0
2, 70520, Note_off_c, 1, 71, 0
2, 70600, Note_on_c, 1, 59, 127
2, 70600, Note_on_c, 1, 67, 127
2, 70600, Note_on_c, 1, 71, 127
2, 70600, Note_on_c, 1, 76, 127
2, 70640, Note_off_c, 1, 59, 0
2, 70640, Note_on_c, 1, 63, 127
2, 70640, Note_off_c, 1, 76, 0
2, 70800, Note_off_c, 1, 63, 0
2, 70840, Note_off_c, 1, 67, 0
2, 70840, Note_off_c, 1, 71, 0
2, 70880, Note_on_c, 1, 36, 127
2, 70880, Note_on_c, 1, 48, 127
2, 70880, Note_on_c, 1, 64, 127
2, 70880, Note_on_c, 1, 67, 127
2, 70880, Note_on_c, 1, 70, 127
2, 70920, Note_off_c, 1, 64, 0
2, 70920, Note_off_c, 1, 67, 0
2, 70920, Note_off_c, 1, 70, 0
2, 71000, Note_on_c, 1, 67, 127
2, 71000, Note_on_c, 1, 70, 127
2, 71040, Note_off_c, 1, 67, 0
2, 71040, Note_off_c, 1, 70, 0
2, 71080, Note_off_c, 1, 36, 0
2, 71080, Note_off_c, 1, 48, 0
2, 71080, Note_on_c, 1, 71, 127
2, 71120, Note_off_c, 1, 71, 0
2, 71160, Note_on_c, 1, 36, 127
2, 71160, Note_on_c, 1, 48, 127
2, 71160, Note_on_c, 1, 63, 127
2, 71160, Note_on_c, 1, 68, 127
2, 71160, Note_on_c, 1, 72, 127
2, 71360, Note_off_c, 1, 36, 0
2, 71360, Note_off_c, 1, 48, 0
2, 71360, Note_off_c, 1, 63, 0
2, 71360, Note_off_c, 1, 68, 0
2, 71360, Note_off_c, 1, 72, 0
2, 71400, Note_on_c, 1, 55, 127
2, 71400, Note_on_c, 1, 65, 127
2, 71400, Note_on_c, 1, 71, 127
2, 71400, Note_on_c, 1, 77, 127
2, 71560, Note_off_c, 1, 55, 0
2, 71560, Note_off_c, 1, 65, 0
2, 71560, Note_off_c, 1, 71, 0
2, 71560, Note_off_c, 1, 77, 0
2, 71600, Note_on_c, 1, 55, 127
2, 71600, Note_on_c, 1, 65, 127
2, 71600, Note_on_c, 1, 71, 127
2, 71600, Note_on_c, 1, 77, 127
2, 71680, Note_off_c, 1, 55, 0
2, 71680, Note_off_c, 1, 65, 0
2, 71680, Note_off_c, 1, 71, 0
2, 71680, Note_off_c, 1, 77, 0
2, 71720, Note_on_c, 1, 55, 127
2, 71720, Note_on_c, 1, 65, 127
2, 71720, Note_on_c, 1, 71, 127
2, 71720, Note_on_c, 1, 77, 127
2, 71840, Note_off_c, 1, 55, 0
2, 71880, Note_on_c, 1, 55, 127
2, 71960, Note_off_c, 1, 55, 0
2, 71960, Note_off_c, 1, 65, 0
2, 71960, Note_off_c, 1, 71, 0
2, 71960, Note_off_c, 1, 77, 0
2, 72000, Note_on_c, 1, 55, 127
2, 72000, Note_on_c, 1, 65, 127
2, 72000, Note_on_c, 1, 71, 127
2, 72000, Note_on_c, 1, 77, 127
2, 72240, Note_off_c, 1, 55, 0
2, 72240, Note_off_c, 1, 65, 0
2, 72240, Note_off_c, 1, 71, 0
2, 72240, Note_off_c, 1, 77, 0
2, 72280, Note_on_c, 1, 55, 127
2, 72280, Note_on_c, 1, 65, 127
2, 72280, Note_on_c, 1, 71, 127
2, 72280, Note_on_c, 1, 76, 127
2, 72440, Note_on_c, 1, 74, 127
2, 72440, Note_off_c, 1, 76, 0
2, 72520, Note_off_c, 1, 55, 0
2, 72520, Note_off_c, 1, 65, 0
2, 72520, Note_off_c, 1, 71, 0
2, 72520, Note_off_c, 1, 74, 0
2, 72560, Note_on_c, 1, 55, 127
2, 72560, Note_on_c, 1, 65, 127
2, 72560, Note_on_c, 1, 71, 127
2, 72560, Note_on_c, 1, 76, 127
2, 72640, Note_off_c, 1, 76, 0
2, 72680, Note_on_c, 1, 74, 127
2, 72800, Note_off_c, 1, 55, 0
2, 72800, Note_off_c, 1, 65, 0
2, 72800, Note_off_c, 1, 71, 0
2, 72800, Note_off_c, 1, 74, 0
2, 72840, Note_on_c, 1, 36, 127
2, 72840, Note_on_c, 1, 48, 127
2, 72840, Note_on_c, 1, 60, 127
2, 72840, Note_on_c, 1, 64, 127
2, 72840, Note_on_c, 1, 69, 127
2, 73080, Note_off_c, 1, 36, 0
2, 73080, Note_off_c, 1, 48, 0
2, 73080, Note_off_c, 1, 60, 0
2, 73080, Note_off_c, 1, 64, 0
2, 73080, Note_off_c, 1, 69, 0
2, 73120, Note_on_c, 1, 55, 127
2, 73120, Note_on_c, 1, 65, 127
2, 73120, Note_on_c, 1, 67, 127
2, 73120, Note_on_c, 1, 71, 127
2, 73120, Note_on_c, 1, 74, 127
2, 73640, Note_off_c, 1, 55, 0
2, 73640, Note_off_c, 1, 65, 0
2, 73640, Note_off_c, 1, 67, 0
2, 73640, Note_off_c, 1, 71, 0
2, 73640, Note_off_c, 1, 74, 0
2, 73680, Note_on_c, 1, 55, 127
2, 73680, Note_on_c, 1, 65, 127
2, 73680, Note_on_c, 1, 67, 127
2, 73680, Note_on_c, 1, 71, 127
2, 73680, Note_on_c, 1, 74, 127
2, 74200, Note_off_c, 1, 55, 0
2, 74200, Note_off_c, 1, 65, 0
2, 74200, Note_off_c, 1, 71, 0
2, 74200, Note_off_c, 1, 74, 0
2, 74240, Note_on_c, 1, 60, 127
2, 74240, Note_on_c, 1, 75, 127
2, 74240, Note_on_c, 1, 79, 127
2, 74480, Note_off_c, 1, 60, 0
2, 74480, Note_off_c, 1, 67, 0
2, 74480, Note_off_c, 1, 75, 0
2, 74480, Note_off_c, 1, 79, 0
2, 74520, Note_on_c, 1, 56, 127
2, 74520, Note_on_c, 1, 65, 127
2, 74520, Note_on_c, 1, 71, 127
2, 74680, Note_off_c, 1, 65, 0
2, 74720, Note_on_c, 1, 55, 127
2, 74720, Note_off_c, 1, 56, 0
2, 74720, Note_on_c, 1, 58, 127
2, 74720, Note_on_c, 1, 62, 127
2, 74720, Note_on_c, 1, 67, 127
2, 74720, Note_on_c, 1, 70, 127
2, 74720, Note_off_c, 1, 71, 0
2, 74760, Note_off_c, 1, 55, 0
2, 74760, Note_off_c, 1, 58, 0
2, 74760, Note_off_c, 1, 62, 0
2, 74760, Note_off_c, 1, 67, 0
2, 74760, Note_off_c, 1, 70, 0
2, 74800, Note_on_c, 1, 64, 127
2, 74800, Note_on_c, 1, 86, 127
2, 74800, Note_on_c, 1, 87, 127
2, 74800, Note_on_c, 1, 89, 127
2, 74800, Note_on_c, 1, 90, 127
2, 74840, Note_on_c, 1, 39, 127
2, 74840, Note_on_c, 1, 48, 127
2, 74840, Note_off_c, 1, 64, 0
2, 74840, Note_on_c, 1, 84, 127
2, 74840, Note_off_c, 1, 86, 0
2, 74840, Note_off_c, 1, 87, 0
2, 74840, Note_off_c, 1, 89, 0
2, 74840, Note_off_c, 1, 90, 0
2, 74880, Note_off_c, 1, 39, 0
2, 74880, Note_off_c, 1, 48, 0
2, 74880, Note_on_c, 1, 65, 127
2, 74880, Note_on_c, 1, 68, 127
2, 74880, Note_on_c, 1, 72, 127
2, 74880, Note_on_c, 1, 73, 127
2, 74880, Note_on_c, 1, 80, 127
2, 74880, Note_off_c, 1, 84, 0
2, 74920, Note_off_c, 1, 65, 0
2, 74920, Note_off_c, 1, 68, 0
2, 74920, Note_off_c, 1, 72, 0
2, 74920, Note_off_c, 1, 73, 0
2, 74920, Note_off_c, 1, 80, 0
2, 74920, Note_on_c, 1, 97, 127
2, 74920, Note_on_c, 1, 99, 127
2, 74920, Note_on_c, 1, 100, 127
2, 74960, Note_on_c, 1, 48, 127
2, 74960, Note_off_c, 1, 97, 0
2, 74960, Note_off_c, 1, 99, 0
2, 74960, Note_off_c, 1, 100, 0
2, 74960, Note_on_c, 1, 103, 127
2, 75000, Note_off_c, 1, 48, 0
2, 75000, Note_on_c, 1, 64, 127
2, 75000, Note_on_c, 1, 67, 127
2, 75000, Note_on_c, 1, 73, 127
2, 75000, Note_on_c, 1, 82, 127
2, 75000, Note_on_c, 1, 85, 127
2, 75000, Note_on_c, 1, 94, 127
2, 75000, Note_off_c, 1, 103, 0
2, 75040, Note_off_c, 1, 64, 0
2, 75040, Note_off_c, 1, 67, 0
2, 75040, Note_off_c, 1, 73, 0
2, 75040, Note_off_c, 1, 82, 0
2, 75040, Note_off_c, 1, 85, 0
2, 75040, Note_off_c, 1, 94, 0
2, 75080, Note_on_c, 1, 40, 127
2, 75080, Note_on_c, 1, 45, 127
2, 75080, Note_on_c, 1, 52, 127
2, 75080, Note_on_c, 1, 83, 127
2, 75320, Note_off_c, 1, 40, 0
2, 75320, Note_off_c, 1, 45, 0
2, 75320, Note_off_c, 1, 52, 0
2, 75320, Note_off_c, 1, 83, 0
2, 75360, Note_on_c, 1, 57, 127
2, 75360, Note_on_c, 1, 64, 127
2, 75360, Note_on_c, 1, 73, 127
2, 75360, Note_on_c, 1, 76, 127
2, 75360, Note_on_c, 1, 81, 127
2, 75600, Note_off_c, 1, 57, 0
2, 75600, Note_off_c, 1, 64, 0
2, 75600, Note_off_c, 1, 73, 0
2, 75600, Note_off_c, 1, 76, 0
2, 75600, Note_off_c, 1, 81, 0
2, 75640, Note_on_c, 1, 45, 127
2, 75640, Note_on_c, 1, 53, 127
2, 75640, Note_on_c, 1, 57, 127
2, 75640, Note_on_c, 1, 72, 127
2, 75640, Note_on_c, 1, 77, 127
2, 75640, Note_on_c, 1, 84, 127
2, 75800, Note_off_c, 1, 45, 0
2, 75800, Note_off_c, 1, 53, 0
2, 75800, Note_off_c, 1, 57, 0
2, 75800, Note_off_c, 1, 72, 0
2, 75800, Note_off_c, 1, 77, 0
2, 75800, Note_off_c, 1, 84, 0
2, 75840, Note_on_c, 1, 45, 127
2, 75840, Note_on_c, 1, 53, 127
2, 75840, Note_on_c, 1, 57, 127
2, 75840, Note_on_c, 1, 72, 127
2, 75840, Note_on_c, 1, 77, 127
2, 75840, Note_on_c, 1, 84, 127
2, 75920, Note_off_c, 1, 45, 0
2, 75920, Note_off_c, 1, 53, 0
2, 75920, Note_off_c, 1, 57, 0
2, 75920, Note_off_c, 1, 72, 0
2, 75920, Note_off_c, 1, 77, 0
2, 75920, Note_off_c, 1, 84, 0
2, 75960, Note_on_c, 1, 50, 127
2, 75960, Note_on_c, 1, 57, 127
2, 75960, Note_on_c, 1, 64, 127
2, 75960, Note_on_c, 1, 76, 127
2, 76200, Note_off_c, 1, 50, 0
2, 76200, Note_off_c, 1, 57, 0
2, 76200, Note_off_c, 1, 64, 0
2, 76200, Note_off_c, 1, 76, 0
2, 76240, Note_on_c, 1, 38, 127
2, 76240, Note_on_c, 1, 62, 127
2, 76240, Note_on_c, 1, 66, 127
2, 76240, Note_on_c, 1, 78, 127
2, 76480, Note_off_c, 1, 38, 0
2, 76480, Note_off_c, 1, 62, 0
2, 76480, Note_off_c, 1, 66, 0
2, 76480, Note_off_c, 1, 78, 0
2, 76520, Note_on_c, 1, 38, 127
2, 76520, Note_on_c, 1, 61, 127
2, 76520, Note_on_c, 1, 76, 127
2, 76520, Note_on_c, 1, 78, 127
2, 76760, Note_off_c, 1, 38, 0
2, 76760, Note_off_c, 1, 61, 0
2, 76760, Note_off_c, 1, 76, 0
2, 76760, Note_off_c, 1, 78, 0
2, 76760, Note_on_c, 1, 79, 127
2, 76800, Note_on_c, 1, 66, 127
2, 76800, Note_on_c, 1, 81, 127
2, 76960, Note_off_c, 1, 66, 0
2, 76960, Note_off_c, 1, 81, 0
2, 77000, Note_on_c, 1, 44, 127
2, 77000, Note_on_c, 1, 51, 127
2, 77000, Note_on_c, 1, 54, 127
2, 77000, Note_on_c, 1, 56, 127
2, 77000, Note_on_c, 1, 60, 127
2, 77000, Note_on_c, 1, 63, 127
2, 77000, Note_on_c, 1, 68, 127
2, 77000, Note_off_c, 1, 79, 0
2, 77040, Note_off_c, 1, 44, 0
2, 77040, Note_off_c, 1, 51, 0
2, 77040, Note_off_c, 1, 54, 0
2, 77040, Note_off_c, 1, 56, 0
2, 77040, Note_off_c, 1, 60, 0
2, 77040, Note_off_c, 1, 63, 0
2, 77040, Note_off_c, 1, 68, 0
2, 77080, Note_on_c, 1, 58, 127
2, 77080, Note_on_c, 1, 68, 127
2, 77080, Note_on_c, 1, 74, 127
2, 77080, Note_on_c, 1, 80, 127
2, 77080, Note_on_c, 1, 91, 127
2, 77120, Note_on_c, 1, 31, 127
2, 77120, Note_on_c, 1, 38, 127
2, 77120, Note_on_c, 1, 43, 127
2, 77120, Note_off_c, 1, 58, 0
2, 77120, Note_off_c, 1, 68, 0
2, 77120, Note_off_c, 1, 80, 0
2, 77120, Note_on_c, 1, 86, 127
2, 77120, Note_off_c, 1, 91, 0
2, 77160, Note_off_c, 1, 31, 0
2, 77160, Note_off_c, 1, 38, 0
2, 77160, Note_off_c, 1, 43, 0
2, 77160, Note_on_c, 1, 68, 127
2, 77160, Note_off_c, 1, 74, 0
2, 77160, Note_on_c, 1, 80, 127
2, 77160, Note_off_c, 1, 86, 0
2, 77160, Note_on_c, 1, 88, 127
2, 77160, Note_on_c, 1, 96, 127
2, 77160, Note_on_c, 1, 100, 127
2, 77200, Note_on_c, 1, 39, 127
2, 77200, Note_on_c, 1, 42, 127
2, 77200, Note_on_c, 1, 46, 127
2, 77200, Note_on_c, 1, 51, 127
2, 77200, Note_on_c, 1, 54, 127
2, 77200, Note_on_c, 1, 58, 127
2, 77200, Note_on_c, 1, 63, 127
2, 77200, Note_on_c, 1, 66, 127
2, 77200, Note_off_c, 1, 68, 0
2, 77200, Note_off_c, 1, 80, 0
2, 77200, Note_off_c, 1, 88, 0
2, 77200, Note_off_c, 1, 96, 0
2, 77200, Note_off_c, 1, 100, 0
2, 77240, Note_off_c, 1, 39, 0
2, 77240, Note_off_c, 1, 42, 0
2, 77240, Note_off_c, 1, 46, 0
2, 77240, Note_off_c, 1, 51, 0
2, 77240, Note_on_c, 1, 53, 127
2, 77240, Note_off_c, 1, 54, 0
2, 77240, Note_on_c, 1, 61, 127
2, 77240, Note_off_c, 1, 63, 0
2, 77240, Note_on_c, 1, 64, 127
2, 77240, Note_off_c, 1, 66, 0
2, 77240, Note_on_c, 1, 80, 127
2, 77280, Note_off_c, 1, 53, 0
2, 77280, Note_off_c, 1, 58, 0
2, 77280, Note_off_c, 1, 61, 0
2, 77280, Note_off_c, 1, 64, 0
2, 77280, Note_off_c, 1, 80, 0
2, 77360, Note_on_c, 1, 50, 127
2, 77360, Note_on_c, 1, 56, 127
2, 77360, Note_on_c, 1, 59, 127
2, 77360, Note_on_c, 1, 65, 127
2, 77360, Note_on_c, 1, 75, 127
2, 77360, Note_on_c, 1, 87, 127
2, 77400, Note_on_c, 1, 47, 127
2, 77400, Note_off_c, 1, 50, 0
2, 77400, Note_on_c, 1, 55, 127
2, 77400, Note_off_c, 1, 56, 0
2, 77400, Note_off_c, 1, 65, 0
2, 77400, Note_on_c, 1, 67, 127
2, 77400, Note_off_c, 1, 75, 0
2, 77400, Note_on_c, 1, 76, 127
2, 77400, Note_on_c, 1, 79, 127
2, 77400, Note_off_c, 1, 87, 0
2, 77560, Note_off_c, 1, 47, 0
2, 77560, Note_off_c, 1, 55, 0
2, 77560, Note_off_c, 1, 59, 0
2, 77560, Note_off_c, 1, 67, 0
2, 77560, Note_off_c, 1, 76, 0
2, 77560, Note_off_c, 1, 79, 0
2, 77640, Note_on_c, 1, 38, 127
2, 77640, Note_on_c, 1, 50, 127
2, 77640, Note_on_c, 1, 59, 127
2, 77640, Note_on_c, 1, 62, 127
2, 77640, Note_on_c, 1, 67, 127
2, 77640, Note_on_c, 1, 71, 127
2, 77800, Note_off_c, 1, 38, 0
2, 77800, Note_on_c, 1, 39, 127
2, 77800, Note_off_c, 1, 50, 0
2, 77800, Note_off_c, 1, 59, 0
2, 77800, Note_off_c, 1, 62, 0
2, 77800, Note_off_c, 1, 67, 0
2, 77800, Note_on_c, 1, 70, 127
2, 77800, Note_off_c, 1, 71, 0
2, 77800, Note_on_c, 1, 82, 127
2, 77840, Note_off_c, 1, 39, 0
2, 77840, Note_off_c, 1, 70, 0
2, 77840, Note_off_c, 1, 82, 0
2, 77920, Note_on_c, 1, 51, 127
2, 77920, Note_on_c, 1, 82, 127
2, 77920, Note_on_c, 1, 91, 127
2, 77960, Note_on_c, 1, 58, 127
2, 77960, Note_on_c, 1, 61, 127
2, 77960, Note_on_c, 1, 75, 127
2, 77960, Note_off_c, 1, 82, 0
2, 77960, Note_on_c, 1, 84, 127
2, 77960, Note_off_c, 1, 91, 0
2, 78000, Note_on_c, 1, 48, 127
2, 78000, Note_off_c, 1, 51, 0
2, 78000, Note_on_c, 1, 52, 127
2, 78000, Note_off_c, 1, 58, 0
2, 78000, Note_off_c, 1, 61, 0
2, 78000, Note_off_c, 1, 75, 0
2, 78000, Note_on_c, 1, 79, 127
2, 78000, Note_on_c, 1, 83, 127
2, 78000, Note_off_c, 1, 84, 0
2, 78040, Note_off_c, 1, 48, 0
2, 78040, Note_on_c, 1, 51, 127
2, 78040, Note_off_c, 1, 52, 0
2, 78040, Note_on_c, 1, 58, 127
2, 78040, Note_on_c, 1, 61, 127
2, 78040, Note_on_c, 1, 75, 127
2, 78040, Note_off_c, 1, 79, 0
2, 78040, Note_off_c, 1, 83, 0
2, 78040, Note_on_c, 1, 84, 127
2, 78120, Note_off_c, 1, 51, 0
2, 78120, Note_off_c, 1, 58, 0
2, 78120, Note_off_c, 1, 61, 0
2, 78120, Note_on_c, 1, 62, 127
2, 78120, Note_on_c, 1, 65, 127
2, 78120, Note_on_c, 1, 74, 127
2, 78120, Note_off_c, 1, 75, 0
2, 78120, Note_on_c, 1, 77, 127
2, 78120, Note_on_c, 1, 82, 127
2, 78120, Note_off_c, 1, 84, 0
2, 78160, Note_off_c, 1, 62, 0
2, 78160, Note_off_c, 1, 65, 0
2, 78160, Note_off_c, 1, 74, 0
2, 78160, Note_off_c, 1, 77, 0
2, 78160, Note_off_c, 1, 82, 0
2, 78200, Note_on_c, 1, 52, 127
2, 78200, Note_on_c, 1, 64, 127
2, 78200, Note_on_c, 1, 71, 127
2, 78200, Note_on_c, 1, 76, 127
2, 78200, Note_on_c, 1, 80, 127
2, 78200, Note_on_c, 1, 83, 127
2, 78400, Note_off_c, 1, 52, 0
2, 78400, Note_off_c, 1, 64, 0
2, 78400, Note_off_c, 1, 71, 0
2, 78400, Note_off_c, 1, 76, 0
2, 78400, Note_off_c, 1, 80, 0
2, 78400, Note_off_c, 1, 83, 0
2, 78440, Note_on_c, 1, 64, 127
2, 78440, Note_on_c, 1, 71, 127
2, 78440, Note_on_c, 1, 83, 127
2, 78440, Note_on_c, 1, 90, 127
2, 78480, Note_on_c, 1, 57, 127
2, 78480, Note_off_c, 1, 64, 0
2, 78480, Note_off_c, 1, 71, 0
2, 78480, Note_on_c, 1, 72, 127
2, 78480, Note_off_c, 1, 83, 0
2, 78480, Note_on_c, 1, 84, 127
2, 78480, Note_on_c, 1, 88, 127
2, 78480, Note_off_c, 1, 90, 0
2, 78520, Note_on_c, 1, 42, 127
2, 78520, Note_on_c, 1, 54, 127
2, 78520, Note_off_c, 1, 57, 0
2, 78520, Note_off_c, 1, 72, 0
2, 78520, Note_on_c, 1, 74, 127
2, 78520, Note_on_c, 1, 81, 127
2, 78520, Note_on_c, 1, 86, 127
2, 78520, Note_off_c, 1, 88, 0
2, 78560, Note_off_c, 1, 42, 0
2, 78560, Note_off_c, 1, 54, 0
2, 78560, Note_on_c, 1, 57, 127
2, 78560, Note_on_c, 1, 72, 127
2, 78560, Note_off_c, 1, 74, 0
2, 78560, Note_off_c, 1, 81, 0
2, 78560, Note_off_c, 1, 86, 0
2, 78560, Note_on_c, 1, 88, 127
2, 78600, Note_on_c, 1, 49, 127
2, 78600, Note_on_c, 1, 53, 127
2, 78600, Note_off_c, 1, 57, 0
2, 78600, Note_on_c, 1, 59, 127
2, 78600, Note_on_c, 1, 68, 127
2, 78600, Note_off_c, 1, 72, 0
2, 78600, Note_on_c, 1, 73, 127
2, 78600, Note_off_c, 1, 84, 0
2, 78600, Note_off_c, 1, 88, 0
2, 78640, Note_off_c, 1, 49, 0
2, 78640, Note_off_c, 1, 53, 0
2, 78640, Note_off_c, 1, 59, 0
2, 78640, Note_off_c, 1, 73, 0
2, 78640, Note_on_c, 1, 81, 127
2, 78640, Note_on_c, 1, 82, 127
2, 78680, Note_off_c, 1, 68, 0
2, 78680, Note_off_c, 1, 81, 0
2, 78680, Note_off_c, 1, 82, 0
2, 78680, Note_on_c, 1, 88, 127
2, 78680, Note_on_c, 1, 100, 127
2, 78720, Note_on_c, 1, 54, 127
2, 78720, Note_on_c, 1, 58, 127
2, 78720, Note_on_c, 1, 85, 127
2, 78720, Note_off_c, 1, 88, 0
2, 78720, Note_on_c, 1, 97, 127
2, 78720, Note_off_c, 1, 100, 0
2, 78760, Note_on_c, 1, 48, 127
2, 78760, Note_off_c, 1, 54, 0
2, 78760, Note_off_c, 1, 58, 0
2, 78760, Note_off_c, 1, 85, 0
2, 78760, Note_off_c, 1, 97, 0
2, 78760, Note_on_c, 1, 105, 127
2, 78800, Note_on_c, 1, 41, 127
2, 78800, Note_off_c, 1, 48, 0
2, 78800, Note_on_c, 1, 53, 127
2, 78800, Note_on_c, 1, 83, 127
2, 78800, Note_on_c, 1, 86, 127
2, 78800, Note_on_c, 1, 95, 127
2, 78800, Note_off_c, 1, 105, 0
2, 78840, Note_off_c, 1, 41, 0
2, 78840, Note_off_c, 1, 53, 0
2, 78840, Note_on_c, 1, 61, 127
2, 78840, Note_on_c, 1, 73, 127
2, 78840, Note_on_c, 1, 76, 127
2, 78840, Note_on_c, 1, 79, 127
2, 78840, Note_on_c, 1, 81, 127
2, 78840, Note_off_c, 1, 83, 0
2, 78840, Note_off_c, 1, 86, 0
2, 78840, Note_off_c, 1, 95, 0
2, 78880, Note_on_c, 1, 59, 127
2, 78880, Note_off_c, 1, 61, 0
2, 78880, Note_on_c, 1, 64, 127
2, 78880, Note_on_c, 1, 68, 127
2, 78880, Note_off_c, 1, 73, 0
2, 78880, Note_off_c, 1, 76, 0
2, 78880, Note_off_c, 1, 79, 0
2, 78880, Note_off_c, 1, 81, 0
2, 78880, Note_on_c, 1, 104, 127
2, 78920, Note_on_c, 1, 30, 127
2, 78920, Note_on_c, 1, 42, 127
2, 78920, Note_off_c, 1, 59, 0
2, 78920, Note_on_c, 1, 61, 127
2, 78920, Note_off_c, 1, 68, 0
2, 78920, Note_off_c, 1, 104, 0
2, 78960, Note_off_c, 1, 30, 0
2, 78960, Note_off_c, 1, 42, 0
2, 78960, Note_off_c, 1, 61, 0
2, 78960, Note_off_c, 1, 64, 0
2, 79000, Note_on_c, 1, 36, 127
2, 79000, Note_on_c, 1, 39, 127
2, 79000, Note_on_c, 1, 44, 127
2, 79000, Note_on_c, 1, 48, 127
2, 79000, Note_on_c, 1, 75, 127
2, 79040, Note_off_c, 1, 36, 0
2, 79040, Note_off_c, 1, 39, 0
2, 79040, Note_off_c, 1, 48, 0
2, 79040, Note_off_c, 1, 75, 0
2, 79040, Note_on_c, 1, 77, 127
2, 79040, Note_on_c, 1, 80, 127
2, 79040, Note_on_c, 1, 85, 127
2, 79080, Note_off_c, 1, 44, 0
2, 79080, Note_on_c, 1, 60, 127
2, 79080, Note_on_c, 1, 64, 127
2, 79080, Note_off_c, 1, 77, 0
2, 79080, Note_off_c, 1, 80, 0
2, 79080, Note_off_c, 1, 85, 0
2, 79080, Note_on_c, 1, 88, 127
2, 79080, Note_on_c, 1, 100, 127
2, 79120, Note_on_c, 1, 33, 127
2, 79120, Note_off_c, 1, 60, 0
2, 79120, Note_on_c, 1, 62, 127
2, 79120, Note_off_c, 1, 64, 0
2, 79120, Note_on_c, 1, 86, 127
2, 79120, Note_off_c, 1, 88, 0
2, 79120, Note_off_c, 1, 100, 0
2, 79160, Note_off_c, 1, 33, 0
2, 79160, Note_off_c, 1, 62, 0
2, 79160, Note_on_c, 1, 80, 127
2, 79160, Note_on_c, 1, 83, 127
2, 79160, Note_off_c, 1, 86, 0
2, 79160, Note_on_c, 1, 89, 127
2, 79200, Note_on_c, 1, 62, 127
2, 79200, Note_on_c, 1, 65, 127
2, 79200, Note_on_c, 1, 67, 127
2, 79200, Note_on_c, 1, 71, 127
2, 79200, Note_on_c, 1, 76, 127
2, 79200, Note_off_c, 1, 80, 0
2, 79200, Note_on_c, 1, 88, 127
2, 79200, Note_off_c, 1, 89, 0
2, 79240, Note_off_c, 1, 62, 0
2, 79240, Note_off_c, 1, 65, 0
2, 79240, Note_off_c, 1, 67, 0
2, 79240, Note_off_c, 1, 71, 0
2, 79240, Note_off_c, 1, 76, 0
2, 79240, Note_off_c, 1, 83, 0
2, 79240, Note_off_c, 1, 88, 0
2, 79280, Note_on_c, 1, 30, 127
2, 79280, Note_on_c, 1, 42, 127
2, 79280, Note_on_c, 1, 58, 127
2, 79280, Note_on_c, 1, 66, 127
2, 79280, Note_on_c, 1, 70, 127
2, 79800, Note_off_c, 1, 30, 0
2, 79800, Note_off_c, 1, 42, 0
2, 79800, Note_off_c, 1, 58, 0
2, 79800, Note_off_c, 1, 66, 0
2, 79800, Note_off_c, 1, 70, 0
2, 79840, Note_on_c, 1, 30, 127
2, 79840, Note_on_c, 1, 42, 127
2, 79840, Note_on_c, 1, 58, 127
2, 79840, Note_on_c, 1, 66, 127
2, 79840, Note_on_c, 1, 70, 127
2, 80080, Note_off_c, 1, 30, 0
2, 80080, Note_off_c, 1, 42, 0
2, 80080, Note_off_c, 1, 58, 0
2, 80080, Note_off_c, 1, 66, 0
2, 80080, Note_off_c, 1, 70, 0
2, 80120, Note_on_c, 1, 52, 127
2, 80120, Note_on_c, 1, 57, 127
2, 80120, Note_on_c, 1, 60, 127
2, 80120, Note_on_c, 1, 64, 127
2, 80120, Note_on_c, 1, 84, 127
2, 80120, Note_on_c, 1, 88, 127
2, 80120, Note_on_c, 1, 93, 127
2, 80120, Note_on_c, 1, 96, 127
2, 80280, Note_off_c, 1, 52, 0
2, 80280, Note_off_c, 1, 57, 0
2, 80280, Note_off_c, 1, 60, 0
2, 80280, Note_off_c, 1, 64, 0
2, 80320, Note_on_c, 1, 52, 127
2, 80320, Note_on_c, 1, 57, 127
2, 80320, Note_on_c, 1, 60, 127
2, 80320, Note_on_c, 1, 64, 127
2, 80360, Note_off_c, 1, 52, 0
2, 80360, Note_off_c, 1, 57, 0
2, 80360, Note_off_c, 1, 60, 0
2, 80360, Note_off_c, 1, 64, 0
2, 80360, Note_off_c, 1, 84, 0
2, 80360, Note_off_c, 1, 88, 0
2, 80360, Note_off_c, 1, 93, 0
2, 80360, Note_off_c, 1, 96, 0
2, 80400, Note_on_c, 1, 50, 127
2, 80400, Note_on_c, 1, 55, 127
2, 80400, Note_on_c, 1, 77, 127
2, 80400, Note_on_c, 1, 79, 127
2, 80640, Note_off_c, 1, 50, 0
2, 80640, Note_off_c, 1, 55, 0
2, 80640, Note_off_c, 1, 77, 0
2, 80640, Note_off_c, 1, 79, 0
2, 80680, Note_on_c, 1, 36, 127
2, 80680, Note_on_c, 1, 43, 127
2, 80680, Note_on_c, 1, 48, 127
2, 80680, Note_on_c, 1, 52, 127
2, 80680, Note_on_c, 1, 60, 127
2, 81480, Note_off_c, 1, 36, 0
2, 81480, Note_off_c, 1, 43, 0
2, 81480, Note_off_c, 1, 48, 0
2, 81480, Note_off_c, 1, 52, 0
2, 81480, Note_off_c, 1, 60, 0
2, 81520, Note_on_c, 1, 67, 127
2, 81520, Note_on_c, 1, 71, 127
2, 81520, Note_on_c, 1, 74, 127
2, 81520, Note_on_c, 1, 79, 127
2, 81520, Note_on_c, 1, 83, 127
2, 81720, Note_off_c, 1, 67, 0
2, 81720, Note_off_c, 1, 71, 0
2, 81720, Note_off_c, 1, 74, 0
2, 81720, Note_off_c, 1, 79, 0
2, 81720, Note_off_c, 1, 83, 0
2, 81760, Note_on_c, 1, 57, 127
2, 81760, Note_on_c, 1, 60, 127
2, 81760, Note_on_c, 1, 64, 127
2, 81760, Note_on_c, 1, 69, 127
2, 81760, Note_on_c, 1, 76, 127
2, 81760, Note_on_c, 1, 81, 127
2, 81760, Note_on_c, 1, 84, 127
2, 81760, Note_on_c, 1, 88, 127
2, 81920, Note_off_c, 1, 57, 0
2, 81920, Note_off_c, 1, 60, 0
2, 81920, Note_off_c, 1, 64, 0
2, 81920, Note_off_c, 1, 69, 0
2, 81920, Note_off_c, 1, 76, 0
2, 81920, Note_off_c, 1, 81, 0
2, 81920, Note_off_c, 1, 84, 0
2, 81920, Note_off_c, 1, 88, 0
2, 81960, Note_on_c, 1, 57, 127
2, 81960, Note_on_c, 1, 60, 127
2, 81960, Note_on_c, 1, 64, 127
2, 81960, Note_on_c, 1, 69, 127
2, 81960, Note_on_c, 1, 76, 127
2, 81960, Note_on_c, 1, 81, 127
2, 81960, Note_on_c, 1, 84, 127
2, 81960, Note_on_c, 1, 88, 127
2, 82200, Note_off_c, 1, 57, 0
2, 82200, Note_off_c, 1, 60, 0
2, 82200, Note_off_c, 1, 64, 0
2, 82200, Note_off_c, 1, 69, 0
2, 82200, Note_off_c, 1, 76, 0
2, 82200, Note_off_c, 1, 81, 0
2, 82200, Note_off_c, 1, 84, 0
2, 82200, Note_off_c, 1, 88, 0
2, 82240, Note_on_c, 1, 49, 127
2, 82240, Note_on_c, 1, 57, 127
2, 82240, Note_on_c, 1, 64, 127
2, 82240, Note_on_c, 1, 81, 127
2, 82240, Note_on_c, 1, 93, 127
2, 82600, Note_off_c, 1, 49, 0
2, 82600, Note_off_c, 1, 57, 0
2, 82600, Note_off_c, 1, 64, 0
2, 82600, Note_off_c, 1, 81, 0
2, 82600, Note_off_c, 1, 93, 0
2, 82640, Note_on_c, 1, 38, 127
2, 82640, Note_on_c, 1, 50, 127
2, 82640, Note_on_c, 1, 62, 127
2, 82640, Note_on_c, 1, 74, 127
2, 82760, Note_off_c, 1, 38, 0
2, 82760, Note_off_c, 1, 50, 0
2, 82760, Note_off_c, 1, 62, 0
2, 82760, Note_off_c, 1, 74, 0
2, 82800, Note_on_c, 1, 43, 127
2, 82800, Note_on_c, 1, 55, 127
2, 82800, Note_on_c, 1, 59, 127
2, 82800, Note_on_c, 1, 67, 127
2, 83040, Note_off_c, 1, 43, 0
2, 83040, Note_off_c, 1, 55, 0
2, 83040, Note_off_c, 1, 59, 0
2, 83040, Note_off_c, 1, 67, 0
2, 83080, Note_on_c, 1, 43, 127
2, 83080, Note_on_c, 1, 50, 127
2, 83080, Note_on_c, 1, 59, 127
2, 83080, Note_on_c, 1, 67, 127
2, 83280, Note_off_c, 1, 43, 0
2, 83280, Note_off_c, 1, 50, 0
2, 83280, Note_off_c, 1, 59, 0
2, 83280, Note_off_c, 1, 67, 0
2, 83320, Note_on_c, 1, 48, 127
2, 83320, Note_on_c, 1, 55, 127
2, 83320, Note_on_c, 1, 60, 127
2, 83320, Note_on_c, 1, 64, 127
2, 83320, Note_on_c, 1, 67, 127
2, 83320, Note_on_c, 1, 72, 127
2, 83320, Note_on_c, 1, 76, 127
2, 83760, Note_off_c, 1, 48, 0
2, 83760, Note_off_c, 1, 55, 0
2, 83760, Note_off_c, 1, 60, 0
2, 83760, Note_off_c, 1, 64, 0
2, 83760, Note_off_c, 1, 67, 0
2, 83760, Note_off_c, 1, 72, 0
2, 83760, Note_off_c, 1, 76, 0
2, 83800, Note_on_c, 1, 48, 127
2, 83800, Note_on_c, 1, 55, 127
2, 83800, Note_on_c, 1, 60, 127
2, 83800, Note_on_c, 1, 64, 127
2, 83800, Note_on_c, 1, 67, 127
2, 83800, Note_on_c, 1, 72, 127
2, 83800, Note_on_c, 1, 76, 127
2, 83920, Note_off_c, 1, 48, 0
2, 83920, Note_off_c, 1, 55, 0
2, 83920, Note_off_c, 1, 60, 0
2, 83920, Note_off_c, 1, 64, 0
2, 83920, Note_off_c, 1, 67, 0
2, 83920, Note_off_c, 1, 72, 0
2, 83920, Note_off_c, 1, 76, 0
2, 84000, Note_on_c, 1, 48, 127
2, 84000, Note_on_c, 1, 55, 127
2, 84000, Note_on_c, 1, 60, 127
2, 84000, Note_on_c, 1, 64, 127
2, 84000, Note_on_c, 1, 67, 127
2, 84000, Note_on_c, 1, 72, 127
2, 84000, Note_on_c, 1, 76, 127
2, 84240, Note_off_c, 1, 48, 0
2, 84240, Note_off_c, 1, 55, 0
2, 84240, Note_off_c, 1, 60, 0
2, 84240, Note_off_c, 1, 64, 0
2, 84240, Note_off_c, 1, 67, 0
2, 84240, Note_off_c, 1, 72, 0
2, 84240, Note_off_c, 1, 76, 0
2, 84280, Note_on_c, 1, 41, 127
2, 84280, Note_on_c, 1, 48, 127
2, 84280, Note_on_c, 1, 53, 127
2, 84280, Note_on_c, 1, 69, 127
2, 84280, Note_on_c, 1, 72, 127
2, 84280, Note_on_c, 1, 81, 127
2, 84680, Note_off_c, 1, 41, 0
2, 84680, Note_off_c, 1, 48, 0
2, 84680, Note_off_c, 1, 53, 0
2, 84680, Note_off_c, 1, 69, 0
2, 84680, Note_off_c, 1, 72, 0
2, 84680, Note_off_c, 1, 81, 0
2, 84720, Note_on_c, 1, 46, 127
2, 84720, Note_on_c, 1, 54, 127
2, 84720, Note_on_c, 1, 61, 127
2, 84720, Note_on_c, 1, 64, 127
2, 84720, Note_on_c, 1, 66, 127
2, 84800, Note_off_c, 1, 46, 0
2, 84800, Note_off_c, 1, 54, 0
2, 84800, Note_off_c, 1, 61, 0
2, 84800, Note_off_c, 1, 64, 0
2, 84800, Note_off_c, 1, 66, 0
2, 84840, Note_on_c, 1, 42, 127
2, 84840, Note_on_c, 1, 54, 127
2, 84840, Note_on_c, 1, 69, 127
2, 84840, Note_on_c, 1, 73, 127
2, 84840, Note_on_c, 1, 78, 127
2, 84840, Note_on_c, 1, 81, 127
2, 85080, Note_off_c, 1, 42, 0
2, 85080, Note_off_c, 1, 54, 0
2, 85080, Note_off_c, 1, 69, 0
2, 85080, Note_off_c, 1, 73, 0
2, 85080, Note_off_c, 1, 78, 0
2, 85080, Note_off_c, 1, 81, 0
2, 85120, Note_on_c, 1, 42, 127
2, 85120, Note_on_c, 1, 54, 127
2, 85120, Note_on_c, 1, 69, 127
2, 85120, Note_on_c, 1, 73, 127
2, 85120, Note_on_c, 1, 78, 127
2, 85120, Note_on_c, 1, 81, 127
2, 85360, Note_off_c, 1, 42, 0
2, 85360, Note_off_c, 1, 54, 0
2, 85360, Note_off_c, 1, 69, 0
2, 85360, Note_off_c, 1, 73, 0
2, 85360, Note_off_c, 1, 78, 0
2, 85360, Note_off_c, 1, 81, 0
2, 85400, Note_on_c, 1, 44, 127
2, 85400, Note_on_c, 1, 56, 127
2, 85400, Note_on_c, 1, 68, 127
2, 85400, Note_on_c, 1, 71, 127
2, 85400, Note_on_c, 1, 76, 127
2, 85400, Note_on_c, 1, 80, 127
2, 85640, Note_off_c, 1, 44, 0
2, 85640, Note_off_c, 1, 56, 0
2, 85640, Note_off_c, 1, 68, 0
2, 85640, Note_off_c, 1, 71, 0
2, 85640, Note_off_c, 1, 76, 0
2, 85640, Note_off_c, 1, 80, 0
2, 85680, Note_on_c, 1, 47, 127
2, 85680, Note_on_c, 1, 59, 127
2, 85680, Note_on_c, 1, 69, 127
2, 85680, Note_on_c, 1, 71, 127
2, 85680, Note_on_c, 1, 75, 127
2, 85680, Note_on_c, 1, 78, 127
2, 85920, Note_off_c, 1, 47, 0
2, 85920, Note_off_c, 1, 59, 0
2, 85920, Note_off_c, 1, 69, 0
2, 85920, Note_off_c, 1, 71, 0
2, 85920, Note_off_c, 1, 75, 0
2, 85920, Note_off_c, 1, 78, 0
2, 85960, Note_on_c, 1, 47, 127
2, 85960, Note_on_c, 1, 59, 127
2, 85960, Note_on_c, 1, 69, 127
2, 85960, Note_on_c, 1, 71, 127
2, 85960, Note_on_c, 1, 75, 127
2, 85960, Note_on_c, 1, 78, 127
2, 86120, Note_off_c, 1, 47, 0
2, 86120, Note_off_c, 1, 59, 0
2, 86120, Note_off_c, 1, 69, 0
2, 86120, Note_off_c, 1, 71, 0
2, 86120, Note_off_c, 1, 75, 0
2, 86120, Note_off_c, 1, 78, 0
2, 86160, Note_on_c, 1, 47, 127
2, 86160, Note_on_c, 1, 59, 127
2, 86160, Note_on_c, 1, 69, 127
2, 86160, Note_on_c, 1, 71, 127
2, 86160, Note_on_c, 1, 75, 127
2, 86160, Note_on_c, 1, 78, 127
2, 86240, Note_off_c, 1, 47, 0
2, 86240, Note_off_c, 1, 59, 0
2, 86240, Note_off_c, 1, 69, 0
2, 86240, Note_off_c, 1, 71, 0
2, 86240, Note_off_c, 1, 75, 0
2, 86240, Note_off_c, 1, 78, 0
2, 86280, Note_on_c, 1, 47, 127
2, 86280, Note_on_c, 1, 59, 127
2, 86280, Note_on_c, 1, 69, 127
2, 86280, Note_on_c, 1, 71, 127
2, 86280, Note_on_c, 1, 75, 127
2, 86280, Note_on_c, 1, 78, 127
2, 86520, Note_off_c, 1, 47, 0
2, 86520, Note_off_c, 1, 59, 0
2, 86520, Note_off_c, 1, 69, 0
2, 86520, Note_off_c, 1, 71, 0
2, 86520, Note_off_c, 1, 75, 0
2, 86520, Note_off_c, 1, 78, 0
2, 86560, Note_on_c, 1, 52, 127
2, 86560, Note_on_c, 1, 59, 127
2, 86560, Note_on_c, 1, 64, 127
2, 86560, Note_on_c, 1, 68, 127
2, 86560, Note_on_c, 1, 71, 127
2, 86560, Note_on_c, 1, 76, 127
2, 86840, Note_off_c, 1, 52, 0
2, 86840, Note_off_c, 1, 59, 0
2, 86840, Note_off_c, 1, 64, 0
2, 86840, Note_off_c, 1, 68, 0
2, 86840, Note_off_c, 1, 71, 0
2, 86840, Note_off_c, 1, 76, 0
2, 86880, Note_on_c, 1, 38, 127
2, 86880, Note_on_c, 1, 52, 127
2, 86880, Note_on_c, 1, 57, 127
2, 86880, Note_on_c, 1, 76, 127
2, 87120, Note_off_c, 1, 38, 0
2, 87120, Note_off_c, 1, 52, 0
2, 87120, Note_off_c, 1, 57, 0
2, 87120, Note_off_c, 1, 76, 0
2, 87160, Note_on_c, 1, 57, 127
2, 87160, Note_on_c, 1, 62, 127
2, 87160, Note_on_c, 1, 67, 127
2, 87160, Note_on_c, 1, 72, 127
2, 87200, Note_off_c, 1, 62, 0
2, 87200, Note_off_c, 1, 72, 0
2, 87240, Note_on_c, 1, 62, 127
2, 87240, Note_on_c, 1, 72, 127
2, 87320, Note_off_c, 1, 57, 0
2, 87320, Note_off_c, 1, 62, 0
2, 87320, Note_off_c, 1, 72, 0
2, 87360, Note_off_c, 1, 67, 0
2, 87360, Note_on_c, 1, 74, 127
2, 87360, Note_on_c, 1, 79, 127
2, 87360, Note_on_c, 1, 82, 127
2, 87360, Note_on_c, 1, 86, 127
2, 87400, Note_off_c, 1, 74, 0
2, 87400, Note_off_c, 1, 79, 0
2, 87400, Note_off_c, 1, 82, 0
2, 87400, Note_off_c, 1, 86, 0
2, 87440, Note_on_c, 1, 47, 127
2, 87440, Note_on_c, 1, 54, 127
2, 87440, Note_on_c, 1, 61, 127
2, 87440, Note_on_c, 1, 95, 127
2, 87480, Note_off_c, 1, 47, 0
2, 87480, Note_off_c, 1, 54, 0
2, 87480, Note_on_c, 1, 55, 127
2, 87480, Note_on_c, 1, 59, 127
2, 87480, Note_off_c, 1, 61, 0
2, 87480, Note_on_c, 1, 64, 127
2, 87480, Note_on_c, 1, 67, 127
2, 87480, Note_on_c, 1, 73, 127
2, 87480, Note_off_c, 1, 95, 0
2, 87520, Note_off_c, 1, 55, 0
2, 87520, Note_on_c, 1, 57, 127
2, 87520, Note_off_c, 1, 59, 0
2, 87520, Note_on_c, 1, 62, 127
2, 87520, Note_off_c, 1, 64, 0
2, 87520, Note_off_c, 1, 67, 0
2, 87520, Note_on_c, 1, 68, 127
2, 87520, Note_off_c, 1, 73, 0
2, 87520, Note_on_c, 1, 76, 127
2, 87520, Note_on_c, 1, 88, 127
2, 87560, Note_on_c, 1, 49, 127
2, 87560, Note_on_c, 1, 55, 127
2, 87560, Note_off_c, 1, 57, 0
2, 87560, Note_off_c, 1, 62, 0
2, 87560, Note_on_c, 1, 64, 127
2, 87560, Note_off_c, 1, 68, 0
2, 87560, Note_on_c, 1, 69, 127
2, 87560, Note_on_c, 1, 73, 127
2, 87560, Note_off_c, 1, 76, 0
2, 87560, Note_off_c, 1, 88, 0
2, 87600, Note_off_c, 1, 49, 0
2, 87600, Note_off_c, 1, 55, 0
2, 87600, Note_on_c, 1, 59, 127
2, 87600, Note_on_c, 1, 62, 127
2, 87600, Note_off_c, 1, 64, 0
2, 87600, Note_on_c, 1, 67, 127
2, 87600, Note_off_c, 1, 69, 0
2, 87600, Note_on_c, 1, 71, 127
2, 87600, Note_off_c, 1, 73, 0
2, 87600, Note_on_c, 1, 88, 127
2, 87640, Note_on_c, 1, 36, 127
2, 87640, Note_on_c, 1, 48, 127
2, 87640, Note_off_c, 1, 59, 0
2, 87640, Note_off_c, 1, 62, 0
2, 87640, Note_off_c, 1, 67, 0
2, 87640, Note_off_c, 1, 71, 0
2, 87640, Note_on_c, 1, 74, 127
2, 87640, Note_on_c, 1, 79, 127
2, 87640, Note_on_c, 1, 82, 127
2, 87640, Note_on_c, 1, 86, 127
2, 87640, Note_off_c, 1, 88, 0
2, 87680, Note_off_c, 1, 36, 0
2, 87680, Note_off_c, 1, 48, 0
2, 87680, Note_off_c, 1, 74, 0
2, 87680, Note_off_c, 1, 79, 0
2, 87680, Note_off_c, 1, 82, 0
2, 87680, Note_off_c, 1, 86, 0
2, 87720, Note_on_c, 1, 64, 127
2, 87720, Note_on_c, 1, 67, 127
2, 87720, Note_on_c, 1, 69, 127
2, 87720, Note_on_c, 1, 74, 127
2, 87960, Note_off_c, 1, 64, 0
2, 87960, Note_off_c, 1, 67, 0
2, 87960, Note_off_c, 1, 69, 0
2, 87960, Note_off_c, 1, 74, 0
2, 88000, Note_on_c, 1, 52, 127
2, 88000, Note_on_c, 1, 55, 127
2, 88000, Note_on_c, 1, 59, 127
2, 88000, Note_on_c, 1, 64, 127
2, 88000, Note_on_c, 1, 83, 127
2, 88000, Note_on_c, 1, 88, 127
2, 88000, Note_on_c, 1, 91, 127
2, 88200, Note_off_c, 1, 52, 0
2, 88200, Note_off_c, 1, 55, 0
2, 88200, Note_off_c, 1, 59, 0
2, 88200, Note_off_c, 1, 64, 0
2, 88200, Note_off_c, 1, 83, 0
2, 88200, Note_off_c, 1, 88, 0
2, 88200, Note_off_c, 1, 91, 0
2, 88240, Note_on_c, 1, 52, 127
2, 88240, Note_on_c, 1, 55, 127
2, 88240, Note_on_c, 1, 59, 127
2, 88240, Note_on_c, 1, 64, 127
2, 88240, Note_on_c, 1, 83, 127
2, 88240, Note_on_c, 1, 88, 127
2, 88240, Note_on_c, 1, 91, 127
2, 88280, Note_on_c, 1, 31, 127
2, 88280, Note_on_c, 1, 43, 127
2, 88280, Note_off_c, 1, 52, 0
2, 88280, Note_off_c, 1, 55, 0
2, 88280, Note_off_c, 1, 59, 0
2, 88280, Note_off_c, 1, 64, 0
2, 88280, Note_off_c, 1, 83, 0
2, 88280, Note_off_c, 1, 88, 0
2, 88280, Note_off_c, 1, 91, 0
2, 88320, Note_off_c, 1, 31, 0
2, 88320, Note_on_c, 1, 42, 127
2, 88320, Note_off_c, 1, 43, 0
2, 88320, Note_on_c, 1, 50, 127
2, 88320, Note_on_c, 1, 54, 127
2, 88320, Note_on_c, 1, 79, 127
2, 88320, Note_on_c, 1, 91, 127
2, 88360, Note_on_c, 1, 38, 127
2, 88360, Note_off_c, 1, 42, 0
2, 88360, Note_on_c, 1, 45, 127
2, 88360, Note_on_c, 1, 48, 127
2, 88360, Note_off_c, 1, 50, 0
2, 88360, Note_off_c, 1, 54, 0
2, 88360, Note_on_c, 1, 60, 127
2, 88360, Note_on_c, 1, 69, 127
2, 88360, Note_on_c, 1, 72, 127
2, 88360, Note_off_c, 1, 79, 0
2, 88360, Note_off_c, 1, 91, 0
2, 88400, Note_off_c, 1, 38, 0
2, 88400, Note_on_c, 1, 42, 127
2, 88400, Note_off_c, 1, 45, 0
2, 88400, Note_off_c, 1, 48, 0
2, 88400, Note_on_c, 1, 50, 127
2, 88400, Note_on_c, 1, 54, 127
2, 88400, Note_off_c, 1, 60, 0
2, 88400, Note_off_c, 1, 69, 0
2, 88400, Note_off_c, 1, 72, 0
2, 88400, Note_on_c, 1, 79, 127
2, 88400, Note_on_c, 1, 91, 127
2, 88480, Note_off_c, 1, 42, 0
2, 88480, Note_off_c, 1, 50, 0
2, 88480, Note_off_c, 1, 54, 0
2, 88480, Note_on_c, 1, 63, 127
2, 88480, Note_on_c, 1, 64, 127
2, 88480, Note_on_c, 1, 68, 127
2, 88480, Note_on_c, 1, 71, 127
2, 88480, Note_on_c, 1, 75, 127
2, 88480, Note_off_c, 1, 79, 0
2, 88480, Note_off_c, 1, 91, 0
2, 88520, Note_on_c, 1, 41, 127
2, 88520, Note_on_c, 1, 53, 127
2, 88520, Note_off_c, 1, 63, 0
2, 88520, Note_off_c, 1, 64, 0
2, 88520, Note_off_c, 1, 68, 0
2, 88520, Note_off_c, 1, 71, 0
2, 88520, Note_on_c, 1, 74, 127
2, 88520, Note_off_c, 1, 75, 0
2, 88520, Note_on_c, 1, 81, 127
2, 88520, Note_on_c, 1, 86, 127
2, 88560, Note_off_c, 1, 41, 0
2, 88560, Note_off_c, 1, 53, 0
2, 88560, Note_off_c, 1, 74, 0
2, 88560, Note_off_c, 1, 81, 0
2, 88560, Note_off_c, 1, 86, 0
2, 88600, Note_on_c, 1, 38, 127
2, 88600, Note_on_c, 1, 50, 127
2, 88600, Note_on_c, 1, 71, 127
2, 88600, Note_on_c, 1, 79, 127
2, 88840, Note_off_c, 1, 38, 0
2, 88840, Note_off_c, 1, 50, 0
2, 88840, Note_off_c, 1, 71, 0
2, 88840, Note_off_c, 1, 79, 0
2, 88880, Note_on_c, 1, 38, 127
2, 88880, Note_on_c, 1, 50, 127
2, 88880, Note_on_c, 1, 71, 127
2, 88880, Note_on_c, 1, 79, 127
2, 89120, Note_on_c, 1, 45, 127
2, 89120, Note_off_c, 1, 50, 0
2, 89120, Note_off_c, 1, 71, 0
2, 89120, Note_off_c, 1, 79, 0
2, 89160, Note_off_c, 1, 45, 0
2, 89160, Note_on_c, 1, 52, 127
2, 89160, Note_on_c, 1, 74, 127
2, 89160, Note_on_c, 1, 78, 127
2, 89360, Note_off_c, 1, 38, 0
2, 89360, Note_off_c, 1, 52, 0
2, 89360, Note_off_c, 1, 74, 0
2, 89360, Note_off_c, 1, 78, 0
2, 89400, Note_on_c, 1, 38, 127
2, 89400, Note_on_c, 1, 54, 127
2, 89400, Note_on_c, 1, 69, 127
2, 89400, Note_on_c, 1, 76, 127
2, 89640, Note_off_c, 1, 38, 0
2, 89640, Note_off_c, 1, 54, 0
2, 89640, Note_off_c, 1, 69, 0
2, 89640, Note_off_c, 1, 76, 0
2, 89680, Note_on_c, 1, 38, 127
2, 89680, Note_on_c, 1, 55, 127
2, 89680, Note_on_c, 1, 71, 127
2, 89680, Note_on_c, 1, 74, 127
2, 89920, Note_off_c, 1, 38, 0
2, 89920, Note_off_c, 1, 55, 0
2, 89920, Note_off_c, 1, 71, 0
2, 89920, Note_off_c, 1, 74, 0
2, 89960, Note_on_c, 1, 50, 127
2, 89960, Note_on_c, 1, 57, 127
2, 89960, Note_on_c, 1, 66, 127
2, 89960, Note_on_c, 1, 72, 127
2, 90200, Note_off_c, 1, 50, 0
2, 90200, Note_off_c, 1, 57, 0
2, 90200, Note_off_c, 1, 66, 0
2, 90200, Note_off_c, 1, 72, 0
2, 90280, Note_on_c, 1, 60, 127
2, 90280, Note_on_c, 1, 63, 127
2, 90280, Note_on_c, 1, 66, 127
2, 90280, Note_on_c, 1, 74, 127
2, 90280, Note_on_c, 1, 78, 127
2, 90320, Note_on_c, 1, 59, 127
2, 90320, Note_off_c, 1, 60, 0
2, 90320, Note_off_c, 1, 63, 0
2, 90320, Note_on_c, 1, 67, 127
2, 90320, Note_off_c, 1, 78, 0
2, 90360, Note_on_c, 1, 43, 127
2, 90360, Note_on_c, 1, 51, 127
2, 90360, Note_off_c, 1, 66, 0
2, 90360, Note_off_c, 1, 74, 0
2, 90360, Note_on_c, 1, 75, 127
2, 90400, Note_off_c, 1, 43, 0
2, 90400, Note_on_c, 1, 44, 127
2, 90400, Note_off_c, 1, 51, 0
2, 90400, Note_off_c, 1, 67, 0
2, 90400, Note_on_c, 1, 78, 127
2, 90400, Note_on_c, 1, 81, 127
2, 90440, Note_off_c, 1, 44, 0
2, 90440, Note_on_c, 1, 64, 127
2, 90440, Note_on_c, 1, 67, 127
2, 90440, Note_on_c, 1, 74, 127
2, 90440, Note_off_c, 1, 75, 0
2, 90440, Note_on_c, 1, 76, 127
2, 90440, Note_off_c, 1, 78, 0
2, 90440, Note_off_c, 1, 81, 0
2, 90480, Note_on_c, 1, 41, 127
2, 90480, Note_on_c, 1, 50, 127
2, 90480, Note_on_c, 1, 56, 127
2, 90480, Note_off_c, 1, 59, 0
2, 90480, Note_on_c, 1, 61, 127
2, 90480, Note_off_c, 1, 64, 0
2, 90480, Note_off_c, 1, 67, 0
2, 90480, Note_off_c, 1, 74, 0
2, 90480, Note_off_c, 1, 76, 0
2, 90520, Note_off_c, 1, 41, 0
2, 90520, Note_off_c, 1, 50, 0
2, 90520, Note_off_c, 1, 56, 0
2, 90520, Note_off_c, 1, 61, 0
2, 90560, Note_on_c, 1, 60, 127
2, 90560, Note_on_c, 1, 95, 127
2, 90560, Note_on_c, 1, 107, 127
2, 90800, Note_off_c, 1, 60, 0
2, 90800, Note_off_c, 1, 95, 0
2, 90800, Note_off_c, 1, 107, 0
2, 90840, Note_on_c, 1, 50, 127
2, 90840, Note_on_c, 1, 55, 127
2, 90840, Note_on_c, 1, 62, 127
2, 90840, Note_on_c, 1, 67, 127
2, 91040, Note_off_c, 1, 50, 0
2, 91040, Note_off_c, 1, 55, 0
2, 91040, Note_off_c, 1, 62, 0
2, 91040, Note_off_c, 1, 67, 0
2, 91080, Note_on_c, 1, 62, 127
2, 91080, Note_on_c, 1, 67, 127
2, 91080, Note_on_c, 1, 70, 127
2, 91080, Note_on_c, 1, 91, 127
2, 91120, Note_on_c, 1, 55, 127
2, 91120, Note_off_c, 1, 62, 0
2, 91120, Note_on_c, 1, 63, 127
2, 91120, Note_off_c, 1, 67, 0
2, 91120, Note_off_c, 1, 70, 0
2, 91120, Note_on_c, 1, 75, 127
2, 91120, Note_on_c, 1, 79, 127
2, 91120, Note_off_c, 1, 91, 0
2, 91160, Note_on_c, 1, 51, 127
2, 91160, Note_on_c, 1, 54, 127
2, 91160, Note_off_c, 1, 55, 0
2, 91160, Note_on_c, 1, 58, 127
2, 91160, Note_off_c, 1, 63, 0
2, 91160, Note_on_c, 1, 70, 127
2, 91160, Note_on_c, 1, 78, 127
2, 91160, Note_off_c, 1, 79, 0
2, 91160, Note_on_c, 1, 82, 127
2, 91200, Note_off_c, 1, 51, 0
2, 91200, Note_off_c, 1, 54, 0
2, 91200, Note_off_c, 1, 58, 0
2, 91200, Note_on_c, 1, 62, 127
2, 91200, Note_on_c, 1, 67, 127
2, 91200, Note_off_c, 1, 75, 0
2, 91200, Note_off_c, 1, 78, 0
2, 91200, Note_off_c, 1, 82, 0
2, 91240, Note_on_c, 1, 57, 127
2, 91240, Note_on_c, 1, 60, 127
2, 91240, Note_off_c, 1, 62, 0
2, 91240, Note_on_c, 1, 65, 127
2, 91240, Note_off_c, 1, 67, 0
2, 91240, Note_off_c, 1, 70, 0
2, 91240, Note_on_c, 1, 88, 127
2, 91240, Note_on_c, 1, 92, 127
2, 91280, Note_on_c, 1, 32, 127
2, 91280, Note_on_c, 1, 53, 127
2, 91280, Note_on_c, 1, 56, 127
2, 91280, Note_off_c, 1, 57, 0
2, 91280, Note_off_c, 1, 60, 0
2, 91280, Note_on_c, 1, 61, 127
2, 91280, Note_on_c, 1, 68, 127
2, 91280, Note_on_c, 1, 73, 127
2, 91280, Note_on_c, 1, 79, 127
2, 91280, Note_off_c, 1, 88, 0
2, 91280, Note_off_c, 1, 92, 0
2, 91320, Note_off_c, 1, 32, 0
2, 91320, Note_off_c, 1, 53, 0
2, 91320, Note_off_c, 1, 56, 0
2, 91320, Note_off_c, 1, 61, 0
2, 91320, Note_off_c, 1, 65, 0
2, 91320, Note_off_c, 1, 68, 0
2, 91320, Note_off_c, 1, 73, 0
2, 91320, Note_off_c, 1, 79, 0
2, 91360, Note_on_c, 1, 51, 127
2, 91360, Note_on_c, 1, 58, 127
2, 91360, Note_on_c, 1, 60, 127
2, 91360, Note_on_c, 1, 63, 127
2, 91360, Note_on_c, 1, 67, 127
2, 91360, Note_on_c, 1, 82, 127
2, 91400, Note_on_c, 1, 45, 127
2, 91400, Note_off_c, 1, 51, 0
2, 91400, Note_on_c, 1, 57, 127
2, 91400, Note_off_c, 1, 58, 0
2, 91400, Note_off_c, 1, 60, 0
2, 91400, Note_off_c, 1, 63, 0
2, 91400, Note_off_c, 1, 67, 0
2, 91400, Note_on_c, 1, 77, 127
2, 91400, Note_off_c, 1, 82, 0
2, 91400, Note_on_c, 1, 84, 127
2, 91400, Note_on_c, 1, 87, 127
2, 91400, Note_on_c, 1, 89, 127
2, 91440, Note_off_c, 1, 45, 0
2, 91440, Note_on_c, 1, 49, 127
2, 91440, Note_off_c, 1, 57, 0
2, 91440, Note_on_c, 1, 64, 127
2, 91440, Note_on_c, 1, 70, 127
2, 91440, Note_on_c, 1, 73, 127
2, 91440, Note_on_c, 1, 76, 127
2, 91440, Note_off_c, 1, 77, 0
2, 91440, Note_on_c, 1, 79, 127
2, 91440, Note_off_c, 1, 84, 0
2, 91440, Note_off_c, 1, 87, 0
2, 91440, Note_off_c, 1, 89, 0
2, 91480, Note_off_c, 1, 49, 0
2, 91480, Note_off_c, 1, 64, 0
2, 91480, Note_off_c, 1, 70, 0
2, 91480, Note_off_c, 1, 73, 0
2, 91480, Note_off_c, 1, 76, 0
2, 91480, Note_off_c, 1, 79, 0
2, 91480, Note_on_c, 1, 83, 127
2, 91480, Note_on_c, 1, 90, 127
2, 91480, Note_on_c, 1, 95, 127
2, 91520, Note_on_c, 1, 57, 127
2, 91520, Note_on_c, 1, 75, 127
2, 91520, Note_on_c, 1, 81, 127
2, 91520, Note_on_c, 1, 87, 127
2, 91520, Note_off_c, 1, 90, 0
2, 91520, Note_off_c, 1, 95, 0
2, 91600, Note_off_c, 1, 57, 0
2, 91600, Note_off_c, 1, 75, 0
2, 91600, Note_off_c, 1, 81, 0
2, 91600, Note_off_c, 1, 83, 0
2, 91600, Note_off_c, 1, 87, 0
2, 91640, Note_on_c, 1, 43, 127
2, 91640, Note_on_c, 1, 55, 127
2, 91640, Note_on_c, 1, 74, 127
2, 91640, Note_on_c, 1, 79, 127
2, 91640, Note_on_c, 1, 82, 127
2, 91640, Note_on_c, 1, 86, 127
2, 91720, Note_off_c, 1, 43, 0
2, 91720, Note_off_c, 1, 55, 0
2, 91760, Note_on_c, 1, 58, 127
2, 91760, Note_on_c, 1, 62, 127
2, 91760, Note_on_c, 1, 70, 127
2, 91760, Note_off_c, 1, 79, 0
2, 91760, Note_off_c, 1, 86, 0
2, 91880, Note_off_c, 1, 58, 0
2, 91880, Note_off_c, 1, 62, 0
2, 91880, Note_off_c, 1, 70, 0
2, 91880, Note_off_c, 1, 74, 0
2, 91880, Note_off_c, 1, 82, 0
2, 91920, Note_on_c, 1, 49, 127
2, 91920, Note_on_c, 1, 56, 127
2, 91920, Note_on_c, 1, 59, 127
2, 91920, Note_on_c, 1, 63, 127
2, 91920, Note_on_c, 1, 66, 127
2, 91920, Note_on_c, 1, 68, 127
2, 92360, Note_off_c, 1, 49, 0
2, 92360, Note_off_c, 1, 56, 0
2, 92360, Note_off_c, 1, 59, 0
2, 92360, Note_off_c, 1, 63, 0
2, 92360, Note_off_c, 1, 66, 0
2, 92360, Note_off_c, 1, 68, 0
2, 92360, Note_on_c, 1, 69, 127
2, 92360, Note_on_c, 1, 75, 127
2, 92360, Note_on_c, 1, 78, 127
2, 92360, Note_on_c, 1, 87, 127
2, 92360, Note_on_c, 1, 90, 127
2, 92400, Note_off_c, 1, 69, 0
2, 92400, Note_off_c, 1, 75, 0
2, 92400, Note_off_c, 1, 78, 0
2, 92400, Note_off_c, 1, 87, 0
2, 92400, Note_off_c, 1, 90, 0
2, 92480, Note_on_c, 1, 43, 127
2, 92480, Note_on_c, 1, 50, 127
2, 92480, Note_on_c, 1, 55, 127
2, 92480, Note_on_c, 1, 65, 127
2, 92480, Note_on_c, 1, 71, 127
2, 92480, Note_on_c, 1, 79, 127
2, 93000, Note_off_c, 1, 43, 0
2, 93000, Note_off_c, 1, 50, 0
2, 93000, Note_off_c, 1, 55, 0
2, 93000, Note_off_c, 1, 65, 0
2, 93000, Note_off_c, 1, 71, 0
2, 93000, Note_off_c, 1, 79, 0
2, 93000, Note_on_c, 1, 84, 127
2, 93040, Note_on_c, 1, 43, 127
2, 93040, Note_on_c, 1, 55, 127
2, 93040, Note_on_c, 1, 76, 127
2, 93040, Note_on_c, 1, 83, 127
2, 93040, Note_off_c, 1, 84, 0
2, 93280, Note_off_c, 1, 43, 0
2, 93280, Note_off_c, 1, 55, 0
2, 93280, Note_off_c, 1, 76, 0
2, 93320, Note_on_c, 1, 47, 127
2, 93320, Note_on_c, 1, 79, 127
2, 93320, Note_off_c, 1, 83, 0
2, 93320, Note_on_c, 1, 88, 127
2, 93320, Note_on_c, 1, 91, 127
2, 93520, Note_off_c, 1, 47, 0
2, 93520, Note_off_c, 1, 79, 0
2, 93520, Note_off_c, 1, 88, 0
2, 93520, Note_off_c, 1, 91, 0
2, 93560, Note_on_c, 1, 48, 127
2, 93560, Note_on_c, 1, 52, 127
2, 93560, Note_on_c, 1, 59, 127
2, 93560, Note_on_c, 1, 76, 127
2, 93560, Note_on_c, 1, 80, 127
2, 93600, Note_off_c, 1, 48, 0
2, 93600, Note_off_c, 1, 52, 0
2, 93600, Note_on_c, 1, 53, 127
2, 93600, Note_on_c, 1, 58, 127
2, 93600, Note_off_c, 1, 59, 0
2, 93600, Note_on_c, 1, 62, 127
2, 93600, Note_on_c, 1, 67, 127
2, 93600, Note_on_c, 1, 70, 127
2, 93600, Note_off_c, 1, 76, 0
2, 93600, Note_on_c, 1, 79, 127
2, 93600, Note_off_c, 1, 80, 0
2, 93640, Note_on_c, 1, 50, 127
2, 93640, Note_off_c, 1, 53, 0
2, 93640, Note_off_c, 1, 58, 0
2, 93640, Note_off_c, 1, 62, 0
2, 93640, Note_on_c, 1, 64, 127
2, 93640, Note_off_c, 1, 67, 0
2, 93640, Note_off_c, 1, 70, 0
2, 93640, Note_on_c, 1, 72, 127
2, 93680, Note_off_c, 1, 50, 0
2, 93680, Note_on_c, 1, 59, 127
2, 93680, Note_on_c, 1, 62, 127
2, 93680, Note_off_c, 1, 64, 0
2, 93680, Note_off_c, 1, 72, 0
2, 93680, Note_on_c, 1, 73, 127
2, 93680, Note_on_c, 1, 78, 127
2, 93680, Note_off_c, 1, 79, 0
2, 93720, Note_on_c, 1, 53, 127
2, 93720, Note_on_c, 1, 58, 127
2, 93720, Note_off_c, 1, 59, 0
2, 93720, Note_on_c, 1, 67, 127
2, 93720, Note_on_c, 1, 70, 127
2, 93720, Note_off_c, 1, 73, 0
2, 93720, Note_off_c, 1, 78, 0
2, 93720, Note_on_c, 1, 79, 127
2, 93800, Note_off_c, 1, 53, 0
2, 93800, Note_off_c, 1, 58, 0
2, 93800, Note_off_c, 1, 62, 0
2, 93800, Note_off_c, 1, 67, 0
2, 93800, Note_off_c, 1, 70, 0
2, 93800, Note_off_c, 1, 79, 0
2, 93800, Note_on_c, 1, 81, 127
2, 93840, Note_on_c, 1, 45, 127
2, 93840, Note_on_c, 1, 48, 127
2, 93840, Note_on_c, 1, 51, 127
2, 93840, Note_on_c, 1, 54, 127
2, 93840, Note_on_c, 1, 78, 127
2, 93840, Note_off_c, 1, 81, 0
2, 94280, Note_off_c, 1, 45, 0
2, 94280, Note_off_c, 1, 48, 0
2, 94280, Note_off_c, 1, 51, 0
2, 94280, Note_off_c, 1, 54, 0
2, 94280, Note_on_c, 1, 63, 127
2, 94280, Note_on_c, 1, 69, 127
2, 94280, Note_on_c, 1, 73, 127
2, 94280, Note_on_c, 1, 76, 127
2, 94280, Note_off_c, 1, 78, 0
2, 94280, Note_on_c, 1, 80, 127
2, 94320, Note_off_c, 1, 63, 0
2, 94320, Note_off_c, 1, 69, 0
2, 94320, Note_off_c, 1, 73, 0
2, 94320, Note_off_c, 1, 76, 0
2, 94320, Note_off_c, 1, 80, 0
2, 94360, Note_on_c, 1, 45, 127
2, 94360, Note_on_c, 1, 48, 127
2, 94360, Note_on_c, 1, 51, 127
2, 94360, Note_on_c, 1, 54, 127
2, 94360, Note_on_c, 1, 78, 127
2, 94400, Note_off_c, 1, 45, 0
2, 94400, Note_off_c, 1, 48, 0
2, 94400, Note_off_c, 1, 51, 0
2, 94400, Note_off_c, 1, 54, 0
2, 94400, Note_on_c, 1, 57, 127
2, 94400, Note_on_c, 1, 64, 127
2, 94400, Note_on_c, 1, 69, 127
2, 94400, Note_on_c, 1, 72, 127
2, 94440, Note_on_c, 1, 38, 127
2, 94440, Note_on_c, 1, 54, 127
2, 94440, Note_off_c, 1, 57, 0
2, 94440, Note_on_c, 1, 59, 127
2, 94440, Note_off_c, 1, 64, 0
2, 94440, Note_off_c, 1, 69, 0
2, 94440, Note_on_c, 1, 71, 127
2, 94440, Note_off_c, 1, 72, 0
2, 94440, Note_off_c, 1, 78, 0
2, 94680, Note_off_c, 1, 38, 0
2, 94680, Note_off_c, 1, 54, 0
2, 94680, Note_off_c, 1, 59, 0
2, 94680, Note_off_c, 1, 71, 0
2, 94720, Note_on_c, 1, 33, 127
2, 94720, Note_on_c, 1, 43, 127
2, 94720, Note_on_c, 1, 50, 127
2, 94720, Note_on_c, 1, 62, 127
2, 94720, Note_on_c, 1, 67, 127
2, 94720, Note_on_c, 1, 72, 127
2, 95760, Note_off_c, 1, 33, 0
2, 95760, Note_off_c, 1, 43, 0
2, 95760, Note_off_c, 1, 50, 0
2, 95760, Note_off_c, 1, 62, 0
2, 95760, Note_off_c, 1, 67, 0
2, 95760, Note_off_c, 1, 72, 0
2, 95800, Note_on_c, 1, 40, 127
2, 95800, Note_on_c, 1, 48, 127
2, 95800, Note_on_c, 1, 52, 127
2, 95800, Note_on_c, 1, 57, 127
2, 95800, Note_on_c, 1, 64, 127
2, 95800, Note_on_c, 1, 69, 127
2, 95960, Note_on_c, 1, 47, 127
2, 95960, Note_on_c, 1, 58, 127
2, 96000, Note_off_c, 1, 47, 0
2, 96000, Note_off_c, 1, 58, 0
2, 96080, Note_on_c, 1, 46, 127
2, 96080, Note_on_c, 1, 59, 127
2, 96120, Note_off_c, 1, 46, 0
2, 96120, Note_off_c, 1, 59, 0
2, 96160, Note_on_c, 1, 46, 127
2, 96160, Note_on_c, 1, 59, 127
2, 96280, Note_off_c, 1, 46, 0
2, 96280, Note_off_c, 1, 59, 0
2, 96320, Note_off_c, 1, 40, 0
2, 96320, Note_off_c, 1, 48, 0
2, 96320, Note_off_c, 1, 52, 0
2, 96320, Note_off_c, 1, 57, 0
2, 96320, Note_off_c, 1, 64, 0
2, 96320, Note_off_c, 1, 69, 0
2, 96400, Note_on_c, 1, 34, 127
2, 96400, Note_on_c, 1, 46, 127
2, 96400, Note_on_c, 1, 58, 127
2, 96400, Note_on_c, 1, 63, 127
2, 96600, Note_off_c, 1, 34, 0
2, 96600, Note_off_c, 1, 46, 0
2, 96600, Note_off_c, 1, 63, 0
2, 96640, Note_on_c, 1, 34, 127
2, 96640, Note_on_c, 1, 46, 127
2, 96640, Note_on_c, 1, 63, 127
2, 96880, Note_off_c, 1, 34, 0
2, 96880, Note_off_c, 1, 46, 0
2, 96880, Note_off_c, 1, 58, 0
2, 96880, Note_off_c, 1, 63, 0
2, 96920, Note_on_c, 1, 46, 127
2, 96920, Note_on_c, 1, 52, 127
2, 96920, Note_on_c, 1, 56, 127
2, 96920, Note_on_c, 1, 61, 127
2, 97160, Note_off_c, 1, 46, 0
2, 97160, Note_off_c, 1, 52, 0
2, 97160, Note_off_c, 1, 61, 0
2, 97200, Note_on_c, 1, 53, 127
2, 97200, Note_on_c, 1, 61, 127
2, 97400, Note_off_c, 1, 53, 0
2, 97400, Note_off_c, 1, 56, 0
2, 97400, Note_off_c, 1, 61, 0
2, 97440, Note_on_c, 1, 53, 127
2, 97440, Note_on_c, 1, 56, 127
2, 97440, Note_on_c, 1, 61, 127
2, 97440, Note_on_c, 1, 72, 127
2, 97680, Note_off_c, 1, 72, 0
2, 97680, Note_on_c, 1, 73, 127
2, 97720, Note_off_c, 1, 53, 0
2, 97720, Note_off_c, 1, 56, 0
2, 97720, Note_off_c, 1, 61, 0
2, 97720, Note_off_c, 1, 73, 0
2, 97760, Note_on_c, 1, 53, 127
2, 97760, Note_on_c, 1, 56, 127
2, 97760, Note_on_c, 1, 61, 127
2, 97760, Note_on_c, 1, 73, 127
2, 97960, Note_off_c, 1, 53, 0
2, 97960, Note_off_c, 1, 56, 0
2, 97960, Note_off_c, 1, 61, 0
2, 97960, Note_off_c, 1, 73, 0
2, 98000, Note_on_c, 1, 53, 127
2, 98000, Note_on_c, 1, 58, 127
2, 98000, Note_on_c, 1, 61, 127
2, 98000, Note_on_c, 1, 66, 127
2, 98000, Note_on_c, 1, 70, 127
2, 98000, Note_on_c, 1, 73, 127
2, 98240, Note_off_c, 1, 53, 0
2, 98240, Note_off_c, 1, 58, 0
2, 98240, Note_off_c, 1, 61, 0
2, 98240, Note_off_c, 1, 66, 0
2, 98240, Note_off_c, 1, 70, 0
2, 98280, Note_on_c, 1, 54, 127
2, 98280, Note_on_c, 1, 63, 127
2, 98280, Note_on_c, 1, 78, 127
2, 98280, Note_on_c, 1, 82, 127
2, 98280, Note_on_c, 1, 85, 127
2, 98360, Note_off_c, 1, 63, 0
2, 98360, Note_on_c, 1, 65, 127
2, 98440, Note_off_c, 1, 54, 0
2, 98440, Note_off_c, 1, 65, 0
2, 98440, Note_off_c, 1, 73, 0
2, 98440, Note_off_c, 1, 78, 0
2, 98440, Note_off_c, 1, 82, 0
2, 98440, Note_off_c, 1, 85, 0
2, 98480, Note_on_c, 1, 54, 127
2, 98480, Note_on_c, 1, 63, 127
2, 98480, Note_on_c, 1, 73, 127
2, 98480, Note_on_c, 1, 78, 127
2, 98480, Note_on_c, 1, 82, 127
2, 98480, Note_on_c, 1, 85, 127
2, 98520, Note_off_c, 1, 63, 0
2, 98520, Note_on_c, 1, 65, 127
2, 98560, Note_on_c, 1, 53, 127
2, 98560, Note_off_c, 1, 54, 0
2, 98560, Note_off_c, 1, 65, 0
2, 98560, Note_off_c, 1, 73, 0
2, 98560, Note_off_c, 1, 78, 0
2, 98560, Note_off_c, 1, 82, 0
2, 98560, Note_off_c, 1, 85, 0
2, 98600, Note_on_c, 1, 35, 127
2, 98600, Note_on_c, 1, 39, 127
2, 98600, Note_on_c, 1, 42, 127
2, 98600, Note_off_c, 1, 53, 0
2, 98600, Note_on_c, 1, 54, 127
2, 98600, Note_on_c, 1, 59, 127
2, 98600, Note_on_c, 1, 63, 127
2, 98840, Note_off_c, 1, 35, 0
2, 98840, Note_off_c, 1, 39, 0
2, 98840, Note_off_c, 1, 42, 0
2, 98840, Note_off_c, 1, 54, 0
2, 98840, Note_off_c, 1, 59, 0
2, 98840, Note_off_c, 1, 63, 0
2, 98880, Note_on_c, 1, 41, 127
2, 98880, Note_on_c, 1, 49, 127
2, 98880, Note_on_c, 1, 59, 127
2, 98880, Note_on_c, 1, 73, 127
2, 98960, Note_off_c, 1, 49, 0
2, 99000, Note_on_c, 1, 49, 127
2, 99080, Note_off_c, 1, 49, 0
2, 99120, Note_off_c, 1, 41, 0
2, 99120, Note_off_c, 1, 59, 0
2, 99120, Note_off_c, 1, 73, 0
2, 99160, Note_on_c, 1, 46, 127
2, 99160, Note_on_c, 1, 49, 127
2, 99160, Note_on_c, 1, 54, 127
2, 99160, Note_on_c, 1, 61, 127
2, 99160, Note_on_c, 1, 65, 127
2, 99160, Note_on_c, 1, 73, 127
2, 99280, Note_off_c, 1, 61, 0
2, 99280, Note_off_c, 1, 65, 0
2, 99280, Note_off_c, 1, 73, 0
2, 99360, Note_off_c, 1, 46, 0
2, 99360, Note_off_c, 1, 49, 0
2, 99360, Note_off_c, 1, 54, 0
2, 99360, Note_on_c, 1, 65, 127
2, 99440, Note_on_c, 1, 48, 127
2, 99440, Note_on_c, 1, 60, 127
2, 99440, Note_on_c, 1, 63, 127
2, 99440, Note_off_c, 1, 65, 0
2, 99440, Note_on_c, 1, 69, 127
2, 99680, Note_off_c, 1, 48, 0
2, 99680, Note_off_c, 1, 60, 0
2, 99680, Note_off_c, 1, 63, 0
2, 99680, Note_off_c, 1, 69, 0
2, 99720, Note_on_c, 1, 49, 127
2, 99720, Note_on_c, 1, 56, 127
2, 99720, Note_on_c, 1, 63, 127
2, 99720, Note_on_c, 1, 68, 127
2, 99960, Note_off_c, 1, 56, 0
2, 99960, Note_off_c, 1, 63, 0
2, 99960, Note_off_c, 1, 68, 0
2, 100000, Note_on_c, 1, 61, 127
2, 100000, Note_on_c, 1, 68, 127
2, 100240, Note_off_c, 1, 49, 0
2, 100240, Note_on_c, 1, 56, 127
2, 100240, Note_off_c, 1, 61, 0
2, 100280, Note_on_c, 1, 49, 127
2, 100280, Note_on_c, 1, 53, 127
2, 100280, Note_off_c, 1, 56, 0
2, 100280, Note_on_c, 1, 61, 127
2, 100520, Note_off_c, 1, 53, 0
2, 100520, Note_off_c, 1, 61, 0
2, 100520, Note_off_c, 1, 68, 0
2, 100560, Note_off_c, 1, 49, 0
2, 100600, Note_on_c, 1, 42, 127
2, 100600, Note_on_c, 1, 61, 127
2, 100600, Note_on_c, 1, 66, 127
2, 100600, Note_on_c, 1, 69, 127
2, 100760, Note_off_c, 1, 42, 0
2, 100800, Note_on_c, 1, 42, 127
2, 100960, Note_off_c, 1, 42, 0
2, 101000, Note_on_c, 1, 56, 127
2, 101000, Note_off_c, 1, 61, 0
2, 101000, Note_on_c, 1, 63, 127
2, 101000, Note_off_c, 1, 69, 0
2, 101000, Note_on_c, 1, 88, 127
2, 101040, Note_on_c, 1, 43, 127
2, 101040, Note_on_c, 1, 49, 127
2, 101040, Note_on_c, 1, 54, 127
2, 101040, Note_off_c, 1, 56, 0
2, 101040, Note_off_c, 1, 63, 0
2, 101040, Note_off_c, 1, 88, 0
2, 101080, Note_off_c, 1, 43, 0
2, 101080, Note_off_c, 1, 49, 0
2, 101080, Note_off_c, 1, 54, 0
2, 101080, Note_on_c, 1, 60, 127
2, 101080, Note_on_c, 1, 69, 127
2, 101120, Note_off_c, 1, 60, 0
2, 101120, Note_on_c, 1, 61, 127
2, 101120, Note_on_c, 1, 89, 127
2, 101360, Note_off_c, 1, 89, 0
2, 101400, Note_on_c, 1, 49, 127
2, 101640, Note_off_c, 1, 49, 0
2, 101640, Note_off_c, 1, 61, 0
2, 101640, Note_off_c, 1, 66, 0
2, 101640, Note_off_c, 1, 69, 0
2, 101680, Note_on_c, 1, 32, 127
2, 101680, Note_on_c, 1, 54, 127
2, 101680, Note_on_c, 1, 60, 127
2, 101680, Note_on_c, 1, 63, 127
2, 101880, Note_off_c, 1, 32, 0
2, 102200, Note_on_c, 1, 45, 127
2, 102200, Note_off_c, 1, 63, 0
2, 102200, Note_on_c, 1, 64, 127
2, 102480, Note_on_c, 1, 63, 127
2, 102480, Note_off_c, 1, 64, 0
2, 102560, Note_off_c, 1, 45, 0
2, 102600, Note_on_c, 1, 45, 127
2, 102680, Note_off_c, 1, 45, 0
2, 102720, Note_off_c, 1, 54, 0
2, 102720, Note_off_c, 1, 60, 0
2, 102720, Note_off_c, 1, 63, 0
2, 102760, Note_on_c, 1, 38, 127
2, 102760, Note_on_c, 1, 47, 127
2, 102760, Note_on_c, 1, 68, 127
2, 102760, Note_on_c, 1, 80, 127
2, 102800, Note_off_c, 1, 38, 0
2, 102800, Note_off_c, 1, 47, 0
2, 102800, Note_on_c, 1, 54, 127
2, 102800, Note_on_c, 1, 60, 127
2, 102800, Note_on_c, 1, 63, 127
2, 102800, Note_off_c, 1, 68, 0
2, 102800, Note_on_c, 1, 72, 127
2, 102800, Note_off_c, 1, 80, 0
2, 102800, Note_on_c, 1, 83, 127
2, 102840, Note_on_c, 1, 50, 127
2, 102840, Note_off_c, 1, 54, 0
2, 102840, Note_off_c, 1, 60, 0
2, 102840, Note_off_c, 1, 63, 0
2, 102880, Note_off_c, 1, 50, 0
2, 102880, Note_on_c, 1, 54, 127
2, 102880, Note_on_c, 1, 60, 127
2, 102880, Note_on_c, 1, 63, 127
2, 103000, Note_off_c, 1, 60, 0
2, 103000, Note_off_c, 1, 63, 0
2, 103000, Note_off_c, 1, 72, 0
2, 103000, Note_off_c, 1, 83, 0
2, 103040, Note_on_c, 1, 49, 127
2, 103040, Note_off_c, 1, 54, 0
2, 103040, Note_on_c, 1, 56, 127
2, 103040, Note_on_c, 1, 59, 127
2, 103040, Note_on_c, 1, 73, 127
2, 103280, Note_off_c, 1, 49, 0
2, 103280, Note_off_c, 1, 56, 0
2, 103280, Note_off_c, 1, 59, 0
2, 103320, Note_on_c, 1, 54, 127
2, 103320, Note_on_c, 1, 57, 127
2, 103320, Note_on_c, 1, 61, 127
2, 103560, Note_on_c, 1, 49, 127
2, 103560, Note_off_c, 1, 54, 0
2, 103560, Note_off_c, 1, 57, 0
2, 103560, Note_on_c, 1, 58, 127
2, 103560, Note_off_c, 1, 61, 0
2, 103560, Note_off_c, 1, 73, 0
2, 103600, Note_on_c, 1, 53, 127
2, 103600, Note_off_c, 1, 58, 0
2, 103600, Note_on_c, 1, 59, 127
2, 103600, Note_on_c, 1, 61, 127
2, 103600, Note_on_c, 1, 73, 127
2, 103720, Note_off_c, 1, 53, 0
2, 103720, Note_on_c, 1, 58, 127
2, 103720, Note_off_c, 1, 59, 0
2, 103720, Note_off_c, 1, 61, 0
2, 103720, Note_off_c, 1, 73, 0
2, 103760, Note_on_c, 1, 46, 127
2, 103760, Note_off_c, 1, 49, 0
2, 103760, Note_on_c, 1, 51, 127
2, 103760, Note_off_c, 1, 58, 0
2, 103760, Note_on_c, 1, 63, 127
2, 103760, Note_on_c, 1, 67, 127
2, 103760, Note_on_c, 1, 75, 127
2, 103840, Note_off_c, 1, 46, 0
2, 103840, Note_on_c, 1, 49, 127
2, 103840, Note_off_c, 1, 51, 0
2, 103840, Note_on_c, 1, 58, 127
2, 103840, Note_off_c, 1, 63, 0
2, 103840, Note_off_c, 1, 67, 0
2, 103840, Note_off_c, 1, 75, 0
2, 103880, Note_off_c, 1, 49, 0
2, 103880, Note_off_c, 1, 58, 0
2, 103880, Note_on_c, 1, 62, 127
2, 103880, Note_on_c, 1, 65, 127
2, 103880, Note_on_c, 1, 80, 127
2, 103880, Note_on_c, 1, 92, 127
2, 104120, Note_off_c, 1, 62, 0
2, 104120, Note_off_c, 1, 65, 0
2, 104120, Note_off_c, 1, 80, 0
2, 104120, Note_off_c, 1, 92, 0
2, 104160, Note_on_c, 1, 44, 127
2, 104160, Note_on_c, 1, 54, 127
2, 104160, Note_on_c, 1, 60, 127
2, 104160, Note_on_c, 1, 63, 127
2, 104400, Note_off_c, 1, 60, 0
2, 104400, Note_off_c, 1, 63, 0
2, 104440, Note_off_c, 1, 44, 0
2, 104440, Note_on_c, 1, 53, 127
2, 104440, Note_off_c, 1, 54, 0
2, 104440, Note_on_c, 1, 63, 127
2, 104440, Note_on_c, 1, 73, 127
2, 104640, Note_off_c, 1, 53, 0
2, 104640, Note_off_c, 1, 63, 0
2, 104640, Note_off_c, 1, 73, 0
2, 104720, Note_on_c, 1, 54, 127
2, 104720, Note_on_c, 1, 63, 127
2, 104720, Note_on_c, 1, 69, 127
2, 105000, Note_on_c, 1, 72, 127
2, 105240, Note_off_c, 1, 63, 0
2, 105240, Note_off_c, 1, 69, 0
2, 105240, Note_off_c, 1, 72, 0
2, 105280, Note_on_c, 1, 51, 127
2, 105280, Note_off_c, 1, 54, 0
2, 105280, Note_on_c, 1, 63, 127
2, 105280, Note_on_c, 1, 66, 127
2, 105280, Note_on_c, 1, 72, 127
2, 105520, Note_off_c, 1, 63, 0
2, 105520, Note_off_c, 1, 66, 0
2, 105520, Note_off_c, 1, 72, 0
2, 105560, Note_on_c, 1, 61, 127
2, 105560, Note_on_c, 1, 67, 127
2, 105560, Note_on_c, 1, 72, 127
2, 105680, Note_off_c, 1, 51, 0
2, 105720, Note_on_c, 1, 51, 127
2, 105800, Note_off_c, 1, 51, 0
2, 105800, Note_off_c, 1, 61, 0
2, 105800, Note_on_c, 1, 63, 127
2, 105800, Note_off_c, 1, 67, 0
2, 105800, Note_off_c, 1, 72, 0
2, 105840, Note_on_c, 1, 51, 127
2, 105840, Note_on_c, 1, 61, 127
2, 105840, Note_off_c, 1, 63, 0
2, 105840, Note_on_c, 1, 67, 127
2, 105840, Note_on_c, 1, 72, 127
2, 105960, Note_off_c, 1, 51, 0
2, 106000, Note_on_c, 1, 51, 127
2, 106080, Note_off_c, 1, 72, 0
2, 106120, Note_on_c, 1, 70, 127
2, 106360, Note_off_c, 1, 51, 0
2, 106360, Note_off_c, 1, 61, 0
2, 106360, Note_off_c, 1, 67, 0
2, 106360, Note_off_c, 1, 70, 0
2, 106400, Note_on_c, 1, 56, 127
2, 106400, Note_on_c, 1, 63, 127
2, 106400, Note_on_c, 1, 68, 127
2, 106400, Note_on_c, 1, 72, 127
2, 106640, Note_off_c, 1, 56, 0
2, 106680, Note_off_c, 1, 63, 0
2, 106680, Note_off_c, 1, 68, 0
2, 106680, Note_off_c, 1, 72, 0
2, 106720, Note_on_c, 1, 56, 127
2, 106720, Note_on_c, 1, 63, 127
2, 106720, Note_on_c, 1, 68, 127
2, 106720, Note_on_c, 1, 72, 127
2, 106800, Note_off_c, 1, 56, 0
2, 106840, Note_on_c, 1, 41, 127
2, 106920, Note_off_c, 1, 41, 0
2, 106920, Note_off_c, 1, 63, 0
2, 106920, Note_off_c, 1, 68, 0
2, 106920, Note_off_c, 1, 72, 0
2, 106960, Note_on_c, 1, 44, 127
2, 106960, Note_on_c, 1, 51, 127
2, 106960, Note_on_c, 1, 68, 127
2, 106960, Note_on_c, 1, 72, 127
2, 106960, Note_on_c, 1, 75, 127
2, 107080, Note_off_c, 1, 68, 0
2, 107080, Note_off_c, 1, 72, 0
2, 107080, Note_off_c, 1, 75, 0
2, 107120, Note_on_c, 1, 75, 127
2, 107200, Note_off_c, 1, 75, 0
2, 107240, Note_off_c, 1, 44, 0
2, 107240, Note_off_c, 1, 51, 0
2, 107240, Note_on_c, 1, 56, 127
2, 107240, Note_on_c, 1, 60, 127
2, 107240, Note_on_c, 1, 68, 127
2, 107240, Note_on_c, 1, 75, 127
2, 107480, Note_off_c, 1, 56, 0
2, 107480, Note_off_c, 1, 60, 0
2, 107480, Note_off_c, 1, 68, 0
2, 107480, Note_off_c, 1, 75, 0
2, 107520, Note_on_c, 1, 36, 127
2, 107520, Note_on_c, 1, 39, 127
2, 107520, Note_on_c, 1, 44, 127
2, 107520, Note_on_c, 1, 60, 127
2, 107520, Note_on_c, 1, 72, 127
2, 107560, Note_on_c, 1, 32, 127
2, 107560, Note_off_c, 1, 36, 0
2, 107560, Note_off_c, 1, 39, 0
2, 107560, Note_off_c, 1, 44, 0
2, 107760, Note_off_c, 1, 32, 0
2, 107760, Note_on_c, 1, 49, 127
2, 107760, Note_off_c, 1, 60, 0
2, 107800, Note_on_c, 1, 32, 127
2, 107800, Note_off_c, 1, 49, 0
2, 107800, Note_on_c, 1, 60, 127
2, 108040, Note_off_c, 1, 32, 0
2, 108080, Note_on_c, 1, 32, 127
2, 108280, Note_off_c, 1, 32, 0
2, 108320, Note_on_c, 1, 32, 127
2, 108560, Note_off_c, 1, 32, 0
2, 108600, Note_on_c, 1, 32, 127
2, 108840, Note_off_c, 1, 32, 0
2, 108880, Note_off_c, 1, 60, 0
2, 108880, Note_off_c, 1, 72, 0
2, 108920, Note_on_c, 1, 44, 127
2, 108920, Note_on_c, 1, 60, 127
2, 108920, Note_on_c, 1, 73, 127
2, 108960, Note_on_c, 1, 38, 127
2, 108960, Note_off_c, 1, 44, 0
2, 108960, Note_on_c, 1, 56, 127
2, 108960, Note_off_c, 1, 60, 0
2, 108960, Note_on_c, 1, 70, 127
2, 108960, Note_off_c, 1, 73, 0
2, 109000, Note_off_c, 1, 38, 0
2, 109000, Note_on_c, 1, 44, 127
2, 109000, Note_off_c, 1, 56, 0
2, 109000, Note_on_c, 1, 60, 127
2, 109000, Note_off_c, 1, 70, 0
2, 109000, Note_on_c, 1, 73, 127
2, 109040, Note_off_c, 1, 73, 0
2, 109200, Note_on_c, 1, 51, 127
2, 109200, Note_on_c, 1, 68, 127
2, 109200, Note_on_c, 1, 75, 127
2, 109200, Note_on_c, 1, 80, 127
2, 109200, Note_on_c, 1, 84, 127
2, 109200, Note_on_c, 1, 87, 127
2, 109320, Note_off_c, 1, 75, 0
2, 109320, Note_off_c, 1, 80, 0
2, 109320, Note_off_c, 1, 84, 0
2, 109320, Note_off_c, 1, 87, 0
2, 109360, Note_on_c, 1, 75, 127
2, 109480, Note_off_c, 1, 44, 0
2, 109480, Note_off_c, 1, 51, 0
2, 109480, Note_off_c, 1, 60, 0
2, 109480, Note_off_c, 1, 68, 0
2, 109480, Note_on_c, 1, 80, 127
2, 109480, Note_on_c, 1, 84, 127
2, 109480, Note_on_c, 1, 87, 127
2, 109520, Note_on_c, 1, 44, 127
2, 109520, Note_on_c, 1, 51, 127
2, 109520, Note_on_c, 1, 60, 127
2, 109520, Note_on_c, 1, 68, 127
2, 109520, Note_off_c, 1, 80, 0
2, 109520, Note_off_c, 1, 84, 0
2, 109520, Note_off_c, 1, 87, 0
2, 109720, Note_off_c, 1, 75, 0
2, 109760, Note_on_c, 1, 75, 127
2, 110000, Note_off_c, 1, 75, 0
2, 110040, Note_on_c, 1, 75, 127
2, 110120, Note_off_c, 1, 75, 0
2, 110280, Note_off_c, 1, 44, 0
2, 110280, Note_off_c, 1, 51, 0
2, 110280, Note_off_c, 1, 60, 0
2, 110280, Note_off_c, 1, 68, 0
2, 110320, Note_on_c, 1, 51, 127
2, 110320, Note_on_c, 1, 68, 127
2, 110320, Note_on_c, 1, 72, 127
2, 110720, Note_off_c, 1, 51, 0
2, 110720, Note_off_c, 1, 68, 0
2, 110720, Note_off_c, 1, 72, 0
2, 110760, Note_on_c, 1, 51, 127
2, 110760, Note_on_c, 1, 68, 127
2, 110760, Note_on_c, 1, 72, 127
2, 110840, Note_off_c, 1, 51, 0
2, 110880, Note_on_c, 1, 44, 127
2, 111120, Note_off_c, 1, 44, 0
2, 111160, Note_on_c, 1, 56, 127
2, 111160, Note_on_c, 1, 65, 127
2, 111640, Note_off_c, 1, 56, 0
2, 111640, Note_off_c, 1, 65, 0
2, 111640, Note_off_c, 1, 68, 0
2, 111640, Note_off_c, 1, 72, 0
2, 111680, Note_on_c, 1, 51, 127
2, 111680, Note_on_c, 1, 56, 127
2, 111680, Note_on_c, 1, 66, 127
2, 111680, Note_on_c, 1, 72, 127
2, 112720, Note_off_c, 1, 51, 0
2, 112720, Note_off_c, 1, 56, 0
2, 112720, Note_off_c, 1, 66, 0
2, 112720, Note_off_c, 1, 72, 0
2, 112760, Note_on_c, 1, 51, 127
2, 112760, Note_on_c, 1, 56, 127
2, 112760, Note_on_c, 1, 66, 127
2, 112760, Note_on_c, 1, 72, 127
2, 113040, Note_on_c, 1, 49, 127
2, 113040, Note_off_c, 1, 51, 0
2, 113040, Note_on_c, 1, 64, 127
2, 113040, Note_off_c, 1, 66, 0
2, 113040, Note_off_c, 1, 72, 0
2, 113080, Note_off_c, 1, 49, 0
2, 113080, Note_off_c, 1, 56, 0
2, 113080, Note_on_c, 1, 59, 127
2, 113080, Note_on_c, 1, 63, 127
2, 113080, Note_off_c, 1, 64, 0
2, 113080, Note_on_c, 1, 65, 127
2, 113080, Note_on_c, 1, 83, 127
2, 113080, Note_on_c, 1, 87, 127
2, 113120, Note_on_c, 1, 77, 127
2, 113120, Note_off_c, 1, 83, 0
2, 113120, Note_off_c, 1, 87, 0
2, 113320, Note_off_c, 1, 59, 0
2, 113320, Note_off_c, 1, 63, 0
2, 113320, Note_off_c, 1, 65, 0
2, 113320, Note_off_c, 1, 77, 0
2, 113360, Note_on_c, 1, 44, 127
2, 113360, Note_on_c, 1, 48, 127
2, 113360, Note_on_c, 1, 56, 127
2, 113360, Note_on_c, 1, 60, 127
2, 113600, Note_off_c, 1, 44, 0
2, 113600, Note_off_c, 1, 48, 0
2, 113600, Note_off_c, 1, 56, 0
2, 113600, Note_off_c, 1, 60, 0
2, 113640, Note_on_c, 1, 53, 127
2, 113640, Note_on_c, 1, 65, 127
2, 113840, Note_off_c, 1, 53, 0
2, 113840, Note_off_c, 1, 65, 0
2, 113880, Note_on_c, 1, 63, 127
2, 113880, Note_on_c, 1, 66, 127
2, 113880, Note_on_c, 1, 82, 127
2, 113880, Note_on_c, 1, 87, 127
2, 113880, Note_on_c, 1, 90, 127
2, 114120, Note_off_c, 1, 82, 0
2, 114120, Note_off_c, 1, 87, 0
2, 114120, Note_off_c, 1, 90, 0
2, 114160, Note_on_c, 1, 82, 127
2, 114160, Note_on_c, 1, 87, 127
2, 114160, Note_on_c, 1, 90, 127
2, 114320, Note_on_c, 1, 54, 127
2, 114320, Note_off_c, 1, 82, 0
2, 114320, Note_off_c, 1, 87, 0
2, 114320, Note_off_c, 1, 90, 0
2, 114360, Note_off_c, 1, 54, 0
2, 114360, Note_on_c, 1, 82, 127
2, 114360, Note_on_c, 1, 87, 127
2, 114360, Note_on_c, 1, 90, 127
2, 114400, Note_off_c, 1, 63, 0
2, 114400, Note_off_c, 1, 66, 0
2, 114400, Note_off_c, 1, 82, 0
2, 114400, Note_off_c, 1, 87, 0
2, 114400, Note_off_c, 1, 90, 0
2, 114440, Note_on_c, 1, 63, 127
2, 114440, Note_on_c, 1, 66, 127
2, 114440, Note_on_c, 1, 82, 127
2, 114440, Note_on_c, 1, 87, 127
2, 114440, Note_on_c, 1, 90, 127
2, 114680, Note_off_c, 1, 82, 0
2, 114680, Note_off_c, 1, 87, 0
2, 114680, Note_off_c, 1, 90, 0
2, 114720, Note_on_c, 1, 82, 127
2, 114720, Note_on_c, 1, 87, 127
2, 114720, Note_on_c, 1, 90, 127
2, 114800, Note_off_c, 1, 63, 0
2, 114800, Note_off_c, 1, 66, 0
2, 114800, Note_off_c, 1, 82, 0
2, 114800, Note_off_c, 1, 87, 0
2, 114800, Note_off_c, 1, 90, 0
2, 114840, Note_on_c, 1, 63, 127
2, 114840, Note_on_c, 1, 66, 127
2, 114840, Note_on_c, 1, 82, 127
2, 114840, Note_on_c, 1, 87, 127
2, 114840, Note_on_c, 1, 90, 127
2, 114960, Note_off_c, 1, 63, 0
2, 114960, Note_off_c, 1, 66, 0
2, 114960, Note_off_c, 1, 82, 0
2, 114960, Note_off_c, 1, 87, 0
2, 114960, Note_off_c, 1, 90, 0
2, 115000, Note_on_c, 1, 63, 127
2, 115000, Note_on_c, 1, 66, 127
2, 115000, Note_on_c, 1, 82, 127
2, 115000, Note_on_c, 1, 87, 127
2, 115000, Note_on_c, 1, 90, 127
2, 115120, Note_on_c, 1, 58, 127
2, 115120, Note_off_c, 1, 63, 0
2, 115120, Note_off_c, 1, 66, 0
2, 115160, Note_off_c, 1, 58, 0
2, 115160, Note_on_c, 1, 63, 127
2, 115160, Note_on_c, 1, 66, 127
2, 115240, Note_off_c, 1, 63, 0
2, 115240, Note_off_c, 1, 66, 0
2, 115240, Note_off_c, 1, 82, 0
2, 115240, Note_off_c, 1, 87, 0
2, 115240, Note_off_c, 1, 90, 0
2, 115280, Note_on_c, 1, 63, 127
2, 115280, Note_on_c, 1, 66, 127
2, 115280, Note_on_c, 1, 82, 127
2, 115280, Note_on_c, 1, 87, 127
2, 115280, Note_on_c, 1, 90, 127
2, 115520, Note_off_c, 1, 63, 0
2, 115520, Note_off_c, 1, 66, 0
2, 115520, Note_off_c, 1, 82, 0
2, 115520, Note_off_c, 1, 87, 0
2, 115520, Note_off_c, 1, 90, 0
2, 115560, Note_on_c, 1, 63, 127
2, 115560, Note_on_c, 1, 66, 127
2, 115560, Note_on_c, 1, 82, 127
2, 115560, Note_on_c, 1, 87, 127
2, 115560, Note_on_c, 1, 90, 127
2, 115680, Note_on_c, 1, 58, 127
2, 115680, Note_off_c, 1, 63, 0
2, 115680, Note_off_c, 1, 66, 0
2, 115800, Note_off_c, 1, 58, 0
2, 115800, Note_off_c, 1, 82, 0
2, 115800, Note_off_c, 1, 87, 0
2, 115800, Note_off_c, 1, 90, 0
2, 115840, Note_on_c, 1, 39, 127
2, 115840, Note_on_c, 1, 51, 127
2, 115840, Note_on_c, 1, 60, 127
2, 115840, Note_on_c, 1, 66, 127
2, 115840, Note_on_c, 1, 68, 127
2, 116360, Note_off_c, 1, 39, 0
2, 116360, Note_off_c, 1, 51, 0
2, 116360, Note_off_c, 1, 60, 0
2, 116360, Note_off_c, 1, 66, 0
2, 116360, Note_off_c, 1, 68, 0
2, 116400, Note_on_c, 1, 32, 127
2, 116400, Note_on_c, 1, 44, 127
2, 116400, Note_on_c, 1, 60, 127
2, 116400, Note_on_c, 1, 66, 127
2, 116400, Note_on_c, 1, 67, 127
2, 116600, Note_off_c, 1, 32, 0
2, 116600, Note_off_c, 1, 44, 0
2, 116600, Note_off_c, 1, 60, 0
2, 116600, Note_off_c, 1, 66, 0
2, 116600, Note_off_c, 1, 67, 0
2, 116600, Note_on_c, 1, 75, 127
2, 116600, Note_on_c, 1, 80, 127
2, 116600, Note_on_c, 1, 84, 127
2, 116600, Note_on_c, 1, 89, 127
2, 116640, Note_off_c, 1, 75, 0
2, 116640, Note_off_c, 1, 80, 0
2, 116640, Note_off_c, 1, 84, 0
2, 116640, Note_off_c, 1, 89, 0
2, 116680, Note_on_c, 1, 37, 127
2, 116680, Note_on_c, 1, 59, 127
2, 116680, Note_on_c, 1, 65, 127
2, 116680, Note_on_c, 1, 71, 127
2, 116920, Note_off_c, 1, 37, 0
2, 116920, Note_off_c, 1, 59, 0
2, 116920, Note_off_c, 1, 65, 0
2, 116920, Note_off_c, 1, 71, 0
2, 116960, Note_on_c, 1, 37, 127
2, 116960, Note_on_c, 1, 59, 127
2, 116960, Note_on_c, 1, 65, 127
2, 116960, Note_on_c, 1, 71, 127
2, 117080, Note_on_c, 1, 68, 127
2, 117080, Note_off_c, 1, 71, 0
2, 117240, Note_off_c, 1, 37, 0
2, 117240, Note_off_c, 1, 59, 0
2, 117240, Note_off_c, 1, 65, 0
2, 117240, Note_off_c, 1, 68, 0
2, 117280, Note_on_c, 1, 51, 127
2, 117280, Note_on_c, 1, 53, 127
2, 117280, Note_on_c, 1, 63, 127
2, 117280, Note_on_c, 1, 65, 127
2, 117280, Note_on_c, 1, 77, 127
2, 117480, Note_off_c, 1, 51, 0
2, 117480, Note_off_c, 1, 53, 0
2, 117480, Note_off_c, 1, 63, 0
2, 117480, Note_off_c, 1, 65, 0
2, 117480, Note_off_c, 1, 77, 0
2, 117520, Note_on_c, 1, 56, 127
2, 117520, Note_on_c, 1, 63, 127
2, 117520, Note_on_c, 1, 71, 127
2, 117520, Note_on_c, 1, 83, 127
2, 117760, Note_off_c, 1, 56, 0
2, 117760, Note_off_c, 1, 63, 0
2, 117760, Note_off_c, 1, 71, 0
2, 117760, Note_off_c, 1, 83, 0
2, 117800, Note_on_c, 1, 63, 127
2, 117800, Note_on_c, 1, 67, 127
2, 117800, Note_on_c, 1, 73, 127
2, 117800, Note_on_c, 1, 75, 127
2, 117800, Note_on_c, 1, 87, 127
2, 117840, Note_on_c, 1, 56, 127
2, 117840, Note_off_c, 1, 63, 0
2, 117840, Note_on_c, 1, 66, 127
2, 117840, Note_off_c, 1, 67, 0
2, 117840, Note_on_c, 1, 72, 127
2, 117840, Note_off_c, 1, 73, 0
2, 117840, Note_off_c, 1, 75, 0
2, 117840, Note_on_c, 1, 80, 127
2, 117840, Note_on_c, 1, 84, 127
2, 117840, Note_off_c, 1, 87, 0
2, 117880, Note_on_c, 1, 51, 127
2, 117880, Note_on_c, 1, 55, 127
2, 117880, Note_off_c, 1, 56, 0
2, 117880, Note_on_c, 1, 61, 127
2, 117880, Note_on_c, 1, 63, 127
2, 117880, Note_off_c, 1, 66, 0
2, 117880, Note_on_c, 1, 68, 127
2, 117880, Note_off_c, 1, 72, 0
2, 117880, Note_off_c, 1, 80, 0
2, 117880, Note_off_c, 1, 84, 0
2, 117920, Note_on_c, 1, 49, 127
2, 117920, Note_off_c, 1, 51, 0
2, 117920, Note_off_c, 1, 55, 0
2, 117920, Note_off_c, 1, 61, 0
2, 117920, Note_off_c, 1, 63, 0
2, 117920, Note_off_c, 1, 68, 0
2, 117920, Note_on_c, 1, 87, 127
2, 117920, Note_on_c, 1, 99, 127
2, 117960, Note_on_c, 1, 32, 127
2, 117960, Note_on_c, 1, 44, 127
2, 117960, Note_off_c, 1, 49, 0
2, 117960, Note_on_c, 1, 66, 127
2, 117960, Note_on_c, 1, 72, 127
2, 117960, Note_on_c, 1, 77, 127
2, 117960, Note_off_c, 1, 87, 0
2, 117960, Note_off_c, 1, 99, 0
2, 118000, Note_off_c, 1, 32, 0
2, 118000, Note_off_c, 1, 44, 0
2, 118000, Note_on_c, 1, 56, 127
2, 118000, Note_off_c, 1, 66, 0
2, 118000, Note_off_c, 1, 72, 0
2, 118000, Note_off_c, 1, 77, 0
2, 118000, Note_on_c, 1, 90, 127
2, 118040, Note_off_c, 1, 56, 0
2, 118040, Note_off_c, 1, 90, 0
2, 118080, Note_on_c, 1, 57, 127
2, 118080, Note_on_c, 1, 63, 127
2, 118080, Note_on_c, 1, 66, 127
2, 118080, Note_on_c, 1, 78, 127
2, 118080, Note_on_c, 1, 90, 127
2, 118280, Note_off_c, 1, 57, 0
2, 118280, Note_off_c, 1, 63, 0
2, 118280, Note_off_c, 1, 66, 0
2, 118280, Note_off_c, 1, 78, 0
2, 118280, Note_off_c, 1, 90, 0
2, 118360, Note_on_c, 1, 63, 127
2, 118360, Note_on_c, 1, 66, 127
2, 118360, Note_on_c, 1, 67, 127
2, 118360, Note_on_c, 1, 80, 127
2, 118440, Note_on_c, 1, 72, 127
2, 118440, Note_on_c, 1, 84, 127
2, 118560, Note_off_c, 1, 72, 0
2, 118560, Note_off_c, 1, 84, 0
2, 118600, Note_off_c, 1, 63, 0
2, 118600, Note_off_c, 1, 66, 0
2, 118600, Note_off_c, 1, 67, 0
2, 118600, Note_off_c, 1, 80, 0
2, 118640, Note_on_c, 1, 47, 127
2, 118640, Note_on_c, 1, 80, 127
2, 118640, Note_on_c, 1, 88, 127
2, 118840, Note_off_c, 1, 47, 0
2, 118840, Note_off_c, 1, 80, 0
2, 118840, Note_off_c, 1, 88, 0
2, 118920, Note_on_c, 1, 68, 127
2, 118920, Note_on_c, 1, 72, 127
2, 118920, Note_on_c, 1, 78, 127
2, 118920, Note_on_c, 1, 88, 127
2, 118920, Note_on_c, 1, 96, 127
2, 118920, Note_on_c, 1, 100, 127
2, 119120, Note_on_c, 1, 40, 127
2, 119120, Note_off_c, 1, 68, 0
2, 119120, Note_off_c, 1, 78, 0
2, 119120, Note_on_c, 1, 83, 127
2, 119120, Note_off_c, 1, 88, 0
2, 119120, Note_off_c, 1, 96, 0
2, 119120, Note_off_c, 1, 100, 0
2, 119160, Note_off_c, 1, 40, 0
2, 119160, Note_off_c, 1, 72, 0
2, 119160, Note_off_c, 1, 83, 0
2, 119200, Note_on_c, 1, 34, 127
2, 119200, Note_on_c, 1, 37, 127
2, 119200, Note_on_c, 1, 46, 127
2, 119200, Note_on_c, 1, 78, 127
2, 119200, Note_on_c, 1, 90, 127
2, 119440, Note_off_c, 1, 34, 0
2, 119440, Note_off_c, 1, 37, 0
2, 119440, Note_off_c, 1, 46, 0
2, 119440, Note_off_c, 1, 78, 0
2, 119440, Note_off_c, 1, 90, 0
2, 119480, Note_on_c, 1, 56, 127
2, 119480, Note_on_c, 1, 71, 127
2, 119480, Note_on_c, 1, 73, 127
2, 119480, Note_on_c, 1, 77, 127
2, 119720, Note_on_c, 1, 54, 127
2, 119720, Note_off_c, 1, 56, 0
2, 119720, Note_off_c, 1, 71, 0
2, 119720, Note_off_c, 1, 73, 0
2, 119720, Note_off_c, 1, 77, 0
2, 119760, Note_off_c, 1, 54, 0
2, 119760, Note_on_c, 1, 64, 127
2, 119760, Note_on_c, 1, 68, 127
2, 119760, Note_on_c, 1, 73, 127
2, 119760, Note_on_c, 1, 76, 127
2, 120000, Note_off_c, 1, 64, 0
2, 120000, Note_off_c, 1, 68, 0
2, 120000, Note_off_c, 1, 73, 0
2, 120000, Note_off_c, 1, 76, 0
2, 120040, End_track
3, 0, Start_track
3, 0, Title_t, "MIDI"
3, 1536, End_track
0, 0, End_of_file
