0, 0, Header, 1, 3, 192
1, 0, Start_track
1, 0, Time_signature, 4, 2, 24, 8
1, 0, Tempo, 500000
1, 120040, End_track
2, 0, Start_track
2, 0, Text_t, "random instrument: random person i dunno whatev"
2, 0, Title_t, "Track 1"
2, 0, Note_on_c, 1, 40, 127
2, 0, Note_on_c, 1, 48, 127
2, 0, Note_on_c, 1, 56, 127
2, 0, Note_on_c, 1, 60, 127
2, 120, Note_off_c, 1, 40, 0
2, 120, Note_off_c, 1, 48, 0
2, 120, Note_off_c, 1, 56, 0
2, 120, Note_off_c, 1, 60, 0
2, 160, Note_on_c, 1, 40, 127
2, 160, Note_on_c, 1, 48, 127
2, 160, Note_on_c, 1, 56, 127
2, 160, Note_on_c, 1, 60, 127
2, 200, Note_on_c, 1, 35, 127
2, 200, Note_on_c, 1, 39, 127
2, 200, Note_off_c, 1, 40, 0
2, 200, Note_on_c, 1, 47, 127
2, 200, Note_off_c, 1, 48, 0
2, 200, Note_on_c, 1, 50, 127
2, 200, Note_off_c, 1, 56, 0
2, 200, Note_off_c, 1, 60, 0
2, 240, Note_off_c, 1, 35, 0
2, 240, Note_off_c, 1, 39, 0
2, 240, Note_off_c, 1, 47, 0
2, 240, Note_off_c, 1, 50, 0
2, 240, Note_on_c, 1, 74, 127
2, 240, Note_on_c, 1, 77, 127
2, 240, Note_on_c, 1, 80, 127
2, 240, Note_on_c, 1, 83, 127
2, 520, Note_off_c, 1, 74, 0
2, 520, Note_off_c, 1, 77, 0
2, 520, Note_off_c, 1, 80, 0
2, 520, Note_off_c, 1, 83, 0
2, 18240, Note_on_c, 1, 40, 127
2, 18240, Note_on_c, 1, 52, 127
2, 18240, Note_on_c, 1, 64, 127
2, 19000, Note_off_c, 1, 40, 0
2, 19000, Note_off_c, 1, 52, 0
2, 19000, Note_off_c, 1, 64, 0
2, 19040, Note_on_c, 1, 37, 127
2, 19040, Note_on_c, 1, 49, 127
2, 19040, Note_on_c, 1, 61, 127
2, 19800, Note_off_c, 1, 37, 0
2, 19800, Note_off_c, 1, 49, 0
2, 19800, Note_off_c, 1, 61, 0
2, 19840, Note_on_c, 1, 33, 127
2, 19840, Note_on_c, 1, 45, 127
2, 19840, Note_on_c, 1, 57, 127
2, 21120, Note_off_c, 1, 33, 0
2, 21120, Note_off_c, 1, 45, 0
2, 21120, Note_off_c, 1, 57, 0
2, 21160, Note_on_c, 1, 33, 127
2, 21160, Note_on_c, 1, 45, 127
2, 21160, Note_on_c, 1, 57, 127
2, 24200, Note_off_c, 1, 33, 0
2, 24200, Note_off_c, 1, 45, 0
2, 24200, Note_off_c, 1, 57, 0
2, 24240, Note_on_c, 1, 33, 127
2, 24240, Note_on_c, 1, 45, 127
2, 24240, Note_on_c, 1, 57, 127
2, 26840, Note_off_c, 1, 33, 0
2, 26840, Note_off_c, 1, 45, 0
2, 26840, Note_off_c, 1, 57, 0
2, 26880, Note_on_c, 1, 33, 127
2, 26880, Note_on_c, 1, 45, 127
2, 26880, Note_on_c, 1, 57, 127
2, 29960, Note_off_c, 1, 33, 0
2, 29960, Note_off_c, 1, 45, 0
2, 29960, Note_off_c, 1, 57, 0
2, 30040, Note_on_c, 1, 33, 127
2, 30040, Note_on_c, 1, 45, 127
2, 30040, Note_on_c, 1, 57, 127
2, 33640, Note_off_c, 1, 33, 0
2, 33640, Note_off_c, 1, 45, 0
2, 33640, Note_off_c, 1, 57, 0
2, 36800, Note_on_c, 1, 45, 127
2, 36800, Note_on_c, 1, 49, 127
2, 37000, Note_off_c, 1, 49, 0
2, 37520, Note_off_c, 1, 45, 0
2, 37560, Note_on_c, 1, 47, 127
2, 37560, Note_on_c, 1, 51, 127
2, 37560, Note_on_c, 1, 54, 127
2, 37560, Note_on_c, 1, 59, 127
2, 38120, Note_off_c, 1, 51, 0
2, 38120, Note_off_c, 1, 54, 0
2, 38120, Note_off_c, 1, 59, 0
2, 38160, Note_on_c, 1, 51, 127
2, 38160, Note_on_c, 1, 54, 127
2, 38160, Note_on_c, 1, 59, 127
2, 38520, Note_off_c, 1, 59, 0
2, 38560, Note_off_c, 1, 47, 0
2, 38560, Note_off_c, 1, 51, 0
2, 38560, Note_off_c, 1, 54, 0
2, 38600, Note_on_c, 1, 47, 127
2, 38600, Note_on_c, 1, 51, 127
2, 38600, Note_on_c, 1, 54, 127
2, 38760, Note_off_c, 1, 47, 0
2, 38760, Note_off_c, 1, 51, 0
2, 38760, Note_off_c, 1, 54, 0
2, 38800, Note_on_c, 1, 47, 127
2, 38800, Note_on_c, 1, 54, 127
2, 38800, Note_on_c, 1, 57, 127
2, 38800, Note_on_c, 1, 63, 127
2, 39360, Note_off_c, 1, 47, 0
2, 39400, Note_on_c, 1, 47, 127
2, 39920, Note_off_c, 1, 47, 0
2, 39920, Note_off_c, 1, 54, 0
2, 39920, Note_off_c, 1, 57, 0
2, 39920, Note_off_c, 1, 63, 0
2, 40000, Note_on_c, 1, 54, 127
2, 40000, Note_on_c, 1, 57, 127
2, 40000, Note_on_c, 1, 59, 127
2, 40000, Note_on_c, 1, 63, 127
2, 40400, Note_off_c, 1, 54, 0
2, 40400, Note_off_c, 1, 57, 0
2, 40400, Note_off_c, 1, 59, 0
2, 40400, Note_off_c, 1, 63, 0
2, 40440, Note_on_c, 1, 54, 127
2, 40440, Note_on_c, 1, 57, 127
2, 40440, Note_on_c, 1, 59, 127
2, 40440, Note_on_c, 1, 63, 127
2, 41120, Note_off_c, 1, 54, 0
2, 41120, Note_off_c, 1, 57, 0
2, 41120, Note_off_c, 1, 59, 0
2, 41120, Note_off_c, 1, 63, 0
2, 41240, Note_on_c, 1, 54, 127
2, 41240, Note_on_c, 1, 57, 127
2, 41240, Note_on_c, 1, 59, 127
2, 41240, Note_on_c, 1, 63, 127
2, 41720, Note_off_c, 1, 54, 0
2, 41720, Note_off_c, 1, 57, 0
2, 41720, Note_off_c, 1, 59, 0
2, 41720, Note_off_c, 1, 63, 0
2, 41840, Note_on_c, 1, 54, 127
2, 41840, Note_on_c, 1, 57, 127
2, 41840, Note_on_c, 1, 59, 127
2, 41840, Note_on_c, 1, 63, 127
2, 42360, Note_off_c, 1, 54, 0
2, 42360, Note_off_c, 1, 57, 0
2, 42360, Note_off_c, 1, 59, 0
2, 42360, Note_off_c, 1, 63, 0
2, 42440, Note_on_c, 1, 44, 127
2, 42440, Note_on_c, 1, 48, 127
2, 42440, Note_on_c, 1, 51, 127
2, 42440, Note_on_c, 1, 54, 127
2, 42640, Note_off_c, 1, 44, 0
2, 42640, Note_off_c, 1, 48, 0
2, 42640, Note_off_c, 1, 51, 0
2, 42640, Note_off_c, 1, 54, 0
2, 42680, Note_on_c, 1, 44, 127
2, 42680, Note_on_c, 1, 48, 127
2, 42680, Note_on_c, 1, 51, 127
2, 42680, Note_on_c, 1, 54, 127
2, 43000, Note_off_c, 1, 44, 0
2, 43000, Note_off_c, 1, 48, 0
2, 43000, Note_off_c, 1, 51, 0
2, 43000, Note_off_c, 1, 54, 0
2, 43080, Note_on_c, 1, 51, 127
2, 43080, Note_on_c, 1, 56, 127
2, 43080, Note_on_c, 1, 59, 127
2, 43080, Note_on_c, 1, 63, 127
2, 43640, Note_off_c, 1, 51, 0
2, 43640, Note_off_c, 1, 56, 0
2, 43640, Note_off_c, 1, 59, 0
2, 43640, Note_off_c, 1, 63, 0
2, 44280, Note_on_c, 1, 40, 127
2, 44280, Note_on_c, 1, 56, 127
2, 44280, Note_on_c, 1, 64, 127
2, 44680, Note_off_c, 1, 40, 0
2, 44680, Note_off_c, 1, 56, 0
2, 44680, Note_off_c, 1, 64, 0
2, 44720, Note_on_c, 1, 40, 127
2, 44720, Note_on_c, 1, 56, 127
2, 44720, Note_on_c, 1, 64, 127
2, 44920, Note_on_c, 1, 47, 127
2, 45440, Note_off_c, 1, 40, 0
2, 45440, Note_off_c, 1, 47, 0
2, 45440, Note_off_c, 1, 56, 0
2, 45440, Note_off_c, 1, 64, 0
2, 45520, Note_on_c, 1, 40, 127
2, 45520, Note_on_c, 1, 47, 127
2, 45520, Note_on_c, 1, 56, 127
2, 45520, Note_on_c, 1, 64, 127
2, 46600, Note_off_c, 1, 40, 0
2, 46600, Note_off_c, 1, 47, 0
2, 46600, Note_off_c, 1, 56, 0
2, 46600, Note_off_c, 1, 64, 0
2, 46760, Note_on_c, 1, 40, 127
2, 46760, Note_on_c, 1, 47, 127
2, 46760, Note_on_c, 1, 56, 127
2, 46760, Note_on_c, 1, 64, 127
2, 47840, Note_off_c, 1, 40, 0
2, 47840, Note_off_c, 1, 47, 0
2, 47840, Note_off_c, 1, 56, 0
2, 47840, Note_off_c, 1, 64, 0
2, 47960, Note_on_c, 1, 40, 127
2, 47960, Note_on_c, 1, 47, 127
2, 47960, Note_on_c, 1, 56, 127
2, 47960, Note_on_c, 1, 64, 127
2, 48760, Note_off_c, 1, 40, 0
2, 48760, Note_off_c, 1, 47, 0
2, 48760, Note_off_c, 1, 56, 0
2, 48760, Note_off_c, 1, 64, 0
2, 48800, Note_on_c, 1, 40, 127
2, 48800, Note_on_c, 1, 47, 127
2, 48800, Note_on_c, 1, 56, 127
2, 48800, Note_on_c, 1, 64, 127
2, 49080, Note_off_c, 1, 40, 0
2, 49080, Note_off_c, 1, 47, 0
2, 49080, Note_off_c, 1, 56, 0
2, 49080, Note_off_c, 1, 64, 0
2, 49200, Note_on_c, 1, 40, 127
2, 49200, Note_on_c, 1, 47, 127
2, 49200, Note_on_c, 1, 56, 127
2, 49200, Note_on_c, 1, 64, 127
2, 49720, Note_off_c, 1, 40, 0
2, 49720, Note_off_c, 1, 47, 0
2, 49720, Note_off_c, 1, 56, 0
2, 49720, Note_off_c, 1, 64, 0
2, 49800, Note_on_c, 1, 40, 127
2, 49800, Note_on_c, 1, 47, 127
2, 49800, Note_on_c, 1, 56, 127
2, 49800, Note_on_c, 1, 64, 127
2, 50800, Note_off_c, 1, 40, 0
2, 50800, Note_off_c, 1, 47, 0
2, 50800, Note_off_c, 1, 56, 0
2, 50800, Note_off_c, 1, 64, 0
2, 50840, Note_on_c, 1, 40, 127
2, 50840, Note_on_c, 1, 47, 127
2, 50840, Note_on_c, 1, 56, 127
2, 50840, Note_on_c, 1, 64, 127
2, 50960, Note_off_c, 1, 40, 0
2, 50960, Note_off_c, 1, 47, 0
2, 50960, Note_off_c, 1, 56, 0
2, 50960, Note_off_c, 1, 64, 0
2, 51040, Note_on_c, 1, 40, 127
2, 51040, Note_on_c, 1, 47, 127
2, 51040, Note_on_c, 1, 56, 127
2, 51040, Note_on_c, 1, 68, 127
2, 51560, Note_off_c, 1, 40, 0
2, 51560, Note_off_c, 1, 47, 0
2, 51560, Note_off_c, 1, 56, 0
2, 51560, Note_off_c, 1, 68, 0
2, 51640, Note_on_c, 1, 40, 127
2, 51640, Note_on_c, 1, 47, 127
2, 51640, Note_on_c, 1, 56, 127
2, 51640, Note_on_c, 1, 66, 127
2, 52160, Note_off_c, 1, 40, 0
2, 52160, Note_off_c, 1, 47, 0
2, 52160, Note_off_c, 1, 56, 0
2, 52160, Note_off_c, 1, 66, 0
2, 52240, Note_on_c, 1, 40, 127
2, 52240, Note_on_c, 1, 47, 127
2, 52240, Note_on_c, 1, 56, 127
2, 52240, Note_on_c, 1, 68, 127
2, 52760, Note_off_c, 1, 40, 0
2, 52760, Note_off_c, 1, 47, 0
2, 52760, Note_off_c, 1, 56, 0
2, 52760, Note_off_c, 1, 68, 0
2, 52880, Note_on_c, 1, 40, 127
2, 52880, Note_on_c, 1, 49, 127
2, 52880, Note_on_c, 1, 57, 127
2, 52880, Note_on_c, 1, 61, 127
2, 53960, Note_off_c, 1, 40, 0
2, 53960, Note_off_c, 1, 49, 0
2, 53960, Note_off_c, 1, 57, 0
2, 53960, Note_off_c, 1, 61, 0
2, 54080, Note_on_c, 1, 40, 127
2, 54080, Note_on_c, 1, 49, 127
2, 54080, Note_on_c, 1, 57, 127
2, 54080, Note_on_c, 1, 61, 127
2, 54880, Note_off_c, 1, 40, 0
2, 54880, Note_off_c, 1, 49, 0
2, 54880, Note_off_c, 1, 57, 0
2, 54880, Note_off_c, 1, 61, 0
2, 54920, Note_on_c, 1, 40, 127
2, 54920, Note_on_c, 1, 49, 127
2, 54920, Note_on_c, 1, 57, 127
2, 54920, Note_on_c, 1, 61, 127
2, 55200, Note_off_c, 1, 40, 0
2, 55200, Note_off_c, 1, 49, 0
2, 55200, Note_off_c, 1, 57, 0
2, 55200, Note_off_c, 1, 61, 0
2, 55320, Note_on_c, 1, 40, 127
2, 55320, Note_on_c, 1, 49, 127
2, 55320, Note_on_c, 1, 57, 127
2, 55320, Note_on_c, 1, 61, 127
2, 56400, Note_off_c, 1, 40, 0
2, 56400, Note_off_c, 1, 49, 0
2, 56400, Note_off_c, 1, 57, 0
2, 56400, Note_off_c, 1, 61, 0
2, 56520, Note_on_c, 1, 40, 127
2, 56520, Note_on_c, 1, 49, 127
2, 56520, Note_on_c, 1, 57, 127
2, 56520, Note_on_c, 1, 61, 127
2, 56920, Note_off_c, 1, 40, 0
2, 56920, Note_off_c, 1, 49, 0
2, 56920, Note_off_c, 1, 57, 0
2, 56920, Note_off_c, 1, 61, 0
2, 56960, Note_on_c, 1, 40, 127
2, 56960, Note_on_c, 1, 49, 127
2, 56960, Note_on_c, 1, 57, 127
2, 56960, Note_on_c, 1, 61, 127
2, 57080, Note_off_c, 1, 40, 0
2, 57080, Note_off_c, 1, 49, 0
2, 57080, Note_off_c, 1, 57, 0
2, 57080, Note_off_c, 1, 61, 0
2, 57160, Note_on_c, 1, 40, 127
2, 57160, Note_on_c, 1, 49, 127
2, 57160, Note_on_c, 1, 57, 127
2, 57160, Note_on_c, 1, 61, 127
2, 57680, Note_off_c, 1, 40, 0
2, 57680, Note_off_c, 1, 49, 0
2, 57680, Note_off_c, 1, 57, 0
2, 57680, Note_off_c, 1, 61, 0
2, 57760, Note_on_c, 1, 40, 127
2, 57760, Note_on_c, 1, 49, 127
2, 57760, Note_on_c, 1, 57, 127
2, 57760, Note_on_c, 1, 61, 127
2, 58280, Note_off_c, 1, 40, 0
2, 58280, Note_off_c, 1, 49, 0
2, 58280, Note_off_c, 1, 57, 0
2, 58280, Note_off_c, 1, 61, 0
2, 58360, Note_on_c, 1, 40, 127
2, 58360, Note_on_c, 1, 49, 127
2, 58360, Note_on_c, 1, 57, 127
2, 58360, Note_on_c, 1, 61, 127
2, 58880, Note_off_c, 1, 40, 0
2, 58880, Note_off_c, 1, 49, 0
2, 58880, Note_off_c, 1, 57, 0
2, 58880, Note_off_c, 1, 61, 0
2, 59000, Note_on_c, 1, 40, 127
2, 59000, Note_on_c, 1, 49, 127
2, 59000, Note_on_c, 1, 57, 127
2, 59000, Note_on_c, 1, 61, 127
2, 60080, Note_off_c, 1, 40, 0
2, 60080, Note_off_c, 1, 49, 0
2, 60080, Note_off_c, 1, 57, 0
2, 60080, Note_off_c, 1, 61, 0
2, 60200, Note_on_c, 1, 40, 127
2, 60200, Note_on_c, 1, 49, 127
2, 60200, Note_on_c, 1, 57, 127
2, 60200, Note_on_c, 1, 61, 127
2, 61000, Note_off_c, 1, 40, 0
2, 61000, Note_off_c, 1, 49, 0
2, 61000, Note_off_c, 1, 57, 0
2, 61000, Note_off_c, 1, 61, 0
2, 61040, Note_on_c, 1, 40, 127
2, 61040, Note_on_c, 1, 49, 127
2, 61040, Note_on_c, 1, 57, 127
2, 61040, Note_on_c, 1, 61, 127
2, 61320, Note_off_c, 1, 40, 0
2, 61320, Note_off_c, 1, 49, 0
2, 61320, Note_off_c, 1, 57, 0
2, 61320, Note_off_c, 1, 61, 0
2, 61440, Note_on_c, 1, 40, 127
2, 61440, Note_on_c, 1, 49, 127
2, 61440, Note_on_c, 1, 57, 127
2, 61440, Note_on_c, 1, 61, 127
2, 62520, Note_off_c, 1, 40, 0
2, 62520, Note_off_c, 1, 49, 0
2, 62520, Note_off_c, 1, 57, 0
2, 62520, Note_off_c, 1, 61, 0
2, 62640, Note_on_c, 1, 40, 127
2, 62640, Note_on_c, 1, 49, 127
2, 62640, Note_on_c, 1, 57, 127
2, 62640, Note_on_c, 1, 61, 127
2, 63040, Note_off_c, 1, 40, 0
2, 63040, Note_off_c, 1, 49, 0
2, 63040, Note_off_c, 1, 57, 0
2, 63040, Note_off_c, 1, 61, 0
2, 63080, Note_on_c, 1, 40, 127
2, 63080, Note_on_c, 1, 49, 127
2, 63080, Note_on_c, 1, 57, 127
2, 63080, Note_on_c, 1, 61, 127
2, 63200, Note_off_c, 1, 40, 0
2, 63200, Note_off_c, 1, 49, 0
2, 63200, Note_off_c, 1, 57, 0
2, 63200, Note_off_c, 1, 61, 0
2, 63280, Note_on_c, 1, 40, 127
2, 63280, Note_on_c, 1, 49, 127
2, 63280, Note_on_c, 1, 57, 127
2, 63280, Note_on_c, 1, 61, 127
2, 63800, Note_off_c, 1, 40, 0
2, 63800, Note_off_c, 1, 49, 0
2, 63800, Note_off_c, 1, 57, 0
2, 63800, Note_off_c, 1, 61, 0
2, 63880, Note_on_c, 1, 40, 127
2, 63880, Note_on_c, 1, 49, 127
2, 63880, Note_on_c, 1, 57, 127
2, 63880, Note_on_c, 1, 61, 127
2, 64960, Note_off_c, 1, 40, 0
2, 64960, Note_off_c, 1, 49, 0
2, 64960, Note_off_c, 1, 57, 0
2, 64960, Note_off_c, 1, 61, 0
2, 65120, Note_on_c, 1, 40, 127
2, 65120, Note_on_c, 1, 49, 127
2, 65120, Note_on_c, 1, 57, 127
2, 65120, Note_on_c, 1, 61, 127
2, 66200, Note_off_c, 1, 40, 0
2, 66200, Note_off_c, 1, 49, 0
2, 66200, Note_off_c, 1, 57, 0
2, 66200, Note_off_c, 1, 61, 0
2, 66320, Note_on_c, 1, 40, 127
2, 66320, Note_on_c, 1, 49, 127
2, 66320, Note_on_c, 1, 57, 127
2, 66320, Note_on_c, 1, 61, 127
2, 67120, Note_off_c, 1, 40, 0
2, 67120, Note_off_c, 1, 49, 0
2, 67120, Note_off_c, 1, 57, 0
2, 67120, Note_off_c, 1, 61, 0
2, 67160, Note_on_c, 1, 40, 127
2, 67160, Note_on_c, 1, 49, 127
2, 67160, Note_on_c, 1, 57, 127
2, 67160, Note_on_c, 1, 61, 127
2, 67480, Note_off_c, 1, 40, 0
2, 67480, Note_off_c, 1, 49, 0
2, 67480, Note_off_c, 1, 57, 0
2, 67480, Note_off_c, 1, 61, 0
2, 67560, Note_on_c, 1, 40, 127
2, 67560, Note_on_c, 1, 49, 127
2, 67560, Note_on_c, 1, 57, 127
2, 67560, Note_on_c, 1, 61, 127
2, 68640, Note_off_c, 1, 40, 0
2, 68640, Note_off_c, 1, 49, 0
2, 68640, Note_off_c, 1, 57, 0
2, 68640, Note_off_c, 1, 61, 0
2, 68760, Note_on_c, 1, 40, 127
2, 68760, Note_on_c, 1, 49, 127
2, 68760, Note_on_c, 1, 57, 127
2, 68760, Note_on_c, 1, 61, 127
2, 69160, Note_off_c, 1, 40, 0
2, 69160, Note_off_c, 1, 49, 0
2, 69160, Note_off_c, 1, 57, 0
2, 69160, Note_off_c, 1, 61, 0
2, 69200, Note_on_c, 1, 40, 127
2, 69200, Note_on_c, 1, 49, 127
2, 69200, Note_on_c, 1, 57, 127
2, 69200, Note_on_c, 1, 61, 127
2, 69320, Note_off_c, 1, 40, 0
2, 69320, Note_off_c, 1, 49, 0
2, 69320, Note_off_c, 1, 57, 0
2, 69320, Note_off_c, 1, 61, 0
2, 69400, Note_on_c, 1, 40, 127
2, 69400, Note_on_c, 1, 49, 127
2, 69400, Note_on_c, 1, 57, 127
2, 69400, Note_on_c, 1, 61, 127
2, 69920, Note_off_c, 1, 40, 0
2, 69920, Note_off_c, 1, 49, 0
2, 69920, Note_off_c, 1, 57, 0
2, 69920, Note_off_c, 1, 61, 0
2, 70000, Note_on_c, 1, 40, 127
2, 70000, Note_on_c, 1, 49, 127
2, 70000, Note_on_c, 1, 57, 127
2, 70000, Note_on_c, 1, 61, 127
2, 71080, Note_off_c, 1, 40, 0
2, 71080, Note_off_c, 1, 49, 0
2, 71080, Note_off_c, 1, 57, 0
2, 71080, Note_off_c, 1, 61, 0
2, 71240, Note_on_c, 1, 40, 127
2, 71240, Note_on_c, 1, 49, 127
2, 71240, Note_on_c, 1, 57, 127
2, 71240, Note_on_c, 1, 61, 127
2, 72320, Note_off_c, 1, 40, 0
2, 72320, Note_off_c, 1, 49, 0
2, 72320, Note_off_c, 1, 57, 0
2, 72320, Note_off_c, 1, 61, 0
2, 72440, Note_on_c, 1, 40, 127
2, 72440, Note_on_c, 1, 49, 127
2, 72440, Note_on_c, 1, 57, 127
2, 72440, Note_on_c, 1, 61, 127
2, 73240, Note_off_c, 1, 40, 0
2, 73240, Note_off_c, 1, 49, 0
2, 73240, Note_off_c, 1, 57, 0
2, 73240, Note_off_c, 1, 61, 0
2, 73280, Note_on_c, 1, 40, 127
2, 73280, Note_on_c, 1, 49, 127
2, 73280, Note_on_c, 1, 57, 127
2, 73280, Note_on_c, 1, 61, 127
2, 73560, Note_off_c, 1, 40, 0
2, 73560, Note_off_c, 1, 49, 0
2, 73560, Note_off_c, 1, 57, 0
2, 73560, Note_off_c, 1, 61, 0
2, 73680, Note_on_c, 1, 40, 127
2, 73680, Note_on_c, 1, 49, 127
2, 73680, Note_on_c, 1, 57, 127
2, 73680, Note_on_c, 1, 61, 127
2, 74720, Note_off_c, 1, 40, 0
2, 74720, Note_off_c, 1, 49, 0
2, 74720, Note_on_c, 1, 55, 127
2, 74720, Note_off_c, 1, 57, 0
2, 74720, Note_on_c, 1, 58, 127
2, 74720, Note_off_c, 1, 61, 0
2, 74720, Note_on_c, 1, 62, 127
2, 74720, Note_on_c, 1, 67, 127
2, 74720, Note_on_c, 1, 70, 127
2, 74760, Note_off_c, 1, 55, 0
2, 74760, Note_off_c, 1, 58, 0
2, 74760, Note_off_c, 1, 62, 0
2, 74760, Note_off_c, 1, 67, 0
2, 74760, Note_off_c, 1, 70, 0
2, 74880, Note_on_c, 1, 40, 127
2, 74880, Note_on_c, 1, 49, 127
2, 74880, Note_on_c, 1, 57, 127
2, 74880, Note_on_c, 1, 61, 127
2, 75280, Note_off_c, 1, 40, 0
2, 75280, Note_off_c, 1, 49, 0
2, 75280, Note_off_c, 1, 57, 0
2, 75280, Note_off_c, 1, 61, 0
2, 75320, Note_on_c, 1, 40, 127
2, 75320, Note_on_c, 1, 49, 127
2, 75320, Note_on_c, 1, 57, 127
2, 75320, Note_on_c, 1, 61, 127
2, 75440, Note_off_c, 1, 40, 0
2, 75440, Note_off_c, 1, 49, 0
2, 75440, Note_off_c, 1, 57, 0
2, 75440, Note_off_c, 1, 61, 0
2, 75520, Note_on_c, 1, 37, 127
2, 75520, Note_on_c, 1, 49, 127
2, 75520, Note_on_c, 1, 57, 127
2, 75520, Note_on_c, 1, 64, 127
2, 75520, Note_on_c, 1, 67, 127
2, 75520, Note_on_c, 1, 69, 127
2, 76040, Note_off_c, 1, 37, 0
2, 76040, Note_off_c, 1, 49, 0
2, 76040, Note_off_c, 1, 57, 0
2, 76040, Note_off_c, 1, 64, 0
2, 76040, Note_off_c, 1, 67, 0
2, 76040, Note_off_c, 1, 69, 0
2, 76120, Note_on_c, 1, 37, 127
2, 76120, Note_on_c, 1, 49, 127
2, 76120, Note_on_c, 1, 57, 127
2, 76120, Note_on_c, 1, 64, 127
2, 76120, Note_on_c, 1, 67, 127
2, 76120, Note_on_c, 1, 69, 127
2, 76640, Note_off_c, 1, 37, 0
2, 76640, Note_off_c, 1, 49, 0
2, 76640, Note_off_c, 1, 57, 0
2, 76640, Note_off_c, 1, 64, 0
2, 76640, Note_off_c, 1, 67, 0
2, 76640, Note_off_c, 1, 69, 0
2, 76720, Note_on_c, 1, 37, 127
2, 76720, Note_on_c, 1, 49, 127
2, 76720, Note_on_c, 1, 57, 127
2, 76720, Note_on_c, 1, 64, 127
2, 76720, Note_on_c, 1, 67, 127
2, 76720, Note_on_c, 1, 69, 127
2, 77240, Note_off_c, 1, 37, 0
2, 77240, Note_off_c, 1, 49, 0
2, 77240, Note_off_c, 1, 57, 0
2, 77240, Note_off_c, 1, 64, 0
2, 77240, Note_off_c, 1, 67, 0
2, 77240, Note_off_c, 1, 69, 0
2, 77360, Note_on_c, 1, 37, 127
2, 77360, Note_on_c, 1, 49, 127
2, 77360, Note_on_c, 1, 57, 127
2, 77360, Note_on_c, 1, 64, 127
2, 77360, Note_on_c, 1, 67, 127
2, 77360, Note_on_c, 1, 69, 127
2, 77880, Note_off_c, 1, 37, 0
2, 77880, Note_off_c, 1, 49, 0
2, 77880, Note_off_c, 1, 57, 0
2, 77880, Note_off_c, 1, 64, 0
2, 77880, Note_off_c, 1, 67, 0
2, 77880, Note_off_c, 1, 69, 0
2, 77960, Note_on_c, 1, 37, 127
2, 77960, Note_on_c, 1, 49, 127
2, 77960, Note_on_c, 1, 57, 127
2, 77960, Note_on_c, 1, 64, 127
2, 77960, Note_on_c, 1, 67, 127
2, 77960, Note_on_c, 1, 69, 127
2, 78480, Note_off_c, 1, 37, 0
2, 78480, Note_off_c, 1, 49, 0
2, 78480, Note_off_c, 1, 57, 0
2, 78480, Note_off_c, 1, 64, 0
2, 78480, Note_off_c, 1, 67, 0
2, 78480, Note_off_c, 1, 69, 0
2, 78560, Note_on_c, 1, 37, 127
2, 78560, Note_on_c, 1, 49, 127
2, 78560, Note_on_c, 1, 57, 127
2, 78560, Note_on_c, 1, 64, 127
2, 78560, Note_on_c, 1, 67, 127
2, 78560, Note_on_c, 1, 69, 127
2, 79080, Note_off_c, 1, 37, 0
2, 79080, Note_off_c, 1, 49, 0
2, 79080, Note_off_c, 1, 57, 0
2, 79080, Note_off_c, 1, 64, 0
2, 79080, Note_off_c, 1, 67, 0
2, 79080, Note_off_c, 1, 69, 0
2, 79160, Note_on_c, 1, 37, 127
2, 79160, Note_on_c, 1, 49, 127
2, 79160, Note_on_c, 1, 57, 127
2, 79160, Note_on_c, 1, 64, 127
2, 79160, Note_on_c, 1, 67, 127
2, 79160, Note_on_c, 1, 69, 127
2, 79360, Note_off_c, 1, 37, 0
2, 79360, Note_off_c, 1, 49, 0
2, 79360, Note_off_c, 1, 57, 0
2, 79360, Note_off_c, 1, 64, 0
2, 79360, Note_off_c, 1, 67, 0
2, 79360, Note_off_c, 1, 69, 0
2, 79400, Note_on_c, 1, 37, 127
2, 79400, Note_on_c, 1, 49, 127
2, 79400, Note_on_c, 1, 57, 127
2, 79400, Note_on_c, 1, 64, 127
2, 79400, Note_on_c, 1, 67, 127
2, 79400, Note_on_c, 1, 69, 127
2, 79720, Note_off_c, 1, 37, 0
2, 79720, Note_off_c, 1, 49, 0
2, 79720, Note_off_c, 1, 57, 0
2, 79720, Note_off_c, 1, 64, 0
2, 79720, Note_off_c, 1, 67, 0
2, 79720, Note_off_c, 1, 69, 0
2, 79800, Note_on_c, 1, 37, 127
2, 79800, Note_on_c, 1, 49, 127
2, 79800, Note_on_c, 1, 57, 127
2, 79800, Note_on_c, 1, 64, 127
2, 79800, Note_on_c, 1, 67, 127
2, 79800, Note_on_c, 1, 69, 127
2, 80320, Note_off_c, 1, 37, 0
2, 80320, Note_off_c, 1, 49, 0
2, 80320, Note_off_c, 1, 57, 0
2, 80320, Note_off_c, 1, 64, 0
2, 80320, Note_off_c, 1, 67, 0
2, 80320, Note_off_c, 1, 69, 0
2, 80400, Note_on_c, 1, 37, 127
2, 80400, Note_on_c, 1, 49, 127
2, 80400, Note_on_c, 1, 57, 127
2, 80400, Note_on_c, 1, 64, 127
2, 80400, Note_on_c, 1, 67, 127
2, 80400, Note_on_c, 1, 69, 127
2, 80920, Note_off_c, 1, 37, 0
2, 80920, Note_off_c, 1, 49, 0
2, 80920, Note_off_c, 1, 57, 0
2, 80920, Note_off_c, 1, 64, 0
2, 80920, Note_off_c, 1, 67, 0
2, 80920, Note_off_c, 1, 69, 0
2, 81000, Note_on_c, 1, 37, 127
2, 81000, Note_on_c, 1, 49, 127
2, 81000, Note_on_c, 1, 57, 127
2, 81000, Note_on_c, 1, 64, 127
2, 81000, Note_on_c, 1, 67, 127
2, 81000, Note_on_c, 1, 69, 127
2, 81400, Note_off_c, 1, 37, 0
2, 81400, Note_off_c, 1, 49, 0
2, 81400, Note_off_c, 1, 57, 0
2, 81400, Note_off_c, 1, 64, 0
2, 81400, Note_off_c, 1, 67, 0
2, 81400, Note_off_c, 1, 69, 0
2, 81440, Note_on_c, 1, 37, 127
2, 81440, Note_on_c, 1, 49, 127
2, 81440, Note_on_c, 1, 57, 127
2, 81440, Note_on_c, 1, 64, 127
2, 81440, Note_on_c, 1, 67, 127
2, 81440, Note_on_c, 1, 69, 127
2, 81560, Note_off_c, 1, 37, 0
2, 81560, Note_off_c, 1, 49, 0
2, 81560, Note_off_c, 1, 57, 0
2, 81560, Note_off_c, 1, 64, 0
2, 81560, Note_off_c, 1, 67, 0
2, 81560, Note_off_c, 1, 69, 0
2, 81640, Note_on_c, 1, 37, 127
2, 81640, Note_on_c, 1, 49, 127
2, 81640, Note_on_c, 1, 57, 127
2, 81640, Note_on_c, 1, 64, 127
2, 81640, Note_on_c, 1, 67, 127
2, 81640, Note_on_c, 1, 69, 127
2, 82160, Note_off_c, 1, 37, 0
2, 82160, Note_off_c, 1, 49, 0
2, 82160, Note_off_c, 1, 57, 0
2, 82160, Note_off_c, 1, 64, 0
2, 82160, Note_off_c, 1, 67, 0
2, 82160, Note_off_c, 1, 69, 0
2, 82240, Note_on_c, 1, 37, 127
2, 82240, Note_on_c, 1, 49, 127
2, 82240, Note_on_c, 1, 57, 127
2, 82240, Note_on_c, 1, 64, 127
2, 82240, Note_on_c, 1, 67, 127
2, 82240, Note_on_c, 1, 69, 127
2, 82760, Note_off_c, 1, 37, 0
2, 82760, Note_off_c, 1, 49, 0
2, 82760, Note_off_c, 1, 57, 0
2, 82760, Note_off_c, 1, 64, 0
2, 82760, Note_off_c, 1, 67, 0
2, 82760, Note_off_c, 1, 69, 0
2, 82840, Note_on_c, 1, 37, 127
2, 82840, Note_on_c, 1, 49, 127
2, 82840, Note_on_c, 1, 57, 127
2, 82840, Note_on_c, 1, 64, 127
2, 82840, Note_on_c, 1, 67, 127
2, 82840, Note_on_c, 1, 69, 127
2, 83360, Note_off_c, 1, 37, 0
2, 83360, Note_off_c, 1, 49, 0
2, 83360, Note_off_c, 1, 57, 0
2, 83360, Note_off_c, 1, 64, 0
2, 83360, Note_off_c, 1, 67, 0
2, 83360, Note_off_c, 1, 69, 0
2, 83480, Note_on_c, 1, 37, 127
2, 83480, Note_on_c, 1, 49, 127
2, 83480, Note_on_c, 1, 57, 127
2, 83480, Note_on_c, 1, 64, 127
2, 83480, Note_on_c, 1, 67, 127
2, 83480, Note_on_c, 1, 69, 127
2, 84000, Note_off_c, 1, 37, 0
2, 84000, Note_off_c, 1, 49, 0
2, 84000, Note_off_c, 1, 57, 0
2, 84000, Note_off_c, 1, 64, 0
2, 84000, Note_off_c, 1, 67, 0
2, 84000, Note_off_c, 1, 69, 0
2, 84080, Note_on_c, 1, 37, 127
2, 84080, Note_on_c, 1, 49, 127
2, 84080, Note_on_c, 1, 57, 127
2, 84080, Note_on_c, 1, 64, 127
2, 84080, Note_on_c, 1, 67, 127
2, 84080, Note_on_c, 1, 69, 127
2, 84600, Note_off_c, 1, 37, 0
2, 84600, Note_off_c, 1, 49, 0
2, 84600, Note_off_c, 1, 57, 0
2, 84600, Note_off_c, 1, 64, 0
2, 84600, Note_off_c, 1, 67, 0
2, 84600, Note_off_c, 1, 69, 0
2, 84680, Note_on_c, 1, 37, 127
2, 84680, Note_on_c, 1, 49, 127
2, 84680, Note_on_c, 1, 57, 127
2, 84680, Note_on_c, 1, 64, 127
2, 84680, Note_on_c, 1, 67, 127
2, 84680, Note_on_c, 1, 69, 127
2, 85200, Note_off_c, 1, 37, 0
2, 85200, Note_off_c, 1, 49, 0
2, 85200, Note_off_c, 1, 57, 0
2, 85200, Note_off_c, 1, 64, 0
2, 85200, Note_off_c, 1, 67, 0
2, 85200, Note_off_c, 1, 69, 0
2, 85280, Note_on_c, 1, 37, 127
2, 85280, Note_on_c, 1, 49, 127
2, 85280, Note_on_c, 1, 57, 127
2, 85280, Note_on_c, 1, 64, 127
2, 85280, Note_on_c, 1, 67, 127
2, 85280, Note_on_c, 1, 69, 127
2, 85680, Note_off_c, 1, 37, 0
2, 85680, Note_off_c, 1, 49, 0
2, 85680, Note_off_c, 1, 57, 0
2, 85680, Note_off_c, 1, 64, 0
2, 85680, Note_off_c, 1, 67, 0
2, 85680, Note_off_c, 1, 69, 0
2, 85720, Note_on_c, 1, 37, 127
2, 85720, Note_on_c, 1, 49, 127
2, 85720, Note_on_c, 1, 57, 127
2, 85720, Note_on_c, 1, 64, 127
2, 85720, Note_on_c, 1, 67, 127
2, 85720, Note_on_c, 1, 69, 127
2, 86440, Note_off_c, 1, 37, 0
2, 86440, Note_off_c, 1, 49, 0
2, 86440, Note_off_c, 1, 57, 0
2, 86440, Note_off_c, 1, 64, 0
2, 86440, Note_off_c, 1, 67, 0
2, 86440, Note_off_c, 1, 69, 0
2, 86520, Note_on_c, 1, 37, 127
2, 86520, Note_on_c, 1, 49, 127
2, 86520, Note_on_c, 1, 57, 127
2, 86520, Note_on_c, 1, 64, 127
2, 86520, Note_on_c, 1, 67, 127
2, 86520, Note_on_c, 1, 69, 127
2, 87040, Note_off_c, 1, 37, 0
2, 87040, Note_off_c, 1, 49, 0
2, 87040, Note_off_c, 1, 57, 0
2, 87040, Note_off_c, 1, 64, 0
2, 87040, Note_off_c, 1, 67, 0
2, 87040, Note_off_c, 1, 69, 0
2, 87120, Note_on_c, 1, 37, 127
2, 87120, Note_on_c, 1, 49, 127
2, 87120, Note_on_c, 1, 57, 127
2, 87120, Note_on_c, 1, 64, 127
2, 87120, Note_on_c, 1, 67, 127
2, 87120, Note_on_c, 1, 69, 127
2, 87640, Note_off_c, 1, 37, 0
2, 87640, Note_off_c, 1, 49, 0
2, 87640, Note_off_c, 1, 57, 0
2, 87640, Note_off_c, 1, 64, 0
2, 87640, Note_off_c, 1, 67, 0
2, 87640, Note_off_c, 1, 69, 0
2, 87760, Note_on_c, 1, 37, 127
2, 87760, Note_on_c, 1, 49, 127
2, 87760, Note_on_c, 1, 57, 127
2, 87760, Note_on_c, 1, 64, 127
2, 87760, Note_on_c, 1, 67, 127
2, 87760, Note_on_c, 1, 69, 127
2, 88280, Note_off_c, 1, 37, 0
2, 88280, Note_off_c, 1, 49, 0
2, 88280, Note_off_c, 1, 57, 0
2, 88280, Note_off_c, 1, 64, 0
2, 88280, Note_off_c, 1, 67, 0
2, 88280, Note_off_c, 1, 69, 0
2, 88360, Note_on_c, 1, 37, 127
2, 88360, Note_on_c, 1, 49, 127
2, 88360, Note_on_c, 1, 57, 127
2, 88360, Note_on_c, 1, 64, 127
2, 88360, Note_on_c, 1, 67, 127
2, 88360, Note_on_c, 1, 69, 127
2, 88880, Note_off_c, 1, 37, 0
2, 88880, Note_off_c, 1, 49, 0
2, 88880, Note_off_c, 1, 57, 0
2, 88880, Note_off_c, 1, 64, 0
2, 88880, Note_off_c, 1, 67, 0
2, 88880, Note_off_c, 1, 69, 0
2, 88960, Note_on_c, 1, 37, 127
2, 88960, Note_on_c, 1, 49, 127
2, 88960, Note_on_c, 1, 57, 127
2, 88960, Note_on_c, 1, 64, 127
2, 88960, Note_on_c, 1, 67, 127
2, 88960, Note_on_c, 1, 69, 127
2, 89480, Note_off_c, 1, 37, 0
2, 89480, Note_off_c, 1, 49, 0
2, 89480, Note_off_c, 1, 57, 0
2, 89480, Note_off_c, 1, 64, 0
2, 89480, Note_off_c, 1, 67, 0
2, 89480, Note_off_c, 1, 69, 0
2, 89560, Note_on_c, 1, 37, 127
2, 89560, Note_on_c, 1, 49, 127
2, 89560, Note_on_c, 1, 57, 127
2, 89560, Note_on_c, 1, 64, 127
2, 89560, Note_on_c, 1, 67, 127
2, 89560, Note_on_c, 1, 69, 127
2, 89760, Note_off_c, 1, 37, 0
2, 89760, Note_off_c, 1, 49, 0
2, 89760, Note_off_c, 1, 57, 0
2, 89760, Note_off_c, 1, 64, 0
2, 89760, Note_off_c, 1, 67, 0
2, 89760, Note_off_c, 1, 69, 0
2, 89800, Note_on_c, 1, 37, 127
2, 89800, Note_on_c, 1, 49, 127
2, 89800, Note_on_c, 1, 57, 127
2, 89800, Note_on_c, 1, 64, 127
2, 89800, Note_on_c, 1, 67, 127
2, 89800, Note_on_c, 1, 69, 127
2, 90120, Note_off_c, 1, 37, 0
2, 90120, Note_off_c, 1, 49, 0
2, 90120, Note_off_c, 1, 57, 0
2, 90120, Note_off_c, 1, 64, 0
2, 90120, Note_off_c, 1, 67, 0
2, 90120, Note_off_c, 1, 69, 0
2, 90200, Note_on_c, 1, 37, 127
2, 90200, Note_on_c, 1, 49, 127
2, 90200, Note_on_c, 1, 57, 127
2, 90200, Note_on_c, 1, 64, 127
2, 90200, Note_on_c, 1, 67, 127
2, 90200, Note_on_c, 1, 69, 127
2, 90720, Note_off_c, 1, 37, 0
2, 90720, Note_off_c, 1, 49, 0
2, 90720, Note_off_c, 1, 57, 0
2, 90720, Note_off_c, 1, 64, 0
2, 90720, Note_off_c, 1, 67, 0
2, 90720, Note_off_c, 1, 69, 0
2, 90800, Note_on_c, 1, 37, 127
2, 90800, Note_on_c, 1, 49, 127
2, 90800, Note_on_c, 1, 57, 127
2, 90800, Note_on_c, 1, 64, 127
2, 90800, Note_on_c, 1, 67, 127
2, 90800, Note_on_c, 1, 69, 127
2, 91320, Note_off_c, 1, 37, 0
2, 91320, Note_off_c, 1, 49, 0
2, 91320, Note_off_c, 1, 57, 0
2, 91320, Note_off_c, 1, 64, 0
2, 91320, Note_off_c, 1, 67, 0
2, 91320, Note_off_c, 1, 69, 0
2, 91400, Note_on_c, 1, 37, 127
2, 91400, Note_on_c, 1, 49, 127
2, 91400, Note_on_c, 1, 57, 127
2, 91400, Note_on_c, 1, 64, 127
2, 91400, Note_on_c, 1, 67, 127
2, 91400, Note_on_c, 1, 69, 127
2, 91800, Note_off_c, 1, 37, 0
2, 91800, Note_off_c, 1, 49, 0
2, 91800, Note_off_c, 1, 57, 0
2, 91800, Note_off_c, 1, 64, 0
2, 91800, Note_off_c, 1, 67, 0
2, 91800, Note_off_c, 1, 69, 0
2, 91840, Note_on_c, 1, 37, 127
2, 91840, Note_on_c, 1, 49, 127
2, 91840, Note_on_c, 1, 57, 127
2, 91840, Note_on_c, 1, 64, 127
2, 91840, Note_on_c, 1, 67, 127
2, 91840, Note_on_c, 1, 69, 127
2, 91960, Note_off_c, 1, 57, 0
2, 92000, Note_on_c, 1, 57, 127
2, 92560, Note_off_c, 1, 37, 0
2, 92560, Note_off_c, 1, 49, 0
2, 92560, Note_off_c, 1, 57, 0
2, 92560, Note_off_c, 1, 64, 0
2, 92560, Note_off_c, 1, 67, 0
2, 92560, Note_off_c, 1, 69, 0
2, 92640, Note_on_c, 1, 37, 127
2, 92640, Note_on_c, 1, 49, 127
2, 92640, Note_on_c, 1, 57, 127
2, 92640, Note_on_c, 1, 64, 127
2, 92640, Note_on_c, 1, 67, 127
2, 92640, Note_on_c, 1, 69, 127
2, 93160, Note_off_c, 1, 37, 0
2, 93160, Note_off_c, 1, 49, 0
2, 93160, Note_off_c, 1, 57, 0
2, 93160, Note_off_c, 1, 64, 0
2, 93160, Note_off_c, 1, 67, 0
2, 93160, Note_off_c, 1, 69, 0
2, 93240, Note_on_c, 1, 37, 127
2, 93240, Note_on_c, 1, 49, 127
2, 93240, Note_on_c, 1, 57, 127
2, 93240, Note_on_c, 1, 64, 127
2, 93240, Note_on_c, 1, 67, 127
2, 93240, Note_on_c, 1, 69, 127
2, 93760, Note_off_c, 1, 37, 0
2, 93760, Note_off_c, 1, 49, 0
2, 93760, Note_off_c, 1, 57, 0
2, 93760, Note_off_c, 1, 64, 0
2, 93760, Note_off_c, 1, 67, 0
2, 93760, Note_off_c, 1, 69, 0
2, 93880, Note_on_c, 1, 37, 127
2, 93880, Note_on_c, 1, 49, 127
2, 93880, Note_on_c, 1, 57, 127
2, 93880, Note_on_c, 1, 64, 127
2, 93880, Note_on_c, 1, 67, 127
2, 93880, Note_on_c, 1, 69, 127
2, 94400, Note_off_c, 1, 37, 0
2, 94400, Note_off_c, 1, 49, 0
2, 94400, Note_off_c, 1, 57, 0
2, 94400, Note_off_c, 1, 64, 0
2, 94400, Note_off_c, 1, 67, 0
2, 94400, Note_off_c, 1, 69, 0
2, 94480, Note_on_c, 1, 37, 127
2, 94480, Note_on_c, 1, 49, 127
2, 94480, Note_on_c, 1, 57, 127
2, 94480, Note_on_c, 1, 64, 127
2, 94480, Note_on_c, 1, 67, 127
2, 94480, Note_on_c, 1, 69, 127
2, 95000, Note_off_c, 1, 37, 0
2, 95000, Note_off_c, 1, 49, 0
2, 95000, Note_off_c, 1, 57, 0
2, 95000, Note_off_c, 1, 64, 0
2, 95000, Note_off_c, 1, 67, 0
2, 95000, Note_off_c, 1, 69, 0
2, 95080, Note_on_c, 1, 37, 127
2, 95080, Note_on_c, 1, 49, 127
2, 95080, Note_on_c, 1, 57, 127
2, 95080, Note_on_c, 1, 64, 127
2, 95080, Note_on_c, 1, 67, 127
2, 95080, Note_on_c, 1, 69, 127
2, 95600, Note_off_c, 1, 37, 0
2, 95600, Note_off_c, 1, 49, 0
2, 95600, Note_off_c, 1, 57, 0
2, 95600, Note_off_c, 1, 64, 0
2, 95600, Note_off_c, 1, 67, 0
2, 95600, Note_off_c, 1, 69, 0
2, 95680, Note_on_c, 1, 37, 127
2, 95680, Note_on_c, 1, 49, 127
2, 95680, Note_on_c, 1, 57, 127
2, 95680, Note_on_c, 1, 64, 127
2, 95680, Note_on_c, 1, 67, 127
2, 95680, Note_on_c, 1, 69, 127
2, 96080, Note_off_c, 1, 37, 0
2, 96080, Note_off_c, 1, 49, 0
2, 96080, Note_off_c, 1, 57, 0
2, 96080, Note_off_c, 1, 64, 0
2, 96080, Note_off_c, 1, 67, 0
2, 96080, Note_off_c, 1, 69, 0
2, 96120, Note_on_c, 1, 37, 127
2, 96120, Note_on_c, 1, 49, 127
2, 96120, Note_on_c, 1, 57, 127
2, 96120, Note_on_c, 1, 64, 127
2, 96120, Note_on_c, 1, 67, 127
2, 96120, Note_on_c, 1, 69, 127
2, 96240, Note_off_c, 1, 37, 0
2, 96240, Note_off_c, 1, 49, 0
2, 96240, Note_off_c, 1, 57, 0
2, 96240, Note_off_c, 1, 64, 0
2, 96240, Note_off_c, 1, 67, 0
2, 96240, Note_off_c, 1, 69, 0
2, 96320, Note_on_c, 1, 37, 127
2, 96320, Note_on_c, 1, 49, 127
2, 96320, Note_on_c, 1, 57, 127
2, 96320, Note_on_c, 1, 64, 127
2, 96320, Note_on_c, 1, 67, 127
2, 96320, Note_on_c, 1, 69, 127
2, 96840, Note_off_c, 1, 37, 0
2, 96840, Note_off_c, 1, 49, 0
2, 96840, Note_off_c, 1, 57, 0
2, 96840, Note_off_c, 1, 64, 0
2, 96840, Note_off_c, 1, 67, 0
2, 96840, Note_off_c, 1, 69, 0
2, 96920, Note_on_c, 1, 37, 127
2, 96920, Note_on_c, 1, 49, 127
2, 96920, Note_on_c, 1, 57, 127
2, 96920, Note_on_c, 1, 64, 127
2, 96920, Note_on_c, 1, 67, 127
2, 96920, Note_on_c, 1, 69, 127
2, 97440, Note_off_c, 1, 37, 0
2, 97440, Note_off_c, 1, 49, 0
2, 97440, Note_off_c, 1, 57, 0
2, 97440, Note_off_c, 1, 64, 0
2, 97440, Note_off_c, 1, 67, 0
2, 97440, Note_off_c, 1, 69, 0
2, 97520, Note_on_c, 1, 37, 127
2, 97520, Note_on_c, 1, 49, 127
2, 97520, Note_on_c, 1, 57, 127
2, 97520, Note_on_c, 1, 64, 127
2, 97520, Note_on_c, 1, 67, 127
2, 97520, Note_on_c, 1, 69, 127
2, 98040, Note_off_c, 1, 37, 0
2, 98040, Note_off_c, 1, 49, 0
2, 98040, Note_off_c, 1, 57, 0
2, 98040, Note_off_c, 1, 64, 0
2, 98040, Note_off_c, 1, 67, 0
2, 98040, Note_off_c, 1, 69, 0
2, 98160, Note_on_c, 1, 35, 127
2, 98160, Note_on_c, 1, 47, 127
2, 98160, Note_on_c, 1, 56, 127
2, 98160, Note_on_c, 1, 64, 127
2, 98160, Note_on_c, 1, 68, 127
2, 99280, Note_off_c, 1, 35, 0
2, 99280, Note_off_c, 1, 47, 0
2, 99280, Note_off_c, 1, 56, 0
2, 99280, Note_off_c, 1, 64, 0
2, 99280, Note_off_c, 1, 68, 0
2, 99360, Note_on_c, 1, 35, 127
2, 99360, Note_on_c, 1, 47, 127
2, 99360, Note_on_c, 1, 56, 127
2, 99360, Note_on_c, 1, 64, 127
2, 99360, Note_on_c, 1, 68, 127
2, 100160, Note_off_c, 1, 35, 0
2, 100160, Note_off_c, 1, 47, 0
2, 100160, Note_off_c, 1, 56, 0
2, 100160, Note_off_c, 1, 64, 0
2, 100160, Note_off_c, 1, 68, 0
2, 100200, Note_on_c, 1, 35, 127
2, 100200, Note_on_c, 1, 47, 127
2, 100200, Note_on_c, 1, 56, 127
2, 100200, Note_on_c, 1, 64, 127
2, 100200, Note_on_c, 1, 68, 127
2, 100520, Note_off_c, 1, 35, 0
2, 100520, Note_off_c, 1, 47, 0
2, 100520, Note_off_c, 1, 56, 0
2, 100520, Note_off_c, 1, 64, 0
2, 100520, Note_off_c, 1, 68, 0
2, 100600, Note_on_c, 1, 35, 127
2, 100600, Note_on_c, 1, 47, 127
2, 100600, Note_on_c, 1, 56, 127
2, 100600, Note_on_c, 1, 64, 127
2, 100600, Note_on_c, 1, 68, 127
2, 101760, Note_off_c, 1, 35, 0
2, 101760, Note_off_c, 1, 47, 0
2, 101760, Note_off_c, 1, 56, 0
2, 101760, Note_off_c, 1, 64, 0
2, 101760, Note_off_c, 1, 68, 0
2, 101800, Note_on_c, 1, 47, 127
2, 101800, Note_on_c, 1, 59, 127
2, 102200, Note_off_c, 1, 47, 0
2, 102200, Note_off_c, 1, 59, 0
2, 102240, Note_on_c, 1, 47, 127
2, 102240, Note_on_c, 1, 59, 127
2, 102400, Note_off_c, 1, 47, 0
2, 102400, Note_off_c, 1, 59, 0
2, 102440, Note_on_c, 1, 46, 127
2, 102440, Note_on_c, 1, 58, 127
2, 102960, Note_off_c, 1, 46, 0
2, 102960, Note_off_c, 1, 58, 0
2, 103040, Note_on_c, 1, 47, 127
2, 103040, Note_on_c, 1, 59, 127
2, 104200, Note_off_c, 1, 47, 0
2, 104200, Note_off_c, 1, 59, 0
2, 104280, Note_on_c, 1, 47, 127
2, 104280, Note_on_c, 1, 59, 127
2, 105440, Note_off_c, 1, 47, 0
2, 105440, Note_off_c, 1, 59, 0
2, 105480, Note_on_c, 1, 47, 127
2, 105480, Note_on_c, 1, 59, 127
2, 106280, Note_off_c, 1, 47, 0
2, 106280, Note_off_c, 1, 59, 0
2, 106320, Note_on_c, 1, 47, 127
2, 106320, Note_on_c, 1, 59, 127
2, 106680, Note_off_c, 1, 47, 0
2, 106680, Note_off_c, 1, 59, 0
2, 106720, Note_on_c, 1, 42, 127
2, 106720, Note_on_c, 1, 54, 127
2, 106720, Note_on_c, 1, 58, 127
2, 106720, Note_on_c, 1, 61, 127
2, 106720, Note_on_c, 1, 66, 127
2, 107840, Note_off_c, 1, 42, 0
2, 107840, Note_off_c, 1, 54, 0
2, 107840, Note_off_c, 1, 58, 0
2, 107840, Note_off_c, 1, 61, 0
2, 107840, Note_off_c, 1, 66, 0
2, 107920, Note_on_c, 1, 42, 127
2, 107920, Note_on_c, 1, 54, 127
2, 107920, Note_on_c, 1, 58, 127
2, 107920, Note_on_c, 1, 61, 127
2, 107920, Note_on_c, 1, 66, 127
2, 108320, Note_off_c, 1, 42, 0
2, 108320, Note_off_c, 1, 54, 0
2, 108320, Note_off_c, 1, 58, 0
2, 108320, Note_off_c, 1, 61, 0
2, 108320, Note_off_c, 1, 66, 0
2, 108360, Note_on_c, 1, 42, 127
2, 108360, Note_on_c, 1, 54, 127
2, 108360, Note_on_c, 1, 58, 127
2, 108360, Note_on_c, 1, 61, 127
2, 108360, Note_on_c, 1, 66, 127
2, 109080, Note_off_c, 1, 42, 0
2, 109080, Note_off_c, 1, 54, 0
2, 109080, Note_off_c, 1, 58, 0
2, 109080, Note_off_c, 1, 61, 0
2, 109080, Note_off_c, 1, 66, 0
2, 109160, Note_on_c, 1, 42, 127
2, 109160, Note_on_c, 1, 54, 127
2, 109160, Note_on_c, 1, 58, 127
2, 109160, Note_on_c, 1, 61, 127
2, 109160, Note_on_c, 1, 66, 127
2, 110360, Note_off_c, 1, 42, 0
2, 110360, Note_off_c, 1, 54, 0
2, 110360, Note_off_c, 1, 58, 0
2, 110360, Note_off_c, 1, 61, 0
2, 110360, Note_off_c, 1, 66, 0
2, 110400, Note_on_c, 1, 42, 127
2, 110400, Note_on_c, 1, 54, 127
2, 110400, Note_on_c, 1, 58, 127
2, 110400, Note_on_c, 1, 61, 127
2, 110400, Note_on_c, 1, 66, 127
2, 111160, Note_off_c, 1, 42, 0
2, 111160, Note_off_c, 1, 54, 0
2, 111160, Note_off_c, 1, 58, 0
2, 111160, Note_off_c, 1, 61, 0
2, 111160, Note_off_c, 1, 66, 0
2, 114040, Note_on_c, 1, 58, 127
2, 114040, Note_on_c, 1, 66, 127
2, 114600, Note_off_c, 1, 58, 0
2, 114640, Note_off_c, 1, 66, 0
2, 114680, Note_on_c, 1, 63, 127
2, 114680, Note_on_c, 1, 66, 127
2, 114680, Note_on_c, 1, 70, 127
2, 115240, Note_off_c, 1, 63, 0
2, 115240, Note_off_c, 1, 66, 0
2, 115240, Note_off_c, 1, 70, 0
2, 116480, Note_on_c, 1, 54, 127
2, 116480, Note_on_c, 1, 58, 127
2, 116480, Note_on_c, 1, 63, 127
2, 116880, Note_off_c, 1, 54, 0
2, 116880, Note_off_c, 1, 58, 0
2, 116880, Note_off_c, 1, 63, 0
2, 116920, Note_on_c, 1, 54, 127
2, 116920, Note_on_c, 1, 58, 127
2, 116920, Note_on_c, 1, 63, 127
2, 117640, Note_off_c, 1, 54, 0
2, 117640, Note_off_c, 1, 58, 0
2, 117640, Note_off_c, 1, 63, 0
2, 117720, Note_on_c, 1, 54, 127
2, 117720, Note_on_c, 1, 58, 127
2, 117720, Note_on_c, 1, 63, 127
2, 118840, Note_off_c, 1, 54, 0
2, 118840, Note_off_c, 1, 58, 0
2, 118840, Note_off_c, 1, 63, 0
2, 118960, Note_on_c, 1, 58, 127
2, 118960, Note_on_c, 1, 63, 127
2, 118960, Note_on_c, 1, 66, 127
2, 119480, Note_off_c, 1, 58, 0
2, 119480, Note_off_c, 1, 63, 0
2, 119480, Note_off_c, 1, 66, 0
2, 119560, Note_on_c, 1, 58, 127
2, 119560, Note_on_c, 1, 62, 127
2, 119560, Note_on_c, 1, 65, 127
2, 120000, Note_off_c, 1, 58, 0
2, 120000, Note_off_c, 1, 62, 0
2, 120000, Note_off_c, 1, 65, 0
2, 120040, End_track
3, 0, Start_track
3, 0, Title_t, "MIDI"
3, 1536, End_track
0, 0, End_of_file
