0, 0, Header, 1, 3, 192
1, 0, Start_track
1, 0, Time_signature, 4, 2, 24, 8
1, 0, Tempo, 500000
1, 120040, End_track
2, 0, Start_track
2, 0, Text_t, "random instrument: random person i dunno whatev"
2, 0, Title_t, "Track 1"
2, 0, Note_on_c, 1, 40, 127
2, 0, Note_on_c, 1, 48, 127
2, 0, Note_on_c, 1, 56, 127
2, 0, Note_on_c, 1, 60, 127
2, 40, Note_off_c, 1, 40, 0
2, 40, Note_off_c, 1, 48, 0
2, 40, Note_on_c, 1, 55, 127
2, 40, Note_off_c, 1, 56, 0
2, 40, Note_off_c, 1, 60, 0
2, 40, Note_on_c, 1, 72, 127
2, 40, Note_on_c, 1, 75, 127
2, 40, Note_on_c, 1, 79, 127
2, 40, Note_on_c, 1, 84, 127
2, 80, Note_off_c, 1, 55, 0
2, 80, Note_off_c, 1, 72, 0
2, 80, Note_off_c, 1, 75, 0
2, 80, Note_off_c, 1, 79, 0
2, 80, Note_off_c, 1, 84, 0
2, 120, Note_on_c, 1, 50, 127
2, 120, Note_on_c, 1, 59, 127
2, 120, Note_on_c, 1, 62, 127
2, 120, Note_on_c, 1, 78, 127
2, 160, Note_off_c, 1, 50, 0
2, 160, Note_off_c, 1, 59, 0
2, 160, Note_on_c, 1, 60, 127
2, 160, Note_off_c, 1, 62, 0
2, 160, Note_on_c, 1, 66, 127
2, 160, Note_on_c, 1, 68, 127
2, 160, Note_off_c, 1, 78, 0
2, 160, Note_on_c, 1, 90, 127
2, 200, Note_on_c, 1, 35, 127
2, 200, Note_on_c, 1, 39, 127
2, 200, Note_on_c, 1, 47, 127
2, 200, Note_on_c, 1, 50, 127
2, 200, Note_off_c, 1, 60, 0
2, 200, Note_off_c, 1, 66, 0
2, 200, Note_off_c, 1, 68, 0
2, 200, Note_off_c, 1, 90, 0
2, 240, Note_off_c, 1, 35, 0
2, 240, Note_off_c, 1, 39, 0
2, 240, Note_off_c, 1, 47, 0
2, 240, Note_off_c, 1, 50, 0
2, 240, Note_on_c, 1, 51, 127
2, 240, Note_on_c, 1, 55, 127
2, 240, Note_on_c, 1, 58, 127
2, 240, Note_on_c, 1, 63, 127
2, 240, Note_on_c, 1, 82, 127
2, 240, Note_on_c, 1, 91, 127
2, 280, Note_off_c, 1, 51, 0
2, 280, Note_off_c, 1, 55, 0
2, 280, Note_off_c, 1, 58, 0
2, 280, Note_off_c, 1, 63, 0
2, 280, Note_on_c, 1, 76, 127
2, 280, Note_on_c, 1, 80, 127
2, 280, Note_off_c, 1, 82, 0
2, 280, Note_on_c, 1, 83, 127
2, 280, Note_on_c, 1, 89, 127
2, 280, Note_off_c, 1, 91, 0
2, 320, Note_on_c, 1, 58, 127
2, 320, Note_on_c, 1, 63, 127
2, 320, Note_on_c, 1, 66, 127
2, 320, Note_on_c, 1, 72, 127
2, 320, Note_on_c, 1, 75, 127
2, 320, Note_off_c, 1, 76, 0
2, 320, Note_off_c, 1, 80, 0
2, 320, Note_on_c, 1, 82, 127
2, 320, Note_off_c, 1, 83, 0
2, 320, Note_on_c, 1, 87, 127
2, 320, Note_off_c, 1, 89, 0
2, 360, Note_on_c, 1, 57, 127
2, 360, Note_off_c, 1, 58, 0
2, 360, Note_on_c, 1, 62, 127
2, 360, Note_off_c, 1, 63, 0
2, 360, Note_off_c, 1, 66, 0
2, 360, Note_off_c, 1, 72, 0
2, 360, Note_off_c, 1, 75, 0
2, 360, Note_off_c, 1, 82, 0
2, 360, Note_off_c, 1, 87, 0
2, 400, Note_off_c, 1, 57, 0
2, 400, Note_on_c, 1, 60, 127
2, 400, Note_off_c, 1, 62, 0
2, 400, Note_on_c, 1, 85, 127
2, 400, Note_on_c, 1, 88, 127
2, 440, Note_on_c, 1, 50, 127
2, 440, Note_on_c, 1, 57, 127
2, 440, Note_off_c, 1, 60, 0
2, 440, Note_on_c, 1, 65, 127
2, 440, Note_off_c, 1, 85, 0
2, 440, Note_off_c, 1, 88, 0
2, 440, Note_on_c, 1, 93, 127
2, 480, Note_off_c, 1, 50, 0
2, 480, Note_on_c, 1, 54, 127
2, 480, Note_off_c, 1, 57, 0
2, 480, Note_on_c, 1, 58, 127
2, 480, Note_on_c, 1, 61, 127
2, 480, Note_off_c, 1, 65, 0
2, 480, Note_off_c, 1, 93, 0
2, 480, Note_on_c, 1, 97, 127
2, 520, Note_on_c, 1, 50, 127
2, 520, Note_off_c, 1, 54, 0
2, 520, Note_on_c, 1, 57, 127
2, 520, Note_off_c, 1, 58, 0
2, 520, Note_off_c, 1, 61, 0
2, 520, Note_on_c, 1, 65, 127
2, 520, Note_on_c, 1, 93, 127
2, 520, Note_off_c, 1, 97, 0
2, 800, Note_off_c, 1, 50, 0
2, 800, Note_off_c, 1, 57, 0
2, 800, Note_off_c, 1, 65, 0
2, 800, Note_off_c, 1, 93, 0
2, 1240, Note_on_c, 1, 61, 127
2, 1240, Note_on_c, 1, 67, 127
2, 1440, Note_on_c, 1, 51, 127
2, 1600, Note_off_c, 1, 51, 0
2, 1600, Note_off_c, 1, 61, 0
2, 1640, Note_on_c, 1, 60, 127
2, 1640, Note_off_c, 1, 67, 0
2, 1640, Note_on_c, 1, 68, 127
2, 1800, Note_off_c, 1, 68, 0
2, 1840, Note_on_c, 1, 63, 127
2, 2000, Note_off_c, 1, 60, 0
2, 2000, Note_off_c, 1, 63, 0
2, 2080, Note_on_c, 1, 51, 127
2, 2080, Note_on_c, 1, 67, 127
2, 2280, Note_on_c, 1, 61, 127
2, 2440, Note_off_c, 1, 51, 0
2, 2440, Note_off_c, 1, 61, 0
2, 2480, Note_on_c, 1, 58, 127
2, 2640, Note_off_c, 1, 67, 0
2, 2680, Note_on_c, 1, 67, 127
2, 2840, Note_off_c, 1, 58, 0
2, 2880, Note_on_c, 1, 62, 127
2, 3040, Note_off_c, 1, 62, 0
2, 3040, Note_off_c, 1, 67, 0
2, 3080, Note_on_c, 1, 60, 127
2, 3080, Note_on_c, 1, 67, 127
2, 3240, Note_off_c, 1, 60, 0
2, 3280, Note_on_c, 1, 62, 127
2, 3440, Note_off_c, 1, 62, 0
2, 3480, Note_on_c, 1, 58, 127
2, 3640, Note_off_c, 1, 58, 0
2, 3680, Note_on_c, 1, 61, 127
2, 3880, Note_off_c, 1, 61, 0
2, 3920, Note_on_c, 1, 58, 127
2, 4080, Note_off_c, 1, 58, 0
2, 4120, Note_off_c, 1, 67, 0
2, 4160, Note_on_c, 1, 61, 127
2, 4160, Note_on_c, 1, 67, 127
2, 4320, Note_off_c, 1, 61, 0
2, 4320, Note_off_c, 1, 67, 0
2, 4360, Note_on_c, 1, 48, 127
2, 4360, Note_on_c, 1, 53, 127
2, 4360, Note_on_c, 1, 70, 127
2, 4520, Note_off_c, 1, 48, 0
2, 4520, Note_on_c, 1, 52, 127
2, 4520, Note_off_c, 1, 53, 0
2, 4520, Note_on_c, 1, 58, 127
2, 4520, Note_on_c, 1, 67, 127
2, 4520, Note_off_c, 1, 70, 0
2, 4520, Note_on_c, 1, 72, 127
2, 4560, Note_off_c, 1, 67, 0
2, 4560, Note_on_c, 1, 69, 127
2, 4560, Note_off_c, 1, 72, 0
2, 4720, Note_off_c, 1, 52, 0
2, 4720, Note_on_c, 1, 63, 127
2, 4720, Note_off_c, 1, 69, 0
2, 4760, Note_on_c, 1, 51, 127
2, 4760, Note_off_c, 1, 63, 0
2, 4760, Note_on_c, 1, 67, 127
2, 4920, Note_off_c, 1, 51, 0
2, 4920, Note_off_c, 1, 58, 0
2, 4920, Note_off_c, 1, 67, 0
2, 4960, Note_on_c, 1, 46, 127
2, 4960, Note_on_c, 1, 70, 127
2, 5360, Note_off_c, 1, 46, 0
2, 5360, Note_on_c, 1, 58, 127
2, 5360, Note_on_c, 1, 67, 127
2, 5360, Note_off_c, 1, 70, 0
2, 5360, Note_on_c, 1, 75, 127
2, 5520, Note_off_c, 1, 67, 0
2, 5520, Note_off_c, 1, 75, 0
2, 5560, Note_on_c, 1, 56, 127
2, 5560, Note_off_c, 1, 58, 0
2, 5560, Note_on_c, 1, 70, 127
2, 5560, Note_on_c, 1, 74, 127
2, 5560, Note_on_c, 1, 77, 127
2, 5560, Note_on_c, 1, 82, 127
2, 5720, Note_off_c, 1, 56, 0
2, 5720, Note_on_c, 1, 62, 127
2, 5720, Note_off_c, 1, 70, 0
2, 5720, Note_off_c, 1, 74, 0
2, 5720, Note_off_c, 1, 77, 0
2, 5720, Note_off_c, 1, 82, 0
2, 5760, Note_on_c, 1, 74, 127
2, 5960, Note_on_c, 1, 53, 127
2, 5960, Note_on_c, 1, 60, 127
2, 5960, Note_off_c, 1, 62, 0
2, 5960, Note_on_c, 1, 65, 127
2, 5960, Note_on_c, 1, 69, 127
2, 5960, Note_off_c, 1, 74, 0
2, 5960, Note_on_c, 1, 77, 127
2, 6160, Note_off_c, 1, 53, 0
2, 6160, Note_off_c, 1, 60, 0
2, 6160, Note_off_c, 1, 65, 0
2, 6160, Note_off_c, 1, 69, 0
2, 6160, Note_off_c, 1, 77, 0
2, 6200, Note_on_c, 1, 42, 127
2, 6200, Note_on_c, 1, 52, 127
2, 6200, Note_on_c, 1, 59, 127
2, 6200, Note_on_c, 1, 64, 127
2, 6240, Note_off_c, 1, 42, 0
2, 6240, Note_off_c, 1, 52, 0
2, 6240, Note_off_c, 1, 59, 0
2, 6240, Note_off_c, 1, 64, 0
2, 6240, Note_on_c, 1, 67, 127
2, 6240, Note_on_c, 1, 70, 127
2, 6240, Note_on_c, 1, 84, 127
2, 6240, Note_on_c, 1, 87, 127
2, 6240, Note_on_c, 1, 93, 127
2, 6280, Note_on_c, 1, 45, 127
2, 6280, Note_on_c, 1, 46, 127
2, 6280, Note_on_c, 1, 58, 127
2, 6280, Note_off_c, 1, 67, 0
2, 6280, Note_off_c, 1, 70, 0
2, 6280, Note_off_c, 1, 84, 0
2, 6280, Note_off_c, 1, 87, 0
2, 6280, Note_off_c, 1, 93, 0
2, 6320, Note_off_c, 1, 45, 0
2, 6320, Note_off_c, 1, 46, 0
2, 6320, Note_on_c, 1, 47, 127
2, 6320, Note_on_c, 1, 49, 127
2, 6320, Note_on_c, 1, 56, 127
2, 6320, Note_off_c, 1, 58, 0
2, 6320, Note_on_c, 1, 61, 127
2, 6360, Note_off_c, 1, 47, 0
2, 6360, Note_off_c, 1, 49, 0
2, 6360, Note_off_c, 1, 56, 0
2, 6360, Note_off_c, 1, 61, 0
2, 6400, Note_on_c, 1, 48, 127
2, 6400, Note_on_c, 1, 53, 127
2, 6400, Note_on_c, 1, 63, 127
2, 6400, Note_on_c, 1, 69, 127
2, 6560, Note_off_c, 1, 69, 0
2, 6600, Note_on_c, 1, 41, 127
2, 6600, Note_off_c, 1, 48, 0
2, 6600, Note_on_c, 1, 56, 127
2, 6600, Note_off_c, 1, 63, 0
2, 6600, Note_on_c, 1, 73, 127
2, 6600, Note_on_c, 1, 80, 127
2, 6760, Note_off_c, 1, 41, 0
2, 6760, Note_off_c, 1, 53, 0
2, 6760, Note_on_c, 1, 59, 127
2, 6760, Note_off_c, 1, 73, 0
2, 6760, Note_off_c, 1, 80, 0
2, 6800, Note_on_c, 1, 53, 127
2, 6800, Note_off_c, 1, 56, 0
2, 6800, Note_off_c, 1, 59, 0
2, 6800, Note_on_c, 1, 62, 127
2, 6800, Note_on_c, 1, 77, 127
2, 6800, Note_on_c, 1, 89, 127
2, 6960, Note_off_c, 1, 53, 0
2, 6960, Note_off_c, 1, 62, 0
2, 6960, Note_off_c, 1, 77, 0
2, 6960, Note_off_c, 1, 89, 0
2, 7000, Note_on_c, 1, 36, 127
2, 7000, Note_on_c, 1, 48, 127
2, 7000, Note_on_c, 1, 64, 127
2, 7000, Note_on_c, 1, 69, 127
2, 7000, Note_on_c, 1, 76, 127
2, 7360, Note_off_c, 1, 36, 0
2, 7360, Note_on_c, 1, 45, 127
2, 7360, Note_off_c, 1, 48, 0
2, 7360, Note_on_c, 1, 51, 127
2, 7360, Note_off_c, 1, 64, 0
2, 7360, Note_off_c, 1, 69, 0
2, 7360, Note_off_c, 1, 76, 0
2, 7400, Note_on_c, 1, 42, 127
2, 7400, Note_off_c, 1, 45, 0
2, 7400, Note_on_c, 1, 49, 127
2, 7400, Note_off_c, 1, 51, 0
2, 7400, Note_on_c, 1, 54, 127
2, 7400, Note_on_c, 1, 58, 127
2, 7400, Note_on_c, 1, 64, 127
2, 7560, Note_off_c, 1, 42, 0
2, 7560, Note_off_c, 1, 49, 0
2, 7560, Note_off_c, 1, 58, 0
2, 7560, Note_off_c, 1, 64, 0
2, 7600, Note_on_c, 1, 53, 127
2, 7600, Note_off_c, 1, 54, 0
2, 7600, Note_on_c, 1, 59, 127
2, 7600, Note_on_c, 1, 64, 127
2, 7760, Note_off_c, 1, 53, 0
2, 7760, Note_off_c, 1, 59, 0
2, 7760, Note_off_c, 1, 64, 0
2, 7800, Note_on_c, 1, 53, 127
2, 7800, Note_on_c, 1, 59, 127
2, 7960, Note_off_c, 1, 59, 0
2, 7960, Note_on_c, 1, 62, 127
2, 8000, Note_on_c, 1, 43, 127
2, 8000, Note_off_c, 1, 53, 0
2, 8000, Note_on_c, 1, 56, 127
2, 8000, Note_on_c, 1, 60, 127
2, 8000, Note_off_c, 1, 62, 0
2, 8040, Note_on_c, 1, 41, 127
2, 8040, Note_off_c, 1, 43, 0
2, 8040, Note_off_c, 1, 56, 0
2, 8040, Note_on_c, 1, 75, 127
2, 8080, Note_off_c, 1, 41, 0
2, 8080, Note_on_c, 1, 51, 127
2, 8080, Note_on_c, 1, 55, 127
2, 8080, Note_off_c, 1, 60, 0
2, 8080, Note_on_c, 1, 63, 127
2, 8080, Note_on_c, 1, 74, 127
2, 8080, Note_off_c, 1, 75, 0
2, 8120, Note_on_c, 1, 46, 127
2, 8120, Note_off_c, 1, 51, 0
2, 8120, Note_on_c, 1, 61, 127
2, 8120, Note_off_c, 1, 63, 0
2, 8120, Note_on_c, 1, 65, 127
2, 8120, Note_off_c, 1, 74, 0
2, 8120, Note_on_c, 1, 101, 127
2, 8120, Note_on_c, 1, 103, 127
2, 8160, Note_off_c, 1, 46, 0
2, 8160, Note_off_c, 1, 55, 0
2, 8160, Note_off_c, 1, 61, 0
2, 8160, Note_off_c, 1, 65, 0
2, 8160, Note_off_c, 1, 101, 0
2, 8160, Note_off_c, 1, 103, 0
2, 8240, Note_on_c, 1, 52, 127
2, 8240, Note_on_c, 1, 64, 127
2, 8400, Note_on_c, 1, 48, 127
2, 8400, Note_off_c, 1, 52, 0
2, 8400, Note_off_c, 1, 64, 0
2, 8440, Note_off_c, 1, 48, 0
2, 8440, Note_on_c, 1, 81, 127
2, 8440, Note_on_c, 1, 84, 127
2, 8440, Note_on_c, 1, 88, 127
2, 8480, Note_on_c, 1, 36, 127
2, 8480, Note_on_c, 1, 48, 127
2, 8480, Note_on_c, 1, 67, 127
2, 8480, Note_on_c, 1, 70, 127
2, 8480, Note_off_c, 1, 81, 0
2, 8480, Note_off_c, 1, 84, 0
2, 8480, Note_off_c, 1, 88, 0
2, 8600, Note_off_c, 1, 36, 0
2, 8600, Note_off_c, 1, 48, 0
2, 8600, Note_off_c, 1, 67, 0
2, 8600, Note_off_c, 1, 70, 0
2, 8640, Note_on_c, 1, 64, 127
2, 8640, Note_on_c, 1, 68, 127
2, 8640, Note_on_c, 1, 71, 127
2, 9000, Note_off_c, 1, 68, 0
2, 9040, Note_on_c, 1, 40, 127
2, 9040, Note_off_c, 1, 64, 0
2, 9040, Note_on_c, 1, 67, 127
2, 9240, Note_off_c, 1, 40, 0
2, 9240, Note_on_c, 1, 43, 127
2, 9240, Note_on_c, 1, 64, 127
2, 9240, Note_off_c, 1, 67, 0
2, 9240, Note_off_c, 1, 71, 0
2, 9240, Note_on_c, 1, 74, 127
2, 9400, Note_off_c, 1, 43, 0
2, 9400, Note_off_c, 1, 64, 0
2, 9440, Note_on_c, 1, 62, 127
2, 9800, Note_off_c, 1, 62, 0
2, 9840, Note_on_c, 1, 46, 127
2, 9840, Note_on_c, 1, 62, 127
2, 9840, Note_on_c, 1, 71, 127
2, 9840, Note_off_c, 1, 74, 0
2, 10000, Note_off_c, 1, 71, 0
2, 10040, Note_on_c, 1, 43, 127
2, 10040, Note_off_c, 1, 46, 0
2, 10040, Note_off_c, 1, 62, 0
2, 10040, Note_on_c, 1, 67, 127
2, 10040, Note_on_c, 1, 70, 127
2, 10200, Note_off_c, 1, 43, 0
2, 10200, Note_off_c, 1, 67, 0
2, 10240, Note_off_c, 1, 70, 0
2, 10280, Note_on_c, 1, 61, 127
2, 10280, Note_on_c, 1, 70, 127
2, 10280, Note_on_c, 1, 82, 127
2, 10280, Note_on_c, 1, 85, 127
2, 10320, Note_on_c, 1, 55, 127
2, 10320, Note_on_c, 1, 60, 127
2, 10320, Note_off_c, 1, 61, 0
2, 10320, Note_on_c, 1, 63, 127
2, 10320, Note_on_c, 1, 68, 127
2, 10320, Note_off_c, 1, 70, 0
2, 10320, Note_on_c, 1, 75, 127
2, 10320, Note_off_c, 1, 82, 0
2, 10320, Note_on_c, 1, 84, 127
2, 10320, Note_off_c, 1, 85, 0
2, 10360, Note_off_c, 1, 55, 0
2, 10360, Note_off_c, 1, 60, 0
2, 10360, Note_off_c, 1, 63, 0
2, 10360, Note_off_c, 1, 68, 0
2, 10360, Note_on_c, 1, 71, 127
2, 10360, Note_off_c, 1, 75, 0
2, 10360, Note_on_c, 1, 77, 127
2, 10360, Note_on_c, 1, 81, 127
2, 10360, Note_off_c, 1, 84, 0
2, 10400, Note_on_c, 1, 55, 127
2, 10400, Note_on_c, 1, 60, 127
2, 10400, Note_on_c, 1, 63, 127
2, 10400, Note_on_c, 1, 68, 127
2, 10400, Note_off_c, 1, 71, 0
2, 10400, Note_on_c, 1, 75, 127
2, 10400, Note_off_c, 1, 77, 0
2, 10400, Note_off_c, 1, 81, 0
2, 10400, Note_on_c, 1, 84, 127
2, 10440, Note_off_c, 1, 60, 0
2, 10440, Note_on_c, 1, 62, 127
2, 10440, Note_off_c, 1, 63, 0
2, 10440, Note_off_c, 1, 68, 0
2, 10440, Note_on_c, 1, 69, 127
2, 10440, Note_on_c, 1, 72, 127
2, 10440, Note_off_c, 1, 75, 0
2, 10440, Note_off_c, 1, 84, 0
2, 10480, Note_on_c, 1, 41, 127
2, 10480, Note_off_c, 1, 55, 0
2, 10480, Note_off_c, 1, 62, 0
2, 10480, Note_off_c, 1, 69, 0
2, 10480, Note_on_c, 1, 70, 127
2, 10480, Note_off_c, 1, 72, 0
2, 10480, Note_on_c, 1, 80, 127
2, 10480, Note_on_c, 1, 82, 127
2, 10520, Note_off_c, 1, 41, 0
2, 10520, Note_on_c, 1, 56, 127
2, 10520, Note_on_c, 1, 75, 127
2, 10520, Note_on_c, 1, 79, 127
2, 10520, Note_off_c, 1, 80, 0
2, 10520, Note_off_c, 1, 82, 0
2, 10560, Note_off_c, 1, 56, 0
2, 10560, Note_on_c, 1, 60, 127
2, 10560, Note_off_c, 1, 70, 0
2, 10560, Note_off_c, 1, 75, 0
2, 10560, Note_on_c, 1, 78, 127
2, 10560, Note_off_c, 1, 79, 0
2, 10560, Note_on_c, 1, 87, 127
2, 10560, Note_on_c, 1, 92, 127
2, 10600, Note_off_c, 1, 60, 0
2, 10600, Note_on_c, 1, 62, 127
2, 10600, Note_on_c, 1, 63, 127
2, 10600, Note_on_c, 1, 66, 127
2, 10600, Note_off_c, 1, 78, 0
2, 10600, Note_off_c, 1, 87, 0
2, 10600, Note_off_c, 1, 92, 0
2, 10640, Note_on_c, 1, 58, 127
2, 10640, Note_off_c, 1, 62, 0
2, 10640, Note_off_c, 1, 63, 0
2, 10640, Note_off_c, 1, 66, 0
2, 10680, Note_off_c, 1, 58, 0
2, 10680, Note_on_c, 1, 61, 127
2, 10680, Note_on_c, 1, 70, 127
2, 10680, Note_on_c, 1, 82, 127
2, 11040, Note_off_c, 1, 61, 0
2, 11040, Note_off_c, 1, 70, 0
2, 11040, Note_off_c, 1, 82, 0
2, 11080, Note_on_c, 1, 61, 127
2, 11080, Note_on_c, 1, 70, 127
2, 11080, Note_on_c, 1, 82, 127
2, 11240, Note_off_c, 1, 61, 0
2, 11280, Note_on_c, 1, 61, 127
2, 11440, Note_off_c, 1, 61, 0
2, 11440, Note_off_c, 1, 70, 0
2, 11440, Note_off_c, 1, 82, 0
2, 11480, Note_on_c, 1, 52, 127
2, 11480, Note_on_c, 1, 68, 127
2, 11480, Note_on_c, 1, 78, 127
2, 11640, Note_off_c, 1, 52, 0
2, 11680, Note_on_c, 1, 59, 127
2, 11840, Note_off_c, 1, 59, 0
2, 11840, Note_off_c, 1, 78, 0
2, 11880, Note_on_c, 1, 48, 127
2, 11880, Note_on_c, 1, 77, 127
2, 12040, Note_off_c, 1, 48, 0
2, 12080, Note_on_c, 1, 59, 127
2, 12240, Note_off_c, 1, 59, 0
2, 12240, Note_off_c, 1, 68, 0
2, 12240, Note_off_c, 1, 77, 0
2, 12320, Note_on_c, 1, 47, 127
2, 12320, Note_on_c, 1, 68, 127
2, 12320, Note_on_c, 1, 76, 127
2, 12480, Note_off_c, 1, 76, 0
2, 12520, Note_off_c, 1, 47, 0
2, 12520, Note_on_c, 1, 59, 127
2, 12520, Note_on_c, 1, 76, 127
2, 12680, Note_off_c, 1, 59, 0
2, 12680, Note_off_c, 1, 68, 0
2, 12680, Note_off_c, 1, 76, 0
2, 12720, Note_on_c, 1, 58, 127
2, 12720, Note_on_c, 1, 64, 127
2, 12720, Note_on_c, 1, 73, 127
2, 12880, Note_off_c, 1, 58, 0
2, 12920, Note_on_c, 1, 58, 127
2, 13080, Note_off_c, 1, 58, 0
2, 13120, Note_on_c, 1, 61, 127
2, 13120, Note_off_c, 1, 73, 0
2, 13120, Note_on_c, 1, 76, 127
2, 13280, Note_off_c, 1, 61, 0
2, 13280, Note_off_c, 1, 76, 0
2, 13320, Note_on_c, 1, 55, 127
2, 13320, Note_on_c, 1, 73, 127
2, 13480, Note_off_c, 1, 55, 0
2, 13480, Note_off_c, 1, 64, 0
2, 13480, Note_off_c, 1, 73, 0
2, 13520, Note_on_c, 1, 59, 127
2, 13520, Note_on_c, 1, 73, 127
2, 13680, Note_on_c, 1, 54, 127
2, 13680, Note_off_c, 1, 59, 0
2, 13680, Note_off_c, 1, 73, 0
2, 13720, Note_on_c, 1, 70, 127
2, 13880, Note_off_c, 1, 54, 0
2, 13880, Note_off_c, 1, 70, 0
2, 13920, Note_on_c, 1, 55, 127
2, 13920, Note_on_c, 1, 63, 127
2, 13920, Note_on_c, 1, 67, 127
2, 13920, Note_on_c, 1, 75, 127
2, 13920, Note_on_c, 1, 79, 127
2, 13920, Note_on_c, 1, 87, 127
2, 14320, Note_off_c, 1, 55, 0
2, 14320, Note_off_c, 1, 63, 0
2, 14320, Note_off_c, 1, 67, 0
2, 14320, Note_off_c, 1, 75, 0
2, 14320, Note_off_c, 1, 79, 0
2, 14320, Note_off_c, 1, 87, 0
2, 14360, Note_on_c, 1, 55, 127
2, 14360, Note_on_c, 1, 63, 127
2, 14360, Note_on_c, 1, 67, 127
2, 14360, Note_on_c, 1, 75, 127
2, 14360, Note_on_c, 1, 79, 127
2, 14360, Note_on_c, 1, 87, 127
2, 14400, Note_off_c, 1, 55, 0
2, 14400, Note_on_c, 1, 61, 127
2, 14400, Note_off_c, 1, 63, 0
2, 14400, Note_off_c, 1, 67, 0
2, 14400, Note_on_c, 1, 68, 127
2, 14400, Note_off_c, 1, 75, 0
2, 14400, Note_on_c, 1, 78, 127
2, 14400, Note_off_c, 1, 79, 0
2, 14400, Note_on_c, 1, 82, 127
2, 14400, Note_off_c, 1, 87, 0
2, 14400, Note_on_c, 1, 90, 127
2, 14440, Note_on_c, 1, 55, 127
2, 14440, Note_off_c, 1, 61, 0
2, 14440, Note_on_c, 1, 63, 127
2, 14440, Note_on_c, 1, 67, 127
2, 14440, Note_off_c, 1, 68, 0
2, 14440, Note_on_c, 1, 75, 127
2, 14440, Note_off_c, 1, 78, 0
2, 14440, Note_on_c, 1, 79, 127
2, 14440, Note_off_c, 1, 82, 0
2, 14440, Note_on_c, 1, 87, 127
2, 14440, Note_off_c, 1, 90, 0
2, 14520, Note_on_c, 1, 51, 127
2, 14520, Note_off_c, 1, 55, 0
2, 14520, Note_on_c, 1, 61, 127
2, 14520, Note_off_c, 1, 63, 0
2, 14520, Note_off_c, 1, 75, 0
2, 14520, Note_off_c, 1, 79, 0
2, 14520, Note_off_c, 1, 87, 0
2, 14560, Note_on_c, 1, 75, 127
2, 14720, Note_off_c, 1, 61, 0
2, 14720, Note_off_c, 1, 67, 0
2, 14720, Note_off_c, 1, 75, 0
2, 14760, Note_on_c, 1, 56, 127
2, 14760, Note_on_c, 1, 70, 127
2, 15120, Note_off_c, 1, 51, 0
2, 15120, Note_off_c, 1, 56, 0
2, 15120, Note_off_c, 1, 70, 0
2, 15160, Note_on_c, 1, 56, 127
2, 15160, Note_on_c, 1, 60, 127
2, 15160, Note_on_c, 1, 68, 127
2, 15320, Note_off_c, 1, 56, 0
2, 15320, Note_off_c, 1, 60, 0
2, 15320, Note_off_c, 1, 68, 0
2, 15360, Note_on_c, 1, 44, 127
2, 15360, Note_on_c, 1, 61, 127
2, 15360, Note_on_c, 1, 70, 127
2, 15520, Note_off_c, 1, 44, 0
2, 15560, Note_on_c, 1, 49, 127
2, 15720, Note_off_c, 1, 61, 0
2, 15760, Note_on_c, 1, 65, 127
2, 15920, Note_off_c, 1, 49, 0
2, 15960, Note_on_c, 1, 47, 127
2, 15960, Note_on_c, 1, 53, 127
2, 15960, Note_on_c, 1, 56, 127
2, 15960, Note_on_c, 1, 61, 127
2, 15960, Note_off_c, 1, 65, 0
2, 15960, Note_off_c, 1, 70, 0
2, 15960, Note_on_c, 1, 73, 127
2, 16120, Note_off_c, 1, 47, 0
2, 16120, Note_off_c, 1, 53, 0
2, 16120, Note_off_c, 1, 56, 0
2, 16120, Note_off_c, 1, 61, 0
2, 16120, Note_off_c, 1, 73, 0
2, 16160, Note_on_c, 1, 49, 127
2, 16160, Note_on_c, 1, 61, 127
2, 16160, Note_on_c, 1, 66, 127
2, 16160, Note_on_c, 1, 70, 127
2, 16320, Note_off_c, 1, 49, 0
2, 16320, Note_off_c, 1, 61, 0
2, 16320, Note_off_c, 1, 66, 0
2, 16320, Note_off_c, 1, 70, 0
2, 16360, Note_on_c, 1, 49, 127
2, 16360, Note_on_c, 1, 62, 127
2, 16360, Note_on_c, 1, 71, 127
2, 16400, Note_off_c, 1, 49, 0
2, 16400, Note_off_c, 1, 62, 0
2, 16400, Note_off_c, 1, 71, 0
2, 16440, Note_on_c, 1, 49, 127
2, 16440, Note_on_c, 1, 62, 127
2, 16440, Note_on_c, 1, 71, 127
2, 16560, Note_on_c, 1, 61, 127
2, 16560, Note_off_c, 1, 62, 0
2, 16600, Note_on_c, 1, 44, 127
2, 16600, Note_off_c, 1, 49, 0
2, 16600, Note_on_c, 1, 55, 127
2, 16600, Note_off_c, 1, 61, 0
2, 16600, Note_off_c, 1, 71, 0
2, 16600, Note_on_c, 1, 73, 127
2, 16760, Note_off_c, 1, 55, 0
2, 16760, Note_off_c, 1, 73, 0
2, 16800, Note_on_c, 1, 56, 127
2, 16800, Note_on_c, 1, 61, 127
2, 16960, Note_off_c, 1, 61, 0
2, 16960, Note_on_c, 1, 65, 127
2, 17000, Note_on_c, 1, 61, 127
2, 17000, Note_off_c, 1, 65, 0
2, 17160, Note_off_c, 1, 44, 0
2, 17160, Note_off_c, 1, 56, 0
2, 17160, Note_off_c, 1, 61, 0
2, 17200, Note_on_c, 1, 29, 127
2, 17200, Note_on_c, 1, 40, 127
2, 17200, Note_on_c, 1, 41, 127
2, 17200, Note_on_c, 1, 48, 127
2, 17200, Note_on_c, 1, 52, 127
2, 17200, Note_on_c, 1, 53, 127
2, 17200, Note_on_c, 1, 60, 127
2, 17200, Note_on_c, 1, 69, 127
2, 17200, Note_on_c, 1, 72, 127
2, 17560, Note_off_c, 1, 29, 0
2, 17560, Note_off_c, 1, 40, 0
2, 17560, Note_off_c, 1, 41, 0
2, 17560, Note_off_c, 1, 48, 0
2, 17560, Note_off_c, 1, 52, 0
2, 17560, Note_off_c, 1, 53, 0
2, 17560, Note_off_c, 1, 60, 0
2, 17560, Note_off_c, 1, 69, 0
2, 17560, Note_off_c, 1, 72, 0
2, 17600, Note_on_c, 1, 56, 127
2, 17600, Note_on_c, 1, 66, 127
2, 17600, Note_on_c, 1, 72, 127
2, 17600, Note_on_c, 1, 80, 127
2, 18160, Note_off_c, 1, 72, 0
2, 18200, Note_on_c, 1, 54, 127
2, 18200, Note_off_c, 1, 56, 0
2, 18200, Note_on_c, 1, 57, 127
2, 18200, Note_on_c, 1, 74, 127
2, 18200, Note_off_c, 1, 80, 0
2, 18200, Note_on_c, 1, 81, 127
2, 18240, Note_on_c, 1, 46, 127
2, 18240, Note_off_c, 1, 57, 0
2, 18240, Note_off_c, 1, 74, 0
2, 18240, Note_off_c, 1, 81, 0
2, 18240, Note_on_c, 1, 92, 127
2, 18280, Note_off_c, 1, 46, 0
2, 18280, Note_on_c, 1, 47, 127
2, 18280, Note_off_c, 1, 54, 0
2, 18280, Note_on_c, 1, 59, 127
2, 18280, Note_on_c, 1, 73, 127
2, 18280, Note_on_c, 1, 76, 127
2, 18280, Note_off_c, 1, 92, 0
2, 18320, Note_on_c, 1, 28, 127
2, 18320, Note_on_c, 1, 40, 127
2, 18320, Note_off_c, 1, 47, 0
2, 18320, Note_on_c, 1, 56, 127
2, 18320, Note_on_c, 1, 65, 127
2, 18320, Note_off_c, 1, 66, 0
2, 18320, Note_off_c, 1, 73, 0
2, 18320, Note_off_c, 1, 76, 0
2, 18320, Note_on_c, 1, 77, 127
2, 18320, Note_on_c, 1, 80, 127
2, 18320, Note_on_c, 1, 83, 127
2, 18320, Note_on_c, 1, 89, 127
2, 18360, Note_off_c, 1, 28, 0
2, 18360, Note_off_c, 1, 40, 0
2, 18360, Note_off_c, 1, 56, 0
2, 18360, Note_off_c, 1, 59, 0
2, 18360, Note_off_c, 1, 65, 0
2, 18360, Note_off_c, 1, 77, 0
2, 18360, Note_off_c, 1, 80, 0
2, 18360, Note_off_c, 1, 83, 0
2, 18360, Note_off_c, 1, 89, 0
2, 18400, Note_on_c, 1, 55, 127
2, 18400, Note_on_c, 1, 62, 127
2, 18400, Note_on_c, 1, 71, 127
2, 18400, Note_on_c, 1, 79, 127
2, 18400, Note_on_c, 1, 83, 127
2, 18560, Note_off_c, 1, 55, 0
2, 18560, Note_off_c, 1, 62, 0
2, 18560, Note_off_c, 1, 71, 0
2, 18560, Note_off_c, 1, 79, 0
2, 18560, Note_off_c, 1, 83, 0
2, 18600, Note_on_c, 1, 55, 127
2, 18600, Note_on_c, 1, 62, 127
2, 18600, Note_on_c, 1, 71, 127
2, 18600, Note_on_c, 1, 79, 127
2, 18600, Note_on_c, 1, 83, 127
2, 18800, Note_off_c, 1, 55, 0
2, 18800, Note_off_c, 1, 62, 0
2, 18800, Note_off_c, 1, 71, 0
2, 18800, Note_off_c, 1, 79, 0
2, 18800, Note_off_c, 1, 83, 0
2, 18840, Note_on_c, 1, 59, 127
2, 18840, Note_on_c, 1, 67, 127
2, 18840, Note_on_c, 1, 78, 127
2, 18840, Note_on_c, 1, 79, 127
2, 19000, Note_off_c, 1, 78, 0
2, 19040, Note_on_c, 1, 49, 127
2, 19040, Note_on_c, 1, 52, 127
2, 19040, Note_off_c, 1, 59, 0
2, 19040, Note_off_c, 1, 67, 0
2, 19040, Note_on_c, 1, 70, 127
2, 19200, Note_off_c, 1, 49, 0
2, 19200, Note_off_c, 1, 52, 0
2, 19200, Note_off_c, 1, 70, 0
2, 19200, Note_off_c, 1, 79, 0
2, 19240, Note_on_c, 1, 60, 127
2, 19240, Note_on_c, 1, 63, 127
2, 19240, Note_on_c, 1, 69, 127
2, 19240, Note_on_c, 1, 72, 127
2, 19240, Note_on_c, 1, 75, 127
2, 19240, Note_on_c, 1, 78, 127
2, 19440, Note_on_c, 1, 53, 127
2, 19440, Note_off_c, 1, 60, 0
2, 19440, Note_off_c, 1, 63, 0
2, 19440, Note_on_c, 1, 66, 127
2, 19440, Note_on_c, 1, 74, 127
2, 19440, Note_off_c, 1, 75, 0
2, 19440, Note_off_c, 1, 78, 0
2, 19560, Note_on_c, 1, 41, 127
2, 19560, Note_on_c, 1, 50, 127
2, 19560, Note_off_c, 1, 53, 0
2, 19560, Note_off_c, 1, 66, 0
2, 19560, Note_off_c, 1, 69, 0
2, 19560, Note_off_c, 1, 72, 0
2, 19600, Note_off_c, 1, 41, 0
2, 19600, Note_off_c, 1, 50, 0
2, 19600, Note_off_c, 1, 74, 0
2, 19640, Note_on_c, 1, 43, 127
2, 19640, Note_on_c, 1, 55, 127
2, 19640, Note_on_c, 1, 75, 127
2, 19640, Note_on_c, 1, 80, 127
2, 19640, Note_on_c, 1, 83, 127
2, 19640, Note_on_c, 1, 87, 127
2, 19680, Note_off_c, 1, 43, 0
2, 19680, Note_on_c, 1, 47, 127
2, 19680, Note_on_c, 1, 51, 127
2, 19680, Note_off_c, 1, 55, 0
2, 19680, Note_on_c, 1, 57, 127
2, 19680, Note_on_c, 1, 59, 127
2, 19680, Note_on_c, 1, 68, 127
2, 19680, Note_off_c, 1, 75, 0
2, 19680, Note_off_c, 1, 80, 0
2, 19680, Note_off_c, 1, 83, 0
2, 19680, Note_off_c, 1, 87, 0
2, 19760, Note_off_c, 1, 47, 0
2, 19760, Note_on_c, 1, 49, 127
2, 19760, Note_off_c, 1, 51, 0
2, 19760, Note_off_c, 1, 57, 0
2, 19760, Note_off_c, 1, 59, 0
2, 19760, Note_off_c, 1, 68, 0
2, 19760, Note_on_c, 1, 93, 127
2, 19760, Note_on_c, 1, 97, 127
2, 19800, Note_on_c, 1, 29, 127
2, 19800, Note_on_c, 1, 41, 127
2, 19800, Note_off_c, 1, 49, 0
2, 19800, Note_on_c, 1, 51, 127
2, 19800, Note_on_c, 1, 53, 127
2, 19800, Note_on_c, 1, 57, 127
2, 19800, Note_on_c, 1, 60, 127
2, 19800, Note_off_c, 1, 93, 0
2, 19800, Note_off_c, 1, 97, 0
2, 19840, Note_off_c, 1, 29, 0
2, 19840, Note_off_c, 1, 41, 0
2, 19840, Note_off_c, 1, 51, 0
2, 19840, Note_off_c, 1, 53, 0
2, 19840, Note_off_c, 1, 57, 0
2, 19840, Note_on_c, 1, 62, 127
2, 19840, Note_on_c, 1, 69, 127
2, 19840, Note_on_c, 1, 82, 127
2, 19880, Note_on_c, 1, 39, 127
2, 19880, Note_on_c, 1, 47, 127
2, 19880, Note_on_c, 1, 55, 127
2, 19880, Note_off_c, 1, 60, 0
2, 19880, Note_off_c, 1, 62, 0
2, 19880, Note_on_c, 1, 67, 127
2, 19880, Note_off_c, 1, 69, 0
2, 19880, Note_off_c, 1, 82, 0
2, 19920, Note_off_c, 1, 39, 0
2, 19920, Note_off_c, 1, 47, 0
2, 19920, Note_off_c, 1, 55, 0
2, 19920, Note_on_c, 1, 62, 127
2, 19920, Note_off_c, 1, 67, 0
2, 19920, Note_on_c, 1, 69, 127
2, 19920, Note_on_c, 1, 72, 127
2, 19920, Note_on_c, 1, 76, 127
2, 19920, Note_on_c, 1, 82, 127
2, 19920, Note_on_c, 1, 86, 127
2, 19920, Note_on_c, 1, 94, 127
2, 19960, Note_off_c, 1, 62, 0
2, 19960, Note_off_c, 1, 72, 0
2, 19960, Note_off_c, 1, 82, 0
2, 19960, Note_on_c, 1, 83, 127
2, 19960, Note_off_c, 1, 94, 0
2, 19960, Note_on_c, 1, 95, 127
2, 20000, Note_off_c, 1, 69, 0
2, 20000, Note_off_c, 1, 76, 0
2, 20000, Note_off_c, 1, 83, 0
2, 20000, Note_off_c, 1, 86, 0
2, 20000, Note_off_c, 1, 95, 0
2, 20040, Note_on_c, 1, 25, 127
2, 20040, Note_on_c, 1, 37, 127
2, 20040, Note_on_c, 1, 65, 127
2, 20040, Note_on_c, 1, 73, 127
2, 20080, Note_off_c, 1, 25, 0
2, 20080, Note_off_c, 1, 37, 0
2, 20080, Note_on_c, 1, 55, 127
2, 20080, Note_on_c, 1, 60, 127
2, 20080, Note_on_c, 1, 64, 127
2, 20080, Note_off_c, 1, 65, 0
2, 20080, Note_on_c, 1, 70, 127
2, 20080, Note_on_c, 1, 72, 127
2, 20080, Note_off_c, 1, 73, 0
2, 20080, Note_on_c, 1, 76, 127
2, 20400, Note_off_c, 1, 55, 0
2, 20400, Note_off_c, 1, 60, 0
2, 20400, Note_off_c, 1, 64, 0
2, 20400, Note_off_c, 1, 70, 0
2, 20400, Note_off_c, 1, 72, 0
2, 20400, Note_off_c, 1, 76, 0
2, 20440, Note_on_c, 1, 49, 127
2, 20440, Note_on_c, 1, 56, 127
2, 20440, Note_on_c, 1, 58, 127
2, 20440, Note_on_c, 1, 68, 127
2, 20440, Note_on_c, 1, 70, 127
2, 20440, Note_on_c, 1, 77, 127
2, 20440, Note_on_c, 1, 80, 127
2, 20720, Note_off_c, 1, 49, 0
2, 20720, Note_off_c, 1, 56, 0
2, 20720, Note_off_c, 1, 58, 0
2, 20720, Note_off_c, 1, 68, 0
2, 20720, Note_off_c, 1, 70, 0
2, 20720, Note_off_c, 1, 77, 0
2, 20720, Note_off_c, 1, 80, 0
2, 20760, Note_on_c, 1, 49, 127
2, 20760, Note_on_c, 1, 56, 127
2, 20760, Note_on_c, 1, 58, 127
2, 20760, Note_on_c, 1, 68, 127
2, 20760, Note_on_c, 1, 70, 127
2, 20760, Note_on_c, 1, 77, 127
2, 20760, Note_on_c, 1, 80, 127
2, 20840, Note_off_c, 1, 49, 0
2, 20840, Note_off_c, 1, 56, 0
2, 20840, Note_off_c, 1, 58, 0
2, 20840, Note_off_c, 1, 68, 0
2, 20840, Note_off_c, 1, 70, 0
2, 20840, Note_off_c, 1, 77, 0
2, 20840, Note_off_c, 1, 80, 0
2, 20880, Note_on_c, 1, 61, 127
2, 20880, Note_on_c, 1, 65, 127
2, 20880, Note_on_c, 1, 77, 127
2, 20880, Note_on_c, 1, 85, 127
2, 20880, Note_on_c, 1, 89, 127
2, 21040, Note_off_c, 1, 61, 0
2, 21040, Note_off_c, 1, 65, 0
2, 21080, Note_on_c, 1, 61, 127
2, 21080, Note_on_c, 1, 65, 127
2, 21240, Note_off_c, 1, 61, 0
2, 21240, Note_off_c, 1, 65, 0
2, 21240, Note_off_c, 1, 77, 0
2, 21240, Note_off_c, 1, 85, 0
2, 21240, Note_off_c, 1, 89, 0
2, 21280, Note_on_c, 1, 61, 127
2, 21280, Note_on_c, 1, 65, 127
2, 21280, Note_on_c, 1, 77, 127
2, 21280, Note_on_c, 1, 85, 127
2, 21280, Note_on_c, 1, 89, 127
2, 21440, Note_off_c, 1, 61, 0
2, 21440, Note_off_c, 1, 65, 0
2, 21480, Note_on_c, 1, 61, 127
2, 21480, Note_on_c, 1, 65, 127
2, 22040, Note_off_c, 1, 61, 0
2, 22040, Note_off_c, 1, 65, 0
2, 22040, Note_off_c, 1, 77, 0
2, 22040, Note_off_c, 1, 85, 0
2, 22040, Note_off_c, 1, 89, 0
2, 22080, Note_on_c, 1, 34, 127
2, 22080, Note_on_c, 1, 37, 127
2, 22080, Note_on_c, 1, 42, 127
2, 22080, Note_on_c, 1, 46, 127
2, 22080, Note_on_c, 1, 58, 127
2, 22080, Note_on_c, 1, 61, 127
2, 22080, Note_on_c, 1, 66, 127
2, 22080, Note_on_c, 1, 70, 127
2, 22440, Note_off_c, 1, 34, 0
2, 22440, Note_off_c, 1, 37, 0
2, 22440, Note_off_c, 1, 42, 0
2, 22440, Note_off_c, 1, 46, 0
2, 22440, Note_off_c, 1, 58, 0
2, 22440, Note_off_c, 1, 61, 0
2, 22440, Note_off_c, 1, 66, 0
2, 22440, Note_off_c, 1, 70, 0
2, 22480, Note_on_c, 1, 33, 127
2, 22480, Note_on_c, 1, 45, 127
2, 22480, Note_on_c, 1, 64, 127
2, 22480, Note_on_c, 1, 69, 127
2, 22480, Note_on_c, 1, 72, 127
2, 22840, Note_off_c, 1, 33, 0
2, 22840, Note_off_c, 1, 45, 0
2, 22840, Note_off_c, 1, 64, 0
2, 22840, Note_off_c, 1, 69, 0
2, 22840, Note_off_c, 1, 72, 0
2, 22920, Note_on_c, 1, 43, 127
2, 22920, Note_on_c, 1, 59, 127
2, 22920, Note_on_c, 1, 67, 127
2, 22920, Note_on_c, 1, 71, 127
2, 22920, Note_on_c, 1, 74, 127
2, 22960, Note_off_c, 1, 43, 0
2, 22960, Note_off_c, 1, 59, 0
2, 22960, Note_on_c, 1, 65, 127
2, 22960, Note_off_c, 1, 67, 0
2, 22960, Note_on_c, 1, 68, 127
2, 22960, Note_off_c, 1, 71, 0
2, 22960, Note_on_c, 1, 72, 127
2, 22960, Note_on_c, 1, 80, 127
2, 22960, Note_on_c, 1, 89, 127
2, 23000, Note_on_c, 1, 43, 127
2, 23000, Note_on_c, 1, 59, 127
2, 23000, Note_off_c, 1, 65, 0
2, 23000, Note_on_c, 1, 67, 127
2, 23000, Note_off_c, 1, 68, 0
2, 23000, Note_on_c, 1, 71, 127
2, 23000, Note_off_c, 1, 72, 0
2, 23000, Note_off_c, 1, 80, 0
2, 23000, Note_off_c, 1, 89, 0
2, 23280, Note_off_c, 1, 43, 0
2, 23280, Note_off_c, 1, 59, 0
2, 23280, Note_off_c, 1, 67, 0
2, 23280, Note_off_c, 1, 71, 0
2, 23280, Note_off_c, 1, 74, 0
2, 23320, Note_on_c, 1, 46, 127
2, 23320, Note_on_c, 1, 50, 127
2, 23320, Note_on_c, 1, 58, 127
2, 23320, Note_on_c, 1, 62, 127
2, 23680, Note_off_c, 1, 46, 0
2, 23680, Note_off_c, 1, 50, 0
2, 23680, Note_off_c, 1, 58, 0
2, 23680, Note_off_c, 1, 62, 0
2, 23720, Note_on_c, 1, 43, 127
2, 23720, Note_on_c, 1, 55, 127
2, 23720, Note_on_c, 1, 58, 127
2, 23720, Note_on_c, 1, 63, 127
2, 23720, Note_on_c, 1, 70, 127
2, 24080, Note_off_c, 1, 43, 0
2, 24080, Note_off_c, 1, 55, 0
2, 24080, Note_off_c, 1, 58, 0
2, 24080, Note_off_c, 1, 63, 0
2, 24080, Note_off_c, 1, 70, 0
2, 24120, Note_on_c, 1, 38, 127
2, 24120, Note_on_c, 1, 45, 127
2, 24120, Note_on_c, 1, 50, 127
2, 24120, Note_on_c, 1, 89, 127
2, 24480, Note_off_c, 1, 38, 0
2, 24480, Note_off_c, 1, 45, 0
2, 24480, Note_off_c, 1, 50, 0
2, 24480, Note_off_c, 1, 89, 0
2, 24520, Note_on_c, 1, 31, 127
2, 24520, Note_on_c, 1, 43, 127
2, 24520, Note_on_c, 1, 53, 127
2, 24520, Note_on_c, 1, 59, 127
2, 24520, Note_on_c, 1, 62, 127
2, 24880, Note_off_c, 1, 62, 0
2, 24920, Note_on_c, 1, 62, 127
2, 25040, Note_off_c, 1, 31, 0
2, 25040, Note_off_c, 1, 43, 0
2, 25040, Note_on_c, 1, 49, 127
2, 25040, Note_off_c, 1, 53, 0
2, 25040, Note_on_c, 1, 55, 127
2, 25040, Note_on_c, 1, 57, 127
2, 25040, Note_off_c, 1, 59, 0
2, 25040, Note_on_c, 1, 61, 127
2, 25040, Note_off_c, 1, 62, 0
2, 25040, Note_on_c, 1, 64, 127
2, 25040, Note_on_c, 1, 69, 127
2, 25080, Note_on_c, 1, 31, 127
2, 25080, Note_on_c, 1, 43, 127
2, 25080, Note_off_c, 1, 49, 0
2, 25080, Note_on_c, 1, 53, 127
2, 25080, Note_off_c, 1, 55, 0
2, 25080, Note_off_c, 1, 57, 0
2, 25080, Note_on_c, 1, 59, 127
2, 25080, Note_off_c, 1, 61, 0
2, 25080, Note_on_c, 1, 62, 127
2, 25080, Note_off_c, 1, 64, 0
2, 25080, Note_off_c, 1, 69, 0
2, 25120, Note_off_c, 1, 31, 0
2, 25120, Note_off_c, 1, 43, 0
2, 25120, Note_off_c, 1, 53, 0
2, 25120, Note_off_c, 1, 59, 0
2, 25120, Note_off_c, 1, 62, 0
2, 25120, Note_on_c, 1, 64, 127
2, 25120, Note_on_c, 1, 71, 127
2, 25120, Note_on_c, 1, 76, 127
2, 25120, Note_on_c, 1, 79, 127
2, 25120, Note_on_c, 1, 90, 127
2, 25160, Note_on_c, 1, 53, 127
2, 25160, Note_on_c, 1, 56, 127
2, 25160, Note_on_c, 1, 63, 127
2, 25160, Note_off_c, 1, 64, 0
2, 25160, Note_off_c, 1, 76, 0
2, 25160, Note_off_c, 1, 79, 0
2, 25160, Note_off_c, 1, 90, 0
2, 25200, Note_off_c, 1, 53, 0
2, 25200, Note_off_c, 1, 56, 0
2, 25200, Note_off_c, 1, 63, 0
2, 25200, Note_off_c, 1, 71, 0
2, 25240, Note_on_c, 1, 31, 127
2, 25240, Note_on_c, 1, 43, 127
2, 25240, Note_on_c, 1, 53, 127
2, 25280, Note_on_c, 1, 59, 127
2, 25280, Note_on_c, 1, 62, 127
2, 25320, Note_off_c, 1, 31, 0
2, 25320, Note_off_c, 1, 43, 0
2, 25320, Note_off_c, 1, 53, 0
2, 25320, Note_off_c, 1, 59, 0
2, 25320, Note_off_c, 1, 62, 0
2, 25360, Note_on_c, 1, 31, 127
2, 25360, Note_on_c, 1, 43, 127
2, 25360, Note_on_c, 1, 53, 127
2, 25360, Note_on_c, 1, 59, 127
2, 25360, Note_on_c, 1, 62, 127
2, 25720, Note_off_c, 1, 53, 0
2, 25720, Note_off_c, 1, 59, 0
2, 25720, Note_off_c, 1, 62, 0
2, 25760, Note_on_c, 1, 53, 127
2, 25760, Note_on_c, 1, 59, 127
2, 25760, Note_on_c, 1, 62, 127
2, 26120, Note_off_c, 1, 31, 0
2, 26120, Note_off_c, 1, 43, 0
2, 26120, Note_off_c, 1, 53, 0
2, 26120, Note_off_c, 1, 59, 0
2, 26120, Note_off_c, 1, 62, 0
2, 26200, Note_on_c, 1, 31, 127
2, 26200, Note_on_c, 1, 67, 127
2, 26200, Note_on_c, 1, 79, 127
2, 26360, Note_off_c, 1, 31, 0
2, 26360, Note_on_c, 1, 38, 127
2, 26360, Note_on_c, 1, 50, 127
2, 26360, Note_off_c, 1, 67, 0
2, 26360, Note_on_c, 1, 71, 127
2, 26360, Note_on_c, 1, 77, 127
2, 26360, Note_off_c, 1, 79, 0
2, 26360, Note_on_c, 1, 83, 127
2, 26400, Note_on_c, 1, 31, 127
2, 26400, Note_off_c, 1, 38, 0
2, 26400, Note_off_c, 1, 50, 0
2, 26400, Note_on_c, 1, 67, 127
2, 26400, Note_off_c, 1, 71, 0
2, 26400, Note_off_c, 1, 77, 0
2, 26400, Note_on_c, 1, 79, 127
2, 26400, Note_off_c, 1, 83, 0
2, 26560, Note_off_c, 1, 31, 0
2, 26560, Note_off_c, 1, 67, 0
2, 26560, Note_off_c, 1, 79, 0
2, 26600, Note_on_c, 1, 50, 127
2, 26600, Note_on_c, 1, 53, 127
2, 26600, Note_on_c, 1, 70, 127
2, 26600, Note_on_c, 1, 82, 127
2, 26920, Note_off_c, 1, 53, 0
2, 26960, Note_off_c, 1, 50, 0
2, 26960, Note_on_c, 1, 67, 127
2, 26960, Note_off_c, 1, 70, 0
2, 26960, Note_on_c, 1, 79, 127
2, 26960, Note_off_c, 1, 82, 0
2, 27000, Note_on_c, 1, 51, 127
2, 27360, Note_off_c, 1, 51, 0
2, 27400, Note_on_c, 1, 44, 127
2, 27400, Note_on_c, 1, 55, 127
2, 27400, Note_on_c, 1, 58, 127
2, 27400, Note_on_c, 1, 63, 127
2, 27400, Note_on_c, 1, 70, 127
2, 27400, Note_off_c, 1, 79, 0
2, 27560, Note_off_c, 1, 44, 0
2, 27560, Note_off_c, 1, 55, 0
2, 27560, Note_off_c, 1, 58, 0
2, 27560, Note_off_c, 1, 63, 0
2, 27560, Note_off_c, 1, 70, 0
2, 27560, Note_on_c, 1, 79, 127
2, 27600, Note_on_c, 1, 44, 127
2, 27600, Note_on_c, 1, 55, 127
2, 27600, Note_on_c, 1, 58, 127
2, 27600, Note_on_c, 1, 63, 127
2, 27600, Note_on_c, 1, 70, 127
2, 27600, Note_off_c, 1, 79, 0
2, 27720, Note_on_c, 1, 29, 127
2, 27720, Note_off_c, 1, 44, 0
2, 27720, Note_on_c, 1, 54, 127
2, 27720, Note_off_c, 1, 55, 0
2, 27720, Note_off_c, 1, 58, 0
2, 27720, Note_off_c, 1, 63, 0
2, 27720, Note_off_c, 1, 67, 0
2, 27720, Note_off_c, 1, 70, 0
2, 27760, Note_off_c, 1, 29, 0
2, 27760, Note_off_c, 1, 54, 0
2, 27840, Note_on_c, 1, 51, 127
2, 27840, Note_on_c, 1, 58, 127
2, 27840, Note_on_c, 1, 63, 127
2, 27840, Note_on_c, 1, 67, 127
2, 27840, Note_on_c, 1, 70, 127
2, 27840, Note_on_c, 1, 75, 127
2, 28200, Note_off_c, 1, 51, 0
2, 28200, Note_off_c, 1, 58, 0
2, 28200, Note_off_c, 1, 63, 0
2, 28200, Note_off_c, 1, 67, 0
2, 28200, Note_off_c, 1, 75, 0
2, 28200, Note_on_c, 1, 82, 127
2, 28240, Note_on_c, 1, 55, 127
2, 28240, Note_on_c, 1, 60, 127
2, 28240, Note_on_c, 1, 63, 127
2, 28240, Note_on_c, 1, 67, 127
2, 28240, Note_on_c, 1, 69, 127
2, 28240, Note_off_c, 1, 70, 0
2, 28240, Note_on_c, 1, 72, 127
2, 28240, Note_on_c, 1, 75, 127
2, 28240, Note_on_c, 1, 81, 127
2, 28240, Note_off_c, 1, 82, 0
2, 28600, Note_off_c, 1, 55, 0
2, 28600, Note_off_c, 1, 60, 0
2, 28600, Note_off_c, 1, 63, 0
2, 28600, Note_off_c, 1, 67, 0
2, 28600, Note_off_c, 1, 69, 0
2, 28600, Note_off_c, 1, 72, 0
2, 28600, Note_off_c, 1, 75, 0
2, 28600, Note_off_c, 1, 81, 0
2, 28640, Note_on_c, 1, 59, 127
2, 28640, Note_on_c, 1, 63, 127
2, 28640, Note_on_c, 1, 66, 127
2, 28640, Note_on_c, 1, 69, 127
2, 28640, Note_on_c, 1, 71, 127
2, 28640, Note_on_c, 1, 83, 127
2, 28800, Note_on_c, 1, 39, 127
2, 28800, Note_on_c, 1, 46, 127
2, 28800, Note_on_c, 1, 51, 127
2, 28800, Note_off_c, 1, 59, 0
2, 28800, Note_off_c, 1, 63, 0
2, 28800, Note_off_c, 1, 66, 0
2, 28800, Note_off_c, 1, 69, 0
2, 28800, Note_off_c, 1, 71, 0
2, 28800, Note_on_c, 1, 75, 127
2, 28800, Note_off_c, 1, 83, 0
2, 28840, Note_off_c, 1, 39, 0
2, 28840, Note_off_c, 1, 46, 0
2, 28840, Note_off_c, 1, 51, 0
2, 28840, Note_on_c, 1, 59, 127
2, 28840, Note_on_c, 1, 63, 127
2, 28840, Note_on_c, 1, 66, 127
2, 28840, Note_on_c, 1, 69, 127
2, 28840, Note_on_c, 1, 71, 127
2, 28840, Note_off_c, 1, 75, 0
2, 28840, Note_on_c, 1, 83, 127
2, 29000, Note_off_c, 1, 59, 0
2, 29000, Note_off_c, 1, 63, 0
2, 29000, Note_off_c, 1, 66, 0
2, 29000, Note_off_c, 1, 69, 0
2, 29000, Note_off_c, 1, 71, 0
2, 29000, Note_off_c, 1, 83, 0
2, 29040, Note_on_c, 1, 59, 127
2, 29040, Note_on_c, 1, 63, 127
2, 29040, Note_on_c, 1, 66, 127
2, 29040, Note_on_c, 1, 68, 127
2, 29040, Note_on_c, 1, 71, 127
2, 29040, Note_on_c, 1, 83, 127
2, 29400, Note_off_c, 1, 59, 0
2, 29400, Note_off_c, 1, 63, 0
2, 29400, Note_off_c, 1, 66, 0
2, 29400, Note_off_c, 1, 68, 0
2, 29400, Note_off_c, 1, 71, 0
2, 29400, Note_off_c, 1, 83, 0
2, 29440, Note_on_c, 1, 37, 127
2, 29440, Note_on_c, 1, 49, 127
2, 29440, Note_on_c, 1, 58, 127
2, 29440, Note_on_c, 1, 64, 127
2, 29440, Note_on_c, 1, 66, 127
2, 29800, Note_off_c, 1, 37, 0
2, 29800, Note_off_c, 1, 49, 0
2, 29800, Note_off_c, 1, 58, 0
2, 29800, Note_off_c, 1, 64, 0
2, 29800, Note_off_c, 1, 66, 0
2, 29880, Note_on_c, 1, 41, 127
2, 29880, Note_on_c, 1, 53, 127
2, 29880, Note_on_c, 1, 60, 127
2, 29880, Note_on_c, 1, 65, 127
2, 29880, Note_on_c, 1, 69, 127
2, 30040, Note_off_c, 1, 41, 0
2, 30040, Note_on_c, 1, 46, 127
2, 30040, Note_on_c, 1, 58, 127
2, 30040, Note_off_c, 1, 60, 0
2, 30040, Note_on_c, 1, 62, 127
2, 30040, Note_off_c, 1, 65, 0
2, 30040, Note_off_c, 1, 69, 0
2, 30040, Note_on_c, 1, 70, 127
2, 30080, Note_on_c, 1, 41, 127
2, 30080, Note_off_c, 1, 46, 0
2, 30080, Note_off_c, 1, 58, 0
2, 30080, Note_on_c, 1, 60, 127
2, 30080, Note_off_c, 1, 62, 0
2, 30080, Note_on_c, 1, 65, 127
2, 30080, Note_off_c, 1, 70, 0
2, 30080, Note_on_c, 1, 71, 127
2, 30240, Note_off_c, 1, 41, 0
2, 30240, Note_off_c, 1, 53, 0
2, 30240, Note_off_c, 1, 60, 0
2, 30240, Note_off_c, 1, 65, 0
2, 30240, Note_off_c, 1, 71, 0
2, 30280, Note_on_c, 1, 36, 127
2, 30280, Note_on_c, 1, 48, 127
2, 30280, Note_on_c, 1, 60, 127
2, 30280, Note_on_c, 1, 65, 127
2, 30280, Note_on_c, 1, 68, 127
2, 30640, Note_off_c, 1, 36, 0
2, 30640, Note_on_c, 1, 43, 127
2, 30640, Note_off_c, 1, 48, 0
2, 30640, Note_off_c, 1, 60, 0
2, 30640, Note_off_c, 1, 65, 0
2, 30640, Note_off_c, 1, 68, 0
2, 30680, Note_on_c, 1, 32, 127
2, 30680, Note_off_c, 1, 43, 0
2, 30680, Note_on_c, 1, 44, 127
2, 30680, Note_on_c, 1, 61, 127
2, 30680, Note_on_c, 1, 66, 127
2, 30680, Note_on_c, 1, 70, 127
2, 30720, Note_off_c, 1, 32, 0
2, 30720, Note_off_c, 1, 44, 0
2, 30720, Note_on_c, 1, 54, 127
2, 30720, Note_on_c, 1, 58, 127
2, 30720, Note_off_c, 1, 61, 0
2, 30720, Note_on_c, 1, 65, 127
2, 30720, Note_off_c, 1, 66, 0
2, 30720, Note_on_c, 1, 68, 127
2, 30720, Note_off_c, 1, 70, 0
2, 30840, Note_on_c, 1, 37, 127
2, 30840, Note_off_c, 1, 54, 0
2, 30840, Note_off_c, 1, 58, 0
2, 30840, Note_off_c, 1, 68, 0
2, 30840, Note_on_c, 1, 89, 127
2, 30840, Note_on_c, 1, 92, 127
2, 30880, Note_off_c, 1, 37, 0
2, 30880, Note_on_c, 1, 38, 127
2, 30880, Note_on_c, 1, 52, 127
2, 30880, Note_on_c, 1, 55, 127
2, 30880, Note_on_c, 1, 61, 127
2, 30880, Note_off_c, 1, 65, 0
2, 30880, Note_off_c, 1, 89, 0
2, 30880, Note_off_c, 1, 92, 0
2, 30920, Note_on_c, 1, 31, 127
2, 30920, Note_off_c, 1, 38, 0
2, 30920, Note_off_c, 1, 52, 0
2, 30920, Note_off_c, 1, 55, 0
2, 30920, Note_on_c, 1, 58, 127
2, 30920, Note_off_c, 1, 61, 0
2, 30920, Note_on_c, 1, 67, 127
2, 30960, Note_off_c, 1, 31, 0
2, 30960, Note_on_c, 1, 64, 127
2, 30960, Note_off_c, 1, 67, 0
2, 30960, Note_on_c, 1, 68, 127
2, 30960, Note_on_c, 1, 71, 127
2, 31000, Note_on_c, 1, 57, 127
2, 31000, Note_off_c, 1, 58, 0
2, 31000, Note_on_c, 1, 63, 127
2, 31000, Note_off_c, 1, 64, 0
2, 31000, Note_off_c, 1, 68, 0
2, 31000, Note_on_c, 1, 69, 127
2, 31000, Note_off_c, 1, 71, 0
2, 31000, Note_on_c, 1, 78, 127
2, 31000, Note_on_c, 1, 85, 127
2, 31040, Note_off_c, 1, 57, 0
2, 31040, Note_off_c, 1, 63, 0
2, 31040, Note_off_c, 1, 69, 0
2, 31040, Note_off_c, 1, 78, 0
2, 31040, Note_off_c, 1, 85, 0
2, 31080, Note_on_c, 1, 42, 127
2, 31080, Note_on_c, 1, 54, 127
2, 31080, Note_on_c, 1, 63, 127
2, 31080, Note_on_c, 1, 70, 127
2, 31080, Note_on_c, 1, 75, 127
2, 31440, Note_off_c, 1, 63, 0
2, 31440, Note_off_c, 1, 70, 0
2, 31440, Note_off_c, 1, 75, 0
2, 31480, Note_off_c, 1, 42, 0
2, 31480, Note_on_c, 1, 49, 127
2, 31480, Note_on_c, 1, 53, 127
2, 31480, Note_off_c, 1, 54, 0
2, 31480, Note_on_c, 1, 65, 127
2, 31480, Note_on_c, 1, 73, 127
2, 31800, Note_off_c, 1, 49, 0
2, 31800, Note_off_c, 1, 53, 0
2, 31800, Note_off_c, 1, 65, 0
2, 31800, Note_off_c, 1, 73, 0
2, 31840, Note_on_c, 1, 49, 127
2, 31840, Note_on_c, 1, 53, 127
2, 31840, Note_on_c, 1, 65, 127
2, 31840, Note_on_c, 1, 73, 127
2, 31880, Note_off_c, 1, 49, 0
2, 31880, Note_off_c, 1, 53, 0
2, 31880, Note_off_c, 1, 65, 0
2, 31880, Note_off_c, 1, 73, 0
2, 31920, Note_on_c, 1, 44, 127
2, 31920, Note_on_c, 1, 48, 127
2, 31920, Note_on_c, 1, 61, 127
2, 31920, Note_on_c, 1, 65, 127
2, 31920, Note_on_c, 1, 73, 127
2, 32680, Note_off_c, 1, 44, 0
2, 32680, Note_off_c, 1, 48, 0
2, 32680, Note_off_c, 1, 61, 0
2, 32680, Note_off_c, 1, 65, 0
2, 32680, Note_off_c, 1, 73, 0
2, 32720, Note_on_c, 1, 65, 127
2, 32880, Note_off_c, 1, 65, 0
2, 32880, Note_on_c, 1, 66, 127
2, 33080, Note_off_c, 1, 66, 0
2, 33120, Note_on_c, 1, 35, 127
2, 33120, Note_on_c, 1, 58, 127
2, 33880, Note_off_c, 1, 35, 0
2, 33880, Note_on_c, 1, 36, 127
2, 33920, Note_off_c, 1, 36, 0
2, 33920, Note_off_c, 1, 58, 0
2, 33960, Note_on_c, 1, 52, 127
2, 33960, Note_on_c, 1, 56, 127
2, 33960, Note_on_c, 1, 71, 127
2, 33960, Note_on_c, 1, 74, 127
2, 33960, Note_on_c, 1, 76, 127
2, 34120, Note_on_c, 1, 33, 127
2, 34120, Note_on_c, 1, 45, 127
2, 34120, Note_off_c, 1, 52, 0
2, 34120, Note_off_c, 1, 56, 0
2, 34120, Note_off_c, 1, 71, 0
2, 34120, Note_off_c, 1, 74, 0
2, 34120, Note_off_c, 1, 76, 0
2, 34120, Note_on_c, 1, 89, 127
2, 34120, Note_on_c, 1, 93, 127
2, 34120, Note_on_c, 1, 101, 127
2, 34160, Note_off_c, 1, 33, 0
2, 34160, Note_off_c, 1, 45, 0
2, 34160, Note_on_c, 1, 52, 127
2, 34160, Note_on_c, 1, 56, 127
2, 34160, Note_on_c, 1, 71, 127
2, 34160, Note_on_c, 1, 74, 127
2, 34160, Note_on_c, 1, 76, 127
2, 34160, Note_off_c, 1, 89, 0
2, 34160, Note_off_c, 1, 93, 0
2, 34160, Note_off_c, 1, 101, 0
2, 34240, Note_off_c, 1, 52, 0
2, 34240, Note_on_c, 1, 55, 127
2, 34240, Note_off_c, 1, 56, 0
2, 34240, Note_off_c, 1, 71, 0
2, 34240, Note_off_c, 1, 74, 0
2, 34240, Note_off_c, 1, 76, 0
2, 34240, Note_on_c, 1, 79, 127
2, 34240, Note_on_c, 1, 90, 127
2, 34240, Note_on_c, 1, 91, 127
2, 34280, Note_on_c, 1, 52, 127
2, 34280, Note_off_c, 1, 55, 0
2, 34280, Note_on_c, 1, 56, 127
2, 34280, Note_on_c, 1, 71, 127
2, 34280, Note_on_c, 1, 74, 127
2, 34280, Note_on_c, 1, 76, 127
2, 34280, Note_off_c, 1, 79, 0
2, 34280, Note_off_c, 1, 90, 0
2, 34280, Note_off_c, 1, 91, 0
2, 34320, Note_on_c, 1, 40, 127
2, 34320, Note_on_c, 1, 47, 127
2, 34320, Note_off_c, 1, 52, 0
2, 34320, Note_off_c, 1, 56, 0
2, 34320, Note_off_c, 1, 71, 0
2, 34320, Note_off_c, 1, 74, 0
2, 34320, Note_off_c, 1, 76, 0
2, 34360, Note_on_c, 1, 33, 127
2, 34360, Note_off_c, 1, 40, 0
2, 34360, Note_off_c, 1, 47, 0
2, 34360, Note_on_c, 1, 51, 127
2, 34360, Note_on_c, 1, 63, 127
2, 34400, Note_off_c, 1, 33, 0
2, 34400, Note_on_c, 1, 47, 127
2, 34400, Note_on_c, 1, 59, 127
2, 34400, Note_off_c, 1, 63, 0
2, 34440, Note_off_c, 1, 47, 0
2, 34440, Note_off_c, 1, 51, 0
2, 34440, Note_on_c, 1, 54, 127
2, 34440, Note_on_c, 1, 58, 127
2, 34440, Note_off_c, 1, 59, 0
2, 34440, Note_on_c, 1, 63, 127
2, 34440, Note_on_c, 1, 66, 127
2, 34440, Note_on_c, 1, 70, 127
2, 34440, Note_on_c, 1, 75, 127
2, 34440, Note_on_c, 1, 87, 127
2, 34480, Note_on_c, 1, 50, 127
2, 34480, Note_off_c, 1, 54, 0
2, 34480, Note_on_c, 1, 55, 127
2, 34480, Note_off_c, 1, 58, 0
2, 34480, Note_on_c, 1, 60, 127
2, 34480, Note_off_c, 1, 63, 0
2, 34480, Note_on_c, 1, 64, 127
2, 34480, Note_off_c, 1, 66, 0
2, 34480, Note_off_c, 1, 70, 0
2, 34480, Note_on_c, 1, 71, 127
2, 34480, Note_off_c, 1, 75, 0
2, 34480, Note_off_c, 1, 87, 0
2, 34520, Note_on_c, 1, 35, 127
2, 34520, Note_off_c, 1, 50, 0
2, 34520, Note_on_c, 1, 54, 127
2, 34520, Note_off_c, 1, 55, 0
2, 34520, Note_on_c, 1, 59, 127
2, 34520, Note_off_c, 1, 60, 0
2, 34520, Note_on_c, 1, 68, 127
2, 34560, Note_off_c, 1, 35, 0
2, 34560, Note_on_c, 1, 44, 127
2, 34560, Note_on_c, 1, 48, 127
2, 34560, Note_off_c, 1, 54, 0
2, 34560, Note_off_c, 1, 59, 0
2, 34560, Note_off_c, 1, 64, 0
2, 34560, Note_off_c, 1, 68, 0
2, 34560, Note_off_c, 1, 71, 0
2, 34560, Note_on_c, 1, 72, 127
2, 34560, Note_on_c, 1, 74, 127
2, 34560, Note_on_c, 1, 84, 127
2, 34600, Note_on_c, 1, 32, 127
2, 34600, Note_on_c, 1, 37, 127
2, 34600, Note_off_c, 1, 48, 0
2, 34600, Note_on_c, 1, 61, 127
2, 34600, Note_off_c, 1, 72, 0
2, 34600, Note_off_c, 1, 74, 0
2, 34600, Note_off_c, 1, 84, 0
2, 34640, Note_off_c, 1, 32, 0
2, 34640, Note_off_c, 1, 37, 0
2, 34640, Note_off_c, 1, 44, 0
2, 34640, Note_off_c, 1, 61, 0
2, 34640, Note_on_c, 1, 64, 127
2, 34640, Note_on_c, 1, 69, 127
2, 34640, Note_on_c, 1, 72, 127
2, 34640, Note_on_c, 1, 77, 127
2, 34640, Note_on_c, 1, 84, 127
2, 34680, Note_on_c, 1, 36, 127
2, 34680, Note_on_c, 1, 45, 127
2, 34680, Note_on_c, 1, 48, 127
2, 34680, Note_off_c, 1, 64, 0
2, 34680, Note_on_c, 1, 67, 127
2, 34680, Note_off_c, 1, 69, 0
2, 34680, Note_off_c, 1, 72, 0
2, 34680, Note_off_c, 1, 77, 0
2, 34680, Note_on_c, 1, 79, 127
2, 34680, Note_off_c, 1, 84, 0
2, 34720, Note_off_c, 1, 36, 0
2, 34720, Note_off_c, 1, 45, 0
2, 34720, Note_on_c, 1, 47, 127
2, 34720, Note_off_c, 1, 48, 0
2, 34720, Note_on_c, 1, 51, 127
2, 34720, Note_on_c, 1, 56, 127
2, 34720, Note_off_c, 1, 67, 0
2, 34720, Note_off_c, 1, 79, 0
2, 34720, Note_on_c, 1, 80, 127
2, 34760, Note_on_c, 1, 31, 127
2, 34760, Note_off_c, 1, 51, 0
2, 34760, Note_off_c, 1, 56, 0
2, 34760, Note_on_c, 1, 62, 127
2, 34760, Note_off_c, 1, 80, 0
2, 34800, Note_off_c, 1, 31, 0
2, 34800, Note_off_c, 1, 47, 0
2, 34800, Note_on_c, 1, 52, 127
2, 34800, Note_on_c, 1, 56, 127
2, 34800, Note_on_c, 1, 59, 127
2, 34800, Note_off_c, 1, 62, 0
2, 34800, Note_on_c, 1, 64, 127
2, 34800, Note_on_c, 1, 80, 127
2, 34800, Note_on_c, 1, 83, 127
2, 34840, Note_on_c, 1, 35, 127
2, 34840, Note_on_c, 1, 42, 127
2, 34840, Note_off_c, 1, 52, 0
2, 34840, Note_off_c, 1, 56, 0
2, 34840, Note_off_c, 1, 59, 0
2, 34840, Note_off_c, 1, 64, 0
2, 34840, Note_on_c, 1, 70, 127
2, 34840, Note_on_c, 1, 73, 127
2, 34840, Note_on_c, 1, 76, 127
2, 34840, Note_on_c, 1, 78, 127
2, 34840, Note_off_c, 1, 80, 0
2, 34840, Note_off_c, 1, 83, 0
2, 34880, Note_off_c, 1, 35, 0
2, 34880, Note_off_c, 1, 42, 0
2, 34880, Note_on_c, 1, 57, 127
2, 34880, Note_on_c, 1, 62, 127
2, 34880, Note_on_c, 1, 65, 127
2, 34880, Note_on_c, 1, 68, 127
2, 34880, Note_off_c, 1, 70, 0
2, 34880, Note_off_c, 1, 73, 0
2, 34880, Note_off_c, 1, 76, 0
2, 34880, Note_off_c, 1, 78, 0
2, 34880, Note_on_c, 1, 104, 127
2, 34880, Note_on_c, 1, 105, 127
2, 34920, Note_on_c, 1, 53, 127
2, 34920, Note_on_c, 1, 54, 127
2, 34920, Note_off_c, 1, 57, 0
2, 34920, Note_off_c, 1, 62, 0
2, 34920, Note_off_c, 1, 65, 0
2, 34920, Note_off_c, 1, 68, 0
2, 34920, Note_off_c, 1, 104, 0
2, 34920, Note_off_c, 1, 105, 0
2, 34960, Note_on_c, 1, 32, 127
2, 34960, Note_on_c, 1, 39, 127
2, 34960, Note_off_c, 1, 53, 0
2, 34960, Note_off_c, 1, 54, 0
2, 34960, Note_on_c, 1, 63, 127
2, 35320, Note_off_c, 1, 32, 0
2, 35320, Note_off_c, 1, 39, 0
2, 35320, Note_off_c, 1, 63, 0
2, 35360, Note_on_c, 1, 44, 127
2, 35360, Note_on_c, 1, 51, 127
2, 35360, Note_on_c, 1, 60, 127
2, 35360, Note_on_c, 1, 61, 127
2, 35400, Note_off_c, 1, 44, 0
2, 35400, Note_off_c, 1, 51, 0
2, 35400, Note_on_c, 1, 56, 127
2, 35400, Note_on_c, 1, 59, 127
2, 35400, Note_off_c, 1, 60, 0
2, 35400, Note_off_c, 1, 61, 0
2, 35400, Note_on_c, 1, 64, 127
2, 35400, Note_on_c, 1, 69, 127
2, 35400, Note_on_c, 1, 71, 127
2, 35440, Note_on_c, 1, 44, 127
2, 35440, Note_on_c, 1, 51, 127
2, 35440, Note_off_c, 1, 56, 0
2, 35440, Note_off_c, 1, 59, 0
2, 35440, Note_on_c, 1, 61, 127
2, 35440, Note_off_c, 1, 64, 0
2, 35440, Note_off_c, 1, 69, 0
2, 35440, Note_off_c, 1, 71, 0
2, 35480, Note_off_c, 1, 44, 0
2, 35480, Note_on_c, 1, 59, 127
2, 35480, Note_off_c, 1, 61, 0
2, 35480, Note_on_c, 1, 71, 127
2, 35480, Note_on_c, 1, 78, 127
2, 35520, Note_on_c, 1, 44, 127
2, 35520, Note_off_c, 1, 59, 0
2, 35520, Note_on_c, 1, 61, 127
2, 35520, Note_off_c, 1, 71, 0
2, 35520, Note_off_c, 1, 78, 0
2, 35640, Note_off_c, 1, 44, 0
2, 35640, Note_off_c, 1, 51, 0
2, 35640, Note_on_c, 1, 59, 127
2, 35640, Note_off_c, 1, 61, 0
2, 35680, Note_on_c, 1, 44, 127
2, 35680, Note_on_c, 1, 52, 127
2, 35680, Note_off_c, 1, 59, 0
2, 35680, Note_on_c, 1, 66, 127
2, 35720, Note_off_c, 1, 44, 0
2, 35720, Note_on_c, 1, 49, 127
2, 35720, Note_off_c, 1, 52, 0
2, 35720, Note_on_c, 1, 56, 127
2, 35720, Note_on_c, 1, 59, 127
2, 35720, Note_on_c, 1, 61, 127
2, 35720, Note_off_c, 1, 66, 0
2, 35760, Note_on_c, 1, 38, 127
2, 35760, Note_off_c, 1, 49, 0
2, 35760, Note_off_c, 1, 56, 0
2, 35760, Note_off_c, 1, 59, 0
2, 35760, Note_off_c, 1, 61, 0
2, 35760, Note_on_c, 1, 66, 127
2, 35760, Note_on_c, 1, 76, 127
2, 35800, Note_off_c, 1, 38, 0
2, 35800, Note_on_c, 1, 51, 127
2, 35800, Note_on_c, 1, 56, 127
2, 35800, Note_on_c, 1, 58, 127
2, 35800, Note_off_c, 1, 76, 0
2, 35840, Note_on_c, 1, 38, 127
2, 35840, Note_off_c, 1, 51, 0
2, 35840, Note_off_c, 1, 56, 0
2, 35840, Note_off_c, 1, 58, 0
2, 35880, Note_off_c, 1, 38, 0
2, 35880, Note_off_c, 1, 66, 0
2, 35920, Note_on_c, 1, 42, 127
2, 35920, Note_on_c, 1, 51, 127
2, 35920, Note_on_c, 1, 75, 127
2, 36240, Note_off_c, 1, 42, 0
2, 36240, Note_off_c, 1, 51, 0
2, 36240, Note_off_c, 1, 75, 0
2, 36280, Note_on_c, 1, 42, 127
2, 36280, Note_on_c, 1, 51, 127
2, 36280, Note_on_c, 1, 75, 127
2, 36320, Note_on_c, 1, 54, 127
2, 36320, Note_on_c, 1, 66, 127
2, 36320, Note_off_c, 1, 75, 0
2, 36360, Note_off_c, 1, 54, 0
2, 36640, Note_off_c, 1, 66, 0
2, 36680, Note_on_c, 1, 59, 127
2, 36680, Note_on_c, 1, 66, 127
2, 37120, Note_on_c, 1, 37, 127
2, 37120, Note_off_c, 1, 42, 0
2, 37120, Note_on_c, 1, 49, 127
2, 37120, Note_off_c, 1, 51, 0
2, 37120, Note_on_c, 1, 56, 127
2, 37120, Note_off_c, 1, 59, 0
2, 37120, Note_off_c, 1, 66, 0
2, 37120, Note_on_c, 1, 68, 127
2, 37160, Note_off_c, 1, 37, 0
2, 37160, Note_on_c, 1, 42, 127
2, 37160, Note_off_c, 1, 49, 0
2, 37160, Note_on_c, 1, 51, 127
2, 37160, Note_off_c, 1, 56, 0
2, 37160, Note_on_c, 1, 59, 127
2, 37160, Note_on_c, 1, 66, 127
2, 37160, Note_off_c, 1, 68, 0
2, 37400, Note_off_c, 1, 42, 0
2, 37400, Note_off_c, 1, 51, 0
2, 37400, Note_off_c, 1, 59, 0
2, 37400, Note_off_c, 1, 66, 0
2, 37440, Note_on_c, 1, 40, 127
2, 37440, Note_on_c, 1, 52, 127
2, 37440, Note_on_c, 1, 71, 127
2, 37440, Note_on_c, 1, 76, 127
2, 37440, Note_on_c, 1, 80, 127
2, 38000, Note_on_c, 1, 47, 127
2, 38000, Note_off_c, 1, 80, 0
2, 38000, Note_on_c, 1, 83, 127
2, 38040, Note_off_c, 1, 47, 0
2, 38040, Note_off_c, 1, 71, 0
2, 38040, Note_off_c, 1, 76, 0
2, 38040, Note_off_c, 1, 83, 0
2, 38080, Note_on_c, 1, 30, 127
2, 38080, Note_off_c, 1, 40, 0
2, 38080, Note_off_c, 1, 52, 0
2, 38080, Note_on_c, 1, 90, 127
2, 38240, Note_on_c, 1, 42, 127
2, 38240, Note_on_c, 1, 80, 127
2, 38240, Note_off_c, 1, 90, 0
2, 38280, Note_off_c, 1, 30, 0
2, 38280, Note_off_c, 1, 42, 0
2, 38280, Note_off_c, 1, 80, 0
2, 38320, Note_on_c, 1, 30, 127
2, 38320, Note_on_c, 1, 90, 127
2, 38880, Note_off_c, 1, 30, 0
2, 38880, Note_off_c, 1, 90, 0
2, 38920, Note_on_c, 1, 28, 127
2, 38920, Note_on_c, 1, 40, 127
2, 38920, Note_on_c, 1, 52, 127
2, 40160, Note_off_c, 1, 28, 0
2, 40160, Note_off_c, 1, 40, 0
2, 40160, Note_off_c, 1, 52, 0
2, 40200, Note_on_c, 1, 28, 127
2, 40200, Note_on_c, 1, 40, 127
2, 40200, Note_on_c, 1, 52, 127
2, 40400, Note_off_c, 1, 28, 0
2, 40400, Note_off_c, 1, 40, 0
2, 40400, Note_on_c, 1, 42, 127
2, 40400, Note_on_c, 1, 49, 127
2, 40400, Note_off_c, 1, 52, 0
2, 40400, Note_on_c, 1, 54, 127
2, 40400, Note_on_c, 1, 61, 127
2, 40400, Note_on_c, 1, 66, 127
2, 40400, Note_on_c, 1, 69, 127
2, 42160, Note_off_c, 1, 42, 0
2, 42160, Note_off_c, 1, 49, 0
2, 42160, Note_off_c, 1, 54, 0
2, 42160, Note_off_c, 1, 61, 0
2, 42160, Note_off_c, 1, 66, 0
2, 42160, Note_off_c, 1, 69, 0
2, 42200, Note_on_c, 1, 42, 127
2, 42200, Note_on_c, 1, 49, 127
2, 42200, Note_on_c, 1, 54, 127
2, 42200, Note_on_c, 1, 61, 127
2, 42200, Note_on_c, 1, 66, 127
2, 42200, Note_on_c, 1, 69, 127
2, 44400, Note_off_c, 1, 42, 0
2, 44400, Note_off_c, 1, 49, 0
2, 44400, Note_off_c, 1, 54, 0
2, 44400, Note_off_c, 1, 61, 0
2, 44400, Note_off_c, 1, 66, 0
2, 44400, Note_off_c, 1, 69, 0
2, 44440, Note_on_c, 1, 42, 127
2, 44440, Note_on_c, 1, 49, 127
2, 44440, Note_on_c, 1, 54, 127
2, 44440, Note_on_c, 1, 61, 127
2, 44440, Note_on_c, 1, 66, 127
2, 44440, Note_on_c, 1, 69, 127
2, 46720, Note_off_c, 1, 42, 0
2, 46720, Note_off_c, 1, 49, 0
2, 46720, Note_off_c, 1, 54, 0
2, 46720, Note_off_c, 1, 61, 0
2, 46720, Note_off_c, 1, 66, 0
2, 46720, Note_off_c, 1, 69, 0
2, 46760, Note_on_c, 1, 42, 127
2, 46760, Note_on_c, 1, 49, 127
2, 46760, Note_on_c, 1, 54, 127
2, 46760, Note_on_c, 1, 61, 127
2, 46760, Note_on_c, 1, 66, 127
2, 46760, Note_on_c, 1, 69, 127
2, 48880, Note_off_c, 1, 42, 0
2, 48880, Note_off_c, 1, 49, 0
2, 48880, Note_off_c, 1, 54, 0
2, 48880, Note_off_c, 1, 61, 0
2, 48880, Note_off_c, 1, 66, 0
2, 48880, Note_off_c, 1, 69, 0
2, 48920, Note_on_c, 1, 42, 127
2, 48920, Note_on_c, 1, 49, 127
2, 48920, Note_on_c, 1, 54, 127
2, 48920, Note_on_c, 1, 61, 127
2, 48920, Note_on_c, 1, 66, 127
2, 48920, Note_on_c, 1, 69, 127
2, 51000, Note_off_c, 1, 42, 0
2, 51000, Note_off_c, 1, 49, 0
2, 51000, Note_off_c, 1, 54, 0
2, 51000, Note_off_c, 1, 61, 0
2, 51000, Note_off_c, 1, 66, 0
2, 51000, Note_off_c, 1, 69, 0
2, 51040, Note_on_c, 1, 42, 127
2, 51040, Note_on_c, 1, 49, 127
2, 51040, Note_on_c, 1, 54, 127
2, 51040, Note_on_c, 1, 61, 127
2, 51040, Note_on_c, 1, 66, 127
2, 51040, Note_on_c, 1, 69, 127
2, 53360, Note_on_c, 1, 31, 127
2, 53360, Note_off_c, 1, 42, 0
2, 53360, Note_on_c, 1, 43, 127
2, 53360, Note_off_c, 1, 49, 0
2, 53360, Note_on_c, 1, 50, 127
2, 53360, Note_off_c, 1, 54, 0
2, 53360, Note_off_c, 1, 61, 0
2, 53360, Note_on_c, 1, 62, 127
2, 53360, Note_off_c, 1, 66, 0
2, 53360, Note_off_c, 1, 69, 0
2, 53360, Note_on_c, 1, 71, 127
2, 53360, Note_on_c, 1, 83, 127
2, 53400, Note_off_c, 1, 31, 0
2, 53400, Note_off_c, 1, 43, 0
2, 53400, Note_off_c, 1, 50, 0
2, 53400, Note_off_c, 1, 62, 0
2, 53400, Note_off_c, 1, 71, 0
2, 53400, Note_off_c, 1, 83, 0
2, 53440, Note_on_c, 1, 43, 127
2, 53440, Note_on_c, 1, 53, 127
2, 53440, Note_on_c, 1, 58, 127
2, 53440, Note_on_c, 1, 65, 127
2, 53480, Note_off_c, 1, 43, 0
2, 53480, Note_on_c, 1, 50, 127
2, 53480, Note_off_c, 1, 53, 0
2, 53480, Note_on_c, 1, 55, 127
2, 53480, Note_off_c, 1, 58, 0
2, 53480, Note_on_c, 1, 59, 127
2, 53480, Note_off_c, 1, 65, 0
2, 53480, Note_on_c, 1, 95, 127
2, 53520, Note_off_c, 1, 50, 0
2, 53520, Note_off_c, 1, 55, 0
2, 53520, Note_on_c, 1, 67, 127
2, 53520, Note_on_c, 1, 71, 127
2, 53520, Note_on_c, 1, 74, 127
2, 53520, Note_on_c, 1, 83, 127
2, 53520, Note_off_c, 1, 95, 0
2, 53560, Note_on_c, 1, 43, 127
2, 53560, Note_off_c, 1, 59, 0
2, 53560, Note_off_c, 1, 67, 0
2, 53560, Note_off_c, 1, 71, 0
2, 53560, Note_off_c, 1, 74, 0
2, 53560, Note_off_c, 1, 83, 0
2, 53600, Note_off_c, 1, 43, 0
2, 53600, Note_on_c, 1, 58, 127
2, 53600, Note_on_c, 1, 74, 127
2, 53600, Note_on_c, 1, 82, 127
2, 53600, Note_on_c, 1, 89, 127
2, 53760, Note_on_c, 1, 47, 127
2, 53760, Note_on_c, 1, 51, 127
2, 53760, Note_on_c, 1, 54, 127
2, 53760, Note_off_c, 1, 58, 0
2, 53760, Note_on_c, 1, 66, 127
2, 53760, Note_off_c, 1, 74, 0
2, 53760, Note_off_c, 1, 82, 0
2, 53760, Note_off_c, 1, 89, 0
2, 53800, Note_on_c, 1, 42, 127
2, 53800, Note_off_c, 1, 47, 0
2, 53800, Note_on_c, 1, 49, 127
2, 53800, Note_off_c, 1, 51, 0
2, 53800, Note_on_c, 1, 52, 127
2, 53800, Note_off_c, 1, 54, 0
2, 53800, Note_on_c, 1, 64, 127
2, 53800, Note_off_c, 1, 66, 0
2, 53800, Note_on_c, 1, 70, 127
2, 53800, Note_on_c, 1, 73, 127
2, 53840, Note_off_c, 1, 49, 0
2, 53840, Note_on_c, 1, 50, 127
2, 53840, Note_off_c, 1, 52, 0
2, 53840, Note_on_c, 1, 54, 127
2, 53840, Note_on_c, 1, 57, 127
2, 53840, Note_on_c, 1, 69, 127
2, 53840, Note_off_c, 1, 70, 0
2, 53840, Note_off_c, 1, 73, 0
2, 53840, Note_on_c, 1, 76, 127
2, 53880, Note_off_c, 1, 42, 0
2, 53880, Note_on_c, 1, 45, 127
2, 53880, Note_off_c, 1, 50, 0
2, 53880, Note_off_c, 1, 54, 0
2, 53880, Note_on_c, 1, 55, 127
2, 53880, Note_off_c, 1, 64, 0
2, 53880, Note_off_c, 1, 69, 0
2, 53880, Note_on_c, 1, 85, 127
2, 53880, Note_on_c, 1, 88, 127
2, 53920, Note_off_c, 1, 45, 0
2, 53920, Note_on_c, 1, 46, 127
2, 53920, Note_on_c, 1, 49, 127
2, 53920, Note_on_c, 1, 52, 127
2, 53920, Note_off_c, 1, 57, 0
2, 53920, Note_on_c, 1, 73, 127
2, 53920, Note_off_c, 1, 76, 0
2, 53920, Note_off_c, 1, 85, 0
2, 53920, Note_off_c, 1, 88, 0
2, 53960, Note_off_c, 1, 46, 0
2, 53960, Note_on_c, 1, 47, 127
2, 53960, Note_off_c, 1, 49, 0
2, 53960, Note_off_c, 1, 52, 0
2, 53960, Note_on_c, 1, 54, 127
2, 53960, Note_off_c, 1, 55, 0
2, 53960, Note_on_c, 1, 57, 127
2, 53960, Note_on_c, 1, 67, 127
2, 53960, Note_on_c, 1, 72, 127
2, 53960, Note_off_c, 1, 73, 0
2, 53960, Note_on_c, 1, 76, 127
2, 53960, Note_on_c, 1, 79, 127
2, 54080, Note_off_c, 1, 47, 0
2, 54080, Note_off_c, 1, 67, 0
2, 54080, Note_off_c, 1, 79, 0
2, 54280, Note_off_c, 1, 54, 0
2, 54280, Note_off_c, 1, 57, 0
2, 54280, Note_on_c, 1, 59, 127
2, 54280, Note_off_c, 1, 72, 0
2, 54280, Note_on_c, 1, 73, 127
2, 54280, Note_off_c, 1, 76, 0
2, 54280, Note_on_c, 1, 81, 127
2, 54320, Note_on_c, 1, 54, 127
2, 54320, Note_on_c, 1, 57, 127
2, 54320, Note_off_c, 1, 59, 0
2, 54320, Note_on_c, 1, 72, 127
2, 54320, Note_off_c, 1, 73, 0
2, 54320, Note_on_c, 1, 76, 127
2, 54320, Note_off_c, 1, 81, 0
2, 54440, Note_on_c, 1, 37, 127
2, 54440, Note_off_c, 1, 54, 0
2, 54440, Note_off_c, 1, 57, 0
2, 54440, Note_on_c, 1, 71, 127
2, 54440, Note_off_c, 1, 72, 0
2, 54440, Note_off_c, 1, 76, 0
2, 54440, Note_on_c, 1, 80, 127
2, 54440, Note_on_c, 1, 83, 127
2, 54480, Note_off_c, 1, 37, 0
2, 54480, Note_on_c, 1, 54, 127
2, 54480, Note_on_c, 1, 57, 127
2, 54480, Note_off_c, 1, 71, 0
2, 54480, Note_on_c, 1, 72, 127
2, 54480, Note_on_c, 1, 76, 127
2, 54480, Note_off_c, 1, 80, 0
2, 54480, Note_off_c, 1, 83, 0
2, 54520, Note_off_c, 1, 54, 0
2, 54520, Note_on_c, 1, 56, 127
2, 54520, Note_off_c, 1, 57, 0
2, 54520, Note_off_c, 1, 72, 0
2, 54520, Note_on_c, 1, 73, 127
2, 54520, Note_off_c, 1, 76, 0
2, 54520, Note_on_c, 1, 77, 127
2, 54520, Note_on_c, 1, 83, 127
2, 54520, Note_on_c, 1, 85, 127
2, 54560, Note_off_c, 1, 56, 0
2, 54560, Note_on_c, 1, 71, 127
2, 54560, Note_off_c, 1, 73, 0
2, 54560, Note_on_c, 1, 74, 127
2, 54560, Note_off_c, 1, 77, 0
2, 54560, Note_on_c, 1, 78, 127
2, 54560, Note_on_c, 1, 79, 127
2, 54560, Note_off_c, 1, 83, 0
2, 54560, Note_off_c, 1, 85, 0
2, 54600, Note_off_c, 1, 71, 0
2, 54600, Note_off_c, 1, 74, 0
2, 54600, Note_off_c, 1, 78, 0
2, 54600, Note_off_c, 1, 79, 0
2, 54640, Note_on_c, 1, 71, 127
2, 54640, Note_on_c, 1, 78, 127
2, 54640, Note_on_c, 1, 83, 127
2, 54640, Note_on_c, 1, 86, 127
2, 54640, Note_on_c, 1, 90, 127
2, 55480, Note_off_c, 1, 71, 0
2, 55480, Note_off_c, 1, 78, 0
2, 55480, Note_off_c, 1, 83, 0
2, 55480, Note_off_c, 1, 86, 0
2, 55480, Note_off_c, 1, 90, 0
2, 55560, Note_on_c, 1, 55, 127
2, 55560, Note_on_c, 1, 81, 127
2, 55560, Note_on_c, 1, 85, 127
2, 55560, Note_on_c, 1, 88, 127
2, 55560, Note_on_c, 1, 93, 127
2, 55600, Note_off_c, 1, 55, 0
2, 55600, Note_on_c, 1, 68, 127
2, 55600, Note_on_c, 1, 71, 127
2, 55600, Note_on_c, 1, 75, 127
2, 55600, Note_on_c, 1, 77, 127
2, 55600, Note_off_c, 1, 81, 0
2, 55600, Note_off_c, 1, 85, 0
2, 55600, Note_off_c, 1, 88, 0
2, 55600, Note_off_c, 1, 93, 0
2, 55640, Note_on_c, 1, 59, 127
2, 55640, Note_on_c, 1, 64, 127
2, 55640, Note_on_c, 1, 67, 127
2, 55640, Note_off_c, 1, 68, 0
2, 55640, Note_off_c, 1, 71, 0
2, 55640, Note_on_c, 1, 73, 127
2, 55640, Note_off_c, 1, 75, 0
2, 55640, Note_on_c, 1, 76, 127
2, 55640, Note_off_c, 1, 77, 0
2, 55640, Note_on_c, 1, 83, 127
2, 55640, Note_on_c, 1, 88, 127
2, 55680, Note_off_c, 1, 59, 0
2, 55680, Note_off_c, 1, 64, 0
2, 55680, Note_off_c, 1, 67, 0
2, 55680, Note_on_c, 1, 70, 127
2, 55680, Note_off_c, 1, 73, 0
2, 55680, Note_on_c, 1, 75, 127
2, 55680, Note_off_c, 1, 76, 0
2, 55680, Note_on_c, 1, 78, 127
2, 55680, Note_on_c, 1, 87, 127
2, 55680, Note_off_c, 1, 88, 0
2, 55720, Note_on_c, 1, 45, 127
2, 55720, Note_on_c, 1, 49, 127
2, 55720, Note_on_c, 1, 67, 127
2, 55720, Note_off_c, 1, 70, 0
2, 55720, Note_off_c, 1, 75, 0
2, 55720, Note_off_c, 1, 78, 0
2, 55720, Note_on_c, 1, 79, 127
2, 55720, Note_off_c, 1, 83, 0
2, 55720, Note_off_c, 1, 87, 0
2, 55760, Note_on_c, 1, 25, 127
2, 55760, Note_on_c, 1, 30, 127
2, 55760, Note_on_c, 1, 34, 127
2, 55760, Note_on_c, 1, 37, 127
2, 55760, Note_off_c, 1, 45, 0
2, 55760, Note_on_c, 1, 54, 127
2, 55760, Note_on_c, 1, 58, 127
2, 55760, Note_on_c, 1, 61, 127
2, 55760, Note_off_c, 1, 67, 0
2, 55760, Note_off_c, 1, 79, 0
2, 55800, Note_off_c, 1, 25, 0
2, 55800, Note_off_c, 1, 30, 0
2, 55800, Note_off_c, 1, 34, 0
2, 55800, Note_off_c, 1, 37, 0
2, 55800, Note_off_c, 1, 49, 0
2, 55800, Note_off_c, 1, 54, 0
2, 55800, Note_off_c, 1, 58, 0
2, 55800, Note_off_c, 1, 61, 0
2, 55840, Note_on_c, 1, 66, 127
2, 55840, Note_on_c, 1, 71, 127
2, 55840, Note_on_c, 1, 75, 127
2, 55840, Note_on_c, 1, 78, 127
2, 56560, Note_off_c, 1, 66, 0
2, 56560, Note_off_c, 1, 71, 0
2, 56560, Note_off_c, 1, 75, 0
2, 56560, Note_off_c, 1, 78, 0
2, 56600, Note_on_c, 1, 31, 127
2, 56600, Note_on_c, 1, 43, 127
2, 56600, Note_on_c, 1, 53, 127
2, 56600, Note_on_c, 1, 55, 127
2, 56600, Note_on_c, 1, 59, 127
2, 56600, Note_on_c, 1, 62, 127
2, 57040, Note_off_c, 1, 31, 0
2, 57040, Note_on_c, 1, 36, 127
2, 57040, Note_off_c, 1, 43, 0
2, 57040, Note_on_c, 1, 48, 127
2, 57040, Note_off_c, 1, 53, 0
2, 57040, Note_off_c, 1, 55, 0
2, 57040, Note_off_c, 1, 59, 0
2, 57040, Note_off_c, 1, 62, 0
2, 57040, Note_on_c, 1, 76, 127
2, 57040, Note_on_c, 1, 79, 127
2, 57040, Note_on_c, 1, 84, 127
2, 57040, Note_on_c, 1, 88, 127
2, 57080, Note_off_c, 1, 36, 0
2, 57080, Note_on_c, 1, 47, 127
2, 57080, Note_off_c, 1, 48, 0
2, 57080, Note_on_c, 1, 55, 127
2, 57080, Note_on_c, 1, 59, 127
2, 57080, Note_on_c, 1, 64, 127
2, 57080, Note_on_c, 1, 67, 127
2, 57080, Note_on_c, 1, 71, 127
2, 57080, Note_off_c, 1, 79, 0
2, 57080, Note_off_c, 1, 84, 0
2, 57080, Note_off_c, 1, 88, 0
2, 57120, Note_on_c, 1, 31, 127
2, 57120, Note_on_c, 1, 43, 127
2, 57120, Note_off_c, 1, 47, 0
2, 57120, Note_on_c, 1, 53, 127
2, 57120, Note_on_c, 1, 62, 127
2, 57120, Note_off_c, 1, 64, 0
2, 57120, Note_off_c, 1, 67, 0
2, 57120, Note_off_c, 1, 71, 0
2, 57120, Note_off_c, 1, 76, 0
2, 57160, Note_off_c, 1, 31, 0
2, 57160, Note_off_c, 1, 43, 0
2, 57160, Note_off_c, 1, 53, 0
2, 57160, Note_off_c, 1, 55, 0
2, 57160, Note_off_c, 1, 59, 0
2, 57160, Note_off_c, 1, 62, 0
2, 57240, Note_on_c, 1, 33, 127
2, 57240, Note_on_c, 1, 45, 127
2, 57240, Note_on_c, 1, 60, 127
2, 57240, Note_on_c, 1, 64, 127
2, 57240, Note_on_c, 1, 69, 127
2, 57240, Note_on_c, 1, 72, 127
2, 57800, Note_off_c, 1, 60, 0
2, 57800, Note_off_c, 1, 64, 0
2, 57800, Note_off_c, 1, 69, 0
2, 57800, Note_off_c, 1, 72, 0
2, 57840, Note_off_c, 1, 33, 0
2, 57840, Note_on_c, 1, 36, 127
2, 57840, Note_off_c, 1, 45, 0
2, 57840, Note_on_c, 1, 48, 127
2, 57840, Note_on_c, 1, 69, 127
2, 57840, Note_on_c, 1, 76, 127
2, 58240, Note_off_c, 1, 76, 0
2, 58280, Note_on_c, 1, 76, 127
2, 58400, Note_off_c, 1, 36, 0
2, 58400, Note_off_c, 1, 48, 0
2, 58400, Note_off_c, 1, 69, 0
2, 58400, Note_off_c, 1, 76, 0
2, 58440, Note_on_c, 1, 41, 127
2, 58440, Note_on_c, 1, 53, 127
2, 58440, Note_on_c, 1, 62, 127
2, 58440, Note_on_c, 1, 69, 127
2, 58800, Note_off_c, 1, 69, 0
2, 58840, Note_on_c, 1, 69, 127
2, 59000, Note_off_c, 1, 62, 0
2, 59000, Note_off_c, 1, 69, 0
2, 59040, Note_on_c, 1, 62, 127
2, 59040, Note_on_c, 1, 69, 127
2, 59160, Note_off_c, 1, 41, 0
2, 59160, Note_off_c, 1, 53, 0
2, 59160, Note_off_c, 1, 62, 0
2, 59160, Note_off_c, 1, 69, 0
2, 59200, Note_on_c, 1, 41, 127
2, 59200, Note_on_c, 1, 53, 127
2, 59200, Note_on_c, 1, 62, 127
2, 59200, Note_on_c, 1, 69, 127
2, 59440, Note_off_c, 1, 69, 0
2, 59480, Note_off_c, 1, 41, 0
2, 59480, Note_on_c, 1, 44, 127
2, 59480, Note_off_c, 1, 53, 0
2, 59480, Note_on_c, 1, 60, 127
2, 59480, Note_off_c, 1, 62, 0
2, 59480, Note_on_c, 1, 63, 127
2, 59480, Note_on_c, 1, 70, 127
2, 59520, Note_off_c, 1, 44, 0
2, 59520, Note_on_c, 1, 51, 127
2, 59520, Note_on_c, 1, 58, 127
2, 59520, Note_off_c, 1, 60, 0
2, 59520, Note_off_c, 1, 63, 0
2, 59520, Note_off_c, 1, 70, 0
2, 59520, Note_on_c, 1, 73, 127
2, 59520, Note_on_c, 1, 76, 127
2, 59560, Note_on_c, 1, 41, 127
2, 59560, Note_off_c, 1, 51, 0
2, 59560, Note_on_c, 1, 53, 127
2, 59560, Note_off_c, 1, 58, 0
2, 59560, Note_on_c, 1, 63, 127
2, 59560, Note_off_c, 1, 73, 0
2, 59560, Note_off_c, 1, 76, 0
2, 59600, Note_on_c, 1, 34, 127
2, 59600, Note_off_c, 1, 41, 0
2, 59600, Note_on_c, 1, 46, 127
2, 59600, Note_off_c, 1, 53, 0
2, 59600, Note_on_c, 1, 62, 127
2, 59600, Note_off_c, 1, 63, 0
2, 59600, Note_on_c, 1, 65, 127
2, 59600, Note_on_c, 1, 68, 127
2, 59640, Note_off_c, 1, 34, 0
2, 59640, Note_off_c, 1, 46, 0
2, 59640, Note_off_c, 1, 62, 0
2, 59640, Note_off_c, 1, 65, 0
2, 59640, Note_off_c, 1, 68, 0
2, 59680, Note_on_c, 1, 41, 127
2, 59680, Note_on_c, 1, 48, 127
2, 59680, Note_on_c, 1, 51, 127
2, 59680, Note_on_c, 1, 89, 127
2, 59720, Note_off_c, 1, 48, 0
2, 59720, Note_off_c, 1, 51, 0
2, 59720, Note_on_c, 1, 53, 127
2, 59720, Note_on_c, 1, 63, 127
2, 59720, Note_on_c, 1, 70, 127
2, 59720, Note_off_c, 1, 89, 0
2, 59960, Note_off_c, 1, 63, 0
2, 59960, Note_on_c, 1, 69, 127
2, 59960, Note_off_c, 1, 70, 0
2, 59960, Note_on_c, 1, 76, 127
2, 60040, Note_on_c, 1, 63, 127
2, 60040, Note_off_c, 1, 69, 0
2, 60040, Note_on_c, 1, 72, 127
2, 60040, Note_off_c, 1, 76, 0
2, 60080, Note_off_c, 1, 63, 0
2, 60080, Note_on_c, 1, 70, 127
2, 60080, Note_off_c, 1, 72, 0
2, 60280, Note_on_c, 1, 68, 127
2, 60320, Note_off_c, 1, 68, 0
2, 60520, Note_off_c, 1, 70, 0
2, 60560, Note_on_c, 1, 69, 127
2, 60680, Note_off_c, 1, 69, 0
2, 60720, Note_on_c, 1, 79, 127
2, 60840, Note_off_c, 1, 41, 0
2, 60840, Note_off_c, 1, 53, 0
2, 60840, Note_off_c, 1, 79, 0
2, 60880, Note_on_c, 1, 78, 127
2, 60880, Note_on_c, 1, 81, 127
2, 60880, Note_on_c, 1, 84, 127
2, 60880, Note_on_c, 1, 90, 127
2, 61280, Note_off_c, 1, 78, 0
2, 61280, Note_off_c, 1, 81, 0
2, 61280, Note_off_c, 1, 84, 0
2, 61280, Note_off_c, 1, 90, 0
2, 61320, Note_on_c, 1, 78, 127
2, 61320, Note_on_c, 1, 81, 127
2, 61320, Note_on_c, 1, 84, 127
2, 61320, Note_on_c, 1, 90, 127
2, 61440, Note_on_c, 1, 63, 127
2, 61440, Note_off_c, 1, 78, 0
2, 61440, Note_off_c, 1, 81, 0
2, 61440, Note_off_c, 1, 84, 0
2, 61480, Note_off_c, 1, 63, 0
2, 61480, Note_off_c, 1, 90, 0
2, 61520, Note_on_c, 1, 41, 127
2, 61520, Note_on_c, 1, 53, 127
2, 61520, Note_on_c, 1, 65, 127
2, 61520, Note_on_c, 1, 68, 127
2, 61520, Note_on_c, 1, 73, 127
2, 61520, Note_on_c, 1, 77, 127
2, 61760, Note_off_c, 1, 41, 0
2, 61760, Note_on_c, 1, 44, 127
2, 61760, Note_off_c, 1, 53, 0
2, 61760, Note_on_c, 1, 56, 127
2, 61760, Note_on_c, 1, 63, 127
2, 61760, Note_off_c, 1, 65, 0
2, 61760, Note_on_c, 1, 72, 127
2, 61760, Note_off_c, 1, 73, 0
2, 61760, Note_on_c, 1, 75, 127
2, 61760, Note_off_c, 1, 77, 0
2, 62080, Note_off_c, 1, 44, 0
2, 62080, Note_off_c, 1, 56, 0
2, 62080, Note_off_c, 1, 63, 0
2, 62080, Note_off_c, 1, 68, 0
2, 62080, Note_off_c, 1, 72, 0
2, 62080, Note_off_c, 1, 75, 0
2, 62120, Note_on_c, 1, 47, 127
2, 62120, Note_on_c, 1, 54, 127
2, 62120, Note_on_c, 1, 57, 127
2, 62120, Note_on_c, 1, 63, 127
2, 62120, Note_on_c, 1, 69, 127
2, 62120, Note_on_c, 1, 73, 127
2, 62160, Note_off_c, 1, 47, 0
2, 62160, Note_off_c, 1, 54, 0
2, 62160, Note_off_c, 1, 57, 0
2, 62160, Note_off_c, 1, 63, 0
2, 62160, Note_on_c, 1, 68, 127
2, 62160, Note_off_c, 1, 69, 0
2, 62160, Note_off_c, 1, 73, 0
2, 62160, Note_on_c, 1, 75, 127
2, 62160, Note_on_c, 1, 77, 127
2, 62160, Note_on_c, 1, 80, 127
2, 62200, Note_on_c, 1, 31, 127
2, 62200, Note_on_c, 1, 55, 127
2, 62200, Note_on_c, 1, 58, 127
2, 62200, Note_on_c, 1, 64, 127
2, 62200, Note_off_c, 1, 68, 0
2, 62200, Note_off_c, 1, 75, 0
2, 62200, Note_off_c, 1, 77, 0
2, 62200, Note_off_c, 1, 80, 0
2, 62240, Note_off_c, 1, 31, 0
2, 62240, Note_on_c, 1, 40, 127
2, 62240, Note_off_c, 1, 55, 0
2, 62240, Note_off_c, 1, 58, 0
2, 62240, Note_on_c, 1, 60, 127
2, 62240, Note_off_c, 1, 64, 0
2, 62240, Note_on_c, 1, 69, 127
2, 62240, Note_on_c, 1, 81, 127
2, 62280, Note_on_c, 1, 36, 127
2, 62280, Note_off_c, 1, 40, 0
2, 62280, Note_off_c, 1, 60, 0
2, 62280, Note_off_c, 1, 69, 0
2, 62280, Note_on_c, 1, 70, 127
2, 62280, Note_on_c, 1, 76, 127
2, 62280, Note_on_c, 1, 78, 127
2, 62280, Note_off_c, 1, 81, 0
2, 62280, Note_on_c, 1, 82, 127
2, 62320, Note_off_c, 1, 36, 0
2, 62320, Note_on_c, 1, 37, 127
2, 62320, Note_on_c, 1, 73, 127
2, 62320, Note_on_c, 1, 75, 127
2, 62320, Note_off_c, 1, 76, 0
2, 62320, Note_off_c, 1, 78, 0
2, 62320, Note_on_c, 1, 79, 127
2, 62320, Note_off_c, 1, 82, 0
2, 62360, Note_on_c, 1, 30, 127
2, 62360, Note_off_c, 1, 37, 0
2, 62360, Note_on_c, 1, 42, 127
2, 62360, Note_on_c, 1, 54, 127
2, 62360, Note_on_c, 1, 66, 127
2, 62360, Note_off_c, 1, 73, 0
2, 62360, Note_off_c, 1, 75, 0
2, 62360, Note_off_c, 1, 79, 0
2, 62360, Note_on_c, 1, 82, 127
2, 62400, Note_off_c, 1, 30, 0
2, 62400, Note_off_c, 1, 42, 0
2, 62400, Note_on_c, 1, 43, 127
2, 62400, Note_on_c, 1, 46, 127
2, 62400, Note_off_c, 1, 54, 0
2, 62400, Note_off_c, 1, 66, 0
2, 62400, Note_off_c, 1, 70, 0
2, 62400, Note_on_c, 1, 79, 127
2, 62400, Note_off_c, 1, 82, 0
2, 62440, Note_on_c, 1, 35, 127
2, 62440, Note_off_c, 1, 43, 0
2, 62440, Note_off_c, 1, 46, 0
2, 62440, Note_on_c, 1, 47, 127
2, 62440, Note_on_c, 1, 57, 127
2, 62440, Note_on_c, 1, 65, 127
2, 62440, Note_off_c, 1, 79, 0
2, 62480, Note_off_c, 1, 35, 0
2, 62480, Note_on_c, 1, 45, 127
2, 62480, Note_off_c, 1, 47, 0
2, 62480, Note_on_c, 1, 48, 127
2, 62480, Note_on_c, 1, 60, 127
2, 62480, Note_on_c, 1, 64, 127
2, 62480, Note_off_c, 1, 65, 0
2, 62480, Note_on_c, 1, 69, 127
2, 62520, Note_off_c, 1, 45, 0
2, 62520, Note_off_c, 1, 48, 0
2, 62520, Note_off_c, 1, 57, 0
2, 62520, Note_off_c, 1, 60, 0
2, 62520, Note_off_c, 1, 64, 0
2, 62520, Note_off_c, 1, 69, 0
2, 62560, Note_on_c, 1, 35, 127
2, 62560, Note_on_c, 1, 45, 127
2, 62560, Note_on_c, 1, 52, 127
2, 62560, Note_on_c, 1, 54, 127
2, 62600, Note_on_c, 1, 30, 127
2, 62600, Note_off_c, 1, 35, 0
2, 62600, Note_on_c, 1, 42, 127
2, 62600, Note_off_c, 1, 45, 0
2, 62600, Note_off_c, 1, 52, 0
2, 62600, Note_on_c, 1, 57, 127
2, 62600, Note_on_c, 1, 61, 127
2, 62600, Note_on_c, 1, 66, 127
2, 62600, Note_on_c, 1, 69, 127
2, 62600, Note_on_c, 1, 73, 127
2, 62600, Note_on_c, 1, 78, 127
2, 62600, Note_on_c, 1, 81, 127
2, 62600, Note_on_c, 1, 85, 127
2, 62640, Note_off_c, 1, 30, 0
2, 62640, Note_on_c, 1, 35, 127
2, 62640, Note_off_c, 1, 42, 0
2, 62640, Note_on_c, 1, 45, 127
2, 62640, Note_on_c, 1, 52, 127
2, 62640, Note_off_c, 1, 57, 0
2, 62640, Note_off_c, 1, 61, 0
2, 62640, Note_off_c, 1, 66, 0
2, 62640, Note_off_c, 1, 69, 0
2, 62640, Note_off_c, 1, 73, 0
2, 62640, Note_off_c, 1, 78, 0
2, 62640, Note_off_c, 1, 81, 0
2, 62640, Note_off_c, 1, 85, 0
2, 62680, Note_off_c, 1, 35, 0
2, 62680, Note_off_c, 1, 45, 0
2, 62680, Note_off_c, 1, 52, 0
2, 62680, Note_off_c, 1, 54, 0
2, 62720, Note_on_c, 1, 49, 127
2, 62720, Note_on_c, 1, 56, 127
2, 62720, Note_on_c, 1, 61, 127
2, 62720, Note_on_c, 1, 64, 127
2, 62720, Note_on_c, 1, 73, 127
2, 63440, Note_off_c, 1, 49, 0
2, 63440, Note_off_c, 1, 56, 0
2, 63440, Note_off_c, 1, 61, 0
2, 63440, Note_off_c, 1, 64, 0
2, 63440, Note_off_c, 1, 73, 0
2, 63480, Note_on_c, 1, 49, 127
2, 63480, Note_on_c, 1, 56, 127
2, 63480, Note_on_c, 1, 61, 127
2, 63480, Note_on_c, 1, 64, 127
2, 63480, Note_on_c, 1, 73, 127
2, 64200, Note_off_c, 1, 49, 0
2, 64200, Note_off_c, 1, 56, 0
2, 64200, Note_off_c, 1, 61, 0
2, 64200, Note_off_c, 1, 64, 0
2, 64200, Note_off_c, 1, 73, 0
2, 64240, Note_on_c, 1, 61, 127
2, 64240, Note_on_c, 1, 65, 127
2, 64240, Note_on_c, 1, 68, 127
2, 64240, Note_on_c, 1, 89, 127
2, 64640, Note_off_c, 1, 89, 0
2, 64680, Note_on_c, 1, 85, 127
2, 64800, Note_off_c, 1, 85, 0
2, 64840, Note_on_c, 1, 85, 127
2, 64920, Note_off_c, 1, 68, 0
2, 64920, Note_on_c, 1, 70, 127
2, 64920, Note_off_c, 1, 85, 0
2, 64960, Note_on_c, 1, 58, 127
2, 64960, Note_off_c, 1, 61, 0
2, 64960, Note_on_c, 1, 62, 127
2, 64960, Note_on_c, 1, 74, 127
2, 64960, Note_on_c, 1, 79, 127
2, 65000, Note_off_c, 1, 58, 0
2, 65000, Note_on_c, 1, 61, 127
2, 65000, Note_off_c, 1, 62, 0
2, 65000, Note_on_c, 1, 68, 127
2, 65000, Note_off_c, 1, 70, 0
2, 65000, Note_off_c, 1, 74, 0
2, 65000, Note_off_c, 1, 79, 0
2, 65000, Note_on_c, 1, 85, 127
2, 65080, Note_off_c, 1, 85, 0
2, 65120, Note_on_c, 1, 85, 127
2, 65200, Note_off_c, 1, 85, 0
2, 65240, Note_on_c, 1, 54, 127
2, 65240, Note_off_c, 1, 61, 0
2, 65240, Note_off_c, 1, 65, 0
2, 65240, Note_off_c, 1, 68, 0
2, 65240, Note_on_c, 1, 85, 127
2, 65280, Note_off_c, 1, 54, 0
2, 65280, Note_off_c, 1, 85, 0
2, 65320, Note_on_c, 1, 61, 127
2, 65320, Note_on_c, 1, 65, 127
2, 65320, Note_on_c, 1, 68, 127
2, 65320, Note_on_c, 1, 92, 127
2, 65560, Note_off_c, 1, 92, 0
2, 65600, Note_on_c, 1, 34, 127
2, 65600, Note_on_c, 1, 46, 127
2, 65600, Note_on_c, 1, 49, 127
2, 65600, Note_on_c, 1, 54, 127
2, 65600, Note_off_c, 1, 65, 0
2, 65600, Note_off_c, 1, 68, 0
2, 65720, Note_off_c, 1, 34, 0
2, 65720, Note_off_c, 1, 46, 0
2, 65720, Note_off_c, 1, 49, 0
2, 65720, Note_off_c, 1, 54, 0
2, 65720, Note_on_c, 1, 60, 127
2, 65720, Note_off_c, 1, 61, 0
2, 65760, Note_on_c, 1, 52, 127
2, 65760, Note_off_c, 1, 60, 0
2, 65760, Note_on_c, 1, 63, 127
2, 65760, Note_on_c, 1, 69, 127
2, 65760, Note_on_c, 1, 72, 127
2, 65760, Note_on_c, 1, 78, 127
2, 65800, Note_off_c, 1, 52, 0
2, 65800, Note_on_c, 1, 61, 127
2, 65800, Note_off_c, 1, 63, 0
2, 65800, Note_off_c, 1, 69, 0
2, 65800, Note_off_c, 1, 72, 0
2, 65800, Note_on_c, 1, 77, 127
2, 65800, Note_off_c, 1, 78, 0
2, 65800, Note_on_c, 1, 80, 127
2, 65800, Note_on_c, 1, 83, 127
2, 65840, Note_on_c, 1, 37, 127
2, 65840, Note_on_c, 1, 59, 127
2, 65840, Note_off_c, 1, 61, 0
2, 65840, Note_on_c, 1, 69, 127
2, 65840, Note_off_c, 1, 77, 0
2, 65840, Note_off_c, 1, 80, 0
2, 65840, Note_off_c, 1, 83, 0
2, 65880, Note_on_c, 1, 30, 127
2, 65880, Note_off_c, 1, 37, 0
2, 65880, Note_on_c, 1, 42, 127
2, 65880, Note_off_c, 1, 59, 0
2, 65880, Note_off_c, 1, 69, 0
2, 65880, Note_on_c, 1, 80, 127
2, 65880, Note_on_c, 1, 89, 127
2, 65880, Note_on_c, 1, 92, 127
2, 65920, Note_off_c, 1, 30, 0
2, 65920, Note_on_c, 1, 34, 127
2, 65920, Note_off_c, 1, 42, 0
2, 65920, Note_on_c, 1, 53, 127
2, 65920, Note_on_c, 1, 70, 127
2, 65920, Note_off_c, 1, 80, 0
2, 65920, Note_off_c, 1, 89, 0
2, 65920, Note_off_c, 1, 92, 0
2, 65960, Note_on_c, 1, 27, 127
2, 65960, Note_on_c, 1, 39, 127
2, 65960, Note_off_c, 1, 53, 0
2, 65960, Note_off_c, 1, 70, 0
2, 65960, Note_on_c, 1, 90, 127
2, 65960, Note_on_c, 1, 94, 127
2, 65960, Note_on_c, 1, 102, 127
2, 66000, Note_off_c, 1, 27, 0
2, 66000, Note_off_c, 1, 34, 0
2, 66000, Note_off_c, 1, 39, 0
2, 66000, Note_on_c, 1, 87, 127
2, 66000, Note_off_c, 1, 90, 0
2, 66000, Note_on_c, 1, 93, 127
2, 66000, Note_off_c, 1, 94, 0
2, 66000, Note_on_c, 1, 96, 127
2, 66000, Note_on_c, 1, 99, 127
2, 66000, Note_off_c, 1, 102, 0
2, 66040, Note_on_c, 1, 59, 127
2, 66040, Note_on_c, 1, 74, 127
2, 66040, Note_off_c, 1, 87, 0
2, 66040, Note_on_c, 1, 92, 127
2, 66040, Note_off_c, 1, 93, 0
2, 66040, Note_off_c, 1, 96, 0
2, 66040, Note_off_c, 1, 99, 0
2, 66080, Note_on_c, 1, 45, 127
2, 66080, Note_on_c, 1, 49, 127
2, 66080, Note_on_c, 1, 52, 127
2, 66080, Note_on_c, 1, 57, 127
2, 66080, Note_off_c, 1, 59, 0
2, 66080, Note_off_c, 1, 74, 0
2, 66080, Note_on_c, 1, 79, 127
2, 66080, Note_on_c, 1, 85, 127
2, 66080, Note_on_c, 1, 88, 127
2, 66080, Note_on_c, 1, 91, 127
2, 66080, Note_off_c, 1, 92, 0
2, 66120, Note_off_c, 1, 45, 0
2, 66120, Note_off_c, 1, 49, 0
2, 66120, Note_off_c, 1, 52, 0
2, 66120, Note_off_c, 1, 57, 0
2, 66120, Note_on_c, 1, 59, 127
2, 66120, Note_on_c, 1, 74, 127
2, 66120, Note_off_c, 1, 79, 0
2, 66120, Note_off_c, 1, 85, 0
2, 66120, Note_off_c, 1, 88, 0
2, 66120, Note_off_c, 1, 91, 0
2, 66120, Note_on_c, 1, 92, 127
2, 66160, Note_on_c, 1, 55, 127
2, 66160, Note_on_c, 1, 67, 127
2, 66160, Note_off_c, 1, 74, 0
2, 66160, Note_on_c, 1, 76, 127
2, 66160, Note_off_c, 1, 92, 0
2, 66200, Note_off_c, 1, 55, 0
2, 66200, Note_off_c, 1, 59, 0
2, 66200, Note_off_c, 1, 67, 0
2, 66200, Note_off_c, 1, 76, 0
2, 66200, Note_on_c, 1, 82, 127
2, 66200, Note_on_c, 1, 90, 127
2, 66240, Note_on_c, 1, 73, 127
2, 66240, Note_off_c, 1, 82, 0
2, 66240, Note_on_c, 1, 85, 127
2, 66240, Note_on_c, 1, 88, 127
2, 66240, Note_off_c, 1, 90, 0
2, 66240, Note_on_c, 1, 93, 127
2, 66240, Note_on_c, 1, 97, 127
2, 66280, Note_on_c, 1, 32, 127
2, 66280, Note_on_c, 1, 44, 127
2, 66280, Note_on_c, 1, 51, 127
2, 66280, Note_on_c, 1, 56, 127
2, 66280, Note_on_c, 1, 60, 127
2, 66280, Note_on_c, 1, 61, 127
2, 66280, Note_on_c, 1, 66, 127
2, 66280, Note_on_c, 1, 68, 127
2, 66280, Note_off_c, 1, 73, 0
2, 66280, Note_off_c, 1, 85, 0
2, 66280, Note_off_c, 1, 88, 0
2, 66280, Note_off_c, 1, 93, 0
2, 66280, Note_off_c, 1, 97, 0
2, 66320, Note_off_c, 1, 32, 0
2, 66320, Note_off_c, 1, 44, 0
2, 66320, Note_off_c, 1, 51, 0
2, 66320, Note_off_c, 1, 56, 0
2, 66320, Note_off_c, 1, 60, 0
2, 66320, Note_off_c, 1, 61, 0
2, 66320, Note_off_c, 1, 66, 0
2, 66320, Note_off_c, 1, 68, 0
2, 66360, Note_on_c, 1, 27, 127
2, 66360, Note_on_c, 1, 39, 127
2, 66360, Note_on_c, 1, 51, 127
2, 66360, Note_on_c, 1, 55, 127
2, 66360, Note_on_c, 1, 61, 127
2, 66360, Note_on_c, 1, 63, 127
2, 66920, Note_off_c, 1, 27, 0
2, 66920, Note_on_c, 1, 38, 127
2, 66920, Note_off_c, 1, 39, 0
2, 66920, Note_off_c, 1, 51, 0
2, 66920, Note_off_c, 1, 55, 0
2, 66920, Note_off_c, 1, 61, 0
2, 66920, Note_off_c, 1, 63, 0
2, 66960, Note_on_c, 1, 28, 127
2, 66960, Note_off_c, 1, 38, 0
2, 66960, Note_on_c, 1, 40, 127
2, 66960, Note_on_c, 1, 52, 127
2, 66960, Note_on_c, 1, 56, 127
2, 66960, Note_on_c, 1, 62, 127
2, 66960, Note_on_c, 1, 64, 127
2, 67400, Note_off_c, 1, 28, 0
2, 67400, Note_off_c, 1, 40, 0
2, 67400, Note_off_c, 1, 52, 0
2, 67400, Note_off_c, 1, 56, 0
2, 67400, Note_off_c, 1, 62, 0
2, 67400, Note_off_c, 1, 64, 0
2, 67440, Note_on_c, 1, 44, 127
2, 67440, Note_on_c, 1, 56, 127
2, 67440, Note_on_c, 1, 73, 127
2, 67480, Note_off_c, 1, 44, 0
2, 67480, Note_on_c, 1, 58, 127
2, 67480, Note_on_c, 1, 67, 127
2, 67480, Note_on_c, 1, 72, 127
2, 67480, Note_off_c, 1, 73, 0
2, 67880, Note_on_c, 1, 33, 127
2, 67880, Note_on_c, 1, 47, 127
2, 67880, Note_off_c, 1, 56, 0
2, 67880, Note_off_c, 1, 58, 0
2, 67880, Note_off_c, 1, 67, 0
2, 67880, Note_off_c, 1, 72, 0
2, 67920, Note_on_c, 1, 31, 127
2, 67920, Note_off_c, 1, 33, 0
2, 67920, Note_on_c, 1, 43, 127
2, 67920, Note_off_c, 1, 47, 0
2, 67920, Note_on_c, 1, 50, 127
2, 67920, Note_on_c, 1, 58, 127
2, 67920, Note_on_c, 1, 62, 127
2, 67920, Note_on_c, 1, 70, 127
2, 67920, Note_on_c, 1, 74, 127
2, 67920, Note_on_c, 1, 79, 127
2, 67920, Note_on_c, 1, 82, 127
2, 68120, Note_off_c, 1, 31, 0
2, 68120, Note_on_c, 1, 41, 127
2, 68120, Note_off_c, 1, 43, 0
2, 68120, Note_on_c, 1, 46, 127
2, 68120, Note_off_c, 1, 50, 0
2, 68120, Note_off_c, 1, 58, 0
2, 68120, Note_on_c, 1, 61, 127
2, 68120, Note_off_c, 1, 62, 0
2, 68120, Note_off_c, 1, 74, 0
2, 68120, Note_off_c, 1, 79, 0
2, 68120, Note_off_c, 1, 82, 0
2, 68160, Note_on_c, 1, 40, 127
2, 68160, Note_off_c, 1, 41, 0
2, 68160, Note_off_c, 1, 46, 0
2, 68160, Note_on_c, 1, 47, 127
2, 68160, Note_on_c, 1, 56, 127
2, 68160, Note_off_c, 1, 61, 0
2, 68160, Note_on_c, 1, 82, 127
2, 68200, Note_off_c, 1, 40, 0
2, 68200, Note_on_c, 1, 44, 127
2, 68200, Note_off_c, 1, 47, 0
2, 68200, Note_on_c, 1, 63, 127
2, 68200, Note_on_c, 1, 68, 127
2, 68200, Note_off_c, 1, 70, 0
2, 68200, Note_on_c, 1, 72, 127
2, 68200, Note_on_c, 1, 80, 127
2, 68200, Note_off_c, 1, 82, 0
2, 68240, Note_on_c, 1, 41, 127
2, 68240, Note_off_c, 1, 44, 0
2, 68240, Note_on_c, 1, 53, 127
2, 68240, Note_off_c, 1, 56, 0
2, 68240, Note_off_c, 1, 63, 0
2, 68240, Note_off_c, 1, 68, 0
2, 68240, Note_off_c, 1, 72, 0
2, 68240, Note_on_c, 1, 78, 127
2, 68240, Note_off_c, 1, 80, 0
2, 68240, Note_on_c, 1, 82, 127
2, 68240, Note_on_c, 1, 85, 127
2, 68240, Note_on_c, 1, 90, 127
2, 68280, Note_on_c, 1, 37, 127
2, 68280, Note_on_c, 1, 49, 127
2, 68280, Note_off_c, 1, 53, 0
2, 68280, Note_on_c, 1, 58, 127
2, 68280, Note_off_c, 1, 78, 0
2, 68280, Note_off_c, 1, 82, 0
2, 68280, Note_off_c, 1, 85, 0
2, 68280, Note_off_c, 1, 90, 0
2, 68320, Note_off_c, 1, 37, 0
2, 68320, Note_off_c, 1, 41, 0
2, 68320, Note_on_c, 1, 54, 127
2, 68320, Note_on_c, 1, 57, 127
2, 68320, Note_off_c, 1, 58, 0
2, 68320, Note_on_c, 1, 61, 127
2, 68320, Note_on_c, 1, 93, 127
2, 68360, Note_on_c, 1, 45, 127
2, 68360, Note_off_c, 1, 49, 0
2, 68360, Note_on_c, 1, 52, 127
2, 68360, Note_off_c, 1, 54, 0
2, 68360, Note_on_c, 1, 55, 127
2, 68360, Note_off_c, 1, 57, 0
2, 68360, Note_off_c, 1, 61, 0
2, 68360, Note_on_c, 1, 73, 127
2, 68360, Note_on_c, 1, 88, 127
2, 68360, Note_off_c, 1, 93, 0
2, 68400, Note_on_c, 1, 33, 127
2, 68400, Note_on_c, 1, 38, 127
2, 68400, Note_off_c, 1, 52, 0
2, 68400, Note_on_c, 1, 53, 127
2, 68400, Note_off_c, 1, 55, 0
2, 68400, Note_off_c, 1, 73, 0
2, 68400, Note_off_c, 1, 88, 0
2, 68440, Note_off_c, 1, 33, 0
2, 68440, Note_on_c, 1, 35, 127
2, 68440, Note_off_c, 1, 38, 0
2, 68440, Note_off_c, 1, 45, 0
2, 68440, Note_on_c, 1, 47, 127
2, 68440, Note_off_c, 1, 53, 0
2, 68440, Note_on_c, 1, 62, 127
2, 68440, Note_on_c, 1, 67, 127
2, 68440, Note_on_c, 1, 71, 127
2, 68440, Note_on_c, 1, 74, 127
2, 68480, Note_off_c, 1, 35, 0
2, 68480, Note_on_c, 1, 41, 127
2, 68480, Note_off_c, 1, 47, 0
2, 68480, Note_on_c, 1, 53, 127
2, 68480, Note_off_c, 1, 62, 0
2, 68480, Note_off_c, 1, 67, 0
2, 68480, Note_off_c, 1, 71, 0
2, 68480, Note_off_c, 1, 74, 0
2, 68480, Note_on_c, 1, 91, 127
2, 68480, Note_on_c, 1, 94, 127
2, 68480, Note_on_c, 1, 100, 127
2, 68520, Note_off_c, 1, 41, 0
2, 68520, Note_off_c, 1, 53, 0
2, 68520, Note_on_c, 1, 58, 127
2, 68520, Note_on_c, 1, 63, 127
2, 68520, Note_on_c, 1, 83, 127
2, 68520, Note_on_c, 1, 85, 127
2, 68520, Note_off_c, 1, 91, 0
2, 68520, Note_off_c, 1, 94, 0
2, 68520, Note_off_c, 1, 100, 0
2, 68560, Note_on_c, 1, 35, 127
2, 68560, Note_on_c, 1, 42, 127
2, 68560, Note_on_c, 1, 52, 127
2, 68560, Note_off_c, 1, 63, 0
2, 68560, Note_on_c, 1, 66, 127
2, 68560, Note_on_c, 1, 71, 127
2, 68560, Note_off_c, 1, 83, 0
2, 68560, Note_off_c, 1, 85, 0
2, 68600, Note_off_c, 1, 35, 0
2, 68600, Note_off_c, 1, 42, 0
2, 68600, Note_off_c, 1, 52, 0
2, 68600, Note_on_c, 1, 56, 127
2, 68600, Note_on_c, 1, 62, 127
2, 68600, Note_on_c, 1, 65, 127
2, 68600, Note_off_c, 1, 66, 0
2, 68600, Note_on_c, 1, 70, 127
2, 68600, Note_off_c, 1, 71, 0
2, 68600, Note_on_c, 1, 77, 127
2, 68600, Note_on_c, 1, 82, 127
2, 68640, Note_on_c, 1, 42, 127
2, 68640, Note_on_c, 1, 47, 127
2, 68640, Note_off_c, 1, 56, 0
2, 68640, Note_off_c, 1, 58, 0
2, 68640, Note_off_c, 1, 62, 0
2, 68640, Note_off_c, 1, 65, 0
2, 68640, Note_on_c, 1, 69, 127
2, 68640, Note_off_c, 1, 70, 0
2, 68640, Note_on_c, 1, 75, 127
2, 68640, Note_off_c, 1, 77, 0
2, 68640, Note_off_c, 1, 82, 0
2, 68680, Note_off_c, 1, 42, 0
2, 68680, Note_off_c, 1, 47, 0
2, 68680, Note_on_c, 1, 65, 127
2, 68680, Note_off_c, 1, 69, 0
2, 68680, Note_off_c, 1, 75, 0
2, 68680, Note_on_c, 1, 76, 127
2, 68680, Note_on_c, 1, 83, 127
2, 68680, Note_on_c, 1, 86, 127
2, 68680, Note_on_c, 1, 88, 127
2, 68720, Note_on_c, 1, 55, 127
2, 68720, Note_on_c, 1, 61, 127
2, 68720, Note_off_c, 1, 65, 0
2, 68720, Note_off_c, 1, 83, 0
2, 68720, Note_off_c, 1, 86, 0
2, 68720, Note_off_c, 1, 88, 0
2, 68760, Note_on_c, 1, 34, 127
2, 68760, Note_on_c, 1, 37, 127
2, 68760, Note_on_c, 1, 40, 127
2, 68760, Note_on_c, 1, 43, 127
2, 68760, Note_on_c, 1, 49, 127
2, 68760, Note_on_c, 1, 52, 127
2, 68760, Note_on_c, 1, 58, 127
2, 68760, Note_off_c, 1, 76, 0
2, 68800, Note_off_c, 1, 34, 0
2, 68800, Note_off_c, 1, 37, 0
2, 68800, Note_off_c, 1, 40, 0
2, 68800, Note_off_c, 1, 43, 0
2, 68800, Note_off_c, 1, 49, 0
2, 68800, Note_off_c, 1, 52, 0
2, 68800, Note_off_c, 1, 55, 0
2, 68800, Note_off_c, 1, 58, 0
2, 68800, Note_on_c, 1, 60, 127
2, 68800, Note_off_c, 1, 61, 0
2, 68800, Note_on_c, 1, 70, 127
2, 68800, Note_on_c, 1, 72, 127
2, 68800, Note_on_c, 1, 76, 127
2, 68800, Note_on_c, 1, 80, 127
2, 68840, Note_on_c, 1, 46, 127
2, 68840, Note_on_c, 1, 53, 127
2, 68840, Note_off_c, 1, 60, 0
2, 68840, Note_on_c, 1, 62, 127
2, 68840, Note_off_c, 1, 72, 0
2, 68840, Note_on_c, 1, 74, 127
2, 68840, Note_off_c, 1, 76, 0
2, 68840, Note_on_c, 1, 77, 127
2, 68840, Note_off_c, 1, 80, 0
2, 68880, Note_off_c, 1, 46, 0
2, 68880, Note_off_c, 1, 53, 0
2, 68880, Note_on_c, 1, 55, 127
2, 68880, Note_on_c, 1, 60, 127
2, 68880, Note_off_c, 1, 62, 0
2, 68880, Note_on_c, 1, 63, 127
2, 68880, Note_on_c, 1, 67, 127
2, 68880, Note_off_c, 1, 70, 0
2, 68880, Note_off_c, 1, 74, 0
2, 68880, Note_on_c, 1, 75, 127
2, 68880, Note_off_c, 1, 77, 0
2, 68880, Note_on_c, 1, 79, 127
2, 68880, Note_on_c, 1, 87, 127
2, 68920, Note_off_c, 1, 60, 0
2, 68920, Note_on_c, 1, 62, 127
2, 68920, Note_off_c, 1, 63, 0
2, 68920, Note_on_c, 1, 64, 127
2, 68920, Note_off_c, 1, 67, 0
2, 68920, Note_off_c, 1, 75, 0
2, 68920, Note_off_c, 1, 79, 0
2, 68920, Note_off_c, 1, 87, 0
2, 68920, Note_on_c, 1, 89, 127
2, 68960, Note_on_c, 1, 46, 127
2, 68960, Note_on_c, 1, 54, 127
2, 68960, Note_off_c, 1, 55, 0
2, 68960, Note_off_c, 1, 62, 0
2, 68960, Note_off_c, 1, 64, 0
2, 68960, Note_on_c, 1, 65, 127
2, 68960, Note_on_c, 1, 73, 127
2, 68960, Note_on_c, 1, 77, 127
2, 68960, Note_off_c, 1, 89, 0
2, 69000, Note_off_c, 1, 46, 0
2, 69000, Note_off_c, 1, 54, 0
2, 69000, Note_off_c, 1, 65, 0
2, 69000, Note_off_c, 1, 73, 0
2, 69000, Note_off_c, 1, 77, 0
2, 69040, Note_on_c, 1, 48, 127
2, 69040, Note_on_c, 1, 60, 127
2, 69040, Note_on_c, 1, 64, 127
2, 69040, Note_on_c, 1, 72, 127
2, 69560, Note_off_c, 1, 48, 0
2, 69560, Note_off_c, 1, 60, 0
2, 69560, Note_off_c, 1, 64, 0
2, 69560, Note_off_c, 1, 72, 0
2, 69600, Note_on_c, 1, 48, 127
2, 69600, Note_on_c, 1, 60, 127
2, 69600, Note_on_c, 1, 64, 127
2, 69600, Note_on_c, 1, 72, 127
2, 70200, Note_off_c, 1, 48, 0
2, 70200, Note_off_c, 1, 60, 0
2, 70200, Note_off_c, 1, 64, 0
2, 70200, Note_off_c, 1, 72, 0
2, 70240, Note_on_c, 1, 37, 127
2, 70240, Note_on_c, 1, 49, 127
2, 70240, Note_on_c, 1, 80, 127
2, 70240, Note_on_c, 1, 87, 127
2, 70280, Note_on_c, 1, 34, 127
2, 70280, Note_off_c, 1, 37, 0
2, 70280, Note_on_c, 1, 46, 127
2, 70280, Note_off_c, 1, 49, 0
2, 70280, Note_on_c, 1, 51, 127
2, 70280, Note_on_c, 1, 58, 127
2, 70280, Note_on_c, 1, 63, 127
2, 70280, Note_off_c, 1, 80, 0
2, 70280, Note_off_c, 1, 87, 0
2, 70320, Note_off_c, 1, 34, 0
2, 70320, Note_off_c, 1, 46, 0
2, 70320, Note_off_c, 1, 51, 0
2, 70320, Note_on_c, 1, 55, 127
2, 70320, Note_off_c, 1, 58, 0
2, 70320, Note_off_c, 1, 63, 0
2, 70320, Note_on_c, 1, 68, 127
2, 70320, Note_on_c, 1, 76, 127
2, 70320, Note_on_c, 1, 80, 127
2, 70360, Note_on_c, 1, 37, 127
2, 70360, Note_on_c, 1, 49, 127
2, 70360, Note_off_c, 1, 55, 0
2, 70360, Note_on_c, 1, 56, 127
2, 70360, Note_on_c, 1, 66, 127
2, 70360, Note_off_c, 1, 68, 0
2, 70360, Note_off_c, 1, 76, 0
2, 70360, Note_off_c, 1, 80, 0
2, 70400, Note_off_c, 1, 37, 0
2, 70400, Note_off_c, 1, 49, 0
2, 70400, Note_off_c, 1, 66, 0
2, 70400, Note_on_c, 1, 67, 127
2, 70400, Note_on_c, 1, 77, 127
2, 70400, Note_on_c, 1, 84, 127
2, 70440, Note_on_c, 1, 53, 127
2, 70440, Note_off_c, 1, 56, 0
2, 70440, Note_on_c, 1, 59, 127
2, 70440, Note_on_c, 1, 61, 127
2, 70440, Note_off_c, 1, 67, 0
2, 70440, Note_off_c, 1, 84, 0
2, 70480, Note_on_c, 1, 49, 127
2, 70480, Note_off_c, 1, 53, 0
2, 70480, Note_on_c, 1, 54, 127
2, 70480, Note_off_c, 1, 59, 0
2, 70480, Note_on_c, 1, 66, 127
2, 70520, Note_on_c, 1, 32, 127
2, 70520, Note_on_c, 1, 44, 127
2, 70520, Note_off_c, 1, 49, 0
2, 70520, Note_on_c, 1, 51, 127
2, 70520, Note_off_c, 1, 54, 0
2, 70520, Note_on_c, 1, 60, 127
2, 70520, Note_off_c, 1, 61, 0
2, 70520, Note_on_c, 1, 63, 127
2, 70520, Note_off_c, 1, 66, 0
2, 70520, Note_on_c, 1, 68, 127
2, 70520, Note_on_c, 1, 72, 127
2, 70520, Note_off_c, 1, 77, 0
2, 70760, Note_off_c, 1, 32, 0
2, 70800, Note_on_c, 1, 32, 127
2, 70920, Note_off_c, 1, 32, 0
2, 71400, Note_off_c, 1, 44, 0
2, 71400, Note_off_c, 1, 51, 0
2, 71400, Note_off_c, 1, 60, 0
2, 71400, Note_off_c, 1, 63, 0
2, 71400, Note_off_c, 1, 68, 0
2, 71400, Note_off_c, 1, 72, 0
2, 71440, Note_on_c, 1, 50, 127
2, 71440, Note_on_c, 1, 57, 127
2, 71440, Note_on_c, 1, 62, 127
2, 71440, Note_on_c, 1, 86, 127
2, 71440, Note_on_c, 1, 89, 127
2, 71440, Note_on_c, 1, 98, 127
2, 71480, Note_off_c, 1, 50, 0
2, 71480, Note_off_c, 1, 57, 0
2, 71480, Note_off_c, 1, 62, 0
2, 71480, Note_off_c, 1, 86, 0
2, 71480, Note_off_c, 1, 89, 0
2, 71480, Note_off_c, 1, 98, 0
2, 71520, Note_on_c, 1, 50, 127
2, 71520, Note_on_c, 1, 57, 127
2, 71520, Note_on_c, 1, 62, 127
2, 71520, Note_on_c, 1, 86, 127
2, 71520, Note_on_c, 1, 89, 127
2, 71520, Note_on_c, 1, 98, 127
2, 71560, Note_on_c, 1, 48, 127
2, 71560, Note_off_c, 1, 50, 0
2, 71560, Note_on_c, 1, 51, 127
2, 71560, Note_on_c, 1, 56, 127
2, 71560, Note_off_c, 1, 57, 0
2, 71560, Note_off_c, 1, 62, 0
2, 71560, Note_on_c, 1, 63, 127
2, 71560, Note_on_c, 1, 66, 127
2, 71560, Note_off_c, 1, 86, 0
2, 71560, Note_off_c, 1, 89, 0
2, 71560, Note_off_c, 1, 98, 0
2, 71600, Note_on_c, 1, 34, 127
2, 71600, Note_off_c, 1, 48, 0
2, 71600, Note_off_c, 1, 51, 0
2, 71600, Note_off_c, 1, 56, 0
2, 71600, Note_off_c, 1, 63, 0
2, 71600, Note_on_c, 1, 64, 127
2, 71600, Note_off_c, 1, 66, 0
2, 71600, Note_on_c, 1, 67, 127
2, 71600, Note_on_c, 1, 72, 127
2, 71640, Note_on_c, 1, 33, 127
2, 71640, Note_off_c, 1, 34, 0
2, 71640, Note_on_c, 1, 45, 127
2, 71640, Note_on_c, 1, 60, 127
2, 71640, Note_off_c, 1, 64, 0
2, 71680, Note_off_c, 1, 33, 0
2, 71680, Note_on_c, 1, 38, 127
2, 71680, Note_off_c, 1, 45, 0
2, 71680, Note_on_c, 1, 54, 127
2, 71680, Note_on_c, 1, 58, 127
2, 71680, Note_off_c, 1, 60, 0
2, 71680, Note_off_c, 1, 67, 0
2, 71680, Note_on_c, 1, 70, 127
2, 71680, Note_off_c, 1, 72, 0
2, 71720, Note_off_c, 1, 38, 0
2, 71720, Note_off_c, 1, 54, 0
2, 71720, Note_off_c, 1, 58, 0
2, 71720, Note_on_c, 1, 60, 127
2, 71720, Note_on_c, 1, 67, 127
2, 71720, Note_off_c, 1, 70, 0
2, 71720, Note_on_c, 1, 71, 127
2, 71720, Note_on_c, 1, 75, 127
2, 71760, Note_off_c, 1, 60, 0
2, 71760, Note_off_c, 1, 67, 0
2, 71760, Note_off_c, 1, 71, 0
2, 71760, Note_on_c, 1, 72, 127
2, 71760, Note_off_c, 1, 75, 0
2, 71760, Note_on_c, 1, 78, 127
2, 71760, Note_on_c, 1, 83, 127
2, 71760, Note_on_c, 1, 93, 127
2, 71800, Note_on_c, 1, 56, 127
2, 71800, Note_on_c, 1, 61, 127
2, 71800, Note_on_c, 1, 70, 127
2, 71800, Note_off_c, 1, 72, 0
2, 71800, Note_off_c, 1, 78, 0
2, 71800, Note_off_c, 1, 83, 0
2, 71800, Note_on_c, 1, 89, 127
2, 71800, Note_off_c, 1, 93, 0
2, 71840, Note_on_c, 1, 45, 127
2, 71840, Note_on_c, 1, 51, 127
2, 71840, Note_off_c, 1, 56, 0
2, 71840, Note_on_c, 1, 60, 127
2, 71840, Note_off_c, 1, 61, 0
2, 71840, Note_on_c, 1, 65, 127
2, 71840, Note_off_c, 1, 70, 0
2, 71840, Note_off_c, 1, 89, 0
2, 71880, Note_on_c, 1, 43, 127
2, 71880, Note_on_c, 1, 50, 127
2, 71880, Note_off_c, 1, 51, 0
2, 71880, Note_on_c, 1, 54, 127
2, 71880, Note_off_c, 1, 60, 0
2, 71880, Note_off_c, 1, 65, 0
2, 71880, Note_on_c, 1, 69, 127
2, 71920, Note_off_c, 1, 43, 0
2, 71920, Note_off_c, 1, 45, 0
2, 71920, Note_off_c, 1, 50, 0
2, 71920, Note_on_c, 1, 52, 127
2, 71920, Note_off_c, 1, 54, 0
2, 71920, Note_on_c, 1, 56, 127
2, 71920, Note_on_c, 1, 59, 127
2, 71920, Note_on_c, 1, 61, 127
2, 71920, Note_off_c, 1, 69, 0
2, 71920, Note_on_c, 1, 71, 127
2, 71920, Note_on_c, 1, 80, 127
2, 71960, Note_off_c, 1, 52, 0
2, 71960, Note_on_c, 1, 53, 127
2, 71960, Note_off_c, 1, 56, 0
2, 71960, Note_on_c, 1, 58, 127
2, 71960, Note_off_c, 1, 59, 0
2, 71960, Note_off_c, 1, 61, 0
2, 71960, Note_on_c, 1, 62, 127
2, 71960, Note_on_c, 1, 68, 127
2, 71960, Note_off_c, 1, 71, 0
2, 71960, Note_on_c, 1, 79, 127
2, 71960, Note_off_c, 1, 80, 0
2, 72000, Note_on_c, 1, 34, 127
2, 72000, Note_off_c, 1, 53, 0
2, 72000, Note_on_c, 1, 57, 127
2, 72000, Note_off_c, 1, 58, 0
2, 72000, Note_on_c, 1, 60, 127
2, 72000, Note_off_c, 1, 62, 0
2, 72000, Note_off_c, 1, 68, 0
2, 72000, Note_off_c, 1, 79, 0
2, 72040, Note_off_c, 1, 34, 0
2, 72040, Note_on_c, 1, 38, 127
2, 72040, Note_on_c, 1, 50, 127
2, 72040, Note_off_c, 1, 57, 0
2, 72040, Note_off_c, 1, 60, 0
2, 72040, Note_on_c, 1, 71, 127
2, 72040, Note_on_c, 1, 79, 127
2, 72080, Note_off_c, 1, 38, 0
2, 72080, Note_off_c, 1, 50, 0
2, 72080, Note_on_c, 1, 62, 127
2, 72080, Note_on_c, 1, 67, 127
2, 72080, Note_off_c, 1, 71, 0
2, 72080, Note_on_c, 1, 77, 127
2, 72080, Note_off_c, 1, 79, 0
2, 72080, Note_on_c, 1, 83, 127
2, 72120, Note_on_c, 1, 37, 127
2, 72120, Note_on_c, 1, 41, 127
2, 72120, Note_on_c, 1, 49, 127
2, 72120, Note_off_c, 1, 62, 0
2, 72120, Note_off_c, 1, 67, 0
2, 72120, Note_off_c, 1, 77, 0
2, 72120, Note_off_c, 1, 83, 0
2, 72160, Note_off_c, 1, 37, 0
2, 72160, Note_off_c, 1, 41, 0
2, 72160, Note_off_c, 1, 49, 0
2, 72160, Note_on_c, 1, 67, 127
2, 72160, Note_on_c, 1, 71, 127
2, 72160, Note_on_c, 1, 74, 127
2, 72160, Note_on_c, 1, 77, 127
2, 72160, Note_on_c, 1, 83, 127
2, 72160, Note_on_c, 1, 86, 127
2, 72200, Note_on_c, 1, 46, 127
2, 72200, Note_on_c, 1, 50, 127
2, 72200, Note_on_c, 1, 53, 127
2, 72200, Note_on_c, 1, 58, 127
2, 72200, Note_on_c, 1, 62, 127
2, 72200, Note_on_c, 1, 65, 127
2, 72200, Note_off_c, 1, 67, 0
2, 72200, Note_on_c, 1, 70, 127
2, 72200, Note_off_c, 1, 71, 0
2, 72200, Note_off_c, 1, 77, 0
2, 72200, Note_off_c, 1, 83, 0
2, 72200, Note_off_c, 1, 86, 0
2, 72240, Note_on_c, 1, 42, 127
2, 72240, Note_off_c, 1, 46, 0
2, 72240, Note_off_c, 1, 50, 0
2, 72240, Note_off_c, 1, 53, 0
2, 72240, Note_on_c, 1, 57, 127
2, 72240, Note_off_c, 1, 58, 0
2, 72240, Note_off_c, 1, 65, 0
2, 72240, Note_on_c, 1, 69, 127
2, 72240, Note_off_c, 1, 70, 0
2, 72280, Note_off_c, 1, 42, 0
2, 72280, Note_off_c, 1, 62, 0
2, 72280, Note_on_c, 1, 64, 127
2, 72280, Note_off_c, 1, 69, 0
2, 72280, Note_off_c, 1, 74, 0
2, 72280, Note_on_c, 1, 76, 127
2, 72280, Note_on_c, 1, 82, 127
2, 72320, Note_on_c, 1, 26, 127
2, 72320, Note_on_c, 1, 38, 127
2, 72320, Note_on_c, 1, 54, 127
2, 72320, Note_off_c, 1, 57, 0
2, 72320, Note_on_c, 1, 62, 127
2, 72320, Note_off_c, 1, 64, 0
2, 72320, Note_off_c, 1, 76, 0
2, 72320, Note_off_c, 1, 82, 0
2, 72320, Note_on_c, 1, 86, 127
2, 72360, Note_off_c, 1, 26, 0
2, 72360, Note_off_c, 1, 38, 0
2, 72360, Note_off_c, 1, 54, 0
2, 72360, Note_on_c, 1, 70, 127
2, 72360, Note_on_c, 1, 73, 127
2, 72360, Note_on_c, 1, 79, 127
2, 72360, Note_off_c, 1, 86, 0
2, 72400, Note_off_c, 1, 62, 0
2, 72400, Note_on_c, 1, 66, 127
2, 72400, Note_off_c, 1, 70, 0
2, 72400, Note_off_c, 1, 73, 0
2, 72400, Note_off_c, 1, 79, 0
2, 72400, Note_on_c, 1, 86, 127
2, 72400, Note_on_c, 1, 89, 127
2, 72440, Note_on_c, 1, 59, 127
2, 72440, Note_off_c, 1, 66, 0
2, 72440, Note_on_c, 1, 67, 127
2, 72440, Note_on_c, 1, 74, 127
2, 72440, Note_off_c, 1, 89, 0
2, 72480, Note_off_c, 1, 59, 0
2, 72480, Note_off_c, 1, 67, 0
2, 72480, Note_off_c, 1, 74, 0
2, 72480, Note_off_c, 1, 86, 0
2, 72480, Note_on_c, 1, 95, 127
2, 72480, Note_on_c, 1, 97, 127
2, 72480, Note_on_c, 1, 99, 127
2, 72480, Note_on_c, 1, 100, 127
2, 72520, Note_on_c, 1, 46, 127
2, 72520, Note_on_c, 1, 75, 127
2, 72520, Note_on_c, 1, 82, 127
2, 72520, Note_on_c, 1, 87, 127
2, 72520, Note_off_c, 1, 95, 0
2, 72520, Note_off_c, 1, 97, 0
2, 72520, Note_off_c, 1, 99, 0
2, 72520, Note_off_c, 1, 100, 0
2, 72560, Note_on_c, 1, 35, 127
2, 72560, Note_on_c, 1, 42, 127
2, 72560, Note_off_c, 1, 46, 0
2, 72560, Note_on_c, 1, 47, 127
2, 72560, Note_off_c, 1, 75, 0
2, 72560, Note_off_c, 1, 82, 0
2, 72560, Note_on_c, 1, 90, 127
2, 72560, Note_on_c, 1, 95, 127
2, 72560, Note_on_c, 1, 99, 127
2, 72600, Note_off_c, 1, 35, 0
2, 72600, Note_off_c, 1, 42, 0
2, 72600, Note_off_c, 1, 47, 0
2, 72600, Note_on_c, 1, 73, 127
2, 72600, Note_on_c, 1, 74, 127
2, 72600, Note_on_c, 1, 78, 127
2, 72600, Note_on_c, 1, 81, 127
2, 72600, Note_off_c, 1, 87, 0
2, 72600, Note_off_c, 1, 90, 0
2, 72600, Note_off_c, 1, 95, 0
2, 72600, Note_off_c, 1, 99, 0
2, 72640, Note_on_c, 1, 35, 127
2, 72640, Note_on_c, 1, 47, 127
2, 72640, Note_on_c, 1, 50, 127
2, 72640, Note_on_c, 1, 54, 127
2, 72640, Note_on_c, 1, 59, 127
2, 72640, Note_on_c, 1, 62, 127
2, 72640, Note_off_c, 1, 73, 0
2, 72640, Note_off_c, 1, 74, 0
2, 72640, Note_off_c, 1, 78, 0
2, 72640, Note_off_c, 1, 81, 0
2, 72680, Note_on_c, 1, 32, 127
2, 72680, Note_off_c, 1, 35, 0
2, 72680, Note_on_c, 1, 44, 127
2, 72680, Note_off_c, 1, 47, 0
2, 72680, Note_off_c, 1, 50, 0
2, 72680, Note_on_c, 1, 52, 127
2, 72680, Note_off_c, 1, 54, 0
2, 72680, Note_on_c, 1, 58, 127
2, 72680, Note_off_c, 1, 59, 0
2, 72680, Note_on_c, 1, 61, 127
2, 72680, Note_off_c, 1, 62, 0
2, 72720, Note_off_c, 1, 32, 0
2, 72720, Note_on_c, 1, 40, 127
2, 72720, Note_off_c, 1, 44, 0
2, 72720, Note_off_c, 1, 58, 0
2, 72720, Note_on_c, 1, 59, 127
2, 72720, Note_off_c, 1, 61, 0
2, 72720, Note_on_c, 1, 64, 127
2, 72720, Note_on_c, 1, 67, 127
2, 72720, Note_on_c, 1, 71, 127
2, 72720, Note_on_c, 1, 76, 127
2, 72720, Note_on_c, 1, 79, 127
2, 72720, Note_on_c, 1, 88, 127
2, 72760, Note_off_c, 1, 40, 0
2, 72760, Note_on_c, 1, 43, 127
2, 72760, Note_off_c, 1, 52, 0
2, 72760, Note_on_c, 1, 54, 127
2, 72760, Note_off_c, 1, 59, 0
2, 72760, Note_on_c, 1, 62, 127
2, 72760, Note_off_c, 1, 64, 0
2, 72760, Note_off_c, 1, 67, 0
2, 72760, Note_off_c, 1, 71, 0
2, 72760, Note_off_c, 1, 76, 0
2, 72760, Note_off_c, 1, 79, 0
2, 72760, Note_off_c, 1, 88, 0
2, 72800, Note_on_c, 1, 42, 127
2, 72800, Note_off_c, 1, 43, 0
2, 72800, Note_on_c, 1, 57, 127
2, 72800, Note_on_c, 1, 66, 127
2, 72840, Note_off_c, 1, 42, 0
2, 72840, Note_on_c, 1, 43, 127
2, 72840, Note_off_c, 1, 54, 0
2, 72840, Note_on_c, 1, 60, 127
2, 72840, Note_on_c, 1, 69, 127
2, 72840, Note_on_c, 1, 72, 127
2, 72880, Note_off_c, 1, 43, 0
2, 72880, Note_off_c, 1, 57, 0
2, 72880, Note_off_c, 1, 60, 0
2, 72880, Note_off_c, 1, 66, 0
2, 72880, Note_off_c, 1, 69, 0
2, 72880, Note_off_c, 1, 72, 0
2, 72880, Note_on_c, 1, 74, 127
2, 72880, Note_on_c, 1, 77, 127
2, 72920, Note_on_c, 1, 41, 127
2, 72920, Note_off_c, 1, 62, 0
2, 72920, Note_off_c, 1, 74, 0
2, 72920, Note_on_c, 1, 76, 127
2, 72920, Note_off_c, 1, 77, 0
2, 72920, Note_on_c, 1, 81, 127
2, 73160, Note_off_c, 1, 41, 0
2, 73160, Note_off_c, 1, 76, 0
2, 73160, Note_off_c, 1, 81, 0
2, 73200, Note_on_c, 1, 76, 127
2, 73200, Note_on_c, 1, 79, 127
2, 73520, Note_off_c, 1, 76, 0
2, 73520, Note_off_c, 1, 79, 0
2, 73560, Note_on_c, 1, 40, 127
2, 73560, Note_on_c, 1, 66, 127
2, 73560, Note_on_c, 1, 69, 127
2, 73560, Note_on_c, 1, 73, 127
2, 73560, Note_on_c, 1, 76, 127
2, 73920, Note_off_c, 1, 40, 0
2, 73920, Note_on_c, 1, 41, 127
2, 73920, Note_on_c, 1, 48, 127
2, 73920, Note_on_c, 1, 53, 127
2, 73920, Note_on_c, 1, 60, 127
2, 73920, Note_on_c, 1, 63, 127
2, 73920, Note_off_c, 1, 66, 0
2, 73920, Note_off_c, 1, 69, 0
2, 73920, Note_off_c, 1, 73, 0
2, 73920, Note_on_c, 1, 75, 127
2, 73920, Note_off_c, 1, 76, 0
2, 73920, Note_on_c, 1, 81, 127
2, 73920, Note_on_c, 1, 87, 127
2, 73960, Note_off_c, 1, 41, 0
2, 73960, Note_on_c, 1, 44, 127
2, 73960, Note_off_c, 1, 48, 0
2, 73960, Note_on_c, 1, 51, 127
2, 73960, Note_off_c, 1, 53, 0
2, 73960, Note_on_c, 1, 58, 127
2, 73960, Note_off_c, 1, 60, 0
2, 73960, Note_on_c, 1, 61, 127
2, 73960, Note_off_c, 1, 63, 0
2, 73960, Note_on_c, 1, 70, 127
2, 73960, Note_off_c, 1, 75, 0
2, 73960, Note_off_c, 1, 81, 0
2, 73960, Note_off_c, 1, 87, 0
2, 74000, Note_off_c, 1, 44, 0
2, 74000, Note_on_c, 1, 47, 127
2, 74000, Note_off_c, 1, 51, 0
2, 74000, Note_on_c, 1, 52, 127
2, 74000, Note_on_c, 1, 55, 127
2, 74000, Note_off_c, 1, 58, 0
2, 74000, Note_on_c, 1, 60, 127
2, 74000, Note_off_c, 1, 61, 0
2, 74000, Note_on_c, 1, 64, 127
2, 74000, Note_on_c, 1, 67, 127
2, 74000, Note_off_c, 1, 70, 0
2, 74000, Note_on_c, 1, 72, 127
2, 74040, Note_off_c, 1, 47, 0
2, 74040, Note_on_c, 1, 48, 127
2, 74040, Note_on_c, 1, 51, 127
2, 74040, Note_off_c, 1, 52, 0
2, 74040, Note_on_c, 1, 53, 127
2, 74040, Note_off_c, 1, 55, 0
2, 74040, Note_off_c, 1, 60, 0
2, 74040, Note_off_c, 1, 64, 0
2, 74040, Note_off_c, 1, 67, 0
2, 74040, Note_off_c, 1, 72, 0
2, 74080, Note_on_c, 1, 36, 127
2, 74080, Note_off_c, 1, 51, 0
2, 74080, Note_off_c, 1, 53, 0
2, 74080, Note_on_c, 1, 55, 127
2, 74080, Note_on_c, 1, 58, 127
2, 74080, Note_on_c, 1, 64, 127
2, 74080, Note_on_c, 1, 70, 127
2, 74080, Note_on_c, 1, 73, 127
2, 74120, Note_off_c, 1, 36, 0
2, 74120, Note_off_c, 1, 48, 0
2, 74120, Note_off_c, 1, 55, 0
2, 74120, Note_off_c, 1, 58, 0
2, 74120, Note_off_c, 1, 64, 0
2, 74120, Note_off_c, 1, 70, 0
2, 74120, Note_off_c, 1, 73, 0
2, 74160, Note_on_c, 1, 33, 127
2, 74160, Note_on_c, 1, 62, 127
2, 74160, Note_on_c, 1, 65, 127
2, 74160, Note_on_c, 1, 69, 127
2, 74320, Note_off_c, 1, 33, 0
2, 74320, Note_on_c, 1, 45, 127
2, 74320, Note_on_c, 1, 57, 127
2, 74320, Note_off_c, 1, 62, 0
2, 74320, Note_off_c, 1, 65, 0
2, 74320, Note_on_c, 1, 78, 127
2, 74360, Note_on_c, 1, 35, 127
2, 74360, Note_off_c, 1, 45, 0
2, 74360, Note_on_c, 1, 47, 127
2, 74360, Note_off_c, 1, 57, 0
2, 74360, Note_on_c, 1, 64, 127
2, 74360, Note_off_c, 1, 69, 0
2, 74360, Note_on_c, 1, 76, 127
2, 74360, Note_off_c, 1, 78, 0
2, 74400, Note_off_c, 1, 35, 0
2, 74400, Note_off_c, 1, 47, 0
2, 74400, Note_off_c, 1, 64, 0
2, 74400, Note_off_c, 1, 76, 0
2, 74440, Note_on_c, 1, 61, 127
2, 74440, Note_on_c, 1, 67, 127
2, 74440, Note_on_c, 1, 69, 127
2, 74440, Note_on_c, 1, 73, 127
2, 74440, Note_on_c, 1, 78, 127
2, 74440, Note_on_c, 1, 81, 127
2, 74480, Note_on_c, 1, 45, 127
2, 74480, Note_on_c, 1, 52, 127
2, 74480, Note_on_c, 1, 57, 127
2, 74480, Note_on_c, 1, 64, 127
2, 74480, Note_off_c, 1, 67, 0
2, 74480, Note_off_c, 1, 69, 0
2, 74480, Note_off_c, 1, 73, 0
2, 74480, Note_on_c, 1, 76, 127
2, 74480, Note_off_c, 1, 78, 0
2, 74480, Note_off_c, 1, 81, 0
2, 74480, Note_on_c, 1, 88, 127
2, 74520, Note_off_c, 1, 45, 0
2, 74520, Note_on_c, 1, 49, 127
2, 74520, Note_off_c, 1, 52, 0
2, 74520, Note_off_c, 1, 57, 0
2, 74520, Note_on_c, 1, 58, 127
2, 74520, Note_on_c, 1, 73, 127
2, 74520, Note_off_c, 1, 76, 0
2, 74520, Note_off_c, 1, 88, 0
2, 74560, Note_on_c, 1, 45, 127
2, 74560, Note_on_c, 1, 52, 127
2, 74560, Note_on_c, 1, 57, 127
2, 74560, Note_off_c, 1, 58, 0
2, 74560, Note_off_c, 1, 61, 0
2, 74560, Note_off_c, 1, 64, 0
2, 74560, Note_off_c, 1, 73, 0
2, 74560, Note_on_c, 1, 74, 127
2, 74600, Note_on_c, 1, 43, 127
2, 74600, Note_off_c, 1, 45, 0
2, 74600, Note_off_c, 1, 49, 0
2, 74600, Note_on_c, 1, 50, 127
2, 74600, Note_off_c, 1, 52, 0
2, 74600, Note_on_c, 1, 55, 127
2, 74600, Note_off_c, 1, 57, 0
2, 74600, Note_on_c, 1, 59, 127
2, 74600, Note_off_c, 1, 74, 0
2, 74600, Note_on_c, 1, 95, 127
2, 74640, Note_off_c, 1, 43, 0
2, 74640, Note_off_c, 1, 50, 0
2, 74640, Note_off_c, 1, 55, 0
2, 74640, Note_off_c, 1, 59, 0
2, 74640, Note_on_c, 1, 70, 127
2, 74640, Note_on_c, 1, 72, 127
2, 74640, Note_on_c, 1, 75, 127
2, 74640, Note_on_c, 1, 86, 127
2, 74640, Note_off_c, 1, 95, 0
2, 74680, Note_on_c, 1, 52, 127
2, 74680, Note_on_c, 1, 64, 127
2, 74680, Note_off_c, 1, 75, 0
2, 74680, Note_on_c, 1, 76, 127
2, 74680, Note_off_c, 1, 86, 0
2, 74720, Note_off_c, 1, 52, 0
2, 74720, Note_on_c, 1, 55, 127
2, 74720, Note_on_c, 1, 58, 127
2, 74720, Note_on_c, 1, 62, 127
2, 74720, Note_off_c, 1, 64, 0
2, 74720, Note_on_c, 1, 67, 127
2, 74720, Note_off_c, 1, 72, 0
2, 74720, Note_off_c, 1, 76, 0
2, 74760, Note_on_c, 1, 35, 127
2, 74760, Note_on_c, 1, 42, 127
2, 74760, Note_on_c, 1, 47, 127
2, 74760, Note_off_c, 1, 55, 0
2, 74760, Note_off_c, 1, 58, 0
2, 74760, Note_off_c, 1, 62, 0
2, 74760, Note_off_c, 1, 67, 0
2, 74760, Note_off_c, 1, 70, 0
2, 74760, Note_on_c, 1, 71, 127
2, 74760, Note_on_c, 1, 74, 127
2, 74760, Note_on_c, 1, 83, 127
2, 74920, Note_on_c, 1, 69, 127
2, 74920, Note_off_c, 1, 71, 0
2, 74920, Note_on_c, 1, 81, 127
2, 74920, Note_off_c, 1, 83, 0
2, 74960, Note_off_c, 1, 35, 0
2, 74960, Note_off_c, 1, 42, 0
2, 74960, Note_off_c, 1, 47, 0
2, 74960, Note_off_c, 1, 69, 0
2, 74960, Note_on_c, 1, 72, 127
2, 74960, Note_on_c, 1, 78, 127
2, 75000, Note_on_c, 1, 64, 127
2, 75000, Note_on_c, 1, 67, 127
2, 75000, Note_off_c, 1, 72, 0
2, 75000, Note_on_c, 1, 73, 127
2, 75000, Note_off_c, 1, 74, 0
2, 75000, Note_off_c, 1, 78, 0
2, 75000, Note_off_c, 1, 81, 0
2, 75000, Note_on_c, 1, 82, 127
2, 75000, Note_on_c, 1, 85, 127
2, 75000, Note_on_c, 1, 94, 127
2, 75040, Note_on_c, 1, 46, 127
2, 75040, Note_off_c, 1, 64, 0
2, 75040, Note_off_c, 1, 67, 0
2, 75040, Note_off_c, 1, 73, 0
2, 75040, Note_off_c, 1, 82, 0
2, 75040, Note_off_c, 1, 85, 0
2, 75040, Note_on_c, 1, 95, 127
2, 75080, Note_off_c, 1, 46, 0
2, 75080, Note_on_c, 1, 73, 127
2, 75080, Note_on_c, 1, 80, 127
2, 75080, Note_on_c, 1, 85, 127
2, 75080, Note_on_c, 1, 89, 127
2, 75080, Note_off_c, 1, 94, 0
2, 75080, Note_off_c, 1, 95, 0
2, 75080, Note_on_c, 1, 97, 127
2, 75080, Note_on_c, 1, 102, 127
2, 75120, Note_on_c, 1, 50, 127
2, 75120, Note_on_c, 1, 57, 127
2, 75120, Note_on_c, 1, 63, 127
2, 75120, Note_on_c, 1, 66, 127
2, 75120, Note_on_c, 1, 69, 127
2, 75120, Note_off_c, 1, 73, 0
2, 75120, Note_on_c, 1, 75, 127
2, 75120, Note_off_c, 1, 80, 0
2, 75120, Note_off_c, 1, 85, 0
2, 75120, Note_off_c, 1, 89, 0
2, 75120, Note_off_c, 1, 97, 0
2, 75120, Note_off_c, 1, 102, 0
2, 75160, Note_on_c, 1, 38, 127
2, 75160, Note_on_c, 1, 45, 127
2, 75160, Note_off_c, 1, 50, 0
2, 75160, Note_off_c, 1, 57, 0
2, 75160, Note_off_c, 1, 63, 0
2, 75160, Note_off_c, 1, 66, 0
2, 75160, Note_off_c, 1, 69, 0
2, 75160, Note_off_c, 1, 75, 0
2, 75200, Note_on_c, 1, 62, 127
2, 75200, Note_on_c, 1, 74, 127
2, 75320, Note_off_c, 1, 38, 0
2, 75320, Note_off_c, 1, 45, 0
2, 75320, Note_on_c, 1, 66, 127
2, 75320, Note_on_c, 1, 69, 127
2, 75320, Note_off_c, 1, 74, 0
2, 75360, Note_on_c, 1, 38, 127
2, 75360, Note_on_c, 1, 45, 127
2, 75360, Note_off_c, 1, 66, 0
2, 75360, Note_off_c, 1, 69, 0
2, 75360, Note_on_c, 1, 74, 127
2, 75560, Note_off_c, 1, 38, 0
2, 75560, Note_off_c, 1, 45, 0
2, 75560, Note_off_c, 1, 62, 0
2, 75560, Note_off_c, 1, 74, 0
2, 75600, Note_on_c, 1, 38, 127
2, 75600, Note_on_c, 1, 45, 127
2, 75600, Note_on_c, 1, 62, 127
2, 75600, Note_on_c, 1, 74, 127
2, 75640, Note_off_c, 1, 38, 0
2, 75640, Note_off_c, 1, 45, 0
2, 75640, Note_off_c, 1, 62, 0
2, 75640, Note_off_c, 1, 74, 0
2, 75680, Note_on_c, 1, 62, 127
2, 75680, Note_on_c, 1, 68, 127
2, 75680, Note_on_c, 1, 71, 127
2, 75920, Note_off_c, 1, 62, 0
2, 75920, Note_off_c, 1, 68, 0
2, 75920, Note_off_c, 1, 71, 0
2, 75960, Note_on_c, 1, 63, 127
2, 75960, Note_on_c, 1, 66, 127
2, 75960, Note_on_c, 1, 70, 127
2, 75960, Note_on_c, 1, 78, 127
2, 75960, Note_on_c, 1, 90, 127
2, 76120, Note_on_c, 1, 58, 127
2, 76120, Note_off_c, 1, 63, 0
2, 76120, Note_on_c, 1, 64, 127
2, 76120, Note_off_c, 1, 66, 0
2, 76120, Note_off_c, 1, 70, 0
2, 76120, Note_on_c, 1, 72, 127
2, 76120, Note_off_c, 1, 78, 0
2, 76120, Note_on_c, 1, 81, 127
2, 76120, Note_off_c, 1, 90, 0
2, 76160, Note_off_c, 1, 58, 0
2, 76160, Note_on_c, 1, 63, 127
2, 76160, Note_off_c, 1, 64, 0
2, 76160, Note_on_c, 1, 66, 127
2, 76160, Note_on_c, 1, 70, 127
2, 76160, Note_off_c, 1, 72, 0
2, 76160, Note_on_c, 1, 78, 127
2, 76160, Note_off_c, 1, 81, 0
2, 76160, Note_on_c, 1, 90, 127
2, 76200, Note_on_c, 1, 47, 127
2, 76200, Note_on_c, 1, 56, 127
2, 76200, Note_on_c, 1, 59, 127
2, 76200, Note_off_c, 1, 63, 0
2, 76200, Note_off_c, 1, 70, 0
2, 76200, Note_on_c, 1, 71, 127
2, 76200, Note_off_c, 1, 90, 0
2, 76240, Note_off_c, 1, 47, 0
2, 76240, Note_off_c, 1, 56, 0
2, 76240, Note_off_c, 1, 59, 0
2, 76240, Note_on_c, 1, 63, 127
2, 76240, Note_on_c, 1, 70, 127
2, 76240, Note_off_c, 1, 71, 0
2, 76240, Note_off_c, 1, 78, 0
2, 76280, Note_on_c, 1, 51, 127
2, 76280, Note_off_c, 1, 63, 0
2, 76280, Note_on_c, 1, 64, 127
2, 76280, Note_off_c, 1, 66, 0
2, 76280, Note_on_c, 1, 67, 127
2, 76280, Note_on_c, 1, 72, 127
2, 76560, Note_off_c, 1, 72, 0
2, 76600, Note_on_c, 1, 50, 127
2, 76600, Note_off_c, 1, 51, 0
2, 76600, Note_on_c, 1, 54, 127
2, 76600, Note_on_c, 1, 57, 127
2, 76600, Note_off_c, 1, 64, 0
2, 76600, Note_off_c, 1, 67, 0
2, 76600, Note_off_c, 1, 70, 0
2, 76600, Note_on_c, 1, 74, 127
2, 76600, Note_on_c, 1, 78, 127
2, 76640, Note_on_c, 1, 49, 127
2, 76640, Note_off_c, 1, 50, 0
2, 76640, Note_on_c, 1, 52, 127
2, 76640, Note_off_c, 1, 54, 0
2, 76640, Note_on_c, 1, 55, 127
2, 76640, Note_off_c, 1, 57, 0
2, 76640, Note_on_c, 1, 58, 127
2, 76640, Note_on_c, 1, 61, 127
2, 76640, Note_on_c, 1, 64, 127
2, 76640, Note_off_c, 1, 74, 0
2, 76640, Note_off_c, 1, 78, 0
2, 76680, Note_off_c, 1, 49, 0
2, 76680, Note_off_c, 1, 52, 0
2, 76680, Note_off_c, 1, 55, 0
2, 76680, Note_off_c, 1, 58, 0
2, 76680, Note_on_c, 1, 60, 127
2, 76680, Note_off_c, 1, 61, 0
2, 76680, Note_off_c, 1, 64, 0
2, 76680, Note_on_c, 1, 66, 127
2, 76680, Note_on_c, 1, 75, 127
2, 76680, Note_on_c, 1, 79, 127
2, 76720, Note_off_c, 1, 60, 0
2, 76720, Note_off_c, 1, 66, 0
2, 76720, Note_on_c, 1, 68, 127
2, 76720, Note_on_c, 1, 71, 127
2, 76720, Note_off_c, 1, 75, 0
2, 76720, Note_off_c, 1, 79, 0
2, 76720, Note_on_c, 1, 80, 127
2, 76720, Note_on_c, 1, 89, 127
2, 76760, Note_on_c, 1, 41, 127
2, 76760, Note_off_c, 1, 68, 0
2, 76760, Note_off_c, 1, 71, 0
2, 76760, Note_on_c, 1, 73, 127
2, 76760, Note_off_c, 1, 80, 0
2, 76760, Note_on_c, 1, 84, 127
2, 76760, Note_off_c, 1, 89, 0
2, 76800, Note_off_c, 1, 41, 0
2, 76800, Note_on_c, 1, 51, 127
2, 76800, Note_on_c, 1, 58, 127
2, 76800, Note_on_c, 1, 62, 127
2, 76800, Note_on_c, 1, 70, 127
2, 76800, Note_off_c, 1, 73, 0
2, 76800, Note_on_c, 1, 74, 127
2, 76800, Note_on_c, 1, 77, 127
2, 76800, Note_on_c, 1, 82, 127
2, 76800, Note_off_c, 1, 84, 0
2, 76840, Note_off_c, 1, 51, 0
2, 76840, Note_off_c, 1, 58, 0
2, 76840, Note_off_c, 1, 62, 0
2, 76840, Note_off_c, 1, 70, 0
2, 76840, Note_off_c, 1, 74, 0
2, 76840, Note_on_c, 1, 75, 127
2, 76840, Note_off_c, 1, 77, 0
2, 76840, Note_on_c, 1, 79, 127
2, 76840, Note_off_c, 1, 82, 0
2, 76840, Note_on_c, 1, 88, 127
2, 76880, Note_on_c, 1, 41, 127
2, 76880, Note_on_c, 1, 48, 127
2, 76880, Note_on_c, 1, 51, 127
2, 76880, Note_on_c, 1, 72, 127
2, 76880, Note_off_c, 1, 75, 0
2, 76880, Note_off_c, 1, 79, 0
2, 76880, Note_off_c, 1, 88, 0
2, 76920, Note_off_c, 1, 41, 0
2, 76920, Note_off_c, 1, 48, 0
2, 76920, Note_off_c, 1, 51, 0
2, 76920, Note_on_c, 1, 70, 127
2, 76920, Note_off_c, 1, 72, 0
2, 76920, Note_on_c, 1, 74, 127
2, 76920, Note_on_c, 1, 76, 127
2, 76960, Note_on_c, 1, 42, 127
2, 76960, Note_on_c, 1, 50, 127
2, 76960, Note_on_c, 1, 62, 127
2, 76960, Note_on_c, 1, 66, 127
2, 76960, Note_on_c, 1, 69, 127
2, 76960, Note_off_c, 1, 70, 0
2, 76960, Note_off_c, 1, 76, 0
2, 76960, Note_on_c, 1, 81, 127
2, 77000, Note_off_c, 1, 42, 0
2, 77000, Note_on_c, 1, 44, 127
2, 77000, Note_off_c, 1, 50, 0
2, 77000, Note_on_c, 1, 51, 127
2, 77000, Note_on_c, 1, 54, 127
2, 77000, Note_on_c, 1, 56, 127
2, 77000, Note_on_c, 1, 60, 127
2, 77000, Note_off_c, 1, 62, 0
2, 77000, Note_on_c, 1, 63, 127
2, 77000, Note_off_c, 1, 66, 0
2, 77000, Note_on_c, 1, 68, 127
2, 77000, Note_off_c, 1, 69, 0
2, 77000, Note_off_c, 1, 74, 0
2, 77000, Note_off_c, 1, 81, 0
2, 77040, Note_on_c, 1, 38, 127
2, 77040, Note_off_c, 1, 44, 0
2, 77040, Note_on_c, 1, 50, 127
2, 77040, Note_off_c, 1, 51, 0
2, 77040, Note_off_c, 1, 54, 0
2, 77040, Note_off_c, 1, 56, 0
2, 77040, Note_off_c, 1, 60, 0
2, 77040, Note_off_c, 1, 63, 0
2, 77040, Note_off_c, 1, 68, 0
2, 77040, Note_on_c, 1, 73, 127
2, 77040, Note_on_c, 1, 79, 127
2, 77040, Note_on_c, 1, 81, 127
2, 77080, Note_on_c, 1, 33, 127
2, 77080, Note_off_c, 1, 38, 0
2, 77080, Note_off_c, 1, 50, 0
2, 77080, Note_off_c, 1, 73, 0
2, 77080, Note_on_c, 1, 76, 127
2, 77080, Note_off_c, 1, 81, 0
2, 77080, Note_on_c, 1, 82, 127
2, 77120, Note_on_c, 1, 31, 127
2, 77120, Note_off_c, 1, 33, 0
2, 77120, Note_on_c, 1, 38, 127
2, 77120, Note_on_c, 1, 43, 127
2, 77120, Note_on_c, 1, 74, 127
2, 77120, Note_off_c, 1, 76, 0
2, 77120, Note_off_c, 1, 79, 0
2, 77120, Note_off_c, 1, 82, 0
2, 77120, Note_on_c, 1, 86, 127
2, 77160, Note_off_c, 1, 31, 0
2, 77160, Note_off_c, 1, 38, 0
2, 77160, Note_off_c, 1, 43, 0
2, 77160, Note_on_c, 1, 59, 127
2, 77160, Note_off_c, 1, 74, 0
2, 77160, Note_on_c, 1, 80, 127
2, 77160, Note_off_c, 1, 86, 0
2, 77160, Note_on_c, 1, 87, 127
2, 77160, Note_on_c, 1, 92, 127
2, 77200, Note_on_c, 1, 39, 127
2, 77200, Note_on_c, 1, 51, 127
2, 77200, Note_off_c, 1, 59, 0
2, 77200, Note_on_c, 1, 68, 127
2, 77200, Note_on_c, 1, 71, 127
2, 77200, Note_on_c, 1, 77, 127
2, 77200, Note_off_c, 1, 87, 0
2, 77200, Note_off_c, 1, 92, 0
2, 77240, Note_off_c, 1, 39, 0
2, 77240, Note_off_c, 1, 51, 0
2, 77240, Note_off_c, 1, 68, 0
2, 77240, Note_off_c, 1, 71, 0
2, 77240, Note_off_c, 1, 77, 0
2, 77240, Note_off_c, 1, 80, 0
2, 77280, Note_on_c, 1, 48, 127
2, 77280, Note_on_c, 1, 60, 127
2, 77360, Note_off_c, 1, 48, 0
2, 77360, Note_off_c, 1, 60, 0
2, 77400, Note_on_c, 1, 42, 127
2, 77400, Note_on_c, 1, 54, 127
2, 77400, Note_on_c, 1, 72, 127
2, 77400, Note_on_c, 1, 75, 127
2, 77560, Note_off_c, 1, 72, 0
2, 77560, Note_off_c, 1, 75, 0
2, 77600, Note_on_c, 1, 73, 127
2, 77680, Note_off_c, 1, 42, 0
2, 77680, Note_off_c, 1, 54, 0
2, 77680, Note_off_c, 1, 73, 0
2, 77720, Note_on_c, 1, 42, 127
2, 77720, Note_on_c, 1, 54, 127
2, 77720, Note_on_c, 1, 73, 127
2, 77840, Note_off_c, 1, 73, 0
2, 77880, Note_on_c, 1, 66, 127
2, 77880, Note_on_c, 1, 74, 127
2, 78000, Note_off_c, 1, 66, 0
2, 78000, Note_off_c, 1, 74, 0
2, 78040, Note_off_c, 1, 42, 0
2, 78040, Note_on_c, 1, 44, 127
2, 78040, Note_off_c, 1, 54, 0
2, 78040, Note_on_c, 1, 56, 127
2, 78040, Note_on_c, 1, 60, 127
2, 78040, Note_on_c, 1, 66, 127
2, 78040, Note_on_c, 1, 70, 127
2, 78160, Note_off_c, 1, 60, 0
2, 78160, Note_off_c, 1, 66, 0
2, 78160, Note_off_c, 1, 70, 0
2, 78200, Note_on_c, 1, 54, 127
2, 78440, Note_off_c, 1, 44, 0
2, 78440, Note_off_c, 1, 54, 0
2, 78440, Note_off_c, 1, 56, 0
2, 78440, Note_on_c, 1, 64, 127
2, 78440, Note_on_c, 1, 71, 127
2, 78440, Note_on_c, 1, 83, 127
2, 78440, Note_on_c, 1, 90, 127
2, 78480, Note_on_c, 1, 57, 127
2, 78480, Note_off_c, 1, 64, 0
2, 78480, Note_off_c, 1, 71, 0
2, 78480, Note_on_c, 1, 72, 127
2, 78480, Note_off_c, 1, 83, 0
2, 78480, Note_on_c, 1, 84, 127
2, 78480, Note_on_c, 1, 88, 127
2, 78480, Note_off_c, 1, 90, 0
2, 78520, Note_on_c, 1, 43, 127
2, 78520, Note_on_c, 1, 55, 127
2, 78520, Note_off_c, 1, 57, 0
2, 78520, Note_on_c, 1, 59, 127
2, 78520, Note_on_c, 1, 67, 127
2, 78520, Note_on_c, 1, 71, 127
2, 78520, Note_off_c, 1, 72, 0
2, 78520, Note_off_c, 1, 84, 0
2, 78520, Note_off_c, 1, 88, 0
2, 78560, Note_on_c, 1, 40, 127
2, 78560, Note_on_c, 1, 41, 127
2, 78560, Note_off_c, 1, 43, 0
2, 78560, Note_on_c, 1, 46, 127
2, 78560, Note_on_c, 1, 48, 127
2, 78560, Note_on_c, 1, 53, 127
2, 78560, Note_off_c, 1, 55, 0
2, 78560, Note_on_c, 1, 58, 127
2, 78560, Note_off_c, 1, 59, 0
2, 78560, Note_on_c, 1, 60, 127
2, 78560, Note_on_c, 1, 65, 127
2, 78560, Note_off_c, 1, 67, 0
2, 78560, Note_off_c, 1, 71, 0
2, 78600, Note_off_c, 1, 40, 0
2, 78600, Note_off_c, 1, 41, 0
2, 78600, Note_off_c, 1, 46, 0
2, 78600, Note_off_c, 1, 48, 0
2, 78600, Note_on_c, 1, 49, 127
2, 78600, Note_off_c, 1, 58, 0
2, 78600, Note_on_c, 1, 59, 127
2, 78600, Note_off_c, 1, 60, 0
2, 78600, Note_off_c, 1, 65, 0
2, 78600, Note_on_c, 1, 68, 127
2, 78600, Note_on_c, 1, 73, 127
2, 78640, Note_off_c, 1, 49, 0
2, 78640, Note_off_c, 1, 53, 0
2, 78640, Note_off_c, 1, 59, 0
2, 78640, Note_off_c, 1, 68, 0
2, 78640, Note_off_c, 1, 73, 0
2, 78640, Note_on_c, 1, 75, 127
2, 78640, Note_on_c, 1, 81, 127
2, 78640, Note_on_c, 1, 89, 127
2, 78760, Note_off_c, 1, 75, 0
2, 78760, Note_on_c, 1, 82, 127
2, 78760, Note_off_c, 1, 89, 0
2, 78760, Note_on_c, 1, 93, 127
2, 78760, Note_on_c, 1, 94, 127
2, 78800, Note_on_c, 1, 41, 127
2, 78800, Note_on_c, 1, 53, 127
2, 78800, Note_off_c, 1, 81, 0
2, 78800, Note_off_c, 1, 82, 0
2, 78800, Note_on_c, 1, 83, 127
2, 78800, Note_on_c, 1, 86, 127
2, 78800, Note_off_c, 1, 93, 0
2, 78800, Note_off_c, 1, 94, 0
2, 78800, Note_on_c, 1, 95, 127
2, 78840, Note_on_c, 1, 34, 127
2, 78840, Note_off_c, 1, 41, 0
2, 78840, Note_off_c, 1, 53, 0
2, 78840, Note_on_c, 1, 65, 127
2, 78840, Note_on_c, 1, 73, 127
2, 78840, Note_off_c, 1, 83, 0
2, 78840, Note_off_c, 1, 86, 0
2, 78840, Note_off_c, 1, 95, 0
2, 78880, Note_off_c, 1, 34, 0
2, 78880, Note_on_c, 1, 41, 127
2, 78880, Note_on_c, 1, 53, 127
2, 78880, Note_off_c, 1, 65, 0
2, 78880, Note_on_c, 1, 85, 127
2, 78920, Note_off_c, 1, 85, 0
2, 78960, Note_off_c, 1, 41, 0
2, 78960, Note_off_c, 1, 53, 0
2, 78960, Note_on_c, 1, 60, 127
2, 78960, Note_on_c, 1, 64, 127
2, 78960, Note_on_c, 1, 72, 127
2, 78960, Note_off_c, 1, 73, 0
2, 78960, Note_on_c, 1, 76, 127
2, 78960, Note_on_c, 1, 84, 127
2, 78960, Note_on_c, 1, 88, 127
2, 79240, Note_on_c, 1, 34, 127
2, 79240, Note_on_c, 1, 46, 127
2, 79240, Note_on_c, 1, 49, 127
2, 79240, Note_on_c, 1, 53, 127
2, 79240, Note_off_c, 1, 60, 0
2, 79240, Note_off_c, 1, 64, 0
2, 79240, Note_off_c, 1, 72, 0
2, 79240, Note_off_c, 1, 76, 0
2, 79240, Note_off_c, 1, 84, 0
2, 79240, Note_off_c, 1, 88, 0
2, 79280, Note_off_c, 1, 34, 0
2, 79280, Note_on_c, 1, 42, 127
2, 79280, Note_off_c, 1, 46, 0
2, 79280, Note_off_c, 1, 49, 0
2, 79280, Note_off_c, 1, 53, 0
2, 79280, Note_on_c, 1, 98, 127
2, 79320, Note_off_c, 1, 42, 0
2, 79320, Note_off_c, 1, 98, 0
2, 79360, Note_on_c, 1, 27, 127
2, 79360, Note_on_c, 1, 30, 127
2, 79360, Note_on_c, 1, 34, 127
2, 79360, Note_on_c, 1, 39, 127
2, 79360, Note_on_c, 1, 51, 127
2, 79360, Note_on_c, 1, 54, 127
2, 79360, Note_on_c, 1, 58, 127
2, 79360, Note_on_c, 1, 63, 127
2, 79680, Note_off_c, 1, 27, 0
2, 79680, Note_off_c, 1, 30, 0
2, 79680, Note_off_c, 1, 34, 0
2, 79680, Note_off_c, 1, 39, 0
2, 79680, Note_off_c, 1, 51, 0
2, 79680, Note_off_c, 1, 54, 0
2, 79680, Note_off_c, 1, 58, 0
2, 79680, Note_off_c, 1, 63, 0
2, 79720, Note_on_c, 1, 27, 127
2, 79720, Note_on_c, 1, 30, 127
2, 79720, Note_on_c, 1, 34, 127
2, 79720, Note_on_c, 1, 39, 127
2, 79720, Note_on_c, 1, 51, 127
2, 79720, Note_on_c, 1, 54, 127
2, 79720, Note_on_c, 1, 58, 127
2, 79720, Note_on_c, 1, 63, 127
2, 79760, Note_off_c, 1, 27, 0
2, 79760, Note_off_c, 1, 30, 0
2, 79760, Note_off_c, 1, 34, 0
2, 79760, Note_on_c, 1, 36, 127
2, 79760, Note_off_c, 1, 39, 0
2, 79760, Note_on_c, 1, 43, 127
2, 79760, Note_off_c, 1, 51, 0
2, 79760, Note_off_c, 1, 54, 0
2, 79760, Note_off_c, 1, 58, 0
2, 79760, Note_off_c, 1, 63, 0
2, 79760, Note_on_c, 1, 75, 127
2, 79760, Note_on_c, 1, 78, 127
2, 79760, Note_on_c, 1, 83, 127
2, 79800, Note_off_c, 1, 36, 0
2, 79800, Note_off_c, 1, 43, 0
2, 79800, Note_on_c, 1, 47, 127
2, 79800, Note_on_c, 1, 50, 127
2, 79800, Note_on_c, 1, 54, 127
2, 79800, Note_on_c, 1, 59, 127
2, 79800, Note_on_c, 1, 62, 127
2, 79800, Note_on_c, 1, 66, 127
2, 79800, Note_on_c, 1, 74, 127
2, 79800, Note_off_c, 1, 75, 0
2, 79800, Note_off_c, 1, 78, 0
2, 79800, Note_off_c, 1, 83, 0
2, 79840, Note_off_c, 1, 47, 0
2, 79840, Note_off_c, 1, 50, 0
2, 79840, Note_off_c, 1, 54, 0
2, 79840, Note_off_c, 1, 59, 0
2, 79840, Note_off_c, 1, 62, 0
2, 79840, Note_on_c, 1, 70, 127
2, 79840, Note_on_c, 1, 73, 127
2, 79840, Note_off_c, 1, 74, 0
2, 79840, Note_on_c, 1, 76, 127
2, 79840, Note_on_c, 1, 91, 127
2, 79880, Note_on_c, 1, 40, 127
2, 79880, Note_on_c, 1, 52, 127
2, 79880, Note_off_c, 1, 66, 0
2, 79880, Note_off_c, 1, 70, 0
2, 79880, Note_off_c, 1, 76, 0
2, 79880, Note_on_c, 1, 80, 127
2, 79880, Note_on_c, 1, 82, 127
2, 79880, Note_off_c, 1, 91, 0
2, 79920, Note_off_c, 1, 40, 0
2, 79920, Note_off_c, 1, 52, 0
2, 79920, Note_on_c, 1, 56, 127
2, 79920, Note_on_c, 1, 68, 127
2, 79920, Note_on_c, 1, 77, 127
2, 79920, Note_off_c, 1, 80, 0
2, 79920, Note_off_c, 1, 82, 0
2, 79920, Note_on_c, 1, 83, 127
2, 79960, Note_off_c, 1, 56, 0
2, 79960, Note_off_c, 1, 68, 0
2, 79960, Note_off_c, 1, 73, 0
2, 79960, Note_off_c, 1, 77, 0
2, 79960, Note_off_c, 1, 83, 0
2, 80000, Note_on_c, 1, 36, 127
2, 80000, Note_on_c, 1, 48, 127
2, 80000, Note_on_c, 1, 58, 127
2, 80000, Note_on_c, 1, 60, 127
2, 80000, Note_on_c, 1, 64, 127
2, 80000, Note_on_c, 1, 67, 127
2, 80400, Note_on_c, 1, 57, 127
2, 80400, Note_off_c, 1, 58, 0
2, 80400, Note_off_c, 1, 60, 0
2, 80400, Note_off_c, 1, 67, 0
2, 80440, Note_off_c, 1, 57, 0
2, 80440, Note_on_c, 1, 58, 127
2, 80440, Note_on_c, 1, 60, 127
2, 80440, Note_on_c, 1, 67, 127
2, 80520, Note_off_c, 1, 36, 0
2, 80520, Note_off_c, 1, 48, 0
2, 80520, Note_off_c, 1, 58, 0
2, 80520, Note_off_c, 1, 60, 0
2, 80520, Note_off_c, 1, 64, 0
2, 80520, Note_off_c, 1, 67, 0
2, 80560, Note_on_c, 1, 56, 127
2, 80560, Note_on_c, 1, 61, 127
2, 80560, Note_on_c, 1, 63, 127
2, 80560, Note_on_c, 1, 65, 127
2, 80600, Note_off_c, 1, 56, 0
2, 80600, Note_off_c, 1, 61, 0
2, 80600, Note_off_c, 1, 65, 0
2, 80600, Note_on_c, 1, 67, 127
2, 80600, Note_on_c, 1, 75, 127
2, 80600, Note_on_c, 1, 79, 127
2, 80600, Note_on_c, 1, 82, 127
2, 80600, Note_on_c, 1, 87, 127
2, 80640, Note_on_c, 1, 48, 127
2, 80640, Note_on_c, 1, 58, 127
2, 80640, Note_on_c, 1, 61, 127
2, 80640, Note_off_c, 1, 63, 0
2, 80640, Note_on_c, 1, 64, 127
2, 80640, Note_off_c, 1, 75, 0
2, 80640, Note_on_c, 1, 76, 127
2, 80640, Note_off_c, 1, 79, 0
2, 80640, Note_off_c, 1, 82, 0
2, 80640, Note_off_c, 1, 87, 0
2, 80680, Note_off_c, 1, 48, 0
2, 80680, Note_on_c, 1, 50, 127
2, 80680, Note_off_c, 1, 61, 0
2, 80680, Note_off_c, 1, 64, 0
2, 80680, Note_on_c, 1, 66, 127
2, 80680, Note_off_c, 1, 67, 0
2, 80680, Note_on_c, 1, 72, 127
2, 80680, Note_off_c, 1, 76, 0
2, 80720, Note_off_c, 1, 50, 0
2, 80720, Note_off_c, 1, 66, 0
2, 80720, Note_off_c, 1, 72, 0
2, 80720, Note_on_c, 1, 77, 127
2, 80720, Note_on_c, 1, 85, 127
2, 80720, Note_on_c, 1, 89, 127
2, 80760, Note_on_c, 1, 46, 127
2, 80760, Note_on_c, 1, 51, 127
2, 80760, Note_on_c, 1, 60, 127
2, 80760, Note_on_c, 1, 63, 127
2, 80760, Note_on_c, 1, 66, 127
2, 80760, Note_off_c, 1, 77, 0
2, 80760, Note_off_c, 1, 85, 0
2, 80760, Note_off_c, 1, 89, 0
2, 80800, Note_off_c, 1, 46, 0
2, 80800, Note_on_c, 1, 54, 127
2, 80800, Note_off_c, 1, 60, 0
2, 80800, Note_off_c, 1, 66, 0
2, 80800, Note_on_c, 1, 70, 127
2, 80800, Note_on_c, 1, 78, 127
2, 80800, Note_on_c, 1, 82, 127
2, 80840, Note_off_c, 1, 51, 0
2, 80840, Note_off_c, 1, 54, 0
2, 80840, Note_off_c, 1, 58, 0
2, 80840, Note_off_c, 1, 63, 0
2, 80840, Note_off_c, 1, 70, 0
2, 80840, Note_off_c, 1, 78, 0
2, 80840, Note_off_c, 1, 82, 0
2, 80880, Note_on_c, 1, 34, 127
2, 80880, Note_on_c, 1, 37, 127
2, 80880, Note_on_c, 1, 42, 127
2, 80880, Note_on_c, 1, 46, 127
2, 81120, Note_off_c, 1, 34, 0
2, 81120, Note_off_c, 1, 37, 0
2, 81120, Note_off_c, 1, 42, 0
2, 81120, Note_off_c, 1, 46, 0
2, 81160, Note_on_c, 1, 64, 127
2, 81160, Note_on_c, 1, 73, 127
2, 81160, Note_on_c, 1, 75, 127
2, 81160, Note_on_c, 1, 76, 127
2, 81160, Note_on_c, 1, 78, 127
2, 81160, Note_on_c, 1, 80, 127
2, 81200, Note_on_c, 1, 44, 127
2, 81200, Note_on_c, 1, 56, 127
2, 81200, Note_on_c, 1, 60, 127
2, 81200, Note_on_c, 1, 63, 127
2, 81200, Note_off_c, 1, 64, 0
2, 81200, Note_on_c, 1, 68, 127
2, 81200, Note_on_c, 1, 72, 127
2, 81200, Note_off_c, 1, 73, 0
2, 81200, Note_off_c, 1, 76, 0
2, 81200, Note_off_c, 1, 78, 0
2, 81240, Note_off_c, 1, 44, 0
2, 81240, Note_off_c, 1, 68, 0
2, 81240, Note_off_c, 1, 72, 0
2, 81240, Note_off_c, 1, 75, 0
2, 81240, Note_off_c, 1, 80, 0
2, 81240, Note_on_c, 1, 96, 127
2, 81280, Note_on_c, 1, 59, 127
2, 81280, Note_off_c, 1, 60, 0
2, 81280, Note_off_c, 1, 63, 0
2, 81280, Note_on_c, 1, 64, 127
2, 81280, Note_on_c, 1, 82, 127
2, 81280, Note_off_c, 1, 96, 0
2, 81320, Note_on_c, 1, 32, 127
2, 81320, Note_off_c, 1, 56, 0
2, 81320, Note_off_c, 1, 59, 0
2, 81320, Note_off_c, 1, 64, 0
2, 81320, Note_on_c, 1, 69, 127
2, 81320, Note_on_c, 1, 73, 127
2, 81320, Note_on_c, 1, 76, 127
2, 81320, Note_off_c, 1, 82, 0
2, 81360, Note_off_c, 1, 32, 0
2, 81360, Note_on_c, 1, 43, 127
2, 81360, Note_on_c, 1, 51, 127
2, 81360, Note_off_c, 1, 69, 0
2, 81360, Note_off_c, 1, 76, 0
2, 81360, Note_on_c, 1, 82, 127
2, 81400, Note_off_c, 1, 43, 0
2, 81400, Note_off_c, 1, 51, 0
2, 81400, Note_off_c, 1, 73, 0
2, 81400, Note_off_c, 1, 82, 0
2, 81440, Note_on_c, 1, 49, 127
2, 81440, Note_on_c, 1, 54, 127
2, 81440, Note_on_c, 1, 59, 127
2, 81440, Note_on_c, 1, 61, 127
2, 81440, Note_on_c, 1, 68, 127
2, 81600, Note_on_c, 1, 53, 127
2, 81600, Note_off_c, 1, 54, 0
2, 81640, Note_off_c, 1, 53, 0
2, 81640, Note_on_c, 1, 54, 127
2, 81720, Note_off_c, 1, 49, 0
2, 81720, Note_off_c, 1, 54, 0
2, 81720, Note_off_c, 1, 59, 0
2, 81720, Note_off_c, 1, 61, 0
2, 81720, Note_off_c, 1, 68, 0
2, 81760, Note_on_c, 1, 49, 127
2, 81760, Note_on_c, 1, 59, 127
2, 81760, Note_on_c, 1, 61, 127
2, 81760, Note_on_c, 1, 68, 127
2, 81800, Note_on_c, 1, 45, 127
2, 81800, Note_off_c, 1, 59, 0
2, 81800, Note_off_c, 1, 68, 0
2, 81800, Note_on_c, 1, 73, 127
2, 81840, Note_on_c, 1, 32, 127
2, 81840, Note_on_c, 1, 37, 127
2, 81840, Note_on_c, 1, 44, 127
2, 81840, Note_off_c, 1, 45, 0
2, 81840, Note_off_c, 1, 49, 0
2, 81840, Note_on_c, 1, 52, 127
2, 81840, Note_off_c, 1, 61, 0
2, 81840, Note_off_c, 1, 73, 0
2, 81880, Note_off_c, 1, 32, 0
2, 81880, Note_off_c, 1, 37, 0
2, 81880, Note_off_c, 1, 44, 0
2, 81880, Note_on_c, 1, 45, 127
2, 81880, Note_on_c, 1, 49, 127
2, 81880, Note_off_c, 1, 52, 0
2, 81880, Note_on_c, 1, 61, 127
2, 81880, Note_on_c, 1, 73, 127
2, 82040, Note_off_c, 1, 45, 0
2, 82040, Note_off_c, 1, 49, 0
2, 82040, Note_on_c, 1, 50, 127
2, 82040, Note_on_c, 1, 58, 127
2, 82040, Note_on_c, 1, 67, 127
2, 82040, Note_on_c, 1, 70, 127
2, 82040, Note_on_c, 1, 76, 127
2, 82080, Note_on_c, 1, 43, 127
2, 82080, Note_off_c, 1, 50, 0
2, 82080, Note_on_c, 1, 57, 127
2, 82080, Note_off_c, 1, 58, 0
2, 82080, Note_off_c, 1, 61, 0
2, 82080, Note_on_c, 1, 65, 127
2, 82080, Note_off_c, 1, 67, 0
2, 82080, Note_off_c, 1, 70, 0
2, 82080, Note_off_c, 1, 73, 0
2, 82080, Note_off_c, 1, 76, 0
2, 82080, Note_on_c, 1, 77, 127
2, 82200, Note_off_c, 1, 43, 0
2, 82200, Note_off_c, 1, 57, 0
2, 82200, Note_off_c, 1, 65, 0
2, 82200, Note_off_c, 1, 77, 0
2, 82240, Note_on_c, 1, 45, 127
2, 82240, Note_on_c, 1, 48, 127
2, 82240, Note_on_c, 1, 53, 127
2, 82240, Note_on_c, 1, 63, 127
2, 82280, Note_off_c, 1, 48, 0
2, 82800, Note_off_c, 1, 45, 0
2, 82800, Note_on_c, 1, 50, 127
2, 82800, Note_off_c, 1, 53, 0
2, 82800, Note_on_c, 1, 54, 127
2, 82800, Note_on_c, 1, 60, 127
2, 82800, Note_on_c, 1, 62, 127
2, 82800, Note_off_c, 1, 63, 0
2, 82840, Note_on_c, 1, 37, 127
2, 82840, Note_on_c, 1, 49, 127
2, 82840, Note_off_c, 1, 50, 0
2, 82840, Note_off_c, 1, 54, 0
2, 82840, Note_off_c, 1, 60, 0
2, 82840, Note_off_c, 1, 62, 0
2, 82840, Note_on_c, 1, 68, 127
2, 82840, Note_on_c, 1, 73, 127
2, 82840, Note_on_c, 1, 77, 127
2, 82840, Note_on_c, 1, 80, 127
2, 82880, Note_off_c, 1, 77, 0
2, 82880, Note_off_c, 1, 80, 0
2, 82920, Note_on_c, 1, 77, 127
2, 82920, Note_on_c, 1, 80, 127
2, 83080, Note_off_c, 1, 37, 0
2, 83080, Note_on_c, 1, 47, 127
2, 83080, Note_off_c, 1, 49, 0
2, 83080, Note_on_c, 1, 59, 127
2, 83080, Note_off_c, 1, 68, 0
2, 83080, Note_off_c, 1, 73, 0
2, 83080, Note_off_c, 1, 77, 0
2, 83080, Note_off_c, 1, 80, 0
2, 83080, Note_on_c, 1, 82, 127
2, 83120, Note_off_c, 1, 47, 0
2, 83120, Note_off_c, 1, 59, 0
2, 83120, Note_on_c, 1, 62, 127
2, 83120, Note_on_c, 1, 65, 127
2, 83120, Note_on_c, 1, 67, 127
2, 83120, Note_on_c, 1, 74, 127
2, 83120, Note_on_c, 1, 77, 127
2, 83120, Note_on_c, 1, 79, 127
2, 83120, Note_off_c, 1, 82, 0
2, 83240, Note_on_c, 1, 47, 127
2, 83240, Note_on_c, 1, 54, 127
2, 83240, Note_on_c, 1, 59, 127
2, 83240, Note_off_c, 1, 62, 0
2, 83240, Note_off_c, 1, 65, 0
2, 83240, Note_off_c, 1, 67, 0
2, 83240, Note_on_c, 1, 73, 127
2, 83240, Note_off_c, 1, 74, 0
2, 83240, Note_off_c, 1, 77, 0
2, 83240, Note_off_c, 1, 79, 0
2, 83280, Note_on_c, 1, 42, 127
2, 83280, Note_off_c, 1, 47, 0
2, 83280, Note_off_c, 1, 59, 0
2, 83280, Note_on_c, 1, 66, 127
2, 83280, Note_on_c, 1, 72, 127
2, 83280, Note_off_c, 1, 73, 0
2, 83280, Note_on_c, 1, 78, 127
2, 83280, Note_on_c, 1, 81, 127
2, 83320, Note_off_c, 1, 42, 0
2, 83320, Note_on_c, 1, 44, 127
2, 83320, Note_on_c, 1, 50, 127
2, 83320, Note_off_c, 1, 66, 0
2, 83320, Note_on_c, 1, 68, 127
2, 83320, Note_off_c, 1, 72, 0
2, 83320, Note_on_c, 1, 74, 127
2, 83320, Note_on_c, 1, 80, 127
2, 83320, Note_off_c, 1, 81, 0
2, 83360, Note_off_c, 1, 44, 0
2, 83360, Note_off_c, 1, 50, 0
2, 83360, Note_off_c, 1, 54, 0
2, 83360, Note_off_c, 1, 68, 0
2, 83360, Note_off_c, 1, 74, 0
2, 83360, Note_off_c, 1, 78, 0
2, 83360, Note_off_c, 1, 80, 0
2, 83400, Note_on_c, 1, 43, 127
2, 83400, Note_on_c, 1, 50, 127
2, 83400, Note_on_c, 1, 74, 127
2, 83400, Note_on_c, 1, 86, 127
2, 83640, Note_off_c, 1, 43, 0
2, 83640, Note_off_c, 1, 50, 0
2, 83640, Note_off_c, 1, 74, 0
2, 83640, Note_off_c, 1, 86, 0
2, 83680, Note_on_c, 1, 32, 127
2, 83680, Note_on_c, 1, 44, 127
2, 83680, Note_on_c, 1, 59, 127
2, 83680, Note_on_c, 1, 68, 127
2, 83720, Note_off_c, 1, 32, 0
2, 83720, Note_on_c, 1, 43, 127
2, 83720, Note_off_c, 1, 44, 0
2, 83720, Note_on_c, 1, 55, 127
2, 83720, Note_off_c, 1, 59, 0
2, 83720, Note_off_c, 1, 68, 0
2, 83720, Note_on_c, 1, 70, 127
2, 83720, Note_on_c, 1, 74, 127
2, 83720, Note_on_c, 1, 76, 127
2, 83720, Note_on_c, 1, 82, 127
2, 83760, Note_on_c, 1, 26, 127
2, 83760, Note_on_c, 1, 30, 127
2, 83760, Note_on_c, 1, 33, 127
2, 83760, Note_on_c, 1, 38, 127
2, 83760, Note_off_c, 1, 43, 0
2, 83760, Note_on_c, 1, 50, 127
2, 83760, Note_off_c, 1, 55, 0
2, 83760, Note_on_c, 1, 62, 127
2, 83760, Note_off_c, 1, 70, 0
2, 83760, Note_off_c, 1, 74, 0
2, 83760, Note_off_c, 1, 76, 0
2, 83760, Note_off_c, 1, 82, 0
2, 83800, Note_off_c, 1, 26, 0
2, 83800, Note_off_c, 1, 30, 0
2, 83800, Note_off_c, 1, 33, 0
2, 83800, Note_off_c, 1, 38, 0
2, 83800, Note_off_c, 1, 50, 0
2, 83800, Note_off_c, 1, 62, 0
2, 83800, Note_on_c, 1, 67, 127
2, 83800, Note_on_c, 1, 79, 127
2, 83800, Note_on_c, 1, 80, 127
2, 83840, Note_off_c, 1, 67, 0
2, 83840, Note_on_c, 1, 68, 127
2, 83840, Note_off_c, 1, 79, 0
2, 83840, Note_off_c, 1, 80, 0
2, 83840, Note_on_c, 1, 87, 127
2, 83840, Note_on_c, 1, 91, 127
2, 83880, Note_off_c, 1, 68, 0
2, 83880, Note_off_c, 1, 87, 0
2, 83880, Note_off_c, 1, 91, 0
2, 83960, Note_on_c, 1, 77, 127
2, 83960, Note_on_c, 1, 79, 127
2, 83960, Note_on_c, 1, 82, 127
2, 83960, Note_on_c, 1, 86, 127
2, 84000, Note_on_c, 1, 43, 127
2, 84000, Note_on_c, 1, 47, 127
2, 84000, Note_on_c, 1, 55, 127
2, 84000, Note_on_c, 1, 62, 127
2, 84000, Note_off_c, 1, 77, 0
2, 84000, Note_off_c, 1, 79, 0
2, 84000, Note_off_c, 1, 82, 0
2, 84000, Note_off_c, 1, 86, 0
2, 84040, Note_off_c, 1, 43, 0
2, 84040, Note_off_c, 1, 47, 0
2, 84040, Note_off_c, 1, 55, 0
2, 84040, Note_on_c, 1, 60, 127
2, 84040, Note_off_c, 1, 62, 0
2, 84040, Note_on_c, 1, 67, 127
2, 84040, Note_on_c, 1, 76, 127
2, 84040, Note_on_c, 1, 82, 127
2, 84040, Note_on_c, 1, 84, 127
2, 84080, Note_on_c, 1, 43, 127
2, 84080, Note_on_c, 1, 47, 127
2, 84080, Note_on_c, 1, 55, 127
2, 84080, Note_off_c, 1, 60, 0
2, 84080, Note_on_c, 1, 62, 127
2, 84080, Note_off_c, 1, 67, 0
2, 84080, Note_off_c, 1, 76, 0
2, 84080, Note_off_c, 1, 82, 0
2, 84080, Note_off_c, 1, 84, 0
2, 84120, Note_on_c, 1, 32, 127
2, 84120, Note_on_c, 1, 39, 127
2, 84120, Note_on_c, 1, 42, 127
2, 84120, Note_off_c, 1, 43, 0
2, 84120, Note_off_c, 1, 47, 0
2, 84120, Note_on_c, 1, 51, 127
2, 84120, Note_on_c, 1, 54, 127
2, 84120, Note_off_c, 1, 55, 0
2, 84120, Note_on_c, 1, 58, 127
2, 84120, Note_off_c, 1, 62, 0
2, 84160, Note_off_c, 1, 32, 0
2, 84160, Note_off_c, 1, 39, 0
2, 84160, Note_off_c, 1, 42, 0
2, 84160, Note_on_c, 1, 50, 127
2, 84160, Note_off_c, 1, 51, 0
2, 84160, Note_on_c, 1, 53, 127
2, 84160, Note_off_c, 1, 54, 0
2, 84160, Note_off_c, 1, 58, 0
2, 84160, Note_on_c, 1, 59, 127
2, 84160, Note_on_c, 1, 67, 127
2, 84200, Note_off_c, 1, 50, 0
2, 84200, Note_off_c, 1, 53, 0
2, 84200, Note_off_c, 1, 59, 0
2, 84200, Note_on_c, 1, 60, 127
2, 84200, Note_on_c, 1, 65, 127
2, 84200, Note_off_c, 1, 67, 0
2, 84200, Note_on_c, 1, 68, 127
2, 84200, Note_on_c, 1, 72, 127
2, 84240, Note_on_c, 1, 31, 127
2, 84240, Note_on_c, 1, 43, 127
2, 84240, Note_off_c, 1, 60, 0
2, 84240, Note_off_c, 1, 65, 0
2, 84240, Note_off_c, 1, 68, 0
2, 84240, Note_off_c, 1, 72, 0
2, 84240, Note_on_c, 1, 74, 127
2, 84240, Note_on_c, 1, 77, 127
2, 84240, Note_on_c, 1, 79, 127
2, 84240, Note_on_c, 1, 83, 127
2, 84240, Note_on_c, 1, 86, 127
2, 84280, Note_off_c, 1, 31, 0
2, 84280, Note_off_c, 1, 43, 0
2, 84280, Note_on_c, 1, 52, 127
2, 84280, Note_on_c, 1, 59, 127
2, 84280, Note_on_c, 1, 62, 127
2, 84280, Note_on_c, 1, 64, 127
2, 84280, Note_on_c, 1, 68, 127
2, 84280, Note_on_c, 1, 71, 127
2, 84280, Note_off_c, 1, 74, 0
2, 84280, Note_on_c, 1, 76, 127
2, 84280, Note_off_c, 1, 77, 0
2, 84280, Note_off_c, 1, 79, 0
2, 84280, Note_off_c, 1, 83, 0
2, 84280, Note_off_c, 1, 86, 0
2, 84320, Note_on_c, 1, 46, 127
2, 84320, Note_off_c, 1, 52, 0
2, 84320, Note_off_c, 1, 59, 0
2, 84320, Note_off_c, 1, 62, 0
2, 84320, Note_off_c, 1, 64, 0
2, 84320, Note_off_c, 1, 68, 0
2, 84320, Note_off_c, 1, 71, 0
2, 84320, Note_on_c, 1, 72, 127
2, 84320, Note_on_c, 1, 73, 127
2, 84320, Note_off_c, 1, 76, 0
2, 84320, Note_on_c, 1, 78, 127
2, 84320, Note_on_c, 1, 84, 127
2, 84360, Note_off_c, 1, 46, 0
2, 84360, Note_on_c, 1, 56, 127
2, 84360, Note_off_c, 1, 72, 0
2, 84360, Note_off_c, 1, 73, 0
2, 84360, Note_on_c, 1, 75, 127
2, 84360, Note_off_c, 1, 78, 0
2, 84360, Note_off_c, 1, 84, 0
2, 84360, Note_on_c, 1, 92, 127
2, 84360, Note_on_c, 1, 96, 127
2, 84400, Note_off_c, 1, 56, 0
2, 84400, Note_on_c, 1, 70, 127
2, 84400, Note_off_c, 1, 75, 0
2, 84400, Note_on_c, 1, 77, 127
2, 84400, Note_on_c, 1, 86, 127
2, 84400, Note_on_c, 1, 89, 127
2, 84400, Note_off_c, 1, 92, 0
2, 84400, Note_on_c, 1, 94, 127
2, 84400, Note_off_c, 1, 96, 0
2, 84480, Note_on_c, 1, 36, 127
2, 84480, Note_on_c, 1, 48, 127
2, 84480, Note_off_c, 1, 70, 0
2, 84480, Note_off_c, 1, 77, 0
2, 84480, Note_on_c, 1, 79, 127
2, 84480, Note_on_c, 1, 82, 127
2, 84480, Note_on_c, 1, 84, 127
2, 84480, Note_off_c, 1, 86, 0
2, 84480, Note_on_c, 1, 88, 127
2, 84480, Note_off_c, 1, 89, 0
2, 84480, Note_off_c, 1, 94, 0
2, 84520, Note_off_c, 1, 36, 0
2, 84520, Note_off_c, 1, 48, 0
2, 84520, Note_on_c, 1, 52, 127
2, 84520, Note_on_c, 1, 56, 127
2, 84520, Note_on_c, 1, 59, 127
2, 84520, Note_on_c, 1, 73, 127
2, 84520, Note_on_c, 1, 76, 127
2, 84520, Note_off_c, 1, 79, 0
2, 84520, Note_on_c, 1, 80, 127
2, 84520, Note_off_c, 1, 82, 0
2, 84520, Note_off_c, 1, 84, 0
2, 84520, Note_off_c, 1, 88, 0
2, 84560, Note_on_c, 1, 49, 127
2, 84560, Note_off_c, 1, 52, 0
2, 84560, Note_off_c, 1, 59, 0
2, 84560, Note_off_c, 1, 73, 0
2, 84560, Note_off_c, 1, 76, 0
2, 84560, Note_on_c, 1, 77, 127
2, 84560, Note_on_c, 1, 78, 127
2, 84560, Note_off_c, 1, 80, 0
2, 84600, Note_on_c, 1, 41, 127
2, 84600, Note_on_c, 1, 48, 127
2, 84600, Note_off_c, 1, 49, 0
2, 84600, Note_off_c, 1, 56, 0
2, 84600, Note_on_c, 1, 57, 127
2, 84600, Note_off_c, 1, 77, 0
2, 84600, Note_off_c, 1, 78, 0
2, 84600, Note_on_c, 1, 81, 127
2, 84600, Note_on_c, 1, 84, 127
2, 84600, Note_on_c, 1, 89, 127
2, 84600, Note_on_c, 1, 93, 127
2, 84640, Note_off_c, 1, 41, 0
2, 84640, Note_on_c, 1, 47, 127
2, 84640, Note_off_c, 1, 48, 0
2, 84640, Note_on_c, 1, 54, 127
2, 84640, Note_off_c, 1, 57, 0
2, 84640, Note_on_c, 1, 75, 127
2, 84640, Note_on_c, 1, 78, 127
2, 84640, Note_off_c, 1, 81, 0
2, 84640, Note_off_c, 1, 84, 0
2, 84640, Note_on_c, 1, 88, 127
2, 84640, Note_off_c, 1, 89, 0
2, 84640, Note_off_c, 1, 93, 0
2, 84680, Note_off_c, 1, 47, 0
2, 84680, Note_off_c, 1, 54, 0
2, 84680, Note_on_c, 1, 60, 127
2, 84680, Note_on_c, 1, 64, 127
2, 84680, Note_on_c, 1, 67, 127
2, 84680, Note_off_c, 1, 75, 0
2, 84680, Note_off_c, 1, 78, 0
2, 84680, Note_on_c, 1, 79, 127
2, 84680, Note_on_c, 1, 91, 127
2, 84720, Note_on_c, 1, 46, 127
2, 84720, Note_on_c, 1, 54, 127
2, 84720, Note_off_c, 1, 60, 0
2, 84720, Note_on_c, 1, 61, 127
2, 84720, Note_on_c, 1, 66, 127
2, 84720, Note_off_c, 1, 67, 0
2, 84720, Note_off_c, 1, 79, 0
2, 84720, Note_off_c, 1, 88, 0
2, 84720, Note_off_c, 1, 91, 0
2, 84760, Note_on_c, 1, 42, 127
2, 84760, Note_off_c, 1, 46, 0
2, 84760, Note_on_c, 1, 49, 127
2, 84760, Note_off_c, 1, 54, 0
2, 84760, Note_on_c, 1, 57, 127
2, 84760, Note_off_c, 1, 61, 0
2, 84760, Note_off_c, 1, 64, 0
2, 84800, Note_off_c, 1, 42, 0
2, 84800, Note_off_c, 1, 49, 0
2, 84800, Note_off_c, 1, 57, 0
2, 84800, Note_on_c, 1, 58, 127
2, 84800, Note_on_c, 1, 63, 127
2, 84800, Note_off_c, 1, 66, 0
2, 84800, Note_on_c, 1, 83, 127
2, 84840, Note_on_c, 1, 54, 127
2, 84840, Note_off_c, 1, 58, 0
2, 84840, Note_on_c, 1, 60, 127
2, 84840, Note_off_c, 1, 63, 0
2, 84840, Note_on_c, 1, 82, 127
2, 84840, Note_off_c, 1, 83, 0
2, 84840, Note_on_c, 1, 87, 127
2, 84840, Note_on_c, 1, 94, 127
2, 84880, Note_on_c, 1, 44, 127
2, 84880, Note_off_c, 1, 54, 0
2, 84880, Note_on_c, 1, 56, 127
2, 84880, Note_off_c, 1, 60, 0
2, 84880, Note_on_c, 1, 80, 127
2, 84880, Note_off_c, 1, 82, 0
2, 84880, Note_on_c, 1, 84, 127
2, 84880, Note_off_c, 1, 87, 0
2, 84880, Note_off_c, 1, 94, 0
2, 84920, Note_on_c, 1, 27, 127
2, 84920, Note_on_c, 1, 30, 127
2, 84920, Note_on_c, 1, 34, 127
2, 84920, Note_on_c, 1, 39, 127
2, 84920, Note_off_c, 1, 44, 0
2, 84920, Note_off_c, 1, 56, 0
2, 84920, Note_off_c, 1, 80, 0
2, 84920, Note_off_c, 1, 84, 0
2, 84960, Note_off_c, 1, 27, 0
2, 84960, Note_off_c, 1, 30, 0
2, 84960, Note_off_c, 1, 34, 0
2, 84960, Note_off_c, 1, 39, 0
2, 84960, Note_on_c, 1, 46, 127
2, 84960, Note_on_c, 1, 49, 127
2, 84960, Note_on_c, 1, 53, 127
2, 84960, Note_on_c, 1, 65, 127
2, 85000, Note_off_c, 1, 46, 0
2, 85000, Note_off_c, 1, 49, 0
2, 85000, Note_off_c, 1, 53, 0
2, 85000, Note_on_c, 1, 63, 127
2, 85000, Note_off_c, 1, 65, 0
2, 85000, Note_on_c, 1, 75, 127
2, 85000, Note_on_c, 1, 78, 127
2, 85000, Note_on_c, 1, 82, 127
2, 85040, Note_on_c, 1, 39, 127
2, 85040, Note_on_c, 1, 49, 127
2, 85040, Note_on_c, 1, 54, 127
2, 85040, Note_on_c, 1, 58, 127
2, 85040, Note_on_c, 1, 61, 127
2, 85040, Note_off_c, 1, 63, 0
2, 85040, Note_off_c, 1, 75, 0
2, 85040, Note_off_c, 1, 78, 0
2, 85040, Note_off_c, 1, 82, 0
2, 85080, Note_off_c, 1, 39, 0
2, 85080, Note_on_c, 1, 46, 127
2, 85080, Note_off_c, 1, 49, 0
2, 85080, Note_on_c, 1, 50, 127
2, 85080, Note_off_c, 1, 54, 0
2, 85080, Note_on_c, 1, 55, 127
2, 85080, Note_off_c, 1, 58, 0
2, 85080, Note_off_c, 1, 61, 0
2, 85080, Note_on_c, 1, 82, 127
2, 85120, Note_on_c, 1, 37, 127
2, 85120, Note_off_c, 1, 46, 0
2, 85120, Note_on_c, 1, 49, 127
2, 85120, Note_off_c, 1, 50, 0
2, 85120, Note_off_c, 1, 55, 0
2, 85120, Note_on_c, 1, 57, 127
2, 85120, Note_on_c, 1, 62, 127
2, 85120, Note_on_c, 1, 66, 127
2, 85120, Note_off_c, 1, 82, 0
2, 85160, Note_on_c, 1, 30, 127
2, 85160, Note_off_c, 1, 37, 0
2, 85160, Note_on_c, 1, 42, 127
2, 85160, Note_off_c, 1, 49, 0
2, 85160, Note_off_c, 1, 57, 0
2, 85160, Note_off_c, 1, 62, 0
2, 85160, Note_off_c, 1, 66, 0
2, 85160, Note_on_c, 1, 81, 127
2, 85160, Note_on_c, 1, 85, 127
2, 85160, Note_on_c, 1, 93, 127
2, 85200, Note_off_c, 1, 30, 0
2, 85200, Note_off_c, 1, 42, 0
2, 85200, Note_on_c, 1, 65, 127
2, 85200, Note_on_c, 1, 77, 127
2, 85200, Note_off_c, 1, 81, 0
2, 85200, Note_on_c, 1, 84, 127
2, 85200, Note_off_c, 1, 85, 0
2, 85200, Note_on_c, 1, 96, 127
2, 85240, Note_on_c, 1, 51, 127
2, 85240, Note_on_c, 1, 55, 127
2, 85240, Note_off_c, 1, 65, 0
2, 85240, Note_on_c, 1, 74, 127
2, 85240, Note_off_c, 1, 77, 0
2, 85240, Note_off_c, 1, 84, 0
2, 85240, Note_on_c, 1, 86, 127
2, 85240, Note_off_c, 1, 93, 0
2, 85240, Note_off_c, 1, 96, 0
2, 85280, Note_on_c, 1, 44, 127
2, 85280, Note_off_c, 1, 51, 0
2, 85280, Note_off_c, 1, 55, 0
2, 85280, Note_on_c, 1, 58, 127
2, 85280, Note_on_c, 1, 60, 127
2, 85280, Note_off_c, 1, 74, 0
2, 85280, Note_off_c, 1, 86, 0
2, 85320, Note_on_c, 1, 35, 127
2, 85320, Note_on_c, 1, 42, 127
2, 85320, Note_off_c, 1, 44, 0
2, 85320, Note_off_c, 1, 58, 0
2, 85320, Note_off_c, 1, 60, 0
2, 85320, Note_on_c, 1, 74, 127
2, 85320, Note_on_c, 1, 77, 127
2, 85320, Note_on_c, 1, 78, 127
2, 85320, Note_on_c, 1, 83, 127
2, 85360, Note_off_c, 1, 35, 0
2, 85360, Note_off_c, 1, 42, 0
2, 85360, Note_on_c, 1, 49, 127
2, 85360, Note_on_c, 1, 55, 127
2, 85360, Note_on_c, 1, 65, 127
2, 85360, Note_on_c, 1, 70, 127
2, 85360, Note_off_c, 1, 74, 0
2, 85360, Note_off_c, 1, 77, 0
2, 85360, Note_off_c, 1, 78, 0
2, 85360, Note_off_c, 1, 83, 0
2, 85400, Note_on_c, 1, 37, 127
2, 85400, Note_off_c, 1, 49, 0
2, 85400, Note_on_c, 1, 53, 127
2, 85400, Note_off_c, 1, 55, 0
2, 85400, Note_on_c, 1, 59, 127
2, 85400, Note_on_c, 1, 61, 127
2, 85400, Note_off_c, 1, 65, 0
2, 85400, Note_on_c, 1, 68, 127
2, 85400, Note_off_c, 1, 70, 0
2, 85440, Note_on_c, 1, 32, 127
2, 85440, Note_off_c, 1, 37, 0
2, 85440, Note_off_c, 1, 53, 0
2, 85440, Note_on_c, 1, 57, 127
2, 85440, Note_off_c, 1, 59, 0
2, 85440, Note_off_c, 1, 61, 0
2, 85440, Note_off_c, 1, 68, 0
2, 85440, Note_on_c, 1, 69, 127
2, 85480, Note_off_c, 1, 32, 0
2, 85480, Note_on_c, 1, 50, 127
2, 85480, Note_on_c, 1, 53, 127
2, 85480, Note_on_c, 1, 56, 127
2, 85480, Note_off_c, 1, 57, 0
2, 85480, Note_off_c, 1, 69, 0
2, 85480, Note_on_c, 1, 80, 127
2, 85520, Note_off_c, 1, 50, 0
2, 85520, Note_off_c, 1, 53, 0
2, 85520, Note_on_c, 1, 55, 127
2, 85520, Note_off_c, 1, 56, 0
2, 85520, Note_on_c, 1, 63, 127
2, 85520, Note_on_c, 1, 79, 127
2, 85520, Note_off_c, 1, 80, 0
2, 85520, Note_on_c, 1, 83, 127
2, 85520, Note_on_c, 1, 91, 127
2, 85560, Note_on_c, 1, 38, 127
2, 85560, Note_on_c, 1, 42, 127
2, 85560, Note_on_c, 1, 45, 127
2, 85560, Note_on_c, 1, 51, 127
2, 85560, Note_off_c, 1, 55, 0
2, 85560, Note_off_c, 1, 63, 0
2, 85560, Note_off_c, 1, 79, 0
2, 85560, Note_off_c, 1, 83, 0
2, 85560, Note_off_c, 1, 91, 0
2, 85600, Note_off_c, 1, 38, 0
2, 85600, Note_on_c, 1, 40, 127
2, 85600, Note_off_c, 1, 42, 0
2, 85600, Note_off_c, 1, 45, 0
2, 85600, Note_on_c, 1, 49, 127
2, 85600, Note_off_c, 1, 51, 0
2, 85600, Note_on_c, 1, 62, 127
2, 85600, Note_on_c, 1, 66, 127
2, 85640, Note_off_c, 1, 40, 0
2, 85640, Note_off_c, 1, 49, 0
2, 85640, Note_on_c, 1, 50, 127
2, 85640, Note_on_c, 1, 59, 127
2, 85640, Note_off_c, 1, 62, 0
2, 85640, Note_off_c, 1, 66, 0
2, 85640, Note_on_c, 1, 71, 127
2, 85640, Note_on_c, 1, 83, 127
2, 85680, Note_off_c, 1, 50, 0
2, 85680, Note_off_c, 1, 59, 0
2, 85680, Note_off_c, 1, 71, 0
2, 85680, Note_off_c, 1, 83, 0
2, 85720, Note_on_c, 1, 45, 127
2, 85720, Note_on_c, 1, 57, 127
2, 85720, Note_on_c, 1, 80, 127
2, 85720, Note_on_c, 1, 85, 127
2, 85720, Note_on_c, 1, 92, 127
2, 85760, Note_on_c, 1, 34, 127
2, 85760, Note_off_c, 1, 45, 0
2, 85760, Note_on_c, 1, 46, 127
2, 85760, Note_off_c, 1, 57, 0
2, 85760, Note_on_c, 1, 61, 127
2, 85760, Note_on_c, 1, 64, 127
2, 85760, Note_off_c, 1, 80, 0
2, 85760, Note_off_c, 1, 85, 0
2, 85760, Note_off_c, 1, 92, 0
2, 85800, Note_off_c, 1, 34, 0
2, 85800, Note_off_c, 1, 46, 0
2, 85800, Note_on_c, 1, 51, 127
2, 85800, Note_on_c, 1, 53, 127
2, 85800, Note_on_c, 1, 56, 127
2, 85800, Note_off_c, 1, 61, 0
2, 85800, Note_on_c, 1, 63, 127
2, 85800, Note_off_c, 1, 64, 0
2, 85800, Note_on_c, 1, 87, 127
2, 85840, Note_off_c, 1, 53, 0
2, 85840, Note_on_c, 1, 55, 127
2, 85840, Note_off_c, 1, 56, 0
2, 85840, Note_on_c, 1, 60, 127
2, 85840, Note_off_c, 1, 63, 0
2, 85880, Note_on_c, 1, 48, 127
2, 85880, Note_off_c, 1, 51, 0
2, 85880, Note_on_c, 1, 64, 127
2, 85880, Note_on_c, 1, 72, 127
2, 85880, Note_off_c, 1, 87, 0
2, 85880, Note_on_c, 1, 88, 127
2, 85920, Note_off_c, 1, 48, 0
2, 85920, Note_off_c, 1, 55, 0
2, 85920, Note_off_c, 1, 60, 0
2, 85920, Note_off_c, 1, 64, 0
2, 85920, Note_off_c, 1, 72, 0
2, 85920, Note_on_c, 1, 83, 127
2, 85920, Note_on_c, 1, 86, 127
2, 85920, Note_off_c, 1, 88, 0
2, 85920, Note_on_c, 1, 98, 127
2, 85920, Note_on_c, 1, 100, 127
2, 85960, Note_on_c, 1, 46, 127
2, 85960, Note_on_c, 1, 56, 127
2, 85960, Note_on_c, 1, 70, 127
2, 85960, Note_off_c, 1, 83, 0
2, 85960, Note_off_c, 1, 86, 0
2, 85960, Note_off_c, 1, 98, 0
2, 85960, Note_off_c, 1, 100, 0
2, 86000, Note_off_c, 1, 46, 0
2, 86000, Note_off_c, 1, 56, 0
2, 86000, Note_on_c, 1, 66, 127
2, 86000, Note_off_c, 1, 70, 0
2, 86000, Note_on_c, 1, 73, 127
2, 86000, Note_on_c, 1, 75, 127
2, 86000, Note_on_c, 1, 80, 127
2, 86040, Note_on_c, 1, 46, 127
2, 86040, Note_on_c, 1, 49, 127
2, 86040, Note_on_c, 1, 54, 127
2, 86040, Note_on_c, 1, 60, 127
2, 86040, Note_off_c, 1, 66, 0
2, 86040, Note_on_c, 1, 72, 127
2, 86040, Note_off_c, 1, 73, 0
2, 86040, Note_off_c, 1, 75, 0
2, 86040, Note_off_c, 1, 80, 0
2, 86080, Note_on_c, 1, 45, 127
2, 86080, Note_off_c, 1, 46, 0
2, 86080, Note_on_c, 1, 48, 127
2, 86080, Note_off_c, 1, 49, 0
2, 86080, Note_off_c, 1, 60, 0
2, 86080, Note_on_c, 1, 71, 127
2, 86080, Note_off_c, 1, 72, 0
2, 86120, Note_off_c, 1, 45, 0
2, 86120, Note_off_c, 1, 48, 0
2, 86120, Note_off_c, 1, 54, 0
2, 86120, Note_off_c, 1, 71, 0
2, 86160, Note_on_c, 1, 44, 127
2, 86160, Note_on_c, 1, 60, 127
2, 86160, Note_on_c, 1, 66, 127
2, 86160, Note_on_c, 1, 72, 127
2, 86400, Note_off_c, 1, 44, 0
2, 86400, Note_on_c, 1, 48, 127
2, 86400, Note_on_c, 1, 55, 127
2, 86400, Note_off_c, 1, 60, 0
2, 86400, Note_off_c, 1, 66, 0
2, 86400, Note_off_c, 1, 72, 0
2, 86400, Note_on_c, 1, 80, 127
2, 86440, Note_off_c, 1, 48, 0
2, 86440, Note_off_c, 1, 55, 0
2, 86440, Note_on_c, 1, 59, 127
2, 86440, Note_on_c, 1, 65, 127
2, 86440, Note_on_c, 1, 71, 127
2, 86440, Note_on_c, 1, 77, 127
2, 86440, Note_on_c, 1, 79, 127
2, 86440, Note_off_c, 1, 80, 0
2, 86440, Note_on_c, 1, 83, 127
2, 86480, Note_on_c, 1, 44, 127
2, 86480, Note_on_c, 1, 56, 127
2, 86480, Note_off_c, 1, 59, 0
2, 86480, Note_off_c, 1, 65, 0
2, 86480, Note_off_c, 1, 71, 0
2, 86480, Note_off_c, 1, 77, 0
2, 86480, Note_off_c, 1, 79, 0
2, 86480, Note_on_c, 1, 87, 127
2, 86480, Note_on_c, 1, 95, 127
2, 86520, Note_on_c, 1, 36, 127
2, 86520, Note_off_c, 1, 44, 0
2, 86520, Note_off_c, 1, 56, 0
2, 86520, Note_on_c, 1, 65, 127
2, 86520, Note_on_c, 1, 70, 127
2, 86520, Note_on_c, 1, 74, 127
2, 86520, Note_off_c, 1, 83, 0
2, 86520, Note_off_c, 1, 87, 0
2, 86520, Note_off_c, 1, 95, 0
2, 86560, Note_off_c, 1, 36, 0
2, 86560, Note_off_c, 1, 65, 0
2, 86560, Note_off_c, 1, 70, 0
2, 86560, Note_off_c, 1, 74, 0
2, 86600, Note_on_c, 1, 35, 127
2, 86600, Note_on_c, 1, 51, 127
2, 86600, Note_on_c, 1, 54, 127
2, 86600, Note_on_c, 1, 59, 127
2, 86600, Note_on_c, 1, 63, 127
2, 86640, Note_off_c, 1, 35, 0
2, 86640, Note_on_c, 1, 47, 127
2, 86640, Note_off_c, 1, 51, 0
2, 86640, Note_off_c, 1, 54, 0
2, 86640, Note_off_c, 1, 59, 0
2, 86640, Note_on_c, 1, 78, 127
2, 86640, Note_on_c, 1, 88, 127
2, 86680, Note_off_c, 1, 47, 0
2, 86680, Note_on_c, 1, 50, 127
2, 86680, Note_on_c, 1, 57, 127
2, 86680, Note_on_c, 1, 60, 127
2, 86680, Note_off_c, 1, 63, 0
2, 86680, Note_on_c, 1, 67, 127
2, 86680, Note_off_c, 1, 78, 0
2, 86680, Note_on_c, 1, 86, 127
2, 86680, Note_off_c, 1, 88, 0
2, 86720, Note_on_c, 1, 43, 127
2, 86720, Note_off_c, 1, 50, 0
2, 86720, Note_off_c, 1, 57, 0
2, 86720, Note_off_c, 1, 60, 0
2, 86720, Note_off_c, 1, 67, 0
2, 86720, Note_on_c, 1, 84, 127
2, 86720, Note_off_c, 1, 86, 0
2, 86720, Note_on_c, 1, 87, 127
2, 86760, Note_off_c, 1, 43, 0
2, 86760, Note_on_c, 1, 55, 127
2, 86760, Note_on_c, 1, 67, 127
2, 86760, Note_on_c, 1, 79, 127
2, 86760, Note_off_c, 1, 84, 0
2, 86760, Note_on_c, 1, 86, 127
2, 86760, Note_off_c, 1, 87, 0
2, 86800, Note_on_c, 1, 50, 127
2, 86800, Note_on_c, 1, 53, 127
2, 86800, Note_off_c, 1, 55, 0
2, 86800, Note_on_c, 1, 57, 127
2, 86800, Note_on_c, 1, 62, 127
2, 86800, Note_off_c, 1, 67, 0
2, 86800, Note_on_c, 1, 74, 127
2, 86800, Note_on_c, 1, 77, 127
2, 86800, Note_off_c, 1, 79, 0
2, 86800, Note_on_c, 1, 81, 127
2, 86840, Note_off_c, 1, 50, 0
2, 86840, Note_off_c, 1, 53, 0
2, 86840, Note_off_c, 1, 57, 0
2, 86840, Note_off_c, 1, 62, 0
2, 86840, Note_off_c, 1, 74, 0
2, 86840, Note_off_c, 1, 77, 0
2, 86840, Note_off_c, 1, 81, 0
2, 86840, Note_off_c, 1, 86, 0
2, 86880, Note_on_c, 1, 38, 127
2, 86880, Note_on_c, 1, 52, 127
2, 86880, Note_on_c, 1, 57, 127
2, 86880, Note_on_c, 1, 76, 127
2, 87160, Note_off_c, 1, 38, 0
2, 87160, Note_off_c, 1, 52, 0
2, 87160, Note_on_c, 1, 62, 127
2, 87160, Note_on_c, 1, 67, 127
2, 87160, Note_on_c, 1, 72, 127
2, 87160, Note_off_c, 1, 76, 0
2, 87200, Note_off_c, 1, 57, 0
2, 87200, Note_on_c, 1, 58, 127
2, 87200, Note_off_c, 1, 62, 0
2, 87200, Note_off_c, 1, 72, 0
2, 87200, Note_on_c, 1, 82, 127
2, 87200, Note_on_c, 1, 94, 127
2, 87240, Note_on_c, 1, 44, 127
2, 87240, Note_on_c, 1, 48, 127
2, 87240, Note_on_c, 1, 53, 127
2, 87240, Note_off_c, 1, 58, 0
2, 87240, Note_off_c, 1, 67, 0
2, 87240, Note_on_c, 1, 72, 127
2, 87240, Note_off_c, 1, 82, 0
2, 87240, Note_off_c, 1, 94, 0
2, 87280, Note_off_c, 1, 44, 0
2, 87280, Note_off_c, 1, 48, 0
2, 87280, Note_on_c, 1, 50, 127
2, 87280, Note_off_c, 1, 53, 0
2, 87280, Note_off_c, 1, 72, 0
2, 87280, Note_on_c, 1, 76, 127
2, 87280, Note_on_c, 1, 81, 127
2, 87320, Note_off_c, 1, 50, 0
2, 87320, Note_on_c, 1, 59, 127
2, 87320, Note_on_c, 1, 74, 127
2, 87320, Note_off_c, 1, 76, 0
2, 87320, Note_on_c, 1, 77, 127
2, 87320, Note_on_c, 1, 79, 127
2, 87320, Note_off_c, 1, 81, 0
2, 87320, Note_on_c, 1, 89, 127
2, 87360, Note_on_c, 1, 51, 127
2, 87360, Note_on_c, 1, 58, 127
2, 87360, Note_off_c, 1, 59, 0
2, 87360, Note_on_c, 1, 61, 127
2, 87360, Note_on_c, 1, 67, 127
2, 87360, Note_on_c, 1, 73, 127
2, 87360, Note_off_c, 1, 74, 0
2, 87360, Note_off_c, 1, 79, 0
2, 87360, Note_off_c, 1, 89, 0
2, 87400, Note_on_c, 1, 48, 127
2, 87400, Note_off_c, 1, 51, 0
2, 87400, Note_on_c, 1, 55, 127
2, 87400, Note_off_c, 1, 61, 0
2, 87400, Note_on_c, 1, 64, 127
2, 87400, Note_off_c, 1, 67, 0
2, 87400, Note_on_c, 1, 72, 127
2, 87400, Note_off_c, 1, 73, 0
2, 87400, Note_on_c, 1, 76, 127
2, 87400, Note_off_c, 1, 77, 0
2, 87440, Note_off_c, 1, 48, 0
2, 87440, Note_off_c, 1, 55, 0
2, 87440, Note_on_c, 1, 56, 127
2, 87440, Note_off_c, 1, 58, 0
2, 87440, Note_off_c, 1, 64, 0
2, 87440, Note_off_c, 1, 72, 0
2, 87440, Note_on_c, 1, 73, 127
2, 87440, Note_off_c, 1, 76, 0
2, 87480, Note_on_c, 1, 50, 127
2, 87480, Note_on_c, 1, 54, 127
2, 87480, Note_off_c, 1, 56, 0
2, 87480, Note_on_c, 1, 57, 127
2, 87480, Note_on_c, 1, 62, 127
2, 87480, Note_on_c, 1, 69, 127
2, 87480, Note_off_c, 1, 73, 0
2, 87600, Note_off_c, 1, 50, 0
2, 87600, Note_off_c, 1, 54, 0
2, 87600, Note_off_c, 1, 57, 0
2, 87600, Note_off_c, 1, 62, 0
2, 87600, Note_off_c, 1, 69, 0
2, 87640, Note_on_c, 1, 50, 127
2, 87640, Note_on_c, 1, 54, 127
2, 87640, Note_on_c, 1, 57, 127
2, 87640, Note_on_c, 1, 62, 127
2, 87640, Note_on_c, 1, 69, 127
2, 87680, Note_off_c, 1, 50, 0
2, 87680, Note_on_c, 1, 66, 127
2, 87680, Note_on_c, 1, 74, 127
2, 87720, Note_off_c, 1, 54, 0
2, 87720, Note_off_c, 1, 57, 0
2, 87720, Note_off_c, 1, 62, 0
2, 87720, Note_on_c, 1, 64, 127
2, 87720, Note_off_c, 1, 66, 0
2, 87720, Note_on_c, 1, 67, 127
2, 87760, Note_on_c, 1, 38, 127
2, 87760, Note_on_c, 1, 42, 127
2, 87760, Note_on_c, 1, 50, 127
2, 87760, Note_off_c, 1, 64, 0
2, 87760, Note_off_c, 1, 67, 0
2, 87760, Note_off_c, 1, 69, 0
2, 87760, Note_off_c, 1, 74, 0
2, 87760, Note_on_c, 1, 78, 127
2, 87760, Note_on_c, 1, 81, 127
2, 87760, Note_on_c, 1, 86, 127
2, 87760, Note_on_c, 1, 90, 127
2, 87800, Note_off_c, 1, 38, 0
2, 87800, Note_off_c, 1, 42, 0
2, 87800, Note_off_c, 1, 50, 0
2, 87800, Note_on_c, 1, 56, 127
2, 87800, Note_on_c, 1, 59, 127
2, 87800, Note_on_c, 1, 62, 127
2, 87800, Note_on_c, 1, 64, 127
2, 87800, Note_on_c, 1, 71, 127
2, 87800, Note_on_c, 1, 74, 127
2, 87800, Note_off_c, 1, 78, 0
2, 87800, Note_off_c, 1, 81, 0
2, 87800, Note_off_c, 1, 86, 0
2, 87800, Note_off_c, 1, 90, 0
2, 87840, Note_off_c, 1, 56, 0
2, 87840, Note_on_c, 1, 57, 127
2, 87840, Note_off_c, 1, 59, 0
2, 87840, Note_on_c, 1, 60, 127
2, 87840, Note_off_c, 1, 62, 0
2, 87840, Note_off_c, 1, 71, 0
2, 87840, Note_off_c, 1, 74, 0
2, 87840, Note_on_c, 1, 80, 127
2, 87880, Note_on_c, 1, 50, 127
2, 87880, Note_on_c, 1, 52, 127
2, 87880, Note_on_c, 1, 55, 127
2, 87880, Note_off_c, 1, 60, 0
2, 87880, Note_off_c, 1, 64, 0
2, 87880, Note_off_c, 1, 80, 0
2, 87880, Note_on_c, 1, 85, 127
2, 87920, Note_on_c, 1, 48, 127
2, 87920, Note_off_c, 1, 50, 0
2, 87920, Note_off_c, 1, 52, 0
2, 87920, Note_off_c, 1, 55, 0
2, 87920, Note_off_c, 1, 57, 0
2, 87920, Note_on_c, 1, 58, 127
2, 87920, Note_on_c, 1, 72, 127
2, 87920, Note_on_c, 1, 74, 127
2, 87920, Note_off_c, 1, 85, 0
2, 87960, Note_on_c, 1, 38, 127
2, 87960, Note_on_c, 1, 42, 127
2, 87960, Note_off_c, 1, 48, 0
2, 87960, Note_on_c, 1, 50, 127
2, 87960, Note_off_c, 1, 58, 0
2, 87960, Note_on_c, 1, 67, 127
2, 87960, Note_off_c, 1, 72, 0
2, 87960, Note_off_c, 1, 74, 0
2, 87960, Note_on_c, 1, 79, 127
2, 88080, Note_off_c, 1, 38, 0
2, 88080, Note_off_c, 1, 42, 0
2, 88080, Note_off_c, 1, 50, 0
2, 88080, Note_off_c, 1, 67, 0
2, 88080, Note_off_c, 1, 79, 0
2, 88120, Note_on_c, 1, 48, 127
2, 88120, Note_on_c, 1, 57, 127
2, 88120, Note_on_c, 1, 65, 127
2, 88120, Note_on_c, 1, 72, 127
2, 88480, Note_off_c, 1, 57, 0
2, 88480, Note_off_c, 1, 65, 0
2, 88520, Note_on_c, 1, 41, 127
2, 88520, Note_off_c, 1, 48, 0
2, 88520, Note_on_c, 1, 53, 127
2, 88520, Note_off_c, 1, 72, 0
2, 88520, Note_on_c, 1, 74, 127
2, 88520, Note_on_c, 1, 81, 127
2, 88520, Note_on_c, 1, 86, 127
2, 88720, Note_off_c, 1, 41, 0
2, 88720, Note_off_c, 1, 53, 0
2, 88720, Note_on_c, 1, 55, 127
2, 88720, Note_on_c, 1, 60, 127
2, 88720, Note_on_c, 1, 64, 127
2, 88720, Note_on_c, 1, 72, 127
2, 88720, Note_off_c, 1, 74, 0
2, 88720, Note_on_c, 1, 77, 127
2, 88720, Note_off_c, 1, 81, 0
2, 88720, Note_off_c, 1, 86, 0
2, 88760, Note_on_c, 1, 49, 127
2, 88760, Note_on_c, 1, 54, 127
2, 88760, Note_off_c, 1, 55, 0
2, 88760, Note_on_c, 1, 56, 127
2, 88760, Note_off_c, 1, 60, 0
2, 88760, Note_on_c, 1, 63, 127
2, 88760, Note_off_c, 1, 64, 0
2, 88760, Note_on_c, 1, 68, 127
2, 88760, Note_off_c, 1, 72, 0
2, 88760, Note_off_c, 1, 77, 0
2, 88800, Note_on_c, 1, 40, 127
2, 88800, Note_on_c, 1, 47, 127
2, 88800, Note_off_c, 1, 49, 0
2, 88800, Note_off_c, 1, 56, 0
2, 88800, Note_off_c, 1, 68, 0
2, 88840, Note_off_c, 1, 40, 0
2, 88840, Note_off_c, 1, 47, 0
2, 88840, Note_off_c, 1, 54, 0
2, 88840, Note_off_c, 1, 63, 0
2, 88880, Note_on_c, 1, 36, 127
2, 88880, Note_on_c, 1, 44, 127
2, 88880, Note_on_c, 1, 72, 127
2, 88880, Note_on_c, 1, 84, 127
2, 89000, Note_off_c, 1, 44, 0
2, 89000, Note_off_c, 1, 72, 0
2, 89000, Note_off_c, 1, 84, 0
2, 89040, Note_off_c, 1, 36, 0
2, 89040, Note_on_c, 1, 41, 127
2, 89040, Note_on_c, 1, 48, 127
2, 89040, Note_on_c, 1, 70, 127
2, 89040, Note_on_c, 1, 73, 127
2, 89120, Note_on_c, 1, 36, 127
2, 89120, Note_off_c, 1, 41, 0
2, 89120, Note_off_c, 1, 48, 0
2, 89120, Note_off_c, 1, 70, 0
2, 89120, Note_off_c, 1, 73, 0
2, 89160, Note_off_c, 1, 36, 0
2, 89160, Note_on_c, 1, 41, 127
2, 89160, Note_on_c, 1, 48, 127
2, 89160, Note_on_c, 1, 70, 127
2, 89160, Note_on_c, 1, 73, 127
2, 89280, Note_off_c, 1, 70, 0
2, 89280, Note_off_c, 1, 73, 0
2, 89320, Note_off_c, 1, 41, 0
2, 89320, Note_on_c, 1, 44, 127
2, 89320, Note_off_c, 1, 48, 0
2, 89320, Note_on_c, 1, 62, 127
2, 89320, Note_on_c, 1, 65, 127
2, 89320, Note_on_c, 1, 68, 127
2, 89320, Note_on_c, 1, 70, 127
2, 89320, Note_on_c, 1, 74, 127
2, 89440, Note_on_c, 1, 48, 127
2, 89440, Note_on_c, 1, 60, 127
2, 89440, Note_off_c, 1, 62, 0
2, 89440, Note_off_c, 1, 65, 0
2, 89440, Note_on_c, 1, 66, 127
2, 89440, Note_off_c, 1, 70, 0
2, 89440, Note_off_c, 1, 74, 0
2, 89440, Note_on_c, 1, 75, 127
2, 89440, Note_on_c, 1, 78, 127
2, 89480, Note_off_c, 1, 44, 0
2, 89480, Note_off_c, 1, 48, 0
2, 89480, Note_off_c, 1, 60, 0
2, 89480, Note_off_c, 1, 66, 0
2, 89480, Note_off_c, 1, 68, 0
2, 89480, Note_off_c, 1, 75, 0
2, 89480, Note_off_c, 1, 78, 0
2, 89520, Note_on_c, 1, 65, 127
2, 89520, Note_on_c, 1, 68, 127
2, 89520, Note_on_c, 1, 89, 127
2, 89520, Note_on_c, 1, 97, 127
2, 89560, Note_on_c, 1, 27, 127
2, 89560, Note_off_c, 1, 65, 0
2, 89560, Note_off_c, 1, 68, 0
2, 89560, Note_on_c, 1, 84, 127
2, 89560, Note_off_c, 1, 89, 0
2, 89560, Note_on_c, 1, 92, 127
2, 89560, Note_on_c, 1, 96, 127
2, 89560, Note_off_c, 1, 97, 0
2, 89600, Note_off_c, 1, 27, 0
2, 89600, Note_off_c, 1, 84, 0
2, 89600, Note_off_c, 1, 92, 0
2, 89600, Note_off_c, 1, 96, 0
2, 89640, Note_on_c, 1, 46, 127
2, 89640, Note_on_c, 1, 53, 127
2, 89640, Note_on_c, 1, 58, 127
2, 89640, Note_on_c, 1, 65, 127
2, 89640, Note_on_c, 1, 74, 127
2, 89760, Note_on_c, 1, 62, 127
2, 89760, Note_off_c, 1, 65, 0
2, 89800, Note_off_c, 1, 46, 0
2, 89800, Note_off_c, 1, 53, 0
2, 89800, Note_off_c, 1, 58, 0
2, 89800, Note_off_c, 1, 62, 0
2, 89800, Note_off_c, 1, 74, 0
2, 89840, Note_on_c, 1, 33, 127
2, 89840, Note_on_c, 1, 45, 127
2, 89840, Note_on_c, 1, 55, 127
2, 89840, Note_on_c, 1, 57, 127
2, 89840, Note_on_c, 1, 60, 127
2, 89840, Note_on_c, 1, 67, 127
2, 89840, Note_on_c, 1, 72, 127
2, 89840, Note_on_c, 1, 79, 127
2, 89880, Note_off_c, 1, 33, 0
2, 89880, Note_off_c, 1, 45, 0
2, 89880, Note_on_c, 1, 46, 127
2, 89880, Note_on_c, 1, 49, 127
2, 89880, Note_off_c, 1, 55, 0
2, 89880, Note_off_c, 1, 57, 0
2, 89880, Note_off_c, 1, 60, 0
2, 89880, Note_off_c, 1, 67, 0
2, 89880, Note_off_c, 1, 72, 0
2, 89880, Note_on_c, 1, 77, 127
2, 89880, Note_off_c, 1, 79, 0
2, 89880, Note_on_c, 1, 85, 127
2, 89880, Note_on_c, 1, 89, 127
2, 89920, Note_off_c, 1, 46, 0
2, 89920, Note_off_c, 1, 49, 0
2, 89920, Note_on_c, 1, 55, 127
2, 89920, Note_on_c, 1, 58, 127
2, 89920, Note_on_c, 1, 70, 127
2, 89920, Note_on_c, 1, 73, 127
2, 89920, Note_off_c, 1, 77, 0
2, 89920, Note_on_c, 1, 82, 127
2, 89920, Note_off_c, 1, 85, 0
2, 89920, Note_off_c, 1, 89, 0
2, 89960, Note_on_c, 1, 40, 127
2, 89960, Note_on_c, 1, 47, 127
2, 89960, Note_off_c, 1, 55, 0
2, 89960, Note_on_c, 1, 56, 127
2, 89960, Note_off_c, 1, 58, 0
2, 89960, Note_off_c, 1, 70, 0
2, 89960, Note_off_c, 1, 73, 0
2, 89960, Note_on_c, 1, 76, 127
2, 89960, Note_on_c, 1, 80, 127
2, 89960, Note_off_c, 1, 82, 0
2, 89960, Note_on_c, 1, 83, 127
2, 90000, Note_off_c, 1, 40, 0
2, 90000, Note_off_c, 1, 47, 0
2, 90000, Note_off_c, 1, 56, 0
2, 90000, Note_on_c, 1, 60, 127
2, 90000, Note_on_c, 1, 65, 127
2, 90000, Note_on_c, 1, 69, 127
2, 90000, Note_off_c, 1, 76, 0
2, 90000, Note_on_c, 1, 77, 127
2, 90000, Note_off_c, 1, 80, 0
2, 90000, Note_off_c, 1, 83, 0
2, 90000, Note_on_c, 1, 84, 127
2, 90040, Note_on_c, 1, 53, 127
2, 90040, Note_on_c, 1, 55, 127
2, 90040, Note_on_c, 1, 58, 127
2, 90040, Note_off_c, 1, 60, 0
2, 90040, Note_off_c, 1, 65, 0
2, 90040, Note_off_c, 1, 69, 0
2, 90040, Note_off_c, 1, 77, 0
2, 90040, Note_on_c, 1, 79, 127
2, 90040, Note_off_c, 1, 84, 0
2, 90080, Note_on_c, 1, 46, 127
2, 90080, Note_on_c, 1, 48, 127
2, 90080, Note_on_c, 1, 52, 127
2, 90080, Note_off_c, 1, 53, 0
2, 90080, Note_off_c, 1, 55, 0
2, 90080, Note_off_c, 1, 58, 0
2, 90080, Note_on_c, 1, 60, 127
2, 90080, Note_on_c, 1, 64, 127
2, 90080, Note_on_c, 1, 72, 127
2, 90080, Note_off_c, 1, 79, 0
2, 90120, Note_on_c, 1, 42, 127
2, 90120, Note_off_c, 1, 46, 0
2, 90120, Note_off_c, 1, 48, 0
2, 90120, Note_on_c, 1, 49, 127
2, 90120, Note_off_c, 1, 60, 0
2, 90120, Note_off_c, 1, 64, 0
2, 90120, Note_off_c, 1, 72, 0
2, 90120, Note_on_c, 1, 85, 127
2, 90160, Note_on_c, 1, 27, 127
2, 90160, Note_on_c, 1, 39, 127
2, 90160, Note_off_c, 1, 42, 0
2, 90160, Note_off_c, 1, 49, 0
2, 90160, Note_off_c, 1, 52, 0
2, 90160, Note_off_c, 1, 85, 0
2, 90160, Note_on_c, 1, 87, 127
2, 90160, Note_on_c, 1, 91, 127
2, 90160, Note_on_c, 1, 94, 127
2, 90160, Note_on_c, 1, 99, 127
2, 90200, Note_off_c, 1, 27, 0
2, 90200, Note_off_c, 1, 39, 0
2, 90200, Note_on_c, 1, 61, 127
2, 90200, Note_on_c, 1, 71, 127
2, 90200, Note_on_c, 1, 76, 127
2, 90200, Note_on_c, 1, 83, 127
2, 90200, Note_off_c, 1, 87, 0
2, 90200, Note_off_c, 1, 91, 0
2, 90200, Note_off_c, 1, 94, 0
2, 90200, Note_off_c, 1, 99, 0
2, 90240, Note_on_c, 1, 36, 127
2, 90240, Note_off_c, 1, 61, 0
2, 90240, Note_off_c, 1, 71, 0
2, 90240, Note_off_c, 1, 76, 0
2, 90240, Note_off_c, 1, 83, 0
2, 90280, Note_off_c, 1, 36, 0
2, 90280, Note_on_c, 1, 60, 127
2, 90280, Note_on_c, 1, 63, 127
2, 90280, Note_on_c, 1, 66, 127
2, 90280, Note_on_c, 1, 74, 127
2, 90280, Note_on_c, 1, 78, 127
2, 90320, Note_on_c, 1, 49, 127
2, 90320, Note_off_c, 1, 60, 0
2, 90320, Note_on_c, 1, 61, 127
2, 90320, Note_off_c, 1, 63, 0
2, 90320, Note_off_c, 1, 66, 0
2, 90320, Note_off_c, 1, 74, 0
2, 90320, Note_on_c, 1, 77, 127
2, 90320, Note_off_c, 1, 78, 0
2, 90320, Note_on_c, 1, 80, 127
2, 90320, Note_on_c, 1, 85, 127
2, 90320, Note_on_c, 1, 89, 127
2, 90360, Note_off_c, 1, 49, 0
2, 90360, Note_on_c, 1, 50, 127
2, 90360, Note_on_c, 1, 56, 127
2, 90360, Note_on_c, 1, 59, 127
2, 90360, Note_off_c, 1, 61, 0
2, 90360, Note_on_c, 1, 62, 127
2, 90360, Note_on_c, 1, 71, 127
2, 90360, Note_off_c, 1, 77, 0
2, 90360, Note_off_c, 1, 80, 0
2, 90360, Note_off_c, 1, 85, 0
2, 90360, Note_off_c, 1, 89, 0
2, 90400, Note_off_c, 1, 50, 0
2, 90400, Note_off_c, 1, 56, 0
2, 90400, Note_off_c, 1, 59, 0
2, 90400, Note_off_c, 1, 62, 0
2, 90400, Note_on_c, 1, 68, 127
2, 90400, Note_off_c, 1, 71, 0
2, 90400, Note_on_c, 1, 72, 127
2, 90400, Note_on_c, 1, 78, 127
2, 90400, Note_on_c, 1, 90, 127
2, 90400, Note_on_c, 1, 101, 127
2, 90440, Note_on_c, 1, 49, 127
2, 90440, Note_on_c, 1, 60, 127
2, 90440, Note_off_c, 1, 72, 0
2, 90440, Note_on_c, 1, 73, 127
2, 90440, Note_on_c, 1, 77, 127
2, 90440, Note_off_c, 1, 78, 0
2, 90440, Note_off_c, 1, 90, 0
2, 90440, Note_off_c, 1, 101, 0
2, 90480, Note_on_c, 1, 41, 127
2, 90480, Note_off_c, 1, 49, 0
2, 90480, Note_on_c, 1, 50, 127
2, 90480, Note_on_c, 1, 56, 127
2, 90480, Note_off_c, 1, 60, 0
2, 90480, Note_on_c, 1, 61, 127
2, 90480, Note_off_c, 1, 68, 0
2, 90480, Note_off_c, 1, 73, 0
2, 90480, Note_off_c, 1, 77, 0
2, 90520, Note_on_c, 1, 31, 127
2, 90520, Note_off_c, 1, 41, 0
2, 90520, Note_on_c, 1, 43, 127
2, 90520, Note_off_c, 1, 50, 0
2, 90520, Note_on_c, 1, 53, 127
2, 90520, Note_off_c, 1, 56, 0
2, 90520, Note_on_c, 1, 59, 127
2, 90520, Note_off_c, 1, 61, 0
2, 90560, Note_off_c, 1, 31, 0
2, 90560, Note_off_c, 1, 43, 0
2, 90560, Note_off_c, 1, 53, 0
2, 90560, Note_off_c, 1, 59, 0
2, 90560, Note_on_c, 1, 61, 127
2, 90560, Note_on_c, 1, 73, 127
2, 90560, Note_on_c, 1, 80, 127
2, 90560, Note_on_c, 1, 83, 127
2, 90560, Note_on_c, 1, 85, 127
2, 90600, Note_on_c, 1, 43, 127
2, 90600, Note_on_c, 1, 49, 127
2, 90600, Note_on_c, 1, 57, 127
2, 90600, Note_off_c, 1, 61, 0
2, 90600, Note_on_c, 1, 65, 127
2, 90600, Note_off_c, 1, 73, 0
2, 90600, Note_off_c, 1, 80, 0
2, 90600, Note_off_c, 1, 83, 0
2, 90600, Note_off_c, 1, 85, 0
2, 90640, Note_off_c, 1, 43, 0
2, 90640, Note_on_c, 1, 48, 127
2, 90640, Note_off_c, 1, 49, 0
2, 90640, Note_off_c, 1, 57, 0
2, 90640, Note_on_c, 1, 58, 127
2, 90640, Note_on_c, 1, 62, 127
2, 90640, Note_off_c, 1, 65, 0
2, 90640, Note_on_c, 1, 69, 127
2, 90680, Note_off_c, 1, 48, 0
2, 90680, Note_off_c, 1, 58, 0
2, 90680, Note_off_c, 1, 62, 0
2, 90680, Note_off_c, 1, 69, 0
2, 90720, Note_on_c, 1, 31, 127
2, 90720, Note_on_c, 1, 43, 127
2, 90720, Note_on_c, 1, 47, 127
2, 90720, Note_on_c, 1, 50, 127
2, 90720, Note_on_c, 1, 55, 127
2, 90720, Note_on_c, 1, 62, 127
2, 90720, Note_on_c, 1, 67, 127
2, 90720, Note_on_c, 1, 71, 127
2, 90720, Note_on_c, 1, 74, 127
2, 90720, Note_on_c, 1, 83, 127
2, 90760, Note_on_c, 1, 79, 127
2, 90760, Note_off_c, 1, 83, 0
2, 90800, Note_off_c, 1, 79, 0
2, 91040, Note_on_c, 1, 83, 127
2, 91080, Note_off_c, 1, 31, 0
2, 91080, Note_off_c, 1, 43, 0
2, 91080, Note_off_c, 1, 47, 0
2, 91080, Note_off_c, 1, 50, 0
2, 91080, Note_off_c, 1, 55, 0
2, 91080, Note_on_c, 1, 70, 127
2, 91080, Note_off_c, 1, 71, 0
2, 91080, Note_off_c, 1, 74, 0
2, 91080, Note_off_c, 1, 83, 0
2, 91080, Note_on_c, 1, 91, 127
2, 91120, Note_on_c, 1, 31, 127
2, 91120, Note_on_c, 1, 43, 127
2, 91120, Note_on_c, 1, 47, 127
2, 91120, Note_on_c, 1, 50, 127
2, 91120, Note_on_c, 1, 55, 127
2, 91120, Note_off_c, 1, 70, 0
2, 91120, Note_on_c, 1, 71, 127
2, 91120, Note_on_c, 1, 74, 127
2, 91120, Note_off_c, 1, 91, 0
2, 91280, Note_on_c, 1, 79, 127
2, 91320, Note_off_c, 1, 31, 0
2, 91320, Note_off_c, 1, 43, 0
2, 91320, Note_off_c, 1, 50, 0
2, 91320, Note_off_c, 1, 55, 0
2, 91320, Note_off_c, 1, 62, 0
2, 91320, Note_off_c, 1, 67, 0
2, 91320, Note_on_c, 1, 68, 127
2, 91320, Note_off_c, 1, 71, 0
2, 91320, Note_off_c, 1, 74, 0
2, 91320, Note_on_c, 1, 76, 127
2, 91320, Note_off_c, 1, 79, 0
2, 91320, Note_on_c, 1, 80, 127
2, 91360, Note_on_c, 1, 31, 127
2, 91360, Note_on_c, 1, 43, 127
2, 91360, Note_on_c, 1, 50, 127
2, 91360, Note_on_c, 1, 55, 127
2, 91360, Note_on_c, 1, 62, 127
2, 91360, Note_on_c, 1, 67, 127
2, 91360, Note_off_c, 1, 68, 0
2, 91360, Note_on_c, 1, 71, 127
2, 91360, Note_on_c, 1, 74, 127
2, 91360, Note_off_c, 1, 76, 0
2, 91360, Note_off_c, 1, 80, 0
2, 91400, Note_off_c, 1, 31, 0
2, 91400, Note_off_c, 1, 43, 0
2, 91400, Note_off_c, 1, 47, 0
2, 91400, Note_off_c, 1, 50, 0
2, 91400, Note_on_c, 1, 59, 127
2, 91400, Note_off_c, 1, 71, 0
2, 91400, Note_off_c, 1, 74, 0
2, 91400, Note_on_c, 1, 78, 127
2, 91400, Note_on_c, 1, 81, 127
2, 91440, Note_off_c, 1, 55, 0
2, 91440, Note_off_c, 1, 59, 0
2, 91440, Note_off_c, 1, 62, 0
2, 91440, Note_off_c, 1, 67, 0
2, 91440, Note_off_c, 1, 78, 0
2, 91440, Note_off_c, 1, 81, 0
2, 91480, Note_on_c, 1, 40, 127
2, 91480, Note_on_c, 1, 41, 127
2, 91480, Note_on_c, 1, 42, 127
2, 91520, Note_on_c, 1, 29, 127
2, 91520, Note_on_c, 1, 36, 127
2, 91520, Note_off_c, 1, 41, 0
2, 91520, Note_off_c, 1, 42, 0
2, 91520, Note_on_c, 1, 58, 127
2, 91520, Note_on_c, 1, 70, 127
2, 91560, Note_off_c, 1, 29, 0
2, 91560, Note_off_c, 1, 36, 0
2, 91560, Note_off_c, 1, 40, 0
2, 91560, Note_on_c, 1, 55, 127
2, 91560, Note_off_c, 1, 58, 0
2, 91560, Note_off_c, 1, 70, 0
2, 91560, Note_on_c, 1, 71, 127
2, 91600, Note_on_c, 1, 37, 127
2, 91600, Note_off_c, 1, 55, 0
2, 91600, Note_on_c, 1, 74, 127
2, 91600, Note_on_c, 1, 78, 127
2, 91600, Note_on_c, 1, 83, 127
2, 91640, Note_off_c, 1, 37, 0
2, 91640, Note_on_c, 1, 38, 127
2, 91640, Note_on_c, 1, 50, 127
2, 91640, Note_on_c, 1, 69, 127
2, 91640, Note_off_c, 1, 71, 0
2, 91640, Note_off_c, 1, 83, 0
2, 91640, Note_on_c, 1, 86, 127
2, 92040, Note_off_c, 1, 38, 0
2, 92040, Note_off_c, 1, 69, 0
2, 92040, Note_off_c, 1, 74, 0
2, 92040, Note_off_c, 1, 78, 0
2, 92040, Note_off_c, 1, 86, 0
2, 92080, Note_on_c, 1, 52, 127
2, 92080, Note_on_c, 1, 71, 127
2, 92080, Note_on_c, 1, 83, 127
2, 92120, Note_on_c, 1, 36, 127
2, 92120, Note_on_c, 1, 43, 127
2, 92120, Note_off_c, 1, 50, 0
2, 92120, Note_on_c, 1, 64, 127
2, 92120, Note_off_c, 1, 71, 0
2, 92120, Note_off_c, 1, 83, 0
2, 92160, Note_off_c, 1, 36, 0
2, 92160, Note_off_c, 1, 43, 0
2, 92160, Note_on_c, 1, 45, 127
2, 92160, Note_on_c, 1, 55, 127
2, 92160, Note_on_c, 1, 61, 127
2, 92160, Note_off_c, 1, 64, 0
2, 92160, Note_on_c, 1, 67, 127
2, 92200, Note_off_c, 1, 55, 0
2, 92200, Note_off_c, 1, 61, 0
2, 92200, Note_off_c, 1, 67, 0
2, 92200, Note_on_c, 1, 83, 127
2, 92200, Note_on_c, 1, 91, 127
2, 92200, Note_on_c, 1, 95, 127
2, 92240, Note_on_c, 1, 42, 127
2, 92240, Note_off_c, 1, 45, 0
2, 92240, Note_on_c, 1, 49, 127
2, 92240, Note_off_c, 1, 52, 0
2, 92240, Note_on_c, 1, 54, 127
2, 92240, Note_on_c, 1, 58, 127
2, 92240, Note_on_c, 1, 78, 127
2, 92240, Note_off_c, 1, 83, 0
2, 92240, Note_off_c, 1, 91, 0
2, 92240, Note_off_c, 1, 95, 0
2, 92280, Note_off_c, 1, 42, 0
2, 92280, Note_off_c, 1, 49, 0
2, 92280, Note_off_c, 1, 54, 0
2, 92280, Note_off_c, 1, 58, 0
2, 92280, Note_on_c, 1, 70, 127
2, 92280, Note_on_c, 1, 73, 127
2, 92280, Note_off_c, 1, 78, 0
2, 92280, Note_on_c, 1, 87, 127
2, 92280, Note_on_c, 1, 94, 127
2, 92320, Note_on_c, 1, 34, 127
2, 92320, Note_on_c, 1, 43, 127
2, 92320, Note_on_c, 1, 46, 127
2, 92320, Note_off_c, 1, 70, 0
2, 92320, Note_off_c, 1, 73, 0
2, 92320, Note_off_c, 1, 87, 0
2, 92320, Note_off_c, 1, 94, 0
2, 92360, Note_off_c, 1, 34, 0
2, 92360, Note_off_c, 1, 43, 0
2, 92360, Note_off_c, 1, 46, 0
2, 92360, Note_on_c, 1, 69, 127
2, 92360, Note_on_c, 1, 75, 127
2, 92360, Note_on_c, 1, 78, 127
2, 92360, Note_on_c, 1, 87, 127
2, 92360, Note_on_c, 1, 90, 127
2, 92400, Note_on_c, 1, 36, 127
2, 92400, Note_on_c, 1, 39, 127
2, 92400, Note_on_c, 1, 44, 127
2, 92400, Note_on_c, 1, 48, 127
2, 92400, Note_on_c, 1, 60, 127
2, 92400, Note_on_c, 1, 63, 127
2, 92400, Note_on_c, 1, 68, 127
2, 92400, Note_off_c, 1, 69, 0
2, 92400, Note_on_c, 1, 72, 127
2, 92400, Note_off_c, 1, 75, 0
2, 92400, Note_off_c, 1, 78, 0
2, 92400, Note_off_c, 1, 87, 0
2, 92400, Note_off_c, 1, 90, 0
2, 92440, Note_off_c, 1, 36, 0
2, 92440, Note_off_c, 1, 39, 0
2, 92440, Note_off_c, 1, 44, 0
2, 92440, Note_on_c, 1, 52, 127
2, 92440, Note_on_c, 1, 55, 127
2, 92440, Note_off_c, 1, 60, 0
2, 92440, Note_off_c, 1, 63, 0
2, 92440, Note_off_c, 1, 68, 0
2, 92480, Note_on_c, 1, 43, 127
2, 92480, Note_off_c, 1, 48, 0
2, 92480, Note_on_c, 1, 50, 127
2, 92480, Note_off_c, 1, 52, 0
2, 92480, Note_on_c, 1, 65, 127
2, 92480, Note_on_c, 1, 71, 127
2, 92480, Note_off_c, 1, 72, 0
2, 92480, Note_on_c, 1, 79, 127
2, 92520, Note_on_c, 1, 38, 127
2, 92520, Note_off_c, 1, 50, 0
2, 92520, Note_on_c, 1, 53, 127
2, 92520, Note_off_c, 1, 55, 0
2, 92520, Note_off_c, 1, 65, 0
2, 92520, Note_off_c, 1, 71, 0
2, 92520, Note_off_c, 1, 79, 0
2, 92520, Note_on_c, 1, 80, 127
2, 92560, Note_off_c, 1, 38, 0
2, 92560, Note_off_c, 1, 43, 0
2, 92560, Note_off_c, 1, 53, 0
2, 92560, Note_on_c, 1, 61, 127
2, 92560, Note_on_c, 1, 79, 127
2, 92560, Note_off_c, 1, 80, 0
2, 92560, Note_on_c, 1, 82, 127
2, 92560, Note_on_c, 1, 88, 127
2, 92600, Note_on_c, 1, 55, 127
2, 92600, Note_on_c, 1, 57, 127
2, 92600, Note_on_c, 1, 60, 127
2, 92600, Note_off_c, 1, 61, 0
2, 92600, Note_on_c, 1, 67, 127
2, 92600, Note_off_c, 1, 79, 0
2, 92600, Note_on_c, 1, 81, 127
2, 92600, Note_off_c, 1, 82, 0
2, 92600, Note_off_c, 1, 88, 0
2, 92600, Note_on_c, 1, 91, 127
2, 92600, Note_on_c, 1, 93, 127
2, 92640, Note_on_c, 1, 49, 127
2, 92640, Note_on_c, 1, 53, 127
2, 92640, Note_off_c, 1, 55, 0
2, 92640, Note_off_c, 1, 57, 0
2, 92640, Note_off_c, 1, 60, 0
2, 92640, Note_off_c, 1, 67, 0
2, 92640, Note_on_c, 1, 73, 127
2, 92640, Note_on_c, 1, 77, 127
2, 92640, Note_off_c, 1, 81, 0
2, 92640, Note_on_c, 1, 85, 127
2, 92640, Note_off_c, 1, 91, 0
2, 92640, Note_off_c, 1, 93, 0
2, 92680, Note_on_c, 1, 43, 127
2, 92680, Note_off_c, 1, 49, 0
2, 92680, Note_off_c, 1, 53, 0
2, 92680, Note_on_c, 1, 55, 127
2, 92680, Note_on_c, 1, 60, 127
2, 92680, Note_on_c, 1, 62, 127
2, 92680, Note_on_c, 1, 69, 127
2, 92680, Note_off_c, 1, 73, 0
2, 92680, Note_off_c, 1, 77, 0
2, 92680, Note_off_c, 1, 85, 0
2, 92720, Note_on_c, 1, 41, 127
2, 92720, Note_off_c, 1, 43, 0
2, 92720, Note_on_c, 1, 51, 127
2, 92720, Note_off_c, 1, 55, 0
2, 92720, Note_on_c, 1, 57, 127
2, 92720, Note_off_c, 1, 62, 0
2, 92720, Note_on_c, 1, 63, 127
2, 92720, Note_off_c, 1, 69, 0
2, 92760, Note_on_c, 1, 33, 127
2, 92760, Note_on_c, 1, 36, 127
2, 92760, Note_on_c, 1, 39, 127
2, 92760, Note_off_c, 1, 41, 0
2, 92760, Note_on_c, 1, 42, 127
2, 92760, Note_on_c, 1, 45, 127
2, 92760, Note_on_c, 1, 54, 127
2, 92760, Note_off_c, 1, 57, 0
2, 92760, Note_off_c, 1, 63, 0
2, 92800, Note_off_c, 1, 33, 0
2, 92800, Note_off_c, 1, 36, 0
2, 92800, Note_off_c, 1, 39, 0
2, 92800, Note_off_c, 1, 42, 0
2, 92800, Note_off_c, 1, 45, 0
2, 92800, Note_off_c, 1, 51, 0
2, 92800, Note_on_c, 1, 53, 127
2, 92800, Note_off_c, 1, 54, 0
2, 92800, Note_on_c, 1, 58, 127
2, 92800, Note_on_c, 1, 64, 127
2, 92800, Note_on_c, 1, 84, 127
2, 92840, Note_on_c, 1, 36, 127
2, 92840, Note_off_c, 1, 53, 0
2, 92840, Note_off_c, 1, 58, 0
2, 92840, Note_off_c, 1, 60, 0
2, 92840, Note_off_c, 1, 64, 0
2, 92840, Note_off_c, 1, 84, 0
2, 92880, Note_on_c, 1, 43, 127
2, 92880, Note_on_c, 1, 67, 127
2, 92960, Note_off_c, 1, 67, 0
2, 93000, Note_on_c, 1, 67, 127
2, 93120, Note_off_c, 1, 43, 0
2, 93120, Note_off_c, 1, 67, 0
2, 93160, Note_on_c, 1, 43, 127
2, 93160, Note_on_c, 1, 67, 127
2, 93240, Note_off_c, 1, 36, 0
2, 93240, Note_off_c, 1, 43, 0
2, 93240, Note_off_c, 1, 67, 0
2, 93280, Note_on_c, 1, 36, 127
2, 93280, Note_on_c, 1, 43, 127
2, 93280, Note_on_c, 1, 67, 127
2, 93520, Note_off_c, 1, 67, 0
2, 93560, Note_on_c, 1, 67, 127
2, 93600, Note_off_c, 1, 43, 0
2, 93600, Note_off_c, 1, 67, 0
2, 93640, Note_off_c, 1, 36, 0
2, 93680, Note_on_c, 1, 36, 127
2, 93680, Note_on_c, 1, 43, 127
2, 93680, Note_on_c, 1, 67, 127
2, 93840, Note_off_c, 1, 36, 0
2, 93840, Note_off_c, 1, 43, 0
2, 93840, Note_off_c, 1, 67, 0
2, 93880, Note_on_c, 1, 36, 127
2, 93880, Note_on_c, 1, 52, 127
2, 93880, Note_on_c, 1, 60, 127
2, 93880, Note_on_c, 1, 72, 127
2, 93920, Note_on_c, 1, 43, 127
2, 93920, Note_off_c, 1, 52, 0
2, 93920, Note_off_c, 1, 60, 0
2, 93920, Note_on_c, 1, 67, 127
2, 93920, Note_off_c, 1, 72, 0
2, 94120, Note_off_c, 1, 43, 0
2, 94120, Note_off_c, 1, 67, 0
2, 94160, Note_on_c, 1, 35, 127
2, 94160, Note_off_c, 1, 36, 0
2, 94160, Note_on_c, 1, 76, 127
2, 94160, Note_on_c, 1, 79, 127
2, 94160, Note_on_c, 1, 84, 127
2, 94160, Note_on_c, 1, 89, 127
2, 94200, Note_off_c, 1, 35, 0
2, 94200, Note_on_c, 1, 48, 127
2, 94200, Note_on_c, 1, 70, 127
2, 94200, Note_off_c, 1, 76, 0
2, 94200, Note_on_c, 1, 77, 127
2, 94200, Note_off_c, 1, 79, 0
2, 94200, Note_off_c, 1, 84, 0
2, 94200, Note_off_c, 1, 89, 0
2, 94240, Note_on_c, 1, 46, 127
2, 94240, Note_off_c, 1, 48, 0
2, 94240, Note_on_c, 1, 49, 127
2, 94240, Note_on_c, 1, 65, 127
2, 94240, Note_on_c, 1, 68, 127
2, 94240, Note_off_c, 1, 70, 0
2, 94240, Note_on_c, 1, 71, 127
2, 94240, Note_on_c, 1, 73, 127
2, 94240, Note_off_c, 1, 77, 0
2, 94280, Note_off_c, 1, 46, 0
2, 94280, Note_off_c, 1, 49, 0
2, 94280, Note_on_c, 1, 63, 127
2, 94280, Note_off_c, 1, 65, 0
2, 94280, Note_off_c, 1, 68, 0
2, 94280, Note_on_c, 1, 69, 127
2, 94280, Note_off_c, 1, 71, 0
2, 94280, Note_on_c, 1, 76, 127
2, 94280, Note_on_c, 1, 80, 127
2, 94320, Note_on_c, 1, 48, 127
2, 94320, Note_off_c, 1, 63, 0
2, 94320, Note_off_c, 1, 69, 0
2, 94320, Note_on_c, 1, 70, 127
2, 94320, Note_off_c, 1, 73, 0
2, 94320, Note_off_c, 1, 76, 0
2, 94320, Note_on_c, 1, 77, 127
2, 94320, Note_off_c, 1, 80, 0
2, 94360, Note_on_c, 1, 36, 127
2, 94360, Note_off_c, 1, 48, 0
2, 94360, Note_off_c, 1, 70, 0
2, 94360, Note_on_c, 1, 75, 127
2, 94360, Note_off_c, 1, 77, 0
2, 94360, Note_on_c, 1, 84, 127
2, 94400, Note_off_c, 1, 36, 0
2, 94400, Note_off_c, 1, 75, 0
2, 94400, Note_off_c, 1, 84, 0
2, 94440, Note_on_c, 1, 53, 127
2, 94440, Note_on_c, 1, 58, 127
2, 94440, Note_on_c, 1, 67, 127
2, 94440, Note_on_c, 1, 85, 127
2, 94640, Note_on_c, 1, 52, 127
2, 94640, Note_off_c, 1, 53, 0
2, 94640, Note_on_c, 1, 55, 127
2, 94640, Note_on_c, 1, 60, 127
2, 94640, Note_off_c, 1, 67, 0
2, 94640, Note_on_c, 1, 81, 127
2, 94640, Note_off_c, 1, 85, 0
2, 94680, Note_off_c, 1, 52, 0
2, 94680, Note_off_c, 1, 55, 0
2, 94680, Note_off_c, 1, 58, 0
2, 94680, Note_off_c, 1, 60, 0
2, 94680, Note_off_c, 1, 81, 0
2, 94720, Note_on_c, 1, 48, 127
2, 94720, Note_on_c, 1, 52, 127
2, 94720, Note_on_c, 1, 55, 127
2, 94720, Note_on_c, 1, 60, 127
2, 94720, Note_on_c, 1, 64, 127
2, 94720, Note_on_c, 1, 67, 127
2, 95200, Note_off_c, 1, 48, 0
2, 95200, Note_off_c, 1, 52, 0
2, 95200, Note_off_c, 1, 55, 0
2, 95200, Note_off_c, 1, 60, 0
2, 95200, Note_off_c, 1, 64, 0
2, 95200, Note_off_c, 1, 67, 0
2, 95240, Note_on_c, 1, 38, 127
2, 95240, Note_on_c, 1, 50, 127
2, 95240, Note_on_c, 1, 77, 127
2, 95240, Note_on_c, 1, 81, 127
2, 95240, Note_on_c, 1, 86, 127
2, 95240, Note_on_c, 1, 89, 127
2, 95480, Note_off_c, 1, 38, 0
2, 95480, Note_off_c, 1, 50, 0
2, 95480, Note_off_c, 1, 77, 0
2, 95480, Note_off_c, 1, 81, 0
2, 95480, Note_off_c, 1, 86, 0
2, 95480, Note_off_c, 1, 89, 0
2, 95520, Note_on_c, 1, 38, 127
2, 95520, Note_on_c, 1, 50, 127
2, 95520, Note_on_c, 1, 77, 127
2, 95520, Note_on_c, 1, 81, 127
2, 95520, Note_on_c, 1, 86, 127
2, 95520, Note_on_c, 1, 89, 127
2, 95760, Note_off_c, 1, 38, 0
2, 95760, Note_off_c, 1, 50, 0
2, 95760, Note_off_c, 1, 77, 0
2, 95760, Note_off_c, 1, 81, 0
2, 95760, Note_off_c, 1, 86, 0
2, 95760, Note_off_c, 1, 89, 0
2, 95840, Note_on_c, 1, 56, 127
2, 95840, Note_on_c, 1, 61, 127
2, 95840, Note_on_c, 1, 64, 127
2, 95840, Note_on_c, 1, 69, 127
2, 95840, Note_on_c, 1, 80, 127
2, 95840, Note_on_c, 1, 88, 127
2, 96080, Note_off_c, 1, 56, 0
2, 96080, Note_off_c, 1, 61, 0
2, 96080, Note_off_c, 1, 64, 0
2, 96080, Note_off_c, 1, 69, 0
2, 96080, Note_off_c, 1, 80, 0
2, 96080, Note_off_c, 1, 88, 0
2, 96120, Note_on_c, 1, 65, 127
2, 96120, Note_on_c, 1, 67, 127
2, 96120, Note_on_c, 1, 70, 127
2, 96120, Note_on_c, 1, 72, 127
2, 96120, Note_on_c, 1, 76, 127
2, 96120, Note_on_c, 1, 82, 127
2, 96120, Note_on_c, 1, 84, 127
2, 96320, Note_off_c, 1, 65, 0
2, 96320, Note_off_c, 1, 67, 0
2, 96320, Note_off_c, 1, 70, 0
2, 96320, Note_off_c, 1, 72, 0
2, 96320, Note_off_c, 1, 76, 0
2, 96320, Note_off_c, 1, 82, 0
2, 96320, Note_off_c, 1, 84, 0
2, 96360, Note_on_c, 1, 65, 127
2, 96360, Note_on_c, 1, 67, 127
2, 96360, Note_on_c, 1, 70, 127
2, 96360, Note_on_c, 1, 72, 127
2, 96360, Note_on_c, 1, 76, 127
2, 96360, Note_on_c, 1, 82, 127
2, 96360, Note_on_c, 1, 84, 127
2, 96600, Note_off_c, 1, 65, 0
2, 96600, Note_off_c, 1, 67, 0
2, 96600, Note_off_c, 1, 70, 0
2, 96600, Note_off_c, 1, 72, 0
2, 96600, Note_off_c, 1, 76, 0
2, 96600, Note_off_c, 1, 82, 0
2, 96600, Note_off_c, 1, 84, 0
2, 96640, Note_on_c, 1, 50, 127
2, 96640, Note_on_c, 1, 80, 127
2, 96640, Note_on_c, 1, 83, 127
2, 96640, Note_on_c, 1, 86, 127
2, 96640, Note_on_c, 1, 92, 127
2, 96840, Note_off_c, 1, 50, 0
2, 96840, Note_off_c, 1, 80, 0
2, 96840, Note_off_c, 1, 83, 0
2, 96840, Note_off_c, 1, 86, 0
2, 96840, Note_off_c, 1, 92, 0
2, 96880, Note_on_c, 1, 37, 127
2, 96880, Note_on_c, 1, 51, 127
2, 96880, Note_on_c, 1, 66, 127
2, 96880, Note_on_c, 1, 78, 127
2, 97040, Note_on_c, 1, 32, 127
2, 97040, Note_off_c, 1, 37, 0
2, 97040, Note_on_c, 1, 44, 127
2, 97040, Note_off_c, 1, 51, 0
2, 97040, Note_on_c, 1, 68, 127
2, 97040, Note_on_c, 1, 76, 127
2, 97040, Note_off_c, 1, 78, 0
2, 97080, Note_off_c, 1, 32, 0
2, 97080, Note_off_c, 1, 44, 0
2, 97080, Note_off_c, 1, 66, 0
2, 97080, Note_off_c, 1, 68, 0
2, 97080, Note_off_c, 1, 76, 0
2, 97120, Note_on_c, 1, 44, 127
2, 97120, Note_on_c, 1, 53, 127
2, 97120, Note_on_c, 1, 65, 127
2, 97120, Note_on_c, 1, 77, 127
2, 97280, Note_on_c, 1, 33, 127
2, 97280, Note_on_c, 1, 40, 127
2, 97280, Note_off_c, 1, 44, 0
2, 97280, Note_on_c, 1, 45, 127
2, 97280, Note_off_c, 1, 53, 0
2, 97280, Note_on_c, 1, 57, 127
2, 97280, Note_on_c, 1, 60, 127
2, 97280, Note_on_c, 1, 64, 127
2, 97280, Note_off_c, 1, 65, 0
2, 97280, Note_on_c, 1, 69, 127
2, 97280, Note_off_c, 1, 77, 0
2, 97320, Note_off_c, 1, 33, 0
2, 97320, Note_off_c, 1, 40, 0
2, 97320, Note_off_c, 1, 45, 0
2, 97320, Note_off_c, 1, 57, 0
2, 97320, Note_off_c, 1, 60, 0
2, 97320, Note_off_c, 1, 64, 0
2, 97320, Note_off_c, 1, 69, 0
2, 97360, Note_on_c, 1, 45, 127
2, 97360, Note_on_c, 1, 48, 127
2, 97360, Note_on_c, 1, 57, 127
2, 97360, Note_on_c, 1, 69, 127
2, 97520, Note_on_c, 1, 29, 127
2, 97520, Note_off_c, 1, 45, 0
2, 97520, Note_off_c, 1, 48, 0
2, 97520, Note_on_c, 1, 49, 127
2, 97520, Note_off_c, 1, 57, 0
2, 97520, Note_off_c, 1, 69, 0
2, 97560, Note_off_c, 1, 29, 0
2, 97560, Note_off_c, 1, 49, 0
2, 97560, Note_on_c, 1, 54, 127
2, 97560, Note_on_c, 1, 78, 127
2, 97560, Note_on_c, 1, 90, 127
2, 97560, Note_on_c, 1, 93, 127
2, 97600, Note_off_c, 1, 54, 0
2, 97600, Note_off_c, 1, 78, 0
2, 97600, Note_off_c, 1, 90, 0
2, 97600, Note_off_c, 1, 93, 0
2, 97640, Note_on_c, 1, 66, 127
2, 97640, Note_on_c, 1, 69, 127
2, 97640, Note_on_c, 1, 98, 127
2, 97680, Note_on_c, 1, 54, 127
2, 97680, Note_on_c, 1, 62, 127
2, 97680, Note_on_c, 1, 64, 127
2, 97680, Note_off_c, 1, 66, 0
2, 97680, Note_off_c, 1, 69, 0
2, 97680, Note_off_c, 1, 98, 0
2, 97720, Note_off_c, 1, 54, 0
2, 97720, Note_off_c, 1, 62, 0
2, 97720, Note_off_c, 1, 64, 0
2, 97760, Note_on_c, 1, 65, 127
2, 97760, Note_on_c, 1, 68, 127
2, 97760, Note_on_c, 1, 71, 127
2, 97760, Note_on_c, 1, 74, 127
2, 97760, Note_on_c, 1, 77, 127
2, 97760, Note_on_c, 1, 80, 127
2, 97760, Note_on_c, 1, 83, 127
2, 97760, Note_on_c, 1, 86, 127
2, 97760, Note_on_c, 1, 92, 127
2, 97800, Note_off_c, 1, 65, 0
2, 97800, Note_off_c, 1, 68, 0
2, 97800, Note_on_c, 1, 70, 127
2, 97800, Note_off_c, 1, 71, 0
2, 97800, Note_on_c, 1, 73, 127
2, 97800, Note_off_c, 1, 74, 0
2, 97800, Note_on_c, 1, 76, 127
2, 97800, Note_off_c, 1, 77, 0
2, 97800, Note_off_c, 1, 80, 0
2, 97800, Note_on_c, 1, 81, 127
2, 97800, Note_off_c, 1, 83, 0
2, 97800, Note_off_c, 1, 86, 0
2, 97800, Note_off_c, 1, 92, 0
2, 97840, Note_on_c, 1, 39, 127
2, 97840, Note_on_c, 1, 42, 127
2, 97840, Note_on_c, 1, 51, 127
2, 97840, Note_on_c, 1, 66, 127
2, 97840, Note_off_c, 1, 70, 0
2, 97840, Note_off_c, 1, 73, 0
2, 97840, Note_off_c, 1, 76, 0
2, 97840, Note_off_c, 1, 81, 0
2, 97880, Note_off_c, 1, 39, 0
2, 97880, Note_off_c, 1, 42, 0
2, 97880, Note_off_c, 1, 51, 0
2, 97880, Note_off_c, 1, 66, 0
2, 97880, Note_on_c, 1, 69, 127
2, 97880, Note_on_c, 1, 72, 127
2, 97880, Note_on_c, 1, 77, 127
2, 97880, Note_on_c, 1, 81, 127
2, 97880, Note_on_c, 1, 84, 127
2, 97920, Note_off_c, 1, 69, 0
2, 97920, Note_off_c, 1, 72, 0
2, 97920, Note_off_c, 1, 77, 0
2, 97920, Note_off_c, 1, 81, 0
2, 97920, Note_off_c, 1, 84, 0
2, 97960, Note_on_c, 1, 50, 127
2, 97960, Note_on_c, 1, 60, 127
2, 97960, Note_on_c, 1, 62, 127
2, 97960, Note_on_c, 1, 68, 127
2, 97960, Note_on_c, 1, 72, 127
2, 98000, Note_on_c, 1, 34, 127
2, 98000, Note_on_c, 1, 39, 127
2, 98000, Note_on_c, 1, 46, 127
2, 98000, Note_off_c, 1, 50, 0
2, 98000, Note_off_c, 1, 60, 0
2, 98000, Note_off_c, 1, 62, 0
2, 98000, Note_off_c, 1, 68, 0
2, 98000, Note_off_c, 1, 72, 0
2, 98000, Note_on_c, 1, 73, 127
2, 98000, Note_on_c, 1, 75, 127
2, 98000, Note_on_c, 1, 80, 127
2, 98040, Note_off_c, 1, 34, 0
2, 98040, Note_off_c, 1, 39, 0
2, 98040, Note_off_c, 1, 46, 0
2, 98040, Note_on_c, 1, 62, 127
2, 98040, Note_on_c, 1, 69, 127
2, 98040, Note_on_c, 1, 70, 127
2, 98040, Note_off_c, 1, 73, 0
2, 98040, Note_on_c, 1, 74, 127
2, 98040, Note_off_c, 1, 75, 0
2, 98040, Note_off_c, 1, 80, 0
2, 98080, Note_on_c, 1, 53, 127
2, 98080, Note_on_c, 1, 57, 127
2, 98080, Note_on_c, 1, 61, 127
2, 98080, Note_off_c, 1, 62, 0
2, 98080, Note_off_c, 1, 69, 0
2, 98080, Note_off_c, 1, 70, 0
2, 98080, Note_off_c, 1, 74, 0
2, 98080, Note_on_c, 1, 93, 127
2, 98080, Note_on_c, 1, 97, 127
2, 98120, Note_off_c, 1, 53, 0
2, 98120, Note_off_c, 1, 57, 0
2, 98120, Note_off_c, 1, 61, 0
2, 98120, Note_on_c, 1, 66, 127
2, 98120, Note_on_c, 1, 69, 127
2, 98120, Note_on_c, 1, 73, 127
2, 98120, Note_off_c, 1, 97, 0
2, 98160, Note_off_c, 1, 66, 0
2, 98160, Note_off_c, 1, 69, 0
2, 98160, Note_off_c, 1, 73, 0
2, 98160, Note_off_c, 1, 93, 0
2, 98200, Note_on_c, 1, 36, 127
2, 98200, Note_on_c, 1, 58, 127
2, 98200, Note_on_c, 1, 61, 127
2, 98200, Note_on_c, 1, 67, 127
2, 98280, Note_off_c, 1, 36, 0
2, 98280, Note_on_c, 1, 44, 127
2, 98280, Note_on_c, 1, 51, 127
2, 98280, Note_on_c, 1, 56, 127
2, 98280, Note_off_c, 1, 58, 0
2, 98280, Note_off_c, 1, 61, 0
2, 98280, Note_off_c, 1, 67, 0
2, 98280, Note_on_c, 1, 71, 127
2, 98280, Note_on_c, 1, 75, 127
2, 98320, Note_off_c, 1, 44, 0
2, 98320, Note_off_c, 1, 51, 0
2, 98320, Note_off_c, 1, 56, 0
2, 98320, Note_on_c, 1, 64, 127
2, 98320, Note_off_c, 1, 71, 0
2, 98320, Note_on_c, 1, 72, 127
2, 98320, Note_off_c, 1, 75, 0
2, 98320, Note_on_c, 1, 91, 127
2, 98320, Note_on_c, 1, 93, 127
2, 98360, Note_on_c, 1, 32, 127
2, 98360, Note_on_c, 1, 44, 127
2, 98360, Note_off_c, 1, 64, 0
2, 98360, Note_off_c, 1, 72, 0
2, 98360, Note_on_c, 1, 82, 127
2, 98360, Note_on_c, 1, 85, 127
2, 98360, Note_off_c, 1, 91, 0
2, 98360, Note_off_c, 1, 93, 0
2, 98400, Note_off_c, 1, 32, 0
2, 98400, Note_off_c, 1, 44, 0
2, 98400, Note_off_c, 1, 82, 0
2, 98400, Note_off_c, 1, 85, 0
2, 98440, Note_on_c, 1, 40, 127
2, 98440, Note_on_c, 1, 52, 127
2, 98440, Note_on_c, 1, 70, 127
2, 98440, Note_on_c, 1, 74, 127
2, 98440, Note_on_c, 1, 80, 127
2, 98440, Note_on_c, 1, 82, 127
2, 98480, Note_off_c, 1, 40, 0
2, 98480, Note_on_c, 1, 41, 127
2, 98480, Note_off_c, 1, 52, 0
2, 98480, Note_on_c, 1, 57, 127
2, 98480, Note_on_c, 1, 66, 127
2, 98480, Note_off_c, 1, 70, 0
2, 98480, Note_off_c, 1, 74, 0
2, 98480, Note_off_c, 1, 80, 0
2, 98480, Note_off_c, 1, 82, 0
2, 98520, Note_off_c, 1, 41, 0
2, 98520, Note_on_c, 1, 50, 127
2, 98520, Note_on_c, 1, 62, 127
2, 98520, Note_off_c, 1, 66, 0
2, 98520, Note_on_c, 1, 73, 127
2, 98520, Note_on_c, 1, 76, 127
2, 98560, Note_on_c, 1, 40, 127
2, 98560, Note_off_c, 1, 50, 0
2, 98560, Note_on_c, 1, 52, 127
2, 98560, Note_off_c, 1, 57, 0
2, 98560, Note_off_c, 1, 62, 0
2, 98560, Note_on_c, 1, 70, 127
2, 98560, Note_off_c, 1, 73, 0
2, 98560, Note_on_c, 1, 74, 127
2, 98560, Note_off_c, 1, 76, 0
2, 98560, Note_on_c, 1, 80, 127
2, 98560, Note_on_c, 1, 82, 127
2, 98600, Note_off_c, 1, 40, 0
2, 98600, Note_off_c, 1, 52, 0
2, 98600, Note_on_c, 1, 56, 127
2, 98600, Note_on_c, 1, 59, 127
2, 98600, Note_on_c, 1, 64, 127
2, 98600, Note_on_c, 1, 68, 127
2, 98600, Note_off_c, 1, 70, 0
2, 98600, Note_off_c, 1, 74, 0
2, 98600, Note_on_c, 1, 76, 127
2, 98600, Note_off_c, 1, 82, 0
2, 98600, Note_on_c, 1, 83, 127
2, 98600, Note_on_c, 1, 88, 127
2, 98640, Note_off_c, 1, 56, 0
2, 98640, Note_on_c, 1, 58, 127
2, 98640, Note_off_c, 1, 59, 0
2, 98640, Note_on_c, 1, 62, 127
2, 98640, Note_off_c, 1, 64, 0
2, 98640, Note_on_c, 1, 67, 127
2, 98640, Note_off_c, 1, 68, 0
2, 98640, Note_off_c, 1, 76, 0
2, 98640, Note_off_c, 1, 80, 0
2, 98640, Note_off_c, 1, 83, 0
2, 98640, Note_off_c, 1, 88, 0
2, 98680, Note_on_c, 1, 46, 127
2, 98680, Note_on_c, 1, 53, 127
2, 98680, Note_off_c, 1, 58, 0
2, 98680, Note_off_c, 1, 67, 0
2, 98680, Note_on_c, 1, 68, 127
2, 98680, Note_on_c, 1, 74, 127
2, 98880, Note_off_c, 1, 46, 0
2, 98880, Note_off_c, 1, 53, 0
2, 98880, Note_off_c, 1, 62, 0
2, 98880, Note_off_c, 1, 68, 0
2, 98880, Note_off_c, 1, 74, 0
2, 98920, Note_on_c, 1, 48, 127
2, 98920, Note_on_c, 1, 61, 127
2, 98920, Note_on_c, 1, 73, 127
2, 98960, Note_on_c, 1, 45, 127
2, 98960, Note_off_c, 1, 48, 0
2, 98960, Note_on_c, 1, 51, 127
2, 98960, Note_on_c, 1, 54, 127
2, 98960, Note_on_c, 1, 59, 127
2, 98960, Note_off_c, 1, 61, 0
2, 98960, Note_off_c, 1, 73, 0
2, 99000, Note_on_c, 1, 29, 127
2, 99000, Note_on_c, 1, 41, 127
2, 99000, Note_off_c, 1, 45, 0
2, 99000, Note_off_c, 1, 51, 0
2, 99000, Note_on_c, 1, 53, 127
2, 99000, Note_off_c, 1, 54, 0
2, 99000, Note_on_c, 1, 57, 127
2, 99000, Note_off_c, 1, 59, 0
2, 99000, Note_on_c, 1, 63, 127
2, 99000, Note_on_c, 1, 65, 127
2, 99040, Note_off_c, 1, 29, 0
2, 99040, Note_off_c, 1, 41, 0
2, 99040, Note_on_c, 1, 45, 127
2, 99040, Note_on_c, 1, 51, 127
2, 99040, Note_off_c, 1, 53, 0
2, 99040, Note_on_c, 1, 54, 127
2, 99040, Note_off_c, 1, 57, 0
2, 99040, Note_on_c, 1, 59, 127
2, 99040, Note_off_c, 1, 63, 0
2, 99040, Note_off_c, 1, 65, 0
2, 99120, Note_off_c, 1, 45, 0
2, 99120, Note_on_c, 1, 48, 127
2, 99120, Note_off_c, 1, 51, 0
2, 99120, Note_on_c, 1, 52, 127
2, 99120, Note_off_c, 1, 54, 0
2, 99120, Note_off_c, 1, 59, 0
2, 99120, Note_on_c, 1, 72, 127
2, 99120, Note_on_c, 1, 76, 127
2, 99160, Note_off_c, 1, 48, 0
2, 99160, Note_off_c, 1, 52, 0
2, 99160, Note_off_c, 1, 76, 0
2, 99200, Note_on_c, 1, 49, 127
2, 99200, Note_on_c, 1, 53, 127
2, 99200, Note_on_c, 1, 56, 127
2, 99200, Note_on_c, 1, 61, 127
2, 99200, Note_off_c, 1, 72, 0
2, 99200, Note_on_c, 1, 80, 127
2, 99200, Note_on_c, 1, 85, 127
2, 99200, Note_on_c, 1, 89, 127
2, 99200, Note_on_c, 1, 92, 127
2, 99240, Note_on_c, 1, 38, 127
2, 99240, Note_off_c, 1, 49, 0
2, 99240, Note_on_c, 1, 50, 127
2, 99240, Note_off_c, 1, 53, 0
2, 99240, Note_off_c, 1, 56, 0
2, 99240, Note_on_c, 1, 60, 127
2, 99240, Note_off_c, 1, 61, 0
2, 99240, Note_on_c, 1, 66, 127
2, 99240, Note_on_c, 1, 69, 127
2, 99240, Note_on_c, 1, 74, 127
2, 99240, Note_off_c, 1, 80, 0
2, 99240, Note_off_c, 1, 85, 0
2, 99240, Note_off_c, 1, 89, 0
2, 99240, Note_off_c, 1, 92, 0
2, 99280, Note_off_c, 1, 38, 0
2, 99280, Note_on_c, 1, 39, 127
2, 99280, Note_off_c, 1, 50, 0
2, 99280, Note_on_c, 1, 51, 127
2, 99280, Note_on_c, 1, 59, 127
2, 99280, Note_off_c, 1, 60, 0
2, 99280, Note_on_c, 1, 61, 127
2, 99280, Note_off_c, 1, 66, 0
2, 99280, Note_on_c, 1, 68, 127
2, 99280, Note_off_c, 1, 69, 0
2, 99280, Note_off_c, 1, 74, 0
2, 99320, Note_on_c, 1, 33, 127
2, 99320, Note_off_c, 1, 39, 0
2, 99320, Note_off_c, 1, 51, 0
2, 99320, Note_on_c, 1, 53, 127
2, 99320, Note_on_c, 1, 57, 127
2, 99320, Note_off_c, 1, 59, 0
2, 99320, Note_off_c, 1, 61, 0
2, 99320, Note_on_c, 1, 62, 127
2, 99320, Note_on_c, 1, 65, 127
2, 99320, Note_off_c, 1, 68, 0
2, 99360, Note_off_c, 1, 33, 0
2, 99360, Note_off_c, 1, 53, 0
2, 99360, Note_off_c, 1, 57, 0
2, 99360, Note_off_c, 1, 62, 0
2, 99360, Note_off_c, 1, 65, 0
2, 99400, Note_on_c, 1, 59, 127
2, 99400, Note_on_c, 1, 65, 127
2, 99400, Note_on_c, 1, 68, 127
2, 99400, Note_on_c, 1, 71, 127
2, 99400, Note_on_c, 1, 74, 127
2, 99400, Note_on_c, 1, 80, 127
2, 99440, Note_on_c, 1, 33, 127
2, 99440, Note_on_c, 1, 45, 127
2, 99440, Note_off_c, 1, 65, 0
2, 99440, Note_off_c, 1, 68, 0
2, 99440, Note_off_c, 1, 74, 0
2, 99440, Note_off_c, 1, 80, 0
2, 99480, Note_off_c, 1, 33, 0
2, 99480, Note_off_c, 1, 45, 0
2, 99480, Note_on_c, 1, 50, 127
2, 99480, Note_off_c, 1, 71, 0
2, 99480, Note_on_c, 1, 83, 127
2, 99480, Note_on_c, 1, 86, 127
2, 99480, Note_on_c, 1, 95, 127
2, 99520, Note_on_c, 1, 49, 127
2, 99520, Note_off_c, 1, 50, 0
2, 99520, Note_on_c, 1, 56, 127
2, 99520, Note_on_c, 1, 58, 127
2, 99520, Note_off_c, 1, 59, 0
2, 99520, Note_on_c, 1, 61, 127
2, 99520, Note_on_c, 1, 65, 127
2, 99520, Note_on_c, 1, 67, 127
2, 99520, Note_on_c, 1, 77, 127
2, 99520, Note_off_c, 1, 83, 0
2, 99520, Note_off_c, 1, 86, 0
2, 99520, Note_off_c, 1, 95, 0
2, 99560, Note_on_c, 1, 34, 127
2, 99560, Note_on_c, 1, 46, 127
2, 99560, Note_off_c, 1, 49, 0
2, 99560, Note_on_c, 1, 55, 127
2, 99560, Note_off_c, 1, 56, 0
2, 99560, Note_off_c, 1, 58, 0
2, 99560, Note_off_c, 1, 61, 0
2, 99560, Note_on_c, 1, 62, 127
2, 99560, Note_off_c, 1, 65, 0
2, 99560, Note_off_c, 1, 67, 0
2, 99560, Note_off_c, 1, 77, 0
2, 99600, Note_off_c, 1, 34, 0
2, 99600, Note_off_c, 1, 46, 0
2, 99600, Note_off_c, 1, 55, 0
2, 99600, Note_off_c, 1, 62, 0
2, 99640, Note_on_c, 1, 38, 127
2, 99640, Note_on_c, 1, 90, 127
2, 99640, Note_on_c, 1, 93, 127
2, 99640, Note_on_c, 1, 96, 127
2, 99640, Note_on_c, 1, 102, 127
2, 99680, Note_on_c, 1, 50, 127
2, 99680, Note_on_c, 1, 88, 127
2, 99680, Note_off_c, 1, 93, 0
2, 99680, Note_off_c, 1, 96, 0
2, 99680, Note_off_c, 1, 102, 0
2, 99720, Note_off_c, 1, 38, 0
2, 99720, Note_on_c, 1, 49, 127
2, 99720, Note_off_c, 1, 50, 0
2, 99720, Note_on_c, 1, 61, 127
2, 99720, Note_on_c, 1, 66, 127
2, 99720, Note_on_c, 1, 68, 127
2, 99720, Note_off_c, 1, 88, 0
2, 99720, Note_off_c, 1, 90, 0
2, 99760, Note_off_c, 1, 49, 0
2, 99760, Note_off_c, 1, 61, 0
2, 99760, Note_off_c, 1, 66, 0
2, 99760, Note_off_c, 1, 68, 0
2, 99800, Note_on_c, 1, 36, 127
2, 99800, Note_on_c, 1, 46, 127
2, 99800, Note_on_c, 1, 62, 127
2, 99800, Note_on_c, 1, 74, 127
2, 99840, Note_off_c, 1, 36, 0
2, 99840, Note_off_c, 1, 46, 0
2, 99840, Note_on_c, 1, 50, 127
2, 99840, Note_on_c, 1, 55, 127
2, 99840, Note_on_c, 1, 58, 127
2, 99840, Note_off_c, 1, 74, 0
2, 99880, Note_on_c, 1, 37, 127
2, 99880, Note_off_c, 1, 50, 0
2, 99880, Note_off_c, 1, 55, 0
2, 99880, Note_off_c, 1, 58, 0
2, 99880, Note_on_c, 1, 61, 127
2, 99880, Note_off_c, 1, 62, 0
2, 99880, Note_on_c, 1, 77, 127
2, 99880, Note_on_c, 1, 80, 127
2, 99920, Note_off_c, 1, 37, 0
2, 99920, Note_off_c, 1, 61, 0
2, 99920, Note_off_c, 1, 77, 0
2, 99920, Note_off_c, 1, 80, 0
2, 99960, Note_on_c, 1, 47, 127
2, 99960, Note_on_c, 1, 59, 127
2, 99960, Note_on_c, 1, 89, 127
2, 99960, Note_on_c, 1, 95, 127
2, 99960, Note_on_c, 1, 98, 127
2, 99960, Note_on_c, 1, 101, 127
2, 100080, Note_off_c, 1, 47, 0
2, 100080, Note_off_c, 1, 59, 0
2, 100080, Note_on_c, 1, 60, 127
2, 100080, Note_on_c, 1, 67, 127
2, 100080, Note_on_c, 1, 84, 127
2, 100080, Note_on_c, 1, 88, 127
2, 100080, Note_off_c, 1, 89, 0
2, 100080, Note_off_c, 1, 95, 0
2, 100080, Note_on_c, 1, 96, 127
2, 100080, Note_off_c, 1, 98, 0
2, 100080, Note_off_c, 1, 101, 0
2, 100120, Note_off_c, 1, 60, 0
2, 100120, Note_off_c, 1, 67, 0
2, 100120, Note_off_c, 1, 84, 0
2, 100120, Note_off_c, 1, 88, 0
2, 100120, Note_off_c, 1, 96, 0
2, 100160, Note_on_c, 1, 36, 127
2, 100160, Note_on_c, 1, 43, 127
2, 100160, Note_on_c, 1, 67, 127
2, 100160, Note_on_c, 1, 72, 127
2, 100160, Note_on_c, 1, 79, 127
2, 100200, Note_off_c, 1, 36, 0
2, 100200, Note_off_c, 1, 43, 0
2, 100200, Note_on_c, 1, 44, 127
2, 100200, Note_on_c, 1, 52, 127
2, 100200, Note_on_c, 1, 62, 127
2, 100200, Note_off_c, 1, 67, 0
2, 100200, Note_off_c, 1, 72, 0
2, 100200, Note_off_c, 1, 79, 0
2, 100200, Note_on_c, 1, 86, 127
2, 100280, Note_on_c, 1, 43, 127
2, 100280, Note_off_c, 1, 44, 0
2, 100280, Note_on_c, 1, 55, 127
2, 100280, Note_off_c, 1, 62, 0
2, 100280, Note_on_c, 1, 64, 127
2, 100280, Note_on_c, 1, 72, 127
2, 100280, Note_on_c, 1, 76, 127
2, 100280, Note_off_c, 1, 86, 0
2, 100320, Note_off_c, 1, 43, 0
2, 100320, Note_on_c, 1, 46, 127
2, 100320, Note_off_c, 1, 52, 0
2, 100320, Note_off_c, 1, 55, 0
2, 100320, Note_on_c, 1, 58, 127
2, 100320, Note_off_c, 1, 64, 0
2, 100320, Note_off_c, 1, 72, 0
2, 100320, Note_on_c, 1, 74, 127
2, 100320, Note_off_c, 1, 76, 0
2, 100320, Note_on_c, 1, 79, 127
2, 100320, Note_on_c, 1, 84, 127
2, 100360, Note_on_c, 1, 35, 127
2, 100360, Note_on_c, 1, 41, 127
2, 100360, Note_off_c, 1, 46, 0
2, 100360, Note_on_c, 1, 47, 127
2, 100360, Note_off_c, 1, 58, 0
2, 100360, Note_on_c, 1, 65, 127
2, 100360, Note_off_c, 1, 74, 0
2, 100360, Note_off_c, 1, 79, 0
2, 100360, Note_off_c, 1, 84, 0
2, 100400, Note_off_c, 1, 35, 0
2, 100400, Note_off_c, 1, 41, 0
2, 100400, Note_off_c, 1, 47, 0
2, 100400, Note_off_c, 1, 65, 0
2, 100440, Note_on_c, 1, 36, 127
2, 100440, Note_on_c, 1, 43, 127
2, 100440, Note_on_c, 1, 48, 127
2, 100440, Note_on_c, 1, 52, 127
2, 100440, Note_on_c, 1, 60, 127
2, 101320, Note_on_c, 1, 24, 127
2, 101320, Note_off_c, 1, 43, 0
2, 101320, Note_off_c, 1, 48, 0
2, 101320, Note_on_c, 1, 55, 127
2, 101360, Note_off_c, 1, 24, 0
2, 101360, Note_on_c, 1, 43, 127
2, 101360, Note_on_c, 1, 48, 127
2, 101360, Note_off_c, 1, 55, 0
2, 101720, Note_off_c, 1, 36, 0
2, 101720, Note_off_c, 1, 43, 0
2, 101720, Note_off_c, 1, 48, 0
2, 101720, Note_off_c, 1, 52, 0
2, 101720, Note_off_c, 1, 60, 0
2, 101760, Note_on_c, 1, 36, 127
2, 101760, Note_on_c, 1, 43, 127
2, 101760, Note_on_c, 1, 48, 127
2, 101760, Note_on_c, 1, 52, 127
2, 101760, Note_on_c, 1, 60, 127
2, 102360, Note_off_c, 1, 36, 0
2, 102360, Note_off_c, 1, 43, 0
2, 102360, Note_off_c, 1, 48, 0
2, 102360, Note_off_c, 1, 52, 0
2, 102360, Note_off_c, 1, 60, 0
2, 102400, Note_on_c, 1, 28, 127
2, 102400, Note_on_c, 1, 40, 127
2, 102400, Note_on_c, 1, 52, 127
2, 103360, Note_off_c, 1, 28, 0
2, 103360, Note_off_c, 1, 40, 0
2, 103360, Note_off_c, 1, 52, 0
2, 103360, Note_on_c, 1, 66, 127
2, 103360, Note_on_c, 1, 75, 127
2, 103360, Note_on_c, 1, 78, 127
2, 103360, Note_on_c, 1, 82, 127
2, 103360, Note_on_c, 1, 94, 127
2, 103400, Note_on_c, 1, 52, 127
2, 103400, Note_on_c, 1, 57, 127
2, 103400, Note_on_c, 1, 64, 127
2, 103400, Note_off_c, 1, 66, 0
2, 103400, Note_on_c, 1, 67, 127
2, 103400, Note_on_c, 1, 69, 127
2, 103400, Note_off_c, 1, 75, 0
2, 103400, Note_off_c, 1, 78, 0
2, 103400, Note_on_c, 1, 79, 127
2, 103400, Note_off_c, 1, 82, 0
2, 103400, Note_off_c, 1, 94, 0
2, 103440, Note_off_c, 1, 52, 0
2, 103440, Note_off_c, 1, 57, 0
2, 103440, Note_off_c, 1, 64, 0
2, 103440, Note_off_c, 1, 67, 0
2, 103440, Note_off_c, 1, 69, 0
2, 103440, Note_off_c, 1, 79, 0
2, 103480, Note_on_c, 1, 55, 127
2, 103480, Note_on_c, 1, 71, 127
2, 103800, Note_on_c, 1, 59, 127
2, 103840, Note_off_c, 1, 55, 0
2, 103840, Note_off_c, 1, 59, 0
2, 103840, Note_off_c, 1, 71, 0
2, 103880, Note_on_c, 1, 55, 127
2, 103880, Note_on_c, 1, 59, 127
2, 103880, Note_on_c, 1, 62, 127
2, 103880, Note_on_c, 1, 67, 127
2, 103880, Note_on_c, 1, 71, 127
2, 104320, Note_off_c, 1, 55, 0
2, 104320, Note_off_c, 1, 59, 0
2, 104320, Note_off_c, 1, 62, 0
2, 104360, Note_on_c, 1, 52, 127
2, 104360, Note_on_c, 1, 59, 127
2, 104360, Note_on_c, 1, 64, 127
2, 104840, Note_on_c, 1, 49, 127
2, 104840, Note_off_c, 1, 52, 0
2, 104840, Note_on_c, 1, 55, 127
2, 104840, Note_off_c, 1, 59, 0
2, 104840, Note_on_c, 1, 61, 127
2, 104840, Note_off_c, 1, 67, 0
2, 104840, Note_off_c, 1, 71, 0
2, 104880, Note_off_c, 1, 55, 0
2, 104880, Note_on_c, 1, 59, 127
2, 104880, Note_off_c, 1, 61, 0
2, 104880, Note_off_c, 1, 64, 0
2, 104880, Note_on_c, 1, 68, 127
2, 104880, Note_on_c, 1, 73, 127
2, 104880, Note_on_c, 1, 77, 127
2, 104920, Note_off_c, 1, 49, 0
2, 104920, Note_on_c, 1, 53, 127
2, 104920, Note_on_c, 1, 57, 127
2, 104920, Note_off_c, 1, 59, 0
2, 104920, Note_on_c, 1, 64, 127
2, 104920, Note_off_c, 1, 68, 0
2, 104920, Note_off_c, 1, 77, 0
2, 104960, Note_on_c, 1, 35, 127
2, 104960, Note_on_c, 1, 40, 127
2, 104960, Note_on_c, 1, 47, 127
2, 104960, Note_off_c, 1, 53, 0
2, 104960, Note_off_c, 1, 57, 0
2, 104960, Note_on_c, 1, 59, 127
2, 104960, Note_off_c, 1, 64, 0
2, 104960, Note_on_c, 1, 68, 127
2, 104960, Note_on_c, 1, 71, 127
2, 104960, Note_off_c, 1, 73, 0
2, 104960, Note_on_c, 1, 83, 127
2, 104960, Note_on_c, 1, 88, 127
2, 104960, Note_on_c, 1, 92, 127
2, 105000, Note_off_c, 1, 35, 0
2, 105000, Note_off_c, 1, 40, 0
2, 105000, Note_off_c, 1, 47, 0
2, 105000, Note_on_c, 1, 49, 127
2, 105000, Note_on_c, 1, 56, 127
2, 105000, Note_on_c, 1, 58, 127
2, 105000, Note_off_c, 1, 59, 0
2, 105000, Note_on_c, 1, 70, 127
2, 105000, Note_off_c, 1, 71, 0
2, 105000, Note_on_c, 1, 77, 127
2, 105000, Note_on_c, 1, 80, 127
2, 105000, Note_off_c, 1, 83, 0
2, 105000, Note_off_c, 1, 88, 0
2, 105000, Note_off_c, 1, 92, 0
2, 105040, Note_on_c, 1, 47, 127
2, 105040, Note_off_c, 1, 49, 0
2, 105040, Note_on_c, 1, 50, 127
2, 105040, Note_off_c, 1, 58, 0
2, 105040, Note_off_c, 1, 68, 0
2, 105040, Note_off_c, 1, 70, 0
2, 105040, Note_off_c, 1, 77, 0
2, 105040, Note_off_c, 1, 80, 0
2, 105080, Note_off_c, 1, 47, 0
2, 105080, Note_off_c, 1, 50, 0
2, 105080, Note_off_c, 1, 56, 0
2, 105080, Note_on_c, 1, 73, 127
2, 105080, Note_on_c, 1, 78, 127
2, 105080, Note_on_c, 1, 81, 127
2, 105080, Note_on_c, 1, 88, 127
2, 105080, Note_on_c, 1, 93, 127
2, 105120, Note_on_c, 1, 38, 127
2, 105120, Note_on_c, 1, 62, 127
2, 105120, Note_on_c, 1, 67, 127
2, 105120, Note_on_c, 1, 70, 127
2, 105120, Note_off_c, 1, 73, 0
2, 105120, Note_off_c, 1, 78, 0
2, 105120, Note_off_c, 1, 81, 0
2, 105120, Note_off_c, 1, 88, 0
2, 105120, Note_off_c, 1, 93, 0
2, 105160, Note_off_c, 1, 38, 0
2, 105160, Note_on_c, 1, 42, 127
2, 105160, Note_off_c, 1, 62, 0
2, 105160, Note_off_c, 1, 67, 0
2, 105160, Note_off_c, 1, 70, 0
2, 105160, Note_on_c, 1, 73, 127
2, 105160, Note_on_c, 1, 76, 127
2, 105160, Note_on_c, 1, 82, 127
2, 105200, Note_off_c, 1, 42, 0
2, 105200, Note_on_c, 1, 49, 127
2, 105200, Note_on_c, 1, 55, 127
2, 105200, Note_on_c, 1, 58, 127
2, 105200, Note_on_c, 1, 63, 127
2, 105200, Note_off_c, 1, 73, 0
2, 105200, Note_on_c, 1, 75, 127
2, 105200, Note_off_c, 1, 76, 0
2, 105200, Note_on_c, 1, 79, 127
2, 105200, Note_on_c, 1, 87, 127
2, 105240, Note_off_c, 1, 49, 0
2, 105240, Note_on_c, 1, 57, 127
2, 105240, Note_off_c, 1, 58, 0
2, 105240, Note_on_c, 1, 60, 127
2, 105240, Note_off_c, 1, 63, 0
2, 105240, Note_on_c, 1, 64, 127
2, 105240, Note_on_c, 1, 71, 127
2, 105240, Note_off_c, 1, 75, 0
2, 105240, Note_off_c, 1, 79, 0
2, 105240, Note_off_c, 1, 82, 0
2, 105240, Note_off_c, 1, 87, 0
2, 105280, Note_off_c, 1, 57, 0
2, 105280, Note_on_c, 1, 59, 127
2, 105280, Note_off_c, 1, 60, 0
2, 105280, Note_on_c, 1, 62, 127
2, 105280, Note_off_c, 1, 64, 0
2, 105280, Note_on_c, 1, 69, 127
2, 105280, Note_off_c, 1, 71, 0
2, 105280, Note_on_c, 1, 79, 127
2, 105320, Note_on_c, 1, 46, 127
2, 105320, Note_off_c, 1, 55, 0
2, 105320, Note_on_c, 1, 56, 127
2, 105320, Note_off_c, 1, 59, 0
2, 105320, Note_on_c, 1, 65, 127
2, 105320, Note_on_c, 1, 67, 127
2, 105320, Note_off_c, 1, 69, 0
2, 105320, Note_off_c, 1, 79, 0
2, 105360, Note_off_c, 1, 46, 0
2, 105360, Note_on_c, 1, 51, 127
2, 105360, Note_on_c, 1, 54, 127
2, 105360, Note_off_c, 1, 56, 0
2, 105360, Note_on_c, 1, 57, 127
2, 105360, Note_on_c, 1, 60, 127
2, 105360, Note_off_c, 1, 65, 0
2, 105360, Note_off_c, 1, 67, 0
2, 105520, Note_on_c, 1, 46, 127
2, 105520, Note_off_c, 1, 51, 0
2, 105520, Note_off_c, 1, 57, 0
2, 105520, Note_off_c, 1, 60, 0
2, 105520, Note_off_c, 1, 62, 0
2, 105520, Note_on_c, 1, 65, 127
2, 105520, Note_on_c, 1, 73, 127
2, 105560, Note_on_c, 1, 45, 127
2, 105560, Note_off_c, 1, 46, 0
2, 105560, Note_off_c, 1, 54, 0
2, 105560, Note_on_c, 1, 57, 127
2, 105560, Note_off_c, 1, 65, 0
2, 105560, Note_off_c, 1, 73, 0
2, 105600, Note_on_c, 1, 37, 127
2, 105600, Note_off_c, 1, 45, 0
2, 105600, Note_on_c, 1, 49, 127
2, 105600, Note_off_c, 1, 57, 0
2, 105600, Note_on_c, 1, 59, 127
2, 105600, Note_on_c, 1, 66, 127
2, 105600, Note_on_c, 1, 71, 127
2, 105800, Note_on_c, 1, 31, 127
2, 105800, Note_on_c, 1, 36, 127
2, 105800, Note_off_c, 1, 37, 0
2, 105800, Note_on_c, 1, 38, 127
2, 105800, Note_off_c, 1, 49, 0
2, 105800, Note_off_c, 1, 59, 0
2, 105800, Note_off_c, 1, 66, 0
2, 105800, Note_on_c, 1, 77, 127
2, 105800, Note_on_c, 1, 80, 127
2, 105840, Note_off_c, 1, 31, 0
2, 105840, Note_off_c, 1, 36, 0
2, 105840, Note_off_c, 1, 38, 0
2, 105840, Note_off_c, 1, 71, 0
2, 105840, Note_off_c, 1, 77, 0
2, 105840, Note_off_c, 1, 80, 0
2, 105880, Note_on_c, 1, 46, 127
2, 105880, Note_on_c, 1, 86, 127
2, 105880, Note_on_c, 1, 91, 127
2, 105920, Note_on_c, 1, 45, 127
2, 105920, Note_off_c, 1, 46, 0
2, 105920, Note_on_c, 1, 47, 127
2, 105920, Note_on_c, 1, 57, 127
2, 105920, Note_on_c, 1, 63, 127
2, 105920, Note_on_c, 1, 66, 127
2, 105920, Note_on_c, 1, 71, 127
2, 105920, Note_on_c, 1, 75, 127
2, 105920, Note_off_c, 1, 86, 0
2, 105920, Note_off_c, 1, 91, 0
2, 105960, Note_off_c, 1, 45, 0
2, 105960, Note_off_c, 1, 47, 0
2, 105960, Note_off_c, 1, 57, 0
2, 105960, Note_off_c, 1, 63, 0
2, 105960, Note_off_c, 1, 66, 0
2, 105960, Note_off_c, 1, 71, 0
2, 105960, Note_off_c, 1, 75, 0
2, 106000, Note_on_c, 1, 41, 127
2, 106000, Note_on_c, 1, 45, 127
2, 106000, Note_on_c, 1, 61, 127
2, 106000, Note_on_c, 1, 64, 127
2, 106000, Note_on_c, 1, 67, 127
2, 106000, Note_on_c, 1, 69, 127
2, 106040, Note_off_c, 1, 41, 0
2, 106040, Note_off_c, 1, 45, 0
2, 106040, Note_on_c, 1, 52, 127
2, 106040, Note_on_c, 1, 54, 127
2, 106040, Note_off_c, 1, 61, 0
2, 106040, Note_off_c, 1, 64, 0
2, 106040, Note_off_c, 1, 67, 0
2, 106040, Note_off_c, 1, 69, 0
2, 106040, Note_on_c, 1, 73, 127
2, 106040, Note_on_c, 1, 75, 127
2, 106080, Note_on_c, 1, 43, 127
2, 106080, Note_on_c, 1, 51, 127
2, 106080, Note_off_c, 1, 52, 0
2, 106080, Note_off_c, 1, 54, 0
2, 106080, Note_on_c, 1, 59, 127
2, 106080, Note_on_c, 1, 67, 127
2, 106080, Note_off_c, 1, 73, 0
2, 106080, Note_off_c, 1, 75, 0
2, 106080, Note_on_c, 1, 79, 127
2, 106120, Note_off_c, 1, 51, 0
2, 106120, Note_off_c, 1, 59, 0
2, 106120, Note_off_c, 1, 67, 0
2, 106120, Note_off_c, 1, 79, 0
2, 106160, Note_off_c, 1, 43, 0
2, 106160, Note_on_c, 1, 47, 127
2, 106160, Note_on_c, 1, 52, 127
2, 106160, Note_on_c, 1, 65, 127
2, 106160, Note_on_c, 1, 69, 127
2, 106160, Note_on_c, 1, 77, 127
2, 106200, Note_on_c, 1, 41, 127
2, 106200, Note_off_c, 1, 47, 0
2, 106200, Note_off_c, 1, 52, 0
2, 106200, Note_off_c, 1, 65, 0
2, 106200, Note_on_c, 1, 67, 127
2, 106200, Note_off_c, 1, 69, 0
2, 106200, Note_on_c, 1, 70, 127
2, 106200, Note_on_c, 1, 74, 127
2, 106240, Note_off_c, 1, 41, 0
2, 106240, Note_on_c, 1, 44, 127
2, 106240, Note_on_c, 1, 49, 127
2, 106240, Note_off_c, 1, 67, 0
2, 106240, Note_off_c, 1, 70, 0
2, 106240, Note_on_c, 1, 71, 127
2, 106240, Note_off_c, 1, 74, 0
2, 106240, Note_on_c, 1, 76, 127
2, 106240, Note_off_c, 1, 77, 0
2, 106240, Note_on_c, 1, 83, 127
2, 106280, Note_on_c, 1, 41, 127
2, 106280, Note_off_c, 1, 44, 0
2, 106280, Note_off_c, 1, 49, 0
2, 106280, Note_on_c, 1, 67, 127
2, 106280, Note_on_c, 1, 70, 127
2, 106280, Note_off_c, 1, 71, 0
2, 106280, Note_on_c, 1, 74, 127
2, 106280, Note_off_c, 1, 76, 0
2, 106280, Note_on_c, 1, 77, 127
2, 106280, Note_off_c, 1, 83, 0
2, 106360, Note_off_c, 1, 41, 0
2, 106360, Note_off_c, 1, 67, 0
2, 106360, Note_off_c, 1, 70, 0
2, 106360, Note_off_c, 1, 74, 0
2, 106360, Note_off_c, 1, 77, 0
2, 106400, Note_on_c, 1, 44, 127
2, 106400, Note_on_c, 1, 56, 127
2, 106400, Note_on_c, 1, 72, 127
2, 106400, Note_on_c, 1, 75, 127
2, 106400, Note_on_c, 1, 84, 127
2, 106640, Note_off_c, 1, 44, 0
2, 106640, Note_off_c, 1, 56, 0
2, 106640, Note_off_c, 1, 72, 0
2, 106640, Note_off_c, 1, 75, 0
2, 106640, Note_off_c, 1, 84, 0
2, 106680, Note_on_c, 1, 43, 127
2, 106680, Note_on_c, 1, 55, 127
2, 106680, Note_on_c, 1, 71, 127
2, 106680, Note_on_c, 1, 77, 127
2, 106680, Note_on_c, 1, 83, 127
2, 106880, Note_off_c, 1, 43, 0
2, 106880, Note_off_c, 1, 55, 0
2, 106880, Note_off_c, 1, 71, 0
2, 106880, Note_off_c, 1, 77, 0
2, 106880, Note_off_c, 1, 83, 0
2, 106920, Note_on_c, 1, 40, 127
2, 106920, Note_on_c, 1, 52, 127
2, 106920, Note_on_c, 1, 88, 127
2, 106920, Note_on_c, 1, 100, 127
2, 107160, Note_off_c, 1, 40, 0
2, 107160, Note_off_c, 1, 52, 0
2, 107160, Note_off_c, 1, 88, 0
2, 107160, Note_off_c, 1, 100, 0
2, 107200, Note_on_c, 1, 45, 127
2, 107200, Note_on_c, 1, 49, 127
2, 107200, Note_on_c, 1, 52, 127
2, 107200, Note_on_c, 1, 57, 127
2, 107200, Note_on_c, 1, 69, 127
2, 107200, Note_on_c, 1, 73, 127
2, 107200, Note_on_c, 1, 76, 127
2, 107200, Note_on_c, 1, 81, 127
2, 107680, Note_off_c, 1, 45, 0
2, 107680, Note_off_c, 1, 49, 0
2, 107680, Note_off_c, 1, 52, 0
2, 107680, Note_off_c, 1, 57, 0
2, 107680, Note_on_c, 1, 59, 127
2, 107680, Note_on_c, 1, 62, 127
2, 107680, Note_off_c, 1, 69, 0
2, 107680, Note_off_c, 1, 73, 0
2, 107680, Note_off_c, 1, 76, 0
2, 107680, Note_on_c, 1, 79, 127
2, 107680, Note_off_c, 1, 81, 0
2, 107680, Note_on_c, 1, 91, 127
2, 107720, Note_on_c, 1, 52, 127
2, 107720, Note_on_c, 1, 55, 127
2, 107720, Note_off_c, 1, 59, 0
2, 107720, Note_off_c, 1, 62, 0
2, 107720, Note_on_c, 1, 64, 127
2, 107720, Note_on_c, 1, 67, 127
2, 107720, Note_off_c, 1, 79, 0
2, 107720, Note_on_c, 1, 81, 127
2, 107720, Note_off_c, 1, 91, 0
2, 107760, Note_on_c, 1, 35, 127
2, 107760, Note_on_c, 1, 42, 127
2, 107760, Note_off_c, 1, 52, 0
2, 107760, Note_off_c, 1, 55, 0
2, 107760, Note_on_c, 1, 62, 127
2, 107760, Note_off_c, 1, 64, 0
2, 107760, Note_on_c, 1, 66, 127
2, 107760, Note_off_c, 1, 67, 0
2, 107760, Note_off_c, 1, 81, 0
2, 107800, Note_off_c, 1, 35, 0
2, 107800, Note_off_c, 1, 42, 0
2, 107800, Note_on_c, 1, 61, 127
2, 107800, Note_off_c, 1, 62, 0
2, 107800, Note_off_c, 1, 66, 0
2, 107800, Note_on_c, 1, 68, 127
2, 107800, Note_on_c, 1, 71, 127
2, 107800, Note_on_c, 1, 74, 127
2, 107800, Note_on_c, 1, 78, 127
2, 107840, Note_on_c, 1, 42, 127
2, 107840, Note_on_c, 1, 54, 127
2, 107840, Note_on_c, 1, 56, 127
2, 107840, Note_on_c, 1, 64, 127
2, 107840, Note_off_c, 1, 68, 0
2, 107840, Note_off_c, 1, 71, 0
2, 107840, Note_off_c, 1, 74, 0
2, 107840, Note_off_c, 1, 78, 0
2, 107880, Note_off_c, 1, 42, 0
2, 107880, Note_on_c, 1, 52, 127
2, 107880, Note_off_c, 1, 54, 0
2, 107880, Note_on_c, 1, 60, 127
2, 107880, Note_off_c, 1, 61, 0
2, 107880, Note_on_c, 1, 68, 127
2, 107880, Note_on_c, 1, 72, 127
2, 107920, Note_on_c, 1, 44, 127
2, 107920, Note_off_c, 1, 52, 0
2, 107920, Note_off_c, 1, 56, 0
2, 107920, Note_off_c, 1, 60, 0
2, 107920, Note_off_c, 1, 64, 0
2, 107920, Note_off_c, 1, 68, 0
2, 107920, Note_off_c, 1, 72, 0
2, 107920, Note_on_c, 1, 90, 127
2, 107920, Note_on_c, 1, 93, 127
2, 107960, Note_off_c, 1, 44, 0
2, 107960, Note_on_c, 1, 52, 127
2, 107960, Note_on_c, 1, 54, 127
2, 107960, Note_on_c, 1, 58, 127
2, 107960, Note_on_c, 1, 64, 127
2, 107960, Note_off_c, 1, 90, 0
2, 107960, Note_off_c, 1, 93, 0
2, 108000, Note_off_c, 1, 52, 0
2, 108000, Note_off_c, 1, 54, 0
2, 108000, Note_off_c, 1, 58, 0
2, 108000, Note_off_c, 1, 64, 0
2, 108040, Note_on_c, 1, 49, 127
2, 108040, Note_on_c, 1, 55, 127
2, 108040, Note_on_c, 1, 58, 127
2, 108040, Note_on_c, 1, 61, 127
2, 108080, Note_on_c, 1, 42, 127
2, 108080, Note_off_c, 1, 49, 0
2, 108080, Note_on_c, 1, 54, 127
2, 108080, Note_off_c, 1, 55, 0
2, 108080, Note_off_c, 1, 58, 0
2, 108080, Note_off_c, 1, 61, 0
2, 108080, Note_on_c, 1, 64, 127
2, 108080, Note_on_c, 1, 73, 127
2, 108120, Note_off_c, 1, 42, 0
2, 108120, Note_off_c, 1, 54, 0
2, 108120, Note_on_c, 1, 61, 127
2, 108120, Note_off_c, 1, 64, 0
2, 108120, Note_on_c, 1, 66, 127
2, 108120, Note_on_c, 1, 70, 127
2, 108120, Note_off_c, 1, 73, 0
2, 108120, Note_on_c, 1, 88, 127
2, 108160, Note_off_c, 1, 61, 0
2, 108160, Note_off_c, 1, 66, 0
2, 108160, Note_off_c, 1, 70, 0
2, 108160, Note_on_c, 1, 78, 127
2, 108160, Note_off_c, 1, 88, 0
2, 108400, Note_on_c, 1, 59, 127
2, 108400, Note_off_c, 1, 78, 0
2, 108400, Note_on_c, 1, 80, 127
2, 108400, Note_on_c, 1, 81, 127
2, 108440, Note_off_c, 1, 80, 0
2, 108440, Note_off_c, 1, 81, 0
2, 108480, Note_on_c, 1, 43, 127
2, 108480, Note_on_c, 1, 49, 127
2, 108480, Note_on_c, 1, 61, 127
2, 108520, Note_off_c, 1, 49, 0
2, 108520, Note_on_c, 1, 50, 127
2, 108520, Note_off_c, 1, 59, 0
2, 108520, Note_off_c, 1, 61, 0
2, 108520, Note_on_c, 1, 71, 127
2, 108520, Note_on_c, 1, 79, 127
2, 108520, Note_on_c, 1, 91, 127
2, 108560, Note_off_c, 1, 43, 0
2, 108560, Note_off_c, 1, 50, 0
2, 108560, Note_on_c, 1, 64, 127
2, 108560, Note_off_c, 1, 71, 0
2, 108560, Note_off_c, 1, 79, 0
2, 108560, Note_on_c, 1, 82, 127
2, 108600, Note_on_c, 1, 39, 127
2, 108600, Note_on_c, 1, 63, 127
2, 108600, Note_off_c, 1, 64, 0
2, 108600, Note_on_c, 1, 78, 127
2, 108600, Note_off_c, 1, 82, 0
2, 108600, Note_off_c, 1, 91, 0
2, 108640, Note_on_c, 1, 28, 127
2, 108640, Note_off_c, 1, 39, 0
2, 108640, Note_on_c, 1, 48, 127
2, 108640, Note_on_c, 1, 52, 127
2, 108640, Note_on_c, 1, 55, 127
2, 108640, Note_on_c, 1, 60, 127
2, 108640, Note_off_c, 1, 63, 0
2, 108640, Note_on_c, 1, 67, 127
2, 108640, Note_on_c, 1, 72, 127
2, 108640, Note_on_c, 1, 76, 127
2, 108640, Note_off_c, 1, 78, 0
2, 108640, Note_on_c, 1, 79, 127
2, 108640, Note_on_c, 1, 84, 127
2, 108640, Note_on_c, 1, 88, 127
2, 108680, Note_off_c, 1, 28, 0
2, 108680, Note_on_c, 1, 46, 127
2, 108680, Note_off_c, 1, 48, 0
2, 108680, Note_off_c, 1, 52, 0
2, 108680, Note_off_c, 1, 55, 0
2, 108680, Note_on_c, 1, 59, 127
2, 108680, Note_off_c, 1, 60, 0
2, 108680, Note_on_c, 1, 65, 127
2, 108680, Note_off_c, 1, 67, 0
2, 108680, Note_on_c, 1, 68, 127
2, 108680, Note_off_c, 1, 72, 0
2, 108680, Note_off_c, 1, 76, 0
2, 108680, Note_off_c, 1, 79, 0
2, 108680, Note_off_c, 1, 84, 0
2, 108680, Note_off_c, 1, 88, 0
2, 108720, Note_off_c, 1, 46, 0
2, 108720, Note_off_c, 1, 59, 0
2, 108720, Note_on_c, 1, 60, 127
2, 108720, Note_off_c, 1, 65, 0
2, 108720, Note_off_c, 1, 68, 0
2, 108760, Note_on_c, 1, 41, 127
2, 108760, Note_on_c, 1, 58, 127
2, 108760, Note_off_c, 1, 60, 0
2, 108760, Note_on_c, 1, 62, 127
2, 108760, Note_on_c, 1, 70, 127
2, 108760, Note_on_c, 1, 74, 127
2, 108960, Note_off_c, 1, 41, 0
2, 108960, Note_on_c, 1, 50, 127
2, 108960, Note_off_c, 1, 58, 0
2, 108960, Note_off_c, 1, 62, 0
2, 108960, Note_off_c, 1, 70, 0
2, 108960, Note_on_c, 1, 72, 127
2, 108960, Note_off_c, 1, 74, 0
2, 108960, Note_on_c, 1, 77, 127
2, 109000, Note_on_c, 1, 48, 127
2, 109000, Note_off_c, 1, 50, 0
2, 109000, Note_on_c, 1, 54, 127
2, 109000, Note_on_c, 1, 62, 127
2, 109000, Note_off_c, 1, 72, 0
2, 109000, Note_off_c, 1, 77, 0
2, 109000, Note_on_c, 1, 85, 127
2, 109040, Note_off_c, 1, 48, 0
2, 109040, Note_on_c, 1, 53, 127
2, 109040, Note_off_c, 1, 54, 0
2, 109040, Note_on_c, 1, 60, 127
2, 109040, Note_off_c, 1, 62, 0
2, 109040, Note_on_c, 1, 65, 127
2, 109040, Note_on_c, 1, 79, 127
2, 109040, Note_off_c, 1, 85, 0
2, 109080, Note_on_c, 1, 48, 127
2, 109080, Note_on_c, 1, 50, 127
2, 109080, Note_off_c, 1, 53, 0
2, 109080, Note_off_c, 1, 60, 0
2, 109080, Note_off_c, 1, 65, 0
2, 109080, Note_off_c, 1, 79, 0
2, 109080, Note_on_c, 1, 81, 127
2, 109120, Note_off_c, 1, 48, 0
2, 109120, Note_off_c, 1, 50, 0
2, 109120, Note_on_c, 1, 53, 127
2, 109120, Note_on_c, 1, 57, 127
2, 109120, Note_on_c, 1, 72, 127
2, 109120, Note_on_c, 1, 79, 127
2, 109120, Note_off_c, 1, 81, 0
2, 109160, Note_off_c, 1, 57, 0
2, 109160, Note_on_c, 1, 60, 127
2, 109160, Note_on_c, 1, 69, 127
2, 109160, Note_off_c, 1, 72, 0
2, 109160, Note_off_c, 1, 79, 0
2, 109160, Note_on_c, 1, 81, 127
2, 109200, Note_on_c, 1, 50, 127
2, 109200, Note_off_c, 1, 53, 0
2, 109200, Note_off_c, 1, 60, 0
2, 109200, Note_off_c, 1, 69, 0
2, 109200, Note_on_c, 1, 76, 127
2, 109240, Note_off_c, 1, 50, 0
2, 109240, Note_off_c, 1, 76, 0
2, 109240, Note_off_c, 1, 81, 0
2, 109280, Note_on_c, 1, 38, 127
2, 109280, Note_on_c, 1, 45, 127
2, 109280, Note_on_c, 1, 50, 127
2, 109280, Note_on_c, 1, 62, 127
2, 109280, Note_on_c, 1, 69, 127
2, 109280, Note_on_c, 1, 74, 127
2, 109480, Note_off_c, 1, 45, 0
2, 109480, Note_off_c, 1, 50, 0
2, 109480, Note_on_c, 1, 59, 127
2, 109480, Note_on_c, 1, 60, 127
2, 109480, Note_off_c, 1, 62, 0
2, 109480, Note_on_c, 1, 64, 127
2, 109480, Note_off_c, 1, 69, 0
2, 109480, Note_off_c, 1, 74, 0
2, 109520, Note_off_c, 1, 38, 0
2, 109520, Note_on_c, 1, 54, 127
2, 109520, Note_on_c, 1, 57, 127
2, 109520, Note_off_c, 1, 59, 0
2, 109520, Note_off_c, 1, 64, 0
2, 109520, Note_on_c, 1, 75, 127
2, 109520, Note_on_c, 1, 81, 127
2, 109520, Note_on_c, 1, 87, 127
2, 109720, Note_on_c, 1, 47, 127
2, 109720, Note_on_c, 1, 51, 127
2, 109720, Note_off_c, 1, 57, 0
2, 109720, Note_on_c, 1, 59, 127
2, 109720, Note_off_c, 1, 60, 0
2, 109720, Note_off_c, 1, 75, 0
2, 109720, Note_on_c, 1, 79, 127
2, 109720, Note_off_c, 1, 81, 0
2, 109720, Note_off_c, 1, 87, 0
2, 109760, Note_off_c, 1, 47, 0
2, 109760, Note_off_c, 1, 51, 0
2, 109760, Note_off_c, 1, 54, 0
2, 109760, Note_off_c, 1, 59, 0
2, 109760, Note_off_c, 1, 79, 0
2, 109840, Note_on_c, 1, 60, 127
2, 109840, Note_on_c, 1, 74, 127
2, 109840, Note_on_c, 1, 78, 127
2, 109840, Note_on_c, 1, 81, 127
2, 109840, Note_on_c, 1, 86, 127
2, 109880, Note_off_c, 1, 60, 0
2, 109880, Note_on_c, 1, 63, 127
2, 109880, Note_on_c, 1, 66, 127
2, 109880, Note_on_c, 1, 68, 127
2, 109880, Note_on_c, 1, 72, 127
2, 109880, Note_off_c, 1, 74, 0
2, 109880, Note_on_c, 1, 77, 127
2, 109880, Note_off_c, 1, 78, 0
2, 109880, Note_on_c, 1, 80, 127
2, 109880, Note_off_c, 1, 81, 0
2, 109880, Note_off_c, 1, 86, 0
2, 109880, Note_on_c, 1, 89, 127
2, 109920, Note_on_c, 1, 49, 127
2, 109920, Note_on_c, 1, 56, 127
2, 109920, Note_on_c, 1, 59, 127
2, 109920, Note_on_c, 1, 61, 127
2, 109920, Note_off_c, 1, 63, 0
2, 109920, Note_off_c, 1, 66, 0
2, 109920, Note_off_c, 1, 68, 0
2, 109920, Note_off_c, 1, 72, 0
2, 109920, Note_off_c, 1, 80, 0
2, 109920, Note_off_c, 1, 89, 0
2, 109960, Note_on_c, 1, 53, 127
2, 109960, Note_off_c, 1, 56, 0
2, 109960, Note_off_c, 1, 59, 0
2, 109960, Note_on_c, 1, 69, 127
2, 109960, Note_off_c, 1, 77, 0
2, 110000, Note_off_c, 1, 49, 0
2, 110000, Note_off_c, 1, 53, 0
2, 110000, Note_off_c, 1, 61, 0
2, 110000, Note_off_c, 1, 69, 0
2, 110040, Note_on_c, 1, 50, 127
2, 110040, Note_on_c, 1, 53, 127
2, 110040, Note_on_c, 1, 57, 127
2, 110040, Note_on_c, 1, 62, 127
2, 110040, Note_on_c, 1, 89, 127
2, 110080, Note_off_c, 1, 50, 0
2, 110080, Note_off_c, 1, 53, 0
2, 110080, Note_on_c, 1, 56, 127
2, 110080, Note_off_c, 1, 57, 0
2, 110080, Note_off_c, 1, 62, 0
2, 110080, Note_on_c, 1, 63, 127
2, 110080, Note_on_c, 1, 66, 127
2, 110080, Note_on_c, 1, 68, 127
2, 110080, Note_on_c, 1, 84, 127
2, 110080, Note_on_c, 1, 87, 127
2, 110080, Note_off_c, 1, 89, 0
2, 110080, Note_on_c, 1, 90, 127
2, 110080, Note_on_c, 1, 92, 127
2, 110080, Note_on_c, 1, 96, 127
2, 110120, Note_on_c, 1, 53, 127
2, 110120, Note_off_c, 1, 56, 0
2, 110120, Note_off_c, 1, 63, 0
2, 110120, Note_off_c, 1, 66, 0
2, 110120, Note_off_c, 1, 68, 0
2, 110120, Note_on_c, 1, 75, 127
2, 110120, Note_on_c, 1, 77, 127
2, 110120, Note_on_c, 1, 81, 127
2, 110120, Note_off_c, 1, 87, 0
2, 110120, Note_off_c, 1, 90, 0
2, 110120, Note_off_c, 1, 92, 0
2, 110120, Note_off_c, 1, 96, 0
2, 110160, Note_on_c, 1, 39, 127
2, 110160, Note_on_c, 1, 51, 127
2, 110160, Note_off_c, 1, 53, 0
2, 110160, Note_on_c, 1, 58, 127
2, 110160, Note_on_c, 1, 61, 127
2, 110160, Note_on_c, 1, 67, 127
2, 110160, Note_off_c, 1, 75, 0
2, 110160, Note_off_c, 1, 77, 0
2, 110160, Note_off_c, 1, 81, 0
2, 110160, Note_off_c, 1, 84, 0
2, 110160, Note_on_c, 1, 93, 127
2, 110200, Note_off_c, 1, 39, 0
2, 110200, Note_off_c, 1, 51, 0
2, 110200, Note_off_c, 1, 58, 0
2, 110200, Note_on_c, 1, 59, 127
2, 110200, Note_off_c, 1, 61, 0
2, 110200, Note_on_c, 1, 62, 127
2, 110200, Note_on_c, 1, 64, 127
2, 110200, Note_off_c, 1, 67, 0
2, 110200, Note_on_c, 1, 73, 127
2, 110200, Note_off_c, 1, 93, 0
2, 110240, Note_off_c, 1, 59, 0
2, 110240, Note_off_c, 1, 64, 0
2, 110240, Note_on_c, 1, 66, 127
2, 110240, Note_on_c, 1, 68, 127
2, 110240, Note_on_c, 1, 71, 127
2, 110240, Note_off_c, 1, 73, 0
2, 110240, Note_on_c, 1, 78, 127
2, 110240, Note_on_c, 1, 80, 127
2, 110280, Note_on_c, 1, 49, 127
2, 110280, Note_on_c, 1, 52, 127
2, 110280, Note_on_c, 1, 58, 127
2, 110280, Note_off_c, 1, 62, 0
2, 110280, Note_off_c, 1, 66, 0
2, 110280, Note_off_c, 1, 68, 0
2, 110280, Note_off_c, 1, 71, 0
2, 110280, Note_off_c, 1, 78, 0
2, 110280, Note_off_c, 1, 80, 0
2, 110280, Note_on_c, 1, 88, 127
2, 110320, Note_on_c, 1, 47, 127
2, 110320, Note_off_c, 1, 49, 0
2, 110320, Note_off_c, 1, 52, 0
2, 110320, Note_off_c, 1, 58, 0
2, 110320, Note_on_c, 1, 87, 127
2, 110320, Note_off_c, 1, 88, 0
2, 110360, Note_off_c, 1, 47, 0
2, 110360, Note_on_c, 1, 59, 127
2, 110360, Note_on_c, 1, 63, 127
2, 110360, Note_on_c, 1, 66, 127
2, 110360, Note_on_c, 1, 90, 127
2, 110360, Note_on_c, 1, 95, 127
2, 110400, Note_off_c, 1, 59, 0
2, 110400, Note_off_c, 1, 63, 0
2, 110400, Note_on_c, 1, 73, 127
2, 110400, Note_on_c, 1, 76, 127
2, 110400, Note_on_c, 1, 78, 127
2, 110400, Note_on_c, 1, 82, 127
2, 110400, Note_off_c, 1, 87, 0
2, 110400, Note_off_c, 1, 95, 0
2, 110440, Note_off_c, 1, 66, 0
2, 110440, Note_off_c, 1, 73, 0
2, 110440, Note_off_c, 1, 76, 0
2, 110440, Note_off_c, 1, 78, 0
2, 110440, Note_off_c, 1, 82, 0
2, 110440, Note_off_c, 1, 90, 0
2, 110480, Note_on_c, 1, 58, 127
2, 110480, Note_on_c, 1, 64, 127
2, 110480, Note_on_c, 1, 79, 127
2, 110480, Note_on_c, 1, 81, 127
2, 110520, Note_off_c, 1, 58, 0
2, 110520, Note_on_c, 1, 63, 127
2, 110520, Note_off_c, 1, 64, 0
2, 110520, Note_on_c, 1, 72, 127
2, 110520, Note_off_c, 1, 79, 0
2, 110520, Note_on_c, 1, 80, 127
2, 110520, Note_off_c, 1, 81, 0
2, 110520, Note_on_c, 1, 89, 127
2, 110560, Note_on_c, 1, 58, 127
2, 110560, Note_off_c, 1, 63, 0
2, 110560, Note_on_c, 1, 64, 127
2, 110560, Note_off_c, 1, 72, 0
2, 110560, Note_on_c, 1, 79, 127
2, 110560, Note_off_c, 1, 80, 0
2, 110560, Note_on_c, 1, 81, 127
2, 110560, Note_off_c, 1, 89, 0
2, 110600, Note_on_c, 1, 48, 127
2, 110600, Note_off_c, 1, 58, 0
2, 110600, Note_off_c, 1, 64, 0
2, 110600, Note_off_c, 1, 79, 0
2, 110600, Note_off_c, 1, 81, 0
2, 110600, Note_on_c, 1, 82, 127
2, 110600, Note_on_c, 1, 86, 127
2, 110600, Note_on_c, 1, 94, 127
2, 110640, Note_off_c, 1, 48, 0
2, 110640, Note_on_c, 1, 58, 127
2, 110640, Note_on_c, 1, 64, 127
2, 110640, Note_on_c, 1, 79, 127
2, 110640, Note_on_c, 1, 81, 127
2, 110640, Note_off_c, 1, 82, 0
2, 110640, Note_off_c, 1, 86, 0
2, 110640, Note_off_c, 1, 94, 0
2, 110840, Note_off_c, 1, 58, 0
2, 110840, Note_off_c, 1, 64, 0
2, 110840, Note_off_c, 1, 81, 0
2, 110840, Note_on_c, 1, 88, 127
2, 110880, Note_on_c, 1, 36, 127
2, 110880, Note_on_c, 1, 48, 127
2, 110880, Note_on_c, 1, 52, 127
2, 110880, Note_on_c, 1, 60, 127
2, 110880, Note_off_c, 1, 79, 0
2, 110880, Note_off_c, 1, 88, 0
2, 111080, Note_off_c, 1, 36, 0
2, 111080, Note_off_c, 1, 48, 0
2, 111080, Note_off_c, 1, 52, 0
2, 111080, Note_off_c, 1, 60, 0
2, 111120, Note_on_c, 1, 48, 127
2, 111120, Note_on_c, 1, 55, 127
2, 111120, Note_on_c, 1, 64, 127
2, 111120, Note_on_c, 1, 69, 127
2, 111160, Note_off_c, 1, 48, 0
2, 111160, Note_off_c, 1, 55, 0
2, 111160, Note_off_c, 1, 64, 0
2, 111160, Note_off_c, 1, 69, 0
2, 111200, Note_on_c, 1, 48, 127
2, 111200, Note_on_c, 1, 55, 127
2, 111200, Note_on_c, 1, 64, 127
2, 111200, Note_on_c, 1, 69, 127
2, 111240, Note_off_c, 1, 48, 0
2, 111240, Note_off_c, 1, 55, 0
2, 111240, Note_off_c, 1, 64, 0
2, 111240, Note_off_c, 1, 69, 0
2, 111280, Note_on_c, 1, 48, 127
2, 111280, Note_on_c, 1, 55, 127
2, 111280, Note_on_c, 1, 64, 127
2, 111280, Note_on_c, 1, 69, 127
2, 111360, Note_off_c, 1, 48, 0
2, 111360, Note_off_c, 1, 55, 0
2, 111360, Note_off_c, 1, 64, 0
2, 111360, Note_off_c, 1, 69, 0
2, 111400, Note_on_c, 1, 47, 127
2, 111400, Note_on_c, 1, 50, 127
2, 111400, Note_on_c, 1, 55, 127
2, 111400, Note_on_c, 1, 71, 127
2, 111440, Note_off_c, 1, 47, 0
2, 111440, Note_off_c, 1, 50, 0
2, 111440, Note_off_c, 1, 55, 0
2, 111440, Note_on_c, 1, 67, 127
2, 111440, Note_off_c, 1, 71, 0
2, 111480, Note_on_c, 1, 47, 127
2, 111480, Note_on_c, 1, 50, 127
2, 111480, Note_on_c, 1, 55, 127
2, 111480, Note_off_c, 1, 67, 0
2, 111480, Note_on_c, 1, 71, 127
2, 111520, Note_off_c, 1, 47, 0
2, 111520, Note_off_c, 1, 50, 0
2, 111520, Note_off_c, 1, 55, 0
2, 111520, Note_off_c, 1, 71, 0
2, 111560, Note_on_c, 1, 47, 127
2, 111560, Note_on_c, 1, 50, 127
2, 111560, Note_on_c, 1, 55, 127
2, 111560, Note_on_c, 1, 66, 127
2, 111640, Note_off_c, 1, 47, 0
2, 111640, Note_off_c, 1, 50, 0
2, 111640, Note_off_c, 1, 55, 0
2, 111640, Note_off_c, 1, 66, 0
2, 111680, Note_on_c, 1, 31, 127
2, 111680, Note_on_c, 1, 59, 127
2, 111680, Note_on_c, 1, 62, 127
2, 111680, Note_on_c, 1, 67, 127
2, 111720, Note_off_c, 1, 31, 0
2, 111720, Note_off_c, 1, 59, 0
2, 111720, Note_off_c, 1, 62, 0
2, 111720, Note_off_c, 1, 67, 0
2, 111760, Note_on_c, 1, 38, 127
2, 111760, Note_on_c, 1, 50, 127
2, 111760, Note_on_c, 1, 57, 127
2, 111760, Note_on_c, 1, 60, 127
2, 111800, Note_off_c, 1, 38, 0
2, 111800, Note_on_c, 1, 45, 127
2, 111800, Note_off_c, 1, 50, 0
2, 111800, Note_off_c, 1, 57, 0
2, 111800, Note_off_c, 1, 60, 0
2, 111800, Note_on_c, 1, 64, 127
2, 111800, Note_on_c, 1, 80, 127
2, 111840, Note_on_c, 1, 40, 127
2, 111840, Note_off_c, 1, 45, 0
2, 111840, Note_on_c, 1, 48, 127
2, 111840, Note_on_c, 1, 52, 127
2, 111840, Note_off_c, 1, 64, 0
2, 111840, Note_on_c, 1, 67, 127
2, 111840, Note_on_c, 1, 70, 127
2, 111840, Note_off_c, 1, 80, 0
2, 111880, Note_on_c, 1, 30, 127
2, 111880, Note_off_c, 1, 40, 0
2, 111880, Note_on_c, 1, 42, 127
2, 111880, Note_off_c, 1, 48, 0
2, 111880, Note_off_c, 1, 52, 0
2, 111880, Note_off_c, 1, 67, 0
2, 111880, Note_off_c, 1, 70, 0
2, 111880, Note_on_c, 1, 85, 127
2, 111880, Note_on_c, 1, 93, 127
2, 111920, Note_off_c, 1, 30, 0
2, 111920, Note_on_c, 1, 39, 127
2, 111920, Note_off_c, 1, 42, 0
2, 111920, Note_on_c, 1, 48, 127
2, 111920, Note_on_c, 1, 78, 127
2, 111920, Note_off_c, 1, 85, 0
2, 111920, Note_off_c, 1, 93, 0
2, 111960, Note_on_c, 1, 28, 127
2, 111960, Note_off_c, 1, 39, 0
2, 111960, Note_on_c, 1, 40, 127
2, 111960, Note_off_c, 1, 48, 0
2, 111960, Note_on_c, 1, 61, 127
2, 111960, Note_off_c, 1, 78, 0
2, 112000, Note_off_c, 1, 28, 0
2, 112000, Note_off_c, 1, 40, 0
2, 112000, Note_on_c, 1, 51, 127
2, 112000, Note_on_c, 1, 54, 127
2, 112000, Note_on_c, 1, 58, 127
2, 112000, Note_off_c, 1, 61, 0
2, 112000, Note_on_c, 1, 66, 127
2, 112000, Note_on_c, 1, 78, 127
2, 112040, Note_on_c, 1, 39, 127
2, 112040, Note_off_c, 1, 51, 0
2, 112040, Note_off_c, 1, 54, 0
2, 112040, Note_off_c, 1, 58, 0
2, 112040, Note_on_c, 1, 63, 127
2, 112040, Note_off_c, 1, 66, 0
2, 112040, Note_on_c, 1, 67, 127
2, 112040, Note_on_c, 1, 77, 127
2, 112040, Note_off_c, 1, 78, 0
2, 112080, Note_off_c, 1, 39, 0
2, 112080, Note_on_c, 1, 45, 127
2, 112080, Note_on_c, 1, 49, 127
2, 112080, Note_on_c, 1, 53, 127
2, 112080, Note_off_c, 1, 63, 0
2, 112080, Note_off_c, 1, 67, 0
2, 112080, Note_on_c, 1, 73, 127
2, 112080, Note_off_c, 1, 77, 0
2, 112120, Note_off_c, 1, 45, 0
2, 112120, Note_off_c, 1, 49, 0
2, 112120, Note_off_c, 1, 53, 0
2, 112120, Note_off_c, 1, 73, 0
2, 112160, Note_on_c, 1, 42, 127
2, 112160, Note_on_c, 1, 54, 127
2, 112160, Note_on_c, 1, 90, 127
2, 112160, Note_on_c, 1, 97, 127
2, 112200, Note_off_c, 1, 42, 0
2, 112200, Note_on_c, 1, 43, 127
2, 112200, Note_off_c, 1, 54, 0
2, 112200, Note_on_c, 1, 72, 127
2, 112200, Note_on_c, 1, 78, 127
2, 112200, Note_on_c, 1, 81, 127
2, 112200, Note_on_c, 1, 86, 127
2, 112200, Note_off_c, 1, 90, 0
2, 112200, Note_off_c, 1, 97, 0
2, 112240, Note_off_c, 1, 43, 0
2, 112240, Note_on_c, 1, 50, 127
2, 112240, Note_on_c, 1, 57, 127
2, 112240, Note_off_c, 1, 72, 0
2, 112240, Note_on_c, 1, 74, 127
2, 112240, Note_off_c, 1, 78, 0
2, 112240, Note_off_c, 1, 81, 0
2, 112240, Note_on_c, 1, 84, 127
2, 112240, Note_off_c, 1, 86, 0
2, 112280, Note_off_c, 1, 50, 0
2, 112280, Note_off_c, 1, 57, 0
2, 112280, Note_off_c, 1, 74, 0
2, 112280, Note_off_c, 1, 84, 0
2, 112320, Note_on_c, 1, 48, 127
2, 112320, Note_on_c, 1, 55, 127
2, 112320, Note_on_c, 1, 62, 127
2, 112320, Note_on_c, 1, 74, 127
2, 112520, Note_off_c, 1, 48, 0
2, 112520, Note_on_c, 1, 57, 127
2, 112520, Note_off_c, 1, 62, 0
2, 112520, Note_off_c, 1, 74, 0
2, 112560, Note_off_c, 1, 55, 0
2, 112560, Note_off_c, 1, 57, 0
2, 112560, Note_on_c, 1, 68, 127
2, 112560, Note_on_c, 1, 74, 127
2, 112560, Note_on_c, 1, 77, 127
2, 112560, Note_on_c, 1, 79, 127
2, 112560, Note_on_c, 1, 86, 127
2, 112600, Note_on_c, 1, 46, 127
2, 112600, Note_on_c, 1, 61, 127
2, 112600, Note_on_c, 1, 63, 127
2, 112600, Note_on_c, 1, 67, 127
2, 112600, Note_off_c, 1, 68, 0
2, 112600, Note_off_c, 1, 74, 0
2, 112600, Note_off_c, 1, 77, 0
2, 112600, Note_off_c, 1, 86, 0
2, 112640, Note_off_c, 1, 46, 0
2, 112640, Note_on_c, 1, 54, 127
2, 112640, Note_on_c, 1, 60, 127
2, 112640, Note_off_c, 1, 61, 0
2, 112640, Note_off_c, 1, 63, 0
2, 112640, Note_off_c, 1, 67, 0
2, 112640, Note_on_c, 1, 72, 127
2, 112640, Note_on_c, 1, 76, 127
2, 112640, Note_off_c, 1, 79, 0
2, 112680, Note_off_c, 1, 54, 0
2, 112680, Note_on_c, 1, 56, 127
2, 112680, Note_off_c, 1, 60, 0
2, 112680, Note_on_c, 1, 63, 127
2, 112680, Note_off_c, 1, 72, 0
2, 112680, Note_off_c, 1, 76, 0
2, 112680, Note_on_c, 1, 78, 127
2, 112680, Note_on_c, 1, 84, 127
2, 112720, Note_off_c, 1, 56, 0
2, 112720, Note_on_c, 1, 60, 127
2, 112720, Note_off_c, 1, 63, 0
2, 112720, Note_on_c, 1, 64, 127
2, 112720, Note_off_c, 1, 78, 0
2, 112720, Note_on_c, 1, 79, 127
2, 112720, Note_off_c, 1, 84, 0
2, 112720, Note_on_c, 1, 91, 127
2, 112760, Note_off_c, 1, 60, 0
2, 112760, Note_off_c, 1, 64, 0
2, 112760, Note_off_c, 1, 79, 0
2, 112760, Note_on_c, 1, 83, 127
2, 112800, Note_on_c, 1, 37, 127
2, 112800, Note_on_c, 1, 44, 127
2, 112800, Note_on_c, 1, 49, 127
2, 112800, Note_on_c, 1, 65, 127
2, 112800, Note_on_c, 1, 68, 127
2, 112800, Note_on_c, 1, 73, 127
2, 112800, Note_on_c, 1, 77, 127
2, 112800, Note_off_c, 1, 83, 0
2, 112800, Note_off_c, 1, 91, 0
2, 112840, Note_off_c, 1, 44, 0
2, 112840, Note_on_c, 1, 54, 127
2, 112840, Note_off_c, 1, 65, 0
2, 112840, Note_on_c, 1, 66, 127
2, 112840, Note_off_c, 1, 68, 0
2, 112840, Note_off_c, 1, 73, 0
2, 112840, Note_on_c, 1, 75, 127
2, 112840, Note_off_c, 1, 77, 0
2, 112840, Note_on_c, 1, 82, 127
2, 112840, Note_on_c, 1, 87, 127
2, 113000, Note_off_c, 1, 37, 0
2, 113000, Note_on_c, 1, 45, 127
2, 113000, Note_off_c, 1, 49, 0
2, 113000, Note_off_c, 1, 54, 0
2, 113000, Note_off_c, 1, 66, 0
2, 113000, Note_off_c, 1, 75, 0
2, 113000, Note_off_c, 1, 82, 0
2, 113000, Note_off_c, 1, 87, 0
2, 113040, Note_on_c, 1, 49, 127
2, 113040, Note_on_c, 1, 52, 127
2, 113040, Note_on_c, 1, 57, 127
2, 113200, Note_on_c, 1, 37, 127
2, 113200, Note_off_c, 1, 45, 0
2, 113200, Note_off_c, 1, 52, 0
2, 113200, Note_on_c, 1, 56, 127
2, 113200, Note_off_c, 1, 57, 0
2, 113200, Note_on_c, 1, 61, 127
2, 113200, Note_on_c, 1, 65, 127
2, 113200, Note_on_c, 1, 101, 127
2, 113240, Note_off_c, 1, 37, 0
2, 113240, Note_off_c, 1, 49, 0
2, 113240, Note_off_c, 1, 56, 0
2, 113240, Note_off_c, 1, 61, 0
2, 113240, Note_off_c, 1, 65, 0
2, 113240, Note_off_c, 1, 101, 0
2, 113280, Note_on_c, 1, 47, 127
2, 113280, Note_on_c, 1, 59, 127
2, 113520, Note_on_c, 1, 36, 127
2, 113520, Note_on_c, 1, 45, 127
2, 113520, Note_off_c, 1, 47, 0
2, 113520, Note_off_c, 1, 59, 0
2, 113520, Note_on_c, 1, 66, 127
2, 113520, Note_on_c, 1, 69, 127
2, 113560, Note_off_c, 1, 36, 0
2, 113560, Note_off_c, 1, 45, 0
2, 113560, Note_on_c, 1, 57, 127
2, 113560, Note_on_c, 1, 62, 127
2, 113560, Note_on_c, 1, 65, 127
2, 113560, Note_off_c, 1, 66, 0
2, 113560, Note_on_c, 1, 98, 127
2, 113600, Note_off_c, 1, 57, 0
2, 113600, Note_off_c, 1, 62, 0
2, 113600, Note_off_c, 1, 65, 0
2, 113600, Note_off_c, 1, 69, 0
2, 113600, Note_off_c, 1, 98, 0
2, 113640, Note_on_c, 1, 53, 127
2, 113640, Note_on_c, 1, 65, 127
2, 113840, Note_off_c, 1, 53, 0
2, 113840, Note_off_c, 1, 65, 0
2, 113880, Note_on_c, 1, 63, 127
2, 113880, Note_on_c, 1, 66, 127
2, 113880, Note_on_c, 1, 82, 127
2, 113880, Note_on_c, 1, 87, 127
2, 113880, Note_on_c, 1, 90, 127
2, 113960, Note_on_c, 1, 54, 127
2, 113960, Note_off_c, 1, 82, 0
2, 113960, Note_off_c, 1, 87, 0
2, 113960, Note_off_c, 1, 90, 0
2, 114000, Note_off_c, 1, 54, 0
2, 114000, Note_on_c, 1, 59, 127
2, 114000, Note_off_c, 1, 63, 0
2, 114000, Note_on_c, 1, 65, 127
2, 114000, Note_off_c, 1, 66, 0
2, 114000, Note_on_c, 1, 69, 127
2, 114000, Note_on_c, 1, 71, 127
2, 114000, Note_on_c, 1, 75, 127
2, 114000, Note_on_c, 1, 81, 127
2, 114080, Note_on_c, 1, 52, 127
2, 114080, Note_off_c, 1, 59, 0
2, 114080, Note_on_c, 1, 60, 127
2, 114080, Note_off_c, 1, 65, 0
2, 114080, Note_off_c, 1, 69, 0
2, 114080, Note_off_c, 1, 71, 0
2, 114080, Note_off_c, 1, 75, 0
2, 114080, Note_on_c, 1, 88, 127
2, 114120, Note_off_c, 1, 52, 0
2, 114120, Note_on_c, 1, 54, 127
2, 114120, Note_on_c, 1, 55, 127
2, 114120, Note_on_c, 1, 57, 127
2, 114120, Note_off_c, 1, 60, 0
2, 114120, Note_off_c, 1, 81, 0
2, 114120, Note_off_c, 1, 88, 0
2, 114160, Note_on_c, 1, 44, 127
2, 114160, Note_off_c, 1, 54, 0
2, 114160, Note_off_c, 1, 55, 0
2, 114160, Note_on_c, 1, 56, 127
2, 114160, Note_off_c, 1, 57, 0
2, 114160, Note_on_c, 1, 72, 127
2, 114160, Note_on_c, 1, 76, 127
2, 114160, Note_on_c, 1, 84, 127
2, 114200, Note_off_c, 1, 44, 0
2, 114200, Note_off_c, 1, 56, 0
2, 114200, Note_off_c, 1, 72, 0
2, 114200, Note_off_c, 1, 76, 0
2, 114200, Note_off_c, 1, 84, 0
2, 114240, Note_on_c, 1, 51, 127
2, 114240, Note_on_c, 1, 63, 127
2, 114240, Note_on_c, 1, 68, 127
2, 114240, Note_on_c, 1, 76, 127
2, 114240, Note_on_c, 1, 80, 127
2, 114280, Note_on_c, 1, 38, 127
2, 114280, Note_off_c, 1, 51, 0
2, 114280, Note_on_c, 1, 60, 127
2, 114280, Note_off_c, 1, 63, 0
2, 114280, Note_on_c, 1, 64, 127
2, 114280, Note_off_c, 1, 68, 0
2, 114280, Note_on_c, 1, 69, 127
2, 114280, Note_off_c, 1, 76, 0
2, 114280, Note_off_c, 1, 80, 0
2, 114320, Note_off_c, 1, 38, 0
2, 114320, Note_on_c, 1, 47, 127
2, 114320, Note_on_c, 1, 59, 127
2, 114320, Note_off_c, 1, 60, 0
2, 114320, Note_off_c, 1, 64, 0
2, 114320, Note_off_c, 1, 69, 0
2, 114320, Note_on_c, 1, 86, 127
2, 114320, Note_on_c, 1, 98, 127
2, 114360, Note_off_c, 1, 47, 0
2, 114360, Note_off_c, 1, 59, 0
2, 114360, Note_off_c, 1, 86, 0
2, 114360, Note_off_c, 1, 98, 0
2, 114400, Note_on_c, 1, 50, 127
2, 114400, Note_on_c, 1, 62, 127
2, 114400, Note_on_c, 1, 69, 127
2, 114400, Note_on_c, 1, 76, 127
2, 114400, Note_on_c, 1, 81, 127
2, 114520, Note_off_c, 1, 50, 0
2, 114520, Note_off_c, 1, 62, 0
2, 114520, Note_off_c, 1, 69, 0
2, 114520, Note_off_c, 1, 76, 0
2, 114520, Note_off_c, 1, 81, 0
2, 114560, Note_on_c, 1, 56, 127
2, 114560, Note_on_c, 1, 63, 127
2, 114560, Note_on_c, 1, 66, 127
2, 114560, Note_on_c, 1, 70, 127
2, 114560, Note_on_c, 1, 75, 127
2, 114600, Note_on_c, 1, 43, 127
2, 114600, Note_on_c, 1, 53, 127
2, 114600, Note_on_c, 1, 55, 127
2, 114600, Note_off_c, 1, 56, 0
2, 114600, Note_off_c, 1, 63, 0
2, 114600, Note_off_c, 1, 66, 0
2, 114600, Note_off_c, 1, 70, 0
2, 114600, Note_off_c, 1, 75, 0
2, 114600, Note_on_c, 1, 76, 127
2, 114600, Note_on_c, 1, 88, 127
2, 114640, Note_off_c, 1, 43, 0
2, 114640, Note_off_c, 1, 53, 0
2, 114640, Note_on_c, 1, 54, 127
2, 114640, Note_off_c, 1, 55, 0
2, 114640, Note_on_c, 1, 57, 127
2, 114640, Note_on_c, 1, 60, 127
2, 114640, Note_on_c, 1, 69, 127
2, 114640, Note_off_c, 1, 76, 0
2, 114640, Note_on_c, 1, 81, 127
2, 114640, Note_off_c, 1, 88, 0
2, 114680, Note_off_c, 1, 54, 0
2, 114680, Note_off_c, 1, 57, 0
2, 114680, Note_off_c, 1, 60, 0
2, 114680, Note_off_c, 1, 69, 0
2, 114680, Note_off_c, 1, 81, 0
2, 114720, Note_on_c, 1, 50, 127
2, 114720, Note_on_c, 1, 55, 127
2, 114720, Note_on_c, 1, 62, 127
2, 114720, Note_on_c, 1, 66, 127
2, 114720, Note_on_c, 1, 70, 127
2, 114720, Note_on_c, 1, 78, 127
2, 114760, Note_on_c, 1, 49, 127
2, 114760, Note_off_c, 1, 50, 0
2, 114760, Note_on_c, 1, 54, 127
2, 114760, Note_off_c, 1, 55, 0
2, 114760, Note_off_c, 1, 62, 0
2, 114760, Note_off_c, 1, 66, 0
2, 114760, Note_off_c, 1, 70, 0
2, 114760, Note_off_c, 1, 78, 0
2, 114760, Note_on_c, 1, 93, 127
2, 114800, Note_off_c, 1, 49, 0
2, 114800, Note_on_c, 1, 52, 127
2, 114800, Note_off_c, 1, 54, 0
2, 114800, Note_on_c, 1, 55, 127
2, 114800, Note_on_c, 1, 58, 127
2, 114800, Note_on_c, 1, 60, 127
2, 114800, Note_on_c, 1, 82, 127
2, 114800, Note_on_c, 1, 86, 127
2, 114800, Note_off_c, 1, 93, 0
2, 114840, Note_off_c, 1, 52, 0
2, 114840, Note_off_c, 1, 55, 0
2, 114840, Note_off_c, 1, 58, 0
2, 114840, Note_off_c, 1, 60, 0
2, 114840, Note_off_c, 1, 82, 0
2, 114840, Note_off_c, 1, 86, 0
2, 114880, Note_on_c, 1, 53, 127
2, 114880, Note_on_c, 1, 60, 127
2, 114880, Note_on_c, 1, 65, 127
2, 114880, Note_on_c, 1, 69, 127
2, 114880, Note_on_c, 1, 72, 127
2, 114880, Note_on_c, 1, 81, 127
2, 115040, Note_off_c, 1, 53, 0
2, 115040, Note_off_c, 1, 60, 0
2, 115040, Note_off_c, 1, 65, 0
2, 115040, Note_off_c, 1, 69, 0
2, 115040, Note_off_c, 1, 72, 0
2, 115040, Note_off_c, 1, 81, 0
2, 115080, Note_on_c, 1, 52, 127
2, 115080, Note_on_c, 1, 65, 127
2, 115080, Note_on_c, 1, 69, 127
2, 115080, Note_on_c, 1, 73, 127
2, 115200, Note_off_c, 1, 52, 0
2, 115200, Note_off_c, 1, 65, 0
2, 115200, Note_off_c, 1, 69, 0
2, 115200, Note_on_c, 1, 70, 127
2, 115200, Note_off_c, 1, 73, 0
2, 115200, Note_on_c, 1, 74, 127
2, 115200, Note_on_c, 1, 79, 127
2, 115200, Note_on_c, 1, 82, 127
2, 115200, Note_on_c, 1, 86, 127
2, 115200, Note_on_c, 1, 91, 127
2, 115240, Note_off_c, 1, 70, 0
2, 115240, Note_off_c, 1, 74, 0
2, 115240, Note_off_c, 1, 79, 0
2, 115240, Note_off_c, 1, 82, 0
2, 115240, Note_off_c, 1, 86, 0
2, 115240, Note_off_c, 1, 91, 0
2, 115280, Note_on_c, 1, 60, 127
2, 115280, Note_on_c, 1, 66, 127
2, 115280, Note_on_c, 1, 74, 127
2, 115280, Note_on_c, 1, 81, 127
2, 115320, Note_on_c, 1, 45, 127
2, 115320, Note_off_c, 1, 66, 0
2, 115320, Note_off_c, 1, 74, 0
2, 115320, Note_on_c, 1, 76, 127
2, 115320, Note_off_c, 1, 81, 0
2, 115360, Note_off_c, 1, 45, 0
2, 115360, Note_on_c, 1, 66, 127
2, 115360, Note_on_c, 1, 74, 127
2, 115360, Note_off_c, 1, 76, 0
2, 115360, Note_on_c, 1, 81, 127
2, 115400, Note_off_c, 1, 60, 0
2, 115400, Note_off_c, 1, 66, 0
2, 115400, Note_off_c, 1, 74, 0
2, 115400, Note_off_c, 1, 81, 0
2, 115440, Note_on_c, 1, 47, 127
2, 115440, Note_on_c, 1, 69, 127
2, 115440, Note_on_c, 1, 72, 127
2, 115440, Note_on_c, 1, 77, 127
2, 115480, Note_off_c, 1, 47, 0
2, 115480, Note_on_c, 1, 50, 127
2, 115480, Note_on_c, 1, 59, 127
2, 115480, Note_off_c, 1, 69, 0
2, 115480, Note_off_c, 1, 72, 0
2, 115480, Note_on_c, 1, 74, 127
2, 115520, Note_off_c, 1, 50, 0
2, 115520, Note_on_c, 1, 68, 127
2, 115520, Note_on_c, 1, 71, 127
2, 115520, Note_off_c, 1, 74, 0
2, 115520, Note_on_c, 1, 80, 127
2, 115520, Note_on_c, 1, 89, 127
2, 115560, Note_on_c, 1, 37, 127
2, 115560, Note_on_c, 1, 49, 127
2, 115560, Note_off_c, 1, 59, 0
2, 115560, Note_off_c, 1, 68, 0
2, 115560, Note_off_c, 1, 71, 0
2, 115560, Note_off_c, 1, 77, 0
2, 115560, Note_off_c, 1, 80, 0
2, 115560, Note_on_c, 1, 93, 127
2, 115560, Note_on_c, 1, 101, 127
2, 115600, Note_off_c, 1, 37, 0
2, 115600, Note_off_c, 1, 49, 0
2, 115600, Note_off_c, 1, 89, 0
2, 115600, Note_off_c, 1, 93, 0
2, 115600, Note_off_c, 1, 101, 0
2, 115640, Note_on_c, 1, 42, 127
2, 115640, Note_on_c, 1, 54, 127
2, 115640, Note_on_c, 1, 62, 127
2, 115640, Note_on_c, 1, 66, 127
2, 115760, Note_off_c, 1, 42, 0
2, 115760, Note_off_c, 1, 54, 0
2, 115760, Note_off_c, 1, 62, 0
2, 115760, Note_off_c, 1, 66, 0
2, 115800, Note_on_c, 1, 54, 127
2, 115800, Note_on_c, 1, 60, 127
2, 115800, Note_on_c, 1, 64, 127
2, 115800, Note_on_c, 1, 100, 127
2, 115800, Note_on_c, 1, 102, 127
2, 115920, Note_off_c, 1, 100, 0
2, 115920, Note_off_c, 1, 102, 0
2, 115960, Note_on_c, 1, 41, 127
2, 115960, Note_on_c, 1, 43, 127
2, 115960, Note_on_c, 1, 50, 127
2, 115960, Note_off_c, 1, 54, 0
2, 115960, Note_on_c, 1, 59, 127
2, 115960, Note_off_c, 1, 60, 0
2, 115960, Note_off_c, 1, 64, 0
2, 115960, Note_on_c, 1, 65, 127
2, 115960, Note_on_c, 1, 67, 127
2, 116120, Note_off_c, 1, 41, 0
2, 116120, Note_off_c, 1, 43, 0
2, 116120, Note_off_c, 1, 50, 0
2, 116120, Note_off_c, 1, 59, 0
2, 116120, Note_off_c, 1, 65, 0
2, 116120, Note_off_c, 1, 67, 0
2, 116200, Note_on_c, 1, 42, 127
2, 116200, Note_on_c, 1, 52, 127
2, 116200, Note_on_c, 1, 54, 127
2, 116200, Note_on_c, 1, 71, 127
2, 116200, Note_on_c, 1, 83, 127
2, 116240, Note_on_c, 1, 38, 127
2, 116240, Note_off_c, 1, 42, 0
2, 116240, Note_on_c, 1, 46, 127
2, 116240, Note_off_c, 1, 52, 0
2, 116240, Note_off_c, 1, 54, 0
2, 116240, Note_on_c, 1, 62, 127
2, 116240, Note_off_c, 1, 71, 0
2, 116240, Note_on_c, 1, 74, 127
2, 116240, Note_off_c, 1, 83, 0
2, 116280, Note_off_c, 1, 38, 0
2, 116280, Note_on_c, 1, 42, 127
2, 116280, Note_off_c, 1, 46, 0
2, 116280, Note_on_c, 1, 52, 127
2, 116280, Note_on_c, 1, 54, 127
2, 116280, Note_off_c, 1, 62, 0
2, 116280, Note_on_c, 1, 71, 127
2, 116280, Note_off_c, 1, 74, 0
2, 116280, Note_on_c, 1, 83, 127
2, 116360, Note_off_c, 1, 42, 0
2, 116360, Note_off_c, 1, 52, 0
2, 116360, Note_off_c, 1, 54, 0
2, 116360, Note_off_c, 1, 71, 0
2, 116360, Note_off_c, 1, 83, 0
2, 116400, Note_on_c, 1, 59, 127
2, 116400, Note_on_c, 1, 71, 127
2, 116520, Note_off_c, 1, 59, 0
2, 116520, Note_off_c, 1, 71, 0
2, 116560, Note_on_c, 1, 34, 127
2, 116560, Note_on_c, 1, 43, 127
2, 116560, Note_on_c, 1, 62, 127
2, 116600, Note_off_c, 1, 34, 0
2, 116600, Note_off_c, 1, 43, 0
2, 116600, Note_off_c, 1, 62, 0
2, 116600, Note_on_c, 1, 66, 127
2, 116600, Note_on_c, 1, 72, 127
2, 116600, Note_on_c, 1, 75, 127
2, 116600, Note_on_c, 1, 90, 127
2, 116600, Note_on_c, 1, 93, 127
2, 116600, Note_on_c, 1, 99, 127
2, 116640, Note_on_c, 1, 40, 127
2, 116640, Note_on_c, 1, 51, 127
2, 116640, Note_on_c, 1, 56, 127
2, 116640, Note_off_c, 1, 66, 0
2, 116640, Note_off_c, 1, 72, 0
2, 116640, Note_off_c, 1, 75, 0
2, 116640, Note_off_c, 1, 90, 0
2, 116640, Note_off_c, 1, 93, 0
2, 116640, Note_off_c, 1, 99, 0
2, 116680, Note_off_c, 1, 40, 0
2, 116680, Note_off_c, 1, 51, 0
2, 116680, Note_off_c, 1, 56, 0
2, 116680, Note_on_c, 1, 58, 127
2, 116680, Note_on_c, 1, 66, 127
2, 116680, Note_on_c, 1, 78, 127
2, 116680, Note_on_c, 1, 83, 127
2, 116720, Note_off_c, 1, 58, 0
2, 116720, Note_off_c, 1, 66, 0
2, 116720, Note_off_c, 1, 78, 0
2, 116720, Note_off_c, 1, 83, 0
2, 116760, Note_on_c, 1, 48, 127
2, 116760, Note_on_c, 1, 52, 127
2, 116760, Note_on_c, 1, 55, 127
2, 116760, Note_on_c, 1, 60, 127
2, 116760, Note_on_c, 1, 64, 127
2, 116760, Note_on_c, 1, 72, 127
2, 117080, Note_on_c, 1, 43, 127
2, 117080, Note_off_c, 1, 48, 0
2, 117080, Note_off_c, 1, 52, 0
2, 117080, Note_off_c, 1, 55, 0
2, 117080, Note_off_c, 1, 60, 0
2, 117080, Note_off_c, 1, 64, 0
2, 117080, Note_on_c, 1, 70, 127
2, 117080, Note_off_c, 1, 72, 0
2, 117080, Note_on_c, 1, 73, 127
2, 117080, Note_on_c, 1, 76, 127
2, 117080, Note_on_c, 1, 82, 127
2, 117120, Note_off_c, 1, 43, 0
2, 117120, Note_on_c, 1, 48, 127
2, 117120, Note_on_c, 1, 60, 127
2, 117120, Note_off_c, 1, 70, 0
2, 117120, Note_off_c, 1, 73, 0
2, 117120, Note_off_c, 1, 82, 0
2, 117120, Note_on_c, 1, 88, 127
2, 117160, Note_off_c, 1, 48, 0
2, 117160, Note_on_c, 1, 55, 127
2, 117160, Note_off_c, 1, 60, 0
2, 117160, Note_on_c, 1, 69, 127
2, 117160, Note_on_c, 1, 75, 127
2, 117160, Note_off_c, 1, 76, 0
2, 117160, Note_on_c, 1, 77, 127
2, 117160, Note_on_c, 1, 81, 127
2, 117160, Note_off_c, 1, 88, 0
2, 117200, Note_on_c, 1, 31, 127
2, 117200, Note_off_c, 1, 55, 0
2, 117200, Note_off_c, 1, 69, 0
2, 117200, Note_off_c, 1, 75, 0
2, 117200, Note_off_c, 1, 77, 0
2, 117200, Note_off_c, 1, 81, 0
2, 117200, Note_on_c, 1, 82, 127
2, 117200, Note_on_c, 1, 86, 127
2, 117200, Note_on_c, 1, 91, 127
2, 117200, Note_on_c, 1, 94, 127
2, 117240, Note_off_c, 1, 31, 0
2, 117240, Note_off_c, 1, 82, 0
2, 117240, Note_off_c, 1, 86, 0
2, 117240, Note_on_c, 1, 88, 127
2, 117240, Note_off_c, 1, 94, 0
2, 117240, Note_on_c, 1, 100, 127
2, 117280, Note_on_c, 1, 48, 127
2, 117280, Note_on_c, 1, 60, 127
2, 117280, Note_on_c, 1, 76, 127
2, 117280, Note_on_c, 1, 78, 127
2, 117280, Note_on_c, 1, 81, 127
2, 117280, Note_off_c, 1, 91, 0
2, 117280, Note_off_c, 1, 100, 0
2, 117520, Note_off_c, 1, 48, 0
2, 117520, Note_on_c, 1, 53, 127
2, 117520, Note_on_c, 1, 63, 127
2, 117520, Note_on_c, 1, 69, 127
2, 117520, Note_on_c, 1, 75, 127
2, 117520, Note_off_c, 1, 76, 0
2, 117520, Note_off_c, 1, 78, 0
2, 117520, Note_off_c, 1, 88, 0
2, 117560, Note_off_c, 1, 53, 0
2, 117560, Note_off_c, 1, 60, 0
2, 117560, Note_off_c, 1, 63, 0
2, 117560, Note_off_c, 1, 69, 0
2, 117560, Note_off_c, 1, 75, 0
2, 117560, Note_off_c, 1, 81, 0
2, 117600, Note_on_c, 1, 71, 127
2, 117600, Note_on_c, 1, 73, 127
2, 117600, Note_on_c, 1, 79, 127
2, 117600, Note_on_c, 1, 88, 127
2, 117600, Note_on_c, 1, 94, 127
2, 117600, Note_on_c, 1, 102, 127
2, 117640, Note_on_c, 1, 37, 127
2, 117640, Note_on_c, 1, 43, 127
2, 117640, Note_on_c, 1, 61, 127
2, 117640, Note_on_c, 1, 65, 127
2, 117640, Note_off_c, 1, 71, 0
2, 117640, Note_off_c, 1, 73, 0
2, 117640, Note_off_c, 1, 79, 0
2, 117640, Note_off_c, 1, 88, 0
2, 117640, Note_off_c, 1, 94, 0
2, 117640, Note_off_c, 1, 102, 0
2, 117680, Note_off_c, 1, 37, 0
2, 117680, Note_off_c, 1, 43, 0
2, 117680, Note_on_c, 1, 46, 127
2, 117680, Note_on_c, 1, 48, 127
2, 117680, Note_on_c, 1, 58, 127
2, 117680, Note_on_c, 1, 60, 127
2, 117680, Note_off_c, 1, 61, 0
2, 117680, Note_on_c, 1, 64, 127
2, 117680, Note_off_c, 1, 65, 0
2, 117680, Note_on_c, 1, 67, 127
2, 117720, Note_off_c, 1, 46, 0
2, 117720, Note_off_c, 1, 48, 0
2, 117720, Note_off_c, 1, 58, 0
2, 117720, Note_off_c, 1, 60, 0
2, 117720, Note_off_c, 1, 64, 0
2, 117720, Note_off_c, 1, 67, 0
2, 117760, Note_on_c, 1, 33, 127
2, 117760, Note_on_c, 1, 38, 127
2, 117760, Note_on_c, 1, 46, 127
2, 117760, Note_on_c, 1, 49, 127
2, 117760, Note_on_c, 1, 55, 127
2, 117800, Note_off_c, 1, 33, 0
2, 117800, Note_on_c, 1, 34, 127
2, 117800, Note_off_c, 1, 38, 0
2, 117800, Note_off_c, 1, 49, 0
2, 117800, Note_on_c, 1, 58, 127
2, 117800, Note_on_c, 1, 62, 127
2, 117840, Note_on_c, 1, 27, 127
2, 117840, Note_on_c, 1, 30, 127
2, 117840, Note_on_c, 1, 39, 127
2, 117840, Note_off_c, 1, 46, 0
2, 117840, Note_on_c, 1, 51, 127
2, 117840, Note_on_c, 1, 54, 127
2, 117840, Note_off_c, 1, 55, 0
2, 117840, Note_off_c, 1, 62, 0
2, 117840, Note_on_c, 1, 63, 127
2, 117880, Note_off_c, 1, 27, 0
2, 117880, Note_off_c, 1, 30, 0
2, 117880, Note_off_c, 1, 34, 0
2, 117880, Note_off_c, 1, 39, 0
2, 117880, Note_off_c, 1, 51, 0
2, 117880, Note_off_c, 1, 54, 0
2, 117880, Note_off_c, 1, 58, 0
2, 117880, Note_on_c, 1, 61, 127
2, 117880, Note_off_c, 1, 63, 0
2, 117880, Note_on_c, 1, 64, 127
2, 117880, Note_on_c, 1, 69, 127
2, 117880, Note_on_c, 1, 73, 127
2, 117880, Note_on_c, 1, 81, 127
2, 117880, Note_on_c, 1, 93, 127
2, 117920, Note_off_c, 1, 61, 0
2, 117920, Note_off_c, 1, 64, 0
2, 117920, Note_off_c, 1, 69, 0
2, 117920, Note_off_c, 1, 73, 0
2, 117920, Note_off_c, 1, 81, 0
2, 117920, Note_off_c, 1, 93, 0
2, 117960, Note_on_c, 1, 60, 127
2, 117960, Note_on_c, 1, 64, 127
2, 117960, Note_on_c, 1, 81, 127
2, 117960, Note_on_c, 1, 84, 127
2, 118000, Note_off_c, 1, 60, 0
2, 118000, Note_off_c, 1, 64, 0
2, 118000, Note_on_c, 1, 72, 127
2, 118000, Note_off_c, 1, 81, 0
2, 118000, Note_off_c, 1, 84, 0
2, 118000, Note_on_c, 1, 86, 127
2, 118000, Note_on_c, 1, 98, 127
2, 118000, Note_on_c, 1, 99, 127
2, 118040, Note_on_c, 1, 43, 127
2, 118040, Note_on_c, 1, 49, 127
2, 118040, Note_on_c, 1, 67, 127
2, 118040, Note_on_c, 1, 71, 127
2, 118040, Note_off_c, 1, 72, 0
2, 118040, Note_off_c, 1, 86, 0
2, 118040, Note_off_c, 1, 98, 0
2, 118040, Note_off_c, 1, 99, 0
2, 118080, Note_off_c, 1, 43, 0
2, 118080, Note_off_c, 1, 49, 0
2, 118080, Note_off_c, 1, 67, 0
2, 118080, Note_off_c, 1, 71, 0
2, 118120, Note_on_c, 1, 56, 127
2, 118120, Note_on_c, 1, 61, 127
2, 118120, Note_on_c, 1, 64, 127
2, 118120, Note_on_c, 1, 70, 127
2, 118120, Note_on_c, 1, 76, 127
2, 118120, Note_on_c, 1, 79, 127
2, 118120, Note_on_c, 1, 85, 127
2, 118160, Note_on_c, 1, 50, 127
2, 118160, Note_off_c, 1, 56, 0
2, 118160, Note_on_c, 1, 59, 127
2, 118160, Note_off_c, 1, 61, 0
2, 118160, Note_off_c, 1, 64, 0
2, 118160, Note_on_c, 1, 66, 127
2, 118160, Note_off_c, 1, 70, 0
2, 118160, Note_on_c, 1, 71, 127
2, 118160, Note_on_c, 1, 74, 127
2, 118160, Note_off_c, 1, 76, 0
2, 118160, Note_off_c, 1, 79, 0
2, 118160, Note_off_c, 1, 85, 0
2, 118200, Note_off_c, 1, 50, 0
2, 118200, Note_off_c, 1, 59, 0
2, 118200, Note_off_c, 1, 66, 0
2, 118200, Note_off_c, 1, 71, 0
2, 118200, Note_off_c, 1, 74, 0
2, 118240, Note_on_c, 1, 50, 127
2, 118240, Note_on_c, 1, 59, 127
2, 118240, Note_on_c, 1, 66, 127
2, 118240, Note_on_c, 1, 71, 127
2, 118240, Note_on_c, 1, 74, 127
2, 118320, Note_off_c, 1, 50, 0
2, 118320, Note_off_c, 1, 59, 0
2, 118320, Note_off_c, 1, 66, 0
2, 118320, Note_off_c, 1, 71, 0
2, 118320, Note_off_c, 1, 74, 0
2, 118320, Note_on_c, 1, 81, 127
2, 118320, Note_on_c, 1, 84, 127
2, 118320, Note_on_c, 1, 87, 127
2, 118320, Note_on_c, 1, 90, 127
2, 118320, Note_on_c, 1, 93, 127
2, 118360, Note_on_c, 1, 51, 127
2, 118360, Note_on_c, 1, 54, 127
2, 118360, Note_on_c, 1, 57, 127
2, 118360, Note_on_c, 1, 60, 127
2, 118400, Note_on_c, 1, 42, 127
2, 118400, Note_on_c, 1, 49, 127
2, 118400, Note_off_c, 1, 51, 0
2, 118400, Note_off_c, 1, 57, 0
2, 118400, Note_off_c, 1, 60, 0
2, 118400, Note_on_c, 1, 69, 127
2, 118400, Note_on_c, 1, 71, 127
2, 118400, Note_off_c, 1, 84, 0
2, 118400, Note_off_c, 1, 87, 0
2, 118400, Note_off_c, 1, 90, 0
2, 118400, Note_off_c, 1, 93, 0
2, 118440, Note_off_c, 1, 42, 0
2, 118440, Note_off_c, 1, 49, 0
2, 118440, Note_off_c, 1, 54, 0
2, 118440, Note_off_c, 1, 69, 0
2, 118440, Note_off_c, 1, 71, 0
2, 118440, Note_off_c, 1, 81, 0
2, 118480, Note_on_c, 1, 55, 127
2, 118480, Note_on_c, 1, 57, 127
2, 118480, Note_on_c, 1, 59, 127
2, 118480, Note_on_c, 1, 62, 127
2, 118480, Note_on_c, 1, 69, 127
2, 118520, Note_on_c, 1, 31, 127
2, 118520, Note_on_c, 1, 50, 127
2, 118520, Note_on_c, 1, 54, 127
2, 118520, Note_off_c, 1, 55, 0
2, 118520, Note_off_c, 1, 57, 0
2, 118520, Note_off_c, 1, 59, 0
2, 118520, Note_off_c, 1, 62, 0
2, 118520, Note_off_c, 1, 69, 0
2, 118560, Note_off_c, 1, 31, 0
2, 118560, Note_on_c, 1, 38, 127
2, 118560, Note_off_c, 1, 54, 0
2, 118560, Note_on_c, 1, 64, 127
2, 118560, Note_on_c, 1, 71, 127
2, 118600, Note_off_c, 1, 38, 0
2, 118600, Note_off_c, 1, 50, 0
2, 118600, Note_off_c, 1, 64, 0
2, 118600, Note_off_c, 1, 71, 0
2, 118640, Note_on_c, 1, 40, 127
2, 118640, Note_on_c, 1, 52, 127
2, 118640, Note_on_c, 1, 69, 127
2, 118640, Note_on_c, 1, 75, 127
2, 118680, Note_off_c, 1, 40, 0
2, 118680, Note_off_c, 1, 52, 0
2, 118680, Note_on_c, 1, 64, 127
2, 118680, Note_off_c, 1, 69, 0
2, 118680, Note_on_c, 1, 74, 127
2, 118680, Note_off_c, 1, 75, 0
2, 118680, Note_on_c, 1, 80, 127
2, 118680, Note_on_c, 1, 86, 127
2, 118720, Note_on_c, 1, 33, 127
2, 118720, Note_on_c, 1, 50, 127
2, 118720, Note_off_c, 1, 64, 0
2, 118720, Note_off_c, 1, 74, 0
2, 118720, Note_on_c, 1, 76, 127
2, 118720, Note_off_c, 1, 80, 0
2, 118720, Note_on_c, 1, 81, 127
2, 118720, Note_on_c, 1, 85, 127
2, 118720, Note_off_c, 1, 86, 0
2, 118760, Note_on_c, 1, 40, 127
2, 118760, Note_off_c, 1, 50, 0
2, 118760, Note_off_c, 1, 76, 0
2, 118760, Note_off_c, 1, 81, 0
2, 118760, Note_off_c, 1, 85, 0
2, 118800, Note_off_c, 1, 33, 0
2, 118800, Note_on_c, 1, 38, 127
2, 118800, Note_off_c, 1, 40, 0
2, 118800, Note_on_c, 1, 60, 127
2, 118800, Note_on_c, 1, 63, 127
2, 118800, Note_on_c, 1, 66, 127
2, 118840, Note_off_c, 1, 38, 0
2, 118840, Note_on_c, 1, 43, 127
2, 118840, Note_on_c, 1, 47, 127
2, 118840, Note_on_c, 1, 49, 127
2, 118840, Note_on_c, 1, 52, 127
2, 118840, Note_off_c, 1, 60, 0
2, 118840, Note_off_c, 1, 63, 0
2, 118840, Note_off_c, 1, 66, 0
2, 118880, Note_off_c, 1, 43, 0
2, 118880, Note_off_c, 1, 47, 0
2, 118880, Note_off_c, 1, 49, 0
2, 118880, Note_off_c, 1, 52, 0
2, 118880, Note_on_c, 1, 60, 127
2, 118880, Note_on_c, 1, 64, 127
2, 118880, Note_on_c, 1, 69, 127
2, 118880, Note_on_c, 1, 84, 127
2, 118880, Note_on_c, 1, 87, 127
2, 118880, Note_on_c, 1, 96, 127
2, 118920, Note_off_c, 1, 60, 0
2, 118920, Note_off_c, 1, 64, 0
2, 118920, Note_off_c, 1, 69, 0
2, 118920, Note_off_c, 1, 84, 0
2, 118920, Note_off_c, 1, 87, 0
2, 118920, Note_off_c, 1, 96, 0
2, 118960, Note_on_c, 1, 69, 127
2, 118960, Note_on_c, 1, 72, 127
2, 118960, Note_on_c, 1, 77, 127
2, 118960, Note_on_c, 1, 81, 127
2, 118960, Note_on_c, 1, 87, 127
2, 118960, Note_on_c, 1, 96, 127
2, 118960, Note_on_c, 1, 99, 127
2, 119080, Note_on_c, 1, 53, 127
2, 119080, Note_on_c, 1, 57, 127
2, 119080, Note_on_c, 1, 60, 127
2, 119080, Note_on_c, 1, 64, 127
2, 119080, Note_off_c, 1, 77, 0
2, 119080, Note_off_c, 1, 81, 0
2, 119080, Note_off_c, 1, 87, 0
2, 119080, Note_off_c, 1, 96, 0
2, 119080, Note_off_c, 1, 99, 0
2, 119120, Note_off_c, 1, 53, 0
2, 119120, Note_on_c, 1, 59, 127
2, 119120, Note_off_c, 1, 60, 0
2, 119120, Note_off_c, 1, 64, 0
2, 119120, Note_on_c, 1, 65, 127
2, 119120, Note_on_c, 1, 68, 127
2, 119120, Note_off_c, 1, 69, 0
2, 119120, Note_off_c, 1, 72, 0
2, 119120, Note_on_c, 1, 74, 127
2, 119120, Note_on_c, 1, 77, 127
2, 119120, Note_on_c, 1, 80, 127
2, 119120, Note_on_c, 1, 86, 127
2, 119160, Note_on_c, 1, 48, 127
2, 119160, Note_on_c, 1, 53, 127
2, 119160, Note_off_c, 1, 59, 0
2, 119160, Note_on_c, 1, 60, 127
2, 119160, Note_off_c, 1, 65, 0
2, 119160, Note_off_c, 1, 68, 0
2, 119160, Note_off_c, 1, 74, 0
2, 119160, Note_off_c, 1, 80, 0
2, 119160, Note_on_c, 1, 81, 127
2, 119160, Note_on_c, 1, 84, 127
2, 119160, Note_off_c, 1, 86, 0
2, 119200, Note_off_c, 1, 48, 0
2, 119200, Note_off_c, 1, 53, 0
2, 119200, Note_off_c, 1, 57, 0
2, 119200, Note_off_c, 1, 60, 0
2, 119200, Note_off_c, 1, 77, 0
2, 119200, Note_off_c, 1, 81, 0
2, 119200, Note_off_c, 1, 84, 0
2, 119240, Note_on_c, 1, 45, 127
2, 119240, Note_on_c, 1, 54, 127
2, 119240, Note_on_c, 1, 57, 127
2, 119240, Note_on_c, 1, 63, 127
2, 119240, Note_on_c, 1, 66, 127
2, 119240, Note_on_c, 1, 75, 127
2, 119360, Note_on_c, 1, 41, 127
2, 119360, Note_off_c, 1, 45, 0
2, 119360, Note_on_c, 1, 50, 127
2, 119360, Note_on_c, 1, 53, 127
2, 119360, Note_off_c, 1, 54, 0
2, 119360, Note_off_c, 1, 57, 0
2, 119360, Note_off_c, 1, 63, 0
2, 119360, Note_off_c, 1, 66, 0
2, 119360, Note_off_c, 1, 75, 0
2, 119360, Note_on_c, 1, 81, 127
2, 119360, Note_on_c, 1, 86, 127
2, 119400, Note_on_c, 1, 38, 127
2, 119400, Note_off_c, 1, 41, 0
2, 119400, Note_on_c, 1, 43, 127
2, 119400, Note_off_c, 1, 50, 0
2, 119400, Note_off_c, 1, 53, 0
2, 119400, Note_on_c, 1, 59, 127
2, 119400, Note_on_c, 1, 62, 127
2, 119400, Note_on_c, 1, 65, 127
2, 119400, Note_on_c, 1, 67, 127
2, 119400, Note_off_c, 1, 81, 0
2, 119400, Note_off_c, 1, 86, 0
2, 119440, Note_off_c, 1, 38, 0
2, 119440, Note_on_c, 1, 41, 127
2, 119440, Note_off_c, 1, 43, 0
2, 119440, Note_on_c, 1, 49, 127
2, 119440, Note_on_c, 1, 52, 127
2, 119440, Note_on_c, 1, 58, 127
2, 119440, Note_off_c, 1, 59, 0
2, 119440, Note_on_c, 1, 61, 127
2, 119440, Note_off_c, 1, 62, 0
2, 119440, Note_on_c, 1, 64, 127
2, 119440, Note_off_c, 1, 65, 0
2, 119440, Note_on_c, 1, 73, 127
2, 119480, Note_off_c, 1, 41, 0
2, 119480, Note_off_c, 1, 49, 0
2, 119480, Note_off_c, 1, 52, 0
2, 119480, Note_off_c, 1, 58, 0
2, 119480, Note_off_c, 1, 61, 0
2, 119480, Note_off_c, 1, 64, 0
2, 119480, Note_off_c, 1, 67, 0
2, 119480, Note_off_c, 1, 73, 0
2, 119520, Note_on_c, 1, 34, 127
2, 119520, Note_on_c, 1, 41, 127
2, 119520, Note_on_c, 1, 46, 127
2, 119520, Note_on_c, 1, 50, 127
2, 119520, Note_on_c, 1, 58, 127
2, 119760, Note_off_c, 1, 34, 0
2, 119760, Note_off_c, 1, 41, 0
2, 119760, Note_off_c, 1, 46, 0
2, 119760, Note_off_c, 1, 50, 0
2, 119760, Note_on_c, 1, 55, 127
2, 119760, Note_off_c, 1, 58, 0
2, 119800, Note_off_c, 1, 55, 0
2, 119800, Note_on_c, 1, 72, 127
2, 119800, Note_on_c, 1, 77, 127
2, 119800, Note_on_c, 1, 89, 127
2, 119800, Note_on_c, 1, 93, 127
2, 119840, Note_on_c, 1, 55, 127
2, 119840, Note_on_c, 1, 61, 127
2, 119840, Note_on_c, 1, 63, 127
2, 119840, Note_on_c, 1, 70, 127
2, 119840, Note_off_c, 1, 72, 0
2, 119840, Note_off_c, 1, 77, 0
2, 119840, Note_off_c, 1, 89, 0
2, 119840, Note_off_c, 1, 93, 0
2, 119840, Note_on_c, 1, 94, 127
2, 119840, Note_on_c, 1, 97, 127
2, 119880, Note_on_c, 1, 42, 127
2, 119880, Note_on_c, 1, 47, 127
2, 119880, Note_on_c, 1, 51, 127
2, 119880, Note_off_c, 1, 55, 0
2, 119880, Note_off_c, 1, 61, 0
2, 119880, Note_off_c, 1, 63, 0
2, 119880, Note_off_c, 1, 70, 0
2, 119880, Note_on_c, 1, 82, 127
2, 119880, Note_off_c, 1, 94, 0
2, 119880, Note_off_c, 1, 97, 0
2, 119920, Note_on_c, 1, 46, 127
2, 119920, Note_off_c, 1, 47, 0
2, 119920, Note_on_c, 1, 48, 127
2, 119920, Note_off_c, 1, 51, 0
2, 119920, Note_on_c, 1, 60, 127
2, 119920, Note_on_c, 1, 72, 127
2, 119920, Note_off_c, 1, 82, 0
2, 119960, Note_off_c, 1, 42, 0
2, 119960, Note_off_c, 1, 46, 0
2, 119960, Note_off_c, 1, 48, 0
2, 119960, Note_on_c, 1, 55, 127
2, 119960, Note_off_c, 1, 60, 0
2, 119960, Note_off_c, 1, 72, 0
2, 119960, Note_on_c, 1, 77, 127
2, 119960, Note_on_c, 1, 79, 127
2, 119960, Note_on_c, 1, 83, 127
2, 119960, Note_on_c, 1, 89, 127
2, 120000, Note_off_c, 1, 55, 0
2, 120000, Note_off_c, 1, 77, 0
2, 120000, Note_off_c, 1, 79, 0
2, 120000, Note_off_c, 1, 83, 0
2, 120000, Note_off_c, 1, 89, 0
2, 120040, End_track
3, 0, Start_track
3, 0, Title_t, "MIDI"
3, 1536, End_track
0, 0, End_of_file
