0, 0, Header, 1, 3, 192
1, 0, Start_track
1, 0, Time_signature, 4, 2, 24, 8
1, 0, Tempo, 500000
1, 120040, End_track
2, 0, Start_track
2, 0, Text_t, "random instrument: random person i dunno whatev"
2, 0, Title_t, "Track 1"
2, 0, Note_on_c, 1, 40, 127
2, 0, Note_on_c, 1, 48, 127
2, 0, Note_on_c, 1, 56, 127
2, 0, Note_on_c, 1, 60, 127
2, 120, Note_off_c, 1, 40, 0
2, 120, Note_off_c, 1, 48, 0
2, 120, Note_off_c, 1, 56, 0
2, 120, Note_off_c, 1, 60, 0
2, 160, Note_on_c, 1, 40, 127
2, 160, Note_on_c, 1, 48, 127
2, 160, Note_on_c, 1, 56, 127
2, 160, Note_on_c, 1, 60, 127
2, 200, Note_on_c, 1, 35, 127
2, 200, Note_on_c, 1, 39, 127
2, 200, Note_off_c, 1, 40, 0
2, 200, Note_on_c, 1, 47, 127
2, 200, Note_off_c, 1, 48, 0
2, 200, Note_on_c, 1, 50, 127
2, 200, Note_off_c, 1, 56, 0
2, 200, Note_off_c, 1, 60, 0
2, 240, Note_off_c, 1, 35, 0
2, 240, Note_off_c, 1, 39, 0
2, 240, Note_off_c, 1, 47, 0
2, 240, Note_off_c, 1, 50, 0
2, 240, Note_on_c, 1, 74, 127
2, 240, Note_on_c, 1, 77, 127
2, 240, Note_on_c, 1, 80, 127
2, 240, Note_on_c, 1, 83, 127
2, 520, Note_off_c, 1, 74, 0
2, 520, Note_off_c, 1, 77, 0
2, 520, Note_off_c, 1, 80, 0
2, 520, Note_off_c, 1, 83, 0
2, 14960, Note_on_c, 1, 35, 127
2, 15120, Note_off_c, 1, 35, 0
2, 18240, Note_on_c, 1, 40, 127
2, 18240, Note_on_c, 1, 52, 127
2, 18240, Note_on_c, 1, 64, 127
2, 19000, Note_off_c, 1, 40, 0
2, 19000, Note_off_c, 1, 52, 0
2, 19000, Note_off_c, 1, 64, 0
2, 19040, Note_on_c, 1, 37, 127
2, 19040, Note_on_c, 1, 49, 127
2, 19040, Note_on_c, 1, 61, 127
2, 19800, Note_off_c, 1, 37, 0
2, 19800, Note_off_c, 1, 49, 0
2, 19800, Note_off_c, 1, 61, 0
2, 19840, Note_on_c, 1, 33, 127
2, 19840, Note_on_c, 1, 45, 127
2, 19840, Note_on_c, 1, 57, 127
2, 21120, Note_off_c, 1, 33, 0
2, 21120, Note_off_c, 1, 45, 0
2, 21120, Note_off_c, 1, 57, 0
2, 21160, Note_on_c, 1, 33, 127
2, 21160, Note_on_c, 1, 45, 127
2, 21160, Note_on_c, 1, 57, 127
2, 21400, Note_off_c, 1, 33, 0
2, 21400, Note_off_c, 1, 45, 0
2, 21400, Note_off_c, 1, 57, 0
2, 36800, Note_on_c, 1, 45, 127
2, 36800, Note_on_c, 1, 49, 127
2, 37360, Note_off_c, 1, 49, 0
2, 37560, Note_on_c, 1, 52, 127
2, 37600, Note_off_c, 1, 52, 0
2, 38840, Note_off_c, 1, 45, 0
2, 38880, Note_on_c, 1, 45, 127
2, 42720, Note_off_c, 1, 45, 0
2, 42760, Note_on_c, 1, 45, 127
2, 46320, Note_off_c, 1, 45, 0
2, 46360, Note_on_c, 1, 45, 127
2, 49120, Note_off_c, 1, 45, 0
2, 49160, Note_on_c, 1, 45, 127
2, 50040, Note_on_c, 1, 40, 127
2, 50040, Note_off_c, 1, 45, 0
2, 51960, Note_off_c, 1, 40, 0
2, 52040, Note_on_c, 1, 40, 127
2, 54160, Note_off_c, 1, 40, 0
2, 54200, Note_on_c, 1, 35, 127
2, 55280, Note_off_c, 1, 35, 0
2, 55320, Note_on_c, 1, 35, 127
2, 55800, Note_off_c, 1, 35, 0
2, 55880, Note_on_c, 1, 39, 127
2, 56200, Note_off_c, 1, 39, 0
2, 56240, Note_on_c, 1, 39, 127
2, 56560, Note_off_c, 1, 39, 0
2, 56640, Note_on_c, 1, 39, 127
2, 56920, Note_off_c, 1, 39, 0
2, 57000, Note_on_c, 1, 35, 127
2, 58000, Note_off_c, 1, 35, 0
2, 58040, Note_on_c, 1, 35, 127
2, 58920, Note_off_c, 1, 35, 0
2, 58960, Note_on_c, 1, 35, 127
2, 60080, Note_off_c, 1, 35, 0
2, 60160, Note_on_c, 1, 43, 127
2, 60880, Note_off_c, 1, 43, 0
2, 60920, Note_on_c, 1, 43, 127
2, 61280, Note_off_c, 1, 43, 0
2, 61320, Note_on_c, 1, 47, 127
2, 61680, Note_off_c, 1, 47, 0
2, 61720, Note_on_c, 1, 43, 127
2, 62240, Note_off_c, 1, 43, 0
2, 62280, Note_on_c, 1, 43, 127
2, 63040, Note_off_c, 1, 43, 0
2, 67200, Note_on_c, 1, 52, 127
2, 67400, Note_on_c, 1, 61, 127
2, 67960, Note_off_c, 1, 61, 0
2, 68000, Note_on_c, 1, 59, 127
2, 68520, Note_on_c, 1, 64, 127
2, 69880, Note_off_c, 1, 52, 0
2, 69880, Note_off_c, 1, 59, 0
2, 69880, Note_off_c, 1, 64, 0
2, 74720, Note_on_c, 1, 55, 127
2, 74720, Note_on_c, 1, 58, 127
2, 74720, Note_on_c, 1, 62, 127
2, 74720, Note_on_c, 1, 67, 127
2, 74720, Note_on_c, 1, 70, 127
2, 75880, Note_off_c, 1, 55, 0
2, 75880, Note_off_c, 1, 58, 0
2, 75880, Note_off_c, 1, 62, 0
2, 75880, Note_off_c, 1, 67, 0
2, 75880, Note_off_c, 1, 70, 0
2, 100240, Note_on_c, 1, 56, 127
2, 100240, Note_on_c, 1, 68, 127
2, 101720, Note_off_c, 1, 56, 0
2, 101720, Note_off_c, 1, 68, 0
2, 101760, Note_on_c, 1, 56, 127
2, 101760, Note_on_c, 1, 68, 127
2, 102920, Note_on_c, 1, 54, 127
2, 102920, Note_off_c, 1, 56, 0
2, 102920, Note_on_c, 1, 66, 127
2, 102920, Note_off_c, 1, 68, 0
2, 104160, Note_off_c, 1, 54, 0
2, 104160, Note_off_c, 1, 66, 0
2, 104200, Note_on_c, 1, 54, 127
2, 104200, Note_on_c, 1, 66, 127
2, 105840, Note_off_c, 1, 54, 0
2, 105840, Note_off_c, 1, 66, 0
2, 105880, Note_on_c, 1, 56, 127
2, 105880, Note_on_c, 1, 68, 127
2, 106280, Note_off_c, 1, 56, 0
2, 106280, Note_off_c, 1, 68, 0
2, 120040, End_track
3, 0, Start_track
3, 0, Title_t, "MIDI"
3, 1536, End_track
0, 0, End_of_file
