0, 0, Header, 1, 3, 192
1, 0, Start_track
1, 0, Time_signature, 4, 2, 24, 8
1, 0, Tempo, 500000
1, 120040, End_track
2, 0, Start_track
2, 0, Text_t, "random instrument: random person i dunno whatev"
2, 0, Title_t, "Track 1"
2, 0, Note_on_c, 1, 40, 127
2, 0, Note_on_c, 1, 48, 127
2, 0, Note_on_c, 1, 56, 127
2, 0, Note_on_c, 1, 60, 127
2, 40, Note_off_c, 1, 40, 0
2, 40, Note_off_c, 1, 48, 0
2, 40, Note_on_c, 1, 55, 127
2, 40, Note_off_c, 1, 56, 0
2, 40, Note_off_c, 1, 60, 0
2, 40, Note_on_c, 1, 72, 127
2, 40, Note_on_c, 1, 75, 127
2, 40, Note_on_c, 1, 79, 127
2, 40, Note_on_c, 1, 84, 127
2, 80, Note_off_c, 1, 55, 0
2, 80, Note_off_c, 1, 72, 0
2, 80, Note_off_c, 1, 75, 0
2, 80, Note_off_c, 1, 79, 0
2, 80, Note_off_c, 1, 84, 0
2, 120, Note_on_c, 1, 50, 127
2, 120, Note_on_c, 1, 59, 127
2, 120, Note_on_c, 1, 62, 127
2, 120, Note_on_c, 1, 78, 127
2, 160, Note_off_c, 1, 50, 0
2, 160, Note_off_c, 1, 59, 0
2, 160, Note_on_c, 1, 60, 127
2, 160, Note_off_c, 1, 62, 0
2, 160, Note_on_c, 1, 66, 127
2, 160, Note_on_c, 1, 68, 127
2, 160, Note_off_c, 1, 78, 0
2, 160, Note_on_c, 1, 90, 127
2, 200, Note_on_c, 1, 35, 127
2, 200, Note_on_c, 1, 39, 127
2, 200, Note_on_c, 1, 47, 127
2, 200, Note_on_c, 1, 50, 127
2, 200, Note_off_c, 1, 60, 0
2, 200, Note_off_c, 1, 66, 0
2, 200, Note_off_c, 1, 68, 0
2, 200, Note_off_c, 1, 90, 0
2, 240, Note_off_c, 1, 35, 0
2, 240, Note_off_c, 1, 39, 0
2, 240, Note_off_c, 1, 47, 0
2, 240, Note_off_c, 1, 50, 0
2, 240, Note_on_c, 1, 51, 127
2, 240, Note_on_c, 1, 55, 127
2, 240, Note_on_c, 1, 58, 127
2, 240, Note_on_c, 1, 63, 127
2, 240, Note_on_c, 1, 82, 127
2, 240, Note_on_c, 1, 91, 127
2, 280, Note_off_c, 1, 51, 0
2, 280, Note_off_c, 1, 55, 0
2, 280, Note_off_c, 1, 58, 0
2, 280, Note_off_c, 1, 63, 0
2, 280, Note_on_c, 1, 76, 127
2, 280, Note_on_c, 1, 80, 127
2, 280, Note_off_c, 1, 82, 0
2, 280, Note_on_c, 1, 83, 127
2, 280, Note_on_c, 1, 89, 127
2, 280, Note_off_c, 1, 91, 0
2, 320, Note_on_c, 1, 58, 127
2, 320, Note_on_c, 1, 63, 127
2, 320, Note_on_c, 1, 66, 127
2, 320, Note_on_c, 1, 72, 127
2, 320, Note_on_c, 1, 75, 127
2, 320, Note_off_c, 1, 76, 0
2, 320, Note_off_c, 1, 80, 0
2, 320, Note_on_c, 1, 82, 127
2, 320, Note_off_c, 1, 83, 0
2, 320, Note_on_c, 1, 87, 127
2, 320, Note_off_c, 1, 89, 0
2, 360, Note_on_c, 1, 57, 127
2, 360, Note_off_c, 1, 58, 0
2, 360, Note_on_c, 1, 62, 127
2, 360, Note_off_c, 1, 63, 0
2, 360, Note_off_c, 1, 66, 0
2, 360, Note_off_c, 1, 72, 0
2, 360, Note_off_c, 1, 75, 0
2, 360, Note_off_c, 1, 82, 0
2, 360, Note_off_c, 1, 87, 0
2, 400, Note_off_c, 1, 57, 0
2, 400, Note_on_c, 1, 60, 127
2, 400, Note_off_c, 1, 62, 0
2, 400, Note_on_c, 1, 85, 127
2, 400, Note_on_c, 1, 88, 127
2, 440, Note_on_c, 1, 50, 127
2, 440, Note_on_c, 1, 57, 127
2, 440, Note_off_c, 1, 60, 0
2, 440, Note_on_c, 1, 65, 127
2, 440, Note_off_c, 1, 85, 0
2, 440, Note_off_c, 1, 88, 0
2, 440, Note_on_c, 1, 93, 127
2, 800, Note_off_c, 1, 50, 0
2, 800, Note_off_c, 1, 57, 0
2, 800, Note_off_c, 1, 65, 0
2, 800, Note_off_c, 1, 93, 0
2, 5240, Note_on_c, 1, 43, 127
2, 5240, Note_on_c, 1, 50, 127
2, 5240, Note_on_c, 1, 60, 127
2, 5240, Note_on_c, 1, 62, 127
2, 5240, Note_on_c, 1, 69, 127
2, 5480, Note_off_c, 1, 43, 0
2, 5480, Note_off_c, 1, 50, 0
2, 5480, Note_off_c, 1, 60, 0
2, 5480, Note_off_c, 1, 62, 0
2, 5480, Note_off_c, 1, 69, 0
2, 6120, Note_on_c, 1, 47, 127
2, 6120, Note_on_c, 1, 56, 127
2, 6120, Note_on_c, 1, 64, 127
2, 6120, Note_on_c, 1, 70, 127
2, 6160, Note_off_c, 1, 47, 0
2, 6160, Note_off_c, 1, 56, 0
2, 6160, Note_off_c, 1, 64, 0
2, 6160, Note_off_c, 1, 70, 0
2, 6200, Note_on_c, 1, 42, 127
2, 6200, Note_on_c, 1, 52, 127
2, 6200, Note_on_c, 1, 59, 127
2, 6200, Note_on_c, 1, 64, 127
2, 6240, Note_off_c, 1, 42, 0
2, 6240, Note_off_c, 1, 52, 0
2, 6240, Note_off_c, 1, 59, 0
2, 6240, Note_off_c, 1, 64, 0
2, 6280, Note_on_c, 1, 55, 127
2, 6280, Note_on_c, 1, 61, 127
2, 6280, Note_on_c, 1, 64, 127
2, 6280, Note_on_c, 1, 69, 127
2, 6280, Note_on_c, 1, 85, 127
2, 6320, Note_off_c, 1, 55, 0
2, 6320, Note_off_c, 1, 61, 0
2, 6320, Note_off_c, 1, 64, 0
2, 6320, Note_off_c, 1, 69, 0
2, 6320, Note_off_c, 1, 85, 0
2, 6360, Note_on_c, 1, 70, 127
2, 6360, Note_on_c, 1, 78, 127
2, 6360, Note_on_c, 1, 88, 127
2, 6400, Note_off_c, 1, 70, 0
2, 6400, Note_off_c, 1, 78, 0
2, 6400, Note_off_c, 1, 88, 0
2, 6440, Note_on_c, 1, 39, 127
2, 6440, Note_on_c, 1, 55, 127
2, 6440, Note_on_c, 1, 66, 127
2, 6480, Note_off_c, 1, 39, 0
2, 6480, Note_off_c, 1, 55, 0
2, 6480, Note_off_c, 1, 66, 0
2, 6520, Note_on_c, 1, 40, 127
2, 6520, Note_on_c, 1, 47, 127
2, 6520, Note_on_c, 1, 52, 127
2, 6520, Note_on_c, 1, 68, 127
2, 6520, Note_on_c, 1, 71, 127
2, 6520, Note_on_c, 1, 76, 127
2, 6520, Note_on_c, 1, 80, 127
2, 6560, Note_off_c, 1, 40, 0
2, 6560, Note_off_c, 1, 47, 0
2, 6560, Note_off_c, 1, 52, 0
2, 6560, Note_off_c, 1, 68, 0
2, 6560, Note_off_c, 1, 71, 0
2, 6560, Note_off_c, 1, 76, 0
2, 6560, Note_off_c, 1, 80, 0
2, 6600, Note_on_c, 1, 40, 127
2, 6600, Note_on_c, 1, 47, 127
2, 6600, Note_on_c, 1, 52, 127
2, 6600, Note_on_c, 1, 68, 127
2, 6600, Note_on_c, 1, 71, 127
2, 6600, Note_on_c, 1, 76, 127
2, 6600, Note_on_c, 1, 80, 127
2, 6720, Note_off_c, 1, 40, 0
2, 6720, Note_off_c, 1, 47, 0
2, 6720, Note_off_c, 1, 52, 0
2, 6720, Note_off_c, 1, 68, 0
2, 6720, Note_off_c, 1, 71, 0
2, 6720, Note_off_c, 1, 76, 0
2, 6720, Note_off_c, 1, 80, 0
2, 7560, Note_on_c, 1, 51, 127
2, 7560, Note_on_c, 1, 54, 127
2, 7560, Note_on_c, 1, 59, 127
2, 7720, Note_off_c, 1, 51, 0
2, 7720, Note_off_c, 1, 54, 0
2, 7720, Note_off_c, 1, 59, 0
2, 8040, Note_on_c, 1, 32, 127
2, 8120, Note_off_c, 1, 32, 0
2, 10040, Note_on_c, 1, 42, 127
2, 10040, Note_on_c, 1, 49, 127
2, 10120, Note_off_c, 1, 42, 0
2, 10120, Note_off_c, 1, 49, 0
2, 10160, Note_on_c, 1, 44, 127
2, 10200, Note_off_c, 1, 44, 0
2, 10200, Note_on_c, 1, 53, 127
2, 10240, Note_off_c, 1, 53, 0
2, 10240, Note_on_c, 1, 57, 127
2, 10280, Note_off_c, 1, 57, 0
2, 10320, Note_on_c, 1, 56, 127
2, 10360, Note_off_c, 1, 56, 0
2, 10360, Note_on_c, 1, 62, 127
2, 10400, Note_off_c, 1, 62, 0
2, 10440, Note_on_c, 1, 56, 127
2, 10480, Note_off_c, 1, 56, 0
2, 10480, Note_on_c, 1, 65, 127
2, 10560, Note_off_c, 1, 65, 0
2, 10600, Note_on_c, 1, 56, 127
2, 10640, Note_off_c, 1, 56, 0
2, 10640, Note_on_c, 1, 58, 127
2, 10680, Note_off_c, 1, 58, 0
2, 10720, Note_on_c, 1, 61, 127
2, 10760, Note_off_c, 1, 61, 0
2, 10760, Note_on_c, 1, 65, 127
2, 10800, Note_off_c, 1, 65, 0
2, 10840, Note_on_c, 1, 65, 127
2, 10880, Note_on_c, 1, 58, 127
2, 10880, Note_off_c, 1, 65, 0
2, 10960, Note_on_c, 1, 49, 127
2, 10960, Note_off_c, 1, 58, 0
2, 11040, Note_off_c, 1, 49, 0
2, 11040, Note_on_c, 1, 53, 127
2, 11120, Note_off_c, 1, 53, 0
2, 11160, Note_on_c, 1, 44, 127
2, 11160, Note_on_c, 1, 72, 127
2, 11160, Note_on_c, 1, 75, 127
2, 11240, Note_off_c, 1, 44, 0
2, 11280, Note_on_c, 1, 44, 127
2, 11360, Note_off_c, 1, 44, 0
2, 11400, Note_on_c, 1, 44, 127
2, 11440, Note_off_c, 1, 44, 0
2, 11480, Note_on_c, 1, 56, 127
2, 11480, Note_off_c, 1, 72, 0
2, 11480, Note_off_c, 1, 75, 0
2, 11520, Note_on_c, 1, 67, 127
2, 11520, Note_on_c, 1, 70, 127
2, 11600, Note_off_c, 1, 56, 0
2, 11600, Note_off_c, 1, 67, 0
2, 11600, Note_off_c, 1, 70, 0
2, 11640, Note_on_c, 1, 51, 127
2, 11640, Note_on_c, 1, 75, 127
2, 11640, Note_on_c, 1, 78, 127
2, 11680, Note_off_c, 1, 51, 0
2, 11680, Note_on_c, 1, 72, 127
2, 11680, Note_off_c, 1, 78, 0
2, 11720, Note_on_c, 1, 56, 127
2, 11720, Note_off_c, 1, 72, 0
2, 11720, Note_off_c, 1, 75, 0
2, 11760, Note_on_c, 1, 72, 127
2, 11760, Note_on_c, 1, 75, 127
2, 11800, Note_off_c, 1, 56, 0
2, 11840, Note_on_c, 1, 56, 127
2, 11880, Note_off_c, 1, 56, 0
2, 11920, Note_on_c, 1, 56, 127
2, 11920, Note_off_c, 1, 72, 0
2, 11920, Note_off_c, 1, 75, 0
2, 11960, Note_on_c, 1, 72, 127
2, 11960, Note_on_c, 1, 75, 127
2, 12000, Note_off_c, 1, 56, 0
2, 12040, Note_on_c, 1, 56, 127
2, 12040, Note_off_c, 1, 72, 0
2, 12040, Note_off_c, 1, 75, 0
2, 12080, Note_on_c, 1, 68, 127
2, 12080, Note_on_c, 1, 72, 127
2, 12160, Note_off_c, 1, 56, 0
2, 12160, Note_off_c, 1, 68, 0
2, 12160, Note_off_c, 1, 72, 0
2, 12200, Note_on_c, 1, 56, 127
2, 12200, Note_on_c, 1, 68, 127
2, 12240, Note_on_c, 1, 72, 127
2, 12280, Note_on_c, 1, 48, 127
2, 12280, Note_on_c, 1, 60, 127
2, 12280, Note_off_c, 1, 72, 0
2, 12320, Note_off_c, 1, 48, 0
2, 12320, Note_off_c, 1, 68, 0
2, 12360, Note_off_c, 1, 60, 0
2, 12480, Note_off_c, 1, 56, 0
2, 12520, Note_on_c, 1, 56, 127
2, 12520, Note_on_c, 1, 60, 127
2, 12560, Note_off_c, 1, 56, 0
2, 12560, Note_off_c, 1, 60, 0
2, 12600, Note_on_c, 1, 56, 127
2, 13080, Note_off_c, 1, 56, 0
2, 13120, Note_on_c, 1, 56, 127
2, 13320, Note_on_c, 1, 76, 127
2, 13400, Note_off_c, 1, 76, 0
2, 13440, Note_on_c, 1, 75, 127
2, 13480, Note_off_c, 1, 75, 0
2, 13520, Note_on_c, 1, 66, 127
2, 13560, Note_on_c, 1, 63, 127
2, 13560, Note_off_c, 1, 66, 0
2, 13600, Note_off_c, 1, 63, 0
2, 13640, Note_on_c, 1, 66, 127
2, 13680, Note_off_c, 1, 66, 0
2, 13720, Note_on_c, 1, 61, 127
2, 13760, Note_off_c, 1, 61, 0
2, 13800, Note_on_c, 1, 64, 127
2, 13840, Note_off_c, 1, 56, 0
2, 13840, Note_off_c, 1, 64, 0
2, 13880, Note_on_c, 1, 52, 127
2, 14440, Note_off_c, 1, 52, 0
2, 14480, Note_on_c, 1, 52, 127
2, 15240, Note_off_c, 1, 52, 0
2, 16920, Note_on_c, 1, 57, 127
2, 16920, Note_on_c, 1, 73, 127
2, 17080, Note_off_c, 1, 57, 0
2, 17080, Note_off_c, 1, 73, 0
2, 17160, Note_on_c, 1, 57, 127
2, 17160, Note_on_c, 1, 73, 127
2, 17360, Note_off_c, 1, 57, 0
2, 17360, Note_off_c, 1, 73, 0
2, 17400, Note_on_c, 1, 62, 127
2, 17400, Note_on_c, 1, 74, 127
2, 17440, Note_off_c, 1, 62, 0
2, 17440, Note_off_c, 1, 74, 0
2, 17640, Note_on_c, 1, 74, 127
2, 17640, Note_on_c, 1, 78, 127
2, 17680, Note_off_c, 1, 74, 0
2, 17680, Note_off_c, 1, 78, 0
2, 17720, Note_on_c, 1, 74, 127
2, 17720, Note_on_c, 1, 78, 127
2, 17760, Note_off_c, 1, 74, 0
2, 17760, Note_off_c, 1, 78, 0
2, 17800, Note_on_c, 1, 73, 127
2, 17800, Note_on_c, 1, 77, 127
2, 17840, Note_off_c, 1, 73, 0
2, 17840, Note_off_c, 1, 77, 0
2, 17880, Note_on_c, 1, 74, 127
2, 17880, Note_on_c, 1, 78, 127
2, 17920, Note_off_c, 1, 74, 0
2, 17920, Note_off_c, 1, 78, 0
2, 17960, Note_on_c, 1, 74, 127
2, 17960, Note_on_c, 1, 78, 127
2, 18000, Note_off_c, 1, 74, 0
2, 18000, Note_off_c, 1, 78, 0
2, 18240, Note_on_c, 1, 74, 127
2, 18240, Note_on_c, 1, 78, 127
2, 18480, Note_off_c, 1, 74, 0
2, 18480, Note_off_c, 1, 78, 0
2, 18520, Note_on_c, 1, 64, 127
2, 18520, Note_on_c, 1, 73, 127
2, 18600, Note_off_c, 1, 64, 0
2, 18600, Note_off_c, 1, 73, 0
2, 18760, Note_on_c, 1, 68, 127
2, 18760, Note_on_c, 1, 76, 127
2, 18800, Note_off_c, 1, 68, 0
2, 18800, Note_off_c, 1, 76, 0
2, 18840, Note_on_c, 1, 62, 127
2, 18840, Note_on_c, 1, 69, 127
2, 18840, Note_on_c, 1, 71, 127
2, 19160, Note_off_c, 1, 62, 0
2, 19160, Note_off_c, 1, 69, 0
2, 19160, Note_off_c, 1, 71, 0
2, 19240, Note_on_c, 1, 61, 127
2, 19240, Note_on_c, 1, 69, 127
2, 19280, Note_off_c, 1, 61, 0
2, 19280, Note_off_c, 1, 69, 0
2, 19600, Note_on_c, 1, 76, 127
2, 19640, Note_off_c, 1, 76, 0
2, 19840, Note_on_c, 1, 72, 127
2, 19880, Note_off_c, 1, 72, 0
2, 19880, Note_on_c, 1, 73, 127
2, 19920, Note_off_c, 1, 73, 0
2, 19960, Note_on_c, 1, 62, 127
2, 19960, Note_on_c, 1, 66, 127
2, 20520, Note_off_c, 1, 62, 0
2, 20520, Note_off_c, 1, 66, 0
2, 20560, Note_on_c, 1, 52, 127
2, 20560, Note_on_c, 1, 64, 127
2, 20840, Note_off_c, 1, 52, 0
2, 20840, Note_off_c, 1, 64, 0
2, 21120, Note_on_c, 1, 76, 127
2, 21160, Note_off_c, 1, 76, 0
2, 21200, Note_on_c, 1, 62, 127
2, 21200, Note_on_c, 1, 71, 127
2, 21240, Note_off_c, 1, 62, 0
2, 21240, Note_off_c, 1, 71, 0
2, 21480, Note_on_c, 1, 49, 127
2, 21480, Note_on_c, 1, 59, 127
2, 21480, Note_on_c, 1, 73, 127
2, 21520, Note_off_c, 1, 49, 0
2, 21520, Note_off_c, 1, 59, 0
2, 21520, Note_off_c, 1, 73, 0
2, 21560, Note_on_c, 1, 76, 127
2, 21600, Note_on_c, 1, 73, 127
2, 21600, Note_off_c, 1, 76, 0
2, 21640, Note_on_c, 1, 57, 127
2, 21640, Note_off_c, 1, 73, 0
2, 21640, Note_on_c, 1, 76, 127
2, 21720, Note_off_c, 1, 76, 0
2, 21760, Note_on_c, 1, 74, 127
2, 21800, Note_off_c, 1, 74, 0
2, 21840, Note_on_c, 1, 71, 127
2, 21880, Note_off_c, 1, 57, 0
2, 21880, Note_off_c, 1, 71, 0
2, 21920, Note_on_c, 1, 49, 127
2, 21920, Note_on_c, 1, 71, 127
2, 21960, Note_off_c, 1, 49, 0
2, 22000, Note_on_c, 1, 52, 127
2, 22000, Note_off_c, 1, 71, 0
2, 22040, Note_on_c, 1, 59, 127
2, 22080, Note_off_c, 1, 59, 0
2, 22120, Note_on_c, 1, 68, 127
2, 22160, Note_off_c, 1, 52, 0
2, 22160, Note_off_c, 1, 68, 0
2, 22200, Note_on_c, 1, 62, 127
2, 22200, Note_on_c, 1, 64, 127
2, 22200, Note_on_c, 1, 74, 127
2, 22240, Note_off_c, 1, 62, 0
2, 22240, Note_off_c, 1, 64, 0
2, 22280, Note_off_c, 1, 74, 0
2, 22320, Note_on_c, 1, 62, 127
2, 22320, Note_on_c, 1, 64, 127
2, 22320, Note_on_c, 1, 74, 127
2, 22360, Note_off_c, 1, 62, 0
2, 22360, Note_off_c, 1, 64, 0
2, 22560, Note_off_c, 1, 74, 0
2, 22600, Note_on_c, 1, 62, 127
2, 22600, Note_on_c, 1, 64, 127
2, 22600, Note_on_c, 1, 73, 127
2, 22640, Note_off_c, 1, 73, 0
2, 22840, Note_off_c, 1, 64, 0
2, 22840, Note_on_c, 1, 71, 127
2, 22880, Note_on_c, 1, 64, 127
2, 22880, Note_off_c, 1, 71, 0
2, 22960, Note_on_c, 1, 68, 127
2, 23000, Note_off_c, 1, 68, 0
2, 23120, Note_on_c, 1, 71, 127
2, 23160, Note_off_c, 1, 71, 0
2, 23240, Note_on_c, 1, 71, 127
2, 23280, Note_off_c, 1, 71, 0
2, 23320, Note_on_c, 1, 71, 127
2, 23360, Note_off_c, 1, 71, 0
2, 23560, Note_off_c, 1, 62, 0
2, 23560, Note_off_c, 1, 64, 0
2, 23640, Note_on_c, 1, 33, 127
2, 23720, Note_off_c, 1, 33, 0
2, 23720, Note_on_c, 1, 45, 127
2, 23960, Note_off_c, 1, 45, 0
2, 24000, Note_on_c, 1, 49, 127
2, 24000, Note_on_c, 1, 66, 127
2, 24160, Note_off_c, 1, 66, 0
2, 24200, Note_on_c, 1, 74, 127
2, 24240, Note_off_c, 1, 74, 0
2, 24280, Note_on_c, 1, 64, 127
2, 24320, Note_off_c, 1, 49, 0
2, 24320, Note_off_c, 1, 64, 0
2, 24360, Note_on_c, 1, 50, 127
2, 24360, Note_on_c, 1, 78, 127
2, 24520, Note_off_c, 1, 50, 0
2, 24560, Note_on_c, 1, 54, 127
2, 24600, Note_off_c, 1, 54, 0
2, 24640, Note_on_c, 1, 58, 127
2, 24680, Note_off_c, 1, 58, 0
2, 24720, Note_on_c, 1, 52, 127
2, 24760, Note_off_c, 1, 52, 0
2, 24800, Note_on_c, 1, 47, 127
2, 24840, Note_off_c, 1, 47, 0
2, 24880, Note_on_c, 1, 56, 127
2, 24960, Note_off_c, 1, 56, 0
2, 25000, Note_on_c, 1, 57, 127
2, 25040, Note_off_c, 1, 57, 0
2, 25040, Note_off_c, 1, 78, 0
2, 25080, Note_on_c, 1, 47, 127
2, 25080, Note_on_c, 1, 78, 127
2, 25120, Note_off_c, 1, 47, 0
2, 25360, Note_on_c, 1, 50, 127
2, 25400, Note_off_c, 1, 50, 0
2, 25400, Note_off_c, 1, 78, 0
2, 25440, Note_on_c, 1, 59, 127
2, 25440, Note_on_c, 1, 66, 127
2, 25440, Note_on_c, 1, 69, 127
2, 25440, Note_on_c, 1, 71, 127
2, 25440, Note_on_c, 1, 75, 127
2, 25680, Note_off_c, 1, 66, 0
2, 25680, Note_off_c, 1, 69, 0
2, 25680, Note_off_c, 1, 75, 0
2, 25720, Note_on_c, 1, 66, 127
2, 25720, Note_on_c, 1, 69, 127
2, 25720, Note_off_c, 1, 71, 0
2, 25720, Note_on_c, 1, 74, 127
2, 25760, Note_off_c, 1, 59, 0
2, 25760, Note_off_c, 1, 66, 0
2, 25760, Note_off_c, 1, 69, 0
2, 25760, Note_off_c, 1, 74, 0
2, 25840, Note_on_c, 1, 52, 127
2, 25840, Note_on_c, 1, 76, 127
2, 25960, Note_off_c, 1, 52, 0
2, 26000, Note_on_c, 1, 47, 127
2, 26040, Note_off_c, 1, 76, 0
2, 26040, Note_on_c, 1, 78, 127
2, 26080, Note_off_c, 1, 47, 0
2, 26080, Note_on_c, 1, 76, 127
2, 26080, Note_off_c, 1, 78, 0
2, 26200, Note_on_c, 1, 55, 127
2, 26200, Note_on_c, 1, 59, 127
2, 26200, Note_on_c, 1, 64, 127
2, 26440, Note_off_c, 1, 76, 0
2, 26520, Note_off_c, 1, 55, 0
2, 26520, Note_off_c, 1, 59, 0
2, 26520, Note_off_c, 1, 64, 0
2, 26560, Note_on_c, 1, 64, 127
2, 26560, Note_on_c, 1, 66, 127
2, 26880, Note_off_c, 1, 64, 0
2, 26880, Note_off_c, 1, 66, 0
2, 26920, Note_on_c, 1, 64, 127
2, 27160, Note_off_c, 1, 64, 0
2, 27200, Note_on_c, 1, 66, 127
2, 27240, Note_off_c, 1, 66, 0
2, 27280, Note_on_c, 1, 71, 127
2, 27280, Note_on_c, 1, 74, 127
2, 27280, Note_on_c, 1, 76, 127
2, 27600, Note_off_c, 1, 71, 0
2, 27600, Note_off_c, 1, 74, 0
2, 27600, Note_off_c, 1, 76, 0
2, 27640, Note_on_c, 1, 71, 127
2, 27640, Note_on_c, 1, 74, 127
2, 27640, Note_on_c, 1, 76, 127
2, 27680, Note_off_c, 1, 76, 0
2, 27720, Note_on_c, 1, 76, 127
2, 27960, Note_off_c, 1, 71, 0
2, 27960, Note_off_c, 1, 74, 0
2, 27960, Note_off_c, 1, 76, 0
2, 28000, Note_on_c, 1, 69, 127
2, 28000, Note_on_c, 1, 71, 127
2, 28040, Note_on_c, 1, 68, 127
2, 28040, Note_off_c, 1, 69, 0
2, 28040, Note_on_c, 1, 74, 127
2, 28040, Note_on_c, 1, 76, 127
2, 28080, Note_off_c, 1, 68, 0
2, 28080, Note_off_c, 1, 71, 0
2, 28240, Note_on_c, 1, 69, 127
2, 28280, Note_off_c, 1, 69, 0
2, 28320, Note_on_c, 1, 68, 127
2, 28360, Note_off_c, 1, 68, 0
2, 28360, Note_off_c, 1, 76, 0
2, 28440, Note_on_c, 1, 76, 127
2, 28600, Note_on_c, 1, 68, 127
2, 28640, Note_off_c, 1, 68, 0
2, 28680, Note_on_c, 1, 69, 127
2, 28720, Note_off_c, 1, 69, 0
2, 28800, Note_on_c, 1, 73, 127
2, 28800, Note_off_c, 1, 74, 0
2, 28920, Note_off_c, 1, 73, 0
2, 28920, Note_off_c, 1, 76, 0
2, 28960, Note_on_c, 1, 71, 127
2, 28960, Note_on_c, 1, 74, 127
2, 29120, Note_on_c, 1, 68, 127
2, 29280, Note_off_c, 1, 68, 0
2, 29280, Note_off_c, 1, 71, 0
2, 29280, Note_off_c, 1, 74, 0
2, 29320, Note_on_c, 1, 69, 127
2, 29320, Note_on_c, 1, 73, 127
2, 29440, Note_off_c, 1, 69, 0
2, 29480, Note_on_c, 1, 69, 127
2, 29640, Note_off_c, 1, 69, 0
2, 29640, Note_off_c, 1, 73, 0
2, 29680, Note_on_c, 1, 69, 127
2, 29680, Note_on_c, 1, 73, 127
2, 29920, Note_off_c, 1, 69, 0
2, 29920, Note_off_c, 1, 73, 0
2, 29960, Note_on_c, 1, 69, 127
2, 29960, Note_on_c, 1, 73, 127
2, 30040, Note_off_c, 1, 69, 0
2, 30040, Note_off_c, 1, 73, 0
2, 30080, Note_on_c, 1, 69, 127
2, 30080, Note_on_c, 1, 72, 127
2, 30400, Note_off_c, 1, 69, 0
2, 30400, Note_off_c, 1, 72, 0
2, 30440, Note_on_c, 1, 67, 127
2, 30440, Note_on_c, 1, 71, 127
2, 30760, Note_off_c, 1, 67, 0
2, 30760, Note_off_c, 1, 71, 0
2, 30800, Note_on_c, 1, 64, 127
2, 30800, Note_on_c, 1, 67, 127
2, 30800, Note_on_c, 1, 72, 127
2, 31120, Note_off_c, 1, 64, 0
2, 31120, Note_off_c, 1, 67, 0
2, 31120, Note_off_c, 1, 72, 0
2, 31160, Note_on_c, 1, 62, 127
2, 31160, Note_on_c, 1, 65, 127
2, 31160, Note_on_c, 1, 69, 127
2, 31480, Note_off_c, 1, 62, 0
2, 31480, Note_off_c, 1, 65, 0
2, 31480, Note_off_c, 1, 69, 0
2, 31520, Note_on_c, 1, 62, 127
2, 31520, Note_on_c, 1, 65, 127
2, 31520, Note_on_c, 1, 68, 127
2, 31840, Note_off_c, 1, 62, 0
2, 31840, Note_off_c, 1, 65, 0
2, 31840, Note_off_c, 1, 68, 0
2, 31880, Note_on_c, 1, 60, 127
2, 31880, Note_on_c, 1, 64, 127
2, 31880, Note_on_c, 1, 69, 127
2, 32000, Note_off_c, 1, 60, 0
2, 32000, Note_off_c, 1, 64, 0
2, 32000, Note_off_c, 1, 69, 0
2, 32040, Note_on_c, 1, 60, 127
2, 32040, Note_on_c, 1, 64, 127
2, 32040, Note_on_c, 1, 69, 127
2, 32160, Note_off_c, 1, 69, 0
2, 32200, Note_on_c, 1, 69, 127
2, 32240, Note_off_c, 1, 60, 0
2, 32240, Note_off_c, 1, 64, 0
2, 32240, Note_off_c, 1, 69, 0
2, 32280, Note_on_c, 1, 59, 127
2, 32280, Note_on_c, 1, 62, 127
2, 32280, Note_on_c, 1, 68, 127
2, 32600, Note_off_c, 1, 59, 0
2, 32600, Note_off_c, 1, 62, 0
2, 32600, Note_off_c, 1, 68, 0
2, 32640, Note_on_c, 1, 60, 127
2, 32640, Note_on_c, 1, 64, 127
2, 32640, Note_on_c, 1, 69, 127
2, 32960, Note_off_c, 1, 60, 0
2, 32960, Note_off_c, 1, 64, 0
2, 32960, Note_off_c, 1, 69, 0
2, 33000, Note_on_c, 1, 60, 127
2, 33000, Note_on_c, 1, 64, 127
2, 33000, Note_on_c, 1, 69, 127
2, 33320, Note_off_c, 1, 60, 0
2, 33320, Note_off_c, 1, 64, 0
2, 33320, Note_off_c, 1, 69, 0
2, 33360, Note_on_c, 1, 57, 127
2, 33360, Note_on_c, 1, 60, 127
2, 33360, Note_on_c, 1, 64, 127
2, 33360, Note_on_c, 1, 69, 127
2, 33640, Note_off_c, 1, 57, 0
2, 33640, Note_off_c, 1, 60, 0
2, 33640, Note_off_c, 1, 64, 0
2, 33640, Note_off_c, 1, 69, 0
2, 33680, Note_on_c, 1, 52, 127
2, 33680, Note_on_c, 1, 59, 127
2, 33680, Note_on_c, 1, 62, 127
2, 33680, Note_on_c, 1, 64, 127
2, 33960, Note_off_c, 1, 59, 0
2, 33960, Note_off_c, 1, 62, 0
2, 33960, Note_off_c, 1, 64, 0
2, 34000, Note_off_c, 1, 52, 0
2, 34040, Note_on_c, 1, 55, 127
2, 34040, Note_on_c, 1, 61, 127
2, 34040, Note_on_c, 1, 64, 127
2, 34160, Note_off_c, 1, 55, 0
2, 34160, Note_off_c, 1, 61, 0
2, 34160, Note_off_c, 1, 64, 0
2, 34200, Note_on_c, 1, 55, 127
2, 34200, Note_on_c, 1, 61, 127
2, 34200, Note_on_c, 1, 64, 127
2, 34400, Note_off_c, 1, 55, 0
2, 34400, Note_off_c, 1, 61, 0
2, 34400, Note_off_c, 1, 64, 0
2, 34440, Note_on_c, 1, 43, 127
2, 34440, Note_on_c, 1, 61, 127
2, 34440, Note_on_c, 1, 64, 127
2, 34760, Note_off_c, 1, 43, 0
2, 34760, Note_off_c, 1, 61, 0
2, 34760, Note_off_c, 1, 64, 0
2, 34800, Note_on_c, 1, 52, 127
2, 34800, Note_on_c, 1, 59, 127
2, 34800, Note_on_c, 1, 64, 127
2, 34800, Note_on_c, 1, 68, 127
2, 35120, Note_off_c, 1, 59, 0
2, 35120, Note_off_c, 1, 64, 0
2, 35120, Note_off_c, 1, 68, 0
2, 35160, Note_on_c, 1, 61, 127
2, 35160, Note_on_c, 1, 64, 127
2, 35160, Note_on_c, 1, 69, 127
2, 35480, Note_off_c, 1, 52, 0
2, 35480, Note_off_c, 1, 61, 0
2, 35480, Note_off_c, 1, 64, 0
2, 35480, Note_off_c, 1, 69, 0
2, 35520, Note_on_c, 1, 47, 127
2, 35520, Note_on_c, 1, 52, 127
2, 35520, Note_on_c, 1, 56, 127
2, 35520, Note_on_c, 1, 59, 127
2, 35520, Note_on_c, 1, 64, 127
2, 35520, Note_on_c, 1, 68, 127
2, 35520, Note_on_c, 1, 71, 127
2, 35640, Note_off_c, 1, 47, 0
2, 35640, Note_off_c, 1, 52, 0
2, 35640, Note_off_c, 1, 56, 0
2, 35640, Note_off_c, 1, 64, 0
2, 35640, Note_off_c, 1, 68, 0
2, 35640, Note_off_c, 1, 71, 0
2, 35680, Note_on_c, 1, 47, 127
2, 35680, Note_on_c, 1, 52, 127
2, 35680, Note_on_c, 1, 56, 127
2, 35680, Note_on_c, 1, 64, 127
2, 35680, Note_on_c, 1, 68, 127
2, 35680, Note_on_c, 1, 71, 127
2, 35840, Note_off_c, 1, 47, 0
2, 35840, Note_off_c, 1, 52, 0
2, 35840, Note_off_c, 1, 56, 0
2, 35840, Note_off_c, 1, 59, 0
2, 35840, Note_off_c, 1, 64, 0
2, 35840, Note_off_c, 1, 68, 0
2, 35840, Note_off_c, 1, 71, 0
2, 35880, Note_on_c, 1, 47, 127
2, 35880, Note_on_c, 1, 52, 127
2, 35880, Note_on_c, 1, 56, 127
2, 35880, Note_on_c, 1, 59, 127
2, 35880, Note_on_c, 1, 64, 127
2, 35880, Note_on_c, 1, 68, 127
2, 35880, Note_on_c, 1, 71, 127
2, 36160, Note_off_c, 1, 47, 0
2, 36160, Note_off_c, 1, 52, 0
2, 36160, Note_off_c, 1, 56, 0
2, 36160, Note_off_c, 1, 59, 0
2, 36160, Note_off_c, 1, 64, 0
2, 36160, Note_off_c, 1, 68, 0
2, 36160, Note_off_c, 1, 71, 0
2, 36200, Note_on_c, 1, 47, 127
2, 36200, Note_on_c, 1, 52, 127
2, 36200, Note_on_c, 1, 56, 127
2, 36200, Note_on_c, 1, 59, 127
2, 36200, Note_on_c, 1, 64, 127
2, 36200, Note_on_c, 1, 68, 127
2, 36200, Note_on_c, 1, 71, 127
2, 36400, Note_off_c, 1, 47, 0
2, 36400, Note_off_c, 1, 52, 0
2, 36400, Note_off_c, 1, 56, 0
2, 36400, Note_off_c, 1, 59, 0
2, 36400, Note_off_c, 1, 64, 0
2, 36400, Note_off_c, 1, 68, 0
2, 36400, Note_off_c, 1, 71, 0
2, 36440, Note_on_c, 1, 47, 127
2, 36440, Note_on_c, 1, 52, 127
2, 36440, Note_on_c, 1, 56, 127
2, 36440, Note_on_c, 1, 59, 127
2, 36440, Note_on_c, 1, 64, 127
2, 36440, Note_on_c, 1, 68, 127
2, 36440, Note_on_c, 1, 71, 127
2, 36560, Note_off_c, 1, 47, 0
2, 36560, Note_off_c, 1, 52, 0
2, 36560, Note_off_c, 1, 56, 0
2, 36560, Note_off_c, 1, 59, 0
2, 36560, Note_off_c, 1, 64, 0
2, 36560, Note_off_c, 1, 68, 0
2, 36560, Note_off_c, 1, 71, 0
2, 36600, Note_on_c, 1, 47, 127
2, 36600, Note_on_c, 1, 52, 127
2, 36600, Note_on_c, 1, 56, 127
2, 36600, Note_on_c, 1, 59, 127
2, 36600, Note_on_c, 1, 64, 127
2, 36600, Note_on_c, 1, 68, 127
2, 36600, Note_on_c, 1, 71, 127
2, 36920, Note_off_c, 1, 47, 0
2, 36920, Note_off_c, 1, 52, 0
2, 36920, Note_off_c, 1, 56, 0
2, 36920, Note_off_c, 1, 59, 0
2, 36920, Note_off_c, 1, 64, 0
2, 36920, Note_off_c, 1, 68, 0
2, 36920, Note_off_c, 1, 71, 0
2, 36960, Note_on_c, 1, 47, 127
2, 36960, Note_on_c, 1, 52, 127
2, 36960, Note_on_c, 1, 56, 127
2, 36960, Note_on_c, 1, 59, 127
2, 36960, Note_on_c, 1, 64, 127
2, 36960, Note_on_c, 1, 68, 127
2, 36960, Note_on_c, 1, 71, 127
2, 37280, Note_off_c, 1, 47, 0
2, 37280, Note_off_c, 1, 52, 0
2, 37280, Note_off_c, 1, 56, 0
2, 37280, Note_off_c, 1, 59, 0
2, 37280, Note_off_c, 1, 64, 0
2, 37280, Note_off_c, 1, 68, 0
2, 37280, Note_off_c, 1, 71, 0
2, 37320, Note_on_c, 1, 47, 127
2, 37320, Note_on_c, 1, 52, 127
2, 37320, Note_on_c, 1, 56, 127
2, 37320, Note_on_c, 1, 59, 127
2, 37320, Note_on_c, 1, 64, 127
2, 37320, Note_on_c, 1, 68, 127
2, 37320, Note_on_c, 1, 71, 127
2, 37640, Note_off_c, 1, 47, 0
2, 37640, Note_off_c, 1, 52, 0
2, 37640, Note_off_c, 1, 56, 0
2, 37640, Note_off_c, 1, 59, 0
2, 37640, Note_off_c, 1, 64, 0
2, 37640, Note_off_c, 1, 68, 0
2, 37640, Note_off_c, 1, 71, 0
2, 37680, Note_on_c, 1, 47, 127
2, 37680, Note_on_c, 1, 52, 127
2, 37680, Note_on_c, 1, 56, 127
2, 37680, Note_on_c, 1, 59, 127
2, 37680, Note_on_c, 1, 64, 127
2, 37680, Note_on_c, 1, 68, 127
2, 37680, Note_on_c, 1, 71, 127
2, 38000, Note_off_c, 1, 47, 0
2, 38000, Note_off_c, 1, 52, 0
2, 38000, Note_off_c, 1, 56, 0
2, 38000, Note_off_c, 1, 59, 0
2, 38000, Note_off_c, 1, 64, 0
2, 38000, Note_off_c, 1, 68, 0
2, 38000, Note_off_c, 1, 71, 0
2, 38040, Note_on_c, 1, 47, 127
2, 38040, Note_on_c, 1, 52, 127
2, 38040, Note_on_c, 1, 56, 127
2, 38040, Note_on_c, 1, 59, 127
2, 38040, Note_on_c, 1, 64, 127
2, 38040, Note_on_c, 1, 68, 127
2, 38040, Note_on_c, 1, 71, 127
2, 38360, Note_off_c, 1, 47, 0
2, 38360, Note_off_c, 1, 52, 0
2, 38360, Note_off_c, 1, 56, 0
2, 38360, Note_off_c, 1, 59, 0
2, 38360, Note_off_c, 1, 64, 0
2, 38360, Note_off_c, 1, 68, 0
2, 38360, Note_off_c, 1, 71, 0
2, 38400, Note_on_c, 1, 40, 127
2, 38400, Note_on_c, 1, 59, 127
2, 38400, Note_on_c, 1, 64, 127
2, 38400, Note_on_c, 1, 68, 127
2, 38600, Note_off_c, 1, 40, 0
2, 38600, Note_off_c, 1, 59, 0
2, 38600, Note_off_c, 1, 64, 0
2, 38600, Note_off_c, 1, 68, 0
2, 38640, Note_on_c, 1, 40, 127
2, 38640, Note_on_c, 1, 59, 127
2, 38640, Note_on_c, 1, 64, 127
2, 38640, Note_on_c, 1, 68, 127
2, 38680, Note_off_c, 1, 59, 0
2, 38680, Note_off_c, 1, 64, 0
2, 38680, Note_off_c, 1, 68, 0
2, 38800, Note_on_c, 1, 59, 127
2, 38800, Note_on_c, 1, 64, 127
2, 38800, Note_on_c, 1, 68, 127
2, 39120, Note_off_c, 1, 40, 0
2, 39120, Note_off_c, 1, 59, 0
2, 39120, Note_off_c, 1, 64, 0
2, 39120, Note_off_c, 1, 68, 0
2, 39160, Note_on_c, 1, 40, 127
2, 39160, Note_on_c, 1, 52, 127
2, 39160, Note_on_c, 1, 64, 127
2, 39160, Note_on_c, 1, 68, 127
2, 39160, Note_on_c, 1, 71, 127
2, 39400, Note_off_c, 1, 40, 0
2, 39400, Note_off_c, 1, 52, 0
2, 39440, Note_on_c, 1, 40, 127
2, 39440, Note_on_c, 1, 52, 127
2, 39480, Note_off_c, 1, 40, 0
2, 39480, Note_off_c, 1, 52, 0
2, 39480, Note_off_c, 1, 64, 0
2, 39480, Note_off_c, 1, 68, 0
2, 39480, Note_off_c, 1, 71, 0
2, 39520, Note_on_c, 1, 38, 127
2, 39520, Note_on_c, 1, 50, 127
2, 39520, Note_on_c, 1, 64, 127
2, 39520, Note_on_c, 1, 68, 127
2, 39520, Note_on_c, 1, 71, 127
2, 39840, Note_off_c, 1, 38, 0
2, 39840, Note_off_c, 1, 50, 0
2, 39840, Note_off_c, 1, 64, 0
2, 39840, Note_off_c, 1, 68, 0
2, 39840, Note_off_c, 1, 71, 0
2, 39880, Note_on_c, 1, 38, 127
2, 39880, Note_on_c, 1, 50, 127
2, 39880, Note_on_c, 1, 64, 127
2, 39880, Note_on_c, 1, 68, 127
2, 39880, Note_on_c, 1, 71, 127
2, 40200, Note_off_c, 1, 38, 0
2, 40200, Note_off_c, 1, 50, 0
2, 40200, Note_off_c, 1, 64, 0
2, 40200, Note_off_c, 1, 68, 0
2, 40200, Note_off_c, 1, 71, 0
2, 40240, Note_on_c, 1, 38, 127
2, 40240, Note_on_c, 1, 50, 127
2, 40240, Note_on_c, 1, 64, 127
2, 40240, Note_on_c, 1, 68, 127
2, 40240, Note_on_c, 1, 71, 127
2, 40560, Note_off_c, 1, 38, 0
2, 40560, Note_off_c, 1, 50, 0
2, 40560, Note_off_c, 1, 64, 0
2, 40560, Note_off_c, 1, 68, 0
2, 40560, Note_off_c, 1, 71, 0
2, 40600, Note_on_c, 1, 38, 127
2, 40600, Note_on_c, 1, 50, 127
2, 40600, Note_on_c, 1, 64, 127
2, 40600, Note_on_c, 1, 68, 127
2, 40600, Note_on_c, 1, 71, 127
2, 40760, Note_off_c, 1, 38, 0
2, 40760, Note_off_c, 1, 50, 0
2, 40760, Note_off_c, 1, 64, 0
2, 40760, Note_off_c, 1, 68, 0
2, 40760, Note_off_c, 1, 71, 0
2, 40800, Note_on_c, 1, 38, 127
2, 40800, Note_on_c, 1, 50, 127
2, 40800, Note_on_c, 1, 64, 127
2, 40800, Note_on_c, 1, 68, 127
2, 40800, Note_on_c, 1, 71, 127
2, 40960, Note_off_c, 1, 38, 0
2, 40960, Note_off_c, 1, 50, 0
2, 40960, Note_off_c, 1, 64, 0
2, 40960, Note_off_c, 1, 68, 0
2, 40960, Note_off_c, 1, 71, 0
2, 41000, Note_on_c, 1, 38, 127
2, 41000, Note_on_c, 1, 50, 127
2, 41000, Note_on_c, 1, 64, 127
2, 41000, Note_on_c, 1, 68, 127
2, 41000, Note_on_c, 1, 71, 127
2, 41320, Note_off_c, 1, 38, 0
2, 41320, Note_off_c, 1, 50, 0
2, 41320, Note_off_c, 1, 64, 0
2, 41320, Note_off_c, 1, 68, 0
2, 41320, Note_off_c, 1, 71, 0
2, 41360, Note_on_c, 1, 38, 127
2, 41360, Note_on_c, 1, 50, 127
2, 41360, Note_on_c, 1, 64, 127
2, 41360, Note_on_c, 1, 68, 127
2, 41360, Note_on_c, 1, 71, 127
2, 41680, Note_off_c, 1, 38, 0
2, 41680, Note_off_c, 1, 50, 0
2, 41680, Note_off_c, 1, 64, 0
2, 41680, Note_off_c, 1, 68, 0
2, 41680, Note_off_c, 1, 71, 0
2, 41720, Note_on_c, 1, 38, 127
2, 41720, Note_on_c, 1, 50, 127
2, 41720, Note_on_c, 1, 64, 127
2, 41720, Note_on_c, 1, 68, 127
2, 41720, Note_on_c, 1, 71, 127
2, 42040, Note_off_c, 1, 38, 0
2, 42040, Note_off_c, 1, 50, 0
2, 42040, Note_off_c, 1, 64, 0
2, 42040, Note_off_c, 1, 68, 0
2, 42040, Note_off_c, 1, 71, 0
2, 42080, Note_on_c, 1, 38, 127
2, 42080, Note_on_c, 1, 50, 127
2, 42080, Note_on_c, 1, 64, 127
2, 42080, Note_on_c, 1, 68, 127
2, 42080, Note_on_c, 1, 71, 127
2, 42400, Note_off_c, 1, 38, 0
2, 42400, Note_off_c, 1, 50, 0
2, 42400, Note_off_c, 1, 64, 0
2, 42400, Note_off_c, 1, 68, 0
2, 42400, Note_off_c, 1, 71, 0
2, 42440, Note_on_c, 1, 38, 127
2, 42440, Note_on_c, 1, 50, 127
2, 42440, Note_on_c, 1, 64, 127
2, 42440, Note_on_c, 1, 68, 127
2, 42440, Note_on_c, 1, 71, 127
2, 42760, Note_off_c, 1, 38, 0
2, 42760, Note_off_c, 1, 50, 0
2, 42760, Note_off_c, 1, 64, 0
2, 42760, Note_off_c, 1, 68, 0
2, 42760, Note_off_c, 1, 71, 0
2, 42800, Note_on_c, 1, 38, 127
2, 42800, Note_on_c, 1, 50, 127
2, 42800, Note_on_c, 1, 64, 127
2, 42800, Note_on_c, 1, 68, 127
2, 42800, Note_on_c, 1, 71, 127
2, 42920, Note_off_c, 1, 38, 0
2, 42920, Note_off_c, 1, 50, 0
2, 42920, Note_off_c, 1, 64, 0
2, 42920, Note_off_c, 1, 68, 0
2, 42920, Note_off_c, 1, 71, 0
2, 42960, Note_on_c, 1, 38, 127
2, 42960, Note_on_c, 1, 50, 127
2, 42960, Note_on_c, 1, 64, 127
2, 42960, Note_on_c, 1, 68, 127
2, 42960, Note_on_c, 1, 71, 127
2, 43120, Note_off_c, 1, 38, 0
2, 43120, Note_off_c, 1, 50, 0
2, 43120, Note_off_c, 1, 64, 0
2, 43120, Note_off_c, 1, 68, 0
2, 43120, Note_off_c, 1, 71, 0
2, 43160, Note_on_c, 1, 38, 127
2, 43160, Note_on_c, 1, 50, 127
2, 43160, Note_on_c, 1, 64, 127
2, 43160, Note_on_c, 1, 68, 127
2, 43160, Note_on_c, 1, 71, 127
2, 43480, Note_off_c, 1, 38, 0
2, 43480, Note_off_c, 1, 50, 0
2, 43480, Note_off_c, 1, 64, 0
2, 43480, Note_off_c, 1, 68, 0
2, 43480, Note_off_c, 1, 71, 0
2, 43520, Note_on_c, 1, 38, 127
2, 43520, Note_on_c, 1, 50, 127
2, 43520, Note_on_c, 1, 64, 127
2, 43520, Note_on_c, 1, 68, 127
2, 43520, Note_on_c, 1, 71, 127
2, 43840, Note_off_c, 1, 38, 0
2, 43840, Note_off_c, 1, 50, 0
2, 43840, Note_off_c, 1, 64, 0
2, 43840, Note_off_c, 1, 68, 0
2, 43840, Note_off_c, 1, 71, 0
2, 43880, Note_on_c, 1, 38, 127
2, 43880, Note_on_c, 1, 50, 127
2, 43880, Note_on_c, 1, 64, 127
2, 43880, Note_on_c, 1, 68, 127
2, 43880, Note_on_c, 1, 71, 127
2, 44200, Note_off_c, 1, 38, 0
2, 44200, Note_off_c, 1, 50, 0
2, 44200, Note_off_c, 1, 64, 0
2, 44200, Note_off_c, 1, 68, 0
2, 44200, Note_off_c, 1, 71, 0
2, 44240, Note_on_c, 1, 38, 127
2, 44240, Note_on_c, 1, 50, 127
2, 44240, Note_on_c, 1, 64, 127
2, 44240, Note_on_c, 1, 68, 127
2, 44240, Note_on_c, 1, 71, 127
2, 44560, Note_off_c, 1, 38, 0
2, 44560, Note_off_c, 1, 50, 0
2, 44560, Note_off_c, 1, 64, 0
2, 44560, Note_off_c, 1, 68, 0
2, 44560, Note_off_c, 1, 71, 0
2, 44600, Note_on_c, 1, 38, 127
2, 44600, Note_on_c, 1, 50, 127
2, 44600, Note_on_c, 1, 64, 127
2, 44600, Note_on_c, 1, 68, 127
2, 44600, Note_on_c, 1, 71, 127
2, 44920, Note_off_c, 1, 38, 0
2, 44920, Note_off_c, 1, 50, 0
2, 44920, Note_off_c, 1, 64, 0
2, 44920, Note_off_c, 1, 68, 0
2, 44920, Note_off_c, 1, 71, 0
2, 44960, Note_on_c, 1, 38, 127
2, 44960, Note_on_c, 1, 50, 127
2, 44960, Note_on_c, 1, 64, 127
2, 44960, Note_on_c, 1, 68, 127
2, 44960, Note_on_c, 1, 71, 127
2, 45080, Note_off_c, 1, 38, 0
2, 45080, Note_off_c, 1, 50, 0
2, 45080, Note_off_c, 1, 64, 0
2, 45080, Note_off_c, 1, 68, 0
2, 45080, Note_off_c, 1, 71, 0
2, 45120, Note_on_c, 1, 38, 127
2, 45120, Note_on_c, 1, 50, 127
2, 45120, Note_on_c, 1, 64, 127
2, 45120, Note_on_c, 1, 68, 127
2, 45120, Note_on_c, 1, 71, 127
2, 45320, Note_off_c, 1, 38, 0
2, 45320, Note_off_c, 1, 50, 0
2, 45320, Note_off_c, 1, 64, 0
2, 45320, Note_off_c, 1, 68, 0
2, 45320, Note_off_c, 1, 71, 0
2, 45360, Note_on_c, 1, 33, 127
2, 45360, Note_on_c, 1, 45, 127
2, 45360, Note_on_c, 1, 57, 127
2, 45360, Note_on_c, 1, 60, 127
2, 45360, Note_on_c, 1, 66, 127
2, 45680, Note_off_c, 1, 33, 0
2, 45680, Note_off_c, 1, 45, 0
2, 45680, Note_off_c, 1, 57, 0
2, 45680, Note_off_c, 1, 60, 0
2, 45680, Note_off_c, 1, 66, 0
2, 45720, Note_on_c, 1, 44, 127
2, 45720, Note_on_c, 1, 51, 127
2, 45720, Note_on_c, 1, 60, 127
2, 45720, Note_on_c, 1, 63, 127
2, 45720, Note_on_c, 1, 72, 127
2, 46040, Note_off_c, 1, 44, 0
2, 46040, Note_off_c, 1, 51, 0
2, 46040, Note_off_c, 1, 60, 0
2, 46040, Note_off_c, 1, 63, 0
2, 46040, Note_off_c, 1, 72, 0
2, 46080, Note_on_c, 1, 44, 127
2, 46080, Note_on_c, 1, 51, 127
2, 46080, Note_on_c, 1, 60, 127
2, 46080, Note_on_c, 1, 63, 127
2, 46080, Note_on_c, 1, 72, 127
2, 46400, Note_off_c, 1, 44, 0
2, 46400, Note_off_c, 1, 51, 0
2, 46400, Note_off_c, 1, 60, 0
2, 46400, Note_off_c, 1, 63, 0
2, 46400, Note_off_c, 1, 72, 0
2, 46440, Note_on_c, 1, 57, 127
2, 46440, Note_on_c, 1, 68, 127
2, 46440, Note_on_c, 1, 72, 127
2, 46440, Note_on_c, 1, 80, 127
2, 46760, Note_off_c, 1, 57, 0
2, 46760, Note_off_c, 1, 68, 0
2, 46760, Note_off_c, 1, 80, 0
2, 46800, Note_on_c, 1, 42, 127
2, 46800, Note_on_c, 1, 54, 127
2, 46800, Note_off_c, 1, 72, 0
2, 46800, Note_on_c, 1, 76, 127
2, 46800, Note_on_c, 1, 78, 127
2, 46840, Note_on_c, 1, 32, 127
2, 46840, Note_off_c, 1, 42, 0
2, 46840, Note_on_c, 1, 44, 127
2, 46840, Note_on_c, 1, 49, 127
2, 46840, Note_on_c, 1, 52, 127
2, 46840, Note_off_c, 1, 54, 0
2, 46840, Note_off_c, 1, 76, 0
2, 46840, Note_off_c, 1, 78, 0
2, 46880, Note_on_c, 1, 30, 127
2, 46880, Note_off_c, 1, 32, 0
2, 46880, Note_on_c, 1, 42, 127
2, 46880, Note_off_c, 1, 44, 0
2, 46880, Note_off_c, 1, 49, 0
2, 46880, Note_off_c, 1, 52, 0
2, 46880, Note_on_c, 1, 58, 127
2, 46880, Note_on_c, 1, 64, 127
2, 46880, Note_on_c, 1, 66, 127
2, 46920, Note_off_c, 1, 30, 0
2, 46920, Note_off_c, 1, 42, 0
2, 46920, Note_on_c, 1, 52, 127
2, 46920, Note_off_c, 1, 58, 0
2, 46920, Note_off_c, 1, 64, 0
2, 46920, Note_off_c, 1, 66, 0
2, 46920, Note_on_c, 1, 82, 127
2, 46920, Note_on_c, 1, 94, 127
2, 46960, Note_on_c, 1, 32, 127
2, 46960, Note_on_c, 1, 44, 127
2, 46960, Note_on_c, 1, 49, 127
2, 46960, Note_off_c, 1, 82, 0
2, 46960, Note_off_c, 1, 94, 0
2, 47040, Note_off_c, 1, 44, 0
2, 47040, Note_off_c, 1, 49, 0
2, 47040, Note_off_c, 1, 52, 0
2, 47120, Note_off_c, 1, 32, 0
2, 47200, Note_on_c, 1, 32, 127
2, 47200, Note_on_c, 1, 72, 127
2, 47480, Note_off_c, 1, 32, 0
2, 47480, Note_off_c, 1, 72, 0
2, 47520, Note_on_c, 1, 48, 127
2, 47520, Note_on_c, 1, 60, 127
2, 47520, Note_on_c, 1, 78, 127
2, 47520, Note_on_c, 1, 81, 127
2, 47520, Note_on_c, 1, 87, 127
2, 47520, Note_on_c, 1, 90, 127
2, 47840, Note_off_c, 1, 48, 0
2, 47840, Note_off_c, 1, 60, 0
2, 47840, Note_off_c, 1, 78, 0
2, 47840, Note_off_c, 1, 81, 0
2, 47840, Note_off_c, 1, 87, 0
2, 47840, Note_off_c, 1, 90, 0
2, 47880, Note_on_c, 1, 72, 127
2, 47880, Note_on_c, 1, 75, 127
2, 47880, Note_on_c, 1, 81, 127
2, 47880, Note_on_c, 1, 87, 127
2, 47880, Note_on_c, 1, 89, 127
2, 48200, Note_off_c, 1, 72, 0
2, 48200, Note_off_c, 1, 75, 0
2, 48200, Note_off_c, 1, 81, 0
2, 48200, Note_off_c, 1, 87, 0
2, 48200, Note_off_c, 1, 89, 0
2, 48240, Note_on_c, 1, 42, 127
2, 48240, Note_on_c, 1, 79, 127
2, 48240, Note_on_c, 1, 80, 127
2, 48280, Note_on_c, 1, 36, 127
2, 48280, Note_off_c, 1, 42, 0
2, 48280, Note_on_c, 1, 48, 127
2, 48280, Note_on_c, 1, 59, 127
2, 48280, Note_on_c, 1, 71, 127
2, 48280, Note_off_c, 1, 79, 0
2, 48280, Note_off_c, 1, 80, 0
2, 48560, Note_off_c, 1, 36, 0
2, 48560, Note_off_c, 1, 48, 0
2, 48560, Note_off_c, 1, 59, 0
2, 48560, Note_off_c, 1, 71, 0
2, 48600, Note_on_c, 1, 40, 127
2, 48600, Note_on_c, 1, 47, 127
2, 48600, Note_on_c, 1, 83, 127
2, 48880, Note_off_c, 1, 40, 0
2, 48880, Note_off_c, 1, 47, 0
2, 48920, Note_off_c, 1, 83, 0
2, 48960, Note_on_c, 1, 34, 127
2, 48960, Note_on_c, 1, 38, 127
2, 48960, Note_on_c, 1, 46, 127
2, 48960, Note_on_c, 1, 67, 127
2, 48960, Note_on_c, 1, 79, 127
2, 49280, Note_off_c, 1, 34, 0
2, 49280, Note_off_c, 1, 38, 0
2, 49280, Note_off_c, 1, 46, 0
2, 49280, Note_off_c, 1, 67, 0
2, 49280, Note_off_c, 1, 79, 0
2, 49360, Note_on_c, 1, 39, 127
2, 49360, Note_on_c, 1, 47, 127
2, 49360, Note_on_c, 1, 51, 127
2, 49360, Note_on_c, 1, 83, 127
2, 49360, Note_on_c, 1, 90, 127
2, 49400, Note_off_c, 1, 39, 0
2, 49400, Note_off_c, 1, 47, 0
2, 49400, Note_on_c, 1, 54, 127
2, 49400, Note_on_c, 1, 59, 127
2, 49400, Note_on_c, 1, 77, 127
2, 49400, Note_off_c, 1, 83, 0
2, 49400, Note_off_c, 1, 90, 0
2, 49480, Note_on_c, 1, 39, 127
2, 49480, Note_on_c, 1, 47, 127
2, 49480, Note_off_c, 1, 54, 0
2, 49480, Note_off_c, 1, 59, 0
2, 49480, Note_off_c, 1, 77, 0
2, 49520, Note_off_c, 1, 39, 0
2, 49520, Note_off_c, 1, 47, 0
2, 49520, Note_on_c, 1, 54, 127
2, 49520, Note_on_c, 1, 59, 127
2, 49520, Note_on_c, 1, 77, 127
2, 49640, Note_off_c, 1, 51, 0
2, 49640, Note_off_c, 1, 54, 0
2, 49640, Note_off_c, 1, 59, 0
2, 49640, Note_off_c, 1, 77, 0
2, 49680, Note_on_c, 1, 78, 127
2, 49840, Note_off_c, 1, 78, 0
2, 49880, Note_on_c, 1, 76, 127
2, 50000, Note_off_c, 1, 76, 0
2, 50040, Note_on_c, 1, 40, 127
2, 50400, Note_on_c, 1, 47, 127
2, 50720, Note_off_c, 1, 40, 0
2, 50760, Note_on_c, 1, 54, 127
2, 50760, Note_on_c, 1, 59, 127
2, 50760, Note_on_c, 1, 62, 127
2, 50760, Note_on_c, 1, 66, 127
2, 50760, Note_on_c, 1, 71, 127
2, 50760, Note_on_c, 1, 74, 127
2, 51080, Note_off_c, 1, 47, 0
2, 51080, Note_off_c, 1, 54, 0
2, 51080, Note_off_c, 1, 59, 0
2, 51080, Note_off_c, 1, 62, 0
2, 51080, Note_off_c, 1, 66, 0
2, 51080, Note_off_c, 1, 71, 0
2, 51120, Note_on_c, 1, 54, 127
2, 51120, Note_on_c, 1, 59, 127
2, 51120, Note_on_c, 1, 62, 127
2, 51120, Note_on_c, 1, 66, 127
2, 51120, Note_on_c, 1, 71, 127
2, 51320, Note_off_c, 1, 54, 0
2, 51320, Note_off_c, 1, 59, 0
2, 51320, Note_off_c, 1, 62, 0
2, 51320, Note_off_c, 1, 66, 0
2, 51320, Note_off_c, 1, 71, 0
2, 51320, Note_off_c, 1, 74, 0
2, 51360, Note_on_c, 1, 54, 127
2, 51360, Note_on_c, 1, 59, 127
2, 51360, Note_on_c, 1, 62, 127
2, 51360, Note_on_c, 1, 66, 127
2, 51360, Note_on_c, 1, 71, 127
2, 51360, Note_on_c, 1, 74, 127
2, 51480, Note_off_c, 1, 54, 0
2, 51480, Note_off_c, 1, 59, 0
2, 51480, Note_off_c, 1, 62, 0
2, 51480, Note_off_c, 1, 66, 0
2, 51480, Note_off_c, 1, 71, 0
2, 51480, Note_off_c, 1, 74, 0
2, 51520, Note_on_c, 1, 52, 127
2, 51520, Note_on_c, 1, 55, 127
2, 51520, Note_on_c, 1, 59, 127
2, 52200, Note_off_c, 1, 52, 0
2, 52200, Note_off_c, 1, 55, 0
2, 52200, Note_off_c, 1, 59, 0
2, 52240, Note_on_c, 1, 47, 127
2, 52600, Note_on_c, 1, 50, 127
2, 53280, Note_off_c, 1, 47, 0
2, 53280, Note_off_c, 1, 50, 0
2, 53320, Note_on_c, 1, 68, 127
2, 53640, Note_off_c, 1, 68, 0
2, 53720, Note_on_c, 1, 71, 127
2, 54040, Note_off_c, 1, 71, 0
2, 54080, Note_on_c, 1, 71, 127
2, 54400, Note_off_c, 1, 71, 0
2, 54440, Note_on_c, 1, 73, 127
2, 54760, Note_off_c, 1, 73, 0
2, 54800, Note_on_c, 1, 76, 127
2, 55120, Note_off_c, 1, 76, 0
2, 55160, Note_on_c, 1, 57, 127
2, 55480, Note_off_c, 1, 57, 0
2, 55520, Note_on_c, 1, 59, 127
2, 55760, Note_off_c, 1, 59, 0
2, 55800, Note_on_c, 1, 59, 127
2, 56200, Note_off_c, 1, 59, 0
2, 56240, Note_on_c, 1, 57, 127
2, 56560, Note_off_c, 1, 57, 0
2, 56600, Note_on_c, 1, 56, 127
2, 56960, Note_on_c, 1, 54, 127
2, 56960, Note_off_c, 1, 56, 0
2, 57280, Note_off_c, 1, 54, 0
2, 57320, Note_on_c, 1, 49, 127
2, 57320, Note_on_c, 1, 56, 127
2, 57320, Note_on_c, 1, 59, 127
2, 57840, Note_off_c, 1, 49, 0
2, 57840, Note_off_c, 1, 56, 0
2, 57840, Note_off_c, 1, 59, 0
2, 57880, Note_on_c, 1, 49, 127
2, 57880, Note_on_c, 1, 56, 127
2, 57880, Note_on_c, 1, 59, 127
2, 58040, Note_off_c, 1, 56, 0
2, 58040, Note_off_c, 1, 59, 0
2, 58080, Note_on_c, 1, 54, 127
2, 58080, Note_on_c, 1, 57, 127
2, 58400, Note_off_c, 1, 54, 0
2, 58400, Note_off_c, 1, 57, 0
2, 58440, Note_on_c, 1, 53, 127
2, 58440, Note_on_c, 1, 59, 127
2, 58440, Note_on_c, 1, 68, 127
2, 58760, Note_off_c, 1, 53, 0
2, 58760, Note_off_c, 1, 59, 0
2, 58760, Note_off_c, 1, 68, 0
2, 58800, Note_on_c, 1, 57, 127
2, 58800, Note_on_c, 1, 64, 127
2, 59120, Note_off_c, 1, 57, 0
2, 59120, Note_off_c, 1, 64, 0
2, 59160, Note_on_c, 1, 54, 127
2, 59160, Note_on_c, 1, 57, 127
2, 59480, Note_off_c, 1, 54, 0
2, 59480, Note_off_c, 1, 57, 0
2, 59520, Note_on_c, 1, 57, 127
2, 59520, Note_on_c, 1, 61, 127
2, 59840, Note_off_c, 1, 49, 0
2, 59840, Note_off_c, 1, 57, 0
2, 59840, Note_off_c, 1, 61, 0
2, 59920, Note_on_c, 1, 49, 127
2, 59920, Note_on_c, 1, 56, 127
2, 59920, Note_on_c, 1, 59, 127
2, 59920, Note_on_c, 1, 61, 127
2, 60200, Note_off_c, 1, 56, 0
2, 60200, Note_off_c, 1, 59, 0
2, 60200, Note_off_c, 1, 61, 0
2, 60240, Note_off_c, 1, 49, 0
2, 60280, Note_on_c, 1, 49, 127
2, 60280, Note_on_c, 1, 54, 127
2, 60280, Note_on_c, 1, 58, 127
2, 60960, Note_off_c, 1, 49, 0
2, 60960, Note_off_c, 1, 58, 0
2, 61000, Note_on_c, 1, 58, 127
2, 61280, Note_off_c, 1, 54, 0
2, 61280, Note_off_c, 1, 58, 0
2, 61360, Note_on_c, 1, 54, 127
2, 61680, Note_off_c, 1, 54, 0
2, 61720, Note_on_c, 1, 42, 127
2, 62000, Note_off_c, 1, 42, 0
2, 62040, Note_on_c, 1, 42, 127
2, 62080, Note_off_c, 1, 42, 0
2, 62120, Note_on_c, 1, 49, 127
2, 62440, Note_off_c, 1, 49, 0
2, 62480, Note_on_c, 1, 42, 127
2, 62800, Note_off_c, 1, 42, 0
2, 62840, Note_on_c, 1, 47, 127
2, 63160, Note_off_c, 1, 47, 0
2, 63200, Note_on_c, 1, 54, 127
2, 64240, Note_off_c, 1, 54, 0
2, 64320, Note_on_c, 1, 54, 127
2, 65040, Note_off_c, 1, 54, 0
2, 65760, Note_on_c, 1, 37, 127
2, 65760, Note_on_c, 1, 49, 127
2, 66440, Note_off_c, 1, 37, 0
2, 66440, Note_off_c, 1, 49, 0
2, 67200, Note_on_c, 1, 52, 127
2, 67560, Note_off_c, 1, 52, 0
2, 67640, Note_on_c, 1, 52, 127
2, 68320, Note_off_c, 1, 52, 0
2, 68360, Note_on_c, 1, 45, 127
2, 68680, Note_off_c, 1, 45, 0
2, 68720, Note_on_c, 1, 40, 127
2, 69040, Note_off_c, 1, 40, 0
2, 69080, Note_on_c, 1, 52, 127
2, 69400, Note_off_c, 1, 52, 0
2, 69440, Note_on_c, 1, 34, 127
2, 69800, Note_off_c, 1, 34, 0
2, 69880, Note_on_c, 1, 33, 127
2, 70200, Note_off_c, 1, 33, 0
2, 70240, Note_on_c, 1, 36, 127
2, 70560, Note_off_c, 1, 36, 0
2, 70600, Note_on_c, 1, 41, 127
2, 70920, Note_off_c, 1, 41, 0
2, 70960, Note_on_c, 1, 41, 127
2, 71280, Note_off_c, 1, 41, 0
2, 71320, Note_on_c, 1, 40, 127
2, 71640, Note_off_c, 1, 40, 0
2, 71680, Note_on_c, 1, 41, 127
2, 71960, Note_off_c, 1, 41, 0
2, 72000, Note_on_c, 1, 41, 127
2, 72040, Note_off_c, 1, 41, 0
2, 72080, Note_on_c, 1, 41, 127
2, 73960, Note_off_c, 1, 41, 0
2, 74000, Note_on_c, 1, 41, 127
2, 74240, Note_off_c, 1, 41, 0
2, 74320, Note_on_c, 1, 41, 127
2, 74640, Note_off_c, 1, 41, 0
2, 74720, Note_on_c, 1, 55, 127
2, 74720, Note_on_c, 1, 58, 127
2, 74720, Note_on_c, 1, 62, 127
2, 74720, Note_on_c, 1, 67, 127
2, 74720, Note_on_c, 1, 70, 127
2, 75440, Note_off_c, 1, 55, 0
2, 75440, Note_off_c, 1, 58, 0
2, 75440, Note_off_c, 1, 62, 0
2, 75440, Note_off_c, 1, 67, 0
2, 75440, Note_off_c, 1, 70, 0
2, 78120, Note_on_c, 1, 34, 127
2, 78120, Note_on_c, 1, 46, 127
2, 78120, Note_on_c, 1, 58, 127
2, 79440, Note_off_c, 1, 34, 0
2, 79440, Note_off_c, 1, 46, 0
2, 79440, Note_off_c, 1, 58, 0
2, 88160, Note_on_c, 1, 45, 127
2, 88160, Note_on_c, 1, 69, 127
2, 88240, Note_off_c, 1, 45, 0
2, 88280, Note_on_c, 1, 49, 127
2, 88360, Note_off_c, 1, 49, 0
2, 88400, Note_on_c, 1, 57, 127
2, 88520, Note_off_c, 1, 57, 0
2, 88560, Note_on_c, 1, 61, 127
2, 88640, Note_off_c, 1, 61, 0
2, 88680, Note_on_c, 1, 64, 127
2, 88760, Note_off_c, 1, 64, 0
2, 88800, Note_on_c, 1, 59, 127
2, 88800, Note_on_c, 1, 68, 127
2, 88800, Note_off_c, 1, 69, 0
2, 88920, Note_off_c, 1, 59, 0
2, 88920, Note_off_c, 1, 68, 0
2, 88960, Note_on_c, 1, 64, 127
2, 88960, Note_on_c, 1, 69, 127
2, 89040, Note_off_c, 1, 64, 0
2, 89080, Note_on_c, 1, 57, 127
2, 89160, Note_off_c, 1, 57, 0
2, 89200, Note_on_c, 1, 54, 127
2, 89320, Note_off_c, 1, 54, 0
2, 89360, Note_on_c, 1, 57, 127
2, 89440, Note_off_c, 1, 57, 0
2, 89480, Note_on_c, 1, 54, 127
2, 89560, Note_off_c, 1, 54, 0
2, 89560, Note_off_c, 1, 69, 0
2, 89600, Note_on_c, 1, 62, 127
2, 89600, Note_on_c, 1, 66, 127
2, 89680, Note_off_c, 1, 62, 0
2, 89720, Note_on_c, 1, 50, 127
2, 89720, Note_off_c, 1, 66, 0
2, 89760, Note_on_c, 1, 66, 127
2, 89840, Note_off_c, 1, 50, 0
2, 89880, Note_on_c, 1, 57, 127
2, 89960, Note_off_c, 1, 57, 0
2, 90000, Note_on_c, 1, 62, 127
2, 90080, Note_off_c, 1, 62, 0
2, 90120, Note_on_c, 1, 57, 127
2, 90240, Note_off_c, 1, 57, 0
2, 90240, Note_off_c, 1, 66, 0
2, 90280, Note_on_c, 1, 66, 127
2, 90320, Note_on_c, 1, 60, 127
2, 90400, Note_off_c, 1, 60, 0
2, 90400, Note_off_c, 1, 66, 0
2, 90440, Note_on_c, 1, 57, 127
2, 90560, Note_on_c, 1, 66, 127
2, 90680, Note_off_c, 1, 57, 0
2, 90680, Note_off_c, 1, 66, 0
2, 90680, Note_on_c, 1, 69, 127
2, 90720, Note_on_c, 1, 62, 127
2, 90800, Note_off_c, 1, 69, 0
2, 90840, Note_on_c, 1, 50, 127
2, 90840, Note_off_c, 1, 62, 0
2, 90840, Note_on_c, 1, 78, 127
2, 90920, Note_off_c, 1, 50, 0
2, 90960, Note_on_c, 1, 57, 127
2, 91080, Note_off_c, 1, 57, 0
2, 91120, Note_on_c, 1, 50, 127
2, 91200, Note_off_c, 1, 50, 0
2, 91200, Note_off_c, 1, 78, 0
2, 91240, Note_on_c, 1, 40, 127
2, 91320, Note_off_c, 1, 40, 0
2, 91360, Note_on_c, 1, 56, 127
2, 91480, Note_off_c, 1, 56, 0
2, 91520, Note_on_c, 1, 52, 127
2, 91600, Note_off_c, 1, 52, 0
2, 91640, Note_on_c, 1, 47, 127
2, 91720, Note_off_c, 1, 47, 0
2, 91760, Note_on_c, 1, 36, 127
2, 91880, Note_off_c, 1, 36, 0
2, 91920, Note_on_c, 1, 36, 127
2, 91920, Note_on_c, 1, 60, 127
2, 92000, Note_off_c, 1, 60, 0
2, 92040, Note_on_c, 1, 55, 127
2, 92120, Note_off_c, 1, 55, 0
2, 92160, Note_on_c, 1, 64, 127
2, 92280, Note_off_c, 1, 36, 0
2, 92280, Note_off_c, 1, 64, 0
2, 92320, Note_on_c, 1, 36, 127
2, 92320, Note_on_c, 1, 64, 127
2, 92440, Note_off_c, 1, 64, 0
2, 92480, Note_on_c, 1, 64, 127
2, 92560, Note_off_c, 1, 64, 0
2, 92600, Note_on_c, 1, 64, 127
2, 92720, Note_off_c, 1, 36, 0
2, 92720, Note_off_c, 1, 64, 0
2, 92760, Note_on_c, 1, 40, 127
2, 92840, Note_off_c, 1, 40, 0
2, 92880, Note_on_c, 1, 46, 127
2, 92960, Note_off_c, 1, 46, 0
2, 93000, Note_on_c, 1, 40, 127
2, 93120, Note_off_c, 1, 40, 0
2, 93160, Note_on_c, 1, 47, 127
2, 93240, Note_off_c, 1, 47, 0
2, 93280, Note_on_c, 1, 55, 127
2, 93360, Note_off_c, 1, 55, 0
2, 93400, Note_on_c, 1, 59, 127
2, 93520, Note_off_c, 1, 59, 0
2, 93560, Note_on_c, 1, 55, 127
2, 93640, Note_off_c, 1, 55, 0
2, 93680, Note_on_c, 1, 64, 127
2, 93760, Note_off_c, 1, 64, 0
2, 93800, Note_on_c, 1, 55, 127
2, 93920, Note_off_c, 1, 55, 0
2, 93960, Note_on_c, 1, 52, 127
2, 94040, Note_off_c, 1, 52, 0
2, 94080, Note_on_c, 1, 55, 127
2, 94160, Note_off_c, 1, 55, 0
2, 94200, Note_on_c, 1, 48, 127
2, 94320, Note_off_c, 1, 48, 0
2, 94400, Note_on_c, 1, 47, 127
2, 94480, Note_off_c, 1, 47, 0
2, 94520, Note_on_c, 1, 55, 127
2, 94600, Note_off_c, 1, 55, 0
2, 94640, Note_on_c, 1, 52, 127
2, 94720, Note_off_c, 1, 52, 0
2, 94760, Note_on_c, 1, 55, 127
2, 94880, Note_off_c, 1, 55, 0
2, 94920, Note_on_c, 1, 55, 127
2, 95000, Note_off_c, 1, 55, 0
2, 95040, Note_on_c, 1, 58, 127
2, 95120, Note_off_c, 1, 58, 0
2, 95160, Note_on_c, 1, 52, 127
2, 95160, Note_on_c, 1, 76, 127
2, 95280, Note_off_c, 1, 52, 0
2, 95280, Note_off_c, 1, 76, 0
2, 95320, Note_on_c, 1, 48, 127
2, 95400, Note_off_c, 1, 48, 0
2, 95440, Note_on_c, 1, 55, 127
2, 95520, Note_off_c, 1, 55, 0
2, 95560, Note_on_c, 1, 52, 127
2, 95560, Note_on_c, 1, 79, 127
2, 95680, Note_off_c, 1, 52, 0
2, 95680, Note_off_c, 1, 79, 0
2, 95720, Note_on_c, 1, 55, 127
2, 95800, Note_off_c, 1, 55, 0
2, 95840, Note_on_c, 1, 48, 127
2, 95840, Note_on_c, 1, 76, 127
2, 95920, Note_off_c, 1, 48, 0
2, 95960, Note_on_c, 1, 55, 127
2, 96080, Note_off_c, 1, 55, 0
2, 96120, Note_off_c, 1, 76, 0
2, 96160, Note_on_c, 1, 60, 127
2, 96160, Note_on_c, 1, 76, 127
2, 96240, Note_off_c, 1, 60, 0
2, 96240, Note_off_c, 1, 76, 0
2, 96280, Note_on_c, 1, 76, 127
2, 96360, Note_off_c, 1, 76, 0
2, 96400, Note_on_c, 1, 55, 127
2, 96400, Note_on_c, 1, 86, 127
2, 96480, Note_off_c, 1, 55, 0
2, 96520, Note_on_c, 1, 84, 127
2, 96520, Note_off_c, 1, 86, 0
2, 96640, Note_off_c, 1, 84, 0
2, 96680, Note_on_c, 1, 55, 127
2, 96680, Note_on_c, 1, 74, 127
2, 96760, Note_off_c, 1, 55, 0
2, 96880, Note_off_c, 1, 74, 0
2, 96920, Note_on_c, 1, 48, 127
2, 96920, Note_on_c, 1, 76, 127
2, 97040, Note_off_c, 1, 48, 0
2, 97040, Note_off_c, 1, 76, 0
2, 97080, Note_on_c, 1, 72, 127
2, 97160, Note_off_c, 1, 72, 0
2, 97200, Note_on_c, 1, 56, 127
2, 97200, Note_on_c, 1, 71, 127
2, 97280, Note_off_c, 1, 71, 0
2, 97320, Note_off_c, 1, 56, 0
2, 97320, Note_on_c, 1, 69, 127
2, 97560, Note_off_c, 1, 69, 0
2, 97600, Note_on_c, 1, 84, 127
2, 97680, Note_off_c, 1, 84, 0
2, 97720, Note_on_c, 1, 57, 127
2, 97720, Note_on_c, 1, 64, 127
2, 97800, Note_off_c, 1, 64, 0
2, 97840, Note_on_c, 1, 72, 127
2, 97960, Note_off_c, 1, 57, 0
2, 98000, Note_off_c, 1, 72, 0
2, 98040, Note_on_c, 1, 57, 127
2, 98040, Note_on_c, 1, 72, 127
2, 98120, Note_off_c, 1, 72, 0
2, 98160, Note_on_c, 1, 71, 127
2, 98240, Note_off_c, 1, 57, 0
2, 98240, Note_off_c, 1, 71, 0
2, 98280, Note_on_c, 1, 72, 127
2, 98520, Note_off_c, 1, 72, 0
2, 98560, Note_on_c, 1, 36, 127
2, 98560, Note_on_c, 1, 79, 127
2, 98640, Note_off_c, 1, 79, 0
2, 98680, Note_on_c, 1, 79, 127
2, 98760, Note_off_c, 1, 79, 0
2, 98800, Note_off_c, 1, 36, 0
2, 98800, Note_on_c, 1, 48, 127
2, 98800, Note_on_c, 1, 79, 127
2, 98920, Note_off_c, 1, 48, 0
2, 98960, Note_on_c, 1, 48, 127
2, 99040, Note_off_c, 1, 79, 0
2, 99080, Note_on_c, 1, 79, 127
2, 99160, Note_off_c, 1, 79, 0
2, 99200, Note_on_c, 1, 79, 127
2, 99440, Note_off_c, 1, 48, 0
2, 99480, Note_on_c, 1, 58, 127
2, 99560, Note_off_c, 1, 58, 0
2, 99600, Note_on_c, 1, 53, 127
2, 99680, Note_off_c, 1, 53, 0
2, 99680, Note_off_c, 1, 79, 0
2, 99720, Note_on_c, 1, 49, 127
2, 99720, Note_on_c, 1, 76, 127
2, 99880, Note_off_c, 1, 49, 0
2, 99880, Note_off_c, 1, 76, 0
2, 99920, Note_on_c, 1, 49, 127
2, 99920, Note_on_c, 1, 76, 127
2, 100000, Note_off_c, 1, 49, 0
2, 100040, Note_on_c, 1, 57, 127
2, 100120, Note_off_c, 1, 57, 0
2, 100120, Note_off_c, 1, 76, 0
2, 100160, Note_on_c, 1, 50, 127
2, 100160, Note_on_c, 1, 77, 127
2, 100280, Note_off_c, 1, 50, 0
2, 100320, Note_on_c, 1, 48, 127
2, 100400, Note_off_c, 1, 48, 0
2, 100400, Note_off_c, 1, 77, 0
2, 100440, Note_on_c, 1, 57, 127
2, 100440, Note_on_c, 1, 77, 127
2, 100520, Note_off_c, 1, 57, 0
2, 100560, Note_on_c, 1, 53, 127
2, 100680, Note_off_c, 1, 53, 0
2, 100680, Note_off_c, 1, 77, 0
2, 100720, Note_on_c, 1, 41, 127
2, 100800, Note_off_c, 1, 41, 0
2, 100960, Note_on_c, 1, 70, 127
2, 101080, Note_off_c, 1, 70, 0
2, 101120, Note_on_c, 1, 74, 127
2, 101200, Note_off_c, 1, 74, 0
2, 101240, Note_on_c, 1, 76, 127
2, 101320, Note_off_c, 1, 76, 0
2, 101360, Note_on_c, 1, 74, 127
2, 101480, Note_off_c, 1, 74, 0
2, 101520, Note_on_c, 1, 51, 127
2, 101520, Note_on_c, 1, 79, 127
2, 101600, Note_off_c, 1, 51, 0
2, 101640, Note_on_c, 1, 58, 127
2, 101720, Note_off_c, 1, 58, 0
2, 101760, Note_on_c, 1, 63, 127
2, 101840, Note_off_c, 1, 63, 0
2, 101840, Note_off_c, 1, 79, 0
2, 101880, Note_on_c, 1, 63, 127
2, 101880, Note_on_c, 1, 79, 127
2, 101920, Note_off_c, 1, 63, 0
2, 101920, Note_off_c, 1, 79, 0
2, 101960, Note_on_c, 1, 62, 127
2, 101960, Note_on_c, 1, 77, 127
2, 102040, Note_off_c, 1, 62, 0
2, 102080, Note_on_c, 1, 56, 127
2, 102160, Note_off_c, 1, 56, 0
2, 102200, Note_on_c, 1, 60, 127
2, 102280, Note_off_c, 1, 60, 0
2, 102280, Note_off_c, 1, 77, 0
2, 102320, Note_on_c, 1, 58, 127
2, 102320, Note_on_c, 1, 75, 127
2, 102440, Note_off_c, 1, 58, 0
2, 102480, Note_on_c, 1, 63, 127
2, 102560, Note_off_c, 1, 63, 0
2, 102600, Note_on_c, 1, 65, 127
2, 102600, Note_on_c, 1, 74, 127
2, 102600, Note_off_c, 1, 75, 0
2, 102720, Note_off_c, 1, 65, 0
2, 102760, Note_on_c, 1, 70, 127
2, 102840, Note_off_c, 1, 70, 0
2, 102880, Note_on_c, 1, 65, 127
2, 102960, Note_off_c, 1, 65, 0
2, 102960, Note_off_c, 1, 74, 0
2, 103000, Note_on_c, 1, 67, 127
2, 103160, Note_on_c, 1, 46, 127
2, 103240, Note_off_c, 1, 46, 0
2, 103280, Note_on_c, 1, 51, 127
2, 103360, Note_off_c, 1, 51, 0
2, 103400, Note_on_c, 1, 58, 127
2, 103480, Note_off_c, 1, 58, 0
2, 103920, Note_off_c, 1, 67, 0
2, 104000, Note_on_c, 1, 70, 127
2, 104080, Note_off_c, 1, 70, 0
2, 104120, Note_on_c, 1, 69, 127
2, 104200, Note_off_c, 1, 69, 0
2, 104240, Note_on_c, 1, 72, 127
2, 104360, Note_off_c, 1, 72, 0
2, 104400, Note_on_c, 1, 74, 127
2, 104480, Note_off_c, 1, 74, 0
2, 104520, Note_on_c, 1, 75, 127
2, 104600, Note_off_c, 1, 75, 0
2, 104640, Note_on_c, 1, 74, 127
2, 104760, Note_off_c, 1, 74, 0
2, 104800, Note_on_c, 1, 72, 127
2, 104880, Note_off_c, 1, 72, 0
2, 104920, Note_on_c, 1, 74, 127
2, 105000, Note_off_c, 1, 74, 0
2, 105040, Note_on_c, 1, 75, 127
2, 105160, Note_on_c, 1, 74, 127
2, 105160, Note_off_c, 1, 75, 0
2, 105280, Note_off_c, 1, 74, 0
2, 105320, Note_on_c, 1, 58, 127
2, 105320, Note_on_c, 1, 75, 127
2, 105400, Note_off_c, 1, 58, 0
2, 105440, Note_on_c, 1, 67, 127
2, 105520, Note_off_c, 1, 67, 0
2, 105560, Note_on_c, 1, 60, 127
2, 105680, Note_off_c, 1, 60, 0
2, 105720, Note_on_c, 1, 63, 127
2, 105800, Note_off_c, 1, 63, 0
2, 105800, Note_off_c, 1, 75, 0
2, 105840, Note_on_c, 1, 55, 127
2, 105840, Note_on_c, 1, 72, 127
2, 105920, Note_off_c, 1, 55, 0
2, 105960, Note_on_c, 1, 63, 127
2, 106040, Note_off_c, 1, 63, 0
2, 106040, Note_off_c, 1, 72, 0
2, 106080, Note_on_c, 1, 63, 127
2, 106080, Note_on_c, 1, 72, 127
2, 106120, Note_off_c, 1, 63, 0
2, 106120, Note_off_c, 1, 72, 0
2, 106160, Note_on_c, 1, 58, 127
2, 106240, Note_off_c, 1, 58, 0
2, 106280, Note_on_c, 1, 67, 127
2, 106360, Note_off_c, 1, 67, 0
2, 106400, Note_on_c, 1, 63, 127
2, 106520, Note_off_c, 1, 63, 0
2, 106560, Note_on_c, 1, 67, 127
2, 106640, Note_off_c, 1, 67, 0
2, 106680, Note_on_c, 1, 63, 127
2, 106680, Note_on_c, 1, 75, 127
2, 107040, Note_off_c, 1, 63, 0
2, 107040, Note_off_c, 1, 75, 0
2, 107080, Note_on_c, 1, 57, 127
2, 107080, Note_on_c, 1, 64, 127
2, 107080, Note_on_c, 1, 73, 127
2, 107160, Note_off_c, 1, 57, 0
2, 107160, Note_off_c, 1, 64, 0
2, 107160, Note_off_c, 1, 73, 0
2, 107200, Note_on_c, 1, 60, 127
2, 107200, Note_on_c, 1, 66, 127
2, 107200, Note_on_c, 1, 75, 127
2, 107280, Note_off_c, 1, 60, 0
2, 107280, Note_off_c, 1, 66, 0
2, 107280, Note_off_c, 1, 75, 0
2, 107320, Note_on_c, 1, 60, 127
2, 107320, Note_on_c, 1, 66, 127
2, 107320, Note_on_c, 1, 75, 127
2, 107400, Note_off_c, 1, 60, 0
2, 107400, Note_off_c, 1, 66, 0
2, 107400, Note_off_c, 1, 75, 0
2, 107440, Note_on_c, 1, 63, 127
2, 107440, Note_on_c, 1, 66, 127
2, 107440, Note_on_c, 1, 77, 127
2, 107560, Note_off_c, 1, 63, 0
2, 107560, Note_off_c, 1, 66, 0
2, 107560, Note_off_c, 1, 77, 0
2, 107600, Note_on_c, 1, 63, 127
2, 107600, Note_on_c, 1, 66, 127
2, 107600, Note_on_c, 1, 77, 127
2, 107680, Note_off_c, 1, 63, 0
2, 107680, Note_off_c, 1, 66, 0
2, 107680, Note_off_c, 1, 77, 0
2, 107720, Note_on_c, 1, 63, 127
2, 107720, Note_on_c, 1, 66, 127
2, 107720, Note_on_c, 1, 77, 127
2, 107800, Note_off_c, 1, 63, 0
2, 107800, Note_off_c, 1, 77, 0
2, 107840, Note_on_c, 1, 56, 127
2, 107840, Note_on_c, 1, 71, 127
2, 107960, Note_off_c, 1, 56, 0
2, 107960, Note_off_c, 1, 66, 0
2, 107960, Note_off_c, 1, 71, 0
2, 108040, Note_on_c, 1, 60, 127
2, 108040, Note_on_c, 1, 63, 127
2, 108040, Note_on_c, 1, 78, 127
2, 108120, Note_off_c, 1, 60, 0
2, 108120, Note_off_c, 1, 63, 0
2, 108120, Note_off_c, 1, 78, 0
2, 108160, Note_on_c, 1, 60, 127
2, 108160, Note_on_c, 1, 67, 127
2, 108160, Note_on_c, 1, 84, 127
2, 108240, Note_off_c, 1, 60, 0
2, 108240, Note_off_c, 1, 67, 0
2, 108240, Note_off_c, 1, 84, 0
2, 108280, Note_on_c, 1, 63, 127
2, 108280, Note_on_c, 1, 66, 127
2, 108280, Note_on_c, 1, 80, 127
2, 108360, Note_off_c, 1, 80, 0
2, 108400, Note_off_c, 1, 63, 0
2, 108400, Note_off_c, 1, 66, 0
2, 108440, Note_on_c, 1, 63, 127
2, 108440, Note_on_c, 1, 66, 127
2, 108440, Note_on_c, 1, 80, 127
2, 108480, Note_on_c, 1, 78, 127
2, 108480, Note_off_c, 1, 80, 0
2, 108520, Note_off_c, 1, 66, 0
2, 108520, Note_off_c, 1, 78, 0
2, 108560, Note_on_c, 1, 51, 127
2, 108560, Note_on_c, 1, 60, 127
2, 108560, Note_off_c, 1, 63, 0
2, 108560, Note_on_c, 1, 84, 127
2, 108640, Note_off_c, 1, 51, 0
2, 108640, Note_off_c, 1, 60, 0
2, 108640, Note_on_c, 1, 63, 127
2, 108640, Note_off_c, 1, 84, 0
2, 108680, Note_on_c, 1, 72, 127
2, 108680, Note_on_c, 1, 80, 127
2, 108760, Note_off_c, 1, 72, 0
2, 108760, Note_off_c, 1, 80, 0
2, 108800, Note_on_c, 1, 78, 127
2, 108920, Note_off_c, 1, 78, 0
2, 108960, Note_on_c, 1, 72, 127
2, 108960, Note_on_c, 1, 87, 127
2, 109040, Note_off_c, 1, 72, 0
2, 109040, Note_off_c, 1, 87, 0
2, 109080, Note_on_c, 1, 73, 127
2, 109080, Note_on_c, 1, 79, 127
2, 109080, Note_on_c, 1, 82, 127
2, 109160, Note_off_c, 1, 79, 0
2, 109160, Note_off_c, 1, 82, 0
2, 109200, Note_on_c, 1, 44, 127
2, 109200, Note_off_c, 1, 63, 0
2, 109200, Note_on_c, 1, 68, 127
2, 109200, Note_on_c, 1, 77, 127
2, 109200, Note_on_c, 1, 80, 127
2, 109440, Note_off_c, 1, 44, 0
2, 109480, Note_on_c, 1, 44, 127
2, 109560, Note_off_c, 1, 44, 0
2, 109600, Note_on_c, 1, 44, 127
2, 109680, Note_off_c, 1, 44, 0
2, 109720, Note_on_c, 1, 56, 127
2, 109720, Note_on_c, 1, 61, 127
2, 109840, Note_off_c, 1, 56, 0
2, 109840, Note_off_c, 1, 61, 0
2, 109880, Note_on_c, 1, 65, 127
2, 110080, Note_off_c, 1, 73, 0
2, 110120, Note_off_c, 1, 65, 0
2, 110120, Note_off_c, 1, 68, 0
2, 110120, Note_off_c, 1, 77, 0
2, 110120, Note_off_c, 1, 80, 0
2, 112120, Note_on_c, 1, 80, 127
2, 112160, Note_off_c, 1, 80, 0
2, 112200, Note_on_c, 1, 59, 127
2, 112200, Note_on_c, 1, 77, 127
2, 112280, Note_off_c, 1, 59, 0
2, 112280, Note_off_c, 1, 77, 0
2, 112320, Note_on_c, 1, 62, 127
2, 112320, Note_on_c, 1, 77, 127
2, 112400, Note_off_c, 1, 77, 0
2, 112440, Note_on_c, 1, 77, 127
2, 112680, Note_off_c, 1, 62, 0
2, 112680, Note_off_c, 1, 77, 0
2, 112720, Note_on_c, 1, 58, 127
2, 112720, Note_on_c, 1, 78, 127
2, 113040, Note_off_c, 1, 58, 0
2, 113040, Note_off_c, 1, 78, 0
2, 113080, Note_on_c, 1, 63, 127
2, 113080, Note_on_c, 1, 77, 127
2, 113120, Note_off_c, 1, 77, 0
2, 113160, Note_on_c, 1, 75, 127
2, 113400, Note_off_c, 1, 63, 0
2, 113400, Note_off_c, 1, 75, 0
2, 113440, Note_on_c, 1, 46, 127
2, 113440, Note_on_c, 1, 57, 127
2, 113520, Note_off_c, 1, 57, 0
2, 113560, Note_on_c, 1, 57, 127
2, 113640, Note_off_c, 1, 57, 0
2, 113680, Note_on_c, 1, 62, 127
2, 113760, Note_off_c, 1, 46, 0
2, 113760, Note_off_c, 1, 62, 0
2, 113800, Note_on_c, 1, 48, 127
2, 113800, Note_on_c, 1, 65, 127
2, 113920, Note_off_c, 1, 48, 0
2, 113920, Note_off_c, 1, 65, 0
2, 113960, Note_on_c, 1, 53, 127
2, 113960, Note_on_c, 1, 65, 127
2, 114160, Note_off_c, 1, 65, 0
2, 114200, Note_on_c, 1, 70, 127
2, 114280, Note_off_c, 1, 70, 0
2, 114320, Note_off_c, 1, 53, 0
2, 114400, Note_on_c, 1, 65, 127
2, 114560, Note_on_c, 1, 58, 127
2, 114640, Note_off_c, 1, 65, 0
2, 114720, Note_on_c, 1, 65, 127
2, 114800, Note_off_c, 1, 58, 0
2, 114840, Note_on_c, 1, 63, 127
2, 114960, Note_off_c, 1, 65, 0
2, 115080, Note_off_c, 1, 63, 0
2, 115120, Note_on_c, 1, 58, 127
2, 115120, Note_on_c, 1, 65, 127
2, 115200, Note_off_c, 1, 58, 0
2, 115240, Note_on_c, 1, 58, 127
2, 115360, Note_off_c, 1, 65, 0
2, 115400, Note_on_c, 1, 65, 127
2, 115640, Note_off_c, 1, 65, 0
2, 115680, Note_on_c, 1, 66, 127
2, 115760, Note_off_c, 1, 58, 0
2, 115760, Note_on_c, 1, 65, 127
2, 115760, Note_off_c, 1, 66, 0
2, 115800, Note_on_c, 1, 56, 127
2, 115880, Note_off_c, 1, 56, 0
2, 115880, Note_off_c, 1, 65, 0
2, 115920, Note_on_c, 1, 62, 127
2, 116080, Note_on_c, 1, 65, 127
2, 116160, Note_off_c, 1, 65, 0
2, 116200, Note_on_c, 1, 68, 127
2, 116280, Note_off_c, 1, 62, 0
2, 116280, Note_off_c, 1, 68, 0
2, 116320, Note_on_c, 1, 59, 127
2, 116320, Note_on_c, 1, 70, 127
2, 116440, Note_off_c, 1, 59, 0
2, 116440, Note_on_c, 1, 63, 127
2, 116440, Note_off_c, 1, 70, 0
2, 116480, Note_on_c, 1, 68, 127
2, 116560, Note_off_c, 1, 68, 0
2, 116600, Note_off_c, 1, 63, 0
2, 116640, Note_on_c, 1, 63, 127
2, 116640, Note_on_c, 1, 67, 127
2, 116720, Note_off_c, 1, 67, 0
2, 116800, Note_on_c, 1, 66, 127
2, 116880, Note_on_c, 1, 62, 127
2, 116880, Note_off_c, 1, 63, 0
2, 116880, Note_off_c, 1, 66, 0
2, 116920, Note_on_c, 1, 68, 127
2, 117000, Note_off_c, 1, 68, 0
2, 117040, Note_on_c, 1, 65, 127
2, 117160, Note_off_c, 1, 62, 0
2, 117160, Note_off_c, 1, 65, 0
2, 117200, Note_on_c, 1, 58, 127
2, 117280, Note_off_c, 1, 58, 0
2, 117320, Note_on_c, 1, 62, 127
2, 117440, Note_on_c, 1, 65, 127
2, 117560, Note_off_c, 1, 62, 0
2, 117560, Note_off_c, 1, 65, 0
2, 117600, Note_on_c, 1, 57, 127
2, 117680, Note_off_c, 1, 57, 0
2, 117720, Note_on_c, 1, 56, 127
2, 117720, Note_on_c, 1, 62, 127
2, 117800, Note_off_c, 1, 62, 0
2, 117840, Note_on_c, 1, 62, 127
2, 117960, Note_off_c, 1, 56, 0
2, 118000, Note_on_c, 1, 65, 127
2, 118080, Note_off_c, 1, 62, 0
2, 118120, Note_on_c, 1, 58, 127
2, 118200, Note_off_c, 1, 58, 0
2, 118240, Note_on_c, 1, 62, 127
2, 118320, Note_off_c, 1, 62, 0
2, 118520, Note_on_c, 1, 58, 127
2, 118640, Note_off_c, 1, 58, 0
2, 118640, Note_off_c, 1, 65, 0
2, 118680, Note_on_c, 1, 65, 127
2, 118720, Note_on_c, 1, 53, 127
2, 118800, Note_off_c, 1, 53, 0
2, 118800, Note_off_c, 1, 65, 0
2, 118840, Note_on_c, 1, 53, 127
2, 118840, Note_on_c, 1, 69, 127
2, 119080, Note_off_c, 1, 53, 0
2, 119080, Note_off_c, 1, 69, 0
2, 119120, Note_on_c, 1, 62, 127
2, 119120, Note_on_c, 1, 74, 127
2, 119360, Note_on_c, 1, 41, 127
2, 119360, Note_on_c, 1, 58, 127
2, 119360, Note_off_c, 1, 62, 0
2, 119360, Note_off_c, 1, 74, 0
2, 120000, Note_off_c, 1, 41, 0
2, 120000, Note_off_c, 1, 58, 0
2, 120040, End_track
3, 0, Start_track
3, 0, Title_t, "MIDI"
3, 1536, End_track
0, 0, End_of_file
