0, 0, Header, 1, 3, 192
1, 0, Start_track
1, 0, Time_signature, 4, 2, 24, 8
1, 0, Tempo, 500000
1, 120040, End_track
2, 0, Start_track
2, 0, Text_t, "random instrument: random person i dunno whatev"
2, 0, Title_t, "Track 1"
2, 0, Note_on_c, 1, 40, 127
2, 0, Note_on_c, 1, 48, 127
2, 0, Note_on_c, 1, 56, 127
2, 0, Note_on_c, 1, 60, 127
2, 120, Note_off_c, 1, 40, 0
2, 120, Note_off_c, 1, 48, 0
2, 120, Note_off_c, 1, 56, 0
2, 120, Note_off_c, 1, 60, 0
2, 160, Note_on_c, 1, 40, 127
2, 160, Note_on_c, 1, 48, 127
2, 160, Note_on_c, 1, 56, 127
2, 160, Note_on_c, 1, 60, 127
2, 200, Note_on_c, 1, 35, 127
2, 200, Note_on_c, 1, 39, 127
2, 200, Note_off_c, 1, 40, 0
2, 200, Note_on_c, 1, 47, 127
2, 200, Note_off_c, 1, 48, 0
2, 200, Note_on_c, 1, 50, 127
2, 200, Note_off_c, 1, 56, 0
2, 200, Note_off_c, 1, 60, 0
2, 240, Note_off_c, 1, 35, 0
2, 240, Note_off_c, 1, 39, 0
2, 240, Note_off_c, 1, 47, 0
2, 240, Note_off_c, 1, 50, 0
2, 240, Note_on_c, 1, 74, 127
2, 240, Note_on_c, 1, 77, 127
2, 240, Note_on_c, 1, 80, 127
2, 240, Note_on_c, 1, 83, 127
2, 520, Note_off_c, 1, 74, 0
2, 520, Note_off_c, 1, 77, 0
2, 520, Note_off_c, 1, 80, 0
2, 520, Note_off_c, 1, 83, 0
2, 5240, Note_on_c, 1, 43, 127
2, 5240, Note_on_c, 1, 50, 127
2, 5240, Note_on_c, 1, 60, 127
2, 5240, Note_on_c, 1, 62, 127
2, 5240, Note_on_c, 1, 69, 127
2, 5480, Note_off_c, 1, 43, 0
2, 5480, Note_off_c, 1, 50, 0
2, 5480, Note_off_c, 1, 60, 0
2, 5480, Note_off_c, 1, 62, 0
2, 5480, Note_off_c, 1, 69, 0
2, 14680, Note_on_c, 1, 56, 127
2, 14680, Note_on_c, 1, 71, 127
2, 14680, Note_on_c, 1, 83, 127
2, 15240, Note_off_c, 1, 56, 0
2, 15240, Note_off_c, 1, 71, 0
2, 15240, Note_off_c, 1, 83, 0
2, 15280, Note_on_c, 1, 57, 127
2, 15280, Note_on_c, 1, 66, 127
2, 15280, Note_on_c, 1, 69, 127
2, 15280, Note_on_c, 1, 78, 127
2, 15960, Note_off_c, 1, 66, 0
2, 16000, Note_off_c, 1, 57, 0
2, 16000, Note_off_c, 1, 69, 0
2, 16000, Note_off_c, 1, 78, 0
2, 16040, Note_on_c, 1, 61, 127
2, 16040, Note_on_c, 1, 70, 127
2, 16040, Note_on_c, 1, 76, 127
2, 16760, Note_off_c, 1, 70, 0
2, 16800, Note_on_c, 1, 67, 127
2, 16960, Note_off_c, 1, 61, 0
2, 16960, Note_off_c, 1, 67, 0
2, 16960, Note_off_c, 1, 76, 0
2, 17000, Note_on_c, 1, 61, 127
2, 17000, Note_on_c, 1, 67, 127
2, 17000, Note_on_c, 1, 76, 127
2, 17040, Note_off_c, 1, 67, 0
2, 17360, Note_on_c, 1, 70, 127
2, 17600, Note_off_c, 1, 70, 0
2, 18120, Note_on_c, 1, 68, 127
2, 18600, Note_off_c, 1, 61, 0
2, 18600, Note_off_c, 1, 68, 0
2, 18600, Note_off_c, 1, 76, 0
2, 18640, Note_on_c, 1, 61, 127
2, 19160, Note_off_c, 1, 61, 0
2, 19200, Note_on_c, 1, 61, 127
2, 19640, Note_on_c, 1, 63, 127
2, 19680, Note_off_c, 1, 63, 0
2, 20640, Note_on_c, 1, 63, 127
2, 21520, Note_off_c, 1, 61, 0
2, 21520, Note_off_c, 1, 63, 0
2, 21600, Note_on_c, 1, 55, 127
2, 21600, Note_on_c, 1, 61, 127
2, 21600, Note_on_c, 1, 63, 127
2, 23600, Note_off_c, 1, 55, 0
2, 23600, Note_off_c, 1, 61, 0
2, 23600, Note_off_c, 1, 63, 0
2, 30640, Note_on_c, 1, 43, 127
2, 31480, Note_off_c, 1, 43, 0
2, 32600, Note_on_c, 1, 57, 127
2, 32600, Note_on_c, 1, 73, 127
2, 32960, Note_off_c, 1, 57, 0
2, 32960, Note_off_c, 1, 73, 0
2, 33040, Note_on_c, 1, 60, 127
2, 33040, Note_on_c, 1, 69, 127
2, 34560, Note_off_c, 1, 60, 0
2, 34560, Note_off_c, 1, 69, 0
2, 35360, Note_on_c, 1, 62, 127
2, 35360, Note_on_c, 1, 66, 127
2, 35880, Note_off_c, 1, 62, 0
2, 35880, Note_off_c, 1, 66, 0
2, 35920, Note_on_c, 1, 61, 127
2, 35920, Note_on_c, 1, 64, 127
2, 36440, Note_off_c, 1, 61, 0
2, 36440, Note_off_c, 1, 64, 0
2, 36480, Note_on_c, 1, 55, 127
2, 36480, Note_on_c, 1, 59, 127
2, 37040, Note_off_c, 1, 55, 0
2, 37040, Note_off_c, 1, 59, 0
2, 37080, Note_on_c, 1, 73, 127
2, 37080, Note_on_c, 1, 76, 127
2, 37640, Note_off_c, 1, 73, 0
2, 37640, Note_off_c, 1, 76, 0
2, 37720, Note_on_c, 1, 76, 127
2, 37720, Note_on_c, 1, 80, 127
2, 38240, Note_off_c, 1, 76, 0
2, 38240, Note_off_c, 1, 80, 0
2, 38280, Note_on_c, 1, 74, 127
2, 38280, Note_on_c, 1, 78, 127
2, 38800, Note_off_c, 1, 74, 0
2, 38800, Note_off_c, 1, 78, 0
2, 38840, Note_on_c, 1, 71, 127
2, 38840, Note_on_c, 1, 78, 127
2, 39360, Note_off_c, 1, 71, 0
2, 39360, Note_off_c, 1, 78, 0
2, 39400, Note_on_c, 1, 68, 127
2, 39400, Note_on_c, 1, 76, 127
2, 39920, Note_off_c, 1, 68, 0
2, 39920, Note_off_c, 1, 76, 0
2, 40000, Note_on_c, 1, 69, 127
2, 40000, Note_on_c, 1, 78, 127
2, 40520, Note_off_c, 1, 69, 0
2, 40520, Note_off_c, 1, 78, 0
2, 40560, Note_on_c, 1, 68, 127
2, 40560, Note_on_c, 1, 76, 127
2, 41080, Note_off_c, 1, 68, 0
2, 41080, Note_off_c, 1, 76, 0
2, 41160, Note_on_c, 1, 71, 127
2, 41160, Note_on_c, 1, 73, 127
2, 41160, Note_on_c, 1, 78, 127
2, 41160, Note_on_c, 1, 82, 127
2, 41160, Note_on_c, 1, 85, 127
2, 41280, Note_off_c, 1, 82, 0
2, 41680, Note_off_c, 1, 71, 0
2, 41680, Note_off_c, 1, 73, 0
2, 41680, Note_off_c, 1, 78, 0
2, 41680, Note_off_c, 1, 85, 0
2, 41760, Note_on_c, 1, 52, 127
2, 41760, Note_on_c, 1, 59, 127
2, 41760, Note_on_c, 1, 68, 127
2, 41760, Note_on_c, 1, 76, 127
2, 42120, Note_off_c, 1, 76, 0
2, 42160, Note_off_c, 1, 52, 0
2, 42160, Note_off_c, 1, 59, 0
2, 42160, Note_off_c, 1, 68, 0
2, 42200, Note_on_c, 1, 52, 127
2, 42200, Note_on_c, 1, 59, 127
2, 42200, Note_on_c, 1, 68, 127
2, 42360, Note_off_c, 1, 52, 0
2, 42360, Note_off_c, 1, 59, 0
2, 42360, Note_off_c, 1, 68, 0
2, 42400, Note_on_c, 1, 56, 127
2, 42400, Note_on_c, 1, 64, 127
2, 42960, Note_off_c, 1, 56, 0
2, 42960, Note_off_c, 1, 64, 0
2, 43000, Note_on_c, 1, 59, 127
2, 43000, Note_on_c, 1, 68, 127
2, 43240, Note_off_c, 1, 59, 0
2, 43240, Note_off_c, 1, 68, 0
2, 43600, Note_on_c, 1, 56, 127
2, 43600, Note_on_c, 1, 59, 127
2, 44160, Note_off_c, 1, 56, 0
2, 44160, Note_off_c, 1, 59, 0
2, 44240, Note_on_c, 1, 49, 127
2, 44240, Note_on_c, 1, 52, 127
2, 44240, Note_on_c, 1, 57, 127
2, 44640, Note_off_c, 1, 49, 0
2, 44640, Note_off_c, 1, 52, 0
2, 44640, Note_off_c, 1, 57, 0
2, 66160, Note_on_c, 1, 55, 127
2, 66160, Note_on_c, 1, 59, 127
2, 66160, Note_on_c, 1, 67, 127
2, 66160, Note_on_c, 1, 76, 127
2, 66680, Note_off_c, 1, 55, 0
2, 66680, Note_off_c, 1, 59, 0
2, 66680, Note_off_c, 1, 67, 0
2, 66680, Note_off_c, 1, 76, 0
2, 66720, Note_on_c, 1, 38, 127
2, 66720, Note_on_c, 1, 50, 127
2, 66720, Note_on_c, 1, 62, 127
2, 66720, Note_on_c, 1, 66, 127
2, 66720, Note_on_c, 1, 69, 127
2, 67880, Note_off_c, 1, 38, 0
2, 67880, Note_off_c, 1, 50, 0
2, 67880, Note_off_c, 1, 62, 0
2, 67880, Note_off_c, 1, 66, 0
2, 67880, Note_off_c, 1, 69, 0
2, 67920, Note_on_c, 1, 43, 127
2, 67920, Note_on_c, 1, 55, 127
2, 67920, Note_on_c, 1, 62, 127
2, 67920, Note_on_c, 1, 67, 127
2, 67920, Note_on_c, 1, 71, 127
2, 68720, Note_off_c, 1, 43, 0
2, 68720, Note_off_c, 1, 55, 0
2, 68720, Note_off_c, 1, 62, 0
2, 68720, Note_off_c, 1, 67, 0
2, 68720, Note_off_c, 1, 71, 0
2, 68760, Note_on_c, 1, 43, 127
2, 68760, Note_on_c, 1, 55, 127
2, 68760, Note_on_c, 1, 62, 127
2, 68760, Note_on_c, 1, 67, 127
2, 68760, Note_on_c, 1, 71, 127
2, 69120, Note_off_c, 1, 43, 0
2, 69120, Note_off_c, 1, 55, 0
2, 69120, Note_off_c, 1, 62, 0
2, 69120, Note_off_c, 1, 67, 0
2, 69120, Note_off_c, 1, 71, 0
2, 69160, Note_on_c, 1, 43, 127
2, 69160, Note_on_c, 1, 55, 127
2, 69160, Note_on_c, 1, 62, 127
2, 69160, Note_on_c, 1, 67, 127
2, 69160, Note_on_c, 1, 71, 127
2, 69720, Note_off_c, 1, 43, 0
2, 69720, Note_off_c, 1, 55, 0
2, 69720, Note_off_c, 1, 62, 0
2, 69720, Note_off_c, 1, 67, 0
2, 69720, Note_off_c, 1, 71, 0
2, 69760, Note_on_c, 1, 36, 127
2, 69760, Note_on_c, 1, 48, 127
2, 69760, Note_on_c, 1, 60, 127
2, 69760, Note_on_c, 1, 64, 127
2, 69760, Note_on_c, 1, 69, 127
2, 70320, Note_off_c, 1, 36, 0
2, 70320, Note_off_c, 1, 48, 0
2, 70320, Note_off_c, 1, 60, 0
2, 70320, Note_off_c, 1, 64, 0
2, 70320, Note_off_c, 1, 69, 0
2, 70360, Note_on_c, 1, 31, 127
2, 70360, Note_on_c, 1, 43, 127
2, 70360, Note_on_c, 1, 59, 127
2, 70360, Note_on_c, 1, 62, 127
2, 70360, Note_on_c, 1, 67, 127
2, 70920, Note_off_c, 1, 31, 0
2, 70920, Note_off_c, 1, 43, 0
2, 70920, Note_off_c, 1, 59, 0
2, 70920, Note_off_c, 1, 62, 0
2, 70920, Note_off_c, 1, 67, 0
2, 71000, Note_on_c, 1, 43, 127
2, 71000, Note_on_c, 1, 55, 127
2, 71000, Note_on_c, 1, 62, 127
2, 71000, Note_on_c, 1, 67, 127
2, 71000, Note_on_c, 1, 70, 127
2, 71000, Note_on_c, 1, 74, 127
2, 71560, Note_off_c, 1, 43, 0
2, 71560, Note_off_c, 1, 55, 0
2, 71560, Note_off_c, 1, 62, 0
2, 71560, Note_off_c, 1, 67, 0
2, 71560, Note_off_c, 1, 70, 0
2, 71560, Note_off_c, 1, 74, 0
2, 71600, Note_on_c, 1, 55, 127
2, 71600, Note_on_c, 1, 62, 127
2, 71600, Note_on_c, 1, 79, 127
2, 71600, Note_on_c, 1, 83, 127
2, 72160, Note_off_c, 1, 55, 0
2, 72160, Note_off_c, 1, 62, 0
2, 72160, Note_off_c, 1, 79, 0
2, 72160, Note_off_c, 1, 83, 0
2, 72200, Note_on_c, 1, 55, 127
2, 72200, Note_on_c, 1, 62, 127
2, 72200, Note_on_c, 1, 79, 127
2, 72200, Note_on_c, 1, 83, 127
2, 72760, Note_off_c, 1, 62, 0
2, 72760, Note_off_c, 1, 79, 0
2, 72760, Note_off_c, 1, 83, 0
2, 72800, Note_on_c, 1, 62, 127
2, 72800, Note_on_c, 1, 78, 127
2, 72800, Note_on_c, 1, 81, 127
2, 73000, Note_off_c, 1, 55, 0
2, 73000, Note_off_c, 1, 62, 0
2, 73000, Note_off_c, 1, 78, 0
2, 73000, Note_off_c, 1, 81, 0
2, 73040, Note_on_c, 1, 55, 127
2, 73040, Note_on_c, 1, 62, 127
2, 73040, Note_on_c, 1, 78, 127
2, 73040, Note_on_c, 1, 81, 127
2, 73080, Note_off_c, 1, 62, 0
2, 73080, Note_off_c, 1, 78, 0
2, 73080, Note_off_c, 1, 81, 0
2, 73120, Note_on_c, 1, 62, 127
2, 73120, Note_on_c, 1, 78, 127
2, 73120, Note_on_c, 1, 81, 127
2, 73360, Note_off_c, 1, 62, 0
2, 73360, Note_off_c, 1, 78, 0
2, 73360, Note_off_c, 1, 81, 0
2, 73400, Note_off_c, 1, 55, 0
2, 73440, Note_on_c, 1, 55, 127
2, 73440, Note_on_c, 1, 62, 127
2, 73440, Note_on_c, 1, 79, 127
2, 73440, Note_on_c, 1, 83, 127
2, 74000, Note_off_c, 1, 62, 0
2, 74000, Note_off_c, 1, 79, 0
2, 74000, Note_off_c, 1, 83, 0
2, 74040, Note_on_c, 1, 62, 127
2, 74040, Note_on_c, 1, 78, 127
2, 74040, Note_on_c, 1, 81, 127
2, 74200, Note_off_c, 1, 62, 0
2, 74200, Note_off_c, 1, 78, 0
2, 74200, Note_off_c, 1, 81, 0
2, 74240, Note_on_c, 1, 62, 127
2, 74240, Note_on_c, 1, 78, 127
2, 74240, Note_on_c, 1, 81, 127
2, 74280, Note_off_c, 1, 62, 0
2, 74280, Note_off_c, 1, 78, 0
2, 74280, Note_off_c, 1, 81, 0
2, 74320, Note_on_c, 1, 62, 127
2, 74320, Note_on_c, 1, 78, 127
2, 74320, Note_on_c, 1, 81, 127
2, 74520, Note_off_c, 1, 62, 0
2, 74520, Note_off_c, 1, 78, 0
2, 74520, Note_off_c, 1, 81, 0
2, 74600, Note_off_c, 1, 55, 0
2, 74640, Note_on_c, 1, 55, 127
2, 74640, Note_on_c, 1, 62, 127
2, 74640, Note_on_c, 1, 79, 127
2, 74640, Note_on_c, 1, 83, 127
2, 75040, Note_off_c, 1, 55, 0
2, 75040, Note_off_c, 1, 62, 0
2, 75040, Note_off_c, 1, 79, 0
2, 75040, Note_off_c, 1, 83, 0
2, 75080, Note_on_c, 1, 55, 127
2, 75080, Note_on_c, 1, 62, 127
2, 75080, Note_on_c, 1, 79, 127
2, 75080, Note_on_c, 1, 83, 127
2, 75240, Note_off_c, 1, 62, 0
2, 75240, Note_off_c, 1, 79, 0
2, 75240, Note_off_c, 1, 83, 0
2, 75280, Note_on_c, 1, 62, 127
2, 75280, Note_on_c, 1, 78, 127
2, 75280, Note_on_c, 1, 81, 127
2, 75440, Note_off_c, 1, 62, 0
2, 75440, Note_off_c, 1, 78, 0
2, 75440, Note_off_c, 1, 81, 0
2, 75480, Note_on_c, 1, 62, 127
2, 75480, Note_on_c, 1, 79, 127
2, 75480, Note_on_c, 1, 83, 127
2, 75640, Note_off_c, 1, 62, 0
2, 75640, Note_off_c, 1, 79, 0
2, 75640, Note_off_c, 1, 83, 0
2, 75680, Note_on_c, 1, 76, 127
2, 75680, Note_on_c, 1, 79, 127
2, 75840, Note_off_c, 1, 55, 0
2, 75840, Note_off_c, 1, 76, 0
2, 75840, Note_off_c, 1, 79, 0
2, 75880, Note_on_c, 1, 45, 127
2, 75880, Note_on_c, 1, 73, 127
2, 75880, Note_on_c, 1, 79, 127
2, 76040, Note_off_c, 1, 79, 0
2, 76040, Note_on_c, 1, 81, 127
2, 76080, Note_on_c, 1, 79, 127
2, 76080, Note_off_c, 1, 81, 0
2, 76120, Note_off_c, 1, 73, 0
2, 76280, Note_on_c, 1, 73, 127
2, 76440, Note_off_c, 1, 45, 0
2, 76440, Note_off_c, 1, 73, 0
2, 76480, Note_on_c, 1, 62, 127
2, 76480, Note_on_c, 1, 74, 127
2, 76840, Note_off_c, 1, 74, 0
2, 76880, Note_on_c, 1, 74, 127
2, 77040, Note_off_c, 1, 62, 0
2, 77040, Note_off_c, 1, 74, 0
2, 77040, Note_off_c, 1, 79, 0
2, 77120, Note_on_c, 1, 59, 127
2, 77120, Note_on_c, 1, 74, 127
2, 77120, Note_on_c, 1, 79, 127
2, 77640, Note_off_c, 1, 74, 0
2, 77640, Note_off_c, 1, 79, 0
2, 77720, Note_on_c, 1, 67, 127
2, 77720, Note_on_c, 1, 81, 127
2, 78240, Note_off_c, 1, 67, 0
2, 78240, Note_off_c, 1, 81, 0
2, 78280, Note_off_c, 1, 59, 0
2, 78320, Note_on_c, 1, 62, 127
2, 78320, Note_on_c, 1, 64, 127
2, 78320, Note_on_c, 1, 68, 127
2, 78320, Note_on_c, 1, 80, 127
2, 78520, Note_off_c, 1, 80, 0
2, 78520, Note_on_c, 1, 81, 127
2, 78560, Note_on_c, 1, 80, 127
2, 78560, Note_off_c, 1, 81, 0
2, 78680, Note_off_c, 1, 80, 0
2, 78720, Note_on_c, 1, 86, 127
2, 78880, Note_off_c, 1, 64, 0
2, 78880, Note_off_c, 1, 68, 0
2, 78880, Note_off_c, 1, 86, 0
2, 78920, Note_on_c, 1, 64, 127
2, 78920, Note_on_c, 1, 68, 127
2, 78920, Note_on_c, 1, 80, 127
2, 79080, Note_off_c, 1, 80, 0
2, 79120, Note_off_c, 1, 62, 0
2, 79120, Note_off_c, 1, 64, 0
2, 79120, Note_off_c, 1, 68, 0
2, 79160, Note_on_c, 1, 62, 127
2, 79160, Note_on_c, 1, 64, 127
2, 79160, Note_on_c, 1, 68, 127
2, 79160, Note_on_c, 1, 88, 127
2, 79320, Note_off_c, 1, 88, 0
2, 79360, Note_on_c, 1, 88, 127
2, 79520, Note_off_c, 1, 62, 0
2, 79520, Note_off_c, 1, 64, 0
2, 79520, Note_off_c, 1, 68, 0
2, 79520, Note_off_c, 1, 88, 0
2, 79560, Note_on_c, 1, 69, 127
2, 79560, Note_on_c, 1, 77, 127
2, 79560, Note_on_c, 1, 81, 127
2, 80120, Note_off_c, 1, 69, 0
2, 80160, Note_on_c, 1, 65, 127
2, 80680, Note_off_c, 1, 65, 0
2, 80680, Note_off_c, 1, 77, 0
2, 80680, Note_off_c, 1, 81, 0
2, 80760, Note_on_c, 1, 57, 127
2, 80760, Note_on_c, 1, 73, 127
2, 80760, Note_on_c, 1, 76, 127
2, 81160, Note_off_c, 1, 57, 0
2, 81160, Note_off_c, 1, 73, 0
2, 81160, Note_off_c, 1, 76, 0
2, 81200, Note_on_c, 1, 57, 127
2, 81200, Note_on_c, 1, 73, 127
2, 81200, Note_on_c, 1, 76, 127
2, 81360, Note_off_c, 1, 57, 0
2, 81360, Note_off_c, 1, 73, 0
2, 81360, Note_off_c, 1, 76, 0
2, 81400, Note_on_c, 1, 50, 127
2, 81400, Note_on_c, 1, 66, 127
2, 81400, Note_on_c, 1, 67, 127
2, 81400, Note_on_c, 1, 69, 127
2, 81440, Note_off_c, 1, 67, 0
2, 81480, Note_on_c, 1, 64, 127
2, 81480, Note_off_c, 1, 66, 0
2, 81520, Note_off_c, 1, 64, 0
2, 81520, Note_on_c, 1, 66, 127
2, 81640, Note_off_c, 1, 69, 0
2, 81680, Note_on_c, 1, 69, 127
2, 81960, Note_off_c, 1, 50, 0
2, 81960, Note_off_c, 1, 66, 0
2, 81960, Note_off_c, 1, 69, 0
2, 82000, Note_on_c, 1, 55, 127
2, 82000, Note_on_c, 1, 67, 127
2, 82000, Note_on_c, 1, 71, 127
2, 82560, Note_off_c, 1, 55, 0
2, 82560, Note_off_c, 1, 67, 0
2, 82560, Note_off_c, 1, 71, 0
2, 82600, Note_on_c, 1, 57, 127
2, 82600, Note_on_c, 1, 67, 127
2, 82600, Note_on_c, 1, 71, 127
2, 83160, Note_off_c, 1, 57, 0
2, 83160, Note_off_c, 1, 67, 0
2, 83160, Note_off_c, 1, 71, 0
2, 83240, Note_on_c, 1, 33, 127
2, 83240, Note_on_c, 1, 45, 127
2, 83240, Note_on_c, 1, 64, 127
2, 83240, Note_on_c, 1, 69, 127
2, 83240, Note_on_c, 1, 73, 127
2, 83760, Note_off_c, 1, 33, 0
2, 83760, Note_off_c, 1, 45, 0
2, 83760, Note_off_c, 1, 64, 0
2, 83760, Note_off_c, 1, 69, 0
2, 83760, Note_off_c, 1, 73, 0
2, 83840, Note_on_c, 1, 42, 127
2, 83840, Note_on_c, 1, 54, 127
2, 83840, Note_on_c, 1, 69, 127
2, 83840, Note_on_c, 1, 72, 127
2, 83840, Note_on_c, 1, 75, 127
2, 85000, Note_off_c, 1, 42, 0
2, 85000, Note_off_c, 1, 54, 0
2, 85000, Note_off_c, 1, 69, 0
2, 85000, Note_off_c, 1, 72, 0
2, 85000, Note_off_c, 1, 75, 0
2, 85040, Note_on_c, 1, 42, 127
2, 85040, Note_on_c, 1, 54, 127
2, 85040, Note_on_c, 1, 69, 127
2, 85040, Note_on_c, 1, 72, 127
2, 85040, Note_on_c, 1, 75, 127
2, 86800, Note_off_c, 1, 42, 0
2, 86800, Note_off_c, 1, 54, 0
2, 86800, Note_off_c, 1, 69, 0
2, 86800, Note_off_c, 1, 72, 0
2, 86800, Note_off_c, 1, 75, 0
2, 86840, Note_on_c, 1, 42, 127
2, 86840, Note_on_c, 1, 54, 127
2, 86840, Note_on_c, 1, 69, 127
2, 86840, Note_on_c, 1, 72, 127
2, 86840, Note_on_c, 1, 75, 127
2, 87480, Note_off_c, 1, 69, 0
2, 87480, Note_off_c, 1, 72, 0
2, 87480, Note_off_c, 1, 75, 0
2, 88920, Note_off_c, 1, 42, 0
2, 88920, Note_off_c, 1, 54, 0
2, 88960, Note_on_c, 1, 42, 127
2, 88960, Note_on_c, 1, 54, 127
2, 91000, Note_off_c, 1, 42, 0
2, 91000, Note_off_c, 1, 54, 0
2, 91040, Note_on_c, 1, 42, 127
2, 91040, Note_on_c, 1, 54, 127
2, 92960, Note_off_c, 1, 42, 0
2, 92960, Note_off_c, 1, 54, 0
2, 93000, Note_on_c, 1, 42, 127
2, 93000, Note_on_c, 1, 54, 127
2, 95040, Note_off_c, 1, 42, 0
2, 95040, Note_off_c, 1, 54, 0
2, 95080, Note_on_c, 1, 42, 127
2, 95080, Note_on_c, 1, 54, 127
2, 95480, Note_on_c, 1, 57, 127
2, 97080, Note_off_c, 1, 42, 0
2, 97080, Note_off_c, 1, 54, 0
2, 97080, Note_off_c, 1, 57, 0
2, 97120, Note_on_c, 1, 42, 127
2, 97120, Note_on_c, 1, 54, 127
2, 97120, Note_on_c, 1, 57, 127
2, 99080, Note_off_c, 1, 57, 0
2, 99120, Note_off_c, 1, 42, 0
2, 99120, Note_off_c, 1, 54, 0
2, 99160, Note_on_c, 1, 42, 127
2, 99160, Note_on_c, 1, 54, 127
2, 99160, Note_on_c, 1, 57, 127
2, 101240, Note_off_c, 1, 57, 0
2, 101240, Note_on_c, 1, 62, 127
2, 101280, Note_off_c, 1, 42, 0
2, 101280, Note_off_c, 1, 54, 0
2, 101280, Note_off_c, 1, 62, 0
2, 101320, Note_on_c, 1, 42, 127
2, 101320, Note_on_c, 1, 54, 127
2, 101320, Note_on_c, 1, 57, 127
2, 103320, Note_off_c, 1, 42, 0
2, 103320, Note_off_c, 1, 54, 0
2, 103320, Note_off_c, 1, 57, 0
2, 103360, Note_on_c, 1, 42, 127
2, 103360, Note_on_c, 1, 54, 127
2, 103360, Note_on_c, 1, 57, 127
2, 104000, Note_off_c, 1, 57, 0
2, 104040, Note_on_c, 1, 61, 127
2, 104600, Note_off_c, 1, 61, 0
2, 104640, Note_on_c, 1, 70, 127
2, 105160, Note_off_c, 1, 70, 0
2, 105200, Note_off_c, 1, 42, 0
2, 105200, Note_off_c, 1, 54, 0
2, 105240, Note_on_c, 1, 42, 127
2, 105240, Note_on_c, 1, 54, 127
2, 105280, Note_on_c, 1, 61, 127
2, 105840, Note_off_c, 1, 61, 0
2, 105880, Note_on_c, 1, 61, 127
2, 105880, Note_on_c, 1, 70, 127
2, 106440, Note_off_c, 1, 61, 0
2, 106440, Note_off_c, 1, 70, 0
2, 106480, Note_on_c, 1, 70, 127
2, 106920, Note_on_c, 1, 64, 127
2, 106960, Note_off_c, 1, 64, 0
2, 107000, Note_off_c, 1, 54, 0
2, 107040, Note_off_c, 1, 42, 0
2, 107040, Note_off_c, 1, 70, 0
2, 107080, Note_on_c, 1, 42, 127
2, 107080, Note_on_c, 1, 54, 127
2, 107080, Note_on_c, 1, 70, 127
2, 107640, Note_off_c, 1, 70, 0
2, 107680, Note_on_c, 1, 61, 127
2, 108200, Note_off_c, 1, 61, 0
2, 108240, Note_on_c, 1, 69, 127
2, 109000, Note_off_c, 1, 42, 0
2, 109000, Note_off_c, 1, 54, 0
2, 109000, Note_off_c, 1, 69, 0
2, 109040, Note_on_c, 1, 42, 127
2, 109040, Note_on_c, 1, 54, 127
2, 109040, Note_on_c, 1, 69, 127
2, 110000, Note_off_c, 1, 69, 0
2, 110040, Note_on_c, 1, 72, 127
2, 111000, Note_off_c, 1, 72, 0
2, 111000, Note_on_c, 1, 74, 127
2, 111040, Note_off_c, 1, 42, 0
2, 111040, Note_off_c, 1, 54, 0
2, 111040, Note_off_c, 1, 74, 0
2, 111080, Note_on_c, 1, 42, 127
2, 111080, Note_on_c, 1, 54, 127
2, 111080, Note_on_c, 1, 72, 127
2, 111200, Note_off_c, 1, 72, 0
2, 111200, Note_on_c, 1, 74, 127
2, 111800, Note_off_c, 1, 74, 0
2, 111840, Note_on_c, 1, 66, 127
2, 113200, Note_off_c, 1, 42, 0
2, 113200, Note_off_c, 1, 54, 0
2, 113200, Note_off_c, 1, 66, 0
2, 113240, Note_on_c, 1, 42, 127
2, 113240, Note_on_c, 1, 54, 127
2, 113240, Note_on_c, 1, 66, 127
2, 115000, Note_off_c, 1, 42, 0
2, 115040, Note_on_c, 1, 42, 127
2, 115440, Note_off_c, 1, 42, 0
2, 115440, Note_off_c, 1, 54, 0
2, 115440, Note_off_c, 1, 66, 0
2, 115480, Note_on_c, 1, 42, 127
2, 115480, Note_on_c, 1, 54, 127
2, 115480, Note_on_c, 1, 66, 127
2, 117720, Note_off_c, 1, 42, 0
2, 117720, Note_off_c, 1, 54, 0
2, 117720, Note_off_c, 1, 66, 0
2, 117760, Note_on_c, 1, 42, 127
2, 117760, Note_on_c, 1, 54, 127
2, 117760, Note_on_c, 1, 66, 127
2, 118840, Note_off_c, 1, 66, 0
2, 118880, Note_on_c, 1, 66, 127
2, 120000, Note_off_c, 1, 42, 0
2, 120000, Note_off_c, 1, 54, 0
2, 120000, Note_off_c, 1, 66, 0
2, 120040, End_track
3, 0, Start_track
3, 0, Title_t, "MIDI"
3, 1536, End_track
0, 0, End_of_file
