0, 0, Header, 1, 3, 192
1, 0, Start_track
1, 0, Time_signature, 4, 2, 24, 8
1, 0, Tempo, 500000
1, 120040, End_track
2, 0, Start_track
2, 0, Text_t, "random instrument: random person i dunno whatev"
2, 0, Title_t, "Track 1"
2, 0, Note_on_c, 1, 40, 127
2, 0, Note_on_c, 1, 48, 127
2, 0, Note_on_c, 1, 56, 127
2, 0, Note_on_c, 1, 60, 127
2, 120, Note_off_c, 1, 40, 0
2, 120, Note_off_c, 1, 48, 0
2, 120, Note_off_c, 1, 56, 0
2, 120, Note_off_c, 1, 60, 0
2, 160, Note_on_c, 1, 40, 127
2, 160, Note_on_c, 1, 48, 127
2, 160, Note_on_c, 1, 56, 127
2, 160, Note_on_c, 1, 60, 127
2, 200, Note_on_c, 1, 35, 127
2, 200, Note_on_c, 1, 39, 127
2, 200, Note_off_c, 1, 40, 0
2, 200, Note_on_c, 1, 47, 127
2, 200, Note_off_c, 1, 48, 0
2, 200, Note_on_c, 1, 50, 127
2, 200, Note_off_c, 1, 56, 0
2, 200, Note_off_c, 1, 60, 0
2, 240, Note_off_c, 1, 35, 0
2, 240, Note_off_c, 1, 39, 0
2, 240, Note_off_c, 1, 47, 0
2, 240, Note_off_c, 1, 50, 0
2, 240, Note_on_c, 1, 74, 127
2, 240, Note_on_c, 1, 77, 127
2, 240, Note_on_c, 1, 80, 127
2, 240, Note_on_c, 1, 83, 127
2, 520, Note_off_c, 1, 74, 0
2, 520, Note_off_c, 1, 77, 0
2, 520, Note_off_c, 1, 80, 0
2, 520, Note_off_c, 1, 83, 0
2, 14680, Note_on_c, 1, 56, 127
2, 14680, Note_on_c, 1, 71, 127
2, 14680, Note_on_c, 1, 83, 127
2, 15240, Note_off_c, 1, 56, 0
2, 15240, Note_off_c, 1, 71, 0
2, 15240, Note_off_c, 1, 83, 0
2, 15280, Note_on_c, 1, 57, 127
2, 15280, Note_on_c, 1, 66, 127
2, 15280, Note_on_c, 1, 69, 127
2, 15280, Note_on_c, 1, 78, 127
2, 16000, Note_off_c, 1, 57, 0
2, 16000, Note_off_c, 1, 66, 0
2, 16000, Note_off_c, 1, 69, 0
2, 16000, Note_off_c, 1, 78, 0
2, 16040, Note_on_c, 1, 52, 127
2, 16040, Note_on_c, 1, 61, 127
2, 16040, Note_on_c, 1, 64, 127
2, 16040, Note_on_c, 1, 73, 127
2, 16080, Note_off_c, 1, 52, 0
2, 16080, Note_on_c, 1, 57, 127
2, 16080, Note_on_c, 1, 60, 127
2, 16080, Note_off_c, 1, 61, 0
2, 16080, Note_on_c, 1, 63, 127
2, 16080, Note_off_c, 1, 64, 0
2, 16080, Note_on_c, 1, 72, 127
2, 16080, Note_off_c, 1, 73, 0
2, 16080, Note_on_c, 1, 78, 127
2, 16080, Note_on_c, 1, 83, 127
2, 16120, Note_on_c, 1, 52, 127
2, 16120, Note_off_c, 1, 57, 0
2, 16120, Note_off_c, 1, 60, 0
2, 16120, Note_on_c, 1, 61, 127
2, 16120, Note_off_c, 1, 63, 0
2, 16120, Note_on_c, 1, 64, 127
2, 16120, Note_off_c, 1, 72, 0
2, 16120, Note_on_c, 1, 73, 127
2, 16120, Note_off_c, 1, 78, 0
2, 16120, Note_off_c, 1, 83, 0
2, 16280, Note_off_c, 1, 61, 0
2, 16280, Note_off_c, 1, 73, 0
2, 16320, Note_on_c, 1, 61, 127
2, 16320, Note_on_c, 1, 73, 127
2, 16560, Note_off_c, 1, 52, 0
2, 16560, Note_off_c, 1, 61, 0
2, 16560, Note_off_c, 1, 64, 0
2, 16560, Note_off_c, 1, 73, 0
2, 16600, Note_on_c, 1, 52, 127
2, 16600, Note_on_c, 1, 61, 127
2, 16600, Note_on_c, 1, 64, 127
2, 16600, Note_on_c, 1, 73, 127
2, 16840, Note_off_c, 1, 52, 0
2, 16840, Note_off_c, 1, 61, 0
2, 16840, Note_off_c, 1, 64, 0
2, 16840, Note_off_c, 1, 73, 0
2, 16880, Note_on_c, 1, 52, 127
2, 16880, Note_on_c, 1, 61, 127
2, 16880, Note_on_c, 1, 64, 127
2, 16880, Note_on_c, 1, 73, 127
2, 17000, Note_off_c, 1, 52, 0
2, 17000, Note_off_c, 1, 61, 0
2, 17000, Note_off_c, 1, 64, 0
2, 17000, Note_off_c, 1, 73, 0
2, 17040, Note_on_c, 1, 52, 127
2, 17040, Note_on_c, 1, 61, 127
2, 17040, Note_on_c, 1, 64, 127
2, 17040, Note_on_c, 1, 73, 127
2, 17160, Note_off_c, 1, 52, 0
2, 17160, Note_off_c, 1, 61, 0
2, 17160, Note_off_c, 1, 64, 0
2, 17160, Note_off_c, 1, 73, 0
2, 17200, Note_on_c, 1, 52, 127
2, 17200, Note_on_c, 1, 61, 127
2, 17200, Note_on_c, 1, 64, 127
2, 17200, Note_on_c, 1, 73, 127
2, 17440, Note_off_c, 1, 52, 0
2, 17440, Note_off_c, 1, 61, 0
2, 17440, Note_off_c, 1, 64, 0
2, 17440, Note_off_c, 1, 73, 0
2, 17480, Note_on_c, 1, 52, 127
2, 17480, Note_on_c, 1, 61, 127
2, 17480, Note_on_c, 1, 64, 127
2, 17480, Note_on_c, 1, 73, 127
2, 17760, Note_off_c, 1, 52, 0
2, 17760, Note_off_c, 1, 61, 0
2, 17760, Note_off_c, 1, 64, 0
2, 17760, Note_off_c, 1, 73, 0
2, 17800, Note_on_c, 1, 52, 127
2, 17800, Note_on_c, 1, 61, 127
2, 17800, Note_on_c, 1, 64, 127
2, 17800, Note_on_c, 1, 73, 127
2, 18040, Note_off_c, 1, 52, 0
2, 18040, Note_off_c, 1, 61, 0
2, 18040, Note_off_c, 1, 64, 0
2, 18040, Note_off_c, 1, 73, 0
2, 18080, Note_on_c, 1, 53, 127
2, 18080, Note_on_c, 1, 56, 127
2, 18080, Note_on_c, 1, 65, 127
2, 18080, Note_on_c, 1, 68, 127
2, 18320, Note_off_c, 1, 53, 0
2, 18320, Note_off_c, 1, 56, 0
2, 18320, Note_off_c, 1, 65, 0
2, 18320, Note_off_c, 1, 68, 0
2, 18360, Note_on_c, 1, 55, 127
2, 18360, Note_on_c, 1, 61, 127
2, 18360, Note_on_c, 1, 67, 127
2, 18360, Note_on_c, 1, 73, 127
2, 18600, Note_off_c, 1, 55, 0
2, 18600, Note_off_c, 1, 61, 0
2, 18600, Note_off_c, 1, 67, 0
2, 18600, Note_off_c, 1, 73, 0
2, 18640, Note_on_c, 1, 51, 127
2, 18640, Note_on_c, 1, 59, 127
2, 18640, Note_on_c, 1, 63, 127
2, 18640, Note_on_c, 1, 71, 127
2, 18880, Note_off_c, 1, 51, 0
2, 18880, Note_off_c, 1, 59, 0
2, 18880, Note_off_c, 1, 63, 0
2, 18880, Note_off_c, 1, 71, 0
2, 18920, Note_on_c, 1, 51, 127
2, 18920, Note_on_c, 1, 59, 127
2, 18920, Note_on_c, 1, 63, 127
2, 18920, Note_on_c, 1, 71, 127
2, 19120, Note_off_c, 1, 51, 0
2, 19120, Note_off_c, 1, 59, 0
2, 19120, Note_off_c, 1, 63, 0
2, 19120, Note_off_c, 1, 71, 0
2, 19160, Note_on_c, 1, 51, 127
2, 19160, Note_on_c, 1, 59, 127
2, 19160, Note_on_c, 1, 63, 127
2, 19160, Note_on_c, 1, 71, 127
2, 19200, Note_off_c, 1, 51, 0
2, 19200, Note_off_c, 1, 59, 0
2, 19200, Note_off_c, 1, 63, 0
2, 19200, Note_off_c, 1, 71, 0
2, 19240, Note_on_c, 1, 51, 127
2, 19240, Note_on_c, 1, 59, 127
2, 19240, Note_on_c, 1, 63, 127
2, 19240, Note_on_c, 1, 71, 127
2, 19480, Note_off_c, 1, 51, 0
2, 19480, Note_off_c, 1, 59, 0
2, 19480, Note_off_c, 1, 63, 0
2, 19480, Note_off_c, 1, 71, 0
2, 19520, Note_on_c, 1, 51, 127
2, 19520, Note_on_c, 1, 59, 127
2, 19520, Note_on_c, 1, 63, 127
2, 19520, Note_on_c, 1, 71, 127
2, 19760, Note_off_c, 1, 51, 0
2, 19760, Note_off_c, 1, 59, 0
2, 19760, Note_off_c, 1, 63, 0
2, 19760, Note_off_c, 1, 71, 0
2, 19800, Note_on_c, 1, 52, 127
2, 19800, Note_on_c, 1, 59, 127
2, 19800, Note_on_c, 1, 64, 127
2, 19800, Note_on_c, 1, 68, 127
2, 19800, Note_on_c, 1, 71, 127
2, 19800, Note_on_c, 1, 80, 127
2, 20040, Note_off_c, 1, 52, 0
2, 20040, Note_off_c, 1, 59, 0
2, 20040, Note_off_c, 1, 64, 0
2, 20040, Note_off_c, 1, 68, 0
2, 20040, Note_off_c, 1, 71, 0
2, 20040, Note_off_c, 1, 80, 0
2, 20080, Note_on_c, 1, 54, 127
2, 20080, Note_on_c, 1, 59, 127
2, 20080, Note_on_c, 1, 66, 127
2, 20080, Note_on_c, 1, 69, 127
2, 20080, Note_on_c, 1, 71, 127
2, 20080, Note_on_c, 1, 81, 127
2, 20320, Note_off_c, 1, 54, 0
2, 20320, Note_off_c, 1, 59, 0
2, 20320, Note_off_c, 1, 66, 0
2, 20320, Note_off_c, 1, 69, 0
2, 20320, Note_off_c, 1, 71, 0
2, 20320, Note_off_c, 1, 81, 0
2, 20360, Note_on_c, 1, 56, 127
2, 20360, Note_on_c, 1, 59, 127
2, 20360, Note_on_c, 1, 68, 127
2, 20360, Note_on_c, 1, 71, 127
2, 20360, Note_on_c, 1, 83, 127
2, 20600, Note_off_c, 1, 56, 0
2, 20600, Note_off_c, 1, 59, 0
2, 20600, Note_off_c, 1, 68, 0
2, 20600, Note_off_c, 1, 71, 0
2, 20600, Note_off_c, 1, 83, 0
2, 20640, Note_on_c, 1, 49, 127
2, 20640, Note_on_c, 1, 61, 127
2, 20640, Note_on_c, 1, 64, 127
2, 20640, Note_on_c, 1, 68, 127
2, 20640, Note_on_c, 1, 76, 127
2, 20880, Note_off_c, 1, 49, 0
2, 20880, Note_off_c, 1, 61, 0
2, 20880, Note_off_c, 1, 64, 0
2, 20880, Note_off_c, 1, 68, 0
2, 20880, Note_off_c, 1, 76, 0
2, 20920, Note_on_c, 1, 37, 127
2, 20920, Note_on_c, 1, 45, 127
2, 20920, Note_on_c, 1, 52, 127
2, 20920, Note_on_c, 1, 57, 127
2, 20920, Note_on_c, 1, 61, 127
2, 20920, Note_on_c, 1, 64, 127
2, 21120, Note_off_c, 1, 37, 0
2, 21120, Note_off_c, 1, 45, 0
2, 21120, Note_off_c, 1, 52, 0
2, 21120, Note_off_c, 1, 57, 0
2, 21120, Note_off_c, 1, 61, 0
2, 21120, Note_off_c, 1, 64, 0
2, 21160, Note_on_c, 1, 37, 127
2, 21160, Note_on_c, 1, 45, 127
2, 21160, Note_on_c, 1, 52, 127
2, 21160, Note_on_c, 1, 57, 127
2, 21160, Note_on_c, 1, 61, 127
2, 21160, Note_on_c, 1, 64, 127
2, 21200, Note_off_c, 1, 37, 0
2, 21200, Note_off_c, 1, 45, 0
2, 21200, Note_off_c, 1, 52, 0
2, 21200, Note_off_c, 1, 57, 0
2, 21200, Note_off_c, 1, 61, 0
2, 21200, Note_off_c, 1, 64, 0
2, 21240, Note_on_c, 1, 42, 127
2, 21240, Note_on_c, 1, 54, 127
2, 21240, Note_on_c, 1, 71, 127
2, 21240, Note_on_c, 1, 76, 127
2, 21240, Note_on_c, 1, 80, 127
2, 21480, Note_off_c, 1, 42, 0
2, 21480, Note_off_c, 1, 54, 0
2, 21480, Note_off_c, 1, 71, 0
2, 21480, Note_off_c, 1, 76, 0
2, 21480, Note_off_c, 1, 80, 0
2, 21520, Note_on_c, 1, 42, 127
2, 21520, Note_on_c, 1, 54, 127
2, 21520, Note_on_c, 1, 71, 127
2, 21520, Note_on_c, 1, 76, 127
2, 21520, Note_on_c, 1, 80, 127
2, 21760, Note_off_c, 1, 42, 0
2, 21760, Note_off_c, 1, 54, 0
2, 21760, Note_off_c, 1, 71, 0
2, 21760, Note_off_c, 1, 76, 0
2, 21760, Note_off_c, 1, 80, 0
2, 21800, Note_on_c, 1, 49, 127
2, 21800, Note_on_c, 1, 52, 127
2, 21800, Note_on_c, 1, 64, 127
2, 21800, Note_on_c, 1, 76, 127
2, 22040, Note_off_c, 1, 49, 0
2, 22040, Note_off_c, 1, 52, 0
2, 22040, Note_off_c, 1, 64, 0
2, 22040, Note_off_c, 1, 76, 0
2, 22080, Note_on_c, 1, 49, 127
2, 22080, Note_on_c, 1, 56, 127
2, 22080, Note_on_c, 1, 61, 127
2, 22080, Note_on_c, 1, 64, 127
2, 22080, Note_on_c, 1, 70, 127
2, 22160, Note_off_c, 1, 70, 0
2, 22320, Note_off_c, 1, 49, 0
2, 22320, Note_off_c, 1, 56, 0
2, 22320, Note_off_c, 1, 61, 0
2, 22320, Note_off_c, 1, 64, 0
2, 22360, Note_on_c, 1, 45, 127
2, 22360, Note_on_c, 1, 52, 127
2, 22360, Note_on_c, 1, 57, 127
2, 22360, Note_on_c, 1, 61, 127
2, 22360, Note_on_c, 1, 69, 127
2, 22360, Note_on_c, 1, 73, 127
2, 22600, Note_off_c, 1, 45, 0
2, 22600, Note_off_c, 1, 52, 0
2, 22600, Note_off_c, 1, 57, 0
2, 22600, Note_off_c, 1, 61, 0
2, 22600, Note_off_c, 1, 69, 0
2, 22600, Note_off_c, 1, 73, 0
2, 22640, Note_on_c, 1, 49, 127
2, 22640, Note_on_c, 1, 57, 127
2, 22640, Note_on_c, 1, 61, 127
2, 22640, Note_on_c, 1, 64, 127
2, 22640, Note_on_c, 1, 69, 127
2, 22640, Note_on_c, 1, 76, 127
2, 22880, Note_off_c, 1, 49, 0
2, 22880, Note_off_c, 1, 57, 0
2, 22880, Note_off_c, 1, 61, 0
2, 22880, Note_off_c, 1, 64, 0
2, 22880, Note_off_c, 1, 69, 0
2, 22880, Note_off_c, 1, 76, 0
2, 22920, Note_on_c, 1, 49, 127
2, 22920, Note_on_c, 1, 57, 127
2, 22920, Note_on_c, 1, 61, 127
2, 22920, Note_on_c, 1, 64, 127
2, 22920, Note_on_c, 1, 69, 127
2, 22920, Note_on_c, 1, 76, 127
2, 23280, Note_off_c, 1, 49, 0
2, 23280, Note_off_c, 1, 57, 0
2, 23280, Note_off_c, 1, 61, 0
2, 23280, Note_off_c, 1, 64, 0
2, 23280, Note_off_c, 1, 69, 0
2, 23280, Note_off_c, 1, 76, 0
2, 23320, Note_on_c, 1, 49, 127
2, 23320, Note_on_c, 1, 57, 127
2, 23320, Note_on_c, 1, 61, 127
2, 23320, Note_on_c, 1, 64, 127
2, 23320, Note_on_c, 1, 69, 127
2, 23320, Note_on_c, 1, 76, 127
2, 23480, Note_off_c, 1, 49, 0
2, 23480, Note_off_c, 1, 57, 0
2, 23480, Note_off_c, 1, 61, 0
2, 23480, Note_off_c, 1, 64, 0
2, 23480, Note_off_c, 1, 69, 0
2, 23480, Note_off_c, 1, 76, 0
2, 23520, Note_on_c, 1, 50, 127
2, 23520, Note_on_c, 1, 57, 127
2, 23520, Note_on_c, 1, 62, 127
2, 23520, Note_on_c, 1, 66, 127
2, 23520, Note_on_c, 1, 69, 127
2, 23520, Note_on_c, 1, 78, 127
2, 23760, Note_off_c, 1, 50, 0
2, 23760, Note_off_c, 1, 57, 0
2, 23760, Note_off_c, 1, 62, 0
2, 23760, Note_off_c, 1, 66, 0
2, 23760, Note_off_c, 1, 69, 0
2, 23760, Note_off_c, 1, 78, 0
2, 23800, Note_on_c, 1, 50, 127
2, 23800, Note_on_c, 1, 57, 127
2, 23800, Note_on_c, 1, 62, 127
2, 23800, Note_on_c, 1, 66, 127
2, 23800, Note_on_c, 1, 69, 127
2, 23800, Note_on_c, 1, 78, 127
2, 24280, Note_off_c, 1, 50, 0
2, 24280, Note_off_c, 1, 57, 0
2, 24280, Note_off_c, 1, 62, 0
2, 24280, Note_off_c, 1, 66, 0
2, 24280, Note_off_c, 1, 69, 0
2, 24280, Note_off_c, 1, 78, 0
2, 24320, Note_on_c, 1, 50, 127
2, 24320, Note_on_c, 1, 57, 127
2, 24320, Note_on_c, 1, 62, 127
2, 24320, Note_on_c, 1, 66, 127
2, 24320, Note_on_c, 1, 69, 127
2, 24320, Note_on_c, 1, 78, 127
2, 24840, Note_off_c, 1, 50, 0
2, 24840, Note_off_c, 1, 57, 0
2, 24840, Note_off_c, 1, 62, 0
2, 24840, Note_off_c, 1, 66, 0
2, 24840, Note_off_c, 1, 69, 0
2, 24840, Note_off_c, 1, 78, 0
2, 24880, Note_on_c, 1, 50, 127
2, 24880, Note_on_c, 1, 57, 127
2, 24880, Note_on_c, 1, 62, 127
2, 24880, Note_on_c, 1, 67, 127
2, 24880, Note_on_c, 1, 71, 127
2, 25440, Note_off_c, 1, 50, 0
2, 25440, Note_off_c, 1, 57, 0
2, 25440, Note_off_c, 1, 62, 0
2, 25440, Note_off_c, 1, 67, 0
2, 25440, Note_off_c, 1, 71, 0
2, 25480, Note_on_c, 1, 50, 127
2, 25480, Note_on_c, 1, 57, 127
2, 25480, Note_on_c, 1, 62, 127
2, 25480, Note_on_c, 1, 67, 127
2, 25480, Note_on_c, 1, 71, 127
2, 25960, Note_off_c, 1, 50, 0
2, 25960, Note_off_c, 1, 57, 0
2, 25960, Note_off_c, 1, 62, 0
2, 25960, Note_off_c, 1, 67, 0
2, 25960, Note_off_c, 1, 71, 0
2, 26000, Note_on_c, 1, 50, 127
2, 26000, Note_on_c, 1, 57, 127
2, 26000, Note_on_c, 1, 62, 127
2, 26000, Note_on_c, 1, 66, 127
2, 26000, Note_on_c, 1, 69, 127
2, 26520, Note_off_c, 1, 50, 0
2, 26520, Note_off_c, 1, 57, 0
2, 26520, Note_off_c, 1, 62, 0
2, 26520, Note_off_c, 1, 66, 0
2, 26520, Note_off_c, 1, 69, 0
2, 26560, Note_on_c, 1, 50, 127
2, 26560, Note_on_c, 1, 57, 127
2, 26560, Note_on_c, 1, 62, 127
2, 26560, Note_on_c, 1, 66, 127
2, 27040, Note_off_c, 1, 50, 0
2, 27040, Note_off_c, 1, 57, 0
2, 27040, Note_off_c, 1, 62, 0
2, 27040, Note_off_c, 1, 66, 0
2, 27080, Note_on_c, 1, 52, 127
2, 27080, Note_on_c, 1, 57, 127
2, 27080, Note_on_c, 1, 61, 127
2, 27080, Note_on_c, 1, 67, 127
2, 27320, Note_off_c, 1, 52, 0
2, 27320, Note_off_c, 1, 57, 0
2, 27320, Note_off_c, 1, 61, 0
2, 27320, Note_off_c, 1, 67, 0
2, 27360, Note_on_c, 1, 52, 127
2, 27360, Note_on_c, 1, 57, 127
2, 27360, Note_on_c, 1, 61, 127
2, 27360, Note_on_c, 1, 67, 127
2, 27600, Note_off_c, 1, 52, 0
2, 27600, Note_off_c, 1, 57, 0
2, 27600, Note_off_c, 1, 61, 0
2, 27600, Note_off_c, 1, 67, 0
2, 27640, Note_on_c, 1, 50, 127
2, 27640, Note_on_c, 1, 62, 127
2, 27640, Note_on_c, 1, 66, 127
2, 27720, Note_off_c, 1, 50, 0
2, 27720, Note_off_c, 1, 62, 0
2, 27720, Note_off_c, 1, 66, 0
2, 27760, Note_on_c, 1, 50, 127
2, 27760, Note_on_c, 1, 62, 127
2, 27760, Note_on_c, 1, 66, 127
2, 27920, Note_off_c, 1, 50, 0
2, 27920, Note_off_c, 1, 62, 0
2, 27920, Note_off_c, 1, 66, 0
2, 27960, Note_on_c, 1, 52, 127
2, 27960, Note_on_c, 1, 57, 127
2, 27960, Note_on_c, 1, 61, 127
2, 27960, Note_on_c, 1, 67, 127
2, 28160, Note_off_c, 1, 52, 0
2, 28160, Note_off_c, 1, 57, 0
2, 28160, Note_off_c, 1, 61, 0
2, 28160, Note_off_c, 1, 67, 0
2, 28200, Note_on_c, 1, 50, 127
2, 28200, Note_on_c, 1, 62, 127
2, 28200, Note_on_c, 1, 66, 127
2, 28440, Note_off_c, 1, 50, 0
2, 28440, Note_off_c, 1, 62, 0
2, 28440, Note_off_c, 1, 66, 0
2, 28480, Note_on_c, 1, 52, 127
2, 28480, Note_on_c, 1, 57, 127
2, 28480, Note_on_c, 1, 61, 127
2, 28480, Note_on_c, 1, 67, 127
2, 28720, Note_off_c, 1, 52, 0
2, 28720, Note_off_c, 1, 57, 0
2, 28720, Note_off_c, 1, 61, 0
2, 28720, Note_off_c, 1, 67, 0
2, 28760, Note_on_c, 1, 50, 127
2, 28760, Note_on_c, 1, 62, 127
2, 28760, Note_on_c, 1, 66, 127
2, 29000, Note_off_c, 1, 50, 0
2, 29000, Note_off_c, 1, 62, 0
2, 29000, Note_off_c, 1, 66, 0
2, 29040, Note_on_c, 1, 52, 127
2, 29040, Note_on_c, 1, 57, 127
2, 29040, Note_on_c, 1, 61, 127
2, 29040, Note_on_c, 1, 67, 127
2, 29280, Note_off_c, 1, 52, 0
2, 29280, Note_off_c, 1, 57, 0
2, 29280, Note_off_c, 1, 61, 0
2, 29280, Note_off_c, 1, 67, 0
2, 29320, Note_on_c, 1, 50, 127
2, 29320, Note_on_c, 1, 62, 127
2, 29320, Note_on_c, 1, 66, 127
2, 29560, Note_off_c, 1, 66, 0
2, 29600, Note_on_c, 1, 66, 127
2, 29880, Note_off_c, 1, 50, 0
2, 29880, Note_off_c, 1, 62, 0
2, 29880, Note_off_c, 1, 66, 0
2, 29960, Note_on_c, 1, 45, 127
2, 29960, Note_on_c, 1, 57, 127
2, 29960, Note_on_c, 1, 61, 127
2, 29960, Note_on_c, 1, 64, 127
2, 30200, Note_off_c, 1, 45, 0
2, 30200, Note_off_c, 1, 57, 0
2, 30200, Note_off_c, 1, 61, 0
2, 30200, Note_off_c, 1, 64, 0
2, 30240, Note_on_c, 1, 45, 127
2, 30240, Note_on_c, 1, 57, 127
2, 30240, Note_on_c, 1, 61, 127
2, 30240, Note_on_c, 1, 64, 127
2, 30480, Note_off_c, 1, 45, 0
2, 30480, Note_off_c, 1, 57, 0
2, 30480, Note_off_c, 1, 61, 0
2, 30480, Note_off_c, 1, 64, 0
2, 30520, Note_on_c, 1, 50, 127
2, 30520, Note_on_c, 1, 57, 127
2, 30520, Note_on_c, 1, 62, 127
2, 30520, Note_on_c, 1, 66, 127
2, 30760, Note_off_c, 1, 50, 0
2, 30760, Note_off_c, 1, 57, 0
2, 30760, Note_off_c, 1, 62, 0
2, 30760, Note_off_c, 1, 66, 0
2, 30800, Note_on_c, 1, 52, 127
2, 30800, Note_on_c, 1, 57, 127
2, 30800, Note_on_c, 1, 61, 127
2, 30800, Note_on_c, 1, 67, 127
2, 31040, Note_off_c, 1, 52, 0
2, 31040, Note_off_c, 1, 57, 0
2, 31040, Note_off_c, 1, 61, 0
2, 31040, Note_off_c, 1, 67, 0
2, 31080, Note_on_c, 1, 50, 127
2, 31080, Note_on_c, 1, 62, 127
2, 31080, Note_on_c, 1, 66, 127
2, 31320, Note_off_c, 1, 50, 0
2, 31320, Note_off_c, 1, 62, 0
2, 31320, Note_off_c, 1, 66, 0
2, 31360, Note_on_c, 1, 52, 127
2, 31360, Note_on_c, 1, 57, 127
2, 31360, Note_on_c, 1, 61, 127
2, 31360, Note_on_c, 1, 67, 127
2, 31600, Note_off_c, 1, 52, 0
2, 31600, Note_off_c, 1, 57, 0
2, 31600, Note_off_c, 1, 61, 0
2, 31600, Note_off_c, 1, 67, 0
2, 31640, Note_on_c, 1, 50, 127
2, 31640, Note_on_c, 1, 62, 127
2, 31640, Note_on_c, 1, 66, 127
2, 31880, Note_off_c, 1, 50, 0
2, 31880, Note_off_c, 1, 62, 0
2, 31880, Note_off_c, 1, 66, 0
2, 31920, Note_on_c, 1, 52, 127
2, 31920, Note_on_c, 1, 57, 127
2, 31920, Note_on_c, 1, 61, 127
2, 31920, Note_on_c, 1, 67, 127
2, 32160, Note_off_c, 1, 52, 0
2, 32160, Note_off_c, 1, 57, 0
2, 32160, Note_off_c, 1, 61, 0
2, 32160, Note_off_c, 1, 67, 0
2, 32200, Note_on_c, 1, 52, 127
2, 32200, Note_on_c, 1, 57, 127
2, 32200, Note_on_c, 1, 61, 127
2, 32200, Note_on_c, 1, 67, 127
2, 32360, Note_off_c, 1, 52, 0
2, 32360, Note_off_c, 1, 57, 0
2, 32360, Note_off_c, 1, 61, 0
2, 32360, Note_off_c, 1, 67, 0
2, 32400, Note_on_c, 1, 52, 127
2, 32400, Note_on_c, 1, 57, 127
2, 32400, Note_on_c, 1, 61, 127
2, 32400, Note_on_c, 1, 67, 127
2, 32480, Note_off_c, 1, 52, 0
2, 32480, Note_off_c, 1, 57, 0
2, 32480, Note_off_c, 1, 61, 0
2, 32480, Note_off_c, 1, 67, 0
2, 32520, Note_on_c, 1, 52, 127
2, 32520, Note_on_c, 1, 57, 127
2, 32520, Note_on_c, 1, 61, 127
2, 32520, Note_on_c, 1, 67, 127
2, 32760, Note_off_c, 1, 52, 0
2, 32760, Note_off_c, 1, 57, 0
2, 32760, Note_off_c, 1, 61, 0
2, 32760, Note_off_c, 1, 67, 0
2, 32800, Note_on_c, 1, 50, 127
2, 32800, Note_on_c, 1, 62, 127
2, 32800, Note_on_c, 1, 66, 127
2, 33040, Note_off_c, 1, 50, 0
2, 33040, Note_off_c, 1, 62, 0
2, 33040, Note_off_c, 1, 66, 0
2, 33080, Note_on_c, 1, 52, 127
2, 33080, Note_on_c, 1, 57, 127
2, 33080, Note_on_c, 1, 61, 127
2, 33080, Note_on_c, 1, 67, 127
2, 33320, Note_off_c, 1, 52, 0
2, 33320, Note_off_c, 1, 57, 0
2, 33320, Note_off_c, 1, 61, 0
2, 33320, Note_off_c, 1, 67, 0
2, 33360, Note_on_c, 1, 50, 127
2, 33360, Note_on_c, 1, 62, 127
2, 33360, Note_on_c, 1, 66, 127
2, 33600, Note_off_c, 1, 50, 0
2, 33600, Note_off_c, 1, 62, 0
2, 33600, Note_off_c, 1, 66, 0
2, 33640, Note_on_c, 1, 52, 127
2, 33640, Note_on_c, 1, 57, 127
2, 33640, Note_on_c, 1, 61, 127
2, 33640, Note_on_c, 1, 67, 127
2, 33880, Note_off_c, 1, 52, 0
2, 33880, Note_off_c, 1, 57, 0
2, 33880, Note_off_c, 1, 61, 0
2, 33880, Note_off_c, 1, 67, 0
2, 33920, Note_on_c, 1, 50, 127
2, 33920, Note_on_c, 1, 62, 127
2, 33920, Note_on_c, 1, 66, 127
2, 34160, Note_off_c, 1, 62, 0
2, 34200, Note_on_c, 1, 57, 127
2, 34440, Note_off_c, 1, 57, 0
2, 34440, Note_off_c, 1, 66, 0
2, 34480, Note_off_c, 1, 50, 0
2, 34520, Note_on_c, 1, 50, 127
2, 34520, Note_on_c, 1, 56, 127
2, 34520, Note_on_c, 1, 66, 127
2, 34720, Note_off_c, 1, 56, 0
2, 34720, Note_off_c, 1, 66, 0
2, 34760, Note_on_c, 1, 69, 127
2, 34800, Note_on_c, 1, 57, 127
2, 34800, Note_off_c, 1, 69, 0
2, 34960, Note_off_c, 1, 57, 0
2, 35040, Note_off_c, 1, 50, 0
2, 35080, Note_on_c, 1, 45, 127
2, 35320, Note_off_c, 1, 45, 0
2, 35360, Note_on_c, 1, 62, 127
2, 35360, Note_on_c, 1, 66, 127
2, 35640, Note_on_c, 1, 69, 127
2, 35800, Note_off_c, 1, 69, 0
2, 35880, Note_off_c, 1, 62, 0
2, 35880, Note_off_c, 1, 66, 0
2, 35920, Note_on_c, 1, 61, 127
2, 35920, Note_on_c, 1, 64, 127
2, 36120, Note_off_c, 1, 61, 0
2, 36120, Note_off_c, 1, 64, 0
2, 36160, Note_on_c, 1, 61, 127
2, 36160, Note_on_c, 1, 67, 127
2, 36400, Note_off_c, 1, 61, 0
2, 36400, Note_off_c, 1, 67, 0
2, 36480, Note_on_c, 1, 55, 127
2, 36480, Note_on_c, 1, 59, 127
2, 36720, Note_off_c, 1, 59, 0
2, 36760, Note_on_c, 1, 62, 127
2, 37000, Note_off_c, 1, 55, 0
2, 37000, Note_off_c, 1, 62, 0
2, 37040, Note_on_c, 1, 54, 127
2, 37040, Note_on_c, 1, 57, 127
2, 37280, Note_off_c, 1, 54, 0
2, 37280, Note_off_c, 1, 57, 0
2, 37320, Note_on_c, 1, 52, 127
2, 37320, Note_on_c, 1, 55, 127
2, 37560, Note_off_c, 1, 52, 0
2, 37560, Note_off_c, 1, 55, 0
2, 37600, Note_on_c, 1, 54, 127
2, 37600, Note_on_c, 1, 57, 127
2, 37840, Note_off_c, 1, 54, 0
2, 37840, Note_off_c, 1, 57, 0
2, 37880, Note_on_c, 1, 52, 127
2, 37880, Note_on_c, 1, 55, 127
2, 38120, Note_off_c, 1, 52, 0
2, 38120, Note_off_c, 1, 55, 0
2, 38160, Note_on_c, 1, 54, 127
2, 38160, Note_on_c, 1, 57, 127
2, 38400, Note_off_c, 1, 54, 0
2, 38400, Note_off_c, 1, 57, 0
2, 38440, Note_on_c, 1, 57, 127
2, 38440, Note_on_c, 1, 66, 127
2, 38440, Note_on_c, 1, 69, 127
2, 38520, Note_off_c, 1, 57, 0
2, 38520, Note_off_c, 1, 66, 0
2, 38520, Note_off_c, 1, 69, 0
2, 38560, Note_on_c, 1, 57, 127
2, 38560, Note_on_c, 1, 66, 127
2, 38560, Note_on_c, 1, 69, 127
2, 38720, Note_off_c, 1, 57, 0
2, 38720, Note_off_c, 1, 66, 0
2, 38720, Note_off_c, 1, 69, 0
2, 38760, Note_on_c, 1, 54, 127
2, 38760, Note_on_c, 1, 62, 127
2, 38760, Note_on_c, 1, 74, 127
2, 39000, Note_off_c, 1, 54, 0
2, 39000, Note_off_c, 1, 62, 0
2, 39000, Note_off_c, 1, 74, 0
2, 39040, Note_on_c, 1, 57, 127
2, 39040, Note_on_c, 1, 64, 127
2, 39040, Note_on_c, 1, 76, 127
2, 39240, Note_off_c, 1, 64, 0
2, 39240, Note_off_c, 1, 76, 0
2, 39280, Note_on_c, 1, 50, 127
2, 39280, Note_off_c, 1, 57, 0
2, 39280, Note_on_c, 1, 62, 127
2, 39280, Note_on_c, 1, 66, 127
2, 39280, Note_on_c, 1, 78, 127
2, 39520, Note_off_c, 1, 62, 0
2, 39520, Note_off_c, 1, 66, 0
2, 39520, Note_off_c, 1, 78, 0
2, 39560, Note_on_c, 1, 66, 127
2, 39560, Note_on_c, 1, 69, 127
2, 39560, Note_on_c, 1, 81, 127
2, 39800, Note_off_c, 1, 66, 0
2, 39800, Note_off_c, 1, 69, 0
2, 39800, Note_off_c, 1, 81, 0
2, 39840, Note_on_c, 1, 67, 127
2, 39840, Note_on_c, 1, 71, 127
2, 39840, Note_on_c, 1, 83, 127
2, 40080, Note_off_c, 1, 67, 0
2, 40080, Note_off_c, 1, 71, 0
2, 40080, Note_off_c, 1, 83, 0
2, 40120, Note_on_c, 1, 66, 127
2, 40120, Note_on_c, 1, 69, 127
2, 40120, Note_on_c, 1, 81, 127
2, 40360, Note_off_c, 1, 50, 0
2, 40360, Note_off_c, 1, 66, 0
2, 40360, Note_off_c, 1, 69, 0
2, 40360, Note_off_c, 1, 81, 0
2, 40400, Note_on_c, 1, 62, 127
2, 40400, Note_on_c, 1, 66, 127
2, 40400, Note_on_c, 1, 78, 127
2, 40600, Note_off_c, 1, 62, 0
2, 40600, Note_off_c, 1, 66, 0
2, 40600, Note_off_c, 1, 78, 0
2, 40640, Note_on_c, 1, 62, 127
2, 40680, Note_on_c, 1, 57, 127
2, 40680, Note_on_c, 1, 74, 127
2, 40840, Note_on_c, 1, 45, 127
2, 40920, Note_off_c, 1, 57, 0
2, 40920, Note_off_c, 1, 62, 0
2, 40920, Note_off_c, 1, 74, 0
2, 40960, Note_on_c, 1, 55, 127
2, 40960, Note_on_c, 1, 57, 127
2, 40960, Note_on_c, 1, 61, 127
2, 40960, Note_on_c, 1, 64, 127
2, 40960, Note_on_c, 1, 69, 127
2, 41720, Note_off_c, 1, 45, 0
2, 41720, Note_off_c, 1, 55, 0
2, 41720, Note_off_c, 1, 57, 0
2, 41720, Note_off_c, 1, 61, 0
2, 41720, Note_off_c, 1, 64, 0
2, 41720, Note_off_c, 1, 69, 0
2, 41760, Note_on_c, 1, 54, 127
2, 41760, Note_on_c, 1, 62, 127
2, 41760, Note_on_c, 1, 74, 127
2, 42000, Note_off_c, 1, 54, 0
2, 42000, Note_off_c, 1, 62, 0
2, 42000, Note_off_c, 1, 74, 0
2, 42040, Note_on_c, 1, 57, 127
2, 42040, Note_on_c, 1, 64, 127
2, 42040, Note_on_c, 1, 76, 127
2, 42280, Note_off_c, 1, 57, 0
2, 42280, Note_off_c, 1, 64, 0
2, 42280, Note_off_c, 1, 76, 0
2, 42320, Note_on_c, 1, 50, 127
2, 42320, Note_on_c, 1, 62, 127
2, 42320, Note_on_c, 1, 66, 127
2, 42320, Note_on_c, 1, 78, 127
2, 42560, Note_off_c, 1, 62, 0
2, 42560, Note_off_c, 1, 66, 0
2, 42560, Note_off_c, 1, 78, 0
2, 42600, Note_on_c, 1, 66, 127
2, 42600, Note_on_c, 1, 69, 127
2, 42600, Note_on_c, 1, 81, 127
2, 42760, Note_off_c, 1, 50, 0
2, 42760, Note_off_c, 1, 66, 0
2, 42760, Note_off_c, 1, 69, 0
2, 42760, Note_off_c, 1, 81, 0
2, 42800, Note_on_c, 1, 50, 127
2, 42800, Note_on_c, 1, 66, 127
2, 42800, Note_on_c, 1, 69, 127
2, 42800, Note_on_c, 1, 81, 127
2, 42880, Note_off_c, 1, 66, 0
2, 42880, Note_off_c, 1, 69, 0
2, 42880, Note_off_c, 1, 81, 0
2, 42920, Note_on_c, 1, 67, 127
2, 42920, Note_on_c, 1, 71, 127
2, 42920, Note_on_c, 1, 83, 127
2, 43120, Note_off_c, 1, 67, 0
2, 43120, Note_off_c, 1, 71, 0
2, 43120, Note_off_c, 1, 83, 0
2, 43160, Note_on_c, 1, 66, 127
2, 43160, Note_on_c, 1, 69, 127
2, 43160, Note_on_c, 1, 81, 127
2, 43400, Note_off_c, 1, 50, 0
2, 43400, Note_off_c, 1, 66, 0
2, 43400, Note_off_c, 1, 69, 0
2, 43400, Note_off_c, 1, 81, 0
2, 43440, Note_on_c, 1, 62, 127
2, 43440, Note_on_c, 1, 66, 127
2, 43440, Note_on_c, 1, 78, 127
2, 43680, Note_off_c, 1, 62, 0
2, 43680, Note_off_c, 1, 66, 0
2, 43680, Note_off_c, 1, 78, 0
2, 43720, Note_on_c, 1, 57, 127
2, 43720, Note_on_c, 1, 62, 127
2, 43720, Note_on_c, 1, 74, 127
2, 43840, Note_on_c, 1, 45, 127
2, 43960, Note_off_c, 1, 57, 0
2, 43960, Note_off_c, 1, 62, 0
2, 43960, Note_off_c, 1, 74, 0
2, 44000, Note_on_c, 1, 55, 127
2, 44000, Note_on_c, 1, 57, 127
2, 44000, Note_on_c, 1, 61, 127
2, 44000, Note_on_c, 1, 64, 127
2, 44000, Note_on_c, 1, 69, 127
2, 45000, Note_off_c, 1, 45, 0
2, 45000, Note_off_c, 1, 55, 0
2, 45000, Note_off_c, 1, 57, 0
2, 45000, Note_off_c, 1, 61, 0
2, 45000, Note_off_c, 1, 64, 0
2, 45000, Note_off_c, 1, 69, 0
2, 45040, Note_on_c, 1, 45, 127
2, 45040, Note_on_c, 1, 55, 127
2, 45040, Note_on_c, 1, 57, 127
2, 45040, Note_on_c, 1, 61, 127
2, 45040, Note_on_c, 1, 64, 127
2, 45040, Note_on_c, 1, 69, 127
2, 45080, Note_off_c, 1, 45, 0
2, 45080, Note_off_c, 1, 55, 0
2, 45080, Note_off_c, 1, 57, 0
2, 45080, Note_off_c, 1, 61, 0
2, 45080, Note_off_c, 1, 64, 0
2, 45080, Note_off_c, 1, 69, 0
2, 45120, Note_on_c, 1, 54, 127
2, 45120, Note_on_c, 1, 62, 127
2, 45120, Note_on_c, 1, 74, 127
2, 45360, Note_off_c, 1, 62, 0
2, 45360, Note_off_c, 1, 74, 0
2, 45400, Note_on_c, 1, 60, 127
2, 45400, Note_on_c, 1, 75, 127
2, 45600, Note_off_c, 1, 54, 0
2, 45600, Note_off_c, 1, 60, 0
2, 45600, Note_off_c, 1, 75, 0
2, 45640, Note_on_c, 1, 54, 127
2, 45640, Note_on_c, 1, 62, 127
2, 45640, Note_on_c, 1, 74, 127
2, 45880, Note_off_c, 1, 62, 0
2, 45880, Note_off_c, 1, 74, 0
2, 45920, Note_on_c, 1, 60, 127
2, 45920, Note_on_c, 1, 75, 127
2, 46160, Note_off_c, 1, 54, 0
2, 46160, Note_off_c, 1, 60, 0
2, 46160, Note_off_c, 1, 75, 0
2, 46200, Note_on_c, 1, 57, 127
2, 46200, Note_on_c, 1, 60, 127
2, 46200, Note_on_c, 1, 74, 127
2, 46440, Note_off_c, 1, 60, 0
2, 46480, Note_on_c, 1, 69, 127
2, 46720, Note_off_c, 1, 69, 0
2, 46720, Note_off_c, 1, 74, 0
2, 46760, Note_on_c, 1, 64, 127
2, 46760, Note_on_c, 1, 78, 127
2, 46840, Note_off_c, 1, 78, 0
2, 46880, Note_on_c, 1, 76, 127
2, 46960, Note_off_c, 1, 64, 0
2, 46960, Note_off_c, 1, 76, 0
2, 47000, Note_on_c, 1, 64, 127
2, 47000, Note_on_c, 1, 73, 127
2, 47000, Note_on_c, 1, 79, 127
2, 47080, Note_off_c, 1, 57, 0
2, 47080, Note_off_c, 1, 64, 0
2, 47080, Note_off_c, 1, 73, 0
2, 47080, Note_off_c, 1, 79, 0
2, 47120, Note_on_c, 1, 57, 127
2, 47120, Note_on_c, 1, 64, 127
2, 47120, Note_on_c, 1, 73, 127
2, 47120, Note_on_c, 1, 79, 127
2, 47280, Note_off_c, 1, 64, 0
2, 47280, Note_off_c, 1, 73, 0
2, 47280, Note_off_c, 1, 79, 0
2, 47320, Note_on_c, 1, 64, 127
2, 47320, Note_on_c, 1, 73, 127
2, 47320, Note_on_c, 1, 79, 127
2, 47560, Note_off_c, 1, 64, 0
2, 47560, Note_off_c, 1, 73, 0
2, 47560, Note_off_c, 1, 79, 0
2, 47600, Note_on_c, 1, 64, 127
2, 47600, Note_on_c, 1, 73, 127
2, 47600, Note_on_c, 1, 79, 127
2, 47840, Note_off_c, 1, 64, 0
2, 47840, Note_off_c, 1, 73, 0
2, 47840, Note_off_c, 1, 79, 0
2, 47880, Note_on_c, 1, 64, 127
2, 47880, Note_on_c, 1, 73, 127
2, 47880, Note_on_c, 1, 79, 127
2, 48120, Note_off_c, 1, 64, 0
2, 48120, Note_off_c, 1, 73, 0
2, 48120, Note_off_c, 1, 79, 0
2, 48160, Note_on_c, 1, 65, 127
2, 48160, Note_on_c, 1, 73, 127
2, 48160, Note_on_c, 1, 79, 127
2, 48200, Note_off_c, 1, 73, 0
2, 48200, Note_off_c, 1, 79, 0
2, 48200, Note_on_c, 1, 81, 127
2, 48400, Note_off_c, 1, 57, 0
2, 48400, Note_off_c, 1, 65, 0
2, 48400, Note_off_c, 1, 81, 0
2, 48440, Note_on_c, 1, 57, 127
2, 48440, Note_on_c, 1, 64, 127
2, 48440, Note_on_c, 1, 73, 127
2, 48440, Note_on_c, 1, 81, 127
2, 48640, Note_off_c, 1, 57, 0
2, 48640, Note_off_c, 1, 64, 0
2, 48640, Note_off_c, 1, 73, 0
2, 48640, Note_off_c, 1, 81, 0
2, 48680, Note_on_c, 1, 57, 127
2, 48680, Note_on_c, 1, 64, 127
2, 48680, Note_on_c, 1, 73, 127
2, 48680, Note_on_c, 1, 79, 127
2, 49440, Note_off_c, 1, 57, 0
2, 49440, Note_off_c, 1, 64, 0
2, 49440, Note_off_c, 1, 73, 0
2, 49440, Note_off_c, 1, 79, 0
2, 49480, Note_on_c, 1, 57, 127
2, 49480, Note_on_c, 1, 64, 127
2, 49480, Note_on_c, 1, 73, 127
2, 49480, Note_on_c, 1, 79, 127
2, 49520, Note_off_c, 1, 57, 0
2, 49520, Note_off_c, 1, 64, 0
2, 49520, Note_off_c, 1, 73, 0
2, 49520, Note_off_c, 1, 79, 0
2, 49560, Note_on_c, 1, 50, 127
2, 49560, Note_on_c, 1, 57, 127
2, 49560, Note_on_c, 1, 62, 127
2, 49560, Note_on_c, 1, 66, 127
2, 49760, Note_off_c, 1, 66, 0
2, 49800, Note_on_c, 1, 74, 127
2, 49920, Note_off_c, 1, 74, 0
2, 49960, Note_on_c, 1, 74, 127
2, 50040, Note_off_c, 1, 50, 0
2, 50040, Note_off_c, 1, 57, 0
2, 50040, Note_off_c, 1, 62, 0
2, 50040, Note_off_c, 1, 74, 0
2, 50080, Note_on_c, 1, 50, 127
2, 50080, Note_on_c, 1, 57, 127
2, 50080, Note_on_c, 1, 62, 127
2, 50080, Note_on_c, 1, 67, 127
2, 50080, Note_on_c, 1, 71, 127
2, 51160, Note_off_c, 1, 50, 0
2, 51160, Note_off_c, 1, 57, 0
2, 51160, Note_off_c, 1, 62, 0
2, 51160, Note_off_c, 1, 67, 0
2, 51160, Note_off_c, 1, 71, 0
2, 51200, Note_on_c, 1, 50, 127
2, 51200, Note_on_c, 1, 57, 127
2, 51200, Note_on_c, 1, 62, 127
2, 51200, Note_on_c, 1, 66, 127
2, 51200, Note_on_c, 1, 69, 127
2, 51440, Note_off_c, 1, 50, 0
2, 51440, Note_off_c, 1, 57, 0
2, 51440, Note_off_c, 1, 62, 0
2, 51440, Note_off_c, 1, 66, 0
2, 51440, Note_off_c, 1, 69, 0
2, 51480, Note_on_c, 1, 50, 127
2, 51480, Note_on_c, 1, 57, 127
2, 51480, Note_on_c, 1, 62, 127
2, 51480, Note_on_c, 1, 66, 127
2, 51480, Note_on_c, 1, 69, 127
2, 51720, Note_off_c, 1, 50, 0
2, 51720, Note_off_c, 1, 57, 0
2, 51720, Note_off_c, 1, 62, 0
2, 51720, Note_off_c, 1, 66, 0
2, 51720, Note_off_c, 1, 69, 0
2, 51760, Note_on_c, 1, 55, 127
2, 51760, Note_on_c, 1, 59, 127
2, 51760, Note_on_c, 1, 62, 127
2, 51760, Note_on_c, 1, 67, 127
2, 51760, Note_on_c, 1, 71, 127
2, 52280, Note_off_c, 1, 55, 0
2, 52280, Note_off_c, 1, 59, 0
2, 52280, Note_off_c, 1, 62, 0
2, 52280, Note_off_c, 1, 67, 0
2, 52280, Note_off_c, 1, 71, 0
2, 52320, Note_on_c, 1, 50, 127
2, 52320, Note_on_c, 1, 57, 127
2, 52320, Note_on_c, 1, 62, 127
2, 52320, Note_on_c, 1, 66, 127
2, 52320, Note_on_c, 1, 69, 127
2, 53480, Note_off_c, 1, 50, 0
2, 53480, Note_off_c, 1, 57, 0
2, 53480, Note_off_c, 1, 62, 0
2, 53480, Note_off_c, 1, 66, 0
2, 53480, Note_off_c, 1, 69, 0
2, 53520, Note_on_c, 1, 50, 127
2, 53520, Note_on_c, 1, 57, 127
2, 53520, Note_on_c, 1, 62, 127
2, 53520, Note_on_c, 1, 66, 127
2, 53520, Note_on_c, 1, 69, 127
2, 53920, Note_off_c, 1, 50, 0
2, 54480, Note_off_c, 1, 57, 0
2, 54480, Note_off_c, 1, 62, 0
2, 54480, Note_off_c, 1, 66, 0
2, 54480, Note_off_c, 1, 69, 0
2, 54520, Note_on_c, 1, 43, 127
2, 55040, Note_off_c, 1, 43, 0
2, 55080, Note_on_c, 1, 48, 127
2, 55560, Note_off_c, 1, 48, 0
2, 55640, Note_on_c, 1, 50, 127
2, 56160, Note_off_c, 1, 50, 0
2, 56200, Note_on_c, 1, 43, 127
2, 57080, Note_on_c, 1, 52, 127
2, 57400, Note_off_c, 1, 43, 0
2, 57400, Note_off_c, 1, 52, 0
2, 57440, Note_on_c, 1, 38, 127
2, 57640, Note_off_c, 1, 38, 0
2, 57680, Note_on_c, 1, 38, 127
2, 60080, Note_off_c, 1, 38, 0
2, 60160, Note_on_c, 1, 43, 127
2, 60720, Note_on_c, 1, 62, 127
2, 60920, Note_off_c, 1, 62, 0
2, 60960, Note_on_c, 1, 70, 127
2, 61160, Note_off_c, 1, 70, 0
2, 61800, Note_on_c, 1, 55, 127
2, 62800, Note_on_c, 1, 52, 127
2, 62800, Note_off_c, 1, 55, 0
2, 62840, Note_off_c, 1, 43, 0
2, 62840, Note_off_c, 1, 52, 0
2, 62880, Note_on_c, 1, 43, 127
2, 62880, Note_on_c, 1, 52, 127
2, 63080, Note_off_c, 1, 43, 0
2, 63080, Note_off_c, 1, 52, 0
2, 63120, Note_on_c, 1, 55, 127
2, 63880, Note_off_c, 1, 55, 0
2, 63920, Note_on_c, 1, 56, 127
2, 64960, Note_off_c, 1, 56, 0
2, 65000, Note_on_c, 1, 56, 127
2, 65040, Note_off_c, 1, 56, 0
2, 66160, Note_on_c, 1, 55, 127
2, 66160, Note_on_c, 1, 59, 127
2, 66160, Note_on_c, 1, 67, 127
2, 66160, Note_on_c, 1, 76, 127
2, 66360, Note_off_c, 1, 55, 0
2, 66360, Note_off_c, 1, 59, 0
2, 66360, Note_off_c, 1, 67, 0
2, 66360, Note_off_c, 1, 76, 0
2, 66400, Note_on_c, 1, 55, 127
2, 66400, Note_on_c, 1, 59, 127
2, 66400, Note_on_c, 1, 67, 127
2, 66400, Note_on_c, 1, 76, 127
2, 66640, Note_off_c, 1, 55, 0
2, 66640, Note_off_c, 1, 59, 0
2, 66640, Note_off_c, 1, 67, 0
2, 66640, Note_off_c, 1, 76, 0
2, 66680, Note_on_c, 1, 52, 127
2, 66680, Note_on_c, 1, 64, 127
2, 66680, Note_on_c, 1, 67, 127
2, 66680, Note_on_c, 1, 79, 127
2, 66880, Note_off_c, 1, 52, 0
2, 66880, Note_off_c, 1, 64, 0
2, 66880, Note_off_c, 1, 67, 0
2, 66880, Note_off_c, 1, 79, 0
2, 66920, Note_on_c, 1, 52, 127
2, 66920, Note_on_c, 1, 64, 127
2, 66920, Note_on_c, 1, 67, 127
2, 66920, Note_on_c, 1, 79, 127
2, 67120, Note_off_c, 1, 52, 0
2, 67120, Note_off_c, 1, 64, 0
2, 67120, Note_off_c, 1, 67, 0
2, 67120, Note_off_c, 1, 79, 0
2, 67160, Note_on_c, 1, 52, 127
2, 67160, Note_on_c, 1, 64, 127
2, 67160, Note_on_c, 1, 67, 127
2, 67160, Note_on_c, 1, 79, 127
2, 67360, Note_off_c, 1, 52, 0
2, 67360, Note_off_c, 1, 64, 0
2, 67360, Note_off_c, 1, 67, 0
2, 67360, Note_off_c, 1, 79, 0
2, 67400, Note_on_c, 1, 52, 127
2, 67400, Note_on_c, 1, 64, 127
2, 67400, Note_on_c, 1, 67, 127
2, 67400, Note_on_c, 1, 79, 127
2, 67560, Note_off_c, 1, 52, 0
2, 67560, Note_off_c, 1, 64, 0
2, 67560, Note_off_c, 1, 67, 0
2, 67560, Note_off_c, 1, 79, 0
2, 67600, Note_on_c, 1, 52, 127
2, 67600, Note_on_c, 1, 64, 127
2, 67600, Note_on_c, 1, 67, 127
2, 67600, Note_on_c, 1, 79, 127
2, 67640, Note_off_c, 1, 52, 0
2, 67640, Note_off_c, 1, 64, 0
2, 67640, Note_off_c, 1, 67, 0
2, 67640, Note_off_c, 1, 79, 0
2, 67680, Note_on_c, 1, 52, 127
2, 67680, Note_on_c, 1, 64, 127
2, 67680, Note_on_c, 1, 67, 127
2, 67680, Note_on_c, 1, 79, 127
2, 67800, Note_off_c, 1, 52, 0
2, 67800, Note_off_c, 1, 64, 0
2, 67800, Note_off_c, 1, 67, 0
2, 67800, Note_off_c, 1, 79, 0
2, 67840, Note_on_c, 1, 52, 127
2, 67840, Note_on_c, 1, 64, 127
2, 67840, Note_on_c, 1, 67, 127
2, 67840, Note_on_c, 1, 79, 127
2, 67880, Note_off_c, 1, 52, 0
2, 67880, Note_off_c, 1, 64, 0
2, 67880, Note_off_c, 1, 67, 0
2, 67880, Note_off_c, 1, 79, 0
2, 67920, Note_on_c, 1, 52, 127
2, 67920, Note_on_c, 1, 64, 127
2, 67920, Note_on_c, 1, 67, 127
2, 67920, Note_on_c, 1, 79, 127
2, 68040, Note_off_c, 1, 52, 0
2, 68040, Note_off_c, 1, 64, 0
2, 68040, Note_off_c, 1, 67, 0
2, 68040, Note_off_c, 1, 79, 0
2, 68080, Note_on_c, 1, 52, 127
2, 68080, Note_on_c, 1, 64, 127
2, 68080, Note_on_c, 1, 67, 127
2, 68080, Note_on_c, 1, 79, 127
2, 68120, Note_off_c, 1, 52, 0
2, 68120, Note_off_c, 1, 64, 0
2, 68120, Note_off_c, 1, 67, 0
2, 68120, Note_off_c, 1, 79, 0
2, 68160, Note_on_c, 1, 52, 127
2, 68160, Note_on_c, 1, 64, 127
2, 68160, Note_on_c, 1, 67, 127
2, 68160, Note_on_c, 1, 79, 127
2, 68280, Note_off_c, 1, 52, 0
2, 68280, Note_off_c, 1, 64, 0
2, 68280, Note_off_c, 1, 67, 0
2, 68280, Note_off_c, 1, 79, 0
2, 68320, Note_on_c, 1, 52, 127
2, 68320, Note_on_c, 1, 64, 127
2, 68320, Note_on_c, 1, 67, 127
2, 68320, Note_on_c, 1, 79, 127
2, 68360, Note_off_c, 1, 52, 0
2, 68360, Note_off_c, 1, 64, 0
2, 68360, Note_off_c, 1, 67, 0
2, 68360, Note_off_c, 1, 79, 0
2, 68400, Note_on_c, 1, 52, 127
2, 68400, Note_on_c, 1, 64, 127
2, 68400, Note_on_c, 1, 67, 127
2, 68400, Note_on_c, 1, 79, 127
2, 68480, Note_off_c, 1, 52, 0
2, 68480, Note_off_c, 1, 64, 0
2, 68480, Note_off_c, 1, 67, 0
2, 68480, Note_off_c, 1, 79, 0
2, 68520, Note_on_c, 1, 52, 127
2, 68520, Note_on_c, 1, 64, 127
2, 68520, Note_on_c, 1, 67, 127
2, 68520, Note_on_c, 1, 79, 127
2, 68600, Note_off_c, 1, 52, 0
2, 68600, Note_off_c, 1, 64, 0
2, 68600, Note_off_c, 1, 67, 0
2, 68600, Note_off_c, 1, 79, 0
2, 68640, Note_on_c, 1, 52, 127
2, 68640, Note_on_c, 1, 64, 127
2, 68640, Note_on_c, 1, 67, 127
2, 68640, Note_on_c, 1, 79, 127
2, 68760, Note_off_c, 1, 52, 0
2, 68760, Note_off_c, 1, 64, 0
2, 68760, Note_off_c, 1, 67, 0
2, 68760, Note_off_c, 1, 79, 0
2, 68840, Note_on_c, 1, 52, 127
2, 68840, Note_on_c, 1, 64, 127
2, 68840, Note_on_c, 1, 67, 127
2, 68840, Note_on_c, 1, 79, 127
2, 68920, Note_off_c, 1, 52, 0
2, 68920, Note_off_c, 1, 64, 0
2, 68920, Note_off_c, 1, 67, 0
2, 68920, Note_off_c, 1, 79, 0
2, 68960, Note_on_c, 1, 52, 127
2, 68960, Note_on_c, 1, 64, 127
2, 68960, Note_on_c, 1, 67, 127
2, 68960, Note_on_c, 1, 79, 127
2, 69000, Note_off_c, 1, 52, 0
2, 69000, Note_off_c, 1, 64, 0
2, 69000, Note_off_c, 1, 67, 0
2, 69000, Note_off_c, 1, 79, 0
2, 69080, Note_on_c, 1, 52, 127
2, 69080, Note_on_c, 1, 64, 127
2, 69080, Note_on_c, 1, 67, 127
2, 69080, Note_on_c, 1, 79, 127
2, 69160, Note_off_c, 1, 52, 0
2, 69160, Note_off_c, 1, 64, 0
2, 69160, Note_off_c, 1, 67, 0
2, 69160, Note_off_c, 1, 79, 0
2, 69200, Note_on_c, 1, 52, 127
2, 69200, Note_on_c, 1, 64, 127
2, 69200, Note_on_c, 1, 67, 127
2, 69200, Note_on_c, 1, 79, 127
2, 69280, Note_off_c, 1, 52, 0
2, 69280, Note_off_c, 1, 64, 0
2, 69280, Note_off_c, 1, 67, 0
2, 69280, Note_off_c, 1, 79, 0
2, 69360, Note_on_c, 1, 52, 127
2, 69360, Note_on_c, 1, 64, 127
2, 69360, Note_on_c, 1, 67, 127
2, 69360, Note_on_c, 1, 79, 127
2, 69440, Note_off_c, 1, 52, 0
2, 69440, Note_off_c, 1, 64, 0
2, 69440, Note_off_c, 1, 67, 0
2, 69440, Note_off_c, 1, 79, 0
2, 69480, Note_on_c, 1, 52, 127
2, 69480, Note_on_c, 1, 64, 127
2, 69480, Note_on_c, 1, 67, 127
2, 69480, Note_on_c, 1, 79, 127
2, 69560, Note_off_c, 1, 52, 0
2, 69560, Note_off_c, 1, 64, 0
2, 69560, Note_off_c, 1, 67, 0
2, 69560, Note_off_c, 1, 79, 0
2, 69600, Note_on_c, 1, 52, 127
2, 69600, Note_on_c, 1, 64, 127
2, 69600, Note_on_c, 1, 67, 127
2, 69600, Note_on_c, 1, 79, 127
2, 69680, Note_off_c, 1, 52, 0
2, 69680, Note_off_c, 1, 64, 0
2, 69680, Note_off_c, 1, 67, 0
2, 69680, Note_off_c, 1, 79, 0
2, 69720, Note_on_c, 1, 52, 127
2, 69720, Note_on_c, 1, 64, 127
2, 69720, Note_on_c, 1, 67, 127
2, 69720, Note_on_c, 1, 79, 127
2, 69800, Note_off_c, 1, 52, 0
2, 69800, Note_off_c, 1, 64, 0
2, 69800, Note_off_c, 1, 67, 0
2, 69800, Note_off_c, 1, 79, 0
2, 69840, Note_on_c, 1, 52, 127
2, 69840, Note_on_c, 1, 64, 127
2, 69840, Note_on_c, 1, 67, 127
2, 69840, Note_on_c, 1, 79, 127
2, 69880, Note_off_c, 1, 52, 0
2, 69880, Note_off_c, 1, 64, 0
2, 69880, Note_off_c, 1, 67, 0
2, 69880, Note_off_c, 1, 79, 0
2, 69960, Note_on_c, 1, 52, 127
2, 69960, Note_on_c, 1, 64, 127
2, 69960, Note_on_c, 1, 67, 127
2, 69960, Note_on_c, 1, 79, 127
2, 70000, Note_off_c, 1, 52, 0
2, 70000, Note_off_c, 1, 64, 0
2, 70000, Note_off_c, 1, 67, 0
2, 70000, Note_off_c, 1, 79, 0
2, 70040, Note_on_c, 1, 52, 127
2, 70040, Note_on_c, 1, 64, 127
2, 70040, Note_on_c, 1, 67, 127
2, 70040, Note_on_c, 1, 79, 127
2, 70080, Note_off_c, 1, 52, 0
2, 70080, Note_off_c, 1, 64, 0
2, 70080, Note_off_c, 1, 67, 0
2, 70080, Note_off_c, 1, 79, 0
2, 70120, Note_on_c, 1, 52, 127
2, 70120, Note_on_c, 1, 64, 127
2, 70120, Note_on_c, 1, 67, 127
2, 70120, Note_on_c, 1, 79, 127
2, 70200, Note_off_c, 1, 52, 0
2, 70200, Note_off_c, 1, 64, 0
2, 70200, Note_off_c, 1, 67, 0
2, 70200, Note_off_c, 1, 79, 0
2, 70240, Note_on_c, 1, 52, 127
2, 70240, Note_on_c, 1, 64, 127
2, 70240, Note_on_c, 1, 67, 127
2, 70240, Note_on_c, 1, 79, 127
2, 70320, Note_off_c, 1, 52, 0
2, 70320, Note_off_c, 1, 64, 0
2, 70320, Note_off_c, 1, 67, 0
2, 70320, Note_off_c, 1, 79, 0
2, 70360, Note_on_c, 1, 52, 127
2, 70360, Note_on_c, 1, 64, 127
2, 70360, Note_on_c, 1, 67, 127
2, 70360, Note_on_c, 1, 79, 127
2, 70440, Note_off_c, 1, 52, 0
2, 70440, Note_off_c, 1, 64, 0
2, 70440, Note_off_c, 1, 67, 0
2, 70440, Note_off_c, 1, 79, 0
2, 70480, Note_on_c, 1, 52, 127
2, 70480, Note_on_c, 1, 64, 127
2, 70480, Note_on_c, 1, 67, 127
2, 70480, Note_on_c, 1, 79, 127
2, 70560, Note_off_c, 1, 52, 0
2, 70560, Note_off_c, 1, 64, 0
2, 70560, Note_off_c, 1, 67, 0
2, 70560, Note_off_c, 1, 79, 0
2, 70600, Note_on_c, 1, 52, 127
2, 70600, Note_on_c, 1, 64, 127
2, 70600, Note_on_c, 1, 67, 127
2, 70600, Note_on_c, 1, 79, 127
2, 70680, Note_off_c, 1, 52, 0
2, 70680, Note_off_c, 1, 64, 0
2, 70680, Note_off_c, 1, 67, 0
2, 70680, Note_off_c, 1, 79, 0
2, 70720, Note_on_c, 1, 52, 127
2, 70720, Note_on_c, 1, 64, 127
2, 70720, Note_on_c, 1, 67, 127
2, 70720, Note_on_c, 1, 79, 127
2, 70800, Note_off_c, 1, 52, 0
2, 70800, Note_off_c, 1, 64, 0
2, 70800, Note_off_c, 1, 67, 0
2, 70800, Note_off_c, 1, 79, 0
2, 70840, Note_on_c, 1, 52, 127
2, 70840, Note_on_c, 1, 64, 127
2, 70840, Note_on_c, 1, 67, 127
2, 70840, Note_on_c, 1, 79, 127
2, 70920, Note_off_c, 1, 52, 0
2, 70920, Note_off_c, 1, 64, 0
2, 70920, Note_off_c, 1, 67, 0
2, 70920, Note_off_c, 1, 79, 0
2, 70960, Note_on_c, 1, 52, 127
2, 70960, Note_on_c, 1, 64, 127
2, 70960, Note_on_c, 1, 67, 127
2, 70960, Note_on_c, 1, 79, 127
2, 71040, Note_off_c, 1, 52, 0
2, 71040, Note_off_c, 1, 64, 0
2, 71040, Note_off_c, 1, 67, 0
2, 71040, Note_off_c, 1, 79, 0
2, 71080, Note_on_c, 1, 52, 127
2, 71080, Note_on_c, 1, 64, 127
2, 71080, Note_on_c, 1, 67, 127
2, 71080, Note_on_c, 1, 79, 127
2, 71160, Note_off_c, 1, 52, 0
2, 71160, Note_off_c, 1, 64, 0
2, 71160, Note_off_c, 1, 67, 0
2, 71160, Note_off_c, 1, 79, 0
2, 71240, Note_on_c, 1, 52, 127
2, 71240, Note_on_c, 1, 64, 127
2, 71240, Note_on_c, 1, 67, 127
2, 71240, Note_on_c, 1, 79, 127
2, 71280, Note_off_c, 1, 52, 0
2, 71280, Note_off_c, 1, 64, 0
2, 71280, Note_off_c, 1, 67, 0
2, 71280, Note_off_c, 1, 79, 0
2, 71320, Note_on_c, 1, 52, 127
2, 71320, Note_on_c, 1, 64, 127
2, 71320, Note_on_c, 1, 67, 127
2, 71320, Note_on_c, 1, 79, 127
2, 71400, Note_off_c, 1, 52, 0
2, 71400, Note_off_c, 1, 64, 0
2, 71400, Note_off_c, 1, 67, 0
2, 71400, Note_off_c, 1, 79, 0
2, 71440, Note_on_c, 1, 52, 127
2, 71440, Note_on_c, 1, 64, 127
2, 71440, Note_on_c, 1, 67, 127
2, 71440, Note_on_c, 1, 79, 127
2, 71520, Note_off_c, 1, 52, 0
2, 71520, Note_off_c, 1, 64, 0
2, 71520, Note_off_c, 1, 67, 0
2, 71520, Note_off_c, 1, 79, 0
2, 71560, Note_on_c, 1, 47, 127
2, 71560, Note_on_c, 1, 59, 127
2, 71560, Note_on_c, 1, 67, 127
2, 71560, Note_on_c, 1, 79, 127
2, 71600, Note_off_c, 1, 47, 0
2, 71600, Note_on_c, 1, 52, 127
2, 71600, Note_off_c, 1, 59, 0
2, 71600, Note_on_c, 1, 64, 127
2, 71640, Note_off_c, 1, 52, 0
2, 71640, Note_off_c, 1, 64, 0
2, 71640, Note_off_c, 1, 67, 0
2, 71640, Note_off_c, 1, 79, 0
2, 71680, Note_on_c, 1, 52, 127
2, 71680, Note_on_c, 1, 64, 127
2, 71680, Note_on_c, 1, 67, 127
2, 71680, Note_on_c, 1, 79, 127
2, 71760, Note_off_c, 1, 52, 0
2, 71760, Note_off_c, 1, 64, 0
2, 71760, Note_off_c, 1, 67, 0
2, 71760, Note_off_c, 1, 79, 0
2, 71800, Note_on_c, 1, 52, 127
2, 71800, Note_on_c, 1, 64, 127
2, 71800, Note_on_c, 1, 67, 127
2, 71800, Note_on_c, 1, 79, 127
2, 71880, Note_off_c, 1, 52, 0
2, 71880, Note_off_c, 1, 64, 0
2, 71880, Note_off_c, 1, 67, 0
2, 71880, Note_off_c, 1, 79, 0
2, 71920, Note_on_c, 1, 52, 127
2, 71920, Note_on_c, 1, 64, 127
2, 71920, Note_on_c, 1, 67, 127
2, 71920, Note_on_c, 1, 79, 127
2, 72000, Note_off_c, 1, 52, 0
2, 72000, Note_off_c, 1, 64, 0
2, 72000, Note_off_c, 1, 67, 0
2, 72000, Note_off_c, 1, 79, 0
2, 72040, Note_on_c, 1, 52, 127
2, 72040, Note_on_c, 1, 64, 127
2, 72040, Note_on_c, 1, 67, 127
2, 72040, Note_on_c, 1, 79, 127
2, 72120, Note_off_c, 1, 52, 0
2, 72120, Note_off_c, 1, 64, 0
2, 72120, Note_off_c, 1, 67, 0
2, 72120, Note_off_c, 1, 79, 0
2, 72160, Note_on_c, 1, 52, 127
2, 72160, Note_on_c, 1, 64, 127
2, 72160, Note_on_c, 1, 67, 127
2, 72160, Note_on_c, 1, 79, 127
2, 72240, Note_off_c, 1, 52, 0
2, 72240, Note_off_c, 1, 64, 0
2, 72240, Note_off_c, 1, 67, 0
2, 72240, Note_off_c, 1, 79, 0
2, 72280, Note_on_c, 1, 52, 127
2, 72280, Note_on_c, 1, 64, 127
2, 72280, Note_on_c, 1, 67, 127
2, 72280, Note_on_c, 1, 79, 127
2, 72360, Note_off_c, 1, 52, 0
2, 72360, Note_off_c, 1, 64, 0
2, 72360, Note_off_c, 1, 67, 0
2, 72360, Note_off_c, 1, 79, 0
2, 72400, Note_on_c, 1, 52, 127
2, 72400, Note_on_c, 1, 64, 127
2, 72400, Note_on_c, 1, 67, 127
2, 72400, Note_on_c, 1, 79, 127
2, 72480, Note_off_c, 1, 52, 0
2, 72480, Note_off_c, 1, 64, 0
2, 72480, Note_off_c, 1, 67, 0
2, 72480, Note_off_c, 1, 79, 0
2, 72520, Note_on_c, 1, 52, 127
2, 72520, Note_on_c, 1, 64, 127
2, 72520, Note_on_c, 1, 67, 127
2, 72520, Note_on_c, 1, 79, 127
2, 72600, Note_off_c, 1, 52, 0
2, 72600, Note_off_c, 1, 64, 0
2, 72600, Note_off_c, 1, 67, 0
2, 72600, Note_off_c, 1, 79, 0
2, 72640, Note_on_c, 1, 52, 127
2, 72640, Note_on_c, 1, 64, 127
2, 72640, Note_on_c, 1, 67, 127
2, 72640, Note_on_c, 1, 79, 127
2, 72720, Note_off_c, 1, 52, 0
2, 72720, Note_off_c, 1, 64, 0
2, 72720, Note_off_c, 1, 67, 0
2, 72720, Note_off_c, 1, 79, 0
2, 72760, Note_on_c, 1, 52, 127
2, 72760, Note_on_c, 1, 64, 127
2, 72760, Note_on_c, 1, 67, 127
2, 72760, Note_on_c, 1, 79, 127
2, 72840, Note_off_c, 1, 52, 0
2, 72840, Note_off_c, 1, 64, 0
2, 72840, Note_off_c, 1, 67, 0
2, 72840, Note_off_c, 1, 79, 0
2, 72880, Note_on_c, 1, 50, 127
2, 72880, Note_on_c, 1, 62, 127
2, 72880, Note_on_c, 1, 65, 127
2, 72880, Note_on_c, 1, 77, 127
2, 72960, Note_off_c, 1, 50, 0
2, 72960, Note_off_c, 1, 62, 0
2, 72960, Note_off_c, 1, 65, 0
2, 72960, Note_off_c, 1, 77, 0
2, 73000, Note_on_c, 1, 50, 127
2, 73000, Note_on_c, 1, 62, 127
2, 73000, Note_on_c, 1, 65, 127
2, 73000, Note_on_c, 1, 77, 127
2, 73080, Note_off_c, 1, 50, 0
2, 73080, Note_off_c, 1, 62, 0
2, 73080, Note_off_c, 1, 65, 0
2, 73080, Note_off_c, 1, 77, 0
2, 73120, Note_on_c, 1, 50, 127
2, 73120, Note_on_c, 1, 62, 127
2, 73120, Note_on_c, 1, 65, 127
2, 73120, Note_on_c, 1, 77, 127
2, 73200, Note_off_c, 1, 50, 0
2, 73200, Note_off_c, 1, 62, 0
2, 73200, Note_off_c, 1, 65, 0
2, 73200, Note_off_c, 1, 77, 0
2, 73240, Note_on_c, 1, 50, 127
2, 73240, Note_on_c, 1, 62, 127
2, 73240, Note_on_c, 1, 65, 127
2, 73240, Note_on_c, 1, 77, 127
2, 73320, Note_off_c, 1, 50, 0
2, 73320, Note_off_c, 1, 62, 0
2, 73320, Note_off_c, 1, 65, 0
2, 73320, Note_off_c, 1, 77, 0
2, 73360, Note_on_c, 1, 50, 127
2, 73360, Note_on_c, 1, 62, 127
2, 73360, Note_on_c, 1, 65, 127
2, 73360, Note_on_c, 1, 77, 127
2, 73440, Note_off_c, 1, 50, 0
2, 73440, Note_off_c, 1, 62, 0
2, 73440, Note_off_c, 1, 65, 0
2, 73440, Note_off_c, 1, 77, 0
2, 73480, Note_on_c, 1, 50, 127
2, 73480, Note_on_c, 1, 62, 127
2, 73480, Note_on_c, 1, 65, 127
2, 73480, Note_on_c, 1, 77, 127
2, 73520, Note_off_c, 1, 50, 0
2, 73520, Note_off_c, 1, 62, 0
2, 73520, Note_off_c, 1, 65, 0
2, 73520, Note_off_c, 1, 77, 0
2, 73560, Note_on_c, 1, 50, 127
2, 73560, Note_on_c, 1, 62, 127
2, 73560, Note_on_c, 1, 65, 127
2, 73560, Note_on_c, 1, 77, 127
2, 73640, Note_off_c, 1, 50, 0
2, 73640, Note_off_c, 1, 62, 0
2, 73640, Note_off_c, 1, 65, 0
2, 73640, Note_off_c, 1, 77, 0
2, 73680, Note_on_c, 1, 50, 127
2, 73680, Note_on_c, 1, 62, 127
2, 73680, Note_on_c, 1, 65, 127
2, 73680, Note_on_c, 1, 77, 127
2, 73760, Note_off_c, 1, 50, 0
2, 73760, Note_off_c, 1, 62, 0
2, 73760, Note_off_c, 1, 65, 0
2, 73760, Note_off_c, 1, 77, 0
2, 73800, Note_on_c, 1, 50, 127
2, 73800, Note_on_c, 1, 62, 127
2, 73800, Note_on_c, 1, 65, 127
2, 73800, Note_on_c, 1, 77, 127
2, 73880, Note_off_c, 1, 50, 0
2, 73880, Note_off_c, 1, 62, 0
2, 73880, Note_off_c, 1, 65, 0
2, 73880, Note_off_c, 1, 77, 0
2, 73920, Note_on_c, 1, 50, 127
2, 73920, Note_on_c, 1, 62, 127
2, 73920, Note_on_c, 1, 65, 127
2, 73920, Note_on_c, 1, 77, 127
2, 73960, Note_off_c, 1, 50, 0
2, 73960, Note_off_c, 1, 62, 0
2, 73960, Note_off_c, 1, 65, 0
2, 73960, Note_off_c, 1, 77, 0
2, 74000, Note_on_c, 1, 50, 127
2, 74000, Note_on_c, 1, 62, 127
2, 74000, Note_on_c, 1, 65, 127
2, 74000, Note_on_c, 1, 77, 127
2, 74080, Note_off_c, 1, 50, 0
2, 74080, Note_off_c, 1, 62, 0
2, 74080, Note_off_c, 1, 65, 0
2, 74080, Note_off_c, 1, 77, 0
2, 74120, Note_on_c, 1, 50, 127
2, 74120, Note_on_c, 1, 62, 127
2, 74120, Note_on_c, 1, 65, 127
2, 74120, Note_on_c, 1, 77, 127
2, 74200, Note_off_c, 1, 50, 0
2, 74200, Note_off_c, 1, 62, 0
2, 74200, Note_off_c, 1, 65, 0
2, 74200, Note_off_c, 1, 77, 0
2, 74240, Note_on_c, 1, 50, 127
2, 74240, Note_on_c, 1, 62, 127
2, 74240, Note_on_c, 1, 65, 127
2, 74240, Note_on_c, 1, 77, 127
2, 74320, Note_off_c, 1, 50, 0
2, 74320, Note_off_c, 1, 62, 0
2, 74320, Note_off_c, 1, 65, 0
2, 74320, Note_off_c, 1, 77, 0
2, 74360, Note_on_c, 1, 50, 127
2, 74360, Note_on_c, 1, 62, 127
2, 74360, Note_on_c, 1, 65, 127
2, 74360, Note_on_c, 1, 77, 127
2, 74400, Note_off_c, 1, 50, 0
2, 74400, Note_off_c, 1, 62, 0
2, 74400, Note_off_c, 1, 65, 0
2, 74400, Note_off_c, 1, 77, 0
2, 74440, Note_on_c, 1, 50, 127
2, 74440, Note_on_c, 1, 62, 127
2, 74440, Note_on_c, 1, 65, 127
2, 74440, Note_on_c, 1, 77, 127
2, 74520, Note_off_c, 1, 50, 0
2, 74520, Note_off_c, 1, 62, 0
2, 74520, Note_off_c, 1, 65, 0
2, 74520, Note_off_c, 1, 77, 0
2, 74560, Note_on_c, 1, 50, 127
2, 74560, Note_on_c, 1, 62, 127
2, 74560, Note_on_c, 1, 65, 127
2, 74560, Note_on_c, 1, 77, 127
2, 74640, Note_off_c, 1, 50, 0
2, 74640, Note_off_c, 1, 62, 0
2, 74640, Note_off_c, 1, 65, 0
2, 74640, Note_off_c, 1, 77, 0
2, 74680, Note_on_c, 1, 50, 127
2, 74680, Note_on_c, 1, 62, 127
2, 74680, Note_on_c, 1, 65, 127
2, 74680, Note_on_c, 1, 77, 127
2, 74720, Note_off_c, 1, 50, 0
2, 74720, Note_on_c, 1, 55, 127
2, 74720, Note_on_c, 1, 58, 127
2, 74720, Note_off_c, 1, 65, 0
2, 74720, Note_on_c, 1, 67, 127
2, 74720, Note_on_c, 1, 70, 127
2, 74720, Note_off_c, 1, 77, 0
2, 74760, Note_off_c, 1, 55, 0
2, 74760, Note_off_c, 1, 58, 0
2, 74760, Note_off_c, 1, 62, 0
2, 74760, Note_off_c, 1, 67, 0
2, 74760, Note_off_c, 1, 70, 0
2, 74800, Note_on_c, 1, 50, 127
2, 74800, Note_on_c, 1, 62, 127
2, 74800, Note_on_c, 1, 65, 127
2, 74800, Note_on_c, 1, 77, 127
2, 74880, Note_off_c, 1, 50, 0
2, 74880, Note_off_c, 1, 62, 0
2, 74880, Note_off_c, 1, 65, 0
2, 74880, Note_off_c, 1, 77, 0
2, 74920, Note_on_c, 1, 50, 127
2, 74920, Note_on_c, 1, 62, 127
2, 74920, Note_on_c, 1, 65, 127
2, 74920, Note_on_c, 1, 77, 127
2, 74960, Note_off_c, 1, 50, 0
2, 74960, Note_off_c, 1, 62, 0
2, 74960, Note_off_c, 1, 65, 0
2, 74960, Note_off_c, 1, 77, 0
2, 75000, Note_on_c, 1, 50, 127
2, 75000, Note_on_c, 1, 62, 127
2, 75000, Note_on_c, 1, 65, 127
2, 75000, Note_on_c, 1, 77, 127
2, 75080, Note_off_c, 1, 50, 0
2, 75080, Note_off_c, 1, 62, 0
2, 75080, Note_off_c, 1, 65, 0
2, 75080, Note_off_c, 1, 77, 0
2, 75120, Note_on_c, 1, 50, 127
2, 75120, Note_on_c, 1, 62, 127
2, 75120, Note_on_c, 1, 65, 127
2, 75120, Note_on_c, 1, 77, 127
2, 75200, Note_off_c, 1, 50, 0
2, 75200, Note_off_c, 1, 62, 0
2, 75200, Note_off_c, 1, 65, 0
2, 75200, Note_off_c, 1, 77, 0
2, 75240, Note_on_c, 1, 50, 127
2, 75240, Note_on_c, 1, 62, 127
2, 75240, Note_on_c, 1, 65, 127
2, 75240, Note_on_c, 1, 77, 127
2, 75320, Note_off_c, 1, 50, 0
2, 75320, Note_off_c, 1, 62, 0
2, 75320, Note_off_c, 1, 65, 0
2, 75320, Note_off_c, 1, 77, 0
2, 75360, Note_on_c, 1, 50, 127
2, 75360, Note_on_c, 1, 62, 127
2, 75360, Note_on_c, 1, 65, 127
2, 75360, Note_on_c, 1, 77, 127
2, 75440, Note_off_c, 1, 50, 0
2, 75440, Note_off_c, 1, 62, 0
2, 75440, Note_off_c, 1, 65, 0
2, 75440, Note_off_c, 1, 77, 0
2, 75480, Note_on_c, 1, 50, 127
2, 75480, Note_on_c, 1, 62, 127
2, 75480, Note_on_c, 1, 65, 127
2, 75480, Note_on_c, 1, 77, 127
2, 75520, Note_off_c, 1, 50, 0
2, 75520, Note_off_c, 1, 62, 0
2, 75520, Note_off_c, 1, 65, 0
2, 75520, Note_off_c, 1, 77, 0
2, 75560, Note_on_c, 1, 50, 127
2, 75560, Note_on_c, 1, 54, 127
2, 75560, Note_on_c, 1, 62, 127
2, 75560, Note_on_c, 1, 66, 127
2, 75640, Note_off_c, 1, 50, 0
2, 75640, Note_off_c, 1, 54, 0
2, 75640, Note_off_c, 1, 62, 0
2, 75640, Note_off_c, 1, 66, 0
2, 75720, Note_on_c, 1, 46, 127
2, 75720, Note_on_c, 1, 58, 127
2, 75720, Note_on_c, 1, 62, 127
2, 75720, Note_on_c, 1, 74, 127
2, 75800, Note_off_c, 1, 46, 0
2, 75800, Note_off_c, 1, 58, 0
2, 75800, Note_off_c, 1, 62, 0
2, 75800, Note_off_c, 1, 74, 0
2, 75840, Note_on_c, 1, 50, 127
2, 75840, Note_on_c, 1, 62, 127
2, 75840, Note_on_c, 1, 84, 127
2, 75920, Note_off_c, 1, 50, 0
2, 75920, Note_off_c, 1, 62, 0
2, 75920, Note_off_c, 1, 84, 0
2, 75960, Note_on_c, 1, 52, 127
2, 75960, Note_on_c, 1, 64, 127
2, 75960, Note_on_c, 1, 86, 127
2, 76040, Note_off_c, 1, 52, 0
2, 76040, Note_off_c, 1, 64, 0
2, 76040, Note_off_c, 1, 86, 0
2, 76080, Note_on_c, 1, 50, 127
2, 76080, Note_on_c, 1, 62, 127
2, 76080, Note_on_c, 1, 84, 127
2, 76120, Note_off_c, 1, 50, 0
2, 76120, Note_off_c, 1, 62, 0
2, 76120, Note_off_c, 1, 84, 0
2, 76200, Note_on_c, 1, 66, 127
2, 76200, Note_on_c, 1, 78, 127
2, 76200, Note_on_c, 1, 93, 127
2, 76240, Note_off_c, 1, 66, 0
2, 76240, Note_off_c, 1, 78, 0
2, 76240, Note_off_c, 1, 93, 0
2, 76280, Note_on_c, 1, 63, 127
2, 76280, Note_on_c, 1, 65, 127
2, 76280, Note_on_c, 1, 75, 127
2, 76280, Note_on_c, 1, 77, 127
2, 76360, Note_off_c, 1, 63, 0
2, 76360, Note_off_c, 1, 65, 0
2, 76360, Note_off_c, 1, 75, 0
2, 76360, Note_off_c, 1, 77, 0
2, 76440, Note_on_c, 1, 43, 127
2, 76440, Note_on_c, 1, 55, 127
2, 76440, Note_on_c, 1, 71, 127
2, 76440, Note_on_c, 1, 77, 127
2, 76440, Note_on_c, 1, 83, 127
2, 76480, Note_off_c, 1, 43, 0
2, 76480, Note_off_c, 1, 55, 0
2, 76480, Note_off_c, 1, 71, 0
2, 76480, Note_off_c, 1, 77, 0
2, 76480, Note_off_c, 1, 83, 0
2, 76520, Note_on_c, 1, 43, 127
2, 76520, Note_on_c, 1, 55, 127
2, 76520, Note_on_c, 1, 71, 127
2, 76520, Note_on_c, 1, 77, 127
2, 76520, Note_on_c, 1, 83, 127
2, 76640, Note_off_c, 1, 43, 0
2, 76640, Note_off_c, 1, 55, 0
2, 76640, Note_off_c, 1, 71, 0
2, 76640, Note_off_c, 1, 77, 0
2, 76640, Note_off_c, 1, 83, 0
2, 76680, Note_on_c, 1, 48, 127
2, 76680, Note_on_c, 1, 52, 127
2, 76680, Note_on_c, 1, 60, 127
2, 76680, Note_on_c, 1, 64, 127
2, 76680, Note_on_c, 1, 72, 127
2, 76680, Note_on_c, 1, 76, 127
2, 76720, Note_on_c, 1, 47, 127
2, 76720, Note_off_c, 1, 48, 0
2, 76720, Note_on_c, 1, 59, 127
2, 76720, Note_off_c, 1, 60, 0
2, 76720, Note_on_c, 1, 71, 127
2, 76720, Note_off_c, 1, 72, 0
2, 76760, Note_off_c, 1, 47, 0
2, 76760, Note_on_c, 1, 48, 127
2, 76760, Note_off_c, 1, 59, 0
2, 76760, Note_on_c, 1, 60, 127
2, 76760, Note_off_c, 1, 71, 0
2, 76760, Note_on_c, 1, 72, 127
2, 76880, Note_off_c, 1, 48, 0
2, 76880, Note_off_c, 1, 52, 0
2, 76880, Note_off_c, 1, 60, 0
2, 76880, Note_off_c, 1, 64, 0
2, 76880, Note_off_c, 1, 72, 0
2, 76880, Note_off_c, 1, 76, 0
2, 76920, Note_on_c, 1, 48, 127
2, 76920, Note_on_c, 1, 52, 127
2, 76920, Note_on_c, 1, 60, 127
2, 76920, Note_on_c, 1, 64, 127
2, 76920, Note_on_c, 1, 72, 127
2, 76920, Note_on_c, 1, 76, 127
2, 76960, Note_on_c, 1, 47, 127
2, 76960, Note_off_c, 1, 48, 0
2, 76960, Note_on_c, 1, 59, 127
2, 76960, Note_off_c, 1, 60, 0
2, 76960, Note_on_c, 1, 71, 127
2, 76960, Note_off_c, 1, 72, 0
2, 77000, Note_off_c, 1, 47, 0
2, 77000, Note_on_c, 1, 48, 127
2, 77000, Note_off_c, 1, 59, 0
2, 77000, Note_on_c, 1, 60, 127
2, 77000, Note_off_c, 1, 71, 0
2, 77000, Note_on_c, 1, 72, 127
2, 77120, Note_off_c, 1, 48, 0
2, 77120, Note_off_c, 1, 52, 0
2, 77120, Note_off_c, 1, 60, 0
2, 77120, Note_off_c, 1, 64, 0
2, 77120, Note_off_c, 1, 72, 0
2, 77120, Note_off_c, 1, 76, 0
2, 77160, Note_on_c, 1, 48, 127
2, 77160, Note_on_c, 1, 52, 127
2, 77160, Note_on_c, 1, 60, 127
2, 77160, Note_on_c, 1, 64, 127
2, 77160, Note_on_c, 1, 72, 127
2, 77160, Note_on_c, 1, 76, 127
2, 77360, Note_off_c, 1, 48, 0
2, 77360, Note_off_c, 1, 52, 0
2, 77360, Note_off_c, 1, 60, 0
2, 77360, Note_off_c, 1, 64, 0
2, 77360, Note_off_c, 1, 72, 0
2, 77360, Note_off_c, 1, 76, 0
2, 77400, Note_on_c, 1, 48, 127
2, 77400, Note_on_c, 1, 52, 127
2, 77400, Note_on_c, 1, 60, 127
2, 77400, Note_on_c, 1, 64, 127
2, 77400, Note_on_c, 1, 72, 127
2, 77400, Note_on_c, 1, 76, 127
2, 77600, Note_off_c, 1, 48, 0
2, 77600, Note_off_c, 1, 52, 0
2, 77600, Note_off_c, 1, 60, 0
2, 77600, Note_off_c, 1, 64, 0
2, 77600, Note_off_c, 1, 72, 0
2, 77600, Note_off_c, 1, 76, 0
2, 77640, Note_on_c, 1, 38, 127
2, 77640, Note_on_c, 1, 50, 127
2, 77640, Note_on_c, 1, 59, 127
2, 77640, Note_on_c, 1, 62, 127
2, 77640, Note_on_c, 1, 67, 127
2, 77640, Note_on_c, 1, 71, 127
2, 77760, Note_off_c, 1, 38, 0
2, 77760, Note_off_c, 1, 50, 0
2, 77760, Note_off_c, 1, 59, 0
2, 77760, Note_off_c, 1, 62, 0
2, 77760, Note_off_c, 1, 67, 0
2, 77760, Note_off_c, 1, 71, 0
2, 77840, Note_on_c, 1, 39, 127
2, 77840, Note_on_c, 1, 44, 127
2, 77840, Note_on_c, 1, 56, 127
2, 77840, Note_on_c, 1, 77, 127
2, 77840, Note_on_c, 1, 80, 127
2, 77840, Note_on_c, 1, 87, 127
2, 77840, Note_on_c, 1, 89, 127
2, 77880, Note_off_c, 1, 39, 0
2, 77880, Note_off_c, 1, 44, 0
2, 77880, Note_off_c, 1, 56, 0
2, 77880, Note_off_c, 1, 77, 0
2, 77880, Note_off_c, 1, 80, 0
2, 77880, Note_off_c, 1, 87, 0
2, 77880, Note_off_c, 1, 89, 0
2, 77920, Note_on_c, 1, 50, 127
2, 77920, Note_on_c, 1, 69, 127
2, 77920, Note_on_c, 1, 75, 127
2, 78000, Note_off_c, 1, 50, 0
2, 78000, Note_off_c, 1, 69, 0
2, 78000, Note_off_c, 1, 75, 0
2, 78040, Note_on_c, 1, 53, 127
2, 78040, Note_on_c, 1, 57, 127
2, 78040, Note_on_c, 1, 62, 127
2, 78040, Note_on_c, 1, 65, 127
2, 78040, Note_on_c, 1, 69, 127
2, 78040, Note_on_c, 1, 74, 127
2, 78120, Note_off_c, 1, 53, 0
2, 78120, Note_off_c, 1, 57, 0
2, 78120, Note_off_c, 1, 62, 0
2, 78120, Note_off_c, 1, 65, 0
2, 78120, Note_off_c, 1, 69, 0
2, 78120, Note_off_c, 1, 74, 0
2, 78160, Note_on_c, 1, 43, 127
2, 78160, Note_on_c, 1, 55, 127
2, 78160, Note_on_c, 1, 74, 127
2, 78160, Note_on_c, 1, 79, 127
2, 78160, Note_on_c, 1, 82, 127
2, 78160, Note_on_c, 1, 86, 127
2, 78280, Note_off_c, 1, 43, 0
2, 78280, Note_off_c, 1, 55, 0
2, 78280, Note_off_c, 1, 74, 0
2, 78280, Note_off_c, 1, 79, 0
2, 78280, Note_off_c, 1, 82, 0
2, 78280, Note_off_c, 1, 86, 0
2, 78320, Note_on_c, 1, 43, 127
2, 78320, Note_on_c, 1, 55, 127
2, 78320, Note_on_c, 1, 74, 127
2, 78320, Note_on_c, 1, 79, 127
2, 78320, Note_on_c, 1, 82, 127
2, 78320, Note_on_c, 1, 86, 127
2, 78360, Note_off_c, 1, 43, 0
2, 78360, Note_off_c, 1, 55, 0
2, 78360, Note_off_c, 1, 74, 0
2, 78360, Note_off_c, 1, 79, 0
2, 78360, Note_off_c, 1, 82, 0
2, 78360, Note_off_c, 1, 86, 0
2, 78400, Note_on_c, 1, 43, 127
2, 78400, Note_on_c, 1, 55, 127
2, 78400, Note_on_c, 1, 74, 127
2, 78400, Note_on_c, 1, 79, 127
2, 78400, Note_on_c, 1, 82, 127
2, 78400, Note_on_c, 1, 86, 127
2, 78480, Note_off_c, 1, 43, 0
2, 78480, Note_off_c, 1, 55, 0
2, 78480, Note_off_c, 1, 74, 0
2, 78480, Note_off_c, 1, 79, 0
2, 78480, Note_off_c, 1, 82, 0
2, 78480, Note_off_c, 1, 86, 0
2, 78520, Note_on_c, 1, 43, 127
2, 78520, Note_on_c, 1, 55, 127
2, 78520, Note_on_c, 1, 59, 127
2, 78520, Note_on_c, 1, 67, 127
2, 78520, Note_on_c, 1, 71, 127
2, 78600, Note_off_c, 1, 43, 0
2, 78600, Note_off_c, 1, 55, 0
2, 78600, Note_off_c, 1, 59, 0
2, 78600, Note_off_c, 1, 67, 0
2, 78600, Note_off_c, 1, 71, 0
2, 78640, Note_on_c, 1, 43, 127
2, 78640, Note_on_c, 1, 55, 127
2, 78640, Note_on_c, 1, 59, 127
2, 78640, Note_on_c, 1, 67, 127
2, 78640, Note_on_c, 1, 71, 127
2, 78840, Note_off_c, 1, 43, 0
2, 78840, Note_off_c, 1, 55, 0
2, 78840, Note_off_c, 1, 59, 0
2, 78840, Note_off_c, 1, 67, 0
2, 78840, Note_off_c, 1, 71, 0
2, 78880, Note_on_c, 1, 43, 127
2, 78880, Note_on_c, 1, 55, 127
2, 78880, Note_on_c, 1, 59, 127
2, 78880, Note_on_c, 1, 67, 127
2, 78880, Note_on_c, 1, 71, 127
2, 79080, Note_off_c, 1, 43, 0
2, 79080, Note_off_c, 1, 55, 0
2, 79080, Note_off_c, 1, 59, 0
2, 79080, Note_off_c, 1, 67, 0
2, 79080, Note_off_c, 1, 71, 0
2, 79120, Note_on_c, 1, 33, 127
2, 79120, Note_on_c, 1, 62, 127
2, 79120, Note_on_c, 1, 86, 127
2, 79160, Note_off_c, 1, 33, 0
2, 79160, Note_on_c, 1, 43, 127
2, 79160, Note_on_c, 1, 50, 127
2, 79160, Note_off_c, 1, 62, 0
2, 79160, Note_on_c, 1, 67, 127
2, 79160, Note_on_c, 1, 71, 127
2, 79160, Note_on_c, 1, 79, 127
2, 79160, Note_off_c, 1, 86, 0
2, 79240, Note_off_c, 1, 43, 0
2, 79240, Note_off_c, 1, 50, 0
2, 79240, Note_off_c, 1, 67, 0
2, 79240, Note_off_c, 1, 71, 0
2, 79240, Note_off_c, 1, 79, 0
2, 79280, Note_on_c, 1, 43, 127
2, 79280, Note_on_c, 1, 50, 127
2, 79280, Note_on_c, 1, 67, 127
2, 79280, Note_on_c, 1, 71, 127
2, 79280, Note_on_c, 1, 79, 127
2, 79600, Note_off_c, 1, 43, 0
2, 79600, Note_off_c, 1, 50, 0
2, 79600, Note_off_c, 1, 67, 0
2, 79600, Note_off_c, 1, 71, 0
2, 79600, Note_off_c, 1, 79, 0
2, 79680, Note_on_c, 1, 58, 127
2, 79680, Note_on_c, 1, 66, 127
2, 79680, Note_on_c, 1, 70, 127
2, 79680, Note_on_c, 1, 82, 127
2, 79680, Note_on_c, 1, 90, 127
2, 79680, Note_on_c, 1, 94, 127
2, 80120, Note_off_c, 1, 58, 0
2, 80120, Note_off_c, 1, 66, 0
2, 80120, Note_off_c, 1, 70, 0
2, 80120, Note_off_c, 1, 82, 0
2, 80120, Note_off_c, 1, 90, 0
2, 80120, Note_off_c, 1, 94, 0
2, 80160, Note_on_c, 1, 58, 127
2, 80160, Note_on_c, 1, 66, 127
2, 80160, Note_on_c, 1, 70, 127
2, 80160, Note_on_c, 1, 82, 127
2, 80160, Note_on_c, 1, 90, 127
2, 80160, Note_on_c, 1, 94, 127
2, 80840, Note_off_c, 1, 58, 0
2, 80840, Note_off_c, 1, 66, 0
2, 80840, Note_off_c, 1, 70, 0
2, 80840, Note_off_c, 1, 82, 0
2, 80840, Note_off_c, 1, 90, 0
2, 80840, Note_off_c, 1, 94, 0
2, 88160, Note_on_c, 1, 45, 127
2, 88160, Note_on_c, 1, 69, 127
2, 88240, Note_off_c, 1, 45, 0
2, 88280, Note_on_c, 1, 49, 127
2, 88360, Note_off_c, 1, 49, 0
2, 88360, Note_off_c, 1, 69, 0
2, 88400, Note_on_c, 1, 52, 127
2, 88680, Note_on_c, 1, 71, 127
2, 88760, Note_off_c, 1, 71, 0
2, 88800, Note_on_c, 1, 68, 127
2, 88880, Note_off_c, 1, 52, 0
2, 88880, Note_on_c, 1, 61, 127
2, 88880, Note_off_c, 1, 68, 0
2, 88920, Note_on_c, 1, 69, 127
2, 89000, Note_off_c, 1, 69, 0
2, 89040, Note_on_c, 1, 76, 127
2, 89160, Note_off_c, 1, 61, 0
2, 89160, Note_off_c, 1, 76, 0
2, 89200, Note_on_c, 1, 54, 127
2, 89200, Note_on_c, 1, 69, 127
2, 89280, Note_off_c, 1, 69, 0
2, 89320, Note_on_c, 1, 73, 127
2, 89400, Note_off_c, 1, 54, 0
2, 89400, Note_off_c, 1, 73, 0
2, 89440, Note_on_c, 1, 47, 127
2, 89560, Note_off_c, 1, 47, 0
2, 89600, Note_on_c, 1, 52, 127
2, 89600, Note_on_c, 1, 68, 127
2, 89680, Note_off_c, 1, 52, 0
2, 89680, Note_off_c, 1, 68, 0
2, 89720, Note_on_c, 1, 56, 127
2, 89720, Note_on_c, 1, 71, 127
2, 89800, Note_off_c, 1, 56, 0
2, 89800, Note_off_c, 1, 71, 0
2, 89840, Note_on_c, 1, 61, 127
2, 89840, Note_on_c, 1, 76, 127
2, 89960, Note_off_c, 1, 61, 0
2, 89960, Note_off_c, 1, 76, 0
2, 90000, Note_on_c, 1, 57, 127
2, 90000, Note_on_c, 1, 80, 127
2, 90080, Note_off_c, 1, 57, 0
2, 90080, Note_off_c, 1, 80, 0
2, 90120, Note_on_c, 1, 62, 127
2, 90120, Note_on_c, 1, 78, 127
2, 90240, Note_off_c, 1, 62, 0
2, 90240, Note_off_c, 1, 78, 0
2, 90280, Note_on_c, 1, 61, 127
2, 90280, Note_on_c, 1, 76, 127
2, 90360, Note_off_c, 1, 61, 0
2, 90360, Note_off_c, 1, 76, 0
2, 90400, Note_on_c, 1, 59, 127
2, 90520, Note_off_c, 1, 59, 0
2, 90560, Note_on_c, 1, 59, 127
2, 90720, Note_on_c, 1, 76, 127
2, 90800, Note_off_c, 1, 76, 0
2, 90840, Note_on_c, 1, 74, 127
2, 91000, Note_off_c, 1, 59, 0
2, 91000, Note_off_c, 1, 74, 0
2, 91040, Note_on_c, 1, 56, 127
2, 91040, Note_on_c, 1, 71, 127
2, 91160, Note_off_c, 1, 56, 0
2, 91160, Note_off_c, 1, 71, 0
2, 91200, Note_on_c, 1, 52, 127
2, 91200, Note_on_c, 1, 71, 127
2, 91280, Note_off_c, 1, 52, 0
2, 91280, Note_off_c, 1, 71, 0
2, 91320, Note_on_c, 1, 56, 127
2, 91320, Note_on_c, 1, 71, 127
2, 91440, Note_off_c, 1, 56, 0
2, 91440, Note_off_c, 1, 71, 0
2, 91480, Note_on_c, 1, 52, 127
2, 91480, Note_on_c, 1, 76, 127
2, 91560, Note_off_c, 1, 52, 0
2, 91560, Note_off_c, 1, 76, 0
2, 91600, Note_on_c, 1, 51, 127
2, 91600, Note_on_c, 1, 78, 127
2, 91720, Note_off_c, 1, 51, 0
2, 91720, Note_off_c, 1, 78, 0
2, 91760, Note_on_c, 1, 52, 127
2, 91880, Note_on_c, 1, 76, 127
2, 91960, Note_off_c, 1, 76, 0
2, 92000, Note_on_c, 1, 68, 127
2, 92120, Note_off_c, 1, 52, 0
2, 92120, Note_off_c, 1, 68, 0
2, 92160, Note_on_c, 1, 52, 127
2, 92160, Note_on_c, 1, 71, 127
2, 92240, Note_off_c, 1, 71, 0
2, 92280, Note_on_c, 1, 68, 127
2, 92400, Note_off_c, 1, 68, 0
2, 92440, Note_off_c, 1, 52, 0
2, 92480, Note_on_c, 1, 52, 127
2, 92480, Note_on_c, 1, 64, 127
2, 92560, Note_off_c, 1, 52, 0
2, 92560, Note_off_c, 1, 64, 0
2, 92600, Note_on_c, 1, 57, 127
2, 92600, Note_on_c, 1, 61, 127
2, 92680, Note_on_c, 1, 54, 127
2, 92680, Note_off_c, 1, 57, 0
2, 92680, Note_off_c, 1, 61, 0
2, 92720, Note_off_c, 1, 54, 0
2, 92720, Note_on_c, 1, 57, 127
2, 92720, Note_on_c, 1, 61, 127
2, 92840, Note_off_c, 1, 57, 0
2, 92840, Note_off_c, 1, 61, 0
2, 92880, Note_on_c, 1, 49, 127
2, 92880, Note_on_c, 1, 68, 127
2, 92960, Note_off_c, 1, 49, 0
2, 92960, Note_off_c, 1, 68, 0
2, 93000, Note_on_c, 1, 52, 127
2, 93000, Note_on_c, 1, 68, 127
2, 93120, Note_off_c, 1, 52, 0
2, 93120, Note_off_c, 1, 68, 0
2, 93160, Note_on_c, 1, 56, 127
2, 93160, Note_on_c, 1, 71, 127
2, 93240, Note_off_c, 1, 56, 0
2, 93280, Note_on_c, 1, 52, 127
2, 93400, Note_off_c, 1, 52, 0
2, 93400, Note_off_c, 1, 71, 0
2, 93440, Note_on_c, 1, 59, 127
2, 93440, Note_on_c, 1, 71, 127
2, 93520, Note_off_c, 1, 59, 0
2, 93560, Note_on_c, 1, 64, 127
2, 93640, Note_off_c, 1, 64, 0
2, 93680, Note_on_c, 1, 56, 127
2, 93800, Note_off_c, 1, 56, 0
2, 93840, Note_on_c, 1, 64, 127
2, 93920, Note_off_c, 1, 64, 0
2, 93960, Note_on_c, 1, 56, 127
2, 94040, Note_off_c, 1, 56, 0
2, 94080, Note_on_c, 1, 64, 127
2, 94200, Note_off_c, 1, 64, 0
2, 94200, Note_off_c, 1, 71, 0
2, 94240, Note_on_c, 1, 59, 127
2, 94240, Note_on_c, 1, 80, 127
2, 94320, Note_off_c, 1, 59, 0
2, 94360, Note_on_c, 1, 64, 127
2, 94360, Note_on_c, 1, 69, 127
2, 94360, Note_off_c, 1, 80, 0
2, 94440, Note_off_c, 1, 64, 0
2, 94440, Note_off_c, 1, 69, 0
2, 94480, Note_on_c, 1, 64, 127
2, 94480, Note_on_c, 1, 69, 127
2, 94520, Note_off_c, 1, 64, 0
2, 94520, Note_off_c, 1, 69, 0
2, 94560, Note_on_c, 1, 59, 127
2, 94560, Note_on_c, 1, 80, 127
2, 94640, Note_off_c, 1, 59, 0
2, 94680, Note_on_c, 1, 64, 127
2, 94760, Note_off_c, 1, 64, 0
2, 94800, Note_on_c, 1, 59, 127
2, 94920, Note_off_c, 1, 59, 0
2, 94920, Note_off_c, 1, 80, 0
2, 94960, Note_on_c, 1, 81, 127
2, 95080, Note_on_c, 1, 59, 127
2, 95160, Note_off_c, 1, 59, 0
2, 95200, Note_on_c, 1, 64, 127
2, 95200, Note_on_c, 1, 80, 127
2, 95200, Note_off_c, 1, 81, 0
2, 95320, Note_off_c, 1, 64, 0
2, 95320, Note_off_c, 1, 80, 0
2, 95360, Note_on_c, 1, 52, 127
2, 95360, Note_on_c, 1, 78, 127
2, 95440, Note_off_c, 1, 52, 0
2, 95480, Note_on_c, 1, 61, 127
2, 95480, Note_on_c, 1, 76, 127
2, 95480, Note_off_c, 1, 78, 0
2, 95560, Note_off_c, 1, 61, 0
2, 95600, Note_on_c, 1, 59, 127
2, 95720, Note_off_c, 1, 59, 0
2, 95720, Note_off_c, 1, 76, 0
2, 95760, Note_on_c, 1, 64, 127
2, 95760, Note_on_c, 1, 74, 127
2, 95840, Note_off_c, 1, 64, 0
2, 95880, Note_on_c, 1, 56, 127
2, 95960, Note_off_c, 1, 56, 0
2, 96000, Note_on_c, 1, 59, 127
2, 96120, Note_off_c, 1, 59, 0
2, 96120, Note_off_c, 1, 74, 0
2, 96160, Note_on_c, 1, 52, 127
2, 96240, Note_off_c, 1, 52, 0
2, 96280, Note_on_c, 1, 62, 127
2, 96280, Note_on_c, 1, 76, 127
2, 96360, Note_off_c, 1, 62, 0
2, 96400, Note_on_c, 1, 57, 127
2, 96520, Note_off_c, 1, 57, 0
2, 96520, Note_off_c, 1, 76, 0
2, 96600, Note_on_c, 1, 57, 127
2, 96600, Note_on_c, 1, 74, 127
2, 96680, Note_off_c, 1, 57, 0
2, 96720, Note_on_c, 1, 57, 127
2, 96800, Note_off_c, 1, 57, 0
2, 96840, Note_on_c, 1, 52, 127
2, 96960, Note_off_c, 1, 52, 0
2, 97000, Note_on_c, 1, 57, 127
2, 97000, Note_off_c, 1, 74, 0
2, 97000, Note_on_c, 1, 76, 127
2, 97080, Note_off_c, 1, 57, 0
2, 97080, Note_off_c, 1, 76, 0
2, 97120, Note_on_c, 1, 69, 127
2, 97120, Note_on_c, 1, 85, 127
2, 97200, Note_off_c, 1, 69, 0
2, 97240, Note_on_c, 1, 57, 127
2, 97360, Note_off_c, 1, 57, 0
2, 97360, Note_off_c, 1, 85, 0
2, 97400, Note_on_c, 1, 54, 127
2, 97400, Note_on_c, 1, 83, 127
2, 97480, Note_off_c, 1, 54, 0
2, 97520, Note_on_c, 1, 57, 127
2, 97600, Note_off_c, 1, 57, 0
2, 97640, Note_on_c, 1, 54, 127
2, 97720, Note_off_c, 1, 54, 0
2, 97760, Note_on_c, 1, 57, 127
2, 97880, Note_off_c, 1, 57, 0
2, 97920, Note_on_c, 1, 47, 127
2, 98000, Note_off_c, 1, 47, 0
2, 98040, Note_on_c, 1, 54, 127
2, 98120, Note_off_c, 1, 54, 0
2, 98160, Note_on_c, 1, 57, 127
2, 98280, Note_off_c, 1, 57, 0
2, 98280, Note_off_c, 1, 83, 0
2, 98320, Note_on_c, 1, 52, 127
2, 98320, Note_on_c, 1, 81, 127
2, 98400, Note_off_c, 1, 52, 0
2, 98440, Note_on_c, 1, 59, 127
2, 98520, Note_off_c, 1, 59, 0
2, 98520, Note_off_c, 1, 81, 0
2, 98600, Note_on_c, 1, 52, 127
2, 98600, Note_on_c, 1, 81, 127
2, 98720, Note_off_c, 1, 52, 0
2, 98760, Note_on_c, 1, 59, 127
2, 98840, Note_off_c, 1, 59, 0
2, 98840, Note_off_c, 1, 81, 0
2, 98880, Note_on_c, 1, 54, 127
2, 98880, Note_on_c, 1, 78, 127
2, 98880, Note_on_c, 1, 80, 127
2, 98920, Note_off_c, 1, 78, 0
2, 98960, Note_off_c, 1, 54, 0
2, 98960, Note_on_c, 1, 78, 127
2, 98960, Note_off_c, 1, 80, 0
2, 99000, Note_on_c, 1, 64, 127
2, 99120, Note_off_c, 1, 64, 0
2, 99120, Note_off_c, 1, 78, 0
2, 99160, Note_on_c, 1, 59, 127
2, 99160, Note_on_c, 1, 76, 127
2, 99240, Note_off_c, 1, 59, 0
2, 99280, Note_on_c, 1, 68, 127
2, 99360, Note_off_c, 1, 68, 0
2, 99360, Note_off_c, 1, 76, 0
2, 99400, Note_on_c, 1, 59, 127
2, 99400, Note_on_c, 1, 76, 127
2, 99520, Note_off_c, 1, 59, 0
2, 99520, Note_off_c, 1, 76, 0
2, 99560, Note_on_c, 1, 68, 127
2, 99560, Note_on_c, 1, 71, 127
2, 99640, Note_off_c, 1, 68, 0
2, 99640, Note_off_c, 1, 71, 0
2, 99680, Note_on_c, 1, 57, 127
2, 99680, Note_on_c, 1, 73, 127
2, 99760, Note_off_c, 1, 57, 0
2, 99800, Note_on_c, 1, 69, 127
2, 99920, Note_off_c, 1, 69, 0
2, 99960, Note_on_c, 1, 64, 127
2, 100040, Note_off_c, 1, 64, 0
2, 100080, Note_on_c, 1, 69, 127
2, 100160, Note_off_c, 1, 69, 0
2, 100160, Note_off_c, 1, 73, 0
2, 100200, Note_on_c, 1, 61, 127
2, 100200, Note_on_c, 1, 76, 127
2, 100320, Note_off_c, 1, 61, 0
2, 100360, Note_on_c, 1, 59, 127
2, 100440, Note_off_c, 1, 59, 0
2, 100440, Note_off_c, 1, 76, 0
2, 100480, Note_on_c, 1, 52, 127
2, 100760, Note_off_c, 1, 52, 0
2, 100800, Note_on_c, 1, 45, 127
2, 100800, Note_on_c, 1, 57, 127
2, 100800, Note_on_c, 1, 69, 127
2, 100800, Note_on_c, 1, 73, 127
2, 101000, Note_off_c, 1, 69, 0
2, 101000, Note_off_c, 1, 73, 0
2, 101040, Note_on_c, 1, 69, 127
2, 101040, Note_on_c, 1, 73, 127
2, 101160, Note_off_c, 1, 69, 0
2, 101160, Note_off_c, 1, 73, 0
2, 101200, Note_on_c, 1, 73, 127
2, 101280, Note_off_c, 1, 45, 0
2, 101280, Note_off_c, 1, 57, 0
2, 101280, Note_off_c, 1, 73, 0
2, 101320, Note_on_c, 1, 61, 127
2, 101320, Note_on_c, 1, 69, 127
2, 101400, Note_off_c, 1, 69, 0
2, 101440, Note_off_c, 1, 61, 0
2, 101440, Note_on_c, 1, 64, 127
2, 101440, Note_on_c, 1, 73, 127
2, 101560, Note_off_c, 1, 64, 0
2, 101560, Note_off_c, 1, 73, 0
2, 101600, Note_on_c, 1, 52, 127
2, 101600, Note_on_c, 1, 71, 127
2, 101680, Note_off_c, 1, 71, 0
2, 101720, Note_on_c, 1, 76, 127
2, 101800, Note_off_c, 1, 52, 0
2, 101840, Note_on_c, 1, 57, 127
2, 101920, Note_off_c, 1, 57, 0
2, 101960, Note_on_c, 1, 61, 127
2, 102080, Note_off_c, 1, 61, 0
2, 102080, Note_off_c, 1, 76, 0
2, 102120, Note_on_c, 1, 57, 127
2, 102120, Note_on_c, 1, 76, 127
2, 102200, Note_off_c, 1, 57, 0
2, 102240, Note_on_c, 1, 61, 127
2, 102320, Note_off_c, 1, 61, 0
2, 102360, Note_on_c, 1, 57, 127
2, 102480, Note_off_c, 1, 57, 0
2, 102480, Note_off_c, 1, 76, 0
2, 102520, Note_on_c, 1, 61, 127
2, 102520, Note_on_c, 1, 76, 127
2, 102600, Note_off_c, 1, 61, 0
2, 102600, Note_off_c, 1, 76, 0
2, 102640, Note_on_c, 1, 57, 127
2, 102640, Note_on_c, 1, 88, 127
2, 102720, Note_off_c, 1, 57, 0
2, 102760, Note_on_c, 1, 61, 127
2, 102880, Note_off_c, 1, 61, 0
2, 102920, Note_off_c, 1, 88, 0
2, 102960, Note_on_c, 1, 64, 127
2, 102960, Note_on_c, 1, 86, 127
2, 103040, Note_off_c, 1, 64, 0
2, 103040, Note_off_c, 1, 86, 0
2, 103080, Note_on_c, 1, 69, 127
2, 103080, Note_on_c, 1, 85, 127
2, 103160, Note_off_c, 1, 69, 0
2, 103160, Note_off_c, 1, 85, 0
2, 103160, Note_on_c, 1, 88, 127
2, 103200, Note_on_c, 1, 57, 127
2, 103200, Note_on_c, 1, 85, 127
2, 103200, Note_off_c, 1, 88, 0
2, 103320, Note_off_c, 1, 57, 0
2, 103320, Note_off_c, 1, 85, 0
2, 103360, Note_on_c, 1, 64, 127
2, 103360, Note_on_c, 1, 85, 127
2, 103440, Note_off_c, 1, 64, 0
2, 103440, Note_off_c, 1, 85, 0
2, 103480, Note_on_c, 1, 62, 127
2, 103480, Note_on_c, 1, 83, 127
2, 103560, Note_off_c, 1, 62, 0
2, 103600, Note_on_c, 1, 64, 127
2, 103600, Note_on_c, 1, 81, 127
2, 103600, Note_off_c, 1, 83, 0
2, 103680, Note_off_c, 1, 64, 0
2, 103680, Note_off_c, 1, 81, 0
2, 103720, Note_on_c, 1, 57, 127
2, 103720, Note_on_c, 1, 85, 127
2, 103840, Note_off_c, 1, 57, 0
2, 103840, Note_off_c, 1, 85, 0
2, 103880, Note_on_c, 1, 64, 127
2, 103880, Note_on_c, 1, 85, 127
2, 103960, Note_off_c, 1, 64, 0
2, 103960, Note_off_c, 1, 85, 0
2, 104000, Note_on_c, 1, 57, 127
2, 104000, Note_on_c, 1, 85, 127
2, 104080, Note_off_c, 1, 57, 0
2, 104080, Note_off_c, 1, 85, 0
2, 104120, Note_on_c, 1, 62, 127
2, 104120, Note_on_c, 1, 83, 127
2, 104200, Note_off_c, 1, 83, 0
2, 104240, Note_off_c, 1, 62, 0
2, 104280, Note_on_c, 1, 57, 127
2, 104280, Note_on_c, 1, 81, 127
2, 104360, Note_off_c, 1, 57, 0
2, 104360, Note_off_c, 1, 81, 0
2, 104400, Note_on_c, 1, 62, 127
2, 104400, Note_on_c, 1, 78, 127
2, 104480, Note_off_c, 1, 62, 0
2, 104480, Note_off_c, 1, 78, 0
2, 104520, Note_on_c, 1, 57, 127
2, 104520, Note_on_c, 1, 85, 127
2, 104640, Note_off_c, 1, 57, 0
2, 104640, Note_off_c, 1, 85, 0
2, 104680, Note_on_c, 1, 62, 127
2, 104680, Note_on_c, 1, 83, 127
2, 104760, Note_off_c, 1, 62, 0
2, 104760, Note_off_c, 1, 83, 0
2, 104800, Note_on_c, 1, 57, 127
2, 104800, Note_on_c, 1, 88, 127
2, 104880, Note_off_c, 1, 57, 0
2, 104880, Note_off_c, 1, 88, 0
2, 104920, Note_on_c, 1, 61, 127
2, 104960, Note_off_c, 1, 61, 0
2, 105000, Note_on_c, 1, 61, 127
2, 105080, Note_off_c, 1, 61, 0
2, 105120, Note_on_c, 1, 57, 127
2, 105120, Note_on_c, 1, 85, 127
2, 105200, Note_off_c, 1, 57, 0
2, 105240, Note_on_c, 1, 63, 127
2, 105320, Note_off_c, 1, 63, 0
2, 105320, Note_off_c, 1, 85, 0
2, 105360, Note_on_c, 1, 57, 127
2, 105360, Note_on_c, 1, 85, 127
2, 105440, Note_off_c, 1, 57, 0
2, 105480, Note_on_c, 1, 61, 127
2, 105600, Note_off_c, 1, 61, 0
2, 105640, Note_on_c, 1, 57, 127
2, 105720, Note_off_c, 1, 57, 0
2, 105760, Note_on_c, 1, 61, 127
2, 105840, Note_off_c, 1, 61, 0
2, 105840, Note_off_c, 1, 85, 0
2, 105880, Note_on_c, 1, 57, 127
2, 105880, Note_on_c, 1, 85, 127
2, 106000, Note_off_c, 1, 57, 0
2, 106040, Note_on_c, 1, 64, 127
2, 106120, Note_off_c, 1, 64, 0
2, 106120, Note_off_c, 1, 85, 0
2, 106160, Note_on_c, 1, 62, 127
2, 106160, Note_on_c, 1, 86, 127
2, 106240, Note_off_c, 1, 62, 0
2, 106280, Note_on_c, 1, 66, 127
2, 106280, Note_on_c, 1, 83, 127
2, 106280, Note_off_c, 1, 86, 0
2, 106360, Note_off_c, 1, 66, 0
2, 106360, Note_off_c, 1, 83, 0
2, 106400, Note_on_c, 1, 64, 127
2, 106400, Note_on_c, 1, 84, 127
2, 106520, Note_off_c, 1, 64, 0
2, 106520, Note_off_c, 1, 84, 0
2, 106560, Note_on_c, 1, 73, 127
2, 106560, Note_on_c, 1, 82, 127
2, 106600, Note_off_c, 1, 82, 0
2, 106600, Note_on_c, 1, 83, 127
2, 106640, Note_off_c, 1, 73, 0
2, 106640, Note_off_c, 1, 83, 0
2, 106680, Note_on_c, 1, 57, 127
2, 106680, Note_on_c, 1, 79, 127
2, 106760, Note_off_c, 1, 57, 0
2, 106800, Note_on_c, 1, 61, 127
2, 106880, Note_off_c, 1, 61, 0
2, 106920, Note_on_c, 1, 55, 127
2, 107040, Note_off_c, 1, 55, 0
2, 107040, Note_off_c, 1, 79, 0
2, 107080, Note_on_c, 1, 79, 127
2, 107120, Note_on_c, 1, 61, 127
2, 107200, Note_off_c, 1, 61, 0
2, 107200, Note_off_c, 1, 79, 0
2, 107240, Note_on_c, 1, 54, 127
2, 107320, Note_off_c, 1, 54, 0
2, 107360, Note_on_c, 1, 62, 127
2, 107360, Note_on_c, 1, 86, 127
2, 107480, Note_off_c, 1, 62, 0
2, 107480, Note_off_c, 1, 86, 0
2, 107520, Note_on_c, 1, 59, 127
2, 107520, Note_on_c, 1, 86, 127
2, 107600, Note_off_c, 1, 59, 0
2, 107600, Note_off_c, 1, 86, 0
2, 107640, Note_on_c, 1, 62, 127
2, 107640, Note_on_c, 1, 85, 127
2, 107720, Note_off_c, 1, 62, 0
2, 107720, Note_off_c, 1, 85, 0
2, 107760, Note_on_c, 1, 59, 127
2, 107760, Note_on_c, 1, 83, 127
2, 107880, Note_off_c, 1, 59, 0
2, 107880, Note_off_c, 1, 83, 0
2, 107920, Note_on_c, 1, 57, 127
2, 107920, Note_on_c, 1, 81, 127
2, 108000, Note_off_c, 1, 57, 0
2, 108000, Note_off_c, 1, 81, 0
2, 108040, Note_on_c, 1, 61, 127
2, 108040, Note_on_c, 1, 78, 127
2, 108120, Note_off_c, 1, 61, 0
2, 108120, Note_off_c, 1, 78, 0
2, 108160, Note_on_c, 1, 57, 127
2, 108160, Note_on_c, 1, 78, 127
2, 108280, Note_off_c, 1, 57, 0
2, 108280, Note_off_c, 1, 78, 0
2, 108320, Note_on_c, 1, 52, 127
2, 108320, Note_on_c, 1, 79, 127
2, 108400, Note_off_c, 1, 52, 0
2, 108400, Note_off_c, 1, 79, 0
2, 108440, Note_on_c, 1, 62, 127
2, 108440, Note_on_c, 1, 78, 127
2, 108520, Note_off_c, 1, 62, 0
2, 108520, Note_off_c, 1, 78, 0
2, 108560, Note_on_c, 1, 61, 127
2, 108560, Note_on_c, 1, 76, 127
2, 108680, Note_off_c, 1, 61, 0
2, 108680, Note_off_c, 1, 76, 0
2, 108720, Note_on_c, 1, 57, 127
2, 108720, Note_on_c, 1, 74, 127
2, 108800, Note_off_c, 1, 57, 0
2, 108800, Note_off_c, 1, 74, 0
2, 108840, Note_on_c, 1, 61, 127
2, 108840, Note_on_c, 1, 81, 127
2, 108960, Note_off_c, 1, 61, 0
2, 108960, Note_off_c, 1, 81, 0
2, 109040, Note_on_c, 1, 57, 127
2, 109040, Note_on_c, 1, 79, 127
2, 109120, Note_off_c, 1, 57, 0
2, 109120, Note_off_c, 1, 79, 0
2, 109160, Note_on_c, 1, 50, 127
2, 109160, Note_on_c, 1, 76, 127
2, 109240, Note_off_c, 1, 50, 0
2, 109240, Note_off_c, 1, 76, 0
2, 109280, Note_on_c, 1, 57, 127
2, 109280, Note_on_c, 1, 74, 127
2, 109400, Note_off_c, 1, 57, 0
2, 109400, Note_off_c, 1, 74, 0
2, 109440, Note_on_c, 1, 54, 127
2, 109440, Note_on_c, 1, 81, 127
2, 109520, Note_off_c, 1, 54, 0
2, 109520, Note_off_c, 1, 81, 0
2, 109560, Note_on_c, 1, 62, 127
2, 109560, Note_on_c, 1, 82, 127
2, 109640, Note_off_c, 1, 62, 0
2, 109640, Note_off_c, 1, 82, 0
2, 109680, Note_on_c, 1, 57, 127
2, 109680, Note_on_c, 1, 81, 127
2, 109800, Note_off_c, 1, 57, 0
2, 109800, Note_off_c, 1, 81, 0
2, 109840, Note_on_c, 1, 62, 127
2, 109840, Note_on_c, 1, 80, 127
2, 109920, Note_off_c, 1, 62, 0
2, 109920, Note_off_c, 1, 80, 0
2, 109960, Note_on_c, 1, 53, 127
2, 109960, Note_on_c, 1, 78, 127
2, 110040, Note_off_c, 1, 53, 0
2, 110040, Note_off_c, 1, 78, 0
2, 110080, Note_on_c, 1, 62, 127
2, 110080, Note_on_c, 1, 78, 127
2, 110200, Note_off_c, 1, 62, 0
2, 110200, Note_off_c, 1, 78, 0
2, 110240, Note_on_c, 1, 54, 127
2, 110240, Note_on_c, 1, 78, 127
2, 110320, Note_off_c, 1, 54, 0
2, 110320, Note_off_c, 1, 78, 0
2, 110360, Note_on_c, 1, 62, 127
2, 110360, Note_on_c, 1, 77, 127
2, 110440, Note_off_c, 1, 62, 0
2, 110440, Note_off_c, 1, 77, 0
2, 110480, Note_on_c, 1, 62, 127
2, 110480, Note_on_c, 1, 78, 127
2, 110600, Note_off_c, 1, 62, 0
2, 110600, Note_off_c, 1, 78, 0
2, 110640, Note_on_c, 1, 57, 127
2, 110640, Note_on_c, 1, 74, 127
2, 110720, Note_off_c, 1, 57, 0
2, 110720, Note_off_c, 1, 74, 0
2, 110760, Note_on_c, 1, 64, 127
2, 110760, Note_on_c, 1, 73, 127
2, 110880, Note_off_c, 1, 64, 0
2, 110880, Note_off_c, 1, 73, 0
2, 110960, Note_on_c, 1, 59, 127
2, 110960, Note_on_c, 1, 74, 127
2, 111040, Note_off_c, 1, 59, 0
2, 111040, Note_off_c, 1, 74, 0
2, 111080, Note_on_c, 1, 57, 127
2, 111080, Note_on_c, 1, 78, 127
2, 111160, Note_off_c, 1, 57, 0
2, 111160, Note_off_c, 1, 78, 0
2, 111200, Note_on_c, 1, 61, 127
2, 111200, Note_on_c, 1, 76, 127
2, 111280, Note_off_c, 1, 61, 0
2, 111280, Note_off_c, 1, 76, 0
2, 111320, Note_on_c, 1, 57, 127
2, 111320, Note_on_c, 1, 74, 127
2, 111360, Note_on_c, 1, 73, 127
2, 111360, Note_off_c, 1, 74, 0
2, 111400, Note_off_c, 1, 73, 0
2, 111400, Note_on_c, 1, 74, 127
2, 111440, Note_off_c, 1, 57, 0
2, 111440, Note_off_c, 1, 74, 0
2, 111480, Note_on_c, 1, 62, 127
2, 111480, Note_on_c, 1, 71, 127
2, 111560, Note_off_c, 1, 62, 0
2, 111560, Note_off_c, 1, 71, 0
2, 111600, Note_on_c, 1, 57, 127
2, 111600, Note_on_c, 1, 73, 127
2, 111960, Note_off_c, 1, 73, 0
2, 112000, Note_on_c, 1, 79, 127
2, 112040, Note_off_c, 1, 79, 0
2, 112080, Note_on_c, 1, 78, 127
2, 112120, Note_off_c, 1, 57, 0
2, 112120, Note_off_c, 1, 78, 0
2, 112120, Note_on_c, 1, 80, 127
2, 112160, Note_on_c, 1, 60, 127
2, 112440, Note_off_c, 1, 80, 0
2, 112480, Note_on_c, 1, 81, 127
2, 112560, Note_off_c, 1, 81, 0
2, 112600, Note_on_c, 1, 81, 127
2, 112640, Note_off_c, 1, 81, 0
2, 112680, Note_on_c, 1, 79, 127
2, 112720, Note_off_c, 1, 79, 0
2, 112760, Note_on_c, 1, 78, 127
2, 112800, Note_off_c, 1, 78, 0
2, 112840, Note_on_c, 1, 72, 127
2, 112880, Note_off_c, 1, 72, 0
2, 112920, Note_on_c, 1, 76, 127
2, 112960, Note_off_c, 1, 76, 0
2, 113000, Note_on_c, 1, 78, 127
2, 113040, Note_off_c, 1, 78, 0
2, 113080, Note_off_c, 1, 60, 0
2, 113120, Note_on_c, 1, 60, 127
2, 113120, Note_on_c, 1, 78, 127
2, 113160, Note_on_c, 1, 63, 127
2, 113160, Note_off_c, 1, 78, 0
2, 113240, Note_off_c, 1, 63, 0
2, 113280, Note_on_c, 1, 76, 127
2, 113360, Note_off_c, 1, 76, 0
2, 113400, Note_on_c, 1, 75, 127
2, 113440, Note_off_c, 1, 75, 0
2, 113480, Note_on_c, 1, 78, 127
2, 113520, Note_off_c, 1, 78, 0
2, 113560, Note_on_c, 1, 80, 127
2, 113600, Note_off_c, 1, 80, 0
2, 113680, Note_on_c, 1, 80, 127
2, 113720, Note_off_c, 1, 80, 0
2, 113800, Note_on_c, 1, 81, 127
2, 113840, Note_off_c, 1, 81, 0
2, 113920, Note_off_c, 1, 60, 0
2, 113960, Note_on_c, 1, 56, 127
2, 113960, Note_on_c, 1, 81, 127
2, 114040, Note_off_c, 1, 56, 0
2, 114040, Note_on_c, 1, 60, 127
2, 114040, Note_off_c, 1, 81, 0
2, 114080, Note_on_c, 1, 82, 127
2, 114120, Note_off_c, 1, 82, 0
2, 114200, Note_on_c, 1, 82, 127
2, 114240, Note_off_c, 1, 82, 0
2, 114280, Note_on_c, 1, 80, 127
2, 114320, Note_off_c, 1, 60, 0
2, 114320, Note_off_c, 1, 80, 0
2, 114360, Note_on_c, 1, 61, 127
2, 114360, Note_on_c, 1, 80, 127
2, 114440, Note_off_c, 1, 80, 0
2, 114480, Note_on_c, 1, 79, 127
2, 114560, Note_off_c, 1, 61, 0
2, 114560, Note_off_c, 1, 79, 0
2, 114600, Note_on_c, 1, 60, 127
2, 114720, Note_on_c, 1, 80, 127
2, 114760, Note_off_c, 1, 80, 0
2, 114800, Note_on_c, 1, 84, 127
2, 114840, Note_off_c, 1, 84, 0
2, 114880, Note_on_c, 1, 80, 127
2, 114960, Note_off_c, 1, 80, 0
2, 115000, Note_on_c, 1, 80, 127
2, 115080, Note_off_c, 1, 60, 0
2, 115080, Note_off_c, 1, 80, 0
2, 115120, Note_on_c, 1, 58, 127
2, 115120, Note_on_c, 1, 78, 127
2, 115240, Note_off_c, 1, 58, 0
2, 115240, Note_off_c, 1, 78, 0
2, 115320, Note_on_c, 1, 61, 127
2, 115320, Note_on_c, 1, 77, 127
2, 115400, Note_off_c, 1, 61, 0
2, 115400, Note_off_c, 1, 77, 0
2, 115440, Note_on_c, 1, 53, 127
2, 115440, Note_on_c, 1, 77, 127
2, 115520, Note_off_c, 1, 53, 0
2, 115520, Note_off_c, 1, 77, 0
2, 115560, Note_on_c, 1, 56, 127
2, 115560, Note_on_c, 1, 73, 127
2, 115680, Note_off_c, 1, 56, 0
2, 115680, Note_off_c, 1, 73, 0
2, 115720, Note_on_c, 1, 53, 127
2, 115800, Note_off_c, 1, 53, 0
2, 115840, Note_on_c, 1, 56, 127
2, 116080, Note_off_c, 1, 56, 0
2, 116120, Note_on_c, 1, 61, 127
2, 116600, Note_off_c, 1, 61, 0
2, 116600, Note_on_c, 1, 68, 127
2, 116840, Note_off_c, 1, 68, 0
2, 116880, Note_on_c, 1, 60, 127
2, 117000, Note_on_c, 1, 68, 127
2, 117080, Note_off_c, 1, 68, 0
2, 117120, Note_on_c, 1, 68, 127
2, 117240, Note_off_c, 1, 68, 0
2, 117280, Note_off_c, 1, 60, 0
2, 117320, Note_on_c, 1, 60, 127
2, 117320, Note_on_c, 1, 68, 127
2, 117400, Note_off_c, 1, 60, 0
2, 117400, Note_off_c, 1, 68, 0
2, 117440, Note_on_c, 1, 63, 127
2, 117560, Note_on_c, 1, 66, 127
2, 117640, Note_off_c, 1, 66, 0
2, 117680, Note_on_c, 1, 70, 127
2, 117800, Note_off_c, 1, 70, 0
2, 117840, Note_on_c, 1, 72, 127
2, 117920, Note_off_c, 1, 63, 0
2, 117920, Note_off_c, 1, 72, 0
2, 117960, Note_on_c, 1, 61, 127
2, 117960, Note_on_c, 1, 63, 127
2, 118040, Note_off_c, 1, 63, 0
2, 118080, Note_off_c, 1, 61, 0
2, 118080, Note_on_c, 1, 63, 127
2, 118080, Note_on_c, 1, 68, 127
2, 118200, Note_off_c, 1, 63, 0
2, 118200, Note_off_c, 1, 68, 0
2, 118240, Note_on_c, 1, 61, 127
2, 118240, Note_on_c, 1, 70, 127
2, 118320, Note_on_c, 1, 60, 127
2, 118320, Note_off_c, 1, 61, 0
2, 118320, Note_off_c, 1, 70, 0
2, 118360, Note_on_c, 1, 75, 127
2, 118440, Note_off_c, 1, 60, 0
2, 118440, Note_off_c, 1, 75, 0
2, 118480, Note_on_c, 1, 61, 127
2, 118480, Note_on_c, 1, 77, 127
2, 118600, Note_off_c, 1, 77, 0
2, 118640, Note_on_c, 1, 68, 127
2, 118720, Note_off_c, 1, 61, 0
2, 118720, Note_off_c, 1, 68, 0
2, 118760, Note_on_c, 1, 61, 127
2, 118760, Note_on_c, 1, 70, 127
2, 118840, Note_off_c, 1, 70, 0
2, 118880, Note_on_c, 1, 73, 127
2, 118960, Note_off_c, 1, 73, 0
2, 119000, Note_on_c, 1, 56, 127
2, 119000, Note_off_c, 1, 61, 0
2, 119000, Note_on_c, 1, 72, 127
2, 119120, Note_off_c, 1, 56, 0
2, 119120, Note_off_c, 1, 72, 0
2, 119160, Note_on_c, 1, 61, 127
2, 119160, Note_on_c, 1, 70, 127
2, 119240, Note_off_c, 1, 70, 0
2, 119280, Note_on_c, 1, 73, 127
2, 119360, Note_off_c, 1, 73, 0
2, 119400, Note_on_c, 1, 77, 127
2, 119480, Note_off_c, 1, 61, 0
2, 119480, Note_off_c, 1, 77, 0
2, 119520, Note_on_c, 1, 61, 127
2, 119520, Note_on_c, 1, 77, 127
2, 119560, Note_off_c, 1, 61, 0
2, 119560, Note_off_c, 1, 77, 0
2, 119600, Note_on_c, 1, 66, 127
2, 119600, Note_on_c, 1, 70, 127
2, 119680, Note_off_c, 1, 70, 0
2, 119720, Note_on_c, 1, 73, 127
2, 119800, Note_off_c, 1, 73, 0
2, 119840, Note_on_c, 1, 70, 127
2, 119960, Note_off_c, 1, 66, 0
2, 119960, Note_off_c, 1, 70, 0
2, 120040, End_track
3, 0, Start_track
3, 0, Title_t, "MIDI"
3, 1536, End_track
0, 0, End_of_file
