0, 0, Header, 1, 3, 192
1, 0, Start_track
1, 0, Time_signature, 4, 2, 24, 8
1, 0, Tempo, 500000
1, 120040, End_track
2, 0, Start_track
2, 0, Text_t, "random instrument: random person i dunno whatev"
2, 0, Title_t, "Track 1"
2, 0, Note_on_c, 1, 40, 127
2, 0, Note_on_c, 1, 48, 127
2, 0, Note_on_c, 1, 56, 127
2, 0, Note_on_c, 1, 60, 127
2, 40, Note_off_c, 1, 40, 0
2, 40, Note_off_c, 1, 48, 0
2, 40, Note_on_c, 1, 55, 127
2, 40, Note_off_c, 1, 56, 0
2, 40, Note_off_c, 1, 60, 0
2, 40, Note_on_c, 1, 72, 127
2, 40, Note_on_c, 1, 75, 127
2, 40, Note_on_c, 1, 79, 127
2, 40, Note_on_c, 1, 84, 127
2, 80, Note_off_c, 1, 55, 0
2, 80, Note_off_c, 1, 72, 0
2, 80, Note_off_c, 1, 75, 0
2, 80, Note_off_c, 1, 79, 0
2, 80, Note_off_c, 1, 84, 0
2, 120, Note_on_c, 1, 40, 127
2, 120, Note_on_c, 1, 48, 127
2, 120, Note_on_c, 1, 56, 127
2, 120, Note_on_c, 1, 60, 127
2, 160, Note_off_c, 1, 40, 0
2, 160, Note_on_c, 1, 41, 127
2, 160, Note_off_c, 1, 48, 0
2, 160, Note_on_c, 1, 50, 127
2, 160, Note_on_c, 1, 53, 127
2, 160, Note_off_c, 1, 56, 0
2, 160, Note_off_c, 1, 60, 0
2, 160, Note_on_c, 1, 81, 127
2, 160, Note_on_c, 1, 86, 127
2, 200, Note_on_c, 1, 35, 127
2, 200, Note_on_c, 1, 39, 127
2, 200, Note_off_c, 1, 41, 0
2, 200, Note_on_c, 1, 47, 127
2, 200, Note_off_c, 1, 53, 0
2, 200, Note_off_c, 1, 81, 0
2, 200, Note_off_c, 1, 86, 0
2, 240, Note_on_c, 1, 34, 127
2, 240, Note_off_c, 1, 35, 0
2, 240, Note_on_c, 1, 46, 127
2, 240, Note_off_c, 1, 47, 0
2, 240, Note_off_c, 1, 50, 0
2, 240, Note_on_c, 1, 73, 127
2, 240, Note_on_c, 1, 75, 127
2, 280, Note_off_c, 1, 34, 0
2, 280, Note_off_c, 1, 39, 0
2, 280, Note_off_c, 1, 46, 0
2, 280, Note_off_c, 1, 73, 0
2, 280, Note_off_c, 1, 75, 0
2, 280, Note_on_c, 1, 76, 127
2, 280, Note_on_c, 1, 80, 127
2, 280, Note_on_c, 1, 83, 127
2, 280, Note_on_c, 1, 89, 127
2, 320, Note_on_c, 1, 34, 127
2, 320, Note_on_c, 1, 39, 127
2, 320, Note_on_c, 1, 46, 127
2, 320, Note_on_c, 1, 73, 127
2, 320, Note_on_c, 1, 75, 127
2, 320, Note_off_c, 1, 76, 0
2, 320, Note_off_c, 1, 80, 0
2, 320, Note_off_c, 1, 83, 0
2, 320, Note_off_c, 1, 89, 0
2, 360, Note_off_c, 1, 34, 0
2, 360, Note_off_c, 1, 39, 0
2, 360, Note_on_c, 1, 42, 127
2, 360, Note_off_c, 1, 46, 0
2, 360, Note_on_c, 1, 49, 127
2, 360, Note_on_c, 1, 56, 127
2, 360, Note_off_c, 1, 73, 0
2, 360, Note_off_c, 1, 75, 0
2, 400, Note_off_c, 1, 42, 0
2, 400, Note_off_c, 1, 49, 0
2, 400, Note_off_c, 1, 56, 0
2, 400, Note_on_c, 1, 64, 127
2, 400, Note_on_c, 1, 85, 127
2, 400, Note_on_c, 1, 88, 127
2, 400, Note_on_c, 1, 92, 127
2, 440, Note_on_c, 1, 52, 127
2, 440, Note_on_c, 1, 56, 127
2, 440, Note_on_c, 1, 62, 127
2, 440, Note_on_c, 1, 71, 127
2, 440, Note_on_c, 1, 74, 127
2, 440, Note_off_c, 1, 85, 0
2, 440, Note_off_c, 1, 88, 0
2, 440, Note_off_c, 1, 92, 0
2, 480, Note_off_c, 1, 52, 0
2, 480, Note_off_c, 1, 56, 0
2, 480, Note_off_c, 1, 62, 0
2, 480, Note_off_c, 1, 71, 0
2, 480, Note_off_c, 1, 74, 0
2, 520, Note_on_c, 1, 32, 127
2, 520, Note_on_c, 1, 44, 127
2, 520, Note_on_c, 1, 52, 127
2, 520, Note_on_c, 1, 61, 127
2, 520, Note_off_c, 1, 64, 0
2, 600, Note_off_c, 1, 52, 0
2, 640, Note_on_c, 1, 52, 127
2, 760, Note_off_c, 1, 52, 0
2, 800, Note_on_c, 1, 58, 127
2, 880, Note_off_c, 1, 58, 0
2, 880, Note_off_c, 1, 61, 0
2, 920, Note_on_c, 1, 61, 127
2, 1040, Note_off_c, 1, 61, 0
2, 1080, Note_on_c, 1, 54, 127
2, 1240, Note_off_c, 1, 32, 0
2, 1240, Note_off_c, 1, 44, 0
2, 1240, Note_off_c, 1, 54, 0
2, 1240, Note_on_c, 1, 61, 127
2, 1240, Note_on_c, 1, 67, 127
2, 1280, Note_on_c, 1, 31, 127
2, 1280, Note_on_c, 1, 43, 127
2, 1280, Note_on_c, 1, 58, 127
2, 1280, Note_on_c, 1, 64, 127
2, 1280, Note_off_c, 1, 67, 0
2, 1640, Note_off_c, 1, 31, 0
2, 1640, Note_on_c, 1, 34, 127
2, 1640, Note_off_c, 1, 43, 0
2, 1640, Note_on_c, 1, 46, 127
2, 1640, Note_off_c, 1, 58, 0
2, 1640, Note_off_c, 1, 61, 0
2, 1640, Note_off_c, 1, 64, 0
2, 1680, Note_off_c, 1, 34, 0
2, 1680, Note_on_c, 1, 35, 127
2, 1680, Note_on_c, 1, 42, 127
2, 1680, Note_off_c, 1, 46, 0
2, 1680, Note_on_c, 1, 47, 127
2, 1680, Note_on_c, 1, 62, 127
2, 1680, Note_on_c, 1, 66, 127
2, 1680, Note_on_c, 1, 71, 127
2, 1680, Note_on_c, 1, 74, 127
2, 1880, Note_off_c, 1, 35, 0
2, 1880, Note_off_c, 1, 42, 0
2, 1880, Note_off_c, 1, 47, 0
2, 1880, Note_off_c, 1, 62, 0
2, 1880, Note_off_c, 1, 66, 0
2, 1880, Note_off_c, 1, 71, 0
2, 1880, Note_off_c, 1, 74, 0
2, 1920, Note_on_c, 1, 35, 127
2, 1920, Note_on_c, 1, 42, 127
2, 1920, Note_on_c, 1, 47, 127
2, 1920, Note_on_c, 1, 62, 127
2, 1920, Note_on_c, 1, 66, 127
2, 1920, Note_on_c, 1, 71, 127
2, 1920, Note_on_c, 1, 74, 127
2, 2280, Note_off_c, 1, 35, 0
2, 2280, Note_off_c, 1, 42, 0
2, 2280, Note_off_c, 1, 47, 0
2, 2280, Note_off_c, 1, 62, 0
2, 2280, Note_off_c, 1, 66, 0
2, 2280, Note_off_c, 1, 71, 0
2, 2280, Note_off_c, 1, 74, 0
2, 2320, Note_on_c, 1, 68, 127
2, 2480, Note_off_c, 1, 68, 0
2, 2520, Note_on_c, 1, 35, 127
2, 2520, Note_on_c, 1, 47, 127
2, 2520, Note_on_c, 1, 59, 127
2, 2520, Note_on_c, 1, 63, 127
2, 3320, Note_off_c, 1, 35, 0
2, 3320, Note_off_c, 1, 47, 0
2, 3320, Note_on_c, 1, 54, 127
2, 3720, Note_on_c, 1, 47, 127
2, 3720, Note_off_c, 1, 54, 0
2, 3720, Note_off_c, 1, 59, 0
2, 3720, Note_off_c, 1, 63, 0
2, 3760, Note_on_c, 1, 40, 127
2, 3760, Note_on_c, 1, 73, 127
2, 3840, Note_off_c, 1, 73, 0
2, 3880, Note_on_c, 1, 61, 127
2, 3920, Note_off_c, 1, 40, 0
2, 3920, Note_off_c, 1, 47, 0
2, 3920, Note_off_c, 1, 61, 0
2, 3960, Note_on_c, 1, 40, 127
2, 3960, Note_on_c, 1, 47, 127
2, 4000, Note_on_c, 1, 60, 127
2, 4080, Note_off_c, 1, 60, 0
2, 4120, Note_on_c, 1, 68, 127
2, 4160, Note_off_c, 1, 68, 0
2, 4200, Note_on_c, 1, 68, 127
2, 4280, Note_off_c, 1, 47, 0
2, 4320, Note_on_c, 1, 47, 127
2, 4320, Note_off_c, 1, 68, 0
2, 4320, Note_on_c, 1, 71, 127
2, 4360, Note_off_c, 1, 71, 0
2, 4400, Note_on_c, 1, 76, 127
2, 4480, Note_off_c, 1, 47, 0
2, 4480, Note_off_c, 1, 76, 0
2, 4520, Note_on_c, 1, 47, 127
2, 4520, Note_on_c, 1, 80, 127
2, 4560, Note_off_c, 1, 40, 0
2, 4560, Note_off_c, 1, 47, 0
2, 4600, Note_on_c, 1, 40, 127
2, 4600, Note_on_c, 1, 47, 127
2, 4680, Note_off_c, 1, 80, 0
2, 4720, Note_on_c, 1, 76, 127
2, 4760, Note_off_c, 1, 76, 0
2, 4800, Note_on_c, 1, 76, 127
2, 4880, Note_off_c, 1, 76, 0
2, 4920, Note_on_c, 1, 71, 127
2, 4960, Note_off_c, 1, 71, 0
2, 5000, Note_on_c, 1, 76, 127
2, 5080, Note_off_c, 1, 76, 0
2, 5120, Note_on_c, 1, 80, 127
2, 5160, Note_off_c, 1, 80, 0
2, 5200, Note_on_c, 1, 80, 127
2, 5280, Note_off_c, 1, 80, 0
2, 5320, Note_on_c, 1, 83, 127
2, 5360, Note_off_c, 1, 83, 0
2, 5400, Note_on_c, 1, 80, 127
2, 5480, Note_off_c, 1, 80, 0
2, 5520, Note_on_c, 1, 76, 127
2, 5560, Note_off_c, 1, 76, 0
2, 5600, Note_on_c, 1, 68, 127
2, 5600, Note_on_c, 1, 76, 127
2, 5680, Note_off_c, 1, 68, 0
2, 5680, Note_off_c, 1, 76, 0
2, 5720, Note_on_c, 1, 76, 127
2, 5760, Note_off_c, 1, 76, 0
2, 5800, Note_on_c, 1, 74, 127
2, 5880, Note_off_c, 1, 74, 0
2, 5920, Note_on_c, 1, 74, 127
2, 5960, Note_off_c, 1, 40, 0
2, 5960, Note_off_c, 1, 47, 0
2, 5960, Note_off_c, 1, 74, 0
2, 6000, Note_on_c, 1, 45, 127
2, 6000, Note_on_c, 1, 57, 127
2, 6000, Note_on_c, 1, 72, 127
2, 6080, Note_off_c, 1, 72, 0
2, 6120, Note_on_c, 1, 72, 127
2, 6160, Note_off_c, 1, 45, 0
2, 6160, Note_off_c, 1, 57, 0
2, 6160, Note_off_c, 1, 72, 0
2, 6200, Note_on_c, 1, 45, 127
2, 6200, Note_on_c, 1, 57, 127
2, 6240, Note_on_c, 1, 65, 127
2, 6320, Note_off_c, 1, 65, 0
2, 6360, Note_on_c, 1, 69, 127
2, 6400, Note_off_c, 1, 69, 0
2, 6440, Note_on_c, 1, 72, 127
2, 6520, Note_off_c, 1, 72, 0
2, 6560, Note_on_c, 1, 71, 127
2, 6600, Note_off_c, 1, 71, 0
2, 6640, Note_on_c, 1, 73, 127
2, 6680, Note_on_c, 1, 71, 127
2, 6680, Note_off_c, 1, 73, 0
2, 6720, Note_off_c, 1, 57, 0
2, 6720, Note_off_c, 1, 71, 0
2, 6760, Note_on_c, 1, 57, 127
2, 6760, Note_on_c, 1, 71, 127
2, 6800, Note_off_c, 1, 45, 0
2, 6800, Note_off_c, 1, 57, 0
2, 6800, Note_off_c, 1, 71, 0
2, 6840, Note_on_c, 1, 40, 127
2, 6840, Note_on_c, 1, 64, 127
2, 6920, Note_off_c, 1, 64, 0
2, 6960, Note_on_c, 1, 71, 127
2, 7000, Note_off_c, 1, 71, 0
2, 7040, Note_off_c, 1, 40, 0
2, 7040, Note_on_c, 1, 47, 127
2, 7040, Note_on_c, 1, 64, 127
2, 7120, Note_off_c, 1, 64, 0
2, 7160, Note_on_c, 1, 71, 127
2, 7200, Note_off_c, 1, 47, 0
2, 7200, Note_off_c, 1, 71, 0
2, 7240, Note_on_c, 1, 52, 127
2, 7240, Note_on_c, 1, 74, 127
2, 7320, Note_off_c, 1, 74, 0
2, 7360, Note_on_c, 1, 76, 127
2, 7400, Note_off_c, 1, 76, 0
2, 7440, Note_on_c, 1, 40, 127
2, 7440, Note_on_c, 1, 71, 127
2, 7520, Note_off_c, 1, 71, 0
2, 7560, Note_on_c, 1, 71, 127
2, 7600, Note_off_c, 1, 71, 0
2, 7640, Note_on_c, 1, 78, 127
2, 7720, Note_off_c, 1, 78, 0
2, 7760, Note_on_c, 1, 71, 127
2, 7800, Note_off_c, 1, 71, 0
2, 7840, Note_on_c, 1, 67, 127
2, 7920, Note_off_c, 1, 67, 0
2, 7960, Note_on_c, 1, 71, 127
2, 8000, Note_off_c, 1, 71, 0
2, 8040, Note_off_c, 1, 40, 0
2, 8040, Note_on_c, 1, 44, 127
2, 8040, Note_off_c, 1, 52, 0
2, 8040, Note_on_c, 1, 56, 127
2, 8040, Note_on_c, 1, 76, 127
2, 8120, Note_off_c, 1, 76, 0
2, 8160, Note_on_c, 1, 76, 127
2, 8200, Note_off_c, 1, 76, 0
2, 8240, Note_on_c, 1, 76, 127
2, 8320, Note_off_c, 1, 76, 0
2, 8360, Note_off_c, 1, 44, 0
2, 8360, Note_off_c, 1, 56, 0
2, 8400, Note_on_c, 1, 44, 127
2, 8400, Note_on_c, 1, 56, 127
2, 8400, Note_on_c, 1, 76, 127
2, 8440, Note_off_c, 1, 44, 0
2, 8440, Note_off_c, 1, 56, 0
2, 8440, Note_off_c, 1, 76, 0
2, 8480, Note_on_c, 1, 45, 127
2, 8480, Note_on_c, 1, 73, 127
2, 8560, Note_off_c, 1, 73, 0
2, 8600, Note_on_c, 1, 76, 127
2, 8640, Note_off_c, 1, 76, 0
2, 8680, Note_on_c, 1, 72, 127
2, 8760, Note_off_c, 1, 72, 0
2, 8800, Note_on_c, 1, 73, 127
2, 8840, Note_off_c, 1, 45, 0
2, 8840, Note_off_c, 1, 73, 0
2, 8880, Note_on_c, 1, 52, 127
2, 8880, Note_on_c, 1, 75, 127
2, 8960, Note_off_c, 1, 75, 0
2, 9000, Note_on_c, 1, 73, 127
2, 9040, Note_off_c, 1, 73, 0
2, 9080, Note_on_c, 1, 69, 127
2, 9240, Note_off_c, 1, 52, 0
2, 9240, Note_off_c, 1, 69, 0
2, 9280, Note_on_c, 1, 66, 127
2, 9440, Note_off_c, 1, 66, 0
2, 9480, Note_on_c, 1, 56, 127
2, 9480, Note_on_c, 1, 64, 127
2, 9640, Note_off_c, 1, 56, 0
2, 9640, Note_off_c, 1, 64, 0
2, 9680, Note_on_c, 1, 63, 127
2, 9680, Note_on_c, 1, 69, 127
2, 9840, Note_off_c, 1, 63, 0
2, 9840, Note_off_c, 1, 69, 0
2, 9880, Note_on_c, 1, 52, 127
2, 9880, Note_on_c, 1, 68, 127
2, 10040, Note_off_c, 1, 52, 0
2, 10040, Note_off_c, 1, 68, 0
2, 10080, Note_on_c, 1, 54, 127
2, 10080, Note_on_c, 1, 69, 127
2, 10240, Note_off_c, 1, 54, 0
2, 10240, Note_off_c, 1, 69, 0
2, 10280, Note_on_c, 1, 52, 127
2, 10280, Note_on_c, 1, 68, 127
2, 10440, Note_off_c, 1, 52, 0
2, 10440, Note_off_c, 1, 68, 0
2, 10480, Note_on_c, 1, 45, 127
2, 10480, Note_on_c, 1, 72, 127
2, 10640, Note_off_c, 1, 45, 0
2, 10640, Note_off_c, 1, 72, 0
2, 10720, Note_on_c, 1, 56, 127
2, 10720, Note_on_c, 1, 76, 127
2, 10880, Note_off_c, 1, 56, 0
2, 10880, Note_off_c, 1, 76, 0
2, 10920, Note_on_c, 1, 52, 127
2, 10920, Note_on_c, 1, 76, 127
2, 11080, Note_off_c, 1, 52, 0
2, 11080, Note_off_c, 1, 76, 0
2, 11120, Note_on_c, 1, 59, 127
2, 11120, Note_on_c, 1, 71, 127
2, 11120, Note_on_c, 1, 79, 127
2, 11280, Note_off_c, 1, 59, 0
2, 11280, Note_off_c, 1, 71, 0
2, 11280, Note_off_c, 1, 79, 0
2, 11320, Note_on_c, 1, 52, 127
2, 11320, Note_on_c, 1, 76, 127
2, 11480, Note_off_c, 1, 52, 0
2, 11480, Note_off_c, 1, 76, 0
2, 11520, Note_on_c, 1, 51, 127
2, 11520, Note_on_c, 1, 78, 127
2, 11680, Note_off_c, 1, 51, 0
2, 11680, Note_off_c, 1, 78, 0
2, 11720, Note_on_c, 1, 64, 127
2, 11720, Note_on_c, 1, 76, 127
2, 11880, Note_off_c, 1, 64, 0
2, 11880, Note_off_c, 1, 76, 0
2, 11920, Note_on_c, 1, 59, 127
2, 11920, Note_on_c, 1, 75, 127
2, 12080, Note_off_c, 1, 59, 0
2, 12080, Note_off_c, 1, 75, 0
2, 12120, Note_on_c, 1, 53, 127
2, 12120, Note_on_c, 1, 75, 127
2, 12280, Note_off_c, 1, 53, 0
2, 12280, Note_off_c, 1, 75, 0
2, 12320, Note_on_c, 1, 52, 127
2, 12320, Note_on_c, 1, 80, 127
2, 12480, Note_off_c, 1, 52, 0
2, 12480, Note_off_c, 1, 80, 0
2, 12520, Note_on_c, 1, 63, 127
2, 12520, Note_on_c, 1, 78, 127
2, 12680, Note_off_c, 1, 63, 0
2, 12680, Note_off_c, 1, 78, 0
2, 12720, Note_on_c, 1, 52, 127
2, 12720, Note_on_c, 1, 80, 127
2, 12840, Note_off_c, 1, 52, 0
2, 12840, Note_off_c, 1, 80, 0
2, 12880, Note_on_c, 1, 52, 127
2, 12880, Note_on_c, 1, 80, 127
2, 12920, Note_off_c, 1, 52, 0
2, 12960, Note_on_c, 1, 64, 127
2, 13120, Note_off_c, 1, 64, 0
2, 13120, Note_off_c, 1, 80, 0
2, 13160, Note_on_c, 1, 49, 127
2, 13160, Note_on_c, 1, 80, 127
2, 13320, Note_off_c, 1, 49, 0
2, 13360, Note_on_c, 1, 56, 127
2, 13520, Note_off_c, 1, 56, 0
2, 13560, Note_on_c, 1, 64, 127
2, 13720, Note_off_c, 1, 64, 0
2, 13720, Note_off_c, 1, 80, 0
2, 13760, Note_on_c, 1, 42, 127
2, 13760, Note_on_c, 1, 78, 127
2, 13920, Note_off_c, 1, 42, 0
2, 13960, Note_on_c, 1, 49, 127
2, 14120, Note_off_c, 1, 49, 0
2, 14120, Note_off_c, 1, 78, 0
2, 14160, Note_on_c, 1, 56, 127
2, 14160, Note_on_c, 1, 77, 127
2, 14320, Note_off_c, 1, 56, 0
2, 14320, Note_off_c, 1, 77, 0
2, 14360, Note_on_c, 1, 59, 127
2, 14360, Note_on_c, 1, 73, 127
2, 14520, Note_off_c, 1, 59, 0
2, 14520, Note_off_c, 1, 73, 0
2, 14560, Note_on_c, 1, 56, 127
2, 14560, Note_on_c, 1, 71, 127
2, 14720, Note_off_c, 1, 56, 0
2, 14760, Note_on_c, 1, 61, 127
2, 14920, Note_off_c, 1, 61, 0
2, 14920, Note_off_c, 1, 71, 0
2, 14960, Note_on_c, 1, 49, 127
2, 14960, Note_on_c, 1, 66, 127
2, 14960, Note_on_c, 1, 68, 127
2, 15040, Note_off_c, 1, 49, 0
2, 15040, Note_off_c, 1, 66, 0
2, 15040, Note_off_c, 1, 68, 0
2, 15080, Note_on_c, 1, 49, 127
2, 15080, Note_on_c, 1, 66, 127
2, 15080, Note_on_c, 1, 68, 127
2, 15160, Note_off_c, 1, 49, 0
2, 15160, Note_off_c, 1, 66, 0
2, 15160, Note_off_c, 1, 68, 0
2, 15200, Note_on_c, 1, 61, 127
2, 15360, Note_off_c, 1, 61, 0
2, 15400, Note_on_c, 1, 61, 127
2, 15400, Note_on_c, 1, 68, 127
2, 15560, Note_off_c, 1, 61, 0
2, 15560, Note_off_c, 1, 68, 0
2, 15600, Note_on_c, 1, 56, 127
2, 15600, Note_on_c, 1, 71, 127
2, 15760, Note_off_c, 1, 56, 0
2, 15800, Note_on_c, 1, 61, 127
2, 15960, Note_off_c, 1, 61, 0
2, 16000, Note_on_c, 1, 56, 127
2, 16160, Note_off_c, 1, 56, 0
2, 16160, Note_off_c, 1, 71, 0
2, 16200, Note_on_c, 1, 61, 127
2, 16360, Note_off_c, 1, 61, 0
2, 16400, Note_on_c, 1, 64, 127
2, 16400, Note_on_c, 1, 68, 127
2, 16480, Note_on_c, 1, 63, 127
2, 16480, Note_off_c, 1, 64, 0
2, 16480, Note_on_c, 1, 67, 127
2, 16480, Note_off_c, 1, 68, 0
2, 16520, Note_off_c, 1, 63, 0
2, 16520, Note_on_c, 1, 64, 127
2, 16520, Note_off_c, 1, 67, 0
2, 16520, Note_on_c, 1, 68, 127
2, 16560, Note_off_c, 1, 64, 0
2, 16560, Note_off_c, 1, 68, 0
2, 16600, Note_on_c, 1, 51, 127
2, 16600, Note_on_c, 1, 70, 127
2, 16760, Note_off_c, 1, 51, 0
2, 16800, Note_on_c, 1, 56, 127
2, 16960, Note_off_c, 1, 56, 0
2, 17000, Note_on_c, 1, 64, 127
2, 17160, Note_off_c, 1, 64, 0
2, 17160, Note_off_c, 1, 70, 0
2, 17160, Note_on_c, 1, 71, 127
2, 17200, Note_off_c, 1, 71, 0
2, 17240, Note_on_c, 1, 61, 127
2, 17240, Note_on_c, 1, 71, 127
2, 17400, Note_off_c, 1, 61, 0
2, 17400, Note_off_c, 1, 71, 0
2, 17440, Note_on_c, 1, 52, 127
2, 17440, Note_on_c, 1, 68, 127
2, 17600, Note_off_c, 1, 68, 0
2, 17640, Note_off_c, 1, 52, 0
2, 17640, Note_on_c, 1, 54, 127
2, 17640, Note_on_c, 1, 64, 127
2, 17800, Note_off_c, 1, 54, 0
2, 17800, Note_off_c, 1, 64, 0
2, 17840, Note_on_c, 1, 47, 127
2, 17840, Note_on_c, 1, 63, 127
2, 18000, Note_off_c, 1, 47, 0
2, 18040, Note_on_c, 1, 54, 127
2, 18200, Note_off_c, 1, 54, 0
2, 18240, Note_on_c, 1, 47, 127
2, 18240, Note_on_c, 1, 56, 127
2, 18400, Note_off_c, 1, 47, 0
2, 18400, Note_off_c, 1, 56, 0
2, 18440, Note_on_c, 1, 59, 127
2, 18600, Note_off_c, 1, 59, 0
2, 18600, Note_off_c, 1, 63, 0
2, 18640, Note_on_c, 1, 61, 127
2, 18800, Note_off_c, 1, 61, 0
2, 18840, Note_on_c, 1, 63, 127
2, 19000, Note_off_c, 1, 63, 0
2, 19040, Note_on_c, 1, 56, 127
2, 19240, Note_off_c, 1, 56, 0
2, 19240, Note_on_c, 1, 57, 127
2, 19280, Note_off_c, 1, 57, 0
2, 19320, Note_on_c, 1, 57, 127
2, 19440, Note_off_c, 1, 57, 0
2, 19480, Note_on_c, 1, 51, 127
2, 19640, Note_off_c, 1, 51, 0
2, 19680, Note_on_c, 1, 33, 127
2, 19680, Note_on_c, 1, 64, 127
2, 19840, Note_off_c, 1, 64, 0
2, 19880, Note_on_c, 1, 61, 127
2, 20040, Note_off_c, 1, 33, 0
2, 20040, Note_off_c, 1, 61, 0
2, 20080, Note_on_c, 1, 52, 127
2, 20240, Note_off_c, 1, 52, 0
2, 20280, Note_on_c, 1, 59, 127
2, 20440, Note_off_c, 1, 59, 0
2, 20480, Note_on_c, 1, 64, 127
2, 20640, Note_off_c, 1, 64, 0
2, 20680, Note_on_c, 1, 71, 127
2, 20840, Note_off_c, 1, 71, 0
2, 20880, Note_on_c, 1, 76, 127
2, 21040, Note_off_c, 1, 76, 0
2, 21080, Note_on_c, 1, 80, 127
2, 21240, Note_off_c, 1, 80, 0
2, 21320, Note_on_c, 1, 78, 127
2, 21480, Note_off_c, 1, 78, 0
2, 21520, Note_on_c, 1, 40, 127
2, 21520, Note_on_c, 1, 80, 127
2, 21680, Note_off_c, 1, 80, 0
2, 21720, Note_on_c, 1, 74, 127
2, 21880, Note_off_c, 1, 40, 0
2, 21880, Note_off_c, 1, 74, 0
2, 21920, Note_on_c, 1, 65, 127
2, 22080, Note_off_c, 1, 65, 0
2, 22120, Note_on_c, 1, 80, 127
2, 22280, Note_off_c, 1, 80, 0
2, 22320, Note_on_c, 1, 40, 127
2, 22320, Note_on_c, 1, 80, 127
2, 22480, Note_off_c, 1, 80, 0
2, 22520, Note_on_c, 1, 74, 127
2, 22680, Note_off_c, 1, 40, 0
2, 22680, Note_off_c, 1, 74, 0
2, 22720, Note_on_c, 1, 68, 127
2, 22880, Note_off_c, 1, 68, 0
2, 22920, Note_on_c, 1, 76, 127
2, 23080, Note_off_c, 1, 76, 0
2, 23120, Note_on_c, 1, 44, 127
2, 23120, Note_on_c, 1, 75, 127
2, 23280, Note_off_c, 1, 75, 0
2, 23320, Note_on_c, 1, 65, 127
2, 23400, Note_off_c, 1, 44, 0
2, 23400, Note_off_c, 1, 65, 0
2, 23440, Note_on_c, 1, 44, 127
2, 23440, Note_on_c, 1, 65, 127
2, 23520, Note_off_c, 1, 44, 0
2, 23520, Note_off_c, 1, 65, 0
2, 23560, Note_on_c, 1, 63, 127
2, 23720, Note_off_c, 1, 63, 0
2, 23760, Note_on_c, 1, 59, 127
2, 23920, Note_off_c, 1, 59, 0
2, 23960, Note_on_c, 1, 63, 127
2, 24120, Note_off_c, 1, 63, 0
2, 24160, Note_on_c, 1, 76, 127
2, 24320, Note_off_c, 1, 76, 0
2, 24360, Note_on_c, 1, 50, 127
2, 24360, Note_on_c, 1, 78, 127
2, 24520, Note_off_c, 1, 50, 0
2, 24560, Note_on_c, 1, 56, 127
2, 24720, Note_off_c, 1, 56, 0
2, 24720, Note_off_c, 1, 78, 0
2, 24760, Note_on_c, 1, 61, 127
2, 24920, Note_off_c, 1, 61, 0
2, 24960, Note_on_c, 1, 71, 127
2, 25120, Note_off_c, 1, 71, 0
2, 25160, Note_on_c, 1, 80, 127
2, 25320, Note_off_c, 1, 80, 0
2, 25360, Note_on_c, 1, 42, 127
2, 25360, Note_on_c, 1, 78, 127
2, 25520, Note_off_c, 1, 42, 0
2, 25520, Note_off_c, 1, 78, 0
2, 25600, Note_on_c, 1, 68, 127
2, 25760, Note_off_c, 1, 68, 0
2, 25800, Note_on_c, 1, 54, 127
2, 25960, Note_off_c, 1, 54, 0
2, 26000, Note_on_c, 1, 66, 127
2, 26160, Note_off_c, 1, 66, 0
2, 26200, Note_on_c, 1, 78, 127
2, 26360, Note_off_c, 1, 78, 0
2, 26400, Note_on_c, 1, 49, 127
2, 26560, Note_off_c, 1, 49, 0
2, 26600, Note_on_c, 1, 56, 127
2, 26760, Note_off_c, 1, 56, 0
2, 26800, Note_on_c, 1, 61, 127
2, 26960, Note_off_c, 1, 61, 0
2, 27000, Note_on_c, 1, 73, 127
2, 27160, Note_off_c, 1, 73, 0
2, 27200, Note_on_c, 1, 80, 127
2, 27400, Note_off_c, 1, 80, 0
2, 27440, Note_on_c, 1, 80, 127
2, 27600, Note_off_c, 1, 80, 0
2, 27680, Note_on_c, 1, 78, 127
2, 27840, Note_off_c, 1, 78, 0
2, 27880, Note_on_c, 1, 68, 127
2, 28040, Note_off_c, 1, 68, 0
2, 28080, Note_on_c, 1, 78, 127
2, 28240, Note_off_c, 1, 78, 0
2, 28280, Note_on_c, 1, 80, 127
2, 28440, Note_off_c, 1, 80, 0
2, 28480, Note_on_c, 1, 37, 127
2, 28480, Note_on_c, 1, 83, 127
2, 28640, Note_off_c, 1, 83, 0
2, 28680, Note_off_c, 1, 37, 0
2, 28680, Note_on_c, 1, 49, 127
2, 28680, Note_on_c, 1, 71, 127
2, 28840, Note_off_c, 1, 49, 0
2, 28840, Note_off_c, 1, 71, 0
2, 28880, Note_on_c, 1, 73, 127
2, 29040, Note_off_c, 1, 73, 0
2, 29080, Note_on_c, 1, 54, 127
2, 29080, Note_on_c, 1, 76, 127
2, 29240, Note_off_c, 1, 54, 0
2, 29240, Note_off_c, 1, 76, 0
2, 29280, Note_on_c, 1, 59, 127
2, 29440, Note_off_c, 1, 59, 0
2, 29480, Note_on_c, 1, 68, 127
2, 29640, Note_off_c, 1, 68, 0
2, 29680, Note_on_c, 1, 81, 127
2, 29800, Note_off_c, 1, 81, 0
2, 29840, Note_on_c, 1, 81, 127
2, 29880, Note_off_c, 1, 81, 0
2, 29920, Note_on_c, 1, 47, 127
2, 29920, Note_on_c, 1, 75, 127
2, 30080, Note_off_c, 1, 47, 0
2, 30080, Note_off_c, 1, 75, 0
2, 30120, Note_on_c, 1, 51, 127
2, 30120, Note_on_c, 1, 80, 127
2, 30280, Note_off_c, 1, 51, 0
2, 30280, Note_off_c, 1, 80, 0
2, 30320, Note_on_c, 1, 61, 127
2, 30480, Note_off_c, 1, 61, 0
2, 30520, Note_on_c, 1, 81, 127
2, 30680, Note_off_c, 1, 81, 0
2, 30720, Note_on_c, 1, 40, 127
2, 30720, Note_on_c, 1, 80, 127
2, 30880, Note_off_c, 1, 80, 0
2, 30920, Note_on_c, 1, 72, 127
2, 31080, Note_off_c, 1, 40, 0
2, 31080, Note_off_c, 1, 72, 0
2, 31120, Note_on_c, 1, 73, 127
2, 31280, Note_off_c, 1, 73, 0
2, 31320, Note_on_c, 1, 40, 127
2, 31320, Note_on_c, 1, 80, 127
2, 31480, Note_off_c, 1, 80, 0
2, 31520, Note_off_c, 1, 40, 0
2, 31520, Note_on_c, 1, 42, 127
2, 31520, Note_on_c, 1, 76, 127
2, 31720, Note_off_c, 1, 42, 0
2, 31720, Note_off_c, 1, 76, 0
2, 31760, Note_on_c, 1, 77, 127
2, 31920, Note_off_c, 1, 77, 0
2, 32000, Note_on_c, 1, 73, 127
2, 32160, Note_off_c, 1, 73, 0
2, 32200, Note_on_c, 1, 59, 127
2, 32360, Note_off_c, 1, 59, 0
2, 32400, Note_on_c, 1, 62, 127
2, 32560, Note_off_c, 1, 62, 0
2, 32600, Note_on_c, 1, 57, 127
2, 32600, Note_on_c, 1, 73, 127
2, 32760, Note_off_c, 1, 57, 0
2, 32760, Note_off_c, 1, 73, 0
2, 32800, Note_on_c, 1, 61, 127
2, 32960, Note_off_c, 1, 61, 0
2, 33000, Note_on_c, 1, 73, 127
2, 33160, Note_off_c, 1, 73, 0
2, 33200, Note_on_c, 1, 47, 127
2, 33200, Note_on_c, 1, 75, 127
2, 33760, Note_off_c, 1, 75, 0
2, 33800, Note_on_c, 1, 76, 127
2, 33960, Note_off_c, 1, 47, 0
2, 33960, Note_off_c, 1, 76, 0
2, 34000, Note_on_c, 1, 59, 127
2, 34000, Note_on_c, 1, 75, 127
2, 34160, Note_off_c, 1, 59, 0
2, 34160, Note_off_c, 1, 75, 0
2, 34200, Note_on_c, 1, 59, 127
2, 34240, Note_on_c, 1, 66, 127
2, 34400, Note_off_c, 1, 66, 0
2, 34440, Note_on_c, 1, 75, 127
2, 34600, Note_off_c, 1, 75, 0
2, 34640, Note_on_c, 1, 66, 127
2, 34800, Note_off_c, 1, 66, 0
2, 34840, Note_on_c, 1, 45, 127
2, 34840, Note_on_c, 1, 57, 127
2, 34840, Note_off_c, 1, 59, 0
2, 34840, Note_on_c, 1, 73, 127
2, 34840, Note_on_c, 1, 79, 127
2, 35080, Note_off_c, 1, 45, 0
2, 35080, Note_on_c, 1, 48, 127
2, 35080, Note_on_c, 1, 50, 127
2, 35080, Note_on_c, 1, 54, 127
2, 35080, Note_off_c, 1, 57, 0
2, 35080, Note_on_c, 1, 60, 127
2, 35080, Note_on_c, 1, 72, 127
2, 35080, Note_off_c, 1, 73, 0
2, 35080, Note_on_c, 1, 74, 127
2, 35080, Note_on_c, 1, 78, 127
2, 35080, Note_off_c, 1, 79, 0
2, 35080, Note_on_c, 1, 84, 127
2, 35120, Note_on_c, 1, 45, 127
2, 35120, Note_off_c, 1, 48, 0
2, 35120, Note_off_c, 1, 50, 0
2, 35120, Note_off_c, 1, 54, 0
2, 35120, Note_on_c, 1, 57, 127
2, 35120, Note_off_c, 1, 60, 0
2, 35120, Note_off_c, 1, 72, 0
2, 35120, Note_on_c, 1, 73, 127
2, 35120, Note_off_c, 1, 74, 0
2, 35120, Note_off_c, 1, 78, 0
2, 35120, Note_on_c, 1, 79, 127
2, 35120, Note_off_c, 1, 84, 0
2, 35160, Note_on_c, 1, 67, 127
2, 35200, Note_off_c, 1, 67, 0
2, 35240, Note_on_c, 1, 67, 127
2, 35400, Note_off_c, 1, 67, 0
2, 35440, Note_on_c, 1, 67, 127
2, 35600, Note_off_c, 1, 45, 0
2, 35600, Note_off_c, 1, 57, 0
2, 35600, Note_off_c, 1, 67, 0
2, 35600, Note_off_c, 1, 73, 0
2, 35600, Note_off_c, 1, 79, 0
2, 35640, Note_on_c, 1, 59, 127
2, 35800, Note_off_c, 1, 59, 0
2, 35840, Note_on_c, 1, 62, 127
2, 36000, Note_off_c, 1, 62, 0
2, 36040, Note_on_c, 1, 71, 127
2, 36240, Note_off_c, 1, 71, 0
2, 36320, Note_on_c, 1, 74, 127
2, 36480, Note_off_c, 1, 74, 0
2, 36520, Note_on_c, 1, 52, 127
2, 36680, Note_off_c, 1, 52, 0
2, 36720, Note_on_c, 1, 56, 127
2, 36880, Note_off_c, 1, 56, 0
2, 36920, Note_on_c, 1, 59, 127
2, 37080, Note_off_c, 1, 59, 0
2, 37120, Note_on_c, 1, 71, 127
2, 37280, Note_off_c, 1, 71, 0
2, 37320, Note_on_c, 1, 76, 127
2, 37480, Note_off_c, 1, 76, 0
2, 37520, Note_on_c, 1, 73, 127
2, 37680, Note_off_c, 1, 73, 0
2, 37720, Note_on_c, 1, 73, 127
2, 37880, Note_off_c, 1, 73, 0
2, 37920, Note_on_c, 1, 42, 127
2, 37920, Note_on_c, 1, 80, 127
2, 38280, Note_off_c, 1, 42, 0
2, 38280, Note_off_c, 1, 80, 0
2, 38360, Note_on_c, 1, 73, 127
2, 38520, Note_off_c, 1, 73, 0
2, 38560, Note_on_c, 1, 83, 127
2, 38720, Note_off_c, 1, 83, 0
2, 38760, Note_on_c, 1, 42, 127
2, 38760, Note_on_c, 1, 82, 127
2, 38920, Note_off_c, 1, 82, 0
2, 38960, Note_on_c, 1, 90, 127
2, 39120, Note_off_c, 1, 42, 0
2, 39120, Note_off_c, 1, 90, 0
2, 39160, Note_on_c, 1, 74, 127
2, 39360, Note_on_c, 1, 52, 127
2, 39520, Note_off_c, 1, 52, 0
2, 39560, Note_on_c, 1, 58, 127
2, 39720, Note_off_c, 1, 58, 0
2, 39760, Note_on_c, 1, 40, 127
2, 39760, Note_on_c, 1, 73, 127
2, 39760, Note_off_c, 1, 74, 0
2, 39960, Note_off_c, 1, 40, 0
2, 40160, Note_off_c, 1, 73, 0
2, 40200, Note_on_c, 1, 50, 127
2, 40360, Note_off_c, 1, 50, 0
2, 40400, Note_on_c, 1, 50, 127
2, 40440, Note_on_c, 1, 47, 127
2, 40440, Note_off_c, 1, 50, 0
2, 40440, Note_on_c, 1, 67, 127
2, 40600, Note_off_c, 1, 47, 0
2, 40640, Note_on_c, 1, 50, 127
2, 40800, Note_off_c, 1, 50, 0
2, 40840, Note_on_c, 1, 47, 127
2, 41000, Note_off_c, 1, 47, 0
2, 41000, Note_off_c, 1, 67, 0
2, 41040, Note_on_c, 1, 37, 127
2, 41040, Note_on_c, 1, 49, 127
2, 41040, Note_on_c, 1, 93, 127
2, 41400, Note_off_c, 1, 93, 0
2, 41440, Note_on_c, 1, 95, 127
2, 41480, Note_off_c, 1, 95, 0
2, 41480, Note_on_c, 1, 97, 127
2, 41520, Note_on_c, 1, 88, 127
2, 41520, Note_off_c, 1, 97, 0
2, 41600, Note_off_c, 1, 88, 0
2, 41640, Note_on_c, 1, 88, 127
2, 41800, Note_off_c, 1, 88, 0
2, 41840, Note_on_c, 1, 87, 127
2, 42000, Note_off_c, 1, 87, 0
2, 42040, Note_on_c, 1, 83, 127
2, 42080, Note_on_c, 1, 76, 127
2, 42080, Note_off_c, 1, 83, 0
2, 42120, Note_off_c, 1, 76, 0
2, 42120, Note_on_c, 1, 91, 127
2, 42160, Note_on_c, 1, 88, 127
2, 42160, Note_off_c, 1, 91, 0
2, 42200, Note_off_c, 1, 88, 0
2, 42240, Note_on_c, 1, 36, 127
2, 42240, Note_off_c, 1, 37, 0
2, 42240, Note_on_c, 1, 48, 127
2, 42240, Note_off_c, 1, 49, 0
2, 42240, Note_on_c, 1, 86, 127
2, 42400, Note_off_c, 1, 36, 0
2, 42400, Note_off_c, 1, 48, 0
2, 42400, Note_off_c, 1, 86, 0
2, 42440, Note_on_c, 1, 36, 127
2, 42440, Note_on_c, 1, 48, 127
2, 42440, Note_on_c, 1, 86, 127
2, 42480, Note_off_c, 1, 86, 0
2, 42520, Note_off_c, 1, 36, 0
2, 42520, Note_on_c, 1, 37, 127
2, 42520, Note_off_c, 1, 48, 0
2, 42520, Note_on_c, 1, 89, 127
2, 42880, Note_off_c, 1, 37, 0
2, 42880, Note_on_c, 1, 85, 127
2, 42880, Note_off_c, 1, 89, 0
2, 42920, Note_on_c, 1, 37, 127
2, 42920, Note_off_c, 1, 85, 0
2, 42920, Note_on_c, 1, 92, 127
2, 43080, Note_off_c, 1, 37, 0
2, 43080, Note_on_c, 1, 89, 127
2, 43080, Note_off_c, 1, 92, 0
2, 43120, Note_on_c, 1, 40, 127
2, 43120, Note_off_c, 1, 89, 0
2, 43120, Note_on_c, 1, 93, 127
2, 43160, Note_on_c, 1, 88, 127
2, 43160, Note_off_c, 1, 93, 0
2, 43280, Note_off_c, 1, 40, 0
2, 43320, Note_on_c, 1, 33, 127
2, 43320, Note_off_c, 1, 88, 0
2, 43320, Note_on_c, 1, 93, 127
2, 43680, Note_off_c, 1, 33, 0
2, 43680, Note_off_c, 1, 93, 0
2, 44320, Note_on_c, 1, 73, 127
2, 44520, Note_off_c, 1, 73, 0
2, 44560, Note_on_c, 1, 73, 127
2, 44720, Note_off_c, 1, 73, 0
2, 44760, Note_on_c, 1, 75, 127
2, 45120, Note_off_c, 1, 75, 0
2, 45160, Note_on_c, 1, 76, 127
2, 45320, Note_off_c, 1, 76, 0
2, 45360, Note_on_c, 1, 77, 127
2, 45520, Note_off_c, 1, 77, 0
2, 45560, Note_on_c, 1, 80, 127
2, 45720, Note_off_c, 1, 80, 0
2, 45760, Note_on_c, 1, 78, 127
2, 45920, Note_off_c, 1, 78, 0
2, 45960, Note_on_c, 1, 77, 127
2, 46120, Note_off_c, 1, 77, 0
2, 46160, Note_on_c, 1, 78, 127
2, 46360, Note_off_c, 1, 78, 0
2, 46560, Note_on_c, 1, 73, 127
2, 46720, Note_off_c, 1, 73, 0
2, 46800, Note_on_c, 1, 70, 127
2, 46960, Note_off_c, 1, 70, 0
2, 47000, Note_on_c, 1, 68, 127
2, 47160, Note_off_c, 1, 68, 0
2, 47200, Note_on_c, 1, 66, 127
2, 47360, Note_off_c, 1, 66, 0
2, 47400, Note_on_c, 1, 65, 127
2, 47600, Note_off_c, 1, 65, 0
2, 47600, Note_on_c, 1, 68, 127
2, 47760, Note_off_c, 1, 68, 0
2, 47800, Note_on_c, 1, 65, 127
2, 47960, Note_off_c, 1, 65, 0
2, 48000, Note_on_c, 1, 64, 127
2, 48160, Note_off_c, 1, 64, 0
2, 48200, Note_on_c, 1, 65, 127
2, 48360, Note_off_c, 1, 65, 0
2, 48400, Note_on_c, 1, 65, 127
2, 48560, Note_off_c, 1, 65, 0
2, 48600, Note_on_c, 1, 63, 127
2, 48760, Note_off_c, 1, 63, 0
2, 48800, Note_on_c, 1, 66, 127
2, 48880, Note_off_c, 1, 66, 0
2, 48920, Note_on_c, 1, 66, 127
2, 49000, Note_off_c, 1, 66, 0
2, 49040, Note_on_c, 1, 65, 127
2, 49200, Note_off_c, 1, 65, 0
2, 49240, Note_on_c, 1, 66, 127
2, 49400, Note_off_c, 1, 66, 0
2, 49440, Note_on_c, 1, 68, 127
2, 49600, Note_off_c, 1, 68, 0
2, 49640, Note_on_c, 1, 66, 127
2, 49800, Note_off_c, 1, 66, 0
2, 49840, Note_on_c, 1, 68, 127
2, 50000, Note_off_c, 1, 68, 0
2, 50040, Note_on_c, 1, 66, 127
2, 50200, Note_off_c, 1, 66, 0
2, 50240, Note_on_c, 1, 70, 127
2, 50400, Note_off_c, 1, 70, 0
2, 50440, Note_on_c, 1, 70, 127
2, 50600, Note_off_c, 1, 70, 0
2, 50640, Note_on_c, 1, 68, 127
2, 50800, Note_off_c, 1, 68, 0
2, 50840, Note_on_c, 1, 66, 127
2, 51000, Note_off_c, 1, 66, 0
2, 51080, Note_on_c, 1, 62, 127
2, 51240, Note_off_c, 1, 62, 0
2, 51280, Note_on_c, 1, 68, 127
2, 51440, Note_off_c, 1, 68, 0
2, 51480, Note_on_c, 1, 61, 127
2, 51680, Note_off_c, 1, 61, 0
2, 51680, Note_on_c, 1, 65, 127
2, 51840, Note_off_c, 1, 65, 0
2, 51880, Note_on_c, 1, 68, 127
2, 52040, Note_off_c, 1, 68, 0
2, 52080, Note_on_c, 1, 66, 127
2, 52240, Note_off_c, 1, 66, 0
2, 52280, Note_on_c, 1, 63, 127
2, 52440, Note_off_c, 1, 63, 0
2, 52480, Note_on_c, 1, 61, 127
2, 52680, Note_off_c, 1, 61, 0
2, 52720, Note_on_c, 1, 66, 127
2, 52880, Note_off_c, 1, 66, 0
2, 52920, Note_on_c, 1, 70, 127
2, 53080, Note_off_c, 1, 70, 0
2, 53160, Note_on_c, 1, 71, 127
2, 53320, Note_off_c, 1, 71, 0
2, 53360, Note_on_c, 1, 58, 127
2, 53360, Note_on_c, 1, 70, 127
2, 53520, Note_off_c, 1, 58, 0
2, 53520, Note_off_c, 1, 70, 0
2, 53560, Note_on_c, 1, 61, 127
2, 53560, Note_on_c, 1, 71, 127
2, 53720, Note_off_c, 1, 61, 0
2, 53720, Note_off_c, 1, 71, 0
2, 53760, Note_on_c, 1, 61, 127
2, 53760, Note_on_c, 1, 70, 127
2, 53920, Note_off_c, 1, 61, 0
2, 53920, Note_off_c, 1, 70, 0
2, 53960, Note_on_c, 1, 59, 127
2, 53960, Note_on_c, 1, 68, 127
2, 54120, Note_off_c, 1, 59, 0
2, 54120, Note_off_c, 1, 68, 0
2, 54160, Note_on_c, 1, 58, 127
2, 54160, Note_on_c, 1, 66, 127
2, 54320, Note_off_c, 1, 58, 0
2, 54320, Note_off_c, 1, 66, 0
2, 54360, Note_on_c, 1, 32, 127
2, 54360, Note_on_c, 1, 75, 127
2, 54520, Note_off_c, 1, 32, 0
2, 54560, Note_on_c, 1, 44, 127
2, 54720, Note_off_c, 1, 44, 0
2, 54760, Note_on_c, 1, 61, 127
2, 54920, Note_off_c, 1, 61, 0
2, 54960, Note_on_c, 1, 61, 127
2, 54960, Note_on_c, 1, 73, 127
2, 54960, Note_off_c, 1, 75, 0
2, 55120, Note_off_c, 1, 61, 0
2, 55120, Note_off_c, 1, 73, 0
2, 55200, Note_on_c, 1, 39, 127
2, 55200, Note_on_c, 1, 75, 127
2, 55360, Note_off_c, 1, 39, 0
2, 55400, Note_on_c, 1, 46, 127
2, 55560, Note_off_c, 1, 46, 0
2, 55600, Note_on_c, 1, 54, 127
2, 55760, Note_off_c, 1, 54, 0
2, 55800, Note_on_c, 1, 63, 127
2, 55960, Note_off_c, 1, 63, 0
2, 56000, Note_on_c, 1, 58, 127
2, 56160, Note_off_c, 1, 58, 0
2, 56200, Note_on_c, 1, 46, 127
2, 56400, Note_off_c, 1, 46, 0
2, 56440, Note_on_c, 1, 54, 127
2, 56600, Note_off_c, 1, 54, 0
2, 56640, Note_on_c, 1, 63, 127
2, 56800, Note_off_c, 1, 63, 0
2, 56800, Note_off_c, 1, 75, 0
2, 56840, Note_on_c, 1, 49, 127
2, 56840, Note_on_c, 1, 82, 127
2, 57000, Note_off_c, 1, 49, 0
2, 57040, Note_on_c, 1, 58, 127
2, 57200, Note_off_c, 1, 58, 0
2, 57240, Note_off_c, 1, 82, 0
2, 57280, Note_on_c, 1, 61, 127
2, 57280, Note_on_c, 1, 82, 127
2, 57440, Note_off_c, 1, 61, 0
2, 57480, Note_on_c, 1, 53, 127
2, 57480, Note_on_c, 1, 80, 127
2, 57480, Note_off_c, 1, 82, 0
2, 57640, Note_off_c, 1, 53, 0
2, 57680, Note_on_c, 1, 56, 127
2, 57680, Note_on_c, 1, 82, 127
2, 57720, Note_off_c, 1, 82, 0
2, 57880, Note_off_c, 1, 56, 0
2, 57920, Note_on_c, 1, 61, 127
2, 58080, Note_off_c, 1, 61, 0
2, 58080, Note_off_c, 1, 80, 0
2, 58120, Note_on_c, 1, 49, 127
2, 58120, Note_on_c, 1, 77, 127
2, 58280, Note_off_c, 1, 49, 0
2, 58320, Note_on_c, 1, 56, 127
2, 58480, Note_off_c, 1, 56, 0
2, 58520, Note_on_c, 1, 61, 127
2, 58680, Note_off_c, 1, 61, 0
2, 58680, Note_off_c, 1, 77, 0
2, 58720, Note_on_c, 1, 53, 127
2, 58720, Note_on_c, 1, 77, 127
2, 58880, Note_off_c, 1, 53, 0
2, 58920, Note_on_c, 1, 49, 127
2, 59080, Note_off_c, 1, 49, 0
2, 59120, Note_on_c, 1, 44, 127
2, 59280, Note_off_c, 1, 44, 0
2, 59320, Note_on_c, 1, 56, 127
2, 59400, Note_off_c, 1, 56, 0
2, 59400, Note_off_c, 1, 77, 0
2, 59440, Note_on_c, 1, 56, 127
2, 59440, Note_on_c, 1, 77, 127
2, 59520, Note_off_c, 1, 56, 0
2, 59520, Note_off_c, 1, 77, 0
2, 59520, Note_on_c, 1, 79, 127
2, 59560, Note_on_c, 1, 49, 127
2, 59560, Note_on_c, 1, 77, 127
2, 59560, Note_off_c, 1, 79, 0
2, 59760, Note_off_c, 1, 49, 0
2, 59800, Note_on_c, 1, 60, 127
2, 59960, Note_off_c, 1, 60, 0
2, 60000, Note_on_c, 1, 49, 127
2, 60160, Note_off_c, 1, 49, 0
2, 60200, Note_on_c, 1, 56, 127
2, 60360, Note_off_c, 1, 56, 0
2, 60400, Note_on_c, 1, 49, 127
2, 60560, Note_off_c, 1, 49, 0
2, 60600, Note_on_c, 1, 53, 127
2, 60760, Note_off_c, 1, 53, 0
2, 60800, Note_on_c, 1, 56, 127
2, 60960, Note_off_c, 1, 56, 0
2, 61000, Note_on_c, 1, 48, 127
2, 61160, Note_off_c, 1, 48, 0
2, 61200, Note_on_c, 1, 56, 127
2, 61400, Note_off_c, 1, 56, 0
2, 61440, Note_off_c, 1, 77, 0
2, 61480, Note_on_c, 1, 53, 127
2, 61480, Note_on_c, 1, 77, 127
2, 61640, Note_off_c, 1, 53, 0
2, 61680, Note_on_c, 1, 60, 127
2, 61840, Note_off_c, 1, 60, 0
2, 61840, Note_off_c, 1, 77, 0
2, 61880, Note_on_c, 1, 53, 127
2, 61880, Note_on_c, 1, 73, 127
2, 62040, Note_off_c, 1, 53, 0
2, 62080, Note_on_c, 1, 56, 127
2, 62240, Note_off_c, 1, 56, 0
2, 62280, Note_on_c, 1, 61, 127
2, 62440, Note_off_c, 1, 61, 0
2, 62480, Note_on_c, 1, 68, 127
2, 62640, Note_off_c, 1, 68, 0
2, 62640, Note_off_c, 1, 73, 0
2, 62680, Note_on_c, 1, 63, 127
2, 62680, Note_on_c, 1, 73, 127
2, 62880, Note_off_c, 1, 63, 0
2, 62920, Note_on_c, 1, 59, 127
2, 63080, Note_off_c, 1, 59, 0
2, 63080, Note_off_c, 1, 73, 0
2, 63120, Note_on_c, 1, 65, 127
2, 63120, Note_on_c, 1, 73, 127
2, 63280, Note_off_c, 1, 73, 0
2, 63320, Note_off_c, 1, 65, 0
2, 63320, Note_on_c, 1, 68, 127
2, 63320, Note_on_c, 1, 77, 127
2, 63480, Note_off_c, 1, 68, 0
2, 63480, Note_off_c, 1, 77, 0
2, 63560, Note_on_c, 1, 44, 127
2, 63560, Note_on_c, 1, 77, 127
2, 63720, Note_off_c, 1, 77, 0
2, 63760, Note_on_c, 1, 75, 127
2, 63920, Note_off_c, 1, 44, 0
2, 63960, Note_on_c, 1, 56, 127
2, 64120, Note_off_c, 1, 56, 0
2, 64120, Note_off_c, 1, 75, 0
2, 64160, Note_on_c, 1, 65, 127
2, 64320, Note_off_c, 1, 65, 0
2, 64360, Note_on_c, 1, 54, 127
2, 64360, Note_on_c, 1, 75, 127
2, 64520, Note_off_c, 1, 54, 0
2, 64520, Note_off_c, 1, 75, 0
2, 64560, Note_on_c, 1, 58, 127
2, 64560, Note_on_c, 1, 73, 127
2, 64720, Note_off_c, 1, 58, 0
2, 64760, Note_on_c, 1, 59, 127
2, 64920, Note_off_c, 1, 59, 0
2, 64960, Note_on_c, 1, 61, 127
2, 65120, Note_off_c, 1, 61, 0
2, 65160, Note_on_c, 1, 56, 127
2, 65360, Note_off_c, 1, 56, 0
2, 65360, Note_off_c, 1, 73, 0
2, 65400, Note_on_c, 1, 61, 127
2, 65400, Note_on_c, 1, 70, 127
2, 65560, Note_off_c, 1, 61, 0
2, 65560, Note_off_c, 1, 70, 0
2, 65640, Note_on_c, 1, 49, 127
2, 65640, Note_on_c, 1, 71, 127
2, 66000, Note_off_c, 1, 49, 0
2, 66040, Note_on_c, 1, 53, 127
2, 66200, Note_off_c, 1, 53, 0
2, 66240, Note_on_c, 1, 54, 127
2, 66400, Note_off_c, 1, 54, 0
2, 66440, Note_on_c, 1, 49, 127
2, 66600, Note_off_c, 1, 49, 0
2, 66600, Note_off_c, 1, 71, 0
2, 66640, Note_on_c, 1, 54, 127
2, 66640, Note_on_c, 1, 70, 127
2, 66800, Note_off_c, 1, 54, 0
2, 66840, Note_on_c, 1, 58, 127
2, 67000, Note_off_c, 1, 58, 0
2, 67040, Note_on_c, 1, 66, 127
2, 67200, Note_off_c, 1, 66, 0
2, 67240, Note_on_c, 1, 54, 127
2, 67400, Note_off_c, 1, 54, 0
2, 67440, Note_on_c, 1, 61, 127
2, 67440, Note_on_c, 1, 73, 127
2, 67640, Note_off_c, 1, 61, 0
2, 67680, Note_off_c, 1, 70, 0
2, 67680, Note_off_c, 1, 73, 0
2, 67720, Note_on_c, 1, 61, 127
2, 67720, Note_on_c, 1, 70, 127
2, 67720, Note_on_c, 1, 73, 127
2, 67880, Note_off_c, 1, 61, 0
2, 67880, Note_off_c, 1, 70, 0
2, 67880, Note_off_c, 1, 73, 0
2, 67920, Note_on_c, 1, 58, 127
2, 67920, Note_on_c, 1, 70, 127
2, 67920, Note_on_c, 1, 73, 127
2, 68080, Note_off_c, 1, 58, 0
2, 68120, Note_on_c, 1, 61, 127
2, 68280, Note_off_c, 1, 61, 0
2, 68320, Note_on_c, 1, 56, 127
2, 68320, Note_off_c, 1, 70, 0
2, 68320, Note_on_c, 1, 71, 127
2, 68320, Note_off_c, 1, 73, 0
2, 68320, Note_on_c, 1, 74, 127
2, 68480, Note_off_c, 1, 56, 0
2, 68480, Note_off_c, 1, 71, 0
2, 68480, Note_off_c, 1, 74, 0
2, 68520, Note_on_c, 1, 58, 127
2, 68520, Note_on_c, 1, 70, 127
2, 68520, Note_on_c, 1, 73, 127
2, 68680, Note_off_c, 1, 58, 0
2, 68720, Note_on_c, 1, 58, 127
2, 69080, Note_off_c, 1, 70, 0
2, 69120, Note_on_c, 1, 76, 127
2, 69320, Note_off_c, 1, 58, 0
2, 69320, Note_off_c, 1, 73, 0
2, 69320, Note_off_c, 1, 76, 0
2, 69360, Note_on_c, 1, 70, 127
2, 69360, Note_on_c, 1, 73, 127
2, 69360, Note_on_c, 1, 77, 127
2, 69680, Note_off_c, 1, 70, 0
2, 69680, Note_off_c, 1, 73, 0
2, 69680, Note_off_c, 1, 77, 0
2, 69720, Note_on_c, 1, 70, 127
2, 69720, Note_on_c, 1, 73, 127
2, 69720, Note_on_c, 1, 77, 127
2, 69800, Note_on_c, 1, 65, 127
2, 69960, Note_off_c, 1, 65, 0
2, 70000, Note_on_c, 1, 56, 127
2, 70000, Note_on_c, 1, 65, 127
2, 70000, Note_off_c, 1, 70, 0
2, 70000, Note_on_c, 1, 71, 127
2, 70000, Note_off_c, 1, 73, 0
2, 70160, Note_off_c, 1, 56, 0
2, 70160, Note_off_c, 1, 65, 0
2, 70200, Note_on_c, 1, 56, 127
2, 70360, Note_off_c, 1, 56, 0
2, 70400, Note_on_c, 1, 55, 127
2, 70560, Note_off_c, 1, 55, 0
2, 70560, Note_off_c, 1, 71, 0
2, 70560, Note_off_c, 1, 77, 0
2, 70600, Note_on_c, 1, 59, 127
2, 70600, Note_on_c, 1, 77, 127
2, 70760, Note_off_c, 1, 59, 0
2, 70800, Note_on_c, 1, 60, 127
2, 70960, Note_off_c, 1, 60, 0
2, 71000, Note_on_c, 1, 65, 127
2, 71400, Note_on_c, 1, 55, 127
2, 71600, Note_off_c, 1, 55, 0
2, 71600, Note_off_c, 1, 65, 0
2, 71640, Note_off_c, 1, 77, 0
2, 71680, Note_on_c, 1, 56, 127
2, 71680, Note_on_c, 1, 77, 127
2, 71840, Note_off_c, 1, 56, 0
2, 71880, Note_on_c, 1, 55, 127
2, 72040, Note_off_c, 1, 55, 0
2, 72080, Note_on_c, 1, 60, 127
2, 72240, Note_off_c, 1, 60, 0
2, 72240, Note_off_c, 1, 77, 0
2, 72280, Note_on_c, 1, 70, 127
2, 72280, Note_on_c, 1, 76, 127
2, 72440, Note_off_c, 1, 70, 0
2, 72480, Note_on_c, 1, 70, 127
2, 72640, Note_off_c, 1, 70, 0
2, 72640, Note_off_c, 1, 76, 0
2, 72680, Note_on_c, 1, 62, 127
2, 72680, Note_on_c, 1, 74, 127
2, 72840, Note_off_c, 1, 62, 0
2, 72880, Note_on_c, 1, 58, 127
2, 73080, Note_off_c, 1, 58, 0
2, 73120, Note_on_c, 1, 60, 127
2, 73280, Note_off_c, 1, 60, 0
2, 73320, Note_on_c, 1, 67, 127
2, 73480, Note_off_c, 1, 67, 0
2, 73480, Note_off_c, 1, 74, 0
2, 73520, Note_on_c, 1, 60, 127
2, 73520, Note_on_c, 1, 77, 127
2, 73680, Note_off_c, 1, 60, 0
2, 73680, Note_off_c, 1, 77, 0
2, 73760, Note_on_c, 1, 62, 127
2, 73760, Note_on_c, 1, 78, 127
2, 73920, Note_off_c, 1, 62, 0
2, 73960, Note_on_c, 1, 66, 127
2, 74120, Note_off_c, 1, 66, 0
2, 74120, Note_off_c, 1, 78, 0
2, 74160, Note_on_c, 1, 69, 127
2, 74160, Note_on_c, 1, 74, 127
2, 74320, Note_off_c, 1, 69, 0
2, 74360, Note_on_c, 1, 58, 127
2, 74520, Note_off_c, 1, 58, 0
2, 74560, Note_on_c, 1, 65, 127
2, 74720, Note_on_c, 1, 55, 127
2, 74720, Note_on_c, 1, 58, 127
2, 74720, Note_on_c, 1, 62, 127
2, 74720, Note_off_c, 1, 65, 0
2, 74720, Note_on_c, 1, 67, 127
2, 74720, Note_on_c, 1, 70, 127
2, 74720, Note_off_c, 1, 74, 0
2, 74760, Note_off_c, 1, 55, 0
2, 74760, Note_off_c, 1, 58, 0
2, 74760, Note_off_c, 1, 62, 0
2, 74760, Note_off_c, 1, 67, 0
2, 74760, Note_off_c, 1, 70, 0
2, 74760, Note_on_c, 1, 74, 127
2, 74800, Note_on_c, 1, 53, 127
2, 74960, Note_off_c, 1, 53, 0
2, 75000, Note_on_c, 1, 62, 127
2, 75160, Note_off_c, 1, 62, 0
2, 75160, Note_off_c, 1, 74, 0
2, 75200, Note_on_c, 1, 65, 127
2, 75360, Note_off_c, 1, 65, 0
2, 75400, Note_on_c, 1, 62, 127
2, 75560, Note_off_c, 1, 62, 0
2, 75600, Note_on_c, 1, 65, 127
2, 75600, Note_on_c, 1, 74, 127
2, 75760, Note_off_c, 1, 65, 0
2, 75800, Note_off_c, 1, 74, 0
2, 75840, Note_on_c, 1, 57, 127
2, 75840, Note_on_c, 1, 74, 127
2, 76040, Note_off_c, 1, 57, 0
2, 76040, Note_on_c, 1, 73, 127
2, 76040, Note_off_c, 1, 74, 0
2, 76080, Note_on_c, 1, 61, 127
2, 76240, Note_off_c, 1, 61, 0
2, 76280, Note_on_c, 1, 52, 127
2, 76440, Note_off_c, 1, 52, 0
2, 76440, Note_off_c, 1, 73, 0
2, 76480, Note_on_c, 1, 62, 127
2, 76640, Note_off_c, 1, 62, 0
2, 76680, Note_on_c, 1, 57, 127
2, 76840, Note_off_c, 1, 57, 0
2, 76880, Note_on_c, 1, 62, 127
2, 77040, Note_off_c, 1, 62, 0
2, 77080, Note_on_c, 1, 69, 127
2, 77240, Note_off_c, 1, 69, 0
2, 77280, Note_on_c, 1, 53, 127
2, 77440, Note_off_c, 1, 53, 0
2, 77480, Note_on_c, 1, 57, 127
2, 77680, Note_off_c, 1, 57, 0
2, 77720, Note_on_c, 1, 62, 127
2, 77880, Note_off_c, 1, 62, 0
2, 77960, Note_on_c, 1, 65, 127
2, 77960, Note_on_c, 1, 74, 127
2, 78120, Note_off_c, 1, 65, 0
2, 78160, Note_on_c, 1, 62, 127
2, 78320, Note_off_c, 1, 62, 0
2, 78320, Note_off_c, 1, 74, 0
2, 78360, Note_on_c, 1, 53, 127
2, 78360, Note_on_c, 1, 74, 127
2, 78520, Note_off_c, 1, 53, 0
2, 78560, Note_on_c, 1, 57, 127
2, 78760, Note_off_c, 1, 57, 0
2, 78800, Note_on_c, 1, 62, 127
2, 78960, Note_off_c, 1, 62, 0
2, 78960, Note_off_c, 1, 74, 0
2, 79000, Note_on_c, 1, 53, 127
2, 79200, Note_off_c, 1, 53, 0
2, 79200, Note_on_c, 1, 57, 127
2, 79360, Note_off_c, 1, 57, 0
2, 79360, Note_on_c, 1, 62, 127
2, 79400, Note_off_c, 1, 62, 0
2, 79400, Note_on_c, 1, 63, 127
2, 79400, Note_on_c, 1, 69, 127
2, 79560, Note_off_c, 1, 63, 0
2, 79600, Note_on_c, 1, 75, 127
2, 79760, Note_off_c, 1, 69, 0
2, 79760, Note_off_c, 1, 75, 0
2, 79800, Note_on_c, 1, 62, 127
2, 79800, Note_on_c, 1, 77, 127
2, 79960, Note_off_c, 1, 62, 0
2, 80000, Note_off_c, 1, 77, 0
2, 80040, Note_on_c, 1, 53, 127
2, 80040, Note_on_c, 1, 77, 127
2, 80200, Note_off_c, 1, 53, 0
2, 80240, Note_on_c, 1, 62, 127
2, 80400, Note_off_c, 1, 62, 0
2, 80400, Note_off_c, 1, 77, 0
2, 80440, Note_on_c, 1, 57, 127
2, 80640, Note_off_c, 1, 57, 0
2, 80680, Note_on_c, 1, 65, 127
2, 80680, Note_on_c, 1, 77, 127
2, 80840, Note_off_c, 1, 65, 0
2, 80880, Note_on_c, 1, 57, 127
2, 81040, Note_off_c, 1, 57, 0
2, 81040, Note_off_c, 1, 77, 0
2, 81080, Note_on_c, 1, 63, 127
2, 81080, Note_on_c, 1, 77, 127
2, 81240, Note_off_c, 1, 63, 0
2, 81240, Note_off_c, 1, 77, 0
2, 81280, Note_on_c, 1, 57, 127
2, 81280, Note_on_c, 1, 77, 127
2, 81440, Note_off_c, 1, 57, 0
2, 81480, Note_on_c, 1, 62, 127
2, 81640, Note_off_c, 1, 62, 0
2, 81680, Note_on_c, 1, 65, 127
2, 81840, Note_off_c, 1, 65, 0
2, 81880, Note_on_c, 1, 56, 127
2, 81960, Note_off_c, 1, 56, 0
2, 81960, Note_off_c, 1, 77, 0
2, 82000, Note_on_c, 1, 56, 127
2, 82000, Note_on_c, 1, 77, 127
2, 82080, Note_off_c, 1, 56, 0
2, 82080, Note_off_c, 1, 77, 0
2, 82120, Note_on_c, 1, 62, 127
2, 82120, Note_on_c, 1, 79, 127
2, 82280, Note_off_c, 1, 62, 0
2, 82320, Note_on_c, 1, 55, 127
2, 82520, Note_off_c, 1, 55, 0
2, 82520, Note_off_c, 1, 79, 0
2, 82560, Note_on_c, 1, 62, 127
2, 82560, Note_on_c, 1, 77, 127
2, 82720, Note_off_c, 1, 62, 0
2, 82720, Note_off_c, 1, 77, 0
2, 82760, Note_on_c, 1, 60, 127
2, 82760, Note_on_c, 1, 76, 127
2, 82920, Note_off_c, 1, 60, 0
2, 82920, Note_off_c, 1, 76, 0
2, 82960, Note_on_c, 1, 64, 127
2, 82960, Note_on_c, 1, 73, 127
2, 83120, Note_off_c, 1, 64, 0
2, 83120, Note_off_c, 1, 73, 0
2, 83160, Note_on_c, 1, 54, 127
2, 83160, Note_on_c, 1, 74, 127
2, 83320, Note_off_c, 1, 54, 0
2, 83360, Note_on_c, 1, 60, 127
2, 83520, Note_off_c, 1, 60, 0
2, 83560, Note_on_c, 1, 67, 127
2, 83760, Note_off_c, 1, 67, 0
2, 83760, Note_off_c, 1, 74, 0
2, 83800, Note_on_c, 1, 60, 127
2, 83960, Note_off_c, 1, 60, 0
2, 84040, Note_on_c, 1, 62, 127
2, 84040, Note_on_c, 1, 79, 127
2, 84200, Note_off_c, 1, 62, 0
2, 84240, Note_on_c, 1, 67, 127
2, 84400, Note_off_c, 1, 67, 0
2, 84440, Note_on_c, 1, 62, 127
2, 84600, Note_off_c, 1, 62, 0
2, 84640, Note_on_c, 1, 67, 127
2, 84800, Note_off_c, 1, 67, 0
2, 84800, Note_off_c, 1, 79, 0
2, 84840, Note_on_c, 1, 57, 127
2, 84840, Note_on_c, 1, 77, 127
2, 85000, Note_off_c, 1, 57, 0
2, 85040, Note_on_c, 1, 60, 127
2, 85200, Note_off_c, 1, 60, 0
2, 85240, Note_on_c, 1, 65, 127
2, 85440, Note_off_c, 1, 65, 0
2, 85480, Note_on_c, 1, 55, 127
2, 85640, Note_off_c, 1, 55, 0
2, 85680, Note_on_c, 1, 62, 127
2, 85840, Note_off_c, 1, 62, 0
2, 85880, Note_on_c, 1, 65, 127
2, 86040, Note_off_c, 1, 65, 0
2, 86040, Note_off_c, 1, 77, 0
2, 86080, Note_on_c, 1, 77, 127
2, 86120, Note_on_c, 1, 55, 127
2, 86120, Note_on_c, 1, 76, 127
2, 86120, Note_off_c, 1, 77, 0
2, 86280, Note_off_c, 1, 55, 0
2, 86320, Note_on_c, 1, 58, 127
2, 86520, Note_off_c, 1, 58, 0
2, 86520, Note_off_c, 1, 76, 0
2, 86560, Note_on_c, 1, 62, 127
2, 86560, Note_on_c, 1, 79, 127
2, 86720, Note_off_c, 1, 62, 0
2, 86720, Note_off_c, 1, 79, 0
2, 86760, Note_on_c, 1, 65, 127
2, 86760, Note_on_c, 1, 77, 127
2, 86920, Note_off_c, 1, 65, 0
2, 86920, Note_off_c, 1, 77, 0
2, 86960, Note_on_c, 1, 55, 127
2, 86960, Note_on_c, 1, 76, 127
2, 87120, Note_off_c, 1, 55, 0
2, 87160, Note_on_c, 1, 58, 127
2, 87320, Note_off_c, 1, 58, 0
2, 87360, Note_on_c, 1, 62, 127
2, 87520, Note_off_c, 1, 62, 0
2, 87520, Note_off_c, 1, 76, 0
2, 87560, Note_on_c, 1, 65, 127
2, 87560, Note_on_c, 1, 76, 127
2, 87760, Note_off_c, 1, 65, 0
2, 87760, Note_off_c, 1, 76, 0
2, 87800, Note_on_c, 1, 57, 127
2, 87800, Note_on_c, 1, 77, 127
2, 87960, Note_off_c, 1, 57, 0
2, 88000, Note_off_c, 1, 77, 0
2, 88040, Note_on_c, 1, 60, 127
2, 88040, Note_on_c, 1, 77, 127
2, 88200, Note_off_c, 1, 60, 0
2, 88240, Note_on_c, 1, 65, 127
2, 88400, Note_off_c, 1, 65, 0
2, 88400, Note_off_c, 1, 77, 0
2, 88440, Note_on_c, 1, 57, 127
2, 88440, Note_on_c, 1, 77, 127
2, 88600, Note_off_c, 1, 57, 0
2, 88640, Note_on_c, 1, 60, 127
2, 88840, Note_off_c, 1, 60, 0
2, 88840, Note_off_c, 1, 77, 0
2, 88880, Note_on_c, 1, 65, 127
2, 88880, Note_on_c, 1, 76, 127
2, 89040, Note_off_c, 1, 65, 0
2, 89040, Note_off_c, 1, 76, 0
2, 89080, Note_on_c, 1, 57, 127
2, 89080, Note_on_c, 1, 77, 127
2, 89240, Note_off_c, 1, 57, 0
2, 89280, Note_on_c, 1, 65, 127
2, 89440, Note_off_c, 1, 65, 0
2, 89480, Note_on_c, 1, 55, 127
2, 89640, Note_off_c, 1, 55, 0
2, 89640, Note_off_c, 1, 77, 0
2, 89680, Note_on_c, 1, 64, 127
2, 89680, Note_on_c, 1, 79, 127
2, 89840, Note_off_c, 1, 64, 0
2, 89880, Note_on_c, 1, 60, 127
2, 90080, Note_off_c, 1, 60, 0
2, 90080, Note_off_c, 1, 79, 0
2, 90160, Note_on_c, 1, 65, 127
2, 90160, Note_on_c, 1, 77, 127
2, 90320, Note_off_c, 1, 65, 0
2, 90320, Note_off_c, 1, 77, 0
2, 90360, Note_on_c, 1, 55, 127
2, 90360, Note_on_c, 1, 76, 127
2, 90520, Note_off_c, 1, 55, 0
2, 90560, Note_on_c, 1, 58, 127
2, 90720, Note_off_c, 1, 58, 0
2, 90720, Note_off_c, 1, 76, 0
2, 90760, Note_on_c, 1, 62, 127
2, 90760, Note_on_c, 1, 77, 127
2, 90920, Note_off_c, 1, 62, 0
2, 90960, Note_on_c, 1, 57, 127
2, 91120, Note_off_c, 1, 57, 0
2, 91160, Note_on_c, 1, 60, 127
2, 91320, Note_off_c, 1, 60, 0
2, 91320, Note_off_c, 1, 77, 0
2, 91360, Note_on_c, 1, 58, 127
2, 91360, Note_on_c, 1, 76, 127
2, 91560, Note_off_c, 1, 58, 0
2, 91600, Note_on_c, 1, 60, 127
2, 91760, Note_off_c, 1, 60, 0
2, 91800, Note_on_c, 1, 67, 127
2, 91960, Note_off_c, 1, 67, 0
2, 92000, Note_on_c, 1, 58, 127
2, 92160, Note_off_c, 1, 58, 0
2, 92160, Note_off_c, 1, 76, 0
2, 92240, Note_on_c, 1, 60, 127
2, 92240, Note_on_c, 1, 76, 127
2, 92440, Note_off_c, 1, 60, 0
2, 92480, Note_on_c, 1, 64, 127
2, 92640, Note_off_c, 1, 64, 0
2, 92680, Note_on_c, 1, 55, 127
2, 92840, Note_off_c, 1, 55, 0
2, 92840, Note_off_c, 1, 76, 0
2, 92880, Note_on_c, 1, 60, 127
2, 92880, Note_on_c, 1, 81, 127
2, 93040, Note_off_c, 1, 60, 0
2, 93080, Note_on_c, 1, 55, 127
2, 93240, Note_off_c, 1, 55, 0
2, 93280, Note_on_c, 1, 62, 127
2, 93480, Note_off_c, 1, 62, 0
2, 93520, Note_on_c, 1, 52, 127
2, 93680, Note_off_c, 1, 52, 0
2, 93680, Note_off_c, 1, 81, 0
2, 93720, Note_on_c, 1, 53, 127
2, 93720, Note_on_c, 1, 77, 127
2, 93880, Note_off_c, 1, 53, 0
2, 93880, Note_off_c, 1, 77, 0
2, 93920, Note_on_c, 1, 62, 127
2, 93920, Note_on_c, 1, 74, 127
2, 94120, Note_off_c, 1, 62, 0
2, 94120, Note_on_c, 1, 65, 127
2, 94320, Note_off_c, 1, 65, 0
2, 94320, Note_off_c, 1, 74, 0
2, 94400, Note_on_c, 1, 57, 127
2, 94400, Note_on_c, 1, 64, 127
2, 94400, Note_on_c, 1, 69, 127
2, 94400, Note_on_c, 1, 72, 127
2, 94400, Note_on_c, 1, 78, 127
2, 94440, Note_off_c, 1, 57, 0
2, 94440, Note_off_c, 1, 64, 0
2, 94440, Note_on_c, 1, 67, 127
2, 94440, Note_off_c, 1, 69, 0
2, 94440, Note_off_c, 1, 72, 0
2, 94440, Note_on_c, 1, 73, 127
2, 94440, Note_on_c, 1, 76, 127
2, 94440, Note_off_c, 1, 78, 0
2, 94440, Note_on_c, 1, 80, 127
2, 94480, Note_on_c, 1, 57, 127
2, 94480, Note_on_c, 1, 66, 127
2, 94480, Note_off_c, 1, 67, 0
2, 94480, Note_on_c, 1, 72, 127
2, 94480, Note_off_c, 1, 73, 0
2, 94480, Note_off_c, 1, 80, 0
2, 94520, Note_on_c, 1, 62, 127
2, 94520, Note_off_c, 1, 66, 0
2, 94520, Note_off_c, 1, 72, 0
2, 94520, Note_on_c, 1, 74, 127
2, 94520, Note_off_c, 1, 76, 0
2, 94520, Note_on_c, 1, 78, 127
2, 94560, Note_off_c, 1, 57, 0
2, 94560, Note_off_c, 1, 62, 0
2, 94560, Note_off_c, 1, 74, 0
2, 94560, Note_off_c, 1, 78, 0
2, 94600, Note_on_c, 1, 74, 127
2, 94800, Note_on_c, 1, 53, 127
2, 94960, Note_off_c, 1, 53, 0
2, 95000, Note_on_c, 1, 57, 127
2, 95160, Note_off_c, 1, 57, 0
2, 95200, Note_on_c, 1, 62, 127
2, 95360, Note_off_c, 1, 62, 0
2, 95400, Note_on_c, 1, 53, 127
2, 95600, Note_off_c, 1, 53, 0
2, 95640, Note_on_c, 1, 57, 127
2, 95800, Note_off_c, 1, 57, 0
2, 95840, Note_on_c, 1, 60, 127
2, 96000, Note_off_c, 1, 60, 0
2, 96240, Note_on_c, 1, 57, 127
2, 96240, Note_on_c, 1, 73, 127
2, 96240, Note_off_c, 1, 74, 0
2, 96400, Note_off_c, 1, 57, 0
2, 96400, Note_off_c, 1, 73, 0
2, 96440, Note_on_c, 1, 73, 127
2, 96480, Note_on_c, 1, 61, 127
2, 96640, Note_off_c, 1, 61, 0
2, 96680, Note_on_c, 1, 52, 127
2, 96840, Note_off_c, 1, 52, 0
2, 96880, Note_on_c, 1, 57, 127
2, 97080, Note_off_c, 1, 57, 0
2, 97080, Note_off_c, 1, 73, 0
2, 97120, Note_on_c, 1, 69, 127
2, 97120, Note_on_c, 1, 85, 127
2, 97280, Note_off_c, 1, 69, 0
2, 97320, Note_on_c, 1, 76, 127
2, 97480, Note_off_c, 1, 85, 0
2, 97520, Note_on_c, 1, 86, 127
2, 97560, Note_on_c, 1, 85, 127
2, 97560, Note_off_c, 1, 86, 0
2, 97600, Note_off_c, 1, 85, 0
2, 97600, Note_on_c, 1, 86, 127
2, 97680, Note_off_c, 1, 86, 0
2, 97720, Note_on_c, 1, 38, 127
2, 97880, Note_off_c, 1, 38, 0
2, 97880, Note_off_c, 1, 76, 0
2, 97920, Note_on_c, 1, 75, 127
2, 98120, Note_on_c, 1, 54, 127
2, 98280, Note_off_c, 1, 54, 0
2, 98320, Note_on_c, 1, 53, 127
2, 98400, Note_off_c, 1, 53, 0
2, 98400, Note_off_c, 1, 75, 0
2, 98440, Note_on_c, 1, 53, 127
2, 98440, Note_on_c, 1, 75, 127
2, 98520, Note_off_c, 1, 53, 0
2, 98520, Note_off_c, 1, 75, 0
2, 98560, Note_on_c, 1, 62, 127
2, 98560, Note_on_c, 1, 74, 127
2, 98720, Note_off_c, 1, 62, 0
2, 98760, Note_on_c, 1, 57, 127
2, 98960, Note_off_c, 1, 57, 0
2, 99000, Note_on_c, 1, 62, 127
2, 99160, Note_off_c, 1, 62, 0
2, 99200, Note_on_c, 1, 52, 127
2, 99360, Note_off_c, 1, 52, 0
2, 99360, Note_off_c, 1, 74, 0
2, 99400, Note_on_c, 1, 57, 127
2, 99400, Note_on_c, 1, 73, 127
2, 99560, Note_off_c, 1, 57, 0
2, 99600, Note_on_c, 1, 61, 127
2, 99760, Note_off_c, 1, 61, 0
2, 99800, Note_on_c, 1, 69, 127
2, 99960, Note_off_c, 1, 69, 0
2, 100000, Note_on_c, 1, 45, 127
2, 100200, Note_off_c, 1, 45, 0
2, 100240, Note_on_c, 1, 53, 127
2, 100400, Note_off_c, 1, 53, 0
2, 100400, Note_off_c, 1, 73, 0
2, 100480, Note_on_c, 1, 60, 127
2, 100480, Note_on_c, 1, 76, 127
2, 100640, Note_off_c, 1, 60, 0
2, 100680, Note_on_c, 1, 57, 127
2, 100840, Note_off_c, 1, 57, 0
2, 100840, Note_off_c, 1, 76, 0
2, 100880, Note_on_c, 1, 61, 127
2, 100880, Note_on_c, 1, 81, 127
2, 101040, Note_off_c, 1, 61, 0
2, 101080, Note_on_c, 1, 64, 127
2, 101240, Note_off_c, 1, 64, 0
2, 101280, Note_on_c, 1, 69, 127
2, 101480, Note_off_c, 1, 69, 0
2, 101520, Note_on_c, 1, 61, 127
2, 101680, Note_off_c, 1, 61, 0
2, 101720, Note_on_c, 1, 45, 127
2, 101880, Note_off_c, 1, 45, 0
2, 101920, Note_on_c, 1, 55, 127
2, 102080, Note_off_c, 1, 55, 0
2, 102120, Note_on_c, 1, 57, 127
2, 102320, Note_off_c, 1, 57, 0
2, 102360, Note_on_c, 1, 61, 127
2, 102520, Note_off_c, 1, 61, 0
2, 102520, Note_off_c, 1, 81, 0
2, 102600, Note_on_c, 1, 52, 127
2, 102600, Note_on_c, 1, 79, 127
2, 102760, Note_off_c, 1, 52, 0
2, 102800, Note_on_c, 1, 57, 127
2, 102960, Note_off_c, 1, 57, 0
2, 103000, Note_on_c, 1, 64, 127
2, 103160, Note_off_c, 1, 64, 0
2, 103160, Note_off_c, 1, 79, 0
2, 103200, Note_on_c, 1, 62, 127
2, 103200, Note_on_c, 1, 78, 127
2, 103360, Note_off_c, 1, 62, 0
2, 103400, Note_on_c, 1, 50, 127
2, 103560, Note_off_c, 1, 50, 0
2, 103600, Note_on_c, 1, 57, 127
2, 103800, Note_off_c, 1, 57, 0
2, 103840, Note_on_c, 1, 62, 127
2, 104000, Note_off_c, 1, 62, 0
2, 104040, Note_on_c, 1, 46, 127
2, 104200, Note_off_c, 1, 46, 0
2, 104240, Note_on_c, 1, 50, 127
2, 104400, Note_off_c, 1, 50, 0
2, 104400, Note_off_c, 1, 78, 0
2, 104440, Note_on_c, 1, 56, 127
2, 104440, Note_on_c, 1, 81, 127
2, 104600, Note_off_c, 1, 56, 0
2, 104600, Note_off_c, 1, 81, 0
2, 104680, Note_on_c, 1, 59, 127
2, 104680, Note_on_c, 1, 80, 127
2, 104840, Note_off_c, 1, 59, 0
2, 104880, Note_on_c, 1, 62, 127
2, 104880, Note_off_c, 1, 80, 0
2, 104880, Note_on_c, 1, 91, 127
2, 105040, Note_on_c, 1, 89, 127
2, 105040, Note_off_c, 1, 91, 0
2, 105080, Note_off_c, 1, 62, 0
2, 105080, Note_off_c, 1, 89, 0
2, 105120, Note_on_c, 1, 53, 127
2, 105120, Note_on_c, 1, 86, 127
2, 105280, Note_off_c, 1, 53, 0
2, 105320, Note_on_c, 1, 62, 127
2, 105480, Note_off_c, 1, 62, 0
2, 105520, Note_on_c, 1, 57, 127
2, 105680, Note_off_c, 1, 57, 0
2, 105720, Note_on_c, 1, 38, 127
2, 105720, Note_on_c, 1, 81, 127
2, 105720, Note_off_c, 1, 86, 0
2, 105880, Note_off_c, 1, 38, 0
2, 105880, Note_off_c, 1, 81, 0
2, 105920, Note_on_c, 1, 50, 127
2, 105920, Note_on_c, 1, 79, 127
2, 106120, Note_off_c, 1, 50, 0
2, 106120, Note_off_c, 1, 79, 0
2, 106160, Note_on_c, 1, 59, 127
2, 106160, Note_on_c, 1, 78, 127
2, 106320, Note_off_c, 1, 59, 0
2, 106320, Note_off_c, 1, 78, 0
2, 106360, Note_on_c, 1, 60, 127
2, 106360, Note_on_c, 1, 76, 127
2, 106520, Note_off_c, 1, 60, 0
2, 106520, Note_off_c, 1, 76, 0
2, 106560, Note_on_c, 1, 54, 127
2, 106560, Note_on_c, 1, 74, 127
2, 106720, Note_off_c, 1, 54, 0
2, 106720, Note_off_c, 1, 74, 0
2, 106760, Note_on_c, 1, 74, 127
2, 106800, Note_on_c, 1, 57, 127
2, 107000, Note_off_c, 1, 57, 0
2, 107040, Note_on_c, 1, 60, 127
2, 107200, Note_off_c, 1, 60, 0
2, 107200, Note_off_c, 1, 74, 0
2, 107240, Note_on_c, 1, 53, 127
2, 107240, Note_on_c, 1, 74, 127
2, 107400, Note_off_c, 1, 53, 0
2, 107440, Note_on_c, 1, 57, 127
2, 107600, Note_off_c, 1, 57, 0
2, 107640, Note_on_c, 1, 62, 127
2, 107800, Note_off_c, 1, 62, 0
2, 107840, Note_on_c, 1, 57, 127
2, 108040, Note_off_c, 1, 57, 0
2, 108080, Note_on_c, 1, 38, 127
2, 108240, Note_off_c, 1, 38, 0
2, 108280, Note_on_c, 1, 45, 127
2, 108440, Note_off_c, 1, 45, 0
2, 108480, Note_on_c, 1, 50, 127
2, 108640, Note_off_c, 1, 50, 0
2, 108680, Note_on_c, 1, 38, 127
2, 108880, Note_off_c, 1, 38, 0
2, 108880, Note_off_c, 1, 74, 0
2, 108960, Note_on_c, 1, 57, 127
2, 108960, Note_on_c, 1, 73, 127
2, 109120, Note_off_c, 1, 57, 0
2, 109160, Note_on_c, 1, 52, 127
2, 109320, Note_off_c, 1, 52, 0
2, 109360, Note_on_c, 1, 61, 127
2, 109520, Note_off_c, 1, 61, 0
2, 109520, Note_off_c, 1, 73, 0
2, 109560, Note_on_c, 1, 52, 127
2, 109560, Note_on_c, 1, 73, 127
2, 109760, Note_off_c, 1, 52, 0
2, 109800, Note_on_c, 1, 61, 127
2, 109960, Note_off_c, 1, 61, 0
2, 110000, Note_on_c, 1, 52, 127
2, 110160, Note_off_c, 1, 52, 0
2, 110160, Note_off_c, 1, 73, 0
2, 110200, Note_on_c, 1, 45, 127
2, 110200, Note_on_c, 1, 69, 127
2, 110360, Note_off_c, 1, 45, 0
2, 110400, Note_on_c, 1, 52, 127
2, 110560, Note_off_c, 1, 52, 0
2, 110600, Note_on_c, 1, 61, 127
2, 110800, Note_off_c, 1, 61, 0
2, 110840, Note_on_c, 1, 33, 127
2, 111000, Note_off_c, 1, 33, 0
2, 111000, Note_off_c, 1, 69, 0
2, 111080, Note_on_c, 1, 45, 127
2, 111080, Note_on_c, 1, 73, 127
2, 111240, Note_off_c, 1, 45, 0
2, 111280, Note_on_c, 1, 54, 127
2, 111440, Note_off_c, 1, 54, 0
2, 111480, Note_on_c, 1, 61, 127
2, 111640, Note_off_c, 1, 61, 0
2, 111680, Note_on_c, 1, 52, 127
2, 111840, Note_off_c, 1, 52, 0
2, 111880, Note_on_c, 1, 54, 127
2, 112080, Note_off_c, 1, 54, 0
2, 112120, Note_on_c, 1, 50, 127
2, 112280, Note_off_c, 1, 50, 0
2, 112280, Note_off_c, 1, 73, 0
2, 112320, Note_on_c, 1, 57, 127
2, 112320, Note_on_c, 1, 73, 127
2, 112480, Note_off_c, 1, 57, 0
2, 112480, Note_off_c, 1, 73, 0
2, 112520, Note_on_c, 1, 52, 127
2, 112520, Note_on_c, 1, 74, 127
2, 112680, Note_off_c, 1, 52, 0
2, 112680, Note_off_c, 1, 74, 0
2, 112720, Note_on_c, 1, 57, 127
2, 112720, Note_on_c, 1, 73, 127
2, 112920, Note_off_c, 1, 57, 0
2, 112920, Note_off_c, 1, 73, 0
2, 112960, Note_on_c, 1, 56, 127
2, 112960, Note_on_c, 1, 71, 127
2, 113120, Note_off_c, 1, 56, 0
2, 113120, Note_off_c, 1, 71, 0
2, 113200, Note_on_c, 1, 61, 127
2, 113200, Note_on_c, 1, 69, 127
2, 113360, Note_off_c, 1, 61, 0
2, 113360, Note_off_c, 1, 69, 0
2, 113400, Note_on_c, 1, 45, 127
2, 113400, Note_on_c, 1, 81, 127
2, 113800, Note_off_c, 1, 45, 0
2, 113800, Note_off_c, 1, 81, 0
2, 114040, Note_on_c, 1, 78, 127
2, 114200, Note_off_c, 1, 78, 0
2, 114240, Note_on_c, 1, 79, 127
2, 114400, Note_off_c, 1, 79, 0
2, 114440, Note_on_c, 1, 81, 127
2, 114600, Note_off_c, 1, 81, 0
2, 114640, Note_on_c, 1, 53, 127
2, 114640, Note_on_c, 1, 81, 127
2, 114840, Note_off_c, 1, 53, 0
2, 114840, Note_off_c, 1, 81, 0
2, 114880, Note_on_c, 1, 62, 127
2, 114880, Note_on_c, 1, 80, 127
2, 115040, Note_off_c, 1, 62, 0
2, 115040, Note_off_c, 1, 80, 0
2, 115080, Note_on_c, 1, 66, 127
2, 115080, Note_on_c, 1, 83, 127
2, 115240, Note_off_c, 1, 66, 0
2, 115240, Note_off_c, 1, 83, 0
2, 115320, Note_on_c, 1, 71, 127
2, 115320, Note_on_c, 1, 86, 127
2, 115480, Note_off_c, 1, 71, 0
2, 115480, Note_off_c, 1, 86, 0
2, 115520, Note_on_c, 1, 57, 127
2, 115520, Note_on_c, 1, 73, 127
2, 115720, Note_off_c, 1, 57, 0
2, 115720, Note_off_c, 1, 73, 0
2, 115760, Note_on_c, 1, 57, 127
2, 115760, Note_on_c, 1, 76, 127
2, 115920, Note_off_c, 1, 57, 0
2, 115920, Note_off_c, 1, 76, 0
2, 115960, Note_on_c, 1, 81, 127
2, 116120, Note_off_c, 1, 81, 0
2, 116160, Note_on_c, 1, 46, 127
2, 116160, Note_on_c, 1, 76, 127
2, 116520, Note_off_c, 1, 46, 0
2, 116760, Note_off_c, 1, 76, 0
2, 116800, Note_on_c, 1, 41, 127
2, 116800, Note_on_c, 1, 74, 127
2, 116960, Note_off_c, 1, 41, 0
2, 117200, Note_on_c, 1, 53, 127
2, 117360, Note_off_c, 1, 74, 0
2, 117400, Note_on_c, 1, 74, 127
2, 117520, Note_off_c, 1, 53, 0
2, 117520, Note_off_c, 1, 74, 0
2, 117560, Note_on_c, 1, 53, 127
2, 117560, Note_on_c, 1, 74, 127
2, 117640, Note_off_c, 1, 53, 0
2, 117640, Note_off_c, 1, 74, 0
2, 117680, Note_on_c, 1, 57, 127
2, 117680, Note_on_c, 1, 73, 127
2, 117840, Note_off_c, 1, 57, 0
2, 117840, Note_off_c, 1, 73, 0
2, 117880, Note_on_c, 1, 62, 127
2, 118040, Note_off_c, 1, 62, 0
2, 118080, Note_on_c, 1, 73, 127
2, 118280, Note_on_c, 1, 50, 127
2, 118640, Note_off_c, 1, 50, 0
2, 118640, Note_off_c, 1, 73, 0
2, 118680, Note_on_c, 1, 65, 127
2, 118840, Note_off_c, 1, 65, 0
2, 118880, Note_on_c, 1, 69, 127
2, 119080, Note_off_c, 1, 69, 0
2, 119120, Note_on_c, 1, 54, 127
2, 119120, Note_on_c, 1, 74, 127
2, 119280, Note_off_c, 1, 54, 0
2, 119320, Note_on_c, 1, 57, 127
2, 119480, Note_off_c, 1, 57, 0
2, 119480, Note_off_c, 1, 74, 0
2, 119520, Note_on_c, 1, 65, 127
2, 119520, Note_on_c, 1, 74, 127
2, 119640, Note_off_c, 1, 65, 0
2, 119640, Note_off_c, 1, 74, 0
2, 119680, Note_on_c, 1, 65, 127
2, 119680, Note_on_c, 1, 74, 127
2, 119720, Note_off_c, 1, 65, 0
2, 119760, Note_on_c, 1, 57, 127
2, 119960, Note_off_c, 1, 57, 0
2, 120000, Note_off_c, 1, 74, 0
2, 120040, End_track
3, 0, Start_track
3, 0, Title_t, "MIDI"
3, 1536, End_track
0, 0, End_of_file
