0, 0, Header, 1, 3, 192
1, 0, Start_track
1, 0, Time_signature, 4, 2, 24, 8
1, 0, Tempo, 500000
1, 120040, End_track
2, 0, Start_track
2, 0, Text_t, "random instrument: random person i dunno whatev"
2, 0, Title_t, "Track 1"
2, 0, Note_on_c, 1, 40, 127
2, 0, Note_on_c, 1, 48, 127
2, 0, Note_on_c, 1, 56, 127
2, 0, Note_on_c, 1, 60, 127
2, 160, Note_off_c, 1, 40, 0
2, 160, Note_off_c, 1, 48, 0
2, 160, Note_off_c, 1, 56, 0
2, 160, Note_off_c, 1, 60, 0
2, 200, Note_on_c, 1, 35, 127
2, 200, Note_on_c, 1, 39, 127
2, 200, Note_on_c, 1, 47, 127
2, 200, Note_on_c, 1, 50, 127
2, 240, Note_off_c, 1, 35, 0
2, 240, Note_off_c, 1, 39, 0
2, 240, Note_off_c, 1, 47, 0
2, 240, Note_off_c, 1, 50, 0
2, 520, Note_on_c, 1, 42, 127
2, 520, Note_on_c, 1, 46, 127
2, 520, Note_on_c, 1, 49, 127
2, 520, Note_on_c, 1, 54, 127
2, 520, Note_on_c, 1, 66, 127
2, 520, Note_on_c, 1, 70, 127
2, 520, Note_on_c, 1, 73, 127
2, 520, Note_on_c, 1, 78, 127
2, 560, Note_off_c, 1, 42, 0
2, 560, Note_off_c, 1, 46, 0
2, 560, Note_off_c, 1, 49, 0
2, 560, Note_off_c, 1, 54, 0
2, 560, Note_off_c, 1, 66, 0
2, 560, Note_off_c, 1, 70, 0
2, 560, Note_off_c, 1, 73, 0
2, 560, Note_off_c, 1, 78, 0
2, 5240, Note_on_c, 1, 43, 127
2, 5240, Note_on_c, 1, 50, 127
2, 5240, Note_on_c, 1, 60, 127
2, 5240, Note_on_c, 1, 62, 127
2, 5240, Note_on_c, 1, 69, 127
2, 5480, Note_off_c, 1, 43, 0
2, 5480, Note_off_c, 1, 50, 0
2, 5480, Note_off_c, 1, 60, 0
2, 5480, Note_off_c, 1, 62, 0
2, 5480, Note_off_c, 1, 69, 0
2, 14680, Note_on_c, 1, 56, 127
2, 14680, Note_on_c, 1, 71, 127
2, 14680, Note_on_c, 1, 83, 127
2, 15240, Note_off_c, 1, 56, 0
2, 15240, Note_off_c, 1, 71, 0
2, 15240, Note_off_c, 1, 83, 0
2, 15280, Note_on_c, 1, 57, 127
2, 15280, Note_on_c, 1, 66, 127
2, 15280, Note_on_c, 1, 69, 127
2, 15280, Note_on_c, 1, 78, 127
2, 15960, Note_off_c, 1, 66, 0
2, 16000, Note_on_c, 1, 66, 127
2, 16000, Note_on_c, 1, 76, 127
2, 16000, Note_off_c, 1, 78, 0
2, 16080, Note_on_c, 1, 60, 127
2, 16080, Note_on_c, 1, 63, 127
2, 16080, Note_off_c, 1, 66, 0
2, 16080, Note_off_c, 1, 69, 0
2, 16080, Note_on_c, 1, 72, 127
2, 16080, Note_off_c, 1, 76, 0
2, 16080, Note_on_c, 1, 78, 127
2, 16080, Note_on_c, 1, 83, 127
2, 16120, Note_off_c, 1, 57, 0
2, 16120, Note_off_c, 1, 60, 0
2, 16120, Note_off_c, 1, 63, 0
2, 16120, Note_off_c, 1, 72, 0
2, 16120, Note_off_c, 1, 78, 0
2, 16120, Note_off_c, 1, 83, 0
2, 16160, Note_on_c, 1, 57, 127
2, 16160, Note_on_c, 1, 63, 127
2, 16160, Note_on_c, 1, 72, 127
2, 16160, Note_on_c, 1, 78, 127
2, 16520, Note_off_c, 1, 63, 0
2, 16520, Note_on_c, 1, 64, 127
2, 16520, Note_on_c, 1, 76, 127
2, 16520, Note_off_c, 1, 78, 0
2, 16840, Note_off_c, 1, 64, 0
2, 16840, Note_off_c, 1, 72, 0
2, 16840, Note_off_c, 1, 76, 0
2, 16880, Note_on_c, 1, 52, 127
2, 16880, Note_off_c, 1, 57, 0
2, 16880, Note_on_c, 1, 59, 127
2, 16880, Note_on_c, 1, 67, 127
2, 16880, Note_on_c, 1, 79, 127
2, 17080, Note_off_c, 1, 52, 0
2, 17080, Note_off_c, 1, 59, 0
2, 17080, Note_off_c, 1, 67, 0
2, 17080, Note_off_c, 1, 79, 0
2, 17120, Note_on_c, 1, 52, 127
2, 17120, Note_on_c, 1, 59, 127
2, 17120, Note_on_c, 1, 67, 127
2, 17120, Note_on_c, 1, 79, 127
2, 17600, Note_off_c, 1, 52, 0
2, 17600, Note_off_c, 1, 59, 0
2, 17600, Note_off_c, 1, 67, 0
2, 17640, Note_on_c, 1, 52, 127
2, 17640, Note_on_c, 1, 59, 127
2, 17640, Note_on_c, 1, 67, 127
2, 18680, Note_off_c, 1, 52, 0
2, 18680, Note_on_c, 1, 55, 127
2, 18680, Note_off_c, 1, 59, 0
2, 18680, Note_off_c, 1, 67, 0
2, 18720, Note_on_c, 1, 52, 127
2, 18720, Note_on_c, 1, 67, 127
2, 19040, Note_off_c, 1, 55, 0
2, 19040, Note_off_c, 1, 79, 0
2, 19080, Note_on_c, 1, 49, 127
2, 19080, Note_off_c, 1, 52, 0
2, 19080, Note_on_c, 1, 56, 127
2, 19080, Note_on_c, 1, 59, 127
2, 19080, Note_off_c, 1, 67, 0
2, 19080, Note_on_c, 1, 82, 127
2, 19280, Note_off_c, 1, 49, 0
2, 19280, Note_off_c, 1, 56, 0
2, 19280, Note_off_c, 1, 59, 0
2, 19280, Note_off_c, 1, 82, 0
2, 19320, Note_on_c, 1, 49, 127
2, 19320, Note_on_c, 1, 56, 127
2, 19320, Note_on_c, 1, 59, 127
2, 19320, Note_on_c, 1, 82, 127
2, 19800, Note_off_c, 1, 49, 0
2, 19800, Note_off_c, 1, 56, 0
2, 19800, Note_off_c, 1, 59, 0
2, 19800, Note_off_c, 1, 82, 0
2, 19840, Note_on_c, 1, 55, 127
2, 19840, Note_on_c, 1, 57, 127
2, 19840, Note_on_c, 1, 64, 127
2, 19840, Note_on_c, 1, 76, 127
2, 20520, Note_off_c, 1, 55, 0
2, 20520, Note_off_c, 1, 57, 0
2, 20520, Note_off_c, 1, 64, 0
2, 20520, Note_off_c, 1, 76, 0
2, 20560, Note_on_c, 1, 52, 127
2, 20560, Note_on_c, 1, 64, 127
2, 21280, Note_off_c, 1, 52, 0
2, 21280, Note_off_c, 1, 64, 0
2, 21360, Note_on_c, 1, 52, 127
2, 21360, Note_on_c, 1, 64, 127
2, 22040, Note_off_c, 1, 52, 0
2, 22040, Note_off_c, 1, 64, 0
2, 22080, Note_on_c, 1, 48, 127
2, 22080, Note_on_c, 1, 60, 127
2, 22400, Note_off_c, 1, 48, 0
2, 22400, Note_off_c, 1, 60, 0
2, 22440, Note_on_c, 1, 52, 127
2, 22440, Note_on_c, 1, 64, 127
2, 22760, Note_off_c, 1, 52, 0
2, 22760, Note_off_c, 1, 64, 0
2, 22800, Note_on_c, 1, 49, 127
2, 22800, Note_on_c, 1, 61, 127
2, 23120, Note_off_c, 1, 49, 0
2, 23120, Note_off_c, 1, 61, 0
2, 23160, Note_on_c, 1, 47, 127
2, 23160, Note_on_c, 1, 59, 127
2, 23360, Note_off_c, 1, 47, 0
2, 23360, Note_off_c, 1, 59, 0
2, 23400, Note_on_c, 1, 47, 127
2, 23400, Note_on_c, 1, 59, 127
2, 23520, Note_off_c, 1, 47, 0
2, 23520, Note_off_c, 1, 59, 0
2, 23560, Note_on_c, 1, 52, 127
2, 23560, Note_on_c, 1, 64, 127
2, 23880, Note_off_c, 1, 52, 0
2, 23880, Note_off_c, 1, 64, 0
2, 23920, Note_on_c, 1, 51, 127
2, 23920, Note_on_c, 1, 63, 127
2, 24240, Note_off_c, 1, 51, 0
2, 24240, Note_off_c, 1, 63, 0
2, 24280, Note_on_c, 1, 52, 127
2, 24280, Note_on_c, 1, 64, 127
2, 24600, Note_off_c, 1, 52, 0
2, 24600, Note_off_c, 1, 64, 0
2, 24640, Note_on_c, 1, 49, 127
2, 24640, Note_on_c, 1, 61, 127
2, 24960, Note_off_c, 1, 49, 0
2, 24960, Note_off_c, 1, 61, 0
2, 25000, Note_on_c, 1, 50, 127
2, 25000, Note_on_c, 1, 62, 127
2, 25320, Note_off_c, 1, 50, 0
2, 25320, Note_off_c, 1, 62, 0
2, 25360, Note_on_c, 1, 49, 127
2, 25360, Note_on_c, 1, 61, 127
2, 25440, Note_off_c, 1, 49, 0
2, 25440, Note_off_c, 1, 61, 0
2, 25480, Note_on_c, 1, 49, 127
2, 25480, Note_on_c, 1, 61, 127
2, 25520, Note_off_c, 1, 49, 0
2, 25520, Note_off_c, 1, 61, 0
2, 25560, Note_on_c, 1, 50, 127
2, 25560, Note_on_c, 1, 62, 127
2, 25720, Note_off_c, 1, 50, 0
2, 25720, Note_off_c, 1, 62, 0
2, 25760, Note_on_c, 1, 44, 127
2, 25760, Note_on_c, 1, 56, 127
2, 26040, Note_off_c, 1, 44, 0
2, 26040, Note_off_c, 1, 56, 0
2, 26120, Note_on_c, 1, 47, 127
2, 26120, Note_on_c, 1, 59, 127
2, 26400, Note_off_c, 1, 47, 0
2, 26400, Note_off_c, 1, 59, 0
2, 26480, Note_on_c, 1, 47, 127
2, 26480, Note_on_c, 1, 59, 127
2, 26800, Note_off_c, 1, 47, 0
2, 26800, Note_off_c, 1, 59, 0
2, 27200, Note_on_c, 1, 45, 127
2, 27200, Note_on_c, 1, 57, 127
2, 27320, Note_off_c, 1, 45, 0
2, 27320, Note_off_c, 1, 57, 0
2, 27440, Note_on_c, 1, 37, 127
2, 27440, Note_on_c, 1, 49, 127
2, 27520, Note_off_c, 1, 37, 0
2, 27520, Note_off_c, 1, 49, 0
2, 27600, Note_on_c, 1, 40, 127
2, 27600, Note_on_c, 1, 52, 127
2, 27920, Note_off_c, 1, 40, 0
2, 27920, Note_off_c, 1, 52, 0
2, 27960, Note_on_c, 1, 35, 127
2, 27960, Note_on_c, 1, 47, 127
2, 28280, Note_off_c, 1, 35, 0
2, 28280, Note_off_c, 1, 47, 0
2, 28320, Note_on_c, 1, 36, 127
2, 28320, Note_on_c, 1, 48, 127
2, 29000, Note_off_c, 1, 36, 0
2, 29040, Note_on_c, 1, 36, 127
2, 29440, Note_off_c, 1, 36, 0
2, 29440, Note_off_c, 1, 48, 0
2, 29480, Note_on_c, 1, 36, 127
2, 29480, Note_on_c, 1, 48, 127
2, 30160, Note_off_c, 1, 36, 0
2, 30160, Note_off_c, 1, 48, 0
2, 30200, Note_on_c, 1, 35, 127
2, 30200, Note_on_c, 1, 47, 127
2, 30880, Note_off_c, 1, 35, 0
2, 30880, Note_off_c, 1, 47, 0
2, 30920, Note_on_c, 1, 35, 127
2, 30920, Note_on_c, 1, 47, 127
2, 31520, Note_off_c, 1, 35, 0
2, 31520, Note_off_c, 1, 47, 0
2, 31560, Note_on_c, 1, 35, 127
2, 31560, Note_on_c, 1, 47, 127
2, 31680, Note_off_c, 1, 35, 0
2, 31680, Note_off_c, 1, 47, 0
2, 31720, Note_on_c, 1, 35, 127
2, 31720, Note_on_c, 1, 47, 127
2, 32400, Note_off_c, 1, 35, 0
2, 32400, Note_off_c, 1, 47, 0
2, 32480, Note_on_c, 1, 35, 127
2, 32480, Note_on_c, 1, 47, 127
2, 33160, Note_off_c, 1, 35, 0
2, 33160, Note_off_c, 1, 47, 0
2, 33200, Note_on_c, 1, 35, 127
2, 33200, Note_on_c, 1, 47, 127
2, 33600, Note_off_c, 1, 35, 0
2, 33600, Note_off_c, 1, 47, 0
2, 33640, Note_on_c, 1, 35, 127
2, 33640, Note_on_c, 1, 47, 127
2, 33960, Note_off_c, 1, 35, 0
2, 33960, Note_off_c, 1, 47, 0
2, 34000, Note_on_c, 1, 35, 127
2, 34000, Note_on_c, 1, 47, 127
2, 34320, Note_off_c, 1, 35, 0
2, 34320, Note_off_c, 1, 47, 0
2, 34360, Note_on_c, 1, 34, 127
2, 34360, Note_on_c, 1, 46, 127
2, 35040, Note_off_c, 1, 34, 0
2, 35040, Note_off_c, 1, 46, 0
2, 35080, Note_on_c, 1, 32, 127
2, 35080, Note_on_c, 1, 44, 127
2, 35400, Note_off_c, 1, 32, 0
2, 35400, Note_off_c, 1, 44, 0
2, 35440, Note_on_c, 1, 32, 127
2, 35440, Note_on_c, 1, 44, 127
2, 35640, Note_off_c, 1, 32, 0
2, 35640, Note_off_c, 1, 44, 0
2, 35680, Note_on_c, 1, 32, 127
2, 35680, Note_on_c, 1, 44, 127
2, 35800, Note_off_c, 1, 32, 0
2, 35800, Note_off_c, 1, 44, 0
2, 35840, Note_on_c, 1, 35, 127
2, 35840, Note_on_c, 1, 47, 127
2, 35880, Note_off_c, 1, 35, 0
2, 35880, Note_off_c, 1, 47, 0
2, 35920, Note_on_c, 1, 40, 127
2, 35920, Note_on_c, 1, 52, 127
2, 35960, Note_off_c, 1, 40, 0
2, 35960, Note_off_c, 1, 52, 0
2, 36200, Note_on_c, 1, 44, 127
2, 36200, Note_on_c, 1, 56, 127
2, 36240, Note_off_c, 1, 44, 0
2, 36240, Note_off_c, 1, 56, 0
2, 36360, Note_on_c, 1, 44, 127
2, 36360, Note_on_c, 1, 56, 127
2, 36520, Note_off_c, 1, 44, 0
2, 36520, Note_off_c, 1, 56, 0
2, 38040, Note_on_c, 1, 40, 127
2, 38040, Note_on_c, 1, 52, 127
2, 38840, Note_off_c, 1, 40, 0
2, 38840, Note_off_c, 1, 52, 0
2, 38880, Note_on_c, 1, 40, 127
2, 38880, Note_on_c, 1, 52, 127
2, 39880, Note_off_c, 1, 52, 0
2, 39920, Note_off_c, 1, 40, 0
2, 39960, Note_on_c, 1, 45, 127
2, 39960, Note_on_c, 1, 57, 127
2, 40280, Note_off_c, 1, 45, 0
2, 40280, Note_off_c, 1, 57, 0
2, 40320, Note_on_c, 1, 44, 127
2, 40320, Note_on_c, 1, 56, 127
2, 40640, Note_off_c, 1, 44, 0
2, 40640, Note_off_c, 1, 56, 0
2, 40680, Note_on_c, 1, 45, 127
2, 40680, Note_on_c, 1, 57, 127
2, 41000, Note_off_c, 1, 45, 0
2, 41000, Note_off_c, 1, 57, 0
2, 41080, Note_on_c, 1, 45, 127
2, 41080, Note_on_c, 1, 57, 127
2, 41400, Note_off_c, 1, 45, 0
2, 41400, Note_off_c, 1, 57, 0
2, 41440, Note_on_c, 1, 44, 127
2, 41440, Note_on_c, 1, 56, 127
2, 41760, Note_off_c, 1, 44, 0
2, 41760, Note_off_c, 1, 56, 0
2, 41800, Note_on_c, 1, 45, 127
2, 41800, Note_on_c, 1, 57, 127
2, 42120, Note_off_c, 1, 45, 0
2, 42120, Note_off_c, 1, 57, 0
2, 42200, Note_on_c, 1, 45, 127
2, 42200, Note_on_c, 1, 57, 127
2, 42520, Note_off_c, 1, 45, 0
2, 42520, Note_off_c, 1, 57, 0
2, 42560, Note_on_c, 1, 56, 127
2, 42560, Note_on_c, 1, 68, 127
2, 42880, Note_off_c, 1, 56, 0
2, 42880, Note_off_c, 1, 68, 0
2, 42920, Note_on_c, 1, 57, 127
2, 42920, Note_on_c, 1, 69, 127
2, 43120, Note_off_c, 1, 57, 0
2, 43120, Note_off_c, 1, 69, 0
2, 43160, Note_on_c, 1, 57, 127
2, 43160, Note_on_c, 1, 69, 127
2, 43280, Note_off_c, 1, 57, 0
2, 43280, Note_off_c, 1, 69, 0
2, 43320, Note_on_c, 1, 56, 127
2, 43320, Note_on_c, 1, 68, 127
2, 44000, Note_off_c, 1, 56, 0
2, 44000, Note_off_c, 1, 68, 0
2, 44040, Note_on_c, 1, 57, 127
2, 44040, Note_on_c, 1, 69, 127
2, 44360, Note_off_c, 1, 57, 0
2, 44360, Note_off_c, 1, 69, 0
2, 44400, Note_on_c, 1, 53, 127
2, 44400, Note_on_c, 1, 65, 127
2, 44720, Note_off_c, 1, 53, 0
2, 44720, Note_off_c, 1, 65, 0
2, 44760, Note_on_c, 1, 50, 127
2, 44760, Note_on_c, 1, 62, 127
2, 45080, Note_off_c, 1, 50, 0
2, 45080, Note_off_c, 1, 62, 0
2, 45120, Note_on_c, 1, 47, 127
2, 45120, Note_on_c, 1, 59, 127
2, 45280, Note_off_c, 1, 47, 0
2, 45280, Note_off_c, 1, 59, 0
2, 45320, Note_on_c, 1, 47, 127
2, 45320, Note_on_c, 1, 59, 127
2, 45480, Note_off_c, 1, 47, 0
2, 45480, Note_off_c, 1, 59, 0
2, 45520, Note_on_c, 1, 45, 127
2, 45520, Note_on_c, 1, 57, 127
2, 45840, Note_off_c, 1, 45, 0
2, 45840, Note_off_c, 1, 57, 0
2, 45880, Note_on_c, 1, 58, 127
2, 45880, Note_on_c, 1, 70, 127
2, 46200, Note_off_c, 1, 58, 0
2, 46200, Note_off_c, 1, 70, 0
2, 46240, Note_on_c, 1, 57, 127
2, 46240, Note_on_c, 1, 69, 127
2, 46960, Note_off_c, 1, 57, 0
2, 46960, Note_off_c, 1, 69, 0
2, 47000, Note_on_c, 1, 38, 127
2, 47000, Note_on_c, 1, 50, 127
2, 47000, Note_on_c, 1, 57, 127
2, 47000, Note_on_c, 1, 62, 127
2, 47000, Note_on_c, 1, 65, 127
2, 47360, Note_off_c, 1, 38, 0
2, 47360, Note_off_c, 1, 50, 0
2, 47360, Note_off_c, 1, 57, 0
2, 47360, Note_off_c, 1, 62, 0
2, 47360, Note_off_c, 1, 65, 0
2, 47400, Note_on_c, 1, 38, 127
2, 47400, Note_on_c, 1, 50, 127
2, 47400, Note_on_c, 1, 57, 127
2, 47400, Note_on_c, 1, 62, 127
2, 47400, Note_on_c, 1, 65, 127
2, 47720, Note_off_c, 1, 38, 0
2, 47720, Note_off_c, 1, 50, 0
2, 47720, Note_off_c, 1, 57, 0
2, 47720, Note_off_c, 1, 62, 0
2, 47720, Note_off_c, 1, 65, 0
2, 48120, Note_on_c, 1, 38, 127
2, 48120, Note_on_c, 1, 50, 127
2, 48440, Note_off_c, 1, 38, 0
2, 48440, Note_off_c, 1, 50, 0
2, 48480, Note_on_c, 1, 38, 127
2, 48480, Note_on_c, 1, 50, 127
2, 48800, Note_off_c, 1, 38, 0
2, 48800, Note_off_c, 1, 50, 0
2, 48840, Note_on_c, 1, 38, 127
2, 48840, Note_on_c, 1, 50, 127
2, 49160, Note_off_c, 1, 38, 0
2, 49160, Note_off_c, 1, 50, 0
2, 49240, Note_on_c, 1, 41, 127
2, 49240, Note_on_c, 1, 46, 127
2, 49240, Note_on_c, 1, 53, 127
2, 49240, Note_on_c, 1, 87, 127
2, 49520, Note_off_c, 1, 41, 0
2, 49520, Note_off_c, 1, 46, 0
2, 49520, Note_off_c, 1, 53, 0
2, 49520, Note_off_c, 1, 87, 0
2, 49560, Note_on_c, 1, 41, 127
2, 49560, Note_on_c, 1, 46, 127
2, 49560, Note_on_c, 1, 53, 127
2, 49560, Note_on_c, 1, 87, 127
2, 49600, Note_off_c, 1, 87, 0
2, 49640, Note_off_c, 1, 41, 0
2, 49640, Note_off_c, 1, 46, 0
2, 49640, Note_off_c, 1, 53, 0
2, 49640, Note_on_c, 1, 55, 127
2, 49640, Note_on_c, 1, 67, 127
2, 49640, Note_on_c, 1, 70, 127
2, 49640, Note_on_c, 1, 74, 127
2, 49640, Note_on_c, 1, 77, 127
2, 49840, Note_off_c, 1, 74, 0
2, 49840, Note_off_c, 1, 77, 0
2, 49960, Note_off_c, 1, 55, 0
2, 49960, Note_off_c, 1, 67, 0
2, 49960, Note_off_c, 1, 70, 0
2, 50000, Note_on_c, 1, 37, 127
2, 50000, Note_on_c, 1, 49, 127
2, 50000, Note_on_c, 1, 76, 127
2, 50000, Note_on_c, 1, 81, 127
2, 50000, Note_on_c, 1, 88, 127
2, 50120, Note_off_c, 1, 37, 0
2, 50120, Note_off_c, 1, 49, 0
2, 50360, Note_on_c, 1, 38, 127
2, 50360, Note_on_c, 1, 43, 127
2, 50360, Note_on_c, 1, 50, 127
2, 50360, Note_on_c, 1, 67, 127
2, 50360, Note_on_c, 1, 74, 127
2, 50360, Note_off_c, 1, 76, 0
2, 50360, Note_on_c, 1, 79, 127
2, 50360, Note_off_c, 1, 81, 0
2, 50360, Note_off_c, 1, 88, 0
2, 50680, Note_off_c, 1, 38, 0
2, 50680, Note_off_c, 1, 43, 0
2, 50680, Note_off_c, 1, 50, 0
2, 50680, Note_off_c, 1, 67, 0
2, 50680, Note_off_c, 1, 74, 0
2, 50680, Note_off_c, 1, 79, 0
2, 50720, Note_on_c, 1, 50, 127
2, 50720, Note_on_c, 1, 62, 127
2, 50720, Note_on_c, 1, 66, 127
2, 50720, Note_on_c, 1, 69, 127
2, 50720, Note_on_c, 1, 74, 127
2, 51440, Note_off_c, 1, 50, 0
2, 51440, Note_off_c, 1, 62, 0
2, 51440, Note_off_c, 1, 66, 0
2, 51440, Note_off_c, 1, 69, 0
2, 51440, Note_off_c, 1, 74, 0
2, 51520, Note_on_c, 1, 74, 127
2, 51840, Note_off_c, 1, 74, 0
2, 51880, Note_on_c, 1, 50, 127
2, 51880, Note_on_c, 1, 57, 127
2, 51880, Note_on_c, 1, 62, 127
2, 51880, Note_on_c, 1, 65, 127
2, 51880, Note_on_c, 1, 69, 127
2, 51880, Note_on_c, 1, 74, 127
2, 53520, Note_off_c, 1, 50, 0
2, 53520, Note_off_c, 1, 57, 0
2, 53520, Note_off_c, 1, 62, 0
2, 53520, Note_off_c, 1, 65, 0
2, 53520, Note_off_c, 1, 69, 0
2, 53520, Note_off_c, 1, 74, 0
2, 53560, Note_on_c, 1, 50, 127
2, 53560, Note_on_c, 1, 57, 127
2, 53560, Note_on_c, 1, 62, 127
2, 53560, Note_on_c, 1, 65, 127
2, 53560, Note_on_c, 1, 69, 127
2, 53560, Note_on_c, 1, 74, 127
2, 54880, Note_off_c, 1, 50, 0
2, 54880, Note_off_c, 1, 57, 0
2, 54880, Note_off_c, 1, 62, 0
2, 54880, Note_off_c, 1, 65, 0
2, 54880, Note_off_c, 1, 69, 0
2, 54880, Note_off_c, 1, 74, 0
2, 54920, Note_on_c, 1, 65, 127
2, 54920, Note_on_c, 1, 72, 127
2, 54920, Note_on_c, 1, 81, 127
2, 54920, Note_on_c, 1, 89, 127
2, 55640, Note_off_c, 1, 65, 0
2, 55640, Note_off_c, 1, 72, 0
2, 55640, Note_off_c, 1, 81, 0
2, 55640, Note_off_c, 1, 89, 0
2, 55680, Note_on_c, 1, 65, 127
2, 55680, Note_on_c, 1, 72, 127
2, 55680, Note_on_c, 1, 81, 127
2, 55680, Note_on_c, 1, 89, 127
2, 56040, Note_off_c, 1, 65, 0
2, 56040, Note_off_c, 1, 72, 0
2, 56040, Note_off_c, 1, 81, 0
2, 56040, Note_off_c, 1, 89, 0
2, 66160, Note_on_c, 1, 55, 127
2, 66160, Note_on_c, 1, 59, 127
2, 66160, Note_on_c, 1, 67, 127
2, 66160, Note_on_c, 1, 76, 127
2, 66680, Note_off_c, 1, 76, 0
2, 66720, Note_on_c, 1, 74, 127
2, 67280, Note_off_c, 1, 55, 0
2, 67280, Note_off_c, 1, 59, 0
2, 67280, Note_off_c, 1, 67, 0
2, 67280, Note_off_c, 1, 74, 0
2, 67320, Note_on_c, 1, 50, 127
2, 67320, Note_on_c, 1, 57, 127
2, 67320, Note_on_c, 1, 62, 127
2, 67320, Note_on_c, 1, 66, 127
2, 67320, Note_on_c, 1, 69, 127
2, 67560, Note_off_c, 1, 50, 0
2, 67560, Note_off_c, 1, 57, 0
2, 67560, Note_off_c, 1, 62, 0
2, 67560, Note_off_c, 1, 66, 0
2, 67560, Note_off_c, 1, 69, 0
2, 68520, Note_on_c, 1, 50, 127
2, 68520, Note_on_c, 1, 57, 127
2, 68520, Note_on_c, 1, 62, 127
2, 68520, Note_on_c, 1, 66, 127
2, 69640, Note_off_c, 1, 50, 0
2, 69640, Note_off_c, 1, 57, 0
2, 69640, Note_off_c, 1, 62, 0
2, 69640, Note_off_c, 1, 66, 0
2, 69680, Note_on_c, 1, 50, 127
2, 69680, Note_on_c, 1, 57, 127
2, 69680, Note_on_c, 1, 62, 127
2, 69680, Note_on_c, 1, 67, 127
2, 69680, Note_on_c, 1, 71, 127
2, 69680, Note_on_c, 1, 74, 127
2, 70520, Note_off_c, 1, 50, 0
2, 70520, Note_off_c, 1, 57, 0
2, 70520, Note_off_c, 1, 62, 0
2, 70520, Note_off_c, 1, 67, 0
2, 70520, Note_off_c, 1, 71, 0
2, 70520, Note_off_c, 1, 74, 0
2, 70560, Note_on_c, 1, 50, 127
2, 70560, Note_on_c, 1, 57, 127
2, 70560, Note_on_c, 1, 62, 127
2, 70560, Note_on_c, 1, 67, 127
2, 70560, Note_on_c, 1, 71, 127
2, 70560, Note_on_c, 1, 74, 127
2, 70840, Note_off_c, 1, 50, 0
2, 70840, Note_off_c, 1, 57, 0
2, 70840, Note_off_c, 1, 62, 0
2, 70840, Note_off_c, 1, 67, 0
2, 70840, Note_off_c, 1, 71, 0
2, 70840, Note_off_c, 1, 74, 0
2, 70880, Note_on_c, 1, 50, 127
2, 70880, Note_on_c, 1, 57, 127
2, 70880, Note_on_c, 1, 62, 127
2, 70880, Note_on_c, 1, 66, 127
2, 70880, Note_on_c, 1, 69, 127
2, 71400, Note_off_c, 1, 50, 0
2, 71400, Note_off_c, 1, 57, 0
2, 71400, Note_off_c, 1, 62, 0
2, 71400, Note_off_c, 1, 66, 0
2, 71400, Note_off_c, 1, 69, 0
2, 72040, Note_on_c, 1, 50, 127
2, 72040, Note_on_c, 1, 57, 127
2, 72040, Note_on_c, 1, 62, 127
2, 72040, Note_on_c, 1, 66, 127
2, 72800, Note_off_c, 1, 50, 0
2, 72800, Note_off_c, 1, 57, 0
2, 72800, Note_off_c, 1, 62, 0
2, 72800, Note_off_c, 1, 66, 0
2, 72840, Note_on_c, 1, 50, 127
2, 72840, Note_on_c, 1, 57, 127
2, 72840, Note_on_c, 1, 62, 127
2, 72840, Note_on_c, 1, 66, 127
2, 73200, Note_off_c, 1, 50, 0
2, 73200, Note_off_c, 1, 57, 0
2, 73200, Note_off_c, 1, 62, 0
2, 73200, Note_off_c, 1, 66, 0
2, 74720, Note_on_c, 1, 55, 127
2, 74720, Note_on_c, 1, 58, 127
2, 74720, Note_on_c, 1, 62, 127
2, 74720, Note_on_c, 1, 67, 127
2, 74720, Note_on_c, 1, 70, 127
2, 75880, Note_off_c, 1, 55, 0
2, 75880, Note_off_c, 1, 58, 0
2, 75880, Note_off_c, 1, 62, 0
2, 75880, Note_off_c, 1, 67, 0
2, 75880, Note_off_c, 1, 70, 0
2, 88160, Note_on_c, 1, 45, 127
2, 88160, Note_on_c, 1, 69, 127
2, 90160, Note_off_c, 1, 45, 0
2, 90160, Note_off_c, 1, 69, 0
2, 90200, Note_on_c, 1, 45, 127
2, 90200, Note_on_c, 1, 69, 127
2, 92720, Note_off_c, 1, 45, 0
2, 92720, Note_off_c, 1, 69, 0
2, 92760, Note_on_c, 1, 45, 127
2, 92760, Note_on_c, 1, 69, 127
2, 94880, Note_off_c, 1, 45, 0
2, 94880, Note_off_c, 1, 69, 0
2, 94920, Note_on_c, 1, 45, 127
2, 94920, Note_on_c, 1, 69, 127
2, 97000, Note_off_c, 1, 45, 0
2, 97000, Note_off_c, 1, 69, 0
2, 97040, Note_on_c, 1, 45, 127
2, 97040, Note_on_c, 1, 69, 127
2, 99040, Note_off_c, 1, 45, 0
2, 99040, Note_off_c, 1, 69, 0
2, 99080, Note_on_c, 1, 45, 127
2, 99080, Note_on_c, 1, 69, 127
2, 100480, Note_on_c, 1, 52, 127
2, 100480, Note_on_c, 1, 57, 127
2, 100480, Note_on_c, 1, 61, 127
2, 100480, Note_on_c, 1, 64, 127
2, 101280, Note_off_c, 1, 45, 0
2, 101280, Note_off_c, 1, 52, 0
2, 101280, Note_off_c, 1, 57, 0
2, 101280, Note_off_c, 1, 61, 0
2, 101280, Note_off_c, 1, 64, 0
2, 101280, Note_off_c, 1, 69, 0
2, 101320, Note_on_c, 1, 45, 127
2, 101320, Note_on_c, 1, 52, 127
2, 101320, Note_on_c, 1, 57, 127
2, 101320, Note_on_c, 1, 61, 127
2, 101320, Note_on_c, 1, 64, 127
2, 101320, Note_on_c, 1, 69, 127
2, 102800, Note_off_c, 1, 69, 0
2, 102840, Note_on_c, 1, 68, 127
2, 103400, Note_off_c, 1, 68, 0
2, 103440, Note_on_c, 1, 69, 127
2, 103840, Note_off_c, 1, 45, 0
2, 103840, Note_off_c, 1, 52, 0
2, 103840, Note_off_c, 1, 57, 0
2, 103840, Note_off_c, 1, 61, 0
2, 103840, Note_off_c, 1, 64, 0
2, 103840, Note_off_c, 1, 69, 0
2, 103880, Note_on_c, 1, 45, 127
2, 103880, Note_on_c, 1, 52, 127
2, 103880, Note_on_c, 1, 57, 127
2, 103880, Note_on_c, 1, 61, 127
2, 103880, Note_on_c, 1, 64, 127
2, 103880, Note_on_c, 1, 69, 127
2, 104040, Note_off_c, 1, 69, 0
2, 104080, Note_on_c, 1, 68, 127
2, 104640, Note_off_c, 1, 68, 0
2, 104680, Note_on_c, 1, 69, 127
2, 105240, Note_off_c, 1, 45, 0
2, 105240, Note_off_c, 1, 52, 0
2, 105240, Note_off_c, 1, 57, 0
2, 105240, Note_off_c, 1, 61, 0
2, 105240, Note_off_c, 1, 64, 0
2, 105240, Note_off_c, 1, 69, 0
2, 105280, Note_on_c, 1, 45, 127
2, 105280, Note_on_c, 1, 52, 127
2, 105280, Note_on_c, 1, 57, 127
2, 105280, Note_on_c, 1, 61, 127
2, 105280, Note_on_c, 1, 64, 127
2, 105280, Note_on_c, 1, 73, 127
2, 105840, Note_off_c, 1, 45, 0
2, 105840, Note_off_c, 1, 52, 0
2, 105840, Note_off_c, 1, 57, 0
2, 105840, Note_off_c, 1, 61, 0
2, 105840, Note_off_c, 1, 64, 0
2, 105840, Note_off_c, 1, 73, 0
2, 105880, Note_on_c, 1, 45, 127
2, 105880, Note_on_c, 1, 52, 127
2, 105880, Note_on_c, 1, 57, 127
2, 105880, Note_on_c, 1, 61, 127
2, 105880, Note_on_c, 1, 64, 127
2, 105880, Note_on_c, 1, 73, 127
2, 106160, Note_off_c, 1, 45, 0
2, 106160, Note_off_c, 1, 52, 0
2, 106160, Note_off_c, 1, 57, 0
2, 106160, Note_off_c, 1, 61, 0
2, 106160, Note_off_c, 1, 64, 0
2, 106160, Note_off_c, 1, 73, 0
2, 106200, Note_on_c, 1, 45, 127
2, 106200, Note_on_c, 1, 52, 127
2, 106200, Note_on_c, 1, 57, 127
2, 106200, Note_on_c, 1, 61, 127
2, 106200, Note_on_c, 1, 64, 127
2, 106200, Note_on_c, 1, 73, 127
2, 106480, Note_off_c, 1, 45, 0
2, 106480, Note_off_c, 1, 52, 0
2, 106480, Note_off_c, 1, 57, 0
2, 106480, Note_off_c, 1, 61, 0
2, 106480, Note_off_c, 1, 64, 0
2, 106480, Note_off_c, 1, 73, 0
2, 106520, Note_on_c, 1, 42, 127
2, 106520, Note_on_c, 1, 54, 127
2, 106520, Note_on_c, 1, 61, 127
2, 106520, Note_on_c, 1, 66, 127
2, 106520, Note_on_c, 1, 69, 127
2, 107720, Note_off_c, 1, 42, 0
2, 107720, Note_off_c, 1, 54, 0
2, 107720, Note_off_c, 1, 61, 0
2, 107720, Note_off_c, 1, 66, 0
2, 107720, Note_off_c, 1, 69, 0
2, 107760, Note_on_c, 1, 39, 127
2, 107760, Note_on_c, 1, 43, 127
2, 107760, Note_on_c, 1, 51, 127
2, 107760, Note_on_c, 1, 58, 127
2, 108320, Note_off_c, 1, 39, 0
2, 108320, Note_off_c, 1, 43, 0
2, 108320, Note_off_c, 1, 51, 0
2, 108320, Note_off_c, 1, 58, 0
2, 108360, Note_on_c, 1, 39, 127
2, 108360, Note_on_c, 1, 43, 127
2, 108360, Note_on_c, 1, 51, 127
2, 108360, Note_on_c, 1, 58, 127
2, 108960, Note_off_c, 1, 39, 0
2, 108960, Note_off_c, 1, 43, 0
2, 108960, Note_off_c, 1, 51, 0
2, 108960, Note_off_c, 1, 58, 0
2, 109040, Note_on_c, 1, 39, 127
2, 109040, Note_on_c, 1, 43, 127
2, 109040, Note_on_c, 1, 51, 127
2, 109040, Note_on_c, 1, 58, 127
2, 110160, Note_off_c, 1, 39, 0
2, 110160, Note_off_c, 1, 43, 0
2, 110160, Note_off_c, 1, 51, 0
2, 110160, Note_off_c, 1, 58, 0
2, 110280, Note_on_c, 1, 49, 127
2, 110280, Note_on_c, 1, 52, 127
2, 110280, Note_on_c, 1, 58, 127
2, 110280, Note_on_c, 1, 88, 127
2, 110640, Note_off_c, 1, 88, 0
2, 110680, Note_on_c, 1, 88, 127
2, 111040, Note_off_c, 1, 88, 0
2, 111080, Note_on_c, 1, 88, 127
2, 111320, Note_on_c, 1, 85, 127
2, 111320, Note_off_c, 1, 88, 0
2, 111360, Note_off_c, 1, 85, 0
2, 111360, Note_on_c, 1, 88, 127
2, 111440, Note_off_c, 1, 88, 0
2, 111480, Note_on_c, 1, 85, 127
2, 111840, Note_off_c, 1, 85, 0
2, 111880, Note_on_c, 1, 82, 127
2, 112240, Note_off_c, 1, 82, 0
2, 112280, Note_on_c, 1, 82, 127
2, 112440, Note_off_c, 1, 49, 0
2, 112440, Note_off_c, 1, 52, 0
2, 112440, Note_off_c, 1, 58, 0
2, 112440, Note_off_c, 1, 82, 0
2, 112480, Note_on_c, 1, 49, 127
2, 112480, Note_on_c, 1, 52, 127
2, 112480, Note_on_c, 1, 58, 127
2, 112480, Note_on_c, 1, 82, 127
2, 112680, Note_off_c, 1, 82, 0
2, 112720, Note_on_c, 1, 79, 127
2, 113080, Note_off_c, 1, 79, 0
2, 113120, Note_on_c, 1, 47, 127
2, 113120, Note_off_c, 1, 49, 0
2, 113120, Note_off_c, 1, 52, 0
2, 113120, Note_on_c, 1, 57, 127
2, 113120, Note_off_c, 1, 58, 0
2, 113120, Note_on_c, 1, 66, 127
2, 113120, Note_on_c, 1, 73, 127
2, 113120, Note_on_c, 1, 77, 127
2, 113920, Note_off_c, 1, 47, 0
2, 113960, Note_on_c, 1, 47, 127
2, 114680, Note_off_c, 1, 47, 0
2, 114680, Note_off_c, 1, 57, 0
2, 114680, Note_off_c, 1, 66, 0
2, 114680, Note_off_c, 1, 73, 0
2, 114680, Note_off_c, 1, 77, 0
2, 114720, Note_on_c, 1, 47, 127
2, 114720, Note_on_c, 1, 57, 127
2, 114720, Note_on_c, 1, 66, 127
2, 114720, Note_on_c, 1, 73, 127
2, 114720, Note_on_c, 1, 77, 127
2, 115200, Note_off_c, 1, 47, 0
2, 115240, Note_on_c, 1, 47, 127
2, 116040, Note_off_c, 1, 47, 0
2, 116080, Note_on_c, 1, 47, 127
2, 116440, Note_off_c, 1, 47, 0
2, 116480, Note_on_c, 1, 47, 127
2, 116920, Note_off_c, 1, 47, 0
2, 116920, Note_off_c, 1, 57, 0
2, 116920, Note_off_c, 1, 66, 0
2, 116920, Note_off_c, 1, 73, 0
2, 116920, Note_off_c, 1, 77, 0
2, 116960, Note_on_c, 1, 47, 127
2, 116960, Note_on_c, 1, 57, 127
2, 116960, Note_on_c, 1, 66, 127
2, 116960, Note_on_c, 1, 73, 127
2, 116960, Note_on_c, 1, 77, 127
2, 117320, Note_off_c, 1, 47, 0
2, 117360, Note_on_c, 1, 47, 127
2, 117720, Note_off_c, 1, 47, 0
2, 117760, Note_on_c, 1, 47, 127
2, 118560, Note_off_c, 1, 47, 0
2, 118600, Note_on_c, 1, 47, 127
2, 118960, Note_off_c, 1, 47, 0
2, 119000, Note_on_c, 1, 47, 127
2, 119120, Note_off_c, 1, 47, 0
2, 119120, Note_off_c, 1, 57, 0
2, 119120, Note_off_c, 1, 66, 0
2, 119120, Note_off_c, 1, 73, 0
2, 119120, Note_off_c, 1, 77, 0
2, 119160, Note_on_c, 1, 47, 127
2, 119160, Note_on_c, 1, 57, 127
2, 119160, Note_on_c, 1, 66, 127
2, 119160, Note_on_c, 1, 73, 127
2, 119160, Note_on_c, 1, 77, 127
2, 119440, Note_off_c, 1, 47, 0
2, 119480, Note_on_c, 1, 47, 127
2, 119840, Note_off_c, 1, 47, 0
2, 119880, Note_on_c, 1, 47, 127
2, 120000, Note_off_c, 1, 47, 0
2, 120000, Note_off_c, 1, 57, 0
2, 120000, Note_off_c, 1, 66, 0
2, 120000, Note_off_c, 1, 73, 0
2, 120000, Note_off_c, 1, 77, 0
2, 120040, End_track
3, 0, Start_track
3, 0, Title_t, "MIDI"
3, 1536, End_track
0, 0, End_of_file
