0, 0, Header, 1, 3, 192
1, 0, Start_track
1, 0, Time_signature, 4, 2, 24, 8
1, 0, Tempo, 500000
1, 120040, End_track
2, 0, Start_track
2, 0, Text_t, "random instrument: random person i dunno whatev"
2, 0, Title_t, "Track 1"
2, 0, Note_on_c, 1, 40, 127
2, 0, Note_on_c, 1, 48, 127
2, 0, Note_on_c, 1, 56, 127
2, 0, Note_on_c, 1, 60, 127
2, 160, Note_off_c, 1, 40, 0
2, 160, Note_off_c, 1, 48, 0
2, 160, Note_off_c, 1, 56, 0
2, 160, Note_off_c, 1, 60, 0
2, 13400, Note_on_c, 1, 37, 127
2, 13400, Note_on_c, 1, 49, 127
2, 15240, Note_off_c, 1, 37, 0
2, 15240, Note_off_c, 1, 49, 0
2, 15280, Note_on_c, 1, 37, 127
2, 15280, Note_on_c, 1, 49, 127
2, 16680, Note_off_c, 1, 37, 0
2, 16680, Note_off_c, 1, 49, 0
2, 16720, Note_on_c, 1, 37, 127
2, 16720, Note_on_c, 1, 49, 127
2, 16720, Note_on_c, 1, 65, 127
2, 16920, Note_off_c, 1, 65, 0
2, 16960, Note_on_c, 1, 61, 127
2, 18240, Note_off_c, 1, 37, 0
2, 18240, Note_on_c, 1, 40, 127
2, 18240, Note_off_c, 1, 49, 0
2, 18240, Note_on_c, 1, 52, 127
2, 18240, Note_off_c, 1, 61, 0
2, 18240, Note_on_c, 1, 64, 127
2, 18600, Note_off_c, 1, 40, 0
2, 18600, Note_off_c, 1, 52, 0
2, 18600, Note_off_c, 1, 64, 0
2, 18640, Note_on_c, 1, 61, 127
2, 19160, Note_off_c, 1, 61, 0
2, 19200, Note_on_c, 1, 61, 127
2, 19480, Note_off_c, 1, 61, 0
2, 19520, Note_on_c, 1, 64, 127
2, 20320, Note_off_c, 1, 64, 0
2, 20360, Note_on_c, 1, 62, 127
2, 21120, Note_off_c, 1, 62, 0
2, 21160, Note_on_c, 1, 62, 127
2, 22280, Note_off_c, 1, 62, 0
2, 22320, Note_on_c, 1, 61, 127
2, 23120, Note_off_c, 1, 61, 0
2, 23160, Note_on_c, 1, 61, 127
2, 25040, Note_off_c, 1, 61, 0
2, 25040, Note_on_c, 1, 62, 127
2, 25080, Note_off_c, 1, 62, 0
2, 25120, Note_on_c, 1, 62, 127
2, 25160, Note_off_c, 1, 62, 0
2, 25200, Note_on_c, 1, 55, 127
2, 25800, Note_off_c, 1, 55, 0
2, 32600, Note_on_c, 1, 57, 127
2, 32600, Note_on_c, 1, 73, 127
2, 33080, Note_off_c, 1, 57, 0
2, 33080, Note_off_c, 1, 73, 0
2, 33120, Note_on_c, 1, 73, 127
2, 33360, Note_off_c, 1, 73, 0
2, 33400, Note_on_c, 1, 74, 127
2, 33600, Note_off_c, 1, 74, 0
2, 33880, Note_on_c, 1, 78, 127
2, 34120, Note_off_c, 1, 78, 0
2, 34200, Note_on_c, 1, 76, 127
2, 34680, Note_off_c, 1, 76, 0
2, 34720, Note_on_c, 1, 73, 127
2, 34960, Note_off_c, 1, 73, 0
2, 35000, Note_on_c, 1, 74, 127
2, 35200, Note_off_c, 1, 74, 0
2, 35240, Note_on_c, 1, 76, 127
2, 35480, Note_off_c, 1, 76, 0
2, 35520, Note_on_c, 1, 74, 127
2, 35880, Note_off_c, 1, 74, 0
2, 35920, Note_on_c, 1, 72, 127
2, 36240, Note_off_c, 1, 72, 0
2, 36280, Note_on_c, 1, 69, 127
2, 36440, Note_off_c, 1, 69, 0
2, 36560, Note_on_c, 1, 66, 127
2, 36680, Note_off_c, 1, 66, 0
2, 36720, Note_on_c, 1, 64, 127
2, 36880, Note_off_c, 1, 64, 0
2, 36960, Note_on_c, 1, 61, 127
2, 37080, Note_off_c, 1, 61, 0
2, 37120, Note_on_c, 1, 64, 127
2, 37240, Note_off_c, 1, 64, 0
2, 37280, Note_on_c, 1, 62, 127
2, 37400, Note_off_c, 1, 62, 0
2, 37440, Note_on_c, 1, 66, 127
2, 37600, Note_off_c, 1, 66, 0
2, 37640, Note_on_c, 1, 64, 127
2, 37760, Note_off_c, 1, 64, 0
2, 37800, Note_on_c, 1, 61, 127
2, 38520, Note_off_c, 1, 61, 0
2, 38560, Note_on_c, 1, 61, 127
2, 39080, Note_on_c, 1, 60, 127
2, 39080, Note_off_c, 1, 61, 0
2, 39400, Note_off_c, 1, 60, 0
2, 39440, Note_on_c, 1, 61, 127
2, 40480, Note_off_c, 1, 61, 0
2, 40560, Note_on_c, 1, 64, 127
2, 40720, Note_on_c, 1, 61, 127
2, 40720, Note_off_c, 1, 64, 0
2, 40880, Note_off_c, 1, 61, 0
2, 40920, Note_on_c, 1, 57, 127
2, 41200, Note_off_c, 1, 57, 0
2, 41240, Note_on_c, 1, 61, 127
2, 41560, Note_off_c, 1, 61, 0
2, 41600, Note_on_c, 1, 66, 127
2, 41920, Note_off_c, 1, 66, 0
2, 41960, Note_on_c, 1, 61, 127
2, 42280, Note_off_c, 1, 61, 0
2, 42320, Note_on_c, 1, 57, 127
2, 42640, Note_off_c, 1, 57, 0
2, 42720, Note_on_c, 1, 61, 127
2, 43040, Note_off_c, 1, 61, 0
2, 43080, Note_on_c, 1, 57, 127
2, 43400, Note_off_c, 1, 57, 0
2, 43440, Note_on_c, 1, 53, 127
2, 43760, Note_off_c, 1, 53, 0
2, 43800, Note_on_c, 1, 54, 127
2, 44120, Note_off_c, 1, 54, 0
2, 44160, Note_on_c, 1, 49, 127
2, 44480, Note_off_c, 1, 49, 0
2, 44520, Note_on_c, 1, 54, 127
2, 44880, Note_off_c, 1, 54, 0
2, 44960, Note_on_c, 1, 54, 127
2, 45280, Note_off_c, 1, 54, 0
2, 45320, Note_on_c, 1, 49, 127
2, 45640, Note_off_c, 1, 49, 0
2, 45680, Note_on_c, 1, 42, 127
2, 46000, Note_off_c, 1, 42, 0
2, 46040, Note_on_c, 1, 49, 127
2, 46360, Note_off_c, 1, 49, 0
2, 46400, Note_on_c, 1, 54, 127
2, 46720, Note_off_c, 1, 54, 0
2, 46760, Note_on_c, 1, 42, 127
2, 47040, Note_off_c, 1, 42, 0
2, 47080, Note_on_c, 1, 42, 127
2, 47120, Note_off_c, 1, 42, 0
2, 47160, Note_on_c, 1, 49, 127
2, 47520, Note_off_c, 1, 49, 0
2, 47560, Note_on_c, 1, 54, 127
2, 47880, Note_off_c, 1, 54, 0
2, 47920, Note_on_c, 1, 50, 127
2, 48240, Note_off_c, 1, 50, 0
2, 48280, Note_on_c, 1, 54, 127
2, 48600, Note_off_c, 1, 54, 0
2, 48640, Note_on_c, 1, 49, 127
2, 48960, Note_off_c, 1, 49, 0
2, 49000, Note_on_c, 1, 54, 127
2, 49240, Note_off_c, 1, 54, 0
2, 49280, Note_on_c, 1, 54, 127
2, 49400, Note_off_c, 1, 54, 0
2, 49440, Note_on_c, 1, 61, 127
2, 50120, Note_off_c, 1, 61, 0
2, 50160, Note_on_c, 1, 54, 127
2, 50480, Note_off_c, 1, 54, 0
2, 50520, Note_on_c, 1, 61, 127
2, 50840, Note_off_c, 1, 61, 0
2, 50880, Note_on_c, 1, 54, 127
2, 51200, Note_off_c, 1, 54, 0
2, 51240, Note_on_c, 1, 46, 127
2, 51360, Note_off_c, 1, 46, 0
2, 51400, Note_on_c, 1, 46, 127
2, 51600, Note_off_c, 1, 46, 0
2, 51640, Note_on_c, 1, 49, 127
2, 51960, Note_off_c, 1, 49, 0
2, 52000, Note_on_c, 1, 54, 127
2, 52320, Note_off_c, 1, 54, 0
2, 52360, Note_on_c, 1, 49, 127
2, 52720, Note_off_c, 1, 49, 0
2, 52760, Note_on_c, 1, 42, 127
2, 53080, Note_off_c, 1, 42, 0
2, 53120, Note_on_c, 1, 42, 127
2, 53440, Note_off_c, 1, 42, 0
2, 53520, Note_on_c, 1, 49, 127
2, 53840, Note_off_c, 1, 49, 0
2, 53880, Note_on_c, 1, 54, 127
2, 53880, Note_on_c, 1, 78, 127
2, 54200, Note_off_c, 1, 54, 0
2, 54200, Note_off_c, 1, 78, 0
2, 54240, Note_on_c, 1, 49, 127
2, 54240, Note_on_c, 1, 77, 127
2, 54560, Note_off_c, 1, 49, 0
2, 54600, Note_on_c, 1, 54, 127
2, 54920, Note_off_c, 1, 54, 0
2, 54960, Note_on_c, 1, 61, 127
2, 55280, Note_off_c, 1, 61, 0
2, 55280, Note_off_c, 1, 77, 0
2, 55320, Note_on_c, 1, 49, 127
2, 55320, Note_on_c, 1, 76, 127
2, 55640, Note_off_c, 1, 49, 0
2, 55680, Note_on_c, 1, 54, 127
2, 55760, Note_off_c, 1, 54, 0
2, 55760, Note_off_c, 1, 76, 0
2, 55800, Note_on_c, 1, 54, 127
2, 55800, Note_on_c, 1, 76, 127
2, 56040, Note_off_c, 1, 54, 0
2, 56080, Note_on_c, 1, 54, 127
2, 56400, Note_off_c, 1, 54, 0
2, 56400, Note_off_c, 1, 76, 0
2, 56440, Note_on_c, 1, 47, 127
2, 56440, Note_on_c, 1, 75, 127
2, 56760, Note_off_c, 1, 47, 0
2, 56800, Note_on_c, 1, 47, 127
2, 57120, Note_off_c, 1, 47, 0
2, 57160, Note_on_c, 1, 52, 127
2, 57480, Note_off_c, 1, 52, 0
2, 57480, Note_off_c, 1, 75, 0
2, 57520, Note_on_c, 1, 61, 127
2, 57520, Note_on_c, 1, 76, 127
2, 57840, Note_off_c, 1, 61, 0
2, 57880, Note_off_c, 1, 76, 0
2, 57920, Note_on_c, 1, 64, 127
2, 57920, Note_on_c, 1, 76, 127
2, 58240, Note_off_c, 1, 64, 0
2, 58280, Note_on_c, 1, 51, 127
2, 58600, Note_off_c, 1, 51, 0
2, 58600, Note_off_c, 1, 76, 0
2, 58640, Note_on_c, 1, 59, 127
2, 58640, Note_on_c, 1, 75, 127
2, 58960, Note_off_c, 1, 59, 0
2, 59000, Note_on_c, 1, 51, 127
2, 59320, Note_off_c, 1, 51, 0
2, 59360, Note_on_c, 1, 59, 127
2, 59680, Note_off_c, 1, 59, 0
2, 59680, Note_off_c, 1, 75, 0
2, 59720, Note_on_c, 1, 47, 127
2, 59720, Note_on_c, 1, 81, 127
2, 59920, Note_off_c, 1, 47, 0
2, 59920, Note_off_c, 1, 81, 0
2, 59960, Note_on_c, 1, 47, 127
2, 59960, Note_on_c, 1, 81, 127
2, 60080, Note_off_c, 1, 47, 0
2, 60080, Note_off_c, 1, 81, 0
2, 60120, Note_on_c, 1, 76, 127
2, 60120, Note_on_c, 1, 80, 127
2, 60480, Note_off_c, 1, 76, 0
2, 60520, Note_on_c, 1, 44, 127
2, 60840, Note_off_c, 1, 44, 0
2, 60840, Note_off_c, 1, 80, 0
2, 60880, Note_on_c, 1, 40, 127
2, 60880, Note_on_c, 1, 81, 127
2, 61200, Note_off_c, 1, 40, 0
2, 61200, Note_off_c, 1, 81, 0
2, 61240, Note_on_c, 1, 47, 127
2, 61240, Note_on_c, 1, 80, 127
2, 61560, Note_off_c, 1, 47, 0
2, 61600, Note_on_c, 1, 52, 127
2, 61920, Note_off_c, 1, 52, 0
2, 61920, Note_off_c, 1, 80, 0
2, 61960, Note_on_c, 1, 52, 127
2, 61960, Note_on_c, 1, 78, 127
2, 62000, Note_off_c, 1, 52, 0
2, 62000, Note_off_c, 1, 78, 0
2, 62040, Note_on_c, 1, 52, 127
2, 62040, Note_on_c, 1, 78, 127
2, 62320, Note_off_c, 1, 52, 0
2, 62360, Note_on_c, 1, 47, 127
2, 62680, Note_off_c, 1, 47, 0
2, 62720, Note_on_c, 1, 63, 127
2, 63040, Note_off_c, 1, 63, 0
2, 63040, Note_off_c, 1, 78, 0
2, 63080, Note_on_c, 1, 52, 127
2, 63080, Note_on_c, 1, 80, 127
2, 63400, Note_off_c, 1, 52, 0
2, 63440, Note_on_c, 1, 44, 127
2, 63760, Note_off_c, 1, 44, 0
2, 63800, Note_on_c, 1, 37, 127
2, 64120, Note_off_c, 1, 37, 0
2, 64120, Note_off_c, 1, 80, 0
2, 64160, Note_on_c, 1, 80, 127
2, 64200, Note_on_c, 1, 40, 127
2, 64520, Note_off_c, 1, 40, 0
2, 64520, Note_off_c, 1, 80, 0
2, 64560, Note_on_c, 1, 47, 127
2, 64560, Note_on_c, 1, 80, 127
2, 64880, Note_off_c, 1, 47, 0
2, 64920, Note_on_c, 1, 52, 127
2, 65240, Note_off_c, 1, 52, 0
2, 65280, Note_on_c, 1, 59, 127
2, 65600, Note_off_c, 1, 59, 0
2, 65600, Note_off_c, 1, 80, 0
2, 65640, Note_on_c, 1, 40, 127
2, 65640, Note_on_c, 1, 81, 127
2, 65960, Note_off_c, 1, 40, 0
2, 66000, Note_on_c, 1, 54, 127
2, 66320, Note_off_c, 1, 54, 0
2, 66320, Note_off_c, 1, 81, 0
2, 66360, Note_on_c, 1, 81, 127
2, 66400, Note_on_c, 1, 57, 127
2, 66720, Note_off_c, 1, 57, 0
2, 66760, Note_on_c, 1, 52, 127
2, 67080, Note_off_c, 1, 52, 0
2, 67120, Note_on_c, 1, 52, 127
2, 67440, Note_off_c, 1, 52, 0
2, 67480, Note_on_c, 1, 57, 127
2, 67480, Note_on_c, 1, 80, 127
2, 67480, Note_off_c, 1, 81, 0
2, 67800, Note_off_c, 1, 57, 0
2, 67800, Note_off_c, 1, 80, 0
2, 67840, Note_on_c, 1, 47, 127
2, 67840, Note_on_c, 1, 78, 127
2, 68160, Note_off_c, 1, 47, 0
2, 68200, Note_on_c, 1, 51, 127
2, 68520, Note_off_c, 1, 51, 0
2, 68560, Note_off_c, 1, 78, 0
2, 68600, Note_on_c, 1, 57, 127
2, 68600, Note_on_c, 1, 78, 127
2, 68920, Note_off_c, 1, 57, 0
2, 68960, Note_on_c, 1, 52, 127
2, 69280, Note_off_c, 1, 52, 0
2, 69320, Note_on_c, 1, 59, 127
2, 69640, Note_off_c, 1, 59, 0
2, 69640, Note_off_c, 1, 78, 0
2, 69680, Note_on_c, 1, 51, 127
2, 69680, Note_on_c, 1, 81, 127
2, 70000, Note_off_c, 1, 51, 0
2, 70040, Note_on_c, 1, 54, 127
2, 70360, Note_off_c, 1, 54, 0
2, 70360, Note_off_c, 1, 81, 0
2, 70400, Note_on_c, 1, 63, 127
2, 70400, Note_on_c, 1, 78, 127
2, 70680, Note_off_c, 1, 63, 0
2, 70680, Note_off_c, 1, 78, 0
2, 70760, Note_on_c, 1, 52, 127
2, 70760, Note_on_c, 1, 78, 127
2, 71120, Note_off_c, 1, 52, 0
2, 71160, Note_on_c, 1, 50, 127
2, 71480, Note_off_c, 1, 50, 0
2, 71520, Note_on_c, 1, 57, 127
2, 71840, Note_off_c, 1, 57, 0
2, 71840, Note_off_c, 1, 78, 0
2, 71880, Note_on_c, 1, 50, 127
2, 71880, Note_on_c, 1, 76, 127
2, 72200, Note_off_c, 1, 50, 0
2, 72240, Note_on_c, 1, 59, 127
2, 72560, Note_off_c, 1, 59, 0
2, 72600, Note_on_c, 1, 54, 127
2, 72920, Note_off_c, 1, 54, 0
2, 72920, Note_off_c, 1, 76, 0
2, 73000, Note_on_c, 1, 57, 127
2, 73000, Note_on_c, 1, 76, 127
2, 73320, Note_off_c, 1, 57, 0
2, 73320, Note_off_c, 1, 76, 0
2, 73360, Note_on_c, 1, 50, 127
2, 73360, Note_on_c, 1, 76, 127
2, 73680, Note_off_c, 1, 50, 0
2, 73720, Note_on_c, 1, 57, 127
2, 74040, Note_off_c, 1, 57, 0
2, 74040, Note_off_c, 1, 76, 0
2, 74080, Note_on_c, 1, 47, 127
2, 74080, Note_on_c, 1, 75, 127
2, 74400, Note_off_c, 1, 47, 0
2, 74440, Note_on_c, 1, 52, 127
2, 74760, Note_off_c, 1, 52, 0
2, 74760, Note_off_c, 1, 75, 0
2, 74800, Note_on_c, 1, 69, 127
2, 74800, Note_on_c, 1, 73, 127
2, 75000, Note_off_c, 1, 69, 0
2, 75000, Note_off_c, 1, 73, 0
2, 75040, Note_on_c, 1, 69, 127
2, 75040, Note_on_c, 1, 73, 127
2, 75520, Note_off_c, 1, 69, 0
2, 75520, Note_off_c, 1, 73, 0
2, 75560, Note_on_c, 1, 52, 127
2, 75560, Note_on_c, 1, 80, 127
2, 75880, Note_off_c, 1, 52, 0
2, 75920, Note_on_c, 1, 59, 127
2, 76240, Note_off_c, 1, 59, 0
2, 76280, Note_on_c, 1, 52, 127
2, 76600, Note_off_c, 1, 52, 0
2, 76640, Note_on_c, 1, 62, 127
2, 76960, Note_off_c, 1, 62, 0
2, 76960, Note_off_c, 1, 80, 0
2, 77040, Note_on_c, 1, 52, 127
2, 77040, Note_on_c, 1, 80, 127
2, 77360, Note_off_c, 1, 52, 0
2, 77400, Note_on_c, 1, 59, 127
2, 77720, Note_off_c, 1, 59, 0
2, 77720, Note_off_c, 1, 80, 0
2, 77760, Note_on_c, 1, 52, 127
2, 77760, Note_on_c, 1, 81, 127
2, 78080, Note_off_c, 1, 52, 0
2, 78080, Note_off_c, 1, 81, 0
2, 78120, Note_on_c, 1, 57, 127
2, 78120, Note_on_c, 1, 75, 127
2, 78440, Note_off_c, 1, 57, 0
2, 78480, Note_on_c, 1, 49, 127
2, 78800, Note_off_c, 1, 49, 0
2, 78800, Note_off_c, 1, 75, 0
2, 78840, Note_on_c, 1, 57, 127
2, 78840, Note_on_c, 1, 75, 127
2, 79080, Note_off_c, 1, 57, 0
2, 79080, Note_off_c, 1, 75, 0
2, 79120, Note_on_c, 1, 57, 127
2, 79120, Note_on_c, 1, 75, 127
2, 79200, Note_off_c, 1, 57, 0
2, 79200, Note_off_c, 1, 75, 0
2, 79240, Note_on_c, 1, 49, 127
2, 79240, Note_on_c, 1, 76, 127
2, 79560, Note_off_c, 1, 49, 0
2, 79600, Note_on_c, 1, 44, 127
2, 79920, Note_off_c, 1, 44, 0
2, 79960, Note_on_c, 1, 49, 127
2, 80280, Note_off_c, 1, 49, 0
2, 80320, Note_on_c, 1, 44, 127
2, 80640, Note_off_c, 1, 44, 0
2, 80640, Note_off_c, 1, 76, 0
2, 80680, Note_on_c, 1, 49, 127
2, 80680, Note_on_c, 1, 76, 127
2, 81000, Note_off_c, 1, 49, 0
2, 81040, Note_on_c, 1, 52, 127
2, 81240, Note_off_c, 1, 52, 0
2, 81240, Note_off_c, 1, 76, 0
2, 81280, Note_on_c, 1, 52, 127
2, 81280, Note_on_c, 1, 76, 127
2, 81400, Note_off_c, 1, 52, 0
2, 81400, Note_off_c, 1, 76, 0
2, 81440, Note_on_c, 1, 47, 127
2, 81440, Note_on_c, 1, 75, 127
2, 81760, Note_off_c, 1, 47, 0
2, 81800, Note_on_c, 1, 53, 127
2, 82120, Note_off_c, 1, 53, 0
2, 82120, Note_off_c, 1, 75, 0
2, 82160, Note_on_c, 1, 57, 127
2, 82160, Note_on_c, 1, 73, 127
2, 82480, Note_off_c, 1, 57, 0
2, 82480, Note_off_c, 1, 73, 0
2, 82520, Note_on_c, 1, 47, 127
2, 82520, Note_on_c, 1, 69, 127
2, 82840, Note_off_c, 1, 47, 0
2, 82840, Note_off_c, 1, 69, 0
2, 82880, Note_on_c, 1, 48, 127
2, 82880, Note_on_c, 1, 69, 127
2, 83200, Note_off_c, 1, 48, 0
2, 83200, Note_off_c, 1, 69, 0
2, 83240, Note_on_c, 1, 51, 127
2, 83240, Note_on_c, 1, 69, 127
2, 83280, Note_off_c, 1, 51, 0
2, 83280, Note_off_c, 1, 69, 0
2, 83320, Note_on_c, 1, 51, 127
2, 83320, Note_on_c, 1, 69, 127
2, 83600, Note_off_c, 1, 51, 0
2, 83640, Note_on_c, 1, 54, 127
2, 83960, Note_off_c, 1, 54, 0
2, 84000, Note_on_c, 1, 51, 127
2, 84320, Note_off_c, 1, 51, 0
2, 84320, Note_off_c, 1, 69, 0
2, 84360, Note_on_c, 1, 52, 127
2, 84360, Note_on_c, 1, 68, 127
2, 84680, Note_off_c, 1, 52, 0
2, 84680, Note_off_c, 1, 68, 0
2, 84720, Note_on_c, 1, 64, 127
2, 85400, Note_off_c, 1, 64, 0
2, 85440, Note_on_c, 1, 64, 127
2, 85800, Note_off_c, 1, 64, 0
2, 85840, Note_on_c, 1, 61, 127
2, 86160, Note_off_c, 1, 61, 0
2, 86200, Note_on_c, 1, 64, 127
2, 86520, Note_off_c, 1, 64, 0
2, 86560, Note_on_c, 1, 61, 127
2, 86880, Note_off_c, 1, 61, 0
2, 86920, Note_on_c, 1, 52, 127
2, 87240, Note_off_c, 1, 52, 0
2, 87280, Note_on_c, 1, 56, 127
2, 87480, Note_off_c, 1, 56, 0
2, 87520, Note_on_c, 1, 56, 127
2, 87640, Note_off_c, 1, 56, 0
2, 87680, Note_on_c, 1, 51, 127
2, 88000, Note_off_c, 1, 51, 0
2, 88040, Note_on_c, 1, 54, 127
2, 88360, Note_off_c, 1, 54, 0
2, 88400, Note_on_c, 1, 52, 127
2, 88720, Note_off_c, 1, 52, 0
2, 88760, Note_on_c, 1, 56, 127
2, 89080, Note_off_c, 1, 56, 0
2, 89120, Note_on_c, 1, 52, 127
2, 89440, Note_off_c, 1, 52, 0
2, 89480, Note_on_c, 1, 56, 127
2, 89600, Note_off_c, 1, 56, 0
2, 89640, Note_on_c, 1, 56, 127
2, 89840, Note_off_c, 1, 56, 0
2, 89880, Note_on_c, 1, 54, 127
2, 90200, Note_off_c, 1, 54, 0
2, 90240, Note_on_c, 1, 44, 127
2, 90560, Note_off_c, 1, 44, 0
2, 90600, Note_on_c, 1, 37, 127
2, 90920, Note_off_c, 1, 37, 0
2, 90960, Note_on_c, 1, 44, 127
2, 91280, Note_off_c, 1, 44, 0
2, 91320, Note_on_c, 1, 49, 127
2, 91640, Note_off_c, 1, 49, 0
2, 91720, Note_on_c, 1, 40, 127
2, 92040, Note_off_c, 1, 40, 0
2, 92080, Note_on_c, 1, 49, 127
2, 92400, Note_off_c, 1, 49, 0
2, 92440, Note_on_c, 1, 62, 127
2, 92760, Note_off_c, 1, 62, 0
2, 92800, Note_on_c, 1, 61, 127
2, 93120, Note_off_c, 1, 61, 0
2, 93160, Note_on_c, 1, 59, 127
2, 93480, Note_off_c, 1, 59, 0
2, 93520, Note_on_c, 1, 56, 127
2, 93800, Note_off_c, 1, 56, 0
2, 93840, Note_on_c, 1, 56, 127
2, 93880, Note_off_c, 1, 56, 0
2, 93920, Note_on_c, 1, 59, 127
2, 94240, Note_off_c, 1, 59, 0
2, 94280, Note_on_c, 1, 56, 127
2, 95000, Note_off_c, 1, 56, 0
2, 95040, Note_on_c, 1, 58, 127
2, 95360, Note_off_c, 1, 58, 0
2, 95400, Note_on_c, 1, 61, 127
2, 95720, Note_off_c, 1, 61, 0
2, 95760, Note_on_c, 1, 59, 127
2, 96000, Note_off_c, 1, 59, 0
2, 96040, Note_on_c, 1, 59, 127
2, 96120, Note_off_c, 1, 59, 0
2, 96160, Note_on_c, 1, 49, 127
2, 96480, Note_off_c, 1, 49, 0
2, 96520, Note_on_c, 1, 56, 127
2, 96840, Note_off_c, 1, 56, 0
2, 96880, Note_on_c, 1, 49, 127
2, 97200, Note_off_c, 1, 49, 0
2, 97240, Note_on_c, 1, 61, 127
2, 97560, Note_off_c, 1, 61, 0
2, 97600, Note_on_c, 1, 59, 127
2, 97920, Note_off_c, 1, 59, 0
2, 97960, Note_on_c, 1, 56, 127
2, 98280, Note_off_c, 1, 56, 0
2, 98360, Note_on_c, 1, 56, 127
2, 98680, Note_off_c, 1, 56, 0
2, 98720, Note_on_c, 1, 54, 127
2, 99440, Note_off_c, 1, 54, 0
2, 99480, Note_on_c, 1, 49, 127
2, 99800, Note_off_c, 1, 49, 0
2, 99840, Note_on_c, 1, 54, 127
2, 100160, Note_off_c, 1, 54, 0
2, 100200, Note_on_c, 1, 51, 127
2, 100520, Note_off_c, 1, 51, 0
2, 100600, Note_on_c, 1, 54, 127
2, 100920, Note_off_c, 1, 54, 0
2, 100960, Note_on_c, 1, 49, 127
2, 101280, Note_off_c, 1, 49, 0
2, 101320, Note_on_c, 1, 54, 127
2, 101640, Note_off_c, 1, 54, 0
2, 101680, Note_on_c, 1, 54, 127
2, 102000, Note_off_c, 1, 54, 0
2, 102040, Note_on_c, 1, 59, 127
2, 102360, Note_off_c, 1, 59, 0
2, 102400, Note_on_c, 1, 54, 127
2, 102760, Note_off_c, 1, 54, 0
2, 102840, Note_on_c, 1, 51, 127
2, 103160, Note_off_c, 1, 51, 0
2, 103200, Note_on_c, 1, 54, 127
2, 103520, Note_off_c, 1, 54, 0
2, 103560, Note_on_c, 1, 59, 127
2, 103880, Note_off_c, 1, 59, 0
2, 103920, Note_on_c, 1, 51, 127
2, 104240, Note_off_c, 1, 51, 0
2, 104280, Note_on_c, 1, 59, 127
2, 104600, Note_off_c, 1, 59, 0
2, 104640, Note_on_c, 1, 54, 127
2, 104960, Note_off_c, 1, 54, 0
2, 105000, Note_on_c, 1, 47, 127
2, 105040, Note_off_c, 1, 47, 0
2, 105080, Note_on_c, 1, 47, 127
2, 105360, Note_off_c, 1, 47, 0
2, 105400, Note_on_c, 1, 53, 127
2, 105720, Note_off_c, 1, 53, 0
2, 105760, Note_on_c, 1, 63, 127
2, 105760, Note_on_c, 1, 66, 127
2, 106080, Note_off_c, 1, 63, 0
2, 106080, Note_off_c, 1, 66, 0
2, 106120, Note_on_c, 1, 37, 127
2, 106120, Note_on_c, 1, 63, 127
2, 106120, Note_on_c, 1, 66, 127
2, 106440, Note_off_c, 1, 37, 0
2, 106800, Note_off_c, 1, 63, 0
2, 106800, Note_off_c, 1, 66, 0
2, 106840, Note_on_c, 1, 56, 127
2, 107160, Note_off_c, 1, 56, 0
2, 107200, Note_on_c, 1, 61, 127
2, 107400, Note_off_c, 1, 61, 0
2, 107440, Note_on_c, 1, 61, 127
2, 107560, Note_off_c, 1, 61, 0
2, 107600, Note_on_c, 1, 59, 127
2, 107920, Note_off_c, 1, 59, 0
2, 107960, Note_on_c, 1, 56, 127
2, 108280, Note_off_c, 1, 56, 0
2, 108320, Note_on_c, 1, 59, 127
2, 108640, Note_off_c, 1, 59, 0
2, 108680, Note_on_c, 1, 68, 127
2, 109360, Note_off_c, 1, 68, 0
2, 109400, Note_on_c, 1, 61, 127
2, 109600, Note_off_c, 1, 61, 0
2, 109640, Note_on_c, 1, 61, 127
2, 109760, Note_off_c, 1, 61, 0
2, 109800, Note_on_c, 1, 44, 127
2, 109800, Note_on_c, 1, 59, 127
2, 110120, Note_off_c, 1, 44, 0
2, 110120, Note_off_c, 1, 59, 0
2, 110160, Note_on_c, 1, 68, 127
2, 110480, Note_off_c, 1, 68, 0
2, 110520, Note_on_c, 1, 47, 127
2, 110840, Note_off_c, 1, 47, 0
2, 110880, Note_on_c, 1, 49, 127
2, 111200, Note_off_c, 1, 49, 0
2, 111240, Note_on_c, 1, 56, 127
2, 111560, Note_off_c, 1, 56, 0
2, 111600, Note_on_c, 1, 59, 127
2, 111800, Note_off_c, 1, 59, 0
2, 111840, Note_on_c, 1, 59, 127
2, 111960, Note_off_c, 1, 59, 0
2, 112000, Note_on_c, 1, 54, 127
2, 112320, Note_off_c, 1, 54, 0
2, 112360, Note_on_c, 1, 58, 127
2, 112680, Note_off_c, 1, 58, 0
2, 112720, Note_on_c, 1, 54, 127
2, 113040, Note_off_c, 1, 54, 0
2, 113080, Note_on_c, 1, 47, 127
2, 113440, Note_off_c, 1, 47, 0
2, 113480, Note_on_c, 1, 51, 127
2, 113800, Note_off_c, 1, 51, 0
2, 113840, Note_on_c, 1, 47, 127
2, 114120, Note_off_c, 1, 47, 0
2, 114160, Note_on_c, 1, 47, 127
2, 114200, Note_off_c, 1, 47, 0
2, 114240, Note_on_c, 1, 54, 127
2, 114560, Note_off_c, 1, 54, 0
2, 114600, Note_on_c, 1, 63, 127
2, 114920, Note_off_c, 1, 63, 0
2, 114960, Note_on_c, 1, 59, 127
2, 115280, Note_off_c, 1, 59, 0
2, 115320, Note_on_c, 1, 54, 127
2, 116040, Note_off_c, 1, 54, 0
2, 116080, Note_on_c, 1, 47, 127
2, 116280, Note_off_c, 1, 47, 0
2, 116320, Note_on_c, 1, 47, 127
2, 116440, Note_off_c, 1, 47, 0
2, 116480, Note_on_c, 1, 51, 127
2, 116800, Note_off_c, 1, 51, 0
2, 116840, Note_on_c, 1, 56, 127
2, 117160, Note_off_c, 1, 56, 0
2, 117200, Note_on_c, 1, 59, 127
2, 117560, Note_off_c, 1, 59, 0
2, 117600, Note_on_c, 1, 57, 127
2, 117920, Note_off_c, 1, 57, 0
2, 117960, Note_on_c, 1, 54, 127
2, 118280, Note_off_c, 1, 54, 0
2, 118320, Note_on_c, 1, 48, 127
2, 118520, Note_off_c, 1, 48, 0
2, 118560, Note_on_c, 1, 48, 127
2, 119040, Note_off_c, 1, 48, 0
2, 119080, Note_on_c, 1, 51, 127
2, 119400, Note_off_c, 1, 51, 0
2, 119440, Note_on_c, 1, 61, 127
2, 119760, Note_off_c, 1, 61, 0
2, 119800, Note_on_c, 1, 59, 127
2, 120000, Note_off_c, 1, 59, 0
2, 120040, End_track
3, 0, Start_track
3, 0, Title_t, "MIDI"
3, 1536, End_track
0, 0, End_of_file
