0, 0, Header, 1, 3, 192
1, 0, Start_track
1, 0, Time_signature, 4, 2, 24, 8
1, 0, Tempo, 500000
1, 120040, End_track
2, 0, Start_track
2, 0, Text_t, "random instrument: random person i dunno whatev"
2, 0, Title_t, "Track 1"
2, 0, Note_on_c, 1, 40, 127
2, 0, Note_on_c, 1, 48, 127
2, 0, Note_on_c, 1, 56, 127
2, 0, Note_on_c, 1, 60, 127
2, 40, Note_off_c, 1, 40, 0
2, 40, Note_off_c, 1, 48, 0
2, 40, Note_on_c, 1, 55, 127
2, 40, Note_off_c, 1, 56, 0
2, 40, Note_off_c, 1, 60, 0
2, 40, Note_on_c, 1, 72, 127
2, 40, Note_on_c, 1, 75, 127
2, 40, Note_on_c, 1, 79, 127
2, 40, Note_on_c, 1, 84, 127
2, 80, Note_off_c, 1, 55, 0
2, 80, Note_off_c, 1, 72, 0
2, 80, Note_off_c, 1, 75, 0
2, 80, Note_off_c, 1, 79, 0
2, 80, Note_off_c, 1, 84, 0
2, 120, Note_on_c, 1, 40, 127
2, 120, Note_on_c, 1, 48, 127
2, 120, Note_on_c, 1, 56, 127
2, 120, Note_on_c, 1, 60, 127
2, 200, Note_on_c, 1, 35, 127
2, 200, Note_on_c, 1, 39, 127
2, 200, Note_off_c, 1, 40, 0
2, 200, Note_on_c, 1, 47, 127
2, 200, Note_off_c, 1, 48, 0
2, 200, Note_on_c, 1, 50, 127
2, 200, Note_off_c, 1, 56, 0
2, 200, Note_off_c, 1, 60, 0
2, 240, Note_on_c, 1, 34, 127
2, 240, Note_off_c, 1, 35, 0
2, 240, Note_on_c, 1, 46, 127
2, 240, Note_off_c, 1, 47, 0
2, 240, Note_off_c, 1, 50, 0
2, 240, Note_on_c, 1, 73, 127
2, 240, Note_on_c, 1, 75, 127
2, 360, Note_on_c, 1, 80, 127
2, 400, Note_off_c, 1, 34, 0
2, 400, Note_on_c, 1, 35, 127
2, 400, Note_off_c, 1, 39, 0
2, 400, Note_on_c, 1, 40, 127
2, 400, Note_off_c, 1, 46, 0
2, 400, Note_on_c, 1, 47, 127
2, 400, Note_on_c, 1, 62, 127
2, 400, Note_off_c, 1, 73, 0
2, 400, Note_off_c, 1, 75, 0
2, 400, Note_off_c, 1, 80, 0
2, 440, Note_off_c, 1, 35, 0
2, 440, Note_off_c, 1, 40, 0
2, 440, Note_off_c, 1, 47, 0
2, 440, Note_off_c, 1, 62, 0
2, 440, Note_on_c, 1, 79, 127
2, 480, Note_on_c, 1, 76, 127
2, 480, Note_off_c, 1, 79, 0
2, 520, Note_off_c, 1, 76, 0
2, 560, Note_on_c, 1, 72, 127
2, 640, Note_off_c, 1, 72, 0
2, 680, Note_on_c, 1, 70, 127
2, 840, Note_off_c, 1, 70, 0
2, 880, Note_on_c, 1, 67, 127
2, 1000, Note_off_c, 1, 67, 0
2, 1040, Note_on_c, 1, 69, 127
2, 1160, Note_off_c, 1, 69, 0
2, 1200, Note_on_c, 1, 70, 127
2, 1360, Note_off_c, 1, 70, 0
2, 1400, Note_on_c, 1, 64, 127
2, 1520, Note_off_c, 1, 64, 0
2, 1560, Note_on_c, 1, 69, 127
2, 1720, Note_off_c, 1, 69, 0
2, 1760, Note_on_c, 1, 70, 127
2, 1880, Note_off_c, 1, 70, 0
2, 1920, Note_on_c, 1, 72, 127
2, 2040, Note_off_c, 1, 72, 0
2, 2080, Note_on_c, 1, 72, 127
2, 2120, Note_off_c, 1, 72, 0
2, 2160, Note_on_c, 1, 74, 127
2, 2280, Note_off_c, 1, 74, 0
2, 2320, Note_on_c, 1, 72, 127
2, 2480, Note_off_c, 1, 72, 0
2, 2520, Note_on_c, 1, 81, 127
2, 2640, Note_off_c, 1, 81, 0
2, 2680, Note_on_c, 1, 82, 127
2, 2840, Note_off_c, 1, 82, 0
2, 2880, Note_on_c, 1, 81, 127
2, 3000, Note_off_c, 1, 81, 0
2, 3040, Note_on_c, 1, 79, 127
2, 3160, Note_off_c, 1, 79, 0
2, 3200, Note_on_c, 1, 77, 127
2, 3360, Note_off_c, 1, 77, 0
2, 3400, Note_on_c, 1, 76, 127
2, 3520, Note_off_c, 1, 76, 0
2, 3560, Note_on_c, 1, 74, 127
2, 3720, Note_off_c, 1, 74, 0
2, 3760, Note_on_c, 1, 72, 127
2, 3920, Note_off_c, 1, 72, 0
2, 3960, Note_on_c, 1, 71, 127
2, 4080, Note_off_c, 1, 71, 0
2, 4120, Note_on_c, 1, 72, 127
2, 4240, Note_off_c, 1, 72, 0
2, 4280, Note_on_c, 1, 72, 127
2, 4320, Note_off_c, 1, 72, 0
2, 4360, Note_on_c, 1, 71, 127
2, 4480, Note_off_c, 1, 71, 0
2, 4520, Note_on_c, 1, 70, 127
2, 4680, Note_off_c, 1, 70, 0
2, 4720, Note_on_c, 1, 69, 127
2, 4840, Note_off_c, 1, 69, 0
2, 4880, Note_on_c, 1, 63, 127
2, 5040, Note_off_c, 1, 63, 0
2, 5080, Note_on_c, 1, 62, 127
2, 5560, Note_off_c, 1, 62, 0
2, 5600, Note_on_c, 1, 37, 127
2, 5600, Note_on_c, 1, 49, 127
2, 5600, Note_on_c, 1, 56, 127
2, 5760, Note_off_c, 1, 56, 0
2, 5760, Note_on_c, 1, 61, 127
2, 6280, Note_off_c, 1, 61, 0
2, 6320, Note_off_c, 1, 37, 0
2, 6320, Note_off_c, 1, 49, 0
2, 6360, Note_on_c, 1, 37, 127
2, 6360, Note_on_c, 1, 49, 127
2, 6360, Note_on_c, 1, 61, 127
2, 7040, Note_off_c, 1, 37, 0
2, 7040, Note_off_c, 1, 49, 0
2, 7040, Note_off_c, 1, 61, 0
2, 7080, Note_on_c, 1, 46, 127
2, 7080, Note_on_c, 1, 58, 127
2, 7080, Note_on_c, 1, 70, 127
2, 8160, Note_off_c, 1, 46, 0
2, 8160, Note_off_c, 1, 58, 0
2, 8160, Note_off_c, 1, 70, 0
2, 8240, Note_on_c, 1, 49, 127
2, 8240, Note_on_c, 1, 61, 127
2, 8240, Note_on_c, 1, 73, 127
2, 10120, Note_off_c, 1, 49, 0
2, 10120, Note_off_c, 1, 61, 0
2, 10120, Note_off_c, 1, 73, 0
2, 10160, Note_on_c, 1, 41, 127
2, 10160, Note_on_c, 1, 53, 127
2, 10160, Note_on_c, 1, 65, 127
2, 10280, Note_off_c, 1, 41, 0
2, 10320, Note_off_c, 1, 53, 0
2, 10320, Note_off_c, 1, 65, 0
2, 10360, Note_on_c, 1, 41, 127
2, 10360, Note_on_c, 1, 53, 127
2, 10360, Note_on_c, 1, 65, 127
2, 10560, Note_off_c, 1, 41, 0
2, 10560, Note_off_c, 1, 53, 0
2, 10560, Note_off_c, 1, 65, 0
2, 10600, Note_on_c, 1, 41, 127
2, 10600, Note_on_c, 1, 53, 127
2, 10600, Note_on_c, 1, 65, 127
2, 11680, Note_off_c, 1, 41, 0
2, 11680, Note_off_c, 1, 53, 0
2, 11680, Note_off_c, 1, 65, 0
2, 11720, Note_on_c, 1, 46, 127
2, 11720, Note_on_c, 1, 58, 127
2, 11720, Note_on_c, 1, 70, 127
2, 12240, Note_off_c, 1, 46, 0
2, 12240, Note_off_c, 1, 58, 0
2, 12240, Note_off_c, 1, 70, 0
2, 12280, Note_on_c, 1, 48, 127
2, 12280, Note_on_c, 1, 56, 127
2, 12280, Note_on_c, 1, 60, 127
2, 12280, Note_on_c, 1, 68, 127
2, 12480, Note_off_c, 1, 48, 0
2, 12480, Note_off_c, 1, 56, 0
2, 12480, Note_off_c, 1, 60, 0
2, 12480, Note_off_c, 1, 68, 0
2, 12520, Note_on_c, 1, 48, 127
2, 12520, Note_on_c, 1, 56, 127
2, 12520, Note_on_c, 1, 60, 127
2, 12520, Note_on_c, 1, 68, 127
2, 12840, Note_off_c, 1, 48, 0
2, 12840, Note_off_c, 1, 56, 0
2, 12840, Note_off_c, 1, 60, 0
2, 12840, Note_off_c, 1, 68, 0
2, 12880, Note_on_c, 1, 58, 127
2, 12880, Note_on_c, 1, 61, 127
2, 12880, Note_on_c, 1, 65, 127
2, 12880, Note_on_c, 1, 70, 127
2, 13440, Note_off_c, 1, 58, 0
2, 13440, Note_off_c, 1, 61, 0
2, 13440, Note_off_c, 1, 65, 0
2, 13440, Note_off_c, 1, 70, 0
2, 13480, Note_on_c, 1, 63, 127
2, 13480, Note_on_c, 1, 66, 127
2, 13480, Note_on_c, 1, 72, 127
2, 13480, Note_on_c, 1, 82, 127
2, 13840, Note_off_c, 1, 63, 0
2, 13840, Note_off_c, 1, 66, 0
2, 13840, Note_off_c, 1, 72, 0
2, 13840, Note_off_c, 1, 82, 0
2, 13880, Note_on_c, 1, 63, 127
2, 13880, Note_on_c, 1, 66, 127
2, 13880, Note_on_c, 1, 72, 127
2, 13880, Note_on_c, 1, 81, 127
2, 14520, Note_off_c, 1, 63, 0
2, 14520, Note_off_c, 1, 66, 0
2, 14520, Note_off_c, 1, 72, 0
2, 14520, Note_off_c, 1, 81, 0
2, 14560, Note_on_c, 1, 63, 127
2, 14560, Note_on_c, 1, 66, 127
2, 14560, Note_on_c, 1, 72, 127
2, 14560, Note_on_c, 1, 81, 127
2, 14600, Note_off_c, 1, 63, 0
2, 14600, Note_off_c, 1, 66, 0
2, 14600, Note_off_c, 1, 72, 0
2, 14600, Note_off_c, 1, 81, 0
2, 14640, Note_on_c, 1, 62, 127
2, 14640, Note_on_c, 1, 65, 127
2, 14640, Note_on_c, 1, 81, 127
2, 14800, Note_off_c, 1, 81, 0
2, 14840, Note_on_c, 1, 89, 127
2, 14960, Note_off_c, 1, 89, 0
2, 15000, Note_on_c, 1, 89, 127
2, 15160, Note_off_c, 1, 62, 0
2, 15160, Note_off_c, 1, 65, 0
2, 15160, Note_off_c, 1, 89, 0
2, 15200, Note_on_c, 1, 64, 127
2, 15200, Note_on_c, 1, 67, 127
2, 15200, Note_on_c, 1, 69, 127
2, 15200, Note_on_c, 1, 95, 127
2, 15240, Note_off_c, 1, 64, 0
2, 15240, Note_off_c, 1, 67, 0
2, 15240, Note_off_c, 1, 69, 0
2, 15240, Note_off_c, 1, 95, 0
2, 15280, Note_on_c, 1, 62, 127
2, 15280, Note_on_c, 1, 65, 127
2, 15280, Note_on_c, 1, 81, 127
2, 15280, Note_on_c, 1, 86, 127
2, 15280, Note_on_c, 1, 89, 127
2, 15360, Note_off_c, 1, 62, 0
2, 15360, Note_off_c, 1, 65, 0
2, 15360, Note_off_c, 1, 81, 0
2, 15360, Note_off_c, 1, 86, 0
2, 15360, Note_off_c, 1, 89, 0
2, 15400, Note_on_c, 1, 62, 127
2, 15400, Note_on_c, 1, 65, 127
2, 15400, Note_on_c, 1, 81, 127
2, 15400, Note_on_c, 1, 86, 127
2, 15400, Note_on_c, 1, 89, 127
2, 15640, Note_off_c, 1, 62, 0
2, 15640, Note_off_c, 1, 65, 0
2, 15640, Note_off_c, 1, 81, 0
2, 15640, Note_off_c, 1, 86, 0
2, 15640, Note_off_c, 1, 89, 0
2, 15680, Note_on_c, 1, 63, 127
2, 15680, Note_on_c, 1, 66, 127
2, 15680, Note_on_c, 1, 78, 127
2, 15680, Note_on_c, 1, 82, 127
2, 15880, Note_off_c, 1, 63, 0
2, 15880, Note_off_c, 1, 66, 0
2, 15880, Note_off_c, 1, 78, 0
2, 15880, Note_off_c, 1, 82, 0
2, 15920, Note_on_c, 1, 53, 127
2, 15920, Note_on_c, 1, 60, 127
2, 15920, Note_on_c, 1, 63, 127
2, 15920, Note_on_c, 1, 87, 127
2, 16160, Note_off_c, 1, 87, 0
2, 16200, Note_on_c, 1, 87, 127
2, 16280, Note_off_c, 1, 87, 0
2, 16320, Note_on_c, 1, 84, 127
2, 16400, Note_off_c, 1, 53, 0
2, 16400, Note_off_c, 1, 60, 0
2, 16400, Note_off_c, 1, 63, 0
2, 16400, Note_off_c, 1, 84, 0
2, 16480, Note_on_c, 1, 53, 127
2, 16480, Note_on_c, 1, 60, 127
2, 16480, Note_on_c, 1, 63, 127
2, 16480, Note_on_c, 1, 75, 127
2, 16720, Note_off_c, 1, 53, 0
2, 16720, Note_off_c, 1, 60, 0
2, 16720, Note_off_c, 1, 63, 0
2, 16720, Note_off_c, 1, 75, 0
2, 16760, Note_on_c, 1, 53, 127
2, 16760, Note_on_c, 1, 60, 127
2, 16760, Note_on_c, 1, 63, 127
2, 16760, Note_on_c, 1, 75, 127
2, 16960, Note_off_c, 1, 53, 0
2, 16960, Note_off_c, 1, 60, 0
2, 16960, Note_off_c, 1, 63, 0
2, 16960, Note_off_c, 1, 75, 0
2, 17000, Note_on_c, 1, 53, 127
2, 17000, Note_on_c, 1, 60, 127
2, 17000, Note_on_c, 1, 63, 127
2, 17000, Note_on_c, 1, 75, 127
2, 17200, Note_off_c, 1, 53, 0
2, 17200, Note_off_c, 1, 60, 0
2, 17200, Note_off_c, 1, 63, 0
2, 17200, Note_off_c, 1, 75, 0
2, 17240, Note_on_c, 1, 46, 127
2, 17240, Note_on_c, 1, 62, 127
2, 17240, Note_on_c, 1, 68, 127
2, 17240, Note_on_c, 1, 70, 127
2, 18000, Note_off_c, 1, 46, 0
2, 18000, Note_off_c, 1, 62, 0
2, 18000, Note_off_c, 1, 68, 0
2, 18000, Note_off_c, 1, 70, 0
2, 19840, Note_on_c, 1, 36, 127
2, 19840, Note_on_c, 1, 48, 127
2, 20760, Note_off_c, 1, 36, 0
2, 20760, Note_off_c, 1, 48, 0
2, 20800, Note_on_c, 1, 36, 127
2, 20800, Note_on_c, 1, 48, 127
2, 21280, Note_off_c, 1, 36, 0
2, 21280, Note_off_c, 1, 48, 0
2, 21320, Note_on_c, 1, 36, 127
2, 21320, Note_on_c, 1, 48, 127
2, 21520, Note_off_c, 1, 36, 0
2, 21520, Note_off_c, 1, 48, 0
2, 21640, Note_on_c, 1, 36, 127
2, 21640, Note_on_c, 1, 48, 127
2, 21840, Note_off_c, 1, 36, 0
2, 21840, Note_off_c, 1, 48, 0
2, 22640, Note_on_c, 1, 34, 127
2, 22640, Note_on_c, 1, 46, 127
2, 22640, Note_on_c, 1, 58, 127
2, 24240, Note_off_c, 1, 34, 0
2, 24240, Note_off_c, 1, 46, 0
2, 24240, Note_off_c, 1, 58, 0
2, 24280, Note_on_c, 1, 34, 127
2, 24280, Note_on_c, 1, 46, 127
2, 24280, Note_on_c, 1, 58, 127
2, 24920, Note_off_c, 1, 34, 0
2, 24920, Note_off_c, 1, 46, 0
2, 24920, Note_off_c, 1, 58, 0
2, 25480, Note_on_c, 1, 42, 127
2, 25960, Note_off_c, 1, 42, 0
2, 26000, Note_on_c, 1, 35, 127
2, 26160, Note_off_c, 1, 35, 0
2, 26200, Note_on_c, 1, 35, 127
2, 26520, Note_off_c, 1, 35, 0
2, 26560, Note_on_c, 1, 39, 127
2, 27040, Note_off_c, 1, 39, 0
2, 27080, Note_on_c, 1, 37, 127
2, 27320, Note_off_c, 1, 37, 0
2, 27360, Note_on_c, 1, 44, 127
2, 27560, Note_off_c, 1, 44, 0
2, 27600, Note_on_c, 1, 39, 127
2, 27800, Note_off_c, 1, 39, 0
2, 27840, Note_on_c, 1, 37, 127
2, 28040, Note_off_c, 1, 37, 0
2, 28080, Note_on_c, 1, 49, 127
2, 28280, Note_off_c, 1, 49, 0
2, 28360, Note_on_c, 1, 49, 127
2, 28560, Note_off_c, 1, 49, 0
2, 28600, Note_on_c, 1, 46, 127
2, 28800, Note_off_c, 1, 46, 0
2, 28840, Note_on_c, 1, 51, 127
2, 29080, Note_off_c, 1, 51, 0
2, 29120, Note_on_c, 1, 54, 127
2, 29320, Note_off_c, 1, 54, 0
2, 29360, Note_on_c, 1, 59, 127
2, 29600, Note_off_c, 1, 59, 0
2, 29640, Note_on_c, 1, 63, 127
2, 29840, Note_off_c, 1, 63, 0
2, 29880, Note_on_c, 1, 70, 127
2, 30080, Note_off_c, 1, 70, 0
2, 30120, Note_on_c, 1, 75, 127
2, 30360, Note_off_c, 1, 75, 0
2, 30400, Note_on_c, 1, 76, 127
2, 30440, Note_off_c, 1, 76, 0
2, 30480, Note_on_c, 1, 76, 127
2, 30640, Note_off_c, 1, 76, 0
2, 30680, Note_on_c, 1, 75, 127
2, 30920, Note_off_c, 1, 75, 0
2, 30960, Note_on_c, 1, 73, 127
2, 31440, Note_off_c, 1, 73, 0
2, 31480, Note_on_c, 1, 60, 127
2, 31680, Note_off_c, 1, 60, 0
2, 31720, Note_on_c, 1, 61, 127
2, 31920, Note_off_c, 1, 61, 0
2, 31960, Note_on_c, 1, 64, 127
2, 32200, Note_off_c, 1, 64, 0
2, 32240, Note_on_c, 1, 63, 127
2, 32440, Note_off_c, 1, 63, 0
2, 32480, Note_on_c, 1, 61, 127
2, 32640, Note_off_c, 1, 61, 0
2, 32680, Note_on_c, 1, 61, 127
2, 32760, Note_off_c, 1, 61, 0
2, 32800, Note_on_c, 1, 63, 127
2, 33000, Note_off_c, 1, 63, 0
2, 33040, Note_on_c, 1, 69, 127
2, 33280, Note_off_c, 1, 69, 0
2, 33320, Note_on_c, 1, 44, 127
2, 33520, Note_off_c, 1, 44, 0
2, 33560, Note_on_c, 1, 49, 127
2, 33760, Note_off_c, 1, 49, 0
2, 33800, Note_on_c, 1, 52, 127
2, 34040, Note_off_c, 1, 52, 0
2, 34080, Note_on_c, 1, 44, 127
2, 34280, Note_off_c, 1, 44, 0
2, 34320, Note_on_c, 1, 45, 127
2, 34520, Note_off_c, 1, 45, 0
2, 34560, Note_on_c, 1, 49, 127
2, 34680, Note_off_c, 1, 49, 0
2, 34720, Note_on_c, 1, 49, 127
2, 34840, Note_off_c, 1, 49, 0
2, 34880, Note_on_c, 1, 40, 127
2, 35080, Note_off_c, 1, 40, 0
2, 35120, Note_on_c, 1, 45, 127
2, 35320, Note_off_c, 1, 45, 0
2, 35360, Note_on_c, 1, 49, 127
2, 35600, Note_off_c, 1, 49, 0
2, 35640, Note_on_c, 1, 59, 127
2, 35840, Note_off_c, 1, 59, 0
2, 35880, Note_on_c, 1, 64, 127
2, 36080, Note_off_c, 1, 64, 0
2, 36120, Note_on_c, 1, 68, 127
2, 36360, Note_off_c, 1, 68, 0
2, 36400, Note_on_c, 1, 44, 127
2, 36400, Note_on_c, 1, 76, 127
2, 36600, Note_off_c, 1, 76, 0
2, 36640, Note_on_c, 1, 75, 127
2, 36800, Note_off_c, 1, 44, 0
2, 36800, Note_off_c, 1, 75, 0
2, 36840, Note_on_c, 1, 44, 127
2, 36840, Note_on_c, 1, 75, 127
2, 36920, Note_off_c, 1, 44, 0
2, 36920, Note_off_c, 1, 75, 0
2, 36960, Note_on_c, 1, 54, 127
2, 36960, Note_on_c, 1, 69, 127
2, 37160, Note_off_c, 1, 54, 0
2, 37200, Note_on_c, 1, 57, 127
2, 37400, Note_off_c, 1, 57, 0
2, 37400, Note_off_c, 1, 69, 0
2, 37440, Note_on_c, 1, 51, 127
2, 37440, Note_on_c, 1, 69, 127
2, 37680, Note_off_c, 1, 51, 0
2, 37680, Note_off_c, 1, 69, 0
2, 37720, Note_on_c, 1, 52, 127
2, 37720, Note_on_c, 1, 68, 127
2, 37920, Note_off_c, 1, 52, 0
2, 37920, Note_off_c, 1, 68, 0
2, 37960, Note_on_c, 1, 51, 127
2, 37960, Note_on_c, 1, 66, 127
2, 38200, Note_off_c, 1, 66, 0
2, 38240, Note_on_c, 1, 69, 127
2, 38440, Note_off_c, 1, 51, 0
2, 38440, Note_off_c, 1, 69, 0
2, 38480, Note_on_c, 1, 49, 127
2, 38480, Note_on_c, 1, 68, 127
2, 38720, Note_off_c, 1, 68, 0
2, 38760, Note_on_c, 1, 64, 127
2, 38840, Note_off_c, 1, 49, 0
2, 38840, Note_off_c, 1, 64, 0
2, 38880, Note_on_c, 1, 49, 127
2, 38880, Note_on_c, 1, 64, 127
2, 39000, Note_off_c, 1, 49, 0
2, 39000, Note_off_c, 1, 64, 0
2, 39040, Note_on_c, 1, 45, 127
2, 39040, Note_on_c, 1, 68, 127
2, 39280, Note_off_c, 1, 68, 0
2, 39320, Note_on_c, 1, 69, 127
2, 39520, Note_off_c, 1, 45, 0
2, 39520, Note_off_c, 1, 69, 0
2, 39560, Note_on_c, 1, 49, 127
2, 39560, Note_on_c, 1, 67, 127
2, 39800, Note_off_c, 1, 67, 0
2, 39840, Note_on_c, 1, 64, 127
2, 40040, Note_off_c, 1, 49, 0
2, 40040, Note_off_c, 1, 64, 0
2, 40080, Note_on_c, 1, 54, 127
2, 40080, Note_on_c, 1, 69, 127
2, 40320, Note_off_c, 1, 54, 0
2, 40360, Note_on_c, 1, 56, 127
2, 40560, Note_off_c, 1, 56, 0
2, 40560, Note_off_c, 1, 69, 0
2, 40600, Note_on_c, 1, 51, 127
2, 40600, Note_on_c, 1, 66, 127
2, 40840, Note_off_c, 1, 51, 0
2, 40840, Note_off_c, 1, 66, 0
2, 40880, Note_on_c, 1, 44, 127
2, 40880, Note_on_c, 1, 66, 127
2, 40960, Note_off_c, 1, 44, 0
2, 40960, Note_off_c, 1, 66, 0
2, 41000, Note_on_c, 1, 44, 127
2, 41000, Note_on_c, 1, 66, 127
2, 41160, Note_off_c, 1, 44, 0
2, 41160, Note_off_c, 1, 66, 0
2, 41200, Note_on_c, 1, 49, 127
2, 41200, Note_on_c, 1, 66, 127
2, 41400, Note_off_c, 1, 66, 0
2, 41440, Note_on_c, 1, 64, 127
2, 41680, Note_off_c, 1, 49, 0
2, 41680, Note_off_c, 1, 64, 0
2, 41720, Note_on_c, 1, 49, 127
2, 41720, Note_on_c, 1, 66, 127
2, 41920, Note_off_c, 1, 66, 0
2, 41960, Note_on_c, 1, 61, 127
2, 42200, Note_off_c, 1, 61, 0
2, 42240, Note_on_c, 1, 64, 127
2, 42440, Note_off_c, 1, 64, 0
2, 42480, Note_on_c, 1, 68, 127
2, 42720, Note_off_c, 1, 49, 0
2, 42720, Note_off_c, 1, 68, 0
2, 42760, Note_on_c, 1, 54, 127
2, 42760, Note_on_c, 1, 69, 127
2, 42960, Note_off_c, 1, 54, 0
2, 43000, Note_on_c, 1, 54, 127
2, 43240, Note_off_c, 1, 54, 0
2, 43240, Note_off_c, 1, 69, 0
2, 43320, Note_on_c, 1, 52, 127
2, 43320, Note_on_c, 1, 67, 127
2, 43520, Note_off_c, 1, 67, 0
2, 43560, Note_on_c, 1, 64, 127
2, 43800, Note_off_c, 1, 52, 0
2, 43800, Note_off_c, 1, 64, 0
2, 43840, Note_on_c, 1, 49, 127
2, 43840, Note_on_c, 1, 67, 127
2, 44040, Note_off_c, 1, 67, 0
2, 44080, Note_on_c, 1, 61, 127
2, 44320, Note_off_c, 1, 61, 0
2, 44360, Note_on_c, 1, 55, 127
2, 44560, Note_off_c, 1, 55, 0
2, 44600, Note_on_c, 1, 64, 127
2, 44840, Note_off_c, 1, 49, 0
2, 44840, Note_off_c, 1, 64, 0
2, 44880, Note_on_c, 1, 49, 127
2, 44880, Note_on_c, 1, 55, 127
2, 45360, Note_off_c, 1, 49, 0
2, 45360, Note_off_c, 1, 55, 0
2, 45440, Note_on_c, 1, 48, 127
2, 45440, Note_on_c, 1, 56, 127
2, 45680, Note_off_c, 1, 48, 0
2, 45720, Note_on_c, 1, 61, 127
2, 45920, Note_off_c, 1, 56, 0
2, 45960, Note_on_c, 1, 53, 127
2, 46200, Note_off_c, 1, 53, 0
2, 46200, Note_on_c, 1, 56, 127
2, 46200, Note_off_c, 1, 61, 0
2, 46240, Note_on_c, 1, 63, 127
2, 46440, Note_off_c, 1, 56, 0
2, 46440, Note_off_c, 1, 63, 0
2, 46480, Note_on_c, 1, 44, 127
2, 46480, Note_on_c, 1, 51, 127
2, 46480, Note_on_c, 1, 68, 127
2, 47520, Note_off_c, 1, 44, 0
2, 47520, Note_off_c, 1, 51, 0
2, 47520, Note_off_c, 1, 68, 0
2, 47600, Note_on_c, 1, 56, 127
2, 47600, Note_on_c, 1, 62, 127
2, 47600, Note_on_c, 1, 71, 127
2, 48080, Note_off_c, 1, 56, 0
2, 48080, Note_off_c, 1, 62, 0
2, 48080, Note_off_c, 1, 71, 0
2, 48120, Note_on_c, 1, 50, 127
2, 48120, Note_on_c, 1, 68, 127
2, 48600, Note_off_c, 1, 68, 0
2, 48640, Note_on_c, 1, 65, 127
2, 49120, Note_off_c, 1, 50, 0
2, 49120, Note_off_c, 1, 65, 0
2, 49160, Note_on_c, 1, 51, 127
2, 49160, Note_on_c, 1, 66, 127
2, 49600, Note_off_c, 1, 51, 0
2, 49600, Note_off_c, 1, 66, 0
2, 49640, Note_on_c, 1, 51, 127
2, 49640, Note_on_c, 1, 66, 127
2, 49720, Note_on_c, 1, 59, 127
2, 49720, Note_off_c, 1, 66, 0
2, 49720, Note_on_c, 1, 68, 127
2, 50200, Note_off_c, 1, 68, 0
2, 50240, Note_on_c, 1, 66, 127
2, 50720, Note_off_c, 1, 59, 0
2, 50760, Note_on_c, 1, 54, 127
2, 51240, Note_off_c, 1, 51, 0
2, 51240, Note_off_c, 1, 54, 0
2, 51240, Note_on_c, 1, 59, 127
2, 51240, Note_off_c, 1, 66, 0
2, 51560, Note_off_c, 1, 59, 0
2, 51600, Note_on_c, 1, 59, 127
2, 51800, Note_off_c, 1, 59, 0
2, 51840, Note_on_c, 1, 63, 127
2, 52320, Note_off_c, 1, 63, 0
2, 52360, Note_on_c, 1, 61, 127
2, 52840, Note_off_c, 1, 61, 0
2, 52880, Note_on_c, 1, 63, 127
2, 53360, Note_off_c, 1, 63, 0
2, 53400, Note_on_c, 1, 61, 127
2, 53600, Note_off_c, 1, 61, 0
2, 53640, Note_on_c, 1, 61, 127
2, 53920, Note_off_c, 1, 61, 0
2, 53960, Note_on_c, 1, 42, 127
2, 53960, Note_on_c, 1, 63, 127
2, 54440, Note_off_c, 1, 63, 0
2, 54480, Note_on_c, 1, 52, 127
2, 54480, Note_on_c, 1, 58, 127
2, 54720, Note_on_c, 1, 49, 127
2, 54720, Note_off_c, 1, 52, 0
2, 55440, Note_off_c, 1, 49, 0
2, 55480, Note_on_c, 1, 49, 127
2, 55720, Note_off_c, 1, 42, 0
2, 55720, Note_off_c, 1, 49, 0
2, 55720, Note_off_c, 1, 58, 0
2, 55760, Note_on_c, 1, 42, 127
2, 55760, Note_on_c, 1, 49, 127
2, 55760, Note_on_c, 1, 58, 127
2, 56000, Note_off_c, 1, 49, 0
2, 56040, Note_on_c, 1, 52, 127
2, 56400, Note_on_c, 1, 61, 127
2, 56440, Note_off_c, 1, 52, 0
2, 56440, Note_off_c, 1, 61, 0
2, 56480, Note_on_c, 1, 49, 127
2, 57080, Note_off_c, 1, 49, 0
2, 57120, Note_on_c, 1, 49, 127
2, 57640, Note_off_c, 1, 42, 0
2, 57640, Note_off_c, 1, 49, 0
2, 57640, Note_off_c, 1, 58, 0
2, 57680, Note_on_c, 1, 42, 127
2, 57680, Note_on_c, 1, 49, 127
2, 57680, Note_on_c, 1, 58, 127
2, 58960, Note_on_c, 1, 63, 127
2, 59480, Note_off_c, 1, 58, 0
2, 59480, Note_off_c, 1, 63, 0
2, 59520, Note_off_c, 1, 42, 0
2, 59520, Note_off_c, 1, 49, 0
2, 59560, Note_on_c, 1, 42, 127
2, 59560, Note_on_c, 1, 49, 127
2, 59560, Note_on_c, 1, 58, 127
2, 61480, Note_off_c, 1, 42, 0
2, 61480, Note_off_c, 1, 49, 0
2, 61480, Note_off_c, 1, 58, 0
2, 61520, Note_on_c, 1, 42, 127
2, 61520, Note_on_c, 1, 49, 127
2, 61520, Note_on_c, 1, 58, 127
2, 62000, Note_off_c, 1, 49, 0
2, 62040, Note_on_c, 1, 49, 127
2, 63480, Note_on_c, 1, 65, 127
2, 63520, Note_off_c, 1, 42, 0
2, 63520, Note_off_c, 1, 49, 0
2, 63520, Note_off_c, 1, 58, 0
2, 63520, Note_off_c, 1, 65, 0
2, 63560, Note_on_c, 1, 42, 127
2, 63560, Note_on_c, 1, 49, 127
2, 63560, Note_on_c, 1, 58, 127
2, 63560, Note_on_c, 1, 65, 127
2, 63760, Note_off_c, 1, 65, 0
2, 63800, Note_on_c, 1, 65, 127
2, 64040, Note_off_c, 1, 65, 0
2, 64280, Note_off_c, 1, 49, 0
2, 64280, Note_off_c, 1, 58, 0
2, 64280, Note_on_c, 1, 68, 127
2, 64320, Note_on_c, 1, 49, 127
2, 64320, Note_on_c, 1, 58, 127
2, 64320, Note_off_c, 1, 68, 0
2, 64320, Note_on_c, 1, 78, 127
2, 64600, Note_on_c, 1, 47, 127
2, 64680, Note_off_c, 1, 47, 0
2, 64680, Note_on_c, 1, 54, 127
2, 64760, Note_off_c, 1, 42, 0
2, 64760, Note_off_c, 1, 49, 0
2, 64760, Note_off_c, 1, 58, 0
2, 64760, Note_on_c, 1, 66, 127
2, 64760, Note_off_c, 1, 78, 0
2, 64800, Note_off_c, 1, 66, 0
2, 64840, Note_on_c, 1, 63, 127
2, 64840, Note_on_c, 1, 66, 127
2, 64840, Note_on_c, 1, 78, 127
2, 65600, Note_off_c, 1, 54, 0
2, 65600, Note_off_c, 1, 63, 0
2, 65600, Note_off_c, 1, 66, 0
2, 65600, Note_off_c, 1, 78, 0
2, 65640, Note_on_c, 1, 54, 127
2, 65640, Note_on_c, 1, 63, 127
2, 65640, Note_on_c, 1, 66, 127
2, 65640, Note_on_c, 1, 78, 127
2, 67760, Note_off_c, 1, 54, 0
2, 67760, Note_off_c, 1, 63, 0
2, 67760, Note_off_c, 1, 66, 0
2, 67760, Note_off_c, 1, 78, 0
2, 67800, Note_on_c, 1, 54, 127
2, 67800, Note_on_c, 1, 63, 127
2, 67800, Note_on_c, 1, 66, 127
2, 67800, Note_on_c, 1, 78, 127
2, 69840, Note_off_c, 1, 54, 0
2, 69840, Note_off_c, 1, 63, 0
2, 69840, Note_off_c, 1, 66, 0
2, 69840, Note_off_c, 1, 78, 0
2, 69880, Note_on_c, 1, 54, 127
2, 69880, Note_on_c, 1, 63, 127
2, 69880, Note_on_c, 1, 66, 127
2, 69880, Note_on_c, 1, 78, 127
2, 70200, Note_off_c, 1, 54, 0
2, 70200, Note_off_c, 1, 63, 0
2, 70200, Note_off_c, 1, 66, 0
2, 70200, Note_off_c, 1, 78, 0
2, 70240, Note_on_c, 1, 54, 127
2, 70240, Note_on_c, 1, 66, 127
2, 70680, Note_off_c, 1, 54, 0
2, 70680, Note_off_c, 1, 66, 0
2, 70720, Note_on_c, 1, 59, 127
2, 70720, Note_on_c, 1, 71, 127
2, 71920, Note_off_c, 1, 59, 0
2, 71920, Note_off_c, 1, 71, 0
2, 71960, Note_on_c, 1, 59, 127
2, 71960, Note_on_c, 1, 71, 127
2, 72000, Note_off_c, 1, 59, 0
2, 72000, Note_on_c, 1, 83, 127
2, 72720, Note_on_c, 1, 69, 127
2, 72720, Note_off_c, 1, 71, 0
2, 72720, Note_on_c, 1, 81, 127
2, 72720, Note_off_c, 1, 83, 0
2, 73440, Note_off_c, 1, 69, 0
2, 73440, Note_off_c, 1, 81, 0
2, 73480, Note_on_c, 1, 67, 127
2, 73480, Note_on_c, 1, 79, 127
2, 73960, Note_off_c, 1, 67, 0
2, 73960, Note_off_c, 1, 79, 0
2, 74040, Note_on_c, 1, 68, 127
2, 74040, Note_on_c, 1, 80, 127
2, 75520, Note_off_c, 1, 68, 0
2, 75520, Note_off_c, 1, 80, 0
2, 75560, Note_on_c, 1, 64, 127
2, 75560, Note_on_c, 1, 76, 127
2, 75760, Note_off_c, 1, 64, 0
2, 76040, Note_on_c, 1, 64, 127
2, 76040, Note_off_c, 1, 76, 0
2, 76080, Note_off_c, 1, 64, 0
2, 76640, Note_on_c, 1, 44, 127
2, 76640, Note_on_c, 1, 49, 127
2, 76640, Note_on_c, 1, 59, 127
2, 76640, Note_on_c, 1, 71, 127
2, 77120, Note_off_c, 1, 59, 0
2, 77120, Note_off_c, 1, 71, 0
2, 77160, Note_on_c, 1, 59, 127
2, 77160, Note_on_c, 1, 71, 127
2, 77520, Note_off_c, 1, 59, 0
2, 77520, Note_off_c, 1, 71, 0
2, 77560, Note_on_c, 1, 59, 127
2, 77560, Note_on_c, 1, 71, 127
2, 77640, Note_off_c, 1, 44, 0
2, 77640, Note_off_c, 1, 49, 0
2, 77640, Note_off_c, 1, 59, 0
2, 77640, Note_off_c, 1, 71, 0
2, 77680, Note_on_c, 1, 44, 127
2, 77680, Note_on_c, 1, 49, 127
2, 77680, Note_on_c, 1, 59, 127
2, 77680, Note_on_c, 1, 71, 127
2, 78040, Note_off_c, 1, 59, 0
2, 78040, Note_off_c, 1, 71, 0
2, 78160, Note_off_c, 1, 44, 0
2, 78160, Note_off_c, 1, 49, 0
2, 78200, Note_on_c, 1, 52, 127
2, 78200, Note_on_c, 1, 54, 127
2, 78200, Note_on_c, 1, 58, 127
2, 78200, Note_on_c, 1, 61, 127
2, 78280, Note_off_c, 1, 52, 0
2, 78280, Note_off_c, 1, 54, 0
2, 78280, Note_off_c, 1, 58, 0
2, 78280, Note_off_c, 1, 61, 0
2, 78320, Note_on_c, 1, 52, 127
2, 78320, Note_on_c, 1, 54, 127
2, 78320, Note_on_c, 1, 58, 127
2, 78320, Note_on_c, 1, 61, 127
2, 79160, Note_off_c, 1, 52, 0
2, 79160, Note_off_c, 1, 54, 0
2, 79160, Note_off_c, 1, 58, 0
2, 79160, Note_off_c, 1, 61, 0
2, 79200, Note_on_c, 1, 42, 127
2, 79240, Note_on_c, 1, 34, 127
2, 79240, Note_off_c, 1, 42, 0
2, 79240, Note_on_c, 1, 46, 127
2, 79240, Note_on_c, 1, 49, 127
2, 79240, Note_on_c, 1, 53, 127
2, 80200, Note_off_c, 1, 34, 0
2, 80200, Note_off_c, 1, 46, 0
2, 80200, Note_off_c, 1, 49, 0
2, 80200, Note_off_c, 1, 53, 0
2, 80240, Note_on_c, 1, 35, 127
2, 80240, Note_on_c, 1, 47, 127
2, 80240, Note_on_c, 1, 54, 127
2, 80240, Note_on_c, 1, 59, 127
2, 80240, Note_on_c, 1, 63, 127
2, 80240, Note_on_c, 1, 66, 127
2, 80400, Note_off_c, 1, 35, 0
2, 80400, Note_off_c, 1, 47, 0
2, 80400, Note_off_c, 1, 54, 0
2, 80400, Note_off_c, 1, 59, 0
2, 80400, Note_off_c, 1, 63, 0
2, 80400, Note_off_c, 1, 66, 0
2, 80440, Note_on_c, 1, 35, 127
2, 80440, Note_on_c, 1, 47, 127
2, 80440, Note_on_c, 1, 54, 127
2, 80440, Note_on_c, 1, 59, 127
2, 80440, Note_on_c, 1, 63, 127
2, 80440, Note_on_c, 1, 66, 127
2, 80760, Note_off_c, 1, 35, 0
2, 80760, Note_off_c, 1, 47, 0
2, 80760, Note_off_c, 1, 54, 0
2, 80760, Note_off_c, 1, 59, 0
2, 80760, Note_off_c, 1, 63, 0
2, 80760, Note_off_c, 1, 66, 0
2, 84720, Note_on_c, 1, 46, 127
2, 84720, Note_on_c, 1, 54, 127
2, 84720, Note_on_c, 1, 61, 127
2, 84720, Note_on_c, 1, 64, 127
2, 84720, Note_on_c, 1, 66, 127
2, 85280, Note_off_c, 1, 46, 0
2, 85280, Note_off_c, 1, 54, 0
2, 85280, Note_off_c, 1, 61, 0
2, 85280, Note_off_c, 1, 64, 0
2, 85280, Note_off_c, 1, 66, 0
2, 85320, Note_on_c, 1, 46, 127
2, 85320, Note_on_c, 1, 54, 127
2, 85320, Note_on_c, 1, 61, 127
2, 85320, Note_on_c, 1, 64, 127
2, 85320, Note_on_c, 1, 66, 127
2, 87800, Note_off_c, 1, 46, 0
2, 87800, Note_off_c, 1, 54, 0
2, 87800, Note_off_c, 1, 61, 0
2, 87800, Note_off_c, 1, 64, 0
2, 87800, Note_off_c, 1, 66, 0
2, 87840, Note_on_c, 1, 42, 127
2, 87840, Note_on_c, 1, 58, 127
2, 87840, Note_on_c, 1, 61, 127
2, 87840, Note_on_c, 1, 66, 127
2, 88240, Note_off_c, 1, 42, 0
2, 88240, Note_off_c, 1, 58, 0
2, 88240, Note_off_c, 1, 61, 0
2, 88240, Note_off_c, 1, 66, 0
2, 88280, Note_on_c, 1, 42, 127
2, 88280, Note_on_c, 1, 58, 127
2, 88280, Note_on_c, 1, 61, 127
2, 88280, Note_on_c, 1, 66, 127
2, 90440, Note_off_c, 1, 42, 0
2, 90440, Note_off_c, 1, 58, 0
2, 90440, Note_off_c, 1, 61, 0
2, 90440, Note_off_c, 1, 66, 0
2, 90480, Note_on_c, 1, 42, 127
2, 90480, Note_on_c, 1, 58, 127
2, 90480, Note_on_c, 1, 61, 127
2, 90480, Note_on_c, 1, 66, 127
2, 92520, Note_off_c, 1, 42, 0
2, 92520, Note_off_c, 1, 58, 0
2, 92520, Note_off_c, 1, 61, 0
2, 92520, Note_off_c, 1, 66, 0
2, 92560, Note_on_c, 1, 42, 127
2, 92560, Note_on_c, 1, 58, 127
2, 92560, Note_on_c, 1, 61, 127
2, 92560, Note_on_c, 1, 66, 127
2, 94520, Note_off_c, 1, 42, 0
2, 94520, Note_off_c, 1, 58, 0
2, 94520, Note_off_c, 1, 61, 0
2, 94520, Note_off_c, 1, 66, 0
2, 94560, Note_on_c, 1, 42, 127
2, 94560, Note_on_c, 1, 58, 127
2, 94560, Note_on_c, 1, 61, 127
2, 94560, Note_on_c, 1, 66, 127
2, 96640, Note_off_c, 1, 42, 0
2, 96640, Note_off_c, 1, 58, 0
2, 96640, Note_off_c, 1, 61, 0
2, 96640, Note_off_c, 1, 66, 0
2, 96680, Note_on_c, 1, 42, 127
2, 96680, Note_on_c, 1, 58, 127
2, 96680, Note_on_c, 1, 61, 127
2, 96680, Note_on_c, 1, 66, 127
2, 98720, Note_off_c, 1, 42, 0
2, 98720, Note_off_c, 1, 58, 0
2, 98720, Note_off_c, 1, 61, 0
2, 98720, Note_off_c, 1, 66, 0
2, 98760, Note_on_c, 1, 42, 127
2, 98760, Note_on_c, 1, 58, 127
2, 98760, Note_on_c, 1, 61, 127
2, 98760, Note_on_c, 1, 66, 127
2, 100800, Note_off_c, 1, 42, 0
2, 100800, Note_off_c, 1, 58, 0
2, 100800, Note_off_c, 1, 61, 0
2, 100800, Note_off_c, 1, 66, 0
2, 100840, Note_on_c, 1, 42, 127
2, 100840, Note_on_c, 1, 58, 127
2, 100840, Note_on_c, 1, 61, 127
2, 100840, Note_on_c, 1, 66, 127
2, 102840, Note_off_c, 1, 42, 0
2, 102840, Note_off_c, 1, 58, 0
2, 102840, Note_off_c, 1, 61, 0
2, 102840, Note_off_c, 1, 66, 0
2, 102880, Note_on_c, 1, 42, 127
2, 102880, Note_on_c, 1, 58, 127
2, 102880, Note_on_c, 1, 61, 127
2, 102880, Note_on_c, 1, 66, 127
2, 104960, Note_off_c, 1, 42, 0
2, 104960, Note_off_c, 1, 58, 0
2, 104960, Note_off_c, 1, 61, 0
2, 104960, Note_off_c, 1, 66, 0
2, 105000, Note_on_c, 1, 42, 127
2, 105000, Note_on_c, 1, 58, 127
2, 105000, Note_on_c, 1, 61, 127
2, 105000, Note_on_c, 1, 66, 127
2, 107040, Note_off_c, 1, 42, 0
2, 107040, Note_off_c, 1, 58, 0
2, 107040, Note_off_c, 1, 61, 0
2, 107040, Note_off_c, 1, 66, 0
2, 107080, Note_on_c, 1, 42, 127
2, 107080, Note_on_c, 1, 58, 127
2, 107080, Note_on_c, 1, 61, 127
2, 107080, Note_on_c, 1, 66, 127
2, 109080, Note_off_c, 1, 42, 0
2, 109080, Note_off_c, 1, 58, 0
2, 109080, Note_off_c, 1, 61, 0
2, 109080, Note_off_c, 1, 66, 0
2, 109120, Note_on_c, 1, 42, 127
2, 109120, Note_on_c, 1, 58, 127
2, 109120, Note_on_c, 1, 61, 127
2, 109120, Note_on_c, 1, 66, 127
2, 109320, Note_off_c, 1, 66, 0
2, 109640, Note_on_c, 1, 54, 127
2, 109800, Note_off_c, 1, 42, 0
2, 109800, Note_off_c, 1, 54, 0
2, 109800, Note_off_c, 1, 58, 0
2, 109800, Note_off_c, 1, 61, 0
2, 115800, Note_on_c, 1, 61, 127
2, 115840, Note_on_c, 1, 60, 127
2, 115840, Note_off_c, 1, 61, 0
2, 115920, Note_off_c, 1, 60, 0
2, 115920, Note_on_c, 1, 61, 127
2, 115960, Note_on_c, 1, 60, 127
2, 115960, Note_off_c, 1, 61, 0
2, 116120, Note_off_c, 1, 60, 0
2, 116120, Note_on_c, 1, 61, 127
2, 116600, Note_off_c, 1, 61, 0
2, 116640, Note_on_c, 1, 61, 127
2, 117880, Note_on_c, 1, 54, 127
2, 117880, Note_on_c, 1, 60, 127
2, 117880, Note_off_c, 1, 61, 0
2, 118280, Note_on_c, 1, 45, 127
2, 118280, Note_off_c, 1, 60, 0
2, 118480, Note_on_c, 1, 43, 127
2, 118480, Note_off_c, 1, 45, 0
2, 118480, Note_on_c, 1, 52, 127
2, 118480, Note_off_c, 1, 54, 0
2, 118720, Note_on_c, 1, 60, 127
2, 119040, Note_off_c, 1, 43, 0
2, 119040, Note_off_c, 1, 52, 0
2, 119040, Note_off_c, 1, 60, 0
2, 119080, Note_on_c, 1, 43, 127
2, 119080, Note_on_c, 1, 52, 127
2, 119080, Note_on_c, 1, 60, 127
2, 120000, Note_off_c, 1, 43, 0
2, 120000, Note_off_c, 1, 52, 0
2, 120000, Note_off_c, 1, 60, 0
2, 120040, End_track
3, 0, Start_track
3, 0, Title_t, "MIDI"
3, 1536, End_track
0, 0, End_of_file
