0, 0, Header, 1, 3, 192
1, 0, Start_track
1, 0, Time_signature, 4, 2, 24, 8
1, 0, Tempo, 500000
1, 120040, End_track
2, 0, Start_track
2, 0, Text_t, "random instrument: random person i dunno whatev"
2, 0, Title_t, "Track 1"
2, 0, Note_on_c, 1, 40, 127
2, 0, Note_on_c, 1, 48, 127
2, 0, Note_on_c, 1, 56, 127
2, 0, Note_on_c, 1, 60, 127
2, 160, Note_off_c, 1, 40, 0
2, 160, Note_off_c, 1, 48, 0
2, 160, Note_off_c, 1, 56, 0
2, 160, Note_off_c, 1, 60, 0
2, 200, Note_on_c, 1, 35, 127
2, 200, Note_on_c, 1, 39, 127
2, 200, Note_on_c, 1, 47, 127
2, 200, Note_on_c, 1, 50, 127
2, 240, Note_off_c, 1, 35, 0
2, 240, Note_off_c, 1, 39, 0
2, 240, Note_off_c, 1, 47, 0
2, 240, Note_off_c, 1, 50, 0
2, 520, Note_on_c, 1, 42, 127
2, 520, Note_on_c, 1, 46, 127
2, 520, Note_on_c, 1, 49, 127
2, 520, Note_on_c, 1, 54, 127
2, 520, Note_on_c, 1, 66, 127
2, 520, Note_on_c, 1, 70, 127
2, 520, Note_on_c, 1, 73, 127
2, 520, Note_on_c, 1, 78, 127
2, 560, Note_off_c, 1, 42, 0
2, 560, Note_off_c, 1, 46, 0
2, 560, Note_off_c, 1, 49, 0
2, 560, Note_off_c, 1, 54, 0
2, 560, Note_off_c, 1, 66, 0
2, 560, Note_off_c, 1, 70, 0
2, 560, Note_off_c, 1, 73, 0
2, 560, Note_off_c, 1, 78, 0
2, 1440, Note_on_c, 1, 44, 127
2, 1440, Note_on_c, 1, 56, 127
2, 1440, Note_on_c, 1, 72, 127
2, 1440, Note_on_c, 1, 80, 127
2, 2000, Note_off_c, 1, 44, 0
2, 2000, Note_off_c, 1, 56, 0
2, 2000, Note_off_c, 1, 72, 0
2, 2000, Note_off_c, 1, 80, 0
2, 2040, Note_on_c, 1, 44, 127
2, 2040, Note_on_c, 1, 56, 127
2, 2040, Note_on_c, 1, 72, 127
2, 2040, Note_on_c, 1, 80, 127
2, 2560, Note_off_c, 1, 72, 0
2, 2560, Note_off_c, 1, 80, 0
2, 2600, Note_on_c, 1, 72, 127
2, 2600, Note_on_c, 1, 80, 127
2, 2800, Note_off_c, 1, 44, 0
2, 2800, Note_off_c, 1, 56, 0
2, 2800, Note_off_c, 1, 72, 0
2, 2800, Note_off_c, 1, 80, 0
2, 2840, Note_on_c, 1, 44, 127
2, 2840, Note_on_c, 1, 56, 127
2, 2840, Note_on_c, 1, 72, 127
2, 2840, Note_on_c, 1, 80, 127
2, 3000, Note_off_c, 1, 72, 0
2, 3000, Note_off_c, 1, 80, 0
2, 3760, Note_off_c, 1, 44, 0
2, 3760, Note_off_c, 1, 56, 0
2, 3800, Note_on_c, 1, 44, 127
2, 3800, Note_on_c, 1, 56, 127
2, 4880, Note_off_c, 1, 44, 0
2, 4880, Note_off_c, 1, 56, 0
2, 5600, Note_on_c, 1, 37, 127
2, 5600, Note_on_c, 1, 49, 127
2, 5600, Note_on_c, 1, 56, 127
2, 5760, Note_off_c, 1, 56, 0
2, 5760, Note_on_c, 1, 61, 127
2, 5800, Note_off_c, 1, 37, 0
2, 5800, Note_off_c, 1, 49, 0
2, 5800, Note_off_c, 1, 61, 0
2, 5840, Note_on_c, 1, 37, 127
2, 5840, Note_on_c, 1, 49, 127
2, 5840, Note_on_c, 1, 61, 127
2, 6040, Note_off_c, 1, 61, 0
2, 6080, Note_on_c, 1, 64, 127
2, 6280, Note_off_c, 1, 64, 0
2, 6320, Note_on_c, 1, 56, 127
2, 6520, Note_off_c, 1, 56, 0
2, 6560, Note_on_c, 1, 61, 127
2, 6800, Note_off_c, 1, 61, 0
2, 6840, Note_on_c, 1, 56, 127
2, 7040, Note_off_c, 1, 37, 0
2, 7040, Note_off_c, 1, 49, 0
2, 7040, Note_off_c, 1, 56, 0
2, 7080, Note_on_c, 1, 37, 127
2, 7080, Note_on_c, 1, 49, 127
2, 7080, Note_on_c, 1, 61, 127
2, 7120, Note_off_c, 1, 61, 0
2, 7120, Note_on_c, 1, 65, 127
2, 7240, Note_off_c, 1, 37, 0
2, 7240, Note_off_c, 1, 49, 0
2, 7240, Note_off_c, 1, 65, 0
2, 7280, Note_on_c, 1, 37, 127
2, 7280, Note_on_c, 1, 49, 127
2, 7280, Note_on_c, 1, 65, 127
2, 7320, Note_off_c, 1, 65, 0
2, 7360, Note_on_c, 1, 52, 127
2, 7560, Note_off_c, 1, 52, 0
2, 7600, Note_on_c, 1, 56, 127
2, 7840, Note_off_c, 1, 56, 0
2, 7880, Note_on_c, 1, 65, 127
2, 8080, Note_off_c, 1, 65, 0
2, 8120, Note_on_c, 1, 67, 127
2, 8320, Note_off_c, 1, 67, 0
2, 8360, Note_on_c, 1, 58, 127
2, 8560, Note_off_c, 1, 58, 0
2, 8600, Note_on_c, 1, 63, 127
2, 8800, Note_off_c, 1, 63, 0
2, 8840, Note_on_c, 1, 61, 127
2, 9040, Note_off_c, 1, 61, 0
2, 9080, Note_on_c, 1, 56, 127
2, 9080, Note_on_c, 1, 61, 127
2, 9080, Note_on_c, 1, 65, 127
2, 9280, Note_off_c, 1, 37, 0
2, 9280, Note_off_c, 1, 49, 0
2, 9320, Note_off_c, 1, 56, 0
2, 9320, Note_off_c, 1, 61, 0
2, 9320, Note_off_c, 1, 65, 0
2, 9360, Note_on_c, 1, 56, 127
2, 9360, Note_on_c, 1, 61, 127
2, 9600, Note_off_c, 1, 56, 0
2, 9600, Note_off_c, 1, 61, 0
2, 9640, Note_on_c, 1, 53, 127
2, 9640, Note_on_c, 1, 57, 127
2, 9640, Note_on_c, 1, 59, 127
2, 9640, Note_on_c, 1, 62, 127
2, 9840, Note_on_c, 1, 52, 127
2, 9840, Note_off_c, 1, 53, 0
2, 9840, Note_on_c, 1, 56, 127
2, 9840, Note_off_c, 1, 57, 0
2, 9840, Note_off_c, 1, 62, 0
2, 9840, Note_on_c, 1, 64, 127
2, 10560, Note_off_c, 1, 52, 0
2, 10560, Note_off_c, 1, 56, 0
2, 10560, Note_off_c, 1, 59, 0
2, 10560, Note_off_c, 1, 64, 0
2, 10600, Note_on_c, 1, 52, 127
2, 10800, Note_off_c, 1, 52, 0
2, 10840, Note_on_c, 1, 56, 127
2, 10880, Note_off_c, 1, 56, 0
2, 10880, Note_on_c, 1, 58, 127
2, 10960, Note_off_c, 1, 58, 0
2, 10960, Note_on_c, 1, 59, 127
2, 11000, Note_on_c, 1, 58, 127
2, 11000, Note_off_c, 1, 59, 0
2, 11040, Note_off_c, 1, 58, 0
2, 11080, Note_on_c, 1, 59, 127
2, 11280, Note_off_c, 1, 59, 0
2, 11320, Note_on_c, 1, 52, 127
2, 11480, Note_off_c, 1, 52, 0
2, 11520, Note_on_c, 1, 52, 127
2, 11560, Note_off_c, 1, 52, 0
2, 11600, Note_on_c, 1, 56, 127
2, 11800, Note_off_c, 1, 56, 0
2, 11840, Note_on_c, 1, 52, 127
2, 12040, Note_off_c, 1, 52, 0
2, 12080, Note_on_c, 1, 47, 127
2, 12280, Note_off_c, 1, 47, 0
2, 12320, Note_on_c, 1, 47, 127
2, 12320, Note_on_c, 1, 68, 127
2, 12320, Note_on_c, 1, 76, 127
2, 12520, Note_off_c, 1, 47, 0
2, 12560, Note_on_c, 1, 59, 127
2, 13000, Note_off_c, 1, 68, 0
2, 13000, Note_off_c, 1, 76, 0
2, 13040, Note_on_c, 1, 66, 127
2, 13040, Note_on_c, 1, 75, 127
2, 13240, Note_off_c, 1, 66, 0
2, 13520, Note_off_c, 1, 59, 0
2, 13520, Note_off_c, 1, 75, 0
2, 13600, Note_on_c, 1, 54, 127
2, 13600, Note_on_c, 1, 66, 127
2, 13600, Note_on_c, 1, 78, 127
2, 13800, Note_off_c, 1, 66, 0
2, 13840, Note_on_c, 1, 66, 127
2, 14040, Note_off_c, 1, 54, 0
2, 14040, Note_off_c, 1, 66, 0
2, 14040, Note_off_c, 1, 78, 0
2, 14080, Note_on_c, 1, 68, 127
2, 14080, Note_on_c, 1, 71, 127
2, 14080, Note_on_c, 1, 77, 127
2, 14520, Note_off_c, 1, 68, 0
2, 14520, Note_off_c, 1, 71, 0
2, 14520, Note_off_c, 1, 77, 0
2, 14560, Note_on_c, 1, 54, 127
2, 14560, Note_on_c, 1, 60, 127
2, 14560, Note_on_c, 1, 69, 127
2, 14560, Note_on_c, 1, 72, 127
2, 15000, Note_off_c, 1, 54, 0
2, 15000, Note_off_c, 1, 60, 0
2, 15000, Note_off_c, 1, 69, 0
2, 15000, Note_off_c, 1, 72, 0
2, 15040, Note_on_c, 1, 56, 127
2, 15040, Note_on_c, 1, 59, 127
2, 15040, Note_on_c, 1, 68, 127
2, 15040, Note_on_c, 1, 71, 127
2, 15240, Note_off_c, 1, 56, 0
2, 15240, Note_off_c, 1, 59, 0
2, 15240, Note_off_c, 1, 68, 0
2, 15240, Note_off_c, 1, 71, 0
2, 15520, Note_on_c, 1, 78, 127
2, 15640, Note_off_c, 1, 78, 0
2, 15680, Note_on_c, 1, 78, 127
2, 15760, Note_off_c, 1, 78, 0
2, 15800, Note_on_c, 1, 76, 127
2, 16000, Note_off_c, 1, 76, 0
2, 16040, Note_on_c, 1, 75, 127
2, 16240, Note_off_c, 1, 75, 0
2, 16280, Note_on_c, 1, 76, 127
2, 16480, Note_off_c, 1, 76, 0
2, 16520, Note_on_c, 1, 75, 127
2, 16720, Note_off_c, 1, 75, 0
2, 16760, Note_on_c, 1, 76, 127
2, 16960, Note_off_c, 1, 76, 0
2, 17000, Note_on_c, 1, 75, 127
2, 17200, Note_off_c, 1, 75, 0
2, 17240, Note_on_c, 1, 76, 127
2, 17440, Note_off_c, 1, 76, 0
2, 17480, Note_on_c, 1, 75, 127
2, 17680, Note_off_c, 1, 75, 0
2, 17760, Note_on_c, 1, 76, 127
2, 17960, Note_off_c, 1, 76, 0
2, 18000, Note_on_c, 1, 75, 127
2, 18200, Note_off_c, 1, 75, 0
2, 18240, Note_on_c, 1, 76, 127
2, 18440, Note_off_c, 1, 76, 0
2, 18480, Note_on_c, 1, 75, 127
2, 18680, Note_off_c, 1, 75, 0
2, 18720, Note_on_c, 1, 73, 127
2, 18920, Note_off_c, 1, 73, 0
2, 18960, Note_on_c, 1, 73, 127
2, 19160, Note_off_c, 1, 73, 0
2, 19200, Note_on_c, 1, 56, 127
2, 19200, Note_on_c, 1, 71, 127
2, 19400, Note_off_c, 1, 56, 0
2, 19400, Note_off_c, 1, 71, 0
2, 19440, Note_on_c, 1, 64, 127
2, 19440, Note_on_c, 1, 70, 127
2, 19640, Note_off_c, 1, 64, 0
2, 19640, Note_off_c, 1, 70, 0
2, 19680, Note_on_c, 1, 63, 127
2, 19680, Note_on_c, 1, 71, 127
2, 19880, Note_off_c, 1, 63, 0
2, 19880, Note_off_c, 1, 71, 0
2, 19960, Note_on_c, 1, 65, 127
2, 19960, Note_on_c, 1, 71, 127
2, 20160, Note_off_c, 1, 65, 0
2, 20160, Note_off_c, 1, 71, 0
2, 20200, Note_on_c, 1, 66, 127
2, 20200, Note_on_c, 1, 71, 127
2, 20400, Note_off_c, 1, 66, 0
2, 20400, Note_off_c, 1, 71, 0
2, 20440, Note_on_c, 1, 66, 127
2, 20440, Note_on_c, 1, 71, 127
2, 20640, Note_off_c, 1, 66, 0
2, 20640, Note_off_c, 1, 71, 0
2, 20680, Note_on_c, 1, 64, 127
2, 20680, Note_on_c, 1, 75, 127
2, 20880, Note_off_c, 1, 64, 0
2, 20880, Note_off_c, 1, 75, 0
2, 20920, Note_on_c, 1, 68, 127
2, 20920, Note_on_c, 1, 73, 127
2, 21120, Note_off_c, 1, 68, 0
2, 21120, Note_off_c, 1, 73, 0
2, 21160, Note_on_c, 1, 70, 127
2, 21160, Note_on_c, 1, 74, 127
2, 21360, Note_off_c, 1, 70, 0
2, 21360, Note_off_c, 1, 74, 0
2, 21400, Note_on_c, 1, 70, 127
2, 21400, Note_on_c, 1, 73, 127
2, 21600, Note_off_c, 1, 70, 0
2, 21600, Note_off_c, 1, 73, 0
2, 21640, Note_on_c, 1, 57, 127
2, 21640, Note_on_c, 1, 76, 127
2, 21880, Note_off_c, 1, 57, 0
2, 21880, Note_off_c, 1, 76, 0
2, 21960, Note_on_c, 1, 66, 127
2, 21960, Note_on_c, 1, 80, 127
2, 22160, Note_off_c, 1, 66, 0
2, 22160, Note_off_c, 1, 80, 0
2, 22200, Note_on_c, 1, 64, 127
2, 22200, Note_on_c, 1, 80, 127
2, 22400, Note_off_c, 1, 64, 0
2, 22400, Note_off_c, 1, 80, 0
2, 22440, Note_on_c, 1, 63, 127
2, 22440, Note_on_c, 1, 78, 127
2, 22640, Note_off_c, 1, 63, 0
2, 22640, Note_off_c, 1, 78, 0
2, 22680, Note_on_c, 1, 64, 127
2, 22680, Note_on_c, 1, 80, 127
2, 23120, Note_off_c, 1, 64, 0
2, 23120, Note_off_c, 1, 80, 0
2, 23160, Note_on_c, 1, 63, 127
2, 23160, Note_on_c, 1, 71, 127
2, 23600, Note_off_c, 1, 63, 0
2, 23600, Note_off_c, 1, 71, 0
2, 23640, Note_on_c, 1, 63, 127
2, 23640, Note_on_c, 1, 71, 127
2, 23840, Note_off_c, 1, 71, 0
2, 23880, Note_on_c, 1, 78, 127
2, 24080, Note_off_c, 1, 63, 0
2, 24080, Note_off_c, 1, 78, 0
2, 24160, Note_on_c, 1, 59, 127
2, 24160, Note_on_c, 1, 75, 127
2, 24360, Note_off_c, 1, 75, 0
2, 24400, Note_on_c, 1, 66, 127
2, 24600, Note_off_c, 1, 59, 0
2, 24600, Note_off_c, 1, 66, 0
2, 24640, Note_on_c, 1, 66, 127
2, 24640, Note_on_c, 1, 75, 127
2, 25080, Note_off_c, 1, 66, 0
2, 25080, Note_off_c, 1, 75, 0
2, 25120, Note_on_c, 1, 64, 127
2, 25120, Note_on_c, 1, 75, 127
2, 25560, Note_off_c, 1, 64, 0
2, 25560, Note_off_c, 1, 75, 0
2, 25600, Note_on_c, 1, 68, 127
2, 25600, Note_on_c, 1, 73, 127
2, 26040, Note_off_c, 1, 68, 0
2, 26040, Note_off_c, 1, 73, 0
2, 26080, Note_on_c, 1, 66, 127
2, 26080, Note_on_c, 1, 75, 127
2, 26160, Note_off_c, 1, 66, 0
2, 26160, Note_off_c, 1, 75, 0
2, 26200, Note_on_c, 1, 66, 127
2, 26200, Note_on_c, 1, 75, 127
2, 26360, Note_off_c, 1, 66, 0
2, 26360, Note_off_c, 1, 75, 0
2, 26400, Note_on_c, 1, 71, 127
2, 26600, Note_off_c, 1, 71, 0
2, 26640, Note_on_c, 1, 57, 127
2, 26640, Note_on_c, 1, 73, 127
2, 26840, Note_off_c, 1, 57, 0
2, 26840, Note_off_c, 1, 73, 0
2, 26880, Note_on_c, 1, 61, 127
2, 26880, Note_on_c, 1, 76, 127
2, 27080, Note_off_c, 1, 61, 0
2, 27080, Note_off_c, 1, 76, 0
2, 27120, Note_on_c, 1, 64, 127
2, 27120, Note_on_c, 1, 80, 127
2, 27320, Note_off_c, 1, 64, 0
2, 27320, Note_off_c, 1, 80, 0
2, 27360, Note_on_c, 1, 66, 127
2, 27360, Note_on_c, 1, 82, 127
2, 27560, Note_off_c, 1, 66, 0
2, 27560, Note_off_c, 1, 82, 0
2, 27600, Note_on_c, 1, 68, 127
2, 27600, Note_on_c, 1, 83, 127
2, 28080, Note_off_c, 1, 68, 0
2, 28080, Note_off_c, 1, 83, 0
2, 28160, Note_on_c, 1, 66, 127
2, 28160, Note_on_c, 1, 82, 127
2, 28600, Note_off_c, 1, 66, 0
2, 28600, Note_off_c, 1, 82, 0
2, 28640, Note_on_c, 1, 68, 127
2, 28640, Note_on_c, 1, 83, 127
2, 29080, Note_off_c, 1, 68, 0
2, 29080, Note_off_c, 1, 83, 0
2, 29120, Note_on_c, 1, 66, 127
2, 29120, Note_on_c, 1, 82, 127
2, 29560, Note_off_c, 1, 66, 0
2, 29560, Note_off_c, 1, 82, 0
2, 29600, Note_on_c, 1, 65, 127
2, 29600, Note_on_c, 1, 80, 127
2, 30040, Note_off_c, 1, 65, 0
2, 30040, Note_off_c, 1, 80, 0
2, 30080, Note_on_c, 1, 66, 127
2, 30080, Note_on_c, 1, 82, 127
2, 30320, Note_off_c, 1, 66, 0
2, 30320, Note_off_c, 1, 82, 0
2, 30360, Note_on_c, 1, 66, 127
2, 30360, Note_on_c, 1, 82, 127
2, 30560, Note_off_c, 1, 66, 0
2, 30560, Note_off_c, 1, 82, 0
2, 30600, Note_on_c, 1, 65, 127
2, 30600, Note_on_c, 1, 80, 127
2, 31040, Note_off_c, 1, 65, 0
2, 31040, Note_off_c, 1, 80, 0
2, 31080, Note_on_c, 1, 66, 127
2, 31080, Note_on_c, 1, 70, 127
2, 31520, Note_off_c, 1, 66, 0
2, 31520, Note_off_c, 1, 70, 0
2, 31560, Note_on_c, 1, 54, 127
2, 31560, Note_on_c, 1, 70, 127
2, 32000, Note_off_c, 1, 54, 0
2, 32000, Note_off_c, 1, 70, 0
2, 32040, Note_on_c, 1, 53, 127
2, 32040, Note_on_c, 1, 68, 127
2, 32440, Note_off_c, 1, 53, 0
2, 32440, Note_off_c, 1, 68, 0
2, 32480, Note_on_c, 1, 53, 127
2, 32480, Note_on_c, 1, 68, 127
2, 32520, Note_off_c, 1, 53, 0
2, 32520, Note_off_c, 1, 68, 0
2, 32560, Note_on_c, 1, 54, 127
2, 32560, Note_on_c, 1, 70, 127
2, 33000, Note_off_c, 1, 54, 0
2, 33000, Note_off_c, 1, 70, 0
2, 33040, Note_on_c, 1, 53, 127
2, 33040, Note_on_c, 1, 68, 127
2, 33480, Note_off_c, 1, 53, 0
2, 33480, Note_off_c, 1, 68, 0
2, 33520, Note_on_c, 1, 54, 127
2, 33520, Note_on_c, 1, 70, 127
2, 33960, Note_off_c, 1, 54, 0
2, 33960, Note_off_c, 1, 70, 0
2, 34000, Note_on_c, 1, 53, 127
2, 34000, Note_on_c, 1, 68, 127
2, 34440, Note_off_c, 1, 53, 0
2, 34440, Note_off_c, 1, 68, 0
2, 34480, Note_on_c, 1, 53, 127
2, 34480, Note_on_c, 1, 68, 127
2, 34520, Note_off_c, 1, 53, 0
2, 34520, Note_off_c, 1, 68, 0
2, 34560, Note_on_c, 1, 51, 127
2, 34560, Note_on_c, 1, 66, 127
2, 34760, Note_off_c, 1, 51, 0
2, 34760, Note_off_c, 1, 66, 0
2, 34800, Note_on_c, 1, 54, 127
2, 34800, Note_on_c, 1, 70, 127
2, 35000, Note_off_c, 1, 54, 0
2, 35000, Note_off_c, 1, 70, 0
2, 35040, Note_on_c, 1, 58, 127
2, 35040, Note_on_c, 1, 70, 127
2, 35480, Note_off_c, 1, 58, 0
2, 35480, Note_off_c, 1, 70, 0
2, 35520, Note_on_c, 1, 63, 127
2, 35520, Note_on_c, 1, 66, 127
2, 35960, Note_off_c, 1, 63, 0
2, 35960, Note_off_c, 1, 66, 0
2, 36000, Note_on_c, 1, 53, 127
2, 36000, Note_on_c, 1, 68, 127
2, 36440, Note_off_c, 1, 53, 0
2, 36440, Note_off_c, 1, 68, 0
2, 36480, Note_on_c, 1, 54, 127
2, 36480, Note_on_c, 1, 70, 127
2, 36640, Note_off_c, 1, 54, 0
2, 36640, Note_off_c, 1, 70, 0
2, 36680, Note_on_c, 1, 54, 127
2, 36680, Note_on_c, 1, 70, 127
2, 36960, Note_off_c, 1, 54, 0
2, 36960, Note_off_c, 1, 70, 0
2, 37000, Note_on_c, 1, 53, 127
2, 37000, Note_on_c, 1, 68, 127
2, 37440, Note_off_c, 1, 53, 0
2, 37440, Note_off_c, 1, 68, 0
2, 37480, Note_on_c, 1, 54, 127
2, 37480, Note_on_c, 1, 70, 127
2, 37920, Note_off_c, 1, 54, 0
2, 37920, Note_off_c, 1, 70, 0
2, 37960, Note_on_c, 1, 51, 127
2, 37960, Note_on_c, 1, 66, 127
2, 38400, Note_off_c, 1, 51, 0
2, 38400, Note_off_c, 1, 66, 0
2, 38440, Note_on_c, 1, 37, 127
2, 38440, Note_on_c, 1, 65, 127
2, 38640, Note_off_c, 1, 65, 0
2, 38680, Note_on_c, 1, 65, 127
2, 38840, Note_off_c, 1, 37, 0
2, 38840, Note_off_c, 1, 65, 0
2, 38880, Note_on_c, 1, 37, 127
2, 38880, Note_on_c, 1, 65, 127
2, 38920, Note_off_c, 1, 37, 0
2, 38920, Note_off_c, 1, 65, 0
2, 38960, Note_on_c, 1, 37, 127
2, 38960, Note_on_c, 1, 68, 127
2, 39400, Note_off_c, 1, 37, 0
2, 39440, Note_on_c, 1, 44, 127
2, 39920, Note_off_c, 1, 44, 0
2, 39960, Note_on_c, 1, 53, 127
2, 40160, Note_off_c, 1, 53, 0
2, 40200, Note_on_c, 1, 51, 127
2, 40400, Note_off_c, 1, 68, 0
2, 40440, Note_on_c, 1, 68, 127
2, 40920, Note_off_c, 1, 51, 0
2, 40920, Note_off_c, 1, 68, 0
2, 41000, Note_on_c, 1, 49, 127
2, 41000, Note_on_c, 1, 67, 127
2, 41440, Note_off_c, 1, 49, 0
2, 41480, Note_on_c, 1, 55, 127
2, 41680, Note_off_c, 1, 55, 0
2, 41720, Note_on_c, 1, 58, 127
2, 41920, Note_off_c, 1, 58, 0
2, 41920, Note_off_c, 1, 67, 0
2, 41960, Note_on_c, 1, 53, 127
2, 41960, Note_on_c, 1, 73, 127
2, 42160, Note_off_c, 1, 53, 0
2, 42200, Note_on_c, 1, 56, 127
2, 42400, Note_off_c, 1, 56, 0
2, 42400, Note_off_c, 1, 73, 0
2, 42440, Note_on_c, 1, 61, 127
2, 42440, Note_on_c, 1, 70, 127
2, 42640, Note_off_c, 1, 61, 0
2, 42680, Note_on_c, 1, 58, 127
2, 42880, Note_off_c, 1, 58, 0
2, 42920, Note_on_c, 1, 61, 127
2, 43120, Note_off_c, 1, 61, 0
2, 43120, Note_off_c, 1, 70, 0
2, 43160, Note_on_c, 1, 70, 127
2, 43200, Note_on_c, 1, 58, 127
2, 43400, Note_off_c, 1, 58, 0
2, 43400, Note_off_c, 1, 70, 0
2, 43440, Note_on_c, 1, 51, 127
2, 43440, Note_on_c, 1, 73, 127
2, 43640, Note_off_c, 1, 51, 0
2, 43680, Note_on_c, 1, 55, 127
2, 43880, Note_off_c, 1, 55, 0
2, 43920, Note_on_c, 1, 58, 127
2, 44120, Note_off_c, 1, 58, 0
2, 44160, Note_on_c, 1, 51, 127
2, 44360, Note_off_c, 1, 51, 0
2, 44400, Note_on_c, 1, 55, 127
2, 44600, Note_off_c, 1, 55, 0
2, 44640, Note_on_c, 1, 58, 127
2, 44840, Note_off_c, 1, 58, 0
2, 44840, Note_off_c, 1, 73, 0
2, 44880, Note_on_c, 1, 55, 127
2, 44880, Note_on_c, 1, 73, 127
2, 45080, Note_off_c, 1, 55, 0
2, 45120, Note_on_c, 1, 58, 127
2, 45320, Note_off_c, 1, 58, 0
2, 45360, Note_off_c, 1, 73, 0
2, 45400, Note_on_c, 1, 51, 127
2, 45400, Note_on_c, 1, 73, 127
2, 45600, Note_off_c, 1, 51, 0
2, 45640, Note_on_c, 1, 55, 127
2, 45840, Note_off_c, 1, 55, 0
2, 45840, Note_off_c, 1, 73, 0
2, 45880, Note_on_c, 1, 58, 127
2, 45880, Note_on_c, 1, 70, 127
2, 46080, Note_off_c, 1, 58, 0
2, 46120, Note_on_c, 1, 51, 127
2, 46320, Note_off_c, 1, 51, 0
2, 46320, Note_off_c, 1, 70, 0
2, 46360, Note_on_c, 1, 63, 127
2, 46360, Note_on_c, 1, 73, 127
2, 46560, Note_off_c, 1, 63, 0
2, 46600, Note_on_c, 1, 51, 127
2, 46800, Note_off_c, 1, 51, 0
2, 46840, Note_on_c, 1, 55, 127
2, 47040, Note_off_c, 1, 55, 0
2, 47080, Note_on_c, 1, 58, 127
2, 47280, Note_off_c, 1, 58, 0
2, 47280, Note_off_c, 1, 73, 0
2, 47320, Note_on_c, 1, 43, 127
2, 47320, Note_on_c, 1, 75, 127
2, 47480, Note_off_c, 1, 43, 0
2, 47480, Note_off_c, 1, 75, 0
2, 47520, Note_on_c, 1, 43, 127
2, 47520, Note_on_c, 1, 75, 127
2, 47560, Note_off_c, 1, 43, 0
2, 47600, Note_on_c, 1, 55, 127
2, 47800, Note_off_c, 1, 55, 0
2, 47840, Note_on_c, 1, 58, 127
2, 48040, Note_off_c, 1, 58, 0
2, 48040, Note_off_c, 1, 75, 0
2, 48080, Note_on_c, 1, 51, 127
2, 48080, Note_on_c, 1, 73, 127
2, 48280, Note_off_c, 1, 51, 0
2, 48320, Note_on_c, 1, 51, 127
2, 48520, Note_off_c, 1, 51, 0
2, 48560, Note_on_c, 1, 55, 127
2, 48760, Note_off_c, 1, 55, 0
2, 48760, Note_off_c, 1, 73, 0
2, 48800, Note_on_c, 1, 57, 127
2, 48800, Note_on_c, 1, 75, 127
2, 49000, Note_off_c, 1, 57, 0
2, 49040, Note_on_c, 1, 60, 127
2, 49240, Note_off_c, 1, 60, 0
2, 49240, Note_off_c, 1, 75, 0
2, 49280, Note_on_c, 1, 56, 127
2, 49280, Note_on_c, 1, 75, 127
2, 49480, Note_off_c, 1, 56, 0
2, 49480, Note_off_c, 1, 75, 0
2, 49560, Note_on_c, 1, 49, 127
2, 49560, Note_on_c, 1, 77, 127
2, 49760, Note_off_c, 1, 49, 0
2, 49800, Note_on_c, 1, 56, 127
2, 50000, Note_off_c, 1, 56, 0
2, 50040, Note_on_c, 1, 60, 127
2, 50240, Note_off_c, 1, 60, 0
2, 50280, Note_on_c, 1, 56, 127
2, 50480, Note_off_c, 1, 56, 0
2, 50480, Note_off_c, 1, 77, 0
2, 50520, Note_on_c, 1, 41, 127
2, 50520, Note_on_c, 1, 77, 127
2, 50720, Note_off_c, 1, 41, 0
2, 50760, Note_on_c, 1, 48, 127
2, 50960, Note_off_c, 1, 48, 0
2, 51000, Note_on_c, 1, 56, 127
2, 51200, Note_off_c, 1, 56, 0
2, 51240, Note_on_c, 1, 60, 127
2, 51440, Note_off_c, 1, 60, 0
2, 51440, Note_off_c, 1, 77, 0
2, 51520, Note_on_c, 1, 44, 127
2, 51520, Note_on_c, 1, 75, 127
2, 51720, Note_off_c, 1, 44, 0
2, 51720, Note_off_c, 1, 75, 0
2, 51760, Note_on_c, 1, 49, 127
2, 51760, Note_on_c, 1, 76, 127
2, 51960, Note_off_c, 1, 49, 0
2, 51960, Note_off_c, 1, 76, 0
2, 52000, Note_on_c, 1, 55, 127
2, 52000, Note_on_c, 1, 72, 127
2, 52200, Note_off_c, 1, 55, 0
2, 52200, Note_off_c, 1, 72, 0
2, 52240, Note_on_c, 1, 49, 127
2, 52240, Note_on_c, 1, 70, 127
2, 52440, Note_off_c, 1, 49, 0
2, 52480, Note_on_c, 1, 55, 127
2, 52680, Note_off_c, 1, 55, 0
2, 52680, Note_off_c, 1, 70, 0
2, 52720, Note_on_c, 1, 48, 127
2, 52720, Note_on_c, 1, 69, 127
2, 53160, Note_off_c, 1, 69, 0
2, 53200, Note_on_c, 1, 57, 127
2, 53440, Note_off_c, 1, 48, 0
2, 53440, Note_off_c, 1, 57, 0
2, 53480, Note_on_c, 1, 48, 127
2, 53480, Note_on_c, 1, 57, 127
2, 53680, Note_off_c, 1, 48, 0
2, 53680, Note_off_c, 1, 57, 0
2, 53720, Note_on_c, 1, 46, 127
2, 53720, Note_on_c, 1, 70, 127
2, 53920, Note_off_c, 1, 70, 0
2, 53960, Note_on_c, 1, 72, 127
2, 54160, Note_off_c, 1, 46, 0
2, 54160, Note_off_c, 1, 72, 0
2, 54200, Note_on_c, 1, 48, 127
2, 54200, Note_on_c, 1, 75, 127
2, 54640, Note_off_c, 1, 48, 0
2, 54680, Note_on_c, 1, 57, 127
2, 55120, Note_off_c, 1, 57, 0
2, 55120, Note_off_c, 1, 75, 0
2, 55160, Note_on_c, 1, 46, 127
2, 55160, Note_on_c, 1, 74, 127
2, 55560, Note_off_c, 1, 46, 0
2, 55560, Note_off_c, 1, 74, 0
2, 55600, Note_on_c, 1, 46, 127
2, 55600, Note_on_c, 1, 74, 127
2, 57600, Note_off_c, 1, 46, 0
2, 57600, Note_off_c, 1, 74, 0
2, 57640, Note_on_c, 1, 46, 127
2, 57640, Note_on_c, 1, 74, 127
2, 59040, Note_off_c, 1, 74, 0
2, 59040, Note_on_c, 1, 77, 127
2, 59280, Note_on_c, 1, 75, 127
2, 59280, Note_off_c, 1, 77, 0
2, 59520, Note_on_c, 1, 74, 127
2, 59520, Note_off_c, 1, 75, 0
2, 59640, Note_off_c, 1, 46, 0
2, 59640, Note_off_c, 1, 74, 0
2, 59680, Note_on_c, 1, 46, 127
2, 59680, Note_on_c, 1, 74, 127
2, 60960, Note_on_c, 1, 58, 127
2, 61160, Note_off_c, 1, 58, 0
2, 61680, Note_off_c, 1, 46, 0
2, 61680, Note_off_c, 1, 74, 0
2, 61720, Note_on_c, 1, 46, 127
2, 61720, Note_on_c, 1, 74, 127
2, 61920, Note_off_c, 1, 46, 0
2, 61920, Note_off_c, 1, 74, 0
2, 61960, Note_on_c, 1, 34, 127
2, 61960, Note_on_c, 1, 74, 127
2, 63960, Note_off_c, 1, 34, 0
2, 63960, Note_off_c, 1, 74, 0
2, 64000, Note_on_c, 1, 34, 127
2, 64000, Note_on_c, 1, 74, 127
2, 66200, Note_off_c, 1, 34, 0
2, 66200, Note_off_c, 1, 74, 0
2, 66240, Note_on_c, 1, 34, 127
2, 66240, Note_on_c, 1, 74, 127
2, 68440, Note_off_c, 1, 34, 0
2, 68440, Note_off_c, 1, 74, 0
2, 68480, Note_on_c, 1, 34, 127
2, 68480, Note_on_c, 1, 74, 127
2, 70200, Note_off_c, 1, 34, 0
2, 70200, Note_off_c, 1, 74, 0
2, 70240, Note_on_c, 1, 70, 127
2, 70640, Note_off_c, 1, 70, 0
2, 70680, Note_on_c, 1, 70, 127
2, 71240, Note_off_c, 1, 70, 0
2, 71280, Note_on_c, 1, 63, 127
2, 71520, Note_on_c, 1, 72, 127
2, 71720, Note_off_c, 1, 72, 0
2, 71760, Note_on_c, 1, 79, 127
2, 72200, Note_off_c, 1, 79, 0
2, 72240, Note_on_c, 1, 70, 127
2, 72600, Note_off_c, 1, 63, 0
2, 72600, Note_off_c, 1, 70, 0
2, 72640, Note_on_c, 1, 63, 127
2, 72640, Note_on_c, 1, 70, 127
2, 72720, Note_off_c, 1, 70, 0
2, 72720, Note_on_c, 1, 75, 127
2, 72960, Note_off_c, 1, 63, 0
2, 72960, Note_off_c, 1, 75, 0
2, 73000, Note_on_c, 1, 58, 127
2, 73000, Note_on_c, 1, 67, 127
2, 73200, Note_off_c, 1, 58, 0
2, 73200, Note_off_c, 1, 67, 0
2, 73240, Note_on_c, 1, 58, 127
2, 73240, Note_on_c, 1, 67, 127
2, 73440, Note_off_c, 1, 58, 0
2, 73440, Note_off_c, 1, 67, 0
2, 73480, Note_on_c, 1, 63, 127
2, 73480, Note_on_c, 1, 67, 127
2, 73680, Note_off_c, 1, 63, 0
2, 73680, Note_off_c, 1, 67, 0
2, 73720, Note_on_c, 1, 70, 127
2, 73720, Note_on_c, 1, 74, 127
2, 73920, Note_off_c, 1, 70, 0
2, 73920, Note_off_c, 1, 74, 0
2, 73960, Note_on_c, 1, 67, 127
2, 73960, Note_on_c, 1, 70, 127
2, 74160, Note_off_c, 1, 67, 0
2, 74160, Note_off_c, 1, 70, 0
2, 74200, Note_on_c, 1, 70, 127
2, 74400, Note_off_c, 1, 70, 0
2, 74440, Note_on_c, 1, 72, 127
2, 74440, Note_on_c, 1, 75, 127
2, 74640, Note_off_c, 1, 72, 0
2, 74640, Note_off_c, 1, 75, 0
2, 74680, Note_on_c, 1, 74, 127
2, 74760, Note_off_c, 1, 74, 0
2, 74800, Note_on_c, 1, 74, 127
2, 74920, Note_off_c, 1, 74, 0
2, 74960, Note_on_c, 1, 72, 127
2, 74960, Note_on_c, 1, 75, 127
2, 75160, Note_off_c, 1, 72, 0
2, 75160, Note_off_c, 1, 75, 0
2, 75200, Note_on_c, 1, 72, 127
2, 75400, Note_off_c, 1, 72, 0
2, 75440, Note_on_c, 1, 67, 127
2, 75440, Note_on_c, 1, 70, 127
2, 75640, Note_off_c, 1, 67, 0
2, 75640, Note_off_c, 1, 70, 0
2, 75680, Note_on_c, 1, 63, 127
2, 75680, Note_on_c, 1, 67, 127
2, 75880, Note_off_c, 1, 63, 0
2, 75880, Note_off_c, 1, 67, 0
2, 75920, Note_on_c, 1, 63, 127
2, 75920, Note_on_c, 1, 65, 127
2, 76120, Note_off_c, 1, 63, 0
2, 76120, Note_off_c, 1, 65, 0
2, 76160, Note_on_c, 1, 70, 127
2, 76360, Note_off_c, 1, 70, 0
2, 76400, Note_on_c, 1, 65, 127
2, 76400, Note_on_c, 1, 68, 127
2, 76600, Note_off_c, 1, 65, 0
2, 76600, Note_off_c, 1, 68, 0
2, 76640, Note_on_c, 1, 63, 127
2, 76840, Note_off_c, 1, 63, 0
2, 76920, Note_on_c, 1, 60, 127
2, 76920, Note_on_c, 1, 67, 127
2, 77120, Note_off_c, 1, 60, 0
2, 77120, Note_off_c, 1, 67, 0
2, 77160, Note_on_c, 1, 70, 127
2, 77360, Note_off_c, 1, 70, 0
2, 77400, Note_on_c, 1, 63, 127
2, 77400, Note_on_c, 1, 72, 127
2, 77600, Note_off_c, 1, 63, 0
2, 77600, Note_off_c, 1, 72, 0
2, 77640, Note_on_c, 1, 82, 127
2, 77840, Note_off_c, 1, 82, 0
2, 77880, Note_on_c, 1, 51, 127
2, 77880, Note_on_c, 1, 71, 127
2, 78080, Note_off_c, 1, 51, 0
2, 78080, Note_off_c, 1, 71, 0
2, 78120, Note_on_c, 1, 68, 127
2, 78320, Note_off_c, 1, 68, 0
2, 78360, Note_on_c, 1, 70, 127
2, 78360, Note_on_c, 1, 74, 127
2, 78560, Note_off_c, 1, 70, 0
2, 78560, Note_off_c, 1, 74, 0
2, 78600, Note_on_c, 1, 70, 127
2, 78800, Note_off_c, 1, 70, 0
2, 78840, Note_on_c, 1, 34, 127
2, 78840, Note_on_c, 1, 65, 127
2, 78840, Note_on_c, 1, 73, 127
2, 79040, Note_off_c, 1, 34, 0
2, 79040, Note_off_c, 1, 73, 0
2, 79080, Note_off_c, 1, 65, 0
2, 79120, Note_on_c, 1, 65, 127
2, 79120, Note_on_c, 1, 74, 127
2, 79320, Note_off_c, 1, 65, 0
2, 79320, Note_off_c, 1, 74, 0
2, 79360, Note_on_c, 1, 62, 127
2, 79560, Note_off_c, 1, 62, 0
2, 79600, Note_on_c, 1, 70, 127
2, 79600, Note_on_c, 1, 77, 127
2, 79800, Note_off_c, 1, 70, 0
2, 79800, Note_off_c, 1, 77, 0
2, 79840, Note_on_c, 1, 82, 127
2, 80080, Note_on_c, 1, 58, 127
2, 80280, Note_off_c, 1, 58, 0
2, 80320, Note_on_c, 1, 63, 127
2, 80520, Note_off_c, 1, 63, 0
2, 80520, Note_off_c, 1, 82, 0
2, 80560, Note_on_c, 1, 67, 127
2, 80560, Note_on_c, 1, 74, 127
2, 80760, Note_off_c, 1, 67, 0
2, 80760, Note_off_c, 1, 74, 0
2, 80800, Note_on_c, 1, 82, 127
2, 81040, Note_on_c, 1, 58, 127
2, 81240, Note_off_c, 1, 58, 0
2, 81240, Note_off_c, 1, 82, 0
2, 81320, Note_on_c, 1, 67, 127
2, 81520, Note_off_c, 1, 67, 0
2, 81560, Note_on_c, 1, 70, 127
2, 81560, Note_on_c, 1, 75, 127
2, 81760, Note_off_c, 1, 70, 0
2, 81760, Note_off_c, 1, 75, 0
2, 81800, Note_on_c, 1, 82, 127
2, 82000, Note_off_c, 1, 82, 0
2, 82040, Note_on_c, 1, 63, 127
2, 82040, Note_on_c, 1, 74, 127
2, 82240, Note_off_c, 1, 63, 0
2, 82240, Note_off_c, 1, 74, 0
2, 82280, Note_on_c, 1, 72, 127
2, 82480, Note_off_c, 1, 72, 0
2, 82520, Note_on_c, 1, 70, 127
2, 82520, Note_on_c, 1, 80, 127
2, 82720, Note_off_c, 1, 70, 0
2, 82720, Note_off_c, 1, 80, 0
2, 82760, Note_on_c, 1, 70, 127
2, 82960, Note_off_c, 1, 70, 0
2, 83000, Note_on_c, 1, 63, 127
2, 83000, Note_on_c, 1, 79, 127
2, 83200, Note_off_c, 1, 63, 0
2, 83200, Note_off_c, 1, 79, 0
2, 83240, Note_on_c, 1, 70, 127
2, 83240, Note_on_c, 1, 79, 127
2, 83280, Note_off_c, 1, 70, 0
2, 83280, Note_off_c, 1, 79, 0
2, 83320, Note_on_c, 1, 70, 127
2, 83320, Note_on_c, 1, 79, 127
2, 83480, Note_off_c, 1, 70, 0
2, 83480, Note_off_c, 1, 79, 0
2, 83520, Note_on_c, 1, 63, 127
2, 83520, Note_on_c, 1, 73, 127
2, 83520, Note_on_c, 1, 79, 127
2, 83720, Note_off_c, 1, 63, 0
2, 83720, Note_off_c, 1, 73, 0
2, 83760, Note_on_c, 1, 70, 127
2, 83960, Note_off_c, 1, 70, 0
2, 84000, Note_on_c, 1, 63, 127
2, 84000, Note_on_c, 1, 70, 127
2, 84200, Note_off_c, 1, 63, 0
2, 84200, Note_off_c, 1, 70, 0
2, 84240, Note_on_c, 1, 67, 127
2, 84440, Note_off_c, 1, 67, 0
2, 84440, Note_off_c, 1, 79, 0
2, 84480, Note_on_c, 1, 73, 127
2, 84480, Note_on_c, 1, 77, 127
2, 84680, Note_off_c, 1, 73, 0
2, 84680, Note_off_c, 1, 77, 0
2, 84720, Note_on_c, 1, 67, 127
2, 84920, Note_off_c, 1, 67, 0
2, 84960, Note_on_c, 1, 70, 127
2, 84960, Note_on_c, 1, 75, 127
2, 85160, Note_off_c, 1, 70, 0
2, 85160, Note_off_c, 1, 75, 0
2, 85200, Note_on_c, 1, 79, 127
2, 85280, Note_off_c, 1, 79, 0
2, 85320, Note_on_c, 1, 79, 127
2, 85480, Note_on_c, 1, 51, 127
2, 85680, Note_off_c, 1, 51, 0
2, 85720, Note_on_c, 1, 61, 127
2, 85920, Note_off_c, 1, 61, 0
2, 85920, Note_off_c, 1, 79, 0
2, 85960, Note_on_c, 1, 70, 127
2, 85960, Note_on_c, 1, 75, 127
2, 86160, Note_off_c, 1, 70, 0
2, 86160, Note_off_c, 1, 75, 0
2, 86200, Note_on_c, 1, 68, 127
2, 86400, Note_off_c, 1, 68, 0
2, 86440, Note_on_c, 1, 67, 127
2, 86440, Note_on_c, 1, 75, 127
2, 86640, Note_off_c, 1, 67, 0
2, 86640, Note_off_c, 1, 75, 0
2, 86680, Note_on_c, 1, 67, 127
2, 86880, Note_off_c, 1, 67, 0
2, 86920, Note_on_c, 1, 63, 127
2, 86920, Note_on_c, 1, 75, 127
2, 87120, Note_off_c, 1, 63, 0
2, 87160, Note_on_c, 1, 68, 127
2, 87360, Note_off_c, 1, 68, 0
2, 87360, Note_off_c, 1, 75, 0
2, 87440, Note_on_c, 1, 56, 127
2, 87440, Note_on_c, 1, 73, 127
2, 87640, Note_off_c, 1, 56, 0
2, 87640, Note_off_c, 1, 73, 0
2, 87680, Note_on_c, 1, 65, 127
2, 87680, Note_on_c, 1, 71, 127
2, 87880, Note_off_c, 1, 65, 0
2, 87880, Note_off_c, 1, 71, 0
2, 87920, Note_on_c, 1, 68, 127
2, 88120, Note_off_c, 1, 68, 0
2, 88160, Note_on_c, 1, 45, 127
2, 88160, Note_on_c, 1, 69, 127
2, 88360, Note_off_c, 1, 45, 0
2, 88360, Note_off_c, 1, 69, 0
2, 88400, Note_on_c, 1, 52, 127
2, 88600, Note_off_c, 1, 52, 0
2, 88640, Note_on_c, 1, 58, 127
2, 88840, Note_off_c, 1, 58, 0
2, 88880, Note_on_c, 1, 61, 127
2, 89080, Note_off_c, 1, 61, 0
2, 89120, Note_on_c, 1, 68, 127
2, 89320, Note_off_c, 1, 68, 0
2, 89360, Note_on_c, 1, 75, 127
2, 89520, Note_off_c, 1, 75, 0
2, 89560, Note_on_c, 1, 75, 127
2, 89600, Note_off_c, 1, 75, 0
2, 89640, Note_on_c, 1, 52, 127
2, 89640, Note_on_c, 1, 73, 127
2, 89840, Note_off_c, 1, 52, 0
2, 89840, Note_off_c, 1, 73, 0
2, 89880, Note_on_c, 1, 63, 127
2, 90080, Note_off_c, 1, 63, 0
2, 90120, Note_on_c, 1, 47, 127
2, 90120, Note_on_c, 1, 68, 127
2, 90320, Note_off_c, 1, 47, 0
2, 90320, Note_off_c, 1, 68, 0
2, 90360, Note_on_c, 1, 71, 127
2, 90560, Note_off_c, 1, 71, 0
2, 90600, Note_on_c, 1, 40, 127
2, 90600, Note_on_c, 1, 74, 127
2, 90800, Note_off_c, 1, 40, 0
2, 90800, Note_off_c, 1, 74, 0
2, 90840, Note_on_c, 1, 71, 127
2, 91040, Note_off_c, 1, 71, 0
2, 91080, Note_on_c, 1, 44, 127
2, 91080, Note_on_c, 1, 72, 127
2, 91280, Note_off_c, 1, 44, 0
2, 91280, Note_off_c, 1, 72, 0
2, 91320, Note_on_c, 1, 70, 127
2, 91520, Note_off_c, 1, 70, 0
2, 91600, Note_on_c, 1, 51, 127
2, 91600, Note_on_c, 1, 78, 127
2, 91800, Note_off_c, 1, 51, 0
2, 91800, Note_off_c, 1, 78, 0
2, 91840, Note_on_c, 1, 71, 127
2, 92040, Note_off_c, 1, 71, 0
2, 92080, Note_on_c, 1, 54, 127
2, 92080, Note_on_c, 1, 69, 127
2, 92280, Note_off_c, 1, 54, 0
2, 92280, Note_off_c, 1, 69, 0
2, 92320, Note_on_c, 1, 75, 127
2, 92520, Note_off_c, 1, 75, 0
2, 92560, Note_on_c, 1, 47, 127
2, 92560, Note_on_c, 1, 69, 127
2, 92760, Note_off_c, 1, 47, 0
2, 92760, Note_off_c, 1, 69, 0
2, 92800, Note_on_c, 1, 63, 127
2, 93000, Note_off_c, 1, 63, 0
2, 93040, Note_on_c, 1, 59, 127
2, 93040, Note_on_c, 1, 66, 127
2, 93240, Note_off_c, 1, 59, 0
2, 93240, Note_off_c, 1, 66, 0
2, 93280, Note_on_c, 1, 71, 127
2, 93480, Note_off_c, 1, 71, 0
2, 93520, Note_on_c, 1, 47, 127
2, 93520, Note_on_c, 1, 69, 127
2, 93680, Note_off_c, 1, 47, 0
2, 93680, Note_off_c, 1, 69, 0
2, 93720, Note_on_c, 1, 47, 127
2, 93720, Note_on_c, 1, 69, 127
2, 93760, Note_off_c, 1, 47, 0
2, 93760, Note_off_c, 1, 69, 0
2, 93800, Note_on_c, 1, 68, 127
2, 94000, Note_off_c, 1, 68, 0
2, 94040, Note_on_c, 1, 59, 127
2, 94040, Note_on_c, 1, 69, 127
2, 94240, Note_off_c, 1, 59, 0
2, 94240, Note_off_c, 1, 69, 0
2, 94280, Note_on_c, 1, 72, 127
2, 94480, Note_off_c, 1, 72, 0
2, 94520, Note_on_c, 1, 47, 127
2, 94520, Note_on_c, 1, 63, 127
2, 94720, Note_off_c, 1, 47, 0
2, 94720, Note_off_c, 1, 63, 0
2, 94760, Note_on_c, 1, 68, 127
2, 94960, Note_off_c, 1, 68, 0
2, 95000, Note_on_c, 1, 51, 127
2, 95000, Note_on_c, 1, 71, 127
2, 95200, Note_off_c, 1, 51, 0
2, 95200, Note_off_c, 1, 71, 0
2, 95240, Note_on_c, 1, 75, 127
2, 95440, Note_off_c, 1, 75, 0
2, 95480, Note_on_c, 1, 57, 127
2, 95480, Note_on_c, 1, 73, 127
2, 95680, Note_off_c, 1, 57, 0
2, 95680, Note_off_c, 1, 73, 0
2, 95720, Note_on_c, 1, 64, 127
2, 95880, Note_off_c, 1, 64, 0
2, 95920, Note_on_c, 1, 64, 127
2, 95960, Note_off_c, 1, 64, 0
2, 96000, Note_on_c, 1, 61, 127
2, 96000, Note_on_c, 1, 68, 127
2, 96200, Note_off_c, 1, 61, 0
2, 96200, Note_off_c, 1, 68, 0
2, 96240, Note_on_c, 1, 73, 127
2, 96440, Note_off_c, 1, 73, 0
2, 96480, Note_on_c, 1, 59, 127
2, 96480, Note_on_c, 1, 68, 127
2, 96680, Note_off_c, 1, 59, 0
2, 96680, Note_off_c, 1, 68, 0
2, 96720, Note_on_c, 1, 80, 127
2, 96920, Note_off_c, 1, 80, 0
2, 96960, Note_on_c, 1, 52, 127
2, 96960, Note_on_c, 1, 68, 127
2, 97160, Note_off_c, 1, 52, 0
2, 97160, Note_off_c, 1, 68, 0
2, 97200, Note_on_c, 1, 56, 127
2, 97200, Note_on_c, 1, 71, 127
2, 97400, Note_off_c, 1, 56, 0
2, 97400, Note_off_c, 1, 71, 0
2, 97440, Note_on_c, 1, 59, 127
2, 97440, Note_on_c, 1, 76, 127
2, 97640, Note_off_c, 1, 59, 0
2, 97640, Note_off_c, 1, 76, 0
2, 97680, Note_on_c, 1, 68, 127
2, 97880, Note_off_c, 1, 68, 0
2, 97920, Note_on_c, 1, 52, 127
2, 97920, Note_on_c, 1, 71, 127
2, 98080, Note_off_c, 1, 52, 0
2, 98080, Note_off_c, 1, 71, 0
2, 98120, Note_on_c, 1, 52, 127
2, 98120, Note_on_c, 1, 71, 127
2, 98160, Note_off_c, 1, 52, 0
2, 98160, Note_off_c, 1, 71, 0
2, 98200, Note_on_c, 1, 67, 127
2, 98400, Note_off_c, 1, 67, 0
2, 98440, Note_on_c, 1, 49, 127
2, 98440, Note_on_c, 1, 68, 127
2, 98640, Note_off_c, 1, 49, 0
2, 98640, Note_off_c, 1, 68, 0
2, 98680, Note_on_c, 1, 59, 127
2, 98880, Note_off_c, 1, 59, 0
2, 98920, Note_on_c, 1, 54, 127
2, 98920, Note_on_c, 1, 68, 127
2, 99120, Note_off_c, 1, 54, 0
2, 99120, Note_off_c, 1, 68, 0
2, 99160, Note_on_c, 1, 72, 127
2, 99360, Note_off_c, 1, 72, 0
2, 99400, Note_on_c, 1, 51, 127
2, 99400, Note_on_c, 1, 71, 127
2, 99600, Note_off_c, 1, 51, 0
2, 99600, Note_off_c, 1, 71, 0
2, 99640, Note_on_c, 1, 68, 127
2, 99840, Note_off_c, 1, 68, 0
2, 99880, Note_on_c, 1, 52, 127
2, 99880, Note_on_c, 1, 68, 127
2, 100080, Note_off_c, 1, 52, 0
2, 100080, Note_off_c, 1, 68, 0
2, 100120, Note_on_c, 1, 64, 127
2, 100200, Note_off_c, 1, 64, 0
2, 100240, Note_on_c, 1, 64, 127
2, 100360, Note_off_c, 1, 64, 0
2, 100400, Note_on_c, 1, 59, 127
2, 100400, Note_on_c, 1, 68, 127
2, 100600, Note_off_c, 1, 59, 0
2, 100600, Note_off_c, 1, 68, 0
2, 100640, Note_on_c, 1, 75, 127
2, 100840, Note_off_c, 1, 75, 0
2, 100880, Note_on_c, 1, 49, 127
2, 100880, Note_on_c, 1, 76, 127
2, 101080, Note_off_c, 1, 49, 0
2, 101080, Note_off_c, 1, 76, 0
2, 101120, Note_on_c, 1, 75, 127
2, 101320, Note_off_c, 1, 75, 0
2, 101360, Note_on_c, 1, 56, 127
2, 101360, Note_on_c, 1, 76, 127
2, 101560, Note_off_c, 1, 56, 0
2, 101560, Note_off_c, 1, 76, 0
2, 101600, Note_on_c, 1, 71, 127
2, 101800, Note_off_c, 1, 71, 0
2, 101840, Note_on_c, 1, 56, 127
2, 101840, Note_on_c, 1, 75, 127
2, 102040, Note_off_c, 1, 56, 0
2, 102040, Note_off_c, 1, 75, 0
2, 102080, Note_on_c, 1, 64, 127
2, 102280, Note_off_c, 1, 64, 0
2, 102360, Note_on_c, 1, 57, 127
2, 102360, Note_on_c, 1, 66, 127
2, 102560, Note_off_c, 1, 57, 0
2, 102560, Note_off_c, 1, 66, 0
2, 102600, Note_on_c, 1, 73, 127
2, 102800, Note_off_c, 1, 73, 0
2, 102840, Note_on_c, 1, 45, 127
2, 102840, Note_on_c, 1, 73, 127
2, 103040, Note_off_c, 1, 45, 0
2, 103040, Note_off_c, 1, 73, 0
2, 103080, Note_on_c, 1, 75, 127
2, 103280, Note_off_c, 1, 75, 0
2, 103320, Note_on_c, 1, 45, 127
2, 103320, Note_on_c, 1, 73, 127
2, 103520, Note_off_c, 1, 45, 0
2, 103520, Note_off_c, 1, 73, 0
2, 103560, Note_on_c, 1, 78, 127
2, 103760, Note_off_c, 1, 78, 0
2, 103800, Note_on_c, 1, 45, 127
2, 103800, Note_on_c, 1, 75, 127
2, 104000, Note_off_c, 1, 45, 0
2, 104000, Note_off_c, 1, 75, 0
2, 104040, Note_on_c, 1, 68, 127
2, 104240, Note_off_c, 1, 68, 0
2, 104280, Note_on_c, 1, 51, 127
2, 104280, Note_on_c, 1, 78, 127
2, 104480, Note_off_c, 1, 51, 0
2, 104480, Note_off_c, 1, 78, 0
2, 104560, Note_on_c, 1, 66, 127
2, 104760, Note_off_c, 1, 66, 0
2, 104800, Note_on_c, 1, 56, 127
2, 104800, Note_on_c, 1, 76, 127
2, 105000, Note_off_c, 1, 56, 0
2, 105000, Note_off_c, 1, 76, 0
2, 105040, Note_on_c, 1, 78, 127
2, 105240, Note_off_c, 1, 78, 0
2, 105280, Note_on_c, 1, 49, 127
2, 105280, Note_on_c, 1, 76, 127
2, 105480, Note_off_c, 1, 49, 0
2, 105480, Note_off_c, 1, 76, 0
2, 105520, Note_on_c, 1, 73, 127
2, 105720, Note_off_c, 1, 73, 0
2, 105760, Note_on_c, 1, 57, 127
2, 105760, Note_on_c, 1, 73, 127
2, 105960, Note_off_c, 1, 57, 0
2, 105960, Note_off_c, 1, 73, 0
2, 106000, Note_on_c, 1, 70, 127
2, 106200, Note_off_c, 1, 70, 0
2, 106240, Note_on_c, 1, 52, 127
2, 106240, Note_on_c, 1, 73, 127
2, 106440, Note_off_c, 1, 52, 0
2, 106440, Note_off_c, 1, 73, 0
2, 106480, Note_on_c, 1, 71, 127
2, 106680, Note_off_c, 1, 71, 0
2, 106760, Note_on_c, 1, 56, 127
2, 106760, Note_on_c, 1, 75, 127
2, 106960, Note_off_c, 1, 56, 0
2, 106960, Note_off_c, 1, 75, 0
2, 107000, Note_on_c, 1, 76, 127
2, 107200, Note_off_c, 1, 76, 0
2, 107240, Note_on_c, 1, 56, 127
2, 107240, Note_on_c, 1, 75, 127
2, 107440, Note_off_c, 1, 56, 0
2, 107440, Note_off_c, 1, 75, 0
2, 107480, Note_on_c, 1, 76, 127
2, 107680, Note_off_c, 1, 76, 0
2, 107720, Note_on_c, 1, 51, 127
2, 107720, Note_on_c, 1, 78, 127
2, 107920, Note_off_c, 1, 51, 0
2, 107920, Note_off_c, 1, 78, 0
2, 107960, Note_on_c, 1, 69, 127
2, 108160, Note_off_c, 1, 69, 0
2, 108200, Note_on_c, 1, 80, 127
2, 108400, Note_off_c, 1, 80, 0
2, 108440, Note_on_c, 1, 51, 127
2, 108440, Note_on_c, 1, 75, 127
2, 108640, Note_off_c, 1, 51, 0
2, 108640, Note_off_c, 1, 75, 0
2, 108680, Note_on_c, 1, 78, 127
2, 108800, Note_on_c, 1, 63, 127
2, 108840, Note_off_c, 1, 63, 0
2, 108840, Note_off_c, 1, 78, 0
2, 108880, Note_on_c, 1, 78, 127
2, 108920, Note_off_c, 1, 78, 0
2, 108960, Note_on_c, 1, 57, 127
2, 108960, Note_on_c, 1, 73, 127
2, 109160, Note_off_c, 1, 57, 0
2, 109160, Note_off_c, 1, 73, 0
2, 109200, Note_on_c, 1, 64, 127
2, 109400, Note_off_c, 1, 64, 0
2, 109440, Note_on_c, 1, 57, 127
2, 109440, Note_on_c, 1, 73, 127
2, 109640, Note_off_c, 1, 57, 0
2, 109640, Note_off_c, 1, 73, 0
2, 109680, Note_on_c, 1, 66, 127
2, 109880, Note_off_c, 1, 66, 0
2, 109920, Note_on_c, 1, 55, 127
2, 109920, Note_on_c, 1, 76, 127
2, 110120, Note_off_c, 1, 55, 0
2, 110120, Note_off_c, 1, 76, 0
2, 110160, Note_on_c, 1, 73, 127
2, 110360, Note_off_c, 1, 73, 0
2, 110400, Note_on_c, 1, 59, 127
2, 110400, Note_on_c, 1, 76, 127
2, 110600, Note_off_c, 1, 59, 0
2, 110640, Note_on_c, 1, 64, 127
2, 110800, Note_off_c, 1, 76, 0
2, 110840, Note_off_c, 1, 64, 0
2, 110840, Note_on_c, 1, 76, 127
2, 110880, Note_on_c, 1, 54, 127
2, 110880, Note_off_c, 1, 76, 0
2, 110880, Note_on_c, 1, 79, 127
2, 111040, Note_off_c, 1, 54, 0
2, 111040, Note_off_c, 1, 79, 0
2, 111080, Note_on_c, 1, 54, 127
2, 111080, Note_on_c, 1, 79, 127
2, 111120, Note_off_c, 1, 54, 0
2, 111120, Note_off_c, 1, 79, 0
2, 111160, Note_on_c, 1, 60, 127
2, 111160, Note_on_c, 1, 76, 127
2, 111360, Note_off_c, 1, 60, 0
2, 111360, Note_off_c, 1, 76, 0
2, 111400, Note_on_c, 1, 59, 127
2, 111400, Note_on_c, 1, 71, 127
2, 111600, Note_off_c, 1, 59, 0
2, 111600, Note_off_c, 1, 71, 0
2, 111640, Note_on_c, 1, 63, 127
2, 111840, Note_off_c, 1, 63, 0
2, 111880, Note_on_c, 1, 59, 127
2, 111880, Note_on_c, 1, 71, 127
2, 112080, Note_off_c, 1, 59, 0
2, 112080, Note_off_c, 1, 71, 0
2, 112120, Note_on_c, 1, 80, 127
2, 112320, Note_off_c, 1, 80, 0
2, 112360, Note_on_c, 1, 57, 127
2, 112360, Note_on_c, 1, 72, 127
2, 112560, Note_off_c, 1, 57, 0
2, 112560, Note_off_c, 1, 72, 0
2, 112600, Note_on_c, 1, 81, 127
2, 112800, Note_off_c, 1, 81, 0
2, 112840, Note_on_c, 1, 55, 127
2, 112840, Note_on_c, 1, 71, 127
2, 113040, Note_off_c, 1, 55, 0
2, 113040, Note_off_c, 1, 71, 0
2, 113080, Note_on_c, 1, 70, 127
2, 113240, Note_off_c, 1, 70, 0
2, 113280, Note_on_c, 1, 70, 127
2, 113320, Note_off_c, 1, 70, 0
2, 113360, Note_on_c, 1, 57, 127
2, 113360, Note_on_c, 1, 73, 127
2, 113560, Note_off_c, 1, 57, 0
2, 113560, Note_off_c, 1, 73, 0
2, 113600, Note_on_c, 1, 67, 127
2, 113800, Note_off_c, 1, 67, 0
2, 113840, Note_on_c, 1, 59, 127
2, 113840, Note_on_c, 1, 75, 127
2, 114040, Note_off_c, 1, 59, 0
2, 114040, Note_off_c, 1, 75, 0
2, 114080, Note_on_c, 1, 71, 127
2, 114280, Note_off_c, 1, 71, 0
2, 114320, Note_on_c, 1, 60, 127
2, 114320, Note_on_c, 1, 76, 127
2, 114520, Note_off_c, 1, 60, 0
2, 114520, Note_off_c, 1, 76, 0
2, 114560, Note_on_c, 1, 68, 127
2, 114760, Note_off_c, 1, 68, 0
2, 114800, Note_on_c, 1, 60, 127
2, 114800, Note_on_c, 1, 76, 127
2, 115000, Note_off_c, 1, 60, 0
2, 115000, Note_off_c, 1, 76, 0
2, 115040, Note_on_c, 1, 68, 127
2, 115240, Note_off_c, 1, 68, 0
2, 115280, Note_on_c, 1, 59, 127
2, 115280, Note_on_c, 1, 76, 127
2, 115440, Note_off_c, 1, 59, 0
2, 115440, Note_off_c, 1, 76, 0
2, 115480, Note_on_c, 1, 59, 127
2, 115480, Note_on_c, 1, 76, 127
2, 115520, Note_off_c, 1, 59, 0
2, 115520, Note_off_c, 1, 76, 0
2, 115560, Note_on_c, 1, 68, 127
2, 115760, Note_off_c, 1, 68, 0
2, 115800, Note_on_c, 1, 59, 127
2, 115800, Note_on_c, 1, 76, 127
2, 116000, Note_off_c, 1, 59, 0
2, 116000, Note_off_c, 1, 76, 0
2, 116040, Note_on_c, 1, 66, 127
2, 116240, Note_off_c, 1, 66, 0
2, 116280, Note_on_c, 1, 59, 127
2, 116280, Note_on_c, 1, 76, 127
2, 116480, Note_off_c, 1, 59, 0
2, 116480, Note_off_c, 1, 76, 0
2, 116520, Note_on_c, 1, 76, 127
2, 116720, Note_off_c, 1, 76, 0
2, 116760, Note_on_c, 1, 56, 127
2, 116760, Note_on_c, 1, 76, 127
2, 116960, Note_off_c, 1, 56, 0
2, 116960, Note_off_c, 1, 76, 0
2, 117000, Note_on_c, 1, 64, 127
2, 117200, Note_off_c, 1, 64, 0
2, 117240, Note_on_c, 1, 68, 127
2, 117240, Note_on_c, 1, 78, 127
2, 117440, Note_off_c, 1, 68, 0
2, 117440, Note_off_c, 1, 78, 0
2, 117480, Note_on_c, 1, 76, 127
2, 117640, Note_off_c, 1, 76, 0
2, 117680, Note_on_c, 1, 76, 127
2, 117720, Note_off_c, 1, 76, 0
2, 117760, Note_on_c, 1, 59, 127
2, 117760, Note_on_c, 1, 75, 127
2, 117960, Note_off_c, 1, 59, 0
2, 117960, Note_off_c, 1, 75, 0
2, 118000, Note_on_c, 1, 68, 127
2, 118200, Note_off_c, 1, 68, 0
2, 118240, Note_on_c, 1, 59, 127
2, 118240, Note_on_c, 1, 76, 127
2, 118440, Note_off_c, 1, 59, 0
2, 118440, Note_off_c, 1, 76, 0
2, 118480, Note_on_c, 1, 71, 127
2, 118680, Note_off_c, 1, 71, 0
2, 118720, Note_on_c, 1, 56, 127
2, 118720, Note_on_c, 1, 72, 127
2, 118920, Note_off_c, 1, 56, 0
2, 118920, Note_off_c, 1, 72, 0
2, 118960, Note_on_c, 1, 66, 127
2, 119160, Note_off_c, 1, 66, 0
2, 119200, Note_on_c, 1, 59, 127
2, 119200, Note_on_c, 1, 71, 127
2, 119400, Note_off_c, 1, 59, 0
2, 119400, Note_off_c, 1, 71, 0
2, 119440, Note_on_c, 1, 75, 127
2, 119640, Note_off_c, 1, 75, 0
2, 119720, Note_on_c, 1, 48, 127
2, 119720, Note_on_c, 1, 69, 127
2, 119920, Note_off_c, 1, 48, 0
2, 119920, Note_off_c, 1, 69, 0
2, 119960, Note_on_c, 1, 66, 127
2, 120000, Note_off_c, 1, 66, 0
2, 120040, End_track
3, 0, Start_track
3, 0, Title_t, "MIDI"
3, 1536, End_track
0, 0, End_of_file
