0, 0, Header, 1, 3, 192
1, 0, Start_track
1, 0, Time_signature, 4, 2, 24, 8
1, 0, Tempo, 500000
1, 120040, End_track
2, 0, Start_track
2, 0, Text_t, "random instrument: random person i dunno whatev"
2, 0, Title_t, "Track 1"
2, 0, Note_on_c, 1, 40, 127
2, 0, Note_on_c, 1, 48, 127
2, 0, Note_on_c, 1, 56, 127
2, 0, Note_on_c, 1, 60, 127
2, 160, Note_off_c, 1, 40, 0
2, 160, Note_off_c, 1, 48, 0
2, 160, Note_off_c, 1, 56, 0
2, 160, Note_off_c, 1, 60, 0
2, 14960, Note_on_c, 1, 35, 127
2, 15040, Note_off_c, 1, 35, 0
2, 15080, Note_on_c, 1, 35, 127
2, 15120, Note_off_c, 1, 35, 0
2, 15160, Note_on_c, 1, 35, 127
2, 15240, Note_off_c, 1, 35, 0
2, 15560, Note_on_c, 1, 52, 127
2, 15560, Note_on_c, 1, 55, 127
2, 15560, Note_on_c, 1, 59, 127
2, 15560, Note_on_c, 1, 64, 127
2, 16960, Note_off_c, 1, 52, 0
2, 16960, Note_off_c, 1, 55, 0
2, 16960, Note_off_c, 1, 59, 0
2, 16960, Note_off_c, 1, 64, 0
2, 17000, Note_on_c, 1, 52, 127
2, 17000, Note_on_c, 1, 55, 127
2, 17000, Note_on_c, 1, 59, 127
2, 17000, Note_on_c, 1, 64, 127
2, 19360, Note_off_c, 1, 52, 0
2, 19360, Note_off_c, 1, 55, 0
2, 19360, Note_off_c, 1, 59, 0
2, 19360, Note_off_c, 1, 64, 0
2, 19400, Note_on_c, 1, 52, 127
2, 19400, Note_on_c, 1, 55, 127
2, 19400, Note_on_c, 1, 59, 127
2, 19400, Note_on_c, 1, 64, 127
2, 21440, Note_off_c, 1, 52, 0
2, 21440, Note_off_c, 1, 55, 0
2, 21440, Note_off_c, 1, 59, 0
2, 21440, Note_off_c, 1, 64, 0
2, 21480, Note_on_c, 1, 52, 127
2, 21480, Note_on_c, 1, 55, 127
2, 21480, Note_on_c, 1, 59, 127
2, 21480, Note_on_c, 1, 64, 127
2, 22760, Note_off_c, 1, 64, 0
2, 22800, Note_on_c, 1, 64, 127
2, 23520, Note_off_c, 1, 52, 0
2, 23520, Note_off_c, 1, 55, 0
2, 23520, Note_off_c, 1, 59, 0
2, 23520, Note_off_c, 1, 64, 0
2, 23560, Note_on_c, 1, 52, 127
2, 23560, Note_on_c, 1, 55, 127
2, 23560, Note_on_c, 1, 59, 127
2, 23560, Note_on_c, 1, 64, 127
2, 24080, Note_off_c, 1, 64, 0
2, 24280, Note_off_c, 1, 52, 0
2, 24280, Note_off_c, 1, 55, 0
2, 24320, Note_on_c, 1, 47, 127
2, 24320, Note_on_c, 1, 54, 127
2, 24320, Note_off_c, 1, 59, 0
2, 25400, Note_off_c, 1, 47, 0
2, 25400, Note_off_c, 1, 54, 0
2, 25480, Note_on_c, 1, 42, 127
2, 26520, Note_off_c, 1, 42, 0
2, 26560, Note_on_c, 1, 64, 127
2, 26560, Note_on_c, 1, 66, 127
2, 27320, Note_off_c, 1, 64, 0
2, 27320, Note_off_c, 1, 66, 0
2, 27360, Note_on_c, 1, 64, 127
2, 27360, Note_on_c, 1, 66, 127
2, 27560, Note_off_c, 1, 64, 0
2, 27560, Note_off_c, 1, 66, 0
2, 27600, Note_on_c, 1, 64, 127
2, 27600, Note_on_c, 1, 66, 127
2, 28480, Note_off_c, 1, 64, 0
2, 28480, Note_off_c, 1, 66, 0
2, 28520, Note_on_c, 1, 64, 127
2, 28520, Note_on_c, 1, 66, 127
2, 29960, Note_off_c, 1, 64, 0
2, 29960, Note_off_c, 1, 66, 0
2, 36800, Note_on_c, 1, 45, 127
2, 36800, Note_on_c, 1, 49, 127
2, 37160, Note_off_c, 1, 49, 0
2, 37200, Note_on_c, 1, 50, 127
2, 37360, Note_off_c, 1, 50, 0
2, 37520, Note_off_c, 1, 45, 0
2, 37560, Note_on_c, 1, 47, 127
2, 37560, Note_on_c, 1, 51, 127
2, 37560, Note_on_c, 1, 54, 127
2, 37560, Note_on_c, 1, 59, 127
2, 38280, Note_off_c, 1, 47, 0
2, 38280, Note_off_c, 1, 51, 0
2, 38280, Note_off_c, 1, 54, 0
2, 38280, Note_off_c, 1, 59, 0
2, 38360, Note_on_c, 1, 47, 127
2, 38640, Note_off_c, 1, 47, 0
2, 38720, Note_on_c, 1, 47, 127
2, 38720, Note_on_c, 1, 63, 127
2, 38720, Note_on_c, 1, 66, 127
2, 39440, Note_off_c, 1, 47, 0
2, 39440, Note_off_c, 1, 63, 0
2, 39440, Note_off_c, 1, 66, 0
2, 39480, Note_on_c, 1, 52, 127
2, 39480, Note_on_c, 1, 64, 127
2, 39480, Note_on_c, 1, 68, 127
2, 39800, Note_off_c, 1, 52, 0
2, 39800, Note_off_c, 1, 68, 0
2, 39840, Note_on_c, 1, 51, 127
2, 39840, Note_on_c, 1, 68, 127
2, 40200, Note_off_c, 1, 51, 0
2, 40240, Note_on_c, 1, 52, 127
2, 40400, Note_off_c, 1, 52, 0
2, 40400, Note_off_c, 1, 64, 0
2, 40400, Note_off_c, 1, 68, 0
2, 40440, Note_on_c, 1, 52, 127
2, 40440, Note_on_c, 1, 64, 127
2, 40440, Note_on_c, 1, 68, 127
2, 40600, Note_off_c, 1, 52, 0
2, 40600, Note_off_c, 1, 64, 0
2, 40600, Note_off_c, 1, 68, 0
2, 40640, Note_on_c, 1, 54, 127
2, 40640, Note_on_c, 1, 63, 127
2, 40640, Note_on_c, 1, 69, 127
2, 41360, Note_off_c, 1, 63, 0
2, 41400, Note_on_c, 1, 61, 127
2, 42120, Note_off_c, 1, 54, 0
2, 42120, Note_off_c, 1, 61, 0
2, 42120, Note_off_c, 1, 69, 0
2, 42160, Note_on_c, 1, 47, 127
2, 42160, Note_on_c, 1, 63, 127
2, 42160, Note_on_c, 1, 66, 127
2, 42560, Note_off_c, 1, 47, 0
2, 42560, Note_off_c, 1, 63, 0
2, 42560, Note_off_c, 1, 66, 0
2, 42600, Note_on_c, 1, 47, 127
2, 42600, Note_on_c, 1, 63, 127
2, 42600, Note_on_c, 1, 66, 127
2, 42920, Note_off_c, 1, 63, 0
2, 42920, Note_off_c, 1, 66, 0
2, 42960, Note_on_c, 1, 61, 127
2, 43280, Note_off_c, 1, 47, 0
2, 43280, Note_on_c, 1, 59, 127
2, 43280, Note_off_c, 1, 61, 0
2, 43320, Note_on_c, 1, 47, 127
2, 43320, Note_off_c, 1, 59, 0
2, 43320, Note_on_c, 1, 61, 127
2, 43680, Note_off_c, 1, 47, 0
2, 43720, Note_on_c, 1, 47, 127
2, 44040, Note_off_c, 1, 47, 0
2, 44080, Note_on_c, 1, 49, 127
2, 44440, Note_off_c, 1, 49, 0
2, 44480, Note_on_c, 1, 47, 127
2, 44760, Note_off_c, 1, 47, 0
2, 44760, Note_off_c, 1, 61, 0
2, 44800, Note_on_c, 1, 47, 127
2, 44800, Note_on_c, 1, 61, 127
2, 44840, Note_off_c, 1, 47, 0
2, 44880, Note_on_c, 1, 52, 127
2, 45600, Note_off_c, 1, 52, 0
2, 45600, Note_off_c, 1, 61, 0
2, 45640, Note_on_c, 1, 44, 127
2, 45640, Note_on_c, 1, 64, 127
2, 45960, Note_off_c, 1, 64, 0
2, 46000, Note_on_c, 1, 61, 127
2, 46360, Note_off_c, 1, 44, 0
2, 46400, Note_on_c, 1, 51, 127
2, 46720, Note_off_c, 1, 51, 0
2, 46760, Note_on_c, 1, 52, 127
2, 47000, Note_off_c, 1, 52, 0
2, 47000, Note_off_c, 1, 61, 0
2, 47040, Note_on_c, 1, 52, 127
2, 47040, Note_on_c, 1, 61, 127
2, 47120, Note_off_c, 1, 52, 0
2, 47160, Note_on_c, 1, 55, 127
2, 47520, Note_off_c, 1, 55, 0
2, 47560, Note_on_c, 1, 55, 127
2, 47880, Note_off_c, 1, 61, 0
2, 47920, Note_on_c, 1, 64, 127
2, 48280, Note_off_c, 1, 55, 0
2, 48320, Note_on_c, 1, 46, 127
2, 48640, Note_off_c, 1, 64, 0
2, 48680, Note_on_c, 1, 61, 127
2, 49000, Note_off_c, 1, 46, 0
2, 49080, Note_on_c, 1, 43, 127
2, 49280, Note_off_c, 1, 43, 0
2, 49280, Note_off_c, 1, 61, 0
2, 49320, Note_on_c, 1, 43, 127
2, 49320, Note_on_c, 1, 61, 127
2, 49440, Note_off_c, 1, 43, 0
2, 49480, Note_on_c, 1, 47, 127
2, 49800, Note_off_c, 1, 47, 0
2, 49840, Note_on_c, 1, 56, 127
2, 50200, Note_off_c, 1, 56, 0
2, 50240, Note_on_c, 1, 48, 127
2, 50560, Note_off_c, 1, 48, 0
2, 50600, Note_on_c, 1, 46, 127
2, 50960, Note_off_c, 1, 46, 0
2, 51000, Note_on_c, 1, 52, 127
2, 51320, Note_off_c, 1, 52, 0
2, 51360, Note_off_c, 1, 61, 0
2, 51400, Note_on_c, 1, 52, 127
2, 51400, Note_on_c, 1, 61, 127
2, 51760, Note_off_c, 1, 52, 0
2, 51760, Note_off_c, 1, 61, 0
2, 51800, Note_on_c, 1, 47, 127
2, 51800, Note_on_c, 1, 61, 127
2, 52120, Note_off_c, 1, 47, 0
2, 52160, Note_on_c, 1, 52, 127
2, 52520, Note_off_c, 1, 52, 0
2, 52560, Note_on_c, 1, 52, 127
2, 52880, Note_off_c, 1, 52, 0
2, 52920, Note_on_c, 1, 52, 127
2, 53280, Note_off_c, 1, 52, 0
2, 53320, Note_off_c, 1, 61, 0
2, 53360, Note_on_c, 1, 54, 127
2, 53360, Note_on_c, 1, 61, 127
2, 53680, Note_off_c, 1, 54, 0
2, 53720, Note_on_c, 1, 52, 127
2, 54080, Note_off_c, 1, 52, 0
2, 54120, Note_on_c, 1, 52, 127
2, 54440, Note_off_c, 1, 52, 0
2, 54440, Note_off_c, 1, 61, 0
2, 54480, Note_on_c, 1, 51, 127
2, 54480, Note_on_c, 1, 61, 127
2, 55440, Note_off_c, 1, 51, 0
2, 55440, Note_off_c, 1, 61, 0
2, 55480, Note_on_c, 1, 51, 127
2, 55480, Note_on_c, 1, 61, 127
2, 55640, Note_off_c, 1, 51, 0
2, 55640, Note_off_c, 1, 61, 0
2, 55680, Note_on_c, 1, 44, 127
2, 55680, Note_on_c, 1, 59, 127
2, 56200, Note_off_c, 1, 44, 0
2, 56240, Note_on_c, 1, 47, 127
2, 57160, Note_off_c, 1, 47, 0
2, 57160, Note_off_c, 1, 59, 0
2, 57200, Note_on_c, 1, 44, 127
2, 57200, Note_on_c, 1, 56, 127
2, 57560, Note_off_c, 1, 44, 0
2, 57560, Note_off_c, 1, 56, 0
2, 57600, Note_on_c, 1, 44, 127
2, 57600, Note_on_c, 1, 56, 127
2, 58720, Note_off_c, 1, 44, 0
2, 58720, Note_off_c, 1, 56, 0
2, 58760, Note_on_c, 1, 44, 127
2, 58760, Note_on_c, 1, 58, 127
2, 59080, Note_off_c, 1, 44, 0
2, 59120, Note_on_c, 1, 44, 127
2, 59440, Note_off_c, 1, 44, 0
2, 59520, Note_off_c, 1, 58, 0
2, 59560, Note_on_c, 1, 44, 127
2, 59560, Note_on_c, 1, 58, 127
2, 59880, Note_off_c, 1, 44, 0
2, 59880, Note_off_c, 1, 58, 0
2, 59920, Note_on_c, 1, 61, 127
2, 60280, Note_off_c, 1, 61, 0
2, 60320, Note_on_c, 1, 58, 127
2, 60680, Note_off_c, 1, 58, 0
2, 60720, Note_on_c, 1, 49, 127
2, 60720, Note_on_c, 1, 65, 127
2, 61040, Note_off_c, 1, 49, 0
2, 61080, Note_on_c, 1, 59, 127
2, 61440, Note_off_c, 1, 59, 0
2, 61480, Note_off_c, 1, 65, 0
2, 61520, Note_on_c, 1, 56, 127
2, 61520, Note_on_c, 1, 65, 127
2, 61840, Note_off_c, 1, 56, 0
2, 61840, Note_off_c, 1, 65, 0
2, 61880, Note_on_c, 1, 53, 127
2, 61880, Note_on_c, 1, 65, 127
2, 62240, Note_off_c, 1, 53, 0
2, 62280, Note_on_c, 1, 59, 127
2, 62600, Note_off_c, 1, 59, 0
2, 62640, Note_on_c, 1, 56, 127
2, 63000, Note_off_c, 1, 56, 0
2, 63040, Note_on_c, 1, 56, 127
2, 63280, Note_off_c, 1, 56, 0
2, 63400, Note_off_c, 1, 65, 0
2, 63480, Note_on_c, 1, 46, 127
2, 63480, Note_on_c, 1, 65, 127
2, 63800, Note_off_c, 1, 46, 0
2, 63840, Note_on_c, 1, 56, 127
2, 64160, Note_off_c, 1, 56, 0
2, 64560, Note_off_c, 1, 65, 0
2, 64600, Note_on_c, 1, 39, 127
2, 64600, Note_on_c, 1, 67, 127
2, 64920, Note_off_c, 1, 39, 0
2, 64960, Note_on_c, 1, 58, 127
2, 65320, Note_off_c, 1, 58, 0
2, 65360, Note_on_c, 1, 73, 127
2, 65520, Note_off_c, 1, 73, 0
2, 65560, Note_off_c, 1, 67, 0
2, 65600, Note_on_c, 1, 67, 127
2, 65760, Note_on_c, 1, 53, 127
2, 66120, Note_off_c, 1, 53, 0
2, 66160, Note_on_c, 1, 51, 127
2, 66480, Note_off_c, 1, 51, 0
2, 66520, Note_on_c, 1, 58, 127
2, 66880, Note_off_c, 1, 58, 0
2, 66920, Note_on_c, 1, 48, 127
2, 67240, Note_off_c, 1, 48, 0
2, 67240, Note_off_c, 1, 67, 0
2, 67280, Note_on_c, 1, 53, 127
2, 67280, Note_on_c, 1, 61, 127
2, 67280, Note_on_c, 1, 70, 127
2, 67680, Note_off_c, 1, 53, 0
2, 67680, Note_off_c, 1, 61, 0
2, 67680, Note_off_c, 1, 70, 0
2, 67720, Note_on_c, 1, 53, 127
2, 67720, Note_on_c, 1, 61, 127
2, 67720, Note_on_c, 1, 70, 127
2, 68040, Note_off_c, 1, 61, 0
2, 68040, Note_off_c, 1, 70, 0
2, 68040, Note_on_c, 1, 73, 127
2, 68080, Note_on_c, 1, 68, 127
2, 68800, Note_off_c, 1, 53, 0
2, 68800, Note_off_c, 1, 73, 0
2, 68840, Note_on_c, 1, 48, 127
2, 68840, Note_on_c, 1, 77, 127
2, 69200, Note_off_c, 1, 48, 0
2, 69240, Note_on_c, 1, 59, 127
2, 69600, Note_off_c, 1, 59, 0
2, 69640, Note_on_c, 1, 48, 127
2, 69760, Note_off_c, 1, 48, 0
2, 69760, Note_off_c, 1, 68, 0
2, 69760, Note_off_c, 1, 77, 0
2, 69800, Note_on_c, 1, 48, 127
2, 69800, Note_on_c, 1, 68, 127
2, 69800, Note_on_c, 1, 77, 127
2, 70000, Note_off_c, 1, 48, 0
2, 70040, Note_on_c, 1, 59, 127
2, 70400, Note_off_c, 1, 59, 0
2, 70400, Note_off_c, 1, 77, 0
2, 70440, Note_on_c, 1, 48, 127
2, 70440, Note_on_c, 1, 77, 127
2, 70760, Note_off_c, 1, 48, 0
2, 70800, Note_on_c, 1, 59, 127
2, 71160, Note_off_c, 1, 59, 0
2, 71200, Note_on_c, 1, 48, 127
2, 71520, Note_off_c, 1, 48, 0
2, 71560, Note_on_c, 1, 59, 127
2, 71920, Note_off_c, 1, 59, 0
2, 71920, Note_off_c, 1, 68, 0
2, 71920, Note_off_c, 1, 77, 0
2, 72000, Note_on_c, 1, 62, 127
2, 72000, Note_on_c, 1, 68, 127
2, 72000, Note_on_c, 1, 77, 127
2, 72320, Note_off_c, 1, 62, 0
2, 72360, Note_on_c, 1, 59, 127
2, 72720, Note_off_c, 1, 59, 0
2, 72760, Note_on_c, 1, 48, 127
2, 73080, Note_off_c, 1, 48, 0
2, 73120, Note_on_c, 1, 59, 127
2, 73480, Note_off_c, 1, 59, 0
2, 73520, Note_on_c, 1, 48, 127
2, 73840, Note_off_c, 1, 48, 0
2, 73880, Note_on_c, 1, 59, 127
2, 74200, Note_off_c, 1, 59, 0
2, 74200, Note_off_c, 1, 68, 0
2, 74200, Note_off_c, 1, 77, 0
2, 74240, Note_on_c, 1, 59, 127
2, 74240, Note_on_c, 1, 68, 127
2, 74240, Note_on_c, 1, 77, 127
2, 74280, Note_off_c, 1, 59, 0
2, 74280, Note_off_c, 1, 77, 0
2, 74320, Note_on_c, 1, 48, 127
2, 74320, Note_on_c, 1, 77, 127
2, 74640, Note_off_c, 1, 48, 0
2, 74680, Note_on_c, 1, 59, 127
2, 75040, Note_off_c, 1, 59, 0
2, 75080, Note_on_c, 1, 48, 127
2, 75400, Note_off_c, 1, 48, 0
2, 75440, Note_on_c, 1, 59, 127
2, 75800, Note_off_c, 1, 59, 0
2, 75800, Note_off_c, 1, 68, 0
2, 75800, Note_off_c, 1, 77, 0
2, 75840, Note_on_c, 1, 48, 127
2, 75840, Note_on_c, 1, 67, 127
2, 76160, Note_off_c, 1, 48, 0
2, 76200, Note_on_c, 1, 55, 127
2, 76320, Note_off_c, 1, 55, 0
2, 76320, Note_off_c, 1, 67, 0
2, 76360, Note_on_c, 1, 55, 127
2, 76360, Note_on_c, 1, 67, 127
2, 76600, Note_off_c, 1, 55, 0
2, 76640, Note_on_c, 1, 48, 127
2, 76960, Note_off_c, 1, 48, 0
2, 77000, Note_on_c, 1, 60, 127
2, 77360, Note_off_c, 1, 67, 0
2, 77400, Note_on_c, 1, 70, 127
2, 77720, Note_off_c, 1, 70, 0
2, 77760, Note_on_c, 1, 69, 127
2, 78120, Note_off_c, 1, 60, 0
2, 78120, Note_off_c, 1, 69, 0
2, 78160, Note_on_c, 1, 46, 127
2, 78160, Note_on_c, 1, 70, 127
2, 78160, Note_on_c, 1, 74, 127
2, 78440, Note_off_c, 1, 46, 0
2, 78440, Note_off_c, 1, 70, 0
2, 78440, Note_off_c, 1, 74, 0
2, 78480, Note_on_c, 1, 46, 127
2, 78480, Note_on_c, 1, 70, 127
2, 78480, Note_on_c, 1, 74, 127
2, 79280, Note_off_c, 1, 46, 0
2, 79320, Note_on_c, 1, 58, 127
2, 80040, Note_off_c, 1, 70, 0
2, 80040, Note_off_c, 1, 74, 0
2, 80080, Note_on_c, 1, 65, 127
2, 80440, Note_off_c, 1, 65, 0
2, 80480, Note_off_c, 1, 58, 0
2, 80520, Note_on_c, 1, 58, 127
2, 80840, Note_off_c, 1, 58, 0
2, 80880, Note_on_c, 1, 53, 127
2, 81600, Note_off_c, 1, 53, 0
2, 81640, Note_on_c, 1, 46, 127
2, 81960, Note_off_c, 1, 46, 0
2, 82000, Note_on_c, 1, 53, 127
2, 82360, Note_off_c, 1, 53, 0
2, 82400, Note_on_c, 1, 58, 127
2, 82600, Note_off_c, 1, 58, 0
2, 82640, Note_on_c, 1, 58, 127
2, 82760, Note_off_c, 1, 58, 0
2, 82800, Note_on_c, 1, 56, 127
2, 83120, Note_off_c, 1, 56, 0
2, 83160, Note_on_c, 1, 53, 127
2, 83520, Note_off_c, 1, 53, 0
2, 83560, Note_on_c, 1, 58, 127
2, 83880, Note_off_c, 1, 58, 0
2, 83920, Note_on_c, 1, 52, 127
2, 84280, Note_off_c, 1, 52, 0
2, 84320, Note_on_c, 1, 53, 127
2, 84640, Note_off_c, 1, 53, 0
2, 84720, Note_on_c, 1, 60, 127
2, 85080, Note_off_c, 1, 60, 0
2, 85120, Note_on_c, 1, 53, 127
2, 85440, Note_off_c, 1, 53, 0
2, 85480, Note_on_c, 1, 60, 127
2, 85840, Note_off_c, 1, 60, 0
2, 85880, Note_on_c, 1, 53, 127
2, 86200, Note_off_c, 1, 53, 0
2, 86240, Note_on_c, 1, 48, 127
2, 86240, Note_on_c, 1, 67, 127
2, 86560, Note_off_c, 1, 48, 0
2, 86600, Note_on_c, 1, 60, 127
2, 86880, Note_off_c, 1, 60, 0
2, 86880, Note_off_c, 1, 67, 0
2, 86920, Note_on_c, 1, 60, 127
2, 86920, Note_on_c, 1, 67, 127
2, 87000, Note_off_c, 1, 60, 0
2, 87000, Note_off_c, 1, 67, 0
2, 87040, Note_on_c, 1, 53, 127
2, 87040, Note_on_c, 1, 70, 127
2, 87360, Note_off_c, 1, 53, 0
2, 87400, Note_on_c, 1, 62, 127
2, 87720, Note_off_c, 1, 62, 0
2, 87760, Note_on_c, 1, 65, 127
2, 88080, Note_off_c, 1, 65, 0
2, 88120, Note_off_c, 1, 70, 0
2, 88160, Note_on_c, 1, 60, 127
2, 88160, Note_on_c, 1, 69, 127
2, 88480, Note_off_c, 1, 60, 0
2, 88520, Note_on_c, 1, 63, 127
2, 88880, Note_off_c, 1, 63, 0
2, 88920, Note_off_c, 1, 69, 0
2, 88960, Note_on_c, 1, 60, 127
2, 88960, Note_on_c, 1, 69, 127
2, 89280, Note_off_c, 1, 60, 0
2, 89280, Note_off_c, 1, 69, 0
2, 89320, Note_on_c, 1, 53, 127
2, 89320, Note_on_c, 1, 72, 127
2, 89680, Note_off_c, 1, 53, 0
2, 89720, Note_on_c, 1, 57, 127
2, 90040, Note_off_c, 1, 57, 0
2, 90040, Note_off_c, 1, 72, 0
2, 90080, Note_on_c, 1, 65, 127
2, 90800, Note_off_c, 1, 65, 0
2, 90840, Note_on_c, 1, 53, 127
2, 90840, Note_on_c, 1, 69, 127
2, 90960, Note_off_c, 1, 53, 0
2, 90960, Note_off_c, 1, 69, 0
2, 91000, Note_on_c, 1, 53, 127
2, 91000, Note_on_c, 1, 69, 127
2, 91200, Note_off_c, 1, 53, 0
2, 91240, Note_on_c, 1, 58, 127
2, 91600, Note_off_c, 1, 58, 0
2, 91640, Note_on_c, 1, 50, 127
2, 91960, Note_off_c, 1, 50, 0
2, 92000, Note_on_c, 1, 58, 127
2, 92360, Note_off_c, 1, 58, 0
2, 92360, Note_off_c, 1, 69, 0
2, 92400, Note_on_c, 1, 46, 127
2, 92400, Note_on_c, 1, 67, 127
2, 92720, Note_off_c, 1, 46, 0
2, 92760, Note_on_c, 1, 52, 127
2, 93120, Note_off_c, 1, 52, 0
2, 93120, Note_off_c, 1, 67, 0
2, 93160, Note_on_c, 1, 67, 127
2, 93200, Note_on_c, 1, 46, 127
2, 93520, Note_off_c, 1, 46, 0
2, 93560, Note_on_c, 1, 55, 127
2, 93880, Note_off_c, 1, 55, 0
2, 93920, Note_on_c, 1, 58, 127
2, 94280, Note_off_c, 1, 58, 0
2, 94320, Note_on_c, 1, 48, 127
2, 94640, Note_off_c, 1, 48, 0
2, 94680, Note_on_c, 1, 50, 127
2, 95000, Note_off_c, 1, 50, 0
2, 95080, Note_off_c, 1, 67, 0
2, 95120, Note_on_c, 1, 49, 127
2, 95120, Note_on_c, 1, 58, 127
2, 95120, Note_on_c, 1, 67, 127
2, 96200, Note_off_c, 1, 49, 0
2, 96200, Note_off_c, 1, 58, 0
2, 96200, Note_off_c, 1, 67, 0
2, 96240, Note_on_c, 1, 45, 127
2, 96240, Note_on_c, 1, 61, 127
2, 96240, Note_on_c, 1, 67, 127
2, 97000, Note_off_c, 1, 45, 0
2, 97000, Note_off_c, 1, 61, 0
2, 97000, Note_off_c, 1, 67, 0
2, 97040, Note_on_c, 1, 45, 127
2, 97040, Note_on_c, 1, 61, 127
2, 97040, Note_on_c, 1, 67, 127
2, 97360, Note_off_c, 1, 61, 0
2, 97920, Note_off_c, 1, 67, 0
2, 97960, Note_on_c, 1, 57, 127
2, 98120, Note_off_c, 1, 45, 0
2, 98160, Note_on_c, 1, 45, 127
2, 98480, Note_off_c, 1, 45, 0
2, 98480, Note_off_c, 1, 57, 0
2, 98520, Note_on_c, 1, 54, 127
2, 98520, Note_on_c, 1, 69, 127
2, 98880, Note_off_c, 1, 54, 0
2, 98880, Note_off_c, 1, 69, 0
2, 98960, Note_on_c, 1, 53, 127
2, 98960, Note_on_c, 1, 69, 127
2, 100800, Note_off_c, 1, 53, 0
2, 100800, Note_off_c, 1, 69, 0
2, 100880, Note_on_c, 1, 50, 127
2, 100880, Note_on_c, 1, 70, 127
2, 102000, Note_off_c, 1, 50, 0
2, 102000, Note_off_c, 1, 70, 0
2, 102040, Note_on_c, 1, 53, 127
2, 102040, Note_on_c, 1, 69, 127
2, 102840, Note_off_c, 1, 53, 0
2, 102840, Note_off_c, 1, 69, 0
2, 102880, Note_on_c, 1, 53, 127
2, 102880, Note_on_c, 1, 69, 127
2, 104720, Note_off_c, 1, 53, 0
2, 104720, Note_off_c, 1, 69, 0
2, 104800, Note_on_c, 1, 50, 127
2, 104800, Note_on_c, 1, 70, 127
2, 106280, Note_off_c, 1, 50, 0
2, 106280, Note_off_c, 1, 70, 0
2, 106320, Note_on_c, 1, 53, 127
2, 106320, Note_on_c, 1, 69, 127
2, 106680, Note_off_c, 1, 69, 0
2, 106720, Note_off_c, 1, 53, 0
2, 106760, Note_on_c, 1, 53, 127
2, 106760, Note_on_c, 1, 65, 127
2, 107120, Note_off_c, 1, 53, 0
2, 107160, Note_on_c, 1, 48, 127
2, 107480, Note_off_c, 1, 48, 0
2, 107520, Note_on_c, 1, 51, 127
2, 107880, Note_off_c, 1, 51, 0
2, 107920, Note_on_c, 1, 50, 127
2, 108240, Note_off_c, 1, 50, 0
2, 108280, Note_on_c, 1, 48, 127
2, 108280, Note_off_c, 1, 65, 0
2, 108280, Note_on_c, 1, 66, 127
2, 108640, Note_off_c, 1, 48, 0
2, 108680, Note_off_c, 1, 66, 0
2, 108720, Note_on_c, 1, 46, 127
2, 108720, Note_on_c, 1, 66, 127
2, 109040, Note_off_c, 1, 46, 0
2, 109080, Note_on_c, 1, 48, 127
2, 109440, Note_off_c, 1, 48, 0
2, 109480, Note_on_c, 1, 38, 127
2, 109800, Note_off_c, 1, 38, 0
2, 109800, Note_off_c, 1, 66, 0
2, 109840, Note_on_c, 1, 63, 127
2, 110200, Note_off_c, 1, 63, 0
2, 110240, Note_on_c, 1, 54, 127
2, 110840, Note_off_c, 1, 54, 0
2, 110880, Note_on_c, 1, 54, 127
2, 111000, Note_off_c, 1, 54, 0
2, 111040, Note_on_c, 1, 58, 127
2, 111400, Note_off_c, 1, 58, 0
2, 111440, Note_on_c, 1, 61, 127
2, 111760, Note_off_c, 1, 61, 0
2, 111800, Note_on_c, 1, 58, 127
2, 112160, Note_off_c, 1, 58, 0
2, 112200, Note_on_c, 1, 61, 127
2, 112520, Note_off_c, 1, 61, 0
2, 112560, Note_on_c, 1, 66, 127
2, 112920, Note_off_c, 1, 66, 0
2, 113000, Note_on_c, 1, 70, 127
2, 113320, Note_off_c, 1, 70, 0
2, 113360, Note_on_c, 1, 49, 127
2, 113360, Note_on_c, 1, 58, 127
2, 113360, Note_on_c, 1, 73, 127
2, 113720, Note_off_c, 1, 73, 0
2, 113760, Note_on_c, 1, 70, 127
2, 114080, Note_off_c, 1, 70, 0
2, 114120, Note_on_c, 1, 73, 127
2, 114480, Note_off_c, 1, 58, 0
2, 114480, Note_off_c, 1, 73, 0
2, 114520, Note_on_c, 1, 58, 127
2, 114520, Note_on_c, 1, 73, 127
2, 114840, Note_off_c, 1, 73, 0
2, 114880, Note_on_c, 1, 70, 127
2, 115040, Note_off_c, 1, 49, 0
2, 115040, Note_off_c, 1, 58, 0
2, 115040, Note_off_c, 1, 70, 0
2, 115080, Note_on_c, 1, 49, 127
2, 115080, Note_on_c, 1, 58, 127
2, 115080, Note_on_c, 1, 70, 127
2, 115280, Note_off_c, 1, 58, 0
2, 115280, Note_off_c, 1, 70, 0
2, 115320, Note_on_c, 1, 58, 127
2, 115320, Note_on_c, 1, 65, 127
2, 115640, Note_off_c, 1, 49, 0
2, 115640, Note_off_c, 1, 65, 0
2, 115680, Note_on_c, 1, 54, 127
2, 115680, Note_on_c, 1, 66, 127
2, 116040, Note_off_c, 1, 54, 0
2, 116040, Note_off_c, 1, 58, 0
2, 116080, Note_on_c, 1, 49, 127
2, 116080, Note_on_c, 1, 58, 127
2, 117160, Note_off_c, 1, 49, 0
2, 117160, Note_off_c, 1, 58, 0
2, 117160, Note_off_c, 1, 66, 0
2, 117200, Note_on_c, 1, 49, 127
2, 117200, Note_on_c, 1, 58, 127
2, 117200, Note_on_c, 1, 66, 127
2, 117240, Note_off_c, 1, 58, 0
2, 117240, Note_off_c, 1, 66, 0
2, 117280, Note_on_c, 1, 56, 127
2, 117640, Note_off_c, 1, 49, 0
2, 117680, Note_on_c, 1, 49, 127
2, 118040, Note_off_c, 1, 49, 0
2, 118040, Note_off_c, 1, 56, 0
2, 118080, Note_on_c, 1, 54, 127
2, 118080, Note_on_c, 1, 58, 127
2, 118440, Note_on_c, 1, 73, 127
2, 119000, Note_off_c, 1, 73, 0
2, 119120, Note_on_c, 1, 73, 127
2, 119200, Note_off_c, 1, 54, 0
2, 119200, Note_off_c, 1, 58, 0
2, 119200, Note_off_c, 1, 73, 0
2, 119280, Note_on_c, 1, 56, 127
2, 119280, Note_on_c, 1, 59, 127
2, 120000, Note_off_c, 1, 56, 0
2, 120000, Note_off_c, 1, 59, 0
2, 120040, End_track
3, 0, Start_track
3, 0, Title_t, "MIDI"
3, 1536, End_track
0, 0, End_of_file
